import midi
pattern=midi.Pattern(format=1, resolution=480, tracks=\
[midi.Track(\
[   midi.NoteOnEvent(tick=130, channel=0, data=[74,57]),
   midi.NoteOnEvent(tick=130, channel=0, data=[76,57]),
   midi.NoteOnEvent(tick=21, channel=0, data=[74,0]),
   midi.NoteOnEvent(tick=108, channel=0, data=[78,57]),
   midi.NoteOnEvent(tick=21, channel=0, data=[76,0]),
   midi.NoteOnEvent(tick=108, channel=0, data=[69,60]),
   midi.NoteOnEvent(tick=21, channel=0, data=[78,0]),
   midi.NoteOnEvent(tick=108, channel=0, data=[69,0]),
   midi.NoteOnEvent(tick=0, channel=0, data=[78,57]),
   midi.NoteOnEvent(tick=130, channel=0, data=[76,57]),
   midi.NoteOnEvent(tick=78, channel=0, data=[74,22]),
   midi.NoteOnEvent(tick=76, channel=0, data=[75,25]),
   midi.NoteOnEvent(tick=79, channel=0, data=[75,26]),
   midi.NoteOnEvent(tick=102, channel=0, data=[75,28]),
   midi.NoteOnEvent(tick=90, channel=0, data=[75,27]),
   midi.NoteOnEvent(tick=105, channel=0, data=[75,28]),
   midi.NoteOnEvent(tick=92, channel=0, data=[75,28]),
   midi.NoteOnEvent(tick=104, channel=0, data=[76,28]),
   midi.NoteOnEvent(tick=118, channel=0, data=[76,29]),
   midi.NoteOnEvent(tick=97, channel=0, data=[76,28]),
   midi.NoteOnEvent(tick=83, channel=0, data=[76,27]),
   midi.NoteOnEvent(tick=87, channel=0, data=[76,28]),
   midi.NoteOnEvent(tick=89, channel=0, data=[76,28]),
   midi.NoteOnEvent(tick=90, channel=0, data=[76,28]),
   midi.NoteOnEvent(tick=90, channel=0, data=[76,28]),
   midi.NoteOnEvent(tick=90, channel=0, data=[76,28]),
   midi.NoteOnEvent(tick=90, channel=0, data=[76,28]),
   midi.NoteOnEvent(tick=90, channel=0, data=[76,28]),
   midi.NoteOnEvent(tick=90, channel=0, data=[76,28]),
   midi.NoteOnEvent(tick=89, channel=0, data=[76,28]),
   midi.NoteOnEvent(tick=89, channel=0, data=[76,28]),
   midi.NoteOnEvent(tick=90, channel=0, data=[76,28]),
   midi.NoteOnEvent(tick=90, channel=0, data=[76,28]),
   midi.NoteOnEvent(tick=90, channel=0, data=[76,28]),
   midi.NoteOnEvent(tick=90, channel=0, data=[76,28]),
   midi.NoteOnEvent(tick=90, channel=0, data=[77,28]),
   midi.NoteOnEvent(tick=90, channel=0, data=[77,28]),
   midi.NoteOnEvent(tick=90, channel=0, data=[77,28]),
   midi.NoteOnEvent(tick=90, channel=0, data=[77,28]),
   midi.NoteOnEvent(tick=90, channel=0, data=[77,28]),
   midi.NoteOnEvent(tick=91, channel=0, data=[77,28]),
   midi.EndOfTrackEvent(tick=0, channel=0, data=[0,0])])])

midi.write_midifile("newMusic.mid", pattern)