midi.Pattern(format=1, resolution=480, tracks=\
[midi.Track(\
  [midi.TrackNameEvent(tick=0, text='Intermezzo Opus 117 Nr. 1', data=[73, 110, 116, 101, 114, 109, 101, 122, 122, 111, 32, 79, 112, 117, 115, 32, 49, 49, 55, 32, 78, 114, 46, 32, 49]),
   midi.CopyrightMetaEvent(tick=0, text='Copyright © 2010 by Bernd Krueger', data=[67, 111, 112, 121, 114, 105, 103, 104, 116, 32, 169, 32, 50, 48, 49, 48, 32, 98, 121, 32, 66, 101, 114, 110, 100, 32, 75, 114, 117, 101, 103, 101, 114]),
   midi.TextMetaEvent(tick=0, text='Johannes Brahms', data=[74, 111, 104, 97, 110, 110, 101, 115, 32, 66, 114, 97, 104, 109, 115]),
   midi.TextMetaEvent(tick=0, text='Andante moderato', data=[65, 110, 100, 97, 110, 116, 101, 32, 109, 111, 100, 101, 114, 97, 116, 111]),
   midi.TextMetaEvent(tick=0, text='Erstellt: 9.10.2010\n', data=[69, 114, 115, 116, 101, 108, 108, 116, 58, 32, 57, 46, 49, 48, 46, 50, 48, 49, 48, 10]),
   midi.TextMetaEvent(tick=0, text='Dauer: 4:39 Minuten\n', data=[68, 97, 117, 101, 114, 58, 32, 52, 58, 51, 57, 32, 77, 105, 110, 117, 116, 101, 110, 10]),
   midi.TimeSignatureEvent(tick=0, data=[6, 3, 12, 8]),
   midi.KeySignatureEvent(tick=0, data=[253, 0]),
   midi.SetTempoEvent(tick=0, data=[12, 229, 133]),
   midi.SetTempoEvent(tick=1200, data=[21, 13, 44]),
   midi.MarkerEvent(tick=0, text='Andante moderato', data=[65, 110, 100, 97, 110, 116, 101, 32, 109, 111, 100, 101, 114, 97, 116, 111]),
   midi.SetTempoEvent(tick=240, data=[19, 177, 104]),
   midi.SetTempoEvent(tick=240, data=[20, 148, 10]),
   midi.SetTempoEvent(tick=1200, data=[21, 13, 44]),
   midi.SetTempoEvent(tick=480, data=[22, 156, 119]),
   midi.SetTempoEvent(tick=720, data=[20, 148, 10]),
   midi.SetTempoEvent(tick=120, data=[23, 201, 62]),
   midi.SetTempoEvent(tick=120, data=[20, 148, 10]),
   midi.SetTempoEvent(tick=480, data=[20, 207, 234]),
   midi.SetTempoEvent(tick=720, data=[21, 75, 217]),
   midi.SetTempoEvent(tick=240, data=[20, 148, 10]),
   midi.SetTempoEvent(tick=240, data=[21, 205, 176]),
   midi.SetTempoEvent(tick=120, data=[20, 32, 59]),
   midi.SetTempoEvent(tick=120, data=[22, 156, 119]),
   midi.SetTempoEvent(tick=240, data=[21, 205, 176]),
   midi.SetTempoEvent(tick=360, data=[20, 207, 234]),
   midi.SetTempoEvent(tick=120, data=[20, 32, 59]),
   midi.SetTempoEvent(tick=120, data=[22, 16, 244]),
   midi.SetTempoEvent(tick=120, data=[20, 207, 234]),
   midi.SetTempoEvent(tick=480, data=[22, 16, 244]),
   midi.SetTempoEvent(tick=600, data=[20, 207, 234]),
   midi.SetTempoEvent(tick=360, data=[20, 32, 59]),
   midi.SetTempoEvent(tick=240, data=[20, 148, 10]),
   midi.SetTempoEvent(tick=240, data=[22, 16, 244]),
   midi.SetTempoEvent(tick=480, data=[21, 75, 217]),
   midi.SetTempoEvent(tick=240, data=[20, 207, 234]),
   midi.SetTempoEvent(tick=720, data=[21, 205, 176]),
   midi.SetTempoEvent(tick=720, data=[20, 148, 10]),
   midi.SetTempoEvent(tick=120, data=[22, 156, 119]),
   midi.SetTempoEvent(tick=120, data=[21, 13, 44]),
   midi.SetTempoEvent(tick=480, data=[21, 75, 217]),
   midi.SetTempoEvent(tick=120, data=[24, 25, 99]),
   midi.SetTempoEvent(tick=120, data=[21, 140, 1]),
   midi.SetTempoEvent(tick=240, data=[23, 201, 62]),
   midi.SetTempoEvent(tick=240, data=[27, 3, 194]),
   midi.SetTempoEvent(tick=120, data=[33, 108, 245]),
   midi.SetTempoEvent(tick=120, data=[21, 25, 151]),
   midi.SetTempoEvent(tick=240, data=[20, 148, 10]),
   midi.SetTempoEvent(tick=1200, data=[21, 13, 44]),
   midi.SetTempoEvent(tick=480, data=[22, 156, 119]),
   midi.SetTempoEvent(tick=720, data=[20, 148, 10]),
   midi.SetTempoEvent(tick=120, data=[23, 201, 62]),
   midi.SetTempoEvent(tick=120, data=[20, 148, 10]),
   midi.SetTempoEvent(tick=480, data=[20, 207, 234]),
   midi.SetTempoEvent(tick=720, data=[21, 75, 217]),
   midi.SetTempoEvent(tick=240, data=[20, 148, 10]),
   midi.SetTempoEvent(tick=240, data=[21, 205, 176]),
   midi.SetTempoEvent(tick=120, data=[20, 32, 59]),
   midi.SetTempoEvent(tick=120, data=[22, 156, 119]),
   midi.SetTempoEvent(tick=240, data=[21, 205, 176]),
   midi.SetTempoEvent(tick=360, data=[20, 207, 234]),
   midi.SetTempoEvent(tick=120, data=[20, 32, 59]),
   midi.SetTempoEvent(tick=120, data=[22, 16, 244]),
   midi.SetTempoEvent(tick=120, data=[19, 177, 104]),
   midi.SetTempoEvent(tick=240, data=[20, 148, 10]),
   midi.SetTempoEvent(tick=240, data=[19, 232, 55]),
   midi.SetTempoEvent(tick=720, data=[19, 232, 55]),
   midi.SetTempoEvent(tick=240, data=[19, 177, 104]),
   midi.SetTempoEvent(tick=240, data=[19, 232, 55]),
   midi.SetTempoEvent(tick=120, data=[19, 177, 104]),
   midi.SetTempoEvent(tick=360, data=[20, 32, 59]),
   midi.SetTempoEvent(tick=240, data=[21, 13, 44]),
   midi.SetTempoEvent(tick=240, data=[21, 205, 176]),
   midi.SetTempoEvent(tick=120, data=[25, 22, 254]),
   midi.SetTempoEvent(tick=120, data=[21, 75, 217]),
   midi.SetTempoEvent(tick=480, data=[21, 205, 176]),
   midi.SetTempoEvent(tick=720, data=[23, 123, 40]),
   midi.SetTempoEvent(tick=240, data=[22, 16, 244]),
   midi.SetTempoEvent(tick=240, data=[25, 22, 254]),
   midi.SetTempoEvent(tick=120, data=[22, 156, 119]),
   midi.SetTempoEvent(tick=120, data=[25, 112, 58]),
   midi.SetTempoEvent(tick=240, data=[26, 42, 88]),
   midi.SetTempoEvent(tick=480, data=[23, 138, 157]),
   midi.SetTempoEvent(tick=120, data=[26, 159, 53]),
   midi.SetTempoEvent(tick=120, data=[24, 41, 171]),
   midi.SetTempoEvent(tick=480, data=[25, 130, 95]),
   midi.SetTempoEvent(tick=720, data=[24, 41, 171]),
   midi.SetTempoEvent(tick=120, data=[27, 107, 81]),
   midi.SetTempoEvent(tick=120, data=[23, 217, 27]),
   midi.SetTempoEvent(tick=480, data=[26, 159, 53]),
   midi.SetTempoEvent(tick=240, data=[25, 40, 165]),
   midi.SetTempoEvent(tick=480, data=[23, 138, 157]),
   midi.SetTempoEvent(tick=120, data=[26, 159, 53]),
   midi.SetTempoEvent(tick=120, data=[24, 41, 171]),
   midi.SetTempoEvent(tick=480, data=[25, 130, 95]),
   midi.SetTempoEvent(tick=720, data=[23, 138, 157]),
   midi.SetTempoEvent(tick=120, data=[26, 159, 53]),
   midi.SetTempoEvent(tick=120, data=[25, 40, 165]),
   midi.SetTempoEvent(tick=480, data=[27, 107, 81]),
   midi.SetTempoEvent(tick=240, data=[29, 163, 104]),
   midi.SetTempoEvent(tick=240, data=[34, 12, 17]),
   midi.SetTempoEvent(tick=240, data=[71, 6, 179]),
   midi.KeySignatureEvent(tick=240, data=[250, 0]),
   midi.SetTempoEvent(tick=0, data=[30, 32, 62]),
   midi.MarkerEvent(tick=0, text='Piu Adagio', data=[80, 105, 117, 32, 65, 100, 97, 103, 105, 111]),
   midi.SetTempoEvent(tick=120, data=[27, 107, 81]),
   midi.SetTempoEvent(tick=120, data=[26, 159, 53]),
   midi.SetTempoEvent(tick=120, data=[26, 159, 53]),
   midi.SetTempoEvent(tick=120, data=[25, 40, 165]),
   midi.SetTempoEvent(tick=120, data=[31, 176, 171]),
   midi.SetTempoEvent(tick=120, data=[26, 159, 53]),
   midi.SetTempoEvent(tick=240, data=[24, 209, 89]),
   midi.SetTempoEvent(tick=120, data=[26, 159, 53]),
   midi.SetTempoEvent(tick=240, data=[27, 107, 81]),
   midi.SetTempoEvent(tick=120, data=[27, 3, 194]),
   midi.SetTempoEvent(tick=120, data=[25, 130, 95]),
   midi.SetTempoEvent(tick=120, data=[25, 222, 162]),
   midi.SetTempoEvent(tick=120, data=[25, 40, 165]),
   midi.SetTempoEvent(tick=120, data=[27, 107, 81]),
   midi.SetTempoEvent(tick=120, data=[31, 176, 171]),
   midi.SetTempoEvent(tick=120, data=[27, 3, 194]),
   midi.SetTempoEvent(tick=360, data=[25, 40, 165]),
   midi.SetTempoEvent(tick=240, data=[27, 107, 81]),
   midi.SetTempoEvent(tick=120, data=[27, 107, 81]),
   midi.SetTempoEvent(tick=120, data=[27, 107, 81]),
   midi.SetTempoEvent(tick=120, data=[26, 159, 53]),
   midi.SetTempoEvent(tick=120, data=[26, 159, 53]),
   midi.SetTempoEvent(tick=120, data=[25, 40, 165]),
   midi.SetTempoEvent(tick=120, data=[31, 176, 171]),
   midi.SetTempoEvent(tick=120, data=[26, 159, 53]),
   midi.SetTempoEvent(tick=240, data=[24, 209, 89]),
   midi.SetTempoEvent(tick=120, data=[26, 159, 53]),
   midi.SetTempoEvent(tick=240, data=[27, 107, 81]),
   midi.SetTempoEvent(tick=120, data=[27, 214, 7]),
   midi.SetTempoEvent(tick=120, data=[27, 107, 81]),
   midi.SetTempoEvent(tick=120, data=[26, 159, 53]),
   midi.SetTempoEvent(tick=120, data=[26, 159, 53]),
   midi.SetTempoEvent(tick=120, data=[25, 40, 165]),
   midi.SetTempoEvent(tick=120, data=[31, 176, 171]),
   midi.SetTempoEvent(tick=120, data=[26, 159, 53]),
   midi.SetTempoEvent(tick=240, data=[24, 209, 89]),
   midi.SetTempoEvent(tick=120, data=[26, 159, 53]),
   midi.SetTempoEvent(tick=240, data=[27, 107, 81]),
   midi.SetTempoEvent(tick=120, data=[27, 107, 81]),
   midi.SetTempoEvent(tick=120, data=[27, 107, 81]),
   midi.SetTempoEvent(tick=120, data=[26, 159, 53]),
   midi.SetTempoEvent(tick=120, data=[26, 159, 53]),
   midi.SetTempoEvent(tick=120, data=[25, 40, 165]),
   midi.SetTempoEvent(tick=120, data=[31, 176, 171]),
   midi.SetTempoEvent(tick=120, data=[26, 159, 53]),
   midi.SetTempoEvent(tick=240, data=[24, 209, 89]),
   midi.SetTempoEvent(tick=120, data=[26, 159, 53]),
   midi.SetTempoEvent(tick=240, data=[27, 107, 81]),
   midi.SetTempoEvent(tick=360, data=[25, 222, 162]),
   midi.SetTempoEvent(tick=360, data=[28, 181, 124]),
   midi.SetTempoEvent(tick=120, data=[25, 222, 162]),
   midi.SetTempoEvent(tick=600, data=[28, 68, 8]),
   midi.SetTempoEvent(tick=120, data=[27, 107, 81]),
   midi.SetTempoEvent(tick=120, data=[27, 107, 81]),
   midi.SetTempoEvent(tick=120, data=[26, 159, 53]),
   midi.SetTempoEvent(tick=120, data=[26, 159, 53]),
   midi.SetTempoEvent(tick=120, data=[25, 40, 165]),
   midi.SetTempoEvent(tick=120, data=[31, 176, 171]),
   midi.SetTempoEvent(tick=120, data=[26, 159, 53]),
   midi.SetTempoEvent(tick=240, data=[24, 209, 89]),
   midi.SetTempoEvent(tick=120, data=[26, 159, 53]),
   midi.SetTempoEvent(tick=240, data=[29, 42, 141]),
   midi.SetTempoEvent(tick=120, data=[27, 3, 194]),
   midi.SetTempoEvent(tick=240, data=[25, 222, 162]),
   midi.SetTempoEvent(tick=360, data=[32, 211, 141]),
   midi.SetTempoEvent(tick=120, data=[28, 181, 124]),
   midi.SetTempoEvent(tick=240, data=[30, 161, 64]),
   midi.SetTempoEvent(tick=240, data=[34, 12, 17]),
   midi.SetTempoEvent(tick=240, data=[30, 32, 62]),
   midi.SetTempoEvent(tick=120, data=[27, 107, 81]),
   midi.SetTempoEvent(tick=120, data=[26, 159, 53]),
   midi.SetTempoEvent(tick=120, data=[26, 159, 53]),
   midi.SetTempoEvent(tick=120, data=[25, 40, 165]),
   midi.SetTempoEvent(tick=120, data=[31, 176, 171]),
   midi.SetTempoEvent(tick=120, data=[26, 159, 53]),
   midi.SetTempoEvent(tick=240, data=[24, 209, 89]),
   midi.SetTempoEvent(tick=120, data=[26, 159, 53]),
   midi.SetTempoEvent(tick=240, data=[27, 107, 81]),
   midi.SetTempoEvent(tick=120, data=[27, 3, 194]),
   midi.SetTempoEvent(tick=120, data=[25, 130, 95]),
   midi.SetTempoEvent(tick=120, data=[25, 222, 162]),
   midi.SetTempoEvent(tick=120, data=[25, 40, 165]),
   midi.SetTempoEvent(tick=120, data=[27, 107, 81]),
   midi.SetTempoEvent(tick=120, data=[31, 176, 171]),
   midi.SetTempoEvent(tick=120, data=[27, 3, 194]),
   midi.SetTempoEvent(tick=360, data=[25, 40, 165]),
   midi.SetTempoEvent(tick=240, data=[27, 107, 81]),
   midi.SetTempoEvent(tick=120, data=[27, 107, 81]),
   midi.SetTempoEvent(tick=120, data=[27, 107, 81]),
   midi.SetTempoEvent(tick=120, data=[26, 159, 53]),
   midi.SetTempoEvent(tick=120, data=[26, 159, 53]),
   midi.SetTempoEvent(tick=120, data=[25, 40, 165]),
   midi.SetTempoEvent(tick=120, data=[31, 176, 171]),
   midi.SetTempoEvent(tick=120, data=[26, 159, 53]),
   midi.SetTempoEvent(tick=240, data=[24, 209, 89]),
   midi.SetTempoEvent(tick=120, data=[26, 159, 53]),
   midi.SetTempoEvent(tick=240, data=[27, 107, 81]),
   midi.SetTempoEvent(tick=120, data=[27, 214, 7]),
   midi.SetTempoEvent(tick=120, data=[27, 107, 81]),
   midi.SetTempoEvent(tick=120, data=[26, 159, 53]),
   midi.SetTempoEvent(tick=120, data=[26, 159, 53]),
   midi.SetTempoEvent(tick=120, data=[25, 40, 165]),
   midi.SetTempoEvent(tick=120, data=[31, 176, 171]),
   midi.SetTempoEvent(tick=120, data=[26, 159, 53]),
   midi.SetTempoEvent(tick=240, data=[24, 209, 89]),
   midi.SetTempoEvent(tick=120, data=[26, 159, 53]),
   midi.SetTempoEvent(tick=240, data=[27, 107, 81]),
   midi.SetTempoEvent(tick=120, data=[27, 107, 81]),
   midi.SetTempoEvent(tick=120, data=[27, 107, 81]),
   midi.SetTempoEvent(tick=120, data=[26, 159, 53]),
   midi.SetTempoEvent(tick=120, data=[26, 159, 53]),
   midi.SetTempoEvent(tick=120, data=[25, 40, 165]),
   midi.SetTempoEvent(tick=120, data=[31, 176, 171]),
   midi.SetTempoEvent(tick=120, data=[26, 159, 53]),
   midi.SetTempoEvent(tick=240, data=[24, 209, 89]),
   midi.SetTempoEvent(tick=120, data=[26, 159, 53]),
   midi.SetTempoEvent(tick=240, data=[27, 107, 81]),
   midi.SetTempoEvent(tick=360, data=[25, 222, 162]),
   midi.SetTempoEvent(tick=360, data=[28, 181, 124]),
   midi.SetTempoEvent(tick=120, data=[25, 222, 162]),
   midi.SetTempoEvent(tick=600, data=[28, 68, 8]),
   midi.SetTempoEvent(tick=120, data=[27, 107, 81]),
   midi.SetTempoEvent(tick=120, data=[27, 107, 81]),
   midi.SetTempoEvent(tick=120, data=[26, 159, 53]),
   midi.SetTempoEvent(tick=120, data=[26, 159, 53]),
   midi.SetTempoEvent(tick=120, data=[25, 40, 165]),
   midi.SetTempoEvent(tick=120, data=[31, 176, 171]),
   midi.SetTempoEvent(tick=120, data=[26, 159, 53]),
   midi.SetTempoEvent(tick=240, data=[24, 209, 89]),
   midi.SetTempoEvent(tick=120, data=[26, 159, 53]),
   midi.SetTempoEvent(tick=240, data=[27, 107, 81]),
   midi.SetTempoEvent(tick=120, data=[27, 107, 81]),
   midi.KeySignatureEvent(tick=2880, data=[253, 0]),
   midi.SetTempoEvent(tick=0, data=[22, 30, 154]),
   midi.MarkerEvent(tick=0, text='Un poco piu Andante', data=[85, 110, 32, 112, 111, 99, 111, 32, 112, 105, 117, 32, 65, 110, 100, 97, 110, 116, 101]),
   midi.SetTempoEvent(tick=240, data=[20, 148, 10]),
   midi.SetTempoEvent(tick=1200, data=[21, 13, 44]),
   midi.SetTempoEvent(tick=480, data=[22, 156, 119]),
   midi.SetTempoEvent(tick=720, data=[20, 148, 10]),
   midi.SetTempoEvent(tick=120, data=[23, 201, 62]),
   midi.SetTempoEvent(tick=120, data=[20, 148, 10]),
   midi.SetTempoEvent(tick=480, data=[20, 207, 234]),
   midi.SetTempoEvent(tick=720, data=[21, 75, 217]),
   midi.SetTempoEvent(tick=240, data=[20, 148, 10]),
   midi.SetTempoEvent(tick=240, data=[21, 205, 176]),
   midi.SetTempoEvent(tick=120, data=[20, 32, 59]),
   midi.SetTempoEvent(tick=120, data=[22, 156, 119]),
   midi.SetTempoEvent(tick=240, data=[21, 205, 176]),
   midi.SetTempoEvent(tick=360, data=[20, 207, 234]),
   midi.SetTempoEvent(tick=120, data=[20, 32, 59]),
   midi.SetTempoEvent(tick=120, data=[22, 16, 244]),
   midi.SetTempoEvent(tick=120, data=[20, 207, 234]),
   midi.SetTempoEvent(tick=480, data=[22, 16, 244]),
   midi.SetTempoEvent(tick=600, data=[20, 207, 234]),
   midi.SetTempoEvent(tick=360, data=[20, 32, 59]),
   midi.SetTempoEvent(tick=240, data=[20, 148, 10]),
   midi.SetTempoEvent(tick=240, data=[22, 16, 244]),
   midi.SetTempoEvent(tick=480, data=[21, 75, 217]),
   midi.SetTempoEvent(tick=240, data=[20, 207, 234]),
   midi.SetTempoEvent(tick=720, data=[21, 205, 176]),
   midi.SetTempoEvent(tick=600, data=[23, 62, 29]),
   midi.SetTempoEvent(tick=120, data=[21, 88, 143]),
   midi.SetTempoEvent(tick=120, data=[24, 41, 171]),
   midi.SetTempoEvent(tick=120, data=[21, 13, 44]),
   midi.SetTempoEvent(tick=480, data=[21, 75, 217]),
   midi.SetTempoEvent(tick=120, data=[24, 25, 99]),
   midi.SetTempoEvent(tick=120, data=[21, 140, 1]),
   midi.SetTempoEvent(tick=240, data=[23, 201, 62]),
   midi.SetTempoEvent(tick=240, data=[27, 214, 7]),
   midi.SetTempoEvent(tick=120, data=[34, 12, 17]),
   midi.SetTempoEvent(tick=120, data=[21, 88, 143]),
   midi.SetTempoEvent(tick=240, data=[20, 148, 10]),
   midi.SetTempoEvent(tick=1200, data=[21, 13, 44]),
   midi.SetTempoEvent(tick=480, data=[22, 156, 119]),
   midi.SetTempoEvent(tick=720, data=[20, 148, 10]),
   midi.SetTempoEvent(tick=120, data=[23, 201, 62]),
   midi.SetTempoEvent(tick=120, data=[20, 148, 10]),
   midi.SetTempoEvent(tick=480, data=[20, 207, 234]),
   midi.SetTempoEvent(tick=720, data=[21, 75, 217]),
   midi.SetTempoEvent(tick=240, data=[20, 148, 10]),
   midi.SetTempoEvent(tick=240, data=[21, 205, 176]),
   midi.SetTempoEvent(tick=120, data=[20, 32, 59]),
   midi.SetTempoEvent(tick=120, data=[22, 156, 119]),
   midi.SetTempoEvent(tick=240, data=[21, 205, 176]),
   midi.SetTempoEvent(tick=360, data=[20, 207, 234]),
   midi.SetTempoEvent(tick=120, data=[20, 32, 59]),
   midi.SetTempoEvent(tick=120, data=[22, 16, 244]),
   midi.SetTempoEvent(tick=120, data=[19, 177, 104]),
   midi.SetTempoEvent(tick=240, data=[20, 148, 10]),
   midi.SetTempoEvent(tick=240, data=[19, 232, 55]),
   midi.SetTempoEvent(tick=720, data=[19, 232, 55]),
   midi.SetTempoEvent(tick=240, data=[19, 177, 104]),
   midi.SetTempoEvent(tick=240, data=[19, 232, 55]),
   midi.SetTempoEvent(tick=120, data=[19, 177, 104]),
   midi.SetTempoEvent(tick=360, data=[20, 32, 59]),
   midi.SetTempoEvent(tick=240, data=[21, 13, 44]),
   midi.SetTempoEvent(tick=240, data=[21, 205, 176]),
   midi.SetTempoEvent(tick=120, data=[25, 22, 254]),
   midi.SetTempoEvent(tick=120, data=[21, 75, 217]),
   midi.SetTempoEvent(tick=480, data=[21, 205, 176]),
   midi.SetTempoEvent(tick=720, data=[23, 123, 40]),
   midi.SetTempoEvent(tick=240, data=[22, 16, 244]),
   midi.SetTempoEvent(tick=240, data=[26, 139, 115]),
   midi.SetTempoEvent(tick=120, data=[22, 228, 215]),
   midi.SetTempoEvent(tick=120, data=[25, 112, 58]),
   midi.SetTempoEvent(tick=240, data=[26, 42, 88]),
   midi.SetTempoEvent(tick=480, data=[29, 18, 215]),
   midi.SetTempoEvent(tick=720, data=[31, 11, 156]),
   midi.SetTempoEvent(tick=720, data=[32, 181, 135]),
   midi.SetTempoEvent(tick=720, data=[35, 57, 228]),
   midi.SetTempoEvent(tick=720, data=[38, 249, 166]),
   midi.EndOfTrackEvent(tick=0, data=[])]),
 midi.Track(\
  [midi.TrackNameEvent(tick=0, text='Piano right', data=[80, 105, 97, 110, 111, 32, 114, 105, 103, 104, 116]),
   midi.ProgramChangeEvent(tick=0, channel=0, data=[0]),
   midi.NoteOnEvent(tick=1200, channel=0, data=[70, 36]),
   midi.NoteOnEvent(tick=240, channel=0, data=[70, 0]),
   midi.NoteOnEvent(tick=0, channel=0, data=[63, 23]),
   midi.NoteOnEvent(tick=0, channel=0, data=[75, 40]),
   midi.NoteOnEvent(tick=240, channel=0, data=[74, 36]),
   midi.NoteOnEvent(tick=240, channel=0, data=[74, 0]),
   midi.NoteOnEvent(tick=0, channel=0, data=[75, 0]),
   midi.NoteOnEvent(tick=0, channel=0, data=[63, 0]),
   midi.NoteOnEvent(tick=0, channel=0, data=[63, 23]),
   midi.NoteOnEvent(tick=0, channel=0, data=[75, 23]),
   midi.NoteOnEvent(tick=0, channel=0, data=[72, 33]),
   midi.NoteOnEvent(tick=240, channel=0, data=[72, 0]),
   midi.NoteOnEvent(tick=0, channel=0, data=[75, 0]),
   midi.NoteOnEvent(tick=0, channel=0, data=[63, 0]),
   midi.NoteOnEvent(tick=0, channel=0, data=[63, 25]),
   midi.NoteOnEvent(tick=0, channel=0, data=[75, 25]),
   midi.NoteOnEvent(tick=0, channel=0, data=[70, 37]),
   midi.NoteOnEvent(tick=480, channel=0, data=[70, 0]),
   midi.NoteOnEvent(tick=0, channel=0, data=[75, 0]),
   midi.NoteOnEvent(tick=0, channel=0, data=[63, 0]),
   midi.NoteOnEvent(tick=0, channel=0, data=[63, 23]),
   midi.NoteOnEvent(tick=0, channel=0, data=[75, 23]),
   midi.NoteOnEvent(tick=0, channel=0, data=[68, 33]),
   midi.NoteOnEvent(tick=120, channel=0, data=[68, 0]),
   midi.NoteOnEvent(tick=0, channel=0, data=[67, 31]),
   midi.NoteOnEvent(tick=120, channel=0, data=[67, 0]),
   midi.NoteOnEvent(tick=0, channel=0, data=[75, 0]),
   midi.NoteOnEvent(tick=0, channel=0, data=[63, 0]),
   midi.NoteOnEvent(tick=0, channel=0, data=[75, 28]),
   midi.NoteOnEvent(tick=0, channel=0, data=[65, 36]),
   midi.NoteOnEvent(tick=240, channel=0, data=[65, 0]),
   midi.NoteOnEvent(tick=0, channel=0, data=[63, 32]),
   midi.NoteOnEvent(tick=240, channel=0, data=[63, 0]),
   midi.NoteOnEvent(tick=0, channel=0, data=[75, 0]),
   midi.NoteOnEvent(tick=0, channel=0, data=[75, 24]),
   midi.NoteOnEvent(tick=0, channel=0, data=[67, 36]),
   midi.NoteOnEvent(tick=240, channel=0, data=[67, 0]),
   midi.NoteOnEvent(tick=0, channel=0, data=[75, 0]),
   midi.NoteOnEvent(tick=0, channel=0, data=[63, 22]),
   midi.NoteOnEvent(tick=0, channel=0, data=[75, 22]),
   midi.NoteOnEvent(tick=0, channel=0, data=[70, 32]),
   midi.NoteOnEvent(tick=480, channel=0, data=[70, 0]),
   midi.NoteOnEvent(tick=0, channel=0, data=[75, 0]),
   midi.NoteOnEvent(tick=0, channel=0, data=[63, 0]),
   midi.NoteOnEvent(tick=0, channel=0, data=[63, 23]),
   midi.NoteOnEvent(tick=0, channel=0, data=[75, 23]),
   midi.NoteOnEvent(tick=0, channel=0, data=[72, 33]),
   midi.NoteOnEvent(tick=120, channel=0, data=[72, 0]),
   midi.NoteOnEvent(tick=0, channel=0, data=[74, 31]),
   midi.NoteOnEvent(tick=120, channel=0, data=[74, 0]),
   midi.NoteOnEvent(tick=0, channel=0, data=[75, 0]),
   midi.NoteOnEvent(tick=0, channel=0, data=[63, 0]),
   midi.NoteOnEvent(tick=0, channel=0, data=[63, 23]),
   midi.NoteOnEvent(tick=0, channel=0, data=[75, 40]),
   midi.NoteOnEvent(tick=240, channel=0, data=[74, 36]),
   midi.NoteOnEvent(tick=240, channel=0, data=[74, 0]),
   midi.NoteOnEvent(tick=0, channel=0, data=[75, 0]),
   midi.NoteOnEvent(tick=0, channel=0, data=[63, 0]),
   midi.NoteOnEvent(tick=0, channel=0, data=[63, 23]),
   midi.NoteOnEvent(tick=0, channel=0, data=[75, 23]),
   midi.NoteOnEvent(tick=0, channel=0, data=[72, 33]),
   midi.NoteOnEvent(tick=240, channel=0, data=[72, 0]),
   midi.NoteOnEvent(tick=0, channel=0, data=[75, 0]),
   midi.NoteOnEvent(tick=0, channel=0, data=[63, 0]),
   midi.NoteOnEvent(tick=0, channel=0, data=[63, 25]),
   midi.NoteOnEvent(tick=0, channel=0, data=[75, 25]),
   midi.NoteOnEvent(tick=0, channel=0, data=[70, 37]),
   midi.NoteOnEvent(tick=480, channel=0, data=[70, 0]),
   midi.NoteOnEvent(tick=0, channel=0, data=[75, 0]),
   midi.NoteOnEvent(tick=0, channel=0, data=[63, 0]),
   midi.NoteOnEvent(tick=0, channel=0, data=[63, 23]),
   midi.NoteOnEvent(tick=0, channel=0, data=[75, 23]),
   midi.NoteOnEvent(tick=0, channel=0, data=[68, 33]),
   midi.NoteOnEvent(tick=120, channel=0, data=[68, 0]),
   midi.NoteOnEvent(tick=0, channel=0, data=[67, 31]),
   midi.NoteOnEvent(tick=120, channel=0, data=[67, 0]),
   midi.NoteOnEvent(tick=0, channel=0, data=[75, 0]),
   midi.NoteOnEvent(tick=0, channel=0, data=[63, 0]),
   midi.NoteOnEvent(tick=0, channel=0, data=[75, 28]),
   midi.NoteOnEvent(tick=0, channel=0, data=[70, 36]),
   midi.NoteOnEvent(tick=240, channel=0, data=[70, 0]),
   midi.NoteOnEvent(tick=0, channel=0, data=[63, 32]),
   midi.NoteOnEvent(tick=180, channel=0, data=[67, 25]),
   midi.NoteOnEvent(tick=60, channel=0, data=[67, 0]),
   midi.NoteOnEvent(tick=0, channel=0, data=[63, 0]),
   midi.NoteOnEvent(tick=0, channel=0, data=[75, 0]),
   midi.NoteOnEvent(tick=0, channel=0, data=[74, 21]),
   midi.NoteOnEvent(tick=0, channel=0, data=[65, 32]),
   midi.NoteOnEvent(tick=240, channel=0, data=[65, 0]),
   midi.NoteOnEvent(tick=0, channel=0, data=[74, 0]),
   midi.NoteOnEvent(tick=0, channel=0, data=[63, 20]),
   midi.NoteOnEvent(tick=0, channel=0, data=[75, 20]),
   midi.NoteOnEvent(tick=360, channel=0, data=[63, 0]),
   midi.NoteOnEvent(tick=0, channel=0, data=[67, 20]),
   midi.NoteOnEvent(tick=120, channel=0, data=[67, 0]),
   midi.NoteOnEvent(tick=0, channel=0, data=[75, 0]),
   midi.NoteOnEvent(tick=0, channel=0, data=[70, 23]),
   midi.NoteOnEvent(tick=120, channel=0, data=[70, 0]),
   midi.NoteOnEvent(tick=0, channel=0, data=[79, 23]),
   midi.NoteOnEvent(tick=120, channel=0, data=[79, 0]),
   midi.NoteOnEvent(tick=0, channel=0, data=[80, 26]),
   midi.NoteOnEvent(tick=0, channel=0, data=[68, 23]),
   midi.NoteOnEvent(tick=0, channel=0, data=[77, 40]),
   midi.NoteOnEvent(tick=240, channel=0, data=[77, 0]),
   midi.NoteOnEvent(tick=0, channel=0, data=[72, 30]),
   midi.NoteOnEvent(tick=240, channel=0, data=[72, 0]),
   midi.NoteOnEvent(tick=0, channel=0, data=[68, 0]),
   midi.NoteOnEvent(tick=0, channel=0, data=[80, 0]),
   midi.NoteOnEvent(tick=0, channel=0, data=[74, 33]),
   midi.NoteOnEvent(tick=0, channel=0, data=[65, 23]),
   midi.NoteOnEvent(tick=0, channel=0, data=[77, 23]),
   midi.NoteOnEvent(tick=240, channel=0, data=[77, 0]),
   midi.NoteOnEvent(tick=0, channel=0, data=[65, 0]),
   midi.NoteOnEvent(tick=0, channel=0, data=[74, 0]),
   midi.NoteOnEvent(tick=0, channel=0, data=[67, 25]),
   midi.NoteOnEvent(tick=0, channel=0, data=[79, 25]),
   midi.NoteOnEvent(tick=0, channel=0, data=[70, 37]),
   midi.NoteOnEvent(tick=360, channel=0, data=[75, 23]),
   midi.NoteOnEvent(tick=120, channel=0, data=[75, 0]),
   midi.NoteOnEvent(tick=0, channel=0, data=[67, 0]),
   midi.NoteOnEvent(tick=0, channel=0, data=[79, 0]),
   midi.NoteOnEvent(tick=0, channel=0, data=[70, 0]),
   midi.NoteOnEvent(tick=0, channel=0, data=[70, 23]),
   midi.NoteOnEvent(tick=0, channel=0, data=[82, 26]),
   midi.NoteOnEvent(tick=0, channel=0, data=[79, 34]),
   midi.NoteOnEvent(tick=120, channel=0, data=[79, 0]),
   midi.NoteOnEvent(tick=0, channel=0, data=[75, 35]),
   midi.NoteOnEvent(tick=120, channel=0, data=[75, 0]),
   midi.NoteOnEvent(tick=0, channel=0, data=[82, 0]),
   midi.NoteOnEvent(tick=0, channel=0, data=[70, 0]),
   midi.NoteOnEvent(tick=0, channel=0, data=[80, 26]),
   midi.NoteOnEvent(tick=0, channel=0, data=[68, 23]),
   midi.NoteOnEvent(tick=0, channel=0, data=[77, 40]),
   midi.NoteOnEvent(tick=240, channel=0, data=[77, 0]),
   midi.NoteOnEvent(tick=0, channel=0, data=[72, 33]),
   midi.NoteOnEvent(tick=240, channel=0, data=[72, 0]),
   midi.NoteOnEvent(tick=0, channel=0, data=[68, 0]),
   midi.NoteOnEvent(tick=0, channel=0, data=[80, 0]),
   midi.NoteOnEvent(tick=0, channel=0, data=[74, 33]),
   midi.NoteOnEvent(tick=0, channel=0, data=[65, 23]),
   midi.NoteOnEvent(tick=0, channel=0, data=[77, 23]),
   midi.NoteOnEvent(tick=240, channel=0, data=[77, 0]),
   midi.NoteOnEvent(tick=0, channel=0, data=[65, 0]),
   midi.NoteOnEvent(tick=0, channel=0, data=[74, 0]),
   midi.NoteOnEvent(tick=0, channel=0, data=[67, 23]),
   midi.NoteOnEvent(tick=0, channel=0, data=[79, 23]),
   midi.NoteOnEvent(tick=0, channel=0, data=[75, 40]),
   midi.NoteOnEvent(tick=240, channel=0, data=[75, 0]),
   midi.NoteOnEvent(tick=0, channel=0, data=[70, 36]),
   midi.NoteOnEvent(tick=240, channel=0, data=[70, 0]),
   midi.NoteOnEvent(tick=0, channel=0, data=[79, 0]),
   midi.NoteOnEvent(tick=0, channel=0, data=[67, 0]),
   midi.NoteOnEvent(tick=0, channel=0, data=[75, 28]),
   midi.NoteOnEvent(tick=0, channel=0, data=[72, 40]),
   midi.NoteOnEvent(tick=0, channel=0, data=[67, 28]),
   midi.NoteOnEvent(tick=240, channel=0, data=[67, 0]),
   midi.NoteOnEvent(tick=0, channel=0, data=[72, 0]),
   midi.NoteOnEvent(tick=0, channel=0, data=[75, 0]),
   midi.NoteOnEvent(tick=0, channel=0, data=[77, 37]),
   midi.NoteOnEvent(tick=0, channel=0, data=[74, 43]),
   midi.NoteOnEvent(tick=0, channel=0, data=[65, 37]),
   midi.NoteOnEvent(tick=480, channel=0, data=[65, 0]),
   midi.NoteOnEvent(tick=0, channel=0, data=[74, 0]),
   midi.NoteOnEvent(tick=0, channel=0, data=[77, 0]),
   midi.NoteOnEvent(tick=0, channel=0, data=[82, 53]),
   midi.NoteOnEvent(tick=0, channel=0, data=[74, 45]),
   midi.NoteOnEvent(tick=0, channel=0, data=[70, 45]),
   midi.NoteOnEvent(tick=480, channel=0, data=[70, 0]),
   midi.NoteOnEvent(tick=0, channel=0, data=[74, 0]),
   midi.NoteOnEvent(tick=0, channel=0, data=[82, 0]),
   midi.NoteOnEvent(tick=0, channel=0, data=[74, 50]),
   midi.NoteOnEvent(tick=0, channel=0, data=[70, 43]),
   midi.NoteOnEvent(tick=240, channel=0, data=[70, 0]),
   midi.NoteOnEvent(tick=0, channel=0, data=[74, 0]),
   midi.NoteOnEvent(tick=0, channel=0, data=[70, 42]),
   midi.NoteOnEvent(tick=0, channel=0, data=[77, 42]),
   midi.NoteOnEvent(tick=0, channel=0, data=[81, 50]),
   midi.NoteOnEvent(tick=240, channel=0, data=[81, 0]),
   midi.NoteOnEvent(tick=0, channel=0, data=[77, 0]),
   midi.NoteOnEvent(tick=0, channel=0, data=[70, 0]),
   midi.NoteOnEvent(tick=0, channel=0, data=[70, 41]),
   midi.NoteOnEvent(tick=0, channel=0, data=[75, 41]),
   midi.NoteOnEvent(tick=0, channel=0, data=[79, 51]),
   midi.NoteOnEvent(tick=240, channel=0, data=[79, 0]),
   midi.NoteOnEvent(tick=0, channel=0, data=[75, 0]),
   midi.NoteOnEvent(tick=0, channel=0, data=[70, 0]),
   midi.NoteOnEvent(tick=0, channel=0, data=[77, 43]),
   midi.NoteOnEvent(tick=0, channel=0, data=[74, 36]),
   midi.NoteOnEvent(tick=0, channel=0, data=[69, 36]),
   midi.NoteOnEvent(tick=240, channel=0, data=[69, 0]),
   midi.NoteOnEvent(tick=0, channel=0, data=[74, 0]),
   midi.NoteOnEvent(tick=0, channel=0, data=[77, 0]),
   midi.NoteOnEvent(tick=0, channel=0, data=[75, 35]),
   midi.NoteOnEvent(tick=0, channel=0, data=[72, 28]),
   midi.NoteOnEvent(tick=0, channel=0, data=[67, 28]),
   midi.NoteOnEvent(tick=120, channel=0, data=[67, 0]),
   midi.NoteOnEvent(tick=0, channel=0, data=[72, 0]),
   midi.NoteOnEvent(tick=0, channel=0, data=[75, 0]),
   midi.NoteOnEvent(tick=0, channel=0, data=[65, 25]),
   midi.NoteOnEvent(tick=0, channel=0, data=[70, 25]),
   midi.NoteOnEvent(tick=0, channel=0, data=[74, 30]),
   midi.NoteOnEvent(tick=75, channel=0, data=[74, 0]),
   midi.NoteOnEvent(tick=0, channel=0, data=[70, 0]),
   midi.NoteOnEvent(tick=0, channel=0, data=[65, 0]),
   midi.NoteOnEvent(tick=0, channel=0, data=[63, 20]),
   midi.NoteOnEvent(tick=15, channel=0, data=[68, 24]),
   midi.NoteOnEvent(tick=15, channel=0, data=[72, 26]),
   midi.NoteOnEvent(tick=15, channel=0, data=[77, 34]),
   midi.NoteOnEvent(tick=240, channel=0, data=[77, 0]),
   midi.NoteOnEvent(tick=0, channel=0, data=[72, 0]),
   midi.NoteOnEvent(tick=0, channel=0, data=[63, 0]),
   midi.NoteOnEvent(tick=0, channel=0, data=[70, 33]),
   midi.NoteOnEvent(tick=0, channel=0, data=[62, 28]),
   midi.NoteOnEvent(tick=240, channel=0, data=[62, 0]),
   midi.NoteOnEvent(tick=0, channel=0, data=[70, 0]),
   midi.NoteOnEvent(tick=0, channel=0, data=[68, 0]),
   midi.NoteOnEvent(tick=0, channel=0, data=[72, 30]),
   midi.NoteOnEvent(tick=0, channel=0, data=[63, 25]),
   midi.NoteOnEvent(tick=0, channel=0, data=[60, 25]),
   midi.NoteOnEvent(tick=120, channel=0, data=[60, 0]),
   midi.NoteOnEvent(tick=0, channel=0, data=[63, 0]),
   midi.NoteOnEvent(tick=0, channel=0, data=[72, 0]),
   midi.NoteOnEvent(tick=0, channel=0, data=[70, 30]),
   midi.NoteOnEvent(tick=0, channel=0, data=[65, 25]),
   midi.NoteOnEvent(tick=0, channel=0, data=[62, 25]),
   midi.NoteOnEvent(tick=120, channel=0, data=[62, 0]),
   midi.NoteOnEvent(tick=0, channel=0, data=[65, 0]),
   midi.NoteOnEvent(tick=0, channel=0, data=[70, 0]),
   midi.NoteOnEvent(tick=0, channel=0, data=[63, 23]),
   midi.NoteOnEvent(tick=0, channel=0, data=[75, 40]),
   midi.NoteOnEvent(tick=240, channel=0, data=[74, 34]),
   midi.NoteOnEvent(tick=240, channel=0, data=[74, 0]),
   midi.NoteOnEvent(tick=0, channel=0, data=[75, 0]),
   midi.NoteOnEvent(tick=0, channel=0, data=[63, 0]),
   midi.NoteOnEvent(tick=0, channel=0, data=[63, 23]),
   midi.NoteOnEvent(tick=0, channel=0, data=[75, 23]),
   midi.NoteOnEvent(tick=0, channel=0, data=[72, 33]),
   midi.NoteOnEvent(tick=240, channel=0, data=[72, 0]),
   midi.NoteOnEvent(tick=0, channel=0, data=[75, 0]),
   midi.NoteOnEvent(tick=0, channel=0, data=[63, 0]),
   midi.NoteOnEvent(tick=0, channel=0, data=[63, 25]),
   midi.NoteOnEvent(tick=0, channel=0, data=[75, 25]),
   midi.NoteOnEvent(tick=0, channel=0, data=[70, 37]),
   midi.NoteOnEvent(tick=480, channel=0, data=[70, 0]),
   midi.NoteOnEvent(tick=0, channel=0, data=[75, 0]),
   midi.NoteOnEvent(tick=0, channel=0, data=[63, 0]),
   midi.NoteOnEvent(tick=0, channel=0, data=[63, 23]),
   midi.NoteOnEvent(tick=0, channel=0, data=[75, 23]),
   midi.NoteOnEvent(tick=0, channel=0, data=[68, 33]),
   midi.NoteOnEvent(tick=120, channel=0, data=[68, 0]),
   midi.NoteOnEvent(tick=0, channel=0, data=[67, 31]),
   midi.NoteOnEvent(tick=120, channel=0, data=[67, 0]),
   midi.NoteOnEvent(tick=0, channel=0, data=[75, 0]),
   midi.NoteOnEvent(tick=0, channel=0, data=[63, 0]),
   midi.NoteOnEvent(tick=0, channel=0, data=[75, 28]),
   midi.NoteOnEvent(tick=0, channel=0, data=[65, 36]),
   midi.NoteOnEvent(tick=240, channel=0, data=[65, 0]),
   midi.NoteOnEvent(tick=0, channel=0, data=[63, 32]),
   midi.NoteOnEvent(tick=240, channel=0, data=[63, 0]),
   midi.NoteOnEvent(tick=0, channel=0, data=[75, 0]),
   midi.NoteOnEvent(tick=0, channel=0, data=[75, 24]),
   midi.NoteOnEvent(tick=0, channel=0, data=[67, 36]),
   midi.NoteOnEvent(tick=240, channel=0, data=[67, 0]),
   midi.NoteOnEvent(tick=0, channel=0, data=[75, 0]),
   midi.NoteOnEvent(tick=0, channel=0, data=[63, 22]),
   midi.NoteOnEvent(tick=0, channel=0, data=[75, 22]),
   midi.NoteOnEvent(tick=0, channel=0, data=[70, 32]),
   midi.NoteOnEvent(tick=480, channel=0, data=[70, 0]),
   midi.NoteOnEvent(tick=0, channel=0, data=[75, 0]),
   midi.NoteOnEvent(tick=0, channel=0, data=[63, 0]),
   midi.NoteOnEvent(tick=0, channel=0, data=[63, 23]),
   midi.NoteOnEvent(tick=0, channel=0, data=[75, 23]),
   midi.NoteOnEvent(tick=0, channel=0, data=[72, 33]),
   midi.NoteOnEvent(tick=120, channel=0, data=[72, 0]),
   midi.NoteOnEvent(tick=0, channel=0, data=[74, 31]),
   midi.NoteOnEvent(tick=120, channel=0, data=[74, 0]),
   midi.NoteOnEvent(tick=0, channel=0, data=[75, 0]),
   midi.NoteOnEvent(tick=0, channel=0, data=[63, 0]),
   midi.NoteOnEvent(tick=0, channel=0, data=[63, 23]),
   midi.NoteOnEvent(tick=0, channel=0, data=[75, 40]),
   midi.NoteOnEvent(tick=240, channel=0, data=[74, 33]),
   midi.NoteOnEvent(tick=240, channel=0, data=[74, 0]),
   midi.NoteOnEvent(tick=0, channel=0, data=[75, 0]),
   midi.NoteOnEvent(tick=0, channel=0, data=[63, 0]),
   midi.NoteOnEvent(tick=0, channel=0, data=[63, 23]),
   midi.NoteOnEvent(tick=0, channel=0, data=[75, 23]),
   midi.NoteOnEvent(tick=0, channel=0, data=[72, 33]),
   midi.NoteOnEvent(tick=240, channel=0, data=[72, 0]),
   midi.NoteOnEvent(tick=0, channel=0, data=[75, 0]),
   midi.NoteOnEvent(tick=0, channel=0, data=[63, 0]),
   midi.NoteOnEvent(tick=0, channel=0, data=[63, 25]),
   midi.NoteOnEvent(tick=0, channel=0, data=[75, 25]),
   midi.NoteOnEvent(tick=0, channel=0, data=[70, 37]),
   midi.NoteOnEvent(tick=480, channel=0, data=[70, 0]),
   midi.NoteOnEvent(tick=0, channel=0, data=[75, 0]),
   midi.NoteOnEvent(tick=0, channel=0, data=[63, 0]),
   midi.NoteOnEvent(tick=0, channel=0, data=[63, 23]),
   midi.NoteOnEvent(tick=0, channel=0, data=[75, 23]),
   midi.NoteOnEvent(tick=0, channel=0, data=[69, 33]),
   midi.NoteOnEvent(tick=120, channel=0, data=[69, 0]),
   midi.NoteOnEvent(tick=0, channel=0, data=[67, 31]),
   midi.NoteOnEvent(tick=120, channel=0, data=[67, 0]),
   midi.NoteOnEvent(tick=0, channel=0, data=[75, 0]),
   midi.NoteOnEvent(tick=0, channel=0, data=[63, 0]),
   midi.NoteOnEvent(tick=0, channel=0, data=[65, 23]),
   midi.NoteOnEvent(tick=0, channel=0, data=[75, 28]),
   midi.NoteOnEvent(tick=0, channel=0, data=[69, 36]),
   midi.NoteOnEvent(tick=240, channel=0, data=[69, 0]),
   midi.NoteOnEvent(tick=0, channel=0, data=[70, 32]),
   midi.NoteOnEvent(tick=240, channel=0, data=[70, 0]),
   midi.NoteOnEvent(tick=0, channel=0, data=[75, 0]),
   midi.NoteOnEvent(tick=0, channel=0, data=[65, 0]),
   midi.NoteOnEvent(tick=0, channel=0, data=[65, 19]),
   midi.NoteOnEvent(tick=0, channel=0, data=[75, 24]),
   midi.NoteOnEvent(tick=0, channel=0, data=[72, 36]),
   midi.NoteOnEvent(tick=240, channel=0, data=[72, 0]),
   midi.NoteOnEvent(tick=0, channel=0, data=[75, 0]),
   midi.NoteOnEvent(tick=0, channel=0, data=[65, 0]),
   midi.NoteOnEvent(tick=0, channel=0, data=[75, 42]),
   midi.NoteOnEvent(tick=0, channel=0, data=[70, 26]),
   midi.NoteOnEvent(tick=0, channel=0, data=[65, 26]),
   midi.NoteOnEvent(tick=0, channel=0, data=[77, 26]),
   midi.NoteOnEvent(tick=360, channel=0, data=[65, 0]),
   midi.NoteOnEvent(tick=0, channel=0, data=[75, 0]),
   midi.NoteOnEvent(tick=0, channel=0, data=[70, 0]),
   midi.NoteOnEvent(tick=0, channel=0, data=[74, 35]),
   midi.NoteOnEvent(tick=120, channel=0, data=[74, 0]),
   midi.NoteOnEvent(tick=0, channel=0, data=[77, 0]),
   midi.NoteOnEvent(tick=0, channel=0, data=[82, 38]),
   midi.NoteOnEvent(tick=0, channel=0, data=[72, 29]),
   midi.NoteOnEvent(tick=120, channel=0, data=[72, 0]),
   midi.NoteOnEvent(tick=0, channel=0, data=[70, 23]),
   midi.NoteOnEvent(tick=120, channel=0, data=[70, 0]),
   midi.NoteOnEvent(tick=0, channel=0, data=[82, 0]),
   midi.NoteOnEvent(tick=0, channel=0, data=[75, 23]),
   midi.NoteOnEvent(tick=0, channel=0, data=[87, 40]),
   midi.NoteOnEvent(tick=240, channel=0, data=[86, 36]),
   midi.NoteOnEvent(tick=240, channel=0, data=[86, 0]),
   midi.NoteOnEvent(tick=0, channel=0, data=[87, 0]),
   midi.NoteOnEvent(tick=0, channel=0, data=[75, 0]),
   midi.NoteOnEvent(tick=0, channel=0, data=[75, 23]),
   midi.NoteOnEvent(tick=0, channel=0, data=[87, 23]),
   midi.NoteOnEvent(tick=0, channel=0, data=[84, 33]),
   midi.NoteOnEvent(tick=240, channel=0, data=[84, 0]),
   midi.NoteOnEvent(tick=0, channel=0, data=[75, 0]),
   midi.NoteOnEvent(tick=0, channel=0, data=[74, 34]),
   midi.NoteOnEvent(tick=0, channel=0, data=[82, 40]),
   midi.NoteOnEvent(tick=240, channel=0, data=[82, 0]),
   midi.NoteOnEvent(tick=0, channel=0, data=[74, 0]),
   midi.NoteOnEvent(tick=0, channel=0, data=[87, 0]),
   midi.NoteOnEvent(tick=0, channel=0, data=[75, 23]),
   midi.NoteOnEvent(tick=0, channel=0, data=[72, 30]),
   midi.NoteOnEvent(tick=0, channel=0, data=[80, 36]),
   midi.NoteOnEvent(tick=240, channel=0, data=[80, 0]),
   midi.NoteOnEvent(tick=0, channel=0, data=[72, 0]),
   midi.NoteOnEvent(tick=0, channel=0, data=[70, 26]),
   midi.NoteOnEvent(tick=0, channel=0, data=[79, 31]),
   midi.NoteOnEvent(tick=240, channel=0, data=[79, 0]),
   midi.NoteOnEvent(tick=0, channel=0, data=[70, 0]),
   midi.NoteOnEvent(tick=0, channel=0, data=[75, 0]),
   midi.NoteOnEvent(tick=0, channel=0, data=[68, 24]),
   midi.NoteOnEvent(tick=0, channel=0, data=[75, 24]),
   midi.NoteOnEvent(tick=0, channel=0, data=[77, 33]),
   midi.NoteOnEvent(tick=240, channel=0, data=[77, 0]),
   midi.NoteOnEvent(tick=0, channel=0, data=[75, 0]),
   midi.NoteOnEvent(tick=0, channel=0, data=[68, 0]),
   midi.NoteOnEvent(tick=0, channel=0, data=[67, 24]),
   midi.NoteOnEvent(tick=0, channel=0, data=[75, 29]),
   midi.NoteOnEvent(tick=120, channel=0, data=[67, 0]),
   midi.NoteOnEvent(tick=0, channel=0, data=[65, 20]),
   midi.NoteOnEvent(tick=120, channel=0, data=[65, 0]),
   midi.NoteOnEvent(tick=0, channel=0, data=[75, 0]),
   midi.NoteOnEvent(tick=0, channel=0, data=[63, 19]),
   midi.NoteOnEvent(tick=0, channel=0, data=[72, 27]),
   midi.NoteOnEvent(tick=120, channel=0, data=[63, 0]),
   midi.NoteOnEvent(tick=0, channel=0, data=[67, 22]),
   midi.NoteOnEvent(tick=120, channel=0, data=[67, 0]),
   midi.NoteOnEvent(tick=0, channel=0, data=[72, 0]),
   midi.NoteOnEvent(tick=27, channel=0, data=[70, 32]),
   midi.NoteOnEvent(tick=453, channel=0, data=[63, 23]),
   midi.NoteOnEvent(tick=0, channel=0, data=[72, 33]),
   midi.NoteOnEvent(tick=27, channel=0, data=[70, 0]),
   midi.NoteOnEvent(tick=93, channel=0, data=[72, 0]),
   midi.NoteOnEvent(tick=0, channel=0, data=[74, 31]),
   midi.NoteOnEvent(tick=120, channel=0, data=[74, 0]),
   midi.NoteOnEvent(tick=0, channel=0, data=[63, 0]),
   midi.NoteOnEvent(tick=0, channel=0, data=[63, 23]),
   midi.NoteOnEvent(tick=0, channel=0, data=[75, 40]),
   midi.NoteOnEvent(tick=240, channel=0, data=[74, 35]),
   midi.NoteOnEvent(tick=240, channel=0, data=[74, 0]),
   midi.NoteOnEvent(tick=0, channel=0, data=[75, 0]),
   midi.NoteOnEvent(tick=0, channel=0, data=[63, 0]),
   midi.NoteOnEvent(tick=0, channel=0, data=[63, 23]),
   midi.NoteOnEvent(tick=0, channel=0, data=[75, 23]),
   midi.NoteOnEvent(tick=0, channel=0, data=[72, 33]),
   midi.NoteOnEvent(tick=240, channel=0, data=[72, 0]),
   midi.NoteOnEvent(tick=0, channel=0, data=[75, 0]),
   midi.NoteOnEvent(tick=0, channel=0, data=[63, 0]),
   midi.NoteOnEvent(tick=0, channel=0, data=[70, 37]),
   midi.NoteOnEvent(tick=240, channel=0, data=[63, 23]),
   midi.NoteOnEvent(tick=0, channel=0, data=[75, 23]),
   midi.NoteOnEvent(tick=240, channel=0, data=[70, 0]),
   midi.NoteOnEvent(tick=0, channel=0, data=[68, 33]),
   midi.NoteOnEvent(tick=120, channel=0, data=[68, 0]),
   midi.NoteOnEvent(tick=0, channel=0, data=[67, 31]),
   midi.NoteOnEvent(tick=120, channel=0, data=[67, 0]),
   midi.NoteOnEvent(tick=0, channel=0, data=[75, 0]),
   midi.NoteOnEvent(tick=0, channel=0, data=[63, 0]),
   midi.NoteOnEvent(tick=0, channel=0, data=[75, 28]),
   midi.NoteOnEvent(tick=0, channel=0, data=[70, 36]),
   midi.NoteOnEvent(tick=240, channel=0, data=[70, 0]),
   midi.NoteOnEvent(tick=0, channel=0, data=[63, 32]),
   midi.NoteOnEvent(tick=180, channel=0, data=[67, 25]),
   midi.NoteOnEvent(tick=60, channel=0, data=[67, 0]),
   midi.NoteOnEvent(tick=0, channel=0, data=[63, 0]),
   midi.NoteOnEvent(tick=0, channel=0, data=[75, 0]),
   midi.NoteOnEvent(tick=0, channel=0, data=[74, 21]),
   midi.NoteOnEvent(tick=0, channel=0, data=[65, 32]),
   midi.NoteOnEvent(tick=240, channel=0, data=[65, 0]),
   midi.NoteOnEvent(tick=0, channel=0, data=[74, 0]),
   midi.NoteOnEvent(tick=0, channel=0, data=[63, 20]),
   midi.NoteOnEvent(tick=0, channel=0, data=[75, 20]),
   midi.NoteOnEvent(tick=480, channel=0, data=[75, 0]),
   midi.NoteOnEvent(tick=0, channel=0, data=[63, 0]),
   midi.NoteOnEvent(tick=0, channel=0, data=[76, 33]),
   midi.NoteOnEvent(tick=0, channel=0, data=[64, 28]),
   midi.NoteOnEvent(tick=120, channel=0, data=[64, 0]),
   midi.NoteOnEvent(tick=0, channel=0, data=[76, 0]),
   midi.NoteOnEvent(tick=0, channel=0, data=[78, 36]),
   midi.NoteOnEvent(tick=0, channel=0, data=[66, 30]),
   midi.NoteOnEvent(tick=120, channel=0, data=[66, 0]),
   midi.NoteOnEvent(tick=0, channel=0, data=[78, 0]),
   midi.NoteOnEvent(tick=0, channel=0, data=[68, 34]),
   midi.NoteOnEvent(tick=0, channel=0, data=[80, 40]),
   midi.NoteOnEvent(tick=240, channel=0, data=[80, 0]),
   midi.NoteOnEvent(tick=0, channel=0, data=[68, 0]),
   midi.NoteOnEvent(tick=0, channel=0, data=[78, 35]),
   midi.NoteOnEvent(tick=0, channel=0, data=[66, 29]),
   midi.NoteOnEvent(tick=240, channel=0, data=[66, 0]),
   midi.NoteOnEvent(tick=0, channel=0, data=[78, 0]),
   midi.NoteOnEvent(tick=0, channel=0, data=[76, 25]),
   midi.NoteOnEvent(tick=0, channel=0, data=[64, 21]),
   midi.NoteOnEvent(tick=240, channel=0, data=[64, 0]),
   midi.NoteOnEvent(tick=0, channel=0, data=[76, 0]),
   midi.NoteOnEvent(tick=0, channel=0, data=[75, 25]),
   midi.NoteOnEvent(tick=0, channel=0, data=[63, 21]),
   midi.NoteOnEvent(tick=480, channel=0, data=[63, 0]),
   midi.NoteOnEvent(tick=0, channel=0, data=[75, 0]),
   midi.NoteOnEvent(tick=0, channel=0, data=[63, 27]),
   midi.NoteOnEvent(tick=0, channel=0, data=[61, 22]),
   midi.NoteOnEvent(tick=0, channel=0, data=[51, 22]),
   midi.NoteOnEvent(tick=240, channel=0, data=[51, 0]),
   midi.NoteOnEvent(tick=0, channel=0, data=[61, 0]),
   midi.NoteOnEvent(tick=0, channel=0, data=[63, 0]),
   midi.NoteOnEvent(tick=0, channel=0, data=[51, 27]),
   midi.NoteOnEvent(tick=0, channel=0, data=[59, 27]),
   midi.NoteOnEvent(tick=0, channel=0, data=[63, 32]),
   midi.NoteOnEvent(tick=480, channel=0, data=[63, 0]),
   midi.NoteOnEvent(tick=0, channel=0, data=[59, 0]),
   midi.NoteOnEvent(tick=0, channel=0, data=[51, 0]),
   midi.NoteOnEvent(tick=0, channel=0, data=[63, 23]),
   midi.NoteOnEvent(tick=0, channel=0, data=[56, 19]),
   midi.NoteOnEvent(tick=0, channel=0, data=[51, 19]),
   midi.NoteOnEvent(tick=240, channel=0, data=[51, 0]),
   midi.NoteOnEvent(tick=0, channel=0, data=[56, 0]),
   midi.NoteOnEvent(tick=0, channel=0, data=[63, 0]),
   midi.NoteOnEvent(tick=0, channel=0, data=[63, 23]),
   midi.NoteOnEvent(tick=0, channel=0, data=[51, 19]),
   midi.NoteOnEvent(tick=480, channel=0, data=[51, 0]),
   midi.NoteOnEvent(tick=0, channel=0, data=[63, 0]),
   midi.NoteOnEvent(tick=0, channel=0, data=[76, 33]),
   midi.NoteOnEvent(tick=0, channel=0, data=[64, 28]),
   midi.NoteOnEvent(tick=120, channel=0, data=[64, 0]),
   midi.NoteOnEvent(tick=0, channel=0, data=[76, 0]),
   midi.NoteOnEvent(tick=0, channel=0, data=[78, 36]),
   midi.NoteOnEvent(tick=0, channel=0, data=[66, 30]),
   midi.NoteOnEvent(tick=120, channel=0, data=[66, 0]),
   midi.NoteOnEvent(tick=0, channel=0, data=[78, 0]),
   midi.NoteOnEvent(tick=0, channel=0, data=[68, 34]),
   midi.NoteOnEvent(tick=0, channel=0, data=[80, 40]),
   midi.NoteOnEvent(tick=240, channel=0, data=[80, 0]),
   midi.NoteOnEvent(tick=0, channel=0, data=[68, 0]),
   midi.NoteOnEvent(tick=0, channel=0, data=[66, 33]),
   midi.NoteOnEvent(tick=0, channel=0, data=[78, 33]),
   midi.NoteOnEvent(tick=240, channel=0, data=[78, 0]),
   midi.NoteOnEvent(tick=0, channel=0, data=[66, 0]),
   midi.NoteOnEvent(tick=0, channel=0, data=[76, 25]),
   midi.NoteOnEvent(tick=0, channel=0, data=[64, 21]),
   midi.NoteOnEvent(tick=240, channel=0, data=[64, 0]),
   midi.NoteOnEvent(tick=0, channel=0, data=[76, 0]),
   midi.NoteOnEvent(tick=0, channel=0, data=[75, 25]),
   midi.NoteOnEvent(tick=0, channel=0, data=[63, 21]),
   midi.NoteOnEvent(tick=480, channel=0, data=[63, 0]),
   midi.NoteOnEvent(tick=0, channel=0, data=[75, 0]),
   midi.NoteOnEvent(tick=0, channel=0, data=[76, 33]),
   midi.NoteOnEvent(tick=0, channel=0, data=[64, 28]),
   midi.NoteOnEvent(tick=120, channel=0, data=[64, 0]),
   midi.NoteOnEvent(tick=0, channel=0, data=[76, 0]),
   midi.NoteOnEvent(tick=0, channel=0, data=[75, 30]),
   midi.NoteOnEvent(tick=0, channel=0, data=[78, 36]),
   midi.NoteOnEvent(tick=0, channel=0, data=[66, 30]),
   midi.NoteOnEvent(tick=120, channel=0, data=[66, 0]),
   midi.NoteOnEvent(tick=0, channel=0, data=[78, 0]),
   midi.NoteOnEvent(tick=0, channel=0, data=[75, 0]),
   midi.NoteOnEvent(tick=0, channel=0, data=[76, 34]),
   midi.NoteOnEvent(tick=0, channel=0, data=[68, 34]),
   midi.NoteOnEvent(tick=0, channel=0, data=[80, 40]),
   midi.NoteOnEvent(tick=240, channel=0, data=[80, 0]),
   midi.NoteOnEvent(tick=0, channel=0, data=[68, 0]),
   midi.NoteOnEvent(tick=0, channel=0, data=[76, 0]),
   midi.NoteOnEvent(tick=0, channel=0, data=[75, 29]),
   midi.NoteOnEvent(tick=0, channel=0, data=[78, 35]),
   midi.NoteOnEvent(tick=0, channel=0, data=[66, 29]),
   midi.NoteOnEvent(tick=240, channel=0, data=[66, 0]),
   midi.NoteOnEvent(tick=0, channel=0, data=[78, 0]),
   midi.NoteOnEvent(tick=0, channel=0, data=[75, 0]),
   midi.NoteOnEvent(tick=0, channel=0, data=[73, 21]),
   midi.NoteOnEvent(tick=0, channel=0, data=[76, 25]),
   midi.NoteOnEvent(tick=0, channel=0, data=[64, 21]),
   midi.NoteOnEvent(tick=240, channel=0, data=[64, 0]),
   midi.NoteOnEvent(tick=0, channel=0, data=[76, 0]),
   midi.NoteOnEvent(tick=0, channel=0, data=[73, 0]),
   midi.NoteOnEvent(tick=0, channel=0, data=[75, 21]),
   midi.NoteOnEvent(tick=0, channel=0, data=[63, 17]),
   midi.NoteOnEvent(tick=0, channel=0, data=[71, 17]),
   midi.NoteOnEvent(tick=240, channel=0, data=[71, 0]),
   midi.NoteOnEvent(tick=0, channel=0, data=[63, 0]),
   midi.NoteOnEvent(tick=0, channel=0, data=[75, 0]),
   midi.NoteOnEvent(tick=0, channel=0, data=[70, 15]),
   midi.NoteOnEvent(tick=0, channel=0, data=[73, 18]),
   midi.NoteOnEvent(tick=0, channel=0, data=[61, 15]),
   midi.NoteOnEvent(tick=240, channel=0, data=[61, 0]),
   midi.NoteOnEvent(tick=0, channel=0, data=[73, 0]),
   midi.NoteOnEvent(tick=0, channel=0, data=[70, 0]),
   midi.NoteOnEvent(tick=0, channel=0, data=[59, 13]),
   midi.NoteOnEvent(tick=0, channel=0, data=[71, 16]),
   midi.NoteOnEvent(tick=0, channel=0, data=[68, 13]),
   midi.NoteOnEvent(tick=240, channel=0, data=[68, 0]),
   midi.NoteOnEvent(tick=0, channel=0, data=[71, 0]),
   midi.NoteOnEvent(tick=0, channel=0, data=[59, 0]),
   midi.NoteOnEvent(tick=240, channel=0, data=[66, 23]),
   midi.NoteOnEvent(tick=0, channel=0, data=[70, 27]),
   midi.NoteOnEvent(tick=240, channel=0, data=[70, 0]),
   midi.NoteOnEvent(tick=0, channel=0, data=[58, 17]),
   midi.NoteOnEvent(tick=120, channel=0, data=[58, 0]),
   midi.NoteOnEvent(tick=120, channel=0, data=[66, 0]),
   midi.NoteOnEvent(tick=0, channel=0, data=[68, 26]),
   midi.NoteOnEvent(tick=0, channel=0, data=[71, 31]),
   midi.NoteOnEvent(tick=240, channel=0, data=[71, 0]),
   midi.NoteOnEvent(tick=0, channel=0, data=[59, 18]),
   midi.NoteOnEvent(tick=120, channel=0, data=[59, 0]),
   midi.NoteOnEvent(tick=120, channel=0, data=[68, 0]),
   midi.NoteOnEvent(tick=0, channel=0, data=[65, 23]),
   midi.NoteOnEvent(tick=0, channel=0, data=[68, 28]),
   midi.NoteOnEvent(tick=240, channel=0, data=[68, 0]),
   midi.NoteOnEvent(tick=0, channel=0, data=[65, 0]),
   midi.NoteOnEvent(tick=0, channel=0, data=[56, 16]),
   midi.NoteOnEvent(tick=120, channel=0, data=[56, 0]),
   midi.NoteOnEvent(tick=120, channel=0, data=[77, 23]),
   midi.NoteOnEvent(tick=0, channel=0, data=[80, 27]),
   midi.NoteOnEvent(tick=240, channel=0, data=[77, 0]),
   midi.NoteOnEvent(tick=0, channel=0, data=[68, 17]),
   midi.NoteOnEvent(tick=120, channel=0, data=[68, 0]),
   midi.NoteOnEvent(tick=120, channel=0, data=[80, 0]),
   midi.NoteOnEvent(tick=0, channel=0, data=[78, 26]),
   midi.NoteOnEvent(tick=0, channel=0, data=[82, 31]),
   midi.NoteOnEvent(tick=240, channel=0, data=[78, 0]),
   midi.NoteOnEvent(tick=0, channel=0, data=[70, 18]),
   midi.NoteOnEvent(tick=120, channel=0, data=[70, 0]),
   midi.NoteOnEvent(tick=120, channel=0, data=[82, 0]),
   midi.NoteOnEvent(tick=0, channel=0, data=[75, 23]),
   midi.NoteOnEvent(tick=0, channel=0, data=[78, 28]),
   midi.NoteOnEvent(tick=240, channel=0, data=[78, 0]),
   midi.NoteOnEvent(tick=0, channel=0, data=[75, 0]),
   midi.NoteOnEvent(tick=0, channel=0, data=[66, 18]),
   midi.NoteOnEvent(tick=120, channel=0, data=[66, 0]),
   midi.NoteOnEvent(tick=120, channel=0, data=[63, 21]),
   midi.NoteOnEvent(tick=0, channel=0, data=[66, 26]),
   midi.NoteOnEvent(tick=240, channel=0, data=[66, 0]),
   midi.NoteOnEvent(tick=0, channel=0, data=[54, 15]),
   midi.NoteOnEvent(tick=120, channel=0, data=[54, 0]),
   midi.NoteOnEvent(tick=120, channel=0, data=[63, 0]),
   midi.NoteOnEvent(tick=0, channel=0, data=[59, 21]),
   midi.NoteOnEvent(tick=0, channel=0, data=[63, 21]),
   midi.NoteOnEvent(tick=0, channel=0, data=[65, 26]),
   midi.NoteOnEvent(tick=240, channel=0, data=[65, 0]),
   midi.NoteOnEvent(tick=0, channel=0, data=[63, 0]),
   midi.NoteOnEvent(tick=0, channel=0, data=[53, 16]),
   midi.NoteOnEvent(tick=120, channel=0, data=[53, 0]),
   midi.NoteOnEvent(tick=120, channel=0, data=[59, 0]),
   midi.NoteOnEvent(tick=0, channel=0, data=[59, 21]),
   midi.NoteOnEvent(tick=0, channel=0, data=[63, 21]),
   midi.NoteOnEvent(tick=0, channel=0, data=[65, 26]),
   midi.NoteOnEvent(tick=240, channel=0, data=[65, 0]),
   midi.NoteOnEvent(tick=0, channel=0, data=[63, 0]),
   midi.NoteOnEvent(tick=0, channel=0, data=[59, 0]),
   midi.NoteOnEvent(tick=240, channel=0, data=[70, 24]),
   midi.NoteOnEvent(tick=0, channel=0, data=[73, 24]),
   midi.NoteOnEvent(tick=0, channel=0, data=[77, 29]),
   midi.NoteOnEvent(tick=240, channel=0, data=[73, 0]),
   midi.NoteOnEvent(tick=0, channel=0, data=[70, 0]),
   midi.NoteOnEvent(tick=0, channel=0, data=[65, 17]),
   midi.NoteOnEvent(tick=120, channel=0, data=[65, 0]),
   midi.NoteOnEvent(tick=120, channel=0, data=[77, 0]),
   midi.NoteOnEvent(tick=0, channel=0, data=[70, 24]),
   midi.NoteOnEvent(tick=0, channel=0, data=[73, 24]),
   midi.NoteOnEvent(tick=0, channel=0, data=[75, 29]),
   midi.NoteOnEvent(tick=240, channel=0, data=[73, 0]),
   midi.NoteOnEvent(tick=0, channel=0, data=[70, 0]),
   midi.NoteOnEvent(tick=0, channel=0, data=[63, 18]),
   midi.NoteOnEvent(tick=120, channel=0, data=[63, 0]),
   midi.NoteOnEvent(tick=120, channel=0, data=[75, 0]),
   midi.NoteOnEvent(tick=0, channel=0, data=[70, 24]),
   midi.NoteOnEvent(tick=0, channel=0, data=[73, 24]),
   midi.NoteOnEvent(tick=0, channel=0, data=[75, 29]),
   midi.NoteOnEvent(tick=240, channel=0, data=[75, 0]),
   midi.NoteOnEvent(tick=0, channel=0, data=[73, 0]),
   midi.NoteOnEvent(tick=0, channel=0, data=[70, 0]),
   midi.NoteOnEvent(tick=240, channel=0, data=[58, 20]),
   midi.NoteOnEvent(tick=0, channel=0, data=[60, 20]),
   midi.NoteOnEvent(tick=0, channel=0, data=[64, 25]),
   midi.NoteOnEvent(tick=240, channel=0, data=[60, 0]),
   midi.NoteOnEvent(tick=0, channel=0, data=[58, 0]),
   midi.NoteOnEvent(tick=0, channel=0, data=[52, 15]),
   midi.NoteOnEvent(tick=240, channel=0, data=[52, 0]),
   midi.NoteOnEvent(tick=0, channel=0, data=[64, 0]),
   midi.NoteOnEvent(tick=0, channel=0, data=[58, 24]),
   midi.NoteOnEvent(tick=0, channel=0, data=[60, 24]),
   midi.NoteOnEvent(tick=0, channel=0, data=[65, 29]),
   midi.NoteOnEvent(tick=240, channel=0, data=[60, 0]),
   midi.NoteOnEvent(tick=0, channel=0, data=[58, 0]),
   midi.NoteOnEvent(tick=0, channel=0, data=[53, 16]),
   midi.NoteOnEvent(tick=240, channel=0, data=[53, 0]),
   midi.NoteOnEvent(tick=0, channel=0, data=[65, 0]),
   midi.NoteOnEvent(tick=0, channel=0, data=[58, 20]),
   midi.NoteOnEvent(tick=0, channel=0, data=[60, 25]),
   midi.NoteOnEvent(tick=240, channel=0, data=[60, 0]),
   midi.NoteOnEvent(tick=0, channel=0, data=[58, 0]),
   midi.NoteOnEvent(tick=0, channel=0, data=[65, 21]),
   midi.NoteOnEvent(tick=0, channel=0, data=[69, 21]),
   midi.NoteOnEvent(tick=0, channel=0, data=[77, 25]),
   midi.NoteOnEvent(tick=0, channel=0, data=[75, 21]),
   midi.NoteOnEvent(tick=240, channel=0, data=[73, 21]),
   midi.NoteOnEvent(tick=240, channel=0, data=[73, 0]),
   midi.NoteOnEvent(tick=0, channel=0, data=[72, 21]),
   midi.NoteOnEvent(tick=240, channel=0, data=[72, 0]),
   midi.NoteOnEvent(tick=0, channel=0, data=[75, 0]),
   midi.NoteOnEvent(tick=0, channel=0, data=[65, 0]),
   midi.NoteOnEvent(tick=0, channel=0, data=[69, 0]),
   midi.NoteOnEvent(tick=0, channel=0, data=[77, 0]),
   midi.NoteOnEvent(tick=0, channel=0, data=[75, 21]),
   midi.NoteOnEvent(tick=0, channel=0, data=[65, 21]),
   midi.NoteOnEvent(tick=0, channel=0, data=[70, 21]),
   midi.NoteOnEvent(tick=0, channel=0, data=[77, 25]),
   midi.NoteOnEvent(tick=480, channel=0, data=[75, 0]),
   midi.NoteOnEvent(tick=0, channel=0, data=[73, 19]),
   midi.NoteOnEvent(tick=240, channel=0, data=[73, 0]),
   midi.NoteOnEvent(tick=0, channel=0, data=[77, 0]),
   midi.NoteOnEvent(tick=0, channel=0, data=[70, 0]),
   midi.NoteOnEvent(tick=0, channel=0, data=[65, 0]),
   midi.NoteOnEvent(tick=240, channel=0, data=[58, 31]),
   midi.NoteOnEvent(tick=0, channel=0, data=[60, 31]),
   midi.NoteOnEvent(tick=0, channel=0, data=[64, 40]),
   midi.NoteOnEvent(tick=240, channel=0, data=[60, 0]),
   midi.NoteOnEvent(tick=0, channel=0, data=[58, 0]),
   midi.NoteOnEvent(tick=0, channel=0, data=[52, 23]),
   midi.NoteOnEvent(tick=240, channel=0, data=[52, 0]),
   midi.NoteOnEvent(tick=0, channel=0, data=[64, 0]),
   midi.NoteOnEvent(tick=0, channel=0, data=[58, 36]),
   midi.NoteOnEvent(tick=0, channel=0, data=[63, 36]),
   midi.NoteOnEvent(tick=0, channel=0, data=[66, 46]),
   midi.NoteOnEvent(tick=240, channel=0, data=[58, 0]),
   midi.NoteOnEvent(tick=0, channel=0, data=[54, 24]),
   midi.NoteOnEvent(tick=240, channel=0, data=[54, 0]),
   midi.NoteOnEvent(tick=0, channel=0, data=[66, 0]),
   midi.NoteOnEvent(tick=0, channel=0, data=[63, 0]),
   midi.NoteOnEvent(tick=0, channel=0, data=[54, 31]),
   midi.NoteOnEvent(tick=0, channel=0, data=[51, 31]),
   midi.NoteOnEvent(tick=0, channel=0, data=[60, 40]),
   midi.NoteOnEvent(tick=240, channel=0, data=[60, 0]),
   midi.NoteOnEvent(tick=0, channel=0, data=[51, 0]),
   midi.NoteOnEvent(tick=0, channel=0, data=[54, 0]),
   midi.NoteOnEvent(tick=0, channel=0, data=[65, 21]),
   midi.NoteOnEvent(tick=0, channel=0, data=[69, 21]),
   midi.NoteOnEvent(tick=0, channel=0, data=[77, 25]),
   midi.NoteOnEvent(tick=0, channel=0, data=[75, 21]),
   midi.NoteOnEvent(tick=240, channel=0, data=[73, 21]),
   midi.NoteOnEvent(tick=240, channel=0, data=[73, 0]),
   midi.NoteOnEvent(tick=0, channel=0, data=[72, 21]),
   midi.NoteOnEvent(tick=240, channel=0, data=[72, 0]),
   midi.NoteOnEvent(tick=0, channel=0, data=[75, 0]),
   midi.NoteOnEvent(tick=0, channel=0, data=[65, 0]),
   midi.NoteOnEvent(tick=0, channel=0, data=[69, 0]),
   midi.NoteOnEvent(tick=0, channel=0, data=[77, 0]),
   midi.NoteOnEvent(tick=0, channel=0, data=[68, 18]),
   midi.NoteOnEvent(tick=0, channel=0, data=[70, 18]),
   midi.NoteOnEvent(tick=0, channel=0, data=[80, 22]),
   midi.NoteOnEvent(tick=0, channel=0, data=[74, 18]),
   midi.NoteOnEvent(tick=240, channel=0, data=[80, 0]),
   midi.NoteOnEvent(tick=0, channel=0, data=[68, 0]),
   midi.NoteOnEvent(tick=0, channel=0, data=[66, 14]),
   midi.NoteOnEvent(tick=0, channel=0, data=[78, 17]),
   midi.NoteOnEvent(tick=240, channel=0, data=[78, 0]),
   midi.NoteOnEvent(tick=0, channel=0, data=[66, 0]),
   midi.NoteOnEvent(tick=0, channel=0, data=[65, 13]),
   midi.NoteOnEvent(tick=0, channel=0, data=[77, 16]),
   midi.NoteOnEvent(tick=240, channel=0, data=[77, 0]),
   midi.NoteOnEvent(tick=0, channel=0, data=[74, 0]),
   midi.NoteOnEvent(tick=0, channel=0, data=[70, 0]),
   midi.NoteOnEvent(tick=0, channel=0, data=[65, 0]),
   midi.NoteOnEvent(tick=240, channel=0, data=[66, 26]),
   midi.NoteOnEvent(tick=0, channel=0, data=[70, 31]),
   midi.NoteOnEvent(tick=240, channel=0, data=[70, 0]),
   midi.NoteOnEvent(tick=0, channel=0, data=[58, 19]),
   midi.NoteOnEvent(tick=120, channel=0, data=[58, 0]),
   midi.NoteOnEvent(tick=120, channel=0, data=[66, 0]),
   midi.NoteOnEvent(tick=0, channel=0, data=[68, 29]),
   midi.NoteOnEvent(tick=0, channel=0, data=[71, 35]),
   midi.NoteOnEvent(tick=240, channel=0, data=[71, 0]),
   midi.NoteOnEvent(tick=0, channel=0, data=[59, 20]),
   midi.NoteOnEvent(tick=120, channel=0, data=[59, 0]),
   midi.NoteOnEvent(tick=120, channel=0, data=[68, 0]),
   midi.NoteOnEvent(tick=0, channel=0, data=[64, 26]),
   midi.NoteOnEvent(tick=0, channel=0, data=[68, 32]),
   midi.NoteOnEvent(tick=240, channel=0, data=[68, 0]),
   midi.NoteOnEvent(tick=0, channel=0, data=[64, 0]),
   midi.NoteOnEvent(tick=0, channel=0, data=[56, 18]),
   midi.NoteOnEvent(tick=120, channel=0, data=[56, 0]),
   midi.NoteOnEvent(tick=120, channel=0, data=[70, 26]),
   midi.NoteOnEvent(tick=0, channel=0, data=[73, 26]),
   midi.NoteOnEvent(tick=0, channel=0, data=[76, 26]),
   midi.NoteOnEvent(tick=0, channel=0, data=[80, 31]),
   midi.NoteOnEvent(tick=240, channel=0, data=[70, 0]),
   midi.NoteOnEvent(tick=0, channel=0, data=[68, 19]),
   midi.NoteOnEvent(tick=120, channel=0, data=[68, 0]),
   midi.NoteOnEvent(tick=120, channel=0, data=[80, 0]),
   midi.NoteOnEvent(tick=0, channel=0, data=[76, 0]),
   midi.NoteOnEvent(tick=0, channel=0, data=[73, 0]),
   midi.NoteOnEvent(tick=0, channel=0, data=[73, 29]),
   midi.NoteOnEvent(tick=0, channel=0, data=[79, 29]),
   midi.NoteOnEvent(tick=0, channel=0, data=[82, 35]),
   midi.NoteOnEvent(tick=240, channel=0, data=[73, 0]),
   midi.NoteOnEvent(tick=0, channel=0, data=[70, 20]),
   midi.NoteOnEvent(tick=120, channel=0, data=[70, 0]),
   midi.NoteOnEvent(tick=120, channel=0, data=[82, 0]),
   midi.NoteOnEvent(tick=0, channel=0, data=[79, 0]),
   midi.NoteOnEvent(tick=0, channel=0, data=[61, 26]),
   midi.NoteOnEvent(tick=0, channel=0, data=[70, 26]),
   midi.NoteOnEvent(tick=0, channel=0, data=[73, 32]),
   midi.NoteOnEvent(tick=240, channel=0, data=[73, 0]),
   midi.NoteOnEvent(tick=0, channel=0, data=[70, 0]),
   midi.NoteOnEvent(tick=0, channel=0, data=[61, 0]),
   midi.NoteOnEvent(tick=240, channel=0, data=[60, 24]),
   midi.NoteOnEvent(tick=0, channel=0, data=[63, 24]),
   midi.NoteOnEvent(tick=0, channel=0, data=[66, 29]),
   midi.NoteOnEvent(tick=240, channel=0, data=[60, 0]),
   midi.NoteOnEvent(tick=0, channel=0, data=[54, 17]),
   midi.NoteOnEvent(tick=120, channel=0, data=[54, 0]),
   midi.NoteOnEvent(tick=120, channel=0, data=[66, 0]),
   midi.NoteOnEvent(tick=0, channel=0, data=[63, 0]),
   midi.NoteOnEvent(tick=0, channel=0, data=[59, 24]),
   midi.NoteOnEvent(tick=0, channel=0, data=[63, 24]),
   midi.NoteOnEvent(tick=0, channel=0, data=[66, 29]),
   midi.NoteOnEvent(tick=240, channel=0, data=[59, 0]),
   midi.NoteOnEvent(tick=0, channel=0, data=[54, 18]),
   midi.NoteOnEvent(tick=120, channel=0, data=[54, 0]),
   midi.NoteOnEvent(tick=120, channel=0, data=[66, 0]),
   midi.NoteOnEvent(tick=0, channel=0, data=[63, 0]),
   midi.NoteOnEvent(tick=0, channel=0, data=[59, 24]),
   midi.NoteOnEvent(tick=0, channel=0, data=[63, 24]),
   midi.NoteOnEvent(tick=0, channel=0, data=[64, 29]),
   midi.NoteOnEvent(tick=240, channel=0, data=[64, 0]),
   midi.NoteOnEvent(tick=0, channel=0, data=[63, 0]),
   midi.NoteOnEvent(tick=0, channel=0, data=[59, 0]),
   midi.NoteOnEvent(tick=240, channel=0, data=[76, 27]),
   midi.NoteOnEvent(tick=0, channel=0, data=[70, 27]),
   midi.NoteOnEvent(tick=0, channel=0, data=[73, 27]),
   midi.NoteOnEvent(tick=0, channel=0, data=[80, 33]),
   midi.NoteOnEvent(tick=240, channel=0, data=[70, 0]),
   midi.NoteOnEvent(tick=0, channel=0, data=[68, 19]),
   midi.NoteOnEvent(tick=120, channel=0, data=[68, 0]),
   midi.NoteOnEvent(tick=120, channel=0, data=[80, 0]),
   midi.NoteOnEvent(tick=0, channel=0, data=[73, 0]),
   midi.NoteOnEvent(tick=0, channel=0, data=[76, 0]),
   midi.NoteOnEvent(tick=0, channel=0, data=[70, 27]),
   midi.NoteOnEvent(tick=0, channel=0, data=[73, 27]),
   midi.NoteOnEvent(tick=0, channel=0, data=[76, 33]),
   midi.NoteOnEvent(tick=240, channel=0, data=[70, 0]),
   midi.NoteOnEvent(tick=0, channel=0, data=[64, 20]),
   midi.NoteOnEvent(tick=120, channel=0, data=[64, 0]),
   midi.NoteOnEvent(tick=120, channel=0, data=[76, 0]),
   midi.NoteOnEvent(tick=0, channel=0, data=[73, 0]),
   midi.NoteOnEvent(tick=0, channel=0, data=[70, 27]),
   midi.NoteOnEvent(tick=0, channel=0, data=[73, 27]),
   midi.NoteOnEvent(tick=0, channel=0, data=[75, 33]),
   midi.NoteOnEvent(tick=240, channel=0, data=[75, 0]),
   midi.NoteOnEvent(tick=0, channel=0, data=[73, 0]),
   midi.NoteOnEvent(tick=0, channel=0, data=[70, 0]),
   midi.NoteOnEvent(tick=240, channel=0, data=[59, 23]),
   midi.NoteOnEvent(tick=0, channel=0, data=[62, 28]),
   midi.NoteOnEvent(tick=240, channel=0, data=[59, 0]),
   midi.NoteOnEvent(tick=0, channel=0, data=[53, 17]),
   midi.NoteOnEvent(tick=240, channel=0, data=[53, 0]),
   midi.NoteOnEvent(tick=0, channel=0, data=[62, 0]),
   midi.NoteOnEvent(tick=0, channel=0, data=[58, 27]),
   midi.NoteOnEvent(tick=0, channel=0, data=[63, 33]),
   midi.NoteOnEvent(tick=240, channel=0, data=[58, 0]),
   midi.NoteOnEvent(tick=0, channel=0, data=[51, 18]),
   midi.NoteOnEvent(tick=240, channel=0, data=[51, 0]),
   midi.NoteOnEvent(tick=0, channel=0, data=[63, 0]),
   midi.NoteOnEvent(tick=0, channel=0, data=[54, 23]),
   midi.NoteOnEvent(tick=0, channel=0, data=[58, 28]),
   midi.NoteOnEvent(tick=240, channel=0, data=[58, 0]),
   midi.NoteOnEvent(tick=0, channel=0, data=[54, 0]),
   midi.NoteOnEvent(tick=0, channel=0, data=[58, 21]),
   midi.NoteOnEvent(tick=0, channel=0, data=[62, 21]),
   midi.NoteOnEvent(tick=0, channel=0, data=[70, 25]),
   midi.NoteOnEvent(tick=0, channel=0, data=[68, 21]),
   midi.NoteOnEvent(tick=240, channel=0, data=[66, 21]),
   midi.NoteOnEvent(tick=240, channel=0, data=[66, 0]),
   midi.NoteOnEvent(tick=0, channel=0, data=[65, 21]),
   midi.NoteOnEvent(tick=240, channel=0, data=[65, 0]),
   midi.NoteOnEvent(tick=0, channel=0, data=[68, 0]),
   midi.NoteOnEvent(tick=0, channel=0, data=[58, 0]),
   midi.NoteOnEvent(tick=0, channel=0, data=[62, 0]),
   midi.NoteOnEvent(tick=0, channel=0, data=[70, 0]),
   midi.NoteOnEvent(tick=0, channel=0, data=[68, 21]),
   midi.NoteOnEvent(tick=0, channel=0, data=[58, 21]),
   midi.NoteOnEvent(tick=0, channel=0, data=[63, 21]),
   midi.NoteOnEvent(tick=0, channel=0, data=[70, 25]),
   midi.NoteOnEvent(tick=480, channel=0, data=[68, 0]),
   midi.NoteOnEvent(tick=0, channel=0, data=[66, 19]),
   midi.NoteOnEvent(tick=240, channel=0, data=[66, 0]),
   midi.NoteOnEvent(tick=0, channel=0, data=[70, 0]),
   midi.NoteOnEvent(tick=0, channel=0, data=[63, 0]),
   midi.NoteOnEvent(tick=0, channel=0, data=[58, 0]),
   midi.NoteOnEvent(tick=240, channel=0, data=[68, 27]),
   midi.NoteOnEvent(tick=0, channel=0, data=[71, 27]),
   midi.NoteOnEvent(tick=0, channel=0, data=[76, 34]),
   midi.NoteOnEvent(tick=240, channel=0, data=[68, 0]),
   midi.NoteOnEvent(tick=0, channel=0, data=[64, 19]),
   midi.NoteOnEvent(tick=240, channel=0, data=[64, 0]),
   midi.NoteOnEvent(tick=0, channel=0, data=[76, 0]),
   midi.NoteOnEvent(tick=0, channel=0, data=[71, 0]),
   midi.NoteOnEvent(tick=0, channel=0, data=[66, 29]),
   midi.NoteOnEvent(tick=0, channel=0, data=[70, 29]),
   midi.NoteOnEvent(tick=0, channel=0, data=[75, 36]),
   midi.NoteOnEvent(tick=240, channel=0, data=[66, 0]),
   midi.NoteOnEvent(tick=0, channel=0, data=[63, 19]),
   midi.NoteOnEvent(tick=240, channel=0, data=[63, 0]),
   midi.NoteOnEvent(tick=0, channel=0, data=[75, 0]),
   midi.NoteOnEvent(tick=0, channel=0, data=[70, 0]),
   midi.NoteOnEvent(tick=0, channel=0, data=[66, 23]),
   midi.NoteOnEvent(tick=0, channel=0, data=[70, 30]),
   midi.NoteOnEvent(tick=240, channel=0, data=[70, 0]),
   midi.NoteOnEvent(tick=0, channel=0, data=[66, 0]),
   midi.NoteOnEvent(tick=0, channel=0, data=[50, 21]),
   midi.NoteOnEvent(tick=0, channel=0, data=[58, 25]),
   midi.NoteOnEvent(tick=0, channel=0, data=[56, 21]),
   midi.NoteOnEvent(tick=720, channel=0, data=[56, 0]),
   midi.NoteOnEvent(tick=0, channel=0, data=[58, 0]),
   midi.NoteOnEvent(tick=0, channel=0, data=[50, 0]),
   midi.NoteOnEvent(tick=0, channel=0, data=[50, 21]),
   midi.NoteOnEvent(tick=0, channel=0, data=[56, 21]),
   midi.NoteOnEvent(tick=0, channel=0, data=[58, 25]),
   midi.NoteOnEvent(tick=720, channel=0, data=[58, 0]),
   midi.NoteOnEvent(tick=0, channel=0, data=[56, 0]),
   midi.NoteOnEvent(tick=0, channel=0, data=[50, 0]),
   midi.NoteOnEvent(tick=0, channel=0, data=[61, 17]),
   midi.NoteOnEvent(tick=0, channel=0, data=[51, 21]),
   midi.NoteOnEvent(tick=0, channel=0, data=[55, 21]),
   midi.NoteOnEvent(tick=0, channel=0, data=[63, 25]),
   midi.NoteOnEvent(tick=480, channel=0, data=[61, 0]),
   midi.NoteOnEvent(tick=0, channel=0, data=[59, 16]),
   midi.NoteOnEvent(tick=240, channel=0, data=[51, 0]),
   midi.NoteOnEvent(tick=0, channel=0, data=[63, 0]),
   midi.NoteOnEvent(tick=0, channel=0, data=[55, 0]),
   midi.NoteOnEvent(tick=0, channel=0, data=[63, 23]),
   midi.NoteOnEvent(tick=0, channel=0, data=[55, 19]),
   midi.NoteOnEvent(tick=0, channel=0, data=[51, 19]),
   midi.NoteOnEvent(tick=240, channel=0, data=[59, 0]),
   midi.NoteOnEvent(tick=0, channel=0, data=[58, 15]),
   midi.NoteOnEvent(tick=150, channel=0, data=[58, 0]),
   midi.NoteOnEvent(tick=330, channel=0, data=[51, 0]),
   midi.NoteOnEvent(tick=0, channel=0, data=[55, 0]),
   midi.NoteOnEvent(tick=0, channel=0, data=[63, 0]),
   midi.NoteOnEvent(tick=0, channel=0, data=[67, 22]),
   midi.NoteOnEvent(tick=0, channel=0, data=[63, 22]),
   midi.NoteOnEvent(tick=0, channel=0, data=[75, 39]),
   midi.NoteOnEvent(tick=240, channel=0, data=[62, 23]),
   midi.NoteOnEvent(tick=0, channel=0, data=[74, 34]),
   midi.NoteOnEvent(tick=240, channel=0, data=[74, 0]),
   midi.NoteOnEvent(tick=0, channel=0, data=[75, 0]),
   midi.NoteOnEvent(tick=0, channel=0, data=[67, 0]),
   midi.NoteOnEvent(tick=0, channel=0, data=[63, 0]),
   midi.NoteOnEvent(tick=0, channel=0, data=[62, 0]),
   midi.NoteOnEvent(tick=0, channel=0, data=[87, 27]),
   midi.NoteOnEvent(tick=0, channel=0, data=[79, 27]),
   midi.NoteOnEvent(tick=0, channel=0, data=[60, 22]),
   midi.NoteOnEvent(tick=0, channel=0, data=[63, 22]),
   midi.NoteOnEvent(tick=0, channel=0, data=[75, 22]),
   midi.NoteOnEvent(tick=0, channel=0, data=[72, 31]),
   midi.NoteOnEvent(tick=240, channel=0, data=[72, 0]),
   midi.NoteOnEvent(tick=0, channel=0, data=[79, 0]),
   midi.NoteOnEvent(tick=0, channel=0, data=[60, 0]),
   midi.NoteOnEvent(tick=0, channel=0, data=[87, 0]),
   midi.NoteOnEvent(tick=0, channel=0, data=[75, 0]),
   midi.NoteOnEvent(tick=0, channel=0, data=[63, 0]),
   midi.NoteOnEvent(tick=0, channel=0, data=[87, 29]),
   midi.NoteOnEvent(tick=0, channel=0, data=[79, 29]),
   midi.NoteOnEvent(tick=0, channel=0, data=[58, 23]),
   midi.NoteOnEvent(tick=0, channel=0, data=[63, 23]),
   midi.NoteOnEvent(tick=0, channel=0, data=[75, 23]),
   midi.NoteOnEvent(tick=0, channel=0, data=[70, 35]),
   midi.NoteOnEvent(tick=480, channel=0, data=[70, 0]),
   midi.NoteOnEvent(tick=0, channel=0, data=[79, 0]),
   midi.NoteOnEvent(tick=0, channel=0, data=[58, 0]),
   midi.NoteOnEvent(tick=0, channel=0, data=[87, 0]),
   midi.NoteOnEvent(tick=0, channel=0, data=[75, 0]),
   midi.NoteOnEvent(tick=0, channel=0, data=[63, 0]),
   midi.NoteOnEvent(tick=0, channel=0, data=[56, 23]),
   midi.NoteOnEvent(tick=0, channel=0, data=[63, 23]),
   midi.NoteOnEvent(tick=0, channel=0, data=[68, 33]),
   midi.NoteOnEvent(tick=120, channel=0, data=[68, 0]),
   midi.NoteOnEvent(tick=0, channel=0, data=[63, 0]),
   midi.NoteOnEvent(tick=0, channel=0, data=[56, 0]),
   midi.NoteOnEvent(tick=0, channel=0, data=[55, 21]),
   midi.NoteOnEvent(tick=0, channel=0, data=[67, 31]),
   midi.NoteOnEvent(tick=120, channel=0, data=[67, 0]),
   midi.NoteOnEvent(tick=0, channel=0, data=[55, 0]),
   midi.NoteOnEvent(tick=0, channel=0, data=[55, 28]),
   midi.NoteOnEvent(tick=0, channel=0, data=[65, 36]),
   midi.NoteOnEvent(tick=240, channel=0, data=[65, 0]),
   midi.NoteOnEvent(tick=0, channel=0, data=[63, 32]),
   midi.NoteOnEvent(tick=240, channel=0, data=[63, 0]),
   midi.NoteOnEvent(tick=0, channel=0, data=[55, 0]),
   midi.NoteOnEvent(tick=0, channel=0, data=[87, 34]),
   midi.NoteOnEvent(tick=0, channel=0, data=[79, 34]),
   midi.NoteOnEvent(tick=0, channel=0, data=[55, 27]),
   midi.NoteOnEvent(tick=0, channel=0, data=[63, 27]),
   midi.NoteOnEvent(tick=0, channel=0, data=[75, 27]),
   midi.NoteOnEvent(tick=0, channel=0, data=[67, 41]),
   midi.NoteOnEvent(tick=240, channel=0, data=[67, 0]),
   midi.NoteOnEvent(tick=0, channel=0, data=[79, 0]),
   midi.NoteOnEvent(tick=0, channel=0, data=[55, 0]),
   midi.NoteOnEvent(tick=0, channel=0, data=[87, 0]),
   midi.NoteOnEvent(tick=0, channel=0, data=[75, 0]),
   midi.NoteOnEvent(tick=0, channel=0, data=[63, 0]),
   midi.NoteOnEvent(tick=0, channel=0, data=[87, 31]),
   midi.NoteOnEvent(tick=0, channel=0, data=[79, 31]),
   midi.NoteOnEvent(tick=0, channel=0, data=[58, 25]),
   midi.NoteOnEvent(tick=0, channel=0, data=[63, 25]),
   midi.NoteOnEvent(tick=0, channel=0, data=[75, 25]),
   midi.NoteOnEvent(tick=0, channel=0, data=[70, 36]),
   midi.NoteOnEvent(tick=480, channel=0, data=[70, 0]),
   midi.NoteOnEvent(tick=0, channel=0, data=[79, 0]),
   midi.NoteOnEvent(tick=0, channel=0, data=[58, 0]),
   midi.NoteOnEvent(tick=0, channel=0, data=[87, 0]),
   midi.NoteOnEvent(tick=0, channel=0, data=[75, 0]),
   midi.NoteOnEvent(tick=0, channel=0, data=[63, 0]),
   midi.NoteOnEvent(tick=0, channel=0, data=[60, 35]),
   midi.NoteOnEvent(tick=0, channel=0, data=[72, 40]),
   midi.NoteOnEvent(tick=120, channel=0, data=[72, 0]),
   midi.NoteOnEvent(tick=0, channel=0, data=[60, 0]),
   midi.NoteOnEvent(tick=0, channel=0, data=[62, 33]),
   midi.NoteOnEvent(tick=0, channel=0, data=[74, 38]),
   midi.NoteOnEvent(tick=120, channel=0, data=[74, 0]),
   midi.NoteOnEvent(tick=0, channel=0, data=[62, 0]),
   midi.NoteOnEvent(tick=0, channel=0, data=[70, 28]),
   midi.NoteOnEvent(tick=0, channel=0, data=[63, 28]),
   midi.NoteOnEvent(tick=0, channel=0, data=[75, 50]),
   midi.NoteOnEvent(tick=240, channel=0, data=[75, 0]),
   midi.NoteOnEvent(tick=0, channel=0, data=[63, 0]),
   midi.NoteOnEvent(tick=0, channel=0, data=[70, 0]),
   midi.NoteOnEvent(tick=0, channel=0, data=[62, 27]),
   midi.NoteOnEvent(tick=0, channel=0, data=[74, 35]),
   midi.NoteOnEvent(tick=240, channel=0, data=[74, 0]),
   midi.NoteOnEvent(tick=0, channel=0, data=[62, 0]),
   midi.NoteOnEvent(tick=0, channel=0, data=[87, 32]),
   midi.NoteOnEvent(tick=0, channel=0, data=[79, 32]),
   midi.NoteOnEvent(tick=0, channel=0, data=[60, 26]),
   midi.NoteOnEvent(tick=0, channel=0, data=[63, 26]),
   midi.NoteOnEvent(tick=0, channel=0, data=[75, 26]),
   midi.NoteOnEvent(tick=0, channel=0, data=[72, 37]),
   midi.NoteOnEvent(tick=240, channel=0, data=[72, 0]),
   midi.NoteOnEvent(tick=0, channel=0, data=[79, 0]),
   midi.NoteOnEvent(tick=0, channel=0, data=[60, 0]),
   midi.NoteOnEvent(tick=0, channel=0, data=[87, 0]),
   midi.NoteOnEvent(tick=0, channel=0, data=[75, 0]),
   midi.NoteOnEvent(tick=0, channel=0, data=[63, 0]),
   midi.NoteOnEvent(tick=0, channel=0, data=[87, 35]),
   midi.NoteOnEvent(tick=0, channel=0, data=[79, 35]),
   midi.NoteOnEvent(tick=0, channel=0, data=[58, 28]),
   midi.NoteOnEvent(tick=0, channel=0, data=[63, 28]),
   midi.NoteOnEvent(tick=0, channel=0, data=[75, 28]),
   midi.NoteOnEvent(tick=0, channel=0, data=[70, 42]),
   midi.NoteOnEvent(tick=480, channel=0, data=[70, 0]),
   midi.NoteOnEvent(tick=0, channel=0, data=[79, 0]),
   midi.NoteOnEvent(tick=0, channel=0, data=[58, 0]),
   midi.NoteOnEvent(tick=0, channel=0, data=[87, 0]),
   midi.NoteOnEvent(tick=0, channel=0, data=[75, 0]),
   midi.NoteOnEvent(tick=0, channel=0, data=[63, 0]),
   midi.NoteOnEvent(tick=0, channel=0, data=[56, 26]),
   midi.NoteOnEvent(tick=0, channel=0, data=[63, 26]),
   midi.NoteOnEvent(tick=0, channel=0, data=[68, 37]),
   midi.NoteOnEvent(tick=120, channel=0, data=[68, 0]),
   midi.NoteOnEvent(tick=0, channel=0, data=[63, 0]),
   midi.NoteOnEvent(tick=0, channel=0, data=[56, 0]),
   midi.NoteOnEvent(tick=0, channel=0, data=[55, 24]),
   midi.NoteOnEvent(tick=0, channel=0, data=[67, 35]),
   midi.NoteOnEvent(tick=120, channel=0, data=[67, 0]),
   midi.NoteOnEvent(tick=0, channel=0, data=[55, 0]),
   midi.NoteOnEvent(tick=0, channel=0, data=[58, 32]),
   midi.NoteOnEvent(tick=0, channel=0, data=[70, 41]),
   midi.NoteOnEvent(tick=240, channel=0, data=[70, 0]),
   midi.NoteOnEvent(tick=0, channel=0, data=[63, 36]),
   midi.NoteOnEvent(tick=180, channel=0, data=[67, 28]),
   midi.NoteOnEvent(tick=60, channel=0, data=[67, 0]),
   midi.NoteOnEvent(tick=0, channel=0, data=[63, 0]),
   midi.NoteOnEvent(tick=0, channel=0, data=[58, 0]),
   midi.NoteOnEvent(tick=0, channel=0, data=[56, 24]),
   midi.NoteOnEvent(tick=0, channel=0, data=[62, 24]),
   midi.NoteOnEvent(tick=0, channel=0, data=[65, 36]),
   midi.NoteOnEvent(tick=240, channel=0, data=[65, 0]),
   midi.NoteOnEvent(tick=0, channel=0, data=[62, 0]),
   midi.NoteOnEvent(tick=0, channel=0, data=[56, 0]),
   midi.NoteOnEvent(tick=0, channel=0, data=[63, 23]),
   midi.NoteOnEvent(tick=0, channel=0, data=[55, 23]),
   midi.NoteOnEvent(tick=360, channel=0, data=[63, 0]),
   midi.NoteOnEvent(tick=0, channel=0, data=[67, 23]),
   midi.NoteOnEvent(tick=120, channel=0, data=[67, 0]),
   midi.NoteOnEvent(tick=0, channel=0, data=[55, 0]),
   midi.NoteOnEvent(tick=0, channel=0, data=[67, 23]),
   midi.NoteOnEvent(tick=0, channel=0, data=[70, 26]),
   midi.NoteOnEvent(tick=120, channel=0, data=[70, 0]),
   midi.NoteOnEvent(tick=0, channel=0, data=[79, 26]),
   midi.NoteOnEvent(tick=120, channel=0, data=[79, 0]),
   midi.NoteOnEvent(tick=0, channel=0, data=[67, 0]),
   midi.NoteOnEvent(tick=0, channel=0, data=[80, 29]),
   midi.NoteOnEvent(tick=0, channel=0, data=[68, 26]),
   midi.NoteOnEvent(tick=0, channel=0, data=[77, 46]),
   midi.NoteOnEvent(tick=240, channel=0, data=[77, 0]),
   midi.NoteOnEvent(tick=0, channel=0, data=[72, 37]),
   midi.NoteOnEvent(tick=240, channel=0, data=[72, 0]),
   midi.NoteOnEvent(tick=0, channel=0, data=[68, 0]),
   midi.NoteOnEvent(tick=0, channel=0, data=[80, 0]),
   midi.NoteOnEvent(tick=0, channel=0, data=[74, 37]),
   midi.NoteOnEvent(tick=0, channel=0, data=[65, 26]),
   midi.NoteOnEvent(tick=0, channel=0, data=[77, 26]),
   midi.NoteOnEvent(tick=240, channel=0, data=[77, 0]),
   midi.NoteOnEvent(tick=0, channel=0, data=[65, 0]),
   midi.NoteOnEvent(tick=0, channel=0, data=[74, 0]),
   midi.NoteOnEvent(tick=0, channel=0, data=[67, 28]),
   midi.NoteOnEvent(tick=0, channel=0, data=[79, 28]),
   midi.NoteOnEvent(tick=0, channel=0, data=[70, 42]),
   midi.NoteOnEvent(tick=360, channel=0, data=[75, 26]),
   midi.NoteOnEvent(tick=120, channel=0, data=[75, 0]),
   midi.NoteOnEvent(tick=0, channel=0, data=[67, 0]),
   midi.NoteOnEvent(tick=0, channel=0, data=[79, 0]),
   midi.NoteOnEvent(tick=0, channel=0, data=[70, 0]),
   midi.NoteOnEvent(tick=0, channel=0, data=[70, 26]),
   midi.NoteOnEvent(tick=0, channel=0, data=[82, 29]),
   midi.NoteOnEvent(tick=0, channel=0, data=[79, 39]),
   midi.NoteOnEvent(tick=120, channel=0, data=[79, 0]),
   midi.NoteOnEvent(tick=0, channel=0, data=[75, 37]),
   midi.NoteOnEvent(tick=120, channel=0, data=[75, 0]),
   midi.NoteOnEvent(tick=0, channel=0, data=[82, 0]),
   midi.NoteOnEvent(tick=0, channel=0, data=[70, 0]),
   midi.NoteOnEvent(tick=0, channel=0, data=[80, 29]),
   midi.NoteOnEvent(tick=0, channel=0, data=[68, 26]),
   midi.NoteOnEvent(tick=0, channel=0, data=[77, 46]),
   midi.NoteOnEvent(tick=120, channel=0, data=[77, 0]),
   midi.NoteOnEvent(tick=0, channel=0, data=[75, 37]),
   midi.NoteOnEvent(tick=120, channel=0, data=[75, 0]),
   midi.NoteOnEvent(tick=0, channel=0, data=[77, 41]),
   midi.NoteOnEvent(tick=120, channel=0, data=[77, 0]),
   midi.NoteOnEvent(tick=0, channel=0, data=[72, 34]),
   midi.NoteOnEvent(tick=120, channel=0, data=[72, 0]),
   midi.NoteOnEvent(tick=0, channel=0, data=[68, 0]),
   midi.NoteOnEvent(tick=0, channel=0, data=[80, 0]),
   midi.NoteOnEvent(tick=0, channel=0, data=[75, 37]),
   midi.NoteOnEvent(tick=0, channel=0, data=[65, 26]),
   midi.NoteOnEvent(tick=0, channel=0, data=[77, 26]),
   midi.NoteOnEvent(tick=120, channel=0, data=[75, 0]),
   midi.NoteOnEvent(tick=0, channel=0, data=[74, 33]),
   midi.NoteOnEvent(tick=120, channel=0, data=[74, 0]),
   midi.NoteOnEvent(tick=0, channel=0, data=[77, 0]),
   midi.NoteOnEvent(tick=0, channel=0, data=[65, 0]),
   midi.NoteOnEvent(tick=0, channel=0, data=[67, 26]),
   midi.NoteOnEvent(tick=0, channel=0, data=[79, 26]),
   midi.NoteOnEvent(tick=0, channel=0, data=[75, 46]),
   midi.NoteOnEvent(tick=120, channel=0, data=[75, 0]),
   midi.NoteOnEvent(tick=0, channel=0, data=[74, 41]),
   midi.NoteOnEvent(tick=120, channel=0, data=[74, 0]),
   midi.NoteOnEvent(tick=0, channel=0, data=[75, 41]),
   midi.NoteOnEvent(tick=120, channel=0, data=[75, 0]),
   midi.NoteOnEvent(tick=0, channel=0, data=[70, 36]),
   midi.NoteOnEvent(tick=120, channel=0, data=[70, 0]),
   midi.NoteOnEvent(tick=0, channel=0, data=[79, 0]),
   midi.NoteOnEvent(tick=0, channel=0, data=[67, 0]),
   midi.NoteOnEvent(tick=0, channel=0, data=[75, 33]),
   midi.NoteOnEvent(tick=0, channel=0, data=[72, 47]),
   midi.NoteOnEvent(tick=0, channel=0, data=[67, 33]),
   midi.NoteOnEvent(tick=120, channel=0, data=[72, 0]),
   midi.NoteOnEvent(tick=0, channel=0, data=[70, 43]),
   midi.NoteOnEvent(tick=120, channel=0, data=[70, 0]),
   midi.NoteOnEvent(tick=0, channel=0, data=[67, 0]),
   midi.NoteOnEvent(tick=0, channel=0, data=[75, 0]),
   midi.NoteOnEvent(tick=0, channel=0, data=[77, 39]),
   midi.NoteOnEvent(tick=0, channel=0, data=[74, 49]),
   midi.NoteOnEvent(tick=0, channel=0, data=[65, 39]),
   midi.NoteOnEvent(tick=120, channel=0, data=[74, 0]),
   midi.NoteOnEvent(tick=0, channel=0, data=[72, 44]),
   midi.NoteOnEvent(tick=120, channel=0, data=[72, 0]),
   midi.NoteOnEvent(tick=0, channel=0, data=[74, 50]),
   midi.NoteOnEvent(tick=120, channel=0, data=[74, 0]),
   midi.NoteOnEvent(tick=0, channel=0, data=[70, 43]),
   midi.NoteOnEvent(tick=120, channel=0, data=[70, 0]),
   midi.NoteOnEvent(tick=0, channel=0, data=[65, 0]),
   midi.NoteOnEvent(tick=0, channel=0, data=[77, 0]),
   midi.NoteOnEvent(tick=0, channel=0, data=[75, 57]),
   midi.NoteOnEvent(tick=0, channel=0, data=[72, 48]),
   midi.NoteOnEvent(tick=0, channel=0, data=[63, 48]),
   midi.NoteOnEvent(tick=120, channel=0, data=[72, 0]),
   midi.NoteOnEvent(tick=0, channel=0, data=[70, 46]),
   midi.NoteOnEvent(tick=120, channel=0, data=[70, 0]),
   midi.NoteOnEvent(tick=0, channel=0, data=[63, 0]),
   midi.NoteOnEvent(tick=0, channel=0, data=[75, 0]),
   midi.NoteOnEvent(tick=0, channel=0, data=[65, 49]),
   midi.NoteOnEvent(tick=0, channel=0, data=[74, 57]),
   midi.NoteOnEvent(tick=0, channel=0, data=[77, 49]),
   midi.NoteOnEvent(tick=120, channel=0, data=[74, 0]),
   midi.NoteOnEvent(tick=0, channel=0, data=[72, 55]),
   midi.NoteOnEvent(tick=120, channel=0, data=[72, 0]),
   midi.NoteOnEvent(tick=0, channel=0, data=[74, 61]),
   midi.NoteOnEvent(tick=120, channel=0, data=[74, 0]),
   midi.NoteOnEvent(tick=0, channel=0, data=[70, 55]),
   midi.NoteOnEvent(tick=120, channel=0, data=[70, 0]),
   midi.NoteOnEvent(tick=0, channel=0, data=[77, 0]),
   midi.NoteOnEvent(tick=0, channel=0, data=[65, 0]),
   midi.NoteOnEvent(tick=0, channel=0, data=[81, 62]),
   midi.NoteOnEvent(tick=0, channel=0, data=[77, 62]),
   midi.NoteOnEvent(tick=0, channel=0, data=[69, 53]),
   midi.NoteOnEvent(tick=120, channel=0, data=[69, 0]),
   midi.NoteOnEvent(tick=0, channel=0, data=[70, 46]),
   midi.NoteOnEvent(tick=120, channel=0, data=[70, 0]),
   midi.NoteOnEvent(tick=0, channel=0, data=[77, 0]),
   midi.NoteOnEvent(tick=0, channel=0, data=[81, 0]),
   midi.NoteOnEvent(tick=0, channel=0, data=[75, 51]),
   midi.NoteOnEvent(tick=0, channel=0, data=[70, 51]),
   midi.NoteOnEvent(tick=0, channel=0, data=[79, 62]),
   midi.NoteOnEvent(tick=120, channel=0, data=[70, 0]),
   midi.NoteOnEvent(tick=0, channel=0, data=[67, 49]),
   midi.NoteOnEvent(tick=120, channel=0, data=[67, 0]),
   midi.NoteOnEvent(tick=0, channel=0, data=[79, 0]),
   midi.NoteOnEvent(tick=0, channel=0, data=[75, 0]),
   midi.NoteOnEvent(tick=0, channel=0, data=[77, 55]),
   midi.NoteOnEvent(tick=0, channel=0, data=[69, 46]),
   midi.NoteOnEvent(tick=0, channel=0, data=[74, 46]),
   midi.NoteOnEvent(tick=120, channel=0, data=[69, 0]),
   midi.NoteOnEvent(tick=0, channel=0, data=[67, 38]),
   midi.NoteOnEvent(tick=120, channel=0, data=[67, 0]),
   midi.NoteOnEvent(tick=0, channel=0, data=[74, 0]),
   midi.NoteOnEvent(tick=0, channel=0, data=[77, 0]),
   midi.NoteOnEvent(tick=0, channel=0, data=[72, 37]),
   midi.NoteOnEvent(tick=0, channel=0, data=[67, 37]),
   midi.NoteOnEvent(tick=0, channel=0, data=[75, 46]),
   midi.NoteOnEvent(tick=120, channel=0, data=[75, 0]),
   midi.NoteOnEvent(tick=0, channel=0, data=[67, 0]),
   midi.NoteOnEvent(tick=0, channel=0, data=[72, 0]),
   midi.NoteOnEvent(tick=0, channel=0, data=[70, 32]),
   midi.NoteOnEvent(tick=0, channel=0, data=[65, 32]),
   midi.NoteOnEvent(tick=0, channel=0, data=[74, 39]),
   midi.NoteOnEvent(tick=120, channel=0, data=[74, 0]),
   midi.NoteOnEvent(tick=0, channel=0, data=[65, 0]),
   midi.NoteOnEvent(tick=0, channel=0, data=[70, 0]),
   midi.NoteOnEvent(tick=0, channel=0, data=[68, 29]),
   midi.NoteOnEvent(tick=0, channel=0, data=[63, 25]),
   midi.NoteOnEvent(tick=0, channel=0, data=[72, 42]),
   midi.NoteOnEvent(tick=120, channel=0, data=[63, 0]),
   midi.NoteOnEvent(tick=0, channel=0, data=[60, 33]),
   midi.NoteOnEvent(tick=120, channel=0, data=[60, 0]),
   midi.NoteOnEvent(tick=0, channel=0, data=[72, 0]),
   midi.NoteOnEvent(tick=0, channel=0, data=[67, 32]),
   midi.NoteOnEvent(tick=0, channel=0, data=[62, 32]),
   midi.NoteOnEvent(tick=0, channel=0, data=[70, 38]),
   midi.NoteOnEvent(tick=120, channel=0, data=[62, 0]),
   midi.NoteOnEvent(tick=0, channel=0, data=[58, 27]),
   midi.NoteOnEvent(tick=120, channel=0, data=[58, 0]),
   midi.NoteOnEvent(tick=0, channel=0, data=[70, 0]),
   midi.NoteOnEvent(tick=0, channel=0, data=[67, 0]),
   midi.NoteOnEvent(tick=0, channel=0, data=[68, 0]),
   midi.NoteOnEvent(tick=0, channel=0, data=[70, 33]),
   midi.NoteOnEvent(tick=0, channel=0, data=[63, 27]),
   midi.NoteOnEvent(tick=0, channel=0, data=[68, 33]),
   midi.NoteOnEvent(tick=0, channel=0, data=[60, 27]),
   midi.NoteOnEvent(tick=120, channel=0, data=[60, 0]),
   midi.NoteOnEvent(tick=0, channel=0, data=[68, 0]),
   midi.NoteOnEvent(tick=0, channel=0, data=[63, 0]),
   midi.NoteOnEvent(tick=0, channel=0, data=[62, 27]),
   midi.NoteOnEvent(tick=0, channel=0, data=[65, 27]),
   midi.NoteOnEvent(tick=120, channel=0, data=[65, 0]),
   midi.NoteOnEvent(tick=0, channel=0, data=[62, 0]),
   midi.NoteOnEvent(tick=0, channel=0, data=[70, 0]),
   midi.NoteOnEvent(tick=0, channel=0, data=[63, 23]),
   midi.NoteOnEvent(tick=0, channel=0, data=[75, 40]),
   midi.NoteOnEvent(tick=240, channel=0, data=[74, 36]),
   midi.NoteOnEvent(tick=240, channel=0, data=[74, 0]),
   midi.NoteOnEvent(tick=0, channel=0, data=[75, 0]),
   midi.NoteOnEvent(tick=0, channel=0, data=[63, 0]),
   midi.NoteOnEvent(tick=0, channel=0, data=[63, 23]),
   midi.NoteOnEvent(tick=0, channel=0, data=[75, 23]),
   midi.NoteOnEvent(tick=0, channel=0, data=[72, 33]),
   midi.NoteOnEvent(tick=240, channel=0, data=[72, 0]),
   midi.NoteOnEvent(tick=0, channel=0, data=[75, 0]),
   midi.NoteOnEvent(tick=0, channel=0, data=[63, 0]),
   midi.NoteOnEvent(tick=0, channel=0, data=[63, 25]),
   midi.NoteOnEvent(tick=0, channel=0, data=[75, 25]),
   midi.NoteOnEvent(tick=0, channel=0, data=[70, 37]),
   midi.NoteOnEvent(tick=480, channel=0, data=[70, 0]),
   midi.NoteOnEvent(tick=0, channel=0, data=[75, 0]),
   midi.NoteOnEvent(tick=0, channel=0, data=[63, 0]),
   midi.NoteOnEvent(tick=0, channel=0, data=[63, 23]),
   midi.NoteOnEvent(tick=0, channel=0, data=[75, 23]),
   midi.NoteOnEvent(tick=0, channel=0, data=[68, 33]),
   midi.NoteOnEvent(tick=120, channel=0, data=[68, 0]),
   midi.NoteOnEvent(tick=0, channel=0, data=[67, 31]),
   midi.NoteOnEvent(tick=120, channel=0, data=[67, 0]),
   midi.NoteOnEvent(tick=0, channel=0, data=[75, 0]),
   midi.NoteOnEvent(tick=0, channel=0, data=[63, 0]),
   midi.NoteOnEvent(tick=0, channel=0, data=[75, 28]),
   midi.NoteOnEvent(tick=0, channel=0, data=[65, 36]),
   midi.NoteOnEvent(tick=240, channel=0, data=[65, 0]),
   midi.NoteOnEvent(tick=0, channel=0, data=[63, 32]),
   midi.NoteOnEvent(tick=240, channel=0, data=[63, 0]),
   midi.NoteOnEvent(tick=0, channel=0, data=[75, 0]),
   midi.NoteOnEvent(tick=0, channel=0, data=[75, 24]),
   midi.NoteOnEvent(tick=0, channel=0, data=[67, 36]),
   midi.NoteOnEvent(tick=240, channel=0, data=[67, 0]),
   midi.NoteOnEvent(tick=0, channel=0, data=[75, 0]),
   midi.NoteOnEvent(tick=0, channel=0, data=[63, 22]),
   midi.NoteOnEvent(tick=0, channel=0, data=[75, 22]),
   midi.NoteOnEvent(tick=0, channel=0, data=[70, 32]),
   midi.NoteOnEvent(tick=480, channel=0, data=[70, 0]),
   midi.NoteOnEvent(tick=0, channel=0, data=[75, 0]),
   midi.NoteOnEvent(tick=0, channel=0, data=[63, 0]),
   midi.NoteOnEvent(tick=0, channel=0, data=[63, 23]),
   midi.NoteOnEvent(tick=0, channel=0, data=[75, 23]),
   midi.NoteOnEvent(tick=0, channel=0, data=[72, 33]),
   midi.NoteOnEvent(tick=120, channel=0, data=[72, 0]),
   midi.NoteOnEvent(tick=0, channel=0, data=[74, 31]),
   midi.NoteOnEvent(tick=120, channel=0, data=[74, 0]),
   midi.NoteOnEvent(tick=0, channel=0, data=[75, 0]),
   midi.NoteOnEvent(tick=0, channel=0, data=[63, 0]),
   midi.NoteOnEvent(tick=0, channel=0, data=[63, 23]),
   midi.NoteOnEvent(tick=0, channel=0, data=[75, 40]),
   midi.NoteOnEvent(tick=240, channel=0, data=[74, 36]),
   midi.NoteOnEvent(tick=240, channel=0, data=[74, 0]),
   midi.NoteOnEvent(tick=0, channel=0, data=[75, 0]),
   midi.NoteOnEvent(tick=0, channel=0, data=[63, 0]),
   midi.NoteOnEvent(tick=0, channel=0, data=[63, 23]),
   midi.NoteOnEvent(tick=0, channel=0, data=[75, 23]),
   midi.NoteOnEvent(tick=0, channel=0, data=[72, 33]),
   midi.NoteOnEvent(tick=240, channel=0, data=[72, 0]),
   midi.NoteOnEvent(tick=0, channel=0, data=[75, 0]),
   midi.NoteOnEvent(tick=0, channel=0, data=[63, 0]),
   midi.NoteOnEvent(tick=0, channel=0, data=[63, 25]),
   midi.NoteOnEvent(tick=0, channel=0, data=[75, 25]),
   midi.NoteOnEvent(tick=0, channel=0, data=[70, 37]),
   midi.NoteOnEvent(tick=480, channel=0, data=[70, 0]),
   midi.NoteOnEvent(tick=0, channel=0, data=[75, 0]),
   midi.NoteOnEvent(tick=0, channel=0, data=[63, 0]),
   midi.NoteOnEvent(tick=0, channel=0, data=[63, 23]),
   midi.NoteOnEvent(tick=0, channel=0, data=[75, 23]),
   midi.NoteOnEvent(tick=0, channel=0, data=[69, 33]),
   midi.NoteOnEvent(tick=120, channel=0, data=[69, 0]),
   midi.NoteOnEvent(tick=0, channel=0, data=[67, 31]),
   midi.NoteOnEvent(tick=120, channel=0, data=[67, 0]),
   midi.NoteOnEvent(tick=0, channel=0, data=[75, 0]),
   midi.NoteOnEvent(tick=0, channel=0, data=[63, 0]),
   midi.NoteOnEvent(tick=0, channel=0, data=[63, 20]),
   midi.NoteOnEvent(tick=0, channel=0, data=[75, 28]),
   midi.NoteOnEvent(tick=0, channel=0, data=[69, 36]),
   midi.NoteOnEvent(tick=240, channel=0, data=[69, 0]),
   midi.NoteOnEvent(tick=0, channel=0, data=[70, 32]),
   midi.NoteOnEvent(tick=240, channel=0, data=[70, 0]),
   midi.NoteOnEvent(tick=0, channel=0, data=[75, 0]),
   midi.NoteOnEvent(tick=0, channel=0, data=[63, 0]),
   midi.NoteOnEvent(tick=0, channel=0, data=[62, 19]),
   midi.NoteOnEvent(tick=0, channel=0, data=[74, 24]),
   midi.NoteOnEvent(tick=0, channel=0, data=[72, 36]),
   midi.NoteOnEvent(tick=240, channel=0, data=[72, 0]),
   midi.NoteOnEvent(tick=0, channel=0, data=[74, 0]),
   midi.NoteOnEvent(tick=0, channel=0, data=[62, 0]),
   midi.NoteOnEvent(tick=0, channel=0, data=[70, 26]),
   midi.NoteOnEvent(tick=0, channel=0, data=[62, 26]),
   midi.NoteOnEvent(tick=0, channel=0, data=[74, 26]),
   midi.NoteOnEvent(tick=360, channel=0, data=[62, 0]),
   midi.NoteOnEvent(tick=0, channel=0, data=[70, 0]),
   midi.NoteOnEvent(tick=0, channel=0, data=[74, 24]),
   midi.NoteOnEvent(tick=120, channel=0, data=[74, 0]),
   midi.NoteOnEvent(tick=0, channel=0, data=[74, 0]),
   midi.NoteOnEvent(tick=0, channel=0, data=[82, 41]),
   midi.NoteOnEvent(tick=0, channel=0, data=[72, 23]),
   midi.NoteOnEvent(tick=120, channel=0, data=[72, 0]),
   midi.NoteOnEvent(tick=0, channel=0, data=[70, 32]),
   midi.NoteOnEvent(tick=120, channel=0, data=[70, 0]),
   midi.NoteOnEvent(tick=0, channel=0, data=[82, 0]),
   midi.NoteOnEvent(tick=0, channel=0, data=[75, 23]),
   midi.NoteOnEvent(tick=0, channel=0, data=[87, 44]),
   midi.NoteOnEvent(tick=360, channel=0, data=[87, 0]),
   midi.NoteOnEvent(tick=0, channel=0, data=[86, 39]),
   midi.NoteOnEvent(tick=120, channel=0, data=[86, 0]),
   midi.NoteOnEvent(tick=0, channel=0, data=[75, 0]),
   midi.NoteOnEvent(tick=0, channel=0, data=[87, 31]),
   midi.NoteOnEvent(tick=0, channel=0, data=[75, 31]),
   midi.NoteOnEvent(tick=120, channel=0, data=[87, 0]),
   midi.NoteOnEvent(tick=0, channel=0, data=[84, 36]),
   midi.NoteOnEvent(tick=120, channel=0, data=[84, 0]),
   midi.NoteOnEvent(tick=0, channel=0, data=[87, 34]),
   midi.NoteOnEvent(tick=120, channel=0, data=[87, 0]),
   midi.NoteOnEvent(tick=0, channel=0, data=[75, 0]),
   midi.NoteOnEvent(tick=0, channel=0, data=[74, 34]),
   midi.NoteOnEvent(tick=0, channel=0, data=[82, 44]),
   midi.NoteOnEvent(tick=120, channel=0, data=[74, 0]),
   midi.NoteOnEvent(tick=0, channel=0, data=[75, 23]),
   midi.NoteOnEvent(tick=120, channel=0, data=[75, 0]),
   midi.NoteOnEvent(tick=0, channel=0, data=[82, 0]),
   midi.NoteOnEvent(tick=0, channel=0, data=[72, 30]),
   midi.NoteOnEvent(tick=0, channel=0, data=[80, 39]),
   midi.NoteOnEvent(tick=120, channel=0, data=[72, 0]),
   midi.NoteOnEvent(tick=0, channel=0, data=[75, 26]),
   midi.NoteOnEvent(tick=120, channel=0, data=[75, 0]),
   midi.NoteOnEvent(tick=0, channel=0, data=[80, 0]),
   midi.NoteOnEvent(tick=0, channel=0, data=[70, 26]),
   midi.NoteOnEvent(tick=0, channel=0, data=[79, 37]),
   midi.NoteOnEvent(tick=120, channel=0, data=[79, 0]),
   midi.NoteOnEvent(tick=0, channel=0, data=[77, 36]),
   midi.NoteOnEvent(tick=120, channel=0, data=[77, 0]),
   midi.NoteOnEvent(tick=0, channel=0, data=[70, 0]),
   midi.NoteOnEvent(tick=0, channel=0, data=[68, 24]),
   midi.NoteOnEvent(tick=0, channel=0, data=[74, 36]),
   midi.NoteOnEvent(tick=120, channel=0, data=[74, 0]),
   midi.NoteOnEvent(tick=0, channel=0, data=[75, 37]),
   midi.NoteOnEvent(tick=120, channel=0, data=[75, 0]),
   midi.NoteOnEvent(tick=0, channel=0, data=[68, 0]),
   midi.NoteOnEvent(tick=0, channel=0, data=[67, 29]),
   midi.NoteOnEvent(tick=0, channel=0, data=[79, 38]),
   midi.NoteOnEvent(tick=120, channel=0, data=[79, 0]),
   midi.NoteOnEvent(tick=0, channel=0, data=[67, 0]),
   midi.NoteOnEvent(tick=0, channel=0, data=[82, 39]),
   midi.NoteOnEvent(tick=0, channel=0, data=[65, 26]),
   midi.NoteOnEvent(tick=120, channel=0, data=[65, 0]),
   midi.NoteOnEvent(tick=0, channel=0, data=[62, 30]),
   midi.NoteOnEvent(tick=120, channel=0, data=[62, 0]),
   midi.NoteOnEvent(tick=0, channel=0, data=[63, 28]),
   midi.NoteOnEvent(tick=120, channel=0, data=[63, 0]),
   midi.NoteOnEvent(tick=0, channel=0, data=[67, 33]),
   midi.NoteOnEvent(tick=120, channel=0, data=[67, 0]),
   midi.NoteOnEvent(tick=0, channel=0, data=[70, 44]),
   midi.NoteOnEvent(tick=120, channel=0, data=[82, 0]),
   midi.NoteOnEvent(tick=0, channel=0, data=[72, 47]),
   midi.NoteOnEvent(tick=120, channel=0, data=[72, 0]),
   midi.NoteOnEvent(tick=0, channel=0, data=[70, 0]),
   midi.NoteOnEvent(tick=0, channel=0, data=[74, 49]),
   midi.NoteOnEvent(tick=120, channel=0, data=[74, 0]),
   midi.NoteOnEvent(tick=0, channel=0, data=[77, 46]),
   midi.NoteOnEvent(tick=120, channel=0, data=[77, 0]),
   midi.NoteOnEvent(tick=0, channel=0, data=[63, 28]),
   midi.NoteOnEvent(tick=0, channel=0, data=[75, 52]),
   midi.NoteOnEvent(tick=240, channel=0, data=[74, 42]),
   midi.NoteOnEvent(tick=240, channel=0, data=[74, 0]),
   midi.NoteOnEvent(tick=0, channel=0, data=[75, 0]),
   midi.NoteOnEvent(tick=0, channel=0, data=[63, 0]),
   midi.NoteOnEvent(tick=0, channel=0, data=[63, 25]),
   midi.NoteOnEvent(tick=0, channel=0, data=[75, 25]),
   midi.NoteOnEvent(tick=0, channel=0, data=[72, 36]),
   midi.NoteOnEvent(tick=240, channel=0, data=[72, 0]),
   midi.NoteOnEvent(tick=0, channel=0, data=[75, 0]),
   midi.NoteOnEvent(tick=0, channel=0, data=[63, 0]),
   midi.NoteOnEvent(tick=0, channel=0, data=[70, 38]),
   midi.NoteOnEvent(tick=240, channel=0, data=[63, 23]),
   midi.NoteOnEvent(tick=0, channel=0, data=[75, 23]),
   midi.NoteOnEvent(tick=240, channel=0, data=[70, 0]),
   midi.NoteOnEvent(tick=0, channel=0, data=[68, 33]),
   midi.NoteOnEvent(tick=120, channel=0, data=[68, 0]),
   midi.NoteOnEvent(tick=0, channel=0, data=[67, 31]),
   midi.NoteOnEvent(tick=120, channel=0, data=[67, 0]),
   midi.NoteOnEvent(tick=0, channel=0, data=[75, 0]),
   midi.NoteOnEvent(tick=0, channel=0, data=[63, 0]),
   midi.NoteOnEvent(tick=0, channel=0, data=[75, 28]),
   midi.NoteOnEvent(tick=0, channel=0, data=[70, 36]),
   midi.NoteOnEvent(tick=240, channel=0, data=[70, 0]),
   midi.NoteOnEvent(tick=0, channel=0, data=[63, 32]),
   midi.NoteOnEvent(tick=240, channel=0, data=[63, 0]),
   midi.NoteOnEvent(tick=0, channel=0, data=[75, 0]),
   midi.NoteOnEvent(tick=0, channel=0, data=[67, 25]),
   midi.NoteOnEvent(tick=0, channel=0, data=[74, 21]),
   midi.NoteOnEvent(tick=120, channel=0, data=[67, 0]),
   midi.NoteOnEvent(tick=0, channel=0, data=[65, 32]),
   midi.NoteOnEvent(tick=540, channel=0, data=[65, 0]),
   midi.NoteOnEvent(tick=0, channel=0, data=[74, 0]),
   midi.NoteOnEvent(tick=60, channel=0, data=[63, 35]),
   midi.NoteOnEvent(tick=0, channel=0, data=[75, 35]),
   midi.NoteOnEvent(tick=0, channel=0, data=[72, 31]),
   midi.NoteOnEvent(tick=240, channel=0, data=[72, 0]),
   midi.NoteOnEvent(tick=0, channel=0, data=[70, 21]),
   midi.NoteOnEvent(tick=480, channel=0, data=[70, 0]),
   midi.NoteOnEvent(tick=0, channel=0, data=[75, 0]),
   midi.NoteOnEvent(tick=0, channel=0, data=[63, 0]),
   midi.NoteOnEvent(tick=0, channel=0, data=[63, 23]),
   midi.NoteOnEvent(tick=0, channel=0, data=[75, 23]),
   midi.NoteOnEvent(tick=0, channel=0, data=[69, 21]),
   midi.NoteOnEvent(tick=240, channel=0, data=[69, 0]),
   midi.NoteOnEvent(tick=0, channel=0, data=[68, 17]),
   midi.NoteOnEvent(tick=480, channel=0, data=[68, 0]),
   midi.NoteOnEvent(tick=0, channel=0, data=[75, 0]),
   midi.NoteOnEvent(tick=0, channel=0, data=[63, 0]),
   midi.NoteOnEvent(tick=0, channel=0, data=[63, 17]),
   midi.NoteOnEvent(tick=0, channel=0, data=[75, 17]),
   midi.NoteOnEvent(tick=0, channel=0, data=[67, 18]),
   midi.NoteOnEvent(tick=240, channel=0, data=[67, 0]),
   midi.NoteOnEvent(tick=0, channel=0, data=[63, 0]),
   midi.NoteOnEvent(tick=0, channel=0, data=[70, 21]),
   midi.NoteOnEvent(tick=240, channel=0, data=[70, 0]),
   midi.NoteOnEvent(tick=0, channel=0, data=[63, 21]),
   midi.NoteOnEvent(tick=240, channel=0, data=[63, 0]),
   midi.NoteOnEvent(tick=0, channel=0, data=[75, 0]),
   midi.NoteOnEvent(tick=0, channel=0, data=[74, 17]),
   midi.NoteOnEvent(tick=0, channel=0, data=[67, 19]),
   midi.NoteOnEvent(tick=120, channel=0, data=[67, 0]),
   midi.NoteOnEvent(tick=0, channel=0, data=[65, 18]),
   midi.NoteOnEvent(tick=720, channel=0, data=[65, 0]),
   midi.NoteOnEvent(tick=0, channel=0, data=[63, 17]),
   midi.NoteOnEvent(tick=120, channel=0, data=[63, 0]),
   midi.NoteOnEvent(tick=0, channel=0, data=[74, 0]),
   midi.NoteOnEvent(tick=0, channel=0, data=[63, 21]),
   midi.NoteOnEvent(tick=0, channel=0, data=[75, 24]),
   midi.NoteOnEvent(tick=480, channel=0, data=[75, 0]),
   midi.NoteOnEvent(tick=0, channel=0, data=[63, 0]),
   midi.NoteOnEvent(tick=240, channel=0, data=[46, 12]),
   midi.NoteOnEvent(tick=0, channel=0, data=[55, 15]),
   midi.NoteOnEvent(tick=0, channel=0, data=[58, 15]),
   midi.NoteOnEvent(tick=480, channel=0, data=[58, 0]),
   midi.NoteOnEvent(tick=0, channel=0, data=[55, 0]),
   midi.NoteOnEvent(tick=0, channel=0, data=[46, 0]),
   midi.NoteOnEvent(tick=240, channel=0, data=[67, 20]),
   midi.NoteOnEvent(tick=0, channel=0, data=[75, 24]),
   midi.NoteOnEvent(tick=0, channel=0, data=[79, 24]),
   midi.NoteOnEvent(tick=720, channel=0, data=[79, 0]),
   midi.NoteOnEvent(tick=0, channel=0, data=[75, 0]),
   midi.NoteOnEvent(tick=0, channel=0, data=[67, 0]),
   midi.EndOfTrackEvent(tick=0, data=[])]),
 midi.Track(\
  [midi.TrackNameEvent(tick=0, text='Piano left', data=[80, 105, 97, 110, 111, 32, 108, 101, 102, 116]),
   midi.ProgramChangeEvent(tick=0, channel=0, data=[0]),
   midi.NoteOnEvent(tick=1200, channel=0, data=[39, 25]),
   midi.NoteOnEvent(tick=240, channel=0, data=[39, 0]),
   midi.NoteOnEvent(tick=0, channel=0, data=[51, 19]),
   midi.NoteOnEvent(tick=0, channel=0, data=[55, 19]),
   midi.NoteOnEvent(tick=480, channel=0, data=[55, 0]),
   midi.NoteOnEvent(tick=0, channel=0, data=[51, 0]),
   midi.NoteOnEvent(tick=0, channel=0, data=[51, 19]),
   midi.NoteOnEvent(tick=0, channel=0, data=[55, 19]),
   midi.NoteOnEvent(tick=240, channel=0, data=[55, 0]),
   midi.NoteOnEvent(tick=0, channel=0, data=[51, 0]),
   midi.NoteOnEvent(tick=0, channel=0, data=[51, 21]),
   midi.NoteOnEvent(tick=0, channel=0, data=[55, 21]),
   midi.NoteOnEvent(tick=480, channel=0, data=[55, 0]),
   midi.NoteOnEvent(tick=0, channel=0, data=[51, 0]),
   midi.NoteOnEvent(tick=0, channel=0, data=[39, 23]),
   midi.NoteOnEvent(tick=240, channel=0, data=[39, 0]),
   midi.NoteOnEvent(tick=0, channel=0, data=[51, 23]),
   midi.NoteOnEvent(tick=0, channel=0, data=[55, 23]),
   midi.NoteOnEvent(tick=480, channel=0, data=[55, 0]),
   midi.NoteOnEvent(tick=0, channel=0, data=[51, 0]),
   midi.NoteOnEvent(tick=0, channel=0, data=[51, 20]),
   midi.NoteOnEvent(tick=0, channel=0, data=[55, 20]),
   midi.NoteOnEvent(tick=240, channel=0, data=[55, 0]),
   midi.NoteOnEvent(tick=0, channel=0, data=[51, 0]),
   midi.NoteOnEvent(tick=0, channel=0, data=[51, 18]),
   midi.NoteOnEvent(tick=0, channel=0, data=[55, 18]),
   midi.NoteOnEvent(tick=480, channel=0, data=[55, 0]),
   midi.NoteOnEvent(tick=0, channel=0, data=[51, 0]),
   midi.NoteOnEvent(tick=0, channel=0, data=[31, 23]),
   midi.NoteOnEvent(tick=240, channel=0, data=[31, 0]),
   midi.NoteOnEvent(tick=0, channel=0, data=[43, 16]),
   midi.NoteOnEvent(tick=0, channel=0, data=[51, 19]),
   midi.NoteOnEvent(tick=0, channel=0, data=[55, 19]),
   midi.NoteOnEvent(tick=480, channel=0, data=[55, 0]),
   midi.NoteOnEvent(tick=0, channel=0, data=[51, 0]),
   midi.NoteOnEvent(tick=0, channel=0, data=[43, 0]),
   midi.NoteOnEvent(tick=0, channel=0, data=[43, 16]),
   midi.NoteOnEvent(tick=0, channel=0, data=[51, 19]),
   midi.NoteOnEvent(tick=0, channel=0, data=[55, 19]),
   midi.NoteOnEvent(tick=240, channel=0, data=[55, 0]),
   midi.NoteOnEvent(tick=0, channel=0, data=[51, 0]),
   midi.NoteOnEvent(tick=0, channel=0, data=[43, 0]),
   midi.NoteOnEvent(tick=0, channel=0, data=[43, 17]),
   midi.NoteOnEvent(tick=0, channel=0, data=[51, 21]),
   midi.NoteOnEvent(tick=0, channel=0, data=[55, 21]),
   midi.NoteOnEvent(tick=480, channel=0, data=[55, 0]),
   midi.NoteOnEvent(tick=0, channel=0, data=[51, 0]),
   midi.NoteOnEvent(tick=0, channel=0, data=[43, 0]),
   midi.NoteOnEvent(tick=0, channel=0, data=[34, 23]),
   midi.NoteOnEvent(tick=240, channel=0, data=[34, 0]),
   midi.NoteOnEvent(tick=0, channel=0, data=[46, 23]),
   midi.NoteOnEvent(tick=0, channel=0, data=[55, 23]),
   midi.NoteOnEvent(tick=480, channel=0, data=[55, 0]),
   midi.NoteOnEvent(tick=0, channel=0, data=[46, 0]),
   midi.NoteOnEvent(tick=0, channel=0, data=[46, 18]),
   midi.NoteOnEvent(tick=0, channel=0, data=[56, 18]),
   midi.NoteOnEvent(tick=240, channel=0, data=[56, 0]),
   midi.NoteOnEvent(tick=0, channel=0, data=[46, 0]),
   midi.NoteOnEvent(tick=0, channel=0, data=[51, 16]),
   midi.NoteOnEvent(tick=0, channel=0, data=[55, 16]),
   midi.NoteOnEvent(tick=480, channel=0, data=[55, 0]),
   midi.NoteOnEvent(tick=0, channel=0, data=[51, 0]),
   midi.NoteOnEvent(tick=0, channel=0, data=[39, 23]),
   midi.NoteOnEvent(tick=240, channel=0, data=[39, 0]),
   midi.NoteOnEvent(tick=0, channel=0, data=[51, 19]),
   midi.NoteOnEvent(tick=0, channel=0, data=[60, 19]),
   midi.NoteOnEvent(tick=480, channel=0, data=[60, 0]),
   midi.NoteOnEvent(tick=0, channel=0, data=[51, 0]),
   midi.NoteOnEvent(tick=0, channel=0, data=[51, 19]),
   midi.NoteOnEvent(tick=0, channel=0, data=[56, 19]),
   midi.NoteOnEvent(tick=240, channel=0, data=[56, 0]),
   midi.NoteOnEvent(tick=0, channel=0, data=[51, 0]),
   midi.NoteOnEvent(tick=0, channel=0, data=[51, 21]),
   midi.NoteOnEvent(tick=0, channel=0, data=[58, 21]),
   midi.NoteOnEvent(tick=480, channel=0, data=[58, 0]),
   midi.NoteOnEvent(tick=0, channel=0, data=[51, 0]),
   midi.NoteOnEvent(tick=0, channel=0, data=[39, 23]),
   midi.NoteOnEvent(tick=240, channel=0, data=[39, 0]),
   midi.NoteOnEvent(tick=0, channel=0, data=[51, 19]),
   midi.NoteOnEvent(tick=0, channel=0, data=[60, 19]),
   midi.NoteOnEvent(tick=480, channel=0, data=[60, 0]),
   midi.NoteOnEvent(tick=0, channel=0, data=[51, 0]),
   midi.NoteOnEvent(tick=0, channel=0, data=[51, 19]),
   midi.NoteOnEvent(tick=0, channel=0, data=[56, 19]),
   midi.NoteOnEvent(tick=240, channel=0, data=[56, 0]),
   midi.NoteOnEvent(tick=0, channel=0, data=[51, 0]),
   midi.NoteOnEvent(tick=0, channel=0, data=[51, 19]),
   midi.NoteOnEvent(tick=0, channel=0, data=[58, 19]),
   midi.NoteOnEvent(tick=480, channel=0, data=[58, 0]),
   midi.NoteOnEvent(tick=0, channel=0, data=[51, 0]),
   midi.NoteOnEvent(tick=0, channel=0, data=[39, 29]),
   midi.NoteOnEvent(tick=0, channel=0, data=[51, 29]),
   midi.NoteOnEvent(tick=240, channel=0, data=[51, 0]),
   midi.NoteOnEvent(tick=0, channel=0, data=[39, 0]),
   midi.NoteOnEvent(tick=0, channel=0, data=[58, 30]),
   midi.NoteOnEvent(tick=0, channel=0, data=[46, 25]),
   midi.NoteOnEvent(tick=240, channel=0, data=[46, 0]),
   midi.NoteOnEvent(tick=0, channel=0, data=[58, 0]),
   midi.NoteOnEvent(tick=0, channel=0, data=[57, 35]),
   midi.NoteOnEvent(tick=0, channel=0, data=[45, 29]),
   midi.NoteOnEvent(tick=240, channel=0, data=[45, 0]),
   midi.NoteOnEvent(tick=0, channel=0, data=[57, 0]),
   midi.NoteOnEvent(tick=0, channel=0, data=[55, 39]),
   midi.NoteOnEvent(tick=0, channel=0, data=[43, 32]),
   midi.NoteOnEvent(tick=240, channel=0, data=[43, 0]),
   midi.NoteOnEvent(tick=0, channel=0, data=[55, 0]),
   midi.NoteOnEvent(tick=0, channel=0, data=[53, 39]),
   midi.NoteOnEvent(tick=0, channel=0, data=[41, 32]),
   midi.NoteOnEvent(tick=480, channel=0, data=[41, 0]),
   midi.NoteOnEvent(tick=0, channel=0, data=[53, 0]),
   midi.NoteOnEvent(tick=0, channel=0, data=[51, 42]),
   midi.NoteOnEvent(tick=0, channel=0, data=[39, 36]),
   midi.NoteOnEvent(tick=120, channel=0, data=[39, 0]),
   midi.NoteOnEvent(tick=0, channel=0, data=[51, 0]),
   midi.NoteOnEvent(tick=0, channel=0, data=[38, 37]),
   midi.NoteOnEvent(tick=0, channel=0, data=[50, 42]),
   midi.NoteOnEvent(tick=120, channel=0, data=[50, 0]),
   midi.NoteOnEvent(tick=0, channel=0, data=[38, 0]),
   midi.NoteOnEvent(tick=0, channel=0, data=[53, 41]),
   midi.NoteOnEvent(tick=0, channel=0, data=[41, 36]),
   midi.NoteOnEvent(tick=480, channel=0, data=[41, 0]),
   midi.NoteOnEvent(tick=0, channel=0, data=[53, 0]),
   midi.NoteOnEvent(tick=0, channel=0, data=[46, 23]),
   midi.NoteOnEvent(tick=0, channel=0, data=[34, 19]),
   midi.NoteOnEvent(tick=240, channel=0, data=[34, 0]),
   midi.NoteOnEvent(tick=0, channel=0, data=[46, 0]),
   midi.NoteOnEvent(tick=0, channel=0, data=[46, 27]),
   midi.NoteOnEvent(tick=0, channel=0, data=[34, 22]),
   midi.NoteOnEvent(tick=480, channel=0, data=[34, 0]),
   midi.NoteOnEvent(tick=0, channel=0, data=[46, 0]),
   midi.NoteOnEvent(tick=0, channel=0, data=[56, 23]),
   midi.NoteOnEvent(tick=0, channel=0, data=[46, 19]),
   midi.NoteOnEvent(tick=180, channel=0, data=[46, 0]),
   midi.NoteOnEvent(tick=0, channel=0, data=[56, 0]),
   midi.NoteOnEvent(tick=0, channel=0, data=[39, 19]),
   midi.NoteOnEvent(tick=60, channel=0, data=[55, 19]),
   midi.NoteOnEvent(tick=480, channel=0, data=[55, 0]),
   midi.NoteOnEvent(tick=0, channel=0, data=[39, 0]),
   midi.NoteOnEvent(tick=0, channel=0, data=[51, 19]),
   midi.NoteOnEvent(tick=0, channel=0, data=[55, 19]),
   midi.NoteOnEvent(tick=240, channel=0, data=[55, 0]),
   midi.NoteOnEvent(tick=0, channel=0, data=[51, 0]),
   midi.NoteOnEvent(tick=0, channel=0, data=[51, 21]),
   midi.NoteOnEvent(tick=0, channel=0, data=[55, 21]),
   midi.NoteOnEvent(tick=480, channel=0, data=[55, 0]),
   midi.NoteOnEvent(tick=0, channel=0, data=[51, 0]),
   midi.NoteOnEvent(tick=0, channel=0, data=[39, 23]),
   midi.NoteOnEvent(tick=240, channel=0, data=[39, 0]),
   midi.NoteOnEvent(tick=0, channel=0, data=[51, 23]),
   midi.NoteOnEvent(tick=0, channel=0, data=[55, 23]),
   midi.NoteOnEvent(tick=480, channel=0, data=[55, 0]),
   midi.NoteOnEvent(tick=0, channel=0, data=[51, 0]),
   midi.NoteOnEvent(tick=0, channel=0, data=[51, 20]),
   midi.NoteOnEvent(tick=0, channel=0, data=[55, 20]),
   midi.NoteOnEvent(tick=240, channel=0, data=[55, 0]),
   midi.NoteOnEvent(tick=0, channel=0, data=[51, 0]),
   midi.NoteOnEvent(tick=0, channel=0, data=[51, 18]),
   midi.NoteOnEvent(tick=0, channel=0, data=[55, 18]),
   midi.NoteOnEvent(tick=480, channel=0, data=[55, 0]),
   midi.NoteOnEvent(tick=0, channel=0, data=[51, 0]),
   midi.NoteOnEvent(tick=0, channel=0, data=[36, 23]),
   midi.NoteOnEvent(tick=240, channel=0, data=[36, 0]),
   midi.NoteOnEvent(tick=0, channel=0, data=[48, 16]),
   midi.NoteOnEvent(tick=0, channel=0, data=[55, 19]),
   midi.NoteOnEvent(tick=480, channel=0, data=[55, 0]),
   midi.NoteOnEvent(tick=0, channel=0, data=[48, 0]),
   midi.NoteOnEvent(tick=0, channel=0, data=[48, 16]),
   midi.NoteOnEvent(tick=0, channel=0, data=[55, 19]),
   midi.NoteOnEvent(tick=240, channel=0, data=[55, 0]),
   midi.NoteOnEvent(tick=0, channel=0, data=[48, 0]),
   midi.NoteOnEvent(tick=0, channel=0, data=[48, 17]),
   midi.NoteOnEvent(tick=0, channel=0, data=[55, 21]),
   midi.NoteOnEvent(tick=480, channel=0, data=[55, 0]),
   midi.NoteOnEvent(tick=0, channel=0, data=[48, 0]),
   midi.NoteOnEvent(tick=0, channel=0, data=[41, 23]),
   midi.NoteOnEvent(tick=240, channel=0, data=[41, 0]),
   midi.NoteOnEvent(tick=0, channel=0, data=[53, 23]),
   midi.NoteOnEvent(tick=0, channel=0, data=[60, 23]),
   midi.NoteOnEvent(tick=480, channel=0, data=[60, 0]),
   midi.NoteOnEvent(tick=0, channel=0, data=[53, 0]),
   midi.NoteOnEvent(tick=0, channel=0, data=[53, 20]),
   midi.NoteOnEvent(tick=0, channel=0, data=[57, 20]),
   midi.NoteOnEvent(tick=240, channel=0, data=[57, 0]),
   midi.NoteOnEvent(tick=0, channel=0, data=[53, 0]),
   midi.NoteOnEvent(tick=0, channel=0, data=[46, 20]),
   midi.NoteOnEvent(tick=0, channel=0, data=[58, 20]),
   midi.NoteOnEvent(tick=480, channel=0, data=[58, 0]),
   midi.NoteOnEvent(tick=0, channel=0, data=[46, 0]),
   midi.NoteOnEvent(tick=0, channel=0, data=[62, 16]),
   midi.NoteOnEvent(tick=0, channel=0, data=[58, 16]),
   midi.NoteOnEvent(tick=0, channel=0, data=[68, 19]),
   midi.NoteOnEvent(tick=180, channel=0, data=[68, 0]),
   midi.NoteOnEvent(tick=0, channel=0, data=[58, 0]),
   midi.NoteOnEvent(tick=0, channel=0, data=[62, 0]),
   midi.NoteOnEvent(tick=0, channel=0, data=[51, 19]),
   midi.NoteOnEvent(tick=30, channel=0, data=[58, 19]),
   midi.NoteOnEvent(tick=30, channel=0, data=[67, 19]),
   midi.NoteOnEvent(tick=420, channel=0, data=[67, 0]),
   midi.NoteOnEvent(tick=0, channel=0, data=[58, 0]),
   midi.NoteOnEvent(tick=0, channel=0, data=[51, 0]),
   midi.NoteOnEvent(tick=0, channel=0, data=[51, 19]),
   midi.NoteOnEvent(tick=30, channel=0, data=[58, 19]),
   midi.NoteOnEvent(tick=30, channel=0, data=[67, 19]),
   midi.NoteOnEvent(tick=480, channel=0, data=[67, 0]),
   midi.NoteOnEvent(tick=0, channel=0, data=[58, 0]),
   midi.NoteOnEvent(tick=0, channel=0, data=[51, 0]),
   midi.NoteOnEvent(tick=0, channel=0, data=[51, 16]),
   midi.NoteOnEvent(tick=0, channel=0, data=[58, 19]),
   midi.NoteOnEvent(tick=480, channel=0, data=[58, 0]),
   midi.NoteOnEvent(tick=0, channel=0, data=[51, 0]),
   midi.NoteOnEvent(tick=0, channel=0, data=[51, 16]),
   midi.NoteOnEvent(tick=0, channel=0, data=[58, 19]),
   midi.NoteOnEvent(tick=480, channel=0, data=[58, 0]),
   midi.NoteOnEvent(tick=0, channel=0, data=[51, 0]),
   midi.NoteOnEvent(tick=0, channel=0, data=[51, 16]),
   midi.NoteOnEvent(tick=0, channel=0, data=[55, 19]),
   midi.NoteOnEvent(tick=480, channel=0, data=[55, 0]),
   midi.NoteOnEvent(tick=0, channel=0, data=[51, 0]),
   midi.NoteOnEvent(tick=0, channel=0, data=[43, 16]),
   midi.NoteOnEvent(tick=0, channel=0, data=[51, 16]),
   midi.NoteOnEvent(tick=0, channel=0, data=[55, 19]),
   midi.NoteOnEvent(tick=480, channel=0, data=[55, 0]),
   midi.NoteOnEvent(tick=0, channel=0, data=[51, 0]),
   midi.NoteOnEvent(tick=0, channel=0, data=[43, 0]),
   midi.NoteOnEvent(tick=0, channel=0, data=[45, 16]),
   midi.NoteOnEvent(tick=0, channel=0, data=[51, 19]),
   midi.NoteOnEvent(tick=0, channel=0, data=[55, 19]),
   midi.NoteOnEvent(tick=480, channel=0, data=[55, 0]),
   midi.NoteOnEvent(tick=0, channel=0, data=[51, 0]),
   midi.NoteOnEvent(tick=0, channel=0, data=[45, 0]),
   midi.NoteOnEvent(tick=0, channel=0, data=[46, 16]),
   midi.NoteOnEvent(tick=0, channel=0, data=[51, 19]),
   midi.NoteOnEvent(tick=0, channel=0, data=[55, 19]),
   midi.NoteOnEvent(tick=480, channel=0, data=[55, 0]),
   midi.NoteOnEvent(tick=0, channel=0, data=[51, 0]),
   midi.NoteOnEvent(tick=0, channel=0, data=[46, 0]),
   midi.NoteOnEvent(tick=0, channel=0, data=[48, 17]),
   midi.NoteOnEvent(tick=0, channel=0, data=[51, 21]),
   midi.NoteOnEvent(tick=0, channel=0, data=[55, 21]),
   midi.NoteOnEvent(tick=480, channel=0, data=[55, 0]),
   midi.NoteOnEvent(tick=0, channel=0, data=[51, 0]),
   midi.NoteOnEvent(tick=0, channel=0, data=[48, 0]),
   midi.NoteOnEvent(tick=0, channel=0, data=[46, 23]),
   midi.NoteOnEvent(tick=0, channel=0, data=[55, 23]),
   midi.NoteOnEvent(tick=480, channel=0, data=[55, 0]),
   midi.NoteOnEvent(tick=0, channel=0, data=[46, 0]),
   midi.NoteOnEvent(tick=0, channel=0, data=[46, 18]),
   midi.NoteOnEvent(tick=0, channel=0, data=[56, 18]),
   midi.NoteOnEvent(tick=240, channel=0, data=[56, 0]),
   midi.NoteOnEvent(tick=0, channel=0, data=[46, 0]),
   midi.NoteOnEvent(tick=0, channel=0, data=[51, 16]),
   midi.NoteOnEvent(tick=0, channel=0, data=[55, 16]),
   midi.NoteOnEvent(tick=480, channel=0, data=[55, 0]),
   midi.NoteOnEvent(tick=0, channel=0, data=[51, 0]),
   midi.NoteOnEvent(tick=0, channel=0, data=[40, 19]),
   midi.NoteOnEvent(tick=0, channel=0, data=[52, 23]),
   midi.NoteOnEvent(tick=120, channel=0, data=[52, 0]),
   midi.NoteOnEvent(tick=0, channel=0, data=[40, 0]),
   midi.NoteOnEvent(tick=0, channel=0, data=[42, 21]),
   midi.NoteOnEvent(tick=0, channel=0, data=[54, 25]),
   midi.NoteOnEvent(tick=120, channel=0, data=[54, 0]),
   midi.NoteOnEvent(tick=0, channel=0, data=[42, 0]),
   midi.NoteOnEvent(tick=0, channel=0, data=[44, 23]),
   midi.NoteOnEvent(tick=0, channel=0, data=[56, 28]),
   midi.NoteOnEvent(tick=240, channel=0, data=[56, 0]),
   midi.NoteOnEvent(tick=0, channel=0, data=[44, 0]),
   midi.NoteOnEvent(tick=0, channel=0, data=[42, 20]),
   midi.NoteOnEvent(tick=0, channel=0, data=[54, 24]),
   midi.NoteOnEvent(tick=240, channel=0, data=[54, 0]),
   midi.NoteOnEvent(tick=0, channel=0, data=[42, 0]),
   midi.NoteOnEvent(tick=0, channel=0, data=[40, 14]),
   midi.NoteOnEvent(tick=0, channel=0, data=[52, 17]),
   midi.NoteOnEvent(tick=240, channel=0, data=[52, 0]),
   midi.NoteOnEvent(tick=0, channel=0, data=[40, 0]),
   midi.NoteOnEvent(tick=0, channel=0, data=[39, 14]),
   midi.NoteOnEvent(tick=0, channel=0, data=[51, 17]),
   midi.NoteOnEvent(tick=480, channel=0, data=[51, 0]),
   midi.NoteOnEvent(tick=0, channel=0, data=[39, 0]),
   midi.NoteOnEvent(tick=0, channel=0, data=[37, 19]),
   midi.NoteOnEvent(tick=0, channel=0, data=[49, 23]),
   midi.NoteOnEvent(tick=120, channel=0, data=[49, 0]),
   midi.NoteOnEvent(tick=0, channel=0, data=[37, 0]),
   midi.NoteOnEvent(tick=0, channel=0, data=[35, 21]),
   midi.NoteOnEvent(tick=0, channel=0, data=[47, 25]),
   midi.NoteOnEvent(tick=120, channel=0, data=[47, 0]),
   midi.NoteOnEvent(tick=0, channel=0, data=[35, 0]),
   midi.NoteOnEvent(tick=0, channel=0, data=[34, 23]),
   midi.NoteOnEvent(tick=0, channel=0, data=[46, 28]),
   midi.NoteOnEvent(tick=240, channel=0, data=[46, 0]),
   midi.NoteOnEvent(tick=0, channel=0, data=[34, 0]),
   midi.NoteOnEvent(tick=0, channel=0, data=[32, 20]),
   midi.NoteOnEvent(tick=0, channel=0, data=[44, 24]),
   midi.NoteOnEvent(tick=240, channel=0, data=[44, 0]),
   midi.NoteOnEvent(tick=0, channel=0, data=[32, 0]),
   midi.NoteOnEvent(tick=0, channel=0, data=[35, 16]),
   midi.NoteOnEvent(tick=0, channel=0, data=[47, 20]),
   midi.NoteOnEvent(tick=240, channel=0, data=[47, 0]),
   midi.NoteOnEvent(tick=0, channel=0, data=[35, 0]),
   midi.NoteOnEvent(tick=0, channel=0, data=[39, 17]),
   midi.NoteOnEvent(tick=480, channel=0, data=[39, 0]),
   midi.NoteOnEvent(tick=0, channel=0, data=[51, 19]),
   midi.NoteOnEvent(tick=0, channel=0, data=[61, 23]),
   midi.NoteOnEvent(tick=240, channel=0, data=[61, 0]),
   midi.NoteOnEvent(tick=0, channel=0, data=[51, 0]),
   midi.NoteOnEvent(tick=0, channel=0, data=[51, 23]),
   midi.NoteOnEvent(tick=0, channel=0, data=[59, 28]),
   midi.NoteOnEvent(tick=480, channel=0, data=[59, 0]),
   midi.NoteOnEvent(tick=0, channel=0, data=[51, 0]),
   midi.NoteOnEvent(tick=0, channel=0, data=[51, 14]),
   midi.NoteOnEvent(tick=0, channel=0, data=[56, 17]),
   midi.NoteOnEvent(tick=240, channel=0, data=[56, 0]),
   midi.NoteOnEvent(tick=0, channel=0, data=[51, 0]),
   midi.NoteOnEvent(tick=0, channel=0, data=[51, 14]),
   midi.NoteOnEvent(tick=0, channel=0, data=[63, 17]),
   midi.NoteOnEvent(tick=480, channel=0, data=[63, 0]),
   midi.NoteOnEvent(tick=0, channel=0, data=[51, 0]),
   midi.NoteOnEvent(tick=0, channel=0, data=[37, 19]),
   midi.NoteOnEvent(tick=0, channel=0, data=[49, 23]),
   midi.NoteOnEvent(tick=240, channel=0, data=[49, 0]),
   midi.NoteOnEvent(tick=0, channel=0, data=[37, 0]),
   midi.NoteOnEvent(tick=0, channel=0, data=[34, 23]),
   midi.NoteOnEvent(tick=0, channel=0, data=[46, 28]),
   midi.NoteOnEvent(tick=480, channel=0, data=[46, 0]),
   midi.NoteOnEvent(tick=0, channel=0, data=[34, 0]),
   midi.NoteOnEvent(tick=0, channel=0, data=[31, 14]),
   midi.NoteOnEvent(tick=0, channel=0, data=[43, 17]),
   midi.NoteOnEvent(tick=480, channel=0, data=[43, 0]),
   midi.NoteOnEvent(tick=0, channel=0, data=[31, 0]),
   midi.NoteOnEvent(tick=0, channel=0, data=[32, 11]),
   midi.NoteOnEvent(tick=0, channel=0, data=[44, 14]),
   midi.NoteOnEvent(tick=480, channel=0, data=[44, 0]),
   midi.NoteOnEvent(tick=0, channel=0, data=[32, 0]),
   midi.NoteOnEvent(tick=0, channel=0, data=[34, 16]),
   midi.NoteOnEvent(tick=120, channel=0, data=[34, 0]),
   midi.NoteOnEvent(tick=0, channel=0, data=[46, 16]),
   midi.NoteOnEvent(tick=120, channel=0, data=[46, 0]),
   midi.NoteOnEvent(tick=0, channel=0, data=[51, 15]),
   midi.NoteOnEvent(tick=120, channel=0, data=[51, 0]),
   midi.NoteOnEvent(tick=0, channel=0, data=[54, 16]),
   midi.NoteOnEvent(tick=120, channel=0, data=[54, 0]),
   midi.NoteOnEvent(tick=240, channel=0, data=[34, 19]),
   midi.NoteOnEvent(tick=120, channel=0, data=[34, 0]),
   midi.NoteOnEvent(tick=0, channel=0, data=[46, 19]),
   midi.NoteOnEvent(tick=120, channel=0, data=[46, 0]),
   midi.NoteOnEvent(tick=0, channel=0, data=[53, 17]),
   midi.NoteOnEvent(tick=120, channel=0, data=[53, 0]),
   midi.NoteOnEvent(tick=0, channel=0, data=[56, 17]),
   midi.NoteOnEvent(tick=120, channel=0, data=[56, 0]),
   midi.NoteOnEvent(tick=240, channel=0, data=[34, 16]),
   midi.NoteOnEvent(tick=120, channel=0, data=[34, 0]),
   midi.NoteOnEvent(tick=0, channel=0, data=[46, 16]),
   midi.NoteOnEvent(tick=120, channel=0, data=[46, 0]),
   midi.NoteOnEvent(tick=0, channel=0, data=[50, 15]),
   midi.NoteOnEvent(tick=120, channel=0, data=[50, 0]),
   midi.NoteOnEvent(tick=0, channel=0, data=[53, 16]),
   midi.NoteOnEvent(tick=120, channel=0, data=[53, 0]),
   midi.NoteOnEvent(tick=240, channel=0, data=[34, 19]),
   midi.NoteOnEvent(tick=120, channel=0, data=[34, 0]),
   midi.NoteOnEvent(tick=0, channel=0, data=[46, 19]),
   midi.NoteOnEvent(tick=120, channel=0, data=[46, 0]),
   midi.NoteOnEvent(tick=0, channel=0, data=[51, 17]),
   midi.NoteOnEvent(tick=120, channel=0, data=[51, 0]),
   midi.NoteOnEvent(tick=0, channel=0, data=[54, 17]),
   midi.NoteOnEvent(tick=120, channel=0, data=[54, 0]),
   midi.NoteOnEvent(tick=240, channel=0, data=[34, 18]),
   midi.NoteOnEvent(tick=120, channel=0, data=[34, 0]),
   midi.NoteOnEvent(tick=0, channel=0, data=[46, 16]),
   midi.NoteOnEvent(tick=120, channel=0, data=[46, 0]),
   midi.NoteOnEvent(tick=0, channel=0, data=[47, 14]),
   midi.NoteOnEvent(tick=120, channel=0, data=[47, 0]),
   midi.NoteOnEvent(tick=0, channel=0, data=[51, 14]),
   midi.NoteOnEvent(tick=120, channel=0, data=[51, 0]),
   midi.NoteOnEvent(tick=240, channel=0, data=[32, 16]),
   midi.NoteOnEvent(tick=120, channel=0, data=[32, 0]),
   midi.NoteOnEvent(tick=0, channel=0, data=[44, 16]),
   midi.NoteOnEvent(tick=120, channel=0, data=[44, 0]),
   midi.NoteOnEvent(tick=0, channel=0, data=[47, 15]),
   midi.NoteOnEvent(tick=120, channel=0, data=[47, 0]),
   midi.NoteOnEvent(tick=0, channel=0, data=[51, 15]),
   midi.NoteOnEvent(tick=120, channel=0, data=[51, 0]),
   midi.NoteOnEvent(tick=240, channel=0, data=[32, 18]),
   midi.NoteOnEvent(tick=120, channel=0, data=[32, 0]),
   midi.NoteOnEvent(tick=0, channel=0, data=[44, 18]),
   midi.NoteOnEvent(tick=120, channel=0, data=[44, 0]),
   midi.NoteOnEvent(tick=0, channel=0, data=[46, 16]),
   midi.NoteOnEvent(tick=120, channel=0, data=[46, 0]),
   midi.NoteOnEvent(tick=0, channel=0, data=[49, 16]),
   midi.NoteOnEvent(tick=120, channel=0, data=[49, 0]),
   midi.NoteOnEvent(tick=240, channel=0, data=[30, 18]),
   midi.NoteOnEvent(tick=120, channel=0, data=[30, 0]),
   midi.NoteOnEvent(tick=0, channel=0, data=[42, 18]),
   midi.NoteOnEvent(tick=120, channel=0, data=[42, 0]),
   midi.NoteOnEvent(tick=0, channel=0, data=[46, 17]),
   midi.NoteOnEvent(tick=120, channel=0, data=[46, 0]),
   midi.NoteOnEvent(tick=0, channel=0, data=[49, 17]),
   midi.NoteOnEvent(tick=120, channel=0, data=[49, 0]),
   midi.NoteOnEvent(tick=240, channel=0, data=[30, 14]),
   midi.NoteOnEvent(tick=120, channel=0, data=[30, 0]),
   midi.NoteOnEvent(tick=0, channel=0, data=[42, 14]),
   midi.NoteOnEvent(tick=120, channel=0, data=[42, 0]),
   midi.NoteOnEvent(tick=0, channel=0, data=[46, 13]),
   midi.NoteOnEvent(tick=120, channel=0, data=[46, 0]),
   midi.NoteOnEvent(tick=0, channel=0, data=[48, 14]),
   midi.NoteOnEvent(tick=120, channel=0, data=[48, 0]),
   midi.NoteOnEvent(tick=240, channel=0, data=[29, 18]),
   midi.NoteOnEvent(tick=120, channel=0, data=[29, 0]),
   midi.NoteOnEvent(tick=0, channel=0, data=[41, 17]),
   midi.NoteOnEvent(tick=120, channel=0, data=[41, 0]),
   midi.NoteOnEvent(tick=0, channel=0, data=[46, 15]),
   midi.NoteOnEvent(tick=120, channel=0, data=[46, 0]),
   midi.NoteOnEvent(tick=0, channel=0, data=[48, 15]),
   midi.NoteOnEvent(tick=120, channel=0, data=[48, 0]),
   midi.NoteOnEvent(tick=240, channel=0, data=[41, 17]),
   midi.NoteOnEvent(tick=0, channel=0, data=[45, 17]),
   midi.NoteOnEvent(tick=0, channel=0, data=[53, 21]),
   midi.NoteOnEvent(tick=0, channel=0, data=[51, 17]),
   midi.NoteOnEvent(tick=240, channel=0, data=[49, 17]),
   midi.NoteOnEvent(tick=240, channel=0, data=[49, 0]),
   midi.NoteOnEvent(tick=0, channel=0, data=[48, 17]),
   midi.NoteOnEvent(tick=240, channel=0, data=[48, 0]),
   midi.NoteOnEvent(tick=0, channel=0, data=[51, 0]),
   midi.NoteOnEvent(tick=0, channel=0, data=[41, 0]),
   midi.NoteOnEvent(tick=0, channel=0, data=[45, 0]),
   midi.NoteOnEvent(tick=0, channel=0, data=[53, 0]),
   midi.NoteOnEvent(tick=0, channel=0, data=[51, 17]),
   midi.NoteOnEvent(tick=0, channel=0, data=[41, 17]),
   midi.NoteOnEvent(tick=0, channel=0, data=[46, 17]),
   midi.NoteOnEvent(tick=0, channel=0, data=[53, 21]),
   midi.NoteOnEvent(tick=480, channel=0, data=[51, 0]),
   midi.NoteOnEvent(tick=0, channel=0, data=[49, 16]),
   midi.NoteOnEvent(tick=240, channel=0, data=[49, 0]),
   midi.NoteOnEvent(tick=0, channel=0, data=[53, 0]),
   midi.NoteOnEvent(tick=0, channel=0, data=[46, 0]),
   midi.NoteOnEvent(tick=0, channel=0, data=[41, 0]),
   midi.NoteOnEvent(tick=0, channel=0, data=[30, 32]),
   midi.NoteOnEvent(tick=120, channel=0, data=[30, 0]),
   midi.NoteOnEvent(tick=0, channel=0, data=[42, 20]),
   midi.NoteOnEvent(tick=120, channel=0, data=[42, 0]),
   midi.NoteOnEvent(tick=0, channel=0, data=[46, 19]),
   midi.NoteOnEvent(tick=120, channel=0, data=[46, 0]),
   midi.NoteOnEvent(tick=0, channel=0, data=[48, 20]),
   midi.NoteOnEvent(tick=120, channel=0, data=[48, 0]),
   midi.NoteOnEvent(tick=240, channel=0, data=[24, 38]),
   midi.NoteOnEvent(tick=120, channel=0, data=[24, 0]),
   midi.NoteOnEvent(tick=0, channel=0, data=[36, 27]),
   midi.NoteOnEvent(tick=120, channel=0, data=[36, 0]),
   midi.NoteOnEvent(tick=0, channel=0, data=[39, 23]),
   midi.NoteOnEvent(tick=120, channel=0, data=[39, 0]),
   midi.NoteOnEvent(tick=0, channel=0, data=[46, 23]),
   midi.NoteOnEvent(tick=120, channel=0, data=[46, 0]),
   midi.NoteOnEvent(tick=240, channel=0, data=[41, 17]),
   midi.NoteOnEvent(tick=0, channel=0, data=[45, 17]),
   midi.NoteOnEvent(tick=0, channel=0, data=[53, 21]),
   midi.NoteOnEvent(tick=0, channel=0, data=[51, 17]),
   midi.NoteOnEvent(tick=240, channel=0, data=[49, 17]),
   midi.NoteOnEvent(tick=240, channel=0, data=[49, 0]),
   midi.NoteOnEvent(tick=0, channel=0, data=[48, 17]),
   midi.NoteOnEvent(tick=240, channel=0, data=[48, 0]),
   midi.NoteOnEvent(tick=0, channel=0, data=[51, 0]),
   midi.NoteOnEvent(tick=0, channel=0, data=[41, 0]),
   midi.NoteOnEvent(tick=0, channel=0, data=[45, 0]),
   midi.NoteOnEvent(tick=0, channel=0, data=[53, 0]),
   midi.NoteOnEvent(tick=0, channel=0, data=[44, 15]),
   midi.NoteOnEvent(tick=0, channel=0, data=[46, 15]),
   midi.NoteOnEvent(tick=0, channel=0, data=[56, 18]),
   midi.NoteOnEvent(tick=0, channel=0, data=[50, 15]),
   midi.NoteOnEvent(tick=240, channel=0, data=[56, 0]),
   midi.NoteOnEvent(tick=0, channel=0, data=[44, 0]),
   midi.NoteOnEvent(tick=0, channel=0, data=[42, 11]),
   midi.NoteOnEvent(tick=0, channel=0, data=[54, 14]),
   midi.NoteOnEvent(tick=240, channel=0, data=[54, 0]),
   midi.NoteOnEvent(tick=0, channel=0, data=[42, 0]),
   midi.NoteOnEvent(tick=0, channel=0, data=[41, 11]),
   midi.NoteOnEvent(tick=0, channel=0, data=[53, 13]),
   midi.NoteOnEvent(tick=240, channel=0, data=[53, 0]),
   midi.NoteOnEvent(tick=0, channel=0, data=[50, 0]),
   midi.NoteOnEvent(tick=0, channel=0, data=[46, 0]),
   midi.NoteOnEvent(tick=0, channel=0, data=[41, 0]),
   midi.NoteOnEvent(tick=0, channel=0, data=[39, 18]),
   midi.NoteOnEvent(tick=120, channel=0, data=[39, 0]),
   midi.NoteOnEvent(tick=0, channel=0, data=[46, 18]),
   midi.NoteOnEvent(tick=120, channel=0, data=[46, 0]),
   midi.NoteOnEvent(tick=0, channel=0, data=[51, 17]),
   midi.NoteOnEvent(tick=120, channel=0, data=[51, 0]),
   midi.NoteOnEvent(tick=0, channel=0, data=[54, 18]),
   midi.NoteOnEvent(tick=120, channel=0, data=[54, 0]),
   midi.NoteOnEvent(tick=240, channel=0, data=[32, 21]),
   midi.NoteOnEvent(tick=120, channel=0, data=[32, 0]),
   midi.NoteOnEvent(tick=0, channel=0, data=[44, 21]),
   midi.NoteOnEvent(tick=120, channel=0, data=[44, 0]),
   midi.NoteOnEvent(tick=0, channel=0, data=[47, 19]),
   midi.NoteOnEvent(tick=120, channel=0, data=[47, 0]),
   midi.NoteOnEvent(tick=0, channel=0, data=[52, 19]),
   midi.NoteOnEvent(tick=120, channel=0, data=[52, 0]),
   midi.NoteOnEvent(tick=240, channel=0, data=[34, 18]),
   midi.NoteOnEvent(tick=120, channel=0, data=[34, 0]),
   midi.NoteOnEvent(tick=0, channel=0, data=[46, 18]),
   midi.NoteOnEvent(tick=120, channel=0, data=[46, 0]),
   midi.NoteOnEvent(tick=0, channel=0, data=[49, 17]),
   midi.NoteOnEvent(tick=120, channel=0, data=[49, 0]),
   midi.NoteOnEvent(tick=0, channel=0, data=[52, 18]),
   midi.NoteOnEvent(tick=120, channel=0, data=[52, 0]),
   midi.NoteOnEvent(tick=240, channel=0, data=[39, 21]),
   midi.NoteOnEvent(tick=120, channel=0, data=[39, 0]),
   midi.NoteOnEvent(tick=0, channel=0, data=[46, 21]),
   midi.NoteOnEvent(tick=120, channel=0, data=[46, 0]),
   midi.NoteOnEvent(tick=0, channel=0, data=[51, 19]),
   midi.NoteOnEvent(tick=120, channel=0, data=[51, 0]),
   midi.NoteOnEvent(tick=0, channel=0, data=[55, 19]),
   midi.NoteOnEvent(tick=120, channel=0, data=[55, 0]),
   midi.NoteOnEvent(tick=240, channel=0, data=[32, 20]),
   midi.NoteOnEvent(tick=120, channel=0, data=[32, 0]),
   midi.NoteOnEvent(tick=0, channel=0, data=[39, 18]),
   midi.NoteOnEvent(tick=120, channel=0, data=[39, 0]),
   midi.NoteOnEvent(tick=0, channel=0, data=[44, 16]),
   midi.NoteOnEvent(tick=120, channel=0, data=[44, 0]),
   midi.NoteOnEvent(tick=0, channel=0, data=[48, 16]),
   midi.NoteOnEvent(tick=120, channel=0, data=[48, 0]),
   midi.NoteOnEvent(tick=240, channel=0, data=[32, 18]),
   midi.NoteOnEvent(tick=120, channel=0, data=[32, 0]),
   midi.NoteOnEvent(tick=0, channel=0, data=[39, 18]),
   midi.NoteOnEvent(tick=120, channel=0, data=[39, 0]),
   midi.NoteOnEvent(tick=0, channel=0, data=[44, 17]),
   midi.NoteOnEvent(tick=120, channel=0, data=[44, 0]),
   midi.NoteOnEvent(tick=0, channel=0, data=[47, 17]),
   midi.NoteOnEvent(tick=120, channel=0, data=[47, 0]),
   midi.NoteOnEvent(tick=240, channel=0, data=[34, 20]),
   midi.NoteOnEvent(tick=120, channel=0, data=[34, 0]),
   midi.NoteOnEvent(tick=0, channel=0, data=[46, 20]),
   midi.NoteOnEvent(tick=120, channel=0, data=[46, 0]),
   midi.NoteOnEvent(tick=0, channel=0, data=[49, 18]),
   midi.NoteOnEvent(tick=120, channel=0, data=[49, 0]),
   midi.NoteOnEvent(tick=0, channel=0, data=[52, 18]),
   midi.NoteOnEvent(tick=120, channel=0, data=[52, 0]),
   midi.NoteOnEvent(tick=240, channel=0, data=[31, 20]),
   midi.NoteOnEvent(tick=120, channel=0, data=[31, 0]),
   midi.NoteOnEvent(tick=0, channel=0, data=[43, 20]),
   midi.NoteOnEvent(tick=120, channel=0, data=[43, 0]),
   midi.NoteOnEvent(tick=0, channel=0, data=[46, 19]),
   midi.NoteOnEvent(tick=120, channel=0, data=[46, 0]),
   midi.NoteOnEvent(tick=0, channel=0, data=[51, 19]),
   midi.NoteOnEvent(tick=120, channel=0, data=[51, 0]),
   midi.NoteOnEvent(tick=240, channel=0, data=[32, 16]),
   midi.NoteOnEvent(tick=120, channel=0, data=[32, 0]),
   midi.NoteOnEvent(tick=0, channel=0, data=[39, 16]),
   midi.NoteOnEvent(tick=120, channel=0, data=[39, 0]),
   midi.NoteOnEvent(tick=0, channel=0, data=[44, 14]),
   midi.NoteOnEvent(tick=120, channel=0, data=[44, 0]),
   midi.NoteOnEvent(tick=0, channel=0, data=[47, 16]),
   midi.NoteOnEvent(tick=120, channel=0, data=[47, 0]),
   midi.NoteOnEvent(tick=240, channel=0, data=[30, 20]),
   midi.NoteOnEvent(tick=120, channel=0, data=[30, 0]),
   midi.NoteOnEvent(tick=0, channel=0, data=[39, 19]),
   midi.NoteOnEvent(tick=120, channel=0, data=[39, 0]),
   midi.NoteOnEvent(tick=0, channel=0, data=[42, 17]),
   midi.NoteOnEvent(tick=120, channel=0, data=[42, 0]),
   midi.NoteOnEvent(tick=0, channel=0, data=[46, 17]),
   midi.NoteOnEvent(tick=120, channel=0, data=[46, 0]),
   midi.NoteOnEvent(tick=240, channel=0, data=[46, 17]),
   midi.NoteOnEvent(tick=0, channel=0, data=[56, 21]),
   midi.NoteOnEvent(tick=0, channel=0, data=[50, 17]),
   midi.NoteOnEvent(tick=240, channel=0, data=[54, 17]),
   midi.NoteOnEvent(tick=240, channel=0, data=[54, 0]),
   midi.NoteOnEvent(tick=0, channel=0, data=[53, 17]),
   midi.NoteOnEvent(tick=240, channel=0, data=[53, 0]),
   midi.NoteOnEvent(tick=0, channel=0, data=[50, 0]),
   midi.NoteOnEvent(tick=0, channel=0, data=[56, 0]),
   midi.NoteOnEvent(tick=0, channel=0, data=[46, 0]),
   midi.NoteOnEvent(tick=0, channel=0, data=[56, 17]),
   midi.NoteOnEvent(tick=0, channel=0, data=[46, 17]),
   midi.NoteOnEvent(tick=0, channel=0, data=[51, 21]),
   midi.NoteOnEvent(tick=480, channel=0, data=[56, 0]),
   midi.NoteOnEvent(tick=0, channel=0, data=[54, 16]),
   midi.NoteOnEvent(tick=240, channel=0, data=[54, 0]),
   midi.NoteOnEvent(tick=0, channel=0, data=[51, 0]),
   midi.NoteOnEvent(tick=0, channel=0, data=[46, 0]),
   midi.NoteOnEvent(tick=0, channel=0, data=[32, 27]),
   midi.NoteOnEvent(tick=120, channel=0, data=[32, 0]),
   midi.NoteOnEvent(tick=0, channel=0, data=[44, 18]),
   midi.NoteOnEvent(tick=120, channel=0, data=[44, 0]),
   midi.NoteOnEvent(tick=0, channel=0, data=[47, 17]),
   midi.NoteOnEvent(tick=120, channel=0, data=[47, 0]),
   midi.NoteOnEvent(tick=0, channel=0, data=[52, 18]),
   midi.NoteOnEvent(tick=120, channel=0, data=[52, 0]),
   midi.NoteOnEvent(tick=240, channel=0, data=[34, 26]),
   midi.NoteOnEvent(tick=120, channel=0, data=[34, 0]),
   midi.NoteOnEvent(tick=0, channel=0, data=[42, 21]),
   midi.NoteOnEvent(tick=120, channel=0, data=[42, 0]),
   midi.NoteOnEvent(tick=0, channel=0, data=[46, 18]),
   midi.NoteOnEvent(tick=120, channel=0, data=[46, 0]),
   midi.NoteOnEvent(tick=0, channel=0, data=[51, 17]),
   midi.NoteOnEvent(tick=120, channel=0, data=[51, 0]),
   midi.NoteOnEvent(tick=240, channel=0, data=[44, 17]),
   midi.NoteOnEvent(tick=0, channel=0, data=[46, 21]),
   midi.NoteOnEvent(tick=480, channel=0, data=[44, 0]),
   midi.NoteOnEvent(tick=0, channel=0, data=[42, 17]),
   midi.NoteOnEvent(tick=240, channel=0, data=[46, 0]),
   midi.NoteOnEvent(tick=0, channel=0, data=[46, 17]),
   midi.NoteOnEvent(tick=240, channel=0, data=[42, 0]),
   midi.NoteOnEvent(tick=0, channel=0, data=[41, 17]),
   midi.NoteOnEvent(tick=480, channel=0, data=[41, 0]),
   midi.NoteOnEvent(tick=0, channel=0, data=[46, 0]),
   midi.NoteOnEvent(tick=0, channel=0, data=[49, 14]),
   midi.NoteOnEvent(tick=0, channel=0, data=[39, 17]),
   midi.NoteOnEvent(tick=480, channel=0, data=[49, 0]),
   midi.NoteOnEvent(tick=0, channel=0, data=[47, 13]),
   midi.NoteOnEvent(tick=240, channel=0, data=[39, 0]),
   midi.NoteOnEvent(tick=0, channel=0, data=[39, 15]),
   midi.NoteOnEvent(tick=240, channel=0, data=[47, 0]),
   midi.NoteOnEvent(tick=0, channel=0, data=[46, 12]),
   midi.NoteOnEvent(tick=150, channel=0, data=[46, 0]),
   midi.NoteOnEvent(tick=270, channel=0, data=[39, 17]),
   midi.NoteOnEvent(tick=30, channel=0, data=[46, 17]),
   midi.NoteOnEvent(tick=30, channel=0, data=[39, 0]),
   midi.NoteOnEvent(tick=0, channel=0, data=[55, 17]),
   midi.NoteOnEvent(tick=480, channel=0, data=[55, 0]),
   midi.NoteOnEvent(tick=0, channel=0, data=[46, 0]),
   midi.NoteOnEvent(tick=0, channel=0, data=[39, 0]),
   midi.NoteOnEvent(tick=720, channel=0, data=[46, 23]),
   midi.NoteOnEvent(tick=0, channel=0, data=[39, 23]),
   midi.NoteOnEvent(tick=240, channel=0, data=[39, 0]),
   midi.NoteOnEvent(tick=0, channel=0, data=[46, 0]),
   midi.NoteOnEvent(tick=0, channel=0, data=[39, 23]),
   midi.NoteOnEvent(tick=0, channel=0, data=[46, 23]),
   midi.NoteOnEvent(tick=0, channel=0, data=[53, 23]),
   midi.NoteOnEvent(tick=240, channel=0, data=[53, 0]),
   midi.NoteOnEvent(tick=0, channel=0, data=[46, 0]),
   midi.NoteOnEvent(tick=0, channel=0, data=[39, 0]),
   midi.NoteOnEvent(tick=0, channel=0, data=[51, 23]),
   midi.NoteOnEvent(tick=240, channel=0, data=[51, 0]),
   midi.NoteOnEvent(tick=720, channel=0, data=[43, 21]),
   midi.NoteOnEvent(tick=0, channel=0, data=[51, 26]),
   midi.NoteOnEvent(tick=240, channel=0, data=[51, 0]),
   midi.NoteOnEvent(tick=0, channel=0, data=[43, 0]),
   midi.NoteOnEvent(tick=0, channel=0, data=[43, 18]),
   midi.NoteOnEvent(tick=0, channel=0, data=[51, 21]),
   midi.NoteOnEvent(tick=480, channel=0, data=[51, 0]),
   midi.NoteOnEvent(tick=0, channel=0, data=[43, 0]),
   midi.NoteOnEvent(tick=720, channel=0, data=[34, 23]),
   midi.NoteOnEvent(tick=0, channel=0, data=[46, 26]),
   midi.NoteOnEvent(tick=240, channel=0, data=[46, 0]),
   midi.NoteOnEvent(tick=0, channel=0, data=[34, 0]),
   midi.NoteOnEvent(tick=0, channel=0, data=[51, 26]),
   midi.NoteOnEvent(tick=0, channel=0, data=[46, 26]),
   midi.NoteOnEvent(tick=0, channel=0, data=[55, 26]),
   midi.NoteOnEvent(tick=480, channel=0, data=[55, 0]),
   midi.NoteOnEvent(tick=0, channel=0, data=[46, 0]),
   midi.NoteOnEvent(tick=0, channel=0, data=[51, 0]),
   midi.NoteOnEvent(tick=0, channel=0, data=[34, 20]),
   midi.NoteOnEvent(tick=0, channel=0, data=[46, 20]),
   midi.NoteOnEvent(tick=240, channel=0, data=[46, 0]),
   midi.NoteOnEvent(tick=0, channel=0, data=[34, 0]),
   midi.NoteOnEvent(tick=0, channel=0, data=[39, 18]),
   midi.NoteOnEvent(tick=0, channel=0, data=[46, 18]),
   midi.NoteOnEvent(tick=480, channel=0, data=[46, 0]),
   midi.NoteOnEvent(tick=0, channel=0, data=[39, 0]),
   midi.NoteOnEvent(tick=0, channel=0, data=[39, 26]),
   midi.NoteOnEvent(tick=240, channel=0, data=[39, 0]),
   midi.NoteOnEvent(tick=0, channel=0, data=[51, 21]),
   midi.NoteOnEvent(tick=0, channel=0, data=[60, 21]),
   midi.NoteOnEvent(tick=480, channel=0, data=[60, 0]),
   midi.NoteOnEvent(tick=0, channel=0, data=[51, 0]),
   midi.NoteOnEvent(tick=0, channel=0, data=[51, 21]),
   midi.NoteOnEvent(tick=0, channel=0, data=[56, 21]),
   midi.NoteOnEvent(tick=240, channel=0, data=[56, 0]),
   midi.NoteOnEvent(tick=0, channel=0, data=[51, 0]),
   midi.NoteOnEvent(tick=0, channel=0, data=[51, 24]),
   midi.NoteOnEvent(tick=0, channel=0, data=[58, 24]),
   midi.NoteOnEvent(tick=480, channel=0, data=[58, 0]),
   midi.NoteOnEvent(tick=0, channel=0, data=[51, 0]),
   midi.NoteOnEvent(tick=0, channel=0, data=[39, 26]),
   midi.NoteOnEvent(tick=240, channel=0, data=[39, 0]),
   midi.NoteOnEvent(tick=0, channel=0, data=[51, 21]),
   midi.NoteOnEvent(tick=0, channel=0, data=[60, 21]),
   midi.NoteOnEvent(tick=480, channel=0, data=[60, 0]),
   midi.NoteOnEvent(tick=0, channel=0, data=[51, 0]),
   midi.NoteOnEvent(tick=0, channel=0, data=[51, 21]),
   midi.NoteOnEvent(tick=0, channel=0, data=[56, 21]),
   midi.NoteOnEvent(tick=240, channel=0, data=[56, 0]),
   midi.NoteOnEvent(tick=0, channel=0, data=[51, 0]),
   midi.NoteOnEvent(tick=0, channel=0, data=[51, 21]),
   midi.NoteOnEvent(tick=0, channel=0, data=[58, 21]),
   midi.NoteOnEvent(tick=480, channel=0, data=[58, 0]),
   midi.NoteOnEvent(tick=0, channel=0, data=[51, 0]),
   midi.NoteOnEvent(tick=0, channel=0, data=[39, 35]),
   midi.NoteOnEvent(tick=0, channel=0, data=[51, 35]),
   midi.NoteOnEvent(tick=240, channel=0, data=[51, 0]),
   midi.NoteOnEvent(tick=0, channel=0, data=[39, 0]),
   midi.NoteOnEvent(tick=0, channel=0, data=[58, 34]),
   midi.NoteOnEvent(tick=0, channel=0, data=[46, 27]),
   midi.NoteOnEvent(tick=240, channel=0, data=[46, 0]),
   midi.NoteOnEvent(tick=0, channel=0, data=[58, 0]),
   midi.NoteOnEvent(tick=0, channel=0, data=[57, 37]),
   midi.NoteOnEvent(tick=0, channel=0, data=[45, 31]),
   midi.NoteOnEvent(tick=240, channel=0, data=[45, 0]),
   midi.NoteOnEvent(tick=0, channel=0, data=[57, 0]),
   midi.NoteOnEvent(tick=0, channel=0, data=[46, 34]),
   midi.NoteOnEvent(tick=0, channel=0, data=[55, 41]),
   midi.NoteOnEvent(tick=0, channel=0, data=[43, 34]),
   midi.NoteOnEvent(tick=240, channel=0, data=[43, 0]),
   midi.NoteOnEvent(tick=0, channel=0, data=[55, 0]),
   midi.NoteOnEvent(tick=0, channel=0, data=[46, 0]),
   midi.NoteOnEvent(tick=0, channel=0, data=[46, 42]),
   midi.NoteOnEvent(tick=0, channel=0, data=[53, 53]),
   midi.NoteOnEvent(tick=0, channel=0, data=[41, 42]),
   midi.NoteOnEvent(tick=480, channel=0, data=[41, 0]),
   midi.NoteOnEvent(tick=0, channel=0, data=[53, 0]),
   midi.NoteOnEvent(tick=0, channel=0, data=[46, 0]),
   midi.NoteOnEvent(tick=0, channel=0, data=[51, 46]),
   midi.NoteOnEvent(tick=0, channel=0, data=[39, 40]),
   midi.NoteOnEvent(tick=120, channel=0, data=[39, 0]),
   midi.NoteOnEvent(tick=0, channel=0, data=[51, 0]),
   midi.NoteOnEvent(tick=0, channel=0, data=[38, 41]),
   midi.NoteOnEvent(tick=0, channel=0, data=[50, 47]),
   midi.NoteOnEvent(tick=120, channel=0, data=[50, 0]),
   midi.NoteOnEvent(tick=0, channel=0, data=[38, 0]),
   midi.NoteOnEvent(tick=0, channel=0, data=[53, 51]),
   midi.NoteOnEvent(tick=0, channel=0, data=[41, 43]),
   midi.NoteOnEvent(tick=480, channel=0, data=[41, 0]),
   midi.NoteOnEvent(tick=0, channel=0, data=[53, 0]),
   midi.NoteOnEvent(tick=0, channel=0, data=[46, 31]),
   midi.NoteOnEvent(tick=0, channel=0, data=[34, 25]),
   midi.NoteOnEvent(tick=240, channel=0, data=[34, 0]),
   midi.NoteOnEvent(tick=0, channel=0, data=[46, 0]),
   midi.NoteOnEvent(tick=0, channel=0, data=[46, 34]),
   midi.NoteOnEvent(tick=0, channel=0, data=[34, 27]),
   midi.NoteOnEvent(tick=480, channel=0, data=[34, 0]),
   midi.NoteOnEvent(tick=0, channel=0, data=[46, 0]),
   midi.NoteOnEvent(tick=0, channel=0, data=[46, 20]),
   midi.NoteOnEvent(tick=120, channel=0, data=[56, 24]),
   midi.NoteOnEvent(tick=60, channel=0, data=[56, 0]),
   midi.NoteOnEvent(tick=0, channel=0, data=[46, 0]),
   midi.NoteOnEvent(tick=0, channel=0, data=[39, 20]),
   midi.NoteOnEvent(tick=60, channel=0, data=[55, 19]),
   midi.NoteOnEvent(tick=480, channel=0, data=[55, 0]),
   midi.NoteOnEvent(tick=0, channel=0, data=[39, 0]),
   midi.NoteOnEvent(tick=0, channel=0, data=[51, 19]),
   midi.NoteOnEvent(tick=0, channel=0, data=[55, 19]),
   midi.NoteOnEvent(tick=240, channel=0, data=[55, 0]),
   midi.NoteOnEvent(tick=0, channel=0, data=[51, 0]),
   midi.NoteOnEvent(tick=0, channel=0, data=[51, 21]),
   midi.NoteOnEvent(tick=0, channel=0, data=[55, 21]),
   midi.NoteOnEvent(tick=480, channel=0, data=[55, 0]),
   midi.NoteOnEvent(tick=0, channel=0, data=[51, 0]),
   midi.NoteOnEvent(tick=0, channel=0, data=[39, 23]),
   midi.NoteOnEvent(tick=240, channel=0, data=[39, 0]),
   midi.NoteOnEvent(tick=0, channel=0, data=[51, 23]),
   midi.NoteOnEvent(tick=0, channel=0, data=[55, 23]),
   midi.NoteOnEvent(tick=480, channel=0, data=[55, 0]),
   midi.NoteOnEvent(tick=0, channel=0, data=[51, 0]),
   midi.NoteOnEvent(tick=0, channel=0, data=[51, 20]),
   midi.NoteOnEvent(tick=0, channel=0, data=[55, 20]),
   midi.NoteOnEvent(tick=240, channel=0, data=[55, 0]),
   midi.NoteOnEvent(tick=0, channel=0, data=[51, 0]),
   midi.NoteOnEvent(tick=0, channel=0, data=[51, 18]),
   midi.NoteOnEvent(tick=0, channel=0, data=[55, 18]),
   midi.NoteOnEvent(tick=480, channel=0, data=[55, 0]),
   midi.NoteOnEvent(tick=0, channel=0, data=[51, 0]),
   midi.NoteOnEvent(tick=0, channel=0, data=[36, 23]),
   midi.NoteOnEvent(tick=240, channel=0, data=[36, 0]),
   midi.NoteOnEvent(tick=0, channel=0, data=[48, 16]),
   midi.NoteOnEvent(tick=0, channel=0, data=[55, 19]),
   midi.NoteOnEvent(tick=480, channel=0, data=[55, 0]),
   midi.NoteOnEvent(tick=0, channel=0, data=[48, 0]),
   midi.NoteOnEvent(tick=0, channel=0, data=[48, 16]),
   midi.NoteOnEvent(tick=0, channel=0, data=[55, 19]),
   midi.NoteOnEvent(tick=240, channel=0, data=[55, 0]),
   midi.NoteOnEvent(tick=0, channel=0, data=[48, 0]),
   midi.NoteOnEvent(tick=0, channel=0, data=[48, 17]),
   midi.NoteOnEvent(tick=0, channel=0, data=[55, 21]),
   midi.NoteOnEvent(tick=480, channel=0, data=[55, 0]),
   midi.NoteOnEvent(tick=0, channel=0, data=[48, 0]),
   midi.NoteOnEvent(tick=0, channel=0, data=[38, 23]),
   midi.NoteOnEvent(tick=240, channel=0, data=[38, 0]),
   midi.NoteOnEvent(tick=0, channel=0, data=[50, 19]),
   midi.NoteOnEvent(tick=0, channel=0, data=[54, 23]),
   midi.NoteOnEvent(tick=0, channel=0, data=[60, 23]),
   midi.NoteOnEvent(tick=480, channel=0, data=[60, 0]),
   midi.NoteOnEvent(tick=0, channel=0, data=[54, 0]),
   midi.NoteOnEvent(tick=0, channel=0, data=[50, 0]),
   midi.NoteOnEvent(tick=0, channel=0, data=[50, 20]),
   midi.NoteOnEvent(tick=0, channel=0, data=[54, 20]),
   midi.NoteOnEvent(tick=0, channel=0, data=[57, 20]),
   midi.NoteOnEvent(tick=240, channel=0, data=[57, 0]),
   midi.NoteOnEvent(tick=0, channel=0, data=[54, 0]),
   midi.NoteOnEvent(tick=0, channel=0, data=[50, 0]),
   midi.NoteOnEvent(tick=0, channel=0, data=[46, 20]),
   midi.NoteOnEvent(tick=0, channel=0, data=[58, 20]),
   midi.NoteOnEvent(tick=480, channel=0, data=[58, 0]),
   midi.NoteOnEvent(tick=0, channel=0, data=[46, 0]),
   midi.NoteOnEvent(tick=0, channel=0, data=[62, 16]),
   midi.NoteOnEvent(tick=0, channel=0, data=[58, 16]),
   midi.NoteOnEvent(tick=0, channel=0, data=[68, 19]),
   midi.NoteOnEvent(tick=180, channel=0, data=[68, 0]),
   midi.NoteOnEvent(tick=0, channel=0, data=[58, 0]),
   midi.NoteOnEvent(tick=0, channel=0, data=[62, 0]),
   midi.NoteOnEvent(tick=0, channel=0, data=[51, 19]),
   midi.NoteOnEvent(tick=30, channel=0, data=[58, 19]),
   midi.NoteOnEvent(tick=30, channel=0, data=[67, 19]),
   midi.NoteOnEvent(tick=420, channel=0, data=[67, 0]),
   midi.NoteOnEvent(tick=0, channel=0, data=[58, 0]),
   midi.NoteOnEvent(tick=0, channel=0, data=[51, 0]),
   midi.NoteOnEvent(tick=0, channel=0, data=[51, 19]),
   midi.NoteOnEvent(tick=30, channel=0, data=[58, 19]),
   midi.NoteOnEvent(tick=30, channel=0, data=[67, 19]),
   midi.NoteOnEvent(tick=180, channel=0, data=[67, 0]),
   midi.NoteOnEvent(tick=0, channel=0, data=[58, 0]),
   midi.NoteOnEvent(tick=0, channel=0, data=[51, 0]),
   midi.NoteOnEvent(tick=0, channel=0, data=[51, 19]),
   midi.NoteOnEvent(tick=30, channel=0, data=[58, 19]),
   midi.NoteOnEvent(tick=30, channel=0, data=[67, 19]),
   midi.NoteOnEvent(tick=480, channel=0, data=[67, 0]),
   midi.NoteOnEvent(tick=0, channel=0, data=[58, 0]),
   midi.NoteOnEvent(tick=0, channel=0, data=[51, 0]),
   midi.NoteOnEvent(tick=0, channel=0, data=[51, 16]),
   midi.NoteOnEvent(tick=0, channel=0, data=[58, 19]),
   midi.NoteOnEvent(tick=240, channel=0, data=[58, 0]),
   midi.NoteOnEvent(tick=0, channel=0, data=[51, 0]),
   midi.NoteOnEvent(tick=0, channel=0, data=[51, 16]),
   midi.NoteOnEvent(tick=0, channel=0, data=[58, 19]),
   midi.NoteOnEvent(tick=420, channel=0, data=[58, 0]),
   midi.NoteOnEvent(tick=0, channel=0, data=[51, 0]),
   midi.NoteOnEvent(tick=0, channel=0, data=[51, 16]),
   midi.NoteOnEvent(tick=30, channel=0, data=[56, 19]),
   midi.NoteOnEvent(tick=210, channel=0, data=[56, 0]),
   midi.NoteOnEvent(tick=0, channel=0, data=[51, 0]),
   midi.NoteOnEvent(tick=0, channel=0, data=[51, 16]),
   midi.NoteOnEvent(tick=30, channel=0, data=[55, 19]),
   midi.NoteOnEvent(tick=510, channel=0, data=[55, 0]),
   midi.NoteOnEvent(tick=0, channel=0, data=[51, 0]),
   midi.NoteOnEvent(tick=0, channel=0, data=[43, 25]),
   midi.NoteOnEvent(tick=0, channel=0, data=[51, 25]),
   midi.NoteOnEvent(tick=0, channel=0, data=[55, 28]),
   midi.NoteOnEvent(tick=240, channel=0, data=[43, 0]),
   midi.NoteOnEvent(tick=0, channel=0, data=[45, 20]),
   midi.NoteOnEvent(tick=480, channel=0, data=[45, 0]),
   midi.NoteOnEvent(tick=0, channel=0, data=[55, 0]),
   midi.NoteOnEvent(tick=0, channel=0, data=[51, 0]),
   midi.NoteOnEvent(tick=0, channel=0, data=[46, 17]),
   midi.NoteOnEvent(tick=0, channel=0, data=[51, 21]),
   midi.NoteOnEvent(tick=0, channel=0, data=[55, 21]),
   midi.NoteOnEvent(tick=480, channel=0, data=[55, 0]),
   midi.NoteOnEvent(tick=0, channel=0, data=[51, 0]),
   midi.NoteOnEvent(tick=0, channel=0, data=[46, 0]),
   midi.NoteOnEvent(tick=0, channel=0, data=[48, 17]),
   midi.NoteOnEvent(tick=0, channel=0, data=[51, 21]),
   midi.NoteOnEvent(tick=0, channel=0, data=[55, 21]),
   midi.NoteOnEvent(tick=480, channel=0, data=[55, 0]),
   midi.NoteOnEvent(tick=0, channel=0, data=[51, 0]),
   midi.NoteOnEvent(tick=0, channel=0, data=[48, 0]),
   midi.NoteOnEvent(tick=0, channel=0, data=[46, 23]),
   midi.NoteOnEvent(tick=0, channel=0, data=[55, 23]),
   midi.NoteOnEvent(tick=480, channel=0, data=[55, 0]),
   midi.NoteOnEvent(tick=0, channel=0, data=[46, 0]),
   midi.NoteOnEvent(tick=0, channel=0, data=[46, 18]),
   midi.NoteOnEvent(tick=0, channel=0, data=[56, 18]),
   midi.NoteOnEvent(tick=660, channel=0, data=[56, 0]),
   midi.NoteOnEvent(tick=0, channel=0, data=[46, 0]),
   midi.NoteOnEvent(tick=0, channel=0, data=[44, 22]),
   midi.NoteOnEvent(tick=30, channel=0, data=[51, 22]),
   midi.NoteOnEvent(tick=30, channel=0, data=[60, 27]),
   midi.NoteOnEvent(tick=720, channel=0, data=[60, 0]),
   midi.NoteOnEvent(tick=0, channel=0, data=[51, 0]),
   midi.NoteOnEvent(tick=0, channel=0, data=[44, 0]),
   midi.NoteOnEvent(tick=0, channel=0, data=[48, 15]),
   midi.NoteOnEvent(tick=0, channel=0, data=[51, 18]),
   midi.NoteOnEvent(tick=720, channel=0, data=[51, 0]),
   midi.NoteOnEvent(tick=0, channel=0, data=[48, 0]),
   midi.NoteOnEvent(tick=0, channel=0, data=[46, 14]),
   midi.NoteOnEvent(tick=0, channel=0, data=[55, 14]),
   midi.NoteOnEvent(tick=720, channel=0, data=[55, 0]),
   midi.NoteOnEvent(tick=0, channel=0, data=[46, 0]),
   midi.NoteOnEvent(tick=0, channel=0, data=[46, 14]),
   midi.NoteOnEvent(tick=0, channel=0, data=[56, 14]),
   midi.NoteOnEvent(tick=960, channel=0, data=[56, 0]),
   midi.NoteOnEvent(tick=0, channel=0, data=[46, 0]),
   midi.NoteOnEvent(tick=0, channel=0, data=[51, 13]),
   midi.NoteOnEvent(tick=0, channel=0, data=[55, 17]),
   midi.NoteOnEvent(tick=480, channel=0, data=[55, 0]),
   midi.NoteOnEvent(tick=0, channel=0, data=[51, 0]),
   midi.NoteOnEvent(tick=240, channel=0, data=[27, 10]),
   midi.NoteOnEvent(tick=0, channel=0, data=[39, 12]),
   midi.NoteOnEvent(tick=480, channel=0, data=[39, 0]),
   midi.NoteOnEvent(tick=0, channel=0, data=[27, 0]),
   midi.NoteOnEvent(tick=240, channel=0, data=[51, 11]),
   midi.NoteOnEvent(tick=0, channel=0, data=[55, 11]),
   midi.NoteOnEvent(tick=0, channel=0, data=[63, 14]),
   midi.NoteOnEvent(tick=720, channel=0, data=[63, 0]),
   midi.NoteOnEvent(tick=0, channel=0, data=[55, 0]),
   midi.NoteOnEvent(tick=0, channel=0, data=[51, 0]),
   midi.EndOfTrackEvent(tick=0, data=[])]),
 midi.Track(\
  [midi.TrackNameEvent(tick=0, text='Pedale', data=[80, 101, 100, 97, 108, 101]),
   midi.ProgramChangeEvent(tick=0, channel=0, data=[0]),
   midi.ControlChangeEvent(tick=1200, channel=0, data=[64, 127]),
   midi.ControlChangeEvent(tick=741, channel=0, data=[64, 0]),
   midi.ControlChangeEvent(tick=106, channel=0, data=[64, 127]),
   midi.ControlChangeEvent(tick=130, channel=0, data=[64, 0]),
   midi.ControlChangeEvent(tick=75, channel=0, data=[64, 127]),
   midi.ControlChangeEvent(tick=401, channel=0, data=[64, 0]),
   midi.ControlChangeEvent(tick=58, channel=0, data=[64, 127]),
   midi.ControlChangeEvent(tick=181, channel=0, data=[64, 0]),
   midi.ControlChangeEvent(tick=136, channel=0, data=[64, 127]),
   midi.ControlChangeEvent(tick=345, channel=0, data=[64, 0]),
   midi.ControlChangeEvent(tick=72, channel=0, data=[64, 127]),
   midi.ControlChangeEvent(tick=653, channel=0, data=[64, 0]),
   midi.ControlChangeEvent(tick=67, channel=0, data=[64, 127]),
   midi.ControlChangeEvent(tick=163, channel=0, data=[64, 0]),
   midi.ControlChangeEvent(tick=77, channel=0, data=[64, 127]),
   midi.ControlChangeEvent(tick=415, channel=0, data=[64, 0]),
   midi.ControlChangeEvent(tick=79, channel=0, data=[64, 127]),
   midi.ControlChangeEvent(tick=158, channel=0, data=[64, 0]),
   midi.ControlChangeEvent(tick=82, channel=0, data=[64, 127]),
   midi.ControlChangeEvent(tick=399, channel=0, data=[64, 0]),
   midi.ControlChangeEvent(tick=88, channel=0, data=[64, 127]),
   midi.ControlChangeEvent(tick=148, channel=0, data=[64, 0]),
   midi.ControlChangeEvent(tick=36, channel=0, data=[64, 127]),
   midi.ControlChangeEvent(tick=449, channel=0, data=[64, 0]),
   midi.ControlChangeEvent(tick=73, channel=0, data=[64, 127]),
   midi.ControlChangeEvent(tick=164, channel=0, data=[64, 0]),
   midi.ControlChangeEvent(tick=136, channel=0, data=[64, 127]),
   midi.ControlChangeEvent(tick=568, channel=0, data=[64, 0]),
   midi.ControlChangeEvent(tick=99, channel=0, data=[64, 127]),
   midi.ControlChangeEvent(tick=402, channel=0, data=[64, 0]),
   midi.ControlChangeEvent(tick=106, channel=0, data=[64, 127]),
   midi.ControlChangeEvent(tick=130, channel=0, data=[64, 0]),
   midi.ControlChangeEvent(tick=75, channel=0, data=[64, 127]),
   midi.ControlChangeEvent(tick=401, channel=0, data=[64, 0]),
   midi.ControlChangeEvent(tick=58, channel=0, data=[64, 127]),
   midi.ControlChangeEvent(tick=169, channel=0, data=[64, 0]),
   midi.ControlChangeEvent(tick=99, channel=0, data=[64, 127]),
   midi.ControlChangeEvent(tick=402, channel=0, data=[64, 0]),
   midi.ControlChangeEvent(tick=106, channel=0, data=[64, 127]),
   midi.ControlChangeEvent(tick=100, channel=0, data=[64, 0]),
   midi.ControlChangeEvent(tick=99, channel=0, data=[64, 127]),
   midi.ControlChangeEvent(tick=402, channel=0, data=[64, 0]),
   midi.ControlChangeEvent(tick=106, channel=0, data=[64, 127]),
   midi.ControlChangeEvent(tick=126, channel=0, data=[64, 0]),
   midi.ControlChangeEvent(tick=127, channel=0, data=[64, 127]),
   midi.ControlChangeEvent(tick=370, channel=0, data=[64, 0]),
   midi.ControlChangeEvent(tick=47, channel=0, data=[64, 127]),
   midi.ControlChangeEvent(tick=190, channel=0, data=[64, 0]),
   midi.ControlChangeEvent(tick=85, channel=0, data=[64, 127]),
   midi.ControlChangeEvent(tick=399, channel=0, data=[64, 0]),
   midi.ControlChangeEvent(tick=60, channel=0, data=[64, 127]),
   midi.ControlChangeEvent(tick=168, channel=0, data=[64, 0]),
   midi.ControlChangeEvent(tick=72, channel=0, data=[64, 127]),
   midi.ControlChangeEvent(tick=416, channel=0, data=[64, 0]),
   midi.ControlChangeEvent(tick=64, channel=0, data=[64, 127]),
   midi.ControlChangeEvent(tick=178, channel=0, data=[64, 0]),
   midi.ControlChangeEvent(tick=69, channel=0, data=[64, 127]),
   midi.ControlChangeEvent(tick=411, channel=0, data=[64, 0]),
   midi.ControlChangeEvent(tick=55, channel=0, data=[64, 127]),
   midi.ControlChangeEvent(tick=169, channel=0, data=[64, 0]),
   midi.ControlChangeEvent(tick=57, channel=0, data=[64, 127]),
   midi.ControlChangeEvent(tick=444, channel=0, data=[64, 0]),
   midi.ControlChangeEvent(tick=106, channel=0, data=[64, 127]),
   midi.ControlChangeEvent(tick=130, channel=0, data=[64, 0]),
   midi.ControlChangeEvent(tick=75, channel=0, data=[64, 127]),
   midi.ControlChangeEvent(tick=401, channel=0, data=[64, 0]),
   midi.ControlChangeEvent(tick=58, channel=0, data=[64, 127]),
   midi.ControlChangeEvent(tick=181, channel=0, data=[64, 0]),
   midi.ControlChangeEvent(tick=136, channel=0, data=[64, 127]),
   midi.ControlChangeEvent(tick=345, channel=0, data=[64, 0]),
   midi.ControlChangeEvent(tick=72, channel=0, data=[64, 127]),
   midi.ControlChangeEvent(tick=653, channel=0, data=[64, 0]),
   midi.ControlChangeEvent(tick=67, channel=0, data=[64, 127]),
   midi.ControlChangeEvent(tick=163, channel=0, data=[64, 0]),
   midi.ControlChangeEvent(tick=77, channel=0, data=[64, 127]),
   midi.ControlChangeEvent(tick=415, channel=0, data=[64, 0]),
   midi.ControlChangeEvent(tick=79, channel=0, data=[64, 127]),
   midi.ControlChangeEvent(tick=158, channel=0, data=[64, 0]),
   midi.ControlChangeEvent(tick=82, channel=0, data=[64, 127]),
   midi.ControlChangeEvent(tick=399, channel=0, data=[64, 0]),
   midi.ControlChangeEvent(tick=88, channel=0, data=[64, 127]),
   midi.ControlChangeEvent(tick=148, channel=0, data=[64, 0]),
   midi.ControlChangeEvent(tick=36, channel=0, data=[64, 127]),
   midi.ControlChangeEvent(tick=449, channel=0, data=[64, 0]),
   midi.ControlChangeEvent(tick=73, channel=0, data=[64, 127]),
   midi.ControlChangeEvent(tick=164, channel=0, data=[64, 0]),
   midi.ControlChangeEvent(tick=136, channel=0, data=[64, 127]),
   midi.ControlChangeEvent(tick=568, channel=0, data=[64, 0]),
   midi.ControlChangeEvent(tick=107, channel=0, data=[64, 127]),
   midi.ControlChangeEvent(tick=394, channel=0, data=[64, 0]),
   midi.ControlChangeEvent(tick=106, channel=0, data=[64, 127]),
   midi.ControlChangeEvent(tick=370, channel=0, data=[64, 0]),
   midi.ControlChangeEvent(tick=130, channel=0, data=[64, 127]),
   midi.ControlChangeEvent(tick=333, channel=0, data=[64, 0]),
   midi.ControlChangeEvent(tick=78, channel=0, data=[64, 127]),
   midi.ControlChangeEvent(tick=180, channel=0, data=[64, 0]),
   midi.ControlChangeEvent(tick=60, channel=0, data=[64, 127]),
   midi.ControlChangeEvent(tick=173, channel=0, data=[64, 0]),
   midi.ControlChangeEvent(tick=67, channel=0, data=[64, 127]),
   midi.ControlChangeEvent(tick=183, channel=0, data=[64, 0]),
   midi.ControlChangeEvent(tick=99, channel=0, data=[64, 127]),
   midi.ControlChangeEvent(tick=378, channel=0, data=[64, 0]),
   midi.ControlChangeEvent(tick=67, channel=0, data=[64, 127]),
   midi.ControlChangeEvent(tick=163, channel=0, data=[64, 0]),
   midi.ControlChangeEvent(tick=77, channel=0, data=[64, 127]),
   midi.ControlChangeEvent(tick=415, channel=0, data=[64, 0]),
   midi.ControlChangeEvent(tick=79, channel=0, data=[64, 127]),
   midi.ControlChangeEvent(tick=158, channel=0, data=[64, 0]),
   midi.ControlChangeEvent(tick=82, channel=0, data=[64, 127]),
   midi.ControlChangeEvent(tick=157, channel=0, data=[64, 0]),
   midi.ControlChangeEvent(tick=83, channel=0, data=[64, 127]),
   midi.ControlChangeEvent(tick=159, channel=0, data=[64, 0]),
   midi.ControlChangeEvent(tick=88, channel=0, data=[64, 127]),
   midi.ControlChangeEvent(tick=148, channel=0, data=[64, 0]),
   midi.ControlChangeEvent(tick=36, channel=0, data=[64, 127]),
   midi.ControlChangeEvent(tick=449, channel=0, data=[64, 0]),
   midi.ControlChangeEvent(tick=73, channel=0, data=[64, 127]),
   midi.ControlChangeEvent(tick=164, channel=0, data=[64, 0]),
   midi.ControlChangeEvent(tick=104, channel=0, data=[64, 127]),
   midi.ControlChangeEvent(tick=378, channel=0, data=[64, 0]),
   midi.ControlChangeEvent(tick=230, channel=0, data=[64, 0]),
   midi.ControlChangeEvent(tick=77, channel=0, data=[64, 127]),
   midi.ControlChangeEvent(tick=166, channel=0, data=[64, 0]),
   midi.ControlChangeEvent(tick=81, channel=0, data=[64, 127]),
   midi.ControlChangeEvent(tick=168, channel=0, data=[64, 0]),
   midi.ControlChangeEvent(tick=79, channel=0, data=[64, 127]),
   midi.ControlChangeEvent(tick=158, channel=0, data=[64, 0]),
   midi.ControlChangeEvent(tick=82, channel=0, data=[64, 127]),
   midi.ControlChangeEvent(tick=401, channel=0, data=[64, 0]),
   midi.ControlChangeEvent(tick=277, channel=0, data=[64, 127]),
   midi.ControlChangeEvent(tick=193, channel=0, data=[64, 0]),
   midi.ControlChangeEvent(tick=82, channel=0, data=[64, 127]),
   midi.ControlChangeEvent(tick=225, channel=0, data=[64, 0]),
   midi.ControlChangeEvent(tick=83, channel=0, data=[64, 127]),
   midi.ControlChangeEvent(tick=99, channel=0, data=[64, 0]),
   midi.ControlChangeEvent(tick=153, channel=0, data=[64, 127]),
   midi.ControlChangeEvent(tick=326, channel=0, data=[64, 0]),
   midi.ControlChangeEvent(tick=230, channel=0, data=[64, 0]),
   midi.ControlChangeEvent(tick=77, channel=0, data=[64, 127]),
   midi.ControlChangeEvent(tick=166, channel=0, data=[64, 0]),
   midi.ControlChangeEvent(tick=81, channel=0, data=[64, 127]),
   midi.ControlChangeEvent(tick=168, channel=0, data=[64, 0]),
   midi.ControlChangeEvent(tick=79, channel=0, data=[64, 127]),
   midi.ControlChangeEvent(tick=158, channel=0, data=[64, 0]),
   midi.ControlChangeEvent(tick=82, channel=0, data=[64, 127]),
   midi.ControlChangeEvent(tick=399, channel=0, data=[64, 0]),
   midi.ControlChangeEvent(tick=230, channel=0, data=[64, 0]),
   midi.ControlChangeEvent(tick=77, channel=0, data=[64, 127]),
   midi.ControlChangeEvent(tick=166, channel=0, data=[64, 0]),
   midi.ControlChangeEvent(tick=81, channel=0, data=[64, 127]),
   midi.ControlChangeEvent(tick=168, channel=0, data=[64, 0]),
   midi.ControlChangeEvent(tick=79, channel=0, data=[64, 127]),
   midi.ControlChangeEvent(tick=158, channel=0, data=[64, 0]),
   midi.ControlChangeEvent(tick=82, channel=0, data=[64, 127]),
   midi.ControlChangeEvent(tick=160, channel=0, data=[64, 0]),
   midi.ControlChangeEvent(tick=73, channel=0, data=[64, 127]),
   midi.ControlChangeEvent(tick=166, channel=0, data=[64, 0]),
   midi.ControlChangeEvent(tick=85, channel=0, data=[64, 127]),
   midi.ControlChangeEvent(tick=151, channel=0, data=[64, 0]),
   midi.ControlChangeEvent(tick=43, channel=0, data=[64, 127]),
   midi.ControlChangeEvent(tick=671, channel=0, data=[64, 0]),
   midi.ControlChangeEvent(tick=70, channel=0, data=[64, 127]),
   midi.ControlChangeEvent(tick=656, channel=0, data=[64, 0]),
   midi.ControlChangeEvent(tick=55, channel=0, data=[64, 127]),
   midi.ControlChangeEvent(tick=659, channel=0, data=[64, 0]),
   midi.ControlChangeEvent(tick=49, channel=0, data=[64, 127]),
   midi.ControlChangeEvent(tick=677, channel=0, data=[64, 0]),
   midi.ControlChangeEvent(tick=71, channel=0, data=[64, 127]),
   midi.ControlChangeEvent(tick=643, channel=0, data=[64, 0]),
   midi.ControlChangeEvent(tick=91, channel=0, data=[64, 127]),
   midi.ControlChangeEvent(tick=635, channel=0, data=[64, 0]),
   midi.ControlChangeEvent(tick=78, channel=0, data=[64, 127]),
   midi.ControlChangeEvent(tick=636, channel=0, data=[64, 0]),
   midi.ControlChangeEvent(tick=63, channel=0, data=[64, 127]),
   midi.ControlChangeEvent(tick=663, channel=0, data=[64, 0]),
   midi.ControlChangeEvent(tick=55, channel=0, data=[64, 127]),
   midi.ControlChangeEvent(tick=659, channel=0, data=[64, 0]),
   midi.ControlChangeEvent(tick=55, channel=0, data=[64, 127]),
   midi.ControlChangeEvent(tick=664, channel=0, data=[64, 0]),
   midi.ControlChangeEvent(tick=953, channel=0, data=[64, 127]),
   midi.ControlChangeEvent(tick=494, channel=0, data=[64, 0]),
   midi.ControlChangeEvent(tick=38, channel=0, data=[64, 127]),
   midi.ControlChangeEvent(tick=676, channel=0, data=[64, 0]),
   midi.ControlChangeEvent(tick=44, channel=0, data=[64, 127]),
   midi.ControlChangeEvent(tick=668, channel=0, data=[64, 0]),
   midi.ControlChangeEvent(tick=195, channel=0, data=[64, 127]),
   midi.ControlChangeEvent(tick=537, channel=0, data=[64, 0]),
   midi.ControlChangeEvent(tick=148, channel=0, data=[64, 127]),
   midi.ControlChangeEvent(tick=574, channel=0, data=[64, 0]),
   midi.ControlChangeEvent(tick=43, channel=0, data=[64, 127]),
   midi.ControlChangeEvent(tick=671, channel=0, data=[64, 0]),
   midi.ControlChangeEvent(tick=70, channel=0, data=[64, 127]),
   midi.ControlChangeEvent(tick=656, channel=0, data=[64, 0]),
   midi.ControlChangeEvent(tick=55, channel=0, data=[64, 127]),
   midi.ControlChangeEvent(tick=659, channel=0, data=[64, 0]),
   midi.ControlChangeEvent(tick=49, channel=0, data=[64, 127]),
   midi.ControlChangeEvent(tick=677, channel=0, data=[64, 0]),
   midi.ControlChangeEvent(tick=71, channel=0, data=[64, 127]),
   midi.ControlChangeEvent(tick=643, channel=0, data=[64, 0]),
   midi.ControlChangeEvent(tick=91, channel=0, data=[64, 127]),
   midi.ControlChangeEvent(tick=635, channel=0, data=[64, 0]),
   midi.ControlChangeEvent(tick=78, channel=0, data=[64, 127]),
   midi.ControlChangeEvent(tick=636, channel=0, data=[64, 0]),
   midi.ControlChangeEvent(tick=63, channel=0, data=[64, 127]),
   midi.ControlChangeEvent(tick=663, channel=0, data=[64, 0]),
   midi.ControlChangeEvent(tick=55, channel=0, data=[64, 127]),
   midi.ControlChangeEvent(tick=659, channel=0, data=[64, 0]),
   midi.ControlChangeEvent(tick=55, channel=0, data=[64, 127]),
   midi.ControlChangeEvent(tick=664, channel=0, data=[64, 0]),
   midi.ControlChangeEvent(tick=953, channel=0, data=[64, 127]),
   midi.ControlChangeEvent(tick=494, channel=0, data=[64, 0]),
   midi.ControlChangeEvent(tick=38, channel=0, data=[64, 127]),
   midi.ControlChangeEvent(tick=676, channel=0, data=[64, 0]),
   midi.ControlChangeEvent(tick=44, channel=0, data=[64, 127]),
   midi.ControlChangeEvent(tick=675, channel=0, data=[64, 0]),
   midi.ControlChangeEvent(tick=188, channel=0, data=[64, 127]),
   midi.ControlChangeEvent(tick=1245, channel=0, data=[64, 0]),
   midi.ControlChangeEvent(tick=174, channel=0, data=[64, 127]),
   midi.ControlChangeEvent(tick=1266, channel=0, data=[64, 0]),
   midi.ControlChangeEvent(tick=88, channel=0, data=[64, 127]),
   midi.ControlChangeEvent(tick=413, channel=0, data=[64, 0]),
   midi.ControlChangeEvent(tick=106, channel=0, data=[64, 127]),
   midi.ControlChangeEvent(tick=130, channel=0, data=[64, 0]),
   midi.ControlChangeEvent(tick=75, channel=0, data=[64, 127]),
   midi.ControlChangeEvent(tick=401, channel=0, data=[64, 0]),
   midi.ControlChangeEvent(tick=58, channel=0, data=[64, 127]),
   midi.ControlChangeEvent(tick=181, channel=0, data=[64, 0]),
   midi.ControlChangeEvent(tick=136, channel=0, data=[64, 127]),
   midi.ControlChangeEvent(tick=345, channel=0, data=[64, 0]),
   midi.ControlChangeEvent(tick=72, channel=0, data=[64, 127]),
   midi.ControlChangeEvent(tick=168, channel=0, data=[64, 0]),
   midi.ControlChangeEvent(tick=79, channel=0, data=[64, 127]),
   midi.ControlChangeEvent(tick=406, channel=0, data=[64, 0]),
   midi.ControlChangeEvent(tick=67, channel=0, data=[64, 127]),
   midi.ControlChangeEvent(tick=163, channel=0, data=[64, 0]),
   midi.ControlChangeEvent(tick=77, channel=0, data=[64, 127]),
   midi.ControlChangeEvent(tick=415, channel=0, data=[64, 0]),
   midi.ControlChangeEvent(tick=79, channel=0, data=[64, 127]),
   midi.ControlChangeEvent(tick=158, channel=0, data=[64, 0]),
   midi.ControlChangeEvent(tick=82, channel=0, data=[64, 127]),
   midi.ControlChangeEvent(tick=399, channel=0, data=[64, 0]),
   midi.ControlChangeEvent(tick=88, channel=0, data=[64, 127]),
   midi.ControlChangeEvent(tick=148, channel=0, data=[64, 0]),
   midi.ControlChangeEvent(tick=36, channel=0, data=[64, 127]),
   midi.ControlChangeEvent(tick=449, channel=0, data=[64, 0]),
   midi.ControlChangeEvent(tick=73, channel=0, data=[64, 127]),
   midi.ControlChangeEvent(tick=164, channel=0, data=[64, 0]),
   midi.ControlChangeEvent(tick=136, channel=0, data=[64, 127]),
   midi.ControlChangeEvent(tick=568, channel=0, data=[64, 0]),
   midi.ControlChangeEvent(tick=99, channel=0, data=[64, 127]),
   midi.ControlChangeEvent(tick=402, channel=0, data=[64, 0]),
   midi.ControlChangeEvent(tick=106, channel=0, data=[64, 127]),
   midi.ControlChangeEvent(tick=130, channel=0, data=[64, 0]),
   midi.ControlChangeEvent(tick=75, channel=0, data=[64, 127]),
   midi.ControlChangeEvent(tick=401, channel=0, data=[64, 0]),
   midi.ControlChangeEvent(tick=58, channel=0, data=[64, 127]),
   midi.ControlChangeEvent(tick=169, channel=0, data=[64, 0]),
   midi.ControlChangeEvent(tick=99, channel=0, data=[64, 127]),
   midi.ControlChangeEvent(tick=402, channel=0, data=[64, 0]),
   midi.ControlChangeEvent(tick=106, channel=0, data=[64, 127]),
   midi.ControlChangeEvent(tick=100, channel=0, data=[64, 0]),
   midi.ControlChangeEvent(tick=99, channel=0, data=[64, 127]),
   midi.ControlChangeEvent(tick=402, channel=0, data=[64, 0]),
   midi.ControlChangeEvent(tick=106, channel=0, data=[64, 127]),
   midi.ControlChangeEvent(tick=126, channel=0, data=[64, 0]),
   midi.ControlChangeEvent(tick=127, channel=0, data=[64, 127]),
   midi.ControlChangeEvent(tick=370, channel=0, data=[64, 0]),
   midi.ControlChangeEvent(tick=47, channel=0, data=[64, 127]),
   midi.ControlChangeEvent(tick=190, channel=0, data=[64, 0]),
   midi.ControlChangeEvent(tick=85, channel=0, data=[64, 127]),
   midi.ControlChangeEvent(tick=399, channel=0, data=[64, 0]),
   midi.ControlChangeEvent(tick=60, channel=0, data=[64, 127]),
   midi.ControlChangeEvent(tick=168, channel=0, data=[64, 0]),
   midi.ControlChangeEvent(tick=72, channel=0, data=[64, 127]),
   midi.ControlChangeEvent(tick=416, channel=0, data=[64, 0]),
   midi.ControlChangeEvent(tick=64, channel=0, data=[64, 127]),
   midi.ControlChangeEvent(tick=178, channel=0, data=[64, 0]),
   midi.ControlChangeEvent(tick=69, channel=0, data=[64, 127]),
   midi.ControlChangeEvent(tick=411, channel=0, data=[64, 0]),
   midi.ControlChangeEvent(tick=55, channel=0, data=[64, 127]),
   midi.ControlChangeEvent(tick=169, channel=0, data=[64, 0]),
   midi.ControlChangeEvent(tick=57, channel=0, data=[64, 127]),
   midi.ControlChangeEvent(tick=444, channel=0, data=[64, 0]),
   midi.ControlChangeEvent(tick=106, channel=0, data=[64, 127]),
   midi.ControlChangeEvent(tick=130, channel=0, data=[64, 0]),
   midi.ControlChangeEvent(tick=75, channel=0, data=[64, 127]),
   midi.ControlChangeEvent(tick=401, channel=0, data=[64, 0]),
   midi.ControlChangeEvent(tick=58, channel=0, data=[64, 127]),
   midi.ControlChangeEvent(tick=181, channel=0, data=[64, 0]),
   midi.ControlChangeEvent(tick=136, channel=0, data=[64, 127]),
   midi.ControlChangeEvent(tick=345, channel=0, data=[64, 0]),
   midi.ControlChangeEvent(tick=72, channel=0, data=[64, 127]),
   midi.ControlChangeEvent(tick=653, channel=0, data=[64, 0]),
   midi.ControlChangeEvent(tick=67, channel=0, data=[64, 127]),
   midi.ControlChangeEvent(tick=163, channel=0, data=[64, 0]),
   midi.ControlChangeEvent(tick=77, channel=0, data=[64, 127]),
   midi.ControlChangeEvent(tick=415, channel=0, data=[64, 0]),
   midi.ControlChangeEvent(tick=79, channel=0, data=[64, 127]),
   midi.ControlChangeEvent(tick=158, channel=0, data=[64, 0]),
   midi.ControlChangeEvent(tick=82, channel=0, data=[64, 127]),
   midi.ControlChangeEvent(tick=399, channel=0, data=[64, 0]),
   midi.ControlChangeEvent(tick=88, channel=0, data=[64, 127]),
   midi.ControlChangeEvent(tick=148, channel=0, data=[64, 0]),
   midi.ControlChangeEvent(tick=36, channel=0, data=[64, 127]),
   midi.ControlChangeEvent(tick=449, channel=0, data=[64, 0]),
   midi.ControlChangeEvent(tick=73, channel=0, data=[64, 127]),
   midi.ControlChangeEvent(tick=164, channel=0, data=[64, 0]),
   midi.ControlChangeEvent(tick=136, channel=0, data=[64, 127]),
   midi.ControlChangeEvent(tick=568, channel=0, data=[64, 0]),
   midi.ControlChangeEvent(tick=107, channel=0, data=[64, 127]),
   midi.ControlChangeEvent(tick=394, channel=0, data=[64, 0]),
   midi.ControlChangeEvent(tick=106, channel=0, data=[64, 127]),
   midi.ControlChangeEvent(tick=370, channel=0, data=[64, 0]),
   midi.ControlChangeEvent(tick=61, channel=0, data=[64, 127]),
   midi.ControlChangeEvent(tick=402, channel=0, data=[64, 0]),
   midi.ControlChangeEvent(tick=78, channel=0, data=[64, 127]),
   midi.ControlChangeEvent(tick=180, channel=0, data=[64, 0]),
   midi.ControlChangeEvent(tick=60, channel=0, data=[64, 127]),
   midi.ControlChangeEvent(tick=173, channel=0, data=[64, 0]),
   midi.ControlChangeEvent(tick=67, channel=0, data=[64, 127]),
   midi.ControlChangeEvent(tick=183, channel=0, data=[64, 0]),
   midi.ControlChangeEvent(tick=99, channel=0, data=[64, 127]),
   midi.ControlChangeEvent(tick=378, channel=0, data=[64, 0]),
   midi.ControlChangeEvent(tick=67, channel=0, data=[64, 127]),
   midi.ControlChangeEvent(tick=163, channel=0, data=[64, 0]),
   midi.ControlChangeEvent(tick=77, channel=0, data=[64, 127]),
   midi.ControlChangeEvent(tick=415, channel=0, data=[64, 0]),
   midi.ControlChangeEvent(tick=79, channel=0, data=[64, 127]),
   midi.ControlChangeEvent(tick=158, channel=0, data=[64, 0]),
   midi.ControlChangeEvent(tick=82, channel=0, data=[64, 127]),
   midi.ControlChangeEvent(tick=157, channel=0, data=[64, 0]),
   midi.ControlChangeEvent(tick=83, channel=0, data=[64, 127]),
   midi.ControlChangeEvent(tick=159, channel=0, data=[64, 0]),
   midi.ControlChangeEvent(tick=88, channel=0, data=[64, 127]),
   midi.ControlChangeEvent(tick=148, channel=0, data=[64, 0]),
   midi.ControlChangeEvent(tick=36, channel=0, data=[64, 127]),
   midi.ControlChangeEvent(tick=449, channel=0, data=[64, 0]),
   midi.ControlChangeEvent(tick=73, channel=0, data=[64, 127]),
   midi.ControlChangeEvent(tick=164, channel=0, data=[64, 0]),
   midi.ControlChangeEvent(tick=104, channel=0, data=[64, 127]),
   midi.ControlChangeEvent(tick=316, channel=0, data=[64, 0]),
   midi.ControlChangeEvent(tick=44, channel=0, data=[64, 127]),
   midi.ControlChangeEvent(tick=735, channel=0, data=[64, 0]),
   midi.ControlChangeEvent(tick=122, channel=0, data=[64, 127]),
   midi.ControlChangeEvent(tick=591, channel=0, data=[64, 0]),
   midi.ControlChangeEvent(tick=152, channel=0, data=[64, 127]),
   midi.ControlChangeEvent(tick=571, channel=0, data=[64, 0]),
   midi.ControlChangeEvent(tick=81, channel=0, data=[64, 127]),
   midi.ControlChangeEvent(tick=882, channel=0, data=[64, 0]),
   midi.ControlChangeEvent(tick=173, channel=0, data=[64, 127]),
   midi.ControlChangeEvent(tick=2693, channel=0, data=[64, 0]),
   midi.EndOfTrackEvent(tick=0, data=[])]),
 midi.Track(\
  [midi.TrackNameEvent(tick=0, text='Brahms: Intermezzo Opus 117 No. 1', data=[66, 114, 97, 104, 109, 115, 58, 32, 73, 110, 116, 101, 114, 109, 101, 122, 122, 111, 32, 79, 112, 117, 115, 32, 49, 49, 55, 32, 78, 111, 46, 32, 49]),
   midi.EndOfTrackEvent(tick=0, data=[])]),
 midi.Track(\
  [midi.TrackNameEvent(tick=0, text='Copyright © 2010 by Bernd Krueger', data=[67, 111, 112, 121, 114, 105, 103, 104, 116, 32, 169, 32, 50, 48, 49, 48, 32, 98, 121, 32, 66, 101, 114, 110, 100, 32, 75, 114, 117, 101, 103, 101, 114]),
   midi.EndOfTrackEvent(tick=0, data=[])]),
 midi.Track(\
  [midi.TrackNameEvent(tick=0, text='http://www.piano-midi.de/', data=[104, 116, 116, 112, 58, 47, 47, 119, 119, 119, 46, 112, 105, 97, 110, 111, 45, 109, 105, 100, 105, 46, 100, 101, 47]),
   midi.EndOfTrackEvent(tick=0, data=[])]),
 midi.Track(\
  [midi.TrackNameEvent(tick=0, text='Edition: 2010-10-09', data=[69, 100, 105, 116, 105, 111, 110, 58, 32, 50, 48, 49, 48, 45, 49, 48, 45, 48, 57]),
   midi.EndOfTrackEvent(tick=0, data=[])]),
 midi.Track(\
  [midi.TrackNameEvent(tick=0, text='Spur 8', data=[83, 112, 117, 114, 32, 56]),
   midi.EndOfTrackEvent(tick=0, data=[])]),
 midi.Track(\
  [midi.TrackNameEvent(tick=0, text='Spur 9', data=[83, 112, 117, 114, 32, 57]),
   midi.EndOfTrackEvent(tick=0, data=[])]),
 midi.Track(\
  [midi.TrackNameEvent(tick=0, text='Spur 10', data=[83, 112, 117, 114, 32, 49, 48]),
   midi.EndOfTrackEvent(tick=0, data=[])]),
 midi.Track(\
  [midi.TrackNameEvent(tick=0, text='Spur 11', data=[83, 112, 117, 114, 32, 49, 49]),
   midi.EndOfTrackEvent(tick=0, data=[])]),
 midi.Track(\
  [midi.TrackNameEvent(tick=0, text='Spur 12', data=[83, 112, 117, 114, 32, 49, 50]),
   midi.EndOfTrackEvent(tick=0, data=[])]),
 midi.Track(\
  [midi.TrackNameEvent(tick=0, text='Spur 13', data=[83, 112, 117, 114, 32, 49, 51]),
   midi.EndOfTrackEvent(tick=0, data=[])]),
 midi.Track(\
  [midi.TrackNameEvent(tick=0, text='Spur 14', data=[83, 112, 117, 114, 32, 49, 52]),
   midi.EndOfTrackEvent(tick=0, data=[])]),
 midi.Track(\
  [midi.TrackNameEvent(tick=0, text='Spur 15', data=[83, 112, 117, 114, 32, 49, 53]),
   midi.EndOfTrackEvent(tick=0, data=[])]),
 midi.Track(\
  [midi.TrackNameEvent(tick=0, text='Spur 16', data=[83, 112, 117, 114, 32, 49, 54]),
   midi.EndOfTrackEvent(tick=0, data=[])])])
