import midi
pattern=midi.Pattern(format=1, resolution=480, tracks=\
[midi.Track(\
[   midi.NoteOnEvent(tick=4, channel=0, data=[92, 50]),
   midi.NoteOnEvent(tick=80, channel=0, data=[92, 0]),
   midi.NoteOnEvent(tick=0, channel=0, data=[93, 43]),
   midi.NoteOnEvent(tick=80, channel=0, data=[93, 0]),
   midi.NoteOnEvent(tick=0, channel=0, data=[92, 46]),
   midi.NoteOnEvent(tick=80, channel=0, data=[92, 0]),
   midi.NoteOnEvent(tick=0, channel=0, data=[93, 41]),
   midi.NoteOnEvent(tick=80, channel=0, data=[93, 0]),
   midi.NoteOnEvent(tick=0, channel=0, data=[92, 44]),
   midi.NoteOnEvent(tick=80, channel=0, data=[92, 0]),
   midi.NoteOnEvent(tick=0, channel=0, data=[91, 40]),
   midi.NoteOnEvent(tick=80, channel=0, data=[91, 0]),
   midi.NoteOnEvent(tick=0, channel=0, data=[92, 35]),
   midi.NoteOnEvent(tick=0, channel=0, data=[97, 50]),
   midi.NoteOnEvent(tick=80, channel=0, data=[97, 0]),
   midi.NoteOnEvent(tick=0, channel=0, data=[92, 0]),
   midi.NoteOnEvent(tick=0, channel=0, data=[93, 45]),
   midi.NoteOnEvent(tick=80, channel=0, data=[93, 0]),
   midi.NoteOnEvent(tick=0, channel=0, data=[92, 37]),
   midi.NoteOnEvent(tick=80, channel=0, data=[92, 0]),
   midi.NoteOnEvent(tick=0, channel=0, data=[88, 44]),
   midi.NoteOnEvent(tick=120, channel=0, data=[88, 0]),
   midi.NoteOnEvent(tick=0, channel=0, data=[87, 39]),
   midi.NoteOnEvent(tick=120, channel=0, data=[87, 0]),
   midi.NoteOnEvent(tick=0, channel=0, data=[92, 50]),
   midi.NoteOnEvent(tick=0, channel=0, data=[85, 35]),
   midi.NoteOnEvent(tick=80, channel=0, data=[85, 0]),
   midi.NoteOnEvent(tick=0, channel=0, data=[92, 0]),
   midi.NoteOnEvent(tick=0, channel=0, data=[87, 45]),
   midi.NoteOnEvent(tick=80, channel=0, data=[87, 0]),
   midi.NoteOnEvent(tick=0, channel=0, data=[85, 40]),
   midi.NoteOnEvent(tick=80, channel=0, data=[85, 0]),
   midi.NoteOnEvent(tick=0, channel=0, data=[81, 45]),
   midi.NoteOnEvent(tick=120, channel=0, data=[81, 0]),
   midi.NoteOnEvent(tick=0, channel=0, data=[80, 40]),
   midi.NoteOnEvent(tick=120, channel=0, data=[80, 0]),
   midi.NoteOnEvent(tick=0, channel=0, data=[85, 50]),
   midi.NoteOnEvent(tick=0, channel=0, data=[78, 35]),
   midi.NoteOnEvent(tick=80, channel=0, data=[78, 0]),
   midi.NoteOnEvent(tick=0, channel=0, data=[85, 0]),
   midi.NoteOnEvent(tick=0, channel=0, data=[80, 45]),
   midi.NoteOnEvent(tick=80, channel=0, data=[80, 0]),
   midi.NoteOnEvent(tick=0, channel=0, data=[78, 37]),
   midi.NoteOnEvent(tick=80, channel=0, data=[78, 0]),
   midi.NoteOnEvent(tick=0, channel=0, data=[76, 41]),
   midi.NoteOnEvent(tick=120, channel=0, data=[76, 0]),
   midi.NoteOnEvent(tick=0, channel=0, data=[75, 37]),
   midi.NoteOnEvent(tick=120, channel=0, data=[75, 0]),
   midi.NoteOnEvent(tick=0, channel=0, data=[80, 50]),
   midi.NoteOnEvent(tick=0, channel=0, data=[73, 35]),
   midi.NoteOnEvent(tick=80, channel=0, data=[73, 0]),
   midi.NoteOnEvent(tick=0, channel=0, data=[80, 0]),
   midi.NoteOnEvent(tick=0, channel=0, data=[75, 44]),
   midi.NoteOnEvent(tick=80, channel=0, data=[75, 0]),
   midi.NoteOnEvent(tick=0, channel=0, data=[73, 37]),
   midi.NoteOnEvent(tick=80, channel=0, data=[73, 0]),
   midi.NoteOnEvent(tick=0, channel=0, data=[69, 40]),
   midi.NoteOnEvent(tick=120, channel=0, data=[69, 0]),
   midi.NoteOnEvent(tick=0, channel=0, data=[68, 38]),
   midi.NoteOnEvent(tick=120, channel=0, data=[68, 0]),
   midi.NoteOnEvent(tick=0, channel=0, data=[66, 35]),
   midi.NoteOnEvent(tick=0, channel=0, data=[73, 50]),
   midi.NoteOnEvent(tick=80, channel=0, data=[73, 0]),
   midi.NoteOnEvent(tick=0, channel=0, data=[66, 0]),
   midi.NoteOnEvent(tick=0, channel=0, data=[68, 44]),
   midi.NoteOnEvent(tick=80, channel=0, data=[68, 0]),
   midi.NoteOnEvent(tick=0, channel=0, data=[66, 36]),
   midi.NoteOnEvent(tick=80, channel=0, data=[66, 0]),
   midi.NoteOnEvent(tick=0, channel=0, data=[64, 40]),
   midi.NoteOnEvent(tick=120, channel=0, data=[64, 0]),
   midi.NoteOnEvent(tick=0, channel=0, data=[63, 36]),
   midi.NoteOnEvent(tick=120, channel=0, data=[63, 0]),
   midi.NoteOnEvent(tick=0, channel=0, data=[61, 35]),
   midi.NoteOnEvent(tick=0, channel=0, data=[68, 50]),
   midi.NoteOnEvent(tick=80, channel=0, data=[68, 0]),
   midi.NoteOnEvent(tick=0, channel=0, data=[61, 0]),
   midi.NoteOnEvent(tick=0, channel=0, data=[63, 44]),
   midi.NoteOnEvent(tick=80, channel=0, data=[63, 0]),
   midi.NoteOnEvent(tick=0, channel=0, data=[61, 36]),
   midi.NoteOnEvent(tick=80, channel=0, data=[61, 0]),
   midi.NoteOnEvent(tick=0, channel=0, data=[59, 40]),
   midi.NoteOnEvent(tick=120, channel=0, data=[59, 0]),
   midi.NoteOnEvent(tick=0, channel=0, data=[57, 35]),
   midi.NoteOnEvent(tick=120, channel=0, data=[57, 0]),
   midi.NoteOnEvent(tick=2400, channel=0, data=[64, 45]),
   midi.NoteOnEvent(tick=480, channel=0, data=[64, 0]),
   midi.NoteOnEvent(tick=0, channel=0, data=[97, 50]),
   midi.NoteOnEvent(tick=0, channel=0, data=[92, 35]),
   midi.NoteOnEvent(tick=80, channel=0, data=[92, 0]),
   midi.NoteOnEvent(tick=0, channel=0, data=[97, 0]),
   midi.NoteOnEvent(tick=0, channel=0, data=[93, 45]),
   midi.NoteOnEvent(tick=80, channel=0, data=[93, 0]),
   midi.NoteOnEvent(tick=0, channel=0, data=[92, 38]),
   midi.NoteOnEvent(tick=80, channel=0, data=[92, 0]),
   midi.NoteOnEvent(tick=0, channel=0, data=[88, 43]),
   midi.NoteOnEvent(tick=120, channel=0, data=[88, 0]),
   midi.NoteOnEvent(tick=0, channel=0, data=[87, 39]),
   midi.NoteOnEvent(tick=120, channel=0, data=[87, 0]),
   midi.NoteOnEvent(tick=0, channel=0, data=[92, 50]),
   midi.NoteOnEvent(tick=0, channel=0, data=[85, 35]),
   midi.NoteOnEvent(tick=80, channel=0, data=[85, 0]),
   midi.NoteOnEvent(tick=0, channel=0, data=[92, 0]),
   midi.NoteOnEvent(tick=0, channel=0, data=[87, 45]),
   midi.NoteOnEvent(tick=80, channel=0, data=[87, 0]),
   midi.NoteOnEvent(tick=0, channel=0, data=[85, 40]),
   midi.NoteOnEvent(tick=80, channel=0, data=[85, 0]),
   midi.NoteOnEvent(tick=0, channel=0, data=[81, 43]),
   midi.NoteOnEvent(tick=120, channel=0, data=[81, 0]),
   midi.NoteOnEvent(tick=0, channel=0, data=[80, 39]),
   midi.NoteOnEvent(tick=120, channel=0, data=[80, 0]),
   midi.NoteOnEvent(tick=0, channel=0, data=[85, 50]),
   midi.NoteOnEvent(tick=0, channel=0, data=[78, 35]),
   midi.NoteOnEvent(tick=80, channel=0, data=[78, 0]),
   midi.NoteOnEvent(tick=0, channel=0, data=[85, 0]),
   midi.NoteOnEvent(tick=0, channel=0, data=[80, 45]),
   midi.NoteOnEvent(tick=80, channel=0, data=[80, 0]),
   midi.NoteOnEvent(tick=0, channel=0, data=[78, 38]),
   midi.NoteOnEvent(tick=80, channel=0, data=[78, 0]),
   midi.NoteOnEvent(tick=0, channel=0, data=[76, 42]),
   midi.NoteOnEvent(tick=120, channel=0, data=[76, 0]),
   midi.NoteOnEvent(tick=0, channel=0, data=[75, 38]),
   midi.NoteOnEvent(tick=120, channel=0, data=[75, 0]),
   midi.NoteOnEvent(tick=0, channel=0, data=[73, 35]),
   midi.NoteOnEvent(tick=0, channel=0, data=[80, 50]),
   midi.NoteOnEvent(tick=80, channel=0, data=[80, 0]),
   midi.NoteOnEvent(tick=0, channel=0, data=[73, 0]),
   midi.NoteOnEvent(tick=0, channel=0, data=[75, 45]),
   midi.NoteOnEvent(tick=80, channel=0, data=[75, 0]),
   midi.NoteOnEvent(tick=0, channel=0, data=[73, 38]),
   midi.NoteOnEvent(tick=80, channel=0, data=[73, 0]),
   midi.NoteOnEvent(tick=0, channel=0, data=[69, 40]),
   midi.NoteOnEvent(tick=120, channel=0, data=[69, 0]),
   midi.NoteOnEvent(tick=0, channel=0, data=[68, 38]),
   midi.NoteOnEvent(tick=120, channel=0, data=[68, 0]),
   midi.NoteOnEvent(tick=0, channel=0, data=[66, 35]),
   midi.NoteOnEvent(tick=0, channel=0, data=[73, 50]),
   midi.NoteOnEvent(tick=80, channel=0, data=[73, 0]),
   midi.NoteOnEvent(tick=0, channel=0, data=[66, 0]),
   midi.NoteOnEvent(tick=0, channel=0, data=[68, 45]),
   midi.NoteOnEvent(tick=80, channel=0, data=[68, 0]),
   midi.NoteOnEvent(tick=0, channel=0, data=[66, 36]),
   midi.NoteOnEvent(tick=80, channel=0, data=[66, 0]),
   midi.NoteOnEvent(tick=0, channel=0, data=[64, 40]),
   midi.NoteOnEvent(tick=120, channel=0, data=[64, 0]),
   midi.NoteOnEvent(tick=0, channel=0, data=[63, 37]),
   midi.NoteOnEvent(tick=120, channel=0, data=[63, 0]),
   midi.NoteOnEvent(tick=0, channel=0, data=[68, 50]),
   midi.NoteOnEvent(tick=0, channel=0, data=[61, 35]),
   midi.NoteOnEvent(tick=80, channel=0, data=[61, 0]),
   midi.NoteOnEvent(tick=0, channel=0, data=[68, 0]),
   midi.NoteOnEvent(tick=0, channel=0, data=[63, 45]),
   midi.NoteOnEvent(tick=80, channel=0, data=[63, 0]),
   midi.NoteOnEvent(tick=0, channel=0, data=[61, 36]),
   midi.NoteOnEvent(tick=80, channel=0, data=[61, 0]),
   midi.NoteOnEvent(tick=0, channel=0, data=[59, 40]),
   midi.NoteOnEvent(tick=120, channel=0, data=[59, 0]),
   midi.NoteOnEvent(tick=0, channel=0, data=[58, 38]),
   midi.NoteOnEvent(tick=120, channel=0, data=[58, 0]),
   midi.NoteOnEvent(tick=480, channel=0, data=[63, 55]),
   midi.NoteOnEvent(tick=960, channel=0, data=[63, 0]),
   midi.NoteOnEvent(tick=960, channel=0, data=[68, 46]),
   midi.NoteOnEvent(tick=480, channel=0, data=[68, 0]),
   midi.NoteOnEvent(tick=0, channel=0, data=[90, 31]),
   midi.NoteOnEvent(tick=0, channel=0, data=[97, 45]),
   midi.NoteOnEvent(tick=80, channel=0, data=[97, 0]),
   midi.NoteOnEvent(tick=0, channel=0, data=[90, 0]),
   midi.NoteOnEvent(tick=0, channel=0, data=[92, 40]),
   midi.NoteOnEvent(tick=80, channel=0, data=[92, 0]),
   midi.NoteOnEvent(tick=0, channel=0, data=[90, 36]),
   midi.NoteOnEvent(tick=80, channel=0, data=[90, 0]),
   midi.NoteOnEvent(tick=0, channel=0, data=[86, 38]),
   midi.NoteOnEvent(tick=120, channel=0, data=[86, 0]),
   midi.NoteOnEvent(tick=0, channel=0, data=[85, 36]),
   midi.NoteOnEvent(tick=120, channel=0, data=[85, 0]),
   midi.NoteOnEvent(tick=0, channel=0, data=[83, 31]),
   midi.NoteOnEvent(tick=0, channel=0, data=[90, 45]),
   midi.NoteOnEvent(tick=80, channel=0, data=[90, 0]),
   midi.NoteOnEvent(tick=0, channel=0, data=[83, 0]),
   midi.NoteOnEvent(tick=0, channel=0, data=[85, 40]),
   midi.NoteOnEvent(tick=80, channel=0, data=[85, 0]),
   midi.NoteOnEvent(tick=0, channel=0, data=[83, 36]),
   midi.NoteOnEvent(tick=80, channel=0, data=[83, 0]),
   midi.NoteOnEvent(tick=0, channel=0, data=[81, 39]),
   midi.NoteOnEvent(tick=120, channel=0, data=[81, 0]),
   midi.NoteOnEvent(tick=0, channel=0, data=[80, 36]),
   midi.NoteOnEvent(tick=120, channel=0, data=[80, 0]),
   midi.NoteOnEvent(tick=0, channel=0, data=[78, 30]),
   midi.NoteOnEvent(tick=0, channel=0, data=[85, 45]),
   midi.NoteOnEvent(tick=80, channel=0, data=[85, 0]),
   midi.NoteOnEvent(tick=0, channel=0, data=[78, 0]),
   midi.NoteOnEvent(tick=0, channel=0, data=[80, 40]),
   midi.NoteOnEvent(tick=80, channel=0, data=[80, 0]),
   midi.NoteOnEvent(tick=0, channel=0, data=[78, 36]),
   midi.NoteOnEvent(tick=80, channel=0, data=[78, 0]),
   midi.NoteOnEvent(tick=0, channel=0, data=[74, 39]),
   midi.NoteOnEvent(tick=120, channel=0, data=[74, 0]),
   midi.NoteOnEvent(tick=0, channel=0, data=[73, 35]),
   midi.NoteOnEvent(tick=120, channel=0, data=[73, 0]),
   midi.NoteOnEvent(tick=0, channel=0, data=[78, 45]),
   midi.NoteOnEvent(tick=0, channel=0, data=[71, 31]),
   midi.NoteOnEvent(tick=80, channel=0, data=[71, 0]),
   midi.NoteOnEvent(tick=0, channel=0, data=[78, 0]),
   midi.NoteOnEvent(tick=0, channel=0, data=[73, 40]),
   midi.NoteOnEvent(tick=80, channel=0, data=[73, 0]),
   midi.NoteOnEvent(tick=0, channel=0, data=[71, 35]),
   midi.NoteOnEvent(tick=80, channel=0, data=[71, 0]),
   midi.NoteOnEvent(tick=0, channel=0, data=[69, 37]),
   midi.NoteOnEvent(tick=120, channel=0, data=[69, 0]),
   midi.NoteOnEvent(tick=0, channel=0, data=[68, 36]),
   midi.NoteOnEvent(tick=120, channel=0, data=[68, 0]),
   midi.NoteOnEvent(tick=0, channel=0, data=[73, 45]),
   midi.NoteOnEvent(tick=0, channel=0, data=[66, 31]),
   midi.NoteOnEvent(tick=80, channel=0, data=[66, 0]),
   midi.NoteOnEvent(tick=0, channel=0, data=[73, 0]),
   midi.NoteOnEvent(tick=0, channel=0, data=[68, 40]),
   midi.NoteOnEvent(tick=80, channel=0, data=[68, 0]),
   midi.NoteOnEvent(tick=0, channel=0, data=[66, 34]),
   midi.NoteOnEvent(tick=80, channel=0, data=[66, 0]),
   midi.NoteOnEvent(tick=0, channel=0, data=[62, 35]),
   midi.NoteOnEvent(tick=120, channel=0, data=[62, 0]),
   midi.NoteOnEvent(tick=0, channel=0, data=[61, 30]),
   midi.NoteOnEvent(tick=120, channel=0, data=[61, 0]),
   midi.NoteOnEvent(tick=0, channel=0, data=[66, 45]),
   midi.NoteOnEvent(tick=0, channel=0, data=[59, 31]),
   midi.NoteOnEvent(tick=80, channel=0, data=[59, 0]),
   midi.NoteOnEvent(tick=0, channel=0, data=[66, 0]),
   midi.NoteOnEvent(tick=0, channel=0, data=[61, 40]),
   midi.NoteOnEvent(tick=80, channel=0, data=[61, 0]),
   midi.NoteOnEvent(tick=0, channel=0, data=[59, 35]),
   midi.NoteOnEvent(tick=80, channel=0, data=[59, 0]),
   midi.NoteOnEvent(tick=0, channel=0, data=[57, 37]),
   midi.NoteOnEvent(tick=120, channel=0, data=[57, 0]),
   midi.NoteOnEvent(tick=0, channel=0, data=[56, 32]),
   midi.NoteOnEvent(tick=120, channel=0, data=[56, 0]),
   midi.NoteOnEvent(tick=480, channel=0, data=[61, 45]),
   midi.NoteOnEvent(tick=480, channel=0, data=[61, 0]),
   midi.NoteOnEvent(tick=0, channel=0, data=[63, 56]),
   midi.NoteOnEvent(tick=480, channel=0, data=[63, 0]),
   midi.NoteOnEvent(tick=480, channel=0, data=[63, 37]),
   midi.NoteOnEvent(tick=480, channel=0, data=[63, 0]),
   midi.NoteOnEvent(tick=0, channel=0, data=[64, 35]),
   midi.NoteOnEvent(tick=480, channel=0, data=[64, 0]),
   midi.NoteOnEvent(tick=0, channel=0, data=[92, 35]),
   midi.NoteOnEvent(tick=0, channel=0, data=[97, 50]),
   midi.NoteOnEvent(tick=80, channel=0, data=[97, 0]),
   midi.NoteOnEvent(tick=0, channel=0, data=[92, 0]),
   midi.NoteOnEvent(tick=0, channel=0, data=[93, 49]),
   midi.NoteOnEvent(tick=80, channel=0, data=[93, 0]),
   midi.NoteOnEvent(tick=0, channel=0, data=[92, 40]),
   midi.NoteOnEvent(tick=80, channel=0, data=[92, 0]),
   midi.NoteOnEvent(tick=0, channel=0, data=[88, 45]),
   midi.NoteOnEvent(tick=120, channel=0, data=[88, 0]),
   midi.NoteOnEvent(tick=0, channel=0, data=[87, 39]),
   midi.NoteOnEvent(tick=120, channel=0, data=[87, 0]),
   midi.NoteOnEvent(tick=0, channel=0, data=[92, 50]),
   midi.NoteOnEvent(tick=0, channel=0, data=[85, 35]),
   midi.NoteOnEvent(tick=80, channel=0, data=[85, 0]),
   midi.NoteOnEvent(tick=0, channel=0, data=[92, 0]),
   midi.NoteOnEvent(tick=0, channel=0, data=[87, 45]),
   midi.NoteOnEvent(tick=80, channel=0, data=[87, 0]),
   midi.NoteOnEvent(tick=0, channel=0, data=[85, 40]),
   midi.NoteOnEvent(tick=80, channel=0, data=[85, 0]),
   midi.NoteOnEvent(tick=0, channel=0, data=[81, 44]),
   midi.NoteOnEvent(tick=120, channel=0, data=[81, 0]),
   midi.NoteOnEvent(tick=0, channel=0, data=[80, 39]),
   midi.NoteOnEvent(tick=120, channel=0, data=[80, 0]),
   midi.NoteOnEvent(tick=0, channel=0, data=[78, 35]),
   midi.NoteOnEvent(tick=0, channel=0, data=[85, 50]),
   midi.NoteOnEvent(tick=80, channel=0, data=[85, 0]),
   midi.NoteOnEvent(tick=0, channel=0, data=[78, 0]),
   midi.NoteOnEvent(tick=0, channel=0, data=[80, 44]),
   midi.NoteOnEvent(tick=80, channel=0, data=[80, 0]),
   midi.NoteOnEvent(tick=0, channel=0, data=[78, 36]),
   midi.NoteOnEvent(tick=80, channel=0, data=[78, 0]),
   midi.NoteOnEvent(tick=0, channel=0, data=[76, 42]),
   midi.NoteOnEvent(tick=120, channel=0, data=[76, 0]),
   midi.NoteOnEvent(tick=0, channel=0, data=[75, 37]),
   midi.NoteOnEvent(tick=120, channel=0, data=[75, 0]),
   midi.NoteOnEvent(tick=0, channel=0, data=[73, 35]),
   midi.NoteOnEvent(tick=0, channel=0, data=[80, 50]),
   midi.NoteOnEvent(tick=80, channel=0, data=[80, 0]),
   midi.NoteOnEvent(tick=0, channel=0, data=[73, 0]),
   midi.NoteOnEvent(tick=0, channel=0, data=[75, 45]),
   midi.NoteOnEvent(tick=80, channel=0, data=[75, 0]),
   midi.NoteOnEvent(tick=0, channel=0, data=[73, 37]),
   midi.NoteOnEvent(tick=80, channel=0, data=[73, 0]),
   midi.NoteOnEvent(tick=0, channel=0, data=[69, 40]),
   midi.NoteOnEvent(tick=120, channel=0, data=[69, 0]),
   midi.NoteOnEvent(tick=0, channel=0, data=[68, 35]),
   midi.NoteOnEvent(tick=120, channel=0, data=[68, 0]),
   midi.NoteOnEvent(tick=0, channel=0, data=[73, 50]),
   midi.NoteOnEvent(tick=0, channel=0, data=[66, 35]),
   midi.NoteOnEvent(tick=80, channel=0, data=[66, 0]),
   midi.NoteOnEvent(tick=0, channel=0, data=[73, 0]),
   midi.NoteOnEvent(tick=0, channel=0, data=[68, 45]),
   midi.NoteOnEvent(tick=80, channel=0, data=[68, 0]),
   midi.NoteOnEvent(tick=0, channel=0, data=[66, 37]),
   midi.NoteOnEvent(tick=80, channel=0, data=[66, 0]),
   midi.NoteOnEvent(tick=0, channel=0, data=[64, 40]),
   midi.NoteOnEvent(tick=120, channel=0, data=[64, 0]),
   midi.NoteOnEvent(tick=0, channel=0, data=[63, 35]),
   midi.NoteOnEvent(tick=120, channel=0, data=[63, 0]),
   midi.NoteOnEvent(tick=0, channel=0, data=[68, 50]),
   midi.NoteOnEvent(tick=0, channel=0, data=[61, 35]),
   midi.NoteOnEvent(tick=80, channel=0, data=[61, 0]),
   midi.NoteOnEvent(tick=0, channel=0, data=[68, 0]),
   midi.NoteOnEvent(tick=0, channel=0, data=[63, 45]),
   midi.NoteOnEvent(tick=80, channel=0, data=[63, 0]),
   midi.NoteOnEvent(tick=0, channel=0, data=[61, 33]),
   midi.NoteOnEvent(tick=80, channel=0, data=[61, 0]),
   midi.NoteOnEvent(tick=0, channel=0, data=[59, 38]),
   midi.NoteOnEvent(tick=120, channel=0, data=[59, 0]),
   midi.NoteOnEvent(tick=0, channel=0, data=[57, 33]),
   midi.NoteOnEvent(tick=120, channel=0, data=[57, 0]),
   midi.NoteOnEvent(tick=1800, channel=0, data=[64, 57]),
   midi.NoteOnEvent(tick=120, channel=0, data=[64, 0]),
   midi.NoteOnEvent(tick=480, channel=0, data=[69, 49]),
   midi.NoteOnEvent(tick=960, channel=0, data=[69, 0]),
   midi.NoteOnEvent(tick=1320, channel=0, data=[64, 35]),
   midi.NoteOnEvent(tick=120, channel=0, data=[64, 0]),
   midi.NoteOnEvent(tick=0, channel=0, data=[61, 38]),
   midi.NoteOnEvent(tick=480, channel=0, data=[61, 0]),
   midi.EndOfTrackEvent(tick=0, data=[])]),
 midi.Track(\
[    midi.NoteOnEvent(tick=360, channel=0, data=[49, 34]),
   midi.NoteOnEvent(tick=60, channel=0, data=[56, 36]),
   midi.NoteOnEvent(tick=60, channel=0, data=[64, 38]),
   midi.NoteOnEvent(tick=480, channel=0, data=[64, 0]),
   midi.NoteOnEvent(tick=0, channel=0, data=[56, 0]),
   midi.NoteOnEvent(tick=0, channel=0, data=[49, 0]),
   midi.NoteOnEvent(tick=353, channel=0, data=[42, 31]),
   midi.NoteOnEvent(tick=60, channel=0, data=[49, 35]),
   midi.NoteOnEvent(tick=60, channel=0, data=[57, 40]),
   midi.NoteOnEvent(tick=194, channel=0, data=[57, 0]),
   midi.NoteOnEvent(tick=0, channel=0, data=[49, 0]),
   midi.NoteOnEvent(tick=0, channel=0, data=[42, 0]),
   midi.NoteOnEvent(tick=120, channel=0, data=[49, 33]),
   midi.NoteOnEvent(tick=60, channel=0, data=[56, 36]),
   midi.NoteOnEvent(tick=60, channel=0, data=[64, 40]),
   midi.NoteOnEvent(tick=176, channel=0, data=[64, 0]),
   midi.NoteOnEvent(tick=0, channel=0, data=[56, 0]),
   midi.NoteOnEvent(tick=0, channel=0, data=[49, 0]),
   midi.NoteOnEvent(tick=120, channel=0, data=[42, 32]),
   midi.NoteOnEvent(tick=60, channel=0, data=[49, 36]),
   midi.NoteOnEvent(tick=60, channel=0, data=[57, 38]),
   midi.NoteOnEvent(tick=166, channel=0, data=[57, 0]),
   midi.NoteOnEvent(tick=0, channel=0, data=[49, 0]),
   midi.NoteOnEvent(tick=0, channel=0, data=[42, 0]),
   midi.NoteOnEvent(tick=120, channel=0, data=[37, 32]),
   midi.NoteOnEvent(tick=60, channel=0, data=[44, 36]),
   midi.NoteOnEvent(tick=60, channel=0, data=[52, 39]),
   midi.NoteOnEvent(tick=155, channel=0, data=[52, 0]),
   midi.NoteOnEvent(tick=0, channel=0, data=[44, 0]),
   midi.NoteOnEvent(tick=0, channel=0, data=[37, 0]),
   midi.NoteOnEvent(tick=0, channel=0, data=[56, 45]),
   midi.NoteOnEvent(tick=480, channel=0, data=[60, 49]),
   midi.NoteOnEvent(tick=0, channel=0, data=[51, 41]),
   midi.NoteOnEvent(tick=0, channel=0, data=[44, 49]),
   midi.NoteOnEvent(tick=480, channel=0, data=[51, 0]),
   midi.NoteOnEvent(tick=0, channel=0, data=[60, 0]),
   midi.NoteOnEvent(tick=0, channel=0, data=[32, 46]),
   midi.NoteOnEvent(tick=0, channel=0, data=[58, 46]),
   midi.NoteOnEvent(tick=0, channel=0, data=[49, 39]),
   midi.NoteOnEvent(tick=480, channel=0, data=[49, 0]),
   midi.NoteOnEvent(tick=0, channel=0, data=[32, 0]),
   midi.NoteOnEvent(tick=0, channel=0, data=[58, 0]),
   midi.NoteOnEvent(tick=0, channel=0, data=[44, 0]),
   midi.NoteOnEvent(tick=0, channel=0, data=[44, 43]),
   midi.NoteOnEvent(tick=0, channel=0, data=[51, 36]),
   midi.NoteOnEvent(tick=0, channel=0, data=[60, 43]),
   midi.NoteOnEvent(tick=240, channel=0, data=[44, 0]),
   midi.NoteOnEvent(tick=100, channel=0, data=[60, 0]),
   midi.NoteOnEvent(tick=0, channel=0, data=[51, 0]),
   midi.NoteOnEvent(tick=20, channel=0, data=[44, 37]),
   midi.NoteOnEvent(tick=0, channel=0, data=[52, 37]),
   midi.NoteOnEvent(tick=0, channel=0, data=[61, 45]),
   midi.NoteOnEvent(tick=120, channel=0, data=[61, 0]),
   midi.NoteOnEvent(tick=0, channel=0, data=[52, 0]),
   midi.NoteOnEvent(tick=0, channel=0, data=[44, 0]),
   midi.NoteOnEvent(tick=0, channel=0, data=[54, 35]),
   midi.NoteOnEvent(tick=0, channel=0, data=[60, 35]),
   midi.NoteOnEvent(tick=0, channel=0, data=[63, 42]),
   midi.NoteOnEvent(tick=0, channel=0, data=[44, 42]),
   midi.NoteOnEvent(tick=480, channel=0, data=[63, 0]),
   midi.NoteOnEvent(tick=0, channel=0, data=[60, 0]),
   midi.NoteOnEvent(tick=0, channel=0, data=[56, 0]),
   midi.NoteOnEvent(tick=0, channel=0, data=[54, 0]),
   midi.NoteOnEvent(tick=0, channel=0, data=[56, 46]),
   midi.NoteOnEvent(tick=0, channel=0, data=[32, 39]),
   midi.NoteOnEvent(tick=360, channel=0, data=[49, 30]),
   midi.NoteOnEvent(tick=60, channel=0, data=[32, 0]),
   midi.NoteOnEvent(tick=0, channel=0, data=[56, 0]),
   midi.NoteOnEvent(tick=0, channel=0, data=[56, 35]),
   midi.NoteOnEvent(tick=60, channel=0, data=[44, 0]),
   midi.NoteOnEvent(tick=0, channel=0, data=[64, 38]),
   midi.NoteOnEvent(tick=444, channel=0, data=[64, 0]),
   midi.NoteOnEvent(tick=0, channel=0, data=[56, 0]),
   midi.NoteOnEvent(tick=0, channel=0, data=[49, 0]),
   midi.NoteOnEvent(tick=360, channel=0, data=[42, 33]),
   midi.NoteOnEvent(tick=60, channel=0, data=[49, 37]),
   midi.NoteOnEvent(tick=60, channel=0, data=[57, 40]),
   midi.NoteOnEvent(tick=183, channel=0, data=[57, 0]),
   midi.NoteOnEvent(tick=0, channel=0, data=[49, 0]),
   midi.NoteOnEvent(tick=0, channel=0, data=[42, 0]),
   midi.NoteOnEvent(tick=120, channel=0, data=[49, 34]),
   midi.NoteOnEvent(tick=60, channel=0, data=[56, 37]),
   midi.NoteOnEvent(tick=60, channel=0, data=[64, 40]),
   midi.NoteOnEvent(tick=180, channel=0, data=[64, 0]),
   midi.NoteOnEvent(tick=0, channel=0, data=[56, 0]),
   midi.NoteOnEvent(tick=0, channel=0, data=[49, 0]),
   midi.NoteOnEvent(tick=120, channel=0, data=[42, 30]),
   midi.NoteOnEvent(tick=60, channel=0, data=[49, 35]),
   midi.NoteOnEvent(tick=60, channel=0, data=[57, 38]),
   midi.NoteOnEvent(tick=180, channel=0, data=[57, 0]),
   midi.NoteOnEvent(tick=0, channel=0, data=[49, 0]),
   midi.NoteOnEvent(tick=0, channel=0, data=[42, 0]),
   midi.NoteOnEvent(tick=120, channel=0, data=[37, 33]),
   midi.NoteOnEvent(tick=60, channel=0, data=[44, 35]),
   midi.NoteOnEvent(tick=60, channel=0, data=[52, 39]),
   midi.NoteOnEvent(tick=183, channel=0, data=[52, 0]),
   midi.NoteOnEvent(tick=0, channel=0, data=[44, 0]),
   midi.NoteOnEvent(tick=0, channel=0, data=[37, 0]),
   midi.NoteOnEvent(tick=0, channel=0, data=[56, 47]),
   midi.NoteOnEvent(tick=480, channel=0, data=[60, 53]),
   midi.NoteOnEvent(tick=0, channel=0, data=[51, 45]),
   midi.NoteOnEvent(tick=0, channel=0, data=[39, 45]),
   midi.NoteOnEvent(tick=360, channel=0, data=[38, 45]),
   midi.NoteOnEvent(tick=60, channel=0, data=[38, 0]),
   midi.NoteOnEvent(tick=0, channel=0, data=[39, 45]),
   midi.NoteOnEvent(tick=40, channel=0, data=[39, 0]),
   midi.NoteOnEvent(tick=20, channel=0, data=[39, 0]),
   midi.NoteOnEvent(tick=0, channel=0, data=[56, 0]),
   midi.NoteOnEvent(tick=0, channel=0, data=[60, 0]),
   midi.NoteOnEvent(tick=0, channel=0, data=[39, 48]),
   midi.NoteOnEvent(tick=0, channel=0, data=[58, 48]),
   midi.NoteOnEvent(tick=0, channel=0, data=[55, 40]),
   midi.NoteOnEvent(tick=60, channel=0, data=[39, 0]),
   midi.NoteOnEvent(tick=0, channel=0, data=[40, 45]),
   midi.NoteOnEvent(tick=60, channel=0, data=[40, 0]),
   midi.NoteOnEvent(tick=0, channel=0, data=[39, 49]),
   midi.NoteOnEvent(tick=60, channel=0, data=[39, 0]),
   midi.NoteOnEvent(tick=0, channel=0, data=[40, 51]),
   midi.NoteOnEvent(tick=60, channel=0, data=[40, 0]),
   midi.NoteOnEvent(tick=0, channel=0, data=[39, 54]),
   midi.NoteOnEvent(tick=60, channel=0, data=[39, 0]),
   midi.NoteOnEvent(tick=0, channel=0, data=[40, 56]),
   midi.NoteOnEvent(tick=60, channel=0, data=[40, 0]),
   midi.NoteOnEvent(tick=0, channel=0, data=[39, 61]),
   midi.NoteOnEvent(tick=40, channel=0, data=[39, 0]),
   midi.NoteOnEvent(tick=0, channel=0, data=[38, 61]),
   midi.NoteOnEvent(tick=40, channel=0, data=[38, 0]),
   midi.NoteOnEvent(tick=0, channel=0, data=[39, 63]),
   midi.NoteOnEvent(tick=40, channel=0, data=[39, 0]),
   midi.NoteOnEvent(tick=0, channel=0, data=[51, 0]),
   midi.NoteOnEvent(tick=0, channel=0, data=[58, 0]),
   midi.NoteOnEvent(tick=0, channel=0, data=[55, 0]),
   midi.NoteOnEvent(tick=0, channel=0, data=[56, 55]),
   midi.NoteOnEvent(tick=0, channel=0, data=[44, 55]),
   midi.NoteOnEvent(tick=0, channel=0, data=[51, 55]),
   midi.NoteOnEvent(tick=0, channel=0, data=[59, 66]),
   midi.NoteOnEvent(tick=229, channel=0, data=[44, 0]),
   midi.NoteOnEvent(tick=100, channel=0, data=[56, 0]),
   midi.NoteOnEvent(tick=0, channel=0, data=[51, 0]),
   midi.NoteOnEvent(tick=0, channel=0, data=[59, 0]),
   midi.NoteOnEvent(tick=20, channel=0, data=[58, 48]),
   midi.NoteOnEvent(tick=0, channel=0, data=[44, 48]),
   midi.NoteOnEvent(tick=0, channel=0, data=[51, 48]),
   midi.NoteOnEvent(tick=0, channel=0, data=[61, 57]),
   midi.NoteOnEvent(tick=120, channel=0, data=[61, 0]),
   midi.NoteOnEvent(tick=0, channel=0, data=[58, 0]),
   midi.NoteOnEvent(tick=0, channel=0, data=[44, 0]),
   midi.NoteOnEvent(tick=0, channel=0, data=[51, 0]),
   midi.NoteOnEvent(tick=0, channel=0, data=[51, 53]),
   midi.NoteOnEvent(tick=0, channel=0, data=[59, 53]),
   midi.NoteOnEvent(tick=0, channel=0, data=[63, 63]),
   midi.NoteOnEvent(tick=0, channel=0, data=[44, 53]),
   midi.NoteOnEvent(tick=480, channel=0, data=[44, 0]),
   midi.NoteOnEvent(tick=0, channel=0, data=[51, 0]),
   midi.NoteOnEvent(tick=0, channel=0, data=[59, 0]),
   midi.NoteOnEvent(tick=0, channel=0, data=[63, 0]),
   midi.NoteOnEvent(tick=0, channel=0, data=[56, 45]),
   midi.NoteOnEvent(tick=0, channel=0, data=[32, 38]),
   midi.NoteOnEvent(tick=328, channel=0, data=[32, 0]),
   midi.NoteOnEvent(tick=0, channel=0, data=[56, 0]),
   midi.NoteOnEvent(tick=0, channel=0, data=[42, 25]),
   midi.NoteOnEvent(tick=60, channel=0, data=[49, 29]),
   midi.NoteOnEvent(tick=0, channel=0, data=[57, 34]),
   midi.NoteOnEvent(tick=183, channel=0, data=[57, 0]),
   midi.NoteOnEvent(tick=0, channel=0, data=[49, 0]),
   midi.NoteOnEvent(tick=120, channel=0, data=[47, 27]),
   midi.NoteOnEvent(tick=60, channel=0, data=[54, 31]),
   midi.NoteOnEvent(tick=60, channel=0, data=[42, 0]),
   midi.NoteOnEvent(tick=0, channel=0, data=[62, 35]),
   midi.NoteOnEvent(tick=176, channel=0, data=[62, 0]),
   midi.NoteOnEvent(tick=0, channel=0, data=[54, 0]),
   midi.NoteOnEvent(tick=0, channel=0, data=[47, 0]),
   midi.NoteOnEvent(tick=120, channel=0, data=[42, 24]),
   midi.NoteOnEvent(tick=60, channel=0, data=[49, 30]),
   midi.NoteOnEvent(tick=60, channel=0, data=[57, 35]),
   midi.NoteOnEvent(tick=183, channel=0, data=[57, 0]),
   midi.NoteOnEvent(tick=0, channel=0, data=[49, 0]),
   midi.NoteOnEvent(tick=0, channel=0, data=[42, 0]),
   midi.NoteOnEvent(tick=120, channel=0, data=[47, 27]),
   midi.NoteOnEvent(tick=60, channel=0, data=[54, 31]),
   midi.NoteOnEvent(tick=60, channel=0, data=[62, 35]),
   midi.NoteOnEvent(tick=159, channel=0, data=[62, 0]),
   midi.NoteOnEvent(tick=0, channel=0, data=[54, 0]),
   midi.NoteOnEvent(tick=0, channel=0, data=[47, 0]),
   midi.NoteOnEvent(tick=120, channel=0, data=[42, 26]),
   midi.NoteOnEvent(tick=60, channel=0, data=[49, 30]),
   midi.NoteOnEvent(tick=60, channel=0, data=[57, 34]),
   midi.NoteOnEvent(tick=162, channel=0, data=[57, 0]),
   midi.NoteOnEvent(tick=0, channel=0, data=[49, 0]),
   midi.NoteOnEvent(tick=0, channel=0, data=[42, 0]),
   midi.NoteOnEvent(tick=469, channel=0, data=[54, 44]),
   midi.NoteOnEvent(tick=480, channel=0, data=[57, 45]),
   midi.NoteOnEvent(tick=0, channel=0, data=[42, 45]),
   midi.NoteOnEvent(tick=0, channel=0, data=[49, 38]),
   midi.NoteOnEvent(tick=480, channel=0, data=[42, 0]),
   midi.NoteOnEvent(tick=0, channel=0, data=[39, 55]),
   midi.NoteOnEvent(tick=480, channel=0, data=[39, 0]),
   midi.NoteOnEvent(tick=0, channel=0, data=[49, 0]),
   midi.NoteOnEvent(tick=0, channel=0, data=[57, 0]),
   midi.NoteOnEvent(tick=0, channel=0, data=[54, 0]),
   midi.NoteOnEvent(tick=0, channel=0, data=[56, 32]),
   midi.NoteOnEvent(tick=0, channel=0, data=[44, 38]),
   midi.NoteOnEvent(tick=0, channel=0, data=[51, 32]),
   midi.NoteOnEvent(tick=0, channel=0, data=[60, 38]),
   midi.NoteOnEvent(tick=240, channel=0, data=[44, 0]),
   midi.NoteOnEvent(tick=100, channel=0, data=[56, 0]),
   midi.NoteOnEvent(tick=0, channel=0, data=[51, 0]),
   midi.NoteOnEvent(tick=0, channel=0, data=[60, 0]),
   midi.NoteOnEvent(tick=20, channel=0, data=[56, 32]),
   midi.NoteOnEvent(tick=0, channel=0, data=[44, 38]),
   midi.NoteOnEvent(tick=0, channel=0, data=[52, 32]),
   midi.NoteOnEvent(tick=0, channel=0, data=[61, 38]),
   midi.NoteOnEvent(tick=120, channel=0, data=[61, 0]),
   midi.NoteOnEvent(tick=0, channel=0, data=[56, 0]),
   midi.NoteOnEvent(tick=0, channel=0, data=[44, 0]),
   midi.NoteOnEvent(tick=0, channel=0, data=[52, 0]),
   midi.NoteOnEvent(tick=0, channel=0, data=[54, 30]),
   midi.NoteOnEvent(tick=0, channel=0, data=[60, 36]),
   midi.NoteOnEvent(tick=0, channel=0, data=[44, 30]),
   midi.NoteOnEvent(tick=480, channel=0, data=[54, 0]),
   midi.NoteOnEvent(tick=0, channel=0, data=[56, 31]),
   midi.NoteOnEvent(tick=0, channel=0, data=[32, 31]),
   midi.NoteOnEvent(tick=360, channel=0, data=[32, 0]),
   midi.NoteOnEvent(tick=0, channel=0, data=[56, 0]),
   midi.NoteOnEvent(tick=0, channel=0, data=[60, 0]),
   midi.NoteOnEvent(tick=0, channel=0, data=[49, 30]),
   midi.NoteOnEvent(tick=60, channel=0, data=[56, 36]),
   midi.NoteOnEvent(tick=60, channel=0, data=[44, 0]),
   midi.NoteOnEvent(tick=0, channel=0, data=[64, 38]),
   midi.NoteOnEvent(tick=420, channel=0, data=[64, 0]),
   midi.NoteOnEvent(tick=0, channel=0, data=[56, 0]),
   midi.NoteOnEvent(tick=0, channel=0, data=[49, 0]),
   midi.NoteOnEvent(tick=360, channel=0, data=[42, 32]),
   midi.NoteOnEvent(tick=60, channel=0, data=[49, 37]),
   midi.NoteOnEvent(tick=60, channel=0, data=[57, 40]),
   midi.NoteOnEvent(tick=166, channel=0, data=[57, 0]),
   midi.NoteOnEvent(tick=0, channel=0, data=[49, 0]),
   midi.NoteOnEvent(tick=0, channel=0, data=[42, 0]),
   midi.NoteOnEvent(tick=120, channel=0, data=[49, 31]),
   midi.NoteOnEvent(tick=60, channel=0, data=[56, 36]),
   midi.NoteOnEvent(tick=60, channel=0, data=[64, 40]),
   midi.NoteOnEvent(tick=176, channel=0, data=[64, 0]),
   midi.NoteOnEvent(tick=0, channel=0, data=[56, 0]),
   midi.NoteOnEvent(tick=0, channel=0, data=[49, 0]),
   midi.NoteOnEvent(tick=120, channel=0, data=[42, 32]),
   midi.NoteOnEvent(tick=60, channel=0, data=[49, 36]),
   midi.NoteOnEvent(tick=60, channel=0, data=[57, 38]),
   midi.NoteOnEvent(tick=166, channel=0, data=[57, 0]),
   midi.NoteOnEvent(tick=0, channel=0, data=[49, 0]),
   midi.NoteOnEvent(tick=0, channel=0, data=[42, 0]),
   midi.NoteOnEvent(tick=120, channel=0, data=[37, 30]),
   midi.NoteOnEvent(tick=60, channel=0, data=[44, 36]),
   midi.NoteOnEvent(tick=60, channel=0, data=[52, 39]),
   midi.NoteOnEvent(tick=166, channel=0, data=[52, 0]),
   midi.NoteOnEvent(tick=0, channel=0, data=[44, 0]),
   midi.NoteOnEvent(tick=0, channel=0, data=[37, 0]),
   midi.NoteOnEvent(tick=240, channel=0, data=[56, 49]),
   midi.NoteOnEvent(tick=477, channel=0, data=[60, 52]),
   midi.NoteOnEvent(tick=0, channel=0, data=[51, 44]),
   midi.NoteOnEvent(tick=0, channel=0, data=[44, 44]),
   midi.NoteOnEvent(tick=480, channel=0, data=[51, 0]),
   midi.NoteOnEvent(tick=0, channel=0, data=[60, 0]),
   midi.NoteOnEvent(tick=0, channel=0, data=[32, 46]),
   midi.NoteOnEvent(tick=0, channel=0, data=[61, 55]),
   midi.NoteOnEvent(tick=0, channel=0, data=[52, 46]),
   midi.NoteOnEvent(tick=480, channel=0, data=[52, 0]),
   midi.NoteOnEvent(tick=0, channel=0, data=[32, 0]),
   midi.NoteOnEvent(tick=0, channel=0, data=[44, 0]),
   midi.NoteOnEvent(tick=0, channel=0, data=[56, 0]),
   midi.NoteOnEvent(tick=0, channel=0, data=[61, 0]),
   midi.NoteOnEvent(tick=0, channel=0, data=[63, 53]),
   midi.NoteOnEvent(tick=0, channel=0, data=[44, 45]),
   midi.NoteOnEvent(tick=0, channel=0, data=[51, 45]),
   midi.NoteOnEvent(tick=0, channel=0, data=[60, 45]),
   midi.NoteOnEvent(tick=240, channel=0, data=[44, 0]),
   midi.NoteOnEvent(tick=100, channel=0, data=[63, 0]),
   midi.NoteOnEvent(tick=0, channel=0, data=[51, 0]),
   midi.NoteOnEvent(tick=0, channel=0, data=[60, 0]),
   midi.NoteOnEvent(tick=20, channel=0, data=[44, 43]),
   midi.NoteOnEvent(tick=0, channel=0, data=[56, 51]),
   midi.NoteOnEvent(tick=120, channel=0, data=[56, 0]),
   midi.NoteOnEvent(tick=0, channel=0, data=[44, 0]),
   midi.NoteOnEvent(tick=0, channel=0, data=[52, 42]),
   midi.NoteOnEvent(tick=0, channel=0, data=[61, 50]),
   midi.NoteOnEvent(tick=0, channel=0, data=[37, 42]),
   midi.NoteOnEvent(tick=480, channel=0, data=[37, 0]),
   midi.NoteOnEvent(tick=0, channel=0, data=[61, 0]),
   midi.NoteOnEvent(tick=0, channel=0, data=[52, 0]),
   midi.NoteOnEvent(tick=0, channel=0, data=[57, 50]),
   midi.NoteOnEvent(tick=854, channel=0, data=[44, 30]),
   midi.NoteOnEvent(tick=0, channel=0, data=[51, 30]),
   midi.NoteOnEvent(tick=0, channel=0, data=[60, 36]),
   midi.NoteOnEvent(tick=464, channel=0, data=[60, 0]),
   midi.NoteOnEvent(tick=0, channel=0, data=[51, 0]),
   midi.NoteOnEvent(tick=0, channel=0, data=[32, 30]),
   midi.NoteOnEvent(tick=0, channel=0, data=[52, 30]),
   midi.NoteOnEvent(tick=0, channel=0, data=[61, 36]),
   midi.NoteOnEvent(tick=480, channel=0, data=[61, 0]),
   midi.NoteOnEvent(tick=0, channel=0, data=[32, 0]),
   midi.NoteOnEvent(tick=0, channel=0, data=[57, 0]),
   midi.NoteOnEvent(tick=0, channel=0, data=[44, 0]),
   midi.NoteOnEvent(tick=0, channel=0, data=[52, 0]),
   midi.NoteOnEvent(tick=0, channel=0, data=[44, 31]),
   midi.NoteOnEvent(tick=0, channel=0, data=[56, 31]),
   midi.NoteOnEvent(tick=0, channel=0, data=[54, 31]),
   midi.NoteOnEvent(tick=0, channel=0, data=[63, 37]),
   midi.NoteOnEvent(tick=0, channel=0, data=[60, 31]),
   midi.NoteOnEvent(tick=240, channel=0, data=[60, 0]),
   midi.NoteOnEvent(tick=0, channel=0, data=[54, 0]),
   midi.NoteOnEvent(tick=0, channel=0, data=[44, 0]),
   midi.NoteOnEvent(tick=0, channel=0, data=[56, 0]),
   midi.NoteOnEvent(tick=0, channel=0, data=[63, 0]),
   midi.NoteOnEvent(tick=120, channel=0, data=[44, 24]),
   midi.NoteOnEvent(tick=0, channel=0, data=[54, 24]),
   midi.NoteOnEvent(tick=0, channel=0, data=[60, 28]),
   midi.NoteOnEvent(tick=120, channel=0, data=[60, 0]),
   midi.NoteOnEvent(tick=0, channel=0, data=[54, 0]),
   midi.NoteOnEvent(tick=0, channel=0, data=[44, 0]),
   midi.NoteOnEvent(tick=0, channel=0, data=[37, 31]),
   midi.NoteOnEvent(tick=0, channel=0, data=[52, 31]),
   midi.NoteOnEvent(tick=395, channel=0, data=[52, 0]),
   midi.NoteOnEvent(tick=0, channel=0, data=[37, 0]),
   midi.EndOfTrackEvent(tick=0, data=[])])])
midi.write_midifile("creationMidi.mid", pattern)