midi.Pattern(format=1, resolution=480, tracks=\
[midi.Track(\
  [midi.TrackNameEvent(tick=0, text='Sonata Hoboken XVI:8 2. Satz', data=[83, 111, 110, 97, 116, 97, 32, 72, 111, 98, 111, 107, 101, 110, 32, 88, 86, 73, 58, 56, 32, 50, 46, 32, 83, 97, 116, 122]),
   midi.CopyrightMetaEvent(tick=0, text='Copyright © 2009 by Bernd Krueger', data=[67, 111, 112, 121, 114, 105, 103, 104, 116, 32, 169, 32, 50, 48, 48, 57, 32, 98, 121, 32, 66, 101, 114, 110, 100, 32, 75, 114, 117, 101, 103, 101, 114]),
   midi.TextMetaEvent(tick=0, text='Joseph Haydn', data=[74, 111, 115, 101, 112, 104, 32, 72, 97, 121, 100, 110]),
   midi.TextMetaEvent(tick=0, text='Menuett', data=[77, 101, 110, 117, 101, 116, 116]),
   midi.TextMetaEvent(tick=0, text='Erstellt: 14.2.2009\n', data=[69, 114, 115, 116, 101, 108, 108, 116, 58, 32, 49, 52, 46, 50, 46, 50, 48, 48, 57, 10]),
   midi.TextMetaEvent(tick=0, text='Update: 14.11.2011\n', data=[85, 112, 100, 97, 116, 101, 58, 32, 49, 52, 46, 49, 49, 46, 50, 48, 49, 49, 10]),
   midi.TextMetaEvent(tick=0, text='Dauer: 0:57 Minuten\n', data=[68, 97, 117, 101, 114, 58, 32, 48, 58, 53, 55, 32, 77, 105, 110, 117, 116, 101, 110, 10]),
   midi.TimeSignatureEvent(tick=0, data=[3, 2, 24, 8]),
   midi.KeySignatureEvent(tick=0, data=[1, 0]),
   midi.SetTempoEvent(tick=0, data=[9, 39, 192]),
   midi.SetTempoEvent(tick=1440, data=[8, 194, 211]),
   midi.SetTempoEvent(tick=360, data=[9, 112, 61]),
   midi.SetTempoEvent(tick=120, data=[9, 28, 23]),
   midi.SetTempoEvent(tick=960, data=[8, 216, 126]),
   midi.SetTempoEvent(tick=240, data=[9, 63, 109]),
   midi.SetTempoEvent(tick=240, data=[8, 216, 126]),
   midi.SetTempoEvent(tick=240, data=[9, 137, 104]),
   midi.SetTempoEvent(tick=240, data=[8, 216, 126]),
   midi.SetTempoEvent(tick=240, data=[9, 202, 175]),
   midi.SetTempoEvent(tick=240, data=[8, 249, 203]),
   midi.SetTempoEvent(tick=58, data=[9, 39, 192]),
   midi.SetTempoEvent(tick=57, data=[9, 28, 23]),
   midi.SetTempoEvent(tick=58, data=[9, 16, 139]),
   midi.SetTempoEvent(tick=57, data=[9, 5, 29]),
   midi.SetTempoEvent(tick=58, data=[8, 249, 203]),
   midi.SetTempoEvent(tick=58, data=[8, 238, 150]),
   midi.SetTempoEvent(tick=57, data=[8, 227, 124]),
   midi.SetTempoEvent(tick=39, data=[8, 205, 155]),
   midi.SetTempoEvent(tick=115, data=[8, 216, 126]),
   midi.SetTempoEvent(tick=96, data=[8, 227, 124]),
   midi.SetTempoEvent(tick=96, data=[8, 238, 150]),
   midi.SetTempoEvent(tick=96, data=[8, 249, 203]),
   midi.SetTempoEvent(tick=115, data=[8, 249, 203]),
   midi.SetTempoEvent(tick=840, data=[9, 243, 142]),
   midi.SetTempoEvent(tick=120, data=[8, 238, 150]),
   midi.SetTempoEvent(tick=720, data=[9, 75, 113]),
   midi.SetTempoEvent(tick=240, data=[8, 216, 126]),
   midi.SetTempoEvent(tick=320, data=[9, 112, 61]),
   midi.SetTempoEvent(tick=160, data=[8, 238, 150]),
   midi.SetTempoEvent(tick=800, data=[9, 176, 41]),
   midi.SetTempoEvent(tick=160, data=[8, 227, 124]),
   midi.SetTempoEvent(tick=320, data=[9, 112, 61]),
   midi.SetTempoEvent(tick=160, data=[8, 249, 203]),
   midi.SetTempoEvent(tick=480, data=[9, 75, 113]),
   midi.SetTempoEvent(tick=38, data=[9, 63, 109]),
   midi.SetTempoEvent(tick=39, data=[9, 51, 135]),
   midi.SetTempoEvent(tick=38, data=[9, 39, 192]),
   midi.SetTempoEvent(tick=19, data=[9, 28, 23]),
   midi.SetTempoEvent(tick=39, data=[9, 16, 139]),
   midi.SetTempoEvent(tick=38, data=[8, 238, 150]),
   midi.SetTempoEvent(tick=39, data=[8, 249, 203]),
   midi.SetTempoEvent(tick=19, data=[9, 5, 29]),
   midi.SetTempoEvent(tick=19, data=[9, 16, 139]),
   midi.SetTempoEvent(tick=19, data=[9, 28, 23]),
   midi.SetTempoEvent(tick=19, data=[9, 39, 192]),
   midi.SetTempoEvent(tick=20, data=[9, 51, 135]),
   midi.SetTempoEvent(tick=38, data=[9, 63, 109]),
   midi.SetTempoEvent(tick=19, data=[9, 75, 113]),
   midi.SetTempoEvent(tick=19, data=[9, 87, 149]),
   midi.SetTempoEvent(tick=20, data=[9, 99, 217]),
   midi.SetTempoEvent(tick=19, data=[9, 112, 61]),
   midi.SetTempoEvent(tick=19, data=[9, 176, 41]),
   midi.SetTempoEvent(tick=1440, data=[9, 39, 192]),
   midi.SetTempoEvent(tick=1440, data=[8, 194, 211]),
   midi.SetTempoEvent(tick=360, data=[9, 112, 61]),
   midi.SetTempoEvent(tick=120, data=[9, 28, 23]),
   midi.SetTempoEvent(tick=960, data=[8, 216, 126]),
   midi.SetTempoEvent(tick=240, data=[9, 63, 109]),
   midi.SetTempoEvent(tick=240, data=[8, 216, 126]),
   midi.SetTempoEvent(tick=240, data=[9, 137, 104]),
   midi.SetTempoEvent(tick=240, data=[8, 216, 126]),
   midi.SetTempoEvent(tick=240, data=[9, 202, 175]),
   midi.SetTempoEvent(tick=240, data=[8, 249, 203]),
   midi.SetTempoEvent(tick=58, data=[9, 39, 192]),
   midi.SetTempoEvent(tick=57, data=[9, 28, 23]),
   midi.SetTempoEvent(tick=58, data=[9, 16, 139]),
   midi.SetTempoEvent(tick=57, data=[9, 5, 29]),
   midi.SetTempoEvent(tick=58, data=[8, 249, 203]),
   midi.SetTempoEvent(tick=58, data=[8, 238, 150]),
   midi.SetTempoEvent(tick=57, data=[8, 227, 124]),
   midi.SetTempoEvent(tick=39, data=[8, 205, 155]),
   midi.SetTempoEvent(tick=115, data=[8, 216, 126]),
   midi.SetTempoEvent(tick=96, data=[8, 227, 124]),
   midi.SetTempoEvent(tick=96, data=[8, 238, 150]),
   midi.SetTempoEvent(tick=96, data=[8, 249, 203]),
   midi.SetTempoEvent(tick=115, data=[8, 249, 203]),
   midi.SetTempoEvent(tick=840, data=[9, 243, 142]),
   midi.SetTempoEvent(tick=120, data=[8, 238, 150]),
   midi.SetTempoEvent(tick=720, data=[9, 75, 113]),
   midi.SetTempoEvent(tick=240, data=[8, 216, 126]),
   midi.SetTempoEvent(tick=320, data=[9, 112, 61]),
   midi.SetTempoEvent(tick=160, data=[8, 238, 150]),
   midi.SetTempoEvent(tick=800, data=[9, 176, 41]),
   midi.SetTempoEvent(tick=160, data=[8, 227, 124]),
   midi.SetTempoEvent(tick=320, data=[9, 112, 61]),
   midi.SetTempoEvent(tick=160, data=[8, 249, 203]),
   midi.SetTempoEvent(tick=480, data=[9, 75, 113]),
   midi.SetTempoEvent(tick=38, data=[9, 63, 109]),
   midi.SetTempoEvent(tick=39, data=[9, 51, 135]),
   midi.SetTempoEvent(tick=38, data=[9, 39, 192]),
   midi.SetTempoEvent(tick=19, data=[9, 28, 23]),
   midi.SetTempoEvent(tick=39, data=[9, 16, 139]),
   midi.SetTempoEvent(tick=38, data=[8, 238, 150]),
   midi.SetTempoEvent(tick=39, data=[8, 249, 203]),
   midi.SetTempoEvent(tick=19, data=[9, 5, 29]),
   midi.SetTempoEvent(tick=19, data=[9, 16, 139]),
   midi.SetTempoEvent(tick=19, data=[9, 28, 23]),
   midi.SetTempoEvent(tick=19, data=[9, 39, 192]),
   midi.SetTempoEvent(tick=20, data=[9, 51, 135]),
   midi.SetTempoEvent(tick=38, data=[9, 63, 109]),
   midi.SetTempoEvent(tick=19, data=[9, 75, 113]),
   midi.SetTempoEvent(tick=19, data=[9, 87, 149]),
   midi.SetTempoEvent(tick=20, data=[9, 99, 217]),
   midi.SetTempoEvent(tick=19, data=[9, 112, 61]),
   midi.SetTempoEvent(tick=19, data=[9, 176, 41]),
   midi.SetTempoEvent(tick=1440, data=[9, 39, 192]),
   midi.SetTempoEvent(tick=1440, data=[8, 194, 211]),
   midi.SetTempoEvent(tick=360, data=[9, 112, 61]),
   midi.SetTempoEvent(tick=120, data=[9, 28, 23]),
   midi.SetTempoEvent(tick=960, data=[8, 216, 126]),
   midi.SetTempoEvent(tick=240, data=[9, 63, 109]),
   midi.SetTempoEvent(tick=240, data=[8, 216, 126]),
   midi.SetTempoEvent(tick=240, data=[9, 137, 104]),
   midi.SetTempoEvent(tick=240, data=[8, 216, 126]),
   midi.SetTempoEvent(tick=240, data=[9, 202, 175]),
   midi.SetTempoEvent(tick=240, data=[8, 249, 203]),
   midi.SetTempoEvent(tick=58, data=[9, 39, 192]),
   midi.SetTempoEvent(tick=57, data=[9, 28, 23]),
   midi.SetTempoEvent(tick=58, data=[9, 16, 139]),
   midi.SetTempoEvent(tick=57, data=[9, 5, 29]),
   midi.SetTempoEvent(tick=58, data=[8, 249, 203]),
   midi.SetTempoEvent(tick=58, data=[8, 238, 150]),
   midi.SetTempoEvent(tick=57, data=[8, 227, 124]),
   midi.SetTempoEvent(tick=39, data=[8, 205, 155]),
   midi.SetTempoEvent(tick=115, data=[8, 216, 126]),
   midi.SetTempoEvent(tick=96, data=[8, 227, 124]),
   midi.SetTempoEvent(tick=96, data=[8, 238, 150]),
   midi.SetTempoEvent(tick=96, data=[8, 249, 203]),
   midi.SetTempoEvent(tick=115, data=[8, 249, 203]),
   midi.SetTempoEvent(tick=480, data=[8, 249, 203]),
   midi.SetTempoEvent(tick=360, data=[9, 243, 142]),
   midi.SetTempoEvent(tick=120, data=[8, 238, 150]),
   midi.SetTempoEvent(tick=720, data=[9, 75, 113]),
   midi.SetTempoEvent(tick=240, data=[8, 249, 203]),
   midi.SetTempoEvent(tick=360, data=[9, 243, 142]),
   midi.SetTempoEvent(tick=120, data=[8, 238, 150]),
   midi.SetTempoEvent(tick=720, data=[9, 75, 113]),
   midi.SetTempoEvent(tick=560, data=[9, 112, 61]),
   midi.SetTempoEvent(tick=160, data=[8, 249, 203]),
   midi.SetTempoEvent(tick=480, data=[9, 75, 113]),
   midi.SetTempoEvent(tick=38, data=[9, 63, 109]),
   midi.SetTempoEvent(tick=39, data=[9, 51, 135]),
   midi.SetTempoEvent(tick=38, data=[9, 39, 192]),
   midi.SetTempoEvent(tick=19, data=[9, 28, 23]),
   midi.SetTempoEvent(tick=39, data=[9, 16, 139]),
   midi.SetTempoEvent(tick=38, data=[8, 238, 150]),
   midi.SetTempoEvent(tick=39, data=[8, 249, 203]),
   midi.SetTempoEvent(tick=19, data=[9, 5, 29]),
   midi.SetTempoEvent(tick=19, data=[9, 16, 139]),
   midi.SetTempoEvent(tick=19, data=[9, 28, 23]),
   midi.SetTempoEvent(tick=19, data=[9, 39, 192]),
   midi.SetTempoEvent(tick=20, data=[9, 51, 135]),
   midi.SetTempoEvent(tick=38, data=[9, 63, 109]),
   midi.SetTempoEvent(tick=19, data=[9, 75, 113]),
   midi.SetTempoEvent(tick=19, data=[9, 87, 149]),
   midi.SetTempoEvent(tick=20, data=[9, 99, 217]),
   midi.SetTempoEvent(tick=19, data=[9, 112, 61]),
   midi.SetTempoEvent(tick=19, data=[9, 176, 41]),
   midi.SetTempoEvent(tick=1440, data=[9, 39, 192]),
   midi.SetTempoEvent(tick=1440, data=[8, 194, 211]),
   midi.SetTempoEvent(tick=360, data=[9, 112, 61]),
   midi.SetTempoEvent(tick=120, data=[9, 28, 23]),
   midi.SetTempoEvent(tick=960, data=[8, 216, 126]),
   midi.SetTempoEvent(tick=240, data=[9, 63, 109]),
   midi.SetTempoEvent(tick=240, data=[8, 216, 126]),
   midi.SetTempoEvent(tick=240, data=[9, 137, 104]),
   midi.SetTempoEvent(tick=240, data=[8, 216, 126]),
   midi.SetTempoEvent(tick=240, data=[9, 202, 175]),
   midi.SetTempoEvent(tick=240, data=[8, 249, 203]),
   midi.SetTempoEvent(tick=58, data=[9, 39, 192]),
   midi.SetTempoEvent(tick=57, data=[9, 28, 23]),
   midi.SetTempoEvent(tick=58, data=[9, 16, 139]),
   midi.SetTempoEvent(tick=57, data=[9, 5, 29]),
   midi.SetTempoEvent(tick=58, data=[8, 249, 203]),
   midi.SetTempoEvent(tick=58, data=[8, 238, 150]),
   midi.SetTempoEvent(tick=57, data=[8, 227, 124]),
   midi.SetTempoEvent(tick=39, data=[8, 205, 155]),
   midi.SetTempoEvent(tick=115, data=[8, 216, 126]),
   midi.SetTempoEvent(tick=96, data=[8, 227, 124]),
   midi.SetTempoEvent(tick=96, data=[8, 238, 150]),
   midi.SetTempoEvent(tick=96, data=[8, 249, 203]),
   midi.SetTempoEvent(tick=115, data=[8, 249, 203]),
   midi.SetTempoEvent(tick=480, data=[8, 249, 203]),
   midi.SetTempoEvent(tick=360, data=[9, 243, 142]),
   midi.SetTempoEvent(tick=120, data=[8, 238, 150]),
   midi.SetTempoEvent(tick=720, data=[9, 75, 113]),
   midi.SetTempoEvent(tick=240, data=[8, 249, 203]),
   midi.SetTempoEvent(tick=360, data=[9, 243, 142]),
   midi.SetTempoEvent(tick=120, data=[8, 238, 150]),
   midi.SetTempoEvent(tick=720, data=[9, 75, 113]),
   midi.SetTempoEvent(tick=560, data=[9, 112, 61]),
   midi.SetTempoEvent(tick=160, data=[8, 249, 203]),
   midi.SetTempoEvent(tick=480, data=[9, 75, 113]),
   midi.SetTempoEvent(tick=38, data=[9, 63, 109]),
   midi.SetTempoEvent(tick=39, data=[9, 51, 135]),
   midi.SetTempoEvent(tick=38, data=[9, 39, 192]),
   midi.SetTempoEvent(tick=19, data=[9, 28, 23]),
   midi.SetTempoEvent(tick=39, data=[9, 16, 139]),
   midi.SetTempoEvent(tick=38, data=[8, 238, 150]),
   midi.SetTempoEvent(tick=39, data=[8, 249, 203]),
   midi.SetTempoEvent(tick=19, data=[9, 5, 29]),
   midi.SetTempoEvent(tick=19, data=[9, 16, 139]),
   midi.SetTempoEvent(tick=19, data=[9, 28, 23]),
   midi.SetTempoEvent(tick=19, data=[9, 39, 192]),
   midi.SetTempoEvent(tick=20, data=[9, 51, 135]),
   midi.SetTempoEvent(tick=38, data=[9, 63, 109]),
   midi.SetTempoEvent(tick=19, data=[9, 75, 113]),
   midi.SetTempoEvent(tick=19, data=[9, 87, 149]),
   midi.SetTempoEvent(tick=20, data=[9, 99, 217]),
   midi.SetTempoEvent(tick=19, data=[9, 112, 61]),
   midi.SetTempoEvent(tick=19, data=[10, 1, 122]),
   midi.SetTempoEvent(tick=480, data=[11, 227, 213]),
   midi.EndOfTrackEvent(tick=0, data=[])]),
 midi.Track(\
  [midi.TrackNameEvent(tick=0, text='Piano right', data=[80, 105, 97, 110, 111, 32, 114, 105, 103, 104, 116]),
   midi.ProgramChangeEvent(tick=0, channel=0, data=[0]),
   midi.NoteOnEvent(tick=0, channel=0, data=[67, 48]),
   midi.NoteOnEvent(tick=480, channel=0, data=[67, 0]),
   midi.NoteOnEvent(tick=0, channel=0, data=[71, 50]),
   midi.NoteOnEvent(tick=480, channel=0, data=[71, 0]),
   midi.NoteOnEvent(tick=480, channel=0, data=[69, 50]),
   midi.NoteOnEvent(tick=120, channel=0, data=[69, 0]),
   midi.NoteOnEvent(tick=0, channel=0, data=[67, 45]),
   midi.NoteOnEvent(tick=120, channel=0, data=[67, 0]),
   midi.NoteOnEvent(tick=0, channel=0, data=[69, 45]),
   midi.NoteOnEvent(tick=120, channel=0, data=[69, 0]),
   midi.NoteOnEvent(tick=0, channel=0, data=[71, 45]),
   midi.NoteOnEvent(tick=120, channel=0, data=[71, 0]),
   midi.NoteOnEvent(tick=0, channel=0, data=[72, 50]),
   midi.NoteOnEvent(tick=480, channel=0, data=[72, 0]),
   midi.NoteOnEvent(tick=480, channel=0, data=[72, 50]),
   midi.NoteOnEvent(tick=240, channel=0, data=[72, 0]),
   midi.NoteOnEvent(tick=0, channel=0, data=[71, 49]),
   midi.NoteOnEvent(tick=240, channel=0, data=[71, 0]),
   midi.NoteOnEvent(tick=0, channel=0, data=[76, 55]),
   midi.NoteOnEvent(tick=240, channel=0, data=[76, 0]),
   midi.NoteOnEvent(tick=0, channel=0, data=[74, 50]),
   midi.NoteOnEvent(tick=240, channel=0, data=[74, 0]),
   midi.NoteOnEvent(tick=0, channel=0, data=[79, 55]),
   midi.NoteOnEvent(tick=160, channel=0, data=[79, 0]),
   midi.NoteOnEvent(tick=0, channel=0, data=[78, 50]),
   midi.NoteOnEvent(tick=160, channel=0, data=[78, 0]),
   midi.NoteOnEvent(tick=0, channel=0, data=[76, 50]),
   midi.NoteOnEvent(tick=160, channel=0, data=[76, 0]),
   midi.NoteOnEvent(tick=0, channel=0, data=[74, 57]),
   midi.NoteOnEvent(tick=480, channel=0, data=[74, 0]),
   midi.NoteOnEvent(tick=0, channel=0, data=[72, 59]),
   midi.NoteOnEvent(tick=80, channel=0, data=[72, 0]),
   midi.NoteOnEvent(tick=0, channel=0, data=[74, 50]),
   midi.NoteOnEvent(tick=80, channel=0, data=[74, 0]),
   midi.NoteOnEvent(tick=0, channel=0, data=[72, 50]),
   midi.NoteOnEvent(tick=80, channel=0, data=[72, 0]),
   midi.NoteOnEvent(tick=0, channel=0, data=[71, 53]),
   midi.NoteOnEvent(tick=120, channel=0, data=[71, 0]),
   midi.NoteOnEvent(tick=0, channel=0, data=[72, 44]),
   midi.NoteOnEvent(tick=120, channel=0, data=[72, 0]),
   midi.NoteOnEvent(tick=0, channel=0, data=[71, 50]),
   midi.NoteOnEvent(tick=480, channel=0, data=[71, 0]),
   midi.NoteOnEvent(tick=0, channel=0, data=[83, 64]),
   midi.NoteOnEvent(tick=120, channel=0, data=[83, 0]),
   midi.NoteOnEvent(tick=0, channel=0, data=[81, 60]),
   midi.NoteOnEvent(tick=120, channel=0, data=[81, 0]),
   midi.NoteOnEvent(tick=0, channel=0, data=[83, 58]),
   midi.NoteOnEvent(tick=120, channel=0, data=[83, 0]),
   midi.NoteOnEvent(tick=0, channel=0, data=[84, 60]),
   midi.NoteOnEvent(tick=120, channel=0, data=[84, 0]),
   midi.NoteOnEvent(tick=0, channel=0, data=[86, 64]),
   midi.NoteOnEvent(tick=240, channel=0, data=[86, 0]),
   midi.NoteOnEvent(tick=720, channel=0, data=[81, 69]),
   midi.NoteOnEvent(tick=160, channel=0, data=[81, 0]),
   midi.NoteOnEvent(tick=0, channel=0, data=[83, 61]),
   midi.NoteOnEvent(tick=160, channel=0, data=[83, 0]),
   midi.NoteOnEvent(tick=0, channel=0, data=[81, 61]),
   midi.NoteOnEvent(tick=160, channel=0, data=[81, 0]),
   midi.NoteOnEvent(tick=0, channel=0, data=[86, 72]),
   midi.NoteOnEvent(tick=160, channel=0, data=[86, 0]),
   midi.NoteOnEvent(tick=0, channel=0, data=[85, 64]),
   midi.NoteOnEvent(tick=160, channel=0, data=[85, 0]),
   midi.NoteOnEvent(tick=0, channel=0, data=[83, 64]),
   midi.NoteOnEvent(tick=160, channel=0, data=[83, 0]),
   midi.NoteOnEvent(tick=0, channel=0, data=[81, 69]),
   midi.NoteOnEvent(tick=160, channel=0, data=[81, 0]),
   midi.NoteOnEvent(tick=0, channel=0, data=[79, 62]),
   midi.NoteOnEvent(tick=160, channel=0, data=[79, 0]),
   midi.NoteOnEvent(tick=0, channel=0, data=[78, 62]),
   midi.NoteOnEvent(tick=160, channel=0, data=[78, 0]),
   midi.NoteOnEvent(tick=0, channel=0, data=[76, 69]),
   midi.NoteOnEvent(tick=160, channel=0, data=[76, 0]),
   midi.NoteOnEvent(tick=0, channel=0, data=[79, 60]),
   midi.NoteOnEvent(tick=160, channel=0, data=[79, 0]),
   midi.NoteOnEvent(tick=0, channel=0, data=[83, 60]),
   midi.NoteOnEvent(tick=160, channel=0, data=[83, 0]),
   midi.NoteOnEvent(tick=0, channel=0, data=[74, 68]),
   midi.NoteOnEvent(tick=480, channel=0, data=[74, 0]),
   midi.NoteOnEvent(tick=0, channel=0, data=[73, 66]),
   midi.NoteOnEvent(tick=80, channel=0, data=[73, 0]),
   midi.NoteOnEvent(tick=0, channel=0, data=[74, 60]),
   midi.NoteOnEvent(tick=80, channel=0, data=[74, 0]),
   midi.NoteOnEvent(tick=0, channel=0, data=[73, 60]),
   midi.NoteOnEvent(tick=80, channel=0, data=[73, 0]),
   midi.NoteOnEvent(tick=0, channel=0, data=[74, 64]),
   midi.NoteOnEvent(tick=60, channel=0, data=[74, 0]),
   midi.NoteOnEvent(tick=0, channel=0, data=[73, 52]),
   midi.NoteOnEvent(tick=60, channel=0, data=[73, 0]),
   midi.NoteOnEvent(tick=0, channel=0, data=[71, 53]),
   midi.NoteOnEvent(tick=60, channel=0, data=[71, 0]),
   midi.NoteOnEvent(tick=0, channel=0, data=[73, 59]),
   midi.NoteOnEvent(tick=60, channel=0, data=[73, 0]),
   midi.NoteOnEvent(tick=0, channel=0, data=[74, 68]),
   midi.NoteOnEvent(tick=480, channel=0, data=[74, 0]),
   midi.NoteOnEvent(tick=960, channel=0, data=[67, 48]),
   midi.NoteOnEvent(tick=480, channel=0, data=[67, 0]),
   midi.NoteOnEvent(tick=0, channel=0, data=[71, 50]),
   midi.NoteOnEvent(tick=480, channel=0, data=[71, 0]),
   midi.NoteOnEvent(tick=480, channel=0, data=[69, 50]),
   midi.NoteOnEvent(tick=120, channel=0, data=[69, 0]),
   midi.NoteOnEvent(tick=0, channel=0, data=[67, 45]),
   midi.NoteOnEvent(tick=120, channel=0, data=[67, 0]),
   midi.NoteOnEvent(tick=0, channel=0, data=[69, 45]),
   midi.NoteOnEvent(tick=120, channel=0, data=[69, 0]),
   midi.NoteOnEvent(tick=0, channel=0, data=[71, 45]),
   midi.NoteOnEvent(tick=120, channel=0, data=[71, 0]),
   midi.NoteOnEvent(tick=0, channel=0, data=[72, 50]),
   midi.NoteOnEvent(tick=480, channel=0, data=[72, 0]),
   midi.NoteOnEvent(tick=480, channel=0, data=[72, 50]),
   midi.NoteOnEvent(tick=240, channel=0, data=[72, 0]),
   midi.NoteOnEvent(tick=0, channel=0, data=[71, 49]),
   midi.NoteOnEvent(tick=240, channel=0, data=[71, 0]),
   midi.NoteOnEvent(tick=0, channel=0, data=[76, 55]),
   midi.NoteOnEvent(tick=240, channel=0, data=[76, 0]),
   midi.NoteOnEvent(tick=0, channel=0, data=[74, 50]),
   midi.NoteOnEvent(tick=240, channel=0, data=[74, 0]),
   midi.NoteOnEvent(tick=0, channel=0, data=[79, 55]),
   midi.NoteOnEvent(tick=160, channel=0, data=[79, 0]),
   midi.NoteOnEvent(tick=0, channel=0, data=[78, 50]),
   midi.NoteOnEvent(tick=160, channel=0, data=[78, 0]),
   midi.NoteOnEvent(tick=0, channel=0, data=[76, 50]),
   midi.NoteOnEvent(tick=160, channel=0, data=[76, 0]),
   midi.NoteOnEvent(tick=0, channel=0, data=[74, 57]),
   midi.NoteOnEvent(tick=480, channel=0, data=[74, 0]),
   midi.NoteOnEvent(tick=0, channel=0, data=[72, 59]),
   midi.NoteOnEvent(tick=80, channel=0, data=[72, 0]),
   midi.NoteOnEvent(tick=0, channel=0, data=[74, 50]),
   midi.NoteOnEvent(tick=80, channel=0, data=[74, 0]),
   midi.NoteOnEvent(tick=0, channel=0, data=[72, 50]),
   midi.NoteOnEvent(tick=80, channel=0, data=[72, 0]),
   midi.NoteOnEvent(tick=0, channel=0, data=[71, 53]),
   midi.NoteOnEvent(tick=120, channel=0, data=[71, 0]),
   midi.NoteOnEvent(tick=0, channel=0, data=[72, 44]),
   midi.NoteOnEvent(tick=120, channel=0, data=[72, 0]),
   midi.NoteOnEvent(tick=0, channel=0, data=[71, 50]),
   midi.NoteOnEvent(tick=480, channel=0, data=[71, 0]),
   midi.NoteOnEvent(tick=0, channel=0, data=[83, 64]),
   midi.NoteOnEvent(tick=120, channel=0, data=[83, 0]),
   midi.NoteOnEvent(tick=0, channel=0, data=[81, 60]),
   midi.NoteOnEvent(tick=120, channel=0, data=[81, 0]),
   midi.NoteOnEvent(tick=0, channel=0, data=[83, 58]),
   midi.NoteOnEvent(tick=120, channel=0, data=[83, 0]),
   midi.NoteOnEvent(tick=0, channel=0, data=[84, 60]),
   midi.NoteOnEvent(tick=120, channel=0, data=[84, 0]),
   midi.NoteOnEvent(tick=0, channel=0, data=[86, 64]),
   midi.NoteOnEvent(tick=240, channel=0, data=[86, 0]),
   midi.NoteOnEvent(tick=720, channel=0, data=[81, 69]),
   midi.NoteOnEvent(tick=160, channel=0, data=[81, 0]),
   midi.NoteOnEvent(tick=0, channel=0, data=[83, 61]),
   midi.NoteOnEvent(tick=160, channel=0, data=[83, 0]),
   midi.NoteOnEvent(tick=0, channel=0, data=[81, 61]),
   midi.NoteOnEvent(tick=160, channel=0, data=[81, 0]),
   midi.NoteOnEvent(tick=0, channel=0, data=[86, 72]),
   midi.NoteOnEvent(tick=160, channel=0, data=[86, 0]),
   midi.NoteOnEvent(tick=0, channel=0, data=[85, 64]),
   midi.NoteOnEvent(tick=160, channel=0, data=[85, 0]),
   midi.NoteOnEvent(tick=0, channel=0, data=[83, 64]),
   midi.NoteOnEvent(tick=160, channel=0, data=[83, 0]),
   midi.NoteOnEvent(tick=0, channel=0, data=[81, 69]),
   midi.NoteOnEvent(tick=160, channel=0, data=[81, 0]),
   midi.NoteOnEvent(tick=0, channel=0, data=[79, 62]),
   midi.NoteOnEvent(tick=160, channel=0, data=[79, 0]),
   midi.NoteOnEvent(tick=0, channel=0, data=[78, 62]),
   midi.NoteOnEvent(tick=160, channel=0, data=[78, 0]),
   midi.NoteOnEvent(tick=0, channel=0, data=[76, 69]),
   midi.NoteOnEvent(tick=160, channel=0, data=[76, 0]),
   midi.NoteOnEvent(tick=0, channel=0, data=[79, 60]),
   midi.NoteOnEvent(tick=160, channel=0, data=[79, 0]),
   midi.NoteOnEvent(tick=0, channel=0, data=[83, 60]),
   midi.NoteOnEvent(tick=160, channel=0, data=[83, 0]),
   midi.NoteOnEvent(tick=0, channel=0, data=[74, 68]),
   midi.NoteOnEvent(tick=480, channel=0, data=[74, 0]),
   midi.NoteOnEvent(tick=0, channel=0, data=[73, 66]),
   midi.NoteOnEvent(tick=80, channel=0, data=[73, 0]),
   midi.NoteOnEvent(tick=0, channel=0, data=[74, 60]),
   midi.NoteOnEvent(tick=80, channel=0, data=[74, 0]),
   midi.NoteOnEvent(tick=0, channel=0, data=[73, 60]),
   midi.NoteOnEvent(tick=80, channel=0, data=[73, 0]),
   midi.NoteOnEvent(tick=0, channel=0, data=[74, 64]),
   midi.NoteOnEvent(tick=60, channel=0, data=[74, 0]),
   midi.NoteOnEvent(tick=0, channel=0, data=[73, 52]),
   midi.NoteOnEvent(tick=60, channel=0, data=[73, 0]),
   midi.NoteOnEvent(tick=0, channel=0, data=[71, 53]),
   midi.NoteOnEvent(tick=60, channel=0, data=[71, 0]),
   midi.NoteOnEvent(tick=0, channel=0, data=[73, 59]),
   midi.NoteOnEvent(tick=60, channel=0, data=[73, 0]),
   midi.NoteOnEvent(tick=0, channel=0, data=[74, 68]),
   midi.NoteOnEvent(tick=480, channel=0, data=[74, 0]),
   midi.NoteOnEvent(tick=960, channel=0, data=[74, 48]),
   midi.NoteOnEvent(tick=480, channel=0, data=[74, 0]),
   midi.NoteOnEvent(tick=0, channel=0, data=[71, 50]),
   midi.NoteOnEvent(tick=480, channel=0, data=[71, 0]),
   midi.NoteOnEvent(tick=480, channel=0, data=[72, 50]),
   midi.NoteOnEvent(tick=120, channel=0, data=[72, 0]),
   midi.NoteOnEvent(tick=0, channel=0, data=[71, 45]),
   midi.NoteOnEvent(tick=120, channel=0, data=[71, 0]),
   midi.NoteOnEvent(tick=0, channel=0, data=[72, 45]),
   midi.NoteOnEvent(tick=120, channel=0, data=[72, 0]),
   midi.NoteOnEvent(tick=0, channel=0, data=[74, 45]),
   midi.NoteOnEvent(tick=120, channel=0, data=[74, 0]),
   midi.NoteOnEvent(tick=0, channel=0, data=[76, 50]),
   midi.NoteOnEvent(tick=480, channel=0, data=[76, 0]),
   midi.NoteOnEvent(tick=480, channel=0, data=[72, 50]),
   midi.NoteOnEvent(tick=240, channel=0, data=[72, 0]),
   midi.NoteOnEvent(tick=0, channel=0, data=[69, 49]),
   midi.NoteOnEvent(tick=240, channel=0, data=[69, 0]),
   midi.NoteOnEvent(tick=0, channel=0, data=[71, 55]),
   midi.NoteOnEvent(tick=240, channel=0, data=[71, 0]),
   midi.NoteOnEvent(tick=0, channel=0, data=[67, 50]),
   midi.NoteOnEvent(tick=240, channel=0, data=[67, 0]),
   midi.NoteOnEvent(tick=0, channel=0, data=[79, 64]),
   midi.NoteOnEvent(tick=160, channel=0, data=[79, 0]),
   midi.NoteOnEvent(tick=0, channel=0, data=[78, 57]),
   midi.NoteOnEvent(tick=160, channel=0, data=[78, 0]),
   midi.NoteOnEvent(tick=0, channel=0, data=[76, 56]),
   midi.NoteOnEvent(tick=160, channel=0, data=[76, 0]),
   midi.NoteOnEvent(tick=0, channel=0, data=[74, 65]),
   midi.NoteOnEvent(tick=480, channel=0, data=[74, 0]),
   midi.NoteOnEvent(tick=0, channel=0, data=[72, 59]),
   midi.NoteOnEvent(tick=80, channel=0, data=[72, 0]),
   midi.NoteOnEvent(tick=0, channel=0, data=[74, 50]),
   midi.NoteOnEvent(tick=80, channel=0, data=[74, 0]),
   midi.NoteOnEvent(tick=0, channel=0, data=[72, 50]),
   midi.NoteOnEvent(tick=80, channel=0, data=[72, 0]),
   midi.NoteOnEvent(tick=0, channel=0, data=[71, 53]),
   midi.NoteOnEvent(tick=120, channel=0, data=[71, 0]),
   midi.NoteOnEvent(tick=0, channel=0, data=[72, 44]),
   midi.NoteOnEvent(tick=120, channel=0, data=[72, 0]),
   midi.NoteOnEvent(tick=0, channel=0, data=[71, 50]),
   midi.NoteOnEvent(tick=480, channel=0, data=[71, 0]),
   midi.NoteOnEvent(tick=0, channel=0, data=[76, 64]),
   midi.NoteOnEvent(tick=120, channel=0, data=[76, 0]),
   midi.NoteOnEvent(tick=0, channel=0, data=[74, 60]),
   midi.NoteOnEvent(tick=120, channel=0, data=[74, 0]),
   midi.NoteOnEvent(tick=0, channel=0, data=[76, 58]),
   midi.NoteOnEvent(tick=120, channel=0, data=[76, 0]),
   midi.NoteOnEvent(tick=0, channel=0, data=[78, 60]),
   midi.NoteOnEvent(tick=120, channel=0, data=[78, 0]),
   midi.NoteOnEvent(tick=0, channel=0, data=[79, 64]),
   midi.NoteOnEvent(tick=240, channel=0, data=[79, 0]),
   midi.NoteOnEvent(tick=0, channel=0, data=[79, 61]),
   midi.NoteOnEvent(tick=120, channel=0, data=[79, 0]),
   midi.NoteOnEvent(tick=120, channel=0, data=[79, 61]),
   midi.NoteOnEvent(tick=120, channel=0, data=[79, 0]),
   midi.NoteOnEvent(tick=120, channel=0, data=[79, 61]),
   midi.NoteOnEvent(tick=120, channel=0, data=[79, 0]),
   midi.NoteOnEvent(tick=120, channel=0, data=[78, 68]),
   midi.NoteOnEvent(tick=120, channel=0, data=[78, 0]),
   midi.NoteOnEvent(tick=0, channel=0, data=[76, 66]),
   midi.NoteOnEvent(tick=120, channel=0, data=[76, 0]),
   midi.NoteOnEvent(tick=0, channel=0, data=[78, 59]),
   midi.NoteOnEvent(tick=120, channel=0, data=[78, 0]),
   midi.NoteOnEvent(tick=0, channel=0, data=[79, 65]),
   midi.NoteOnEvent(tick=120, channel=0, data=[79, 0]),
   midi.NoteOnEvent(tick=0, channel=0, data=[81, 69]),
   midi.NoteOnEvent(tick=240, channel=0, data=[81, 0]),
   midi.NoteOnEvent(tick=0, channel=0, data=[72, 65]),
   midi.NoteOnEvent(tick=120, channel=0, data=[72, 0]),
   midi.NoteOnEvent(tick=120, channel=0, data=[72, 65]),
   midi.NoteOnEvent(tick=120, channel=0, data=[72, 0]),
   midi.NoteOnEvent(tick=120, channel=0, data=[71, 65]),
   midi.NoteOnEvent(tick=120, channel=0, data=[71, 0]),
   midi.NoteOnEvent(tick=120, channel=0, data=[69, 74]),
   midi.NoteOnEvent(tick=160, channel=0, data=[69, 0]),
   midi.NoteOnEvent(tick=0, channel=0, data=[72, 60]),
   midi.NoteOnEvent(tick=160, channel=0, data=[72, 0]),
   midi.NoteOnEvent(tick=0, channel=0, data=[76, 60]),
   midi.NoteOnEvent(tick=160, channel=0, data=[76, 0]),
   midi.NoteOnEvent(tick=0, channel=0, data=[67, 68]),
   midi.NoteOnEvent(tick=480, channel=0, data=[67, 0]),
   midi.NoteOnEvent(tick=0, channel=0, data=[66, 66]),
   midi.NoteOnEvent(tick=80, channel=0, data=[66, 0]),
   midi.NoteOnEvent(tick=0, channel=0, data=[67, 60]),
   midi.NoteOnEvent(tick=80, channel=0, data=[67, 0]),
   midi.NoteOnEvent(tick=0, channel=0, data=[66, 60]),
   midi.NoteOnEvent(tick=80, channel=0, data=[66, 0]),
   midi.NoteOnEvent(tick=0, channel=0, data=[67, 64]),
   midi.NoteOnEvent(tick=60, channel=0, data=[67, 0]),
   midi.NoteOnEvent(tick=0, channel=0, data=[66, 52]),
   midi.NoteOnEvent(tick=60, channel=0, data=[66, 0]),
   midi.NoteOnEvent(tick=0, channel=0, data=[64, 53]),
   midi.NoteOnEvent(tick=60, channel=0, data=[64, 0]),
   midi.NoteOnEvent(tick=0, channel=0, data=[66, 59]),
   midi.NoteOnEvent(tick=60, channel=0, data=[66, 0]),
   midi.NoteOnEvent(tick=0, channel=0, data=[67, 68]),
   midi.NoteOnEvent(tick=960, channel=0, data=[67, 0]),
   midi.NoteOnEvent(tick=480, channel=0, data=[74, 48]),
   midi.NoteOnEvent(tick=480, channel=0, data=[74, 0]),
   midi.NoteOnEvent(tick=0, channel=0, data=[71, 50]),
   midi.NoteOnEvent(tick=480, channel=0, data=[71, 0]),
   midi.NoteOnEvent(tick=480, channel=0, data=[72, 50]),
   midi.NoteOnEvent(tick=120, channel=0, data=[72, 0]),
   midi.NoteOnEvent(tick=0, channel=0, data=[71, 45]),
   midi.NoteOnEvent(tick=120, channel=0, data=[71, 0]),
   midi.NoteOnEvent(tick=0, channel=0, data=[72, 45]),
   midi.NoteOnEvent(tick=120, channel=0, data=[72, 0]),
   midi.NoteOnEvent(tick=0, channel=0, data=[74, 45]),
   midi.NoteOnEvent(tick=120, channel=0, data=[74, 0]),
   midi.NoteOnEvent(tick=0, channel=0, data=[76, 50]),
   midi.NoteOnEvent(tick=480, channel=0, data=[76, 0]),
   midi.NoteOnEvent(tick=480, channel=0, data=[72, 50]),
   midi.NoteOnEvent(tick=240, channel=0, data=[72, 0]),
   midi.NoteOnEvent(tick=0, channel=0, data=[69, 49]),
   midi.NoteOnEvent(tick=240, channel=0, data=[69, 0]),
   midi.NoteOnEvent(tick=0, channel=0, data=[71, 55]),
   midi.NoteOnEvent(tick=240, channel=0, data=[71, 0]),
   midi.NoteOnEvent(tick=0, channel=0, data=[67, 50]),
   midi.NoteOnEvent(tick=240, channel=0, data=[67, 0]),
   midi.NoteOnEvent(tick=0, channel=0, data=[79, 64]),
   midi.NoteOnEvent(tick=160, channel=0, data=[79, 0]),
   midi.NoteOnEvent(tick=0, channel=0, data=[78, 57]),
   midi.NoteOnEvent(tick=160, channel=0, data=[78, 0]),
   midi.NoteOnEvent(tick=0, channel=0, data=[76, 56]),
   midi.NoteOnEvent(tick=160, channel=0, data=[76, 0]),
   midi.NoteOnEvent(tick=0, channel=0, data=[74, 65]),
   midi.NoteOnEvent(tick=480, channel=0, data=[74, 0]),
   midi.NoteOnEvent(tick=0, channel=0, data=[72, 59]),
   midi.NoteOnEvent(tick=80, channel=0, data=[72, 0]),
   midi.NoteOnEvent(tick=0, channel=0, data=[74, 50]),
   midi.NoteOnEvent(tick=80, channel=0, data=[74, 0]),
   midi.NoteOnEvent(tick=0, channel=0, data=[72, 50]),
   midi.NoteOnEvent(tick=80, channel=0, data=[72, 0]),
   midi.NoteOnEvent(tick=0, channel=0, data=[71, 53]),
   midi.NoteOnEvent(tick=120, channel=0, data=[71, 0]),
   midi.NoteOnEvent(tick=0, channel=0, data=[72, 44]),
   midi.NoteOnEvent(tick=120, channel=0, data=[72, 0]),
   midi.NoteOnEvent(tick=0, channel=0, data=[71, 50]),
   midi.NoteOnEvent(tick=480, channel=0, data=[71, 0]),
   midi.NoteOnEvent(tick=0, channel=0, data=[76, 64]),
   midi.NoteOnEvent(tick=120, channel=0, data=[76, 0]),
   midi.NoteOnEvent(tick=0, channel=0, data=[74, 60]),
   midi.NoteOnEvent(tick=120, channel=0, data=[74, 0]),
   midi.NoteOnEvent(tick=0, channel=0, data=[76, 58]),
   midi.NoteOnEvent(tick=120, channel=0, data=[76, 0]),
   midi.NoteOnEvent(tick=0, channel=0, data=[78, 60]),
   midi.NoteOnEvent(tick=120, channel=0, data=[78, 0]),
   midi.NoteOnEvent(tick=0, channel=0, data=[79, 64]),
   midi.NoteOnEvent(tick=240, channel=0, data=[79, 0]),
   midi.NoteOnEvent(tick=0, channel=0, data=[79, 61]),
   midi.NoteOnEvent(tick=120, channel=0, data=[79, 0]),
   midi.NoteOnEvent(tick=120, channel=0, data=[79, 61]),
   midi.NoteOnEvent(tick=120, channel=0, data=[79, 0]),
   midi.NoteOnEvent(tick=120, channel=0, data=[79, 61]),
   midi.NoteOnEvent(tick=120, channel=0, data=[79, 0]),
   midi.NoteOnEvent(tick=120, channel=0, data=[78, 68]),
   midi.NoteOnEvent(tick=120, channel=0, data=[78, 0]),
   midi.NoteOnEvent(tick=0, channel=0, data=[76, 66]),
   midi.NoteOnEvent(tick=120, channel=0, data=[76, 0]),
   midi.NoteOnEvent(tick=0, channel=0, data=[78, 59]),
   midi.NoteOnEvent(tick=120, channel=0, data=[78, 0]),
   midi.NoteOnEvent(tick=0, channel=0, data=[79, 65]),
   midi.NoteOnEvent(tick=120, channel=0, data=[79, 0]),
   midi.NoteOnEvent(tick=0, channel=0, data=[81, 70]),
   midi.NoteOnEvent(tick=240, channel=0, data=[81, 0]),
   midi.NoteOnEvent(tick=0, channel=0, data=[72, 65]),
   midi.NoteOnEvent(tick=120, channel=0, data=[72, 0]),
   midi.NoteOnEvent(tick=120, channel=0, data=[72, 65]),
   midi.NoteOnEvent(tick=120, channel=0, data=[72, 0]),
   midi.NoteOnEvent(tick=120, channel=0, data=[71, 65]),
   midi.NoteOnEvent(tick=120, channel=0, data=[71, 0]),
   midi.NoteOnEvent(tick=120, channel=0, data=[69, 74]),
   midi.NoteOnEvent(tick=160, channel=0, data=[69, 0]),
   midi.NoteOnEvent(tick=0, channel=0, data=[72, 60]),
   midi.NoteOnEvent(tick=160, channel=0, data=[72, 0]),
   midi.NoteOnEvent(tick=0, channel=0, data=[76, 60]),
   midi.NoteOnEvent(tick=160, channel=0, data=[76, 0]),
   midi.NoteOnEvent(tick=0, channel=0, data=[67, 68]),
   midi.NoteOnEvent(tick=480, channel=0, data=[67, 0]),
   midi.NoteOnEvent(tick=0, channel=0, data=[66, 66]),
   midi.NoteOnEvent(tick=80, channel=0, data=[66, 0]),
   midi.NoteOnEvent(tick=0, channel=0, data=[67, 60]),
   midi.NoteOnEvent(tick=80, channel=0, data=[67, 0]),
   midi.NoteOnEvent(tick=0, channel=0, data=[66, 60]),
   midi.NoteOnEvent(tick=80, channel=0, data=[66, 0]),
   midi.NoteOnEvent(tick=0, channel=0, data=[67, 64]),
   midi.NoteOnEvent(tick=60, channel=0, data=[67, 0]),
   midi.NoteOnEvent(tick=0, channel=0, data=[66, 52]),
   midi.NoteOnEvent(tick=60, channel=0, data=[66, 0]),
   midi.NoteOnEvent(tick=0, channel=0, data=[64, 53]),
   midi.NoteOnEvent(tick=60, channel=0, data=[64, 0]),
   midi.NoteOnEvent(tick=0, channel=0, data=[66, 59]),
   midi.NoteOnEvent(tick=60, channel=0, data=[66, 0]),
   midi.NoteOnEvent(tick=0, channel=0, data=[67, 68]),
   midi.NoteOnEvent(tick=960, channel=0, data=[67, 0]),
   midi.EndOfTrackEvent(tick=0, data=[])]),
 midi.Track(\
  [midi.TrackNameEvent(tick=0, text='Piano left', data=[80, 105, 97, 110, 111, 32, 108, 101, 102, 116]),
   midi.ProgramChangeEvent(tick=0, channel=0, data=[0]),
   midi.NoteOnEvent(tick=480, channel=0, data=[55, 41]),
   midi.NoteOnEvent(tick=480, channel=0, data=[55, 0]),
   midi.NoteOnEvent(tick=0, channel=0, data=[43, 41]),
   midi.NoteOnEvent(tick=480, channel=0, data=[43, 0]),
   midi.NoteOnEvent(tick=480, channel=0, data=[54, 41]),
   midi.NoteOnEvent(tick=480, channel=0, data=[54, 0]),
   midi.NoteOnEvent(tick=0, channel=0, data=[50, 36]),
   midi.NoteOnEvent(tick=480, channel=0, data=[50, 0]),
   midi.NoteOnEvent(tick=0, channel=0, data=[55, 41]),
   midi.NoteOnEvent(tick=480, channel=0, data=[55, 0]),
   midi.NoteOnEvent(tick=960, channel=0, data=[59, 41]),
   midi.NoteOnEvent(tick=480, channel=0, data=[59, 0]),
   midi.NoteOnEvent(tick=0, channel=0, data=[50, 35]),
   midi.NoteOnEvent(tick=0, channel=0, data=[57, 42]),
   midi.NoteOnEvent(tick=480, channel=0, data=[57, 0]),
   midi.NoteOnEvent(tick=0, channel=0, data=[50, 0]),
   midi.NoteOnEvent(tick=0, channel=0, data=[55, 51]),
   midi.NoteOnEvent(tick=480, channel=0, data=[55, 0]),
   midi.NoteOnEvent(tick=480, channel=0, data=[55, 43]),
   midi.NoteOnEvent(tick=0, channel=0, data=[59, 51]),
   midi.NoteOnEvent(tick=480, channel=0, data=[59, 0]),
   midi.NoteOnEvent(tick=0, channel=0, data=[55, 0]),
   midi.NoteOnEvent(tick=0, channel=0, data=[55, 36]),
   midi.NoteOnEvent(tick=0, channel=0, data=[59, 43]),
   midi.NoteOnEvent(tick=480, channel=0, data=[59, 0]),
   midi.NoteOnEvent(tick=0, channel=0, data=[55, 0]),
   midi.NoteOnEvent(tick=0, channel=0, data=[54, 47]),
   midi.NoteOnEvent(tick=0, channel=0, data=[62, 56]),
   midi.NoteOnEvent(tick=480, channel=0, data=[62, 0]),
   midi.NoteOnEvent(tick=0, channel=0, data=[54, 0]),
   midi.NoteOnEvent(tick=960, channel=0, data=[67, 58]),
   midi.NoteOnEvent(tick=0, channel=0, data=[55, 49]),
   midi.NoteOnEvent(tick=480, channel=0, data=[55, 0]),
   midi.NoteOnEvent(tick=0, channel=0, data=[67, 0]),
   midi.NoteOnEvent(tick=0, channel=0, data=[66, 51]),
   midi.NoteOnEvent(tick=0, channel=0, data=[57, 43]),
   midi.NoteOnEvent(tick=480, channel=0, data=[66, 0]),
   midi.NoteOnEvent(tick=0, channel=0, data=[64, 51]),
   midi.NoteOnEvent(tick=480, channel=0, data=[64, 0]),
   midi.NoteOnEvent(tick=0, channel=0, data=[57, 0]),
   midi.NoteOnEvent(tick=0, channel=0, data=[62, 57]),
   midi.NoteOnEvent(tick=480, channel=0, data=[62, 0]),
   midi.NoteOnEvent(tick=0, channel=0, data=[57, 45]),
   midi.NoteOnEvent(tick=120, channel=0, data=[57, 0]),
   midi.NoteOnEvent(tick=360, channel=0, data=[50, 51]),
   midi.NoteOnEvent(tick=240, channel=0, data=[50, 0]),
   midi.NoteOnEvent(tick=720, channel=0, data=[55, 41]),
   midi.NoteOnEvent(tick=480, channel=0, data=[55, 0]),
   midi.NoteOnEvent(tick=0, channel=0, data=[43, 41]),
   midi.NoteOnEvent(tick=480, channel=0, data=[43, 0]),
   midi.NoteOnEvent(tick=480, channel=0, data=[54, 41]),
   midi.NoteOnEvent(tick=480, channel=0, data=[54, 0]),
   midi.NoteOnEvent(tick=0, channel=0, data=[50, 36]),
   midi.NoteOnEvent(tick=480, channel=0, data=[50, 0]),
   midi.NoteOnEvent(tick=0, channel=0, data=[55, 41]),
   midi.NoteOnEvent(tick=480, channel=0, data=[55, 0]),
   midi.NoteOnEvent(tick=960, channel=0, data=[59, 41]),
   midi.NoteOnEvent(tick=480, channel=0, data=[59, 0]),
   midi.NoteOnEvent(tick=0, channel=0, data=[50, 35]),
   midi.NoteOnEvent(tick=0, channel=0, data=[57, 42]),
   midi.NoteOnEvent(tick=480, channel=0, data=[57, 0]),
   midi.NoteOnEvent(tick=0, channel=0, data=[50, 0]),
   midi.NoteOnEvent(tick=0, channel=0, data=[55, 51]),
   midi.NoteOnEvent(tick=480, channel=0, data=[55, 0]),
   midi.NoteOnEvent(tick=480, channel=0, data=[55, 43]),
   midi.NoteOnEvent(tick=0, channel=0, data=[59, 51]),
   midi.NoteOnEvent(tick=480, channel=0, data=[59, 0]),
   midi.NoteOnEvent(tick=0, channel=0, data=[55, 0]),
   midi.NoteOnEvent(tick=0, channel=0, data=[55, 36]),
   midi.NoteOnEvent(tick=0, channel=0, data=[59, 43]),
   midi.NoteOnEvent(tick=480, channel=0, data=[59, 0]),
   midi.NoteOnEvent(tick=0, channel=0, data=[55, 0]),
   midi.NoteOnEvent(tick=0, channel=0, data=[54, 47]),
   midi.NoteOnEvent(tick=0, channel=0, data=[62, 56]),
   midi.NoteOnEvent(tick=480, channel=0, data=[62, 0]),
   midi.NoteOnEvent(tick=0, channel=0, data=[54, 0]),
   midi.NoteOnEvent(tick=960, channel=0, data=[67, 58]),
   midi.NoteOnEvent(tick=0, channel=0, data=[55, 49]),
   midi.NoteOnEvent(tick=480, channel=0, data=[55, 0]),
   midi.NoteOnEvent(tick=0, channel=0, data=[67, 0]),
   midi.NoteOnEvent(tick=0, channel=0, data=[66, 51]),
   midi.NoteOnEvent(tick=0, channel=0, data=[57, 43]),
   midi.NoteOnEvent(tick=480, channel=0, data=[66, 0]),
   midi.NoteOnEvent(tick=0, channel=0, data=[64, 51]),
   midi.NoteOnEvent(tick=480, channel=0, data=[64, 0]),
   midi.NoteOnEvent(tick=0, channel=0, data=[57, 0]),
   midi.NoteOnEvent(tick=0, channel=0, data=[62, 57]),
   midi.NoteOnEvent(tick=480, channel=0, data=[62, 0]),
   midi.NoteOnEvent(tick=0, channel=0, data=[57, 45]),
   midi.NoteOnEvent(tick=120, channel=0, data=[57, 0]),
   midi.NoteOnEvent(tick=360, channel=0, data=[50, 51]),
   midi.NoteOnEvent(tick=240, channel=0, data=[50, 0]),
   midi.NoteOnEvent(tick=240, channel=0, data=[59, 41]),
   midi.NoteOnEvent(tick=480, channel=0, data=[59, 0]),
   midi.NoteOnEvent(tick=0, channel=0, data=[56, 41]),
   midi.NoteOnEvent(tick=480, channel=0, data=[56, 0]),
   midi.NoteOnEvent(tick=0, channel=0, data=[52, 41]),
   midi.NoteOnEvent(tick=480, channel=0, data=[52, 0]),
   midi.NoteOnEvent(tick=0, channel=0, data=[57, 41]),
   midi.NoteOnEvent(tick=480, channel=0, data=[57, 0]),
   midi.NoteOnEvent(tick=0, channel=0, data=[60, 41]),
   midi.NoteOnEvent(tick=480, channel=0, data=[60, 0]),
   midi.NoteOnEvent(tick=0, channel=0, data=[57, 36]),
   midi.NoteOnEvent(tick=480, channel=0, data=[57, 0]),
   midi.NoteOnEvent(tick=0, channel=0, data=[54, 41]),
   midi.NoteOnEvent(tick=480, channel=0, data=[54, 0]),
   midi.NoteOnEvent(tick=0, channel=0, data=[55, 34]),
   midi.NoteOnEvent(tick=480, channel=0, data=[55, 0]),
   midi.NoteOnEvent(tick=480, channel=0, data=[59, 41]),
   midi.NoteOnEvent(tick=480, channel=0, data=[59, 0]),
   midi.NoteOnEvent(tick=0, channel=0, data=[50, 35]),
   midi.NoteOnEvent(tick=0, channel=0, data=[57, 42]),
   midi.NoteOnEvent(tick=480, channel=0, data=[57, 0]),
   midi.NoteOnEvent(tick=0, channel=0, data=[50, 0]),
   midi.NoteOnEvent(tick=0, channel=0, data=[55, 51]),
   midi.NoteOnEvent(tick=480, channel=0, data=[55, 0]),
   midi.NoteOnEvent(tick=0, channel=0, data=[60, 54]),
   midi.NoteOnEvent(tick=480, channel=0, data=[60, 0]),
   midi.NoteOnEvent(tick=0, channel=0, data=[59, 51]),
   midi.NoteOnEvent(tick=480, channel=0, data=[59, 0]),
   midi.NoteOnEvent(tick=0, channel=0, data=[55, 51]),
   midi.NoteOnEvent(tick=480, channel=0, data=[55, 0]),
   midi.NoteOnEvent(tick=0, channel=0, data=[57, 59]),
   midi.NoteOnEvent(tick=480, channel=0, data=[57, 0]),
   midi.NoteOnEvent(tick=0, channel=0, data=[54, 57]),
   midi.NoteOnEvent(tick=480, channel=0, data=[54, 0]),
   midi.NoteOnEvent(tick=0, channel=0, data=[55, 59]),
   midi.NoteOnEvent(tick=480, channel=0, data=[55, 0]),
   midi.NoteOnEvent(tick=0, channel=0, data=[60, 58]),
   midi.NoteOnEvent(tick=0, channel=0, data=[48, 49]),
   midi.NoteOnEvent(tick=480, channel=0, data=[48, 0]),
   midi.NoteOnEvent(tick=0, channel=0, data=[60, 0]),
   midi.NoteOnEvent(tick=0, channel=0, data=[50, 43]),
   midi.NoteOnEvent(tick=0, channel=0, data=[59, 51]),
   midi.NoteOnEvent(tick=480, channel=0, data=[59, 0]),
   midi.NoteOnEvent(tick=0, channel=0, data=[57, 51]),
   midi.NoteOnEvent(tick=480, channel=0, data=[57, 0]),
   midi.NoteOnEvent(tick=0, channel=0, data=[50, 0]),
   midi.NoteOnEvent(tick=0, channel=0, data=[55, 57]),
   midi.NoteOnEvent(tick=480, channel=0, data=[55, 0]),
   midi.NoteOnEvent(tick=0, channel=0, data=[50, 45]),
   midi.NoteOnEvent(tick=120, channel=0, data=[50, 0]),
   midi.NoteOnEvent(tick=360, channel=0, data=[43, 51]),
   midi.NoteOnEvent(tick=240, channel=0, data=[43, 0]),
   midi.NoteOnEvent(tick=240, channel=0, data=[59, 41]),
   midi.NoteOnEvent(tick=480, channel=0, data=[59, 0]),
   midi.NoteOnEvent(tick=0, channel=0, data=[56, 41]),
   midi.NoteOnEvent(tick=480, channel=0, data=[56, 0]),
   midi.NoteOnEvent(tick=0, channel=0, data=[52, 41]),
   midi.NoteOnEvent(tick=480, channel=0, data=[52, 0]),
   midi.NoteOnEvent(tick=0, channel=0, data=[57, 41]),
   midi.NoteOnEvent(tick=480, channel=0, data=[57, 0]),
   midi.NoteOnEvent(tick=0, channel=0, data=[60, 41]),
   midi.NoteOnEvent(tick=480, channel=0, data=[60, 0]),
   midi.NoteOnEvent(tick=0, channel=0, data=[57, 36]),
   midi.NoteOnEvent(tick=480, channel=0, data=[57, 0]),
   midi.NoteOnEvent(tick=0, channel=0, data=[54, 41]),
   midi.NoteOnEvent(tick=480, channel=0, data=[54, 0]),
   midi.NoteOnEvent(tick=0, channel=0, data=[55, 34]),
   midi.NoteOnEvent(tick=480, channel=0, data=[55, 0]),
   midi.NoteOnEvent(tick=480, channel=0, data=[59, 41]),
   midi.NoteOnEvent(tick=480, channel=0, data=[59, 0]),
   midi.NoteOnEvent(tick=0, channel=0, data=[50, 35]),
   midi.NoteOnEvent(tick=0, channel=0, data=[57, 42]),
   midi.NoteOnEvent(tick=480, channel=0, data=[57, 0]),
   midi.NoteOnEvent(tick=0, channel=0, data=[50, 0]),
   midi.NoteOnEvent(tick=0, channel=0, data=[55, 51]),
   midi.NoteOnEvent(tick=480, channel=0, data=[55, 0]),
   midi.NoteOnEvent(tick=0, channel=0, data=[60, 54]),
   midi.NoteOnEvent(tick=480, channel=0, data=[60, 0]),
   midi.NoteOnEvent(tick=0, channel=0, data=[59, 51]),
   midi.NoteOnEvent(tick=480, channel=0, data=[59, 0]),
   midi.NoteOnEvent(tick=0, channel=0, data=[55, 51]),
   midi.NoteOnEvent(tick=480, channel=0, data=[55, 0]),
   midi.NoteOnEvent(tick=0, channel=0, data=[57, 59]),
   midi.NoteOnEvent(tick=480, channel=0, data=[57, 0]),
   midi.NoteOnEvent(tick=0, channel=0, data=[54, 57]),
   midi.NoteOnEvent(tick=480, channel=0, data=[54, 0]),
   midi.NoteOnEvent(tick=0, channel=0, data=[55, 59]),
   midi.NoteOnEvent(tick=480, channel=0, data=[55, 0]),
   midi.NoteOnEvent(tick=0, channel=0, data=[60, 58]),
   midi.NoteOnEvent(tick=0, channel=0, data=[48, 49]),
   midi.NoteOnEvent(tick=480, channel=0, data=[48, 0]),
   midi.NoteOnEvent(tick=0, channel=0, data=[60, 0]),
   midi.NoteOnEvent(tick=0, channel=0, data=[50, 43]),
   midi.NoteOnEvent(tick=0, channel=0, data=[59, 51]),
   midi.NoteOnEvent(tick=480, channel=0, data=[59, 0]),
   midi.NoteOnEvent(tick=0, channel=0, data=[57, 51]),
   midi.NoteOnEvent(tick=480, channel=0, data=[57, 0]),
   midi.NoteOnEvent(tick=0, channel=0, data=[50, 0]),
   midi.NoteOnEvent(tick=0, channel=0, data=[55, 57]),
   midi.NoteOnEvent(tick=480, channel=0, data=[55, 0]),
   midi.NoteOnEvent(tick=0, channel=0, data=[50, 45]),
   midi.NoteOnEvent(tick=120, channel=0, data=[50, 0]),
   midi.NoteOnEvent(tick=360, channel=0, data=[43, 51]),
   midi.NoteOnEvent(tick=480, channel=0, data=[43, 0]),
   midi.EndOfTrackEvent(tick=0, data=[])]),
 midi.Track(\
  [midi.TrackNameEvent(tick=0, text='Pedale', data=[80, 101, 100, 97, 108, 101]),
   midi.ProgramChangeEvent(tick=0, channel=0, data=[0]),
   midi.ControlChangeEvent(tick=214, channel=0, data=[64, 127]),
   midi.ControlChangeEvent(tick=1226, channel=0, data=[64, 0]),
   midi.ControlChangeEvent(tick=572, channel=0, data=[64, 127]),
   midi.ControlChangeEvent(tick=868, channel=0, data=[64, 0]),
   midi.ControlChangeEvent(tick=1532, channel=0, data=[64, 127]),
   midi.ControlChangeEvent(tick=397, channel=0, data=[64, 0]),
   midi.ControlChangeEvent(tick=62, channel=0, data=[64, 127]),
   midi.ControlChangeEvent(tick=423, channel=0, data=[64, 0]),
   midi.ControlChangeEvent(tick=1087, channel=0, data=[64, 127]),
   midi.ControlChangeEvent(tick=848, channel=0, data=[64, 0]),
   midi.ControlChangeEvent(tick=1443, channel=0, data=[64, 127]),
   midi.ControlChangeEvent(tick=459, channel=0, data=[64, 0]),
   midi.ControlChangeEvent(tick=124, channel=0, data=[64, 127]),
   midi.ControlChangeEvent(tick=363, channel=0, data=[64, 0]),
   midi.ControlChangeEvent(tick=48, channel=0, data=[64, 127]),
   midi.ControlChangeEvent(tick=414, channel=0, data=[64, 0]),
   midi.ControlChangeEvent(tick=134, channel=0, data=[64, 127]),
   midi.ControlChangeEvent(tick=360, channel=0, data=[64, 0]),
   midi.ControlChangeEvent(tick=1160, channel=0, data=[64, 127]),
   midi.ControlChangeEvent(tick=1226, channel=0, data=[64, 0]),
   midi.ControlChangeEvent(tick=572, channel=0, data=[64, 127]),
   midi.ControlChangeEvent(tick=868, channel=0, data=[64, 0]),
   midi.ControlChangeEvent(tick=1532, channel=0, data=[64, 127]),
   midi.ControlChangeEvent(tick=397, channel=0, data=[64, 0]),
   midi.ControlChangeEvent(tick=62, channel=0, data=[64, 127]),
   midi.ControlChangeEvent(tick=423, channel=0, data=[64, 0]),
   midi.ControlChangeEvent(tick=1087, channel=0, data=[64, 127]),
   midi.ControlChangeEvent(tick=848, channel=0, data=[64, 0]),
   midi.ControlChangeEvent(tick=1443, channel=0, data=[64, 127]),
   midi.ControlChangeEvent(tick=459, channel=0, data=[64, 0]),
   midi.ControlChangeEvent(tick=124, channel=0, data=[64, 127]),
   midi.ControlChangeEvent(tick=363, channel=0, data=[64, 0]),
   midi.ControlChangeEvent(tick=48, channel=0, data=[64, 127]),
   midi.ControlChangeEvent(tick=414, channel=0, data=[64, 0]),
   midi.ControlChangeEvent(tick=134, channel=0, data=[64, 127]),
   midi.ControlChangeEvent(tick=360, channel=0, data=[64, 0]),
   midi.ControlChangeEvent(tick=1541, channel=0, data=[64, 127]),
   midi.ControlChangeEvent(tick=845, channel=0, data=[64, 0]),
   midi.ControlChangeEvent(tick=572, channel=0, data=[64, 127]),
   midi.ControlChangeEvent(tick=868, channel=0, data=[64, 0]),
   midi.ControlChangeEvent(tick=1532, channel=0, data=[64, 127]),
   midi.ControlChangeEvent(tick=397, channel=0, data=[64, 0]),
   midi.ControlChangeEvent(tick=62, channel=0, data=[64, 127]),
   midi.ControlChangeEvent(tick=423, channel=0, data=[64, 0]),
   midi.ControlChangeEvent(tick=1087, channel=0, data=[64, 127]),
   midi.ControlChangeEvent(tick=848, channel=0, data=[64, 0]),
   midi.ControlChangeEvent(tick=592, channel=0, data=[64, 127]),
   midi.ControlChangeEvent(tick=354, channel=0, data=[64, 0]),
   midi.ControlChangeEvent(tick=536, channel=0, data=[64, 127]),
   midi.ControlChangeEvent(tick=420, channel=0, data=[64, 0]),
   midi.ControlChangeEvent(tick=124, channel=0, data=[64, 127]),
   midi.ControlChangeEvent(tick=363, channel=0, data=[64, 0]),
   midi.ControlChangeEvent(tick=48, channel=0, data=[64, 127]),
   midi.ControlChangeEvent(tick=414, channel=0, data=[64, 0]),
   midi.ControlChangeEvent(tick=134, channel=0, data=[64, 127]),
   midi.ControlChangeEvent(tick=360, channel=0, data=[64, 0]),
   midi.ControlChangeEvent(tick=1541, channel=0, data=[64, 127]),
   midi.ControlChangeEvent(tick=845, channel=0, data=[64, 0]),
   midi.ControlChangeEvent(tick=572, channel=0, data=[64, 127]),
   midi.ControlChangeEvent(tick=868, channel=0, data=[64, 0]),
   midi.ControlChangeEvent(tick=1532, channel=0, data=[64, 127]),
   midi.ControlChangeEvent(tick=397, channel=0, data=[64, 0]),
   midi.ControlChangeEvent(tick=62, channel=0, data=[64, 127]),
   midi.ControlChangeEvent(tick=423, channel=0, data=[64, 0]),
   midi.ControlChangeEvent(tick=1087, channel=0, data=[64, 127]),
   midi.ControlChangeEvent(tick=848, channel=0, data=[64, 0]),
   midi.ControlChangeEvent(tick=592, channel=0, data=[64, 127]),
   midi.ControlChangeEvent(tick=354, channel=0, data=[64, 0]),
   midi.ControlChangeEvent(tick=536, channel=0, data=[64, 127]),
   midi.ControlChangeEvent(tick=420, channel=0, data=[64, 0]),
   midi.ControlChangeEvent(tick=124, channel=0, data=[64, 127]),
   midi.ControlChangeEvent(tick=363, channel=0, data=[64, 0]),
   midi.ControlChangeEvent(tick=48, channel=0, data=[64, 127]),
   midi.ControlChangeEvent(tick=414, channel=0, data=[64, 0]),
   midi.ControlChangeEvent(tick=134, channel=0, data=[64, 127]),
   midi.ControlChangeEvent(tick=360, channel=0, data=[64, 0]),
   midi.EndOfTrackEvent(tick=0, data=[])]),
 midi.Track(\
  [midi.TrackNameEvent(tick=0, text='Haydn: Sonata Hoboken XVI:8 2. movement', data=[72, 97, 121, 100, 110, 58, 32, 83, 111, 110, 97, 116, 97, 32, 72, 111, 98, 111, 107, 101, 110, 32, 88, 86, 73, 58, 56, 32, 50, 46, 32, 109, 111, 118, 101, 109, 101, 110, 116]),
   midi.EndOfTrackEvent(tick=0, data=[])]),
 midi.Track(\
  [midi.TrackNameEvent(tick=0, text='Copyright © 2009 by Bernd Krueger', data=[67, 111, 112, 121, 114, 105, 103, 104, 116, 32, 169, 32, 50, 48, 48, 57, 32, 98, 121, 32, 66, 101, 114, 110, 100, 32, 75, 114, 117, 101, 103, 101, 114]),
   midi.EndOfTrackEvent(tick=0, data=[])]),
 midi.Track(\
  [midi.TrackNameEvent(tick=0, text='http://www.piano-midi.de/', data=[104, 116, 116, 112, 58, 47, 47, 119, 119, 119, 46, 112, 105, 97, 110, 111, 45, 109, 105, 100, 105, 46, 100, 101, 47]),
   midi.EndOfTrackEvent(tick=0, data=[])]),
 midi.Track(\
  [midi.TrackNameEvent(tick=0, text='Edition: 2011-11-14', data=[69, 100, 105, 116, 105, 111, 110, 58, 32, 50, 48, 49, 49, 45, 49, 49, 45, 49, 52]),
   midi.EndOfTrackEvent(tick=0, data=[])]),
 midi.Track(\
  [midi.TrackNameEvent(tick=0, text='Spur 8', data=[83, 112, 117, 114, 32, 56]),
   midi.EndOfTrackEvent(tick=0, data=[])]),
 midi.Track(\
  [midi.TrackNameEvent(tick=0, text='Spur 9', data=[83, 112, 117, 114, 32, 57]),
   midi.EndOfTrackEvent(tick=0, data=[])]),
 midi.Track(\
  [midi.TrackNameEvent(tick=0, text='Spur 10', data=[83, 112, 117, 114, 32, 49, 48]),
   midi.EndOfTrackEvent(tick=0, data=[])]),
 midi.Track(\
  [midi.TrackNameEvent(tick=0, text='Spur 11', data=[83, 112, 117, 114, 32, 49, 49]),
   midi.EndOfTrackEvent(tick=0, data=[])]),
 midi.Track(\
  [midi.TrackNameEvent(tick=0, text='Spur 12', data=[83, 112, 117, 114, 32, 49, 50]),
   midi.EndOfTrackEvent(tick=0, data=[])]),
 midi.Track(\
  [midi.TrackNameEvent(tick=0, text='Spur 13', data=[83, 112, 117, 114, 32, 49, 51]),
   midi.EndOfTrackEvent(tick=0, data=[])]),
 midi.Track(\
  [midi.TrackNameEvent(tick=0, text='Spur 14', data=[83, 112, 117, 114, 32, 49, 52]),
   midi.EndOfTrackEvent(tick=0, data=[])]),
 midi.Track(\
  [midi.TrackNameEvent(tick=0, text='Spur 15', data=[83, 112, 117, 114, 32, 49, 53]),
   midi.EndOfTrackEvent(tick=0, data=[])]),
 midi.Track(\
  [midi.TrackNameEvent(tick=0, text='Spur 16', data=[83, 112, 117, 114, 32, 49, 54]),
   midi.EndOfTrackEvent(tick=0, data=[])])])
