midi.Pattern(format=1, resolution=480, tracks=\
[midi.Track(\
  [midi.TrackNameEvent(tick=0, text='Kinderszenen Opus 15', data=[75, 105, 110, 100, 101, 114, 115, 122, 101, 110, 101, 110, 32, 79, 112, 117, 115, 32, 49, 53]),
   midi.TrackNameEvent(tick=0, text='Von fremden Ländern und Menschen', data=[86, 111, 110, 32, 102, 114, 101, 109, 100, 101, 110, 32, 76, 228, 110, 100, 101, 114, 110, 32, 117, 110, 100, 32, 77, 101, 110, 115, 99, 104, 101, 110]),
   midi.CopyrightMetaEvent(tick=0, text='Copyright © 1997 von Bernd Krüger.', data=[67, 111, 112, 121, 114, 105, 103, 104, 116, 32, 169, 32, 49, 57, 57, 55, 32, 118, 111, 110, 32, 66, 101, 114, 110, 100, 32, 75, 114, 252, 103, 101, 114, 46]),
   midi.TextMetaEvent(tick=0, text='Robert Schumann', data=[82, 111, 98, 101, 114, 116, 32, 83, 99, 104, 117, 109, 97, 110, 110]),
   midi.TextMetaEvent(tick=0, text='Fertiggestellt am 15.11.97\n', data=[70, 101, 114, 116, 105, 103, 103, 101, 115, 116, 101, 108, 108, 116, 32, 97, 109, 32, 49, 53, 46, 49, 49, 46, 57, 55, 10]),
   midi.TextMetaEvent(tick=0, text='Kleine Tempokorrektur am 16.11.97\n', data=[75, 108, 101, 105, 110, 101, 32, 84, 101, 109, 112, 111, 107, 111, 114, 114, 101, 107, 116, 117, 114, 32, 97, 109, 32, 49, 54, 46, 49, 49, 46, 57, 55, 10]),
   midi.TextMetaEvent(tick=0, text='Nochmals Korrekturen am 22.11.97\n', data=[78, 111, 99, 104, 109, 97, 108, 115, 32, 75, 111, 114, 114, 101, 107, 116, 117, 114, 101, 110, 32, 97, 109, 32, 50, 50, 46, 49, 49, 46, 57, 55, 10]),
   midi.TextMetaEvent(tick=0, text='Korrekturen am 4.9.98\n', data=[75, 111, 114, 114, 101, 107, 116, 117, 114, 101, 110, 32, 97, 109, 32, 52, 46, 57, 46, 57, 56, 10]),
   midi.TextMetaEvent(tick=0, text='Anpassungen an Digitalpiano am 1.1.99\n', data=[65, 110, 112, 97, 115, 115, 117, 110, 103, 101, 110, 32, 97, 110, 32, 68, 105, 103, 105, 116, 97, 108, 112, 105, 97, 110, 111, 32, 97, 109, 32, 49, 46, 49, 46, 57, 57, 10]),
   midi.TextMetaEvent(tick=0, text='Update am 16.6.99\n', data=[85, 112, 100, 97, 116, 101, 32, 97, 109, 32, 49, 54, 46, 54, 46, 57, 57, 10]),
   midi.TextMetaEvent(tick=0, text='Update am 9.7.99\n', data=[85, 112, 100, 97, 116, 101, 32, 97, 109, 32, 57, 46, 55, 46, 57, 57, 10]),
   midi.TextMetaEvent(tick=0, text='Normierung: 23.12.2002\n', data=[78, 111, 114, 109, 105, 101, 114, 117, 110, 103, 58, 32, 50, 51, 46, 49, 50, 46, 50, 48, 48, 50, 10]),
   midi.TextMetaEvent(tick=0, text='Update am 3.10.2008\n', data=[85, 112, 100, 97, 116, 101, 32, 97, 109, 32, 51, 46, 49, 48, 46, 50, 48, 48, 56, 10]),
   midi.TextMetaEvent(tick=0, text='Update am 26.3.2014 (keine Änderungen)\n', data=[85, 112, 100, 97, 116, 101, 32, 97, 109, 32, 50, 54, 46, 51, 46, 50, 48, 49, 52, 32, 40, 107, 101, 105, 110, 101, 32, 196, 110, 100, 101, 114, 117, 110, 103, 101, 110, 41, 10]),
   midi.TextMetaEvent(tick=0, text='Dauer: 1:19 Minuten\n', data=[68, 97, 117, 101, 114, 58, 32, 49, 58, 49, 57, 32, 77, 105, 110, 117, 116, 101, 110, 10]),
   midi.TimeSignatureEvent(tick=0, data=[2, 2, 24, 8]),
   midi.KeySignatureEvent(tick=0, data=[1, 0]),
   midi.SetTempoEvent(tick=0, data=[13, 98, 137]),
   midi.MarkerEvent(tick=0, text='A Tale of Distant Lands', data=[65, 32, 84, 97, 108, 101, 32, 111, 102, 32, 68, 105, 115, 116, 97, 110, 116, 32, 76, 97, 110, 100, 115]),
   midi.SetTempoEvent(tick=320, data=[12, 229, 14]),
   midi.SetTempoEvent(tick=160, data=[13, 219, 96]),
   midi.SetTempoEvent(tick=160, data=[13, 196, 112]),
   midi.SetTempoEvent(tick=160, data=[13, 75, 165]),
   midi.SetTempoEvent(tick=160, data=[13, 170, 34]),
   midi.SetTempoEvent(tick=160, data=[12, 252, 120]),
   midi.SetTempoEvent(tick=200, data=[12, 205, 249]),
   midi.SetTempoEvent(tick=120, data=[13, 118, 177]),
   midi.SetTempoEvent(tick=320, data=[12, 229, 14]),
   midi.SetTempoEvent(tick=160, data=[13, 118, 177]),
   midi.SetTempoEvent(tick=320, data=[12, 252, 120]),
   midi.SetTempoEvent(tick=160, data=[13, 93, 136]),
   midi.SetTempoEvent(tick=320, data=[13, 20, 55]),
   midi.SetTempoEvent(tick=160, data=[13, 118, 177]),
   midi.SetTempoEvent(tick=160, data=[12, 252, 120]),
   midi.SetTempoEvent(tick=200, data=[12, 160, 194]),
   midi.SetTempoEvent(tick=120, data=[13, 144, 57]),
   midi.SetTempoEvent(tick=320, data=[13, 223, 35]),
   midi.SetTempoEvent(tick=160, data=[13, 98, 137]),
   midi.SetTempoEvent(tick=320, data=[13, 196, 112]),
   midi.SetTempoEvent(tick=160, data=[13, 118, 177]),
   midi.SetTempoEvent(tick=320, data=[13, 145, 196]),
   midi.SetTempoEvent(tick=160, data=[13, 93, 136]),
   midi.SetTempoEvent(tick=160, data=[12, 252, 120]),
   midi.SetTempoEvent(tick=200, data=[13, 93, 136]),
   midi.SetTempoEvent(tick=120, data=[13, 170, 34]),
   midi.SetTempoEvent(tick=320, data=[13, 44, 77]),
   midi.SetTempoEvent(tick=160, data=[13, 122, 62]),
   midi.SetTempoEvent(tick=160, data=[13, 219, 96]),
   midi.SetTempoEvent(tick=160, data=[14, 78, 28]),
   midi.SetTempoEvent(tick=160, data=[14, 14, 5]),
   midi.SetTempoEvent(tick=320, data=[14, 175, 6]),
   midi.SetTempoEvent(tick=160, data=[13, 244, 63]),
   midi.SetTempoEvent(tick=480, data=[14, 106, 242]),
   midi.SetTempoEvent(tick=320, data=[15, 2, 55]),
   midi.SetTempoEvent(tick=160, data=[13, 118, 177]),
   midi.SetTempoEvent(tick=320, data=[12, 252, 120]),
   midi.SetTempoEvent(tick=160, data=[13, 93, 136]),
   midi.SetTempoEvent(tick=320, data=[13, 75, 165]),
   midi.SetTempoEvent(tick=160, data=[13, 223, 35]),
   midi.SetTempoEvent(tick=160, data=[13, 68, 189]),
   midi.SetTempoEvent(tick=200, data=[12, 252, 120]),
   midi.SetTempoEvent(tick=120, data=[13, 118, 177]),
   midi.SetTempoEvent(tick=320, data=[12, 229, 14]),
   midi.SetTempoEvent(tick=160, data=[13, 118, 177]),
   midi.SetTempoEvent(tick=320, data=[12, 229, 14]),
   midi.SetTempoEvent(tick=160, data=[13, 93, 136]),
   midi.SetTempoEvent(tick=320, data=[13, 68, 189]),
   midi.SetTempoEvent(tick=160, data=[13, 144, 57]),
   midi.SetTempoEvent(tick=140, data=[12, 229, 14]),
   midi.SetTempoEvent(tick=20, data=[13, 44, 77]),
   midi.SetTempoEvent(tick=200, data=[12, 229, 14]),
   midi.SetTempoEvent(tick=120, data=[13, 170, 34]),
   midi.SetTempoEvent(tick=320, data=[13, 223, 35]),
   midi.SetTempoEvent(tick=160, data=[13, 98, 137]),
   midi.SetTempoEvent(tick=320, data=[13, 196, 112]),
   midi.SetTempoEvent(tick=160, data=[13, 145, 196]),
   midi.SetTempoEvent(tick=320, data=[13, 145, 196]),
   midi.SetTempoEvent(tick=160, data=[13, 93, 136]),
   midi.SetTempoEvent(tick=160, data=[13, 20, 55]),
   midi.SetTempoEvent(tick=200, data=[13, 118, 177]),
   midi.SetTempoEvent(tick=120, data=[13, 170, 34]),
   midi.SetTempoEvent(tick=320, data=[13, 44, 77]),
   midi.SetTempoEvent(tick=160, data=[13, 122, 62]),
   midi.SetTempoEvent(tick=160, data=[13, 219, 96]),
   midi.SetTempoEvent(tick=160, data=[14, 78, 28]),
   midi.SetTempoEvent(tick=160, data=[14, 136, 61]),
   midi.SetTempoEvent(tick=320, data=[14, 175, 6]),
   midi.SetTempoEvent(tick=160, data=[13, 244, 63]),
   midi.SetTempoEvent(tick=480, data=[14, 106, 242]),
   midi.SetTempoEvent(tick=480, data=[13, 20, 55]),
   midi.SetTempoEvent(tick=800, data=[13, 118, 177]),
   midi.SetTempoEvent(tick=160, data=[13, 20, 55]),
   midi.SetTempoEvent(tick=960, data=[13, 93, 136]),
   midi.SetTempoEvent(tick=960, data=[13, 250, 63]),
   midi.SetTempoEvent(tick=480, data=[13, 118, 177]),
   midi.SetTempoEvent(tick=1800, data=[13, 250, 63]),
   midi.SetTempoEvent(tick=120, data=[24, 106, 0]),
   midi.SetTempoEvent(tick=160, data=[15, 200, 243]),
   midi.SetTempoEvent(tick=160, data=[15, 99, 19]),
   midi.SetTempoEvent(tick=160, data=[13, 170, 34]),
   midi.SetTempoEvent(tick=320, data=[12, 229, 14]),
   midi.SetTempoEvent(tick=160, data=[13, 118, 177]),
   midi.SetTempoEvent(tick=320, data=[12, 229, 14]),
   midi.SetTempoEvent(tick=160, data=[13, 93, 136]),
   midi.SetTempoEvent(tick=160, data=[13, 20, 55]),
   midi.SetTempoEvent(tick=200, data=[12, 205, 249]),
   midi.SetTempoEvent(tick=120, data=[13, 194, 81]),
   midi.SetTempoEvent(tick=320, data=[12, 229, 14]),
   midi.SetTempoEvent(tick=160, data=[13, 118, 177]),
   midi.SetTempoEvent(tick=320, data=[12, 252, 120]),
   midi.SetTempoEvent(tick=160, data=[13, 68, 189]),
   midi.SetTempoEvent(tick=320, data=[12, 252, 120]),
   midi.SetTempoEvent(tick=160, data=[13, 118, 177]),
   midi.SetTempoEvent(tick=160, data=[12, 229, 14]),
   midi.SetTempoEvent(tick=200, data=[13, 68, 189]),
   midi.SetTempoEvent(tick=120, data=[13, 170, 34]),
   midi.SetTempoEvent(tick=320, data=[13, 223, 35]),
   midi.SetTempoEvent(tick=160, data=[13, 98, 137]),
   midi.SetTempoEvent(tick=320, data=[13, 196, 112]),
   midi.SetTempoEvent(tick=160, data=[13, 145, 196]),
   midi.SetTempoEvent(tick=320, data=[13, 145, 196]),
   midi.SetTempoEvent(tick=160, data=[13, 93, 136]),
   midi.SetTempoEvent(tick=160, data=[13, 20, 55]),
   midi.SetTempoEvent(tick=200, data=[13, 93, 136]),
   midi.SetTempoEvent(tick=120, data=[13, 170, 34]),
   midi.SetTempoEvent(tick=320, data=[13, 44, 77]),
   midi.SetTempoEvent(tick=160, data=[13, 122, 62]),
   midi.SetTempoEvent(tick=160, data=[13, 219, 96]),
   midi.SetTempoEvent(tick=160, data=[14, 78, 28]),
   midi.SetTempoEvent(tick=160, data=[14, 14, 5]),
   midi.SetTempoEvent(tick=320, data=[14, 175, 6]),
   midi.SetTempoEvent(tick=160, data=[13, 244, 63]),
   midi.SetTempoEvent(tick=480, data=[14, 106, 242]),
   midi.SetTempoEvent(tick=320, data=[16, 204, 117]),
   midi.SetTempoEvent(tick=160, data=[13, 20, 55]),
   midi.SetTempoEvent(tick=800, data=[13, 118, 177]),
   midi.SetTempoEvent(tick=160, data=[13, 20, 55]),
   midi.SetTempoEvent(tick=960, data=[13, 93, 136]),
   midi.SetTempoEvent(tick=960, data=[13, 250, 63]),
   midi.SetTempoEvent(tick=480, data=[13, 118, 177]),
   midi.SetTempoEvent(tick=1800, data=[13, 250, 63]),
   midi.SetTempoEvent(tick=120, data=[24, 106, 0]),
   midi.SetTempoEvent(tick=160, data=[15, 200, 243]),
   midi.SetTempoEvent(tick=160, data=[15, 99, 19]),
   midi.SetTempoEvent(tick=160, data=[13, 170, 34]),
   midi.SetTempoEvent(tick=320, data=[12, 229, 14]),
   midi.SetTempoEvent(tick=160, data=[13, 93, 136]),
   midi.SetTempoEvent(tick=320, data=[12, 229, 14]),
   midi.SetTempoEvent(tick=160, data=[13, 170, 34]),
   midi.SetTempoEvent(tick=160, data=[12, 252, 120]),
   midi.SetTempoEvent(tick=200, data=[12, 183, 53]),
   midi.SetTempoEvent(tick=120, data=[13, 194, 81]),
   midi.SetTempoEvent(tick=320, data=[12, 229, 14]),
   midi.SetTempoEvent(tick=160, data=[13, 118, 177]),
   midi.SetTempoEvent(tick=320, data=[12, 252, 120]),
   midi.SetTempoEvent(tick=160, data=[13, 68, 189]),
   midi.SetTempoEvent(tick=320, data=[12, 252, 120]),
   midi.SetTempoEvent(tick=160, data=[13, 68, 189]),
   midi.SetTempoEvent(tick=160, data=[12, 252, 120]),
   midi.SetTempoEvent(tick=200, data=[12, 205, 249]),
   midi.SetTempoEvent(tick=120, data=[13, 170, 34]),
   midi.SetTempoEvent(tick=320, data=[13, 223, 35]),
   midi.SetTempoEvent(tick=160, data=[13, 98, 137]),
   midi.SetTempoEvent(tick=320, data=[13, 196, 112]),
   midi.SetTempoEvent(tick=160, data=[13, 145, 196]),
   midi.SetTempoEvent(tick=320, data=[13, 145, 196]),
   midi.SetTempoEvent(tick=160, data=[13, 194, 81]),
   midi.SetTempoEvent(tick=160, data=[13, 44, 77]),
   midi.SetTempoEvent(tick=200, data=[12, 229, 14]),
   midi.SetTempoEvent(tick=120, data=[13, 170, 34]),
   midi.SetTempoEvent(tick=320, data=[13, 44, 77]),
   midi.SetTempoEvent(tick=160, data=[13, 122, 62]),
   midi.SetTempoEvent(tick=160, data=[13, 219, 96]),
   midi.SetTempoEvent(tick=160, data=[14, 78, 28]),
   midi.SetTempoEvent(tick=160, data=[14, 78, 28]),
   midi.SetTempoEvent(tick=320, data=[14, 175, 6]),
   midi.SetTempoEvent(tick=160, data=[14, 196, 62]),
   midi.SetTempoEvent(tick=480, data=[18, 224, 121]),
   midi.MarkerEvent(tick=480, text='Fine', data=[70, 105, 110, 101]),
   midi.EndOfTrackEvent(tick=0, data=[])]),
 midi.Track(\
  [midi.TrackNameEvent(tick=0, text='Piano right', data=[80, 105, 97, 110, 111, 32, 114, 105, 103, 104, 116]),
   midi.ProgramChangeEvent(tick=0, channel=0, data=[0]),
   midi.ControlChangeEvent(tick=0, channel=0, data=[7, 100]),
   midi.ControlChangeEvent(tick=0, channel=0, data=[10, 64]),
   midi.ControlChangeEvent(tick=0, channel=0, data=[91, 127]),
   midi.TextMetaEvent(tick=0, text='bdca426d104a26ac9dcb070447587523', data=[98, 100, 99, 97, 52, 50, 54, 100, 49, 48, 52, 97, 50, 54, 97, 99, 57, 100, 99, 98, 48, 55, 48, 52, 52, 55, 53, 56, 55, 53, 50, 51]),
   midi.NoteOnEvent(tick=1, channel=0, data=[71, 55]),
   midi.NoteOnEvent(tick=479, channel=0, data=[79, 60]),
   midi.NoteOnEvent(tick=11, channel=0, data=[71, 0]),
   midi.NoteOnEvent(tick=469, channel=0, data=[79, 0]),
   midi.NoteOnEvent(tick=0, channel=0, data=[78, 57]),
   midi.NoteOnEvent(tick=360, channel=0, data=[76, 37]),
   midi.NoteOnEvent(tick=10, channel=0, data=[78, 0]),
   midi.NoteOnEvent(tick=110, channel=0, data=[74, 37]),
   midi.NoteOnEvent(tick=10, channel=0, data=[76, 0]),
   midi.NoteOnEvent(tick=470, channel=0, data=[74, 0]),
   midi.ControlChangeEvent(tick=0, channel=0, data=[91, 127]),
   midi.NoteOnEvent(tick=1, channel=0, data=[71, 55]),
   midi.NoteOnEvent(tick=479, channel=0, data=[79, 60]),
   midi.NoteOnEvent(tick=11, channel=0, data=[71, 0]),
   midi.NoteOnEvent(tick=469, channel=0, data=[79, 0]),
   midi.NoteOnEvent(tick=0, channel=0, data=[78, 57]),
   midi.NoteOnEvent(tick=360, channel=0, data=[76, 37]),
   midi.NoteOnEvent(tick=10, channel=0, data=[78, 0]),
   midi.NoteOnEvent(tick=110, channel=0, data=[74, 37]),
   midi.NoteOnEvent(tick=10, channel=0, data=[76, 0]),
   midi.NoteOnEvent(tick=470, channel=0, data=[74, 0]),
   midi.ControlChangeEvent(tick=0, channel=0, data=[91, 127]),
   midi.NoteOnEvent(tick=1, channel=0, data=[71, 58]),
   midi.NoteOnEvent(tick=479, channel=0, data=[79, 60]),
   midi.NoteOnEvent(tick=11, channel=0, data=[71, 0]),
   midi.NoteOnEvent(tick=469, channel=0, data=[79, 0]),
   midi.NoteOnEvent(tick=0, channel=0, data=[76, 57]),
   midi.NoteOnEvent(tick=360, channel=0, data=[74, 52]),
   midi.NoteOnEvent(tick=10, channel=0, data=[76, 0]),
   midi.NoteOnEvent(tick=110, channel=0, data=[72, 49]),
   midi.NoteOnEvent(tick=10, channel=0, data=[74, 0]),
   midi.NoteOnEvent(tick=470, channel=0, data=[72, 0]),
   midi.NoteOnEvent(tick=0, channel=0, data=[69, 51]),
   midi.NoteOnEvent(tick=480, channel=0, data=[74, 48]),
   midi.NoteOnEvent(tick=10, channel=0, data=[69, 0]),
   midi.NoteOnEvent(tick=470, channel=0, data=[74, 0]),
   midi.NoteOnEvent(tick=0, channel=0, data=[71, 45]),
   midi.NoteOnEvent(tick=960, channel=0, data=[71, 0]),
   midi.ControlChangeEvent(tick=0, channel=0, data=[91, 127]),
   midi.NoteOnEvent(tick=1, channel=0, data=[71, 55]),
   midi.NoteOnEvent(tick=479, channel=0, data=[79, 60]),
   midi.NoteOnEvent(tick=11, channel=0, data=[71, 0]),
   midi.NoteOnEvent(tick=469, channel=0, data=[79, 0]),
   midi.NoteOnEvent(tick=0, channel=0, data=[78, 57]),
   midi.NoteOnEvent(tick=360, channel=0, data=[76, 38]),
   midi.NoteOnEvent(tick=10, channel=0, data=[78, 0]),
   midi.NoteOnEvent(tick=110, channel=0, data=[74, 38]),
   midi.NoteOnEvent(tick=10, channel=0, data=[76, 0]),
   midi.NoteOnEvent(tick=470, channel=0, data=[74, 0]),
   midi.ControlChangeEvent(tick=0, channel=0, data=[91, 127]),
   midi.NoteOnEvent(tick=1, channel=0, data=[71, 55]),
   midi.NoteOnEvent(tick=479, channel=0, data=[79, 60]),
   midi.NoteOnEvent(tick=11, channel=0, data=[71, 0]),
   midi.NoteOnEvent(tick=469, channel=0, data=[79, 0]),
   midi.NoteOnEvent(tick=0, channel=0, data=[78, 57]),
   midi.NoteOnEvent(tick=360, channel=0, data=[76, 37]),
   midi.NoteOnEvent(tick=10, channel=0, data=[78, 0]),
   midi.NoteOnEvent(tick=110, channel=0, data=[74, 37]),
   midi.NoteOnEvent(tick=10, channel=0, data=[76, 0]),
   midi.NoteOnEvent(tick=470, channel=0, data=[74, 0]),
   midi.ControlChangeEvent(tick=0, channel=0, data=[91, 127]),
   midi.NoteOnEvent(tick=1, channel=0, data=[71, 58]),
   midi.NoteOnEvent(tick=479, channel=0, data=[79, 60]),
   midi.NoteOnEvent(tick=11, channel=0, data=[71, 0]),
   midi.NoteOnEvent(tick=469, channel=0, data=[79, 0]),
   midi.NoteOnEvent(tick=0, channel=0, data=[76, 57]),
   midi.NoteOnEvent(tick=360, channel=0, data=[74, 49]),
   midi.NoteOnEvent(tick=10, channel=0, data=[76, 0]),
   midi.NoteOnEvent(tick=110, channel=0, data=[72, 49]),
   midi.NoteOnEvent(tick=10, channel=0, data=[74, 0]),
   midi.NoteOnEvent(tick=470, channel=0, data=[72, 0]),
   midi.NoteOnEvent(tick=0, channel=0, data=[69, 51]),
   midi.NoteOnEvent(tick=480, channel=0, data=[74, 48]),
   midi.NoteOnEvent(tick=10, channel=0, data=[69, 0]),
   midi.NoteOnEvent(tick=470, channel=0, data=[74, 0]),
   midi.NoteOnEvent(tick=0, channel=0, data=[71, 45]),
   midi.NoteOnEvent(tick=960, channel=0, data=[71, 0]),
   midi.NoteOnEvent(tick=0, channel=0, data=[67, 53]),
   midi.NoteOnEvent(tick=0, channel=0, data=[71, 53]),
   midi.NoteOnEvent(tick=480, channel=0, data=[69, 51]),
   midi.NoteOnEvent(tick=0, channel=0, data=[72, 51]),
   midi.NoteOnEvent(tick=10, channel=0, data=[71, 0]),
   midi.NoteOnEvent(tick=0, channel=0, data=[67, 0]),
   midi.NoteOnEvent(tick=470, channel=0, data=[69, 0]),
   midi.NoteOnEvent(tick=0, channel=0, data=[72, 0]),
   midi.NoteOnEvent(tick=0, channel=0, data=[66, 53]),
   midi.NoteOnEvent(tick=0, channel=0, data=[69, 53]),
   midi.NoteOnEvent(tick=480, channel=0, data=[67, 52]),
   midi.NoteOnEvent(tick=0, channel=0, data=[71, 52]),
   midi.NoteOnEvent(tick=10, channel=0, data=[69, 0]),
   midi.NoteOnEvent(tick=0, channel=0, data=[66, 0]),
   midi.NoteOnEvent(tick=470, channel=0, data=[67, 0]),
   midi.NoteOnEvent(tick=0, channel=0, data=[71, 0]),
   midi.NoteOnEvent(tick=0, channel=0, data=[64, 48]),
   midi.NoteOnEvent(tick=0, channel=0, data=[67, 48]),
   midi.NoteOnEvent(tick=480, channel=0, data=[64, 0]),
   midi.NoteOnEvent(tick=0, channel=0, data=[64, 45]),
   midi.NoteOnEvent(tick=0, channel=0, data=[69, 45]),
   midi.NoteOnEvent(tick=10, channel=0, data=[67, 0]),
   midi.NoteOnEvent(tick=470, channel=0, data=[69, 0]),
   midi.NoteOnEvent(tick=0, channel=0, data=[64, 0]),
   midi.NoteOnEvent(tick=0, channel=0, data=[63, 44]),
   midi.NoteOnEvent(tick=0, channel=0, data=[66, 44]),
   midi.NoteOnEvent(tick=480, channel=0, data=[66, 0]),
   midi.NoteOnEvent(tick=0, channel=0, data=[63, 0]),
   midi.NoteOnEvent(tick=0, channel=0, data=[62, 40]),
   midi.NoteOnEvent(tick=0, channel=0, data=[67, 40]),
   midi.NoteOnEvent(tick=480, channel=0, data=[67, 0]),
   midi.NoteOnEvent(tick=0, channel=0, data=[62, 0]),
   midi.NoteOnEvent(tick=0, channel=0, data=[64, 49]),
   midi.NoteOnEvent(tick=480, channel=0, data=[66, 48]),
   midi.NoteOnEvent(tick=10, channel=0, data=[64, 0]),
   midi.NoteOnEvent(tick=470, channel=0, data=[66, 0]),
   midi.NoteOnEvent(tick=0, channel=0, data=[67, 52]),
   midi.NoteOnEvent(tick=360, channel=0, data=[69, 50]),
   midi.NoteOnEvent(tick=10, channel=0, data=[67, 0]),
   midi.NoteOnEvent(tick=110, channel=0, data=[71, 53]),
   midi.NoteOnEvent(tick=10, channel=0, data=[69, 0]),
   midi.NoteOnEvent(tick=350, channel=0, data=[72, 38]),
   midi.NoteOnEvent(tick=10, channel=0, data=[71, 0]),
   midi.NoteOnEvent(tick=110, channel=0, data=[72, 0]),
   midi.NoteOnEvent(tick=0, channel=0, data=[74, 44]),
   midi.ControlChangeEvent(tick=0, channel=0, data=[91, 127]),
   midi.NoteOnEvent(tick=480, channel=0, data=[79, 48]),
   midi.NoteOnEvent(tick=10, channel=0, data=[74, 0]),
   midi.NoteOnEvent(tick=470, channel=0, data=[79, 0]),
   midi.NoteOnEvent(tick=0, channel=0, data=[78, 48]),
   midi.NoteOnEvent(tick=360, channel=0, data=[76, 38]),
   midi.NoteOnEvent(tick=10, channel=0, data=[78, 0]),
   midi.NoteOnEvent(tick=110, channel=0, data=[74, 38]),
   midi.NoteOnEvent(tick=10, channel=0, data=[76, 0]),
   midi.NoteOnEvent(tick=470, channel=0, data=[74, 0]),
   midi.ControlChangeEvent(tick=0, channel=0, data=[91, 127]),
   midi.NoteOnEvent(tick=1, channel=0, data=[71, 50]),
   midi.NoteOnEvent(tick=479, channel=0, data=[79, 56]),
   midi.NoteOnEvent(tick=11, channel=0, data=[71, 0]),
   midi.NoteOnEvent(tick=469, channel=0, data=[79, 0]),
   midi.NoteOnEvent(tick=0, channel=0, data=[78, 53]),
   midi.NoteOnEvent(tick=360, channel=0, data=[76, 38]),
   midi.NoteOnEvent(tick=10, channel=0, data=[78, 0]),
   midi.NoteOnEvent(tick=110, channel=0, data=[74, 38]),
   midi.NoteOnEvent(tick=10, channel=0, data=[76, 0]),
   midi.NoteOnEvent(tick=470, channel=0, data=[74, 0]),
   midi.ControlChangeEvent(tick=0, channel=0, data=[91, 127]),
   midi.NoteOnEvent(tick=1, channel=0, data=[71, 58]),
   midi.NoteOnEvent(tick=479, channel=0, data=[79, 60]),
   midi.NoteOnEvent(tick=11, channel=0, data=[71, 0]),
   midi.NoteOnEvent(tick=469, channel=0, data=[79, 0]),
   midi.NoteOnEvent(tick=0, channel=0, data=[76, 57]),
   midi.NoteOnEvent(tick=360, channel=0, data=[74, 52]),
   midi.NoteOnEvent(tick=10, channel=0, data=[76, 0]),
   midi.NoteOnEvent(tick=110, channel=0, data=[72, 49]),
   midi.NoteOnEvent(tick=10, channel=0, data=[74, 0]),
   midi.NoteOnEvent(tick=470, channel=0, data=[72, 0]),
   midi.NoteOnEvent(tick=0, channel=0, data=[69, 51]),
   midi.NoteOnEvent(tick=480, channel=0, data=[74, 48]),
   midi.NoteOnEvent(tick=10, channel=0, data=[69, 0]),
   midi.NoteOnEvent(tick=470, channel=0, data=[74, 0]),
   midi.NoteOnEvent(tick=0, channel=0, data=[71, 45]),
   midi.NoteOnEvent(tick=960, channel=0, data=[71, 0]),
   midi.NoteOnEvent(tick=0, channel=0, data=[67, 53]),
   midi.NoteOnEvent(tick=0, channel=0, data=[71, 53]),
   midi.NoteOnEvent(tick=480, channel=0, data=[69, 51]),
   midi.NoteOnEvent(tick=0, channel=0, data=[72, 51]),
   midi.NoteOnEvent(tick=10, channel=0, data=[71, 0]),
   midi.NoteOnEvent(tick=0, channel=0, data=[67, 0]),
   midi.NoteOnEvent(tick=470, channel=0, data=[69, 0]),
   midi.NoteOnEvent(tick=0, channel=0, data=[72, 0]),
   midi.NoteOnEvent(tick=0, channel=0, data=[66, 53]),
   midi.NoteOnEvent(tick=0, channel=0, data=[69, 53]),
   midi.NoteOnEvent(tick=480, channel=0, data=[67, 52]),
   midi.NoteOnEvent(tick=0, channel=0, data=[71, 52]),
   midi.NoteOnEvent(tick=10, channel=0, data=[69, 0]),
   midi.NoteOnEvent(tick=0, channel=0, data=[66, 0]),
   midi.NoteOnEvent(tick=470, channel=0, data=[67, 0]),
   midi.NoteOnEvent(tick=0, channel=0, data=[71, 0]),
   midi.NoteOnEvent(tick=0, channel=0, data=[64, 48]),
   midi.NoteOnEvent(tick=0, channel=0, data=[67, 48]),
   midi.NoteOnEvent(tick=480, channel=0, data=[64, 0]),
   midi.NoteOnEvent(tick=0, channel=0, data=[64, 45]),
   midi.NoteOnEvent(tick=0, channel=0, data=[69, 45]),
   midi.NoteOnEvent(tick=10, channel=0, data=[67, 0]),
   midi.NoteOnEvent(tick=470, channel=0, data=[69, 0]),
   midi.NoteOnEvent(tick=0, channel=0, data=[64, 0]),
   midi.NoteOnEvent(tick=0, channel=0, data=[63, 44]),
   midi.NoteOnEvent(tick=0, channel=0, data=[66, 44]),
   midi.NoteOnEvent(tick=480, channel=0, data=[66, 0]),
   midi.NoteOnEvent(tick=0, channel=0, data=[63, 0]),
   midi.NoteOnEvent(tick=0, channel=0, data=[62, 40]),
   midi.NoteOnEvent(tick=0, channel=0, data=[67, 40]),
   midi.NoteOnEvent(tick=480, channel=0, data=[67, 0]),
   midi.NoteOnEvent(tick=0, channel=0, data=[62, 0]),
   midi.NoteOnEvent(tick=0, channel=0, data=[64, 49]),
   midi.NoteOnEvent(tick=480, channel=0, data=[66, 48]),
   midi.NoteOnEvent(tick=10, channel=0, data=[64, 0]),
   midi.NoteOnEvent(tick=470, channel=0, data=[66, 0]),
   midi.NoteOnEvent(tick=0, channel=0, data=[67, 52]),
   midi.NoteOnEvent(tick=360, channel=0, data=[69, 50]),
   midi.NoteOnEvent(tick=10, channel=0, data=[67, 0]),
   midi.NoteOnEvent(tick=110, channel=0, data=[69, 0]),
   midi.NoteOnEvent(tick=0, channel=0, data=[71, 53]),
   midi.NoteOnEvent(tick=360, channel=0, data=[72, 38]),
   midi.NoteOnEvent(tick=10, channel=0, data=[71, 0]),
   midi.NoteOnEvent(tick=110, channel=0, data=[72, 0]),
   midi.NoteOnEvent(tick=0, channel=0, data=[74, 44]),
   midi.ControlChangeEvent(tick=0, channel=0, data=[91, 127]),
   midi.NoteOnEvent(tick=480, channel=0, data=[79, 48]),
   midi.NoteOnEvent(tick=10, channel=0, data=[74, 0]),
   midi.NoteOnEvent(tick=470, channel=0, data=[79, 0]),
   midi.NoteOnEvent(tick=0, channel=0, data=[78, 48]),
   midi.NoteOnEvent(tick=360, channel=0, data=[76, 37]),
   midi.NoteOnEvent(tick=10, channel=0, data=[78, 0]),
   midi.NoteOnEvent(tick=110, channel=0, data=[74, 37]),
   midi.NoteOnEvent(tick=10, channel=0, data=[76, 0]),
   midi.NoteOnEvent(tick=470, channel=0, data=[74, 0]),
   midi.ControlChangeEvent(tick=0, channel=0, data=[91, 127]),
   midi.NoteOnEvent(tick=1, channel=0, data=[71, 50]),
   midi.NoteOnEvent(tick=479, channel=0, data=[79, 56]),
   midi.NoteOnEvent(tick=11, channel=0, data=[71, 0]),
   midi.NoteOnEvent(tick=469, channel=0, data=[79, 0]),
   midi.NoteOnEvent(tick=0, channel=0, data=[78, 53]),
   midi.NoteOnEvent(tick=360, channel=0, data=[76, 38]),
   midi.NoteOnEvent(tick=10, channel=0, data=[78, 0]),
   midi.NoteOnEvent(tick=110, channel=0, data=[74, 38]),
   midi.NoteOnEvent(tick=10, channel=0, data=[76, 0]),
   midi.NoteOnEvent(tick=470, channel=0, data=[74, 0]),
   midi.ControlChangeEvent(tick=0, channel=0, data=[91, 127]),
   midi.NoteOnEvent(tick=1, channel=0, data=[71, 58]),
   midi.NoteOnEvent(tick=479, channel=0, data=[79, 60]),
   midi.NoteOnEvent(tick=11, channel=0, data=[71, 0]),
   midi.NoteOnEvent(tick=469, channel=0, data=[79, 0]),
   midi.NoteOnEvent(tick=0, channel=0, data=[76, 57]),
   midi.NoteOnEvent(tick=360, channel=0, data=[74, 52]),
   midi.NoteOnEvent(tick=10, channel=0, data=[76, 0]),
   midi.NoteOnEvent(tick=110, channel=0, data=[72, 49]),
   midi.NoteOnEvent(tick=10, channel=0, data=[74, 0]),
   midi.NoteOnEvent(tick=470, channel=0, data=[72, 0]),
   midi.NoteOnEvent(tick=0, channel=0, data=[69, 51]),
   midi.NoteOnEvent(tick=480, channel=0, data=[74, 48]),
   midi.NoteOnEvent(tick=10, channel=0, data=[69, 0]),
   midi.NoteOnEvent(tick=470, channel=0, data=[74, 0]),
   midi.NoteOnEvent(tick=0, channel=0, data=[71, 45]),
   midi.NoteOnEvent(tick=960, channel=0, data=[71, 0]),
   midi.EndOfTrackEvent(tick=0, data=[])]),
 midi.Track(\
  [midi.TrackNameEvent(tick=0, text='Piano left', data=[80, 105, 97, 110, 111, 32, 108, 101, 102, 116]),
   midi.ProgramChangeEvent(tick=0, channel=0, data=[0]),
   midi.ControlChangeEvent(tick=0, channel=0, data=[7, 100]),
   midi.ControlChangeEvent(tick=0, channel=0, data=[10, 64]),
   midi.ControlChangeEvent(tick=0, channel=0, data=[64, 127]),
   midi.ControlChangeEvent(tick=0, channel=0, data=[91, 127]),
   midi.NoteOnEvent(tick=1, channel=0, data=[55, 35]),
   midi.NoteOnEvent(tick=0, channel=0, data=[59, 35]),
   midi.NoteOnEvent(tick=159, channel=0, data=[62, 37]),
   midi.NoteOnEvent(tick=11, channel=0, data=[59, 0]),
   midi.NoteOnEvent(tick=70, channel=0, data=[55, 0]),
   midi.NoteOnEvent(tick=79, channel=0, data=[67, 32]),
   midi.NoteOnEvent(tick=10, channel=0, data=[62, 0]),
   midi.NoteOnEvent(tick=150, channel=0, data=[67, 0]),
   midi.NoteOnEvent(tick=0, channel=0, data=[58, 35]),
   midi.NoteOnEvent(tick=0, channel=0, data=[49, 35]),
   midi.ControlChangeEvent(tick=13, channel=0, data=[64, 0]),
   midi.ControlChangeEvent(tick=61, channel=0, data=[64, 127]),
   midi.NoteOnEvent(tick=86, channel=0, data=[64, 38]),
   midi.NoteOnEvent(tick=10, channel=0, data=[58, 0]),
   midi.NoteOnEvent(tick=70, channel=0, data=[49, 0]),
   midi.NoteOnEvent(tick=80, channel=0, data=[67, 32]),
   midi.NoteOnEvent(tick=10, channel=0, data=[64, 0]),
   midi.NoteOnEvent(tick=150, channel=0, data=[67, 0]),
   midi.ControlChangeEvent(tick=0, channel=0, data=[64, 0]),
   midi.NoteOnEvent(tick=0, channel=0, data=[57, 35]),
   midi.NoteOnEvent(tick=0, channel=0, data=[50, 35]),
   midi.ControlChangeEvent(tick=78, channel=0, data=[64, 127]),
   midi.NoteOnEvent(tick=82, channel=0, data=[62, 37]),
   midi.NoteOnEvent(tick=10, channel=0, data=[57, 0]),
   midi.NoteOnEvent(tick=70, channel=0, data=[50, 0]),
   midi.NoteOnEvent(tick=80, channel=0, data=[66, 28]),
   midi.NoteOnEvent(tick=10, channel=0, data=[62, 0]),
   midi.NoteOnEvent(tick=150, channel=0, data=[66, 0]),
   midi.NoteOnEvent(tick=0, channel=0, data=[60, 27]),
   midi.NoteOnEvent(tick=0, channel=0, data=[54, 27]),
   midi.ControlChangeEvent(tick=14, channel=0, data=[64, 0]),
   midi.ControlChangeEvent(tick=64, channel=0, data=[64, 127]),
   midi.NoteOnEvent(tick=82, channel=0, data=[62, 27]),
   midi.NoteOnEvent(tick=10, channel=0, data=[60, 0]),
   midi.NoteOnEvent(tick=70, channel=0, data=[54, 0]),
   midi.NoteOnEvent(tick=80, channel=0, data=[69, 27]),
   midi.NoteOnEvent(tick=10, channel=0, data=[62, 0]),
   midi.NoteOnEvent(tick=150, channel=0, data=[69, 0]),
   midi.ControlChangeEvent(tick=0, channel=0, data=[64, 0]),
   midi.ControlChangeEvent(tick=0, channel=0, data=[91, 127]),
   midi.NoteOnEvent(tick=1, channel=0, data=[59, 35]),
   midi.NoteOnEvent(tick=0, channel=0, data=[55, 35]),
   midi.ControlChangeEvent(tick=52, channel=0, data=[64, 127]),
   midi.NoteOnEvent(tick=107, channel=0, data=[62, 37]),
   midi.NoteOnEvent(tick=11, channel=0, data=[59, 0]),
   midi.NoteOnEvent(tick=70, channel=0, data=[55, 0]),
   midi.NoteOnEvent(tick=79, channel=0, data=[67, 32]),
   midi.NoteOnEvent(tick=10, channel=0, data=[62, 0]),
   midi.NoteOnEvent(tick=150, channel=0, data=[67, 0]),
   midi.NoteOnEvent(tick=0, channel=0, data=[49, 35]),
   midi.NoteOnEvent(tick=0, channel=0, data=[58, 35]),
   midi.ControlChangeEvent(tick=5, channel=0, data=[64, 0]),
   midi.ControlChangeEvent(tick=37, channel=0, data=[64, 127]),
   midi.NoteOnEvent(tick=118, channel=0, data=[64, 38]),
   midi.NoteOnEvent(tick=10, channel=0, data=[58, 0]),
   midi.NoteOnEvent(tick=70, channel=0, data=[49, 0]),
   midi.NoteOnEvent(tick=80, channel=0, data=[67, 32]),
   midi.NoteOnEvent(tick=10, channel=0, data=[64, 0]),
   midi.NoteOnEvent(tick=150, channel=0, data=[67, 0]),
   midi.ControlChangeEvent(tick=0, channel=0, data=[64, 0]),
   midi.NoteOnEvent(tick=0, channel=0, data=[57, 35]),
   midi.NoteOnEvent(tick=0, channel=0, data=[50, 35]),
   midi.ControlChangeEvent(tick=99, channel=0, data=[64, 127]),
   midi.NoteOnEvent(tick=61, channel=0, data=[62, 37]),
   midi.NoteOnEvent(tick=10, channel=0, data=[57, 0]),
   midi.NoteOnEvent(tick=70, channel=0, data=[50, 0]),
   midi.NoteOnEvent(tick=80, channel=0, data=[66, 29]),
   midi.NoteOnEvent(tick=10, channel=0, data=[62, 0]),
   midi.NoteOnEvent(tick=150, channel=0, data=[66, 0]),
   midi.NoteOnEvent(tick=0, channel=0, data=[60, 27]),
   midi.NoteOnEvent(tick=0, channel=0, data=[54, 27]),
   midi.ControlChangeEvent(tick=8, channel=0, data=[64, 0]),
   midi.ControlChangeEvent(tick=91, channel=0, data=[64, 127]),
   midi.NoteOnEvent(tick=61, channel=0, data=[62, 28]),
   midi.NoteOnEvent(tick=10, channel=0, data=[60, 0]),
   midi.NoteOnEvent(tick=70, channel=0, data=[54, 0]),
   midi.NoteOnEvent(tick=80, channel=0, data=[69, 28]),
   midi.NoteOnEvent(tick=10, channel=0, data=[62, 0]),
   midi.NoteOnEvent(tick=150, channel=0, data=[69, 0]),
   midi.ControlChangeEvent(tick=0, channel=0, data=[64, 0]),
   midi.ControlChangeEvent(tick=0, channel=0, data=[91, 127]),
   midi.NoteOnEvent(tick=1, channel=0, data=[55, 35]),
   midi.NoteOnEvent(tick=0, channel=0, data=[59, 35]),
   midi.ControlChangeEvent(tick=45, channel=0, data=[64, 127]),
   midi.NoteOnEvent(tick=114, channel=0, data=[62, 37]),
   midi.NoteOnEvent(tick=11, channel=0, data=[59, 0]),
   midi.NoteOnEvent(tick=70, channel=0, data=[55, 0]),
   midi.NoteOnEvent(tick=79, channel=0, data=[67, 37]),
   midi.NoteOnEvent(tick=10, channel=0, data=[62, 0]),
   midi.NoteOnEvent(tick=150, channel=0, data=[67, 0]),
   midi.NoteOnEvent(tick=0, channel=0, data=[47, 38]),
   midi.NoteOnEvent(tick=0, channel=0, data=[55, 38]),
   midi.NoteOnEvent(tick=160, channel=0, data=[62, 41]),
   midi.NoteOnEvent(tick=80, channel=0, data=[47, 0]),
   midi.NoteOnEvent(tick=80, channel=0, data=[67, 41]),
   midi.NoteOnEvent(tick=10, channel=0, data=[62, 0]),
   midi.NoteOnEvent(tick=150, channel=0, data=[67, 0]),
   midi.ControlChangeEvent(tick=0, channel=0, data=[64, 0]),
   midi.NoteOnEvent(tick=0, channel=0, data=[48, 38]),
   midi.ControlChangeEvent(tick=49, channel=0, data=[64, 127]),
   midi.NoteOnEvent(tick=111, channel=0, data=[55, 0]),
   midi.NoteOnEvent(tick=0, channel=0, data=[64, 40]),
   midi.NoteOnEvent(tick=80, channel=0, data=[48, 0]),
   midi.NoteOnEvent(tick=80, channel=0, data=[67, 40]),
   midi.NoteOnEvent(tick=10, channel=0, data=[64, 0]),
   midi.NoteOnEvent(tick=150, channel=0, data=[67, 0]),
   midi.NoteOnEvent(tick=0, channel=0, data=[52, 38]),
   midi.NoteOnEvent(tick=0, channel=0, data=[55, 38]),
   midi.ControlChangeEvent(tick=4, channel=0, data=[64, 0]),
   midi.ControlChangeEvent(tick=38, channel=0, data=[64, 127]),
   midi.NoteOnEvent(tick=118, channel=0, data=[60, 40]),
   midi.NoteOnEvent(tick=10, channel=0, data=[55, 0]),
   midi.NoteOnEvent(tick=70, channel=0, data=[52, 0]),
   midi.NoteOnEvent(tick=80, channel=0, data=[67, 40]),
   midi.NoteOnEvent(tick=10, channel=0, data=[60, 0]),
   midi.NoteOnEvent(tick=150, channel=0, data=[67, 0]),
   midi.ControlChangeEvent(tick=0, channel=0, data=[64, 0]),
   midi.NoteOnEvent(tick=0, channel=0, data=[50, 28]),
   midi.NoteOnEvent(tick=0, channel=0, data=[55, 28]),
   midi.ControlChangeEvent(tick=99, channel=0, data=[64, 127]),
   midi.NoteOnEvent(tick=61, channel=0, data=[60, 32]),
   midi.NoteOnEvent(tick=10, channel=0, data=[55, 0]),
   midi.NoteOnEvent(tick=70, channel=0, data=[50, 0]),
   midi.NoteOnEvent(tick=80, channel=0, data=[60, 0]),
   midi.NoteOnEvent(tick=0, channel=0, data=[67, 29]),
   midi.NoteOnEvent(tick=160, channel=0, data=[67, 0]),
   midi.NoteOnEvent(tick=0, channel=0, data=[54, 26]),
   midi.NoteOnEvent(tick=0, channel=0, data=[50, 26]),
   midi.ControlChangeEvent(tick=7, channel=0, data=[64, 0]),
   midi.ControlChangeEvent(tick=106, channel=0, data=[64, 127]),
   midi.NoteOnEvent(tick=47, channel=0, data=[60, 31]),
   midi.NoteOnEvent(tick=10, channel=0, data=[54, 0]),
   midi.NoteOnEvent(tick=70, channel=0, data=[50, 0]),
   midi.NoteOnEvent(tick=80, channel=0, data=[60, 0]),
   midi.NoteOnEvent(tick=0, channel=0, data=[69, 26]),
   midi.NoteOnEvent(tick=160, channel=0, data=[69, 0]),
   midi.ControlChangeEvent(tick=0, channel=0, data=[64, 0]),
   midi.NoteOnEvent(tick=0, channel=0, data=[43, 24]),
   midi.NoteOnEvent(tick=0, channel=0, data=[50, 24]),
   midi.ControlChangeEvent(tick=46, channel=0, data=[64, 127]),
   midi.NoteOnEvent(tick=114, channel=0, data=[59, 28]),
   midi.NoteOnEvent(tick=10, channel=0, data=[50, 0]),
   midi.NoteOnEvent(tick=70, channel=0, data=[43, 0]),
   midi.NoteOnEvent(tick=80, channel=0, data=[67, 25]),
   midi.NoteOnEvent(tick=10, channel=0, data=[59, 0]),
   midi.NoteOnEvent(tick=150, channel=0, data=[67, 0]),
   midi.NoteOnEvent(tick=0, channel=0, data=[55, 26]),
   midi.NoteOnEvent(tick=160, channel=0, data=[59, 26]),
   midi.NoteOnEvent(tick=80, channel=0, data=[55, 0]),
   midi.NoteOnEvent(tick=80, channel=0, data=[67, 21]),
   midi.NoteOnEvent(tick=10, channel=0, data=[59, 0]),
   midi.NoteOnEvent(tick=150, channel=0, data=[67, 0]),
   midi.ControlChangeEvent(tick=0, channel=0, data=[64, 0]),
   midi.ControlChangeEvent(tick=0, channel=0, data=[91, 127]),
   midi.NoteOnEvent(tick=1, channel=0, data=[59, 35]),
   midi.NoteOnEvent(tick=0, channel=0, data=[55, 35]),
   midi.ControlChangeEvent(tick=45, channel=0, data=[64, 127]),
   midi.NoteOnEvent(tick=114, channel=0, data=[62, 37]),
   midi.NoteOnEvent(tick=11, channel=0, data=[59, 0]),
   midi.NoteOnEvent(tick=70, channel=0, data=[55, 0]),
   midi.NoteOnEvent(tick=79, channel=0, data=[67, 32]),
   midi.NoteOnEvent(tick=10, channel=0, data=[62, 0]),
   midi.NoteOnEvent(tick=150, channel=0, data=[67, 0]),
   midi.NoteOnEvent(tick=0, channel=0, data=[49, 35]),
   midi.NoteOnEvent(tick=0, channel=0, data=[58, 35]),
   midi.ControlChangeEvent(tick=7, channel=0, data=[64, 0]),
   midi.ControlChangeEvent(tick=60, channel=0, data=[64, 127]),
   midi.NoteOnEvent(tick=93, channel=0, data=[58, 0]),
   midi.NoteOnEvent(tick=0, channel=0, data=[64, 38]),
   midi.NoteOnEvent(tick=80, channel=0, data=[49, 0]),
   midi.NoteOnEvent(tick=80, channel=0, data=[67, 32]),
   midi.NoteOnEvent(tick=10, channel=0, data=[64, 0]),
   midi.NoteOnEvent(tick=150, channel=0, data=[67, 0]),
   midi.ControlChangeEvent(tick=0, channel=0, data=[64, 0]),
   midi.NoteOnEvent(tick=0, channel=0, data=[50, 35]),
   midi.NoteOnEvent(tick=0, channel=0, data=[57, 35]),
   midi.ControlChangeEvent(tick=53, channel=0, data=[64, 127]),
   midi.NoteOnEvent(tick=107, channel=0, data=[62, 37]),
   midi.NoteOnEvent(tick=10, channel=0, data=[57, 0]),
   midi.NoteOnEvent(tick=70, channel=0, data=[50, 0]),
   midi.NoteOnEvent(tick=80, channel=0, data=[66, 27]),
   midi.NoteOnEvent(tick=10, channel=0, data=[62, 0]),
   midi.NoteOnEvent(tick=150, channel=0, data=[66, 0]),
   midi.NoteOnEvent(tick=0, channel=0, data=[54, 27]),
   midi.NoteOnEvent(tick=0, channel=0, data=[60, 27]),
   midi.ControlChangeEvent(tick=14, channel=0, data=[64, 0]),
   midi.ControlChangeEvent(tick=42, channel=0, data=[64, 127]),
   midi.NoteOnEvent(tick=104, channel=0, data=[62, 27]),
   midi.NoteOnEvent(tick=10, channel=0, data=[60, 0]),
   midi.NoteOnEvent(tick=70, channel=0, data=[54, 0]),
   midi.NoteOnEvent(tick=80, channel=0, data=[69, 27]),
   midi.NoteOnEvent(tick=10, channel=0, data=[62, 0]),
   midi.NoteOnEvent(tick=150, channel=0, data=[69, 0]),
   midi.ControlChangeEvent(tick=0, channel=0, data=[64, 0]),
   midi.ControlChangeEvent(tick=0, channel=0, data=[91, 127]),
   midi.NoteOnEvent(tick=1, channel=0, data=[59, 35]),
   midi.NoteOnEvent(tick=0, channel=0, data=[55, 35]),
   midi.ControlChangeEvent(tick=77, channel=0, data=[64, 127]),
   midi.NoteOnEvent(tick=82, channel=0, data=[62, 37]),
   midi.NoteOnEvent(tick=11, channel=0, data=[59, 0]),
   midi.NoteOnEvent(tick=70, channel=0, data=[55, 0]),
   midi.NoteOnEvent(tick=79, channel=0, data=[67, 32]),
   midi.NoteOnEvent(tick=10, channel=0, data=[62, 0]),
   midi.NoteOnEvent(tick=150, channel=0, data=[67, 0]),
   midi.NoteOnEvent(tick=0, channel=0, data=[49, 35]),
   midi.NoteOnEvent(tick=0, channel=0, data=[58, 35]),
   midi.ControlChangeEvent(tick=8, channel=0, data=[64, 0]),
   midi.ControlChangeEvent(tick=56, channel=0, data=[64, 127]),
   midi.NoteOnEvent(tick=96, channel=0, data=[64, 38]),
   midi.NoteOnEvent(tick=10, channel=0, data=[58, 0]),
   midi.NoteOnEvent(tick=70, channel=0, data=[49, 0]),
   midi.NoteOnEvent(tick=80, channel=0, data=[67, 32]),
   midi.NoteOnEvent(tick=10, channel=0, data=[64, 0]),
   midi.NoteOnEvent(tick=150, channel=0, data=[67, 0]),
   midi.ControlChangeEvent(tick=0, channel=0, data=[64, 0]),
   midi.NoteOnEvent(tick=0, channel=0, data=[50, 35]),
   midi.NoteOnEvent(tick=0, channel=0, data=[57, 35]),
   midi.ControlChangeEvent(tick=39, channel=0, data=[64, 127]),
   midi.NoteOnEvent(tick=121, channel=0, data=[62, 37]),
   midi.NoteOnEvent(tick=10, channel=0, data=[57, 0]),
   midi.NoteOnEvent(tick=70, channel=0, data=[50, 0]),
   midi.NoteOnEvent(tick=80, channel=0, data=[66, 28]),
   midi.NoteOnEvent(tick=10, channel=0, data=[62, 0]),
   midi.NoteOnEvent(tick=150, channel=0, data=[66, 0]),
   midi.NoteOnEvent(tick=0, channel=0, data=[54, 27]),
   midi.NoteOnEvent(tick=0, channel=0, data=[60, 27]),
   midi.ControlChangeEvent(tick=11, channel=0, data=[64, 0]),
   midi.ControlChangeEvent(tick=60, channel=0, data=[64, 127]),
   midi.NoteOnEvent(tick=89, channel=0, data=[62, 28]),
   midi.NoteOnEvent(tick=10, channel=0, data=[60, 0]),
   midi.NoteOnEvent(tick=70, channel=0, data=[54, 0]),
   midi.NoteOnEvent(tick=80, channel=0, data=[69, 27]),
   midi.NoteOnEvent(tick=10, channel=0, data=[62, 0]),
   midi.NoteOnEvent(tick=150, channel=0, data=[69, 0]),
   midi.ControlChangeEvent(tick=0, channel=0, data=[64, 0]),
   midi.ControlChangeEvent(tick=0, channel=0, data=[91, 127]),
   midi.NoteOnEvent(tick=1, channel=0, data=[59, 35]),
   midi.NoteOnEvent(tick=0, channel=0, data=[55, 35]),
   midi.ControlChangeEvent(tick=77, channel=0, data=[64, 127]),
   midi.NoteOnEvent(tick=82, channel=0, data=[62, 37]),
   midi.NoteOnEvent(tick=11, channel=0, data=[59, 0]),
   midi.NoteOnEvent(tick=70, channel=0, data=[55, 0]),
   midi.NoteOnEvent(tick=79, channel=0, data=[67, 37]),
   midi.NoteOnEvent(tick=10, channel=0, data=[62, 0]),
   midi.NoteOnEvent(tick=150, channel=0, data=[67, 0]),
   midi.NoteOnEvent(tick=0, channel=0, data=[47, 38]),
   midi.NoteOnEvent(tick=0, channel=0, data=[55, 38]),
   midi.NoteOnEvent(tick=160, channel=0, data=[62, 41]),
   midi.NoteOnEvent(tick=80, channel=0, data=[47, 0]),
   midi.NoteOnEvent(tick=80, channel=0, data=[67, 41]),
   midi.NoteOnEvent(tick=10, channel=0, data=[62, 0]),
   midi.NoteOnEvent(tick=150, channel=0, data=[67, 0]),
   midi.ControlChangeEvent(tick=0, channel=0, data=[64, 0]),
   midi.NoteOnEvent(tick=0, channel=0, data=[48, 38]),
   midi.ControlChangeEvent(tick=42, channel=0, data=[64, 127]),
   midi.NoteOnEvent(tick=118, channel=0, data=[55, 0]),
   midi.NoteOnEvent(tick=0, channel=0, data=[64, 40]),
   midi.NoteOnEvent(tick=80, channel=0, data=[48, 0]),
   midi.NoteOnEvent(tick=80, channel=0, data=[67, 40]),
   midi.NoteOnEvent(tick=10, channel=0, data=[64, 0]),
   midi.NoteOnEvent(tick=150, channel=0, data=[67, 0]),
   midi.NoteOnEvent(tick=0, channel=0, data=[52, 38]),
   midi.NoteOnEvent(tick=0, channel=0, data=[55, 38]),
   midi.ControlChangeEvent(tick=12, channel=0, data=[64, 0]),
   midi.ControlChangeEvent(tick=87, channel=0, data=[64, 127]),
   midi.NoteOnEvent(tick=61, channel=0, data=[60, 40]),
   midi.NoteOnEvent(tick=10, channel=0, data=[55, 0]),
   midi.NoteOnEvent(tick=70, channel=0, data=[52, 0]),
   midi.NoteOnEvent(tick=80, channel=0, data=[67, 40]),
   midi.NoteOnEvent(tick=10, channel=0, data=[60, 0]),
   midi.NoteOnEvent(tick=150, channel=0, data=[67, 0]),
   midi.ControlChangeEvent(tick=0, channel=0, data=[64, 0]),
   midi.NoteOnEvent(tick=0, channel=0, data=[50, 28]),
   midi.NoteOnEvent(tick=0, channel=0, data=[55, 28]),
   midi.ControlChangeEvent(tick=60, channel=0, data=[64, 127]),
   midi.NoteOnEvent(tick=100, channel=0, data=[60, 32]),
   midi.NoteOnEvent(tick=10, channel=0, data=[55, 0]),
   midi.NoteOnEvent(tick=70, channel=0, data=[50, 0]),
   midi.NoteOnEvent(tick=80, channel=0, data=[67, 29]),
   midi.NoteOnEvent(tick=10, channel=0, data=[60, 0]),
   midi.NoteOnEvent(tick=150, channel=0, data=[67, 0]),
   midi.NoteOnEvent(tick=0, channel=0, data=[50, 26]),
   midi.NoteOnEvent(tick=0, channel=0, data=[54, 26]),
   midi.ControlChangeEvent(tick=7, channel=0, data=[64, 0]),
   midi.ControlChangeEvent(tick=67, channel=0, data=[64, 127]),
   midi.NoteOnEvent(tick=86, channel=0, data=[60, 31]),
   midi.NoteOnEvent(tick=10, channel=0, data=[54, 0]),
   midi.NoteOnEvent(tick=70, channel=0, data=[50, 0]),
   midi.NoteOnEvent(tick=80, channel=0, data=[69, 26]),
   midi.NoteOnEvent(tick=10, channel=0, data=[60, 0]),
   midi.NoteOnEvent(tick=150, channel=0, data=[69, 0]),
   midi.ControlChangeEvent(tick=0, channel=0, data=[64, 0]),
   midi.NoteOnEvent(tick=0, channel=0, data=[43, 24]),
   midi.NoteOnEvent(tick=0, channel=0, data=[50, 24]),
   midi.ControlChangeEvent(tick=53, channel=0, data=[64, 127]),
   midi.NoteOnEvent(tick=107, channel=0, data=[59, 28]),
   midi.NoteOnEvent(tick=10, channel=0, data=[50, 0]),
   midi.NoteOnEvent(tick=70, channel=0, data=[43, 0]),
   midi.NoteOnEvent(tick=80, channel=0, data=[67, 25]),
   midi.NoteOnEvent(tick=10, channel=0, data=[59, 0]),
   midi.NoteOnEvent(tick=150, channel=0, data=[67, 0]),
   midi.NoteOnEvent(tick=0, channel=0, data=[55, 26]),
   midi.NoteOnEvent(tick=160, channel=0, data=[59, 26]),
   midi.NoteOnEvent(tick=80, channel=0, data=[55, 0]),
   midi.NoteOnEvent(tick=80, channel=0, data=[67, 21]),
   midi.NoteOnEvent(tick=10, channel=0, data=[59, 0]),
   midi.NoteOnEvent(tick=148, channel=0, data=[67, 0]),
   midi.ControlChangeEvent(tick=2, channel=0, data=[64, 0]),
   midi.NoteOnEvent(tick=0, channel=0, data=[52, 36]),
   midi.ControlChangeEvent(tick=78, channel=0, data=[64, 127]),
   midi.NoteOnEvent(tick=82, channel=0, data=[59, 36]),
   midi.NoteOnEvent(tick=160, channel=0, data=[64, 36]),
   midi.NoteOnEvent(tick=10, channel=0, data=[59, 0]),
   midi.NoteOnEvent(tick=150, channel=0, data=[64, 0]),
   midi.NoteOnEvent(tick=0, channel=0, data=[52, 0]),
   midi.NoteOnEvent(tick=0, channel=0, data=[45, 36]),
   midi.ControlChangeEvent(tick=15, channel=0, data=[64, 0]),
   midi.ControlChangeEvent(tick=91, channel=0, data=[64, 127]),
   midi.NoteOnEvent(tick=54, channel=0, data=[57, 36]),
   midi.NoteOnEvent(tick=160, channel=0, data=[64, 36]),
   midi.NoteOnEvent(tick=10, channel=0, data=[57, 0]),
   midi.NoteOnEvent(tick=150, channel=0, data=[64, 0]),
   midi.NoteOnEvent(tick=0, channel=0, data=[45, 0]),
   midi.NoteOnEvent(tick=0, channel=0, data=[50, 36]),
   midi.ControlChangeEvent(tick=11, channel=0, data=[64, 0]),
   midi.ControlChangeEvent(tick=109, channel=0, data=[64, 127]),
   midi.NoteOnEvent(tick=40, channel=0, data=[57, 39]),
   midi.NoteOnEvent(tick=160, channel=0, data=[62, 40]),
   midi.NoteOnEvent(tick=10, channel=0, data=[57, 0]),
   midi.NoteOnEvent(tick=30, channel=0, data=[50, 0]),
   midi.NoteOnEvent(tick=0, channel=0, data=[48, 46]),
   midi.NoteOnEvent(tick=120, channel=0, data=[48, 0]),
   midi.NoteOnEvent(tick=0, channel=0, data=[62, 0]),
   midi.NoteOnEvent(tick=0, channel=0, data=[47, 35]),
   midi.ControlChangeEvent(tick=7, channel=0, data=[64, 0]),
   midi.ControlChangeEvent(tick=113, channel=0, data=[64, 127]),
   midi.NoteOnEvent(tick=40, channel=0, data=[55, 35]),
   midi.NoteOnEvent(tick=160, channel=0, data=[62, 35]),
   midi.NoteOnEvent(tick=10, channel=0, data=[55, 0]),
   midi.NoteOnEvent(tick=150, channel=0, data=[62, 0]),
   midi.NoteOnEvent(tick=0, channel=0, data=[47, 0]),
   midi.ControlChangeEvent(tick=0, channel=0, data=[64, 0]),
   midi.NoteOnEvent(tick=0, channel=0, data=[48, 27]),
   midi.ControlChangeEvent(tick=71, channel=0, data=[64, 127]),
   midi.NoteOnEvent(tick=89, channel=0, data=[55, 27]),
   midi.NoteOnEvent(tick=160, channel=0, data=[60, 27]),
   midi.NoteOnEvent(tick=10, channel=0, data=[55, 0]),
   midi.NoteOnEvent(tick=150, channel=0, data=[60, 0]),
   midi.NoteOnEvent(tick=0, channel=0, data=[48, 0]),
   midi.NoteOnEvent(tick=0, channel=0, data=[42, 27]),
   midi.ControlChangeEvent(tick=7, channel=0, data=[64, 0]),
   midi.ControlChangeEvent(tick=92, channel=0, data=[64, 127]),
   midi.NoteOnEvent(tick=61, channel=0, data=[54, 27]),
   midi.NoteOnEvent(tick=160, channel=0, data=[60, 27]),
   midi.NoteOnEvent(tick=10, channel=0, data=[54, 0]),
   midi.NoteOnEvent(tick=150, channel=0, data=[60, 0]),
   midi.NoteOnEvent(tick=0, channel=0, data=[42, 0]),
   midi.ControlChangeEvent(tick=0, channel=0, data=[64, 0]),
   midi.NoteOnEvent(tick=0, channel=0, data=[47, 27]),
   midi.ControlChangeEvent(tick=67, channel=0, data=[64, 127]),
   midi.NoteOnEvent(tick=93, channel=0, data=[54, 34]),
   midi.NoteOnEvent(tick=160, channel=0, data=[59, 34]),
   midi.NoteOnEvent(tick=10, channel=0, data=[54, 0]),
   midi.NoteOnEvent(tick=30, channel=0, data=[47, 0]),
   midi.NoteOnEvent(tick=0, channel=0, data=[45, 39]),
   midi.NoteOnEvent(tick=120, channel=0, data=[45, 0]),
   midi.NoteOnEvent(tick=0, channel=0, data=[59, 0]),
   midi.NoteOnEvent(tick=0, channel=0, data=[43, 27]),
   midi.ControlChangeEvent(tick=7, channel=0, data=[64, 0]),
   midi.ControlChangeEvent(tick=99, channel=0, data=[64, 127]),
   midi.NoteOnEvent(tick=54, channel=0, data=[55, 27]),
   midi.NoteOnEvent(tick=160, channel=0, data=[59, 27]),
   midi.NoteOnEvent(tick=10, channel=0, data=[55, 0]),
   midi.NoteOnEvent(tick=150, channel=0, data=[59, 0]),
   midi.NoteOnEvent(tick=0, channel=0, data=[43, 0]),
   midi.ControlChangeEvent(tick=0, channel=0, data=[64, 0]),
   midi.NoteOnEvent(tick=0, channel=0, data=[48, 31]),
   midi.ControlChangeEvent(tick=78, channel=0, data=[64, 127]),
   midi.NoteOnEvent(tick=82, channel=0, data=[55, 31]),
   midi.NoteOnEvent(tick=160, channel=0, data=[60, 31]),
   midi.NoteOnEvent(tick=10, channel=0, data=[55, 0]),
   midi.NoteOnEvent(tick=150, channel=0, data=[60, 0]),
   midi.NoteOnEvent(tick=0, channel=0, data=[48, 0]),
   midi.NoteOnEvent(tick=0, channel=0, data=[48, 31]),
   midi.NoteOnEvent(tick=0, channel=0, data=[50, 31]),
   midi.ControlChangeEvent(tick=21, channel=0, data=[64, 0]),
   midi.ControlChangeEvent(tick=106, channel=0, data=[64, 127]),
   midi.NoteOnEvent(tick=33, channel=0, data=[57, 31]),
   midi.NoteOnEvent(tick=10, channel=0, data=[50, 0]),
   midi.NoteOnEvent(tick=150, channel=0, data=[62, 31]),
   midi.NoteOnEvent(tick=10, channel=0, data=[57, 0]),
   midi.NoteOnEvent(tick=150, channel=0, data=[62, 0]),
   midi.NoteOnEvent(tick=0, channel=0, data=[48, 0]),
   midi.ControlChangeEvent(tick=0, channel=0, data=[64, 0]),
   midi.NoteOnEvent(tick=0, channel=0, data=[47, 31]),
   midi.NoteOnEvent(tick=0, channel=0, data=[50, 31]),
   midi.ControlChangeEvent(tick=64, channel=0, data=[64, 127]),
   midi.NoteOnEvent(tick=96, channel=0, data=[55, 33]),
   midi.NoteOnEvent(tick=160, channel=0, data=[55, 0]),
   midi.NoteOnEvent(tick=0, channel=0, data=[62, 34]),
   midi.NoteOnEvent(tick=40, channel=0, data=[47, 0]),
   midi.NoteOnEvent(tick=0, channel=0, data=[45, 40]),
   midi.NoteOnEvent(tick=120, channel=0, data=[45, 0]),
   midi.NoteOnEvent(tick=0, channel=0, data=[62, 0]),
   midi.NoteOnEvent(tick=0, channel=0, data=[43, 31]),
   midi.ControlChangeEvent(tick=14, channel=0, data=[64, 0]),
   midi.ControlChangeEvent(tick=64, channel=0, data=[64, 127]),
   midi.NoteOnEvent(tick=82, channel=0, data=[57, 25]),
   midi.NoteOnEvent(tick=160, channel=0, data=[62, 25]),
   midi.NoteOnEvent(tick=160, channel=0, data=[62, 0]),
   midi.NoteOnEvent(tick=0, channel=0, data=[50, 0]),
   midi.NoteOnEvent(tick=0, channel=0, data=[43, 0]),
   midi.NoteOnEvent(tick=0, channel=0, data=[57, 0]),
   midi.ControlChangeEvent(tick=0, channel=0, data=[64, 0]),
   midi.ControlChangeEvent(tick=0, channel=0, data=[91, 127]),
   midi.NoteOnEvent(tick=1, channel=0, data=[59, 35]),
   midi.NoteOnEvent(tick=0, channel=0, data=[55, 35]),
   midi.ControlChangeEvent(tick=63, channel=0, data=[64, 127]),
   midi.NoteOnEvent(tick=96, channel=0, data=[62, 37]),
   midi.NoteOnEvent(tick=11, channel=0, data=[59, 0]),
   midi.NoteOnEvent(tick=70, channel=0, data=[55, 0]),
   midi.NoteOnEvent(tick=79, channel=0, data=[67, 32]),
   midi.NoteOnEvent(tick=10, channel=0, data=[62, 0]),
   midi.NoteOnEvent(tick=150, channel=0, data=[67, 0]),
   midi.NoteOnEvent(tick=0, channel=0, data=[49, 35]),
   midi.NoteOnEvent(tick=0, channel=0, data=[58, 35]),
   midi.ControlChangeEvent(tick=4, channel=0, data=[64, 0]),
   midi.ControlChangeEvent(tick=67, channel=0, data=[64, 127]),
   midi.NoteOnEvent(tick=89, channel=0, data=[64, 38]),
   midi.NoteOnEvent(tick=10, channel=0, data=[58, 0]),
   midi.NoteOnEvent(tick=70, channel=0, data=[49, 0]),
   midi.NoteOnEvent(tick=80, channel=0, data=[67, 32]),
   midi.NoteOnEvent(tick=10, channel=0, data=[64, 0]),
   midi.NoteOnEvent(tick=150, channel=0, data=[67, 0]),
   midi.ControlChangeEvent(tick=0, channel=0, data=[64, 0]),
   midi.NoteOnEvent(tick=0, channel=0, data=[50, 35]),
   midi.NoteOnEvent(tick=0, channel=0, data=[57, 35]),
   midi.ControlChangeEvent(tick=46, channel=0, data=[64, 127]),
   midi.NoteOnEvent(tick=114, channel=0, data=[62, 37]),
   midi.NoteOnEvent(tick=10, channel=0, data=[57, 0]),
   midi.NoteOnEvent(tick=70, channel=0, data=[50, 0]),
   midi.NoteOnEvent(tick=80, channel=0, data=[66, 29]),
   midi.NoteOnEvent(tick=10, channel=0, data=[62, 0]),
   midi.NoteOnEvent(tick=150, channel=0, data=[66, 0]),
   midi.NoteOnEvent(tick=0, channel=0, data=[54, 27]),
   midi.NoteOnEvent(tick=0, channel=0, data=[60, 27]),
   midi.ControlChangeEvent(tick=4, channel=0, data=[64, 0]),
   midi.ControlChangeEvent(tick=63, channel=0, data=[64, 127]),
   midi.NoteOnEvent(tick=93, channel=0, data=[62, 28]),
   midi.NoteOnEvent(tick=10, channel=0, data=[60, 0]),
   midi.NoteOnEvent(tick=70, channel=0, data=[54, 0]),
   midi.NoteOnEvent(tick=80, channel=0, data=[69, 25]),
   midi.NoteOnEvent(tick=10, channel=0, data=[62, 0]),
   midi.NoteOnEvent(tick=150, channel=0, data=[69, 0]),
   midi.ControlChangeEvent(tick=0, channel=0, data=[91, 127]),
   midi.NoteOnEvent(tick=1, channel=0, data=[59, 35]),
   midi.NoteOnEvent(tick=0, channel=0, data=[55, 35]),
   midi.ControlChangeEvent(tick=1, channel=0, data=[64, 0]),
   midi.ControlChangeEvent(tick=51, channel=0, data=[64, 127]),
   midi.NoteOnEvent(tick=107, channel=0, data=[62, 37]),
   midi.NoteOnEvent(tick=11, channel=0, data=[59, 0]),
   midi.NoteOnEvent(tick=70, channel=0, data=[55, 0]),
   midi.NoteOnEvent(tick=79, channel=0, data=[67, 32]),
   midi.NoteOnEvent(tick=10, channel=0, data=[62, 0]),
   midi.NoteOnEvent(tick=150, channel=0, data=[67, 0]),
   midi.NoteOnEvent(tick=0, channel=0, data=[49, 35]),
   midi.NoteOnEvent(tick=0, channel=0, data=[58, 35]),
   midi.ControlChangeEvent(tick=7, channel=0, data=[64, 0]),
   midi.ControlChangeEvent(tick=49, channel=0, data=[64, 127]),
   midi.NoteOnEvent(tick=104, channel=0, data=[64, 38]),
   midi.NoteOnEvent(tick=10, channel=0, data=[58, 0]),
   midi.NoteOnEvent(tick=70, channel=0, data=[49, 0]),
   midi.NoteOnEvent(tick=80, channel=0, data=[67, 32]),
   midi.NoteOnEvent(tick=10, channel=0, data=[64, 0]),
   midi.NoteOnEvent(tick=150, channel=0, data=[67, 0]),
   midi.ControlChangeEvent(tick=0, channel=0, data=[64, 0]),
   midi.NoteOnEvent(tick=0, channel=0, data=[50, 35]),
   midi.NoteOnEvent(tick=0, channel=0, data=[57, 35]),
   midi.ControlChangeEvent(tick=49, channel=0, data=[64, 127]),
   midi.NoteOnEvent(tick=111, channel=0, data=[62, 37]),
   midi.NoteOnEvent(tick=10, channel=0, data=[57, 0]),
   midi.NoteOnEvent(tick=70, channel=0, data=[50, 0]),
   midi.NoteOnEvent(tick=80, channel=0, data=[66, 27]),
   midi.NoteOnEvent(tick=10, channel=0, data=[62, 0]),
   midi.NoteOnEvent(tick=150, channel=0, data=[66, 0]),
   midi.NoteOnEvent(tick=0, channel=0, data=[54, 26]),
   midi.NoteOnEvent(tick=0, channel=0, data=[60, 26]),
   midi.ControlChangeEvent(tick=6, channel=0, data=[64, 0]),
   midi.ControlChangeEvent(tick=54, channel=0, data=[64, 127]),
   midi.NoteOnEvent(tick=100, channel=0, data=[62, 28]),
   midi.NoteOnEvent(tick=10, channel=0, data=[60, 0]),
   midi.NoteOnEvent(tick=70, channel=0, data=[54, 0]),
   midi.NoteOnEvent(tick=80, channel=0, data=[69, 27]),
   midi.NoteOnEvent(tick=10, channel=0, data=[62, 0]),
   midi.NoteOnEvent(tick=150, channel=0, data=[69, 0]),
   midi.ControlChangeEvent(tick=0, channel=0, data=[64, 0]),
   midi.ControlChangeEvent(tick=0, channel=0, data=[91, 127]),
   midi.NoteOnEvent(tick=1, channel=0, data=[59, 35]),
   midi.NoteOnEvent(tick=0, channel=0, data=[55, 35]),
   midi.ControlChangeEvent(tick=63, channel=0, data=[64, 127]),
   midi.NoteOnEvent(tick=96, channel=0, data=[62, 37]),
   midi.NoteOnEvent(tick=11, channel=0, data=[59, 0]),
   midi.NoteOnEvent(tick=70, channel=0, data=[55, 0]),
   midi.NoteOnEvent(tick=79, channel=0, data=[67, 37]),
   midi.NoteOnEvent(tick=10, channel=0, data=[62, 0]),
   midi.NoteOnEvent(tick=150, channel=0, data=[67, 0]),
   midi.NoteOnEvent(tick=0, channel=0, data=[47, 38]),
   midi.NoteOnEvent(tick=0, channel=0, data=[55, 38]),
   midi.NoteOnEvent(tick=160, channel=0, data=[62, 41]),
   midi.NoteOnEvent(tick=80, channel=0, data=[47, 0]),
   midi.NoteOnEvent(tick=80, channel=0, data=[67, 41]),
   midi.NoteOnEvent(tick=10, channel=0, data=[62, 0]),
   midi.NoteOnEvent(tick=150, channel=0, data=[67, 0]),
   midi.ControlChangeEvent(tick=0, channel=0, data=[64, 0]),
   midi.NoteOnEvent(tick=0, channel=0, data=[48, 38]),
   midi.ControlChangeEvent(tick=39, channel=0, data=[64, 127]),
   midi.NoteOnEvent(tick=121, channel=0, data=[55, 0]),
   midi.NoteOnEvent(tick=0, channel=0, data=[64, 40]),
   midi.NoteOnEvent(tick=80, channel=0, data=[48, 0]),
   midi.NoteOnEvent(tick=80, channel=0, data=[67, 40]),
   midi.NoteOnEvent(tick=10, channel=0, data=[64, 0]),
   midi.NoteOnEvent(tick=150, channel=0, data=[67, 0]),
   midi.NoteOnEvent(tick=0, channel=0, data=[52, 38]),
   midi.NoteOnEvent(tick=0, channel=0, data=[55, 38]),
   midi.ControlChangeEvent(tick=18, channel=0, data=[64, 0]),
   midi.ControlChangeEvent(tick=46, channel=0, data=[64, 127]),
   midi.NoteOnEvent(tick=96, channel=0, data=[60, 40]),
   midi.NoteOnEvent(tick=10, channel=0, data=[55, 0]),
   midi.NoteOnEvent(tick=70, channel=0, data=[52, 0]),
   midi.NoteOnEvent(tick=80, channel=0, data=[67, 40]),
   midi.NoteOnEvent(tick=10, channel=0, data=[60, 0]),
   midi.NoteOnEvent(tick=150, channel=0, data=[67, 0]),
   midi.ControlChangeEvent(tick=0, channel=0, data=[64, 0]),
   midi.NoteOnEvent(tick=0, channel=0, data=[50, 28]),
   midi.NoteOnEvent(tick=0, channel=0, data=[55, 28]),
   midi.ControlChangeEvent(tick=39, channel=0, data=[64, 127]),
   midi.NoteOnEvent(tick=121, channel=0, data=[60, 32]),
   midi.NoteOnEvent(tick=10, channel=0, data=[55, 0]),
   midi.NoteOnEvent(tick=70, channel=0, data=[50, 0]),
   midi.NoteOnEvent(tick=80, channel=0, data=[67, 29]),
   midi.NoteOnEvent(tick=10, channel=0, data=[60, 0]),
   midi.NoteOnEvent(tick=150, channel=0, data=[67, 0]),
   midi.NoteOnEvent(tick=0, channel=0, data=[50, 26]),
   midi.NoteOnEvent(tick=0, channel=0, data=[54, 26]),
   midi.ControlChangeEvent(tick=7, channel=0, data=[64, 0]),
   midi.ControlChangeEvent(tick=53, channel=0, data=[64, 127]),
   midi.NoteOnEvent(tick=100, channel=0, data=[60, 31]),
   midi.NoteOnEvent(tick=10, channel=0, data=[54, 0]),
   midi.NoteOnEvent(tick=70, channel=0, data=[50, 0]),
   midi.NoteOnEvent(tick=80, channel=0, data=[69, 26]),
   midi.NoteOnEvent(tick=10, channel=0, data=[60, 0]),
   midi.NoteOnEvent(tick=150, channel=0, data=[69, 0]),
   midi.ControlChangeEvent(tick=0, channel=0, data=[64, 0]),
   midi.NoteOnEvent(tick=0, channel=0, data=[43, 24]),
   midi.NoteOnEvent(tick=0, channel=0, data=[50, 24]),
   midi.ControlChangeEvent(tick=53, channel=0, data=[64, 127]),
   midi.NoteOnEvent(tick=107, channel=0, data=[59, 28]),
   midi.NoteOnEvent(tick=160, channel=0, data=[67, 25]),
   midi.NoteOnEvent(tick=160, channel=0, data=[67, 0]),
   midi.NoteOnEvent(tick=160, channel=0, data=[59, 0]),
   midi.NoteOnEvent(tick=0, channel=0, data=[59, 26]),
   midi.NoteOnEvent(tick=160, channel=0, data=[59, 0]),
   midi.NoteOnEvent(tick=0, channel=0, data=[67, 21]),
   midi.NoteOnEvent(tick=158, channel=0, data=[67, 0]),
   midi.NoteOnEvent(tick=2, channel=0, data=[50, 0]),
   midi.NoteOnEvent(tick=0, channel=0, data=[43, 0]),
   midi.ControlChangeEvent(tick=0, channel=0, data=[64, 0]),
   midi.NoteOnEvent(tick=0, channel=0, data=[52, 36]),
   midi.ControlChangeEvent(tick=78, channel=0, data=[64, 127]),
   midi.NoteOnEvent(tick=82, channel=0, data=[59, 36]),
   midi.NoteOnEvent(tick=160, channel=0, data=[64, 36]),
   midi.NoteOnEvent(tick=10, channel=0, data=[59, 0]),
   midi.NoteOnEvent(tick=150, channel=0, data=[64, 0]),
   midi.NoteOnEvent(tick=0, channel=0, data=[52, 0]),
   midi.NoteOnEvent(tick=0, channel=0, data=[45, 36]),
   midi.ControlChangeEvent(tick=6, channel=0, data=[64, 0]),
   midi.ControlChangeEvent(tick=72, channel=0, data=[64, 127]),
   midi.NoteOnEvent(tick=82, channel=0, data=[57, 36]),
   midi.NoteOnEvent(tick=160, channel=0, data=[64, 36]),
   midi.NoteOnEvent(tick=10, channel=0, data=[57, 0]),
   midi.NoteOnEvent(tick=150, channel=0, data=[64, 0]),
   midi.NoteOnEvent(tick=0, channel=0, data=[45, 0]),
   midi.ControlChangeEvent(tick=0, channel=0, data=[64, 0]),
   midi.NoteOnEvent(tick=0, channel=0, data=[50, 36]),
   midi.ControlChangeEvent(tick=53, channel=0, data=[64, 127]),
   midi.NoteOnEvent(tick=107, channel=0, data=[57, 41]),
   midi.NoteOnEvent(tick=160, channel=0, data=[62, 40]),
   midi.NoteOnEvent(tick=10, channel=0, data=[57, 0]),
   midi.NoteOnEvent(tick=30, channel=0, data=[50, 0]),
   midi.NoteOnEvent(tick=0, channel=0, data=[48, 48]),
   midi.NoteOnEvent(tick=120, channel=0, data=[48, 0]),
   midi.NoteOnEvent(tick=0, channel=0, data=[62, 0]),
   midi.NoteOnEvent(tick=0, channel=0, data=[47, 35]),
   midi.ControlChangeEvent(tick=9, channel=0, data=[64, 0]),
   midi.ControlChangeEvent(tick=83, channel=0, data=[64, 127]),
   midi.NoteOnEvent(tick=68, channel=0, data=[55, 35]),
   midi.NoteOnEvent(tick=160, channel=0, data=[62, 35]),
   midi.NoteOnEvent(tick=10, channel=0, data=[55, 0]),
   midi.NoteOnEvent(tick=150, channel=0, data=[62, 0]),
   midi.NoteOnEvent(tick=0, channel=0, data=[47, 0]),
   midi.ControlChangeEvent(tick=0, channel=0, data=[64, 0]),
   midi.NoteOnEvent(tick=0, channel=0, data=[48, 27]),
   midi.ControlChangeEvent(tick=71, channel=0, data=[64, 127]),
   midi.NoteOnEvent(tick=89, channel=0, data=[55, 27]),
   midi.NoteOnEvent(tick=160, channel=0, data=[60, 27]),
   midi.NoteOnEvent(tick=10, channel=0, data=[55, 0]),
   midi.NoteOnEvent(tick=150, channel=0, data=[60, 0]),
   midi.NoteOnEvent(tick=0, channel=0, data=[48, 0]),
   midi.NoteOnEvent(tick=0, channel=0, data=[42, 27]),
   midi.ControlChangeEvent(tick=15, channel=0, data=[64, 0]),
   midi.ControlChangeEvent(tick=91, channel=0, data=[64, 127]),
   midi.NoteOnEvent(tick=54, channel=0, data=[54, 27]),
   midi.NoteOnEvent(tick=160, channel=0, data=[60, 27]),
   midi.NoteOnEvent(tick=10, channel=0, data=[54, 0]),
   midi.NoteOnEvent(tick=150, channel=0, data=[60, 0]),
   midi.NoteOnEvent(tick=0, channel=0, data=[42, 0]),
   midi.ControlChangeEvent(tick=0, channel=0, data=[64, 0]),
   midi.NoteOnEvent(tick=0, channel=0, data=[47, 27]),
   midi.ControlChangeEvent(tick=71, channel=0, data=[64, 127]),
   midi.NoteOnEvent(tick=89, channel=0, data=[54, 33]),
   midi.NoteOnEvent(tick=160, channel=0, data=[59, 34]),
   midi.NoteOnEvent(tick=10, channel=0, data=[54, 0]),
   midi.NoteOnEvent(tick=30, channel=0, data=[47, 0]),
   midi.NoteOnEvent(tick=0, channel=0, data=[45, 39]),
   midi.NoteOnEvent(tick=120, channel=0, data=[45, 0]),
   midi.NoteOnEvent(tick=0, channel=0, data=[59, 0]),
   midi.NoteOnEvent(tick=0, channel=0, data=[43, 27]),
   midi.ControlChangeEvent(tick=9, channel=0, data=[64, 0]),
   midi.ControlChangeEvent(tick=97, channel=0, data=[64, 127]),
   midi.NoteOnEvent(tick=54, channel=0, data=[55, 27]),
   midi.NoteOnEvent(tick=160, channel=0, data=[59, 27]),
   midi.NoteOnEvent(tick=10, channel=0, data=[55, 0]),
   midi.NoteOnEvent(tick=150, channel=0, data=[59, 0]),
   midi.NoteOnEvent(tick=0, channel=0, data=[43, 0]),
   midi.ControlChangeEvent(tick=0, channel=0, data=[64, 0]),
   midi.NoteOnEvent(tick=0, channel=0, data=[48, 31]),
   midi.ControlChangeEvent(tick=127, channel=0, data=[64, 127]),
   midi.NoteOnEvent(tick=33, channel=0, data=[55, 31]),
   midi.NoteOnEvent(tick=160, channel=0, data=[60, 31]),
   midi.NoteOnEvent(tick=10, channel=0, data=[55, 0]),
   midi.NoteOnEvent(tick=150, channel=0, data=[60, 0]),
   midi.NoteOnEvent(tick=0, channel=0, data=[48, 0]),
   midi.NoteOnEvent(tick=0, channel=0, data=[48, 31]),
   midi.NoteOnEvent(tick=0, channel=0, data=[50, 31]),
   midi.ControlChangeEvent(tick=14, channel=0, data=[64, 0]),
   midi.ControlChangeEvent(tick=78, channel=0, data=[64, 127]),
   midi.NoteOnEvent(tick=68, channel=0, data=[57, 31]),
   midi.NoteOnEvent(tick=10, channel=0, data=[50, 0]),
   midi.NoteOnEvent(tick=150, channel=0, data=[62, 31]),
   midi.NoteOnEvent(tick=10, channel=0, data=[57, 0]),
   midi.NoteOnEvent(tick=150, channel=0, data=[62, 0]),
   midi.NoteOnEvent(tick=0, channel=0, data=[48, 0]),
   midi.ControlChangeEvent(tick=0, channel=0, data=[64, 0]),
   midi.NoteOnEvent(tick=0, channel=0, data=[47, 31]),
   midi.NoteOnEvent(tick=0, channel=0, data=[50, 31]),
   midi.ControlChangeEvent(tick=60, channel=0, data=[64, 127]),
   midi.NoteOnEvent(tick=100, channel=0, data=[55, 34]),
   midi.NoteOnEvent(tick=160, channel=0, data=[55, 0]),
   midi.NoteOnEvent(tick=0, channel=0, data=[62, 34]),
   midi.NoteOnEvent(tick=40, channel=0, data=[47, 0]),
   midi.NoteOnEvent(tick=0, channel=0, data=[45, 39]),
   midi.NoteOnEvent(tick=120, channel=0, data=[45, 0]),
   midi.NoteOnEvent(tick=0, channel=0, data=[62, 0]),
   midi.NoteOnEvent(tick=0, channel=0, data=[43, 31]),
   midi.ControlChangeEvent(tick=9, channel=0, data=[64, 0]),
   midi.ControlChangeEvent(tick=87, channel=0, data=[64, 127]),
   midi.NoteOnEvent(tick=64, channel=0, data=[57, 25]),
   midi.NoteOnEvent(tick=160, channel=0, data=[62, 25]),
   midi.NoteOnEvent(tick=160, channel=0, data=[62, 0]),
   midi.NoteOnEvent(tick=0, channel=0, data=[50, 0]),
   midi.NoteOnEvent(tick=0, channel=0, data=[43, 0]),
   midi.NoteOnEvent(tick=0, channel=0, data=[57, 0]),
   midi.ControlChangeEvent(tick=0, channel=0, data=[91, 127]),
   midi.NoteOnEvent(tick=1, channel=0, data=[59, 35]),
   midi.NoteOnEvent(tick=0, channel=0, data=[55, 35]),
   midi.ControlChangeEvent(tick=17, channel=0, data=[64, 0]),
   midi.ControlChangeEvent(tick=81, channel=0, data=[64, 127]),
   midi.NoteOnEvent(tick=61, channel=0, data=[62, 37]),
   midi.NoteOnEvent(tick=11, channel=0, data=[59, 0]),
   midi.NoteOnEvent(tick=70, channel=0, data=[55, 0]),
   midi.NoteOnEvent(tick=79, channel=0, data=[67, 32]),
   midi.NoteOnEvent(tick=10, channel=0, data=[62, 0]),
   midi.NoteOnEvent(tick=150, channel=0, data=[67, 0]),
   midi.NoteOnEvent(tick=0, channel=0, data=[49, 35]),
   midi.NoteOnEvent(tick=0, channel=0, data=[58, 35]),
   midi.ControlChangeEvent(tick=7, channel=0, data=[64, 0]),
   midi.ControlChangeEvent(tick=53, channel=0, data=[64, 127]),
   midi.NoteOnEvent(tick=100, channel=0, data=[64, 38]),
   midi.NoteOnEvent(tick=10, channel=0, data=[58, 0]),
   midi.NoteOnEvent(tick=70, channel=0, data=[49, 0]),
   midi.NoteOnEvent(tick=80, channel=0, data=[67, 32]),
   midi.NoteOnEvent(tick=10, channel=0, data=[64, 0]),
   midi.NoteOnEvent(tick=150, channel=0, data=[67, 0]),
   midi.ControlChangeEvent(tick=0, channel=0, data=[64, 0]),
   midi.NoteOnEvent(tick=0, channel=0, data=[50, 35]),
   midi.NoteOnEvent(tick=0, channel=0, data=[57, 35]),
   midi.ControlChangeEvent(tick=49, channel=0, data=[64, 127]),
   midi.NoteOnEvent(tick=111, channel=0, data=[62, 37]),
   midi.NoteOnEvent(tick=10, channel=0, data=[57, 0]),
   midi.NoteOnEvent(tick=70, channel=0, data=[50, 0]),
   midi.NoteOnEvent(tick=80, channel=0, data=[66, 27]),
   midi.NoteOnEvent(tick=10, channel=0, data=[62, 0]),
   midi.NoteOnEvent(tick=150, channel=0, data=[66, 0]),
   midi.NoteOnEvent(tick=0, channel=0, data=[54, 26]),
   midi.NoteOnEvent(tick=0, channel=0, data=[60, 26]),
   midi.ControlChangeEvent(tick=2, channel=0, data=[64, 0]),
   midi.ControlChangeEvent(tick=58, channel=0, data=[64, 127]),
   midi.NoteOnEvent(tick=100, channel=0, data=[62, 28]),
   midi.NoteOnEvent(tick=10, channel=0, data=[60, 0]),
   midi.NoteOnEvent(tick=70, channel=0, data=[54, 0]),
   midi.NoteOnEvent(tick=80, channel=0, data=[69, 27]),
   midi.NoteOnEvent(tick=10, channel=0, data=[62, 0]),
   midi.NoteOnEvent(tick=150, channel=0, data=[69, 0]),
   midi.ControlChangeEvent(tick=0, channel=0, data=[64, 0]),
   midi.ControlChangeEvent(tick=0, channel=0, data=[91, 127]),
   midi.NoteOnEvent(tick=1, channel=0, data=[59, 35]),
   midi.NoteOnEvent(tick=0, channel=0, data=[55, 35]),
   midi.ControlChangeEvent(tick=70, channel=0, data=[64, 127]),
   midi.NoteOnEvent(tick=89, channel=0, data=[62, 37]),
   midi.NoteOnEvent(tick=11, channel=0, data=[59, 0]),
   midi.NoteOnEvent(tick=70, channel=0, data=[55, 0]),
   midi.NoteOnEvent(tick=79, channel=0, data=[67, 32]),
   midi.NoteOnEvent(tick=10, channel=0, data=[62, 0]),
   midi.NoteOnEvent(tick=150, channel=0, data=[67, 0]),
   midi.NoteOnEvent(tick=0, channel=0, data=[49, 35]),
   midi.NoteOnEvent(tick=0, channel=0, data=[58, 35]),
   midi.ControlChangeEvent(tick=7, channel=0, data=[64, 0]),
   midi.ControlChangeEvent(tick=46, channel=0, data=[64, 127]),
   midi.NoteOnEvent(tick=107, channel=0, data=[64, 38]),
   midi.NoteOnEvent(tick=10, channel=0, data=[58, 0]),
   midi.NoteOnEvent(tick=70, channel=0, data=[49, 0]),
   midi.NoteOnEvent(tick=80, channel=0, data=[67, 32]),
   midi.NoteOnEvent(tick=10, channel=0, data=[64, 0]),
   midi.NoteOnEvent(tick=150, channel=0, data=[67, 0]),
   midi.NoteOnEvent(tick=0, channel=0, data=[50, 35]),
   midi.NoteOnEvent(tick=0, channel=0, data=[57, 35]),
   midi.ControlChangeEvent(tick=14, channel=0, data=[64, 0]),
   midi.ControlChangeEvent(tick=39, channel=0, data=[64, 127]),
   midi.NoteOnEvent(tick=107, channel=0, data=[62, 37]),
   midi.NoteOnEvent(tick=10, channel=0, data=[57, 0]),
   midi.NoteOnEvent(tick=70, channel=0, data=[50, 0]),
   midi.NoteOnEvent(tick=80, channel=0, data=[66, 28]),
   midi.NoteOnEvent(tick=10, channel=0, data=[62, 0]),
   midi.NoteOnEvent(tick=150, channel=0, data=[66, 0]),
   midi.NoteOnEvent(tick=0, channel=0, data=[54, 27]),
   midi.NoteOnEvent(tick=0, channel=0, data=[60, 27]),
   midi.ControlChangeEvent(tick=10, channel=0, data=[64, 0]),
   midi.ControlChangeEvent(tick=50, channel=0, data=[64, 127]),
   midi.NoteOnEvent(tick=100, channel=0, data=[62, 28]),
   midi.NoteOnEvent(tick=10, channel=0, data=[60, 0]),
   midi.NoteOnEvent(tick=70, channel=0, data=[54, 0]),
   midi.NoteOnEvent(tick=80, channel=0, data=[69, 26]),
   midi.NoteOnEvent(tick=10, channel=0, data=[62, 0]),
   midi.NoteOnEvent(tick=150, channel=0, data=[69, 0]),
   midi.ControlChangeEvent(tick=0, channel=0, data=[64, 0]),
   midi.ControlChangeEvent(tick=0, channel=0, data=[91, 127]),
   midi.NoteOnEvent(tick=1, channel=0, data=[59, 35]),
   midi.NoteOnEvent(tick=0, channel=0, data=[55, 35]),
   midi.ControlChangeEvent(tick=126, channel=0, data=[64, 127]),
   midi.NoteOnEvent(tick=33, channel=0, data=[62, 37]),
   midi.NoteOnEvent(tick=11, channel=0, data=[59, 0]),
   midi.NoteOnEvent(tick=70, channel=0, data=[55, 0]),
   midi.NoteOnEvent(tick=79, channel=0, data=[67, 37]),
   midi.NoteOnEvent(tick=10, channel=0, data=[62, 0]),
   midi.NoteOnEvent(tick=150, channel=0, data=[67, 0]),
   midi.NoteOnEvent(tick=0, channel=0, data=[47, 38]),
   midi.NoteOnEvent(tick=0, channel=0, data=[55, 38]),
   midi.NoteOnEvent(tick=160, channel=0, data=[62, 41]),
   midi.NoteOnEvent(tick=80, channel=0, data=[47, 0]),
   midi.NoteOnEvent(tick=80, channel=0, data=[67, 41]),
   midi.NoteOnEvent(tick=10, channel=0, data=[62, 0]),
   midi.NoteOnEvent(tick=150, channel=0, data=[67, 0]),
   midi.NoteOnEvent(tick=0, channel=0, data=[48, 38]),
   midi.ControlChangeEvent(tick=2, channel=0, data=[64, 0]),
   midi.ControlChangeEvent(tick=51, channel=0, data=[64, 127]),
   midi.NoteOnEvent(tick=107, channel=0, data=[55, 0]),
   midi.NoteOnEvent(tick=0, channel=0, data=[64, 40]),
   midi.NoteOnEvent(tick=80, channel=0, data=[48, 0]),
   midi.NoteOnEvent(tick=80, channel=0, data=[67, 40]),
   midi.NoteOnEvent(tick=10, channel=0, data=[64, 0]),
   midi.NoteOnEvent(tick=150, channel=0, data=[67, 0]),
   midi.NoteOnEvent(tick=0, channel=0, data=[52, 38]),
   midi.NoteOnEvent(tick=0, channel=0, data=[55, 38]),
   midi.ControlChangeEvent(tick=14, channel=0, data=[64, 0]),
   midi.ControlChangeEvent(tick=42, channel=0, data=[64, 127]),
   midi.NoteOnEvent(tick=104, channel=0, data=[60, 40]),
   midi.NoteOnEvent(tick=10, channel=0, data=[55, 0]),
   midi.NoteOnEvent(tick=70, channel=0, data=[52, 0]),
   midi.NoteOnEvent(tick=80, channel=0, data=[67, 40]),
   midi.NoteOnEvent(tick=10, channel=0, data=[60, 0]),
   midi.NoteOnEvent(tick=150, channel=0, data=[67, 0]),
   midi.NoteOnEvent(tick=0, channel=0, data=[50, 28]),
   midi.NoteOnEvent(tick=0, channel=0, data=[55, 28]),
   midi.ControlChangeEvent(tick=7, channel=0, data=[64, 0]),
   midi.ControlChangeEvent(tick=39, channel=0, data=[64, 127]),
   midi.NoteOnEvent(tick=114, channel=0, data=[60, 32]),
   midi.NoteOnEvent(tick=10, channel=0, data=[55, 0]),
   midi.NoteOnEvent(tick=70, channel=0, data=[50, 0]),
   midi.NoteOnEvent(tick=80, channel=0, data=[67, 29]),
   midi.NoteOnEvent(tick=10, channel=0, data=[60, 0]),
   midi.NoteOnEvent(tick=150, channel=0, data=[67, 0]),
   midi.NoteOnEvent(tick=0, channel=0, data=[50, 26]),
   midi.NoteOnEvent(tick=0, channel=0, data=[54, 26]),
   midi.ControlChangeEvent(tick=15, channel=0, data=[64, 0]),
   midi.ControlChangeEvent(tick=41, channel=0, data=[64, 127]),
   midi.NoteOnEvent(tick=104, channel=0, data=[60, 31]),
   midi.NoteOnEvent(tick=10, channel=0, data=[54, 0]),
   midi.NoteOnEvent(tick=70, channel=0, data=[50, 0]),
   midi.NoteOnEvent(tick=80, channel=0, data=[69, 26]),
   midi.NoteOnEvent(tick=10, channel=0, data=[60, 0]),
   midi.NoteOnEvent(tick=150, channel=0, data=[69, 0]),
   midi.ControlChangeEvent(tick=0, channel=0, data=[64, 0]),
   midi.NoteOnEvent(tick=0, channel=0, data=[43, 24]),
   midi.NoteOnEvent(tick=0, channel=0, data=[50, 24]),
   midi.ControlChangeEvent(tick=56, channel=0, data=[64, 127]),
   midi.NoteOnEvent(tick=104, channel=0, data=[59, 28]),
   midi.NoteOnEvent(tick=160, channel=0, data=[67, 25]),
   midi.NoteOnEvent(tick=160, channel=0, data=[67, 0]),
   midi.NoteOnEvent(tick=160, channel=0, data=[59, 0]),
   midi.NoteOnEvent(tick=0, channel=0, data=[59, 24]),
   midi.NoteOnEvent(tick=160, channel=0, data=[67, 19]),
   midi.NoteOnEvent(tick=10, channel=0, data=[59, 0]),
   midi.NoteOnEvent(tick=150, channel=0, data=[43, 0]),
   midi.NoteOnEvent(tick=0, channel=0, data=[50, 0]),
   midi.NoteOnEvent(tick=0, channel=0, data=[67, 0]),
   midi.ControlChangeEvent(tick=587, channel=0, data=[64, 0]),
   midi.EndOfTrackEvent(tick=0, data=[])]),
 midi.Track(\
  [midi.TrackNameEvent(tick=0, text='Schumann: Scenes from Childhood Op. 15', data=[83, 99, 104, 117, 109, 97, 110, 110, 58, 32, 83, 99, 101, 110, 101, 115, 32, 102, 114, 111, 109, 32, 67, 104, 105, 108, 100, 104, 111, 111, 100, 32, 79, 112, 46, 32, 49, 53]),
   midi.EndOfTrackEvent(tick=0, data=[])]),
 midi.Track(\
  [midi.TrackNameEvent(tick=0, text='Copyright © 1997 by Bernd Krueger', data=[67, 111, 112, 121, 114, 105, 103, 104, 116, 32, 169, 32, 49, 57, 57, 55, 32, 98, 121, 32, 66, 101, 114, 110, 100, 32, 75, 114, 117, 101, 103, 101, 114]),
   midi.EndOfTrackEvent(tick=0, data=[])]),
 midi.Track(\
  [midi.TrackNameEvent(tick=0, text='http://www.piano-midi.de', data=[104, 116, 116, 112, 58, 47, 47, 119, 119, 119, 46, 112, 105, 97, 110, 111, 45, 109, 105, 100, 105, 46, 100, 101]),
   midi.EndOfTrackEvent(tick=0, data=[])]),
 midi.Track(\
  [midi.TrackNameEvent(tick=0, text='Edition: 2014-03-26', data=[69, 100, 105, 116, 105, 111, 110, 58, 32, 50, 48, 49, 52, 45, 48, 51, 45, 50, 54]),
   midi.EndOfTrackEvent(tick=0, data=[])]),
 midi.Track(\
  [midi.TrackNameEvent(tick=0, text='Spur 7', data=[83, 112, 117, 114, 32, 55]),
   midi.EndOfTrackEvent(tick=0, data=[])]),
 midi.Track(\
  [midi.TrackNameEvent(tick=0, text='Spur 8', data=[83, 112, 117, 114, 32, 56]),
   midi.EndOfTrackEvent(tick=0, data=[])])])
