midi.Pattern(format=1, resolution=480, tracks=\
[midi.Track(\
  [midi.TrackNameEvent(tick=0, text='Kinderszenen Opus 15', data=[75, 105, 110, 100, 101, 114, 115, 122, 101, 110, 101, 110, 32, 79, 112, 117, 115, 32, 49, 53]),
   midi.TrackNameEvent(tick=0, text='Kuriose Geschichte', data=[75, 117, 114, 105, 111, 115, 101, 32, 71, 101, 115, 99, 104, 105, 99, 104, 116, 101]),
   midi.CopyrightMetaEvent(tick=0, text='Copyright © 1997 von Bernd Krüger.', data=[67, 111, 112, 121, 114, 105, 103, 104, 116, 32, 169, 32, 49, 57, 57, 55, 32, 118, 111, 110, 32, 66, 101, 114, 110, 100, 32, 75, 114, 252, 103, 101, 114, 46]),
   midi.TextMetaEvent(tick=0, text='Robert Schumann', data=[82, 111, 98, 101, 114, 116, 32, 83, 99, 104, 117, 109, 97, 110, 110]),
   midi.TextMetaEvent(tick=0, text='Fertiggestellt am 22.11.97\n', data=[70, 101, 114, 116, 105, 103, 103, 101, 115, 116, 101, 108, 108, 116, 32, 97, 109, 32, 50, 50, 46, 49, 49, 46, 57, 55, 10]),
   midi.TextMetaEvent(tick=0, text='Korrekturen am 4.9.98\n', data=[75, 111, 114, 114, 101, 107, 116, 117, 114, 101, 110, 32, 97, 109, 32, 52, 46, 57, 46, 57, 56, 10]),
   midi.TextMetaEvent(tick=0, text='Anpassungen an Digitalpiano am 1.1.99\n', data=[65, 110, 112, 97, 115, 115, 117, 110, 103, 101, 110, 32, 97, 110, 32, 68, 105, 103, 105, 116, 97, 108, 112, 105, 97, 110, 111, 32, 97, 109, 32, 49, 46, 49, 46, 57, 57, 10]),
   midi.TextMetaEvent(tick=0, text='Update am 16.6.99\n', data=[85, 112, 100, 97, 116, 101, 32, 97, 109, 32, 49, 54, 46, 54, 46, 57, 57, 10]),
   midi.TextMetaEvent(tick=0, text='Update am 9.7.99\n', data=[85, 112, 100, 97, 116, 101, 32, 97, 109, 32, 57, 46, 55, 46, 57, 57, 10]),
   midi.TextMetaEvent(tick=0, text='Normierung: 23.12.2002\n', data=[78, 111, 114, 109, 105, 101, 114, 117, 110, 103, 58, 32, 50, 51, 46, 49, 50, 46, 50, 48, 48, 50, 10]),
   midi.TextMetaEvent(tick=0, text='Update am 4.10.2008\n', data=[85, 112, 100, 97, 116, 101, 32, 97, 109, 32, 52, 46, 49, 48, 46, 50, 48, 48, 56, 10]),
   midi.TextMetaEvent(tick=0, text='Update am 26.3.14\n', data=[85, 112, 100, 97, 116, 101, 32, 97, 109, 32, 50, 54, 46, 51, 46, 49, 52, 10]),
   midi.TextMetaEvent(tick=0, text='Dauer: 0:56 Minuten\n', data=[68, 97, 117, 101, 114, 58, 32, 48, 58, 53, 54, 32, 77, 105, 110, 117, 116, 101, 110, 10]),
   midi.TimeSignatureEvent(tick=0, data=[3, 2, 24, 8]),
   midi.KeySignatureEvent(tick=0, data=[2, 0]),
   midi.SetTempoEvent(tick=0, data=[6, 206, 244]),
   midi.MarkerEvent(tick=0, text='Curious Story', data=[67, 117, 114, 105, 111, 117, 115, 32, 83, 116, 111, 114, 121]),
   midi.SetTempoEvent(tick=1320, data=[6, 129, 169]),
   midi.SetTempoEvent(tick=120, data=[6, 158, 144]),
   midi.SetTempoEvent(tick=360, data=[6, 114, 135]),
   midi.SetTempoEvent(tick=360, data=[7, 49, 143]),
   midi.SetTempoEvent(tick=240, data=[6, 188, 125]),
   midi.SetTempoEvent(tick=480, data=[6, 164, 119]),
   midi.SetTempoEvent(tick=340, data=[6, 118, 95]),
   midi.SetTempoEvent(tick=20, data=[6, 114, 135]),
   midi.SetTempoEvent(tick=360, data=[6, 194, 153]),
   midi.SetTempoEvent(tick=240, data=[6, 188, 125]),
   midi.SetTempoEvent(tick=480, data=[6, 158, 144]),
   midi.SetTempoEvent(tick=360, data=[6, 108, 189]),
   midi.SetTempoEvent(tick=360, data=[7, 92, 89]),
   midi.SetTempoEvent(tick=240, data=[6, 206, 244]),
   midi.SetTempoEvent(tick=480, data=[6, 164, 119]),
   midi.SetTempoEvent(tick=360, data=[6, 114, 135]),
   midi.SetTempoEvent(tick=360, data=[6, 194, 153]),
   midi.SetTempoEvent(tick=240, data=[6, 188, 125]),
   midi.SetTempoEvent(tick=360, data=[6, 107, 61]),
   midi.SetTempoEvent(tick=120, data=[6, 135, 93]),
   midi.SetTempoEvent(tick=360, data=[6, 97, 70]),
   midi.SetTempoEvent(tick=360, data=[7, 56, 135]),
   midi.SetTempoEvent(tick=240, data=[6, 194, 153]),
   midi.SetTempoEvent(tick=480, data=[6, 164, 119]),
   midi.SetTempoEvent(tick=340, data=[6, 118, 95]),
   midi.SetTempoEvent(tick=20, data=[6, 120, 92]),
   midi.SetTempoEvent(tick=360, data=[7, 2, 49]),
   midi.SetTempoEvent(tick=240, data=[6, 158, 144]),
   midi.SetTempoEvent(tick=360, data=[6, 206, 244]),
   midi.SetTempoEvent(tick=600, data=[6, 164, 119]),
   midi.SetTempoEvent(tick=480, data=[7, 160, 38]),
   midi.SetTempoEvent(tick=360, data=[9, 31, 28]),
   midi.SetTempoEvent(tick=120, data=[7, 160, 38]),
   midi.SetTempoEvent(tick=480, data=[8, 28, 176]),
   midi.SetTempoEvent(tick=480, data=[6, 206, 244]),
   midi.SetTempoEvent(tick=361, data=[6, 129, 169]),
   midi.SetTempoEvent(tick=120, data=[6, 158, 144]),
   midi.SetTempoEvent(tick=359, data=[6, 97, 70]),
   midi.SetTempoEvent(tick=361, data=[7, 49, 143]),
   midi.SetTempoEvent(tick=240, data=[6, 188, 125]),
   midi.SetTempoEvent(tick=480, data=[6, 164, 119]),
   midi.SetTempoEvent(tick=359, data=[6, 108, 189]),
   midi.SetTempoEvent(tick=361, data=[6, 194, 153]),
   midi.SetTempoEvent(tick=240, data=[6, 188, 125]),
   midi.SetTempoEvent(tick=480, data=[6, 158, 144]),
   midi.SetTempoEvent(tick=359, data=[6, 108, 189]),
   midi.SetTempoEvent(tick=360, data=[7, 137, 3]),
   midi.SetTempoEvent(tick=241, data=[6, 206, 244]),
   midi.SetTempoEvent(tick=480, data=[6, 164, 119]),
   midi.SetTempoEvent(tick=359, data=[6, 102, 252]),
   midi.SetTempoEvent(tick=1, data=[6, 96, 35]),
   midi.SetTempoEvent(tick=360, data=[6, 194, 153]),
   midi.SetTempoEvent(tick=240, data=[6, 188, 125]),
   midi.SetTempoEvent(tick=360, data=[6, 107, 61]),
   midi.SetTempoEvent(tick=120, data=[6, 135, 93]),
   midi.SetTempoEvent(tick=359, data=[6, 91, 155]),
   midi.SetTempoEvent(tick=360, data=[7, 77, 234]),
   midi.SetTempoEvent(tick=241, data=[6, 194, 153]),
   midi.SetTempoEvent(tick=480, data=[6, 164, 119]),
   midi.SetTempoEvent(tick=359, data=[6, 108, 189]),
   midi.SetTempoEvent(tick=361, data=[7, 2, 49]),
   midi.SetTempoEvent(tick=240, data=[6, 158, 144]),
   midi.SetTempoEvent(tick=360, data=[6, 206, 244]),
   midi.SetTempoEvent(tick=600, data=[6, 164, 119]),
   midi.SetTempoEvent(tick=479, data=[8, 55, 135]),
   midi.SetTempoEvent(tick=361, data=[9, 31, 28]),
   midi.SetTempoEvent(tick=120, data=[7, 208, 33]),
   midi.SetTempoEvent(tick=959, data=[7, 68, 30]),
   midi.SetTempoEvent(tick=240, data=[7, 39, 14]),
   midi.SetTempoEvent(tick=240, data=[7, 75, 136]),
   midi.SetTempoEvent(tick=240, data=[7, 39, 14]),
   midi.SetTempoEvent(tick=480, data=[7, 3, 250]),
   midi.SetTempoEvent(tick=240, data=[7, 17, 216]),
   midi.SetTempoEvent(tick=240, data=[7, 90, 136]),
   midi.SetTempoEvent(tick=240, data=[7, 10, 226]),
   midi.SetTempoEvent(tick=960, data=[7, 53, 121]),
   midi.SetTempoEvent(tick=960, data=[7, 121, 68]),
   midi.SetTempoEvent(tick=720, data=[7, 185, 217]),
   midi.SetTempoEvent(tick=240, data=[7, 137, 3]),
   midi.SetTempoEvent(tick=120, data=[7, 144, 252]),
   midi.SetTempoEvent(tick=120, data=[7, 153, 5]),
   midi.SetTempoEvent(tick=120, data=[7, 161, 32]),
   midi.SetTempoEvent(tick=120, data=[7, 169, 76]),
   midi.SetTempoEvent(tick=120, data=[7, 177, 138]),
   midi.SetTempoEvent(tick=120, data=[7, 185, 217]),
   midi.SetTempoEvent(tick=120, data=[7, 194, 59]),
   midi.SetTempoEvent(tick=100, data=[7, 202, 174]),
   midi.SetTempoEvent(tick=20, data=[6, 206, 244]),
   midi.SetTempoEvent(tick=360, data=[6, 129, 169]),
   midi.SetTempoEvent(tick=120, data=[6, 158, 144]),
   midi.SetTempoEvent(tick=360, data=[6, 108, 189]),
   midi.SetTempoEvent(tick=360, data=[7, 49, 143]),
   midi.SetTempoEvent(tick=240, data=[6, 188, 125]),
   midi.SetTempoEvent(tick=480, data=[6, 164, 119]),
   midi.SetTempoEvent(tick=340, data=[6, 118, 95]),
   midi.SetTempoEvent(tick=20, data=[6, 108, 189]),
   midi.SetTempoEvent(tick=360, data=[6, 194, 153]),
   midi.SetTempoEvent(tick=240, data=[6, 188, 125]),
   midi.SetTempoEvent(tick=480, data=[6, 158, 144]),
   midi.SetTempoEvent(tick=360, data=[6, 108, 189]),
   midi.SetTempoEvent(tick=360, data=[7, 92, 89]),
   midi.SetTempoEvent(tick=240, data=[6, 206, 244]),
   midi.SetTempoEvent(tick=480, data=[6, 164, 119]),
   midi.SetTempoEvent(tick=360, data=[6, 108, 189]),
   midi.SetTempoEvent(tick=360, data=[6, 194, 153]),
   midi.SetTempoEvent(tick=240, data=[6, 188, 125]),
   midi.SetTempoEvent(tick=360, data=[6, 107, 61]),
   midi.SetTempoEvent(tick=120, data=[6, 135, 93]),
   midi.SetTempoEvent(tick=360, data=[6, 91, 155]),
   midi.SetTempoEvent(tick=360, data=[7, 56, 135]),
   midi.SetTempoEvent(tick=240, data=[6, 158, 144]),
   midi.SetTempoEvent(tick=360, data=[7, 31, 238]),
   midi.SetTempoEvent(tick=120, data=[7, 113, 125]),
   midi.SetTempoEvent(tick=240, data=[7, 10, 226]),
   midi.SetTempoEvent(tick=240, data=[6, 168, 140]),
   midi.SetTempoEvent(tick=240, data=[7, 3, 250]),
   midi.SetTempoEvent(tick=240, data=[7, 137, 3]),
   midi.SetTempoEvent(tick=240, data=[7, 185, 217]),
   midi.SetTempoEvent(tick=240, data=[7, 83, 0]),
   midi.SetTempoEvent(tick=680, data=[7, 194, 59]),
   midi.SetTempoEvent(tick=40, data=[8, 7, 236]),
   midi.SetTempoEvent(tick=240, data=[8, 102, 59]),
   midi.SetTempoEvent(tick=240, data=[9, 99, 217]),
   midi.SetTempoEvent(tick=240, data=[10, 1, 122]),
   midi.SetTempoEvent(tick=960, data=[7, 83, 0]),
   midi.SetTempoEvent(tick=240, data=[7, 46, 60]),
   midi.SetTempoEvent(tick=240, data=[7, 75, 136]),
   midi.SetTempoEvent(tick=240, data=[7, 39, 14]),
   midi.SetTempoEvent(tick=240, data=[7, 31, 238]),
   midi.SetTempoEvent(tick=240, data=[7, 3, 250]),
   midi.SetTempoEvent(tick=240, data=[7, 46, 60]),
   midi.SetTempoEvent(tick=240, data=[7, 90, 136]),
   midi.SetTempoEvent(tick=240, data=[7, 10, 226]),
   midi.SetTempoEvent(tick=960, data=[7, 53, 121]),
   midi.SetTempoEvent(tick=960, data=[7, 121, 68]),
   midi.SetTempoEvent(tick=720, data=[7, 185, 217]),
   midi.SetTempoEvent(tick=240, data=[7, 137, 3]),
   midi.SetTempoEvent(tick=120, data=[7, 144, 252]),
   midi.SetTempoEvent(tick=120, data=[7, 153, 5]),
   midi.SetTempoEvent(tick=120, data=[7, 161, 32]),
   midi.SetTempoEvent(tick=120, data=[7, 169, 76]),
   midi.SetTempoEvent(tick=120, data=[7, 177, 138]),
   midi.SetTempoEvent(tick=120, data=[7, 185, 217]),
   midi.SetTempoEvent(tick=120, data=[7, 194, 59]),
   midi.SetTempoEvent(tick=100, data=[7, 202, 174]),
   midi.SetTempoEvent(tick=20, data=[6, 206, 244]),
   midi.SetTempoEvent(tick=360, data=[6, 129, 169]),
   midi.SetTempoEvent(tick=120, data=[6, 158, 144]),
   midi.SetTempoEvent(tick=360, data=[6, 102, 252]),
   midi.SetTempoEvent(tick=360, data=[7, 49, 143]),
   midi.SetTempoEvent(tick=240, data=[6, 188, 125]),
   midi.SetTempoEvent(tick=480, data=[6, 164, 119]),
   midi.SetTempoEvent(tick=340, data=[6, 118, 95]),
   midi.SetTempoEvent(tick=20, data=[6, 102, 252]),
   midi.SetTempoEvent(tick=360, data=[6, 194, 153]),
   midi.SetTempoEvent(tick=240, data=[6, 188, 125]),
   midi.SetTempoEvent(tick=480, data=[6, 158, 144]),
   midi.SetTempoEvent(tick=360, data=[6, 107, 61]),
   midi.SetTempoEvent(tick=360, data=[7, 92, 89]),
   midi.SetTempoEvent(tick=240, data=[6, 206, 244]),
   midi.SetTempoEvent(tick=480, data=[6, 164, 119]),
   midi.SetTempoEvent(tick=360, data=[6, 120, 92]),
   midi.SetTempoEvent(tick=360, data=[6, 194, 153]),
   midi.SetTempoEvent(tick=240, data=[6, 188, 125]),
   midi.SetTempoEvent(tick=360, data=[6, 107, 61]),
   midi.SetTempoEvent(tick=120, data=[6, 135, 93]),
   midi.SetTempoEvent(tick=360, data=[6, 85, 249]),
   midi.SetTempoEvent(tick=360, data=[7, 56, 135]),
   midi.SetTempoEvent(tick=240, data=[6, 158, 144]),
   midi.SetTempoEvent(tick=360, data=[7, 31, 238]),
   midi.SetTempoEvent(tick=120, data=[7, 113, 125]),
   midi.SetTempoEvent(tick=240, data=[7, 10, 226]),
   midi.SetTempoEvent(tick=240, data=[6, 168, 140]),
   midi.SetTempoEvent(tick=240, data=[7, 3, 250]),
   midi.SetTempoEvent(tick=240, data=[7, 202, 174]),
   midi.SetTempoEvent(tick=240, data=[7, 237, 57]),
   midi.SetTempoEvent(tick=240, data=[7, 169, 76]),
   midi.SetTempoEvent(tick=240, data=[7, 177, 138]),
   midi.SetTempoEvent(tick=220, data=[7, 185, 217]),
   midi.SetTempoEvent(tick=220, data=[7, 194, 59]),
   midi.SetTempoEvent(tick=40, data=[8, 132, 60]),
   midi.SetTempoEvent(tick=240, data=[9, 87, 149]),
   midi.SetTempoEvent(tick=240, data=[10, 133, 247]),
   midi.MarkerEvent(tick=1200, text='Fine', data=[70, 105, 110, 101]),
   midi.EndOfTrackEvent(tick=0, data=[])]),
 midi.Track(\
  [midi.TrackNameEvent(tick=0, text='Piano right', data=[80, 105, 97, 110, 111, 32, 114, 105, 103, 104, 116]),
   midi.ProgramChangeEvent(tick=0, channel=0, data=[0]),
   midi.ControlChangeEvent(tick=0, channel=0, data=[7, 100]),
   midi.ControlChangeEvent(tick=0, channel=0, data=[10, 64]),
   midi.ControlChangeEvent(tick=0, channel=0, data=[91, 127]),
   midi.TextMetaEvent(tick=0, text='bdca426d104a26ac9dcb070447587523', data=[98, 100, 99, 97, 52, 50, 54, 100, 49, 48, 52, 97, 50, 54, 97, 99, 57, 100, 99, 98, 48, 55, 48, 52, 52, 55, 53, 56, 55, 53, 50, 51]),
   midi.ControlChangeEvent(tick=959, channel=0, data=[91, 127]),
   midi.NoteOnEvent(tick=1, channel=0, data=[66, 62]),
   midi.NoteOnEvent(tick=360, channel=0, data=[66, 0]),
   midi.NoteOnEvent(tick=0, channel=0, data=[71, 50]),
   midi.NoteOnEvent(tick=59, channel=0, data=[69, 55]),
   midi.NoteOnEvent(tick=1, channel=0, data=[71, 0]),
   midi.NoteOnEvent(tick=59, channel=0, data=[69, 0]),
   midi.NoteOnEvent(tick=1, channel=0, data=[61, 62]),
   midi.NoteOnEvent(tick=0, channel=0, data=[67, 62]),
   midi.NoteOnEvent(tick=60, channel=0, data=[67, 0]),
   midi.NoteOnEvent(tick=0, channel=0, data=[61, 0]),
   midi.NoteOnEvent(tick=300, channel=0, data=[61, 57]),
   midi.NoteOnEvent(tick=0, channel=0, data=[66, 57]),
   midi.NoteOnEvent(tick=60, channel=0, data=[66, 0]),
   midi.NoteOnEvent(tick=0, channel=0, data=[61, 0]),
   midi.NoteOnEvent(tick=60, channel=0, data=[67, 60]),
   midi.NoteOnEvent(tick=0, channel=0, data=[61, 60]),
   midi.NoteOnEvent(tick=240, channel=0, data=[61, 0]),
   midi.NoteOnEvent(tick=0, channel=0, data=[67, 0]),
   midi.NoteOnEvent(tick=240, channel=0, data=[61, 62]),
   midi.NoteOnEvent(tick=0, channel=0, data=[71, 62]),
   midi.NoteOnEvent(tick=480, channel=0, data=[71, 0]),
   midi.NoteOnEvent(tick=0, channel=0, data=[61, 0]),
   midi.NoteOnEvent(tick=0, channel=0, data=[69, 64]),
   midi.NoteOnEvent(tick=0, channel=0, data=[62, 64]),
   midi.NoteOnEvent(tick=960, channel=0, data=[62, 0]),
   midi.NoteOnEvent(tick=0, channel=0, data=[69, 0]),
   midi.NoteOnEvent(tick=0, channel=0, data=[74, 64]),
   midi.NoteOnEvent(tick=0, channel=0, data=[69, 64]),
   midi.NoteOnEvent(tick=480, channel=0, data=[69, 0]),
   midi.NoteOnEvent(tick=0, channel=0, data=[74, 0]),
   midi.NoteOnEvent(tick=0, channel=0, data=[73, 64]),
   midi.NoteOnEvent(tick=0, channel=0, data=[67, 64]),
   midi.NoteOnEvent(tick=60, channel=0, data=[67, 0]),
   midi.NoteOnEvent(tick=0, channel=0, data=[73, 0]),
   midi.NoteOnEvent(tick=300, channel=0, data=[66, 56]),
   midi.NoteOnEvent(tick=0, channel=0, data=[71, 56]),
   midi.NoteOnEvent(tick=60, channel=0, data=[71, 0]),
   midi.NoteOnEvent(tick=0, channel=0, data=[66, 0]),
   midi.NoteOnEvent(tick=60, channel=0, data=[69, 60]),
   midi.NoteOnEvent(tick=0, channel=0, data=[64, 60]),
   midi.NoteOnEvent(tick=240, channel=0, data=[64, 0]),
   midi.NoteOnEvent(tick=0, channel=0, data=[69, 0]),
   midi.NoteOnEvent(tick=240, channel=0, data=[79, 67]),
   midi.NoteOnEvent(tick=0, channel=0, data=[67, 67]),
   midi.NoteOnEvent(tick=0, channel=0, data=[69, 67]),
   midi.NoteOnEvent(tick=480, channel=0, data=[69, 0]),
   midi.NoteOnEvent(tick=0, channel=0, data=[67, 0]),
   midi.NoteOnEvent(tick=0, channel=0, data=[79, 0]),
   midi.NoteOnEvent(tick=0, channel=0, data=[66, 67]),
   midi.NoteOnEvent(tick=0, channel=0, data=[74, 67]),
   midi.NoteOnEvent(tick=0, channel=0, data=[78, 67]),
   midi.NoteOnEvent(tick=60, channel=0, data=[78, 0]),
   midi.NoteOnEvent(tick=0, channel=0, data=[74, 0]),
   midi.NoteOnEvent(tick=0, channel=0, data=[66, 0]),
   midi.NoteOnEvent(tick=300, channel=0, data=[67, 59]),
   midi.NoteOnEvent(tick=0, channel=0, data=[76, 59]),
   midi.NoteOnEvent(tick=0, channel=0, data=[73, 59]),
   midi.NoteOnEvent(tick=60, channel=0, data=[73, 0]),
   midi.NoteOnEvent(tick=0, channel=0, data=[76, 0]),
   midi.NoteOnEvent(tick=0, channel=0, data=[67, 0]),
   midi.NoteOnEvent(tick=60, channel=0, data=[69, 56]),
   midi.NoteOnEvent(tick=0, channel=0, data=[74, 56]),
   midi.NoteOnEvent(tick=240, channel=0, data=[74, 0]),
   midi.NoteOnEvent(tick=0, channel=0, data=[69, 0]),
   midi.NoteOnEvent(tick=240, channel=0, data=[66, 58]),
   midi.NoteOnEvent(tick=360, channel=0, data=[66, 0]),
   midi.NoteOnEvent(tick=0, channel=0, data=[71, 50]),
   midi.NoteOnEvent(tick=59, channel=0, data=[69, 55]),
   midi.NoteOnEvent(tick=1, channel=0, data=[71, 0]),
   midi.NoteOnEvent(tick=59, channel=0, data=[69, 0]),
   midi.NoteOnEvent(tick=1, channel=0, data=[67, 61]),
   midi.NoteOnEvent(tick=0, channel=0, data=[61, 61]),
   midi.NoteOnEvent(tick=90, channel=0, data=[61, 0]),
   midi.NoteOnEvent(tick=0, channel=0, data=[67, 0]),
   midi.NoteOnEvent(tick=270, channel=0, data=[66, 57]),
   midi.NoteOnEvent(tick=0, channel=0, data=[61, 57]),
   midi.NoteOnEvent(tick=60, channel=0, data=[61, 0]),
   midi.NoteOnEvent(tick=0, channel=0, data=[66, 0]),
   midi.NoteOnEvent(tick=60, channel=0, data=[67, 61]),
   midi.NoteOnEvent(tick=0, channel=0, data=[61, 61]),
   midi.NoteOnEvent(tick=240, channel=0, data=[61, 0]),
   midi.NoteOnEvent(tick=0, channel=0, data=[67, 0]),
   midi.NoteOnEvent(tick=240, channel=0, data=[61, 64]),
   midi.NoteOnEvent(tick=0, channel=0, data=[71, 64]),
   midi.NoteOnEvent(tick=480, channel=0, data=[71, 0]),
   midi.NoteOnEvent(tick=0, channel=0, data=[61, 0]),
   midi.NoteOnEvent(tick=0, channel=0, data=[62, 64]),
   midi.NoteOnEvent(tick=0, channel=0, data=[69, 64]),
   midi.NoteOnEvent(tick=960, channel=0, data=[69, 0]),
   midi.NoteOnEvent(tick=0, channel=0, data=[62, 0]),
   midi.NoteOnEvent(tick=0, channel=0, data=[74, 60]),
   midi.NoteOnEvent(tick=0, channel=0, data=[69, 60]),
   midi.NoteOnEvent(tick=360, channel=0, data=[74, 0]),
   midi.NoteOnEvent(tick=0, channel=0, data=[73, 56]),
   midi.NoteOnEvent(tick=120, channel=0, data=[73, 0]),
   midi.NoteOnEvent(tick=0, channel=0, data=[69, 0]),
   midi.NoteOnEvent(tick=0, channel=0, data=[73, 60]),
   midi.NoteOnEvent(tick=0, channel=0, data=[69, 60]),
   midi.NoteOnEvent(tick=240, channel=0, data=[74, 54]),
   midi.NoteOnEvent(tick=24, channel=0, data=[73, 0]),
   midi.NoteOnEvent(tick=216, channel=0, data=[76, 57]),
   midi.NoteOnEvent(tick=24, channel=0, data=[74, 0]),
   midi.NoteOnEvent(tick=216, channel=0, data=[78, 60]),
   midi.NoteOnEvent(tick=24, channel=0, data=[76, 0]),
   midi.NoteOnEvent(tick=216, channel=0, data=[78, 0]),
   midi.NoteOnEvent(tick=0, channel=0, data=[69, 0]),
   midi.NoteOnEvent(tick=0, channel=0, data=[78, 62]),
   midi.NoteOnEvent(tick=0, channel=0, data=[74, 45]),
   midi.NoteOnEvent(tick=360, channel=0, data=[78, 0]),
   midi.NoteOnEvent(tick=0, channel=0, data=[80, 55]),
   midi.NoteOnEvent(tick=120, channel=0, data=[80, 0]),
   midi.NoteOnEvent(tick=0, channel=0, data=[80, 51]),
   midi.NoteOnEvent(tick=480, channel=0, data=[80, 0]),
   midi.NoteOnEvent(tick=0, channel=0, data=[74, 0]),
   midi.NoteOnEvent(tick=0, channel=0, data=[81, 46]),
   midi.NoteOnEvent(tick=0, channel=0, data=[73, 40]),
   midi.NoteOnEvent(tick=360, channel=0, data=[73, 0]),
   midi.NoteOnEvent(tick=0, channel=0, data=[81, 0]),
   midi.ControlChangeEvent(tick=120, channel=0, data=[91, 127]),
   midi.NoteOnEvent(tick=0, channel=0, data=[66, 59]),
   midi.NoteOnEvent(tick=360, channel=0, data=[66, 0]),
   midi.NoteOnEvent(tick=0, channel=0, data=[71, 50]),
   midi.NoteOnEvent(tick=60, channel=0, data=[71, 0]),
   midi.NoteOnEvent(tick=0, channel=0, data=[69, 55]),
   midi.NoteOnEvent(tick=60, channel=0, data=[69, 0]),
   midi.NoteOnEvent(tick=0, channel=0, data=[61, 63]),
   midi.NoteOnEvent(tick=0, channel=0, data=[67, 63]),
   midi.NoteOnEvent(tick=60, channel=0, data=[67, 0]),
   midi.NoteOnEvent(tick=0, channel=0, data=[61, 0]),
   midi.NoteOnEvent(tick=300, channel=0, data=[61, 56]),
   midi.NoteOnEvent(tick=0, channel=0, data=[66, 56]),
   midi.NoteOnEvent(tick=60, channel=0, data=[66, 0]),
   midi.NoteOnEvent(tick=0, channel=0, data=[61, 0]),
   midi.NoteOnEvent(tick=60, channel=0, data=[61, 60]),
   midi.NoteOnEvent(tick=0, channel=0, data=[67, 60]),
   midi.NoteOnEvent(tick=240, channel=0, data=[67, 0]),
   midi.NoteOnEvent(tick=0, channel=0, data=[61, 0]),
   midi.NoteOnEvent(tick=240, channel=0, data=[61, 63]),
   midi.NoteOnEvent(tick=0, channel=0, data=[71, 63]),
   midi.NoteOnEvent(tick=480, channel=0, data=[71, 0]),
   midi.NoteOnEvent(tick=0, channel=0, data=[61, 0]),
   midi.NoteOnEvent(tick=0, channel=0, data=[62, 63]),
   midi.NoteOnEvent(tick=0, channel=0, data=[69, 63]),
   midi.NoteOnEvent(tick=960, channel=0, data=[69, 0]),
   midi.NoteOnEvent(tick=0, channel=0, data=[62, 0]),
   midi.NoteOnEvent(tick=0, channel=0, data=[69, 64]),
   midi.NoteOnEvent(tick=0, channel=0, data=[74, 64]),
   midi.NoteOnEvent(tick=480, channel=0, data=[74, 0]),
   midi.NoteOnEvent(tick=0, channel=0, data=[69, 0]),
   midi.NoteOnEvent(tick=0, channel=0, data=[67, 64]),
   midi.NoteOnEvent(tick=0, channel=0, data=[73, 64]),
   midi.NoteOnEvent(tick=60, channel=0, data=[73, 0]),
   midi.NoteOnEvent(tick=0, channel=0, data=[67, 0]),
   midi.NoteOnEvent(tick=300, channel=0, data=[66, 57]),
   midi.NoteOnEvent(tick=0, channel=0, data=[71, 57]),
   midi.NoteOnEvent(tick=60, channel=0, data=[71, 0]),
   midi.NoteOnEvent(tick=0, channel=0, data=[66, 0]),
   midi.NoteOnEvent(tick=60, channel=0, data=[64, 60]),
   midi.NoteOnEvent(tick=0, channel=0, data=[69, 60]),
   midi.NoteOnEvent(tick=240, channel=0, data=[69, 0]),
   midi.NoteOnEvent(tick=0, channel=0, data=[64, 0]),
   midi.NoteOnEvent(tick=240, channel=0, data=[67, 68]),
   midi.NoteOnEvent(tick=0, channel=0, data=[69, 68]),
   midi.NoteOnEvent(tick=0, channel=0, data=[79, 68]),
   midi.NoteOnEvent(tick=480, channel=0, data=[79, 0]),
   midi.NoteOnEvent(tick=0, channel=0, data=[69, 0]),
   midi.NoteOnEvent(tick=0, channel=0, data=[67, 0]),
   midi.NoteOnEvent(tick=0, channel=0, data=[66, 68]),
   midi.NoteOnEvent(tick=0, channel=0, data=[74, 68]),
   midi.NoteOnEvent(tick=0, channel=0, data=[78, 68]),
   midi.NoteOnEvent(tick=60, channel=0, data=[78, 0]),
   midi.NoteOnEvent(tick=0, channel=0, data=[74, 0]),
   midi.NoteOnEvent(tick=0, channel=0, data=[66, 0]),
   midi.NoteOnEvent(tick=300, channel=0, data=[67, 60]),
   midi.NoteOnEvent(tick=0, channel=0, data=[73, 60]),
   midi.NoteOnEvent(tick=0, channel=0, data=[76, 60]),
   midi.NoteOnEvent(tick=60, channel=0, data=[76, 0]),
   midi.NoteOnEvent(tick=0, channel=0, data=[73, 0]),
   midi.NoteOnEvent(tick=0, channel=0, data=[67, 0]),
   midi.NoteOnEvent(tick=60, channel=0, data=[69, 57]),
   midi.NoteOnEvent(tick=0, channel=0, data=[74, 57]),
   midi.NoteOnEvent(tick=240, channel=0, data=[74, 0]),
   midi.NoteOnEvent(tick=0, channel=0, data=[69, 0]),
   midi.NoteOnEvent(tick=240, channel=0, data=[66, 59]),
   midi.NoteOnEvent(tick=360, channel=0, data=[66, 0]),
   midi.NoteOnEvent(tick=0, channel=0, data=[71, 50]),
   midi.NoteOnEvent(tick=59, channel=0, data=[69, 55]),
   midi.NoteOnEvent(tick=1, channel=0, data=[71, 0]),
   midi.NoteOnEvent(tick=59, channel=0, data=[69, 0]),
   midi.NoteOnEvent(tick=1, channel=0, data=[61, 65]),
   midi.NoteOnEvent(tick=0, channel=0, data=[67, 65]),
   midi.NoteOnEvent(tick=90, channel=0, data=[67, 0]),
   midi.NoteOnEvent(tick=0, channel=0, data=[61, 0]),
   midi.NoteOnEvent(tick=270, channel=0, data=[61, 57]),
   midi.NoteOnEvent(tick=0, channel=0, data=[66, 57]),
   midi.NoteOnEvent(tick=60, channel=0, data=[66, 0]),
   midi.NoteOnEvent(tick=0, channel=0, data=[61, 0]),
   midi.NoteOnEvent(tick=60, channel=0, data=[61, 60]),
   midi.NoteOnEvent(tick=0, channel=0, data=[67, 60]),
   midi.NoteOnEvent(tick=240, channel=0, data=[67, 0]),
   midi.NoteOnEvent(tick=0, channel=0, data=[61, 0]),
   midi.NoteOnEvent(tick=240, channel=0, data=[61, 63]),
   midi.NoteOnEvent(tick=0, channel=0, data=[71, 63]),
   midi.NoteOnEvent(tick=480, channel=0, data=[71, 0]),
   midi.NoteOnEvent(tick=0, channel=0, data=[61, 0]),
   midi.NoteOnEvent(tick=0, channel=0, data=[62, 63]),
   midi.NoteOnEvent(tick=0, channel=0, data=[69, 63]),
   midi.NoteOnEvent(tick=960, channel=0, data=[69, 0]),
   midi.NoteOnEvent(tick=0, channel=0, data=[62, 0]),
   midi.NoteOnEvent(tick=0, channel=0, data=[74, 60]),
   midi.NoteOnEvent(tick=0, channel=0, data=[69, 60]),
   midi.NoteOnEvent(tick=360, channel=0, data=[74, 0]),
   midi.NoteOnEvent(tick=0, channel=0, data=[73, 56]),
   midi.NoteOnEvent(tick=120, channel=0, data=[73, 0]),
   midi.NoteOnEvent(tick=0, channel=0, data=[69, 0]),
   midi.NoteOnEvent(tick=0, channel=0, data=[73, 60]),
   midi.NoteOnEvent(tick=0, channel=0, data=[69, 60]),
   midi.NoteOnEvent(tick=240, channel=0, data=[74, 54]),
   midi.NoteOnEvent(tick=24, channel=0, data=[73, 0]),
   midi.NoteOnEvent(tick=216, channel=0, data=[76, 57]),
   midi.NoteOnEvent(tick=24, channel=0, data=[74, 0]),
   midi.NoteOnEvent(tick=216, channel=0, data=[78, 60]),
   midi.NoteOnEvent(tick=24, channel=0, data=[76, 0]),
   midi.NoteOnEvent(tick=216, channel=0, data=[78, 0]),
   midi.NoteOnEvent(tick=0, channel=0, data=[69, 0]),
   midi.NoteOnEvent(tick=0, channel=0, data=[74, 45]),
   midi.NoteOnEvent(tick=0, channel=0, data=[78, 62]),
   midi.NoteOnEvent(tick=360, channel=0, data=[78, 0]),
   midi.NoteOnEvent(tick=0, channel=0, data=[80, 55]),
   midi.NoteOnEvent(tick=120, channel=0, data=[80, 0]),
   midi.NoteOnEvent(tick=0, channel=0, data=[80, 51]),
   midi.NoteOnEvent(tick=480, channel=0, data=[80, 0]),
   midi.NoteOnEvent(tick=0, channel=0, data=[74, 0]),
   midi.NoteOnEvent(tick=0, channel=0, data=[73, 40]),
   midi.NoteOnEvent(tick=0, channel=0, data=[81, 46]),
   midi.NoteOnEvent(tick=360, channel=0, data=[81, 0]),
   midi.NoteOnEvent(tick=0, channel=0, data=[73, 0]),
   midi.NoteOnEvent(tick=120, channel=0, data=[72, 41]),
   midi.NoteOnEvent(tick=0, channel=0, data=[76, 41]),
   midi.NoteOnEvent(tick=240, channel=0, data=[78, 41]),
   midi.NoteOnEvent(tick=24, channel=0, data=[76, 0]),
   midi.NoteOnEvent(tick=216, channel=0, data=[72, 0]),
   midi.NoteOnEvent(tick=0, channel=0, data=[71, 40]),
   midi.NoteOnEvent(tick=0, channel=0, data=[79, 45]),
   midi.NoteOnEvent(tick=24, channel=0, data=[78, 0]),
   midi.NoteOnEvent(tick=216, channel=0, data=[81, 41]),
   midi.NoteOnEvent(tick=24, channel=0, data=[79, 0]),
   midi.NoteOnEvent(tick=216, channel=0, data=[79, 41]),
   midi.NoteOnEvent(tick=24, channel=0, data=[81, 0]),
   midi.NoteOnEvent(tick=216, channel=0, data=[78, 41]),
   midi.NoteOnEvent(tick=24, channel=0, data=[79, 0]),
   midi.NoteOnEvent(tick=216, channel=0, data=[71, 0]),
   midi.NoteOnEvent(tick=0, channel=0, data=[75, 40]),
   midi.NoteOnEvent(tick=0, channel=0, data=[79, 43]),
   midi.NoteOnEvent(tick=24, channel=0, data=[78, 0]),
   midi.NoteOnEvent(tick=216, channel=0, data=[78, 45]),
   midi.NoteOnEvent(tick=24, channel=0, data=[79, 0]),
   midi.NoteOnEvent(tick=216, channel=0, data=[75, 0]),
   midi.NoteOnEvent(tick=0, channel=0, data=[72, 47]),
   midi.NoteOnEvent(tick=0, channel=0, data=[76, 47]),
   midi.NoteOnEvent(tick=24, channel=0, data=[78, 0]),
   midi.NoteOnEvent(tick=936, channel=0, data=[76, 0]),
   midi.NoteOnEvent(tick=0, channel=0, data=[72, 0]),
   midi.NoteOnEvent(tick=0, channel=0, data=[69, 44]),
   midi.NoteOnEvent(tick=0, channel=0, data=[74, 44]),
   midi.NoteOnEvent(tick=240, channel=0, data=[72, 43]),
   midi.NoteOnEvent(tick=24, channel=0, data=[74, 0]),
   midi.NoteOnEvent(tick=216, channel=0, data=[69, 0]),
   midi.NoteOnEvent(tick=0, channel=0, data=[67, 41]),
   midi.NoteOnEvent(tick=0, channel=0, data=[71, 41]),
   midi.NoteOnEvent(tick=24, channel=0, data=[72, 0]),
   midi.NoteOnEvent(tick=456, channel=0, data=[71, 0]),
   midi.NoteOnEvent(tick=0, channel=0, data=[67, 0]),
   midi.NoteOnEvent(tick=0, channel=0, data=[67, 44]),
   midi.NoteOnEvent(tick=0, channel=0, data=[72, 44]),
   midi.NoteOnEvent(tick=240, channel=0, data=[69, 43]),
   midi.NoteOnEvent(tick=24, channel=0, data=[67, 0]),
   midi.NoteOnEvent(tick=216, channel=0, data=[72, 0]),
   midi.NoteOnEvent(tick=0, channel=0, data=[62, 42]),
   midi.NoteOnEvent(tick=0, channel=0, data=[69, 42]),
   midi.NoteOnEvent(tick=0, channel=0, data=[71, 42]),
   midi.NoteOnEvent(tick=24, channel=0, data=[69, 0]),
   midi.NoteOnEvent(tick=216, channel=0, data=[69, 0]),
   midi.NoteOnEvent(tick=0, channel=0, data=[67, 41]),
   midi.NoteOnEvent(tick=24, channel=0, data=[62, 0]),
   midi.NoteOnEvent(tick=216, channel=0, data=[67, 0]),
   midi.NoteOnEvent(tick=0, channel=0, data=[71, 0]),
   midi.NoteOnEvent(tick=0, channel=0, data=[62, 37]),
   midi.NoteOnEvent(tick=0, channel=0, data=[67, 37]),
   midi.NoteOnEvent(tick=0, channel=0, data=[69, 37]),
   midi.NoteOnEvent(tick=240, channel=0, data=[62, 0]),
   midi.NoteOnEvent(tick=0, channel=0, data=[66, 35]),
   midi.NoteOnEvent(tick=24, channel=0, data=[67, 0]),
   midi.NoteOnEvent(tick=216, channel=0, data=[64, 34]),
   midi.NoteOnEvent(tick=24, channel=0, data=[66, 0]),
   midi.NoteOnEvent(tick=216, channel=0, data=[62, 32]),
   midi.NoteOnEvent(tick=24, channel=0, data=[64, 0]),
   midi.NoteOnEvent(tick=216, channel=0, data=[62, 0]),
   midi.NoteOnEvent(tick=0, channel=0, data=[69, 0]),
   midi.NoteOnEvent(tick=0, channel=0, data=[62, 42]),
   midi.NoteOnEvent(tick=0, channel=0, data=[66, 42]),
   midi.NoteOnEvent(tick=240, channel=0, data=[62, 0]),
   midi.NoteOnEvent(tick=0, channel=0, data=[60, 45]),
   midi.NoteOnEvent(tick=120, channel=0, data=[66, 0]),
   midi.NoteOnEvent(tick=0, channel=0, data=[71, 40]),
   midi.NoteOnEvent(tick=59, channel=0, data=[69, 44]),
   midi.NoteOnEvent(tick=1, channel=0, data=[71, 0]),
   midi.NoteOnEvent(tick=0, channel=0, data=[60, 0]),
   midi.NoteOnEvent(tick=59, channel=0, data=[69, 0]),
   midi.NoteOnEvent(tick=1, channel=0, data=[61, 49]),
   midi.NoteOnEvent(tick=0, channel=0, data=[67, 49]),
   midi.NoteOnEvent(tick=60, channel=0, data=[67, 0]),
   midi.NoteOnEvent(tick=0, channel=0, data=[61, 0]),
   midi.NoteOnEvent(tick=300, channel=0, data=[61, 44]),
   midi.NoteOnEvent(tick=0, channel=0, data=[66, 44]),
   midi.NoteOnEvent(tick=60, channel=0, data=[66, 0]),
   midi.NoteOnEvent(tick=0, channel=0, data=[61, 0]),
   midi.NoteOnEvent(tick=60, channel=0, data=[61, 47]),
   midi.NoteOnEvent(tick=0, channel=0, data=[67, 47]),
   midi.NoteOnEvent(tick=240, channel=0, data=[67, 0]),
   midi.NoteOnEvent(tick=0, channel=0, data=[61, 0]),
   midi.NoteOnEvent(tick=240, channel=0, data=[61, 49]),
   midi.NoteOnEvent(tick=0, channel=0, data=[71, 49]),
   midi.NoteOnEvent(tick=480, channel=0, data=[71, 0]),
   midi.NoteOnEvent(tick=0, channel=0, data=[61, 0]),
   midi.NoteOnEvent(tick=0, channel=0, data=[62, 51]),
   midi.NoteOnEvent(tick=0, channel=0, data=[69, 51]),
   midi.NoteOnEvent(tick=960, channel=0, data=[69, 0]),
   midi.NoteOnEvent(tick=0, channel=0, data=[62, 0]),
   midi.NoteOnEvent(tick=0, channel=0, data=[69, 51]),
   midi.NoteOnEvent(tick=0, channel=0, data=[74, 51]),
   midi.NoteOnEvent(tick=480, channel=0, data=[74, 0]),
   midi.NoteOnEvent(tick=0, channel=0, data=[69, 0]),
   midi.NoteOnEvent(tick=0, channel=0, data=[67, 51]),
   midi.NoteOnEvent(tick=0, channel=0, data=[73, 51]),
   midi.NoteOnEvent(tick=60, channel=0, data=[73, 0]),
   midi.NoteOnEvent(tick=0, channel=0, data=[67, 0]),
   midi.NoteOnEvent(tick=300, channel=0, data=[66, 45]),
   midi.NoteOnEvent(tick=0, channel=0, data=[71, 45]),
   midi.NoteOnEvent(tick=60, channel=0, data=[71, 0]),
   midi.NoteOnEvent(tick=0, channel=0, data=[66, 0]),
   midi.NoteOnEvent(tick=60, channel=0, data=[64, 49]),
   midi.NoteOnEvent(tick=0, channel=0, data=[69, 49]),
   midi.NoteOnEvent(tick=240, channel=0, data=[69, 0]),
   midi.NoteOnEvent(tick=0, channel=0, data=[64, 0]),
   midi.NoteOnEvent(tick=240, channel=0, data=[67, 53]),
   midi.NoteOnEvent(tick=0, channel=0, data=[69, 53]),
   midi.NoteOnEvent(tick=0, channel=0, data=[79, 53]),
   midi.NoteOnEvent(tick=480, channel=0, data=[79, 0]),
   midi.NoteOnEvent(tick=0, channel=0, data=[69, 0]),
   midi.NoteOnEvent(tick=0, channel=0, data=[67, 0]),
   midi.NoteOnEvent(tick=0, channel=0, data=[66, 53]),
   midi.NoteOnEvent(tick=0, channel=0, data=[74, 53]),
   midi.NoteOnEvent(tick=0, channel=0, data=[78, 53]),
   midi.NoteOnEvent(tick=60, channel=0, data=[78, 0]),
   midi.NoteOnEvent(tick=0, channel=0, data=[74, 0]),
   midi.NoteOnEvent(tick=0, channel=0, data=[66, 0]),
   midi.NoteOnEvent(tick=300, channel=0, data=[67, 48]),
   midi.NoteOnEvent(tick=0, channel=0, data=[73, 48]),
   midi.NoteOnEvent(tick=0, channel=0, data=[76, 48]),
   midi.NoteOnEvent(tick=60, channel=0, data=[76, 0]),
   midi.NoteOnEvent(tick=0, channel=0, data=[73, 0]),
   midi.NoteOnEvent(tick=0, channel=0, data=[67, 0]),
   midi.NoteOnEvent(tick=60, channel=0, data=[69, 45]),
   midi.NoteOnEvent(tick=0, channel=0, data=[74, 45]),
   midi.NoteOnEvent(tick=240, channel=0, data=[74, 0]),
   midi.NoteOnEvent(tick=0, channel=0, data=[69, 0]),
   midi.NoteOnEvent(tick=240, channel=0, data=[66, 56]),
   midi.NoteOnEvent(tick=360, channel=0, data=[66, 0]),
   midi.NoteOnEvent(tick=0, channel=0, data=[71, 50]),
   midi.NoteOnEvent(tick=59, channel=0, data=[69, 55]),
   midi.NoteOnEvent(tick=1, channel=0, data=[71, 0]),
   midi.NoteOnEvent(tick=59, channel=0, data=[69, 0]),
   midi.NoteOnEvent(tick=1, channel=0, data=[61, 61]),
   midi.NoteOnEvent(tick=0, channel=0, data=[67, 61]),
   midi.NoteOnEvent(tick=90, channel=0, data=[67, 0]),
   midi.NoteOnEvent(tick=0, channel=0, data=[61, 0]),
   midi.NoteOnEvent(tick=270, channel=0, data=[61, 56]),
   midi.NoteOnEvent(tick=0, channel=0, data=[66, 56]),
   midi.NoteOnEvent(tick=60, channel=0, data=[66, 0]),
   midi.NoteOnEvent(tick=0, channel=0, data=[61, 0]),
   midi.NoteOnEvent(tick=60, channel=0, data=[61, 59]),
   midi.NoteOnEvent(tick=0, channel=0, data=[67, 59]),
   midi.NoteOnEvent(tick=240, channel=0, data=[67, 0]),
   midi.NoteOnEvent(tick=0, channel=0, data=[61, 0]),
   midi.NoteOnEvent(tick=240, channel=0, data=[71, 60]),
   midi.NoteOnEvent(tick=0, channel=0, data=[61, 60]),
   midi.NoteOnEvent(tick=360, channel=0, data=[71, 0]),
   midi.NoteOnEvent(tick=0, channel=0, data=[69, 56]),
   midi.NoteOnEvent(tick=120, channel=0, data=[69, 0]),
   midi.NoteOnEvent(tick=0, channel=0, data=[61, 0]),
   midi.NoteOnEvent(tick=0, channel=0, data=[69, 60]),
   midi.NoteOnEvent(tick=0, channel=0, data=[62, 60]),
   midi.NoteOnEvent(tick=240, channel=0, data=[71, 52]),
   midi.NoteOnEvent(tick=24, channel=0, data=[69, 0]),
   midi.NoteOnEvent(tick=216, channel=0, data=[62, 0]),
   midi.NoteOnEvent(tick=0, channel=0, data=[73, 54]),
   midi.NoteOnEvent(tick=24, channel=0, data=[71, 0]),
   midi.NoteOnEvent(tick=216, channel=0, data=[74, 55]),
   midi.NoteOnEvent(tick=24, channel=0, data=[73, 0]),
   midi.NoteOnEvent(tick=216, channel=0, data=[74, 0]),
   midi.NoteOnEvent(tick=0, channel=0, data=[71, 57]),
   midi.NoteOnEvent(tick=0, channel=0, data=[74, 57]),
   midi.NoteOnEvent(tick=240, channel=0, data=[76, 59]),
   midi.NoteOnEvent(tick=24, channel=0, data=[74, 0]),
   midi.NoteOnEvent(tick=216, channel=0, data=[71, 0]),
   midi.NoteOnEvent(tick=0, channel=0, data=[69, 61]),
   midi.NoteOnEvent(tick=0, channel=0, data=[78, 61]),
   midi.NoteOnEvent(tick=24, channel=0, data=[76, 0]),
   midi.NoteOnEvent(tick=456, channel=0, data=[69, 0]),
   midi.NoteOnEvent(tick=0, channel=0, data=[69, 52]),
   midi.NoteOnEvent(tick=240, channel=0, data=[71, 51]),
   midi.NoteOnEvent(tick=24, channel=0, data=[69, 0]),
   midi.NoteOnEvent(tick=216, channel=0, data=[71, 0]),
   midi.NoteOnEvent(tick=0, channel=0, data=[78, 0]),
   midi.NoteOnEvent(tick=0, channel=0, data=[71, 48]),
   midi.NoteOnEvent(tick=0, channel=0, data=[76, 48]),
   midi.NoteOnEvent(tick=240, channel=0, data=[73, 48]),
   midi.NoteOnEvent(tick=24, channel=0, data=[71, 0]),
   midi.NoteOnEvent(tick=216, channel=0, data=[73, 46]),
   midi.NoteOnEvent(tick=24, channel=0, data=[73, 0]),
   midi.NoteOnEvent(tick=456, channel=0, data=[73, 0]),
   midi.NoteOnEvent(tick=0, channel=0, data=[76, 0]),
   midi.NoteOnEvent(tick=0, channel=0, data=[74, 38]),
   midi.NoteOnEvent(tick=360, channel=0, data=[74, 0]),
   midi.NoteOnEvent(tick=120, channel=0, data=[72, 41]),
   midi.NoteOnEvent(tick=0, channel=0, data=[76, 41]),
   midi.NoteOnEvent(tick=240, channel=0, data=[78, 41]),
   midi.NoteOnEvent(tick=24, channel=0, data=[76, 0]),
   midi.NoteOnEvent(tick=216, channel=0, data=[72, 0]),
   midi.NoteOnEvent(tick=0, channel=0, data=[71, 40]),
   midi.NoteOnEvent(tick=0, channel=0, data=[79, 45]),
   midi.NoteOnEvent(tick=24, channel=0, data=[78, 0]),
   midi.NoteOnEvent(tick=216, channel=0, data=[81, 41]),
   midi.NoteOnEvent(tick=24, channel=0, data=[79, 0]),
   midi.NoteOnEvent(tick=216, channel=0, data=[79, 41]),
   midi.NoteOnEvent(tick=24, channel=0, data=[81, 0]),
   midi.NoteOnEvent(tick=216, channel=0, data=[78, 41]),
   midi.NoteOnEvent(tick=24, channel=0, data=[79, 0]),
   midi.NoteOnEvent(tick=216, channel=0, data=[71, 0]),
   midi.NoteOnEvent(tick=0, channel=0, data=[75, 40]),
   midi.NoteOnEvent(tick=0, channel=0, data=[79, 43]),
   midi.NoteOnEvent(tick=24, channel=0, data=[78, 0]),
   midi.NoteOnEvent(tick=216, channel=0, data=[78, 45]),
   midi.NoteOnEvent(tick=24, channel=0, data=[79, 0]),
   midi.NoteOnEvent(tick=216, channel=0, data=[75, 0]),
   midi.NoteOnEvent(tick=0, channel=0, data=[72, 47]),
   midi.NoteOnEvent(tick=0, channel=0, data=[76, 47]),
   midi.NoteOnEvent(tick=24, channel=0, data=[78, 0]),
   midi.NoteOnEvent(tick=936, channel=0, data=[76, 0]),
   midi.NoteOnEvent(tick=0, channel=0, data=[72, 0]),
   midi.NoteOnEvent(tick=0, channel=0, data=[69, 44]),
   midi.NoteOnEvent(tick=0, channel=0, data=[74, 44]),
   midi.NoteOnEvent(tick=240, channel=0, data=[72, 43]),
   midi.NoteOnEvent(tick=24, channel=0, data=[74, 0]),
   midi.NoteOnEvent(tick=216, channel=0, data=[69, 0]),
   midi.NoteOnEvent(tick=0, channel=0, data=[67, 41]),
   midi.NoteOnEvent(tick=0, channel=0, data=[71, 41]),
   midi.NoteOnEvent(tick=24, channel=0, data=[72, 0]),
   midi.NoteOnEvent(tick=456, channel=0, data=[71, 0]),
   midi.NoteOnEvent(tick=0, channel=0, data=[67, 0]),
   midi.NoteOnEvent(tick=0, channel=0, data=[67, 44]),
   midi.NoteOnEvent(tick=0, channel=0, data=[72, 44]),
   midi.NoteOnEvent(tick=240, channel=0, data=[69, 43]),
   midi.NoteOnEvent(tick=24, channel=0, data=[67, 0]),
   midi.NoteOnEvent(tick=216, channel=0, data=[69, 0]),
   midi.NoteOnEvent(tick=0, channel=0, data=[72, 0]),
   midi.NoteOnEvent(tick=0, channel=0, data=[62, 42]),
   midi.NoteOnEvent(tick=0, channel=0, data=[69, 42]),
   midi.NoteOnEvent(tick=0, channel=0, data=[71, 42]),
   midi.NoteOnEvent(tick=240, channel=0, data=[69, 0]),
   midi.NoteOnEvent(tick=0, channel=0, data=[62, 0]),
   midi.NoteOnEvent(tick=0, channel=0, data=[67, 41]),
   midi.NoteOnEvent(tick=240, channel=0, data=[67, 0]),
   midi.NoteOnEvent(tick=0, channel=0, data=[71, 0]),
   midi.NoteOnEvent(tick=0, channel=0, data=[62, 37]),
   midi.NoteOnEvent(tick=0, channel=0, data=[67, 37]),
   midi.NoteOnEvent(tick=0, channel=0, data=[69, 37]),
   midi.NoteOnEvent(tick=240, channel=0, data=[62, 0]),
   midi.NoteOnEvent(tick=0, channel=0, data=[66, 35]),
   midi.NoteOnEvent(tick=24, channel=0, data=[67, 0]),
   midi.NoteOnEvent(tick=216, channel=0, data=[64, 34]),
   midi.NoteOnEvent(tick=24, channel=0, data=[66, 0]),
   midi.NoteOnEvent(tick=216, channel=0, data=[62, 32]),
   midi.NoteOnEvent(tick=24, channel=0, data=[64, 0]),
   midi.NoteOnEvent(tick=216, channel=0, data=[62, 0]),
   midi.NoteOnEvent(tick=0, channel=0, data=[69, 0]),
   midi.NoteOnEvent(tick=0, channel=0, data=[62, 42]),
   midi.NoteOnEvent(tick=0, channel=0, data=[66, 42]),
   midi.NoteOnEvent(tick=240, channel=0, data=[62, 0]),
   midi.NoteOnEvent(tick=0, channel=0, data=[60, 45]),
   midi.NoteOnEvent(tick=120, channel=0, data=[66, 0]),
   midi.NoteOnEvent(tick=0, channel=0, data=[71, 40]),
   midi.NoteOnEvent(tick=59, channel=0, data=[69, 44]),
   midi.NoteOnEvent(tick=1, channel=0, data=[71, 0]),
   midi.NoteOnEvent(tick=0, channel=0, data=[60, 0]),
   midi.NoteOnEvent(tick=59, channel=0, data=[69, 0]),
   midi.NoteOnEvent(tick=1, channel=0, data=[61, 49]),
   midi.NoteOnEvent(tick=0, channel=0, data=[67, 49]),
   midi.NoteOnEvent(tick=60, channel=0, data=[67, 0]),
   midi.NoteOnEvent(tick=0, channel=0, data=[61, 0]),
   midi.NoteOnEvent(tick=300, channel=0, data=[61, 47]),
   midi.NoteOnEvent(tick=0, channel=0, data=[66, 47]),
   midi.NoteOnEvent(tick=60, channel=0, data=[66, 0]),
   midi.NoteOnEvent(tick=0, channel=0, data=[61, 0]),
   midi.NoteOnEvent(tick=60, channel=0, data=[61, 50]),
   midi.NoteOnEvent(tick=0, channel=0, data=[67, 50]),
   midi.NoteOnEvent(tick=240, channel=0, data=[67, 0]),
   midi.NoteOnEvent(tick=0, channel=0, data=[61, 0]),
   midi.NoteOnEvent(tick=240, channel=0, data=[61, 49]),
   midi.NoteOnEvent(tick=0, channel=0, data=[71, 49]),
   midi.NoteOnEvent(tick=480, channel=0, data=[71, 0]),
   midi.NoteOnEvent(tick=0, channel=0, data=[61, 0]),
   midi.NoteOnEvent(tick=0, channel=0, data=[62, 51]),
   midi.NoteOnEvent(tick=0, channel=0, data=[69, 51]),
   midi.NoteOnEvent(tick=960, channel=0, data=[69, 0]),
   midi.NoteOnEvent(tick=0, channel=0, data=[62, 0]),
   midi.NoteOnEvent(tick=0, channel=0, data=[69, 51]),
   midi.NoteOnEvent(tick=0, channel=0, data=[74, 51]),
   midi.NoteOnEvent(tick=480, channel=0, data=[74, 0]),
   midi.NoteOnEvent(tick=0, channel=0, data=[69, 0]),
   midi.NoteOnEvent(tick=0, channel=0, data=[67, 51]),
   midi.NoteOnEvent(tick=0, channel=0, data=[73, 51]),
   midi.NoteOnEvent(tick=60, channel=0, data=[73, 0]),
   midi.NoteOnEvent(tick=0, channel=0, data=[67, 0]),
   midi.NoteOnEvent(tick=300, channel=0, data=[66, 47]),
   midi.NoteOnEvent(tick=0, channel=0, data=[71, 47]),
   midi.NoteOnEvent(tick=60, channel=0, data=[71, 0]),
   midi.NoteOnEvent(tick=0, channel=0, data=[66, 0]),
   midi.NoteOnEvent(tick=60, channel=0, data=[64, 50]),
   midi.NoteOnEvent(tick=0, channel=0, data=[69, 50]),
   midi.NoteOnEvent(tick=240, channel=0, data=[69, 0]),
   midi.NoteOnEvent(tick=0, channel=0, data=[64, 0]),
   midi.NoteOnEvent(tick=240, channel=0, data=[67, 53]),
   midi.NoteOnEvent(tick=0, channel=0, data=[69, 53]),
   midi.NoteOnEvent(tick=0, channel=0, data=[79, 53]),
   midi.NoteOnEvent(tick=480, channel=0, data=[79, 0]),
   midi.NoteOnEvent(tick=0, channel=0, data=[69, 0]),
   midi.NoteOnEvent(tick=0, channel=0, data=[67, 0]),
   midi.NoteOnEvent(tick=0, channel=0, data=[66, 53]),
   midi.NoteOnEvent(tick=0, channel=0, data=[74, 53]),
   midi.NoteOnEvent(tick=0, channel=0, data=[78, 53]),
   midi.NoteOnEvent(tick=60, channel=0, data=[78, 0]),
   midi.NoteOnEvent(tick=0, channel=0, data=[74, 0]),
   midi.NoteOnEvent(tick=0, channel=0, data=[66, 0]),
   midi.NoteOnEvent(tick=300, channel=0, data=[67, 49]),
   midi.NoteOnEvent(tick=0, channel=0, data=[73, 49]),
   midi.NoteOnEvent(tick=0, channel=0, data=[76, 49]),
   midi.NoteOnEvent(tick=60, channel=0, data=[76, 0]),
   midi.NoteOnEvent(tick=0, channel=0, data=[73, 0]),
   midi.NoteOnEvent(tick=0, channel=0, data=[67, 0]),
   midi.NoteOnEvent(tick=60, channel=0, data=[69, 48]),
   midi.NoteOnEvent(tick=0, channel=0, data=[74, 48]),
   midi.NoteOnEvent(tick=240, channel=0, data=[74, 0]),
   midi.NoteOnEvent(tick=0, channel=0, data=[69, 0]),
   midi.NoteOnEvent(tick=240, channel=0, data=[66, 56]),
   midi.NoteOnEvent(tick=360, channel=0, data=[66, 0]),
   midi.NoteOnEvent(tick=0, channel=0, data=[71, 50]),
   midi.NoteOnEvent(tick=59, channel=0, data=[69, 55]),
   midi.NoteOnEvent(tick=1, channel=0, data=[71, 0]),
   midi.NoteOnEvent(tick=59, channel=0, data=[69, 0]),
   midi.NoteOnEvent(tick=1, channel=0, data=[61, 61]),
   midi.NoteOnEvent(tick=0, channel=0, data=[67, 61]),
   midi.NoteOnEvent(tick=90, channel=0, data=[67, 0]),
   midi.NoteOnEvent(tick=0, channel=0, data=[61, 0]),
   midi.NoteOnEvent(tick=270, channel=0, data=[61, 53]),
   midi.NoteOnEvent(tick=0, channel=0, data=[66, 53]),
   midi.NoteOnEvent(tick=60, channel=0, data=[66, 0]),
   midi.NoteOnEvent(tick=0, channel=0, data=[61, 0]),
   midi.NoteOnEvent(tick=60, channel=0, data=[61, 57]),
   midi.NoteOnEvent(tick=0, channel=0, data=[67, 57]),
   midi.NoteOnEvent(tick=240, channel=0, data=[67, 0]),
   midi.NoteOnEvent(tick=0, channel=0, data=[61, 0]),
   midi.NoteOnEvent(tick=240, channel=0, data=[71, 60]),
   midi.NoteOnEvent(tick=0, channel=0, data=[61, 60]),
   midi.NoteOnEvent(tick=360, channel=0, data=[71, 0]),
   midi.NoteOnEvent(tick=0, channel=0, data=[69, 56]),
   midi.NoteOnEvent(tick=120, channel=0, data=[69, 0]),
   midi.NoteOnEvent(tick=0, channel=0, data=[61, 0]),
   midi.NoteOnEvent(tick=0, channel=0, data=[69, 60]),
   midi.NoteOnEvent(tick=0, channel=0, data=[62, 60]),
   midi.NoteOnEvent(tick=240, channel=0, data=[71, 52]),
   midi.NoteOnEvent(tick=24, channel=0, data=[69, 0]),
   midi.NoteOnEvent(tick=216, channel=0, data=[62, 0]),
   midi.NoteOnEvent(tick=0, channel=0, data=[73, 54]),
   midi.NoteOnEvent(tick=24, channel=0, data=[71, 0]),
   midi.NoteOnEvent(tick=216, channel=0, data=[74, 55]),
   midi.NoteOnEvent(tick=24, channel=0, data=[73, 0]),
   midi.NoteOnEvent(tick=216, channel=0, data=[74, 0]),
   midi.NoteOnEvent(tick=0, channel=0, data=[71, 57]),
   midi.NoteOnEvent(tick=0, channel=0, data=[74, 57]),
   midi.NoteOnEvent(tick=240, channel=0, data=[76, 59]),
   midi.NoteOnEvent(tick=24, channel=0, data=[74, 0]),
   midi.NoteOnEvent(tick=216, channel=0, data=[71, 0]),
   midi.NoteOnEvent(tick=0, channel=0, data=[69, 61]),
   midi.NoteOnEvent(tick=0, channel=0, data=[78, 61]),
   midi.NoteOnEvent(tick=24, channel=0, data=[76, 0]),
   midi.NoteOnEvent(tick=456, channel=0, data=[69, 0]),
   midi.NoteOnEvent(tick=0, channel=0, data=[69, 52]),
   midi.NoteOnEvent(tick=240, channel=0, data=[71, 51]),
   midi.NoteOnEvent(tick=24, channel=0, data=[69, 0]),
   midi.NoteOnEvent(tick=216, channel=0, data=[71, 0]),
   midi.NoteOnEvent(tick=0, channel=0, data=[78, 0]),
   midi.NoteOnEvent(tick=0, channel=0, data=[71, 48]),
   midi.NoteOnEvent(tick=0, channel=0, data=[76, 48]),
   midi.NoteOnEvent(tick=240, channel=0, data=[73, 48]),
   midi.NoteOnEvent(tick=24, channel=0, data=[71, 0]),
   midi.NoteOnEvent(tick=216, channel=0, data=[73, 46]),
   midi.NoteOnEvent(tick=24, channel=0, data=[73, 0]),
   midi.NoteOnEvent(tick=456, channel=0, data=[73, 0]),
   midi.NoteOnEvent(tick=0, channel=0, data=[76, 0]),
   midi.NoteOnEvent(tick=0, channel=0, data=[74, 38]),
   midi.NoteOnEvent(tick=480, channel=0, data=[74, 0]),
   midi.EndOfTrackEvent(tick=0, data=[])]),
 midi.Track(\
  [midi.TrackNameEvent(tick=0, text='Piano left', data=[80, 105, 97, 110, 111, 32, 108, 101, 102, 116]),
   midi.ProgramChangeEvent(tick=0, channel=0, data=[0]),
   midi.ControlChangeEvent(tick=0, channel=0, data=[7, 100]),
   midi.ControlChangeEvent(tick=0, channel=0, data=[10, 64]),
   midi.ControlChangeEvent(tick=0, channel=0, data=[64, 0]),
   midi.ControlChangeEvent(tick=959, channel=0, data=[91, 127]),
   midi.NoteOnEvent(tick=1, channel=0, data=[50, 51]),
   midi.NoteOnEvent(tick=0, channel=0, data=[57, 51]),
   midi.ControlChangeEvent(tick=0, channel=0, data=[64, 127]),
   midi.NoteOnEvent(tick=480, channel=0, data=[57, 0]),
   midi.NoteOnEvent(tick=0, channel=0, data=[50, 0]),
   midi.NoteOnEvent(tick=0, channel=0, data=[57, 56]),
   midi.NoteOnEvent(tick=0, channel=0, data=[52, 56]),
   midi.ControlChangeEvent(tick=19, channel=0, data=[64, 0]),
   midi.NoteOnEvent(tick=41, channel=0, data=[52, 0]),
   midi.NoteOnEvent(tick=0, channel=0, data=[57, 0]),
   midi.NoteOnEvent(tick=300, channel=0, data=[51, 47]),
   midi.NoteOnEvent(tick=0, channel=0, data=[57, 47]),
   midi.NoteOnEvent(tick=60, channel=0, data=[57, 0]),
   midi.NoteOnEvent(tick=0, channel=0, data=[51, 0]),
   midi.NoteOnEvent(tick=60, channel=0, data=[52, 51]),
   midi.NoteOnEvent(tick=0, channel=0, data=[57, 51]),
   midi.NoteOnEvent(tick=240, channel=0, data=[57, 0]),
   midi.NoteOnEvent(tick=0, channel=0, data=[52, 0]),
   midi.NoteOnEvent(tick=240, channel=0, data=[57, 55]),
   midi.NoteOnEvent(tick=0, channel=0, data=[55, 55]),
   midi.ControlChangeEvent(tick=17, channel=0, data=[64, 127]),
   midi.NoteOnEvent(tick=463, channel=0, data=[55, 0]),
   midi.NoteOnEvent(tick=0, channel=0, data=[57, 0]),
   midi.NoteOnEvent(tick=0, channel=0, data=[54, 55]),
   midi.NoteOnEvent(tick=0, channel=0, data=[57, 55]),
   midi.ControlChangeEvent(tick=20, channel=0, data=[64, 0]),
   midi.NoteOnEvent(tick=40, channel=0, data=[57, 0]),
   midi.NoteOnEvent(tick=0, channel=0, data=[54, 0]),
   midi.NoteOnEvent(tick=300, channel=0, data=[57, 49]),
   midi.NoteOnEvent(tick=0, channel=0, data=[53, 49]),
   midi.NoteOnEvent(tick=60, channel=0, data=[53, 0]),
   midi.NoteOnEvent(tick=0, channel=0, data=[57, 0]),
   midi.NoteOnEvent(tick=60, channel=0, data=[57, 52]),
   midi.NoteOnEvent(tick=0, channel=0, data=[54, 52]),
   midi.NoteOnEvent(tick=240, channel=0, data=[54, 0]),
   midi.NoteOnEvent(tick=0, channel=0, data=[57, 0]),
   midi.NoteOnEvent(tick=240, channel=0, data=[57, 55]),
   midi.NoteOnEvent(tick=0, channel=0, data=[54, 55]),
   midi.ControlChangeEvent(tick=17, channel=0, data=[64, 127]),
   midi.NoteOnEvent(tick=463, channel=0, data=[54, 0]),
   midi.NoteOnEvent(tick=0, channel=0, data=[57, 0]),
   midi.NoteOnEvent(tick=0, channel=0, data=[52, 55]),
   midi.NoteOnEvent(tick=0, channel=0, data=[57, 55]),
   midi.ControlChangeEvent(tick=21, channel=0, data=[64, 0]),
   midi.NoteOnEvent(tick=39, channel=0, data=[57, 0]),
   midi.NoteOnEvent(tick=0, channel=0, data=[52, 0]),
   midi.NoteOnEvent(tick=300, channel=0, data=[57, 52]),
   midi.NoteOnEvent(tick=0, channel=0, data=[50, 52]),
   midi.NoteOnEvent(tick=60, channel=0, data=[50, 0]),
   midi.NoteOnEvent(tick=0, channel=0, data=[57, 0]),
   midi.NoteOnEvent(tick=60, channel=0, data=[57, 56]),
   midi.NoteOnEvent(tick=0, channel=0, data=[49, 56]),
   midi.NoteOnEvent(tick=240, channel=0, data=[49, 0]),
   midi.NoteOnEvent(tick=0, channel=0, data=[57, 0]),
   midi.NoteOnEvent(tick=240, channel=0, data=[45, 61]),
   midi.NoteOnEvent(tick=0, channel=0, data=[57, 61]),
   midi.ControlChangeEvent(tick=7, channel=0, data=[64, 127]),
   midi.NoteOnEvent(tick=473, channel=0, data=[57, 0]),
   midi.NoteOnEvent(tick=0, channel=0, data=[45, 0]),
   midi.NoteOnEvent(tick=0, channel=0, data=[57, 58]),
   midi.NoteOnEvent(tick=0, channel=0, data=[50, 58]),
   midi.ControlChangeEvent(tick=21, channel=0, data=[64, 0]),
   midi.NoteOnEvent(tick=39, channel=0, data=[50, 0]),
   midi.NoteOnEvent(tick=0, channel=0, data=[57, 0]),
   midi.NoteOnEvent(tick=300, channel=0, data=[52, 56]),
   midi.NoteOnEvent(tick=0, channel=0, data=[57, 56]),
   midi.NoteOnEvent(tick=60, channel=0, data=[57, 0]),
   midi.NoteOnEvent(tick=0, channel=0, data=[52, 0]),
   midi.NoteOnEvent(tick=60, channel=0, data=[57, 53]),
   midi.NoteOnEvent(tick=0, channel=0, data=[54, 53]),
   midi.NoteOnEvent(tick=240, channel=0, data=[54, 0]),
   midi.NoteOnEvent(tick=0, channel=0, data=[57, 0]),
   midi.NoteOnEvent(tick=240, channel=0, data=[50, 50]),
   midi.NoteOnEvent(tick=0, channel=0, data=[57, 50]),
   midi.ControlChangeEvent(tick=0, channel=0, data=[64, 127]),
   midi.NoteOnEvent(tick=480, channel=0, data=[57, 0]),
   midi.NoteOnEvent(tick=0, channel=0, data=[50, 0]),
   midi.NoteOnEvent(tick=0, channel=0, data=[52, 56]),
   midi.NoteOnEvent(tick=0, channel=0, data=[57, 56]),
   midi.ControlChangeEvent(tick=19, channel=0, data=[64, 0]),
   midi.NoteOnEvent(tick=71, channel=0, data=[57, 0]),
   midi.NoteOnEvent(tick=0, channel=0, data=[52, 0]),
   midi.NoteOnEvent(tick=270, channel=0, data=[57, 53]),
   midi.NoteOnEvent(tick=0, channel=0, data=[51, 53]),
   midi.NoteOnEvent(tick=60, channel=0, data=[51, 0]),
   midi.NoteOnEvent(tick=0, channel=0, data=[57, 0]),
   midi.NoteOnEvent(tick=60, channel=0, data=[57, 56]),
   midi.NoteOnEvent(tick=0, channel=0, data=[52, 56]),
   midi.NoteOnEvent(tick=240, channel=0, data=[52, 0]),
   midi.NoteOnEvent(tick=0, channel=0, data=[57, 0]),
   midi.NoteOnEvent(tick=240, channel=0, data=[55, 58]),
   midi.NoteOnEvent(tick=0, channel=0, data=[57, 58]),
   midi.ControlChangeEvent(tick=23, channel=0, data=[64, 127]),
   midi.NoteOnEvent(tick=457, channel=0, data=[57, 0]),
   midi.NoteOnEvent(tick=0, channel=0, data=[55, 0]),
   midi.NoteOnEvent(tick=0, channel=0, data=[57, 58]),
   midi.NoteOnEvent(tick=0, channel=0, data=[54, 58]),
   midi.ControlChangeEvent(tick=18, channel=0, data=[64, 0]),
   midi.NoteOnEvent(tick=72, channel=0, data=[54, 0]),
   midi.NoteOnEvent(tick=0, channel=0, data=[57, 0]),
   midi.NoteOnEvent(tick=270, channel=0, data=[53, 54]),
   midi.NoteOnEvent(tick=0, channel=0, data=[57, 54]),
   midi.NoteOnEvent(tick=60, channel=0, data=[57, 0]),
   midi.NoteOnEvent(tick=0, channel=0, data=[53, 0]),
   midi.NoteOnEvent(tick=60, channel=0, data=[57, 58]),
   midi.NoteOnEvent(tick=0, channel=0, data=[54, 58]),
   midi.NoteOnEvent(tick=240, channel=0, data=[54, 0]),
   midi.NoteOnEvent(tick=0, channel=0, data=[57, 0]),
   midi.NoteOnEvent(tick=240, channel=0, data=[57, 52]),
   midi.NoteOnEvent(tick=0, channel=0, data=[54, 52]),
   midi.NoteOnEvent(tick=240, channel=0, data=[57, 0]),
   midi.NoteOnEvent(tick=0, channel=0, data=[59, 49]),
   midi.NoteOnEvent(tick=240, channel=0, data=[59, 0]),
   midi.NoteOnEvent(tick=0, channel=0, data=[54, 0]),
   midi.NoteOnEvent(tick=0, channel=0, data=[52, 48]),
   midi.NoteOnEvent(tick=0, channel=0, data=[61, 48]),
   midi.NoteOnEvent(tick=240, channel=0, data=[62, 50]),
   midi.NoteOnEvent(tick=24, channel=0, data=[61, 0]),
   midi.NoteOnEvent(tick=216, channel=0, data=[52, 0]),
   midi.NoteOnEvent(tick=0, channel=0, data=[64, 51]),
   midi.NoteOnEvent(tick=24, channel=0, data=[62, 0]),
   midi.NoteOnEvent(tick=216, channel=0, data=[66, 53]),
   midi.NoteOnEvent(tick=24, channel=0, data=[64, 0]),
   midi.NoteOnEvent(tick=216, channel=0, data=[66, 0]),
   midi.NoteOnEvent(tick=0, channel=0, data=[66, 55]),
   midi.NoteOnEvent(tick=0, channel=0, data=[64, 45]),
   midi.NoteOnEvent(tick=360, channel=0, data=[66, 0]),
   midi.NoteOnEvent(tick=0, channel=0, data=[68, 48]),
   midi.NoteOnEvent(tick=120, channel=0, data=[68, 0]),
   midi.ControlChangeEvent(tick=0, channel=0, data=[64, 127]),
   midi.NoteOnEvent(tick=0, channel=0, data=[68, 45]),
   midi.NoteOnEvent(tick=480, channel=0, data=[68, 0]),
   midi.NoteOnEvent(tick=0, channel=0, data=[64, 0]),
   midi.NoteOnEvent(tick=0, channel=0, data=[57, 37]),
   midi.NoteOnEvent(tick=0, channel=0, data=[69, 37]),
   midi.ControlChangeEvent(tick=9, channel=0, data=[64, 0]),
   midi.NoteOnEvent(tick=351, channel=0, data=[69, 0]),
   midi.NoteOnEvent(tick=0, channel=0, data=[57, 0]),
   midi.ControlChangeEvent(tick=120, channel=0, data=[64, 127]),
   midi.ControlChangeEvent(tick=0, channel=0, data=[91, 127]),
   midi.NoteOnEvent(tick=0, channel=0, data=[50, 50]),
   midi.NoteOnEvent(tick=0, channel=0, data=[57, 50]),
   midi.NoteOnEvent(tick=480, channel=0, data=[57, 0]),
   midi.NoteOnEvent(tick=0, channel=0, data=[50, 0]),
   midi.NoteOnEvent(tick=0, channel=0, data=[52, 58]),
   midi.NoteOnEvent(tick=0, channel=0, data=[57, 58]),
   midi.ControlChangeEvent(tick=20, channel=0, data=[64, 0]),
   midi.NoteOnEvent(tick=40, channel=0, data=[57, 0]),
   midi.NoteOnEvent(tick=0, channel=0, data=[52, 0]),
   midi.NoteOnEvent(tick=300, channel=0, data=[51, 54]),
   midi.NoteOnEvent(tick=0, channel=0, data=[57, 54]),
   midi.NoteOnEvent(tick=60, channel=0, data=[57, 0]),
   midi.NoteOnEvent(tick=0, channel=0, data=[51, 0]),
   midi.NoteOnEvent(tick=60, channel=0, data=[52, 57]),
   midi.NoteOnEvent(tick=0, channel=0, data=[57, 57]),
   midi.NoteOnEvent(tick=240, channel=0, data=[57, 0]),
   midi.NoteOnEvent(tick=0, channel=0, data=[52, 0]),
   midi.NoteOnEvent(tick=240, channel=0, data=[55, 57]),
   midi.NoteOnEvent(tick=0, channel=0, data=[57, 57]),
   midi.ControlChangeEvent(tick=29, channel=0, data=[64, 127]),
   midi.NoteOnEvent(tick=451, channel=0, data=[57, 0]),
   midi.NoteOnEvent(tick=0, channel=0, data=[55, 0]),
   midi.NoteOnEvent(tick=0, channel=0, data=[54, 57]),
   midi.NoteOnEvent(tick=0, channel=0, data=[57, 57]),
   midi.ControlChangeEvent(tick=23, channel=0, data=[64, 0]),
   midi.NoteOnEvent(tick=37, channel=0, data=[57, 0]),
   midi.NoteOnEvent(tick=0, channel=0, data=[54, 0]),
   midi.NoteOnEvent(tick=300, channel=0, data=[53, 53]),
   midi.NoteOnEvent(tick=0, channel=0, data=[57, 53]),
   midi.NoteOnEvent(tick=60, channel=0, data=[57, 0]),
   midi.NoteOnEvent(tick=0, channel=0, data=[53, 0]),
   midi.NoteOnEvent(tick=60, channel=0, data=[54, 57]),
   midi.NoteOnEvent(tick=0, channel=0, data=[57, 57]),
   midi.NoteOnEvent(tick=240, channel=0, data=[57, 0]),
   midi.NoteOnEvent(tick=0, channel=0, data=[54, 0]),
   midi.ControlChangeEvent(tick=240, channel=0, data=[64, 127]),
   midi.NoteOnEvent(tick=0, channel=0, data=[54, 56]),
   midi.NoteOnEvent(tick=0, channel=0, data=[57, 56]),
   midi.NoteOnEvent(tick=480, channel=0, data=[57, 0]),
   midi.NoteOnEvent(tick=0, channel=0, data=[54, 0]),
   midi.NoteOnEvent(tick=0, channel=0, data=[52, 56]),
   midi.NoteOnEvent(tick=0, channel=0, data=[57, 56]),
   midi.ControlChangeEvent(tick=21, channel=0, data=[64, 0]),
   midi.NoteOnEvent(tick=39, channel=0, data=[57, 0]),
   midi.NoteOnEvent(tick=0, channel=0, data=[52, 0]),
   midi.NoteOnEvent(tick=300, channel=0, data=[50, 53]),
   midi.NoteOnEvent(tick=0, channel=0, data=[57, 53]),
   midi.NoteOnEvent(tick=60, channel=0, data=[57, 0]),
   midi.NoteOnEvent(tick=0, channel=0, data=[50, 0]),
   midi.NoteOnEvent(tick=60, channel=0, data=[49, 57]),
   midi.NoteOnEvent(tick=0, channel=0, data=[57, 57]),
   midi.NoteOnEvent(tick=240, channel=0, data=[57, 0]),
   midi.NoteOnEvent(tick=0, channel=0, data=[49, 0]),
   midi.NoteOnEvent(tick=240, channel=0, data=[45, 60]),
   midi.NoteOnEvent(tick=0, channel=0, data=[57, 60]),
   midi.ControlChangeEvent(tick=21, channel=0, data=[64, 127]),
   midi.NoteOnEvent(tick=459, channel=0, data=[57, 0]),
   midi.NoteOnEvent(tick=0, channel=0, data=[45, 0]),
   midi.NoteOnEvent(tick=0, channel=0, data=[50, 57]),
   midi.NoteOnEvent(tick=0, channel=0, data=[57, 57]),
   midi.ControlChangeEvent(tick=20, channel=0, data=[64, 0]),
   midi.NoteOnEvent(tick=40, channel=0, data=[57, 0]),
   midi.NoteOnEvent(tick=0, channel=0, data=[50, 0]),
   midi.NoteOnEvent(tick=300, channel=0, data=[52, 55]),
   midi.NoteOnEvent(tick=0, channel=0, data=[57, 55]),
   midi.NoteOnEvent(tick=60, channel=0, data=[57, 0]),
   midi.NoteOnEvent(tick=0, channel=0, data=[52, 0]),
   midi.NoteOnEvent(tick=60, channel=0, data=[54, 55]),
   midi.NoteOnEvent(tick=0, channel=0, data=[57, 55]),
   midi.NoteOnEvent(tick=240, channel=0, data=[57, 0]),
   midi.NoteOnEvent(tick=0, channel=0, data=[54, 0]),
   midi.NoteOnEvent(tick=240, channel=0, data=[50, 52]),
   midi.NoteOnEvent(tick=0, channel=0, data=[57, 52]),
   midi.ControlChangeEvent(tick=28, channel=0, data=[64, 127]),
   midi.NoteOnEvent(tick=452, channel=0, data=[57, 0]),
   midi.NoteOnEvent(tick=0, channel=0, data=[50, 0]),
   midi.NoteOnEvent(tick=0, channel=0, data=[52, 56]),
   midi.NoteOnEvent(tick=0, channel=0, data=[57, 56]),
   midi.ControlChangeEvent(tick=19, channel=0, data=[64, 0]),
   midi.NoteOnEvent(tick=71, channel=0, data=[57, 0]),
   midi.NoteOnEvent(tick=0, channel=0, data=[52, 0]),
   midi.NoteOnEvent(tick=270, channel=0, data=[51, 53]),
   midi.NoteOnEvent(tick=0, channel=0, data=[57, 53]),
   midi.NoteOnEvent(tick=60, channel=0, data=[57, 0]),
   midi.NoteOnEvent(tick=0, channel=0, data=[51, 0]),
   midi.NoteOnEvent(tick=60, channel=0, data=[52, 55]),
   midi.NoteOnEvent(tick=0, channel=0, data=[57, 55]),
   midi.NoteOnEvent(tick=240, channel=0, data=[57, 0]),
   midi.NoteOnEvent(tick=0, channel=0, data=[52, 0]),
   midi.NoteOnEvent(tick=240, channel=0, data=[55, 56]),
   midi.NoteOnEvent(tick=0, channel=0, data=[57, 56]),
   midi.ControlChangeEvent(tick=29, channel=0, data=[64, 127]),
   midi.NoteOnEvent(tick=451, channel=0, data=[57, 0]),
   midi.NoteOnEvent(tick=0, channel=0, data=[55, 0]),
   midi.NoteOnEvent(tick=0, channel=0, data=[54, 56]),
   midi.NoteOnEvent(tick=0, channel=0, data=[57, 56]),
   midi.ControlChangeEvent(tick=23, channel=0, data=[64, 0]),
   midi.NoteOnEvent(tick=67, channel=0, data=[57, 0]),
   midi.NoteOnEvent(tick=0, channel=0, data=[54, 0]),
   midi.NoteOnEvent(tick=270, channel=0, data=[53, 54]),
   midi.NoteOnEvent(tick=0, channel=0, data=[57, 54]),
   midi.NoteOnEvent(tick=60, channel=0, data=[57, 0]),
   midi.NoteOnEvent(tick=0, channel=0, data=[53, 0]),
   midi.NoteOnEvent(tick=60, channel=0, data=[54, 58]),
   midi.NoteOnEvent(tick=0, channel=0, data=[57, 58]),
   midi.NoteOnEvent(tick=240, channel=0, data=[57, 0]),
   midi.NoteOnEvent(tick=0, channel=0, data=[54, 0]),
   midi.NoteOnEvent(tick=240, channel=0, data=[57, 52]),
   midi.NoteOnEvent(tick=0, channel=0, data=[54, 52]),
   midi.NoteOnEvent(tick=240, channel=0, data=[57, 0]),
   midi.NoteOnEvent(tick=0, channel=0, data=[59, 49]),
   midi.NoteOnEvent(tick=240, channel=0, data=[59, 0]),
   midi.NoteOnEvent(tick=0, channel=0, data=[54, 0]),
   midi.NoteOnEvent(tick=0, channel=0, data=[61, 48]),
   midi.NoteOnEvent(tick=0, channel=0, data=[52, 48]),
   midi.NoteOnEvent(tick=240, channel=0, data=[62, 50]),
   midi.NoteOnEvent(tick=24, channel=0, data=[61, 0]),
   midi.NoteOnEvent(tick=216, channel=0, data=[52, 0]),
   midi.NoteOnEvent(tick=0, channel=0, data=[64, 51]),
   midi.NoteOnEvent(tick=24, channel=0, data=[62, 0]),
   midi.NoteOnEvent(tick=216, channel=0, data=[66, 53]),
   midi.NoteOnEvent(tick=24, channel=0, data=[64, 0]),
   midi.NoteOnEvent(tick=216, channel=0, data=[66, 0]),
   midi.NoteOnEvent(tick=0, channel=0, data=[64, 45]),
   midi.NoteOnEvent(tick=0, channel=0, data=[66, 55]),
   midi.NoteOnEvent(tick=360, channel=0, data=[66, 0]),
   midi.NoteOnEvent(tick=0, channel=0, data=[68, 48]),
   midi.NoteOnEvent(tick=120, channel=0, data=[68, 0]),
   midi.ControlChangeEvent(tick=0, channel=0, data=[64, 127]),
   midi.NoteOnEvent(tick=0, channel=0, data=[68, 45]),
   midi.NoteOnEvent(tick=480, channel=0, data=[68, 0]),
   midi.NoteOnEvent(tick=0, channel=0, data=[64, 0]),
   midi.NoteOnEvent(tick=0, channel=0, data=[69, 37]),
   midi.NoteOnEvent(tick=0, channel=0, data=[57, 37]),
   midi.ControlChangeEvent(tick=2, channel=0, data=[64, 0]),
   midi.NoteOnEvent(tick=358, channel=0, data=[57, 0]),
   midi.NoteOnEvent(tick=0, channel=0, data=[69, 0]),
   midi.NoteOnEvent(tick=120, channel=0, data=[57, 41]),
   midi.NoteOnEvent(tick=0, channel=0, data=[64, 41]),
   midi.NoteOnEvent(tick=240, channel=0, data=[66, 41]),
   midi.NoteOnEvent(tick=24, channel=0, data=[64, 0]),
   midi.NoteOnEvent(tick=216, channel=0, data=[57, 0]),
   midi.NoteOnEvent(tick=0, channel=0, data=[59, 40]),
   midi.NoteOnEvent(tick=0, channel=0, data=[67, 44]),
   midi.NoteOnEvent(tick=24, channel=0, data=[66, 0]),
   midi.NoteOnEvent(tick=216, channel=0, data=[69, 41]),
   midi.NoteOnEvent(tick=24, channel=0, data=[67, 0]),
   midi.NoteOnEvent(tick=216, channel=0, data=[67, 41]),
   midi.NoteOnEvent(tick=24, channel=0, data=[69, 0]),
   midi.NoteOnEvent(tick=216, channel=0, data=[66, 39]),
   midi.NoteOnEvent(tick=24, channel=0, data=[67, 0]),
   midi.NoteOnEvent(tick=216, channel=0, data=[59, 0]),
   midi.NoteOnEvent(tick=0, channel=0, data=[59, 40]),
   midi.NoteOnEvent(tick=0, channel=0, data=[67, 41]),
   midi.NoteOnEvent(tick=24, channel=0, data=[66, 0]),
   midi.NoteOnEvent(tick=216, channel=0, data=[66, 44]),
   midi.NoteOnEvent(tick=24, channel=0, data=[67, 0]),
   midi.NoteOnEvent(tick=216, channel=0, data=[59, 0]),
   midi.NoteOnEvent(tick=0, channel=0, data=[60, 46]),
   midi.NoteOnEvent(tick=0, channel=0, data=[64, 46]),
   midi.NoteOnEvent(tick=24, channel=0, data=[66, 0]),
   midi.NoteOnEvent(tick=216, channel=0, data=[59, 43]),
   midi.NoteOnEvent(tick=24, channel=0, data=[60, 0]),
   midi.NoteOnEvent(tick=216, channel=0, data=[57, 42]),
   midi.NoteOnEvent(tick=24, channel=0, data=[59, 0]),
   midi.NoteOnEvent(tick=216, channel=0, data=[55, 41]),
   midi.NoteOnEvent(tick=24, channel=0, data=[57, 0]),
   midi.NoteOnEvent(tick=216, channel=0, data=[55, 0]),
   midi.NoteOnEvent(tick=0, channel=0, data=[64, 0]),
   midi.NoteOnEvent(tick=0, channel=0, data=[55, 44]),
   midi.NoteOnEvent(tick=0, channel=0, data=[62, 44]),
   midi.NoteOnEvent(tick=240, channel=0, data=[54, 43]),
   midi.NoteOnEvent(tick=24, channel=0, data=[55, 0]),
   midi.NoteOnEvent(tick=216, channel=0, data=[55, 43]),
   midi.NoteOnEvent(tick=24, channel=0, data=[54, 0]),
   midi.NoteOnEvent(tick=216, channel=0, data=[54, 42]),
   midi.NoteOnEvent(tick=24, channel=0, data=[55, 0]),
   midi.NoteOnEvent(tick=216, channel=0, data=[62, 0]),
   midi.NoteOnEvent(tick=0, channel=0, data=[52, 41]),
   midi.NoteOnEvent(tick=0, channel=0, data=[60, 41]),
   midi.NoteOnEvent(tick=24, channel=0, data=[54, 0]),
   midi.NoteOnEvent(tick=216, channel=0, data=[54, 40]),
   midi.NoteOnEvent(tick=24, channel=0, data=[52, 0]),
   midi.NoteOnEvent(tick=216, channel=0, data=[60, 0]),
   midi.NoteOnEvent(tick=0, channel=0, data=[55, 41]),
   midi.NoteOnEvent(tick=0, channel=0, data=[59, 41]),
   midi.NoteOnEvent(tick=24, channel=0, data=[54, 0]),
   midi.NoteOnEvent(tick=216, channel=0, data=[50, 41]),
   midi.NoteOnEvent(tick=24, channel=0, data=[55, 0]),
   midi.NoteOnEvent(tick=216, channel=0, data=[50, 0]),
   midi.NoteOnEvent(tick=0, channel=0, data=[59, 0]),
   midi.NoteOnEvent(tick=0, channel=0, data=[55, 36]),
   midi.NoteOnEvent(tick=0, channel=0, data=[50, 36]),
   midi.NoteOnEvent(tick=0, channel=0, data=[57, 36]),
   midi.NoteOnEvent(tick=240, channel=0, data=[55, 0]),
   midi.NoteOnEvent(tick=0, channel=0, data=[54, 35]),
   midi.NoteOnEvent(tick=240, channel=0, data=[52, 34]),
   midi.NoteOnEvent(tick=24, channel=0, data=[54, 0]),
   midi.NoteOnEvent(tick=216, channel=0, data=[50, 32]),
   midi.NoteOnEvent(tick=24, channel=0, data=[52, 0]),
   midi.ControlChangeEvent(tick=209, channel=0, data=[64, 127]),
   midi.NoteOnEvent(tick=7, channel=0, data=[50, 0]),
   midi.NoteOnEvent(tick=0, channel=0, data=[50, 0]),
   midi.NoteOnEvent(tick=0, channel=0, data=[50, 40]),
   midi.NoteOnEvent(tick=0, channel=0, data=[57, 40]),
   midi.NoteOnEvent(tick=96, channel=0, data=[57, 0]),
   midi.NoteOnEvent(tick=144, channel=0, data=[50, 0]),
   midi.NoteOnEvent(tick=0, channel=0, data=[51, 43]),
   midi.NoteOnEvent(tick=240, channel=0, data=[51, 0]),
   midi.NoteOnEvent(tick=0, channel=0, data=[57, 0]),
   midi.NoteOnEvent(tick=0, channel=0, data=[52, 44]),
   midi.NoteOnEvent(tick=0, channel=0, data=[57, 44]),
   midi.ControlChangeEvent(tick=13, channel=0, data=[64, 0]),
   midi.NoteOnEvent(tick=47, channel=0, data=[57, 0]),
   midi.NoteOnEvent(tick=0, channel=0, data=[52, 0]),
   midi.NoteOnEvent(tick=300, channel=0, data=[51, 38]),
   midi.NoteOnEvent(tick=0, channel=0, data=[57, 38]),
   midi.NoteOnEvent(tick=60, channel=0, data=[57, 0]),
   midi.NoteOnEvent(tick=0, channel=0, data=[51, 0]),
   midi.NoteOnEvent(tick=60, channel=0, data=[52, 40]),
   midi.NoteOnEvent(tick=0, channel=0, data=[57, 40]),
   midi.NoteOnEvent(tick=240, channel=0, data=[57, 0]),
   midi.NoteOnEvent(tick=0, channel=0, data=[52, 0]),
   midi.NoteOnEvent(tick=240, channel=0, data=[55, 44]),
   midi.NoteOnEvent(tick=0, channel=0, data=[57, 44]),
   midi.ControlChangeEvent(tick=23, channel=0, data=[64, 127]),
   midi.NoteOnEvent(tick=457, channel=0, data=[57, 0]),
   midi.NoteOnEvent(tick=0, channel=0, data=[55, 0]),
   midi.NoteOnEvent(tick=0, channel=0, data=[54, 44]),
   midi.NoteOnEvent(tick=0, channel=0, data=[57, 44]),
   midi.ControlChangeEvent(tick=20, channel=0, data=[64, 0]),
   midi.NoteOnEvent(tick=40, channel=0, data=[57, 0]),
   midi.NoteOnEvent(tick=0, channel=0, data=[54, 0]),
   midi.NoteOnEvent(tick=300, channel=0, data=[53, 39]),
   midi.NoteOnEvent(tick=0, channel=0, data=[57, 39]),
   midi.NoteOnEvent(tick=60, channel=0, data=[57, 0]),
   midi.NoteOnEvent(tick=0, channel=0, data=[53, 0]),
   midi.NoteOnEvent(tick=60, channel=0, data=[54, 43]),
   midi.NoteOnEvent(tick=0, channel=0, data=[57, 43]),
   midi.NoteOnEvent(tick=240, channel=0, data=[57, 0]),
   midi.NoteOnEvent(tick=0, channel=0, data=[54, 0]),
   midi.NoteOnEvent(tick=240, channel=0, data=[54, 44]),
   midi.NoteOnEvent(tick=0, channel=0, data=[57, 44]),
   midi.ControlChangeEvent(tick=29, channel=0, data=[64, 127]),
   midi.NoteOnEvent(tick=451, channel=0, data=[57, 0]),
   midi.NoteOnEvent(tick=0, channel=0, data=[54, 0]),
   midi.NoteOnEvent(tick=0, channel=0, data=[52, 44]),
   midi.NoteOnEvent(tick=0, channel=0, data=[57, 44]),
   midi.ControlChangeEvent(tick=20, channel=0, data=[64, 0]),
   midi.NoteOnEvent(tick=40, channel=0, data=[57, 0]),
   midi.NoteOnEvent(tick=0, channel=0, data=[52, 0]),
   midi.NoteOnEvent(tick=300, channel=0, data=[50, 40]),
   midi.NoteOnEvent(tick=0, channel=0, data=[57, 40]),
   midi.NoteOnEvent(tick=60, channel=0, data=[57, 0]),
   midi.NoteOnEvent(tick=0, channel=0, data=[50, 0]),
   midi.NoteOnEvent(tick=60, channel=0, data=[49, 44]),
   midi.NoteOnEvent(tick=0, channel=0, data=[57, 44]),
   midi.NoteOnEvent(tick=240, channel=0, data=[57, 0]),
   midi.NoteOnEvent(tick=0, channel=0, data=[49, 0]),
   midi.ControlChangeEvent(tick=240, channel=0, data=[64, 127]),
   midi.NoteOnEvent(tick=0, channel=0, data=[45, 48]),
   midi.NoteOnEvent(tick=0, channel=0, data=[57, 48]),
   midi.NoteOnEvent(tick=240, channel=0, data=[45, 0]),
   midi.NoteOnEvent(tick=0, channel=0, data=[49, 48]),
   midi.NoteOnEvent(tick=240, channel=0, data=[49, 0]),
   midi.NoteOnEvent(tick=0, channel=0, data=[57, 0]),
   midi.NoteOnEvent(tick=0, channel=0, data=[50, 46]),
   midi.NoteOnEvent(tick=0, channel=0, data=[57, 46]),
   midi.ControlChangeEvent(tick=19, channel=0, data=[64, 0]),
   midi.NoteOnEvent(tick=41, channel=0, data=[57, 0]),
   midi.NoteOnEvent(tick=0, channel=0, data=[50, 0]),
   midi.NoteOnEvent(tick=300, channel=0, data=[52, 41]),
   midi.NoteOnEvent(tick=0, channel=0, data=[57, 41]),
   midi.NoteOnEvent(tick=60, channel=0, data=[57, 0]),
   midi.NoteOnEvent(tick=0, channel=0, data=[52, 0]),
   midi.NoteOnEvent(tick=60, channel=0, data=[54, 41]),
   midi.NoteOnEvent(tick=0, channel=0, data=[57, 41]),
   midi.NoteOnEvent(tick=240, channel=0, data=[57, 0]),
   midi.NoteOnEvent(tick=0, channel=0, data=[54, 0]),
   midi.NoteOnEvent(tick=240, channel=0, data=[50, 55]),
   midi.NoteOnEvent(tick=0, channel=0, data=[57, 55]),
   midi.ControlChangeEvent(tick=21, channel=0, data=[64, 127]),
   midi.NoteOnEvent(tick=459, channel=0, data=[57, 0]),
   midi.NoteOnEvent(tick=0, channel=0, data=[50, 0]),
   midi.NoteOnEvent(tick=0, channel=0, data=[52, 56]),
   midi.NoteOnEvent(tick=0, channel=0, data=[57, 56]),
   midi.ControlChangeEvent(tick=17, channel=0, data=[64, 0]),
   midi.NoteOnEvent(tick=73, channel=0, data=[57, 0]),
   midi.NoteOnEvent(tick=0, channel=0, data=[52, 0]),
   midi.NoteOnEvent(tick=270, channel=0, data=[51, 47]),
   midi.NoteOnEvent(tick=0, channel=0, data=[57, 47]),
   midi.NoteOnEvent(tick=60, channel=0, data=[57, 0]),
   midi.NoteOnEvent(tick=0, channel=0, data=[51, 0]),
   midi.NoteOnEvent(tick=60, channel=0, data=[52, 50]),
   midi.NoteOnEvent(tick=0, channel=0, data=[57, 50]),
   midi.NoteOnEvent(tick=240, channel=0, data=[57, 0]),
   midi.NoteOnEvent(tick=0, channel=0, data=[52, 0]),
   midi.NoteOnEvent(tick=240, channel=0, data=[57, 52]),
   midi.NoteOnEvent(tick=0, channel=0, data=[55, 52]),
   midi.ControlChangeEvent(tick=11, channel=0, data=[64, 127]),
   midi.NoteOnEvent(tick=469, channel=0, data=[55, 0]),
   midi.NoteOnEvent(tick=0, channel=0, data=[57, 0]),
   midi.ControlChangeEvent(tick=0, channel=0, data=[64, 0]),
   midi.NoteOnEvent(tick=0, channel=0, data=[57, 45]),
   midi.NoteOnEvent(tick=0, channel=0, data=[54, 45]),
   midi.NoteOnEvent(tick=240, channel=0, data=[59, 45]),
   midi.NoteOnEvent(tick=24, channel=0, data=[57, 0]),
   midi.NoteOnEvent(tick=216, channel=0, data=[61, 46]),
   midi.NoteOnEvent(tick=24, channel=0, data=[59, 0]),
   midi.NoteOnEvent(tick=216, channel=0, data=[62, 47]),
   midi.NoteOnEvent(tick=24, channel=0, data=[61, 0]),
   midi.NoteOnEvent(tick=216, channel=0, data=[62, 0]),
   midi.NoteOnEvent(tick=0, channel=0, data=[54, 0]),
   midi.NoteOnEvent(tick=0, channel=0, data=[55, 48]),
   midi.NoteOnEvent(tick=0, channel=0, data=[62, 48]),
   midi.NoteOnEvent(tick=240, channel=0, data=[64, 49]),
   midi.NoteOnEvent(tick=24, channel=0, data=[62, 0]),
   midi.NoteOnEvent(tick=216, channel=0, data=[55, 0]),
   midi.NoteOnEvent(tick=0, channel=0, data=[57, 50]),
   midi.NoteOnEvent(tick=0, channel=0, data=[66, 50]),
   midi.NoteOnEvent(tick=24, channel=0, data=[64, 0]),
   midi.NoteOnEvent(tick=216, channel=0, data=[67, 47]),
   midi.NoteOnEvent(tick=24, channel=0, data=[66, 0]),
   midi.NoteOnEvent(tick=240, channel=0, data=[67, 0]),
   midi.NoteOnEvent(tick=456, channel=0, data=[67, 41]),
   midi.NoteOnEvent(tick=480, channel=0, data=[57, 0]),
   midi.NoteOnEvent(tick=0, channel=0, data=[62, 43]),
   midi.ControlChangeEvent(tick=120, channel=0, data=[64, 127]),
   midi.NoteOnEvent(tick=360, channel=0, data=[67, 0]),
   midi.NoteOnEvent(tick=0, channel=0, data=[66, 35]),
   midi.ControlChangeEvent(tick=21, channel=0, data=[64, 0]),
   midi.NoteOnEvent(tick=339, channel=0, data=[66, 0]),
   midi.NoteOnEvent(tick=120, channel=0, data=[62, 0]),
   midi.NoteOnEvent(tick=0, channel=0, data=[57, 41]),
   midi.NoteOnEvent(tick=0, channel=0, data=[64, 41]),
   midi.NoteOnEvent(tick=240, channel=0, data=[66, 41]),
   midi.NoteOnEvent(tick=24, channel=0, data=[64, 0]),
   midi.NoteOnEvent(tick=216, channel=0, data=[57, 0]),
   midi.NoteOnEvent(tick=0, channel=0, data=[59, 40]),
   midi.NoteOnEvent(tick=0, channel=0, data=[67, 44]),
   midi.NoteOnEvent(tick=24, channel=0, data=[66, 0]),
   midi.NoteOnEvent(tick=216, channel=0, data=[69, 41]),
   midi.NoteOnEvent(tick=24, channel=0, data=[67, 0]),
   midi.NoteOnEvent(tick=216, channel=0, data=[67, 41]),
   midi.NoteOnEvent(tick=24, channel=0, data=[69, 0]),
   midi.NoteOnEvent(tick=216, channel=0, data=[66, 39]),
   midi.NoteOnEvent(tick=24, channel=0, data=[67, 0]),
   midi.NoteOnEvent(tick=216, channel=0, data=[59, 0]),
   midi.NoteOnEvent(tick=0, channel=0, data=[59, 40]),
   midi.NoteOnEvent(tick=0, channel=0, data=[67, 41]),
   midi.NoteOnEvent(tick=24, channel=0, data=[66, 0]),
   midi.NoteOnEvent(tick=216, channel=0, data=[66, 44]),
   midi.NoteOnEvent(tick=24, channel=0, data=[67, 0]),
   midi.NoteOnEvent(tick=216, channel=0, data=[59, 0]),
   midi.NoteOnEvent(tick=0, channel=0, data=[60, 46]),
   midi.NoteOnEvent(tick=0, channel=0, data=[64, 46]),
   midi.NoteOnEvent(tick=24, channel=0, data=[66, 0]),
   midi.NoteOnEvent(tick=216, channel=0, data=[59, 43]),
   midi.NoteOnEvent(tick=24, channel=0, data=[60, 0]),
   midi.NoteOnEvent(tick=216, channel=0, data=[57, 42]),
   midi.NoteOnEvent(tick=24, channel=0, data=[59, 0]),
   midi.NoteOnEvent(tick=216, channel=0, data=[55, 41]),
   midi.NoteOnEvent(tick=24, channel=0, data=[57, 0]),
   midi.NoteOnEvent(tick=216, channel=0, data=[55, 0]),
   midi.NoteOnEvent(tick=0, channel=0, data=[64, 0]),
   midi.NoteOnEvent(tick=0, channel=0, data=[55, 44]),
   midi.NoteOnEvent(tick=0, channel=0, data=[62, 44]),
   midi.NoteOnEvent(tick=240, channel=0, data=[54, 43]),
   midi.NoteOnEvent(tick=24, channel=0, data=[55, 0]),
   midi.NoteOnEvent(tick=216, channel=0, data=[55, 43]),
   midi.NoteOnEvent(tick=24, channel=0, data=[54, 0]),
   midi.NoteOnEvent(tick=216, channel=0, data=[54, 42]),
   midi.NoteOnEvent(tick=24, channel=0, data=[55, 0]),
   midi.NoteOnEvent(tick=216, channel=0, data=[62, 0]),
   midi.NoteOnEvent(tick=0, channel=0, data=[52, 41]),
   midi.NoteOnEvent(tick=0, channel=0, data=[60, 41]),
   midi.NoteOnEvent(tick=24, channel=0, data=[54, 0]),
   midi.NoteOnEvent(tick=216, channel=0, data=[54, 40]),
   midi.NoteOnEvent(tick=24, channel=0, data=[52, 0]),
   midi.NoteOnEvent(tick=216, channel=0, data=[60, 0]),
   midi.NoteOnEvent(tick=0, channel=0, data=[55, 41]),
   midi.NoteOnEvent(tick=0, channel=0, data=[59, 41]),
   midi.NoteOnEvent(tick=24, channel=0, data=[54, 0]),
   midi.NoteOnEvent(tick=216, channel=0, data=[50, 41]),
   midi.NoteOnEvent(tick=24, channel=0, data=[55, 0]),
   midi.NoteOnEvent(tick=216, channel=0, data=[50, 0]),
   midi.NoteOnEvent(tick=0, channel=0, data=[59, 0]),
   midi.NoteOnEvent(tick=0, channel=0, data=[55, 36]),
   midi.NoteOnEvent(tick=0, channel=0, data=[50, 36]),
   midi.NoteOnEvent(tick=0, channel=0, data=[57, 36]),
   midi.NoteOnEvent(tick=240, channel=0, data=[55, 0]),
   midi.NoteOnEvent(tick=0, channel=0, data=[54, 35]),
   midi.NoteOnEvent(tick=240, channel=0, data=[52, 34]),
   midi.NoteOnEvent(tick=24, channel=0, data=[54, 0]),
   midi.NoteOnEvent(tick=216, channel=0, data=[50, 32]),
   midi.NoteOnEvent(tick=24, channel=0, data=[52, 0]),
   midi.NoteOnEvent(tick=216, channel=0, data=[50, 0]),
   midi.NoteOnEvent(tick=0, channel=0, data=[50, 0]),
   midi.NoteOnEvent(tick=0, channel=0, data=[50, 40]),
   midi.NoteOnEvent(tick=0, channel=0, data=[57, 40]),
   midi.ControlChangeEvent(tick=14, channel=0, data=[64, 127]),
   midi.NoteOnEvent(tick=82, channel=0, data=[57, 0]),
   midi.NoteOnEvent(tick=144, channel=0, data=[50, 0]),
   midi.NoteOnEvent(tick=0, channel=0, data=[51, 43]),
   midi.NoteOnEvent(tick=240, channel=0, data=[51, 0]),
   midi.NoteOnEvent(tick=0, channel=0, data=[57, 0]),
   midi.NoteOnEvent(tick=0, channel=0, data=[52, 44]),
   midi.NoteOnEvent(tick=0, channel=0, data=[57, 44]),
   midi.ControlChangeEvent(tick=12, channel=0, data=[64, 0]),
   midi.NoteOnEvent(tick=48, channel=0, data=[57, 0]),
   midi.NoteOnEvent(tick=0, channel=0, data=[52, 0]),
   midi.NoteOnEvent(tick=300, channel=0, data=[51, 39]),
   midi.NoteOnEvent(tick=0, channel=0, data=[57, 39]),
   midi.NoteOnEvent(tick=60, channel=0, data=[57, 0]),
   midi.NoteOnEvent(tick=0, channel=0, data=[51, 0]),
   midi.NoteOnEvent(tick=60, channel=0, data=[52, 43]),
   midi.NoteOnEvent(tick=0, channel=0, data=[57, 43]),
   midi.NoteOnEvent(tick=240, channel=0, data=[57, 0]),
   midi.NoteOnEvent(tick=0, channel=0, data=[52, 0]),
   midi.NoteOnEvent(tick=240, channel=0, data=[55, 44]),
   midi.NoteOnEvent(tick=0, channel=0, data=[57, 44]),
   midi.ControlChangeEvent(tick=40, channel=0, data=[64, 127]),
   midi.NoteOnEvent(tick=440, channel=0, data=[57, 0]),
   midi.NoteOnEvent(tick=0, channel=0, data=[55, 0]),
   midi.NoteOnEvent(tick=0, channel=0, data=[54, 44]),
   midi.NoteOnEvent(tick=0, channel=0, data=[57, 44]),
   midi.ControlChangeEvent(tick=13, channel=0, data=[64, 0]),
   midi.NoteOnEvent(tick=47, channel=0, data=[57, 0]),
   midi.NoteOnEvent(tick=0, channel=0, data=[54, 0]),
   midi.NoteOnEvent(tick=300, channel=0, data=[53, 38]),
   midi.NoteOnEvent(tick=0, channel=0, data=[57, 38]),
   midi.NoteOnEvent(tick=60, channel=0, data=[57, 0]),
   midi.NoteOnEvent(tick=0, channel=0, data=[53, 0]),
   midi.NoteOnEvent(tick=60, channel=0, data=[54, 43]),
   midi.NoteOnEvent(tick=0, channel=0, data=[57, 43]),
   midi.NoteOnEvent(tick=240, channel=0, data=[57, 0]),
   midi.NoteOnEvent(tick=0, channel=0, data=[54, 0]),
   midi.NoteOnEvent(tick=240, channel=0, data=[54, 44]),
   midi.NoteOnEvent(tick=0, channel=0, data=[57, 44]),
   midi.ControlChangeEvent(tick=11, channel=0, data=[64, 127]),
   midi.NoteOnEvent(tick=469, channel=0, data=[57, 0]),
   midi.NoteOnEvent(tick=0, channel=0, data=[54, 0]),
   midi.NoteOnEvent(tick=0, channel=0, data=[52, 44]),
   midi.NoteOnEvent(tick=0, channel=0, data=[57, 44]),
   midi.ControlChangeEvent(tick=12, channel=0, data=[64, 0]),
   midi.NoteOnEvent(tick=48, channel=0, data=[57, 0]),
   midi.NoteOnEvent(tick=0, channel=0, data=[52, 0]),
   midi.NoteOnEvent(tick=300, channel=0, data=[50, 41]),
   midi.NoteOnEvent(tick=0, channel=0, data=[57, 41]),
   midi.NoteOnEvent(tick=60, channel=0, data=[57, 0]),
   midi.NoteOnEvent(tick=0, channel=0, data=[50, 0]),
   midi.NoteOnEvent(tick=60, channel=0, data=[49, 44]),
   midi.NoteOnEvent(tick=0, channel=0, data=[57, 44]),
   midi.NoteOnEvent(tick=240, channel=0, data=[57, 0]),
   midi.NoteOnEvent(tick=0, channel=0, data=[49, 0]),
   midi.NoteOnEvent(tick=240, channel=0, data=[45, 48]),
   midi.NoteOnEvent(tick=0, channel=0, data=[57, 48]),
   midi.ControlChangeEvent(tick=21, channel=0, data=[64, 127]),
   midi.NoteOnEvent(tick=219, channel=0, data=[45, 0]),
   midi.NoteOnEvent(tick=0, channel=0, data=[49, 48]),
   midi.NoteOnEvent(tick=240, channel=0, data=[49, 0]),
   midi.NoteOnEvent(tick=0, channel=0, data=[57, 0]),
   midi.NoteOnEvent(tick=0, channel=0, data=[50, 46]),
   midi.NoteOnEvent(tick=0, channel=0, data=[57, 46]),
   midi.ControlChangeEvent(tick=16, channel=0, data=[64, 0]),
   midi.NoteOnEvent(tick=44, channel=0, data=[57, 0]),
   midi.NoteOnEvent(tick=0, channel=0, data=[50, 0]),
   midi.NoteOnEvent(tick=300, channel=0, data=[52, 42]),
   midi.NoteOnEvent(tick=0, channel=0, data=[57, 42]),
   midi.NoteOnEvent(tick=60, channel=0, data=[57, 0]),
   midi.NoteOnEvent(tick=0, channel=0, data=[52, 0]),
   midi.NoteOnEvent(tick=60, channel=0, data=[54, 42]),
   midi.NoteOnEvent(tick=0, channel=0, data=[57, 42]),
   midi.NoteOnEvent(tick=240, channel=0, data=[57, 0]),
   midi.NoteOnEvent(tick=0, channel=0, data=[54, 0]),
   midi.NoteOnEvent(tick=240, channel=0, data=[50, 55]),
   midi.NoteOnEvent(tick=0, channel=0, data=[57, 55]),
   midi.ControlChangeEvent(tick=21, channel=0, data=[64, 127]),
   midi.NoteOnEvent(tick=459, channel=0, data=[57, 0]),
   midi.NoteOnEvent(tick=0, channel=0, data=[50, 0]),
   midi.NoteOnEvent(tick=0, channel=0, data=[52, 56]),
   midi.NoteOnEvent(tick=0, channel=0, data=[57, 56]),
   midi.ControlChangeEvent(tick=17, channel=0, data=[64, 0]),
   midi.NoteOnEvent(tick=73, channel=0, data=[57, 0]),
   midi.NoteOnEvent(tick=0, channel=0, data=[52, 0]),
   midi.NoteOnEvent(tick=270, channel=0, data=[51, 47]),
   midi.NoteOnEvent(tick=0, channel=0, data=[57, 47]),
   midi.NoteOnEvent(tick=60, channel=0, data=[57, 0]),
   midi.NoteOnEvent(tick=0, channel=0, data=[51, 0]),
   midi.NoteOnEvent(tick=60, channel=0, data=[52, 52]),
   midi.NoteOnEvent(tick=0, channel=0, data=[57, 52]),
   midi.NoteOnEvent(tick=240, channel=0, data=[57, 0]),
   midi.NoteOnEvent(tick=0, channel=0, data=[52, 0]),
   midi.NoteOnEvent(tick=240, channel=0, data=[57, 52]),
   midi.NoteOnEvent(tick=0, channel=0, data=[55, 52]),
   midi.NoteOnEvent(tick=480, channel=0, data=[55, 0]),
   midi.NoteOnEvent(tick=0, channel=0, data=[57, 0]),
   midi.NoteOnEvent(tick=0, channel=0, data=[57, 45]),
   midi.NoteOnEvent(tick=0, channel=0, data=[54, 45]),
   midi.NoteOnEvent(tick=240, channel=0, data=[59, 45]),
   midi.NoteOnEvent(tick=24, channel=0, data=[57, 0]),
   midi.NoteOnEvent(tick=216, channel=0, data=[61, 46]),
   midi.NoteOnEvent(tick=24, channel=0, data=[59, 0]),
   midi.NoteOnEvent(tick=216, channel=0, data=[62, 47]),
   midi.NoteOnEvent(tick=24, channel=0, data=[61, 0]),
   midi.NoteOnEvent(tick=216, channel=0, data=[62, 0]),
   midi.NoteOnEvent(tick=0, channel=0, data=[54, 0]),
   midi.NoteOnEvent(tick=0, channel=0, data=[55, 48]),
   midi.NoteOnEvent(tick=0, channel=0, data=[62, 48]),
   midi.NoteOnEvent(tick=240, channel=0, data=[64, 49]),
   midi.NoteOnEvent(tick=24, channel=0, data=[62, 0]),
   midi.NoteOnEvent(tick=216, channel=0, data=[55, 0]),
   midi.NoteOnEvent(tick=0, channel=0, data=[57, 50]),
   midi.NoteOnEvent(tick=0, channel=0, data=[66, 50]),
   midi.NoteOnEvent(tick=24, channel=0, data=[64, 0]),
   midi.NoteOnEvent(tick=216, channel=0, data=[67, 47]),
   midi.NoteOnEvent(tick=24, channel=0, data=[66, 0]),
   midi.NoteOnEvent(tick=240, channel=0, data=[67, 0]),
   midi.NoteOnEvent(tick=456, channel=0, data=[67, 41]),
   midi.NoteOnEvent(tick=480, channel=0, data=[57, 0]),
   midi.NoteOnEvent(tick=0, channel=0, data=[62, 43]),
   midi.ControlChangeEvent(tick=120, channel=0, data=[64, 127]),
   midi.ControlChangeEvent(tick=333, channel=0, data=[64, 0]),
   midi.NoteOnEvent(tick=27, channel=0, data=[67, 0]),
   midi.NoteOnEvent(tick=0, channel=0, data=[66, 35]),
   midi.NoteOnEvent(tick=480, channel=0, data=[66, 0]),
   midi.NoteOnEvent(tick=0, channel=0, data=[62, 0]),
   midi.EndOfTrackEvent(tick=0, data=[])]),
 midi.Track(\
  [midi.TrackNameEvent(tick=0, text='Schumann: Scenes from Childhood Op. 15', data=[83, 99, 104, 117, 109, 97, 110, 110, 58, 32, 83, 99, 101, 110, 101, 115, 32, 102, 114, 111, 109, 32, 67, 104, 105, 108, 100, 104, 111, 111, 100, 32, 79, 112, 46, 32, 49, 53]),
   midi.EndOfTrackEvent(tick=0, data=[])]),
 midi.Track(\
  [midi.TrackNameEvent(tick=0, text='Copyright © 1997 by Bernd Krueger', data=[67, 111, 112, 121, 114, 105, 103, 104, 116, 32, 169, 32, 49, 57, 57, 55, 32, 98, 121, 32, 66, 101, 114, 110, 100, 32, 75, 114, 117, 101, 103, 101, 114]),
   midi.EndOfTrackEvent(tick=0, data=[])]),
 midi.Track(\
  [midi.TrackNameEvent(tick=0, text='http://www.piano-midi.de', data=[104, 116, 116, 112, 58, 47, 47, 119, 119, 119, 46, 112, 105, 97, 110, 111, 45, 109, 105, 100, 105, 46, 100, 101]),
   midi.EndOfTrackEvent(tick=0, data=[])]),
 midi.Track(\
  [midi.TrackNameEvent(tick=0, text='Edition:2014-03-26', data=[69, 100, 105, 116, 105, 111, 110, 58, 50, 48, 49, 52, 45, 48, 51, 45, 50, 54]),
   midi.EndOfTrackEvent(tick=0, data=[])])])
