import midi
pattern=midi.Pattern(format=1, resolution=480, tracks=\
[midi.Track(\
[   midi.NoteOnEvent(tick=4, channel=0, data=[83, 103]),
   midi.NoteOnEvent(tick=0, channel=0, data=[79, 94]),
   midi.NoteOnEvent(tick=0, channel=0, data=[77, 94]),
   midi.NoteOnEvent(tick=0, channel=0, data=[74, 94]),
   midi.NoteOnEvent(tick=0, channel=0, data=[71, 94]),
   midi.NoteOnEvent(tick=960, channel=0, data=[71, 0]),
   midi.NoteOnEvent(tick=0, channel=0, data=[77, 0]),
   midi.NoteOnEvent(tick=0, channel=0, data=[83, 0]),
   midi.NoteOnEvent(tick=0, channel=0, data=[79, 0]),
   midi.NoteOnEvent(tick=0, channel=0, data=[74, 0]),
   midi.NoteOnEvent(tick=2396, channel=0, data=[80, 102]),
   midi.NoteOnEvent(tick=0, channel=0, data=[75, 93]),
   midi.NoteOnEvent(tick=0, channel=0, data=[77, 93]),
   midi.NoteOnEvent(tick=0, channel=0, data=[68, 93]),
   midi.NoteOnEvent(tick=360, channel=0, data=[68, 0]),
   midi.NoteOnEvent(tick=0, channel=0, data=[80, 0]),
   midi.NoteOnEvent(tick=0, channel=0, data=[75, 0]),
   midi.NoteOnEvent(tick=0, channel=0, data=[77, 0]),
   midi.NoteOnEvent(tick=0, channel=0, data=[67, 87]),
   midi.NoteOnEvent(tick=0, channel=0, data=[79, 95]),
   midi.NoteOnEvent(tick=120, channel=0, data=[79, 0]),
   midi.NoteOnEvent(tick=0, channel=0, data=[67, 0]),
   midi.NoteOnEvent(tick=0, channel=0, data=[86, 106]),
   midi.NoteOnEvent(tick=0, channel=0, data=[77, 96]),
   midi.NoteOnEvent(tick=0, channel=0, data=[79, 96]),
   midi.NoteOnEvent(tick=0, channel=0, data=[74, 96]),
   midi.NoteOnEvent(tick=960, channel=0, data=[74, 0]),
   midi.NoteOnEvent(tick=0, channel=0, data=[86, 0]),
   midi.NoteOnEvent(tick=0, channel=0, data=[77, 0]),
   midi.NoteOnEvent(tick=0, channel=0, data=[79, 0]),
   midi.NoteOnEvent(tick=2400, channel=0, data=[80, 101]),
   midi.NoteOnEvent(tick=0, channel=0, data=[75, 92]),
   midi.NoteOnEvent(tick=0, channel=0, data=[77, 92]),
   midi.NoteOnEvent(tick=0, channel=0, data=[68, 92]),
   midi.NoteOnEvent(tick=360, channel=0, data=[68, 0]),
   midi.NoteOnEvent(tick=0, channel=0, data=[80, 0]),
   midi.NoteOnEvent(tick=0, channel=0, data=[75, 0]),
   midi.NoteOnEvent(tick=0, channel=0, data=[77, 0]),
   midi.NoteOnEvent(tick=0, channel=0, data=[67, 88]),
   midi.NoteOnEvent(tick=0, channel=0, data=[79, 95]),
   midi.NoteOnEvent(tick=120, channel=0, data=[79, 0]),
   midi.NoteOnEvent(tick=0, channel=0, data=[67, 0]),
   midi.NoteOnEvent(tick=0, channel=0, data=[77, 96]),
   midi.NoteOnEvent(tick=0, channel=0, data=[89, 106]),
   midi.NoteOnEvent(tick=0, channel=0, data=[79, 96]),
   midi.NoteOnEvent(tick=0, channel=0, data=[86, 96]),
   midi.NoteOnEvent(tick=240, channel=0, data=[86, 0]),
   midi.NoteOnEvent(tick=0, channel=0, data=[77, 0]),
   midi.NoteOnEvent(tick=0, channel=0, data=[89, 0]),
   midi.NoteOnEvent(tick=0, channel=0, data=[79, 0]),
   midi.NoteOnEvent(tick=2, channel=0, data=[92, 87]),
   midi.NoteOnEvent(tick=113, channel=0, data=[91, 80]),
   midi.NoteOnEvent(tick=19, channel=0, data=[92, 0]),
   midi.NoteOnEvent(tick=101, channel=0, data=[89, 87]),
   midi.NoteOnEvent(tick=12, channel=0, data=[91, 0]),
   midi.NoteOnEvent(tick=118, channel=0, data=[86, 77]),
   midi.NoteOnEvent(tick=2, channel=0, data=[89, 0]),
   midi.NoteOnEvent(tick=111, channel=0, data=[87, 77]),
   midi.NoteOnEvent(tick=19, channel=0, data=[86, 0]),
   midi.NoteOnEvent(tick=101, channel=0, data=[86, 76]),
   midi.NoteOnEvent(tick=12, channel=0, data=[87, 0]),
   midi.NoteOnEvent(tick=111, channel=0, data=[83, 87]),
   midi.NoteOnEvent(tick=9, channel=0, data=[86, 0]),
   midi.NoteOnEvent(tick=112, channel=0, data=[79, 77]),
   midi.NoteOnEvent(tick=11, channel=0, data=[83, 0]),
   midi.NoteOnEvent(tick=111, channel=0, data=[80, 77]),
   midi.NoteOnEvent(tick=10, channel=0, data=[79, 0]),
   midi.NoteOnEvent(tick=108, channel=0, data=[79, 76]),
   midi.NoteOnEvent(tick=14, channel=0, data=[80, 0]),
   midi.NoteOnEvent(tick=104, channel=0, data=[77, 87]),
   midi.NoteOnEvent(tick=14, channel=0, data=[79, 0]),
   midi.NoteOnEvent(tick=103, channel=0, data=[74, 77]),
   midi.NoteOnEvent(tick=15, channel=0, data=[77, 0]),
   midi.NoteOnEvent(tick=111, channel=0, data=[75, 77]),
   midi.NoteOnEvent(tick=6, channel=0, data=[74, 0]),
   midi.NoteOnEvent(tick=111, channel=0, data=[74, 76]),
   midi.NoteOnEvent(tick=15, channel=0, data=[75, 0]),
   midi.NoteOnEvent(tick=105, channel=0, data=[71, 87]),
   midi.NoteOnEvent(tick=12, channel=0, data=[74, 0]),
   midi.NoteOnEvent(tick=113, channel=0, data=[67, 77]),
   midi.NoteOnEvent(tick=7, channel=0, data=[71, 0]),
   midi.NoteOnEvent(tick=111, channel=0, data=[68, 77]),
   midi.NoteOnEvent(tick=14, channel=0, data=[67, 0]),
   midi.NoteOnEvent(tick=99, channel=0, data=[67, 76]),
   midi.NoteOnEvent(tick=19, channel=0, data=[68, 0]),
   midi.NoteOnEvent(tick=106, channel=0, data=[65, 87]),
   midi.NoteOnEvent(tick=7, channel=0, data=[67, 0]),
   midi.NoteOnEvent(tick=111, channel=0, data=[62, 77]),
   midi.NoteOnEvent(tick=14, channel=0, data=[65, 0]),
   midi.NoteOnEvent(tick=110, channel=0, data=[63, 77]),
   midi.NoteOnEvent(tick=8, channel=0, data=[62, 0]),
   midi.NoteOnEvent(tick=110, channel=0, data=[62, 76]),
   midi.NoteOnEvent(tick=14, channel=0, data=[63, 0]),
   midi.NoteOnEvent(tick=106, channel=0, data=[59, 87]),
   midi.NoteOnEvent(tick=12, channel=0, data=[62, 0]),
   midi.NoteOnEvent(tick=105, channel=0, data=[55, 77]),
   midi.NoteOnEvent(tick=15, channel=0, data=[59, 0]),
   midi.NoteOnEvent(tick=103, channel=0, data=[56, 77]),
   midi.NoteOnEvent(tick=14, channel=0, data=[55, 0]),
   midi.NoteOnEvent(tick=107, channel=0, data=[55, 76]),
   midi.NoteOnEvent(tick=11, channel=0, data=[56, 0]),
   midi.NoteOnEvent(tick=111, channel=0, data=[53, 87]),
   midi.NoteOnEvent(tick=10, channel=0, data=[55, 0]),
   midi.NoteOnEvent(tick=114, channel=0, data=[50, 77]),
   midi.NoteOnEvent(tick=8, channel=0, data=[53, 0]),
   midi.NoteOnEvent(tick=109, channel=0, data=[51, 77]),
   midi.NoteOnEvent(tick=15, channel=0, data=[50, 0]),
   midi.NoteOnEvent(tick=110, channel=0, data=[50, 76]),
   midi.NoteOnEvent(tick=7, channel=0, data=[51, 0]),
   midi.NoteOnEvent(tick=111, channel=0, data=[48, 69]),
   midi.NoteOnEvent(tick=14, channel=0, data=[50, 0]),
   midi.NoteOnEvent(tick=101, channel=0, data=[47, 69]),
   midi.NoteOnEvent(tick=5, channel=0, data=[48, 0]),
   midi.NoteOnEvent(tick=113, channel=0, data=[55, 73]),
   midi.NoteOnEvent(tick=2, channel=0, data=[47, 0]),
   midi.NoteOnEvent(tick=118, channel=0, data=[55, 0]),
   midi.NoteOnEvent(tick=6, channel=0, data=[53, 72]),
   midi.NoteOnEvent(tick=118, channel=0, data=[51, 71]),
   midi.NoteOnEvent(tick=14, channel=0, data=[53, 0]),
   midi.NoteOnEvent(tick=101, channel=0, data=[50, 70]),
   midi.NoteOnEvent(tick=17, channel=0, data=[51, 0]),
   midi.NoteOnEvent(tick=110, channel=0, data=[51, 69]),
   midi.NoteOnEvent(tick=5, channel=0, data=[50, 0]),
   midi.NoteOnEvent(tick=113, channel=0, data=[50, 69]),
   midi.NoteOnEvent(tick=14, channel=0, data=[51, 0]),
   midi.NoteOnEvent(tick=102, channel=0, data=[48, 69]),
   midi.NoteOnEvent(tick=16, channel=0, data=[50, 0]),
   midi.NoteOnEvent(tick=113, channel=0, data=[47, 68]),
   midi.NoteOnEvent(tick=3, channel=0, data=[48, 0]),
   midi.NoteOnEvent(tick=108, channel=0, data=[58, 76]),
   midi.NoteOnEvent(tick=9, channel=0, data=[47, 0]),
   midi.NoteOnEvent(tick=119, channel=0, data=[56, 74]),
   midi.NoteOnEvent(tick=4, channel=0, data=[58, 0]),
   midi.NoteOnEvent(tick=114, channel=0, data=[55, 76]),
   midi.NoteOnEvent(tick=14, channel=0, data=[56, 0]),
   midi.NoteOnEvent(tick=102, channel=0, data=[53, 74]),
   midi.NoteOnEvent(tick=16, channel=0, data=[55, 0]),
   midi.NoteOnEvent(tick=105, channel=0, data=[55, 74]),
   midi.NoteOnEvent(tick=11, channel=0, data=[53, 0]),
   midi.NoteOnEvent(tick=105, channel=0, data=[53, 73]),
   midi.NoteOnEvent(tick=16, channel=0, data=[55, 0]),
   midi.NoteOnEvent(tick=114, channel=0, data=[51, 73]),
   midi.NoteOnEvent(tick=2, channel=0, data=[53, 0]),
   midi.NoteOnEvent(tick=115, channel=0, data=[50, 73]),
   midi.NoteOnEvent(tick=15, channel=0, data=[51, 0]),
   midi.NoteOnEvent(tick=99, channel=0, data=[63, 82]),
   midi.NoteOnEvent(tick=6, channel=0, data=[50, 0]),
   midi.NoteOnEvent(tick=122, channel=0, data=[62, 83]),
   midi.NoteOnEvent(tick=4, channel=0, data=[63, 0]),
   midi.NoteOnEvent(tick=116, channel=0, data=[60, 84]),
   midi.NoteOnEvent(tick=12, channel=0, data=[62, 0]),
   midi.NoteOnEvent(tick=105, channel=0, data=[59, 85]),
   midi.NoteOnEvent(tick=15, channel=0, data=[60, 0]),
   midi.NoteOnEvent(tick=101, channel=0, data=[60, 85]),
   midi.NoteOnEvent(tick=16, channel=0, data=[59, 0]),
   midi.NoteOnEvent(tick=103, channel=0, data=[59, 87]),
   midi.NoteOnEvent(tick=13, channel=0, data=[60, 0]),
   midi.NoteOnEvent(tick=114, channel=0, data=[56, 88]),
   midi.NoteOnEvent(tick=5, channel=0, data=[59, 0]),
   midi.NoteOnEvent(tick=112, channel=0, data=[55, 89]),
   midi.NoteOnEvent(tick=15, channel=0, data=[56, 0]),
   midi.NoteOnEvent(tick=101, channel=0, data=[56, 90]),
   midi.NoteOnEvent(tick=16, channel=0, data=[55, 0]),
   midi.NoteOnEvent(tick=108, channel=0, data=[55, 89]),
   midi.NoteOnEvent(tick=8, channel=0, data=[56, 0]),
   midi.NoteOnEvent(tick=115, channel=0, data=[53, 92]),
   midi.NoteOnEvent(tick=9, channel=0, data=[55, 0]),
   midi.NoteOnEvent(tick=107, channel=0, data=[51, 94]),
   midi.NoteOnEvent(tick=16, channel=0, data=[53, 0]),
   midi.NoteOnEvent(tick=103, channel=0, data=[53, 97]),
   midi.NoteOnEvent(tick=13, channel=0, data=[51, 0]),
   midi.NoteOnEvent(tick=110, channel=0, data=[51, 102]),
   midi.NoteOnEvent(tick=9, channel=0, data=[53, 0]),
   midi.NoteOnEvent(tick=107, channel=0, data=[48, 104]),
   midi.NoteOnEvent(tick=16, channel=0, data=[51, 0]),
   midi.NoteOnEvent(tick=224, channel=0, data=[48, 0]),
   midi.NoteOnEvent(tick=3003, channel=0, data=[84, 95]),
   midi.NoteOnEvent(tick=0, channel=0, data=[72, 87]),
   midi.NoteOnEvent(tick=120, channel=0, data=[74, 93]),
   midi.NoteOnEvent(tick=0, channel=0, data=[86, 102]),
   midi.NoteOnEvent(tick=10, channel=0, data=[72, 0]),
   midi.NoteOnEvent(tick=0, channel=0, data=[84, 0]),
   midi.NoteOnEvent(tick=350, channel=0, data=[75, 97]),
   midi.NoteOnEvent(tick=0, channel=0, data=[87, 107]),
   midi.NoteOnEvent(tick=10, channel=0, data=[74, 0]),
   midi.NoteOnEvent(tick=0, channel=0, data=[86, 0]),
   midi.NoteOnEvent(tick=110, channel=0, data=[75, 0]),
   midi.NoteOnEvent(tick=0, channel=0, data=[87, 0]),
   midi.NoteOnEvent(tick=0, channel=0, data=[75, 104]),
   midi.NoteOnEvent(tick=0, channel=0, data=[87, 114]),
   midi.NoteOnEvent(tick=960, channel=0, data=[87, 0]),
   midi.NoteOnEvent(tick=0, channel=0, data=[75, 0]),
   midi.NoteOnEvent(tick=360, channel=0, data=[72, 47]),
   midi.NoteOnEvent(tick=0, channel=0, data=[67, 47]),
   midi.NoteOnEvent(tick=0, channel=0, data=[75, 47]),
   midi.NoteOnEvent(tick=0, channel=0, data=[79, 47]),
   midi.NoteOnEvent(tick=120, channel=0, data=[79, 0]),
   midi.NoteOnEvent(tick=0, channel=0, data=[72, 0]),
   midi.NoteOnEvent(tick=0, channel=0, data=[67, 0]),
   midi.NoteOnEvent(tick=0, channel=0, data=[75, 0]),
   midi.NoteOnEvent(tick=0, channel=0, data=[67, 47]),
   midi.NoteOnEvent(tick=0, channel=0, data=[72, 47]),
   midi.NoteOnEvent(tick=0, channel=0, data=[75, 47]),
   midi.NoteOnEvent(tick=0, channel=0, data=[79, 47]),
   midi.NoteOnEvent(tick=360, channel=0, data=[79, 0]),
   midi.NoteOnEvent(tick=0, channel=0, data=[67, 0]),
   midi.NoteOnEvent(tick=0, channel=0, data=[72, 0]),
   midi.NoteOnEvent(tick=0, channel=0, data=[75, 0]),
   midi.NoteOnEvent(tick=0, channel=0, data=[67, 54]),
   midi.NoteOnEvent(tick=0, channel=0, data=[72, 54]),
   midi.NoteOnEvent(tick=0, channel=0, data=[75, 54]),
   midi.NoteOnEvent(tick=0, channel=0, data=[79, 54]),
   midi.NoteOnEvent(tick=120, channel=0, data=[79, 0]),
   midi.NoteOnEvent(tick=0, channel=0, data=[67, 0]),
   midi.NoteOnEvent(tick=0, channel=0, data=[72, 0]),
   midi.NoteOnEvent(tick=0, channel=0, data=[75, 0]),
   midi.NoteOnEvent(tick=0, channel=0, data=[80, 55]),
   midi.NoteOnEvent(tick=0, channel=0, data=[72, 55]),
   midi.NoteOnEvent(tick=0, channel=0, data=[75, 55]),
   midi.NoteOnEvent(tick=0, channel=0, data=[68, 55]),
   midi.NoteOnEvent(tick=960, channel=0, data=[68, 0]),
   midi.NoteOnEvent(tick=0, channel=0, data=[80, 0]),
   midi.NoteOnEvent(tick=0, channel=0, data=[72, 0]),
   midi.NoteOnEvent(tick=0, channel=0, data=[75, 0]),
   midi.NoteOnEvent(tick=0, channel=0, data=[67, 47]),
   midi.NoteOnEvent(tick=0, channel=0, data=[72, 47]),
   midi.NoteOnEvent(tick=0, channel=0, data=[75, 47]),
   midi.NoteOnEvent(tick=0, channel=0, data=[79, 47]),
   midi.NoteOnEvent(tick=240, channel=0, data=[79, 0]),
   midi.NoteOnEvent(tick=0, channel=0, data=[67, 0]),
   midi.NoteOnEvent(tick=0, channel=0, data=[72, 0]),
   midi.NoteOnEvent(tick=0, channel=0, data=[75, 0]),
   midi.NoteOnEvent(tick=120, channel=0, data=[84, 95]),
   midi.NoteOnEvent(tick=0, channel=0, data=[72, 87]),
   midi.NoteOnEvent(tick=120, channel=0, data=[74, 92]),
   midi.NoteOnEvent(tick=0, channel=0, data=[86, 101]),
   midi.NoteOnEvent(tick=10, channel=0, data=[72, 0]),
   midi.NoteOnEvent(tick=0, channel=0, data=[84, 0]),
   midi.NoteOnEvent(tick=350, channel=0, data=[75, 97]),
   midi.NoteOnEvent(tick=0, channel=0, data=[87, 107]),
   midi.NoteOnEvent(tick=10, channel=0, data=[74, 0]),
   midi.NoteOnEvent(tick=0, channel=0, data=[86, 0]),
   midi.NoteOnEvent(tick=110, channel=0, data=[75, 0]),
   midi.NoteOnEvent(tick=0, channel=0, data=[87, 0]),
   midi.NoteOnEvent(tick=0, channel=0, data=[75, 103]),
   midi.NoteOnEvent(tick=0, channel=0, data=[87, 113]),
   midi.NoteOnEvent(tick=960, channel=0, data=[87, 0]),
   midi.NoteOnEvent(tick=0, channel=0, data=[75, 0]),
   midi.NoteOnEvent(tick=360, channel=0, data=[67, 69]),
   midi.NoteOnEvent(tick=0, channel=0, data=[72, 69]),
   midi.NoteOnEvent(tick=0, channel=0, data=[75, 69]),
   midi.NoteOnEvent(tick=0, channel=0, data=[79, 76]),
   midi.NoteOnEvent(tick=120, channel=0, data=[79, 0]),
   midi.NoteOnEvent(tick=0, channel=0, data=[67, 0]),
   midi.NoteOnEvent(tick=0, channel=0, data=[72, 0]),
   midi.NoteOnEvent(tick=0, channel=0, data=[75, 0]),
   midi.NoteOnEvent(tick=0, channel=0, data=[67, 69]),
   midi.NoteOnEvent(tick=0, channel=0, data=[72, 69]),
   midi.NoteOnEvent(tick=0, channel=0, data=[75, 69]),
   midi.NoteOnEvent(tick=0, channel=0, data=[79, 76]),
   midi.NoteOnEvent(tick=360, channel=0, data=[79, 0]),
   midi.NoteOnEvent(tick=0, channel=0, data=[67, 0]),
   midi.NoteOnEvent(tick=0, channel=0, data=[72, 0]),
   midi.NoteOnEvent(tick=0, channel=0, data=[75, 0]),
   midi.NoteOnEvent(tick=0, channel=0, data=[79, 82]),
   midi.NoteOnEvent(tick=0, channel=0, data=[72, 75]),
   midi.NoteOnEvent(tick=0, channel=0, data=[75, 75]),
   midi.NoteOnEvent(tick=0, channel=0, data=[67, 75]),
   midi.NoteOnEvent(tick=120, channel=0, data=[67, 0]),
   midi.NoteOnEvent(tick=0, channel=0, data=[79, 0]),
   midi.NoteOnEvent(tick=0, channel=0, data=[72, 0]),
   midi.NoteOnEvent(tick=0, channel=0, data=[75, 0]),
   midi.NoteOnEvent(tick=0, channel=0, data=[69, 84]),
   midi.NoteOnEvent(tick=0, channel=0, data=[72, 84]),
   midi.NoteOnEvent(tick=0, channel=0, data=[75, 84]),
   midi.NoteOnEvent(tick=0, channel=0, data=[81, 92]),
   midi.NoteOnEvent(tick=1920, channel=0, data=[81, 0]),
   midi.NoteOnEvent(tick=0, channel=0, data=[69, 0]),
   midi.NoteOnEvent(tick=0, channel=0, data=[72, 0]),
   midi.NoteOnEvent(tick=0, channel=0, data=[75, 0]),
   midi.NoteOnEvent(tick=0, channel=0, data=[74, 95]),
   midi.NoteOnEvent(tick=0, channel=0, data=[81, 95]),
   midi.NoteOnEvent(tick=0, channel=0, data=[86, 105]),
   midi.NoteOnEvent(tick=240, channel=0, data=[81, 0]),
   midi.NoteOnEvent(tick=60, channel=0, data=[86, 0]),
   midi.NoteOnEvent(tick=0, channel=0, data=[74, 0]),
   midi.NoteOnEvent(tick=180, channel=0, data=[79, 91]),
   midi.NoteOnEvent(tick=0, channel=0, data=[67, 83]),
   midi.NoteOnEvent(tick=0, channel=0, data=[74, 83]),
   midi.NoteOnEvent(tick=480, channel=0, data=[74, 0]),
   midi.NoteOnEvent(tick=0, channel=0, data=[67, 0]),
   midi.NoteOnEvent(tick=0, channel=0, data=[79, 0]),
   midi.NoteOnEvent(tick=360, channel=0, data=[67, 66]),
   midi.NoteOnEvent(tick=0, channel=0, data=[73, 66]),
   midi.NoteOnEvent(tick=0, channel=0, data=[79, 72]),
   midi.NoteOnEvent(tick=120, channel=0, data=[79, 0]),
   midi.NoteOnEvent(tick=0, channel=0, data=[73, 0]),
   midi.NoteOnEvent(tick=0, channel=0, data=[67, 0]),
   midi.NoteOnEvent(tick=0, channel=0, data=[73, 81]),
   midi.NoteOnEvent(tick=0, channel=0, data=[68, 81]),
   midi.NoteOnEvent(tick=0, channel=0, data=[80, 89]),
   midi.NoteOnEvent(tick=360, channel=0, data=[80, 0]),
   midi.NoteOnEvent(tick=0, channel=0, data=[68, 0]),
   midi.NoteOnEvent(tick=0, channel=0, data=[73, 0]),
   midi.NoteOnEvent(tick=0, channel=0, data=[73, 65]),
   midi.NoteOnEvent(tick=0, channel=0, data=[67, 65]),
   midi.NoteOnEvent(tick=0, channel=0, data=[79, 71]),
   midi.NoteOnEvent(tick=120, channel=0, data=[79, 0]),
   midi.NoteOnEvent(tick=0, channel=0, data=[67, 0]),
   midi.NoteOnEvent(tick=0, channel=0, data=[73, 0]),
   midi.NoteOnEvent(tick=0, channel=0, data=[67, 74]),
   midi.NoteOnEvent(tick=0, channel=0, data=[72, 74]),
   midi.NoteOnEvent(tick=0, channel=0, data=[79, 81]),
   midi.NoteOnEvent(tick=240, channel=0, data=[72, 0]),
   midi.NoteOnEvent(tick=0, channel=0, data=[72, 70]),
   midi.NoteOnEvent(tick=0, channel=0, data=[84, 76]),
   midi.NoteOnEvent(tick=10, channel=0, data=[79, 0]),
   midi.NoteOnEvent(tick=0, channel=0, data=[67, 0]),
   midi.NoteOnEvent(tick=110, channel=0, data=[72, 0]),
   midi.NoteOnEvent(tick=0, channel=0, data=[84, 0]),
   midi.NoteOnEvent(tick=120, channel=0, data=[65, 77]),
   midi.NoteOnEvent(tick=0, channel=0, data=[72, 77]),
   midi.NoteOnEvent(tick=0, channel=0, data=[77, 86]),
   midi.NoteOnEvent(tick=480, channel=0, data=[77, 0]),
   midi.NoteOnEvent(tick=0, channel=0, data=[72, 0]),
   midi.NoteOnEvent(tick=0, channel=0, data=[65, 0]),
   midi.NoteOnEvent(tick=360, channel=0, data=[65, 63]),
   midi.NoteOnEvent(tick=0, channel=0, data=[72, 63]),
   midi.NoteOnEvent(tick=0, channel=0, data=[77, 69]),
   midi.NoteOnEvent(tick=120, channel=0, data=[77, 0]),
   midi.NoteOnEvent(tick=0, channel=0, data=[72, 0]),
   midi.NoteOnEvent(tick=0, channel=0, data=[65, 0]),
   midi.NoteOnEvent(tick=0, channel=0, data=[67, 79]),
   midi.NoteOnEvent(tick=0, channel=0, data=[72, 79]),
   midi.NoteOnEvent(tick=0, channel=0, data=[79, 87]),
   midi.NoteOnEvent(tick=360, channel=0, data=[79, 0]),
   midi.NoteOnEvent(tick=0, channel=0, data=[72, 0]),
   midi.NoteOnEvent(tick=0, channel=0, data=[67, 0]),
   midi.NoteOnEvent(tick=0, channel=0, data=[65, 63]),
   midi.NoteOnEvent(tick=0, channel=0, data=[72, 63]),
   midi.NoteOnEvent(tick=0, channel=0, data=[77, 69]),
   midi.NoteOnEvent(tick=120, channel=0, data=[77, 0]),
   midi.NoteOnEvent(tick=0, channel=0, data=[72, 0]),
   midi.NoteOnEvent(tick=0, channel=0, data=[65, 0]),
   midi.NoteOnEvent(tick=0, channel=0, data=[64, 76]),
   midi.NoteOnEvent(tick=0, channel=0, data=[72, 76]),
   midi.NoteOnEvent(tick=0, channel=0, data=[76, 84]),
   midi.NoteOnEvent(tick=1800, channel=0, data=[76, 0]),
   midi.NoteOnEvent(tick=0, channel=0, data=[72, 0]),
   midi.NoteOnEvent(tick=0, channel=0, data=[64, 0]),
   midi.NoteOnEvent(tick=0, channel=0, data=[63, 70]),
   midi.NoteOnEvent(tick=0, channel=0, data=[75, 70]),
   midi.NoteOnEvent(tick=120, channel=0, data=[75, 0]),
   midi.NoteOnEvent(tick=0, channel=0, data=[63, 0]),
   midi.NoteOnEvent(tick=0, channel=0, data=[71, 75]),
   midi.NoteOnEvent(tick=0, channel=0, data=[63, 75]),
   midi.NoteOnEvent(tick=0, channel=0, data=[75, 75]),
   midi.NoteOnEvent(tick=480, channel=0, data=[75, 0]),
   midi.NoteOnEvent(tick=0, channel=0, data=[63, 0]),
   midi.NoteOnEvent(tick=0, channel=0, data=[62, 63]),
   midi.NoteOnEvent(tick=0, channel=0, data=[74, 63]),
   midi.NoteOnEvent(tick=480, channel=0, data=[74, 0]),
   midi.NoteOnEvent(tick=0, channel=0, data=[62, 0]),
   midi.NoteOnEvent(tick=0, channel=0, data=[71, 0]),
   midi.NoteOnEvent(tick=4200, channel=0, data=[72, 61]),
   midi.NoteOnEvent(tick=0, channel=0, data=[84, 67]),
   midi.NoteOnEvent(tick=120, channel=0, data=[86, 67]),
   midi.NoteOnEvent(tick=0, channel=0, data=[74, 61]),
   midi.NoteOnEvent(tick=10, channel=0, data=[84, 0]),
   midi.NoteOnEvent(tick=0, channel=0, data=[72, 0]),
   midi.NoteOnEvent(tick=350, channel=0, data=[75, 62]),
   midi.NoteOnEvent(tick=0, channel=0, data=[87, 68]),
   midi.NoteOnEvent(tick=10, channel=0, data=[86, 0]),
   midi.NoteOnEvent(tick=0, channel=0, data=[74, 0]),
   midi.NoteOnEvent(tick=110, channel=0, data=[75, 0]),
   midi.NoteOnEvent(tick=0, channel=0, data=[87, 0]),
   midi.NoteOnEvent(tick=0, channel=0, data=[75, 72]),
   midi.NoteOnEvent(tick=0, channel=0, data=[87, 79]),
   midi.NoteOnEvent(tick=960, channel=0, data=[87, 0]),
   midi.NoteOnEvent(tick=0, channel=0, data=[75, 0]),
   midi.NoteOnEvent(tick=360, channel=0, data=[67, 51]),
   midi.NoteOnEvent(tick=0, channel=0, data=[72, 51]),
   midi.NoteOnEvent(tick=0, channel=0, data=[75, 51]),
   midi.NoteOnEvent(tick=0, channel=0, data=[79, 56]),
   midi.NoteOnEvent(tick=120, channel=0, data=[79, 0]),
   midi.NoteOnEvent(tick=0, channel=0, data=[67, 0]),
   midi.NoteOnEvent(tick=0, channel=0, data=[72, 0]),
   midi.NoteOnEvent(tick=0, channel=0, data=[75, 0]),
   midi.NoteOnEvent(tick=0, channel=0, data=[67, 51]),
   midi.NoteOnEvent(tick=0, channel=0, data=[72, 51]),
   midi.NoteOnEvent(tick=0, channel=0, data=[75, 51]),
   midi.NoteOnEvent(tick=0, channel=0, data=[79, 56]),
   midi.NoteOnEvent(tick=360, channel=0, data=[79, 0]),
   midi.NoteOnEvent(tick=0, channel=0, data=[67, 0]),
   midi.NoteOnEvent(tick=0, channel=0, data=[72, 0]),
   midi.NoteOnEvent(tick=0, channel=0, data=[75, 0]),
   midi.NoteOnEvent(tick=0, channel=0, data=[67, 51]),
   midi.NoteOnEvent(tick=0, channel=0, data=[72, 51]),
   midi.NoteOnEvent(tick=0, channel=0, data=[75, 51]),
   midi.NoteOnEvent(tick=0, channel=0, data=[79, 56]),
   midi.NoteOnEvent(tick=120, channel=0, data=[79, 0]),
   midi.NoteOnEvent(tick=0, channel=0, data=[67, 0]),
   midi.NoteOnEvent(tick=0, channel=0, data=[72, 0]),
   midi.NoteOnEvent(tick=0, channel=0, data=[75, 0]),
   midi.NoteOnEvent(tick=0, channel=0, data=[68, 60]),
   midi.NoteOnEvent(tick=0, channel=0, data=[72, 60]),
   midi.NoteOnEvent(tick=0, channel=0, data=[75, 60]),
   midi.NoteOnEvent(tick=0, channel=0, data=[80, 66]),
   midi.NoteOnEvent(tick=960, channel=0, data=[80, 0]),
   midi.NoteOnEvent(tick=0, channel=0, data=[68, 0]),
   midi.NoteOnEvent(tick=0, channel=0, data=[72, 0]),
   midi.NoteOnEvent(tick=0, channel=0, data=[75, 0]),
   midi.NoteOnEvent(tick=0, channel=0, data=[79, 56]),
   midi.NoteOnEvent(tick=0, channel=0, data=[72, 51]),
   midi.NoteOnEvent(tick=0, channel=0, data=[75, 51]),
   midi.NoteOnEvent(tick=0, channel=0, data=[67, 51]),
   midi.NoteOnEvent(tick=240, channel=0, data=[67, 0]),
   midi.NoteOnEvent(tick=0, channel=0, data=[79, 0]),
   midi.NoteOnEvent(tick=0, channel=0, data=[72, 0]),
   midi.NoteOnEvent(tick=0, channel=0, data=[75, 0]),
   midi.NoteOnEvent(tick=120, channel=0, data=[72, 72]),
   midi.NoteOnEvent(tick=0, channel=0, data=[84, 79]),
   midi.NoteOnEvent(tick=120, channel=0, data=[74, 84]),
   midi.NoteOnEvent(tick=0, channel=0, data=[86, 92]),
   midi.NoteOnEvent(tick=10, channel=0, data=[84, 0]),
   midi.NoteOnEvent(tick=0, channel=0, data=[72, 0]),
   midi.NoteOnEvent(tick=350, channel=0, data=[75, 92]),
   midi.NoteOnEvent(tick=0, channel=0, data=[87, 101]),
   midi.NoteOnEvent(tick=10, channel=0, data=[74, 0]),
   midi.NoteOnEvent(tick=0, channel=0, data=[86, 0]),
   midi.NoteOnEvent(tick=110, channel=0, data=[75, 0]),
   midi.NoteOnEvent(tick=0, channel=0, data=[87, 0]),
   midi.NoteOnEvent(tick=0, channel=0, data=[75, 97]),
   midi.NoteOnEvent(tick=0, channel=0, data=[87, 107]),
   midi.NoteOnEvent(tick=960, channel=0, data=[87, 0]),
   midi.NoteOnEvent(tick=0, channel=0, data=[75, 0]),
   midi.NoteOnEvent(tick=360, channel=0, data=[79, 81]),
   midi.NoteOnEvent(tick=0, channel=0, data=[72, 74]),
   midi.NoteOnEvent(tick=0, channel=0, data=[75, 74]),
   midi.NoteOnEvent(tick=0, channel=0, data=[67, 74]),
   midi.NoteOnEvent(tick=120, channel=0, data=[67, 0]),
   midi.NoteOnEvent(tick=0, channel=0, data=[79, 0]),
   midi.NoteOnEvent(tick=0, channel=0, data=[72, 0]),
   midi.NoteOnEvent(tick=0, channel=0, data=[75, 0]),
   midi.NoteOnEvent(tick=0, channel=0, data=[67, 74]),
   midi.NoteOnEvent(tick=0, channel=0, data=[72, 74]),
   midi.NoteOnEvent(tick=0, channel=0, data=[75, 74]),
   midi.NoteOnEvent(tick=0, channel=0, data=[79, 81]),
   midi.NoteOnEvent(tick=360, channel=0, data=[79, 0]),
   midi.NoteOnEvent(tick=0, channel=0, data=[67, 0]),
   midi.NoteOnEvent(tick=0, channel=0, data=[72, 0]),
   midi.NoteOnEvent(tick=0, channel=0, data=[75, 0]),
   midi.NoteOnEvent(tick=0, channel=0, data=[67, 76]),
   midi.NoteOnEvent(tick=0, channel=0, data=[72, 76]),
   midi.NoteOnEvent(tick=0, channel=0, data=[75, 76]),
   midi.NoteOnEvent(tick=0, channel=0, data=[79, 83]),
   midi.NoteOnEvent(tick=120, channel=0, data=[79, 0]),
   midi.NoteOnEvent(tick=0, channel=0, data=[67, 0]),
   midi.NoteOnEvent(tick=0, channel=0, data=[72, 0]),
   midi.NoteOnEvent(tick=0, channel=0, data=[75, 0]),
   midi.NoteOnEvent(tick=0, channel=0, data=[81, 95]),
   midi.NoteOnEvent(tick=0, channel=0, data=[75, 87]),
   midi.NoteOnEvent(tick=0, channel=0, data=[77, 87]),
   midi.NoteOnEvent(tick=0, channel=0, data=[69, 87]),
   midi.NoteOnEvent(tick=1920, channel=0, data=[69, 0]),
   midi.NoteOnEvent(tick=0, channel=0, data=[81, 0]),
   midi.NoteOnEvent(tick=0, channel=0, data=[75, 0]),
   midi.NoteOnEvent(tick=0, channel=0, data=[77, 0]),
   midi.NoteOnEvent(tick=0, channel=0, data=[70, 71]),
   midi.NoteOnEvent(tick=0, channel=0, data=[77, 71]),
   midi.NoteOnEvent(tick=0, channel=0, data=[82, 77]),
   midi.NoteOnEvent(tick=720, channel=0, data=[82, 0]),
   midi.NoteOnEvent(tick=0, channel=0, data=[77, 0]),
   midi.NoteOnEvent(tick=0, channel=0, data=[70, 0]),
   midi.NoteOnEvent(tick=0, channel=0, data=[70, 73]),
   midi.NoteOnEvent(tick=0, channel=0, data=[77, 73]),
   midi.NoteOnEvent(tick=0, channel=0, data=[82, 80]),
   midi.NoteOnEvent(tick=480, channel=0, data=[82, 0]),
   midi.NoteOnEvent(tick=0, channel=0, data=[77, 0]),
   midi.NoteOnEvent(tick=0, channel=0, data=[70, 0]),
   midi.NoteOnEvent(tick=0, channel=0, data=[70, 76]),
   midi.NoteOnEvent(tick=0, channel=0, data=[79, 76]),
   midi.NoteOnEvent(tick=0, channel=0, data=[82, 84]),
   midi.NoteOnEvent(tick=480, channel=0, data=[82, 0]),
   midi.NoteOnEvent(tick=0, channel=0, data=[79, 0]),
   midi.NoteOnEvent(tick=0, channel=0, data=[70, 0]),
   midi.NoteOnEvent(tick=0, channel=0, data=[79, 79]),
   midi.NoteOnEvent(tick=0, channel=0, data=[71, 79]),
   midi.NoteOnEvent(tick=0, channel=0, data=[83, 87]),
   midi.NoteOnEvent(tick=480, channel=0, data=[83, 0]),
   midi.NoteOnEvent(tick=0, channel=0, data=[71, 0]),
   midi.NoteOnEvent(tick=0, channel=0, data=[79, 0]),
   midi.NoteOnEvent(tick=0, channel=0, data=[79, 82]),
   midi.NoteOnEvent(tick=0, channel=0, data=[72, 82]),
   midi.NoteOnEvent(tick=0, channel=0, data=[82, 82]),
   midi.NoteOnEvent(tick=0, channel=0, data=[84, 90]),
   midi.NoteOnEvent(tick=480, channel=0, data=[84, 0]),
   midi.NoteOnEvent(tick=0, channel=0, data=[79, 0]),
   midi.NoteOnEvent(tick=0, channel=0, data=[72, 0]),
   midi.NoteOnEvent(tick=0, channel=0, data=[82, 0]),
   midi.NoteOnEvent(tick=0, channel=0, data=[73, 85]),
   midi.NoteOnEvent(tick=0, channel=0, data=[85, 93]),
   midi.NoteOnEvent(tick=0, channel=0, data=[82, 85]),
   midi.NoteOnEvent(tick=480, channel=0, data=[82, 0]),
   midi.NoteOnEvent(tick=0, channel=0, data=[85, 0]),
   midi.NoteOnEvent(tick=0, channel=0, data=[73, 0]),
   midi.NoteOnEvent(tick=0, channel=0, data=[74, 89]),
   midi.NoteOnEvent(tick=0, channel=0, data=[82, 89]),
   midi.NoteOnEvent(tick=0, channel=0, data=[86, 97]),
   midi.NoteOnEvent(tick=240, channel=0, data=[82, 0]),
   midi.NoteOnEvent(tick=0, channel=0, data=[75, 90]),
   midi.NoteOnEvent(tick=0, channel=0, data=[82, 90]),
   midi.NoteOnEvent(tick=0, channel=0, data=[87, 99]),
   midi.NoteOnEvent(tick=10, channel=0, data=[86, 0]),
   midi.NoteOnEvent(tick=0, channel=0, data=[74, 0]),
   midi.NoteOnEvent(tick=230, channel=0, data=[82, 0]),
   midi.NoteOnEvent(tick=0, channel=0, data=[76, 92]),
   midi.NoteOnEvent(tick=0, channel=0, data=[82, 92]),
   midi.NoteOnEvent(tick=0, channel=0, data=[88, 101]),
   midi.NoteOnEvent(tick=10, channel=0, data=[75, 0]),
   midi.NoteOnEvent(tick=0, channel=0, data=[87, 0]),
   midi.NoteOnEvent(tick=230, channel=0, data=[82, 0]),
   midi.NoteOnEvent(tick=0, channel=0, data=[82, 97]),
   midi.NoteOnEvent(tick=0, channel=0, data=[89, 107]),
   midi.NoteOnEvent(tick=0, channel=0, data=[86, 97]),
   midi.NoteOnEvent(tick=0, channel=0, data=[77, 97]),
   midi.NoteOnEvent(tick=10, channel=0, data=[76, 0]),
   midi.NoteOnEvent(tick=0, channel=0, data=[88, 0]),
   midi.NoteOnEvent(tick=950, channel=0, data=[86, 0]),
   midi.NoteOnEvent(tick=0, channel=0, data=[89, 0]),
   midi.NoteOnEvent(tick=0, channel=0, data=[77, 0]),
   midi.NoteOnEvent(tick=0, channel=0, data=[82, 0]),
   midi.NoteOnEvent(tick=0, channel=0, data=[82, 90]),
   midi.NoteOnEvent(tick=0, channel=0, data=[74, 90]),
   midi.NoteOnEvent(tick=0, channel=0, data=[77, 90]),
   midi.NoteOnEvent(tick=0, channel=0, data=[86, 99]),
   midi.NoteOnEvent(tick=480, channel=0, data=[77, 0]),
   midi.NoteOnEvent(tick=0, channel=0, data=[82, 0]),
   midi.NoteOnEvent(tick=0, channel=0, data=[74, 0]),
   midi.NoteOnEvent(tick=0, channel=0, data=[75, 84]),
   midi.NoteOnEvent(tick=0, channel=0, data=[77, 84]),
   midi.NoteOnEvent(tick=0, channel=0, data=[81, 84]),
   midi.NoteOnEvent(tick=360, channel=0, data=[86, 0]),
   midi.NoteOnEvent(tick=0, channel=0, data=[84, 85]),
   midi.NoteOnEvent(tick=120, channel=0, data=[84, 0]),
   midi.NoteOnEvent(tick=0, channel=0, data=[81, 0]),
   midi.NoteOnEvent(tick=0, channel=0, data=[77, 0]),
   midi.NoteOnEvent(tick=0, channel=0, data=[75, 0]),
   midi.NoteOnEvent(tick=0, channel=0, data=[74, 76]),
   midi.NoteOnEvent(tick=0, channel=0, data=[82, 83]),
   midi.NoteOnEvent(tick=240, channel=0, data=[82, 0]),
   midi.NoteOnEvent(tick=0, channel=0, data=[74, 0]),
   midi.NoteOnEvent(tick=1680, channel=0, data=[71, 83]),
   midi.NoteOnEvent(tick=0, channel=0, data=[75, 83]),
   midi.NoteOnEvent(tick=0, channel=0, data=[80, 83]),
   midi.NoteOnEvent(tick=0, channel=0, data=[83, 91]),
   midi.NoteOnEvent(tick=1440, channel=0, data=[83, 0]),
   midi.NoteOnEvent(tick=0, channel=0, data=[71, 0]),
   midi.NoteOnEvent(tick=0, channel=0, data=[75, 0]),
   midi.NoteOnEvent(tick=0, channel=0, data=[80, 0]),
   midi.NoteOnEvent(tick=0, channel=0, data=[75, 72]),
   midi.NoteOnEvent(tick=0, channel=0, data=[68, 66]),
   midi.NoteOnEvent(tick=0, channel=0, data=[71, 66]),
   midi.NoteOnEvent(tick=0, channel=0, data=[63, 66]),
   midi.NoteOnEvent(tick=360, channel=0, data=[63, 0]),
   midi.NoteOnEvent(tick=0, channel=0, data=[75, 0]),
   midi.NoteOnEvent(tick=0, channel=0, data=[68, 0]),
   midi.NoteOnEvent(tick=0, channel=0, data=[71, 0]),
   midi.NoteOnEvent(tick=0, channel=0, data=[65, 74]),
   midi.NoteOnEvent(tick=0, channel=0, data=[77, 81]),
   midi.NoteOnEvent(tick=120, channel=0, data=[77, 0]),
   midi.NoteOnEvent(tick=0, channel=0, data=[65, 0]),
   midi.NoteOnEvent(tick=0, channel=0, data=[78, 91]),
   midi.NoteOnEvent(tick=0, channel=0, data=[70, 83]),
   midi.NoteOnEvent(tick=0, channel=0, data=[75, 83]),
   midi.NoteOnEvent(tick=0, channel=0, data=[66, 83]),
   midi.NoteOnEvent(tick=1440, channel=0, data=[66, 0]),
   midi.NoteOnEvent(tick=0, channel=0, data=[78, 0]),
   midi.NoteOnEvent(tick=0, channel=0, data=[70, 0]),
   midi.NoteOnEvent(tick=0, channel=0, data=[75, 0]),
   midi.NoteOnEvent(tick=0, channel=0, data=[66, 73]),
   midi.NoteOnEvent(tick=0, channel=0, data=[78, 80]),
   midi.NoteOnEvent(tick=360, channel=0, data=[78, 0]),
   midi.NoteOnEvent(tick=0, channel=0, data=[66, 0]),
   midi.NoteOnEvent(tick=0, channel=0, data=[80, 85]),
   midi.NoteOnEvent(tick=0, channel=0, data=[68, 76]),
   midi.NoteOnEvent(tick=120, channel=0, data=[68, 0]),
   midi.NoteOnEvent(tick=0, channel=0, data=[80, 0]),
   midi.NoteOnEvent(tick=0, channel=0, data=[81, 91]),
   midi.NoteOnEvent(tick=0, channel=0, data=[69, 83]),
   midi.NoteOnEvent(tick=0, channel=0, data=[73, 83]),
   midi.NoteOnEvent(tick=0, channel=0, data=[78, 83]),
   midi.NoteOnEvent(tick=1440, channel=0, data=[78, 0]),
   midi.NoteOnEvent(tick=0, channel=0, data=[81, 0]),
   midi.NoteOnEvent(tick=0, channel=0, data=[69, 0]),
   midi.NoteOnEvent(tick=0, channel=0, data=[73, 0]),
   midi.NoteOnEvent(tick=0, channel=0, data=[73, 76]),
   midi.NoteOnEvent(tick=0, channel=0, data=[66, 70]),
   midi.NoteOnEvent(tick=0, channel=0, data=[69, 70]),
   midi.NoteOnEvent(tick=0, channel=0, data=[61, 70]),
   midi.NoteOnEvent(tick=360, channel=0, data=[61, 0]),
   midi.NoteOnEvent(tick=0, channel=0, data=[73, 0]),
   midi.NoteOnEvent(tick=0, channel=0, data=[66, 0]),
   midi.NoteOnEvent(tick=0, channel=0, data=[69, 0]),
   midi.NoteOnEvent(tick=0, channel=0, data=[63, 77]),
   midi.NoteOnEvent(tick=0, channel=0, data=[75, 86]),
   midi.NoteOnEvent(tick=120, channel=0, data=[75, 0]),
   midi.NoteOnEvent(tick=0, channel=0, data=[63, 0]),
   midi.NoteOnEvent(tick=0, channel=0, data=[76, 91]),
   midi.NoteOnEvent(tick=0, channel=0, data=[68, 83]),
   midi.NoteOnEvent(tick=0, channel=0, data=[73, 83]),
   midi.NoteOnEvent(tick=0, channel=0, data=[64, 83]),
   midi.NoteOnEvent(tick=1440, channel=0, data=[64, 0]),
   midi.NoteOnEvent(tick=0, channel=0, data=[76, 0]),
   midi.NoteOnEvent(tick=0, channel=0, data=[68, 0]),
   midi.NoteOnEvent(tick=0, channel=0, data=[73, 0]),
   midi.NoteOnEvent(tick=0, channel=0, data=[64, 73]),
   midi.NoteOnEvent(tick=0, channel=0, data=[76, 80]),
   midi.NoteOnEvent(tick=360, channel=0, data=[76, 0]),
   midi.NoteOnEvent(tick=0, channel=0, data=[64, 0]),
   midi.NoteOnEvent(tick=0, channel=0, data=[66, 77]),
   midi.NoteOnEvent(tick=0, channel=0, data=[78, 86]),
   midi.NoteOnEvent(tick=120, channel=0, data=[78, 0]),
   midi.NoteOnEvent(tick=0, channel=0, data=[66, 0]),
   midi.NoteOnEvent(tick=0, channel=0, data=[68, 83]),
   midi.NoteOnEvent(tick=0, channel=0, data=[75, 83]),
   midi.NoteOnEvent(tick=0, channel=0, data=[78, 83]),
   midi.NoteOnEvent(tick=0, channel=0, data=[80, 91]),
   midi.NoteOnEvent(tick=1440, channel=0, data=[80, 0]),
   midi.NoteOnEvent(tick=0, channel=0, data=[68, 0]),
   midi.NoteOnEvent(tick=0, channel=0, data=[75, 0]),
   midi.NoteOnEvent(tick=0, channel=0, data=[78, 0]),
   midi.NoteOnEvent(tick=0, channel=0, data=[80, 88]),
   midi.NoteOnEvent(tick=0, channel=0, data=[75, 80]),
   midi.NoteOnEvent(tick=0, channel=0, data=[78, 80]),
   midi.NoteOnEvent(tick=0, channel=0, data=[68, 80]),
   midi.NoteOnEvent(tick=360, channel=0, data=[68, 0]),
   midi.NoteOnEvent(tick=0, channel=0, data=[80, 0]),
   midi.NoteOnEvent(tick=0, channel=0, data=[75, 0]),
   midi.NoteOnEvent(tick=0, channel=0, data=[78, 0]),
   midi.NoteOnEvent(tick=0, channel=0, data=[70, 84]),
   midi.NoteOnEvent(tick=0, channel=0, data=[82, 92]),
   midi.NoteOnEvent(tick=120, channel=0, data=[82, 0]),
   midi.NoteOnEvent(tick=0, channel=0, data=[70, 0]),
   midi.NoteOnEvent(tick=0, channel=0, data=[83, 99]),
   midi.NoteOnEvent(tick=0, channel=0, data=[77, 91]),
   midi.NoteOnEvent(tick=0, channel=0, data=[80, 91]),
   midi.NoteOnEvent(tick=0, channel=0, data=[71, 91]),
   midi.NoteOnEvent(tick=480, channel=0, data=[71, 0]),
   midi.NoteOnEvent(tick=0, channel=0, data=[83, 0]),
   midi.NoteOnEvent(tick=0, channel=0, data=[77, 0]),
   midi.NoteOnEvent(tick=0, channel=0, data=[80, 0]),
   midi.NoteOnEvent(tick=0, channel=0, data=[70, 91]),
   midi.NoteOnEvent(tick=0, channel=0, data=[77, 91]),
   midi.NoteOnEvent(tick=0, channel=0, data=[80, 91]),
   midi.NoteOnEvent(tick=0, channel=0, data=[82, 99]),
   midi.NoteOnEvent(tick=960, channel=0, data=[82, 0]),
   midi.NoteOnEvent(tick=0, channel=0, data=[70, 0]),
   midi.NoteOnEvent(tick=0, channel=0, data=[77, 0]),
   midi.NoteOnEvent(tick=0, channel=0, data=[80, 0]),
   midi.NoteOnEvent(tick=0, channel=0, data=[70, 93]),
   midi.NoteOnEvent(tick=0, channel=0, data=[77, 93]),
   midi.NoteOnEvent(tick=0, channel=0, data=[80, 93]),
   midi.NoteOnEvent(tick=0, channel=0, data=[82, 102]),
   midi.NoteOnEvent(tick=360, channel=0, data=[82, 0]),
   midi.NoteOnEvent(tick=0, channel=0, data=[70, 0]),
   midi.NoteOnEvent(tick=0, channel=0, data=[77, 0]),
   midi.NoteOnEvent(tick=0, channel=0, data=[80, 0]),
   midi.NoteOnEvent(tick=0, channel=0, data=[72, 93]),
   midi.NoteOnEvent(tick=0, channel=0, data=[84, 102]),
   midi.NoteOnEvent(tick=120, channel=0, data=[84, 0]),
   midi.NoteOnEvent(tick=0, channel=0, data=[72, 0]),
   midi.NoteOnEvent(tick=0, channel=0, data=[73, 95]),
   midi.NoteOnEvent(tick=0, channel=0, data=[79, 95]),
   midi.NoteOnEvent(tick=0, channel=0, data=[82, 95]),
   midi.NoteOnEvent(tick=0, channel=0, data=[85, 106]),
   midi.NoteOnEvent(tick=480, channel=0, data=[85, 0]),
   midi.NoteOnEvent(tick=0, channel=0, data=[73, 0]),
   midi.NoteOnEvent(tick=0, channel=0, data=[79, 0]),
   midi.NoteOnEvent(tick=0, channel=0, data=[82, 0]),
   midi.NoteOnEvent(tick=0, channel=0, data=[82, 90]),
   midi.NoteOnEvent(tick=0, channel=0, data=[72, 90]),
   midi.NoteOnEvent(tick=0, channel=0, data=[79, 90]),
   midi.NoteOnEvent(tick=0, channel=0, data=[84, 97]),
   midi.NoteOnEvent(tick=480, channel=0, data=[84, 0]),
   midi.NoteOnEvent(tick=0, channel=0, data=[82, 0]),
   midi.NoteOnEvent(tick=0, channel=0, data=[72, 0]),
   midi.NoteOnEvent(tick=0, channel=0, data=[79, 0]),
   midi.NoteOnEvent(tick=2880, channel=0, data=[92, 104]),
   midi.NoteOnEvent(tick=0, channel=0, data=[89, 95]),
   midi.NoteOnEvent(tick=0, channel=0, data=[84, 95]),
   midi.NoteOnEvent(tick=0, channel=0, data=[80, 95]),
   midi.NoteOnEvent(tick=960, channel=0, data=[80, 0]),
   midi.NoteOnEvent(tick=0, channel=0, data=[92, 0]),
   midi.NoteOnEvent(tick=0, channel=0, data=[89, 0]),
   midi.NoteOnEvent(tick=0, channel=0, data=[84, 0]),
   midi.NoteOnEvent(tick=0, channel=0, data=[89, 95]),
   midi.NoteOnEvent(tick=0, channel=0, data=[84, 88]),
   midi.NoteOnEvent(tick=0, channel=0, data=[77, 88]),
   midi.NoteOnEvent(tick=480, channel=0, data=[77, 0]),
   midi.NoteOnEvent(tick=0, channel=0, data=[84, 0]),
   midi.NoteOnEvent(tick=0, channel=0, data=[89, 0]),
   midi.NoteOnEvent(tick=0, channel=0, data=[72, 84]),
   midi.NoteOnEvent(tick=0, channel=0, data=[77, 84]),
   midi.NoteOnEvent(tick=0, channel=0, data=[84, 92]),
   midi.NoteOnEvent(tick=480, channel=0, data=[84, 0]),
   midi.NoteOnEvent(tick=0, channel=0, data=[77, 0]),
   midi.NoteOnEvent(tick=0, channel=0, data=[72, 0]),
   midi.NoteOnEvent(tick=0, channel=0, data=[77, 87]),
   midi.NoteOnEvent(tick=0, channel=0, data=[70, 87]),
   midi.NoteOnEvent(tick=0, channel=0, data=[82, 95]),
   midi.NoteOnEvent(tick=960, channel=0, data=[82, 0]),
   midi.NoteOnEvent(tick=0, channel=0, data=[70, 0]),
   midi.NoteOnEvent(tick=0, channel=0, data=[68, 71]),
   midi.NoteOnEvent(tick=0, channel=0, data=[80, 77]),
   midi.NoteOnEvent(tick=480, channel=0, data=[80, 0]),
   midi.NoteOnEvent(tick=0, channel=0, data=[68, 0]),
   midi.NoteOnEvent(tick=0, channel=0, data=[77, 0]),
   midi.NoteOnEvent(tick=480, channel=0, data=[80, 84]),
   midi.NoteOnEvent(tick=0, channel=0, data=[89, 84]),
   midi.NoteOnEvent(tick=0, channel=0, data=[84, 84]),
   midi.NoteOnEvent(tick=0, channel=0, data=[92, 92]),
   midi.NoteOnEvent(tick=960, channel=0, data=[92, 0]),
   midi.NoteOnEvent(tick=0, channel=0, data=[80, 0]),
   midi.NoteOnEvent(tick=0, channel=0, data=[89, 0]),
   midi.NoteOnEvent(tick=0, channel=0, data=[84, 0]),
   midi.NoteOnEvent(tick=0, channel=0, data=[89, 87]),
   midi.NoteOnEvent(tick=0, channel=0, data=[84, 79]),
   midi.NoteOnEvent(tick=0, channel=0, data=[77, 79]),
   midi.NoteOnEvent(tick=480, channel=0, data=[77, 0]),
   midi.NoteOnEvent(tick=0, channel=0, data=[84, 0]),
   midi.NoteOnEvent(tick=0, channel=0, data=[89, 0]),
   midi.NoteOnEvent(tick=0, channel=0, data=[72, 79]),
   midi.NoteOnEvent(tick=0, channel=0, data=[77, 79]),
   midi.NoteOnEvent(tick=0, channel=0, data=[84, 87]),
   midi.NoteOnEvent(tick=480, channel=0, data=[84, 0]),
   midi.NoteOnEvent(tick=0, channel=0, data=[77, 0]),
   midi.NoteOnEvent(tick=0, channel=0, data=[72, 0]),
   midi.NoteOnEvent(tick=0, channel=0, data=[72, 86]),
   midi.NoteOnEvent(tick=0, channel=0, data=[77, 86]),
   midi.NoteOnEvent(tick=0, channel=0, data=[84, 94]),
   midi.NoteOnEvent(tick=1440, channel=0, data=[84, 0]),
   midi.NoteOnEvent(tick=0, channel=0, data=[77, 0]),
   midi.NoteOnEvent(tick=0, channel=0, data=[72, 0]),
   midi.NoteOnEvent(tick=0, channel=0, data=[71, 75]),
   midi.NoteOnEvent(tick=0, channel=0, data=[77, 75]),
   midi.NoteOnEvent(tick=0, channel=0, data=[83, 82]),
   midi.NoteOnEvent(tick=360, channel=0, data=[83, 0]),
   midi.NoteOnEvent(tick=0, channel=0, data=[77, 0]),
   midi.NoteOnEvent(tick=0, channel=0, data=[71, 0]),
   midi.NoteOnEvent(tick=0, channel=0, data=[72, 85]),
   midi.NoteOnEvent(tick=0, channel=0, data=[84, 93]),
   midi.NoteOnEvent(tick=120, channel=0, data=[84, 0]),
   midi.NoteOnEvent(tick=0, channel=0, data=[72, 0]),
   midi.NoteOnEvent(tick=0, channel=0, data=[74, 93]),
   midi.NoteOnEvent(tick=0, channel=0, data=[83, 93]),
   midi.NoteOnEvent(tick=0, channel=0, data=[77, 93]),
   midi.NoteOnEvent(tick=0, channel=0, data=[86, 102]),
   midi.NoteOnEvent(tick=960, channel=0, data=[86, 0]),
   midi.NoteOnEvent(tick=0, channel=0, data=[74, 0]),
   midi.NoteOnEvent(tick=0, channel=0, data=[83, 0]),
   midi.NoteOnEvent(tick=0, channel=0, data=[77, 0]),
   midi.NoteOnEvent(tick=2400, channel=0, data=[68, 94]),
   midi.NoteOnEvent(tick=0, channel=0, data=[75, 94]),
   midi.NoteOnEvent(tick=0, channel=0, data=[77, 94]),
   midi.NoteOnEvent(tick=0, channel=0, data=[80, 103]),
   midi.NoteOnEvent(tick=360, channel=0, data=[80, 0]),
   midi.NoteOnEvent(tick=0, channel=0, data=[68, 0]),
   midi.NoteOnEvent(tick=0, channel=0, data=[75, 0]),
   midi.NoteOnEvent(tick=0, channel=0, data=[77, 0]),
   midi.NoteOnEvent(tick=0, channel=0, data=[67, 89]),
   midi.NoteOnEvent(tick=0, channel=0, data=[79, 97]),
   midi.NoteOnEvent(tick=120, channel=0, data=[79, 0]),
   midi.NoteOnEvent(tick=0, channel=0, data=[67, 0]),
   midi.NoteOnEvent(tick=0, channel=0, data=[89, 107]),
   midi.NoteOnEvent(tick=0, channel=0, data=[86, 97]),
   midi.NoteOnEvent(tick=0, channel=0, data=[77, 97]),
   midi.NoteOnEvent(tick=0, channel=0, data=[79, 97]),
   midi.NoteOnEvent(tick=960, channel=0, data=[79, 0]),
   midi.NoteOnEvent(tick=0, channel=0, data=[89, 0]),
   midi.NoteOnEvent(tick=0, channel=0, data=[86, 0]),
   midi.NoteOnEvent(tick=0, channel=0, data=[77, 0]),
   midi.NoteOnEvent(tick=2400, channel=0, data=[80, 95]),
   midi.NoteOnEvent(tick=0, channel=0, data=[75, 88]),
   midi.NoteOnEvent(tick=0, channel=0, data=[77, 88]),
   midi.NoteOnEvent(tick=0, channel=0, data=[68, 88]),
   midi.NoteOnEvent(tick=360, channel=0, data=[68, 0]),
   midi.NoteOnEvent(tick=0, channel=0, data=[80, 0]),
   midi.NoteOnEvent(tick=0, channel=0, data=[75, 0]),
   midi.NoteOnEvent(tick=0, channel=0, data=[77, 0]),
   midi.NoteOnEvent(tick=0, channel=0, data=[67, 84]),
   midi.NoteOnEvent(tick=0, channel=0, data=[79, 92]),
   midi.NoteOnEvent(tick=120, channel=0, data=[79, 0]),
   midi.NoteOnEvent(tick=0, channel=0, data=[67, 0]),
   midi.NoteOnEvent(tick=0, channel=0, data=[77, 98]),
   midi.NoteOnEvent(tick=0, channel=0, data=[86, 98]),
   midi.NoteOnEvent(tick=0, channel=0, data=[79, 98]),
   midi.NoteOnEvent(tick=0, channel=0, data=[91, 108]),
   midi.NoteOnEvent(tick=240, channel=0, data=[91, 0]),
   midi.NoteOnEvent(tick=0, channel=0, data=[77, 0]),
   midi.NoteOnEvent(tick=0, channel=0, data=[86, 0]),
   midi.NoteOnEvent(tick=0, channel=0, data=[79, 0]),
   midi.NoteOnEvent(tick=2, channel=0, data=[92, 87]),
   midi.NoteOnEvent(tick=121, channel=0, data=[91, 80]),
   midi.NoteOnEvent(tick=11, channel=0, data=[92, 0]),
   midi.NoteOnEvent(tick=110, channel=0, data=[89, 87]),
   midi.NoteOnEvent(tick=11, channel=0, data=[91, 0]),
   midi.NoteOnEvent(tick=108, channel=0, data=[86, 77]),
   midi.NoteOnEvent(tick=13, channel=0, data=[89, 0]),
   midi.NoteOnEvent(tick=108, channel=0, data=[87, 77]),
   midi.NoteOnEvent(tick=11, channel=0, data=[86, 0]),
   midi.NoteOnEvent(tick=109, channel=0, data=[86, 76]),
   midi.NoteOnEvent(tick=12, channel=0, data=[87, 0]),
   midi.NoteOnEvent(tick=109, channel=0, data=[83, 87]),
   midi.NoteOnEvent(tick=11, channel=0, data=[86, 0]),
   midi.NoteOnEvent(tick=104, channel=0, data=[79, 77]),
   midi.NoteOnEvent(tick=17, channel=0, data=[83, 0]),
   midi.NoteOnEvent(tick=102, channel=0, data=[80, 77]),
   midi.NoteOnEvent(tick=13, channel=0, data=[79, 0]),
   midi.NoteOnEvent(tick=104, channel=0, data=[79, 76]),
   midi.NoteOnEvent(tick=15, channel=0, data=[80, 0]),
   midi.NoteOnEvent(tick=107, channel=0, data=[77, 87]),
   midi.NoteOnEvent(tick=10, channel=0, data=[79, 0]),
   midi.NoteOnEvent(tick=116, channel=0, data=[74, 77]),
   midi.NoteOnEvent(tick=6, channel=0, data=[77, 0]),
   midi.NoteOnEvent(tick=109, channel=0, data=[75, 77]),
   midi.NoteOnEvent(tick=17, channel=0, data=[74, 0]),
   midi.NoteOnEvent(tick=100, channel=0, data=[74, 76]),
   midi.NoteOnEvent(tick=15, channel=0, data=[75, 0]),
   midi.NoteOnEvent(tick=104, channel=0, data=[71, 87]),
   midi.NoteOnEvent(tick=13, channel=0, data=[74, 0]),
   midi.NoteOnEvent(tick=114, channel=0, data=[67, 77]),
   midi.NoteOnEvent(tick=5, channel=0, data=[71, 0]),
   midi.NoteOnEvent(tick=116, channel=0, data=[68, 77]),
   midi.NoteOnEvent(tick=11, channel=0, data=[67, 0]),
   midi.NoteOnEvent(tick=101, channel=0, data=[67, 76]),
   midi.NoteOnEvent(tick=20, channel=0, data=[68, 0]),
   midi.NoteOnEvent(tick=100, channel=0, data=[65, 87]),
   midi.NoteOnEvent(tick=12, channel=0, data=[67, 0]),
   midi.NoteOnEvent(tick=112, channel=0, data=[62, 77]),
   midi.NoteOnEvent(tick=8, channel=0, data=[65, 0]),
   midi.NoteOnEvent(tick=115, channel=0, data=[63, 77]),
   midi.NoteOnEvent(tick=9, channel=0, data=[62, 0]),
   midi.NoteOnEvent(tick=112, channel=0, data=[62, 76]),
   midi.NoteOnEvent(tick=11, channel=0, data=[63, 0]),
   midi.NoteOnEvent(tick=102, channel=0, data=[59, 87]),
   midi.NoteOnEvent(tick=19, channel=0, data=[62, 0]),
   midi.NoteOnEvent(tick=101, channel=0, data=[55, 77]),
   midi.NoteOnEvent(tick=12, channel=0, data=[59, 0]),
   midi.NoteOnEvent(tick=107, channel=0, data=[56, 77]),
   midi.NoteOnEvent(tick=13, channel=0, data=[55, 0]),
   midi.NoteOnEvent(tick=110, channel=0, data=[55, 76]),
   midi.NoteOnEvent(tick=9, channel=0, data=[56, 0]),
   midi.NoteOnEvent(tick=108, channel=0, data=[53, 87]),
   midi.NoteOnEvent(tick=15, channel=0, data=[55, 0]),
   midi.NoteOnEvent(tick=115, channel=0, data=[50, 77]),
   midi.NoteOnEvent(tick=2, channel=0, data=[53, 0]),
   midi.NoteOnEvent(tick=115, channel=0, data=[51, 76]),
   midi.NoteOnEvent(tick=15, channel=0, data=[50, 0]),
   midi.NoteOnEvent(tick=98, channel=0, data=[50, 76]),
   midi.NoteOnEvent(tick=19, channel=0, data=[51, 0]),
   midi.NoteOnEvent(tick=111, channel=0, data=[48, 76]),
   midi.NoteOnEvent(tick=2, channel=0, data=[50, 0]),
   midi.NoteOnEvent(tick=115, channel=0, data=[47, 76]),
   midi.NoteOnEvent(tick=15, channel=0, data=[48, 0]),
   midi.NoteOnEvent(tick=102, channel=0, data=[55, 77]),
   midi.NoteOnEvent(tick=3, channel=0, data=[47, 0]),
   midi.NoteOnEvent(tick=113, channel=0, data=[53, 76]),
   midi.NoteOnEvent(tick=16, channel=0, data=[55, 0]),
   midi.NoteOnEvent(tick=106, channel=0, data=[51, 74]),
   midi.NoteOnEvent(tick=10, channel=0, data=[53, 0]),
   midi.NoteOnEvent(tick=112, channel=0, data=[50, 73]),
   midi.NoteOnEvent(tick=10, channel=0, data=[51, 0]),
   midi.NoteOnEvent(tick=113, channel=0, data=[51, 72]),
   midi.NoteOnEvent(tick=9, channel=0, data=[50, 0]),
   midi.NoteOnEvent(tick=112, channel=0, data=[50, 71]),
   midi.NoteOnEvent(tick=11, channel=0, data=[51, 0]),
   midi.NoteOnEvent(tick=101, channel=0, data=[48, 69]),
   midi.NoteOnEvent(tick=20, channel=0, data=[50, 0]),
   midi.NoteOnEvent(tick=109, channel=0, data=[47, 69]),
   midi.NoteOnEvent(tick=3, channel=0, data=[48, 0]),
   midi.NoteOnEvent(tick=109, channel=0, data=[58, 74]),
   midi.NoteOnEvent(tick=8, channel=0, data=[47, 0]),
   midi.NoteOnEvent(tick=117, channel=0, data=[56, 73]),
   midi.NoteOnEvent(tick=7, channel=0, data=[58, 0]),
   midi.NoteOnEvent(tick=113, channel=0, data=[55, 73]),
   midi.NoteOnEvent(tick=12, channel=0, data=[56, 0]),
   midi.NoteOnEvent(tick=112, channel=0, data=[53, 72]),
   midi.NoteOnEvent(tick=8, channel=0, data=[55, 0]),
   midi.NoteOnEvent(tick=107, channel=0, data=[55, 72]),
   midi.NoteOnEvent(tick=17, channel=0, data=[53, 0]),
   midi.NoteOnEvent(tick=100, channel=0, data=[53, 71]),
   midi.NoteOnEvent(tick=15, channel=0, data=[55, 0]),
   midi.NoteOnEvent(tick=106, channel=0, data=[51, 70]),
   midi.NoteOnEvent(tick=11, channel=0, data=[53, 0]),
   midi.NoteOnEvent(tick=114, channel=0, data=[50, 69]),
   midi.NoteOnEvent(tick=7, channel=0, data=[51, 0]),
   midi.NoteOnEvent(tick=108, channel=0, data=[63, 76]),
   midi.NoteOnEvent(tick=5, channel=0, data=[50, 0]),
   midi.NoteOnEvent(tick=117, channel=0, data=[62, 77]),
   midi.NoteOnEvent(tick=10, channel=0, data=[63, 0]),
   midi.NoteOnEvent(tick=111, channel=0, data=[60, 80]),
   midi.NoteOnEvent(tick=11, channel=0, data=[62, 0]),
   midi.NoteOnEvent(tick=104, channel=0, data=[59, 81]),
   midi.NoteOnEvent(tick=30, channel=0, data=[60, 0]),
   midi.NoteOnEvent(tick=99, channel=0, data=[60, 82]),
   midi.NoteOnEvent(tick=16, channel=0, data=[59, 0]),
   midi.NoteOnEvent(tick=102, channel=0, data=[59, 84]),
   midi.NoteOnEvent(tick=27, channel=0, data=[60, 0]),
   midi.NoteOnEvent(tick=86, channel=0, data=[56, 87]),
   midi.NoteOnEvent(tick=32, channel=0, data=[59, 0]),
   midi.NoteOnEvent(tick=92, channel=0, data=[55, 88]),
   midi.NoteOnEvent(tick=21, channel=0, data=[56, 0]),
   midi.NoteOnEvent(tick=101, channel=0, data=[56, 90]),
   midi.NoteOnEvent(tick=23, channel=0, data=[55, 0]),
   midi.NoteOnEvent(tick=100, channel=0, data=[55, 92]),
   midi.NoteOnEvent(tick=22, channel=0, data=[56, 0]),
   midi.NoteOnEvent(tick=96, channel=0, data=[53, 94]),
   midi.NoteOnEvent(tick=27, channel=0, data=[55, 0]),
   midi.NoteOnEvent(tick=92, channel=0, data=[51, 95]),
   midi.NoteOnEvent(tick=26, channel=0, data=[53, 0]),
   midi.NoteOnEvent(tick=93, channel=0, data=[53, 99]),
   midi.NoteOnEvent(tick=26, channel=0, data=[51, 0]),
   midi.NoteOnEvent(tick=98, channel=0, data=[51, 101]),
   midi.NoteOnEvent(tick=21, channel=0, data=[53, 0]),
   midi.NoteOnEvent(tick=98, channel=0, data=[48, 103]),
   midi.NoteOnEvent(tick=13, channel=0, data=[51, 0]),
   midi.NoteOnEvent(tick=107, channel=0, data=[48, 0]),
   midi.NoteOnEvent(tick=3116, channel=0, data=[84, 97]),
   midi.NoteOnEvent(tick=0, channel=0, data=[72, 89]),
   midi.NoteOnEvent(tick=120, channel=0, data=[73, 91]),
   midi.NoteOnEvent(tick=0, channel=0, data=[85, 100]),
   midi.NoteOnEvent(tick=10, channel=0, data=[72, 0]),
   midi.NoteOnEvent(tick=0, channel=0, data=[84, 0]),
   midi.NoteOnEvent(tick=150, channel=0, data=[74, 96]),
   midi.NoteOnEvent(tick=0, channel=0, data=[86, 106]),
   midi.NoteOnEvent(tick=10, channel=0, data=[73, 0]),
   midi.NoteOnEvent(tick=0, channel=0, data=[85, 0]),
   midi.NoteOnEvent(tick=230, channel=0, data=[75, 91]),
   midi.NoteOnEvent(tick=0, channel=0, data=[87, 100]),
   midi.NoteOnEvent(tick=5, channel=0, data=[74, 0]),
   midi.NoteOnEvent(tick=0, channel=0, data=[86, 0]),
   midi.NoteOnEvent(tick=65, channel=0, data=[75, 0]),
   midi.NoteOnEvent(tick=0, channel=0, data=[87, 0]),
   midi.NoteOnEvent(tick=10, channel=0, data=[75, 104]),
   midi.NoteOnEvent(tick=0, channel=0, data=[87, 114]),
   midi.NoteOnEvent(tick=960, channel=0, data=[87, 0]),
   midi.NoteOnEvent(tick=0, channel=0, data=[75, 0]),
   midi.NoteOnEvent(tick=360, channel=0, data=[79, 49]),
   midi.NoteOnEvent(tick=0, channel=0, data=[72, 49]),
   midi.NoteOnEvent(tick=0, channel=0, data=[75, 49]),
   midi.NoteOnEvent(tick=0, channel=0, data=[67, 49]),
   midi.NoteOnEvent(tick=120, channel=0, data=[67, 0]),
   midi.NoteOnEvent(tick=0, channel=0, data=[79, 0]),
   midi.NoteOnEvent(tick=0, channel=0, data=[72, 0]),
   midi.NoteOnEvent(tick=0, channel=0, data=[75, 0]),
   midi.NoteOnEvent(tick=0, channel=0, data=[67, 49]),
   midi.NoteOnEvent(tick=0, channel=0, data=[72, 49]),
   midi.NoteOnEvent(tick=0, channel=0, data=[75, 49]),
   midi.NoteOnEvent(tick=0, channel=0, data=[79, 49]),
   midi.NoteOnEvent(tick=360, channel=0, data=[79, 0]),
   midi.NoteOnEvent(tick=0, channel=0, data=[67, 0]),
   midi.NoteOnEvent(tick=0, channel=0, data=[72, 0]),
   midi.NoteOnEvent(tick=0, channel=0, data=[75, 0]),
   midi.NoteOnEvent(tick=0, channel=0, data=[79, 56]),
   midi.NoteOnEvent(tick=0, channel=0, data=[72, 56]),
   midi.NoteOnEvent(tick=0, channel=0, data=[75, 56]),
   midi.NoteOnEvent(tick=0, channel=0, data=[67, 56]),
   midi.NoteOnEvent(tick=120, channel=0, data=[67, 0]),
   midi.NoteOnEvent(tick=0, channel=0, data=[79, 0]),
   midi.NoteOnEvent(tick=0, channel=0, data=[72, 0]),
   midi.NoteOnEvent(tick=0, channel=0, data=[75, 0]),
   midi.NoteOnEvent(tick=0, channel=0, data=[80, 57]),
   midi.NoteOnEvent(tick=0, channel=0, data=[68, 57]),
   midi.NoteOnEvent(tick=0, channel=0, data=[72, 57]),
   midi.NoteOnEvent(tick=0, channel=0, data=[75, 57]),
   midi.NoteOnEvent(tick=960, channel=0, data=[75, 0]),
   midi.NoteOnEvent(tick=0, channel=0, data=[80, 0]),
   midi.NoteOnEvent(tick=0, channel=0, data=[68, 0]),
   midi.NoteOnEvent(tick=0, channel=0, data=[72, 0]),
   midi.NoteOnEvent(tick=0, channel=0, data=[67, 63]),
   midi.NoteOnEvent(tick=0, channel=0, data=[72, 63]),
   midi.NoteOnEvent(tick=0, channel=0, data=[75, 63]),
   midi.NoteOnEvent(tick=0, channel=0, data=[79, 69]),
   midi.NoteOnEvent(tick=160, channel=0, data=[75, 0]),
   midi.NoteOnEvent(tick=0, channel=0, data=[67, 0]),
   midi.NoteOnEvent(tick=0, channel=0, data=[72, 0]),
   midi.NoteOnEvent(tick=0, channel=0, data=[71, 75]),
   midi.NoteOnEvent(tick=0, channel=0, data=[83, 82]),
   midi.NoteOnEvent(tick=10, channel=0, data=[79, 0]),
   midi.NoteOnEvent(tick=150, channel=0, data=[83, 0]),
   midi.NoteOnEvent(tick=0, channel=0, data=[72, 79]),
   midi.NoteOnEvent(tick=0, channel=0, data=[84, 87]),
   midi.NoteOnEvent(tick=10, channel=0, data=[71, 0]),
   midi.NoteOnEvent(tick=150, channel=0, data=[73, 88]),
   midi.NoteOnEvent(tick=0, channel=0, data=[85, 95]),
   midi.NoteOnEvent(tick=10, channel=0, data=[84, 0]),
   midi.NoteOnEvent(tick=0, channel=0, data=[72, 0]),
   midi.NoteOnEvent(tick=150, channel=0, data=[74, 99]),
   midi.NoteOnEvent(tick=0, channel=0, data=[86, 109]),
   midi.NoteOnEvent(tick=10, channel=0, data=[73, 0]),
   midi.NoteOnEvent(tick=0, channel=0, data=[85, 0]),
   midi.NoteOnEvent(tick=150, channel=0, data=[74, 0]),
   midi.NoteOnEvent(tick=0, channel=0, data=[86, 0]),
   midi.NoteOnEvent(tick=80, channel=0, data=[75, 95]),
   midi.NoteOnEvent(tick=0, channel=0, data=[87, 104]),
   midi.NoteOnEvent(tick=80, channel=0, data=[87, 0]),
   midi.NoteOnEvent(tick=0, channel=0, data=[75, 0]),
   midi.NoteOnEvent(tick=0, channel=0, data=[75, 106]),
   midi.NoteOnEvent(tick=0, channel=0, data=[87, 115]),
   midi.NoteOnEvent(tick=960, channel=0, data=[87, 0]),
   midi.NoteOnEvent(tick=0, channel=0, data=[75, 0]),
   midi.NoteOnEvent(tick=360, channel=0, data=[79, 54]),
   midi.NoteOnEvent(tick=0, channel=0, data=[72, 49]),
   midi.NoteOnEvent(tick=0, channel=0, data=[75, 49]),
   midi.NoteOnEvent(tick=0, channel=0, data=[67, 49]),
   midi.NoteOnEvent(tick=120, channel=0, data=[67, 0]),
   midi.NoteOnEvent(tick=0, channel=0, data=[79, 0]),
   midi.NoteOnEvent(tick=0, channel=0, data=[72, 0]),
   midi.NoteOnEvent(tick=0, channel=0, data=[75, 0]),
   midi.NoteOnEvent(tick=0, channel=0, data=[67, 55]),
   midi.NoteOnEvent(tick=0, channel=0, data=[72, 55]),
   midi.NoteOnEvent(tick=0, channel=0, data=[75, 55]),
   midi.NoteOnEvent(tick=0, channel=0, data=[79, 60]),
   midi.NoteOnEvent(tick=360, channel=0, data=[79, 0]),
   midi.NoteOnEvent(tick=0, channel=0, data=[67, 0]),
   midi.NoteOnEvent(tick=0, channel=0, data=[72, 0]),
   midi.NoteOnEvent(tick=0, channel=0, data=[75, 0]),
   midi.NoteOnEvent(tick=0, channel=0, data=[67, 67]),
   midi.NoteOnEvent(tick=0, channel=0, data=[72, 67]),
   midi.NoteOnEvent(tick=0, channel=0, data=[75, 67]),
   midi.NoteOnEvent(tick=0, channel=0, data=[79, 73]),
   midi.NoteOnEvent(tick=120, channel=0, data=[79, 0]),
   midi.NoteOnEvent(tick=0, channel=0, data=[67, 0]),
   midi.NoteOnEvent(tick=0, channel=0, data=[72, 0]),
   midi.NoteOnEvent(tick=0, channel=0, data=[75, 0]),
   midi.NoteOnEvent(tick=0, channel=0, data=[81, 82]),
   midi.NoteOnEvent(tick=0, channel=0, data=[72, 75]),
   midi.NoteOnEvent(tick=0, channel=0, data=[75, 75]),
   midi.NoteOnEvent(tick=0, channel=0, data=[69, 75]),
   midi.NoteOnEvent(tick=1560, channel=0, data=[69, 0]),
   midi.NoteOnEvent(tick=0, channel=0, data=[81, 0]),
   midi.NoteOnEvent(tick=0, channel=0, data=[72, 0]),
   midi.NoteOnEvent(tick=0, channel=0, data=[75, 0]),
   midi.NoteOnEvent(tick=180, channel=0, data=[69, 85]),
   midi.NoteOnEvent(tick=60, channel=0, data=[74, 85]),
   midi.NoteOnEvent(tick=60, channel=0, data=[81, 87]),
   midi.NoteOnEvent(tick=60, channel=0, data=[86, 95]),
   midi.NoteOnEvent(tick=180, channel=0, data=[86, 0]),
   midi.NoteOnEvent(tick=0, channel=0, data=[69, 0]),
   midi.NoteOnEvent(tick=0, channel=0, data=[74, 0]),
   midi.NoteOnEvent(tick=0, channel=0, data=[81, 0]),
   midi.NoteOnEvent(tick=300, channel=0, data=[67, 95]),
   midi.NoteOnEvent(tick=0, channel=0, data=[74, 95]),
   midi.NoteOnEvent(tick=0, channel=0, data=[79, 104]),
   midi.NoteOnEvent(tick=480, channel=0, data=[79, 0]),
   midi.NoteOnEvent(tick=0, channel=0, data=[74, 0]),
   midi.NoteOnEvent(tick=0, channel=0, data=[67, 0]),
   midi.NoteOnEvent(tick=160, channel=0, data=[73, 69]),
   midi.NoteOnEvent(tick=0, channel=0, data=[67, 69]),
   midi.NoteOnEvent(tick=0, channel=0, data=[79, 76]),
   midi.NoteOnEvent(tick=160, channel=0, data=[79, 0]),
   midi.NoteOnEvent(tick=0, channel=0, data=[67, 0]),
   midi.NoteOnEvent(tick=0, channel=0, data=[73, 0]),
   midi.NoteOnEvent(tick=0, channel=0, data=[73, 67]),
   midi.NoteOnEvent(tick=0, channel=0, data=[67, 67]),
   midi.NoteOnEvent(tick=0, channel=0, data=[79, 73]),
   midi.NoteOnEvent(tick=160, channel=0, data=[79, 0]),
   midi.NoteOnEvent(tick=0, channel=0, data=[67, 0]),
   midi.NoteOnEvent(tick=0, channel=0, data=[73, 0]),
   midi.NoteOnEvent(tick=0, channel=0, data=[79, 76]),
   midi.NoteOnEvent(tick=0, channel=0, data=[73, 69]),
   midi.NoteOnEvent(tick=0, channel=0, data=[67, 69]),
   midi.NoteOnEvent(tick=160, channel=0, data=[67, 0]),
   midi.NoteOnEvent(tick=0, channel=0, data=[73, 0]),
   midi.NoteOnEvent(tick=0, channel=0, data=[79, 0]),
   midi.NoteOnEvent(tick=0, channel=0, data=[80, 73]),
   midi.NoteOnEvent(tick=0, channel=0, data=[73, 67]),
   midi.NoteOnEvent(tick=0, channel=0, data=[68, 67]),
   midi.NoteOnEvent(tick=160, channel=0, data=[68, 0]),
   midi.NoteOnEvent(tick=0, channel=0, data=[73, 0]),
   midi.NoteOnEvent(tick=0, channel=0, data=[80, 0]),
   midi.NoteOnEvent(tick=80, channel=0, data=[67, 69]),
   midi.NoteOnEvent(tick=0, channel=0, data=[73, 69]),
   midi.NoteOnEvent(tick=0, channel=0, data=[79, 76]),
   midi.NoteOnEvent(tick=80, channel=0, data=[79, 0]),
   midi.NoteOnEvent(tick=0, channel=0, data=[73, 0]),
   midi.NoteOnEvent(tick=0, channel=0, data=[67, 0]),
   midi.NoteOnEvent(tick=0, channel=0, data=[67, 72]),
   midi.NoteOnEvent(tick=0, channel=0, data=[72, 72]),
   midi.NoteOnEvent(tick=0, channel=0, data=[79, 82]),
   midi.NoteOnEvent(tick=120, channel=0, data=[72, 0]),
   midi.NoteOnEvent(tick=0, channel=0, data=[72, 69]),
   midi.NoteOnEvent(tick=0, channel=0, data=[84, 76]),
   midi.NoteOnEvent(tick=10, channel=0, data=[79, 0]),
   midi.NoteOnEvent(tick=0, channel=0, data=[67, 0]),
   midi.NoteOnEvent(tick=110, channel=0, data=[72, 0]),
   midi.NoteOnEvent(tick=0, channel=0, data=[84, 0]),
   midi.NoteOnEvent(tick=240, channel=0, data=[65, 83]),
   midi.NoteOnEvent(tick=0, channel=0, data=[72, 83]),
   midi.NoteOnEvent(tick=0, channel=0, data=[77, 91]),
   midi.NoteOnEvent(tick=480, channel=0, data=[77, 0]),
   midi.NoteOnEvent(tick=0, channel=0, data=[72, 0]),
   midi.NoteOnEvent(tick=0, channel=0, data=[65, 0]),
   midi.NoteOnEvent(tick=160, channel=0, data=[65, 68]),
   midi.NoteOnEvent(tick=0, channel=0, data=[72, 68]),
   midi.NoteOnEvent(tick=0, channel=0, data=[77, 74]),
   midi.NoteOnEvent(tick=160, channel=0, data=[77, 0]),
   midi.NoteOnEvent(tick=0, channel=0, data=[72, 0]),
   midi.NoteOnEvent(tick=0, channel=0, data=[65, 0]),
   midi.NoteOnEvent(tick=0, channel=0, data=[65, 66]),
   midi.NoteOnEvent(tick=0, channel=0, data=[72, 66]),
   midi.NoteOnEvent(tick=0, channel=0, data=[77, 72]),
   midi.NoteOnEvent(tick=160, channel=0, data=[77, 0]),
   midi.NoteOnEvent(tick=0, channel=0, data=[72, 0]),
   midi.NoteOnEvent(tick=0, channel=0, data=[65, 0]),
   midi.NoteOnEvent(tick=0, channel=0, data=[64, 68]),
   midi.NoteOnEvent(tick=0, channel=0, data=[72, 68]),
   midi.NoteOnEvent(tick=0, channel=0, data=[76, 74]),
   midi.NoteOnEvent(tick=120, channel=0, data=[72, 0]),
   midi.NoteOnEvent(tick=0, channel=0, data=[65, 71]),
   midi.NoteOnEvent(tick=0, channel=0, data=[72, 71]),
   midi.NoteOnEvent(tick=0, channel=0, data=[77, 77]),
   midi.NoteOnEvent(tick=10, channel=0, data=[76, 0]),
   midi.NoteOnEvent(tick=0, channel=0, data=[64, 0]),
   midi.NoteOnEvent(tick=110, channel=0, data=[72, 0]),
   midi.NoteOnEvent(tick=0, channel=0, data=[67, 74]),
   midi.NoteOnEvent(tick=0, channel=0, data=[72, 74]),
   midi.NoteOnEvent(tick=0, channel=0, data=[79, 81]),
   midi.NoteOnEvent(tick=10, channel=0, data=[65, 0]),
   midi.NoteOnEvent(tick=0, channel=0, data=[77, 0]),
   midi.NoteOnEvent(tick=80, channel=0, data=[72, 0]),
   midi.NoteOnEvent(tick=0, channel=0, data=[67, 0]),
   midi.NoteOnEvent(tick=0, channel=0, data=[79, 0]),
   midi.NoteOnEvent(tick=90, channel=0, data=[65, 72]),
   midi.NoteOnEvent(tick=0, channel=0, data=[72, 72]),
   midi.NoteOnEvent(tick=0, channel=0, data=[77, 79]),
   midi.NoteOnEvent(tick=50, channel=0, data=[77, 0]),
   midi.NoteOnEvent(tick=0, channel=0, data=[72, 0]),
   midi.NoteOnEvent(tick=0, channel=0, data=[65, 0]),
   midi.NoteOnEvent(tick=10, channel=0, data=[64, 79]),
   midi.NoteOnEvent(tick=0, channel=0, data=[72, 79]),
   midi.NoteOnEvent(tick=0, channel=0, data=[76, 87]),
   midi.NoteOnEvent(tick=240, channel=0, data=[76, 0]),
   midi.NoteOnEvent(tick=0, channel=0, data=[72, 0]),
   midi.NoteOnEvent(tick=0, channel=0, data=[64, 0]),
   midi.NoteOnEvent(tick=240, channel=0, data=[72, 69]),
   midi.NoteOnEvent(tick=0, channel=0, data=[63, 69]),
   midi.NoteOnEvent(tick=0, channel=0, data=[75, 76]),
   midi.NoteOnEvent(tick=1320, channel=0, data=[75, 0]),
   midi.NoteOnEvent(tick=0, channel=0, data=[63, 0]),
   midi.NoteOnEvent(tick=0, channel=0, data=[63, 67]),
   midi.NoteOnEvent(tick=0, channel=0, data=[75, 73]),
   midi.NoteOnEvent(tick=120, channel=0, data=[75, 0]),
   midi.NoteOnEvent(tick=0, channel=0, data=[63, 0]),
   midi.NoteOnEvent(tick=0, channel=0, data=[72, 0]),
   midi.NoteOnEvent(tick=0, channel=0, data=[71, 71]),
   midi.NoteOnEvent(tick=0, channel=0, data=[63, 71]),
   midi.NoteOnEvent(tick=0, channel=0, data=[75, 77]),
   midi.NoteOnEvent(tick=480, channel=0, data=[75, 0]),
   midi.NoteOnEvent(tick=0, channel=0, data=[63, 0]),
   midi.NoteOnEvent(tick=0, channel=0, data=[62, 69]),
   midi.NoteOnEvent(tick=0, channel=0, data=[74, 76]),
   midi.NoteOnEvent(tick=480, channel=0, data=[74, 0]),
   midi.NoteOnEvent(tick=0, channel=0, data=[62, 0]),
   midi.NoteOnEvent(tick=0, channel=0, data=[71, 0]),
   midi.NoteOnEvent(tick=4000, channel=0, data=[71, 81]),
   midi.NoteOnEvent(tick=0, channel=0, data=[83, 89]),
   midi.NoteOnEvent(tick=160, channel=0, data=[84, 92]),
   midi.NoteOnEvent(tick=0, channel=0, data=[72, 84]),
   midi.NoteOnEvent(tick=10, channel=0, data=[83, 0]),
   midi.NoteOnEvent(tick=0, channel=0, data=[71, 0]),
   midi.NoteOnEvent(tick=150, channel=0, data=[73, 87]),
   midi.NoteOnEvent(tick=0, channel=0, data=[85, 95]),
   midi.NoteOnEvent(tick=10, channel=0, data=[84, 0]),
   midi.NoteOnEvent(tick=0, channel=0, data=[72, 0]),
   midi.NoteOnEvent(tick=150, channel=0, data=[74, 95]),
   midi.NoteOnEvent(tick=0, channel=0, data=[86, 105]),
   midi.NoteOnEvent(tick=10, channel=0, data=[73, 0]),
   midi.NoteOnEvent(tick=0, channel=0, data=[85, 0]),
   midi.NoteOnEvent(tick=150, channel=0, data=[74, 0]),
   midi.NoteOnEvent(tick=0, channel=0, data=[86, 0]),
   midi.NoteOnEvent(tick=80, channel=0, data=[75, 94]),
   midi.NoteOnEvent(tick=0, channel=0, data=[87, 103]),
   midi.NoteOnEvent(tick=80, channel=0, data=[87, 0]),
   midi.NoteOnEvent(tick=0, channel=0, data=[75, 0]),
   midi.NoteOnEvent(tick=0, channel=0, data=[75, 107]),
   midi.NoteOnEvent(tick=0, channel=0, data=[87, 116]),
   midi.NoteOnEvent(tick=960, channel=0, data=[87, 0]),
   midi.NoteOnEvent(tick=0, channel=0, data=[75, 0]),
   midi.NoteOnEvent(tick=360, channel=0, data=[67, 49]),
   midi.NoteOnEvent(tick=0, channel=0, data=[72, 49]),
   midi.NoteOnEvent(tick=0, channel=0, data=[75, 49]),
   midi.NoteOnEvent(tick=0, channel=0, data=[79, 54]),
   midi.NoteOnEvent(tick=120, channel=0, data=[79, 0]),
   midi.NoteOnEvent(tick=0, channel=0, data=[67, 0]),
   midi.NoteOnEvent(tick=0, channel=0, data=[72, 0]),
   midi.NoteOnEvent(tick=0, channel=0, data=[75, 0]),
   midi.NoteOnEvent(tick=0, channel=0, data=[79, 54]),
   midi.NoteOnEvent(tick=0, channel=0, data=[67, 49]),
   midi.NoteOnEvent(tick=0, channel=0, data=[75, 49]),
   midi.NoteOnEvent(tick=0, channel=0, data=[72, 49]),
   midi.NoteOnEvent(tick=360, channel=0, data=[72, 0]),
   midi.NoteOnEvent(tick=0, channel=0, data=[79, 0]),
   midi.NoteOnEvent(tick=0, channel=0, data=[67, 0]),
   midi.NoteOnEvent(tick=0, channel=0, data=[75, 0]),
   midi.NoteOnEvent(tick=0, channel=0, data=[79, 54]),
   midi.NoteOnEvent(tick=0, channel=0, data=[72, 49]),
   midi.NoteOnEvent(tick=0, channel=0, data=[75, 49]),
   midi.NoteOnEvent(tick=0, channel=0, data=[67, 49]),
   midi.NoteOnEvent(tick=120, channel=0, data=[67, 0]),
   midi.NoteOnEvent(tick=0, channel=0, data=[79, 0]),
   midi.NoteOnEvent(tick=0, channel=0, data=[72, 0]),
   midi.NoteOnEvent(tick=0, channel=0, data=[75, 0]),
   midi.NoteOnEvent(tick=0, channel=0, data=[68, 57]),
   midi.NoteOnEvent(tick=0, channel=0, data=[72, 57]),
   midi.NoteOnEvent(tick=0, channel=0, data=[75, 57]),
   midi.NoteOnEvent(tick=0, channel=0, data=[80, 62]),
   midi.NoteOnEvent(tick=960, channel=0, data=[80, 0]),
   midi.NoteOnEvent(tick=0, channel=0, data=[68, 0]),
   midi.NoteOnEvent(tick=0, channel=0, data=[72, 0]),
   midi.NoteOnEvent(tick=0, channel=0, data=[75, 0]),
   midi.NoteOnEvent(tick=0, channel=0, data=[79, 77]),
   midi.NoteOnEvent(tick=0, channel=0, data=[72, 71]),
   midi.NoteOnEvent(tick=0, channel=0, data=[75, 71]),
   midi.NoteOnEvent(tick=0, channel=0, data=[67, 71]),
   midi.NoteOnEvent(tick=160, channel=0, data=[67, 0]),
   midi.NoteOnEvent(tick=0, channel=0, data=[79, 0]),
   midi.NoteOnEvent(tick=0, channel=0, data=[72, 0]),
   midi.NoteOnEvent(tick=0, channel=0, data=[75, 0]),
   midi.NoteOnEvent(tick=0, channel=0, data=[71, 71]),
   midi.NoteOnEvent(tick=0, channel=0, data=[83, 77]),
   midi.NoteOnEvent(tick=160, channel=0, data=[84, 79]),
   midi.NoteOnEvent(tick=0, channel=0, data=[72, 72]),
   midi.NoteOnEvent(tick=10, channel=0, data=[83, 0]),
   midi.NoteOnEvent(tick=0, channel=0, data=[71, 0]),
   midi.NoteOnEvent(tick=150, channel=0, data=[73, 81]),
   midi.NoteOnEvent(tick=0, channel=0, data=[85, 89]),
   midi.NoteOnEvent(tick=10, channel=0, data=[84, 0]),
   midi.NoteOnEvent(tick=0, channel=0, data=[72, 0]),
   midi.NoteOnEvent(tick=110, channel=0, data=[74, 84]),
   midi.NoteOnEvent(tick=0, channel=0, data=[86, 92]),
   midi.NoteOnEvent(tick=10, channel=0, data=[73, 0]),
   midi.NoteOnEvent(tick=0, channel=0, data=[85, 0]),
   midi.NoteOnEvent(tick=110, channel=0, data=[74, 0]),
   midi.NoteOnEvent(tick=0, channel=0, data=[77, 94]),
   midi.NoteOnEvent(tick=0, channel=0, data=[89, 103]),
   midi.NoteOnEvent(tick=10, channel=0, data=[86, 0]),
   midi.NoteOnEvent(tick=80, channel=0, data=[89, 0]),
   midi.NoteOnEvent(tick=0, channel=0, data=[77, 0]),
   midi.NoteOnEvent(tick=90, channel=0, data=[87, 88]),
   midi.NoteOnEvent(tick=0, channel=0, data=[75, 80]),
   midi.NoteOnEvent(tick=50, channel=0, data=[75, 0]),
   midi.NoteOnEvent(tick=0, channel=0, data=[87, 0]),
   midi.NoteOnEvent(tick=10, channel=0, data=[75, 100]),
   midi.NoteOnEvent(tick=0, channel=0, data=[87, 110]),
   midi.NoteOnEvent(tick=960, channel=0, data=[87, 0]),
   midi.NoteOnEvent(tick=0, channel=0, data=[75, 0]),
   midi.NoteOnEvent(tick=360, channel=0, data=[79, 59]),
   midi.NoteOnEvent(tick=0, channel=0, data=[72, 54]),
   midi.NoteOnEvent(tick=0, channel=0, data=[75, 54]),
   midi.NoteOnEvent(tick=0, channel=0, data=[67, 54]),
   midi.NoteOnEvent(tick=120, channel=0, data=[67, 0]),
   midi.NoteOnEvent(tick=0, channel=0, data=[79, 0]),
   midi.NoteOnEvent(tick=0, channel=0, data=[72, 0]),
   midi.NoteOnEvent(tick=0, channel=0, data=[75, 0]),
   midi.NoteOnEvent(tick=0, channel=0, data=[79, 61]),
   midi.NoteOnEvent(tick=0, channel=0, data=[67, 56]),
   midi.NoteOnEvent(tick=0, channel=0, data=[72, 56]),
   midi.NoteOnEvent(tick=0, channel=0, data=[75, 56]),
   midi.NoteOnEvent(tick=360, channel=0, data=[75, 0]),
   midi.NoteOnEvent(tick=0, channel=0, data=[79, 0]),
   midi.NoteOnEvent(tick=0, channel=0, data=[67, 0]),
   midi.NoteOnEvent(tick=0, channel=0, data=[72, 0]),
   midi.NoteOnEvent(tick=0, channel=0, data=[67, 64]),
   midi.NoteOnEvent(tick=0, channel=0, data=[72, 64]),
   midi.NoteOnEvent(tick=0, channel=0, data=[75, 64]),
   midi.NoteOnEvent(tick=0, channel=0, data=[79, 70]),
   midi.NoteOnEvent(tick=120, channel=0, data=[79, 0]),
   midi.NoteOnEvent(tick=0, channel=0, data=[67, 0]),
   midi.NoteOnEvent(tick=0, channel=0, data=[72, 0]),
   midi.NoteOnEvent(tick=0, channel=0, data=[75, 0]),
   midi.NoteOnEvent(tick=0, channel=0, data=[69, 75]),
   midi.NoteOnEvent(tick=0, channel=0, data=[75, 75]),
   midi.NoteOnEvent(tick=0, channel=0, data=[81, 82]),
   midi.NoteOnEvent(tick=1920, channel=0, data=[81, 0]),
   midi.NoteOnEvent(tick=0, channel=0, data=[75, 0]),
   midi.NoteOnEvent(tick=0, channel=0, data=[69, 0]),
   midi.NoteOnEvent(tick=0, channel=0, data=[70, 95]),
   midi.NoteOnEvent(tick=0, channel=0, data=[73, 95]),
   midi.NoteOnEvent(tick=0, channel=0, data=[82, 106]),
   midi.NoteOnEvent(tick=960, channel=0, data=[82, 0]),
   midi.NoteOnEvent(tick=0, channel=0, data=[73, 0]),
   midi.NoteOnEvent(tick=0, channel=0, data=[70, 0]),
   midi.NoteOnEvent(tick=0, channel=0, data=[80, 91]),
   midi.NoteOnEvent(tick=0, channel=0, data=[70, 83]),
   midi.NoteOnEvent(tick=0, channel=0, data=[73, 83]),
   midi.NoteOnEvent(tick=0, channel=0, data=[68, 83]),
   midi.NoteOnEvent(tick=480, channel=0, data=[68, 0]),
   midi.NoteOnEvent(tick=0, channel=0, data=[80, 0]),
   midi.NoteOnEvent(tick=0, channel=0, data=[70, 0]),
   midi.NoteOnEvent(tick=0, channel=0, data=[73, 0]),
   midi.NoteOnEvent(tick=0, channel=0, data=[66, 83]),
   midi.NoteOnEvent(tick=0, channel=0, data=[70, 83]),
   midi.NoteOnEvent(tick=0, channel=0, data=[73, 83]),
   midi.NoteOnEvent(tick=0, channel=0, data=[78, 91]),
   midi.NoteOnEvent(tick=360, channel=0, data=[78, 0]),
   midi.NoteOnEvent(tick=0, channel=0, data=[66, 0]),
   midi.NoteOnEvent(tick=0, channel=0, data=[70, 0]),
   midi.NoteOnEvent(tick=0, channel=0, data=[73, 0]),
   midi.NoteOnEvent(tick=0, channel=0, data=[65, 83]),
   midi.NoteOnEvent(tick=0, channel=0, data=[70, 83]),
   midi.NoteOnEvent(tick=0, channel=0, data=[73, 83]),
   midi.NoteOnEvent(tick=0, channel=0, data=[77, 91]),
   midi.NoteOnEvent(tick=120, channel=0, data=[77, 0]),
   midi.NoteOnEvent(tick=0, channel=0, data=[65, 0]),
   midi.NoteOnEvent(tick=0, channel=0, data=[70, 0]),
   midi.NoteOnEvent(tick=0, channel=0, data=[73, 0]),
   midi.NoteOnEvent(tick=0, channel=0, data=[77, 98]),
   midi.NoteOnEvent(tick=0, channel=0, data=[65, 89]),
   midi.NoteOnEvent(tick=0, channel=0, data=[73, 89]),
   midi.NoteOnEvent(tick=0, channel=0, data=[70, 89]),
   midi.NoteOnEvent(tick=960, channel=0, data=[73, 0]),
   midi.NoteOnEvent(tick=0, channel=0, data=[77, 0]),
   midi.NoteOnEvent(tick=0, channel=0, data=[65, 0]),
   midi.NoteOnEvent(tick=0, channel=0, data=[64, 83]),
   midi.NoteOnEvent(tick=0, channel=0, data=[76, 91]),
   midi.NoteOnEvent(tick=480, channel=0, data=[76, 0]),
   midi.NoteOnEvent(tick=0, channel=0, data=[64, 0]),
   midi.NoteOnEvent(tick=0, channel=0, data=[70, 0]),
   midi.NoteOnEvent(tick=480, channel=0, data=[80, 100]),
   midi.NoteOnEvent(tick=0, channel=0, data=[71, 91]),
   midi.NoteOnEvent(tick=0, channel=0, data=[76, 91]),
   midi.NoteOnEvent(tick=0, channel=0, data=[68, 91]),
   midi.NoteOnEvent(tick=960, channel=0, data=[68, 0]),
   midi.NoteOnEvent(tick=0, channel=0, data=[80, 0]),
   midi.NoteOnEvent(tick=0, channel=0, data=[71, 0]),
   midi.NoteOnEvent(tick=0, channel=0, data=[76, 0]),
   midi.NoteOnEvent(tick=0, channel=0, data=[66, 79]),
   midi.NoteOnEvent(tick=0, channel=0, data=[68, 79]),
   midi.NoteOnEvent(tick=0, channel=0, data=[71, 79]),
   midi.NoteOnEvent(tick=0, channel=0, data=[78, 87]),
   midi.NoteOnEvent(tick=480, channel=0, data=[78, 0]),
   midi.NoteOnEvent(tick=0, channel=0, data=[66, 0]),
   midi.NoteOnEvent(tick=0, channel=0, data=[68, 0]),
   midi.NoteOnEvent(tick=0, channel=0, data=[71, 0]),
   midi.NoteOnEvent(tick=0, channel=0, data=[64, 79]),
   midi.NoteOnEvent(tick=0, channel=0, data=[68, 79]),
   midi.NoteOnEvent(tick=0, channel=0, data=[71, 79]),
   midi.NoteOnEvent(tick=0, channel=0, data=[76, 87]),
   midi.NoteOnEvent(tick=360, channel=0, data=[76, 0]),
   midi.NoteOnEvent(tick=0, channel=0, data=[64, 0]),
   midi.NoteOnEvent(tick=0, channel=0, data=[68, 0]),
   midi.NoteOnEvent(tick=0, channel=0, data=[71, 0]),
   midi.NoteOnEvent(tick=0, channel=0, data=[75, 84]),
   midi.NoteOnEvent(tick=0, channel=0, data=[68, 76]),
   midi.NoteOnEvent(tick=0, channel=0, data=[71, 76]),
   midi.NoteOnEvent(tick=0, channel=0, data=[63, 76]),
   midi.NoteOnEvent(tick=120, channel=0, data=[63, 0]),
   midi.NoteOnEvent(tick=0, channel=0, data=[75, 0]),
   midi.NoteOnEvent(tick=0, channel=0, data=[68, 0]),
   midi.NoteOnEvent(tick=0, channel=0, data=[71, 0]),
   midi.NoteOnEvent(tick=0, channel=0, data=[68, 87]),
   midi.NoteOnEvent(tick=0, channel=0, data=[75, 95]),
   midi.NoteOnEvent(tick=0, channel=0, data=[63, 87]),
   midi.NoteOnEvent(tick=0, channel=0, data=[71, 87]),
   midi.NoteOnEvent(tick=960, channel=0, data=[71, 0]),
   midi.NoteOnEvent(tick=0, channel=0, data=[63, 0]),
   midi.NoteOnEvent(tick=0, channel=0, data=[75, 0]),
   midi.NoteOnEvent(tick=0, channel=0, data=[62, 79]),
   midi.NoteOnEvent(tick=0, channel=0, data=[74, 87]),
   midi.NoteOnEvent(tick=480, channel=0, data=[74, 0]),
   midi.NoteOnEvent(tick=0, channel=0, data=[62, 0]),
   midi.NoteOnEvent(tick=0, channel=0, data=[68, 0]),
   midi.NoteOnEvent(tick=480, channel=0, data=[67, 77]),
   midi.NoteOnEvent(tick=0, channel=0, data=[75, 77]),
   midi.NoteOnEvent(tick=0, channel=0, data=[79, 87]),
   midi.NoteOnEvent(tick=1920, channel=0, data=[79, 0]),
   midi.NoteOnEvent(tick=0, channel=0, data=[75, 0]),
   midi.NoteOnEvent(tick=0, channel=0, data=[67, 0]),
   midi.NoteOnEvent(tick=0, channel=0, data=[79, 65]),
   midi.NoteOnEvent(tick=0, channel=0, data=[67, 53]),
   midi.NoteOnEvent(tick=0, channel=0, data=[74, 53]),
   midi.NoteOnEvent(tick=960, channel=0, data=[67, 0]),
   midi.NoteOnEvent(tick=0, channel=0, data=[67, 60]),
   midi.NoteOnEvent(tick=720, channel=0, data=[79, 0]),
   midi.NoteOnEvent(tick=0, channel=0, data=[77, 67]),
   midi.NoteOnEvent(tick=240, channel=0, data=[77, 0]),
   midi.NoteOnEvent(tick=0, channel=0, data=[67, 0]),
   midi.NoteOnEvent(tick=0, channel=0, data=[74, 0]),
   midi.NoteOnEvent(tick=0, channel=0, data=[77, 74]),
   midi.NoteOnEvent(tick=0, channel=0, data=[67, 61]),
   midi.NoteOnEvent(tick=0, channel=0, data=[72, 61]),
   midi.NoteOnEvent(tick=960, channel=0, data=[77, 0]),
   midi.NoteOnEvent(tick=0, channel=0, data=[75, 70]),
   midi.NoteOnEvent(tick=960, channel=0, data=[75, 0]),
   midi.NoteOnEvent(tick=0, channel=0, data=[72, 0]),
   midi.NoteOnEvent(tick=0, channel=0, data=[67, 0]),
   midi.NoteOnEvent(tick=0, channel=0, data=[65, 48]),
   midi.NoteOnEvent(tick=60, channel=0, data=[68, 48]),
   midi.NoteOnEvent(tick=60, channel=0, data=[75, 57]),
   midi.NoteOnEvent(tick=120, channel=0, data=[75, 0]),
   midi.NoteOnEvent(tick=0, channel=0, data=[77, 59]),
   midi.NoteOnEvent(tick=120, channel=0, data=[77, 0]),
   midi.NoteOnEvent(tick=0, channel=0, data=[75, 62]),
   midi.NoteOnEvent(tick=120, channel=0, data=[75, 0]),
   midi.NoteOnEvent(tick=0, channel=0, data=[73, 66]),
   midi.NoteOnEvent(tick=360, channel=0, data=[73, 0]),
   midi.NoteOnEvent(tick=0, channel=0, data=[75, 70]),
   midi.NoteOnEvent(tick=120, channel=0, data=[75, 0]),
   midi.NoteOnEvent(tick=0, channel=0, data=[77, 75]),
   midi.NoteOnEvent(tick=480, channel=0, data=[77, 0]),
   midi.NoteOnEvent(tick=0, channel=0, data=[68, 66]),
   midi.NoteOnEvent(tick=480, channel=0, data=[68, 0]),
   midi.NoteOnEvent(tick=0, channel=0, data=[68, 0]),
   midi.NoteOnEvent(tick=0, channel=0, data=[65, 0]),
   midi.NoteOnEvent(tick=0, channel=0, data=[63, 63]),
   midi.NoteOnEvent(tick=0, channel=0, data=[72, 68]),
   midi.NoteOnEvent(tick=3840, channel=0, data=[72, 0]),
   midi.NoteOnEvent(tick=0, channel=0, data=[63, 0]),
   midi.NoteOnEvent(tick=0, channel=0, data=[72, 67]),
   midi.NoteOnEvent(tick=0, channel=0, data=[62, 60]),
   midi.NoteOnEvent(tick=0, channel=0, data=[65, 60]),
   midi.NoteOnEvent(tick=720, channel=0, data=[72, 0]),
   midi.NoteOnEvent(tick=0, channel=0, data=[71, 60]),
   midi.NoteOnEvent(tick=240, channel=0, data=[71, 0]),
   midi.NoteOnEvent(tick=0, channel=0, data=[74, 67]),
   midi.NoteOnEvent(tick=480, channel=0, data=[74, 0]),
   midi.NoteOnEvent(tick=0, channel=0, data=[65, 0]),
   midi.NoteOnEvent(tick=0, channel=0, data=[62, 0]),
   midi.NoteOnEvent(tick=2400, channel=0, data=[60, 71]),
   midi.NoteOnEvent(tick=0, channel=0, data=[72, 71]),
   midi.NoteOnEvent(tick=120, channel=0, data=[60, 0]),
   midi.NoteOnEvent(tick=1800, channel=0, data=[65, 49]),
   midi.NoteOnEvent(tick=0, channel=0, data=[68, 49]),
   midi.NoteOnEvent(tick=960, channel=0, data=[72, 0]),
   midi.NoteOnEvent(tick=0, channel=0, data=[74, 55]),
   midi.NoteOnEvent(tick=960, channel=0, data=[74, 0]),
   midi.NoteOnEvent(tick=0, channel=0, data=[68, 0]),
   midi.NoteOnEvent(tick=0, channel=0, data=[65, 0]),
   midi.NoteOnEvent(tick=0, channel=0, data=[64, 53]),
   midi.NoteOnEvent(tick=0, channel=0, data=[67, 53]),
   midi.NoteOnEvent(tick=0, channel=0, data=[76, 56]),
   midi.NoteOnEvent(tick=1920, channel=0, data=[76, 0]),
   midi.NoteOnEvent(tick=0, channel=0, data=[67, 0]),
   midi.NoteOnEvent(tick=0, channel=0, data=[64, 0]),
   midi.NoteOnEvent(tick=0, channel=0, data=[60, 41]),
   midi.NoteOnEvent(tick=0, channel=0, data=[67, 41]),
   midi.NoteOnEvent(tick=0, channel=0, data=[72, 50]),
   midi.NoteOnEvent(tick=0, channel=0, data=[68, 41]),
   midi.NoteOnEvent(tick=960, channel=0, data=[67, 0]),
   midi.NoteOnEvent(tick=0, channel=0, data=[65, 46]),
   midi.NoteOnEvent(tick=480, channel=0, data=[72, 0]),
   midi.NoteOnEvent(tick=0, channel=0, data=[71, 51]),
   midi.NoteOnEvent(tick=0, channel=0, data=[74, 55]),
   midi.NoteOnEvent(tick=480, channel=0, data=[74, 0]),
   midi.NoteOnEvent(tick=0, channel=0, data=[68, 0]),
   midi.NoteOnEvent(tick=0, channel=0, data=[65, 0]),
   midi.NoteOnEvent(tick=0, channel=0, data=[60, 0]),
   midi.NoteOnEvent(tick=0, channel=0, data=[71, 0]),
   midi.NoteOnEvent(tick=0, channel=0, data=[64, 54]),
   midi.NoteOnEvent(tick=0, channel=0, data=[76, 64]),
   midi.NoteOnEvent(tick=0, channel=0, data=[67, 54]),
   midi.NoteOnEvent(tick=0, channel=0, data=[72, 54]),
   midi.NoteOnEvent(tick=239, channel=0, data=[92, 89]),
   midi.NoteOnEvent(tick=1, channel=0, data=[72, 0]),
   midi.NoteOnEvent(tick=0, channel=0, data=[67, 0]),
   midi.NoteOnEvent(tick=0, channel=0, data=[64, 0]),
   midi.NoteOnEvent(tick=0, channel=0, data=[76, 0]),
   midi.NoteOnEvent(tick=119, channel=0, data=[92, 0]),
   midi.NoteOnEvent(tick=4, channel=0, data=[91, 88]),
   midi.NoteOnEvent(tick=114, channel=0, data=[88, 85]),
   midi.NoteOnEvent(tick=18, channel=0, data=[91, 0]),
   midi.NoteOnEvent(tick=109, channel=0, data=[84, 84]),
   midi.NoteOnEvent(tick=5, channel=0, data=[88, 0]),
   midi.NoteOnEvent(tick=110, channel=0, data=[85, 91]),
   midi.NoteOnEvent(tick=17, channel=0, data=[84, 0]),
   midi.NoteOnEvent(tick=107, channel=0, data=[84, 87]),
   midi.NoteOnEvent(tick=8, channel=0, data=[85, 0]),
   midi.NoteOnEvent(tick=106, channel=0, data=[82, 89]),
   midi.NoteOnEvent(tick=18, channel=0, data=[84, 0]),
   midi.NoteOnEvent(tick=100, channel=0, data=[79, 87]),
   midi.NoteOnEvent(tick=14, channel=0, data=[82, 0]),
   midi.NoteOnEvent(tick=112, channel=0, data=[80, 89]),
   midi.NoteOnEvent(tick=6, channel=0, data=[79, 0]),
   midi.NoteOnEvent(tick=111, channel=0, data=[79, 88]),
   midi.NoteOnEvent(tick=15, channel=0, data=[80, 0]),
   midi.NoteOnEvent(tick=105, channel=0, data=[76, 88]),
   midi.NoteOnEvent(tick=12, channel=0, data=[79, 0]),
   midi.NoteOnEvent(tick=112, channel=0, data=[72, 87]),
   midi.NoteOnEvent(tick=8, channel=0, data=[76, 0]),
   midi.NoteOnEvent(tick=115, channel=0, data=[73, 91]),
   midi.NoteOnEvent(tick=9, channel=0, data=[72, 0]),
   midi.NoteOnEvent(tick=103, channel=0, data=[72, 88]),
   midi.NoteOnEvent(tick=20, channel=0, data=[73, 0]),
   midi.NoteOnEvent(tick=107, channel=0, data=[70, 89]),
   midi.NoteOnEvent(tick=5, channel=0, data=[72, 0]),
   midi.NoteOnEvent(tick=109, channel=0, data=[67, 88]),
   midi.NoteOnEvent(tick=18, channel=0, data=[70, 0]),
   midi.NoteOnEvent(tick=109, channel=0, data=[68, 95]),
   midi.NoteOnEvent(tick=5, channel=0, data=[67, 0]),
   midi.NoteOnEvent(tick=112, channel=0, data=[67, 92]),
   midi.NoteOnEvent(tick=15, channel=0, data=[68, 0]),
   midi.NoteOnEvent(tick=100, channel=0, data=[64, 90]),
   midi.NoteOnEvent(tick=17, channel=0, data=[67, 0]),
   midi.NoteOnEvent(tick=104, channel=0, data=[60, 89]),
   midi.NoteOnEvent(tick=11, channel=0, data=[64, 0]),
   midi.NoteOnEvent(tick=109, channel=0, data=[61, 93]),
   midi.NoteOnEvent(tick=12, channel=0, data=[60, 0]),
   midi.NoteOnEvent(tick=110, channel=0, data=[60, 92]),
   midi.NoteOnEvent(tick=10, channel=0, data=[61, 0]),
   midi.NoteOnEvent(tick=108, channel=0, data=[58, 91]),
   midi.NoteOnEvent(tick=14, channel=0, data=[60, 0]),
   midi.NoteOnEvent(tick=105, channel=0, data=[55, 90]),
   midi.NoteOnEvent(tick=13, channel=0, data=[58, 0]),
   midi.NoteOnEvent(tick=106, channel=0, data=[56, 94]),
   midi.NoteOnEvent(tick=13, channel=0, data=[55, 0]),
   midi.NoteOnEvent(tick=107, channel=0, data=[55, 92]),
   midi.NoteOnEvent(tick=12, channel=0, data=[56, 0]),
   midi.NoteOnEvent(tick=114, channel=0, data=[52, 91]),
   midi.NoteOnEvent(tick=6, channel=0, data=[55, 0]),
   midi.NoteOnEvent(tick=116, channel=0, data=[48, 90]),
   midi.NoteOnEvent(tick=10, channel=0, data=[52, 0]),
   midi.NoteOnEvent(tick=108, channel=0, data=[49, 94]),
   midi.NoteOnEvent(tick=14, channel=0, data=[48, 0]),
   midi.NoteOnEvent(tick=108, channel=0, data=[48, 103]),
   midi.NoteOnEvent(tick=10, channel=0, data=[49, 0]),
   midi.NoteOnEvent(tick=106, channel=0, data=[60, 110]),
   midi.NoteOnEvent(tick=0, channel=0, data=[53, 100]),
   midi.NoteOnEvent(tick=0, channel=0, data=[57, 110]),
   midi.NoteOnEvent(tick=0, channel=0, data=[48, 100]),
   midi.NoteOnEvent(tick=4, channel=0, data=[48, 0]),
   midi.NoteOnEvent(tick=936, channel=0, data=[57, 0]),
   midi.NoteOnEvent(tick=0, channel=0, data=[60, 0]),
   midi.NoteOnEvent(tick=0, channel=0, data=[53, 0]),
   midi.NoteOnEvent(tick=0, channel=0, data=[48, 0]),
   midi.NoteOnEvent(tick=20, channel=0, data=[60, 108]),
   midi.NoteOnEvent(tick=0, channel=0, data=[53, 97]),
   midi.NoteOnEvent(tick=0, channel=0, data=[56, 108]),
   midi.NoteOnEvent(tick=0, channel=0, data=[48, 97]),
   midi.NoteOnEvent(tick=900, channel=0, data=[48, 0]),
   midi.NoteOnEvent(tick=0, channel=0, data=[60, 0]),
   midi.NoteOnEvent(tick=0, channel=0, data=[53, 0]),
   midi.NoteOnEvent(tick=0, channel=0, data=[56, 0]),
   midi.NoteOnEvent(tick=60, channel=0, data=[60, 109]),
   midi.NoteOnEvent(tick=0, channel=0, data=[48, 99]),
   midi.NoteOnEvent(tick=0, channel=0, data=[53, 99]),
   midi.NoteOnEvent(tick=0, channel=0, data=[55, 109]),
   midi.NoteOnEvent(tick=240, channel=0, data=[55, 0]),
   midi.NoteOnEvent(tick=0, channel=0, data=[60, 0]),
   midi.NoteOnEvent(tick=0, channel=0, data=[48, 0]),
   midi.NoteOnEvent(tick=0, channel=0, data=[53, 0]),
   midi.NoteOnEvent(tick=240, channel=0, data=[60, 102]),
   midi.NoteOnEvent(tick=0, channel=0, data=[52, 93]),
   midi.NoteOnEvent(tick=0, channel=0, data=[55, 102]),
   midi.NoteOnEvent(tick=0, channel=0, data=[48, 93]),
   midi.NoteOnEvent(tick=240, channel=0, data=[48, 0]),
   midi.NoteOnEvent(tick=0, channel=0, data=[60, 0]),
   midi.NoteOnEvent(tick=0, channel=0, data=[52, 0]),
   midi.NoteOnEvent(tick=0, channel=0, data=[55, 0]),
   midi.EndOfTrackEvent(tick=0, data=[])]),
 midi.Track(\
[    midi.NoteOnEvent(tick=235, channel=0, data=[68, 73]),
   midi.NoteOnEvent(tick=121, channel=0, data=[67, 73]),
   midi.NoteOnEvent(tick=6, channel=0, data=[68, 0]),
   midi.NoteOnEvent(tick=110, channel=0, data=[65, 79]),
   midi.NoteOnEvent(tick=16, channel=0, data=[67, 0]),
   midi.NoteOnEvent(tick=110, channel=0, data=[62, 72]),
   midi.NoteOnEvent(tick=6, channel=0, data=[65, 0]),
   midi.NoteOnEvent(tick=112, channel=0, data=[63, 72]),
   midi.NoteOnEvent(tick=14, channel=0, data=[62, 0]),
   midi.NoteOnEvent(tick=105, channel=0, data=[62, 71]),
   midi.NoteOnEvent(tick=13, channel=0, data=[63, 0]),
   midi.NoteOnEvent(tick=55, channel=0, data=[59, 79]),
   midi.NoteOnEvent(tick=6, channel=0, data=[62, 0]),
   midi.NoteOnEvent(tick=112, channel=0, data=[55, 72]),
   midi.NoteOnEvent(tick=6, channel=0, data=[59, 0]),
   midi.NoteOnEvent(tick=114, channel=0, data=[56, 72]),
   midi.NoteOnEvent(tick=12, channel=0, data=[55, 0]),
   midi.NoteOnEvent(tick=107, channel=0, data=[55, 70]),
   midi.NoteOnEvent(tick=13, channel=0, data=[56, 0]),
   midi.NoteOnEvent(tick=100, channel=0, data=[53, 79]),
   midi.NoteOnEvent(tick=19, channel=0, data=[55, 0]),
   midi.NoteOnEvent(tick=109, channel=0, data=[50, 71]),
   midi.NoteOnEvent(tick=4, channel=0, data=[53, 0]),
   midi.NoteOnEvent(tick=114, channel=0, data=[51, 71]),
   midi.NoteOnEvent(tick=14, channel=0, data=[50, 0]),
   midi.NoteOnEvent(tick=104, channel=0, data=[50, 68]),
   midi.NoteOnEvent(tick=14, channel=0, data=[51, 0]),
   midi.NoteOnEvent(tick=32, channel=0, data=[47, 79]),
   midi.NoteOnEvent(tick=14, channel=0, data=[50, 0]),
   midi.NoteOnEvent(tick=103, channel=0, data=[43, 71]),
   midi.NoteOnEvent(tick=15, channel=0, data=[47, 0]),
   midi.NoteOnEvent(tick=106, channel=0, data=[44, 71]),
   midi.NoteOnEvent(tick=11, channel=0, data=[43, 0]),
   midi.NoteOnEvent(tick=112, channel=0, data=[43, 69]),
   midi.NoteOnEvent(tick=9, channel=0, data=[44, 0]),
   midi.NoteOnEvent(tick=108, channel=0, data=[41, 79]),
   midi.NoteOnEvent(tick=15, channel=0, data=[43, 0]),
   midi.NoteOnEvent(tick=99, channel=0, data=[38, 71]),
   midi.NoteOnEvent(tick=12, channel=0, data=[41, 0]),
   midi.NoteOnEvent(tick=117, channel=0, data=[39, 71]),
   midi.NoteOnEvent(tick=3, channel=0, data=[38, 0]),
   midi.NoteOnEvent(tick=111, channel=0, data=[38, 68]),
   midi.NoteOnEvent(tick=18, channel=0, data=[39, 0]),
   midi.NoteOnEvent(tick=99, channel=0, data=[36, 76]),
   midi.NoteOnEvent(tick=15, channel=0, data=[38, 0]),
   midi.NoteOnEvent(tick=104, channel=0, data=[31, 69]),
   midi.NoteOnEvent(tick=39, channel=0, data=[36, 0]),
   midi.NoteOnEvent(tick=81, channel=0, data=[36, 70]),
   midi.NoteOnEvent(tick=38, channel=0, data=[31, 0]),
   midi.NoteOnEvent(tick=86, channel=0, data=[31, 68]),
   midi.NoteOnEvent(tick=34, channel=0, data=[36, 0]),
   midi.NoteOnEvent(tick=0, channel=0, data=[36, 74]),
   midi.NoteOnEvent(tick=37, channel=0, data=[31, 0]),
   midi.NoteOnEvent(tick=84, channel=0, data=[31, 71]),
   midi.NoteOnEvent(tick=37, channel=0, data=[36, 0]),
   midi.NoteOnEvent(tick=83, channel=0, data=[36, 75]),
   midi.NoteOnEvent(tick=38, channel=0, data=[31, 0]),
   midi.NoteOnEvent(tick=82, channel=0, data=[31, 74]),
   midi.NoteOnEvent(tick=38, channel=0, data=[36, 0]),
   midi.NoteOnEvent(tick=77, channel=0, data=[35, 79]),
   midi.NoteOnEvent(tick=17, channel=0, data=[31, 0]),
   midi.NoteOnEvent(tick=25, channel=0, data=[35, 0]),
   midi.NoteOnEvent(tick=126, channel=0, data=[68, 71]),
   midi.NoteOnEvent(tick=73, channel=0, data=[67, 70]),
   midi.NoteOnEvent(tick=15, channel=0, data=[68, 0]),
   midi.NoteOnEvent(tick=104, channel=0, data=[65, 79]),
   midi.NoteOnEvent(tick=13, channel=0, data=[67, 0]),
   midi.NoteOnEvent(tick=104, channel=0, data=[62, 72]),
   midi.NoteOnEvent(tick=15, channel=0, data=[65, 0]),
   midi.NoteOnEvent(tick=111, channel=0, data=[63, 72]),
   midi.NoteOnEvent(tick=6, channel=0, data=[62, 0]),
   midi.NoteOnEvent(tick=116, channel=0, data=[62, 70]),
   midi.NoteOnEvent(tick=10, channel=0, data=[63, 0]),
   midi.NoteOnEvent(tick=37, channel=0, data=[59, 79]),
   midi.NoteOnEvent(tick=12, channel=0, data=[62, 0]),
   midi.NoteOnEvent(tick=103, channel=0, data=[55, 71]),
   midi.NoteOnEvent(tick=15, channel=0, data=[59, 0]),
   midi.NoteOnEvent(tick=103, channel=0, data=[56, 71]),
   midi.NoteOnEvent(tick=14, channel=0, data=[55, 0]),
   midi.NoteOnEvent(tick=112, channel=0, data=[55, 68]),
   midi.NoteOnEvent(tick=6, channel=0, data=[56, 0]),
   midi.NoteOnEvent(tick=112, channel=0, data=[53, 79]),
   midi.NoteOnEvent(tick=14, channel=0, data=[55, 0]),
   midi.NoteOnEvent(tick=109, channel=0, data=[50, 72]),
   midi.NoteOnEvent(tick=9, channel=0, data=[53, 0]),
   midi.NoteOnEvent(tick=111, channel=0, data=[51, 72]),
   midi.NoteOnEvent(tick=12, channel=0, data=[50, 0]),
   midi.NoteOnEvent(tick=103, channel=0, data=[50, 70]),
   midi.NoteOnEvent(tick=17, channel=0, data=[51, 0]),
   midi.NoteOnEvent(tick=72, channel=0, data=[47, 79]),
   midi.NoteOnEvent(tick=16, channel=0, data=[50, 0]),
   midi.NoteOnEvent(tick=108, channel=0, data=[43, 71]),
   midi.NoteOnEvent(tick=8, channel=0, data=[47, 0]),
   midi.NoteOnEvent(tick=109, channel=0, data=[44, 71]),
   midi.NoteOnEvent(tick=15, channel=0, data=[43, 0]),
   midi.NoteOnEvent(tick=112, channel=0, data=[43, 70]),
   midi.NoteOnEvent(tick=5, channel=0, data=[44, 0]),
   midi.NoteOnEvent(tick=108, channel=0, data=[41, 79]),
   midi.NoteOnEvent(tick=19, channel=0, data=[43, 0]),
   midi.NoteOnEvent(tick=106, channel=0, data=[38, 71]),
   midi.NoteOnEvent(tick=6, channel=0, data=[41, 0]),
   midi.NoteOnEvent(tick=115, channel=0, data=[39, 71]),
   midi.NoteOnEvent(tick=11, channel=0, data=[38, 0]),
   midi.NoteOnEvent(tick=110, channel=0, data=[38, 69]),
   midi.NoteOnEvent(tick=11, channel=0, data=[39, 0]),
   midi.NoteOnEvent(tick=109, channel=0, data=[36, 79]),
   midi.NoteOnEvent(tick=12, channel=0, data=[38, 0]),
   midi.NoteOnEvent(tick=104, channel=0, data=[31, 72]),
   midi.NoteOnEvent(tick=42, channel=0, data=[36, 0]),
   midi.NoteOnEvent(tick=76, channel=0, data=[36, 73]),
   midi.NoteOnEvent(tick=40, channel=0, data=[31, 0]),
   midi.NoteOnEvent(tick=78, channel=0, data=[31, 73]),
   midi.NoteOnEvent(tick=14, channel=0, data=[36, 0]),
   midi.NoteOnEvent(tick=81, channel=0, data=[36, 76]),
   midi.NoteOnEvent(tick=35, channel=0, data=[31, 0]),
   midi.NoteOnEvent(tick=89, channel=0, data=[31, 76]),
   midi.NoteOnEvent(tick=32, channel=0, data=[36, 0]),
   midi.NoteOnEvent(tick=79, channel=0, data=[36, 79]),
   midi.NoteOnEvent(tick=47, channel=0, data=[31, 0]),
   midi.NoteOnEvent(tick=77, channel=0, data=[31, 76]),
   midi.NoteOnEvent(tick=34, channel=0, data=[36, 0]),
   midi.NoteOnEvent(tick=83, channel=0, data=[35, 79]),
   midi.NoteOnEvent(tick=15, channel=0, data=[31, 0]),
   midi.NoteOnEvent(tick=59, channel=0, data=[35, 0]),
   midi.NoteOnEvent(tick=126, channel=0, data=[80, 79]),
   midi.NoteOnEvent(tick=121, channel=0, data=[79, 71]),
   midi.NoteOnEvent(tick=11, channel=0, data=[80, 0]),
   midi.NoteOnEvent(tick=108, channel=0, data=[77, 79]),
   midi.NoteOnEvent(tick=13, channel=0, data=[79, 0]),
   midi.NoteOnEvent(tick=105, channel=0, data=[74, 71]),
   midi.NoteOnEvent(tick=14, channel=0, data=[77, 0]),
   midi.NoteOnEvent(tick=102, channel=0, data=[75, 71]),
   midi.NoteOnEvent(tick=16, channel=0, data=[74, 0]),
   midi.NoteOnEvent(tick=107, channel=0, data=[74, 70]),
   midi.NoteOnEvent(tick=9, channel=0, data=[75, 0]),
   midi.NoteOnEvent(tick=116, channel=0, data=[71, 79]),
   midi.NoteOnEvent(tick=7, channel=0, data=[74, 0]),
   midi.NoteOnEvent(tick=104, channel=0, data=[67, 70]),
   midi.NoteOnEvent(tick=21, channel=0, data=[71, 0]),
   midi.NoteOnEvent(tick=104, channel=0, data=[68, 70]),
   midi.NoteOnEvent(tick=7, channel=0, data=[67, 0]),
   midi.NoteOnEvent(tick=115, channel=0, data=[67, 69]),
   midi.NoteOnEvent(tick=10, channel=0, data=[68, 0]),
   midi.NoteOnEvent(tick=107, channel=0, data=[65, 79]),
   midi.NoteOnEvent(tick=15, channel=0, data=[67, 0]),
   midi.NoteOnEvent(tick=102, channel=0, data=[62, 71]),
   midi.NoteOnEvent(tick=15, channel=0, data=[65, 0]),
   midi.NoteOnEvent(tick=114, channel=0, data=[63, 71]),
   midi.NoteOnEvent(tick=3, channel=0, data=[62, 0]),
   midi.NoteOnEvent(tick=117, channel=0, data=[62, 69]),
   midi.NoteOnEvent(tick=12, channel=0, data=[63, 0]),
   midi.NoteOnEvent(tick=104, channel=0, data=[59, 79]),
   midi.NoteOnEvent(tick=16, channel=0, data=[62, 0]),
   midi.NoteOnEvent(tick=101, channel=0, data=[55, 71]),
   midi.NoteOnEvent(tick=15, channel=0, data=[59, 0]),
   midi.NoteOnEvent(tick=107, channel=0, data=[56, 71]),
   midi.NoteOnEvent(tick=10, channel=0, data=[55, 0]),
   midi.NoteOnEvent(tick=109, channel=0, data=[55, 69]),
   midi.NoteOnEvent(tick=13, channel=0, data=[56, 0]),
   midi.NoteOnEvent(tick=112, channel=0, data=[53, 79]),
   midi.NoteOnEvent(tick=7, channel=0, data=[55, 0]),
   midi.NoteOnEvent(tick=107, channel=0, data=[50, 71]),
   midi.NoteOnEvent(tick=18, channel=0, data=[53, 0]),
   midi.NoteOnEvent(tick=104, channel=0, data=[51, 71]),
   midi.NoteOnEvent(tick=10, channel=0, data=[50, 0]),
   midi.NoteOnEvent(tick=107, channel=0, data=[50, 69]),
   midi.NoteOnEvent(tick=15, channel=0, data=[51, 0]),
   midi.NoteOnEvent(tick=113, channel=0, data=[47, 79]),
   midi.NoteOnEvent(tick=4, channel=0, data=[50, 0]),
   midi.NoteOnEvent(tick=109, channel=0, data=[43, 71]),
   midi.NoteOnEvent(tick=19, channel=0, data=[47, 0]),
   midi.NoteOnEvent(tick=106, channel=0, data=[44, 71]),
   midi.NoteOnEvent(tick=7, channel=0, data=[43, 0]),
   midi.NoteOnEvent(tick=111, channel=0, data=[43, 69]),
   midi.NoteOnEvent(tick=14, channel=0, data=[44, 0]),
   midi.NoteOnEvent(tick=102, channel=0, data=[41, 79]),
   midi.NoteOnEvent(tick=16, channel=0, data=[43, 0]),
   midi.NoteOnEvent(tick=110, channel=0, data=[38, 71]),
   midi.NoteOnEvent(tick=6, channel=0, data=[41, 0]),
   midi.NoteOnEvent(tick=115, channel=0, data=[39, 71]),
   midi.NoteOnEvent(tick=11, channel=0, data=[38, 0]),
   midi.NoteOnEvent(tick=104, channel=0, data=[38, 70]),
   midi.NoteOnEvent(tick=17, channel=0, data=[39, 0]),
   midi.NoteOnEvent(tick=104, channel=0, data=[36, 62]),
   midi.NoteOnEvent(tick=11, channel=0, data=[38, 0]),
   midi.NoteOnEvent(tick=109, channel=0, data=[36, 0]),
   midi.NoteOnEvent(tick=4, channel=0, data=[35, 62]),
   midi.NoteOnEvent(tick=111, channel=0, data=[43, 67]),
   midi.NoteOnEvent(tick=9, channel=0, data=[35, 0]),
   midi.NoteOnEvent(tick=111, channel=0, data=[43, 0]),
   midi.NoteOnEvent(tick=10, channel=0, data=[41, 66]),
   midi.NoteOnEvent(tick=116, channel=0, data=[39, 65]),
   midi.NoteOnEvent(tick=16, channel=0, data=[41, 0]),
   midi.NoteOnEvent(tick=98, channel=0, data=[38, 65]),
   midi.NoteOnEvent(tick=18, channel=0, data=[39, 0]),
   midi.NoteOnEvent(tick=107, channel=0, data=[39, 64]),
   midi.NoteOnEvent(tick=7, channel=0, data=[38, 0]),
   midi.NoteOnEvent(tick=110, channel=0, data=[38, 63]),
   midi.NoteOnEvent(tick=15, channel=0, data=[39, 0]),
   midi.NoteOnEvent(tick=112, channel=0, data=[36, 63]),
   midi.NoteOnEvent(tick=5, channel=0, data=[38, 0]),
   midi.NoteOnEvent(tick=112, channel=0, data=[35, 62]),
   midi.NoteOnEvent(tick=15, channel=0, data=[36, 0]),
   midi.NoteOnEvent(tick=105, channel=0, data=[35, 0]),
   midi.NoteOnEvent(tick=1, channel=0, data=[46, 70]),
   midi.NoteOnEvent(tick=115, channel=0, data=[44, 68]),
   midi.NoteOnEvent(tick=17, channel=0, data=[46, 0]),
   midi.NoteOnEvent(tick=110, channel=0, data=[43, 69]),
   midi.NoteOnEvent(tick=5, channel=0, data=[44, 0]),
   midi.NoteOnEvent(tick=107, channel=0, data=[41, 69]),
   midi.NoteOnEvent(tick=20, channel=0, data=[43, 0]),
   midi.NoteOnEvent(tick=100, channel=0, data=[43, 68]),
   midi.NoteOnEvent(tick=12, channel=0, data=[41, 0]),
   midi.NoteOnEvent(tick=115, channel=0, data=[41, 68]),
   midi.NoteOnEvent(tick=5, channel=0, data=[43, 0]),
   midi.NoteOnEvent(tick=110, channel=0, data=[39, 67]),
   midi.NoteOnEvent(tick=17, channel=0, data=[41, 0]),
   midi.NoteOnEvent(tick=110, channel=0, data=[38, 67]),
   midi.NoteOnEvent(tick=5, channel=0, data=[39, 0]),
   midi.NoteOnEvent(tick=108, channel=0, data=[51, 76]),
   midi.NoteOnEvent(tick=7, channel=0, data=[38, 0]),
   midi.NoteOnEvent(tick=113, channel=0, data=[50, 73]),
   midi.NoteOnEvent(tick=12, channel=0, data=[51, 0]),
   midi.NoteOnEvent(tick=106, channel=0, data=[48, 74]),
   midi.NoteOnEvent(tick=14, channel=0, data=[50, 0]),
   midi.NoteOnEvent(tick=113, channel=0, data=[47, 75]),
   midi.NoteOnEvent(tick=5, channel=0, data=[48, 0]),
   midi.NoteOnEvent(tick=116, channel=0, data=[48, 76]),
   midi.NoteOnEvent(tick=11, channel=0, data=[47, 0]),
   midi.NoteOnEvent(tick=107, channel=0, data=[47, 77]),
   midi.NoteOnEvent(tick=14, channel=0, data=[48, 0]),
   midi.NoteOnEvent(tick=105, channel=0, data=[44, 79]),
   midi.NoteOnEvent(tick=13, channel=0, data=[47, 0]),
   midi.NoteOnEvent(tick=106, channel=0, data=[43, 80]),
   midi.NoteOnEvent(tick=10, channel=0, data=[44, 0]),
   midi.NoteOnEvent(tick=104, channel=0, data=[44, 81]),
   midi.NoteOnEvent(tick=18, channel=0, data=[43, 0]),
   midi.NoteOnEvent(tick=101, channel=0, data=[43, 83]),
   midi.NoteOnEvent(tick=13, channel=0, data=[44, 0]),
   midi.NoteOnEvent(tick=106, channel=0, data=[41, 83]),
   midi.NoteOnEvent(tick=13, channel=0, data=[43, 0]),
   midi.NoteOnEvent(tick=107, channel=0, data=[39, 85]),
   midi.NoteOnEvent(tick=12, channel=0, data=[41, 0]),
   midi.NoteOnEvent(tick=116, channel=0, data=[41, 88]),
   midi.NoteOnEvent(tick=4, channel=0, data=[39, 0]),
   midi.NoteOnEvent(tick=117, channel=0, data=[39, 90]),
   midi.NoteOnEvent(tick=11, channel=0, data=[41, 0]),
   midi.NoteOnEvent(tick=42, channel=0, data=[36, 92]),
   midi.NoteOnEvent(tick=20, channel=0, data=[39, 0]),
   midi.NoteOnEvent(tick=67, channel=0, data=[36, 0]),
   midi.NoteOnEvent(tick=5, channel=0, data=[43, 49]),
   midi.NoteOnEvent(tick=114, channel=0, data=[48, 50]),
   midi.NoteOnEvent(tick=18, channel=0, data=[43, 0]),
   midi.NoteOnEvent(tick=103, channel=0, data=[50, 52]),
   midi.NoteOnEvent(tick=11, channel=0, data=[48, 0]),
   midi.NoteOnEvent(tick=84, channel=0, data=[51, 54]),
   midi.NoteOnEvent(tick=8, channel=0, data=[50, 0]),
   midi.NoteOnEvent(tick=115, channel=0, data=[55, 55]),
   midi.NoteOnEvent(tick=8, channel=0, data=[51, 0]),
   midi.NoteOnEvent(tick=111, channel=0, data=[60, 57]),
   midi.NoteOnEvent(tick=13, channel=0, data=[55, 0]),
   midi.NoteOnEvent(tick=105, channel=0, data=[62, 59]),
   midi.NoteOnEvent(tick=14, channel=0, data=[60, 0]),
   midi.NoteOnEvent(tick=44, channel=0, data=[63, 60]),
   midi.NoteOnEvent(tick=12, channel=0, data=[62, 0]),
   midi.NoteOnEvent(tick=107, channel=0, data=[62, 59]),
   midi.NoteOnEvent(tick=8, channel=0, data=[63, 0]),
   midi.NoteOnEvent(tick=110, channel=0, data=[60, 57]),
   midi.NoteOnEvent(tick=14, channel=0, data=[62, 0]),
   midi.NoteOnEvent(tick=111, channel=0, data=[55, 57]),
   midi.NoteOnEvent(tick=7, channel=0, data=[60, 0]),
   midi.NoteOnEvent(tick=33, channel=0, data=[51, 57]),
   midi.NoteOnEvent(tick=16, channel=0, data=[55, 0]),
   midi.NoteOnEvent(tick=91, channel=0, data=[50, 56]),
   midi.NoteOnEvent(tick=11, channel=0, data=[51, 0]),
   midi.NoteOnEvent(tick=107, channel=0, data=[48, 55]),
   midi.NoteOnEvent(tick=14, channel=0, data=[50, 0]),
   midi.NoteOnEvent(tick=110, channel=0, data=[43, 54]),
   midi.NoteOnEvent(tick=8, channel=0, data=[48, 0]),
   midi.NoteOnEvent(tick=0, channel=0, data=[36, 56]),
   midi.NoteOnEvent(tick=13, channel=0, data=[43, 0]),
   midi.NoteOnEvent(tick=108, channel=0, data=[43, 59]),
   midi.NoteOnEvent(tick=11, channel=0, data=[36, 0]),
   midi.NoteOnEvent(tick=104, channel=0, data=[48, 62]),
   midi.NoteOnEvent(tick=17, channel=0, data=[43, 0]),
   midi.NoteOnEvent(tick=107, channel=0, data=[50, 63]),
   midi.NoteOnEvent(tick=8, channel=0, data=[48, 0]),
   midi.NoteOnEvent(tick=26, channel=0, data=[51, 68]),
   midi.NoteOnEvent(tick=7, channel=0, data=[50, 0]),
   midi.NoteOnEvent(tick=94, channel=0, data=[50, 66]),
   midi.NoteOnEvent(tick=15, channel=0, data=[51, 0]),
   midi.NoteOnEvent(tick=108, channel=0, data=[48, 63]),
   midi.NoteOnEvent(tick=9, channel=0, data=[50, 0]),
   midi.NoteOnEvent(tick=103, channel=0, data=[43, 59]),
   midi.NoteOnEvent(tick=20, channel=0, data=[48, 0]),
   midi.NoteOnEvent(tick=32, channel=0, data=[43, 0]),
   midi.NoteOnEvent(tick=1, channel=0, data=[36, 56]),
   midi.NoteOnEvent(tick=74, channel=0, data=[43, 59]),
   midi.NoteOnEvent(tick=14, channel=0, data=[36, 0]),
   midi.NoteOnEvent(tick=115, channel=0, data=[48, 63]),
   midi.NoteOnEvent(tick=3, channel=0, data=[43, 0]),
   midi.NoteOnEvent(tick=112, channel=0, data=[50, 65]),
   midi.NoteOnEvent(tick=17, channel=0, data=[48, 0]),
   midi.NoteOnEvent(tick=108, channel=0, data=[51, 67]),
   midi.NoteOnEvent(tick=7, channel=0, data=[50, 0]),
   midi.NoteOnEvent(tick=104, channel=0, data=[50, 65]),
   midi.NoteOnEvent(tick=21, channel=0, data=[51, 0]),
   midi.NoteOnEvent(tick=104, channel=0, data=[48, 63]),
   midi.NoteOnEvent(tick=7, channel=0, data=[50, 0]),
   midi.NoteOnEvent(tick=108, channel=0, data=[43, 61]),
   midi.NoteOnEvent(tick=17, channel=0, data=[48, 0]),
   midi.NoteOnEvent(tick=81, channel=0, data=[43, 0]),
   midi.NoteOnEvent(tick=3, channel=0, data=[36, 59]),
   midi.NoteOnEvent(tick=125, channel=0, data=[43, 46]),
   midi.NoteOnEvent(tick=6, channel=0, data=[36, 0]),
   midi.NoteOnEvent(tick=104, channel=0, data=[48, 47]),
   midi.NoteOnEvent(tick=22, channel=0, data=[43, 0]),
   midi.NoteOnEvent(tick=107, channel=0, data=[50, 49]),
   midi.NoteOnEvent(tick=3, channel=0, data=[48, 0]),
   midi.NoteOnEvent(tick=111, channel=0, data=[51, 51]),
   midi.NoteOnEvent(tick=18, channel=0, data=[50, 0]),
   midi.NoteOnEvent(tick=101, channel=0, data=[55, 52]),
   midi.NoteOnEvent(tick=13, channel=0, data=[51, 0]),
   midi.NoteOnEvent(tick=113, channel=0, data=[60, 54]),
   midi.NoteOnEvent(tick=6, channel=0, data=[55, 0]),
   midi.NoteOnEvent(tick=41, channel=0, data=[62, 55]),
   midi.NoteOnEvent(tick=16, channel=0, data=[60, 0]),
   midi.NoteOnEvent(tick=102, channel=0, data=[63, 57]),
   midi.NoteOnEvent(tick=11, channel=0, data=[62, 0]),
   midi.NoteOnEvent(tick=110, channel=0, data=[62, 55]),
   midi.NoteOnEvent(tick=8, channel=0, data=[63, 0]),
   midi.NoteOnEvent(tick=112, channel=0, data=[60, 54]),
   midi.NoteOnEvent(tick=12, channel=0, data=[62, 0]),
   midi.NoteOnEvent(tick=106, channel=0, data=[55, 52]),
   midi.NoteOnEvent(tick=14, channel=0, data=[60, 0]),
   midi.NoteOnEvent(tick=107, channel=0, data=[51, 50]),
   midi.NoteOnEvent(tick=11, channel=0, data=[55, 0]),
   midi.NoteOnEvent(tick=110, channel=0, data=[50, 49]),
   midi.NoteOnEvent(tick=11, channel=0, data=[51, 0]),
   midi.NoteOnEvent(tick=109, channel=0, data=[48, 47]),
   midi.NoteOnEvent(tick=12, channel=0, data=[50, 0]),
   midi.NoteOnEvent(tick=111, channel=0, data=[43, 43]),
   midi.NoteOnEvent(tick=9, channel=0, data=[48, 0]),
   midi.NoteOnEvent(tick=4, channel=0, data=[43, 0]),
   midi.NoteOnEvent(tick=0, channel=0, data=[36, 33]),
   midi.NoteOnEvent(tick=117, channel=0, data=[43, 36]),
   midi.NoteOnEvent(tick=15, channel=0, data=[36, 0]),
   midi.NoteOnEvent(tick=106, channel=0, data=[48, 39]),
   midi.NoteOnEvent(tick=11, channel=0, data=[43, 0]),
   midi.NoteOnEvent(tick=108, channel=0, data=[50, 40]),
   midi.NoteOnEvent(tick=13, channel=0, data=[48, 0]),
   midi.NoteOnEvent(tick=105, channel=0, data=[51, 45]),
   midi.NoteOnEvent(tick=14, channel=0, data=[50, 0]),
   midi.NoteOnEvent(tick=104, channel=0, data=[50, 46]),
   midi.NoteOnEvent(tick=14, channel=0, data=[51, 0]),
   midi.NoteOnEvent(tick=112, channel=0, data=[48, 45]),
   midi.NoteOnEvent(tick=6, channel=0, data=[50, 0]),
   midi.NoteOnEvent(tick=8, channel=0, data=[43, 43]),
   midi.NoteOnEvent(tick=14, channel=0, data=[48, 0]),
   midi.NoteOnEvent(tick=106, channel=0, data=[43, 0]),
   midi.NoteOnEvent(tick=3, channel=0, data=[36, 40]),
   midi.NoteOnEvent(tick=75, channel=0, data=[43, 45]),
   midi.NoteOnEvent(tick=19, channel=0, data=[36, 0]),
   midi.NoteOnEvent(tick=101, channel=0, data=[48, 50]),
   midi.NoteOnEvent(tick=12, channel=0, data=[43, 0]),
   midi.NoteOnEvent(tick=112, channel=0, data=[50, 54]),
   midi.NoteOnEvent(tick=8, channel=0, data=[48, 0]),
   midi.NoteOnEvent(tick=113, channel=0, data=[51, 59]),
   midi.NoteOnEvent(tick=11, channel=0, data=[50, 0]),
   midi.NoteOnEvent(tick=108, channel=0, data=[50, 57]),
   midi.NoteOnEvent(tick=13, channel=0, data=[51, 0]),
   midi.NoteOnEvent(tick=104, channel=0, data=[48, 57]),
   midi.NoteOnEvent(tick=15, channel=0, data=[50, 0]),
   midi.NoteOnEvent(tick=107, channel=0, data=[43, 55]),
   midi.NoteOnEvent(tick=10, channel=0, data=[48, 0]),
   midi.NoteOnEvent(tick=59, channel=0, data=[36, 53]),
   midi.NoteOnEvent(tick=5, channel=0, data=[43, 0]),
   midi.NoteOnEvent(tick=123, channel=0, data=[43, 51]),
   midi.NoteOnEvent(tick=4, channel=0, data=[36, 0]),
   midi.NoteOnEvent(tick=114, channel=0, data=[48, 53]),
   midi.NoteOnEvent(tick=14, channel=0, data=[43, 0]),
   midi.NoteOnEvent(tick=106, channel=0, data=[50, 54]),
   midi.NoteOnEvent(tick=12, channel=0, data=[48, 0]),
   midi.NoteOnEvent(tick=109, channel=0, data=[51, 56]),
   midi.NoteOnEvent(tick=11, channel=0, data=[50, 0]),
   midi.NoteOnEvent(tick=110, channel=0, data=[55, 57]),
   midi.NoteOnEvent(tick=11, channel=0, data=[51, 0]),
   midi.NoteOnEvent(tick=102, channel=0, data=[60, 60]),
   midi.NoteOnEvent(tick=19, channel=0, data=[55, 0]),
   midi.NoteOnEvent(tick=106, channel=0, data=[62, 62]),
   midi.NoteOnEvent(tick=7, channel=0, data=[60, 0]),
   midi.NoteOnEvent(tick=4, channel=0, data=[63, 64]),
   midi.NoteOnEvent(tick=9, channel=0, data=[62, 0]),
   midi.NoteOnEvent(tick=112, channel=0, data=[62, 61]),
   midi.NoteOnEvent(tick=11, channel=0, data=[63, 0]),
   midi.NoteOnEvent(tick=105, channel=0, data=[60, 59]),
   midi.NoteOnEvent(tick=16, channel=0, data=[62, 0]),
   midi.NoteOnEvent(tick=106, channel=0, data=[55, 57]),
   midi.NoteOnEvent(tick=10, channel=0, data=[60, 0]),
   midi.NoteOnEvent(tick=102, channel=0, data=[51, 55]),
   midi.NoteOnEvent(tick=20, channel=0, data=[55, 0]),
   midi.NoteOnEvent(tick=107, channel=0, data=[50, 52]),
   midi.NoteOnEvent(tick=5, channel=0, data=[51, 0]),
   midi.NoteOnEvent(tick=118, channel=0, data=[48, 50]),
   midi.NoteOnEvent(tick=9, channel=0, data=[50, 0]),
   midi.NoteOnEvent(tick=104, channel=0, data=[43, 48]),
   midi.NoteOnEvent(tick=3, channel=0, data=[48, 0]),
   midi.NoteOnEvent(tick=101, channel=0, data=[43, 0]),
   midi.NoteOnEvent(tick=1, channel=0, data=[36, 77]),
   midi.NoteOnEvent(tick=117, channel=0, data=[42, 53]),
   midi.NoteOnEvent(tick=15, channel=0, data=[36, 0]),
   midi.NoteOnEvent(tick=103, channel=0, data=[48, 56]),
   midi.NoteOnEvent(tick=14, channel=0, data=[42, 0]),
   midi.NoteOnEvent(tick=106, channel=0, data=[50, 54]),
   midi.NoteOnEvent(tick=12, channel=0, data=[48, 0]),
   midi.NoteOnEvent(tick=33, channel=0, data=[51, 56]),
   midi.NoteOnEvent(tick=4, channel=0, data=[50, 0]),
   midi.NoteOnEvent(tick=113, channel=0, data=[50, 57]),
   midi.NoteOnEvent(tick=12, channel=0, data=[51, 0]),
   midi.NoteOnEvent(tick=107, channel=0, data=[48, 57]),
   midi.NoteOnEvent(tick=13, channel=0, data=[50, 0]),
   midi.NoteOnEvent(tick=100, channel=0, data=[42, 59]),
   midi.NoteOnEvent(tick=19, channel=0, data=[48, 0]),
   midi.NoteOnEvent(tick=53, channel=0, data=[42, 0]),
   midi.NoteOnEvent(tick=2, channel=0, data=[36, 77]),
   midi.NoteOnEvent(tick=115, channel=0, data=[42, 56]),
   midi.NoteOnEvent(tick=15, channel=0, data=[36, 0]),
   midi.NoteOnEvent(tick=105, channel=0, data=[48, 59]),
   midi.NoteOnEvent(tick=12, channel=0, data=[42, 0]),
   midi.NoteOnEvent(tick=115, channel=0, data=[50, 57]),
   midi.NoteOnEvent(tick=5, channel=0, data=[48, 0]),
   midi.NoteOnEvent(tick=33, channel=0, data=[51, 57]),
   midi.NoteOnEvent(tick=10, channel=0, data=[50, 0]),
   midi.NoteOnEvent(tick=103, channel=0, data=[50, 60]),
   midi.NoteOnEvent(tick=16, channel=0, data=[51, 0]),
   midi.NoteOnEvent(tick=103, channel=0, data=[48, 62]),
   midi.NoteOnEvent(tick=13, channel=0, data=[50, 0]),
   midi.NoteOnEvent(tick=107, channel=0, data=[42, 60]),
   midi.NoteOnEvent(tick=12, channel=0, data=[48, 0]),
   midi.NoteOnEvent(tick=61, channel=0, data=[35, 70]),
   midi.NoteOnEvent(tick=1, channel=0, data=[42, 0]),
   midi.NoteOnEvent(tick=120, channel=0, data=[47, 54]),
   midi.NoteOnEvent(tick=10, channel=0, data=[35, 0]),
   midi.NoteOnEvent(tick=110, channel=0, data=[50, 57]),
   midi.NoteOnEvent(tick=12, channel=0, data=[47, 0]),
   midi.NoteOnEvent(tick=104, channel=0, data=[55, 61]),
   midi.NoteOnEvent(tick=16, channel=0, data=[50, 0]),
   midi.NoteOnEvent(tick=12, channel=0, data=[62, 61]),
   midi.NoteOnEvent(tick=10, channel=0, data=[55, 0]),
   midi.NoteOnEvent(tick=115, channel=0, data=[55, 60]),
   midi.NoteOnEvent(tick=7, channel=0, data=[62, 0]),
   midi.NoteOnEvent(tick=108, channel=0, data=[50, 59]),
   midi.NoteOnEvent(tick=17, channel=0, data=[55, 0]),
   midi.NoteOnEvent(tick=109, channel=0, data=[47, 61]),
   midi.NoteOnEvent(tick=6, channel=0, data=[50, 0]),
   midi.NoteOnEvent(tick=8, channel=0, data=[47, 0]),
   midi.NoteOnEvent(tick=1, channel=0, data=[34, 57]),
   midi.NoteOnEvent(tick=119, channel=0, data=[46, 59]),
   midi.NoteOnEvent(tick=13, channel=0, data=[34, 0]),
   midi.NoteOnEvent(tick=105, channel=0, data=[49, 62]),
   midi.NoteOnEvent(tick=14, channel=0, data=[46, 0]),
   midi.NoteOnEvent(tick=102, channel=0, data=[55, 64]),
   midi.NoteOnEvent(tick=16, channel=0, data=[49, 0]),
   midi.NoteOnEvent(tick=5, channel=0, data=[61, 67]),
   midi.NoteOnEvent(tick=5, channel=0, data=[55, 0]),
   midi.NoteOnEvent(tick=106, channel=0, data=[55, 65]),
   midi.NoteOnEvent(tick=21, channel=0, data=[61, 0]),
   midi.NoteOnEvent(tick=98, channel=0, data=[49, 66]),
   midi.NoteOnEvent(tick=13, channel=0, data=[55, 0]),
   midi.NoteOnEvent(tick=115, channel=0, data=[46, 65]),
   midi.NoteOnEvent(tick=4, channel=0, data=[49, 0]),
   midi.NoteOnEvent(tick=0, channel=0, data=[33, 60]),
   midi.NoteOnEvent(tick=3, channel=0, data=[46, 0]),
   midi.NoteOnEvent(tick=118, channel=0, data=[45, 62]),
   midi.NoteOnEvent(tick=11, channel=0, data=[33, 0]),
   midi.NoteOnEvent(tick=113, channel=0, data=[48, 63]),
   midi.NoteOnEvent(tick=8, channel=0, data=[45, 0]),
   midi.NoteOnEvent(tick=102, channel=0, data=[53, 65]),
   midi.NoteOnEvent(tick=22, channel=0, data=[48, 0]),
   midi.NoteOnEvent(tick=4, channel=0, data=[60, 67]),
   midi.NoteOnEvent(tick=3, channel=0, data=[53, 0]),
   midi.NoteOnEvent(tick=115, channel=0, data=[53, 60]),
   midi.NoteOnEvent(tick=14, channel=0, data=[60, 0]),
   midi.NoteOnEvent(tick=102, channel=0, data=[48, 62]),
   midi.NoteOnEvent(tick=16, channel=0, data=[53, 0]),
   midi.NoteOnEvent(tick=102, channel=0, data=[45, 60]),
   midi.NoteOnEvent(tick=14, channel=0, data=[48, 0]),
   midi.NoteOnEvent(tick=59, channel=0, data=[45, 0]),
   midi.NoteOnEvent(tick=0, channel=0, data=[32, 57]),
   midi.NoteOnEvent(tick=117, channel=0, data=[44, 59]),
   midi.NoteOnEvent(tick=15, channel=0, data=[32, 0]),
   midi.NoteOnEvent(tick=106, channel=0, data=[48, 59]),
   midi.NoteOnEvent(tick=11, channel=0, data=[44, 0]),
   midi.NoteOnEvent(tick=116, channel=0, data=[53, 56]),
   midi.NoteOnEvent(tick=5, channel=0, data=[48, 0]),
   midi.NoteOnEvent(tick=111, channel=0, data=[60, 61]),
   midi.NoteOnEvent(tick=16, channel=0, data=[53, 0]),
   midi.NoteOnEvent(tick=105, channel=0, data=[53, 57]),
   midi.NoteOnEvent(tick=11, channel=0, data=[60, 0]),
   midi.NoteOnEvent(tick=103, channel=0, data=[48, 55]),
   midi.NoteOnEvent(tick=18, channel=0, data=[53, 0]),
   midi.NoteOnEvent(tick=106, channel=0, data=[44, 51]),
   midi.NoteOnEvent(tick=8, channel=0, data=[48, 0]),
   midi.NoteOnEvent(tick=62, channel=0, data=[31, 47]),
   midi.NoteOnEvent(tick=1, channel=0, data=[44, 0]),
   midi.NoteOnEvent(tick=120, channel=0, data=[43, 47]),
   midi.NoteOnEvent(tick=11, channel=0, data=[31, 0]),
   midi.NoteOnEvent(tick=112, channel=0, data=[48, 48]),
   midi.NoteOnEvent(tick=9, channel=0, data=[43, 0]),
   midi.NoteOnEvent(tick=108, channel=0, data=[47, 47]),
   midi.NoteOnEvent(tick=15, channel=0, data=[48, 0]),
   midi.NoteOnEvent(tick=104, channel=0, data=[49, 51]),
   midi.NoteOnEvent(tick=13, channel=0, data=[47, 0]),
   midi.NoteOnEvent(tick=110, channel=0, data=[48, 53]),
   midi.NoteOnEvent(tick=9, channel=0, data=[49, 0]),
   midi.NoteOnEvent(tick=109, channel=0, data=[50, 55]),
   midi.NoteOnEvent(tick=14, channel=0, data=[48, 0]),
   midi.NoteOnEvent(tick=107, channel=0, data=[49, 54]),
   midi.NoteOnEvent(tick=11, channel=0, data=[50, 0]),
   midi.NoteOnEvent(tick=107, channel=0, data=[51, 56]),
   midi.NoteOnEvent(tick=14, channel=0, data=[49, 0]),
   midi.NoteOnEvent(tick=102, channel=0, data=[50, 55]),
   midi.NoteOnEvent(tick=16, channel=0, data=[51, 0]),
   midi.NoteOnEvent(tick=111, channel=0, data=[52, 57]),
   midi.NoteOnEvent(tick=5, channel=0, data=[50, 0]),
   midi.NoteOnEvent(tick=109, channel=0, data=[51, 57]),
   midi.NoteOnEvent(tick=18, channel=0, data=[52, 0]),
   midi.NoteOnEvent(tick=107, channel=0, data=[53, 59]),
   midi.NoteOnEvent(tick=7, channel=0, data=[51, 0]),
   midi.NoteOnEvent(tick=116, channel=0, data=[52, 60]),
   midi.NoteOnEvent(tick=9, channel=0, data=[53, 0]),
   midi.NoteOnEvent(tick=107, channel=0, data=[54, 57]),
   midi.NoteOnEvent(tick=16, channel=0, data=[52, 0]),
   midi.NoteOnEvent(tick=107, channel=0, data=[53, 57]),
   midi.NoteOnEvent(tick=9, channel=0, data=[54, 0]),
   midi.NoteOnEvent(tick=108, channel=0, data=[55, 54]),
   midi.NoteOnEvent(tick=15, channel=0, data=[53, 0]),
   midi.NoteOnEvent(tick=104, channel=0, data=[54, 54]),
   midi.NoteOnEvent(tick=13, channel=0, data=[55, 0]),
   midi.NoteOnEvent(tick=111, channel=0, data=[56, 54]),
   midi.NoteOnEvent(tick=8, channel=0, data=[54, 0]),
   midi.NoteOnEvent(tick=110, channel=0, data=[55, 54]),
   midi.NoteOnEvent(tick=14, channel=0, data=[56, 0]),
   midi.NoteOnEvent(tick=103, channel=0, data=[58, 54]),
   midi.NoteOnEvent(tick=15, channel=0, data=[55, 0]),
   midi.NoteOnEvent(tick=112, channel=0, data=[56, 54]),
   midi.NoteOnEvent(tick=5, channel=0, data=[58, 0]),
   midi.NoteOnEvent(tick=111, channel=0, data=[55, 54]),
   midi.NoteOnEvent(tick=16, channel=0, data=[56, 0]),
   midi.NoteOnEvent(tick=99, channel=0, data=[53, 54]),
   midi.NoteOnEvent(tick=17, channel=0, data=[55, 0]),
   midi.NoteOnEvent(tick=106, channel=0, data=[51, 54]),
   midi.NoteOnEvent(tick=9, channel=0, data=[53, 0]),
   midi.NoteOnEvent(tick=108, channel=0, data=[50, 54]),
   midi.NoteOnEvent(tick=15, channel=0, data=[51, 0]),
   midi.NoteOnEvent(tick=112, channel=0, data=[48, 52]),
   midi.NoteOnEvent(tick=5, channel=0, data=[50, 0]),
   midi.NoteOnEvent(tick=117, channel=0, data=[47, 51]),
   midi.NoteOnEvent(tick=10, channel=0, data=[48, 0]),
   midi.NoteOnEvent(tick=106, channel=0, data=[44, 47]),
   midi.NoteOnEvent(tick=16, channel=0, data=[47, 0]),
   midi.NoteOnEvent(tick=98, channel=0, data=[43, 44]),
   midi.NoteOnEvent(tick=18, channel=0, data=[44, 0]),
   midi.NoteOnEvent(tick=105, channel=0, data=[41, 40]),
   midi.NoteOnEvent(tick=9, channel=0, data=[43, 0]),
   midi.NoteOnEvent(tick=108, channel=0, data=[38, 37]),
   midi.NoteOnEvent(tick=15, channel=0, data=[41, 0]),
   midi.NoteOnEvent(tick=105, channel=0, data=[38, 0]),
   midi.NoteOnEvent(tick=7, channel=0, data=[36, 31]),
   midi.NoteOnEvent(tick=74, channel=0, data=[43, 32]),
   midi.NoteOnEvent(tick=18, channel=0, data=[36, 0]),
   midi.NoteOnEvent(tick=110, channel=0, data=[48, 35]),
   midi.NoteOnEvent(tick=4, channel=0, data=[43, 0]),
   midi.NoteOnEvent(tick=116, channel=0, data=[50, 36]),
   midi.NoteOnEvent(tick=12, channel=0, data=[48, 0]),
   midi.NoteOnEvent(tick=1, channel=0, data=[51, 39]),
   midi.NoteOnEvent(tick=15, channel=0, data=[50, 0]),
   midi.NoteOnEvent(tick=106, channel=0, data=[55, 40]),
   midi.NoteOnEvent(tick=11, channel=0, data=[51, 0]),
   midi.NoteOnEvent(tick=111, channel=0, data=[60, 43]),
   midi.NoteOnEvent(tick=10, channel=0, data=[55, 0]),
   midi.NoteOnEvent(tick=101, channel=0, data=[62, 44]),
   midi.NoteOnEvent(tick=21, channel=0, data=[60, 0]),
   midi.NoteOnEvent(tick=3, channel=0, data=[63, 47]),
   midi.NoteOnEvent(tick=11, channel=0, data=[62, 0]),
   midi.NoteOnEvent(tick=80, channel=0, data=[62, 44]),
   midi.NoteOnEvent(tick=6, channel=0, data=[63, 0]),
   midi.NoteOnEvent(tick=113, channel=0, data=[60, 43]),
   midi.NoteOnEvent(tick=13, channel=0, data=[62, 0]),
   midi.NoteOnEvent(tick=103, channel=0, data=[55, 41]),
   midi.NoteOnEvent(tick=16, channel=0, data=[60, 0]),
   midi.NoteOnEvent(tick=30, channel=0, data=[51, 39]),
   midi.NoteOnEvent(tick=14, channel=0, data=[55, 0]),
   midi.NoteOnEvent(tick=88, channel=0, data=[50, 37]),
   midi.NoteOnEvent(tick=11, channel=0, data=[51, 0]),
   midi.NoteOnEvent(tick=114, channel=0, data=[48, 35]),
   midi.NoteOnEvent(tick=7, channel=0, data=[50, 0]),
   midi.NoteOnEvent(tick=110, channel=0, data=[43, 33]),
   midi.NoteOnEvent(tick=15, channel=0, data=[48, 0]),
   midi.NoteOnEvent(tick=40, channel=0, data=[43, 0]),
   midi.NoteOnEvent(tick=0, channel=0, data=[36, 31]),
   midi.NoteOnEvent(tick=91, channel=0, data=[43, 35]),
   midi.NoteOnEvent(tick=11, channel=0, data=[36, 0]),
   midi.NoteOnEvent(tick=112, channel=0, data=[48, 39]),
   midi.NoteOnEvent(tick=9, channel=0, data=[43, 0]),
   midi.NoteOnEvent(tick=112, channel=0, data=[50, 43]),
   midi.NoteOnEvent(tick=11, channel=0, data=[48, 0]),
   midi.NoteOnEvent(tick=24, channel=0, data=[51, 45]),
   midi.NoteOnEvent(tick=12, channel=0, data=[50, 0]),
   midi.NoteOnEvent(tick=71, channel=0, data=[50, 42]),
   midi.NoteOnEvent(tick=15, channel=0, data=[51, 0]),
   midi.NoteOnEvent(tick=106, channel=0, data=[48, 39]),
   midi.NoteOnEvent(tick=11, channel=0, data=[50, 0]),
   midi.NoteOnEvent(tick=111, channel=0, data=[43, 35]),
   midi.NoteOnEvent(tick=10, channel=0, data=[48, 0]),
   midi.NoteOnEvent(tick=52, channel=0, data=[43, 0]),
   midi.NoteOnEvent(tick=1, channel=0, data=[36, 32]),
   midi.NoteOnEvent(tick=81, channel=0, data=[43, 34]),
   midi.NoteOnEvent(tick=20, channel=0, data=[36, 0]),
   midi.NoteOnEvent(tick=105, channel=0, data=[48, 37]),
   midi.NoteOnEvent(tick=7, channel=0, data=[43, 0]),
   midi.NoteOnEvent(tick=111, channel=0, data=[50, 40]),
   midi.NoteOnEvent(tick=14, channel=0, data=[48, 0]),
   midi.NoteOnEvent(tick=104, channel=0, data=[51, 44]),
   midi.NoteOnEvent(tick=14, channel=0, data=[50, 0]),
   midi.NoteOnEvent(tick=105, channel=0, data=[50, 44]),
   midi.NoteOnEvent(tick=13, channel=0, data=[51, 0]),
   midi.NoteOnEvent(tick=115, channel=0, data=[48, 42]),
   midi.NoteOnEvent(tick=4, channel=0, data=[50, 0]),
   midi.NoteOnEvent(tick=107, channel=0, data=[43, 38]),
   midi.NoteOnEvent(tick=21, channel=0, data=[48, 0]),
   midi.NoteOnEvent(tick=87, channel=0, data=[43, 0]),
   midi.NoteOnEvent(tick=4, channel=0, data=[36, 31]),
   midi.NoteOnEvent(tick=121, channel=0, data=[43, 33]),
   midi.NoteOnEvent(tick=10, channel=0, data=[36, 0]),
   midi.NoteOnEvent(tick=107, channel=0, data=[48, 35]),
   midi.NoteOnEvent(tick=15, channel=0, data=[43, 0]),
   midi.NoteOnEvent(tick=108, channel=0, data=[50, 36]),
   midi.NoteOnEvent(tick=9, channel=0, data=[48, 0]),
   midi.NoteOnEvent(tick=107, channel=0, data=[51, 39]),
   midi.NoteOnEvent(tick=16, channel=0, data=[50, 0]),
   midi.NoteOnEvent(tick=105, channel=0, data=[55, 40]),
   midi.NoteOnEvent(tick=11, channel=0, data=[51, 0]),
   midi.NoteOnEvent(tick=107, channel=0, data=[60, 42]),
   midi.NoteOnEvent(tick=14, channel=0, data=[55, 0]),
   midi.NoteOnEvent(tick=113, channel=0, data=[62, 43]),
   midi.NoteOnEvent(tick=5, channel=0, data=[60, 0]),
   midi.NoteOnEvent(tick=81, channel=0, data=[63, 47]),
   midi.NoteOnEvent(tick=15, channel=0, data=[62, 0]),
   midi.NoteOnEvent(tick=103, channel=0, data=[62, 46]),
   midi.NoteOnEvent(tick=10, channel=0, data=[63, 0]),
   midi.NoteOnEvent(tick=115, channel=0, data=[60, 44]),
   midi.NoteOnEvent(tick=7, channel=0, data=[62, 0]),
   midi.NoteOnEvent(tick=114, channel=0, data=[55, 43]),
   midi.NoteOnEvent(tick=11, channel=0, data=[60, 0]),
   midi.NoteOnEvent(tick=108, channel=0, data=[51, 41]),
   midi.NoteOnEvent(tick=13, channel=0, data=[55, 0]),
   midi.NoteOnEvent(tick=107, channel=0, data=[50, 39]),
   midi.NoteOnEvent(tick=12, channel=0, data=[51, 0]),
   midi.NoteOnEvent(tick=106, channel=0, data=[48, 38]),
   midi.NoteOnEvent(tick=14, channel=0, data=[50, 0]),
   midi.NoteOnEvent(tick=103, channel=0, data=[43, 36]),
   midi.NoteOnEvent(tick=15, channel=0, data=[48, 0]),
   midi.NoteOnEvent(tick=104, channel=0, data=[43, 0]),
   midi.NoteOnEvent(tick=4, channel=0, data=[36, 38]),
   midi.NoteOnEvent(tick=113, channel=0, data=[43, 41]),
   midi.NoteOnEvent(tick=19, channel=0, data=[36, 0]),
   midi.NoteOnEvent(tick=108, channel=0, data=[48, 43]),
   midi.NoteOnEvent(tick=5, channel=0, data=[43, 0]),
   midi.NoteOnEvent(tick=108, channel=0, data=[50, 47]),
   midi.NoteOnEvent(tick=19, channel=0, data=[48, 0]),
   midi.NoteOnEvent(tick=53, channel=0, data=[51, 50]),
   midi.NoteOnEvent(tick=12, channel=0, data=[50, 0]),
   midi.NoteOnEvent(tick=99, channel=0, data=[50, 47]),
   midi.NoteOnEvent(tick=9, channel=0, data=[51, 0]),
   midi.NoteOnEvent(tick=116, channel=0, data=[48, 45]),
   midi.NoteOnEvent(tick=7, channel=0, data=[50, 0]),
   midi.NoteOnEvent(tick=103, channel=0, data=[43, 43]),
   midi.NoteOnEvent(tick=22, channel=0, data=[48, 0]),
   midi.NoteOnEvent(tick=23, channel=0, data=[43, 0]),
   midi.NoteOnEvent(tick=0, channel=0, data=[36, 41]),
   midi.NoteOnEvent(tick=125, channel=0, data=[43, 43]),
   midi.NoteOnEvent(tick=7, channel=0, data=[36, 0]),
   midi.NoteOnEvent(tick=112, channel=0, data=[48, 44]),
   midi.NoteOnEvent(tick=13, channel=0, data=[43, 0]),
   midi.NoteOnEvent(tick=104, channel=0, data=[50, 49]),
   midi.NoteOnEvent(tick=15, channel=0, data=[48, 0]),
   midi.NoteOnEvent(tick=53, channel=0, data=[51, 51]),
   midi.NoteOnEvent(tick=8, channel=0, data=[50, 0]),
   midi.NoteOnEvent(tick=116, channel=0, data=[50, 51]),
   midi.NoteOnEvent(tick=5, channel=0, data=[51, 0]),
   midi.NoteOnEvent(tick=108, channel=0, data=[48, 49]),
   midi.NoteOnEvent(tick=19, channel=0, data=[50, 0]),
   midi.NoteOnEvent(tick=100, channel=0, data=[43, 47]),
   midi.NoteOnEvent(tick=13, channel=0, data=[48, 0]),
   midi.NoteOnEvent(tick=67, channel=0, data=[43, 0]),
   midi.NoteOnEvent(tick=0, channel=0, data=[36, 47]),
   midi.NoteOnEvent(tick=90, channel=0, data=[43, 47]),
   midi.NoteOnEvent(tick=3, channel=0, data=[36, 0]),
   midi.NoteOnEvent(tick=107, channel=0, data=[48, 48]),
   midi.NoteOnEvent(tick=22, channel=0, data=[43, 0]),
   midi.NoteOnEvent(tick=98, channel=0, data=[50, 50]),
   midi.NoteOnEvent(tick=12, channel=0, data=[48, 0]),
   midi.NoteOnEvent(tick=108, channel=0, data=[51, 51]),
   midi.NoteOnEvent(tick=12, channel=0, data=[50, 0]),
   midi.NoteOnEvent(tick=111, channel=0, data=[55, 51]),
   midi.NoteOnEvent(tick=9, channel=0, data=[51, 0]),
   midi.NoteOnEvent(tick=118, channel=0, data=[60, 54]),
   midi.NoteOnEvent(tick=5, channel=0, data=[55, 0]),
   midi.NoteOnEvent(tick=109, channel=0, data=[62, 55]),
   midi.NoteOnEvent(tick=18, channel=0, data=[60, 0]),
   midi.NoteOnEvent(tick=34, channel=0, data=[63, 57]),
   midi.NoteOnEvent(tick=12, channel=0, data=[62, 0]),
   midi.NoteOnEvent(tick=90, channel=0, data=[62, 55]),
   midi.NoteOnEvent(tick=6, channel=0, data=[63, 0]),
   midi.NoteOnEvent(tick=113, channel=0, data=[60, 55]),
   midi.NoteOnEvent(tick=13, channel=0, data=[62, 0]),
   midi.NoteOnEvent(tick=103, channel=0, data=[55, 53]),
   midi.NoteOnEvent(tick=16, channel=0, data=[60, 0]),
   midi.NoteOnEvent(tick=108, channel=0, data=[51, 51]),
   midi.NoteOnEvent(tick=8, channel=0, data=[55, 0]),
   midi.NoteOnEvent(tick=110, channel=0, data=[50, 50]),
   midi.NoteOnEvent(tick=14, channel=0, data=[51, 0]),
   midi.NoteOnEvent(tick=103, channel=0, data=[48, 48]),
   midi.NoteOnEvent(tick=15, channel=0, data=[50, 0]),
   midi.NoteOnEvent(tick=103, channel=0, data=[43, 47]),
   midi.NoteOnEvent(tick=14, channel=0, data=[48, 0]),
   midi.NoteOnEvent(tick=80, channel=0, data=[36, 57]),
   midi.NoteOnEvent(tick=2, channel=0, data=[43, 0]),
   midi.NoteOnEvent(tick=56, channel=0, data=[43, 48]),
   midi.NoteOnEvent(tick=7, channel=0, data=[36, 0]),
   midi.NoteOnEvent(tick=118, channel=0, data=[48, 50]),
   midi.NoteOnEvent(tick=7, channel=0, data=[43, 0]),
   midi.NoteOnEvent(tick=107, channel=0, data=[50, 51]),
   midi.NoteOnEvent(tick=18, channel=0, data=[48, 0]),
   midi.NoteOnEvent(tick=53, channel=0, data=[51, 54]),
   midi.NoteOnEvent(tick=14, channel=0, data=[50, 0]),
   midi.NoteOnEvent(tick=107, channel=0, data=[50, 52]),
   midi.NoteOnEvent(tick=8, channel=0, data=[51, 0]),
   midi.NoteOnEvent(tick=108, channel=0, data=[48, 51]),
   midi.NoteOnEvent(tick=16, channel=0, data=[50, 0]),
   midi.NoteOnEvent(tick=107, channel=0, data=[41, 49]),
   midi.NoteOnEvent(tick=9, channel=0, data=[48, 0]),
   midi.NoteOnEvent(tick=14, channel=0, data=[41, 0]),
   midi.NoteOnEvent(tick=5, channel=0, data=[36, 57]),
   midi.NoteOnEvent(tick=84, channel=0, data=[43, 49]),
   midi.NoteOnEvent(tick=18, channel=0, data=[36, 0]),
   midi.NoteOnEvent(tick=107, channel=0, data=[48, 51]),
   midi.NoteOnEvent(tick=7, channel=0, data=[43, 0]),
   midi.NoteOnEvent(tick=104, channel=0, data=[50, 53]),
   midi.NoteOnEvent(tick=21, channel=0, data=[48, 0]),
   midi.NoteOnEvent(tick=40, channel=0, data=[51, 55]),
   midi.NoteOnEvent(tick=2, channel=0, data=[50, 0]),
   midi.NoteOnEvent(tick=107, channel=0, data=[50, 54]),
   midi.NoteOnEvent(tick=16, channel=0, data=[51, 0]),
   midi.NoteOnEvent(tick=106, channel=0, data=[48, 53]),
   midi.NoteOnEvent(tick=10, channel=0, data=[50, 0]),
   midi.NoteOnEvent(tick=107, channel=0, data=[41, 51]),
   midi.NoteOnEvent(tick=15, channel=0, data=[48, 0]),
   midi.NoteOnEvent(tick=60, channel=0, data=[38, 73]),
   midi.NoteOnEvent(tick=4, channel=0, data=[41, 0]),
   midi.NoteOnEvent(tick=117, channel=0, data=[46, 42]),
   midi.NoteOnEvent(tick=11, channel=0, data=[38, 0]),
   midi.NoteOnEvent(tick=111, channel=0, data=[47, 42]),
   midi.NoteOnEvent(tick=10, channel=0, data=[46, 0]),
   midi.NoteOnEvent(tick=106, channel=0, data=[46, 41]),
   midi.NoteOnEvent(tick=16, channel=0, data=[47, 0]),
   midi.NoteOnEvent(tick=104, channel=0, data=[46, 0]),
   midi.NoteOnEvent(tick=4, channel=0, data=[58, 57]),
   midi.NoteOnEvent(tick=116, channel=0, data=[46, 44]),
   midi.NoteOnEvent(tick=16, channel=0, data=[58, 0]),
   midi.NoteOnEvent(tick=53, channel=0, data=[47, 44]),
   midi.NoteOnEvent(tick=5, channel=0, data=[46, 0]),
   midi.NoteOnEvent(tick=107, channel=0, data=[46, 43]),
   midi.NoteOnEvent(tick=10, channel=0, data=[47, 0]),
   midi.NoteOnEvent(tick=101, channel=0, data=[39, 72]),
   midi.NoteOnEvent(tick=9, channel=0, data=[46, 0]),
   midi.NoteOnEvent(tick=119, channel=0, data=[46, 46]),
   midi.NoteOnEvent(tick=4, channel=0, data=[39, 0]),
   midi.NoteOnEvent(tick=115, channel=0, data=[47, 47]),
   midi.NoteOnEvent(tick=4, channel=0, data=[46, 0]),
   midi.NoteOnEvent(tick=62, channel=0, data=[46, 47]),
   midi.NoteOnEvent(tick=12, channel=0, data=[47, 0]),
   midi.NoteOnEvent(tick=108, channel=0, data=[46, 0]),
   midi.NoteOnEvent(tick=1, channel=0, data=[58, 63]),
   midi.NoteOnEvent(tick=117, channel=0, data=[46, 49]),
   midi.NoteOnEvent(tick=15, channel=0, data=[58, 0]),
   midi.NoteOnEvent(tick=8, channel=0, data=[47, 49]),
   midi.NoteOnEvent(tick=10, channel=0, data=[46, 0]),
   midi.NoteOnEvent(tick=56, channel=0, data=[46, 49]),
   midi.NoteOnEvent(tick=18, channel=0, data=[47, 0]),
   midi.NoteOnEvent(tick=102, channel=0, data=[46, 0]),
   midi.NoteOnEvent(tick=6, channel=0, data=[40, 77]),
   midi.NoteOnEvent(tick=121, channel=0, data=[46, 52]),
   midi.NoteOnEvent(tick=11, channel=0, data=[40, 0]),
   midi.NoteOnEvent(tick=109, channel=0, data=[48, 52]),
   midi.NoteOnEvent(tick=4, channel=0, data=[46, 0]),
   midi.NoteOnEvent(tick=55, channel=0, data=[46, 51]),
   midi.NoteOnEvent(tick=20, channel=0, data=[48, 0]),
   midi.NoteOnEvent(tick=100, channel=0, data=[46, 0]),
   midi.NoteOnEvent(tick=9, channel=0, data=[58, 63]),
   midi.NoteOnEvent(tick=13, channel=0, data=[46, 54]),
   midi.NoteOnEvent(tick=14, channel=0, data=[58, 0]),
   midi.NoteOnEvent(tick=106, channel=0, data=[48, 54]),
   midi.NoteOnEvent(tick=12, channel=0, data=[46, 0]),
   midi.NoteOnEvent(tick=101, channel=0, data=[46, 56]),
   midi.NoteOnEvent(tick=19, channel=0, data=[48, 0]),
   midi.NoteOnEvent(tick=101, channel=0, data=[46, 0]),
   midi.NoteOnEvent(tick=6, channel=0, data=[41, 84]),
   midi.NoteOnEvent(tick=124, channel=0, data=[46, 57]),
   midi.NoteOnEvent(tick=8, channel=0, data=[41, 0]),
   midi.NoteOnEvent(tick=102, channel=0, data=[58, 57]),
   midi.NoteOnEvent(tick=22, channel=0, data=[46, 0]),
   midi.NoteOnEvent(tick=101, channel=0, data=[46, 57]),
   midi.NoteOnEvent(tick=9, channel=0, data=[58, 0]),
   midi.NoteOnEvent(tick=109, channel=0, data=[42, 73]),
   midi.NoteOnEvent(tick=2, channel=0, data=[46, 0]),
   midi.NoteOnEvent(tick=127, channel=0, data=[46, 60]),
   midi.NoteOnEvent(tick=3, channel=0, data=[42, 0]),
   midi.NoteOnEvent(tick=113, channel=0, data=[58, 60]),
   midi.NoteOnEvent(tick=16, channel=0, data=[46, 0]),
   midi.NoteOnEvent(tick=101, channel=0, data=[46, 59]),
   midi.NoteOnEvent(tick=15, channel=0, data=[58, 0]),
   midi.NoteOnEvent(tick=105, channel=0, data=[46, 0]),
   midi.NoteOnEvent(tick=7, channel=0, data=[41, 79]),
   midi.NoteOnEvent(tick=94, channel=0, data=[46, 63]),
   midi.NoteOnEvent(tick=18, channel=0, data=[41, 0]),
   midi.NoteOnEvent(tick=105, channel=0, data=[50, 65]),
   midi.NoteOnEvent(tick=9, channel=0, data=[46, 0]),
   midi.NoteOnEvent(tick=106, channel=0, data=[53, 68]),
   midi.NoteOnEvent(tick=17, channel=0, data=[50, 0]),
   midi.NoteOnEvent(tick=3, channel=0, data=[58, 71]),
   midi.NoteOnEvent(tick=13, channel=0, data=[53, 0]),
   midi.NoteOnEvent(tick=108, channel=0, data=[62, 73]),
   midi.NoteOnEvent(tick=11, channel=0, data=[58, 0]),
   midi.NoteOnEvent(tick=109, channel=0, data=[62, 0]),
   midi.NoteOnEvent(tick=3, channel=0, data=[67, 74]),
   midi.NoteOnEvent(tick=180, channel=0, data=[67, 0]),
   midi.NoteOnEvent(tick=0, channel=0, data=[65, 76]),
   midi.NoteOnEvent(tick=7, channel=0, data=[65, 0]),
   midi.NoteOnEvent(tick=0, channel=0, data=[65, 79]),
   midi.NoteOnEvent(tick=85, channel=0, data=[62, 76]),
   midi.NoteOnEvent(tick=8, channel=0, data=[65, 0]),
   midi.NoteOnEvent(tick=107, channel=0, data=[58, 76]),
   midi.NoteOnEvent(tick=17, channel=0, data=[62, 0]),
   midi.NoteOnEvent(tick=99, channel=0, data=[55, 73]),
   midi.NoteOnEvent(tick=16, channel=0, data=[58, 0]),
   midi.NoteOnEvent(tick=21, channel=0, data=[53, 71]),
   midi.NoteOnEvent(tick=4, channel=0, data=[55, 0]),
   midi.NoteOnEvent(tick=102, channel=0, data=[51, 67]),
   midi.NoteOnEvent(tick=19, channel=0, data=[53, 0]),
   midi.NoteOnEvent(tick=110, channel=0, data=[48, 65]),
   midi.NoteOnEvent(tick=3, channel=0, data=[51, 0]),
   midi.NoteOnEvent(tick=115, channel=0, data=[41, 61]),
   midi.NoteOnEvent(tick=14, channel=0, data=[48, 0]),
   midi.NoteOnEvent(tick=29, channel=0, data=[34, 61]),
   midi.NoteOnEvent(tick=11, channel=0, data=[41, 0]),
   midi.NoteOnEvent(tick=102, channel=0, data=[49, 63]),
   midi.NoteOnEvent(tick=7, channel=0, data=[34, 0]),
   midi.NoteOnEvent(tick=116, channel=0, data=[48, 62]),
   midi.NoteOnEvent(tick=9, channel=0, data=[49, 0]),
   midi.NoteOnEvent(tick=106, channel=0, data=[47, 59]),
   midi.NoteOnEvent(tick=17, channel=0, data=[48, 0]),
   midi.NoteOnEvent(tick=111, channel=0, data=[46, 57]),
   midi.NoteOnEvent(tick=4, channel=0, data=[47, 0]),
   midi.NoteOnEvent(tick=109, channel=0, data=[48, 63]),
   midi.NoteOnEvent(tick=19, channel=0, data=[46, 0]),
   midi.NoteOnEvent(tick=104, channel=0, data=[47, 61]),
   midi.NoteOnEvent(tick=9, channel=0, data=[48, 0]),
   midi.NoteOnEvent(tick=110, channel=0, data=[46, 59]),
   midi.NoteOnEvent(tick=13, channel=0, data=[47, 0]),
   midi.NoteOnEvent(tick=114, channel=0, data=[45, 56]),
   midi.NoteOnEvent(tick=5, channel=0, data=[46, 0]),
   midi.NoteOnEvent(tick=105, channel=0, data=[47, 64]),
   midi.NoteOnEvent(tick=22, channel=0, data=[45, 0]),
   midi.NoteOnEvent(tick=100, channel=0, data=[46, 61]),
   midi.NoteOnEvent(tick=10, channel=0, data=[47, 0]),
   midi.NoteOnEvent(tick=110, channel=0, data=[45, 59]),
   midi.NoteOnEvent(tick=12, channel=0, data=[46, 0]),
   midi.NoteOnEvent(tick=108, channel=0, data=[44, 64]),
   midi.NoteOnEvent(tick=12, channel=0, data=[45, 0]),
   midi.NoteOnEvent(tick=107, channel=0, data=[46, 55]),
   midi.NoteOnEvent(tick=13, channel=0, data=[44, 0]),
   midi.NoteOnEvent(tick=112, channel=0, data=[45, 61]),
   midi.NoteOnEvent(tick=7, channel=0, data=[46, 0]),
   midi.NoteOnEvent(tick=116, channel=0, data=[44, 66]),
   midi.NoteOnEvent(tick=9, channel=0, data=[45, 0]),
   midi.NoteOnEvent(tick=111, channel=0, data=[44, 0]),
   midi.NoteOnEvent(tick=1, channel=0, data=[32, 71]),
   midi.NoteOnEvent(tick=120, channel=0, data=[32, 0]),
   midi.NoteOnEvent(tick=112, channel=0, data=[43, 50]),
   midi.NoteOnEvent(tick=123, channel=0, data=[44, 52]),
   midi.NoteOnEvent(tick=6, channel=0, data=[43, 0]),
   midi.NoteOnEvent(tick=113, channel=0, data=[47, 53]),
   midi.NoteOnEvent(tick=13, channel=0, data=[44, 0]),
   midi.NoteOnEvent(tick=107, channel=0, data=[51, 56]),
   midi.NoteOnEvent(tick=12, channel=0, data=[47, 0]),
   midi.NoteOnEvent(tick=111, channel=0, data=[46, 52]),
   midi.NoteOnEvent(tick=9, channel=0, data=[51, 0]),
   midi.NoteOnEvent(tick=106, channel=0, data=[47, 53]),
   midi.NoteOnEvent(tick=17, channel=0, data=[46, 0]),
   midi.NoteOnEvent(tick=108, channel=0, data=[51, 56]),
   midi.NoteOnEvent(tick=7, channel=0, data=[47, 0]),
   midi.NoteOnEvent(tick=110, channel=0, data=[56, 57]),
   midi.NoteOnEvent(tick=15, channel=0, data=[51, 0]),
   midi.NoteOnEvent(tick=99, channel=0, data=[50, 54]),
   midi.NoteOnEvent(tick=18, channel=0, data=[56, 0]),
   midi.NoteOnEvent(tick=12, channel=0, data=[51, 56]),
   midi.NoteOnEvent(tick=7, channel=0, data=[50, 0]),
   midi.NoteOnEvent(tick=113, channel=0, data=[56, 59]),
   midi.NoteOnEvent(tick=12, channel=0, data=[51, 0]),
   midi.NoteOnEvent(tick=106, channel=0, data=[59, 62]),
   midi.NoteOnEvent(tick=14, channel=0, data=[56, 0]),
   midi.NoteOnEvent(tick=112, channel=0, data=[55, 61]),
   midi.NoteOnEvent(tick=6, channel=0, data=[59, 0]),
   midi.NoteOnEvent(tick=109, channel=0, data=[56, 65]),
   midi.NoteOnEvent(tick=17, channel=0, data=[55, 0]),
   midi.NoteOnEvent(tick=103, channel=0, data=[56, 0]),
   midi.NoteOnEvent(tick=1, channel=0, data=[39, 71]),
   midi.NoteOnEvent(tick=60, channel=0, data=[39, 0]),
   midi.NoteOnEvent(tick=6, channel=0, data=[63, 55]),
   midi.NoteOnEvent(tick=117, channel=0, data=[53, 56]),
   midi.NoteOnEvent(tick=15, channel=0, data=[63, 0]),
   midi.NoteOnEvent(tick=107, channel=0, data=[54, 55]),
   midi.NoteOnEvent(tick=10, channel=0, data=[53, 0]),
   midi.NoteOnEvent(tick=1, channel=0, data=[58, 59]),
   midi.NoteOnEvent(tick=13, channel=0, data=[54, 0]),
   midi.NoteOnEvent(tick=104, channel=0, data=[63, 61]),
   midi.NoteOnEvent(tick=15, channel=0, data=[58, 0]),
   midi.NoteOnEvent(tick=113, channel=0, data=[50, 51]),
   midi.NoteOnEvent(tick=4, channel=0, data=[63, 0]),
   midi.NoteOnEvent(tick=110, channel=0, data=[51, 54]),
   midi.NoteOnEvent(tick=18, channel=0, data=[50, 0]),
   midi.NoteOnEvent(tick=1, channel=0, data=[54, 59]),
   midi.NoteOnEvent(tick=14, channel=0, data=[51, 0]),
   midi.NoteOnEvent(tick=110, channel=0, data=[58, 61]),
   midi.NoteOnEvent(tick=8, channel=0, data=[54, 0]),
   midi.NoteOnEvent(tick=114, channel=0, data=[45, 54]),
   midi.NoteOnEvent(tick=10, channel=0, data=[58, 0]),
   midi.NoteOnEvent(tick=104, channel=0, data=[46, 56]),
   midi.NoteOnEvent(tick=18, channel=0, data=[45, 0]),
   midi.NoteOnEvent(tick=20, channel=0, data=[51, 57]),
   midi.NoteOnEvent(tick=10, channel=0, data=[46, 0]),
   midi.NoteOnEvent(tick=109, channel=0, data=[54, 61]),
   midi.NoteOnEvent(tick=13, channel=0, data=[51, 0]),
   midi.NoteOnEvent(tick=113, channel=0, data=[41, 63]),
   midi.NoteOnEvent(tick=6, channel=0, data=[54, 0]),
   midi.NoteOnEvent(tick=111, channel=0, data=[42, 69]),
   midi.NoteOnEvent(tick=15, channel=0, data=[41, 0]),
   midi.NoteOnEvent(tick=105, channel=0, data=[42, 0]),
   midi.NoteOnEvent(tick=2, channel=0, data=[30, 74]),
   midi.NoteOnEvent(tick=120, channel=0, data=[30, 0]),
   midi.NoteOnEvent(tick=8, channel=0, data=[41, 49]),
   midi.NoteOnEvent(tick=117, channel=0, data=[42, 50]),
   midi.NoteOnEvent(tick=15, channel=0, data=[41, 0]),
   midi.NoteOnEvent(tick=13, channel=0, data=[45, 52]),
   midi.NoteOnEvent(tick=9, channel=0, data=[42, 0]),
   midi.NoteOnEvent(tick=90, channel=0, data=[49, 55]),
   midi.NoteOnEvent(tick=15, channel=0, data=[45, 0]),
   midi.NoteOnEvent(tick=110, channel=0, data=[44, 51]),
   midi.NoteOnEvent(tick=7, channel=0, data=[49, 0]),
   midi.NoteOnEvent(tick=110, channel=0, data=[45, 52]),
   midi.NoteOnEvent(tick=15, channel=0, data=[44, 0]),
   midi.NoteOnEvent(tick=8, channel=0, data=[49, 54]),
   midi.NoteOnEvent(tick=16, channel=0, data=[45, 0]),
   midi.NoteOnEvent(tick=112, channel=0, data=[54, 56]),
   midi.NoteOnEvent(tick=4, channel=0, data=[49, 0]),
   midi.NoteOnEvent(tick=115, channel=0, data=[48, 54]),
   midi.NoteOnEvent(tick=13, channel=0, data=[54, 0]),
   midi.NoteOnEvent(tick=102, channel=0, data=[49, 56]),
   midi.NoteOnEvent(tick=17, channel=0, data=[48, 0]),
   midi.NoteOnEvent(tick=34, channel=0, data=[54, 57]),
   midi.NoteOnEvent(tick=6, channel=0, data=[49, 0]),
   midi.NoteOnEvent(tick=106, channel=0, data=[57, 61]),
   midi.NoteOnEvent(tick=20, channel=0, data=[54, 0]),
   midi.NoteOnEvent(tick=107, channel=0, data=[53, 65]),
   midi.NoteOnEvent(tick=5, channel=0, data=[57, 0]),
   midi.NoteOnEvent(tick=112, channel=0, data=[54, 67]),
   midi.NoteOnEvent(tick=15, channel=0, data=[53, 0]),
   midi.NoteOnEvent(tick=103, channel=0, data=[37, 70]),
   midi.NoteOnEvent(tick=2, channel=0, data=[54, 0]),
   midi.NoteOnEvent(tick=58, channel=0, data=[37, 0]),
   midi.NoteOnEvent(tick=62, channel=0, data=[61, 60]),
   midi.NoteOnEvent(tick=119, channel=0, data=[51, 53]),
   midi.NoteOnEvent(tick=11, channel=0, data=[61, 0]),
   midi.NoteOnEvent(tick=102, channel=0, data=[52, 56]),
   midi.NoteOnEvent(tick=19, channel=0, data=[51, 0]),
   midi.NoteOnEvent(tick=21, channel=0, data=[56, 59]),
   midi.NoteOnEvent(tick=7, channel=0, data=[52, 0]),
   midi.NoteOnEvent(tick=110, channel=0, data=[61, 61]),
   midi.NoteOnEvent(tick=13, channel=0, data=[56, 0]),
   midi.NoteOnEvent(tick=109, channel=0, data=[48, 54]),
   midi.NoteOnEvent(tick=10, channel=0, data=[61, 0]),
   midi.NoteOnEvent(tick=115, channel=0, data=[49, 55]),
   midi.NoteOnEvent(tick=7, channel=0, data=[48, 0]),
   midi.NoteOnEvent(tick=19, channel=0, data=[52, 59]),
   midi.NoteOnEvent(tick=10, channel=0, data=[49, 0]),
   midi.NoteOnEvent(tick=107, channel=0, data=[56, 62]),
   midi.NoteOnEvent(tick=11, channel=0, data=[52, 0]),
   midi.NoteOnEvent(tick=110, channel=0, data=[43, 53]),
   midi.NoteOnEvent(tick=11, channel=0, data=[56, 0]),
   midi.NoteOnEvent(tick=104, channel=0, data=[44, 56]),
   midi.NoteOnEvent(tick=17, channel=0, data=[43, 0]),
   midi.NoteOnEvent(tick=19, channel=0, data=[49, 57]),
   midi.NoteOnEvent(tick=12, channel=0, data=[44, 0]),
   midi.NoteOnEvent(tick=113, channel=0, data=[52, 61]),
   midi.NoteOnEvent(tick=7, channel=0, data=[49, 0]),
   midi.NoteOnEvent(tick=107, channel=0, data=[39, 62]),
   midi.NoteOnEvent(tick=18, channel=0, data=[52, 0]),
   midi.NoteOnEvent(tick=103, channel=0, data=[40, 65]),
   midi.NoteOnEvent(tick=11, channel=0, data=[39, 0]),
   midi.NoteOnEvent(tick=109, channel=0, data=[40, 0]),
   midi.NoteOnEvent(tick=2, channel=0, data=[36, 70]),
   midi.NoteOnEvent(tick=60, channel=0, data=[36, 0]),
   midi.NoteOnEvent(tick=1, channel=0, data=[63, 60]),
   midi.NoteOnEvent(tick=125, channel=0, data=[55, 57]),
   midi.NoteOnEvent(tick=7, channel=0, data=[63, 0]),
   midi.NoteOnEvent(tick=113, channel=0, data=[56, 59]),
   midi.NoteOnEvent(tick=12, channel=0, data=[55, 0]),
   midi.NoteOnEvent(tick=14, channel=0, data=[57, 60]),
   midi.NoteOnEvent(tick=6, channel=0, data=[56, 0]),
   midi.NoteOnEvent(tick=108, channel=0, data=[56, 61]),
   midi.NoteOnEvent(tick=12, channel=0, data=[57, 0]),
   midi.NoteOnEvent(tick=101, channel=0, data=[54, 63]),
   midi.NoteOnEvent(tick=19, channel=0, data=[56, 0]),
   midi.NoteOnEvent(tick=102, channel=0, data=[52, 64]),
   midi.NoteOnEvent(tick=11, channel=0, data=[54, 0]),
   midi.NoteOnEvent(tick=11, channel=0, data=[51, 66]),
   midi.NoteOnEvent(tick=12, channel=0, data=[52, 0]),
   midi.NoteOnEvent(tick=113, channel=0, data=[49, 65]),
   midi.NoteOnEvent(tick=7, channel=0, data=[51, 0]),
   midi.NoteOnEvent(tick=116, channel=0, data=[48, 68]),
   midi.NoteOnEvent(tick=9, channel=0, data=[49, 0]),
   midi.NoteOnEvent(tick=105, channel=0, data=[45, 70]),
   midi.NoteOnEvent(tick=18, channel=0, data=[48, 0]),
   midi.NoteOnEvent(tick=17, channel=0, data=[43, 71]),
   midi.NoteOnEvent(tick=11, channel=0, data=[45, 0]),
   midi.NoteOnEvent(tick=105, channel=0, data=[44, 71]),
   midi.NoteOnEvent(tick=16, channel=0, data=[43, 0]),
   midi.NoteOnEvent(tick=112, channel=0, data=[39, 74]),
   midi.NoteOnEvent(tick=4, channel=0, data=[44, 0]),
   midi.NoteOnEvent(tick=109, channel=0, data=[44, 75]),
   midi.NoteOnEvent(tick=19, channel=0, data=[39, 0]),
   midi.NoteOnEvent(tick=101, channel=0, data=[44, 0]),
   midi.NoteOnEvent(tick=3, channel=0, data=[38, 77]),
   midi.NoteOnEvent(tick=60, channel=0, data=[38, 0]),
   midi.NoteOnEvent(tick=34, channel=0, data=[65, 73]),
   midi.NoteOnEvent(tick=115, channel=0, data=[57, 73]),
   midi.NoteOnEvent(tick=15, channel=0, data=[65, 0]),
   midi.NoteOnEvent(tick=108, channel=0, data=[58, 71]),
   midi.NoteOnEvent(tick=9, channel=0, data=[57, 0]),
   midi.NoteOnEvent(tick=12, channel=0, data=[59, 72]),
   midi.NoteOnEvent(tick=10, channel=0, data=[58, 0]),
   midi.NoteOnEvent(tick=101, channel=0, data=[58, 69]),
   midi.NoteOnEvent(tick=12, channel=0, data=[59, 0]),
   midi.NoteOnEvent(tick=108, channel=0, data=[56, 71]),
   midi.NoteOnEvent(tick=12, channel=0, data=[58, 0]),
   midi.NoteOnEvent(tick=108, channel=0, data=[54, 69]),
   midi.NoteOnEvent(tick=12, channel=0, data=[56, 0]),
   midi.NoteOnEvent(tick=26, channel=0, data=[53, 68]),
   midi.NoteOnEvent(tick=9, channel=0, data=[54, 0]),
   midi.NoteOnEvent(tick=107, channel=0, data=[51, 67]),
   midi.NoteOnEvent(tick=12, channel=0, data=[53, 0]),
   midi.NoteOnEvent(tick=112, channel=0, data=[50, 67]),
   midi.NoteOnEvent(tick=8, channel=0, data=[51, 0]),
   midi.NoteOnEvent(tick=106, channel=0, data=[47, 66]),
   midi.NoteOnEvent(tick=18, channel=0, data=[50, 0]),
   midi.NoteOnEvent(tick=10, channel=0, data=[45, 64]),
   midi.NoteOnEvent(tick=9, channel=0, data=[47, 0]),
   midi.NoteOnEvent(tick=107, channel=0, data=[46, 63]),
   midi.NoteOnEvent(tick=16, channel=0, data=[45, 0]),
   midi.NoteOnEvent(tick=111, channel=0, data=[41, 63]),
   midi.NoteOnEvent(tick=5, channel=0, data=[46, 0]),
   midi.NoteOnEvent(tick=115, channel=0, data=[46, 62]),
   midi.NoteOnEvent(tick=12, channel=0, data=[41, 0]),
   midi.NoteOnEvent(tick=103, channel=0, data=[40, 60]),
   midi.NoteOnEvent(tick=5, channel=0, data=[46, 0]),
   midi.NoteOnEvent(tick=55, channel=0, data=[40, 0]),
   midi.NoteOnEvent(tick=22, channel=0, data=[67, 57]),
   midi.NoteOnEvent(tick=119, channel=0, data=[59, 57]),
   midi.NoteOnEvent(tick=13, channel=0, data=[67, 0]),
   midi.NoteOnEvent(tick=108, channel=0, data=[60, 56]),
   midi.NoteOnEvent(tick=11, channel=0, data=[59, 0]),
   midi.NoteOnEvent(tick=6, channel=0, data=[61, 59]),
   midi.NoteOnEvent(tick=14, channel=0, data=[60, 0]),
   midi.NoteOnEvent(tick=102, channel=0, data=[60, 59]),
   midi.NoteOnEvent(tick=16, channel=0, data=[61, 0]),
   midi.NoteOnEvent(tick=108, channel=0, data=[58, 59]),
   midi.NoteOnEvent(tick=8, channel=0, data=[60, 0]),
   midi.NoteOnEvent(tick=107, channel=0, data=[56, 57]),
   midi.NoteOnEvent(tick=17, channel=0, data=[58, 0]),
   midi.NoteOnEvent(tick=113, channel=0, data=[55, 57]),
   midi.NoteOnEvent(tick=2, channel=0, data=[56, 0]),
   midi.NoteOnEvent(tick=113, channel=0, data=[53, 57]),
   midi.NoteOnEvent(tick=17, channel=0, data=[55, 0]),
   midi.NoteOnEvent(tick=108, channel=0, data=[52, 57]),
   midi.NoteOnEvent(tick=7, channel=0, data=[53, 0]),
   midi.NoteOnEvent(tick=37, channel=0, data=[55, 55]),
   midi.NoteOnEvent(tick=11, channel=0, data=[52, 0]),
   midi.NoteOnEvent(tick=103, channel=0, data=[53, 56]),
   midi.NoteOnEvent(tick=15, channel=0, data=[55, 0]),
   midi.NoteOnEvent(tick=107, channel=0, data=[52, 56]),
   midi.NoteOnEvent(tick=10, channel=0, data=[53, 0]),
   midi.NoteOnEvent(tick=110, channel=0, data=[49, 55]),
   midi.NoteOnEvent(tick=12, channel=0, data=[52, 0]),
   midi.NoteOnEvent(tick=105, channel=0, data=[48, 52]),
   midi.NoteOnEvent(tick=15, channel=0, data=[49, 0]),
   midi.NoteOnEvent(tick=30, channel=0, data=[47, 55]),
   midi.NoteOnEvent(tick=12, channel=0, data=[48, 0]),
   midi.NoteOnEvent(tick=104, channel=0, data=[48, 55]),
   midi.NoteOnEvent(tick=16, channel=0, data=[47, 0]),
   midi.NoteOnEvent(tick=112, channel=0, data=[49, 57]),
   midi.NoteOnEvent(tick=4, channel=0, data=[48, 0]),
   midi.NoteOnEvent(tick=109, channel=0, data=[48, 55]),
   midi.NoteOnEvent(tick=19, channel=0, data=[49, 0]),
   midi.NoteOnEvent(tick=100, channel=0, data=[46, 57]),
   midi.NoteOnEvent(tick=13, channel=0, data=[48, 0]),
   midi.NoteOnEvent(tick=110, channel=0, data=[44, 59]),
   midi.NoteOnEvent(tick=9, channel=0, data=[46, 0]),
   midi.NoteOnEvent(tick=116, channel=0, data=[43, 60]),
   midi.NoteOnEvent(tick=7, channel=0, data=[44, 0]),
   midi.NoteOnEvent(tick=107, channel=0, data=[41, 62]),
   midi.NoteOnEvent(tick=18, channel=0, data=[43, 0]),
   midi.NoteOnEvent(tick=103, channel=0, data=[40, 63]),
   midi.NoteOnEvent(tick=9, channel=0, data=[41, 0]),
   midi.NoteOnEvent(tick=111, channel=0, data=[37, 63]),
   midi.NoteOnEvent(tick=23, channel=0, data=[40, 0]),
   midi.NoteOnEvent(tick=92, channel=0, data=[36, 67]),
   midi.NoteOnEvent(tick=30, channel=0, data=[37, 0]),
   midi.NoteOnEvent(tick=94, channel=0, data=[35, 67]),
   midi.NoteOnEvent(tick=21, channel=0, data=[36, 0]),
   midi.NoteOnEvent(tick=100, channel=0, data=[36, 71]),
   midi.NoteOnEvent(tick=24, channel=0, data=[35, 0]),
   midi.NoteOnEvent(tick=97, channel=0, data=[34, 70]),
   midi.NoteOnEvent(tick=24, channel=0, data=[36, 0]),
   midi.NoteOnEvent(tick=98, channel=0, data=[32, 74]),
   midi.NoteOnEvent(tick=23, channel=0, data=[34, 0]),
   midi.NoteOnEvent(tick=28, channel=0, data=[31, 73]),
   midi.NoteOnEvent(tick=29, channel=0, data=[32, 0]),
   midi.NoteOnEvent(tick=90, channel=0, data=[29, 76]),
   midi.NoteOnEvent(tick=1, channel=0, data=[31, 0]),
   midi.NoteOnEvent(tick=82, channel=0, data=[36, 63]),
   midi.NoteOnEvent(tick=6, channel=0, data=[29, 0]),
   midi.NoteOnEvent(tick=115, channel=0, data=[41, 63]),
   midi.NoteOnEvent(tick=11, channel=0, data=[36, 0]),
   midi.NoteOnEvent(tick=105, channel=0, data=[43, 63]),
   midi.NoteOnEvent(tick=16, channel=0, data=[41, 0]),
   midi.NoteOnEvent(tick=54, channel=0, data=[44, 63]),
   midi.NoteOnEvent(tick=6, channel=0, data=[43, 0]),
   midi.NoteOnEvent(tick=102, channel=0, data=[48, 64]),
   midi.NoteOnEvent(tick=22, channel=0, data=[44, 0]),
   midi.NoteOnEvent(tick=104, channel=0, data=[53, 68]),
   midi.NoteOnEvent(tick=6, channel=0, data=[48, 0]),
   midi.NoteOnEvent(tick=117, channel=0, data=[55, 68]),
   midi.NoteOnEvent(tick=9, channel=0, data=[53, 0]),
   midi.NoteOnEvent(tick=34, channel=0, data=[56, 72]),
   midi.NoteOnEvent(tick=17, channel=0, data=[55, 0]),
   midi.NoteOnEvent(tick=69, channel=0, data=[60, 75]),
   midi.NoteOnEvent(tick=13, channel=0, data=[56, 0]),
   midi.NoteOnEvent(tick=107, channel=0, data=[65, 76]),
   midi.NoteOnEvent(tick=12, channel=0, data=[60, 0]),
   midi.NoteOnEvent(tick=105, channel=0, data=[67, 77]),
   midi.NoteOnEvent(tick=15, channel=0, data=[65, 0]),
   midi.NoteOnEvent(tick=29, channel=0, data=[68, 79]),
   midi.NoteOnEvent(tick=6, channel=0, data=[67, 0]),
   midi.NoteOnEvent(tick=77, channel=0, data=[67, 77]),
   midi.NoteOnEvent(tick=14, channel=0, data=[68, 0]),
   midi.NoteOnEvent(tick=102, channel=0, data=[65, 71]),
   midi.NoteOnEvent(tick=16, channel=0, data=[67, 0]),
   midi.NoteOnEvent(tick=104, channel=0, data=[60, 67]),
   midi.NoteOnEvent(tick=12, channel=0, data=[65, 0]),
   midi.NoteOnEvent(tick=66, channel=0, data=[60, 0]),
   midi.NoteOnEvent(tick=5, channel=0, data=[61, 64]),
   midi.NoteOnEvent(tick=90, channel=0, data=[65, 63]),
   midi.NoteOnEvent(tick=8, channel=0, data=[61, 0]),
   midi.NoteOnEvent(tick=113, channel=0, data=[61, 62]),
   midi.NoteOnEvent(tick=11, channel=0, data=[65, 0]),
   midi.NoteOnEvent(tick=103, channel=0, data=[56, 61]),
   midi.NoteOnEvent(tick=18, channel=0, data=[61, 0]),
   midi.NoteOnEvent(tick=106, channel=0, data=[53, 59]),
   midi.NoteOnEvent(tick=8, channel=0, data=[56, 0]),
   midi.NoteOnEvent(tick=110, channel=0, data=[49, 57]),
   midi.NoteOnEvent(tick=14, channel=0, data=[53, 0]),
   midi.NoteOnEvent(tick=108, channel=0, data=[44, 57]),
   midi.NoteOnEvent(tick=10, channel=0, data=[49, 0]),
   midi.NoteOnEvent(tick=111, channel=0, data=[41, 56]),
   midi.NoteOnEvent(tick=11, channel=0, data=[44, 0]),
   midi.NoteOnEvent(tick=92, channel=0, data=[37, 55]),
   midi.NoteOnEvent(tick=3, channel=0, data=[41, 0]),
   midi.NoteOnEvent(tick=87, channel=0, data=[32, 54]),
   midi.NoteOnEvent(tick=38, channel=0, data=[37, 0]),
   midi.NoteOnEvent(tick=76, channel=0, data=[37, 55]),
   midi.NoteOnEvent(tick=44, channel=0, data=[32, 0]),
   midi.NoteOnEvent(tick=84, channel=0, data=[41, 52]),
   midi.NoteOnEvent(tick=30, channel=0, data=[37, 0]),
   midi.NoteOnEvent(tick=87, channel=0, data=[37, 55]),
   midi.NoteOnEvent(tick=27, channel=0, data=[41, 0]),
   midi.NoteOnEvent(tick=94, channel=0, data=[32, 54]),
   midi.NoteOnEvent(tick=37, channel=0, data=[37, 0]),
   midi.NoteOnEvent(tick=83, channel=0, data=[37, 55]),
   midi.NoteOnEvent(tick=38, channel=0, data=[32, 0]),
   midi.NoteOnEvent(tick=7, channel=0, data=[41, 53]),
   midi.NoteOnEvent(tick=38, channel=0, data=[37, 0]),
   midi.NoteOnEvent(tick=82, channel=0, data=[41, 0]),
   midi.NoteOnEvent(tick=2, channel=0, data=[29, 55]),
   midi.NoteOnEvent(tick=94, channel=0, data=[36, 53]),
   midi.NoteOnEvent(tick=13, channel=0, data=[29, 0]),
   midi.NoteOnEvent(tick=103, channel=0, data=[41, 55]),
   midi.NoteOnEvent(tick=16, channel=0, data=[36, 0]),
   midi.NoteOnEvent(tick=101, channel=0, data=[43, 53]),
   midi.NoteOnEvent(tick=15, channel=0, data=[41, 0]),
   midi.NoteOnEvent(tick=53, channel=0, data=[44, 56]),
   midi.NoteOnEvent(tick=7, channel=0, data=[43, 0]),
   midi.NoteOnEvent(tick=111, channel=0, data=[48, 57]),
   midi.NoteOnEvent(tick=11, channel=0, data=[44, 0]),
   midi.NoteOnEvent(tick=108, channel=0, data=[53, 57]),
   midi.NoteOnEvent(tick=13, channel=0, data=[48, 0]),
   midi.NoteOnEvent(tick=113, channel=0, data=[55, 57]),
   midi.NoteOnEvent(tick=6, channel=0, data=[53, 0]),
   midi.NoteOnEvent(tick=63, channel=0, data=[56, 59]),
   midi.NoteOnEvent(tick=15, channel=0, data=[55, 0]),
   midi.NoteOnEvent(tick=109, channel=0, data=[60, 57]),
   midi.NoteOnEvent(tick=7, channel=0, data=[56, 0]),
   midi.NoteOnEvent(tick=105, channel=0, data=[65, 59]),
   midi.NoteOnEvent(tick=20, channel=0, data=[60, 0]),
   midi.NoteOnEvent(tick=106, channel=0, data=[67, 57]),
   midi.NoteOnEvent(tick=6, channel=0, data=[65, 0]),
   midi.NoteOnEvent(tick=29, channel=0, data=[68, 60]),
   midi.NoteOnEvent(tick=13, channel=0, data=[67, 0]),
   midi.NoteOnEvent(tick=96, channel=0, data=[67, 63]),
   midi.NoteOnEvent(tick=9, channel=0, data=[68, 0]),
   midi.NoteOnEvent(tick=104, channel=0, data=[65, 60]),
   midi.NoteOnEvent(tick=19, channel=0, data=[67, 0]),
   midi.NoteOnEvent(tick=104, channel=0, data=[60, 57]),
   midi.NoteOnEvent(tick=9, channel=0, data=[65, 0]),
   midi.NoteOnEvent(tick=56, channel=0, data=[60, 0]),
   midi.NoteOnEvent(tick=4, channel=0, data=[62, 59]),
   midi.NoteOnEvent(tick=115, channel=0, data=[65, 57]),
   midi.NoteOnEvent(tick=13, channel=0, data=[62, 0]),
   midi.NoteOnEvent(tick=109, channel=0, data=[62, 59]),
   midi.NoteOnEvent(tick=10, channel=0, data=[65, 0]),
   midi.NoteOnEvent(tick=102, channel=0, data=[60, 57]),
   midi.NoteOnEvent(tick=20, channel=0, data=[62, 0]),
   midi.NoteOnEvent(tick=107, channel=0, data=[56, 59]),
   midi.NoteOnEvent(tick=5, channel=0, data=[60, 0]),
   midi.NoteOnEvent(tick=114, channel=0, data=[53, 59]),
   midi.NoteOnEvent(tick=13, channel=0, data=[56, 0]),
   midi.NoteOnEvent(tick=109, channel=0, data=[50, 59]),
   midi.NoteOnEvent(tick=10, channel=0, data=[53, 0]),
   midi.NoteOnEvent(tick=109, channel=0, data=[48, 57]),
   midi.NoteOnEvent(tick=13, channel=0, data=[50, 0]),
   midi.NoteOnEvent(tick=4, channel=0, data=[44, 57]),
   midi.NoteOnEvent(tick=12, channel=0, data=[48, 0]),
   midi.NoteOnEvent(tick=57, channel=0, data=[41, 57]),
   midi.NoteOnEvent(tick=15, channel=0, data=[44, 0]),
   midi.NoteOnEvent(tick=101, channel=0, data=[38, 57]),
   midi.NoteOnEvent(tick=16, channel=0, data=[41, 0]),
   midi.NoteOnEvent(tick=108, channel=0, data=[36, 55]),
   midi.NoteOnEvent(tick=8, channel=0, data=[38, 0]),
   midi.NoteOnEvent(tick=108, channel=0, data=[32, 57]),
   midi.NoteOnEvent(tick=16, channel=0, data=[36, 0]),
   midi.NoteOnEvent(tick=104, channel=0, data=[36, 61]),
   midi.NoteOnEvent(tick=12, channel=0, data=[32, 0]),
   midi.NoteOnEvent(tick=114, channel=0, data=[38, 65]),
   midi.NoteOnEvent(tick=6, channel=0, data=[36, 0]),
   midi.NoteOnEvent(tick=114, channel=0, data=[44, 68]),
   midi.NoteOnEvent(tick=12, channel=0, data=[38, 0]),
   midi.NoteOnEvent(tick=101, channel=0, data=[31, 79]),
   midi.NoteOnEvent(tick=6, channel=0, data=[43, 79]),
   midi.NoteOnEvent(tick=1, channel=0, data=[44, 0]),
   midi.NoteOnEvent(tick=53, channel=0, data=[31, 0]),
   midi.NoteOnEvent(tick=4, channel=0, data=[68, 73]),
   midi.NoteOnEvent(tick=2, channel=0, data=[43, 0]),
   midi.NoteOnEvent(tick=69, channel=0, data=[67, 72]),
   midi.NoteOnEvent(tick=17, channel=0, data=[68, 0]),
   midi.NoteOnEvent(tick=111, channel=0, data=[65, 79]),
   midi.NoteOnEvent(tick=4, channel=0, data=[67, 0]),
   midi.NoteOnEvent(tick=117, channel=0, data=[62, 72]),
   midi.NoteOnEvent(tick=11, channel=0, data=[65, 0]),
   midi.NoteOnEvent(tick=101, channel=0, data=[63, 72]),
   midi.NoteOnEvent(tick=20, channel=0, data=[62, 0]),
   midi.NoteOnEvent(tick=102, channel=0, data=[62, 69]),
   midi.NoteOnEvent(tick=10, channel=0, data=[63, 0]),
   midi.NoteOnEvent(tick=12, channel=0, data=[59, 79]),
   midi.NoteOnEvent(tick=9, channel=0, data=[62, 0]),
   midi.NoteOnEvent(tick=91, channel=0, data=[55, 72]),
   midi.NoteOnEvent(tick=13, channel=0, data=[59, 0]),
   midi.NoteOnEvent(tick=110, channel=0, data=[56, 72]),
   midi.NoteOnEvent(tick=9, channel=0, data=[55, 0]),
   midi.NoteOnEvent(tick=105, channel=0, data=[55, 70]),
   midi.NoteOnEvent(tick=18, channel=0, data=[56, 0]),
   midi.NoteOnEvent(tick=108, channel=0, data=[53, 79]),
   midi.NoteOnEvent(tick=6, channel=0, data=[55, 0]),
   midi.NoteOnEvent(tick=116, channel=0, data=[50, 71]),
   midi.NoteOnEvent(tick=10, channel=0, data=[53, 0]),
   midi.NoteOnEvent(tick=100, channel=0, data=[51, 71]),
   midi.NoteOnEvent(tick=22, channel=0, data=[50, 0]),
   midi.NoteOnEvent(tick=105, channel=0, data=[50, 70]),
   midi.NoteOnEvent(tick=5, channel=0, data=[51, 0]),
   midi.NoteOnEvent(tick=42, channel=0, data=[47, 79]),
   midi.NoteOnEvent(tick=12, channel=0, data=[50, 0]),
   midi.NoteOnEvent(tick=102, channel=0, data=[43, 70]),
   midi.NoteOnEvent(tick=18, channel=0, data=[47, 0]),
   midi.NoteOnEvent(tick=101, channel=0, data=[44, 71]),
   midi.NoteOnEvent(tick=13, channel=0, data=[43, 0]),
   midi.NoteOnEvent(tick=110, channel=0, data=[43, 69]),
   midi.NoteOnEvent(tick=9, channel=0, data=[44, 0]),
   midi.NoteOnEvent(tick=115, channel=0, data=[41, 79]),
   midi.NoteOnEvent(tick=8, channel=0, data=[43, 0]),
   midi.NoteOnEvent(tick=101, channel=0, data=[38, 70]),
   midi.NoteOnEvent(tick=10, channel=0, data=[41, 0]),
   midi.NoteOnEvent(tick=107, channel=0, data=[39, 71]),
   midi.NoteOnEvent(tick=15, channel=0, data=[38, 0]),
   midi.NoteOnEvent(tick=103, channel=0, data=[38, 68]),
   midi.NoteOnEvent(tick=14, channel=0, data=[39, 0]),
   midi.NoteOnEvent(tick=106, channel=0, data=[38, 0]),
   midi.NoteOnEvent(tick=4, channel=0, data=[36, 79]),
   midi.NoteOnEvent(tick=114, channel=0, data=[31, 69]),
   midi.NoteOnEvent(tick=44, channel=0, data=[36, 0]),
   midi.NoteOnEvent(tick=81, channel=0, data=[36, 72]),
   midi.NoteOnEvent(tick=33, channel=0, data=[31, 0]),
   midi.NoteOnEvent(tick=82, channel=0, data=[31, 71]),
   midi.NoteOnEvent(tick=11, channel=0, data=[36, 0]),
   midi.NoteOnEvent(tick=77, channel=0, data=[36, 75]),
   midi.NoteOnEvent(tick=35, channel=0, data=[31, 0]),
   midi.NoteOnEvent(tick=90, channel=0, data=[31, 76]),
   midi.NoteOnEvent(tick=30, channel=0, data=[36, 0]),
   midi.NoteOnEvent(tick=83, channel=0, data=[36, 77]),
   midi.NoteOnEvent(tick=45, channel=0, data=[31, 0]),
   midi.NoteOnEvent(tick=72, channel=0, data=[31, 76]),
   midi.NoteOnEvent(tick=41, channel=0, data=[36, 0]),
   midi.NoteOnEvent(tick=79, channel=0, data=[31, 0]),
   midi.NoteOnEvent(tick=8, channel=0, data=[35, 79]),
   midi.NoteOnEvent(tick=9, channel=0, data=[35, 0]),
   midi.NoteOnEvent(tick=113, channel=0, data=[68, 71]),
   midi.NoteOnEvent(tick=115, channel=0, data=[67, 71]),
   midi.NoteOnEvent(tick=13, channel=0, data=[68, 0]),
   midi.NoteOnEvent(tick=107, channel=0, data=[65, 79]),
   midi.NoteOnEvent(tick=12, channel=0, data=[67, 0]),
   midi.NoteOnEvent(tick=111, channel=0, data=[62, 72]),
   midi.NoteOnEvent(tick=9, channel=0, data=[65, 0]),
   midi.NoteOnEvent(tick=115, channel=0, data=[63, 72]),
   midi.NoteOnEvent(tick=8, channel=0, data=[62, 0]),
   midi.NoteOnEvent(tick=108, channel=0, data=[62, 71]),
   midi.NoteOnEvent(tick=16, channel=0, data=[63, 0]),
   midi.NoteOnEvent(tick=33, channel=0, data=[59, 79]),
   midi.NoteOnEvent(tick=11, channel=0, data=[62, 0]),
   midi.NoteOnEvent(tick=68, channel=0, data=[55, 71]),
   midi.NoteOnEvent(tick=12, channel=0, data=[59, 0]),
   midi.NoteOnEvent(tick=104, channel=0, data=[56, 71]),
   midi.NoteOnEvent(tick=16, channel=0, data=[55, 0]),
   midi.NoteOnEvent(tick=109, channel=0, data=[55, 69]),
   midi.NoteOnEvent(tick=7, channel=0, data=[56, 0]),
   midi.NoteOnEvent(tick=115, channel=0, data=[53, 79]),
   midi.NoteOnEvent(tick=10, channel=0, data=[55, 0]),
   midi.NoteOnEvent(tick=106, channel=0, data=[50, 72]),
   midi.NoteOnEvent(tick=16, channel=0, data=[53, 0]),
   midi.NoteOnEvent(tick=108, channel=0, data=[51, 72]),
   midi.NoteOnEvent(tick=8, channel=0, data=[50, 0]),
   midi.NoteOnEvent(tick=114, channel=0, data=[50, 71]),
   midi.NoteOnEvent(tick=10, channel=0, data=[51, 0]),
   midi.NoteOnEvent(tick=46, channel=0, data=[47, 79]),
   midi.NoteOnEvent(tick=16, channel=0, data=[50, 0]),
   midi.NoteOnEvent(tick=105, channel=0, data=[43, 71]),
   midi.NoteOnEvent(tick=11, channel=0, data=[47, 0]),
   midi.NoteOnEvent(tick=103, channel=0, data=[44, 71]),
   midi.NoteOnEvent(tick=18, channel=0, data=[43, 0]),
   midi.NoteOnEvent(tick=107, channel=0, data=[43, 70]),
   midi.NoteOnEvent(tick=7, channel=0, data=[44, 0]),
   midi.NoteOnEvent(tick=110, channel=0, data=[41, 79]),
   midi.NoteOnEvent(tick=15, channel=0, data=[43, 0]),
   midi.NoteOnEvent(tick=102, channel=0, data=[38, 71]),
   midi.NoteOnEvent(tick=10, channel=0, data=[41, 0]),
   midi.NoteOnEvent(tick=115, channel=0, data=[39, 71]),
   midi.NoteOnEvent(tick=7, channel=0, data=[38, 0]),
   midi.NoteOnEvent(tick=109, channel=0, data=[38, 70]),
   midi.NoteOnEvent(tick=16, channel=0, data=[39, 0]),
   midi.NoteOnEvent(tick=99, channel=0, data=[36, 79]),
   midi.NoteOnEvent(tick=17, channel=0, data=[38, 0]),
   midi.NoteOnEvent(tick=109, channel=0, data=[31, 71]),
   midi.NoteOnEvent(tick=6, channel=0, data=[36, 0]),
   midi.NoteOnEvent(tick=115, channel=0, data=[36, 73]),
   midi.NoteOnEvent(tick=11, channel=0, data=[31, 0]),
   midi.NoteOnEvent(tick=110, channel=0, data=[31, 74]),
   midi.NoteOnEvent(tick=11, channel=0, data=[36, 0]),
   midi.NoteOnEvent(tick=4, channel=0, data=[36, 76]),
   midi.NoteOnEvent(tick=11, channel=0, data=[31, 0]),
   midi.NoteOnEvent(tick=109, channel=0, data=[31, 76]),
   midi.NoteOnEvent(tick=12, channel=0, data=[36, 0]),
   midi.NoteOnEvent(tick=102, channel=0, data=[36, 79]),
   midi.NoteOnEvent(tick=18, channel=0, data=[31, 0]),
   midi.NoteOnEvent(tick=108, channel=0, data=[31, 79]),
   midi.NoteOnEvent(tick=6, channel=0, data=[36, 0]),
   midi.NoteOnEvent(tick=110, channel=0, data=[35, 79]),
   midi.NoteOnEvent(tick=4, channel=0, data=[31, 0]),
   midi.NoteOnEvent(tick=116, channel=0, data=[35, 0]),
   midi.NoteOnEvent(tick=111, channel=0, data=[80, 79]),
   midi.NoteOnEvent(tick=116, channel=0, data=[79, 71]),
   midi.NoteOnEvent(tick=16, channel=0, data=[80, 0]),
   midi.NoteOnEvent(tick=107, channel=0, data=[77, 79]),
   midi.NoteOnEvent(tick=9, channel=0, data=[79, 0]),
   midi.NoteOnEvent(tick=108, channel=0, data=[74, 71]),
   midi.NoteOnEvent(tick=15, channel=0, data=[77, 0]),
   midi.NoteOnEvent(tick=108, channel=0, data=[75, 71]),
   midi.NoteOnEvent(tick=9, channel=0, data=[74, 0]),
   midi.NoteOnEvent(tick=112, channel=0, data=[74, 70]),
   midi.NoteOnEvent(tick=11, channel=0, data=[75, 0]),
   midi.NoteOnEvent(tick=104, channel=0, data=[71, 79]),
   midi.NoteOnEvent(tick=17, channel=0, data=[74, 0]),
   midi.NoteOnEvent(tick=107, channel=0, data=[67, 70]),
   midi.NoteOnEvent(tick=8, channel=0, data=[71, 0]),
   midi.NoteOnEvent(tick=111, channel=0, data=[68, 70]),
   midi.NoteOnEvent(tick=13, channel=0, data=[67, 0]),
   midi.NoteOnEvent(tick=112, channel=0, data=[67, 69]),
   midi.NoteOnEvent(tick=7, channel=0, data=[68, 0]),
   midi.NoteOnEvent(tick=110, channel=0, data=[65, 79]),
   midi.NoteOnEvent(tick=15, channel=0, data=[67, 0]),
   midi.NoteOnEvent(tick=106, channel=0, data=[62, 71]),
   midi.NoteOnEvent(tick=11, channel=0, data=[65, 0]),
   midi.NoteOnEvent(tick=107, channel=0, data=[63, 71]),
   midi.NoteOnEvent(tick=14, channel=0, data=[62, 0]),
   midi.NoteOnEvent(tick=104, channel=0, data=[62, 69]),
   midi.NoteOnEvent(tick=14, channel=0, data=[63, 0]),
   midi.NoteOnEvent(tick=110, channel=0, data=[59, 79]),
   midi.NoteOnEvent(tick=8, channel=0, data=[62, 0]),
   midi.NoteOnEvent(tick=112, channel=0, data=[55, 71]),
   midi.NoteOnEvent(tick=12, channel=0, data=[59, 0]),
   midi.NoteOnEvent(tick=110, channel=0, data=[56, 71]),
   midi.NoteOnEvent(tick=10, channel=0, data=[55, 0]),
   midi.NoteOnEvent(tick=102, channel=0, data=[55, 69]),
   midi.NoteOnEvent(tick=20, channel=0, data=[56, 0]),
   midi.NoteOnEvent(tick=104, channel=0, data=[53, 79]),
   midi.NoteOnEvent(tick=8, channel=0, data=[55, 0]),
   midi.NoteOnEvent(tick=116, channel=0, data=[50, 71]),
   midi.NoteOnEvent(tick=8, channel=0, data=[53, 0]),
   midi.NoteOnEvent(tick=108, channel=0, data=[51, 71]),
   midi.NoteOnEvent(tick=16, channel=0, data=[50, 0]),
   midi.NoteOnEvent(tick=108, channel=0, data=[50, 69]),
   midi.NoteOnEvent(tick=8, channel=0, data=[51, 0]),
   midi.NoteOnEvent(tick=107, channel=0, data=[47, 79]),
   midi.NoteOnEvent(tick=17, channel=0, data=[50, 0]),
   midi.NoteOnEvent(tick=103, channel=0, data=[43, 71]),
   midi.NoteOnEvent(tick=12, channel=0, data=[47, 0]),
   midi.NoteOnEvent(tick=107, channel=0, data=[44, 71]),
   midi.NoteOnEvent(tick=13, channel=0, data=[43, 0]),
   midi.NoteOnEvent(tick=112, channel=0, data=[43, 69]),
   midi.NoteOnEvent(tick=7, channel=0, data=[44, 0]),
   midi.NoteOnEvent(tick=114, channel=0, data=[41, 79]),
   midi.NoteOnEvent(tick=11, channel=0, data=[43, 0]),
   midi.NoteOnEvent(tick=101, channel=0, data=[38, 71]),
   midi.NoteOnEvent(tick=20, channel=0, data=[41, 0]),
   midi.NoteOnEvent(tick=100, channel=0, data=[39, 71]),
   midi.NoteOnEvent(tick=12, channel=0, data=[38, 0]),
   midi.NoteOnEvent(tick=108, channel=0, data=[38, 69]),
   midi.NoteOnEvent(tick=12, channel=0, data=[39, 0]),
   midi.NoteOnEvent(tick=114, channel=0, data=[36, 69]),
   midi.NoteOnEvent(tick=6, channel=0, data=[38, 0]),
   midi.NoteOnEvent(tick=116, channel=0, data=[35, 65]),
   midi.NoteOnEvent(tick=10, channel=0, data=[36, 0]),
   midi.NoteOnEvent(tick=106, channel=0, data=[43, 69]),
   midi.NoteOnEvent(tick=4, channel=0, data=[35, 0]),
   midi.NoteOnEvent(tick=110, channel=0, data=[41, 68]),
   midi.NoteOnEvent(tick=18, channel=0, data=[43, 0]),
   midi.NoteOnEvent(tick=109, channel=0, data=[39, 67]),
   midi.NoteOnEvent(tick=5, channel=0, data=[41, 0]),
   midi.NoteOnEvent(tick=108, channel=0, data=[38, 66]),
   midi.NoteOnEvent(tick=19, channel=0, data=[39, 0]),
   midi.NoteOnEvent(tick=107, channel=0, data=[39, 65]),
   midi.NoteOnEvent(tick=6, channel=0, data=[38, 0]),
   midi.NoteOnEvent(tick=113, channel=0, data=[38, 64]),
   midi.NoteOnEvent(tick=13, channel=0, data=[39, 0]),
   midi.NoteOnEvent(tick=106, channel=0, data=[36, 63]),
   midi.NoteOnEvent(tick=13, channel=0, data=[38, 0]),
   midi.NoteOnEvent(tick=103, channel=0, data=[35, 62]),
   midi.NoteOnEvent(tick=16, channel=0, data=[36, 0]),
   midi.NoteOnEvent(tick=114, channel=0, data=[46, 68]),
   midi.NoteOnEvent(tick=2, channel=0, data=[35, 0]),
   midi.NoteOnEvent(tick=109, channel=0, data=[44, 67]),
   midi.NoteOnEvent(tick=21, channel=0, data=[46, 0]),
   midi.NoteOnEvent(tick=104, channel=0, data=[43, 67]),
   midi.NoteOnEvent(tick=7, channel=0, data=[44, 0]),
   midi.NoteOnEvent(tick=107, channel=0, data=[41, 65]),
   midi.NoteOnEvent(tick=18, channel=0, data=[43, 0]),
   midi.NoteOnEvent(tick=103, channel=0, data=[43, 64]),
   midi.NoteOnEvent(tick=11, channel=0, data=[41, 0]),
   midi.NoteOnEvent(tick=115, channel=0, data=[41, 63]),
   midi.NoteOnEvent(tick=6, channel=0, data=[43, 0]),
   midi.NoteOnEvent(tick=110, channel=0, data=[39, 62]),
   midi.NoteOnEvent(tick=16, channel=0, data=[41, 0]),
   midi.NoteOnEvent(tick=104, channel=0, data=[38, 61]),
   midi.NoteOnEvent(tick=12, channel=0, data=[39, 0]),
   midi.NoteOnEvent(tick=112, channel=0, data=[51, 70]),
   midi.NoteOnEvent(tick=8, channel=0, data=[38, 0]),
   midi.NoteOnEvent(tick=109, channel=0, data=[50, 71]),
   midi.NoteOnEvent(tick=15, channel=0, data=[51, 0]),
   midi.NoteOnEvent(tick=105, channel=0, data=[48, 72]),
   midi.NoteOnEvent(tick=12, channel=0, data=[50, 0]),
   midi.NoteOnEvent(tick=106, channel=0, data=[47, 73]),
   midi.NoteOnEvent(tick=27, channel=0, data=[48, 0]),
   midi.NoteOnEvent(tick=98, channel=0, data=[48, 75]),
   midi.NoteOnEvent(tick=20, channel=0, data=[47, 0]),
   midi.NoteOnEvent(tick=94, channel=0, data=[47, 76]),
   midi.NoteOnEvent(tick=31, channel=0, data=[48, 0]),
   midi.NoteOnEvent(tick=93, channel=0, data=[44, 76]),
   midi.NoteOnEvent(tick=21, channel=0, data=[47, 0]),
   midi.NoteOnEvent(tick=99, channel=0, data=[43, 77]),
   midi.NoteOnEvent(tick=25, channel=0, data=[44, 0]),
   midi.NoteOnEvent(tick=98, channel=0, data=[44, 80]),
   midi.NoteOnEvent(tick=22, channel=0, data=[43, 0]),
   midi.NoteOnEvent(tick=94, channel=0, data=[43, 82]),
   midi.NoteOnEvent(tick=29, channel=0, data=[44, 0]),
   midi.NoteOnEvent(tick=87, channel=0, data=[41, 84]),
   midi.NoteOnEvent(tick=29, channel=0, data=[43, 0]),
   midi.NoteOnEvent(tick=94, channel=0, data=[39, 86]),
   midi.NoteOnEvent(tick=22, channel=0, data=[41, 0]),
   midi.NoteOnEvent(tick=99, channel=0, data=[41, 88]),
   midi.NoteOnEvent(tick=24, channel=0, data=[39, 0]),
   midi.NoteOnEvent(tick=93, channel=0, data=[39, 90]),
   midi.NoteOnEvent(tick=28, channel=0, data=[41, 0]),
   midi.NoteOnEvent(tick=3, channel=0, data=[36, 93]),
   midi.NoteOnEvent(tick=5, channel=0, data=[39, 0]),
   midi.NoteOnEvent(tick=116, channel=0, data=[43, 51]),
   midi.NoteOnEvent(tick=11, channel=0, data=[36, 0]),
   midi.NoteOnEvent(tick=107, channel=0, data=[48, 52]),
   midi.NoteOnEvent(tick=14, channel=0, data=[43, 0]),
   midi.NoteOnEvent(tick=106, channel=0, data=[50, 53]),
   midi.NoteOnEvent(tick=12, channel=0, data=[48, 0]),
   midi.NoteOnEvent(tick=0, channel=0, data=[51, 54]),
   midi.NoteOnEvent(tick=14, channel=0, data=[50, 0]),
   midi.NoteOnEvent(tick=109, channel=0, data=[55, 56]),
   midi.NoteOnEvent(tick=9, channel=0, data=[51, 0]),
   midi.NoteOnEvent(tick=111, channel=0, data=[60, 57]),
   midi.NoteOnEvent(tick=12, channel=0, data=[55, 0]),
   midi.NoteOnEvent(tick=110, channel=0, data=[62, 57]),
   midi.NoteOnEvent(tick=10, channel=0, data=[60, 0]),
   midi.NoteOnEvent(tick=7, channel=0, data=[63, 60]),
   midi.NoteOnEvent(tick=17, channel=0, data=[62, 0]),
   midi.NoteOnEvent(tick=101, channel=0, data=[62, 60]),
   midi.NoteOnEvent(tick=14, channel=0, data=[63, 0]),
   midi.NoteOnEvent(tick=104, channel=0, data=[60, 59]),
   midi.NoteOnEvent(tick=14, channel=0, data=[62, 0]),
   midi.NoteOnEvent(tick=114, channel=0, data=[55, 57]),
   midi.NoteOnEvent(tick=4, channel=0, data=[60, 0]),
   midi.NoteOnEvent(tick=25, channel=0, data=[51, 57]),
   midi.NoteOnEvent(tick=12, channel=0, data=[55, 0]),
   midi.NoteOnEvent(tick=92, channel=0, data=[50, 57]),
   midi.NoteOnEvent(tick=16, channel=0, data=[51, 0]),
   midi.NoteOnEvent(tick=100, channel=0, data=[48, 56]),
   midi.NoteOnEvent(tick=16, channel=0, data=[50, 0]),
   midi.NoteOnEvent(tick=112, channel=0, data=[43, 55]),
   midi.NoteOnEvent(tick=4, channel=0, data=[48, 0]),
   midi.NoteOnEvent(tick=3, channel=0, data=[36, 53]),
   midi.NoteOnEvent(tick=1, channel=0, data=[43, 0]),
   midi.NoteOnEvent(tick=111, channel=0, data=[43, 55]),
   midi.NoteOnEvent(tick=20, channel=0, data=[36, 0]),
   midi.NoteOnEvent(tick=104, channel=0, data=[48, 57]),
   midi.NoteOnEvent(tick=8, channel=0, data=[43, 0]),
   midi.NoteOnEvent(tick=118, channel=0, data=[50, 59]),
   midi.NoteOnEvent(tick=6, channel=0, data=[48, 0]),
   midi.NoteOnEvent(tick=104, channel=0, data=[51, 61]),
   midi.NoteOnEvent(tick=22, channel=0, data=[50, 0]),
   midi.NoteOnEvent(tick=99, channel=0, data=[50, 61]),
   midi.NoteOnEvent(tick=11, channel=0, data=[51, 0]),
   midi.NoteOnEvent(tick=110, channel=0, data=[48, 60]),
   midi.NoteOnEvent(tick=11, channel=0, data=[50, 0]),
   midi.NoteOnEvent(tick=108, channel=0, data=[43, 59]),
   midi.NoteOnEvent(tick=13, channel=0, data=[48, 0]),
   midi.NoteOnEvent(tick=17, channel=0, data=[43, 0]),
   midi.NoteOnEvent(tick=5, channel=0, data=[36, 63]),
   midi.NoteOnEvent(tick=98, channel=0, data=[43, 59]),
   midi.NoteOnEvent(tick=17, channel=0, data=[36, 0]),
   midi.NoteOnEvent(tick=108, channel=0, data=[48, 63]),
   midi.NoteOnEvent(tick=7, channel=0, data=[43, 0]),
   midi.NoteOnEvent(tick=113, channel=0, data=[50, 66]),
   midi.NoteOnEvent(tick=12, channel=0, data=[48, 0]),
   midi.NoteOnEvent(tick=109, channel=0, data=[51, 68]),
   midi.NoteOnEvent(tick=11, channel=0, data=[50, 0]),
   midi.NoteOnEvent(tick=110, channel=0, data=[50, 64]),
   midi.NoteOnEvent(tick=11, channel=0, data=[51, 0]),
   midi.NoteOnEvent(tick=111, channel=0, data=[48, 60]),
   midi.NoteOnEvent(tick=10, channel=0, data=[50, 0]),
   midi.NoteOnEvent(tick=107, channel=0, data=[43, 56]),
   midi.NoteOnEvent(tick=15, channel=0, data=[48, 0]),
   midi.NoteOnEvent(tick=83, channel=0, data=[36, 52]),
   midi.NoteOnEvent(tick=2, channel=0, data=[43, 0]),
   midi.NoteOnEvent(tick=121, channel=0, data=[43, 46]),
   midi.NoteOnEvent(tick=7, channel=0, data=[36, 0]),
   midi.NoteOnEvent(tick=109, channel=0, data=[48, 47]),
   midi.NoteOnEvent(tick=16, channel=0, data=[43, 0]),
   midi.NoteOnEvent(tick=110, channel=0, data=[50, 48]),
   midi.NoteOnEvent(tick=6, channel=0, data=[48, 0]),
   midi.NoteOnEvent(tick=112, channel=0, data=[51, 49]),
   midi.NoteOnEvent(tick=14, channel=0, data=[50, 0]),
   midi.NoteOnEvent(tick=100, channel=0, data=[55, 50]),
   midi.NoteOnEvent(tick=18, channel=0, data=[51, 0]),
   midi.NoteOnEvent(tick=101, channel=0, data=[60, 51]),
   midi.NoteOnEvent(tick=13, channel=0, data=[55, 0]),
   midi.NoteOnEvent(tick=110, channel=0, data=[62, 52]),
   midi.NoteOnEvent(tick=9, channel=0, data=[60, 0]),
   midi.NoteOnEvent(tick=81, channel=0, data=[63, 53]),
   midi.NoteOnEvent(tick=11, channel=0, data=[62, 0]),
   midi.NoteOnEvent(tick=110, channel=0, data=[62, 52]),
   midi.NoteOnEvent(tick=7, channel=0, data=[63, 0]),
   midi.NoteOnEvent(tick=109, channel=0, data=[60, 51]),
   midi.NoteOnEvent(tick=16, channel=0, data=[62, 0]),
   midi.NoteOnEvent(tick=112, channel=0, data=[55, 49]),
   midi.NoteOnEvent(tick=4, channel=0, data=[60, 0]),
   midi.NoteOnEvent(tick=108, channel=0, data=[51, 48]),
   midi.NoteOnEvent(tick=20, channel=0, data=[55, 0]),
   midi.NoteOnEvent(tick=102, channel=0, data=[50, 47]),
   midi.NoteOnEvent(tick=10, channel=0, data=[51, 0]),
   midi.NoteOnEvent(tick=109, channel=0, data=[48, 45]),
   midi.NoteOnEvent(tick=13, channel=0, data=[50, 0]),
   midi.NoteOnEvent(tick=105, channel=0, data=[43, 44]),
   midi.NoteOnEvent(tick=14, channel=0, data=[48, 0]),
   midi.NoteOnEvent(tick=95, channel=0, data=[43, 0]),
   midi.NoteOnEvent(tick=1, channel=0, data=[36, 43]),
   midi.NoteOnEvent(tick=90, channel=0, data=[43, 45]),
   midi.NoteOnEvent(tick=14, channel=0, data=[36, 0]),
   midi.NoteOnEvent(tick=114, channel=0, data=[48, 47]),
   midi.NoteOnEvent(tick=4, channel=0, data=[43, 0]),
   midi.NoteOnEvent(tick=116, channel=0, data=[50, 50]),
   midi.NoteOnEvent(tick=12, channel=0, data=[48, 0]),
   midi.NoteOnEvent(tick=109, channel=0, data=[51, 50]),
   midi.NoteOnEvent(tick=11, channel=0, data=[50, 0]),
   midi.NoteOnEvent(tick=100, channel=0, data=[50, 50]),
   midi.NoteOnEvent(tick=21, channel=0, data=[51, 0]),
   midi.NoteOnEvent(tick=103, channel=0, data=[48, 50]),
   midi.NoteOnEvent(tick=8, channel=0, data=[50, 0]),
   midi.NoteOnEvent(tick=112, channel=0, data=[43, 49]),
   midi.NoteOnEvent(tick=12, channel=0, data=[48, 0]),
   midi.NoteOnEvent(tick=38, channel=0, data=[43, 0]),
   midi.NoteOnEvent(tick=4, channel=0, data=[36, 47]),
   midi.NoteOnEvent(tick=88, channel=0, data=[43, 49]),
   midi.NoteOnEvent(tick=15, channel=0, data=[36, 0]),
   midi.NoteOnEvent(tick=105, channel=0, data=[48, 51]),
   midi.NoteOnEvent(tick=12, channel=0, data=[43, 0]),
   midi.NoteOnEvent(tick=111, channel=0, data=[50, 53]),
   midi.NoteOnEvent(tick=9, channel=0, data=[48, 0]),
   midi.NoteOnEvent(tick=105, channel=0, data=[51, 55]),
   midi.NoteOnEvent(tick=18, channel=0, data=[50, 0]),
   midi.NoteOnEvent(tick=106, channel=0, data=[50, 55]),
   midi.NoteOnEvent(tick=8, channel=0, data=[51, 0]),
   midi.NoteOnEvent(tick=107, channel=0, data=[48, 55]),
   midi.NoteOnEvent(tick=17, channel=0, data=[50, 0]),
   midi.NoteOnEvent(tick=112, channel=0, data=[43, 53]),
   midi.NoteOnEvent(tick=3, channel=0, data=[48, 0]),
   midi.NoteOnEvent(tick=4, channel=0, data=[36, 54]),
   midi.NoteOnEvent(tick=1, channel=0, data=[43, 0]),
   midi.NoteOnEvent(tick=119, channel=0, data=[43, 54]),
   midi.NoteOnEvent(tick=12, channel=0, data=[36, 0]),
   midi.NoteOnEvent(tick=99, channel=0, data=[48, 55]),
   midi.NoteOnEvent(tick=21, channel=0, data=[43, 0]),
   midi.NoteOnEvent(tick=104, channel=0, data=[50, 57]),
   midi.NoteOnEvent(tick=7, channel=0, data=[48, 0]),
   midi.NoteOnEvent(tick=114, channel=0, data=[51, 59]),
   midi.NoteOnEvent(tick=11, channel=0, data=[50, 0]),
   midi.NoteOnEvent(tick=111, channel=0, data=[55, 61]),
   midi.NoteOnEvent(tick=10, channel=0, data=[51, 0]),
   midi.NoteOnEvent(tick=110, channel=0, data=[60, 63]),
   midi.NoteOnEvent(tick=12, channel=0, data=[55, 0]),
   midi.NoteOnEvent(tick=102, channel=0, data=[62, 65]),
   midi.NoteOnEvent(tick=18, channel=0, data=[60, 0]),
   midi.NoteOnEvent(tick=5, channel=0, data=[63, 67]),
   midi.NoteOnEvent(tick=4, channel=0, data=[62, 0]),
   midi.NoteOnEvent(tick=114, channel=0, data=[62, 63]),
   midi.NoteOnEvent(tick=14, channel=0, data=[63, 0]),
   midi.NoteOnEvent(tick=100, channel=0, data=[60, 61]),
   midi.NoteOnEvent(tick=18, channel=0, data=[62, 0]),
   midi.NoteOnEvent(tick=106, channel=0, data=[55, 59]),
   midi.NoteOnEvent(tick=8, channel=0, data=[60, 0]),
   midi.NoteOnEvent(tick=106, channel=0, data=[51, 56]),
   midi.NoteOnEvent(tick=18, channel=0, data=[55, 0]),
   midi.NoteOnEvent(tick=107, channel=0, data=[50, 53]),
   midi.NoteOnEvent(tick=7, channel=0, data=[51, 0]),
   midi.NoteOnEvent(tick=116, channel=0, data=[48, 51]),
   midi.NoteOnEvent(tick=9, channel=0, data=[50, 0]),
   midi.NoteOnEvent(tick=110, channel=0, data=[43, 49]),
   midi.NoteOnEvent(tick=1, channel=0, data=[48, 0]),
   midi.NoteOnEvent(tick=100, channel=0, data=[36, 51]),
   midi.NoteOnEvent(tick=7, channel=0, data=[43, 0]),
   midi.NoteOnEvent(tick=63, channel=0, data=[42, 52]),
   midi.NoteOnEvent(tick=4, channel=0, data=[36, 0]),
   midi.NoteOnEvent(tick=114, channel=0, data=[48, 55]),
   midi.NoteOnEvent(tick=14, channel=0, data=[42, 0]),
   midi.NoteOnEvent(tick=110, channel=0, data=[50, 56]),
   midi.NoteOnEvent(tick=8, channel=0, data=[48, 0]),
   midi.NoteOnEvent(tick=21, channel=0, data=[51, 57]),
   midi.NoteOnEvent(tick=8, channel=0, data=[50, 0]),
   midi.NoteOnEvent(tick=106, channel=0, data=[50, 54]),
   midi.NoteOnEvent(tick=13, channel=0, data=[51, 0]),
   midi.NoteOnEvent(tick=102, channel=0, data=[48, 55]),
   midi.NoteOnEvent(tick=17, channel=0, data=[50, 0]),
   midi.NoteOnEvent(tick=104, channel=0, data=[42, 54]),
   midi.NoteOnEvent(tick=11, channel=0, data=[48, 0]),
   midi.NoteOnEvent(tick=30, channel=0, data=[42, 0]),
   midi.NoteOnEvent(tick=0, channel=0, data=[36, 53]),
   midi.NoteOnEvent(tick=115, channel=0, data=[42, 54]),
   midi.NoteOnEvent(tick=17, channel=0, data=[36, 0]),
   midi.NoteOnEvent(tick=110, channel=0, data=[48, 55]),
   midi.NoteOnEvent(tick=5, channel=0, data=[42, 0]),
   midi.NoteOnEvent(tick=108, channel=0, data=[50, 57]),
   midi.NoteOnEvent(tick=19, channel=0, data=[48, 0]),
   midi.NoteOnEvent(tick=17, channel=0, data=[51, 59]),
   midi.NoteOnEvent(tick=4, channel=0, data=[50, 0]),
   midi.NoteOnEvent(tick=109, channel=0, data=[50, 57]),
   midi.NoteOnEvent(tick=12, channel=0, data=[51, 0]),
   midi.NoteOnEvent(tick=102, channel=0, data=[48, 57]),
   midi.NoteOnEvent(tick=18, channel=0, data=[50, 0]),
   midi.NoteOnEvent(tick=101, channel=0, data=[42, 56]),
   midi.NoteOnEvent(tick=13, channel=0, data=[48, 0]),
   midi.NoteOnEvent(tick=49, channel=0, data=[35, 55]),
   midi.NoteOnEvent(tick=1, channel=0, data=[42, 0]),
   midi.NoteOnEvent(tick=104, channel=0, data=[47, 55]),
   midi.NoteOnEvent(tick=5, channel=0, data=[35, 0]),
   midi.NoteOnEvent(tick=108, channel=0, data=[50, 56]),
   midi.NoteOnEvent(tick=19, channel=0, data=[47, 0]),
   midi.NoteOnEvent(tick=104, channel=0, data=[55, 55]),
   midi.NoteOnEvent(tick=9, channel=0, data=[50, 0]),
   midi.NoteOnEvent(tick=2, channel=0, data=[62, 57]),
   midi.NoteOnEvent(tick=8, channel=0, data=[55, 0]),
   midi.NoteOnEvent(tick=113, channel=0, data=[55, 55]),
   midi.NoteOnEvent(tick=11, channel=0, data=[62, 0]),
   midi.NoteOnEvent(tick=105, channel=0, data=[50, 55]),
   midi.NoteOnEvent(tick=16, channel=0, data=[55, 0]),
   midi.NoteOnEvent(tick=110, channel=0, data=[47, 54]),
   midi.NoteOnEvent(tick=6, channel=0, data=[50, 0]),
   midi.NoteOnEvent(tick=1, channel=0, data=[34, 55]),
   midi.NoteOnEvent(tick=4, channel=0, data=[47, 0]),
   midi.NoteOnEvent(tick=113, channel=0, data=[46, 54]),
   midi.NoteOnEvent(tick=15, channel=0, data=[34, 0]),
   midi.NoteOnEvent(tick=107, channel=0, data=[49, 55]),
   midi.NoteOnEvent(tick=10, channel=0, data=[46, 0]),
   midi.NoteOnEvent(tick=114, channel=0, data=[55, 55]),
   midi.NoteOnEvent(tick=8, channel=0, data=[49, 0]),
   midi.NoteOnEvent(tick=20, channel=0, data=[61, 56]),
   midi.NoteOnEvent(tick=9, channel=0, data=[55, 0]),
   midi.NoteOnEvent(tick=100, channel=0, data=[55, 53]),
   midi.NoteOnEvent(tick=11, channel=0, data=[61, 0]),
   midi.NoteOnEvent(tick=109, channel=0, data=[49, 55]),
   midi.NoteOnEvent(tick=12, channel=0, data=[55, 0]),
   midi.NoteOnEvent(tick=108, channel=0, data=[46, 50]),
   midi.NoteOnEvent(tick=12, channel=0, data=[49, 0]),
   midi.NoteOnEvent(tick=28, channel=0, data=[46, 0]),
   midi.NoteOnEvent(tick=9, channel=0, data=[33, 55]),
   midi.NoteOnEvent(tick=107, channel=0, data=[45, 55]),
   midi.NoteOnEvent(tick=19, channel=0, data=[33, 0]),
   midi.NoteOnEvent(tick=102, channel=0, data=[48, 56]),
   midi.NoteOnEvent(tick=11, channel=0, data=[45, 0]),
   midi.NoteOnEvent(tick=113, channel=0, data=[53, 55]),
   midi.NoteOnEvent(tick=8, channel=0, data=[48, 0]),
   midi.NoteOnEvent(tick=16, channel=0, data=[60, 57]),
   midi.NoteOnEvent(tick=4, channel=0, data=[53, 0]),
   midi.NoteOnEvent(tick=108, channel=0, data=[53, 54]),
   midi.NoteOnEvent(tick=4, channel=0, data=[60, 0]),
   midi.NoteOnEvent(tick=110, channel=0, data=[48, 56]),
   midi.NoteOnEvent(tick=18, channel=0, data=[53, 0]),
   midi.NoteOnEvent(tick=109, channel=0, data=[45, 55]),
   midi.NoteOnEvent(tick=5, channel=0, data=[48, 0]),
   midi.NoteOnEvent(tick=32, channel=0, data=[32, 55]),
   midi.NoteOnEvent(tick=7, channel=0, data=[45, 0]),
   midi.NoteOnEvent(tick=103, channel=0, data=[44, 55]),
   midi.NoteOnEvent(tick=12, channel=0, data=[32, 0]),
   midi.NoteOnEvent(tick=108, channel=0, data=[48, 56]),
   midi.NoteOnEvent(tick=12, channel=0, data=[44, 0]),
   midi.NoteOnEvent(tick=108, channel=0, data=[53, 57]),
   midi.NoteOnEvent(tick=12, channel=0, data=[48, 0]),
   midi.NoteOnEvent(tick=115, channel=0, data=[60, 54]),
   midi.NoteOnEvent(tick=5, channel=0, data=[53, 0]),
   midi.NoteOnEvent(tick=115, channel=0, data=[53, 51]),
   midi.NoteOnEvent(tick=12, channel=0, data=[60, 0]),
   midi.NoteOnEvent(tick=108, channel=0, data=[48, 50]),
   midi.NoteOnEvent(tick=12, channel=0, data=[53, 0]),
   midi.NoteOnEvent(tick=108, channel=0, data=[44, 48]),
   midi.NoteOnEvent(tick=12, channel=0, data=[48, 0]),
   midi.NoteOnEvent(tick=57, channel=0, data=[31, 46]),
   midi.NoteOnEvent(tick=3, channel=0, data=[44, 0]),
   midi.NoteOnEvent(tick=111, channel=0, data=[43, 47]),
   midi.NoteOnEvent(tick=18, channel=0, data=[31, 0]),
   midi.NoteOnEvent(tick=103, channel=0, data=[48, 48]),
   midi.NoteOnEvent(tick=11, channel=0, data=[43, 0]),
   midi.NoteOnEvent(tick=110, channel=0, data=[47, 49]),
   midi.NoteOnEvent(tick=11, channel=0, data=[48, 0]),
   midi.NoteOnEvent(tick=110, channel=0, data=[49, 51]),
   midi.NoteOnEvent(tick=11, channel=0, data=[47, 0]),
   midi.NoteOnEvent(tick=110, channel=0, data=[48, 53]),
   midi.NoteOnEvent(tick=11, channel=0, data=[49, 0]),
   midi.NoteOnEvent(tick=107, channel=0, data=[50, 55]),
   midi.NoteOnEvent(tick=14, channel=0, data=[48, 0]),
   midi.NoteOnEvent(tick=113, channel=0, data=[49, 55]),
   midi.NoteOnEvent(tick=5, channel=0, data=[50, 0]),
   midi.NoteOnEvent(tick=112, channel=0, data=[51, 56]),
   midi.NoteOnEvent(tick=15, channel=0, data=[49, 0]),
   midi.NoteOnEvent(tick=105, channel=0, data=[50, 55]),
   midi.NoteOnEvent(tick=12, channel=0, data=[51, 0]),
   midi.NoteOnEvent(tick=112, channel=0, data=[52, 57]),
   midi.NoteOnEvent(tick=8, channel=0, data=[50, 0]),
   midi.NoteOnEvent(tick=107, channel=0, data=[51, 55]),
   midi.NoteOnEvent(tick=17, channel=0, data=[52, 0]),
   midi.NoteOnEvent(tick=106, channel=0, data=[53, 59]),
   midi.NoteOnEvent(tick=9, channel=0, data=[51, 0]),
   midi.NoteOnEvent(tick=113, channel=0, data=[52, 57]),
   midi.NoteOnEvent(tick=10, channel=0, data=[53, 0]),
   midi.NoteOnEvent(tick=110, channel=0, data=[54, 61]),
   midi.NoteOnEvent(tick=12, channel=0, data=[52, 0]),
   midi.NoteOnEvent(tick=107, channel=0, data=[53, 57]),
   midi.NoteOnEvent(tick=13, channel=0, data=[54, 0]),
   midi.NoteOnEvent(tick=107, channel=0, data=[55, 64]),
   midi.NoteOnEvent(tick=12, channel=0, data=[53, 0]),
   midi.NoteOnEvent(tick=100, channel=0, data=[54, 60]),
   midi.NoteOnEvent(tick=20, channel=0, data=[55, 0]),
   midi.NoteOnEvent(tick=103, channel=0, data=[56, 62]),
   midi.NoteOnEvent(tick=9, channel=0, data=[54, 0]),
   midi.NoteOnEvent(tick=110, channel=0, data=[55, 60]),
   midi.NoteOnEvent(tick=13, channel=0, data=[56, 0]),
   midi.NoteOnEvent(tick=105, channel=0, data=[58, 63]),
   midi.NoteOnEvent(tick=14, channel=0, data=[55, 0]),
   midi.NoteOnEvent(tick=115, channel=0, data=[56, 61]),
   midi.NoteOnEvent(tick=3, channel=0, data=[58, 0]),
   midi.NoteOnEvent(tick=115, channel=0, data=[55, 63]),
   midi.NoteOnEvent(tick=14, channel=0, data=[56, 0]),
   midi.NoteOnEvent(tick=105, channel=0, data=[53, 60]),
   midi.NoteOnEvent(tick=13, channel=0, data=[55, 0]),
   midi.NoteOnEvent(tick=100, channel=0, data=[51, 63]),
   midi.NoteOnEvent(tick=19, channel=0, data=[53, 0]),
   midi.NoteOnEvent(tick=108, channel=0, data=[50, 59]),
   midi.NoteOnEvent(tick=5, channel=0, data=[51, 0]),
   midi.NoteOnEvent(tick=116, channel=0, data=[48, 60]),
   midi.NoteOnEvent(tick=11, channel=0, data=[50, 0]),
   midi.NoteOnEvent(tick=109, channel=0, data=[47, 59]),
   midi.NoteOnEvent(tick=12, channel=0, data=[48, 0]),
   midi.NoteOnEvent(tick=109, channel=0, data=[44, 57]),
   midi.NoteOnEvent(tick=11, channel=0, data=[47, 0]),
   midi.NoteOnEvent(tick=93, channel=0, data=[43, 53]),
   midi.NoteOnEvent(tick=20, channel=0, data=[44, 0]),
   midi.NoteOnEvent(tick=106, channel=0, data=[41, 51]),
   midi.NoteOnEvent(tick=6, channel=0, data=[43, 0]),
   midi.NoteOnEvent(tick=111, channel=0, data=[38, 47]),
   midi.NoteOnEvent(tick=15, channel=0, data=[41, 0]),
   midi.NoteOnEvent(tick=105, channel=0, data=[38, 0]),
   midi.NoteOnEvent(tick=3, channel=0, data=[36, 41]),
   midi.NoteOnEvent(tick=90, channel=0, data=[43, 42]),
   midi.NoteOnEvent(tick=9, channel=0, data=[36, 0]),
   midi.NoteOnEvent(tick=110, channel=0, data=[48, 43]),
   midi.NoteOnEvent(tick=13, channel=0, data=[43, 0]),
   midi.NoteOnEvent(tick=98, channel=0, data=[50, 44]),
   midi.NoteOnEvent(tick=21, channel=0, data=[48, 0]),
   midi.NoteOnEvent(tick=52, channel=0, data=[51, 45]),
   midi.NoteOnEvent(tick=4, channel=0, data=[50, 0]),
   midi.NoteOnEvent(tick=105, channel=0, data=[55, 46]),
   midi.NoteOnEvent(tick=16, channel=0, data=[51, 0]),
   midi.NoteOnEvent(tick=100, channel=0, data=[60, 47]),
   midi.NoteOnEvent(tick=16, channel=0, data=[55, 0]),
   midi.NoteOnEvent(tick=106, channel=0, data=[62, 48]),
   midi.NoteOnEvent(tick=10, channel=0, data=[60, 0]),
   midi.NoteOnEvent(tick=13, channel=0, data=[63, 50]),
   midi.NoteOnEvent(tick=10, channel=0, data=[62, 0]),
   midi.NoteOnEvent(tick=74, channel=0, data=[62, 49]),
   midi.NoteOnEvent(tick=15, channel=0, data=[63, 0]),
   midi.NoteOnEvent(tick=114, channel=0, data=[60, 48]),
   midi.NoteOnEvent(tick=3, channel=0, data=[62, 0]),
   midi.NoteOnEvent(tick=112, channel=0, data=[55, 47]),
   midi.NoteOnEvent(tick=17, channel=0, data=[60, 0]),
   midi.NoteOnEvent(tick=53, channel=0, data=[51, 47]),
   midi.NoteOnEvent(tick=5, channel=0, data=[55, 0]),
   midi.NoteOnEvent(tick=111, channel=0, data=[50, 46]),
   midi.NoteOnEvent(tick=6, channel=0, data=[51, 0]),
   midi.NoteOnEvent(tick=115, channel=0, data=[48, 45]),
   midi.NoteOnEvent(tick=11, channel=0, data=[50, 0]),
   midi.NoteOnEvent(tick=102, channel=0, data=[43, 44]),
   midi.NoteOnEvent(tick=19, channel=0, data=[48, 0]),
   midi.NoteOnEvent(tick=59, channel=0, data=[36, 45]),
   midi.NoteOnEvent(tick=2, channel=0, data=[43, 0]),
   midi.NoteOnEvent(tick=98, channel=0, data=[43, 48]),
   midi.NoteOnEvent(tick=4, channel=0, data=[36, 0]),
   midi.NoteOnEvent(tick=110, channel=0, data=[48, 51]),
   midi.NoteOnEvent(tick=18, channel=0, data=[43, 0]),
   midi.NoteOnEvent(tick=106, channel=0, data=[50, 53]),
   midi.NoteOnEvent(tick=8, channel=0, data=[48, 0]),
   midi.NoteOnEvent(tick=45, channel=0, data=[51, 56]),
   midi.NoteOnEvent(tick=9, channel=0, data=[50, 0]),
   midi.NoteOnEvent(tick=111, channel=0, data=[50, 53]),
   midi.NoteOnEvent(tick=11, channel=0, data=[51, 0]),
   midi.NoteOnEvent(tick=103, channel=0, data=[48, 51]),
   midi.NoteOnEvent(tick=18, channel=0, data=[50, 0]),
   midi.NoteOnEvent(tick=104, channel=0, data=[43, 49]),
   midi.NoteOnEvent(tick=10, channel=0, data=[48, 0]),
   midi.NoteOnEvent(tick=46, channel=0, data=[43, 0]),
   midi.NoteOnEvent(tick=5, channel=0, data=[36, 47]),
   midi.NoteOnEvent(tick=119, channel=0, data=[43, 47]),
   midi.NoteOnEvent(tick=13, channel=0, data=[36, 0]),
   midi.NoteOnEvent(tick=105, channel=0, data=[48, 51]),
   midi.NoteOnEvent(tick=14, channel=0, data=[43, 0]),
   midi.NoteOnEvent(tick=101, channel=0, data=[50, 53]),
   midi.NoteOnEvent(tick=17, channel=0, data=[48, 0]),
   midi.NoteOnEvent(tick=109, channel=0, data=[51, 56]),
   midi.NoteOnEvent(tick=6, channel=0, data=[50, 0]),
   midi.NoteOnEvent(tick=110, channel=0, data=[50, 54]),
   midi.NoteOnEvent(tick=16, channel=0, data=[51, 0]),
   midi.NoteOnEvent(tick=104, channel=0, data=[48, 51]),
   midi.NoteOnEvent(tick=12, channel=0, data=[50, 0]),
   midi.NoteOnEvent(tick=104, channel=0, data=[43, 48]),
   midi.NoteOnEvent(tick=16, channel=0, data=[48, 0]),
   midi.NoteOnEvent(tick=62, channel=0, data=[43, 0]),
   midi.NoteOnEvent(tick=1, channel=0, data=[36, 47]),
   midi.NoteOnEvent(tick=118, channel=0, data=[43, 43]),
   midi.NoteOnEvent(tick=14, channel=0, data=[36, 0]),
   midi.NoteOnEvent(tick=103, channel=0, data=[48, 44]),
   midi.NoteOnEvent(tick=15, channel=0, data=[43, 0]),
   midi.NoteOnEvent(tick=107, channel=0, data=[50, 46]),
   midi.NoteOnEvent(tick=10, channel=0, data=[48, 0]),
   midi.NoteOnEvent(tick=116, channel=0, data=[51, 47]),
   midi.NoteOnEvent(tick=6, channel=0, data=[50, 0]),
   midi.NoteOnEvent(tick=107, channel=0, data=[55, 48]),
   midi.NoteOnEvent(tick=19, channel=0, data=[51, 0]),
   midi.NoteOnEvent(tick=109, channel=0, data=[60, 49]),
   midi.NoteOnEvent(tick=4, channel=0, data=[55, 0]),
   midi.NoteOnEvent(tick=107, channel=0, data=[62, 50]),
   midi.NoteOnEvent(tick=17, channel=0, data=[60, 0]),
   midi.NoteOnEvent(tick=4, channel=0, data=[63, 52]),
   midi.NoteOnEvent(tick=4, channel=0, data=[62, 0]),
   midi.NoteOnEvent(tick=116, channel=0, data=[62, 51]),
   midi.NoteOnEvent(tick=12, channel=0, data=[63, 0]),
   midi.NoteOnEvent(tick=103, channel=0, data=[60, 51]),
   midi.NoteOnEvent(tick=17, channel=0, data=[62, 0]),
   midi.NoteOnEvent(tick=101, channel=0, data=[55, 50]),
   midi.NoteOnEvent(tick=14, channel=0, data=[60, 0]),
   midi.NoteOnEvent(tick=110, channel=0, data=[51, 49]),
   midi.NoteOnEvent(tick=8, channel=0, data=[55, 0]),
   midi.NoteOnEvent(tick=112, channel=0, data=[50, 48]),
   midi.NoteOnEvent(tick=12, channel=0, data=[51, 0]),
   midi.NoteOnEvent(tick=108, channel=0, data=[48, 47]),
   midi.NoteOnEvent(tick=12, channel=0, data=[50, 0]),
   midi.NoteOnEvent(tick=106, channel=0, data=[43, 46]),
   midi.NoteOnEvent(tick=14, channel=0, data=[48, 0]),
   midi.NoteOnEvent(tick=66, channel=0, data=[36, 44]),
   midi.NoteOnEvent(tick=4, channel=0, data=[43, 0]),
   midi.NoteOnEvent(tick=99, channel=0, data=[43, 46]),
   midi.NoteOnEvent(tick=3, channel=0, data=[36, 0]),
   midi.NoteOnEvent(tick=109, channel=0, data=[48, 47]),
   midi.NoteOnEvent(tick=20, channel=0, data=[43, 0]),
   midi.NoteOnEvent(tick=101, channel=0, data=[50, 49]),
   midi.NoteOnEvent(tick=11, channel=0, data=[48, 0]),
   midi.NoteOnEvent(tick=110, channel=0, data=[51, 51]),
   midi.NoteOnEvent(tick=11, channel=0, data=[50, 0]),
   midi.NoteOnEvent(tick=113, channel=0, data=[50, 50]),
   midi.NoteOnEvent(tick=8, channel=0, data=[51, 0]),
   midi.NoteOnEvent(tick=111, channel=0, data=[48, 49]),
   midi.NoteOnEvent(tick=13, channel=0, data=[50, 0]),
   midi.NoteOnEvent(tick=111, channel=0, data=[43, 48]),
   midi.NoteOnEvent(tick=8, channel=0, data=[48, 0]),
   midi.NoteOnEvent(tick=12, channel=0, data=[36, 47]),
   midi.NoteOnEvent(tick=4, channel=0, data=[43, 0]),
   midi.NoteOnEvent(tick=95, channel=0, data=[43, 49]),
   midi.NoteOnEvent(tick=10, channel=0, data=[36, 0]),
   midi.NoteOnEvent(tick=106, channel=0, data=[48, 51]),
   midi.NoteOnEvent(tick=16, channel=0, data=[43, 0]),
   midi.NoteOnEvent(tick=109, channel=0, data=[50, 54]),
   midi.NoteOnEvent(tick=7, channel=0, data=[48, 0]),
   midi.NoteOnEvent(tick=112, channel=0, data=[51, 57]),
   midi.NoteOnEvent(tick=13, channel=0, data=[50, 0]),
   midi.NoteOnEvent(tick=100, channel=0, data=[50, 54]),
   midi.NoteOnEvent(tick=19, channel=0, data=[51, 0]),
   midi.NoteOnEvent(tick=105, channel=0, data=[48, 53]),
   midi.NoteOnEvent(tick=8, channel=0, data=[50, 0]),
   midi.NoteOnEvent(tick=107, channel=0, data=[43, 51]),
   midi.NoteOnEvent(tick=17, channel=0, data=[48, 0]),
   midi.NoteOnEvent(tick=87, channel=0, data=[43, 0]),
   midi.NoteOnEvent(tick=0, channel=0, data=[36, 45]),
   midi.NoteOnEvent(tick=123, channel=0, data=[43, 47]),
   midi.NoteOnEvent(tick=4, channel=0, data=[36, 0]),
   midi.NoteOnEvent(tick=111, channel=0, data=[48, 48]),
   midi.NoteOnEvent(tick=17, channel=0, data=[43, 0]),
   midi.NoteOnEvent(tick=109, channel=0, data=[50, 49]),
   midi.NoteOnEvent(tick=6, channel=0, data=[48, 0]),
   midi.NoteOnEvent(tick=110, channel=0, data=[51, 52]),
   midi.NoteOnEvent(tick=16, channel=0, data=[50, 0]),
   midi.NoteOnEvent(tick=107, channel=0, data=[55, 54]),
   midi.NoteOnEvent(tick=9, channel=0, data=[51, 0]),
   midi.NoteOnEvent(tick=103, channel=0, data=[60, 55]),
   midi.NoteOnEvent(tick=20, channel=0, data=[55, 0]),
   midi.NoteOnEvent(tick=106, channel=0, data=[62, 57]),
   midi.NoteOnEvent(tick=6, channel=0, data=[60, 0]),
   midi.NoteOnEvent(tick=37, channel=0, data=[63, 60]),
   midi.NoteOnEvent(tick=18, channel=0, data=[62, 0]),
   midi.NoteOnEvent(tick=73, channel=0, data=[62, 56]),
   midi.NoteOnEvent(tick=5, channel=0, data=[63, 0]),
   midi.NoteOnEvent(tick=118, channel=0, data=[60, 57]),
   midi.NoteOnEvent(tick=9, channel=0, data=[62, 0]),
   midi.NoteOnEvent(tick=106, channel=0, data=[55, 55]),
   midi.NoteOnEvent(tick=17, channel=0, data=[60, 0]),
   midi.NoteOnEvent(tick=105, channel=0, data=[51, 54]),
   midi.NoteOnEvent(tick=10, channel=0, data=[55, 0]),
   midi.NoteOnEvent(tick=105, channel=0, data=[50, 51]),
   midi.NoteOnEvent(tick=17, channel=0, data=[51, 0]),
   midi.NoteOnEvent(tick=110, channel=0, data=[48, 51]),
   midi.NoteOnEvent(tick=5, channel=0, data=[50, 0]),
   midi.NoteOnEvent(tick=2, channel=0, data=[43, 49]),
   midi.NoteOnEvent(tick=14, channel=0, data=[48, 0]),
   midi.NoteOnEvent(tick=105, channel=0, data=[36, 60]),
   midi.NoteOnEvent(tick=1, channel=0, data=[43, 0]),
   midi.NoteOnEvent(tick=88, channel=0, data=[42, 47]),
   midi.NoteOnEvent(tick=16, channel=0, data=[36, 0]),
   midi.NoteOnEvent(tick=111, channel=0, data=[48, 50]),
   midi.NoteOnEvent(tick=5, channel=0, data=[42, 0]),
   midi.NoteOnEvent(tick=111, channel=0, data=[50, 52]),
   midi.NoteOnEvent(tick=16, channel=0, data=[48, 0]),
   midi.NoteOnEvent(tick=32, channel=0, data=[51, 53]),
   midi.NoteOnEvent(tick=1, channel=0, data=[50, 0]),
   midi.NoteOnEvent(tick=106, channel=0, data=[50, 52]),
   midi.NoteOnEvent(tick=17, channel=0, data=[51, 0]),
   midi.NoteOnEvent(tick=100, channel=0, data=[48, 51]),
   midi.NoteOnEvent(tick=15, channel=0, data=[50, 0]),
   midi.NoteOnEvent(tick=110, channel=0, data=[42, 49]),
   midi.NoteOnEvent(tick=7, channel=0, data=[48, 0]),
   midi.NoteOnEvent(tick=63, channel=0, data=[42, 0]),
   midi.NoteOnEvent(tick=1, channel=0, data=[36, 64]),
   midi.NoteOnEvent(tick=118, channel=0, data=[42, 55]),
   midi.NoteOnEvent(tick=14, channel=0, data=[36, 0]),
   midi.NoteOnEvent(tick=106, channel=0, data=[48, 57]),
   midi.NoteOnEvent(tick=12, channel=0, data=[42, 0]),
   midi.NoteOnEvent(tick=104, channel=0, data=[50, 63]),
   midi.NoteOnEvent(tick=16, channel=0, data=[48, 0]),
   midi.NoteOnEvent(tick=32, channel=0, data=[51, 64]),
   midi.NoteOnEvent(tick=9, channel=0, data=[50, 0]),
   midi.NoteOnEvent(tick=92, channel=0, data=[50, 62]),
   midi.NoteOnEvent(tick=9, channel=0, data=[51, 0]),
   midi.NoteOnEvent(tick=114, channel=0, data=[48, 61]),
   midi.NoteOnEvent(tick=9, channel=0, data=[50, 0]),
   midi.NoteOnEvent(tick=106, channel=0, data=[42, 59]),
   midi.NoteOnEvent(tick=17, channel=0, data=[48, 0]),
   midi.NoteOnEvent(tick=45, channel=0, data=[42, 0]),
   midi.NoteOnEvent(tick=5, channel=0, data=[37, 63]),
   midi.NoteOnEvent(tick=114, channel=0, data=[49, 64]),
   midi.NoteOnEvent(tick=18, channel=0, data=[37, 0]),
   midi.NoteOnEvent(tick=103, channel=0, data=[54, 69]),
   midi.NoteOnEvent(tick=11, channel=0, data=[49, 0]),
   midi.NoteOnEvent(tick=104, channel=0, data=[56, 71]),
   midi.NoteOnEvent(tick=17, channel=0, data=[54, 0]),
   midi.NoteOnEvent(tick=113, channel=0, data=[58, 77]),
   midi.NoteOnEvent(tick=2, channel=0, data=[56, 0]),
   midi.NoteOnEvent(tick=117, channel=0, data=[56, 74]),
   midi.NoteOnEvent(tick=13, channel=0, data=[58, 0]),
   midi.NoteOnEvent(tick=102, channel=0, data=[54, 73]),
   midi.NoteOnEvent(tick=17, channel=0, data=[56, 0]),
   midi.NoteOnEvent(tick=106, channel=0, data=[49, 67]),
   midi.NoteOnEvent(tick=9, channel=0, data=[54, 0]),
   midi.NoteOnEvent(tick=95, channel=0, data=[37, 62]),
   midi.NoteOnEvent(tick=2, channel=0, data=[49, 0]),
   midi.NoteOnEvent(tick=119, channel=0, data=[49, 65]),
   midi.NoteOnEvent(tick=9, channel=0, data=[37, 0]),
   midi.NoteOnEvent(tick=110, channel=0, data=[54, 69]),
   midi.NoteOnEvent(tick=13, channel=0, data=[49, 0]),
   midi.NoteOnEvent(tick=108, channel=0, data=[56, 74]),
   midi.NoteOnEvent(tick=11, channel=0, data=[54, 0]),
   midi.NoteOnEvent(tick=103, channel=0, data=[58, 76]),
   midi.NoteOnEvent(tick=18, channel=0, data=[56, 0]),
   midi.NoteOnEvent(tick=106, channel=0, data=[56, 72]),
   midi.NoteOnEvent(tick=8, channel=0, data=[58, 0]),
   midi.NoteOnEvent(tick=110, channel=0, data=[54, 71]),
   midi.NoteOnEvent(tick=14, channel=0, data=[56, 0]),
   midi.NoteOnEvent(tick=114, channel=0, data=[49, 65]),
   midi.NoteOnEvent(tick=3, channel=0, data=[54, 0]),
   midi.NoteOnEvent(tick=4, channel=0, data=[37, 60]),
   midi.NoteOnEvent(tick=1, channel=0, data=[49, 0]),
   midi.NoteOnEvent(tick=120, channel=0, data=[49, 63]),
   midi.NoteOnEvent(tick=11, channel=0, data=[37, 0]),
   midi.NoteOnEvent(tick=105, channel=0, data=[55, 66]),
   midi.NoteOnEvent(tick=16, channel=0, data=[49, 0]),
   midi.NoteOnEvent(tick=104, channel=0, data=[58, 68]),
   midi.NoteOnEvent(tick=12, channel=0, data=[55, 0]),
   midi.NoteOnEvent(tick=102, channel=0, data=[61, 70]),
   midi.NoteOnEvent(tick=18, channel=0, data=[58, 0]),
   midi.NoteOnEvent(tick=106, channel=0, data=[60, 70]),
   midi.NoteOnEvent(tick=8, channel=0, data=[61, 0]),
   midi.NoteOnEvent(tick=111, channel=0, data=[58, 69]),
   midi.NoteOnEvent(tick=13, channel=0, data=[60, 0]),
   midi.NoteOnEvent(tick=109, channel=0, data=[56, 68]),
   midi.NoteOnEvent(tick=10, channel=0, data=[58, 0]),
   midi.NoteOnEvent(tick=35, channel=0, data=[55, 68]),
   midi.NoteOnEvent(tick=5, channel=0, data=[56, 0]),
   midi.NoteOnEvent(tick=124, channel=0, data=[53, 68]),
   midi.NoteOnEvent(tick=3, channel=0, data=[55, 0]),
   midi.NoteOnEvent(tick=111, channel=0, data=[52, 69]),
   midi.NoteOnEvent(tick=18, channel=0, data=[53, 0]),
   midi.NoteOnEvent(tick=107, channel=0, data=[49, 67]),
   midi.NoteOnEvent(tick=7, channel=0, data=[52, 0]),
   midi.NoteOnEvent(tick=115, channel=0, data=[48, 66]),
   midi.NoteOnEvent(tick=10, channel=0, data=[49, 0]),
   midi.NoteOnEvent(tick=92, channel=0, data=[46, 64]),
   midi.NoteOnEvent(tick=16, channel=0, data=[48, 0]),
   midi.NoteOnEvent(tick=100, channel=0, data=[44, 63]),
   midi.NoteOnEvent(tick=16, channel=0, data=[46, 0]),
   midi.NoteOnEvent(tick=105, channel=0, data=[43, 62]),
   midi.NoteOnEvent(tick=11, channel=0, data=[44, 0]),
   midi.NoteOnEvent(tick=61, channel=0, data=[43, 0]),
   midi.NoteOnEvent(tick=1, channel=0, data=[35, 62]),
   midi.NoteOnEvent(tick=123, channel=0, data=[47, 65]),
   midi.NoteOnEvent(tick=9, channel=0, data=[35, 0]),
   midi.NoteOnEvent(tick=104, channel=0, data=[52, 67]),
   midi.NoteOnEvent(tick=19, channel=0, data=[47, 0]),
   midi.NoteOnEvent(tick=102, channel=0, data=[54, 69]),
   midi.NoteOnEvent(tick=11, channel=0, data=[52, 0]),
   midi.NoteOnEvent(tick=13, channel=0, data=[56, 72]),
   midi.NoteOnEvent(tick=8, channel=0, data=[54, 0]),
   midi.NoteOnEvent(tick=114, channel=0, data=[54, 73]),
   midi.NoteOnEvent(tick=10, channel=0, data=[56, 0]),
   midi.NoteOnEvent(tick=103, channel=0, data=[52, 71]),
   midi.NoteOnEvent(tick=19, channel=0, data=[54, 0]),
   midi.NoteOnEvent(tick=101, channel=0, data=[47, 67]),
   midi.NoteOnEvent(tick=12, channel=0, data=[52, 0]),
   midi.NoteOnEvent(tick=54, channel=0, data=[47, 0]),
   midi.NoteOnEvent(tick=2, channel=0, data=[35, 62]),
   midi.NoteOnEvent(tick=124, channel=0, data=[47, 67]),
   midi.NoteOnEvent(tick=7, channel=0, data=[35, 0]),
   midi.NoteOnEvent(tick=110, channel=0, data=[52, 72]),
   midi.NoteOnEvent(tick=15, channel=0, data=[47, 0]),
   midi.NoteOnEvent(tick=99, channel=0, data=[54, 71]),
   midi.NoteOnEvent(tick=18, channel=0, data=[52, 0]),
   midi.NoteOnEvent(tick=28, channel=0, data=[56, 76]),
   midi.NoteOnEvent(tick=2, channel=0, data=[54, 0]),
   midi.NoteOnEvent(tick=81, channel=0, data=[54, 73]),
   midi.NoteOnEvent(tick=22, channel=0, data=[56, 0]),
   midi.NoteOnEvent(tick=104, channel=0, data=[52, 74]),
   midi.NoteOnEvent(tick=6, channel=0, data=[54, 0]),
   midi.NoteOnEvent(tick=110, channel=0, data=[47, 70]),
   midi.NoteOnEvent(tick=16, channel=0, data=[52, 0]),
   midi.NoteOnEvent(tick=42, channel=0, data=[35, 64]),
   midi.NoteOnEvent(tick=1, channel=0, data=[47, 0]),
   midi.NoteOnEvent(tick=116, channel=0, data=[47, 65]),
   midi.NoteOnEvent(tick=12, channel=0, data=[35, 0]),
   midi.NoteOnEvent(tick=109, channel=0, data=[53, 67]),
   midi.NoteOnEvent(tick=11, channel=0, data=[47, 0]),
   midi.NoteOnEvent(tick=112, channel=0, data=[56, 71]),
   midi.NoteOnEvent(tick=9, channel=0, data=[53, 0]),
   midi.NoteOnEvent(tick=22, channel=0, data=[59, 73]),
   midi.NoteOnEvent(tick=7, channel=0, data=[56, 0]),
   midi.NoteOnEvent(tick=103, channel=0, data=[58, 73]),
   midi.NoteOnEvent(tick=22, channel=0, data=[59, 0]),
   midi.NoteOnEvent(tick=98, channel=0, data=[56, 72]),
   midi.NoteOnEvent(tick=12, channel=0, data=[58, 0]),
   midi.NoteOnEvent(tick=111, channel=0, data=[54, 71]),
   midi.NoteOnEvent(tick=9, channel=0, data=[56, 0]),
   midi.NoteOnEvent(tick=67, channel=0, data=[53, 71]),
   midi.NoteOnEvent(tick=10, channel=0, data=[54, 0]),
   midi.NoteOnEvent(tick=110, channel=0, data=[51, 71]),
   midi.NoteOnEvent(tick=10, channel=0, data=[53, 0]),
   midi.NoteOnEvent(tick=110, channel=0, data=[50, 72]),
   midi.NoteOnEvent(tick=12, channel=0, data=[51, 0]),
   midi.NoteOnEvent(tick=107, channel=0, data=[47, 71]),
   midi.NoteOnEvent(tick=13, channel=0, data=[50, 0]),
   midi.NoteOnEvent(tick=28, channel=0, data=[46, 70]),
   midi.NoteOnEvent(tick=6, channel=0, data=[47, 0]),
   midi.NoteOnEvent(tick=87, channel=0, data=[44, 67]),
   midi.NoteOnEvent(tick=16, channel=0, data=[46, 0]),
   midi.NoteOnEvent(tick=101, channel=0, data=[42, 64]),
   midi.NoteOnEvent(tick=15, channel=0, data=[44, 0]),
   midi.NoteOnEvent(tick=107, channel=0, data=[41, 62]),
   midi.NoteOnEvent(tick=10, channel=0, data=[42, 0]),
   midi.NoteOnEvent(tick=62, channel=0, data=[34, 59]),
   midi.NoteOnEvent(tick=1, channel=0, data=[41, 0]),
   midi.NoteOnEvent(tick=125, channel=0, data=[46, 54]),
   midi.NoteOnEvent(tick=6, channel=0, data=[34, 0]),
   midi.NoteOnEvent(tick=110, channel=0, data=[51, 45]),
   midi.NoteOnEvent(tick=16, channel=0, data=[46, 0]),
   midi.NoteOnEvent(tick=107, channel=0, data=[53, 48]),
   midi.NoteOnEvent(tick=9, channel=0, data=[51, 0]),
   midi.NoteOnEvent(tick=10, channel=0, data=[55, 50]),
   midi.NoteOnEvent(tick=13, channel=0, data=[53, 0]),
   midi.NoteOnEvent(tick=107, channel=0, data=[53, 47]),
   midi.NoteOnEvent(tick=12, channel=0, data=[55, 0]),
   midi.NoteOnEvent(tick=106, channel=0, data=[51, 45]),
   midi.NoteOnEvent(tick=14, channel=0, data=[53, 0]),
   midi.NoteOnEvent(tick=109, channel=0, data=[46, 43]),
   midi.NoteOnEvent(tick=9, channel=0, data=[51, 0]),
   midi.NoteOnEvent(tick=76, channel=0, data=[34, 38]),
   midi.NoteOnEvent(tick=4, channel=0, data=[46, 0]),
   midi.NoteOnEvent(tick=121, channel=0, data=[46, 41]),
   midi.NoteOnEvent(tick=5, channel=0, data=[34, 0]),
   midi.NoteOnEvent(tick=107, channel=0, data=[51, 44]),
   midi.NoteOnEvent(tick=20, channel=0, data=[46, 0]),
   midi.NoteOnEvent(tick=108, channel=0, data=[53, 46]),
   midi.NoteOnEvent(tick=4, channel=0, data=[51, 0]),
   midi.NoteOnEvent(tick=30, channel=0, data=[55, 49]),
   midi.NoteOnEvent(tick=15, channel=0, data=[53, 0]),
   midi.NoteOnEvent(tick=81, channel=0, data=[53, 48]),
   midi.NoteOnEvent(tick=18, channel=0, data=[55, 0]),
   midi.NoteOnEvent(tick=109, channel=0, data=[51, 45]),
   midi.NoteOnEvent(tick=5, channel=0, data=[53, 0]),
   midi.NoteOnEvent(tick=112, channel=0, data=[46, 44]),
   midi.NoteOnEvent(tick=15, channel=0, data=[51, 0]),
   midi.NoteOnEvent(tick=52, channel=0, data=[35, 31]),
   midi.NoteOnEvent(tick=4, channel=0, data=[46, 0]),
   midi.NoteOnEvent(tick=115, channel=0, data=[47, 33]),
   midi.NoteOnEvent(tick=13, channel=0, data=[35, 0]),
   midi.NoteOnEvent(tick=107, channel=0, data=[50, 34]),
   midi.NoteOnEvent(tick=12, channel=0, data=[47, 0]),
   midi.NoteOnEvent(tick=113, channel=0, data=[55, 35]),
   midi.NoteOnEvent(tick=7, channel=0, data=[50, 0]),
   midi.NoteOnEvent(tick=4, channel=0, data=[62, 36]),
   midi.NoteOnEvent(tick=8, channel=0, data=[55, 0]),
   midi.NoteOnEvent(tick=104, channel=0, data=[55, 35]),
   midi.NoteOnEvent(tick=20, channel=0, data=[62, 0]),
   midi.NoteOnEvent(tick=99, channel=0, data=[50, 34]),
   midi.NoteOnEvent(tick=13, channel=0, data=[55, 0]),
   midi.NoteOnEvent(tick=109, channel=0, data=[47, 32]),
   midi.NoteOnEvent(tick=10, channel=0, data=[50, 0]),
   midi.NoteOnEvent(tick=71, channel=0, data=[47, 0]),
   midi.NoteOnEvent(tick=4, channel=0, data=[35, 31]),
   midi.NoteOnEvent(tick=119, channel=0, data=[47, 31]),
   midi.NoteOnEvent(tick=13, channel=0, data=[35, 0]),
   midi.NoteOnEvent(tick=107, channel=0, data=[50, 33]),
   midi.NoteOnEvent(tick=12, channel=0, data=[47, 0]),
   midi.NoteOnEvent(tick=107, channel=0, data=[55, 34]),
   midi.NoteOnEvent(tick=13, channel=0, data=[50, 0]),
   midi.NoteOnEvent(tick=38, channel=0, data=[62, 35]),
   midi.NoteOnEvent(tick=8, channel=0, data=[55, 0]),
   midi.NoteOnEvent(tick=109, channel=0, data=[55, 34]),
   midi.NoteOnEvent(tick=7, channel=0, data=[62, 0]),
   midi.NoteOnEvent(tick=115, channel=0, data=[50, 34]),
   midi.NoteOnEvent(tick=10, channel=0, data=[55, 0]),
   midi.NoteOnEvent(tick=109, channel=0, data=[47, 33]),
   midi.NoteOnEvent(tick=13, channel=0, data=[50, 0]),
   midi.NoteOnEvent(tick=54, channel=0, data=[36, 32]),
   midi.NoteOnEvent(tick=4, channel=0, data=[47, 0]),
   midi.NoteOnEvent(tick=116, channel=0, data=[43, 29]),
   midi.NoteOnEvent(tick=9, channel=0, data=[36, 0]),
   midi.NoteOnEvent(tick=106, channel=0, data=[48, 30]),
   midi.NoteOnEvent(tick=17, channel=0, data=[43, 0]),
   midi.NoteOnEvent(tick=103, channel=0, data=[50, 31]),
   midi.NoteOnEvent(tick=12, channel=0, data=[48, 0]),
   midi.NoteOnEvent(tick=108, channel=0, data=[51, 32]),
   midi.NoteOnEvent(tick=12, channel=0, data=[50, 0]),
   midi.NoteOnEvent(tick=111, channel=0, data=[55, 33]),
   midi.NoteOnEvent(tick=9, channel=0, data=[51, 0]),
   midi.NoteOnEvent(tick=115, channel=0, data=[60, 34]),
   midi.NoteOnEvent(tick=8, channel=0, data=[55, 0]),
   midi.NoteOnEvent(tick=20, channel=0, data=[62, 35]),
   midi.NoteOnEvent(tick=15, channel=0, data=[60, 0]),
   midi.NoteOnEvent(tick=56, channel=0, data=[63, 35]),
   midi.NoteOnEvent(tick=15, channel=0, data=[62, 0]),
   midi.NoteOnEvent(tick=107, channel=0, data=[62, 35]),
   midi.NoteOnEvent(tick=10, channel=0, data=[63, 0]),
   midi.NoteOnEvent(tick=109, channel=0, data=[60, 35]),
   midi.NoteOnEvent(tick=13, channel=0, data=[62, 0]),
   midi.NoteOnEvent(tick=113, channel=0, data=[55, 34]),
   midi.NoteOnEvent(tick=6, channel=0, data=[60, 0]),
   midi.NoteOnEvent(tick=107, channel=0, data=[51, 34]),
   midi.NoteOnEvent(tick=19, channel=0, data=[55, 0]),
   midi.NoteOnEvent(tick=100, channel=0, data=[50, 33]),
   midi.NoteOnEvent(tick=13, channel=0, data=[51, 0]),
   midi.NoteOnEvent(tick=112, channel=0, data=[48, 32]),
   midi.NoteOnEvent(tick=7, channel=0, data=[50, 0]),
   midi.NoteOnEvent(tick=111, channel=0, data=[43, 32]),
   midi.NoteOnEvent(tick=14, channel=0, data=[48, 0]),
   midi.NoteOnEvent(tick=58, channel=0, data=[43, 0]),
   midi.NoteOnEvent(tick=3, channel=0, data=[29, 35]),
   midi.NoteOnEvent(tick=113, channel=0, data=[37, 35]),
   midi.NoteOnEvent(tick=19, channel=0, data=[29, 0]),
   midi.NoteOnEvent(tick=109, channel=0, data=[41, 36]),
   midi.NoteOnEvent(tick=4, channel=0, data=[37, 0]),
   midi.NoteOnEvent(tick=108, channel=0, data=[43, 38]),
   midi.NoteOnEvent(tick=20, channel=0, data=[41, 0]),
   midi.NoteOnEvent(tick=2, channel=0, data=[44, 39]),
   midi.NoteOnEvent(tick=13, channel=0, data=[43, 0]),
   midi.NoteOnEvent(tick=108, channel=0, data=[49, 40]),
   midi.NoteOnEvent(tick=11, channel=0, data=[44, 0]),
   midi.NoteOnEvent(tick=116, channel=0, data=[53, 42]),
   midi.NoteOnEvent(tick=5, channel=0, data=[49, 0]),
   midi.NoteOnEvent(tick=109, channel=0, data=[55, 43]),
   midi.NoteOnEvent(tick=18, channel=0, data=[53, 0]),
   midi.NoteOnEvent(tick=36, channel=0, data=[56, 44]),
   midi.NoteOnEvent(tick=8, channel=0, data=[55, 0]),
   midi.NoteOnEvent(tick=107, channel=0, data=[55, 44]),
   midi.NoteOnEvent(tick=15, channel=0, data=[56, 0]),
   midi.NoteOnEvent(tick=107, channel=0, data=[53, 43]),
   midi.NoteOnEvent(tick=10, channel=0, data=[55, 0]),
   midi.NoteOnEvent(tick=112, channel=0, data=[49, 42]),
   midi.NoteOnEvent(tick=10, channel=0, data=[53, 0]),
   midi.NoteOnEvent(tick=112, channel=0, data=[44, 41]),
   midi.NoteOnEvent(tick=10, channel=0, data=[49, 0]),
   midi.NoteOnEvent(tick=111, channel=0, data=[41, 40]),
   midi.NoteOnEvent(tick=11, channel=0, data=[44, 0]),
   midi.NoteOnEvent(tick=109, channel=0, data=[37, 40]),
   midi.NoteOnEvent(tick=12, channel=0, data=[41, 0]),
   midi.NoteOnEvent(tick=99, channel=0, data=[32, 39]),
   midi.NoteOnEvent(tick=21, channel=0, data=[37, 0]),
   midi.NoteOnEvent(tick=56, channel=0, data=[32, 0]),
   midi.NoteOnEvent(tick=0, channel=0, data=[31, 38]),
   midi.NoteOnEvent(tick=120, channel=0, data=[31, 0]),
   midi.NoteOnEvent(tick=125, channel=0, data=[40, 42]),
   midi.NoteOnEvent(tick=122, channel=0, data=[39, 43]),
   midi.NoteOnEvent(tick=10, channel=0, data=[40, 0]),
   midi.NoteOnEvent(tick=111, channel=0, data=[41, 43]),
   midi.NoteOnEvent(tick=11, channel=0, data=[39, 0]),
   midi.NoteOnEvent(tick=100, channel=0, data=[40, 44]),
   midi.NoteOnEvent(tick=21, channel=0, data=[41, 0]),
   midi.NoteOnEvent(tick=108, channel=0, data=[42, 44]),
   midi.NoteOnEvent(tick=3, channel=0, data=[40, 0]),
   midi.NoteOnEvent(tick=117, channel=0, data=[41, 45]),
   midi.NoteOnEvent(tick=12, channel=0, data=[42, 0]),
   midi.NoteOnEvent(tick=103, channel=0, data=[43, 45]),
   midi.NoteOnEvent(tick=17, channel=0, data=[41, 0]),
   midi.NoteOnEvent(tick=105, channel=0, data=[42, 45]),
   midi.NoteOnEvent(tick=10, channel=0, data=[43, 0]),
   midi.NoteOnEvent(tick=111, channel=0, data=[44, 46]),
   midi.NoteOnEvent(tick=11, channel=0, data=[42, 0]),
   midi.NoteOnEvent(tick=106, channel=0, data=[43, 45]),
   midi.NoteOnEvent(tick=15, channel=0, data=[44, 0]),
   midi.NoteOnEvent(tick=104, channel=0, data=[45, 47]),
   midi.NoteOnEvent(tick=13, channel=0, data=[43, 0]),
   midi.NoteOnEvent(tick=114, channel=0, data=[44, 48]),
   midi.NoteOnEvent(tick=5, channel=0, data=[45, 0]),
   midi.NoteOnEvent(tick=115, channel=0, data=[46, 49]),
   midi.NoteOnEvent(tick=12, channel=0, data=[44, 0]),
   midi.NoteOnEvent(tick=106, channel=0, data=[45, 48]),
   midi.NoteOnEvent(tick=14, channel=0, data=[46, 0]),
   midi.NoteOnEvent(tick=104, channel=0, data=[47, 49]),
   midi.NoteOnEvent(tick=14, channel=0, data=[45, 0]),
   midi.NoteOnEvent(tick=102, channel=0, data=[46, 50]),
   midi.NoteOnEvent(tick=16, channel=0, data=[47, 0]),
   midi.NoteOnEvent(tick=103, channel=0, data=[48, 50]),
   midi.NoteOnEvent(tick=13, channel=0, data=[46, 0]),
   midi.NoteOnEvent(tick=108, channel=0, data=[47, 49]),
   midi.NoteOnEvent(tick=11, channel=0, data=[48, 0]),
   midi.NoteOnEvent(tick=113, channel=0, data=[49, 52]),
   midi.NoteOnEvent(tick=8, channel=0, data=[47, 0]),
   midi.NoteOnEvent(tick=111, channel=0, data=[48, 53]),
   midi.NoteOnEvent(tick=13, channel=0, data=[49, 0]),
   midi.NoteOnEvent(tick=105, channel=0, data=[50, 53]),
   midi.NoteOnEvent(tick=14, channel=0, data=[48, 0]),
   midi.NoteOnEvent(tick=105, channel=0, data=[49, 52]),
   midi.NoteOnEvent(tick=13, channel=0, data=[50, 0]),
   midi.NoteOnEvent(tick=110, channel=0, data=[51, 53]),
   midi.NoteOnEvent(tick=9, channel=0, data=[49, 0]),
   midi.NoteOnEvent(tick=113, channel=0, data=[50, 51]),
   midi.NoteOnEvent(tick=10, channel=0, data=[51, 0]),
   midi.NoteOnEvent(tick=113, channel=0, data=[52, 54]),
   midi.NoteOnEvent(tick=9, channel=0, data=[50, 0]),
   midi.NoteOnEvent(tick=108, channel=0, data=[51, 55]),
   midi.NoteOnEvent(tick=15, channel=0, data=[52, 0]),
   midi.NoteOnEvent(tick=108, channel=0, data=[53, 56]),
   midi.NoteOnEvent(tick=9, channel=0, data=[51, 0]),
   midi.NoteOnEvent(tick=103, channel=0, data=[52, 54]),
   midi.NoteOnEvent(tick=20, channel=0, data=[53, 0]),
   midi.NoteOnEvent(tick=103, channel=0, data=[54, 56]),
   midi.NoteOnEvent(tick=9, channel=0, data=[52, 0]),
   midi.NoteOnEvent(tick=108, channel=0, data=[53, 55]),
   midi.NoteOnEvent(tick=15, channel=0, data=[54, 0]),
   midi.NoteOnEvent(tick=112, channel=0, data=[55, 57]),
   midi.NoteOnEvent(tick=5, channel=0, data=[53, 0]),
   midi.NoteOnEvent(tick=111, channel=0, data=[54, 55]),
   midi.NoteOnEvent(tick=16, channel=0, data=[55, 0]),
   midi.NoteOnEvent(tick=102, channel=0, data=[56, 57]),
   midi.NoteOnEvent(tick=14, channel=0, data=[54, 0]),
   midi.NoteOnEvent(tick=108, channel=0, data=[55, 56]),
   midi.NoteOnEvent(tick=10, channel=0, data=[56, 0]),
   midi.NoteOnEvent(tick=111, channel=0, data=[58, 57]),
   midi.NoteOnEvent(tick=11, channel=0, data=[55, 0]),
   midi.NoteOnEvent(tick=106, channel=0, data=[56, 54]),
   midi.NoteOnEvent(tick=15, channel=0, data=[58, 0]),
   midi.NoteOnEvent(tick=105, channel=0, data=[55, 53]),
   midi.NoteOnEvent(tick=12, channel=0, data=[56, 0]),
   midi.NoteOnEvent(tick=106, channel=0, data=[53, 50]),
   midi.NoteOnEvent(tick=14, channel=0, data=[55, 0]),
   midi.NoteOnEvent(tick=108, channel=0, data=[51, 53]),
   midi.NoteOnEvent(tick=10, channel=0, data=[53, 0]),
   midi.NoteOnEvent(tick=109, channel=0, data=[50, 48]),
   midi.NoteOnEvent(tick=13, channel=0, data=[51, 0]),
   midi.NoteOnEvent(tick=115, channel=0, data=[53, 51]),
   midi.NoteOnEvent(tick=4, channel=0, data=[50, 0]),
   midi.NoteOnEvent(tick=114, channel=0, data=[51, 47]),
   midi.NoteOnEvent(tick=14, channel=0, data=[53, 0]),
   midi.NoteOnEvent(tick=106, channel=0, data=[55, 52]),
   midi.NoteOnEvent(tick=12, channel=0, data=[51, 0]),
   midi.NoteOnEvent(tick=107, channel=0, data=[53, 49]),
   midi.NoteOnEvent(tick=13, channel=0, data=[55, 0]),
   midi.NoteOnEvent(tick=107, channel=0, data=[51, 51]),
   midi.NoteOnEvent(tick=12, channel=0, data=[53, 0]),
   midi.NoteOnEvent(tick=103, channel=0, data=[50, 47]),
   midi.NoteOnEvent(tick=17, channel=0, data=[51, 0]),
   midi.NoteOnEvent(tick=109, channel=0, data=[48, 51]),
   midi.NoteOnEvent(tick=6, channel=0, data=[50, 0]),
   midi.NoteOnEvent(tick=106, channel=0, data=[47, 48]),
   midi.NoteOnEvent(tick=20, channel=0, data=[48, 0]),
   midi.NoteOnEvent(tick=107, channel=0, data=[50, 53]),
   midi.NoteOnEvent(tick=5, channel=0, data=[47, 0]),
   midi.NoteOnEvent(tick=117, channel=0, data=[48, 49]),
   midi.NoteOnEvent(tick=10, channel=0, data=[50, 0]),
   midi.NoteOnEvent(tick=104, channel=0, data=[46, 51]),
   midi.NoteOnEvent(tick=18, channel=0, data=[48, 0]),
   midi.NoteOnEvent(tick=99, channel=0, data=[44, 50]),
   midi.NoteOnEvent(tick=15, channel=0, data=[46, 0]),
   midi.NoteOnEvent(tick=110, channel=0, data=[43, 50]),
   midi.NoteOnEvent(tick=7, channel=0, data=[44, 0]),
   midi.NoteOnEvent(tick=108, channel=0, data=[42, 49]),
   midi.NoteOnEvent(tick=17, channel=0, data=[43, 0]),
   midi.NoteOnEvent(tick=112, channel=0, data=[43, 49]),
   midi.NoteOnEvent(tick=3, channel=0, data=[42, 0]),
   midi.NoteOnEvent(tick=114, channel=0, data=[44, 47]),
   midi.NoteOnEvent(tick=15, channel=0, data=[43, 0]),
   midi.NoteOnEvent(tick=104, channel=0, data=[41, 48]),
   midi.NoteOnEvent(tick=13, channel=0, data=[44, 0]),
   midi.NoteOnEvent(tick=108, channel=0, data=[43, 46]),
   midi.NoteOnEvent(tick=11, channel=0, data=[41, 0]),
   midi.NoteOnEvent(tick=109, channel=0, data=[39, 46]),
   midi.NoteOnEvent(tick=12, channel=0, data=[43, 0]),
   midi.NoteOnEvent(tick=110, channel=0, data=[41, 44]),
   midi.NoteOnEvent(tick=10, channel=0, data=[39, 0]),
   midi.NoteOnEvent(tick=109, channel=0, data=[38, 44]),
   midi.NoteOnEvent(tick=13, channel=0, data=[41, 0]),
   midi.NoteOnEvent(tick=107, channel=0, data=[39, 43]),
   midi.NoteOnEvent(tick=12, channel=0, data=[38, 0]),
   midi.NoteOnEvent(tick=106, channel=0, data=[36, 43]),
   midi.NoteOnEvent(tick=2, channel=0, data=[39, 0]),
   midi.NoteOnEvent(tick=118, channel=0, data=[36, 0]),
   midi.NoteOnEvent(tick=123, channel=0, data=[61, 49]),
   midi.NoteOnEvent(tick=121, channel=0, data=[60, 48]),
   midi.NoteOnEvent(tick=11, channel=0, data=[61, 0]),
   midi.NoteOnEvent(tick=101, channel=0, data=[58, 47]),
   midi.NoteOnEvent(tick=20, channel=0, data=[60, 0]),
   midi.NoteOnEvent(tick=103, channel=0, data=[55, 46]),
   midi.NoteOnEvent(tick=9, channel=0, data=[58, 0]),
   midi.NoteOnEvent(tick=115, channel=0, data=[56, 45]),
   midi.NoteOnEvent(tick=8, channel=0, data=[55, 0]),
   midi.NoteOnEvent(tick=104, channel=0, data=[55, 44]),
   midi.NoteOnEvent(tick=20, channel=0, data=[56, 0]),
   midi.NoteOnEvent(tick=104, channel=0, data=[52, 44]),
   midi.NoteOnEvent(tick=8, channel=0, data=[55, 0]),
   midi.NoteOnEvent(tick=108, channel=0, data=[48, 43]),
   midi.NoteOnEvent(tick=16, channel=0, data=[52, 0]),
   midi.NoteOnEvent(tick=109, channel=0, data=[49, 42]),
   midi.NoteOnEvent(tick=7, channel=0, data=[48, 0]),
   midi.NoteOnEvent(tick=110, channel=0, data=[48, 41]),
   midi.NoteOnEvent(tick=15, channel=0, data=[49, 0]),
   midi.NoteOnEvent(tick=103, channel=0, data=[46, 40]),
   midi.NoteOnEvent(tick=14, channel=0, data=[48, 0]),
   midi.NoteOnEvent(tick=108, channel=0, data=[43, 39]),
   midi.NoteOnEvent(tick=10, channel=0, data=[46, 0]),
   midi.NoteOnEvent(tick=118, channel=0, data=[44, 38]),
   midi.NoteOnEvent(tick=4, channel=0, data=[43, 0]),
   midi.NoteOnEvent(tick=111, channel=0, data=[43, 37]),
   midi.NoteOnEvent(tick=17, channel=0, data=[44, 0]),
   midi.NoteOnEvent(tick=104, channel=0, data=[41, 35]),
   midi.NoteOnEvent(tick=11, channel=0, data=[43, 0]),
   midi.NoteOnEvent(tick=59, channel=0, data=[36, 32]),
   midi.NoteOnEvent(tick=18, channel=0, data=[41, 0]),
   midi.NoteOnEvent(tick=106, channel=0, data=[41, 35]),
   midi.NoteOnEvent(tick=8, channel=0, data=[36, 0]),
   midi.NoteOnEvent(tick=118, channel=0, data=[36, 28]),
   midi.NoteOnEvent(tick=6, channel=0, data=[41, 0]),
   midi.NoteOnEvent(tick=113, channel=0, data=[41, 35]),
   midi.NoteOnEvent(tick=13, channel=0, data=[36, 0]),
   midi.NoteOnEvent(tick=101, channel=0, data=[36, 31]),
   midi.NoteOnEvent(tick=18, channel=0, data=[41, 0]),
   midi.NoteOnEvent(tick=101, channel=0, data=[41, 35]),
   midi.NoteOnEvent(tick=13, channel=0, data=[36, 0]),
   midi.NoteOnEvent(tick=108, channel=0, data=[36, 28]),
   midi.NoteOnEvent(tick=11, channel=0, data=[41, 0]),
   midi.NoteOnEvent(tick=106, channel=0, data=[41, 35]),
   midi.NoteOnEvent(tick=15, channel=0, data=[36, 0]),
   midi.NoteOnEvent(tick=115, channel=0, data=[36, 32]),
   midi.NoteOnEvent(tick=2, channel=0, data=[41, 0]),
   midi.NoteOnEvent(tick=109, channel=0, data=[41, 35]),
   midi.NoteOnEvent(tick=21, channel=0, data=[36, 0]),
   midi.NoteOnEvent(tick=98, channel=0, data=[36, 30]),
   midi.NoteOnEvent(tick=13, channel=0, data=[41, 0]),
   midi.NoteOnEvent(tick=109, channel=0, data=[41, 35]),
   midi.NoteOnEvent(tick=10, channel=0, data=[36, 0]),
   midi.NoteOnEvent(tick=111, channel=0, data=[36, 32]),
   midi.NoteOnEvent(tick=11, channel=0, data=[41, 0]),
   midi.NoteOnEvent(tick=114, channel=0, data=[41, 35]),
   midi.NoteOnEvent(tick=7, channel=0, data=[36, 0]),
   midi.NoteOnEvent(tick=16, channel=0, data=[36, 28]),
   midi.NoteOnEvent(tick=13, channel=0, data=[41, 0]),
   midi.NoteOnEvent(tick=105, channel=0, data=[48, 35]),
   midi.NoteOnEvent(tick=14, channel=0, data=[36, 0]),
   midi.NoteOnEvent(tick=106, channel=0, data=[48, 0]),
   midi.NoteOnEvent(tick=115, channel=0, data=[61, 47]),
   midi.NoteOnEvent(tick=122, channel=0, data=[60, 46]),
   midi.NoteOnEvent(tick=10, channel=0, data=[61, 0]),
   midi.NoteOnEvent(tick=109, channel=0, data=[58, 45]),
   midi.NoteOnEvent(tick=13, channel=0, data=[60, 0]),
   midi.NoteOnEvent(tick=108, channel=0, data=[55, 44]),
   midi.NoteOnEvent(tick=11, channel=0, data=[58, 0]),
   midi.NoteOnEvent(tick=113, channel=0, data=[56, 44]),
   midi.NoteOnEvent(tick=8, channel=0, data=[55, 0]),
   midi.NoteOnEvent(tick=107, channel=0, data=[55, 44]),
   midi.NoteOnEvent(tick=17, channel=0, data=[56, 0]),
   midi.NoteOnEvent(tick=108, channel=0, data=[52, 43]),
   midi.NoteOnEvent(tick=7, channel=0, data=[55, 0]),
   midi.NoteOnEvent(tick=108, channel=0, data=[48, 42]),
   midi.NoteOnEvent(tick=17, channel=0, data=[52, 0]),
   midi.NoteOnEvent(tick=106, channel=0, data=[49, 41]),
   midi.NoteOnEvent(tick=9, channel=0, data=[48, 0]),
   midi.NoteOnEvent(tick=115, channel=0, data=[48, 40]),
   midi.NoteOnEvent(tick=8, channel=0, data=[49, 0]),
   midi.NoteOnEvent(tick=107, channel=0, data=[46, 39]),
   midi.NoteOnEvent(tick=17, channel=0, data=[48, 0]),
   midi.NoteOnEvent(tick=100, channel=0, data=[43, 38]),
   midi.NoteOnEvent(tick=15, channel=0, data=[46, 0]),
   midi.NoteOnEvent(tick=108, channel=0, data=[44, 37]),
   midi.NoteOnEvent(tick=9, channel=0, data=[43, 0]),
   midi.NoteOnEvent(tick=115, channel=0, data=[43, 36]),
   midi.NoteOnEvent(tick=8, channel=0, data=[44, 0]),
   midi.NoteOnEvent(tick=114, channel=0, data=[41, 35]),
   midi.NoteOnEvent(tick=10, channel=0, data=[43, 0]),
   midi.NoteOnEvent(tick=100, channel=0, data=[36, 33]),
   midi.NoteOnEvent(tick=15, channel=0, data=[41, 0]),
   midi.NoteOnEvent(tick=108, channel=0, data=[41, 35]),
   midi.NoteOnEvent(tick=9, channel=0, data=[36, 0]),
   midi.NoteOnEvent(tick=102, channel=0, data=[36, 30]),
   midi.NoteOnEvent(tick=21, channel=0, data=[41, 0]),
   midi.NoteOnEvent(tick=107, channel=0, data=[41, 35]),
   midi.NoteOnEvent(tick=4, channel=0, data=[36, 0]),
   midi.NoteOnEvent(tick=118, channel=0, data=[36, 34]),
   midi.NoteOnEvent(tick=10, channel=0, data=[41, 0]),
   midi.NoteOnEvent(tick=106, channel=0, data=[41, 35]),
   midi.NoteOnEvent(tick=16, channel=0, data=[36, 0]),
   midi.NoteOnEvent(tick=104, channel=0, data=[36, 29]),
   midi.NoteOnEvent(tick=12, channel=0, data=[41, 0]),
   midi.NoteOnEvent(tick=108, channel=0, data=[41, 35]),
   midi.NoteOnEvent(tick=12, channel=0, data=[36, 0]),
   midi.NoteOnEvent(tick=108, channel=0, data=[36, 33]),
   midi.NoteOnEvent(tick=12, channel=0, data=[41, 0]),
   midi.NoteOnEvent(tick=104, channel=0, data=[41, 35]),
   midi.NoteOnEvent(tick=16, channel=0, data=[36, 0]),
   midi.NoteOnEvent(tick=112, channel=0, data=[36, 31]),
   midi.NoteOnEvent(tick=4, channel=0, data=[41, 0]),
   midi.NoteOnEvent(tick=108, channel=0, data=[41, 35]),
   midi.NoteOnEvent(tick=20, channel=0, data=[36, 0]),
   midi.NoteOnEvent(tick=98, channel=0, data=[36, 33]),
   midi.NoteOnEvent(tick=14, channel=0, data=[41, 0]),
   midi.NoteOnEvent(tick=108, channel=0, data=[41, 35]),
   midi.NoteOnEvent(tick=10, channel=0, data=[36, 0]),
   midi.NoteOnEvent(tick=110, channel=0, data=[36, 32]),
   midi.NoteOnEvent(tick=9, channel=0, data=[41, 0]),
   midi.NoteOnEvent(tick=108, channel=0, data=[36, 0]),
   midi.NoteOnEvent(tick=3, channel=0, data=[48, 35]),
   midi.NoteOnEvent(tick=120, channel=0, data=[48, 0]),
   midi.NoteOnEvent(tick=115, channel=0, data=[80, 81]),
   midi.NoteOnEvent(tick=120, channel=0, data=[80, 0]),
   midi.NoteOnEvent(tick=5, channel=0, data=[79, 80]),
   midi.NoteOnEvent(tick=121, channel=0, data=[76, 77]),
   midi.NoteOnEvent(tick=11, channel=0, data=[79, 0]),
   midi.NoteOnEvent(tick=113, channel=0, data=[72, 76]),
   midi.NoteOnEvent(tick=8, channel=0, data=[76, 0]),
   midi.NoteOnEvent(tick=105, channel=0, data=[73, 81]),
   midi.NoteOnEvent(tick=19, channel=0, data=[72, 0]),
   midi.NoteOnEvent(tick=104, channel=0, data=[72, 77]),
   midi.NoteOnEvent(tick=9, channel=0, data=[73, 0]),
   midi.NoteOnEvent(tick=113, channel=0, data=[70, 79]),
   midi.NoteOnEvent(tick=10, channel=0, data=[72, 0]),
   midi.NoteOnEvent(tick=111, channel=0, data=[67, 77]),
   midi.NoteOnEvent(tick=11, channel=0, data=[70, 0]),
   midi.NoteOnEvent(tick=110, channel=0, data=[68, 84]),
   midi.NoteOnEvent(tick=11, channel=0, data=[67, 0]),
   midi.NoteOnEvent(tick=108, channel=0, data=[67, 81]),
   midi.NoteOnEvent(tick=13, channel=0, data=[68, 0]),
   midi.NoteOnEvent(tick=104, channel=0, data=[64, 81]),
   midi.NoteOnEvent(tick=15, channel=0, data=[67, 0]),
   midi.NoteOnEvent(tick=102, channel=0, data=[60, 79]),
   midi.NoteOnEvent(tick=15, channel=0, data=[64, 0]),
   midi.NoteOnEvent(tick=110, channel=0, data=[61, 84]),
   midi.NoteOnEvent(tick=7, channel=0, data=[60, 0]),
   midi.NoteOnEvent(tick=106, channel=0, data=[60, 80]),
   midi.NoteOnEvent(tick=19, channel=0, data=[61, 0]),
   midi.NoteOnEvent(tick=105, channel=0, data=[58, 80]),
   midi.NoteOnEvent(tick=8, channel=0, data=[60, 0]),
   midi.NoteOnEvent(tick=114, channel=0, data=[55, 80]),
   midi.NoteOnEvent(tick=10, channel=0, data=[58, 0]),
   midi.NoteOnEvent(tick=107, channel=0, data=[56, 85]),
   midi.NoteOnEvent(tick=15, channel=0, data=[55, 0]),
   midi.NoteOnEvent(tick=111, channel=0, data=[55, 82]),
   midi.NoteOnEvent(tick=6, channel=0, data=[56, 0]),
   midi.NoteOnEvent(tick=105, channel=0, data=[52, 83]),
   midi.NoteOnEvent(tick=21, channel=0, data=[55, 0]),
   midi.NoteOnEvent(tick=102, channel=0, data=[48, 81]),
   midi.NoteOnEvent(tick=9, channel=0, data=[52, 0]),
   midi.NoteOnEvent(tick=107, channel=0, data=[49, 84]),
   midi.NoteOnEvent(tick=16, channel=0, data=[48, 0]),
   midi.NoteOnEvent(tick=111, channel=0, data=[48, 84]),
   midi.NoteOnEvent(tick=5, channel=0, data=[49, 0]),
   midi.NoteOnEvent(tick=110, channel=0, data=[46, 83]),
   midi.NoteOnEvent(tick=17, channel=0, data=[48, 0]),
   midi.NoteOnEvent(tick=102, channel=0, data=[43, 83]),
   midi.NoteOnEvent(tick=13, channel=0, data=[46, 0]),
   midi.NoteOnEvent(tick=108, channel=0, data=[44, 88]),
   midi.NoteOnEvent(tick=11, channel=0, data=[43, 0]),
   midi.NoteOnEvent(tick=109, channel=0, data=[43, 84]),
   midi.NoteOnEvent(tick=12, channel=0, data=[44, 0]),
   midi.NoteOnEvent(tick=115, channel=0, data=[40, 83]),
   midi.NoteOnEvent(tick=5, channel=0, data=[43, 0]),
   midi.NoteOnEvent(tick=114, channel=0, data=[36, 83]),
   midi.NoteOnEvent(tick=13, channel=0, data=[40, 0]),
   midi.NoteOnEvent(tick=99, channel=0, data=[37, 84]),
   midi.NoteOnEvent(tick=20, channel=0, data=[36, 0]),
   midi.NoteOnEvent(tick=105, channel=0, data=[36, 93]),
   midi.NoteOnEvent(tick=7, channel=0, data=[37, 0]),
   midi.NoteOnEvent(tick=113, channel=0, data=[36, 0]),
   midi.NoteOnEvent(tick=0, channel=0, data=[29, 102]),
   midi.NoteOnEvent(tick=0, channel=0, data=[41, 102]),
   midi.NoteOnEvent(tick=940, channel=0, data=[41, 0]),
   midi.NoteOnEvent(tick=0, channel=0, data=[29, 0]),
   midi.NoteOnEvent(tick=20, channel=0, data=[29, 97]),
   midi.NoteOnEvent(tick=0, channel=0, data=[41, 97]),
   midi.NoteOnEvent(tick=900, channel=0, data=[41, 0]),
   midi.NoteOnEvent(tick=0, channel=0, data=[29, 0]),
   midi.NoteOnEvent(tick=60, channel=0, data=[24, 99]),
   midi.NoteOnEvent(tick=0, channel=0, data=[36, 99]),
   midi.NoteOnEvent(tick=240, channel=0, data=[36, 0]),
   midi.NoteOnEvent(tick=0, channel=0, data=[24, 0]),
   midi.NoteOnEvent(tick=240, channel=0, data=[24, 95]),
   midi.NoteOnEvent(tick=0, channel=0, data=[36, 95]),
   midi.NoteOnEvent(tick=240, channel=0, data=[36, 0]),
   midi.NoteOnEvent(tick=0, channel=0, data=[24, 0]),
   midi.EndOfTrackEvent(tick=0, data=[])])])
midi.write_midifile("creationMidi.mid", pattern)