import midi
pattern=midi.Pattern(format=1, resolution=480, tracks=\
[midi.Track(\
[   midi.NoteOnEvent(tick=0, channel=0, data=[64, 60]),
   midi.NoteOnEvent(tick=480, channel=0, data=[64, 0]),
   midi.NoteOnEvent(tick=0, channel=0, data=[64, 60]),
   midi.NoteOnEvent(tick=360, channel=0, data=[64, 0]),
   midi.NoteOnEvent(tick=0, channel=0, data=[64, 57]),
   midi.NoteOnEvent(tick=120, channel=0, data=[64, 0]),
   midi.NoteOnEvent(tick=0, channel=0, data=[64, 60]),
   midi.NoteOnEvent(tick=480, channel=0, data=[64, 0]),
   midi.NoteOnEvent(tick=0, channel=0, data=[65, 58]),
   midi.NoteOnEvent(tick=480, channel=0, data=[65, 0]),
   midi.NoteOnEvent(tick=0, channel=0, data=[64, 60]),
   midi.NoteOnEvent(tick=480, channel=0, data=[64, 0]),
   midi.NoteOnEvent(tick=0, channel=0, data=[60, 58]),
   midi.NoteOnEvent(tick=480, channel=0, data=[60, 0]),
   midi.NoteOnEvent(tick=0, channel=0, data=[64, 60]),
   midi.NoteOnEvent(tick=960, channel=0, data=[64, 0]),
   midi.NoteOnEvent(tick=0, channel=0, data=[64, 38]),
   midi.NoteOnEvent(tick=0, channel=0, data=[55, 28]),
   midi.NoteOnEvent(tick=0, channel=0, data=[60, 28]),
   midi.NoteOnEvent(tick=480, channel=0, data=[60, 0]),
   midi.NoteOnEvent(tick=0, channel=0, data=[55, 0]),
   midi.NoteOnEvent(tick=0, channel=0, data=[64, 0]),
   midi.NoteOnEvent(tick=0, channel=0, data=[64, 38]),
   midi.NoteOnEvent(tick=0, channel=0, data=[55, 28]),
   midi.NoteOnEvent(tick=0, channel=0, data=[60, 28]),
   midi.NoteOnEvent(tick=360, channel=0, data=[60, 0]),
   midi.NoteOnEvent(tick=0, channel=0, data=[55, 0]),
   midi.NoteOnEvent(tick=0, channel=0, data=[64, 0]),
   midi.NoteOnEvent(tick=0, channel=0, data=[55, 26]),
   midi.NoteOnEvent(tick=0, channel=0, data=[64, 36]),
   midi.NoteOnEvent(tick=0, channel=0, data=[60, 26]),
   midi.NoteOnEvent(tick=120, channel=0, data=[60, 0]),
   midi.NoteOnEvent(tick=0, channel=0, data=[64, 0]),
   midi.NoteOnEvent(tick=0, channel=0, data=[55, 0]),
   midi.NoteOnEvent(tick=0, channel=0, data=[60, 28]),
   midi.NoteOnEvent(tick=0, channel=0, data=[55, 28]),
   midi.NoteOnEvent(tick=0, channel=0, data=[64, 38]),
   midi.NoteOnEvent(tick=480, channel=0, data=[64, 0]),
   midi.NoteOnEvent(tick=0, channel=0, data=[55, 0]),
   midi.NoteOnEvent(tick=0, channel=0, data=[60, 0]),
   midi.NoteOnEvent(tick=0, channel=0, data=[65, 36]),
   midi.NoteOnEvent(tick=0, channel=0, data=[57, 26]),
   midi.NoteOnEvent(tick=0, channel=0, data=[60, 26]),
   midi.NoteOnEvent(tick=480, channel=0, data=[60, 0]),
   midi.NoteOnEvent(tick=0, channel=0, data=[57, 0]),
   midi.NoteOnEvent(tick=0, channel=0, data=[65, 0]),
   midi.NoteOnEvent(tick=0, channel=0, data=[60, 26]),
   midi.NoteOnEvent(tick=0, channel=0, data=[55, 26]),
   midi.NoteOnEvent(tick=0, channel=0, data=[64, 36]),
   midi.NoteOnEvent(tick=480, channel=0, data=[64, 0]),
   midi.NoteOnEvent(tick=0, channel=0, data=[55, 0]),
   midi.NoteOnEvent(tick=0, channel=0, data=[60, 0]),
   midi.NoteOnEvent(tick=0, channel=0, data=[57, 25]),
   midi.NoteOnEvent(tick=0, channel=0, data=[60, 34]),
   midi.NoteOnEvent(tick=480, channel=0, data=[60, 0]),
   midi.NoteOnEvent(tick=0, channel=0, data=[57, 0]),
   midi.NoteOnEvent(tick=0, channel=0, data=[60, 22]),
   midi.NoteOnEvent(tick=0, channel=0, data=[64, 31]),
   midi.NoteOnEvent(tick=0, channel=0, data=[55, 22]),
   midi.NoteOnEvent(tick=480, channel=0, data=[55, 0]),
   midi.NoteOnEvent(tick=0, channel=0, data=[60, 0]),
   midi.NoteOnEvent(tick=0, channel=0, data=[62, 19]),
   midi.NoteOnEvent(tick=0, channel=0, data=[56, 19]),
   midi.NoteOnEvent(tick=478, channel=0, data=[101, 96]),
   midi.NoteOnEvent(tick=2, channel=0, data=[56, 0]),
   midi.NoteOnEvent(tick=0, channel=0, data=[64, 0]),
   midi.NoteOnEvent(tick=0, channel=0, data=[62, 0]),
   midi.NoteOnEvent(tick=78, channel=0, data=[101, 0]),
   midi.NoteOnEvent(tick=3, channel=0, data=[96, 71]),
   midi.NoteOnEvent(tick=78, channel=0, data=[100, 91]),
   midi.NoteOnEvent(tick=2, channel=0, data=[96, 0]),
   midi.NoteOnEvent(tick=78, channel=0, data=[100, 0]),
   midi.NoteOnEvent(tick=3, channel=0, data=[93, 71]),
   midi.NoteOnEvent(tick=79, channel=0, data=[99, 84]),
   midi.NoteOnEvent(tick=1, channel=0, data=[93, 0]),
   midi.NoteOnEvent(tick=78, channel=0, data=[96, 71]),
   midi.NoteOnEvent(tick=1, channel=0, data=[99, 0]),
   midi.NoteOnEvent(tick=79, channel=0, data=[96, 0]),
   midi.NoteOnEvent(tick=0, channel=0, data=[98, 82]),
   midi.NoteOnEvent(tick=80, channel=0, data=[98, 0]),
   midi.NoteOnEvent(tick=3, channel=0, data=[93, 69]),
   midi.NoteOnEvent(tick=79, channel=0, data=[97, 79]),
   midi.NoteOnEvent(tick=1, channel=0, data=[93, 0]),
   midi.NoteOnEvent(tick=79, channel=0, data=[97, 0]),
   midi.NoteOnEvent(tick=0, channel=0, data=[93, 69]),
   midi.NoteOnEvent(tick=77, channel=0, data=[96, 79]),
   midi.NoteOnEvent(tick=3, channel=0, data=[93, 0]),
   midi.NoteOnEvent(tick=77, channel=0, data=[96, 0]),
   midi.NoteOnEvent(tick=4, channel=0, data=[88, 69]),
   midi.NoteOnEvent(tick=79, channel=0, data=[95, 78]),
   midi.NoteOnEvent(tick=1, channel=0, data=[88, 0]),
   midi.NoteOnEvent(tick=78, channel=0, data=[88, 71]),
   midi.NoteOnEvent(tick=1, channel=0, data=[95, 0]),
   midi.NoteOnEvent(tick=77, channel=0, data=[94, 78]),
   midi.NoteOnEvent(tick=2, channel=0, data=[88, 0]),
   midi.NoteOnEvent(tick=77, channel=0, data=[84, 71]),
   midi.NoteOnEvent(tick=1, channel=0, data=[94, 0]),
   midi.NoteOnEvent(tick=79, channel=0, data=[84, 0]),
   midi.NoteOnEvent(tick=0, channel=0, data=[93, 78]),
   midi.NoteOnEvent(tick=80, channel=0, data=[93, 0]),
   midi.NoteOnEvent(tick=2, channel=0, data=[88, 71]),
   midi.NoteOnEvent(tick=78, channel=0, data=[92, 78]),
   midi.NoteOnEvent(tick=2, channel=0, data=[88, 0]),
   midi.NoteOnEvent(tick=78, channel=0, data=[92, 0]),
   midi.NoteOnEvent(tick=0, channel=0, data=[84, 69]),
   midi.NoteOnEvent(tick=80, channel=0, data=[84, 0]),
   midi.NoteOnEvent(tick=5, channel=0, data=[91, 71]),
   midi.NoteOnEvent(tick=77, channel=0, data=[84, 69]),
   midi.NoteOnEvent(tick=3, channel=0, data=[91, 0]),
   midi.NoteOnEvent(tick=75, channel=0, data=[90, 71]),
   midi.NoteOnEvent(tick=2, channel=0, data=[84, 0]),
   midi.NoteOnEvent(tick=78, channel=0, data=[90, 0]),
   midi.NoteOnEvent(tick=0, channel=0, data=[81, 69]),
   midi.NoteOnEvent(tick=80, channel=0, data=[81, 0]),
   midi.NoteOnEvent(tick=0, channel=0, data=[89, 78]),
   midi.NoteOnEvent(tick=80, channel=0, data=[89, 0]),
   midi.NoteOnEvent(tick=2, channel=0, data=[84, 71]),
   midi.NoteOnEvent(tick=80, channel=0, data=[84, 0]),
   midi.NoteOnEvent(tick=1, channel=0, data=[88, 78]),
   midi.NoteOnEvent(tick=80, channel=0, data=[88, 0]),
   midi.NoteOnEvent(tick=0, channel=0, data=[81, 71]),
   midi.NoteOnEvent(tick=80, channel=0, data=[81, 0]),
   midi.NoteOnEvent(tick=0, channel=0, data=[87, 78]),
   midi.NoteOnEvent(tick=80, channel=0, data=[87, 0]),
   midi.NoteOnEvent(tick=0, channel=0, data=[84, 71]),
   midi.NoteOnEvent(tick=77, channel=0, data=[86, 78]),
   midi.NoteOnEvent(tick=3, channel=0, data=[84, 0]),
   midi.NoteOnEvent(tick=77, channel=0, data=[86, 0]),
   midi.NoteOnEvent(tick=3, channel=0, data=[81, 69]),
   midi.NoteOnEvent(tick=79, channel=0, data=[85, 71]),
   midi.NoteOnEvent(tick=1, channel=0, data=[81, 0]),
   midi.NoteOnEvent(tick=79, channel=0, data=[85, 0]),
   midi.NoteOnEvent(tick=0, channel=0, data=[81, 69]),
   midi.NoteOnEvent(tick=78, channel=0, data=[84, 71]),
   midi.NoteOnEvent(tick=2, channel=0, data=[81, 0]),
   midi.NoteOnEvent(tick=78, channel=0, data=[84, 0]),
   midi.NoteOnEvent(tick=3, channel=0, data=[76, 69]),
   midi.NoteOnEvent(tick=80, channel=0, data=[76, 0]),
   midi.NoteOnEvent(tick=1, channel=0, data=[83, 71]),
   midi.NoteOnEvent(tick=80, channel=0, data=[83, 0]),
   midi.NoteOnEvent(tick=0, channel=0, data=[76, 69]),
   midi.NoteOnEvent(tick=79, channel=0, data=[82, 71]),
   midi.NoteOnEvent(tick=1, channel=0, data=[76, 0]),
   midi.NoteOnEvent(tick=77, channel=0, data=[72, 69]),
   midi.NoteOnEvent(tick=2, channel=0, data=[82, 0]),
   midi.NoteOnEvent(tick=78, channel=0, data=[72, 0]),
   midi.NoteOnEvent(tick=4, channel=0, data=[81, 71]),
   midi.NoteOnEvent(tick=79, channel=0, data=[76, 69]),
   midi.NoteOnEvent(tick=1, channel=0, data=[81, 0]),
   midi.NoteOnEvent(tick=79, channel=0, data=[76, 0]),
   midi.NoteOnEvent(tick=1, channel=0, data=[80, 71]),
   midi.NoteOnEvent(tick=80, channel=0, data=[80, 0]),
   midi.NoteOnEvent(tick=0, channel=0, data=[72, 69]),
   midi.NoteOnEvent(tick=78, channel=0, data=[79, 71]),
   midi.NoteOnEvent(tick=2, channel=0, data=[72, 0]),
   midi.NoteOnEvent(tick=75, channel=0, data=[72, 69]),
   midi.NoteOnEvent(tick=3, channel=0, data=[79, 0]),
   midi.NoteOnEvent(tick=77, channel=0, data=[72, 0]),
   midi.NoteOnEvent(tick=2, channel=0, data=[78, 71]),
   midi.NoteOnEvent(tick=79, channel=0, data=[69, 69]),
   midi.NoteOnEvent(tick=1, channel=0, data=[78, 0]),
   midi.NoteOnEvent(tick=79, channel=0, data=[69, 0]),
   midi.NoteOnEvent(tick=4, channel=0, data=[77, 56]),
   midi.NoteOnEvent(tick=76, channel=0, data=[72, 51]),
   midi.NoteOnEvent(tick=4, channel=0, data=[77, 0]),
   midi.NoteOnEvent(tick=76, channel=0, data=[72, 0]),
   midi.NoteOnEvent(tick=3, channel=0, data=[76, 56]),
   midi.NoteOnEvent(tick=80, channel=0, data=[76, 0]),
   midi.NoteOnEvent(tick=1, channel=0, data=[69, 56]),
   midi.NoteOnEvent(tick=80, channel=0, data=[69, 0]),
   midi.NoteOnEvent(tick=0, channel=0, data=[75, 56]),
   midi.NoteOnEvent(tick=80, channel=0, data=[75, 0]),
   midi.NoteOnEvent(tick=0, channel=0, data=[72, 51]),
   midi.NoteOnEvent(tick=78, channel=0, data=[74, 56]),
   midi.NoteOnEvent(tick=2, channel=0, data=[72, 0]),
   midi.NoteOnEvent(tick=77, channel=0, data=[69, 51]),
   midi.NoteOnEvent(tick=1, channel=0, data=[74, 0]),
   midi.NoteOnEvent(tick=78, channel=0, data=[73, 56]),
   midi.NoteOnEvent(tick=1, channel=0, data=[69, 0]),
   midi.NoteOnEvent(tick=79, channel=0, data=[73, 0]),
   midi.NoteOnEvent(tick=0, channel=0, data=[69, 51]),
   midi.NoteOnEvent(tick=80, channel=0, data=[69, 0]),
   midi.NoteOnEvent(tick=4, channel=0, data=[72, 56]),
   midi.NoteOnEvent(tick=75, channel=0, data=[64, 51]),
   midi.NoteOnEvent(tick=5, channel=0, data=[72, 0]),
   midi.NoteOnEvent(tick=75, channel=0, data=[64, 0]),
   midi.NoteOnEvent(tick=2, channel=0, data=[71, 56]),
   midi.NoteOnEvent(tick=78, channel=0, data=[64, 50]),
   midi.NoteOnEvent(tick=2, channel=0, data=[71, 0]),
   midi.NoteOnEvent(tick=78, channel=0, data=[64, 0]),
   midi.NoteOnEvent(tick=4, channel=0, data=[70, 55]),
   midi.NoteOnEvent(tick=76, channel=0, data=[60, 49]),
   midi.NoteOnEvent(tick=4, channel=0, data=[70, 0]),
   midi.NoteOnEvent(tick=76, channel=0, data=[60, 0]),
   midi.NoteOnEvent(tick=0, channel=0, data=[69, 53]),
   midi.NoteOnEvent(tick=80, channel=0, data=[69, 0]),
   midi.NoteOnEvent(tick=5, channel=0, data=[64, 47]),
   midi.NoteOnEvent(tick=76, channel=0, data=[68, 50]),
   midi.NoteOnEvent(tick=4, channel=0, data=[64, 0]),
   midi.NoteOnEvent(tick=76, channel=0, data=[68, 0]),
   midi.NoteOnEvent(tick=0, channel=0, data=[60, 46]),
   midi.NoteOnEvent(tick=80, channel=0, data=[60, 0]),
   midi.NoteOnEvent(tick=2, channel=0, data=[67, 49]),
   midi.NoteOnEvent(tick=80, channel=0, data=[67, 0]),
   midi.NoteOnEvent(tick=1, channel=0, data=[60, 46]),
   midi.NoteOnEvent(tick=80, channel=0, data=[60, 0]),
   midi.NoteOnEvent(tick=1, channel=0, data=[66, 47]),
   midi.NoteOnEvent(tick=79, channel=0, data=[57, 45]),
   midi.NoteOnEvent(tick=1, channel=0, data=[66, 0]),
   midi.NoteOnEvent(tick=77, channel=0, data=[65, 47]),
   midi.NoteOnEvent(tick=2, channel=0, data=[57, 0]),
   midi.NoteOnEvent(tick=77, channel=0, data=[60, 45]),
   midi.NoteOnEvent(tick=1, channel=0, data=[65, 0]),
   midi.NoteOnEvent(tick=79, channel=0, data=[60, 0]),
   midi.NoteOnEvent(tick=3, channel=0, data=[64, 47]),
   midi.NoteOnEvent(tick=78, channel=0, data=[57, 45]),
   midi.NoteOnEvent(tick=2, channel=0, data=[64, 0]),
   midi.NoteOnEvent(tick=78, channel=0, data=[57, 0]),
   midi.NoteOnEvent(tick=0, channel=0, data=[63, 46]),
   midi.NoteOnEvent(tick=80, channel=0, data=[63, 0]),
   midi.NoteOnEvent(tick=3, channel=0, data=[60, 44]),
   midi.NoteOnEvent(tick=79, channel=0, data=[62, 45]),
   midi.NoteOnEvent(tick=1, channel=0, data=[60, 0]),
   midi.NoteOnEvent(tick=75, channel=0, data=[57, 42]),
   midi.NoteOnEvent(tick=4, channel=0, data=[62, 0]),
   midi.NoteOnEvent(tick=76, channel=0, data=[57, 0]),
   midi.NoteOnEvent(tick=3, channel=0, data=[61, 45]),
   midi.NoteOnEvent(tick=79, channel=0, data=[57, 40]),
   midi.NoteOnEvent(tick=1, channel=0, data=[61, 0]),
   midi.NoteOnEvent(tick=79, channel=0, data=[57, 0]),
   midi.NoteOnEvent(tick=2, channel=0, data=[60, 44]),
   midi.NoteOnEvent(tick=79, channel=0, data=[52, 42]),
   midi.NoteOnEvent(tick=1, channel=0, data=[60, 0]),
   midi.NoteOnEvent(tick=79, channel=0, data=[52, 0]),
   midi.NoteOnEvent(tick=0, channel=0, data=[59, 44]),
   midi.NoteOnEvent(tick=79, channel=0, data=[52, 42]),
   midi.NoteOnEvent(tick=1, channel=0, data=[59, 0]),
   midi.NoteOnEvent(tick=77, channel=0, data=[58, 47]),
   midi.NoteOnEvent(tick=2, channel=0, data=[52, 0]),
   midi.NoteOnEvent(tick=78, channel=0, data=[58, 0]),
   midi.NoteOnEvent(tick=1, channel=0, data=[48, 45]),
   midi.NoteOnEvent(tick=80, channel=0, data=[48, 0]),
   midi.NoteOnEvent(tick=1, channel=0, data=[57, 49]),
   midi.NoteOnEvent(tick=80, channel=0, data=[57, 0]),
   midi.NoteOnEvent(tick=2, channel=0, data=[52, 47]),
   midi.NoteOnEvent(tick=79, channel=0, data=[56, 53]),
   midi.NoteOnEvent(tick=1, channel=0, data=[52, 0]),
   midi.NoteOnEvent(tick=79, channel=0, data=[56, 0]),
   midi.NoteOnEvent(tick=2, channel=0, data=[48, 49]),
   midi.NoteOnEvent(tick=79, channel=0, data=[57, 56]),
   midi.NoteOnEvent(tick=1, channel=0, data=[48, 0]),
   midi.NoteOnEvent(tick=77, channel=0, data=[52, 53]),
   midi.NoteOnEvent(tick=2, channel=0, data=[57, 0]),
   midi.NoteOnEvent(tick=77, channel=0, data=[60, 59]),
   midi.NoteOnEvent(tick=1, channel=0, data=[52, 0]),
   midi.NoteOnEvent(tick=79, channel=0, data=[60, 0]),
   midi.NoteOnEvent(tick=2, channel=0, data=[53, 59]),
   midi.NoteOnEvent(tick=79, channel=0, data=[64, 59]),
   midi.NoteOnEvent(tick=1, channel=0, data=[53, 0]),
   midi.NoteOnEvent(tick=77, channel=0, data=[59, 59]),
   midi.NoteOnEvent(tick=2, channel=0, data=[64, 0]),
   midi.NoteOnEvent(tick=78, channel=0, data=[59, 0]),
   midi.NoteOnEvent(tick=4, channel=0, data=[62, 59]),
   midi.NoteOnEvent(tick=79, channel=0, data=[65, 59]),
   midi.NoteOnEvent(tick=1, channel=0, data=[62, 0]),
   midi.NoteOnEvent(tick=76, channel=0, data=[76, 59]),
   midi.NoteOnEvent(tick=3, channel=0, data=[65, 0]),
   midi.NoteOnEvent(tick=77, channel=0, data=[76, 0]),
   midi.NoteOnEvent(tick=5, channel=0, data=[71, 59]),
   midi.NoteOnEvent(tick=75, channel=0, data=[74, 62]),
   midi.NoteOnEvent(tick=5, channel=0, data=[71, 0]),
   midi.NoteOnEvent(tick=75, channel=0, data=[74, 0]),
   midi.NoteOnEvent(tick=5, channel=0, data=[77, 64]),
   midi.NoteOnEvent(tick=79, channel=0, data=[88, 67]),
   midi.NoteOnEvent(tick=1, channel=0, data=[77, 0]),
   midi.NoteOnEvent(tick=76, channel=0, data=[83, 68]),
   midi.NoteOnEvent(tick=3, channel=0, data=[88, 0]),
   midi.NoteOnEvent(tick=77, channel=0, data=[83, 0]),
   midi.NoteOnEvent(tick=1, channel=0, data=[86, 69]),
   midi.NoteOnEvent(tick=78, channel=0, data=[77, 70]),
   midi.NoteOnEvent(tick=2, channel=0, data=[86, 0]),
   midi.NoteOnEvent(tick=78, channel=0, data=[77, 0]),
   midi.NoteOnEvent(tick=5, channel=0, data=[86, 69]),
   midi.NoteOnEvent(tick=79, channel=0, data=[81, 68]),
   midi.NoteOnEvent(tick=1, channel=0, data=[86, 0]),
   midi.NoteOnEvent(tick=75, channel=0, data=[84, 67]),
   midi.NoteOnEvent(tick=4, channel=0, data=[81, 0]),
   midi.NoteOnEvent(tick=76, channel=0, data=[84, 0]),
   midi.NoteOnEvent(tick=5, channel=0, data=[77, 66]),
   midi.NoteOnEvent(tick=79, channel=0, data=[74, 64]),
   midi.NoteOnEvent(tick=1, channel=0, data=[77, 0]),
   midi.NoteOnEvent(tick=78, channel=0, data=[69, 62]),
   midi.NoteOnEvent(tick=1, channel=0, data=[74, 0]),
   midi.NoteOnEvent(tick=77, channel=0, data=[72, 58]),
   midi.NoteOnEvent(tick=2, channel=0, data=[69, 0]),
   midi.NoteOnEvent(tick=78, channel=0, data=[72, 0]),
   midi.NoteOnEvent(tick=0, channel=0, data=[65, 58]),
   midi.NoteOnEvent(tick=80, channel=0, data=[65, 0]),
   midi.NoteOnEvent(tick=3, channel=0, data=[62, 58]),
   midi.NoteOnEvent(tick=78, channel=0, data=[57, 58]),
   midi.NoteOnEvent(tick=2, channel=0, data=[62, 0]),
   midi.NoteOnEvent(tick=76, channel=0, data=[60, 58]),
   midi.NoteOnEvent(tick=2, channel=0, data=[57, 0]),
   midi.NoteOnEvent(tick=78, channel=0, data=[60, 0]),
   midi.NoteOnEvent(tick=3, channel=0, data=[53, 58]),
   midi.NoteOnEvent(tick=80, channel=0, data=[53, 0]),
   midi.NoteOnEvent(tick=1, channel=0, data=[64, 59]),
   midi.NoteOnEvent(tick=78, channel=0, data=[59, 59]),
   midi.NoteOnEvent(tick=2, channel=0, data=[64, 0]),
   midi.NoteOnEvent(tick=77, channel=0, data=[62, 59]),
   midi.NoteOnEvent(tick=1, channel=0, data=[59, 0]),
   midi.NoteOnEvent(tick=79, channel=0, data=[62, 0]),
   midi.NoteOnEvent(tick=2, channel=0, data=[65, 59]),
   midi.NoteOnEvent(tick=80, channel=0, data=[65, 0]),
   midi.NoteOnEvent(tick=1, channel=0, data=[76, 59]),
   midi.NoteOnEvent(tick=80, channel=0, data=[76, 0]),
   midi.NoteOnEvent(tick=0, channel=0, data=[71, 59]),
   midi.NoteOnEvent(tick=80, channel=0, data=[71, 0]),
   midi.NoteOnEvent(tick=0, channel=0, data=[74, 64]),
   midi.NoteOnEvent(tick=78, channel=0, data=[77, 64]),
   midi.NoteOnEvent(tick=2, channel=0, data=[74, 0]),
   midi.NoteOnEvent(tick=76, channel=0, data=[88, 66]),
   midi.NoteOnEvent(tick=2, channel=0, data=[77, 0]),
   midi.NoteOnEvent(tick=78, channel=0, data=[88, 0]),
   midi.NoteOnEvent(tick=2, channel=0, data=[83, 67]),
   midi.NoteOnEvent(tick=80, channel=0, data=[83, 0]),
   midi.NoteOnEvent(tick=3, channel=0, data=[86, 69]),
   midi.NoteOnEvent(tick=75, channel=0, data=[76, 69]),
   midi.NoteOnEvent(tick=5, channel=0, data=[86, 0]),
   midi.NoteOnEvent(tick=75, channel=0, data=[76, 0]),
   midi.NoteOnEvent(tick=3, channel=0, data=[86, 67]),
   midi.NoteOnEvent(tick=80, channel=0, data=[86, 0]),
   midi.NoteOnEvent(tick=0, channel=0, data=[81, 66]),
   midi.NoteOnEvent(tick=79, channel=0, data=[84, 64]),
   midi.NoteOnEvent(tick=1, channel=0, data=[81, 0]),
   midi.NoteOnEvent(tick=77, channel=0, data=[76, 62]),
   midi.NoteOnEvent(tick=2, channel=0, data=[84, 0]),
   midi.NoteOnEvent(tick=78, channel=0, data=[76, 0]),
   midi.NoteOnEvent(tick=5, channel=0, data=[74, 61]),
   midi.NoteOnEvent(tick=80, channel=0, data=[74, 0]),
   midi.NoteOnEvent(tick=0, channel=0, data=[69, 60]),
   midi.NoteOnEvent(tick=78, channel=0, data=[72, 59]),
   midi.NoteOnEvent(tick=2, channel=0, data=[69, 0]),
   midi.NoteOnEvent(tick=77, channel=0, data=[64, 59]),
   midi.NoteOnEvent(tick=1, channel=0, data=[72, 0]),
   midi.NoteOnEvent(tick=79, channel=0, data=[64, 0]),
   midi.NoteOnEvent(tick=0, channel=0, data=[62, 59]),
   midi.NoteOnEvent(tick=80, channel=0, data=[62, 0]),
   midi.NoteOnEvent(tick=0, channel=0, data=[57, 59]),
   midi.NoteOnEvent(tick=80, channel=0, data=[57, 0]),
   midi.NoteOnEvent(tick=3, channel=0, data=[60, 59]),
   midi.NoteOnEvent(tick=76, channel=0, data=[59, 59]),
   midi.NoteOnEvent(tick=4, channel=0, data=[60, 0]),
   midi.NoteOnEvent(tick=76, channel=0, data=[59, 0]),
   midi.NoteOnEvent(tick=1, channel=0, data=[69, 59]),
   midi.NoteOnEvent(tick=79, channel=0, data=[64, 58]),
   midi.NoteOnEvent(tick=1, channel=0, data=[69, 0]),
   midi.NoteOnEvent(tick=79, channel=0, data=[64, 0]),
   midi.NoteOnEvent(tick=4, channel=0, data=[68, 58]),
   midi.NoteOnEvent(tick=76, channel=0, data=[71, 58]),
   midi.NoteOnEvent(tick=4, channel=0, data=[68, 0]),
   midi.NoteOnEvent(tick=76, channel=0, data=[71, 0]),
   midi.NoteOnEvent(tick=3, channel=0, data=[81, 58]),
   midi.NoteOnEvent(tick=79, channel=0, data=[76, 58]),
   midi.NoteOnEvent(tick=1, channel=0, data=[81, 0]),
   midi.NoteOnEvent(tick=77, channel=0, data=[80, 58]),
   midi.NoteOnEvent(tick=2, channel=0, data=[76, 0]),
   midi.NoteOnEvent(tick=78, channel=0, data=[80, 0]),
   midi.NoteOnEvent(tick=3, channel=0, data=[83, 57]),
   midi.NoteOnEvent(tick=80, channel=0, data=[83, 0]),
   midi.NoteOnEvent(tick=1, channel=0, data=[93, 58]),
   midi.NoteOnEvent(tick=77, channel=0, data=[88, 59]),
   midi.NoteOnEvent(tick=3, channel=0, data=[93, 0]),
   midi.NoteOnEvent(tick=77, channel=0, data=[88, 0]),
   midi.NoteOnEvent(tick=1, channel=0, data=[92, 59]),
   midi.NoteOnEvent(tick=80, channel=0, data=[92, 0]),
   midi.NoteOnEvent(tick=2, channel=0, data=[83, 59]),
   midi.NoteOnEvent(tick=75, channel=0, data=[92, 60]),
   midi.NoteOnEvent(tick=5, channel=0, data=[83, 0]),
   midi.NoteOnEvent(tick=75, channel=0, data=[92, 0]),
   midi.NoteOnEvent(tick=5, channel=0, data=[87, 60]),
   midi.NoteOnEvent(tick=78, channel=0, data=[90, 59]),
   midi.NoteOnEvent(tick=2, channel=0, data=[87, 0]),
   midi.NoteOnEvent(tick=75, channel=0, data=[83, 59]),
   midi.NoteOnEvent(tick=3, channel=0, data=[90, 0]),
   midi.NoteOnEvent(tick=77, channel=0, data=[83, 0]),
   midi.NoteOnEvent(tick=3, channel=0, data=[80, 59]),
   midi.NoteOnEvent(tick=78, channel=0, data=[75, 58]),
   midi.NoteOnEvent(tick=2, channel=0, data=[80, 0]),
   midi.NoteOnEvent(tick=78, channel=0, data=[75, 0]),
   midi.NoteOnEvent(tick=4, channel=0, data=[78, 55]),
   midi.NoteOnEvent(tick=78, channel=0, data=[71, 55]),
   midi.NoteOnEvent(tick=2, channel=0, data=[78, 0]),
   midi.NoteOnEvent(tick=78, channel=0, data=[71, 0]),
   midi.NoteOnEvent(tick=0, channel=0, data=[68, 55]),
   midi.NoteOnEvent(tick=78, channel=0, data=[63, 55]),
   midi.NoteOnEvent(tick=2, channel=0, data=[68, 0]),
   midi.NoteOnEvent(tick=78, channel=0, data=[63, 0]),
   midi.NoteOnEvent(tick=4, channel=0, data=[66, 55]),
   midi.NoteOnEvent(tick=75, channel=0, data=[59, 55]),
   midi.NoteOnEvent(tick=5, channel=0, data=[66, 0]),
   midi.NoteOnEvent(tick=75, channel=0, data=[59, 0]),
   midi.NoteOnEvent(tick=0, channel=0, data=[69, 55]),
   midi.NoteOnEvent(tick=80, channel=0, data=[69, 0]),
   midi.NoteOnEvent(tick=4, channel=0, data=[64, 55]),
   midi.NoteOnEvent(tick=77, channel=0, data=[68, 55]),
   midi.NoteOnEvent(tick=3, channel=0, data=[64, 0]),
   midi.NoteOnEvent(tick=77, channel=0, data=[68, 0]),
   midi.NoteOnEvent(tick=4, channel=0, data=[71, 55]),
   midi.NoteOnEvent(tick=76, channel=0, data=[81, 55]),
   midi.NoteOnEvent(tick=4, channel=0, data=[71, 0]),
   midi.NoteOnEvent(tick=76, channel=0, data=[81, 0]),
   midi.NoteOnEvent(tick=1, channel=0, data=[76, 55]),
   midi.NoteOnEvent(tick=78, channel=0, data=[80, 55]),
   midi.NoteOnEvent(tick=2, channel=0, data=[76, 0]),
   midi.NoteOnEvent(tick=78, channel=0, data=[80, 0]),
   midi.NoteOnEvent(tick=4, channel=0, data=[83, 59]),
   midi.NoteOnEvent(tick=80, channel=0, data=[83, 0]),
   midi.NoteOnEvent(tick=1, channel=0, data=[93, 59]),
   midi.NoteOnEvent(tick=79, channel=0, data=[88, 59]),
   midi.NoteOnEvent(tick=1, channel=0, data=[93, 0]),
   midi.NoteOnEvent(tick=78, channel=0, data=[92, 59]),
   midi.NoteOnEvent(tick=1, channel=0, data=[88, 0]),
   midi.NoteOnEvent(tick=79, channel=0, data=[92, 0]),
   midi.NoteOnEvent(tick=1, channel=0, data=[83, 59]),
   midi.NoteOnEvent(tick=78, channel=0, data=[100, 81]),
   midi.NoteOnEvent(tick=2, channel=0, data=[83, 0]),
   midi.NoteOnEvent(tick=238, channel=0, data=[100, 0]),
   midi.NoteOnEvent(tick=719, channel=0, data=[101, 94]),
   midi.NoteOnEvent(tick=79, channel=0, data=[96, 69]),
   midi.NoteOnEvent(tick=1, channel=0, data=[101, 0]),
   midi.NoteOnEvent(tick=79, channel=0, data=[96, 0]),
   midi.NoteOnEvent(tick=0, channel=0, data=[100, 90]),
   midi.NoteOnEvent(tick=80, channel=0, data=[100, 0]),
   midi.NoteOnEvent(tick=0, channel=0, data=[93, 69]),
   midi.NoteOnEvent(tick=80, channel=0, data=[93, 0]),
   midi.NoteOnEvent(tick=4, channel=0, data=[99, 84]),
   midi.NoteOnEvent(tick=80, channel=0, data=[99, 0]),
   midi.NoteOnEvent(tick=1, channel=0, data=[96, 69]),
   midi.NoteOnEvent(tick=76, channel=0, data=[98, 82]),
   midi.NoteOnEvent(tick=4, channel=0, data=[96, 0]),
   midi.NoteOnEvent(tick=75, channel=0, data=[93, 67]),
   midi.NoteOnEvent(tick=1, channel=0, data=[98, 0]),
   midi.NoteOnEvent(tick=79, channel=0, data=[93, 0]),
   midi.NoteOnEvent(tick=3, channel=0, data=[97, 79]),
   midi.NoteOnEvent(tick=77, channel=0, data=[93, 67]),
   midi.NoteOnEvent(tick=3, channel=0, data=[97, 0]),
   midi.NoteOnEvent(tick=77, channel=0, data=[93, 0]),
   midi.NoteOnEvent(tick=0, channel=0, data=[96, 78]),
   midi.NoteOnEvent(tick=80, channel=0, data=[96, 0]),
   midi.NoteOnEvent(tick=2, channel=0, data=[88, 67]),
   midi.NoteOnEvent(tick=80, channel=0, data=[88, 0]),
   midi.NoteOnEvent(tick=2, channel=0, data=[95, 77]),
   midi.NoteOnEvent(tick=80, channel=0, data=[95, 0]),
   midi.NoteOnEvent(tick=0, channel=0, data=[88, 69]),
   midi.NoteOnEvent(tick=79, channel=0, data=[94, 75]),
   midi.NoteOnEvent(tick=1, channel=0, data=[88, 0]),
   midi.NoteOnEvent(tick=76, channel=0, data=[84, 69]),
   midi.NoteOnEvent(tick=3, channel=0, data=[94, 0]),
   midi.NoteOnEvent(tick=77, channel=0, data=[84, 0]),
   midi.NoteOnEvent(tick=2, channel=0, data=[93, 73]),
   midi.NoteOnEvent(tick=79, channel=0, data=[88, 69]),
   midi.NoteOnEvent(tick=1, channel=0, data=[93, 0]),
   midi.NoteOnEvent(tick=79, channel=0, data=[88, 0]),
   midi.NoteOnEvent(tick=3, channel=0, data=[92, 73]),
   midi.NoteOnEvent(tick=77, channel=0, data=[84, 67]),
   midi.NoteOnEvent(tick=3, channel=0, data=[92, 0]),
   midi.NoteOnEvent(tick=77, channel=0, data=[84, 0]),
   midi.NoteOnEvent(tick=1, channel=0, data=[91, 69]),
   midi.NoteOnEvent(tick=79, channel=0, data=[84, 67]),
   midi.NoteOnEvent(tick=1, channel=0, data=[91, 0]),
   midi.NoteOnEvent(tick=79, channel=0, data=[84, 0]),
   midi.NoteOnEvent(tick=2, channel=0, data=[90, 69]),
   midi.NoteOnEvent(tick=80, channel=0, data=[90, 0]),
   midi.NoteOnEvent(tick=0, channel=0, data=[81, 67]),
   midi.NoteOnEvent(tick=80, channel=0, data=[81, 0]),
   midi.NoteOnEvent(tick=0, channel=0, data=[89, 73]),
   midi.NoteOnEvent(tick=77, channel=0, data=[84, 69]),
   midi.NoteOnEvent(tick=3, channel=0, data=[89, 0]),
   midi.NoteOnEvent(tick=77, channel=0, data=[84, 0]),
   midi.NoteOnEvent(tick=3, channel=0, data=[88, 73]),
   midi.NoteOnEvent(tick=80, channel=0, data=[88, 0]),
   midi.NoteOnEvent(tick=2, channel=0, data=[81, 69]),
   midi.NoteOnEvent(tick=79, channel=0, data=[87, 73]),
   midi.NoteOnEvent(tick=1, channel=0, data=[81, 0]),
   midi.NoteOnEvent(tick=79, channel=0, data=[87, 0]),
   midi.NoteOnEvent(tick=1, channel=0, data=[84, 69]),
   midi.NoteOnEvent(tick=76, channel=0, data=[86, 73]),
   midi.NoteOnEvent(tick=4, channel=0, data=[84, 0]),
   midi.NoteOnEvent(tick=76, channel=0, data=[86, 0]),
   midi.NoteOnEvent(tick=1, channel=0, data=[81, 67]),
   midi.NoteOnEvent(tick=79, channel=0, data=[85, 69]),
   midi.NoteOnEvent(tick=1, channel=0, data=[81, 0]),
   midi.NoteOnEvent(tick=79, channel=0, data=[85, 0]),
   midi.NoteOnEvent(tick=4, channel=0, data=[81, 67]),
   midi.NoteOnEvent(tick=77, channel=0, data=[84, 69]),
   midi.NoteOnEvent(tick=3, channel=0, data=[81, 0]),
   midi.NoteOnEvent(tick=77, channel=0, data=[84, 0]),
   midi.NoteOnEvent(tick=3, channel=0, data=[76, 67]),
   midi.NoteOnEvent(tick=75, channel=0, data=[83, 69]),
   midi.NoteOnEvent(tick=5, channel=0, data=[76, 0]),
   midi.NoteOnEvent(tick=75, channel=0, data=[83, 0]),
   midi.NoteOnEvent(tick=3, channel=0, data=[76, 67]),
   midi.NoteOnEvent(tick=77, channel=0, data=[82, 69]),
   midi.NoteOnEvent(tick=3, channel=0, data=[76, 0]),
   midi.NoteOnEvent(tick=77, channel=0, data=[82, 0]),
   midi.NoteOnEvent(tick=2, channel=0, data=[72, 67]),
   midi.NoteOnEvent(tick=80, channel=0, data=[72, 0]),
   midi.NoteOnEvent(tick=3, channel=0, data=[81, 69]),
   midi.NoteOnEvent(tick=75, channel=0, data=[76, 67]),
   midi.NoteOnEvent(tick=5, channel=0, data=[81, 0]),
   midi.NoteOnEvent(tick=75, channel=0, data=[76, 0]),
   midi.NoteOnEvent(tick=5, channel=0, data=[80, 69]),
   midi.NoteOnEvent(tick=76, channel=0, data=[72, 67]),
   midi.NoteOnEvent(tick=4, channel=0, data=[80, 0]),
   midi.NoteOnEvent(tick=76, channel=0, data=[72, 0]),
   midi.NoteOnEvent(tick=0, channel=0, data=[79, 69]),
   midi.NoteOnEvent(tick=80, channel=0, data=[79, 0]),
   midi.NoteOnEvent(tick=3, channel=0, data=[72, 67]),
   midi.NoteOnEvent(tick=78, channel=0, data=[78, 69]),
   midi.NoteOnEvent(tick=2, channel=0, data=[72, 0]),
   midi.NoteOnEvent(tick=77, channel=0, data=[69, 67]),
   midi.NoteOnEvent(tick=1, channel=0, data=[78, 0]),
   midi.NoteOnEvent(tick=79, channel=0, data=[69, 0]),
   midi.NoteOnEvent(tick=2, channel=0, data=[77, 56]),
   midi.NoteOnEvent(tick=80, channel=0, data=[77, 0]),
   midi.NoteOnEvent(tick=0, channel=0, data=[70, 56]),
   midi.NoteOnEvent(tick=79, channel=0, data=[76, 56]),
   midi.NoteOnEvent(tick=1, channel=0, data=[70, 0]),
   midi.NoteOnEvent(tick=79, channel=0, data=[76, 0]),
   midi.NoteOnEvent(tick=0, channel=0, data=[67, 51]),
   midi.NoteOnEvent(tick=80, channel=0, data=[67, 0]),
   midi.NoteOnEvent(tick=1, channel=0, data=[75, 56]),
   midi.NoteOnEvent(tick=80, channel=0, data=[75, 0]),
   midi.NoteOnEvent(tick=0, channel=0, data=[70, 51]),
   midi.NoteOnEvent(tick=80, channel=0, data=[70, 0]),
   midi.NoteOnEvent(tick=2, channel=0, data=[74, 56]),
   midi.NoteOnEvent(tick=79, channel=0, data=[67, 51]),
   midi.NoteOnEvent(tick=1, channel=0, data=[74, 0]),
   midi.NoteOnEvent(tick=78, channel=0, data=[73, 56]),
   midi.NoteOnEvent(tick=1, channel=0, data=[67, 0]),
   midi.NoteOnEvent(tick=79, channel=0, data=[73, 0]),
   midi.NoteOnEvent(tick=1, channel=0, data=[70, 51]),
   midi.NoteOnEvent(tick=79, channel=0, data=[72, 56]),
   midi.NoteOnEvent(tick=1, channel=0, data=[70, 0]),
   midi.NoteOnEvent(tick=78, channel=0, data=[67, 51]),
   midi.NoteOnEvent(tick=1, channel=0, data=[72, 0]),
   midi.NoteOnEvent(tick=78, channel=0, data=[71, 56]),
   midi.NoteOnEvent(tick=1, channel=0, data=[67, 0]),
   midi.NoteOnEvent(tick=79, channel=0, data=[71, 0]),
   midi.NoteOnEvent(tick=3, channel=0, data=[67, 50]),
   midi.NoteOnEvent(tick=79, channel=0, data=[70, 55]),
   midi.NoteOnEvent(tick=1, channel=0, data=[67, 0]),
   midi.NoteOnEvent(tick=79, channel=0, data=[70, 0]),
   midi.NoteOnEvent(tick=2, channel=0, data=[64, 49]),
   midi.NoteOnEvent(tick=76, channel=0, data=[69, 53]),
   midi.NoteOnEvent(tick=4, channel=0, data=[64, 0]),
   midi.NoteOnEvent(tick=76, channel=0, data=[69, 0]),
   midi.NoteOnEvent(tick=0, channel=0, data=[60, 47]),
   midi.NoteOnEvent(tick=80, channel=0, data=[60, 0]),
   midi.NoteOnEvent(tick=2, channel=0, data=[68, 50]),
   midi.NoteOnEvent(tick=80, channel=0, data=[68, 0]),
   midi.NoteOnEvent(tick=1, channel=0, data=[58, 46]),
   midi.NoteOnEvent(tick=79, channel=0, data=[67, 49]),
   midi.NoteOnEvent(tick=1, channel=0, data=[58, 0]),
   midi.NoteOnEvent(tick=78, channel=0, data=[60, 46]),
   midi.NoteOnEvent(tick=1, channel=0, data=[67, 0]),
   midi.NoteOnEvent(tick=79, channel=0, data=[60, 0]),
   midi.NoteOnEvent(tick=0, channel=0, data=[66, 47]),
   midi.NoteOnEvent(tick=78, channel=0, data=[58, 45]),
   midi.NoteOnEvent(tick=2, channel=0, data=[66, 0]),
   midi.NoteOnEvent(tick=78, channel=0, data=[58, 0]),
   midi.NoteOnEvent(tick=4, channel=0, data=[65, 47]),
   midi.NoteOnEvent(tick=79, channel=0, data=[60, 45]),
   midi.NoteOnEvent(tick=1, channel=0, data=[65, 0]),
   midi.NoteOnEvent(tick=79, channel=0, data=[60, 0]),
   midi.NoteOnEvent(tick=0, channel=0, data=[64, 47]),
   midi.NoteOnEvent(tick=80, channel=0, data=[64, 0]),
   midi.NoteOnEvent(tick=1, channel=0, data=[58, 45]),
   midi.NoteOnEvent(tick=80, channel=0, data=[58, 0]),
   midi.NoteOnEvent(tick=0, channel=0, data=[63, 46]),
   midi.NoteOnEvent(tick=76, channel=0, data=[60, 44]),
   midi.NoteOnEvent(tick=4, channel=0, data=[63, 0]),
   midi.NoteOnEvent(tick=76, channel=0, data=[60, 0]),
   midi.NoteOnEvent(tick=3, channel=0, data=[62, 45]),
   midi.NoteOnEvent(tick=80, channel=0, data=[62, 0]),
   midi.NoteOnEvent(tick=2, channel=0, data=[55, 42]),
   midi.NoteOnEvent(tick=80, channel=0, data=[55, 0]),
   midi.NoteOnEvent(tick=0, channel=0, data=[61, 45]),
   midi.NoteOnEvent(tick=78, channel=0, data=[58, 40]),
   midi.NoteOnEvent(tick=2, channel=0, data=[61, 0]),
   midi.NoteOnEvent(tick=78, channel=0, data=[58, 0]),
   midi.NoteOnEvent(tick=1, channel=0, data=[60, 44]),
   midi.NoteOnEvent(tick=76, channel=0, data=[55, 39]),
   midi.NoteOnEvent(tick=4, channel=0, data=[60, 0]),
   midi.NoteOnEvent(tick=76, channel=0, data=[55, 0]),
   midi.NoteOnEvent(tick=4, channel=0, data=[59, 44]),
   midi.NoteOnEvent(tick=80, channel=0, data=[59, 0]),
   midi.NoteOnEvent(tick=1, channel=0, data=[55, 42]),
   midi.NoteOnEvent(tick=76, channel=0, data=[60, 47]),
   midi.NoteOnEvent(tick=4, channel=0, data=[55, 0]),
   midi.NoteOnEvent(tick=76, channel=0, data=[60, 0]),
   midi.NoteOnEvent(tick=2, channel=0, data=[58, 45]),
   midi.NoteOnEvent(tick=78, channel=0, data=[61, 49]),
   midi.NoteOnEvent(tick=2, channel=0, data=[58, 0]),
   midi.NoteOnEvent(tick=78, channel=0, data=[61, 0]),
   midi.NoteOnEvent(tick=0, channel=0, data=[55, 47]),
   midi.NoteOnEvent(tick=79, channel=0, data=[62, 53]),
   midi.NoteOnEvent(tick=1, channel=0, data=[55, 0]),
   midi.NoteOnEvent(tick=79, channel=0, data=[62, 0]),
   midi.NoteOnEvent(tick=5, channel=0, data=[58, 49]),
   midi.NoteOnEvent(tick=80, channel=0, data=[58, 0]),
   midi.NoteOnEvent(tick=0, channel=0, data=[63, 56]),
   midi.NoteOnEvent(tick=79, channel=0, data=[55, 53]),
   midi.NoteOnEvent(tick=1, channel=0, data=[63, 0]),
   midi.NoteOnEvent(tick=75, channel=0, data=[64, 59]),
   midi.NoteOnEvent(tick=4, channel=0, data=[55, 0]),
   midi.NoteOnEvent(tick=76, channel=0, data=[64, 0]),
   midi.NoteOnEvent(tick=1, channel=0, data=[58, 56]),
   midi.NoteOnEvent(tick=79, channel=0, data=[69, 59]),
   midi.NoteOnEvent(tick=1, channel=0, data=[58, 0]),
   midi.NoteOnEvent(tick=79, channel=0, data=[69, 0]),
   midi.NoteOnEvent(tick=0, channel=0, data=[64, 59]),
   midi.NoteOnEvent(tick=80, channel=0, data=[64, 0]),
   midi.NoteOnEvent(tick=3, channel=0, data=[67, 59]),
   midi.NoteOnEvent(tick=80, channel=0, data=[67, 0]),
   midi.NoteOnEvent(tick=1, channel=0, data=[70, 59]),
   midi.NoteOnEvent(tick=79, channel=0, data=[81, 59]),
   midi.NoteOnEvent(tick=1, channel=0, data=[70, 0]),
   midi.NoteOnEvent(tick=78, channel=0, data=[76, 59]),
   midi.NoteOnEvent(tick=1, channel=0, data=[81, 0]),
   midi.NoteOnEvent(tick=79, channel=0, data=[76, 0]),
   midi.NoteOnEvent(tick=0, channel=0, data=[79, 59]),
   midi.NoteOnEvent(tick=79, channel=0, data=[82, 59]),
   midi.NoteOnEvent(tick=1, channel=0, data=[79, 0]),
   midi.NoteOnEvent(tick=79, channel=0, data=[82, 0]),
   midi.NoteOnEvent(tick=1, channel=0, data=[93, 60]),
   midi.NoteOnEvent(tick=80, channel=0, data=[93, 0]),
   midi.NoteOnEvent(tick=1, channel=0, data=[88, 62]),
   midi.NoteOnEvent(tick=77, channel=0, data=[91, 64]),
   midi.NoteOnEvent(tick=3, channel=0, data=[88, 0]),
   midi.NoteOnEvent(tick=77, channel=0, data=[91, 0]),
   midi.NoteOnEvent(tick=1, channel=0, data=[82, 66]),
   midi.NoteOnEvent(tick=80, channel=0, data=[82, 0]),
   midi.NoteOnEvent(tick=3, channel=0, data=[93, 67]),
   midi.NoteOnEvent(tick=77, channel=0, data=[87, 67]),
   midi.NoteOnEvent(tick=3, channel=0, data=[93, 0]),
   midi.NoteOnEvent(tick=77, channel=0, data=[87, 0]),
   midi.NoteOnEvent(tick=3, channel=0, data=[91, 66]),
   midi.NoteOnEvent(tick=80, channel=0, data=[91, 0]),
   midi.NoteOnEvent(tick=1, channel=0, data=[82, 64]),
   midi.NoteOnEvent(tick=80, channel=0, data=[82, 0]),
   midi.NoteOnEvent(tick=0, channel=0, data=[81, 64]),
   midi.NoteOnEvent(tick=79, channel=0, data=[75, 62]),
   midi.NoteOnEvent(tick=1, channel=0, data=[81, 0]),
   midi.NoteOnEvent(tick=76, channel=0, data=[79, 62]),
   midi.NoteOnEvent(tick=3, channel=0, data=[75, 0]),
   midi.NoteOnEvent(tick=77, channel=0, data=[79, 0]),
   midi.NoteOnEvent(tick=4, channel=0, data=[70, 59]),
   midi.NoteOnEvent(tick=75, channel=0, data=[69, 59]),
   midi.NoteOnEvent(tick=5, channel=0, data=[70, 0]),
   midi.NoteOnEvent(tick=75, channel=0, data=[69, 0]),
   midi.NoteOnEvent(tick=0, channel=0, data=[63, 59]),
   midi.NoteOnEvent(tick=80, channel=0, data=[63, 0]),
   midi.NoteOnEvent(tick=4, channel=0, data=[67, 59]),
   midi.NoteOnEvent(tick=79, channel=0, data=[58, 59]),
   midi.NoteOnEvent(tick=1, channel=0, data=[67, 0]),
   midi.NoteOnEvent(tick=79, channel=0, data=[58, 0]),
   midi.NoteOnEvent(tick=0, channel=0, data=[69, 59]),
   midi.NoteOnEvent(tick=80, channel=0, data=[69, 0]),
   midi.NoteOnEvent(tick=2, channel=0, data=[62, 59]),
   midi.NoteOnEvent(tick=75, channel=0, data=[67, 59]),
   midi.NoteOnEvent(tick=5, channel=0, data=[62, 0]),
   midi.NoteOnEvent(tick=75, channel=0, data=[67, 0]),
   midi.NoteOnEvent(tick=5, channel=0, data=[70, 59]),
   midi.NoteOnEvent(tick=78, channel=0, data=[81, 59]),
   midi.NoteOnEvent(tick=2, channel=0, data=[70, 0]),
   midi.NoteOnEvent(tick=76, channel=0, data=[74, 59]),
   midi.NoteOnEvent(tick=2, channel=0, data=[81, 0]),
   midi.NoteOnEvent(tick=77, channel=0, data=[79, 59]),
   midi.NoteOnEvent(tick=1, channel=0, data=[74, 0]),
   midi.NoteOnEvent(tick=79, channel=0, data=[79, 0]),
   midi.NoteOnEvent(tick=3, channel=0, data=[82, 59]),
   midi.NoteOnEvent(tick=78, channel=0, data=[93, 60]),
   midi.NoteOnEvent(tick=2, channel=0, data=[82, 0]),
   midi.NoteOnEvent(tick=78, channel=0, data=[93, 0]),
   midi.NoteOnEvent(tick=0, channel=0, data=[86, 62]),
   midi.NoteOnEvent(tick=80, channel=0, data=[86, 0]),
   midi.NoteOnEvent(tick=4, channel=0, data=[91, 66]),
   midi.NoteOnEvent(tick=78, channel=0, data=[82, 68]),
   midi.NoteOnEvent(tick=2, channel=0, data=[91, 0]),
   midi.NoteOnEvent(tick=78, channel=0, data=[82, 0]),
   midi.NoteOnEvent(tick=0, channel=0, data=[93, 69]),
   midi.NoteOnEvent(tick=77, channel=0, data=[85, 69]),
   midi.NoteOnEvent(tick=3, channel=0, data=[93, 0]),
   midi.NoteOnEvent(tick=77, channel=0, data=[85, 0]),
   midi.NoteOnEvent(tick=2, channel=0, data=[91, 68]),
   midi.NoteOnEvent(tick=80, channel=0, data=[91, 0]),
   midi.NoteOnEvent(tick=0, channel=0, data=[82, 67]),
   midi.NoteOnEvent(tick=80, channel=0, data=[82, 0]),
   midi.NoteOnEvent(tick=0, channel=0, data=[81, 66]),
   midi.NoteOnEvent(tick=80, channel=0, data=[81, 0]),
   midi.NoteOnEvent(tick=2, channel=0, data=[73, 64]),
   midi.NoteOnEvent(tick=79, channel=0, data=[79, 59]),
   midi.NoteOnEvent(tick=1, channel=0, data=[73, 0]),
   midi.NoteOnEvent(tick=78, channel=0, data=[70, 59]),
   midi.NoteOnEvent(tick=1, channel=0, data=[79, 0]),
   midi.NoteOnEvent(tick=79, channel=0, data=[70, 0]),
   midi.NoteOnEvent(tick=2, channel=0, data=[69, 59]),
   midi.NoteOnEvent(tick=79, channel=0, data=[61, 59]),
   midi.NoteOnEvent(tick=1, channel=0, data=[69, 0]),
   midi.NoteOnEvent(tick=79, channel=0, data=[61, 0]),
   midi.NoteOnEvent(tick=0, channel=0, data=[67, 59]),
   midi.NoteOnEvent(tick=79, channel=0, data=[58, 59]),
   midi.NoteOnEvent(tick=1, channel=0, data=[67, 0]),
   midi.NoteOnEvent(tick=77, channel=0, data=[69, 59]),
   midi.NoteOnEvent(tick=2, channel=0, data=[58, 0]),
   midi.NoteOnEvent(tick=78, channel=0, data=[69, 0]),
   midi.NoteOnEvent(tick=4, channel=0, data=[60, 59]),
   midi.NoteOnEvent(tick=76, channel=0, data=[67, 59]),
   midi.NoteOnEvent(tick=4, channel=0, data=[60, 0]),
   midi.NoteOnEvent(tick=76, channel=0, data=[67, 0]),
   midi.NoteOnEvent(tick=3, channel=0, data=[58, 59]),
   midi.NoteOnEvent(tick=80, channel=0, data=[58, 0]),
   midi.NoteOnEvent(tick=2, channel=0, data=[72, 59]),
   midi.NoteOnEvent(tick=77, channel=0, data=[69, 59]),
   midi.NoteOnEvent(tick=3, channel=0, data=[72, 0]),
   midi.NoteOnEvent(tick=77, channel=0, data=[69, 0]),
   midi.NoteOnEvent(tick=2, channel=0, data=[70, 61]),
   midi.NoteOnEvent(tick=78, channel=0, data=[67, 62]),
   midi.NoteOnEvent(tick=2, channel=0, data=[70, 0]),
   midi.NoteOnEvent(tick=78, channel=0, data=[67, 0]),
   midi.NoteOnEvent(tick=0, channel=0, data=[81, 64]),
   midi.NoteOnEvent(tick=80, channel=0, data=[81, 0]),
   midi.NoteOnEvent(tick=2, channel=0, data=[72, 64]),
   midi.NoteOnEvent(tick=79, channel=0, data=[79, 64]),
   midi.NoteOnEvent(tick=1, channel=0, data=[72, 0]),
   midi.NoteOnEvent(tick=78, channel=0, data=[70, 64]),
   midi.NoteOnEvent(tick=1, channel=0, data=[79, 0]),
   midi.NoteOnEvent(tick=79, channel=0, data=[70, 0]),
   midi.NoteOnEvent(tick=3, channel=0, data=[84, 64]),
   midi.NoteOnEvent(tick=78, channel=0, data=[81, 64]),
   midi.NoteOnEvent(tick=2, channel=0, data=[84, 0]),
   midi.NoteOnEvent(tick=76, channel=0, data=[82, 62]),
   midi.NoteOnEvent(tick=2, channel=0, data=[81, 0]),
   midi.NoteOnEvent(tick=78, channel=0, data=[82, 0]),
   midi.NoteOnEvent(tick=1, channel=0, data=[79, 61]),
   midi.NoteOnEvent(tick=78, channel=0, data=[93, 61]),
   midi.NoteOnEvent(tick=2, channel=0, data=[79, 0]),
   midi.NoteOnEvent(tick=78, channel=0, data=[93, 0]),
   midi.NoteOnEvent(tick=4, channel=0, data=[84, 60]),
   midi.NoteOnEvent(tick=80, channel=0, data=[84, 0]),
   midi.NoteOnEvent(tick=1, channel=0, data=[91, 59]),
   midi.NoteOnEvent(tick=78, channel=0, data=[82, 59]),
   midi.NoteOnEvent(tick=2, channel=0, data=[91, 0]),
   midi.NoteOnEvent(tick=75, channel=0, data=[96, 59]),
   midi.NoteOnEvent(tick=3, channel=0, data=[82, 0]),
   midi.NoteOnEvent(tick=77, channel=0, data=[96, 0]),
   midi.NoteOnEvent(tick=1, channel=0, data=[93, 59]),
   midi.NoteOnEvent(tick=79, channel=0, data=[94, 59]),
   midi.NoteOnEvent(tick=1, channel=0, data=[93, 0]),
   midi.NoteOnEvent(tick=79, channel=0, data=[94, 0]),
   midi.NoteOnEvent(tick=3, channel=0, data=[91, 59]),
   midi.NoteOnEvent(tick=77, channel=0, data=[98, 59]),
   midi.NoteOnEvent(tick=3, channel=0, data=[91, 0]),
   midi.NoteOnEvent(tick=77, channel=0, data=[98, 0]),
   midi.NoteOnEvent(tick=5, channel=0, data=[93, 59]),
   midi.NoteOnEvent(tick=80, channel=0, data=[93, 0]),
   midi.NoteOnEvent(tick=0, channel=0, data=[96, 59]),
   midi.NoteOnEvent(tick=78, channel=0, data=[89, 59]),
   midi.NoteOnEvent(tick=2, channel=0, data=[96, 0]),
   midi.NoteOnEvent(tick=78, channel=0, data=[89, 0]),
   midi.NoteOnEvent(tick=1, channel=0, data=[92, 59]),
   midi.NoteOnEvent(tick=80, channel=0, data=[92, 0]),
   midi.NoteOnEvent(tick=1, channel=0, data=[89, 59]),
   midi.NoteOnEvent(tick=75, channel=0, data=[93, 59]),
   midi.NoteOnEvent(tick=5, channel=0, data=[89, 0]),
   midi.NoteOnEvent(tick=75, channel=0, data=[93, 0]),
   midi.NoteOnEvent(tick=0, channel=0, data=[84, 59]),
   midi.NoteOnEvent(tick=80, channel=0, data=[84, 0]),
   midi.NoteOnEvent(tick=4, channel=0, data=[88, 59]),
   midi.NoteOnEvent(tick=79, channel=0, data=[84, 59]),
   midi.NoteOnEvent(tick=1, channel=0, data=[88, 0]),
   midi.NoteOnEvent(tick=77, channel=0, data=[89, 59]),
   midi.NoteOnEvent(tick=2, channel=0, data=[84, 0]),
   midi.NoteOnEvent(tick=77, channel=0, data=[81, 59]),
   midi.NoteOnEvent(tick=1, channel=0, data=[89, 0]),
   midi.NoteOnEvent(tick=79, channel=0, data=[81, 0]),
   midi.NoteOnEvent(tick=1, channel=0, data=[85, 59]),
   midi.NoteOnEvent(tick=80, channel=0, data=[85, 0]),
   midi.NoteOnEvent(tick=2, channel=0, data=[81, 59]),
   midi.NoteOnEvent(tick=79, channel=0, data=[86, 59]),
   midi.NoteOnEvent(tick=1, channel=0, data=[81, 0]),
   midi.NoteOnEvent(tick=78, channel=0, data=[77, 59]),
   midi.NoteOnEvent(tick=1, channel=0, data=[86, 0]),
   midi.NoteOnEvent(tick=79, channel=0, data=[77, 0]),
   midi.NoteOnEvent(tick=1, channel=0, data=[80, 59]),
   midi.NoteOnEvent(tick=80, channel=0, data=[80, 0]),
   midi.NoteOnEvent(tick=1, channel=0, data=[77, 59]),
   midi.NoteOnEvent(tick=80, channel=0, data=[77, 0]),
   midi.NoteOnEvent(tick=1, channel=0, data=[81, 59]),
   midi.NoteOnEvent(tick=80, channel=0, data=[81, 0]),
   midi.NoteOnEvent(tick=0, channel=0, data=[74, 59]),
   midi.NoteOnEvent(tick=79, channel=0, data=[76, 59]),
   midi.NoteOnEvent(tick=1, channel=0, data=[74, 0]),
   midi.NoteOnEvent(tick=79, channel=0, data=[76, 0]),
   midi.NoteOnEvent(tick=0, channel=0, data=[74, 59]),
   midi.NoteOnEvent(tick=80, channel=0, data=[74, 0]),
   midi.NoteOnEvent(tick=1, channel=0, data=[77, 59]),
   midi.NoteOnEvent(tick=80, channel=0, data=[77, 0]),
   midi.NoteOnEvent(tick=1, channel=0, data=[69, 59]),
   midi.NoteOnEvent(tick=75, channel=0, data=[76, 59]),
   midi.NoteOnEvent(tick=5, channel=0, data=[69, 0]),
   midi.NoteOnEvent(tick=75, channel=0, data=[76, 0]),
   midi.NoteOnEvent(tick=3, channel=0, data=[71, 59]),
   midi.NoteOnEvent(tick=79, channel=0, data=[74, 59]),
   midi.NoteOnEvent(tick=1, channel=0, data=[71, 0]),
   midi.NoteOnEvent(tick=78, channel=0, data=[77, 59]),
   midi.NoteOnEvent(tick=1, channel=0, data=[74, 0]),
   midi.NoteOnEvent(tick=78, channel=0, data=[88, 59]),
   midi.NoteOnEvent(tick=1, channel=0, data=[77, 0]),
   midi.NoteOnEvent(tick=79, channel=0, data=[88, 0]),
   midi.NoteOnEvent(tick=5, channel=0, data=[83, 59]),
   midi.NoteOnEvent(tick=75, channel=0, data=[86, 55]),
   midi.NoteOnEvent(tick=5, channel=0, data=[83, 0]),
   midi.NoteOnEvent(tick=75, channel=0, data=[86, 0]),
   midi.NoteOnEvent(tick=2, channel=0, data=[89, 53]),
   midi.NoteOnEvent(tick=80, channel=0, data=[89, 0]),
   midi.NoteOnEvent(tick=1, channel=0, data=[100, 55]),
   midi.NoteOnEvent(tick=78, channel=0, data=[95, 56]),
   midi.NoteOnEvent(tick=2, channel=0, data=[100, 0]),
   midi.NoteOnEvent(tick=78, channel=0, data=[95, 0]),
   midi.NoteOnEvent(tick=2, channel=0, data=[98, 57]),
   midi.NoteOnEvent(tick=78, channel=0, data=[89, 58]),
   midi.NoteOnEvent(tick=2, channel=0, data=[98, 0]),
   midi.NoteOnEvent(tick=78, channel=0, data=[89, 0]),
   midi.NoteOnEvent(tick=0, channel=0, data=[93, 57]),
   midi.NoteOnEvent(tick=79, channel=0, data=[89, 57]),
   midi.NoteOnEvent(tick=1, channel=0, data=[93, 0]),
   midi.NoteOnEvent(tick=79, channel=0, data=[89, 0]),
   midi.NoteOnEvent(tick=4, channel=0, data=[91, 56]),
   midi.NoteOnEvent(tick=76, channel=0, data=[83, 56]),
   midi.NoteOnEvent(tick=4, channel=0, data=[91, 0]),
   midi.NoteOnEvent(tick=76, channel=0, data=[83, 0]),
   midi.NoteOnEvent(tick=1, channel=0, data=[81, 55]),
   midi.NoteOnEvent(tick=80, channel=0, data=[81, 0]),
   midi.NoteOnEvent(tick=3, channel=0, data=[77, 55]),
   midi.NoteOnEvent(tick=80, channel=0, data=[77, 0]),
   midi.NoteOnEvent(tick=1, channel=0, data=[79, 55]),
   midi.NoteOnEvent(tick=79, channel=0, data=[71, 59]),
   midi.NoteOnEvent(tick=1, channel=0, data=[79, 0]),
   midi.NoteOnEvent(tick=79, channel=0, data=[71, 0]),
   midi.NoteOnEvent(tick=0, channel=0, data=[88, 59]),
   midi.NoteOnEvent(tick=79, channel=0, data=[79, 59]),
   midi.NoteOnEvent(tick=1, channel=0, data=[88, 0]),
   midi.NoteOnEvent(tick=78, channel=0, data=[86, 59]),
   midi.NoteOnEvent(tick=1, channel=0, data=[79, 0]),
   midi.NoteOnEvent(tick=79, channel=0, data=[86, 0]),
   midi.NoteOnEvent(tick=3, channel=0, data=[77, 59]),
   midi.NoteOnEvent(tick=76, channel=0, data=[83, 59]),
   midi.NoteOnEvent(tick=4, channel=0, data=[77, 0]),
   midi.NoteOnEvent(tick=76, channel=0, data=[83, 0]),
   midi.NoteOnEvent(tick=4, channel=0, data=[79, 59]),
   midi.NoteOnEvent(tick=76, channel=0, data=[84, 59]),
   midi.NoteOnEvent(tick=4, channel=0, data=[79, 0]),
   midi.NoteOnEvent(tick=76, channel=0, data=[84, 0]),
   midi.NoteOnEvent(tick=0, channel=0, data=[76, 59]),
   midi.NoteOnEvent(tick=80, channel=0, data=[76, 0]),
   midi.NoteOnEvent(tick=2, channel=0, data=[87, 59]),
   midi.NoteOnEvent(tick=80, channel=0, data=[87, 0]),
   midi.NoteOnEvent(tick=2, channel=0, data=[84, 59]),
   midi.NoteOnEvent(tick=75, channel=0, data=[88, 59]),
   midi.NoteOnEvent(tick=5, channel=0, data=[84, 0]),
   midi.NoteOnEvent(tick=75, channel=0, data=[88, 0]),
   midi.NoteOnEvent(tick=0, channel=0, data=[79, 59]),
   midi.NoteOnEvent(tick=80, channel=0, data=[79, 0]),
   midi.NoteOnEvent(tick=3, channel=0, data=[90, 59]),
   midi.NoteOnEvent(tick=79, channel=0, data=[88, 55]),
   midi.NoteOnEvent(tick=1, channel=0, data=[90, 0]),
   midi.NoteOnEvent(tick=77, channel=0, data=[91, 59]),
   midi.NoteOnEvent(tick=2, channel=0, data=[88, 0]),
   midi.NoteOnEvent(tick=78, channel=0, data=[91, 0]),
   midi.NoteOnEvent(tick=1, channel=0, data=[84, 55]),
   midi.NoteOnEvent(tick=80, channel=0, data=[84, 0]),
   midi.NoteOnEvent(tick=4, channel=0, data=[94, 59]),
   midi.NoteOnEvent(tick=76, channel=0, data=[91, 51]),
   midi.NoteOnEvent(tick=4, channel=0, data=[94, 0]),
   midi.NoteOnEvent(tick=75, channel=0, data=[95, 58]),
   midi.NoteOnEvent(tick=1, channel=0, data=[91, 0]),
   midi.NoteOnEvent(tick=79, channel=0, data=[95, 0]),
   midi.NoteOnEvent(tick=0, channel=0, data=[88, 55]),
   midi.NoteOnEvent(tick=80, channel=0, data=[88, 0]),
   midi.NoteOnEvent(tick=5, channel=0, data=[96, 59]),
   midi.NoteOnEvent(tick=75, channel=0, data=[91, 58]),
   midi.NoteOnEvent(tick=5, channel=0, data=[96, 0]),
   midi.NoteOnEvent(tick=75, channel=0, data=[91, 0]),
   midi.NoteOnEvent(tick=0, channel=0, data=[97, 61]),
   midi.NoteOnEvent(tick=80, channel=0, data=[97, 0]),
   midi.NoteOnEvent(tick=0, channel=0, data=[88, 59]),
   midi.NoteOnEvent(tick=80, channel=0, data=[88, 0]),
   midi.NoteOnEvent(tick=2, channel=0, data=[98, 64]),
   midi.NoteOnEvent(tick=80, channel=0, data=[98, 0]),
   midi.NoteOnEvent(tick=3, channel=0, data=[91, 62]),
   midi.NoteOnEvent(tick=77, channel=0, data=[99, 69]),
   midi.NoteOnEvent(tick=3, channel=0, data=[91, 0]),
   midi.NoteOnEvent(tick=77, channel=0, data=[99, 0]),
   midi.NoteOnEvent(tick=0, channel=0, data=[88, 67]),
   midi.NoteOnEvent(tick=80, channel=0, data=[88, 0]),
   midi.NoteOnEvent(tick=3, channel=0, data=[100, 89]),
   midi.NoteOnEvent(tick=80, channel=0, data=[100, 0]),
   midi.NoteOnEvent(tick=0, channel=0, data=[95, 64]),
   midi.NoteOnEvent(tick=78, channel=0, data=[99, 75]),
   midi.NoteOnEvent(tick=2, channel=0, data=[95, 0]),
   midi.NoteOnEvent(tick=78, channel=0, data=[99, 0]),
   midi.NoteOnEvent(tick=2, channel=0, data=[91, 64]),
   midi.NoteOnEvent(tick=79, channel=0, data=[98, 73]),
   midi.NoteOnEvent(tick=1, channel=0, data=[91, 0]),
   midi.NoteOnEvent(tick=77, channel=0, data=[95, 64]),
   midi.NoteOnEvent(tick=2, channel=0, data=[98, 0]),
   midi.NoteOnEvent(tick=77, channel=0, data=[97, 61]),
   midi.NoteOnEvent(tick=1, channel=0, data=[95, 0]),
   midi.NoteOnEvent(tick=78, channel=0, data=[91, 59]),
   midi.NoteOnEvent(tick=1, channel=0, data=[97, 0]),
   midi.NoteOnEvent(tick=79, channel=0, data=[91, 0]),
   midi.NoteOnEvent(tick=3, channel=0, data=[96, 61]),
   midi.NoteOnEvent(tick=80, channel=0, data=[96, 0]),
   midi.NoteOnEvent(tick=2, channel=0, data=[91, 59]),
   midi.NoteOnEvent(tick=77, channel=0, data=[95, 61]),
   midi.NoteOnEvent(tick=3, channel=0, data=[91, 0]),
   midi.NoteOnEvent(tick=76, channel=0, data=[88, 59]),
   midi.NoteOnEvent(tick=1, channel=0, data=[95, 0]),
   midi.NoteOnEvent(tick=79, channel=0, data=[88, 0]),
   midi.NoteOnEvent(tick=2, channel=0, data=[94, 69]),
   midi.NoteOnEvent(tick=78, channel=0, data=[91, 64]),
   midi.NoteOnEvent(tick=2, channel=0, data=[94, 0]),
   midi.NoteOnEvent(tick=78, channel=0, data=[91, 0]),
   midi.NoteOnEvent(tick=3, channel=0, data=[93, 69]),
   midi.NoteOnEvent(tick=80, channel=0, data=[93, 0]),
   midi.NoteOnEvent(tick=1, channel=0, data=[88, 64]),
   midi.NoteOnEvent(tick=77, channel=0, data=[92, 69]),
   midi.NoteOnEvent(tick=3, channel=0, data=[88, 0]),
   midi.NoteOnEvent(tick=77, channel=0, data=[92, 0]),
   midi.NoteOnEvent(tick=3, channel=0, data=[88, 64]),
   midi.NoteOnEvent(tick=75, channel=0, data=[91, 69]),
   midi.NoteOnEvent(tick=5, channel=0, data=[88, 0]),
   midi.NoteOnEvent(tick=75, channel=0, data=[91, 0]),
   midi.NoteOnEvent(tick=5, channel=0, data=[84, 59]),
   midi.NoteOnEvent(tick=78, channel=0, data=[90, 61]),
   midi.NoteOnEvent(tick=2, channel=0, data=[84, 0]),
   midi.NoteOnEvent(tick=78, channel=0, data=[90, 0]),
   midi.NoteOnEvent(tick=1, channel=0, data=[84, 59]),
   midi.NoteOnEvent(tick=79, channel=0, data=[89, 61]),
   midi.NoteOnEvent(tick=1, channel=0, data=[84, 0]),
   midi.NoteOnEvent(tick=76, channel=0, data=[79, 59]),
   midi.NoteOnEvent(tick=3, channel=0, data=[89, 0]),
   midi.NoteOnEvent(tick=77, channel=0, data=[79, 0]),
   midi.NoteOnEvent(tick=1, channel=0, data=[88, 69]),
   midi.NoteOnEvent(tick=80, channel=0, data=[88, 0]),
   midi.NoteOnEvent(tick=1, channel=0, data=[83, 64]),
   midi.NoteOnEvent(tick=78, channel=0, data=[87, 69]),
   midi.NoteOnEvent(tick=2, channel=0, data=[83, 0]),
   midi.NoteOnEvent(tick=78, channel=0, data=[87, 0]),
   midi.NoteOnEvent(tick=2, channel=0, data=[79, 64]),
   midi.NoteOnEvent(tick=78, channel=0, data=[86, 69]),
   midi.NoteOnEvent(tick=2, channel=0, data=[79, 0]),
   midi.NoteOnEvent(tick=78, channel=0, data=[86, 0]),
   midi.NoteOnEvent(tick=3, channel=0, data=[83, 64]),
   midi.NoteOnEvent(tick=80, channel=0, data=[83, 0]),
   midi.NoteOnEvent(tick=2, channel=0, data=[85, 61]),
   midi.NoteOnEvent(tick=75, channel=0, data=[79, 59]),
   midi.NoteOnEvent(tick=5, channel=0, data=[85, 0]),
   midi.NoteOnEvent(tick=75, channel=0, data=[79, 0]),
   midi.NoteOnEvent(tick=4, channel=0, data=[84, 61]),
   midi.NoteOnEvent(tick=79, channel=0, data=[79, 59]),
   midi.NoteOnEvent(tick=1, channel=0, data=[84, 0]),
   midi.NoteOnEvent(tick=79, channel=0, data=[79, 0]),
   midi.NoteOnEvent(tick=1, channel=0, data=[83, 61]),
   midi.NoteOnEvent(tick=80, channel=0, data=[83, 0]),
   midi.NoteOnEvent(tick=0, channel=0, data=[76, 59]),
   midi.NoteOnEvent(tick=79, channel=0, data=[82, 69]),
   midi.NoteOnEvent(tick=1, channel=0, data=[76, 0]),
   midi.NoteOnEvent(tick=79, channel=0, data=[82, 0]),
   midi.NoteOnEvent(tick=1, channel=0, data=[79, 64]),
   midi.NoteOnEvent(tick=76, channel=0, data=[81, 69]),
   midi.NoteOnEvent(tick=4, channel=0, data=[79, 0]),
   midi.NoteOnEvent(tick=76, channel=0, data=[81, 0]),
   midi.NoteOnEvent(tick=4, channel=0, data=[76, 64]),
   midi.NoteOnEvent(tick=80, channel=0, data=[76, 0]),
   midi.NoteOnEvent(tick=0, channel=0, data=[80, 69]),
   midi.NoteOnEvent(tick=80, channel=0, data=[80, 0]),
   midi.NoteOnEvent(tick=0, channel=0, data=[76, 64]),
   midi.NoteOnEvent(tick=76, channel=0, data=[79, 69]),
   midi.NoteOnEvent(tick=4, channel=0, data=[76, 0]),
   midi.NoteOnEvent(tick=76, channel=0, data=[79, 0]),
   midi.NoteOnEvent(tick=5, channel=0, data=[71, 59]),
   midi.NoteOnEvent(tick=78, channel=0, data=[78, 61]),
   midi.NoteOnEvent(tick=2, channel=0, data=[71, 0]),
   midi.NoteOnEvent(tick=78, channel=0, data=[78, 0]),
   midi.NoteOnEvent(tick=1, channel=0, data=[71, 59]),
   midi.NoteOnEvent(tick=76, channel=0, data=[77, 61]),
   midi.NoteOnEvent(tick=4, channel=0, data=[71, 0]),
   midi.NoteOnEvent(tick=76, channel=0, data=[77, 0]),
   midi.NoteOnEvent(tick=3, channel=0, data=[67, 59]),
   midi.NoteOnEvent(tick=80, channel=0, data=[67, 0]),
   midi.NoteOnEvent(tick=2, channel=0, data=[76, 59]),
   midi.NoteOnEvent(tick=75, channel=0, data=[71, 55]),
   midi.NoteOnEvent(tick=5, channel=0, data=[76, 0]),
   midi.NoteOnEvent(tick=75, channel=0, data=[71, 0]),
   midi.NoteOnEvent(tick=1, channel=0, data=[75, 59]),
   midi.NoteOnEvent(tick=79, channel=0, data=[67, 55]),
   midi.NoteOnEvent(tick=1, channel=0, data=[75, 0]),
   midi.NoteOnEvent(tick=79, channel=0, data=[67, 0]),
   midi.NoteOnEvent(tick=5, channel=0, data=[74, 59]),
   midi.NoteOnEvent(tick=78, channel=0, data=[71, 55]),
   midi.NoteOnEvent(tick=2, channel=0, data=[74, 0]),
   midi.NoteOnEvent(tick=76, channel=0, data=[73, 59]),
   midi.NoteOnEvent(tick=2, channel=0, data=[71, 0]),
   midi.NoteOnEvent(tick=78, channel=0, data=[73, 0]),
   midi.NoteOnEvent(tick=4, channel=0, data=[67, 55]),
   midi.NoteOnEvent(tick=77, channel=0, data=[72, 59]),
   midi.NoteOnEvent(tick=3, channel=0, data=[67, 0]),
   midi.NoteOnEvent(tick=77, channel=0, data=[72, 0]),
   midi.NoteOnEvent(tick=2, channel=0, data=[67, 55]),
   midi.NoteOnEvent(tick=77, channel=0, data=[71, 59]),
   midi.NoteOnEvent(tick=3, channel=0, data=[67, 0]),
   midi.NoteOnEvent(tick=76, channel=0, data=[64, 55]),
   midi.NoteOnEvent(tick=1, channel=0, data=[71, 0]),
   midi.NoteOnEvent(tick=79, channel=0, data=[64, 0]),
   midi.NoteOnEvent(tick=1, channel=0, data=[70, 59]),
   midi.NoteOnEvent(tick=80, channel=0, data=[70, 0]),
   midi.NoteOnEvent(tick=2, channel=0, data=[67, 55]),
   midi.NoteOnEvent(tick=80, channel=0, data=[67, 0]),
   midi.NoteOnEvent(tick=2, channel=0, data=[69, 59]),
   midi.NoteOnEvent(tick=75, channel=0, data=[64, 55]),
   midi.NoteOnEvent(tick=5, channel=0, data=[69, 0]),
   midi.NoteOnEvent(tick=75, channel=0, data=[64, 0]),
   midi.NoteOnEvent(tick=5, channel=0, data=[68, 59]),
   midi.NoteOnEvent(tick=77, channel=0, data=[64, 55]),
   midi.NoteOnEvent(tick=3, channel=0, data=[68, 0]),
   midi.NoteOnEvent(tick=75, channel=0, data=[67, 59]),
   midi.NoteOnEvent(tick=2, channel=0, data=[64, 0]),
   midi.NoteOnEvent(tick=78, channel=0, data=[67, 0]),
   midi.NoteOnEvent(tick=4, channel=0, data=[60, 55]),
   midi.NoteOnEvent(tick=77, channel=0, data=[66, 59]),
   midi.NoteOnEvent(tick=3, channel=0, data=[60, 0]),
   midi.NoteOnEvent(tick=77, channel=0, data=[66, 0]),
   midi.NoteOnEvent(tick=4, channel=0, data=[60, 55]),
   midi.NoteOnEvent(tick=79, channel=0, data=[65, 59]),
   midi.NoteOnEvent(tick=1, channel=0, data=[60, 0]),
   midi.NoteOnEvent(tick=79, channel=0, data=[65, 0]),
   midi.NoteOnEvent(tick=1, channel=0, data=[55, 55]),
   midi.NoteOnEvent(tick=76, channel=0, data=[64, 55]),
   midi.NoteOnEvent(tick=4, channel=0, data=[55, 0]),
   midi.NoteOnEvent(tick=76, channel=0, data=[64, 0]),
   midi.NoteOnEvent(tick=1, channel=0, data=[59, 50]),
   midi.NoteOnEvent(tick=78, channel=0, data=[63, 53]),
   midi.NoteOnEvent(tick=2, channel=0, data=[59, 0]),
   midi.NoteOnEvent(tick=78, channel=0, data=[63, 0]),
   midi.NoteOnEvent(tick=4, channel=0, data=[55, 47]),
   midi.NoteOnEvent(tick=76, channel=0, data=[62, 50]),
   midi.NoteOnEvent(tick=4, channel=0, data=[55, 0]),
   midi.NoteOnEvent(tick=76, channel=0, data=[62, 0]),
   midi.NoteOnEvent(tick=2, channel=0, data=[59, 46]),
   midi.NoteOnEvent(tick=79, channel=0, data=[61, 49]),
   midi.NoteOnEvent(tick=1, channel=0, data=[59, 0]),
   midi.NoteOnEvent(tick=79, channel=0, data=[61, 0]),
   midi.NoteOnEvent(tick=4, channel=0, data=[55, 45]),
   midi.NoteOnEvent(tick=75, channel=0, data=[60, 47]),
   midi.NoteOnEvent(tick=5, channel=0, data=[55, 0]),
   midi.NoteOnEvent(tick=75, channel=0, data=[60, 0]),
   midi.NoteOnEvent(tick=1, channel=0, data=[55, 45]),
   midi.NoteOnEvent(tick=80, channel=0, data=[55, 0]),
   midi.NoteOnEvent(tick=0, channel=0, data=[59, 46]),
   midi.NoteOnEvent(tick=80, channel=0, data=[59, 0]),
   midi.NoteOnEvent(tick=0, channel=0, data=[52, 42]),
   midi.NoteOnEvent(tick=79, channel=0, data=[58, 45]),
   midi.NoteOnEvent(tick=1, channel=0, data=[52, 0]),
   midi.NoteOnEvent(tick=79, channel=0, data=[58, 0]),
   midi.NoteOnEvent(tick=3, channel=0, data=[55, 45]),
   midi.NoteOnEvent(tick=80, channel=0, data=[55, 0]),
   midi.NoteOnEvent(tick=2, channel=0, data=[57, 47]),
   midi.NoteOnEvent(tick=80, channel=0, data=[57, 0]),
   midi.NoteOnEvent(tick=0, channel=0, data=[47, 45]),
   midi.NoteOnEvent(tick=76, channel=0, data=[56, 47]),
   midi.NoteOnEvent(tick=4, channel=0, data=[47, 0]),
   midi.NoteOnEvent(tick=76, channel=0, data=[56, 0]),
   midi.NoteOnEvent(tick=3, channel=0, data=[52, 46]),
   midi.NoteOnEvent(tick=79, channel=0, data=[55, 49]),
   midi.NoteOnEvent(tick=1, channel=0, data=[52, 0]),
   midi.NoteOnEvent(tick=79, channel=0, data=[55, 0]),
   midi.NoteOnEvent(tick=0, channel=0, data=[47, 46]),
   midi.NoteOnEvent(tick=80, channel=0, data=[47, 0]),
   midi.NoteOnEvent(tick=2, channel=0, data=[54, 49]),
   midi.NoteOnEvent(tick=77, channel=0, data=[52, 46]),
   midi.NoteOnEvent(tick=3, channel=0, data=[54, 0]),
   midi.NoteOnEvent(tick=77, channel=0, data=[52, 0]),
   midi.NoteOnEvent(tick=3, channel=0, data=[55, 50]),
   midi.NoteOnEvent(tick=78, channel=0, data=[48, 50]),
   midi.NoteOnEvent(tick=2, channel=0, data=[55, 0]),
   midi.NoteOnEvent(tick=75, channel=0, data=[59, 59]),
   midi.NoteOnEvent(tick=3, channel=0, data=[48, 0]),
   midi.NoteOnEvent(tick=77, channel=0, data=[59, 0]),
   midi.NoteOnEvent(tick=3, channel=0, data=[54, 59]),
   midi.NoteOnEvent(tick=80, channel=0, data=[54, 0]),
   midi.NoteOnEvent(tick=0, channel=0, data=[57, 59]),
   midi.NoteOnEvent(tick=79, channel=0, data=[60, 59]),
   midi.NoteOnEvent(tick=1, channel=0, data=[57, 0]),
   midi.NoteOnEvent(tick=79, channel=0, data=[60, 0]),
   midi.NoteOnEvent(tick=3, channel=0, data=[71, 59]),
   midi.NoteOnEvent(tick=78, channel=0, data=[66, 59]),
   midi.NoteOnEvent(tick=2, channel=0, data=[71, 0]),
   midi.NoteOnEvent(tick=78, channel=0, data=[66, 0]),
   midi.NoteOnEvent(tick=0, channel=0, data=[69, 62]),
   midi.NoteOnEvent(tick=80, channel=0, data=[69, 0]),
   midi.NoteOnEvent(tick=0, channel=0, data=[72, 66]),
   midi.NoteOnEvent(tick=78, channel=0, data=[83, 67]),
   midi.NoteOnEvent(tick=2, channel=0, data=[72, 0]),
   midi.NoteOnEvent(tick=78, channel=0, data=[83, 0]),
   midi.NoteOnEvent(tick=1, channel=0, data=[78, 69]),
   midi.NoteOnEvent(tick=80, channel=0, data=[78, 0]),
   midi.NoteOnEvent(tick=0, channel=0, data=[81, 69]),
   midi.NoteOnEvent(tick=78, channel=0, data=[72, 69]),
   midi.NoteOnEvent(tick=2, channel=0, data=[81, 0]),
   midi.NoteOnEvent(tick=78, channel=0, data=[72, 0]),
   midi.NoteOnEvent(tick=4, channel=0, data=[81, 68]),
   midi.NoteOnEvent(tick=77, channel=0, data=[76, 67]),
   midi.NoteOnEvent(tick=3, channel=0, data=[81, 0]),
   midi.NoteOnEvent(tick=76, channel=0, data=[79, 66]),
   midi.NoteOnEvent(tick=1, channel=0, data=[76, 0]),
   midi.NoteOnEvent(tick=79, channel=0, data=[79, 0]),
   midi.NoteOnEvent(tick=2, channel=0, data=[72, 62]),
   midi.NoteOnEvent(tick=80, channel=0, data=[72, 0]),
   midi.NoteOnEvent(tick=1, channel=0, data=[69, 61]),
   midi.NoteOnEvent(tick=77, channel=0, data=[64, 60]),
   midi.NoteOnEvent(tick=3, channel=0, data=[69, 0]),
   midi.NoteOnEvent(tick=77, channel=0, data=[64, 0]),
   midi.NoteOnEvent(tick=1, channel=0, data=[67, 58]),
   midi.NoteOnEvent(tick=79, channel=0, data=[60, 58]),
   midi.NoteOnEvent(tick=1, channel=0, data=[67, 0]),
   midi.NoteOnEvent(tick=79, channel=0, data=[60, 0]),
   midi.NoteOnEvent(tick=3, channel=0, data=[57, 58]),
   midi.NoteOnEvent(tick=79, channel=0, data=[52, 58]),
   midi.NoteOnEvent(tick=1, channel=0, data=[57, 0]),
   midi.NoteOnEvent(tick=79, channel=0, data=[52, 0]),
   midi.NoteOnEvent(tick=1, channel=0, data=[55, 58]),
   midi.NoteOnEvent(tick=80, channel=0, data=[55, 0]),
   midi.NoteOnEvent(tick=1, channel=0, data=[48, 58]),
   midi.NoteOnEvent(tick=78, channel=0, data=[59, 59]),
   midi.NoteOnEvent(tick=2, channel=0, data=[48, 0]),
   midi.NoteOnEvent(tick=78, channel=0, data=[59, 0]),
   midi.NoteOnEvent(tick=2, channel=0, data=[54, 59]),
   midi.NoteOnEvent(tick=78, channel=0, data=[57, 59]),
   midi.NoteOnEvent(tick=2, channel=0, data=[54, 0]),
   midi.NoteOnEvent(tick=78, channel=0, data=[57, 0]),
   midi.NoteOnEvent(tick=3, channel=0, data=[60, 59]),
   midi.NoteOnEvent(tick=78, channel=0, data=[71, 59]),
   midi.NoteOnEvent(tick=2, channel=0, data=[60, 0]),
   midi.NoteOnEvent(tick=76, channel=0, data=[66, 59]),
   midi.NoteOnEvent(tick=2, channel=0, data=[71, 0]),
   midi.NoteOnEvent(tick=78, channel=0, data=[66, 0]),
   midi.NoteOnEvent(tick=4, channel=0, data=[69, 64]),
   midi.NoteOnEvent(tick=80, channel=0, data=[69, 0]),
   midi.NoteOnEvent(tick=0, channel=0, data=[72, 66]),
   midi.NoteOnEvent(tick=77, channel=0, data=[83, 67]),
   midi.NoteOnEvent(tick=3, channel=0, data=[72, 0]),
   midi.NoteOnEvent(tick=77, channel=0, data=[83, 0]),
   midi.NoteOnEvent(tick=3, channel=0, data=[78, 68]),
   midi.NoteOnEvent(tick=76, channel=0, data=[81, 69]),
   midi.NoteOnEvent(tick=4, channel=0, data=[78, 0]),
   midi.NoteOnEvent(tick=76, channel=0, data=[81, 0]),
   midi.NoteOnEvent(tick=4, channel=0, data=[71, 70]),
   midi.NoteOnEvent(tick=78, channel=0, data=[81, 70]),
   midi.NoteOnEvent(tick=2, channel=0, data=[71, 0]),
   midi.NoteOnEvent(tick=77, channel=0, data=[76, 69]),
   midi.NoteOnEvent(tick=1, channel=0, data=[81, 0]),
   midi.NoteOnEvent(tick=79, channel=0, data=[76, 0]),
   midi.NoteOnEvent(tick=1, channel=0, data=[79, 68]),
   midi.NoteOnEvent(tick=80, channel=0, data=[79, 0]),
   midi.NoteOnEvent(tick=1, channel=0, data=[71, 67]),
   midi.NoteOnEvent(tick=76, channel=0, data=[69, 66]),
   midi.NoteOnEvent(tick=4, channel=0, data=[71, 0]),
   midi.NoteOnEvent(tick=76, channel=0, data=[69, 0]),
   midi.NoteOnEvent(tick=1, channel=0, data=[64, 64]),
   midi.NoteOnEvent(tick=80, channel=0, data=[64, 0]),
   midi.NoteOnEvent(tick=0, channel=0, data=[67, 59]),
   midi.NoteOnEvent(tick=80, channel=0, data=[67, 0]),
   midi.NoteOnEvent(tick=1, channel=0, data=[59, 59]),
   midi.NoteOnEvent(tick=80, channel=0, data=[59, 0]),
   midi.NoteOnEvent(tick=3, channel=0, data=[57, 59]),
   midi.NoteOnEvent(tick=79, channel=0, data=[52, 59]),
   midi.NoteOnEvent(tick=1, channel=0, data=[57, 0]),
   midi.NoteOnEvent(tick=79, channel=0, data=[52, 0]),
   midi.NoteOnEvent(tick=0, channel=0, data=[55, 59]),
   midi.NoteOnEvent(tick=80, channel=0, data=[55, 0]),
   midi.NoteOnEvent(tick=1, channel=0, data=[54, 59]),
   midi.NoteOnEvent(tick=77, channel=0, data=[64, 59]),
   midi.NoteOnEvent(tick=3, channel=0, data=[54, 0]),
   midi.NoteOnEvent(tick=77, channel=0, data=[64, 0]),
   midi.NoteOnEvent(tick=0, channel=0, data=[59, 58]),
   midi.NoteOnEvent(tick=80, channel=0, data=[59, 0]),
   midi.NoteOnEvent(tick=3, channel=0, data=[63, 58]),
   midi.NoteOnEvent(tick=76, channel=0, data=[66, 58]),
   midi.NoteOnEvent(tick=4, channel=0, data=[63, 0]),
   midi.NoteOnEvent(tick=76, channel=0, data=[66, 0]),
   midi.NoteOnEvent(tick=1, channel=0, data=[76, 58]),
   midi.NoteOnEvent(tick=80, channel=0, data=[76, 0]),
   midi.NoteOnEvent(tick=1, channel=0, data=[71, 58]),
   midi.NoteOnEvent(tick=79, channel=0, data=[75, 58]),
   midi.NoteOnEvent(tick=1, channel=0, data=[71, 0]),
   midi.NoteOnEvent(tick=79, channel=0, data=[75, 0]),
   midi.NoteOnEvent(tick=2, channel=0, data=[78, 58]),
   midi.NoteOnEvent(tick=80, channel=0, data=[78, 0]),
   midi.NoteOnEvent(tick=0, channel=0, data=[88, 59]),
   midi.NoteOnEvent(tick=80, channel=0, data=[88, 0]),
   midi.NoteOnEvent(tick=0, channel=0, data=[83, 59]),
   midi.NoteOnEvent(tick=80, channel=0, data=[83, 0]),
   midi.NoteOnEvent(tick=0, channel=0, data=[87, 61]),
   midi.NoteOnEvent(tick=76, channel=0, data=[78, 62]),
   midi.NoteOnEvent(tick=4, channel=0, data=[87, 0]),
   midi.NoteOnEvent(tick=76, channel=0, data=[78, 0]),
   midi.NoteOnEvent(tick=1, channel=0, data=[87, 64]),
   midi.NoteOnEvent(tick=80, channel=0, data=[87, 0]),
   midi.NoteOnEvent(tick=0, channel=0, data=[82, 64]),
   midi.NoteOnEvent(tick=80, channel=0, data=[82, 0]),
   midi.NoteOnEvent(tick=3, channel=0, data=[85, 61]),
   midi.NoteOnEvent(tick=80, channel=0, data=[85, 0]),
   midi.NoteOnEvent(tick=1, channel=0, data=[78, 60]),
   midi.NoteOnEvent(tick=77, channel=0, data=[75, 59]),
   midi.NoteOnEvent(tick=3, channel=0, data=[78, 0]),
   midi.NoteOnEvent(tick=77, channel=0, data=[75, 0]),
   midi.NoteOnEvent(tick=1, channel=0, data=[70, 59]),
   midi.NoteOnEvent(tick=77, channel=0, data=[73, 55]),
   midi.NoteOnEvent(tick=3, channel=0, data=[70, 0]),
   midi.NoteOnEvent(tick=77, channel=0, data=[73, 0]),
   midi.NoteOnEvent(tick=5, channel=0, data=[66, 55]),
   midi.NoteOnEvent(tick=76, channel=0, data=[63, 55]),
   midi.NoteOnEvent(tick=4, channel=0, data=[66, 0]),
   midi.NoteOnEvent(tick=76, channel=0, data=[63, 0]),
   midi.NoteOnEvent(tick=2, channel=0, data=[58, 55]),
   midi.NoteOnEvent(tick=80, channel=0, data=[58, 0]),
   midi.NoteOnEvent(tick=0, channel=0, data=[61, 55]),
   midi.NoteOnEvent(tick=79, channel=0, data=[54, 55]),
   midi.NoteOnEvent(tick=1, channel=0, data=[61, 0]),
   midi.NoteOnEvent(tick=79, channel=0, data=[54, 0]),
   midi.NoteOnEvent(tick=2, channel=0, data=[63, 55]),
   midi.NoteOnEvent(tick=76, channel=0, data=[59, 55]),
   midi.NoteOnEvent(tick=4, channel=0, data=[63, 0]),
   midi.NoteOnEvent(tick=76, channel=0, data=[59, 0]),
   midi.NoteOnEvent(tick=0, channel=0, data=[63, 55]),
   midi.NoteOnEvent(tick=80, channel=0, data=[63, 0]),
   midi.NoteOnEvent(tick=0, channel=0, data=[66, 55]),
   midi.NoteOnEvent(tick=80, channel=0, data=[66, 0]),
   midi.NoteOnEvent(tick=0, channel=0, data=[76, 55]),
   midi.NoteOnEvent(tick=80, channel=0, data=[76, 0]),
   midi.NoteOnEvent(tick=2, channel=0, data=[71, 55]),
   midi.NoteOnEvent(tick=79, channel=0, data=[75, 55]),
   midi.NoteOnEvent(tick=1, channel=0, data=[71, 0]),
   midi.NoteOnEvent(tick=79, channel=0, data=[75, 0]),
   midi.NoteOnEvent(tick=3, channel=0, data=[78, 59]),
   midi.NoteOnEvent(tick=76, channel=0, data=[88, 59]),
   midi.NoteOnEvent(tick=4, channel=0, data=[78, 0]),
   midi.NoteOnEvent(tick=76, channel=0, data=[88, 0]),
   midi.NoteOnEvent(tick=2, channel=0, data=[83, 59]),
   midi.NoteOnEvent(tick=78, channel=0, data=[87, 59]),
   midi.NoteOnEvent(tick=2, channel=0, data=[83, 0]),
   midi.NoteOnEvent(tick=78, channel=0, data=[87, 0]),
   midi.NoteOnEvent(tick=4, channel=0, data=[78, 59]),
   midi.NoteOnEvent(tick=78, channel=0, data=[95, 83]),
   midi.NoteOnEvent(tick=2, channel=0, data=[78, 0]),
   midi.NoteOnEvent(tick=238, channel=0, data=[95, 0]),
   midi.NoteOnEvent(tick=722, channel=0, data=[96, 94]),
   midi.NoteOnEvent(tick=77, channel=0, data=[91, 70]),
   midi.NoteOnEvent(tick=3, channel=0, data=[96, 0]),
   midi.NoteOnEvent(tick=77, channel=0, data=[91, 0]),
   midi.NoteOnEvent(tick=3, channel=0, data=[95, 90]),
   midi.NoteOnEvent(tick=79, channel=0, data=[88, 70]),
   midi.NoteOnEvent(tick=1, channel=0, data=[95, 0]),
   midi.NoteOnEvent(tick=79, channel=0, data=[88, 0]),
   midi.NoteOnEvent(tick=0, channel=0, data=[94, 88]),
   midi.NoteOnEvent(tick=80, channel=0, data=[94, 0]),
   midi.NoteOnEvent(tick=0, channel=0, data=[91, 70]),
   midi.NoteOnEvent(tick=77, channel=0, data=[93, 85]),
   midi.NoteOnEvent(tick=3, channel=0, data=[91, 0]),
   midi.NoteOnEvent(tick=77, channel=0, data=[93, 0]),
   midi.NoteOnEvent(tick=3, channel=0, data=[88, 68]),
   midi.NoteOnEvent(tick=77, channel=0, data=[92, 84]),
   midi.NoteOnEvent(tick=3, channel=0, data=[88, 0]),
   midi.NoteOnEvent(tick=77, channel=0, data=[92, 0]),
   midi.NoteOnEvent(tick=5, channel=0, data=[88, 68]),
   midi.NoteOnEvent(tick=77, channel=0, data=[91, 80]),
   midi.NoteOnEvent(tick=3, channel=0, data=[88, 0]),
   midi.NoteOnEvent(tick=77, channel=0, data=[91, 0]),
   midi.NoteOnEvent(tick=3, channel=0, data=[83, 68]),
   midi.NoteOnEvent(tick=79, channel=0, data=[90, 81]),
   midi.NoteOnEvent(tick=1, channel=0, data=[83, 0]),
   midi.NoteOnEvent(tick=78, channel=0, data=[83, 70]),
   midi.NoteOnEvent(tick=1, channel=0, data=[90, 0]),
   midi.NoteOnEvent(tick=79, channel=0, data=[83, 0]),
   midi.NoteOnEvent(tick=1, channel=0, data=[89, 77]),
   midi.NoteOnEvent(tick=80, channel=0, data=[89, 0]),
   midi.NoteOnEvent(tick=0, channel=0, data=[79, 70]),
   midi.NoteOnEvent(tick=78, channel=0, data=[88, 77]),
   midi.NoteOnEvent(tick=2, channel=0, data=[79, 0]),
   midi.NoteOnEvent(tick=78, channel=0, data=[88, 0]),
   midi.NoteOnEvent(tick=0, channel=0, data=[83, 70]),
   midi.NoteOnEvent(tick=78, channel=0, data=[87, 77]),
   midi.NoteOnEvent(tick=2, channel=0, data=[83, 0]),
   midi.NoteOnEvent(tick=78, channel=0, data=[87, 0]),
   midi.NoteOnEvent(tick=4, channel=0, data=[79, 68]),
   midi.NoteOnEvent(tick=77, channel=0, data=[86, 73]),
   midi.NoteOnEvent(tick=3, channel=0, data=[79, 0]),
   midi.NoteOnEvent(tick=76, channel=0, data=[79, 68]),
   midi.NoteOnEvent(tick=1, channel=0, data=[86, 0]),
   midi.NoteOnEvent(tick=79, channel=0, data=[79, 0]),
   midi.NoteOnEvent(tick=1, channel=0, data=[85, 70]),
   midi.NoteOnEvent(tick=80, channel=0, data=[85, 0]),
   midi.NoteOnEvent(tick=3, channel=0, data=[76, 68]),
   midi.NoteOnEvent(tick=77, channel=0, data=[84, 77]),
   midi.NoteOnEvent(tick=3, channel=0, data=[76, 0]),
   midi.NoteOnEvent(tick=77, channel=0, data=[84, 0]),
   midi.NoteOnEvent(tick=0, channel=0, data=[79, 70]),
   midi.NoteOnEvent(tick=80, channel=0, data=[79, 0]),
   midi.NoteOnEvent(tick=1, channel=0, data=[83, 77]),
   midi.NoteOnEvent(tick=78, channel=0, data=[76, 70]),
   midi.NoteOnEvent(tick=2, channel=0, data=[83, 0]),
   midi.NoteOnEvent(tick=78, channel=0, data=[76, 0]),
   midi.NoteOnEvent(tick=2, channel=0, data=[82, 77]),
   midi.NoteOnEvent(tick=80, channel=0, data=[82, 0]),
   midi.NoteOnEvent(tick=1, channel=0, data=[79, 70]),
   midi.NoteOnEvent(tick=80, channel=0, data=[79, 0]),
   midi.NoteOnEvent(tick=0, channel=0, data=[81, 77]),
   midi.NoteOnEvent(tick=80, channel=0, data=[81, 0]),
   midi.NoteOnEvent(tick=1, channel=0, data=[76, 68]),
   midi.NoteOnEvent(tick=78, channel=0, data=[80, 70]),
   midi.NoteOnEvent(tick=2, channel=0, data=[76, 0]),
   midi.NoteOnEvent(tick=78, channel=0, data=[80, 0]),
   midi.NoteOnEvent(tick=0, channel=0, data=[76, 68]),
   midi.NoteOnEvent(tick=80, channel=0, data=[76, 0]),
   midi.NoteOnEvent(tick=3, channel=0, data=[79, 70]),
   midi.NoteOnEvent(tick=80, channel=0, data=[79, 0]),
   midi.NoteOnEvent(tick=0, channel=0, data=[71, 70]),
   midi.NoteOnEvent(tick=78, channel=0, data=[78, 70]),
   midi.NoteOnEvent(tick=2, channel=0, data=[71, 0]),
   midi.NoteOnEvent(tick=78, channel=0, data=[78, 0]),
   midi.NoteOnEvent(tick=2, channel=0, data=[71, 68]),
   midi.NoteOnEvent(tick=75, channel=0, data=[77, 70]),
   midi.NoteOnEvent(tick=5, channel=0, data=[71, 0]),
   midi.NoteOnEvent(tick=75, channel=0, data=[77, 0]),
   midi.NoteOnEvent(tick=3, channel=0, data=[67, 68]),
   midi.NoteOnEvent(tick=80, channel=0, data=[67, 0]),
   midi.NoteOnEvent(tick=2, channel=0, data=[76, 70]),
   midi.NoteOnEvent(tick=77, channel=0, data=[71, 68]),
   midi.NoteOnEvent(tick=3, channel=0, data=[76, 0]),
   midi.NoteOnEvent(tick=76, channel=0, data=[75, 70]),
   midi.NoteOnEvent(tick=1, channel=0, data=[71, 0]),
   midi.NoteOnEvent(tick=79, channel=0, data=[75, 0]),
   midi.NoteOnEvent(tick=0, channel=0, data=[67, 68]),
   midi.NoteOnEvent(tick=79, channel=0, data=[74, 70]),
   midi.NoteOnEvent(tick=1, channel=0, data=[67, 0]),
   midi.NoteOnEvent(tick=79, channel=0, data=[74, 0]),
   midi.NoteOnEvent(tick=3, channel=0, data=[67, 68]),
   midi.NoteOnEvent(tick=79, channel=0, data=[73, 70]),
   midi.NoteOnEvent(tick=1, channel=0, data=[67, 0]),
   midi.NoteOnEvent(tick=77, channel=0, data=[64, 68]),
   midi.NoteOnEvent(tick=2, channel=0, data=[73, 0]),
   midi.NoteOnEvent(tick=78, channel=0, data=[64, 0]),
   midi.NoteOnEvent(tick=0, channel=0, data=[72, 61]),
   midi.NoteOnEvent(tick=80, channel=0, data=[72, 0]),
   midi.NoteOnEvent(tick=2, channel=0, data=[67, 59]),
   midi.NoteOnEvent(tick=80, channel=0, data=[67, 0]),
   midi.NoteOnEvent(tick=3, channel=0, data=[71, 61]),
   midi.NoteOnEvent(tick=80, channel=0, data=[71, 0]),
   midi.NoteOnEvent(tick=0, channel=0, data=[64, 59]),
   midi.NoteOnEvent(tick=77, channel=0, data=[70, 61]),
   midi.NoteOnEvent(tick=3, channel=0, data=[64, 0]),
   midi.NoteOnEvent(tick=77, channel=0, data=[70, 0]),
   midi.NoteOnEvent(tick=2, channel=0, data=[67, 59]),
   midi.NoteOnEvent(tick=79, channel=0, data=[69, 61]),
   midi.NoteOnEvent(tick=1, channel=0, data=[67, 0]),
   midi.NoteOnEvent(tick=79, channel=0, data=[69, 0]),
   midi.NoteOnEvent(tick=1, channel=0, data=[64, 59]),
   midi.NoteOnEvent(tick=80, channel=0, data=[64, 0]),
   midi.NoteOnEvent(tick=1, channel=0, data=[68, 61]),
   midi.NoteOnEvent(tick=78, channel=0, data=[64, 59]),
   midi.NoteOnEvent(tick=2, channel=0, data=[68, 0]),
   midi.NoteOnEvent(tick=78, channel=0, data=[64, 0]),
   midi.NoteOnEvent(tick=0, channel=0, data=[67, 61]),
   midi.NoteOnEvent(tick=77, channel=0, data=[59, 59]),
   midi.NoteOnEvent(tick=3, channel=0, data=[67, 0]),
   midi.NoteOnEvent(tick=77, channel=0, data=[59, 0]),
   midi.NoteOnEvent(tick=4, channel=0, data=[66, 61]),
   midi.NoteOnEvent(tick=78, channel=0, data=[59, 58]),
   midi.NoteOnEvent(tick=2, channel=0, data=[66, 0]),
   midi.NoteOnEvent(tick=78, channel=0, data=[59, 0]),
   midi.NoteOnEvent(tick=1, channel=0, data=[65, 60]),
   midi.NoteOnEvent(tick=80, channel=0, data=[65, 0]),
   midi.NoteOnEvent(tick=0, channel=0, data=[55, 56]),
   midi.NoteOnEvent(tick=80, channel=0, data=[55, 0]),
   midi.NoteOnEvent(tick=0, channel=0, data=[64, 59]),
   midi.NoteOnEvent(tick=80, channel=0, data=[64, 0]),
   midi.NoteOnEvent(tick=1, channel=0, data=[59, 55]),
   midi.NoteOnEvent(tick=80, channel=0, data=[59, 0]),
   midi.NoteOnEvent(tick=0, channel=0, data=[63, 59]),
   midi.NoteOnEvent(tick=78, channel=0, data=[54, 53]),
   midi.NoteOnEvent(tick=2, channel=0, data=[63, 0]),
   midi.NoteOnEvent(tick=76, channel=0, data=[62, 56]),
   midi.NoteOnEvent(tick=2, channel=0, data=[54, 0]),
   midi.NoteOnEvent(tick=78, channel=0, data=[62, 0]),
   midi.NoteOnEvent(tick=1, channel=0, data=[55, 51]),
   midi.NoteOnEvent(tick=80, channel=0, data=[55, 0]),
   midi.NoteOnEvent(tick=1, channel=0, data=[61, 55]),
   midi.NoteOnEvent(tick=79, channel=0, data=[53, 49]),
   midi.NoteOnEvent(tick=1, channel=0, data=[61, 0]),
   midi.NoteOnEvent(tick=79, channel=0, data=[53, 0]),
   midi.NoteOnEvent(tick=3, channel=0, data=[60, 55]),
   midi.NoteOnEvent(tick=78, channel=0, data=[55, 50]),
   midi.NoteOnEvent(tick=2, channel=0, data=[60, 0]),
   midi.NoteOnEvent(tick=78, channel=0, data=[55, 0]),
   midi.NoteOnEvent(tick=3, channel=0, data=[59, 53]),
   midi.NoteOnEvent(tick=75, channel=0, data=[53, 49]),
   midi.NoteOnEvent(tick=5, channel=0, data=[59, 0]),
   midi.NoteOnEvent(tick=75, channel=0, data=[53, 0]),
   midi.NoteOnEvent(tick=4, channel=0, data=[58, 50]),
   midi.NoteOnEvent(tick=79, channel=0, data=[55, 47]),
   midi.NoteOnEvent(tick=1, channel=0, data=[58, 0]),
   midi.NoteOnEvent(tick=79, channel=0, data=[55, 0]),
   midi.NoteOnEvent(tick=2, channel=0, data=[57, 49]),
   midi.NoteOnEvent(tick=76, channel=0, data=[50, 46]),
   midi.NoteOnEvent(tick=4, channel=0, data=[57, 0]),
   midi.NoteOnEvent(tick=76, channel=0, data=[50, 0]),
   midi.NoteOnEvent(tick=2, channel=0, data=[56, 49]),
   midi.NoteOnEvent(tick=80, channel=0, data=[56, 0]),
   midi.NoteOnEvent(tick=2, channel=0, data=[53, 46]),
   midi.NoteOnEvent(tick=79, channel=0, data=[55, 49]),
   midi.NoteOnEvent(tick=1, channel=0, data=[53, 0]),
   midi.NoteOnEvent(tick=79, channel=0, data=[55, 0]),
   midi.NoteOnEvent(tick=1, channel=0, data=[47, 45]),
   midi.NoteOnEvent(tick=76, channel=0, data=[54, 49]),
   midi.NoteOnEvent(tick=4, channel=0, data=[47, 0]),
   midi.NoteOnEvent(tick=76, channel=0, data=[54, 0]),
   midi.NoteOnEvent(tick=4, channel=0, data=[53, 46]),
   midi.NoteOnEvent(tick=79, channel=0, data=[55, 53]),
   midi.NoteOnEvent(tick=1, channel=0, data=[53, 0]),
   midi.NoteOnEvent(tick=79, channel=0, data=[55, 0]),
   midi.NoteOnEvent(tick=1, channel=0, data=[47, 50]),
   midi.NoteOnEvent(tick=80, channel=0, data=[47, 0]),
   midi.NoteOnEvent(tick=0, channel=0, data=[56, 56]),
   midi.NoteOnEvent(tick=80, channel=0, data=[56, 0]),
   midi.NoteOnEvent(tick=0, channel=0, data=[53, 55]),
   midi.NoteOnEvent(tick=78, channel=0, data=[57, 59]),
   midi.NoteOnEvent(tick=2, channel=0, data=[53, 0]),
   midi.NoteOnEvent(tick=76, channel=0, data=[50, 56]),
   midi.NoteOnEvent(tick=2, channel=0, data=[57, 0]),
   midi.NoteOnEvent(tick=78, channel=0, data=[50, 0]),
   midi.NoteOnEvent(tick=2, channel=0, data=[58, 61]),
   midi.NoteOnEvent(tick=78, channel=0, data=[55, 59]),
   midi.NoteOnEvent(tick=2, channel=0, data=[58, 0]),
   midi.NoteOnEvent(tick=78, channel=0, data=[55, 0]),
   midi.NoteOnEvent(tick=0, channel=0, data=[59, 64]),
   midi.NoteOnEvent(tick=80, channel=0, data=[59, 0]),
   midi.NoteOnEvent(tick=3, channel=0, data=[53, 64]),
   midi.NoteOnEvent(tick=80, channel=0, data=[53, 0]),
   midi.NoteOnEvent(tick=0, channel=0, data=[64, 69]),
   midi.NoteOnEvent(tick=77, channel=0, data=[59, 69]),
   midi.NoteOnEvent(tick=3, channel=0, data=[64, 0]),
   midi.NoteOnEvent(tick=77, channel=0, data=[59, 0]),
   midi.NoteOnEvent(tick=3, channel=0, data=[62, 69]),
   midi.NoteOnEvent(tick=78, channel=0, data=[65, 69]),
   midi.NoteOnEvent(tick=2, channel=0, data=[62, 0]),
   midi.NoteOnEvent(tick=76, channel=0, data=[76, 69]),
   midi.NoteOnEvent(tick=2, channel=0, data=[65, 0]),
   midi.NoteOnEvent(tick=78, channel=0, data=[76, 0]),
   midi.NoteOnEvent(tick=4, channel=0, data=[71, 69]),
   midi.NoteOnEvent(tick=80, channel=0, data=[71, 0]),
   midi.NoteOnEvent(tick=1, channel=0, data=[74, 66]),
   midi.NoteOnEvent(tick=75, channel=0, data=[77, 67]),
   midi.NoteOnEvent(tick=5, channel=0, data=[74, 0]),
   midi.NoteOnEvent(tick=75, channel=0, data=[77, 0]),
   midi.NoteOnEvent(tick=1, channel=0, data=[88, 69]),
   midi.NoteOnEvent(tick=80, channel=0, data=[88, 0]),
   midi.NoteOnEvent(tick=2, channel=0, data=[83, 70]),
   midi.NoteOnEvent(tick=79, channel=0, data=[86, 72]),
   midi.NoteOnEvent(tick=1, channel=0, data=[83, 0]),
   midi.NoteOnEvent(tick=79, channel=0, data=[86, 0]),
   midi.NoteOnEvent(tick=2, channel=0, data=[77, 73]),
   midi.NoteOnEvent(tick=77, channel=0, data=[88, 77]),
   midi.NoteOnEvent(tick=3, channel=0, data=[77, 0]),
   midi.NoteOnEvent(tick=77, channel=0, data=[88, 0]),
   midi.NoteOnEvent(tick=3, channel=0, data=[82, 73]),
   midi.NoteOnEvent(tick=80, channel=0, data=[82, 0]),
   midi.NoteOnEvent(tick=1, channel=0, data=[86, 72]),
   midi.NoteOnEvent(tick=75, channel=0, data=[77, 71]),
   midi.NoteOnEvent(tick=5, channel=0, data=[86, 0]),
   midi.NoteOnEvent(tick=75, channel=0, data=[77, 0]),
   midi.NoteOnEvent(tick=3, channel=0, data=[76, 69]),
   midi.NoteOnEvent(tick=80, channel=0, data=[76, 0]),
   midi.NoteOnEvent(tick=1, channel=0, data=[70, 69]),
   midi.NoteOnEvent(tick=77, channel=0, data=[74, 64]),
   midi.NoteOnEvent(tick=3, channel=0, data=[70, 0]),
   midi.NoteOnEvent(tick=76, channel=0, data=[65, 64]),
   midi.NoteOnEvent(tick=1, channel=0, data=[74, 0]),
   midi.NoteOnEvent(tick=79, channel=0, data=[65, 0]),
   midi.NoteOnEvent(tick=1, channel=0, data=[64, 64]),
   midi.NoteOnEvent(tick=80, channel=0, data=[64, 0]),
   midi.NoteOnEvent(tick=3, channel=0, data=[58, 64]),
   midi.NoteOnEvent(tick=80, channel=0, data=[58, 0]),
   midi.NoteOnEvent(tick=1, channel=0, data=[62, 64]),
   midi.NoteOnEvent(tick=78, channel=0, data=[53, 64]),
   midi.NoteOnEvent(tick=2, channel=0, data=[62, 0]),
   midi.NoteOnEvent(tick=77, channel=0, data=[64, 69]),
   midi.NoteOnEvent(tick=1, channel=0, data=[53, 0]),
   midi.NoteOnEvent(tick=79, channel=0, data=[64, 0]),
   midi.NoteOnEvent(tick=2, channel=0, data=[57, 69]),
   midi.NoteOnEvent(tick=77, channel=0, data=[62, 69]),
   midi.NoteOnEvent(tick=3, channel=0, data=[57, 0]),
   midi.NoteOnEvent(tick=77, channel=0, data=[62, 0]),
   midi.NoteOnEvent(tick=2, channel=0, data=[65, 69]),
   midi.NoteOnEvent(tick=78, channel=0, data=[76, 69]),
   midi.NoteOnEvent(tick=2, channel=0, data=[65, 0]),
   midi.NoteOnEvent(tick=78, channel=0, data=[76, 0]),
   midi.NoteOnEvent(tick=0, channel=0, data=[69, 69]),
   midi.NoteOnEvent(tick=80, channel=0, data=[69, 0]),
   midi.NoteOnEvent(tick=4, channel=0, data=[74, 68]),
   midi.NoteOnEvent(tick=76, channel=0, data=[77, 68]),
   midi.NoteOnEvent(tick=4, channel=0, data=[74, 0]),
   midi.NoteOnEvent(tick=75, channel=0, data=[88, 69]),
   midi.NoteOnEvent(tick=1, channel=0, data=[77, 0]),
   midi.NoteOnEvent(tick=79, channel=0, data=[88, 0]),
   midi.NoteOnEvent(tick=4, channel=0, data=[81, 70]),
   midi.NoteOnEvent(tick=76, channel=0, data=[86, 71]),
   midi.NoteOnEvent(tick=4, channel=0, data=[81, 0]),
   midi.NoteOnEvent(tick=76, channel=0, data=[86, 0]),
   midi.NoteOnEvent(tick=0, channel=0, data=[77, 72]),
   midi.NoteOnEvent(tick=80, channel=0, data=[77, 0]),
   midi.NoteOnEvent(tick=0, channel=0, data=[88, 73]),
   midi.NoteOnEvent(tick=80, channel=0, data=[88, 0]),
   midi.NoteOnEvent(tick=2, channel=0, data=[80, 72]),
   midi.NoteOnEvent(tick=80, channel=0, data=[80, 0]),
   midi.NoteOnEvent(tick=1, channel=0, data=[86, 71]),
   midi.NoteOnEvent(tick=79, channel=0, data=[77, 70]),
   midi.NoteOnEvent(tick=1, channel=0, data=[86, 0]),
   midi.NoteOnEvent(tick=79, channel=0, data=[77, 0]),
   midi.NoteOnEvent(tick=0, channel=0, data=[76, 69]),
   midi.NoteOnEvent(tick=80, channel=0, data=[76, 0]),
   midi.NoteOnEvent(tick=0, channel=0, data=[68, 69]),
   midi.NoteOnEvent(tick=78, channel=0, data=[74, 64]),
   midi.NoteOnEvent(tick=2, channel=0, data=[68, 0]),
   midi.NoteOnEvent(tick=78, channel=0, data=[74, 0]),
   midi.NoteOnEvent(tick=3, channel=0, data=[65, 64]),
   midi.NoteOnEvent(tick=80, channel=0, data=[65, 0]),
   midi.NoteOnEvent(tick=1, channel=0, data=[64, 64]),
   midi.NoteOnEvent(tick=78, channel=0, data=[56, 64]),
   midi.NoteOnEvent(tick=2, channel=0, data=[64, 0]),
   midi.NoteOnEvent(tick=78, channel=0, data=[56, 0]),
   midi.NoteOnEvent(tick=1, channel=0, data=[62, 64]),
   midi.NoteOnEvent(tick=80, channel=0, data=[62, 0]),
   midi.NoteOnEvent(tick=2, channel=0, data=[53, 64]),
   midi.NoteOnEvent(tick=78, channel=0, data=[64, 69]),
   midi.NoteOnEvent(tick=2, channel=0, data=[53, 0]),
   midi.NoteOnEvent(tick=78, channel=0, data=[64, 0]),
   midi.NoteOnEvent(tick=0, channel=0, data=[55, 69]),
   midi.NoteOnEvent(tick=77, channel=0, data=[62, 69]),
   midi.NoteOnEvent(tick=3, channel=0, data=[55, 0]),
   midi.NoteOnEvent(tick=77, channel=0, data=[62, 0]),
   midi.NoteOnEvent(tick=2, channel=0, data=[53, 69]),
   midi.NoteOnEvent(tick=79, channel=0, data=[67, 69]),
   midi.NoteOnEvent(tick=1, channel=0, data=[53, 0]),
   midi.NoteOnEvent(tick=79, channel=0, data=[67, 0]),
   midi.NoteOnEvent(tick=1, channel=0, data=[64, 69]),
   midi.NoteOnEvent(tick=80, channel=0, data=[64, 0]),
   midi.NoteOnEvent(tick=3, channel=0, data=[65, 70]),
   midi.NoteOnEvent(tick=77, channel=0, data=[62, 70]),
   midi.NoteOnEvent(tick=3, channel=0, data=[65, 0]),
   midi.NoteOnEvent(tick=75, channel=0, data=[76, 70]),
   midi.NoteOnEvent(tick=2, channel=0, data=[62, 0]),
   midi.NoteOnEvent(tick=78, channel=0, data=[76, 0]),
   midi.NoteOnEvent(tick=3, channel=0, data=[67, 70]),
   midi.NoteOnEvent(tick=80, channel=0, data=[67, 0]),
   midi.NoteOnEvent(tick=1, channel=0, data=[74, 70]),
   midi.NoteOnEvent(tick=80, channel=0, data=[74, 0]),
   midi.NoteOnEvent(tick=0, channel=0, data=[65, 70]),
   midi.NoteOnEvent(tick=80, channel=0, data=[65, 0]),
   midi.NoteOnEvent(tick=1, channel=0, data=[79, 69]),
   midi.NoteOnEvent(tick=80, channel=0, data=[79, 0]),
   midi.NoteOnEvent(tick=0, channel=0, data=[76, 69]),
   midi.NoteOnEvent(tick=76, channel=0, data=[77, 69]),
   midi.NoteOnEvent(tick=4, channel=0, data=[76, 0]),
   midi.NoteOnEvent(tick=76, channel=0, data=[77, 0]),
   midi.NoteOnEvent(tick=4, channel=0, data=[74, 69]),
   midi.NoteOnEvent(tick=78, channel=0, data=[88, 69]),
   midi.NoteOnEvent(tick=2, channel=0, data=[74, 0]),
   midi.NoteOnEvent(tick=78, channel=0, data=[88, 0]),
   midi.NoteOnEvent(tick=1, channel=0, data=[79, 69]),
   midi.NoteOnEvent(tick=80, channel=0, data=[79, 0]),
   midi.NoteOnEvent(tick=0, channel=0, data=[86, 64]),
   midi.NoteOnEvent(tick=80, channel=0, data=[86, 0]),
   midi.NoteOnEvent(tick=0, channel=0, data=[77, 59]),
   midi.NoteOnEvent(tick=80, channel=0, data=[77, 0]),
   midi.NoteOnEvent(tick=1, channel=0, data=[91, 59]),
   midi.NoteOnEvent(tick=80, channel=0, data=[91, 0]),
   midi.NoteOnEvent(tick=0, channel=0, data=[88, 59]),
   midi.NoteOnEvent(tick=80, channel=0, data=[88, 0]),
   midi.NoteOnEvent(tick=0, channel=0, data=[89, 59]),
   midi.NoteOnEvent(tick=78, channel=0, data=[86, 59]),
   midi.NoteOnEvent(tick=2, channel=0, data=[89, 0]),
   midi.NoteOnEvent(tick=77, channel=0, data=[93, 62]),
   midi.NoteOnEvent(tick=1, channel=0, data=[86, 0]),
   midi.NoteOnEvent(tick=77, channel=0, data=[88, 62]),
   midi.NoteOnEvent(tick=2, channel=0, data=[93, 0]),
   midi.NoteOnEvent(tick=78, channel=0, data=[88, 0]),
   midi.NoteOnEvent(tick=2, channel=0, data=[91, 62]),
   midi.NoteOnEvent(tick=80, channel=0, data=[91, 0]),
   midi.NoteOnEvent(tick=2, channel=0, data=[84, 62]),
   midi.NoteOnEvent(tick=78, channel=0, data=[100, 68]),
   midi.NoteOnEvent(tick=2, channel=0, data=[84, 0]),
   midi.NoteOnEvent(tick=77, channel=0, data=[91, 62]),
   midi.NoteOnEvent(tick=1, channel=0, data=[100, 0]),
   midi.NoteOnEvent(tick=78, channel=0, data=[98, 66]),
   midi.NoteOnEvent(tick=1, channel=0, data=[91, 0]),
   midi.NoteOnEvent(tick=79, channel=0, data=[98, 0]),
   midi.NoteOnEvent(tick=3, channel=0, data=[88, 59]),
   midi.NoteOnEvent(tick=80, channel=0, data=[88, 0]),
   midi.NoteOnEvent(tick=1, channel=0, data=[96, 63]),
   midi.NoteOnEvent(tick=76, channel=0, data=[92, 59]),
   midi.NoteOnEvent(tick=4, channel=0, data=[96, 0]),
   midi.NoteOnEvent(tick=76, channel=0, data=[92, 0]),
   midi.NoteOnEvent(tick=0, channel=0, data=[95, 63]),
   midi.NoteOnEvent(tick=80, channel=0, data=[95, 0]),
   midi.NoteOnEvent(tick=2, channel=0, data=[88, 59]),
   midi.NoteOnEvent(tick=80, channel=0, data=[88, 0]),
   midi.NoteOnEvent(tick=2, channel=0, data=[94, 62]),
   midi.NoteOnEvent(tick=80, channel=0, data=[94, 0]),
   midi.NoteOnEvent(tick=0, channel=0, data=[89, 59]),
   midi.NoteOnEvent(tick=76, channel=0, data=[92, 62]),
   midi.NoteOnEvent(tick=4, channel=0, data=[89, 0]),
   midi.NoteOnEvent(tick=76, channel=0, data=[92, 0]),
   midi.NoteOnEvent(tick=0, channel=0, data=[85, 59]),
   midi.NoteOnEvent(tick=80, channel=0, data=[85, 0]),
   midi.NoteOnEvent(tick=0, channel=0, data=[90, 62]),
   midi.NoteOnEvent(tick=80, channel=0, data=[90, 0]),
   midi.NoteOnEvent(tick=2, channel=0, data=[85, 59]),
   midi.NoteOnEvent(tick=78, channel=0, data=[89, 62]),
   midi.NoteOnEvent(tick=2, channel=0, data=[85, 0]),
   midi.NoteOnEvent(tick=78, channel=0, data=[89, 0]),
   midi.NoteOnEvent(tick=5, channel=0, data=[80, 59]),
   midi.NoteOnEvent(tick=78, channel=0, data=[87, 62]),
   midi.NoteOnEvent(tick=2, channel=0, data=[80, 0]),
   midi.NoteOnEvent(tick=75, channel=0, data=[80, 59]),
   midi.NoteOnEvent(tick=3, channel=0, data=[87, 0]),
   midi.NoteOnEvent(tick=77, channel=0, data=[80, 0]),
   midi.NoteOnEvent(tick=5, channel=0, data=[85, 62]),
   midi.NoteOnEvent(tick=78, channel=0, data=[77, 59]),
   midi.NoteOnEvent(tick=2, channel=0, data=[85, 0]),
   midi.NoteOnEvent(tick=77, channel=0, data=[85, 59]),
   midi.NoteOnEvent(tick=1, channel=0, data=[77, 0]),
   midi.NoteOnEvent(tick=77, channel=0, data=[78, 59]),
   midi.NoteOnEvent(tick=2, channel=0, data=[85, 0]),
   midi.NoteOnEvent(tick=78, channel=0, data=[78, 0]),
   midi.NoteOnEvent(tick=1, channel=0, data=[84, 59]),
   midi.NoteOnEvent(tick=80, channel=0, data=[84, 0]),
   midi.NoteOnEvent(tick=1, channel=0, data=[76, 59]),
   midi.NoteOnEvent(tick=80, channel=0, data=[76, 0]),
   midi.NoteOnEvent(tick=1, channel=0, data=[79, 59]),
   midi.NoteOnEvent(tick=80, channel=0, data=[79, 0]),
   midi.NoteOnEvent(tick=1, channel=0, data=[72, 59]),
   midi.NoteOnEvent(tick=76, channel=0, data=[80, 55]),
   midi.NoteOnEvent(tick=4, channel=0, data=[72, 0]),
   midi.NoteOnEvent(tick=76, channel=0, data=[80, 0]),
   midi.NoteOnEvent(tick=4, channel=0, data=[76, 55]),
   midi.NoteOnEvent(tick=76, channel=0, data=[78, 55]),
   midi.NoteOnEvent(tick=4, channel=0, data=[76, 0]),
   midi.NoteOnEvent(tick=76, channel=0, data=[78, 0]),
   midi.NoteOnEvent(tick=3, channel=0, data=[72, 55]),
   midi.NoteOnEvent(tick=80, channel=0, data=[72, 0]),
   midi.NoteOnEvent(tick=0, channel=0, data=[79, 55]),
   midi.NoteOnEvent(tick=80, channel=0, data=[79, 0]),
   midi.NoteOnEvent(tick=2, channel=0, data=[76, 55]),
   midi.NoteOnEvent(tick=77, channel=0, data=[81, 55]),
   midi.NoteOnEvent(tick=3, channel=0, data=[76, 0]),
   midi.NoteOnEvent(tick=76, channel=0, data=[71, 55]),
   midi.NoteOnEvent(tick=1, channel=0, data=[81, 0]),
   midi.NoteOnEvent(tick=79, channel=0, data=[71, 0]),
   midi.NoteOnEvent(tick=0, channel=0, data=[78, 55]),
   midi.NoteOnEvent(tick=80, channel=0, data=[78, 0]),
   midi.NoteOnEvent(tick=3, channel=0, data=[77, 55]),
   midi.NoteOnEvent(tick=78, channel=0, data=[79, 55]),
   midi.NoteOnEvent(tick=2, channel=0, data=[77, 0]),
   midi.NoteOnEvent(tick=78, channel=0, data=[79, 0]),
   midi.NoteOnEvent(tick=0, channel=0, data=[71, 55]),
   midi.NoteOnEvent(tick=80, channel=0, data=[71, 0]),
   midi.NoteOnEvent(tick=1, channel=0, data=[83, 55]),
   midi.NoteOnEvent(tick=77, channel=0, data=[77, 53]),
   midi.NoteOnEvent(tick=3, channel=0, data=[83, 0]),
   midi.NoteOnEvent(tick=77, channel=0, data=[77, 0]),
   midi.NoteOnEvent(tick=5, channel=0, data=[88, 53]),
   midi.NoteOnEvent(tick=79, channel=0, data=[79, 53]),
   midi.NoteOnEvent(tick=1, channel=0, data=[88, 0]),
   midi.NoteOnEvent(tick=75, channel=0, data=[86, 53]),
   midi.NoteOnEvent(tick=4, channel=0, data=[79, 0]),
   midi.NoteOnEvent(tick=76, channel=0, data=[86, 0]),
   midi.NoteOnEvent(tick=2, channel=0, data=[77, 53]),
   midi.NoteOnEvent(tick=80, channel=0, data=[77, 0]),
   midi.NoteOnEvent(tick=2, channel=0, data=[86, 55]),
   midi.NoteOnEvent(tick=80, channel=0, data=[86, 0]),
   midi.NoteOnEvent(tick=1, channel=0, data=[79, 46]),
   midi.NoteOnEvent(tick=79, channel=0, data=[84, 55]),
   midi.NoteOnEvent(tick=1, channel=0, data=[79, 0]),
   midi.NoteOnEvent(tick=78, channel=0, data=[76, 46]),
   midi.NoteOnEvent(tick=1, channel=0, data=[84, 0]),
   midi.NoteOnEvent(tick=79, channel=0, data=[76, 0]),
   midi.NoteOnEvent(tick=0, channel=0, data=[81, 55]),
   midi.NoteOnEvent(tick=80, channel=0, data=[81, 0]),
   midi.NoteOnEvent(tick=2, channel=0, data=[76, 47]),
   midi.NoteOnEvent(tick=79, channel=0, data=[79, 55]),
   midi.NoteOnEvent(tick=1, channel=0, data=[76, 0]),
   midi.NoteOnEvent(tick=76, channel=0, data=[72, 47]),
   midi.NoteOnEvent(tick=3, channel=0, data=[79, 0]),
   midi.NoteOnEvent(tick=77, channel=0, data=[72, 0]),
   midi.NoteOnEvent(tick=2, channel=0, data=[77, 55]),
   midi.NoteOnEvent(tick=78, channel=0, data=[72, 47]),
   midi.NoteOnEvent(tick=2, channel=0, data=[77, 0]),
   midi.NoteOnEvent(tick=78, channel=0, data=[72, 0]),
   midi.NoteOnEvent(tick=2, channel=0, data=[76, 55]),
   midi.NoteOnEvent(tick=80, channel=0, data=[76, 0]),
   midi.NoteOnEvent(tick=1, channel=0, data=[67, 47]),
   midi.NoteOnEvent(tick=77, channel=0, data=[81, 55]),
   midi.NoteOnEvent(tick=3, channel=0, data=[67, 0]),
   midi.NoteOnEvent(tick=77, channel=0, data=[81, 0]),
   midi.NoteOnEvent(tick=2, channel=0, data=[76, 49]),
   midi.NoteOnEvent(tick=79, channel=0, data=[79, 55]),
   midi.NoteOnEvent(tick=1, channel=0, data=[76, 0]),
   midi.NoteOnEvent(tick=79, channel=0, data=[79, 0]),
   midi.NoteOnEvent(tick=3, channel=0, data=[72, 49]),
   midi.NoteOnEvent(tick=79, channel=0, data=[77, 55]),
   midi.NoteOnEvent(tick=1, channel=0, data=[72, 0]),
   midi.NoteOnEvent(tick=79, channel=0, data=[77, 0]),
   midi.NoteOnEvent(tick=0, channel=0, data=[72, 47]),
   midi.NoteOnEvent(tick=79, channel=0, data=[76, 55]),
   midi.NoteOnEvent(tick=1, channel=0, data=[72, 0]),
   midi.NoteOnEvent(tick=78, channel=0, data=[67, 49]),
   midi.NoteOnEvent(tick=1, channel=0, data=[76, 0]),
   midi.NoteOnEvent(tick=79, channel=0, data=[67, 0]),
   midi.NoteOnEvent(tick=2, channel=0, data=[81, 55]),
   midi.NoteOnEvent(tick=80, channel=0, data=[81, 0]),
   midi.NoteOnEvent(tick=0, channel=0, data=[76, 47]),
   midi.NoteOnEvent(tick=80, channel=0, data=[76, 0]),
   midi.NoteOnEvent(tick=1, channel=0, data=[79, 55]),
   midi.NoteOnEvent(tick=76, channel=0, data=[72, 47]),
   midi.NoteOnEvent(tick=4, channel=0, data=[79, 0]),
   midi.NoteOnEvent(tick=76, channel=0, data=[72, 0]),
   midi.NoteOnEvent(tick=1, channel=0, data=[76, 69]),
   midi.NoteOnEvent(tick=0, channel=0, data=[79, 82]),
   midi.NoteOnEvent(tick=480, channel=0, data=[79, 0]),
   midi.NoteOnEvent(tick=0, channel=0, data=[76, 0]),
   midi.NoteOnEvent(tick=0, channel=0, data=[76, 69]),
   midi.NoteOnEvent(tick=0, channel=0, data=[79, 82]),
   midi.NoteOnEvent(tick=0, channel=0, data=[67, 69]),
   midi.NoteOnEvent(tick=360, channel=0, data=[67, 0]),
   midi.NoteOnEvent(tick=0, channel=0, data=[79, 0]),
   midi.NoteOnEvent(tick=0, channel=0, data=[76, 0]),
   midi.NoteOnEvent(tick=0, channel=0, data=[76, 63]),
   midi.NoteOnEvent(tick=0, channel=0, data=[67, 63]),
   midi.NoteOnEvent(tick=0, channel=0, data=[79, 77]),
   midi.NoteOnEvent(tick=120, channel=0, data=[79, 0]),
   midi.NoteOnEvent(tick=0, channel=0, data=[67, 0]),
   midi.NoteOnEvent(tick=0, channel=0, data=[76, 0]),
   midi.NoteOnEvent(tick=0, channel=0, data=[67, 69]),
   midi.NoteOnEvent(tick=0, channel=0, data=[79, 82]),
   midi.NoteOnEvent(tick=0, channel=0, data=[76, 69]),
   midi.NoteOnEvent(tick=480, channel=0, data=[76, 0]),
   midi.NoteOnEvent(tick=0, channel=0, data=[79, 0]),
   midi.NoteOnEvent(tick=0, channel=0, data=[67, 0]),
   midi.NoteOnEvent(tick=0, channel=0, data=[76, 72]),
   midi.NoteOnEvent(tick=0, channel=0, data=[69, 72]),
   midi.NoteOnEvent(tick=0, channel=0, data=[81, 85]),
   midi.NoteOnEvent(tick=480, channel=0, data=[81, 0]),
   midi.NoteOnEvent(tick=0, channel=0, data=[69, 0]),
   midi.NoteOnEvent(tick=0, channel=0, data=[76, 0]),
   midi.NoteOnEvent(tick=0, channel=0, data=[79, 82]),
   midi.NoteOnEvent(tick=0, channel=0, data=[67, 69]),
   midi.NoteOnEvent(tick=0, channel=0, data=[76, 69]),
   midi.NoteOnEvent(tick=480, channel=0, data=[76, 0]),
   midi.NoteOnEvent(tick=0, channel=0, data=[67, 0]),
   midi.NoteOnEvent(tick=0, channel=0, data=[79, 0]),
   midi.NoteOnEvent(tick=0, channel=0, data=[73, 63]),
   midi.NoteOnEvent(tick=0, channel=0, data=[67, 63]),
   midi.NoteOnEvent(tick=0, channel=0, data=[76, 77]),
   midi.NoteOnEvent(tick=480, channel=0, data=[76, 0]),
   midi.NoteOnEvent(tick=0, channel=0, data=[67, 0]),
   midi.NoteOnEvent(tick=0, channel=0, data=[73, 0]),
   midi.NoteOnEvent(tick=0, channel=0, data=[67, 63]),
   midi.NoteOnEvent(tick=0, channel=0, data=[79, 77]),
   midi.NoteOnEvent(tick=0, channel=0, data=[76, 63]),
   midi.NoteOnEvent(tick=960, channel=0, data=[76, 0]),
   midi.NoteOnEvent(tick=0, channel=0, data=[79, 0]),
   midi.NoteOnEvent(tick=0, channel=0, data=[67, 0]),
   midi.NoteOnEvent(tick=0, channel=0, data=[79, 69]),
   midi.NoteOnEvent(tick=0, channel=0, data=[82, 82]),
   midi.NoteOnEvent(tick=480, channel=0, data=[82, 0]),
   midi.NoteOnEvent(tick=0, channel=0, data=[79, 0]),
   midi.NoteOnEvent(tick=0, channel=0, data=[70, 69]),
   midi.NoteOnEvent(tick=0, channel=0, data=[79, 69]),
   midi.NoteOnEvent(tick=0, channel=0, data=[82, 82]),
   midi.NoteOnEvent(tick=360, channel=0, data=[82, 0]),
   midi.NoteOnEvent(tick=0, channel=0, data=[79, 0]),
   midi.NoteOnEvent(tick=0, channel=0, data=[70, 0]),
   midi.NoteOnEvent(tick=0, channel=0, data=[70, 63]),
   midi.NoteOnEvent(tick=0, channel=0, data=[79, 63]),
   midi.NoteOnEvent(tick=0, channel=0, data=[82, 77]),
   midi.NoteOnEvent(tick=120, channel=0, data=[82, 0]),
   midi.NoteOnEvent(tick=0, channel=0, data=[79, 0]),
   midi.NoteOnEvent(tick=0, channel=0, data=[70, 0]),
   midi.NoteOnEvent(tick=0, channel=0, data=[82, 82]),
   midi.NoteOnEvent(tick=0, channel=0, data=[70, 69]),
   midi.NoteOnEvent(tick=0, channel=0, data=[79, 69]),
   midi.NoteOnEvent(tick=480, channel=0, data=[79, 0]),
   midi.NoteOnEvent(tick=0, channel=0, data=[70, 0]),
   midi.NoteOnEvent(tick=0, channel=0, data=[82, 0]),
   midi.NoteOnEvent(tick=0, channel=0, data=[72, 72]),
   midi.NoteOnEvent(tick=0, channel=0, data=[84, 85]),
   midi.NoteOnEvent(tick=0, channel=0, data=[79, 72]),
   midi.NoteOnEvent(tick=480, channel=0, data=[79, 0]),
   midi.NoteOnEvent(tick=0, channel=0, data=[84, 0]),
   midi.NoteOnEvent(tick=0, channel=0, data=[72, 0]),
   midi.NoteOnEvent(tick=0, channel=0, data=[70, 69]),
   midi.NoteOnEvent(tick=0, channel=0, data=[79, 69]),
   midi.NoteOnEvent(tick=0, channel=0, data=[82, 82]),
   midi.NoteOnEvent(tick=480, channel=0, data=[82, 0]),
   midi.NoteOnEvent(tick=0, channel=0, data=[79, 0]),
   midi.NoteOnEvent(tick=0, channel=0, data=[70, 0]),
   midi.NoteOnEvent(tick=0, channel=0, data=[79, 81]),
   midi.NoteOnEvent(tick=0, channel=0, data=[70, 68]),
   midi.NoteOnEvent(tick=0, channel=0, data=[76, 68]),
   midi.NoteOnEvent(tick=480, channel=0, data=[76, 0]),
   midi.NoteOnEvent(tick=0, channel=0, data=[70, 0]),
   midi.NoteOnEvent(tick=0, channel=0, data=[79, 0]),
   midi.NoteOnEvent(tick=0, channel=0, data=[79, 70]),
   midi.NoteOnEvent(tick=0, channel=0, data=[70, 70]),
   midi.NoteOnEvent(tick=0, channel=0, data=[82, 84]),
   midi.NoteOnEvent(tick=960, channel=0, data=[82, 0]),
   midi.NoteOnEvent(tick=0, channel=0, data=[70, 0]),
   midi.NoteOnEvent(tick=0, channel=0, data=[79, 0]),
   midi.NoteOnEvent(tick=2, channel=0, data=[96, 67]),
   midi.NoteOnEvent(tick=80, channel=0, data=[96, 0]),
   midi.NoteOnEvent(tick=1, channel=0, data=[87, 58]),
   midi.NoteOnEvent(tick=75, channel=0, data=[94, 61]),
   midi.NoteOnEvent(tick=5, channel=0, data=[87, 0]),
   midi.NoteOnEvent(tick=75, channel=0, data=[94, 0]),
   midi.NoteOnEvent(tick=2, channel=0, data=[85, 58]),
   midi.NoteOnEvent(tick=80, channel=0, data=[85, 0]),
   midi.NoteOnEvent(tick=0, channel=0, data=[92, 61]),
   midi.NoteOnEvent(tick=80, channel=0, data=[92, 0]),
   midi.NoteOnEvent(tick=2, channel=0, data=[87, 58]),
   midi.NoteOnEvent(tick=78, channel=0, data=[91, 56]),
   midi.NoteOnEvent(tick=2, channel=0, data=[87, 0]),
   midi.NoteOnEvent(tick=78, channel=0, data=[91, 0]),
   midi.NoteOnEvent(tick=0, channel=0, data=[85, 52]),
   midi.NoteOnEvent(tick=80, channel=0, data=[85, 0]),
   midi.NoteOnEvent(tick=2, channel=0, data=[89, 56]),
   midi.NoteOnEvent(tick=77, channel=0, data=[85, 52]),
   midi.NoteOnEvent(tick=3, channel=0, data=[89, 0]),
   midi.NoteOnEvent(tick=77, channel=0, data=[85, 0]),
   midi.NoteOnEvent(tick=2, channel=0, data=[87, 56]),
   midi.NoteOnEvent(tick=77, channel=0, data=[79, 52]),
   midi.NoteOnEvent(tick=3, channel=0, data=[87, 0]),
   midi.NoteOnEvent(tick=77, channel=0, data=[79, 0]),
   midi.NoteOnEvent(tick=5, channel=0, data=[89, 61]),
   midi.NoteOnEvent(tick=80, channel=0, data=[89, 0]),
   midi.NoteOnEvent(tick=0, channel=0, data=[84, 58]),
   midi.NoteOnEvent(tick=80, channel=0, data=[84, 0]),
   midi.NoteOnEvent(tick=0, channel=0, data=[87, 61]),
   midi.NoteOnEvent(tick=75, channel=0, data=[80, 58]),
   midi.NoteOnEvent(tick=5, channel=0, data=[87, 0]),
   midi.NoteOnEvent(tick=75, channel=0, data=[80, 0]),
   midi.NoteOnEvent(tick=2, channel=0, data=[85, 61]),
   midi.NoteOnEvent(tick=80, channel=0, data=[85, 0]),
   midi.NoteOnEvent(tick=1, channel=0, data=[80, 58]),
   midi.NoteOnEvent(tick=80, channel=0, data=[80, 0]),
   midi.NoteOnEvent(tick=1, channel=0, data=[84, 61]),
   midi.NoteOnEvent(tick=80, channel=0, data=[84, 0]),
   midi.NoteOnEvent(tick=0, channel=0, data=[75, 52]),
   midi.NoteOnEvent(tick=77, channel=0, data=[82, 56]),
   midi.NoteOnEvent(tick=3, channel=0, data=[75, 0]),
   midi.NoteOnEvent(tick=77, channel=0, data=[82, 0]),
   midi.NoteOnEvent(tick=4, channel=0, data=[75, 52]),
   midi.NoteOnEvent(tick=79, channel=0, data=[80, 56]),
   midi.NoteOnEvent(tick=1, channel=0, data=[75, 0]),
   midi.NoteOnEvent(tick=76, channel=0, data=[72, 52]),
   midi.NoteOnEvent(tick=3, channel=0, data=[80, 0]),
   midi.NoteOnEvent(tick=77, channel=0, data=[72, 0]),
   midi.NoteOnEvent(tick=2, channel=0, data=[84, 61]),
   midi.NoteOnEvent(tick=77, channel=0, data=[75, 58]),
   midi.NoteOnEvent(tick=3, channel=0, data=[84, 0]),
   midi.NoteOnEvent(tick=77, channel=0, data=[75, 0]),
   midi.NoteOnEvent(tick=3, channel=0, data=[82, 61]),
   midi.NoteOnEvent(tick=80, channel=0, data=[82, 0]),
   midi.NoteOnEvent(tick=1, channel=0, data=[73, 58]),
   midi.NoteOnEvent(tick=80, channel=0, data=[73, 0]),
   midi.NoteOnEvent(tick=0, channel=0, data=[81, 61]),
   midi.NoteOnEvent(tick=76, channel=0, data=[75, 58]),
   midi.NoteOnEvent(tick=4, channel=0, data=[81, 0]),
   midi.NoteOnEvent(tick=76, channel=0, data=[75, 0]),
   midi.NoteOnEvent(tick=4, channel=0, data=[82, 56]),
   midi.NoteOnEvent(tick=79, channel=0, data=[73, 52]),
   midi.NoteOnEvent(tick=1, channel=0, data=[82, 0]),
   midi.NoteOnEvent(tick=79, channel=0, data=[73, 0]),
   midi.NoteOnEvent(tick=2, channel=0, data=[85, 56]),
   midi.NoteOnEvent(tick=80, channel=0, data=[85, 0]),
   midi.NoteOnEvent(tick=0, channel=0, data=[75, 52]),
   midi.NoteOnEvent(tick=79, channel=0, data=[79, 56]),
   midi.NoteOnEvent(tick=1, channel=0, data=[75, 0]),
   midi.NoteOnEvent(tick=76, channel=0, data=[73, 52]),
   midi.NoteOnEvent(tick=3, channel=0, data=[79, 0]),
   midi.NoteOnEvent(tick=77, channel=0, data=[73, 0]),
   midi.NoteOnEvent(tick=1, channel=0, data=[82, 61]),
   midi.NoteOnEvent(tick=80, channel=0, data=[82, 0]),
   midi.NoteOnEvent(tick=0, channel=0, data=[75, 58]),
   midi.NoteOnEvent(tick=78, channel=0, data=[80, 61]),
   midi.NoteOnEvent(tick=2, channel=0, data=[75, 0]),
   midi.NoteOnEvent(tick=78, channel=0, data=[80, 0]),
   midi.NoteOnEvent(tick=3, channel=0, data=[72, 58]),
   midi.NoteOnEvent(tick=77, channel=0, data=[79, 61]),
   midi.NoteOnEvent(tick=3, channel=0, data=[72, 0]),
   midi.NoteOnEvent(tick=77, channel=0, data=[79, 0]),
   midi.NoteOnEvent(tick=4, channel=0, data=[75, 58]),
   midi.NoteOnEvent(tick=80, channel=0, data=[75, 0]),
   midi.NoteOnEvent(tick=0, channel=0, data=[80, 61]),
   midi.NoteOnEvent(tick=77, channel=0, data=[72, 52]),
   midi.NoteOnEvent(tick=3, channel=0, data=[80, 0]),
   midi.NoteOnEvent(tick=76, channel=0, data=[82, 56]),
   midi.NoteOnEvent(tick=1, channel=0, data=[72, 0]),
   midi.NoteOnEvent(tick=79, channel=0, data=[82, 0]),
   midi.NoteOnEvent(tick=0, channel=0, data=[75, 52]),
   midi.NoteOnEvent(tick=80, channel=0, data=[75, 0]),
   midi.NoteOnEvent(tick=4, channel=0, data=[80, 56]),
   midi.NoteOnEvent(tick=76, channel=0, data=[72, 52]),
   midi.NoteOnEvent(tick=4, channel=0, data=[80, 0]),
   midi.NoteOnEvent(tick=76, channel=0, data=[72, 0]),
   midi.NoteOnEvent(tick=2, channel=0, data=[92, 50]),
   midi.NoteOnEvent(tick=80, channel=0, data=[92, 0]),
   midi.NoteOnEvent(tick=2, channel=0, data=[83, 48]),
   midi.NoteOnEvent(tick=80, channel=0, data=[83, 0]),
   midi.NoteOnEvent(tick=0, channel=0, data=[90, 50]),
   midi.NoteOnEvent(tick=78, channel=0, data=[81, 48]),
   midi.NoteOnEvent(tick=2, channel=0, data=[90, 0]),
   midi.NoteOnEvent(tick=78, channel=0, data=[81, 0]),
   midi.NoteOnEvent(tick=3, channel=0, data=[88, 50]),
   midi.NoteOnEvent(tick=78, channel=0, data=[83, 48]),
   midi.NoteOnEvent(tick=2, channel=0, data=[88, 0]),
   midi.NoteOnEvent(tick=76, channel=0, data=[87, 48]),
   midi.NoteOnEvent(tick=2, channel=0, data=[83, 0]),
   midi.NoteOnEvent(tick=78, channel=0, data=[87, 0]),
   midi.NoteOnEvent(tick=1, channel=0, data=[81, 44]),
   midi.NoteOnEvent(tick=80, channel=0, data=[81, 0]),
   midi.NoteOnEvent(tick=3, channel=0, data=[85, 48]),
   midi.NoteOnEvent(tick=75, channel=0, data=[81, 44]),
   midi.NoteOnEvent(tick=5, channel=0, data=[85, 0]),
   midi.NoteOnEvent(tick=75, channel=0, data=[81, 0]),
   midi.NoteOnEvent(tick=0, channel=0, data=[83, 48]),
   midi.NoteOnEvent(tick=80, channel=0, data=[83, 0]),
   midi.NoteOnEvent(tick=0, channel=0, data=[78, 44]),
   midi.NoteOnEvent(tick=80, channel=0, data=[78, 0]),
   midi.NoteOnEvent(tick=0, channel=0, data=[88, 50]),
   midi.NoteOnEvent(tick=80, channel=0, data=[88, 0]),
   midi.NoteOnEvent(tick=5, channel=0, data=[80, 48]),
   midi.NoteOnEvent(tick=76, channel=0, data=[87, 50]),
   midi.NoteOnEvent(tick=4, channel=0, data=[80, 0]),
   midi.NoteOnEvent(tick=76, channel=0, data=[87, 0]),
   midi.NoteOnEvent(tick=1, channel=0, data=[76, 48]),
   midi.NoteOnEvent(tick=80, channel=0, data=[76, 0]),
   midi.NoteOnEvent(tick=2, channel=0, data=[85, 50]),
   midi.NoteOnEvent(tick=76, channel=0, data=[80, 48]),
   midi.NoteOnEvent(tick=4, channel=0, data=[85, 0]),
   midi.NoteOnEvent(tick=76, channel=0, data=[80, 0]),
   midi.NoteOnEvent(tick=4, channel=0, data=[83, 50]),
   midi.NoteOnEvent(tick=77, channel=0, data=[76, 44]),
   midi.NoteOnEvent(tick=3, channel=0, data=[83, 0]),
   midi.NoteOnEvent(tick=77, channel=0, data=[76, 0]),
   midi.NoteOnEvent(tick=4, channel=0, data=[81, 48]),
   midi.NoteOnEvent(tick=76, channel=0, data=[76, 44]),
   midi.NoteOnEvent(tick=4, channel=0, data=[81, 0]),
   midi.NoteOnEvent(tick=76, channel=0, data=[76, 0]),
   midi.NoteOnEvent(tick=0, channel=0, data=[80, 48]),
   midi.NoteOnEvent(tick=80, channel=0, data=[80, 0]),
   midi.NoteOnEvent(tick=0, channel=0, data=[71, 44]),
   midi.NoteOnEvent(tick=80, channel=0, data=[71, 0]),
   midi.NoteOnEvent(tick=0, channel=0, data=[80, 50]),
   midi.NoteOnEvent(tick=80, channel=0, data=[80, 0]),
   midi.NoteOnEvent(tick=4, channel=0, data=[75, 48]),
   midi.NoteOnEvent(tick=80, channel=0, data=[75, 0]),
   midi.NoteOnEvent(tick=0, channel=0, data=[78, 50]),
   midi.NoteOnEvent(tick=80, channel=0, data=[78, 0]),
   midi.NoteOnEvent(tick=0, channel=0, data=[69, 48]),
   midi.NoteOnEvent(tick=80, channel=0, data=[69, 0]),
   midi.NoteOnEvent(tick=0, channel=0, data=[77, 50]),
   midi.NoteOnEvent(tick=78, channel=0, data=[75, 48]),
   midi.NoteOnEvent(tick=2, channel=0, data=[77, 0]),
   midi.NoteOnEvent(tick=75, channel=0, data=[78, 48]),
   midi.NoteOnEvent(tick=3, channel=0, data=[75, 0]),
   midi.NoteOnEvent(tick=77, channel=0, data=[78, 0]),
   midi.NoteOnEvent(tick=1, channel=0, data=[69, 44]),
   midi.NoteOnEvent(tick=80, channel=0, data=[69, 0]),
   midi.NoteOnEvent(tick=0, channel=0, data=[81, 48]),
   midi.NoteOnEvent(tick=80, channel=0, data=[81, 0]),
   midi.NoteOnEvent(tick=1, channel=0, data=[71, 44]),
   midi.NoteOnEvent(tick=80, channel=0, data=[71, 0]),
   midi.NoteOnEvent(tick=0, channel=0, data=[75, 48]),
   midi.NoteOnEvent(tick=79, channel=0, data=[69, 44]),
   midi.NoteOnEvent(tick=1, channel=0, data=[75, 0]),
   midi.NoteOnEvent(tick=79, channel=0, data=[69, 0]),
   midi.NoteOnEvent(tick=4, channel=0, data=[78, 48]),
   midi.NoteOnEvent(tick=78, channel=0, data=[71, 44]),
   midi.NoteOnEvent(tick=2, channel=0, data=[78, 0]),
   midi.NoteOnEvent(tick=78, channel=0, data=[71, 0]),
   midi.NoteOnEvent(tick=0, channel=0, data=[77, 45]),
   midi.NoteOnEvent(tick=80, channel=0, data=[77, 0]),
   midi.NoteOnEvent(tick=2, channel=0, data=[68, 42]),
   midi.NoteOnEvent(tick=78, channel=0, data=[76, 44]),
   midi.NoteOnEvent(tick=2, channel=0, data=[68, 0]),
   midi.NoteOnEvent(tick=78, channel=0, data=[76, 0]),
   midi.NoteOnEvent(tick=1, channel=0, data=[71, 41]),
   midi.NoteOnEvent(tick=80, channel=0, data=[71, 0]),
   midi.NoteOnEvent(tick=1, channel=0, data=[75, 44]),
   midi.NoteOnEvent(tick=80, channel=0, data=[75, 0]),
   midi.NoteOnEvent(tick=0, channel=0, data=[68, 41]),
   midi.NoteOnEvent(tick=80, channel=0, data=[68, 0]),
   midi.NoteOnEvent(tick=0, channel=0, data=[74, 42]),
   midi.NoteOnEvent(tick=80, channel=0, data=[74, 0]),
   midi.NoteOnEvent(tick=0, channel=0, data=[71, 40]),
   midi.NoteOnEvent(tick=75, channel=0, data=[73, 42]),
   midi.NoteOnEvent(tick=5, channel=0, data=[71, 0]),
   midi.NoteOnEvent(tick=75, channel=0, data=[73, 0]),
   midi.NoteOnEvent(tick=2, channel=0, data=[68, 40]),
   midi.NoteOnEvent(tick=79, channel=0, data=[73, 62]),
   midi.NoteOnEvent(tick=1, channel=0, data=[68, 0]),
   midi.NoteOnEvent(tick=79, channel=0, data=[73, 0]),
   midi.NoteOnEvent(tick=0, channel=0, data=[68, 59]),
   midi.NoteOnEvent(tick=80, channel=0, data=[68, 0]),
   midi.NoteOnEvent(tick=4, channel=0, data=[71, 59]),
   midi.NoteOnEvent(tick=79, channel=0, data=[62, 59]),
   midi.NoteOnEvent(tick=1, channel=0, data=[71, 0]),
   midi.NoteOnEvent(tick=79, channel=0, data=[62, 0]),
   midi.NoteOnEvent(tick=0, channel=0, data=[73, 60]),
   midi.NoteOnEvent(tick=76, channel=0, data=[68, 61]),
   midi.NoteOnEvent(tick=4, channel=0, data=[73, 0]),
   midi.NoteOnEvent(tick=76, channel=0, data=[68, 0]),
   midi.NoteOnEvent(tick=3, channel=0, data=[71, 62]),
   midi.NoteOnEvent(tick=80, channel=0, data=[71, 0]),
   midi.NoteOnEvent(tick=1, channel=0, data=[74, 64]),
   midi.NoteOnEvent(tick=80, channel=0, data=[74, 0]),
   midi.NoteOnEvent(tick=0, channel=0, data=[85, 67]),
   midi.NoteOnEvent(tick=80, channel=0, data=[85, 0]),
   midi.NoteOnEvent(tick=0, channel=0, data=[80, 68]),
   midi.NoteOnEvent(tick=76, channel=0, data=[83, 69]),
   midi.NoteOnEvent(tick=4, channel=0, data=[80, 0]),
   midi.NoteOnEvent(tick=76, channel=0, data=[83, 0]),
   midi.NoteOnEvent(tick=4, channel=0, data=[86, 70]),
   midi.NoteOnEvent(tick=78, channel=0, data=[97, 72]),
   midi.NoteOnEvent(tick=2, channel=0, data=[86, 0]),
   midi.NoteOnEvent(tick=78, channel=0, data=[97, 0]),
   midi.NoteOnEvent(tick=1, channel=0, data=[92, 73]),
   midi.NoteOnEvent(tick=80, channel=0, data=[92, 0]),
   midi.NoteOnEvent(tick=2, channel=0, data=[95, 71]),
   midi.NoteOnEvent(tick=80, channel=0, data=[95, 0]),
   midi.NoteOnEvent(tick=0, channel=0, data=[86, 71]),
   midi.NoteOnEvent(tick=75, channel=0, data=[85, 71]),
   midi.NoteOnEvent(tick=5, channel=0, data=[86, 0]),
   midi.NoteOnEvent(tick=75, channel=0, data=[85, 0]),
   midi.NoteOnEvent(tick=4, channel=0, data=[80, 71]),
   midi.NoteOnEvent(tick=78, channel=0, data=[83, 71]),
   midi.NoteOnEvent(tick=2, channel=0, data=[80, 0]),
   midi.NoteOnEvent(tick=76, channel=0, data=[74, 69]),
   midi.NoteOnEvent(tick=2, channel=0, data=[83, 0]),
   midi.NoteOnEvent(tick=78, channel=0, data=[74, 0]),
   midi.NoteOnEvent(tick=1, channel=0, data=[73, 69]),
   midi.NoteOnEvent(tick=80, channel=0, data=[73, 0]),
   midi.NoteOnEvent(tick=1, channel=0, data=[68, 69]),
   midi.NoteOnEvent(tick=78, channel=0, data=[71, 69]),
   midi.NoteOnEvent(tick=2, channel=0, data=[68, 0]),
   midi.NoteOnEvent(tick=78, channel=0, data=[71, 0]),
   midi.NoteOnEvent(tick=5, channel=0, data=[62, 69]),
   midi.NoteOnEvent(tick=78, channel=0, data=[74, 69]),
   midi.NoteOnEvent(tick=2, channel=0, data=[62, 0]),
   midi.NoteOnEvent(tick=76, channel=0, data=[67, 69]),
   midi.NoteOnEvent(tick=2, channel=0, data=[74, 0]),
   midi.NoteOnEvent(tick=78, channel=0, data=[67, 0]),
   midi.NoteOnEvent(tick=3, channel=0, data=[72, 69]),
   midi.NoteOnEvent(tick=80, channel=0, data=[72, 0]),
   midi.NoteOnEvent(tick=1, channel=0, data=[60, 69]),
   midi.NoteOnEvent(tick=76, channel=0, data=[77, 69]),
   midi.NoteOnEvent(tick=4, channel=0, data=[60, 0]),
   midi.NoteOnEvent(tick=75, channel=0, data=[72, 69]),
   midi.NoteOnEvent(tick=1, channel=0, data=[77, 0]),
   midi.NoteOnEvent(tick=79, channel=0, data=[72, 0]),
   midi.NoteOnEvent(tick=4, channel=0, data=[75, 69]),
   midi.NoteOnEvent(tick=77, channel=0, data=[67, 61]),
   midi.NoteOnEvent(tick=3, channel=0, data=[75, 0]),
   midi.NoteOnEvent(tick=77, channel=0, data=[67, 0]),
   midi.NoteOnEvent(tick=2, channel=0, data=[80, 61]),
   midi.NoteOnEvent(tick=80, channel=0, data=[80, 0]),
   midi.NoteOnEvent(tick=1, channel=0, data=[75, 61]),
   midi.NoteOnEvent(tick=80, channel=0, data=[75, 0]),
   midi.NoteOnEvent(tick=1, channel=0, data=[79, 61]),
   midi.NoteOnEvent(tick=76, channel=0, data=[72, 61]),
   midi.NoteOnEvent(tick=4, channel=0, data=[79, 0]),
   midi.NoteOnEvent(tick=76, channel=0, data=[72, 0]),
   midi.NoteOnEvent(tick=2, channel=0, data=[84, 61]),
   midi.NoteOnEvent(tick=80, channel=0, data=[84, 0]),
   midi.NoteOnEvent(tick=2, channel=0, data=[79, 61]),
   midi.NoteOnEvent(tick=80, channel=0, data=[79, 0]),
   midi.NoteOnEvent(tick=0, channel=0, data=[83, 61]),
   midi.NoteOnEvent(tick=78, channel=0, data=[75, 61]),
   midi.NoteOnEvent(tick=2, channel=0, data=[83, 0]),
   midi.NoteOnEvent(tick=76, channel=0, data=[82, 61]),
   midi.NoteOnEvent(tick=2, channel=0, data=[75, 0]),
   midi.NoteOnEvent(tick=78, channel=0, data=[82, 0]),
   midi.NoteOnEvent(tick=3, channel=0, data=[79, 61]),
   midi.NoteOnEvent(tick=78, channel=0, data=[81, 61]),
   midi.NoteOnEvent(tick=2, channel=0, data=[79, 0]),
   midi.NoteOnEvent(tick=78, channel=0, data=[81, 0]),
   midi.NoteOnEvent(tick=0, channel=0, data=[76, 62]),
   midi.NoteOnEvent(tick=78, channel=0, data=[80, 64]),
   midi.NoteOnEvent(tick=2, channel=0, data=[76, 0]),
   midi.NoteOnEvent(tick=78, channel=0, data=[80, 0]),
   midi.NoteOnEvent(tick=3, channel=0, data=[76, 67]),
   midi.NoteOnEvent(tick=79, channel=0, data=[79, 68]),
   midi.NoteOnEvent(tick=1, channel=0, data=[76, 0]),
   midi.NoteOnEvent(tick=77, channel=0, data=[72, 69]),
   midi.NoteOnEvent(tick=2, channel=0, data=[79, 0]),
   midi.NoteOnEvent(tick=78, channel=0, data=[72, 0]),
   midi.NoteOnEvent(tick=1, channel=0, data=[77, 66]),
   midi.NoteOnEvent(tick=80, channel=0, data=[77, 0]),
   midi.NoteOnEvent(tick=4, channel=0, data=[72, 59]),
   midi.NoteOnEvent(tick=76, channel=0, data=[75, 59]),
   midi.NoteOnEvent(tick=4, channel=0, data=[72, 0]),
   midi.NoteOnEvent(tick=76, channel=0, data=[75, 0]),
   midi.NoteOnEvent(tick=4, channel=0, data=[66, 59]),
   midi.NoteOnEvent(tick=75, channel=0, data=[77, 60]),
   midi.NoteOnEvent(tick=5, channel=0, data=[66, 0]),
   midi.NoteOnEvent(tick=75, channel=0, data=[77, 0]),
   midi.NoteOnEvent(tick=5, channel=0, data=[72, 61]),
   midi.NoteOnEvent(tick=80, channel=0, data=[72, 0]),
   midi.NoteOnEvent(tick=0, channel=0, data=[75, 62]),
   midi.NoteOnEvent(tick=77, channel=0, data=[78, 64]),
   midi.NoteOnEvent(tick=3, channel=0, data=[75, 0]),
   midi.NoteOnEvent(tick=76, channel=0, data=[89, 67]),
   midi.NoteOnEvent(tick=1, channel=0, data=[78, 0]),
   midi.NoteOnEvent(tick=79, channel=0, data=[89, 0]),
   midi.NoteOnEvent(tick=2, channel=0, data=[84, 69]),
   midi.NoteOnEvent(tick=80, channel=0, data=[84, 0]),
   midi.NoteOnEvent(tick=0, channel=0, data=[87, 70]),
   midi.NoteOnEvent(tick=80, channel=0, data=[87, 0]),
   midi.NoteOnEvent(tick=0, channel=0, data=[90, 72]),
   midi.NoteOnEvent(tick=79, channel=0, data=[101, 70]),
   midi.NoteOnEvent(tick=1, channel=0, data=[90, 0]),
   midi.NoteOnEvent(tick=77, channel=0, data=[96, 61]),
   midi.NoteOnEvent(tick=2, channel=0, data=[101, 0]),
   midi.NoteOnEvent(tick=78, channel=0, data=[96, 0]),
   midi.NoteOnEvent(tick=5, channel=0, data=[99, 69]),
   midi.NoteOnEvent(tick=75, channel=0, data=[90, 69]),
   midi.NoteOnEvent(tick=5, channel=0, data=[99, 0]),
   midi.NoteOnEvent(tick=75, channel=0, data=[90, 0]),
   midi.NoteOnEvent(tick=1, channel=0, data=[89, 69]),
   midi.NoteOnEvent(tick=80, channel=0, data=[89, 0]),
   midi.NoteOnEvent(tick=0, channel=0, data=[84, 69]),
   midi.NoteOnEvent(tick=80, channel=0, data=[84, 0]),
   midi.NoteOnEvent(tick=3, channel=0, data=[87, 69]),
   midi.NoteOnEvent(tick=79, channel=0, data=[78, 69]),
   midi.NoteOnEvent(tick=1, channel=0, data=[87, 0]),
   midi.NoteOnEvent(tick=79, channel=0, data=[78, 0]),
   midi.NoteOnEvent(tick=2, channel=0, data=[77, 69]),
   midi.NoteOnEvent(tick=78, channel=0, data=[72, 69]),
   midi.NoteOnEvent(tick=2, channel=0, data=[77, 0]),
   midi.NoteOnEvent(tick=78, channel=0, data=[72, 0]),
   midi.NoteOnEvent(tick=1, channel=0, data=[75, 69]),
   midi.NoteOnEvent(tick=78, channel=0, data=[66, 69]),
   midi.NoteOnEvent(tick=2, channel=0, data=[75, 0]),
   midi.NoteOnEvent(tick=78, channel=0, data=[66, 0]),
   midi.NoteOnEvent(tick=2, channel=0, data=[78, 69]),
   midi.NoteOnEvent(tick=80, channel=0, data=[78, 0]),
   midi.NoteOnEvent(tick=0, channel=0, data=[71, 69]),
   midi.NoteOnEvent(tick=76, channel=0, data=[76, 69]),
   midi.NoteOnEvent(tick=4, channel=0, data=[71, 0]),
   midi.NoteOnEvent(tick=76, channel=0, data=[76, 0]),
   midi.NoteOnEvent(tick=3, channel=0, data=[64, 69]),
   midi.NoteOnEvent(tick=77, channel=0, data=[81, 69]),
   midi.NoteOnEvent(tick=3, channel=0, data=[64, 0]),
   midi.NoteOnEvent(tick=77, channel=0, data=[81, 0]),
   midi.NoteOnEvent(tick=0, channel=0, data=[76, 69]),
   midi.NoteOnEvent(tick=80, channel=0, data=[76, 0]),
   midi.NoteOnEvent(tick=4, channel=0, data=[79, 69]),
   midi.NoteOnEvent(tick=78, channel=0, data=[71, 61]),
   midi.NoteOnEvent(tick=2, channel=0, data=[79, 0]),
   midi.NoteOnEvent(tick=78, channel=0, data=[71, 0]),
   midi.NoteOnEvent(tick=3, channel=0, data=[84, 61]),
   midi.NoteOnEvent(tick=77, channel=0, data=[79, 61]),
   midi.NoteOnEvent(tick=3, channel=0, data=[84, 0]),
   midi.NoteOnEvent(tick=77, channel=0, data=[79, 0]),
   midi.NoteOnEvent(tick=2, channel=0, data=[83, 61]),
   midi.NoteOnEvent(tick=76, channel=0, data=[76, 61]),
   midi.NoteOnEvent(tick=4, channel=0, data=[83, 0]),
   midi.NoteOnEvent(tick=76, channel=0, data=[76, 0]),
   midi.NoteOnEvent(tick=3, channel=0, data=[88, 66]),
   midi.NoteOnEvent(tick=77, channel=0, data=[83, 66]),
   midi.NoteOnEvent(tick=3, channel=0, data=[88, 0]),
   midi.NoteOnEvent(tick=77, channel=0, data=[83, 0]),
   midi.NoteOnEvent(tick=4, channel=0, data=[87, 67]),
   midi.NoteOnEvent(tick=80, channel=0, data=[87, 0]),
   midi.NoteOnEvent(tick=1, channel=0, data=[79, 68]),
   midi.NoteOnEvent(tick=78, channel=0, data=[86, 69]),
   midi.NoteOnEvent(tick=2, channel=0, data=[79, 0]),
   midi.NoteOnEvent(tick=78, channel=0, data=[86, 0]),
   midi.NoteOnEvent(tick=1, channel=0, data=[83, 69]),
   midi.NoteOnEvent(tick=77, channel=0, data=[85, 70]),
   midi.NoteOnEvent(tick=3, channel=0, data=[83, 0]),
   midi.NoteOnEvent(tick=77, channel=0, data=[85, 0]),
   midi.NoteOnEvent(tick=3, channel=0, data=[79, 71]),
   midi.NoteOnEvent(tick=79, channel=0, data=[84, 72]),
   midi.NoteOnEvent(tick=1, channel=0, data=[79, 0]),
   midi.NoteOnEvent(tick=79, channel=0, data=[84, 0]),
   midi.NoteOnEvent(tick=0, channel=0, data=[79, 73]),
   midi.NoteOnEvent(tick=78, channel=0, data=[83, 73]),
   midi.NoteOnEvent(tick=2, channel=0, data=[79, 0]),
   midi.NoteOnEvent(tick=78, channel=0, data=[83, 0]),
   midi.NoteOnEvent(tick=4, channel=0, data=[76, 75]),
   midi.NoteOnEvent(tick=77, channel=0, data=[82, 68]),
   midi.NoteOnEvent(tick=3, channel=0, data=[76, 0]),
   midi.NoteOnEvent(tick=77, channel=0, data=[82, 0]),
   midi.NoteOnEvent(tick=2, channel=0, data=[76, 64]),
   midi.NoteOnEvent(tick=78, channel=0, data=[81, 69]),
   midi.NoteOnEvent(tick=2, channel=0, data=[76, 0]),
   midi.NoteOnEvent(tick=76, channel=0, data=[70, 64]),
   midi.NoteOnEvent(tick=2, channel=0, data=[81, 0]),
   midi.NoteOnEvent(tick=78, channel=0, data=[70, 0]),
   midi.NoteOnEvent(tick=2, channel=0, data=[80, 69]),
   midi.NoteOnEvent(tick=80, channel=0, data=[80, 0]),
   midi.NoteOnEvent(tick=1, channel=0, data=[76, 64]),
   midi.NoteOnEvent(tick=79, channel=0, data=[79, 69]),
   midi.NoteOnEvent(tick=1, channel=0, data=[76, 0]),
   midi.NoteOnEvent(tick=79, channel=0, data=[79, 0]),
   midi.NoteOnEvent(tick=0, channel=0, data=[70, 64]),
   midi.NoteOnEvent(tick=78, channel=0, data=[81, 69]),
   midi.NoteOnEvent(tick=2, channel=0, data=[70, 0]),
   midi.NoteOnEvent(tick=78, channel=0, data=[81, 0]),
   midi.NoteOnEvent(tick=1, channel=0, data=[76, 64]),
   midi.NoteOnEvent(tick=80, channel=0, data=[76, 0]),
   midi.NoteOnEvent(tick=2, channel=0, data=[79, 69]),
   midi.NoteOnEvent(tick=80, channel=0, data=[79, 0]),
   midi.NoteOnEvent(tick=2, channel=0, data=[70, 64]),
   midi.NoteOnEvent(tick=77, channel=0, data=[79, 69]),
   midi.NoteOnEvent(tick=3, channel=0, data=[70, 0]),
   midi.NoteOnEvent(tick=77, channel=0, data=[79, 0]),
   midi.NoteOnEvent(tick=3, channel=0, data=[72, 64]),
   midi.NoteOnEvent(tick=77, channel=0, data=[78, 69]),
   midi.NoteOnEvent(tick=3, channel=0, data=[72, 0]),
   midi.NoteOnEvent(tick=77, channel=0, data=[78, 0]),
   midi.NoteOnEvent(tick=1, channel=0, data=[69, 64]),
   midi.NoteOnEvent(tick=77, channel=0, data=[77, 69]),
   midi.NoteOnEvent(tick=3, channel=0, data=[69, 0]),
   midi.NoteOnEvent(tick=77, channel=0, data=[77, 0]),
   midi.NoteOnEvent(tick=5, channel=0, data=[72, 64]),
   midi.NoteOnEvent(tick=80, channel=0, data=[72, 0]),
   midi.NoteOnEvent(tick=0, channel=0, data=[78, 69]),
   midi.NoteOnEvent(tick=77, channel=0, data=[69, 64]),
   midi.NoteOnEvent(tick=3, channel=0, data=[78, 0]),
   midi.NoteOnEvent(tick=77, channel=0, data=[69, 0]),
   midi.NoteOnEvent(tick=2, channel=0, data=[79, 69]),
   midi.NoteOnEvent(tick=77, channel=0, data=[71, 64]),
   midi.NoteOnEvent(tick=3, channel=0, data=[79, 0]),
   midi.NoteOnEvent(tick=77, channel=0, data=[71, 0]),
   midi.NoteOnEvent(tick=2, channel=0, data=[78, 69]),
   midi.NoteOnEvent(tick=79, channel=0, data=[69, 64]),
   midi.NoteOnEvent(tick=1, channel=0, data=[78, 0]),
   midi.NoteOnEvent(tick=79, channel=0, data=[69, 0]),
   midi.NoteOnEvent(tick=1, channel=0, data=[78, 69]),
   midi.NoteOnEvent(tick=77, channel=0, data=[71, 64]),
   midi.NoteOnEvent(tick=3, channel=0, data=[78, 0]),
   midi.NoteOnEvent(tick=77, channel=0, data=[71, 0]),
   midi.NoteOnEvent(tick=2, channel=0, data=[77, 69]),
   midi.NoteOnEvent(tick=79, channel=0, data=[67, 64]),
   midi.NoteOnEvent(tick=1, channel=0, data=[77, 0]),
   midi.NoteOnEvent(tick=79, channel=0, data=[67, 0]),
   midi.NoteOnEvent(tick=4, channel=0, data=[76, 69]),
   midi.NoteOnEvent(tick=80, channel=0, data=[76, 0]),
   midi.NoteOnEvent(tick=0, channel=0, data=[71, 64]),
   midi.NoteOnEvent(tick=80, channel=0, data=[71, 0]),
   midi.NoteOnEvent(tick=0, channel=0, data=[76, 69]),
   midi.NoteOnEvent(tick=78, channel=0, data=[67, 64]),
   midi.NoteOnEvent(tick=2, channel=0, data=[76, 0]),
   midi.NoteOnEvent(tick=78, channel=0, data=[67, 0]),
   midi.NoteOnEvent(tick=0, channel=0, data=[77, 69]),
   midi.NoteOnEvent(tick=77, channel=0, data=[69, 64]),
   midi.NoteOnEvent(tick=3, channel=0, data=[77, 0]),
   midi.NoteOnEvent(tick=77, channel=0, data=[69, 0]),
   midi.NoteOnEvent(tick=2, channel=0, data=[76, 69]),
   midi.NoteOnEvent(tick=79, channel=0, data=[67, 64]),
   midi.NoteOnEvent(tick=1, channel=0, data=[76, 0]),
   midi.NoteOnEvent(tick=79, channel=0, data=[67, 0]),
   midi.NoteOnEvent(tick=1, channel=0, data=[76, 69]),
   midi.NoteOnEvent(tick=78, channel=0, data=[69, 64]),
   midi.NoteOnEvent(tick=2, channel=0, data=[76, 0]),
   midi.NoteOnEvent(tick=78, channel=0, data=[69, 0]),
   midi.NoteOnEvent(tick=5, channel=0, data=[73, 69]),
   midi.NoteOnEvent(tick=76, channel=0, data=[65, 64]),
   midi.NoteOnEvent(tick=4, channel=0, data=[73, 0]),
   midi.NoteOnEvent(tick=76, channel=0, data=[65, 0]),
   midi.NoteOnEvent(tick=3, channel=0, data=[74, 69]),
   midi.NoteOnEvent(tick=80, channel=0, data=[74, 0]),
   midi.NoteOnEvent(tick=1, channel=0, data=[69, 64]),
   midi.NoteOnEvent(tick=78, channel=0, data=[74, 69]),
   midi.NoteOnEvent(tick=2, channel=0, data=[69, 0]),
   midi.NoteOnEvent(tick=76, channel=0, data=[64, 64]),
   midi.NoteOnEvent(tick=2, channel=0, data=[74, 0]),
   midi.NoteOnEvent(tick=78, channel=0, data=[64, 0]),
   midi.NoteOnEvent(tick=0, channel=0, data=[71, 69]),
   midi.NoteOnEvent(tick=80, channel=0, data=[71, 0]),
   midi.NoteOnEvent(tick=2, channel=0, data=[69, 64]),
   midi.NoteOnEvent(tick=80, channel=0, data=[69, 0]),
   midi.NoteOnEvent(tick=2, channel=0, data=[72, 69]),
   midi.NoteOnEvent(tick=76, channel=0, data=[64, 64]),
   midi.NoteOnEvent(tick=4, channel=0, data=[72, 0]),
   midi.NoteOnEvent(tick=76, channel=0, data=[64, 0]),
   midi.NoteOnEvent(tick=0, channel=0, data=[72, 70]),
   midi.NoteOnEvent(tick=80, channel=0, data=[72, 0]),
   midi.NoteOnEvent(tick=3, channel=0, data=[69, 70]),
   midi.NoteOnEvent(tick=80, channel=0, data=[69, 0]),
   midi.NoteOnEvent(tick=1, channel=0, data=[71, 70]),
   midi.NoteOnEvent(tick=76, channel=0, data=[65, 70]),
   midi.NoteOnEvent(tick=4, channel=0, data=[71, 0]),
   midi.NoteOnEvent(tick=76, channel=0, data=[65, 0]),
   midi.NoteOnEvent(tick=0, channel=0, data=[72, 70]),
   midi.NoteOnEvent(tick=80, channel=0, data=[72, 0]),
   midi.NoteOnEvent(tick=1, channel=0, data=[69, 70]),
   midi.NoteOnEvent(tick=80, channel=0, data=[69, 0]),
   midi.NoteOnEvent(tick=3, channel=0, data=[71, 70]),
   midi.NoteOnEvent(tick=78, channel=0, data=[77, 71]),
   midi.NoteOnEvent(tick=2, channel=0, data=[71, 0]),
   midi.NoteOnEvent(tick=75, channel=0, data=[84, 72]),
   midi.NoteOnEvent(tick=3, channel=0, data=[77, 0]),
   midi.NoteOnEvent(tick=77, channel=0, data=[84, 0]),
   midi.NoteOnEvent(tick=5, channel=0, data=[81, 73]),
   midi.NoteOnEvent(tick=75, channel=0, data=[83, 75]),
   midi.NoteOnEvent(tick=5, channel=0, data=[81, 0]),
   midi.NoteOnEvent(tick=75, channel=0, data=[83, 0]),
   midi.NoteOnEvent(tick=3, channel=0, data=[89, 77]),
   midi.NoteOnEvent(tick=78, channel=0, data=[96, 77]),
   midi.NoteOnEvent(tick=2, channel=0, data=[89, 0]),
   midi.NoteOnEvent(tick=78, channel=0, data=[96, 0]),
   midi.NoteOnEvent(tick=0, channel=0, data=[93, 77]),
   midi.NoteOnEvent(tick=79, channel=0, data=[95, 75]),
   midi.NoteOnEvent(tick=1, channel=0, data=[93, 0]),
   midi.NoteOnEvent(tick=79, channel=0, data=[95, 0]),
   midi.NoteOnEvent(tick=1, channel=0, data=[89, 73]),
   midi.NoteOnEvent(tick=80, channel=0, data=[89, 0]),
   midi.NoteOnEvent(tick=1, channel=0, data=[84, 73]),
   midi.NoteOnEvent(tick=80, channel=0, data=[84, 0]),
   midi.NoteOnEvent(tick=3, channel=0, data=[81, 72]),
   midi.NoteOnEvent(tick=75, channel=0, data=[83, 70]),
   midi.NoteOnEvent(tick=5, channel=0, data=[81, 0]),
   midi.NoteOnEvent(tick=75, channel=0, data=[83, 0]),
   midi.NoteOnEvent(tick=0, channel=0, data=[77, 70]),
   midi.NoteOnEvent(tick=80, channel=0, data=[77, 0]),
   midi.NoteOnEvent(tick=2, channel=0, data=[72, 70]),
   midi.NoteOnEvent(tick=79, channel=0, data=[69, 70]),
   midi.NoteOnEvent(tick=1, channel=0, data=[72, 0]),
   midi.NoteOnEvent(tick=79, channel=0, data=[69, 0]),
   midi.NoteOnEvent(tick=2, channel=0, data=[71, 70]),
   midi.NoteOnEvent(tick=79, channel=0, data=[65, 70]),
   midi.NoteOnEvent(tick=1, channel=0, data=[71, 0]),
   midi.NoteOnEvent(tick=79, channel=0, data=[65, 0]),
   midi.NoteOnEvent(tick=0, channel=0, data=[71, 70]),
   midi.NoteOnEvent(tick=80, channel=0, data=[71, 0]),
   midi.NoteOnEvent(tick=3, channel=0, data=[66, 70]),
   midi.NoteOnEvent(tick=78, channel=0, data=[69, 70]),
   midi.NoteOnEvent(tick=2, channel=0, data=[66, 0]),
   midi.NoteOnEvent(tick=76, channel=0, data=[60, 70]),
   midi.NoteOnEvent(tick=2, channel=0, data=[69, 0]),
   midi.NoteOnEvent(tick=78, channel=0, data=[60, 0]),
   midi.NoteOnEvent(tick=1, channel=0, data=[71, 70]),
   midi.NoteOnEvent(tick=80, channel=0, data=[71, 0]),
   midi.NoteOnEvent(tick=0, channel=0, data=[66, 70]),
   midi.NoteOnEvent(tick=80, channel=0, data=[66, 0]),
   midi.NoteOnEvent(tick=3, channel=0, data=[69, 70]),
   midi.NoteOnEvent(tick=78, channel=0, data=[72, 71]),
   midi.NoteOnEvent(tick=2, channel=0, data=[69, 0]),
   midi.NoteOnEvent(tick=78, channel=0, data=[72, 0]),
   midi.NoteOnEvent(tick=2, channel=0, data=[83, 72]),
   midi.NoteOnEvent(tick=79, channel=0, data=[78, 73]),
   midi.NoteOnEvent(tick=1, channel=0, data=[83, 0]),
   midi.NoteOnEvent(tick=79, channel=0, data=[78, 0]),
   midi.NoteOnEvent(tick=0, channel=0, data=[81, 75]),
   midi.NoteOnEvent(tick=79, channel=0, data=[84, 77]),
   midi.NoteOnEvent(tick=1, channel=0, data=[81, 0]),
   midi.NoteOnEvent(tick=79, channel=0, data=[84, 0]),
   midi.NoteOnEvent(tick=2, channel=0, data=[95, 79]),
   midi.NoteOnEvent(tick=76, channel=0, data=[90, 78]),
   midi.NoteOnEvent(tick=4, channel=0, data=[95, 0]),
   midi.NoteOnEvent(tick=76, channel=0, data=[90, 0]),
   midi.NoteOnEvent(tick=4, channel=0, data=[93, 77]),
   midi.NoteOnEvent(tick=76, channel=0, data=[84, 75]),
   midi.NoteOnEvent(tick=4, channel=0, data=[93, 0]),
   midi.NoteOnEvent(tick=76, channel=0, data=[84, 0]),
   midi.NoteOnEvent(tick=4, channel=0, data=[83, 72]),
   midi.NoteOnEvent(tick=79, channel=0, data=[78, 71]),
   midi.NoteOnEvent(tick=1, channel=0, data=[83, 0]),
   midi.NoteOnEvent(tick=75, channel=0, data=[81, 70]),
   midi.NoteOnEvent(tick=4, channel=0, data=[78, 0]),
   midi.NoteOnEvent(tick=76, channel=0, data=[81, 0]),
   midi.NoteOnEvent(tick=4, channel=0, data=[72, 70]),
   midi.NoteOnEvent(tick=78, channel=0, data=[71, 70]),
   midi.NoteOnEvent(tick=2, channel=0, data=[72, 0]),
   midi.NoteOnEvent(tick=77, channel=0, data=[66, 70]),
   midi.NoteOnEvent(tick=1, channel=0, data=[71, 0]),
   midi.NoteOnEvent(tick=78, channel=0, data=[69, 70]),
   midi.NoteOnEvent(tick=1, channel=0, data=[66, 0]),
   midi.NoteOnEvent(tick=79, channel=0, data=[69, 0]),
   midi.NoteOnEvent(tick=0, channel=0, data=[60, 70]),
   midi.NoteOnEvent(tick=80, channel=0, data=[60, 0]),
   midi.NoteOnEvent(tick=2, channel=0, data=[69, 59]),
   midi.NoteOnEvent(tick=80, channel=0, data=[69, 0]),
   midi.NoteOnEvent(tick=3, channel=0, data=[64, 59]),
   midi.NoteOnEvent(tick=75, channel=0, data=[68, 59]),
   midi.NoteOnEvent(tick=5, channel=0, data=[64, 0]),
   midi.NoteOnEvent(tick=75, channel=0, data=[68, 0]),
   midi.NoteOnEvent(tick=0, channel=0, data=[71, 60]),
   midi.NoteOnEvent(tick=80, channel=0, data=[71, 0]),
   midi.NoteOnEvent(tick=1, channel=0, data=[81, 60]),
   midi.NoteOnEvent(tick=80, channel=0, data=[81, 0]),
   midi.NoteOnEvent(tick=3, channel=0, data=[76, 61]),
   midi.NoteOnEvent(tick=80, channel=0, data=[76, 0]),
   midi.NoteOnEvent(tick=0, channel=0, data=[80, 62]),
   midi.NoteOnEvent(tick=80, channel=0, data=[80, 0]),
   midi.NoteOnEvent(tick=0, channel=0, data=[83, 62]),
   midi.NoteOnEvent(tick=79, channel=0, data=[93, 63]),
   midi.NoteOnEvent(tick=1, channel=0, data=[83, 0]),
   midi.NoteOnEvent(tick=77, channel=0, data=[88, 63]),
   midi.NoteOnEvent(tick=2, channel=0, data=[93, 0]),
   midi.NoteOnEvent(tick=78, channel=0, data=[88, 0]),
   midi.NoteOnEvent(tick=3, channel=0, data=[92, 64]),
   midi.NoteOnEvent(tick=80, channel=0, data=[92, 0]),
   midi.NoteOnEvent(tick=1, channel=0, data=[83, 63]),
   midi.NoteOnEvent(tick=80, channel=0, data=[83, 0]),
   midi.NoteOnEvent(tick=0, channel=0, data=[92, 63]),
   midi.NoteOnEvent(tick=76, channel=0, data=[86, 63]),
   midi.NoteOnEvent(tick=4, channel=0, data=[92, 0]),
   midi.NoteOnEvent(tick=76, channel=0, data=[86, 0]),
   midi.NoteOnEvent(tick=1, channel=0, data=[90, 63]),
   midi.NoteOnEvent(tick=78, channel=0, data=[83, 63]),
   midi.NoteOnEvent(tick=2, channel=0, data=[90, 0]),
   midi.NoteOnEvent(tick=78, channel=0, data=[83, 0]),
   midi.NoteOnEvent(tick=0, channel=0, data=[80, 62]),
   midi.NoteOnEvent(tick=80, channel=0, data=[80, 0]),
   midi.NoteOnEvent(tick=0, channel=0, data=[74, 62]),
   midi.NoteOnEvent(tick=80, channel=0, data=[74, 0]),
   midi.NoteOnEvent(tick=2, channel=0, data=[78, 62]),
   midi.NoteOnEvent(tick=80, channel=0, data=[78, 0]),
   midi.NoteOnEvent(tick=2, channel=0, data=[71, 61]),
   midi.NoteOnEvent(tick=78, channel=0, data=[68, 61]),
   midi.NoteOnEvent(tick=2, channel=0, data=[71, 0]),
   midi.NoteOnEvent(tick=77, channel=0, data=[62, 61]),
   midi.NoteOnEvent(tick=1, channel=0, data=[68, 0]),
   midi.NoteOnEvent(tick=79, channel=0, data=[62, 0]),
   midi.NoteOnEvent(tick=0, channel=0, data=[66, 61]),
   midi.NoteOnEvent(tick=80, channel=0, data=[66, 0]),
   midi.NoteOnEvent(tick=0, channel=0, data=[59, 61]),
   midi.NoteOnEvent(tick=80, channel=0, data=[59, 0]),
   midi.NoteOnEvent(tick=3, channel=0, data=[66, 60]),
   midi.NoteOnEvent(tick=76, channel=0, data=[61, 59]),
   midi.NoteOnEvent(tick=4, channel=0, data=[66, 0]),
   midi.NoteOnEvent(tick=76, channel=0, data=[61, 0]),
   midi.NoteOnEvent(tick=0, channel=0, data=[64, 59]),
   midi.NoteOnEvent(tick=80, channel=0, data=[64, 0]),
   midi.NoteOnEvent(tick=3, channel=0, data=[68, 60]),
   midi.NoteOnEvent(tick=79, channel=0, data=[78, 60]),
   midi.NoteOnEvent(tick=1, channel=0, data=[68, 0]),
   midi.NoteOnEvent(tick=79, channel=0, data=[78, 0]),
   midi.NoteOnEvent(tick=2, channel=0, data=[73, 61]),
   midi.NoteOnEvent(tick=76, channel=0, data=[76, 62]),
   midi.NoteOnEvent(tick=4, channel=0, data=[73, 0]),
   midi.NoteOnEvent(tick=76, channel=0, data=[76, 0]),
   midi.NoteOnEvent(tick=5, channel=0, data=[80, 66]),
   midi.NoteOnEvent(tick=75, channel=0, data=[90, 66]),
   midi.NoteOnEvent(tick=5, channel=0, data=[80, 0]),
   midi.NoteOnEvent(tick=75, channel=0, data=[90, 0]),
   midi.NoteOnEvent(tick=0, channel=0, data=[85, 66]),
   midi.NoteOnEvent(tick=80, channel=0, data=[85, 0]),
   midi.NoteOnEvent(tick=1, channel=0, data=[88, 66]),
   midi.NoteOnEvent(tick=80, channel=0, data=[88, 0]),
   midi.NoteOnEvent(tick=3, channel=0, data=[80, 66]),
   midi.NoteOnEvent(tick=77, channel=0, data=[88, 66]),
   midi.NoteOnEvent(tick=3, channel=0, data=[80, 0]),
   midi.NoteOnEvent(tick=77, channel=0, data=[88, 0]),
   midi.NoteOnEvent(tick=2, channel=0, data=[83, 64]),
   midi.NoteOnEvent(tick=79, channel=0, data=[86, 64]),
   midi.NoteOnEvent(tick=1, channel=0, data=[83, 0]),
   midi.NoteOnEvent(tick=79, channel=0, data=[86, 0]),
   midi.NoteOnEvent(tick=1, channel=0, data=[78, 63]),
   midi.NoteOnEvent(tick=80, channel=0, data=[78, 0]),
   midi.NoteOnEvent(tick=0, channel=0, data=[76, 63]),
   midi.NoteOnEvent(tick=80, channel=0, data=[76, 0]),
   midi.NoteOnEvent(tick=2, channel=0, data=[71, 62]),
   midi.NoteOnEvent(tick=80, channel=0, data=[71, 0]),
   midi.NoteOnEvent(tick=0, channel=0, data=[74, 62]),
   midi.NoteOnEvent(tick=80, channel=0, data=[74, 0]),
   midi.NoteOnEvent(tick=0, channel=0, data=[66, 67]),
   midi.NoteOnEvent(tick=75, channel=0, data=[64, 64]),
   midi.NoteOnEvent(tick=5, channel=0, data=[66, 0]),
   midi.NoteOnEvent(tick=75, channel=0, data=[64, 0]),
   midi.NoteOnEvent(tick=0, channel=0, data=[59, 62]),
   midi.NoteOnEvent(tick=80, channel=0, data=[59, 0]),
   midi.NoteOnEvent(tick=3, channel=0, data=[62, 62]),
   midi.NoteOnEvent(tick=80, channel=0, data=[62, 0]),
   midi.NoteOnEvent(tick=1, channel=0, data=[54, 61]),
   midi.NoteOnEvent(tick=80, channel=0, data=[54, 0]),
   midi.NoteOnEvent(tick=1, channel=0, data=[61, 71]),
   midi.NoteOnEvent(tick=75, channel=0, data=[56, 66]),
   midi.NoteOnEvent(tick=5, channel=0, data=[61, 0]),
   midi.NoteOnEvent(tick=75, channel=0, data=[56, 0]),
   midi.NoteOnEvent(tick=5, channel=0, data=[59, 71]),
   midi.NoteOnEvent(tick=79, channel=0, data=[53, 67]),
   midi.NoteOnEvent(tick=1, channel=0, data=[59, 0]),
   midi.NoteOnEvent(tick=77, channel=0, data=[64, 71]),
   midi.NoteOnEvent(tick=2, channel=0, data=[53, 0]),
   midi.NoteOnEvent(tick=78, channel=0, data=[64, 0]),
   midi.NoteOnEvent(tick=1, channel=0, data=[59, 68]),
   midi.NoteOnEvent(tick=80, channel=0, data=[59, 0]),
   midi.NoteOnEvent(tick=1, channel=0, data=[62, 71]),
   midi.NoteOnEvent(tick=78, channel=0, data=[56, 66]),
   midi.NoteOnEvent(tick=2, channel=0, data=[62, 0]),
   midi.NoteOnEvent(tick=77, channel=0, data=[67, 71]),
   midi.NoteOnEvent(tick=1, channel=0, data=[56, 0]),
   midi.NoteOnEvent(tick=79, channel=0, data=[67, 0]),
   midi.NoteOnEvent(tick=4, channel=0, data=[62, 68]),
   midi.NoteOnEvent(tick=80, channel=0, data=[62, 0]),
   midi.NoteOnEvent(tick=0, channel=0, data=[65, 71]),
   midi.NoteOnEvent(tick=79, channel=0, data=[59, 68]),
   midi.NoteOnEvent(tick=1, channel=0, data=[65, 0]),
   midi.NoteOnEvent(tick=78, channel=0, data=[69, 71]),
   midi.NoteOnEvent(tick=1, channel=0, data=[59, 0]),
   midi.NoteOnEvent(tick=77, channel=0, data=[65, 71]),
   midi.NoteOnEvent(tick=2, channel=0, data=[69, 0]),
   midi.NoteOnEvent(tick=77, channel=0, data=[68, 71]),
   midi.NoteOnEvent(tick=1, channel=0, data=[65, 0]),
   midi.NoteOnEvent(tick=79, channel=0, data=[68, 0]),
   midi.NoteOnEvent(tick=1, channel=0, data=[62, 71]),
   midi.NoteOnEvent(tick=80, channel=0, data=[62, 0]),
   midi.NoteOnEvent(tick=2, channel=0, data=[72, 71]),
   midi.NoteOnEvent(tick=79, channel=0, data=[68, 71]),
   midi.NoteOnEvent(tick=1, channel=0, data=[72, 0]),
   midi.NoteOnEvent(tick=79, channel=0, data=[68, 0]),
   midi.NoteOnEvent(tick=0, channel=0, data=[71, 71]),
   midi.NoteOnEvent(tick=79, channel=0, data=[65, 71]),
   midi.NoteOnEvent(tick=1, channel=0, data=[71, 0]),
   midi.NoteOnEvent(tick=79, channel=0, data=[65, 0]),
   midi.NoteOnEvent(tick=1, channel=0, data=[76, 71]),
   midi.NoteOnEvent(tick=80, channel=0, data=[76, 0]),
   midi.NoteOnEvent(tick=2, channel=0, data=[71, 71]),
   midi.NoteOnEvent(tick=80, channel=0, data=[71, 0]),
   midi.NoteOnEvent(tick=1, channel=0, data=[74, 71]),
   midi.NoteOnEvent(tick=79, channel=0, data=[68, 71]),
   midi.NoteOnEvent(tick=1, channel=0, data=[74, 0]),
   midi.NoteOnEvent(tick=79, channel=0, data=[68, 0]),
   midi.NoteOnEvent(tick=1, channel=0, data=[79, 71]),
   midi.NoteOnEvent(tick=76, channel=0, data=[74, 71]),
   midi.NoteOnEvent(tick=4, channel=0, data=[79, 0]),
   midi.NoteOnEvent(tick=76, channel=0, data=[74, 0]),
   midi.NoteOnEvent(tick=2, channel=0, data=[77, 73]),
   midi.NoteOnEvent(tick=78, channel=0, data=[71, 75]),
   midi.NoteOnEvent(tick=2, channel=0, data=[77, 0]),
   midi.NoteOnEvent(tick=78, channel=0, data=[71, 0]),
   midi.NoteOnEvent(tick=4, channel=0, data=[81, 77]),
   midi.NoteOnEvent(tick=77, channel=0, data=[77, 77]),
   midi.NoteOnEvent(tick=3, channel=0, data=[81, 0]),
   midi.NoteOnEvent(tick=76, channel=0, data=[80, 77]),
   midi.NoteOnEvent(tick=1, channel=0, data=[77, 0]),
   midi.NoteOnEvent(tick=79, channel=0, data=[80, 0]),
   midi.NoteOnEvent(tick=2, channel=0, data=[74, 78]),
   midi.NoteOnEvent(tick=80, channel=0, data=[74, 0]),
   midi.NoteOnEvent(tick=0, channel=0, data=[84, 78]),
   midi.NoteOnEvent(tick=79, channel=0, data=[80, 78]),
   midi.NoteOnEvent(tick=1, channel=0, data=[84, 0]),
   midi.NoteOnEvent(tick=79, channel=0, data=[80, 0]),
   midi.NoteOnEvent(tick=0, channel=0, data=[83, 79]),
   midi.NoteOnEvent(tick=79, channel=0, data=[77, 79]),
   midi.NoteOnEvent(tick=1, channel=0, data=[83, 0]),
   midi.NoteOnEvent(tick=79, channel=0, data=[77, 0]),
   midi.NoteOnEvent(tick=0, channel=0, data=[88, 77]),
   midi.NoteOnEvent(tick=80, channel=0, data=[88, 0]),
   midi.NoteOnEvent(tick=0, channel=0, data=[83, 77]),
   midi.NoteOnEvent(tick=80, channel=0, data=[83, 0]),
   midi.NoteOnEvent(tick=4, channel=0, data=[86, 77]),
   midi.NoteOnEvent(tick=79, channel=0, data=[80, 77]),
   midi.NoteOnEvent(tick=1, channel=0, data=[86, 0]),
   midi.NoteOnEvent(tick=79, channel=0, data=[80, 0]),
   midi.NoteOnEvent(tick=0, channel=0, data=[91, 77]),
   midi.NoteOnEvent(tick=79, channel=0, data=[86, 77]),
   midi.NoteOnEvent(tick=1, channel=0, data=[91, 0]),
   midi.NoteOnEvent(tick=79, channel=0, data=[86, 0]),
   midi.NoteOnEvent(tick=1, channel=0, data=[89, 75]),
   midi.NoteOnEvent(tick=77, channel=0, data=[83, 77]),
   midi.NoteOnEvent(tick=3, channel=0, data=[89, 0]),
   midi.NoteOnEvent(tick=77, channel=0, data=[83, 0]),
   midi.NoteOnEvent(tick=3, channel=0, data=[93, 79]),
   midi.NoteOnEvent(tick=76, channel=0, data=[89, 80]),
   midi.NoteOnEvent(tick=4, channel=0, data=[93, 0]),
   midi.NoteOnEvent(tick=76, channel=0, data=[89, 0]),
   midi.NoteOnEvent(tick=4, channel=0, data=[92, 82]),
   midi.NoteOnEvent(tick=80, channel=0, data=[92, 0]),
   midi.NoteOnEvent(tick=1, channel=0, data=[86, 84]),
   midi.NoteOnEvent(tick=77, channel=0, data=[101, 97]),
   midi.NoteOnEvent(tick=3, channel=0, data=[86, 0]),
   midi.NoteOnEvent(tick=75, channel=0, data=[95, 88]),
   midi.NoteOnEvent(tick=18, channel=0, data=[101, 0]),
   midi.NoteOnEvent(tick=64, channel=0, data=[100, 94]),
   midi.NoteOnEvent(tick=14, channel=0, data=[95, 0]),
   midi.NoteOnEvent(tick=64, channel=0, data=[92, 85]),
   midi.NoteOnEvent(tick=18, channel=0, data=[100, 0]),
   midi.NoteOnEvent(tick=67, channel=0, data=[99, 94]),
   midi.NoteOnEvent(tick=11, channel=0, data=[92, 0]),
   midi.NoteOnEvent(tick=67, channel=0, data=[95, 85]),
   midi.NoteOnEvent(tick=18, channel=0, data=[99, 0]),
   midi.NoteOnEvent(tick=62, channel=0, data=[98, 90]),
   midi.NoteOnEvent(tick=16, channel=0, data=[95, 0]),
   midi.NoteOnEvent(tick=64, channel=0, data=[92, 85]),
   midi.NoteOnEvent(tick=16, channel=0, data=[98, 0]),
   midi.NoteOnEvent(tick=64, channel=0, data=[97, 89]),
   midi.NoteOnEvent(tick=16, channel=0, data=[92, 0]),
   midi.NoteOnEvent(tick=65, channel=0, data=[92, 84]),
   midi.NoteOnEvent(tick=15, channel=0, data=[97, 0]),
   midi.NoteOnEvent(tick=64, channel=0, data=[96, 89]),
   midi.NoteOnEvent(tick=17, channel=0, data=[92, 0]),
   midi.NoteOnEvent(tick=64, channel=0, data=[89, 84]),
   midi.NoteOnEvent(tick=15, channel=0, data=[96, 0]),
   midi.NoteOnEvent(tick=65, channel=0, data=[95, 89]),
   midi.NoteOnEvent(tick=16, channel=0, data=[89, 0]),
   midi.NoteOnEvent(tick=65, channel=0, data=[89, 84]),
   midi.NoteOnEvent(tick=15, channel=0, data=[95, 0]),
   midi.NoteOnEvent(tick=60, channel=0, data=[94, 89]),
   midi.NoteOnEvent(tick=21, channel=0, data=[89, 0]),
   midi.NoteOnEvent(tick=61, channel=0, data=[86, 84]),
   midi.NoteOnEvent(tick=14, channel=0, data=[94, 0]),
   midi.NoteOnEvent(tick=68, channel=0, data=[93, 89]),
   midi.NoteOnEvent(tick=14, channel=0, data=[86, 0]),
   midi.NoteOnEvent(tick=62, channel=0, data=[89, 82]),
   midi.NoteOnEvent(tick=20, channel=0, data=[93, 0]),
   midi.NoteOnEvent(tick=62, channel=0, data=[92, 88]),
   midi.NoteOnEvent(tick=14, channel=0, data=[89, 0]),
   midi.NoteOnEvent(tick=64, channel=0, data=[83, 82]),
   midi.NoteOnEvent(tick=18, channel=0, data=[92, 0]),
   midi.NoteOnEvent(tick=65, channel=0, data=[91, 88]),
   midi.NoteOnEvent(tick=13, channel=0, data=[83, 0]),
   midi.NoteOnEvent(tick=65, channel=0, data=[86, 82]),
   midi.NoteOnEvent(tick=18, channel=0, data=[91, 0]),
   midi.NoteOnEvent(tick=61, channel=0, data=[90, 88]),
   midi.NoteOnEvent(tick=17, channel=0, data=[86, 0]),
   midi.NoteOnEvent(tick=64, channel=0, data=[80, 82]),
   midi.NoteOnEvent(tick=15, channel=0, data=[90, 0]),
   midi.NoteOnEvent(tick=69, channel=0, data=[89, 88]),
   midi.NoteOnEvent(tick=12, channel=0, data=[80, 0]),
   midi.NoteOnEvent(tick=66, channel=0, data=[83, 82]),
   midi.NoteOnEvent(tick=18, channel=0, data=[89, 0]),
   midi.NoteOnEvent(tick=62, channel=0, data=[88, 88]),
   midi.NoteOnEvent(tick=16, channel=0, data=[83, 0]),
   midi.NoteOnEvent(tick=61, channel=0, data=[80, 82]),
   midi.NoteOnEvent(tick=19, channel=0, data=[88, 0]),
   midi.NoteOnEvent(tick=63, channel=0, data=[87, 88]),
   midi.NoteOnEvent(tick=14, channel=0, data=[80, 0]),
   midi.NoteOnEvent(tick=69, channel=0, data=[83, 82]),
   midi.NoteOnEvent(tick=13, channel=0, data=[87, 0]),
   midi.NoteOnEvent(tick=67, channel=0, data=[86, 88]),
   midi.NoteOnEvent(tick=16, channel=0, data=[83, 0]),
   midi.NoteOnEvent(tick=61, channel=0, data=[79, 82]),
   midi.NoteOnEvent(tick=19, channel=0, data=[86, 0]),
   midi.NoteOnEvent(tick=60, channel=0, data=[85, 88]),
   midi.NoteOnEvent(tick=17, channel=0, data=[79, 0]),
   midi.NoteOnEvent(tick=63, channel=0, data=[79, 82]),
   midi.NoteOnEvent(tick=16, channel=0, data=[85, 0]),
   midi.NoteOnEvent(tick=63, channel=0, data=[84, 88]),
   midi.NoteOnEvent(tick=17, channel=0, data=[79, 0]),
   midi.NoteOnEvent(tick=68, channel=0, data=[77, 81]),
   midi.NoteOnEvent(tick=11, channel=0, data=[84, 0]),
   midi.NoteOnEvent(tick=66, channel=0, data=[83, 103]),
   midi.NoteOnEvent(tick=120, channel=0, data=[83, 0]),
   midi.NoteOnEvent(tick=43, channel=0, data=[77, 0]),
   midi.NoteOnEvent(tick=799, channel=0, data=[95, 103]),
   midi.NoteOnEvent(tick=81, channel=0, data=[89, 85]),
   midi.NoteOnEvent(tick=15, channel=0, data=[95, 0]),
   midi.NoteOnEvent(tick=61, channel=0, data=[94, 99]),
   midi.NoteOnEvent(tick=20, channel=0, data=[89, 0]),
   midi.NoteOnEvent(tick=64, channel=0, data=[86, 85]),
   midi.NoteOnEvent(tick=12, channel=0, data=[94, 0]),
   midi.NoteOnEvent(tick=65, channel=0, data=[93, 90]),
   midi.NoteOnEvent(tick=19, channel=0, data=[86, 0]),
   midi.NoteOnEvent(tick=64, channel=0, data=[89, 85]),
   midi.NoteOnEvent(tick=13, channel=0, data=[93, 0]),
   midi.NoteOnEvent(tick=65, channel=0, data=[92, 90]),
   midi.NoteOnEvent(tick=18, channel=0, data=[89, 0]),
   midi.NoteOnEvent(tick=60, channel=0, data=[86, 85]),
   midi.NoteOnEvent(tick=18, channel=0, data=[92, 0]),
   midi.NoteOnEvent(tick=62, channel=0, data=[91, 89]),
   midi.NoteOnEvent(tick=16, channel=0, data=[86, 0]),
   midi.NoteOnEvent(tick=65, channel=0, data=[86, 85]),
   midi.NoteOnEvent(tick=15, channel=0, data=[91, 0]),
   midi.NoteOnEvent(tick=66, channel=0, data=[90, 89]),
   midi.NoteOnEvent(tick=15, channel=0, data=[86, 0]),
   midi.NoteOnEvent(tick=63, channel=0, data=[83, 84]),
   midi.NoteOnEvent(tick=18, channel=0, data=[90, 0]),
   midi.NoteOnEvent(tick=62, channel=0, data=[89, 89]),
   midi.NoteOnEvent(tick=16, channel=0, data=[83, 0]),
   midi.NoteOnEvent(tick=63, channel=0, data=[83, 84]),
   midi.NoteOnEvent(tick=17, channel=0, data=[89, 0]),
   midi.NoteOnEvent(tick=63, channel=0, data=[88, 89]),
   midi.NoteOnEvent(tick=16, channel=0, data=[83, 0]),
   midi.NoteOnEvent(tick=68, channel=0, data=[80, 84]),
   midi.NoteOnEvent(tick=12, channel=0, data=[88, 0]),
   midi.NoteOnEvent(tick=69, channel=0, data=[87, 89]),
   midi.NoteOnEvent(tick=15, channel=0, data=[80, 0]),
   midi.NoteOnEvent(tick=64, channel=0, data=[83, 82]),
   midi.NoteOnEvent(tick=17, channel=0, data=[87, 0]),
   midi.NoteOnEvent(tick=63, channel=0, data=[86, 88]),
   midi.NoteOnEvent(tick=16, channel=0, data=[83, 0]),
   midi.NoteOnEvent(tick=60, channel=0, data=[77, 82]),
   midi.NoteOnEvent(tick=20, channel=0, data=[86, 0]),
   midi.NoteOnEvent(tick=62, channel=0, data=[85, 88]),
   midi.NoteOnEvent(tick=14, channel=0, data=[77, 0]),
   midi.NoteOnEvent(tick=67, channel=0, data=[80, 82]),
   midi.NoteOnEvent(tick=15, channel=0, data=[85, 0]),
   midi.NoteOnEvent(tick=67, channel=0, data=[84, 88]),
   midi.NoteOnEvent(tick=14, channel=0, data=[80, 0]),
   midi.NoteOnEvent(tick=62, channel=0, data=[74, 84]),
   midi.NoteOnEvent(tick=20, channel=0, data=[84, 0]),
   midi.NoteOnEvent(tick=62, channel=0, data=[83, 88]),
   midi.NoteOnEvent(tick=14, channel=0, data=[74, 0]),
   midi.NoteOnEvent(tick=67, channel=0, data=[77, 84]),
   midi.NoteOnEvent(tick=15, channel=0, data=[83, 0]),
   midi.NoteOnEvent(tick=66, channel=0, data=[82, 88]),
   midi.NoteOnEvent(tick=15, channel=0, data=[77, 0]),
   midi.NoteOnEvent(tick=65, channel=0, data=[74, 82]),
   midi.NoteOnEvent(tick=16, channel=0, data=[82, 0]),
   midi.NoteOnEvent(tick=63, channel=0, data=[81, 88]),
   midi.NoteOnEvent(tick=17, channel=0, data=[74, 0]),
   midi.NoteOnEvent(tick=62, channel=0, data=[77, 84]),
   midi.NoteOnEvent(tick=17, channel=0, data=[81, 0]),
   midi.NoteOnEvent(tick=61, channel=0, data=[80, 86]),
   midi.NoteOnEvent(tick=18, channel=0, data=[77, 0]),
   midi.NoteOnEvent(tick=65, channel=0, data=[74, 82]),
   midi.NoteOnEvent(tick=13, channel=0, data=[80, 0]),
   midi.NoteOnEvent(tick=63, channel=0, data=[79, 85]),
   midi.NoteOnEvent(tick=20, channel=0, data=[74, 0]),
   midi.NoteOnEvent(tick=63, channel=0, data=[74, 81]),
   midi.NoteOnEvent(tick=13, channel=0, data=[79, 0]),
   midi.NoteOnEvent(tick=68, channel=0, data=[78, 85]),
   midi.NoteOnEvent(tick=15, channel=0, data=[74, 0]),
   midi.NoteOnEvent(tick=63, channel=0, data=[71, 81]),
   midi.NoteOnEvent(tick=18, channel=0, data=[78, 0]),
   midi.NoteOnEvent(tick=60, channel=0, data=[71, 0]),
   midi.NoteOnEvent(tick=0, channel=0, data=[77, 100]),
   midi.NoteOnEvent(tick=2, channel=0, data=[74, 90]),
   midi.NoteOnEvent(tick=3, channel=0, data=[68, 90]),
   midi.NoteOnEvent(tick=117, channel=0, data=[74, 0]),
   midi.NoteOnEvent(tick=3, channel=0, data=[68, 0]),
   midi.NoteOnEvent(tick=19, channel=0, data=[77, 0]),
   midi.NoteOnEvent(tick=818, channel=0, data=[77, 60]),
   midi.NoteOnEvent(tick=80, channel=0, data=[77, 0]),
   midi.NoteOnEvent(tick=0, channel=0, data=[74, 55]),
   midi.NoteOnEvent(tick=80, channel=0, data=[74, 0]),
   midi.NoteOnEvent(tick=0, channel=0, data=[76, 60]),
   midi.NoteOnEvent(tick=80, channel=0, data=[76, 0]),
   midi.NoteOnEvent(tick=0, channel=0, data=[68, 60]),
   midi.NoteOnEvent(tick=240, channel=0, data=[68, 0]),
   midi.NoteOnEvent(tick=480, channel=0, data=[77, 60]),
   midi.NoteOnEvent(tick=80, channel=0, data=[77, 0]),
   midi.NoteOnEvent(tick=0, channel=0, data=[74, 53]),
   midi.NoteOnEvent(tick=80, channel=0, data=[74, 0]),
   midi.NoteOnEvent(tick=0, channel=0, data=[76, 60]),
   midi.NoteOnEvent(tick=80, channel=0, data=[76, 0]),
   midi.NoteOnEvent(tick=0, channel=0, data=[68, 60]),
   midi.NoteOnEvent(tick=240, channel=0, data=[68, 0]),
   midi.NoteOnEvent(tick=480, channel=0, data=[77, 51]),
   midi.NoteOnEvent(tick=80, channel=0, data=[77, 0]),
   midi.NoteOnEvent(tick=0, channel=0, data=[74, 51]),
   midi.NoteOnEvent(tick=80, channel=0, data=[74, 0]),
   midi.NoteOnEvent(tick=0, channel=0, data=[76, 51]),
   midi.NoteOnEvent(tick=80, channel=0, data=[76, 0]),
   midi.NoteOnEvent(tick=1, channel=0, data=[68, 52]),
   midi.NoteOnEvent(tick=80, channel=0, data=[68, 0]),
   midi.NoteOnEvent(tick=2, channel=0, data=[77, 52]),
   midi.NoteOnEvent(tick=77, channel=0, data=[74, 53]),
   midi.NoteOnEvent(tick=3, channel=0, data=[77, 0]),
   midi.NoteOnEvent(tick=77, channel=0, data=[74, 0]),
   midi.NoteOnEvent(tick=0, channel=0, data=[76, 53]),
   midi.NoteOnEvent(tick=80, channel=0, data=[76, 0]),
   midi.NoteOnEvent(tick=3, channel=0, data=[68, 53]),
   midi.NoteOnEvent(tick=78, channel=0, data=[77, 55]),
   midi.NoteOnEvent(tick=2, channel=0, data=[68, 0]),
   midi.NoteOnEvent(tick=77, channel=0, data=[74, 55]),
   midi.NoteOnEvent(tick=1, channel=0, data=[77, 0]),
   midi.NoteOnEvent(tick=79, channel=0, data=[74, 0]),
   midi.NoteOnEvent(tick=1, channel=0, data=[76, 56]),
   midi.NoteOnEvent(tick=80, channel=0, data=[76, 0]),
   midi.NoteOnEvent(tick=1, channel=0, data=[68, 56]),
   midi.NoteOnEvent(tick=76, channel=0, data=[77, 57]),
   midi.NoteOnEvent(tick=4, channel=0, data=[68, 0]),
   midi.NoteOnEvent(tick=76, channel=0, data=[77, 0]),
   midi.NoteOnEvent(tick=0, channel=0, data=[74, 57]),
   midi.NoteOnEvent(tick=80, channel=0, data=[74, 0]),
   midi.NoteOnEvent(tick=1, channel=0, data=[76, 57]),
   midi.NoteOnEvent(tick=79, channel=0, data=[68, 58]),
   midi.NoteOnEvent(tick=1, channel=0, data=[76, 0]),
   midi.NoteOnEvent(tick=79, channel=0, data=[68, 0]),
   midi.NoteOnEvent(tick=1, channel=0, data=[77, 58]),
   midi.NoteOnEvent(tick=80, channel=0, data=[77, 0]),
   midi.NoteOnEvent(tick=1, channel=0, data=[74, 59]),
   midi.NoteOnEvent(tick=80, channel=0, data=[74, 0]),
   midi.NoteOnEvent(tick=1, channel=0, data=[76, 59]),
   midi.NoteOnEvent(tick=78, channel=0, data=[68, 60]),
   midi.NoteOnEvent(tick=2, channel=0, data=[76, 0]),
   midi.NoteOnEvent(tick=77, channel=0, data=[77, 60]),
   midi.NoteOnEvent(tick=1, channel=0, data=[68, 0]),
   midi.NoteOnEvent(tick=79, channel=0, data=[77, 0]),
   midi.NoteOnEvent(tick=3, channel=0, data=[74, 60]),
   midi.NoteOnEvent(tick=77, channel=0, data=[76, 61]),
   midi.NoteOnEvent(tick=3, channel=0, data=[74, 0]),
   midi.NoteOnEvent(tick=77, channel=0, data=[76, 0]),
   midi.NoteOnEvent(tick=1, channel=0, data=[68, 61]),
   midi.NoteOnEvent(tick=80, channel=0, data=[68, 0]),
   midi.NoteOnEvent(tick=3, channel=0, data=[77, 62]),
   midi.NoteOnEvent(tick=78, channel=0, data=[74, 62]),
   midi.NoteOnEvent(tick=2, channel=0, data=[77, 0]),
   midi.NoteOnEvent(tick=78, channel=0, data=[74, 0]),
   midi.NoteOnEvent(tick=3, channel=0, data=[76, 62]),
   midi.NoteOnEvent(tick=76, channel=0, data=[68, 63]),
   midi.NoteOnEvent(tick=4, channel=0, data=[76, 0]),
   midi.NoteOnEvent(tick=75, channel=0, data=[77, 63]),
   midi.NoteOnEvent(tick=1, channel=0, data=[68, 0]),
   midi.NoteOnEvent(tick=79, channel=0, data=[77, 0]),
   midi.NoteOnEvent(tick=3, channel=0, data=[74, 64]),
   midi.NoteOnEvent(tick=78, channel=0, data=[76, 64]),
   midi.NoteOnEvent(tick=2, channel=0, data=[74, 0]),
   midi.NoteOnEvent(tick=77, channel=0, data=[68, 66]),
   midi.NoteOnEvent(tick=1, channel=0, data=[76, 0]),
   midi.NoteOnEvent(tick=79, channel=0, data=[68, 0]),
   midi.NoteOnEvent(tick=3, channel=0, data=[77, 66]),
   midi.NoteOnEvent(tick=80, channel=0, data=[77, 0]),
   midi.NoteOnEvent(tick=1, channel=0, data=[74, 66]),
   midi.NoteOnEvent(tick=76, channel=0, data=[76, 67]),
   midi.NoteOnEvent(tick=4, channel=0, data=[74, 0]),
   midi.NoteOnEvent(tick=76, channel=0, data=[76, 0]),
   midi.NoteOnEvent(tick=5, channel=0, data=[68, 67]),
   midi.NoteOnEvent(tick=77, channel=0, data=[77, 68]),
   midi.NoteOnEvent(tick=3, channel=0, data=[68, 0]),
   midi.NoteOnEvent(tick=77, channel=0, data=[77, 0]),
   midi.NoteOnEvent(tick=3, channel=0, data=[74, 68]),
   midi.NoteOnEvent(tick=78, channel=0, data=[76, 69]),
   midi.NoteOnEvent(tick=2, channel=0, data=[74, 0]),
   midi.NoteOnEvent(tick=76, channel=0, data=[68, 69]),
   midi.NoteOnEvent(tick=2, channel=0, data=[76, 0]),
   midi.NoteOnEvent(tick=78, channel=0, data=[68, 0]),
   midi.NoteOnEvent(tick=0, channel=0, data=[77, 69]),
   midi.NoteOnEvent(tick=80, channel=0, data=[77, 0]),
   midi.NoteOnEvent(tick=1, channel=0, data=[74, 70]),
   midi.NoteOnEvent(tick=79, channel=0, data=[76, 70]),
   midi.NoteOnEvent(tick=1, channel=0, data=[74, 0]),
   midi.NoteOnEvent(tick=79, channel=0, data=[76, 0]),
   midi.NoteOnEvent(tick=1, channel=0, data=[68, 71]),
   midi.NoteOnEvent(tick=80, channel=0, data=[68, 0]),
   midi.NoteOnEvent(tick=2, channel=0, data=[77, 71]),
   midi.NoteOnEvent(tick=80, channel=0, data=[77, 0]),
   midi.NoteOnEvent(tick=1, channel=0, data=[74, 72]),
   midi.NoteOnEvent(tick=77, channel=0, data=[76, 72]),
   midi.NoteOnEvent(tick=3, channel=0, data=[74, 0]),
   midi.NoteOnEvent(tick=77, channel=0, data=[76, 0]),
   midi.NoteOnEvent(tick=0, channel=0, data=[68, 72]),
   midi.NoteOnEvent(tick=80, channel=0, data=[68, 0]),
   midi.NoteOnEvent(tick=2, channel=0, data=[77, 73]),
   midi.NoteOnEvent(tick=80, channel=0, data=[77, 0]),
   midi.NoteOnEvent(tick=0, channel=0, data=[74, 73]),
   midi.NoteOnEvent(tick=76, channel=0, data=[76, 74]),
   midi.NoteOnEvent(tick=4, channel=0, data=[74, 0]),
   midi.NoteOnEvent(tick=76, channel=0, data=[76, 0]),
   midi.NoteOnEvent(tick=0, channel=0, data=[68, 74]),
   midi.NoteOnEvent(tick=80, channel=0, data=[68, 0]),
   midi.NoteOnEvent(tick=4, channel=0, data=[77, 74]),
   midi.NoteOnEvent(tick=80, channel=0, data=[77, 0]),
   midi.NoteOnEvent(tick=1, channel=0, data=[74, 75]),
   midi.NoteOnEvent(tick=78, channel=0, data=[76, 75]),
   midi.NoteOnEvent(tick=2, channel=0, data=[74, 0]),
   midi.NoteOnEvent(tick=77, channel=0, data=[80, 77]),
   midi.NoteOnEvent(tick=1, channel=0, data=[76, 0]),
   midi.NoteOnEvent(tick=79, channel=0, data=[80, 0]),
   midi.NoteOnEvent(tick=0, channel=0, data=[89, 77]),
   midi.NoteOnEvent(tick=78, channel=0, data=[86, 78]),
   midi.NoteOnEvent(tick=2, channel=0, data=[89, 0]),
   midi.NoteOnEvent(tick=78, channel=0, data=[86, 0]),
   midi.NoteOnEvent(tick=2, channel=0, data=[88, 78]),
   midi.NoteOnEvent(tick=79, channel=0, data=[92, 78]),
   midi.NoteOnEvent(tick=1, channel=0, data=[88, 0]),
   midi.NoteOnEvent(tick=79, channel=0, data=[92, 0]),
   midi.NoteOnEvent(tick=1, channel=0, data=[101, 79]),
   midi.NoteOnEvent(tick=80, channel=0, data=[101, 0]),
   midi.NoteOnEvent(tick=3, channel=0, data=[98, 79]),
   midi.NoteOnEvent(tick=76, channel=0, data=[100, 80]),
   midi.NoteOnEvent(tick=4, channel=0, data=[98, 0]),
   midi.NoteOnEvent(tick=76, channel=0, data=[100, 0]),
   midi.NoteOnEvent(tick=0, channel=0, data=[92, 80]),
   midi.NoteOnEvent(tick=79, channel=0, data=[101, 81]),
   midi.NoteOnEvent(tick=1, channel=0, data=[92, 0]),
   midi.NoteOnEvent(tick=79, channel=0, data=[101, 0]),
   midi.NoteOnEvent(tick=2, channel=0, data=[98, 81]),
   midi.NoteOnEvent(tick=79, channel=0, data=[100, 81]),
   midi.NoteOnEvent(tick=1, channel=0, data=[98, 0]),
   midi.NoteOnEvent(tick=79, channel=0, data=[100, 0]),
   midi.NoteOnEvent(tick=0, channel=0, data=[92, 82]),
   midi.NoteOnEvent(tick=80, channel=0, data=[92, 0]),
   midi.NoteOnEvent(tick=0, channel=0, data=[101, 82]),
   midi.NoteOnEvent(tick=80, channel=0, data=[101, 0]),
   midi.NoteOnEvent(tick=0, channel=0, data=[98, 83]),
   midi.NoteOnEvent(tick=80, channel=0, data=[98, 0]),
   midi.NoteOnEvent(tick=1, channel=0, data=[100, 83]),
   midi.NoteOnEvent(tick=78, channel=0, data=[92, 84]),
   midi.NoteOnEvent(tick=2, channel=0, data=[100, 0]),
   midi.NoteOnEvent(tick=78, channel=0, data=[92, 0]),
   midi.NoteOnEvent(tick=0, channel=0, data=[101, 97]),
   midi.NoteOnEvent(tick=80, channel=0, data=[101, 0]),
   midi.NoteOnEvent(tick=5, channel=0, data=[96, 81]),
   midi.NoteOnEvent(tick=75, channel=0, data=[100, 90]),
   midi.NoteOnEvent(tick=5, channel=0, data=[96, 0]),
   midi.NoteOnEvent(tick=75, channel=0, data=[100, 0]),
   midi.NoteOnEvent(tick=5, channel=0, data=[93, 73]),
   midi.NoteOnEvent(tick=77, channel=0, data=[99, 93]),
   midi.NoteOnEvent(tick=3, channel=0, data=[93, 0]),
   midi.NoteOnEvent(tick=77, channel=0, data=[99, 0]),
   midi.NoteOnEvent(tick=3, channel=0, data=[96, 73]),
   midi.NoteOnEvent(tick=77, channel=0, data=[98, 83]),
   midi.NoteOnEvent(tick=3, channel=0, data=[96, 0]),
   midi.NoteOnEvent(tick=76, channel=0, data=[93, 67]),
   midi.NoteOnEvent(tick=1, channel=0, data=[98, 0]),
   midi.NoteOnEvent(tick=79, channel=0, data=[93, 0]),
   midi.NoteOnEvent(tick=3, channel=0, data=[97, 79]),
   midi.NoteOnEvent(tick=80, channel=0, data=[97, 0]),
   midi.NoteOnEvent(tick=1, channel=0, data=[93, 67]),
   midi.NoteOnEvent(tick=77, channel=0, data=[96, 78]),
   midi.NoteOnEvent(tick=3, channel=0, data=[93, 0]),
   midi.NoteOnEvent(tick=77, channel=0, data=[96, 0]),
   midi.NoteOnEvent(tick=0, channel=0, data=[88, 67]),
   midi.NoteOnEvent(tick=80, channel=0, data=[88, 0]),
   midi.NoteOnEvent(tick=2, channel=0, data=[95, 79]),
   midi.NoteOnEvent(tick=77, channel=0, data=[88, 73]),
   midi.NoteOnEvent(tick=3, channel=0, data=[95, 0]),
   midi.NoteOnEvent(tick=77, channel=0, data=[88, 0]),
   midi.NoteOnEvent(tick=1, channel=0, data=[94, 79]),
   midi.NoteOnEvent(tick=80, channel=0, data=[94, 0]),
   midi.NoteOnEvent(tick=1, channel=0, data=[84, 73]),
   midi.NoteOnEvent(tick=80, channel=0, data=[84, 0]),
   midi.NoteOnEvent(tick=1, channel=0, data=[93, 79]),
   midi.NoteOnEvent(tick=80, channel=0, data=[93, 0]),
   midi.NoteOnEvent(tick=0, channel=0, data=[88, 73]),
   midi.NoteOnEvent(tick=80, channel=0, data=[88, 0]),
   midi.NoteOnEvent(tick=0, channel=0, data=[92, 79]),
   midi.NoteOnEvent(tick=78, channel=0, data=[84, 67]),
   midi.NoteOnEvent(tick=2, channel=0, data=[92, 0]),
   midi.NoteOnEvent(tick=78, channel=0, data=[84, 0]),
   midi.NoteOnEvent(tick=2, channel=0, data=[91, 71]),
   midi.NoteOnEvent(tick=79, channel=0, data=[84, 67]),
   midi.NoteOnEvent(tick=1, channel=0, data=[91, 0]),
   midi.NoteOnEvent(tick=77, channel=0, data=[90, 71]),
   midi.NoteOnEvent(tick=2, channel=0, data=[84, 0]),
   midi.NoteOnEvent(tick=78, channel=0, data=[90, 0]),
   midi.NoteOnEvent(tick=1, channel=0, data=[81, 67]),
   midi.NoteOnEvent(tick=78, channel=0, data=[89, 79]),
   midi.NoteOnEvent(tick=2, channel=0, data=[81, 0]),
   midi.NoteOnEvent(tick=78, channel=0, data=[89, 0]),
   midi.NoteOnEvent(tick=5, channel=0, data=[84, 73]),
   midi.NoteOnEvent(tick=79, channel=0, data=[88, 79]),
   midi.NoteOnEvent(tick=1, channel=0, data=[84, 0]),
   midi.NoteOnEvent(tick=77, channel=0, data=[81, 73]),
   midi.NoteOnEvent(tick=2, channel=0, data=[88, 0]),
   midi.NoteOnEvent(tick=77, channel=0, data=[87, 79]),
   midi.NoteOnEvent(tick=1, channel=0, data=[81, 0]),
   midi.NoteOnEvent(tick=79, channel=0, data=[87, 0]),
   midi.NoteOnEvent(tick=0, channel=0, data=[84, 73]),
   midi.NoteOnEvent(tick=80, channel=0, data=[84, 0]),
   midi.NoteOnEvent(tick=0, channel=0, data=[86, 79]),
   midi.NoteOnEvent(tick=79, channel=0, data=[81, 67]),
   midi.NoteOnEvent(tick=1, channel=0, data=[86, 0]),
   midi.NoteOnEvent(tick=79, channel=0, data=[81, 0]),
   midi.NoteOnEvent(tick=5, channel=0, data=[85, 71]),
   midi.NoteOnEvent(tick=76, channel=0, data=[81, 67]),
   midi.NoteOnEvent(tick=4, channel=0, data=[85, 0]),
   midi.NoteOnEvent(tick=76, channel=0, data=[81, 0]),
   midi.NoteOnEvent(tick=1, channel=0, data=[84, 71]),
   midi.NoteOnEvent(tick=78, channel=0, data=[76, 67]),
   midi.NoteOnEvent(tick=2, channel=0, data=[84, 0]),
   midi.NoteOnEvent(tick=78, channel=0, data=[76, 0]),
   midi.NoteOnEvent(tick=5, channel=0, data=[83, 71]),
   midi.NoteOnEvent(tick=78, channel=0, data=[76, 67]),
   midi.NoteOnEvent(tick=2, channel=0, data=[83, 0]),
   midi.NoteOnEvent(tick=78, channel=0, data=[76, 0]),
   midi.NoteOnEvent(tick=1, channel=0, data=[82, 71]),
   midi.NoteOnEvent(tick=77, channel=0, data=[72, 67]),
   midi.NoteOnEvent(tick=3, channel=0, data=[82, 0]),
   midi.NoteOnEvent(tick=77, channel=0, data=[72, 0]),
   midi.NoteOnEvent(tick=1, channel=0, data=[81, 71]),
   midi.NoteOnEvent(tick=80, channel=0, data=[81, 0]),
   midi.NoteOnEvent(tick=2, channel=0, data=[76, 67]),
   midi.NoteOnEvent(tick=78, channel=0, data=[80, 71]),
   midi.NoteOnEvent(tick=2, channel=0, data=[76, 0]),
   midi.NoteOnEvent(tick=78, channel=0, data=[80, 0]),
   midi.NoteOnEvent(tick=1, channel=0, data=[72, 67]),
   midi.NoteOnEvent(tick=80, channel=0, data=[72, 0]),
   midi.NoteOnEvent(tick=1, channel=0, data=[79, 71]),
   midi.NoteOnEvent(tick=77, channel=0, data=[72, 67]),
   midi.NoteOnEvent(tick=3, channel=0, data=[79, 0]),
   midi.NoteOnEvent(tick=77, channel=0, data=[72, 0]),
   midi.NoteOnEvent(tick=0, channel=0, data=[78, 71]),
   midi.NoteOnEvent(tick=80, channel=0, data=[78, 0]),
   midi.NoteOnEvent(tick=4, channel=0, data=[69, 67]),
   midi.NoteOnEvent(tick=79, channel=0, data=[77, 53]),
   midi.NoteOnEvent(tick=1, channel=0, data=[69, 0]),
   midi.NoteOnEvent(tick=76, channel=0, data=[72, 49]),
   midi.NoteOnEvent(tick=3, channel=0, data=[77, 0]),
   midi.NoteOnEvent(tick=77, channel=0, data=[72, 0]),
   midi.NoteOnEvent(tick=4, channel=0, data=[76, 53]),
   midi.NoteOnEvent(tick=75, channel=0, data=[69, 49]),
   midi.NoteOnEvent(tick=5, channel=0, data=[76, 0]),
   midi.NoteOnEvent(tick=75, channel=0, data=[69, 0]),
   midi.NoteOnEvent(tick=4, channel=0, data=[75, 53]),
   midi.NoteOnEvent(tick=76, channel=0, data=[72, 49]),
   midi.NoteOnEvent(tick=4, channel=0, data=[75, 0]),
   midi.NoteOnEvent(tick=76, channel=0, data=[72, 0]),
   midi.NoteOnEvent(tick=0, channel=0, data=[74, 53]),
   midi.NoteOnEvent(tick=80, channel=0, data=[74, 0]),
   midi.NoteOnEvent(tick=0, channel=0, data=[69, 49]),
   midi.NoteOnEvent(tick=80, channel=0, data=[69, 0]),
   midi.NoteOnEvent(tick=3, channel=0, data=[73, 53]),
   midi.NoteOnEvent(tick=80, channel=0, data=[73, 0]),
   midi.NoteOnEvent(tick=0, channel=0, data=[69, 49]),
   midi.NoteOnEvent(tick=80, channel=0, data=[69, 0]),
   midi.NoteOnEvent(tick=0, channel=0, data=[72, 53]),
   midi.NoteOnEvent(tick=78, channel=0, data=[64, 49]),
   midi.NoteOnEvent(tick=2, channel=0, data=[72, 0]),
   midi.NoteOnEvent(tick=77, channel=0, data=[71, 53]),
   midi.NoteOnEvent(tick=1, channel=0, data=[64, 0]),
   midi.NoteOnEvent(tick=79, channel=0, data=[71, 0]),
   midi.NoteOnEvent(tick=1, channel=0, data=[64, 49]),
   midi.NoteOnEvent(tick=79, channel=0, data=[70, 51]),
   midi.NoteOnEvent(tick=1, channel=0, data=[64, 0]),
   midi.NoteOnEvent(tick=79, channel=0, data=[70, 0]),
   midi.NoteOnEvent(tick=2, channel=0, data=[60, 48]),
   midi.NoteOnEvent(tick=78, channel=0, data=[69, 50]),
   midi.NoteOnEvent(tick=2, channel=0, data=[60, 0]),
   midi.NoteOnEvent(tick=78, channel=0, data=[69, 0]),
   midi.NoteOnEvent(tick=1, channel=0, data=[64, 45]),
   midi.NoteOnEvent(tick=80, channel=0, data=[64, 0]),
   midi.NoteOnEvent(tick=3, channel=0, data=[68, 49]),
   midi.NoteOnEvent(tick=79, channel=0, data=[60, 44]),
   midi.NoteOnEvent(tick=1, channel=0, data=[68, 0]),
   midi.NoteOnEvent(tick=77, channel=0, data=[67, 47]),
   midi.NoteOnEvent(tick=2, channel=0, data=[60, 0]),
   midi.NoteOnEvent(tick=78, channel=0, data=[67, 0]),
   midi.NoteOnEvent(tick=4, channel=0, data=[60, 44]),
   midi.NoteOnEvent(tick=80, channel=0, data=[60, 0]),
   midi.NoteOnEvent(tick=0, channel=0, data=[66, 45]),
   midi.NoteOnEvent(tick=75, channel=0, data=[57, 45]),
   midi.NoteOnEvent(tick=5, channel=0, data=[66, 0]),
   midi.NoteOnEvent(tick=75, channel=0, data=[57, 0]),
   midi.NoteOnEvent(tick=1, channel=0, data=[65, 45]),
   midi.NoteOnEvent(tick=80, channel=0, data=[65, 0]),
   midi.NoteOnEvent(tick=3, channel=0, data=[60, 42]),
   midi.NoteOnEvent(tick=78, channel=0, data=[64, 45]),
   midi.NoteOnEvent(tick=2, channel=0, data=[60, 0]),
   midi.NoteOnEvent(tick=77, channel=0, data=[57, 42]),
   midi.NoteOnEvent(tick=1, channel=0, data=[64, 0]),
   midi.NoteOnEvent(tick=79, channel=0, data=[57, 0]),
   midi.NoteOnEvent(tick=1, channel=0, data=[63, 44]),
   midi.NoteOnEvent(tick=80, channel=0, data=[63, 0]),
   midi.NoteOnEvent(tick=1, channel=0, data=[60, 40]),
   midi.NoteOnEvent(tick=80, channel=0, data=[60, 0]),
   midi.NoteOnEvent(tick=1, channel=0, data=[62, 42]),
   midi.NoteOnEvent(tick=79, channel=0, data=[57, 39]),
   midi.NoteOnEvent(tick=1, channel=0, data=[62, 0]),
   midi.NoteOnEvent(tick=76, channel=0, data=[61, 42]),
   midi.NoteOnEvent(tick=3, channel=0, data=[57, 0]),
   midi.NoteOnEvent(tick=77, channel=0, data=[61, 0]),
   midi.NoteOnEvent(tick=4, channel=0, data=[57, 39]),
   midi.NoteOnEvent(tick=79, channel=0, data=[60, 40]),
   midi.NoteOnEvent(tick=1, channel=0, data=[57, 0]),
   midi.NoteOnEvent(tick=76, channel=0, data=[52, 38]),
   midi.NoteOnEvent(tick=3, channel=0, data=[60, 0]),
   midi.NoteOnEvent(tick=77, channel=0, data=[52, 0]),
   midi.NoteOnEvent(tick=3, channel=0, data=[59, 40]),
   midi.NoteOnEvent(tick=80, channel=0, data=[59, 0]),
   midi.NoteOnEvent(tick=2, channel=0, data=[52, 39]),
   midi.NoteOnEvent(tick=79, channel=0, data=[58, 45]),
   midi.NoteOnEvent(tick=1, channel=0, data=[52, 0]),
   midi.NoteOnEvent(tick=77, channel=0, data=[48, 42]),
   midi.NoteOnEvent(tick=2, channel=0, data=[58, 0]),
   midi.NoteOnEvent(tick=78, channel=0, data=[48, 0]),
   midi.NoteOnEvent(tick=0, channel=0, data=[57, 47]),
   midi.NoteOnEvent(tick=80, channel=0, data=[57, 0]),
   midi.NoteOnEvent(tick=3, channel=0, data=[52, 45]),
   midi.NoteOnEvent(tick=78, channel=0, data=[56, 50]),
   midi.NoteOnEvent(tick=2, channel=0, data=[52, 0]),
   midi.NoteOnEvent(tick=77, channel=0, data=[48, 48]),
   midi.NoteOnEvent(tick=1, channel=0, data=[56, 0]),
   midi.NoteOnEvent(tick=79, channel=0, data=[48, 0]),
   midi.NoteOnEvent(tick=3, channel=0, data=[57, 53]),
   midi.NoteOnEvent(tick=78, channel=0, data=[52, 50]),
   midi.NoteOnEvent(tick=2, channel=0, data=[57, 0]),
   midi.NoteOnEvent(tick=75, channel=0, data=[60, 56]),
   midi.NoteOnEvent(tick=3, channel=0, data=[52, 0]),
   midi.NoteOnEvent(tick=77, channel=0, data=[60, 0]),
   midi.NoteOnEvent(tick=3, channel=0, data=[53, 53]),
   midi.NoteOnEvent(tick=77, channel=0, data=[64, 57]),
   midi.NoteOnEvent(tick=3, channel=0, data=[53, 0]),
   midi.NoteOnEvent(tick=77, channel=0, data=[64, 0]),
   midi.NoteOnEvent(tick=1, channel=0, data=[59, 57]),
   midi.NoteOnEvent(tick=80, channel=0, data=[59, 0]),
   midi.NoteOnEvent(tick=2, channel=0, data=[62, 57]),
   midi.NoteOnEvent(tick=80, channel=0, data=[62, 0]),
   midi.NoteOnEvent(tick=1, channel=0, data=[65, 57]),
   midi.NoteOnEvent(tick=78, channel=0, data=[76, 57]),
   midi.NoteOnEvent(tick=2, channel=0, data=[65, 0]),
   midi.NoteOnEvent(tick=78, channel=0, data=[76, 0]),
   midi.NoteOnEvent(tick=3, channel=0, data=[71, 57]),
   midi.NoteOnEvent(tick=79, channel=0, data=[74, 59]),
   midi.NoteOnEvent(tick=1, channel=0, data=[71, 0]),
   midi.NoteOnEvent(tick=77, channel=0, data=[77, 60]),
   midi.NoteOnEvent(tick=2, channel=0, data=[74, 0]),
   midi.NoteOnEvent(tick=78, channel=0, data=[77, 0]),
   midi.NoteOnEvent(tick=0, channel=0, data=[88, 61]),
   midi.NoteOnEvent(tick=80, channel=0, data=[88, 0]),
   midi.NoteOnEvent(tick=0, channel=0, data=[83, 62]),
   midi.NoteOnEvent(tick=80, channel=0, data=[83, 0]),
   midi.NoteOnEvent(tick=1, channel=0, data=[86, 64]),
   midi.NoteOnEvent(tick=79, channel=0, data=[77, 66]),
   midi.NoteOnEvent(tick=1, channel=0, data=[86, 0]),
   midi.NoteOnEvent(tick=79, channel=0, data=[77, 0]),
   midi.NoteOnEvent(tick=1, channel=0, data=[86, 67]),
   midi.NoteOnEvent(tick=80, channel=0, data=[86, 0]),
   midi.NoteOnEvent(tick=0, channel=0, data=[81, 64]),
   midi.NoteOnEvent(tick=79, channel=0, data=[84, 61]),
   midi.NoteOnEvent(tick=1, channel=0, data=[81, 0]),
   midi.NoteOnEvent(tick=79, channel=0, data=[84, 0]),
   midi.NoteOnEvent(tick=3, channel=0, data=[77, 59]),
   midi.NoteOnEvent(tick=76, channel=0, data=[74, 59]),
   midi.NoteOnEvent(tick=4, channel=0, data=[77, 0]),
   midi.NoteOnEvent(tick=75, channel=0, data=[69, 57]),
   midi.NoteOnEvent(tick=1, channel=0, data=[74, 0]),
   midi.NoteOnEvent(tick=79, channel=0, data=[69, 0]),
   midi.NoteOnEvent(tick=0, channel=0, data=[72, 55]),
   midi.NoteOnEvent(tick=80, channel=0, data=[72, 0]),
   midi.NoteOnEvent(tick=0, channel=0, data=[65, 55]),
   midi.NoteOnEvent(tick=80, channel=0, data=[65, 0]),
   midi.NoteOnEvent(tick=1, channel=0, data=[62, 55]),
   midi.NoteOnEvent(tick=80, channel=0, data=[62, 0]),
   midi.NoteOnEvent(tick=0, channel=0, data=[57, 55]),
   midi.NoteOnEvent(tick=80, channel=0, data=[57, 0]),
   midi.NoteOnEvent(tick=1, channel=0, data=[60, 55]),
   midi.NoteOnEvent(tick=80, channel=0, data=[60, 0]),
   midi.NoteOnEvent(tick=2, channel=0, data=[53, 55]),
   midi.NoteOnEvent(tick=78, channel=0, data=[64, 57]),
   midi.NoteOnEvent(tick=2, channel=0, data=[53, 0]),
   midi.NoteOnEvent(tick=76, channel=0, data=[59, 57]),
   midi.NoteOnEvent(tick=2, channel=0, data=[64, 0]),
   midi.NoteOnEvent(tick=78, channel=0, data=[59, 0]),
   midi.NoteOnEvent(tick=3, channel=0, data=[62, 57]),
   midi.NoteOnEvent(tick=80, channel=0, data=[62, 0]),
   midi.NoteOnEvent(tick=2, channel=0, data=[65, 57]),
   midi.NoteOnEvent(tick=79, channel=0, data=[76, 57]),
   midi.NoteOnEvent(tick=1, channel=0, data=[65, 0]),
   midi.NoteOnEvent(tick=76, channel=0, data=[71, 57]),
   midi.NoteOnEvent(tick=3, channel=0, data=[76, 0]),
   midi.NoteOnEvent(tick=77, channel=0, data=[71, 0]),
   midi.NoteOnEvent(tick=4, channel=0, data=[74, 60]),
   midi.NoteOnEvent(tick=76, channel=0, data=[77, 60]),
   midi.NoteOnEvent(tick=4, channel=0, data=[74, 0]),
   midi.NoteOnEvent(tick=75, channel=0, data=[88, 61]),
   midi.NoteOnEvent(tick=1, channel=0, data=[77, 0]),
   midi.NoteOnEvent(tick=79, channel=0, data=[88, 0]),
   midi.NoteOnEvent(tick=3, channel=0, data=[83, 64]),
   midi.NoteOnEvent(tick=77, channel=0, data=[86, 64]),
   midi.NoteOnEvent(tick=3, channel=0, data=[83, 0]),
   midi.NoteOnEvent(tick=77, channel=0, data=[86, 0]),
   midi.NoteOnEvent(tick=5, channel=0, data=[76, 66]),
   midi.NoteOnEvent(tick=78, channel=0, data=[86, 66]),
   midi.NoteOnEvent(tick=2, channel=0, data=[76, 0]),
   midi.NoteOnEvent(tick=77, channel=0, data=[81, 64]),
   midi.NoteOnEvent(tick=1, channel=0, data=[86, 0]),
   midi.NoteOnEvent(tick=77, channel=0, data=[84, 61]),
   midi.NoteOnEvent(tick=2, channel=0, data=[81, 0]),
   midi.NoteOnEvent(tick=78, channel=0, data=[84, 0]),
   midi.NoteOnEvent(tick=1, channel=0, data=[76, 59]),
   midi.NoteOnEvent(tick=80, channel=0, data=[76, 0]),
   midi.NoteOnEvent(tick=4, channel=0, data=[74, 58]),
   midi.NoteOnEvent(tick=78, channel=0, data=[69, 56]),
   midi.NoteOnEvent(tick=2, channel=0, data=[74, 0]),
   midi.NoteOnEvent(tick=75, channel=0, data=[72, 56]),
   midi.NoteOnEvent(tick=3, channel=0, data=[69, 0]),
   midi.NoteOnEvent(tick=77, channel=0, data=[72, 0]),
   midi.NoteOnEvent(tick=0, channel=0, data=[64, 56]),
   midi.NoteOnEvent(tick=80, channel=0, data=[64, 0]),
   midi.NoteOnEvent(tick=3, channel=0, data=[62, 56]),
   midi.NoteOnEvent(tick=80, channel=0, data=[62, 0]),
   midi.NoteOnEvent(tick=2, channel=0, data=[57, 56]),
   midi.NoteOnEvent(tick=78, channel=0, data=[60, 56]),
   midi.NoteOnEvent(tick=2, channel=0, data=[57, 0]),
   midi.NoteOnEvent(tick=76, channel=0, data=[59, 56]),
   midi.NoteOnEvent(tick=2, channel=0, data=[60, 0]),
   midi.NoteOnEvent(tick=78, channel=0, data=[59, 0]),
   midi.NoteOnEvent(tick=1, channel=0, data=[69, 57]),
   midi.NoteOnEvent(tick=80, channel=0, data=[69, 0]),
   midi.NoteOnEvent(tick=3, channel=0, data=[64, 55]),
   midi.NoteOnEvent(tick=75, channel=0, data=[68, 55]),
   midi.NoteOnEvent(tick=5, channel=0, data=[64, 0]),
   midi.NoteOnEvent(tick=75, channel=0, data=[68, 0]),
   midi.NoteOnEvent(tick=2, channel=0, data=[71, 55]),
   midi.NoteOnEvent(tick=80, channel=0, data=[71, 0]),
   midi.NoteOnEvent(tick=1, channel=0, data=[81, 55]),
   midi.NoteOnEvent(tick=79, channel=0, data=[76, 55]),
   midi.NoteOnEvent(tick=1, channel=0, data=[81, 0]),
   midi.NoteOnEvent(tick=78, channel=0, data=[80, 55]),
   midi.NoteOnEvent(tick=1, channel=0, data=[76, 0]),
   midi.NoteOnEvent(tick=79, channel=0, data=[80, 0]),
   midi.NoteOnEvent(tick=2, channel=0, data=[83, 55]),
   midi.NoteOnEvent(tick=78, channel=0, data=[93, 56]),
   midi.NoteOnEvent(tick=2, channel=0, data=[83, 0]),
   midi.NoteOnEvent(tick=78, channel=0, data=[93, 0]),
   midi.NoteOnEvent(tick=0, channel=0, data=[88, 57]),
   midi.NoteOnEvent(tick=80, channel=0, data=[88, 0]),
   midi.NoteOnEvent(tick=2, channel=0, data=[92, 59]),
   midi.NoteOnEvent(tick=80, channel=0, data=[92, 0]),
   midi.NoteOnEvent(tick=2, channel=0, data=[83, 59]),
   midi.NoteOnEvent(tick=77, channel=0, data=[92, 59]),
   midi.NoteOnEvent(tick=3, channel=0, data=[83, 0]),
   midi.NoteOnEvent(tick=76, channel=0, data=[87, 59]),
   midi.NoteOnEvent(tick=1, channel=0, data=[92, 0]),
   midi.NoteOnEvent(tick=79, channel=0, data=[87, 0]),
   midi.NoteOnEvent(tick=3, channel=0, data=[90, 59]),
   midi.NoteOnEvent(tick=78, channel=0, data=[83, 58]),
   midi.NoteOnEvent(tick=2, channel=0, data=[90, 0]),
   midi.NoteOnEvent(tick=78, channel=0, data=[83, 0]),
   midi.NoteOnEvent(tick=1, channel=0, data=[80, 57]),
   midi.NoteOnEvent(tick=79, channel=0, data=[75, 56]),
   midi.NoteOnEvent(tick=1, channel=0, data=[80, 0]),
   midi.NoteOnEvent(tick=79, channel=0, data=[75, 0]),
   midi.NoteOnEvent(tick=3, channel=0, data=[78, 51]),
   midi.NoteOnEvent(tick=75, channel=0, data=[71, 51]),
   midi.NoteOnEvent(tick=5, channel=0, data=[78, 0]),
   midi.NoteOnEvent(tick=75, channel=0, data=[71, 0]),
   midi.NoteOnEvent(tick=3, channel=0, data=[68, 51]),
   midi.NoteOnEvent(tick=77, channel=0, data=[63, 51]),
   midi.NoteOnEvent(tick=3, channel=0, data=[68, 0]),
   midi.NoteOnEvent(tick=77, channel=0, data=[63, 0]),
   midi.NoteOnEvent(tick=1, channel=0, data=[66, 51]),
   midi.NoteOnEvent(tick=79, channel=0, data=[59, 51]),
   midi.NoteOnEvent(tick=1, channel=0, data=[66, 0]),
   midi.NoteOnEvent(tick=79, channel=0, data=[59, 0]),
   midi.NoteOnEvent(tick=0, channel=0, data=[69, 51]),
   midi.NoteOnEvent(tick=80, channel=0, data=[69, 0]),
   midi.NoteOnEvent(tick=4, channel=0, data=[64, 51]),
   midi.NoteOnEvent(tick=80, channel=0, data=[64, 0]),
   midi.NoteOnEvent(tick=0, channel=0, data=[68, 51]),
   midi.NoteOnEvent(tick=78, channel=0, data=[71, 51]),
   midi.NoteOnEvent(tick=2, channel=0, data=[68, 0]),
   midi.NoteOnEvent(tick=78, channel=0, data=[71, 0]),
   midi.NoteOnEvent(tick=0, channel=0, data=[81, 51]),
   midi.NoteOnEvent(tick=80, channel=0, data=[81, 0]),
   midi.NoteOnEvent(tick=1, channel=0, data=[76, 51]),
   midi.NoteOnEvent(tick=79, channel=0, data=[80, 51]),
   midi.NoteOnEvent(tick=1, channel=0, data=[76, 0]),
   midi.NoteOnEvent(tick=79, channel=0, data=[80, 0]),
   midi.NoteOnEvent(tick=1, channel=0, data=[83, 57]),
   midi.NoteOnEvent(tick=77, channel=0, data=[93, 57]),
   midi.NoteOnEvent(tick=3, channel=0, data=[83, 0]),
   midi.NoteOnEvent(tick=77, channel=0, data=[93, 0]),
   midi.NoteOnEvent(tick=4, channel=0, data=[88, 57]),
   midi.NoteOnEvent(tick=78, channel=0, data=[92, 57]),
   midi.NoteOnEvent(tick=2, channel=0, data=[88, 0]),
   midi.NoteOnEvent(tick=78, channel=0, data=[92, 0]),
   midi.NoteOnEvent(tick=3, channel=0, data=[83, 57]),
   midi.NoteOnEvent(tick=77, channel=0, data=[100, 76]),
   midi.NoteOnEvent(tick=3, channel=0, data=[83, 0]),
   midi.NoteOnEvent(tick=237, channel=0, data=[100, 0]),
   midi.NoteOnEvent(tick=721, channel=0, data=[101, 99]),
   midi.NoteOnEvent(tick=80, channel=0, data=[101, 0]),
   midi.NoteOnEvent(tick=2, channel=0, data=[96, 67]),
   midi.NoteOnEvent(tick=77, channel=0, data=[100, 89]),
   midi.NoteOnEvent(tick=3, channel=0, data=[96, 0]),
   midi.NoteOnEvent(tick=77, channel=0, data=[100, 0]),
   midi.NoteOnEvent(tick=2, channel=0, data=[93, 67]),
   midi.NoteOnEvent(tick=79, channel=0, data=[99, 82]),
   midi.NoteOnEvent(tick=1, channel=0, data=[93, 0]),
   midi.NoteOnEvent(tick=78, channel=0, data=[96, 67]),
   midi.NoteOnEvent(tick=1, channel=0, data=[99, 0]),
   midi.NoteOnEvent(tick=79, channel=0, data=[96, 0]),
   midi.NoteOnEvent(tick=2, channel=0, data=[98, 79]),
   midi.NoteOnEvent(tick=80, channel=0, data=[98, 0]),
   midi.NoteOnEvent(tick=1, channel=0, data=[93, 62]),
   midi.NoteOnEvent(tick=75, channel=0, data=[97, 77]),
   midi.NoteOnEvent(tick=5, channel=0, data=[93, 0]),
   midi.NoteOnEvent(tick=75, channel=0, data=[97, 0]),
   midi.NoteOnEvent(tick=4, channel=0, data=[93, 62]),
   midi.NoteOnEvent(tick=78, channel=0, data=[96, 77]),
   midi.NoteOnEvent(tick=2, channel=0, data=[93, 0]),
   midi.NoteOnEvent(tick=77, channel=0, data=[88, 62]),
   midi.NoteOnEvent(tick=1, channel=0, data=[96, 0]),
   midi.NoteOnEvent(tick=79, channel=0, data=[88, 0]),
   midi.NoteOnEvent(tick=3, channel=0, data=[95, 74]),
   midi.NoteOnEvent(tick=80, channel=0, data=[95, 0]),
   midi.NoteOnEvent(tick=0, channel=0, data=[88, 67]),
   midi.NoteOnEvent(tick=77, channel=0, data=[94, 75]),
   midi.NoteOnEvent(tick=3, channel=0, data=[88, 0]),
   midi.NoteOnEvent(tick=77, channel=0, data=[94, 0]),
   midi.NoteOnEvent(tick=2, channel=0, data=[84, 67]),
   midi.NoteOnEvent(tick=78, channel=0, data=[93, 75]),
   midi.NoteOnEvent(tick=2, channel=0, data=[84, 0]),
   midi.NoteOnEvent(tick=77, channel=0, data=[88, 67]),
   midi.NoteOnEvent(tick=1, channel=0, data=[93, 0]),
   midi.NoteOnEvent(tick=79, channel=0, data=[88, 0]),
   midi.NoteOnEvent(tick=4, channel=0, data=[92, 73]),
   midi.NoteOnEvent(tick=78, channel=0, data=[84, 62]),
   midi.NoteOnEvent(tick=2, channel=0, data=[92, 0]),
   midi.NoteOnEvent(tick=77, channel=0, data=[91, 70]),
   midi.NoteOnEvent(tick=1, channel=0, data=[84, 0]),
   midi.NoteOnEvent(tick=79, channel=0, data=[91, 0]),
   midi.NoteOnEvent(tick=0, channel=0, data=[84, 62]),
   midi.NoteOnEvent(tick=80, channel=0, data=[84, 0]),
   midi.NoteOnEvent(tick=2, channel=0, data=[90, 67]),
   midi.NoteOnEvent(tick=78, channel=0, data=[81, 62]),
   midi.NoteOnEvent(tick=2, channel=0, data=[90, 0]),
   midi.NoteOnEvent(tick=78, channel=0, data=[81, 0]),
   midi.NoteOnEvent(tick=0, channel=0, data=[89, 70]),
   midi.NoteOnEvent(tick=80, channel=0, data=[89, 0]),
   midi.NoteOnEvent(tick=0, channel=0, data=[84, 67]),
   midi.NoteOnEvent(tick=80, channel=0, data=[84, 0]),
   midi.NoteOnEvent(tick=2, channel=0, data=[88, 70]),
   midi.NoteOnEvent(tick=80, channel=0, data=[88, 0]),
   midi.NoteOnEvent(tick=1, channel=0, data=[81, 67]),
   midi.NoteOnEvent(tick=80, channel=0, data=[81, 0]),
   midi.NoteOnEvent(tick=0, channel=0, data=[87, 70]),
   midi.NoteOnEvent(tick=79, channel=0, data=[84, 67]),
   midi.NoteOnEvent(tick=1, channel=0, data=[87, 0]),
   midi.NoteOnEvent(tick=76, channel=0, data=[86, 70]),
   midi.NoteOnEvent(tick=3, channel=0, data=[84, 0]),
   midi.NoteOnEvent(tick=77, channel=0, data=[86, 0]),
   midi.NoteOnEvent(tick=1, channel=0, data=[81, 62]),
   midi.NoteOnEvent(tick=80, channel=0, data=[81, 0]),
   midi.NoteOnEvent(tick=4, channel=0, data=[85, 67]),
   midi.NoteOnEvent(tick=76, channel=0, data=[81, 62]),
   midi.NoteOnEvent(tick=4, channel=0, data=[85, 0]),
   midi.NoteOnEvent(tick=76, channel=0, data=[81, 0]),
   midi.NoteOnEvent(tick=0, channel=0, data=[84, 67]),
   midi.NoteOnEvent(tick=79, channel=0, data=[76, 62]),
   midi.NoteOnEvent(tick=1, channel=0, data=[84, 0]),
   midi.NoteOnEvent(tick=79, channel=0, data=[76, 0]),
   midi.NoteOnEvent(tick=2, channel=0, data=[83, 67]),
   midi.NoteOnEvent(tick=79, channel=0, data=[76, 62]),
   midi.NoteOnEvent(tick=1, channel=0, data=[83, 0]),
   midi.NoteOnEvent(tick=79, channel=0, data=[76, 0]),
   midi.NoteOnEvent(tick=4, channel=0, data=[82, 67]),
   midi.NoteOnEvent(tick=76, channel=0, data=[72, 62]),
   midi.NoteOnEvent(tick=4, channel=0, data=[82, 0]),
   midi.NoteOnEvent(tick=76, channel=0, data=[72, 0]),
   midi.NoteOnEvent(tick=0, channel=0, data=[81, 67]),
   midi.NoteOnEvent(tick=80, channel=0, data=[81, 0]),
   midi.NoteOnEvent(tick=2, channel=0, data=[76, 62]),
   midi.NoteOnEvent(tick=80, channel=0, data=[76, 0]),
   midi.NoteOnEvent(tick=1, channel=0, data=[80, 67]),
   midi.NoteOnEvent(tick=79, channel=0, data=[72, 62]),
   midi.NoteOnEvent(tick=1, channel=0, data=[80, 0]),
   midi.NoteOnEvent(tick=77, channel=0, data=[79, 67]),
   midi.NoteOnEvent(tick=2, channel=0, data=[72, 0]),
   midi.NoteOnEvent(tick=78, channel=0, data=[79, 0]),
   midi.NoteOnEvent(tick=3, channel=0, data=[72, 62]),
   midi.NoteOnEvent(tick=78, channel=0, data=[78, 67]),
   midi.NoteOnEvent(tick=2, channel=0, data=[72, 0]),
   midi.NoteOnEvent(tick=78, channel=0, data=[78, 0]),
   midi.NoteOnEvent(tick=2, channel=0, data=[69, 62]),
   midi.NoteOnEvent(tick=76, channel=0, data=[77, 53]),
   midi.NoteOnEvent(tick=4, channel=0, data=[69, 0]),
   midi.NoteOnEvent(tick=76, channel=0, data=[77, 0]),
   midi.NoteOnEvent(tick=4, channel=0, data=[72, 49]),
   midi.NoteOnEvent(tick=79, channel=0, data=[76, 53]),
   midi.NoteOnEvent(tick=1, channel=0, data=[72, 0]),
   midi.NoteOnEvent(tick=76, channel=0, data=[69, 49]),
   midi.NoteOnEvent(tick=3, channel=0, data=[76, 0]),
   midi.NoteOnEvent(tick=77, channel=0, data=[69, 0]),
   midi.NoteOnEvent(tick=4, channel=0, data=[75, 53]),
   midi.NoteOnEvent(tick=78, channel=0, data=[72, 49]),
   midi.NoteOnEvent(tick=2, channel=0, data=[75, 0]),
   midi.NoteOnEvent(tick=78, channel=0, data=[72, 0]),
   midi.NoteOnEvent(tick=1, channel=0, data=[74, 53]),
   midi.NoteOnEvent(tick=80, channel=0, data=[74, 0]),
   midi.NoteOnEvent(tick=2, channel=0, data=[69, 49]),
   midi.NoteOnEvent(tick=78, channel=0, data=[73, 53]),
   midi.NoteOnEvent(tick=2, channel=0, data=[69, 0]),
   midi.NoteOnEvent(tick=77, channel=0, data=[69, 49]),
   midi.NoteOnEvent(tick=1, channel=0, data=[73, 0]),
   midi.NoteOnEvent(tick=77, channel=0, data=[72, 53]),
   midi.NoteOnEvent(tick=2, channel=0, data=[69, 0]),
   midi.NoteOnEvent(tick=78, channel=0, data=[72, 0]),
   midi.NoteOnEvent(tick=4, channel=0, data=[64, 49]),
   midi.NoteOnEvent(tick=79, channel=0, data=[71, 53]),
   midi.NoteOnEvent(tick=1, channel=0, data=[64, 0]),
   midi.NoteOnEvent(tick=78, channel=0, data=[64, 49]),
   midi.NoteOnEvent(tick=1, channel=0, data=[71, 0]),
   midi.NoteOnEvent(tick=79, channel=0, data=[64, 0]),
   midi.NoteOnEvent(tick=1, channel=0, data=[70, 51]),
   midi.NoteOnEvent(tick=80, channel=0, data=[70, 0]),
   midi.NoteOnEvent(tick=1, channel=0, data=[60, 48]),
   midi.NoteOnEvent(tick=76, channel=0, data=[69, 50]),
   midi.NoteOnEvent(tick=4, channel=0, data=[60, 0]),
   midi.NoteOnEvent(tick=76, channel=0, data=[69, 0]),
   midi.NoteOnEvent(tick=0, channel=0, data=[64, 45]),
   midi.NoteOnEvent(tick=80, channel=0, data=[64, 0]),
   midi.NoteOnEvent(tick=3, channel=0, data=[68, 49]),
   midi.NoteOnEvent(tick=80, channel=0, data=[68, 0]),
   midi.NoteOnEvent(tick=1, channel=0, data=[60, 44]),
   midi.NoteOnEvent(tick=77, channel=0, data=[67, 47]),
   midi.NoteOnEvent(tick=3, channel=0, data=[60, 0]),
   midi.NoteOnEvent(tick=77, channel=0, data=[67, 0]),
   midi.NoteOnEvent(tick=3, channel=0, data=[60, 44]),
   midi.NoteOnEvent(tick=80, channel=0, data=[60, 0]),
   midi.NoteOnEvent(tick=1, channel=0, data=[66, 45]),
   midi.NoteOnEvent(tick=79, channel=0, data=[57, 42]),
   midi.NoteOnEvent(tick=1, channel=0, data=[66, 0]),
   midi.NoteOnEvent(tick=76, channel=0, data=[65, 45]),
   midi.NoteOnEvent(tick=3, channel=0, data=[57, 0]),
   midi.NoteOnEvent(tick=77, channel=0, data=[65, 0]),
   midi.NoteOnEvent(tick=2, channel=0, data=[60, 42]),
   midi.NoteOnEvent(tick=79, channel=0, data=[64, 45]),
   midi.NoteOnEvent(tick=1, channel=0, data=[60, 0]),
   midi.NoteOnEvent(tick=77, channel=0, data=[57, 42]),
   midi.NoteOnEvent(tick=2, channel=0, data=[64, 0]),
   midi.NoteOnEvent(tick=78, channel=0, data=[57, 0]),
   midi.NoteOnEvent(tick=2, channel=0, data=[63, 44]),
   midi.NoteOnEvent(tick=78, channel=0, data=[60, 40]),
   midi.NoteOnEvent(tick=2, channel=0, data=[63, 0]),
   midi.NoteOnEvent(tick=78, channel=0, data=[60, 0]),
   midi.NoteOnEvent(tick=4, channel=0, data=[62, 42]),
   midi.NoteOnEvent(tick=76, channel=0, data=[57, 39]),
   midi.NoteOnEvent(tick=4, channel=0, data=[62, 0]),
   midi.NoteOnEvent(tick=76, channel=0, data=[57, 0]),
   midi.NoteOnEvent(tick=4, channel=0, data=[61, 42]),
   midi.NoteOnEvent(tick=80, channel=0, data=[61, 0]),
   midi.NoteOnEvent(tick=0, channel=0, data=[57, 39]),
   midi.NoteOnEvent(tick=80, channel=0, data=[57, 0]),
   midi.NoteOnEvent(tick=0, channel=0, data=[60, 40]),
   midi.NoteOnEvent(tick=80, channel=0, data=[60, 0]),
   midi.NoteOnEvent(tick=1, channel=0, data=[52, 38]),
   midi.NoteOnEvent(tick=79, channel=0, data=[59, 40]),
   midi.NoteOnEvent(tick=1, channel=0, data=[52, 0]),
   midi.NoteOnEvent(tick=78, channel=0, data=[53, 39]),
   midi.NoteOnEvent(tick=1, channel=0, data=[59, 0]),
   midi.NoteOnEvent(tick=77, channel=0, data=[57, 45]),
   midi.NoteOnEvent(tick=2, channel=0, data=[53, 0]),
   midi.NoteOnEvent(tick=77, channel=0, data=[48, 42]),
   midi.NoteOnEvent(tick=1, channel=0, data=[57, 0]),
   midi.NoteOnEvent(tick=79, channel=0, data=[48, 0]),
   midi.NoteOnEvent(tick=1, channel=0, data=[56, 47]),
   midi.NoteOnEvent(tick=80, channel=0, data=[56, 0]),
   midi.NoteOnEvent(tick=3, channel=0, data=[53, 45]),
   midi.NoteOnEvent(tick=80, channel=0, data=[53, 0]),
   midi.NoteOnEvent(tick=1, channel=0, data=[57, 50]),
   midi.NoteOnEvent(tick=77, channel=0, data=[48, 48]),
   midi.NoteOnEvent(tick=3, channel=0, data=[57, 0]),
   midi.NoteOnEvent(tick=76, channel=0, data=[59, 53]),
   midi.NoteOnEvent(tick=1, channel=0, data=[48, 0]),
   midi.NoteOnEvent(tick=79, channel=0, data=[59, 0]),
   midi.NoteOnEvent(tick=3, channel=0, data=[52, 50]),
   midi.NoteOnEvent(tick=79, channel=0, data=[60, 56]),
   midi.NoteOnEvent(tick=1, channel=0, data=[52, 0]),
   midi.NoteOnEvent(tick=78, channel=0, data=[48, 53]),
   midi.NoteOnEvent(tick=1, channel=0, data=[60, 0]),
   midi.NoteOnEvent(tick=79, channel=0, data=[48, 0]),
   midi.NoteOnEvent(tick=0, channel=0, data=[60, 57]),
   midi.NoteOnEvent(tick=80, channel=0, data=[60, 0]),
   midi.NoteOnEvent(tick=3, channel=0, data=[53, 57]),
   midi.NoteOnEvent(tick=77, channel=0, data=[59, 57]),
   midi.NoteOnEvent(tick=3, channel=0, data=[53, 0]),
   midi.NoteOnEvent(tick=73, channel=0, data=[59, 0]),
   midi.NoteOnEvent(tick=7, channel=0, data=[59, 57]),
   midi.NoteOnEvent(tick=76, channel=0, data=[72, 57]),
   midi.NoteOnEvent(tick=4, channel=0, data=[59, 0]),
   midi.NoteOnEvent(tick=76, channel=0, data=[72, 0]),
   midi.NoteOnEvent(tick=2, channel=0, data=[65, 57]),
   midi.NoteOnEvent(tick=79, channel=0, data=[71, 56]),
   midi.NoteOnEvent(tick=1, channel=0, data=[65, 0]),
   midi.NoteOnEvent(tick=74, channel=0, data=[71, 0]),
   midi.NoteOnEvent(tick=5, channel=0, data=[71, 57]),
   midi.NoteOnEvent(tick=80, channel=0, data=[71, 0]),
   midi.NoteOnEvent(tick=3, channel=0, data=[84, 58]),
   midi.NoteOnEvent(tick=77, channel=0, data=[77, 59]),
   midi.NoteOnEvent(tick=3, channel=0, data=[84, 0]),
   midi.NoteOnEvent(tick=77, channel=0, data=[77, 0]),
   midi.NoteOnEvent(tick=0, channel=0, data=[83, 59]),
   midi.NoteOnEvent(tick=75, channel=0, data=[83, 0]),
   midi.NoteOnEvent(tick=5, channel=0, data=[83, 60]),
   midi.NoteOnEvent(tick=80, channel=0, data=[83, 0]),
   midi.NoteOnEvent(tick=1, channel=0, data=[96, 61]),
   midi.NoteOnEvent(tick=80, channel=0, data=[96, 0]),
   midi.NoteOnEvent(tick=1, channel=0, data=[90, 61]),
   midi.NoteOnEvent(tick=76, channel=0, data=[95, 60]),
   midi.NoteOnEvent(tick=4, channel=0, data=[90, 0]),
   midi.NoteOnEvent(tick=76, channel=0, data=[95, 0]),
   midi.NoteOnEvent(tick=3, channel=0, data=[83, 59]),
   midi.NoteOnEvent(tick=78, channel=0, data=[84, 59]),
   midi.NoteOnEvent(tick=2, channel=0, data=[83, 0]),
   midi.NoteOnEvent(tick=78, channel=0, data=[84, 0]),
   midi.NoteOnEvent(tick=0, channel=0, data=[78, 58]),
   midi.NoteOnEvent(tick=80, channel=0, data=[78, 0]),
   midi.NoteOnEvent(tick=3, channel=0, data=[83, 56]),
   midi.NoteOnEvent(tick=80, channel=0, data=[83, 0]),
   midi.NoteOnEvent(tick=1, channel=0, data=[71, 56]),
   midi.NoteOnEvent(tick=79, channel=0, data=[72, 56]),
   midi.NoteOnEvent(tick=1, channel=0, data=[71, 0]),
   midi.NoteOnEvent(tick=79, channel=0, data=[72, 0]),
   midi.NoteOnEvent(tick=1, channel=0, data=[66, 56]),
   midi.NoteOnEvent(tick=78, channel=0, data=[71, 56]),
   midi.NoteOnEvent(tick=2, channel=0, data=[66, 0]),
   midi.NoteOnEvent(tick=78, channel=0, data=[71, 0]),
   midi.NoteOnEvent(tick=2, channel=0, data=[59, 56]),
   midi.NoteOnEvent(tick=80, channel=0, data=[59, 0]),
   midi.NoteOnEvent(tick=0, channel=0, data=[74, 59]),
   midi.NoteOnEvent(tick=78, channel=0, data=[67, 59]),
   midi.NoteOnEvent(tick=2, channel=0, data=[74, 0]),
   midi.NoteOnEvent(tick=77, channel=0, data=[73, 60]),
   midi.NoteOnEvent(tick=1, channel=0, data=[67, 0]),
   midi.NoteOnEvent(tick=74, channel=0, data=[73, 0]),
   midi.NoteOnEvent(tick=5, channel=0, data=[73, 61]),
   midi.NoteOnEvent(tick=78, channel=0, data=[86, 61]),
   midi.NoteOnEvent(tick=2, channel=0, data=[73, 0]),
   midi.NoteOnEvent(tick=78, channel=0, data=[86, 0]),
   midi.NoteOnEvent(tick=4, channel=0, data=[77, 64]),
   midi.NoteOnEvent(tick=78, channel=0, data=[85, 66]),
   midi.NoteOnEvent(tick=2, channel=0, data=[77, 0]),
   midi.NoteOnEvent(tick=73, channel=0, data=[85, 0]),
   midi.NoteOnEvent(tick=5, channel=0, data=[85, 66]),
   midi.NoteOnEvent(tick=80, channel=0, data=[85, 0]),
   midi.NoteOnEvent(tick=1, channel=0, data=[98, 67]),
   midi.NoteOnEvent(tick=80, channel=0, data=[98, 0]),
   midi.NoteOnEvent(tick=1, channel=0, data=[91, 68]),
   midi.NoteOnEvent(tick=80, channel=0, data=[91, 0]),
   midi.NoteOnEvent(tick=0, channel=0, data=[97, 68]),
   midi.NoteOnEvent(tick=80, channel=0, data=[97, 0]),
   midi.NoteOnEvent(tick=1, channel=0, data=[85, 69]),
   midi.NoteOnEvent(tick=75, channel=0, data=[99, 69]),
   midi.NoteOnEvent(tick=5, channel=0, data=[85, 0]),
   midi.NoteOnEvent(tick=75, channel=0, data=[99, 0]),
   midi.NoteOnEvent(tick=2, channel=0, data=[94, 69]),
   midi.NoteOnEvent(tick=80, channel=0, data=[94, 0]),
   midi.NoteOnEvent(tick=1, channel=0, data=[98, 70]),
   midi.NoteOnEvent(tick=79, channel=0, data=[86, 71]),
   midi.NoteOnEvent(tick=1, channel=0, data=[98, 0]),
   midi.NoteOnEvent(tick=79, channel=0, data=[86, 0]),
   midi.NoteOnEvent(tick=0, channel=0, data=[87, 71]),
   midi.NoteOnEvent(tick=80, channel=0, data=[87, 0]),
   midi.NoteOnEvent(tick=2, channel=0, data=[82, 72]),
   midi.NoteOnEvent(tick=79, channel=0, data=[86, 73]),
   midi.NoteOnEvent(tick=1, channel=0, data=[82, 0]),
   midi.NoteOnEvent(tick=78, channel=0, data=[74, 73]),
   midi.NoteOnEvent(tick=1, channel=0, data=[86, 0]),
   midi.NoteOnEvent(tick=79, channel=0, data=[74, 0]),
   midi.NoteOnEvent(tick=1, channel=0, data=[75, 75]),
   midi.NoteOnEvent(tick=79, channel=0, data=[70, 78]),
   midi.NoteOnEvent(tick=1, channel=0, data=[75, 0]),
   midi.NoteOnEvent(tick=79, channel=0, data=[70, 0]),
   midi.NoteOnEvent(tick=2, channel=0, data=[74, 78]),
   midi.NoteOnEvent(tick=76, channel=0, data=[62, 79]),
   midi.NoteOnEvent(tick=4, channel=0, data=[74, 0]),
   midi.NoteOnEvent(tick=76, channel=0, data=[62, 0]),
   midi.NoteOnEvent(tick=0, channel=0, data=[76, 78]),
   midi.NoteOnEvent(tick=80, channel=0, data=[76, 0]),
   midi.NoteOnEvent(tick=5, channel=0, data=[69, 72]),
   midi.NoteOnEvent(tick=75, channel=0, data=[75, 78]),
   midi.NoteOnEvent(tick=5, channel=0, data=[69, 0]),
   midi.NoteOnEvent(tick=75, channel=0, data=[75, 0]),
   midi.NoteOnEvent(tick=2, channel=0, data=[63, 72]),
   midi.NoteOnEvent(tick=78, channel=0, data=[76, 78]),
   midi.NoteOnEvent(tick=2, channel=0, data=[63, 0]),
   midi.NoteOnEvent(tick=78, channel=0, data=[76, 0]),
   midi.NoteOnEvent(tick=2, channel=0, data=[69, 72]),
   midi.NoteOnEvent(tick=80, channel=0, data=[69, 0]),
   midi.NoteOnEvent(tick=0, channel=0, data=[75, 81]),
   midi.NoteOnEvent(tick=80, channel=0, data=[75, 0]),
   midi.NoteOnEvent(tick=0, channel=0, data=[75, 75]),
   midi.NoteOnEvent(tick=80, channel=0, data=[75, 0]),
   midi.NoteOnEvent(tick=0, channel=0, data=[88, 86]),
   midi.NoteOnEvent(tick=79, channel=0, data=[81, 79]),
   midi.NoteOnEvent(tick=1, channel=0, data=[88, 0]),
   midi.NoteOnEvent(tick=79, channel=0, data=[81, 0]),
   midi.NoteOnEvent(tick=1, channel=0, data=[87, 86]),
   midi.NoteOnEvent(tick=80, channel=0, data=[87, 0]),
   midi.NoteOnEvent(tick=0, channel=0, data=[87, 80]),
   midi.NoteOnEvent(tick=80, channel=0, data=[87, 0]),
   midi.NoteOnEvent(tick=3, channel=0, data=[100, 86]),
   midi.NoteOnEvent(tick=80, channel=0, data=[100, 0]),
   midi.NoteOnEvent(tick=0, channel=0, data=[93, 80]),
   midi.NoteOnEvent(tick=77, channel=0, data=[99, 86]),
   midi.NoteOnEvent(tick=3, channel=0, data=[93, 0]),
   midi.NoteOnEvent(tick=77, channel=0, data=[99, 0]),
   midi.NoteOnEvent(tick=0, channel=0, data=[87, 81]),
   midi.NoteOnEvent(tick=79, channel=0, data=[88, 86]),
   midi.NoteOnEvent(tick=1, channel=0, data=[87, 0]),
   midi.NoteOnEvent(tick=79, channel=0, data=[88, 0]),
   midi.NoteOnEvent(tick=4, channel=0, data=[81, 81]),
   midi.NoteOnEvent(tick=79, channel=0, data=[87, 86]),
   midi.NoteOnEvent(tick=1, channel=0, data=[81, 0]),
   midi.NoteOnEvent(tick=77, channel=0, data=[75, 80]),
   midi.NoteOnEvent(tick=2, channel=0, data=[87, 0]),
   midi.NoteOnEvent(tick=78, channel=0, data=[75, 0]),
   midi.NoteOnEvent(tick=2, channel=0, data=[88, 86]),
   midi.NoteOnEvent(tick=79, channel=0, data=[81, 86]),
   midi.NoteOnEvent(tick=1, channel=0, data=[88, 0]),
   midi.NoteOnEvent(tick=78, channel=0, data=[87, 86]),
   midi.NoteOnEvent(tick=1, channel=0, data=[81, 0]),
   midi.NoteOnEvent(tick=72, channel=0, data=[87, 0]),
   midi.NoteOnEvent(tick=7, channel=0, data=[87, 80]),
   midi.NoteOnEvent(tick=80, channel=0, data=[87, 0]),
   midi.NoteOnEvent(tick=2, channel=0, data=[100, 86]),
   midi.NoteOnEvent(tick=77, channel=0, data=[93, 80]),
   midi.NoteOnEvent(tick=3, channel=0, data=[100, 0]),
   midi.NoteOnEvent(tick=76, channel=0, data=[99, 86]),
   midi.NoteOnEvent(tick=1, channel=0, data=[93, 0]),
   midi.NoteOnEvent(tick=79, channel=0, data=[99, 0]),
   midi.NoteOnEvent(tick=3, channel=0, data=[87, 86]),
   midi.NoteOnEvent(tick=80, channel=0, data=[87, 0]),
   midi.NoteOnEvent(tick=1, channel=0, data=[88, 86]),
   midi.NoteOnEvent(tick=79, channel=0, data=[81, 80]),
   midi.NoteOnEvent(tick=1, channel=0, data=[88, 0]),
   midi.NoteOnEvent(tick=76, channel=0, data=[87, 82]),
   midi.NoteOnEvent(tick=3, channel=0, data=[81, 0]),
   midi.NoteOnEvent(tick=77, channel=0, data=[87, 0]),
   midi.NoteOnEvent(tick=3, channel=0, data=[75, 78]),
   midi.NoteOnEvent(tick=79, channel=0, data=[88, 82]),
   midi.NoteOnEvent(tick=1, channel=0, data=[75, 0]),
   midi.NoteOnEvent(tick=79, channel=0, data=[88, 0]),
   midi.NoteOnEvent(tick=3, channel=0, data=[81, 82]),
   midi.NoteOnEvent(tick=77, channel=0, data=[87, 82]),
   midi.NoteOnEvent(tick=3, channel=0, data=[81, 0]),
   midi.NoteOnEvent(tick=71, channel=0, data=[87, 0]),
   midi.NoteOnEvent(tick=6, channel=0, data=[87, 78]),
   midi.NoteOnEvent(tick=79, channel=0, data=[100, 80]),
   midi.NoteOnEvent(tick=1, channel=0, data=[87, 0]),
   midi.NoteOnEvent(tick=78, channel=0, data=[93, 68]),
   midi.NoteOnEvent(tick=1, channel=0, data=[100, 0]),
   midi.NoteOnEvent(tick=79, channel=0, data=[93, 0]),
   midi.NoteOnEvent(tick=1, channel=0, data=[99, 70]),
   midi.NoteOnEvent(tick=80, channel=0, data=[99, 0]),
   midi.NoteOnEvent(tick=1, channel=0, data=[87, 62]),
   midi.NoteOnEvent(tick=80, channel=0, data=[87, 0]),
   midi.NoteOnEvent(tick=1, channel=0, data=[100, 66]),
   midi.NoteOnEvent(tick=77, channel=0, data=[93, 60]),
   midi.NoteOnEvent(tick=3, channel=0, data=[100, 0]),
   midi.NoteOnEvent(tick=77, channel=0, data=[93, 0]),
   midi.NoteOnEvent(tick=2, channel=0, data=[99, 62]),
   midi.NoteOnEvent(tick=78, channel=0, data=[87, 58]),
   midi.NoteOnEvent(tick=2, channel=0, data=[99, 0]),
   midi.NoteOnEvent(tick=78, channel=0, data=[87, 0]),
   midi.NoteOnEvent(tick=5, channel=0, data=[100, 59]),
   midi.NoteOnEvent(tick=79, channel=0, data=[93, 53]),
   midi.NoteOnEvent(tick=1, channel=0, data=[100, 0]),
   midi.NoteOnEvent(tick=75, channel=0, data=[99, 55]),
   midi.NoteOnEvent(tick=4, channel=0, data=[93, 0]),
   midi.NoteOnEvent(tick=76, channel=0, data=[99, 0]),
   midi.NoteOnEvent(tick=0, channel=0, data=[87, 49]),
   midi.NoteOnEvent(tick=80, channel=0, data=[87, 0]),
   midi.NoteOnEvent(tick=4, channel=0, data=[100, 60]),
   midi.NoteOnEvent(tick=80, channel=0, data=[100, 0]),
   midi.NoteOnEvent(tick=1, channel=0, data=[95, 55]),
   midi.NoteOnEvent(tick=79, channel=0, data=[99, 61]),
   midi.NoteOnEvent(tick=1, channel=0, data=[95, 0]),
   midi.NoteOnEvent(tick=79, channel=0, data=[99, 0]),
   midi.NoteOnEvent(tick=0, channel=0, data=[93, 56]),
   midi.NoteOnEvent(tick=76, channel=0, data=[100, 62]),
   midi.NoteOnEvent(tick=4, channel=0, data=[93, 0]),
   midi.NoteOnEvent(tick=76, channel=0, data=[100, 0]),
   midi.NoteOnEvent(tick=4, channel=0, data=[95, 56]),
   midi.NoteOnEvent(tick=79, channel=0, data=[99, 63]),
   midi.NoteOnEvent(tick=1, channel=0, data=[95, 0]),
   midi.NoteOnEvent(tick=79, channel=0, data=[99, 0]),
   midi.NoteOnEvent(tick=0, channel=0, data=[93, 57]),
   midi.NoteOnEvent(tick=80, channel=0, data=[93, 0]),
   midi.NoteOnEvent(tick=2, channel=0, data=[100, 64]),
   midi.NoteOnEvent(tick=75, channel=0, data=[95, 60]),
   midi.NoteOnEvent(tick=5, channel=0, data=[100, 0]),
   midi.NoteOnEvent(tick=75, channel=0, data=[95, 0]),
   midi.NoteOnEvent(tick=5, channel=0, data=[99, 66]),
   midi.NoteOnEvent(tick=80, channel=0, data=[99, 0]),
   midi.NoteOnEvent(tick=0, channel=0, data=[93, 60]),
   midi.NoteOnEvent(tick=78, channel=0, data=[100, 67]),
   midi.NoteOnEvent(tick=2, channel=0, data=[93, 0]),
   midi.NoteOnEvent(tick=78, channel=0, data=[100, 0]),
   midi.NoteOnEvent(tick=2, channel=0, data=[95, 60]),
   midi.NoteOnEvent(tick=78, channel=0, data=[99, 68]),
   midi.NoteOnEvent(tick=2, channel=0, data=[95, 0]),
   midi.NoteOnEvent(tick=75, channel=0, data=[93, 62]),
   midi.NoteOnEvent(tick=3, channel=0, data=[99, 0]),
   midi.NoteOnEvent(tick=77, channel=0, data=[93, 0]),
   midi.NoteOnEvent(tick=5, channel=0, data=[100, 69]),
   midi.NoteOnEvent(tick=78, channel=0, data=[95, 63]),
   midi.NoteOnEvent(tick=2, channel=0, data=[100, 0]),
   midi.NoteOnEvent(tick=76, channel=0, data=[99, 70]),
   midi.NoteOnEvent(tick=2, channel=0, data=[95, 0]),
   midi.NoteOnEvent(tick=78, channel=0, data=[99, 0]),
   midi.NoteOnEvent(tick=0, channel=0, data=[93, 64]),
   midi.NoteOnEvent(tick=80, channel=0, data=[93, 0]),
   midi.NoteOnEvent(tick=2, channel=0, data=[100, 72]),
   midi.NoteOnEvent(tick=80, channel=0, data=[100, 0]),
   midi.NoteOnEvent(tick=2, channel=0, data=[95, 66]),
   midi.NoteOnEvent(tick=79, channel=0, data=[99, 73]),
   midi.NoteOnEvent(tick=1, channel=0, data=[95, 0]),
   midi.NoteOnEvent(tick=79, channel=0, data=[99, 0]),
   midi.NoteOnEvent(tick=1, channel=0, data=[93, 67]),
   midi.NoteOnEvent(tick=77, channel=0, data=[100, 74]),
   midi.NoteOnEvent(tick=3, channel=0, data=[93, 0]),
   midi.NoteOnEvent(tick=77, channel=0, data=[100, 0]),
   midi.NoteOnEvent(tick=3, channel=0, data=[95, 67]),
   midi.NoteOnEvent(tick=78, channel=0, data=[99, 75]),
   midi.NoteOnEvent(tick=2, channel=0, data=[95, 0]),
   midi.NoteOnEvent(tick=78, channel=0, data=[99, 0]),
   midi.NoteOnEvent(tick=1, channel=0, data=[93, 67]),
   midi.NoteOnEvent(tick=76, channel=0, data=[100, 77]),
   midi.NoteOnEvent(tick=4, channel=0, data=[93, 0]),
   midi.NoteOnEvent(tick=76, channel=0, data=[100, 0]),
   midi.NoteOnEvent(tick=4, channel=0, data=[95, 69]),
   midi.NoteOnEvent(tick=80, channel=0, data=[95, 0]),
   midi.NoteOnEvent(tick=0, channel=0, data=[99, 78]),
   midi.NoteOnEvent(tick=80, channel=0, data=[99, 0]),
   midi.NoteOnEvent(tick=1, channel=0, data=[93, 69]),
   midi.NoteOnEvent(tick=80, channel=0, data=[93, 0]),
   midi.NoteOnEvent(tick=0, channel=0, data=[100, 79]),
   midi.NoteOnEvent(tick=76, channel=0, data=[95, 69]),
   midi.NoteOnEvent(tick=4, channel=0, data=[100, 0]),
   midi.NoteOnEvent(tick=75, channel=0, data=[99, 80]),
   midi.NoteOnEvent(tick=1, channel=0, data=[95, 0]),
   midi.NoteOnEvent(tick=79, channel=0, data=[99, 0]),
   midi.NoteOnEvent(tick=1, channel=0, data=[93, 69]),
   midi.NoteOnEvent(tick=80, channel=0, data=[93, 0]),
   midi.NoteOnEvent(tick=0, channel=0, data=[100, 81]),
   midi.NoteOnEvent(tick=80, channel=0, data=[100, 0]),
   midi.NoteOnEvent(tick=4, channel=0, data=[95, 70]),
   midi.NoteOnEvent(tick=80, channel=0, data=[95, 0]),
   midi.NoteOnEvent(tick=0, channel=0, data=[99, 82]),
   midi.NoteOnEvent(tick=76, channel=0, data=[93, 74]),
   midi.NoteOnEvent(tick=4, channel=0, data=[99, 0]),
   midi.NoteOnEvent(tick=76, channel=0, data=[93, 0]),
   midi.NoteOnEvent(tick=0, channel=0, data=[100, 84]),
   midi.NoteOnEvent(tick=80, channel=0, data=[100, 0]),
   midi.NoteOnEvent(tick=4, channel=0, data=[95, 78]),
   midi.NoteOnEvent(tick=77, channel=0, data=[99, 86]),
   midi.NoteOnEvent(tick=3, channel=0, data=[95, 0]),
   midi.NoteOnEvent(tick=76, channel=0, data=[93, 78]),
   midi.NoteOnEvent(tick=1, channel=0, data=[99, 0]),
   midi.NoteOnEvent(tick=79, channel=0, data=[93, 0]),
   midi.NoteOnEvent(tick=4, channel=0, data=[100, 88]),
   midi.NoteOnEvent(tick=79, channel=0, data=[95, 80]),
   midi.NoteOnEvent(tick=1, channel=0, data=[100, 0]),
   midi.NoteOnEvent(tick=77, channel=0, data=[99, 89]),
   midi.NoteOnEvent(tick=2, channel=0, data=[95, 0]),
   midi.NoteOnEvent(tick=78, channel=0, data=[99, 0]),
   midi.NoteOnEvent(tick=0, channel=0, data=[93, 81]),
   midi.NoteOnEvent(tick=80, channel=0, data=[93, 0]),
   midi.NoteOnEvent(tick=1, channel=0, data=[101, 89]),
   midi.NoteOnEvent(tick=80, channel=0, data=[101, 0]),
   midi.NoteOnEvent(tick=0, channel=0, data=[96, 82]),
   midi.NoteOnEvent(tick=80, channel=0, data=[96, 0]),
   midi.NoteOnEvent(tick=2, channel=0, data=[100, 89]),
   midi.NoteOnEvent(tick=79, channel=0, data=[93, 82]),
   midi.NoteOnEvent(tick=1, channel=0, data=[100, 0]),
   midi.NoteOnEvent(tick=79, channel=0, data=[93, 0]),
   midi.NoteOnEvent(tick=0, channel=0, data=[98, 79]),
   midi.NoteOnEvent(tick=78, channel=0, data=[93, 72]),
   midi.NoteOnEvent(tick=2, channel=0, data=[98, 0]),
   midi.NoteOnEvent(tick=78, channel=0, data=[93, 0]),
   midi.NoteOnEvent(tick=1, channel=0, data=[96, 79]),
   midi.NoteOnEvent(tick=80, channel=0, data=[96, 0]),
   midi.NoteOnEvent(tick=2, channel=0, data=[88, 75]),
   midi.NoteOnEvent(tick=78, channel=0, data=[95, 79]),
   midi.NoteOnEvent(tick=2, channel=0, data=[88, 0]),
   midi.NoteOnEvent(tick=76, channel=0, data=[88, 75]),
   midi.NoteOnEvent(tick=2, channel=0, data=[95, 0]),
   midi.NoteOnEvent(tick=78, channel=0, data=[88, 0]),
   midi.NoteOnEvent(tick=1, channel=0, data=[93, 79]),
   midi.NoteOnEvent(tick=80, channel=0, data=[93, 0]),
   midi.NoteOnEvent(tick=1, channel=0, data=[84, 72]),
   midi.NoteOnEvent(tick=80, channel=0, data=[84, 0]),
   midi.NoteOnEvent(tick=1, channel=0, data=[89, 79]),
   midi.NoteOnEvent(tick=78, channel=0, data=[84, 73]),
   midi.NoteOnEvent(tick=2, channel=0, data=[89, 0]),
   midi.NoteOnEvent(tick=78, channel=0, data=[84, 0]),
   midi.NoteOnEvent(tick=2, channel=0, data=[88, 79]),
   midi.NoteOnEvent(tick=77, channel=0, data=[81, 72]),
   midi.NoteOnEvent(tick=3, channel=0, data=[88, 0]),
   midi.NoteOnEvent(tick=76, channel=0, data=[86, 79]),
   midi.NoteOnEvent(tick=1, channel=0, data=[81, 0]),
   midi.NoteOnEvent(tick=79, channel=0, data=[86, 0]),
   midi.NoteOnEvent(tick=0, channel=0, data=[81, 73]),
   midi.NoteOnEvent(tick=80, channel=0, data=[81, 0]),
   midi.NoteOnEvent(tick=0, channel=0, data=[84, 79]),
   midi.NoteOnEvent(tick=80, channel=0, data=[84, 0]),
   midi.NoteOnEvent(tick=2, channel=0, data=[76, 72]),
   midi.NoteOnEvent(tick=79, channel=0, data=[83, 79]),
   midi.NoteOnEvent(tick=1, channel=0, data=[76, 0]),
   midi.NoteOnEvent(tick=79, channel=0, data=[83, 0]),
   midi.NoteOnEvent(tick=2, channel=0, data=[76, 72]),
   midi.NoteOnEvent(tick=80, channel=0, data=[76, 0]),
   midi.NoteOnEvent(tick=2, channel=0, data=[81, 79]),
   midi.NoteOnEvent(tick=76, channel=0, data=[72, 72]),
   midi.NoteOnEvent(tick=4, channel=0, data=[81, 0]),
   midi.NoteOnEvent(tick=76, channel=0, data=[72, 0]),
   midi.NoteOnEvent(tick=3, channel=0, data=[77, 79]),
   midi.NoteOnEvent(tick=79, channel=0, data=[72, 72]),
   midi.NoteOnEvent(tick=1, channel=0, data=[77, 0]),
   midi.NoteOnEvent(tick=79, channel=0, data=[72, 0]),
   midi.NoteOnEvent(tick=2, channel=0, data=[76, 79]),
   midi.NoteOnEvent(tick=75, channel=0, data=[69, 72]),
   midi.NoteOnEvent(tick=5, channel=0, data=[76, 0]),
   midi.NoteOnEvent(tick=75, channel=0, data=[69, 0]),
   midi.NoteOnEvent(tick=1, channel=0, data=[74, 79]),
   midi.NoteOnEvent(tick=80, channel=0, data=[74, 0]),
   midi.NoteOnEvent(tick=1, channel=0, data=[69, 72]),
   midi.NoteOnEvent(tick=80, channel=0, data=[69, 0]),
   midi.NoteOnEvent(tick=2, channel=0, data=[72, 79]),
   midi.NoteOnEvent(tick=80, channel=0, data=[72, 0]),
   midi.NoteOnEvent(tick=0, channel=0, data=[64, 73]),
   midi.NoteOnEvent(tick=76, channel=0, data=[71, 79]),
   midi.NoteOnEvent(tick=4, channel=0, data=[64, 0]),
   midi.NoteOnEvent(tick=76, channel=0, data=[71, 0]),
   midi.NoteOnEvent(tick=2, channel=0, data=[64, 72]),
   midi.NoteOnEvent(tick=80, channel=0, data=[64, 0]),
   midi.NoteOnEvent(tick=0, channel=0, data=[69, 79]),
   midi.NoteOnEvent(tick=80, channel=0, data=[69, 0]),
   midi.NoteOnEvent(tick=3, channel=0, data=[60, 72]),
   midi.NoteOnEvent(tick=77, channel=0, data=[59, 81]),
   midi.NoteOnEvent(tick=0, channel=0, data=[71, 96]),
   midi.NoteOnEvent(tick=0, channel=0, data=[64, 81]),
   midi.NoteOnEvent(tick=0, channel=0, data=[69, 96]),
   midi.NoteOnEvent(tick=3, channel=0, data=[60, 0]),
   midi.NoteOnEvent(tick=477, channel=0, data=[64, 0]),
   midi.NoteOnEvent(tick=0, channel=0, data=[59, 0]),
   midi.NoteOnEvent(tick=0, channel=0, data=[71, 0]),
   midi.NoteOnEvent(tick=0, channel=0, data=[69, 0]),
   midi.NoteOnEvent(tick=0, channel=0, data=[64, 81]),
   midi.NoteOnEvent(tick=0, channel=0, data=[76, 96]),
   midi.NoteOnEvent(tick=0, channel=0, data=[62, 81]),
   midi.NoteOnEvent(tick=0, channel=0, data=[68, 96]),
   midi.NoteOnEvent(tick=0, channel=0, data=[71, 96]),
   midi.NoteOnEvent(tick=478, channel=0, data=[93, 100]),
   midi.NoteOnEvent(tick=2, channel=0, data=[71, 0]),
   midi.NoteOnEvent(tick=0, channel=0, data=[68, 0]),
   midi.NoteOnEvent(tick=0, channel=0, data=[62, 0]),
   midi.NoteOnEvent(tick=0, channel=0, data=[64, 0]),
   midi.NoteOnEvent(tick=0, channel=0, data=[76, 0]),
   midi.NoteOnEvent(tick=72, channel=0, data=[93, 0]),
   midi.NoteOnEvent(tick=10, channel=0, data=[88, 82]),
   midi.NoteOnEvent(tick=80, channel=0, data=[88, 0]),
   midi.NoteOnEvent(tick=0, channel=0, data=[92, 93]),
   midi.NoteOnEvent(tick=79, channel=0, data=[84, 84]),
   midi.NoteOnEvent(tick=1, channel=0, data=[92, 0]),
   midi.NoteOnEvent(tick=79, channel=0, data=[84, 0]),
   midi.NoteOnEvent(tick=0, channel=0, data=[91, 93]),
   midi.NoteOnEvent(tick=79, channel=0, data=[88, 82]),
   midi.NoteOnEvent(tick=1, channel=0, data=[91, 0]),
   midi.NoteOnEvent(tick=77, channel=0, data=[90, 93]),
   midi.NoteOnEvent(tick=2, channel=0, data=[88, 0]),
   midi.NoteOnEvent(tick=78, channel=0, data=[90, 0]),
   midi.NoteOnEvent(tick=0, channel=0, data=[84, 83]),
   midi.NoteOnEvent(tick=80, channel=0, data=[84, 0]),
   midi.NoteOnEvent(tick=4, channel=0, data=[89, 93]),
   midi.NoteOnEvent(tick=76, channel=0, data=[84, 83]),
   midi.NoteOnEvent(tick=4, channel=0, data=[89, 0]),
   midi.NoteOnEvent(tick=76, channel=0, data=[84, 0]),
   midi.NoteOnEvent(tick=1, channel=0, data=[88, 93]),
   midi.NoteOnEvent(tick=80, channel=0, data=[88, 0]),
   midi.NoteOnEvent(tick=0, channel=0, data=[81, 83]),
   midi.NoteOnEvent(tick=79, channel=0, data=[87, 93]),
   midi.NoteOnEvent(tick=1, channel=0, data=[81, 0]),
   midi.NoteOnEvent(tick=79, channel=0, data=[87, 0]),
   midi.NoteOnEvent(tick=3, channel=0, data=[84, 82]),
   midi.NoteOnEvent(tick=78, channel=0, data=[86, 93]),
   midi.NoteOnEvent(tick=2, channel=0, data=[84, 0]),
   midi.NoteOnEvent(tick=78, channel=0, data=[86, 0]),
   midi.NoteOnEvent(tick=3, channel=0, data=[81, 82]),
   midi.NoteOnEvent(tick=79, channel=0, data=[85, 93]),
   midi.NoteOnEvent(tick=1, channel=0, data=[81, 0]),
   midi.NoteOnEvent(tick=79, channel=0, data=[85, 0]),
   midi.NoteOnEvent(tick=0, channel=0, data=[81, 82]),
   midi.NoteOnEvent(tick=80, channel=0, data=[81, 0]),
   midi.NoteOnEvent(tick=2, channel=0, data=[84, 93]),
   midi.NoteOnEvent(tick=78, channel=0, data=[76, 82]),
   midi.NoteOnEvent(tick=2, channel=0, data=[84, 0]),
   midi.NoteOnEvent(tick=78, channel=0, data=[76, 0]),
   midi.NoteOnEvent(tick=1, channel=0, data=[83, 93]),
   midi.NoteOnEvent(tick=79, channel=0, data=[76, 82]),
   midi.NoteOnEvent(tick=1, channel=0, data=[83, 0]),
   midi.NoteOnEvent(tick=76, channel=0, data=[82, 93]),
   midi.NoteOnEvent(tick=3, channel=0, data=[76, 0]),
   midi.NoteOnEvent(tick=77, channel=0, data=[82, 0]),
   midi.NoteOnEvent(tick=1, channel=0, data=[72, 82]),
   midi.NoteOnEvent(tick=79, channel=0, data=[81, 93]),
   midi.NoteOnEvent(tick=1, channel=0, data=[72, 0]),
   midi.NoteOnEvent(tick=79, channel=0, data=[81, 0]),
   midi.NoteOnEvent(tick=4, channel=0, data=[76, 81]),
   midi.NoteOnEvent(tick=80, channel=0, data=[76, 0]),
   midi.NoteOnEvent(tick=1, channel=0, data=[80, 93]),
   midi.NoteOnEvent(tick=78, channel=0, data=[72, 82]),
   midi.NoteOnEvent(tick=2, channel=0, data=[80, 0]),
   midi.NoteOnEvent(tick=76, channel=0, data=[79, 93]),
   midi.NoteOnEvent(tick=2, channel=0, data=[72, 0]),
   midi.NoteOnEvent(tick=78, channel=0, data=[79, 0]),
   midi.NoteOnEvent(tick=1, channel=0, data=[76, 82]),
   midi.NoteOnEvent(tick=78, channel=0, data=[78, 93]),
   midi.NoteOnEvent(tick=2, channel=0, data=[76, 0]),
   midi.NoteOnEvent(tick=78, channel=0, data=[78, 0]),
   midi.NoteOnEvent(tick=3, channel=0, data=[72, 82]),
   midi.NoteOnEvent(tick=78, channel=0, data=[77, 93]),
   midi.NoteOnEvent(tick=2, channel=0, data=[72, 0]),
   midi.NoteOnEvent(tick=78, channel=0, data=[77, 0]),
   midi.NoteOnEvent(tick=2, channel=0, data=[72, 82]),
   midi.NoteOnEvent(tick=79, channel=0, data=[76, 93]),
   midi.NoteOnEvent(tick=1, channel=0, data=[72, 0]),
   midi.NoteOnEvent(tick=79, channel=0, data=[76, 0]),
   midi.NoteOnEvent(tick=1, channel=0, data=[69, 82]),
   midi.NoteOnEvent(tick=80, channel=0, data=[69, 0]),
   midi.NoteOnEvent(tick=1, channel=0, data=[75, 93]),
   midi.NoteOnEvent(tick=80, channel=0, data=[75, 0]),
   midi.NoteOnEvent(tick=0, channel=0, data=[72, 82]),
   midi.NoteOnEvent(tick=80, channel=0, data=[72, 0]),
   midi.NoteOnEvent(tick=0, channel=0, data=[74, 93]),
   midi.NoteOnEvent(tick=79, channel=0, data=[69, 82]),
   midi.NoteOnEvent(tick=1, channel=0, data=[74, 0]),
   midi.NoteOnEvent(tick=76, channel=0, data=[73, 93]),
   midi.NoteOnEvent(tick=3, channel=0, data=[69, 0]),
   midi.NoteOnEvent(tick=77, channel=0, data=[73, 0]),
   midi.NoteOnEvent(tick=5, channel=0, data=[69, 82]),
   midi.NoteOnEvent(tick=79, channel=0, data=[72, 93]),
   midi.NoteOnEvent(tick=1, channel=0, data=[69, 0]),
   midi.NoteOnEvent(tick=75, channel=0, data=[64, 80]),
   midi.NoteOnEvent(tick=4, channel=0, data=[72, 0]),
   midi.NoteOnEvent(tick=76, channel=0, data=[64, 0]),
   midi.NoteOnEvent(tick=1, channel=0, data=[71, 92]),
   midi.NoteOnEvent(tick=80, channel=0, data=[71, 0]),
   midi.NoteOnEvent(tick=1, channel=0, data=[64, 79]),
   midi.NoteOnEvent(tick=78, channel=0, data=[70, 90]),
   midi.NoteOnEvent(tick=2, channel=0, data=[64, 0]),
   midi.NoteOnEvent(tick=78, channel=0, data=[70, 0]),
   midi.NoteOnEvent(tick=5, channel=0, data=[60, 79]),
   midi.NoteOnEvent(tick=77, channel=0, data=[69, 89]),
   midi.NoteOnEvent(tick=3, channel=0, data=[60, 0]),
   midi.NoteOnEvent(tick=77, channel=0, data=[69, 0]),
   midi.NoteOnEvent(tick=2, channel=0, data=[64, 77]),
   midi.NoteOnEvent(tick=79, channel=0, data=[68, 88]),
   midi.NoteOnEvent(tick=1, channel=0, data=[64, 0]),
   midi.NoteOnEvent(tick=79, channel=0, data=[68, 0]),
   midi.NoteOnEvent(tick=1, channel=0, data=[60, 77]),
   midi.NoteOnEvent(tick=79, channel=0, data=[67, 86]),
   midi.NoteOnEvent(tick=1, channel=0, data=[60, 0]),
   midi.NoteOnEvent(tick=79, channel=0, data=[67, 0]),
   midi.NoteOnEvent(tick=2, channel=0, data=[64, 75]),
   midi.NoteOnEvent(tick=76, channel=0, data=[66, 85]),
   midi.NoteOnEvent(tick=4, channel=0, data=[64, 0]),
   midi.NoteOnEvent(tick=76, channel=0, data=[66, 0]),
   midi.NoteOnEvent(tick=4, channel=0, data=[60, 74]),
   midi.NoteOnEvent(tick=80, channel=0, data=[60, 0]),
   midi.NoteOnEvent(tick=0, channel=0, data=[65, 84]),
   midi.NoteOnEvent(tick=77, channel=0, data=[60, 73]),
   midi.NoteOnEvent(tick=3, channel=0, data=[65, 0]),
   midi.NoteOnEvent(tick=75, channel=0, data=[64, 81]),
   midi.NoteOnEvent(tick=2, channel=0, data=[60, 0]),
   midi.NoteOnEvent(tick=78, channel=0, data=[64, 0]),
   midi.NoteOnEvent(tick=0, channel=0, data=[57, 72]),
   midi.NoteOnEvent(tick=80, channel=0, data=[57, 0]),
   midi.NoteOnEvent(tick=5, channel=0, data=[63, 79]),
   midi.NoteOnEvent(tick=80, channel=0, data=[63, 0]),
   midi.NoteOnEvent(tick=0, channel=0, data=[60, 70]),
   midi.NoteOnEvent(tick=78, channel=0, data=[62, 78]),
   midi.NoteOnEvent(tick=2, channel=0, data=[60, 0]),
   midi.NoteOnEvent(tick=75, channel=0, data=[57, 68]),
   midi.NoteOnEvent(tick=3, channel=0, data=[62, 0]),
   midi.NoteOnEvent(tick=77, channel=0, data=[57, 0]),
   midi.NoteOnEvent(tick=0, channel=0, data=[61, 75]),
   midi.NoteOnEvent(tick=80, channel=0, data=[61, 0]),
   midi.NoteOnEvent(tick=1, channel=0, data=[57, 67]),
   midi.NoteOnEvent(tick=80, channel=0, data=[57, 0]),
   midi.NoteOnEvent(tick=1, channel=0, data=[60, 74]),
   midi.NoteOnEvent(tick=80, channel=0, data=[60, 0]),
   midi.NoteOnEvent(tick=0, channel=0, data=[52, 63]),
   midi.NoteOnEvent(tick=80, channel=0, data=[52, 0]),
   midi.NoteOnEvent(tick=2, channel=0, data=[59, 72]),
   midi.NoteOnEvent(tick=80, channel=0, data=[59, 0]),
   midi.NoteOnEvent(tick=0, channel=0, data=[52, 60]),
   midi.NoteOnEvent(tick=79, channel=0, data=[58, 68]),
   midi.NoteOnEvent(tick=1, channel=0, data=[52, 0]),
   midi.NoteOnEvent(tick=79, channel=0, data=[58, 0]),
   midi.NoteOnEvent(tick=2, channel=0, data=[48, 58]),
   midi.NoteOnEvent(tick=78, channel=0, data=[57, 100]),
   midi.NoteOnEvent(tick=2, channel=0, data=[48, 0]),
   midi.NoteOnEvent(tick=78, channel=0, data=[57, 0]),
   midi.NoteOnEvent(tick=2, channel=0, data=[52, 89]),
   midi.NoteOnEvent(tick=76, channel=0, data=[56, 100]),
   midi.NoteOnEvent(tick=4, channel=0, data=[52, 0]),
   midi.NoteOnEvent(tick=76, channel=0, data=[56, 0]),
   midi.NoteOnEvent(tick=0, channel=0, data=[48, 91]),
   midi.NoteOnEvent(tick=80, channel=0, data=[48, 0]),
   midi.NoteOnEvent(tick=0, channel=0, data=[55, 100]),
   midi.NoteOnEvent(tick=80, channel=0, data=[55, 0]),
   midi.NoteOnEvent(tick=1, channel=0, data=[52, 89]),
   midi.NoteOnEvent(tick=79, channel=0, data=[54, 100]),
   midi.NoteOnEvent(tick=1, channel=0, data=[52, 0]),
   midi.NoteOnEvent(tick=79, channel=0, data=[54, 0]),
   midi.NoteOnEvent(tick=0, channel=0, data=[48, 90]),
   midi.NoteOnEvent(tick=80, channel=0, data=[48, 0]),
   midi.NoteOnEvent(tick=4, channel=0, data=[53, 100]),
   midi.NoteOnEvent(tick=79, channel=0, data=[48, 90]),
   midi.NoteOnEvent(tick=1, channel=0, data=[53, 0]),
   midi.NoteOnEvent(tick=79, channel=0, data=[48, 0]),
   midi.NoteOnEvent(tick=1, channel=0, data=[52, 100]),
   midi.NoteOnEvent(tick=77, channel=0, data=[45, 90]),
   midi.NoteOnEvent(tick=3, channel=0, data=[52, 0]),
   midi.NoteOnEvent(tick=77, channel=0, data=[45, 0]),
   midi.NoteOnEvent(tick=0, channel=0, data=[51, 100]),
   midi.NoteOnEvent(tick=80, channel=0, data=[51, 0]),
   midi.NoteOnEvent(tick=3, channel=0, data=[48, 88]),
   midi.NoteOnEvent(tick=75, channel=0, data=[50, 100]),
   midi.NoteOnEvent(tick=5, channel=0, data=[48, 0]),
   midi.NoteOnEvent(tick=75, channel=0, data=[50, 0]),
   midi.NoteOnEvent(tick=4, channel=0, data=[45, 88]),
   midi.NoteOnEvent(tick=77, channel=0, data=[49, 100]),
   midi.NoteOnEvent(tick=3, channel=0, data=[45, 0]),
   midi.NoteOnEvent(tick=77, channel=0, data=[49, 0]),
   midi.NoteOnEvent(tick=2, channel=0, data=[45, 88]),
   midi.NoteOnEvent(tick=78, channel=0, data=[48, 100]),
   midi.NoteOnEvent(tick=2, channel=0, data=[45, 0]),
   midi.NoteOnEvent(tick=78, channel=0, data=[48, 0]),
   midi.NoteOnEvent(tick=3, channel=0, data=[40, 88]),
   midi.NoteOnEvent(tick=77, channel=0, data=[47, 100]),
   midi.NoteOnEvent(tick=3, channel=0, data=[40, 0]),
   midi.NoteOnEvent(tick=77, channel=0, data=[47, 0]),
   midi.NoteOnEvent(tick=0, channel=0, data=[40, 88]),
   midi.NoteOnEvent(tick=80, channel=0, data=[40, 0]),
   midi.NoteOnEvent(tick=4, channel=0, data=[46, 100]),
   midi.NoteOnEvent(tick=77, channel=0, data=[40, 88]),
   midi.NoteOnEvent(tick=3, channel=0, data=[46, 0]),
   midi.NoteOnEvent(tick=77, channel=0, data=[40, 0]),
   midi.NoteOnEvent(tick=0, channel=0, data=[45, 121]),
   midi.NoteOnEvent(tick=480, channel=0, data=[45, 0]),
   midi.NoteOnEvent(tick=0, channel=0, data=[57, 85]),
   midi.NoteOnEvent(tick=0, channel=0, data=[60, 85]),
   midi.NoteOnEvent(tick=0, channel=0, data=[69, 101]),
   midi.NoteOnEvent(tick=0, channel=0, data=[64, 101]),
   midi.NoteOnEvent(tick=360, channel=0, data=[64, 0]),
   midi.NoteOnEvent(tick=0, channel=0, data=[57, 0]),
   midi.NoteOnEvent(tick=0, channel=0, data=[60, 0]),
   midi.NoteOnEvent(tick=0, channel=0, data=[69, 0]),
   midi.NoteOnEvent(tick=0, channel=0, data=[57, 81]),
   midi.NoteOnEvent(tick=0, channel=0, data=[64, 96]),
   midi.NoteOnEvent(tick=0, channel=0, data=[60, 81]),
   midi.NoteOnEvent(tick=0, channel=0, data=[69, 96]),
   midi.NoteOnEvent(tick=120, channel=0, data=[69, 0]),
   midi.NoteOnEvent(tick=0, channel=0, data=[57, 0]),
   midi.NoteOnEvent(tick=0, channel=0, data=[64, 0]),
   midi.NoteOnEvent(tick=0, channel=0, data=[60, 0]),
   midi.NoteOnEvent(tick=0, channel=0, data=[57, 85]),
   midi.NoteOnEvent(tick=0, channel=0, data=[64, 101]),
   midi.NoteOnEvent(tick=0, channel=0, data=[60, 85]),
   midi.NoteOnEvent(tick=0, channel=0, data=[69, 101]),
   midi.NoteOnEvent(tick=480, channel=0, data=[69, 0]),
   midi.NoteOnEvent(tick=0, channel=0, data=[57, 0]),
   midi.NoteOnEvent(tick=0, channel=0, data=[64, 0]),
   midi.NoteOnEvent(tick=0, channel=0, data=[60, 0]),
   midi.NoteOnEvent(tick=0, channel=0, data=[57, 82]),
   midi.NoteOnEvent(tick=0, channel=0, data=[65, 97]),
   midi.NoteOnEvent(tick=0, channel=0, data=[62, 82]),
   midi.NoteOnEvent(tick=0, channel=0, data=[69, 97]),
   midi.NoteOnEvent(tick=480, channel=0, data=[69, 0]),
   midi.NoteOnEvent(tick=0, channel=0, data=[57, 0]),
   midi.NoteOnEvent(tick=0, channel=0, data=[65, 0]),
   midi.NoteOnEvent(tick=0, channel=0, data=[62, 0]),
   midi.NoteOnEvent(tick=0, channel=0, data=[57, 85]),
   midi.NoteOnEvent(tick=0, channel=0, data=[64, 101]),
   midi.NoteOnEvent(tick=0, channel=0, data=[60, 85]),
   midi.NoteOnEvent(tick=0, channel=0, data=[69, 101]),
   midi.NoteOnEvent(tick=960, channel=0, data=[69, 0]),
   midi.NoteOnEvent(tick=0, channel=0, data=[57, 0]),
   midi.NoteOnEvent(tick=0, channel=0, data=[64, 0]),
   midi.NoteOnEvent(tick=0, channel=0, data=[60, 0]),
   midi.NoteOnEvent(tick=0, channel=0, data=[57, 84]),
   midi.NoteOnEvent(tick=0, channel=0, data=[62, 99]),
   midi.NoteOnEvent(tick=0, channel=0, data=[59, 84]),
   midi.NoteOnEvent(tick=0, channel=0, data=[69, 99]),
   midi.NoteOnEvent(tick=960, channel=0, data=[69, 0]),
   midi.NoteOnEvent(tick=0, channel=0, data=[57, 0]),
   midi.NoteOnEvent(tick=0, channel=0, data=[62, 0]),
   midi.NoteOnEvent(tick=0, channel=0, data=[59, 0]),
   midi.NoteOnEvent(tick=0, channel=0, data=[57, 85]),
   midi.NoteOnEvent(tick=0, channel=0, data=[64, 101]),
   midi.NoteOnEvent(tick=0, channel=0, data=[60, 85]),
   midi.NoteOnEvent(tick=0, channel=0, data=[69, 101]),
   midi.NoteOnEvent(tick=959, channel=0, data=[45, 70]),
   midi.NoteOnEvent(tick=119, channel=0, data=[47, 72]),
   midi.NoteOnEvent(tick=25, channel=0, data=[45, 0]),
   midi.NoteOnEvent(tick=99, channel=0, data=[48, 72]),
   midi.NoteOnEvent(tick=20, channel=0, data=[47, 0]),
   midi.NoteOnEvent(tick=100, channel=0, data=[50, 73]),
   midi.NoteOnEvent(tick=24, channel=0, data=[48, 0]),
   midi.NoteOnEvent(tick=95, channel=0, data=[52, 74]),
   midi.NoteOnEvent(tick=25, channel=0, data=[50, 0]),
   midi.NoteOnEvent(tick=95, channel=0, data=[54, 74]),
   midi.NoteOnEvent(tick=24, channel=0, data=[52, 0]),
   midi.NoteOnEvent(tick=98, channel=0, data=[56, 74]),
   midi.NoteOnEvent(tick=22, channel=0, data=[54, 0]),
   midi.NoteOnEvent(tick=98, channel=0, data=[57, 74]),
   midi.NoteOnEvent(tick=24, channel=0, data=[56, 0]),
   midi.NoteOnEvent(tick=94, channel=0, data=[59, 75]),
   midi.NoteOnEvent(tick=26, channel=0, data=[57, 0]),
   midi.NoteOnEvent(tick=94, channel=0, data=[60, 78]),
   midi.NoteOnEvent(tick=24, channel=0, data=[59, 0]),
   midi.NoteOnEvent(tick=96, channel=0, data=[62, 78]),
   midi.NoteOnEvent(tick=24, channel=0, data=[60, 0]),
   midi.NoteOnEvent(tick=93, channel=0, data=[64, 79]),
   midi.NoteOnEvent(tick=27, channel=0, data=[62, 0]),
   midi.NoteOnEvent(tick=97, channel=0, data=[66, 80]),
   midi.NoteOnEvent(tick=20, channel=0, data=[64, 0]),
   midi.NoteOnEvent(tick=101, channel=0, data=[68, 80]),
   midi.NoteOnEvent(tick=23, channel=0, data=[66, 0]),
   midi.NoteOnEvent(tick=95, channel=0, data=[69, 81]),
   midi.NoteOnEvent(tick=26, channel=0, data=[68, 0]),
   midi.NoteOnEvent(tick=92, channel=0, data=[71, 81]),
   midi.NoteOnEvent(tick=26, channel=0, data=[69, 0]),
   midi.NoteOnEvent(tick=93, channel=0, data=[72, 81]),
   midi.NoteOnEvent(tick=25, channel=0, data=[71, 0]),
   midi.NoteOnEvent(tick=100, channel=0, data=[74, 82]),
   midi.NoteOnEvent(tick=19, channel=0, data=[72, 0]),
   midi.NoteOnEvent(tick=100, channel=0, data=[76, 84]),
   midi.NoteOnEvent(tick=25, channel=0, data=[74, 0]),
   midi.NoteOnEvent(tick=91, channel=0, data=[78, 84]),
   midi.NoteOnEvent(tick=28, channel=0, data=[76, 0]),
   midi.NoteOnEvent(tick=92, channel=0, data=[80, 85]),
   midi.NoteOnEvent(tick=24, channel=0, data=[78, 0]),
   midi.NoteOnEvent(tick=101, channel=0, data=[81, 85]),
   midi.NoteOnEvent(tick=19, channel=0, data=[80, 0]),
   midi.NoteOnEvent(tick=98, channel=0, data=[83, 86]),
   midi.NoteOnEvent(tick=27, channel=0, data=[81, 0]),
   midi.NoteOnEvent(tick=95, channel=0, data=[84, 88]),
   midi.NoteOnEvent(tick=22, channel=0, data=[83, 0]),
   midi.NoteOnEvent(tick=94, channel=0, data=[86, 88]),
   midi.NoteOnEvent(tick=28, channel=0, data=[84, 0]),
   midi.NoteOnEvent(tick=93, channel=0, data=[88, 89]),
   midi.NoteOnEvent(tick=23, channel=0, data=[86, 0]),
   midi.NoteOnEvent(tick=96, channel=0, data=[90, 90]),
   midi.NoteOnEvent(tick=25, channel=0, data=[88, 0]),
   midi.NoteOnEvent(tick=95, channel=0, data=[92, 90]),
   midi.NoteOnEvent(tick=24, channel=0, data=[90, 0]),
   midi.NoteOnEvent(tick=98, channel=0, data=[69, 0]),
   midi.NoteOnEvent(tick=0, channel=0, data=[60, 0]),
   midi.NoteOnEvent(tick=0, channel=0, data=[57, 0]),
   midi.NoteOnEvent(tick=0, channel=0, data=[64, 0]),
   midi.NoteOnEvent(tick=0, channel=0, data=[93, 97]),
   midi.NoteOnEvent(tick=22, channel=0, data=[92, 0]),
   midi.NoteOnEvent(tick=218, channel=0, data=[93, 0]),
   midi.EndOfTrackEvent(tick=0, data=[])]),
 midi.Track(\
[    midi.NoteOnEvent(tick=3840, channel=0, data=[48, 24]),
   midi.NoteOnEvent(tick=480, channel=0, data=[48, 0]),
   midi.NoteOnEvent(tick=0, channel=0, data=[48, 24]),
   midi.NoteOnEvent(tick=360, channel=0, data=[48, 0]),
   midi.NoteOnEvent(tick=0, channel=0, data=[48, 22]),
   midi.NoteOnEvent(tick=120, channel=0, data=[48, 0]),
   midi.NoteOnEvent(tick=0, channel=0, data=[48, 25]),
   midi.NoteOnEvent(tick=480, channel=0, data=[48, 0]),
   midi.NoteOnEvent(tick=0, channel=0, data=[41, 24]),
   midi.NoteOnEvent(tick=480, channel=0, data=[41, 0]),
   midi.NoteOnEvent(tick=0, channel=0, data=[36, 24]),
   midi.NoteOnEvent(tick=480, channel=0, data=[36, 0]),
   midi.NoteOnEvent(tick=0, channel=0, data=[41, 22]),
   midi.NoteOnEvent(tick=480, channel=0, data=[41, 0]),
   midi.NoteOnEvent(tick=0, channel=0, data=[36, 20]),
   midi.NoteOnEvent(tick=480, channel=0, data=[36, 0]),
   midi.NoteOnEvent(tick=0, channel=0, data=[35, 18]),
   midi.NoteOnEvent(tick=480, channel=0, data=[35, 0]),
   midi.NoteOnEvent(tick=0, channel=0, data=[33, 112]),
   midi.NoteOnEvent(tick=194, channel=0, data=[33, 0]),
   midi.NoteOnEvent(tick=240, channel=0, data=[64, 88]),
   midi.NoteOnEvent(tick=0, channel=0, data=[60, 74]),
   midi.NoteOnEvent(tick=0, channel=0, data=[57, 74]),
   midi.NoteOnEvent(tick=360, channel=0, data=[57, 0]),
   midi.NoteOnEvent(tick=0, channel=0, data=[60, 0]),
   midi.NoteOnEvent(tick=0, channel=0, data=[64, 0]),
   midi.NoteOnEvent(tick=0, channel=0, data=[57, 70]),
   midi.NoteOnEvent(tick=0, channel=0, data=[60, 70]),
   midi.NoteOnEvent(tick=0, channel=0, data=[64, 82]),
   midi.NoteOnEvent(tick=120, channel=0, data=[64, 0]),
   midi.NoteOnEvent(tick=0, channel=0, data=[60, 0]),
   midi.NoteOnEvent(tick=0, channel=0, data=[57, 0]),
   midi.NoteOnEvent(tick=0, channel=0, data=[64, 88]),
   midi.NoteOnEvent(tick=0, channel=0, data=[60, 74]),
   midi.NoteOnEvent(tick=0, channel=0, data=[57, 74]),
   midi.NoteOnEvent(tick=480, channel=0, data=[57, 0]),
   midi.NoteOnEvent(tick=0, channel=0, data=[60, 0]),
   midi.NoteOnEvent(tick=0, channel=0, data=[64, 0]),
   midi.NoteOnEvent(tick=0, channel=0, data=[57, 77]),
   midi.NoteOnEvent(tick=0, channel=0, data=[60, 77]),
   midi.NoteOnEvent(tick=0, channel=0, data=[65, 92]),
   midi.NoteOnEvent(tick=472, channel=0, data=[65, 0]),
   midi.NoteOnEvent(tick=0, channel=0, data=[60, 0]),
   midi.NoteOnEvent(tick=0, channel=0, data=[57, 0]),
   midi.NoteOnEvent(tick=0, channel=0, data=[57, 74]),
   midi.NoteOnEvent(tick=0, channel=0, data=[60, 74]),
   midi.NoteOnEvent(tick=0, channel=0, data=[64, 88]),
   midi.NoteOnEvent(tick=480, channel=0, data=[64, 0]),
   midi.NoteOnEvent(tick=0, channel=0, data=[60, 0]),
   midi.NoteOnEvent(tick=0, channel=0, data=[57, 0]),
   midi.NoteOnEvent(tick=0, channel=0, data=[52, 70]),
   midi.NoteOnEvent(tick=0, channel=0, data=[57, 70]),
   midi.NoteOnEvent(tick=0, channel=0, data=[60, 82]),
   midi.NoteOnEvent(tick=480, channel=0, data=[60, 0]),
   midi.NoteOnEvent(tick=0, channel=0, data=[57, 0]),
   midi.NoteOnEvent(tick=0, channel=0, data=[52, 0]),
   midi.NoteOnEvent(tick=0, channel=0, data=[57, 70]),
   midi.NoteOnEvent(tick=0, channel=0, data=[60, 70]),
   midi.NoteOnEvent(tick=0, channel=0, data=[64, 82]),
   midi.NoteOnEvent(tick=960, channel=0, data=[64, 0]),
   midi.NoteOnEvent(tick=0, channel=0, data=[60, 0]),
   midi.NoteOnEvent(tick=0, channel=0, data=[57, 0]),
   midi.NoteOnEvent(tick=0, channel=0, data=[33, 99]),
   midi.NoteOnEvent(tick=203, channel=0, data=[33, 0]),
   midi.NoteOnEvent(tick=240, channel=0, data=[45, 58]),
   midi.NoteOnEvent(tick=0, channel=0, data=[52, 69]),
   midi.NoteOnEvent(tick=360, channel=0, data=[52, 0]),
   midi.NoteOnEvent(tick=0, channel=0, data=[45, 0]),
   midi.NoteOnEvent(tick=0, channel=0, data=[45, 50]),
   midi.NoteOnEvent(tick=0, channel=0, data=[52, 61]),
   midi.NoteOnEvent(tick=120, channel=0, data=[52, 0]),
   midi.NoteOnEvent(tick=0, channel=0, data=[45, 0]),
   midi.NoteOnEvent(tick=0, channel=0, data=[45, 60]),
   midi.NoteOnEvent(tick=0, channel=0, data=[52, 70]),
   midi.NoteOnEvent(tick=480, channel=0, data=[52, 0]),
   midi.NoteOnEvent(tick=0, channel=0, data=[45, 0]),
   midi.NoteOnEvent(tick=0, channel=0, data=[45, 52]),
   midi.NoteOnEvent(tick=0, channel=0, data=[53, 62]),
   midi.NoteOnEvent(tick=471, channel=0, data=[53, 0]),
   midi.NoteOnEvent(tick=0, channel=0, data=[45, 0]),
   midi.NoteOnEvent(tick=0, channel=0, data=[45, 55]),
   midi.NoteOnEvent(tick=0, channel=0, data=[52, 63]),
   midi.NoteOnEvent(tick=480, channel=0, data=[52, 0]),
   midi.NoteOnEvent(tick=0, channel=0, data=[45, 0]),
   midi.NoteOnEvent(tick=0, channel=0, data=[33, 60]),
   midi.NoteOnEvent(tick=480, channel=0, data=[40, 68]),
   midi.NoteOnEvent(tick=960, channel=0, data=[40, 0]),
   midi.NoteOnEvent(tick=0, channel=0, data=[33, 0]),
   midi.NoteOnEvent(tick=0, channel=0, data=[32, 99]),
   midi.NoteOnEvent(tick=208, channel=0, data=[32, 0]),
   midi.NoteOnEvent(tick=240, channel=0, data=[53, 66]),
   midi.NoteOnEvent(tick=0, channel=0, data=[62, 77]),
   midi.NoteOnEvent(tick=303, channel=0, data=[62, 0]),
   midi.NoteOnEvent(tick=0, channel=0, data=[53, 0]),
   midi.NoteOnEvent(tick=0, channel=0, data=[53, 61]),
   midi.NoteOnEvent(tick=0, channel=0, data=[62, 73]),
   midi.NoteOnEvent(tick=120, channel=0, data=[62, 0]),
   midi.NoteOnEvent(tick=0, channel=0, data=[53, 0]),
   midi.NoteOnEvent(tick=0, channel=0, data=[53, 66]),
   midi.NoteOnEvent(tick=0, channel=0, data=[60, 77]),
   midi.NoteOnEvent(tick=469, channel=0, data=[60, 0]),
   midi.NoteOnEvent(tick=0, channel=0, data=[53, 0]),
   midi.NoteOnEvent(tick=0, channel=0, data=[33, 70]),
   midi.NoteOnEvent(tick=0, channel=0, data=[45, 84]),
   midi.NoteOnEvent(tick=480, channel=0, data=[45, 0]),
   midi.NoteOnEvent(tick=0, channel=0, data=[33, 0]),
   midi.NoteOnEvent(tick=0, channel=0, data=[32, 73]),
   midi.NoteOnEvent(tick=0, channel=0, data=[44, 86]),
   midi.NoteOnEvent(tick=205, channel=0, data=[44, 0]),
   midi.NoteOnEvent(tick=0, channel=0, data=[32, 0]),
   midi.NoteOnEvent(tick=240, channel=0, data=[55, 77]),
   midi.NoteOnEvent(tick=0, channel=0, data=[62, 66]),
   midi.NoteOnEvent(tick=89, channel=0, data=[62, 0]),
   midi.NoteOnEvent(tick=0, channel=0, data=[55, 0]),
   midi.NoteOnEvent(tick=0, channel=0, data=[53, 72]),
   midi.NoteOnEvent(tick=0, channel=0, data=[62, 60]),
   midi.NoteOnEvent(tick=160, channel=0, data=[62, 0]),
   midi.NoteOnEvent(tick=0, channel=0, data=[53, 0]),
   midi.NoteOnEvent(tick=0, channel=0, data=[52, 73]),
   midi.NoteOnEvent(tick=0, channel=0, data=[62, 61]),
   midi.NoteOnEvent(tick=160, channel=0, data=[62, 0]),
   midi.NoteOnEvent(tick=0, channel=0, data=[52, 0]),
   midi.NoteOnEvent(tick=0, channel=0, data=[52, 77]),
   midi.NoteOnEvent(tick=0, channel=0, data=[60, 66]),
   midi.NoteOnEvent(tick=461, channel=0, data=[60, 0]),
   midi.NoteOnEvent(tick=0, channel=0, data=[52, 0]),
   midi.NoteOnEvent(tick=0, channel=0, data=[33, 68]),
   midi.NoteOnEvent(tick=0, channel=0, data=[45, 81]),
   midi.NoteOnEvent(tick=480, channel=0, data=[45, 0]),
   midi.NoteOnEvent(tick=0, channel=0, data=[33, 0]),
   midi.NoteOnEvent(tick=0, channel=0, data=[35, 66]),
   midi.NoteOnEvent(tick=0, channel=0, data=[47, 77]),
   midi.NoteOnEvent(tick=209, channel=0, data=[47, 0]),
   midi.NoteOnEvent(tick=0, channel=0, data=[35, 0]),
   midi.NoteOnEvent(tick=240, channel=0, data=[56, 60]),
   midi.NoteOnEvent(tick=0, channel=0, data=[59, 60]),
   midi.NoteOnEvent(tick=0, channel=0, data=[64, 70]),
   midi.NoteOnEvent(tick=105, channel=0, data=[64, 0]),
   midi.NoteOnEvent(tick=0, channel=0, data=[68, 66]),
   midi.NoteOnEvent(tick=160, channel=0, data=[68, 0]),
   midi.NoteOnEvent(tick=0, channel=0, data=[73, 70]),
   midi.NoteOnEvent(tick=160, channel=0, data=[73, 0]),
   midi.NoteOnEvent(tick=0, channel=0, data=[59, 0]),
   midi.NoteOnEvent(tick=0, channel=0, data=[56, 0]),
   midi.NoteOnEvent(tick=0, channel=0, data=[59, 60]),
   midi.NoteOnEvent(tick=0, channel=0, data=[63, 60]),
   midi.NoteOnEvent(tick=0, channel=0, data=[71, 70]),
   midi.NoteOnEvent(tick=0, channel=0, data=[69, 70]),
   midi.NoteOnEvent(tick=405, channel=0, data=[69, 0]),
   midi.NoteOnEvent(tick=0, channel=0, data=[59, 0]),
   midi.NoteOnEvent(tick=0, channel=0, data=[63, 0]),
   midi.NoteOnEvent(tick=0, channel=0, data=[71, 0]),
   midi.NoteOnEvent(tick=0, channel=0, data=[47, 66]),
   midi.NoteOnEvent(tick=0, channel=0, data=[59, 77]),
   midi.NoteOnEvent(tick=480, channel=0, data=[59, 0]),
   midi.NoteOnEvent(tick=0, channel=0, data=[47, 0]),
   midi.NoteOnEvent(tick=0, channel=0, data=[40, 66]),
   midi.NoteOnEvent(tick=0, channel=0, data=[52, 77]),
   midi.NoteOnEvent(tick=168, channel=0, data=[52, 0]),
   midi.NoteOnEvent(tick=0, channel=0, data=[40, 0]),
   midi.NoteOnEvent(tick=240, channel=0, data=[68, 67]),
   midi.NoteOnEvent(tick=0, channel=0, data=[59, 56]),
   midi.NoteOnEvent(tick=160, channel=0, data=[59, 0]),
   midi.NoteOnEvent(tick=0, channel=0, data=[68, 0]),
   midi.NoteOnEvent(tick=0, channel=0, data=[67, 58]),
   midi.NoteOnEvent(tick=0, channel=0, data=[58, 49]),
   midi.NoteOnEvent(tick=160, channel=0, data=[58, 0]),
   midi.NoteOnEvent(tick=0, channel=0, data=[67, 0]),
   midi.NoteOnEvent(tick=0, channel=0, data=[68, 63]),
   midi.NoteOnEvent(tick=0, channel=0, data=[59, 55]),
   midi.NoteOnEvent(tick=160, channel=0, data=[59, 0]),
   midi.NoteOnEvent(tick=0, channel=0, data=[68, 0]),
   midi.NoteOnEvent(tick=0, channel=0, data=[52, 63]),
   midi.NoteOnEvent(tick=0, channel=0, data=[56, 63]),
   midi.NoteOnEvent(tick=0, channel=0, data=[64, 72]),
   midi.NoteOnEvent(tick=180, channel=0, data=[64, 0]),
   midi.NoteOnEvent(tick=0, channel=0, data=[56, 0]),
   midi.NoteOnEvent(tick=0, channel=0, data=[52, 0]),
   midi.NoteOnEvent(tick=666, channel=0, data=[33, 100]),
   midi.NoteOnEvent(tick=194, channel=0, data=[33, 0]),
   midi.NoteOnEvent(tick=240, channel=0, data=[64, 84]),
   midi.NoteOnEvent(tick=0, channel=0, data=[60, 70]),
   midi.NoteOnEvent(tick=0, channel=0, data=[57, 70]),
   midi.NoteOnEvent(tick=360, channel=0, data=[57, 0]),
   midi.NoteOnEvent(tick=0, channel=0, data=[60, 0]),
   midi.NoteOnEvent(tick=0, channel=0, data=[64, 0]),
   midi.NoteOnEvent(tick=0, channel=0, data=[57, 67]),
   midi.NoteOnEvent(tick=0, channel=0, data=[60, 67]),
   midi.NoteOnEvent(tick=0, channel=0, data=[64, 79]),
   midi.NoteOnEvent(tick=120, channel=0, data=[64, 0]),
   midi.NoteOnEvent(tick=0, channel=0, data=[60, 0]),
   midi.NoteOnEvent(tick=0, channel=0, data=[57, 0]),
   midi.NoteOnEvent(tick=0, channel=0, data=[64, 84]),
   midi.NoteOnEvent(tick=0, channel=0, data=[60, 70]),
   midi.NoteOnEvent(tick=0, channel=0, data=[57, 70]),
   midi.NoteOnEvent(tick=480, channel=0, data=[57, 0]),
   midi.NoteOnEvent(tick=0, channel=0, data=[60, 0]),
   midi.NoteOnEvent(tick=0, channel=0, data=[64, 0]),
   midi.NoteOnEvent(tick=0, channel=0, data=[57, 74]),
   midi.NoteOnEvent(tick=0, channel=0, data=[60, 74]),
   midi.NoteOnEvent(tick=0, channel=0, data=[65, 88]),
   midi.NoteOnEvent(tick=471, channel=0, data=[65, 0]),
   midi.NoteOnEvent(tick=0, channel=0, data=[60, 0]),
   midi.NoteOnEvent(tick=0, channel=0, data=[57, 0]),
   midi.NoteOnEvent(tick=0, channel=0, data=[57, 70]),
   midi.NoteOnEvent(tick=0, channel=0, data=[60, 70]),
   midi.NoteOnEvent(tick=0, channel=0, data=[64, 84]),
   midi.NoteOnEvent(tick=480, channel=0, data=[64, 0]),
   midi.NoteOnEvent(tick=0, channel=0, data=[60, 0]),
   midi.NoteOnEvent(tick=0, channel=0, data=[57, 0]),
   midi.NoteOnEvent(tick=0, channel=0, data=[52, 67]),
   midi.NoteOnEvent(tick=0, channel=0, data=[57, 67]),
   midi.NoteOnEvent(tick=0, channel=0, data=[60, 79]),
   midi.NoteOnEvent(tick=480, channel=0, data=[60, 0]),
   midi.NoteOnEvent(tick=0, channel=0, data=[57, 0]),
   midi.NoteOnEvent(tick=0, channel=0, data=[52, 0]),
   midi.NoteOnEvent(tick=0, channel=0, data=[57, 67]),
   midi.NoteOnEvent(tick=0, channel=0, data=[60, 67]),
   midi.NoteOnEvent(tick=0, channel=0, data=[64, 79]),
   midi.NoteOnEvent(tick=960, channel=0, data=[64, 0]),
   midi.NoteOnEvent(tick=0, channel=0, data=[60, 0]),
   midi.NoteOnEvent(tick=0, channel=0, data=[57, 0]),
   midi.NoteOnEvent(tick=0, channel=0, data=[24, 70]),
   midi.NoteOnEvent(tick=0, channel=0, data=[36, 80]),
   midi.NoteOnEvent(tick=194, channel=0, data=[36, 0]),
   midi.NoteOnEvent(tick=0, channel=0, data=[24, 0]),
   midi.NoteOnEvent(tick=240, channel=0, data=[43, 58]),
   midi.NoteOnEvent(tick=0, channel=0, data=[52, 69]),
   midi.NoteOnEvent(tick=360, channel=0, data=[52, 0]),
   midi.NoteOnEvent(tick=0, channel=0, data=[43, 0]),
   midi.NoteOnEvent(tick=0, channel=0, data=[43, 50]),
   midi.NoteOnEvent(tick=0, channel=0, data=[52, 61]),
   midi.NoteOnEvent(tick=120, channel=0, data=[52, 0]),
   midi.NoteOnEvent(tick=0, channel=0, data=[43, 0]),
   midi.NoteOnEvent(tick=0, channel=0, data=[43, 60]),
   midi.NoteOnEvent(tick=0, channel=0, data=[52, 70]),
   midi.NoteOnEvent(tick=480, channel=0, data=[52, 0]),
   midi.NoteOnEvent(tick=0, channel=0, data=[43, 0]),
   midi.NoteOnEvent(tick=0, channel=0, data=[43, 52]),
   midi.NoteOnEvent(tick=0, channel=0, data=[53, 62]),
   midi.NoteOnEvent(tick=468, channel=0, data=[53, 0]),
   midi.NoteOnEvent(tick=0, channel=0, data=[43, 0]),
   midi.NoteOnEvent(tick=0, channel=0, data=[43, 49]),
   midi.NoteOnEvent(tick=0, channel=0, data=[52, 58]),
   midi.NoteOnEvent(tick=480, channel=0, data=[52, 0]),
   midi.NoteOnEvent(tick=0, channel=0, data=[43, 0]),
   midi.NoteOnEvent(tick=0, channel=0, data=[48, 58]),
   midi.NoteOnEvent(tick=0, channel=0, data=[36, 55]),
   midi.NoteOnEvent(tick=480, channel=0, data=[48, 0]),
   midi.NoteOnEvent(tick=0, channel=0, data=[52, 58]),
   midi.NoteOnEvent(tick=0, channel=0, data=[43, 49]),
   midi.NoteOnEvent(tick=960, channel=0, data=[43, 0]),
   midi.NoteOnEvent(tick=0, channel=0, data=[52, 0]),
   midi.NoteOnEvent(tick=0, channel=0, data=[36, 0]),
   midi.NoteOnEvent(tick=0, channel=0, data=[36, 74]),
   midi.NoteOnEvent(tick=214, channel=0, data=[36, 0]),
   midi.NoteOnEvent(tick=240, channel=0, data=[64, 55]),
   midi.NoteOnEvent(tick=0, channel=0, data=[58, 55]),
   midi.NoteOnEvent(tick=0, channel=0, data=[55, 61]),
   midi.NoteOnEvent(tick=117, channel=0, data=[55, 0]),
   midi.NoteOnEvent(tick=0, channel=0, data=[58, 0]),
   midi.NoteOnEvent(tick=0, channel=0, data=[64, 0]),
   midi.NoteOnEvent(tick=0, channel=0, data=[47, 62]),
   midi.NoteOnEvent(tick=160, channel=0, data=[47, 0]),
   midi.NoteOnEvent(tick=0, channel=0, data=[48, 63]),
   midi.NoteOnEvent(tick=160, channel=0, data=[48, 0]),
   midi.NoteOnEvent(tick=0, channel=0, data=[49, 69]),
   midi.NoteOnEvent(tick=0, channel=0, data=[63, 58]),
   midi.NoteOnEvent(tick=0, channel=0, data=[58, 58]),
   midi.NoteOnEvent(tick=0, channel=0, data=[55, 58]),
   midi.NoteOnEvent(tick=411, channel=0, data=[55, 0]),
   midi.NoteOnEvent(tick=0, channel=0, data=[49, 0]),
   midi.NoteOnEvent(tick=0, channel=0, data=[63, 0]),
   midi.NoteOnEvent(tick=0, channel=0, data=[58, 0]),
   midi.NoteOnEvent(tick=0, channel=0, data=[37, 60]),
   midi.NoteOnEvent(tick=0, channel=0, data=[49, 72]),
   midi.NoteOnEvent(tick=414, channel=0, data=[49, 0]),
   midi.NoteOnEvent(tick=0, channel=0, data=[37, 0]),
   midi.NoteOnEvent(tick=0, channel=0, data=[38, 66]),
   midi.NoteOnEvent(tick=0, channel=0, data=[50, 77]),
   midi.NoteOnEvent(tick=151, channel=0, data=[50, 0]),
   midi.NoteOnEvent(tick=0, channel=0, data=[38, 0]),
   midi.NoteOnEvent(tick=240, channel=0, data=[64, 55]),
   midi.NoteOnEvent(tick=0, channel=0, data=[58, 55]),
   midi.NoteOnEvent(tick=0, channel=0, data=[55, 63]),
   midi.NoteOnEvent(tick=103, channel=0, data=[55, 0]),
   midi.NoteOnEvent(tick=0, channel=0, data=[58, 0]),
   midi.NoteOnEvent(tick=0, channel=0, data=[64, 0]),
   midi.NoteOnEvent(tick=0, channel=0, data=[47, 63]),
   midi.NoteOnEvent(tick=160, channel=0, data=[47, 0]),
   midi.NoteOnEvent(tick=0, channel=0, data=[49, 63]),
   midi.NoteOnEvent(tick=115, channel=0, data=[51, 70]),
   midi.NoteOnEvent(tick=5, channel=0, data=[49, 0]),
   midi.NoteOnEvent(tick=10, channel=0, data=[55, 70]),
   midi.NoteOnEvent(tick=15, channel=0, data=[58, 58]),
   midi.NoteOnEvent(tick=15, channel=0, data=[63, 58]),
   midi.NoteOnEvent(tick=408, channel=0, data=[63, 0]),
   midi.NoteOnEvent(tick=0, channel=0, data=[51, 0]),
   midi.NoteOnEvent(tick=0, channel=0, data=[55, 0]),
   midi.NoteOnEvent(tick=0, channel=0, data=[58, 0]),
   midi.NoteOnEvent(tick=0, channel=0, data=[39, 60]),
   midi.NoteOnEvent(tick=0, channel=0, data=[51, 72]),
   midi.NoteOnEvent(tick=400, channel=0, data=[51, 0]),
   midi.NoteOnEvent(tick=0, channel=0, data=[39, 0]),
   midi.NoteOnEvent(tick=0, channel=0, data=[40, 80]),
   midi.NoteOnEvent(tick=0, channel=0, data=[52, 80]),
   midi.NoteOnEvent(tick=168, channel=0, data=[52, 0]),
   midi.NoteOnEvent(tick=0, channel=0, data=[40, 0]),
   midi.NoteOnEvent(tick=240, channel=0, data=[60, 88]),
   midi.NoteOnEvent(tick=291, channel=0, data=[60, 0]),
   midi.NoteOnEvent(tick=0, channel=0, data=[60, 79]),
   midi.NoteOnEvent(tick=120, channel=0, data=[60, 0]),
   midi.NoteOnEvent(tick=0, channel=0, data=[60, 88]),
   midi.NoteOnEvent(tick=480, channel=0, data=[60, 0]),
   midi.NoteOnEvent(tick=0, channel=0, data=[36, 55]),
   midi.NoteOnEvent(tick=0, channel=0, data=[48, 63]),
   midi.NoteOnEvent(tick=480, channel=0, data=[48, 0]),
   midi.NoteOnEvent(tick=0, channel=0, data=[36, 0]),
   midi.NoteOnEvent(tick=0, channel=0, data=[41, 58]),
   midi.NoteOnEvent(tick=0, channel=0, data=[53, 70]),
   midi.NoteOnEvent(tick=163, channel=0, data=[53, 0]),
   midi.NoteOnEvent(tick=0, channel=0, data=[41, 0]),
   midi.NoteOnEvent(tick=240, channel=0, data=[69, 74]),
   midi.NoteOnEvent(tick=360, channel=0, data=[69, 0]),
   midi.NoteOnEvent(tick=0, channel=0, data=[57, 67]),
   midi.NoteOnEvent(tick=120, channel=0, data=[62, 70]),
   midi.NoteOnEvent(tick=0, channel=0, data=[53, 70]),
   midi.NoteOnEvent(tick=345, channel=0, data=[62, 0]),
   midi.NoteOnEvent(tick=0, channel=0, data=[64, 67]),
   midi.NoteOnEvent(tick=120, channel=0, data=[64, 0]),
   midi.NoteOnEvent(tick=0, channel=0, data=[65, 70]),
   midi.NoteOnEvent(tick=480, channel=0, data=[65, 0]),
   midi.NoteOnEvent(tick=0, channel=0, data=[53, 0]),
   midi.NoteOnEvent(tick=0, channel=0, data=[57, 0]),
   midi.NoteOnEvent(tick=0, channel=0, data=[31, 77]),
   midi.NoteOnEvent(tick=0, channel=0, data=[43, 77]),
   midi.NoteOnEvent(tick=190, channel=0, data=[43, 0]),
   midi.NoteOnEvent(tick=0, channel=0, data=[31, 0]),
   midi.NoteOnEvent(tick=240, channel=0, data=[55, 70]),
   midi.NoteOnEvent(tick=0, channel=0, data=[59, 70]),
   midi.NoteOnEvent(tick=160, channel=0, data=[59, 0]),
   midi.NoteOnEvent(tick=0, channel=0, data=[65, 63]),
   midi.NoteOnEvent(tick=160, channel=0, data=[65, 0]),
   midi.NoteOnEvent(tick=0, channel=0, data=[69, 63]),
   midi.NoteOnEvent(tick=160, channel=0, data=[69, 0]),
   midi.NoteOnEvent(tick=0, channel=0, data=[55, 0]),
   midi.NoteOnEvent(tick=0, channel=0, data=[67, 70]),
   midi.NoteOnEvent(tick=480, channel=0, data=[67, 0]),
   midi.NoteOnEvent(tick=0, channel=0, data=[55, 68]),
   midi.NoteOnEvent(tick=0, channel=0, data=[59, 68]),
   midi.NoteOnEvent(tick=0, channel=0, data=[65, 68]),
   midi.NoteOnEvent(tick=480, channel=0, data=[65, 0]),
   midi.NoteOnEvent(tick=0, channel=0, data=[59, 0]),
   midi.NoteOnEvent(tick=0, channel=0, data=[55, 0]),
   midi.NoteOnEvent(tick=0, channel=0, data=[36, 72]),
   midi.NoteOnEvent(tick=0, channel=0, data=[48, 72]),
   midi.NoteOnEvent(tick=191, channel=0, data=[48, 0]),
   midi.NoteOnEvent(tick=0, channel=0, data=[36, 0]),
   midi.NoteOnEvent(tick=120, channel=0, data=[48, 55]),
   midi.NoteOnEvent(tick=60, channel=0, data=[55, 55]),
   midi.NoteOnEvent(tick=60, channel=0, data=[64, 63]),
   midi.NoteOnEvent(tick=480, channel=0, data=[64, 0]),
   midi.NoteOnEvent(tick=0, channel=0, data=[55, 0]),
   midi.NoteOnEvent(tick=0, channel=0, data=[48, 0]),
   midi.NoteOnEvent(tick=960, channel=0, data=[40, 90]),
   midi.NoteOnEvent(tick=0, channel=0, data=[28, 90]),
   midi.NoteOnEvent(tick=174, channel=0, data=[28, 0]),
   midi.NoteOnEvent(tick=0, channel=0, data=[40, 0]),
   midi.NoteOnEvent(tick=240, channel=0, data=[59, 77]),
   midi.NoteOnEvent(tick=0, channel=0, data=[55, 66]),
   midi.NoteOnEvent(tick=0, channel=0, data=[52, 66]),
   midi.NoteOnEvent(tick=360, channel=0, data=[52, 0]),
   midi.NoteOnEvent(tick=0, channel=0, data=[55, 0]),
   midi.NoteOnEvent(tick=0, channel=0, data=[59, 0]),
   midi.NoteOnEvent(tick=0, channel=0, data=[52, 60]),
   midi.NoteOnEvent(tick=0, channel=0, data=[55, 60]),
   midi.NoteOnEvent(tick=0, channel=0, data=[59, 72]),
   midi.NoteOnEvent(tick=120, channel=0, data=[59, 0]),
   midi.NoteOnEvent(tick=0, channel=0, data=[55, 0]),
   midi.NoteOnEvent(tick=0, channel=0, data=[52, 0]),
   midi.NoteOnEvent(tick=0, channel=0, data=[59, 77]),
   midi.NoteOnEvent(tick=0, channel=0, data=[55, 66]),
   midi.NoteOnEvent(tick=0, channel=0, data=[52, 66]),
   midi.NoteOnEvent(tick=480, channel=0, data=[52, 0]),
   midi.NoteOnEvent(tick=0, channel=0, data=[55, 0]),
   midi.NoteOnEvent(tick=0, channel=0, data=[59, 0]),
   midi.NoteOnEvent(tick=0, channel=0, data=[52, 67]),
   midi.NoteOnEvent(tick=0, channel=0, data=[55, 67]),
   midi.NoteOnEvent(tick=0, channel=0, data=[60, 80]),
   midi.NoteOnEvent(tick=468, channel=0, data=[60, 0]),
   midi.NoteOnEvent(tick=0, channel=0, data=[55, 0]),
   midi.NoteOnEvent(tick=0, channel=0, data=[52, 0]),
   midi.NoteOnEvent(tick=0, channel=0, data=[52, 66]),
   midi.NoteOnEvent(tick=0, channel=0, data=[55, 66]),
   midi.NoteOnEvent(tick=0, channel=0, data=[59, 77]),
   midi.NoteOnEvent(tick=480, channel=0, data=[59, 0]),
   midi.NoteOnEvent(tick=0, channel=0, data=[55, 0]),
   midi.NoteOnEvent(tick=0, channel=0, data=[52, 0]),
   midi.NoteOnEvent(tick=0, channel=0, data=[52, 60]),
   midi.NoteOnEvent(tick=0, channel=0, data=[55, 72]),
   midi.NoteOnEvent(tick=0, channel=0, data=[47, 60]),
   midi.NoteOnEvent(tick=480, channel=0, data=[47, 0]),
   midi.NoteOnEvent(tick=0, channel=0, data=[55, 0]),
   midi.NoteOnEvent(tick=0, channel=0, data=[52, 0]),
   midi.NoteOnEvent(tick=0, channel=0, data=[52, 60]),
   midi.NoteOnEvent(tick=0, channel=0, data=[59, 72]),
   midi.NoteOnEvent(tick=0, channel=0, data=[55, 60]),
   midi.NoteOnEvent(tick=960, channel=0, data=[55, 0]),
   midi.NoteOnEvent(tick=0, channel=0, data=[59, 0]),
   midi.NoteOnEvent(tick=0, channel=0, data=[52, 0]),
   midi.NoteOnEvent(tick=0, channel=0, data=[28, 74]),
   midi.NoteOnEvent(tick=200, channel=0, data=[28, 0]),
   midi.NoteOnEvent(tick=240, channel=0, data=[40, 58]),
   midi.NoteOnEvent(tick=0, channel=0, data=[47, 69]),
   midi.NoteOnEvent(tick=360, channel=0, data=[47, 0]),
   midi.NoteOnEvent(tick=0, channel=0, data=[40, 0]),
   midi.NoteOnEvent(tick=0, channel=0, data=[47, 61]),
   midi.NoteOnEvent(tick=0, channel=0, data=[40, 50]),
   midi.NoteOnEvent(tick=120, channel=0, data=[40, 0]),
   midi.NoteOnEvent(tick=0, channel=0, data=[47, 0]),
   midi.NoteOnEvent(tick=0, channel=0, data=[40, 60]),
   midi.NoteOnEvent(tick=0, channel=0, data=[47, 70]),
   midi.NoteOnEvent(tick=480, channel=0, data=[47, 0]),
   midi.NoteOnEvent(tick=0, channel=0, data=[40, 0]),
   midi.NoteOnEvent(tick=0, channel=0, data=[40, 52]),
   midi.NoteOnEvent(tick=0, channel=0, data=[48, 62]),
   midi.NoteOnEvent(tick=465, channel=0, data=[48, 0]),
   midi.NoteOnEvent(tick=0, channel=0, data=[40, 0]),
   midi.NoteOnEvent(tick=0, channel=0, data=[40, 55]),
   midi.NoteOnEvent(tick=0, channel=0, data=[47, 63]),
   midi.NoteOnEvent(tick=480, channel=0, data=[47, 0]),
   midi.NoteOnEvent(tick=0, channel=0, data=[40, 0]),
   midi.NoteOnEvent(tick=0, channel=0, data=[28, 55]),
   midi.NoteOnEvent(tick=480, channel=0, data=[35, 58]),
   midi.NoteOnEvent(tick=960, channel=0, data=[35, 0]),
   midi.NoteOnEvent(tick=0, channel=0, data=[28, 0]),
   midi.NoteOnEvent(tick=0, channel=0, data=[27, 70]),
   midi.NoteOnEvent(tick=183, channel=0, data=[27, 0]),
   midi.NoteOnEvent(tick=240, channel=0, data=[60, 77]),
   midi.NoteOnEvent(tick=0, channel=0, data=[51, 77]),
   midi.NoteOnEvent(tick=317, channel=0, data=[51, 0]),
   midi.NoteOnEvent(tick=0, channel=0, data=[60, 0]),
   midi.NoteOnEvent(tick=0, channel=0, data=[60, 73]),
   midi.NoteOnEvent(tick=0, channel=0, data=[51, 73]),
   midi.NoteOnEvent(tick=120, channel=0, data=[51, 0]),
   midi.NoteOnEvent(tick=0, channel=0, data=[60, 0]),
   midi.NoteOnEvent(tick=0, channel=0, data=[52, 77]),
   midi.NoteOnEvent(tick=0, channel=0, data=[60, 77]),
   midi.NoteOnEvent(tick=405, channel=0, data=[60, 0]),
   midi.NoteOnEvent(tick=0, channel=0, data=[52, 0]),
   midi.NoteOnEvent(tick=0, channel=0, data=[28, 66]),
   midi.NoteOnEvent(tick=0, channel=0, data=[40, 77]),
   midi.NoteOnEvent(tick=405, channel=0, data=[40, 0]),
   midi.NoteOnEvent(tick=0, channel=0, data=[28, 0]),
   midi.NoteOnEvent(tick=0, channel=0, data=[27, 67]),
   midi.NoteOnEvent(tick=0, channel=0, data=[39, 67]),
   midi.NoteOnEvent(tick=163, channel=0, data=[39, 0]),
   midi.NoteOnEvent(tick=0, channel=0, data=[27, 0]),
   midi.NoteOnEvent(tick=240, channel=0, data=[62, 77]),
   midi.NoteOnEvent(tick=0, channel=0, data=[51, 77]),
   midi.NoteOnEvent(tick=111, channel=0, data=[51, 0]),
   midi.NoteOnEvent(tick=0, channel=0, data=[62, 0]),
   midi.NoteOnEvent(tick=0, channel=0, data=[60, 72]),
   midi.NoteOnEvent(tick=0, channel=0, data=[51, 72]),
   midi.NoteOnEvent(tick=240, channel=0, data=[51, 0]),
   midi.NoteOnEvent(tick=0, channel=0, data=[60, 0]),
   midi.NoteOnEvent(tick=0, channel=0, data=[51, 73]),
   midi.NoteOnEvent(tick=0, channel=0, data=[59, 73]),
   midi.NoteOnEvent(tick=80, channel=0, data=[59, 0]),
   midi.NoteOnEvent(tick=0, channel=0, data=[51, 0]),
   midi.NoteOnEvent(tick=0, channel=0, data=[59, 77]),
   midi.NoteOnEvent(tick=0, channel=0, data=[52, 77]),
   midi.NoteOnEvent(tick=400, channel=0, data=[52, 0]),
   midi.NoteOnEvent(tick=0, channel=0, data=[59, 0]),
   midi.NoteOnEvent(tick=0, channel=0, data=[28, 67]),
   midi.NoteOnEvent(tick=0, channel=0, data=[40, 79]),
   midi.NoteOnEvent(tick=408, channel=0, data=[40, 0]),
   midi.NoteOnEvent(tick=0, channel=0, data=[28, 0]),
   midi.NoteOnEvent(tick=0, channel=0, data=[42, 69]),
   midi.NoteOnEvent(tick=0, channel=0, data=[30, 69]),
   midi.NoteOnEvent(tick=180, channel=0, data=[30, 0]),
   midi.NoteOnEvent(tick=0, channel=0, data=[42, 0]),
   midi.NoteOnEvent(tick=240, channel=0, data=[59, 70]),
   midi.NoteOnEvent(tick=0, channel=0, data=[54, 60]),
   midi.NoteOnEvent(tick=114, channel=0, data=[59, 0]),
   midi.NoteOnEvent(tick=0, channel=0, data=[63, 66]),
   midi.NoteOnEvent(tick=160, channel=0, data=[63, 0]),
   midi.NoteOnEvent(tick=0, channel=0, data=[68, 70]),
   midi.NoteOnEvent(tick=160, channel=0, data=[68, 0]),
   midi.NoteOnEvent(tick=0, channel=0, data=[54, 0]),
   midi.NoteOnEvent(tick=0, channel=0, data=[58, 60]),
   midi.NoteOnEvent(tick=0, channel=0, data=[66, 70]),
   midi.NoteOnEvent(tick=0, channel=0, data=[64, 70]),
   midi.NoteOnEvent(tick=0, channel=0, data=[54, 60]),
   midi.NoteOnEvent(tick=423, channel=0, data=[54, 0]),
   midi.NoteOnEvent(tick=0, channel=0, data=[58, 0]),
   midi.NoteOnEvent(tick=0, channel=0, data=[66, 0]),
   midi.NoteOnEvent(tick=0, channel=0, data=[64, 0]),
   midi.NoteOnEvent(tick=0, channel=0, data=[42, 77]),
   midi.NoteOnEvent(tick=0, channel=0, data=[30, 66]),
   midi.NoteOnEvent(tick=423, channel=0, data=[30, 0]),
   midi.NoteOnEvent(tick=0, channel=0, data=[42, 0]),
   midi.NoteOnEvent(tick=0, channel=0, data=[35, 66]),
   midi.NoteOnEvent(tick=0, channel=0, data=[47, 77]),
   midi.NoteOnEvent(tick=185, channel=0, data=[47, 0]),
   midi.NoteOnEvent(tick=0, channel=0, data=[35, 0]),
   midi.NoteOnEvent(tick=240, channel=0, data=[54, 56]),
   midi.NoteOnEvent(tick=0, channel=0, data=[63, 67]),
   midi.NoteOnEvent(tick=100, channel=0, data=[63, 0]),
   midi.NoteOnEvent(tick=0, channel=0, data=[54, 0]),
   midi.NoteOnEvent(tick=0, channel=0, data=[53, 49]),
   midi.NoteOnEvent(tick=0, channel=0, data=[62, 58]),
   midi.NoteOnEvent(tick=160, channel=0, data=[62, 0]),
   midi.NoteOnEvent(tick=0, channel=0, data=[53, 0]),
   midi.NoteOnEvent(tick=0, channel=0, data=[63, 63]),
   midi.NoteOnEvent(tick=0, channel=0, data=[54, 55]),
   midi.NoteOnEvent(tick=160, channel=0, data=[54, 0]),
   midi.NoteOnEvent(tick=0, channel=0, data=[63, 0]),
   midi.NoteOnEvent(tick=0, channel=0, data=[51, 65]),
   midi.NoteOnEvent(tick=0, channel=0, data=[59, 76]),
   midi.NoteOnEvent(tick=0, channel=0, data=[47, 65]),
   midi.NoteOnEvent(tick=165, channel=0, data=[47, 0]),
   midi.NoteOnEvent(tick=0, channel=0, data=[59, 0]),
   midi.NoteOnEvent(tick=0, channel=0, data=[51, 0]),
   midi.NoteOnEvent(tick=611, channel=0, data=[40, 90]),
   midi.NoteOnEvent(tick=180, channel=0, data=[40, 0]),
   midi.NoteOnEvent(tick=240, channel=0, data=[59, 77]),
   midi.NoteOnEvent(tick=0, channel=0, data=[55, 66]),
   midi.NoteOnEvent(tick=0, channel=0, data=[52, 66]),
   midi.NoteOnEvent(tick=360, channel=0, data=[52, 0]),
   midi.NoteOnEvent(tick=0, channel=0, data=[55, 0]),
   midi.NoteOnEvent(tick=0, channel=0, data=[59, 0]),
   midi.NoteOnEvent(tick=0, channel=0, data=[52, 60]),
   midi.NoteOnEvent(tick=0, channel=0, data=[55, 60]),
   midi.NoteOnEvent(tick=0, channel=0, data=[59, 72]),
   midi.NoteOnEvent(tick=120, channel=0, data=[59, 0]),
   midi.NoteOnEvent(tick=0, channel=0, data=[55, 0]),
   midi.NoteOnEvent(tick=0, channel=0, data=[52, 0]),
   midi.NoteOnEvent(tick=0, channel=0, data=[59, 77]),
   midi.NoteOnEvent(tick=0, channel=0, data=[55, 66]),
   midi.NoteOnEvent(tick=0, channel=0, data=[52, 66]),
   midi.NoteOnEvent(tick=480, channel=0, data=[52, 0]),
   midi.NoteOnEvent(tick=0, channel=0, data=[55, 0]),
   midi.NoteOnEvent(tick=0, channel=0, data=[59, 0]),
   midi.NoteOnEvent(tick=0, channel=0, data=[52, 67]),
   midi.NoteOnEvent(tick=0, channel=0, data=[55, 67]),
   midi.NoteOnEvent(tick=0, channel=0, data=[60, 80]),
   midi.NoteOnEvent(tick=465, channel=0, data=[60, 0]),
   midi.NoteOnEvent(tick=0, channel=0, data=[55, 0]),
   midi.NoteOnEvent(tick=0, channel=0, data=[52, 0]),
   midi.NoteOnEvent(tick=0, channel=0, data=[52, 66]),
   midi.NoteOnEvent(tick=0, channel=0, data=[55, 66]),
   midi.NoteOnEvent(tick=0, channel=0, data=[59, 77]),
   midi.NoteOnEvent(tick=480, channel=0, data=[59, 0]),
   midi.NoteOnEvent(tick=0, channel=0, data=[55, 0]),
   midi.NoteOnEvent(tick=0, channel=0, data=[52, 0]),
   midi.NoteOnEvent(tick=0, channel=0, data=[47, 60]),
   midi.NoteOnEvent(tick=0, channel=0, data=[52, 60]),
   midi.NoteOnEvent(tick=0, channel=0, data=[55, 72]),
   midi.NoteOnEvent(tick=480, channel=0, data=[55, 0]),
   midi.NoteOnEvent(tick=0, channel=0, data=[52, 0]),
   midi.NoteOnEvent(tick=0, channel=0, data=[47, 0]),
   midi.NoteOnEvent(tick=0, channel=0, data=[52, 60]),
   midi.NoteOnEvent(tick=0, channel=0, data=[55, 60]),
   midi.NoteOnEvent(tick=0, channel=0, data=[59, 72]),
   midi.NoteOnEvent(tick=960, channel=0, data=[59, 0]),
   midi.NoteOnEvent(tick=0, channel=0, data=[55, 0]),
   midi.NoteOnEvent(tick=0, channel=0, data=[52, 0]),
   midi.NoteOnEvent(tick=0, channel=0, data=[31, 62]),
   midi.NoteOnEvent(tick=209, channel=0, data=[31, 0]),
   midi.NoteOnEvent(tick=240, channel=0, data=[38, 58]),
   midi.NoteOnEvent(tick=0, channel=0, data=[47, 69]),
   midi.NoteOnEvent(tick=360, channel=0, data=[47, 0]),
   midi.NoteOnEvent(tick=0, channel=0, data=[47, 61]),
   midi.NoteOnEvent(tick=120, channel=0, data=[47, 0]),
   midi.NoteOnEvent(tick=0, channel=0, data=[47, 70]),
   midi.NoteOnEvent(tick=480, channel=0, data=[47, 0]),
   midi.NoteOnEvent(tick=0, channel=0, data=[48, 62]),
   midi.NoteOnEvent(tick=461, channel=0, data=[48, 0]),
   midi.NoteOnEvent(tick=0, channel=0, data=[47, 73]),
   midi.NoteOnEvent(tick=480, channel=0, data=[47, 0]),
   midi.NoteOnEvent(tick=0, channel=0, data=[38, 0]),
   midi.NoteOnEvent(tick=0, channel=0, data=[31, 69]),
   midi.NoteOnEvent(tick=480, channel=0, data=[38, 66]),
   midi.NoteOnEvent(tick=960, channel=0, data=[38, 0]),
   midi.NoteOnEvent(tick=0, channel=0, data=[31, 0]),
   midi.NoteOnEvent(tick=0, channel=0, data=[31, 75]),
   midi.NoteOnEvent(tick=200, channel=0, data=[31, 0]),
   midi.NoteOnEvent(tick=240, channel=0, data=[59, 82]),
   midi.NoteOnEvent(tick=0, channel=0, data=[50, 70]),
   midi.NoteOnEvent(tick=103, channel=0, data=[50, 0]),
   midi.NoteOnEvent(tick=0, channel=0, data=[59, 0]),
   midi.NoteOnEvent(tick=0, channel=0, data=[42, 73]),
   midi.NoteOnEvent(tick=160, channel=0, data=[42, 0]),
   midi.NoteOnEvent(tick=0, channel=0, data=[43, 79]),
   midi.NoteOnEvent(tick=160, channel=0, data=[43, 0]),
   midi.NoteOnEvent(tick=0, channel=0, data=[44, 82]),
   midi.NoteOnEvent(tick=0, channel=0, data=[58, 82]),
   midi.NoteOnEvent(tick=0, channel=0, data=[50, 70]),
   midi.NoteOnEvent(tick=411, channel=0, data=[50, 0]),
   midi.NoteOnEvent(tick=0, channel=0, data=[58, 0]),
   midi.NoteOnEvent(tick=0, channel=0, data=[44, 0]),
   midi.NoteOnEvent(tick=0, channel=0, data=[32, 86]),
   midi.NoteOnEvent(tick=405, channel=0, data=[32, 0]),
   midi.NoteOnEvent(tick=0, channel=0, data=[33, 81]),
   midi.NoteOnEvent(tick=165, channel=0, data=[33, 0]),
   midi.NoteOnEvent(tick=240, channel=0, data=[62, 80]),
   midi.NoteOnEvent(tick=0, channel=0, data=[53, 67]),
   midi.NoteOnEvent(tick=108, channel=0, data=[53, 0]),
   midi.NoteOnEvent(tick=0, channel=0, data=[62, 0]),
   midi.NoteOnEvent(tick=0, channel=0, data=[44, 73]),
   midi.NoteOnEvent(tick=160, channel=0, data=[44, 0]),
   midi.NoteOnEvent(tick=0, channel=0, data=[45, 79]),
   midi.NoteOnEvent(tick=160, channel=0, data=[45, 0]),
   midi.NoteOnEvent(tick=0, channel=0, data=[46, 82]),
   midi.NoteOnEvent(tick=0, channel=0, data=[62, 82]),
   midi.NoteOnEvent(tick=0, channel=0, data=[56, 70]),
   midi.NoteOnEvent(tick=0, channel=0, data=[53, 70]),
   midi.NoteOnEvent(tick=414, channel=0, data=[53, 0]),
   midi.NoteOnEvent(tick=0, channel=0, data=[46, 0]),
   midi.NoteOnEvent(tick=0, channel=0, data=[62, 0]),
   midi.NoteOnEvent(tick=0, channel=0, data=[56, 0]),
   midi.NoteOnEvent(tick=0, channel=0, data=[34, 94]),
   midi.NoteOnEvent(tick=414, channel=0, data=[34, 0]),
   midi.NoteOnEvent(tick=0, channel=0, data=[35, 90]),
   midi.NoteOnEvent(tick=152, channel=0, data=[35, 0]),
   midi.NoteOnEvent(tick=240, channel=0, data=[55, 96]),
   midi.NoteOnEvent(tick=296, channel=0, data=[55, 0]),
   midi.NoteOnEvent(tick=0, channel=0, data=[55, 86]),
   midi.NoteOnEvent(tick=120, channel=0, data=[55, 0]),
   midi.NoteOnEvent(tick=0, channel=0, data=[55, 96]),
   midi.NoteOnEvent(tick=480, channel=0, data=[55, 0]),
   midi.NoteOnEvent(tick=0, channel=0, data=[31, 55]),
   midi.NoteOnEvent(tick=0, channel=0, data=[43, 55]),
   midi.NoteOnEvent(tick=480, channel=0, data=[43, 0]),
   midi.NoteOnEvent(tick=0, channel=0, data=[31, 0]),
   midi.NoteOnEvent(tick=0, channel=0, data=[36, 60]),
   midi.NoteOnEvent(tick=0, channel=0, data=[48, 60]),
   midi.NoteOnEvent(tick=183, channel=0, data=[48, 0]),
   midi.NoteOnEvent(tick=0, channel=0, data=[36, 0]),
   midi.NoteOnEvent(tick=240, channel=0, data=[52, 57]),
   midi.NoteOnEvent(tick=160, channel=0, data=[52, 0]),
   midi.NoteOnEvent(tick=0, channel=0, data=[60, 57]),
   midi.NoteOnEvent(tick=160, channel=0, data=[60, 0]),
   midi.NoteOnEvent(tick=0, channel=0, data=[68, 57]),
   midi.NoteOnEvent(tick=160, channel=0, data=[68, 0]),
   midi.NoteOnEvent(tick=0, channel=0, data=[41, 57]),
   midi.NoteOnEvent(tick=171, channel=0, data=[41, 0]),
   midi.NoteOnEvent(tick=240, channel=0, data=[53, 48]),
   midi.NoteOnEvent(tick=0, channel=0, data=[56, 57]),
   midi.NoteOnEvent(tick=160, channel=0, data=[56, 0]),
   midi.NoteOnEvent(tick=0, channel=0, data=[53, 0]),
   midi.NoteOnEvent(tick=0, channel=0, data=[61, 57]),
   midi.NoteOnEvent(tick=160, channel=0, data=[61, 0]),
   midi.NoteOnEvent(tick=0, channel=0, data=[68, 57]),
   midi.NoteOnEvent(tick=160, channel=0, data=[68, 0]),
   midi.NoteOnEvent(tick=0, channel=0, data=[43, 68]),
   midi.NoteOnEvent(tick=183, channel=0, data=[43, 0]),
   midi.NoteOnEvent(tick=240, channel=0, data=[55, 52]),
   midi.NoteOnEvent(tick=0, channel=0, data=[60, 62]),
   midi.NoteOnEvent(tick=97, channel=0, data=[60, 0]),
   midi.NoteOnEvent(tick=0, channel=0, data=[55, 0]),
   midi.NoteOnEvent(tick=0, channel=0, data=[64, 57]),
   midi.NoteOnEvent(tick=160, channel=0, data=[64, 0]),
   midi.NoteOnEvent(tick=0, channel=0, data=[67, 57]),
   midi.NoteOnEvent(tick=160, channel=0, data=[67, 0]),
   midi.NoteOnEvent(tick=0, channel=0, data=[43, 62]),
   midi.NoteOnEvent(tick=180, channel=0, data=[43, 0]),
   midi.NoteOnEvent(tick=240, channel=0, data=[65, 57]),
   midi.NoteOnEvent(tick=0, channel=0, data=[55, 57]),
   midi.NoteOnEvent(tick=0, channel=0, data=[62, 57]),
   midi.NoteOnEvent(tick=0, channel=0, data=[67, 57]),
   midi.NoteOnEvent(tick=450, channel=0, data=[48, 60]),
   midi.NoteOnEvent(tick=15, channel=0, data=[55, 60]),
   midi.NoteOnEvent(tick=15, channel=0, data=[67, 0]),
   midi.NoteOnEvent(tick=0, channel=0, data=[62, 0]),
   midi.NoteOnEvent(tick=0, channel=0, data=[65, 0]),
   midi.NoteOnEvent(tick=0, channel=0, data=[55, 0]),
   midi.NoteOnEvent(tick=0, channel=0, data=[64, 60]),
   midi.NoteOnEvent(tick=409, channel=0, data=[64, 0]),
   midi.NoteOnEvent(tick=0, channel=0, data=[55, 0]),
   midi.NoteOnEvent(tick=0, channel=0, data=[48, 0]),
   midi.NoteOnEvent(tick=1423, channel=0, data=[69, 66]),
   midi.NoteOnEvent(tick=80, channel=0, data=[69, 0]),
   midi.NoteOnEvent(tick=2, channel=0, data=[64, 61]),
   midi.NoteOnEvent(tick=78, channel=0, data=[67, 66]),
   midi.NoteOnEvent(tick=2, channel=0, data=[64, 0]),
   midi.NoteOnEvent(tick=78, channel=0, data=[67, 0]),
   midi.NoteOnEvent(tick=2, channel=0, data=[61, 61]),
   midi.NoteOnEvent(tick=78, channel=0, data=[65, 66]),
   midi.NoteOnEvent(tick=2, channel=0, data=[61, 0]),
   midi.NoteOnEvent(tick=77, channel=0, data=[61, 61]),
   midi.NoteOnEvent(tick=1, channel=0, data=[65, 0]),
   midi.NoteOnEvent(tick=79, channel=0, data=[61, 0]),
   midi.NoteOnEvent(tick=0, channel=0, data=[64, 66]),
   midi.NoteOnEvent(tick=80, channel=0, data=[64, 0]),
   midi.NoteOnEvent(tick=3, channel=0, data=[58, 61]),
   midi.NoteOnEvent(tick=80, channel=0, data=[58, 0]),
   midi.NoteOnEvent(tick=0, channel=0, data=[62, 66]),
   midi.NoteOnEvent(tick=76, channel=0, data=[58, 61]),
   midi.NoteOnEvent(tick=4, channel=0, data=[62, 0]),
   midi.NoteOnEvent(tick=76, channel=0, data=[58, 0]),
   midi.NoteOnEvent(tick=0, channel=0, data=[61, 66]),
   midi.NoteOnEvent(tick=80, channel=0, data=[61, 0]),
   midi.NoteOnEvent(tick=0, channel=0, data=[55, 61]),
   midi.NoteOnEvent(tick=80, channel=0, data=[55, 0]),
   midi.NoteOnEvent(tick=3, channel=0, data=[60, 66]),
   midi.NoteOnEvent(tick=80, channel=0, data=[60, 0]),
   midi.NoteOnEvent(tick=1, channel=0, data=[55, 61]),
   midi.NoteOnEvent(tick=78, channel=0, data=[58, 66]),
   midi.NoteOnEvent(tick=2, channel=0, data=[55, 0]),
   midi.NoteOnEvent(tick=75, channel=0, data=[52, 61]),
   midi.NoteOnEvent(tick=3, channel=0, data=[58, 0]),
   midi.NoteOnEvent(tick=77, channel=0, data=[52, 0]),
   midi.NoteOnEvent(tick=3, channel=0, data=[57, 66]),
   midi.NoteOnEvent(tick=77, channel=0, data=[52, 61]),
   midi.NoteOnEvent(tick=3, channel=0, data=[57, 0]),
   midi.NoteOnEvent(tick=77, channel=0, data=[52, 0]),
   midi.NoteOnEvent(tick=3, channel=0, data=[55, 66]),
   midi.NoteOnEvent(tick=80, channel=0, data=[55, 0]),
   midi.NoteOnEvent(tick=0, channel=0, data=[49, 61]),
   midi.NoteOnEvent(tick=79, channel=0, data=[53, 61]),
   midi.NoteOnEvent(tick=1, channel=0, data=[49, 0]),
   midi.NoteOnEvent(tick=77, channel=0, data=[49, 57]),
   midi.NoteOnEvent(tick=2, channel=0, data=[53, 0]),
   midi.NoteOnEvent(tick=78, channel=0, data=[49, 0]),
   midi.NoteOnEvent(tick=5, channel=0, data=[52, 61]),
   midi.NoteOnEvent(tick=75, channel=0, data=[46, 57]),
   midi.NoteOnEvent(tick=5, channel=0, data=[52, 0]),
   midi.NoteOnEvent(tick=75, channel=0, data=[46, 0]),
   midi.NoteOnEvent(tick=3, channel=0, data=[50, 61]),
   midi.NoteOnEvent(tick=77, channel=0, data=[46, 61]),
   midi.NoteOnEvent(tick=3, channel=0, data=[50, 0]),
   midi.NoteOnEvent(tick=77, channel=0, data=[46, 0]),
   midi.NoteOnEvent(tick=1, channel=0, data=[49, 66]),
   midi.NoteOnEvent(tick=80, channel=0, data=[49, 0]),
   midi.NoteOnEvent(tick=2, channel=0, data=[43, 61]),
   midi.NoteOnEvent(tick=78, channel=0, data=[48, 66]),
   midi.NoteOnEvent(tick=2, channel=0, data=[43, 0]),
   midi.NoteOnEvent(tick=78, channel=0, data=[48, 0]),
   midi.NoteOnEvent(tick=0, channel=0, data=[43, 61]),
   midi.NoteOnEvent(tick=80, channel=0, data=[43, 0]),
   midi.NoteOnEvent(tick=2, channel=0, data=[46, 66]),
   midi.NoteOnEvent(tick=79, channel=0, data=[40, 57]),
   midi.NoteOnEvent(tick=1, channel=0, data=[46, 0]),
   midi.NoteOnEvent(tick=79, channel=0, data=[40, 0]),
   midi.NoteOnEvent(tick=0, channel=0, data=[45, 61]),
   midi.NoteOnEvent(tick=79, channel=0, data=[40, 57]),
   midi.NoteOnEvent(tick=1, channel=0, data=[45, 0]),
   midi.NoteOnEvent(tick=79, channel=0, data=[40, 0]),
   midi.NoteOnEvent(tick=3, channel=0, data=[43, 61]),
   midi.NoteOnEvent(tick=76, channel=0, data=[37, 57]),
   midi.NoteOnEvent(tick=4, channel=0, data=[43, 0]),
   midi.NoteOnEvent(tick=76, channel=0, data=[37, 0]),
   midi.NoteOnEvent(tick=2, channel=0, data=[41, 61]),
   midi.NoteOnEvent(tick=80, channel=0, data=[41, 0]),
   midi.NoteOnEvent(tick=1, channel=0, data=[37, 57]),
   midi.NoteOnEvent(tick=80, channel=0, data=[37, 0]),
   midi.NoteOnEvent(tick=1, channel=0, data=[40, 61]),
   midi.NoteOnEvent(tick=78, channel=0, data=[34, 57]),
   midi.NoteOnEvent(tick=2, channel=0, data=[40, 0]),
   midi.NoteOnEvent(tick=76, channel=0, data=[38, 61]),
   midi.NoteOnEvent(tick=2, channel=0, data=[34, 0]),
   midi.NoteOnEvent(tick=78, channel=0, data=[38, 0]),
   midi.NoteOnEvent(tick=2, channel=0, data=[34, 57]),
   midi.NoteOnEvent(tick=80, channel=0, data=[34, 0]),
   midi.NoteOnEvent(tick=0, channel=0, data=[37, 61]),
   midi.NoteOnEvent(tick=78, channel=0, data=[31, 57]),
   midi.NoteOnEvent(tick=2, channel=0, data=[37, 0]),
   midi.NoteOnEvent(tick=78, channel=0, data=[31, 0]),
   midi.NoteOnEvent(tick=4, channel=0, data=[36, 61]),
   midi.NoteOnEvent(tick=80, channel=0, data=[36, 0]),
   midi.NoteOnEvent(tick=0, channel=0, data=[31, 57]),
   midi.NoteOnEvent(tick=80, channel=0, data=[31, 0]),
   midi.NoteOnEvent(tick=1, channel=0, data=[34, 61]),
   midi.NoteOnEvent(tick=78, channel=0, data=[28, 57]),
   midi.NoteOnEvent(tick=2, channel=0, data=[34, 0]),
   midi.NoteOnEvent(tick=78, channel=0, data=[28, 0]),
   midi.NoteOnEvent(tick=0, channel=0, data=[72, 66]),
   midi.NoteOnEvent(tick=80, channel=0, data=[72, 0]),
   midi.NoteOnEvent(tick=0, channel=0, data=[67, 61]),
   midi.NoteOnEvent(tick=80, channel=0, data=[67, 0]),
   midi.NoteOnEvent(tick=1, channel=0, data=[70, 66]),
   midi.NoteOnEvent(tick=80, channel=0, data=[70, 0]),
   midi.NoteOnEvent(tick=0, channel=0, data=[64, 61]),
   midi.NoteOnEvent(tick=80, channel=0, data=[64, 0]),
   midi.NoteOnEvent(tick=1, channel=0, data=[69, 66]),
   midi.NoteOnEvent(tick=77, channel=0, data=[64, 61]),
   midi.NoteOnEvent(tick=3, channel=0, data=[69, 0]),
   midi.NoteOnEvent(tick=77, channel=0, data=[64, 0]),
   midi.NoteOnEvent(tick=0, channel=0, data=[67, 66]),
   midi.NoteOnEvent(tick=78, channel=0, data=[61, 61]),
   midi.NoteOnEvent(tick=2, channel=0, data=[67, 0]),
   midi.NoteOnEvent(tick=78, channel=0, data=[61, 0]),
   midi.NoteOnEvent(tick=5, channel=0, data=[65, 66]),
   midi.NoteOnEvent(tick=79, channel=0, data=[61, 61]),
   midi.NoteOnEvent(tick=1, channel=0, data=[65, 0]),
   midi.NoteOnEvent(tick=77, channel=0, data=[64, 66]),
   midi.NoteOnEvent(tick=2, channel=0, data=[61, 0]),
   midi.NoteOnEvent(tick=76, channel=0, data=[58, 61]),
   midi.NoteOnEvent(tick=2, channel=0, data=[64, 0]),
   midi.NoteOnEvent(tick=78, channel=0, data=[58, 0]),
   midi.NoteOnEvent(tick=5, channel=0, data=[62, 66]),
   midi.NoteOnEvent(tick=79, channel=0, data=[58, 61]),
   midi.NoteOnEvent(tick=1, channel=0, data=[62, 0]),
   midi.NoteOnEvent(tick=75, channel=0, data=[61, 66]),
   midi.NoteOnEvent(tick=4, channel=0, data=[58, 0]),
   midi.NoteOnEvent(tick=76, channel=0, data=[61, 0]),
   midi.NoteOnEvent(tick=2, channel=0, data=[55, 61]),
   midi.NoteOnEvent(tick=80, channel=0, data=[55, 0]),
   midi.NoteOnEvent(tick=3, channel=0, data=[60, 66]),
   midi.NoteOnEvent(tick=75, channel=0, data=[55, 61]),
   midi.NoteOnEvent(tick=5, channel=0, data=[60, 0]),
   midi.NoteOnEvent(tick=75, channel=0, data=[55, 0]),
   midi.NoteOnEvent(tick=0, channel=0, data=[58, 66]),
   midi.NoteOnEvent(tick=80, channel=0, data=[58, 0]),
   midi.NoteOnEvent(tick=1, channel=0, data=[52, 57]),
   midi.NoteOnEvent(tick=79, channel=0, data=[57, 61]),
   midi.NoteOnEvent(tick=1, channel=0, data=[52, 0]),
   midi.NoteOnEvent(tick=79, channel=0, data=[57, 0]),
   midi.NoteOnEvent(tick=3, channel=0, data=[52, 57]),
   midi.NoteOnEvent(tick=77, channel=0, data=[55, 61]),
   midi.NoteOnEvent(tick=3, channel=0, data=[52, 0]),
   midi.NoteOnEvent(tick=77, channel=0, data=[55, 0]),
   midi.NoteOnEvent(tick=3, channel=0, data=[49, 57]),
   midi.NoteOnEvent(tick=80, channel=0, data=[49, 0]),
   midi.NoteOnEvent(tick=0, channel=0, data=[53, 61]),
   midi.NoteOnEvent(tick=80, channel=0, data=[53, 0]),
   midi.NoteOnEvent(tick=1, channel=0, data=[49, 61]),
   midi.NoteOnEvent(tick=80, channel=0, data=[49, 0]),
   midi.NoteOnEvent(tick=0, channel=0, data=[52, 66]),
   midi.NoteOnEvent(tick=80, channel=0, data=[52, 0]),
   midi.NoteOnEvent(tick=1, channel=0, data=[46, 61]),
   midi.NoteOnEvent(tick=79, channel=0, data=[50, 66]),
   midi.NoteOnEvent(tick=1, channel=0, data=[46, 0]),
   midi.NoteOnEvent(tick=76, channel=0, data=[46, 61]),
   midi.NoteOnEvent(tick=3, channel=0, data=[50, 0]),
   midi.NoteOnEvent(tick=77, channel=0, data=[46, 0]),
   midi.NoteOnEvent(tick=3, channel=0, data=[49, 66]),
   midi.NoteOnEvent(tick=78, channel=0, data=[43, 57]),
   midi.NoteOnEvent(tick=2, channel=0, data=[49, 0]),
   midi.NoteOnEvent(tick=78, channel=0, data=[43, 0]),
   midi.NoteOnEvent(tick=3, channel=0, data=[48, 61]),
   midi.NoteOnEvent(tick=79, channel=0, data=[43, 57]),
   midi.NoteOnEvent(tick=1, channel=0, data=[48, 0]),
   midi.NoteOnEvent(tick=76, channel=0, data=[46, 61]),
   midi.NoteOnEvent(tick=3, channel=0, data=[43, 0]),
   midi.NoteOnEvent(tick=77, channel=0, data=[46, 0]),
   midi.NoteOnEvent(tick=0, channel=0, data=[40, 57]),
   midi.NoteOnEvent(tick=80, channel=0, data=[40, 0]),
   midi.NoteOnEvent(tick=1, channel=0, data=[45, 61]),
   midi.NoteOnEvent(tick=79, channel=0, data=[40, 57]),
   midi.NoteOnEvent(tick=1, channel=0, data=[45, 0]),
   midi.NoteOnEvent(tick=79, channel=0, data=[40, 0]),
   midi.NoteOnEvent(tick=2, channel=0, data=[43, 61]),
   midi.NoteOnEvent(tick=78, channel=0, data=[37, 57]),
   midi.NoteOnEvent(tick=2, channel=0, data=[43, 0]),
   midi.NoteOnEvent(tick=78, channel=0, data=[37, 0]),
   midi.NoteOnEvent(tick=4, channel=0, data=[41, 61]),
   midi.NoteOnEvent(tick=76, channel=0, data=[37, 57]),
   midi.NoteOnEvent(tick=4, channel=0, data=[41, 0]),
   midi.NoteOnEvent(tick=76, channel=0, data=[37, 0]),
   midi.NoteOnEvent(tick=1, channel=0, data=[40, 61]),
   midi.NoteOnEvent(tick=79, channel=0, data=[34, 57]),
   midi.NoteOnEvent(tick=1, channel=0, data=[40, 0]),
   midi.NoteOnEvent(tick=78, channel=0, data=[38, 61]),
   midi.NoteOnEvent(tick=1, channel=0, data=[34, 0]),
   midi.NoteOnEvent(tick=79, channel=0, data=[38, 0]),
   midi.NoteOnEvent(tick=1, channel=0, data=[34, 57]),
   midi.NoteOnEvent(tick=79, channel=0, data=[37, 61]),
   midi.NoteOnEvent(tick=1, channel=0, data=[34, 0]),
   midi.NoteOnEvent(tick=79, channel=0, data=[37, 0]),
   midi.NoteOnEvent(tick=4, channel=0, data=[31, 57]),
   midi.NoteOnEvent(tick=78, channel=0, data=[39, 74]),
   midi.NoteOnEvent(tick=2, channel=0, data=[31, 0]),
   midi.NoteOnEvent(tick=5, channel=0, data=[27, 74]),
   midi.NoteOnEvent(tick=209, channel=0, data=[39, 0]),
   midi.NoteOnEvent(tick=7, channel=0, data=[27, 0]),
   midi.NoteOnEvent(tick=233, channel=0, data=[63, 64]),
   midi.NoteOnEvent(tick=360, channel=0, data=[63, 0]),
   midi.NoteOnEvent(tick=0, channel=0, data=[63, 61]),
   midi.NoteOnEvent(tick=120, channel=0, data=[63, 0]),
   midi.NoteOnEvent(tick=0, channel=0, data=[51, 55]),
   midi.NoteOnEvent(tick=0, channel=0, data=[60, 55]),
   midi.NoteOnEvent(tick=0, channel=0, data=[63, 66]),
   midi.NoteOnEvent(tick=480, channel=0, data=[63, 0]),
   midi.NoteOnEvent(tick=0, channel=0, data=[60, 0]),
   midi.NoteOnEvent(tick=0, channel=0, data=[51, 0]),
   midi.NoteOnEvent(tick=0, channel=0, data=[68, 64]),
   midi.NoteOnEvent(tick=303, channel=0, data=[68, 0]),
   midi.NoteOnEvent(tick=0, channel=0, data=[60, 61]),
   midi.NoteOnEvent(tick=120, channel=0, data=[60, 0]),
   midi.NoteOnEvent(tick=0, channel=0, data=[51, 50]),
   midi.NoteOnEvent(tick=0, channel=0, data=[63, 61]),
   midi.NoteOnEvent(tick=474, channel=0, data=[63, 0]),
   midi.NoteOnEvent(tick=0, channel=0, data=[58, 64]),
   midi.NoteOnEvent(tick=360, channel=0, data=[58, 0]),
   midi.NoteOnEvent(tick=0, channel=0, data=[63, 61]),
   midi.NoteOnEvent(tick=120, channel=0, data=[63, 0]),
   midi.NoteOnEvent(tick=0, channel=0, data=[44, 50]),
   midi.NoteOnEvent(tick=0, channel=0, data=[60, 61]),
   midi.NoteOnEvent(tick=480, channel=0, data=[60, 0]),
   midi.NoteOnEvent(tick=0, channel=0, data=[44, 0]),
   midi.NoteOnEvent(tick=0, channel=0, data=[51, 0]),
   midi.NoteOnEvent(tick=480, channel=0, data=[35, 48]),
   midi.NoteOnEvent(tick=0, channel=0, data=[47, 48]),
   midi.NoteOnEvent(tick=209, channel=0, data=[47, 0]),
   midi.NoteOnEvent(tick=0, channel=0, data=[35, 0]),
   midi.NoteOnEvent(tick=240, channel=0, data=[59, 53]),
   midi.NoteOnEvent(tick=360, channel=0, data=[59, 0]),
   midi.NoteOnEvent(tick=0, channel=0, data=[59, 50]),
   midi.NoteOnEvent(tick=120, channel=0, data=[59, 0]),
   midi.NoteOnEvent(tick=0, channel=0, data=[47, 46]),
   midi.NoteOnEvent(tick=0, channel=0, data=[56, 46]),
   midi.NoteOnEvent(tick=0, channel=0, data=[59, 55]),
   midi.NoteOnEvent(tick=480, channel=0, data=[59, 0]),
   midi.NoteOnEvent(tick=0, channel=0, data=[56, 0]),
   midi.NoteOnEvent(tick=0, channel=0, data=[47, 0]),
   midi.NoteOnEvent(tick=0, channel=0, data=[64, 53]),
   midi.NoteOnEvent(tick=225, channel=0, data=[64, 0]),
   midi.NoteOnEvent(tick=120, channel=0, data=[56, 50]),
   midi.NoteOnEvent(tick=120, channel=0, data=[56, 0]),
   midi.NoteOnEvent(tick=0, channel=0, data=[47, 42]),
   midi.NoteOnEvent(tick=0, channel=0, data=[59, 50]),
   midi.NoteOnEvent(tick=480, channel=0, data=[59, 0]),
   midi.NoteOnEvent(tick=0, channel=0, data=[54, 50]),
   midi.NoteOnEvent(tick=160, channel=0, data=[54, 0]),
   midi.NoteOnEvent(tick=0, channel=0, data=[56, 42]),
   midi.NoteOnEvent(tick=160, channel=0, data=[56, 0]),
   midi.NoteOnEvent(tick=0, channel=0, data=[57, 48]),
   midi.NoteOnEvent(tick=130, channel=0, data=[57, 0]),
   midi.NoteOnEvent(tick=0, channel=0, data=[40, 38]),
   midi.NoteOnEvent(tick=15, channel=0, data=[47, 38]),
   midi.NoteOnEvent(tick=15, channel=0, data=[47, 0]),
   midi.NoteOnEvent(tick=0, channel=0, data=[56, 45]),
   midi.NoteOnEvent(tick=480, channel=0, data=[56, 0]),
   midi.NoteOnEvent(tick=0, channel=0, data=[47, 0]),
   midi.NoteOnEvent(tick=0, channel=0, data=[40, 0]),
   midi.NoteOnEvent(tick=480, channel=0, data=[40, 70]),
   midi.NoteOnEvent(tick=0, channel=0, data=[52, 70]),
   midi.NoteOnEvent(tick=423, channel=0, data=[52, 0]),
   midi.NoteOnEvent(tick=0, channel=0, data=[40, 0]),
   midi.NoteOnEvent(tick=0, channel=0, data=[35, 58]),
   midi.NoteOnEvent(tick=0, channel=0, data=[47, 70]),
   midi.NoteOnEvent(tick=160, channel=0, data=[47, 0]),
   midi.NoteOnEvent(tick=0, channel=0, data=[35, 0]),
   midi.NoteOnEvent(tick=0, channel=0, data=[32, 55]),
   midi.NoteOnEvent(tick=0, channel=0, data=[44, 66]),
   midi.NoteOnEvent(tick=160, channel=0, data=[44, 0]),
   midi.NoteOnEvent(tick=0, channel=0, data=[32, 0]),
   midi.NoteOnEvent(tick=0, channel=0, data=[35, 62]),
   midi.NoteOnEvent(tick=0, channel=0, data=[47, 74]),
   midi.NoteOnEvent(tick=160, channel=0, data=[47, 0]),
   midi.NoteOnEvent(tick=0, channel=0, data=[35, 0]),
   midi.NoteOnEvent(tick=0, channel=0, data=[28, 67]),
   midi.NoteOnEvent(tick=0, channel=0, data=[40, 79]),
   midi.NoteOnEvent(tick=108, channel=0, data=[40, 0]),
   midi.NoteOnEvent(tick=0, channel=0, data=[28, 0]),
   midi.NoteOnEvent(tick=180, channel=0, data=[40, 66]),
   midi.NoteOnEvent(tick=0, channel=0, data=[52, 77]),
   midi.NoteOnEvent(tick=120, channel=0, data=[52, 0]),
   midi.NoteOnEvent(tick=0, channel=0, data=[40, 0]),
   midi.NoteOnEvent(tick=0, channel=0, data=[42, 70]),
   midi.NoteOnEvent(tick=0, channel=0, data=[54, 84]),
   midi.NoteOnEvent(tick=342, channel=0, data=[54, 0]),
   midi.NoteOnEvent(tick=0, channel=0, data=[42, 0]),
   midi.NoteOnEvent(tick=0, channel=0, data=[40, 67]),
   midi.NoteOnEvent(tick=0, channel=0, data=[52, 79]),
   midi.NoteOnEvent(tick=120, channel=0, data=[52, 0]),
   midi.NoteOnEvent(tick=0, channel=0, data=[40, 0]),
   midi.NoteOnEvent(tick=0, channel=0, data=[39, 73]),
   midi.NoteOnEvent(tick=0, channel=0, data=[51, 86]),
   midi.NoteOnEvent(tick=480, channel=0, data=[51, 0]),
   midi.NoteOnEvent(tick=0, channel=0, data=[39, 0]),
   midi.NoteOnEvent(tick=0, channel=0, data=[36, 62]),
   midi.NoteOnEvent(tick=0, channel=0, data=[48, 74]),
   midi.NoteOnEvent(tick=480, channel=0, data=[48, 0]),
   midi.NoteOnEvent(tick=0, channel=0, data=[36, 0]),
   midi.NoteOnEvent(tick=0, channel=0, data=[39, 69]),
   midi.NoteOnEvent(tick=0, channel=0, data=[51, 82]),
   midi.NoteOnEvent(tick=480, channel=0, data=[51, 0]),
   midi.NoteOnEvent(tick=0, channel=0, data=[39, 0]),
   midi.NoteOnEvent(tick=0, channel=0, data=[41, 66]),
   midi.NoteOnEvent(tick=0, channel=0, data=[53, 77]),
   midi.NoteOnEvent(tick=160, channel=0, data=[53, 0]),
   midi.NoteOnEvent(tick=0, channel=0, data=[41, 0]),
   midi.NoteOnEvent(tick=0, channel=0, data=[42, 58]),
   midi.NoteOnEvent(tick=0, channel=0, data=[54, 70]),
   midi.NoteOnEvent(tick=160, channel=0, data=[54, 0]),
   midi.NoteOnEvent(tick=0, channel=0, data=[42, 0]),
   midi.NoteOnEvent(tick=0, channel=0, data=[43, 62]),
   midi.NoteOnEvent(tick=0, channel=0, data=[55, 74]),
   midi.NoteOnEvent(tick=160, channel=0, data=[55, 0]),
   midi.NoteOnEvent(tick=0, channel=0, data=[43, 0]),
   midi.NoteOnEvent(tick=0, channel=0, data=[44, 66]),
   midi.NoteOnEvent(tick=0, channel=0, data=[56, 77]),
   midi.NoteOnEvent(tick=448, channel=0, data=[56, 0]),
   midi.NoteOnEvent(tick=0, channel=0, data=[44, 0]),
   midi.NoteOnEvent(tick=0, channel=0, data=[39, 67]),
   midi.NoteOnEvent(tick=0, channel=0, data=[51, 79]),
   midi.NoteOnEvent(tick=160, channel=0, data=[51, 0]),
   midi.NoteOnEvent(tick=0, channel=0, data=[39, 0]),
   midi.NoteOnEvent(tick=0, channel=0, data=[36, 58]),
   midi.NoteOnEvent(tick=0, channel=0, data=[48, 70]),
   midi.NoteOnEvent(tick=160, channel=0, data=[48, 0]),
   midi.NoteOnEvent(tick=0, channel=0, data=[36, 0]),
   midi.NoteOnEvent(tick=0, channel=0, data=[39, 62]),
   midi.NoteOnEvent(tick=0, channel=0, data=[51, 74]),
   midi.NoteOnEvent(tick=160, channel=0, data=[51, 0]),
   midi.NoteOnEvent(tick=0, channel=0, data=[39, 0]),
   midi.NoteOnEvent(tick=0, channel=0, data=[32, 67]),
   midi.NoteOnEvent(tick=0, channel=0, data=[44, 79]),
   midi.NoteOnEvent(tick=120, channel=0, data=[44, 0]),
   midi.NoteOnEvent(tick=0, channel=0, data=[32, 0]),
   midi.NoteOnEvent(tick=177, channel=0, data=[44, 66]),
   midi.NoteOnEvent(tick=0, channel=0, data=[56, 77]),
   midi.NoteOnEvent(tick=120, channel=0, data=[56, 0]),
   midi.NoteOnEvent(tick=0, channel=0, data=[44, 0]),
   midi.NoteOnEvent(tick=0, channel=0, data=[46, 70]),
   midi.NoteOnEvent(tick=0, channel=0, data=[58, 84]),
   midi.NoteOnEvent(tick=360, channel=0, data=[58, 0]),
   midi.NoteOnEvent(tick=0, channel=0, data=[46, 0]),
   midi.NoteOnEvent(tick=0, channel=0, data=[44, 67]),
   midi.NoteOnEvent(tick=0, channel=0, data=[56, 79]),
   midi.NoteOnEvent(tick=120, channel=0, data=[56, 0]),
   midi.NoteOnEvent(tick=0, channel=0, data=[44, 0]),
   midi.NoteOnEvent(tick=0, channel=0, data=[43, 73]),
   midi.NoteOnEvent(tick=0, channel=0, data=[55, 86]),
   midi.NoteOnEvent(tick=480, channel=0, data=[55, 0]),
   midi.NoteOnEvent(tick=0, channel=0, data=[43, 0]),
   midi.NoteOnEvent(tick=0, channel=0, data=[40, 62]),
   midi.NoteOnEvent(tick=0, channel=0, data=[52, 74]),
   midi.NoteOnEvent(tick=480, channel=0, data=[52, 0]),
   midi.NoteOnEvent(tick=0, channel=0, data=[40, 0]),
   midi.NoteOnEvent(tick=0, channel=0, data=[43, 69]),
   midi.NoteOnEvent(tick=0, channel=0, data=[55, 82]),
   midi.NoteOnEvent(tick=480, channel=0, data=[55, 0]),
   midi.NoteOnEvent(tick=0, channel=0, data=[43, 0]),
   midi.NoteOnEvent(tick=0, channel=0, data=[45, 66]),
   midi.NoteOnEvent(tick=0, channel=0, data=[57, 77]),
   midi.NoteOnEvent(tick=160, channel=0, data=[57, 0]),
   midi.NoteOnEvent(tick=0, channel=0, data=[45, 0]),
   midi.NoteOnEvent(tick=0, channel=0, data=[46, 67]),
   midi.NoteOnEvent(tick=0, channel=0, data=[58, 79]),
   midi.NoteOnEvent(tick=160, channel=0, data=[58, 0]),
   midi.NoteOnEvent(tick=0, channel=0, data=[46, 0]),
   midi.NoteOnEvent(tick=0, channel=0, data=[47, 69]),
   midi.NoteOnEvent(tick=0, channel=0, data=[59, 82]),
   midi.NoteOnEvent(tick=160, channel=0, data=[59, 0]),
   midi.NoteOnEvent(tick=0, channel=0, data=[47, 0]),
   midi.NoteOnEvent(tick=0, channel=0, data=[48, 75]),
   midi.NoteOnEvent(tick=0, channel=0, data=[60, 90]),
   midi.NoteOnEvent(tick=450, channel=0, data=[36, 63]),
   midi.NoteOnEvent(tick=15, channel=0, data=[43, 63]),
   midi.NoteOnEvent(tick=15, channel=0, data=[60, 0]),
   midi.NoteOnEvent(tick=0, channel=0, data=[48, 0]),
   midi.NoteOnEvent(tick=0, channel=0, data=[52, 82]),
   midi.NoteOnEvent(tick=450, channel=0, data=[41, 67]),
   midi.NoteOnEvent(tick=15, channel=0, data=[48, 68]),
   midi.NoteOnEvent(tick=15, channel=0, data=[52, 0]),
   midi.NoteOnEvent(tick=0, channel=0, data=[43, 0]),
   midi.NoteOnEvent(tick=0, channel=0, data=[36, 0]),
   midi.NoteOnEvent(tick=0, channel=0, data=[57, 89]),
   midi.NoteOnEvent(tick=465, channel=0, data=[35, 60]),
   midi.NoteOnEvent(tick=15, channel=0, data=[57, 0]),
   midi.NoteOnEvent(tick=0, channel=0, data=[48, 0]),
   midi.NoteOnEvent(tick=0, channel=0, data=[41, 0]),
   midi.NoteOnEvent(tick=0, channel=0, data=[54, 82]),
   midi.NoteOnEvent(tick=450, channel=0, data=[40, 62]),
   midi.NoteOnEvent(tick=15, channel=0, data=[47, 63]),
   midi.NoteOnEvent(tick=15, channel=0, data=[54, 0]),
   midi.NoteOnEvent(tick=0, channel=0, data=[35, 0]),
   midi.NoteOnEvent(tick=0, channel=0, data=[55, 90]),
   midi.NoteOnEvent(tick=450, channel=0, data=[45, 55]),
   midi.NoteOnEvent(tick=15, channel=0, data=[52, 56]),
   midi.NoteOnEvent(tick=15, channel=0, data=[55, 0]),
   midi.NoteOnEvent(tick=0, channel=0, data=[47, 0]),
   midi.NoteOnEvent(tick=0, channel=0, data=[40, 0]),
   midi.NoteOnEvent(tick=0, channel=0, data=[61, 82]),
   midi.NoteOnEvent(tick=450, channel=0, data=[50, 62]),
   midi.NoteOnEvent(tick=15, channel=0, data=[57, 66]),
   midi.NoteOnEvent(tick=15, channel=0, data=[61, 0]),
   midi.NoteOnEvent(tick=0, channel=0, data=[52, 0]),
   midi.NoteOnEvent(tick=0, channel=0, data=[45, 0]),
   midi.NoteOnEvent(tick=0, channel=0, data=[62, 89]),
   midi.NoteOnEvent(tick=450, channel=0, data=[45, 55]),
   midi.NoteOnEvent(tick=15, channel=0, data=[52, 55]),
   midi.NoteOnEvent(tick=15, channel=0, data=[62, 0]),
   midi.NoteOnEvent(tick=0, channel=0, data=[57, 0]),
   midi.NoteOnEvent(tick=0, channel=0, data=[50, 0]),
   midi.NoteOnEvent(tick=0, channel=0, data=[60, 82]),
   midi.NoteOnEvent(tick=480, channel=0, data=[60, 0]),
   midi.NoteOnEvent(tick=0, channel=0, data=[45, 0]),
   midi.NoteOnEvent(tick=0, channel=0, data=[52, 0]),
   midi.NoteOnEvent(tick=0, channel=0, data=[38, 80]),
   midi.NoteOnEvent(tick=0, channel=0, data=[50, 94]),
   midi.NoteOnEvent(tick=169, channel=0, data=[50, 0]),
   midi.NoteOnEvent(tick=0, channel=0, data=[38, 0]),
   midi.NoteOnEvent(tick=240, channel=0, data=[53, 77]),
   midi.NoteOnEvent(tick=0, channel=0, data=[65, 90]),
   midi.NoteOnEvent(tick=480, channel=0, data=[65, 0]),
   midi.NoteOnEvent(tick=0, channel=0, data=[53, 0]),
   midi.NoteOnEvent(tick=0, channel=0, data=[46, 74]),
   midi.NoteOnEvent(tick=0, channel=0, data=[58, 88]),
   midi.NoteOnEvent(tick=240, channel=0, data=[58, 0]),
   midi.NoteOnEvent(tick=0, channel=0, data=[46, 0]),
   midi.NoteOnEvent(tick=120, channel=0, data=[48, 79]),
   midi.NoteOnEvent(tick=0, channel=0, data=[60, 93]),
   midi.NoteOnEvent(tick=116, channel=0, data=[60, 0]),
   midi.NoteOnEvent(tick=0, channel=0, data=[48, 0]),
   midi.NoteOnEvent(tick=0, channel=0, data=[47, 74]),
   midi.NoteOnEvent(tick=0, channel=0, data=[59, 89]),
   midi.NoteOnEvent(tick=480, channel=0, data=[59, 0]),
   midi.NoteOnEvent(tick=0, channel=0, data=[47, 0]),
   midi.NoteOnEvent(tick=0, channel=0, data=[39, 80]),
   midi.NoteOnEvent(tick=0, channel=0, data=[51, 94]),
   midi.NoteOnEvent(tick=194, channel=0, data=[51, 0]),
   midi.NoteOnEvent(tick=0, channel=0, data=[39, 0]),
   midi.NoteOnEvent(tick=240, channel=0, data=[54, 77]),
   midi.NoteOnEvent(tick=0, channel=0, data=[66, 90]),
   midi.NoteOnEvent(tick=480, channel=0, data=[66, 0]),
   midi.NoteOnEvent(tick=0, channel=0, data=[54, 0]),
   midi.NoteOnEvent(tick=0, channel=0, data=[45, 74]),
   midi.NoteOnEvent(tick=0, channel=0, data=[57, 88]),
   midi.NoteOnEvent(tick=240, channel=0, data=[57, 0]),
   midi.NoteOnEvent(tick=0, channel=0, data=[45, 0]),
   midi.NoteOnEvent(tick=120, channel=0, data=[50, 79]),
   midi.NoteOnEvent(tick=0, channel=0, data=[62, 93]),
   midi.NoteOnEvent(tick=105, channel=0, data=[62, 0]),
   midi.NoteOnEvent(tick=0, channel=0, data=[50, 0]),
   midi.NoteOnEvent(tick=0, channel=0, data=[48, 74]),
   midi.NoteOnEvent(tick=0, channel=0, data=[60, 89]),
   midi.NoteOnEvent(tick=480, channel=0, data=[60, 0]),
   midi.NoteOnEvent(tick=0, channel=0, data=[48, 0]),
   midi.NoteOnEvent(tick=0, channel=0, data=[52, 62]),
   midi.NoteOnEvent(tick=0, channel=0, data=[40, 62]),
   midi.NoteOnEvent(tick=185, channel=0, data=[40, 0]),
   midi.NoteOnEvent(tick=240, channel=0, data=[59, 80]),
   midi.NoteOnEvent(tick=360, channel=0, data=[59, 0]),
   midi.NoteOnEvent(tick=0, channel=0, data=[64, 77]),
   midi.NoteOnEvent(tick=120, channel=0, data=[64, 0]),
   midi.NoteOnEvent(tick=0, channel=0, data=[62, 77]),
   midi.NoteOnEvent(tick=940, channel=0, data=[62, 0]),
   midi.NoteOnEvent(tick=0, channel=0, data=[52, 0]),
   midi.NoteOnEvent(tick=0, channel=0, data=[28, 61]),
   midi.NoteOnEvent(tick=0, channel=0, data=[40, 61]),
   midi.NoteOnEvent(tick=191, channel=0, data=[40, 0]),
   midi.NoteOnEvent(tick=0, channel=0, data=[28, 0]),
   midi.NoteOnEvent(tick=240, channel=0, data=[56, 80]),
   midi.NoteOnEvent(tick=360, channel=0, data=[56, 0]),
   midi.NoteOnEvent(tick=0, channel=0, data=[61, 77]),
   midi.NoteOnEvent(tick=120, channel=0, data=[61, 0]),
   midi.NoteOnEvent(tick=0, channel=0, data=[59, 77]),
   midi.NoteOnEvent(tick=940, channel=0, data=[59, 0]),
   midi.NoteOnEvent(tick=0, channel=0, data=[40, 74]),
   midi.NoteOnEvent(tick=480, channel=0, data=[53, 79]),
   midi.NoteOnEvent(tick=360, channel=0, data=[53, 0]),
   midi.NoteOnEvent(tick=0, channel=0, data=[53, 77]),
   midi.NoteOnEvent(tick=120, channel=0, data=[53, 0]),
   midi.NoteOnEvent(tick=0, channel=0, data=[53, 77]),
   midi.NoteOnEvent(tick=480, channel=0, data=[53, 0]),
   midi.NoteOnEvent(tick=0, channel=0, data=[55, 80]),
   midi.NoteOnEvent(tick=480, channel=0, data=[55, 0]),
   midi.NoteOnEvent(tick=0, channel=0, data=[53, 79]),
   midi.NoteOnEvent(tick=480, channel=0, data=[53, 0]),
   midi.NoteOnEvent(tick=0, channel=0, data=[50, 79]),
   midi.NoteOnEvent(tick=480, channel=0, data=[50, 0]),
   midi.NoteOnEvent(tick=0, channel=0, data=[53, 77]),
   midi.NoteOnEvent(tick=959, channel=0, data=[40, 82]),
   midi.NoteOnEvent(tick=1, channel=0, data=[53, 0]),
   midi.NoteOnEvent(tick=0, channel=0, data=[40, 0]),
   midi.NoteOnEvent(tick=44, channel=0, data=[40, 0]),
   midi.NoteOnEvent(tick=0, channel=0, data=[47, 70]),
   midi.NoteOnEvent(tick=80, channel=0, data=[44, 79]),
   midi.NoteOnEvent(tick=16, channel=0, data=[47, 0]),
   midi.NoteOnEvent(tick=67, channel=0, data=[50, 68]),
   midi.NoteOnEvent(tick=13, channel=0, data=[44, 0]),
   midi.NoteOnEvent(tick=66, channel=0, data=[44, 74]),
   midi.NoteOnEvent(tick=17, channel=0, data=[50, 0]),
   midi.NoteOnEvent(tick=60, channel=0, data=[50, 68]),
   midi.NoteOnEvent(tick=19, channel=0, data=[44, 0]),
   midi.NoteOnEvent(tick=62, channel=0, data=[47, 74]),
   midi.NoteOnEvent(tick=8, channel=0, data=[50, 0]),
   midi.NoteOnEvent(tick=29, channel=0, data=[53, 66]),
   midi.NoteOnEvent(tick=14, channel=0, data=[47, 0]),
   midi.NoteOnEvent(tick=64, channel=0, data=[47, 74]),
   midi.NoteOnEvent(tick=18, channel=0, data=[53, 0]),
   midi.NoteOnEvent(tick=64, channel=0, data=[53, 67]),
   midi.NoteOnEvent(tick=14, channel=0, data=[47, 0]),
   midi.NoteOnEvent(tick=63, channel=0, data=[50, 74]),
   midi.NoteOnEvent(tick=19, channel=0, data=[53, 0]),
   midi.NoteOnEvent(tick=63, channel=0, data=[56, 66]),
   midi.NoteOnEvent(tick=14, channel=0, data=[50, 0]),
   midi.NoteOnEvent(tick=66, channel=0, data=[50, 74]),
   midi.NoteOnEvent(tick=7, channel=0, data=[56, 0]),
   midi.NoteOnEvent(tick=27, channel=0, data=[56, 66]),
   midi.NoteOnEvent(tick=17, channel=0, data=[50, 0]),
   midi.NoteOnEvent(tick=66, channel=0, data=[53, 74]),
   midi.NoteOnEvent(tick=13, channel=0, data=[56, 0]),
   midi.NoteOnEvent(tick=68, channel=0, data=[59, 66]),
   midi.NoteOnEvent(tick=15, channel=0, data=[53, 0]),
   midi.NoteOnEvent(tick=63, channel=0, data=[53, 73]),
   midi.NoteOnEvent(tick=18, channel=0, data=[59, 0]),
   midi.NoteOnEvent(tick=64, channel=0, data=[59, 63]),
   midi.NoteOnEvent(tick=14, channel=0, data=[53, 0]),
   midi.NoteOnEvent(tick=65, channel=0, data=[56, 73]),
   midi.NoteOnEvent(tick=16, channel=0, data=[59, 0]),
   midi.NoteOnEvent(tick=35, channel=0, data=[62, 63]),
   midi.NoteOnEvent(tick=17, channel=0, data=[56, 0]),
   midi.NoteOnEvent(tick=63, channel=0, data=[56, 72]),
   midi.NoteOnEvent(tick=16, channel=0, data=[62, 0]),
   midi.NoteOnEvent(tick=64, channel=0, data=[62, 63]),
   midi.NoteOnEvent(tick=16, channel=0, data=[56, 0]),
   midi.NoteOnEvent(tick=64, channel=0, data=[59, 72]),
   midi.NoteOnEvent(tick=16, channel=0, data=[62, 0]),
   midi.NoteOnEvent(tick=62, channel=0, data=[65, 63]),
   midi.NoteOnEvent(tick=18, channel=0, data=[59, 0]),
   midi.NoteOnEvent(tick=62, channel=0, data=[59, 72]),
   midi.NoteOnEvent(tick=4, channel=0, data=[65, 0]),
   midi.NoteOnEvent(tick=22, channel=0, data=[65, 64]),
   midi.NoteOnEvent(tick=16, channel=0, data=[59, 0]),
   midi.NoteOnEvent(tick=64, channel=0, data=[62, 72]),
   midi.NoteOnEvent(tick=16, channel=0, data=[65, 0]),
   midi.NoteOnEvent(tick=65, channel=0, data=[68, 63]),
   midi.NoteOnEvent(tick=15, channel=0, data=[62, 0]),
   midi.NoteOnEvent(tick=67, channel=0, data=[62, 72]),
   midi.NoteOnEvent(tick=14, channel=0, data=[68, 0]),
   midi.NoteOnEvent(tick=63, channel=0, data=[68, 63]),
   midi.NoteOnEvent(tick=19, channel=0, data=[62, 0]),
   midi.NoteOnEvent(tick=64, channel=0, data=[65, 72]),
   midi.NoteOnEvent(tick=3, channel=0, data=[68, 0]),
   midi.NoteOnEvent(tick=22, channel=0, data=[71, 63]),
   midi.NoteOnEvent(tick=19, channel=0, data=[65, 0]),
   midi.NoteOnEvent(tick=60, channel=0, data=[65, 72]),
   midi.NoteOnEvent(tick=17, channel=0, data=[71, 0]),
   midi.NoteOnEvent(tick=66, channel=0, data=[71, 63]),
   midi.NoteOnEvent(tick=13, channel=0, data=[65, 0]),
   midi.NoteOnEvent(tick=66, channel=0, data=[68, 72]),
   midi.NoteOnEvent(tick=17, channel=0, data=[71, 0]),
   midi.NoteOnEvent(tick=63, channel=0, data=[74, 63]),
   midi.NoteOnEvent(tick=16, channel=0, data=[68, 0]),
   midi.NoteOnEvent(tick=64, channel=0, data=[80, 88]),
   midi.NoteOnEvent(tick=100, channel=0, data=[80, 0]),
   midi.NoteOnEvent(tick=40, channel=0, data=[74, 0]),
   midi.NoteOnEvent(tick=800, channel=0, data=[35, 82]),
   midi.NoteOnEvent(tick=36, channel=0, data=[41, 67]),
   midi.NoteOnEvent(tick=14, channel=0, data=[35, 0]),
   midi.NoteOnEvent(tick=63, channel=0, data=[38, 79]),
   midi.NoteOnEvent(tick=19, channel=0, data=[41, 0]),
   midi.NoteOnEvent(tick=61, channel=0, data=[44, 67]),
   midi.NoteOnEvent(tick=16, channel=0, data=[38, 0]),
   midi.NoteOnEvent(tick=64, channel=0, data=[38, 79]),
   midi.NoteOnEvent(tick=16, channel=0, data=[44, 0]),
   midi.NoteOnEvent(tick=64, channel=0, data=[44, 67]),
   midi.NoteOnEvent(tick=16, channel=0, data=[38, 0]),
   midi.NoteOnEvent(tick=67, channel=0, data=[41, 74]),
   midi.NoteOnEvent(tick=3, channel=0, data=[44, 0]),
   midi.NoteOnEvent(tick=31, channel=0, data=[47, 67]),
   midi.NoteOnEvent(tick=18, channel=0, data=[41, 0]),
   midi.NoteOnEvent(tick=60, channel=0, data=[41, 74]),
   midi.NoteOnEvent(tick=18, channel=0, data=[47, 0]),
   midi.NoteOnEvent(tick=67, channel=0, data=[47, 68]),
   midi.NoteOnEvent(tick=11, channel=0, data=[41, 0]),
   midi.NoteOnEvent(tick=64, channel=0, data=[44, 74]),
   midi.NoteOnEvent(tick=21, channel=0, data=[47, 0]),
   midi.NoteOnEvent(tick=62, channel=0, data=[50, 67]),
   midi.NoteOnEvent(tick=13, channel=0, data=[44, 0]),
   midi.NoteOnEvent(tick=67, channel=0, data=[44, 74]),
   midi.NoteOnEvent(tick=2, channel=0, data=[50, 0]),
   midi.NoteOnEvent(tick=20, channel=0, data=[50, 66]),
   midi.NoteOnEvent(tick=17, channel=0, data=[44, 0]),
   midi.NoteOnEvent(tick=63, channel=0, data=[47, 74]),
   midi.NoteOnEvent(tick=16, channel=0, data=[50, 0]),
   midi.NoteOnEvent(tick=64, channel=0, data=[53, 64]),
   midi.NoteOnEvent(tick=16, channel=0, data=[47, 0]),
   midi.NoteOnEvent(tick=65, channel=0, data=[47, 73]),
   midi.NoteOnEvent(tick=15, channel=0, data=[53, 0]),
   midi.NoteOnEvent(tick=66, channel=0, data=[53, 66]),
   midi.NoteOnEvent(tick=15, channel=0, data=[47, 0]),
   midi.NoteOnEvent(tick=27, channel=0, data=[50, 73]),
   midi.NoteOnEvent(tick=11, channel=0, data=[53, 0]),
   midi.NoteOnEvent(tick=63, channel=0, data=[56, 64]),
   midi.NoteOnEvent(tick=14, channel=0, data=[50, 0]),
   midi.NoteOnEvent(tick=63, channel=0, data=[50, 72]),
   midi.NoteOnEvent(tick=19, channel=0, data=[56, 0]),
   midi.NoteOnEvent(tick=64, channel=0, data=[56, 64]),
   midi.NoteOnEvent(tick=13, channel=0, data=[50, 0]),
   midi.NoteOnEvent(tick=66, channel=0, data=[53, 72]),
   midi.NoteOnEvent(tick=17, channel=0, data=[56, 0]),
   midi.NoteOnEvent(tick=66, channel=0, data=[59, 64]),
   midi.NoteOnEvent(tick=13, channel=0, data=[53, 0]),
   midi.NoteOnEvent(tick=64, channel=0, data=[53, 73]),
   midi.NoteOnEvent(tick=11, channel=0, data=[59, 0]),
   midi.NoteOnEvent(tick=28, channel=0, data=[59, 64]),
   midi.NoteOnEvent(tick=16, channel=0, data=[53, 0]),
   midi.NoteOnEvent(tick=65, channel=0, data=[56, 72]),
   midi.NoteOnEvent(tick=15, channel=0, data=[59, 0]),
   midi.NoteOnEvent(tick=66, channel=0, data=[62, 64]),
   midi.NoteOnEvent(tick=15, channel=0, data=[56, 0]),
   midi.NoteOnEvent(tick=61, channel=0, data=[56, 72]),
   midi.NoteOnEvent(tick=20, channel=0, data=[62, 0]),
   midi.NoteOnEvent(tick=60, channel=0, data=[62, 63]),
   midi.NoteOnEvent(tick=16, channel=0, data=[56, 0]),
   midi.NoteOnEvent(tick=65, channel=0, data=[59, 72]),
   midi.NoteOnEvent(tick=2, channel=0, data=[62, 0]),
   midi.NoteOnEvent(tick=27, channel=0, data=[65, 63]),
   midi.NoteOnEvent(tick=13, channel=0, data=[59, 0]),
   midi.NoteOnEvent(tick=68, channel=0, data=[59, 72]),
   midi.NoteOnEvent(tick=15, channel=0, data=[65, 0]),
   midi.NoteOnEvent(tick=61, channel=0, data=[65, 63]),
   midi.NoteOnEvent(tick=20, channel=0, data=[59, 0]),
   midi.NoteOnEvent(tick=60, channel=0, data=[62, 72]),
   midi.NoteOnEvent(tick=16, channel=0, data=[65, 0]),
   midi.NoteOnEvent(tick=66, channel=0, data=[68, 63]),
   midi.NoteOnEvent(tick=79, channel=0, data=[65, 71]),
   midi.NoteOnEvent(tick=0, channel=0, data=[71, 81]),
   midi.NoteOnEvent(tick=1, channel=0, data=[68, 0]),
   midi.NoteOnEvent(tick=94, channel=0, data=[71, 0]),
   midi.NoteOnEvent(tick=0, channel=0, data=[65, 0]),
   midi.NoteOnEvent(tick=55, channel=0, data=[62, 0]),
   midi.NoteOnEvent(tick=785, channel=0, data=[65, 60]),
   midi.NoteOnEvent(tick=80, channel=0, data=[65, 0]),
   midi.NoteOnEvent(tick=0, channel=0, data=[62, 53]),
   midi.NoteOnEvent(tick=80, channel=0, data=[62, 0]),
   midi.NoteOnEvent(tick=0, channel=0, data=[64, 60]),
   midi.NoteOnEvent(tick=80, channel=0, data=[64, 0]),
   midi.NoteOnEvent(tick=0, channel=0, data=[59, 60]),
   midi.NoteOnEvent(tick=240, channel=0, data=[59, 0]),
   midi.NoteOnEvent(tick=480, channel=0, data=[65, 60]),
   midi.NoteOnEvent(tick=80, channel=0, data=[65, 0]),
   midi.NoteOnEvent(tick=0, channel=0, data=[62, 52]),
   midi.NoteOnEvent(tick=80, channel=0, data=[62, 0]),
   midi.NoteOnEvent(tick=0, channel=0, data=[64, 60]),
   midi.NoteOnEvent(tick=80, channel=0, data=[64, 0]),
   midi.NoteOnEvent(tick=0, channel=0, data=[59, 60]),
   midi.NoteOnEvent(tick=240, channel=0, data=[59, 0]),
   midi.NoteOnEvent(tick=481, channel=0, data=[65, 48]),
   midi.NoteOnEvent(tick=80, channel=0, data=[65, 0]),
   midi.NoteOnEvent(tick=2, channel=0, data=[62, 48]),
   midi.NoteOnEvent(tick=79, channel=0, data=[64, 48]),
   midi.NoteOnEvent(tick=1, channel=0, data=[62, 0]),
   midi.NoteOnEvent(tick=77, channel=0, data=[59, 49]),
   midi.NoteOnEvent(tick=2, channel=0, data=[64, 0]),
   midi.NoteOnEvent(tick=78, channel=0, data=[59, 0]),
   midi.NoteOnEvent(tick=3, channel=0, data=[65, 49]),
   midi.NoteOnEvent(tick=76, channel=0, data=[62, 50]),
   midi.NoteOnEvent(tick=4, channel=0, data=[65, 0]),
   midi.NoteOnEvent(tick=76, channel=0, data=[62, 0]),
   midi.NoteOnEvent(tick=1, channel=0, data=[64, 50]),
   midi.NoteOnEvent(tick=80, channel=0, data=[64, 0]),
   midi.NoteOnEvent(tick=0, channel=0, data=[59, 50]),
   midi.NoteOnEvent(tick=80, channel=0, data=[59, 0]),
   midi.NoteOnEvent(tick=2, channel=0, data=[65, 51]),
   midi.NoteOnEvent(tick=77, channel=0, data=[62, 51]),
   midi.NoteOnEvent(tick=3, channel=0, data=[65, 0]),
   midi.NoteOnEvent(tick=77, channel=0, data=[62, 0]),
   midi.NoteOnEvent(tick=4, channel=0, data=[64, 52]),
   midi.NoteOnEvent(tick=76, channel=0, data=[59, 52]),
   midi.NoteOnEvent(tick=4, channel=0, data=[64, 0]),
   midi.NoteOnEvent(tick=76, channel=0, data=[59, 0]),
   midi.NoteOnEvent(tick=0, channel=0, data=[65, 53]),
   midi.NoteOnEvent(tick=80, channel=0, data=[65, 0]),
   midi.NoteOnEvent(tick=3, channel=0, data=[62, 53]),
   midi.NoteOnEvent(tick=80, channel=0, data=[62, 0]),
   midi.NoteOnEvent(tick=0, channel=0, data=[64, 53]),
   midi.NoteOnEvent(tick=79, channel=0, data=[59, 55]),
   midi.NoteOnEvent(tick=1, channel=0, data=[64, 0]),
   midi.NoteOnEvent(tick=79, channel=0, data=[59, 0]),
   midi.NoteOnEvent(tick=1, channel=0, data=[65, 55]),
   midi.NoteOnEvent(tick=76, channel=0, data=[62, 56]),
   midi.NoteOnEvent(tick=4, channel=0, data=[65, 0]),
   midi.NoteOnEvent(tick=76, channel=0, data=[62, 0]),
   midi.NoteOnEvent(tick=1, channel=0, data=[64, 56]),
   midi.NoteOnEvent(tick=80, channel=0, data=[64, 0]),
   midi.NoteOnEvent(tick=0, channel=0, data=[59, 56]),
   midi.NoteOnEvent(tick=80, channel=0, data=[59, 0]),
   midi.NoteOnEvent(tick=4, channel=0, data=[65, 57]),
   midi.NoteOnEvent(tick=80, channel=0, data=[65, 0]),
   midi.NoteOnEvent(tick=0, channel=0, data=[62, 57]),
   midi.NoteOnEvent(tick=78, channel=0, data=[64, 58]),
   midi.NoteOnEvent(tick=2, channel=0, data=[62, 0]),
   midi.NoteOnEvent(tick=78, channel=0, data=[64, 0]),
   midi.NoteOnEvent(tick=1, channel=0, data=[59, 58]),
   midi.NoteOnEvent(tick=77, channel=0, data=[65, 59]),
   midi.NoteOnEvent(tick=3, channel=0, data=[59, 0]),
   midi.NoteOnEvent(tick=46, channel=0, data=[64, 59]),
   midi.NoteOnEvent(tick=12, channel=0, data=[65, 0]),
   midi.NoteOnEvent(tick=65, channel=0, data=[63, 59]),
   midi.NoteOnEvent(tick=19, channel=0, data=[64, 0]),
   midi.NoteOnEvent(tick=59, channel=0, data=[62, 60]),
   midi.NoteOnEvent(tick=18, channel=0, data=[63, 0]),
   midi.NoteOnEvent(tick=66, channel=0, data=[61, 60]),
   midi.NoteOnEvent(tick=12, channel=0, data=[62, 0]),
   midi.NoteOnEvent(tick=64, channel=0, data=[60, 61]),
   midi.NoteOnEvent(tick=20, channel=0, data=[61, 0]),
   midi.NoteOnEvent(tick=61, channel=0, data=[59, 61]),
   midi.NoteOnEvent(tick=15, channel=0, data=[60, 0]),
   midi.NoteOnEvent(tick=66, channel=0, data=[58, 62]),
   midi.NoteOnEvent(tick=15, channel=0, data=[59, 0]),
   midi.NoteOnEvent(tick=66, channel=0, data=[57, 62]),
   midi.NoteOnEvent(tick=15, channel=0, data=[58, 0]),
   midi.NoteOnEvent(tick=65, channel=0, data=[56, 62]),
   midi.NoteOnEvent(tick=16, channel=0, data=[57, 0]),
   midi.NoteOnEvent(tick=63, channel=0, data=[55, 63]),
   midi.NoteOnEvent(tick=17, channel=0, data=[56, 0]),
   midi.NoteOnEvent(tick=61, channel=0, data=[54, 63]),
   midi.NoteOnEvent(tick=18, channel=0, data=[55, 0]),
   midi.NoteOnEvent(tick=67, channel=0, data=[53, 64]),
   midi.NoteOnEvent(tick=11, channel=0, data=[54, 0]),
   midi.NoteOnEvent(tick=64, channel=0, data=[52, 64]),
   midi.NoteOnEvent(tick=21, channel=0, data=[53, 0]),
   midi.NoteOnEvent(tick=59, channel=0, data=[51, 64]),
   midi.NoteOnEvent(tick=16, channel=0, data=[52, 0]),
   midi.NoteOnEvent(tick=69, channel=0, data=[50, 66]),
   midi.NoteOnEvent(tick=11, channel=0, data=[51, 0]),
   midi.NoteOnEvent(tick=66, channel=0, data=[49, 66]),
   midi.NoteOnEvent(tick=19, channel=0, data=[50, 0]),
   midi.NoteOnEvent(tick=63, channel=0, data=[48, 67]),
   midi.NoteOnEvent(tick=14, channel=0, data=[49, 0]),
   midi.NoteOnEvent(tick=63, channel=0, data=[47, 67]),
   midi.NoteOnEvent(tick=19, channel=0, data=[48, 0]),
   midi.NoteOnEvent(tick=60, channel=0, data=[46, 68]),
   midi.NoteOnEvent(tick=17, channel=0, data=[47, 0]),
   midi.NoteOnEvent(tick=65, channel=0, data=[45, 68]),
   midi.NoteOnEvent(tick=14, channel=0, data=[46, 0]),
   midi.NoteOnEvent(tick=68, channel=0, data=[44, 68]),
   midi.NoteOnEvent(tick=14, channel=0, data=[45, 0]),
   midi.NoteOnEvent(tick=65, channel=0, data=[43, 69]),
   midi.NoteOnEvent(tick=17, channel=0, data=[44, 0]),
   midi.NoteOnEvent(tick=64, channel=0, data=[42, 69]),
   midi.NoteOnEvent(tick=15, channel=0, data=[43, 0]),
   midi.NoteOnEvent(tick=66, channel=0, data=[41, 70]),
   midi.NoteOnEvent(tick=10, channel=0, data=[42, 0]),
   midi.NoteOnEvent(tick=33, channel=0, data=[40, 70]),
   midi.NoteOnEvent(tick=4, channel=0, data=[41, 0]),
   midi.NoteOnEvent(tick=76, channel=0, data=[40, 0]),
   midi.NoteOnEvent(tick=1, channel=0, data=[39, 70]),
   midi.NoteOnEvent(tick=80, channel=0, data=[39, 0]),
   midi.NoteOnEvent(tick=3, channel=0, data=[40, 71]),
   midi.NoteOnEvent(tick=75, channel=0, data=[41, 71]),
   midi.NoteOnEvent(tick=5, channel=0, data=[40, 0]),
   midi.NoteOnEvent(tick=75, channel=0, data=[41, 0]),
   midi.NoteOnEvent(tick=5, channel=0, data=[40, 72]),
   midi.NoteOnEvent(tick=78, channel=0, data=[39, 72]),
   midi.NoteOnEvent(tick=2, channel=0, data=[40, 0]),
   midi.NoteOnEvent(tick=76, channel=0, data=[40, 73]),
   midi.NoteOnEvent(tick=2, channel=0, data=[39, 0]),
   midi.NoteOnEvent(tick=77, channel=0, data=[41, 73]),
   midi.NoteOnEvent(tick=1, channel=0, data=[40, 0]),
   midi.NoteOnEvent(tick=79, channel=0, data=[41, 0]),
   midi.NoteOnEvent(tick=1, channel=0, data=[40, 73]),
   midi.NoteOnEvent(tick=80, channel=0, data=[40, 0]),
   midi.NoteOnEvent(tick=0, channel=0, data=[39, 74]),
   midi.NoteOnEvent(tick=80, channel=0, data=[39, 0]),
   midi.NoteOnEvent(tick=0, channel=0, data=[40, 74]),
   midi.NoteOnEvent(tick=80, channel=0, data=[40, 0]),
   midi.NoteOnEvent(tick=0, channel=0, data=[41, 75]),
   midi.NoteOnEvent(tick=30, channel=0, data=[41, 0]),
   midi.NoteOnEvent(tick=4, channel=0, data=[40, 75]),
   midi.NoteOnEvent(tick=78, channel=0, data=[39, 77]),
   midi.NoteOnEvent(tick=2, channel=0, data=[40, 0]),
   midi.NoteOnEvent(tick=78, channel=0, data=[39, 0]),
   midi.NoteOnEvent(tick=1, channel=0, data=[40, 77]),
   midi.NoteOnEvent(tick=77, channel=0, data=[41, 77]),
   midi.NoteOnEvent(tick=3, channel=0, data=[40, 0]),
   midi.NoteOnEvent(tick=77, channel=0, data=[41, 0]),
   midi.NoteOnEvent(tick=3, channel=0, data=[40, 78]),
   midi.NoteOnEvent(tick=80, channel=0, data=[40, 0]),
   midi.NoteOnEvent(tick=0, channel=0, data=[39, 78]),
   midi.NoteOnEvent(tick=80, channel=0, data=[39, 0]),
   midi.NoteOnEvent(tick=1, channel=0, data=[40, 79]),
   midi.NoteOnEvent(tick=80, channel=0, data=[40, 0]),
   midi.NoteOnEvent(tick=0, channel=0, data=[41, 79]),
   midi.NoteOnEvent(tick=80, channel=0, data=[41, 0]),
   midi.NoteOnEvent(tick=0, channel=0, data=[40, 79]),
   midi.NoteOnEvent(tick=76, channel=0, data=[39, 80]),
   midi.NoteOnEvent(tick=4, channel=0, data=[40, 0]),
   midi.NoteOnEvent(tick=75, channel=0, data=[40, 80]),
   midi.NoteOnEvent(tick=1, channel=0, data=[39, 0]),
   midi.NoteOnEvent(tick=79, channel=0, data=[40, 0]),
   midi.NoteOnEvent(tick=2, channel=0, data=[33, 119]),
   midi.NoteOnEvent(tick=171, channel=0, data=[33, 0]),
   midi.NoteOnEvent(tick=240, channel=0, data=[64, 92]),
   midi.NoteOnEvent(tick=0, channel=0, data=[60, 77]),
   midi.NoteOnEvent(tick=0, channel=0, data=[57, 77]),
   midi.NoteOnEvent(tick=360, channel=0, data=[57, 0]),
   midi.NoteOnEvent(tick=0, channel=0, data=[60, 0]),
   midi.NoteOnEvent(tick=0, channel=0, data=[64, 0]),
   midi.NoteOnEvent(tick=0, channel=0, data=[57, 73]),
   midi.NoteOnEvent(tick=0, channel=0, data=[60, 73]),
   midi.NoteOnEvent(tick=0, channel=0, data=[64, 86]),
   midi.NoteOnEvent(tick=120, channel=0, data=[64, 0]),
   midi.NoteOnEvent(tick=0, channel=0, data=[60, 0]),
   midi.NoteOnEvent(tick=0, channel=0, data=[57, 0]),
   midi.NoteOnEvent(tick=0, channel=0, data=[64, 92]),
   midi.NoteOnEvent(tick=0, channel=0, data=[60, 77]),
   midi.NoteOnEvent(tick=0, channel=0, data=[57, 77]),
   midi.NoteOnEvent(tick=480, channel=0, data=[57, 0]),
   midi.NoteOnEvent(tick=0, channel=0, data=[60, 0]),
   midi.NoteOnEvent(tick=0, channel=0, data=[64, 0]),
   midi.NoteOnEvent(tick=0, channel=0, data=[57, 82]),
   midi.NoteOnEvent(tick=0, channel=0, data=[60, 82]),
   midi.NoteOnEvent(tick=0, channel=0, data=[65, 97]),
   midi.NoteOnEvent(tick=463, channel=0, data=[65, 0]),
   midi.NoteOnEvent(tick=0, channel=0, data=[60, 0]),
   midi.NoteOnEvent(tick=0, channel=0, data=[57, 0]),
   midi.NoteOnEvent(tick=0, channel=0, data=[57, 77]),
   midi.NoteOnEvent(tick=0, channel=0, data=[60, 77]),
   midi.NoteOnEvent(tick=0, channel=0, data=[64, 92]),
   midi.NoteOnEvent(tick=480, channel=0, data=[64, 0]),
   midi.NoteOnEvent(tick=0, channel=0, data=[60, 0]),
   midi.NoteOnEvent(tick=0, channel=0, data=[57, 0]),
   midi.NoteOnEvent(tick=0, channel=0, data=[52, 73]),
   midi.NoteOnEvent(tick=0, channel=0, data=[57, 73]),
   midi.NoteOnEvent(tick=0, channel=0, data=[60, 86]),
   midi.NoteOnEvent(tick=480, channel=0, data=[60, 0]),
   midi.NoteOnEvent(tick=0, channel=0, data=[57, 0]),
   midi.NoteOnEvent(tick=0, channel=0, data=[52, 0]),
   midi.NoteOnEvent(tick=0, channel=0, data=[57, 73]),
   midi.NoteOnEvent(tick=0, channel=0, data=[60, 73]),
   midi.NoteOnEvent(tick=0, channel=0, data=[64, 86]),
   midi.NoteOnEvent(tick=960, channel=0, data=[64, 0]),
   midi.NoteOnEvent(tick=0, channel=0, data=[60, 0]),
   midi.NoteOnEvent(tick=0, channel=0, data=[57, 0]),
   midi.NoteOnEvent(tick=0, channel=0, data=[33, 72]),
   midi.NoteOnEvent(tick=185, channel=0, data=[33, 0]),
   midi.NoteOnEvent(tick=240, channel=0, data=[45, 49]),
   midi.NoteOnEvent(tick=0, channel=0, data=[52, 69]),
   midi.NoteOnEvent(tick=360, channel=0, data=[52, 0]),
   midi.NoteOnEvent(tick=0, channel=0, data=[45, 0]),
   midi.NoteOnEvent(tick=0, channel=0, data=[45, 42]),
   midi.NoteOnEvent(tick=0, channel=0, data=[52, 61]),
   midi.NoteOnEvent(tick=120, channel=0, data=[52, 0]),
   midi.NoteOnEvent(tick=0, channel=0, data=[45, 0]),
   midi.NoteOnEvent(tick=0, channel=0, data=[45, 50]),
   midi.NoteOnEvent(tick=0, channel=0, data=[52, 70]),
   midi.NoteOnEvent(tick=480, channel=0, data=[52, 0]),
   midi.NoteOnEvent(tick=0, channel=0, data=[45, 0]),
   midi.NoteOnEvent(tick=0, channel=0, data=[45, 42]),
   midi.NoteOnEvent(tick=0, channel=0, data=[53, 62]),
   midi.NoteOnEvent(tick=460, channel=0, data=[53, 0]),
   midi.NoteOnEvent(tick=0, channel=0, data=[45, 0]),
   midi.NoteOnEvent(tick=0, channel=0, data=[45, 41]),
   midi.NoteOnEvent(tick=0, channel=0, data=[52, 58]),
   midi.NoteOnEvent(tick=480, channel=0, data=[52, 0]),
   midi.NoteOnEvent(tick=0, channel=0, data=[45, 0]),
   midi.NoteOnEvent(tick=0, channel=0, data=[33, 55]),
   midi.NoteOnEvent(tick=480, channel=0, data=[40, 58]),
   midi.NoteOnEvent(tick=960, channel=0, data=[40, 0]),
   midi.NoteOnEvent(tick=0, channel=0, data=[33, 0]),
   midi.NoteOnEvent(tick=0, channel=0, data=[32, 69]),
   midi.NoteOnEvent(tick=201, channel=0, data=[32, 0]),
   midi.NoteOnEvent(tick=240, channel=0, data=[53, 66]),
   midi.NoteOnEvent(tick=0, channel=0, data=[62, 77]),
   midi.NoteOnEvent(tick=272, channel=0, data=[62, 0]),
   midi.NoteOnEvent(tick=0, channel=0, data=[53, 0]),
   midi.NoteOnEvent(tick=0, channel=0, data=[53, 61]),
   midi.NoteOnEvent(tick=0, channel=0, data=[62, 73]),
   midi.NoteOnEvent(tick=120, channel=0, data=[62, 0]),
   midi.NoteOnEvent(tick=0, channel=0, data=[53, 0]),
   midi.NoteOnEvent(tick=0, channel=0, data=[53, 66]),
   midi.NoteOnEvent(tick=0, channel=0, data=[60, 77]),
   midi.NoteOnEvent(tick=462, channel=0, data=[60, 0]),
   midi.NoteOnEvent(tick=0, channel=0, data=[53, 0]),
   midi.NoteOnEvent(tick=0, channel=0, data=[33, 77]),
   midi.NoteOnEvent(tick=0, channel=0, data=[45, 77]),
   midi.NoteOnEvent(tick=480, channel=0, data=[45, 0]),
   midi.NoteOnEvent(tick=0, channel=0, data=[33, 0]),
   midi.NoteOnEvent(tick=0, channel=0, data=[32, 66]),
   midi.NoteOnEvent(tick=0, channel=0, data=[44, 66]),
   midi.NoteOnEvent(tick=183, channel=0, data=[44, 0]),
   midi.NoteOnEvent(tick=0, channel=0, data=[32, 0]),
   midi.NoteOnEvent(tick=240, channel=0, data=[55, 73]),
   midi.NoteOnEvent(tick=0, channel=0, data=[62, 66]),
   midi.NoteOnEvent(tick=96, channel=0, data=[62, 0]),
   midi.NoteOnEvent(tick=0, channel=0, data=[55, 0]),
   midi.NoteOnEvent(tick=0, channel=0, data=[53, 72]),
   midi.NoteOnEvent(tick=0, channel=0, data=[62, 60]),
   midi.NoteOnEvent(tick=160, channel=0, data=[62, 0]),
   midi.NoteOnEvent(tick=0, channel=0, data=[53, 0]),
   midi.NoteOnEvent(tick=0, channel=0, data=[52, 73]),
   midi.NoteOnEvent(tick=0, channel=0, data=[62, 61]),
   midi.NoteOnEvent(tick=160, channel=0, data=[62, 0]),
   midi.NoteOnEvent(tick=0, channel=0, data=[52, 0]),
   midi.NoteOnEvent(tick=0, channel=0, data=[52, 77]),
   midi.NoteOnEvent(tick=0, channel=0, data=[60, 66]),
   midi.NoteOnEvent(tick=462, channel=0, data=[60, 0]),
   midi.NoteOnEvent(tick=0, channel=0, data=[52, 0]),
   midi.NoteOnEvent(tick=0, channel=0, data=[33, 67]),
   midi.NoteOnEvent(tick=0, channel=0, data=[45, 79]),
   midi.NoteOnEvent(tick=480, channel=0, data=[45, 0]),
   midi.NoteOnEvent(tick=0, channel=0, data=[33, 0]),
   midi.NoteOnEvent(tick=0, channel=0, data=[35, 68]),
   midi.NoteOnEvent(tick=0, channel=0, data=[47, 68]),
   midi.NoteOnEvent(tick=203, channel=0, data=[47, 0]),
   midi.NoteOnEvent(tick=0, channel=0, data=[35, 0]),
   midi.NoteOnEvent(tick=240, channel=0, data=[56, 60]),
   midi.NoteOnEvent(tick=0, channel=0, data=[59, 60]),
   midi.NoteOnEvent(tick=0, channel=0, data=[64, 70]),
   midi.NoteOnEvent(tick=117, channel=0, data=[64, 0]),
   midi.NoteOnEvent(tick=0, channel=0, data=[68, 66]),
   midi.NoteOnEvent(tick=160, channel=0, data=[68, 0]),
   midi.NoteOnEvent(tick=0, channel=0, data=[73, 70]),
   midi.NoteOnEvent(tick=160, channel=0, data=[73, 0]),
   midi.NoteOnEvent(tick=0, channel=0, data=[59, 0]),
   midi.NoteOnEvent(tick=0, channel=0, data=[56, 0]),
   midi.NoteOnEvent(tick=0, channel=0, data=[59, 60]),
   midi.NoteOnEvent(tick=0, channel=0, data=[63, 60]),
   midi.NoteOnEvent(tick=0, channel=0, data=[71, 70]),
   midi.NoteOnEvent(tick=0, channel=0, data=[69, 70]),
   midi.NoteOnEvent(tick=411, channel=0, data=[69, 0]),
   midi.NoteOnEvent(tick=0, channel=0, data=[59, 0]),
   midi.NoteOnEvent(tick=0, channel=0, data=[63, 0]),
   midi.NoteOnEvent(tick=0, channel=0, data=[71, 0]),
   midi.NoteOnEvent(tick=0, channel=0, data=[47, 66]),
   midi.NoteOnEvent(tick=0, channel=0, data=[59, 77]),
   midi.NoteOnEvent(tick=480, channel=0, data=[59, 0]),
   midi.NoteOnEvent(tick=0, channel=0, data=[47, 0]),
   midi.NoteOnEvent(tick=0, channel=0, data=[40, 66]),
   midi.NoteOnEvent(tick=0, channel=0, data=[52, 77]),
   midi.NoteOnEvent(tick=188, channel=0, data=[52, 0]),
   midi.NoteOnEvent(tick=0, channel=0, data=[40, 0]),
   midi.NoteOnEvent(tick=240, channel=0, data=[68, 67]),
   midi.NoteOnEvent(tick=0, channel=0, data=[59, 56]),
   midi.NoteOnEvent(tick=111, channel=0, data=[59, 0]),
   midi.NoteOnEvent(tick=0, channel=0, data=[68, 0]),
   midi.NoteOnEvent(tick=0, channel=0, data=[67, 58]),
   midi.NoteOnEvent(tick=0, channel=0, data=[58, 49]),
   midi.NoteOnEvent(tick=160, channel=0, data=[58, 0]),
   midi.NoteOnEvent(tick=0, channel=0, data=[67, 0]),
   midi.NoteOnEvent(tick=0, channel=0, data=[68, 63]),
   midi.NoteOnEvent(tick=0, channel=0, data=[59, 55]),
   midi.NoteOnEvent(tick=160, channel=0, data=[59, 0]),
   midi.NoteOnEvent(tick=0, channel=0, data=[68, 0]),
   midi.NoteOnEvent(tick=0, channel=0, data=[52, 65]),
   midi.NoteOnEvent(tick=0, channel=0, data=[56, 65]),
   midi.NoteOnEvent(tick=0, channel=0, data=[64, 74]),
   midi.NoteOnEvent(tick=29, channel=0, data=[64, 0]),
   midi.NoteOnEvent(tick=0, channel=0, data=[56, 0]),
   midi.NoteOnEvent(tick=0, channel=0, data=[52, 0]),
   midi.NoteOnEvent(tick=720, channel=0, data=[33, 99]),
   midi.NoteOnEvent(tick=214, channel=0, data=[33, 0]),
   midi.NoteOnEvent(tick=240, channel=0, data=[64, 84]),
   midi.NoteOnEvent(tick=0, channel=0, data=[60, 70]),
   midi.NoteOnEvent(tick=0, channel=0, data=[57, 70]),
   midi.NoteOnEvent(tick=360, channel=0, data=[57, 0]),
   midi.NoteOnEvent(tick=0, channel=0, data=[60, 0]),
   midi.NoteOnEvent(tick=0, channel=0, data=[64, 0]),
   midi.NoteOnEvent(tick=0, channel=0, data=[57, 67]),
   midi.NoteOnEvent(tick=0, channel=0, data=[60, 67]),
   midi.NoteOnEvent(tick=0, channel=0, data=[64, 79]),
   midi.NoteOnEvent(tick=120, channel=0, data=[64, 0]),
   midi.NoteOnEvent(tick=0, channel=0, data=[60, 0]),
   midi.NoteOnEvent(tick=0, channel=0, data=[57, 0]),
   midi.NoteOnEvent(tick=0, channel=0, data=[64, 84]),
   midi.NoteOnEvent(tick=0, channel=0, data=[60, 70]),
   midi.NoteOnEvent(tick=0, channel=0, data=[57, 70]),
   midi.NoteOnEvent(tick=480, channel=0, data=[57, 0]),
   midi.NoteOnEvent(tick=0, channel=0, data=[60, 0]),
   midi.NoteOnEvent(tick=0, channel=0, data=[64, 0]),
   midi.NoteOnEvent(tick=0, channel=0, data=[57, 74]),
   midi.NoteOnEvent(tick=0, channel=0, data=[60, 74]),
   midi.NoteOnEvent(tick=0, channel=0, data=[65, 88]),
   midi.NoteOnEvent(tick=468, channel=0, data=[65, 0]),
   midi.NoteOnEvent(tick=0, channel=0, data=[60, 0]),
   midi.NoteOnEvent(tick=0, channel=0, data=[57, 0]),
   midi.NoteOnEvent(tick=0, channel=0, data=[57, 70]),
   midi.NoteOnEvent(tick=0, channel=0, data=[60, 70]),
   midi.NoteOnEvent(tick=0, channel=0, data=[64, 84]),
   midi.NoteOnEvent(tick=480, channel=0, data=[64, 0]),
   midi.NoteOnEvent(tick=0, channel=0, data=[60, 0]),
   midi.NoteOnEvent(tick=0, channel=0, data=[57, 0]),
   midi.NoteOnEvent(tick=0, channel=0, data=[52, 67]),
   midi.NoteOnEvent(tick=0, channel=0, data=[57, 67]),
   midi.NoteOnEvent(tick=0, channel=0, data=[60, 79]),
   midi.NoteOnEvent(tick=480, channel=0, data=[60, 0]),
   midi.NoteOnEvent(tick=0, channel=0, data=[57, 0]),
   midi.NoteOnEvent(tick=0, channel=0, data=[52, 0]),
   midi.NoteOnEvent(tick=0, channel=0, data=[57, 67]),
   midi.NoteOnEvent(tick=0, channel=0, data=[60, 67]),
   midi.NoteOnEvent(tick=0, channel=0, data=[64, 79]),
   midi.NoteOnEvent(tick=960, channel=0, data=[64, 0]),
   midi.NoteOnEvent(tick=0, channel=0, data=[60, 0]),
   midi.NoteOnEvent(tick=0, channel=0, data=[57, 0]),
   midi.NoteOnEvent(tick=0, channel=0, data=[31, 69]),
   midi.NoteOnEvent(tick=197, channel=0, data=[31, 0]),
   midi.NoteOnEvent(tick=240, channel=0, data=[43, 58]),
   midi.NoteOnEvent(tick=0, channel=0, data=[52, 69]),
   midi.NoteOnEvent(tick=300, channel=0, data=[52, 0]),
   midi.NoteOnEvent(tick=0, channel=0, data=[43, 0]),
   midi.NoteOnEvent(tick=0, channel=0, data=[43, 50]),
   midi.NoteOnEvent(tick=0, channel=0, data=[52, 61]),
   midi.NoteOnEvent(tick=120, channel=0, data=[52, 0]),
   midi.NoteOnEvent(tick=0, channel=0, data=[43, 0]),
   midi.NoteOnEvent(tick=0, channel=0, data=[43, 60]),
   midi.NoteOnEvent(tick=0, channel=0, data=[52, 70]),
   midi.NoteOnEvent(tick=480, channel=0, data=[52, 0]),
   midi.NoteOnEvent(tick=0, channel=0, data=[53, 62]),
   midi.NoteOnEvent(tick=463, channel=0, data=[53, 0]),
   midi.NoteOnEvent(tick=0, channel=0, data=[43, 58]),
   midi.NoteOnEvent(tick=0, channel=0, data=[52, 58]),
   midi.NoteOnEvent(tick=480, channel=0, data=[52, 0]),
   midi.NoteOnEvent(tick=0, channel=0, data=[43, 0]),
   midi.NoteOnEvent(tick=0, channel=0, data=[48, 58]),
   midi.NoteOnEvent(tick=480, channel=0, data=[48, 0]),
   midi.NoteOnEvent(tick=0, channel=0, data=[43, 0]),
   midi.NoteOnEvent(tick=0, channel=0, data=[41, 58]),
   midi.NoteOnEvent(tick=480, channel=0, data=[41, 0]),
   midi.NoteOnEvent(tick=0, channel=0, data=[40, 58]),
   midi.NoteOnEvent(tick=480, channel=0, data=[40, 0]),
   midi.NoteOnEvent(tick=0, channel=0, data=[38, 63]),
   midi.NoteOnEvent(tick=194, channel=0, data=[38, 0]),
   midi.NoteOnEvent(tick=240, channel=0, data=[65, 63]),
   midi.NoteOnEvent(tick=0, channel=0, data=[57, 63]),
   midi.NoteOnEvent(tick=100, channel=0, data=[57, 0]),
   midi.NoteOnEvent(tick=0, channel=0, data=[65, 0]),
   midi.NoteOnEvent(tick=0, channel=0, data=[49, 62]),
   midi.NoteOnEvent(tick=160, channel=0, data=[49, 0]),
   midi.NoteOnEvent(tick=0, channel=0, data=[50, 63]),
   midi.NoteOnEvent(tick=160, channel=0, data=[50, 0]),
   midi.NoteOnEvent(tick=0, channel=0, data=[51, 69]),
   midi.NoteOnEvent(tick=0, channel=0, data=[66, 58]),
   midi.NoteOnEvent(tick=0, channel=0, data=[57, 58]),
   midi.NoteOnEvent(tick=434, channel=0, data=[57, 0]),
   midi.NoteOnEvent(tick=0, channel=0, data=[66, 0]),
   midi.NoteOnEvent(tick=0, channel=0, data=[51, 0]),
   midi.NoteOnEvent(tick=0, channel=0, data=[39, 72]),
   midi.NoteOnEvent(tick=480, channel=0, data=[39, 0]),
   midi.NoteOnEvent(tick=0, channel=0, data=[40, 73]),
   midi.NoteOnEvent(tick=168, channel=0, data=[40, 0]),
   midi.NoteOnEvent(tick=240, channel=0, data=[67, 67]),
   midi.NoteOnEvent(tick=0, channel=0, data=[58, 79]),
   midi.NoteOnEvent(tick=108, channel=0, data=[58, 0]),
   midi.NoteOnEvent(tick=0, channel=0, data=[67, 0]),
   midi.NoteOnEvent(tick=0, channel=0, data=[51, 79]),
   midi.NoteOnEvent(tick=160, channel=0, data=[51, 0]),
   midi.NoteOnEvent(tick=0, channel=0, data=[52, 79]),
   midi.NoteOnEvent(tick=160, channel=0, data=[52, 0]),
   midi.NoteOnEvent(tick=0, channel=0, data=[53, 81]),
   midi.NoteOnEvent(tick=0, channel=0, data=[70, 68]),
   midi.NoteOnEvent(tick=0, channel=0, data=[58, 68]),
   midi.NoteOnEvent(tick=0, channel=0, data=[62, 68]),
   midi.NoteOnEvent(tick=423, channel=0, data=[62, 0]),
   midi.NoteOnEvent(tick=0, channel=0, data=[53, 0]),
   midi.NoteOnEvent(tick=0, channel=0, data=[70, 0]),
   midi.NoteOnEvent(tick=0, channel=0, data=[58, 0]),
   midi.NoteOnEvent(tick=0, channel=0, data=[41, 70]),
   midi.NoteOnEvent(tick=0, channel=0, data=[53, 82]),
   midi.NoteOnEvent(tick=480, channel=0, data=[53, 0]),
   midi.NoteOnEvent(tick=0, channel=0, data=[41, 0]),
   midi.NoteOnEvent(tick=0, channel=0, data=[29, 80]),
   midi.NoteOnEvent(tick=0, channel=0, data=[41, 96]),
   midi.NoteOnEvent(tick=168, channel=0, data=[41, 0]),
   midi.NoteOnEvent(tick=0, channel=0, data=[29, 0]),
   midi.NoteOnEvent(tick=240, channel=0, data=[53, 89]),
   midi.NoteOnEvent(tick=0, channel=0, data=[65, 89]),
   midi.NoteOnEvent(tick=360, channel=0, data=[65, 0]),
   midi.NoteOnEvent(tick=0, channel=0, data=[53, 0]),
   midi.NoteOnEvent(tick=0, channel=0, data=[53, 89]),
   midi.NoteOnEvent(tick=0, channel=0, data=[65, 89]),
   midi.NoteOnEvent(tick=120, channel=0, data=[65, 0]),
   midi.NoteOnEvent(tick=0, channel=0, data=[53, 0]),
   midi.NoteOnEvent(tick=0, channel=0, data=[53, 89]),
   midi.NoteOnEvent(tick=0, channel=0, data=[65, 89]),
   midi.NoteOnEvent(tick=480, channel=0, data=[65, 0]),
   midi.NoteOnEvent(tick=0, channel=0, data=[53, 0]),
   midi.NoteOnEvent(tick=0, channel=0, data=[53, 75]),
   midi.NoteOnEvent(tick=0, channel=0, data=[60, 75]),
   midi.NoteOnEvent(tick=0, channel=0, data=[67, 90]),
   midi.NoteOnEvent(tick=463, channel=0, data=[67, 0]),
   midi.NoteOnEvent(tick=0, channel=0, data=[60, 0]),
   midi.NoteOnEvent(tick=0, channel=0, data=[53, 0]),
   midi.NoteOnEvent(tick=0, channel=0, data=[53, 94]),
   midi.NoteOnEvent(tick=0, channel=0, data=[65, 94]),
   midi.NoteOnEvent(tick=480, channel=0, data=[65, 0]),
   midi.NoteOnEvent(tick=0, channel=0, data=[53, 0]),
   midi.NoteOnEvent(tick=0, channel=0, data=[48, 90]),
   midi.NoteOnEvent(tick=0, channel=0, data=[60, 90]),
   midi.NoteOnEvent(tick=480, channel=0, data=[60, 0]),
   midi.NoteOnEvent(tick=0, channel=0, data=[48, 0]),
   midi.NoteOnEvent(tick=0, channel=0, data=[53, 92]),
   midi.NoteOnEvent(tick=0, channel=0, data=[65, 92]),
   midi.NoteOnEvent(tick=958, channel=0, data=[41, 58]),
   midi.NoteOnEvent(tick=2, channel=0, data=[65, 0]),
   midi.NoteOnEvent(tick=0, channel=0, data=[53, 0]),
   midi.NoteOnEvent(tick=41, channel=0, data=[41, 0]),
   midi.NoteOnEvent(tick=0, channel=0, data=[47, 45]),
   midi.NoteOnEvent(tick=80, channel=0, data=[47, 0]),
   midi.NoteOnEvent(tick=3, channel=0, data=[45, 53]),
   midi.NoteOnEvent(tick=78, channel=0, data=[51, 46]),
   midi.NoteOnEvent(tick=2, channel=0, data=[45, 0]),
   midi.NoteOnEvent(tick=78, channel=0, data=[51, 0]),
   midi.NoteOnEvent(tick=3, channel=0, data=[45, 55]),
   midi.NoteOnEvent(tick=80, channel=0, data=[45, 0]),
   midi.NoteOnEvent(tick=0, channel=0, data=[51, 49]),
   midi.NoteOnEvent(tick=80, channel=0, data=[51, 0]),
   midi.NoteOnEvent(tick=0, channel=0, data=[47, 56]),
   midi.NoteOnEvent(tick=79, channel=0, data=[53, 49]),
   midi.NoteOnEvent(tick=1, channel=0, data=[47, 0]),
   midi.NoteOnEvent(tick=76, channel=0, data=[47, 56]),
   midi.NoteOnEvent(tick=3, channel=0, data=[53, 0]),
   midi.NoteOnEvent(tick=77, channel=0, data=[47, 0]),
   midi.NoteOnEvent(tick=1, channel=0, data=[53, 50]),
   midi.NoteOnEvent(tick=80, channel=0, data=[53, 0]),
   midi.NoteOnEvent(tick=4, channel=0, data=[51, 57]),
   midi.NoteOnEvent(tick=77, channel=0, data=[57, 50]),
   midi.NoteOnEvent(tick=3, channel=0, data=[51, 0]),
   midi.NoteOnEvent(tick=77, channel=0, data=[57, 0]),
   midi.NoteOnEvent(tick=2, channel=0, data=[51, 58]),
   midi.NoteOnEvent(tick=30, channel=0, data=[51, 0]),
   midi.NoteOnEvent(tick=1, channel=0, data=[57, 50]),
   midi.NoteOnEvent(tick=80, channel=0, data=[57, 0]),
   midi.NoteOnEvent(tick=0, channel=0, data=[53, 58]),
   midi.NoteOnEvent(tick=77, channel=0, data=[59, 51]),
   midi.NoteOnEvent(tick=3, channel=0, data=[53, 0]),
   midi.NoteOnEvent(tick=77, channel=0, data=[59, 0]),
   midi.NoteOnEvent(tick=0, channel=0, data=[53, 60]),
   midi.NoteOnEvent(tick=80, channel=0, data=[53, 0]),
   midi.NoteOnEvent(tick=2, channel=0, data=[59, 51]),
   midi.NoteOnEvent(tick=80, channel=0, data=[59, 0]),
   midi.NoteOnEvent(tick=0, channel=0, data=[57, 61]),
   midi.NoteOnEvent(tick=78, channel=0, data=[63, 52]),
   midi.NoteOnEvent(tick=2, channel=0, data=[57, 0]),
   midi.NoteOnEvent(tick=78, channel=0, data=[63, 0]),
   midi.NoteOnEvent(tick=2, channel=0, data=[57, 61]),
   midi.NoteOnEvent(tick=77, channel=0, data=[63, 55]),
   midi.NoteOnEvent(tick=3, channel=0, data=[57, 0]),
   midi.NoteOnEvent(tick=77, channel=0, data=[63, 0]),
   midi.NoteOnEvent(tick=1, channel=0, data=[59, 62]),
   midi.NoteOnEvent(tick=78, channel=0, data=[65, 53]),
   midi.NoteOnEvent(tick=2, channel=0, data=[59, 0]),
   midi.NoteOnEvent(tick=78, channel=0, data=[65, 0]),
   midi.NoteOnEvent(tick=4, channel=0, data=[59, 62]),
   midi.NoteOnEvent(tick=22, channel=0, data=[65, 56]),
   midi.NoteOnEvent(tick=3, channel=0, data=[59, 0]),
   midi.NoteOnEvent(tick=76, channel=0, data=[63, 63]),
   midi.NoteOnEvent(tick=1, channel=0, data=[65, 0]),
   midi.NoteOnEvent(tick=79, channel=0, data=[63, 0]),
   midi.NoteOnEvent(tick=1, channel=0, data=[69, 56]),
   midi.NoteOnEvent(tick=80, channel=0, data=[69, 0]),
   midi.NoteOnEvent(tick=2, channel=0, data=[63, 64]),
   midi.NoteOnEvent(tick=80, channel=0, data=[63, 0]),
   midi.NoteOnEvent(tick=1, channel=0, data=[69, 57]),
   midi.NoteOnEvent(tick=77, channel=0, data=[65, 64]),
   midi.NoteOnEvent(tick=3, channel=0, data=[69, 0]),
   midi.NoteOnEvent(tick=77, channel=0, data=[65, 0]),
   midi.NoteOnEvent(tick=0, channel=0, data=[71, 58]),
   midi.NoteOnEvent(tick=80, channel=0, data=[71, 0]),
   midi.NoteOnEvent(tick=1, channel=0, data=[65, 66]),
   midi.NoteOnEvent(tick=80, channel=0, data=[65, 0]),
   midi.NoteOnEvent(tick=2, channel=0, data=[71, 58]),
   midi.NoteOnEvent(tick=79, channel=0, data=[69, 67]),
   midi.NoteOnEvent(tick=1, channel=0, data=[71, 0]),
   midi.NoteOnEvent(tick=78, channel=0, data=[75, 58]),
   midi.NoteOnEvent(tick=1, channel=0, data=[69, 0]),
   midi.NoteOnEvent(tick=79, channel=0, data=[75, 0]),
   midi.NoteOnEvent(tick=3, channel=0, data=[69, 67]),
   midi.NoteOnEvent(tick=19, channel=0, data=[75, 58]),
   midi.NoteOnEvent(tick=4, channel=0, data=[69, 0]),
   midi.NoteOnEvent(tick=76, channel=0, data=[75, 0]),
   midi.NoteOnEvent(tick=4, channel=0, data=[71, 68]),
   midi.NoteOnEvent(tick=78, channel=0, data=[77, 60]),
   midi.NoteOnEvent(tick=2, channel=0, data=[71, 0]),
   midi.NoteOnEvent(tick=78, channel=0, data=[77, 0]),
   midi.NoteOnEvent(tick=0, channel=0, data=[71, 69]),
   midi.NoteOnEvent(tick=79, channel=0, data=[77, 62]),
   midi.NoteOnEvent(tick=1, channel=0, data=[71, 0]),
   midi.NoteOnEvent(tick=79, channel=0, data=[77, 0]),
   midi.NoteOnEvent(tick=2, channel=0, data=[75, 69]),
   midi.NoteOnEvent(tick=80, channel=0, data=[75, 0]),
   midi.NoteOnEvent(tick=0, channel=0, data=[81, 62]),
   midi.NoteOnEvent(tick=80, channel=0, data=[81, 0]),
   midi.NoteOnEvent(tick=0, channel=0, data=[75, 70]),
   midi.NoteOnEvent(tick=78, channel=0, data=[81, 63]),
   midi.NoteOnEvent(tick=2, channel=0, data=[75, 0]),
   midi.NoteOnEvent(tick=76, channel=0, data=[77, 72]),
   midi.NoteOnEvent(tick=2, channel=0, data=[81, 0]),
   midi.NoteOnEvent(tick=78, channel=0, data=[77, 0]),
   midi.NoteOnEvent(tick=3, channel=0, data=[83, 63]),
   midi.NoteOnEvent(tick=78, channel=0, data=[69, 89]),
   midi.NoteOnEvent(tick=0, channel=0, data=[76, 89]),
   midi.NoteOnEvent(tick=1, channel=0, data=[64, 89]),
   midi.NoteOnEvent(tick=1, channel=0, data=[83, 0]),
   midi.NoteOnEvent(tick=0, channel=0, data=[72, 89]),
   midi.NoteOnEvent(tick=179, channel=0, data=[69, 0]),
   midi.NoteOnEvent(tick=0, channel=0, data=[76, 0]),
   midi.NoteOnEvent(tick=1, channel=0, data=[64, 0]),
   midi.NoteOnEvent(tick=1, channel=0, data=[72, 0]),
   midi.NoteOnEvent(tick=82, channel=0, data=[86, 79]),
   midi.NoteOnEvent(tick=52, channel=0, data=[81, 69]),
   midi.NoteOnEvent(tick=1, channel=0, data=[86, 0]),
   midi.NoteOnEvent(tick=77, channel=0, data=[84, 79]),
   midi.NoteOnEvent(tick=2, channel=0, data=[81, 0]),
   midi.NoteOnEvent(tick=77, channel=0, data=[76, 70]),
   midi.NoteOnEvent(tick=1, channel=0, data=[84, 0]),
   midi.NoteOnEvent(tick=79, channel=0, data=[76, 0]),
   midi.NoteOnEvent(tick=1, channel=0, data=[83, 79]),
   midi.NoteOnEvent(tick=80, channel=0, data=[83, 0]),
   midi.NoteOnEvent(tick=1, channel=0, data=[76, 71]),
   midi.NoteOnEvent(tick=80, channel=0, data=[76, 0]),
   midi.NoteOnEvent(tick=2, channel=0, data=[81, 79]),
   midi.NoteOnEvent(tick=80, channel=0, data=[81, 0]),
   midi.NoteOnEvent(tick=0, channel=0, data=[72, 70]),
   midi.NoteOnEvent(tick=79, channel=0, data=[77, 79]),
   midi.NoteOnEvent(tick=1, channel=0, data=[72, 0]),
   midi.NoteOnEvent(tick=39, channel=0, data=[77, 0]),
   midi.NoteOnEvent(tick=1, channel=0, data=[72, 70]),
   midi.NoteOnEvent(tick=80, channel=0, data=[72, 0]),
   midi.NoteOnEvent(tick=0, channel=0, data=[76, 79]),
   midi.NoteOnEvent(tick=78, channel=0, data=[69, 70]),
   midi.NoteOnEvent(tick=2, channel=0, data=[76, 0]),
   midi.NoteOnEvent(tick=75, channel=0, data=[74, 79]),
   midi.NoteOnEvent(tick=3, channel=0, data=[69, 0]),
   midi.NoteOnEvent(tick=77, channel=0, data=[74, 0]),
   midi.NoteOnEvent(tick=1, channel=0, data=[69, 72]),
   midi.NoteOnEvent(tick=80, channel=0, data=[69, 0]),
   midi.NoteOnEvent(tick=0, channel=0, data=[72, 79]),
   midi.NoteOnEvent(tick=80, channel=0, data=[72, 0]),
   midi.NoteOnEvent(tick=3, channel=0, data=[64, 70]),
   midi.NoteOnEvent(tick=77, channel=0, data=[71, 79]),
   midi.NoteOnEvent(tick=3, channel=0, data=[64, 0]),
   midi.NoteOnEvent(tick=77, channel=0, data=[71, 0]),
   midi.NoteOnEvent(tick=0, channel=0, data=[64, 71]),
   midi.NoteOnEvent(tick=80, channel=0, data=[64, 0]),
   midi.NoteOnEvent(tick=1, channel=0, data=[69, 79]),
   midi.NoteOnEvent(tick=80, channel=0, data=[69, 0]),
   midi.NoteOnEvent(tick=3, channel=0, data=[60, 71]),
   midi.NoteOnEvent(tick=76, channel=0, data=[65, 79]),
   midi.NoteOnEvent(tick=4, channel=0, data=[60, 0]),
   midi.NoteOnEvent(tick=76, channel=0, data=[65, 0]),
   midi.NoteOnEvent(tick=0, channel=0, data=[60, 71]),
   midi.NoteOnEvent(tick=80, channel=0, data=[60, 0]),
   midi.NoteOnEvent(tick=4, channel=0, data=[64, 79]),
   midi.NoteOnEvent(tick=76, channel=0, data=[57, 71]),
   midi.NoteOnEvent(tick=4, channel=0, data=[64, 0]),
   midi.NoteOnEvent(tick=76, channel=0, data=[57, 0]),
   midi.NoteOnEvent(tick=4, channel=0, data=[62, 79]),
   midi.NoteOnEvent(tick=79, channel=0, data=[57, 71]),
   midi.NoteOnEvent(tick=1, channel=0, data=[62, 0]),
   midi.NoteOnEvent(tick=75, channel=0, data=[60, 79]),
   midi.NoteOnEvent(tick=4, channel=0, data=[57, 0]),
   midi.NoteOnEvent(tick=76, channel=0, data=[60, 0]),
   midi.NoteOnEvent(tick=3, channel=0, data=[52, 71]),
   midi.NoteOnEvent(tick=78, channel=0, data=[59, 79]),
   midi.NoteOnEvent(tick=2, channel=0, data=[52, 0]),
   midi.NoteOnEvent(tick=78, channel=0, data=[59, 0]),
   midi.NoteOnEvent(tick=1, channel=0, data=[52, 70]),
   midi.NoteOnEvent(tick=79, channel=0, data=[57, 79]),
   midi.NoteOnEvent(tick=1, channel=0, data=[52, 0]),
   midi.NoteOnEvent(tick=79, channel=0, data=[57, 0]),
   midi.NoteOnEvent(tick=3, channel=0, data=[48, 70]),
   midi.NoteOnEvent(tick=78, channel=0, data=[40, 73]),
   midi.NoteOnEvent(tick=0, channel=0, data=[52, 86]),
   midi.NoteOnEvent(tick=2, channel=0, data=[48, 0]),
   midi.NoteOnEvent(tick=420, channel=0, data=[52, 0]),
   midi.NoteOnEvent(tick=0, channel=0, data=[40, 0]),
   midi.NoteOnEvent(tick=0, channel=0, data=[28, 73]),
   midi.NoteOnEvent(tick=0, channel=0, data=[40, 86]),
   midi.NoteOnEvent(tick=392, channel=0, data=[40, 0]),
   midi.NoteOnEvent(tick=0, channel=0, data=[28, 0]),
   midi.NoteOnEvent(tick=3, channel=0, data=[33, 101]),
   midi.NoteOnEvent(tick=55, channel=0, data=[40, 77]),
   midi.NoteOnEvent(tick=2, channel=0, data=[33, 0]),
   midi.NoteOnEvent(tick=115, channel=0, data=[48, 77]),
   midi.NoteOnEvent(tick=3, channel=0, data=[40, 0]),
   midi.NoteOnEvent(tick=117, channel=0, data=[48, 0]),
   midi.NoteOnEvent(tick=2, channel=0, data=[40, 77]),
   midi.NoteOnEvent(tick=120, channel=0, data=[40, 0]),
   midi.NoteOnEvent(tick=2, channel=0, data=[33, 88]),
   midi.NoteOnEvent(tick=59, channel=0, data=[33, 0]),
   midi.NoteOnEvent(tick=0, channel=0, data=[40, 77]),
   midi.NoteOnEvent(tick=120, channel=0, data=[40, 0]),
   midi.NoteOnEvent(tick=1, channel=0, data=[48, 77]),
   midi.NoteOnEvent(tick=120, channel=0, data=[48, 0]),
   midi.NoteOnEvent(tick=0, channel=0, data=[40, 77]),
   midi.NoteOnEvent(tick=115, channel=0, data=[33, 97]),
   midi.NoteOnEvent(tick=5, channel=0, data=[40, 0]),
   midi.NoteOnEvent(tick=52, channel=0, data=[33, 0]),
   midi.NoteOnEvent(tick=3, channel=0, data=[40, 77]),
   midi.NoteOnEvent(tick=120, channel=0, data=[40, 0]),
   midi.NoteOnEvent(tick=2, channel=0, data=[48, 77]),
   midi.NoteOnEvent(tick=118, channel=0, data=[40, 77]),
   midi.NoteOnEvent(tick=2, channel=0, data=[48, 0]),
   midi.NoteOnEvent(tick=118, channel=0, data=[40, 0]),
   midi.NoteOnEvent(tick=0, channel=0, data=[33, 89]),
   midi.NoteOnEvent(tick=58, channel=0, data=[33, 0]),
   midi.NoteOnEvent(tick=0, channel=0, data=[40, 77]),
   midi.NoteOnEvent(tick=118, channel=0, data=[48, 77]),
   midi.NoteOnEvent(tick=2, channel=0, data=[40, 0]),
   midi.NoteOnEvent(tick=118, channel=0, data=[48, 0]),
   midi.NoteOnEvent(tick=3, channel=0, data=[40, 77]),
   midi.NoteOnEvent(tick=120, channel=0, data=[40, 0]),
   midi.NoteOnEvent(tick=0, channel=0, data=[33, 101]),
   midi.NoteOnEvent(tick=63, channel=0, data=[33, 0]),
   midi.NoteOnEvent(tick=0, channel=0, data=[40, 77]),
   midi.NoteOnEvent(tick=115, channel=0, data=[48, 77]),
   midi.NoteOnEvent(tick=5, channel=0, data=[40, 0]),
   midi.NoteOnEvent(tick=115, channel=0, data=[48, 0]),
   midi.NoteOnEvent(tick=2, channel=0, data=[40, 77]),
   midi.NoteOnEvent(tick=120, channel=0, data=[40, 0]),
   midi.NoteOnEvent(tick=0, channel=0, data=[28, 101]),
   midi.NoteOnEvent(tick=57, channel=0, data=[28, 0]),
   midi.NoteOnEvent(tick=0, channel=0, data=[40, 77]),
   midi.NoteOnEvent(tick=118, channel=0, data=[48, 77]),
   midi.NoteOnEvent(tick=2, channel=0, data=[40, 0]),
   midi.NoteOnEvent(tick=118, channel=0, data=[48, 0]),
   midi.NoteOnEvent(tick=1, channel=0, data=[40, 77]),
   midi.NoteOnEvent(tick=120, channel=0, data=[40, 0]),
   midi.NoteOnEvent(tick=3, channel=0, data=[33, 96]),
   midi.NoteOnEvent(tick=43, channel=0, data=[40, 77]),
   midi.NoteOnEvent(tick=4, channel=0, data=[33, 0]),
   midi.NoteOnEvent(tick=116, channel=0, data=[40, 0]),
   midi.NoteOnEvent(tick=5, channel=0, data=[48, 77]),
   midi.NoteOnEvent(tick=117, channel=0, data=[40, 77]),
   midi.NoteOnEvent(tick=3, channel=0, data=[48, 0]),
   midi.NoteOnEvent(tick=117, channel=0, data=[40, 0]),
   midi.NoteOnEvent(tick=1, channel=0, data=[48, 83]),
   midi.NoteOnEvent(tick=65, channel=0, data=[40, 73]),
   midi.NoteOnEvent(tick=1, channel=0, data=[48, 0]),
   midi.NoteOnEvent(tick=119, channel=0, data=[40, 0]),
   midi.NoteOnEvent(tick=2, channel=0, data=[48, 71]),
   midi.NoteOnEvent(tick=119, channel=0, data=[40, 70]),
   midi.NoteOnEvent(tick=1, channel=0, data=[48, 0]),
   midi.NoteOnEvent(tick=119, channel=0, data=[40, 0]),
   midi.NoteOnEvent(tick=0, channel=0, data=[33, 78]),
   midi.NoteOnEvent(tick=57, channel=0, data=[40, 68]),
   midi.NoteOnEvent(tick=1, channel=0, data=[33, 0]),
   midi.NoteOnEvent(tick=119, channel=0, data=[40, 0]),
   midi.NoteOnEvent(tick=2, channel=0, data=[48, 67]),
   midi.NoteOnEvent(tick=120, channel=0, data=[48, 0]),
   midi.NoteOnEvent(tick=1, channel=0, data=[40, 66]),
   midi.NoteOnEvent(tick=118, channel=0, data=[33, 72]),
   midi.NoteOnEvent(tick=2, channel=0, data=[40, 0]),
   midi.NoteOnEvent(tick=55, channel=0, data=[33, 0]),
   midi.NoteOnEvent(tick=1, channel=0, data=[40, 63]),
   midi.NoteOnEvent(tick=120, channel=0, data=[40, 0]),
   midi.NoteOnEvent(tick=0, channel=0, data=[48, 62]),
   midi.NoteOnEvent(tick=120, channel=0, data=[48, 0]),
   midi.NoteOnEvent(tick=1, channel=0, data=[40, 61]),
   midi.NoteOnEvent(tick=116, channel=0, data=[33, 69]),
   midi.NoteOnEvent(tick=4, channel=0, data=[40, 0]),
   midi.NoteOnEvent(tick=59, channel=0, data=[33, 0]),
   midi.NoteOnEvent(tick=2, channel=0, data=[40, 60]),
   midi.NoteOnEvent(tick=120, channel=0, data=[40, 0]),
   midi.NoteOnEvent(tick=2, channel=0, data=[48, 59]),
   midi.NoteOnEvent(tick=119, channel=0, data=[40, 58]),
   midi.NoteOnEvent(tick=1, channel=0, data=[48, 0]),
   midi.NoteOnEvent(tick=117, channel=0, data=[33, 63]),
   midi.NoteOnEvent(tick=2, channel=0, data=[40, 0]),
   midi.NoteOnEvent(tick=43, channel=0, data=[33, 0]),
   midi.NoteOnEvent(tick=2, channel=0, data=[40, 52]),
   midi.NoteOnEvent(tick=119, channel=0, data=[48, 51]),
   midi.NoteOnEvent(tick=1, channel=0, data=[40, 0]),
   midi.NoteOnEvent(tick=118, channel=0, data=[40, 50]),
   midi.NoteOnEvent(tick=1, channel=0, data=[48, 0]),
   midi.NoteOnEvent(tick=119, channel=0, data=[40, 0]),
   midi.NoteOnEvent(tick=1, channel=0, data=[45, 89]),
   midi.NoteOnEvent(tick=112, channel=0, data=[45, 0]),
   midi.NoteOnEvent(tick=46, channel=0, data=[44, 84]),
   midi.NoteOnEvent(tick=112, channel=0, data=[44, 0]),
   midi.NoteOnEvent(tick=46, channel=0, data=[43, 88]),
   midi.NoteOnEvent(tick=112, channel=0, data=[43, 0]),
   midi.NoteOnEvent(tick=50, channel=0, data=[42, 89]),
   midi.NoteOnEvent(tick=112, channel=0, data=[42, 0]),
   midi.NoteOnEvent(tick=49, channel=0, data=[41, 83]),
   midi.NoteOnEvent(tick=112, channel=0, data=[41, 0]),
   midi.NoteOnEvent(tick=47, channel=0, data=[40, 84]),
   midi.NoteOnEvent(tick=112, channel=0, data=[40, 0]),
   midi.NoteOnEvent(tick=50, channel=0, data=[39, 89]),
   midi.NoteOnEvent(tick=112, channel=0, data=[39, 0]),
   midi.NoteOnEvent(tick=46, channel=0, data=[38, 84]),
   midi.NoteOnEvent(tick=112, channel=0, data=[38, 0]),
   midi.NoteOnEvent(tick=46, channel=0, data=[37, 84]),
   midi.NoteOnEvent(tick=112, channel=0, data=[37, 0]),
   midi.NoteOnEvent(tick=50, channel=0, data=[36, 89]),
   midi.NoteOnEvent(tick=112, channel=0, data=[36, 0]),
   midi.NoteOnEvent(tick=46, channel=0, data=[35, 83]),
   midi.NoteOnEvent(tick=112, channel=0, data=[35, 0]),
   midi.NoteOnEvent(tick=52, channel=0, data=[34, 83]),
   midi.NoteOnEvent(tick=112, channel=0, data=[34, 0]),
   midi.NoteOnEvent(tick=45, channel=0, data=[33, 104]),
   midi.NoteOnEvent(tick=388, channel=0, data=[33, 0]),
   midi.NoteOnEvent(tick=0, channel=0, data=[33, 76]),
   midi.NoteOnEvent(tick=0, channel=0, data=[40, 90]),
   midi.NoteOnEvent(tick=0, channel=0, data=[45, 90]),
   midi.NoteOnEvent(tick=360, channel=0, data=[45, 0]),
   midi.NoteOnEvent(tick=0, channel=0, data=[40, 0]),
   midi.NoteOnEvent(tick=0, channel=0, data=[33, 0]),
   midi.NoteOnEvent(tick=0, channel=0, data=[33, 73]),
   midi.NoteOnEvent(tick=0, channel=0, data=[40, 86]),
   midi.NoteOnEvent(tick=0, channel=0, data=[45, 86]),
   midi.NoteOnEvent(tick=120, channel=0, data=[45, 0]),
   midi.NoteOnEvent(tick=0, channel=0, data=[40, 0]),
   midi.NoteOnEvent(tick=0, channel=0, data=[33, 0]),
   midi.NoteOnEvent(tick=0, channel=0, data=[33, 76]),
   midi.NoteOnEvent(tick=0, channel=0, data=[40, 90]),
   midi.NoteOnEvent(tick=0, channel=0, data=[45, 90]),
   midi.NoteOnEvent(tick=480, channel=0, data=[45, 0]),
   midi.NoteOnEvent(tick=0, channel=0, data=[40, 0]),
   midi.NoteOnEvent(tick=0, channel=0, data=[33, 0]),
   midi.NoteOnEvent(tick=0, channel=0, data=[33, 74]),
   midi.NoteOnEvent(tick=0, channel=0, data=[38, 88]),
   midi.NoteOnEvent(tick=0, channel=0, data=[45, 88]),
   midi.NoteOnEvent(tick=374, channel=0, data=[45, 0]),
   midi.NoteOnEvent(tick=0, channel=0, data=[38, 0]),
   midi.NoteOnEvent(tick=0, channel=0, data=[33, 0]),
   midi.NoteOnEvent(tick=0, channel=0, data=[33, 76]),
   midi.NoteOnEvent(tick=0, channel=0, data=[40, 90]),
   midi.NoteOnEvent(tick=0, channel=0, data=[45, 90]),
   midi.NoteOnEvent(tick=640, channel=0, data=[45, 0]),
   midi.NoteOnEvent(tick=0, channel=0, data=[40, 0]),
   midi.NoteOnEvent(tick=0, channel=0, data=[33, 0]),
   midi.NoteOnEvent(tick=0, channel=0, data=[33, 74]),
   midi.NoteOnEvent(tick=0, channel=0, data=[41, 88]),
   midi.NoteOnEvent(tick=0, channel=0, data=[45, 88]),
   midi.NoteOnEvent(tick=533, channel=0, data=[45, 0]),
   midi.NoteOnEvent(tick=0, channel=0, data=[41, 0]),
   midi.NoteOnEvent(tick=0, channel=0, data=[33, 0]),
   midi.NoteOnEvent(tick=0, channel=0, data=[33, 76]),
   midi.NoteOnEvent(tick=0, channel=0, data=[40, 90]),
   midi.NoteOnEvent(tick=0, channel=0, data=[45, 90]),
   midi.NoteOnEvent(tick=765, channel=0, data=[33, 68]),
   midi.NoteOnEvent(tick=100, channel=0, data=[35, 68]),
   midi.NoteOnEvent(tick=26, channel=0, data=[33, 0]),
   midi.NoteOnEvent(tick=95, channel=0, data=[36, 69]),
   midi.NoteOnEvent(tick=23, channel=0, data=[35, 0]),
   midi.NoteOnEvent(tick=99, channel=0, data=[38, 69]),
   midi.NoteOnEvent(tick=22, channel=0, data=[36, 0]),
   midi.NoteOnEvent(tick=99, channel=0, data=[40, 70]),
   midi.NoteOnEvent(tick=23, channel=0, data=[38, 0]),
   midi.NoteOnEvent(tick=95, channel=0, data=[42, 72]),
   midi.NoteOnEvent(tick=26, channel=0, data=[40, 0]),
   midi.NoteOnEvent(tick=94, channel=0, data=[44, 72]),
   midi.NoteOnEvent(tick=24, channel=0, data=[42, 0]),
   midi.NoteOnEvent(tick=94, channel=0, data=[45, 73]),
   midi.NoteOnEvent(tick=26, channel=0, data=[44, 0]),
   midi.NoteOnEvent(tick=98, channel=0, data=[47, 73]),
   midi.NoteOnEvent(tick=20, channel=0, data=[45, 0]),
   midi.NoteOnEvent(tick=98, channel=0, data=[48, 74]),
   midi.NoteOnEvent(tick=26, channel=0, data=[47, 0]),
   midi.NoteOnEvent(tick=93, channel=0, data=[50, 74]),
   midi.NoteOnEvent(tick=25, channel=0, data=[48, 0]),
   midi.NoteOnEvent(tick=99, channel=0, data=[52, 74]),
   midi.NoteOnEvent(tick=20, channel=0, data=[50, 0]),
   midi.NoteOnEvent(tick=98, channel=0, data=[54, 75]),
   midi.NoteOnEvent(tick=26, channel=0, data=[52, 0]),
   midi.NoteOnEvent(tick=94, channel=0, data=[56, 75]),
   midi.NoteOnEvent(tick=24, channel=0, data=[54, 0]),
   midi.NoteOnEvent(tick=98, channel=0, data=[57, 78]),
   midi.NoteOnEvent(tick=22, channel=0, data=[56, 0]),
   midi.NoteOnEvent(tick=96, channel=0, data=[59, 78]),
   midi.NoteOnEvent(tick=26, channel=0, data=[57, 0]),
   midi.NoteOnEvent(tick=92, channel=0, data=[60, 79]),
   midi.NoteOnEvent(tick=26, channel=0, data=[59, 0]),
   midi.NoteOnEvent(tick=94, channel=0, data=[62, 80]),
   midi.NoteOnEvent(tick=24, channel=0, data=[60, 0]),
   midi.NoteOnEvent(tick=96, channel=0, data=[64, 80]),
   midi.NoteOnEvent(tick=24, channel=0, data=[62, 0]),
   midi.NoteOnEvent(tick=98, channel=0, data=[66, 81]),
   midi.NoteOnEvent(tick=22, channel=0, data=[64, 0]),
   midi.NoteOnEvent(tick=98, channel=0, data=[68, 81]),
   midi.NoteOnEvent(tick=24, channel=0, data=[66, 0]),
   midi.NoteOnEvent(tick=96, channel=0, data=[69, 81]),
   midi.NoteOnEvent(tick=24, channel=0, data=[68, 0]),
   midi.NoteOnEvent(tick=97, channel=0, data=[71, 81]),
   midi.NoteOnEvent(tick=23, channel=0, data=[69, 0]),
   midi.NoteOnEvent(tick=95, channel=0, data=[72, 82]),
   midi.NoteOnEvent(tick=26, channel=0, data=[71, 0]),
   midi.NoteOnEvent(tick=95, channel=0, data=[74, 84]),
   midi.NoteOnEvent(tick=23, channel=0, data=[72, 0]),
   midi.NoteOnEvent(tick=95, channel=0, data=[76, 84]),
   midi.NoteOnEvent(tick=26, channel=0, data=[74, 0]),
   midi.NoteOnEvent(tick=95, channel=0, data=[78, 85]),
   midi.NoteOnEvent(tick=23, channel=0, data=[76, 0]),
   midi.NoteOnEvent(tick=97, channel=0, data=[80, 85]),
   midi.NoteOnEvent(tick=24, channel=0, data=[78, 0]),
   midi.NoteOnEvent(tick=96, channel=0, data=[45, 0]),
   midi.NoteOnEvent(tick=0, channel=0, data=[33, 0]),
   midi.NoteOnEvent(tick=0, channel=0, data=[40, 0]),
   midi.NoteOnEvent(tick=0, channel=0, data=[81, 93]),
   midi.NoteOnEvent(tick=24, channel=0, data=[80, 0]),
   midi.NoteOnEvent(tick=216, channel=0, data=[81, 0]),
   midi.EndOfTrackEvent(tick=0, data=[])])])
midi.write_midifile("creationMidi.mid", pattern)