import midi
pattern=midi.Pattern(format=1, resolution=480, tracks=\
[midi.Track(\
[   midi.NoteOnEvent(tick=1, channel=0, data=[71, 55]),
   midi.NoteOnEvent(tick=479, channel=0, data=[79, 60]),
   midi.NoteOnEvent(tick=11, channel=0, data=[71, 0]),
   midi.NoteOnEvent(tick=469, channel=0, data=[79, 0]),
   midi.NoteOnEvent(tick=0, channel=0, data=[78, 57]),
   midi.NoteOnEvent(tick=360, channel=0, data=[76, 37]),
   midi.NoteOnEvent(tick=10, channel=0, data=[78, 0]),
   midi.NoteOnEvent(tick=110, channel=0, data=[74, 37]),
   midi.NoteOnEvent(tick=10, channel=0, data=[76, 0]),
   midi.NoteOnEvent(tick=470, channel=0, data=[74, 0]),
   midi.NoteOnEvent(tick=1, channel=0, data=[71, 55]),
   midi.NoteOnEvent(tick=479, channel=0, data=[79, 60]),
   midi.NoteOnEvent(tick=11, channel=0, data=[71, 0]),
   midi.NoteOnEvent(tick=469, channel=0, data=[79, 0]),
   midi.NoteOnEvent(tick=0, channel=0, data=[78, 57]),
   midi.NoteOnEvent(tick=360, channel=0, data=[76, 37]),
   midi.NoteOnEvent(tick=10, channel=0, data=[78, 0]),
   midi.NoteOnEvent(tick=110, channel=0, data=[74, 37]),
   midi.NoteOnEvent(tick=10, channel=0, data=[76, 0]),
   midi.NoteOnEvent(tick=470, channel=0, data=[74, 0]),
   midi.NoteOnEvent(tick=1, channel=0, data=[71, 58]),
   midi.NoteOnEvent(tick=479, channel=0, data=[79, 60]),
   midi.NoteOnEvent(tick=11, channel=0, data=[71, 0]),
   midi.NoteOnEvent(tick=469, channel=0, data=[79, 0]),
   midi.NoteOnEvent(tick=0, channel=0, data=[76, 57]),
   midi.NoteOnEvent(tick=360, channel=0, data=[74, 52]),
   midi.NoteOnEvent(tick=10, channel=0, data=[76, 0]),
   midi.NoteOnEvent(tick=110, channel=0, data=[72, 49]),
   midi.NoteOnEvent(tick=10, channel=0, data=[74, 0]),
   midi.NoteOnEvent(tick=470, channel=0, data=[72, 0]),
   midi.NoteOnEvent(tick=0, channel=0, data=[69, 51]),
   midi.NoteOnEvent(tick=480, channel=0, data=[74, 48]),
   midi.NoteOnEvent(tick=10, channel=0, data=[69, 0]),
   midi.NoteOnEvent(tick=470, channel=0, data=[74, 0]),
   midi.NoteOnEvent(tick=0, channel=0, data=[71, 45]),
   midi.NoteOnEvent(tick=960, channel=0, data=[71, 0]),
   midi.NoteOnEvent(tick=1, channel=0, data=[71, 55]),
   midi.NoteOnEvent(tick=479, channel=0, data=[79, 60]),
   midi.NoteOnEvent(tick=11, channel=0, data=[71, 0]),
   midi.NoteOnEvent(tick=469, channel=0, data=[79, 0]),
   midi.NoteOnEvent(tick=0, channel=0, data=[78, 57]),
   midi.NoteOnEvent(tick=360, channel=0, data=[76, 38]),
   midi.NoteOnEvent(tick=10, channel=0, data=[78, 0]),
   midi.NoteOnEvent(tick=110, channel=0, data=[74, 38]),
   midi.NoteOnEvent(tick=10, channel=0, data=[76, 0]),
   midi.NoteOnEvent(tick=470, channel=0, data=[74, 0]),
   midi.NoteOnEvent(tick=1, channel=0, data=[71, 55]),
   midi.NoteOnEvent(tick=479, channel=0, data=[79, 60]),
   midi.NoteOnEvent(tick=11, channel=0, data=[71, 0]),
   midi.NoteOnEvent(tick=469, channel=0, data=[79, 0]),
   midi.NoteOnEvent(tick=0, channel=0, data=[78, 57]),
   midi.NoteOnEvent(tick=360, channel=0, data=[76, 37]),
   midi.NoteOnEvent(tick=10, channel=0, data=[78, 0]),
   midi.NoteOnEvent(tick=110, channel=0, data=[74, 37]),
   midi.NoteOnEvent(tick=10, channel=0, data=[76, 0]),
   midi.NoteOnEvent(tick=470, channel=0, data=[74, 0]),
   midi.NoteOnEvent(tick=1, channel=0, data=[71, 58]),
   midi.NoteOnEvent(tick=479, channel=0, data=[79, 60]),
   midi.NoteOnEvent(tick=11, channel=0, data=[71, 0]),
   midi.NoteOnEvent(tick=469, channel=0, data=[79, 0]),
   midi.NoteOnEvent(tick=0, channel=0, data=[76, 57]),
   midi.NoteOnEvent(tick=360, channel=0, data=[74, 49]),
   midi.NoteOnEvent(tick=10, channel=0, data=[76, 0]),
   midi.NoteOnEvent(tick=110, channel=0, data=[72, 49]),
   midi.NoteOnEvent(tick=10, channel=0, data=[74, 0]),
   midi.NoteOnEvent(tick=470, channel=0, data=[72, 0]),
   midi.NoteOnEvent(tick=0, channel=0, data=[69, 51]),
   midi.NoteOnEvent(tick=480, channel=0, data=[74, 48]),
   midi.NoteOnEvent(tick=10, channel=0, data=[69, 0]),
   midi.NoteOnEvent(tick=470, channel=0, data=[74, 0]),
   midi.NoteOnEvent(tick=0, channel=0, data=[71, 45]),
   midi.NoteOnEvent(tick=960, channel=0, data=[71, 0]),
   midi.NoteOnEvent(tick=0, channel=0, data=[67, 53]),
   midi.NoteOnEvent(tick=0, channel=0, data=[71, 53]),
   midi.NoteOnEvent(tick=480, channel=0, data=[69, 51]),
   midi.NoteOnEvent(tick=0, channel=0, data=[72, 51]),
   midi.NoteOnEvent(tick=10, channel=0, data=[71, 0]),
   midi.NoteOnEvent(tick=0, channel=0, data=[67, 0]),
   midi.NoteOnEvent(tick=470, channel=0, data=[69, 0]),
   midi.NoteOnEvent(tick=0, channel=0, data=[72, 0]),
   midi.NoteOnEvent(tick=0, channel=0, data=[66, 53]),
   midi.NoteOnEvent(tick=0, channel=0, data=[69, 53]),
   midi.NoteOnEvent(tick=480, channel=0, data=[67, 52]),
   midi.NoteOnEvent(tick=0, channel=0, data=[71, 52]),
   midi.NoteOnEvent(tick=10, channel=0, data=[69, 0]),
   midi.NoteOnEvent(tick=0, channel=0, data=[66, 0]),
   midi.NoteOnEvent(tick=470, channel=0, data=[67, 0]),
   midi.NoteOnEvent(tick=0, channel=0, data=[71, 0]),
   midi.NoteOnEvent(tick=0, channel=0, data=[64, 48]),
   midi.NoteOnEvent(tick=0, channel=0, data=[67, 48]),
   midi.NoteOnEvent(tick=480, channel=0, data=[64, 0]),
   midi.NoteOnEvent(tick=0, channel=0, data=[64, 45]),
   midi.NoteOnEvent(tick=0, channel=0, data=[69, 45]),
   midi.NoteOnEvent(tick=10, channel=0, data=[67, 0]),
   midi.NoteOnEvent(tick=470, channel=0, data=[69, 0]),
   midi.NoteOnEvent(tick=0, channel=0, data=[64, 0]),
   midi.NoteOnEvent(tick=0, channel=0, data=[63, 44]),
   midi.NoteOnEvent(tick=0, channel=0, data=[66, 44]),
   midi.NoteOnEvent(tick=480, channel=0, data=[66, 0]),
   midi.NoteOnEvent(tick=0, channel=0, data=[63, 0]),
   midi.NoteOnEvent(tick=0, channel=0, data=[62, 40]),
   midi.NoteOnEvent(tick=0, channel=0, data=[67, 40]),
   midi.NoteOnEvent(tick=480, channel=0, data=[67, 0]),
   midi.NoteOnEvent(tick=0, channel=0, data=[62, 0]),
   midi.NoteOnEvent(tick=0, channel=0, data=[64, 49]),
   midi.NoteOnEvent(tick=480, channel=0, data=[66, 48]),
   midi.NoteOnEvent(tick=10, channel=0, data=[64, 0]),
   midi.NoteOnEvent(tick=470, channel=0, data=[66, 0]),
   midi.NoteOnEvent(tick=0, channel=0, data=[67, 52]),
   midi.NoteOnEvent(tick=360, channel=0, data=[69, 50]),
   midi.NoteOnEvent(tick=10, channel=0, data=[67, 0]),
   midi.NoteOnEvent(tick=110, channel=0, data=[71, 53]),
   midi.NoteOnEvent(tick=10, channel=0, data=[69, 0]),
   midi.NoteOnEvent(tick=350, channel=0, data=[72, 38]),
   midi.NoteOnEvent(tick=10, channel=0, data=[71, 0]),
   midi.NoteOnEvent(tick=110, channel=0, data=[72, 0]),
   midi.NoteOnEvent(tick=0, channel=0, data=[74, 44]),
   midi.NoteOnEvent(tick=480, channel=0, data=[79, 48]),
   midi.NoteOnEvent(tick=10, channel=0, data=[74, 0]),
   midi.NoteOnEvent(tick=470, channel=0, data=[79, 0]),
   midi.NoteOnEvent(tick=0, channel=0, data=[78, 48]),
   midi.NoteOnEvent(tick=360, channel=0, data=[76, 38]),
   midi.NoteOnEvent(tick=10, channel=0, data=[78, 0]),
   midi.NoteOnEvent(tick=110, channel=0, data=[74, 38]),
   midi.NoteOnEvent(tick=10, channel=0, data=[76, 0]),
   midi.NoteOnEvent(tick=470, channel=0, data=[74, 0]),
   midi.NoteOnEvent(tick=1, channel=0, data=[71, 50]),
   midi.NoteOnEvent(tick=479, channel=0, data=[79, 56]),
   midi.NoteOnEvent(tick=11, channel=0, data=[71, 0]),
   midi.NoteOnEvent(tick=469, channel=0, data=[79, 0]),
   midi.NoteOnEvent(tick=0, channel=0, data=[78, 53]),
   midi.NoteOnEvent(tick=360, channel=0, data=[76, 38]),
   midi.NoteOnEvent(tick=10, channel=0, data=[78, 0]),
   midi.NoteOnEvent(tick=110, channel=0, data=[74, 38]),
   midi.NoteOnEvent(tick=10, channel=0, data=[76, 0]),
   midi.NoteOnEvent(tick=470, channel=0, data=[74, 0]),
   midi.NoteOnEvent(tick=1, channel=0, data=[71, 58]),
   midi.NoteOnEvent(tick=479, channel=0, data=[79, 60]),
   midi.NoteOnEvent(tick=11, channel=0, data=[71, 0]),
   midi.NoteOnEvent(tick=469, channel=0, data=[79, 0]),
   midi.NoteOnEvent(tick=0, channel=0, data=[76, 57]),
   midi.NoteOnEvent(tick=360, channel=0, data=[74, 52]),
   midi.NoteOnEvent(tick=10, channel=0, data=[76, 0]),
   midi.NoteOnEvent(tick=110, channel=0, data=[72, 49]),
   midi.NoteOnEvent(tick=10, channel=0, data=[74, 0]),
   midi.NoteOnEvent(tick=470, channel=0, data=[72, 0]),
   midi.NoteOnEvent(tick=0, channel=0, data=[69, 51]),
   midi.NoteOnEvent(tick=480, channel=0, data=[74, 48]),
   midi.NoteOnEvent(tick=10, channel=0, data=[69, 0]),
   midi.NoteOnEvent(tick=470, channel=0, data=[74, 0]),
   midi.NoteOnEvent(tick=0, channel=0, data=[71, 45]),
   midi.NoteOnEvent(tick=960, channel=0, data=[71, 0]),
   midi.NoteOnEvent(tick=0, channel=0, data=[67, 53]),
   midi.NoteOnEvent(tick=0, channel=0, data=[71, 53]),
   midi.NoteOnEvent(tick=480, channel=0, data=[69, 51]),
   midi.NoteOnEvent(tick=0, channel=0, data=[72, 51]),
   midi.NoteOnEvent(tick=10, channel=0, data=[71, 0]),
   midi.NoteOnEvent(tick=0, channel=0, data=[67, 0]),
   midi.NoteOnEvent(tick=470, channel=0, data=[69, 0]),
   midi.NoteOnEvent(tick=0, channel=0, data=[72, 0]),
   midi.NoteOnEvent(tick=0, channel=0, data=[66, 53]),
   midi.NoteOnEvent(tick=0, channel=0, data=[69, 53]),
   midi.NoteOnEvent(tick=480, channel=0, data=[67, 52]),
   midi.NoteOnEvent(tick=0, channel=0, data=[71, 52]),
   midi.NoteOnEvent(tick=10, channel=0, data=[69, 0]),
   midi.NoteOnEvent(tick=0, channel=0, data=[66, 0]),
   midi.NoteOnEvent(tick=470, channel=0, data=[67, 0]),
   midi.NoteOnEvent(tick=0, channel=0, data=[71, 0]),
   midi.NoteOnEvent(tick=0, channel=0, data=[64, 48]),
   midi.NoteOnEvent(tick=0, channel=0, data=[67, 48]),
   midi.NoteOnEvent(tick=480, channel=0, data=[64, 0]),
   midi.NoteOnEvent(tick=0, channel=0, data=[64, 45]),
   midi.NoteOnEvent(tick=0, channel=0, data=[69, 45]),
   midi.NoteOnEvent(tick=10, channel=0, data=[67, 0]),
   midi.NoteOnEvent(tick=470, channel=0, data=[69, 0]),
   midi.NoteOnEvent(tick=0, channel=0, data=[64, 0]),
   midi.NoteOnEvent(tick=0, channel=0, data=[63, 44]),
   midi.NoteOnEvent(tick=0, channel=0, data=[66, 44]),
   midi.NoteOnEvent(tick=480, channel=0, data=[66, 0]),
   midi.NoteOnEvent(tick=0, channel=0, data=[63, 0]),
   midi.NoteOnEvent(tick=0, channel=0, data=[62, 40]),
   midi.NoteOnEvent(tick=0, channel=0, data=[67, 40]),
   midi.NoteOnEvent(tick=480, channel=0, data=[67, 0]),
   midi.NoteOnEvent(tick=0, channel=0, data=[62, 0]),
   midi.NoteOnEvent(tick=0, channel=0, data=[64, 49]),
   midi.NoteOnEvent(tick=480, channel=0, data=[66, 48]),
   midi.NoteOnEvent(tick=10, channel=0, data=[64, 0]),
   midi.NoteOnEvent(tick=470, channel=0, data=[66, 0]),
   midi.NoteOnEvent(tick=0, channel=0, data=[67, 52]),
   midi.NoteOnEvent(tick=360, channel=0, data=[69, 50]),
   midi.NoteOnEvent(tick=10, channel=0, data=[67, 0]),
   midi.NoteOnEvent(tick=110, channel=0, data=[69, 0]),
   midi.NoteOnEvent(tick=0, channel=0, data=[71, 53]),
   midi.NoteOnEvent(tick=360, channel=0, data=[72, 38]),
   midi.NoteOnEvent(tick=10, channel=0, data=[71, 0]),
   midi.NoteOnEvent(tick=110, channel=0, data=[72, 0]),
   midi.NoteOnEvent(tick=0, channel=0, data=[74, 44]),
   midi.NoteOnEvent(tick=480, channel=0, data=[79, 48]),
   midi.NoteOnEvent(tick=10, channel=0, data=[74, 0]),
   midi.NoteOnEvent(tick=470, channel=0, data=[79, 0]),
   midi.NoteOnEvent(tick=0, channel=0, data=[78, 48]),
   midi.NoteOnEvent(tick=360, channel=0, data=[76, 37]),
   midi.NoteOnEvent(tick=10, channel=0, data=[78, 0]),
   midi.NoteOnEvent(tick=110, channel=0, data=[74, 37]),
   midi.NoteOnEvent(tick=10, channel=0, data=[76, 0]),
   midi.NoteOnEvent(tick=470, channel=0, data=[74, 0]),
   midi.NoteOnEvent(tick=1, channel=0, data=[71, 50]),
   midi.NoteOnEvent(tick=479, channel=0, data=[79, 56]),
   midi.NoteOnEvent(tick=11, channel=0, data=[71, 0]),
   midi.NoteOnEvent(tick=469, channel=0, data=[79, 0]),
   midi.NoteOnEvent(tick=0, channel=0, data=[78, 53]),
   midi.NoteOnEvent(tick=360, channel=0, data=[76, 38]),
   midi.NoteOnEvent(tick=10, channel=0, data=[78, 0]),
   midi.NoteOnEvent(tick=110, channel=0, data=[74, 38]),
   midi.NoteOnEvent(tick=10, channel=0, data=[76, 0]),
   midi.NoteOnEvent(tick=470, channel=0, data=[74, 0]),
   midi.NoteOnEvent(tick=1, channel=0, data=[71, 58]),
   midi.NoteOnEvent(tick=479, channel=0, data=[79, 60]),
   midi.NoteOnEvent(tick=11, channel=0, data=[71, 0]),
   midi.NoteOnEvent(tick=469, channel=0, data=[79, 0]),
   midi.NoteOnEvent(tick=0, channel=0, data=[76, 57]),
   midi.NoteOnEvent(tick=360, channel=0, data=[74, 52]),
   midi.NoteOnEvent(tick=10, channel=0, data=[76, 0]),
   midi.NoteOnEvent(tick=110, channel=0, data=[72, 49]),
   midi.NoteOnEvent(tick=10, channel=0, data=[74, 0]),
   midi.NoteOnEvent(tick=470, channel=0, data=[72, 0]),
   midi.NoteOnEvent(tick=0, channel=0, data=[69, 51]),
   midi.NoteOnEvent(tick=480, channel=0, data=[74, 48]),
   midi.NoteOnEvent(tick=10, channel=0, data=[69, 0]),
   midi.NoteOnEvent(tick=470, channel=0, data=[74, 0]),
   midi.NoteOnEvent(tick=0, channel=0, data=[71, 45]),
   midi.NoteOnEvent(tick=960, channel=0, data=[71, 0]),
   midi.EndOfTrackEvent(tick=0, data=[])]),
 midi.Track(\
[    midi.NoteOnEvent(tick=1, channel=0, data=[55, 35]),
   midi.NoteOnEvent(tick=0, channel=0, data=[59, 35]),
   midi.NoteOnEvent(tick=159, channel=0, data=[62, 37]),
   midi.NoteOnEvent(tick=11, channel=0, data=[59, 0]),
   midi.NoteOnEvent(tick=70, channel=0, data=[55, 0]),
   midi.NoteOnEvent(tick=79, channel=0, data=[67, 32]),
   midi.NoteOnEvent(tick=10, channel=0, data=[62, 0]),
   midi.NoteOnEvent(tick=150, channel=0, data=[67, 0]),
   midi.NoteOnEvent(tick=0, channel=0, data=[58, 35]),
   midi.NoteOnEvent(tick=0, channel=0, data=[49, 35]),
   midi.NoteOnEvent(tick=86, channel=0, data=[64, 38]),
   midi.NoteOnEvent(tick=10, channel=0, data=[58, 0]),
   midi.NoteOnEvent(tick=70, channel=0, data=[49, 0]),
   midi.NoteOnEvent(tick=80, channel=0, data=[67, 32]),
   midi.NoteOnEvent(tick=10, channel=0, data=[64, 0]),
   midi.NoteOnEvent(tick=150, channel=0, data=[67, 0]),
   midi.NoteOnEvent(tick=0, channel=0, data=[57, 35]),
   midi.NoteOnEvent(tick=0, channel=0, data=[50, 35]),
   midi.NoteOnEvent(tick=82, channel=0, data=[62, 37]),
   midi.NoteOnEvent(tick=10, channel=0, data=[57, 0]),
   midi.NoteOnEvent(tick=70, channel=0, data=[50, 0]),
   midi.NoteOnEvent(tick=80, channel=0, data=[66, 28]),
   midi.NoteOnEvent(tick=10, channel=0, data=[62, 0]),
   midi.NoteOnEvent(tick=150, channel=0, data=[66, 0]),
   midi.NoteOnEvent(tick=0, channel=0, data=[60, 27]),
   midi.NoteOnEvent(tick=0, channel=0, data=[54, 27]),
   midi.NoteOnEvent(tick=82, channel=0, data=[62, 27]),
   midi.NoteOnEvent(tick=10, channel=0, data=[60, 0]),
   midi.NoteOnEvent(tick=70, channel=0, data=[54, 0]),
   midi.NoteOnEvent(tick=80, channel=0, data=[69, 27]),
   midi.NoteOnEvent(tick=10, channel=0, data=[62, 0]),
   midi.NoteOnEvent(tick=150, channel=0, data=[69, 0]),
   midi.NoteOnEvent(tick=1, channel=0, data=[59, 35]),
   midi.NoteOnEvent(tick=0, channel=0, data=[55, 35]),
   midi.NoteOnEvent(tick=107, channel=0, data=[62, 37]),
   midi.NoteOnEvent(tick=11, channel=0, data=[59, 0]),
   midi.NoteOnEvent(tick=70, channel=0, data=[55, 0]),
   midi.NoteOnEvent(tick=79, channel=0, data=[67, 32]),
   midi.NoteOnEvent(tick=10, channel=0, data=[62, 0]),
   midi.NoteOnEvent(tick=150, channel=0, data=[67, 0]),
   midi.NoteOnEvent(tick=0, channel=0, data=[49, 35]),
   midi.NoteOnEvent(tick=0, channel=0, data=[58, 35]),
   midi.NoteOnEvent(tick=118, channel=0, data=[64, 38]),
   midi.NoteOnEvent(tick=10, channel=0, data=[58, 0]),
   midi.NoteOnEvent(tick=70, channel=0, data=[49, 0]),
   midi.NoteOnEvent(tick=80, channel=0, data=[67, 32]),
   midi.NoteOnEvent(tick=10, channel=0, data=[64, 0]),
   midi.NoteOnEvent(tick=150, channel=0, data=[67, 0]),
   midi.NoteOnEvent(tick=0, channel=0, data=[57, 35]),
   midi.NoteOnEvent(tick=0, channel=0, data=[50, 35]),
   midi.NoteOnEvent(tick=61, channel=0, data=[62, 37]),
   midi.NoteOnEvent(tick=10, channel=0, data=[57, 0]),
   midi.NoteOnEvent(tick=70, channel=0, data=[50, 0]),
   midi.NoteOnEvent(tick=80, channel=0, data=[66, 29]),
   midi.NoteOnEvent(tick=10, channel=0, data=[62, 0]),
   midi.NoteOnEvent(tick=150, channel=0, data=[66, 0]),
   midi.NoteOnEvent(tick=0, channel=0, data=[60, 27]),
   midi.NoteOnEvent(tick=0, channel=0, data=[54, 27]),
   midi.NoteOnEvent(tick=61, channel=0, data=[62, 28]),
   midi.NoteOnEvent(tick=10, channel=0, data=[60, 0]),
   midi.NoteOnEvent(tick=70, channel=0, data=[54, 0]),
   midi.NoteOnEvent(tick=80, channel=0, data=[69, 28]),
   midi.NoteOnEvent(tick=10, channel=0, data=[62, 0]),
   midi.NoteOnEvent(tick=150, channel=0, data=[69, 0]),
   midi.NoteOnEvent(tick=1, channel=0, data=[55, 35]),
   midi.NoteOnEvent(tick=0, channel=0, data=[59, 35]),
   midi.NoteOnEvent(tick=114, channel=0, data=[62, 37]),
   midi.NoteOnEvent(tick=11, channel=0, data=[59, 0]),
   midi.NoteOnEvent(tick=70, channel=0, data=[55, 0]),
   midi.NoteOnEvent(tick=79, channel=0, data=[67, 37]),
   midi.NoteOnEvent(tick=10, channel=0, data=[62, 0]),
   midi.NoteOnEvent(tick=150, channel=0, data=[67, 0]),
   midi.NoteOnEvent(tick=0, channel=0, data=[47, 38]),
   midi.NoteOnEvent(tick=0, channel=0, data=[55, 38]),
   midi.NoteOnEvent(tick=160, channel=0, data=[62, 41]),
   midi.NoteOnEvent(tick=80, channel=0, data=[47, 0]),
   midi.NoteOnEvent(tick=80, channel=0, data=[67, 41]),
   midi.NoteOnEvent(tick=10, channel=0, data=[62, 0]),
   midi.NoteOnEvent(tick=150, channel=0, data=[67, 0]),
   midi.NoteOnEvent(tick=0, channel=0, data=[48, 38]),
   midi.NoteOnEvent(tick=111, channel=0, data=[55, 0]),
   midi.NoteOnEvent(tick=0, channel=0, data=[64, 40]),
   midi.NoteOnEvent(tick=80, channel=0, data=[48, 0]),
   midi.NoteOnEvent(tick=80, channel=0, data=[67, 40]),
   midi.NoteOnEvent(tick=10, channel=0, data=[64, 0]),
   midi.NoteOnEvent(tick=150, channel=0, data=[67, 0]),
   midi.NoteOnEvent(tick=0, channel=0, data=[52, 38]),
   midi.NoteOnEvent(tick=0, channel=0, data=[55, 38]),
   midi.NoteOnEvent(tick=118, channel=0, data=[60, 40]),
   midi.NoteOnEvent(tick=10, channel=0, data=[55, 0]),
   midi.NoteOnEvent(tick=70, channel=0, data=[52, 0]),
   midi.NoteOnEvent(tick=80, channel=0, data=[67, 40]),
   midi.NoteOnEvent(tick=10, channel=0, data=[60, 0]),
   midi.NoteOnEvent(tick=150, channel=0, data=[67, 0]),
   midi.NoteOnEvent(tick=0, channel=0, data=[50, 28]),
   midi.NoteOnEvent(tick=0, channel=0, data=[55, 28]),
   midi.NoteOnEvent(tick=61, channel=0, data=[60, 32]),
   midi.NoteOnEvent(tick=10, channel=0, data=[55, 0]),
   midi.NoteOnEvent(tick=70, channel=0, data=[50, 0]),
   midi.NoteOnEvent(tick=80, channel=0, data=[60, 0]),
   midi.NoteOnEvent(tick=0, channel=0, data=[67, 29]),
   midi.NoteOnEvent(tick=160, channel=0, data=[67, 0]),
   midi.NoteOnEvent(tick=0, channel=0, data=[54, 26]),
   midi.NoteOnEvent(tick=0, channel=0, data=[50, 26]),
   midi.NoteOnEvent(tick=47, channel=0, data=[60, 31]),
   midi.NoteOnEvent(tick=10, channel=0, data=[54, 0]),
   midi.NoteOnEvent(tick=70, channel=0, data=[50, 0]),
   midi.NoteOnEvent(tick=80, channel=0, data=[60, 0]),
   midi.NoteOnEvent(tick=0, channel=0, data=[69, 26]),
   midi.NoteOnEvent(tick=160, channel=0, data=[69, 0]),
   midi.NoteOnEvent(tick=0, channel=0, data=[43, 24]),
   midi.NoteOnEvent(tick=0, channel=0, data=[50, 24]),
   midi.NoteOnEvent(tick=114, channel=0, data=[59, 28]),
   midi.NoteOnEvent(tick=10, channel=0, data=[50, 0]),
   midi.NoteOnEvent(tick=70, channel=0, data=[43, 0]),
   midi.NoteOnEvent(tick=80, channel=0, data=[67, 25]),
   midi.NoteOnEvent(tick=10, channel=0, data=[59, 0]),
   midi.NoteOnEvent(tick=150, channel=0, data=[67, 0]),
   midi.NoteOnEvent(tick=0, channel=0, data=[55, 26]),
   midi.NoteOnEvent(tick=160, channel=0, data=[59, 26]),
   midi.NoteOnEvent(tick=80, channel=0, data=[55, 0]),
   midi.NoteOnEvent(tick=80, channel=0, data=[67, 21]),
   midi.NoteOnEvent(tick=10, channel=0, data=[59, 0]),
   midi.NoteOnEvent(tick=150, channel=0, data=[67, 0]),
   midi.NoteOnEvent(tick=1, channel=0, data=[59, 35]),
   midi.NoteOnEvent(tick=0, channel=0, data=[55, 35]),
   midi.NoteOnEvent(tick=114, channel=0, data=[62, 37]),
   midi.NoteOnEvent(tick=11, channel=0, data=[59, 0]),
   midi.NoteOnEvent(tick=70, channel=0, data=[55, 0]),
   midi.NoteOnEvent(tick=79, channel=0, data=[67, 32]),
   midi.NoteOnEvent(tick=10, channel=0, data=[62, 0]),
   midi.NoteOnEvent(tick=150, channel=0, data=[67, 0]),
   midi.NoteOnEvent(tick=0, channel=0, data=[49, 35]),
   midi.NoteOnEvent(tick=0, channel=0, data=[58, 35]),
   midi.NoteOnEvent(tick=93, channel=0, data=[58, 0]),
   midi.NoteOnEvent(tick=0, channel=0, data=[64, 38]),
   midi.NoteOnEvent(tick=80, channel=0, data=[49, 0]),
   midi.NoteOnEvent(tick=80, channel=0, data=[67, 32]),
   midi.NoteOnEvent(tick=10, channel=0, data=[64, 0]),
   midi.NoteOnEvent(tick=150, channel=0, data=[67, 0]),
   midi.NoteOnEvent(tick=0, channel=0, data=[50, 35]),
   midi.NoteOnEvent(tick=0, channel=0, data=[57, 35]),
   midi.NoteOnEvent(tick=107, channel=0, data=[62, 37]),
   midi.NoteOnEvent(tick=10, channel=0, data=[57, 0]),
   midi.NoteOnEvent(tick=70, channel=0, data=[50, 0]),
   midi.NoteOnEvent(tick=80, channel=0, data=[66, 27]),
   midi.NoteOnEvent(tick=10, channel=0, data=[62, 0]),
   midi.NoteOnEvent(tick=150, channel=0, data=[66, 0]),
   midi.NoteOnEvent(tick=0, channel=0, data=[54, 27]),
   midi.NoteOnEvent(tick=0, channel=0, data=[60, 27]),
   midi.NoteOnEvent(tick=104, channel=0, data=[62, 27]),
   midi.NoteOnEvent(tick=10, channel=0, data=[60, 0]),
   midi.NoteOnEvent(tick=70, channel=0, data=[54, 0]),
   midi.NoteOnEvent(tick=80, channel=0, data=[69, 27]),
   midi.NoteOnEvent(tick=10, channel=0, data=[62, 0]),
   midi.NoteOnEvent(tick=150, channel=0, data=[69, 0]),
   midi.NoteOnEvent(tick=1, channel=0, data=[59, 35]),
   midi.NoteOnEvent(tick=0, channel=0, data=[55, 35]),
   midi.NoteOnEvent(tick=82, channel=0, data=[62, 37]),
   midi.NoteOnEvent(tick=11, channel=0, data=[59, 0]),
   midi.NoteOnEvent(tick=70, channel=0, data=[55, 0]),
   midi.NoteOnEvent(tick=79, channel=0, data=[67, 32]),
   midi.NoteOnEvent(tick=10, channel=0, data=[62, 0]),
   midi.NoteOnEvent(tick=150, channel=0, data=[67, 0]),
   midi.NoteOnEvent(tick=0, channel=0, data=[49, 35]),
   midi.NoteOnEvent(tick=0, channel=0, data=[58, 35]),
   midi.NoteOnEvent(tick=96, channel=0, data=[64, 38]),
   midi.NoteOnEvent(tick=10, channel=0, data=[58, 0]),
   midi.NoteOnEvent(tick=70, channel=0, data=[49, 0]),
   midi.NoteOnEvent(tick=80, channel=0, data=[67, 32]),
   midi.NoteOnEvent(tick=10, channel=0, data=[64, 0]),
   midi.NoteOnEvent(tick=150, channel=0, data=[67, 0]),
   midi.NoteOnEvent(tick=0, channel=0, data=[50, 35]),
   midi.NoteOnEvent(tick=0, channel=0, data=[57, 35]),
   midi.NoteOnEvent(tick=121, channel=0, data=[62, 37]),
   midi.NoteOnEvent(tick=10, channel=0, data=[57, 0]),
   midi.NoteOnEvent(tick=70, channel=0, data=[50, 0]),
   midi.NoteOnEvent(tick=80, channel=0, data=[66, 28]),
   midi.NoteOnEvent(tick=10, channel=0, data=[62, 0]),
   midi.NoteOnEvent(tick=150, channel=0, data=[66, 0]),
   midi.NoteOnEvent(tick=0, channel=0, data=[54, 27]),
   midi.NoteOnEvent(tick=0, channel=0, data=[60, 27]),
   midi.NoteOnEvent(tick=89, channel=0, data=[62, 28]),
   midi.NoteOnEvent(tick=10, channel=0, data=[60, 0]),
   midi.NoteOnEvent(tick=70, channel=0, data=[54, 0]),
   midi.NoteOnEvent(tick=80, channel=0, data=[69, 27]),
   midi.NoteOnEvent(tick=10, channel=0, data=[62, 0]),
   midi.NoteOnEvent(tick=150, channel=0, data=[69, 0]),
   midi.NoteOnEvent(tick=1, channel=0, data=[59, 35]),
   midi.NoteOnEvent(tick=0, channel=0, data=[55, 35]),
   midi.NoteOnEvent(tick=82, channel=0, data=[62, 37]),
   midi.NoteOnEvent(tick=11, channel=0, data=[59, 0]),
   midi.NoteOnEvent(tick=70, channel=0, data=[55, 0]),
   midi.NoteOnEvent(tick=79, channel=0, data=[67, 37]),
   midi.NoteOnEvent(tick=10, channel=0, data=[62, 0]),
   midi.NoteOnEvent(tick=150, channel=0, data=[67, 0]),
   midi.NoteOnEvent(tick=0, channel=0, data=[47, 38]),
   midi.NoteOnEvent(tick=0, channel=0, data=[55, 38]),
   midi.NoteOnEvent(tick=160, channel=0, data=[62, 41]),
   midi.NoteOnEvent(tick=80, channel=0, data=[47, 0]),
   midi.NoteOnEvent(tick=80, channel=0, data=[67, 41]),
   midi.NoteOnEvent(tick=10, channel=0, data=[62, 0]),
   midi.NoteOnEvent(tick=150, channel=0, data=[67, 0]),
   midi.NoteOnEvent(tick=0, channel=0, data=[48, 38]),
   midi.NoteOnEvent(tick=118, channel=0, data=[55, 0]),
   midi.NoteOnEvent(tick=0, channel=0, data=[64, 40]),
   midi.NoteOnEvent(tick=80, channel=0, data=[48, 0]),
   midi.NoteOnEvent(tick=80, channel=0, data=[67, 40]),
   midi.NoteOnEvent(tick=10, channel=0, data=[64, 0]),
   midi.NoteOnEvent(tick=150, channel=0, data=[67, 0]),
   midi.NoteOnEvent(tick=0, channel=0, data=[52, 38]),
   midi.NoteOnEvent(tick=0, channel=0, data=[55, 38]),
   midi.NoteOnEvent(tick=61, channel=0, data=[60, 40]),
   midi.NoteOnEvent(tick=10, channel=0, data=[55, 0]),
   midi.NoteOnEvent(tick=70, channel=0, data=[52, 0]),
   midi.NoteOnEvent(tick=80, channel=0, data=[67, 40]),
   midi.NoteOnEvent(tick=10, channel=0, data=[60, 0]),
   midi.NoteOnEvent(tick=150, channel=0, data=[67, 0]),
   midi.NoteOnEvent(tick=0, channel=0, data=[50, 28]),
   midi.NoteOnEvent(tick=0, channel=0, data=[55, 28]),
   midi.NoteOnEvent(tick=100, channel=0, data=[60, 32]),
   midi.NoteOnEvent(tick=10, channel=0, data=[55, 0]),
   midi.NoteOnEvent(tick=70, channel=0, data=[50, 0]),
   midi.NoteOnEvent(tick=80, channel=0, data=[67, 29]),
   midi.NoteOnEvent(tick=10, channel=0, data=[60, 0]),
   midi.NoteOnEvent(tick=150, channel=0, data=[67, 0]),
   midi.NoteOnEvent(tick=0, channel=0, data=[50, 26]),
   midi.NoteOnEvent(tick=0, channel=0, data=[54, 26]),
   midi.NoteOnEvent(tick=86, channel=0, data=[60, 31]),
   midi.NoteOnEvent(tick=10, channel=0, data=[54, 0]),
   midi.NoteOnEvent(tick=70, channel=0, data=[50, 0]),
   midi.NoteOnEvent(tick=80, channel=0, data=[69, 26]),
   midi.NoteOnEvent(tick=10, channel=0, data=[60, 0]),
   midi.NoteOnEvent(tick=150, channel=0, data=[69, 0]),
   midi.NoteOnEvent(tick=0, channel=0, data=[43, 24]),
   midi.NoteOnEvent(tick=0, channel=0, data=[50, 24]),
   midi.NoteOnEvent(tick=107, channel=0, data=[59, 28]),
   midi.NoteOnEvent(tick=10, channel=0, data=[50, 0]),
   midi.NoteOnEvent(tick=70, channel=0, data=[43, 0]),
   midi.NoteOnEvent(tick=80, channel=0, data=[67, 25]),
   midi.NoteOnEvent(tick=10, channel=0, data=[59, 0]),
   midi.NoteOnEvent(tick=150, channel=0, data=[67, 0]),
   midi.NoteOnEvent(tick=0, channel=0, data=[55, 26]),
   midi.NoteOnEvent(tick=160, channel=0, data=[59, 26]),
   midi.NoteOnEvent(tick=80, channel=0, data=[55, 0]),
   midi.NoteOnEvent(tick=80, channel=0, data=[67, 21]),
   midi.NoteOnEvent(tick=10, channel=0, data=[59, 0]),
   midi.NoteOnEvent(tick=148, channel=0, data=[67, 0]),
   midi.NoteOnEvent(tick=0, channel=0, data=[52, 36]),
   midi.NoteOnEvent(tick=82, channel=0, data=[59, 36]),
   midi.NoteOnEvent(tick=160, channel=0, data=[64, 36]),
   midi.NoteOnEvent(tick=10, channel=0, data=[59, 0]),
   midi.NoteOnEvent(tick=150, channel=0, data=[64, 0]),
   midi.NoteOnEvent(tick=0, channel=0, data=[52, 0]),
   midi.NoteOnEvent(tick=0, channel=0, data=[45, 36]),
   midi.NoteOnEvent(tick=54, channel=0, data=[57, 36]),
   midi.NoteOnEvent(tick=160, channel=0, data=[64, 36]),
   midi.NoteOnEvent(tick=10, channel=0, data=[57, 0]),
   midi.NoteOnEvent(tick=150, channel=0, data=[64, 0]),
   midi.NoteOnEvent(tick=0, channel=0, data=[45, 0]),
   midi.NoteOnEvent(tick=0, channel=0, data=[50, 36]),
   midi.NoteOnEvent(tick=40, channel=0, data=[57, 39]),
   midi.NoteOnEvent(tick=160, channel=0, data=[62, 40]),
   midi.NoteOnEvent(tick=10, channel=0, data=[57, 0]),
   midi.NoteOnEvent(tick=30, channel=0, data=[50, 0]),
   midi.NoteOnEvent(tick=0, channel=0, data=[48, 46]),
   midi.NoteOnEvent(tick=120, channel=0, data=[48, 0]),
   midi.NoteOnEvent(tick=0, channel=0, data=[62, 0]),
   midi.NoteOnEvent(tick=0, channel=0, data=[47, 35]),
   midi.NoteOnEvent(tick=40, channel=0, data=[55, 35]),
   midi.NoteOnEvent(tick=160, channel=0, data=[62, 35]),
   midi.NoteOnEvent(tick=10, channel=0, data=[55, 0]),
   midi.NoteOnEvent(tick=150, channel=0, data=[62, 0]),
   midi.NoteOnEvent(tick=0, channel=0, data=[47, 0]),
   midi.NoteOnEvent(tick=0, channel=0, data=[48, 27]),
   midi.NoteOnEvent(tick=89, channel=0, data=[55, 27]),
   midi.NoteOnEvent(tick=160, channel=0, data=[60, 27]),
   midi.NoteOnEvent(tick=10, channel=0, data=[55, 0]),
   midi.NoteOnEvent(tick=150, channel=0, data=[60, 0]),
   midi.NoteOnEvent(tick=0, channel=0, data=[48, 0]),
   midi.NoteOnEvent(tick=0, channel=0, data=[42, 27]),
   midi.NoteOnEvent(tick=61, channel=0, data=[54, 27]),
   midi.NoteOnEvent(tick=160, channel=0, data=[60, 27]),
   midi.NoteOnEvent(tick=10, channel=0, data=[54, 0]),
   midi.NoteOnEvent(tick=150, channel=0, data=[60, 0]),
   midi.NoteOnEvent(tick=0, channel=0, data=[42, 0]),
   midi.NoteOnEvent(tick=0, channel=0, data=[47, 27]),
   midi.NoteOnEvent(tick=93, channel=0, data=[54, 34]),
   midi.NoteOnEvent(tick=160, channel=0, data=[59, 34]),
   midi.NoteOnEvent(tick=10, channel=0, data=[54, 0]),
   midi.NoteOnEvent(tick=30, channel=0, data=[47, 0]),
   midi.NoteOnEvent(tick=0, channel=0, data=[45, 39]),
   midi.NoteOnEvent(tick=120, channel=0, data=[45, 0]),
   midi.NoteOnEvent(tick=0, channel=0, data=[59, 0]),
   midi.NoteOnEvent(tick=0, channel=0, data=[43, 27]),
   midi.NoteOnEvent(tick=54, channel=0, data=[55, 27]),
   midi.NoteOnEvent(tick=160, channel=0, data=[59, 27]),
   midi.NoteOnEvent(tick=10, channel=0, data=[55, 0]),
   midi.NoteOnEvent(tick=150, channel=0, data=[59, 0]),
   midi.NoteOnEvent(tick=0, channel=0, data=[43, 0]),
   midi.NoteOnEvent(tick=0, channel=0, data=[48, 31]),
   midi.NoteOnEvent(tick=82, channel=0, data=[55, 31]),
   midi.NoteOnEvent(tick=160, channel=0, data=[60, 31]),
   midi.NoteOnEvent(tick=10, channel=0, data=[55, 0]),
   midi.NoteOnEvent(tick=150, channel=0, data=[60, 0]),
   midi.NoteOnEvent(tick=0, channel=0, data=[48, 0]),
   midi.NoteOnEvent(tick=0, channel=0, data=[48, 31]),
   midi.NoteOnEvent(tick=0, channel=0, data=[50, 31]),
   midi.NoteOnEvent(tick=33, channel=0, data=[57, 31]),
   midi.NoteOnEvent(tick=10, channel=0, data=[50, 0]),
   midi.NoteOnEvent(tick=150, channel=0, data=[62, 31]),
   midi.NoteOnEvent(tick=10, channel=0, data=[57, 0]),
   midi.NoteOnEvent(tick=150, channel=0, data=[62, 0]),
   midi.NoteOnEvent(tick=0, channel=0, data=[48, 0]),
   midi.NoteOnEvent(tick=0, channel=0, data=[47, 31]),
   midi.NoteOnEvent(tick=0, channel=0, data=[50, 31]),
   midi.NoteOnEvent(tick=96, channel=0, data=[55, 33]),
   midi.NoteOnEvent(tick=160, channel=0, data=[55, 0]),
   midi.NoteOnEvent(tick=0, channel=0, data=[62, 34]),
   midi.NoteOnEvent(tick=40, channel=0, data=[47, 0]),
   midi.NoteOnEvent(tick=0, channel=0, data=[45, 40]),
   midi.NoteOnEvent(tick=120, channel=0, data=[45, 0]),
   midi.NoteOnEvent(tick=0, channel=0, data=[62, 0]),
   midi.NoteOnEvent(tick=0, channel=0, data=[43, 31]),
   midi.NoteOnEvent(tick=82, channel=0, data=[57, 25]),
   midi.NoteOnEvent(tick=160, channel=0, data=[62, 25]),
   midi.NoteOnEvent(tick=160, channel=0, data=[62, 0]),
   midi.NoteOnEvent(tick=0, channel=0, data=[50, 0]),
   midi.NoteOnEvent(tick=0, channel=0, data=[43, 0]),
   midi.NoteOnEvent(tick=0, channel=0, data=[57, 0]),
   midi.NoteOnEvent(tick=1, channel=0, data=[59, 35]),
   midi.NoteOnEvent(tick=0, channel=0, data=[55, 35]),
   midi.NoteOnEvent(tick=96, channel=0, data=[62, 37]),
   midi.NoteOnEvent(tick=11, channel=0, data=[59, 0]),
   midi.NoteOnEvent(tick=70, channel=0, data=[55, 0]),
   midi.NoteOnEvent(tick=79, channel=0, data=[67, 32]),
   midi.NoteOnEvent(tick=10, channel=0, data=[62, 0]),
   midi.NoteOnEvent(tick=150, channel=0, data=[67, 0]),
   midi.NoteOnEvent(tick=0, channel=0, data=[49, 35]),
   midi.NoteOnEvent(tick=0, channel=0, data=[58, 35]),
   midi.NoteOnEvent(tick=89, channel=0, data=[64, 38]),
   midi.NoteOnEvent(tick=10, channel=0, data=[58, 0]),
   midi.NoteOnEvent(tick=70, channel=0, data=[49, 0]),
   midi.NoteOnEvent(tick=80, channel=0, data=[67, 32]),
   midi.NoteOnEvent(tick=10, channel=0, data=[64, 0]),
   midi.NoteOnEvent(tick=150, channel=0, data=[67, 0]),
   midi.NoteOnEvent(tick=0, channel=0, data=[50, 35]),
   midi.NoteOnEvent(tick=0, channel=0, data=[57, 35]),
   midi.NoteOnEvent(tick=114, channel=0, data=[62, 37]),
   midi.NoteOnEvent(tick=10, channel=0, data=[57, 0]),
   midi.NoteOnEvent(tick=70, channel=0, data=[50, 0]),
   midi.NoteOnEvent(tick=80, channel=0, data=[66, 29]),
   midi.NoteOnEvent(tick=10, channel=0, data=[62, 0]),
   midi.NoteOnEvent(tick=150, channel=0, data=[66, 0]),
   midi.NoteOnEvent(tick=0, channel=0, data=[54, 27]),
   midi.NoteOnEvent(tick=0, channel=0, data=[60, 27]),
   midi.NoteOnEvent(tick=93, channel=0, data=[62, 28]),
   midi.NoteOnEvent(tick=10, channel=0, data=[60, 0]),
   midi.NoteOnEvent(tick=70, channel=0, data=[54, 0]),
   midi.NoteOnEvent(tick=80, channel=0, data=[69, 25]),
   midi.NoteOnEvent(tick=10, channel=0, data=[62, 0]),
   midi.NoteOnEvent(tick=150, channel=0, data=[69, 0]),
   midi.NoteOnEvent(tick=1, channel=0, data=[59, 35]),
   midi.NoteOnEvent(tick=0, channel=0, data=[55, 35]),
   midi.NoteOnEvent(tick=107, channel=0, data=[62, 37]),
   midi.NoteOnEvent(tick=11, channel=0, data=[59, 0]),
   midi.NoteOnEvent(tick=70, channel=0, data=[55, 0]),
   midi.NoteOnEvent(tick=79, channel=0, data=[67, 32]),
   midi.NoteOnEvent(tick=10, channel=0, data=[62, 0]),
   midi.NoteOnEvent(tick=150, channel=0, data=[67, 0]),
   midi.NoteOnEvent(tick=0, channel=0, data=[49, 35]),
   midi.NoteOnEvent(tick=0, channel=0, data=[58, 35]),
   midi.NoteOnEvent(tick=104, channel=0, data=[64, 38]),
   midi.NoteOnEvent(tick=10, channel=0, data=[58, 0]),
   midi.NoteOnEvent(tick=70, channel=0, data=[49, 0]),
   midi.NoteOnEvent(tick=80, channel=0, data=[67, 32]),
   midi.NoteOnEvent(tick=10, channel=0, data=[64, 0]),
   midi.NoteOnEvent(tick=150, channel=0, data=[67, 0]),
   midi.NoteOnEvent(tick=0, channel=0, data=[50, 35]),
   midi.NoteOnEvent(tick=0, channel=0, data=[57, 35]),
   midi.NoteOnEvent(tick=111, channel=0, data=[62, 37]),
   midi.NoteOnEvent(tick=10, channel=0, data=[57, 0]),
   midi.NoteOnEvent(tick=70, channel=0, data=[50, 0]),
   midi.NoteOnEvent(tick=80, channel=0, data=[66, 27]),
   midi.NoteOnEvent(tick=10, channel=0, data=[62, 0]),
   midi.NoteOnEvent(tick=150, channel=0, data=[66, 0]),
   midi.NoteOnEvent(tick=0, channel=0, data=[54, 26]),
   midi.NoteOnEvent(tick=0, channel=0, data=[60, 26]),
   midi.NoteOnEvent(tick=100, channel=0, data=[62, 28]),
   midi.NoteOnEvent(tick=10, channel=0, data=[60, 0]),
   midi.NoteOnEvent(tick=70, channel=0, data=[54, 0]),
   midi.NoteOnEvent(tick=80, channel=0, data=[69, 27]),
   midi.NoteOnEvent(tick=10, channel=0, data=[62, 0]),
   midi.NoteOnEvent(tick=150, channel=0, data=[69, 0]),
   midi.NoteOnEvent(tick=1, channel=0, data=[59, 35]),
   midi.NoteOnEvent(tick=0, channel=0, data=[55, 35]),
   midi.NoteOnEvent(tick=96, channel=0, data=[62, 37]),
   midi.NoteOnEvent(tick=11, channel=0, data=[59, 0]),
   midi.NoteOnEvent(tick=70, channel=0, data=[55, 0]),
   midi.NoteOnEvent(tick=79, channel=0, data=[67, 37]),
   midi.NoteOnEvent(tick=10, channel=0, data=[62, 0]),
   midi.NoteOnEvent(tick=150, channel=0, data=[67, 0]),
   midi.NoteOnEvent(tick=0, channel=0, data=[47, 38]),
   midi.NoteOnEvent(tick=0, channel=0, data=[55, 38]),
   midi.NoteOnEvent(tick=160, channel=0, data=[62, 41]),
   midi.NoteOnEvent(tick=80, channel=0, data=[47, 0]),
   midi.NoteOnEvent(tick=80, channel=0, data=[67, 41]),
   midi.NoteOnEvent(tick=10, channel=0, data=[62, 0]),
   midi.NoteOnEvent(tick=150, channel=0, data=[67, 0]),
   midi.NoteOnEvent(tick=0, channel=0, data=[48, 38]),
   midi.NoteOnEvent(tick=121, channel=0, data=[55, 0]),
   midi.NoteOnEvent(tick=0, channel=0, data=[64, 40]),
   midi.NoteOnEvent(tick=80, channel=0, data=[48, 0]),
   midi.NoteOnEvent(tick=80, channel=0, data=[67, 40]),
   midi.NoteOnEvent(tick=10, channel=0, data=[64, 0]),
   midi.NoteOnEvent(tick=150, channel=0, data=[67, 0]),
   midi.NoteOnEvent(tick=0, channel=0, data=[52, 38]),
   midi.NoteOnEvent(tick=0, channel=0, data=[55, 38]),
   midi.NoteOnEvent(tick=96, channel=0, data=[60, 40]),
   midi.NoteOnEvent(tick=10, channel=0, data=[55, 0]),
   midi.NoteOnEvent(tick=70, channel=0, data=[52, 0]),
   midi.NoteOnEvent(tick=80, channel=0, data=[67, 40]),
   midi.NoteOnEvent(tick=10, channel=0, data=[60, 0]),
   midi.NoteOnEvent(tick=150, channel=0, data=[67, 0]),
   midi.NoteOnEvent(tick=0, channel=0, data=[50, 28]),
   midi.NoteOnEvent(tick=0, channel=0, data=[55, 28]),
   midi.NoteOnEvent(tick=121, channel=0, data=[60, 32]),
   midi.NoteOnEvent(tick=10, channel=0, data=[55, 0]),
   midi.NoteOnEvent(tick=70, channel=0, data=[50, 0]),
   midi.NoteOnEvent(tick=80, channel=0, data=[67, 29]),
   midi.NoteOnEvent(tick=10, channel=0, data=[60, 0]),
   midi.NoteOnEvent(tick=150, channel=0, data=[67, 0]),
   midi.NoteOnEvent(tick=0, channel=0, data=[50, 26]),
   midi.NoteOnEvent(tick=0, channel=0, data=[54, 26]),
   midi.NoteOnEvent(tick=100, channel=0, data=[60, 31]),
   midi.NoteOnEvent(tick=10, channel=0, data=[54, 0]),
   midi.NoteOnEvent(tick=70, channel=0, data=[50, 0]),
   midi.NoteOnEvent(tick=80, channel=0, data=[69, 26]),
   midi.NoteOnEvent(tick=10, channel=0, data=[60, 0]),
   midi.NoteOnEvent(tick=150, channel=0, data=[69, 0]),
   midi.NoteOnEvent(tick=0, channel=0, data=[43, 24]),
   midi.NoteOnEvent(tick=0, channel=0, data=[50, 24]),
   midi.NoteOnEvent(tick=107, channel=0, data=[59, 28]),
   midi.NoteOnEvent(tick=160, channel=0, data=[67, 25]),
   midi.NoteOnEvent(tick=160, channel=0, data=[67, 0]),
   midi.NoteOnEvent(tick=160, channel=0, data=[59, 0]),
   midi.NoteOnEvent(tick=0, channel=0, data=[59, 26]),
   midi.NoteOnEvent(tick=160, channel=0, data=[59, 0]),
   midi.NoteOnEvent(tick=0, channel=0, data=[67, 21]),
   midi.NoteOnEvent(tick=158, channel=0, data=[67, 0]),
   midi.NoteOnEvent(tick=2, channel=0, data=[50, 0]),
   midi.NoteOnEvent(tick=0, channel=0, data=[43, 0]),
   midi.NoteOnEvent(tick=0, channel=0, data=[52, 36]),
   midi.NoteOnEvent(tick=82, channel=0, data=[59, 36]),
   midi.NoteOnEvent(tick=160, channel=0, data=[64, 36]),
   midi.NoteOnEvent(tick=10, channel=0, data=[59, 0]),
   midi.NoteOnEvent(tick=150, channel=0, data=[64, 0]),
   midi.NoteOnEvent(tick=0, channel=0, data=[52, 0]),
   midi.NoteOnEvent(tick=0, channel=0, data=[45, 36]),
   midi.NoteOnEvent(tick=82, channel=0, data=[57, 36]),
   midi.NoteOnEvent(tick=160, channel=0, data=[64, 36]),
   midi.NoteOnEvent(tick=10, channel=0, data=[57, 0]),
   midi.NoteOnEvent(tick=150, channel=0, data=[64, 0]),
   midi.NoteOnEvent(tick=0, channel=0, data=[45, 0]),
   midi.NoteOnEvent(tick=0, channel=0, data=[50, 36]),
   midi.NoteOnEvent(tick=107, channel=0, data=[57, 41]),
   midi.NoteOnEvent(tick=160, channel=0, data=[62, 40]),
   midi.NoteOnEvent(tick=10, channel=0, data=[57, 0]),
   midi.NoteOnEvent(tick=30, channel=0, data=[50, 0]),
   midi.NoteOnEvent(tick=0, channel=0, data=[48, 48]),
   midi.NoteOnEvent(tick=120, channel=0, data=[48, 0]),
   midi.NoteOnEvent(tick=0, channel=0, data=[62, 0]),
   midi.NoteOnEvent(tick=0, channel=0, data=[47, 35]),
   midi.NoteOnEvent(tick=68, channel=0, data=[55, 35]),
   midi.NoteOnEvent(tick=160, channel=0, data=[62, 35]),
   midi.NoteOnEvent(tick=10, channel=0, data=[55, 0]),
   midi.NoteOnEvent(tick=150, channel=0, data=[62, 0]),
   midi.NoteOnEvent(tick=0, channel=0, data=[47, 0]),
   midi.NoteOnEvent(tick=0, channel=0, data=[48, 27]),
   midi.NoteOnEvent(tick=89, channel=0, data=[55, 27]),
   midi.NoteOnEvent(tick=160, channel=0, data=[60, 27]),
   midi.NoteOnEvent(tick=10, channel=0, data=[55, 0]),
   midi.NoteOnEvent(tick=150, channel=0, data=[60, 0]),
   midi.NoteOnEvent(tick=0, channel=0, data=[48, 0]),
   midi.NoteOnEvent(tick=0, channel=0, data=[42, 27]),
   midi.NoteOnEvent(tick=54, channel=0, data=[54, 27]),
   midi.NoteOnEvent(tick=160, channel=0, data=[60, 27]),
   midi.NoteOnEvent(tick=10, channel=0, data=[54, 0]),
   midi.NoteOnEvent(tick=150, channel=0, data=[60, 0]),
   midi.NoteOnEvent(tick=0, channel=0, data=[42, 0]),
   midi.NoteOnEvent(tick=0, channel=0, data=[47, 27]),
   midi.NoteOnEvent(tick=89, channel=0, data=[54, 33]),
   midi.NoteOnEvent(tick=160, channel=0, data=[59, 34]),
   midi.NoteOnEvent(tick=10, channel=0, data=[54, 0]),
   midi.NoteOnEvent(tick=30, channel=0, data=[47, 0]),
   midi.NoteOnEvent(tick=0, channel=0, data=[45, 39]),
   midi.NoteOnEvent(tick=120, channel=0, data=[45, 0]),
   midi.NoteOnEvent(tick=0, channel=0, data=[59, 0]),
   midi.NoteOnEvent(tick=0, channel=0, data=[43, 27]),
   midi.NoteOnEvent(tick=54, channel=0, data=[55, 27]),
   midi.NoteOnEvent(tick=160, channel=0, data=[59, 27]),
   midi.NoteOnEvent(tick=10, channel=0, data=[55, 0]),
   midi.NoteOnEvent(tick=150, channel=0, data=[59, 0]),
   midi.NoteOnEvent(tick=0, channel=0, data=[43, 0]),
   midi.NoteOnEvent(tick=0, channel=0, data=[48, 31]),
   midi.NoteOnEvent(tick=33, channel=0, data=[55, 31]),
   midi.NoteOnEvent(tick=160, channel=0, data=[60, 31]),
   midi.NoteOnEvent(tick=10, channel=0, data=[55, 0]),
   midi.NoteOnEvent(tick=150, channel=0, data=[60, 0]),
   midi.NoteOnEvent(tick=0, channel=0, data=[48, 0]),
   midi.NoteOnEvent(tick=0, channel=0, data=[48, 31]),
   midi.NoteOnEvent(tick=0, channel=0, data=[50, 31]),
   midi.NoteOnEvent(tick=68, channel=0, data=[57, 31]),
   midi.NoteOnEvent(tick=10, channel=0, data=[50, 0]),
   midi.NoteOnEvent(tick=150, channel=0, data=[62, 31]),
   midi.NoteOnEvent(tick=10, channel=0, data=[57, 0]),
   midi.NoteOnEvent(tick=150, channel=0, data=[62, 0]),
   midi.NoteOnEvent(tick=0, channel=0, data=[48, 0]),
   midi.NoteOnEvent(tick=0, channel=0, data=[47, 31]),
   midi.NoteOnEvent(tick=0, channel=0, data=[50, 31]),
   midi.NoteOnEvent(tick=100, channel=0, data=[55, 34]),
   midi.NoteOnEvent(tick=160, channel=0, data=[55, 0]),
   midi.NoteOnEvent(tick=0, channel=0, data=[62, 34]),
   midi.NoteOnEvent(tick=40, channel=0, data=[47, 0]),
   midi.NoteOnEvent(tick=0, channel=0, data=[45, 39]),
   midi.NoteOnEvent(tick=120, channel=0, data=[45, 0]),
   midi.NoteOnEvent(tick=0, channel=0, data=[62, 0]),
   midi.NoteOnEvent(tick=0, channel=0, data=[43, 31]),
   midi.NoteOnEvent(tick=64, channel=0, data=[57, 25]),
   midi.NoteOnEvent(tick=160, channel=0, data=[62, 25]),
   midi.NoteOnEvent(tick=160, channel=0, data=[62, 0]),
   midi.NoteOnEvent(tick=0, channel=0, data=[50, 0]),
   midi.NoteOnEvent(tick=0, channel=0, data=[43, 0]),
   midi.NoteOnEvent(tick=0, channel=0, data=[57, 0]),
   midi.NoteOnEvent(tick=1, channel=0, data=[59, 35]),
   midi.NoteOnEvent(tick=0, channel=0, data=[55, 35]),
   midi.NoteOnEvent(tick=61, channel=0, data=[62, 37]),
   midi.NoteOnEvent(tick=11, channel=0, data=[59, 0]),
   midi.NoteOnEvent(tick=70, channel=0, data=[55, 0]),
   midi.NoteOnEvent(tick=79, channel=0, data=[67, 32]),
   midi.NoteOnEvent(tick=10, channel=0, data=[62, 0]),
   midi.NoteOnEvent(tick=150, channel=0, data=[67, 0]),
   midi.NoteOnEvent(tick=0, channel=0, data=[49, 35]),
   midi.NoteOnEvent(tick=0, channel=0, data=[58, 35]),
   midi.NoteOnEvent(tick=100, channel=0, data=[64, 38]),
   midi.NoteOnEvent(tick=10, channel=0, data=[58, 0]),
   midi.NoteOnEvent(tick=70, channel=0, data=[49, 0]),
   midi.NoteOnEvent(tick=80, channel=0, data=[67, 32]),
   midi.NoteOnEvent(tick=10, channel=0, data=[64, 0]),
   midi.NoteOnEvent(tick=150, channel=0, data=[67, 0]),
   midi.NoteOnEvent(tick=0, channel=0, data=[50, 35]),
   midi.NoteOnEvent(tick=0, channel=0, data=[57, 35]),
   midi.NoteOnEvent(tick=111, channel=0, data=[62, 37]),
   midi.NoteOnEvent(tick=10, channel=0, data=[57, 0]),
   midi.NoteOnEvent(tick=70, channel=0, data=[50, 0]),
   midi.NoteOnEvent(tick=80, channel=0, data=[66, 27]),
   midi.NoteOnEvent(tick=10, channel=0, data=[62, 0]),
   midi.NoteOnEvent(tick=150, channel=0, data=[66, 0]),
   midi.NoteOnEvent(tick=0, channel=0, data=[54, 26]),
   midi.NoteOnEvent(tick=0, channel=0, data=[60, 26]),
   midi.NoteOnEvent(tick=100, channel=0, data=[62, 28]),
   midi.NoteOnEvent(tick=10, channel=0, data=[60, 0]),
   midi.NoteOnEvent(tick=70, channel=0, data=[54, 0]),
   midi.NoteOnEvent(tick=80, channel=0, data=[69, 27]),
   midi.NoteOnEvent(tick=10, channel=0, data=[62, 0]),
   midi.NoteOnEvent(tick=150, channel=0, data=[69, 0]),
   midi.NoteOnEvent(tick=1, channel=0, data=[59, 35]),
   midi.NoteOnEvent(tick=0, channel=0, data=[55, 35]),
   midi.NoteOnEvent(tick=89, channel=0, data=[62, 37]),
   midi.NoteOnEvent(tick=11, channel=0, data=[59, 0]),
   midi.NoteOnEvent(tick=70, channel=0, data=[55, 0]),
   midi.NoteOnEvent(tick=79, channel=0, data=[67, 32]),
   midi.NoteOnEvent(tick=10, channel=0, data=[62, 0]),
   midi.NoteOnEvent(tick=150, channel=0, data=[67, 0]),
   midi.NoteOnEvent(tick=0, channel=0, data=[49, 35]),
   midi.NoteOnEvent(tick=0, channel=0, data=[58, 35]),
   midi.NoteOnEvent(tick=107, channel=0, data=[64, 38]),
   midi.NoteOnEvent(tick=10, channel=0, data=[58, 0]),
   midi.NoteOnEvent(tick=70, channel=0, data=[49, 0]),
   midi.NoteOnEvent(tick=80, channel=0, data=[67, 32]),
   midi.NoteOnEvent(tick=10, channel=0, data=[64, 0]),
   midi.NoteOnEvent(tick=150, channel=0, data=[67, 0]),
   midi.NoteOnEvent(tick=0, channel=0, data=[50, 35]),
   midi.NoteOnEvent(tick=0, channel=0, data=[57, 35]),
   midi.NoteOnEvent(tick=107, channel=0, data=[62, 37]),
   midi.NoteOnEvent(tick=10, channel=0, data=[57, 0]),
   midi.NoteOnEvent(tick=70, channel=0, data=[50, 0]),
   midi.NoteOnEvent(tick=80, channel=0, data=[66, 28]),
   midi.NoteOnEvent(tick=10, channel=0, data=[62, 0]),
   midi.NoteOnEvent(tick=150, channel=0, data=[66, 0]),
   midi.NoteOnEvent(tick=0, channel=0, data=[54, 27]),
   midi.NoteOnEvent(tick=0, channel=0, data=[60, 27]),
   midi.NoteOnEvent(tick=100, channel=0, data=[62, 28]),
   midi.NoteOnEvent(tick=10, channel=0, data=[60, 0]),
   midi.NoteOnEvent(tick=70, channel=0, data=[54, 0]),
   midi.NoteOnEvent(tick=80, channel=0, data=[69, 26]),
   midi.NoteOnEvent(tick=10, channel=0, data=[62, 0]),
   midi.NoteOnEvent(tick=150, channel=0, data=[69, 0]),
   midi.NoteOnEvent(tick=1, channel=0, data=[59, 35]),
   midi.NoteOnEvent(tick=0, channel=0, data=[55, 35]),
   midi.NoteOnEvent(tick=33, channel=0, data=[62, 37]),
   midi.NoteOnEvent(tick=11, channel=0, data=[59, 0]),
   midi.NoteOnEvent(tick=70, channel=0, data=[55, 0]),
   midi.NoteOnEvent(tick=79, channel=0, data=[67, 37]),
   midi.NoteOnEvent(tick=10, channel=0, data=[62, 0]),
   midi.NoteOnEvent(tick=150, channel=0, data=[67, 0]),
   midi.NoteOnEvent(tick=0, channel=0, data=[47, 38]),
   midi.NoteOnEvent(tick=0, channel=0, data=[55, 38]),
   midi.NoteOnEvent(tick=160, channel=0, data=[62, 41]),
   midi.NoteOnEvent(tick=80, channel=0, data=[47, 0]),
   midi.NoteOnEvent(tick=80, channel=0, data=[67, 41]),
   midi.NoteOnEvent(tick=10, channel=0, data=[62, 0]),
   midi.NoteOnEvent(tick=150, channel=0, data=[67, 0]),
   midi.NoteOnEvent(tick=0, channel=0, data=[48, 38]),
   midi.NoteOnEvent(tick=107, channel=0, data=[55, 0]),
   midi.NoteOnEvent(tick=0, channel=0, data=[64, 40]),
   midi.NoteOnEvent(tick=80, channel=0, data=[48, 0]),
   midi.NoteOnEvent(tick=80, channel=0, data=[67, 40]),
   midi.NoteOnEvent(tick=10, channel=0, data=[64, 0]),
   midi.NoteOnEvent(tick=150, channel=0, data=[67, 0]),
   midi.NoteOnEvent(tick=0, channel=0, data=[52, 38]),
   midi.NoteOnEvent(tick=0, channel=0, data=[55, 38]),
   midi.NoteOnEvent(tick=104, channel=0, data=[60, 40]),
   midi.NoteOnEvent(tick=10, channel=0, data=[55, 0]),
   midi.NoteOnEvent(tick=70, channel=0, data=[52, 0]),
   midi.NoteOnEvent(tick=80, channel=0, data=[67, 40]),
   midi.NoteOnEvent(tick=10, channel=0, data=[60, 0]),
   midi.NoteOnEvent(tick=150, channel=0, data=[67, 0]),
   midi.NoteOnEvent(tick=0, channel=0, data=[50, 28]),
   midi.NoteOnEvent(tick=0, channel=0, data=[55, 28]),
   midi.NoteOnEvent(tick=114, channel=0, data=[60, 32]),
   midi.NoteOnEvent(tick=10, channel=0, data=[55, 0]),
   midi.NoteOnEvent(tick=70, channel=0, data=[50, 0]),
   midi.NoteOnEvent(tick=80, channel=0, data=[67, 29]),
   midi.NoteOnEvent(tick=10, channel=0, data=[60, 0]),
   midi.NoteOnEvent(tick=150, channel=0, data=[67, 0]),
   midi.NoteOnEvent(tick=0, channel=0, data=[50, 26]),
   midi.NoteOnEvent(tick=0, channel=0, data=[54, 26]),
   midi.NoteOnEvent(tick=104, channel=0, data=[60, 31]),
   midi.NoteOnEvent(tick=10, channel=0, data=[54, 0]),
   midi.NoteOnEvent(tick=70, channel=0, data=[50, 0]),
   midi.NoteOnEvent(tick=80, channel=0, data=[69, 26]),
   midi.NoteOnEvent(tick=10, channel=0, data=[60, 0]),
   midi.NoteOnEvent(tick=150, channel=0, data=[69, 0]),
   midi.NoteOnEvent(tick=0, channel=0, data=[43, 24]),
   midi.NoteOnEvent(tick=0, channel=0, data=[50, 24]),
   midi.NoteOnEvent(tick=104, channel=0, data=[59, 28]),
   midi.NoteOnEvent(tick=160, channel=0, data=[67, 25]),
   midi.NoteOnEvent(tick=160, channel=0, data=[67, 0]),
   midi.NoteOnEvent(tick=160, channel=0, data=[59, 0]),
   midi.NoteOnEvent(tick=0, channel=0, data=[59, 24]),
   midi.NoteOnEvent(tick=160, channel=0, data=[67, 19]),
   midi.NoteOnEvent(tick=10, channel=0, data=[59, 0]),
   midi.NoteOnEvent(tick=150, channel=0, data=[43, 0]),
   midi.NoteOnEvent(tick=0, channel=0, data=[50, 0]),
   midi.NoteOnEvent(tick=0, channel=0, data=[67, 0]),
   midi.EndOfTrackEvent(tick=0, data=[])])])
midi.write_midifile("creationMidi.mid", pattern)