import midi
pattern=midi.Pattern(format=1, resolution=480, tracks=\
[midi.Track(\
[   midi.NoteOnEvent(tick=1, channel=0, data=[62, 44]),
   midi.NoteOnEvent(tick=0, channel=0, data=[66, 44]),
   midi.NoteOnEvent(tick=959, channel=0, data=[62, 0]),
   midi.NoteOnEvent(tick=0, channel=0, data=[62, 46]),
   midi.NoteOnEvent(tick=0, channel=0, data=[67, 46]),
   midi.NoteOnEvent(tick=1, channel=0, data=[66, 0]),
   midi.NoteOnEvent(tick=959, channel=0, data=[67, 0]),
   midi.NoteOnEvent(tick=0, channel=0, data=[62, 0]),
   midi.NoteOnEvent(tick=0, channel=0, data=[62, 54]),
   midi.NoteOnEvent(tick=0, channel=0, data=[72, 54]),
   midi.NoteOnEvent(tick=1440, channel=0, data=[72, 0]),
   midi.NoteOnEvent(tick=0, channel=0, data=[62, 0]),
   midi.NoteOnEvent(tick=0, channel=0, data=[62, 39]),
   midi.NoteOnEvent(tick=0, channel=0, data=[71, 39]),
   midi.NoteOnEvent(tick=480, channel=0, data=[71, 0]),
   midi.NoteOnEvent(tick=0, channel=0, data=[62, 0]),
   midi.NoteOnEvent(tick=0, channel=0, data=[69, 40]),
   midi.NoteOnEvent(tick=0, channel=0, data=[64, 40]),
   midi.NoteOnEvent(tick=600, channel=0, data=[69, 0]),
   midi.NoteOnEvent(tick=0, channel=0, data=[71, 32]),
   midi.NoteOnEvent(tick=90, channel=0, data=[71, 0]),
   midi.NoteOnEvent(tick=0, channel=0, data=[69, 32]),
   midi.NoteOnEvent(tick=90, channel=0, data=[69, 0]),
   midi.NoteOnEvent(tick=0, channel=0, data=[67, 32]),
   midi.NoteOnEvent(tick=90, channel=0, data=[67, 0]),
   midi.NoteOnEvent(tick=0, channel=0, data=[69, 32]),
   midi.NoteOnEvent(tick=90, channel=0, data=[69, 0]),
   midi.NoteOnEvent(tick=0, channel=0, data=[64, 0]),
   midi.NoteOnEvent(tick=0, channel=0, data=[71, 39]),
   midi.NoteOnEvent(tick=0, channel=0, data=[64, 39]),
   midi.NoteOnEvent(tick=720, channel=0, data=[71, 0]),
   midi.NoteOnEvent(tick=0, channel=0, data=[67, 32]),
   midi.NoteOnEvent(tick=240, channel=0, data=[67, 0]),
   midi.NoteOnEvent(tick=0, channel=0, data=[64, 0]),
   midi.NoteOnEvent(tick=0, channel=0, data=[62, 38]),
   midi.NoteOnEvent(tick=0, channel=0, data=[71, 38]),
   midi.NoteOnEvent(tick=960, channel=0, data=[71, 0]),
   midi.NoteOnEvent(tick=0, channel=0, data=[69, 33]),
   midi.NoteOnEvent(tick=960, channel=0, data=[69, 0]),
   midi.NoteOnEvent(tick=0, channel=0, data=[62, 0]),
   midi.NoteOnEvent(tick=0, channel=0, data=[68, 44]),
   midi.NoteOnEvent(tick=0, channel=0, data=[65, 44]),
   midi.NoteOnEvent(tick=960, channel=0, data=[65, 0]),
   midi.NoteOnEvent(tick=0, channel=0, data=[68, 0]),
   midi.NoteOnEvent(tick=0, channel=0, data=[64, 50]),
   midi.NoteOnEvent(tick=0, channel=0, data=[69, 50]),
   midi.NoteOnEvent(tick=960, channel=0, data=[69, 0]),
   midi.NoteOnEvent(tick=0, channel=0, data=[64, 0]),
   midi.NoteOnEvent(tick=0, channel=0, data=[65, 57]),
   midi.NoteOnEvent(tick=0, channel=0, data=[74, 57]),
   midi.NoteOnEvent(tick=900, channel=0, data=[64, 43]),
   midi.NoteOnEvent(tick=60, channel=0, data=[74, 0]),
   midi.NoteOnEvent(tick=0, channel=0, data=[65, 0]),
   midi.NoteOnEvent(tick=0, channel=0, data=[72, 56]),
   midi.NoteOnEvent(tick=960, channel=0, data=[72, 0]),
   midi.NoteOnEvent(tick=0, channel=0, data=[64, 0]),
   midi.NoteOnEvent(tick=480, channel=0, data=[65, 35]),
   midi.NoteOnEvent(tick=0, channel=0, data=[62, 35]),
   midi.NoteOnEvent(tick=0, channel=0, data=[71, 28]),
   midi.NoteOnEvent(tick=1200, channel=0, data=[71, 0]),
   midi.NoteOnEvent(tick=0, channel=0, data=[62, 0]),
   midi.NoteOnEvent(tick=0, channel=0, data=[65, 0]),
   midi.NoteOnEvent(tick=120, channel=0, data=[59, 32]),
   midi.NoteOnEvent(tick=0, channel=0, data=[64, 32]),
   midi.NoteOnEvent(tick=0, channel=0, data=[68, 25]),
   midi.NoteOnEvent(tick=120, channel=0, data=[68, 0]),
   midi.NoteOnEvent(tick=0, channel=0, data=[64, 0]),
   midi.NoteOnEvent(tick=0, channel=0, data=[59, 0]),
   midi.NoteOnEvent(tick=0, channel=0, data=[59, 32]),
   midi.NoteOnEvent(tick=0, channel=0, data=[64, 32]),
   midi.NoteOnEvent(tick=0, channel=0, data=[68, 25]),
   midi.NoteOnEvent(tick=960, channel=0, data=[68, 0]),
   midi.NoteOnEvent(tick=0, channel=0, data=[59, 0]),
   midi.NoteOnEvent(tick=0, channel=0, data=[60, 30]),
   midi.NoteOnEvent(tick=0, channel=0, data=[69, 24]),
   midi.NoteOnEvent(tick=480, channel=0, data=[69, 0]),
   midi.NoteOnEvent(tick=0, channel=0, data=[60, 0]),
   midi.NoteOnEvent(tick=0, channel=0, data=[64, 0]),
   midi.NoteOnEvent(tick=480, channel=0, data=[66, 36]),
   midi.NoteOnEvent(tick=240, channel=0, data=[62, 29]),
   midi.NoteOnEvent(tick=240, channel=0, data=[62, 0]),
   midi.NoteOnEvent(tick=480, channel=0, data=[66, 0]),
   midi.NoteOnEvent(tick=0, channel=0, data=[67, 36]),
   midi.NoteOnEvent(tick=240, channel=0, data=[62, 29]),
   midi.NoteOnEvent(tick=240, channel=0, data=[62, 0]),
   midi.NoteOnEvent(tick=480, channel=0, data=[67, 0]),
   midi.NoteOnEvent(tick=0, channel=0, data=[72, 32]),
   midi.NoteOnEvent(tick=240, channel=0, data=[63, 26]),
   midi.NoteOnEvent(tick=1680, channel=0, data=[63, 0]),
   midi.NoteOnEvent(tick=0, channel=0, data=[72, 0]),
   midi.NoteOnEvent(tick=0, channel=0, data=[63, 33]),
   midi.NoteOnEvent(tick=240, channel=0, data=[60, 28]),
   midi.NoteOnEvent(tick=240, channel=0, data=[60, 0]),
   midi.NoteOnEvent(tick=480, channel=0, data=[63, 0]),
   midi.NoteOnEvent(tick=0, channel=0, data=[64, 33]),
   midi.NoteOnEvent(tick=240, channel=0, data=[59, 28]),
   midi.NoteOnEvent(tick=240, channel=0, data=[59, 0]),
   midi.NoteOnEvent(tick=480, channel=0, data=[64, 0]),
   midi.NoteOnEvent(tick=0, channel=0, data=[69, 31]),
   midi.NoteOnEvent(tick=240, channel=0, data=[60, 26]),
   midi.NoteOnEvent(tick=1200, channel=0, data=[69, 0]),
   midi.NoteOnEvent(tick=160, channel=0, data=[69, 32]),
   midi.NoteOnEvent(tick=160, channel=0, data=[71, 35]),
   midi.NoteOnEvent(tick=10, channel=0, data=[69, 0]),
   midi.NoteOnEvent(tick=150, channel=0, data=[60, 0]),
   midi.NoteOnEvent(tick=0, channel=0, data=[72, 33]),
   midi.NoteOnEvent(tick=10, channel=0, data=[71, 0]),
   midi.NoteOnEvent(tick=150, channel=0, data=[71, 36]),
   midi.NoteOnEvent(tick=10, channel=0, data=[72, 0]),
   midi.NoteOnEvent(tick=150, channel=0, data=[69, 37]),
   midi.NoteOnEvent(tick=10, channel=0, data=[71, 0]),
   midi.NoteOnEvent(tick=150, channel=0, data=[69, 0]),
   midi.NoteOnEvent(tick=0, channel=0, data=[78, 39]),
   midi.NoteOnEvent(tick=720, channel=0, data=[78, 0]),
   midi.NoteOnEvent(tick=0, channel=0, data=[76, 32]),
   midi.NoteOnEvent(tick=240, channel=0, data=[76, 0]),
   midi.NoteOnEvent(tick=0, channel=0, data=[76, 32]),
   midi.NoteOnEvent(tick=480, channel=0, data=[76, 0]),
   midi.NoteOnEvent(tick=0, channel=0, data=[75, 28]),
   midi.NoteOnEvent(tick=480, channel=0, data=[75, 0]),
   midi.NoteOnEvent(tick=0, channel=0, data=[75, 37]),
   midi.NoteOnEvent(tick=80, channel=0, data=[75, 0]),
   midi.NoteOnEvent(tick=0, channel=0, data=[75, 39]),
   midi.NoteOnEvent(tick=80, channel=0, data=[75, 0]),
   midi.NoteOnEvent(tick=0, channel=0, data=[76, 40]),
   midi.NoteOnEvent(tick=80, channel=0, data=[76, 0]),
   midi.NoteOnEvent(tick=0, channel=0, data=[75, 40]),
   midi.NoteOnEvent(tick=80, channel=0, data=[75, 0]),
   midi.NoteOnEvent(tick=0, channel=0, data=[74, 42]),
   midi.NoteOnEvent(tick=80, channel=0, data=[74, 0]),
   midi.NoteOnEvent(tick=0, channel=0, data=[75, 44]),
   midi.NoteOnEvent(tick=80, channel=0, data=[75, 0]),
   midi.NoteOnEvent(tick=0, channel=0, data=[76, 45]),
   midi.NoteOnEvent(tick=0, channel=0, data=[58, 45]),
   midi.NoteOnEvent(tick=160, channel=0, data=[64, 35]),
   midi.NoteOnEvent(tick=160, channel=0, data=[66, 37]),
   midi.NoteOnEvent(tick=10, channel=0, data=[64, 0]),
   midi.NoteOnEvent(tick=150, channel=0, data=[67, 40]),
   midi.NoteOnEvent(tick=10, channel=0, data=[66, 0]),
   midi.NoteOnEvent(tick=150, channel=0, data=[66, 39]),
   midi.NoteOnEvent(tick=10, channel=0, data=[67, 0]),
   midi.NoteOnEvent(tick=150, channel=0, data=[64, 41]),
   midi.NoteOnEvent(tick=10, channel=0, data=[66, 0]),
   midi.NoteOnEvent(tick=150, channel=0, data=[64, 0]),
   midi.NoteOnEvent(tick=0, channel=0, data=[73, 44]),
   midi.NoteOnEvent(tick=480, channel=0, data=[58, 0]),
   midi.NoteOnEvent(tick=0, channel=0, data=[59, 39]),
   midi.NoteOnEvent(tick=240, channel=0, data=[73, 0]),
   midi.NoteOnEvent(tick=0, channel=0, data=[71, 42]),
   midi.NoteOnEvent(tick=120, channel=0, data=[61, 37]),
   midi.NoteOnEvent(tick=60, channel=0, data=[64, 37]),
   midi.NoteOnEvent(tick=60, channel=0, data=[71, 0]),
   midi.NoteOnEvent(tick=0, channel=0, data=[76, 0]),
   midi.NoteOnEvent(tick=0, channel=0, data=[59, 0]),
   midi.NoteOnEvent(tick=0, channel=0, data=[76, 44]),
   midi.NoteOnEvent(tick=0, channel=0, data=[71, 44]),
   midi.NoteOnEvent(tick=160, channel=0, data=[76, 0]),
   midi.NoteOnEvent(tick=0, channel=0, data=[76, 42]),
   midi.NoteOnEvent(tick=160, channel=0, data=[78, 45]),
   midi.NoteOnEvent(tick=10, channel=0, data=[76, 0]),
   midi.NoteOnEvent(tick=150, channel=0, data=[71, 0]),
   midi.NoteOnEvent(tick=0, channel=0, data=[79, 48]),
   midi.NoteOnEvent(tick=0, channel=0, data=[70, 39]),
   midi.NoteOnEvent(tick=10, channel=0, data=[78, 0]),
   midi.NoteOnEvent(tick=150, channel=0, data=[78, 46]),
   midi.NoteOnEvent(tick=10, channel=0, data=[79, 0]),
   midi.NoteOnEvent(tick=150, channel=0, data=[76, 45]),
   midi.NoteOnEvent(tick=10, channel=0, data=[78, 0]),
   midi.NoteOnEvent(tick=150, channel=0, data=[64, 0]),
   midi.NoteOnEvent(tick=0, channel=0, data=[76, 0]),
   midi.NoteOnEvent(tick=0, channel=0, data=[61, 0]),
   midi.NoteOnEvent(tick=0, channel=0, data=[91, 38]),
   midi.NoteOnEvent(tick=160, channel=0, data=[91, 0]),
   midi.NoteOnEvent(tick=0, channel=0, data=[88, 37]),
   midi.NoteOnEvent(tick=160, channel=0, data=[88, 0]),
   midi.NoteOnEvent(tick=0, channel=0, data=[85, 36]),
   midi.NoteOnEvent(tick=160, channel=0, data=[85, 0]),
   midi.NoteOnEvent(tick=0, channel=0, data=[82, 32]),
   midi.NoteOnEvent(tick=160, channel=0, data=[82, 0]),
   midi.NoteOnEvent(tick=0, channel=0, data=[79, 29]),
   midi.NoteOnEvent(tick=160, channel=0, data=[79, 0]),
   midi.NoteOnEvent(tick=0, channel=0, data=[76, 26]),
   midi.NoteOnEvent(tick=160, channel=0, data=[76, 0]),
   midi.NoteOnEvent(tick=0, channel=0, data=[70, 0]),
   midi.NoteOnEvent(tick=1, channel=0, data=[66, 36]),
   midi.NoteOnEvent(tick=0, channel=0, data=[62, 36]),
   midi.NoteOnEvent(tick=959, channel=0, data=[62, 42]),
   midi.NoteOnEvent(tick=0, channel=0, data=[67, 42]),
   midi.NoteOnEvent(tick=1, channel=0, data=[62, 0]),
   midi.NoteOnEvent(tick=0, channel=0, data=[66, 0]),
   midi.NoteOnEvent(tick=959, channel=0, data=[62, 0]),
   midi.NoteOnEvent(tick=0, channel=0, data=[67, 0]),
   midi.NoteOnEvent(tick=0, channel=0, data=[62, 52]),
   midi.NoteOnEvent(tick=0, channel=0, data=[72, 52]),
   midi.NoteOnEvent(tick=1440, channel=0, data=[72, 0]),
   midi.NoteOnEvent(tick=0, channel=0, data=[62, 0]),
   midi.NoteOnEvent(tick=0, channel=0, data=[62, 49]),
   midi.NoteOnEvent(tick=0, channel=0, data=[71, 49]),
   midi.NoteOnEvent(tick=480, channel=0, data=[71, 0]),
   midi.NoteOnEvent(tick=0, channel=0, data=[62, 0]),
   midi.NoteOnEvent(tick=0, channel=0, data=[64, 52]),
   midi.NoteOnEvent(tick=0, channel=0, data=[69, 52]),
   midi.NoteOnEvent(tick=600, channel=0, data=[69, 0]),
   midi.NoteOnEvent(tick=0, channel=0, data=[71, 42]),
   midi.NoteOnEvent(tick=90, channel=0, data=[71, 0]),
   midi.NoteOnEvent(tick=0, channel=0, data=[69, 42]),
   midi.NoteOnEvent(tick=90, channel=0, data=[69, 0]),
   midi.NoteOnEvent(tick=0, channel=0, data=[67, 42]),
   midi.NoteOnEvent(tick=90, channel=0, data=[67, 0]),
   midi.NoteOnEvent(tick=0, channel=0, data=[69, 42]),
   midi.NoteOnEvent(tick=90, channel=0, data=[69, 0]),
   midi.NoteOnEvent(tick=0, channel=0, data=[64, 0]),
   midi.NoteOnEvent(tick=0, channel=0, data=[71, 49]),
   midi.NoteOnEvent(tick=0, channel=0, data=[64, 49]),
   midi.NoteOnEvent(tick=720, channel=0, data=[71, 0]),
   midi.NoteOnEvent(tick=0, channel=0, data=[67, 42]),
   midi.NoteOnEvent(tick=240, channel=0, data=[67, 0]),
   midi.NoteOnEvent(tick=0, channel=0, data=[64, 0]),
   midi.NoteOnEvent(tick=0, channel=0, data=[71, 32]),
   midi.NoteOnEvent(tick=0, channel=0, data=[62, 32]),
   midi.NoteOnEvent(tick=960, channel=0, data=[71, 0]),
   midi.NoteOnEvent(tick=0, channel=0, data=[69, 29]),
   midi.NoteOnEvent(tick=960, channel=0, data=[69, 0]),
   midi.NoteOnEvent(tick=0, channel=0, data=[62, 0]),
   midi.NoteOnEvent(tick=0, channel=0, data=[65, 39]),
   midi.NoteOnEvent(tick=0, channel=0, data=[68, 39]),
   midi.NoteOnEvent(tick=960, channel=0, data=[68, 0]),
   midi.NoteOnEvent(tick=0, channel=0, data=[65, 0]),
   midi.NoteOnEvent(tick=0, channel=0, data=[69, 44]),
   midi.NoteOnEvent(tick=0, channel=0, data=[64, 44]),
   midi.NoteOnEvent(tick=960, channel=0, data=[64, 0]),
   midi.NoteOnEvent(tick=0, channel=0, data=[69, 0]),
   midi.NoteOnEvent(tick=0, channel=0, data=[65, 55]),
   midi.NoteOnEvent(tick=0, channel=0, data=[74, 55]),
   midi.NoteOnEvent(tick=900, channel=0, data=[64, 43]),
   midi.NoteOnEvent(tick=60, channel=0, data=[74, 0]),
   midi.NoteOnEvent(tick=0, channel=0, data=[65, 0]),
   midi.NoteOnEvent(tick=0, channel=0, data=[72, 57]),
   midi.NoteOnEvent(tick=960, channel=0, data=[72, 0]),
   midi.NoteOnEvent(tick=0, channel=0, data=[64, 0]),
   midi.NoteOnEvent(tick=480, channel=0, data=[62, 24]),
   midi.NoteOnEvent(tick=0, channel=0, data=[65, 24]),
   midi.NoteOnEvent(tick=0, channel=0, data=[71, 29]),
   midi.NoteOnEvent(tick=1200, channel=0, data=[71, 0]),
   midi.NoteOnEvent(tick=0, channel=0, data=[65, 0]),
   midi.NoteOnEvent(tick=0, channel=0, data=[62, 0]),
   midi.NoteOnEvent(tick=120, channel=0, data=[64, 22]),
   midi.NoteOnEvent(tick=0, channel=0, data=[59, 22]),
   midi.NoteOnEvent(tick=0, channel=0, data=[68, 26]),
   midi.NoteOnEvent(tick=120, channel=0, data=[68, 0]),
   midi.NoteOnEvent(tick=0, channel=0, data=[59, 0]),
   midi.NoteOnEvent(tick=0, channel=0, data=[64, 0]),
   midi.NoteOnEvent(tick=0, channel=0, data=[59, 22]),
   midi.NoteOnEvent(tick=0, channel=0, data=[64, 22]),
   midi.NoteOnEvent(tick=0, channel=0, data=[68, 26]),
   midi.NoteOnEvent(tick=960, channel=0, data=[68, 0]),
   midi.NoteOnEvent(tick=0, channel=0, data=[59, 0]),
   midi.NoteOnEvent(tick=0, channel=0, data=[60, 20]),
   midi.NoteOnEvent(tick=0, channel=0, data=[69, 24]),
   midi.NoteOnEvent(tick=480, channel=0, data=[69, 0]),
   midi.NoteOnEvent(tick=0, channel=0, data=[60, 0]),
   midi.NoteOnEvent(tick=0, channel=0, data=[64, 0]),
   midi.NoteOnEvent(tick=960, channel=0, data=[69, 24]),
   midi.NoteOnEvent(tick=0, channel=0, data=[63, 20]),
   midi.NoteOnEvent(tick=0, channel=0, data=[60, 20]),
   midi.NoteOnEvent(tick=1200, channel=0, data=[60, 0]),
   midi.NoteOnEvent(tick=0, channel=0, data=[63, 0]),
   midi.NoteOnEvent(tick=0, channel=0, data=[69, 0]),
   midi.NoteOnEvent(tick=120, channel=0, data=[66, 22]),
   midi.NoteOnEvent(tick=0, channel=0, data=[62, 18]),
   midi.NoteOnEvent(tick=0, channel=0, data=[57, 18]),
   midi.NoteOnEvent(tick=120, channel=0, data=[57, 0]),
   midi.NoteOnEvent(tick=0, channel=0, data=[62, 0]),
   midi.NoteOnEvent(tick=0, channel=0, data=[66, 0]),
   midi.NoteOnEvent(tick=0, channel=0, data=[66, 22]),
   midi.NoteOnEvent(tick=0, channel=0, data=[62, 18]),
   midi.NoteOnEvent(tick=0, channel=0, data=[57, 18]),
   midi.NoteOnEvent(tick=960, channel=0, data=[57, 0]),
   midi.NoteOnEvent(tick=0, channel=0, data=[66, 0]),
   midi.NoteOnEvent(tick=0, channel=0, data=[55, 16]),
   midi.NoteOnEvent(tick=0, channel=0, data=[67, 19]),
   midi.NoteOnEvent(tick=480, channel=0, data=[67, 0]),
   midi.NoteOnEvent(tick=0, channel=0, data=[55, 0]),
   midi.NoteOnEvent(tick=0, channel=0, data=[62, 0]),
   midi.NoteOnEvent(tick=960, channel=0, data=[60, 16]),
   midi.NoteOnEvent(tick=0, channel=0, data=[55, 16]),
   midi.NoteOnEvent(tick=0, channel=0, data=[64, 20]),
   midi.NoteOnEvent(tick=1440, channel=0, data=[64, 0]),
   midi.NoteOnEvent(tick=0, channel=0, data=[55, 0]),
   midi.NoteOnEvent(tick=0, channel=0, data=[60, 0]),
   midi.NoteOnEvent(tick=480, channel=0, data=[62, 19]),
   midi.NoteOnEvent(tick=0, channel=0, data=[57, 15]),
   midi.NoteOnEvent(tick=0, channel=0, data=[54, 14]),
   midi.NoteOnEvent(tick=1440, channel=0, data=[54, 0]),
   midi.NoteOnEvent(tick=0, channel=0, data=[57, 0]),
   midi.NoteOnEvent(tick=0, channel=0, data=[62, 0]),
   midi.NoteOnEvent(tick=0, channel=0, data=[55, 14]),
   midi.NoteOnEvent(tick=0, channel=0, data=[62, 19]),
   midi.NoteOnEvent(tick=1920, channel=0, data=[62, 0]),
   midi.NoteOnEvent(tick=0, channel=0, data=[55, 0]),
   midi.EndOfTrackEvent(tick=0, data=[])]),
 midi.Track(\
[    midi.NoteOnEvent(tick=1, channel=0, data=[48, 35]),
   midi.NoteOnEvent(tick=0, channel=0, data=[57, 35]),
   midi.NoteOnEvent(tick=959, channel=0, data=[47, 36]),
   midi.NoteOnEvent(tick=0, channel=0, data=[55, 36]),
   midi.NoteOnEvent(tick=1, channel=0, data=[57, 0]),
   midi.NoteOnEvent(tick=0, channel=0, data=[48, 0]),
   midi.NoteOnEvent(tick=640, channel=0, data=[47, 0]),
   midi.NoteOnEvent(tick=0, channel=0, data=[55, 0]),
   midi.NoteOnEvent(tick=0, channel=0, data=[54, 42]),
   midi.NoteOnEvent(tick=0, channel=0, data=[45, 42]),
   midi.NoteOnEvent(tick=1013, channel=0, data=[45, 0]),
   midi.NoteOnEvent(tick=0, channel=0, data=[54, 0]),
   midi.NoteOnEvent(tick=0, channel=0, data=[55, 30]),
   midi.NoteOnEvent(tick=0, channel=0, data=[47, 30]),
   midi.NoteOnEvent(tick=472, channel=0, data=[47, 0]),
   midi.NoteOnEvent(tick=0, channel=0, data=[55, 0]),
   midi.NoteOnEvent(tick=0, channel=0, data=[55, 31]),
   midi.NoteOnEvent(tick=0, channel=0, data=[48, 31]),
   midi.NoteOnEvent(tick=847, channel=0, data=[48, 0]),
   midi.NoteOnEvent(tick=0, channel=0, data=[55, 0]),
   midi.NoteOnEvent(tick=0, channel=0, data=[49, 24]),
   midi.NoteOnEvent(tick=0, channel=0, data=[55, 24]),
   midi.NoteOnEvent(tick=868, channel=0, data=[55, 0]),
   midi.NoteOnEvent(tick=0, channel=0, data=[49, 0]),
   midi.NoteOnEvent(tick=0, channel=0, data=[55, 27]),
   midi.NoteOnEvent(tick=0, channel=0, data=[50, 27]),
   midi.NoteOnEvent(tick=720, channel=0, data=[55, 0]),
   midi.NoteOnEvent(tick=0, channel=0, data=[54, 24]),
   midi.NoteOnEvent(tick=453, channel=0, data=[54, 0]),
   midi.NoteOnEvent(tick=0, channel=0, data=[50, 0]),
   midi.NoteOnEvent(tick=0, channel=0, data=[59, 35]),
   midi.NoteOnEvent(tick=0, channel=0, data=[50, 35]),
   midi.NoteOnEvent(tick=700, channel=0, data=[50, 0]),
   midi.NoteOnEvent(tick=0, channel=0, data=[59, 0]),
   midi.NoteOnEvent(tick=0, channel=0, data=[57, 38]),
   midi.NoteOnEvent(tick=0, channel=0, data=[48, 38]),
   midi.NoteOnEvent(tick=597, channel=0, data=[48, 0]),
   midi.NoteOnEvent(tick=0, channel=0, data=[57, 0]),
   midi.NoteOnEvent(tick=0, channel=0, data=[56, 42]),
   midi.NoteOnEvent(tick=0, channel=0, data=[47, 42]),
   midi.NoteOnEvent(tick=491, channel=0, data=[56, 0]),
   midi.NoteOnEvent(tick=0, channel=0, data=[57, 40]),
   midi.NoteOnEvent(tick=90, channel=0, data=[57, 0]),
   midi.NoteOnEvent(tick=0, channel=0, data=[56, 40]),
   midi.NoteOnEvent(tick=90, channel=0, data=[56, 0]),
   midi.NoteOnEvent(tick=0, channel=0, data=[55, 40]),
   midi.NoteOnEvent(tick=90, channel=0, data=[55, 0]),
   midi.NoteOnEvent(tick=0, channel=0, data=[56, 40]),
   midi.NoteOnEvent(tick=90, channel=0, data=[56, 0]),
   midi.NoteOnEvent(tick=0, channel=0, data=[47, 0]),
   midi.NoteOnEvent(tick=0, channel=0, data=[48, 44]),
   midi.NoteOnEvent(tick=828, channel=0, data=[48, 0]),
   midi.NoteOnEvent(tick=480, channel=0, data=[50, 31]),
   midi.NoteOnEvent(tick=34, channel=0, data=[50, 0]),
   midi.NoteOnEvent(tick=6, channel=0, data=[52, 29]),
   midi.NoteOnEvent(tick=120, channel=0, data=[52, 0]),
   midi.NoteOnEvent(tick=0, channel=0, data=[52, 29]),
   midi.NoteOnEvent(tick=960, channel=0, data=[52, 0]),
   midi.NoteOnEvent(tick=0, channel=0, data=[45, 28]),
   midi.NoteOnEvent(tick=460, channel=0, data=[45, 0]),
   midi.NoteOnEvent(tick=480, channel=0, data=[48, 32]),
   midi.NoteOnEvent(tick=480, channel=0, data=[57, 29]),
   midi.NoteOnEvent(tick=240, channel=0, data=[57, 0]),
   midi.NoteOnEvent(tick=0, channel=0, data=[50, 29]),
   midi.NoteOnEvent(tick=240, channel=0, data=[50, 0]),
   midi.NoteOnEvent(tick=0, channel=0, data=[48, 0]),
   midi.NoteOnEvent(tick=0, channel=0, data=[47, 33]),
   midi.NoteOnEvent(tick=296, channel=0, data=[55, 29]),
   midi.NoteOnEvent(tick=240, channel=0, data=[55, 0]),
   midi.NoteOnEvent(tick=0, channel=0, data=[50, 29]),
   midi.NoteOnEvent(tick=240, channel=0, data=[50, 0]),
   midi.NoteOnEvent(tick=0, channel=0, data=[47, 0]),
   midi.NoteOnEvent(tick=0, channel=0, data=[45, 36]),
   midi.NoteOnEvent(tick=286, channel=0, data=[54, 24]),
   midi.NoteOnEvent(tick=240, channel=0, data=[48, 20]),
   midi.NoteOnEvent(tick=1200, channel=0, data=[48, 0]),
   midi.NoteOnEvent(tick=0, channel=0, data=[54, 0]),
   midi.NoteOnEvent(tick=0, channel=0, data=[45, 0]),
   midi.NoteOnEvent(tick=0, channel=0, data=[45, 31]),
   midi.NoteOnEvent(tick=296, channel=0, data=[54, 28]),
   midi.NoteOnEvent(tick=240, channel=0, data=[54, 0]),
   midi.NoteOnEvent(tick=0, channel=0, data=[48, 28]),
   midi.NoteOnEvent(tick=240, channel=0, data=[48, 0]),
   midi.NoteOnEvent(tick=0, channel=0, data=[45, 0]),
   midi.NoteOnEvent(tick=0, channel=0, data=[43, 32]),
   midi.NoteOnEvent(tick=311, channel=0, data=[52, 28]),
   midi.NoteOnEvent(tick=240, channel=0, data=[52, 0]),
   midi.NoteOnEvent(tick=0, channel=0, data=[47, 28]),
   midi.NoteOnEvent(tick=240, channel=0, data=[47, 0]),
   midi.NoteOnEvent(tick=0, channel=0, data=[43, 0]),
   midi.NoteOnEvent(tick=0, channel=0, data=[42, 32]),
   midi.NoteOnEvent(tick=374, channel=0, data=[51, 22]),
   midi.NoteOnEvent(tick=240, channel=0, data=[45, 19]),
   midi.NoteOnEvent(tick=720, channel=0, data=[45, 0]),
   midi.NoteOnEvent(tick=0, channel=0, data=[51, 0]),
   midi.NoteOnEvent(tick=0, channel=0, data=[42, 0]),
   midi.NoteOnEvent(tick=1, channel=0, data=[48, 36]),
   midi.NoteOnEvent(tick=0, channel=0, data=[57, 36]),
   midi.NoteOnEvent(tick=613, channel=0, data=[55, 36]),
   midi.NoteOnEvent(tick=0, channel=0, data=[47, 36]),
   midi.NoteOnEvent(tick=1, channel=0, data=[57, 0]),
   midi.NoteOnEvent(tick=0, channel=0, data=[48, 0]),
   midi.NoteOnEvent(tick=667, channel=0, data=[55, 0]),
   midi.NoteOnEvent(tick=0, channel=0, data=[47, 0]),
   midi.NoteOnEvent(tick=0, channel=0, data=[45, 48]),
   midi.NoteOnEvent(tick=0, channel=0, data=[54, 48]),
   midi.NoteOnEvent(tick=1040, channel=0, data=[54, 0]),
   midi.NoteOnEvent(tick=0, channel=0, data=[45, 0]),
   midi.NoteOnEvent(tick=0, channel=0, data=[55, 39]),
   midi.NoteOnEvent(tick=0, channel=0, data=[47, 39]),
   midi.NoteOnEvent(tick=463, channel=0, data=[47, 0]),
   midi.NoteOnEvent(tick=0, channel=0, data=[55, 0]),
   midi.NoteOnEvent(tick=0, channel=0, data=[55, 40]),
   midi.NoteOnEvent(tick=0, channel=0, data=[48, 40]),
   midi.NoteOnEvent(tick=808, channel=0, data=[48, 0]),
   midi.NoteOnEvent(tick=0, channel=0, data=[55, 0]),
   midi.NoteOnEvent(tick=0, channel=0, data=[55, 31]),
   midi.NoteOnEvent(tick=0, channel=0, data=[49, 31]),
   midi.NoteOnEvent(tick=755, channel=0, data=[49, 0]),
   midi.NoteOnEvent(tick=0, channel=0, data=[55, 0]),
   midi.NoteOnEvent(tick=0, channel=0, data=[55, 23]),
   midi.NoteOnEvent(tick=0, channel=0, data=[50, 23]),
   midi.NoteOnEvent(tick=613, channel=0, data=[55, 0]),
   midi.NoteOnEvent(tick=0, channel=0, data=[54, 21]),
   midi.NoteOnEvent(tick=533, channel=0, data=[54, 0]),
   midi.NoteOnEvent(tick=0, channel=0, data=[50, 0]),
   midi.NoteOnEvent(tick=0, channel=0, data=[59, 31]),
   midi.NoteOnEvent(tick=0, channel=0, data=[50, 31]),
   midi.NoteOnEvent(tick=674, channel=0, data=[50, 0]),
   midi.NoteOnEvent(tick=0, channel=0, data=[59, 0]),
   midi.NoteOnEvent(tick=0, channel=0, data=[48, 35]),
   midi.NoteOnEvent(tick=0, channel=0, data=[57, 35]),
   midi.NoteOnEvent(tick=597, channel=0, data=[57, 0]),
   midi.NoteOnEvent(tick=0, channel=0, data=[48, 0]),
   midi.NoteOnEvent(tick=0, channel=0, data=[56, 40]),
   midi.NoteOnEvent(tick=0, channel=0, data=[47, 40]),
   midi.NoteOnEvent(tick=431, channel=0, data=[56, 0]),
   midi.NoteOnEvent(tick=0, channel=0, data=[57, 39]),
   midi.NoteOnEvent(tick=90, channel=0, data=[57, 0]),
   midi.NoteOnEvent(tick=0, channel=0, data=[56, 40]),
   midi.NoteOnEvent(tick=90, channel=0, data=[56, 0]),
   midi.NoteOnEvent(tick=0, channel=0, data=[55, 42]),
   midi.NoteOnEvent(tick=90, channel=0, data=[55, 0]),
   midi.NoteOnEvent(tick=0, channel=0, data=[56, 42]),
   midi.NoteOnEvent(tick=90, channel=0, data=[56, 0]),
   midi.NoteOnEvent(tick=0, channel=0, data=[47, 0]),
   midi.NoteOnEvent(tick=0, channel=0, data=[48, 45]),
   midi.NoteOnEvent(tick=777, channel=0, data=[48, 0]),
   midi.NoteOnEvent(tick=480, channel=0, data=[50, 22]),
   midi.NoteOnEvent(tick=69, channel=0, data=[50, 0]),
   midi.NoteOnEvent(tick=40, channel=0, data=[52, 20]),
   midi.NoteOnEvent(tick=120, channel=0, data=[52, 0]),
   midi.NoteOnEvent(tick=0, channel=0, data=[52, 20]),
   midi.NoteOnEvent(tick=960, channel=0, data=[52, 0]),
   midi.NoteOnEvent(tick=0, channel=0, data=[45, 18]),
   midi.NoteOnEvent(tick=463, channel=0, data=[45, 0]),
   midi.NoteOnEvent(tick=960, channel=0, data=[48, 19]),
   midi.NoteOnEvent(tick=233, channel=0, data=[48, 0]),
   midi.NoteOnEvent(tick=85, channel=0, data=[50, 17]),
   midi.NoteOnEvent(tick=120, channel=0, data=[50, 0]),
   midi.NoteOnEvent(tick=0, channel=0, data=[50, 17]),
   midi.NoteOnEvent(tick=960, channel=0, data=[50, 0]),
   midi.NoteOnEvent(tick=0, channel=0, data=[47, 16]),
   midi.NoteOnEvent(tick=459, channel=0, data=[47, 0]),
   midi.NoteOnEvent(tick=960, channel=0, data=[48, 16]),
   midi.NoteOnEvent(tick=1333, channel=0, data=[48, 0]),
   midi.NoteOnEvent(tick=480, channel=0, data=[38, 14]),
   midi.NoteOnEvent(tick=0, channel=0, data=[48, 14]),
   midi.NoteOnEvent(tick=1387, channel=0, data=[48, 0]),
   midi.NoteOnEvent(tick=0, channel=0, data=[38, 0]),
   midi.NoteOnEvent(tick=0, channel=0, data=[47, 12]),
   midi.NoteOnEvent(tick=0, channel=0, data=[31, 12]),
   midi.NoteOnEvent(tick=1360, channel=0, data=[31, 0]),
   midi.NoteOnEvent(tick=0, channel=0, data=[47, 0]),
   midi.EndOfTrackEvent(tick=0, data=[])])])
midi.write_midifile("creationMidi.mid", pattern)