midi.Pattern(format=1, resolution=480, tracks=\
[midi.Track(\
  [midi.TrackNameEvent(tick=0, text='Kinderszenen Opus 15', data=[75, 105, 110, 100, 101, 114, 115, 122, 101, 110, 101, 110, 32, 79, 112, 117, 115, 32, 49, 53]),
   midi.TrackNameEvent(tick=0, text='Am Kamin', data=[65, 109, 32, 75, 97, 109, 105, 110]),
   midi.CopyrightMetaEvent(tick=0, text='Copyright © 1997 von Bernd Krüger.', data=[67, 111, 112, 121, 114, 105, 103, 104, 116, 32, 169, 32, 49, 57, 57, 55, 32, 118, 111, 110, 32, 66, 101, 114, 110, 100, 32, 75, 114, 252, 103, 101, 114, 46]),
   midi.TextMetaEvent(tick=0, text='Robert Schumann', data=[82, 111, 98, 101, 114, 116, 32, 83, 99, 104, 117, 109, 97, 110, 110]),
   midi.TextMetaEvent(tick=0, text='Fertiggestellt am 14.12.97\n', data=[70, 101, 114, 116, 105, 103, 103, 101, 115, 116, 101, 108, 108, 116, 32, 97, 109, 32, 49, 52, 46, 49, 50, 46, 57, 55, 10]),
   midi.TextMetaEvent(tick=0, text='Korrekturen am 4.9.98\n', data=[75, 111, 114, 114, 101, 107, 116, 117, 114, 101, 110, 32, 97, 109, 32, 52, 46, 57, 46, 57, 56, 10]),
   midi.TextMetaEvent(tick=0, text='Anpassungen an Digitalpiano am 1.1.99\n', data=[65, 110, 112, 97, 115, 115, 117, 110, 103, 101, 110, 32, 97, 110, 32, 68, 105, 103, 105, 116, 97, 108, 112, 105, 97, 110, 111, 32, 97, 109, 32, 49, 46, 49, 46, 57, 57, 10]),
   midi.TextMetaEvent(tick=0, text='Update am 16.6.99\n', data=[85, 112, 100, 97, 116, 101, 32, 97, 109, 32, 49, 54, 46, 54, 46, 57, 57, 10]),
   midi.TextMetaEvent(tick=0, text='Update am 9.7.99\n', data=[85, 112, 100, 97, 116, 101, 32, 97, 109, 32, 57, 46, 55, 46, 57, 57, 10]),
   midi.TextMetaEvent(tick=0, text='Update am 18.7.99\n', data=[85, 112, 100, 97, 116, 101, 32, 97, 109, 32, 49, 56, 46, 55, 46, 57, 57, 10]),
   midi.TextMetaEvent(tick=0, text='Normierung: 23.12.2002\n', data=[78, 111, 114, 109, 105, 101, 114, 117, 110, 103, 58, 32, 50, 51, 46, 49, 50, 46, 50, 48, 48, 50, 10]),
   midi.TextMetaEvent(tick=0, text='Update am 12.10.2008\n', data=[85, 112, 100, 97, 116, 101, 32, 97, 109, 32, 49, 50, 46, 49, 48, 46, 50, 48, 48, 56, 10]),
   midi.TextMetaEvent(tick=0, text='Update am 26.3.2014\n', data=[85, 112, 100, 97, 116, 101, 32, 97, 109, 32, 50, 54, 46, 51, 46, 50, 48, 49, 52, 10]),
   midi.TextMetaEvent(tick=0, text='Dauer: 1:07 Minuten\n', data=[68, 97, 117, 101, 114, 58, 32, 49, 58, 48, 55, 32, 77, 105, 110, 117, 116, 101, 110, 10]),
   midi.TimeSignatureEvent(tick=0, data=[2, 2, 24, 8]),
   midi.KeySignatureEvent(tick=0, data=[255, 0]),
   midi.SetTempoEvent(tick=0, data=[7, 39, 14]),
   midi.MarkerEvent(tick=0, text='By the Fire-side', data=[66, 121, 32, 116, 104, 101, 32, 70, 105, 114, 101, 45, 115, 105, 100, 101]),
   midi.SetTempoEvent(tick=720, data=[11, 132, 29]),
   midi.SetTempoEvent(tick=240, data=[10, 58, 183]),
   midi.SetTempoEvent(tick=480, data=[9, 202, 175]),
   midi.SetTempoEvent(tick=240, data=[9, 163, 27]),
   midi.SetTempoEvent(tick=240, data=[9, 243, 142]),
   midi.SetTempoEvent(tick=240, data=[9, 216, 41]),
   midi.SetTempoEvent(tick=480, data=[9, 163, 27]),
   midi.SetTempoEvent(tick=240, data=[10, 29, 199]),
   midi.SetTempoEvent(tick=240, data=[9, 243, 142]),
   midi.SetTempoEvent(tick=20, data=[9, 216, 41]),
   midi.SetTempoEvent(tick=100, data=[9, 229, 201]),
   midi.SetTempoEvent(tick=100, data=[9, 243, 142]),
   midi.SetTempoEvent(tick=100, data=[10, 1, 122]),
   midi.SetTempoEvent(tick=100, data=[10, 15, 141]),
   midi.SetTempoEvent(tick=100, data=[10, 29, 199]),
   midi.SetTempoEvent(tick=200, data=[10, 197, 90]),
   midi.SetTempoEvent(tick=720, data=[10, 44, 43]),
   midi.SetTempoEvent(tick=240, data=[10, 15, 141]),
   midi.SetTempoEvent(tick=240, data=[9, 202, 175]),
   midi.SetTempoEvent(tick=240, data=[9, 176, 41]),
   midi.SetTempoEvent(tick=240, data=[9, 150, 48]),
   midi.SetTempoEvent(tick=240, data=[9, 243, 142]),
   midi.SetTempoEvent(tick=240, data=[9, 216, 41]),
   midi.SetTempoEvent(tick=220, data=[9, 202, 175]),
   midi.SetTempoEvent(tick=20, data=[9, 176, 41]),
   midi.SetTempoEvent(tick=60, data=[9, 189, 90]),
   midi.SetTempoEvent(tick=40, data=[9, 202, 175]),
   midi.SetTempoEvent(tick=40, data=[9, 216, 41]),
   midi.SetTempoEvent(tick=40, data=[9, 229, 201]),
   midi.SetTempoEvent(tick=40, data=[9, 243, 142]),
   midi.SetTempoEvent(tick=40, data=[10, 1, 122]),
   midi.SetTempoEvent(tick=40, data=[10, 15, 141]),
   midi.SetTempoEvent(tick=40, data=[10, 29, 199]),
   midi.SetTempoEvent(tick=40, data=[10, 44, 43]),
   midi.SetTempoEvent(tick=40, data=[10, 58, 183]),
   midi.SetTempoEvent(tick=40, data=[10, 73, 109]),
   midi.SetTempoEvent(tick=20, data=[10, 29, 199]),
   midi.SetTempoEvent(tick=240, data=[9, 243, 142]),
   midi.SetTempoEvent(tick=20, data=[9, 216, 41]),
   midi.SetTempoEvent(tick=100, data=[9, 229, 201]),
   midi.SetTempoEvent(tick=100, data=[9, 243, 142]),
   midi.SetTempoEvent(tick=100, data=[10, 1, 122]),
   midi.SetTempoEvent(tick=100, data=[10, 15, 141]),
   midi.SetTempoEvent(tick=100, data=[10, 29, 199]),
   midi.SetTempoEvent(tick=200, data=[10, 197, 90]),
   midi.SetTempoEvent(tick=720, data=[9, 229, 201]),
   midi.SetTempoEvent(tick=240, data=[10, 1, 122]),
   midi.SetTempoEvent(tick=240, data=[9, 150, 48]),
   midi.SetTempoEvent(tick=240, data=[9, 112, 61]),
   midi.SetTempoEvent(tick=480, data=[9, 202, 175]),
   midi.SetTempoEvent(tick=240, data=[9, 99, 217]),
   midi.SetTempoEvent(tick=720, data=[9, 150, 48]),
   midi.SetTempoEvent(tick=240, data=[9, 87, 149]),
   midi.SetTempoEvent(tick=240, data=[9, 51, 135]),
   midi.SetTempoEvent(tick=240, data=[10, 29, 199]),
   midi.SetTempoEvent(tick=960, data=[9, 124, 194]),
   midi.SetTempoEvent(tick=480, data=[9, 87, 149]),
   midi.SetTempoEvent(tick=140, data=[9, 75, 113]),
   midi.SetTempoEvent(tick=140, data=[9, 63, 109]),
   midi.SetTempoEvent(tick=140, data=[9, 51, 135]),
   midi.SetTempoEvent(tick=140, data=[9, 39, 192]),
   midi.SetTempoEvent(tick=140, data=[9, 28, 23]),
   midi.SetTempoEvent(tick=20, data=[9, 163, 27]),
   midi.SetTempoEvent(tick=240, data=[9, 51, 135]),
   midi.SetTempoEvent(tick=720, data=[9, 137, 104]),
   midi.SetTempoEvent(tick=240, data=[9, 87, 149]),
   midi.SetTempoEvent(tick=240, data=[9, 51, 135]),
   midi.SetTempoEvent(tick=240, data=[10, 29, 199]),
   midi.SetTempoEvent(tick=240, data=[9, 189, 90]),
   midi.SetTempoEvent(tick=240, data=[10, 44, 43]),
   midi.SetTempoEvent(tick=100, data=[10, 58, 183]),
   midi.SetTempoEvent(tick=80, data=[10, 73, 109]),
   midi.SetTempoEvent(tick=100, data=[10, 88, 78]),
   midi.SetTempoEvent(tick=80, data=[10, 103, 90]),
   midi.SetTempoEvent(tick=80, data=[10, 118, 146]),
   midi.SetTempoEvent(tick=100, data=[10, 133, 247]),
   midi.SetTempoEvent(tick=80, data=[10, 149, 138]),
   midi.SetTempoEvent(tick=80, data=[10, 165, 74]),
   midi.SetTempoEvent(tick=20, data=[11, 59, 196]),
   midi.SetTempoEvent(tick=480, data=[10, 213, 171]),
   midi.SetTempoEvent(tick=480, data=[10, 88, 78]),
   midi.SetTempoEvent(tick=240, data=[10, 197, 90]),
   midi.SetTempoEvent(tick=720, data=[10, 103, 90]),
   midi.SetTempoEvent(tick=200, data=[10, 88, 78]),
   midi.SetTempoEvent(tick=100, data=[10, 103, 90]),
   midi.SetTempoEvent(tick=80, data=[10, 118, 146]),
   midi.SetTempoEvent(tick=80, data=[10, 133, 247]),
   midi.SetTempoEvent(tick=100, data=[10, 149, 138]),
   midi.SetTempoEvent(tick=80, data=[10, 165, 74]),
   midi.SetTempoEvent(tick=80, data=[10, 181, 58]),
   midi.SetTempoEvent(tick=1200, data=[10, 15, 141]),
   midi.SetTempoEvent(tick=240, data=[9, 202, 175]),
   midi.SetTempoEvent(tick=240, data=[9, 176, 41]),
   midi.SetTempoEvent(tick=240, data=[9, 150, 48]),
   midi.SetTempoEvent(tick=240, data=[10, 44, 43]),
   midi.SetTempoEvent(tick=240, data=[10, 197, 90]),
   midi.SetTempoEvent(tick=220, data=[10, 58, 183]),
   midi.SetTempoEvent(tick=20, data=[10, 197, 90]),
   midi.SetTempoEvent(tick=60, data=[10, 230, 46]),
   midi.SetTempoEvent(tick=40, data=[11, 7, 204]),
   midi.SetTempoEvent(tick=40, data=[11, 42, 59]),
   midi.SetTempoEvent(tick=40, data=[11, 77, 133]),
   midi.SetTempoEvent(tick=40, data=[11, 113, 176]),
   midi.SetTempoEvent(tick=40, data=[11, 150, 198]),
   midi.SetTempoEvent(tick=40, data=[11, 188, 207]),
   midi.SetTempoEvent(tick=40, data=[11, 227, 213]),
   midi.SetTempoEvent(tick=40, data=[12, 11, 226]),
   midi.SetTempoEvent(tick=40, data=[12, 53, 0]),
   midi.SetTempoEvent(tick=40, data=[12, 95, 59]),
   midi.SetTempoEvent(tick=20, data=[12, 160, 194]),
   midi.SetTempoEvent(tick=240, data=[11, 59, 196]),
   midi.SetTempoEvent(tick=240, data=[12, 11, 226]),
   midi.SetTempoEvent(tick=240, data=[13, 68, 189]),
   midi.SetTempoEvent(tick=960, data=[9, 229, 201]),
   midi.SetTempoEvent(tick=240, data=[10, 1, 122]),
   midi.SetTempoEvent(tick=240, data=[9, 150, 48]),
   midi.SetTempoEvent(tick=240, data=[9, 112, 61]),
   midi.SetTempoEvent(tick=480, data=[9, 202, 175]),
   midi.SetTempoEvent(tick=240, data=[9, 99, 217]),
   midi.SetTempoEvent(tick=720, data=[9, 150, 48]),
   midi.SetTempoEvent(tick=240, data=[9, 87, 149]),
   midi.SetTempoEvent(tick=240, data=[9, 51, 135]),
   midi.SetTempoEvent(tick=240, data=[10, 29, 199]),
   midi.SetTempoEvent(tick=960, data=[9, 124, 194]),
   midi.SetTempoEvent(tick=480, data=[9, 87, 149]),
   midi.SetTempoEvent(tick=140, data=[9, 75, 113]),
   midi.SetTempoEvent(tick=140, data=[9, 63, 109]),
   midi.SetTempoEvent(tick=140, data=[9, 51, 135]),
   midi.SetTempoEvent(tick=140, data=[9, 39, 192]),
   midi.SetTempoEvent(tick=140, data=[9, 28, 23]),
   midi.SetTempoEvent(tick=20, data=[9, 163, 27]),
   midi.SetTempoEvent(tick=240, data=[9, 51, 135]),
   midi.SetTempoEvent(tick=720, data=[9, 137, 104]),
   midi.SetTempoEvent(tick=240, data=[9, 87, 149]),
   midi.SetTempoEvent(tick=240, data=[9, 51, 135]),
   midi.SetTempoEvent(tick=240, data=[10, 29, 199]),
   midi.SetTempoEvent(tick=240, data=[9, 189, 90]),
   midi.SetTempoEvent(tick=240, data=[10, 103, 90]),
   midi.SetTempoEvent(tick=140, data=[10, 118, 146]),
   midi.SetTempoEvent(tick=140, data=[10, 133, 247]),
   midi.SetTempoEvent(tick=140, data=[10, 149, 138]),
   midi.SetTempoEvent(tick=140, data=[10, 165, 74]),
   midi.SetTempoEvent(tick=120, data=[10, 181, 58]),
   midi.SetTempoEvent(tick=20, data=[10, 165, 74]),
   midi.SetTempoEvent(tick=20, data=[11, 59, 196]),
   midi.SetTempoEvent(tick=480, data=[10, 213, 171]),
   midi.SetTempoEvent(tick=480, data=[10, 88, 78]),
   midi.SetTempoEvent(tick=240, data=[10, 197, 90]),
   midi.SetTempoEvent(tick=240, data=[10, 246, 227]),
   midi.SetTempoEvent(tick=480, data=[10, 118, 146]),
   midi.SetTempoEvent(tick=200, data=[10, 103, 90]),
   midi.SetTempoEvent(tick=100, data=[10, 118, 146]),
   midi.SetTempoEvent(tick=80, data=[10, 133, 247]),
   midi.SetTempoEvent(tick=80, data=[10, 149, 138]),
   midi.SetTempoEvent(tick=100, data=[10, 165, 74]),
   midi.SetTempoEvent(tick=80, data=[10, 181, 58]),
   midi.SetTempoEvent(tick=80, data=[10, 197, 90]),
   midi.SetTempoEvent(tick=1200, data=[10, 15, 141]),
   midi.SetTempoEvent(tick=240, data=[9, 202, 175]),
   midi.SetTempoEvent(tick=240, data=[9, 176, 41]),
   midi.SetTempoEvent(tick=240, data=[9, 150, 48]),
   midi.SetTempoEvent(tick=240, data=[10, 133, 247]),
   midi.SetTempoEvent(tick=240, data=[11, 7, 204]),
   midi.SetTempoEvent(tick=220, data=[10, 58, 183]),
   midi.SetTempoEvent(tick=20, data=[11, 7, 204]),
   midi.SetTempoEvent(tick=60, data=[11, 42, 59]),
   midi.SetTempoEvent(tick=60, data=[11, 77, 133]),
   midi.SetTempoEvent(tick=40, data=[11, 113, 176]),
   midi.SetTempoEvent(tick=60, data=[11, 150, 198]),
   midi.SetTempoEvent(tick=40, data=[11, 188, 207]),
   midi.SetTempoEvent(tick=60, data=[11, 227, 213]),
   midi.SetTempoEvent(tick=40, data=[12, 11, 226]),
   midi.SetTempoEvent(tick=60, data=[12, 53, 0]),
   midi.SetTempoEvent(tick=40, data=[12, 95, 59]),
   midi.SetTempoEvent(tick=20, data=[12, 160, 194]),
   midi.SetTempoEvent(tick=240, data=[11, 59, 196]),
   midi.SetTempoEvent(tick=240, data=[12, 11, 226]),
   midi.SetTempoEvent(tick=240, data=[13, 68, 189]),
   midi.SetTempoEvent(tick=960, data=[9, 137, 104]),
   midi.SetTempoEvent(tick=240, data=[9, 75, 113]),
   midi.SetTempoEvent(tick=240, data=[9, 137, 104]),
   midi.SetTempoEvent(tick=240, data=[9, 87, 149]),
   midi.SetTempoEvent(tick=240, data=[9, 137, 104]),
   midi.SetTempoEvent(tick=240, data=[9, 63, 109]),
   midi.SetTempoEvent(tick=240, data=[9, 87, 149]),
   midi.SetTempoEvent(tick=240, data=[9, 51, 135]),
   midi.SetTempoEvent(tick=240, data=[9, 87, 149]),
   midi.SetTempoEvent(tick=240, data=[9, 124, 194]),
   midi.SetTempoEvent(tick=240, data=[9, 189, 90]),
   midi.SetTempoEvent(tick=240, data=[10, 1, 122]),
   midi.SetTempoEvent(tick=480, data=[10, 29, 199]),
   midi.SetTempoEvent(tick=480, data=[10, 1, 122]),
   midi.SetTempoEvent(tick=240, data=[9, 137, 104]),
   midi.SetTempoEvent(tick=240, data=[9, 75, 113]),
   midi.SetTempoEvent(tick=240, data=[9, 137, 104]),
   midi.SetTempoEvent(tick=240, data=[9, 75, 113]),
   midi.SetTempoEvent(tick=240, data=[9, 137, 104]),
   midi.SetTempoEvent(tick=240, data=[9, 202, 175]),
   midi.SetTempoEvent(tick=240, data=[10, 15, 141]),
   midi.SetTempoEvent(tick=240, data=[9, 202, 175]),
   midi.SetTempoEvent(tick=240, data=[10, 230, 46]),
   midi.SetTempoEvent(tick=240, data=[11, 59, 196]),
   midi.SetTempoEvent(tick=240, data=[11, 188, 207]),
   midi.SetTempoEvent(tick=240, data=[12, 95, 59]),
   midi.SetTempoEvent(tick=240, data=[13, 196, 112]),
   midi.SetTempoEvent(tick=240, data=[16, 52, 59]),
   midi.SetTempoEvent(tick=240, data=[26, 237, 98]),
   midi.SetTempoEvent(tick=240, data=[34, 140, 87]),
   midi.MarkerEvent(tick=480, text='Fine', data=[70, 105, 110, 101]),
   midi.EndOfTrackEvent(tick=0, data=[])]),
 midi.Track(\
  [midi.TrackNameEvent(tick=0, text='Piano right', data=[80, 105, 97, 110, 111, 32, 114, 105, 103, 104, 116]),
   midi.ProgramChangeEvent(tick=0, channel=0, data=[0]),
   midi.ControlChangeEvent(tick=0, channel=0, data=[7, 100]),
   midi.ControlChangeEvent(tick=0, channel=0, data=[10, 64]),
   midi.TextMetaEvent(tick=0, text='bdca426d104a26ac9dcb070447587523', data=[98, 100, 99, 97, 52, 50, 54, 100, 49, 48, 52, 97, 50, 54, 97, 99, 57, 100, 99, 98, 48, 55, 48, 52, 52, 55, 53, 56, 55, 53, 50, 51]),
   midi.ControlChangeEvent(tick=719, channel=0, data=[91, 127]),
   midi.NoteOnEvent(tick=1, channel=0, data=[72, 56]),
   midi.NoteOnEvent(tick=240, channel=0, data=[72, 0]),
   midi.NoteOnEvent(tick=0, channel=0, data=[77, 60]),
   midi.NoteOnEvent(tick=240, channel=0, data=[65, 31]),
   midi.NoteOnEvent(tick=0, channel=0, data=[72, 31]),
   midi.NoteOnEvent(tick=240, channel=0, data=[77, 0]),
   midi.NoteOnEvent(tick=0, channel=0, data=[76, 56]),
   midi.NoteOnEvent(tick=240, channel=0, data=[76, 0]),
   midi.NoteOnEvent(tick=0, channel=0, data=[72, 0]),
   midi.NoteOnEvent(tick=0, channel=0, data=[65, 0]),
   midi.NoteOnEvent(tick=0, channel=0, data=[65, 30]),
   midi.NoteOnEvent(tick=0, channel=0, data=[75, 51]),
   midi.NoteOnEvent(tick=240, channel=0, data=[75, 0]),
   midi.NoteOnEvent(tick=0, channel=0, data=[65, 0]),
   midi.NoteOnEvent(tick=0, channel=0, data=[74, 52]),
   midi.NoteOnEvent(tick=240, channel=0, data=[74, 0]),
   midi.NoteOnEvent(tick=0, channel=0, data=[65, 30]),
   midi.NoteOnEvent(tick=0, channel=0, data=[76, 52]),
   midi.NoteOnEvent(tick=240, channel=0, data=[76, 0]),
   midi.NoteOnEvent(tick=0, channel=0, data=[77, 55]),
   midi.NoteOnEvent(tick=240, channel=0, data=[77, 0]),
   midi.NoteOnEvent(tick=0, channel=0, data=[65, 0]),
   midi.NoteOnEvent(tick=0, channel=0, data=[65, 31]),
   midi.NoteOnEvent(tick=0, channel=0, data=[79, 50]),
   midi.NoteOnEvent(tick=240, channel=0, data=[79, 0]),
   midi.NoteOnEvent(tick=0, channel=0, data=[65, 0]),
   midi.NoteOnEvent(tick=0, channel=0, data=[72, 57]),
   midi.NoteOnEvent(tick=240, channel=0, data=[60, 29]),
   midi.NoteOnEvent(tick=0, channel=0, data=[67, 46]),
   midi.NoteOnEvent(tick=240, channel=0, data=[67, 0]),
   midi.NoteOnEvent(tick=0, channel=0, data=[69, 47]),
   midi.NoteOnEvent(tick=240, channel=0, data=[69, 0]),
   midi.NoteOnEvent(tick=0, channel=0, data=[60, 0]),
   midi.NoteOnEvent(tick=0, channel=0, data=[72, 0]),
   midi.NoteOnEvent(tick=0, channel=0, data=[60, 29]),
   midi.NoteOnEvent(tick=0, channel=0, data=[70, 44]),
   midi.NoteOnEvent(tick=240, channel=0, data=[70, 0]),
   midi.NoteOnEvent(tick=0, channel=0, data=[60, 0]),
   midi.NoteOnEvent(tick=0, channel=0, data=[69, 47]),
   midi.NoteOnEvent(tick=240, channel=0, data=[60, 30]),
   midi.NoteOnEvent(tick=240, channel=0, data=[69, 0]),
   midi.NoteOnEvent(tick=240, channel=0, data=[60, 0]),
   midi.NoteOnEvent(tick=0, channel=0, data=[72, 56]),
   midi.NoteOnEvent(tick=240, channel=0, data=[72, 0]),
   midi.NoteOnEvent(tick=0, channel=0, data=[72, 56]),
   midi.NoteOnEvent(tick=240, channel=0, data=[72, 0]),
   midi.NoteOnEvent(tick=0, channel=0, data=[77, 60]),
   midi.NoteOnEvent(tick=0, channel=0, data=[65, 31]),
   midi.NoteOnEvent(tick=240, channel=0, data=[77, 0]),
   midi.NoteOnEvent(tick=0, channel=0, data=[76, 56]),
   midi.NoteOnEvent(tick=237, channel=0, data=[65, 0]),
   midi.NoteOnEvent(tick=3, channel=0, data=[76, 0]),
   midi.NoteOnEvent(tick=0, channel=0, data=[75, 51]),
   midi.NoteOnEvent(tick=240, channel=0, data=[75, 0]),
   midi.NoteOnEvent(tick=0, channel=0, data=[74, 52]),
   midi.NoteOnEvent(tick=240, channel=0, data=[74, 0]),
   midi.NoteOnEvent(tick=0, channel=0, data=[65, 30]),
   midi.NoteOnEvent(tick=0, channel=0, data=[76, 52]),
   midi.NoteOnEvent(tick=240, channel=0, data=[76, 0]),
   midi.NoteOnEvent(tick=0, channel=0, data=[77, 55]),
   midi.NoteOnEvent(tick=240, channel=0, data=[77, 0]),
   midi.NoteOnEvent(tick=0, channel=0, data=[65, 0]),
   midi.NoteOnEvent(tick=0, channel=0, data=[65, 31]),
   midi.NoteOnEvent(tick=0, channel=0, data=[79, 50]),
   midi.NoteOnEvent(tick=240, channel=0, data=[79, 0]),
   midi.NoteOnEvent(tick=0, channel=0, data=[65, 0]),
   midi.NoteOnEvent(tick=0, channel=0, data=[72, 57]),
   midi.NoteOnEvent(tick=240, channel=0, data=[60, 29]),
   midi.NoteOnEvent(tick=0, channel=0, data=[67, 46]),
   midi.NoteOnEvent(tick=240, channel=0, data=[67, 0]),
   midi.NoteOnEvent(tick=0, channel=0, data=[69, 47]),
   midi.NoteOnEvent(tick=240, channel=0, data=[69, 0]),
   midi.NoteOnEvent(tick=0, channel=0, data=[60, 0]),
   midi.NoteOnEvent(tick=0, channel=0, data=[72, 0]),
   midi.NoteOnEvent(tick=0, channel=0, data=[60, 29]),
   midi.NoteOnEvent(tick=0, channel=0, data=[70, 45]),
   midi.NoteOnEvent(tick=240, channel=0, data=[70, 0]),
   midi.NoteOnEvent(tick=0, channel=0, data=[60, 0]),
   midi.NoteOnEvent(tick=0, channel=0, data=[69, 47]),
   midi.NoteOnEvent(tick=240, channel=0, data=[65, 32]),
   midi.NoteOnEvent(tick=240, channel=0, data=[69, 0]),
   midi.NoteOnEvent(tick=240, channel=0, data=[65, 0]),
   midi.NoteOnEvent(tick=0, channel=0, data=[72, 50]),
   midi.NoteOnEvent(tick=240, channel=0, data=[72, 0]),
   midi.NoteOnEvent(tick=0, channel=0, data=[72, 56]),
   midi.NoteOnEvent(tick=240, channel=0, data=[72, 0]),
   midi.NoteOnEvent(tick=0, channel=0, data=[60, 40]),
   midi.NoteOnEvent(tick=0, channel=0, data=[67, 51]),
   midi.NoteOnEvent(tick=240, channel=0, data=[67, 0]),
   midi.NoteOnEvent(tick=0, channel=0, data=[69, 54]),
   midi.NoteOnEvent(tick=240, channel=0, data=[69, 0]),
   midi.NoteOnEvent(tick=0, channel=0, data=[60, 0]),
   midi.NoteOnEvent(tick=0, channel=0, data=[60, 40]),
   midi.NoteOnEvent(tick=0, channel=0, data=[70, 57]),
   midi.NoteOnEvent(tick=240, channel=0, data=[70, 0]),
   midi.NoteOnEvent(tick=0, channel=0, data=[60, 0]),
   midi.NoteOnEvent(tick=0, channel=0, data=[74, 56]),
   midi.NoteOnEvent(tick=480, channel=0, data=[64, 48]),
   midi.NoteOnEvent(tick=240, channel=0, data=[64, 0]),
   midi.NoteOnEvent(tick=0, channel=0, data=[74, 0]),
   midi.NoteOnEvent(tick=0, channel=0, data=[60, 40]),
   midi.NoteOnEvent(tick=0, channel=0, data=[66, 48]),
   midi.NoteOnEvent(tick=240, channel=0, data=[66, 0]),
   midi.NoteOnEvent(tick=0, channel=0, data=[60, 0]),
   midi.NoteOnEvent(tick=0, channel=0, data=[58, 41]),
   midi.NoteOnEvent(tick=0, channel=0, data=[67, 50]),
   midi.NoteOnEvent(tick=240, channel=0, data=[67, 0]),
   midi.NoteOnEvent(tick=0, channel=0, data=[58, 0]),
   midi.NoteOnEvent(tick=0, channel=0, data=[70, 52]),
   midi.NoteOnEvent(tick=240, channel=0, data=[70, 0]),
   midi.NoteOnEvent(tick=0, channel=0, data=[74, 54]),
   midi.NoteOnEvent(tick=240, channel=0, data=[74, 0]),
   midi.NoteOnEvent(tick=0, channel=0, data=[60, 32]),
   midi.NoteOnEvent(tick=0, channel=0, data=[62, 44]),
   midi.NoteOnEvent(tick=240, channel=0, data=[62, 0]),
   midi.NoteOnEvent(tick=0, channel=0, data=[60, 0]),
   midi.NoteOnEvent(tick=0, channel=0, data=[67, 46]),
   midi.NoteOnEvent(tick=240, channel=0, data=[58, 32]),
   midi.NoteOnEvent(tick=240, channel=0, data=[67, 0]),
   midi.NoteOnEvent(tick=240, channel=0, data=[58, 0]),
   midi.NoteOnEvent(tick=0, channel=0, data=[70, 53]),
   midi.NoteOnEvent(tick=240, channel=0, data=[70, 0]),
   midi.NoteOnEvent(tick=0, channel=0, data=[74, 59]),
   midi.NoteOnEvent(tick=240, channel=0, data=[74, 0]),
   midi.NoteOnEvent(tick=0, channel=0, data=[66, 32]),
   midi.NoteOnEvent(tick=0, channel=0, data=[69, 55]),
   midi.NoteOnEvent(tick=240, channel=0, data=[69, 0]),
   midi.NoteOnEvent(tick=0, channel=0, data=[70, 59]),
   midi.NoteOnEvent(tick=240, channel=0, data=[70, 0]),
   midi.NoteOnEvent(tick=0, channel=0, data=[72, 63]),
   midi.NoteOnEvent(tick=240, channel=0, data=[72, 0]),
   midi.NoteOnEvent(tick=0, channel=0, data=[66, 0]),
   midi.NoteOnEvent(tick=0, channel=0, data=[76, 63]),
   midi.NoteOnEvent(tick=240, channel=0, data=[64, 59]),
   midi.NoteOnEvent(tick=240, channel=0, data=[66, 52]),
   midi.NoteOnEvent(tick=240, channel=0, data=[66, 0]),
   midi.NoteOnEvent(tick=0, channel=0, data=[64, 0]),
   midi.NoteOnEvent(tick=0, channel=0, data=[76, 0]),
   midi.NoteOnEvent(tick=0, channel=0, data=[62, 44]),
   midi.NoteOnEvent(tick=0, channel=0, data=[68, 52]),
   midi.NoteOnEvent(tick=240, channel=0, data=[68, 0]),
   midi.NoteOnEvent(tick=0, channel=0, data=[62, 0]),
   midi.NoteOnEvent(tick=0, channel=0, data=[60, 45]),
   midi.NoteOnEvent(tick=0, channel=0, data=[69, 55]),
   midi.NoteOnEvent(tick=240, channel=0, data=[69, 0]),
   midi.NoteOnEvent(tick=0, channel=0, data=[60, 0]),
   midi.NoteOnEvent(tick=0, channel=0, data=[72, 57]),
   midi.NoteOnEvent(tick=240, channel=0, data=[72, 0]),
   midi.NoteOnEvent(tick=0, channel=0, data=[76, 59]),
   midi.NoteOnEvent(tick=240, channel=0, data=[76, 0]),
   midi.NoteOnEvent(tick=0, channel=0, data=[62, 41]),
   midi.NoteOnEvent(tick=480, channel=0, data=[62, 0]),
   midi.NoteOnEvent(tick=0, channel=0, data=[60, 57]),
   midi.NoteOnEvent(tick=0, channel=0, data=[69, 57]),
   midi.NoteOnEvent(tick=477, channel=0, data=[60, 0]),
   midi.NoteOnEvent(tick=3, channel=0, data=[69, 0]),
   midi.NoteOnEvent(tick=0, channel=0, data=[58, 53]),
   midi.NoteOnEvent(tick=0, channel=0, data=[67, 53]),
   midi.NoteOnEvent(tick=240, channel=0, data=[67, 0]),
   midi.NoteOnEvent(tick=0, channel=0, data=[58, 0]),
   midi.NoteOnEvent(tick=0, channel=0, data=[65, 62]),
   midi.NoteOnEvent(tick=240, channel=0, data=[53, 53]),
   midi.NoteOnEvent(tick=0, channel=0, data=[60, 53]),
   midi.NoteOnEvent(tick=240, channel=0, data=[65, 0]),
   midi.NoteOnEvent(tick=0, channel=0, data=[64, 49]),
   midi.NoteOnEvent(tick=240, channel=0, data=[64, 0]),
   midi.NoteOnEvent(tick=0, channel=0, data=[60, 0]),
   midi.NoteOnEvent(tick=0, channel=0, data=[53, 0]),
   midi.NoteOnEvent(tick=0, channel=0, data=[53, 35]),
   midi.NoteOnEvent(tick=0, channel=0, data=[63, 45]),
   midi.NoteOnEvent(tick=240, channel=0, data=[63, 0]),
   midi.NoteOnEvent(tick=0, channel=0, data=[53, 0]),
   midi.NoteOnEvent(tick=0, channel=0, data=[74, 48]),
   midi.NoteOnEvent(tick=240, channel=0, data=[74, 0]),
   midi.NoteOnEvent(tick=0, channel=0, data=[65, 27]),
   midi.NoteOnEvent(tick=0, channel=0, data=[76, 44]),
   midi.NoteOnEvent(tick=240, channel=0, data=[76, 0]),
   midi.NoteOnEvent(tick=0, channel=0, data=[77, 44]),
   midi.NoteOnEvent(tick=240, channel=0, data=[77, 0]),
   midi.NoteOnEvent(tick=0, channel=0, data=[65, 0]),
   midi.NoteOnEvent(tick=0, channel=0, data=[65, 27]),
   midi.NoteOnEvent(tick=0, channel=0, data=[79, 44]),
   midi.NoteOnEvent(tick=240, channel=0, data=[79, 0]),
   midi.NoteOnEvent(tick=0, channel=0, data=[65, 0]),
   midi.NoteOnEvent(tick=0, channel=0, data=[72, 46]),
   midi.NoteOnEvent(tick=240, channel=0, data=[60, 26]),
   midi.NoteOnEvent(tick=0, channel=0, data=[67, 37]),
   midi.NoteOnEvent(tick=240, channel=0, data=[67, 0]),
   midi.NoteOnEvent(tick=0, channel=0, data=[69, 37]),
   midi.NoteOnEvent(tick=240, channel=0, data=[69, 0]),
   midi.NoteOnEvent(tick=0, channel=0, data=[60, 0]),
   midi.NoteOnEvent(tick=0, channel=0, data=[72, 0]),
   midi.NoteOnEvent(tick=0, channel=0, data=[60, 26]),
   midi.NoteOnEvent(tick=0, channel=0, data=[70, 36]),
   midi.NoteOnEvent(tick=240, channel=0, data=[70, 0]),
   midi.NoteOnEvent(tick=0, channel=0, data=[60, 0]),
   midi.NoteOnEvent(tick=0, channel=0, data=[69, 37]),
   midi.NoteOnEvent(tick=240, channel=0, data=[65, 24]),
   midi.NoteOnEvent(tick=240, channel=0, data=[69, 0]),
   midi.NoteOnEvent(tick=237, channel=0, data=[65, 0]),
   midi.NoteOnEvent(tick=3, channel=0, data=[72, 50]),
   midi.NoteOnEvent(tick=240, channel=0, data=[72, 0]),
   midi.NoteOnEvent(tick=0, channel=0, data=[72, 50]),
   midi.NoteOnEvent(tick=240, channel=0, data=[72, 0]),
   midi.NoteOnEvent(tick=0, channel=0, data=[77, 54]),
   midi.NoteOnEvent(tick=0, channel=0, data=[65, 27]),
   midi.NoteOnEvent(tick=240, channel=0, data=[77, 0]),
   midi.NoteOnEvent(tick=0, channel=0, data=[76, 50]),
   midi.NoteOnEvent(tick=237, channel=0, data=[65, 0]),
   midi.NoteOnEvent(tick=3, channel=0, data=[76, 0]),
   midi.NoteOnEvent(tick=0, channel=0, data=[63, 27]),
   midi.NoteOnEvent(tick=0, channel=0, data=[75, 45]),
   midi.NoteOnEvent(tick=240, channel=0, data=[75, 0]),
   midi.NoteOnEvent(tick=0, channel=0, data=[63, 0]),
   midi.NoteOnEvent(tick=0, channel=0, data=[74, 46]),
   midi.NoteOnEvent(tick=240, channel=0, data=[74, 0]),
   midi.NoteOnEvent(tick=0, channel=0, data=[65, 27]),
   midi.NoteOnEvent(tick=0, channel=0, data=[76, 46]),
   midi.NoteOnEvent(tick=240, channel=0, data=[76, 0]),
   midi.NoteOnEvent(tick=0, channel=0, data=[77, 49]),
   midi.NoteOnEvent(tick=210, channel=0, data=[65, 27]),
   midi.NoteOnEvent(tick=10, channel=0, data=[67, 25]),
   midi.NoteOnEvent(tick=10, channel=0, data=[74, 25]),
   midi.NoteOnEvent(tick=10, channel=0, data=[77, 0]),
   midi.NoteOnEvent(tick=0, channel=0, data=[65, 0]),
   midi.NoteOnEvent(tick=0, channel=0, data=[79, 43]),
   midi.NoteOnEvent(tick=240, channel=0, data=[79, 0]),
   midi.NoteOnEvent(tick=0, channel=0, data=[74, 0]),
   midi.NoteOnEvent(tick=0, channel=0, data=[65, 0]),
   midi.NoteOnEvent(tick=0, channel=0, data=[67, 0]),
   midi.NoteOnEvent(tick=0, channel=0, data=[81, 49]),
   midi.NoteOnEvent(tick=240, channel=0, data=[69, 28]),
   midi.NoteOnEvent(tick=0, channel=0, data=[72, 25]),
   midi.NoteOnEvent(tick=240, channel=0, data=[81, 0]),
   midi.NoteOnEvent(tick=0, channel=0, data=[79, 44]),
   midi.NoteOnEvent(tick=240, channel=0, data=[72, 0]),
   midi.NoteOnEvent(tick=0, channel=0, data=[69, 0]),
   midi.NoteOnEvent(tick=0, channel=0, data=[67, 25]),
   midi.NoteOnEvent(tick=0, channel=0, data=[72, 25]),
   midi.NoteOnEvent(tick=240, channel=0, data=[72, 0]),
   midi.NoteOnEvent(tick=0, channel=0, data=[67, 0]),
   midi.NoteOnEvent(tick=0, channel=0, data=[79, 0]),
   midi.NoteOnEvent(tick=0, channel=0, data=[77, 38]),
   midi.NoteOnEvent(tick=240, channel=0, data=[65, 25]),
   midi.NoteOnEvent(tick=0, channel=0, data=[72, 25]),
   midi.NoteOnEvent(tick=240, channel=0, data=[77, 0]),
   midi.NoteOnEvent(tick=240, channel=0, data=[72, 0]),
   midi.NoteOnEvent(tick=0, channel=0, data=[65, 0]),
   midi.NoteOnEvent(tick=0, channel=0, data=[72, 50]),
   midi.NoteOnEvent(tick=240, channel=0, data=[72, 0]),
   midi.NoteOnEvent(tick=0, channel=0, data=[72, 56]),
   midi.NoteOnEvent(tick=240, channel=0, data=[72, 0]),
   midi.NoteOnEvent(tick=0, channel=0, data=[60, 40]),
   midi.NoteOnEvent(tick=0, channel=0, data=[67, 51]),
   midi.NoteOnEvent(tick=240, channel=0, data=[67, 0]),
   midi.NoteOnEvent(tick=0, channel=0, data=[69, 54]),
   midi.NoteOnEvent(tick=240, channel=0, data=[69, 0]),
   midi.NoteOnEvent(tick=0, channel=0, data=[60, 0]),
   midi.NoteOnEvent(tick=0, channel=0, data=[60, 40]),
   midi.NoteOnEvent(tick=0, channel=0, data=[70, 57]),
   midi.NoteOnEvent(tick=240, channel=0, data=[70, 0]),
   midi.NoteOnEvent(tick=0, channel=0, data=[60, 0]),
   midi.NoteOnEvent(tick=0, channel=0, data=[74, 56]),
   midi.NoteOnEvent(tick=480, channel=0, data=[64, 48]),
   midi.NoteOnEvent(tick=240, channel=0, data=[64, 0]),
   midi.NoteOnEvent(tick=0, channel=0, data=[74, 0]),
   midi.NoteOnEvent(tick=0, channel=0, data=[60, 40]),
   midi.NoteOnEvent(tick=0, channel=0, data=[66, 48]),
   midi.NoteOnEvent(tick=240, channel=0, data=[66, 0]),
   midi.NoteOnEvent(tick=0, channel=0, data=[60, 0]),
   midi.NoteOnEvent(tick=0, channel=0, data=[58, 41]),
   midi.NoteOnEvent(tick=0, channel=0, data=[67, 50]),
   midi.NoteOnEvent(tick=240, channel=0, data=[67, 0]),
   midi.NoteOnEvent(tick=0, channel=0, data=[58, 0]),
   midi.NoteOnEvent(tick=0, channel=0, data=[70, 52]),
   midi.NoteOnEvent(tick=240, channel=0, data=[70, 0]),
   midi.NoteOnEvent(tick=0, channel=0, data=[74, 54]),
   midi.NoteOnEvent(tick=240, channel=0, data=[74, 0]),
   midi.NoteOnEvent(tick=0, channel=0, data=[60, 32]),
   midi.NoteOnEvent(tick=0, channel=0, data=[62, 44]),
   midi.NoteOnEvent(tick=240, channel=0, data=[62, 0]),
   midi.NoteOnEvent(tick=0, channel=0, data=[60, 0]),
   midi.NoteOnEvent(tick=0, channel=0, data=[67, 46]),
   midi.NoteOnEvent(tick=240, channel=0, data=[58, 33]),
   midi.NoteOnEvent(tick=240, channel=0, data=[67, 0]),
   midi.NoteOnEvent(tick=240, channel=0, data=[58, 0]),
   midi.NoteOnEvent(tick=0, channel=0, data=[70, 53]),
   midi.NoteOnEvent(tick=240, channel=0, data=[70, 0]),
   midi.NoteOnEvent(tick=0, channel=0, data=[74, 59]),
   midi.NoteOnEvent(tick=240, channel=0, data=[74, 0]),
   midi.NoteOnEvent(tick=0, channel=0, data=[66, 32]),
   midi.NoteOnEvent(tick=0, channel=0, data=[69, 55]),
   midi.NoteOnEvent(tick=240, channel=0, data=[69, 0]),
   midi.NoteOnEvent(tick=0, channel=0, data=[70, 59]),
   midi.NoteOnEvent(tick=240, channel=0, data=[70, 0]),
   midi.NoteOnEvent(tick=0, channel=0, data=[72, 63]),
   midi.NoteOnEvent(tick=240, channel=0, data=[72, 0]),
   midi.NoteOnEvent(tick=0, channel=0, data=[66, 0]),
   midi.NoteOnEvent(tick=0, channel=0, data=[76, 63]),
   midi.NoteOnEvent(tick=240, channel=0, data=[64, 59]),
   midi.NoteOnEvent(tick=240, channel=0, data=[66, 52]),
   midi.NoteOnEvent(tick=240, channel=0, data=[66, 0]),
   midi.NoteOnEvent(tick=0, channel=0, data=[64, 0]),
   midi.NoteOnEvent(tick=0, channel=0, data=[76, 0]),
   midi.NoteOnEvent(tick=0, channel=0, data=[62, 44]),
   midi.NoteOnEvent(tick=0, channel=0, data=[68, 52]),
   midi.NoteOnEvent(tick=240, channel=0, data=[68, 0]),
   midi.NoteOnEvent(tick=0, channel=0, data=[62, 0]),
   midi.NoteOnEvent(tick=0, channel=0, data=[60, 45]),
   midi.NoteOnEvent(tick=0, channel=0, data=[69, 55]),
   midi.NoteOnEvent(tick=240, channel=0, data=[69, 0]),
   midi.NoteOnEvent(tick=0, channel=0, data=[60, 0]),
   midi.NoteOnEvent(tick=0, channel=0, data=[72, 57]),
   midi.NoteOnEvent(tick=240, channel=0, data=[72, 0]),
   midi.NoteOnEvent(tick=0, channel=0, data=[76, 59]),
   midi.NoteOnEvent(tick=240, channel=0, data=[76, 0]),
   midi.NoteOnEvent(tick=0, channel=0, data=[62, 41]),
   midi.NoteOnEvent(tick=480, channel=0, data=[62, 0]),
   midi.NoteOnEvent(tick=0, channel=0, data=[60, 57]),
   midi.NoteOnEvent(tick=0, channel=0, data=[69, 57]),
   midi.NoteOnEvent(tick=477, channel=0, data=[60, 0]),
   midi.NoteOnEvent(tick=3, channel=0, data=[69, 0]),
   midi.NoteOnEvent(tick=0, channel=0, data=[58, 53]),
   midi.NoteOnEvent(tick=0, channel=0, data=[67, 53]),
   midi.NoteOnEvent(tick=240, channel=0, data=[67, 0]),
   midi.NoteOnEvent(tick=0, channel=0, data=[58, 0]),
   midi.NoteOnEvent(tick=0, channel=0, data=[65, 62]),
   midi.NoteOnEvent(tick=240, channel=0, data=[53, 53]),
   midi.NoteOnEvent(tick=0, channel=0, data=[60, 53]),
   midi.NoteOnEvent(tick=240, channel=0, data=[65, 0]),
   midi.NoteOnEvent(tick=0, channel=0, data=[64, 49]),
   midi.NoteOnEvent(tick=240, channel=0, data=[64, 0]),
   midi.NoteOnEvent(tick=0, channel=0, data=[60, 0]),
   midi.NoteOnEvent(tick=0, channel=0, data=[53, 0]),
   midi.NoteOnEvent(tick=0, channel=0, data=[53, 35]),
   midi.NoteOnEvent(tick=0, channel=0, data=[63, 45]),
   midi.NoteOnEvent(tick=240, channel=0, data=[63, 0]),
   midi.NoteOnEvent(tick=0, channel=0, data=[53, 0]),
   midi.NoteOnEvent(tick=0, channel=0, data=[74, 48]),
   midi.NoteOnEvent(tick=240, channel=0, data=[74, 0]),
   midi.NoteOnEvent(tick=0, channel=0, data=[65, 27]),
   midi.NoteOnEvent(tick=0, channel=0, data=[76, 44]),
   midi.NoteOnEvent(tick=240, channel=0, data=[76, 0]),
   midi.NoteOnEvent(tick=0, channel=0, data=[77, 44]),
   midi.NoteOnEvent(tick=240, channel=0, data=[77, 0]),
   midi.NoteOnEvent(tick=0, channel=0, data=[65, 0]),
   midi.NoteOnEvent(tick=0, channel=0, data=[65, 27]),
   midi.NoteOnEvent(tick=0, channel=0, data=[79, 44]),
   midi.NoteOnEvent(tick=240, channel=0, data=[79, 0]),
   midi.NoteOnEvent(tick=0, channel=0, data=[65, 0]),
   midi.NoteOnEvent(tick=0, channel=0, data=[72, 46]),
   midi.NoteOnEvent(tick=240, channel=0, data=[60, 26]),
   midi.NoteOnEvent(tick=0, channel=0, data=[67, 37]),
   midi.NoteOnEvent(tick=240, channel=0, data=[67, 0]),
   midi.NoteOnEvent(tick=0, channel=0, data=[69, 37]),
   midi.NoteOnEvent(tick=240, channel=0, data=[69, 0]),
   midi.NoteOnEvent(tick=0, channel=0, data=[60, 0]),
   midi.NoteOnEvent(tick=0, channel=0, data=[72, 0]),
   midi.NoteOnEvent(tick=0, channel=0, data=[60, 26]),
   midi.NoteOnEvent(tick=0, channel=0, data=[70, 36]),
   midi.NoteOnEvent(tick=240, channel=0, data=[70, 0]),
   midi.NoteOnEvent(tick=0, channel=0, data=[60, 0]),
   midi.NoteOnEvent(tick=0, channel=0, data=[69, 37]),
   midi.NoteOnEvent(tick=240, channel=0, data=[65, 24]),
   midi.NoteOnEvent(tick=240, channel=0, data=[69, 0]),
   midi.NoteOnEvent(tick=237, channel=0, data=[65, 0]),
   midi.NoteOnEvent(tick=3, channel=0, data=[72, 50]),
   midi.NoteOnEvent(tick=240, channel=0, data=[72, 0]),
   midi.NoteOnEvent(tick=0, channel=0, data=[72, 50]),
   midi.NoteOnEvent(tick=240, channel=0, data=[72, 0]),
   midi.NoteOnEvent(tick=0, channel=0, data=[77, 54]),
   midi.NoteOnEvent(tick=0, channel=0, data=[65, 27]),
   midi.NoteOnEvent(tick=240, channel=0, data=[77, 0]),
   midi.NoteOnEvent(tick=0, channel=0, data=[76, 50]),
   midi.NoteOnEvent(tick=237, channel=0, data=[65, 0]),
   midi.NoteOnEvent(tick=3, channel=0, data=[76, 0]),
   midi.NoteOnEvent(tick=0, channel=0, data=[63, 27]),
   midi.NoteOnEvent(tick=0, channel=0, data=[75, 45]),
   midi.NoteOnEvent(tick=240, channel=0, data=[75, 0]),
   midi.NoteOnEvent(tick=0, channel=0, data=[63, 0]),
   midi.NoteOnEvent(tick=0, channel=0, data=[74, 46]),
   midi.NoteOnEvent(tick=240, channel=0, data=[74, 0]),
   midi.NoteOnEvent(tick=0, channel=0, data=[65, 27]),
   midi.NoteOnEvent(tick=0, channel=0, data=[76, 46]),
   midi.NoteOnEvent(tick=240, channel=0, data=[76, 0]),
   midi.NoteOnEvent(tick=0, channel=0, data=[77, 49]),
   midi.NoteOnEvent(tick=210, channel=0, data=[65, 27]),
   midi.NoteOnEvent(tick=10, channel=0, data=[67, 25]),
   midi.NoteOnEvent(tick=10, channel=0, data=[74, 25]),
   midi.NoteOnEvent(tick=10, channel=0, data=[77, 0]),
   midi.NoteOnEvent(tick=0, channel=0, data=[65, 0]),
   midi.NoteOnEvent(tick=0, channel=0, data=[79, 43]),
   midi.NoteOnEvent(tick=240, channel=0, data=[79, 0]),
   midi.NoteOnEvent(tick=0, channel=0, data=[74, 0]),
   midi.NoteOnEvent(tick=0, channel=0, data=[65, 0]),
   midi.NoteOnEvent(tick=0, channel=0, data=[67, 0]),
   midi.NoteOnEvent(tick=0, channel=0, data=[81, 49]),
   midi.NoteOnEvent(tick=240, channel=0, data=[69, 28]),
   midi.NoteOnEvent(tick=0, channel=0, data=[72, 25]),
   midi.NoteOnEvent(tick=240, channel=0, data=[81, 0]),
   midi.NoteOnEvent(tick=0, channel=0, data=[79, 44]),
   midi.NoteOnEvent(tick=240, channel=0, data=[72, 0]),
   midi.NoteOnEvent(tick=0, channel=0, data=[69, 0]),
   midi.NoteOnEvent(tick=0, channel=0, data=[67, 25]),
   midi.NoteOnEvent(tick=0, channel=0, data=[72, 25]),
   midi.NoteOnEvent(tick=240, channel=0, data=[72, 0]),
   midi.NoteOnEvent(tick=0, channel=0, data=[67, 0]),
   midi.NoteOnEvent(tick=0, channel=0, data=[79, 0]),
   midi.NoteOnEvent(tick=0, channel=0, data=[77, 38]),
   midi.NoteOnEvent(tick=240, channel=0, data=[65, 25]),
   midi.NoteOnEvent(tick=0, channel=0, data=[72, 25]),
   midi.NoteOnEvent(tick=240, channel=0, data=[77, 0]),
   midi.NoteOnEvent(tick=240, channel=0, data=[72, 0]),
   midi.NoteOnEvent(tick=0, channel=0, data=[65, 0]),
   midi.NoteOnEvent(tick=0, channel=0, data=[65, 47]),
   midi.NoteOnEvent(tick=0, channel=0, data=[72, 47]),
   midi.NoteOnEvent(tick=210, channel=0, data=[72, 0]),
   midi.NoteOnEvent(tick=0, channel=0, data=[65, 0]),
   midi.NoteOnEvent(tick=30, channel=0, data=[65, 57]),
   midi.NoteOnEvent(tick=0, channel=0, data=[74, 57]),
   midi.NoteOnEvent(tick=240, channel=0, data=[74, 0]),
   midi.NoteOnEvent(tick=0, channel=0, data=[65, 0]),
   midi.NoteOnEvent(tick=0, channel=0, data=[64, 47]),
   midi.NoteOnEvent(tick=0, channel=0, data=[72, 47]),
   midi.NoteOnEvent(tick=210, channel=0, data=[72, 0]),
   midi.NoteOnEvent(tick=0, channel=0, data=[64, 0]),
   midi.NoteOnEvent(tick=30, channel=0, data=[65, 58]),
   midi.NoteOnEvent(tick=0, channel=0, data=[74, 58]),
   midi.NoteOnEvent(tick=240, channel=0, data=[74, 0]),
   midi.NoteOnEvent(tick=0, channel=0, data=[65, 0]),
   midi.NoteOnEvent(tick=0, channel=0, data=[64, 47]),
   midi.NoteOnEvent(tick=0, channel=0, data=[72, 47]),
   midi.NoteOnEvent(tick=210, channel=0, data=[72, 0]),
   midi.NoteOnEvent(tick=0, channel=0, data=[64, 0]),
   midi.NoteOnEvent(tick=30, channel=0, data=[63, 54]),
   midi.NoteOnEvent(tick=0, channel=0, data=[72, 54]),
   midi.NoteOnEvent(tick=210, channel=0, data=[72, 0]),
   midi.NoteOnEvent(tick=0, channel=0, data=[63, 0]),
   midi.NoteOnEvent(tick=30, channel=0, data=[62, 47]),
   midi.NoteOnEvent(tick=0, channel=0, data=[70, 51]),
   midi.NoteOnEvent(tick=240, channel=0, data=[62, 0]),
   midi.NoteOnEvent(tick=0, channel=0, data=[61, 47]),
   midi.NoteOnEvent(tick=240, channel=0, data=[61, 0]),
   midi.NoteOnEvent(tick=0, channel=0, data=[70, 0]),
   midi.NoteOnEvent(tick=0, channel=0, data=[60, 46]),
   midi.NoteOnEvent(tick=0, channel=0, data=[69, 46]),
   midi.NoteOnEvent(tick=240, channel=0, data=[69, 0]),
   midi.NoteOnEvent(tick=0, channel=0, data=[60, 0]),
   midi.NoteOnEvent(tick=0, channel=0, data=[62, 50]),
   midi.NoteOnEvent(tick=0, channel=0, data=[67, 50]),
   midi.NoteOnEvent(tick=480, channel=0, data=[67, 0]),
   midi.NoteOnEvent(tick=0, channel=0, data=[62, 0]),
   midi.NoteOnEvent(tick=0, channel=0, data=[64, 43]),
   midi.NoteOnEvent(tick=0, channel=0, data=[69, 43]),
   midi.NoteOnEvent(tick=480, channel=0, data=[69, 0]),
   midi.NoteOnEvent(tick=0, channel=0, data=[64, 0]),
   midi.NoteOnEvent(tick=0, channel=0, data=[60, 38]),
   midi.NoteOnEvent(tick=0, channel=0, data=[65, 38]),
   midi.NoteOnEvent(tick=720, channel=0, data=[65, 0]),
   midi.NoteOnEvent(tick=0, channel=0, data=[60, 0]),
   midi.NoteOnEvent(tick=0, channel=0, data=[53, 39]),
   midi.NoteOnEvent(tick=0, channel=0, data=[60, 39]),
   midi.NoteOnEvent(tick=210, channel=0, data=[60, 0]),
   midi.NoteOnEvent(tick=0, channel=0, data=[53, 0]),
   midi.NoteOnEvent(tick=30, channel=0, data=[53, 50]),
   midi.NoteOnEvent(tick=0, channel=0, data=[62, 50]),
   midi.NoteOnEvent(tick=240, channel=0, data=[62, 0]),
   midi.NoteOnEvent(tick=0, channel=0, data=[53, 0]),
   midi.NoteOnEvent(tick=0, channel=0, data=[52, 39]),
   midi.NoteOnEvent(tick=0, channel=0, data=[60, 39]),
   midi.NoteOnEvent(tick=210, channel=0, data=[60, 0]),
   midi.NoteOnEvent(tick=0, channel=0, data=[52, 0]),
   midi.NoteOnEvent(tick=30, channel=0, data=[53, 51]),
   midi.NoteOnEvent(tick=0, channel=0, data=[62, 51]),
   midi.NoteOnEvent(tick=240, channel=0, data=[62, 0]),
   midi.NoteOnEvent(tick=0, channel=0, data=[53, 0]),
   midi.NoteOnEvent(tick=0, channel=0, data=[52, 39]),
   midi.NoteOnEvent(tick=0, channel=0, data=[60, 39]),
   midi.NoteOnEvent(tick=210, channel=0, data=[60, 0]),
   midi.NoteOnEvent(tick=0, channel=0, data=[52, 0]),
   midi.NoteOnEvent(tick=30, channel=0, data=[51, 48]),
   midi.NoteOnEvent(tick=0, channel=0, data=[60, 48]),
   midi.NoteOnEvent(tick=210, channel=0, data=[60, 0]),
   midi.NoteOnEvent(tick=0, channel=0, data=[51, 0]),
   midi.NoteOnEvent(tick=30, channel=0, data=[50, 42]),
   midi.NoteOnEvent(tick=0, channel=0, data=[58, 46]),
   midi.NoteOnEvent(tick=240, channel=0, data=[50, 0]),
   midi.NoteOnEvent(tick=0, channel=0, data=[49, 42]),
   midi.NoteOnEvent(tick=240, channel=0, data=[49, 0]),
   midi.NoteOnEvent(tick=0, channel=0, data=[58, 0]),
   midi.NoteOnEvent(tick=0, channel=0, data=[48, 41]),
   midi.NoteOnEvent(tick=0, channel=0, data=[57, 41]),
   midi.NoteOnEvent(tick=240, channel=0, data=[57, 0]),
   midi.NoteOnEvent(tick=0, channel=0, data=[48, 0]),
   midi.NoteOnEvent(tick=0, channel=0, data=[50, 39]),
   midi.NoteOnEvent(tick=0, channel=0, data=[55, 39]),
   midi.NoteOnEvent(tick=480, channel=0, data=[55, 0]),
   midi.NoteOnEvent(tick=0, channel=0, data=[50, 0]),
   midi.NoteOnEvent(tick=0, channel=0, data=[52, 38]),
   midi.NoteOnEvent(tick=0, channel=0, data=[57, 38]),
   midi.NoteOnEvent(tick=480, channel=0, data=[57, 0]),
   midi.NoteOnEvent(tick=0, channel=0, data=[52, 0]),
   midi.NoteOnEvent(tick=0, channel=0, data=[48, 34]),
   midi.NoteOnEvent(tick=0, channel=0, data=[53, 34]),
   midi.NoteOnEvent(tick=720, channel=0, data=[53, 0]),
   midi.NoteOnEvent(tick=0, channel=0, data=[48, 0]),
   midi.EndOfTrackEvent(tick=0, data=[])]),
 midi.Track(\
  [midi.TrackNameEvent(tick=0, text='Piano left', data=[80, 105, 97, 110, 111, 32, 108, 101, 102, 116]),
   midi.ProgramChangeEvent(tick=0, channel=0, data=[0]),
   midi.ControlChangeEvent(tick=0, channel=0, data=[7, 100]),
   midi.ControlChangeEvent(tick=0, channel=0, data=[10, 64]),
   midi.ControlChangeEvent(tick=494, channel=0, data=[64, 127]),
   midi.ControlChangeEvent(tick=225, channel=0, data=[91, 127]),
   midi.NoteOnEvent(tick=241, channel=0, data=[53, 41]),
   midi.NoteOnEvent(tick=240, channel=0, data=[53, 0]),
   midi.NoteOnEvent(tick=0, channel=0, data=[60, 23]),
   midi.NoteOnEvent(tick=0, channel=0, data=[69, 23]),
   midi.NoteOnEvent(tick=480, channel=0, data=[69, 0]),
   midi.NoteOnEvent(tick=0, channel=0, data=[60, 0]),
   midi.NoteOnEvent(tick=0, channel=0, data=[60, 21]),
   midi.NoteOnEvent(tick=0, channel=0, data=[69, 21]),
   midi.NoteOnEvent(tick=240, channel=0, data=[69, 0]),
   midi.NoteOnEvent(tick=0, channel=0, data=[60, 0]),
   midi.NoteOnEvent(tick=0, channel=0, data=[58, 41]),
   midi.ControlChangeEvent(tick=2, channel=0, data=[64, 0]),
   midi.ControlChangeEvent(tick=168, channel=0, data=[64, 127]),
   midi.NoteOnEvent(tick=70, channel=0, data=[62, 23]),
   midi.NoteOnEvent(tick=0, channel=0, data=[70, 23]),
   midi.NoteOnEvent(tick=240, channel=0, data=[70, 0]),
   midi.NoteOnEvent(tick=0, channel=0, data=[62, 0]),
   midi.NoteOnEvent(tick=0, channel=0, data=[55, 33]),
   midi.ControlChangeEvent(tick=14, channel=0, data=[64, 0]),
   midi.ControlChangeEvent(tick=113, channel=0, data=[64, 127]),
   midi.NoteOnEvent(tick=113, channel=0, data=[55, 0]),
   midi.NoteOnEvent(tick=0, channel=0, data=[70, 21]),
   midi.NoteOnEvent(tick=0, channel=0, data=[62, 21]),
   midi.NoteOnEvent(tick=240, channel=0, data=[62, 0]),
   midi.NoteOnEvent(tick=0, channel=0, data=[70, 0]),
   midi.NoteOnEvent(tick=0, channel=0, data=[58, 0]),
   midi.ControlChangeEvent(tick=0, channel=0, data=[64, 0]),
   midi.NoteOnEvent(tick=0, channel=0, data=[48, 41]),
   midi.NoteOnEvent(tick=240, channel=0, data=[48, 0]),
   midi.NoteOnEvent(tick=0, channel=0, data=[64, 24]),
   midi.NoteOnEvent(tick=0, channel=0, data=[58, 27]),
   midi.NoteOnEvent(tick=240, channel=0, data=[58, 0]),
   midi.NoteOnEvent(tick=0, channel=0, data=[57, 30]),
   midi.NoteOnEvent(tick=240, channel=0, data=[57, 0]),
   midi.NoteOnEvent(tick=0, channel=0, data=[64, 0]),
   midi.NoteOnEvent(tick=0, channel=0, data=[64, 23]),
   midi.NoteOnEvent(tick=0, channel=0, data=[55, 23]),
   midi.NoteOnEvent(tick=240, channel=0, data=[55, 0]),
   midi.NoteOnEvent(tick=0, channel=0, data=[64, 0]),
   midi.NoteOnEvent(tick=0, channel=0, data=[53, 38]),
   midi.ControlChangeEvent(tick=85, channel=0, data=[64, 127]),
   midi.NoteOnEvent(tick=155, channel=0, data=[53, 0]),
   midi.NoteOnEvent(tick=0, channel=0, data=[65, 21]),
   midi.NoteOnEvent(tick=0, channel=0, data=[57, 21]),
   midi.NoteOnEvent(tick=480, channel=0, data=[57, 0]),
   midi.NoteOnEvent(tick=0, channel=0, data=[65, 0]),
   midi.NoteOnEvent(tick=0, channel=0, data=[57, 25]),
   midi.NoteOnEvent(tick=0, channel=0, data=[65, 25]),
   midi.NoteOnEvent(tick=240, channel=0, data=[65, 0]),
   midi.NoteOnEvent(tick=0, channel=0, data=[57, 0]),
   midi.NoteOnEvent(tick=0, channel=0, data=[53, 41]),
   midi.ControlChangeEvent(tick=4, channel=0, data=[64, 0]),
   midi.ControlChangeEvent(tick=133, channel=0, data=[64, 127]),
   midi.NoteOnEvent(tick=103, channel=0, data=[60, 23]),
   midi.NoteOnEvent(tick=0, channel=0, data=[69, 23]),
   midi.NoteOnEvent(tick=240, channel=0, data=[53, 0]),
   midi.NoteOnEvent(tick=0, channel=0, data=[57, 37]),
   midi.NoteOnEvent(tick=240, channel=0, data=[69, 0]),
   midi.NoteOnEvent(tick=0, channel=0, data=[60, 0]),
   midi.NoteOnEvent(tick=0, channel=0, data=[60, 21]),
   midi.NoteOnEvent(tick=0, channel=0, data=[65, 21]),
   midi.NoteOnEvent(tick=240, channel=0, data=[65, 0]),
   midi.NoteOnEvent(tick=0, channel=0, data=[60, 0]),
   midi.NoteOnEvent(tick=0, channel=0, data=[57, 0]),
   midi.NoteOnEvent(tick=0, channel=0, data=[58, 41]),
   midi.ControlChangeEvent(tick=3, channel=0, data=[64, 0]),
   midi.ControlChangeEvent(tick=124, channel=0, data=[64, 127]),
   midi.NoteOnEvent(tick=113, channel=0, data=[62, 23]),
   midi.NoteOnEvent(tick=0, channel=0, data=[70, 23]),
   midi.NoteOnEvent(tick=240, channel=0, data=[70, 0]),
   midi.NoteOnEvent(tick=0, channel=0, data=[62, 0]),
   midi.NoteOnEvent(tick=0, channel=0, data=[55, 33]),
   midi.ControlChangeEvent(tick=15, channel=0, data=[64, 0]),
   midi.ControlChangeEvent(tick=155, channel=0, data=[64, 127]),
   midi.NoteOnEvent(tick=70, channel=0, data=[55, 0]),
   midi.NoteOnEvent(tick=0, channel=0, data=[70, 21]),
   midi.NoteOnEvent(tick=0, channel=0, data=[62, 21]),
   midi.NoteOnEvent(tick=240, channel=0, data=[62, 0]),
   midi.NoteOnEvent(tick=0, channel=0, data=[70, 0]),
   midi.NoteOnEvent(tick=0, channel=0, data=[58, 0]),
   midi.ControlChangeEvent(tick=0, channel=0, data=[64, 0]),
   midi.NoteOnEvent(tick=0, channel=0, data=[48, 41]),
   midi.NoteOnEvent(tick=240, channel=0, data=[48, 0]),
   midi.NoteOnEvent(tick=0, channel=0, data=[64, 24]),
   midi.NoteOnEvent(tick=0, channel=0, data=[58, 27]),
   midi.NoteOnEvent(tick=240, channel=0, data=[58, 0]),
   midi.NoteOnEvent(tick=0, channel=0, data=[57, 30]),
   midi.NoteOnEvent(tick=240, channel=0, data=[57, 0]),
   midi.NoteOnEvent(tick=0, channel=0, data=[64, 0]),
   midi.NoteOnEvent(tick=0, channel=0, data=[64, 23]),
   midi.NoteOnEvent(tick=0, channel=0, data=[55, 23]),
   midi.NoteOnEvent(tick=240, channel=0, data=[55, 0]),
   midi.NoteOnEvent(tick=0, channel=0, data=[64, 0]),
   midi.NoteOnEvent(tick=0, channel=0, data=[53, 38]),
   midi.ControlChangeEvent(tick=85, channel=0, data=[64, 127]),
   midi.NoteOnEvent(tick=155, channel=0, data=[53, 0]),
   midi.NoteOnEvent(tick=0, channel=0, data=[60, 21]),
   midi.NoteOnEvent(tick=0, channel=0, data=[57, 21]),
   midi.NoteOnEvent(tick=480, channel=0, data=[57, 0]),
   midi.NoteOnEvent(tick=0, channel=0, data=[60, 0]),
   midi.NoteOnEvent(tick=0, channel=0, data=[57, 25]),
   midi.NoteOnEvent(tick=0, channel=0, data=[65, 25]),
   midi.NoteOnEvent(tick=240, channel=0, data=[65, 0]),
   midi.NoteOnEvent(tick=0, channel=0, data=[57, 0]),
   midi.ControlChangeEvent(tick=0, channel=0, data=[64, 0]),
   midi.NoteOnEvent(tick=0, channel=0, data=[48, 40]),
   midi.NoteOnEvent(tick=240, channel=0, data=[64, 34]),
   midi.NoteOnEvent(tick=0, channel=0, data=[58, 34]),
   midi.NoteOnEvent(tick=480, channel=0, data=[58, 0]),
   midi.NoteOnEvent(tick=0, channel=0, data=[64, 0]),
   midi.NoteOnEvent(tick=0, channel=0, data=[64, 34]),
   midi.NoteOnEvent(tick=0, channel=0, data=[58, 34]),
   midi.NoteOnEvent(tick=240, channel=0, data=[58, 0]),
   midi.NoteOnEvent(tick=0, channel=0, data=[64, 0]),
   midi.NoteOnEvent(tick=0, channel=0, data=[48, 0]),
   midi.NoteOnEvent(tick=0, channel=0, data=[48, 40]),
   midi.NoteOnEvent(tick=240, channel=0, data=[62, 52]),
   midi.NoteOnEvent(tick=480, channel=0, data=[62, 0]),
   midi.NoteOnEvent(tick=0, channel=0, data=[62, 40]),
   midi.NoteOnEvent(tick=240, channel=0, data=[62, 0]),
   midi.NoteOnEvent(tick=0, channel=0, data=[48, 0]),
   midi.NoteOnEvent(tick=0, channel=0, data=[48, 37]),
   midi.NoteOnEvent(tick=240, channel=0, data=[55, 32]),
   midi.NoteOnEvent(tick=0, channel=0, data=[62, 52]),
   midi.NoteOnEvent(tick=240, channel=0, data=[48, 0]),
   midi.NoteOnEvent(tick=0, channel=0, data=[48, 33]),
   midi.NoteOnEvent(tick=237, channel=0, data=[62, 0]),
   midi.NoteOnEvent(tick=3, channel=0, data=[55, 0]),
   midi.NoteOnEvent(tick=0, channel=0, data=[54, 32]),
   midi.NoteOnEvent(tick=240, channel=0, data=[54, 0]),
   midi.NoteOnEvent(tick=0, channel=0, data=[48, 0]),
   midi.NoteOnEvent(tick=0, channel=0, data=[48, 40]),
   midi.ControlChangeEvent(tick=85, channel=0, data=[64, 127]),
   midi.NoteOnEvent(tick=155, channel=0, data=[62, 28]),
   midi.NoteOnEvent(tick=0, channel=0, data=[55, 23]),
   midi.NoteOnEvent(tick=480, channel=0, data=[55, 0]),
   midi.NoteOnEvent(tick=0, channel=0, data=[62, 0]),
   midi.NoteOnEvent(tick=0, channel=0, data=[62, 34]),
   midi.NoteOnEvent(tick=0, channel=0, data=[55, 34]),
   midi.ControlChangeEvent(tick=6, channel=0, data=[64, 0]),
   midi.NoteOnEvent(tick=234, channel=0, data=[55, 0]),
   midi.NoteOnEvent(tick=0, channel=0, data=[62, 0]),
   midi.NoteOnEvent(tick=0, channel=0, data=[48, 0]),
   midi.NoteOnEvent(tick=0, channel=0, data=[48, 42]),
   midi.NoteOnEvent(tick=240, channel=0, data=[62, 54]),
   midi.NoteOnEvent(tick=480, channel=0, data=[62, 0]),
   midi.NoteOnEvent(tick=0, channel=0, data=[60, 44]),
   midi.NoteOnEvent(tick=240, channel=0, data=[60, 0]),
   midi.NoteOnEvent(tick=0, channel=0, data=[48, 0]),
   midi.NoteOnEvent(tick=0, channel=0, data=[48, 45]),
   midi.NoteOnEvent(tick=240, channel=0, data=[59, 48]),
   midi.NoteOnEvent(tick=0, channel=0, data=[62, 48]),
   midi.NoteOnEvent(tick=477, channel=0, data=[62, 0]),
   midi.NoteOnEvent(tick=3, channel=0, data=[59, 0]),
   midi.NoteOnEvent(tick=0, channel=0, data=[59, 44]),
   midi.NoteOnEvent(tick=240, channel=0, data=[59, 0]),
   midi.NoteOnEvent(tick=0, channel=0, data=[48, 0]),
   midi.NoteOnEvent(tick=0, channel=0, data=[48, 40]),
   midi.NoteOnEvent(tick=240, channel=0, data=[57, 47]),
   midi.NoteOnEvent(tick=0, channel=0, data=[64, 57]),
   midi.NoteOnEvent(tick=240, channel=0, data=[48, 0]),
   midi.NoteOnEvent(tick=0, channel=0, data=[48, 36]),
   midi.NoteOnEvent(tick=240, channel=0, data=[64, 0]),
   midi.NoteOnEvent(tick=0, channel=0, data=[57, 0]),
   midi.NoteOnEvent(tick=0, channel=0, data=[64, 50]),
   midi.NoteOnEvent(tick=0, channel=0, data=[56, 41]),
   midi.NoteOnEvent(tick=240, channel=0, data=[48, 0]),
   midi.NoteOnEvent(tick=0, channel=0, data=[48, 56]),
   midi.NoteOnEvent(tick=240, channel=0, data=[56, 0]),
   midi.NoteOnEvent(tick=0, channel=0, data=[64, 0]),
   midi.NoteOnEvent(tick=0, channel=0, data=[57, 50]),
   midi.NoteOnEvent(tick=0, channel=0, data=[64, 50]),
   midi.NoteOnEvent(tick=240, channel=0, data=[48, 0]),
   midi.NoteOnEvent(tick=0, channel=0, data=[48, 50]),
   midi.NoteOnEvent(tick=240, channel=0, data=[64, 0]),
   midi.NoteOnEvent(tick=0, channel=0, data=[57, 0]),
   midi.NoteOnEvent(tick=0, channel=0, data=[52, 50]),
   midi.NoteOnEvent(tick=0, channel=0, data=[60, 50]),
   midi.NoteOnEvent(tick=240, channel=0, data=[60, 0]),
   midi.NoteOnEvent(tick=0, channel=0, data=[52, 0]),
   midi.NoteOnEvent(tick=0, channel=0, data=[48, 0]),
   midi.NoteOnEvent(tick=0, channel=0, data=[41, 56]),
   midi.ControlChangeEvent(tick=69, channel=0, data=[64, 127]),
   midi.NoteOnEvent(tick=171, channel=0, data=[57, 40]),
   midi.NoteOnEvent(tick=0, channel=0, data=[48, 40]),
   midi.NoteOnEvent(tick=480, channel=0, data=[48, 0]),
   midi.NoteOnEvent(tick=0, channel=0, data=[57, 0]),
   midi.NoteOnEvent(tick=0, channel=0, data=[48, 34]),
   midi.NoteOnEvent(tick=0, channel=0, data=[57, 34]),
   midi.ControlChangeEvent(tick=14, channel=0, data=[64, 0]),
   midi.NoteOnEvent(tick=226, channel=0, data=[57, 0]),
   midi.NoteOnEvent(tick=0, channel=0, data=[48, 0]),
   midi.NoteOnEvent(tick=0, channel=0, data=[41, 0]),
   midi.NoteOnEvent(tick=0, channel=0, data=[46, 34]),
   midi.NoteOnEvent(tick=240, channel=0, data=[50, 22]),
   midi.NoteOnEvent(tick=0, channel=0, data=[58, 24]),
   midi.NoteOnEvent(tick=240, channel=0, data=[46, 0]),
   midi.NoteOnEvent(tick=0, channel=0, data=[43, 34]),
   midi.NoteOnEvent(tick=240, channel=0, data=[58, 0]),
   midi.NoteOnEvent(tick=0, channel=0, data=[50, 0]),
   midi.NoteOnEvent(tick=0, channel=0, data=[62, 20]),
   midi.NoteOnEvent(tick=0, channel=0, data=[58, 21]),
   midi.NoteOnEvent(tick=240, channel=0, data=[58, 0]),
   midi.NoteOnEvent(tick=0, channel=0, data=[62, 0]),
   midi.NoteOnEvent(tick=0, channel=0, data=[43, 0]),
   midi.NoteOnEvent(tick=0, channel=0, data=[48, 30]),
   midi.NoteOnEvent(tick=240, channel=0, data=[48, 0]),
   midi.NoteOnEvent(tick=0, channel=0, data=[58, 32]),
   midi.NoteOnEvent(tick=0, channel=0, data=[64, 22]),
   midi.NoteOnEvent(tick=240, channel=0, data=[58, 0]),
   midi.NoteOnEvent(tick=0, channel=0, data=[57, 35]),
   midi.NoteOnEvent(tick=240, channel=0, data=[57, 0]),
   midi.NoteOnEvent(tick=0, channel=0, data=[64, 0]),
   midi.NoteOnEvent(tick=0, channel=0, data=[55, 28]),
   midi.NoteOnEvent(tick=0, channel=0, data=[64, 22]),
   midi.NoteOnEvent(tick=240, channel=0, data=[64, 0]),
   midi.NoteOnEvent(tick=0, channel=0, data=[55, 0]),
   midi.NoteOnEvent(tick=0, channel=0, data=[53, 33]),
   midi.ControlChangeEvent(tick=99, channel=0, data=[64, 127]),
   midi.NoteOnEvent(tick=141, channel=0, data=[60, 20]),
   midi.NoteOnEvent(tick=0, channel=0, data=[57, 20]),
   midi.NoteOnEvent(tick=240, channel=0, data=[53, 0]),
   midi.NoteOnEvent(tick=240, channel=0, data=[57, 0]),
   midi.NoteOnEvent(tick=0, channel=0, data=[60, 0]),
   midi.NoteOnEvent(tick=0, channel=0, data=[65, 27]),
   midi.NoteOnEvent(tick=0, channel=0, data=[57, 27]),
   midi.ControlChangeEvent(tick=10, channel=0, data=[64, 0]),
   midi.ControlChangeEvent(tick=131, channel=0, data=[64, 127]),
   midi.NoteOnEvent(tick=99, channel=0, data=[57, 0]),
   midi.NoteOnEvent(tick=0, channel=0, data=[65, 0]),
   midi.NoteOnEvent(tick=0, channel=0, data=[53, 36]),
   midi.NoteOnEvent(tick=240, channel=0, data=[69, 25]),
   midi.NoteOnEvent(tick=0, channel=0, data=[60, 25]),
   midi.NoteOnEvent(tick=240, channel=0, data=[53, 0]),
   midi.NoteOnEvent(tick=0, channel=0, data=[57, 33]),
   midi.NoteOnEvent(tick=240, channel=0, data=[60, 0]),
   midi.NoteOnEvent(tick=0, channel=0, data=[69, 0]),
   midi.NoteOnEvent(tick=0, channel=0, data=[65, 22]),
   midi.NoteOnEvent(tick=0, channel=0, data=[60, 22]),
   midi.NoteOnEvent(tick=240, channel=0, data=[60, 0]),
   midi.NoteOnEvent(tick=0, channel=0, data=[65, 0]),
   midi.NoteOnEvent(tick=0, channel=0, data=[57, 0]),
   midi.ControlChangeEvent(tick=0, channel=0, data=[64, 0]),
   midi.NoteOnEvent(tick=0, channel=0, data=[58, 36]),
   midi.ControlChangeEvent(tick=97, channel=0, data=[64, 127]),
   midi.NoteOnEvent(tick=143, channel=0, data=[70, 25]),
   midi.NoteOnEvent(tick=0, channel=0, data=[62, 25]),
   midi.NoteOnEvent(tick=240, channel=0, data=[62, 0]),
   midi.NoteOnEvent(tick=0, channel=0, data=[70, 0]),
   midi.NoteOnEvent(tick=0, channel=0, data=[58, 0]),
   midi.NoteOnEvent(tick=0, channel=0, data=[55, 29]),
   midi.ControlChangeEvent(tick=16, channel=0, data=[64, 0]),
   midi.ControlChangeEvent(tick=64, channel=0, data=[64, 127]),
   midi.NoteOnEvent(tick=100, channel=0, data=[59, 22]),
   midi.NoteOnEvent(tick=10, channel=0, data=[62, 22]),
   midi.NoteOnEvent(tick=10, channel=0, data=[71, 22]),
   midi.NoteOnEvent(tick=280, channel=0, data=[71, 0]),
   midi.NoteOnEvent(tick=0, channel=0, data=[55, 0]),
   midi.NoteOnEvent(tick=0, channel=0, data=[59, 0]),
   midi.NoteOnEvent(tick=0, channel=0, data=[62, 0]),
   midi.ControlChangeEvent(tick=0, channel=0, data=[64, 0]),
   midi.NoteOnEvent(tick=0, channel=0, data=[60, 34]),
   midi.ControlChangeEvent(tick=85, channel=0, data=[64, 127]),
   midi.NoteOnEvent(tick=155, channel=0, data=[69, 21]),
   midi.NoteOnEvent(tick=0, channel=0, data=[65, 21]),
   midi.NoteOnEvent(tick=240, channel=0, data=[60, 0]),
   midi.NoteOnEvent(tick=0, channel=0, data=[60, 31]),
   midi.ControlChangeEvent(tick=14, channel=0, data=[64, 0]),
   midi.ControlChangeEvent(tick=170, channel=0, data=[64, 127]),
   midi.NoteOnEvent(tick=56, channel=0, data=[65, 0]),
   midi.NoteOnEvent(tick=0, channel=0, data=[69, 0]),
   midi.NoteOnEvent(tick=0, channel=0, data=[64, 17]),
   midi.NoteOnEvent(tick=0, channel=0, data=[70, 17]),
   midi.NoteOnEvent(tick=240, channel=0, data=[70, 0]),
   midi.NoteOnEvent(tick=0, channel=0, data=[64, 0]),
   midi.NoteOnEvent(tick=0, channel=0, data=[60, 0]),
   midi.ControlChangeEvent(tick=0, channel=0, data=[64, 0]),
   midi.NoteOnEvent(tick=0, channel=0, data=[53, 29]),
   midi.ControlChangeEvent(tick=169, channel=0, data=[64, 127]),
   midi.NoteOnEvent(tick=71, channel=0, data=[69, 17]),
   midi.NoteOnEvent(tick=0, channel=0, data=[60, 17]),
   midi.NoteOnEvent(tick=240, channel=0, data=[53, 0]),
   midi.NoteOnEvent(tick=240, channel=0, data=[60, 0]),
   midi.NoteOnEvent(tick=0, channel=0, data=[69, 0]),
   midi.NoteOnEvent(tick=0, channel=0, data=[69, 25]),
   midi.NoteOnEvent(tick=0, channel=0, data=[60, 25]),
   midi.ControlChangeEvent(tick=14, channel=0, data=[64, 0]),
   midi.NoteOnEvent(tick=226, channel=0, data=[60, 0]),
   midi.NoteOnEvent(tick=0, channel=0, data=[69, 0]),
   midi.NoteOnEvent(tick=0, channel=0, data=[48, 40]),
   midi.NoteOnEvent(tick=240, channel=0, data=[64, 40]),
   midi.NoteOnEvent(tick=0, channel=0, data=[58, 40]),
   midi.NoteOnEvent(tick=480, channel=0, data=[58, 0]),
   midi.NoteOnEvent(tick=0, channel=0, data=[64, 0]),
   midi.NoteOnEvent(tick=0, channel=0, data=[64, 40]),
   midi.NoteOnEvent(tick=0, channel=0, data=[58, 40]),
   midi.NoteOnEvent(tick=240, channel=0, data=[58, 0]),
   midi.NoteOnEvent(tick=0, channel=0, data=[64, 0]),
   midi.NoteOnEvent(tick=0, channel=0, data=[48, 0]),
   midi.NoteOnEvent(tick=0, channel=0, data=[48, 40]),
   midi.NoteOnEvent(tick=240, channel=0, data=[62, 52]),
   midi.NoteOnEvent(tick=480, channel=0, data=[62, 0]),
   midi.NoteOnEvent(tick=0, channel=0, data=[62, 40]),
   midi.NoteOnEvent(tick=240, channel=0, data=[62, 0]),
   midi.NoteOnEvent(tick=0, channel=0, data=[48, 0]),
   midi.NoteOnEvent(tick=0, channel=0, data=[48, 37]),
   midi.NoteOnEvent(tick=240, channel=0, data=[55, 32]),
   midi.NoteOnEvent(tick=0, channel=0, data=[62, 52]),
   midi.NoteOnEvent(tick=240, channel=0, data=[48, 0]),
   midi.NoteOnEvent(tick=0, channel=0, data=[48, 33]),
   midi.NoteOnEvent(tick=237, channel=0, data=[62, 0]),
   midi.NoteOnEvent(tick=3, channel=0, data=[55, 0]),
   midi.NoteOnEvent(tick=0, channel=0, data=[54, 32]),
   midi.NoteOnEvent(tick=240, channel=0, data=[54, 0]),
   midi.NoteOnEvent(tick=0, channel=0, data=[48, 0]),
   midi.NoteOnEvent(tick=0, channel=0, data=[48, 40]),
   midi.ControlChangeEvent(tick=127, channel=0, data=[64, 127]),
   midi.NoteOnEvent(tick=113, channel=0, data=[62, 30]),
   midi.NoteOnEvent(tick=0, channel=0, data=[55, 25]),
   midi.NoteOnEvent(tick=480, channel=0, data=[55, 0]),
   midi.NoteOnEvent(tick=0, channel=0, data=[62, 0]),
   midi.NoteOnEvent(tick=0, channel=0, data=[62, 34]),
   midi.NoteOnEvent(tick=0, channel=0, data=[55, 34]),
   midi.ControlChangeEvent(tick=18, channel=0, data=[64, 0]),
   midi.NoteOnEvent(tick=222, channel=0, data=[55, 0]),
   midi.NoteOnEvent(tick=0, channel=0, data=[62, 0]),
   midi.NoteOnEvent(tick=0, channel=0, data=[48, 0]),
   midi.NoteOnEvent(tick=0, channel=0, data=[48, 42]),
   midi.NoteOnEvent(tick=240, channel=0, data=[62, 54]),
   midi.NoteOnEvent(tick=480, channel=0, data=[62, 0]),
   midi.NoteOnEvent(tick=0, channel=0, data=[60, 44]),
   midi.NoteOnEvent(tick=240, channel=0, data=[60, 0]),
   midi.NoteOnEvent(tick=0, channel=0, data=[48, 0]),
   midi.NoteOnEvent(tick=0, channel=0, data=[48, 45]),
   midi.NoteOnEvent(tick=240, channel=0, data=[59, 48]),
   midi.NoteOnEvent(tick=0, channel=0, data=[62, 48]),
   midi.NoteOnEvent(tick=477, channel=0, data=[62, 0]),
   midi.NoteOnEvent(tick=3, channel=0, data=[59, 0]),
   midi.NoteOnEvent(tick=0, channel=0, data=[59, 44]),
   midi.NoteOnEvent(tick=240, channel=0, data=[59, 0]),
   midi.NoteOnEvent(tick=0, channel=0, data=[48, 0]),
   midi.NoteOnEvent(tick=0, channel=0, data=[48, 40]),
   midi.NoteOnEvent(tick=240, channel=0, data=[57, 47]),
   midi.NoteOnEvent(tick=0, channel=0, data=[64, 57]),
   midi.NoteOnEvent(tick=240, channel=0, data=[48, 0]),
   midi.NoteOnEvent(tick=0, channel=0, data=[48, 36]),
   midi.NoteOnEvent(tick=240, channel=0, data=[64, 0]),
   midi.NoteOnEvent(tick=0, channel=0, data=[57, 0]),
   midi.NoteOnEvent(tick=0, channel=0, data=[64, 50]),
   midi.NoteOnEvent(tick=0, channel=0, data=[56, 41]),
   midi.NoteOnEvent(tick=240, channel=0, data=[48, 0]),
   midi.NoteOnEvent(tick=0, channel=0, data=[48, 56]),
   midi.NoteOnEvent(tick=240, channel=0, data=[56, 0]),
   midi.NoteOnEvent(tick=0, channel=0, data=[64, 0]),
   midi.NoteOnEvent(tick=0, channel=0, data=[57, 50]),
   midi.NoteOnEvent(tick=0, channel=0, data=[64, 50]),
   midi.NoteOnEvent(tick=240, channel=0, data=[48, 0]),
   midi.NoteOnEvent(tick=0, channel=0, data=[48, 50]),
   midi.NoteOnEvent(tick=240, channel=0, data=[64, 0]),
   midi.NoteOnEvent(tick=0, channel=0, data=[57, 0]),
   midi.NoteOnEvent(tick=0, channel=0, data=[52, 50]),
   midi.NoteOnEvent(tick=0, channel=0, data=[60, 50]),
   midi.NoteOnEvent(tick=240, channel=0, data=[60, 0]),
   midi.NoteOnEvent(tick=0, channel=0, data=[52, 0]),
   midi.NoteOnEvent(tick=0, channel=0, data=[48, 0]),
   midi.NoteOnEvent(tick=0, channel=0, data=[41, 56]),
   midi.ControlChangeEvent(tick=80, channel=0, data=[64, 127]),
   midi.NoteOnEvent(tick=160, channel=0, data=[57, 40]),
   midi.NoteOnEvent(tick=0, channel=0, data=[48, 40]),
   midi.ControlChangeEvent(tick=256, channel=0, data=[64, 0]),
   midi.NoteOnEvent(tick=224, channel=0, data=[48, 0]),
   midi.NoteOnEvent(tick=0, channel=0, data=[57, 0]),
   midi.NoteOnEvent(tick=0, channel=0, data=[48, 34]),
   midi.NoteOnEvent(tick=0, channel=0, data=[57, 34]),
   midi.NoteOnEvent(tick=240, channel=0, data=[57, 0]),
   midi.NoteOnEvent(tick=0, channel=0, data=[48, 0]),
   midi.NoteOnEvent(tick=0, channel=0, data=[41, 0]),
   midi.NoteOnEvent(tick=0, channel=0, data=[46, 34]),
   midi.NoteOnEvent(tick=240, channel=0, data=[50, 22]),
   midi.NoteOnEvent(tick=0, channel=0, data=[58, 24]),
   midi.NoteOnEvent(tick=240, channel=0, data=[46, 0]),
   midi.NoteOnEvent(tick=0, channel=0, data=[43, 34]),
   midi.NoteOnEvent(tick=240, channel=0, data=[58, 0]),
   midi.NoteOnEvent(tick=0, channel=0, data=[50, 0]),
   midi.NoteOnEvent(tick=0, channel=0, data=[62, 17]),
   midi.NoteOnEvent(tick=0, channel=0, data=[58, 17]),
   midi.NoteOnEvent(tick=240, channel=0, data=[58, 0]),
   midi.NoteOnEvent(tick=0, channel=0, data=[62, 0]),
   midi.NoteOnEvent(tick=0, channel=0, data=[43, 0]),
   midi.NoteOnEvent(tick=0, channel=0, data=[48, 30]),
   midi.NoteOnEvent(tick=240, channel=0, data=[48, 0]),
   midi.NoteOnEvent(tick=0, channel=0, data=[58, 32]),
   midi.NoteOnEvent(tick=0, channel=0, data=[64, 22]),
   midi.NoteOnEvent(tick=240, channel=0, data=[58, 0]),
   midi.NoteOnEvent(tick=0, channel=0, data=[57, 35]),
   midi.NoteOnEvent(tick=240, channel=0, data=[57, 0]),
   midi.NoteOnEvent(tick=0, channel=0, data=[64, 0]),
   midi.NoteOnEvent(tick=0, channel=0, data=[55, 28]),
   midi.NoteOnEvent(tick=0, channel=0, data=[64, 22]),
   midi.NoteOnEvent(tick=240, channel=0, data=[64, 0]),
   midi.NoteOnEvent(tick=0, channel=0, data=[55, 0]),
   midi.NoteOnEvent(tick=0, channel=0, data=[53, 33]),
   midi.ControlChangeEvent(tick=99, channel=0, data=[64, 127]),
   midi.NoteOnEvent(tick=141, channel=0, data=[60, 20]),
   midi.NoteOnEvent(tick=0, channel=0, data=[57, 20]),
   midi.NoteOnEvent(tick=240, channel=0, data=[53, 0]),
   midi.NoteOnEvent(tick=240, channel=0, data=[57, 0]),
   midi.NoteOnEvent(tick=0, channel=0, data=[60, 0]),
   midi.NoteOnEvent(tick=0, channel=0, data=[65, 22]),
   midi.NoteOnEvent(tick=0, channel=0, data=[57, 22]),
   midi.ControlChangeEvent(tick=6, channel=0, data=[64, 0]),
   midi.ControlChangeEvent(tick=107, channel=0, data=[64, 127]),
   midi.NoteOnEvent(tick=127, channel=0, data=[57, 0]),
   midi.NoteOnEvent(tick=0, channel=0, data=[65, 0]),
   midi.NoteOnEvent(tick=0, channel=0, data=[53, 36]),
   midi.NoteOnEvent(tick=240, channel=0, data=[69, 21]),
   midi.NoteOnEvent(tick=0, channel=0, data=[60, 21]),
   midi.NoteOnEvent(tick=240, channel=0, data=[53, 0]),
   midi.NoteOnEvent(tick=0, channel=0, data=[57, 33]),
   midi.NoteOnEvent(tick=240, channel=0, data=[60, 0]),
   midi.NoteOnEvent(tick=0, channel=0, data=[69, 0]),
   midi.NoteOnEvent(tick=0, channel=0, data=[65, 18]),
   midi.NoteOnEvent(tick=0, channel=0, data=[60, 18]),
   midi.NoteOnEvent(tick=240, channel=0, data=[60, 0]),
   midi.NoteOnEvent(tick=0, channel=0, data=[65, 0]),
   midi.NoteOnEvent(tick=0, channel=0, data=[57, 0]),
   midi.ControlChangeEvent(tick=0, channel=0, data=[64, 0]),
   midi.NoteOnEvent(tick=0, channel=0, data=[58, 36]),
   midi.ControlChangeEvent(tick=66, channel=0, data=[64, 127]),
   midi.NoteOnEvent(tick=174, channel=0, data=[70, 25]),
   midi.NoteOnEvent(tick=0, channel=0, data=[62, 25]),
   midi.NoteOnEvent(tick=240, channel=0, data=[62, 0]),
   midi.NoteOnEvent(tick=0, channel=0, data=[70, 0]),
   midi.NoteOnEvent(tick=0, channel=0, data=[58, 0]),
   midi.NoteOnEvent(tick=0, channel=0, data=[55, 29]),
   midi.ControlChangeEvent(tick=14, channel=0, data=[64, 0]),
   midi.ControlChangeEvent(tick=58, channel=0, data=[64, 127]),
   midi.NoteOnEvent(tick=108, channel=0, data=[59, 22]),
   midi.NoteOnEvent(tick=10, channel=0, data=[62, 22]),
   midi.NoteOnEvent(tick=10, channel=0, data=[71, 22]),
   midi.NoteOnEvent(tick=280, channel=0, data=[71, 0]),
   midi.NoteOnEvent(tick=0, channel=0, data=[55, 0]),
   midi.NoteOnEvent(tick=0, channel=0, data=[59, 0]),
   midi.NoteOnEvent(tick=0, channel=0, data=[62, 0]),
   midi.ControlChangeEvent(tick=0, channel=0, data=[64, 0]),
   midi.NoteOnEvent(tick=0, channel=0, data=[60, 34]),
   midi.ControlChangeEvent(tick=99, channel=0, data=[64, 127]),
   midi.NoteOnEvent(tick=141, channel=0, data=[69, 21]),
   midi.NoteOnEvent(tick=0, channel=0, data=[65, 21]),
   midi.NoteOnEvent(tick=240, channel=0, data=[60, 0]),
   midi.NoteOnEvent(tick=0, channel=0, data=[60, 31]),
   midi.ControlChangeEvent(tick=14, channel=0, data=[64, 0]),
   midi.NoteOnEvent(tick=226, channel=0, data=[65, 0]),
   midi.NoteOnEvent(tick=0, channel=0, data=[69, 0]),
   midi.ControlChangeEvent(tick=0, channel=0, data=[64, 127]),
   midi.NoteOnEvent(tick=0, channel=0, data=[64, 17]),
   midi.NoteOnEvent(tick=0, channel=0, data=[70, 17]),
   midi.NoteOnEvent(tick=240, channel=0, data=[70, 0]),
   midi.NoteOnEvent(tick=0, channel=0, data=[64, 0]),
   midi.NoteOnEvent(tick=0, channel=0, data=[60, 0]),
   midi.NoteOnEvent(tick=0, channel=0, data=[53, 29]),
   midi.ControlChangeEvent(tick=18, channel=0, data=[64, 0]),
   midi.ControlChangeEvent(tick=95, channel=0, data=[64, 127]),
   midi.NoteOnEvent(tick=127, channel=0, data=[69, 17]),
   midi.NoteOnEvent(tick=0, channel=0, data=[60, 17]),
   midi.NoteOnEvent(tick=240, channel=0, data=[53, 0]),
   midi.NoteOnEvent(tick=240, channel=0, data=[60, 0]),
   midi.NoteOnEvent(tick=0, channel=0, data=[69, 0]),
   midi.NoteOnEvent(tick=0, channel=0, data=[69, 33]),
   midi.NoteOnEvent(tick=0, channel=0, data=[60, 33]),
   midi.ControlChangeEvent(tick=2, channel=0, data=[64, 0]),
   midi.NoteOnEvent(tick=208, channel=0, data=[60, 0]),
   midi.NoteOnEvent(tick=0, channel=0, data=[69, 0]),
   midi.NoteOnEvent(tick=30, channel=0, data=[68, 42]),
   midi.NoteOnEvent(tick=0, channel=0, data=[59, 42]),
   midi.NoteOnEvent(tick=240, channel=0, data=[59, 0]),
   midi.NoteOnEvent(tick=0, channel=0, data=[68, 0]),
   midi.NoteOnEvent(tick=0, channel=0, data=[67, 39]),
   midi.NoteOnEvent(tick=0, channel=0, data=[60, 39]),
   midi.NoteOnEvent(tick=210, channel=0, data=[60, 0]),
   midi.NoteOnEvent(tick=0, channel=0, data=[67, 0]),
   midi.NoteOnEvent(tick=30, channel=0, data=[59, 42]),
   midi.NoteOnEvent(tick=0, channel=0, data=[68, 42]),
   midi.NoteOnEvent(tick=240, channel=0, data=[68, 0]),
   midi.NoteOnEvent(tick=0, channel=0, data=[59, 0]),
   midi.NoteOnEvent(tick=0, channel=0, data=[60, 39]),
   midi.NoteOnEvent(tick=0, channel=0, data=[67, 39]),
   midi.NoteOnEvent(tick=210, channel=0, data=[67, 0]),
   midi.NoteOnEvent(tick=0, channel=0, data=[60, 0]),
   midi.NoteOnEvent(tick=30, channel=0, data=[57, 39]),
   midi.NoteOnEvent(tick=240, channel=0, data=[57, 0]),
   midi.NoteOnEvent(tick=0, channel=0, data=[65, 37]),
   midi.NoteOnEvent(tick=0, channel=0, data=[58, 37]),
   midi.NoteOnEvent(tick=240, channel=0, data=[58, 0]),
   midi.NoteOnEvent(tick=0, channel=0, data=[55, 37]),
   midi.NoteOnEvent(tick=240, channel=0, data=[55, 0]),
   midi.NoteOnEvent(tick=0, channel=0, data=[57, 36]),
   midi.NoteOnEvent(tick=240, channel=0, data=[57, 0]),
   midi.NoteOnEvent(tick=0, channel=0, data=[58, 39]),
   midi.NoteOnEvent(tick=240, channel=0, data=[58, 0]),
   midi.NoteOnEvent(tick=0, channel=0, data=[55, 34]),
   midi.NoteOnEvent(tick=240, channel=0, data=[55, 0]),
   midi.NoteOnEvent(tick=0, channel=0, data=[65, 0]),
   midi.NoteOnEvent(tick=0, channel=0, data=[60, 37]),
   midi.NoteOnEvent(tick=240, channel=0, data=[60, 0]),
   midi.NoteOnEvent(tick=0, channel=0, data=[58, 31]),
   midi.NoteOnEvent(tick=240, channel=0, data=[58, 0]),
   midi.NoteOnEvent(tick=0, channel=0, data=[57, 35]),
   midi.ControlChangeEvent(tick=113, channel=0, data=[64, 127]),
   midi.NoteOnEvent(tick=127, channel=0, data=[53, 35]),
   midi.NoteOnEvent(tick=240, channel=0, data=[53, 0]),
   midi.NoteOnEvent(tick=0, channel=0, data=[48, 35]),
   midi.ControlChangeEvent(tick=14, channel=0, data=[64, 0]),
   midi.NoteOnEvent(tick=226, channel=0, data=[57, 0]),
   midi.NoteOnEvent(tick=0, channel=0, data=[48, 33]),
   midi.NoteOnEvent(tick=0, channel=0, data=[57, 33]),
   midi.NoteOnEvent(tick=210, channel=0, data=[57, 0]),
   midi.NoteOnEvent(tick=0, channel=0, data=[48, 0]),
   midi.NoteOnEvent(tick=30, channel=0, data=[48, 0]),
   midi.NoteOnEvent(tick=0, channel=0, data=[56, 35]),
   midi.NoteOnEvent(tick=0, channel=0, data=[47, 35]),
   midi.NoteOnEvent(tick=240, channel=0, data=[47, 0]),
   midi.NoteOnEvent(tick=0, channel=0, data=[56, 0]),
   midi.NoteOnEvent(tick=0, channel=0, data=[55, 32]),
   midi.NoteOnEvent(tick=0, channel=0, data=[48, 32]),
   midi.NoteOnEvent(tick=210, channel=0, data=[48, 0]),
   midi.NoteOnEvent(tick=0, channel=0, data=[55, 0]),
   midi.NoteOnEvent(tick=30, channel=0, data=[47, 36]),
   midi.NoteOnEvent(tick=0, channel=0, data=[56, 36]),
   midi.NoteOnEvent(tick=240, channel=0, data=[56, 0]),
   midi.NoteOnEvent(tick=0, channel=0, data=[47, 0]),
   midi.NoteOnEvent(tick=0, channel=0, data=[48, 34]),
   midi.NoteOnEvent(tick=0, channel=0, data=[55, 34]),
   midi.NoteOnEvent(tick=210, channel=0, data=[55, 0]),
   midi.NoteOnEvent(tick=0, channel=0, data=[48, 0]),
   midi.NoteOnEvent(tick=30, channel=0, data=[45, 38]),
   midi.NoteOnEvent(tick=240, channel=0, data=[45, 0]),
   midi.NoteOnEvent(tick=0, channel=0, data=[53, 33]),
   midi.NoteOnEvent(tick=0, channel=0, data=[46, 33]),
   midi.NoteOnEvent(tick=240, channel=0, data=[46, 0]),
   midi.NoteOnEvent(tick=0, channel=0, data=[43, 41]),
   midi.NoteOnEvent(tick=240, channel=0, data=[43, 0]),
   midi.NoteOnEvent(tick=0, channel=0, data=[45, 37]),
   midi.NoteOnEvent(tick=240, channel=0, data=[45, 0]),
   midi.NoteOnEvent(tick=0, channel=0, data=[46, 46]),
   midi.ControlChangeEvent(tick=120, channel=0, data=[64, 127]),
   midi.NoteOnEvent(tick=120, channel=0, data=[46, 0]),
   midi.NoteOnEvent(tick=0, channel=0, data=[43, 35]),
   midi.NoteOnEvent(tick=240, channel=0, data=[43, 0]),
   midi.NoteOnEvent(tick=0, channel=0, data=[53, 0]),
   midi.NoteOnEvent(tick=0, channel=0, data=[48, 41]),
   midi.ControlChangeEvent(tick=3, channel=0, data=[64, 0]),
   midi.ControlChangeEvent(tick=117, channel=0, data=[64, 127]),
   midi.NoteOnEvent(tick=120, channel=0, data=[36, 33]),
   midi.NoteOnEvent(tick=240, channel=0, data=[36, 0]),
   midi.NoteOnEvent(tick=0, channel=0, data=[48, 0]),
   midi.NoteOnEvent(tick=0, channel=0, data=[45, 37]),
   midi.ControlChangeEvent(tick=3, channel=0, data=[64, 0]),
   midi.ControlChangeEvent(tick=117, channel=0, data=[64, 127]),
   midi.NoteOnEvent(tick=120, channel=0, data=[36, 31]),
   midi.NoteOnEvent(tick=240, channel=0, data=[36, 0]),
   midi.NoteOnEvent(tick=0, channel=0, data=[29, 26]),
   midi.NoteOnEvent(tick=480, channel=0, data=[29, 0]),
   midi.NoteOnEvent(tick=0, channel=0, data=[45, 0]),
   midi.ControlChangeEvent(tick=774, channel=0, data=[64, 0]),
   midi.EndOfTrackEvent(tick=0, data=[])]),
 midi.Track(\
  [midi.TrackNameEvent(tick=0, text='Schumann: Scenes from Childhood Op. 15', data=[83, 99, 104, 117, 109, 97, 110, 110, 58, 32, 83, 99, 101, 110, 101, 115, 32, 102, 114, 111, 109, 32, 67, 104, 105, 108, 100, 104, 111, 111, 100, 32, 79, 112, 46, 32, 49, 53]),
   midi.EndOfTrackEvent(tick=0, data=[])]),
 midi.Track(\
  [midi.TrackNameEvent(tick=0, text='Copyright © 1997 by Bernd Krueger', data=[67, 111, 112, 121, 114, 105, 103, 104, 116, 32, 169, 32, 49, 57, 57, 55, 32, 98, 121, 32, 66, 101, 114, 110, 100, 32, 75, 114, 117, 101, 103, 101, 114]),
   midi.EndOfTrackEvent(tick=0, data=[])]),
 midi.Track(\
  [midi.TrackNameEvent(tick=0, text='http://www.piano-midi.de', data=[104, 116, 116, 112, 58, 47, 47, 119, 119, 119, 46, 112, 105, 97, 110, 111, 45, 109, 105, 100, 105, 46, 100, 101]),
   midi.EndOfTrackEvent(tick=0, data=[])]),
 midi.Track(\
  [midi.TrackNameEvent(tick=0, text='Edition: 2014-03-26', data=[69, 100, 105, 116, 105, 111, 110, 58, 32, 50, 48, 49, 52, 45, 48, 51, 45, 50, 54]),
   midi.EndOfTrackEvent(tick=0, data=[])]),
 midi.Track(\
  [midi.TrackNameEvent(tick=0, text='Spur 7', data=[83, 112, 117, 114, 32, 55]),
   midi.EndOfTrackEvent(tick=0, data=[])])])
