midi.Pattern(format=1, resolution=480, tracks=\
[midi.Track(\
  [midi.TrackNameEvent(tick=0, text='Kinderszenen Opus 15', data=[75, 105, 110, 100, 101, 114, 115, 122, 101, 110, 101, 110, 32, 79, 112, 117, 115, 32, 49, 53]),
   midi.TrackNameEvent(tick=0, text='Träumerei', data=[84, 114, 228, 117, 109, 101, 114, 101, 105]),
   midi.CopyrightMetaEvent(tick=0, text='Copyright © 1996 von Bernd Krüger.', data=[67, 111, 112, 121, 114, 105, 103, 104, 116, 32, 169, 32, 49, 57, 57, 54, 32, 118, 111, 110, 32, 66, 101, 114, 110, 100, 32, 75, 114, 252, 103, 101, 114, 46]),
   midi.TextMetaEvent(tick=0, text='Robert Schumann', data=[82, 111, 98, 101, 114, 116, 32, 83, 99, 104, 117, 109, 97, 110, 110]),
   midi.TextMetaEvent(tick=0, text='Fertiggestellt am 11.12.97\n', data=[70, 101, 114, 116, 105, 103, 103, 101, 115, 116, 101, 108, 108, 116, 32, 97, 109, 32, 49, 49, 46, 49, 50, 46, 57, 55, 10]),
   midi.TextMetaEvent(tick=0, text='Korrekturen am 4.9.98\n', data=[75, 111, 114, 114, 101, 107, 116, 117, 114, 101, 110, 32, 97, 109, 32, 52, 46, 57, 46, 57, 56, 10]),
   midi.TextMetaEvent(tick=0, text='Anpassungen an Digitalpiano am 1.1.99\n', data=[65, 110, 112, 97, 115, 115, 117, 110, 103, 101, 110, 32, 97, 110, 32, 68, 105, 103, 105, 116, 97, 108, 112, 105, 97, 110, 111, 32, 97, 109, 32, 49, 46, 49, 46, 57, 57, 10]),
   midi.TextMetaEvent(tick=0, text='Update am 16.6.99\n', data=[85, 112, 100, 97, 116, 101, 32, 97, 109, 32, 49, 54, 46, 54, 46, 57, 57, 10]),
   midi.TextMetaEvent(tick=0, text='Update am 9.7.99\n', data=[85, 112, 100, 97, 116, 101, 32, 97, 109, 32, 57, 46, 55, 46, 57, 57, 10]),
   midi.TextMetaEvent(tick=0, text='Normierung: 23.12.2002\n', data=[78, 111, 114, 109, 105, 101, 114, 117, 110, 103, 58, 32, 50, 51, 46, 49, 50, 46, 50, 48, 48, 50, 10]),
   midi.TextMetaEvent(tick=0, text='Update: 11.10.2008\n', data=[85, 112, 100, 97, 116, 101, 58, 32, 49, 49, 46, 49, 48, 46, 50, 48, 48, 56, 10]),
   midi.TextMetaEvent(tick=0, text='Update am 26.3.14\n', data=[85, 112, 100, 97, 116, 101, 32, 97, 109, 32, 50, 54, 46, 51, 46, 49, 52, 10]),
   midi.TextMetaEvent(tick=0, text='Dauer: 2:08 Minuten\n', data=[68, 97, 117, 101, 114, 58, 32, 50, 58, 48, 56, 32, 77, 105, 110, 117, 116, 101, 110, 10]),
   midi.TimeSignatureEvent(tick=0, data=[4, 2, 24, 8]),
   midi.KeySignatureEvent(tick=0, data=[255, 0]),
   midi.SetTempoEvent(tick=0, data=[9, 39, 192]),
   midi.MarkerEvent(tick=0, text='Reverie', data=[82, 101, 118, 101, 114, 105, 101]),
   midi.SetTempoEvent(tick=1440, data=[11, 113, 176]),
   midi.SetTempoEvent(tick=480, data=[22, 227, 96]),
   midi.SetTempoEvent(tick=480, data=[18, 224, 121]),
   midi.SetTempoEvent(tick=720, data=[12, 116, 199]),
   midi.SetTempoEvent(tick=720, data=[14, 78, 28]),
   midi.SetTempoEvent(tick=240, data=[19, 70, 54]),
   midi.SetTempoEvent(tick=240, data=[13, 118, 177]),
   midi.SetTempoEvent(tick=960, data=[14, 106, 242]),
   midi.SetTempoEvent(tick=240, data=[16, 126, 249]),
   midi.SetTempoEvent(tick=240, data=[15, 236, 22]),
   midi.SetTempoEvent(tick=240, data=[14, 226, 250]),
   midi.SetTempoEvent(tick=240, data=[13, 20, 55]),
   midi.SetTempoEvent(tick=720, data=[13, 250, 63]),
   midi.SetTempoEvent(tick=240, data=[14, 196, 62]),
   midi.SetTempoEvent(tick=480, data=[16, 15, 216]),
   midi.SetTempoEvent(tick=480, data=[14, 226, 250]),
   midi.SetTempoEvent(tick=240, data=[12, 138, 158]),
   midi.SetTempoEvent(tick=240, data=[11, 188, 207]),
   midi.SetTempoEvent(tick=480, data=[13, 144, 57]),
   midi.SetTempoEvent(tick=240, data=[15, 2, 55]),
   midi.SetTempoEvent(tick=240, data=[16, 15, 216]),
   midi.SetTempoEvent(tick=480, data=[15, 2, 55]),
   midi.SetTempoEvent(tick=720, data=[12, 116, 199]),
   midi.SetTempoEvent(tick=720, data=[15, 236, 22]),
   midi.SetTempoEvent(tick=240, data=[19, 70, 54]),
   midi.SetTempoEvent(tick=240, data=[13, 118, 177]),
   midi.SetTempoEvent(tick=720, data=[12, 95, 59]),
   midi.SetTempoEvent(tick=720, data=[13, 93, 136]),
   midi.SetTempoEvent(tick=480, data=[12, 205, 249]),
   midi.SetTempoEvent(tick=720, data=[13, 44, 77]),
   midi.SetTempoEvent(tick=480, data=[13, 223, 35]),
   midi.SetTempoEvent(tick=720, data=[14, 49, 185]),
   midi.SetTempoEvent(tick=720, data=[14, 226, 250]),
   midi.SetTempoEvent(tick=480, data=[19, 70, 54]),
   midi.SetTempoEvent(tick=240, data=[16, 15, 216]),
   midi.SetTempoEvent(tick=480, data=[14, 196, 62]),
   midi.SetTempoEvent(tick=720, data=[12, 116, 199]),
   midi.SetTempoEvent(tick=720, data=[14, 78, 28]),
   midi.SetTempoEvent(tick=240, data=[19, 70, 54]),
   midi.SetTempoEvent(tick=240, data=[13, 118, 177]),
   midi.SetTempoEvent(tick=960, data=[14, 106, 242]),
   midi.SetTempoEvent(tick=240, data=[16, 126, 249]),
   midi.SetTempoEvent(tick=240, data=[15, 236, 22]),
   midi.SetTempoEvent(tick=240, data=[14, 226, 250]),
   midi.SetTempoEvent(tick=240, data=[13, 20, 55]),
   midi.SetTempoEvent(tick=720, data=[13, 250, 63]),
   midi.SetTempoEvent(tick=240, data=[14, 196, 62]),
   midi.SetTempoEvent(tick=480, data=[16, 15, 216]),
   midi.SetTempoEvent(tick=480, data=[14, 226, 250]),
   midi.SetTempoEvent(tick=240, data=[12, 138, 158]),
   midi.SetTempoEvent(tick=240, data=[11, 188, 207]),
   midi.SetTempoEvent(tick=480, data=[13, 144, 57]),
   midi.SetTempoEvent(tick=240, data=[15, 2, 55]),
   midi.SetTempoEvent(tick=240, data=[16, 15, 216]),
   midi.SetTempoEvent(tick=480, data=[15, 2, 55]),
   midi.SetTempoEvent(tick=720, data=[12, 116, 199]),
   midi.SetTempoEvent(tick=240, data=[12, 183, 53]),
   midi.SetTempoEvent(tick=480, data=[16, 126, 249]),
   midi.SetTempoEvent(tick=240, data=[19, 70, 54]),
   midi.SetTempoEvent(tick=240, data=[13, 118, 177]),
   midi.SetTempoEvent(tick=720, data=[12, 95, 59]),
   midi.SetTempoEvent(tick=720, data=[13, 93, 136]),
   midi.SetTempoEvent(tick=480, data=[12, 205, 249]),
   midi.SetTempoEvent(tick=720, data=[13, 44, 77]),
   midi.SetTempoEvent(tick=480, data=[13, 223, 35]),
   midi.SetTempoEvent(tick=720, data=[14, 49, 185]),
   midi.SetTempoEvent(tick=720, data=[14, 226, 250]),
   midi.SetTempoEvent(tick=480, data=[19, 70, 54]),
   midi.SetTempoEvent(tick=240, data=[17, 155, 54]),
   midi.SetTempoEvent(tick=480, data=[15, 2, 55]),
   midi.SetTempoEvent(tick=720, data=[12, 116, 199]),
   midi.SetTempoEvent(tick=720, data=[14, 21, 197]),
   midi.SetTempoEvent(tick=240, data=[15, 236, 22]),
   midi.SetTempoEvent(tick=240, data=[12, 160, 194]),
   midi.SetTempoEvent(tick=460, data=[12, 73, 249]),
   midi.SetTempoEvent(tick=500, data=[12, 138, 158]),
   midi.SetTempoEvent(tick=480, data=[12, 32, 78]),
   midi.SetTempoEvent(tick=480, data=[12, 205, 249]),
   midi.SetTempoEvent(tick=720, data=[12, 95, 59]),
   midi.SetTempoEvent(tick=480, data=[12, 252, 120]),
   midi.SetTempoEvent(tick=240, data=[12, 205, 249]),
   midi.SetTempoEvent(tick=480, data=[14, 49, 185]),
   midi.SetTempoEvent(tick=240, data=[15, 33, 248]),
   midi.SetTempoEvent(tick=240, data=[13, 144, 57]),
   midi.SetTempoEvent(tick=240, data=[14, 226, 250]),
   midi.SetTempoEvent(tick=480, data=[19, 70, 54]),
   midi.SetTempoEvent(tick=240, data=[16, 204, 117]),
   midi.SetTempoEvent(tick=480, data=[15, 2, 55]),
   midi.SetTempoEvent(tick=720, data=[12, 116, 199]),
   midi.SetTempoEvent(tick=720, data=[14, 196, 62]),
   midi.SetTempoEvent(tick=240, data=[16, 165, 93]),
   midi.SetTempoEvent(tick=240, data=[12, 138, 158]),
   midi.SetTempoEvent(tick=960, data=[13, 20, 55]),
   midi.SetTempoEvent(tick=480, data=[12, 116, 199]),
   midi.SetTempoEvent(tick=480, data=[13, 118, 177]),
   midi.SetTempoEvent(tick=480, data=[13, 44, 77]),
   midi.SetTempoEvent(tick=240, data=[12, 138, 158]),
   midi.SetTempoEvent(tick=480, data=[12, 252, 120]),
   midi.SetTempoEvent(tick=240, data=[12, 205, 249]),
   midi.SetTempoEvent(tick=480, data=[14, 166, 0]),
   midi.SetTempoEvent(tick=240, data=[16, 15, 216]),
   midi.SetTempoEvent(tick=240, data=[14, 49, 185]),
   midi.SetTempoEvent(tick=240, data=[15, 132, 117]),
   midi.SetTempoEvent(tick=240, data=[17, 70, 43]),
   midi.SetTempoEvent(tick=240, data=[32, 178, 137]),
   midi.SetTempoEvent(tick=120, data=[23, 199, 170]),
   midi.SetTempoEvent(tick=120, data=[16, 15, 216]),
   midi.SetTempoEvent(tick=480, data=[14, 196, 62]),
   midi.SetTempoEvent(tick=720, data=[12, 205, 249]),
   midi.SetTempoEvent(tick=240, data=[12, 138, 158]),
   midi.SetTempoEvent(tick=480, data=[14, 78, 28]),
   midi.SetTempoEvent(tick=240, data=[19, 70, 54]),
   midi.SetTempoEvent(tick=240, data=[13, 118, 177]),
   midi.SetTempoEvent(tick=960, data=[13, 20, 55]),
   midi.SetTempoEvent(tick=240, data=[17, 112, 73]),
   midi.SetTempoEvent(tick=240, data=[15, 236, 22]),
   midi.SetTempoEvent(tick=240, data=[14, 226, 250]),
   midi.SetTempoEvent(tick=240, data=[13, 20, 55]),
   midi.SetTempoEvent(tick=720, data=[13, 250, 63]),
   midi.SetTempoEvent(tick=240, data=[14, 196, 62]),
   midi.SetTempoEvent(tick=480, data=[16, 15, 216]),
   midi.SetTempoEvent(tick=480, data=[14, 226, 250]),
   midi.SetTempoEvent(tick=240, data=[12, 138, 158]),
   midi.SetTempoEvent(tick=240, data=[11, 188, 207]),
   midi.SetTempoEvent(tick=480, data=[13, 144, 57]),
   midi.SetTempoEvent(tick=240, data=[15, 2, 55]),
   midi.SetTempoEvent(tick=240, data=[17, 70, 43]),
   midi.SetTempoEvent(tick=480, data=[15, 2, 55]),
   midi.SetTempoEvent(tick=720, data=[12, 252, 120]),
   midi.SetTempoEvent(tick=240, data=[13, 196, 112]),
   midi.SetTempoEvent(tick=480, data=[17, 112, 73]),
   midi.SetTempoEvent(tick=240, data=[23, 45, 139]),
   midi.SetTempoEvent(tick=240, data=[19, 70, 54]),
   midi.SetTempoEvent(tick=720, data=[13, 20, 55]),
   midi.SetTempoEvent(tick=480, data=[14, 21, 197]),
   midi.SetTempoEvent(tick=240, data=[13, 196, 112]),
   midi.SetTempoEvent(tick=480, data=[14, 49, 185]),
   midi.SetTempoEvent(tick=480, data=[14, 196, 62]),
   midi.SetTempoEvent(tick=480, data=[15, 2, 55]),
   midi.SetTempoEvent(tick=240, data=[16, 126, 249]),
   midi.SetTempoEvent(tick=480, data=[20, 31, 25]),
   midi.SetTempoEvent(tick=240, data=[28, 156, 56]),
   midi.SetTempoEvent(tick=240, data=[38, 245, 103]),
   midi.MarkerEvent(tick=1200, text='Fine', data=[70, 105, 110, 101]),
   midi.EndOfTrackEvent(tick=0, data=[])]),
 midi.Track(\
  [midi.TrackNameEvent(tick=0, text='Piano right', data=[80, 105, 97, 110, 111, 32, 114, 105, 103, 104, 116]),
   midi.ProgramChangeEvent(tick=0, channel=0, data=[0]),
   midi.ControlChangeEvent(tick=0, channel=0, data=[7, 100]),
   midi.ControlChangeEvent(tick=0, channel=0, data=[10, 64]),
   midi.TextMetaEvent(tick=0, text='bdca426d104a26ac9dcb070447587523', data=[98, 100, 99, 97, 52, 50, 54, 100, 49, 48, 52, 97, 50, 54, 97, 99, 57, 100, 99, 98, 48, 55, 48, 52, 52, 55, 53, 56, 55, 53, 50, 51]),
   midi.ControlChangeEvent(tick=0, channel=0, data=[91, 127]),
   midi.ControlChangeEvent(tick=1439, channel=0, data=[91, 127]),
   midi.NoteOnEvent(tick=1, channel=0, data=[60, 51]),
   midi.NoteOnEvent(tick=480, channel=0, data=[60, 0]),
   midi.NoteOnEvent(tick=0, channel=0, data=[65, 58]),
   midi.NoteOnEvent(tick=480, channel=0, data=[53, 26]),
   midi.NoteOnEvent(tick=0, channel=0, data=[60, 26]),
   midi.NoteOnEvent(tick=720, channel=0, data=[65, 0]),
   midi.NoteOnEvent(tick=0, channel=0, data=[64, 45]),
   midi.NoteOnEvent(tick=240, channel=0, data=[64, 0]),
   midi.NoteOnEvent(tick=0, channel=0, data=[65, 48]),
   midi.NoteOnEvent(tick=240, channel=0, data=[65, 0]),
   midi.NoteOnEvent(tick=0, channel=0, data=[69, 49]),
   midi.NoteOnEvent(tick=240, channel=0, data=[69, 0]),
   midi.NoteOnEvent(tick=0, channel=0, data=[60, 0]),
   midi.NoteOnEvent(tick=0, channel=0, data=[53, 0]),
   midi.NoteOnEvent(tick=0, channel=0, data=[72, 52]),
   midi.NoteOnEvent(tick=240, channel=0, data=[72, 0]),
   midi.NoteOnEvent(tick=0, channel=0, data=[77, 52]),
   midi.NoteOnEvent(tick=230, channel=0, data=[77, 0]),
   midi.NoteOnEvent(tick=10, channel=0, data=[65, 38]),
   midi.NoteOnEvent(tick=10, channel=0, data=[77, 50]),
   midi.NoteOnEvent(tick=955, channel=0, data=[76, 39]),
   midi.NoteOnEvent(tick=5, channel=0, data=[77, 0]),
   midi.NoteOnEvent(tick=235, channel=0, data=[76, 0]),
   midi.NoteOnEvent(tick=0, channel=0, data=[74, 38]),
   midi.NoteOnEvent(tick=235, channel=0, data=[72, 42]),
   midi.NoteOnEvent(tick=5, channel=0, data=[74, 0]),
   midi.NoteOnEvent(tick=235, channel=0, data=[72, 0]),
   midi.NoteOnEvent(tick=0, channel=0, data=[77, 38]),
   midi.NoteOnEvent(tick=240, channel=0, data=[77, 0]),
   midi.NoteOnEvent(tick=0, channel=0, data=[65, 0]),
   midi.NoteOnEvent(tick=0, channel=0, data=[64, 42]),
   midi.NoteOnEvent(tick=0, channel=0, data=[67, 42]),
   midi.NoteOnEvent(tick=240, channel=0, data=[67, 0]),
   midi.NoteOnEvent(tick=0, channel=0, data=[69, 42]),
   midi.NoteOnEvent(tick=240, channel=0, data=[69, 0]),
   midi.NoteOnEvent(tick=0, channel=0, data=[70, 48]),
   midi.NoteOnEvent(tick=240, channel=0, data=[70, 0]),
   midi.NoteOnEvent(tick=0, channel=0, data=[74, 40]),
   midi.NoteOnEvent(tick=240, channel=0, data=[74, 0]),
   midi.NoteOnEvent(tick=0, channel=0, data=[64, 0]),
   midi.NoteOnEvent(tick=0, channel=0, data=[60, 46]),
   midi.NoteOnEvent(tick=0, channel=0, data=[65, 46]),
   midi.NoteOnEvent(tick=240, channel=0, data=[65, 0]),
   midi.NoteOnEvent(tick=0, channel=0, data=[64, 46]),
   midi.NoteOnEvent(tick=0, channel=0, data=[67, 46]),
   midi.NoteOnEvent(tick=240, channel=0, data=[67, 0]),
   midi.NoteOnEvent(tick=0, channel=0, data=[64, 0]),
   midi.NoteOnEvent(tick=0, channel=0, data=[65, 49]),
   midi.NoteOnEvent(tick=0, channel=0, data=[69, 49]),
   midi.NoteOnEvent(tick=240, channel=0, data=[69, 0]),
   midi.NoteOnEvent(tick=0, channel=0, data=[65, 0]),
   midi.NoteOnEvent(tick=0, channel=0, data=[72, 38]),
   midi.NoteOnEvent(tick=240, channel=0, data=[72, 0]),
   midi.NoteOnEvent(tick=0, channel=0, data=[60, 0]),
   midi.NoteOnEvent(tick=0, channel=0, data=[60, 45]),
   midi.NoteOnEvent(tick=0, channel=0, data=[64, 45]),
   midi.NoteOnEvent(tick=0, channel=0, data=[67, 45]),
   midi.NoteOnEvent(tick=960, channel=0, data=[67, 0]),
   midi.NoteOnEvent(tick=0, channel=0, data=[64, 0]),
   midi.NoteOnEvent(tick=0, channel=0, data=[60, 0]),
   midi.NoteOnEvent(tick=20, channel=0, data=[60, 51]),
   midi.NoteOnEvent(tick=460, channel=0, data=[60, 0]),
   midi.NoteOnEvent(tick=0, channel=0, data=[65, 58]),
   midi.NoteOnEvent(tick=480, channel=0, data=[53, 26]),
   midi.NoteOnEvent(tick=0, channel=0, data=[60, 26]),
   midi.NoteOnEvent(tick=720, channel=0, data=[65, 0]),
   midi.NoteOnEvent(tick=0, channel=0, data=[64, 45]),
   midi.NoteOnEvent(tick=240, channel=0, data=[64, 0]),
   midi.NoteOnEvent(tick=0, channel=0, data=[65, 48]),
   midi.NoteOnEvent(tick=240, channel=0, data=[65, 0]),
   midi.NoteOnEvent(tick=0, channel=0, data=[69, 49]),
   midi.NoteOnEvent(tick=240, channel=0, data=[69, 0]),
   midi.NoteOnEvent(tick=0, channel=0, data=[60, 0]),
   midi.NoteOnEvent(tick=0, channel=0, data=[53, 0]),
   midi.NoteOnEvent(tick=0, channel=0, data=[72, 52]),
   midi.NoteOnEvent(tick=240, channel=0, data=[72, 0]),
   midi.NoteOnEvent(tick=0, channel=0, data=[81, 51]),
   midi.NoteOnEvent(tick=230, channel=0, data=[81, 0]),
   midi.NoteOnEvent(tick=10, channel=0, data=[69, 33]),
   midi.NoteOnEvent(tick=0, channel=0, data=[81, 49]),
   midi.NoteOnEvent(tick=0, channel=0, data=[67, 33]),
   midi.NoteOnEvent(tick=720, channel=0, data=[81, 0]),
   midi.NoteOnEvent(tick=0, channel=0, data=[79, 46]),
   midi.NoteOnEvent(tick=240, channel=0, data=[79, 0]),
   midi.NoteOnEvent(tick=0, channel=0, data=[77, 46]),
   midi.NoteOnEvent(tick=240, channel=0, data=[77, 0]),
   midi.NoteOnEvent(tick=0, channel=0, data=[76, 46]),
   midi.NoteOnEvent(tick=240, channel=0, data=[76, 0]),
   midi.NoteOnEvent(tick=0, channel=0, data=[67, 0]),
   midi.NoteOnEvent(tick=0, channel=0, data=[77, 55]),
   midi.NoteOnEvent(tick=240, channel=0, data=[77, 0]),
   midi.NoteOnEvent(tick=0, channel=0, data=[81, 45]),
   midi.NoteOnEvent(tick=240, channel=0, data=[81, 0]),
   midi.NoteOnEvent(tick=0, channel=0, data=[74, 49]),
   midi.NoteOnEvent(tick=240, channel=0, data=[74, 0]),
   midi.NoteOnEvent(tick=0, channel=0, data=[69, 0]),
   midi.NoteOnEvent(tick=0, channel=0, data=[68, 44]),
   midi.NoteOnEvent(tick=0, channel=0, data=[77, 44]),
   midi.NoteOnEvent(tick=240, channel=0, data=[77, 0]),
   midi.NoteOnEvent(tick=0, channel=0, data=[68, 0]),
   midi.NoteOnEvent(tick=0, channel=0, data=[67, 48]),
   midi.NoteOnEvent(tick=0, channel=0, data=[76, 48]),
   midi.NoteOnEvent(tick=240, channel=0, data=[67, 0]),
   midi.NoteOnEvent(tick=0, channel=0, data=[72, 38]),
   midi.NoteOnEvent(tick=240, channel=0, data=[72, 0]),
   midi.NoteOnEvent(tick=0, channel=0, data=[64, 38]),
   midi.NoteOnEvent(tick=240, channel=0, data=[64, 0]),
   midi.NoteOnEvent(tick=0, channel=0, data=[76, 0]),
   midi.NoteOnEvent(tick=0, channel=0, data=[66, 38]),
   midi.NoteOnEvent(tick=0, channel=0, data=[75, 38]),
   midi.NoteOnEvent(tick=240, channel=0, data=[75, 0]),
   midi.NoteOnEvent(tick=0, channel=0, data=[66, 0]),
   midi.NoteOnEvent(tick=0, channel=0, data=[65, 44]),
   midi.NoteOnEvent(tick=0, channel=0, data=[74, 44]),
   midi.NoteOnEvent(tick=480, channel=0, data=[74, 0]),
   midi.NoteOnEvent(tick=0, channel=0, data=[76, 42]),
   midi.NoteOnEvent(tick=360, channel=0, data=[76, 0]),
   midi.NoteOnEvent(tick=0, channel=0, data=[72, 35]),
   midi.NoteOnEvent(tick=120, channel=0, data=[72, 0]),
   midi.NoteOnEvent(tick=0, channel=0, data=[65, 0]),
   midi.NoteOnEvent(tick=0, channel=0, data=[64, 38]),
   midi.NoteOnEvent(tick=0, channel=0, data=[72, 38]),
   midi.NoteOnEvent(tick=480, channel=0, data=[64, 0]),
   midi.NoteOnEvent(tick=250, channel=0, data=[60, 51]),
   midi.NoteOnEvent(tick=230, channel=0, data=[60, 0]),
   midi.NoteOnEvent(tick=0, channel=0, data=[72, 0]),
   midi.NoteOnEvent(tick=0, channel=0, data=[65, 58]),
   midi.NoteOnEvent(tick=480, channel=0, data=[53, 26]),
   midi.NoteOnEvent(tick=0, channel=0, data=[60, 26]),
   midi.NoteOnEvent(tick=720, channel=0, data=[65, 0]),
   midi.NoteOnEvent(tick=0, channel=0, data=[64, 45]),
   midi.NoteOnEvent(tick=240, channel=0, data=[64, 0]),
   midi.NoteOnEvent(tick=0, channel=0, data=[65, 48]),
   midi.NoteOnEvent(tick=240, channel=0, data=[65, 0]),
   midi.NoteOnEvent(tick=0, channel=0, data=[69, 49]),
   midi.NoteOnEvent(tick=240, channel=0, data=[69, 0]),
   midi.NoteOnEvent(tick=0, channel=0, data=[60, 0]),
   midi.NoteOnEvent(tick=0, channel=0, data=[53, 0]),
   midi.NoteOnEvent(tick=0, channel=0, data=[72, 52]),
   midi.NoteOnEvent(tick=240, channel=0, data=[72, 0]),
   midi.NoteOnEvent(tick=0, channel=0, data=[77, 52]),
   midi.NoteOnEvent(tick=230, channel=0, data=[77, 0]),
   midi.NoteOnEvent(tick=10, channel=0, data=[65, 38]),
   midi.NoteOnEvent(tick=10, channel=0, data=[77, 50]),
   midi.NoteOnEvent(tick=955, channel=0, data=[76, 37]),
   midi.NoteOnEvent(tick=5, channel=0, data=[77, 0]),
   midi.NoteOnEvent(tick=235, channel=0, data=[76, 0]),
   midi.NoteOnEvent(tick=0, channel=0, data=[74, 36]),
   midi.NoteOnEvent(tick=235, channel=0, data=[74, 0]),
   midi.NoteOnEvent(tick=0, channel=0, data=[72, 42]),
   midi.NoteOnEvent(tick=240, channel=0, data=[72, 0]),
   midi.NoteOnEvent(tick=0, channel=0, data=[77, 38]),
   midi.NoteOnEvent(tick=240, channel=0, data=[77, 0]),
   midi.NoteOnEvent(tick=0, channel=0, data=[65, 0]),
   midi.NoteOnEvent(tick=0, channel=0, data=[64, 42]),
   midi.NoteOnEvent(tick=0, channel=0, data=[67, 40]),
   midi.NoteOnEvent(tick=240, channel=0, data=[67, 0]),
   midi.NoteOnEvent(tick=0, channel=0, data=[69, 40]),
   midi.NoteOnEvent(tick=240, channel=0, data=[69, 0]),
   midi.NoteOnEvent(tick=0, channel=0, data=[70, 46]),
   midi.NoteOnEvent(tick=240, channel=0, data=[70, 0]),
   midi.NoteOnEvent(tick=0, channel=0, data=[74, 38]),
   midi.NoteOnEvent(tick=240, channel=0, data=[74, 0]),
   midi.NoteOnEvent(tick=0, channel=0, data=[64, 0]),
   midi.NoteOnEvent(tick=0, channel=0, data=[60, 46]),
   midi.NoteOnEvent(tick=0, channel=0, data=[65, 46]),
   midi.NoteOnEvent(tick=240, channel=0, data=[65, 0]),
   midi.NoteOnEvent(tick=0, channel=0, data=[64, 46]),
   midi.NoteOnEvent(tick=0, channel=0, data=[67, 46]),
   midi.NoteOnEvent(tick=240, channel=0, data=[67, 0]),
   midi.NoteOnEvent(tick=0, channel=0, data=[64, 0]),
   midi.NoteOnEvent(tick=0, channel=0, data=[65, 49]),
   midi.NoteOnEvent(tick=0, channel=0, data=[69, 49]),
   midi.NoteOnEvent(tick=240, channel=0, data=[69, 0]),
   midi.NoteOnEvent(tick=0, channel=0, data=[65, 0]),
   midi.NoteOnEvent(tick=0, channel=0, data=[72, 38]),
   midi.NoteOnEvent(tick=240, channel=0, data=[72, 0]),
   midi.NoteOnEvent(tick=0, channel=0, data=[60, 0]),
   midi.NoteOnEvent(tick=0, channel=0, data=[60, 45]),
   midi.NoteOnEvent(tick=0, channel=0, data=[64, 45]),
   midi.NoteOnEvent(tick=0, channel=0, data=[67, 45]),
   midi.NoteOnEvent(tick=960, channel=0, data=[67, 0]),
   midi.NoteOnEvent(tick=0, channel=0, data=[64, 0]),
   midi.NoteOnEvent(tick=0, channel=0, data=[60, 0]),
   midi.NoteOnEvent(tick=20, channel=0, data=[60, 51]),
   midi.NoteOnEvent(tick=460, channel=0, data=[60, 0]),
   midi.NoteOnEvent(tick=0, channel=0, data=[65, 58]),
   midi.NoteOnEvent(tick=480, channel=0, data=[53, 26]),
   midi.NoteOnEvent(tick=0, channel=0, data=[60, 26]),
   midi.NoteOnEvent(tick=720, channel=0, data=[65, 0]),
   midi.NoteOnEvent(tick=0, channel=0, data=[64, 45]),
   midi.NoteOnEvent(tick=240, channel=0, data=[64, 0]),
   midi.NoteOnEvent(tick=0, channel=0, data=[65, 48]),
   midi.NoteOnEvent(tick=240, channel=0, data=[65, 0]),
   midi.NoteOnEvent(tick=0, channel=0, data=[69, 49]),
   midi.NoteOnEvent(tick=240, channel=0, data=[69, 0]),
   midi.NoteOnEvent(tick=0, channel=0, data=[60, 0]),
   midi.NoteOnEvent(tick=0, channel=0, data=[53, 0]),
   midi.NoteOnEvent(tick=0, channel=0, data=[72, 52]),
   midi.NoteOnEvent(tick=240, channel=0, data=[72, 0]),
   midi.NoteOnEvent(tick=0, channel=0, data=[81, 51]),
   midi.NoteOnEvent(tick=230, channel=0, data=[81, 0]),
   midi.NoteOnEvent(tick=10, channel=0, data=[69, 33]),
   midi.NoteOnEvent(tick=0, channel=0, data=[81, 49]),
   midi.NoteOnEvent(tick=0, channel=0, data=[67, 33]),
   midi.NoteOnEvent(tick=720, channel=0, data=[81, 0]),
   midi.NoteOnEvent(tick=0, channel=0, data=[79, 46]),
   midi.NoteOnEvent(tick=240, channel=0, data=[79, 0]),
   midi.NoteOnEvent(tick=0, channel=0, data=[77, 46]),
   midi.NoteOnEvent(tick=240, channel=0, data=[77, 0]),
   midi.NoteOnEvent(tick=0, channel=0, data=[76, 46]),
   midi.NoteOnEvent(tick=240, channel=0, data=[76, 0]),
   midi.NoteOnEvent(tick=0, channel=0, data=[67, 0]),
   midi.NoteOnEvent(tick=0, channel=0, data=[77, 55]),
   midi.NoteOnEvent(tick=240, channel=0, data=[77, 0]),
   midi.NoteOnEvent(tick=0, channel=0, data=[81, 45]),
   midi.NoteOnEvent(tick=240, channel=0, data=[81, 0]),
   midi.NoteOnEvent(tick=0, channel=0, data=[74, 49]),
   midi.NoteOnEvent(tick=240, channel=0, data=[74, 0]),
   midi.NoteOnEvent(tick=0, channel=0, data=[69, 0]),
   midi.NoteOnEvent(tick=0, channel=0, data=[68, 44]),
   midi.NoteOnEvent(tick=0, channel=0, data=[77, 44]),
   midi.NoteOnEvent(tick=240, channel=0, data=[77, 0]),
   midi.NoteOnEvent(tick=0, channel=0, data=[68, 0]),
   midi.NoteOnEvent(tick=0, channel=0, data=[67, 48]),
   midi.NoteOnEvent(tick=0, channel=0, data=[76, 48]),
   midi.NoteOnEvent(tick=240, channel=0, data=[67, 0]),
   midi.NoteOnEvent(tick=0, channel=0, data=[72, 38]),
   midi.NoteOnEvent(tick=240, channel=0, data=[72, 0]),
   midi.NoteOnEvent(tick=0, channel=0, data=[64, 38]),
   midi.NoteOnEvent(tick=240, channel=0, data=[64, 0]),
   midi.NoteOnEvent(tick=0, channel=0, data=[76, 0]),
   midi.NoteOnEvent(tick=0, channel=0, data=[66, 38]),
   midi.NoteOnEvent(tick=0, channel=0, data=[75, 38]),
   midi.NoteOnEvent(tick=240, channel=0, data=[75, 0]),
   midi.NoteOnEvent(tick=0, channel=0, data=[66, 0]),
   midi.NoteOnEvent(tick=0, channel=0, data=[65, 44]),
   midi.NoteOnEvent(tick=0, channel=0, data=[74, 44]),
   midi.NoteOnEvent(tick=480, channel=0, data=[74, 0]),
   midi.NoteOnEvent(tick=0, channel=0, data=[76, 42]),
   midi.NoteOnEvent(tick=360, channel=0, data=[76, 0]),
   midi.NoteOnEvent(tick=0, channel=0, data=[72, 35]),
   midi.NoteOnEvent(tick=120, channel=0, data=[72, 0]),
   midi.NoteOnEvent(tick=0, channel=0, data=[65, 0]),
   midi.NoteOnEvent(tick=0, channel=0, data=[64, 38]),
   midi.NoteOnEvent(tick=0, channel=0, data=[72, 38]),
   midi.NoteOnEvent(tick=480, channel=0, data=[64, 0]),
   midi.NoteOnEvent(tick=250, channel=0, data=[60, 56]),
   midi.NoteOnEvent(tick=230, channel=0, data=[60, 0]),
   midi.NoteOnEvent(tick=0, channel=0, data=[72, 0]),
   midi.NoteOnEvent(tick=0, channel=0, data=[65, 63]),
   midi.NoteOnEvent(tick=480, channel=0, data=[53, 28]),
   midi.NoteOnEvent(tick=0, channel=0, data=[60, 28]),
   midi.NoteOnEvent(tick=720, channel=0, data=[65, 0]),
   midi.NoteOnEvent(tick=0, channel=0, data=[64, 49]),
   midi.NoteOnEvent(tick=240, channel=0, data=[64, 0]),
   midi.NoteOnEvent(tick=0, channel=0, data=[65, 52]),
   midi.NoteOnEvent(tick=240, channel=0, data=[65, 0]),
   midi.NoteOnEvent(tick=0, channel=0, data=[69, 53]),
   midi.NoteOnEvent(tick=240, channel=0, data=[69, 0]),
   midi.NoteOnEvent(tick=0, channel=0, data=[60, 0]),
   midi.NoteOnEvent(tick=0, channel=0, data=[53, 0]),
   midi.NoteOnEvent(tick=0, channel=0, data=[72, 52]),
   midi.NoteOnEvent(tick=240, channel=0, data=[72, 0]),
   midi.NoteOnEvent(tick=0, channel=0, data=[70, 41]),
   midi.NoteOnEvent(tick=0, channel=0, data=[75, 51]),
   midi.NoteOnEvent(tick=230, channel=0, data=[75, 0]),
   midi.NoteOnEvent(tick=0, channel=0, data=[70, 0]),
   midi.NoteOnEvent(tick=10, channel=0, data=[69, 41]),
   midi.NoteOnEvent(tick=0, channel=0, data=[75, 56]),
   midi.NoteOnEvent(tick=720, channel=0, data=[66, 48]),
   midi.NoteOnEvent(tick=240, channel=0, data=[66, 0]),
   midi.NoteOnEvent(tick=0, channel=0, data=[75, 0]),
   midi.NoteOnEvent(tick=0, channel=0, data=[69, 0]),
   midi.NoteOnEvent(tick=0, channel=0, data=[69, 38]),
   midi.NoteOnEvent(tick=0, channel=0, data=[74, 50]),
   midi.NoteOnEvent(tick=240, channel=0, data=[74, 0]),
   midi.NoteOnEvent(tick=0, channel=0, data=[72, 51]),
   midi.NoteOnEvent(tick=240, channel=0, data=[72, 0]),
   midi.NoteOnEvent(tick=0, channel=0, data=[69, 0]),
   midi.NoteOnEvent(tick=0, channel=0, data=[70, 55]),
   midi.NoteOnEvent(tick=240, channel=0, data=[70, 0]),
   midi.NoteOnEvent(tick=0, channel=0, data=[74, 49]),
   midi.NoteOnEvent(tick=240, channel=0, data=[74, 0]),
   midi.NoteOnEvent(tick=0, channel=0, data=[67, 53]),
   midi.NoteOnEvent(tick=240, channel=0, data=[67, 0]),
   midi.NoteOnEvent(tick=0, channel=0, data=[63, 48]),
   midi.NoteOnEvent(tick=0, channel=0, data=[69, 48]),
   midi.NoteOnEvent(tick=240, channel=0, data=[69, 0]),
   midi.NoteOnEvent(tick=0, channel=0, data=[63, 0]),
   midi.NoteOnEvent(tick=0, channel=0, data=[62, 52]),
   midi.NoteOnEvent(tick=0, channel=0, data=[70, 52]),
   midi.NoteOnEvent(tick=240, channel=0, data=[62, 0]),
   midi.NoteOnEvent(tick=0, channel=0, data=[67, 41]),
   midi.NoteOnEvent(tick=240, channel=0, data=[67, 0]),
   midi.NoteOnEvent(tick=0, channel=0, data=[58, 41]),
   midi.NoteOnEvent(tick=240, channel=0, data=[58, 0]),
   midi.NoteOnEvent(tick=0, channel=0, data=[70, 0]),
   midi.NoteOnEvent(tick=0, channel=0, data=[60, 41]),
   midi.NoteOnEvent(tick=0, channel=0, data=[69, 41]),
   midi.NoteOnEvent(tick=240, channel=0, data=[69, 0]),
   midi.NoteOnEvent(tick=0, channel=0, data=[60, 0]),
   midi.NoteOnEvent(tick=0, channel=0, data=[67, 48]),
   midi.NoteOnEvent(tick=720, channel=0, data=[67, 0]),
   midi.NoteOnEvent(tick=0, channel=0, data=[60, 41]),
   midi.NoteOnEvent(tick=0, channel=0, data=[62, 41]),
   midi.NoteOnEvent(tick=237, channel=0, data=[62, 0]),
   midi.NoteOnEvent(tick=3, channel=0, data=[60, 0]),
   midi.NoteOnEvent(tick=0, channel=0, data=[58, 41]),
   midi.NoteOnEvent(tick=0, channel=0, data=[62, 41]),
   midi.NoteOnEvent(tick=480, channel=0, data=[62, 0]),
   midi.NoteOnEvent(tick=0, channel=0, data=[58, 0]),
   midi.NoteOnEvent(tick=250, channel=0, data=[65, 42]),
   midi.NoteOnEvent(tick=230, channel=0, data=[65, 0]),
   midi.NoteOnEvent(tick=0, channel=0, data=[70, 51]),
   midi.NoteOnEvent(tick=480, channel=0, data=[58, 28]),
   midi.NoteOnEvent(tick=0, channel=0, data=[65, 28]),
   midi.NoteOnEvent(tick=720, channel=0, data=[70, 0]),
   midi.NoteOnEvent(tick=0, channel=0, data=[69, 40]),
   midi.NoteOnEvent(tick=240, channel=0, data=[69, 0]),
   midi.NoteOnEvent(tick=0, channel=0, data=[70, 44]),
   midi.NoteOnEvent(tick=240, channel=0, data=[70, 0]),
   midi.NoteOnEvent(tick=0, channel=0, data=[74, 45]),
   midi.NoteOnEvent(tick=240, channel=0, data=[74, 0]),
   midi.NoteOnEvent(tick=0, channel=0, data=[65, 0]),
   midi.NoteOnEvent(tick=0, channel=0, data=[58, 0]),
   midi.NoteOnEvent(tick=0, channel=0, data=[77, 44]),
   midi.NoteOnEvent(tick=240, channel=0, data=[82, 46]),
   midi.NoteOnEvent(tick=230, channel=0, data=[82, 0]),
   midi.NoteOnEvent(tick=10, channel=0, data=[77, 0]),
   midi.NoteOnEvent(tick=0, channel=0, data=[76, 36]),
   midi.NoteOnEvent(tick=0, channel=0, data=[82, 46]),
   midi.NoteOnEvent(tick=720, channel=0, data=[73, 36]),
   midi.NoteOnEvent(tick=240, channel=0, data=[73, 0]),
   midi.NoteOnEvent(tick=0, channel=0, data=[82, 0]),
   midi.NoteOnEvent(tick=0, channel=0, data=[76, 0]),
   midi.NoteOnEvent(tick=0, channel=0, data=[76, 36]),
   midi.NoteOnEvent(tick=5, channel=0, data=[81, 40]),
   midi.NoteOnEvent(tick=240, channel=0, data=[81, 0]),
   midi.NoteOnEvent(tick=0, channel=0, data=[79, 37]),
   midi.NoteOnEvent(tick=235, channel=0, data=[79, 0]),
   midi.NoteOnEvent(tick=0, channel=0, data=[76, 0]),
   midi.NoteOnEvent(tick=0, channel=0, data=[77, 45]),
   midi.NoteOnEvent(tick=240, channel=0, data=[77, 0]),
   midi.NoteOnEvent(tick=0, channel=0, data=[81, 42]),
   midi.NoteOnEvent(tick=240, channel=0, data=[81, 0]),
   midi.NoteOnEvent(tick=0, channel=0, data=[74, 45]),
   midi.NoteOnEvent(tick=240, channel=0, data=[74, 0]),
   midi.NoteOnEvent(tick=0, channel=0, data=[70, 40]),
   midi.NoteOnEvent(tick=0, channel=0, data=[76, 40]),
   midi.NoteOnEvent(tick=240, channel=0, data=[76, 0]),
   midi.NoteOnEvent(tick=0, channel=0, data=[70, 0]),
   midi.NoteOnEvent(tick=0, channel=0, data=[69, 36]),
   midi.NoteOnEvent(tick=0, channel=0, data=[77, 44]),
   midi.NoteOnEvent(tick=240, channel=0, data=[69, 0]),
   midi.NoteOnEvent(tick=0, channel=0, data=[74, 37]),
   midi.NoteOnEvent(tick=240, channel=0, data=[74, 0]),
   midi.NoteOnEvent(tick=0, channel=0, data=[65, 37]),
   midi.NoteOnEvent(tick=240, channel=0, data=[65, 0]),
   midi.NoteOnEvent(tick=0, channel=0, data=[77, 0]),
   midi.NoteOnEvent(tick=0, channel=0, data=[67, 37]),
   midi.NoteOnEvent(tick=0, channel=0, data=[76, 37]),
   midi.NoteOnEvent(tick=240, channel=0, data=[76, 0]),
   midi.NoteOnEvent(tick=0, channel=0, data=[67, 0]),
   midi.NoteOnEvent(tick=0, channel=0, data=[65, 40]),
   midi.NoteOnEvent(tick=0, channel=0, data=[74, 42]),
   midi.NoteOnEvent(tick=240, channel=0, data=[65, 0]),
   midi.NoteOnEvent(tick=0, channel=0, data=[69, 38]),
   midi.NoteOnEvent(tick=240, channel=0, data=[69, 0]),
   midi.NoteOnEvent(tick=240, channel=0, data=[74, 0]),
   midi.NoteOnEvent(tick=0, channel=0, data=[67, 36]),
   midi.NoteOnEvent(tick=0, channel=0, data=[69, 36]),
   midi.NoteOnEvent(tick=240, channel=0, data=[67, 0]),
   midi.NoteOnEvent(tick=0, channel=0, data=[65, 35]),
   midi.NoteOnEvent(tick=240, channel=0, data=[69, 0]),
   midi.NoteOnEvent(tick=240, channel=0, data=[65, 0]),
   midi.NoteOnEvent(tick=0, channel=0, data=[64, 29]),
   midi.NoteOnEvent(tick=0, channel=0, data=[67, 30]),
   midi.NoteOnEvent(tick=360, channel=0, data=[67, 0]),
   midi.NoteOnEvent(tick=0, channel=0, data=[64, 0]),
   midi.NoteOnEvent(tick=0, channel=0, data=[60, 34]),
   midi.NoteOnEvent(tick=120, channel=0, data=[60, 0]),
   midi.NoteOnEvent(tick=0, channel=0, data=[65, 46]),
   midi.NoteOnEvent(tick=480, channel=0, data=[53, 23]),
   midi.NoteOnEvent(tick=0, channel=0, data=[60, 23]),
   midi.NoteOnEvent(tick=720, channel=0, data=[65, 0]),
   midi.NoteOnEvent(tick=0, channel=0, data=[64, 40]),
   midi.NoteOnEvent(tick=240, channel=0, data=[64, 0]),
   midi.NoteOnEvent(tick=0, channel=0, data=[65, 43]),
   midi.NoteOnEvent(tick=240, channel=0, data=[65, 0]),
   midi.NoteOnEvent(tick=0, channel=0, data=[69, 44]),
   midi.NoteOnEvent(tick=240, channel=0, data=[69, 0]),
   midi.NoteOnEvent(tick=0, channel=0, data=[60, 0]),
   midi.NoteOnEvent(tick=0, channel=0, data=[53, 0]),
   midi.NoteOnEvent(tick=0, channel=0, data=[72, 46]),
   midi.NoteOnEvent(tick=240, channel=0, data=[72, 0]),
   midi.NoteOnEvent(tick=0, channel=0, data=[77, 46]),
   midi.NoteOnEvent(tick=230, channel=0, data=[77, 0]),
   midi.NoteOnEvent(tick=10, channel=0, data=[65, 34]),
   midi.NoteOnEvent(tick=10, channel=0, data=[77, 45]),
   midi.NoteOnEvent(tick=957, channel=0, data=[76, 31]),
   midi.NoteOnEvent(tick=3, channel=0, data=[77, 0]),
   midi.NoteOnEvent(tick=235, channel=0, data=[74, 29]),
   midi.NoteOnEvent(tick=2, channel=0, data=[76, 0]),
   midi.NoteOnEvent(tick=233, channel=0, data=[74, 0]),
   midi.NoteOnEvent(tick=0, channel=0, data=[72, 37]),
   midi.NoteOnEvent(tick=240, channel=0, data=[72, 0]),
   midi.NoteOnEvent(tick=0, channel=0, data=[77, 34]),
   midi.NoteOnEvent(tick=240, channel=0, data=[77, 0]),
   midi.NoteOnEvent(tick=0, channel=0, data=[65, 0]),
   midi.NoteOnEvent(tick=0, channel=0, data=[64, 37]),
   midi.NoteOnEvent(tick=0, channel=0, data=[67, 36]),
   midi.NoteOnEvent(tick=240, channel=0, data=[67, 0]),
   midi.NoteOnEvent(tick=0, channel=0, data=[69, 36]),
   midi.NoteOnEvent(tick=240, channel=0, data=[69, 0]),
   midi.NoteOnEvent(tick=0, channel=0, data=[70, 41]),
   midi.NoteOnEvent(tick=240, channel=0, data=[70, 0]),
   midi.NoteOnEvent(tick=0, channel=0, data=[74, 34]),
   midi.NoteOnEvent(tick=240, channel=0, data=[74, 0]),
   midi.NoteOnEvent(tick=0, channel=0, data=[64, 0]),
   midi.NoteOnEvent(tick=0, channel=0, data=[60, 41]),
   midi.NoteOnEvent(tick=0, channel=0, data=[65, 41]),
   midi.NoteOnEvent(tick=240, channel=0, data=[65, 0]),
   midi.NoteOnEvent(tick=0, channel=0, data=[64, 41]),
   midi.NoteOnEvent(tick=0, channel=0, data=[67, 41]),
   midi.NoteOnEvent(tick=240, channel=0, data=[67, 0]),
   midi.NoteOnEvent(tick=0, channel=0, data=[64, 0]),
   midi.NoteOnEvent(tick=0, channel=0, data=[65, 44]),
   midi.NoteOnEvent(tick=0, channel=0, data=[69, 44]),
   midi.NoteOnEvent(tick=240, channel=0, data=[69, 0]),
   midi.NoteOnEvent(tick=0, channel=0, data=[65, 0]),
   midi.NoteOnEvent(tick=0, channel=0, data=[72, 34]),
   midi.NoteOnEvent(tick=240, channel=0, data=[72, 0]),
   midi.NoteOnEvent(tick=0, channel=0, data=[60, 0]),
   midi.NoteOnEvent(tick=0, channel=0, data=[60, 40]),
   midi.NoteOnEvent(tick=0, channel=0, data=[64, 40]),
   midi.NoteOnEvent(tick=0, channel=0, data=[67, 40]),
   midi.NoteOnEvent(tick=960, channel=0, data=[67, 0]),
   midi.NoteOnEvent(tick=0, channel=0, data=[64, 0]),
   midi.NoteOnEvent(tick=0, channel=0, data=[60, 0]),
   midi.NoteOnEvent(tick=20, channel=0, data=[60, 45]),
   midi.NoteOnEvent(tick=460, channel=0, data=[60, 0]),
   midi.NoteOnEvent(tick=0, channel=0, data=[65, 52]),
   midi.NoteOnEvent(tick=480, channel=0, data=[53, 23]),
   midi.NoteOnEvent(tick=0, channel=0, data=[60, 23]),
   midi.NoteOnEvent(tick=720, channel=0, data=[65, 0]),
   midi.NoteOnEvent(tick=0, channel=0, data=[64, 40]),
   midi.NoteOnEvent(tick=240, channel=0, data=[64, 0]),
   midi.NoteOnEvent(tick=0, channel=0, data=[65, 43]),
   midi.NoteOnEvent(tick=240, channel=0, data=[65, 0]),
   midi.NoteOnEvent(tick=0, channel=0, data=[69, 44]),
   midi.NoteOnEvent(tick=240, channel=0, data=[69, 0]),
   midi.NoteOnEvent(tick=0, channel=0, data=[60, 0]),
   midi.NoteOnEvent(tick=0, channel=0, data=[53, 0]),
   midi.NoteOnEvent(tick=0, channel=0, data=[72, 46]),
   midi.NoteOnEvent(tick=240, channel=0, data=[72, 0]),
   midi.NoteOnEvent(tick=0, channel=0, data=[81, 45]),
   midi.NoteOnEvent(tick=230, channel=0, data=[81, 0]),
   midi.NoteOnEvent(tick=10, channel=0, data=[74, 29]),
   midi.NoteOnEvent(tick=0, channel=0, data=[65, 29]),
   midi.NoteOnEvent(tick=0, channel=0, data=[81, 32]),
   midi.NoteOnEvent(tick=0, channel=0, data=[67, 29]),
   midi.NoteOnEvent(tick=720, channel=0, data=[81, 0]),
   midi.NoteOnEvent(tick=0, channel=0, data=[79, 36]),
   midi.NoteOnEvent(tick=240, channel=0, data=[79, 0]),
   midi.NoteOnEvent(tick=0, channel=0, data=[77, 36]),
   midi.NoteOnEvent(tick=240, channel=0, data=[77, 0]),
   midi.NoteOnEvent(tick=0, channel=0, data=[74, 36]),
   midi.NoteOnEvent(tick=240, channel=0, data=[74, 0]),
   midi.NoteOnEvent(tick=0, channel=0, data=[67, 0]),
   midi.NoteOnEvent(tick=0, channel=0, data=[65, 0]),
   midi.NoteOnEvent(tick=0, channel=0, data=[74, 0]),
   midi.NoteOnEvent(tick=0, channel=0, data=[72, 39]),
   midi.NoteOnEvent(tick=240, channel=0, data=[72, 0]),
   midi.NoteOnEvent(tick=0, channel=0, data=[77, 35]),
   midi.NoteOnEvent(tick=240, channel=0, data=[77, 0]),
   midi.NoteOnEvent(tick=0, channel=0, data=[64, 29]),
   midi.NoteOnEvent(tick=0, channel=0, data=[67, 36]),
   midi.NoteOnEvent(tick=240, channel=0, data=[67, 0]),
   midi.NoteOnEvent(tick=0, channel=0, data=[69, 36]),
   midi.NoteOnEvent(tick=240, channel=0, data=[69, 0]),
   midi.NoteOnEvent(tick=0, channel=0, data=[70, 43]),
   midi.NoteOnEvent(tick=240, channel=0, data=[70, 0]),
   midi.NoteOnEvent(tick=0, channel=0, data=[74, 34]),
   midi.NoteOnEvent(tick=240, channel=0, data=[74, 0]),
   midi.NoteOnEvent(tick=0, channel=0, data=[64, 0]),
   midi.NoteOnEvent(tick=0, channel=0, data=[62, 32]),
   midi.NoteOnEvent(tick=0, channel=0, data=[67, 32]),
   midi.NoteOnEvent(tick=240, channel=0, data=[67, 0]),
   midi.NoteOnEvent(tick=0, channel=0, data=[69, 32]),
   midi.NoteOnEvent(tick=0, channel=0, data=[66, 32]),
   midi.NoteOnEvent(tick=240, channel=0, data=[66, 0]),
   midi.NoteOnEvent(tick=0, channel=0, data=[69, 0]),
   midi.NoteOnEvent(tick=0, channel=0, data=[70, 36]),
   midi.NoteOnEvent(tick=240, channel=0, data=[70, 0]),
   midi.NoteOnEvent(tick=0, channel=0, data=[74, 33]),
   midi.NoteOnEvent(tick=240, channel=0, data=[74, 0]),
   midi.NoteOnEvent(tick=0, channel=0, data=[62, 0]),
   midi.NoteOnEvent(tick=0, channel=0, data=[58, 29]),
   midi.NoteOnEvent(tick=0, channel=0, data=[62, 29]),
   midi.NoteOnEvent(tick=240, channel=0, data=[62, 0]),
   midi.NoteOnEvent(tick=0, channel=0, data=[60, 29]),
   midi.NoteOnEvent(tick=0, channel=0, data=[64, 29]),
   midi.NoteOnEvent(tick=240, channel=0, data=[64, 0]),
   midi.NoteOnEvent(tick=0, channel=0, data=[58, 0]),
   midi.NoteOnEvent(tick=0, channel=0, data=[57, 29]),
   midi.NoteOnEvent(tick=0, channel=0, data=[65, 29]),
   midi.NoteOnEvent(tick=960, channel=0, data=[65, 0]),
   midi.NoteOnEvent(tick=0, channel=0, data=[57, 0]),
   midi.NoteOnEvent(tick=0, channel=0, data=[60, 0]),
   midi.EndOfTrackEvent(tick=0, data=[])]),
 midi.Track(\
  [midi.TrackNameEvent(tick=0, text='Piano left', data=[80, 105, 97, 110, 111, 32, 108, 101, 102, 116]),
   midi.ProgramChangeEvent(tick=0, channel=0, data=[0]),
   midi.ControlChangeEvent(tick=0, channel=0, data=[7, 100]),
   midi.ControlChangeEvent(tick=0, channel=0, data=[10, 64]),
   midi.ControlChangeEvent(tick=0, channel=0, data=[64, 0]),
   midi.ControlChangeEvent(tick=1439, channel=0, data=[91, 127]),
   midi.ControlChangeEvent(tick=54, channel=0, data=[64, 127]),
   midi.NoteOnEvent(tick=427, channel=0, data=[41, 46]),
   midi.NoteOnEvent(tick=480, channel=0, data=[48, 22]),
   midi.NoteOnEvent(tick=0, channel=0, data=[57, 22]),
   midi.ControlChangeEvent(tick=728, channel=0, data=[64, 0]),
   midi.ControlChangeEvent(tick=288, channel=0, data=[64, 127]),
   midi.NoteOnEvent(tick=784, channel=0, data=[46, 31]),
   midi.ControlChangeEvent(tick=4, channel=0, data=[64, 0]),
   midi.ControlChangeEvent(tick=49, channel=0, data=[64, 127]),
   midi.NoteOnEvent(tick=7, channel=0, data=[53, 35]),
   midi.NoteOnEvent(tick=10, channel=0, data=[46, 0]),
   midi.NoteOnEvent(tick=50, channel=0, data=[57, 0]),
   midi.NoteOnEvent(tick=0, channel=0, data=[41, 0]),
   midi.NoteOnEvent(tick=0, channel=0, data=[48, 0]),
   midi.NoteOnEvent(tick=10, channel=0, data=[62, 39]),
   midi.NoteOnEvent(tick=950, channel=0, data=[60, 36]),
   midi.NoteOnEvent(tick=10, channel=0, data=[62, 0]),
   midi.ControlChangeEvent(tick=0, channel=0, data=[64, 0]),
   midi.NoteOnEvent(tick=230, channel=0, data=[60, 0]),
   midi.NoteOnEvent(tick=0, channel=0, data=[58, 34]),
   midi.NoteOnEvent(tick=240, channel=0, data=[58, 0]),
   midi.NoteOnEvent(tick=0, channel=0, data=[53, 0]),
   midi.NoteOnEvent(tick=0, channel=0, data=[48, 33]),
   midi.NoteOnEvent(tick=0, channel=0, data=[57, 33]),
   midi.ControlChangeEvent(tick=42, channel=0, data=[64, 127]),
   midi.NoteOnEvent(tick=438, channel=0, data=[57, 0]),
   midi.NoteOnEvent(tick=0, channel=0, data=[48, 0]),
   midi.NoteOnEvent(tick=0, channel=0, data=[58, 38]),
   midi.NoteOnEvent(tick=0, channel=0, data=[48, 38]),
   midi.ControlChangeEvent(tick=6, channel=0, data=[64, 0]),
   midi.NoteOnEvent(tick=234, channel=0, data=[58, 0]),
   midi.NoteOnEvent(tick=0, channel=0, data=[57, 38]),
   midi.NoteOnEvent(tick=240, channel=0, data=[57, 0]),
   midi.NoteOnEvent(tick=0, channel=0, data=[55, 42]),
   midi.ControlChangeEvent(tick=127, channel=0, data=[64, 127]),
   midi.NoteOnEvent(tick=353, channel=0, data=[55, 0]),
   midi.NoteOnEvent(tick=0, channel=0, data=[48, 0]),
   midi.NoteOnEvent(tick=0, channel=0, data=[45, 36]),
   midi.NoteOnEvent(tick=0, channel=0, data=[53, 36]),
   midi.ControlChangeEvent(tick=3, channel=0, data=[64, 0]),
   midi.NoteOnEvent(tick=237, channel=0, data=[53, 0]),
   midi.NoteOnEvent(tick=0, channel=0, data=[45, 0]),
   midi.NoteOnEvent(tick=0, channel=0, data=[48, 39]),
   midi.NoteOnEvent(tick=0, channel=0, data=[55, 39]),
   midi.NoteOnEvent(tick=240, channel=0, data=[55, 0]),
   midi.NoteOnEvent(tick=0, channel=0, data=[48, 0]),
   midi.NoteOnEvent(tick=0, channel=0, data=[53, 42]),
   midi.NoteOnEvent(tick=0, channel=0, data=[57, 42]),
   midi.ControlChangeEvent(tick=120, channel=0, data=[64, 127]),
   midi.NoteOnEvent(tick=360, channel=0, data=[57, 0]),
   midi.NoteOnEvent(tick=0, channel=0, data=[53, 0]),
   midi.NoteOnEvent(tick=0, channel=0, data=[48, 39]),
   midi.NoteOnEvent(tick=0, channel=0, data=[55, 39]),
   midi.ControlChangeEvent(tick=5, channel=0, data=[64, 0]),
   midi.NoteOnEvent(tick=235, channel=0, data=[48, 0]),
   midi.NoteOnEvent(tick=0, channel=0, data=[50, 50]),
   midi.NoteOnEvent(tick=240, channel=0, data=[50, 0]),
   midi.NoteOnEvent(tick=0, channel=0, data=[48, 47]),
   midi.NoteOnEvent(tick=240, channel=0, data=[48, 0]),
   midi.NoteOnEvent(tick=0, channel=0, data=[46, 47]),
   midi.NoteOnEvent(tick=240, channel=0, data=[46, 0]),
   midi.NoteOnEvent(tick=0, channel=0, data=[55, 0]),
   midi.NoteOnEvent(tick=0, channel=0, data=[43, 48]),
   midi.NoteOnEvent(tick=240, channel=0, data=[43, 0]),
   midi.NoteOnEvent(tick=0, channel=0, data=[45, 48]),
   midi.NoteOnEvent(tick=240, channel=0, data=[45, 0]),
   midi.NoteOnEvent(tick=0, channel=0, data=[41, 46]),
   midi.ControlChangeEvent(tick=198, channel=0, data=[64, 127]),
   midi.NoteOnEvent(tick=282, channel=0, data=[48, 22]),
   midi.NoteOnEvent(tick=0, channel=0, data=[57, 22]),
   midi.ControlChangeEvent(tick=730, channel=0, data=[64, 0]),
   midi.ControlChangeEvent(tick=470, channel=0, data=[64, 127]),
   midi.NoteOnEvent(tick=600, channel=0, data=[49, 28]),
   midi.ControlChangeEvent(tick=2, channel=0, data=[64, 0]),
   midi.ControlChangeEvent(tick=34, channel=0, data=[64, 127]),
   midi.NoteOnEvent(tick=24, channel=0, data=[57, 30]),
   midi.NoteOnEvent(tick=10, channel=0, data=[49, 0]),
   midi.NoteOnEvent(tick=50, channel=0, data=[57, 0]),
   midi.NoteOnEvent(tick=0, channel=0, data=[41, 0]),
   midi.NoteOnEvent(tick=0, channel=0, data=[48, 0]),
   midi.NoteOnEvent(tick=0, channel=0, data=[64, 35]),
   midi.ControlChangeEvent(tick=968, channel=0, data=[64, 0]),
   midi.NoteOnEvent(tick=472, channel=0, data=[64, 0]),
   midi.NoteOnEvent(tick=0, channel=0, data=[50, 33]),
   midi.NoteOnEvent(tick=0, channel=0, data=[62, 33]),
   midi.ControlChangeEvent(tick=60, channel=0, data=[64, 127]),
   midi.ControlChangeEvent(tick=435, channel=0, data=[64, 0]),
   midi.NoteOnEvent(tick=225, channel=0, data=[62, 0]),
   midi.NoteOnEvent(tick=0, channel=0, data=[50, 0]),
   midi.NoteOnEvent(tick=0, channel=0, data=[57, 0]),
   midi.NoteOnEvent(tick=0, channel=0, data=[60, 29]),
   midi.NoteOnEvent(tick=0, channel=0, data=[53, 29]),
   midi.NoteOnEvent(tick=240, channel=0, data=[53, 0]),
   midi.NoteOnEvent(tick=0, channel=0, data=[55, 33]),
   midi.ControlChangeEvent(tick=137, channel=0, data=[64, 127]),
   midi.ControlChangeEvent(tick=356, channel=0, data=[64, 0]),
   midi.NoteOnEvent(tick=227, channel=0, data=[55, 0]),
   midi.NoteOnEvent(tick=0, channel=0, data=[60, 0]),
   midi.NoteOnEvent(tick=0, channel=0, data=[57, 33]),
   midi.NoteOnEvent(tick=0, channel=0, data=[60, 33]),
   midi.NoteOnEvent(tick=240, channel=0, data=[60, 0]),
   midi.NoteOnEvent(tick=0, channel=0, data=[57, 0]),
   midi.NoteOnEvent(tick=0, channel=0, data=[59, 36]),
   midi.NoteOnEvent(tick=0, channel=0, data=[55, 36]),
   midi.ControlChangeEvent(tick=50, channel=0, data=[64, 127]),
   midi.NoteOnEvent(tick=190, channel=0, data=[59, 0]),
   midi.NoteOnEvent(tick=0, channel=0, data=[67, 33]),
   midi.NoteOnEvent(tick=240, channel=0, data=[67, 0]),
   midi.NoteOnEvent(tick=0, channel=0, data=[57, 33]),
   midi.ControlChangeEvent(tick=3, channel=0, data=[64, 0]),
   midi.NoteOnEvent(tick=237, channel=0, data=[57, 0]),
   midi.NoteOnEvent(tick=0, channel=0, data=[59, 33]),
   midi.NoteOnEvent(tick=240, channel=0, data=[59, 0]),
   midi.NoteOnEvent(tick=0, channel=0, data=[55, 0]),
   midi.NoteOnEvent(tick=0, channel=0, data=[48, 37]),
   midi.NoteOnEvent(tick=0, channel=0, data=[60, 37]),
   midi.NoteOnEvent(tick=240, channel=0, data=[60, 0]),
   midi.NoteOnEvent(tick=0, channel=0, data=[48, 0]),
   midi.NoteOnEvent(tick=0, channel=0, data=[50, 46]),
   midi.NoteOnEvent(tick=240, channel=0, data=[50, 0]),
   midi.NoteOnEvent(tick=0, channel=0, data=[46, 41]),
   midi.NoteOnEvent(tick=240, channel=0, data=[46, 0]),
   midi.NoteOnEvent(tick=0, channel=0, data=[43, 40]),
   midi.NoteOnEvent(tick=240, channel=0, data=[43, 0]),
   midi.NoteOnEvent(tick=0, channel=0, data=[41, 46]),
   midi.ControlChangeEvent(tick=141, channel=0, data=[64, 127]),
   midi.NoteOnEvent(tick=339, channel=0, data=[48, 22]),
   midi.NoteOnEvent(tick=0, channel=0, data=[57, 22]),
   midi.ControlChangeEvent(tick=722, channel=0, data=[64, 0]),
   midi.ControlChangeEvent(tick=337, channel=0, data=[64, 127]),
   midi.NoteOnEvent(tick=741, channel=0, data=[46, 31]),
   midi.ControlChangeEvent(tick=22, channel=0, data=[64, 0]),
   midi.ControlChangeEvent(tick=35, channel=0, data=[64, 127]),
   midi.NoteOnEvent(tick=3, channel=0, data=[53, 35]),
   midi.NoteOnEvent(tick=10, channel=0, data=[46, 0]),
   midi.NoteOnEvent(tick=50, channel=0, data=[57, 0]),
   midi.NoteOnEvent(tick=0, channel=0, data=[41, 0]),
   midi.NoteOnEvent(tick=0, channel=0, data=[48, 0]),
   midi.NoteOnEvent(tick=10, channel=0, data=[62, 39]),
   midi.NoteOnEvent(tick=950, channel=0, data=[60, 34]),
   midi.NoteOnEvent(tick=10, channel=0, data=[62, 0]),
   midi.ControlChangeEvent(tick=4, channel=0, data=[64, 0]),
   midi.NoteOnEvent(tick=226, channel=0, data=[60, 0]),
   midi.NoteOnEvent(tick=0, channel=0, data=[58, 31]),
   midi.NoteOnEvent(tick=240, channel=0, data=[58, 0]),
   midi.NoteOnEvent(tick=0, channel=0, data=[53, 0]),
   midi.NoteOnEvent(tick=0, channel=0, data=[48, 33]),
   midi.NoteOnEvent(tick=0, channel=0, data=[57, 33]),
   midi.ControlChangeEvent(tick=120, channel=0, data=[64, 127]),
   midi.NoteOnEvent(tick=360, channel=0, data=[57, 0]),
   midi.NoteOnEvent(tick=0, channel=0, data=[48, 0]),
   midi.NoteOnEvent(tick=0, channel=0, data=[58, 37]),
   midi.NoteOnEvent(tick=0, channel=0, data=[48, 38]),
   midi.ControlChangeEvent(tick=7, channel=0, data=[64, 0]),
   midi.NoteOnEvent(tick=233, channel=0, data=[58, 0]),
   midi.NoteOnEvent(tick=0, channel=0, data=[57, 37]),
   midi.NoteOnEvent(tick=240, channel=0, data=[57, 0]),
   midi.NoteOnEvent(tick=0, channel=0, data=[55, 40]),
   midi.ControlChangeEvent(tick=99, channel=0, data=[64, 127]),
   midi.NoteOnEvent(tick=381, channel=0, data=[55, 0]),
   midi.NoteOnEvent(tick=0, channel=0, data=[48, 0]),
   midi.NoteOnEvent(tick=0, channel=0, data=[45, 36]),
   midi.NoteOnEvent(tick=0, channel=0, data=[53, 36]),
   midi.ControlChangeEvent(tick=4, channel=0, data=[64, 0]),
   midi.NoteOnEvent(tick=236, channel=0, data=[53, 0]),
   midi.NoteOnEvent(tick=0, channel=0, data=[45, 0]),
   midi.NoteOnEvent(tick=0, channel=0, data=[48, 39]),
   midi.NoteOnEvent(tick=0, channel=0, data=[55, 39]),
   midi.NoteOnEvent(tick=240, channel=0, data=[55, 0]),
   midi.NoteOnEvent(tick=0, channel=0, data=[48, 0]),
   midi.NoteOnEvent(tick=0, channel=0, data=[53, 42]),
   midi.NoteOnEvent(tick=0, channel=0, data=[57, 42]),
   midi.ControlChangeEvent(tick=99, channel=0, data=[64, 127]),
   midi.NoteOnEvent(tick=381, channel=0, data=[57, 0]),
   midi.NoteOnEvent(tick=0, channel=0, data=[53, 0]),
   midi.NoteOnEvent(tick=0, channel=0, data=[48, 39]),
   midi.NoteOnEvent(tick=0, channel=0, data=[55, 39]),
   midi.ControlChangeEvent(tick=14, channel=0, data=[64, 0]),
   midi.NoteOnEvent(tick=226, channel=0, data=[48, 0]),
   midi.NoteOnEvent(tick=0, channel=0, data=[50, 50]),
   midi.NoteOnEvent(tick=240, channel=0, data=[50, 0]),
   midi.NoteOnEvent(tick=0, channel=0, data=[48, 47]),
   midi.NoteOnEvent(tick=240, channel=0, data=[48, 0]),
   midi.NoteOnEvent(tick=0, channel=0, data=[46, 47]),
   midi.NoteOnEvent(tick=240, channel=0, data=[46, 0]),
   midi.NoteOnEvent(tick=0, channel=0, data=[55, 0]),
   midi.NoteOnEvent(tick=0, channel=0, data=[43, 48]),
   midi.NoteOnEvent(tick=240, channel=0, data=[43, 0]),
   midi.NoteOnEvent(tick=0, channel=0, data=[45, 48]),
   midi.NoteOnEvent(tick=240, channel=0, data=[45, 0]),
   midi.NoteOnEvent(tick=0, channel=0, data=[41, 46]),
   midi.ControlChangeEvent(tick=141, channel=0, data=[64, 127]),
   midi.NoteOnEvent(tick=339, channel=0, data=[48, 22]),
   midi.NoteOnEvent(tick=0, channel=0, data=[57, 22]),
   midi.ControlChangeEvent(tick=723, channel=0, data=[64, 0]),
   midi.ControlChangeEvent(tick=279, channel=0, data=[64, 127]),
   midi.NoteOnEvent(tick=798, channel=0, data=[49, 28]),
   midi.ControlChangeEvent(tick=8, channel=0, data=[64, 0]),
   midi.ControlChangeEvent(tick=52, channel=0, data=[64, 127]),
   midi.NoteOnEvent(tick=0, channel=0, data=[57, 30]),
   midi.NoteOnEvent(tick=10, channel=0, data=[49, 0]),
   midi.NoteOnEvent(tick=50, channel=0, data=[57, 0]),
   midi.NoteOnEvent(tick=0, channel=0, data=[41, 0]),
   midi.NoteOnEvent(tick=0, channel=0, data=[48, 0]),
   midi.NoteOnEvent(tick=0, channel=0, data=[64, 35]),
   midi.ControlChangeEvent(tick=737, channel=0, data=[64, 0]),
   midi.NoteOnEvent(tick=703, channel=0, data=[64, 0]),
   midi.NoteOnEvent(tick=0, channel=0, data=[50, 33]),
   midi.NoteOnEvent(tick=0, channel=0, data=[62, 33]),
   midi.ControlChangeEvent(tick=120, channel=0, data=[64, 127]),
   midi.ControlChangeEvent(tick=368, channel=0, data=[64, 0]),
   midi.NoteOnEvent(tick=232, channel=0, data=[62, 0]),
   midi.NoteOnEvent(tick=0, channel=0, data=[50, 0]),
   midi.NoteOnEvent(tick=0, channel=0, data=[57, 0]),
   midi.NoteOnEvent(tick=0, channel=0, data=[60, 29]),
   midi.NoteOnEvent(tick=0, channel=0, data=[53, 29]),
   midi.NoteOnEvent(tick=240, channel=0, data=[53, 0]),
   midi.NoteOnEvent(tick=0, channel=0, data=[55, 33]),
   midi.ControlChangeEvent(tick=103, channel=0, data=[64, 127]),
   midi.ControlChangeEvent(tick=385, channel=0, data=[64, 0]),
   midi.NoteOnEvent(tick=232, channel=0, data=[55, 0]),
   midi.NoteOnEvent(tick=0, channel=0, data=[60, 0]),
   midi.NoteOnEvent(tick=0, channel=0, data=[57, 33]),
   midi.NoteOnEvent(tick=0, channel=0, data=[60, 33]),
   midi.NoteOnEvent(tick=240, channel=0, data=[60, 0]),
   midi.NoteOnEvent(tick=0, channel=0, data=[57, 0]),
   midi.NoteOnEvent(tick=0, channel=0, data=[59, 36]),
   midi.NoteOnEvent(tick=0, channel=0, data=[55, 36]),
   midi.ControlChangeEvent(tick=120, channel=0, data=[64, 127]),
   midi.NoteOnEvent(tick=120, channel=0, data=[59, 0]),
   midi.NoteOnEvent(tick=0, channel=0, data=[67, 33]),
   midi.NoteOnEvent(tick=240, channel=0, data=[67, 0]),
   midi.NoteOnEvent(tick=0, channel=0, data=[57, 33]),
   midi.ControlChangeEvent(tick=12, channel=0, data=[64, 0]),
   midi.NoteOnEvent(tick=228, channel=0, data=[57, 0]),
   midi.NoteOnEvent(tick=0, channel=0, data=[59, 33]),
   midi.NoteOnEvent(tick=240, channel=0, data=[59, 0]),
   midi.NoteOnEvent(tick=0, channel=0, data=[55, 0]),
   midi.NoteOnEvent(tick=0, channel=0, data=[48, 37]),
   midi.NoteOnEvent(tick=0, channel=0, data=[60, 37]),
   midi.NoteOnEvent(tick=240, channel=0, data=[60, 0]),
   midi.NoteOnEvent(tick=0, channel=0, data=[48, 0]),
   midi.NoteOnEvent(tick=0, channel=0, data=[50, 46]),
   midi.NoteOnEvent(tick=240, channel=0, data=[50, 0]),
   midi.NoteOnEvent(tick=0, channel=0, data=[46, 42]),
   midi.NoteOnEvent(tick=240, channel=0, data=[46, 0]),
   midi.NoteOnEvent(tick=0, channel=0, data=[43, 40]),
   midi.NoteOnEvent(tick=240, channel=0, data=[43, 0]),
   midi.NoteOnEvent(tick=0, channel=0, data=[41, 50]),
   midi.ControlChangeEvent(tick=170, channel=0, data=[64, 127]),
   midi.NoteOnEvent(tick=310, channel=0, data=[48, 24]),
   midi.NoteOnEvent(tick=0, channel=0, data=[57, 24]),
   midi.ControlChangeEvent(tick=723, channel=0, data=[64, 0]),
   midi.ControlChangeEvent(tick=449, channel=0, data=[64, 127]),
   midi.NoteOnEvent(tick=268, channel=0, data=[57, 0]),
   midi.NoteOnEvent(tick=0, channel=0, data=[48, 0]),
   midi.NoteOnEvent(tick=0, channel=0, data=[41, 0]),
   midi.ControlChangeEvent(tick=0, channel=0, data=[64, 0]),
   midi.ControlChangeEvent(tick=172, channel=0, data=[64, 127]),
   midi.NoteOnEvent(tick=68, channel=0, data=[48, 36]),
   midi.NoteOnEvent(tick=0, channel=0, data=[55, 39]),
   midi.NoteOnEvent(tick=240, channel=0, data=[55, 0]),
   midi.NoteOnEvent(tick=0, channel=0, data=[48, 0]),
   midi.NoteOnEvent(tick=0, channel=0, data=[54, 41]),
   midi.NoteOnEvent(tick=0, channel=0, data=[50, 41]),
   midi.ControlChangeEvent(tick=7, channel=0, data=[64, 0]),
   midi.NoteOnEvent(tick=233, channel=0, data=[54, 0]),
   midi.NoteOnEvent(tick=0, channel=0, data=[57, 41]),
   midi.NoteOnEvent(tick=240, channel=0, data=[57, 0]),
   midi.NoteOnEvent(tick=0, channel=0, data=[62, 44]),
   midi.NoteOnEvent(tick=720, channel=0, data=[50, 0]),
   midi.NoteOnEvent(tick=0, channel=0, data=[54, 41]),
   midi.NoteOnEvent(tick=240, channel=0, data=[54, 0]),
   midi.NoteOnEvent(tick=0, channel=0, data=[55, 46]),
   midi.ControlChangeEvent(tick=137, channel=0, data=[64, 127]),
   midi.ControlChangeEvent(tick=361, channel=0, data=[64, 0]),
   midi.NoteOnEvent(tick=222, channel=0, data=[55, 0]),
   midi.NoteOnEvent(tick=0, channel=0, data=[62, 0]),
   midi.NoteOnEvent(tick=0, channel=0, data=[54, 39]),
   midi.NoteOnEvent(tick=0, channel=0, data=[48, 39]),
   midi.NoteOnEvent(tick=240, channel=0, data=[48, 0]),
   midi.NoteOnEvent(tick=0, channel=0, data=[54, 0]),
   midi.NoteOnEvent(tick=0, channel=0, data=[50, 44]),
   midi.NoteOnEvent(tick=0, channel=0, data=[55, 44]),
   midi.ControlChangeEvent(tick=137, channel=0, data=[64, 127]),
   midi.ControlChangeEvent(tick=357, channel=0, data=[64, 0]),
   midi.NoteOnEvent(tick=226, channel=0, data=[55, 0]),
   midi.NoteOnEvent(tick=0, channel=0, data=[50, 0]),
   midi.NoteOnEvent(tick=0, channel=0, data=[51, 40]),
   midi.NoteOnEvent(tick=240, channel=0, data=[51, 0]),
   midi.NoteOnEvent(tick=0, channel=0, data=[58, 45]),
   midi.NoteOnEvent(tick=0, channel=0, data=[50, 45]),
   midi.ControlChangeEvent(tick=120, channel=0, data=[64, 127]),
   midi.NoteOnEvent(tick=120, channel=0, data=[58, 0]),
   midi.NoteOnEvent(tick=0, channel=0, data=[62, 40]),
   midi.NoteOnEvent(tick=240, channel=0, data=[62, 0]),
   midi.NoteOnEvent(tick=0, channel=0, data=[55, 40]),
   midi.ControlChangeEvent(tick=2, channel=0, data=[64, 0]),
   midi.NoteOnEvent(tick=238, channel=0, data=[55, 0]),
   midi.NoteOnEvent(tick=0, channel=0, data=[50, 0]),
   midi.NoteOnEvent(tick=0, channel=0, data=[50, 37]),
   midi.NoteOnEvent(tick=0, channel=0, data=[57, 37]),
   midi.NoteOnEvent(tick=480, channel=0, data=[57, 0]),
   midi.NoteOnEvent(tick=0, channel=0, data=[50, 0]),
   midi.NoteOnEvent(tick=0, channel=0, data=[55, 42]),
   midi.NoteOnEvent(tick=240, channel=0, data=[55, 0]),
   midi.NoteOnEvent(tick=0, channel=0, data=[43, 44]),
   midi.NoteOnEvent(tick=240, channel=0, data=[43, 0]),
   midi.NoteOnEvent(tick=0, channel=0, data=[45, 38]),
   midi.NoteOnEvent(tick=240, channel=0, data=[45, 0]),
   midi.NoteOnEvent(tick=0, channel=0, data=[34, 42]),
   midi.ControlChangeEvent(tick=141, channel=0, data=[64, 127]),
   midi.NoteOnEvent(tick=339, channel=0, data=[34, 0]),
   midi.NoteOnEvent(tick=0, channel=0, data=[53, 24]),
   midi.NoteOnEvent(tick=0, channel=0, data=[62, 24]),
   midi.ControlChangeEvent(tick=723, channel=0, data=[64, 0]),
   midi.ControlChangeEvent(tick=336, channel=0, data=[64, 127]),
   midi.NoteOnEvent(tick=381, channel=0, data=[62, 0]),
   midi.NoteOnEvent(tick=0, channel=0, data=[53, 0]),
   midi.ControlChangeEvent(tick=0, channel=0, data=[64, 0]),
   midi.ControlChangeEvent(tick=137, channel=0, data=[64, 127]),
   midi.NoteOnEvent(tick=103, channel=0, data=[55, 28]),
   midi.NoteOnEvent(tick=0, channel=0, data=[62, 28]),
   midi.NoteOnEvent(tick=240, channel=0, data=[62, 0]),
   midi.NoteOnEvent(tick=0, channel=0, data=[55, 0]),
   midi.NoteOnEvent(tick=0, channel=0, data=[61, 27]),
   midi.NoteOnEvent(tick=0, channel=0, data=[57, 25]),
   midi.ControlChangeEvent(tick=11, channel=0, data=[64, 0]),
   midi.NoteOnEvent(tick=229, channel=0, data=[61, 0]),
   midi.NoteOnEvent(tick=0, channel=0, data=[64, 29]),
   midi.NoteOnEvent(tick=240, channel=0, data=[64, 0]),
   midi.NoteOnEvent(tick=0, channel=0, data=[69, 30]),
   midi.NoteOnEvent(tick=720, channel=0, data=[57, 0]),
   midi.NoteOnEvent(tick=0, channel=0, data=[61, 33]),
   midi.NoteOnEvent(tick=240, channel=0, data=[61, 0]),
   midi.NoteOnEvent(tick=0, channel=0, data=[62, 41]),
   midi.ControlChangeEvent(tick=60, channel=0, data=[64, 127]),
   midi.ControlChangeEvent(tick=435, channel=0, data=[64, 0]),
   midi.NoteOnEvent(tick=225, channel=0, data=[62, 0]),
   midi.NoteOnEvent(tick=0, channel=0, data=[69, 0]),
   midi.NoteOnEvent(tick=0, channel=0, data=[61, 31]),
   midi.NoteOnEvent(tick=0, channel=0, data=[55, 31]),
   midi.NoteOnEvent(tick=240, channel=0, data=[55, 0]),
   midi.NoteOnEvent(tick=0, channel=0, data=[61, 0]),
   midi.NoteOnEvent(tick=0, channel=0, data=[57, 37]),
   midi.NoteOnEvent(tick=0, channel=0, data=[62, 37]),
   midi.ControlChangeEvent(tick=60, channel=0, data=[64, 127]),
   midi.ControlChangeEvent(tick=431, channel=0, data=[64, 0]),
   midi.NoteOnEvent(tick=229, channel=0, data=[62, 0]),
   midi.NoteOnEvent(tick=0, channel=0, data=[57, 0]),
   midi.NoteOnEvent(tick=0, channel=0, data=[58, 29]),
   midi.NoteOnEvent(tick=240, channel=0, data=[58, 0]),
   midi.NoteOnEvent(tick=0, channel=0, data=[57, 34]),
   midi.ControlChangeEvent(tick=78, channel=0, data=[64, 127]),
   midi.NoteOnEvent(tick=402, channel=0, data=[62, 37]),
   midi.ControlChangeEvent(tick=7, channel=0, data=[64, 0]),
   midi.NoteOnEvent(tick=233, channel=0, data=[62, 0]),
   midi.NoteOnEvent(tick=0, channel=0, data=[61, 31]),
   midi.NoteOnEvent(tick=0, channel=0, data=[64, 31]),
   midi.NoteOnEvent(tick=240, channel=0, data=[64, 0]),
   midi.NoteOnEvent(tick=0, channel=0, data=[61, 0]),
   midi.NoteOnEvent(tick=0, channel=0, data=[57, 0]),
   midi.NoteOnEvent(tick=0, channel=0, data=[62, 36]),
   midi.NoteOnEvent(tick=0, channel=0, data=[57, 30]),
   midi.NoteOnEvent(tick=240, channel=0, data=[57, 0]),
   midi.NoteOnEvent(tick=0, channel=0, data=[58, 30]),
   midi.NoteOnEvent(tick=240, channel=0, data=[62, 0]),
   midi.NoteOnEvent(tick=0, channel=0, data=[60, 30]),
   midi.NoteOnEvent(tick=240, channel=0, data=[60, 0]),
   midi.NoteOnEvent(tick=0, channel=0, data=[58, 0]),
   midi.NoteOnEvent(tick=0, channel=0, data=[48, 32]),
   midi.ControlChangeEvent(tick=127, channel=0, data=[64, 127]),
   midi.NoteOnEvent(tick=113, channel=0, data=[48, 0]),
   midi.NoteOnEvent(tick=0, channel=0, data=[41, 37]),
   midi.NoteOnEvent(tick=480, channel=0, data=[48, 19]),
   midi.NoteOnEvent(tick=0, channel=0, data=[57, 19]),
   midi.ControlChangeEvent(tick=722, channel=0, data=[64, 0]),
   midi.ControlChangeEvent(tick=252, channel=0, data=[64, 127]),
   midi.ControlChangeEvent(tick=466, channel=0, data=[64, 0]),
   midi.ControlChangeEvent(tick=38, channel=0, data=[64, 127]),
   midi.ControlChangeEvent(tick=319, channel=0, data=[64, 0]),
   midi.NoteOnEvent(tick=3, channel=0, data=[46, 27]),
   midi.ControlChangeEvent(tick=50, channel=0, data=[64, 127]),
   midi.NoteOnEvent(tick=10, channel=0, data=[53, 31]),
   midi.NoteOnEvent(tick=10, channel=0, data=[46, 0]),
   midi.NoteOnEvent(tick=50, channel=0, data=[57, 0]),
   midi.NoteOnEvent(tick=0, channel=0, data=[41, 0]),
   midi.NoteOnEvent(tick=0, channel=0, data=[48, 0]),
   midi.NoteOnEvent(tick=10, channel=0, data=[62, 35]),
   midi.NoteOnEvent(tick=950, channel=0, data=[60, 29]),
   midi.NoteOnEvent(tick=10, channel=0, data=[62, 0]),
   midi.ControlChangeEvent(tick=5, channel=0, data=[64, 0]),
   midi.NoteOnEvent(tick=225, channel=0, data=[60, 0]),
   midi.NoteOnEvent(tick=0, channel=0, data=[58, 27]),
   midi.NoteOnEvent(tick=240, channel=0, data=[58, 0]),
   midi.NoteOnEvent(tick=0, channel=0, data=[53, 0]),
   midi.NoteOnEvent(tick=0, channel=0, data=[48, 29]),
   midi.NoteOnEvent(tick=0, channel=0, data=[57, 29]),
   midi.ControlChangeEvent(tick=71, channel=0, data=[64, 127]),
   midi.NoteOnEvent(tick=409, channel=0, data=[57, 0]),
   midi.NoteOnEvent(tick=0, channel=0, data=[48, 0]),
   midi.NoteOnEvent(tick=0, channel=0, data=[58, 33]),
   midi.NoteOnEvent(tick=0, channel=0, data=[48, 34]),
   midi.ControlChangeEvent(tick=14, channel=0, data=[64, 0]),
   midi.NoteOnEvent(tick=226, channel=0, data=[58, 0]),
   midi.NoteOnEvent(tick=0, channel=0, data=[57, 33]),
   midi.NoteOnEvent(tick=240, channel=0, data=[57, 0]),
   midi.NoteOnEvent(tick=0, channel=0, data=[55, 36]),
   midi.ControlChangeEvent(tick=127, channel=0, data=[64, 127]),
   midi.NoteOnEvent(tick=353, channel=0, data=[55, 0]),
   midi.NoteOnEvent(tick=0, channel=0, data=[48, 0]),
   midi.NoteOnEvent(tick=0, channel=0, data=[45, 32]),
   midi.NoteOnEvent(tick=0, channel=0, data=[53, 32]),
   midi.ControlChangeEvent(tick=4, channel=0, data=[64, 0]),
   midi.NoteOnEvent(tick=236, channel=0, data=[53, 0]),
   midi.NoteOnEvent(tick=0, channel=0, data=[45, 0]),
   midi.NoteOnEvent(tick=0, channel=0, data=[48, 35]),
   midi.NoteOnEvent(tick=0, channel=0, data=[55, 35]),
   midi.NoteOnEvent(tick=240, channel=0, data=[55, 0]),
   midi.NoteOnEvent(tick=0, channel=0, data=[48, 0]),
   midi.NoteOnEvent(tick=0, channel=0, data=[53, 37]),
   midi.NoteOnEvent(tick=0, channel=0, data=[57, 37]),
   midi.ControlChangeEvent(tick=99, channel=0, data=[64, 127]),
   midi.NoteOnEvent(tick=381, channel=0, data=[57, 0]),
   midi.NoteOnEvent(tick=0, channel=0, data=[53, 0]),
   midi.NoteOnEvent(tick=0, channel=0, data=[48, 35]),
   midi.NoteOnEvent(tick=0, channel=0, data=[55, 35]),
   midi.ControlChangeEvent(tick=7, channel=0, data=[64, 0]),
   midi.NoteOnEvent(tick=233, channel=0, data=[48, 0]),
   midi.NoteOnEvent(tick=0, channel=0, data=[50, 45]),
   midi.NoteOnEvent(tick=240, channel=0, data=[50, 0]),
   midi.NoteOnEvent(tick=0, channel=0, data=[48, 42]),
   midi.NoteOnEvent(tick=240, channel=0, data=[48, 0]),
   midi.NoteOnEvent(tick=0, channel=0, data=[46, 42]),
   midi.NoteOnEvent(tick=240, channel=0, data=[46, 0]),
   midi.NoteOnEvent(tick=0, channel=0, data=[55, 0]),
   midi.NoteOnEvent(tick=0, channel=0, data=[43, 43]),
   midi.NoteOnEvent(tick=240, channel=0, data=[43, 0]),
   midi.NoteOnEvent(tick=0, channel=0, data=[45, 43]),
   midi.NoteOnEvent(tick=240, channel=0, data=[45, 0]),
   midi.NoteOnEvent(tick=0, channel=0, data=[41, 41]),
   midi.ControlChangeEvent(tick=127, channel=0, data=[64, 127]),
   midi.NoteOnEvent(tick=353, channel=0, data=[48, 19]),
   midi.NoteOnEvent(tick=0, channel=0, data=[57, 19]),
   midi.ControlChangeEvent(tick=734, channel=0, data=[64, 0]),
   midi.ControlChangeEvent(tick=353, channel=0, data=[64, 127]),
   midi.NoteOnEvent(tick=833, channel=0, data=[57, 0]),
   midi.NoteOnEvent(tick=0, channel=0, data=[48, 0]),
   midi.NoteOnEvent(tick=0, channel=0, data=[41, 0]),
   midi.NoteOnEvent(tick=0, channel=0, data=[43, 26]),
   midi.NoteOnEvent(tick=0, channel=0, data=[47, 26]),
   midi.NoteOnEvent(tick=0, channel=0, data=[59, 26]),
   midi.ControlChangeEvent(tick=10, channel=0, data=[64, 0]),
   midi.ControlChangeEvent(tick=174, channel=0, data=[64, 127]),
   midi.ControlChangeEvent(tick=539, channel=0, data=[64, 0]),
   midi.ControlChangeEvent(tick=378, channel=0, data=[64, 127]),
   midi.NoteOnEvent(tick=339, channel=0, data=[59, 0]),
   midi.NoteOnEvent(tick=0, channel=0, data=[47, 0]),
   midi.NoteOnEvent(tick=0, channel=0, data=[43, 0]),
   midi.ControlChangeEvent(tick=0, channel=0, data=[64, 0]),
   midi.NoteOnEvent(tick=0, channel=0, data=[57, 29]),
   midi.NoteOnEvent(tick=0, channel=0, data=[48, 29]),
   midi.NoteOnEvent(tick=0, channel=0, data=[60, 29]),
   midi.ControlChangeEvent(tick=103, channel=0, data=[64, 127]),
   midi.NoteOnEvent(tick=377, channel=0, data=[60, 0]),
   midi.NoteOnEvent(tick=0, channel=0, data=[48, 0]),
   midi.NoteOnEvent(tick=0, channel=0, data=[57, 0]),
   midi.NoteOnEvent(tick=0, channel=0, data=[58, 29]),
   midi.NoteOnEvent(tick=0, channel=0, data=[60, 29]),
   midi.NoteOnEvent(tick=0, channel=0, data=[48, 29]),
   midi.ControlChangeEvent(tick=8, channel=0, data=[64, 0]),
   midi.NoteOnEvent(tick=232, channel=0, data=[58, 0]),
   midi.NoteOnEvent(tick=0, channel=0, data=[57, 29]),
   midi.NoteOnEvent(tick=240, channel=0, data=[57, 0]),
   midi.NoteOnEvent(tick=0, channel=0, data=[55, 29]),
   midi.ControlChangeEvent(tick=149, channel=0, data=[64, 127]),
   midi.NoteOnEvent(tick=331, channel=0, data=[55, 0]),
   midi.NoteOnEvent(tick=0, channel=0, data=[48, 0]),
   midi.NoteOnEvent(tick=0, channel=0, data=[60, 0]),
   midi.NoteOnEvent(tick=0, channel=0, data=[46, 27]),
   midi.NoteOnEvent(tick=0, channel=0, data=[55, 27]),
   midi.ControlChangeEvent(tick=13, channel=0, data=[64, 0]),
   midi.NoteOnEvent(tick=227, channel=0, data=[55, 0]),
   midi.NoteOnEvent(tick=0, channel=0, data=[46, 0]),
   midi.NoteOnEvent(tick=0, channel=0, data=[50, 27]),
   midi.NoteOnEvent(tick=0, channel=0, data=[57, 27]),
   midi.NoteOnEvent(tick=240, channel=0, data=[57, 0]),
   midi.NoteOnEvent(tick=0, channel=0, data=[50, 0]),
   midi.NoteOnEvent(tick=0, channel=0, data=[58, 32]),
   midi.NoteOnEvent(tick=0, channel=0, data=[55, 32]),
   midi.ControlChangeEvent(tick=85, channel=0, data=[64, 127]),
   midi.NoteOnEvent(tick=395, channel=0, data=[55, 0]),
   midi.NoteOnEvent(tick=0, channel=0, data=[58, 0]),
   midi.NoteOnEvent(tick=0, channel=0, data=[48, 26]),
   midi.NoteOnEvent(tick=0, channel=0, data=[55, 26]),
   midi.ControlChangeEvent(tick=14, channel=0, data=[64, 0]),
   midi.NoteOnEvent(tick=226, channel=0, data=[36, 26]),
   midi.NoteOnEvent(tick=240, channel=0, data=[36, 0]),
   midi.NoteOnEvent(tick=0, channel=0, data=[55, 0]),
   midi.NoteOnEvent(tick=0, channel=0, data=[41, 26]),
   midi.ControlChangeEvent(tick=99, channel=0, data=[64, 127]),
   midi.NoteOnEvent(tick=861, channel=0, data=[41, 0]),
   midi.NoteOnEvent(tick=0, channel=0, data=[48, 0]),
   midi.ControlChangeEvent(tick=1600, channel=0, data=[64, 0]),
   midi.EndOfTrackEvent(tick=0, data=[])]),
 midi.Track(\
  [midi.TrackNameEvent(tick=0, text='Schumann: Scenes from Childhood Op. 15', data=[83, 99, 104, 117, 109, 97, 110, 110, 58, 32, 83, 99, 101, 110, 101, 115, 32, 102, 114, 111, 109, 32, 67, 104, 105, 108, 100, 104, 111, 111, 100, 32, 79, 112, 46, 32, 49, 53]),
   midi.EndOfTrackEvent(tick=0, data=[])]),
 midi.Track(\
  [midi.TrackNameEvent(tick=0, text='Copyright © 1997 by Bernd Krueger', data=[67, 111, 112, 121, 114, 105, 103, 104, 116, 32, 169, 32, 49, 57, 57, 55, 32, 98, 121, 32, 66, 101, 114, 110, 100, 32, 75, 114, 117, 101, 103, 101, 114]),
   midi.EndOfTrackEvent(tick=0, data=[])]),
 midi.Track(\
  [midi.TrackNameEvent(tick=0, text='http://www.piano-midi.de', data=[104, 116, 116, 112, 58, 47, 47, 119, 119, 119, 46, 112, 105, 97, 110, 111, 45, 109, 105, 100, 105, 46, 100, 101]),
   midi.EndOfTrackEvent(tick=0, data=[])]),
 midi.Track(\
  [midi.TrackNameEvent(tick=0, text='Edition:2014-03-26', data=[69, 100, 105, 116, 105, 111, 110, 58, 50, 48, 49, 52, 45, 48, 51, 45, 50, 54]),
   midi.EndOfTrackEvent(tick=0, data=[])])])
