import midi
pattern=midi.Pattern(format=1, resolution=480, tracks=\
[midi.Track(\
[   midi.ControlChangeEvent(tick=0, channel=0, data=[7, 100]),
   midi.ControlChangeEvent(tick=0, channel=0, data=[10, 64]),
   midi.ControlChangeEvent(tick=0, channel=0, data=[91, 127]),
   midi.NoteOnEvent(tick=240, channel=0, data=[68, 39]),
   midi.NoteOnEvent(tick=80, channel=0, data=[65, 39]),
   midi.NoteOnEvent(tick=20, channel=0, data=[68, 0]),
   midi.NoteOnEvent(tick=60, channel=0, data=[61, 39]),
   midi.NoteOnEvent(tick=20, channel=0, data=[65, 0]),
   midi.NoteOnEvent(tick=60, channel=0, data=[56, 44]),
   midi.NoteOnEvent(tick=20, channel=0, data=[61, 0]),
   midi.NoteOnEvent(tick=100, channel=0, data=[56, 0]),
   midi.NoteOnEvent(tick=120, channel=0, data=[56, 33]),
   midi.NoteOnEvent(tick=0, channel=0, data=[68, 40]),
   midi.NoteOnEvent(tick=0, channel=0, data=[61, 33]),
   midi.NoteOnEvent(tick=0, channel=0, data=[65, 39]),
   midi.NoteOnEvent(tick=480, channel=0, data=[65, 0]),
   midi.NoteOnEvent(tick=0, channel=0, data=[56, 0]),
   midi.NoteOnEvent(tick=0, channel=0, data=[68, 0]),
   midi.NoteOnEvent(tick=0, channel=0, data=[61, 0]),
   midi.NoteOnEvent(tick=0, channel=0, data=[56, 36]),
   midi.NoteOnEvent(tick=0, channel=0, data=[59, 36]),
   midi.NoteOnEvent(tick=0, channel=0, data=[68, 43]),
   midi.NoteOnEvent(tick=0, channel=0, data=[65, 43]),
   midi.NoteOnEvent(tick=240, channel=0, data=[65, 0]),
   midi.NoteOnEvent(tick=0, channel=0, data=[56, 0]),
   midi.NoteOnEvent(tick=0, channel=0, data=[59, 0]),
   midi.NoteOnEvent(tick=0, channel=0, data=[68, 0]),
   midi.NoteOnEvent(tick=240, channel=0, data=[68, 39]),
   midi.NoteOnEvent(tick=80, channel=0, data=[66, 39]),
   midi.NoteOnEvent(tick=20, channel=0, data=[68, 0]),
   midi.NoteOnEvent(tick=60, channel=0, data=[60, 39]),
   midi.NoteOnEvent(tick=20, channel=0, data=[66, 0]),
   midi.NoteOnEvent(tick=60, channel=0, data=[56, 44]),
   midi.NoteOnEvent(tick=20, channel=0, data=[60, 0]),
   midi.NoteOnEvent(tick=100, channel=0, data=[56, 0]),
   midi.NoteOnEvent(tick=120, channel=0, data=[66, 41]),
   midi.NoteOnEvent(tick=0, channel=0, data=[68, 42]),
   midi.NoteOnEvent(tick=0, channel=0, data=[60, 34]),
   midi.NoteOnEvent(tick=0, channel=0, data=[56, 34]),
   midi.NoteOnEvent(tick=480, channel=0, data=[56, 0]),
   midi.NoteOnEvent(tick=0, channel=0, data=[66, 0]),
   midi.NoteOnEvent(tick=0, channel=0, data=[68, 0]),
   midi.NoteOnEvent(tick=0, channel=0, data=[60, 0]),
   midi.NoteOnEvent(tick=0, channel=0, data=[56, 32]),
   midi.NoteOnEvent(tick=0, channel=0, data=[68, 38]),
   midi.NoteOnEvent(tick=0, channel=0, data=[64, 38]),
   midi.NoteOnEvent(tick=240, channel=0, data=[64, 0]),
   midi.NoteOnEvent(tick=0, channel=0, data=[68, 0]),
   midi.NoteOnEvent(tick=0, channel=0, data=[56, 0]),
   midi.NoteOnEvent(tick=240, channel=0, data=[68, 27]),
   midi.NoteOnEvent(tick=80, channel=0, data=[65, 27]),
   midi.NoteOnEvent(tick=20, channel=0, data=[68, 0]),
   midi.NoteOnEvent(tick=60, channel=0, data=[61, 27]),
   midi.NoteOnEvent(tick=20, channel=0, data=[65, 0]),
   midi.NoteOnEvent(tick=60, channel=0, data=[56, 30]),
   midi.NoteOnEvent(tick=20, channel=0, data=[61, 0]),
   midi.NoteOnEvent(tick=100, channel=0, data=[56, 0]),
   midi.NoteOnEvent(tick=120, channel=0, data=[65, 27]),
   midi.NoteOnEvent(tick=0, channel=0, data=[68, 29]),
   midi.NoteOnEvent(tick=0, channel=0, data=[61, 27]),
   midi.NoteOnEvent(tick=0, channel=0, data=[56, 27]),
   midi.NoteOnEvent(tick=480, channel=0, data=[56, 0]),
   midi.NoteOnEvent(tick=0, channel=0, data=[65, 0]),
   midi.NoteOnEvent(tick=0, channel=0, data=[68, 0]),
   midi.NoteOnEvent(tick=0, channel=0, data=[61, 0]),
   midi.NoteOnEvent(tick=0, channel=0, data=[56, 26]),
   midi.NoteOnEvent(tick=0, channel=0, data=[68, 26]),
   midi.NoteOnEvent(tick=0, channel=0, data=[65, 26]),
   midi.NoteOnEvent(tick=0, channel=0, data=[59, 26]),
   midi.NoteOnEvent(tick=240, channel=0, data=[59, 0]),
   midi.NoteOnEvent(tick=0, channel=0, data=[56, 0]),
   midi.NoteOnEvent(tick=0, channel=0, data=[68, 0]),
   midi.NoteOnEvent(tick=0, channel=0, data=[65, 0]),
   midi.NoteOnEvent(tick=240, channel=0, data=[68, 27]),
   midi.NoteOnEvent(tick=80, channel=0, data=[66, 27]),
   midi.NoteOnEvent(tick=20, channel=0, data=[68, 0]),
   midi.NoteOnEvent(tick=60, channel=0, data=[60, 27]),
   midi.NoteOnEvent(tick=20, channel=0, data=[66, 0]),
   midi.NoteOnEvent(tick=60, channel=0, data=[56, 30]),
   midi.NoteOnEvent(tick=20, channel=0, data=[60, 0]),
   midi.NoteOnEvent(tick=100, channel=0, data=[56, 0]),
   midi.NoteOnEvent(tick=120, channel=0, data=[60, 31]),
   midi.NoteOnEvent(tick=0, channel=0, data=[68, 33]),
   midi.NoteOnEvent(tick=0, channel=0, data=[66, 31]),
   midi.NoteOnEvent(tick=0, channel=0, data=[56, 31]),
   midi.NoteOnEvent(tick=480, channel=0, data=[56, 0]),
   midi.NoteOnEvent(tick=0, channel=0, data=[60, 0]),
   midi.NoteOnEvent(tick=0, channel=0, data=[68, 0]),
   midi.NoteOnEvent(tick=0, channel=0, data=[66, 0]),
   midi.NoteOnEvent(tick=0, channel=0, data=[68, 31]),
   midi.NoteOnEvent(tick=0, channel=0, data=[64, 31]),
   midi.NoteOnEvent(tick=0, channel=0, data=[56, 31]),
   midi.NoteOnEvent(tick=220, channel=0, data=[56, 0]),
   midi.NoteOnEvent(tick=0, channel=0, data=[64, 0]),
   midi.NoteOnEvent(tick=0, channel=0, data=[68, 0]),
   midi.NoteOnEvent(tick=20, channel=0, data=[77, 46]),
   midi.NoteOnEvent(tick=0, channel=0, data=[65, 45]),
   midi.NoteOnEvent(tick=240, channel=0, data=[65, 0]),
   midi.NoteOnEvent(tick=0, channel=0, data=[77, 0]),
   midi.NoteOnEvent(tick=240, channel=0, data=[65, 45]),
   midi.NoteOnEvent(tick=0, channel=0, data=[77, 47]),
   midi.NoteOnEvent(tick=720, channel=0, data=[77, 0]),
   midi.NoteOnEvent(tick=0, channel=0, data=[65, 0]),
   midi.NoteOnEvent(tick=0, channel=0, data=[77, 41]),
   midi.NoteOnEvent(tick=0, channel=0, data=[65, 41]),
   midi.NoteOnEvent(tick=240, channel=0, data=[65, 0]),
   midi.NoteOnEvent(tick=0, channel=0, data=[77, 0]),
   midi.NoteOnEvent(tick=0, channel=0, data=[65, 46]),
   midi.NoteOnEvent(tick=0, channel=0, data=[77, 46]),
   midi.NoteOnEvent(tick=360, channel=0, data=[77, 0]),
   midi.NoteOnEvent(tick=0, channel=0, data=[65, 0]),
   midi.NoteOnEvent(tick=0, channel=0, data=[80, 43]),
   midi.NoteOnEvent(tick=0, channel=0, data=[68, 43]),
   midi.NoteOnEvent(tick=120, channel=0, data=[68, 0]),
   midi.NoteOnEvent(tick=0, channel=0, data=[80, 0]),
   midi.NoteOnEvent(tick=0, channel=0, data=[80, 43]),
   midi.NoteOnEvent(tick=0, channel=0, data=[68, 43]),
   midi.NoteOnEvent(tick=960, channel=0, data=[68, 0]),
   midi.NoteOnEvent(tick=0, channel=0, data=[80, 0]),
   midi.NoteOnEvent(tick=240, channel=0, data=[78, 55]),
   midi.NoteOnEvent(tick=0, channel=0, data=[66, 55]),
   midi.NoteOnEvent(tick=240, channel=0, data=[80, 58]),
   midi.NoteOnEvent(tick=0, channel=0, data=[68, 58]),
   midi.NoteOnEvent(tick=20, channel=0, data=[66, 0]),
   midi.NoteOnEvent(tick=0, channel=0, data=[78, 0]),
   midi.NoteOnEvent(tick=220, channel=0, data=[70, 61]),
   midi.NoteOnEvent(tick=0, channel=0, data=[82, 61]),
   midi.NoteOnEvent(tick=20, channel=0, data=[80, 0]),
   midi.NoteOnEvent(tick=0, channel=0, data=[68, 0]),
   midi.NoteOnEvent(tick=220, channel=0, data=[73, 64]),
   midi.NoteOnEvent(tick=0, channel=0, data=[85, 64]),
   midi.NoteOnEvent(tick=20, channel=0, data=[70, 0]),
   midi.NoteOnEvent(tick=0, channel=0, data=[82, 0]),
   midi.NoteOnEvent(tick=220, channel=0, data=[72, 62]),
   midi.NoteOnEvent(tick=0, channel=0, data=[84, 62]),
   midi.NoteOnEvent(tick=20, channel=0, data=[73, 0]),
   midi.NoteOnEvent(tick=0, channel=0, data=[85, 0]),
   midi.NoteOnEvent(tick=220, channel=0, data=[75, 71]),
   midi.NoteOnEvent(tick=0, channel=0, data=[87, 71]),
   midi.NoteOnEvent(tick=20, channel=0, data=[72, 0]),
   midi.NoteOnEvent(tick=0, channel=0, data=[84, 0]),
   midi.NoteOnEvent(tick=220, channel=0, data=[70, 56]),
   midi.NoteOnEvent(tick=0, channel=0, data=[82, 56]),
   midi.NoteOnEvent(tick=20, channel=0, data=[75, 0]),
   midi.NoteOnEvent(tick=0, channel=0, data=[87, 0]),
   midi.NoteOnEvent(tick=220, channel=0, data=[80, 55]),
   midi.NoteOnEvent(tick=0, channel=0, data=[68, 55]),
   midi.NoteOnEvent(tick=20, channel=0, data=[70, 0]),
   midi.NoteOnEvent(tick=0, channel=0, data=[82, 0]),
   midi.NoteOnEvent(tick=940, channel=0, data=[80, 0]),
   midi.NoteOnEvent(tick=0, channel=0, data=[68, 0]),
   midi.NoteOnEvent(tick=0, channel=0, data=[77, 53]),
   midi.NoteOnEvent(tick=0, channel=0, data=[65, 53]),
   midi.NoteOnEvent(tick=240, channel=0, data=[65, 0]),
   midi.NoteOnEvent(tick=0, channel=0, data=[77, 0]),
   midi.NoteOnEvent(tick=240, channel=0, data=[77, 53]),
   midi.NoteOnEvent(tick=0, channel=0, data=[65, 53]),
   midi.NoteOnEvent(tick=720, channel=0, data=[65, 0]),
   midi.NoteOnEvent(tick=0, channel=0, data=[77, 0]),
   midi.NoteOnEvent(tick=0, channel=0, data=[77, 49]),
   midi.NoteOnEvent(tick=0, channel=0, data=[65, 49]),
   midi.NoteOnEvent(tick=240, channel=0, data=[65, 0]),
   midi.NoteOnEvent(tick=0, channel=0, data=[77, 0]),
   midi.NoteOnEvent(tick=0, channel=0, data=[65, 55]),
   midi.NoteOnEvent(tick=0, channel=0, data=[77, 55]),
   midi.NoteOnEvent(tick=360, channel=0, data=[77, 0]),
   midi.NoteOnEvent(tick=0, channel=0, data=[65, 0]),
   midi.NoteOnEvent(tick=0, channel=0, data=[80, 51]),
   midi.NoteOnEvent(tick=0, channel=0, data=[68, 51]),
   midi.NoteOnEvent(tick=120, channel=0, data=[68, 0]),
   midi.NoteOnEvent(tick=0, channel=0, data=[80, 0]),
   midi.NoteOnEvent(tick=0, channel=0, data=[68, 51]),
   midi.NoteOnEvent(tick=0, channel=0, data=[80, 51]),
   midi.NoteOnEvent(tick=960, channel=0, data=[80, 0]),
   midi.NoteOnEvent(tick=0, channel=0, data=[68, 0]),
   midi.NoteOnEvent(tick=240, channel=0, data=[78, 55]),
   midi.NoteOnEvent(tick=0, channel=0, data=[66, 55]),
   midi.NoteOnEvent(tick=240, channel=0, data=[68, 58]),
   midi.NoteOnEvent(tick=0, channel=0, data=[80, 58]),
   midi.NoteOnEvent(tick=20, channel=0, data=[66, 0]),
   midi.NoteOnEvent(tick=0, channel=0, data=[78, 0]),
   midi.NoteOnEvent(tick=220, channel=0, data=[82, 61]),
   midi.NoteOnEvent(tick=0, channel=0, data=[70, 61]),
   midi.NoteOnEvent(tick=20, channel=0, data=[68, 0]),
   midi.NoteOnEvent(tick=0, channel=0, data=[80, 0]),
   midi.NoteOnEvent(tick=220, channel=0, data=[73, 64]),
   midi.NoteOnEvent(tick=0, channel=0, data=[85, 64]),
   midi.NoteOnEvent(tick=20, channel=0, data=[82, 0]),
   midi.NoteOnEvent(tick=0, channel=0, data=[70, 0]),
   midi.NoteOnEvent(tick=220, channel=0, data=[84, 62]),
   midi.NoteOnEvent(tick=0, channel=0, data=[72, 62]),
   midi.NoteOnEvent(tick=20, channel=0, data=[73, 0]),
   midi.NoteOnEvent(tick=0, channel=0, data=[85, 0]),
   midi.NoteOnEvent(tick=220, channel=0, data=[78, 59]),
   midi.NoteOnEvent(tick=0, channel=0, data=[90, 68]),
   midi.NoteOnEvent(tick=20, channel=0, data=[84, 0]),
   midi.NoteOnEvent(tick=0, channel=0, data=[72, 0]),
   midi.NoteOnEvent(tick=220, channel=0, data=[70, 56]),
   midi.NoteOnEvent(tick=0, channel=0, data=[82, 56]),
   midi.NoteOnEvent(tick=20, channel=0, data=[78, 0]),
   midi.NoteOnEvent(tick=0, channel=0, data=[90, 0]),
   midi.NoteOnEvent(tick=220, channel=0, data=[68, 55]),
   midi.NoteOnEvent(tick=0, channel=0, data=[80, 55]),
   midi.NoteOnEvent(tick=20, channel=0, data=[70, 0]),
   midi.NoteOnEvent(tick=0, channel=0, data=[82, 0]),
   midi.NoteOnEvent(tick=940, channel=0, data=[68, 0]),
   midi.NoteOnEvent(tick=0, channel=0, data=[80, 0]),
   midi.NoteOnEvent(tick=0, channel=0, data=[85, 58]),
   midi.NoteOnEvent(tick=0, channel=0, data=[73, 58]),
   midi.NoteOnEvent(tick=240, channel=0, data=[73, 0]),
   midi.NoteOnEvent(tick=0, channel=0, data=[85, 0]),
   midi.NoteOnEvent(tick=240, channel=0, data=[73, 58]),
   midi.NoteOnEvent(tick=0, channel=0, data=[85, 58]),
   midi.NoteOnEvent(tick=720, channel=0, data=[85, 0]),
   midi.NoteOnEvent(tick=0, channel=0, data=[73, 0]),
   midi.NoteOnEvent(tick=0, channel=0, data=[84, 53]),
   midi.NoteOnEvent(tick=0, channel=0, data=[72, 53]),
   midi.NoteOnEvent(tick=240, channel=0, data=[72, 0]),
   midi.NoteOnEvent(tick=0, channel=0, data=[84, 0]),
   midi.NoteOnEvent(tick=0, channel=0, data=[84, 58]),
   midi.NoteOnEvent(tick=0, channel=0, data=[72, 58]),
   midi.NoteOnEvent(tick=480, channel=0, data=[72, 0]),
   midi.NoteOnEvent(tick=0, channel=0, data=[84, 0]),
   midi.NoteOnEvent(tick=0, channel=0, data=[82, 55]),
   midi.NoteOnEvent(tick=0, channel=0, data=[70, 55]),
   midi.NoteOnEvent(tick=240, channel=0, data=[70, 0]),
   midi.NoteOnEvent(tick=0, channel=0, data=[82, 0]),
   midi.NoteOnEvent(tick=0, channel=0, data=[77, 55]),
   midi.NoteOnEvent(tick=0, channel=0, data=[65, 55]),
   midi.NoteOnEvent(tick=240, channel=0, data=[65, 0]),
   midi.NoteOnEvent(tick=0, channel=0, data=[77, 0]),
   midi.NoteOnEvent(tick=0, channel=0, data=[68, 58]),
   midi.NoteOnEvent(tick=0, channel=0, data=[80, 58]),
   midi.NoteOnEvent(tick=240, channel=0, data=[80, 0]),
   midi.NoteOnEvent(tick=0, channel=0, data=[68, 0]),
   midi.NoteOnEvent(tick=0, channel=0, data=[82, 53]),
   midi.NoteOnEvent(tick=0, channel=0, data=[70, 53]),
   midi.NoteOnEvent(tick=240, channel=0, data=[70, 0]),
   midi.NoteOnEvent(tick=0, channel=0, data=[82, 0]),
   midi.NoteOnEvent(tick=0, channel=0, data=[80, 58]),
   midi.NoteOnEvent(tick=0, channel=0, data=[68, 58]),
   midi.NoteOnEvent(tick=480, channel=0, data=[68, 0]),
   midi.NoteOnEvent(tick=0, channel=0, data=[80, 0]),
   midi.NoteOnEvent(tick=0, channel=0, data=[66, 58]),
   midi.NoteOnEvent(tick=0, channel=0, data=[78, 58]),
   midi.NoteOnEvent(tick=240, channel=0, data=[78, 0]),
   midi.NoteOnEvent(tick=0, channel=0, data=[66, 0]),
   midi.NoteOnEvent(tick=0, channel=0, data=[71, 57]),
   midi.NoteOnEvent(tick=0, channel=0, data=[74, 57]),
   midi.NoteOnEvent(tick=180, channel=0, data=[74, 0]),
   midi.NoteOnEvent(tick=0, channel=0, data=[71, 0]),
   midi.NoteOnEvent(tick=0, channel=0, data=[71, 53]),
   midi.NoteOnEvent(tick=60, channel=0, data=[78, 58]),
   midi.NoteOnEvent(tick=240, channel=0, data=[78, 0]),
   midi.NoteOnEvent(tick=0, channel=0, data=[71, 0]),
   midi.NoteOnEvent(tick=0, channel=0, data=[71, 54]),
   midi.NoteOnEvent(tick=0, channel=0, data=[77, 54]),
   midi.NoteOnEvent(tick=180, channel=0, data=[77, 0]),
   midi.NoteOnEvent(tick=0, channel=0, data=[71, 0]),
   midi.NoteOnEvent(tick=0, channel=0, data=[66, 41]),
   midi.NoteOnEvent(tick=60, channel=0, data=[77, 56]),
   midi.NoteOnEvent(tick=480, channel=0, data=[77, 0]),
   midi.NoteOnEvent(tick=0, channel=0, data=[75, 56]),
   midi.NoteOnEvent(tick=960, channel=0, data=[75, 0]),
   midi.NoteOnEvent(tick=0, channel=0, data=[66, 0]),
   midi.NoteOnEvent(tick=0, channel=0, data=[67, 47]),
   midi.NoteOnEvent(tick=0, channel=0, data=[73, 56]),
   midi.NoteOnEvent(tick=0, channel=0, data=[65, 47]),
   midi.NoteOnEvent(tick=240, channel=0, data=[65, 0]),
   midi.NoteOnEvent(tick=0, channel=0, data=[73, 0]),
   midi.NoteOnEvent(tick=0, channel=0, data=[67, 0]),
   midi.NoteOnEvent(tick=0, channel=0, data=[67, 45]),
   midi.NoteOnEvent(tick=0, channel=0, data=[63, 45]),
   midi.NoteOnEvent(tick=0, channel=0, data=[72, 53]),
   midi.NoteOnEvent(tick=240, channel=0, data=[72, 0]),
   midi.NoteOnEvent(tick=0, channel=0, data=[63, 0]),
   midi.NoteOnEvent(tick=0, channel=0, data=[67, 0]),
   midi.NoteOnEvent(tick=0, channel=0, data=[61, 45]),
   midi.NoteOnEvent(tick=0, channel=0, data=[72, 53]),
   midi.NoteOnEvent(tick=0, channel=0, data=[67, 45]),
   midi.NoteOnEvent(tick=480, channel=0, data=[67, 0]),
   midi.NoteOnEvent(tick=0, channel=0, data=[72, 0]),
   midi.NoteOnEvent(tick=0, channel=0, data=[61, 0]),
   midi.NoteOnEvent(tick=0, channel=0, data=[61, 47]),
   midi.NoteOnEvent(tick=0, channel=0, data=[67, 47]),
   midi.NoteOnEvent(tick=0, channel=0, data=[70, 56]),
   midi.NoteOnEvent(tick=180, channel=0, data=[70, 0]),
   midi.NoteOnEvent(tick=0, channel=0, data=[67, 0]),
   midi.NoteOnEvent(tick=0, channel=0, data=[61, 0]),
   midi.NoteOnEvent(tick=0, channel=0, data=[61, 35]),
   midi.NoteOnEvent(tick=30, channel=0, data=[67, 42]),
   midi.NoteOnEvent(tick=30, channel=0, data=[75, 55]),
   midi.NoteOnEvent(tick=240, channel=0, data=[75, 0]),
   midi.NoteOnEvent(tick=0, channel=0, data=[67, 0]),
   midi.NoteOnEvent(tick=0, channel=0, data=[61, 0]),
   midi.NoteOnEvent(tick=0, channel=0, data=[63, 54]),
   midi.NoteOnEvent(tick=0, channel=0, data=[68, 54]),
   midi.NoteOnEvent(tick=240, channel=0, data=[68, 0]),
   midi.NoteOnEvent(tick=0, channel=0, data=[63, 0]),
   midi.NoteOnEvent(tick=0, channel=0, data=[65, 49]),
   midi.NoteOnEvent(tick=0, channel=0, data=[70, 49]),
   midi.NoteOnEvent(tick=240, channel=0, data=[70, 0]),
   midi.NoteOnEvent(tick=0, channel=0, data=[65, 0]),
   midi.NoteOnEvent(tick=0, channel=0, data=[73, 54]),
   midi.NoteOnEvent(tick=0, channel=0, data=[68, 54]),
   midi.NoteOnEvent(tick=240, channel=0, data=[68, 0]),
   midi.NoteOnEvent(tick=0, channel=0, data=[73, 0]),
   midi.NoteOnEvent(tick=0, channel=0, data=[67, 50]),
   midi.NoteOnEvent(tick=0, channel=0, data=[72, 50]),
   midi.NoteOnEvent(tick=180, channel=0, data=[72, 0]),
   midi.NoteOnEvent(tick=0, channel=0, data=[67, 0]),
   midi.NoteOnEvent(tick=0, channel=0, data=[68, 50]),
   midi.NoteOnEvent(tick=60, channel=0, data=[75, 55]),
   midi.NoteOnEvent(tick=240, channel=0, data=[75, 0]),
   midi.NoteOnEvent(tick=0, channel=0, data=[68, 0]),
   midi.NoteOnEvent(tick=0, channel=0, data=[72, 50]),
   midi.NoteOnEvent(tick=0, channel=0, data=[67, 50]),
   midi.NoteOnEvent(tick=180, channel=0, data=[67, 0]),
   midi.NoteOnEvent(tick=0, channel=0, data=[72, 0]),
   midi.NoteOnEvent(tick=0, channel=0, data=[61, 41]),
   midi.NoteOnEvent(tick=30, channel=0, data=[67, 41]),
   midi.NoteOnEvent(tick=30, channel=0, data=[73, 56]),
   midi.NoteOnEvent(tick=480, channel=0, data=[73, 0]),
   midi.NoteOnEvent(tick=0, channel=0, data=[67, 0]),
   midi.NoteOnEvent(tick=0, channel=0, data=[61, 0]),
   midi.NoteOnEvent(tick=0, channel=0, data=[67, 55]),
   midi.NoteOnEvent(tick=0, channel=0, data=[65, 55]),
   midi.NoteOnEvent(tick=0, channel=0, data=[73, 55]),
   midi.NoteOnEvent(tick=480, channel=0, data=[73, 0]),
   midi.NoteOnEvent(tick=0, channel=0, data=[65, 0]),
   midi.NoteOnEvent(tick=0, channel=0, data=[67, 0]),
   midi.NoteOnEvent(tick=0, channel=0, data=[61, 52]),
   midi.NoteOnEvent(tick=0, channel=0, data=[72, 52]),
   midi.NoteOnEvent(tick=0, channel=0, data=[67, 52]),
   midi.NoteOnEvent(tick=480, channel=0, data=[67, 0]),
   midi.NoteOnEvent(tick=0, channel=0, data=[72, 0]),
   midi.NoteOnEvent(tick=0, channel=0, data=[61, 0]),
   midi.NoteOnEvent(tick=0, channel=0, data=[68, 54]),
   midi.NoteOnEvent(tick=0, channel=0, data=[63, 48]),
   midi.NoteOnEvent(tick=240, channel=0, data=[63, 0]),
   midi.NoteOnEvent(tick=0, channel=0, data=[68, 0]),
   midi.NoteOnEvent(tick=0, channel=0, data=[65, 48]),
   midi.NoteOnEvent(tick=0, channel=0, data=[70, 54]),
   midi.NoteOnEvent(tick=240, channel=0, data=[70, 0]),
   midi.NoteOnEvent(tick=0, channel=0, data=[65, 0]),
   midi.NoteOnEvent(tick=0, channel=0, data=[72, 59]),
   midi.NoteOnEvent(tick=0, channel=0, data=[66, 53]),
   midi.NoteOnEvent(tick=240, channel=0, data=[66, 0]),
   midi.NoteOnEvent(tick=0, channel=0, data=[72, 0]),
   midi.NoteOnEvent(tick=0, channel=0, data=[72, 54]),
   midi.NoteOnEvent(tick=0, channel=0, data=[78, 59]),
   midi.NoteOnEvent(tick=240, channel=0, data=[78, 0]),
   midi.NoteOnEvent(tick=0, channel=0, data=[72, 0]),
   midi.NoteOnEvent(tick=0, channel=0, data=[72, 52]),
   midi.NoteOnEvent(tick=0, channel=0, data=[77, 58]),
   midi.NoteOnEvent(tick=240, channel=0, data=[77, 0]),
   midi.NoteOnEvent(tick=0, channel=0, data=[72, 0]),
   midi.NoteOnEvent(tick=0, channel=0, data=[72, 45]),
   midi.NoteOnEvent(tick=0, channel=0, data=[76, 54]),
   midi.NoteOnEvent(tick=240, channel=0, data=[76, 0]),
   midi.NoteOnEvent(tick=0, channel=0, data=[72, 0]),
   midi.NoteOnEvent(tick=0, channel=0, data=[65, 50]),
   midi.NoteOnEvent(tick=0, channel=0, data=[77, 56]),
   midi.NoteOnEvent(tick=240, channel=0, data=[77, 0]),
   midi.NoteOnEvent(tick=0, channel=0, data=[65, 0]),
   midi.NoteOnEvent(tick=240, channel=0, data=[65, 55]),
   midi.NoteOnEvent(tick=0, channel=0, data=[77, 62]),
   midi.NoteOnEvent(tick=720, channel=0, data=[77, 0]),
   midi.NoteOnEvent(tick=0, channel=0, data=[65, 0]),
   midi.NoteOnEvent(tick=0, channel=0, data=[77, 63]),
   midi.NoteOnEvent(tick=0, channel=0, data=[65, 56]),
   midi.NoteOnEvent(tick=240, channel=0, data=[65, 0]),
   midi.NoteOnEvent(tick=0, channel=0, data=[77, 0]),
   midi.NoteOnEvent(tick=0, channel=0, data=[65, 61]),
   midi.NoteOnEvent(tick=0, channel=0, data=[77, 68]),
   midi.NoteOnEvent(tick=360, channel=0, data=[77, 0]),
   midi.NoteOnEvent(tick=0, channel=0, data=[65, 0]),
   midi.NoteOnEvent(tick=0, channel=0, data=[68, 61]),
   midi.NoteOnEvent(tick=0, channel=0, data=[80, 68]),
   midi.NoteOnEvent(tick=120, channel=0, data=[80, 0]),
   midi.NoteOnEvent(tick=0, channel=0, data=[68, 0]),
   midi.NoteOnEvent(tick=0, channel=0, data=[68, 61]),
   midi.NoteOnEvent(tick=0, channel=0, data=[80, 68]),
   midi.NoteOnEvent(tick=960, channel=0, data=[80, 0]),
   midi.NoteOnEvent(tick=0, channel=0, data=[68, 0]),
   midi.NoteOnEvent(tick=240, channel=0, data=[78, 69]),
   midi.NoteOnEvent(tick=0, channel=0, data=[66, 61]),
   midi.NoteOnEvent(tick=240, channel=0, data=[68, 63]),
   midi.NoteOnEvent(tick=0, channel=0, data=[80, 71]),
   midi.NoteOnEvent(tick=20, channel=0, data=[66, 0]),
   midi.NoteOnEvent(tick=0, channel=0, data=[78, 0]),
   midi.NoteOnEvent(tick=220, channel=0, data=[82, 73]),
   midi.NoteOnEvent(tick=0, channel=0, data=[70, 66]),
   midi.NoteOnEvent(tick=20, channel=0, data=[68, 0]),
   midi.NoteOnEvent(tick=0, channel=0, data=[80, 0]),
   midi.NoteOnEvent(tick=220, channel=0, data=[73, 69]),
   midi.NoteOnEvent(tick=0, channel=0, data=[85, 77]),
   midi.NoteOnEvent(tick=20, channel=0, data=[82, 0]),
   midi.NoteOnEvent(tick=0, channel=0, data=[70, 0]),
   midi.NoteOnEvent(tick=220, channel=0, data=[84, 72]),
   midi.NoteOnEvent(tick=0, channel=0, data=[72, 64]),
   midi.NoteOnEvent(tick=20, channel=0, data=[73, 0]),
   midi.NoteOnEvent(tick=0, channel=0, data=[85, 0]),
   midi.NoteOnEvent(tick=220, channel=0, data=[87, 83]),
   midi.NoteOnEvent(tick=0, channel=0, data=[75, 72]),
   midi.NoteOnEvent(tick=20, channel=0, data=[84, 0]),
   midi.NoteOnEvent(tick=0, channel=0, data=[72, 0]),
   midi.NoteOnEvent(tick=220, channel=0, data=[70, 62]),
   midi.NoteOnEvent(tick=0, channel=0, data=[82, 70]),
   midi.NoteOnEvent(tick=20, channel=0, data=[87, 0]),
   midi.NoteOnEvent(tick=0, channel=0, data=[75, 0]),
   midi.NoteOnEvent(tick=220, channel=0, data=[80, 66]),
   midi.NoteOnEvent(tick=0, channel=0, data=[68, 59]),
   midi.NoteOnEvent(tick=20, channel=0, data=[70, 0]),
   midi.NoteOnEvent(tick=0, channel=0, data=[82, 0]),
   midi.NoteOnEvent(tick=940, channel=0, data=[80, 0]),
   midi.NoteOnEvent(tick=0, channel=0, data=[68, 0]),
   midi.NoteOnEvent(tick=0, channel=0, data=[77, 45]),
   midi.NoteOnEvent(tick=0, channel=0, data=[65, 45]),
   midi.NoteOnEvent(tick=240, channel=0, data=[65, 0]),
   midi.NoteOnEvent(tick=0, channel=0, data=[77, 0]),
   midi.NoteOnEvent(tick=240, channel=0, data=[65, 45]),
   midi.NoteOnEvent(tick=0, channel=0, data=[77, 45]),
   midi.NoteOnEvent(tick=720, channel=0, data=[77, 0]),
   midi.NoteOnEvent(tick=0, channel=0, data=[65, 0]),
   midi.NoteOnEvent(tick=0, channel=0, data=[65, 41]),
   midi.NoteOnEvent(tick=0, channel=0, data=[77, 41]),
   midi.NoteOnEvent(tick=240, channel=0, data=[77, 0]),
   midi.NoteOnEvent(tick=0, channel=0, data=[65, 0]),
   midi.NoteOnEvent(tick=0, channel=0, data=[65, 46]),
   midi.NoteOnEvent(tick=0, channel=0, data=[77, 46]),
   midi.NoteOnEvent(tick=360, channel=0, data=[77, 0]),
   midi.NoteOnEvent(tick=0, channel=0, data=[65, 0]),
   midi.NoteOnEvent(tick=0, channel=0, data=[68, 43]),
   midi.NoteOnEvent(tick=0, channel=0, data=[80, 43]),
   midi.NoteOnEvent(tick=120, channel=0, data=[80, 0]),
   midi.NoteOnEvent(tick=0, channel=0, data=[68, 0]),
   midi.NoteOnEvent(tick=0, channel=0, data=[80, 43]),
   midi.NoteOnEvent(tick=0, channel=0, data=[68, 43]),
   midi.NoteOnEvent(tick=960, channel=0, data=[68, 0]),
   midi.NoteOnEvent(tick=0, channel=0, data=[80, 0]),
   midi.NoteOnEvent(tick=240, channel=0, data=[78, 55]),
   midi.NoteOnEvent(tick=0, channel=0, data=[66, 55]),
   midi.NoteOnEvent(tick=240, channel=0, data=[80, 57]),
   midi.NoteOnEvent(tick=0, channel=0, data=[68, 57]),
   midi.NoteOnEvent(tick=20, channel=0, data=[66, 0]),
   midi.NoteOnEvent(tick=0, channel=0, data=[78, 0]),
   midi.NoteOnEvent(tick=220, channel=0, data=[82, 59]),
   midi.NoteOnEvent(tick=0, channel=0, data=[70, 59]),
   midi.NoteOnEvent(tick=20, channel=0, data=[80, 0]),
   midi.NoteOnEvent(tick=0, channel=0, data=[68, 0]),
   midi.NoteOnEvent(tick=220, channel=0, data=[73, 61]),
   midi.NoteOnEvent(tick=0, channel=0, data=[85, 61]),
   midi.NoteOnEvent(tick=20, channel=0, data=[82, 0]),
   midi.NoteOnEvent(tick=0, channel=0, data=[70, 0]),
   midi.NoteOnEvent(tick=220, channel=0, data=[84, 58]),
   midi.NoteOnEvent(tick=0, channel=0, data=[72, 58]),
   midi.NoteOnEvent(tick=20, channel=0, data=[73, 0]),
   midi.NoteOnEvent(tick=0, channel=0, data=[85, 0]),
   midi.NoteOnEvent(tick=220, channel=0, data=[78, 65]),
   midi.NoteOnEvent(tick=0, channel=0, data=[90, 65]),
   midi.NoteOnEvent(tick=20, channel=0, data=[84, 0]),
   midi.NoteOnEvent(tick=0, channel=0, data=[72, 0]),
   midi.NoteOnEvent(tick=220, channel=0, data=[70, 56]),
   midi.NoteOnEvent(tick=0, channel=0, data=[82, 56]),
   midi.NoteOnEvent(tick=20, channel=0, data=[78, 0]),
   midi.NoteOnEvent(tick=0, channel=0, data=[90, 0]),
   midi.NoteOnEvent(tick=220, channel=0, data=[68, 55]),
   midi.NoteOnEvent(tick=0, channel=0, data=[80, 55]),
   midi.NoteOnEvent(tick=20, channel=0, data=[70, 0]),
   midi.NoteOnEvent(tick=0, channel=0, data=[82, 0]),
   midi.NoteOnEvent(tick=460, channel=0, data=[68, 0]),
   midi.NoteOnEvent(tick=0, channel=0, data=[80, 0]),
   midi.NoteOnEvent(tick=0, channel=0, data=[69, 33]),
   midi.NoteOnEvent(tick=0, channel=0, data=[75, 33]),
   midi.NoteOnEvent(tick=0, channel=0, data=[80, 40]),
   midi.NoteOnEvent(tick=240, channel=0, data=[75, 0]),
   midi.NoteOnEvent(tick=0, channel=0, data=[69, 0]),
   midi.NoteOnEvent(tick=0, channel=0, data=[79, 37]),
   midi.NoteOnEvent(tick=20, channel=0, data=[80, 0]),
   midi.NoteOnEvent(tick=220, channel=0, data=[79, 0]),
   midi.NoteOnEvent(tick=0, channel=0, data=[68, 45]),
   midi.NoteOnEvent(tick=0, channel=0, data=[80, 49]),
   midi.NoteOnEvent(tick=240, channel=0, data=[80, 0]),
   midi.NoteOnEvent(tick=0, channel=0, data=[68, 0]),
   midi.NoteOnEvent(tick=240, channel=0, data=[68, 52]),
   midi.NoteOnEvent(tick=0, channel=0, data=[80, 52]),
   midi.NoteOnEvent(tick=720, channel=0, data=[80, 0]),
   midi.NoteOnEvent(tick=0, channel=0, data=[68, 0]),
   midi.NoteOnEvent(tick=0, channel=0, data=[80, 53]),
   midi.NoteOnEvent(tick=0, channel=0, data=[68, 53]),
   midi.NoteOnEvent(tick=240, channel=0, data=[68, 0]),
   midi.NoteOnEvent(tick=0, channel=0, data=[80, 0]),
   midi.NoteOnEvent(tick=0, channel=0, data=[71, 52]),
   midi.NoteOnEvent(tick=0, channel=0, data=[83, 58]),
   midi.NoteOnEvent(tick=240, channel=0, data=[83, 0]),
   midi.NoteOnEvent(tick=0, channel=0, data=[71, 0]),
   midi.NoteOnEvent(tick=0, channel=0, data=[69, 52]),
   midi.NoteOnEvent(tick=0, channel=0, data=[81, 58]),
   midi.NoteOnEvent(tick=240, channel=0, data=[81, 0]),
   midi.NoteOnEvent(tick=0, channel=0, data=[69, 0]),
   midi.NoteOnEvent(tick=0, channel=0, data=[85, 65]),
   midi.NoteOnEvent(tick=0, channel=0, data=[73, 58]),
   midi.NoteOnEvent(tick=240, channel=0, data=[73, 0]),
   midi.NoteOnEvent(tick=0, channel=0, data=[85, 0]),
   midi.NoteOnEvent(tick=0, channel=0, data=[75, 54]),
   midi.NoteOnEvent(tick=0, channel=0, data=[87, 61]),
   midi.NoteOnEvent(tick=240, channel=0, data=[87, 0]),
   midi.NoteOnEvent(tick=0, channel=0, data=[75, 0]),
   midi.NoteOnEvent(tick=0, channel=0, data=[80, 64]),
   midi.NoteOnEvent(tick=0, channel=0, data=[92, 72]),
   midi.NoteOnEvent(tick=240, channel=0, data=[92, 0]),
   midi.NoteOnEvent(tick=0, channel=0, data=[80, 0]),
   midi.NoteOnEvent(tick=0, channel=0, data=[78, 61]),
   midi.NoteOnEvent(tick=0, channel=0, data=[90, 68]),
   midi.NoteOnEvent(tick=240, channel=0, data=[90, 0]),
   midi.NoteOnEvent(tick=0, channel=0, data=[78, 0]),
   midi.NoteOnEvent(tick=0, channel=0, data=[80, 49]),
   midi.NoteOnEvent(tick=0, channel=0, data=[68, 49]),
   midi.NoteOnEvent(tick=240, channel=0, data=[68, 0]),
   midi.NoteOnEvent(tick=0, channel=0, data=[80, 0]),
   midi.NoteOnEvent(tick=240, channel=0, data=[68, 49]),
   midi.NoteOnEvent(tick=0, channel=0, data=[80, 49]),
   midi.NoteOnEvent(tick=720, channel=0, data=[80, 0]),
   midi.NoteOnEvent(tick=0, channel=0, data=[68, 0]),
   midi.NoteOnEvent(tick=0, channel=0, data=[80, 45]),
   midi.NoteOnEvent(tick=0, channel=0, data=[68, 45]),
   midi.NoteOnEvent(tick=240, channel=0, data=[68, 0]),
   midi.NoteOnEvent(tick=0, channel=0, data=[80, 0]),
   midi.NoteOnEvent(tick=0, channel=0, data=[83, 49]),
   midi.NoteOnEvent(tick=0, channel=0, data=[71, 49]),
   midi.NoteOnEvent(tick=240, channel=0, data=[71, 0]),
   midi.NoteOnEvent(tick=0, channel=0, data=[83, 0]),
   midi.NoteOnEvent(tick=0, channel=0, data=[81, 49]),
   midi.NoteOnEvent(tick=0, channel=0, data=[69, 49]),
   midi.NoteOnEvent(tick=240, channel=0, data=[69, 0]),
   midi.NoteOnEvent(tick=0, channel=0, data=[81, 0]),
   midi.NoteOnEvent(tick=0, channel=0, data=[73, 51]),
   midi.NoteOnEvent(tick=0, channel=0, data=[85, 51]),
   midi.NoteOnEvent(tick=240, channel=0, data=[85, 0]),
   midi.NoteOnEvent(tick=0, channel=0, data=[73, 0]),
   midi.NoteOnEvent(tick=0, channel=0, data=[75, 48]),
   midi.NoteOnEvent(tick=0, channel=0, data=[87, 48]),
   midi.NoteOnEvent(tick=180, channel=0, data=[87, 0]),
   midi.NoteOnEvent(tick=0, channel=0, data=[75, 0]),
   midi.NoteOnEvent(tick=0, channel=0, data=[80, 48]),
   midi.NoteOnEvent(tick=60, channel=0, data=[92, 55]),
   midi.NoteOnEvent(tick=240, channel=0, data=[92, 0]),
   midi.NoteOnEvent(tick=0, channel=0, data=[80, 0]),
   midi.NoteOnEvent(tick=0, channel=0, data=[90, 52]),
   midi.NoteOnEvent(tick=0, channel=0, data=[78, 52]),
   midi.NoteOnEvent(tick=240, channel=0, data=[78, 0]),
   midi.NoteOnEvent(tick=0, channel=0, data=[90, 0]),
   midi.NoteOnEvent(tick=0, channel=0, data=[80, 63]),
   midi.NoteOnEvent(tick=0, channel=0, data=[68, 53]),
   midi.NoteOnEvent(tick=480, channel=0, data=[68, 0]),
   midi.NoteOnEvent(tick=0, channel=0, data=[80, 0]),
   midi.NoteOnEvent(tick=0, channel=0, data=[80, 58]),
   midi.NoteOnEvent(tick=0, channel=0, data=[68, 49]),
   midi.NoteOnEvent(tick=0, channel=0, data=[78, 58]),
   midi.NoteOnEvent(tick=480, channel=0, data=[78, 0]),
   midi.NoteOnEvent(tick=0, channel=0, data=[68, 0]),
   midi.NoteOnEvent(tick=0, channel=0, data=[80, 0]),
   midi.NoteOnEvent(tick=0, channel=0, data=[68, 56]),
   midi.NoteOnEvent(tick=0, channel=0, data=[76, 66]),
   midi.NoteOnEvent(tick=0, channel=0, data=[80, 66]),
   midi.NoteOnEvent(tick=480, channel=0, data=[76, 0]),
   midi.NoteOnEvent(tick=0, channel=0, data=[77, 66]),
   midi.NoteOnEvent(tick=240, channel=0, data=[77, 0]),
   midi.NoteOnEvent(tick=0, channel=0, data=[80, 0]),
   midi.NoteOnEvent(tick=0, channel=0, data=[68, 0]),
   midi.NoteOnEvent(tick=0, channel=0, data=[72, 57]),
   midi.NoteOnEvent(tick=0, channel=0, data=[66, 48]),
   midi.NoteOnEvent(tick=0, channel=0, data=[75, 57]),
   midi.NoteOnEvent(tick=240, channel=0, data=[75, 0]),
   midi.NoteOnEvent(tick=0, channel=0, data=[66, 0]),
   midi.NoteOnEvent(tick=0, channel=0, data=[72, 0]),
   midi.NoteOnEvent(tick=0, channel=0, data=[65, 53]),
   midi.NoteOnEvent(tick=0, channel=0, data=[73, 63]),
   midi.NoteOnEvent(tick=240, channel=0, data=[73, 0]),
   midi.NoteOnEvent(tick=0, channel=0, data=[65, 0]),
   midi.NoteOnEvent(tick=0, channel=0, data=[72, 56]),
   midi.NoteOnEvent(tick=0, channel=0, data=[69, 56]),
   midi.NoteOnEvent(tick=0, channel=0, data=[63, 47]),
   midi.NoteOnEvent(tick=240, channel=0, data=[63, 0]),
   midi.NoteOnEvent(tick=0, channel=0, data=[69, 0]),
   midi.NoteOnEvent(tick=0, channel=0, data=[72, 0]),
   midi.NoteOnEvent(tick=0, channel=0, data=[61, 51]),
   midi.NoteOnEvent(tick=0, channel=0, data=[70, 60]),
   midi.NoteOnEvent(tick=240, channel=0, data=[70, 0]),
   midi.NoteOnEvent(tick=0, channel=0, data=[61, 0]),
   midi.NoteOnEvent(tick=0, channel=0, data=[68, 53]),
   midi.NoteOnEvent(tick=0, channel=0, data=[65, 53]),
   midi.NoteOnEvent(tick=240, channel=0, data=[65, 0]),
   midi.NoteOnEvent(tick=0, channel=0, data=[68, 0]),
   midi.NoteOnEvent(tick=0, channel=0, data=[66, 58]),
   midi.NoteOnEvent(tick=240, channel=0, data=[66, 0]),
   midi.NoteOnEvent(tick=0, channel=0, data=[68, 55]),
   midi.NoteOnEvent(tick=240, channel=0, data=[68, 0]),
   midi.NoteOnEvent(tick=0, channel=0, data=[69, 55]),
   midi.NoteOnEvent(tick=240, channel=0, data=[69, 0]),
   midi.NoteOnEvent(tick=0, channel=0, data=[70, 60]),
   midi.NoteOnEvent(tick=240, channel=0, data=[70, 0]),
   midi.NoteOnEvent(tick=0, channel=0, data=[73, 65]),
   midi.NoteOnEvent(tick=240, channel=0, data=[73, 0]),
   midi.NoteOnEvent(tick=0, channel=0, data=[66, 58]),
   midi.NoteOnEvent(tick=180, channel=0, data=[66, 0]),
   midi.NoteOnEvent(tick=0, channel=0, data=[60, 50]),
   midi.NoteOnEvent(tick=30, channel=0, data=[66, 51]),
   midi.NoteOnEvent(tick=30, channel=0, data=[70, 58]),
   midi.NoteOnEvent(tick=420, channel=0, data=[70, 0]),
   midi.NoteOnEvent(tick=0, channel=0, data=[66, 0]),
   midi.NoteOnEvent(tick=0, channel=0, data=[60, 0]),
   midi.NoteOnEvent(tick=0, channel=0, data=[66, 48]),
   midi.NoteOnEvent(tick=60, channel=0, data=[77, 58]),
   midi.NoteOnEvent(tick=720, channel=0, data=[77, 0]),
   midi.NoteOnEvent(tick=0, channel=0, data=[72, 53]),
   midi.NoteOnEvent(tick=240, channel=0, data=[72, 0]),
   midi.NoteOnEvent(tick=0, channel=0, data=[66, 0]),
   midi.NoteOnEvent(tick=240, channel=0, data=[68, 46]),
   midi.NoteOnEvent(tick=80, channel=0, data=[65, 46]),
   midi.NoteOnEvent(tick=20, channel=0, data=[68, 0]),
   midi.NoteOnEvent(tick=60, channel=0, data=[61, 46]),
   midi.NoteOnEvent(tick=20, channel=0, data=[65, 0]),
   midi.NoteOnEvent(tick=60, channel=0, data=[56, 52]),
   midi.NoteOnEvent(tick=20, channel=0, data=[61, 0]),
   midi.NoteOnEvent(tick=100, channel=0, data=[56, 0]),
   midi.NoteOnEvent(tick=120, channel=0, data=[61, 39]),
   midi.NoteOnEvent(tick=0, channel=0, data=[68, 48]),
   midi.NoteOnEvent(tick=0, channel=0, data=[65, 46]),
   midi.NoteOnEvent(tick=0, channel=0, data=[56, 39]),
   midi.NoteOnEvent(tick=480, channel=0, data=[56, 0]),
   midi.NoteOnEvent(tick=0, channel=0, data=[61, 0]),
   midi.NoteOnEvent(tick=0, channel=0, data=[68, 0]),
   midi.NoteOnEvent(tick=0, channel=0, data=[65, 0]),
   midi.NoteOnEvent(tick=0, channel=0, data=[65, 51]),
   midi.NoteOnEvent(tick=0, channel=0, data=[68, 51]),
   midi.NoteOnEvent(tick=0, channel=0, data=[59, 43]),
   midi.NoteOnEvent(tick=0, channel=0, data=[56, 43]),
   midi.NoteOnEvent(tick=240, channel=0, data=[56, 0]),
   midi.NoteOnEvent(tick=0, channel=0, data=[65, 0]),
   midi.NoteOnEvent(tick=0, channel=0, data=[68, 0]),
   midi.NoteOnEvent(tick=0, channel=0, data=[59, 0]),
   midi.NoteOnEvent(tick=240, channel=0, data=[68, 46]),
   midi.NoteOnEvent(tick=80, channel=0, data=[66, 46]),
   midi.NoteOnEvent(tick=20, channel=0, data=[68, 0]),
   midi.NoteOnEvent(tick=60, channel=0, data=[60, 46]),
   midi.NoteOnEvent(tick=20, channel=0, data=[66, 0]),
   midi.NoteOnEvent(tick=60, channel=0, data=[56, 52]),
   midi.NoteOnEvent(tick=20, channel=0, data=[60, 0]),
   midi.NoteOnEvent(tick=100, channel=0, data=[56, 0]),
   midi.NoteOnEvent(tick=120, channel=0, data=[56, 41]),
   midi.NoteOnEvent(tick=0, channel=0, data=[60, 41]),
   midi.NoteOnEvent(tick=0, channel=0, data=[66, 49]),
   midi.NoteOnEvent(tick=0, channel=0, data=[68, 51]),
   midi.NoteOnEvent(tick=480, channel=0, data=[68, 0]),
   midi.NoteOnEvent(tick=0, channel=0, data=[56, 0]),
   midi.NoteOnEvent(tick=0, channel=0, data=[60, 0]),
   midi.NoteOnEvent(tick=0, channel=0, data=[66, 0]),
   midi.NoteOnEvent(tick=0, channel=0, data=[64, 45]),
   midi.NoteOnEvent(tick=0, channel=0, data=[56, 38]),
   midi.NoteOnEvent(tick=0, channel=0, data=[68, 45]),
   midi.NoteOnEvent(tick=240, channel=0, data=[68, 0]),
   midi.NoteOnEvent(tick=0, channel=0, data=[56, 0]),
   midi.NoteOnEvent(tick=0, channel=0, data=[64, 0]),
   midi.NoteOnEvent(tick=240, channel=0, data=[68, 27]),
   midi.NoteOnEvent(tick=80, channel=0, data=[65, 27]),
   midi.NoteOnEvent(tick=20, channel=0, data=[68, 0]),
   midi.NoteOnEvent(tick=60, channel=0, data=[61, 27]),
   midi.NoteOnEvent(tick=20, channel=0, data=[65, 0]),
   midi.NoteOnEvent(tick=60, channel=0, data=[56, 30]),
   midi.NoteOnEvent(tick=20, channel=0, data=[61, 0]),
   midi.NoteOnEvent(tick=100, channel=0, data=[56, 0]),
   midi.NoteOnEvent(tick=120, channel=0, data=[56, 27]),
   midi.NoteOnEvent(tick=0, channel=0, data=[61, 27]),
   midi.NoteOnEvent(tick=0, channel=0, data=[65, 27]),
   midi.NoteOnEvent(tick=0, channel=0, data=[68, 28]),
   midi.NoteOnEvent(tick=480, channel=0, data=[68, 0]),
   midi.NoteOnEvent(tick=0, channel=0, data=[56, 0]),
   midi.NoteOnEvent(tick=0, channel=0, data=[61, 0]),
   midi.NoteOnEvent(tick=0, channel=0, data=[65, 0]),
   midi.NoteOnEvent(tick=0, channel=0, data=[59, 26]),
   midi.NoteOnEvent(tick=0, channel=0, data=[68, 26]),
   midi.NoteOnEvent(tick=0, channel=0, data=[65, 26]),
   midi.NoteOnEvent(tick=0, channel=0, data=[56, 26]),
   midi.NoteOnEvent(tick=240, channel=0, data=[56, 0]),
   midi.NoteOnEvent(tick=0, channel=0, data=[59, 0]),
   midi.NoteOnEvent(tick=0, channel=0, data=[68, 0]),
   midi.NoteOnEvent(tick=0, channel=0, data=[65, 0]),
   midi.NoteOnEvent(tick=240, channel=0, data=[68, 27]),
   midi.NoteOnEvent(tick=80, channel=0, data=[66, 27]),
   midi.NoteOnEvent(tick=20, channel=0, data=[68, 0]),
   midi.NoteOnEvent(tick=60, channel=0, data=[60, 27]),
   midi.NoteOnEvent(tick=20, channel=0, data=[66, 0]),
   midi.NoteOnEvent(tick=60, channel=0, data=[56, 30]),
   midi.NoteOnEvent(tick=20, channel=0, data=[60, 0]),
   midi.NoteOnEvent(tick=100, channel=0, data=[56, 0]),
   midi.NoteOnEvent(tick=120, channel=0, data=[56, 31]),
   midi.NoteOnEvent(tick=0, channel=0, data=[60, 31]),
   midi.NoteOnEvent(tick=0, channel=0, data=[68, 31]),
   midi.NoteOnEvent(tick=0, channel=0, data=[66, 31]),
   midi.NoteOnEvent(tick=480, channel=0, data=[66, 0]),
   midi.NoteOnEvent(tick=0, channel=0, data=[56, 0]),
   midi.NoteOnEvent(tick=0, channel=0, data=[60, 0]),
   midi.NoteOnEvent(tick=0, channel=0, data=[68, 0]),
   midi.NoteOnEvent(tick=0, channel=0, data=[56, 31]),
   midi.NoteOnEvent(tick=0, channel=0, data=[64, 31]),
   midi.NoteOnEvent(tick=0, channel=0, data=[68, 31]),
   midi.NoteOnEvent(tick=240, channel=0, data=[68, 0]),
   midi.NoteOnEvent(tick=0, channel=0, data=[64, 0]),
   midi.NoteOnEvent(tick=0, channel=0, data=[56, 0]),
   midi.NoteOnEvent(tick=0, channel=0, data=[64, 40]),
   midi.NoteOnEvent(tick=0, channel=0, data=[68, 40]),
   midi.NoteOnEvent(tick=120, channel=0, data=[68, 0]),
   midi.NoteOnEvent(tick=0, channel=0, data=[64, 0]),
   midi.NoteOnEvent(tick=120, channel=0, data=[64, 41]),
   midi.NoteOnEvent(tick=0, channel=0, data=[68, 41]),
   midi.NoteOnEvent(tick=120, channel=0, data=[68, 0]),
   midi.NoteOnEvent(tick=0, channel=0, data=[64, 0]),
   midi.NoteOnEvent(tick=120, channel=0, data=[64, 40]),
   midi.NoteOnEvent(tick=0, channel=0, data=[68, 40]),
   midi.NoteOnEvent(tick=120, channel=0, data=[68, 0]),
   midi.NoteOnEvent(tick=0, channel=0, data=[64, 0]),
   midi.NoteOnEvent(tick=120, channel=0, data=[64, 42]),
   midi.NoteOnEvent(tick=0, channel=0, data=[68, 42]),
   midi.NoteOnEvent(tick=120, channel=0, data=[68, 0]),
   midi.NoteOnEvent(tick=0, channel=0, data=[64, 0]),
   midi.NoteOnEvent(tick=120, channel=0, data=[64, 45]),
   midi.NoteOnEvent(tick=0, channel=0, data=[68, 45]),
   midi.NoteOnEvent(tick=120, channel=0, data=[68, 0]),
   midi.NoteOnEvent(tick=0, channel=0, data=[64, 0]),
   midi.NoteOnEvent(tick=120, channel=0, data=[64, 48]),
   midi.NoteOnEvent(tick=0, channel=0, data=[68, 48]),
   midi.NoteOnEvent(tick=120, channel=0, data=[68, 0]),
   midi.NoteOnEvent(tick=0, channel=0, data=[64, 0]),
   midi.NoteOnEvent(tick=120, channel=0, data=[64, 50]),
   midi.NoteOnEvent(tick=0, channel=0, data=[68, 50]),
   midi.NoteOnEvent(tick=120, channel=0, data=[68, 0]),
   midi.NoteOnEvent(tick=0, channel=0, data=[64, 0]),
   midi.NoteOnEvent(tick=120, channel=0, data=[64, 45]),
   midi.NoteOnEvent(tick=0, channel=0, data=[68, 45]),
   midi.NoteOnEvent(tick=120, channel=0, data=[68, 0]),
   midi.NoteOnEvent(tick=0, channel=0, data=[64, 0]),
   midi.NoteOnEvent(tick=120, channel=0, data=[64, 47]),
   midi.NoteOnEvent(tick=0, channel=0, data=[68, 47]),
   midi.NoteOnEvent(tick=120, channel=0, data=[68, 0]),
   midi.NoteOnEvent(tick=0, channel=0, data=[64, 0]),
   midi.NoteOnEvent(tick=120, channel=0, data=[64, 32]),
   midi.NoteOnEvent(tick=0, channel=0, data=[68, 32]),
   midi.NoteOnEvent(tick=120, channel=0, data=[68, 0]),
   midi.NoteOnEvent(tick=0, channel=0, data=[64, 0]),
   midi.NoteOnEvent(tick=120, channel=0, data=[64, 29]),
   midi.NoteOnEvent(tick=0, channel=0, data=[68, 29]),
   midi.NoteOnEvent(tick=120, channel=0, data=[68, 0]),
   midi.NoteOnEvent(tick=0, channel=0, data=[64, 0]),
   midi.NoteOnEvent(tick=120, channel=0, data=[64, 28]),
   midi.NoteOnEvent(tick=0, channel=0, data=[68, 28]),
   midi.NoteOnEvent(tick=120, channel=0, data=[68, 0]),
   midi.NoteOnEvent(tick=0, channel=0, data=[64, 0]),
   midi.NoteOnEvent(tick=120, channel=0, data=[76, 33]),
   midi.NoteOnEvent(tick=0, channel=0, data=[64, 24]),
   midi.NoteOnEvent(tick=0, channel=0, data=[68, 24]),
   midi.NoteOnEvent(tick=120, channel=0, data=[68, 0]),
   midi.NoteOnEvent(tick=0, channel=0, data=[64, 0]),
   midi.NoteOnEvent(tick=120, channel=0, data=[64, 24]),
   midi.NoteOnEvent(tick=0, channel=0, data=[68, 24]),
   midi.NoteOnEvent(tick=120, channel=0, data=[68, 0]),
   midi.NoteOnEvent(tick=0, channel=0, data=[64, 0]),
   midi.NoteOnEvent(tick=120, channel=0, data=[64, 24]),
   midi.NoteOnEvent(tick=0, channel=0, data=[68, 24]),
   midi.NoteOnEvent(tick=120, channel=0, data=[68, 0]),
   midi.NoteOnEvent(tick=0, channel=0, data=[64, 0]),
   midi.NoteOnEvent(tick=120, channel=0, data=[64, 24]),
   midi.NoteOnEvent(tick=0, channel=0, data=[68, 24]),
   midi.NoteOnEvent(tick=120, channel=0, data=[68, 0]),
   midi.NoteOnEvent(tick=0, channel=0, data=[64, 0]),
   midi.NoteOnEvent(tick=120, channel=0, data=[64, 27]),
   midi.NoteOnEvent(tick=0, channel=0, data=[68, 27]),
   midi.NoteOnEvent(tick=120, channel=0, data=[68, 0]),
   midi.NoteOnEvent(tick=0, channel=0, data=[64, 0]),
   midi.NoteOnEvent(tick=120, channel=0, data=[64, 28]),
   midi.NoteOnEvent(tick=0, channel=0, data=[68, 28]),
   midi.NoteOnEvent(tick=120, channel=0, data=[68, 0]),
   midi.NoteOnEvent(tick=0, channel=0, data=[64, 0]),
   midi.NoteOnEvent(tick=120, channel=0, data=[64, 30]),
   midi.NoteOnEvent(tick=0, channel=0, data=[68, 30]),
   midi.NoteOnEvent(tick=120, channel=0, data=[68, 0]),
   midi.NoteOnEvent(tick=0, channel=0, data=[64, 0]),
   midi.NoteOnEvent(tick=120, channel=0, data=[64, 27]),
   midi.NoteOnEvent(tick=0, channel=0, data=[68, 27]),
   midi.NoteOnEvent(tick=120, channel=0, data=[68, 0]),
   midi.NoteOnEvent(tick=0, channel=0, data=[64, 0]),
   midi.NoteOnEvent(tick=120, channel=0, data=[64, 27]),
   midi.NoteOnEvent(tick=0, channel=0, data=[68, 27]),
   midi.NoteOnEvent(tick=120, channel=0, data=[68, 0]),
   midi.NoteOnEvent(tick=0, channel=0, data=[64, 0]),
   midi.NoteOnEvent(tick=120, channel=0, data=[64, 23]),
   midi.NoteOnEvent(tick=0, channel=0, data=[68, 23]),
   midi.NoteOnEvent(tick=120, channel=0, data=[68, 0]),
   midi.NoteOnEvent(tick=0, channel=0, data=[64, 0]),
   midi.NoteOnEvent(tick=120, channel=0, data=[64, 21]),
   midi.NoteOnEvent(tick=0, channel=0, data=[68, 21]),
   midi.NoteOnEvent(tick=120, channel=0, data=[68, 0]),
   midi.NoteOnEvent(tick=0, channel=0, data=[64, 0]),
   midi.NoteOnEvent(tick=120, channel=0, data=[64, 21]),
   midi.NoteOnEvent(tick=0, channel=0, data=[68, 21]),
   midi.NoteOnEvent(tick=120, channel=0, data=[68, 0]),
   midi.NoteOnEvent(tick=0, channel=0, data=[64, 0]),
   midi.NoteOnEvent(tick=120, channel=0, data=[76, 0]),
   midi.NoteOnEvent(tick=0, channel=0, data=[69, 54]),
   midi.NoteOnEvent(tick=0, channel=0, data=[76, 73]),
   midi.NoteOnEvent(tick=240, channel=0, data=[76, 0]),
   midi.NoteOnEvent(tick=0, channel=0, data=[75, 64]),
   midi.NoteOnEvent(tick=80, channel=0, data=[76, 63]),
   midi.NoteOnEvent(tick=20, channel=0, data=[75, 0]),
   midi.NoteOnEvent(tick=60, channel=0, data=[75, 63]),
   midi.NoteOnEvent(tick=20, channel=0, data=[76, 0]),
   midi.NoteOnEvent(tick=60, channel=0, data=[75, 0]),
   midi.NoteOnEvent(tick=0, channel=0, data=[73, 74]),
   midi.NoteOnEvent(tick=240, channel=0, data=[73, 0]),
   midi.NoteOnEvent(tick=0, channel=0, data=[75, 63]),
   midi.NoteOnEvent(tick=240, channel=0, data=[75, 0]),
   midi.NoteOnEvent(tick=0, channel=0, data=[69, 0]),
   midi.NoteOnEvent(tick=0, channel=0, data=[64, 50]),
   midi.NoteOnEvent(tick=0, channel=0, data=[76, 70]),
   midi.NoteOnEvent(tick=240, channel=0, data=[76, 0]),
   midi.NoteOnEvent(tick=0, channel=0, data=[73, 62]),
   midi.NoteOnEvent(tick=240, channel=0, data=[73, 0]),
   midi.NoteOnEvent(tick=0, channel=0, data=[64, 0]),
   midi.NoteOnEvent(tick=0, channel=0, data=[69, 38]),
   midi.NoteOnEvent(tick=0, channel=0, data=[76, 47]),
   midi.NoteOnEvent(tick=240, channel=0, data=[76, 0]),
   midi.NoteOnEvent(tick=0, channel=0, data=[75, 42]),
   midi.NoteOnEvent(tick=80, channel=0, data=[76, 41]),
   midi.NoteOnEvent(tick=20, channel=0, data=[75, 0]),
   midi.NoteOnEvent(tick=60, channel=0, data=[75, 41]),
   midi.NoteOnEvent(tick=20, channel=0, data=[76, 0]),
   midi.NoteOnEvent(tick=60, channel=0, data=[75, 0]),
   midi.NoteOnEvent(tick=0, channel=0, data=[73, 48]),
   midi.NoteOnEvent(tick=240, channel=0, data=[73, 0]),
   midi.NoteOnEvent(tick=0, channel=0, data=[75, 41]),
   midi.NoteOnEvent(tick=240, channel=0, data=[75, 0]),
   midi.NoteOnEvent(tick=0, channel=0, data=[69, 0]),
   midi.NoteOnEvent(tick=0, channel=0, data=[64, 35]),
   midi.NoteOnEvent(tick=0, channel=0, data=[76, 45]),
   midi.NoteOnEvent(tick=240, channel=0, data=[76, 0]),
   midi.NoteOnEvent(tick=0, channel=0, data=[73, 40]),
   midi.NoteOnEvent(tick=240, channel=0, data=[73, 0]),
   midi.NoteOnEvent(tick=0, channel=0, data=[64, 0]),
   midi.NoteOnEvent(tick=0, channel=0, data=[64, 38]),
   midi.NoteOnEvent(tick=0, channel=0, data=[71, 47]),
   midi.NoteOnEvent(tick=240, channel=0, data=[71, 0]),
   midi.NoteOnEvent(tick=0, channel=0, data=[69, 42]),
   midi.NoteOnEvent(tick=80, channel=0, data=[71, 41]),
   midi.NoteOnEvent(tick=20, channel=0, data=[69, 0]),
   midi.NoteOnEvent(tick=60, channel=0, data=[69, 41]),
   midi.NoteOnEvent(tick=20, channel=0, data=[71, 0]),
   midi.NoteOnEvent(tick=60, channel=0, data=[69, 0]),
   midi.NoteOnEvent(tick=0, channel=0, data=[64, 0]),
   midi.NoteOnEvent(tick=0, channel=0, data=[63, 35]),
   midi.NoteOnEvent(tick=0, channel=0, data=[68, 48]),
   midi.NoteOnEvent(tick=240, channel=0, data=[63, 0]),
   midi.NoteOnEvent(tick=0, channel=0, data=[63, 39]),
   midi.NoteOnEvent(tick=240, channel=0, data=[63, 0]),
   midi.NoteOnEvent(tick=0, channel=0, data=[68, 0]),
   midi.NoteOnEvent(tick=0, channel=0, data=[64, 41]),
   midi.NoteOnEvent(tick=0, channel=0, data=[69, 46]),
   midi.NoteOnEvent(tick=240, channel=0, data=[69, 0]),
   midi.NoteOnEvent(tick=0, channel=0, data=[64, 0]),
   midi.NoteOnEvent(tick=0, channel=0, data=[66, 44]),
   midi.NoteOnEvent(tick=0, channel=0, data=[71, 49]),
   midi.NoteOnEvent(tick=240, channel=0, data=[71, 0]),
   midi.NoteOnEvent(tick=0, channel=0, data=[66, 0]),
   midi.NoteOnEvent(tick=0, channel=0, data=[68, 46]),
   midi.NoteOnEvent(tick=0, channel=0, data=[73, 52]),
   midi.NoteOnEvent(tick=240, channel=0, data=[73, 0]),
   midi.NoteOnEvent(tick=0, channel=0, data=[68, 0]),
   midi.NoteOnEvent(tick=0, channel=0, data=[66, 44]),
   midi.NoteOnEvent(tick=0, channel=0, data=[71, 49]),
   midi.NoteOnEvent(tick=240, channel=0, data=[71, 0]),
   midi.NoteOnEvent(tick=0, channel=0, data=[66, 0]),
   midi.NoteOnEvent(tick=0, channel=0, data=[64, 43]),
   midi.NoteOnEvent(tick=0, channel=0, data=[69, 48]),
   midi.NoteOnEvent(tick=240, channel=0, data=[69, 0]),
   midi.NoteOnEvent(tick=0, channel=0, data=[64, 0]),
   midi.NoteOnEvent(tick=0, channel=0, data=[66, 41]),
   midi.NoteOnEvent(tick=0, channel=0, data=[71, 46]),
   midi.NoteOnEvent(tick=240, channel=0, data=[71, 0]),
   midi.NoteOnEvent(tick=0, channel=0, data=[66, 0]),
   midi.NoteOnEvent(tick=0, channel=0, data=[63, 40]),
   midi.NoteOnEvent(tick=0, channel=0, data=[68, 45]),
   midi.NoteOnEvent(tick=480, channel=0, data=[68, 0]),
   midi.NoteOnEvent(tick=0, channel=0, data=[63, 0]),
   midi.NoteOnEvent(tick=0, channel=0, data=[64, 30]),
   midi.NoteOnEvent(tick=0, channel=0, data=[68, 30]),
   midi.NoteOnEvent(tick=120, channel=0, data=[68, 0]),
   midi.NoteOnEvent(tick=0, channel=0, data=[64, 0]),
   midi.NoteOnEvent(tick=120, channel=0, data=[64, 30]),
   midi.NoteOnEvent(tick=0, channel=0, data=[68, 30]),
   midi.NoteOnEvent(tick=120, channel=0, data=[68, 0]),
   midi.NoteOnEvent(tick=0, channel=0, data=[64, 0]),
   midi.NoteOnEvent(tick=120, channel=0, data=[64, 30]),
   midi.NoteOnEvent(tick=0, channel=0, data=[68, 30]),
   midi.NoteOnEvent(tick=120, channel=0, data=[68, 0]),
   midi.NoteOnEvent(tick=0, channel=0, data=[64, 0]),
   midi.NoteOnEvent(tick=120, channel=0, data=[64, 31]),
   midi.NoteOnEvent(tick=0, channel=0, data=[68, 31]),
   midi.NoteOnEvent(tick=120, channel=0, data=[68, 0]),
   midi.NoteOnEvent(tick=0, channel=0, data=[64, 0]),
   midi.NoteOnEvent(tick=120, channel=0, data=[64, 34]),
   midi.NoteOnEvent(tick=0, channel=0, data=[68, 34]),
   midi.NoteOnEvent(tick=120, channel=0, data=[68, 0]),
   midi.NoteOnEvent(tick=0, channel=0, data=[64, 0]),
   midi.NoteOnEvent(tick=120, channel=0, data=[64, 36]),
   midi.NoteOnEvent(tick=0, channel=0, data=[68, 36]),
   midi.NoteOnEvent(tick=120, channel=0, data=[68, 0]),
   midi.NoteOnEvent(tick=0, channel=0, data=[64, 0]),
   midi.NoteOnEvent(tick=120, channel=0, data=[64, 38]),
   midi.NoteOnEvent(tick=0, channel=0, data=[68, 38]),
   midi.NoteOnEvent(tick=120, channel=0, data=[68, 0]),
   midi.NoteOnEvent(tick=0, channel=0, data=[64, 0]),
   midi.NoteOnEvent(tick=120, channel=0, data=[64, 34]),
   midi.NoteOnEvent(tick=0, channel=0, data=[68, 34]),
   midi.NoteOnEvent(tick=120, channel=0, data=[68, 0]),
   midi.NoteOnEvent(tick=0, channel=0, data=[64, 0]),
   midi.NoteOnEvent(tick=120, channel=0, data=[64, 35]),
   midi.NoteOnEvent(tick=0, channel=0, data=[68, 35]),
   midi.NoteOnEvent(tick=120, channel=0, data=[68, 0]),
   midi.NoteOnEvent(tick=0, channel=0, data=[64, 0]),
   midi.NoteOnEvent(tick=120, channel=0, data=[64, 25]),
   midi.NoteOnEvent(tick=0, channel=0, data=[68, 25]),
   midi.NoteOnEvent(tick=120, channel=0, data=[68, 0]),
   midi.NoteOnEvent(tick=0, channel=0, data=[64, 0]),
   midi.NoteOnEvent(tick=120, channel=0, data=[64, 24]),
   midi.NoteOnEvent(tick=0, channel=0, data=[68, 24]),
   midi.NoteOnEvent(tick=120, channel=0, data=[68, 0]),
   midi.NoteOnEvent(tick=0, channel=0, data=[64, 0]),
   midi.NoteOnEvent(tick=120, channel=0, data=[64, 23]),
   midi.NoteOnEvent(tick=0, channel=0, data=[68, 23]),
   midi.NoteOnEvent(tick=120, channel=0, data=[68, 0]),
   midi.NoteOnEvent(tick=0, channel=0, data=[64, 0]),
   midi.NoteOnEvent(tick=120, channel=0, data=[76, 33]),
   midi.NoteOnEvent(tick=0, channel=0, data=[64, 24]),
   midi.NoteOnEvent(tick=0, channel=0, data=[68, 24]),
   midi.NoteOnEvent(tick=120, channel=0, data=[68, 0]),
   midi.NoteOnEvent(tick=0, channel=0, data=[64, 0]),
   midi.NoteOnEvent(tick=120, channel=0, data=[64, 24]),
   midi.NoteOnEvent(tick=0, channel=0, data=[68, 24]),
   midi.NoteOnEvent(tick=120, channel=0, data=[68, 0]),
   midi.NoteOnEvent(tick=0, channel=0, data=[64, 0]),
   midi.NoteOnEvent(tick=120, channel=0, data=[64, 24]),
   midi.NoteOnEvent(tick=0, channel=0, data=[68, 24]),
   midi.NoteOnEvent(tick=120, channel=0, data=[68, 0]),
   midi.NoteOnEvent(tick=0, channel=0, data=[64, 0]),
   midi.NoteOnEvent(tick=120, channel=0, data=[64, 24]),
   midi.NoteOnEvent(tick=0, channel=0, data=[68, 24]),
   midi.NoteOnEvent(tick=120, channel=0, data=[68, 0]),
   midi.NoteOnEvent(tick=0, channel=0, data=[64, 0]),
   midi.NoteOnEvent(tick=120, channel=0, data=[64, 27]),
   midi.NoteOnEvent(tick=0, channel=0, data=[68, 27]),
   midi.NoteOnEvent(tick=120, channel=0, data=[68, 0]),
   midi.NoteOnEvent(tick=0, channel=0, data=[64, 0]),
   midi.NoteOnEvent(tick=120, channel=0, data=[64, 28]),
   midi.NoteOnEvent(tick=0, channel=0, data=[68, 28]),
   midi.NoteOnEvent(tick=120, channel=0, data=[68, 0]),
   midi.NoteOnEvent(tick=0, channel=0, data=[64, 0]),
   midi.NoteOnEvent(tick=120, channel=0, data=[64, 30]),
   midi.NoteOnEvent(tick=0, channel=0, data=[68, 30]),
   midi.NoteOnEvent(tick=120, channel=0, data=[68, 0]),
   midi.NoteOnEvent(tick=0, channel=0, data=[64, 0]),
   midi.NoteOnEvent(tick=120, channel=0, data=[64, 27]),
   midi.NoteOnEvent(tick=0, channel=0, data=[68, 27]),
   midi.NoteOnEvent(tick=120, channel=0, data=[68, 0]),
   midi.NoteOnEvent(tick=0, channel=0, data=[64, 0]),
   midi.NoteOnEvent(tick=120, channel=0, data=[64, 27]),
   midi.NoteOnEvent(tick=0, channel=0, data=[68, 27]),
   midi.NoteOnEvent(tick=120, channel=0, data=[68, 0]),
   midi.NoteOnEvent(tick=0, channel=0, data=[64, 0]),
   midi.NoteOnEvent(tick=120, channel=0, data=[64, 23]),
   midi.NoteOnEvent(tick=0, channel=0, data=[68, 23]),
   midi.NoteOnEvent(tick=120, channel=0, data=[68, 0]),
   midi.NoteOnEvent(tick=0, channel=0, data=[64, 0]),
   midi.NoteOnEvent(tick=120, channel=0, data=[64, 21]),
   midi.NoteOnEvent(tick=0, channel=0, data=[68, 21]),
   midi.NoteOnEvent(tick=120, channel=0, data=[68, 0]),
   midi.NoteOnEvent(tick=0, channel=0, data=[64, 0]),
   midi.NoteOnEvent(tick=120, channel=0, data=[64, 21]),
   midi.NoteOnEvent(tick=0, channel=0, data=[68, 21]),
   midi.NoteOnEvent(tick=120, channel=0, data=[68, 0]),
   midi.NoteOnEvent(tick=0, channel=0, data=[64, 0]),
   midi.NoteOnEvent(tick=120, channel=0, data=[76, 0]),
   midi.NoteOnEvent(tick=0, channel=0, data=[69, 54]),
   midi.NoteOnEvent(tick=0, channel=0, data=[76, 73]),
   midi.NoteOnEvent(tick=240, channel=0, data=[76, 0]),
   midi.NoteOnEvent(tick=0, channel=0, data=[75, 64]),
   midi.NoteOnEvent(tick=80, channel=0, data=[76, 63]),
   midi.NoteOnEvent(tick=20, channel=0, data=[75, 0]),
   midi.NoteOnEvent(tick=60, channel=0, data=[75, 63]),
   midi.NoteOnEvent(tick=20, channel=0, data=[76, 0]),
   midi.NoteOnEvent(tick=60, channel=0, data=[75, 0]),
   midi.NoteOnEvent(tick=0, channel=0, data=[73, 74]),
   midi.NoteOnEvent(tick=240, channel=0, data=[73, 0]),
   midi.NoteOnEvent(tick=0, channel=0, data=[75, 63]),
   midi.NoteOnEvent(tick=240, channel=0, data=[75, 0]),
   midi.NoteOnEvent(tick=0, channel=0, data=[69, 0]),
   midi.NoteOnEvent(tick=0, channel=0, data=[64, 50]),
   midi.NoteOnEvent(tick=0, channel=0, data=[76, 70]),
   midi.NoteOnEvent(tick=240, channel=0, data=[76, 0]),
   midi.NoteOnEvent(tick=0, channel=0, data=[73, 62]),
   midi.NoteOnEvent(tick=240, channel=0, data=[73, 0]),
   midi.NoteOnEvent(tick=0, channel=0, data=[64, 0]),
   midi.NoteOnEvent(tick=0, channel=0, data=[69, 38]),
   midi.NoteOnEvent(tick=0, channel=0, data=[76, 47]),
   midi.NoteOnEvent(tick=240, channel=0, data=[76, 0]),
   midi.NoteOnEvent(tick=0, channel=0, data=[75, 42]),
   midi.NoteOnEvent(tick=80, channel=0, data=[76, 41]),
   midi.NoteOnEvent(tick=20, channel=0, data=[75, 0]),
   midi.NoteOnEvent(tick=60, channel=0, data=[75, 41]),
   midi.NoteOnEvent(tick=20, channel=0, data=[76, 0]),
   midi.NoteOnEvent(tick=60, channel=0, data=[75, 0]),
   midi.NoteOnEvent(tick=0, channel=0, data=[73, 48]),
   midi.NoteOnEvent(tick=240, channel=0, data=[73, 0]),
   midi.NoteOnEvent(tick=0, channel=0, data=[75, 41]),
   midi.NoteOnEvent(tick=240, channel=0, data=[75, 0]),
   midi.NoteOnEvent(tick=0, channel=0, data=[69, 0]),
   midi.NoteOnEvent(tick=0, channel=0, data=[64, 35]),
   midi.NoteOnEvent(tick=0, channel=0, data=[76, 45]),
   midi.NoteOnEvent(tick=240, channel=0, data=[76, 0]),
   midi.NoteOnEvent(tick=0, channel=0, data=[73, 40]),
   midi.NoteOnEvent(tick=240, channel=0, data=[73, 0]),
   midi.NoteOnEvent(tick=0, channel=0, data=[64, 0]),
   midi.NoteOnEvent(tick=0, channel=0, data=[61, 34]),
   midi.NoteOnEvent(tick=0, channel=0, data=[64, 34]),
   midi.NoteOnEvent(tick=240, channel=0, data=[64, 0]),
   midi.NoteOnEvent(tick=0, channel=0, data=[61, 0]),
   midi.NoteOnEvent(tick=0, channel=0, data=[61, 30]),
   midi.NoteOnEvent(tick=0, channel=0, data=[64, 30]),
   midi.NoteOnEvent(tick=240, channel=0, data=[64, 0]),
   midi.NoteOnEvent(tick=0, channel=0, data=[61, 0]),
   midi.NoteOnEvent(tick=0, channel=0, data=[60, 34]),
   midi.NoteOnEvent(tick=0, channel=0, data=[64, 34]),
   midi.NoteOnEvent(tick=240, channel=0, data=[64, 0]),
   midi.NoteOnEvent(tick=0, channel=0, data=[60, 0]),
   midi.NoteOnEvent(tick=0, channel=0, data=[61, 30]),
   midi.NoteOnEvent(tick=0, channel=0, data=[64, 30]),
   midi.NoteOnEvent(tick=240, channel=0, data=[64, 0]),
   midi.NoteOnEvent(tick=0, channel=0, data=[61, 0]),
   midi.NoteOnEvent(tick=0, channel=0, data=[63, 48]),
   midi.NoteOnEvent(tick=0, channel=0, data=[68, 48]),
   midi.NoteOnEvent(tick=240, channel=0, data=[68, 0]),
   midi.NoteOnEvent(tick=0, channel=0, data=[63, 0]),
   midi.NoteOnEvent(tick=0, channel=0, data=[61, 44]),
   midi.NoteOnEvent(tick=0, channel=0, data=[66, 44]),
   midi.NoteOnEvent(tick=120, channel=0, data=[66, 0]),
   midi.NoteOnEvent(tick=0, channel=0, data=[61, 0]),
   midi.NoteOnEvent(tick=60, channel=0, data=[57, 41]),
   midi.NoteOnEvent(tick=30, channel=0, data=[60, 41]),
   midi.NoteOnEvent(tick=30, channel=0, data=[64, 48]),
   midi.NoteOnEvent(tick=240, channel=0, data=[64, 0]),
   midi.NoteOnEvent(tick=0, channel=0, data=[63, 42]),
   midi.NoteOnEvent(tick=80, channel=0, data=[64, 42]),
   midi.NoteOnEvent(tick=20, channel=0, data=[63, 0]),
   midi.NoteOnEvent(tick=60, channel=0, data=[63, 42]),
   midi.NoteOnEvent(tick=20, channel=0, data=[64, 0]),
   midi.NoteOnEvent(tick=60, channel=0, data=[57, 0]),
   midi.NoteOnEvent(tick=0, channel=0, data=[60, 0]),
   midi.NoteOnEvent(tick=0, channel=0, data=[56, 47]),
   midi.NoteOnEvent(tick=0, channel=0, data=[61, 47]),
   midi.NoteOnEvent(tick=20, channel=0, data=[63, 0]),
   midi.NoteOnEvent(tick=220, channel=0, data=[61, 0]),
   midi.NoteOnEvent(tick=0, channel=0, data=[56, 0]),
   midi.NoteOnEvent(tick=0, channel=0, data=[57, 45]),
   midi.NoteOnEvent(tick=180, channel=0, data=[57, 0]),
   midi.NoteOnEvent(tick=0, channel=0, data=[56, 45]),
   midi.NoteOnEvent(tick=60, channel=0, data=[61, 45]),
   midi.NoteOnEvent(tick=480, channel=0, data=[61, 0]),
   midi.NoteOnEvent(tick=0, channel=0, data=[56, 0]),
   midi.NoteOnEvent(tick=0, channel=0, data=[60, 36]),
   midi.NoteOnEvent(tick=0, channel=0, data=[63, 36]),
   midi.NoteOnEvent(tick=240, channel=0, data=[63, 0]),
   midi.NoteOnEvent(tick=0, channel=0, data=[60, 0]),
   midi.NoteOnEvent(tick=0, channel=0, data=[60, 36]),
   midi.NoteOnEvent(tick=0, channel=0, data=[63, 36]),
   midi.NoteOnEvent(tick=240, channel=0, data=[63, 0]),
   midi.NoteOnEvent(tick=0, channel=0, data=[60, 0]),
   midi.NoteOnEvent(tick=0, channel=0, data=[63, 36]),
   midi.NoteOnEvent(tick=0, channel=0, data=[61, 36]),
   midi.NoteOnEvent(tick=240, channel=0, data=[61, 0]),
   midi.NoteOnEvent(tick=0, channel=0, data=[63, 0]),
   midi.NoteOnEvent(tick=0, channel=0, data=[61, 36]),
   midi.NoteOnEvent(tick=0, channel=0, data=[63, 36]),
   midi.NoteOnEvent(tick=240, channel=0, data=[63, 0]),
   midi.NoteOnEvent(tick=0, channel=0, data=[61, 0]),
   midi.NoteOnEvent(tick=0, channel=0, data=[61, 41]),
   midi.NoteOnEvent(tick=0, channel=0, data=[63, 41]),
   midi.NoteOnEvent(tick=240, channel=0, data=[63, 0]),
   midi.NoteOnEvent(tick=0, channel=0, data=[61, 0]),
   midi.NoteOnEvent(tick=0, channel=0, data=[61, 39]),
   midi.NoteOnEvent(tick=0, channel=0, data=[63, 39]),
   midi.NoteOnEvent(tick=240, channel=0, data=[63, 0]),
   midi.NoteOnEvent(tick=0, channel=0, data=[61, 0]),
   midi.NoteOnEvent(tick=0, channel=0, data=[60, 45]),
   midi.NoteOnEvent(tick=0, channel=0, data=[63, 45]),
   midi.NoteOnEvent(tick=240, channel=0, data=[63, 0]),
   midi.NoteOnEvent(tick=0, channel=0, data=[60, 0]),
   midi.NoteOnEvent(tick=0, channel=0, data=[61, 45]),
   midi.NoteOnEvent(tick=0, channel=0, data=[63, 45]),
   midi.NoteOnEvent(tick=240, channel=0, data=[61, 0]),
   midi.NoteOnEvent(tick=0, channel=0, data=[60, 45]),
   midi.NoteOnEvent(tick=240, channel=0, data=[60, 0]),
   midi.NoteOnEvent(tick=0, channel=0, data=[63, 0]),
   midi.NoteOnEvent(tick=0, channel=0, data=[73, 48]),
   midi.NoteOnEvent(tick=0, channel=0, data=[75, 48]),
   midi.NoteOnEvent(tick=240, channel=0, data=[73, 0]),
   midi.NoteOnEvent(tick=0, channel=0, data=[72, 47]),
   midi.NoteOnEvent(tick=240, channel=0, data=[72, 0]),
   midi.NoteOnEvent(tick=0, channel=0, data=[75, 0]),
   midi.NoteOnEvent(tick=0, channel=0, data=[80, 63]),
   midi.NoteOnEvent(tick=240, channel=0, data=[80, 0]),
   midi.NoteOnEvent(tick=0, channel=0, data=[69, 66]),
   midi.NoteOnEvent(tick=0, channel=0, data=[72, 66]),
   midi.NoteOnEvent(tick=0, channel=0, data=[80, 66]),
   midi.NoteOnEvent(tick=480, channel=0, data=[80, 0]),
   midi.NoteOnEvent(tick=0, channel=0, data=[78, 62]),
   midi.NoteOnEvent(tick=240, channel=0, data=[78, 0]),
   midi.NoteOnEvent(tick=0, channel=0, data=[72, 0]),
   midi.NoteOnEvent(tick=0, channel=0, data=[69, 0]),
   midi.NoteOnEvent(tick=0, channel=0, data=[69, 58]),
   midi.NoteOnEvent(tick=0, channel=0, data=[72, 58]),
   midi.NoteOnEvent(tick=240, channel=0, data=[72, 0]),
   midi.NoteOnEvent(tick=0, channel=0, data=[69, 0]),
   midi.NoteOnEvent(tick=0, channel=0, data=[69, 50]),
   midi.NoteOnEvent(tick=0, channel=0, data=[72, 50]),
   midi.NoteOnEvent(tick=0, channel=0, data=[76, 63]),
   midi.NoteOnEvent(tick=240, channel=0, data=[76, 0]),
   midi.NoteOnEvent(tick=0, channel=0, data=[75, 57]),
   midi.NoteOnEvent(tick=240, channel=0, data=[75, 0]),
   midi.NoteOnEvent(tick=0, channel=0, data=[72, 0]),
   midi.NoteOnEvent(tick=0, channel=0, data=[69, 0]),
   midi.NoteOnEvent(tick=0, channel=0, data=[68, 52]),
   midi.NoteOnEvent(tick=0, channel=0, data=[73, 58]),
   midi.NoteOnEvent(tick=80, channel=0, data=[75, 54]),
   midi.NoteOnEvent(tick=20, channel=0, data=[73, 0]),
   midi.NoteOnEvent(tick=60, channel=0, data=[73, 55]),
   midi.NoteOnEvent(tick=20, channel=0, data=[75, 0]),
   midi.NoteOnEvent(tick=60, channel=0, data=[68, 0]),
   midi.NoteOnEvent(tick=0, channel=0, data=[66, 52]),
   midi.NoteOnEvent(tick=0, channel=0, data=[71, 58]),
   midi.NoteOnEvent(tick=20, channel=0, data=[73, 0]),
   midi.NoteOnEvent(tick=100, channel=0, data=[64, 51]),
   midi.NoteOnEvent(tick=0, channel=0, data=[69, 57]),
   midi.NoteOnEvent(tick=20, channel=0, data=[71, 0]),
   midi.NoteOnEvent(tick=0, channel=0, data=[66, 0]),
   midi.NoteOnEvent(tick=100, channel=0, data=[63, 47]),
   midi.NoteOnEvent(tick=0, channel=0, data=[68, 53]),
   midi.NoteOnEvent(tick=20, channel=0, data=[64, 0]),
   midi.NoteOnEvent(tick=0, channel=0, data=[69, 0]),
   midi.NoteOnEvent(tick=220, channel=0, data=[63, 0]),
   midi.NoteOnEvent(tick=0, channel=0, data=[64, 45]),
   midi.NoteOnEvent(tick=240, channel=0, data=[64, 0]),
   midi.NoteOnEvent(tick=0, channel=0, data=[68, 0]),
   midi.NoteOnEvent(tick=0, channel=0, data=[63, 49]),
   midi.NoteOnEvent(tick=0, channel=0, data=[68, 55]),
   midi.NoteOnEvent(tick=480, channel=0, data=[68, 0]),
   midi.NoteOnEvent(tick=0, channel=0, data=[63, 0]),
   midi.NoteOnEvent(tick=0, channel=0, data=[60, 32]),
   midi.NoteOnEvent(tick=0, channel=0, data=[63, 32]),
   midi.NoteOnEvent(tick=240, channel=0, data=[63, 0]),
   midi.NoteOnEvent(tick=0, channel=0, data=[60, 0]),
   midi.NoteOnEvent(tick=0, channel=0, data=[60, 32]),
   midi.NoteOnEvent(tick=0, channel=0, data=[63, 32]),
   midi.NoteOnEvent(tick=240, channel=0, data=[63, 0]),
   midi.NoteOnEvent(tick=0, channel=0, data=[60, 0]),
   midi.NoteOnEvent(tick=0, channel=0, data=[63, 32]),
   midi.NoteOnEvent(tick=0, channel=0, data=[61, 32]),
   midi.NoteOnEvent(tick=240, channel=0, data=[61, 0]),
   midi.NoteOnEvent(tick=0, channel=0, data=[63, 0]),
   midi.NoteOnEvent(tick=0, channel=0, data=[61, 32]),
   midi.NoteOnEvent(tick=0, channel=0, data=[63, 32]),
   midi.NoteOnEvent(tick=240, channel=0, data=[63, 0]),
   midi.NoteOnEvent(tick=0, channel=0, data=[61, 0]),
   midi.NoteOnEvent(tick=0, channel=0, data=[61, 36]),
   midi.NoteOnEvent(tick=0, channel=0, data=[63, 36]),
   midi.NoteOnEvent(tick=240, channel=0, data=[63, 0]),
   midi.NoteOnEvent(tick=0, channel=0, data=[61, 0]),
   midi.NoteOnEvent(tick=0, channel=0, data=[61, 35]),
   midi.NoteOnEvent(tick=0, channel=0, data=[63, 35]),
   midi.NoteOnEvent(tick=240, channel=0, data=[63, 0]),
   midi.NoteOnEvent(tick=0, channel=0, data=[61, 0]),
   midi.NoteOnEvent(tick=0, channel=0, data=[60, 40]),
   midi.NoteOnEvent(tick=0, channel=0, data=[63, 40]),
   midi.NoteOnEvent(tick=240, channel=0, data=[63, 0]),
   midi.NoteOnEvent(tick=0, channel=0, data=[60, 0]),
   midi.NoteOnEvent(tick=0, channel=0, data=[61, 40]),
   midi.NoteOnEvent(tick=0, channel=0, data=[63, 40]),
   midi.NoteOnEvent(tick=240, channel=0, data=[61, 0]),
   midi.NoteOnEvent(tick=0, channel=0, data=[60, 40]),
   midi.NoteOnEvent(tick=240, channel=0, data=[60, 0]),
   midi.NoteOnEvent(tick=0, channel=0, data=[63, 0]),
   midi.NoteOnEvent(tick=0, channel=0, data=[73, 43]),
   midi.NoteOnEvent(tick=0, channel=0, data=[75, 43]),
   midi.NoteOnEvent(tick=240, channel=0, data=[73, 0]),
   midi.NoteOnEvent(tick=0, channel=0, data=[72, 40]),
   midi.NoteOnEvent(tick=240, channel=0, data=[72, 0]),
   midi.NoteOnEvent(tick=0, channel=0, data=[75, 0]),
   midi.NoteOnEvent(tick=0, channel=0, data=[71, 43]),
   midi.NoteOnEvent(tick=0, channel=0, data=[75, 43]),
   midi.NoteOnEvent(tick=240, channel=0, data=[75, 0]),
   midi.NoteOnEvent(tick=0, channel=0, data=[71, 0]),
   midi.NoteOnEvent(tick=0, channel=0, data=[71, 45]),
   midi.NoteOnEvent(tick=0, channel=0, data=[76, 45]),
   midi.NoteOnEvent(tick=240, channel=0, data=[76, 0]),
   midi.NoteOnEvent(tick=0, channel=0, data=[75, 42]),
   midi.NoteOnEvent(tick=80, channel=0, data=[76, 42]),
   midi.NoteOnEvent(tick=20, channel=0, data=[75, 0]),
   midi.NoteOnEvent(tick=60, channel=0, data=[75, 42]),
   midi.NoteOnEvent(tick=20, channel=0, data=[76, 0]),
   midi.NoteOnEvent(tick=60, channel=0, data=[71, 0]),
   midi.NoteOnEvent(tick=0, channel=0, data=[73, 45]),
   midi.NoteOnEvent(tick=20, channel=0, data=[75, 0]),
   midi.NoteOnEvent(tick=340, channel=0, data=[73, 0]),
   midi.NoteOnEvent(tick=0, channel=0, data=[73, 42]),
   midi.NoteOnEvent(tick=120, channel=0, data=[73, 0]),
   midi.NoteOnEvent(tick=0, channel=0, data=[71, 48]),
   midi.NoteOnEvent(tick=0, channel=0, data=[75, 48]),
   midi.NoteOnEvent(tick=120, channel=0, data=[75, 0]),
   midi.NoteOnEvent(tick=0, channel=0, data=[78, 45]),
   midi.NoteOnEvent(tick=120, channel=0, data=[78, 0]),
   midi.NoteOnEvent(tick=0, channel=0, data=[75, 47]),
   midi.NoteOnEvent(tick=120, channel=0, data=[75, 0]),
   midi.NoteOnEvent(tick=0, channel=0, data=[71, 0]),
   midi.NoteOnEvent(tick=0, channel=0, data=[71, 45]),
   midi.NoteOnEvent(tick=120, channel=0, data=[71, 0]),
   midi.NoteOnEvent(tick=0, channel=0, data=[73, 46]),
   midi.NoteOnEvent(tick=120, channel=0, data=[73, 0]),
   midi.NoteOnEvent(tick=120, channel=0, data=[73, 43]),
   midi.NoteOnEvent(tick=80, channel=0, data=[75, 43]),
   midi.NoteOnEvent(tick=20, channel=0, data=[73, 0]),
   midi.NoteOnEvent(tick=60, channel=0, data=[73, 43]),
   midi.NoteOnEvent(tick=20, channel=0, data=[75, 0]),
   midi.NoteOnEvent(tick=60, channel=0, data=[71, 46]),
   midi.NoteOnEvent(tick=20, channel=0, data=[73, 0]),
   midi.NoteOnEvent(tick=100, channel=0, data=[71, 0]),
   midi.NoteOnEvent(tick=0, channel=0, data=[76, 42]),
   midi.NoteOnEvent(tick=120, channel=0, data=[76, 0]),
   midi.NoteOnEvent(tick=0, channel=0, data=[73, 44]),
   midi.NoteOnEvent(tick=120, channel=0, data=[73, 0]),
   midi.NoteOnEvent(tick=0, channel=0, data=[75, 43]),
   midi.NoteOnEvent(tick=120, channel=0, data=[75, 0]),
   midi.NoteOnEvent(tick=0, channel=0, data=[71, 43]),
   midi.NoteOnEvent(tick=480, channel=0, data=[71, 0]),
   midi.NoteOnEvent(tick=0, channel=0, data=[61, 53]),
   midi.NoteOnEvent(tick=0, channel=0, data=[63, 53]),
   midi.NoteOnEvent(tick=480, channel=0, data=[61, 0]),
   midi.NoteOnEvent(tick=0, channel=0, data=[60, 53]),
   midi.NoteOnEvent(tick=480, channel=0, data=[60, 0]),
   midi.NoteOnEvent(tick=0, channel=0, data=[63, 0]),
   midi.NoteOnEvent(tick=0, channel=0, data=[63, 57]),
   midi.NoteOnEvent(tick=0, channel=0, data=[61, 57]),
   midi.NoteOnEvent(tick=480, channel=0, data=[61, 0]),
   midi.NoteOnEvent(tick=0, channel=0, data=[60, 53]),
   midi.NoteOnEvent(tick=230, channel=0, data=[63, 0]),
   midi.NoteOnEvent(tick=10, channel=0, data=[60, 0]),
   midi.NoteOnEvent(tick=0, channel=0, data=[87, 48]),
   midi.NoteOnEvent(tick=120, channel=0, data=[87, 0]),
   midi.NoteOnEvent(tick=0, channel=0, data=[88, 45]),
   midi.NoteOnEvent(tick=120, channel=0, data=[88, 0]),
   midi.NoteOnEvent(tick=0, channel=0, data=[90, 48]),
   midi.NoteOnEvent(tick=120, channel=0, data=[90, 0]),
   midi.NoteOnEvent(tick=0, channel=0, data=[92, 45]),
   midi.NoteOnEvent(tick=120, channel=0, data=[92, 0]),
   midi.NoteOnEvent(tick=0, channel=0, data=[90, 45]),
   midi.NoteOnEvent(tick=120, channel=0, data=[90, 0]),
   midi.NoteOnEvent(tick=0, channel=0, data=[87, 45]),
   midi.NoteOnEvent(tick=120, channel=0, data=[87, 0]),
   midi.NoteOnEvent(tick=0, channel=0, data=[84, 48]),
   midi.NoteOnEvent(tick=120, channel=0, data=[84, 0]),
   midi.NoteOnEvent(tick=0, channel=0, data=[88, 45]),
   midi.NoteOnEvent(tick=120, channel=0, data=[88, 0]),
   midi.NoteOnEvent(tick=0, channel=0, data=[87, 45]),
   midi.NoteOnEvent(tick=120, channel=0, data=[87, 0]),
   midi.NoteOnEvent(tick=0, channel=0, data=[81, 45]),
   midi.NoteOnEvent(tick=120, channel=0, data=[81, 0]),
   midi.NoteOnEvent(tick=0, channel=0, data=[80, 55]),
   midi.NoteOnEvent(tick=240, channel=0, data=[80, 0]),
   midi.NoteOnEvent(tick=240, channel=0, data=[63, 53]),
   midi.NoteOnEvent(tick=0, channel=0, data=[60, 53]),
   midi.NoteOnEvent(tick=480, channel=0, data=[60, 0]),
   midi.NoteOnEvent(tick=0, channel=0, data=[63, 0]),
   midi.NoteOnEvent(tick=0, channel=0, data=[63, 57]),
   midi.NoteOnEvent(tick=0, channel=0, data=[61, 57]),
   midi.NoteOnEvent(tick=480, channel=0, data=[61, 0]),
   midi.NoteOnEvent(tick=0, channel=0, data=[60, 53]),
   midi.NoteOnEvent(tick=230, channel=0, data=[63, 0]),
   midi.NoteOnEvent(tick=10, channel=0, data=[60, 0]),
   midi.NoteOnEvent(tick=0, channel=0, data=[87, 62]),
   midi.NoteOnEvent(tick=120, channel=0, data=[87, 0]),
   midi.NoteOnEvent(tick=0, channel=0, data=[88, 58]),
   midi.NoteOnEvent(tick=120, channel=0, data=[88, 0]),
   midi.NoteOnEvent(tick=0, channel=0, data=[90, 62]),
   midi.NoteOnEvent(tick=120, channel=0, data=[90, 0]),
   midi.NoteOnEvent(tick=0, channel=0, data=[92, 58]),
   midi.NoteOnEvent(tick=120, channel=0, data=[92, 0]),
   midi.NoteOnEvent(tick=0, channel=0, data=[90, 58]),
   midi.NoteOnEvent(tick=120, channel=0, data=[90, 0]),
   midi.NoteOnEvent(tick=0, channel=0, data=[87, 58]),
   midi.NoteOnEvent(tick=120, channel=0, data=[87, 0]),
   midi.NoteOnEvent(tick=0, channel=0, data=[84, 66]),
   midi.NoteOnEvent(tick=120, channel=0, data=[84, 0]),
   midi.NoteOnEvent(tick=0, channel=0, data=[88, 63]),
   midi.NoteOnEvent(tick=120, channel=0, data=[88, 0]),
   midi.NoteOnEvent(tick=0, channel=0, data=[87, 61]),
   midi.NoteOnEvent(tick=120, channel=0, data=[87, 0]),
   midi.NoteOnEvent(tick=0, channel=0, data=[81, 61]),
   midi.NoteOnEvent(tick=120, channel=0, data=[81, 0]),
   midi.NoteOnEvent(tick=0, channel=0, data=[80, 66]),
   midi.NoteOnEvent(tick=240, channel=0, data=[80, 0]),
   midi.NoteOnEvent(tick=0, channel=0, data=[78, 68]),
   midi.NoteOnEvent(tick=120, channel=0, data=[78, 0]),
   midi.NoteOnEvent(tick=0, channel=0, data=[80, 63]),
   midi.NoteOnEvent(tick=120, channel=0, data=[80, 0]),
   midi.NoteOnEvent(tick=0, channel=0, data=[81, 68]),
   midi.NoteOnEvent(tick=120, channel=0, data=[81, 0]),
   midi.NoteOnEvent(tick=0, channel=0, data=[85, 63]),
   midi.NoteOnEvent(tick=120, channel=0, data=[85, 0]),
   midi.NoteOnEvent(tick=0, channel=0, data=[83, 63]),
   midi.NoteOnEvent(tick=120, channel=0, data=[83, 0]),
   midi.NoteOnEvent(tick=0, channel=0, data=[80, 63]),
   midi.NoteOnEvent(tick=120, channel=0, data=[80, 0]),
   midi.NoteOnEvent(tick=0, channel=0, data=[78, 68]),
   midi.NoteOnEvent(tick=120, channel=0, data=[78, 0]),
   midi.NoteOnEvent(tick=0, channel=0, data=[81, 63]),
   midi.NoteOnEvent(tick=120, channel=0, data=[81, 0]),
   midi.NoteOnEvent(tick=0, channel=0, data=[80, 63]),
   midi.NoteOnEvent(tick=120, channel=0, data=[80, 0]),
   midi.NoteOnEvent(tick=0, channel=0, data=[76, 63]),
   midi.NoteOnEvent(tick=120, channel=0, data=[76, 0]),
   midi.NoteOnEvent(tick=0, channel=0, data=[75, 68]),
   midi.NoteOnEvent(tick=120, channel=0, data=[75, 0]),
   midi.NoteOnEvent(tick=0, channel=0, data=[76, 66]),
   midi.NoteOnEvent(tick=120, channel=0, data=[76, 0]),
   midi.NoteOnEvent(tick=0, channel=0, data=[78, 66]),
   midi.NoteOnEvent(tick=120, channel=0, data=[78, 0]),
   midi.NoteOnEvent(tick=0, channel=0, data=[80, 66]),
   midi.NoteOnEvent(tick=120, channel=0, data=[80, 0]),
   midi.NoteOnEvent(tick=0, channel=0, data=[78, 72]),
   midi.NoteOnEvent(tick=120, channel=0, data=[78, 0]),
   midi.NoteOnEvent(tick=0, channel=0, data=[75, 69]),
   midi.NoteOnEvent(tick=120, channel=0, data=[75, 0]),
   midi.NoteOnEvent(tick=0, channel=0, data=[76, 70]),
   midi.NoteOnEvent(tick=120, channel=0, data=[76, 0]),
   midi.NoteOnEvent(tick=0, channel=0, data=[73, 68]),
   midi.NoteOnEvent(tick=120, channel=0, data=[73, 0]),
   midi.NoteOnEvent(tick=0, channel=0, data=[75, 68]),
   midi.NoteOnEvent(tick=120, channel=0, data=[75, 0]),
   midi.NoteOnEvent(tick=0, channel=0, data=[71, 65]),
   midi.NoteOnEvent(tick=120, channel=0, data=[71, 0]),
   midi.NoteOnEvent(tick=0, channel=0, data=[73, 68]),
   midi.NoteOnEvent(tick=120, channel=0, data=[73, 0]),
   midi.NoteOnEvent(tick=0, channel=0, data=[69, 64]),
   midi.NoteOnEvent(tick=120, channel=0, data=[69, 0]),
   midi.NoteOnEvent(tick=0, channel=0, data=[68, 68]),
   midi.NoteOnEvent(tick=240, channel=0, data=[68, 0]),
   midi.NoteOnEvent(tick=0, channel=0, data=[61, 68]),
   midi.NoteOnEvent(tick=0, channel=0, data=[66, 68]),
   midi.NoteOnEvent(tick=80, channel=0, data=[66, 0]),
   midi.NoteOnEvent(tick=0, channel=0, data=[68, 58]),
   midi.NoteOnEvent(tick=80, channel=0, data=[68, 0]),
   midi.NoteOnEvent(tick=0, channel=0, data=[69, 57]),
   midi.NoteOnEvent(tick=80, channel=0, data=[69, 0]),
   midi.NoteOnEvent(tick=0, channel=0, data=[61, 0]),
   midi.NoteOnEvent(tick=0, channel=0, data=[63, 63]),
   midi.NoteOnEvent(tick=0, channel=0, data=[68, 63]),
   midi.NoteOnEvent(tick=80, channel=0, data=[68, 0]),
   midi.NoteOnEvent(tick=0, channel=0, data=[69, 54]),
   midi.NoteOnEvent(tick=80, channel=0, data=[69, 0]),
   midi.NoteOnEvent(tick=0, channel=0, data=[68, 55]),
   midi.NoteOnEvent(tick=80, channel=0, data=[68, 0]),
   midi.NoteOnEvent(tick=0, channel=0, data=[63, 0]),
   midi.NoteOnEvent(tick=0, channel=0, data=[61, 68]),
   midi.NoteOnEvent(tick=0, channel=0, data=[66, 68]),
   midi.NoteOnEvent(tick=80, channel=0, data=[66, 0]),
   midi.NoteOnEvent(tick=0, channel=0, data=[68, 56]),
   midi.NoteOnEvent(tick=80, channel=0, data=[68, 0]),
   midi.NoteOnEvent(tick=0, channel=0, data=[69, 56]),
   midi.NoteOnEvent(tick=80, channel=0, data=[69, 0]),
   midi.NoteOnEvent(tick=0, channel=0, data=[61, 0]),
   midi.NoteOnEvent(tick=0, channel=0, data=[63, 59]),
   midi.NoteOnEvent(tick=0, channel=0, data=[68, 59]),
   midi.NoteOnEvent(tick=80, channel=0, data=[68, 0]),
   midi.NoteOnEvent(tick=0, channel=0, data=[69, 55]),
   midi.NoteOnEvent(tick=80, channel=0, data=[69, 0]),
   midi.NoteOnEvent(tick=0, channel=0, data=[68, 55]),
   midi.NoteOnEvent(tick=80, channel=0, data=[68, 0]),
   midi.NoteOnEvent(tick=0, channel=0, data=[63, 0]),
   midi.NoteOnEvent(tick=0, channel=0, data=[61, 65]),
   midi.NoteOnEvent(tick=0, channel=0, data=[66, 65]),
   midi.NoteOnEvent(tick=80, channel=0, data=[66, 0]),
   midi.NoteOnEvent(tick=0, channel=0, data=[68, 55]),
   midi.NoteOnEvent(tick=80, channel=0, data=[68, 0]),
   midi.NoteOnEvent(tick=0, channel=0, data=[69, 55]),
   midi.NoteOnEvent(tick=80, channel=0, data=[69, 0]),
   midi.NoteOnEvent(tick=0, channel=0, data=[61, 0]),
   midi.NoteOnEvent(tick=0, channel=0, data=[63, 68]),
   midi.NoteOnEvent(tick=0, channel=0, data=[68, 68]),
   midi.NoteOnEvent(tick=240, channel=0, data=[68, 0]),
   midi.NoteOnEvent(tick=0, channel=0, data=[63, 0]),
   midi.NoteOnEvent(tick=1440, channel=0, data=[68, 55]),
   midi.NoteOnEvent(tick=80, channel=0, data=[65, 55]),
   midi.NoteOnEvent(tick=20, channel=0, data=[68, 0]),
   midi.NoteOnEvent(tick=60, channel=0, data=[61, 55]),
   midi.NoteOnEvent(tick=20, channel=0, data=[65, 0]),
   midi.NoteOnEvent(tick=60, channel=0, data=[56, 62]),
   midi.NoteOnEvent(tick=20, channel=0, data=[61, 0]),
   midi.NoteOnEvent(tick=100, channel=0, data=[56, 0]),
   midi.NoteOnEvent(tick=120, channel=0, data=[56, 46]),
   midi.NoteOnEvent(tick=0, channel=0, data=[61, 46]),
   midi.NoteOnEvent(tick=0, channel=0, data=[65, 55]),
   midi.NoteOnEvent(tick=0, channel=0, data=[68, 57]),
   midi.NoteOnEvent(tick=480, channel=0, data=[68, 0]),
   midi.NoteOnEvent(tick=0, channel=0, data=[56, 0]),
   midi.NoteOnEvent(tick=0, channel=0, data=[61, 0]),
   midi.NoteOnEvent(tick=0, channel=0, data=[65, 0]),
   midi.NoteOnEvent(tick=0, channel=0, data=[56, 51]),
   midi.NoteOnEvent(tick=0, channel=0, data=[59, 51]),
   midi.NoteOnEvent(tick=0, channel=0, data=[65, 61]),
   midi.NoteOnEvent(tick=0, channel=0, data=[68, 61]),
   midi.NoteOnEvent(tick=240, channel=0, data=[68, 0]),
   midi.NoteOnEvent(tick=0, channel=0, data=[56, 0]),
   midi.NoteOnEvent(tick=0, channel=0, data=[59, 0]),
   midi.NoteOnEvent(tick=0, channel=0, data=[65, 0]),
   midi.NoteOnEvent(tick=240, channel=0, data=[68, 55]),
   midi.NoteOnEvent(tick=80, channel=0, data=[66, 55]),
   midi.NoteOnEvent(tick=20, channel=0, data=[68, 0]),
   midi.NoteOnEvent(tick=60, channel=0, data=[60, 55]),
   midi.NoteOnEvent(tick=20, channel=0, data=[66, 0]),
   midi.NoteOnEvent(tick=60, channel=0, data=[56, 62]),
   midi.NoteOnEvent(tick=20, channel=0, data=[60, 0]),
   midi.NoteOnEvent(tick=100, channel=0, data=[56, 0]),
   midi.NoteOnEvent(tick=120, channel=0, data=[56, 49]),
   midi.NoteOnEvent(tick=0, channel=0, data=[60, 49]),
   midi.NoteOnEvent(tick=0, channel=0, data=[66, 58]),
   midi.NoteOnEvent(tick=0, channel=0, data=[68, 60]),
   midi.NoteOnEvent(tick=480, channel=0, data=[68, 0]),
   midi.NoteOnEvent(tick=0, channel=0, data=[56, 0]),
   midi.NoteOnEvent(tick=0, channel=0, data=[60, 0]),
   midi.NoteOnEvent(tick=0, channel=0, data=[66, 0]),
   midi.NoteOnEvent(tick=0, channel=0, data=[56, 45]),
   midi.NoteOnEvent(tick=0, channel=0, data=[64, 54]),
   midi.NoteOnEvent(tick=0, channel=0, data=[68, 54]),
   midi.NoteOnEvent(tick=240, channel=0, data=[68, 0]),
   midi.NoteOnEvent(tick=0, channel=0, data=[64, 0]),
   midi.NoteOnEvent(tick=0, channel=0, data=[56, 0]),
   midi.NoteOnEvent(tick=240, channel=0, data=[68, 30]),
   midi.NoteOnEvent(tick=80, channel=0, data=[65, 30]),
   midi.NoteOnEvent(tick=20, channel=0, data=[68, 0]),
   midi.NoteOnEvent(tick=60, channel=0, data=[61, 30]),
   midi.NoteOnEvent(tick=20, channel=0, data=[65, 0]),
   midi.NoteOnEvent(tick=60, channel=0, data=[56, 34]),
   midi.NoteOnEvent(tick=20, channel=0, data=[61, 0]),
   midi.NoteOnEvent(tick=100, channel=0, data=[56, 0]),
   midi.NoteOnEvent(tick=120, channel=0, data=[56, 30]),
   midi.NoteOnEvent(tick=0, channel=0, data=[61, 30]),
   midi.NoteOnEvent(tick=0, channel=0, data=[65, 30]),
   midi.NoteOnEvent(tick=0, channel=0, data=[68, 32]),
   midi.NoteOnEvent(tick=480, channel=0, data=[68, 0]),
   midi.NoteOnEvent(tick=0, channel=0, data=[56, 0]),
   midi.NoteOnEvent(tick=0, channel=0, data=[61, 0]),
   midi.NoteOnEvent(tick=0, channel=0, data=[65, 0]),
   midi.NoteOnEvent(tick=0, channel=0, data=[56, 29]),
   midi.NoteOnEvent(tick=0, channel=0, data=[59, 29]),
   midi.NoteOnEvent(tick=0, channel=0, data=[65, 29]),
   midi.NoteOnEvent(tick=0, channel=0, data=[68, 29]),
   midi.NoteOnEvent(tick=240, channel=0, data=[68, 0]),
   midi.NoteOnEvent(tick=0, channel=0, data=[56, 0]),
   midi.NoteOnEvent(tick=0, channel=0, data=[59, 0]),
   midi.NoteOnEvent(tick=0, channel=0, data=[65, 0]),
   midi.NoteOnEvent(tick=240, channel=0, data=[68, 30]),
   midi.NoteOnEvent(tick=80, channel=0, data=[66, 30]),
   midi.NoteOnEvent(tick=20, channel=0, data=[68, 0]),
   midi.NoteOnEvent(tick=60, channel=0, data=[60, 30]),
   midi.NoteOnEvent(tick=20, channel=0, data=[66, 0]),
   midi.NoteOnEvent(tick=60, channel=0, data=[56, 34]),
   midi.NoteOnEvent(tick=20, channel=0, data=[60, 0]),
   midi.NoteOnEvent(tick=100, channel=0, data=[56, 0]),
   midi.NoteOnEvent(tick=120, channel=0, data=[56, 35]),
   midi.NoteOnEvent(tick=0, channel=0, data=[60, 35]),
   midi.NoteOnEvent(tick=0, channel=0, data=[66, 35]),
   midi.NoteOnEvent(tick=0, channel=0, data=[68, 37]),
   midi.NoteOnEvent(tick=480, channel=0, data=[68, 0]),
   midi.NoteOnEvent(tick=0, channel=0, data=[56, 0]),
   midi.NoteOnEvent(tick=0, channel=0, data=[60, 0]),
   midi.NoteOnEvent(tick=0, channel=0, data=[66, 0]),
   midi.NoteOnEvent(tick=0, channel=0, data=[56, 35]),
   midi.NoteOnEvent(tick=0, channel=0, data=[64, 35]),
   midi.NoteOnEvent(tick=0, channel=0, data=[68, 35]),
   midi.NoteOnEvent(tick=210, channel=0, data=[68, 0]),
   midi.NoteOnEvent(tick=0, channel=0, data=[64, 0]),
   midi.NoteOnEvent(tick=0, channel=0, data=[56, 0]),
   midi.NoteOnEvent(tick=30, channel=0, data=[77, 45]),
   midi.NoteOnEvent(tick=0, channel=0, data=[65, 45]),
   midi.NoteOnEvent(tick=240, channel=0, data=[65, 0]),
   midi.NoteOnEvent(tick=0, channel=0, data=[77, 0]),
   midi.NoteOnEvent(tick=240, channel=0, data=[65, 45]),
   midi.NoteOnEvent(tick=0, channel=0, data=[77, 47]),
   midi.NoteOnEvent(tick=720, channel=0, data=[77, 0]),
   midi.NoteOnEvent(tick=0, channel=0, data=[65, 0]),
   midi.NoteOnEvent(tick=0, channel=0, data=[65, 41]),
   midi.NoteOnEvent(tick=0, channel=0, data=[77, 41]),
   midi.NoteOnEvent(tick=240, channel=0, data=[77, 0]),
   midi.NoteOnEvent(tick=0, channel=0, data=[65, 0]),
   midi.NoteOnEvent(tick=0, channel=0, data=[65, 46]),
   midi.NoteOnEvent(tick=0, channel=0, data=[77, 46]),
   midi.NoteOnEvent(tick=360, channel=0, data=[77, 0]),
   midi.NoteOnEvent(tick=0, channel=0, data=[65, 0]),
   midi.NoteOnEvent(tick=0, channel=0, data=[68, 43]),
   midi.NoteOnEvent(tick=0, channel=0, data=[80, 43]),
   midi.NoteOnEvent(tick=120, channel=0, data=[80, 0]),
   midi.NoteOnEvent(tick=0, channel=0, data=[68, 0]),
   midi.NoteOnEvent(tick=0, channel=0, data=[68, 43]),
   midi.NoteOnEvent(tick=0, channel=0, data=[80, 43]),
   midi.NoteOnEvent(tick=960, channel=0, data=[80, 0]),
   midi.NoteOnEvent(tick=0, channel=0, data=[68, 0]),
   midi.NoteOnEvent(tick=240, channel=0, data=[78, 55]),
   midi.NoteOnEvent(tick=0, channel=0, data=[66, 55]),
   midi.NoteOnEvent(tick=240, channel=0, data=[68, 58]),
   midi.NoteOnEvent(tick=0, channel=0, data=[80, 58]),
   midi.NoteOnEvent(tick=20, channel=0, data=[66, 0]),
   midi.NoteOnEvent(tick=0, channel=0, data=[78, 0]),
   midi.NoteOnEvent(tick=220, channel=0, data=[70, 61]),
   midi.NoteOnEvent(tick=0, channel=0, data=[82, 61]),
   midi.NoteOnEvent(tick=20, channel=0, data=[68, 0]),
   midi.NoteOnEvent(tick=0, channel=0, data=[80, 0]),
   midi.NoteOnEvent(tick=220, channel=0, data=[73, 64]),
   midi.NoteOnEvent(tick=0, channel=0, data=[85, 64]),
   midi.NoteOnEvent(tick=20, channel=0, data=[70, 0]),
   midi.NoteOnEvent(tick=0, channel=0, data=[82, 0]),
   midi.NoteOnEvent(tick=220, channel=0, data=[72, 62]),
   midi.NoteOnEvent(tick=0, channel=0, data=[84, 62]),
   midi.NoteOnEvent(tick=20, channel=0, data=[73, 0]),
   midi.NoteOnEvent(tick=0, channel=0, data=[85, 0]),
   midi.NoteOnEvent(tick=220, channel=0, data=[75, 71]),
   midi.NoteOnEvent(tick=0, channel=0, data=[87, 71]),
   midi.NoteOnEvent(tick=20, channel=0, data=[72, 0]),
   midi.NoteOnEvent(tick=0, channel=0, data=[84, 0]),
   midi.NoteOnEvent(tick=220, channel=0, data=[70, 56]),
   midi.NoteOnEvent(tick=0, channel=0, data=[82, 56]),
   midi.NoteOnEvent(tick=20, channel=0, data=[75, 0]),
   midi.NoteOnEvent(tick=0, channel=0, data=[87, 0]),
   midi.NoteOnEvent(tick=220, channel=0, data=[68, 55]),
   midi.NoteOnEvent(tick=0, channel=0, data=[80, 55]),
   midi.NoteOnEvent(tick=20, channel=0, data=[70, 0]),
   midi.NoteOnEvent(tick=0, channel=0, data=[82, 0]),
   midi.NoteOnEvent(tick=940, channel=0, data=[68, 0]),
   midi.NoteOnEvent(tick=0, channel=0, data=[80, 0]),
   midi.NoteOnEvent(tick=0, channel=0, data=[77, 45]),
   midi.NoteOnEvent(tick=0, channel=0, data=[65, 45]),
   midi.NoteOnEvent(tick=240, channel=0, data=[65, 0]),
   midi.NoteOnEvent(tick=0, channel=0, data=[77, 0]),
   midi.NoteOnEvent(tick=240, channel=0, data=[65, 45]),
   midi.NoteOnEvent(tick=0, channel=0, data=[77, 45]),
   midi.NoteOnEvent(tick=720, channel=0, data=[77, 0]),
   midi.NoteOnEvent(tick=0, channel=0, data=[65, 0]),
   midi.NoteOnEvent(tick=0, channel=0, data=[65, 41]),
   midi.NoteOnEvent(tick=0, channel=0, data=[77, 41]),
   midi.NoteOnEvent(tick=240, channel=0, data=[77, 0]),
   midi.NoteOnEvent(tick=0, channel=0, data=[65, 0]),
   midi.NoteOnEvent(tick=0, channel=0, data=[65, 46]),
   midi.NoteOnEvent(tick=0, channel=0, data=[77, 46]),
   midi.NoteOnEvent(tick=360, channel=0, data=[77, 0]),
   midi.NoteOnEvent(tick=0, channel=0, data=[65, 0]),
   midi.NoteOnEvent(tick=0, channel=0, data=[68, 43]),
   midi.NoteOnEvent(tick=0, channel=0, data=[80, 43]),
   midi.NoteOnEvent(tick=120, channel=0, data=[80, 0]),
   midi.NoteOnEvent(tick=0, channel=0, data=[68, 0]),
   midi.NoteOnEvent(tick=0, channel=0, data=[68, 43]),
   midi.NoteOnEvent(tick=0, channel=0, data=[80, 43]),
   midi.NoteOnEvent(tick=960, channel=0, data=[80, 0]),
   midi.NoteOnEvent(tick=0, channel=0, data=[68, 0]),
   midi.NoteOnEvent(tick=240, channel=0, data=[78, 55]),
   midi.NoteOnEvent(tick=0, channel=0, data=[66, 55]),
   midi.NoteOnEvent(tick=240, channel=0, data=[68, 58]),
   midi.NoteOnEvent(tick=0, channel=0, data=[80, 58]),
   midi.NoteOnEvent(tick=20, channel=0, data=[66, 0]),
   midi.NoteOnEvent(tick=0, channel=0, data=[78, 0]),
   midi.NoteOnEvent(tick=220, channel=0, data=[70, 61]),
   midi.NoteOnEvent(tick=0, channel=0, data=[82, 61]),
   midi.NoteOnEvent(tick=20, channel=0, data=[68, 0]),
   midi.NoteOnEvent(tick=0, channel=0, data=[80, 0]),
   midi.NoteOnEvent(tick=220, channel=0, data=[73, 64]),
   midi.NoteOnEvent(tick=0, channel=0, data=[85, 64]),
   midi.NoteOnEvent(tick=20, channel=0, data=[70, 0]),
   midi.NoteOnEvent(tick=0, channel=0, data=[82, 0]),
   midi.NoteOnEvent(tick=220, channel=0, data=[72, 62]),
   midi.NoteOnEvent(tick=0, channel=0, data=[84, 62]),
   midi.NoteOnEvent(tick=20, channel=0, data=[73, 0]),
   midi.NoteOnEvent(tick=0, channel=0, data=[85, 0]),
   midi.NoteOnEvent(tick=220, channel=0, data=[78, 65]),
   midi.NoteOnEvent(tick=0, channel=0, data=[90, 69]),
   midi.NoteOnEvent(tick=20, channel=0, data=[72, 0]),
   midi.NoteOnEvent(tick=0, channel=0, data=[84, 0]),
   midi.NoteOnEvent(tick=220, channel=0, data=[70, 56]),
   midi.NoteOnEvent(tick=0, channel=0, data=[82, 56]),
   midi.NoteOnEvent(tick=20, channel=0, data=[78, 0]),
   midi.NoteOnEvent(tick=0, channel=0, data=[90, 0]),
   midi.NoteOnEvent(tick=220, channel=0, data=[68, 55]),
   midi.NoteOnEvent(tick=0, channel=0, data=[80, 55]),
   midi.NoteOnEvent(tick=20, channel=0, data=[70, 0]),
   midi.NoteOnEvent(tick=0, channel=0, data=[82, 0]),
   midi.NoteOnEvent(tick=940, channel=0, data=[68, 0]),
   midi.NoteOnEvent(tick=0, channel=0, data=[80, 0]),
   midi.NoteOnEvent(tick=0, channel=0, data=[85, 58]),
   midi.NoteOnEvent(tick=0, channel=0, data=[73, 58]),
   midi.NoteOnEvent(tick=240, channel=0, data=[73, 0]),
   midi.NoteOnEvent(tick=0, channel=0, data=[85, 0]),
   midi.NoteOnEvent(tick=240, channel=0, data=[73, 58]),
   midi.NoteOnEvent(tick=0, channel=0, data=[85, 58]),
   midi.NoteOnEvent(tick=720, channel=0, data=[85, 0]),
   midi.NoteOnEvent(tick=0, channel=0, data=[73, 0]),
   midi.NoteOnEvent(tick=0, channel=0, data=[72, 53]),
   midi.NoteOnEvent(tick=0, channel=0, data=[84, 53]),
   midi.NoteOnEvent(tick=240, channel=0, data=[84, 0]),
   midi.NoteOnEvent(tick=0, channel=0, data=[72, 0]),
   midi.NoteOnEvent(tick=0, channel=0, data=[84, 58]),
   midi.NoteOnEvent(tick=0, channel=0, data=[72, 58]),
   midi.NoteOnEvent(tick=480, channel=0, data=[72, 0]),
   midi.NoteOnEvent(tick=0, channel=0, data=[84, 0]),
   midi.NoteOnEvent(tick=0, channel=0, data=[70, 55]),
   midi.NoteOnEvent(tick=0, channel=0, data=[82, 55]),
   midi.NoteOnEvent(tick=240, channel=0, data=[82, 0]),
   midi.NoteOnEvent(tick=0, channel=0, data=[70, 0]),
   midi.NoteOnEvent(tick=0, channel=0, data=[65, 55]),
   midi.NoteOnEvent(tick=0, channel=0, data=[77, 55]),
   midi.NoteOnEvent(tick=240, channel=0, data=[77, 0]),
   midi.NoteOnEvent(tick=0, channel=0, data=[65, 0]),
   midi.NoteOnEvent(tick=0, channel=0, data=[68, 58]),
   midi.NoteOnEvent(tick=0, channel=0, data=[80, 58]),
   midi.NoteOnEvent(tick=240, channel=0, data=[80, 0]),
   midi.NoteOnEvent(tick=0, channel=0, data=[68, 0]),
   midi.NoteOnEvent(tick=0, channel=0, data=[70, 53]),
   midi.NoteOnEvent(tick=0, channel=0, data=[82, 53]),
   midi.NoteOnEvent(tick=240, channel=0, data=[82, 0]),
   midi.NoteOnEvent(tick=0, channel=0, data=[70, 0]),
   midi.NoteOnEvent(tick=0, channel=0, data=[80, 58]),
   midi.NoteOnEvent(tick=0, channel=0, data=[68, 58]),
   midi.NoteOnEvent(tick=480, channel=0, data=[68, 0]),
   midi.NoteOnEvent(tick=0, channel=0, data=[80, 0]),
   midi.NoteOnEvent(tick=0, channel=0, data=[66, 58]),
   midi.NoteOnEvent(tick=0, channel=0, data=[78, 58]),
   midi.NoteOnEvent(tick=240, channel=0, data=[78, 0]),
   midi.NoteOnEvent(tick=0, channel=0, data=[66, 0]),
   midi.NoteOnEvent(tick=0, channel=0, data=[71, 57]),
   midi.NoteOnEvent(tick=0, channel=0, data=[74, 57]),
   midi.NoteOnEvent(tick=180, channel=0, data=[74, 0]),
   midi.NoteOnEvent(tick=0, channel=0, data=[71, 0]),
   midi.NoteOnEvent(tick=0, channel=0, data=[71, 53]),
   midi.NoteOnEvent(tick=60, channel=0, data=[78, 58]),
   midi.NoteOnEvent(tick=240, channel=0, data=[78, 0]),
   midi.NoteOnEvent(tick=0, channel=0, data=[71, 0]),
   midi.NoteOnEvent(tick=0, channel=0, data=[71, 54]),
   midi.NoteOnEvent(tick=0, channel=0, data=[77, 54]),
   midi.NoteOnEvent(tick=180, channel=0, data=[77, 0]),
   midi.NoteOnEvent(tick=0, channel=0, data=[71, 0]),
   midi.NoteOnEvent(tick=0, channel=0, data=[66, 41]),
   midi.NoteOnEvent(tick=60, channel=0, data=[77, 56]),
   midi.NoteOnEvent(tick=480, channel=0, data=[77, 0]),
   midi.NoteOnEvent(tick=0, channel=0, data=[75, 56]),
   midi.NoteOnEvent(tick=960, channel=0, data=[75, 0]),
   midi.NoteOnEvent(tick=0, channel=0, data=[66, 0]),
   midi.NoteOnEvent(tick=0, channel=0, data=[67, 47]),
   midi.NoteOnEvent(tick=0, channel=0, data=[65, 47]),
   midi.NoteOnEvent(tick=0, channel=0, data=[73, 56]),
   midi.NoteOnEvent(tick=240, channel=0, data=[73, 0]),
   midi.NoteOnEvent(tick=0, channel=0, data=[65, 0]),
   midi.NoteOnEvent(tick=0, channel=0, data=[67, 0]),
   midi.NoteOnEvent(tick=0, channel=0, data=[63, 45]),
   midi.NoteOnEvent(tick=0, channel=0, data=[67, 45]),
   midi.NoteOnEvent(tick=0, channel=0, data=[72, 53]),
   midi.NoteOnEvent(tick=240, channel=0, data=[72, 0]),
   midi.NoteOnEvent(tick=0, channel=0, data=[67, 0]),
   midi.NoteOnEvent(tick=0, channel=0, data=[63, 0]),
   midi.NoteOnEvent(tick=0, channel=0, data=[61, 45]),
   midi.NoteOnEvent(tick=0, channel=0, data=[67, 45]),
   midi.NoteOnEvent(tick=0, channel=0, data=[72, 53]),
   midi.NoteOnEvent(tick=480, channel=0, data=[72, 0]),
   midi.NoteOnEvent(tick=0, channel=0, data=[67, 0]),
   midi.NoteOnEvent(tick=0, channel=0, data=[61, 0]),
   midi.NoteOnEvent(tick=0, channel=0, data=[61, 47]),
   midi.NoteOnEvent(tick=0, channel=0, data=[67, 47]),
   midi.NoteOnEvent(tick=0, channel=0, data=[70, 56]),
   midi.NoteOnEvent(tick=180, channel=0, data=[70, 0]),
   midi.NoteOnEvent(tick=0, channel=0, data=[67, 0]),
   midi.NoteOnEvent(tick=0, channel=0, data=[61, 0]),
   midi.NoteOnEvent(tick=0, channel=0, data=[61, 35]),
   midi.NoteOnEvent(tick=30, channel=0, data=[67, 42]),
   midi.NoteOnEvent(tick=30, channel=0, data=[75, 55]),
   midi.NoteOnEvent(tick=240, channel=0, data=[75, 0]),
   midi.NoteOnEvent(tick=0, channel=0, data=[67, 0]),
   midi.NoteOnEvent(tick=0, channel=0, data=[61, 0]),
   midi.NoteOnEvent(tick=0, channel=0, data=[63, 45]),
   midi.NoteOnEvent(tick=0, channel=0, data=[68, 45]),
   midi.NoteOnEvent(tick=240, channel=0, data=[68, 0]),
   midi.NoteOnEvent(tick=0, channel=0, data=[63, 0]),
   midi.NoteOnEvent(tick=0, channel=0, data=[65, 41]),
   midi.NoteOnEvent(tick=0, channel=0, data=[70, 41]),
   midi.NoteOnEvent(tick=240, channel=0, data=[70, 0]),
   midi.NoteOnEvent(tick=0, channel=0, data=[65, 0]),
   midi.NoteOnEvent(tick=0, channel=0, data=[68, 45]),
   midi.NoteOnEvent(tick=0, channel=0, data=[73, 45]),
   midi.NoteOnEvent(tick=240, channel=0, data=[73, 0]),
   midi.NoteOnEvent(tick=0, channel=0, data=[68, 0]),
   midi.NoteOnEvent(tick=0, channel=0, data=[67, 42]),
   midi.NoteOnEvent(tick=0, channel=0, data=[72, 42]),
   midi.NoteOnEvent(tick=180, channel=0, data=[72, 0]),
   midi.NoteOnEvent(tick=0, channel=0, data=[67, 0]),
   midi.NoteOnEvent(tick=0, channel=0, data=[68, 42]),
   midi.NoteOnEvent(tick=60, channel=0, data=[75, 46]),
   midi.NoteOnEvent(tick=240, channel=0, data=[75, 0]),
   midi.NoteOnEvent(tick=0, channel=0, data=[68, 0]),
   midi.NoteOnEvent(tick=0, channel=0, data=[67, 42]),
   midi.NoteOnEvent(tick=0, channel=0, data=[72, 42]),
   midi.NoteOnEvent(tick=180, channel=0, data=[72, 0]),
   midi.NoteOnEvent(tick=0, channel=0, data=[67, 0]),
   midi.NoteOnEvent(tick=0, channel=0, data=[61, 34]),
   midi.NoteOnEvent(tick=30, channel=0, data=[67, 34]),
   midi.NoteOnEvent(tick=30, channel=0, data=[73, 47]),
   midi.NoteOnEvent(tick=480, channel=0, data=[73, 0]),
   midi.NoteOnEvent(tick=0, channel=0, data=[67, 0]),
   midi.NoteOnEvent(tick=0, channel=0, data=[61, 0]),
   midi.NoteOnEvent(tick=0, channel=0, data=[65, 46]),
   midi.NoteOnEvent(tick=0, channel=0, data=[67, 46]),
   midi.NoteOnEvent(tick=0, channel=0, data=[73, 46]),
   midi.NoteOnEvent(tick=480, channel=0, data=[73, 0]),
   midi.NoteOnEvent(tick=0, channel=0, data=[67, 0]),
   midi.NoteOnEvent(tick=0, channel=0, data=[65, 0]),
   midi.NoteOnEvent(tick=0, channel=0, data=[61, 44]),
   midi.NoteOnEvent(tick=0, channel=0, data=[67, 44]),
   midi.NoteOnEvent(tick=0, channel=0, data=[72, 44]),
   midi.NoteOnEvent(tick=480, channel=0, data=[72, 0]),
   midi.NoteOnEvent(tick=0, channel=0, data=[67, 0]),
   midi.NoteOnEvent(tick=0, channel=0, data=[61, 0]),
   midi.NoteOnEvent(tick=0, channel=0, data=[63, 45]),
   midi.NoteOnEvent(tick=0, channel=0, data=[68, 45]),
   midi.NoteOnEvent(tick=240, channel=0, data=[68, 0]),
   midi.NoteOnEvent(tick=0, channel=0, data=[63, 0]),
   midi.NoteOnEvent(tick=0, channel=0, data=[65, 42]),
   midi.NoteOnEvent(tick=0, channel=0, data=[70, 42]),
   midi.NoteOnEvent(tick=240, channel=0, data=[70, 0]),
   midi.NoteOnEvent(tick=0, channel=0, data=[65, 0]),
   midi.NoteOnEvent(tick=0, channel=0, data=[66, 48]),
   midi.NoteOnEvent(tick=0, channel=0, data=[72, 48]),
   midi.NoteOnEvent(tick=240, channel=0, data=[72, 0]),
   midi.NoteOnEvent(tick=0, channel=0, data=[66, 0]),
   midi.NoteOnEvent(tick=0, channel=0, data=[72, 47]),
   midi.NoteOnEvent(tick=0, channel=0, data=[78, 53]),
   midi.NoteOnEvent(tick=240, channel=0, data=[78, 0]),
   midi.NoteOnEvent(tick=0, channel=0, data=[72, 0]),
   midi.NoteOnEvent(tick=0, channel=0, data=[72, 41]),
   midi.NoteOnEvent(tick=0, channel=0, data=[77, 46]),
   midi.NoteOnEvent(tick=240, channel=0, data=[77, 0]),
   midi.NoteOnEvent(tick=0, channel=0, data=[72, 0]),
   midi.NoteOnEvent(tick=0, channel=0, data=[72, 34]),
   midi.NoteOnEvent(tick=0, channel=0, data=[76, 38]),
   midi.NoteOnEvent(tick=240, channel=0, data=[76, 0]),
   midi.NoteOnEvent(tick=0, channel=0, data=[72, 0]),
   midi.NoteOnEvent(tick=0, channel=0, data=[77, 52]),
   midi.NoteOnEvent(tick=0, channel=0, data=[65, 46]),
   midi.NoteOnEvent(tick=240, channel=0, data=[65, 0]),
   midi.NoteOnEvent(tick=0, channel=0, data=[77, 0]),
   midi.NoteOnEvent(tick=240, channel=0, data=[65, 55]),
   midi.NoteOnEvent(tick=0, channel=0, data=[77, 62]),
   midi.NoteOnEvent(tick=720, channel=0, data=[77, 0]),
   midi.NoteOnEvent(tick=0, channel=0, data=[65, 0]),
   midi.NoteOnEvent(tick=0, channel=0, data=[65, 56]),
   midi.NoteOnEvent(tick=0, channel=0, data=[77, 63]),
   midi.NoteOnEvent(tick=240, channel=0, data=[77, 0]),
   midi.NoteOnEvent(tick=0, channel=0, data=[65, 0]),
   midi.NoteOnEvent(tick=0, channel=0, data=[65, 63]),
   midi.NoteOnEvent(tick=0, channel=0, data=[77, 71]),
   midi.NoteOnEvent(tick=360, channel=0, data=[77, 0]),
   midi.NoteOnEvent(tick=0, channel=0, data=[65, 0]),
   midi.NoteOnEvent(tick=0, channel=0, data=[68, 60]),
   midi.NoteOnEvent(tick=0, channel=0, data=[80, 67]),
   midi.NoteOnEvent(tick=120, channel=0, data=[80, 0]),
   midi.NoteOnEvent(tick=0, channel=0, data=[68, 0]),
   midi.NoteOnEvent(tick=0, channel=0, data=[68, 60]),
   midi.NoteOnEvent(tick=0, channel=0, data=[80, 67]),
   midi.NoteOnEvent(tick=960, channel=0, data=[80, 0]),
   midi.NoteOnEvent(tick=0, channel=0, data=[68, 0]),
   midi.NoteOnEvent(tick=240, channel=0, data=[78, 66]),
   midi.NoteOnEvent(tick=0, channel=0, data=[66, 59]),
   midi.NoteOnEvent(tick=240, channel=0, data=[68, 61]),
   midi.NoteOnEvent(tick=0, channel=0, data=[80, 68]),
   midi.NoteOnEvent(tick=20, channel=0, data=[66, 0]),
   midi.NoteOnEvent(tick=0, channel=0, data=[78, 0]),
   midi.NoteOnEvent(tick=220, channel=0, data=[70, 63]),
   midi.NoteOnEvent(tick=0, channel=0, data=[82, 70]),
   midi.NoteOnEvent(tick=20, channel=0, data=[68, 0]),
   midi.NoteOnEvent(tick=0, channel=0, data=[80, 0]),
   midi.NoteOnEvent(tick=220, channel=0, data=[73, 65]),
   midi.NoteOnEvent(tick=0, channel=0, data=[85, 73]),
   midi.NoteOnEvent(tick=20, channel=0, data=[70, 0]),
   midi.NoteOnEvent(tick=0, channel=0, data=[82, 0]),
   midi.NoteOnEvent(tick=220, channel=0, data=[72, 62]),
   midi.NoteOnEvent(tick=0, channel=0, data=[84, 69]),
   midi.NoteOnEvent(tick=20, channel=0, data=[73, 0]),
   midi.NoteOnEvent(tick=0, channel=0, data=[85, 0]),
   midi.NoteOnEvent(tick=220, channel=0, data=[75, 70]),
   midi.NoteOnEvent(tick=0, channel=0, data=[87, 83]),
   midi.NoteOnEvent(tick=20, channel=0, data=[72, 0]),
   midi.NoteOnEvent(tick=0, channel=0, data=[84, 0]),
   midi.NoteOnEvent(tick=220, channel=0, data=[70, 60]),
   midi.NoteOnEvent(tick=0, channel=0, data=[82, 67]),
   midi.NoteOnEvent(tick=20, channel=0, data=[75, 0]),
   midi.NoteOnEvent(tick=0, channel=0, data=[87, 0]),
   midi.NoteOnEvent(tick=220, channel=0, data=[68, 56]),
   midi.NoteOnEvent(tick=0, channel=0, data=[80, 63]),
   midi.NoteOnEvent(tick=20, channel=0, data=[70, 0]),
   midi.NoteOnEvent(tick=0, channel=0, data=[82, 0]),
   midi.NoteOnEvent(tick=940, channel=0, data=[68, 0]),
   midi.NoteOnEvent(tick=0, channel=0, data=[80, 0]),
   midi.NoteOnEvent(tick=0, channel=0, data=[77, 45]),
   midi.NoteOnEvent(tick=0, channel=0, data=[65, 45]),
   midi.NoteOnEvent(tick=240, channel=0, data=[65, 0]),
   midi.NoteOnEvent(tick=0, channel=0, data=[77, 0]),
   midi.NoteOnEvent(tick=240, channel=0, data=[65, 45]),
   midi.NoteOnEvent(tick=0, channel=0, data=[77, 45]),
   midi.NoteOnEvent(tick=720, channel=0, data=[77, 0]),
   midi.NoteOnEvent(tick=0, channel=0, data=[65, 0]),
   midi.NoteOnEvent(tick=0, channel=0, data=[65, 41]),
   midi.NoteOnEvent(tick=0, channel=0, data=[77, 41]),
   midi.NoteOnEvent(tick=240, channel=0, data=[77, 0]),
   midi.NoteOnEvent(tick=0, channel=0, data=[65, 0]),
   midi.NoteOnEvent(tick=0, channel=0, data=[65, 46]),
   midi.NoteOnEvent(tick=0, channel=0, data=[77, 46]),
   midi.NoteOnEvent(tick=360, channel=0, data=[77, 0]),
   midi.NoteOnEvent(tick=0, channel=0, data=[65, 0]),
   midi.NoteOnEvent(tick=0, channel=0, data=[68, 43]),
   midi.NoteOnEvent(tick=0, channel=0, data=[80, 43]),
   midi.NoteOnEvent(tick=120, channel=0, data=[80, 0]),
   midi.NoteOnEvent(tick=0, channel=0, data=[68, 0]),
   midi.NoteOnEvent(tick=0, channel=0, data=[68, 43]),
   midi.NoteOnEvent(tick=0, channel=0, data=[80, 43]),
   midi.NoteOnEvent(tick=960, channel=0, data=[80, 0]),
   midi.NoteOnEvent(tick=0, channel=0, data=[68, 0]),
   midi.NoteOnEvent(tick=240, channel=0, data=[78, 55]),
   midi.NoteOnEvent(tick=0, channel=0, data=[66, 55]),
   midi.NoteOnEvent(tick=240, channel=0, data=[68, 57]),
   midi.NoteOnEvent(tick=0, channel=0, data=[80, 57]),
   midi.NoteOnEvent(tick=20, channel=0, data=[66, 0]),
   midi.NoteOnEvent(tick=0, channel=0, data=[78, 0]),
   midi.NoteOnEvent(tick=220, channel=0, data=[70, 59]),
   midi.NoteOnEvent(tick=0, channel=0, data=[82, 59]),
   midi.NoteOnEvent(tick=20, channel=0, data=[68, 0]),
   midi.NoteOnEvent(tick=0, channel=0, data=[80, 0]),
   midi.NoteOnEvent(tick=220, channel=0, data=[73, 61]),
   midi.NoteOnEvent(tick=0, channel=0, data=[85, 61]),
   midi.NoteOnEvent(tick=20, channel=0, data=[70, 0]),
   midi.NoteOnEvent(tick=0, channel=0, data=[82, 0]),
   midi.NoteOnEvent(tick=220, channel=0, data=[72, 58]),
   midi.NoteOnEvent(tick=0, channel=0, data=[84, 58]),
   midi.NoteOnEvent(tick=20, channel=0, data=[73, 0]),
   midi.NoteOnEvent(tick=0, channel=0, data=[85, 0]),
   midi.NoteOnEvent(tick=220, channel=0, data=[78, 65]),
   midi.NoteOnEvent(tick=0, channel=0, data=[90, 65]),
   midi.NoteOnEvent(tick=20, channel=0, data=[72, 0]),
   midi.NoteOnEvent(tick=0, channel=0, data=[84, 0]),
   midi.NoteOnEvent(tick=220, channel=0, data=[70, 56]),
   midi.NoteOnEvent(tick=0, channel=0, data=[82, 56]),
   midi.NoteOnEvent(tick=20, channel=0, data=[78, 0]),
   midi.NoteOnEvent(tick=0, channel=0, data=[90, 0]),
   midi.NoteOnEvent(tick=220, channel=0, data=[68, 55]),
   midi.NoteOnEvent(tick=0, channel=0, data=[80, 55]),
   midi.NoteOnEvent(tick=20, channel=0, data=[70, 0]),
   midi.NoteOnEvent(tick=0, channel=0, data=[82, 0]),
   midi.NoteOnEvent(tick=460, channel=0, data=[68, 0]),
   midi.NoteOnEvent(tick=0, channel=0, data=[80, 0]),
   midi.NoteOnEvent(tick=0, channel=0, data=[69, 33]),
   midi.NoteOnEvent(tick=0, channel=0, data=[75, 33]),
   midi.NoteOnEvent(tick=0, channel=0, data=[80, 40]),
   midi.NoteOnEvent(tick=240, channel=0, data=[75, 0]),
   midi.NoteOnEvent(tick=0, channel=0, data=[69, 0]),
   midi.NoteOnEvent(tick=0, channel=0, data=[79, 37]),
   midi.NoteOnEvent(tick=20, channel=0, data=[80, 0]),
   midi.NoteOnEvent(tick=220, channel=0, data=[79, 0]),
   midi.NoteOnEvent(tick=0, channel=0, data=[80, 49]),
   midi.NoteOnEvent(tick=0, channel=0, data=[68, 49]),
   midi.NoteOnEvent(tick=240, channel=0, data=[68, 0]),
   midi.NoteOnEvent(tick=0, channel=0, data=[80, 0]),
   midi.NoteOnEvent(tick=240, channel=0, data=[68, 52]),
   midi.NoteOnEvent(tick=0, channel=0, data=[80, 52]),
   midi.NoteOnEvent(tick=720, channel=0, data=[80, 0]),
   midi.NoteOnEvent(tick=0, channel=0, data=[68, 0]),
   midi.NoteOnEvent(tick=0, channel=0, data=[68, 53]),
   midi.NoteOnEvent(tick=0, channel=0, data=[80, 53]),
   midi.NoteOnEvent(tick=240, channel=0, data=[80, 0]),
   midi.NoteOnEvent(tick=0, channel=0, data=[68, 0]),
   midi.NoteOnEvent(tick=0, channel=0, data=[83, 58]),
   midi.NoteOnEvent(tick=0, channel=0, data=[71, 52]),
   midi.NoteOnEvent(tick=240, channel=0, data=[71, 0]),
   midi.NoteOnEvent(tick=0, channel=0, data=[83, 0]),
   midi.NoteOnEvent(tick=0, channel=0, data=[69, 52]),
   midi.NoteOnEvent(tick=0, channel=0, data=[81, 58]),
   midi.NoteOnEvent(tick=240, channel=0, data=[81, 0]),
   midi.NoteOnEvent(tick=0, channel=0, data=[69, 0]),
   midi.NoteOnEvent(tick=0, channel=0, data=[73, 58]),
   midi.NoteOnEvent(tick=0, channel=0, data=[85, 65]),
   midi.NoteOnEvent(tick=240, channel=0, data=[85, 0]),
   midi.NoteOnEvent(tick=0, channel=0, data=[73, 0]),
   midi.NoteOnEvent(tick=0, channel=0, data=[75, 54]),
   midi.NoteOnEvent(tick=0, channel=0, data=[87, 61]),
   midi.NoteOnEvent(tick=240, channel=0, data=[87, 0]),
   midi.NoteOnEvent(tick=0, channel=0, data=[75, 0]),
   midi.NoteOnEvent(tick=0, channel=0, data=[80, 64]),
   midi.NoteOnEvent(tick=0, channel=0, data=[92, 72]),
   midi.NoteOnEvent(tick=240, channel=0, data=[92, 0]),
   midi.NoteOnEvent(tick=0, channel=0, data=[80, 0]),
   midi.NoteOnEvent(tick=0, channel=0, data=[78, 61]),
   midi.NoteOnEvent(tick=0, channel=0, data=[90, 68]),
   midi.NoteOnEvent(tick=240, channel=0, data=[90, 0]),
   midi.NoteOnEvent(tick=0, channel=0, data=[78, 0]),
   midi.NoteOnEvent(tick=0, channel=0, data=[80, 49]),
   midi.NoteOnEvent(tick=0, channel=0, data=[68, 49]),
   midi.NoteOnEvent(tick=240, channel=0, data=[68, 0]),
   midi.NoteOnEvent(tick=0, channel=0, data=[80, 0]),
   midi.NoteOnEvent(tick=240, channel=0, data=[68, 49]),
   midi.NoteOnEvent(tick=0, channel=0, data=[80, 49]),
   midi.NoteOnEvent(tick=720, channel=0, data=[80, 0]),
   midi.NoteOnEvent(tick=0, channel=0, data=[68, 0]),
   midi.NoteOnEvent(tick=0, channel=0, data=[68, 45]),
   midi.NoteOnEvent(tick=0, channel=0, data=[80, 45]),
   midi.NoteOnEvent(tick=240, channel=0, data=[80, 0]),
   midi.NoteOnEvent(tick=0, channel=0, data=[68, 0]),
   midi.NoteOnEvent(tick=0, channel=0, data=[83, 49]),
   midi.NoteOnEvent(tick=0, channel=0, data=[71, 49]),
   midi.NoteOnEvent(tick=240, channel=0, data=[71, 0]),
   midi.NoteOnEvent(tick=0, channel=0, data=[83, 0]),
   midi.NoteOnEvent(tick=0, channel=0, data=[69, 49]),
   midi.NoteOnEvent(tick=0, channel=0, data=[81, 49]),
   midi.NoteOnEvent(tick=240, channel=0, data=[81, 0]),
   midi.NoteOnEvent(tick=0, channel=0, data=[69, 0]),
   midi.NoteOnEvent(tick=0, channel=0, data=[73, 51]),
   midi.NoteOnEvent(tick=0, channel=0, data=[85, 51]),
   midi.NoteOnEvent(tick=240, channel=0, data=[85, 0]),
   midi.NoteOnEvent(tick=0, channel=0, data=[73, 0]),
   midi.NoteOnEvent(tick=0, channel=0, data=[75, 48]),
   midi.NoteOnEvent(tick=0, channel=0, data=[87, 48]),
   midi.NoteOnEvent(tick=180, channel=0, data=[87, 0]),
   midi.NoteOnEvent(tick=0, channel=0, data=[75, 0]),
   midi.NoteOnEvent(tick=0, channel=0, data=[80, 48]),
   midi.NoteOnEvent(tick=60, channel=0, data=[92, 55]),
   midi.NoteOnEvent(tick=240, channel=0, data=[92, 0]),
   midi.NoteOnEvent(tick=0, channel=0, data=[80, 0]),
   midi.NoteOnEvent(tick=0, channel=0, data=[78, 52]),
   midi.NoteOnEvent(tick=0, channel=0, data=[90, 52]),
   midi.NoteOnEvent(tick=240, channel=0, data=[90, 0]),
   midi.NoteOnEvent(tick=0, channel=0, data=[78, 0]),
   midi.NoteOnEvent(tick=0, channel=0, data=[80, 63]),
   midi.NoteOnEvent(tick=0, channel=0, data=[68, 53]),
   midi.NoteOnEvent(tick=480, channel=0, data=[68, 0]),
   midi.NoteOnEvent(tick=0, channel=0, data=[80, 0]),
   midi.NoteOnEvent(tick=0, channel=0, data=[78, 58]),
   midi.NoteOnEvent(tick=0, channel=0, data=[68, 49]),
   midi.NoteOnEvent(tick=0, channel=0, data=[80, 58]),
   midi.NoteOnEvent(tick=480, channel=0, data=[80, 0]),
   midi.NoteOnEvent(tick=0, channel=0, data=[68, 0]),
   midi.NoteOnEvent(tick=0, channel=0, data=[78, 0]),
   midi.NoteOnEvent(tick=0, channel=0, data=[68, 56]),
   midi.NoteOnEvent(tick=0, channel=0, data=[76, 66]),
   midi.NoteOnEvent(tick=0, channel=0, data=[80, 66]),
   midi.NoteOnEvent(tick=480, channel=0, data=[76, 0]),
   midi.NoteOnEvent(tick=0, channel=0, data=[77, 66]),
   midi.NoteOnEvent(tick=240, channel=0, data=[77, 0]),
   midi.NoteOnEvent(tick=0, channel=0, data=[80, 0]),
   midi.NoteOnEvent(tick=0, channel=0, data=[68, 0]),
   midi.NoteOnEvent(tick=0, channel=0, data=[66, 48]),
   midi.NoteOnEvent(tick=0, channel=0, data=[72, 57]),
   midi.NoteOnEvent(tick=0, channel=0, data=[75, 57]),
   midi.NoteOnEvent(tick=240, channel=0, data=[75, 0]),
   midi.NoteOnEvent(tick=0, channel=0, data=[72, 0]),
   midi.NoteOnEvent(tick=0, channel=0, data=[66, 0]),
   midi.NoteOnEvent(tick=0, channel=0, data=[65, 53]),
   midi.NoteOnEvent(tick=0, channel=0, data=[73, 63]),
   midi.NoteOnEvent(tick=240, channel=0, data=[73, 0]),
   midi.NoteOnEvent(tick=0, channel=0, data=[65, 0]),
   midi.NoteOnEvent(tick=0, channel=0, data=[63, 47]),
   midi.NoteOnEvent(tick=0, channel=0, data=[69, 56]),
   midi.NoteOnEvent(tick=0, channel=0, data=[72, 56]),
   midi.NoteOnEvent(tick=240, channel=0, data=[72, 0]),
   midi.NoteOnEvent(tick=0, channel=0, data=[69, 0]),
   midi.NoteOnEvent(tick=0, channel=0, data=[63, 0]),
   midi.NoteOnEvent(tick=0, channel=0, data=[61, 51]),
   midi.NoteOnEvent(tick=0, channel=0, data=[70, 60]),
   midi.NoteOnEvent(tick=240, channel=0, data=[70, 0]),
   midi.NoteOnEvent(tick=0, channel=0, data=[61, 0]),
   midi.NoteOnEvent(tick=0, channel=0, data=[65, 53]),
   midi.NoteOnEvent(tick=0, channel=0, data=[68, 53]),
   midi.NoteOnEvent(tick=240, channel=0, data=[68, 0]),
   midi.NoteOnEvent(tick=0, channel=0, data=[65, 0]),
   midi.NoteOnEvent(tick=0, channel=0, data=[66, 58]),
   midi.NoteOnEvent(tick=240, channel=0, data=[66, 0]),
   midi.NoteOnEvent(tick=0, channel=0, data=[68, 55]),
   midi.NoteOnEvent(tick=240, channel=0, data=[68, 0]),
   midi.NoteOnEvent(tick=0, channel=0, data=[69, 55]),
   midi.NoteOnEvent(tick=240, channel=0, data=[69, 0]),
   midi.NoteOnEvent(tick=0, channel=0, data=[70, 60]),
   midi.NoteOnEvent(tick=240, channel=0, data=[70, 0]),
   midi.NoteOnEvent(tick=0, channel=0, data=[73, 65]),
   midi.NoteOnEvent(tick=240, channel=0, data=[73, 0]),
   midi.NoteOnEvent(tick=0, channel=0, data=[66, 58]),
   midi.NoteOnEvent(tick=180, channel=0, data=[66, 0]),
   midi.NoteOnEvent(tick=0, channel=0, data=[60, 50]),
   midi.NoteOnEvent(tick=30, channel=0, data=[66, 51]),
   midi.NoteOnEvent(tick=30, channel=0, data=[70, 58]),
   midi.NoteOnEvent(tick=420, channel=0, data=[70, 0]),
   midi.NoteOnEvent(tick=0, channel=0, data=[66, 0]),
   midi.NoteOnEvent(tick=0, channel=0, data=[60, 0]),
   midi.NoteOnEvent(tick=0, channel=0, data=[66, 48]),
   midi.NoteOnEvent(tick=60, channel=0, data=[77, 58]),
   midi.NoteOnEvent(tick=720, channel=0, data=[77, 0]),
   midi.NoteOnEvent(tick=0, channel=0, data=[72, 53]),
   midi.NoteOnEvent(tick=240, channel=0, data=[72, 0]),
   midi.NoteOnEvent(tick=0, channel=0, data=[66, 0]),
   midi.NoteOnEvent(tick=240, channel=0, data=[68, 39]),
   midi.NoteOnEvent(tick=80, channel=0, data=[65, 39]),
   midi.NoteOnEvent(tick=20, channel=0, data=[68, 0]),
   midi.NoteOnEvent(tick=60, channel=0, data=[61, 39]),
   midi.NoteOnEvent(tick=20, channel=0, data=[65, 0]),
   midi.NoteOnEvent(tick=60, channel=0, data=[56, 44]),
   midi.NoteOnEvent(tick=20, channel=0, data=[61, 0]),
   midi.NoteOnEvent(tick=100, channel=0, data=[56, 0]),
   midi.NoteOnEvent(tick=120, channel=0, data=[56, 33]),
   midi.NoteOnEvent(tick=0, channel=0, data=[61, 33]),
   midi.NoteOnEvent(tick=0, channel=0, data=[68, 40]),
   midi.NoteOnEvent(tick=0, channel=0, data=[65, 39]),
   midi.NoteOnEvent(tick=480, channel=0, data=[65, 0]),
   midi.NoteOnEvent(tick=0, channel=0, data=[56, 0]),
   midi.NoteOnEvent(tick=0, channel=0, data=[61, 0]),
   midi.NoteOnEvent(tick=0, channel=0, data=[68, 0]),
   midi.NoteOnEvent(tick=0, channel=0, data=[56, 36]),
   midi.NoteOnEvent(tick=0, channel=0, data=[59, 36]),
   midi.NoteOnEvent(tick=0, channel=0, data=[65, 43]),
   midi.NoteOnEvent(tick=0, channel=0, data=[68, 43]),
   midi.NoteOnEvent(tick=240, channel=0, data=[68, 0]),
   midi.NoteOnEvent(tick=0, channel=0, data=[56, 0]),
   midi.NoteOnEvent(tick=0, channel=0, data=[59, 0]),
   midi.NoteOnEvent(tick=0, channel=0, data=[65, 0]),
   midi.NoteOnEvent(tick=240, channel=0, data=[68, 39]),
   midi.NoteOnEvent(tick=80, channel=0, data=[66, 39]),
   midi.NoteOnEvent(tick=20, channel=0, data=[68, 0]),
   midi.NoteOnEvent(tick=60, channel=0, data=[60, 39]),
   midi.NoteOnEvent(tick=20, channel=0, data=[66, 0]),
   midi.NoteOnEvent(tick=60, channel=0, data=[56, 44]),
   midi.NoteOnEvent(tick=20, channel=0, data=[60, 0]),
   midi.NoteOnEvent(tick=100, channel=0, data=[56, 0]),
   midi.NoteOnEvent(tick=120, channel=0, data=[56, 34]),
   midi.NoteOnEvent(tick=0, channel=0, data=[60, 34]),
   midi.NoteOnEvent(tick=0, channel=0, data=[66, 41]),
   midi.NoteOnEvent(tick=0, channel=0, data=[68, 43]),
   midi.NoteOnEvent(tick=480, channel=0, data=[68, 0]),
   midi.NoteOnEvent(tick=0, channel=0, data=[56, 0]),
   midi.NoteOnEvent(tick=0, channel=0, data=[60, 0]),
   midi.NoteOnEvent(tick=0, channel=0, data=[66, 0]),
   midi.NoteOnEvent(tick=0, channel=0, data=[56, 32]),
   midi.NoteOnEvent(tick=0, channel=0, data=[64, 38]),
   midi.NoteOnEvent(tick=0, channel=0, data=[68, 38]),
   midi.NoteOnEvent(tick=240, channel=0, data=[68, 0]),
   midi.NoteOnEvent(tick=0, channel=0, data=[64, 0]),
   midi.NoteOnEvent(tick=0, channel=0, data=[56, 0]),
   midi.NoteOnEvent(tick=240, channel=0, data=[68, 27]),
   midi.NoteOnEvent(tick=80, channel=0, data=[65, 27]),
   midi.NoteOnEvent(tick=20, channel=0, data=[68, 0]),
   midi.NoteOnEvent(tick=60, channel=0, data=[61, 27]),
   midi.NoteOnEvent(tick=20, channel=0, data=[65, 0]),
   midi.NoteOnEvent(tick=60, channel=0, data=[56, 30]),
   midi.NoteOnEvent(tick=20, channel=0, data=[61, 0]),
   midi.NoteOnEvent(tick=100, channel=0, data=[56, 0]),
   midi.NoteOnEvent(tick=120, channel=0, data=[56, 27]),
   midi.NoteOnEvent(tick=0, channel=0, data=[61, 27]),
   midi.NoteOnEvent(tick=0, channel=0, data=[65, 27]),
   midi.NoteOnEvent(tick=0, channel=0, data=[68, 28]),
   midi.NoteOnEvent(tick=480, channel=0, data=[68, 0]),
   midi.NoteOnEvent(tick=0, channel=0, data=[56, 0]),
   midi.NoteOnEvent(tick=0, channel=0, data=[61, 0]),
   midi.NoteOnEvent(tick=0, channel=0, data=[65, 0]),
   midi.NoteOnEvent(tick=0, channel=0, data=[56, 26]),
   midi.NoteOnEvent(tick=0, channel=0, data=[59, 26]),
   midi.NoteOnEvent(tick=0, channel=0, data=[65, 26]),
   midi.NoteOnEvent(tick=0, channel=0, data=[68, 26]),
   midi.NoteOnEvent(tick=240, channel=0, data=[68, 0]),
   midi.NoteOnEvent(tick=0, channel=0, data=[56, 0]),
   midi.NoteOnEvent(tick=0, channel=0, data=[59, 0]),
   midi.NoteOnEvent(tick=0, channel=0, data=[65, 0]),
   midi.NoteOnEvent(tick=240, channel=0, data=[68, 27]),
   midi.NoteOnEvent(tick=80, channel=0, data=[66, 27]),
   midi.NoteOnEvent(tick=20, channel=0, data=[68, 0]),
   midi.NoteOnEvent(tick=60, channel=0, data=[60, 27]),
   midi.NoteOnEvent(tick=20, channel=0, data=[66, 0]),
   midi.NoteOnEvent(tick=60, channel=0, data=[56, 30]),
   midi.NoteOnEvent(tick=20, channel=0, data=[60, 0]),
   midi.NoteOnEvent(tick=100, channel=0, data=[56, 0]),
   midi.NoteOnEvent(tick=120, channel=0, data=[56, 31]),
   midi.NoteOnEvent(tick=0, channel=0, data=[60, 31]),
   midi.NoteOnEvent(tick=0, channel=0, data=[66, 31]),
   midi.NoteOnEvent(tick=0, channel=0, data=[68, 33]),
   midi.NoteOnEvent(tick=480, channel=0, data=[68, 0]),
   midi.NoteOnEvent(tick=0, channel=0, data=[56, 0]),
   midi.NoteOnEvent(tick=0, channel=0, data=[60, 0]),
   midi.NoteOnEvent(tick=0, channel=0, data=[66, 0]),
   midi.NoteOnEvent(tick=0, channel=0, data=[56, 31]),
   midi.NoteOnEvent(tick=0, channel=0, data=[64, 31]),
   midi.NoteOnEvent(tick=0, channel=0, data=[68, 31]),
   midi.NoteOnEvent(tick=240, channel=0, data=[68, 0]),
   midi.NoteOnEvent(tick=0, channel=0, data=[64, 0]),
   midi.NoteOnEvent(tick=0, channel=0, data=[56, 0]),
   midi.NoteOnEvent(tick=0, channel=0, data=[56, 31]),
   midi.NoteOnEvent(tick=0, channel=0, data=[65, 31]),
   midi.NoteOnEvent(tick=0, channel=0, data=[68, 31]),
   midi.NoteOnEvent(tick=240, channel=0, data=[68, 0]),
   midi.NoteOnEvent(tick=0, channel=0, data=[65, 0]),
   midi.NoteOnEvent(tick=0, channel=0, data=[56, 0]),
   midi.NoteOnEvent(tick=120, channel=0, data=[65, 33]),
   midi.NoteOnEvent(tick=0, channel=0, data=[61, 33]),
   midi.NoteOnEvent(tick=60, channel=0, data=[61, 0]),
   midi.NoteOnEvent(tick=0, channel=0, data=[65, 0]),
   midi.NoteOnEvent(tick=180, channel=0, data=[68, 33]),
   midi.NoteOnEvent(tick=0, channel=0, data=[65, 33]),
   midi.NoteOnEvent(tick=60, channel=0, data=[65, 0]),
   midi.NoteOnEvent(tick=0, channel=0, data=[68, 0]),
   midi.NoteOnEvent(tick=180, channel=0, data=[73, 33]),
   midi.NoteOnEvent(tick=0, channel=0, data=[68, 33]),
   midi.NoteOnEvent(tick=60, channel=0, data=[68, 0]),
   midi.NoteOnEvent(tick=0, channel=0, data=[73, 0]),
   midi.NoteOnEvent(tick=180, channel=0, data=[77, 32]),
   midi.NoteOnEvent(tick=0, channel=0, data=[73, 32]),
   midi.NoteOnEvent(tick=60, channel=0, data=[73, 0]),
   midi.NoteOnEvent(tick=0, channel=0, data=[77, 0]),
   midi.NoteOnEvent(tick=180, channel=0, data=[80, 32]),
   midi.NoteOnEvent(tick=0, channel=0, data=[77, 32]),
   midi.NoteOnEvent(tick=60, channel=0, data=[77, 0]),
   midi.NoteOnEvent(tick=0, channel=0, data=[80, 0]),
   midi.NoteOnEvent(tick=180, channel=0, data=[85, 31]),
   midi.NoteOnEvent(tick=0, channel=0, data=[80, 31]),
   midi.NoteOnEvent(tick=60, channel=0, data=[80, 0]),
   midi.NoteOnEvent(tick=0, channel=0, data=[85, 0]),
   midi.NoteOnEvent(tick=180, channel=0, data=[73, 31]),
   midi.NoteOnEvent(tick=0, channel=0, data=[77, 31]),
   midi.NoteOnEvent(tick=60, channel=0, data=[77, 0]),
   midi.NoteOnEvent(tick=0, channel=0, data=[73, 0]),
   midi.NoteOnEvent(tick=180, channel=0, data=[80, 30]),
   midi.NoteOnEvent(tick=0, channel=0, data=[77, 30]),
   midi.NoteOnEvent(tick=60, channel=0, data=[77, 0]),
   midi.NoteOnEvent(tick=0, channel=0, data=[80, 0]),
   midi.NoteOnEvent(tick=180, channel=0, data=[85, 30]),
   midi.NoteOnEvent(tick=0, channel=0, data=[80, 30]),
   midi.NoteOnEvent(tick=60, channel=0, data=[80, 0]),
   midi.NoteOnEvent(tick=0, channel=0, data=[85, 0]),
   midi.NoteOnEvent(tick=180, channel=0, data=[89, 30]),
   midi.NoteOnEvent(tick=0, channel=0, data=[85, 30]),
   midi.NoteOnEvent(tick=60, channel=0, data=[85, 0]),
   midi.NoteOnEvent(tick=0, channel=0, data=[89, 0]),
   midi.NoteOnEvent(tick=180, channel=0, data=[92, 29]),
   midi.NoteOnEvent(tick=0, channel=0, data=[89, 29]),
   midi.NoteOnEvent(tick=60, channel=0, data=[89, 0]),
   midi.NoteOnEvent(tick=0, channel=0, data=[92, 0]),
   midi.NoteOnEvent(tick=30, channel=0, data=[85, 29]),
   midi.NoteOnEvent(tick=15, channel=0, data=[89, 35]),
   midi.NoteOnEvent(tick=15, channel=0, data=[97, 35]),
   midi.NoteOnEvent(tick=1440, channel=0, data=[97, 0]),
   midi.NoteOnEvent(tick=0, channel=0, data=[89, 0]),
   midi.NoteOnEvent(tick=0, channel=0, data=[85, 0]),
   midi.NoteOnEvent(tick=0, channel=0, data=[65, 26]),
   midi.NoteOnEvent(tick=0, channel=0, data=[61, 20]),
   midi.NoteOnEvent(tick=0, channel=0, data=[53, 20]),
   midi.NoteOnEvent(tick=1440, channel=0, data=[53, 0]),
   midi.NoteOnEvent(tick=0, channel=0, data=[61, 0]),
   midi.NoteOnEvent(tick=0, channel=0, data=[65, 0]),
   midi.EndOfTrackEvent(tick=0, data=[])]),
 midi.Track(\
[    midi.ControlChangeEvent(tick=0, channel=0, data=[7, 100]),
   midi.ControlChangeEvent(tick=0, channel=0, data=[10, 64]),
   midi.NoteOnEvent(tick=0, channel=0, data=[49, 34]),
   midi.ControlChangeEvent(tick=43, channel=0, data=[64, 127]),
   midi.ControlChangeEvent(tick=439, channel=0, data=[64, 0]),
   midi.ControlChangeEvent(tick=259, channel=0, data=[64, 127]),
   midi.NoteOnEvent(tick=219, channel=0, data=[49, 0]),
   midi.NoteOnEvent(tick=0, channel=0, data=[44, 34]),
   midi.NoteOnEvent(tick=240, channel=0, data=[44, 0]),
   midi.NoteOnEvent(tick=0, channel=0, data=[50, 39]),
   midi.ControlChangeEvent(tick=14, channel=0, data=[64, 0]),
   midi.NoteOnEvent(tick=226, channel=0, data=[50, 0]),
   midi.NoteOnEvent(tick=0, channel=0, data=[51, 49]),
   midi.ControlChangeEvent(tick=85, channel=0, data=[64, 127]),
   midi.ControlChangeEvent(tick=412, channel=0, data=[64, 0]),
   midi.ControlChangeEvent(tick=269, channel=0, data=[64, 127]),
   midi.NoteOnEvent(tick=194, channel=0, data=[51, 0]),
   midi.NoteOnEvent(tick=0, channel=0, data=[44, 39]),
   midi.NoteOnEvent(tick=240, channel=0, data=[44, 0]),
   midi.NoteOnEvent(tick=0, channel=0, data=[48, 35]),
   midi.ControlChangeEvent(tick=18, channel=0, data=[64, 0]),
   midi.NoteOnEvent(tick=222, channel=0, data=[48, 0]),
   midi.NoteOnEvent(tick=0, channel=0, data=[49, 27]),
   midi.ControlChangeEvent(tick=60, channel=0, data=[64, 127]),
   midi.ControlChangeEvent(tick=430, channel=0, data=[64, 0]),
   midi.ControlChangeEvent(tick=251, channel=0, data=[64, 127]),
   midi.NoteOnEvent(tick=219, channel=0, data=[49, 0]),
   midi.NoteOnEvent(tick=0, channel=0, data=[44, 27]),
   midi.NoteOnEvent(tick=240, channel=0, data=[44, 0]),
   midi.NoteOnEvent(tick=0, channel=0, data=[50, 31]),
   midi.ControlChangeEvent(tick=7, channel=0, data=[64, 0]),
   midi.NoteOnEvent(tick=233, channel=0, data=[50, 0]),
   midi.NoteOnEvent(tick=0, channel=0, data=[51, 36]),
   midi.ControlChangeEvent(tick=85, channel=0, data=[64, 127]),
   midi.ControlChangeEvent(tick=410, channel=0, data=[64, 0]),
   midi.ControlChangeEvent(tick=271, channel=0, data=[64, 127]),
   midi.NoteOnEvent(tick=194, channel=0, data=[51, 0]),
   midi.NoteOnEvent(tick=0, channel=0, data=[44, 31]),
   midi.NoteOnEvent(tick=240, channel=0, data=[44, 0]),
   midi.NoteOnEvent(tick=0, channel=0, data=[48, 34]),
   midi.ControlChangeEvent(tick=14, channel=0, data=[64, 0]),
   midi.NoteOnEvent(tick=206, channel=0, data=[48, 0]),
   midi.NoteOnEvent(tick=20, channel=0, data=[49, 39]),
   midi.NoteOnEvent(tick=120, channel=0, data=[49, 0]),
   midi.ControlChangeEvent(tick=0, channel=0, data=[64, 127]),
   midi.NoteOnEvent(tick=120, channel=0, data=[55, 32]),
   midi.NoteOnEvent(tick=80, channel=0, data=[56, 32]),
   midi.NoteOnEvent(tick=20, channel=0, data=[55, 0]),
   midi.NoteOnEvent(tick=60, channel=0, data=[61, 31]),
   midi.NoteOnEvent(tick=20, channel=0, data=[56, 0]),
   midi.NoteOnEvent(tick=60, channel=0, data=[61, 0]),
   midi.ControlChangeEvent(tick=6, channel=0, data=[64, 0]),
   midi.ControlChangeEvent(tick=97, channel=0, data=[64, 127]),
   midi.NoteOnEvent(tick=137, channel=0, data=[68, 42]),
   midi.NoteOnEvent(tick=240, channel=0, data=[68, 0]),
   midi.NoteOnEvent(tick=0, channel=0, data=[44, 38]),
   midi.NoteOnEvent(tick=120, channel=0, data=[44, 0]),
   midi.ControlChangeEvent(tick=120, channel=0, data=[64, 0]),
   midi.NoteOnEvent(tick=0, channel=0, data=[61, 34]),
   midi.NoteOnEvent(tick=0, channel=0, data=[68, 34]),
   midi.NoteOnEvent(tick=0, channel=0, data=[56, 34]),
   midi.NoteOnEvent(tick=120, channel=0, data=[56, 0]),
   midi.NoteOnEvent(tick=0, channel=0, data=[68, 0]),
   midi.NoteOnEvent(tick=0, channel=0, data=[61, 0]),
   midi.NoteOnEvent(tick=120, channel=0, data=[49, 39]),
   midi.ControlChangeEvent(tick=20, channel=0, data=[64, 127]),
   midi.NoteOnEvent(tick=100, channel=0, data=[49, 0]),
   midi.NoteOnEvent(tick=120, channel=0, data=[55, 32]),
   midi.NoteOnEvent(tick=80, channel=0, data=[56, 32]),
   midi.NoteOnEvent(tick=20, channel=0, data=[55, 0]),
   midi.NoteOnEvent(tick=60, channel=0, data=[61, 31]),
   midi.NoteOnEvent(tick=20, channel=0, data=[56, 0]),
   midi.NoteOnEvent(tick=60, channel=0, data=[65, 38]),
   midi.ControlChangeEvent(tick=6, channel=0, data=[64, 0]),
   midi.NoteOnEvent(tick=14, channel=0, data=[61, 0]),
   midi.NoteOnEvent(tick=100, channel=0, data=[65, 0]),
   midi.ControlChangeEvent(tick=26, channel=0, data=[64, 127]),
   midi.NoteOnEvent(tick=94, channel=0, data=[56, 40]),
   midi.NoteOnEvent(tick=0, channel=0, data=[65, 40]),
   midi.NoteOnEvent(tick=0, channel=0, data=[61, 40]),
   midi.NoteOnEvent(tick=240, channel=0, data=[61, 0]),
   midi.NoteOnEvent(tick=0, channel=0, data=[65, 0]),
   midi.NoteOnEvent(tick=0, channel=0, data=[56, 0]),
   midi.NoteOnEvent(tick=0, channel=0, data=[44, 38]),
   midi.NoteOnEvent(tick=120, channel=0, data=[44, 0]),
   midi.ControlChangeEvent(tick=43, channel=0, data=[64, 0]),
   midi.NoteOnEvent(tick=77, channel=0, data=[61, 30]),
   midi.NoteOnEvent(tick=0, channel=0, data=[65, 30]),
   midi.NoteOnEvent(tick=0, channel=0, data=[56, 30]),
   midi.NoteOnEvent(tick=120, channel=0, data=[56, 0]),
   midi.NoteOnEvent(tick=0, channel=0, data=[65, 0]),
   midi.NoteOnEvent(tick=0, channel=0, data=[61, 0]),
   midi.NoteOnEvent(tick=120, channel=0, data=[51, 46]),
   midi.ControlChangeEvent(tick=46, channel=0, data=[64, 127]),
   midi.NoteOnEvent(tick=74, channel=0, data=[51, 0]),
   midi.NoteOnEvent(tick=120, channel=0, data=[55, 38]),
   midi.NoteOnEvent(tick=80, channel=0, data=[56, 38]),
   midi.NoteOnEvent(tick=20, channel=0, data=[55, 0]),
   midi.NoteOnEvent(tick=60, channel=0, data=[60, 37]),
   midi.NoteOnEvent(tick=20, channel=0, data=[56, 0]),
   midi.NoteOnEvent(tick=60, channel=0, data=[66, 45]),
   midi.ControlChangeEvent(tick=17, channel=0, data=[64, 0]),
   midi.NoteOnEvent(tick=3, channel=0, data=[60, 0]),
   midi.ControlChangeEvent(tick=72, channel=0, data=[64, 127]),
   midi.NoteOnEvent(tick=28, channel=0, data=[66, 0]),
   midi.NoteOnEvent(tick=120, channel=0, data=[56, 49]),
   midi.NoteOnEvent(tick=0, channel=0, data=[66, 49]),
   midi.NoteOnEvent(tick=0, channel=0, data=[60, 49]),
   midi.NoteOnEvent(tick=240, channel=0, data=[60, 0]),
   midi.NoteOnEvent(tick=0, channel=0, data=[66, 0]),
   midi.NoteOnEvent(tick=0, channel=0, data=[56, 0]),
   midi.NoteOnEvent(tick=0, channel=0, data=[44, 47]),
   midi.ControlChangeEvent(tick=8, channel=0, data=[64, 0]),
   midi.ControlChangeEvent(tick=81, channel=0, data=[64, 127]),
   midi.NoteOnEvent(tick=31, channel=0, data=[44, 0]),
   midi.NoteOnEvent(tick=120, channel=0, data=[66, 38]),
   midi.NoteOnEvent(tick=0, channel=0, data=[56, 38]),
   midi.NoteOnEvent(tick=0, channel=0, data=[60, 38]),
   midi.NoteOnEvent(tick=120, channel=0, data=[60, 0]),
   midi.NoteOnEvent(tick=0, channel=0, data=[56, 0]),
   midi.NoteOnEvent(tick=0, channel=0, data=[66, 0]),
   midi.NoteOnEvent(tick=120, channel=0, data=[51, 53]),
   midi.ControlChangeEvent(tick=0, channel=0, data=[64, 0]),
   midi.ControlChangeEvent(tick=77, channel=0, data=[64, 127]),
   midi.NoteOnEvent(tick=43, channel=0, data=[51, 0]),
   midi.NoteOnEvent(tick=120, channel=0, data=[55, 38]),
   midi.NoteOnEvent(tick=80, channel=0, data=[56, 38]),
   midi.NoteOnEvent(tick=20, channel=0, data=[55, 0]),
   midi.NoteOnEvent(tick=60, channel=0, data=[60, 37]),
   midi.NoteOnEvent(tick=20, channel=0, data=[56, 0]),
   midi.NoteOnEvent(tick=60, channel=0, data=[66, 45]),
   midi.NoteOnEvent(tick=20, channel=0, data=[60, 0]),
   midi.ControlChangeEvent(tick=7, channel=0, data=[64, 0]),
   midi.NoteOnEvent(tick=93, channel=0, data=[66, 0]),
   midi.ControlChangeEvent(tick=17, channel=0, data=[64, 127]),
   midi.NoteOnEvent(tick=103, channel=0, data=[56, 43]),
   midi.NoteOnEvent(tick=0, channel=0, data=[66, 43]),
   midi.NoteOnEvent(tick=0, channel=0, data=[60, 43]),
   midi.NoteOnEvent(tick=240, channel=0, data=[60, 0]),
   midi.NoteOnEvent(tick=0, channel=0, data=[66, 0]),
   midi.NoteOnEvent(tick=0, channel=0, data=[56, 0]),
   midi.NoteOnEvent(tick=0, channel=0, data=[44, 37]),
   midi.NoteOnEvent(tick=120, channel=0, data=[44, 0]),
   midi.ControlChangeEvent(tick=0, channel=0, data=[64, 0]),
   midi.NoteOnEvent(tick=120, channel=0, data=[60, 36]),
   midi.NoteOnEvent(tick=0, channel=0, data=[56, 36]),
   midi.NoteOnEvent(tick=0, channel=0, data=[66, 36]),
   midi.NoteOnEvent(tick=120, channel=0, data=[66, 0]),
   midi.NoteOnEvent(tick=0, channel=0, data=[56, 0]),
   midi.NoteOnEvent(tick=0, channel=0, data=[60, 0]),
   midi.NoteOnEvent(tick=120, channel=0, data=[49, 46]),
   midi.ControlChangeEvent(tick=63, channel=0, data=[64, 127]),
   midi.NoteOnEvent(tick=57, channel=0, data=[49, 0]),
   midi.NoteOnEvent(tick=120, channel=0, data=[55, 38]),
   midi.NoteOnEvent(tick=80, channel=0, data=[56, 38]),
   midi.NoteOnEvent(tick=20, channel=0, data=[55, 0]),
   midi.NoteOnEvent(tick=60, channel=0, data=[61, 37]),
   midi.NoteOnEvent(tick=20, channel=0, data=[56, 0]),
   midi.NoteOnEvent(tick=60, channel=0, data=[61, 0]),
   midi.ControlChangeEvent(tick=12, channel=0, data=[64, 0]),
   midi.ControlChangeEvent(tick=91, channel=0, data=[64, 127]),
   midi.NoteOnEvent(tick=137, channel=0, data=[68, 50]),
   midi.NoteOnEvent(tick=240, channel=0, data=[68, 0]),
   midi.NoteOnEvent(tick=0, channel=0, data=[44, 45]),
   midi.NoteOnEvent(tick=120, channel=0, data=[44, 0]),
   midi.NoteOnEvent(tick=120, channel=0, data=[68, 40]),
   midi.NoteOnEvent(tick=0, channel=0, data=[61, 40]),
   midi.NoteOnEvent(tick=0, channel=0, data=[56, 40]),
   midi.ControlChangeEvent(tick=6, channel=0, data=[64, 0]),
   midi.NoteOnEvent(tick=114, channel=0, data=[56, 0]),
   midi.NoteOnEvent(tick=0, channel=0, data=[61, 0]),
   midi.NoteOnEvent(tick=0, channel=0, data=[68, 0]),
   midi.NoteOnEvent(tick=120, channel=0, data=[49, 46]),
   midi.ControlChangeEvent(tick=55, channel=0, data=[64, 127]),
   midi.NoteOnEvent(tick=65, channel=0, data=[49, 0]),
   midi.NoteOnEvent(tick=120, channel=0, data=[55, 38]),
   midi.NoteOnEvent(tick=80, channel=0, data=[56, 38]),
   midi.NoteOnEvent(tick=20, channel=0, data=[55, 0]),
   midi.NoteOnEvent(tick=60, channel=0, data=[61, 37]),
   midi.NoteOnEvent(tick=20, channel=0, data=[56, 0]),
   midi.NoteOnEvent(tick=60, channel=0, data=[65, 45]),
   midi.ControlChangeEvent(tick=7, channel=0, data=[64, 0]),
   midi.NoteOnEvent(tick=13, channel=0, data=[61, 0]),
   midi.ControlChangeEvent(tick=60, channel=0, data=[64, 127]),
   midi.NoteOnEvent(tick=40, channel=0, data=[65, 0]),
   midi.NoteOnEvent(tick=120, channel=0, data=[61, 48]),
   midi.NoteOnEvent(tick=0, channel=0, data=[65, 48]),
   midi.NoteOnEvent(tick=0, channel=0, data=[56, 48]),
   midi.NoteOnEvent(tick=240, channel=0, data=[56, 0]),
   midi.NoteOnEvent(tick=0, channel=0, data=[65, 0]),
   midi.NoteOnEvent(tick=0, channel=0, data=[61, 0]),
   midi.NoteOnEvent(tick=0, channel=0, data=[44, 45]),
   midi.NoteOnEvent(tick=120, channel=0, data=[44, 0]),
   midi.ControlChangeEvent(tick=9, channel=0, data=[64, 0]),
   midi.NoteOnEvent(tick=111, channel=0, data=[65, 36]),
   midi.NoteOnEvent(tick=0, channel=0, data=[56, 36]),
   midi.NoteOnEvent(tick=0, channel=0, data=[61, 36]),
   midi.NoteOnEvent(tick=120, channel=0, data=[61, 0]),
   midi.NoteOnEvent(tick=0, channel=0, data=[56, 0]),
   midi.NoteOnEvent(tick=0, channel=0, data=[65, 0]),
   midi.NoteOnEvent(tick=120, channel=0, data=[51, 46]),
   midi.ControlChangeEvent(tick=46, channel=0, data=[64, 127]),
   midi.NoteOnEvent(tick=74, channel=0, data=[51, 0]),
   midi.NoteOnEvent(tick=120, channel=0, data=[55, 38]),
   midi.NoteOnEvent(tick=80, channel=0, data=[56, 38]),
   midi.NoteOnEvent(tick=20, channel=0, data=[55, 0]),
   midi.NoteOnEvent(tick=60, channel=0, data=[60, 37]),
   midi.NoteOnEvent(tick=20, channel=0, data=[56, 0]),
   midi.NoteOnEvent(tick=60, channel=0, data=[66, 45]),
   midi.ControlChangeEvent(tick=15, channel=0, data=[64, 0]),
   midi.NoteOnEvent(tick=5, channel=0, data=[60, 0]),
   midi.ControlChangeEvent(tick=66, channel=0, data=[64, 127]),
   midi.NoteOnEvent(tick=34, channel=0, data=[66, 0]),
   midi.NoteOnEvent(tick=120, channel=0, data=[60, 49]),
   midi.NoteOnEvent(tick=0, channel=0, data=[66, 49]),
   midi.NoteOnEvent(tick=0, channel=0, data=[56, 49]),
   midi.NoteOnEvent(tick=240, channel=0, data=[56, 0]),
   midi.NoteOnEvent(tick=0, channel=0, data=[66, 0]),
   midi.NoteOnEvent(tick=0, channel=0, data=[60, 0]),
   midi.NoteOnEvent(tick=0, channel=0, data=[44, 47]),
   midi.ControlChangeEvent(tick=6, channel=0, data=[64, 0]),
   midi.ControlChangeEvent(tick=91, channel=0, data=[64, 127]),
   midi.NoteOnEvent(tick=23, channel=0, data=[44, 0]),
   midi.NoteOnEvent(tick=120, channel=0, data=[60, 38]),
   midi.NoteOnEvent(tick=0, channel=0, data=[66, 38]),
   midi.NoteOnEvent(tick=0, channel=0, data=[56, 38]),
   midi.NoteOnEvent(tick=120, channel=0, data=[56, 0]),
   midi.NoteOnEvent(tick=0, channel=0, data=[66, 0]),
   midi.NoteOnEvent(tick=0, channel=0, data=[60, 0]),
   midi.ControlChangeEvent(tick=120, channel=0, data=[64, 0]),
   midi.NoteOnEvent(tick=0, channel=0, data=[51, 53]),
   midi.ControlChangeEvent(tick=54, channel=0, data=[64, 127]),
   midi.NoteOnEvent(tick=66, channel=0, data=[51, 0]),
   midi.NoteOnEvent(tick=120, channel=0, data=[55, 38]),
   midi.NoteOnEvent(tick=80, channel=0, data=[56, 38]),
   midi.NoteOnEvent(tick=20, channel=0, data=[55, 0]),
   midi.NoteOnEvent(tick=60, channel=0, data=[60, 37]),
   midi.NoteOnEvent(tick=20, channel=0, data=[56, 0]),
   midi.NoteOnEvent(tick=60, channel=0, data=[66, 45]),
   midi.NoteOnEvent(tick=20, channel=0, data=[60, 0]),
   midi.ControlChangeEvent(tick=7, channel=0, data=[64, 0]),
   midi.NoteOnEvent(tick=93, channel=0, data=[66, 0]),
   midi.ControlChangeEvent(tick=17, channel=0, data=[64, 127]),
   midi.NoteOnEvent(tick=103, channel=0, data=[60, 43]),
   midi.NoteOnEvent(tick=0, channel=0, data=[56, 43]),
   midi.NoteOnEvent(tick=0, channel=0, data=[66, 43]),
   midi.NoteOnEvent(tick=240, channel=0, data=[66, 0]),
   midi.NoteOnEvent(tick=0, channel=0, data=[56, 0]),
   midi.NoteOnEvent(tick=0, channel=0, data=[60, 0]),
   midi.NoteOnEvent(tick=0, channel=0, data=[44, 37]),
   midi.NoteOnEvent(tick=120, channel=0, data=[44, 0]),
   midi.ControlChangeEvent(tick=3, channel=0, data=[64, 0]),
   midi.NoteOnEvent(tick=117, channel=0, data=[64, 36]),
   midi.NoteOnEvent(tick=0, channel=0, data=[56, 36]),
   midi.NoteOnEvent(tick=0, channel=0, data=[60, 36]),
   midi.NoteOnEvent(tick=120, channel=0, data=[60, 0]),
   midi.NoteOnEvent(tick=0, channel=0, data=[56, 0]),
   midi.NoteOnEvent(tick=0, channel=0, data=[64, 0]),
   midi.NoteOnEvent(tick=120, channel=0, data=[53, 50]),
   midi.ControlChangeEvent(tick=63, channel=0, data=[64, 127]),
   midi.NoteOnEvent(tick=57, channel=0, data=[53, 0]),
   midi.NoteOnEvent(tick=120, channel=0, data=[57, 41]),
   midi.NoteOnEvent(tick=80, channel=0, data=[61, 41]),
   midi.NoteOnEvent(tick=20, channel=0, data=[57, 0]),
   midi.NoteOnEvent(tick=60, channel=0, data=[65, 40]),
   midi.NoteOnEvent(tick=20, channel=0, data=[61, 0]),
   midi.NoteOnEvent(tick=60, channel=0, data=[65, 0]),
   midi.NoteOnEvent(tick=0, channel=0, data=[69, 55]),
   midi.ControlChangeEvent(tick=14, channel=0, data=[64, 0]),
   midi.NoteOnEvent(tick=106, channel=0, data=[69, 0]),
   midi.ControlChangeEvent(tick=43, channel=0, data=[64, 127]),
   midi.NoteOnEvent(tick=77, channel=0, data=[65, 49]),
   midi.NoteOnEvent(tick=0, channel=0, data=[61, 49]),
   midi.NoteOnEvent(tick=240, channel=0, data=[61, 0]),
   midi.NoteOnEvent(tick=0, channel=0, data=[65, 0]),
   midi.NoteOnEvent(tick=0, channel=0, data=[53, 49]),
   midi.NoteOnEvent(tick=120, channel=0, data=[53, 0]),
   midi.NoteOnEvent(tick=120, channel=0, data=[57, 44]),
   midi.NoteOnEvent(tick=0, channel=0, data=[63, 44]),
   midi.ControlChangeEvent(tick=15, channel=0, data=[64, 0]),
   midi.NoteOnEvent(tick=105, channel=0, data=[63, 0]),
   midi.NoteOnEvent(tick=0, channel=0, data=[57, 0]),
   midi.NoteOnEvent(tick=120, channel=0, data=[54, 50]),
   midi.ControlChangeEvent(tick=63, channel=0, data=[64, 127]),
   midi.NoteOnEvent(tick=57, channel=0, data=[54, 0]),
   midi.NoteOnEvent(tick=120, channel=0, data=[60, 41]),
   midi.NoteOnEvent(tick=80, channel=0, data=[61, 41]),
   midi.NoteOnEvent(tick=20, channel=0, data=[60, 0]),
   midi.NoteOnEvent(tick=60, channel=0, data=[66, 40]),
   midi.NoteOnEvent(tick=20, channel=0, data=[61, 0]),
   midi.NoteOnEvent(tick=60, channel=0, data=[66, 0]),
   midi.ControlChangeEvent(tick=11, channel=0, data=[64, 0]),
   midi.ControlChangeEvent(tick=92, channel=0, data=[64, 127]),
   midi.NoteOnEvent(tick=137, channel=0, data=[62, 55]),
   midi.NoteOnEvent(tick=240, channel=0, data=[62, 0]),
   midi.NoteOnEvent(tick=0, channel=0, data=[50, 49]),
   midi.NoteOnEvent(tick=120, channel=0, data=[50, 0]),
   midi.NoteOnEvent(tick=120, channel=0, data=[65, 44]),
   midi.NoteOnEvent(tick=0, channel=0, data=[58, 44]),
   midi.NoteOnEvent(tick=120, channel=0, data=[58, 0]),
   midi.NoteOnEvent(tick=0, channel=0, data=[65, 0]),
   midi.ControlChangeEvent(tick=120, channel=0, data=[64, 0]),
   midi.NoteOnEvent(tick=0, channel=0, data=[51, 50]),
   midi.ControlChangeEvent(tick=75, channel=0, data=[64, 127]),
   midi.NoteOnEvent(tick=45, channel=0, data=[51, 0]),
   midi.NoteOnEvent(tick=120, channel=0, data=[57, 41]),
   midi.NoteOnEvent(tick=80, channel=0, data=[58, 41]),
   midi.NoteOnEvent(tick=20, channel=0, data=[57, 0]),
   midi.NoteOnEvent(tick=60, channel=0, data=[63, 40]),
   midi.NoteOnEvent(tick=20, channel=0, data=[58, 0]),
   midi.NoteOnEvent(tick=60, channel=0, data=[63, 0]),
   midi.ControlChangeEvent(tick=18, channel=0, data=[64, 0]),
   midi.NoteOnEvent(tick=222, channel=0, data=[58, 50]),
   midi.ControlChangeEvent(tick=72, channel=0, data=[64, 127]),
   midi.NoteOnEvent(tick=168, channel=0, data=[70, 46]),
   midi.NoteOnEvent(tick=240, channel=0, data=[70, 0]),
   midi.NoteOnEvent(tick=0, channel=0, data=[68, 43]),
   midi.ControlChangeEvent(tick=3, channel=0, data=[64, 0]),
   midi.NoteOnEvent(tick=237, channel=0, data=[68, 0]),
   midi.NoteOnEvent(tick=0, channel=0, data=[58, 0]),
   midi.NoteOnEvent(tick=0, channel=0, data=[51, 46]),
   midi.ControlChangeEvent(tick=63, channel=0, data=[64, 127]),
   midi.NoteOnEvent(tick=57, channel=0, data=[51, 0]),
   midi.NoteOnEvent(tick=120, channel=0, data=[57, 38]),
   midi.NoteOnEvent(tick=80, channel=0, data=[58, 38]),
   midi.NoteOnEvent(tick=20, channel=0, data=[57, 0]),
   midi.NoteOnEvent(tick=60, channel=0, data=[59, 37]),
   midi.NoteOnEvent(tick=20, channel=0, data=[58, 0]),
   midi.NoteOnEvent(tick=54, channel=0, data=[58, 50]),
   midi.NoteOnEvent(tick=6, channel=0, data=[59, 0]),
   midi.ControlChangeEvent(tick=6, channel=0, data=[64, 0]),
   midi.NoteOnEvent(tick=228, channel=0, data=[58, 0]),
   midi.NoteOnEvent(tick=9, channel=0, data=[62, 50]),
   midi.ControlChangeEvent(tick=49, channel=0, data=[64, 127]),
   midi.NoteOnEvent(tick=191, channel=0, data=[62, 0]),
   midi.NoteOnEvent(tick=0, channel=0, data=[65, 55]),
   midi.NoteOnEvent(tick=240, channel=0, data=[65, 0]),
   midi.NoteOnEvent(tick=0, channel=0, data=[63, 51]),
   midi.NoteOnEvent(tick=237, channel=0, data=[39, 46]),
   midi.NoteOnEvent(tick=3, channel=0, data=[63, 0]),
   midi.ControlChangeEvent(tick=3, channel=0, data=[64, 0]),
   midi.ControlChangeEvent(tick=89, channel=0, data=[64, 127]),
   midi.NoteOnEvent(tick=25, channel=0, data=[39, 0]),
   midi.NoteOnEvent(tick=120, channel=0, data=[50, 38]),
   midi.NoteOnEvent(tick=80, channel=0, data=[51, 38]),
   midi.NoteOnEvent(tick=20, channel=0, data=[50, 0]),
   midi.NoteOnEvent(tick=60, channel=0, data=[53, 37]),
   midi.NoteOnEvent(tick=20, channel=0, data=[51, 0]),
   midi.NoteOnEvent(tick=60, channel=0, data=[53, 0]),
   midi.NoteOnEvent(tick=0, channel=0, data=[51, 50]),
   midi.ControlChangeEvent(tick=8, channel=0, data=[64, 0]),
   midi.NoteOnEvent(tick=112, channel=0, data=[51, 0]),
   midi.NoteOnEvent(tick=120, channel=0, data=[51, 50]),
   midi.ControlChangeEvent(tick=69, channel=0, data=[64, 127]),
   midi.NoteOnEvent(tick=411, channel=0, data=[51, 0]),
   midi.NoteOnEvent(tick=0, channel=0, data=[51, 46]),
   midi.ControlChangeEvent(tick=8, channel=0, data=[64, 0]),
   midi.NoteOnEvent(tick=232, channel=0, data=[51, 0]),
   midi.NoteOnEvent(tick=0, channel=0, data=[60, 49]),
   midi.NoteOnEvent(tick=0, channel=0, data=[51, 49]),
   midi.ControlChangeEvent(tick=117, channel=0, data=[64, 127]),
   midi.NoteOnEvent(tick=123, channel=0, data=[60, 0]),
   midi.NoteOnEvent(tick=0, channel=0, data=[61, 46]),
   midi.NoteOnEvent(tick=240, channel=0, data=[61, 0]),
   midi.NoteOnEvent(tick=0, channel=0, data=[65, 49]),
   midi.ControlChangeEvent(tick=11, channel=0, data=[64, 0]),
   midi.ControlChangeEvent(tick=74, channel=0, data=[64, 127]),
   midi.NoteOnEvent(tick=155, channel=0, data=[65, 0]),
   midi.NoteOnEvent(tick=0, channel=0, data=[63, 45]),
   midi.NoteOnEvent(tick=240, channel=0, data=[63, 0]),
   midi.NoteOnEvent(tick=0, channel=0, data=[67, 48]),
   midi.ControlChangeEvent(tick=19, channel=0, data=[64, 0]),
   midi.ControlChangeEvent(tick=108, channel=0, data=[64, 127]),
   midi.NoteOnEvent(tick=113, channel=0, data=[67, 0]),
   midi.NoteOnEvent(tick=0, channel=0, data=[63, 45]),
   midi.NoteOnEvent(tick=240, channel=0, data=[63, 0]),
   midi.NoteOnEvent(tick=0, channel=0, data=[51, 0]),
   midi.ControlChangeEvent(tick=0, channel=0, data=[64, 0]),
   midi.NoteOnEvent(tick=0, channel=0, data=[51, 46]),
   midi.ControlChangeEvent(tick=106, channel=0, data=[64, 127]),
   midi.NoteOnEvent(tick=14, channel=0, data=[51, 0]),
   midi.NoteOnEvent(tick=120, channel=0, data=[62, 38]),
   midi.NoteOnEvent(tick=80, channel=0, data=[63, 38]),
   midi.NoteOnEvent(tick=20, channel=0, data=[62, 0]),
   midi.NoteOnEvent(tick=60, channel=0, data=[65, 37]),
   midi.NoteOnEvent(tick=20, channel=0, data=[63, 0]),
   midi.NoteOnEvent(tick=60, channel=0, data=[65, 0]),
   midi.NoteOnEvent(tick=0, channel=0, data=[63, 43]),
   midi.ControlChangeEvent(tick=10, channel=0, data=[64, 0]),
   midi.NoteOnEvent(tick=110, channel=0, data=[63, 0]),
   midi.ControlChangeEvent(tick=120, channel=0, data=[64, 127]),
   midi.NoteOnEvent(tick=0, channel=0, data=[63, 50]),
   midi.NoteOnEvent(tick=480, channel=0, data=[63, 0]),
   midi.NoteOnEvent(tick=0, channel=0, data=[63, 46]),
   midi.NoteOnEvent(tick=240, channel=0, data=[63, 0]),
   midi.NoteOnEvent(tick=0, channel=0, data=[60, 49]),
   midi.NoteOnEvent(tick=0, channel=0, data=[56, 49]),
   midi.ControlChangeEvent(tick=13, channel=0, data=[64, 0]),
   midi.ControlChangeEvent(tick=136, channel=0, data=[64, 127]),
   midi.NoteOnEvent(tick=91, channel=0, data=[60, 0]),
   midi.NoteOnEvent(tick=0, channel=0, data=[61, 46]),
   midi.NoteOnEvent(tick=240, channel=0, data=[61, 0]),
   midi.NoteOnEvent(tick=0, channel=0, data=[63, 49]),
   midi.ControlChangeEvent(tick=16, channel=0, data=[64, 0]),
   midi.ControlChangeEvent(tick=144, channel=0, data=[64, 127]),
   midi.NoteOnEvent(tick=80, channel=0, data=[63, 0]),
   midi.NoteOnEvent(tick=0, channel=0, data=[70, 50]),
   midi.NoteOnEvent(tick=240, channel=0, data=[70, 0]),
   midi.NoteOnEvent(tick=0, channel=0, data=[68, 50]),
   midi.ControlChangeEvent(tick=9, channel=0, data=[64, 0]),
   midi.ControlChangeEvent(tick=83, channel=0, data=[64, 127]),
   midi.NoteOnEvent(tick=148, channel=0, data=[68, 0]),
   midi.NoteOnEvent(tick=0, channel=0, data=[66, 47]),
   midi.NoteOnEvent(tick=240, channel=0, data=[66, 0]),
   midi.NoteOnEvent(tick=0, channel=0, data=[56, 0]),
   midi.NoteOnEvent(tick=0, channel=0, data=[49, 55]),
   midi.ControlChangeEvent(tick=10, channel=0, data=[64, 0]),
   midi.ControlChangeEvent(tick=53, channel=0, data=[64, 127]),
   midi.NoteOnEvent(tick=57, channel=0, data=[49, 0]),
   midi.NoteOnEvent(tick=120, channel=0, data=[55, 49]),
   midi.NoteOnEvent(tick=80, channel=0, data=[56, 49]),
   midi.NoteOnEvent(tick=20, channel=0, data=[55, 0]),
   midi.NoteOnEvent(tick=60, channel=0, data=[61, 48]),
   midi.NoteOnEvent(tick=20, channel=0, data=[56, 0]),
   midi.NoteOnEvent(tick=60, channel=0, data=[61, 0]),
   midi.ControlChangeEvent(tick=17, channel=0, data=[64, 0]),
   midi.ControlChangeEvent(tick=86, channel=0, data=[64, 127]),
   midi.NoteOnEvent(tick=137, channel=0, data=[68, 61]),
   midi.NoteOnEvent(tick=240, channel=0, data=[68, 0]),
   midi.NoteOnEvent(tick=0, channel=0, data=[44, 59]),
   midi.NoteOnEvent(tick=120, channel=0, data=[44, 0]),
   midi.ControlChangeEvent(tick=120, channel=0, data=[64, 0]),
   midi.NoteOnEvent(tick=0, channel=0, data=[61, 52]),
   midi.NoteOnEvent(tick=0, channel=0, data=[56, 52]),
   midi.NoteOnEvent(tick=0, channel=0, data=[68, 52]),
   midi.NoteOnEvent(tick=120, channel=0, data=[68, 0]),
   midi.NoteOnEvent(tick=0, channel=0, data=[56, 0]),
   midi.NoteOnEvent(tick=0, channel=0, data=[61, 0]),
   midi.NoteOnEvent(tick=120, channel=0, data=[49, 60]),
   midi.ControlChangeEvent(tick=20, channel=0, data=[64, 127]),
   midi.NoteOnEvent(tick=100, channel=0, data=[49, 0]),
   midi.NoteOnEvent(tick=120, channel=0, data=[55, 49]),
   midi.NoteOnEvent(tick=80, channel=0, data=[56, 49]),
   midi.NoteOnEvent(tick=20, channel=0, data=[55, 0]),
   midi.NoteOnEvent(tick=60, channel=0, data=[61, 48]),
   midi.NoteOnEvent(tick=20, channel=0, data=[56, 0]),
   midi.NoteOnEvent(tick=60, channel=0, data=[65, 60]),
   midi.ControlChangeEvent(tick=13, channel=0, data=[64, 0]),
   midi.NoteOnEvent(tick=7, channel=0, data=[61, 0]),
   midi.ControlChangeEvent(tick=55, channel=0, data=[64, 127]),
   midi.NoteOnEvent(tick=45, channel=0, data=[65, 0]),
   midi.NoteOnEvent(tick=120, channel=0, data=[56, 57]),
   midi.NoteOnEvent(tick=0, channel=0, data=[65, 57]),
   midi.NoteOnEvent(tick=0, channel=0, data=[61, 57]),
   midi.NoteOnEvent(tick=240, channel=0, data=[61, 0]),
   midi.NoteOnEvent(tick=0, channel=0, data=[65, 0]),
   midi.NoteOnEvent(tick=0, channel=0, data=[56, 0]),
   midi.NoteOnEvent(tick=0, channel=0, data=[44, 61]),
   midi.NoteOnEvent(tick=120, channel=0, data=[44, 0]),
   midi.NoteOnEvent(tick=120, channel=0, data=[61, 49]),
   midi.NoteOnEvent(tick=0, channel=0, data=[56, 49]),
   midi.NoteOnEvent(tick=0, channel=0, data=[65, 49]),
   midi.ControlChangeEvent(tick=3, channel=0, data=[64, 0]),
   midi.NoteOnEvent(tick=117, channel=0, data=[65, 0]),
   midi.NoteOnEvent(tick=0, channel=0, data=[56, 0]),
   midi.NoteOnEvent(tick=0, channel=0, data=[61, 0]),
   midi.NoteOnEvent(tick=120, channel=0, data=[51, 57]),
   midi.ControlChangeEvent(tick=52, channel=0, data=[64, 127]),
   midi.NoteOnEvent(tick=68, channel=0, data=[51, 0]),
   midi.NoteOnEvent(tick=120, channel=0, data=[55, 47]),
   midi.NoteOnEvent(tick=80, channel=0, data=[56, 47]),
   midi.NoteOnEvent(tick=20, channel=0, data=[55, 0]),
   midi.NoteOnEvent(tick=60, channel=0, data=[60, 46]),
   midi.NoteOnEvent(tick=20, channel=0, data=[56, 0]),
   midi.NoteOnEvent(tick=60, channel=0, data=[66, 56]),
   midi.ControlChangeEvent(tick=17, channel=0, data=[64, 0]),
   midi.NoteOnEvent(tick=3, channel=0, data=[60, 0]),
   midi.ControlChangeEvent(tick=75, channel=0, data=[64, 127]),
   midi.NoteOnEvent(tick=25, channel=0, data=[66, 0]),
   midi.NoteOnEvent(tick=120, channel=0, data=[56, 59]),
   midi.NoteOnEvent(tick=0, channel=0, data=[66, 59]),
   midi.NoteOnEvent(tick=0, channel=0, data=[60, 59]),
   midi.NoteOnEvent(tick=240, channel=0, data=[60, 0]),
   midi.NoteOnEvent(tick=0, channel=0, data=[66, 0]),
   midi.NoteOnEvent(tick=0, channel=0, data=[56, 0]),
   midi.NoteOnEvent(tick=0, channel=0, data=[44, 56]),
   midi.ControlChangeEvent(tick=8, channel=0, data=[64, 0]),
   midi.ControlChangeEvent(tick=84, channel=0, data=[64, 127]),
   midi.NoteOnEvent(tick=28, channel=0, data=[44, 0]),
   midi.NoteOnEvent(tick=120, channel=0, data=[66, 44]),
   midi.NoteOnEvent(tick=0, channel=0, data=[56, 44]),
   midi.NoteOnEvent(tick=0, channel=0, data=[60, 44]),
   midi.NoteOnEvent(tick=120, channel=0, data=[60, 0]),
   midi.NoteOnEvent(tick=0, channel=0, data=[56, 0]),
   midi.NoteOnEvent(tick=0, channel=0, data=[66, 0]),
   midi.NoteOnEvent(tick=120, channel=0, data=[51, 60]),
   midi.ControlChangeEvent(tick=9, channel=0, data=[64, 0]),
   midi.ControlChangeEvent(tick=45, channel=0, data=[64, 127]),
   midi.NoteOnEvent(tick=66, channel=0, data=[51, 0]),
   midi.NoteOnEvent(tick=120, channel=0, data=[55, 47]),
   midi.NoteOnEvent(tick=80, channel=0, data=[56, 47]),
   midi.NoteOnEvent(tick=20, channel=0, data=[55, 0]),
   midi.NoteOnEvent(tick=60, channel=0, data=[60, 44]),
   midi.NoteOnEvent(tick=20, channel=0, data=[56, 0]),
   midi.NoteOnEvent(tick=60, channel=0, data=[66, 55]),
   midi.NoteOnEvent(tick=20, channel=0, data=[60, 0]),
   midi.ControlChangeEvent(tick=6, channel=0, data=[64, 0]),
   midi.NoteOnEvent(tick=94, channel=0, data=[66, 0]),
   midi.ControlChangeEvent(tick=17, channel=0, data=[64, 127]),
   midi.NoteOnEvent(tick=103, channel=0, data=[56, 51]),
   midi.NoteOnEvent(tick=0, channel=0, data=[66, 51]),
   midi.NoteOnEvent(tick=0, channel=0, data=[60, 51]),
   midi.NoteOnEvent(tick=240, channel=0, data=[60, 0]),
   midi.NoteOnEvent(tick=0, channel=0, data=[66, 0]),
   midi.NoteOnEvent(tick=0, channel=0, data=[56, 0]),
   midi.NoteOnEvent(tick=0, channel=0, data=[44, 42]),
   midi.NoteOnEvent(tick=120, channel=0, data=[44, 0]),
   midi.ControlChangeEvent(tick=12, channel=0, data=[64, 0]),
   midi.NoteOnEvent(tick=108, channel=0, data=[60, 40]),
   midi.NoteOnEvent(tick=0, channel=0, data=[66, 40]),
   midi.NoteOnEvent(tick=0, channel=0, data=[56, 40]),
   midi.NoteOnEvent(tick=120, channel=0, data=[56, 0]),
   midi.NoteOnEvent(tick=0, channel=0, data=[66, 0]),
   midi.NoteOnEvent(tick=0, channel=0, data=[60, 0]),
   midi.NoteOnEvent(tick=120, channel=0, data=[49, 39]),
   midi.ControlChangeEvent(tick=63, channel=0, data=[64, 127]),
   midi.NoteOnEvent(tick=57, channel=0, data=[49, 0]),
   midi.NoteOnEvent(tick=120, channel=0, data=[55, 32]),
   midi.NoteOnEvent(tick=80, channel=0, data=[56, 32]),
   midi.NoteOnEvent(tick=20, channel=0, data=[55, 0]),
   midi.NoteOnEvent(tick=60, channel=0, data=[61, 31]),
   midi.NoteOnEvent(tick=20, channel=0, data=[56, 0]),
   midi.NoteOnEvent(tick=60, channel=0, data=[61, 0]),
   midi.ControlChangeEvent(tick=9, channel=0, data=[64, 0]),
   midi.ControlChangeEvent(tick=94, channel=0, data=[64, 127]),
   midi.NoteOnEvent(tick=137, channel=0, data=[68, 42]),
   midi.NoteOnEvent(tick=240, channel=0, data=[68, 0]),
   midi.NoteOnEvent(tick=0, channel=0, data=[44, 38]),
   midi.NoteOnEvent(tick=120, channel=0, data=[44, 0]),
   midi.NoteOnEvent(tick=120, channel=0, data=[68, 34]),
   midi.NoteOnEvent(tick=0, channel=0, data=[56, 34]),
   midi.NoteOnEvent(tick=0, channel=0, data=[61, 34]),
   midi.ControlChangeEvent(tick=10, channel=0, data=[64, 0]),
   midi.NoteOnEvent(tick=110, channel=0, data=[61, 0]),
   midi.NoteOnEvent(tick=0, channel=0, data=[56, 0]),
   midi.NoteOnEvent(tick=0, channel=0, data=[68, 0]),
   midi.NoteOnEvent(tick=120, channel=0, data=[49, 39]),
   midi.ControlChangeEvent(tick=55, channel=0, data=[64, 127]),
   midi.NoteOnEvent(tick=65, channel=0, data=[49, 0]),
   midi.NoteOnEvent(tick=120, channel=0, data=[55, 32]),
   midi.NoteOnEvent(tick=80, channel=0, data=[56, 32]),
   midi.NoteOnEvent(tick=20, channel=0, data=[55, 0]),
   midi.NoteOnEvent(tick=60, channel=0, data=[61, 31]),
   midi.NoteOnEvent(tick=20, channel=0, data=[56, 0]),
   midi.NoteOnEvent(tick=60, channel=0, data=[65, 38]),
   midi.ControlChangeEvent(tick=15, channel=0, data=[64, 0]),
   midi.NoteOnEvent(tick=5, channel=0, data=[61, 0]),
   midi.ControlChangeEvent(tick=66, channel=0, data=[64, 127]),
   midi.NoteOnEvent(tick=34, channel=0, data=[65, 0]),
   midi.NoteOnEvent(tick=120, channel=0, data=[61, 40]),
   midi.NoteOnEvent(tick=0, channel=0, data=[56, 40]),
   midi.NoteOnEvent(tick=0, channel=0, data=[65, 40]),
   midi.NoteOnEvent(tick=240, channel=0, data=[65, 0]),
   midi.NoteOnEvent(tick=0, channel=0, data=[56, 0]),
   midi.NoteOnEvent(tick=0, channel=0, data=[61, 0]),
   midi.NoteOnEvent(tick=0, channel=0, data=[44, 38]),
   midi.NoteOnEvent(tick=120, channel=0, data=[44, 0]),
   midi.ControlChangeEvent(tick=6, channel=0, data=[64, 0]),
   midi.NoteOnEvent(tick=114, channel=0, data=[65, 30]),
   midi.NoteOnEvent(tick=0, channel=0, data=[56, 30]),
   midi.NoteOnEvent(tick=0, channel=0, data=[61, 30]),
   midi.NoteOnEvent(tick=120, channel=0, data=[61, 0]),
   midi.NoteOnEvent(tick=0, channel=0, data=[56, 0]),
   midi.NoteOnEvent(tick=0, channel=0, data=[65, 0]),
   midi.NoteOnEvent(tick=120, channel=0, data=[51, 46]),
   midi.ControlChangeEvent(tick=52, channel=0, data=[64, 127]),
   midi.NoteOnEvent(tick=68, channel=0, data=[51, 0]),
   midi.NoteOnEvent(tick=120, channel=0, data=[55, 38]),
   midi.NoteOnEvent(tick=80, channel=0, data=[56, 38]),
   midi.NoteOnEvent(tick=20, channel=0, data=[55, 0]),
   midi.NoteOnEvent(tick=60, channel=0, data=[60, 37]),
   midi.NoteOnEvent(tick=20, channel=0, data=[56, 0]),
   midi.NoteOnEvent(tick=60, channel=0, data=[66, 45]),
   midi.ControlChangeEvent(tick=11, channel=0, data=[64, 0]),
   midi.NoteOnEvent(tick=9, channel=0, data=[60, 0]),
   midi.ControlChangeEvent(tick=72, channel=0, data=[64, 127]),
   midi.NoteOnEvent(tick=28, channel=0, data=[66, 0]),
   midi.NoteOnEvent(tick=120, channel=0, data=[60, 48]),
   midi.NoteOnEvent(tick=0, channel=0, data=[56, 48]),
   midi.NoteOnEvent(tick=0, channel=0, data=[66, 48]),
   midi.NoteOnEvent(tick=240, channel=0, data=[66, 0]),
   midi.NoteOnEvent(tick=0, channel=0, data=[56, 0]),
   midi.NoteOnEvent(tick=0, channel=0, data=[60, 0]),
   midi.NoteOnEvent(tick=0, channel=0, data=[44, 45]),
   midi.ControlChangeEvent(tick=10, channel=0, data=[64, 0]),
   midi.ControlChangeEvent(tick=102, channel=0, data=[64, 127]),
   midi.NoteOnEvent(tick=8, channel=0, data=[44, 0]),
   midi.NoteOnEvent(tick=120, channel=0, data=[60, 36]),
   midi.NoteOnEvent(tick=0, channel=0, data=[56, 36]),
   midi.NoteOnEvent(tick=0, channel=0, data=[66, 36]),
   midi.NoteOnEvent(tick=120, channel=0, data=[66, 0]),
   midi.NoteOnEvent(tick=0, channel=0, data=[56, 0]),
   midi.NoteOnEvent(tick=0, channel=0, data=[60, 0]),
   midi.ControlChangeEvent(tick=120, channel=0, data=[64, 0]),
   midi.NoteOnEvent(tick=0, channel=0, data=[51, 49]),
   midi.ControlChangeEvent(tick=60, channel=0, data=[64, 127]),
   midi.NoteOnEvent(tick=60, channel=0, data=[51, 0]),
   midi.NoteOnEvent(tick=120, channel=0, data=[55, 38]),
   midi.NoteOnEvent(tick=80, channel=0, data=[56, 38]),
   midi.NoteOnEvent(tick=20, channel=0, data=[55, 0]),
   midi.NoteOnEvent(tick=60, channel=0, data=[60, 37]),
   midi.NoteOnEvent(tick=20, channel=0, data=[56, 0]),
   midi.NoteOnEvent(tick=60, channel=0, data=[66, 45]),
   midi.NoteOnEvent(tick=20, channel=0, data=[60, 0]),
   midi.ControlChangeEvent(tick=1, channel=0, data=[64, 0]),
   midi.NoteOnEvent(tick=99, channel=0, data=[66, 0]),
   midi.ControlChangeEvent(tick=17, channel=0, data=[64, 127]),
   midi.NoteOnEvent(tick=103, channel=0, data=[60, 43]),
   midi.NoteOnEvent(tick=0, channel=0, data=[66, 43]),
   midi.NoteOnEvent(tick=0, channel=0, data=[56, 43]),
   midi.NoteOnEvent(tick=240, channel=0, data=[56, 0]),
   midi.NoteOnEvent(tick=0, channel=0, data=[66, 0]),
   midi.NoteOnEvent(tick=0, channel=0, data=[60, 0]),
   midi.NoteOnEvent(tick=0, channel=0, data=[47, 33]),
   midi.ControlChangeEvent(tick=6, channel=0, data=[64, 0]),
   midi.ControlChangeEvent(tick=109, channel=0, data=[64, 127]),
   midi.NoteOnEvent(tick=65, channel=0, data=[58, 23]),
   midi.NoteOnEvent(tick=60, channel=0, data=[58, 0]),
   midi.NoteOnEvent(tick=0, channel=0, data=[59, 28]),
   midi.NoteOnEvent(tick=120, channel=0, data=[59, 0]),
   midi.NoteOnEvent(tick=120, channel=0, data=[47, 0]),
   midi.NoteOnEvent(tick=0, channel=0, data=[52, 42]),
   midi.ControlChangeEvent(tick=0, channel=0, data=[64, 0]),
   midi.ControlChangeEvent(tick=63, channel=0, data=[64, 127]),
   midi.NoteOnEvent(tick=57, channel=0, data=[52, 0]),
   midi.NoteOnEvent(tick=120, channel=0, data=[58, 36]),
   midi.NoteOnEvent(tick=80, channel=0, data=[59, 36]),
   midi.NoteOnEvent(tick=20, channel=0, data=[58, 0]),
   midi.NoteOnEvent(tick=60, channel=0, data=[61, 36]),
   midi.NoteOnEvent(tick=20, channel=0, data=[59, 0]),
   midi.NoteOnEvent(tick=60, channel=0, data=[61, 0]),
   midi.NoteOnEvent(tick=0, channel=0, data=[59, 49]),
   midi.ControlChangeEvent(tick=13, channel=0, data=[64, 0]),
   midi.ControlChangeEvent(tick=90, channel=0, data=[64, 127]),
   midi.NoteOnEvent(tick=17, channel=0, data=[59, 0]),
   midi.NoteOnEvent(tick=120, channel=0, data=[59, 44]),
   midi.NoteOnEvent(tick=240, channel=0, data=[59, 0]),
   midi.NoteOnEvent(tick=0, channel=0, data=[47, 44]),
   midi.NoteOnEvent(tick=120, channel=0, data=[47, 0]),
   midi.NoteOnEvent(tick=120, channel=0, data=[59, 44]),
   midi.NoteOnEvent(tick=0, channel=0, data=[53, 44]),
   midi.NoteOnEvent(tick=0, channel=0, data=[62, 44]),
   midi.NoteOnEvent(tick=120, channel=0, data=[62, 0]),
   midi.NoteOnEvent(tick=0, channel=0, data=[53, 0]),
   midi.NoteOnEvent(tick=0, channel=0, data=[59, 0]),
   midi.NoteOnEvent(tick=120, channel=0, data=[54, 50]),
   midi.ControlChangeEvent(tick=6, channel=0, data=[64, 0]),
   midi.ControlChangeEvent(tick=94, channel=0, data=[64, 127]),
   midi.NoteOnEvent(tick=20, channel=0, data=[54, 0]),
   midi.NoteOnEvent(tick=120, channel=0, data=[58, 41]),
   midi.NoteOnEvent(tick=80, channel=0, data=[59, 41]),
   midi.NoteOnEvent(tick=20, channel=0, data=[58, 0]),
   midi.NoteOnEvent(tick=60, channel=0, data=[61, 40]),
   midi.NoteOnEvent(tick=20, channel=0, data=[59, 0]),
   midi.NoteOnEvent(tick=60, channel=0, data=[61, 0]),
   midi.NoteOnEvent(tick=0, channel=0, data=[59, 55]),
   midi.ControlChangeEvent(tick=12, channel=0, data=[64, 0]),
   midi.ControlChangeEvent(tick=91, channel=0, data=[64, 127]),
   midi.NoteOnEvent(tick=17, channel=0, data=[59, 0]),
   midi.NoteOnEvent(tick=120, channel=0, data=[59, 56]),
   midi.NoteOnEvent(tick=240, channel=0, data=[59, 0]),
   midi.NoteOnEvent(tick=0, channel=0, data=[47, 51]),
   midi.NoteOnEvent(tick=120, channel=0, data=[47, 0]),
   midi.NoteOnEvent(tick=120, channel=0, data=[63, 47]),
   midi.NoteOnEvent(tick=0, channel=0, data=[59, 47]),
   midi.NoteOnEvent(tick=0, channel=0, data=[69, 47]),
   midi.NoteOnEvent(tick=120, channel=0, data=[69, 0]),
   midi.NoteOnEvent(tick=0, channel=0, data=[59, 0]),
   midi.NoteOnEvent(tick=0, channel=0, data=[63, 0]),
   midi.NoteOnEvent(tick=120, channel=0, data=[52, 42]),
   midi.ControlChangeEvent(tick=10, channel=0, data=[64, 0]),
   midi.NoteOnEvent(tick=110, channel=0, data=[52, 0]),
   midi.ControlChangeEvent(tick=0, channel=0, data=[64, 127]),
   midi.NoteOnEvent(tick=120, channel=0, data=[58, 34]),
   midi.NoteOnEvent(tick=80, channel=0, data=[59, 34]),
   midi.NoteOnEvent(tick=20, channel=0, data=[58, 0]),
   midi.NoteOnEvent(tick=60, channel=0, data=[61, 34]),
   midi.NoteOnEvent(tick=20, channel=0, data=[59, 0]),
   midi.NoteOnEvent(tick=60, channel=0, data=[61, 0]),
   midi.NoteOnEvent(tick=0, channel=0, data=[59, 46]),
   midi.ControlChangeEvent(tick=10, channel=0, data=[64, 0]),
   midi.ControlChangeEvent(tick=93, channel=0, data=[64, 127]),
   midi.NoteOnEvent(tick=17, channel=0, data=[59, 0]),
   midi.NoteOnEvent(tick=120, channel=0, data=[59, 41]),
   midi.NoteOnEvent(tick=240, channel=0, data=[59, 0]),
   midi.NoteOnEvent(tick=0, channel=0, data=[47, 41]),
   midi.NoteOnEvent(tick=120, channel=0, data=[47, 0]),
   midi.NoteOnEvent(tick=120, channel=0, data=[59, 37]),
   midi.NoteOnEvent(tick=0, channel=0, data=[53, 37]),
   midi.NoteOnEvent(tick=0, channel=0, data=[62, 37]),
   midi.NoteOnEvent(tick=120, channel=0, data=[62, 0]),
   midi.NoteOnEvent(tick=0, channel=0, data=[53, 0]),
   midi.NoteOnEvent(tick=0, channel=0, data=[59, 0]),
   midi.NoteOnEvent(tick=120, channel=0, data=[54, 42]),
   midi.ControlChangeEvent(tick=6, channel=0, data=[64, 0]),
   midi.ControlChangeEvent(tick=57, channel=0, data=[64, 127]),
   midi.NoteOnEvent(tick=57, channel=0, data=[54, 0]),
   midi.NoteOnEvent(tick=120, channel=0, data=[58, 34]),
   midi.NoteOnEvent(tick=80, channel=0, data=[59, 34]),
   midi.NoteOnEvent(tick=20, channel=0, data=[58, 0]),
   midi.NoteOnEvent(tick=60, channel=0, data=[61, 34]),
   midi.NoteOnEvent(tick=20, channel=0, data=[59, 0]),
   midi.NoteOnEvent(tick=60, channel=0, data=[61, 0]),
   midi.NoteOnEvent(tick=0, channel=0, data=[59, 46]),
   midi.ControlChangeEvent(tick=18, channel=0, data=[64, 0]),
   midi.ControlChangeEvent(tick=85, channel=0, data=[64, 127]),
   midi.NoteOnEvent(tick=17, channel=0, data=[59, 0]),
   midi.NoteOnEvent(tick=120, channel=0, data=[59, 46]),
   midi.NoteOnEvent(tick=240, channel=0, data=[59, 0]),
   midi.NoteOnEvent(tick=0, channel=0, data=[47, 48]),
   midi.NoteOnEvent(tick=120, channel=0, data=[47, 0]),
   midi.NoteOnEvent(tick=120, channel=0, data=[63, 43]),
   midi.NoteOnEvent(tick=0, channel=0, data=[59, 43]),
   midi.NoteOnEvent(tick=0, channel=0, data=[69, 43]),
   midi.NoteOnEvent(tick=120, channel=0, data=[69, 0]),
   midi.NoteOnEvent(tick=0, channel=0, data=[59, 0]),
   midi.NoteOnEvent(tick=0, channel=0, data=[63, 0]),
   midi.ControlChangeEvent(tick=120, channel=0, data=[64, 0]),
   midi.NoteOnEvent(tick=0, channel=0, data=[64, 69]),
   midi.ControlChangeEvent(tick=152, channel=0, data=[64, 127]),
   midi.NoteOnEvent(tick=88, channel=0, data=[64, 0]),
   midi.NoteOnEvent(tick=0, channel=0, data=[63, 56]),
   midi.NoteOnEvent(tick=80, channel=0, data=[64, 56]),
   midi.NoteOnEvent(tick=20, channel=0, data=[63, 0]),
   midi.NoteOnEvent(tick=60, channel=0, data=[63, 56]),
   midi.NoteOnEvent(tick=20, channel=0, data=[64, 0]),
   midi.NoteOnEvent(tick=60, channel=0, data=[63, 0]),
   midi.NoteOnEvent(tick=0, channel=0, data=[62, 66]),
   midi.ControlChangeEvent(tick=14, channel=0, data=[64, 0]),
   midi.ControlChangeEvent(tick=89, channel=0, data=[64, 127]),
   midi.NoteOnEvent(tick=137, channel=0, data=[62, 0]),
   midi.NoteOnEvent(tick=0, channel=0, data=[63, 53]),
   midi.NoteOnEvent(tick=240, channel=0, data=[63, 0]),
   midi.NoteOnEvent(tick=0, channel=0, data=[60, 60]),
   midi.ControlChangeEvent(tick=9, channel=0, data=[64, 0]),
   midi.ControlChangeEvent(tick=72, channel=0, data=[64, 127]),
   midi.NoteOnEvent(tick=159, channel=0, data=[60, 0]),
   midi.NoteOnEvent(tick=0, channel=0, data=[56, 55]),
   midi.NoteOnEvent(tick=240, channel=0, data=[56, 0]),
   midi.NoteOnEvent(tick=0, channel=0, data=[61, 60]),
   midi.ControlChangeEvent(tick=8, channel=0, data=[64, 0]),
   midi.NoteOnEvent(tick=232, channel=0, data=[61, 0]),
   midi.NoteOnEvent(tick=0, channel=0, data=[57, 55]),
   midi.ControlChangeEvent(tick=57, channel=0, data=[64, 127]),
   midi.NoteOnEvent(tick=183, channel=0, data=[57, 0]),
   midi.NoteOnEvent(tick=0, channel=0, data=[58, 58]),
   midi.ControlChangeEvent(tick=17, channel=0, data=[64, 0]),
   midi.ControlChangeEvent(tick=86, channel=0, data=[64, 127]),
   midi.NoteOnEvent(tick=137, channel=0, data=[58, 0]),
   midi.NoteOnEvent(tick=0, channel=0, data=[53, 54]),
   midi.ControlChangeEvent(tick=11, channel=0, data=[64, 0]),
   midi.ControlChangeEvent(tick=80, channel=0, data=[64, 127]),
   midi.NoteOnEvent(tick=149, channel=0, data=[53, 0]),
   midi.NoteOnEvent(tick=0, channel=0, data=[54, 57]),
   midi.ControlChangeEvent(tick=11, channel=0, data=[64, 0]),
   midi.ControlChangeEvent(tick=81, channel=0, data=[64, 127]),
   midi.NoteOnEvent(tick=148, channel=0, data=[54, 0]),
   midi.NoteOnEvent(tick=0, channel=0, data=[50, 53]),
   midi.NoteOnEvent(tick=0, channel=0, data=[59, 53]),
   midi.ControlChangeEvent(tick=12, channel=0, data=[64, 0]),
   midi.ControlChangeEvent(tick=91, channel=0, data=[64, 127]),
   midi.NoteOnEvent(tick=137, channel=0, data=[59, 0]),
   midi.NoteOnEvent(tick=0, channel=0, data=[50, 0]),
   midi.ControlChangeEvent(tick=0, channel=0, data=[64, 0]),
   midi.NoteOnEvent(tick=0, channel=0, data=[58, 49]),
   midi.NoteOnEvent(tick=0, channel=0, data=[51, 49]),
   midi.ControlChangeEvent(tick=116, channel=0, data=[64, 127]),
   midi.ControlChangeEvent(tick=382, channel=0, data=[64, 0]),
   midi.ControlChangeEvent(tick=81, channel=0, data=[64, 127]),
   midi.ControlChangeEvent(tick=400, channel=0, data=[64, 0]),
   midi.ControlChangeEvent(tick=77, channel=0, data=[64, 127]),
   midi.NoteOnEvent(tick=384, channel=0, data=[51, 0]),
   midi.NoteOnEvent(tick=0, channel=0, data=[58, 0]),
   midi.ControlChangeEvent(tick=0, channel=0, data=[64, 0]),
   midi.NoteOnEvent(tick=0, channel=0, data=[44, 50]),
   midi.ControlChangeEvent(tick=109, channel=0, data=[64, 127]),
   midi.NoteOnEvent(tick=131, channel=0, data=[44, 0]),
   midi.NoteOnEvent(tick=0, channel=0, data=[55, 41]),
   midi.NoteOnEvent(tick=80, channel=0, data=[56, 41]),
   midi.NoteOnEvent(tick=20, channel=0, data=[55, 0]),
   midi.NoteOnEvent(tick=60, channel=0, data=[58, 40]),
   midi.NoteOnEvent(tick=20, channel=0, data=[56, 0]),
   midi.NoteOnEvent(tick=60, channel=0, data=[58, 0]),
   midi.NoteOnEvent(tick=0, channel=0, data=[56, 50]),
   midi.ControlChangeEvent(tick=8, channel=0, data=[64, 0]),
   midi.NoteOnEvent(tick=232, channel=0, data=[56, 0]),
   midi.NoteOnEvent(tick=0, channel=0, data=[56, 50]),
   midi.ControlChangeEvent(tick=9, channel=0, data=[64, 127]),
   midi.NoteOnEvent(tick=231, channel=0, data=[56, 0]),
   midi.NoteOnEvent(tick=0, channel=0, data=[44, 46]),
   midi.NoteOnEvent(tick=240, channel=0, data=[56, 43]),
   midi.NoteOnEvent(tick=240, channel=0, data=[56, 0]),
   midi.NoteOnEvent(tick=0, channel=0, data=[44, 0]),
   midi.ControlChangeEvent(tick=0, channel=0, data=[64, 0]),
   midi.NoteOnEvent(tick=0, channel=0, data=[49, 40]),
   midi.ControlChangeEvent(tick=88, channel=0, data=[64, 127]),
   midi.ControlChangeEvent(tick=413, channel=0, data=[64, 0]),
   midi.ControlChangeEvent(tick=240, channel=0, data=[64, 127]),
   midi.NoteOnEvent(tick=219, channel=0, data=[49, 0]),
   midi.NoteOnEvent(tick=0, channel=0, data=[44, 40]),
   midi.NoteOnEvent(tick=240, channel=0, data=[44, 0]),
   midi.NoteOnEvent(tick=0, channel=0, data=[50, 47]),
   midi.ControlChangeEvent(tick=14, channel=0, data=[64, 0]),
   midi.NoteOnEvent(tick=226, channel=0, data=[50, 0]),
   midi.NoteOnEvent(tick=0, channel=0, data=[51, 58]),
   midi.ControlChangeEvent(tick=85, channel=0, data=[64, 127]),
   midi.ControlChangeEvent(tick=403, channel=0, data=[64, 0]),
   midi.ControlChangeEvent(tick=278, channel=0, data=[64, 127]),
   midi.NoteOnEvent(tick=194, channel=0, data=[51, 0]),
   midi.NoteOnEvent(tick=0, channel=0, data=[44, 47]),
   midi.NoteOnEvent(tick=240, channel=0, data=[44, 0]),
   midi.NoteOnEvent(tick=0, channel=0, data=[48, 42]),
   midi.ControlChangeEvent(tick=13, channel=0, data=[64, 0]),
   midi.NoteOnEvent(tick=227, channel=0, data=[48, 0]),
   midi.NoteOnEvent(tick=0, channel=0, data=[49, 27]),
   midi.ControlChangeEvent(tick=60, channel=0, data=[64, 127]),
   midi.ControlChangeEvent(tick=431, channel=0, data=[64, 0]),
   midi.ControlChangeEvent(tick=321, channel=0, data=[64, 127]),
   midi.NoteOnEvent(tick=148, channel=0, data=[49, 0]),
   midi.NoteOnEvent(tick=0, channel=0, data=[44, 27]),
   midi.NoteOnEvent(tick=240, channel=0, data=[44, 0]),
   midi.NoteOnEvent(tick=0, channel=0, data=[50, 31]),
   midi.ControlChangeEvent(tick=14, channel=0, data=[64, 0]),
   midi.NoteOnEvent(tick=226, channel=0, data=[50, 0]),
   midi.NoteOnEvent(tick=0, channel=0, data=[51, 36]),
   midi.ControlChangeEvent(tick=85, channel=0, data=[64, 127]),
   midi.ControlChangeEvent(tick=407, channel=0, data=[64, 0]),
   midi.ControlChangeEvent(tick=274, channel=0, data=[64, 127]),
   midi.NoteOnEvent(tick=194, channel=0, data=[51, 0]),
   midi.NoteOnEvent(tick=0, channel=0, data=[44, 31]),
   midi.NoteOnEvent(tick=240, channel=0, data=[44, 0]),
   midi.NoteOnEvent(tick=0, channel=0, data=[48, 34]),
   midi.NoteOnEvent(tick=240, channel=0, data=[48, 0]),
   midi.ControlChangeEvent(tick=0, channel=0, data=[64, 0]),
   midi.NoteOnEvent(tick=0, channel=0, data=[61, 63]),
   midi.ControlChangeEvent(tick=63, channel=0, data=[64, 127]),
   midi.NoteOnEvent(tick=177, channel=0, data=[61, 0]),
   midi.NoteOnEvent(tick=0, channel=0, data=[59, 56]),
   midi.NoteOnEvent(tick=80, channel=0, data=[61, 56]),
   midi.NoteOnEvent(tick=20, channel=0, data=[59, 0]),
   midi.NoteOnEvent(tick=60, channel=0, data=[59, 56]),
   midi.NoteOnEvent(tick=20, channel=0, data=[61, 0]),
   midi.NoteOnEvent(tick=60, channel=0, data=[59, 0]),
   midi.NoteOnEvent(tick=0, channel=0, data=[57, 62]),
   midi.ControlChangeEvent(tick=10, channel=0, data=[64, 0]),
   midi.ControlChangeEvent(tick=93, channel=0, data=[64, 127]),
   midi.NoteOnEvent(tick=137, channel=0, data=[57, 0]),
   midi.NoteOnEvent(tick=0, channel=0, data=[59, 56]),
   midi.NoteOnEvent(tick=240, channel=0, data=[59, 0]),
   midi.NoteOnEvent(tick=0, channel=0, data=[61, 63]),
   midi.ControlChangeEvent(tick=17, channel=0, data=[64, 0]),
   midi.ControlChangeEvent(tick=68, channel=0, data=[64, 127]),
   midi.NoteOnEvent(tick=155, channel=0, data=[61, 0]),
   midi.NoteOnEvent(tick=0, channel=0, data=[63, 58]),
   midi.NoteOnEvent(tick=240, channel=0, data=[63, 0]),
   midi.NoteOnEvent(tick=0, channel=0, data=[61, 68]),
   midi.ControlChangeEvent(tick=8, channel=0, data=[64, 0]),
   midi.ControlChangeEvent(tick=55, channel=0, data=[64, 127]),
   midi.NoteOnEvent(tick=177, channel=0, data=[61, 0]),
   midi.NoteOnEvent(tick=0, channel=0, data=[60, 52]),
   midi.NoteOnEvent(tick=80, channel=0, data=[61, 52]),
   midi.NoteOnEvent(tick=20, channel=0, data=[60, 0]),
   midi.NoteOnEvent(tick=60, channel=0, data=[60, 52]),
   midi.NoteOnEvent(tick=20, channel=0, data=[61, 0]),
   midi.NoteOnEvent(tick=60, channel=0, data=[60, 0]),
   midi.NoteOnEvent(tick=0, channel=0, data=[56, 57]),
   midi.ControlChangeEvent(tick=15, channel=0, data=[64, 0]),
   midi.ControlChangeEvent(tick=88, channel=0, data=[64, 127]),
   midi.NoteOnEvent(tick=857, channel=0, data=[56, 0]),
   midi.ControlChangeEvent(tick=0, channel=0, data=[64, 0]),
   midi.NoteOnEvent(tick=0, channel=0, data=[61, 34]),
   midi.ControlChangeEvent(tick=106, channel=0, data=[64, 127]),
   midi.NoteOnEvent(tick=134, channel=0, data=[61, 0]),
   midi.NoteOnEvent(tick=0, channel=0, data=[59, 30]),
   midi.NoteOnEvent(tick=80, channel=0, data=[61, 30]),
   midi.NoteOnEvent(tick=20, channel=0, data=[59, 0]),
   midi.NoteOnEvent(tick=60, channel=0, data=[59, 30]),
   midi.NoteOnEvent(tick=20, channel=0, data=[61, 0]),
   midi.NoteOnEvent(tick=60, channel=0, data=[59, 0]),
   midi.NoteOnEvent(tick=0, channel=0, data=[57, 33]),
   midi.ControlChangeEvent(tick=11, channel=0, data=[64, 0]),
   midi.ControlChangeEvent(tick=92, channel=0, data=[64, 127]),
   midi.NoteOnEvent(tick=137, channel=0, data=[57, 0]),
   midi.NoteOnEvent(tick=0, channel=0, data=[59, 30]),
   midi.NoteOnEvent(tick=240, channel=0, data=[59, 0]),
   midi.NoteOnEvent(tick=0, channel=0, data=[61, 34]),
   midi.ControlChangeEvent(tick=10, channel=0, data=[64, 0]),
   midi.ControlChangeEvent(tick=89, channel=0, data=[64, 127]),
   midi.NoteOnEvent(tick=141, channel=0, data=[61, 0]),
   midi.NoteOnEvent(tick=0, channel=0, data=[63, 31]),
   midi.NoteOnEvent(tick=240, channel=0, data=[63, 0]),
   midi.ControlChangeEvent(tick=0, channel=0, data=[64, 0]),
   midi.NoteOnEvent(tick=0, channel=0, data=[61, 39]),
   midi.ControlChangeEvent(tick=63, channel=0, data=[64, 127]),
   midi.NoteOnEvent(tick=177, channel=0, data=[61, 0]),
   midi.NoteOnEvent(tick=0, channel=0, data=[60, 28]),
   midi.NoteOnEvent(tick=80, channel=0, data=[61, 28]),
   midi.NoteOnEvent(tick=20, channel=0, data=[60, 0]),
   midi.NoteOnEvent(tick=60, channel=0, data=[60, 28]),
   midi.NoteOnEvent(tick=20, channel=0, data=[61, 0]),
   midi.NoteOnEvent(tick=60, channel=0, data=[60, 0]),
   midi.NoteOnEvent(tick=0, channel=0, data=[56, 30]),
   midi.ControlChangeEvent(tick=6, channel=0, data=[64, 0]),
   midi.ControlChangeEvent(tick=97, channel=0, data=[64, 127]),
   midi.NoteOnEvent(tick=857, channel=0, data=[56, 0]),
   midi.NoteOnEvent(tick=0, channel=0, data=[54, 46]),
   midi.NoteOnEvent(tick=0, channel=0, data=[61, 52]),
   midi.ControlChangeEvent(tick=9, channel=0, data=[64, 0]),
   midi.ControlChangeEvent(tick=125, channel=0, data=[64, 127]),
   midi.ControlChangeEvent(tick=357, channel=0, data=[64, 0]),
   midi.ControlChangeEvent(tick=123, channel=0, data=[64, 127]),
   midi.NoteOnEvent(tick=346, channel=0, data=[61, 0]),
   midi.NoteOnEvent(tick=0, channel=0, data=[54, 0]),
   midi.NoteOnEvent(tick=0, channel=0, data=[49, 47]),
   midi.NoteOnEvent(tick=0, channel=0, data=[56, 47]),
   midi.ControlChangeEvent(tick=14, channel=0, data=[64, 0]),
   midi.ControlChangeEvent(tick=82, channel=0, data=[64, 127]),
   midi.NoteOnEvent(tick=384, channel=0, data=[56, 0]),
   midi.NoteOnEvent(tick=0, channel=0, data=[49, 0]),
   midi.NoteOnEvent(tick=0, channel=0, data=[54, 37]),
   midi.NoteOnEvent(tick=0, channel=0, data=[61, 37]),
   midi.ControlChangeEvent(tick=5, channel=0, data=[64, 0]),
   midi.ControlChangeEvent(tick=186, channel=0, data=[64, 127]),
   midi.ControlChangeEvent(tick=301, channel=0, data=[64, 0]),
   midi.ControlChangeEvent(tick=122, channel=0, data=[64, 127]),
   midi.NoteOnEvent(tick=346, channel=0, data=[61, 0]),
   midi.NoteOnEvent(tick=0, channel=0, data=[54, 0]),
   midi.NoteOnEvent(tick=0, channel=0, data=[49, 33]),
   midi.NoteOnEvent(tick=0, channel=0, data=[56, 33]),
   midi.ControlChangeEvent(tick=16, channel=0, data=[64, 0]),
   midi.ControlChangeEvent(tick=104, channel=0, data=[64, 127]),
   midi.NoteOnEvent(tick=360, channel=0, data=[56, 0]),
   midi.NoteOnEvent(tick=0, channel=0, data=[49, 0]),
   midi.NoteOnEvent(tick=0, channel=0, data=[56, 37]),
   midi.NoteOnEvent(tick=0, channel=0, data=[63, 41]),
   midi.ControlChangeEvent(tick=4, channel=0, data=[64, 0]),
   midi.ControlChangeEvent(tick=169, channel=0, data=[64, 127]),
   midi.NoteOnEvent(tick=67, channel=0, data=[63, 0]),
   midi.NoteOnEvent(tick=0, channel=0, data=[61, 37]),
   midi.NoteOnEvent(tick=240, channel=0, data=[61, 0]),
   midi.NoteOnEvent(tick=0, channel=0, data=[60, 41]),
   midi.ControlChangeEvent(tick=9, channel=0, data=[64, 0]),
   midi.ControlChangeEvent(tick=125, channel=0, data=[64, 127]),
   midi.NoteOnEvent(tick=346, channel=0, data=[60, 0]),
   midi.NoteOnEvent(tick=0, channel=0, data=[61, 34]),
   midi.ControlChangeEvent(tick=18, channel=0, data=[64, 0]),
   midi.ControlChangeEvent(tick=88, channel=0, data=[64, 127]),
   midi.NoteOnEvent(tick=134, channel=0, data=[61, 0]),
   midi.NoteOnEvent(tick=0, channel=0, data=[63, 36]),
   midi.NoteOnEvent(tick=240, channel=0, data=[63, 0]),
   midi.NoteOnEvent(tick=0, channel=0, data=[64, 39]),
   midi.ControlChangeEvent(tick=3, channel=0, data=[64, 0]),
   midi.ControlChangeEvent(tick=157, channel=0, data=[64, 127]),
   midi.NoteOnEvent(tick=80, channel=0, data=[64, 0]),
   midi.NoteOnEvent(tick=0, channel=0, data=[63, 36]),
   midi.NoteOnEvent(tick=240, channel=0, data=[63, 0]),
   midi.NoteOnEvent(tick=0, channel=0, data=[61, 39]),
   midi.ControlChangeEvent(tick=17, channel=0, data=[64, 0]),
   midi.ControlChangeEvent(tick=98, channel=0, data=[64, 127]),
   midi.NoteOnEvent(tick=125, channel=0, data=[61, 0]),
   midi.NoteOnEvent(tick=0, channel=0, data=[63, 34]),
   midi.NoteOnEvent(tick=240, channel=0, data=[63, 0]),
   midi.NoteOnEvent(tick=0, channel=0, data=[60, 37]),
   midi.ControlChangeEvent(tick=6, channel=0, data=[64, 0]),
   midi.ControlChangeEvent(tick=154, channel=0, data=[64, 127]),
   midi.NoteOnEvent(tick=80, channel=0, data=[60, 0]),
   midi.NoteOnEvent(tick=0, channel=0, data=[56, 0]),
   midi.NoteOnEvent(tick=0, channel=0, data=[56, 34]),
   midi.NoteOnEvent(tick=240, channel=0, data=[56, 0]),
   midi.ControlChangeEvent(tick=0, channel=0, data=[64, 0]),
   midi.NoteOnEvent(tick=0, channel=0, data=[61, 48]),
   midi.ControlChangeEvent(tick=99, channel=0, data=[64, 127]),
   midi.NoteOnEvent(tick=141, channel=0, data=[61, 0]),
   midi.NoteOnEvent(tick=0, channel=0, data=[59, 41]),
   midi.NoteOnEvent(tick=80, channel=0, data=[61, 41]),
   midi.NoteOnEvent(tick=20, channel=0, data=[59, 0]),
   midi.NoteOnEvent(tick=60, channel=0, data=[59, 41]),
   midi.NoteOnEvent(tick=20, channel=0, data=[61, 0]),
   midi.NoteOnEvent(tick=60, channel=0, data=[59, 0]),
   midi.NoteOnEvent(tick=0, channel=0, data=[57, 47]),
   midi.ControlChangeEvent(tick=14, channel=0, data=[64, 0]),
   midi.ControlChangeEvent(tick=89, channel=0, data=[64, 127]),
   midi.NoteOnEvent(tick=137, channel=0, data=[57, 0]),
   midi.NoteOnEvent(tick=0, channel=0, data=[59, 41]),
   midi.NoteOnEvent(tick=240, channel=0, data=[59, 0]),
   midi.NoteOnEvent(tick=0, channel=0, data=[61, 48]),
   midi.ControlChangeEvent(tick=10, channel=0, data=[64, 0]),
   midi.ControlChangeEvent(tick=86, channel=0, data=[64, 127]),
   midi.NoteOnEvent(tick=144, channel=0, data=[61, 0]),
   midi.NoteOnEvent(tick=0, channel=0, data=[63, 43]),
   midi.NoteOnEvent(tick=240, channel=0, data=[63, 0]),
   midi.NoteOnEvent(tick=0, channel=0, data=[61, 53]),
   midi.ControlChangeEvent(tick=8, channel=0, data=[64, 0]),
   midi.ControlChangeEvent(tick=55, channel=0, data=[64, 127]),
   midi.NoteOnEvent(tick=177, channel=0, data=[61, 0]),
   midi.NoteOnEvent(tick=0, channel=0, data=[60, 39]),
   midi.NoteOnEvent(tick=80, channel=0, data=[61, 39]),
   midi.NoteOnEvent(tick=20, channel=0, data=[60, 0]),
   midi.NoteOnEvent(tick=60, channel=0, data=[60, 39]),
   midi.NoteOnEvent(tick=20, channel=0, data=[61, 0]),
   midi.NoteOnEvent(tick=60, channel=0, data=[60, 0]),
   midi.NoteOnEvent(tick=0, channel=0, data=[56, 42]),
   midi.ControlChangeEvent(tick=10, channel=0, data=[64, 0]),
   midi.ControlChangeEvent(tick=93, channel=0, data=[64, 127]),
   midi.NoteOnEvent(tick=857, channel=0, data=[56, 0]),
   midi.NoteOnEvent(tick=0, channel=0, data=[61, 34]),
   midi.ControlChangeEvent(tick=9, channel=0, data=[64, 0]),
   midi.ControlChangeEvent(tick=118, channel=0, data=[64, 127]),
   midi.NoteOnEvent(tick=113, channel=0, data=[61, 0]),
   midi.NoteOnEvent(tick=0, channel=0, data=[59, 30]),
   midi.NoteOnEvent(tick=80, channel=0, data=[61, 30]),
   midi.NoteOnEvent(tick=20, channel=0, data=[59, 0]),
   midi.NoteOnEvent(tick=60, channel=0, data=[59, 30]),
   midi.NoteOnEvent(tick=20, channel=0, data=[61, 0]),
   midi.NoteOnEvent(tick=60, channel=0, data=[59, 0]),
   midi.NoteOnEvent(tick=0, channel=0, data=[57, 33]),
   midi.ControlChangeEvent(tick=19, channel=0, data=[64, 0]),
   midi.ControlChangeEvent(tick=84, channel=0, data=[64, 127]),
   midi.NoteOnEvent(tick=137, channel=0, data=[57, 0]),
   midi.NoteOnEvent(tick=0, channel=0, data=[59, 30]),
   midi.NoteOnEvent(tick=240, channel=0, data=[59, 0]),
   midi.NoteOnEvent(tick=0, channel=0, data=[61, 34]),
   midi.ControlChangeEvent(tick=11, channel=0, data=[64, 0]),
   midi.ControlChangeEvent(tick=70, channel=0, data=[64, 127]),
   midi.NoteOnEvent(tick=159, channel=0, data=[61, 0]),
   midi.NoteOnEvent(tick=0, channel=0, data=[63, 31]),
   midi.NoteOnEvent(tick=240, channel=0, data=[63, 0]),
   midi.NoteOnEvent(tick=0, channel=0, data=[61, 39]),
   midi.ControlChangeEvent(tick=11, channel=0, data=[64, 0]),
   midi.ControlChangeEvent(tick=89, channel=0, data=[64, 127]),
   midi.NoteOnEvent(tick=140, channel=0, data=[61, 0]),
   midi.NoteOnEvent(tick=0, channel=0, data=[60, 28]),
   midi.NoteOnEvent(tick=80, channel=0, data=[61, 28]),
   midi.NoteOnEvent(tick=20, channel=0, data=[60, 0]),
   midi.NoteOnEvent(tick=60, channel=0, data=[60, 28]),
   midi.NoteOnEvent(tick=20, channel=0, data=[61, 0]),
   midi.NoteOnEvent(tick=60, channel=0, data=[60, 0]),
   midi.NoteOnEvent(tick=0, channel=0, data=[56, 30]),
   midi.ControlChangeEvent(tick=15, channel=0, data=[64, 0]),
   midi.ControlChangeEvent(tick=88, channel=0, data=[64, 127]),
   midi.NoteOnEvent(tick=857, channel=0, data=[56, 0]),
   midi.NoteOnEvent(tick=0, channel=0, data=[54, 47]),
   midi.NoteOnEvent(tick=0, channel=0, data=[61, 52]),
   midi.ControlChangeEvent(tick=8, channel=0, data=[64, 0]),
   midi.ControlChangeEvent(tick=109, channel=0, data=[64, 127]),
   midi.ControlChangeEvent(tick=375, channel=0, data=[64, 0]),
   midi.ControlChangeEvent(tick=122, channel=0, data=[64, 127]),
   midi.NoteOnEvent(tick=346, channel=0, data=[61, 0]),
   midi.NoteOnEvent(tick=0, channel=0, data=[54, 0]),
   midi.NoteOnEvent(tick=0, channel=0, data=[49, 47]),
   midi.NoteOnEvent(tick=0, channel=0, data=[56, 47]),
   midi.ControlChangeEvent(tick=13, channel=0, data=[64, 0]),
   midi.ControlChangeEvent(tick=68, channel=0, data=[64, 127]),
   midi.NoteOnEvent(tick=399, channel=0, data=[56, 0]),
   midi.NoteOnEvent(tick=0, channel=0, data=[49, 0]),
   midi.NoteOnEvent(tick=0, channel=0, data=[54, 37]),
   midi.NoteOnEvent(tick=0, channel=0, data=[61, 37]),
   midi.ControlChangeEvent(tick=14, channel=0, data=[64, 0]),
   midi.ControlChangeEvent(tick=131, channel=0, data=[64, 127]),
   midi.ControlChangeEvent(tick=351, channel=0, data=[64, 0]),
   midi.ControlChangeEvent(tick=118, channel=0, data=[64, 127]),
   midi.NoteOnEvent(tick=346, channel=0, data=[61, 0]),
   midi.NoteOnEvent(tick=0, channel=0, data=[54, 0]),
   midi.NoteOnEvent(tick=0, channel=0, data=[49, 33]),
   midi.NoteOnEvent(tick=0, channel=0, data=[56, 33]),
   midi.ControlChangeEvent(tick=17, channel=0, data=[64, 0]),
   midi.ControlChangeEvent(tick=71, channel=0, data=[64, 127]),
   midi.NoteOnEvent(tick=392, channel=0, data=[56, 0]),
   midi.NoteOnEvent(tick=0, channel=0, data=[49, 0]),
   midi.NoteOnEvent(tick=0, channel=0, data=[59, 51]),
   midi.ControlChangeEvent(tick=16, channel=0, data=[64, 0]),
   midi.ControlChangeEvent(tick=90, channel=0, data=[64, 127]),
   midi.NoteOnEvent(tick=134, channel=0, data=[59, 0]),
   midi.NoteOnEvent(tick=0, channel=0, data=[57, 46]),
   midi.NoteOnEvent(tick=80, channel=0, data=[59, 45]),
   midi.NoteOnEvent(tick=20, channel=0, data=[57, 0]),
   midi.NoteOnEvent(tick=60, channel=0, data=[57, 45]),
   midi.NoteOnEvent(tick=20, channel=0, data=[59, 0]),
   midi.NoteOnEvent(tick=60, channel=0, data=[57, 0]),
   midi.NoteOnEvent(tick=0, channel=0, data=[56, 52]),
   midi.ControlChangeEvent(tick=24, channel=0, data=[64, 0]),
   midi.ControlChangeEvent(tick=79, channel=0, data=[64, 127]),
   midi.NoteOnEvent(tick=377, channel=0, data=[56, 0]),
   midi.NoteOnEvent(tick=0, channel=0, data=[59, 41]),
   midi.ControlChangeEvent(tick=15, channel=0, data=[64, 0]),
   midi.ControlChangeEvent(tick=88, channel=0, data=[64, 127]),
   midi.NoteOnEvent(tick=137, channel=0, data=[59, 0]),
   midi.NoteOnEvent(tick=0, channel=0, data=[57, 39]),
   midi.NoteOnEvent(tick=120, channel=0, data=[57, 0]),
   midi.NoteOnEvent(tick=0, channel=0, data=[44, 37]),
   midi.NoteOnEvent(tick=30, channel=0, data=[54, 45]),
   midi.ControlChangeEvent(tick=99, channel=0, data=[64, 0]),
   midi.ControlChangeEvent(tick=111, channel=0, data=[64, 127]),
   midi.NoteOnEvent(tick=360, channel=0, data=[54, 0]),
   midi.NoteOnEvent(tick=0, channel=0, data=[44, 0]),
   midi.NoteOnEvent(tick=0, channel=0, data=[49, 40]),
   midi.NoteOnEvent(tick=0, channel=0, data=[52, 40]),
   midi.ControlChangeEvent(tick=16, channel=0, data=[64, 0]),
   midi.ControlChangeEvent(tick=58, channel=0, data=[64, 127]),
   midi.NoteOnEvent(tick=166, channel=0, data=[52, 0]),
   midi.NoteOnEvent(tick=0, channel=0, data=[54, 39]),
   midi.NoteOnEvent(tick=240, channel=0, data=[54, 0]),
   midi.NoteOnEvent(tick=0, channel=0, data=[52, 40]),
   midi.ControlChangeEvent(tick=15, channel=0, data=[64, 0]),
   midi.ControlChangeEvent(tick=108, channel=0, data=[64, 127]),
   midi.NoteOnEvent(tick=357, channel=0, data=[52, 0]),
   midi.NoteOnEvent(tick=0, channel=0, data=[49, 0]),
   midi.NoteOnEvent(tick=0, channel=0, data=[56, 50]),
   midi.ControlChangeEvent(tick=8, channel=0, data=[64, 0]),
   midi.ControlChangeEvent(tick=218, channel=0, data=[64, 127]),
   midi.ControlChangeEvent(tick=271, channel=0, data=[64, 0]),
   midi.ControlChangeEvent(tick=96, channel=0, data=[64, 127]),
   midi.NoteOnEvent(tick=127, channel=0, data=[56, 0]),
   midi.NoteOnEvent(tick=0, channel=0, data=[54, 50]),
   midi.NoteOnEvent(tick=120, channel=0, data=[54, 0]),
   midi.NoteOnEvent(tick=0, channel=0, data=[56, 48]),
   midi.NoteOnEvent(tick=120, channel=0, data=[56, 0]),
   midi.NoteOnEvent(tick=0, channel=0, data=[57, 52]),
   midi.NoteOnEvent(tick=120, channel=0, data=[57, 0]),
   midi.NoteOnEvent(tick=0, channel=0, data=[59, 50]),
   midi.NoteOnEvent(tick=120, channel=0, data=[59, 0]),
   midi.NoteOnEvent(tick=0, channel=0, data=[57, 50]),
   midi.NoteOnEvent(tick=120, channel=0, data=[57, 0]),
   midi.NoteOnEvent(tick=0, channel=0, data=[54, 46]),
   midi.NoteOnEvent(tick=120, channel=0, data=[54, 0]),
   midi.NoteOnEvent(tick=0, channel=0, data=[56, 52]),
   midi.ControlChangeEvent(tick=12, channel=0, data=[64, 0]),
   midi.ControlChangeEvent(tick=94, channel=0, data=[64, 127]),
   midi.NoteOnEvent(tick=134, channel=0, data=[56, 0]),
   midi.NoteOnEvent(tick=0, channel=0, data=[57, 47]),
   midi.NoteOnEvent(tick=80, channel=0, data=[59, 47]),
   midi.NoteOnEvent(tick=20, channel=0, data=[57, 0]),
   midi.NoteOnEvent(tick=60, channel=0, data=[57, 47]),
   midi.NoteOnEvent(tick=20, channel=0, data=[59, 0]),
   midi.NoteOnEvent(tick=60, channel=0, data=[56, 52]),
   midi.ControlChangeEvent(tick=19, channel=0, data=[64, 0]),
   midi.NoteOnEvent(tick=1, channel=0, data=[57, 0]),
   midi.ControlChangeEvent(tick=86, channel=0, data=[64, 127]),
   midi.NoteOnEvent(tick=134, channel=0, data=[56, 0]),
   midi.NoteOnEvent(tick=0, channel=0, data=[69, 54]),
   midi.NoteOnEvent(tick=80, channel=0, data=[71, 54]),
   midi.NoteOnEvent(tick=20, channel=0, data=[69, 0]),
   midi.NoteOnEvent(tick=60, channel=0, data=[69, 55]),
   midi.NoteOnEvent(tick=20, channel=0, data=[71, 0]),
   midi.NoteOnEvent(tick=60, channel=0, data=[68, 65]),
   midi.ControlChangeEvent(tick=19, channel=0, data=[64, 0]),
   midi.NoteOnEvent(tick=1, channel=0, data=[69, 0]),
   midi.ControlChangeEvent(tick=86, channel=0, data=[64, 127]),
   midi.NoteOnEvent(tick=134, channel=0, data=[68, 0]),
   midi.NoteOnEvent(tick=240, channel=0, data=[44, 57]),
   midi.ControlChangeEvent(tick=4, channel=0, data=[64, 0]),
   midi.ControlChangeEvent(tick=109, channel=0, data=[64, 127]),
   midi.NoteOnEvent(tick=7, channel=0, data=[44, 0]),
   midi.NoteOnEvent(tick=120, channel=0, data=[63, 51]),
   midi.NoteOnEvent(tick=80, channel=0, data=[64, 51]),
   midi.NoteOnEvent(tick=20, channel=0, data=[63, 0]),
   midi.NoteOnEvent(tick=60, channel=0, data=[63, 51]),
   midi.NoteOnEvent(tick=20, channel=0, data=[64, 0]),
   midi.NoteOnEvent(tick=60, channel=0, data=[56, 60]),
   midi.ControlChangeEvent(tick=13, channel=0, data=[64, 0]),
   midi.NoteOnEvent(tick=7, channel=0, data=[63, 0]),
   midi.ControlChangeEvent(tick=65, channel=0, data=[64, 127]),
   midi.NoteOnEvent(tick=155, channel=0, data=[63, 50]),
   midi.NoteOnEvent(tick=240, channel=0, data=[63, 0]),
   midi.NoteOnEvent(tick=0, channel=0, data=[68, 53]),
   midi.ControlChangeEvent(tick=21, channel=0, data=[64, 0]),
   midi.ControlChangeEvent(tick=82, channel=0, data=[64, 127]),
   midi.NoteOnEvent(tick=137, channel=0, data=[68, 0]),
   midi.NoteOnEvent(tick=0, channel=0, data=[66, 50]),
   midi.NoteOnEvent(tick=240, channel=0, data=[66, 0]),
   midi.NoteOnEvent(tick=0, channel=0, data=[64, 56]),
   midi.ControlChangeEvent(tick=5, channel=0, data=[64, 0]),
   midi.ControlChangeEvent(tick=69, channel=0, data=[64, 127]),
   midi.NoteOnEvent(tick=166, channel=0, data=[64, 0]),
   midi.NoteOnEvent(tick=0, channel=0, data=[63, 52]),
   midi.NoteOnEvent(tick=120, channel=0, data=[63, 0]),
   midi.NoteOnEvent(tick=0, channel=0, data=[61, 52]),
   midi.NoteOnEvent(tick=120, channel=0, data=[61, 0]),
   midi.NoteOnEvent(tick=0, channel=0, data=[60, 55]),
   midi.ControlChangeEvent(tick=12, channel=0, data=[64, 0]),
   midi.ControlChangeEvent(tick=76, channel=0, data=[64, 127]),
   midi.NoteOnEvent(tick=152, channel=0, data=[60, 0]),
   midi.NoteOnEvent(tick=0, channel=0, data=[61, 53]),
   midi.NoteOnEvent(tick=240, channel=0, data=[61, 0]),
   midi.NoteOnEvent(tick=0, channel=0, data=[60, 53]),
   midi.ControlChangeEvent(tick=16, channel=0, data=[64, 0]),
   midi.ControlChangeEvent(tick=118, channel=0, data=[64, 127]),
   midi.NoteOnEvent(tick=346, channel=0, data=[60, 0]),
   midi.NoteOnEvent(tick=0, channel=0, data=[56, 0]),
   midi.NoteOnEvent(tick=0, channel=0, data=[56, 45]),
   midi.ControlChangeEvent(tick=7, channel=0, data=[64, 0]),
   midi.ControlChangeEvent(tick=120, channel=0, data=[64, 127]),
   midi.ControlChangeEvent(tick=374, channel=0, data=[64, 0]),
   midi.ControlChangeEvent(tick=127, channel=0, data=[64, 127]),
   midi.NoteOnEvent(tick=92, channel=0, data=[56, 0]),
   midi.NoteOnEvent(tick=0, channel=0, data=[54, 45]),
   midi.NoteOnEvent(tick=120, channel=0, data=[54, 0]),
   midi.NoteOnEvent(tick=0, channel=0, data=[56, 43]),
   midi.NoteOnEvent(tick=120, channel=0, data=[56, 0]),
   midi.NoteOnEvent(tick=0, channel=0, data=[57, 46]),
   midi.NoteOnEvent(tick=120, channel=0, data=[57, 0]),
   midi.NoteOnEvent(tick=0, channel=0, data=[59, 45]),
   midi.NoteOnEvent(tick=120, channel=0, data=[59, 0]),
   midi.NoteOnEvent(tick=0, channel=0, data=[57, 45]),
   midi.NoteOnEvent(tick=120, channel=0, data=[57, 0]),
   midi.NoteOnEvent(tick=0, channel=0, data=[54, 41]),
   midi.NoteOnEvent(tick=120, channel=0, data=[54, 0]),
   midi.NoteOnEvent(tick=0, channel=0, data=[56, 46]),
   midi.ControlChangeEvent(tick=5, channel=0, data=[64, 0]),
   midi.ControlChangeEvent(tick=108, channel=0, data=[64, 127]),
   midi.NoteOnEvent(tick=127, channel=0, data=[56, 0]),
   midi.NoteOnEvent(tick=0, channel=0, data=[57, 42]),
   midi.NoteOnEvent(tick=80, channel=0, data=[59, 42]),
   midi.NoteOnEvent(tick=20, channel=0, data=[57, 0]),
   midi.NoteOnEvent(tick=60, channel=0, data=[57, 42]),
   midi.NoteOnEvent(tick=20, channel=0, data=[59, 0]),
   midi.NoteOnEvent(tick=60, channel=0, data=[56, 46]),
   midi.ControlChangeEvent(tick=14, channel=0, data=[64, 0]),
   midi.NoteOnEvent(tick=6, channel=0, data=[57, 0]),
   midi.ControlChangeEvent(tick=114, channel=0, data=[64, 127]),
   midi.NoteOnEvent(tick=106, channel=0, data=[56, 0]),
   midi.NoteOnEvent(tick=0, channel=0, data=[69, 48]),
   midi.NoteOnEvent(tick=80, channel=0, data=[71, 48]),
   midi.NoteOnEvent(tick=20, channel=0, data=[69, 0]),
   midi.NoteOnEvent(tick=60, channel=0, data=[69, 48]),
   midi.NoteOnEvent(tick=20, channel=0, data=[71, 0]),
   midi.NoteOnEvent(tick=60, channel=0, data=[68, 50]),
   midi.ControlChangeEvent(tick=10, channel=0, data=[64, 0]),
   midi.NoteOnEvent(tick=10, channel=0, data=[69, 0]),
   midi.ControlChangeEvent(tick=36, channel=0, data=[64, 127]),
   midi.NoteOnEvent(tick=184, channel=0, data=[68, 0]),
   midi.NoteOnEvent(tick=0, channel=0, data=[59, 30]),
   midi.NoteOnEvent(tick=0, channel=0, data=[69, 39]),
   midi.ControlChangeEvent(tick=16, channel=0, data=[64, 0]),
   midi.ControlChangeEvent(tick=51, channel=0, data=[64, 127]),
   midi.NoteOnEvent(tick=173, channel=0, data=[69, 0]),
   midi.NoteOnEvent(tick=0, channel=0, data=[59, 0]),
   midi.NoteOnEvent(tick=0, channel=0, data=[64, 40]),
   midi.NoteOnEvent(tick=0, channel=0, data=[68, 40]),
   midi.ControlChangeEvent(tick=16, channel=0, data=[64, 0]),
   midi.ControlChangeEvent(tick=90, channel=0, data=[64, 127]),
   midi.NoteOnEvent(tick=374, channel=0, data=[68, 0]),
   midi.NoteOnEvent(tick=0, channel=0, data=[69, 40]),
   midi.ControlChangeEvent(tick=16, channel=0, data=[64, 0]),
   midi.ControlChangeEvent(tick=143, channel=0, data=[64, 127]),
   midi.NoteOnEvent(tick=321, channel=0, data=[69, 0]),
   midi.NoteOnEvent(tick=0, channel=0, data=[66, 42]),
   midi.ControlChangeEvent(tick=16, channel=0, data=[64, 0]),
   midi.ControlChangeEvent(tick=72, channel=0, data=[64, 127]),
   midi.NoteOnEvent(tick=152, channel=0, data=[66, 0]),
   midi.NoteOnEvent(tick=0, channel=0, data=[69, 39]),
   midi.NoteOnEvent(tick=240, channel=0, data=[69, 0]),
   midi.NoteOnEvent(tick=0, channel=0, data=[64, 0]),
   midi.NoteOnEvent(tick=0, channel=0, data=[69, 41]),
   midi.NoteOnEvent(tick=0, channel=0, data=[64, 41]),
   midi.ControlChangeEvent(tick=9, channel=0, data=[64, 0]),
   midi.ControlChangeEvent(tick=72, channel=0, data=[64, 127]),
   midi.NoteOnEvent(tick=399, channel=0, data=[69, 0]),
   midi.NoteOnEvent(tick=0, channel=0, data=[68, 41]),
   midi.ControlChangeEvent(tick=21, channel=0, data=[64, 0]),
   midi.ControlChangeEvent(tick=85, channel=0, data=[64, 127]),
   midi.NoteOnEvent(tick=134, channel=0, data=[68, 0]),
   midi.NoteOnEvent(tick=0, channel=0, data=[69, 39]),
   midi.NoteOnEvent(tick=240, channel=0, data=[69, 0]),
   midi.NoteOnEvent(tick=0, channel=0, data=[68, 39]),
   midi.ControlChangeEvent(tick=13, channel=0, data=[64, 0]),
   midi.ControlChangeEvent(tick=96, channel=0, data=[64, 127]),
   midi.NoteOnEvent(tick=371, channel=0, data=[68, 0]),
   midi.NoteOnEvent(tick=0, channel=0, data=[64, 0]),
   midi.NoteOnEvent(tick=0, channel=0, data=[57, 62]),
   midi.ControlChangeEvent(tick=11, channel=0, data=[64, 0]),
   midi.ControlChangeEvent(tick=49, channel=0, data=[64, 127]),
   midi.NoteOnEvent(tick=180, channel=0, data=[57, 0]),
   midi.NoteOnEvent(tick=0, channel=0, data=[57, 56]),
   midi.NoteOnEvent(tick=80, channel=0, data=[59, 56]),
   midi.NoteOnEvent(tick=20, channel=0, data=[57, 0]),
   midi.NoteOnEvent(tick=60, channel=0, data=[57, 56]),
   midi.NoteOnEvent(tick=20, channel=0, data=[59, 0]),
   midi.NoteOnEvent(tick=60, channel=0, data=[56, 62]),
   midi.ControlChangeEvent(tick=14, channel=0, data=[64, 0]),
   midi.NoteOnEvent(tick=6, channel=0, data=[57, 0]),
   midi.ControlChangeEvent(tick=93, channel=0, data=[64, 127]),
   midi.NoteOnEvent(tick=127, channel=0, data=[56, 0]),
   midi.NoteOnEvent(tick=0, channel=0, data=[51, 58]),
   midi.NoteOnEvent(tick=100, channel=0, data=[51, 0]),
   midi.NoteOnEvent(tick=20, channel=0, data=[56, 58]),
   midi.NoteOnEvent(tick=100, channel=0, data=[56, 0]),
   midi.NoteOnEvent(tick=20, channel=0, data=[57, 62]),
   midi.ControlChangeEvent(tick=21, channel=0, data=[64, 0]),
   midi.ControlChangeEvent(tick=138, channel=0, data=[64, 127]),
   midi.NoteOnEvent(tick=81, channel=0, data=[57, 0]),
   midi.NoteOnEvent(tick=0, channel=0, data=[57, 56]),
   midi.NoteOnEvent(tick=80, channel=0, data=[59, 56]),
   midi.NoteOnEvent(tick=20, channel=0, data=[57, 0]),
   midi.NoteOnEvent(tick=60, channel=0, data=[57, 56]),
   midi.NoteOnEvent(tick=20, channel=0, data=[59, 0]),
   midi.NoteOnEvent(tick=60, channel=0, data=[56, 62]),
   midi.ControlChangeEvent(tick=6, channel=0, data=[64, 0]),
   midi.NoteOnEvent(tick=14, channel=0, data=[57, 0]),
   midi.ControlChangeEvent(tick=83, channel=0, data=[64, 127]),
   midi.NoteOnEvent(tick=137, channel=0, data=[56, 0]),
   midi.NoteOnEvent(tick=0, channel=0, data=[63, 38]),
   midi.ControlChangeEvent(tick=8, channel=0, data=[64, 0]),
   midi.ControlChangeEvent(tick=61, channel=0, data=[64, 127]),
   midi.NoteOnEvent(tick=51, channel=0, data=[63, 0]),
   midi.NoteOnEvent(tick=0, channel=0, data=[64, 35]),
   midi.NoteOnEvent(tick=120, channel=0, data=[64, 0]),
   midi.NoteOnEvent(tick=0, channel=0, data=[66, 38]),
   midi.NoteOnEvent(tick=120, channel=0, data=[66, 0]),
   midi.NoteOnEvent(tick=0, channel=0, data=[68, 35]),
   midi.NoteOnEvent(tick=120, channel=0, data=[68, 0]),
   midi.NoteOnEvent(tick=0, channel=0, data=[66, 35]),
   midi.NoteOnEvent(tick=120, channel=0, data=[66, 0]),
   midi.NoteOnEvent(tick=0, channel=0, data=[63, 35]),
   midi.NoteOnEvent(tick=120, channel=0, data=[63, 0]),
   midi.NoteOnEvent(tick=0, channel=0, data=[60, 38]),
   midi.NoteOnEvent(tick=120, channel=0, data=[60, 0]),
   midi.NoteOnEvent(tick=0, channel=0, data=[64, 35]),
   midi.NoteOnEvent(tick=120, channel=0, data=[64, 0]),
   midi.NoteOnEvent(tick=0, channel=0, data=[63, 35]),
   midi.NoteOnEvent(tick=120, channel=0, data=[63, 0]),
   midi.NoteOnEvent(tick=0, channel=0, data=[57, 35]),
   midi.NoteOnEvent(tick=120, channel=0, data=[57, 0]),
   midi.NoteOnEvent(tick=0, channel=0, data=[56, 57]),
   midi.ControlChangeEvent(tick=8, channel=0, data=[64, 0]),
   midi.ControlChangeEvent(tick=112, channel=0, data=[64, 127]),
   midi.NoteOnEvent(tick=120, channel=0, data=[56, 0]),
   midi.NoteOnEvent(tick=0, channel=0, data=[57, 56]),
   midi.NoteOnEvent(tick=80, channel=0, data=[59, 56]),
   midi.NoteOnEvent(tick=20, channel=0, data=[57, 0]),
   midi.NoteOnEvent(tick=60, channel=0, data=[57, 56]),
   midi.NoteOnEvent(tick=20, channel=0, data=[59, 0]),
   midi.NoteOnEvent(tick=60, channel=0, data=[56, 62]),
   midi.NoteOnEvent(tick=20, channel=0, data=[57, 0]),
   midi.ControlChangeEvent(tick=5, channel=0, data=[64, 0]),
   midi.ControlChangeEvent(tick=95, channel=0, data=[64, 127]),
   midi.NoteOnEvent(tick=120, channel=0, data=[56, 0]),
   midi.NoteOnEvent(tick=0, channel=0, data=[51, 58]),
   midi.NoteOnEvent(tick=100, channel=0, data=[51, 0]),
   midi.NoteOnEvent(tick=20, channel=0, data=[56, 58]),
   midi.NoteOnEvent(tick=100, channel=0, data=[56, 0]),
   midi.NoteOnEvent(tick=20, channel=0, data=[57, 62]),
   midi.ControlChangeEvent(tick=28, channel=0, data=[64, 0]),
   midi.ControlChangeEvent(tick=28, channel=0, data=[64, 127]),
   midi.NoteOnEvent(tick=184, channel=0, data=[57, 0]),
   midi.NoteOnEvent(tick=0, channel=0, data=[57, 56]),
   midi.NoteOnEvent(tick=80, channel=0, data=[59, 56]),
   midi.NoteOnEvent(tick=20, channel=0, data=[57, 0]),
   midi.NoteOnEvent(tick=60, channel=0, data=[57, 56]),
   midi.NoteOnEvent(tick=20, channel=0, data=[59, 0]),
   midi.ControlChangeEvent(tick=60, channel=0, data=[64, 0]),
   midi.NoteOnEvent(tick=0, channel=0, data=[56, 62]),
   midi.NoteOnEvent(tick=20, channel=0, data=[57, 0]),
   midi.ControlChangeEvent(tick=71, channel=0, data=[64, 127]),
   midi.NoteOnEvent(tick=149, channel=0, data=[56, 0]),
   midi.NoteOnEvent(tick=0, channel=0, data=[63, 49]),
   midi.ControlChangeEvent(tick=12, channel=0, data=[64, 0]),
   midi.ControlChangeEvent(tick=57, channel=0, data=[64, 127]),
   midi.NoteOnEvent(tick=51, channel=0, data=[63, 0]),
   midi.NoteOnEvent(tick=0, channel=0, data=[64, 46]),
   midi.NoteOnEvent(tick=120, channel=0, data=[64, 0]),
   midi.NoteOnEvent(tick=0, channel=0, data=[66, 49]),
   midi.NoteOnEvent(tick=120, channel=0, data=[66, 0]),
   midi.NoteOnEvent(tick=0, channel=0, data=[68, 46]),
   midi.NoteOnEvent(tick=120, channel=0, data=[68, 0]),
   midi.NoteOnEvent(tick=0, channel=0, data=[66, 46]),
   midi.NoteOnEvent(tick=120, channel=0, data=[66, 0]),
   midi.NoteOnEvent(tick=0, channel=0, data=[63, 46]),
   midi.NoteOnEvent(tick=120, channel=0, data=[63, 0]),
   midi.NoteOnEvent(tick=0, channel=0, data=[60, 54]),
   midi.NoteOnEvent(tick=120, channel=0, data=[60, 0]),
   midi.NoteOnEvent(tick=0, channel=0, data=[64, 48]),
   midi.NoteOnEvent(tick=120, channel=0, data=[64, 0]),
   midi.NoteOnEvent(tick=0, channel=0, data=[63, 48]),
   midi.NoteOnEvent(tick=120, channel=0, data=[63, 0]),
   midi.NoteOnEvent(tick=0, channel=0, data=[57, 48]),
   midi.NoteOnEvent(tick=120, channel=0, data=[57, 0]),
   midi.ControlChangeEvent(tick=0, channel=0, data=[64, 0]),
   midi.NoteOnEvent(tick=0, channel=0, data=[56, 62]),
   midi.NoteOnEvent(tick=240, channel=0, data=[56, 0]),
   midi.NoteOnEvent(tick=0, channel=0, data=[54, 54]),
   midi.ControlChangeEvent(tick=92, channel=0, data=[64, 127]),
   midi.NoteOnEvent(tick=28, channel=0, data=[54, 0]),
   midi.NoteOnEvent(tick=0, channel=0, data=[56, 50]),
   midi.NoteOnEvent(tick=120, channel=0, data=[56, 0]),
   midi.NoteOnEvent(tick=0, channel=0, data=[57, 54]),
   midi.NoteOnEvent(tick=120, channel=0, data=[57, 0]),
   midi.NoteOnEvent(tick=0, channel=0, data=[61, 50]),
   midi.NoteOnEvent(tick=120, channel=0, data=[61, 0]),
   midi.NoteOnEvent(tick=0, channel=0, data=[59, 50]),
   midi.NoteOnEvent(tick=120, channel=0, data=[59, 0]),
   midi.NoteOnEvent(tick=0, channel=0, data=[56, 50]),
   midi.NoteOnEvent(tick=120, channel=0, data=[56, 0]),
   midi.NoteOnEvent(tick=0, channel=0, data=[54, 54]),
   midi.NoteOnEvent(tick=120, channel=0, data=[54, 0]),
   midi.NoteOnEvent(tick=0, channel=0, data=[57, 50]),
   midi.NoteOnEvent(tick=120, channel=0, data=[57, 0]),
   midi.NoteOnEvent(tick=0, channel=0, data=[56, 50]),
   midi.NoteOnEvent(tick=120, channel=0, data=[56, 0]),
   midi.NoteOnEvent(tick=0, channel=0, data=[52, 50]),
   midi.NoteOnEvent(tick=120, channel=0, data=[52, 0]),
   midi.NoteOnEvent(tick=0, channel=0, data=[51, 54]),
   midi.ControlChangeEvent(tick=8, channel=0, data=[64, 0]),
   midi.ControlChangeEvent(tick=84, channel=0, data=[64, 127]),
   midi.NoteOnEvent(tick=28, channel=0, data=[51, 0]),
   midi.NoteOnEvent(tick=0, channel=0, data=[52, 52]),
   midi.NoteOnEvent(tick=120, channel=0, data=[52, 0]),
   midi.NoteOnEvent(tick=0, channel=0, data=[54, 52]),
   midi.NoteOnEvent(tick=120, channel=0, data=[54, 0]),
   midi.NoteOnEvent(tick=0, channel=0, data=[56, 52]),
   midi.NoteOnEvent(tick=120, channel=0, data=[56, 0]),
   midi.NoteOnEvent(tick=0, channel=0, data=[54, 57]),
   midi.ControlChangeEvent(tick=7, channel=0, data=[64, 0]),
   midi.ControlChangeEvent(tick=78, channel=0, data=[64, 127]),
   midi.NoteOnEvent(tick=35, channel=0, data=[54, 0]),
   midi.NoteOnEvent(tick=0, channel=0, data=[51, 55]),
   midi.NoteOnEvent(tick=120, channel=0, data=[51, 0]),
   midi.NoteOnEvent(tick=0, channel=0, data=[52, 56]),
   midi.NoteOnEvent(tick=120, channel=0, data=[52, 0]),
   midi.NoteOnEvent(tick=0, channel=0, data=[49, 54]),
   midi.NoteOnEvent(tick=120, channel=0, data=[49, 0]),
   midi.NoteOnEvent(tick=0, channel=0, data=[51, 54]),
   midi.ControlChangeEvent(tick=16, channel=0, data=[64, 0]),
   midi.ControlChangeEvent(tick=97, channel=0, data=[64, 127]),
   midi.NoteOnEvent(tick=7, channel=0, data=[51, 0]),
   midi.NoteOnEvent(tick=0, channel=0, data=[47, 52]),
   midi.NoteOnEvent(tick=120, channel=0, data=[47, 0]),
   midi.NoteOnEvent(tick=0, channel=0, data=[49, 54]),
   midi.NoteOnEvent(tick=120, channel=0, data=[49, 0]),
   midi.NoteOnEvent(tick=0, channel=0, data=[45, 51]),
   midi.NoteOnEvent(tick=120, channel=0, data=[45, 0]),
   midi.ControlChangeEvent(tick=0, channel=0, data=[64, 0]),
   midi.NoteOnEvent(tick=0, channel=0, data=[44, 68]),
   midi.ControlChangeEvent(tick=113, channel=0, data=[64, 127]),
   midi.NoteOnEvent(tick=127, channel=0, data=[44, 0]),
   midi.NoteOnEvent(tick=0, channel=0, data=[51, 49]),
   midi.NoteOnEvent(tick=0, channel=0, data=[57, 58]),
   midi.ControlChangeEvent(tick=9, channel=0, data=[64, 0]),
   midi.ControlChangeEvent(tick=34, channel=0, data=[64, 127]),
   midi.NoteOnEvent(tick=197, channel=0, data=[57, 0]),
   midi.NoteOnEvent(tick=0, channel=0, data=[51, 0]),
   midi.NoteOnEvent(tick=0, channel=0, data=[56, 44]),
   midi.NoteOnEvent(tick=0, channel=0, data=[60, 52]),
   midi.ControlChangeEvent(tick=14, channel=0, data=[64, 0]),
   midi.ControlChangeEvent(tick=50, channel=0, data=[64, 127]),
   midi.NoteOnEvent(tick=176, channel=0, data=[60, 0]),
   midi.NoteOnEvent(tick=0, channel=0, data=[56, 0]),
   midi.NoteOnEvent(tick=0, channel=0, data=[51, 48]),
   midi.NoteOnEvent(tick=0, channel=0, data=[57, 57]),
   midi.ControlChangeEvent(tick=11, channel=0, data=[64, 0]),
   midi.ControlChangeEvent(tick=49, channel=0, data=[64, 127]),
   midi.NoteOnEvent(tick=180, channel=0, data=[57, 0]),
   midi.NoteOnEvent(tick=0, channel=0, data=[51, 0]),
   midi.NoteOnEvent(tick=0, channel=0, data=[56, 42]),
   midi.NoteOnEvent(tick=0, channel=0, data=[60, 50]),
   midi.ControlChangeEvent(tick=14, channel=0, data=[64, 0]),
   midi.ControlChangeEvent(tick=35, channel=0, data=[64, 127]),
   midi.NoteOnEvent(tick=191, channel=0, data=[60, 0]),
   midi.NoteOnEvent(tick=0, channel=0, data=[56, 0]),
   midi.NoteOnEvent(tick=0, channel=0, data=[51, 46]),
   midi.NoteOnEvent(tick=0, channel=0, data=[57, 55]),
   midi.ControlChangeEvent(tick=7, channel=0, data=[64, 0]),
   midi.ControlChangeEvent(tick=36, channel=0, data=[64, 127]),
   midi.ControlChangeEvent(tick=176, channel=0, data=[64, 0]),
   midi.NoteOnEvent(tick=21, channel=0, data=[57, 0]),
   midi.NoteOnEvent(tick=0, channel=0, data=[51, 0]),
   midi.NoteOnEvent(tick=0, channel=0, data=[56, 42]),
   midi.NoteOnEvent(tick=0, channel=0, data=[60, 50]),
   midi.ControlChangeEvent(tick=149, channel=0, data=[64, 127]),
   midi.NoteOnEvent(tick=91, channel=0, data=[60, 0]),
   midi.NoteOnEvent(tick=0, channel=0, data=[56, 0]),
   midi.NoteOnEvent(tick=0, channel=0, data=[56, 57]),
   midi.NoteOnEvent(tick=480, channel=0, data=[56, 0]),
   midi.NoteOnEvent(tick=0, channel=0, data=[56, 65]),
   midi.NoteOnEvent(tick=480, channel=0, data=[56, 0]),
   midi.NoteOnEvent(tick=0, channel=0, data=[56, 68]),
   midi.NoteOnEvent(tick=240, channel=0, data=[56, 0]),
   midi.NoteOnEvent(tick=0, channel=0, data=[49, 48]),
   midi.ControlChangeEvent(tick=8, channel=0, data=[64, 0]),
   midi.ControlChangeEvent(tick=95, channel=0, data=[64, 127]),
   midi.ControlChangeEvent(tick=393, channel=0, data=[64, 0]),
   midi.ControlChangeEvent(tick=298, channel=0, data=[64, 127]),
   midi.NoteOnEvent(tick=166, channel=0, data=[49, 0]),
   midi.NoteOnEvent(tick=0, channel=0, data=[44, 48]),
   midi.NoteOnEvent(tick=240, channel=0, data=[44, 0]),
   midi.NoteOnEvent(tick=0, channel=0, data=[50, 56]),
   midi.NoteOnEvent(tick=240, channel=0, data=[50, 0]),
   midi.NoteOnEvent(tick=0, channel=0, data=[51, 69]),
   midi.ControlChangeEvent(tick=14, channel=0, data=[64, 0]),
   midi.ControlChangeEvent(tick=152, channel=0, data=[64, 127]),
   midi.ControlChangeEvent(tick=333, channel=0, data=[64, 0]),
   midi.ControlChangeEvent(tick=267, channel=0, data=[64, 127]),
   midi.NoteOnEvent(tick=194, channel=0, data=[51, 0]),
   midi.NoteOnEvent(tick=0, channel=0, data=[44, 56]),
   midi.NoteOnEvent(tick=240, channel=0, data=[44, 0]),
   midi.NoteOnEvent(tick=0, channel=0, data=[48, 50]),
   midi.ControlChangeEvent(tick=7, channel=0, data=[64, 0]),
   midi.NoteOnEvent(tick=233, channel=0, data=[48, 0]),
   midi.NoteOnEvent(tick=0, channel=0, data=[49, 30]),
   midi.ControlChangeEvent(tick=113, channel=0, data=[64, 127]),
   midi.ControlChangeEvent(tick=375, channel=0, data=[64, 0]),
   midi.ControlChangeEvent(tick=253, channel=0, data=[64, 127]),
   midi.NoteOnEvent(tick=219, channel=0, data=[49, 0]),
   midi.NoteOnEvent(tick=0, channel=0, data=[44, 30]),
   midi.NoteOnEvent(tick=240, channel=0, data=[44, 0]),
   midi.NoteOnEvent(tick=0, channel=0, data=[50, 35]),
   midi.ControlChangeEvent(tick=11, channel=0, data=[64, 0]),
   midi.NoteOnEvent(tick=229, channel=0, data=[50, 0]),
   midi.NoteOnEvent(tick=0, channel=0, data=[51, 40]),
   midi.ControlChangeEvent(tick=85, channel=0, data=[64, 127]),
   midi.ControlChangeEvent(tick=410, channel=0, data=[64, 0]),
   midi.ControlChangeEvent(tick=271, channel=0, data=[64, 127]),
   midi.NoteOnEvent(tick=194, channel=0, data=[51, 0]),
   midi.NoteOnEvent(tick=0, channel=0, data=[44, 35]),
   midi.NoteOnEvent(tick=240, channel=0, data=[44, 0]),
   midi.NoteOnEvent(tick=0, channel=0, data=[48, 39]),
   midi.ControlChangeEvent(tick=14, channel=0, data=[64, 0]),
   midi.NoteOnEvent(tick=196, channel=0, data=[48, 0]),
   midi.NoteOnEvent(tick=30, channel=0, data=[49, 39]),
   midi.ControlChangeEvent(tick=63, channel=0, data=[64, 127]),
   midi.NoteOnEvent(tick=57, channel=0, data=[49, 0]),
   midi.NoteOnEvent(tick=120, channel=0, data=[55, 32]),
   midi.NoteOnEvent(tick=80, channel=0, data=[56, 32]),
   midi.NoteOnEvent(tick=20, channel=0, data=[55, 0]),
   midi.NoteOnEvent(tick=60, channel=0, data=[61, 31]),
   midi.NoteOnEvent(tick=20, channel=0, data=[56, 0]),
   midi.NoteOnEvent(tick=60, channel=0, data=[61, 0]),
   midi.ControlChangeEvent(tick=16, channel=0, data=[64, 0]),
   midi.ControlChangeEvent(tick=87, channel=0, data=[64, 127]),
   midi.NoteOnEvent(tick=137, channel=0, data=[68, 42]),
   midi.NoteOnEvent(tick=240, channel=0, data=[68, 0]),
   midi.NoteOnEvent(tick=0, channel=0, data=[44, 38]),
   midi.NoteOnEvent(tick=120, channel=0, data=[44, 0]),
   midi.NoteOnEvent(tick=120, channel=0, data=[68, 34]),
   midi.NoteOnEvent(tick=0, channel=0, data=[61, 34]),
   midi.NoteOnEvent(tick=0, channel=0, data=[56, 34]),
   midi.ControlChangeEvent(tick=12, channel=0, data=[64, 0]),
   midi.NoteOnEvent(tick=108, channel=0, data=[56, 0]),
   midi.NoteOnEvent(tick=0, channel=0, data=[61, 0]),
   midi.NoteOnEvent(tick=0, channel=0, data=[68, 0]),
   midi.NoteOnEvent(tick=120, channel=0, data=[49, 39]),
   midi.ControlChangeEvent(tick=80, channel=0, data=[64, 127]),
   midi.NoteOnEvent(tick=40, channel=0, data=[49, 0]),
   midi.NoteOnEvent(tick=120, channel=0, data=[55, 32]),
   midi.NoteOnEvent(tick=80, channel=0, data=[56, 32]),
   midi.NoteOnEvent(tick=20, channel=0, data=[55, 0]),
   midi.NoteOnEvent(tick=60, channel=0, data=[61, 31]),
   midi.NoteOnEvent(tick=20, channel=0, data=[56, 0]),
   midi.NoteOnEvent(tick=60, channel=0, data=[65, 38]),
   midi.ControlChangeEvent(tick=16, channel=0, data=[64, 0]),
   midi.NoteOnEvent(tick=4, channel=0, data=[61, 0]),
   midi.ControlChangeEvent(tick=60, channel=0, data=[64, 127]),
   midi.NoteOnEvent(tick=40, channel=0, data=[65, 0]),
   midi.NoteOnEvent(tick=120, channel=0, data=[56, 40]),
   midi.NoteOnEvent(tick=0, channel=0, data=[61, 40]),
   midi.NoteOnEvent(tick=0, channel=0, data=[65, 40]),
   midi.NoteOnEvent(tick=240, channel=0, data=[65, 0]),
   midi.NoteOnEvent(tick=0, channel=0, data=[61, 0]),
   midi.NoteOnEvent(tick=0, channel=0, data=[56, 0]),
   midi.NoteOnEvent(tick=0, channel=0, data=[44, 38]),
   midi.NoteOnEvent(tick=120, channel=0, data=[44, 0]),
   midi.ControlChangeEvent(tick=12, channel=0, data=[64, 0]),
   midi.NoteOnEvent(tick=108, channel=0, data=[65, 30]),
   midi.NoteOnEvent(tick=0, channel=0, data=[61, 30]),
   midi.NoteOnEvent(tick=0, channel=0, data=[56, 30]),
   midi.NoteOnEvent(tick=120, channel=0, data=[56, 0]),
   midi.NoteOnEvent(tick=0, channel=0, data=[61, 0]),
   midi.NoteOnEvent(tick=0, channel=0, data=[65, 0]),
   midi.NoteOnEvent(tick=120, channel=0, data=[51, 46]),
   midi.ControlChangeEvent(tick=57, channel=0, data=[64, 127]),
   midi.NoteOnEvent(tick=63, channel=0, data=[51, 0]),
   midi.NoteOnEvent(tick=120, channel=0, data=[55, 38]),
   midi.NoteOnEvent(tick=80, channel=0, data=[56, 38]),
   midi.NoteOnEvent(tick=20, channel=0, data=[55, 0]),
   midi.NoteOnEvent(tick=60, channel=0, data=[60, 37]),
   midi.NoteOnEvent(tick=20, channel=0, data=[56, 0]),
   midi.NoteOnEvent(tick=60, channel=0, data=[66, 45]),
   midi.NoteOnEvent(tick=20, channel=0, data=[60, 0]),
   midi.ControlChangeEvent(tick=2, channel=0, data=[64, 0]),
   midi.ControlChangeEvent(tick=61, channel=0, data=[64, 127]),
   midi.NoteOnEvent(tick=37, channel=0, data=[66, 0]),
   midi.NoteOnEvent(tick=120, channel=0, data=[56, 49]),
   midi.NoteOnEvent(tick=0, channel=0, data=[60, 49]),
   midi.NoteOnEvent(tick=0, channel=0, data=[66, 49]),
   midi.NoteOnEvent(tick=240, channel=0, data=[66, 0]),
   midi.NoteOnEvent(tick=0, channel=0, data=[60, 0]),
   midi.NoteOnEvent(tick=0, channel=0, data=[56, 0]),
   midi.NoteOnEvent(tick=0, channel=0, data=[44, 47]),
   midi.ControlChangeEvent(tick=7, channel=0, data=[64, 0]),
   midi.NoteOnEvent(tick=113, channel=0, data=[44, 0]),
   midi.ControlChangeEvent(tick=46, channel=0, data=[64, 127]),
   midi.NoteOnEvent(tick=74, channel=0, data=[66, 38]),
   midi.NoteOnEvent(tick=0, channel=0, data=[60, 38]),
   midi.NoteOnEvent(tick=0, channel=0, data=[56, 38]),
   midi.NoteOnEvent(tick=120, channel=0, data=[56, 0]),
   midi.NoteOnEvent(tick=0, channel=0, data=[60, 0]),
   midi.NoteOnEvent(tick=0, channel=0, data=[66, 0]),
   midi.ControlChangeEvent(tick=120, channel=0, data=[64, 0]),
   midi.NoteOnEvent(tick=0, channel=0, data=[51, 53]),
   midi.ControlChangeEvent(tick=57, channel=0, data=[64, 127]),
   midi.NoteOnEvent(tick=63, channel=0, data=[51, 0]),
   midi.NoteOnEvent(tick=120, channel=0, data=[55, 38]),
   midi.NoteOnEvent(tick=80, channel=0, data=[56, 38]),
   midi.NoteOnEvent(tick=20, channel=0, data=[55, 0]),
   midi.NoteOnEvent(tick=60, channel=0, data=[60, 37]),
   midi.NoteOnEvent(tick=20, channel=0, data=[56, 0]),
   midi.NoteOnEvent(tick=60, channel=0, data=[66, 45]),
   midi.NoteOnEvent(tick=20, channel=0, data=[60, 0]),
   midi.ControlChangeEvent(tick=6, channel=0, data=[64, 0]),
   midi.NoteOnEvent(tick=94, channel=0, data=[66, 0]),
   midi.ControlChangeEvent(tick=17, channel=0, data=[64, 127]),
   midi.NoteOnEvent(tick=103, channel=0, data=[56, 43]),
   midi.NoteOnEvent(tick=0, channel=0, data=[60, 43]),
   midi.NoteOnEvent(tick=0, channel=0, data=[66, 43]),
   midi.NoteOnEvent(tick=240, channel=0, data=[66, 0]),
   midi.NoteOnEvent(tick=0, channel=0, data=[60, 0]),
   midi.NoteOnEvent(tick=0, channel=0, data=[56, 0]),
   midi.NoteOnEvent(tick=0, channel=0, data=[44, 37]),
   midi.NoteOnEvent(tick=120, channel=0, data=[44, 0]),
   midi.ControlChangeEvent(tick=6, channel=0, data=[64, 0]),
   midi.NoteOnEvent(tick=114, channel=0, data=[66, 36]),
   midi.NoteOnEvent(tick=0, channel=0, data=[60, 36]),
   midi.NoteOnEvent(tick=0, channel=0, data=[56, 36]),
   midi.NoteOnEvent(tick=120, channel=0, data=[56, 0]),
   midi.NoteOnEvent(tick=0, channel=0, data=[60, 0]),
   midi.NoteOnEvent(tick=0, channel=0, data=[66, 0]),
   midi.NoteOnEvent(tick=120, channel=0, data=[49, 39]),
   midi.ControlChangeEvent(tick=63, channel=0, data=[64, 127]),
   midi.NoteOnEvent(tick=57, channel=0, data=[49, 0]),
   midi.NoteOnEvent(tick=120, channel=0, data=[55, 32]),
   midi.NoteOnEvent(tick=80, channel=0, data=[56, 32]),
   midi.NoteOnEvent(tick=20, channel=0, data=[55, 0]),
   midi.NoteOnEvent(tick=60, channel=0, data=[61, 31]),
   midi.NoteOnEvent(tick=20, channel=0, data=[56, 0]),
   midi.NoteOnEvent(tick=60, channel=0, data=[61, 0]),
   midi.ControlChangeEvent(tick=12, channel=0, data=[64, 0]),
   midi.ControlChangeEvent(tick=91, channel=0, data=[64, 127]),
   midi.NoteOnEvent(tick=137, channel=0, data=[68, 42]),
   midi.NoteOnEvent(tick=240, channel=0, data=[68, 0]),
   midi.NoteOnEvent(tick=0, channel=0, data=[44, 38]),
   midi.NoteOnEvent(tick=120, channel=0, data=[44, 0]),
   midi.NoteOnEvent(tick=120, channel=0, data=[68, 34]),
   midi.NoteOnEvent(tick=0, channel=0, data=[61, 34]),
   midi.NoteOnEvent(tick=0, channel=0, data=[56, 34]),
   midi.ControlChangeEvent(tick=8, channel=0, data=[64, 0]),
   midi.NoteOnEvent(tick=112, channel=0, data=[56, 0]),
   midi.NoteOnEvent(tick=0, channel=0, data=[61, 0]),
   midi.NoteOnEvent(tick=0, channel=0, data=[68, 0]),
   midi.NoteOnEvent(tick=120, channel=0, data=[49, 39]),
   midi.ControlChangeEvent(tick=57, channel=0, data=[64, 127]),
   midi.NoteOnEvent(tick=63, channel=0, data=[49, 0]),
   midi.NoteOnEvent(tick=120, channel=0, data=[55, 32]),
   midi.NoteOnEvent(tick=80, channel=0, data=[56, 32]),
   midi.NoteOnEvent(tick=20, channel=0, data=[55, 0]),
   midi.NoteOnEvent(tick=60, channel=0, data=[61, 31]),
   midi.NoteOnEvent(tick=20, channel=0, data=[56, 0]),
   midi.NoteOnEvent(tick=60, channel=0, data=[65, 38]),
   midi.ControlChangeEvent(tick=9, channel=0, data=[64, 0]),
   midi.NoteOnEvent(tick=11, channel=0, data=[61, 0]),
   midi.ControlChangeEvent(tick=66, channel=0, data=[64, 127]),
   midi.NoteOnEvent(tick=34, channel=0, data=[65, 0]),
   midi.NoteOnEvent(tick=120, channel=0, data=[56, 40]),
   midi.NoteOnEvent(tick=0, channel=0, data=[61, 40]),
   midi.NoteOnEvent(tick=0, channel=0, data=[65, 40]),
   midi.NoteOnEvent(tick=240, channel=0, data=[65, 0]),
   midi.NoteOnEvent(tick=0, channel=0, data=[61, 0]),
   midi.NoteOnEvent(tick=0, channel=0, data=[56, 0]),
   midi.NoteOnEvent(tick=0, channel=0, data=[44, 38]),
   midi.NoteOnEvent(tick=120, channel=0, data=[44, 0]),
   midi.ControlChangeEvent(tick=6, channel=0, data=[64, 0]),
   midi.NoteOnEvent(tick=114, channel=0, data=[65, 30]),
   midi.NoteOnEvent(tick=0, channel=0, data=[61, 30]),
   midi.NoteOnEvent(tick=0, channel=0, data=[56, 30]),
   midi.NoteOnEvent(tick=120, channel=0, data=[56, 0]),
   midi.NoteOnEvent(tick=0, channel=0, data=[61, 0]),
   midi.NoteOnEvent(tick=0, channel=0, data=[65, 0]),
   midi.NoteOnEvent(tick=120, channel=0, data=[51, 46]),
   midi.ControlChangeEvent(tick=52, channel=0, data=[64, 127]),
   midi.NoteOnEvent(tick=68, channel=0, data=[51, 0]),
   midi.NoteOnEvent(tick=120, channel=0, data=[55, 38]),
   midi.NoteOnEvent(tick=80, channel=0, data=[56, 38]),
   midi.NoteOnEvent(tick=20, channel=0, data=[55, 0]),
   midi.NoteOnEvent(tick=60, channel=0, data=[60, 37]),
   midi.NoteOnEvent(tick=20, channel=0, data=[56, 0]),
   midi.NoteOnEvent(tick=60, channel=0, data=[66, 45]),
   midi.ControlChangeEvent(tick=17, channel=0, data=[64, 0]),
   midi.NoteOnEvent(tick=3, channel=0, data=[60, 0]),
   midi.ControlChangeEvent(tick=66, channel=0, data=[64, 127]),
   midi.NoteOnEvent(tick=34, channel=0, data=[66, 0]),
   midi.NoteOnEvent(tick=120, channel=0, data=[56, 49]),
   midi.NoteOnEvent(tick=0, channel=0, data=[60, 49]),
   midi.NoteOnEvent(tick=0, channel=0, data=[66, 49]),
   midi.NoteOnEvent(tick=240, channel=0, data=[66, 0]),
   midi.NoteOnEvent(tick=0, channel=0, data=[60, 0]),
   midi.NoteOnEvent(tick=0, channel=0, data=[56, 0]),
   midi.NoteOnEvent(tick=0, channel=0, data=[44, 47]),
   midi.ControlChangeEvent(tick=9, channel=0, data=[64, 0]),
   midi.ControlChangeEvent(tick=108, channel=0, data=[64, 127]),
   midi.NoteOnEvent(tick=3, channel=0, data=[44, 0]),
   midi.NoteOnEvent(tick=120, channel=0, data=[66, 38]),
   midi.NoteOnEvent(tick=0, channel=0, data=[60, 38]),
   midi.NoteOnEvent(tick=0, channel=0, data=[56, 38]),
   midi.NoteOnEvent(tick=120, channel=0, data=[56, 0]),
   midi.NoteOnEvent(tick=0, channel=0, data=[60, 0]),
   midi.NoteOnEvent(tick=0, channel=0, data=[66, 0]),
   midi.ControlChangeEvent(tick=120, channel=0, data=[64, 0]),
   midi.NoteOnEvent(tick=0, channel=0, data=[51, 53]),
   midi.ControlChangeEvent(tick=40, channel=0, data=[64, 127]),
   midi.NoteOnEvent(tick=80, channel=0, data=[51, 0]),
   midi.NoteOnEvent(tick=120, channel=0, data=[55, 38]),
   midi.NoteOnEvent(tick=80, channel=0, data=[56, 38]),
   midi.NoteOnEvent(tick=20, channel=0, data=[55, 0]),
   midi.NoteOnEvent(tick=60, channel=0, data=[60, 37]),
   midi.NoteOnEvent(tick=20, channel=0, data=[56, 0]),
   midi.NoteOnEvent(tick=60, channel=0, data=[66, 45]),
   midi.NoteOnEvent(tick=20, channel=0, data=[60, 0]),
   midi.ControlChangeEvent(tick=8, channel=0, data=[64, 0]),
   midi.NoteOnEvent(tick=92, channel=0, data=[66, 0]),
   midi.ControlChangeEvent(tick=17, channel=0, data=[64, 127]),
   midi.NoteOnEvent(tick=103, channel=0, data=[56, 43]),
   midi.NoteOnEvent(tick=0, channel=0, data=[60, 43]),
   midi.NoteOnEvent(tick=0, channel=0, data=[66, 43]),
   midi.NoteOnEvent(tick=240, channel=0, data=[66, 0]),
   midi.NoteOnEvent(tick=0, channel=0, data=[60, 0]),
   midi.NoteOnEvent(tick=0, channel=0, data=[56, 0]),
   midi.NoteOnEvent(tick=0, channel=0, data=[44, 37]),
   midi.NoteOnEvent(tick=120, channel=0, data=[44, 0]),
   midi.ControlChangeEvent(tick=43, channel=0, data=[64, 0]),
   midi.NoteOnEvent(tick=77, channel=0, data=[64, 36]),
   midi.NoteOnEvent(tick=0, channel=0, data=[60, 36]),
   midi.NoteOnEvent(tick=0, channel=0, data=[56, 36]),
   midi.NoteOnEvent(tick=120, channel=0, data=[56, 0]),
   midi.NoteOnEvent(tick=0, channel=0, data=[60, 0]),
   midi.NoteOnEvent(tick=0, channel=0, data=[64, 0]),
   midi.NoteOnEvent(tick=120, channel=0, data=[53, 50]),
   midi.ControlChangeEvent(tick=63, channel=0, data=[64, 127]),
   midi.NoteOnEvent(tick=57, channel=0, data=[53, 0]),
   midi.NoteOnEvent(tick=120, channel=0, data=[57, 41]),
   midi.NoteOnEvent(tick=80, channel=0, data=[61, 41]),
   midi.NoteOnEvent(tick=20, channel=0, data=[57, 0]),
   midi.NoteOnEvent(tick=60, channel=0, data=[65, 40]),
   midi.NoteOnEvent(tick=20, channel=0, data=[61, 0]),
   midi.NoteOnEvent(tick=60, channel=0, data=[65, 0]),
   midi.NoteOnEvent(tick=0, channel=0, data=[69, 55]),
   midi.ControlChangeEvent(tick=15, channel=0, data=[64, 0]),
   midi.ControlChangeEvent(tick=88, channel=0, data=[64, 127]),
   midi.NoteOnEvent(tick=17, channel=0, data=[69, 0]),
   midi.NoteOnEvent(tick=120, channel=0, data=[61, 49]),
   midi.NoteOnEvent(tick=0, channel=0, data=[65, 49]),
   midi.NoteOnEvent(tick=240, channel=0, data=[65, 0]),
   midi.NoteOnEvent(tick=0, channel=0, data=[61, 0]),
   midi.NoteOnEvent(tick=0, channel=0, data=[53, 49]),
   midi.NoteOnEvent(tick=120, channel=0, data=[53, 0]),
   midi.NoteOnEvent(tick=120, channel=0, data=[63, 44]),
   midi.NoteOnEvent(tick=0, channel=0, data=[57, 44]),
   midi.ControlChangeEvent(tick=2, channel=0, data=[64, 0]),
   midi.NoteOnEvent(tick=118, channel=0, data=[57, 0]),
   midi.NoteOnEvent(tick=0, channel=0, data=[63, 0]),
   midi.NoteOnEvent(tick=120, channel=0, data=[54, 50]),
   midi.ControlChangeEvent(tick=63, channel=0, data=[64, 127]),
   midi.NoteOnEvent(tick=57, channel=0, data=[54, 0]),
   midi.NoteOnEvent(tick=120, channel=0, data=[60, 41]),
   midi.NoteOnEvent(tick=80, channel=0, data=[61, 41]),
   midi.NoteOnEvent(tick=20, channel=0, data=[60, 0]),
   midi.NoteOnEvent(tick=60, channel=0, data=[66, 40]),
   midi.NoteOnEvent(tick=20, channel=0, data=[61, 0]),
   midi.NoteOnEvent(tick=60, channel=0, data=[66, 0]),
   midi.ControlChangeEvent(tick=14, channel=0, data=[64, 0]),
   midi.ControlChangeEvent(tick=89, channel=0, data=[64, 127]),
   midi.NoteOnEvent(tick=137, channel=0, data=[62, 55]),
   midi.NoteOnEvent(tick=240, channel=0, data=[62, 0]),
   midi.NoteOnEvent(tick=0, channel=0, data=[50, 49]),
   midi.NoteOnEvent(tick=120, channel=0, data=[50, 0]),
   midi.NoteOnEvent(tick=120, channel=0, data=[65, 44]),
   midi.NoteOnEvent(tick=0, channel=0, data=[58, 44]),
   midi.NoteOnEvent(tick=120, channel=0, data=[58, 0]),
   midi.NoteOnEvent(tick=0, channel=0, data=[65, 0]),
   midi.NoteOnEvent(tick=120, channel=0, data=[51, 50]),
   midi.ControlChangeEvent(tick=5, channel=0, data=[64, 0]),
   midi.ControlChangeEvent(tick=58, channel=0, data=[64, 127]),
   midi.NoteOnEvent(tick=57, channel=0, data=[51, 0]),
   midi.NoteOnEvent(tick=120, channel=0, data=[57, 41]),
   midi.NoteOnEvent(tick=80, channel=0, data=[58, 41]),
   midi.NoteOnEvent(tick=20, channel=0, data=[57, 0]),
   midi.NoteOnEvent(tick=60, channel=0, data=[63, 40]),
   midi.NoteOnEvent(tick=20, channel=0, data=[58, 0]),
   midi.NoteOnEvent(tick=60, channel=0, data=[63, 0]),
   midi.ControlChangeEvent(tick=15, channel=0, data=[64, 0]),
   midi.NoteOnEvent(tick=225, channel=0, data=[58, 50]),
   midi.ControlChangeEvent(tick=63, channel=0, data=[64, 127]),
   midi.NoteOnEvent(tick=177, channel=0, data=[70, 46]),
   midi.NoteOnEvent(tick=240, channel=0, data=[70, 0]),
   midi.NoteOnEvent(tick=0, channel=0, data=[68, 43]),
   midi.ControlChangeEvent(tick=14, channel=0, data=[64, 0]),
   midi.NoteOnEvent(tick=226, channel=0, data=[68, 0]),
   midi.NoteOnEvent(tick=0, channel=0, data=[58, 0]),
   midi.NoteOnEvent(tick=0, channel=0, data=[51, 46]),
   midi.ControlChangeEvent(tick=63, channel=0, data=[64, 127]),
   midi.NoteOnEvent(tick=57, channel=0, data=[51, 0]),
   midi.NoteOnEvent(tick=120, channel=0, data=[57, 38]),
   midi.NoteOnEvent(tick=80, channel=0, data=[58, 38]),
   midi.NoteOnEvent(tick=20, channel=0, data=[57, 0]),
   midi.NoteOnEvent(tick=60, channel=0, data=[59, 37]),
   midi.NoteOnEvent(tick=20, channel=0, data=[58, 0]),
   midi.NoteOnEvent(tick=60, channel=0, data=[59, 0]),
   midi.NoteOnEvent(tick=0, channel=0, data=[58, 50]),
   midi.ControlChangeEvent(tick=23, channel=0, data=[64, 0]),
   midi.ControlChangeEvent(tick=109, channel=0, data=[64, 127]),
   midi.NoteOnEvent(tick=108, channel=0, data=[58, 0]),
   midi.NoteOnEvent(tick=0, channel=0, data=[62, 50]),
   midi.NoteOnEvent(tick=240, channel=0, data=[62, 0]),
   midi.NoteOnEvent(tick=0, channel=0, data=[65, 55]),
   midi.NoteOnEvent(tick=240, channel=0, data=[65, 0]),
   midi.NoteOnEvent(tick=0, channel=0, data=[63, 51]),
   midi.NoteOnEvent(tick=240, channel=0, data=[63, 0]),
   midi.ControlChangeEvent(tick=0, channel=0, data=[64, 0]),
   midi.NoteOnEvent(tick=0, channel=0, data=[39, 46]),
   midi.ControlChangeEvent(tick=63, channel=0, data=[64, 127]),
   midi.NoteOnEvent(tick=57, channel=0, data=[39, 0]),
   midi.NoteOnEvent(tick=120, channel=0, data=[50, 38]),
   midi.NoteOnEvent(tick=80, channel=0, data=[51, 38]),
   midi.NoteOnEvent(tick=20, channel=0, data=[50, 0]),
   midi.NoteOnEvent(tick=60, channel=0, data=[53, 37]),
   midi.NoteOnEvent(tick=20, channel=0, data=[51, 0]),
   midi.NoteOnEvent(tick=60, channel=0, data=[53, 0]),
   midi.NoteOnEvent(tick=0, channel=0, data=[51, 50]),
   midi.ControlChangeEvent(tick=17, channel=0, data=[64, 0]),
   midi.NoteOnEvent(tick=103, channel=0, data=[51, 0]),
   midi.NoteOnEvent(tick=120, channel=0, data=[51, 50]),
   midi.ControlChangeEvent(tick=46, channel=0, data=[64, 127]),
   midi.NoteOnEvent(tick=434, channel=0, data=[51, 0]),
   midi.NoteOnEvent(tick=0, channel=0, data=[51, 46]),
   midi.NoteOnEvent(tick=240, channel=0, data=[51, 0]),
   midi.ControlChangeEvent(tick=0, channel=0, data=[64, 0]),
   midi.NoteOnEvent(tick=0, channel=0, data=[51, 41]),
   midi.NoteOnEvent(tick=0, channel=0, data=[60, 41]),
   midi.ControlChangeEvent(tick=117, channel=0, data=[64, 127]),
   midi.NoteOnEvent(tick=123, channel=0, data=[60, 0]),
   midi.NoteOnEvent(tick=0, channel=0, data=[61, 39]),
   midi.NoteOnEvent(tick=240, channel=0, data=[61, 0]),
   midi.NoteOnEvent(tick=0, channel=0, data=[65, 41]),
   midi.ControlChangeEvent(tick=14, channel=0, data=[64, 0]),
   midi.ControlChangeEvent(tick=71, channel=0, data=[64, 127]),
   midi.NoteOnEvent(tick=155, channel=0, data=[65, 0]),
   midi.NoteOnEvent(tick=0, channel=0, data=[63, 38]),
   midi.NoteOnEvent(tick=240, channel=0, data=[63, 0]),
   midi.NoteOnEvent(tick=0, channel=0, data=[67, 40]),
   midi.ControlChangeEvent(tick=21, channel=0, data=[64, 0]),
   midi.ControlChangeEvent(tick=85, channel=0, data=[64, 127]),
   midi.NoteOnEvent(tick=134, channel=0, data=[67, 0]),
   midi.NoteOnEvent(tick=0, channel=0, data=[63, 38]),
   midi.NoteOnEvent(tick=240, channel=0, data=[63, 0]),
   midi.NoteOnEvent(tick=0, channel=0, data=[51, 0]),
   midi.NoteOnEvent(tick=0, channel=0, data=[51, 39]),
   midi.ControlChangeEvent(tick=11, channel=0, data=[64, 0]),
   midi.ControlChangeEvent(tick=89, channel=0, data=[64, 127]),
   midi.NoteOnEvent(tick=20, channel=0, data=[51, 0]),
   midi.NoteOnEvent(tick=120, channel=0, data=[62, 32]),
   midi.NoteOnEvent(tick=80, channel=0, data=[63, 32]),
   midi.NoteOnEvent(tick=20, channel=0, data=[62, 0]),
   midi.NoteOnEvent(tick=60, channel=0, data=[65, 31]),
   midi.NoteOnEvent(tick=20, channel=0, data=[63, 0]),
   midi.NoteOnEvent(tick=60, channel=0, data=[65, 0]),
   midi.NoteOnEvent(tick=0, channel=0, data=[63, 36]),
   midi.ControlChangeEvent(tick=15, channel=0, data=[64, 0]),
   midi.NoteOnEvent(tick=105, channel=0, data=[63, 0]),
   midi.NoteOnEvent(tick=120, channel=0, data=[63, 42]),
   midi.ControlChangeEvent(tick=55, channel=0, data=[64, 127]),
   midi.NoteOnEvent(tick=425, channel=0, data=[63, 0]),
   midi.NoteOnEvent(tick=0, channel=0, data=[63, 39]),
   midi.NoteOnEvent(tick=240, channel=0, data=[63, 0]),
   midi.NoteOnEvent(tick=0, channel=0, data=[56, 41]),
   midi.NoteOnEvent(tick=0, channel=0, data=[60, 41]),
   midi.ControlChangeEvent(tick=8, channel=0, data=[64, 0]),
   midi.ControlChangeEvent(tick=187, channel=0, data=[64, 127]),
   midi.NoteOnEvent(tick=45, channel=0, data=[60, 0]),
   midi.NoteOnEvent(tick=0, channel=0, data=[61, 40]),
   midi.NoteOnEvent(tick=240, channel=0, data=[61, 0]),
   midi.NoteOnEvent(tick=0, channel=0, data=[63, 44]),
   midi.ControlChangeEvent(tick=16, channel=0, data=[64, 0]),
   midi.ControlChangeEvent(tick=87, channel=0, data=[64, 127]),
   midi.NoteOnEvent(tick=137, channel=0, data=[63, 0]),
   midi.NoteOnEvent(tick=0, channel=0, data=[70, 47]),
   midi.NoteOnEvent(tick=240, channel=0, data=[70, 0]),
   midi.NoteOnEvent(tick=0, channel=0, data=[68, 44]),
   midi.ControlChangeEvent(tick=12, channel=0, data=[64, 0]),
   midi.ControlChangeEvent(tick=125, channel=0, data=[64, 127]),
   midi.NoteOnEvent(tick=103, channel=0, data=[68, 0]),
   midi.NoteOnEvent(tick=0, channel=0, data=[66, 36]),
   midi.NoteOnEvent(tick=240, channel=0, data=[66, 0]),
   midi.NoteOnEvent(tick=0, channel=0, data=[56, 0]),
   midi.NoteOnEvent(tick=0, channel=0, data=[49, 54]),
   midi.ControlChangeEvent(tick=9, channel=0, data=[64, 0]),
   midi.ControlChangeEvent(tick=54, channel=0, data=[64, 127]),
   midi.NoteOnEvent(tick=57, channel=0, data=[49, 0]),
   midi.NoteOnEvent(tick=120, channel=0, data=[55, 49]),
   midi.NoteOnEvent(tick=80, channel=0, data=[56, 49]),
   midi.NoteOnEvent(tick=20, channel=0, data=[55, 0]),
   midi.NoteOnEvent(tick=60, channel=0, data=[61, 48]),
   midi.NoteOnEvent(tick=20, channel=0, data=[56, 0]),
   midi.NoteOnEvent(tick=60, channel=0, data=[61, 0]),
   midi.ControlChangeEvent(tick=16, channel=0, data=[64, 0]),
   midi.ControlChangeEvent(tick=87, channel=0, data=[64, 127]),
   midi.NoteOnEvent(tick=137, channel=0, data=[68, 59]),
   midi.NoteOnEvent(tick=240, channel=0, data=[68, 0]),
   midi.NoteOnEvent(tick=0, channel=0, data=[44, 58]),
   midi.NoteOnEvent(tick=120, channel=0, data=[44, 0]),
   midi.NoteOnEvent(tick=120, channel=0, data=[68, 52]),
   midi.NoteOnEvent(tick=0, channel=0, data=[61, 52]),
   midi.NoteOnEvent(tick=0, channel=0, data=[56, 52]),
   midi.ControlChangeEvent(tick=14, channel=0, data=[64, 0]),
   midi.NoteOnEvent(tick=106, channel=0, data=[56, 0]),
   midi.NoteOnEvent(tick=0, channel=0, data=[61, 0]),
   midi.NoteOnEvent(tick=0, channel=0, data=[68, 0]),
   midi.NoteOnEvent(tick=120, channel=0, data=[49, 59]),
   midi.ControlChangeEvent(tick=20, channel=0, data=[64, 127]),
   midi.NoteOnEvent(tick=100, channel=0, data=[49, 0]),
   midi.NoteOnEvent(tick=120, channel=0, data=[55, 49]),
   midi.NoteOnEvent(tick=80, channel=0, data=[56, 49]),
   midi.NoteOnEvent(tick=20, channel=0, data=[55, 0]),
   midi.NoteOnEvent(tick=60, channel=0, data=[61, 48]),
   midi.NoteOnEvent(tick=20, channel=0, data=[56, 0]),
   midi.NoteOnEvent(tick=60, channel=0, data=[65, 59]),
   midi.ControlChangeEvent(tick=8, channel=0, data=[64, 0]),
   midi.NoteOnEvent(tick=12, channel=0, data=[61, 0]),
   midi.ControlChangeEvent(tick=60, channel=0, data=[64, 127]),
   midi.NoteOnEvent(tick=40, channel=0, data=[65, 0]),
   midi.NoteOnEvent(tick=120, channel=0, data=[56, 56]),
   midi.NoteOnEvent(tick=0, channel=0, data=[61, 56]),
   midi.NoteOnEvent(tick=0, channel=0, data=[65, 56]),
   midi.NoteOnEvent(tick=240, channel=0, data=[65, 0]),
   midi.NoteOnEvent(tick=0, channel=0, data=[61, 0]),
   midi.NoteOnEvent(tick=0, channel=0, data=[56, 0]),
   midi.NoteOnEvent(tick=0, channel=0, data=[44, 61]),
   midi.NoteOnEvent(tick=120, channel=0, data=[44, 0]),
   midi.ControlChangeEvent(tick=9, channel=0, data=[64, 0]),
   midi.NoteOnEvent(tick=111, channel=0, data=[65, 49]),
   midi.NoteOnEvent(tick=0, channel=0, data=[61, 49]),
   midi.NoteOnEvent(tick=0, channel=0, data=[56, 49]),
   midi.NoteOnEvent(tick=120, channel=0, data=[56, 0]),
   midi.NoteOnEvent(tick=0, channel=0, data=[61, 0]),
   midi.NoteOnEvent(tick=0, channel=0, data=[65, 0]),
   midi.NoteOnEvent(tick=120, channel=0, data=[51, 55]),
   midi.ControlChangeEvent(tick=57, channel=0, data=[64, 127]),
   midi.NoteOnEvent(tick=63, channel=0, data=[51, 0]),
   midi.NoteOnEvent(tick=120, channel=0, data=[55, 45]),
   midi.NoteOnEvent(tick=80, channel=0, data=[56, 45]),
   midi.NoteOnEvent(tick=20, channel=0, data=[55, 0]),
   midi.NoteOnEvent(tick=60, channel=0, data=[60, 44]),
   midi.NoteOnEvent(tick=20, channel=0, data=[56, 0]),
   midi.NoteOnEvent(tick=60, channel=0, data=[66, 53]),
   midi.ControlChangeEvent(tick=12, channel=0, data=[64, 0]),
   midi.NoteOnEvent(tick=8, channel=0, data=[60, 0]),
   midi.ControlChangeEvent(tick=60, channel=0, data=[64, 127]),
   midi.NoteOnEvent(tick=40, channel=0, data=[66, 0]),
   midi.NoteOnEvent(tick=120, channel=0, data=[56, 57]),
   midi.NoteOnEvent(tick=0, channel=0, data=[60, 57]),
   midi.NoteOnEvent(tick=0, channel=0, data=[66, 57]),
   midi.ControlChangeEvent(tick=237, channel=0, data=[64, 0]),
   midi.NoteOnEvent(tick=3, channel=0, data=[66, 0]),
   midi.NoteOnEvent(tick=0, channel=0, data=[60, 0]),
   midi.NoteOnEvent(tick=0, channel=0, data=[56, 0]),
   midi.NoteOnEvent(tick=4, channel=0, data=[44, 53]),
   midi.NoteOnEvent(tick=120, channel=0, data=[44, 0]),
   midi.ControlChangeEvent(tick=5, channel=0, data=[64, 127]),
   midi.NoteOnEvent(tick=111, channel=0, data=[66, 42]),
   midi.NoteOnEvent(tick=0, channel=0, data=[60, 42]),
   midi.NoteOnEvent(tick=0, channel=0, data=[56, 42]),
   midi.NoteOnEvent(tick=120, channel=0, data=[56, 0]),
   midi.NoteOnEvent(tick=0, channel=0, data=[60, 0]),
   midi.NoteOnEvent(tick=0, channel=0, data=[66, 0]),
   midi.NoteOnEvent(tick=120, channel=0, data=[51, 58]),
   midi.ControlChangeEvent(tick=3, channel=0, data=[64, 0]),
   midi.ControlChangeEvent(tick=60, channel=0, data=[64, 127]),
   midi.NoteOnEvent(tick=57, channel=0, data=[51, 0]),
   midi.NoteOnEvent(tick=120, channel=0, data=[55, 45]),
   midi.NoteOnEvent(tick=80, channel=0, data=[56, 45]),
   midi.NoteOnEvent(tick=20, channel=0, data=[55, 0]),
   midi.NoteOnEvent(tick=60, channel=0, data=[60, 42]),
   midi.NoteOnEvent(tick=20, channel=0, data=[56, 0]),
   midi.NoteOnEvent(tick=60, channel=0, data=[66, 52]),
   midi.NoteOnEvent(tick=20, channel=0, data=[60, 0]),
   midi.ControlChangeEvent(tick=8, channel=0, data=[64, 0]),
   midi.NoteOnEvent(tick=92, channel=0, data=[66, 0]),
   midi.ControlChangeEvent(tick=17, channel=0, data=[64, 127]),
   midi.NoteOnEvent(tick=103, channel=0, data=[56, 49]),
   midi.NoteOnEvent(tick=0, channel=0, data=[60, 49]),
   midi.NoteOnEvent(tick=0, channel=0, data=[66, 49]),
   midi.NoteOnEvent(tick=240, channel=0, data=[66, 0]),
   midi.NoteOnEvent(tick=0, channel=0, data=[60, 0]),
   midi.NoteOnEvent(tick=0, channel=0, data=[56, 0]),
   midi.NoteOnEvent(tick=0, channel=0, data=[44, 41]),
   midi.NoteOnEvent(tick=120, channel=0, data=[44, 0]),
   midi.ControlChangeEvent(tick=3, channel=0, data=[64, 0]),
   midi.NoteOnEvent(tick=117, channel=0, data=[66, 39]),
   midi.NoteOnEvent(tick=0, channel=0, data=[60, 39]),
   midi.NoteOnEvent(tick=0, channel=0, data=[56, 39]),
   midi.NoteOnEvent(tick=120, channel=0, data=[56, 0]),
   midi.NoteOnEvent(tick=0, channel=0, data=[60, 0]),
   midi.NoteOnEvent(tick=0, channel=0, data=[66, 0]),
   midi.NoteOnEvent(tick=120, channel=0, data=[49, 39]),
   midi.ControlChangeEvent(tick=63, channel=0, data=[64, 127]),
   midi.NoteOnEvent(tick=57, channel=0, data=[49, 0]),
   midi.NoteOnEvent(tick=120, channel=0, data=[55, 32]),
   midi.NoteOnEvent(tick=80, channel=0, data=[56, 32]),
   midi.NoteOnEvent(tick=20, channel=0, data=[55, 0]),
   midi.NoteOnEvent(tick=60, channel=0, data=[61, 31]),
   midi.NoteOnEvent(tick=20, channel=0, data=[56, 0]),
   midi.NoteOnEvent(tick=60, channel=0, data=[61, 0]),
   midi.ControlChangeEvent(tick=15, channel=0, data=[64, 0]),
   midi.ControlChangeEvent(tick=88, channel=0, data=[64, 127]),
   midi.NoteOnEvent(tick=137, channel=0, data=[68, 42]),
   midi.NoteOnEvent(tick=240, channel=0, data=[68, 0]),
   midi.NoteOnEvent(tick=0, channel=0, data=[44, 38]),
   midi.NoteOnEvent(tick=120, channel=0, data=[44, 0]),
   midi.NoteOnEvent(tick=120, channel=0, data=[68, 34]),
   midi.NoteOnEvent(tick=0, channel=0, data=[61, 34]),
   midi.NoteOnEvent(tick=0, channel=0, data=[56, 34]),
   midi.ControlChangeEvent(tick=10, channel=0, data=[64, 0]),
   midi.NoteOnEvent(tick=110, channel=0, data=[56, 0]),
   midi.NoteOnEvent(tick=0, channel=0, data=[61, 0]),
   midi.NoteOnEvent(tick=0, channel=0, data=[68, 0]),
   midi.NoteOnEvent(tick=120, channel=0, data=[49, 39]),
   midi.ControlChangeEvent(tick=46, channel=0, data=[64, 127]),
   midi.NoteOnEvent(tick=74, channel=0, data=[49, 0]),
   midi.NoteOnEvent(tick=120, channel=0, data=[55, 32]),
   midi.NoteOnEvent(tick=80, channel=0, data=[56, 32]),
   midi.NoteOnEvent(tick=20, channel=0, data=[55, 0]),
   midi.NoteOnEvent(tick=60, channel=0, data=[61, 31]),
   midi.NoteOnEvent(tick=20, channel=0, data=[56, 0]),
   midi.NoteOnEvent(tick=60, channel=0, data=[65, 38]),
   midi.ControlChangeEvent(tick=17, channel=0, data=[64, 0]),
   midi.NoteOnEvent(tick=3, channel=0, data=[61, 0]),
   midi.ControlChangeEvent(tick=75, channel=0, data=[64, 127]),
   midi.NoteOnEvent(tick=25, channel=0, data=[65, 0]),
   midi.NoteOnEvent(tick=120, channel=0, data=[56, 40]),
   midi.NoteOnEvent(tick=0, channel=0, data=[61, 40]),
   midi.NoteOnEvent(tick=0, channel=0, data=[65, 40]),
   midi.NoteOnEvent(tick=240, channel=0, data=[65, 0]),
   midi.NoteOnEvent(tick=0, channel=0, data=[61, 0]),
   midi.NoteOnEvent(tick=0, channel=0, data=[56, 0]),
   midi.NoteOnEvent(tick=0, channel=0, data=[44, 38]),
   midi.NoteOnEvent(tick=120, channel=0, data=[44, 0]),
   midi.ControlChangeEvent(tick=43, channel=0, data=[64, 0]),
   midi.NoteOnEvent(tick=77, channel=0, data=[65, 30]),
   midi.NoteOnEvent(tick=0, channel=0, data=[61, 30]),
   midi.NoteOnEvent(tick=0, channel=0, data=[56, 30]),
   midi.NoteOnEvent(tick=120, channel=0, data=[56, 0]),
   midi.NoteOnEvent(tick=0, channel=0, data=[61, 0]),
   midi.NoteOnEvent(tick=0, channel=0, data=[65, 0]),
   midi.NoteOnEvent(tick=120, channel=0, data=[51, 46]),
   midi.ControlChangeEvent(tick=49, channel=0, data=[64, 127]),
   midi.NoteOnEvent(tick=71, channel=0, data=[51, 0]),
   midi.NoteOnEvent(tick=120, channel=0, data=[55, 38]),
   midi.NoteOnEvent(tick=80, channel=0, data=[56, 38]),
   midi.NoteOnEvent(tick=20, channel=0, data=[55, 0]),
   midi.NoteOnEvent(tick=60, channel=0, data=[60, 37]),
   midi.NoteOnEvent(tick=20, channel=0, data=[56, 0]),
   midi.NoteOnEvent(tick=60, channel=0, data=[66, 45]),
   midi.ControlChangeEvent(tick=15, channel=0, data=[64, 0]),
   midi.NoteOnEvent(tick=5, channel=0, data=[60, 0]),
   midi.ControlChangeEvent(tick=57, channel=0, data=[64, 127]),
   midi.NoteOnEvent(tick=43, channel=0, data=[66, 0]),
   midi.NoteOnEvent(tick=120, channel=0, data=[56, 48]),
   midi.NoteOnEvent(tick=0, channel=0, data=[60, 48]),
   midi.NoteOnEvent(tick=0, channel=0, data=[66, 48]),
   midi.NoteOnEvent(tick=240, channel=0, data=[66, 0]),
   midi.NoteOnEvent(tick=0, channel=0, data=[60, 0]),
   midi.NoteOnEvent(tick=0, channel=0, data=[56, 0]),
   midi.NoteOnEvent(tick=0, channel=0, data=[44, 45]),
   midi.ControlChangeEvent(tick=6, channel=0, data=[64, 0]),
   midi.NoteOnEvent(tick=114, channel=0, data=[44, 0]),
   midi.ControlChangeEvent(tick=17, channel=0, data=[64, 127]),
   midi.NoteOnEvent(tick=103, channel=0, data=[66, 36]),
   midi.NoteOnEvent(tick=0, channel=0, data=[60, 36]),
   midi.NoteOnEvent(tick=0, channel=0, data=[56, 36]),
   midi.NoteOnEvent(tick=120, channel=0, data=[56, 0]),
   midi.NoteOnEvent(tick=0, channel=0, data=[60, 0]),
   midi.NoteOnEvent(tick=0, channel=0, data=[66, 0]),
   midi.NoteOnEvent(tick=120, channel=0, data=[51, 49]),
   midi.ControlChangeEvent(tick=6, channel=0, data=[64, 0]),
   midi.ControlChangeEvent(tick=48, channel=0, data=[64, 127]),
   midi.NoteOnEvent(tick=66, channel=0, data=[51, 0]),
   midi.NoteOnEvent(tick=120, channel=0, data=[55, 38]),
   midi.NoteOnEvent(tick=80, channel=0, data=[56, 38]),
   midi.NoteOnEvent(tick=20, channel=0, data=[55, 0]),
   midi.NoteOnEvent(tick=60, channel=0, data=[60, 37]),
   midi.NoteOnEvent(tick=20, channel=0, data=[56, 0]),
   midi.NoteOnEvent(tick=60, channel=0, data=[66, 45]),
   midi.NoteOnEvent(tick=20, channel=0, data=[60, 0]),
   midi.ControlChangeEvent(tick=8, channel=0, data=[64, 0]),
   midi.NoteOnEvent(tick=92, channel=0, data=[66, 0]),
   midi.ControlChangeEvent(tick=17, channel=0, data=[64, 127]),
   midi.NoteOnEvent(tick=103, channel=0, data=[56, 43]),
   midi.NoteOnEvent(tick=0, channel=0, data=[60, 43]),
   midi.NoteOnEvent(tick=0, channel=0, data=[66, 43]),
   midi.NoteOnEvent(tick=240, channel=0, data=[66, 0]),
   midi.NoteOnEvent(tick=0, channel=0, data=[60, 0]),
   midi.NoteOnEvent(tick=0, channel=0, data=[56, 0]),
   midi.NoteOnEvent(tick=0, channel=0, data=[47, 33]),
   midi.ControlChangeEvent(tick=2, channel=0, data=[64, 0]),
   midi.ControlChangeEvent(tick=147, channel=0, data=[64, 127]),
   midi.NoteOnEvent(tick=31, channel=0, data=[58, 23]),
   midi.NoteOnEvent(tick=60, channel=0, data=[58, 0]),
   midi.NoteOnEvent(tick=0, channel=0, data=[59, 28]),
   midi.NoteOnEvent(tick=120, channel=0, data=[59, 0]),
   midi.NoteOnEvent(tick=120, channel=0, data=[47, 0]),
   midi.NoteOnEvent(tick=0, channel=0, data=[52, 42]),
   midi.ControlChangeEvent(tick=11, channel=0, data=[64, 0]),
   midi.ControlChangeEvent(tick=52, channel=0, data=[64, 127]),
   midi.NoteOnEvent(tick=57, channel=0, data=[52, 0]),
   midi.NoteOnEvent(tick=120, channel=0, data=[58, 36]),
   midi.NoteOnEvent(tick=80, channel=0, data=[59, 36]),
   midi.NoteOnEvent(tick=20, channel=0, data=[58, 0]),
   midi.NoteOnEvent(tick=60, channel=0, data=[61, 36]),
   midi.NoteOnEvent(tick=20, channel=0, data=[59, 0]),
   midi.NoteOnEvent(tick=60, channel=0, data=[61, 0]),
   midi.NoteOnEvent(tick=0, channel=0, data=[59, 49]),
   midi.ControlChangeEvent(tick=9, channel=0, data=[64, 0]),
   midi.ControlChangeEvent(tick=94, channel=0, data=[64, 127]),
   midi.NoteOnEvent(tick=17, channel=0, data=[59, 0]),
   midi.NoteOnEvent(tick=120, channel=0, data=[59, 44]),
   midi.NoteOnEvent(tick=240, channel=0, data=[59, 0]),
   midi.NoteOnEvent(tick=0, channel=0, data=[47, 44]),
   midi.NoteOnEvent(tick=120, channel=0, data=[47, 0]),
   midi.NoteOnEvent(tick=120, channel=0, data=[59, 44]),
   midi.NoteOnEvent(tick=0, channel=0, data=[62, 44]),
   midi.NoteOnEvent(tick=0, channel=0, data=[53, 44]),
   midi.NoteOnEvent(tick=120, channel=0, data=[53, 0]),
   midi.NoteOnEvent(tick=0, channel=0, data=[62, 0]),
   midi.NoteOnEvent(tick=0, channel=0, data=[59, 0]),
   midi.NoteOnEvent(tick=120, channel=0, data=[54, 50]),
   midi.ControlChangeEvent(tick=8, channel=0, data=[64, 0]),
   midi.ControlChangeEvent(tick=55, channel=0, data=[64, 127]),
   midi.NoteOnEvent(tick=57, channel=0, data=[54, 0]),
   midi.NoteOnEvent(tick=120, channel=0, data=[58, 41]),
   midi.NoteOnEvent(tick=80, channel=0, data=[59, 41]),
   midi.NoteOnEvent(tick=20, channel=0, data=[58, 0]),
   midi.NoteOnEvent(tick=60, channel=0, data=[61, 40]),
   midi.NoteOnEvent(tick=20, channel=0, data=[59, 0]),
   midi.NoteOnEvent(tick=60, channel=0, data=[61, 0]),
   midi.NoteOnEvent(tick=0, channel=0, data=[59, 55]),
   midi.ControlChangeEvent(tick=9, channel=0, data=[64, 0]),
   midi.ControlChangeEvent(tick=94, channel=0, data=[64, 127]),
   midi.NoteOnEvent(tick=17, channel=0, data=[59, 0]),
   midi.NoteOnEvent(tick=120, channel=0, data=[59, 56]),
   midi.NoteOnEvent(tick=240, channel=0, data=[59, 0]),
   midi.NoteOnEvent(tick=0, channel=0, data=[47, 51]),
   midi.NoteOnEvent(tick=120, channel=0, data=[47, 0]),
   midi.NoteOnEvent(tick=120, channel=0, data=[63, 47]),
   midi.NoteOnEvent(tick=0, channel=0, data=[69, 47]),
   midi.NoteOnEvent(tick=0, channel=0, data=[59, 47]),
   midi.NoteOnEvent(tick=120, channel=0, data=[59, 0]),
   midi.NoteOnEvent(tick=0, channel=0, data=[69, 0]),
   midi.NoteOnEvent(tick=0, channel=0, data=[63, 0]),
   midi.NoteOnEvent(tick=120, channel=0, data=[52, 42]),
   midi.ControlChangeEvent(tick=8, channel=0, data=[64, 0]),
   midi.ControlChangeEvent(tick=107, channel=0, data=[64, 127]),
   midi.NoteOnEvent(tick=5, channel=0, data=[52, 0]),
   midi.NoteOnEvent(tick=120, channel=0, data=[58, 34]),
   midi.NoteOnEvent(tick=80, channel=0, data=[59, 34]),
   midi.NoteOnEvent(tick=20, channel=0, data=[58, 0]),
   midi.NoteOnEvent(tick=60, channel=0, data=[61, 34]),
   midi.NoteOnEvent(tick=20, channel=0, data=[59, 0]),
   midi.NoteOnEvent(tick=60, channel=0, data=[61, 0]),
   midi.NoteOnEvent(tick=0, channel=0, data=[59, 46]),
   midi.ControlChangeEvent(tick=17, channel=0, data=[64, 0]),
   midi.ControlChangeEvent(tick=86, channel=0, data=[64, 127]),
   midi.NoteOnEvent(tick=17, channel=0, data=[59, 0]),
   midi.NoteOnEvent(tick=120, channel=0, data=[59, 41]),
   midi.NoteOnEvent(tick=240, channel=0, data=[59, 0]),
   midi.NoteOnEvent(tick=0, channel=0, data=[47, 41]),
   midi.NoteOnEvent(tick=120, channel=0, data=[47, 0]),
   midi.NoteOnEvent(tick=120, channel=0, data=[59, 37]),
   midi.NoteOnEvent(tick=0, channel=0, data=[62, 37]),
   midi.NoteOnEvent(tick=0, channel=0, data=[53, 37]),
   midi.NoteOnEvent(tick=120, channel=0, data=[53, 0]),
   midi.NoteOnEvent(tick=0, channel=0, data=[62, 0]),
   midi.NoteOnEvent(tick=0, channel=0, data=[59, 0]),
   midi.NoteOnEvent(tick=120, channel=0, data=[54, 42]),
   midi.ControlChangeEvent(tick=5, channel=0, data=[64, 0]),
   midi.ControlChangeEvent(tick=92, channel=0, data=[64, 127]),
   midi.NoteOnEvent(tick=23, channel=0, data=[54, 0]),
   midi.NoteOnEvent(tick=120, channel=0, data=[58, 34]),
   midi.NoteOnEvent(tick=80, channel=0, data=[59, 34]),
   midi.NoteOnEvent(tick=20, channel=0, data=[58, 0]),
   midi.NoteOnEvent(tick=60, channel=0, data=[61, 34]),
   midi.NoteOnEvent(tick=20, channel=0, data=[59, 0]),
   midi.NoteOnEvent(tick=60, channel=0, data=[61, 0]),
   midi.NoteOnEvent(tick=0, channel=0, data=[59, 46]),
   midi.ControlChangeEvent(tick=9, channel=0, data=[64, 0]),
   midi.ControlChangeEvent(tick=94, channel=0, data=[64, 127]),
   midi.NoteOnEvent(tick=17, channel=0, data=[59, 0]),
   midi.NoteOnEvent(tick=120, channel=0, data=[59, 46]),
   midi.NoteOnEvent(tick=240, channel=0, data=[59, 0]),
   midi.NoteOnEvent(tick=0, channel=0, data=[47, 48]),
   midi.NoteOnEvent(tick=120, channel=0, data=[47, 0]),
   midi.NoteOnEvent(tick=120, channel=0, data=[63, 43]),
   midi.NoteOnEvent(tick=0, channel=0, data=[69, 43]),
   midi.NoteOnEvent(tick=0, channel=0, data=[59, 43]),
   midi.NoteOnEvent(tick=120, channel=0, data=[59, 0]),
   midi.NoteOnEvent(tick=0, channel=0, data=[69, 0]),
   midi.NoteOnEvent(tick=0, channel=0, data=[63, 0]),
   midi.ControlChangeEvent(tick=120, channel=0, data=[64, 0]),
   midi.NoteOnEvent(tick=0, channel=0, data=[64, 69]),
   midi.ControlChangeEvent(tick=106, channel=0, data=[64, 127]),
   midi.NoteOnEvent(tick=134, channel=0, data=[64, 0]),
   midi.NoteOnEvent(tick=0, channel=0, data=[63, 56]),
   midi.NoteOnEvent(tick=80, channel=0, data=[64, 56]),
   midi.NoteOnEvent(tick=20, channel=0, data=[63, 0]),
   midi.NoteOnEvent(tick=60, channel=0, data=[63, 56]),
   midi.NoteOnEvent(tick=20, channel=0, data=[64, 0]),
   midi.NoteOnEvent(tick=60, channel=0, data=[63, 0]),
   midi.NoteOnEvent(tick=0, channel=0, data=[62, 66]),
   midi.ControlChangeEvent(tick=7, channel=0, data=[64, 0]),
   midi.ControlChangeEvent(tick=96, channel=0, data=[64, 127]),
   midi.NoteOnEvent(tick=137, channel=0, data=[62, 0]),
   midi.NoteOnEvent(tick=0, channel=0, data=[63, 53]),
   midi.NoteOnEvent(tick=240, channel=0, data=[63, 0]),
   midi.NoteOnEvent(tick=0, channel=0, data=[60, 60]),
   midi.ControlChangeEvent(tick=7, channel=0, data=[64, 0]),
   midi.ControlChangeEvent(tick=85, channel=0, data=[64, 127]),
   midi.NoteOnEvent(tick=148, channel=0, data=[60, 0]),
   midi.NoteOnEvent(tick=0, channel=0, data=[56, 55]),
   midi.ControlChangeEvent(tick=212, channel=0, data=[64, 0]),
   midi.NoteOnEvent(tick=28, channel=0, data=[56, 0]),
   midi.NoteOnEvent(tick=0, channel=0, data=[61, 60]),
   midi.NoteOnEvent(tick=240, channel=0, data=[61, 0]),
   midi.NoteOnEvent(tick=0, channel=0, data=[57, 55]),
   midi.ControlChangeEvent(tick=60, channel=0, data=[64, 127]),
   midi.NoteOnEvent(tick=180, channel=0, data=[57, 0]),
   midi.NoteOnEvent(tick=0, channel=0, data=[58, 58]),
   midi.ControlChangeEvent(tick=7, channel=0, data=[64, 0]),
   midi.ControlChangeEvent(tick=62, channel=0, data=[64, 127]),
   midi.NoteOnEvent(tick=171, channel=0, data=[58, 0]),
   midi.NoteOnEvent(tick=0, channel=0, data=[53, 54]),
   midi.ControlChangeEvent(tick=13, channel=0, data=[64, 0]),
   midi.ControlChangeEvent(tick=90, channel=0, data=[64, 127]),
   midi.NoteOnEvent(tick=137, channel=0, data=[53, 0]),
   midi.NoteOnEvent(tick=0, channel=0, data=[54, 57]),
   midi.ControlChangeEvent(tick=17, channel=0, data=[64, 0]),
   midi.ControlChangeEvent(tick=86, channel=0, data=[64, 127]),
   midi.NoteOnEvent(tick=137, channel=0, data=[54, 0]),
   midi.NoteOnEvent(tick=0, channel=0, data=[50, 53]),
   midi.NoteOnEvent(tick=0, channel=0, data=[59, 53]),
   midi.ControlChangeEvent(tick=16, channel=0, data=[64, 0]),
   midi.ControlChangeEvent(tick=98, channel=0, data=[64, 127]),
   midi.NoteOnEvent(tick=126, channel=0, data=[59, 0]),
   midi.NoteOnEvent(tick=0, channel=0, data=[50, 0]),
   midi.NoteOnEvent(tick=0, channel=0, data=[51, 49]),
   midi.NoteOnEvent(tick=0, channel=0, data=[58, 49]),
   midi.ControlChangeEvent(tick=6, channel=0, data=[64, 0]),
   midi.ControlChangeEvent(tick=157, channel=0, data=[64, 127]),
   midi.ControlChangeEvent(tick=338, channel=0, data=[64, 0]),
   midi.ControlChangeEvent(tick=46, channel=0, data=[64, 127]),
   midi.ControlChangeEvent(tick=432, channel=0, data=[64, 0]),
   midi.ControlChangeEvent(tick=73, channel=0, data=[64, 127]),
   midi.NoteOnEvent(tick=388, channel=0, data=[58, 0]),
   midi.NoteOnEvent(tick=0, channel=0, data=[51, 0]),
   midi.NoteOnEvent(tick=0, channel=0, data=[44, 50]),
   midi.ControlChangeEvent(tick=3, channel=0, data=[64, 0]),
   midi.ControlChangeEvent(tick=60, channel=0, data=[64, 127]),
   midi.NoteOnEvent(tick=177, channel=0, data=[44, 0]),
   midi.NoteOnEvent(tick=0, channel=0, data=[55, 41]),
   midi.NoteOnEvent(tick=80, channel=0, data=[56, 41]),
   midi.NoteOnEvent(tick=20, channel=0, data=[55, 0]),
   midi.NoteOnEvent(tick=60, channel=0, data=[58, 40]),
   midi.NoteOnEvent(tick=20, channel=0, data=[56, 0]),
   midi.NoteOnEvent(tick=60, channel=0, data=[58, 0]),
   midi.NoteOnEvent(tick=0, channel=0, data=[56, 50]),
   midi.ControlChangeEvent(tick=11, channel=0, data=[64, 0]),
   midi.ControlChangeEvent(tick=98, channel=0, data=[64, 127]),
   midi.NoteOnEvent(tick=131, channel=0, data=[56, 0]),
   midi.NoteOnEvent(tick=0, channel=0, data=[56, 50]),
   midi.NoteOnEvent(tick=240, channel=0, data=[56, 0]),
   midi.NoteOnEvent(tick=0, channel=0, data=[44, 46]),
   midi.NoteOnEvent(tick=240, channel=0, data=[56, 43]),
   midi.NoteOnEvent(tick=240, channel=0, data=[56, 0]),
   midi.NoteOnEvent(tick=0, channel=0, data=[44, 0]),
   midi.ControlChangeEvent(tick=0, channel=0, data=[64, 0]),
   midi.NoteOnEvent(tick=0, channel=0, data=[49, 34]),
   midi.ControlChangeEvent(tick=88, channel=0, data=[64, 127]),
   midi.ControlChangeEvent(tick=401, channel=0, data=[64, 0]),
   midi.ControlChangeEvent(tick=252, channel=0, data=[64, 127]),
   midi.NoteOnEvent(tick=219, channel=0, data=[49, 0]),
   midi.NoteOnEvent(tick=0, channel=0, data=[44, 34]),
   midi.NoteOnEvent(tick=240, channel=0, data=[44, 0]),
   midi.NoteOnEvent(tick=0, channel=0, data=[50, 39]),
   midi.ControlChangeEvent(tick=11, channel=0, data=[64, 0]),
   midi.NoteOnEvent(tick=229, channel=0, data=[50, 0]),
   midi.NoteOnEvent(tick=0, channel=0, data=[51, 49]),
   midi.ControlChangeEvent(tick=127, channel=0, data=[64, 127]),
   midi.ControlChangeEvent(tick=367, channel=0, data=[64, 0]),
   midi.ControlChangeEvent(tick=311, channel=0, data=[64, 127]),
   midi.NoteOnEvent(tick=155, channel=0, data=[51, 0]),
   midi.NoteOnEvent(tick=0, channel=0, data=[44, 39]),
   midi.NoteOnEvent(tick=240, channel=0, data=[44, 0]),
   midi.NoteOnEvent(tick=0, channel=0, data=[48, 35]),
   midi.ControlChangeEvent(tick=14, channel=0, data=[64, 0]),
   midi.NoteOnEvent(tick=226, channel=0, data=[48, 0]),
   midi.NoteOnEvent(tick=0, channel=0, data=[49, 27]),
   midi.ControlChangeEvent(tick=99, channel=0, data=[64, 127]),
   midi.ControlChangeEvent(tick=395, channel=0, data=[64, 0]),
   midi.ControlChangeEvent(tick=247, channel=0, data=[64, 127]),
   midi.NoteOnEvent(tick=219, channel=0, data=[49, 0]),
   midi.NoteOnEvent(tick=0, channel=0, data=[44, 27]),
   midi.NoteOnEvent(tick=240, channel=0, data=[44, 0]),
   midi.NoteOnEvent(tick=0, channel=0, data=[50, 31]),
   midi.ControlChangeEvent(tick=19, channel=0, data=[64, 0]),
   midi.NoteOnEvent(tick=221, channel=0, data=[50, 0]),
   midi.NoteOnEvent(tick=0, channel=0, data=[51, 36]),
   midi.ControlChangeEvent(tick=85, channel=0, data=[64, 127]),
   midi.ControlChangeEvent(tick=406, channel=0, data=[64, 0]),
   midi.ControlChangeEvent(tick=275, channel=0, data=[64, 127]),
   midi.NoteOnEvent(tick=194, channel=0, data=[51, 0]),
   midi.NoteOnEvent(tick=0, channel=0, data=[44, 31]),
   midi.NoteOnEvent(tick=240, channel=0, data=[44, 0]),
   midi.NoteOnEvent(tick=0, channel=0, data=[48, 34]),
   midi.ControlChangeEvent(tick=15, channel=0, data=[64, 0]),
   midi.NoteOnEvent(tick=225, channel=0, data=[48, 0]),
   midi.NoteOnEvent(tick=0, channel=0, data=[49, 31]),
   midi.ControlChangeEvent(tick=78, channel=0, data=[64, 127]),
   midi.NoteOnEvent(tick=162, channel=0, data=[49, 0]),
   midi.NoteOnEvent(tick=0, channel=0, data=[56, 32]),
   midi.NoteOnEvent(tick=60, channel=0, data=[56, 0]),
   midi.NoteOnEvent(tick=180, channel=0, data=[61, 32]),
   midi.NoteOnEvent(tick=60, channel=0, data=[61, 0]),
   midi.NoteOnEvent(tick=180, channel=0, data=[65, 31]),
   midi.NoteOnEvent(tick=60, channel=0, data=[65, 0]),
   midi.NoteOnEvent(tick=180, channel=0, data=[68, 31]),
   midi.NoteOnEvent(tick=60, channel=0, data=[68, 0]),
   midi.NoteOnEvent(tick=180, channel=0, data=[73, 30]),
   midi.NoteOnEvent(tick=60, channel=0, data=[73, 0]),
   midi.NoteOnEvent(tick=180, channel=0, data=[77, 30]),
   midi.NoteOnEvent(tick=60, channel=0, data=[77, 0]),
   midi.NoteOnEvent(tick=180, channel=0, data=[68, 29]),
   midi.NoteOnEvent(tick=60, channel=0, data=[68, 0]),
   midi.NoteOnEvent(tick=180, channel=0, data=[73, 29]),
   midi.NoteOnEvent(tick=60, channel=0, data=[73, 0]),
   midi.NoteOnEvent(tick=180, channel=0, data=[77, 29]),
   midi.NoteOnEvent(tick=60, channel=0, data=[77, 0]),
   midi.NoteOnEvent(tick=180, channel=0, data=[80, 28]),
   midi.NoteOnEvent(tick=60, channel=0, data=[80, 0]),
   midi.NoteOnEvent(tick=180, channel=0, data=[85, 28]),
   midi.NoteOnEvent(tick=60, channel=0, data=[85, 0]),
   midi.NoteOnEvent(tick=120, channel=0, data=[73, 28]),
   midi.NoteOnEvent(tick=25, channel=0, data=[80, 28]),
   midi.NoteOnEvent(tick=1475, channel=0, data=[73, 0]),
   midi.NoteOnEvent(tick=0, channel=0, data=[37, 17]),
   midi.NoteOnEvent(tick=0, channel=0, data=[44, 17]),
   midi.NoteOnEvent(tick=0, channel=0, data=[49, 22]),
   midi.NoteOnEvent(tick=10, channel=0, data=[80, 0]),
   midi.NoteOnEvent(tick=1430, channel=0, data=[37, 0]),
   midi.NoteOnEvent(tick=0, channel=0, data=[44, 0]),
   midi.NoteOnEvent(tick=0, channel=0, data=[49, 0]),
   midi.ControlChangeEvent(tick=1147, channel=0, data=[64, 0]),
   midi.EndOfTrackEvent(tick=0, data=[])])])
midi.write_midifile("creationMidi.mid", pattern)