midi.Pattern(format=1, resolution=480, tracks=\
[midi.Track(\
  [midi.TrackNameEvent(tick=0, text='Das wohltemperierte Klavier I - Praeludium und Fuge 1 in C-Dur BWV 846', data=[68, 97, 115, 32, 119, 111, 104, 108, 116, 101, 109, 112, 101, 114, 105, 101, 114, 116, 101, 32, 75, 108, 97, 118, 105, 101, 114, 32, 73, 32, 45, 32, 80, 114, 97, 101, 108, 117, 100, 105, 117, 109, 32, 117, 110, 100, 32, 70, 117, 103, 101, 32, 49, 32, 105, 110, 32, 67, 45, 68, 117, 114, 32, 66, 87, 86, 32, 56, 52, 54]),
   midi.CopyrightMetaEvent(tick=0, text='Copyright © 1996  Bernd Krueger.', data=[67, 111, 112, 121, 114, 105, 103, 104, 116, 32, 169, 32, 49, 57, 57, 54, 32, 32, 66, 101, 114, 110, 100, 32, 75, 114, 117, 101, 103, 101, 114, 46]),
   midi.TextMetaEvent(tick=0, text='Johann Sebastian Bach', data=[74, 111, 104, 97, 110, 110, 32, 83, 101, 98, 97, 115, 116, 105, 97, 110, 32, 66, 97, 99, 104]),
   midi.TextMetaEvent(tick=0, text='Fertiggestellt am 29.10.97\n', data=[70, 101, 114, 116, 105, 103, 103, 101, 115, 116, 101, 108, 108, 116, 32, 97, 109, 32, 50, 57, 46, 49, 48, 46, 57, 55, 10]),
   midi.TextMetaEvent(tick=0, text="Pan's auf Standard am 18.1.98\n", data=[80, 97, 110, 39, 115, 32, 97, 117, 102, 32, 83, 116, 97, 110, 100, 97, 114, 100, 32, 97, 109, 32, 49, 56, 46, 49, 46, 57, 56, 10]),
   midi.TextMetaEvent(tick=0, text='Normierung: 23.12.2002\n', data=[78, 111, 114, 109, 105, 101, 114, 117, 110, 103, 58, 32, 50, 51, 46, 49, 50, 46, 50, 48, 48, 50, 10]),
   midi.TextMetaEvent(tick=0, text='Update am 25.9.2004\n', data=[85, 112, 100, 97, 116, 101, 32, 97, 109, 32, 50, 53, 46, 57, 46, 50, 48, 48, 52, 10]),
   midi.TextMetaEvent(tick=0, text='Dauer: 3:46 Minuten\n', data=[68, 97, 117, 101, 114, 58, 32, 51, 58, 52, 54, 32, 77, 105, 110, 117, 116, 101, 110, 10]),
   midi.TimeSignatureEvent(tick=0, data=[4, 2, 24, 8]),
   midi.KeySignatureEvent(tick=0, data=[0, 0]),
   midi.SetTempoEvent(tick=0, data=[12, 95, 59]),
   midi.MarkerEvent(tick=0, text='Prelude', data=[80, 114, 101, 108, 117, 100, 101]),
   midi.SetTempoEvent(tick=480, data=[12, 32, 78]),
   midi.SetTempoEvent(tick=120, data=[12, 95, 59]),
   midi.SetTempoEvent(tick=960, data=[12, 53, 0]),
   midi.SetTempoEvent(tick=360, data=[12, 95, 59]),
   midi.SetTempoEvent(tick=360, data=[12, 11, 226]),
   midi.SetTempoEvent(tick=120, data=[11, 188, 207]),
   midi.SetTempoEvent(tick=120, data=[12, 11, 226]),
   midi.SetTempoEvent(tick=360, data=[12, 32, 78]),
   midi.SetTempoEvent(tick=360, data=[11, 227, 213]),
   midi.SetTempoEvent(tick=120, data=[11, 150, 198]),
   midi.SetTempoEvent(tick=120, data=[11, 227, 213]),
   midi.SetTempoEvent(tick=240, data=[12, 95, 59]),
   midi.SetTempoEvent(tick=120, data=[12, 73, 249]),
   midi.SetTempoEvent(tick=360, data=[11, 227, 213]),
   midi.SetTempoEvent(tick=120, data=[11, 113, 176]),
   midi.SetTempoEvent(tick=120, data=[11, 227, 213]),
   midi.SetTempoEvent(tick=240, data=[11, 227, 213]),
   midi.SetTempoEvent(tick=120, data=[12, 73, 249]),
   midi.SetTempoEvent(tick=360, data=[12, 11, 226]),
   midi.SetTempoEvent(tick=120, data=[11, 188, 207]),
   midi.SetTempoEvent(tick=120, data=[12, 11, 226]),
   midi.SetTempoEvent(tick=240, data=[12, 160, 194]),
   midi.SetTempoEvent(tick=120, data=[12, 11, 226]),
   midi.SetTempoEvent(tick=480, data=[11, 169, 171]),
   midi.SetTempoEvent(tick=120, data=[12, 11, 226]),
   midi.SetTempoEvent(tick=240, data=[12, 116, 199]),
   midi.SetTempoEvent(tick=120, data=[12, 11, 226]),
   midi.SetTempoEvent(tick=480, data=[11, 188, 207]),
   midi.SetTempoEvent(tick=120, data=[12, 11, 226]),
   midi.SetTempoEvent(tick=360, data=[12, 95, 59]),
   midi.SetTempoEvent(tick=360, data=[12, 11, 226]),
   midi.SetTempoEvent(tick=120, data=[11, 188, 207]),
   midi.SetTempoEvent(tick=120, data=[11, 247, 186]),
   midi.SetTempoEvent(tick=360, data=[12, 95, 59]),
   midi.SetTempoEvent(tick=360, data=[11, 247, 186]),
   midi.SetTempoEvent(tick=120, data=[11, 188, 207]),
   midi.SetTempoEvent(tick=120, data=[11, 247, 186]),
   midi.SetTempoEvent(tick=240, data=[12, 73, 249]),
   midi.SetTempoEvent(tick=120, data=[11, 247, 186]),
   midi.SetTempoEvent(tick=480, data=[11, 169, 171]),
   midi.SetTempoEvent(tick=120, data=[11, 227, 213]),
   midi.SetTempoEvent(tick=360, data=[12, 73, 249]),
   midi.SetTempoEvent(tick=480, data=[11, 227, 213]),
   midi.SetTempoEvent(tick=360, data=[12, 160, 194]),
   midi.SetTempoEvent(tick=120, data=[12, 53, 0]),
   midi.SetTempoEvent(tick=360, data=[11, 227, 213]),
   midi.SetTempoEvent(tick=120, data=[11, 188, 207]),
   midi.SetTempoEvent(tick=120, data=[11, 227, 213]),
   midi.SetTempoEvent(tick=240, data=[12, 95, 59]),
   midi.SetTempoEvent(tick=120, data=[12, 53, 0]),
   midi.SetTempoEvent(tick=360, data=[11, 208, 50]),
   midi.SetTempoEvent(tick=480, data=[12, 160, 194]),
   midi.SetTempoEvent(tick=120, data=[12, 73, 249]),
   midi.SetTempoEvent(tick=480, data=[11, 208, 50]),
   midi.SetTempoEvent(tick=360, data=[12, 95, 59]),
   midi.SetTempoEvent(tick=120, data=[11, 247, 186]),
   midi.SetTempoEvent(tick=480, data=[11, 208, 50]),
   midi.SetTempoEvent(tick=360, data=[12, 160, 194]),
   midi.SetTempoEvent(tick=120, data=[12, 11, 226]),
   midi.SetTempoEvent(tick=600, data=[12, 95, 59]),
   midi.SetTempoEvent(tick=360, data=[12, 32, 78]),
   midi.SetTempoEvent(tick=600, data=[12, 116, 199]),
   midi.SetTempoEvent(tick=240, data=[13, 93, 136]),
   midi.SetTempoEvent(tick=120, data=[12, 116, 199]),
   midi.SetTempoEvent(tick=360, data=[12, 53, 0]),
   midi.SetTempoEvent(tick=600, data=[12, 116, 199]),
   midi.SetTempoEvent(tick=360, data=[12, 32, 78]),
   midi.SetTempoEvent(tick=480, data=[12, 160, 194]),
   midi.SetTempoEvent(tick=120, data=[12, 32, 78]),
   midi.SetTempoEvent(tick=480, data=[11, 247, 186]),
   midi.SetTempoEvent(tick=480, data=[12, 32, 78]),
   midi.SetTempoEvent(tick=480, data=[11, 227, 213]),
   midi.SetTempoEvent(tick=380, data=[12, 95, 59]),
   midi.SetTempoEvent(tick=100, data=[12, 32, 78]),
   midi.SetTempoEvent(tick=480, data=[11, 227, 213]),
   midi.SetTempoEvent(tick=360, data=[12, 160, 194]),
   midi.SetTempoEvent(tick=120, data=[12, 32, 78]),
   midi.SetTempoEvent(tick=500, data=[11, 247, 186]),
   midi.SetTempoEvent(tick=340, data=[12, 138, 158]),
   midi.SetTempoEvent(tick=120, data=[12, 183, 53]),
   midi.SetTempoEvent(tick=120, data=[12, 32, 78]),
   midi.SetTempoEvent(tick=360, data=[11, 247, 186]),
   midi.SetTempoEvent(tick=480, data=[12, 32, 78]),
   midi.SetTempoEvent(tick=480, data=[11, 247, 186]),
   midi.SetTempoEvent(tick=360, data=[12, 183, 53]),
   midi.SetTempoEvent(tick=120, data=[12, 53, 0]),
   midi.SetTempoEvent(tick=480, data=[11, 247, 186]),
   midi.SetTempoEvent(tick=480, data=[12, 53, 0]),
   midi.SetTempoEvent(tick=480, data=[11, 247, 186]),
   midi.SetTempoEvent(tick=360, data=[12, 138, 158]),
   midi.SetTempoEvent(tick=120, data=[12, 53, 0]),
   midi.SetTempoEvent(tick=360, data=[12, 32, 78]),
   midi.SetTempoEvent(tick=120, data=[11, 208, 50]),
   midi.SetTempoEvent(tick=480, data=[12, 32, 78]),
   midi.SetTempoEvent(tick=480, data=[11, 227, 213]),
   midi.SetTempoEvent(tick=360, data=[12, 229, 14]),
   midi.SetTempoEvent(tick=120, data=[12, 73, 249]),
   midi.SetTempoEvent(tick=480, data=[11, 247, 186]),
   midi.SetTempoEvent(tick=480, data=[12, 73, 249]),
   midi.SetTempoEvent(tick=480, data=[12, 11, 226]),
   midi.SetTempoEvent(tick=360, data=[12, 252, 120]),
   midi.SetTempoEvent(tick=120, data=[12, 73, 249]),
   midi.SetTempoEvent(tick=480, data=[12, 11, 226]),
   midi.SetTempoEvent(tick=360, data=[12, 229, 14]),
   midi.SetTempoEvent(tick=120, data=[12, 73, 249]),
   midi.SetTempoEvent(tick=480, data=[12, 32, 78]),
   midi.SetTempoEvent(tick=360, data=[12, 252, 120]),
   midi.SetTempoEvent(tick=120, data=[12, 73, 249]),
   midi.SetTempoEvent(tick=960, data=[12, 73, 249]),
   midi.SetTempoEvent(tick=960, data=[12, 160, 194]),
   midi.SetTempoEvent(tick=360, data=[12, 73, 249]),
   midi.SetTempoEvent(tick=600, data=[12, 138, 158]),
   midi.SetTempoEvent(tick=360, data=[12, 53, 0]),
   midi.SetTempoEvent(tick=600, data=[12, 53, 0]),
   midi.SetTempoEvent(tick=480, data=[11, 227, 213]),
   midi.SetTempoEvent(tick=120, data=[12, 32, 78]),
   midi.SetTempoEvent(tick=360, data=[12, 53, 0]),
   midi.SetTempoEvent(tick=480, data=[11, 227, 213]),
   midi.SetTempoEvent(tick=120, data=[12, 53, 0]),
   midi.SetTempoEvent(tick=240, data=[13, 93, 136]),
   midi.SetTempoEvent(tick=120, data=[12, 53, 0]),
   midi.SetTempoEvent(tick=480, data=[11, 247, 186]),
   midi.SetTempoEvent(tick=480, data=[12, 53, 0]),
   midi.SetTempoEvent(tick=480, data=[12, 11, 226]),
   midi.SetTempoEvent(tick=360, data=[13, 44, 77]),
   midi.SetTempoEvent(tick=120, data=[12, 116, 199]),
   midi.SetTempoEvent(tick=480, data=[12, 73, 249]),
   midi.SetTempoEvent(tick=480, data=[12, 116, 199]),
   midi.SetTempoEvent(tick=480, data=[12, 53, 0]),
   midi.SetTempoEvent(tick=360, data=[14, 78, 28]),
   midi.SetTempoEvent(tick=120, data=[12, 11, 226]),
   midi.SetTempoEvent(tick=600, data=[11, 188, 207]),
   midi.SetTempoEvent(tick=240, data=[12, 138, 158]),
   midi.SetTempoEvent(tick=120, data=[12, 11, 226]),
   midi.SetTempoEvent(tick=600, data=[11, 208, 50]),
   midi.SetTempoEvent(tick=240, data=[12, 116, 199]),
   midi.SetTempoEvent(tick=120, data=[12, 116, 199]),
   midi.SetTempoEvent(tick=360, data=[12, 11, 226]),
   midi.SetTempoEvent(tick=600, data=[12, 95, 59]),
   midi.SetTempoEvent(tick=360, data=[12, 11, 226]),
   midi.SetTempoEvent(tick=480, data=[12, 183, 53]),
   midi.SetTempoEvent(tick=120, data=[12, 73, 249]),
   midi.SetTempoEvent(tick=480, data=[12, 11, 226]),
   midi.SetTempoEvent(tick=480, data=[12, 73, 249]),
   midi.SetTempoEvent(tick=480, data=[11, 247, 186]),
   midi.SetTempoEvent(tick=480, data=[12, 11, 226]),
   midi.SetTempoEvent(tick=480, data=[11, 188, 207]),
   midi.SetTempoEvent(tick=360, data=[12, 116, 199]),
   midi.SetTempoEvent(tick=120, data=[12, 95, 59]),
   midi.SetTempoEvent(tick=120, data=[12, 32, 78]),
   midi.SetTempoEvent(tick=360, data=[11, 188, 207]),
   midi.SetTempoEvent(tick=240, data=[11, 227, 213]),
   midi.SetTempoEvent(tick=120, data=[12, 116, 199]),
   midi.SetTempoEvent(tick=120, data=[12, 32, 78]),
   midi.SetTempoEvent(tick=480, data=[11, 227, 213]),
   midi.SetTempoEvent(tick=480, data=[12, 32, 78]),
   midi.SetTempoEvent(tick=480, data=[11, 227, 213]),
   midi.SetTempoEvent(tick=360, data=[12, 138, 158]),
   midi.SetTempoEvent(tick=120, data=[12, 32, 78]),
   midi.SetTempoEvent(tick=600, data=[12, 116, 199]),
   midi.SetTempoEvent(tick=360, data=[12, 32, 78]),
   midi.SetTempoEvent(tick=600, data=[12, 138, 158]),
   midi.SetTempoEvent(tick=240, data=[13, 68, 189]),
   midi.SetTempoEvent(tick=120, data=[13, 20, 55]),
   midi.SetTempoEvent(tick=360, data=[12, 53, 0]),
   midi.SetTempoEvent(tick=240, data=[12, 53, 0]),
   midi.SetTempoEvent(tick=360, data=[12, 205, 249]),
   midi.SetTempoEvent(tick=360, data=[12, 53, 0]),
   midi.SetTempoEvent(tick=480, data=[13, 20, 55]),
   midi.SetTempoEvent(tick=120, data=[12, 53, 0]),
   midi.SetTempoEvent(tick=600, data=[11, 247, 186]),
   midi.SetTempoEvent(tick=360, data=[12, 53, 0]),
   midi.SetTempoEvent(tick=600, data=[11, 247, 186]),
   midi.SetTempoEvent(tick=360, data=[12, 252, 120]),
   midi.SetTempoEvent(tick=120, data=[12, 53, 0]),
   midi.SetTempoEvent(tick=840, data=[12, 205, 249]),
   midi.SetTempoEvent(tick=120, data=[12, 73, 249]),
   midi.SetTempoEvent(tick=840, data=[12, 116, 199]),
   midi.SetTempoEvent(tick=480, data=[12, 73, 249]),
   midi.SetTempoEvent(tick=360, data=[12, 252, 120]),
   midi.SetTempoEvent(tick=120, data=[12, 116, 199]),
   midi.SetTempoEvent(tick=480, data=[12, 73, 249]),
   midi.SetTempoEvent(tick=360, data=[12, 205, 249]),
   midi.SetTempoEvent(tick=120, data=[12, 116, 199]),
   midi.SetTempoEvent(tick=360, data=[12, 32, 78]),
   midi.SetTempoEvent(tick=220, data=[12, 116, 199]),
   midi.SetTempoEvent(tick=380, data=[12, 11, 226]),
   midi.SetTempoEvent(tick=120, data=[12, 116, 199]),
   midi.SetTempoEvent(tick=360, data=[12, 229, 14]),
   midi.SetTempoEvent(tick=240, data=[13, 196, 112]),
   midi.SetTempoEvent(tick=120, data=[15, 99, 19]),
   midi.SetTempoEvent(tick=120, data=[12, 229, 14]),
   midi.SetTempoEvent(tick=960, data=[14, 106, 242]),
   midi.SetTempoEvent(tick=480, data=[16, 204, 117]),
   midi.SetTempoEvent(tick=20, data=[16, 244, 71]),
   midi.SetTempoEvent(tick=20, data=[17, 28, 215]),
   midi.SetTempoEvent(tick=20, data=[17, 112, 73]),
   midi.SetTempoEvent(tick=20, data=[17, 155, 54]),
   midi.SetTempoEvent(tick=20, data=[17, 243, 151]),
   midi.SetTempoEvent(tick=20, data=[18, 33, 23]),
   midi.SetTempoEvent(tick=20, data=[18, 79, 128]),
   midi.SetTempoEvent(tick=20, data=[18, 175, 42]),
   midi.SetTempoEvent(tick=20, data=[18, 224, 121]),
   midi.SetTempoEvent(tick=20, data=[19, 70, 54]),
   midi.SetTempoEvent(tick=20, data=[19, 122, 180]),
   midi.SetTempoEvent(tick=20, data=[19, 176, 83]),
   midi.SetTempoEvent(tick=20, data=[20, 31, 25]),
   midi.SetTempoEvent(tick=20, data=[20, 88, 85]),
   midi.SetTempoEvent(tick=20, data=[20, 206, 180]),
   midi.SetTempoEvent(tick=20, data=[21, 11, 238]),
   midi.SetTempoEvent(tick=20, data=[21, 138, 181]),
   midi.SetTempoEvent(tick=20, data=[29, 16, 122]),
   midi.SetTempoEvent(tick=2040, data=[14, 171, 104]),
   midi.MarkerEvent(tick=0, text='Fugue', data=[70, 117, 103, 117, 101]),
   midi.SetTempoEvent(tick=960, data=[14, 166, 0]),
   midi.SetTempoEvent(tick=360, data=[13, 170, 34]),
   midi.SetTempoEvent(tick=120, data=[14, 136, 61]),
   midi.SetTempoEvent(tick=480, data=[14, 226, 250]),
   midi.SetTempoEvent(tick=240, data=[14, 106, 242]),
   midi.SetTempoEvent(tick=840, data=[14, 226, 250]),
   midi.SetTempoEvent(tick=120, data=[14, 106, 242]),
   midi.SetTempoEvent(tick=480, data=[14, 226, 250]),
   midi.SetTempoEvent(tick=240, data=[14, 106, 242]),
   midi.SetTempoEvent(tick=360, data=[13, 170, 34]),
   midi.SetTempoEvent(tick=120, data=[14, 106, 242]),
   midi.SetTempoEvent(tick=480, data=[14, 196, 62]),
   midi.SetTempoEvent(tick=240, data=[14, 78, 28]),
   midi.SetTempoEvent(tick=720, data=[14, 166, 0]),
   midi.SetTempoEvent(tick=240, data=[14, 106, 242]),
   midi.SetTempoEvent(tick=240, data=[14, 78, 28]),
   midi.SetTempoEvent(tick=720, data=[14, 226, 250]),
   midi.SetTempoEvent(tick=120, data=[13, 144, 57]),
   midi.SetTempoEvent(tick=120, data=[14, 78, 28]),
   midi.SetTempoEvent(tick=480, data=[14, 226, 250]),
   midi.SetTempoEvent(tick=240, data=[14, 78, 28]),
   midi.SetTempoEvent(tick=960, data=[14, 196, 62]),
   midi.SetTempoEvent(tick=240, data=[14, 78, 28]),
   midi.SetTempoEvent(tick=840, data=[13, 93, 136]),
   midi.SetTempoEvent(tick=120, data=[14, 106, 242]),
   midi.SetTempoEvent(tick=480, data=[14, 196, 62]),
   midi.SetTempoEvent(tick=240, data=[14, 106, 242]),
   midi.SetTempoEvent(tick=480, data=[13, 196, 112]),
   midi.SetTempoEvent(tick=240, data=[14, 106, 242]),
   midi.SetTempoEvent(tick=720, data=[14, 196, 62]),
   midi.SetTempoEvent(tick=240, data=[14, 106, 242]),
   midi.SetTempoEvent(tick=360, data=[13, 170, 34]),
   midi.SetTempoEvent(tick=120, data=[14, 78, 28]),
   midi.SetTempoEvent(tick=500, data=[14, 196, 62]),
   midi.SetTempoEvent(tick=220, data=[14, 106, 242]),
   midi.SetTempoEvent(tick=240, data=[14, 106, 242]),
   midi.SetTempoEvent(tick=240, data=[13, 223, 35]),
   midi.SetTempoEvent(tick=240, data=[14, 226, 250]),
   midi.SetTempoEvent(tick=240, data=[14, 106, 242]),
   midi.SetTempoEvent(tick=480, data=[13, 223, 35]),
   midi.SetTempoEvent(tick=120, data=[14, 196, 62]),
   midi.SetTempoEvent(tick=120, data=[14, 106, 242]),
   midi.SetTempoEvent(tick=1320, data=[13, 170, 34]),
   midi.SetTempoEvent(tick=120, data=[14, 106, 242]),
   midi.SetTempoEvent(tick=360, data=[14, 78, 28]),
   midi.SetTempoEvent(tick=120, data=[14, 226, 250]),
   midi.SetTempoEvent(tick=240, data=[14, 78, 28]),
   midi.SetTempoEvent(tick=240, data=[13, 196, 112]),
   midi.SetTempoEvent(tick=100, data=[13, 223, 35]),
   midi.SetTempoEvent(tick=100, data=[13, 250, 63]),
   midi.SetTempoEvent(tick=100, data=[14, 21, 197]),
   midi.SetTempoEvent(tick=100, data=[14, 49, 185]),
   midi.SetTempoEvent(tick=80, data=[13, 223, 35]),
   midi.SetTempoEvent(tick=120, data=[13, 250, 63]),
   midi.SetTempoEvent(tick=120, data=[14, 21, 197]),
   midi.SetTempoEvent(tick=120, data=[14, 49, 185]),
   midi.SetTempoEvent(tick=120, data=[14, 78, 28]),
   midi.SetTempoEvent(tick=240, data=[14, 166, 0]),
   midi.SetTempoEvent(tick=240, data=[14, 78, 28]),
   midi.SetTempoEvent(tick=360, data=[13, 170, 34]),
   midi.SetTempoEvent(tick=120, data=[14, 78, 28]),
   midi.SetTempoEvent(tick=360, data=[13, 144, 57]),
   midi.SetTempoEvent(tick=120, data=[14, 78, 28]),
   midi.SetTempoEvent(tick=480, data=[14, 226, 250]),
   midi.SetTempoEvent(tick=240, data=[14, 78, 28]),
   midi.SetTempoEvent(tick=480, data=[14, 196, 62]),
   midi.SetTempoEvent(tick=240, data=[14, 106, 242]),
   midi.SetTempoEvent(tick=840, data=[13, 170, 34]),
   midi.SetTempoEvent(tick=120, data=[14, 78, 28]),
   midi.SetTempoEvent(tick=480, data=[14, 226, 250]),
   midi.SetTempoEvent(tick=240, data=[14, 78, 28]),
   midi.SetTempoEvent(tick=960, data=[15, 37, 208]),
   midi.SetTempoEvent(tick=240, data=[16, 16, 144]),
   midi.SetTempoEvent(tick=480, data=[14, 171, 104]),
   midi.SetTempoEvent(tick=720, data=[15, 99, 19]),
   midi.SetTempoEvent(tick=240, data=[14, 166, 0]),
   midi.SetTempoEvent(tick=360, data=[13, 223, 35]),
   midi.SetTempoEvent(tick=120, data=[14, 136, 61]),
   midi.SetTempoEvent(tick=480, data=[14, 226, 250]),
   midi.SetTempoEvent(tick=240, data=[14, 136, 61]),
   midi.SetTempoEvent(tick=360, data=[14, 21, 197]),
   midi.SetTempoEvent(tick=240, data=[14, 226, 250]),
   midi.SetTempoEvent(tick=120, data=[14, 136, 61]),
   midi.SetTempoEvent(tick=720, data=[15, 2, 55]),
   midi.SetTempoEvent(tick=240, data=[14, 136, 61]),
   midi.SetTempoEvent(tick=360, data=[13, 223, 35]),
   midi.SetTempoEvent(tick=120, data=[14, 226, 250]),
   midi.SetTempoEvent(tick=240, data=[14, 136, 61]),
   midi.SetTempoEvent(tick=600, data=[15, 66, 64]),
   midi.SetTempoEvent(tick=120, data=[14, 136, 61]),
   midi.SetTempoEvent(tick=360, data=[13, 250, 63]),
   midi.SetTempoEvent(tick=120, data=[14, 226, 250]),
   midi.SetTempoEvent(tick=240, data=[14, 136, 61]),
   midi.SetTempoEvent(tick=960, data=[13, 223, 35]),
   midi.SetTempoEvent(tick=240, data=[14, 136, 61]),
   midi.SetTempoEvent(tick=480, data=[15, 2, 55]),
   midi.SetTempoEvent(tick=240, data=[15, 2, 55]),
   midi.SetTempoEvent(tick=240, data=[14, 136, 61]),
   midi.SetTempoEvent(tick=240, data=[13, 250, 63]),
   midi.SetTempoEvent(tick=240, data=[14, 136, 61]),
   midi.SetTempoEvent(tick=480, data=[14, 136, 61]),
   midi.SetTempoEvent(tick=240, data=[15, 33, 248]),
   midi.SetTempoEvent(tick=240, data=[14, 136, 61]),
   midi.SetTempoEvent(tick=360, data=[15, 33, 248]),
   midi.SetTempoEvent(tick=1080, data=[14, 166, 0]),
   midi.SetTempoEvent(tick=480, data=[14, 166, 0]),
   midi.SetTempoEvent(tick=600, data=[15, 200, 243]),
   midi.SetTempoEvent(tick=120, data=[14, 196, 62]),
   midi.SetTempoEvent(tick=480, data=[14, 78, 28]),
   midi.SetTempoEvent(tick=240, data=[14, 166, 0]),
   midi.SetTempoEvent(tick=840, data=[15, 99, 19]),
   midi.SetTempoEvent(tick=120, data=[14, 166, 0]),
   midi.SetTempoEvent(tick=480, data=[15, 99, 19]),
   midi.SetTempoEvent(tick=240, data=[14, 136, 61]),
   midi.SetTempoEvent(tick=960, data=[13, 250, 63]),
   midi.SetTempoEvent(tick=240, data=[14, 136, 61]),
   midi.SetTempoEvent(tick=240, data=[15, 2, 55]),
   midi.SetTempoEvent(tick=960, data=[14, 166, 0]),
   midi.SetTempoEvent(tick=240, data=[14, 226, 250]),
   midi.SetTempoEvent(tick=960, data=[15, 101, 186]),
   midi.SetTempoEvent(tick=240, data=[17, 23, 239]),
   midi.SetTempoEvent(tick=720, data=[16, 16, 144]),
   midi.SetTempoEvent(tick=1200, data=[15, 66, 64]),
   midi.SetTempoEvent(tick=120, data=[17, 28, 215]),
   midi.SetTempoEvent(tick=120, data=[16, 15, 216]),
   midi.SetTempoEvent(tick=720, data=[15, 99, 19]),
   midi.SetTempoEvent(tick=120, data=[16, 244, 71]),
   midi.SetTempoEvent(tick=120, data=[16, 15, 216]),
   midi.SetTempoEvent(tick=600, data=[16, 163, 10]),
   midi.SetTempoEvent(tick=1000, data=[16, 201, 78]),
   midi.SetTempoEvent(tick=160, data=[16, 240, 67]),
   midi.SetTempoEvent(tick=160, data=[17, 23, 239]),
   midi.SetTempoEvent(tick=160, data=[17, 65, 43]),
   midi.SetTempoEvent(tick=160, data=[17, 106, 87]),
   midi.SetTempoEvent(tick=160, data=[17, 148, 74]),
   midi.SetTempoEvent(tick=120, data=[16, 126, 249]),
   midi.SetTempoEvent(tick=120, data=[17, 155, 54]),
   midi.SetTempoEvent(tick=600, data=[16, 204, 117]),
   midi.SetTempoEvent(tick=120, data=[17, 155, 54]),
   midi.SetTempoEvent(tick=480, data=[20, 64, 36]),
   midi.SetTempoEvent(tick=120, data=[24, 51, 123]),
   midi.SetTempoEvent(tick=240, data=[34, 133, 171]),
   midi.SetTempoEvent(tick=1080, data=[33, 232, 142]),
   midi.MarkerEvent(tick=0, text='Fine', data=[70, 105, 110, 101]),
   midi.SetTempoEvent(tick=15360, data=[14, 171, 104]),
   midi.EndOfTrackEvent(tick=0, data=[])]),
 midi.Track(\
  [midi.PortEvent(tick=0, data=[0]),
   midi.TrackNameEvent(tick=0, text='Piano right', data=[80, 105, 97, 110, 111, 32, 114, 105, 103, 104, 116]),
   midi.ProgramChangeEvent(tick=0, channel=0, data=[0]),
   midi.ControlChangeEvent(tick=0, channel=0, data=[7, 100]),
   midi.ControlChangeEvent(tick=0, channel=0, data=[10, 64]),
   midi.ControlChangeEvent(tick=0, channel=0, data=[91, 127]),
   midi.TextMetaEvent(tick=0, text='bdca426d104a26ac9dcb070447587523', data=[98, 100, 99, 97, 52, 50, 54, 100, 49, 48, 52, 97, 50, 54, 97, 99, 57, 100, 99, 98, 48, 55, 48, 52, 52, 55, 53, 56, 55, 53, 50, 51]),
   midi.NoteOnEvent(tick=241, channel=0, data=[67, 56]),
   midi.NoteOnEvent(tick=120, channel=0, data=[67, 0]),
   midi.NoteOnEvent(tick=0, channel=0, data=[72, 60]),
   midi.NoteOnEvent(tick=120, channel=0, data=[72, 0]),
   midi.NoteOnEvent(tick=0, channel=0, data=[76, 63]),
   midi.NoteOnEvent(tick=108, channel=0, data=[76, 0]),
   midi.NoteOnEvent(tick=12, channel=0, data=[67, 50]),
   midi.NoteOnEvent(tick=120, channel=0, data=[67, 0]),
   midi.NoteOnEvent(tick=0, channel=0, data=[72, 47]),
   midi.NoteOnEvent(tick=120, channel=0, data=[72, 0]),
   midi.NoteOnEvent(tick=0, channel=0, data=[76, 47]),
   midi.NoteOnEvent(tick=120, channel=0, data=[76, 0]),
   midi.NoteOnEvent(tick=240, channel=0, data=[67, 56]),
   midi.NoteOnEvent(tick=120, channel=0, data=[67, 0]),
   midi.NoteOnEvent(tick=0, channel=0, data=[72, 60]),
   midi.NoteOnEvent(tick=120, channel=0, data=[72, 0]),
   midi.NoteOnEvent(tick=0, channel=0, data=[76, 62]),
   midi.NoteOnEvent(tick=108, channel=0, data=[76, 0]),
   midi.NoteOnEvent(tick=12, channel=0, data=[67, 50]),
   midi.NoteOnEvent(tick=120, channel=0, data=[67, 0]),
   midi.NoteOnEvent(tick=0, channel=0, data=[72, 48]),
   midi.NoteOnEvent(tick=120, channel=0, data=[72, 0]),
   midi.NoteOnEvent(tick=0, channel=0, data=[76, 48]),
   midi.ControlChangeEvent(tick=119, channel=0, data=[91, 127]),
   midi.NoteOnEvent(tick=1, channel=0, data=[76, 0]),
   midi.NoteOnEvent(tick=240, channel=0, data=[69, 56]),
   midi.NoteOnEvent(tick=120, channel=0, data=[69, 0]),
   midi.NoteOnEvent(tick=0, channel=0, data=[74, 60]),
   midi.NoteOnEvent(tick=120, channel=0, data=[74, 0]),
   midi.NoteOnEvent(tick=0, channel=0, data=[77, 65]),
   midi.NoteOnEvent(tick=108, channel=0, data=[77, 0]),
   midi.NoteOnEvent(tick=12, channel=0, data=[69, 51]),
   midi.NoteOnEvent(tick=120, channel=0, data=[69, 0]),
   midi.NoteOnEvent(tick=0, channel=0, data=[74, 50]),
   midi.NoteOnEvent(tick=120, channel=0, data=[74, 0]),
   midi.NoteOnEvent(tick=0, channel=0, data=[77, 50]),
   midi.NoteOnEvent(tick=120, channel=0, data=[77, 0]),
   midi.NoteOnEvent(tick=240, channel=0, data=[69, 58]),
   midi.NoteOnEvent(tick=120, channel=0, data=[69, 0]),
   midi.NoteOnEvent(tick=0, channel=0, data=[74, 60]),
   midi.NoteOnEvent(tick=120, channel=0, data=[74, 0]),
   midi.NoteOnEvent(tick=0, channel=0, data=[77, 65]),
   midi.NoteOnEvent(tick=108, channel=0, data=[77, 0]),
   midi.NoteOnEvent(tick=12, channel=0, data=[69, 52]),
   midi.NoteOnEvent(tick=120, channel=0, data=[69, 0]),
   midi.NoteOnEvent(tick=0, channel=0, data=[74, 50]),
   midi.NoteOnEvent(tick=120, channel=0, data=[74, 0]),
   midi.NoteOnEvent(tick=0, channel=0, data=[77, 50]),
   midi.ControlChangeEvent(tick=119, channel=0, data=[91, 127]),
   midi.NoteOnEvent(tick=1, channel=0, data=[77, 0]),
   midi.NoteOnEvent(tick=240, channel=0, data=[67, 56]),
   midi.NoteOnEvent(tick=120, channel=0, data=[67, 0]),
   midi.NoteOnEvent(tick=0, channel=0, data=[74, 60]),
   midi.NoteOnEvent(tick=120, channel=0, data=[74, 0]),
   midi.NoteOnEvent(tick=0, channel=0, data=[77, 65]),
   midi.NoteOnEvent(tick=108, channel=0, data=[77, 0]),
   midi.NoteOnEvent(tick=12, channel=0, data=[67, 51]),
   midi.NoteOnEvent(tick=120, channel=0, data=[67, 0]),
   midi.NoteOnEvent(tick=0, channel=0, data=[74, 50]),
   midi.NoteOnEvent(tick=120, channel=0, data=[74, 0]),
   midi.NoteOnEvent(tick=0, channel=0, data=[77, 50]),
   midi.NoteOnEvent(tick=120, channel=0, data=[77, 0]),
   midi.NoteOnEvent(tick=240, channel=0, data=[67, 56]),
   midi.NoteOnEvent(tick=120, channel=0, data=[67, 0]),
   midi.NoteOnEvent(tick=0, channel=0, data=[74, 60]),
   midi.NoteOnEvent(tick=120, channel=0, data=[74, 0]),
   midi.NoteOnEvent(tick=0, channel=0, data=[77, 65]),
   midi.NoteOnEvent(tick=108, channel=0, data=[77, 0]),
   midi.NoteOnEvent(tick=12, channel=0, data=[67, 52]),
   midi.NoteOnEvent(tick=120, channel=0, data=[67, 0]),
   midi.NoteOnEvent(tick=0, channel=0, data=[74, 50]),
   midi.NoteOnEvent(tick=120, channel=0, data=[74, 0]),
   midi.NoteOnEvent(tick=0, channel=0, data=[77, 50]),
   midi.ControlChangeEvent(tick=119, channel=0, data=[91, 127]),
   midi.NoteOnEvent(tick=1, channel=0, data=[77, 0]),
   midi.NoteOnEvent(tick=240, channel=0, data=[67, 53]),
   midi.NoteOnEvent(tick=120, channel=0, data=[67, 0]),
   midi.NoteOnEvent(tick=0, channel=0, data=[72, 55]),
   midi.NoteOnEvent(tick=120, channel=0, data=[72, 0]),
   midi.NoteOnEvent(tick=0, channel=0, data=[76, 60]),
   midi.NoteOnEvent(tick=108, channel=0, data=[76, 0]),
   midi.NoteOnEvent(tick=12, channel=0, data=[67, 50]),
   midi.NoteOnEvent(tick=120, channel=0, data=[67, 0]),
   midi.NoteOnEvent(tick=0, channel=0, data=[72, 47]),
   midi.NoteOnEvent(tick=120, channel=0, data=[72, 0]),
   midi.NoteOnEvent(tick=0, channel=0, data=[76, 47]),
   midi.NoteOnEvent(tick=120, channel=0, data=[76, 0]),
   midi.NoteOnEvent(tick=240, channel=0, data=[67, 55]),
   midi.NoteOnEvent(tick=120, channel=0, data=[67, 0]),
   midi.NoteOnEvent(tick=0, channel=0, data=[72, 57]),
   midi.NoteOnEvent(tick=120, channel=0, data=[72, 0]),
   midi.NoteOnEvent(tick=0, channel=0, data=[76, 61]),
   midi.NoteOnEvent(tick=108, channel=0, data=[76, 0]),
   midi.NoteOnEvent(tick=12, channel=0, data=[67, 50]),
   midi.NoteOnEvent(tick=120, channel=0, data=[67, 0]),
   midi.NoteOnEvent(tick=0, channel=0, data=[72, 48]),
   midi.NoteOnEvent(tick=120, channel=0, data=[72, 0]),
   midi.NoteOnEvent(tick=0, channel=0, data=[76, 48]),
   midi.ControlChangeEvent(tick=119, channel=0, data=[91, 127]),
   midi.NoteOnEvent(tick=1, channel=0, data=[76, 0]),
   midi.NoteOnEvent(tick=240, channel=0, data=[69, 61]),
   midi.NoteOnEvent(tick=120, channel=0, data=[69, 0]),
   midi.NoteOnEvent(tick=0, channel=0, data=[76, 66]),
   midi.NoteOnEvent(tick=120, channel=0, data=[76, 0]),
   midi.NoteOnEvent(tick=0, channel=0, data=[81, 70]),
   midi.NoteOnEvent(tick=108, channel=0, data=[81, 0]),
   midi.NoteOnEvent(tick=12, channel=0, data=[69, 55]),
   midi.NoteOnEvent(tick=120, channel=0, data=[69, 0]),
   midi.NoteOnEvent(tick=0, channel=0, data=[76, 51]),
   midi.NoteOnEvent(tick=120, channel=0, data=[76, 0]),
   midi.NoteOnEvent(tick=0, channel=0, data=[81, 51]),
   midi.NoteOnEvent(tick=120, channel=0, data=[81, 0]),
   midi.NoteOnEvent(tick=240, channel=0, data=[69, 61]),
   midi.NoteOnEvent(tick=120, channel=0, data=[69, 0]),
   midi.NoteOnEvent(tick=0, channel=0, data=[76, 65]),
   midi.NoteOnEvent(tick=120, channel=0, data=[76, 0]),
   midi.NoteOnEvent(tick=0, channel=0, data=[81, 68]),
   midi.NoteOnEvent(tick=108, channel=0, data=[81, 0]),
   midi.NoteOnEvent(tick=12, channel=0, data=[69, 55]),
   midi.NoteOnEvent(tick=120, channel=0, data=[69, 0]),
   midi.NoteOnEvent(tick=0, channel=0, data=[76, 52]),
   midi.NoteOnEvent(tick=120, channel=0, data=[76, 0]),
   midi.NoteOnEvent(tick=0, channel=0, data=[81, 52]),
   midi.ControlChangeEvent(tick=119, channel=0, data=[91, 127]),
   midi.NoteOnEvent(tick=1, channel=0, data=[81, 0]),
   midi.NoteOnEvent(tick=240, channel=0, data=[66, 56]),
   midi.NoteOnEvent(tick=120, channel=0, data=[66, 0]),
   midi.NoteOnEvent(tick=0, channel=0, data=[69, 60]),
   midi.NoteOnEvent(tick=120, channel=0, data=[69, 0]),
   midi.NoteOnEvent(tick=0, channel=0, data=[74, 63]),
   midi.NoteOnEvent(tick=108, channel=0, data=[74, 0]),
   midi.NoteOnEvent(tick=12, channel=0, data=[66, 50]),
   midi.NoteOnEvent(tick=120, channel=0, data=[66, 0]),
   midi.NoteOnEvent(tick=0, channel=0, data=[69, 47]),
   midi.NoteOnEvent(tick=120, channel=0, data=[69, 0]),
   midi.NoteOnEvent(tick=0, channel=0, data=[74, 47]),
   midi.NoteOnEvent(tick=120, channel=0, data=[74, 0]),
   midi.NoteOnEvent(tick=240, channel=0, data=[66, 56]),
   midi.NoteOnEvent(tick=120, channel=0, data=[66, 0]),
   midi.NoteOnEvent(tick=0, channel=0, data=[69, 60]),
   midi.NoteOnEvent(tick=120, channel=0, data=[69, 0]),
   midi.NoteOnEvent(tick=0, channel=0, data=[74, 62]),
   midi.NoteOnEvent(tick=108, channel=0, data=[74, 0]),
   midi.NoteOnEvent(tick=12, channel=0, data=[66, 50]),
   midi.NoteOnEvent(tick=120, channel=0, data=[66, 0]),
   midi.NoteOnEvent(tick=0, channel=0, data=[69, 48]),
   midi.NoteOnEvent(tick=120, channel=0, data=[69, 0]),
   midi.NoteOnEvent(tick=0, channel=0, data=[74, 48]),
   midi.ControlChangeEvent(tick=119, channel=0, data=[91, 127]),
   midi.NoteOnEvent(tick=1, channel=0, data=[74, 0]),
   midi.NoteOnEvent(tick=240, channel=0, data=[67, 58]),
   midi.NoteOnEvent(tick=120, channel=0, data=[67, 0]),
   midi.NoteOnEvent(tick=0, channel=0, data=[74, 63]),
   midi.NoteOnEvent(tick=120, channel=0, data=[74, 0]),
   midi.NoteOnEvent(tick=0, channel=0, data=[79, 66]),
   midi.NoteOnEvent(tick=108, channel=0, data=[79, 0]),
   midi.NoteOnEvent(tick=12, channel=0, data=[67, 51]),
   midi.NoteOnEvent(tick=120, channel=0, data=[67, 0]),
   midi.NoteOnEvent(tick=0, channel=0, data=[74, 50]),
   midi.NoteOnEvent(tick=120, channel=0, data=[74, 0]),
   midi.NoteOnEvent(tick=0, channel=0, data=[79, 50]),
   midi.NoteOnEvent(tick=120, channel=0, data=[79, 0]),
   midi.NoteOnEvent(tick=240, channel=0, data=[67, 58]),
   midi.NoteOnEvent(tick=120, channel=0, data=[67, 0]),
   midi.NoteOnEvent(tick=0, channel=0, data=[74, 62]),
   midi.NoteOnEvent(tick=120, channel=0, data=[74, 0]),
   midi.NoteOnEvent(tick=0, channel=0, data=[79, 65]),
   midi.NoteOnEvent(tick=108, channel=0, data=[79, 0]),
   midi.NoteOnEvent(tick=12, channel=0, data=[67, 52]),
   midi.NoteOnEvent(tick=120, channel=0, data=[67, 0]),
   midi.NoteOnEvent(tick=0, channel=0, data=[74, 50]),
   midi.NoteOnEvent(tick=120, channel=0, data=[74, 0]),
   midi.NoteOnEvent(tick=0, channel=0, data=[79, 50]),
   midi.ControlChangeEvent(tick=119, channel=0, data=[91, 127]),
   midi.NoteOnEvent(tick=1, channel=0, data=[79, 0]),
   midi.NoteOnEvent(tick=240, channel=0, data=[64, 56]),
   midi.NoteOnEvent(tick=120, channel=0, data=[64, 0]),
   midi.NoteOnEvent(tick=0, channel=0, data=[67, 60]),
   midi.NoteOnEvent(tick=120, channel=0, data=[67, 0]),
   midi.NoteOnEvent(tick=0, channel=0, data=[72, 63]),
   midi.NoteOnEvent(tick=108, channel=0, data=[72, 0]),
   midi.NoteOnEvent(tick=12, channel=0, data=[64, 50]),
   midi.NoteOnEvent(tick=120, channel=0, data=[64, 0]),
   midi.NoteOnEvent(tick=0, channel=0, data=[67, 47]),
   midi.NoteOnEvent(tick=120, channel=0, data=[67, 0]),
   midi.NoteOnEvent(tick=0, channel=0, data=[72, 47]),
   midi.NoteOnEvent(tick=120, channel=0, data=[72, 0]),
   midi.NoteOnEvent(tick=240, channel=0, data=[64, 56]),
   midi.NoteOnEvent(tick=120, channel=0, data=[64, 0]),
   midi.NoteOnEvent(tick=0, channel=0, data=[67, 60]),
   midi.NoteOnEvent(tick=120, channel=0, data=[67, 0]),
   midi.NoteOnEvent(tick=0, channel=0, data=[72, 62]),
   midi.NoteOnEvent(tick=108, channel=0, data=[72, 0]),
   midi.NoteOnEvent(tick=12, channel=0, data=[64, 50]),
   midi.NoteOnEvent(tick=120, channel=0, data=[64, 0]),
   midi.NoteOnEvent(tick=0, channel=0, data=[67, 48]),
   midi.NoteOnEvent(tick=120, channel=0, data=[67, 0]),
   midi.NoteOnEvent(tick=0, channel=0, data=[72, 48]),
   midi.ControlChangeEvent(tick=119, channel=0, data=[91, 127]),
   midi.NoteOnEvent(tick=1, channel=0, data=[72, 0]),
   midi.NoteOnEvent(tick=240, channel=0, data=[64, 56]),
   midi.NoteOnEvent(tick=120, channel=0, data=[64, 0]),
   midi.NoteOnEvent(tick=0, channel=0, data=[67, 60]),
   midi.NoteOnEvent(tick=120, channel=0, data=[67, 0]),
   midi.NoteOnEvent(tick=0, channel=0, data=[72, 63]),
   midi.NoteOnEvent(tick=108, channel=0, data=[72, 0]),
   midi.NoteOnEvent(tick=12, channel=0, data=[64, 50]),
   midi.NoteOnEvent(tick=120, channel=0, data=[64, 0]),
   midi.NoteOnEvent(tick=0, channel=0, data=[67, 47]),
   midi.NoteOnEvent(tick=120, channel=0, data=[67, 0]),
   midi.NoteOnEvent(tick=0, channel=0, data=[72, 47]),
   midi.NoteOnEvent(tick=120, channel=0, data=[72, 0]),
   midi.NoteOnEvent(tick=240, channel=0, data=[64, 56]),
   midi.NoteOnEvent(tick=120, channel=0, data=[64, 0]),
   midi.NoteOnEvent(tick=0, channel=0, data=[67, 60]),
   midi.NoteOnEvent(tick=120, channel=0, data=[67, 0]),
   midi.NoteOnEvent(tick=0, channel=0, data=[72, 62]),
   midi.NoteOnEvent(tick=108, channel=0, data=[72, 0]),
   midi.NoteOnEvent(tick=12, channel=0, data=[64, 50]),
   midi.NoteOnEvent(tick=120, channel=0, data=[64, 0]),
   midi.NoteOnEvent(tick=0, channel=0, data=[67, 48]),
   midi.NoteOnEvent(tick=120, channel=0, data=[67, 0]),
   midi.NoteOnEvent(tick=0, channel=0, data=[72, 48]),
   midi.ControlChangeEvent(tick=119, channel=0, data=[91, 127]),
   midi.NoteOnEvent(tick=1, channel=0, data=[72, 0]),
   midi.NoteOnEvent(tick=240, channel=0, data=[62, 56]),
   midi.NoteOnEvent(tick=120, channel=0, data=[62, 0]),
   midi.NoteOnEvent(tick=0, channel=0, data=[66, 60]),
   midi.NoteOnEvent(tick=120, channel=0, data=[66, 0]),
   midi.NoteOnEvent(tick=0, channel=0, data=[72, 63]),
   midi.NoteOnEvent(tick=108, channel=0, data=[72, 0]),
   midi.NoteOnEvent(tick=12, channel=0, data=[62, 50]),
   midi.NoteOnEvent(tick=120, channel=0, data=[62, 0]),
   midi.NoteOnEvent(tick=0, channel=0, data=[66, 47]),
   midi.NoteOnEvent(tick=120, channel=0, data=[66, 0]),
   midi.NoteOnEvent(tick=0, channel=0, data=[72, 47]),
   midi.NoteOnEvent(tick=120, channel=0, data=[72, 0]),
   midi.NoteOnEvent(tick=240, channel=0, data=[62, 56]),
   midi.NoteOnEvent(tick=120, channel=0, data=[62, 0]),
   midi.NoteOnEvent(tick=0, channel=0, data=[66, 60]),
   midi.NoteOnEvent(tick=120, channel=0, data=[66, 0]),
   midi.NoteOnEvent(tick=0, channel=0, data=[72, 62]),
   midi.NoteOnEvent(tick=108, channel=0, data=[72, 0]),
   midi.NoteOnEvent(tick=12, channel=0, data=[62, 50]),
   midi.NoteOnEvent(tick=120, channel=0, data=[62, 0]),
   midi.NoteOnEvent(tick=0, channel=0, data=[66, 48]),
   midi.NoteOnEvent(tick=120, channel=0, data=[66, 0]),
   midi.NoteOnEvent(tick=0, channel=0, data=[72, 48]),
   midi.ControlChangeEvent(tick=119, channel=0, data=[91, 127]),
   midi.NoteOnEvent(tick=1, channel=0, data=[72, 0]),
   midi.NoteOnEvent(tick=240, channel=0, data=[62, 53]),
   midi.NoteOnEvent(tick=120, channel=0, data=[62, 0]),
   midi.NoteOnEvent(tick=0, channel=0, data=[67, 56]),
   midi.NoteOnEvent(tick=120, channel=0, data=[67, 0]),
   midi.NoteOnEvent(tick=0, channel=0, data=[71, 60]),
   midi.NoteOnEvent(tick=108, channel=0, data=[71, 0]),
   midi.NoteOnEvent(tick=12, channel=0, data=[62, 46]),
   midi.NoteOnEvent(tick=120, channel=0, data=[62, 0]),
   midi.NoteOnEvent(tick=0, channel=0, data=[67, 45]),
   midi.NoteOnEvent(tick=120, channel=0, data=[67, 0]),
   midi.NoteOnEvent(tick=0, channel=0, data=[71, 45]),
   midi.NoteOnEvent(tick=120, channel=0, data=[71, 0]),
   midi.NoteOnEvent(tick=240, channel=0, data=[62, 53]),
   midi.NoteOnEvent(tick=120, channel=0, data=[62, 0]),
   midi.NoteOnEvent(tick=0, channel=0, data=[67, 56]),
   midi.NoteOnEvent(tick=120, channel=0, data=[67, 0]),
   midi.NoteOnEvent(tick=0, channel=0, data=[71, 58]),
   midi.NoteOnEvent(tick=108, channel=0, data=[71, 0]),
   midi.NoteOnEvent(tick=12, channel=0, data=[62, 47]),
   midi.NoteOnEvent(tick=120, channel=0, data=[62, 0]),
   midi.NoteOnEvent(tick=0, channel=0, data=[67, 45]),
   midi.NoteOnEvent(tick=120, channel=0, data=[67, 0]),
   midi.NoteOnEvent(tick=0, channel=0, data=[71, 45]),
   midi.ControlChangeEvent(tick=119, channel=0, data=[91, 127]),
   midi.NoteOnEvent(tick=1, channel=0, data=[71, 0]),
   midi.NoteOnEvent(tick=240, channel=0, data=[64, 53]),
   midi.NoteOnEvent(tick=120, channel=0, data=[64, 0]),
   midi.NoteOnEvent(tick=0, channel=0, data=[67, 56]),
   midi.NoteOnEvent(tick=120, channel=0, data=[67, 0]),
   midi.NoteOnEvent(tick=0, channel=0, data=[73, 60]),
   midi.NoteOnEvent(tick=108, channel=0, data=[73, 0]),
   midi.NoteOnEvent(tick=12, channel=0, data=[64, 46]),
   midi.NoteOnEvent(tick=120, channel=0, data=[64, 0]),
   midi.NoteOnEvent(tick=0, channel=0, data=[67, 45]),
   midi.NoteOnEvent(tick=120, channel=0, data=[67, 0]),
   midi.NoteOnEvent(tick=0, channel=0, data=[73, 45]),
   midi.NoteOnEvent(tick=120, channel=0, data=[73, 0]),
   midi.NoteOnEvent(tick=240, channel=0, data=[64, 53]),
   midi.NoteOnEvent(tick=120, channel=0, data=[64, 0]),
   midi.NoteOnEvent(tick=0, channel=0, data=[67, 56]),
   midi.NoteOnEvent(tick=120, channel=0, data=[67, 0]),
   midi.NoteOnEvent(tick=0, channel=0, data=[73, 58]),
   midi.NoteOnEvent(tick=108, channel=0, data=[73, 0]),
   midi.NoteOnEvent(tick=12, channel=0, data=[64, 47]),
   midi.NoteOnEvent(tick=120, channel=0, data=[64, 0]),
   midi.NoteOnEvent(tick=0, channel=0, data=[67, 45]),
   midi.NoteOnEvent(tick=120, channel=0, data=[67, 0]),
   midi.NoteOnEvent(tick=0, channel=0, data=[73, 45]),
   midi.ControlChangeEvent(tick=119, channel=0, data=[91, 127]),
   midi.NoteOnEvent(tick=1, channel=0, data=[73, 0]),
   midi.NoteOnEvent(tick=240, channel=0, data=[62, 56]),
   midi.NoteOnEvent(tick=120, channel=0, data=[62, 0]),
   midi.NoteOnEvent(tick=0, channel=0, data=[69, 60]),
   midi.NoteOnEvent(tick=120, channel=0, data=[69, 0]),
   midi.NoteOnEvent(tick=0, channel=0, data=[74, 63]),
   midi.NoteOnEvent(tick=108, channel=0, data=[74, 0]),
   midi.NoteOnEvent(tick=12, channel=0, data=[62, 50]),
   midi.NoteOnEvent(tick=120, channel=0, data=[62, 0]),
   midi.NoteOnEvent(tick=0, channel=0, data=[69, 47]),
   midi.NoteOnEvent(tick=120, channel=0, data=[69, 0]),
   midi.NoteOnEvent(tick=0, channel=0, data=[74, 47]),
   midi.NoteOnEvent(tick=120, channel=0, data=[74, 0]),
   midi.NoteOnEvent(tick=240, channel=0, data=[62, 56]),
   midi.NoteOnEvent(tick=120, channel=0, data=[62, 0]),
   midi.NoteOnEvent(tick=0, channel=0, data=[69, 60]),
   midi.NoteOnEvent(tick=120, channel=0, data=[69, 0]),
   midi.NoteOnEvent(tick=0, channel=0, data=[74, 62]),
   midi.NoteOnEvent(tick=108, channel=0, data=[74, 0]),
   midi.NoteOnEvent(tick=12, channel=0, data=[62, 50]),
   midi.NoteOnEvent(tick=120, channel=0, data=[62, 0]),
   midi.NoteOnEvent(tick=0, channel=0, data=[69, 48]),
   midi.NoteOnEvent(tick=120, channel=0, data=[69, 0]),
   midi.NoteOnEvent(tick=0, channel=0, data=[74, 48]),
   midi.ControlChangeEvent(tick=119, channel=0, data=[91, 127]),
   midi.NoteOnEvent(tick=1, channel=0, data=[74, 0]),
   midi.NoteOnEvent(tick=240, channel=0, data=[62, 53]),
   midi.NoteOnEvent(tick=120, channel=0, data=[62, 0]),
   midi.NoteOnEvent(tick=0, channel=0, data=[65, 56]),
   midi.NoteOnEvent(tick=120, channel=0, data=[65, 0]),
   midi.NoteOnEvent(tick=0, channel=0, data=[71, 60]),
   midi.NoteOnEvent(tick=108, channel=0, data=[71, 0]),
   midi.NoteOnEvent(tick=12, channel=0, data=[62, 46]),
   midi.NoteOnEvent(tick=120, channel=0, data=[62, 0]),
   midi.NoteOnEvent(tick=0, channel=0, data=[65, 45]),
   midi.NoteOnEvent(tick=120, channel=0, data=[65, 0]),
   midi.NoteOnEvent(tick=0, channel=0, data=[71, 45]),
   midi.NoteOnEvent(tick=120, channel=0, data=[71, 0]),
   midi.NoteOnEvent(tick=240, channel=0, data=[62, 53]),
   midi.NoteOnEvent(tick=120, channel=0, data=[62, 0]),
   midi.NoteOnEvent(tick=0, channel=0, data=[65, 56]),
   midi.NoteOnEvent(tick=120, channel=0, data=[65, 0]),
   midi.NoteOnEvent(tick=0, channel=0, data=[71, 58]),
   midi.NoteOnEvent(tick=108, channel=0, data=[71, 0]),
   midi.NoteOnEvent(tick=12, channel=0, data=[62, 47]),
   midi.NoteOnEvent(tick=120, channel=0, data=[62, 0]),
   midi.NoteOnEvent(tick=0, channel=0, data=[65, 45]),
   midi.NoteOnEvent(tick=120, channel=0, data=[65, 0]),
   midi.NoteOnEvent(tick=0, channel=0, data=[71, 45]),
   midi.ControlChangeEvent(tick=119, channel=0, data=[91, 127]),
   midi.NoteOnEvent(tick=1, channel=0, data=[71, 0]),
   midi.NoteOnEvent(tick=240, channel=0, data=[60, 53]),
   midi.NoteOnEvent(tick=120, channel=0, data=[60, 0]),
   midi.NoteOnEvent(tick=0, channel=0, data=[67, 56]),
   midi.NoteOnEvent(tick=120, channel=0, data=[67, 0]),
   midi.NoteOnEvent(tick=0, channel=0, data=[72, 60]),
   midi.NoteOnEvent(tick=108, channel=0, data=[72, 0]),
   midi.NoteOnEvent(tick=12, channel=0, data=[60, 46]),
   midi.NoteOnEvent(tick=120, channel=0, data=[60, 0]),
   midi.NoteOnEvent(tick=0, channel=0, data=[67, 45]),
   midi.NoteOnEvent(tick=120, channel=0, data=[67, 0]),
   midi.NoteOnEvent(tick=0, channel=0, data=[72, 45]),
   midi.NoteOnEvent(tick=120, channel=0, data=[72, 0]),
   midi.NoteOnEvent(tick=240, channel=0, data=[60, 53]),
   midi.NoteOnEvent(tick=120, channel=0, data=[60, 0]),
   midi.NoteOnEvent(tick=0, channel=0, data=[67, 56]),
   midi.NoteOnEvent(tick=120, channel=0, data=[67, 0]),
   midi.NoteOnEvent(tick=0, channel=0, data=[72, 58]),
   midi.NoteOnEvent(tick=108, channel=0, data=[72, 0]),
   midi.NoteOnEvent(tick=12, channel=0, data=[60, 47]),
   midi.NoteOnEvent(tick=120, channel=0, data=[60, 0]),
   midi.NoteOnEvent(tick=0, channel=0, data=[67, 45]),
   midi.NoteOnEvent(tick=120, channel=0, data=[67, 0]),
   midi.NoteOnEvent(tick=0, channel=0, data=[72, 45]),
   midi.ControlChangeEvent(tick=119, channel=0, data=[91, 127]),
   midi.NoteOnEvent(tick=1, channel=0, data=[72, 0]),
   midi.NoteOnEvent(tick=240, channel=0, data=[57, 50]),
   midi.NoteOnEvent(tick=120, channel=0, data=[57, 0]),
   midi.NoteOnEvent(tick=0, channel=0, data=[60, 53]),
   midi.NoteOnEvent(tick=120, channel=0, data=[60, 0]),
   midi.NoteOnEvent(tick=0, channel=0, data=[65, 56]),
   midi.NoteOnEvent(tick=108, channel=0, data=[65, 0]),
   midi.NoteOnEvent(tick=12, channel=0, data=[57, 45]),
   midi.NoteOnEvent(tick=120, channel=0, data=[57, 0]),
   midi.NoteOnEvent(tick=0, channel=0, data=[60, 42]),
   midi.NoteOnEvent(tick=120, channel=0, data=[60, 0]),
   midi.NoteOnEvent(tick=0, channel=0, data=[65, 42]),
   midi.NoteOnEvent(tick=120, channel=0, data=[65, 0]),
   midi.NoteOnEvent(tick=240, channel=0, data=[57, 50]),
   midi.NoteOnEvent(tick=120, channel=0, data=[57, 0]),
   midi.NoteOnEvent(tick=0, channel=0, data=[60, 53]),
   midi.NoteOnEvent(tick=120, channel=0, data=[60, 0]),
   midi.NoteOnEvent(tick=0, channel=0, data=[65, 55]),
   midi.NoteOnEvent(tick=108, channel=0, data=[65, 0]),
   midi.NoteOnEvent(tick=12, channel=0, data=[57, 45]),
   midi.NoteOnEvent(tick=120, channel=0, data=[57, 0]),
   midi.NoteOnEvent(tick=0, channel=0, data=[60, 43]),
   midi.NoteOnEvent(tick=120, channel=0, data=[60, 0]),
   midi.NoteOnEvent(tick=0, channel=0, data=[65, 43]),
   midi.ControlChangeEvent(tick=119, channel=0, data=[91, 127]),
   midi.NoteOnEvent(tick=1, channel=0, data=[65, 0]),
   midi.NoteOnEvent(tick=240, channel=0, data=[57, 50]),
   midi.NoteOnEvent(tick=120, channel=0, data=[57, 0]),
   midi.NoteOnEvent(tick=0, channel=0, data=[60, 53]),
   midi.NoteOnEvent(tick=120, channel=0, data=[60, 0]),
   midi.NoteOnEvent(tick=0, channel=0, data=[65, 56]),
   midi.NoteOnEvent(tick=108, channel=0, data=[65, 0]),
   midi.NoteOnEvent(tick=12, channel=0, data=[57, 45]),
   midi.NoteOnEvent(tick=120, channel=0, data=[57, 0]),
   midi.NoteOnEvent(tick=0, channel=0, data=[60, 42]),
   midi.NoteOnEvent(tick=120, channel=0, data=[60, 0]),
   midi.NoteOnEvent(tick=0, channel=0, data=[65, 42]),
   midi.NoteOnEvent(tick=120, channel=0, data=[65, 0]),
   midi.NoteOnEvent(tick=240, channel=0, data=[57, 50]),
   midi.NoteOnEvent(tick=120, channel=0, data=[57, 0]),
   midi.NoteOnEvent(tick=0, channel=0, data=[60, 53]),
   midi.NoteOnEvent(tick=120, channel=0, data=[60, 0]),
   midi.NoteOnEvent(tick=0, channel=0, data=[65, 55]),
   midi.NoteOnEvent(tick=108, channel=0, data=[65, 0]),
   midi.NoteOnEvent(tick=12, channel=0, data=[57, 45]),
   midi.NoteOnEvent(tick=120, channel=0, data=[57, 0]),
   midi.NoteOnEvent(tick=0, channel=0, data=[60, 43]),
   midi.NoteOnEvent(tick=120, channel=0, data=[60, 0]),
   midi.NoteOnEvent(tick=0, channel=0, data=[65, 43]),
   midi.ControlChangeEvent(tick=119, channel=0, data=[91, 127]),
   midi.NoteOnEvent(tick=1, channel=0, data=[65, 0]),
   midi.NoteOnEvent(tick=240, channel=0, data=[55, 50]),
   midi.NoteOnEvent(tick=120, channel=0, data=[55, 0]),
   midi.NoteOnEvent(tick=0, channel=0, data=[59, 53]),
   midi.NoteOnEvent(tick=120, channel=0, data=[59, 0]),
   midi.NoteOnEvent(tick=0, channel=0, data=[65, 56]),
   midi.NoteOnEvent(tick=108, channel=0, data=[65, 0]),
   midi.NoteOnEvent(tick=12, channel=0, data=[55, 45]),
   midi.NoteOnEvent(tick=120, channel=0, data=[55, 0]),
   midi.NoteOnEvent(tick=0, channel=0, data=[59, 42]),
   midi.NoteOnEvent(tick=120, channel=0, data=[59, 0]),
   midi.NoteOnEvent(tick=0, channel=0, data=[65, 42]),
   midi.NoteOnEvent(tick=120, channel=0, data=[65, 0]),
   midi.NoteOnEvent(tick=240, channel=0, data=[55, 50]),
   midi.NoteOnEvent(tick=120, channel=0, data=[55, 0]),
   midi.NoteOnEvent(tick=0, channel=0, data=[59, 53]),
   midi.NoteOnEvent(tick=120, channel=0, data=[59, 0]),
   midi.NoteOnEvent(tick=0, channel=0, data=[65, 55]),
   midi.NoteOnEvent(tick=108, channel=0, data=[65, 0]),
   midi.NoteOnEvent(tick=12, channel=0, data=[55, 45]),
   midi.NoteOnEvent(tick=120, channel=0, data=[55, 0]),
   midi.NoteOnEvent(tick=0, channel=0, data=[59, 43]),
   midi.NoteOnEvent(tick=120, channel=0, data=[59, 0]),
   midi.NoteOnEvent(tick=0, channel=0, data=[65, 43]),
   midi.ControlChangeEvent(tick=119, channel=0, data=[91, 127]),
   midi.NoteOnEvent(tick=1, channel=0, data=[65, 0]),
   midi.NoteOnEvent(tick=240, channel=0, data=[55, 50]),
   midi.NoteOnEvent(tick=120, channel=0, data=[55, 0]),
   midi.NoteOnEvent(tick=0, channel=0, data=[60, 53]),
   midi.NoteOnEvent(tick=120, channel=0, data=[60, 0]),
   midi.NoteOnEvent(tick=0, channel=0, data=[64, 56]),
   midi.NoteOnEvent(tick=108, channel=0, data=[64, 0]),
   midi.NoteOnEvent(tick=12, channel=0, data=[55, 45]),
   midi.NoteOnEvent(tick=120, channel=0, data=[55, 0]),
   midi.NoteOnEvent(tick=0, channel=0, data=[60, 42]),
   midi.NoteOnEvent(tick=120, channel=0, data=[60, 0]),
   midi.NoteOnEvent(tick=0, channel=0, data=[64, 42]),
   midi.NoteOnEvent(tick=120, channel=0, data=[64, 0]),
   midi.NoteOnEvent(tick=240, channel=0, data=[55, 50]),
   midi.NoteOnEvent(tick=120, channel=0, data=[55, 0]),
   midi.NoteOnEvent(tick=0, channel=0, data=[60, 53]),
   midi.NoteOnEvent(tick=120, channel=0, data=[60, 0]),
   midi.NoteOnEvent(tick=0, channel=0, data=[64, 55]),
   midi.NoteOnEvent(tick=108, channel=0, data=[64, 0]),
   midi.NoteOnEvent(tick=12, channel=0, data=[55, 45]),
   midi.NoteOnEvent(tick=120, channel=0, data=[55, 0]),
   midi.NoteOnEvent(tick=0, channel=0, data=[60, 43]),
   midi.NoteOnEvent(tick=120, channel=0, data=[60, 0]),
   midi.NoteOnEvent(tick=0, channel=0, data=[64, 43]),
   midi.ControlChangeEvent(tick=119, channel=0, data=[91, 127]),
   midi.NoteOnEvent(tick=1, channel=0, data=[64, 0]),
   midi.NoteOnEvent(tick=240, channel=0, data=[58, 47]),
   midi.NoteOnEvent(tick=120, channel=0, data=[58, 0]),
   midi.NoteOnEvent(tick=0, channel=0, data=[60, 50]),
   midi.NoteOnEvent(tick=120, channel=0, data=[60, 0]),
   midi.NoteOnEvent(tick=0, channel=0, data=[64, 53]),
   midi.NoteOnEvent(tick=108, channel=0, data=[64, 0]),
   midi.NoteOnEvent(tick=12, channel=0, data=[58, 41]),
   midi.NoteOnEvent(tick=120, channel=0, data=[58, 0]),
   midi.NoteOnEvent(tick=0, channel=0, data=[60, 40]),
   midi.NoteOnEvent(tick=120, channel=0, data=[60, 0]),
   midi.NoteOnEvent(tick=0, channel=0, data=[64, 40]),
   midi.NoteOnEvent(tick=120, channel=0, data=[64, 0]),
   midi.NoteOnEvent(tick=240, channel=0, data=[58, 47]),
   midi.NoteOnEvent(tick=120, channel=0, data=[58, 0]),
   midi.NoteOnEvent(tick=0, channel=0, data=[60, 50]),
   midi.NoteOnEvent(tick=120, channel=0, data=[60, 0]),
   midi.NoteOnEvent(tick=0, channel=0, data=[64, 52]),
   midi.NoteOnEvent(tick=108, channel=0, data=[64, 0]),
   midi.NoteOnEvent(tick=12, channel=0, data=[58, 42]),
   midi.NoteOnEvent(tick=120, channel=0, data=[58, 0]),
   midi.NoteOnEvent(tick=0, channel=0, data=[60, 40]),
   midi.NoteOnEvent(tick=120, channel=0, data=[60, 0]),
   midi.NoteOnEvent(tick=0, channel=0, data=[64, 40]),
   midi.ControlChangeEvent(tick=119, channel=0, data=[91, 127]),
   midi.NoteOnEvent(tick=1, channel=0, data=[64, 0]),
   midi.NoteOnEvent(tick=240, channel=0, data=[57, 47]),
   midi.NoteOnEvent(tick=120, channel=0, data=[57, 0]),
   midi.NoteOnEvent(tick=0, channel=0, data=[60, 50]),
   midi.NoteOnEvent(tick=120, channel=0, data=[60, 0]),
   midi.NoteOnEvent(tick=0, channel=0, data=[64, 53]),
   midi.NoteOnEvent(tick=108, channel=0, data=[64, 0]),
   midi.NoteOnEvent(tick=12, channel=0, data=[57, 41]),
   midi.NoteOnEvent(tick=120, channel=0, data=[57, 0]),
   midi.NoteOnEvent(tick=0, channel=0, data=[60, 40]),
   midi.NoteOnEvent(tick=120, channel=0, data=[60, 0]),
   midi.NoteOnEvent(tick=0, channel=0, data=[64, 40]),
   midi.NoteOnEvent(tick=120, channel=0, data=[64, 0]),
   midi.NoteOnEvent(tick=240, channel=0, data=[57, 47]),
   midi.NoteOnEvent(tick=120, channel=0, data=[57, 0]),
   midi.NoteOnEvent(tick=0, channel=0, data=[60, 50]),
   midi.NoteOnEvent(tick=120, channel=0, data=[60, 0]),
   midi.NoteOnEvent(tick=0, channel=0, data=[64, 52]),
   midi.NoteOnEvent(tick=108, channel=0, data=[64, 0]),
   midi.NoteOnEvent(tick=12, channel=0, data=[57, 42]),
   midi.NoteOnEvent(tick=120, channel=0, data=[57, 0]),
   midi.NoteOnEvent(tick=0, channel=0, data=[60, 40]),
   midi.NoteOnEvent(tick=120, channel=0, data=[60, 0]),
   midi.NoteOnEvent(tick=0, channel=0, data=[64, 40]),
   midi.ControlChangeEvent(tick=119, channel=0, data=[91, 127]),
   midi.NoteOnEvent(tick=1, channel=0, data=[64, 0]),
   midi.NoteOnEvent(tick=240, channel=0, data=[57, 50]),
   midi.NoteOnEvent(tick=120, channel=0, data=[57, 0]),
   midi.NoteOnEvent(tick=0, channel=0, data=[60, 53]),
   midi.NoteOnEvent(tick=120, channel=0, data=[60, 0]),
   midi.NoteOnEvent(tick=0, channel=0, data=[63, 56]),
   midi.NoteOnEvent(tick=108, channel=0, data=[63, 0]),
   midi.NoteOnEvent(tick=12, channel=0, data=[57, 45]),
   midi.NoteOnEvent(tick=120, channel=0, data=[57, 0]),
   midi.NoteOnEvent(tick=0, channel=0, data=[60, 42]),
   midi.NoteOnEvent(tick=120, channel=0, data=[60, 0]),
   midi.NoteOnEvent(tick=0, channel=0, data=[63, 42]),
   midi.NoteOnEvent(tick=120, channel=0, data=[63, 0]),
   midi.NoteOnEvent(tick=240, channel=0, data=[57, 50]),
   midi.NoteOnEvent(tick=120, channel=0, data=[57, 0]),
   midi.NoteOnEvent(tick=0, channel=0, data=[60, 53]),
   midi.NoteOnEvent(tick=120, channel=0, data=[60, 0]),
   midi.NoteOnEvent(tick=0, channel=0, data=[63, 55]),
   midi.NoteOnEvent(tick=108, channel=0, data=[63, 0]),
   midi.NoteOnEvent(tick=12, channel=0, data=[57, 45]),
   midi.NoteOnEvent(tick=120, channel=0, data=[57, 0]),
   midi.NoteOnEvent(tick=0, channel=0, data=[60, 43]),
   midi.NoteOnEvent(tick=120, channel=0, data=[60, 0]),
   midi.NoteOnEvent(tick=0, channel=0, data=[63, 43]),
   midi.ControlChangeEvent(tick=119, channel=0, data=[91, 127]),
   midi.NoteOnEvent(tick=1, channel=0, data=[63, 0]),
   midi.NoteOnEvent(tick=240, channel=0, data=[59, 47]),
   midi.NoteOnEvent(tick=120, channel=0, data=[59, 0]),
   midi.NoteOnEvent(tick=0, channel=0, data=[60, 50]),
   midi.NoteOnEvent(tick=120, channel=0, data=[60, 0]),
   midi.NoteOnEvent(tick=0, channel=0, data=[62, 53]),
   midi.NoteOnEvent(tick=108, channel=0, data=[62, 0]),
   midi.NoteOnEvent(tick=12, channel=0, data=[59, 41]),
   midi.NoteOnEvent(tick=120, channel=0, data=[59, 0]),
   midi.NoteOnEvent(tick=0, channel=0, data=[60, 40]),
   midi.NoteOnEvent(tick=120, channel=0, data=[60, 0]),
   midi.NoteOnEvent(tick=0, channel=0, data=[62, 40]),
   midi.NoteOnEvent(tick=120, channel=0, data=[62, 0]),
   midi.NoteOnEvent(tick=240, channel=0, data=[59, 47]),
   midi.NoteOnEvent(tick=120, channel=0, data=[59, 0]),
   midi.NoteOnEvent(tick=0, channel=0, data=[60, 50]),
   midi.NoteOnEvent(tick=120, channel=0, data=[60, 0]),
   midi.NoteOnEvent(tick=0, channel=0, data=[62, 52]),
   midi.NoteOnEvent(tick=108, channel=0, data=[62, 0]),
   midi.NoteOnEvent(tick=12, channel=0, data=[59, 42]),
   midi.NoteOnEvent(tick=120, channel=0, data=[59, 0]),
   midi.NoteOnEvent(tick=0, channel=0, data=[60, 40]),
   midi.NoteOnEvent(tick=120, channel=0, data=[60, 0]),
   midi.NoteOnEvent(tick=0, channel=0, data=[62, 40]),
   midi.ControlChangeEvent(tick=119, channel=0, data=[91, 127]),
   midi.NoteOnEvent(tick=1, channel=0, data=[62, 0]),
   midi.NoteOnEvent(tick=240, channel=0, data=[55, 50]),
   midi.NoteOnEvent(tick=120, channel=0, data=[55, 0]),
   midi.NoteOnEvent(tick=0, channel=0, data=[59, 53]),
   midi.NoteOnEvent(tick=120, channel=0, data=[59, 0]),
   midi.NoteOnEvent(tick=0, channel=0, data=[62, 56]),
   midi.NoteOnEvent(tick=108, channel=0, data=[62, 0]),
   midi.NoteOnEvent(tick=12, channel=0, data=[55, 45]),
   midi.NoteOnEvent(tick=120, channel=0, data=[55, 0]),
   midi.NoteOnEvent(tick=0, channel=0, data=[59, 42]),
   midi.NoteOnEvent(tick=120, channel=0, data=[59, 0]),
   midi.NoteOnEvent(tick=0, channel=0, data=[62, 42]),
   midi.NoteOnEvent(tick=120, channel=0, data=[62, 0]),
   midi.NoteOnEvent(tick=240, channel=0, data=[55, 50]),
   midi.NoteOnEvent(tick=120, channel=0, data=[55, 0]),
   midi.NoteOnEvent(tick=0, channel=0, data=[59, 53]),
   midi.NoteOnEvent(tick=120, channel=0, data=[59, 0]),
   midi.NoteOnEvent(tick=0, channel=0, data=[62, 55]),
   midi.NoteOnEvent(tick=108, channel=0, data=[62, 0]),
   midi.NoteOnEvent(tick=12, channel=0, data=[55, 45]),
   midi.NoteOnEvent(tick=120, channel=0, data=[55, 0]),
   midi.NoteOnEvent(tick=0, channel=0, data=[59, 43]),
   midi.NoteOnEvent(tick=120, channel=0, data=[59, 0]),
   midi.NoteOnEvent(tick=0, channel=0, data=[62, 43]),
   midi.ControlChangeEvent(tick=119, channel=0, data=[91, 127]),
   midi.NoteOnEvent(tick=1, channel=0, data=[62, 0]),
   midi.NoteOnEvent(tick=240, channel=0, data=[55, 50]),
   midi.NoteOnEvent(tick=120, channel=0, data=[55, 0]),
   midi.NoteOnEvent(tick=0, channel=0, data=[60, 53]),
   midi.NoteOnEvent(tick=120, channel=0, data=[60, 0]),
   midi.NoteOnEvent(tick=0, channel=0, data=[64, 56]),
   midi.NoteOnEvent(tick=108, channel=0, data=[64, 0]),
   midi.NoteOnEvent(tick=12, channel=0, data=[55, 45]),
   midi.NoteOnEvent(tick=120, channel=0, data=[55, 0]),
   midi.NoteOnEvent(tick=0, channel=0, data=[60, 42]),
   midi.NoteOnEvent(tick=120, channel=0, data=[60, 0]),
   midi.NoteOnEvent(tick=0, channel=0, data=[64, 42]),
   midi.NoteOnEvent(tick=120, channel=0, data=[64, 0]),
   midi.NoteOnEvent(tick=240, channel=0, data=[55, 50]),
   midi.NoteOnEvent(tick=120, channel=0, data=[55, 0]),
   midi.NoteOnEvent(tick=0, channel=0, data=[60, 53]),
   midi.NoteOnEvent(tick=120, channel=0, data=[60, 0]),
   midi.NoteOnEvent(tick=0, channel=0, data=[64, 55]),
   midi.NoteOnEvent(tick=108, channel=0, data=[64, 0]),
   midi.NoteOnEvent(tick=12, channel=0, data=[55, 45]),
   midi.NoteOnEvent(tick=120, channel=0, data=[55, 0]),
   midi.NoteOnEvent(tick=0, channel=0, data=[60, 43]),
   midi.NoteOnEvent(tick=120, channel=0, data=[60, 0]),
   midi.NoteOnEvent(tick=0, channel=0, data=[64, 43]),
   midi.ControlChangeEvent(tick=119, channel=0, data=[91, 127]),
   midi.NoteOnEvent(tick=1, channel=0, data=[64, 0]),
   midi.NoteOnEvent(tick=240, channel=0, data=[55, 53]),
   midi.NoteOnEvent(tick=120, channel=0, data=[55, 0]),
   midi.NoteOnEvent(tick=0, channel=0, data=[60, 56]),
   midi.NoteOnEvent(tick=120, channel=0, data=[60, 0]),
   midi.NoteOnEvent(tick=0, channel=0, data=[65, 60]),
   midi.NoteOnEvent(tick=108, channel=0, data=[65, 0]),
   midi.NoteOnEvent(tick=12, channel=0, data=[55, 46]),
   midi.NoteOnEvent(tick=120, channel=0, data=[55, 0]),
   midi.NoteOnEvent(tick=0, channel=0, data=[60, 45]),
   midi.NoteOnEvent(tick=120, channel=0, data=[60, 0]),
   midi.NoteOnEvent(tick=0, channel=0, data=[65, 45]),
   midi.NoteOnEvent(tick=120, channel=0, data=[65, 0]),
   midi.NoteOnEvent(tick=240, channel=0, data=[55, 53]),
   midi.NoteOnEvent(tick=120, channel=0, data=[55, 0]),
   midi.NoteOnEvent(tick=0, channel=0, data=[60, 56]),
   midi.NoteOnEvent(tick=120, channel=0, data=[60, 0]),
   midi.NoteOnEvent(tick=0, channel=0, data=[65, 58]),
   midi.NoteOnEvent(tick=108, channel=0, data=[65, 0]),
   midi.NoteOnEvent(tick=12, channel=0, data=[55, 47]),
   midi.NoteOnEvent(tick=120, channel=0, data=[55, 0]),
   midi.NoteOnEvent(tick=0, channel=0, data=[60, 45]),
   midi.NoteOnEvent(tick=120, channel=0, data=[60, 0]),
   midi.NoteOnEvent(tick=0, channel=0, data=[65, 45]),
   midi.ControlChangeEvent(tick=119, channel=0, data=[91, 127]),
   midi.NoteOnEvent(tick=1, channel=0, data=[65, 0]),
   midi.NoteOnEvent(tick=240, channel=0, data=[55, 53]),
   midi.NoteOnEvent(tick=120, channel=0, data=[55, 0]),
   midi.NoteOnEvent(tick=0, channel=0, data=[59, 56]),
   midi.NoteOnEvent(tick=120, channel=0, data=[59, 0]),
   midi.NoteOnEvent(tick=0, channel=0, data=[65, 60]),
   midi.NoteOnEvent(tick=108, channel=0, data=[65, 0]),
   midi.NoteOnEvent(tick=12, channel=0, data=[55, 46]),
   midi.NoteOnEvent(tick=120, channel=0, data=[55, 0]),
   midi.NoteOnEvent(tick=0, channel=0, data=[59, 45]),
   midi.NoteOnEvent(tick=120, channel=0, data=[59, 0]),
   midi.NoteOnEvent(tick=0, channel=0, data=[65, 45]),
   midi.NoteOnEvent(tick=120, channel=0, data=[65, 0]),
   midi.NoteOnEvent(tick=240, channel=0, data=[55, 53]),
   midi.NoteOnEvent(tick=120, channel=0, data=[55, 0]),
   midi.NoteOnEvent(tick=0, channel=0, data=[59, 56]),
   midi.NoteOnEvent(tick=120, channel=0, data=[59, 0]),
   midi.NoteOnEvent(tick=0, channel=0, data=[65, 58]),
   midi.NoteOnEvent(tick=108, channel=0, data=[65, 0]),
   midi.NoteOnEvent(tick=12, channel=0, data=[55, 47]),
   midi.NoteOnEvent(tick=120, channel=0, data=[55, 0]),
   midi.NoteOnEvent(tick=0, channel=0, data=[59, 45]),
   midi.NoteOnEvent(tick=120, channel=0, data=[59, 0]),
   midi.NoteOnEvent(tick=0, channel=0, data=[65, 45]),
   midi.ControlChangeEvent(tick=119, channel=0, data=[91, 127]),
   midi.NoteOnEvent(tick=1, channel=0, data=[65, 0]),
   midi.NoteOnEvent(tick=240, channel=0, data=[57, 56]),
   midi.NoteOnEvent(tick=120, channel=0, data=[57, 0]),
   midi.NoteOnEvent(tick=0, channel=0, data=[60, 60]),
   midi.NoteOnEvent(tick=120, channel=0, data=[60, 0]),
   midi.NoteOnEvent(tick=0, channel=0, data=[66, 63]),
   midi.NoteOnEvent(tick=108, channel=0, data=[66, 0]),
   midi.NoteOnEvent(tick=12, channel=0, data=[57, 50]),
   midi.NoteOnEvent(tick=120, channel=0, data=[57, 0]),
   midi.NoteOnEvent(tick=0, channel=0, data=[60, 47]),
   midi.NoteOnEvent(tick=120, channel=0, data=[60, 0]),
   midi.NoteOnEvent(tick=0, channel=0, data=[66, 47]),
   midi.NoteOnEvent(tick=120, channel=0, data=[66, 0]),
   midi.NoteOnEvent(tick=240, channel=0, data=[57, 56]),
   midi.NoteOnEvent(tick=120, channel=0, data=[57, 0]),
   midi.NoteOnEvent(tick=0, channel=0, data=[60, 60]),
   midi.NoteOnEvent(tick=120, channel=0, data=[60, 0]),
   midi.NoteOnEvent(tick=0, channel=0, data=[66, 62]),
   midi.NoteOnEvent(tick=108, channel=0, data=[66, 0]),
   midi.NoteOnEvent(tick=12, channel=0, data=[57, 50]),
   midi.NoteOnEvent(tick=120, channel=0, data=[57, 0]),
   midi.NoteOnEvent(tick=0, channel=0, data=[60, 48]),
   midi.NoteOnEvent(tick=120, channel=0, data=[60, 0]),
   midi.NoteOnEvent(tick=0, channel=0, data=[66, 48]),
   midi.ControlChangeEvent(tick=119, channel=0, data=[91, 127]),
   midi.NoteOnEvent(tick=1, channel=0, data=[66, 0]),
   midi.NoteOnEvent(tick=240, channel=0, data=[55, 58]),
   midi.NoteOnEvent(tick=120, channel=0, data=[55, 0]),
   midi.NoteOnEvent(tick=0, channel=0, data=[60, 63]),
   midi.NoteOnEvent(tick=120, channel=0, data=[60, 0]),
   midi.NoteOnEvent(tick=0, channel=0, data=[67, 66]),
   midi.NoteOnEvent(tick=108, channel=0, data=[67, 0]),
   midi.NoteOnEvent(tick=12, channel=0, data=[55, 51]),
   midi.NoteOnEvent(tick=120, channel=0, data=[55, 0]),
   midi.NoteOnEvent(tick=0, channel=0, data=[60, 50]),
   midi.NoteOnEvent(tick=120, channel=0, data=[60, 0]),
   midi.NoteOnEvent(tick=0, channel=0, data=[67, 50]),
   midi.NoteOnEvent(tick=120, channel=0, data=[67, 0]),
   midi.NoteOnEvent(tick=240, channel=0, data=[55, 58]),
   midi.NoteOnEvent(tick=120, channel=0, data=[55, 0]),
   midi.NoteOnEvent(tick=0, channel=0, data=[60, 62]),
   midi.NoteOnEvent(tick=120, channel=0, data=[60, 0]),
   midi.NoteOnEvent(tick=0, channel=0, data=[67, 65]),
   midi.NoteOnEvent(tick=108, channel=0, data=[67, 0]),
   midi.NoteOnEvent(tick=12, channel=0, data=[55, 52]),
   midi.NoteOnEvent(tick=120, channel=0, data=[55, 0]),
   midi.NoteOnEvent(tick=0, channel=0, data=[60, 50]),
   midi.NoteOnEvent(tick=120, channel=0, data=[60, 0]),
   midi.NoteOnEvent(tick=0, channel=0, data=[67, 50]),
   midi.ControlChangeEvent(tick=119, channel=0, data=[91, 127]),
   midi.NoteOnEvent(tick=1, channel=0, data=[67, 0]),
   midi.NoteOnEvent(tick=240, channel=0, data=[55, 50]),
   midi.NoteOnEvent(tick=120, channel=0, data=[55, 0]),
   midi.NoteOnEvent(tick=0, channel=0, data=[60, 53]),
   midi.NoteOnEvent(tick=120, channel=0, data=[60, 0]),
   midi.NoteOnEvent(tick=0, channel=0, data=[65, 56]),
   midi.NoteOnEvent(tick=108, channel=0, data=[65, 0]),
   midi.NoteOnEvent(tick=12, channel=0, data=[55, 45]),
   midi.NoteOnEvent(tick=120, channel=0, data=[55, 0]),
   midi.NoteOnEvent(tick=0, channel=0, data=[60, 42]),
   midi.NoteOnEvent(tick=120, channel=0, data=[60, 0]),
   midi.NoteOnEvent(tick=0, channel=0, data=[65, 42]),
   midi.NoteOnEvent(tick=120, channel=0, data=[65, 0]),
   midi.NoteOnEvent(tick=240, channel=0, data=[55, 50]),
   midi.NoteOnEvent(tick=120, channel=0, data=[55, 0]),
   midi.NoteOnEvent(tick=0, channel=0, data=[60, 53]),
   midi.NoteOnEvent(tick=120, channel=0, data=[60, 0]),
   midi.NoteOnEvent(tick=0, channel=0, data=[65, 55]),
   midi.NoteOnEvent(tick=108, channel=0, data=[65, 0]),
   midi.NoteOnEvent(tick=12, channel=0, data=[55, 45]),
   midi.NoteOnEvent(tick=120, channel=0, data=[55, 0]),
   midi.NoteOnEvent(tick=0, channel=0, data=[60, 43]),
   midi.NoteOnEvent(tick=120, channel=0, data=[60, 0]),
   midi.NoteOnEvent(tick=0, channel=0, data=[65, 43]),
   midi.ControlChangeEvent(tick=119, channel=0, data=[91, 127]),
   midi.NoteOnEvent(tick=1, channel=0, data=[65, 0]),
   midi.NoteOnEvent(tick=240, channel=0, data=[55, 50]),
   midi.NoteOnEvent(tick=120, channel=0, data=[55, 0]),
   midi.NoteOnEvent(tick=0, channel=0, data=[59, 53]),
   midi.NoteOnEvent(tick=120, channel=0, data=[59, 0]),
   midi.NoteOnEvent(tick=0, channel=0, data=[65, 56]),
   midi.NoteOnEvent(tick=108, channel=0, data=[65, 0]),
   midi.NoteOnEvent(tick=12, channel=0, data=[55, 45]),
   midi.NoteOnEvent(tick=120, channel=0, data=[55, 0]),
   midi.NoteOnEvent(tick=0, channel=0, data=[59, 42]),
   midi.NoteOnEvent(tick=120, channel=0, data=[59, 0]),
   midi.NoteOnEvent(tick=0, channel=0, data=[65, 42]),
   midi.NoteOnEvent(tick=120, channel=0, data=[65, 0]),
   midi.NoteOnEvent(tick=240, channel=0, data=[55, 50]),
   midi.NoteOnEvent(tick=120, channel=0, data=[55, 0]),
   midi.NoteOnEvent(tick=0, channel=0, data=[59, 53]),
   midi.NoteOnEvent(tick=120, channel=0, data=[59, 0]),
   midi.NoteOnEvent(tick=0, channel=0, data=[65, 55]),
   midi.NoteOnEvent(tick=108, channel=0, data=[65, 0]),
   midi.NoteOnEvent(tick=12, channel=0, data=[55, 45]),
   midi.NoteOnEvent(tick=120, channel=0, data=[55, 0]),
   midi.NoteOnEvent(tick=0, channel=0, data=[59, 43]),
   midi.NoteOnEvent(tick=120, channel=0, data=[59, 0]),
   midi.NoteOnEvent(tick=0, channel=0, data=[65, 43]),
   midi.ControlChangeEvent(tick=119, channel=0, data=[91, 127]),
   midi.NoteOnEvent(tick=1, channel=0, data=[65, 0]),
   midi.NoteOnEvent(tick=240, channel=0, data=[55, 53]),
   midi.NoteOnEvent(tick=120, channel=0, data=[55, 0]),
   midi.NoteOnEvent(tick=0, channel=0, data=[58, 56]),
   midi.NoteOnEvent(tick=120, channel=0, data=[58, 0]),
   midi.NoteOnEvent(tick=0, channel=0, data=[64, 60]),
   midi.NoteOnEvent(tick=108, channel=0, data=[64, 0]),
   midi.NoteOnEvent(tick=12, channel=0, data=[55, 46]),
   midi.NoteOnEvent(tick=120, channel=0, data=[55, 0]),
   midi.NoteOnEvent(tick=0, channel=0, data=[58, 45]),
   midi.NoteOnEvent(tick=120, channel=0, data=[58, 0]),
   midi.NoteOnEvent(tick=0, channel=0, data=[64, 45]),
   midi.NoteOnEvent(tick=120, channel=0, data=[64, 0]),
   midi.NoteOnEvent(tick=240, channel=0, data=[55, 53]),
   midi.NoteOnEvent(tick=120, channel=0, data=[55, 0]),
   midi.NoteOnEvent(tick=0, channel=0, data=[58, 56]),
   midi.NoteOnEvent(tick=120, channel=0, data=[58, 0]),
   midi.NoteOnEvent(tick=0, channel=0, data=[64, 58]),
   midi.NoteOnEvent(tick=108, channel=0, data=[64, 0]),
   midi.NoteOnEvent(tick=12, channel=0, data=[55, 47]),
   midi.NoteOnEvent(tick=120, channel=0, data=[55, 0]),
   midi.NoteOnEvent(tick=0, channel=0, data=[58, 45]),
   midi.NoteOnEvent(tick=120, channel=0, data=[58, 0]),
   midi.NoteOnEvent(tick=0, channel=0, data=[64, 45]),
   midi.NoteOnEvent(tick=120, channel=0, data=[64, 0]),
   midi.NoteOnEvent(tick=239, channel=0, data=[53, 50]),
   midi.NoteOnEvent(tick=120, channel=0, data=[53, 0]),
   midi.NoteOnEvent(tick=0, channel=0, data=[57, 53]),
   midi.NoteOnEvent(tick=120, channel=0, data=[57, 0]),
   midi.NoteOnEvent(tick=0, channel=0, data=[60, 55]),
   midi.NoteOnEvent(tick=120, channel=0, data=[60, 0]),
   midi.NoteOnEvent(tick=0, channel=0, data=[65, 53]),
   midi.NoteOnEvent(tick=120, channel=0, data=[65, 0]),
   midi.NoteOnEvent(tick=0, channel=0, data=[60, 53]),
   midi.NoteOnEvent(tick=120, channel=0, data=[60, 0]),
   midi.NoteOnEvent(tick=0, channel=0, data=[57, 53]),
   midi.NoteOnEvent(tick=120, channel=0, data=[57, 0]),
   midi.NoteOnEvent(tick=0, channel=0, data=[60, 55]),
   midi.NoteOnEvent(tick=120, channel=0, data=[60, 0]),
   midi.NoteOnEvent(tick=0, channel=0, data=[57, 50]),
   midi.NoteOnEvent(tick=120, channel=0, data=[57, 0]),
   midi.NoteOnEvent(tick=0, channel=0, data=[53, 47]),
   midi.NoteOnEvent(tick=120, channel=0, data=[53, 0]),
   midi.NoteOnEvent(tick=0, channel=0, data=[57, 46]),
   midi.NoteOnEvent(tick=120, channel=0, data=[57, 0]),
   midi.NoteOnEvent(tick=0, channel=0, data=[53, 46]),
   midi.NoteOnEvent(tick=120, channel=0, data=[53, 0]),
   midi.NoteOnEvent(tick=0, channel=0, data=[50, 42]),
   midi.NoteOnEvent(tick=120, channel=0, data=[50, 0]),
   midi.NoteOnEvent(tick=0, channel=0, data=[53, 43]),
   midi.NoteOnEvent(tick=120, channel=0, data=[53, 0]),
   midi.NoteOnEvent(tick=0, channel=0, data=[50, 38]),
   midi.NoteOnEvent(tick=120, channel=0, data=[50, 0]),
   midi.NoteOnEvent(tick=240, channel=0, data=[67, 50]),
   midi.NoteOnEvent(tick=120, channel=0, data=[67, 0]),
   midi.NoteOnEvent(tick=0, channel=0, data=[71, 53]),
   midi.NoteOnEvent(tick=120, channel=0, data=[71, 0]),
   midi.NoteOnEvent(tick=0, channel=0, data=[74, 55]),
   midi.NoteOnEvent(tick=120, channel=0, data=[74, 0]),
   midi.NoteOnEvent(tick=0, channel=0, data=[77, 60]),
   midi.NoteOnEvent(tick=120, channel=0, data=[77, 0]),
   midi.NoteOnEvent(tick=0, channel=0, data=[74, 55]),
   midi.NoteOnEvent(tick=120, channel=0, data=[74, 0]),
   midi.NoteOnEvent(tick=0, channel=0, data=[71, 53]),
   midi.NoteOnEvent(tick=120, channel=0, data=[71, 0]),
   midi.NoteOnEvent(tick=0, channel=0, data=[74, 56]),
   midi.NoteOnEvent(tick=120, channel=0, data=[74, 0]),
   midi.NoteOnEvent(tick=0, channel=0, data=[71, 53]),
   midi.NoteOnEvent(tick=120, channel=0, data=[71, 0]),
   midi.NoteOnEvent(tick=0, channel=0, data=[67, 56]),
   midi.NoteOnEvent(tick=120, channel=0, data=[67, 0]),
   midi.NoteOnEvent(tick=0, channel=0, data=[71, 53]),
   midi.NoteOnEvent(tick=120, channel=0, data=[71, 0]),
   midi.NoteOnEvent(tick=0, channel=0, data=[62, 55]),
   midi.NoteOnEvent(tick=120, channel=0, data=[62, 0]),
   midi.NoteOnEvent(tick=0, channel=0, data=[65, 50]),
   midi.NoteOnEvent(tick=120, channel=0, data=[65, 0]),
   midi.NoteOnEvent(tick=0, channel=0, data=[64, 50]),
   midi.NoteOnEvent(tick=120, channel=0, data=[64, 0]),
   midi.NoteOnEvent(tick=0, channel=0, data=[62, 50]),
   midi.NoteOnEvent(tick=120, channel=0, data=[62, 0]),
   midi.NoteOnEvent(tick=1, channel=0, data=[72, 50]),
   midi.NoteOnEvent(tick=0, channel=0, data=[67, 50]),
   midi.NoteOnEvent(tick=0, channel=0, data=[64, 50]),
   midi.NoteOnEvent(tick=1440, channel=0, data=[64, 0]),
   midi.NoteOnEvent(tick=0, channel=0, data=[67, 0]),
   midi.NoteOnEvent(tick=0, channel=0, data=[72, 0]),
   midi.EndOfTrackEvent(tick=0, data=[])]),
 midi.Track(\
  [midi.PortEvent(tick=0, data=[0]),
   midi.TrackNameEvent(tick=0, text='Piano left', data=[80, 105, 97, 110, 111, 32, 108, 101, 102, 116]),
   midi.ProgramChangeEvent(tick=0, channel=0, data=[0]),
   midi.ControlChangeEvent(tick=0, channel=0, data=[7, 100]),
   midi.ControlChangeEvent(tick=0, channel=0, data=[10, 64]),
   midi.ControlChangeEvent(tick=0, channel=0, data=[64, 127]),
   midi.ControlChangeEvent(tick=0, channel=0, data=[91, 127]),
   midi.NoteOnEvent(tick=1, channel=0, data=[60, 61]),
   midi.NoteOnEvent(tick=120, channel=0, data=[64, 57]),
   midi.NoteOnEvent(tick=840, channel=0, data=[64, 0]),
   midi.NoteOnEvent(tick=0, channel=0, data=[60, 0]),
   midi.NoteOnEvent(tick=0, channel=0, data=[60, 62]),
   midi.NoteOnEvent(tick=120, channel=0, data=[64, 57]),
   midi.ControlChangeEvent(tick=839, channel=0, data=[91, 127]),
   midi.NoteOnEvent(tick=1, channel=0, data=[64, 0]),
   midi.NoteOnEvent(tick=0, channel=0, data=[60, 0]),
   midi.NoteOnEvent(tick=0, channel=0, data=[60, 65]),
   midi.ControlChangeEvent(tick=9, channel=0, data=[64, 0]),
   midi.ControlChangeEvent(tick=96, channel=0, data=[64, 127]),
   midi.NoteOnEvent(tick=15, channel=0, data=[62, 60]),
   midi.NoteOnEvent(tick=840, channel=0, data=[62, 0]),
   midi.NoteOnEvent(tick=0, channel=0, data=[60, 0]),
   midi.NoteOnEvent(tick=0, channel=0, data=[60, 65]),
   midi.NoteOnEvent(tick=120, channel=0, data=[62, 60]),
   midi.ControlChangeEvent(tick=839, channel=0, data=[91, 127]),
   midi.NoteOnEvent(tick=1, channel=0, data=[62, 0]),
   midi.NoteOnEvent(tick=0, channel=0, data=[60, 0]),
   midi.NoteOnEvent(tick=0, channel=0, data=[59, 65]),
   midi.ControlChangeEvent(tick=8, channel=0, data=[64, 0]),
   midi.ControlChangeEvent(tick=76, channel=0, data=[64, 127]),
   midi.NoteOnEvent(tick=36, channel=0, data=[62, 60]),
   midi.NoteOnEvent(tick=840, channel=0, data=[62, 0]),
   midi.NoteOnEvent(tick=0, channel=0, data=[59, 0]),
   midi.NoteOnEvent(tick=0, channel=0, data=[59, 65]),
   midi.NoteOnEvent(tick=120, channel=0, data=[62, 60]),
   midi.ControlChangeEvent(tick=839, channel=0, data=[91, 127]),
   midi.NoteOnEvent(tick=1, channel=0, data=[62, 0]),
   midi.NoteOnEvent(tick=0, channel=0, data=[59, 0]),
   midi.NoteOnEvent(tick=0, channel=0, data=[60, 61]),
   midi.ControlChangeEvent(tick=8, channel=0, data=[64, 0]),
   midi.ControlChangeEvent(tick=90, channel=0, data=[64, 127]),
   midi.NoteOnEvent(tick=22, channel=0, data=[64, 57]),
   midi.NoteOnEvent(tick=840, channel=0, data=[64, 0]),
   midi.NoteOnEvent(tick=0, channel=0, data=[60, 0]),
   midi.NoteOnEvent(tick=0, channel=0, data=[60, 62]),
   midi.NoteOnEvent(tick=120, channel=0, data=[64, 57]),
   midi.ControlChangeEvent(tick=839, channel=0, data=[91, 127]),
   midi.NoteOnEvent(tick=1, channel=0, data=[64, 0]),
   midi.NoteOnEvent(tick=0, channel=0, data=[60, 0]),
   midi.NoteOnEvent(tick=0, channel=0, data=[60, 67]),
   midi.ControlChangeEvent(tick=7, channel=0, data=[64, 0]),
   midi.ControlChangeEvent(tick=98, channel=0, data=[64, 127]),
   midi.NoteOnEvent(tick=15, channel=0, data=[64, 62]),
   midi.NoteOnEvent(tick=840, channel=0, data=[64, 0]),
   midi.NoteOnEvent(tick=0, channel=0, data=[60, 0]),
   midi.NoteOnEvent(tick=0, channel=0, data=[60, 68]),
   midi.NoteOnEvent(tick=120, channel=0, data=[64, 62]),
   midi.ControlChangeEvent(tick=839, channel=0, data=[91, 127]),
   midi.NoteOnEvent(tick=1, channel=0, data=[64, 0]),
   midi.NoteOnEvent(tick=0, channel=0, data=[60, 0]),
   midi.NoteOnEvent(tick=0, channel=0, data=[60, 61]),
   midi.ControlChangeEvent(tick=6, channel=0, data=[64, 0]),
   midi.ControlChangeEvent(tick=73, channel=0, data=[64, 127]),
   midi.NoteOnEvent(tick=41, channel=0, data=[62, 57]),
   midi.NoteOnEvent(tick=840, channel=0, data=[62, 0]),
   midi.NoteOnEvent(tick=0, channel=0, data=[60, 0]),
   midi.NoteOnEvent(tick=0, channel=0, data=[60, 62]),
   midi.NoteOnEvent(tick=120, channel=0, data=[62, 57]),
   midi.ControlChangeEvent(tick=839, channel=0, data=[64, 0]),
   midi.ControlChangeEvent(tick=0, channel=0, data=[91, 127]),
   midi.NoteOnEvent(tick=1, channel=0, data=[62, 0]),
   midi.NoteOnEvent(tick=0, channel=0, data=[60, 0]),
   midi.NoteOnEvent(tick=0, channel=0, data=[59, 65]),
   midi.ControlChangeEvent(tick=112, channel=0, data=[64, 127]),
   midi.NoteOnEvent(tick=8, channel=0, data=[62, 60]),
   midi.NoteOnEvent(tick=840, channel=0, data=[62, 0]),
   midi.NoteOnEvent(tick=0, channel=0, data=[59, 0]),
   midi.NoteOnEvent(tick=0, channel=0, data=[59, 65]),
   midi.NoteOnEvent(tick=120, channel=0, data=[62, 60]),
   midi.ControlChangeEvent(tick=839, channel=0, data=[91, 127]),
   midi.NoteOnEvent(tick=1, channel=0, data=[62, 0]),
   midi.NoteOnEvent(tick=0, channel=0, data=[59, 0]),
   midi.NoteOnEvent(tick=0, channel=0, data=[59, 61]),
   midi.ControlChangeEvent(tick=12, channel=0, data=[64, 0]),
   midi.ControlChangeEvent(tick=58, channel=0, data=[64, 127]),
   midi.NoteOnEvent(tick=50, channel=0, data=[60, 57]),
   midi.NoteOnEvent(tick=840, channel=0, data=[60, 0]),
   midi.NoteOnEvent(tick=0, channel=0, data=[59, 0]),
   midi.NoteOnEvent(tick=0, channel=0, data=[59, 62]),
   midi.NoteOnEvent(tick=120, channel=0, data=[60, 57]),
   midi.ControlChangeEvent(tick=839, channel=0, data=[91, 127]),
   midi.NoteOnEvent(tick=1, channel=0, data=[60, 0]),
   midi.NoteOnEvent(tick=0, channel=0, data=[59, 0]),
   midi.NoteOnEvent(tick=0, channel=0, data=[57, 61]),
   midi.ControlChangeEvent(tick=9, channel=0, data=[64, 0]),
   midi.ControlChangeEvent(tick=103, channel=0, data=[64, 127]),
   midi.NoteOnEvent(tick=8, channel=0, data=[60, 57]),
   midi.NoteOnEvent(tick=840, channel=0, data=[60, 0]),
   midi.NoteOnEvent(tick=0, channel=0, data=[57, 0]),
   midi.NoteOnEvent(tick=0, channel=0, data=[57, 62]),
   midi.NoteOnEvent(tick=120, channel=0, data=[60, 57]),
   midi.ControlChangeEvent(tick=839, channel=0, data=[91, 127]),
   midi.NoteOnEvent(tick=1, channel=0, data=[60, 0]),
   midi.NoteOnEvent(tick=0, channel=0, data=[57, 0]),
   midi.NoteOnEvent(tick=0, channel=0, data=[50, 61]),
   midi.ControlChangeEvent(tick=9, channel=0, data=[64, 0]),
   midi.ControlChangeEvent(tick=70, channel=0, data=[64, 127]),
   midi.NoteOnEvent(tick=41, channel=0, data=[57, 57]),
   midi.NoteOnEvent(tick=840, channel=0, data=[57, 0]),
   midi.NoteOnEvent(tick=0, channel=0, data=[50, 0]),
   midi.NoteOnEvent(tick=0, channel=0, data=[50, 62]),
   midi.NoteOnEvent(tick=120, channel=0, data=[57, 57]),
   midi.ControlChangeEvent(tick=839, channel=0, data=[91, 127]),
   midi.NoteOnEvent(tick=1, channel=0, data=[57, 0]),
   midi.NoteOnEvent(tick=0, channel=0, data=[50, 0]),
   midi.NoteOnEvent(tick=0, channel=0, data=[55, 57]),
   midi.ControlChangeEvent(tick=8, channel=0, data=[64, 0]),
   midi.ControlChangeEvent(tick=90, channel=0, data=[64, 127]),
   midi.NoteOnEvent(tick=22, channel=0, data=[59, 55]),
   midi.NoteOnEvent(tick=840, channel=0, data=[59, 0]),
   midi.NoteOnEvent(tick=0, channel=0, data=[55, 0]),
   midi.NoteOnEvent(tick=0, channel=0, data=[55, 58]),
   midi.NoteOnEvent(tick=120, channel=0, data=[59, 55]),
   midi.ControlChangeEvent(tick=839, channel=0, data=[91, 127]),
   midi.NoteOnEvent(tick=1, channel=0, data=[59, 0]),
   midi.NoteOnEvent(tick=0, channel=0, data=[55, 0]),
   midi.NoteOnEvent(tick=0, channel=0, data=[55, 57]),
   midi.ControlChangeEvent(tick=6, channel=0, data=[64, 0]),
   midi.ControlChangeEvent(tick=84, channel=0, data=[64, 127]),
   midi.NoteOnEvent(tick=30, channel=0, data=[58, 55]),
   midi.NoteOnEvent(tick=840, channel=0, data=[58, 0]),
   midi.NoteOnEvent(tick=0, channel=0, data=[55, 0]),
   midi.NoteOnEvent(tick=0, channel=0, data=[55, 58]),
   midi.NoteOnEvent(tick=120, channel=0, data=[58, 55]),
   midi.ControlChangeEvent(tick=839, channel=0, data=[91, 127]),
   midi.NoteOnEvent(tick=1, channel=0, data=[58, 0]),
   midi.NoteOnEvent(tick=0, channel=0, data=[55, 0]),
   midi.NoteOnEvent(tick=0, channel=0, data=[53, 61]),
   midi.ControlChangeEvent(tick=12, channel=0, data=[64, 0]),
   midi.NoteOnEvent(tick=108, channel=0, data=[57, 57]),
   midi.ControlChangeEvent(tick=20, channel=0, data=[64, 127]),
   midi.NoteOnEvent(tick=820, channel=0, data=[57, 0]),
   midi.NoteOnEvent(tick=0, channel=0, data=[53, 0]),
   midi.NoteOnEvent(tick=0, channel=0, data=[53, 62]),
   midi.NoteOnEvent(tick=120, channel=0, data=[57, 57]),
   midi.ControlChangeEvent(tick=839, channel=0, data=[91, 127]),
   midi.NoteOnEvent(tick=1, channel=0, data=[57, 0]),
   midi.NoteOnEvent(tick=0, channel=0, data=[53, 0]),
   midi.NoteOnEvent(tick=0, channel=0, data=[53, 57]),
   midi.ControlChangeEvent(tick=8, channel=0, data=[64, 0]),
   midi.NoteOnEvent(tick=112, channel=0, data=[56, 55]),
   midi.ControlChangeEvent(tick=20, channel=0, data=[64, 127]),
   midi.NoteOnEvent(tick=820, channel=0, data=[56, 0]),
   midi.NoteOnEvent(tick=0, channel=0, data=[53, 0]),
   midi.NoteOnEvent(tick=0, channel=0, data=[53, 58]),
   midi.NoteOnEvent(tick=120, channel=0, data=[56, 55]),
   midi.ControlChangeEvent(tick=839, channel=0, data=[91, 127]),
   midi.NoteOnEvent(tick=1, channel=0, data=[56, 0]),
   midi.NoteOnEvent(tick=0, channel=0, data=[53, 0]),
   midi.NoteOnEvent(tick=0, channel=0, data=[52, 57]),
   midi.ControlChangeEvent(tick=13, channel=0, data=[64, 0]),
   midi.NoteOnEvent(tick=107, channel=0, data=[55, 55]),
   midi.ControlChangeEvent(tick=27, channel=0, data=[64, 127]),
   midi.NoteOnEvent(tick=813, channel=0, data=[55, 0]),
   midi.NoteOnEvent(tick=0, channel=0, data=[52, 0]),
   midi.NoteOnEvent(tick=0, channel=0, data=[52, 58]),
   midi.NoteOnEvent(tick=120, channel=0, data=[55, 55]),
   midi.ControlChangeEvent(tick=839, channel=0, data=[91, 127]),
   midi.NoteOnEvent(tick=1, channel=0, data=[55, 0]),
   midi.NoteOnEvent(tick=0, channel=0, data=[52, 0]),
   midi.NoteOnEvent(tick=0, channel=0, data=[52, 55]),
   midi.ControlChangeEvent(tick=9, channel=0, data=[64, 0]),
   midi.NoteOnEvent(tick=111, channel=0, data=[53, 51]),
   midi.ControlChangeEvent(tick=55, channel=0, data=[64, 127]),
   midi.NoteOnEvent(tick=785, channel=0, data=[53, 0]),
   midi.NoteOnEvent(tick=0, channel=0, data=[52, 0]),
   midi.NoteOnEvent(tick=0, channel=0, data=[52, 55]),
   midi.NoteOnEvent(tick=120, channel=0, data=[53, 51]),
   midi.ControlChangeEvent(tick=839, channel=0, data=[91, 127]),
   midi.NoteOnEvent(tick=1, channel=0, data=[53, 0]),
   midi.NoteOnEvent(tick=0, channel=0, data=[52, 0]),
   midi.NoteOnEvent(tick=0, channel=0, data=[50, 55]),
   midi.ControlChangeEvent(tick=6, channel=0, data=[64, 0]),
   midi.ControlChangeEvent(tick=113, channel=0, data=[64, 127]),
   midi.NoteOnEvent(tick=1, channel=0, data=[53, 51]),
   midi.NoteOnEvent(tick=840, channel=0, data=[53, 0]),
   midi.NoteOnEvent(tick=0, channel=0, data=[50, 0]),
   midi.NoteOnEvent(tick=0, channel=0, data=[50, 55]),
   midi.NoteOnEvent(tick=120, channel=0, data=[53, 51]),
   midi.ControlChangeEvent(tick=839, channel=0, data=[91, 127]),
   midi.NoteOnEvent(tick=1, channel=0, data=[53, 0]),
   midi.NoteOnEvent(tick=0, channel=0, data=[50, 0]),
   midi.NoteOnEvent(tick=0, channel=0, data=[43, 55]),
   midi.ControlChangeEvent(tick=10, channel=0, data=[64, 0]),
   midi.ControlChangeEvent(tick=88, channel=0, data=[64, 127]),
   midi.NoteOnEvent(tick=22, channel=0, data=[50, 51]),
   midi.NoteOnEvent(tick=840, channel=0, data=[50, 0]),
   midi.NoteOnEvent(tick=0, channel=0, data=[43, 0]),
   midi.NoteOnEvent(tick=0, channel=0, data=[43, 55]),
   midi.NoteOnEvent(tick=120, channel=0, data=[50, 51]),
   midi.ControlChangeEvent(tick=839, channel=0, data=[91, 127]),
   midi.NoteOnEvent(tick=1, channel=0, data=[50, 0]),
   midi.NoteOnEvent(tick=0, channel=0, data=[43, 0]),
   midi.NoteOnEvent(tick=0, channel=0, data=[48, 55]),
   midi.ControlChangeEvent(tick=9, channel=0, data=[64, 0]),
   midi.ControlChangeEvent(tick=110, channel=0, data=[64, 127]),
   midi.NoteOnEvent(tick=1, channel=0, data=[52, 51]),
   midi.NoteOnEvent(tick=840, channel=0, data=[52, 0]),
   midi.NoteOnEvent(tick=0, channel=0, data=[48, 0]),
   midi.NoteOnEvent(tick=0, channel=0, data=[48, 55]),
   midi.NoteOnEvent(tick=120, channel=0, data=[52, 51]),
   midi.ControlChangeEvent(tick=839, channel=0, data=[91, 127]),
   midi.NoteOnEvent(tick=1, channel=0, data=[52, 0]),
   midi.NoteOnEvent(tick=0, channel=0, data=[48, 0]),
   midi.NoteOnEvent(tick=0, channel=0, data=[48, 51]),
   midi.ControlChangeEvent(tick=9, channel=0, data=[64, 0]),
   midi.ControlChangeEvent(tick=81, channel=0, data=[64, 127]),
   midi.NoteOnEvent(tick=30, channel=0, data=[55, 48]),
   midi.NoteOnEvent(tick=840, channel=0, data=[55, 0]),
   midi.NoteOnEvent(tick=0, channel=0, data=[48, 0]),
   midi.NoteOnEvent(tick=0, channel=0, data=[48, 52]),
   midi.NoteOnEvent(tick=120, channel=0, data=[55, 48]),
   midi.ControlChangeEvent(tick=839, channel=0, data=[91, 127]),
   midi.NoteOnEvent(tick=1, channel=0, data=[55, 0]),
   midi.NoteOnEvent(tick=0, channel=0, data=[48, 0]),
   midi.NoteOnEvent(tick=0, channel=0, data=[41, 51]),
   midi.ControlChangeEvent(tick=8, channel=0, data=[64, 0]),
   midi.NoteOnEvent(tick=112, channel=0, data=[53, 48]),
   midi.ControlChangeEvent(tick=6, channel=0, data=[64, 127]),
   midi.NoteOnEvent(tick=834, channel=0, data=[53, 0]),
   midi.NoteOnEvent(tick=0, channel=0, data=[41, 0]),
   midi.NoteOnEvent(tick=0, channel=0, data=[41, 52]),
   midi.NoteOnEvent(tick=120, channel=0, data=[53, 48]),
   midi.ControlChangeEvent(tick=839, channel=0, data=[91, 127]),
   midi.NoteOnEvent(tick=1, channel=0, data=[53, 0]),
   midi.NoteOnEvent(tick=0, channel=0, data=[41, 0]),
   midi.NoteOnEvent(tick=0, channel=0, data=[42, 55]),
   midi.ControlChangeEvent(tick=11, channel=0, data=[64, 0]),
   midi.ControlChangeEvent(tick=79, channel=0, data=[64, 127]),
   midi.NoteOnEvent(tick=30, channel=0, data=[48, 51]),
   midi.NoteOnEvent(tick=840, channel=0, data=[48, 0]),
   midi.NoteOnEvent(tick=0, channel=0, data=[42, 0]),
   midi.NoteOnEvent(tick=0, channel=0, data=[42, 55]),
   midi.NoteOnEvent(tick=120, channel=0, data=[48, 51]),
   midi.ControlChangeEvent(tick=839, channel=0, data=[91, 127]),
   midi.NoteOnEvent(tick=1, channel=0, data=[48, 0]),
   midi.NoteOnEvent(tick=0, channel=0, data=[42, 0]),
   midi.NoteOnEvent(tick=0, channel=0, data=[44, 51]),
   midi.ControlChangeEvent(tick=6, channel=0, data=[64, 0]),
   midi.ControlChangeEvent(tick=113, channel=0, data=[64, 127]),
   midi.NoteOnEvent(tick=1, channel=0, data=[53, 48]),
   midi.NoteOnEvent(tick=840, channel=0, data=[53, 0]),
   midi.NoteOnEvent(tick=0, channel=0, data=[44, 0]),
   midi.NoteOnEvent(tick=0, channel=0, data=[44, 52]),
   midi.NoteOnEvent(tick=120, channel=0, data=[53, 48]),
   midi.ControlChangeEvent(tick=839, channel=0, data=[91, 127]),
   midi.NoteOnEvent(tick=1, channel=0, data=[53, 0]),
   midi.NoteOnEvent(tick=0, channel=0, data=[44, 0]),
   midi.NoteOnEvent(tick=0, channel=0, data=[43, 55]),
   midi.ControlChangeEvent(tick=6, channel=0, data=[64, 0]),
   midi.NoteOnEvent(tick=114, channel=0, data=[53, 51]),
   midi.ControlChangeEvent(tick=13, channel=0, data=[64, 127]),
   midi.NoteOnEvent(tick=827, channel=0, data=[53, 0]),
   midi.NoteOnEvent(tick=0, channel=0, data=[43, 0]),
   midi.NoteOnEvent(tick=0, channel=0, data=[43, 55]),
   midi.NoteOnEvent(tick=120, channel=0, data=[53, 51]),
   midi.ControlChangeEvent(tick=839, channel=0, data=[91, 127]),
   midi.NoteOnEvent(tick=1, channel=0, data=[53, 0]),
   midi.NoteOnEvent(tick=0, channel=0, data=[43, 0]),
   midi.NoteOnEvent(tick=0, channel=0, data=[43, 55]),
   midi.ControlChangeEvent(tick=10, channel=0, data=[64, 0]),
   midi.NoteOnEvent(tick=110, channel=0, data=[52, 51]),
   midi.ControlChangeEvent(tick=20, channel=0, data=[64, 127]),
   midi.NoteOnEvent(tick=820, channel=0, data=[52, 0]),
   midi.NoteOnEvent(tick=0, channel=0, data=[43, 0]),
   midi.NoteOnEvent(tick=0, channel=0, data=[43, 55]),
   midi.NoteOnEvent(tick=120, channel=0, data=[52, 51]),
   midi.ControlChangeEvent(tick=839, channel=0, data=[91, 127]),
   midi.NoteOnEvent(tick=1, channel=0, data=[52, 0]),
   midi.NoteOnEvent(tick=0, channel=0, data=[43, 0]),
   midi.NoteOnEvent(tick=0, channel=0, data=[43, 57]),
   midi.ControlChangeEvent(tick=13, channel=0, data=[64, 0]),
   midi.NoteOnEvent(tick=107, channel=0, data=[50, 55]),
   midi.ControlChangeEvent(tick=41, channel=0, data=[64, 127]),
   midi.NoteOnEvent(tick=799, channel=0, data=[50, 0]),
   midi.NoteOnEvent(tick=0, channel=0, data=[43, 0]),
   midi.NoteOnEvent(tick=0, channel=0, data=[43, 58]),
   midi.NoteOnEvent(tick=120, channel=0, data=[50, 55]),
   midi.ControlChangeEvent(tick=839, channel=0, data=[91, 127]),
   midi.NoteOnEvent(tick=1, channel=0, data=[50, 0]),
   midi.NoteOnEvent(tick=0, channel=0, data=[43, 0]),
   midi.NoteOnEvent(tick=0, channel=0, data=[43, 57]),
   midi.ControlChangeEvent(tick=6, channel=0, data=[64, 0]),
   midi.ControlChangeEvent(tick=71, channel=0, data=[64, 127]),
   midi.NoteOnEvent(tick=43, channel=0, data=[50, 55]),
   midi.NoteOnEvent(tick=840, channel=0, data=[50, 0]),
   midi.NoteOnEvent(tick=0, channel=0, data=[43, 0]),
   midi.NoteOnEvent(tick=0, channel=0, data=[43, 58]),
   midi.NoteOnEvent(tick=120, channel=0, data=[50, 55]),
   midi.ControlChangeEvent(tick=839, channel=0, data=[91, 127]),
   midi.NoteOnEvent(tick=1, channel=0, data=[50, 0]),
   midi.NoteOnEvent(tick=0, channel=0, data=[43, 0]),
   midi.NoteOnEvent(tick=0, channel=0, data=[43, 61]),
   midi.ControlChangeEvent(tick=5, channel=0, data=[64, 0]),
   midi.ControlChangeEvent(tick=91, channel=0, data=[64, 127]),
   midi.NoteOnEvent(tick=24, channel=0, data=[51, 57]),
   midi.NoteOnEvent(tick=840, channel=0, data=[51, 0]),
   midi.NoteOnEvent(tick=0, channel=0, data=[43, 0]),
   midi.NoteOnEvent(tick=0, channel=0, data=[43, 62]),
   midi.NoteOnEvent(tick=120, channel=0, data=[51, 57]),
   midi.ControlChangeEvent(tick=839, channel=0, data=[91, 127]),
   midi.NoteOnEvent(tick=1, channel=0, data=[51, 0]),
   midi.NoteOnEvent(tick=0, channel=0, data=[43, 0]),
   midi.NoteOnEvent(tick=0, channel=0, data=[43, 65]),
   midi.ControlChangeEvent(tick=13, channel=0, data=[64, 0]),
   midi.NoteOnEvent(tick=107, channel=0, data=[52, 60]),
   midi.ControlChangeEvent(tick=34, channel=0, data=[64, 127]),
   midi.NoteOnEvent(tick=806, channel=0, data=[52, 0]),
   midi.NoteOnEvent(tick=0, channel=0, data=[43, 0]),
   midi.NoteOnEvent(tick=0, channel=0, data=[43, 65]),
   midi.NoteOnEvent(tick=120, channel=0, data=[52, 60]),
   midi.ControlChangeEvent(tick=839, channel=0, data=[91, 127]),
   midi.NoteOnEvent(tick=1, channel=0, data=[52, 0]),
   midi.NoteOnEvent(tick=0, channel=0, data=[43, 0]),
   midi.NoteOnEvent(tick=0, channel=0, data=[43, 55]),
   midi.ControlChangeEvent(tick=7, channel=0, data=[64, 0]),
   midi.ControlChangeEvent(tick=77, channel=0, data=[64, 127]),
   midi.NoteOnEvent(tick=36, channel=0, data=[50, 51]),
   midi.NoteOnEvent(tick=840, channel=0, data=[50, 0]),
   midi.NoteOnEvent(tick=0, channel=0, data=[43, 0]),
   midi.NoteOnEvent(tick=0, channel=0, data=[43, 55]),
   midi.NoteOnEvent(tick=120, channel=0, data=[50, 51]),
   midi.ControlChangeEvent(tick=839, channel=0, data=[91, 127]),
   midi.NoteOnEvent(tick=1, channel=0, data=[50, 0]),
   midi.NoteOnEvent(tick=0, channel=0, data=[43, 0]),
   midi.NoteOnEvent(tick=0, channel=0, data=[43, 55]),
   midi.ControlChangeEvent(tick=10, channel=0, data=[64, 0]),
   midi.NoteOnEvent(tick=110, channel=0, data=[50, 51]),
   midi.ControlChangeEvent(tick=13, channel=0, data=[64, 127]),
   midi.NoteOnEvent(tick=827, channel=0, data=[50, 0]),
   midi.NoteOnEvent(tick=0, channel=0, data=[43, 0]),
   midi.NoteOnEvent(tick=0, channel=0, data=[43, 55]),
   midi.NoteOnEvent(tick=120, channel=0, data=[50, 51]),
   midi.ControlChangeEvent(tick=839, channel=0, data=[91, 127]),
   midi.NoteOnEvent(tick=1, channel=0, data=[50, 0]),
   midi.NoteOnEvent(tick=0, channel=0, data=[43, 0]),
   midi.NoteOnEvent(tick=0, channel=0, data=[36, 57]),
   midi.ControlChangeEvent(tick=9, channel=0, data=[64, 0]),
   midi.ControlChangeEvent(tick=70, channel=0, data=[64, 127]),
   midi.NoteOnEvent(tick=41, channel=0, data=[48, 55]),
   midi.NoteOnEvent(tick=840, channel=0, data=[48, 0]),
   midi.NoteOnEvent(tick=0, channel=0, data=[36, 0]),
   midi.NoteOnEvent(tick=0, channel=0, data=[36, 58]),
   midi.NoteOnEvent(tick=120, channel=0, data=[48, 55]),
   midi.NoteOnEvent(tick=840, channel=0, data=[48, 0]),
   midi.NoteOnEvent(tick=0, channel=0, data=[36, 0]),
   midi.NoteOnEvent(tick=0, channel=0, data=[36, 55]),
   midi.ControlChangeEvent(tick=9, channel=0, data=[64, 0]),
   midi.ControlChangeEvent(tick=96, channel=0, data=[64, 127]),
   midi.NoteOnEvent(tick=14, channel=0, data=[48, 51]),
   midi.NoteOnEvent(tick=1800, channel=0, data=[48, 0]),
   midi.NoteOnEvent(tick=1, channel=0, data=[36, 0]),
   midi.NoteOnEvent(tick=0, channel=0, data=[36, 55]),
   midi.ControlChangeEvent(tick=9, channel=0, data=[64, 0]),
   midi.NoteOnEvent(tick=110, channel=0, data=[50, 51]),
   midi.ControlChangeEvent(tick=21, channel=0, data=[64, 127]),
   midi.NoteOnEvent(tick=1779, channel=0, data=[50, 0]),
   midi.ControlChangeEvent(tick=0, channel=0, data=[64, 0]),
   midi.NoteOnEvent(tick=1, channel=0, data=[36, 0]),
   midi.NoteOnEvent(tick=0, channel=0, data=[36, 53]),
   midi.NoteOnEvent(tick=0, channel=0, data=[48, 53]),
   midi.ControlChangeEvent(tick=319, channel=0, data=[64, 127]),
   midi.NoteOnEvent(tick=1121, channel=0, data=[48, 0]),
   midi.NoteOnEvent(tick=0, channel=0, data=[36, 0]),
   midi.ControlChangeEvent(tick=307, channel=0, data=[64, 0]),
   midi.EndOfTrackEvent(tick=0, data=[])]),
 midi.Track(\
  [midi.PortEvent(tick=0, data=[0]),
   midi.TrackNameEvent(tick=0, text='Fuga 1', data=[70, 117, 103, 97, 32, 49]),
   midi.ProgramChangeEvent(tick=0, channel=2, data=[0]),
   midi.ControlChangeEvent(tick=0, channel=2, data=[7, 110]),
   midi.ControlChangeEvent(tick=0, channel=2, data=[10, 64]),
   midi.ControlChangeEvent(tick=67200, channel=2, data=[91, 127]),
   midi.ControlChangeEvent(tick=0, channel=2, data=[93, 0]),
   midi.ControlChangeEvent(tick=3119, channel=2, data=[7, 127]),
   midi.NoteOnEvent(tick=1, channel=2, data=[67, 53]),
   midi.NoteOnEvent(tick=240, channel=2, data=[67, 0]),
   midi.NoteOnEvent(tick=0, channel=2, data=[69, 54]),
   midi.NoteOnEvent(tick=240, channel=2, data=[69, 0]),
   midi.NoteOnEvent(tick=0, channel=2, data=[71, 55]),
   midi.NoteOnEvent(tick=240, channel=2, data=[71, 0]),
   midi.NoteOnEvent(tick=0, channel=2, data=[72, 60]),
   midi.NoteOnEvent(tick=360, channel=2, data=[72, 0]),
   midi.NoteOnEvent(tick=0, channel=2, data=[74, 57]),
   midi.NoteOnEvent(tick=60, channel=2, data=[74, 0]),
   midi.NoteOnEvent(tick=0, channel=2, data=[72, 57]),
   midi.NoteOnEvent(tick=60, channel=2, data=[72, 0]),
   midi.NoteOnEvent(tick=0, channel=2, data=[71, 57]),
   midi.NoteOnEvent(tick=220, channel=2, data=[71, 0]),
   midi.NoteOnEvent(tick=20, channel=2, data=[76, 60]),
   midi.NoteOnEvent(tick=240, channel=2, data=[76, 0]),
   midi.NoteOnEvent(tick=0, channel=2, data=[69, 56]),
   midi.NoteOnEvent(tick=220, channel=2, data=[69, 0]),
   midi.NoteOnEvent(tick=20, channel=2, data=[74, 60]),
   midi.NoteOnEvent(tick=360, channel=2, data=[74, 0]),
   midi.NoteOnEvent(tick=0, channel=2, data=[76, 57]),
   midi.NoteOnEvent(tick=120, channel=2, data=[76, 0]),
   midi.NoteOnEvent(tick=0, channel=2, data=[74, 57]),
   midi.NoteOnEvent(tick=120, channel=2, data=[74, 0]),
   midi.NoteOnEvent(tick=0, channel=2, data=[72, 56]),
   midi.NoteOnEvent(tick=120, channel=2, data=[72, 0]),
   midi.NoteOnEvent(tick=0, channel=2, data=[71, 55]),
   midi.NoteOnEvent(tick=90, channel=2, data=[71, 0]),
   midi.NoteOnEvent(tick=30, channel=2, data=[67, 55]),
   midi.NoteOnEvent(tick=120, channel=2, data=[67, 0]),
   midi.ControlChangeEvent(tick=0, channel=2, data=[7, 110]),
   midi.NoteOnEvent(tick=0, channel=2, data=[69, 56]),
   midi.NoteOnEvent(tick=120, channel=2, data=[69, 0]),
   midi.NoteOnEvent(tick=0, channel=2, data=[71, 57]),
   midi.NoteOnEvent(tick=120, channel=2, data=[71, 0]),
   midi.NoteOnEvent(tick=0, channel=2, data=[72, 57]),
   midi.NoteOnEvent(tick=120, channel=2, data=[72, 0]),
   midi.NoteOnEvent(tick=0, channel=2, data=[71, 53]),
   midi.NoteOnEvent(tick=120, channel=2, data=[71, 0]),
   midi.NoteOnEvent(tick=0, channel=2, data=[72, 54]),
   midi.NoteOnEvent(tick=120, channel=2, data=[72, 0]),
   midi.NoteOnEvent(tick=0, channel=2, data=[74, 55]),
   midi.NoteOnEvent(tick=120, channel=2, data=[74, 0]),
   midi.NoteOnEvent(tick=0, channel=2, data=[76, 56]),
   midi.NoteOnEvent(tick=120, channel=2, data=[76, 0]),
   midi.NoteOnEvent(tick=0, channel=2, data=[74, 57]),
   midi.NoteOnEvent(tick=120, channel=2, data=[74, 0]),
   midi.NoteOnEvent(tick=0, channel=2, data=[76, 58]),
   midi.NoteOnEvent(tick=120, channel=2, data=[76, 0]),
   midi.NoteOnEvent(tick=0, channel=2, data=[78, 59]),
   midi.NoteOnEvent(tick=120, channel=2, data=[78, 0]),
   midi.NoteOnEvent(tick=0, channel=2, data=[79, 60]),
   midi.NoteOnEvent(tick=240, channel=2, data=[79, 0]),
   midi.NoteOnEvent(tick=0, channel=2, data=[71, 56]),
   midi.NoteOnEvent(tick=240, channel=2, data=[71, 0]),
   midi.NoteOnEvent(tick=0, channel=2, data=[72, 60]),
   midi.NoteOnEvent(tick=220, channel=2, data=[72, 0]),
   midi.NoteOnEvent(tick=20, channel=2, data=[69, 55]),
   midi.NoteOnEvent(tick=240, channel=2, data=[69, 0]),
   midi.NoteOnEvent(tick=0, channel=2, data=[74, 58]),
   midi.NoteOnEvent(tick=120, channel=2, data=[74, 0]),
   midi.NoteOnEvent(tick=0, channel=2, data=[72, 57]),
   midi.NoteOnEvent(tick=120, channel=2, data=[72, 0]),
   midi.NoteOnEvent(tick=0, channel=2, data=[71, 56]),
   midi.NoteOnEvent(tick=120, channel=2, data=[71, 0]),
   midi.NoteOnEvent(tick=0, channel=2, data=[69, 55]),
   midi.NoteOnEvent(tick=120, channel=2, data=[69, 0]),
   midi.NoteOnEvent(tick=0, channel=2, data=[67, 54]),
   midi.NoteOnEvent(tick=360, channel=2, data=[67, 0]),
   midi.NoteOnEvent(tick=0, channel=2, data=[67, 56]),
   midi.NoteOnEvent(tick=120, channel=2, data=[67, 0]),
   midi.NoteOnEvent(tick=0, channel=2, data=[65, 55]),
   midi.NoteOnEvent(tick=120, channel=2, data=[65, 0]),
   midi.NoteOnEvent(tick=0, channel=2, data=[64, 55]),
   midi.NoteOnEvent(tick=120, channel=2, data=[64, 0]),
   midi.NoteOnEvent(tick=0, channel=2, data=[65, 55]),
   midi.NoteOnEvent(tick=120, channel=2, data=[65, 0]),
   midi.NoteOnEvent(tick=0, channel=2, data=[67, 55]),
   midi.NoteOnEvent(tick=120, channel=2, data=[67, 0]),
   midi.NoteOnEvent(tick=0, channel=2, data=[69, 55]),
   midi.NoteOnEvent(tick=120, channel=2, data=[69, 0]),
   midi.NoteOnEvent(tick=0, channel=2, data=[67, 56]),
   midi.NoteOnEvent(tick=120, channel=2, data=[67, 0]),
   midi.NoteOnEvent(tick=0, channel=2, data=[69, 55]),
   midi.NoteOnEvent(tick=120, channel=2, data=[69, 0]),
   midi.NoteOnEvent(tick=0, channel=2, data=[71, 57]),
   midi.NoteOnEvent(tick=120, channel=2, data=[71, 0]),
   midi.NoteOnEvent(tick=0, channel=2, data=[72, 59]),
   midi.NoteOnEvent(tick=960, channel=2, data=[72, 0]),
   midi.NoteOnEvent(tick=0, channel=2, data=[71, 57]),
   midi.NoteOnEvent(tick=480, channel=2, data=[71, 0]),
   midi.ControlChangeEvent(tick=240, channel=2, data=[7, 127]),
   midi.NoteOnEvent(tick=0, channel=2, data=[72, 60]),
   midi.NoteOnEvent(tick=240, channel=2, data=[72, 0]),
   midi.NoteOnEvent(tick=0, channel=2, data=[74, 63]),
   midi.NoteOnEvent(tick=240, channel=2, data=[74, 0]),
   midi.NoteOnEvent(tick=0, channel=2, data=[76, 64]),
   midi.NoteOnEvent(tick=240, channel=2, data=[76, 0]),
   midi.NoteOnEvent(tick=0, channel=2, data=[77, 69]),
   midi.NoteOnEvent(tick=360, channel=2, data=[77, 0]),
   midi.NoteOnEvent(tick=0, channel=2, data=[79, 66]),
   midi.NoteOnEvent(tick=60, channel=2, data=[79, 0]),
   midi.NoteOnEvent(tick=0, channel=2, data=[77, 66]),
   midi.NoteOnEvent(tick=60, channel=2, data=[77, 0]),
   midi.NoteOnEvent(tick=0, channel=2, data=[76, 66]),
   midi.NoteOnEvent(tick=220, channel=2, data=[76, 0]),
   midi.NoteOnEvent(tick=20, channel=2, data=[81, 69]),
   midi.NoteOnEvent(tick=240, channel=2, data=[81, 0]),
   midi.NoteOnEvent(tick=0, channel=2, data=[74, 64]),
   midi.NoteOnEvent(tick=220, channel=2, data=[74, 0]),
   midi.NoteOnEvent(tick=20, channel=2, data=[79, 69]),
   midi.NoteOnEvent(tick=360, channel=2, data=[79, 0]),
   midi.NoteOnEvent(tick=0, channel=2, data=[81, 67]),
   midi.NoteOnEvent(tick=120, channel=2, data=[81, 0]),
   midi.NoteOnEvent(tick=0, channel=2, data=[79, 66]),
   midi.NoteOnEvent(tick=120, channel=2, data=[79, 0]),
   midi.NoteOnEvent(tick=0, channel=2, data=[77, 64]),
   midi.NoteOnEvent(tick=120, channel=2, data=[77, 0]),
   midi.NoteOnEvent(tick=0, channel=2, data=[76, 63]),
   midi.NoteOnEvent(tick=220, channel=2, data=[76, 0]),
   midi.NoteOnEvent(tick=20, channel=2, data=[81, 70]),
   midi.NoteOnEvent(tick=360, channel=2, data=[81, 0]),
   midi.NoteOnEvent(tick=0, channel=2, data=[83, 68]),
   midi.NoteOnEvent(tick=120, channel=2, data=[83, 0]),
   midi.NoteOnEvent(tick=0, channel=2, data=[81, 67]),
   midi.NoteOnEvent(tick=120, channel=2, data=[81, 0]),
   midi.NoteOnEvent(tick=0, channel=2, data=[79, 66]),
   midi.NoteOnEvent(tick=120, channel=2, data=[79, 0]),
   midi.NoteOnEvent(tick=0, channel=2, data=[77, 65]),
   midi.NoteOnEvent(tick=960, channel=2, data=[77, 0]),
   midi.ControlChangeEvent(tick=0, channel=2, data=[7, 110]),
   midi.NoteOnEvent(tick=0, channel=2, data=[76, 60]),
   midi.NoteOnEvent(tick=360, channel=2, data=[76, 0]),
   midi.NoteOnEvent(tick=0, channel=2, data=[78, 57]),
   midi.NoteOnEvent(tick=120, channel=2, data=[78, 0]),
   midi.NoteOnEvent(tick=0, channel=2, data=[79, 63]),
   midi.NoteOnEvent(tick=960, channel=2, data=[79, 0]),
   midi.NoteOnEvent(tick=0, channel=2, data=[78, 63]),
   midi.NoteOnEvent(tick=480, channel=2, data=[78, 0]),
   midi.NoteOnEvent(tick=0, channel=2, data=[79, 60]),
   midi.NoteOnEvent(tick=120, channel=2, data=[79, 0]),
   midi.NoteOnEvent(tick=0, channel=2, data=[77, 59]),
   midi.NoteOnEvent(tick=120, channel=2, data=[77, 0]),
   midi.NoteOnEvent(tick=0, channel=2, data=[76, 58]),
   midi.NoteOnEvent(tick=120, channel=2, data=[76, 0]),
   midi.NoteOnEvent(tick=0, channel=2, data=[74, 57]),
   midi.NoteOnEvent(tick=120, channel=2, data=[74, 0]),
   midi.NoteOnEvent(tick=0, channel=2, data=[72, 56]),
   midi.NoteOnEvent(tick=120, channel=2, data=[72, 0]),
   midi.NoteOnEvent(tick=0, channel=2, data=[74, 57]),
   midi.NoteOnEvent(tick=120, channel=2, data=[74, 0]),
   midi.NoteOnEvent(tick=0, channel=2, data=[72, 57]),
   midi.NoteOnEvent(tick=120, channel=2, data=[72, 0]),
   midi.NoteOnEvent(tick=0, channel=2, data=[71, 57]),
   midi.NoteOnEvent(tick=120, channel=2, data=[71, 0]),
   midi.NoteOnEvent(tick=0, channel=2, data=[69, 57]),
   midi.NoteOnEvent(tick=120, channel=2, data=[69, 0]),
   midi.NoteOnEvent(tick=0, channel=2, data=[72, 58]),
   midi.NoteOnEvent(tick=120, channel=2, data=[72, 0]),
   midi.NoteOnEvent(tick=0, channel=2, data=[71, 58]),
   midi.NoteOnEvent(tick=120, channel=2, data=[71, 0]),
   midi.NoteOnEvent(tick=0, channel=2, data=[69, 57]),
   midi.NoteOnEvent(tick=120, channel=2, data=[69, 0]),
   midi.NoteOnEvent(tick=600, channel=2, data=[72, 58]),
   midi.NoteOnEvent(tick=120, channel=2, data=[72, 0]),
   midi.NoteOnEvent(tick=120, channel=2, data=[69, 55]),
   midi.NoteOnEvent(tick=120, channel=2, data=[69, 0]),
   midi.NoteOnEvent(tick=0, channel=2, data=[68, 54]),
   midi.NoteOnEvent(tick=180, channel=2, data=[68, 0]),
   midi.NoteOnEvent(tick=60, channel=2, data=[76, 60]),
   midi.NoteOnEvent(tick=240, channel=2, data=[76, 0]),
   midi.NoteOnEvent(tick=0, channel=2, data=[74, 58]),
   midi.NoteOnEvent(tick=240, channel=2, data=[74, 0]),
   midi.NoteOnEvent(tick=0, channel=2, data=[72, 56]),
   midi.NoteOnEvent(tick=120, channel=2, data=[72, 0]),
   midi.NoteOnEvent(tick=0, channel=2, data=[71, 56]),
   midi.NoteOnEvent(tick=120, channel=2, data=[71, 0]),
   midi.NoteOnEvent(tick=0, channel=2, data=[69, 54]),
   midi.NoteOnEvent(tick=120, channel=2, data=[69, 0]),
   midi.NoteOnEvent(tick=0, channel=2, data=[68, 54]),
   midi.NoteOnEvent(tick=120, channel=2, data=[68, 0]),
   midi.NoteOnEvent(tick=0, channel=2, data=[69, 54]),
   midi.NoteOnEvent(tick=120, channel=2, data=[69, 0]),
   midi.NoteOnEvent(tick=0, channel=2, data=[71, 53]),
   midi.NoteOnEvent(tick=120, channel=2, data=[71, 0]),
   midi.NoteOnEvent(tick=0, channel=2, data=[72, 56]),
   midi.NoteOnEvent(tick=90, channel=2, data=[72, 0]),
   midi.NoteOnEvent(tick=30, channel=2, data=[66, 54]),
   midi.NoteOnEvent(tick=120, channel=2, data=[66, 0]),
   midi.NoteOnEvent(tick=0, channel=2, data=[69, 54]),
   midi.NoteOnEvent(tick=120, channel=2, data=[69, 0]),
   midi.NoteOnEvent(tick=0, channel=2, data=[68, 55]),
   midi.NoteOnEvent(tick=120, channel=2, data=[68, 0]),
   midi.NoteOnEvent(tick=0, channel=2, data=[71, 58]),
   midi.NoteOnEvent(tick=240, channel=2, data=[71, 0]),
   midi.NoteOnEvent(tick=0, channel=2, data=[69, 56]),
   midi.NoteOnEvent(tick=120, channel=2, data=[69, 0]),
   midi.NoteOnEvent(tick=0, channel=2, data=[71, 56]),
   midi.NoteOnEvent(tick=120, channel=2, data=[71, 0]),
   midi.NoteOnEvent(tick=0, channel=2, data=[72, 58]),
   midi.NoteOnEvent(tick=220, channel=2, data=[72, 0]),
   midi.NoteOnEvent(tick=20, channel=2, data=[77, 64]),
   midi.NoteOnEvent(tick=240, channel=2, data=[77, 0]),
   midi.NoteOnEvent(tick=0, channel=2, data=[76, 62]),
   midi.NoteOnEvent(tick=240, channel=2, data=[76, 0]),
   midi.NoteOnEvent(tick=0, channel=2, data=[74, 60]),
   midi.NoteOnEvent(tick=480, channel=2, data=[74, 0]),
   midi.NoteOnEvent(tick=0, channel=2, data=[72, 58]),
   midi.NoteOnEvent(tick=120, channel=2, data=[72, 0]),
   midi.NoteOnEvent(tick=0, channel=2, data=[71, 58]),
   midi.NoteOnEvent(tick=120, channel=2, data=[71, 0]),
   midi.NoteOnEvent(tick=0, channel=2, data=[71, 60]),
   midi.NoteOnEvent(tick=45, channel=2, data=[71, 0]),
   midi.NoteOnEvent(tick=0, channel=2, data=[72, 55]),
   midi.NoteOnEvent(tick=45, channel=2, data=[72, 0]),
   midi.NoteOnEvent(tick=0, channel=2, data=[71, 60]),
   midi.NoteOnEvent(tick=270, channel=2, data=[71, 0]),
   midi.NoteOnEvent(tick=0, channel=2, data=[69, 57]),
   midi.NoteOnEvent(tick=120, channel=2, data=[69, 0]),
   midi.NoteOnEvent(tick=0, channel=2, data=[69, 60]),
   midi.NoteOnEvent(tick=480, channel=2, data=[69, 0]),
   midi.ControlChangeEvent(tick=2640, channel=2, data=[7, 127]),
   midi.NoteOnEvent(tick=0, channel=2, data=[67, 53]),
   midi.NoteOnEvent(tick=240, channel=2, data=[67, 0]),
   midi.NoteOnEvent(tick=0, channel=2, data=[69, 54]),
   midi.NoteOnEvent(tick=240, channel=2, data=[69, 0]),
   midi.NoteOnEvent(tick=0, channel=2, data=[71, 55]),
   midi.NoteOnEvent(tick=240, channel=2, data=[71, 0]),
   midi.NoteOnEvent(tick=0, channel=2, data=[72, 60]),
   midi.NoteOnEvent(tick=360, channel=2, data=[72, 0]),
   midi.NoteOnEvent(tick=0, channel=2, data=[74, 57]),
   midi.NoteOnEvent(tick=60, channel=2, data=[74, 0]),
   midi.NoteOnEvent(tick=0, channel=2, data=[72, 57]),
   midi.NoteOnEvent(tick=60, channel=2, data=[72, 0]),
   midi.NoteOnEvent(tick=0, channel=2, data=[71, 57]),
   midi.NoteOnEvent(tick=220, channel=2, data=[71, 0]),
   midi.NoteOnEvent(tick=20, channel=2, data=[72, 53]),
   midi.NoteOnEvent(tick=240, channel=2, data=[72, 0]),
   midi.NoteOnEvent(tick=0, channel=2, data=[74, 56]),
   midi.NoteOnEvent(tick=240, channel=2, data=[74, 0]),
   midi.NoteOnEvent(tick=0, channel=2, data=[76, 59]),
   midi.NoteOnEvent(tick=240, channel=2, data=[76, 0]),
   midi.NoteOnEvent(tick=0, channel=2, data=[77, 64]),
   midi.NoteOnEvent(tick=360, channel=2, data=[77, 0]),
   midi.NoteOnEvent(tick=0, channel=2, data=[79, 60]),
   midi.NoteOnEvent(tick=60, channel=2, data=[79, 0]),
   midi.NoteOnEvent(tick=0, channel=2, data=[77, 60]),
   midi.NoteOnEvent(tick=60, channel=2, data=[77, 0]),
   midi.NoteOnEvent(tick=0, channel=2, data=[76, 60]),
   midi.NoteOnEvent(tick=220, channel=2, data=[76, 0]),
   midi.NoteOnEvent(tick=20, channel=2, data=[81, 68]),
   midi.NoteOnEvent(tick=240, channel=2, data=[81, 0]),
   midi.ControlChangeEvent(tick=0, channel=2, data=[7, 110]),
   midi.NoteOnEvent(tick=0, channel=2, data=[74, 60]),
   midi.NoteOnEvent(tick=220, channel=2, data=[74, 0]),
   midi.NoteOnEvent(tick=20, channel=2, data=[79, 66]),
   midi.NoteOnEvent(tick=360, channel=2, data=[79, 0]),
   midi.NoteOnEvent(tick=0, channel=2, data=[81, 66]),
   midi.NoteOnEvent(tick=120, channel=2, data=[81, 0]),
   midi.NoteOnEvent(tick=0, channel=2, data=[79, 64]),
   midi.NoteOnEvent(tick=120, channel=2, data=[79, 0]),
   midi.NoteOnEvent(tick=0, channel=2, data=[77, 63]),
   midi.NoteOnEvent(tick=120, channel=2, data=[77, 0]),
   midi.NoteOnEvent(tick=0, channel=2, data=[76, 61]),
   midi.NoteOnEvent(tick=220, channel=2, data=[76, 0]),
   midi.NoteOnEvent(tick=20, channel=2, data=[81, 67]),
   midi.NoteOnEvent(tick=240, channel=2, data=[81, 0]),
   midi.NoteOnEvent(tick=0, channel=2, data=[74, 60]),
   midi.NoteOnEvent(tick=220, channel=2, data=[74, 0]),
   midi.NoteOnEvent(tick=20, channel=2, data=[82, 67]),
   midi.NoteOnEvent(tick=240, channel=2, data=[82, 0]),
   midi.NoteOnEvent(tick=0, channel=2, data=[81, 67]),
   midi.NoteOnEvent(tick=240, channel=2, data=[81, 0]),
   midi.NoteOnEvent(tick=0, channel=2, data=[79, 64]),
   midi.NoteOnEvent(tick=120, channel=2, data=[79, 0]),
   midi.NoteOnEvent(tick=0, channel=2, data=[77, 61]),
   midi.NoteOnEvent(tick=120, channel=2, data=[77, 0]),
   midi.NoteOnEvent(tick=0, channel=2, data=[79, 64]),
   midi.NoteOnEvent(tick=120, channel=2, data=[79, 0]),
   midi.NoteOnEvent(tick=0, channel=2, data=[77, 61]),
   midi.NoteOnEvent(tick=120, channel=2, data=[77, 0]),
   midi.NoteOnEvent(tick=0, channel=2, data=[79, 64]),
   midi.NoteOnEvent(tick=120, channel=2, data=[79, 0]),
   midi.NoteOnEvent(tick=0, channel=2, data=[76, 60]),
   midi.NoteOnEvent(tick=120, channel=2, data=[76, 0]),
   midi.NoteOnEvent(tick=0, channel=2, data=[77, 64]),
   midi.NoteOnEvent(tick=120, channel=2, data=[77, 0]),
   midi.NoteOnEvent(tick=0, channel=2, data=[79, 60]),
   midi.NoteOnEvent(tick=120, channel=2, data=[79, 0]),
   midi.NoteOnEvent(tick=0, channel=2, data=[79, 64]),
   midi.NoteOnEvent(tick=30, channel=2, data=[79, 0]),
   midi.NoteOnEvent(tick=0, channel=2, data=[81, 55]),
   midi.NoteOnEvent(tick=30, channel=2, data=[81, 0]),
   midi.NoteOnEvent(tick=0, channel=2, data=[79, 55]),
   midi.NoteOnEvent(tick=30, channel=2, data=[79, 0]),
   midi.NoteOnEvent(tick=30, channel=2, data=[77, 60]),
   midi.NoteOnEvent(tick=60, channel=2, data=[77, 0]),
   midi.NoteOnEvent(tick=0, channel=2, data=[79, 60]),
   midi.NoteOnEvent(tick=60, channel=2, data=[79, 0]),
   midi.NoteOnEvent(tick=0, channel=2, data=[81, 67]),
   midi.NoteOnEvent(tick=90, channel=2, data=[81, 0]),
   midi.NoteOnEvent(tick=30, channel=2, data=[73, 60]),
   midi.NoteOnEvent(tick=120, channel=2, data=[73, 0]),
   midi.NoteOnEvent(tick=0, channel=2, data=[74, 60]),
   midi.NoteOnEvent(tick=120, channel=2, data=[74, 0]),
   midi.NoteOnEvent(tick=0, channel=2, data=[79, 60]),
   midi.NoteOnEvent(tick=120, channel=2, data=[79, 0]),
   midi.NoteOnEvent(tick=0, channel=2, data=[76, 64]),
   midi.NoteOnEvent(tick=45, channel=2, data=[76, 0]),
   midi.NoteOnEvent(tick=0, channel=2, data=[77, 55]),
   midi.NoteOnEvent(tick=45, channel=2, data=[77, 0]),
   midi.NoteOnEvent(tick=0, channel=2, data=[76, 60]),
   midi.NoteOnEvent(tick=270, channel=2, data=[76, 0]),
   midi.NoteOnEvent(tick=0, channel=2, data=[74, 60]),
   midi.NoteOnEvent(tick=120, channel=2, data=[74, 0]),
   midi.NoteOnEvent(tick=0, channel=2, data=[74, 61]),
   midi.NoteOnEvent(tick=240, channel=2, data=[74, 0]),
   midi.NoteOnEvent(tick=2400, channel=2, data=[67, 51]),
   midi.NoteOnEvent(tick=240, channel=2, data=[67, 0]),
   midi.NoteOnEvent(tick=0, channel=2, data=[69, 53]),
   midi.NoteOnEvent(tick=240, channel=2, data=[69, 0]),
   midi.NoteOnEvent(tick=0, channel=2, data=[71, 55]),
   midi.NoteOnEvent(tick=240, channel=2, data=[71, 0]),
   midi.NoteOnEvent(tick=0, channel=2, data=[72, 60]),
   midi.NoteOnEvent(tick=360, channel=2, data=[72, 0]),
   midi.NoteOnEvent(tick=0, channel=2, data=[74, 58]),
   midi.NoteOnEvent(tick=60, channel=2, data=[74, 0]),
   midi.NoteOnEvent(tick=0, channel=2, data=[72, 58]),
   midi.NoteOnEvent(tick=60, channel=2, data=[72, 0]),
   midi.NoteOnEvent(tick=0, channel=2, data=[71, 58]),
   midi.NoteOnEvent(tick=220, channel=2, data=[71, 0]),
   midi.NoteOnEvent(tick=20, channel=2, data=[76, 60]),
   midi.NoteOnEvent(tick=240, channel=2, data=[76, 0]),
   midi.NoteOnEvent(tick=0, channel=2, data=[69, 57]),
   midi.NoteOnEvent(tick=220, channel=2, data=[69, 0]),
   midi.NoteOnEvent(tick=20, channel=2, data=[74, 60]),
   midi.NoteOnEvent(tick=360, channel=2, data=[74, 0]),
   midi.NoteOnEvent(tick=0, channel=2, data=[76, 60]),
   midi.NoteOnEvent(tick=120, channel=2, data=[76, 0]),
   midi.NoteOnEvent(tick=0, channel=2, data=[74, 57]),
   midi.NoteOnEvent(tick=120, channel=2, data=[74, 0]),
   midi.NoteOnEvent(tick=0, channel=2, data=[72, 56]),
   midi.NoteOnEvent(tick=120, channel=2, data=[72, 0]),
   midi.NoteOnEvent(tick=0, channel=2, data=[71, 55]),
   midi.NoteOnEvent(tick=120, channel=2, data=[71, 0]),
   midi.NoteOnEvent(tick=0, channel=2, data=[72, 55]),
   midi.NoteOnEvent(tick=120, channel=2, data=[72, 0]),
   midi.NoteOnEvent(tick=0, channel=2, data=[74, 57]),
   midi.NoteOnEvent(tick=120, channel=2, data=[74, 0]),
   midi.NoteOnEvent(tick=0, channel=2, data=[76, 59]),
   midi.NoteOnEvent(tick=120, channel=2, data=[76, 0]),
   midi.NoteOnEvent(tick=0, channel=2, data=[77, 61]),
   midi.NoteOnEvent(tick=120, channel=2, data=[77, 0]),
   midi.NoteOnEvent(tick=0, channel=2, data=[79, 61]),
   midi.NoteOnEvent(tick=120, channel=2, data=[79, 0]),
   midi.NoteOnEvent(tick=0, channel=2, data=[81, 61]),
   midi.NoteOnEvent(tick=120, channel=2, data=[81, 0]),
   midi.NoteOnEvent(tick=0, channel=2, data=[79, 60]),
   midi.NoteOnEvent(tick=120, channel=2, data=[79, 0]),
   midi.NoteOnEvent(tick=0, channel=2, data=[77, 60]),
   midi.NoteOnEvent(tick=120, channel=2, data=[77, 0]),
   midi.NoteOnEvent(tick=0, channel=2, data=[76, 59]),
   midi.NoteOnEvent(tick=120, channel=2, data=[76, 0]),
   midi.NoteOnEvent(tick=0, channel=2, data=[74, 59]),
   midi.NoteOnEvent(tick=120, channel=2, data=[74, 0]),
   midi.NoteOnEvent(tick=0, channel=2, data=[72, 58]),
   midi.NoteOnEvent(tick=120, channel=2, data=[72, 0]),
   midi.NoteOnEvent(tick=0, channel=2, data=[71, 58]),
   midi.NoteOnEvent(tick=480, channel=2, data=[71, 0]),
   midi.NoteOnEvent(tick=0, channel=2, data=[72, 57]),
   midi.NoteOnEvent(tick=240, channel=2, data=[72, 0]),
   midi.NoteOnEvent(tick=0, channel=2, data=[74, 57]),
   midi.NoteOnEvent(tick=240, channel=2, data=[74, 0]),
   midi.NoteOnEvent(tick=0, channel=2, data=[67, 58]),
   midi.NoteOnEvent(tick=220, channel=2, data=[67, 0]),
   midi.NoteOnEvent(tick=20, channel=2, data=[72, 60]),
   midi.NoteOnEvent(tick=480, channel=2, data=[72, 0]),
   midi.NoteOnEvent(tick=0, channel=2, data=[71, 57]),
   midi.NoteOnEvent(tick=240, channel=2, data=[71, 0]),
   midi.NoteOnEvent(tick=0, channel=2, data=[72, 60]),
   midi.NoteOnEvent(tick=480, channel=2, data=[72, 0]),
   midi.NoteOnEvent(tick=0, channel=2, data=[71, 67]),
   midi.NoteOnEvent(tick=240, channel=2, data=[71, 0]),
   midi.NoteOnEvent(tick=0, channel=2, data=[70, 67]),
   midi.NoteOnEvent(tick=240, channel=2, data=[70, 0]),
   midi.NoteOnEvent(tick=0, channel=2, data=[69, 66]),
   midi.NoteOnEvent(tick=240, channel=2, data=[69, 0]),
   midi.NoteOnEvent(tick=0, channel=2, data=[74, 72]),
   midi.NoteOnEvent(tick=480, channel=2, data=[74, 0]),
   midi.ControlChangeEvent(tick=0, channel=2, data=[7, 127]),
   midi.NoteOnEvent(tick=0, channel=2, data=[72, 67]),
   midi.NoteOnEvent(tick=240, channel=2, data=[72, 0]),
   midi.NoteOnEvent(tick=0, channel=2, data=[74, 67]),
   midi.NoteOnEvent(tick=240, channel=2, data=[74, 0]),
   midi.NoteOnEvent(tick=0, channel=2, data=[76, 70]),
   midi.NoteOnEvent(tick=240, channel=2, data=[76, 0]),
   midi.NoteOnEvent(tick=0, channel=2, data=[77, 74]),
   midi.NoteOnEvent(tick=600, channel=2, data=[77, 0]),
   midi.NoteOnEvent(tick=0, channel=2, data=[81, 69]),
   midi.NoteOnEvent(tick=120, channel=2, data=[81, 0]),
   midi.NoteOnEvent(tick=0, channel=2, data=[79, 69]),
   midi.NoteOnEvent(tick=120, channel=2, data=[79, 0]),
   midi.NoteOnEvent(tick=0, channel=2, data=[77, 68]),
   midi.NoteOnEvent(tick=120, channel=2, data=[77, 0]),
   midi.NoteOnEvent(tick=0, channel=2, data=[76, 67]),
   midi.NoteOnEvent(tick=120, channel=2, data=[76, 0]),
   midi.NoteOnEvent(tick=0, channel=2, data=[77, 69]),
   midi.NoteOnEvent(tick=120, channel=2, data=[77, 0]),
   midi.NoteOnEvent(tick=0, channel=2, data=[76, 68]),
   midi.NoteOnEvent(tick=120, channel=2, data=[76, 0]),
   midi.NoteOnEvent(tick=0, channel=2, data=[74, 67]),
   midi.NoteOnEvent(tick=120, channel=2, data=[74, 0]),
   midi.NoteOnEvent(tick=0, channel=2, data=[72, 70]),
   midi.NoteOnEvent(tick=960, channel=2, data=[72, 0]),
   midi.NoteOnEvent(tick=120, channel=2, data=[67, 56]),
   midi.NoteOnEvent(tick=60, channel=2, data=[67, 0]),
   midi.NoteOnEvent(tick=0, channel=2, data=[69, 57]),
   midi.NoteOnEvent(tick=60, channel=2, data=[69, 0]),
   midi.NoteOnEvent(tick=0, channel=2, data=[71, 57]),
   midi.NoteOnEvent(tick=120, channel=2, data=[71, 0]),
   midi.NoteOnEvent(tick=0, channel=2, data=[72, 59]),
   midi.NoteOnEvent(tick=120, channel=2, data=[72, 0]),
   midi.NoteOnEvent(tick=0, channel=2, data=[74, 60]),
   midi.NoteOnEvent(tick=120, channel=2, data=[74, 0]),
   midi.NoteOnEvent(tick=0, channel=2, data=[76, 62]),
   midi.NoteOnEvent(tick=120, channel=2, data=[76, 0]),
   midi.NoteOnEvent(tick=0, channel=2, data=[77, 63]),
   midi.NoteOnEvent(tick=300, channel=2, data=[77, 0]),
   midi.NoteOnEvent(tick=0, channel=2, data=[72, 55]),
   midi.NoteOnEvent(tick=60, channel=2, data=[72, 0]),
   midi.NoteOnEvent(tick=0, channel=2, data=[74, 57]),
   midi.NoteOnEvent(tick=60, channel=2, data=[74, 0]),
   midi.NoteOnEvent(tick=0, channel=2, data=[76, 58]),
   midi.NoteOnEvent(tick=60, channel=2, data=[76, 0]),
   midi.NoteOnEvent(tick=0, channel=2, data=[77, 59]),
   midi.NoteOnEvent(tick=120, channel=2, data=[77, 0]),
   midi.NoteOnEvent(tick=0, channel=2, data=[79, 62]),
   midi.NoteOnEvent(tick=120, channel=2, data=[79, 0]),
   midi.NoteOnEvent(tick=0, channel=2, data=[81, 65]),
   midi.NoteOnEvent(tick=360, channel=2, data=[81, 0]),
   midi.NoteOnEvent(tick=0, channel=2, data=[83, 64]),
   midi.NoteOnEvent(tick=120, channel=2, data=[83, 0]),
   midi.NoteOnEvent(tick=0, channel=2, data=[79, 52]),
   midi.NoteOnEvent(tick=0, channel=2, data=[84, 56]),
   midi.NoteOnEvent(tick=960, channel=2, data=[84, 0]),
   midi.NoteOnEvent(tick=0, channel=2, data=[79, 0]),
   midi.EndOfTrackEvent(tick=0, data=[])]),
 midi.Track(\
  [midi.PortEvent(tick=0, data=[0]),
   midi.TrackNameEvent(tick=0, text='Fuga 2', data=[70, 117, 103, 97, 32, 50]),
   midi.ProgramChangeEvent(tick=0, channel=3, data=[0]),
   midi.ControlChangeEvent(tick=0, channel=3, data=[7, 110]),
   midi.ControlChangeEvent(tick=0, channel=3, data=[10, 64]),
   midi.ControlChangeEvent(tick=67200, channel=3, data=[91, 127]),
   midi.ControlChangeEvent(tick=0, channel=3, data=[93, 0]),
   midi.ControlChangeEvent(tick=240, channel=3, data=[7, 127]),
   midi.NoteOnEvent(tick=0, channel=3, data=[60, 53]),
   midi.NoteOnEvent(tick=240, channel=3, data=[60, 0]),
   midi.NoteOnEvent(tick=0, channel=3, data=[62, 54]),
   midi.NoteOnEvent(tick=240, channel=3, data=[62, 0]),
   midi.NoteOnEvent(tick=0, channel=3, data=[64, 56]),
   midi.NoteOnEvent(tick=240, channel=3, data=[64, 0]),
   midi.NoteOnEvent(tick=0, channel=3, data=[65, 60]),
   midi.NoteOnEvent(tick=360, channel=3, data=[65, 0]),
   midi.NoteOnEvent(tick=0, channel=3, data=[67, 58]),
   midi.NoteOnEvent(tick=60, channel=3, data=[67, 0]),
   midi.NoteOnEvent(tick=0, channel=3, data=[65, 58]),
   midi.NoteOnEvent(tick=60, channel=3, data=[65, 0]),
   midi.NoteOnEvent(tick=0, channel=3, data=[64, 60]),
   midi.NoteOnEvent(tick=220, channel=3, data=[64, 0]),
   midi.NoteOnEvent(tick=20, channel=3, data=[69, 60]),
   midi.NoteOnEvent(tick=240, channel=3, data=[69, 0]),
   midi.NoteOnEvent(tick=0, channel=3, data=[62, 56]),
   midi.NoteOnEvent(tick=220, channel=3, data=[62, 0]),
   midi.NoteOnEvent(tick=20, channel=3, data=[67, 60]),
   midi.NoteOnEvent(tick=360, channel=3, data=[67, 0]),
   midi.NoteOnEvent(tick=0, channel=3, data=[69, 59]),
   midi.NoteOnEvent(tick=120, channel=3, data=[69, 0]),
   midi.NoteOnEvent(tick=0, channel=3, data=[67, 59]),
   midi.NoteOnEvent(tick=120, channel=3, data=[67, 0]),
   midi.NoteOnEvent(tick=0, channel=3, data=[65, 59]),
   midi.NoteOnEvent(tick=120, channel=3, data=[65, 0]),
   midi.NoteOnEvent(tick=0, channel=3, data=[64, 58]),
   midi.NoteOnEvent(tick=120, channel=3, data=[64, 0]),
   midi.NoteOnEvent(tick=0, channel=3, data=[65, 58]),
   midi.NoteOnEvent(tick=120, channel=3, data=[65, 0]),
   midi.NoteOnEvent(tick=0, channel=3, data=[64, 58]),
   midi.NoteOnEvent(tick=120, channel=3, data=[64, 0]),
   midi.ControlChangeEvent(tick=0, channel=3, data=[7, 110]),
   midi.NoteOnEvent(tick=0, channel=3, data=[62, 57]),
   midi.NoteOnEvent(tick=120, channel=3, data=[62, 0]),
   midi.NoteOnEvent(tick=0, channel=3, data=[60, 57]),
   midi.NoteOnEvent(tick=120, channel=3, data=[60, 0]),
   midi.NoteOnEvent(tick=0, channel=3, data=[62, 56]),
   midi.NoteOnEvent(tick=120, channel=3, data=[62, 0]),
   midi.NoteOnEvent(tick=0, channel=3, data=[60, 56]),
   midi.NoteOnEvent(tick=120, channel=3, data=[60, 0]),
   midi.NoteOnEvent(tick=0, channel=3, data=[59, 56]),
   midi.NoteOnEvent(tick=120, channel=3, data=[59, 0]),
   midi.NoteOnEvent(tick=0, channel=3, data=[57, 56]),
   midi.NoteOnEvent(tick=240, channel=3, data=[57, 0]),
   midi.NoteOnEvent(tick=0, channel=3, data=[66, 56]),
   midi.NoteOnEvent(tick=240, channel=3, data=[66, 0]),
   midi.NoteOnEvent(tick=0, channel=3, data=[67, 60]),
   midi.NoteOnEvent(tick=720, channel=3, data=[67, 0]),
   midi.NoteOnEvent(tick=0, channel=3, data=[66, 57]),
   midi.NoteOnEvent(tick=120, channel=3, data=[66, 0]),
   midi.NoteOnEvent(tick=0, channel=3, data=[64, 57]),
   midi.NoteOnEvent(tick=120, channel=3, data=[64, 0]),
   midi.NoteOnEvent(tick=0, channel=3, data=[66, 57]),
   midi.NoteOnEvent(tick=220, channel=3, data=[66, 0]),
   midi.NoteOnEvent(tick=20, channel=3, data=[62, 57]),
   midi.NoteOnEvent(tick=240, channel=3, data=[62, 0]),
   midi.NoteOnEvent(tick=0, channel=3, data=[67, 59]),
   midi.NoteOnEvent(tick=240, channel=3, data=[67, 0]),
   midi.NoteOnEvent(tick=0, channel=3, data=[65, 58]),
   midi.NoteOnEvent(tick=240, channel=3, data=[65, 0]),
   midi.NoteOnEvent(tick=0, channel=3, data=[64, 57]),
   midi.NoteOnEvent(tick=240, channel=3, data=[64, 0]),
   midi.NoteOnEvent(tick=0, channel=3, data=[62, 56]),
   midi.NoteOnEvent(tick=240, channel=3, data=[62, 0]),
   midi.NoteOnEvent(tick=0, channel=3, data=[60, 55]),
   midi.NoteOnEvent(tick=240, channel=3, data=[60, 0]),
   midi.NoteOnEvent(tick=480, channel=3, data=[67, 60]),
   midi.NoteOnEvent(tick=480, channel=3, data=[67, 0]),
   midi.NoteOnEvent(tick=0, channel=3, data=[65, 58]),
   midi.NoteOnEvent(tick=120, channel=3, data=[65, 0]),
   midi.NoteOnEvent(tick=0, channel=3, data=[64, 58]),
   midi.NoteOnEvent(tick=120, channel=3, data=[64, 0]),
   midi.NoteOnEvent(tick=0, channel=3, data=[65, 58]),
   midi.NoteOnEvent(tick=600, channel=3, data=[65, 0]),
   midi.NoteOnEvent(tick=0, channel=3, data=[65, 57]),
   midi.NoteOnEvent(tick=120, channel=3, data=[65, 0]),
   midi.NoteOnEvent(tick=0, channel=3, data=[64, 57]),
   midi.NoteOnEvent(tick=240, channel=3, data=[64, 0]),
   midi.NoteOnEvent(tick=0, channel=3, data=[62, 57]),
   midi.NoteOnEvent(tick=480, channel=3, data=[62, 0]),
   midi.NoteOnEvent(tick=0, channel=3, data=[60, 56]),
   midi.NoteOnEvent(tick=240, channel=3, data=[60, 0]),
   midi.NoteOnEvent(tick=0, channel=3, data=[65, 60]),
   midi.NoteOnEvent(tick=240, channel=3, data=[65, 0]),
   midi.NoteOnEvent(tick=120, channel=3, data=[67, 57]),
   midi.NoteOnEvent(tick=120, channel=3, data=[67, 0]),
   midi.NoteOnEvent(tick=0, channel=3, data=[65, 57]),
   midi.NoteOnEvent(tick=120, channel=3, data=[65, 0]),
   midi.NoteOnEvent(tick=0, channel=3, data=[64, 57]),
   midi.NoteOnEvent(tick=120, channel=3, data=[64, 0]),
   midi.NoteOnEvent(tick=0, channel=3, data=[65, 57]),
   midi.NoteOnEvent(tick=220, channel=3, data=[65, 0]),
   midi.NoteOnEvent(tick=20, channel=3, data=[62, 56]),
   midi.NoteOnEvent(tick=240, channel=3, data=[62, 0]),
   midi.NoteOnEvent(tick=0, channel=3, data=[67, 62]),
   midi.NoteOnEvent(tick=960, channel=3, data=[67, 0]),
   midi.ControlChangeEvent(tick=3600, channel=3, data=[7, 127]),
   midi.NoteOnEvent(tick=0, channel=3, data=[67, 51]),
   midi.NoteOnEvent(tick=240, channel=3, data=[67, 0]),
   midi.NoteOnEvent(tick=0, channel=3, data=[69, 53]),
   midi.NoteOnEvent(tick=240, channel=3, data=[69, 0]),
   midi.NoteOnEvent(tick=0, channel=3, data=[71, 56]),
   midi.NoteOnEvent(tick=240, channel=3, data=[71, 0]),
   midi.NoteOnEvent(tick=0, channel=3, data=[72, 60]),
   midi.NoteOnEvent(tick=360, channel=3, data=[72, 0]),
   midi.NoteOnEvent(tick=0, channel=3, data=[74, 57]),
   midi.NoteOnEvent(tick=60, channel=3, data=[74, 0]),
   midi.NoteOnEvent(tick=0, channel=3, data=[72, 57]),
   midi.NoteOnEvent(tick=60, channel=3, data=[72, 0]),
   midi.NoteOnEvent(tick=0, channel=3, data=[71, 57]),
   midi.NoteOnEvent(tick=220, channel=3, data=[71, 0]),
   midi.NoteOnEvent(tick=20, channel=3, data=[76, 60]),
   midi.NoteOnEvent(tick=240, channel=3, data=[76, 0]),
   midi.NoteOnEvent(tick=0, channel=3, data=[69, 56]),
   midi.NoteOnEvent(tick=220, channel=3, data=[69, 0]),
   midi.NoteOnEvent(tick=20, channel=3, data=[74, 60]),
   midi.NoteOnEvent(tick=360, channel=3, data=[74, 0]),
   midi.NoteOnEvent(tick=0, channel=3, data=[76, 57]),
   midi.NoteOnEvent(tick=120, channel=3, data=[76, 0]),
   midi.NoteOnEvent(tick=0, channel=3, data=[74, 56]),
   midi.NoteOnEvent(tick=120, channel=3, data=[74, 0]),
   midi.NoteOnEvent(tick=0, channel=3, data=[72, 55]),
   midi.NoteOnEvent(tick=120, channel=3, data=[72, 0]),
   midi.NoteOnEvent(tick=0, channel=3, data=[71, 54]),
   midi.NoteOnEvent(tick=240, channel=3, data=[71, 0]),
   midi.ControlChangeEvent(tick=480, channel=3, data=[7, 110]),
   midi.NoteOnEvent(tick=0, channel=3, data=[62, 51]),
   midi.NoteOnEvent(tick=240, channel=3, data=[62, 0]),
   midi.NoteOnEvent(tick=0, channel=3, data=[64, 52]),
   midi.NoteOnEvent(tick=240, channel=3, data=[64, 0]),
   midi.NoteOnEvent(tick=0, channel=3, data=[66, 54]),
   midi.NoteOnEvent(tick=240, channel=3, data=[66, 0]),
   midi.NoteOnEvent(tick=0, channel=3, data=[67, 60]),
   midi.NoteOnEvent(tick=360, channel=3, data=[67, 0]),
   midi.NoteOnEvent(tick=0, channel=3, data=[69, 58]),
   midi.NoteOnEvent(tick=60, channel=3, data=[69, 0]),
   midi.NoteOnEvent(tick=0, channel=3, data=[67, 58]),
   midi.NoteOnEvent(tick=60, channel=3, data=[67, 0]),
   midi.NoteOnEvent(tick=0, channel=3, data=[66, 58]),
   midi.NoteOnEvent(tick=220, channel=3, data=[66, 0]),
   midi.NoteOnEvent(tick=20, channel=3, data=[71, 60]),
   midi.NoteOnEvent(tick=240, channel=3, data=[71, 0]),
   midi.NoteOnEvent(tick=0, channel=3, data=[64, 57]),
   midi.NoteOnEvent(tick=220, channel=3, data=[64, 0]),
   midi.NoteOnEvent(tick=20, channel=3, data=[69, 60]),
   midi.NoteOnEvent(tick=360, channel=3, data=[69, 0]),
   midi.NoteOnEvent(tick=0, channel=3, data=[71, 58]),
   midi.NoteOnEvent(tick=120, channel=3, data=[71, 0]),
   midi.NoteOnEvent(tick=0, channel=3, data=[69, 58]),
   midi.NoteOnEvent(tick=120, channel=3, data=[69, 0]),
   midi.NoteOnEvent(tick=0, channel=3, data=[67, 58]),
   midi.NoteOnEvent(tick=120, channel=3, data=[67, 0]),
   midi.NoteOnEvent(tick=0, channel=3, data=[66, 58]),
   midi.NoteOnEvent(tick=240, channel=3, data=[66, 0]),
   midi.NoteOnEvent(tick=0, channel=3, data=[65, 57]),
   midi.NoteOnEvent(tick=240, channel=3, data=[65, 0]),
   midi.NoteOnEvent(tick=0, channel=3, data=[64, 55]),
   midi.NoteOnEvent(tick=240, channel=3, data=[64, 0]),
   midi.NoteOnEvent(tick=0, channel=3, data=[62, 54]),
   midi.NoteOnEvent(tick=360, channel=3, data=[62, 0]),
   midi.NoteOnEvent(tick=0, channel=3, data=[64, 54]),
   midi.NoteOnEvent(tick=120, channel=3, data=[64, 0]),
   midi.NoteOnEvent(tick=0, channel=3, data=[66, 55]),
   midi.NoteOnEvent(tick=120, channel=3, data=[66, 0]),
   midi.NoteOnEvent(tick=0, channel=3, data=[68, 55]),
   midi.NoteOnEvent(tick=120, channel=3, data=[68, 0]),
   midi.NoteOnEvent(tick=0, channel=3, data=[69, 57]),
   midi.NoteOnEvent(tick=120, channel=3, data=[69, 0]),
   midi.NoteOnEvent(tick=0, channel=3, data=[68, 56]),
   midi.NoteOnEvent(tick=120, channel=3, data=[68, 0]),
   midi.NoteOnEvent(tick=0, channel=3, data=[69, 56]),
   midi.NoteOnEvent(tick=120, channel=3, data=[69, 0]),
   midi.NoteOnEvent(tick=0, channel=3, data=[71, 56]),
   midi.NoteOnEvent(tick=120, channel=3, data=[71, 0]),
   midi.NoteOnEvent(tick=0, channel=3, data=[68, 58]),
   midi.NoteOnEvent(tick=120, channel=3, data=[68, 0]),
   midi.NoteOnEvent(tick=0, channel=3, data=[66, 55]),
   midi.NoteOnEvent(tick=120, channel=3, data=[66, 0]),
   midi.NoteOnEvent(tick=0, channel=3, data=[68, 55]),
   midi.NoteOnEvent(tick=120, channel=3, data=[68, 0]),
   midi.NoteOnEvent(tick=0, channel=3, data=[69, 55]),
   midi.NoteOnEvent(tick=120, channel=3, data=[69, 0]),
   midi.NoteOnEvent(tick=0, channel=3, data=[71, 59]),
   midi.NoteOnEvent(tick=240, channel=3, data=[71, 0]),
   midi.ControlChangeEvent(tick=960, channel=3, data=[7, 127]),
   midi.NoteOnEvent(tick=0, channel=3, data=[60, 53]),
   midi.NoteOnEvent(tick=240, channel=3, data=[60, 0]),
   midi.NoteOnEvent(tick=0, channel=3, data=[62, 54]),
   midi.NoteOnEvent(tick=240, channel=3, data=[62, 0]),
   midi.NoteOnEvent(tick=0, channel=3, data=[64, 55]),
   midi.NoteOnEvent(tick=240, channel=3, data=[64, 0]),
   midi.NoteOnEvent(tick=0, channel=3, data=[65, 60]),
   midi.NoteOnEvent(tick=360, channel=3, data=[65, 0]),
   midi.NoteOnEvent(tick=0, channel=3, data=[67, 58]),
   midi.NoteOnEvent(tick=60, channel=3, data=[67, 0]),
   midi.NoteOnEvent(tick=0, channel=3, data=[65, 58]),
   midi.NoteOnEvent(tick=60, channel=3, data=[65, 0]),
   midi.NoteOnEvent(tick=0, channel=3, data=[64, 58]),
   midi.NoteOnEvent(tick=220, channel=3, data=[64, 0]),
   midi.NoteOnEvent(tick=20, channel=3, data=[69, 60]),
   midi.NoteOnEvent(tick=240, channel=3, data=[69, 0]),
   midi.NoteOnEvent(tick=0, channel=3, data=[62, 56]),
   midi.NoteOnEvent(tick=220, channel=3, data=[62, 0]),
   midi.NoteOnEvent(tick=20, channel=3, data=[67, 60]),
   midi.NoteOnEvent(tick=360, channel=3, data=[67, 0]),
   midi.NoteOnEvent(tick=0, channel=3, data=[69, 57]),
   midi.NoteOnEvent(tick=120, channel=3, data=[69, 0]),
   midi.NoteOnEvent(tick=0, channel=3, data=[67, 57]),
   midi.NoteOnEvent(tick=120, channel=3, data=[67, 0]),
   midi.NoteOnEvent(tick=0, channel=3, data=[65, 57]),
   midi.NoteOnEvent(tick=120, channel=3, data=[65, 0]),
   midi.NoteOnEvent(tick=0, channel=3, data=[64, 57]),
   midi.NoteOnEvent(tick=220, channel=3, data=[64, 0]),
   midi.ControlChangeEvent(tick=20, channel=3, data=[7, 110]),
   midi.NoteOnEvent(tick=0, channel=3, data=[64, 56]),
   midi.NoteOnEvent(tick=240, channel=3, data=[64, 0]),
   midi.NoteOnEvent(tick=0, channel=3, data=[66, 56]),
   midi.NoteOnEvent(tick=240, channel=3, data=[66, 0]),
   midi.NoteOnEvent(tick=0, channel=3, data=[67, 60]),
   midi.NoteOnEvent(tick=420, channel=3, data=[67, 0]),
   midi.NoteOnEvent(tick=60, channel=3, data=[66, 58]),
   midi.NoteOnEvent(tick=240, channel=3, data=[66, 0]),
   midi.NoteOnEvent(tick=0, channel=3, data=[68, 58]),
   midi.NoteOnEvent(tick=240, channel=3, data=[68, 0]),
   midi.NoteOnEvent(tick=0, channel=3, data=[69, 61]),
   midi.NoteOnEvent(tick=480, channel=3, data=[69, 0]),
   midi.NoteOnEvent(tick=0, channel=3, data=[67, 57]),
   midi.NoteOnEvent(tick=240, channel=3, data=[67, 0]),
   midi.NoteOnEvent(tick=0, channel=3, data=[69, 57]),
   midi.NoteOnEvent(tick=240, channel=3, data=[69, 0]),
   midi.NoteOnEvent(tick=0, channel=3, data=[71, 57]),
   midi.NoteOnEvent(tick=240, channel=3, data=[71, 0]),
   midi.NoteOnEvent(tick=0, channel=3, data=[72, 60]),
   midi.NoteOnEvent(tick=360, channel=3, data=[72, 0]),
   midi.NoteOnEvent(tick=0, channel=3, data=[74, 58]),
   midi.NoteOnEvent(tick=60, channel=3, data=[74, 0]),
   midi.NoteOnEvent(tick=0, channel=3, data=[72, 58]),
   midi.NoteOnEvent(tick=60, channel=3, data=[72, 0]),
   midi.NoteOnEvent(tick=0, channel=3, data=[71, 58]),
   midi.NoteOnEvent(tick=220, channel=3, data=[71, 0]),
   midi.NoteOnEvent(tick=20, channel=3, data=[76, 60]),
   midi.NoteOnEvent(tick=240, channel=3, data=[76, 0]),
   midi.NoteOnEvent(tick=0, channel=3, data=[69, 58]),
   midi.NoteOnEvent(tick=220, channel=3, data=[69, 0]),
   midi.NoteOnEvent(tick=20, channel=3, data=[74, 60]),
   midi.NoteOnEvent(tick=360, channel=3, data=[74, 0]),
   midi.NoteOnEvent(tick=0, channel=3, data=[76, 57]),
   midi.NoteOnEvent(tick=120, channel=3, data=[76, 0]),
   midi.NoteOnEvent(tick=0, channel=3, data=[74, 56]),
   midi.NoteOnEvent(tick=120, channel=3, data=[74, 0]),
   midi.NoteOnEvent(tick=0, channel=3, data=[72, 55]),
   midi.NoteOnEvent(tick=120, channel=3, data=[72, 0]),
   midi.NoteOnEvent(tick=0, channel=3, data=[71, 54]),
   midi.NoteOnEvent(tick=220, channel=3, data=[71, 0]),
   midi.NoteOnEvent(tick=20, channel=3, data=[79, 65]),
   midi.NoteOnEvent(tick=240, channel=3, data=[79, 0]),
   midi.NoteOnEvent(tick=0, channel=3, data=[73, 58]),
   midi.NoteOnEvent(tick=240, channel=3, data=[73, 0]),
   midi.NoteOnEvent(tick=0, channel=3, data=[74, 58]),
   midi.NoteOnEvent(tick=240, channel=3, data=[74, 0]),
   midi.NoteOnEvent(tick=0, channel=3, data=[76, 60]),
   midi.NoteOnEvent(tick=220, channel=3, data=[76, 0]),
   midi.NoteOnEvent(tick=20, channel=3, data=[73, 56]),
   midi.NoteOnEvent(tick=240, channel=3, data=[73, 0]),
   midi.NoteOnEvent(tick=0, channel=3, data=[74, 56]),
   midi.NoteOnEvent(tick=240, channel=3, data=[74, 0]),
   midi.NoteOnEvent(tick=0, channel=3, data=[76, 56]),
   midi.NoteOnEvent(tick=240, channel=3, data=[76, 0]),
   midi.NoteOnEvent(tick=0, channel=3, data=[69, 58]),
   midi.NoteOnEvent(tick=240, channel=3, data=[69, 0]),
   midi.NoteOnEvent(tick=480, channel=3, data=[64, 52]),
   midi.NoteOnEvent(tick=240, channel=3, data=[64, 0]),
   midi.NoteOnEvent(tick=0, channel=3, data=[66, 53]),
   midi.NoteOnEvent(tick=240, channel=3, data=[66, 0]),
   midi.NoteOnEvent(tick=0, channel=3, data=[67, 55]),
   midi.NoteOnEvent(tick=240, channel=3, data=[67, 0]),
   midi.NoteOnEvent(tick=0, channel=3, data=[69, 60]),
   midi.NoteOnEvent(tick=360, channel=3, data=[69, 0]),
   midi.NoteOnEvent(tick=0, channel=3, data=[71, 58]),
   midi.NoteOnEvent(tick=60, channel=3, data=[71, 0]),
   midi.NoteOnEvent(tick=0, channel=3, data=[69, 58]),
   midi.NoteOnEvent(tick=60, channel=3, data=[69, 0]),
   midi.NoteOnEvent(tick=0, channel=3, data=[67, 58]),
   midi.NoteOnEvent(tick=220, channel=3, data=[67, 0]),
   midi.NoteOnEvent(tick=20, channel=3, data=[72, 60]),
   midi.NoteOnEvent(tick=240, channel=3, data=[72, 0]),
   midi.NoteOnEvent(tick=0, channel=3, data=[66, 55]),
   midi.NoteOnEvent(tick=118, channel=3, data=[66, 0]),
   midi.NoteOnEvent(tick=122, channel=3, data=[71, 60]),
   midi.NoteOnEvent(tick=360, channel=3, data=[71, 0]),
   midi.NoteOnEvent(tick=0, channel=3, data=[72, 57]),
   midi.NoteOnEvent(tick=120, channel=3, data=[72, 0]),
   midi.NoteOnEvent(tick=0, channel=3, data=[71, 57]),
   midi.NoteOnEvent(tick=120, channel=3, data=[71, 0]),
   midi.NoteOnEvent(tick=0, channel=3, data=[69, 56]),
   midi.NoteOnEvent(tick=120, channel=3, data=[69, 0]),
   midi.NoteOnEvent(tick=0, channel=3, data=[67, 56]),
   midi.NoteOnEvent(tick=120, channel=3, data=[67, 0]),
   midi.NoteOnEvent(tick=0, channel=3, data=[66, 55]),
   midi.NoteOnEvent(tick=120, channel=3, data=[66, 0]),
   midi.NoteOnEvent(tick=0, channel=3, data=[64, 54]),
   midi.NoteOnEvent(tick=120, channel=3, data=[64, 0]),
   midi.NoteOnEvent(tick=0, channel=3, data=[62, 54]),
   midi.NoteOnEvent(tick=120, channel=3, data=[62, 0]),
   midi.NoteOnEvent(tick=0, channel=3, data=[64, 57]),
   midi.NoteOnEvent(tick=480, channel=3, data=[64, 0]),
   midi.NoteOnEvent(tick=0, channel=3, data=[62, 58]),
   midi.NoteOnEvent(tick=600, channel=3, data=[62, 0]),
   midi.NoteOnEvent(tick=0, channel=3, data=[69, 57]),
   midi.NoteOnEvent(tick=120, channel=3, data=[69, 0]),
   midi.NoteOnEvent(tick=0, channel=3, data=[67, 57]),
   midi.NoteOnEvent(tick=120, channel=3, data=[67, 0]),
   midi.NoteOnEvent(tick=0, channel=3, data=[65, 56]),
   midi.NoteOnEvent(tick=120, channel=3, data=[65, 0]),
   midi.NoteOnEvent(tick=0, channel=3, data=[64, 56]),
   midi.NoteOnEvent(tick=120, channel=3, data=[64, 0]),
   midi.NoteOnEvent(tick=0, channel=3, data=[67, 60]),
   midi.NoteOnEvent(tick=120, channel=3, data=[67, 0]),
   midi.NoteOnEvent(tick=0, channel=3, data=[65, 56]),
   midi.NoteOnEvent(tick=120, channel=3, data=[65, 0]),
   midi.NoteOnEvent(tick=0, channel=3, data=[69, 56]),
   midi.NoteOnEvent(tick=120, channel=3, data=[69, 0]),
   midi.NoteOnEvent(tick=0, channel=3, data=[67, 58]),
   midi.NoteOnEvent(tick=600, channel=3, data=[67, 0]),
   midi.NoteOnEvent(tick=0, channel=3, data=[69, 56]),
   midi.NoteOnEvent(tick=120, channel=3, data=[69, 0]),
   midi.NoteOnEvent(tick=0, channel=3, data=[70, 56]),
   midi.NoteOnEvent(tick=240, channel=3, data=[70, 0]),
   midi.NoteOnEvent(tick=0, channel=3, data=[72, 54]),
   midi.NoteOnEvent(tick=480, channel=3, data=[72, 0]),
   midi.NoteOnEvent(tick=0, channel=3, data=[74, 60]),
   midi.NoteOnEvent(tick=220, channel=3, data=[74, 0]),
   midi.NoteOnEvent(tick=20, channel=3, data=[67, 57]),
   midi.NoteOnEvent(tick=240, channel=3, data=[67, 0]),
   midi.NoteOnEvent(tick=0, channel=3, data=[67, 60]),
   midi.NoteOnEvent(tick=720, channel=3, data=[67, 0]),
   midi.NoteOnEvent(tick=0, channel=3, data=[65, 57]),
   midi.NoteOnEvent(tick=480, channel=3, data=[65, 0]),
   midi.NoteOnEvent(tick=0, channel=3, data=[64, 57]),
   midi.NoteOnEvent(tick=240, channel=3, data=[64, 0]),
   midi.NoteOnEvent(tick=0, channel=3, data=[62, 57]),
   midi.NoteOnEvent(tick=480, channel=3, data=[62, 0]),
   midi.NoteOnEvent(tick=0, channel=3, data=[64, 56]),
   midi.NoteOnEvent(tick=220, channel=3, data=[64, 0]),
   midi.NoteOnEvent(tick=20, channel=3, data=[69, 68]),
   midi.NoteOnEvent(tick=480, channel=3, data=[69, 0]),
   midi.NoteOnEvent(tick=0, channel=3, data=[67, 56]),
   midi.NoteOnEvent(tick=480, channel=3, data=[67, 0]),
   midi.NoteOnEvent(tick=0, channel=3, data=[65, 56]),
   midi.NoteOnEvent(tick=240, channel=3, data=[65, 0]),
   midi.NoteOnEvent(tick=0, channel=3, data=[67, 57]),
   midi.NoteOnEvent(tick=240, channel=3, data=[67, 0]),
   midi.NoteOnEvent(tick=0, channel=3, data=[69, 57]),
   midi.NoteOnEvent(tick=240, channel=3, data=[69, 0]),
   midi.NoteOnEvent(tick=0, channel=3, data=[70, 60]),
   midi.NoteOnEvent(tick=360, channel=3, data=[70, 0]),
   midi.NoteOnEvent(tick=0, channel=3, data=[72, 57]),
   midi.NoteOnEvent(tick=60, channel=3, data=[72, 0]),
   midi.NoteOnEvent(tick=0, channel=3, data=[70, 57]),
   midi.NoteOnEvent(tick=60, channel=3, data=[70, 0]),
   midi.NoteOnEvent(tick=0, channel=3, data=[69, 57]),
   midi.NoteOnEvent(tick=220, channel=3, data=[69, 0]),
   midi.NoteOnEvent(tick=20, channel=3, data=[74, 60]),
   midi.NoteOnEvent(tick=240, channel=3, data=[74, 0]),
   midi.NoteOnEvent(tick=0, channel=3, data=[67, 55]),
   midi.NoteOnEvent(tick=220, channel=3, data=[67, 0]),
   midi.NoteOnEvent(tick=20, channel=3, data=[72, 60]),
   midi.NoteOnEvent(tick=360, channel=3, data=[72, 0]),
   midi.NoteOnEvent(tick=0, channel=3, data=[74, 62]),
   midi.NoteOnEvent(tick=120, channel=3, data=[74, 0]),
   midi.NoteOnEvent(tick=0, channel=3, data=[72, 62]),
   midi.NoteOnEvent(tick=120, channel=3, data=[72, 0]),
   midi.NoteOnEvent(tick=0, channel=3, data=[70, 62]),
   midi.NoteOnEvent(tick=120, channel=3, data=[70, 0]),
   midi.NoteOnEvent(tick=0, channel=3, data=[69, 61]),
   midi.NoteOnEvent(tick=120, channel=3, data=[69, 0]),
   midi.NoteOnEvent(tick=0, channel=3, data=[70, 61]),
   midi.NoteOnEvent(tick=120, channel=3, data=[70, 0]),
   midi.NoteOnEvent(tick=0, channel=3, data=[69, 61]),
   midi.NoteOnEvent(tick=120, channel=3, data=[69, 0]),
   midi.NoteOnEvent(tick=0, channel=3, data=[67, 60]),
   midi.NoteOnEvent(tick=120, channel=3, data=[67, 0]),
   midi.NoteOnEvent(tick=0, channel=3, data=[65, 60]),
   midi.NoteOnEvent(tick=120, channel=3, data=[65, 0]),
   midi.NoteOnEvent(tick=0, channel=3, data=[67, 60]),
   midi.NoteOnEvent(tick=120, channel=3, data=[67, 0]),
   midi.NoteOnEvent(tick=0, channel=3, data=[65, 59]),
   midi.NoteOnEvent(tick=120, channel=3, data=[65, 0]),
   midi.NoteOnEvent(tick=0, channel=3, data=[64, 59]),
   midi.NoteOnEvent(tick=120, channel=3, data=[64, 0]),
   midi.NoteOnEvent(tick=0, channel=3, data=[62, 59]),
   midi.NoteOnEvent(tick=840, channel=3, data=[62, 0]),
   midi.NoteOnEvent(tick=0, channel=3, data=[67, 57]),
   midi.NoteOnEvent(tick=120, channel=3, data=[67, 0]),
   midi.NoteOnEvent(tick=0, channel=3, data=[69, 60]),
   midi.NoteOnEvent(tick=480, channel=3, data=[69, 0]),
   midi.NoteOnEvent(tick=120, channel=3, data=[77, 57]),
   midi.NoteOnEvent(tick=120, channel=3, data=[77, 0]),
   midi.NoteOnEvent(tick=0, channel=3, data=[74, 57]),
   midi.NoteOnEvent(tick=240, channel=3, data=[74, 0]),
   midi.NoteOnEvent(tick=0, channel=3, data=[76, 48]),
   midi.NoteOnEvent(tick=960, channel=3, data=[76, 0]),
   midi.EndOfTrackEvent(tick=0, data=[])]),
 midi.Track(\
  [midi.PortEvent(tick=0, data=[0]),
   midi.TrackNameEvent(tick=0, text='Fuga 3', data=[70, 117, 103, 97, 32, 51]),
   midi.ProgramChangeEvent(tick=0, channel=4, data=[0]),
   midi.ControlChangeEvent(tick=0, channel=4, data=[7, 100]),
   midi.ControlChangeEvent(tick=0, channel=4, data=[10, 64]),
   midi.ControlChangeEvent(tick=67200, channel=4, data=[91, 127]),
   midi.ControlChangeEvent(tick=0, channel=4, data=[93, 0]),
   midi.ControlChangeEvent(tick=6000, channel=4, data=[7, 120]),
   midi.NoteOnEvent(tick=0, channel=4, data=[55, 50]),
   midi.NoteOnEvent(tick=240, channel=4, data=[55, 0]),
   midi.NoteOnEvent(tick=0, channel=4, data=[57, 52]),
   midi.NoteOnEvent(tick=240, channel=4, data=[57, 0]),
   midi.NoteOnEvent(tick=0, channel=4, data=[59, 55]),
   midi.NoteOnEvent(tick=240, channel=4, data=[59, 0]),
   midi.NoteOnEvent(tick=0, channel=4, data=[60, 60]),
   midi.NoteOnEvent(tick=360, channel=4, data=[60, 0]),
   midi.NoteOnEvent(tick=0, channel=4, data=[62, 57]),
   midi.NoteOnEvent(tick=60, channel=4, data=[62, 0]),
   midi.NoteOnEvent(tick=0, channel=4, data=[60, 57]),
   midi.NoteOnEvent(tick=60, channel=4, data=[60, 0]),
   midi.NoteOnEvent(tick=0, channel=4, data=[59, 57]),
   midi.NoteOnEvent(tick=220, channel=4, data=[59, 0]),
   midi.NoteOnEvent(tick=20, channel=4, data=[64, 60]),
   midi.NoteOnEvent(tick=240, channel=4, data=[64, 0]),
   midi.NoteOnEvent(tick=0, channel=4, data=[57, 56]),
   midi.NoteOnEvent(tick=220, channel=4, data=[57, 0]),
   midi.NoteOnEvent(tick=20, channel=4, data=[62, 60]),
   midi.NoteOnEvent(tick=360, channel=4, data=[62, 0]),
   midi.NoteOnEvent(tick=0, channel=4, data=[64, 58]),
   midi.NoteOnEvent(tick=120, channel=4, data=[64, 0]),
   midi.NoteOnEvent(tick=0, channel=4, data=[62, 57]),
   midi.NoteOnEvent(tick=120, channel=4, data=[62, 0]),
   midi.NoteOnEvent(tick=0, channel=4, data=[60, 56]),
   midi.NoteOnEvent(tick=120, channel=4, data=[60, 0]),
   midi.NoteOnEvent(tick=0, channel=4, data=[59, 55]),
   midi.NoteOnEvent(tick=220, channel=4, data=[59, 0]),
   midi.ControlChangeEvent(tick=20, channel=4, data=[7, 100]),
   midi.NoteOnEvent(tick=0, channel=4, data=[60, 60]),
   midi.NoteOnEvent(tick=480, channel=4, data=[60, 0]),
   midi.NoteOnEvent(tick=0, channel=4, data=[58, 58]),
   midi.NoteOnEvent(tick=240, channel=4, data=[58, 0]),
   midi.NoteOnEvent(tick=0, channel=4, data=[57, 56]),
   midi.NoteOnEvent(tick=220, channel=4, data=[57, 0]),
   midi.NoteOnEvent(tick=20, channel=4, data=[62, 60]),
   midi.NoteOnEvent(tick=240, channel=4, data=[62, 0]),
   midi.NoteOnEvent(tick=0, channel=4, data=[55, 56]),
   midi.NoteOnEvent(tick=220, channel=4, data=[55, 0]),
   midi.NoteOnEvent(tick=20, channel=4, data=[60, 60]),
   midi.NoteOnEvent(tick=240, channel=4, data=[60, 0]),
   midi.NoteOnEvent(tick=120, channel=4, data=[57, 55]),
   midi.NoteOnEvent(tick=120, channel=4, data=[57, 0]),
   midi.NoteOnEvent(tick=0, channel=4, data=[59, 56]),
   midi.NoteOnEvent(tick=120, channel=4, data=[59, 0]),
   midi.NoteOnEvent(tick=0, channel=4, data=[60, 58]),
   midi.NoteOnEvent(tick=120, channel=4, data=[60, 0]),
   midi.NoteOnEvent(tick=0, channel=4, data=[62, 59]),
   midi.NoteOnEvent(tick=480, channel=4, data=[62, 0]),
   midi.NoteOnEvent(tick=0, channel=4, data=[55, 60]),
   midi.NoteOnEvent(tick=480, channel=4, data=[55, 0]),
   midi.NoteOnEvent(tick=240, channel=4, data=[55, 53]),
   midi.NoteOnEvent(tick=240, channel=4, data=[55, 0]),
   midi.NoteOnEvent(tick=0, channel=4, data=[57, 54]),
   midi.NoteOnEvent(tick=240, channel=4, data=[57, 0]),
   midi.NoteOnEvent(tick=0, channel=4, data=[59, 55]),
   midi.NoteOnEvent(tick=240, channel=4, data=[59, 0]),
   midi.NoteOnEvent(tick=0, channel=4, data=[60, 60]),
   midi.NoteOnEvent(tick=360, channel=4, data=[60, 0]),
   midi.NoteOnEvent(tick=0, channel=4, data=[62, 58]),
   midi.NoteOnEvent(tick=60, channel=4, data=[62, 0]),
   midi.NoteOnEvent(tick=0, channel=4, data=[60, 58]),
   midi.NoteOnEvent(tick=60, channel=4, data=[60, 0]),
   midi.NoteOnEvent(tick=0, channel=4, data=[59, 58]),
   midi.NoteOnEvent(tick=220, channel=4, data=[59, 0]),
   midi.NoteOnEvent(tick=20, channel=4, data=[64, 60]),
   midi.NoteOnEvent(tick=240, channel=4, data=[64, 0]),
   midi.NoteOnEvent(tick=0, channel=4, data=[57, 56]),
   midi.NoteOnEvent(tick=220, channel=4, data=[57, 0]),
   midi.NoteOnEvent(tick=20, channel=4, data=[62, 60]),
   midi.NoteOnEvent(tick=360, channel=4, data=[62, 0]),
   midi.NoteOnEvent(tick=0, channel=4, data=[64, 57]),
   midi.NoteOnEvent(tick=120, channel=4, data=[64, 0]),
   midi.NoteOnEvent(tick=0, channel=4, data=[62, 56]),
   midi.NoteOnEvent(tick=120, channel=4, data=[62, 0]),
   midi.NoteOnEvent(tick=0, channel=4, data=[60, 56]),
   midi.NoteOnEvent(tick=120, channel=4, data=[60, 0]),
   midi.NoteOnEvent(tick=0, channel=4, data=[59, 55]),
   midi.NoteOnEvent(tick=240, channel=4, data=[59, 0]),
   midi.NoteOnEvent(tick=0, channel=4, data=[64, 60]),
   midi.NoteOnEvent(tick=720, channel=4, data=[64, 0]),
   midi.NoteOnEvent(tick=0, channel=4, data=[62, 60]),
   midi.NoteOnEvent(tick=480, channel=4, data=[62, 0]),
   midi.NoteOnEvent(tick=120, channel=4, data=[59, 58]),
   midi.NoteOnEvent(tick=120, channel=4, data=[59, 0]),
   midi.NoteOnEvent(tick=0, channel=4, data=[60, 60]),
   midi.NoteOnEvent(tick=120, channel=4, data=[60, 0]),
   midi.NoteOnEvent(tick=0, channel=4, data=[57, 57]),
   midi.NoteOnEvent(tick=90, channel=4, data=[57, 0]),
   midi.NoteOnEvent(tick=30, channel=4, data=[64, 58]),
   midi.NoteOnEvent(tick=120, channel=4, data=[64, 0]),
   midi.NoteOnEvent(tick=0, channel=4, data=[62, 58]),
   midi.NoteOnEvent(tick=120, channel=4, data=[62, 0]),
   midi.NoteOnEvent(tick=0, channel=4, data=[60, 57]),
   midi.NoteOnEvent(tick=120, channel=4, data=[60, 0]),
   midi.NoteOnEvent(tick=0, channel=4, data=[59, 57]),
   midi.NoteOnEvent(tick=120, channel=4, data=[59, 0]),
   midi.NoteOnEvent(tick=0, channel=4, data=[60, 60]),
   midi.NoteOnEvent(tick=90, channel=4, data=[60, 0]),
   midi.NoteOnEvent(tick=30, channel=4, data=[57, 54]),
   midi.NoteOnEvent(tick=120, channel=4, data=[57, 0]),
   midi.NoteOnEvent(tick=0, channel=4, data=[59, 56]),
   midi.NoteOnEvent(tick=120, channel=4, data=[59, 0]),
   midi.NoteOnEvent(tick=0, channel=4, data=[60, 58]),
   midi.NoteOnEvent(tick=120, channel=4, data=[60, 0]),
   midi.NoteOnEvent(tick=0, channel=4, data=[62, 60]),
   midi.NoteOnEvent(tick=120, channel=4, data=[62, 0]),
   midi.NoteOnEvent(tick=0, channel=4, data=[60, 59]),
   midi.NoteOnEvent(tick=120, channel=4, data=[60, 0]),
   midi.NoteOnEvent(tick=0, channel=4, data=[59, 58]),
   midi.NoteOnEvent(tick=120, channel=4, data=[59, 0]),
   midi.NoteOnEvent(tick=0, channel=4, data=[57, 57]),
   midi.NoteOnEvent(tick=120, channel=4, data=[57, 0]),
   midi.NoteOnEvent(tick=0, channel=4, data=[55, 56]),
   midi.NoteOnEvent(tick=480, channel=4, data=[55, 0]),
   midi.ControlChangeEvent(tick=2640, channel=4, data=[7, 120]),
   midi.NoteOnEvent(tick=0, channel=4, data=[52, 52]),
   midi.NoteOnEvent(tick=240, channel=4, data=[52, 0]),
   midi.NoteOnEvent(tick=0, channel=4, data=[54, 54]),
   midi.NoteOnEvent(tick=240, channel=4, data=[54, 0]),
   midi.NoteOnEvent(tick=0, channel=4, data=[56, 56]),
   midi.NoteOnEvent(tick=240, channel=4, data=[56, 0]),
   midi.NoteOnEvent(tick=0, channel=4, data=[57, 60]),
   midi.NoteOnEvent(tick=360, channel=4, data=[57, 0]),
   midi.NoteOnEvent(tick=0, channel=4, data=[59, 57]),
   midi.NoteOnEvent(tick=60, channel=4, data=[59, 0]),
   midi.NoteOnEvent(tick=0, channel=4, data=[57, 57]),
   midi.NoteOnEvent(tick=60, channel=4, data=[57, 0]),
   midi.NoteOnEvent(tick=0, channel=4, data=[56, 57]),
   midi.NoteOnEvent(tick=220, channel=4, data=[56, 0]),
   midi.NoteOnEvent(tick=20, channel=4, data=[60, 60]),
   midi.NoteOnEvent(tick=240, channel=4, data=[60, 0]),
   midi.NoteOnEvent(tick=0, channel=4, data=[54, 56]),
   midi.NoteOnEvent(tick=220, channel=4, data=[54, 0]),
   midi.NoteOnEvent(tick=20, channel=4, data=[59, 60]),
   midi.NoteOnEvent(tick=360, channel=4, data=[59, 0]),
   midi.NoteOnEvent(tick=0, channel=4, data=[60, 60]),
   midi.NoteOnEvent(tick=120, channel=4, data=[60, 0]),
   midi.NoteOnEvent(tick=0, channel=4, data=[59, 59]),
   midi.NoteOnEvent(tick=120, channel=4, data=[59, 0]),
   midi.NoteOnEvent(tick=0, channel=4, data=[57, 57]),
   midi.NoteOnEvent(tick=120, channel=4, data=[57, 0]),
   midi.NoteOnEvent(tick=0, channel=4, data=[56, 56]),
   midi.NoteOnEvent(tick=220, channel=4, data=[56, 0]),
   midi.NoteOnEvent(tick=20, channel=4, data=[57, 59]),
   midi.NoteOnEvent(tick=480, channel=4, data=[57, 0]),
   midi.NoteOnEvent(tick=0, channel=4, data=[56, 57]),
   midi.NoteOnEvent(tick=240, channel=4, data=[56, 0]),
   midi.NoteOnEvent(tick=0, channel=4, data=[57, 60]),
   midi.NoteOnEvent(tick=480, channel=4, data=[57, 0]),
   midi.NoteOnEvent(tick=240, channel=4, data=[55, 52]),
   midi.NoteOnEvent(tick=240, channel=4, data=[55, 0]),
   midi.NoteOnEvent(tick=0, channel=4, data=[57, 54]),
   midi.NoteOnEvent(tick=240, channel=4, data=[57, 0]),
   midi.NoteOnEvent(tick=0, channel=4, data=[59, 56]),
   midi.NoteOnEvent(tick=240, channel=4, data=[59, 0]),
   midi.NoteOnEvent(tick=0, channel=4, data=[60, 60]),
   midi.NoteOnEvent(tick=360, channel=4, data=[60, 0]),
   midi.NoteOnEvent(tick=0, channel=4, data=[62, 57]),
   midi.NoteOnEvent(tick=60, channel=4, data=[62, 0]),
   midi.NoteOnEvent(tick=0, channel=4, data=[60, 57]),
   midi.NoteOnEvent(tick=60, channel=4, data=[60, 0]),
   midi.NoteOnEvent(tick=0, channel=4, data=[59, 57]),
   midi.NoteOnEvent(tick=220, channel=4, data=[59, 0]),
   midi.NoteOnEvent(tick=20, channel=4, data=[64, 60]),
   midi.NoteOnEvent(tick=240, channel=4, data=[64, 0]),
   midi.NoteOnEvent(tick=0, channel=4, data=[57, 55]),
   midi.NoteOnEvent(tick=220, channel=4, data=[57, 0]),
   midi.NoteOnEvent(tick=20, channel=4, data=[62, 60]),
   midi.NoteOnEvent(tick=480, channel=4, data=[62, 0]),
   midi.ControlChangeEvent(tick=0, channel=4, data=[7, 100]),
   midi.NoteOnEvent(tick=0, channel=4, data=[55, 57]),
   midi.NoteOnEvent(tick=240, channel=4, data=[55, 0]),
   midi.NoteOnEvent(tick=0, channel=4, data=[62, 60]),
   midi.NoteOnEvent(tick=480, channel=4, data=[62, 0]),
   midi.NoteOnEvent(tick=0, channel=4, data=[60, 57]),
   midi.NoteOnEvent(tick=220, channel=4, data=[60, 0]),
   midi.NoteOnEvent(tick=20, channel=4, data=[57, 57]),
   midi.NoteOnEvent(tick=240, channel=4, data=[57, 0]),
   midi.NoteOnEvent(tick=0, channel=4, data=[64, 60]),
   midi.NoteOnEvent(tick=480, channel=4, data=[64, 0]),
   midi.NoteOnEvent(tick=0, channel=4, data=[62, 57]),
   midi.NoteOnEvent(tick=240, channel=4, data=[62, 0]),
   midi.NoteOnEvent(tick=960, channel=4, data=[57, 51]),
   midi.NoteOnEvent(tick=240, channel=4, data=[57, 0]),
   midi.NoteOnEvent(tick=0, channel=4, data=[59, 53]),
   midi.NoteOnEvent(tick=240, channel=4, data=[59, 0]),
   midi.NoteOnEvent(tick=0, channel=4, data=[61, 55]),
   midi.NoteOnEvent(tick=240, channel=4, data=[61, 0]),
   midi.NoteOnEvent(tick=0, channel=4, data=[62, 60]),
   midi.NoteOnEvent(tick=360, channel=4, data=[62, 0]),
   midi.NoteOnEvent(tick=0, channel=4, data=[64, 58]),
   midi.NoteOnEvent(tick=60, channel=4, data=[64, 0]),
   midi.NoteOnEvent(tick=0, channel=4, data=[62, 58]),
   midi.NoteOnEvent(tick=60, channel=4, data=[62, 0]),
   midi.NoteOnEvent(tick=0, channel=4, data=[60, 58]),
   midi.NoteOnEvent(tick=220, channel=4, data=[60, 0]),
   midi.NoteOnEvent(tick=20, channel=4, data=[65, 60]),
   midi.NoteOnEvent(tick=240, channel=4, data=[65, 0]),
   midi.NoteOnEvent(tick=0, channel=4, data=[59, 54]),
   midi.NoteOnEvent(tick=220, channel=4, data=[59, 0]),
   midi.NoteOnEvent(tick=20, channel=4, data=[64, 60]),
   midi.NoteOnEvent(tick=360, channel=4, data=[64, 0]),
   midi.NoteOnEvent(tick=0, channel=4, data=[65, 61]),
   midi.NoteOnEvent(tick=120, channel=4, data=[65, 0]),
   midi.NoteOnEvent(tick=0, channel=4, data=[64, 59]),
   midi.NoteOnEvent(tick=120, channel=4, data=[64, 0]),
   midi.NoteOnEvent(tick=0, channel=4, data=[62, 58]),
   midi.NoteOnEvent(tick=120, channel=4, data=[62, 0]),
   midi.NoteOnEvent(tick=0, channel=4, data=[61, 56]),
   midi.NoteOnEvent(tick=240, channel=4, data=[61, 0]),
   midi.ControlChangeEvent(tick=960, channel=4, data=[7, 120]),
   midi.NoteOnEvent(tick=0, channel=4, data=[57, 53]),
   midi.NoteOnEvent(tick=240, channel=4, data=[57, 0]),
   midi.NoteOnEvent(tick=0, channel=4, data=[59, 54]),
   midi.NoteOnEvent(tick=240, channel=4, data=[59, 0]),
   midi.NoteOnEvent(tick=0, channel=4, data=[61, 55]),
   midi.NoteOnEvent(tick=240, channel=4, data=[61, 0]),
   midi.NoteOnEvent(tick=0, channel=4, data=[62, 60]),
   midi.NoteOnEvent(tick=360, channel=4, data=[62, 0]),
   midi.NoteOnEvent(tick=0, channel=4, data=[64, 57]),
   midi.NoteOnEvent(tick=60, channel=4, data=[64, 0]),
   midi.NoteOnEvent(tick=0, channel=4, data=[62, 57]),
   midi.NoteOnEvent(tick=60, channel=4, data=[62, 0]),
   midi.NoteOnEvent(tick=0, channel=4, data=[60, 57]),
   midi.NoteOnEvent(tick=220, channel=4, data=[60, 0]),
   midi.NoteOnEvent(tick=20, channel=4, data=[66, 60]),
   midi.NoteOnEvent(tick=240, channel=4, data=[66, 0]),
   midi.NoteOnEvent(tick=0, channel=4, data=[59, 54]),
   midi.NoteOnEvent(tick=220, channel=4, data=[59, 0]),
   midi.NoteOnEvent(tick=20, channel=4, data=[64, 60]),
   midi.NoteOnEvent(tick=360, channel=4, data=[64, 0]),
   midi.NoteOnEvent(tick=0, channel=4, data=[66, 63]),
   midi.NoteOnEvent(tick=120, channel=4, data=[66, 0]),
   midi.NoteOnEvent(tick=0, channel=4, data=[64, 63]),
   midi.NoteOnEvent(tick=120, channel=4, data=[64, 0]),
   midi.NoteOnEvent(tick=0, channel=4, data=[62, 62]),
   midi.NoteOnEvent(tick=120, channel=4, data=[62, 0]),
   midi.NoteOnEvent(tick=0, channel=4, data=[60, 60]),
   midi.NoteOnEvent(tick=1080, channel=4, data=[60, 0]),
   midi.ControlChangeEvent(tick=0, channel=4, data=[7, 100]),
   midi.NoteOnEvent(tick=0, channel=4, data=[62, 60]),
   midi.NoteOnEvent(tick=120, channel=4, data=[62, 0]),
   midi.NoteOnEvent(tick=0, channel=4, data=[60, 59]),
   midi.NoteOnEvent(tick=120, channel=4, data=[60, 0]),
   midi.NoteOnEvent(tick=0, channel=4, data=[59, 58]),
   midi.NoteOnEvent(tick=120, channel=4, data=[59, 0]),
   midi.NoteOnEvent(tick=0, channel=4, data=[57, 57]),
   midi.NoteOnEvent(tick=120, channel=4, data=[57, 0]),
   midi.NoteOnEvent(tick=0, channel=4, data=[55, 56]),
   midi.NoteOnEvent(tick=120, channel=4, data=[55, 0]),
   midi.NoteOnEvent(tick=0, channel=4, data=[57, 58]),
   midi.NoteOnEvent(tick=90, channel=4, data=[57, 0]),
   midi.NoteOnEvent(tick=30, channel=4, data=[54, 54]),
   midi.NoteOnEvent(tick=120, channel=4, data=[54, 0]),
   midi.NoteOnEvent(tick=0, channel=4, data=[55, 54]),
   midi.NoteOnEvent(tick=220, channel=4, data=[55, 0]),
   midi.ControlChangeEvent(tick=20, channel=4, data=[7, 120]),
   midi.NoteOnEvent(tick=0, channel=4, data=[59, 57]),
   midi.NoteOnEvent(tick=240, channel=4, data=[59, 0]),
   midi.NoteOnEvent(tick=0, channel=4, data=[60, 60]),
   midi.NoteOnEvent(tick=240, channel=4, data=[60, 0]),
   midi.NoteOnEvent(tick=0, channel=4, data=[62, 63]),
   midi.NoteOnEvent(tick=240, channel=4, data=[62, 0]),
   midi.NoteOnEvent(tick=0, channel=4, data=[64, 66]),
   midi.NoteOnEvent(tick=360, channel=4, data=[64, 0]),
   midi.NoteOnEvent(tick=0, channel=4, data=[65, 60]),
   midi.NoteOnEvent(tick=60, channel=4, data=[65, 0]),
   midi.NoteOnEvent(tick=0, channel=4, data=[64, 60]),
   midi.NoteOnEvent(tick=60, channel=4, data=[64, 0]),
   midi.NoteOnEvent(tick=0, channel=4, data=[62, 60]),
   midi.NoteOnEvent(tick=220, channel=4, data=[62, 0]),
   midi.NoteOnEvent(tick=20, channel=4, data=[67, 65]),
   midi.NoteOnEvent(tick=240, channel=4, data=[67, 0]),
   midi.NoteOnEvent(tick=0, channel=4, data=[60, 58]),
   midi.NoteOnEvent(tick=220, channel=4, data=[60, 0]),
   midi.NoteOnEvent(tick=20, channel=4, data=[65, 66]),
   midi.NoteOnEvent(tick=360, channel=4, data=[65, 0]),
   midi.NoteOnEvent(tick=0, channel=4, data=[67, 62]),
   midi.NoteOnEvent(tick=120, channel=4, data=[67, 0]),
   midi.NoteOnEvent(tick=0, channel=4, data=[65, 60]),
   midi.NoteOnEvent(tick=120, channel=4, data=[65, 0]),
   midi.NoteOnEvent(tick=0, channel=4, data=[64, 58]),
   midi.NoteOnEvent(tick=120, channel=4, data=[64, 0]),
   midi.NoteOnEvent(tick=0, channel=4, data=[62, 57]),
   midi.NoteOnEvent(tick=480, channel=4, data=[62, 0]),
   midi.ControlChangeEvent(tick=0, channel=4, data=[7, 100]),
   midi.NoteOnEvent(tick=0, channel=4, data=[64, 60]),
   midi.NoteOnEvent(tick=240, channel=4, data=[64, 0]),
   midi.NoteOnEvent(tick=0, channel=4, data=[62, 60]),
   midi.NoteOnEvent(tick=480, channel=4, data=[62, 0]),
   midi.NoteOnEvent(tick=0, channel=4, data=[55, 58]),
   midi.NoteOnEvent(tick=240, channel=4, data=[55, 0]),
   midi.NoteOnEvent(tick=0, channel=4, data=[55, 61]),
   midi.NoteOnEvent(tick=700, channel=4, data=[55, 0]),
   midi.ControlChangeEvent(tick=20, channel=4, data=[7, 120]),
   midi.NoteOnEvent(tick=0, channel=4, data=[48, 51]),
   midi.NoteOnEvent(tick=240, channel=4, data=[48, 0]),
   midi.NoteOnEvent(tick=0, channel=4, data=[50, 53]),
   midi.NoteOnEvent(tick=240, channel=4, data=[50, 0]),
   midi.NoteOnEvent(tick=0, channel=4, data=[52, 55]),
   midi.NoteOnEvent(tick=240, channel=4, data=[52, 0]),
   midi.NoteOnEvent(tick=0, channel=4, data=[53, 60]),
   midi.NoteOnEvent(tick=360, channel=4, data=[53, 0]),
   midi.NoteOnEvent(tick=0, channel=4, data=[55, 56]),
   midi.NoteOnEvent(tick=60, channel=4, data=[55, 0]),
   midi.NoteOnEvent(tick=0, channel=4, data=[53, 56]),
   midi.NoteOnEvent(tick=60, channel=4, data=[53, 0]),
   midi.NoteOnEvent(tick=0, channel=4, data=[52, 57]),
   midi.NoteOnEvent(tick=220, channel=4, data=[52, 0]),
   midi.ControlChangeEvent(tick=20, channel=4, data=[7, 100]),
   midi.NoteOnEvent(tick=0, channel=4, data=[57, 60]),
   midi.NoteOnEvent(tick=240, channel=4, data=[57, 0]),
   midi.NoteOnEvent(tick=0, channel=4, data=[50, 55]),
   midi.NoteOnEvent(tick=220, channel=4, data=[50, 0]),
   midi.NoteOnEvent(tick=20, channel=4, data=[55, 60]),
   midi.NoteOnEvent(tick=360, channel=4, data=[55, 0]),
   midi.NoteOnEvent(tick=0, channel=4, data=[57, 58]),
   midi.NoteOnEvent(tick=120, channel=4, data=[57, 0]),
   midi.NoteOnEvent(tick=0, channel=4, data=[55, 58]),
   midi.NoteOnEvent(tick=120, channel=4, data=[55, 0]),
   midi.NoteOnEvent(tick=0, channel=4, data=[53, 57]),
   midi.NoteOnEvent(tick=120, channel=4, data=[53, 0]),
   midi.NoteOnEvent(tick=0, channel=4, data=[52, 57]),
   midi.NoteOnEvent(tick=90, channel=4, data=[52, 0]),
   midi.NoteOnEvent(tick=30, channel=4, data=[50, 56]),
   midi.NoteOnEvent(tick=120, channel=4, data=[50, 0]),
   midi.NoteOnEvent(tick=0, channel=4, data=[52, 56]),
   midi.NoteOnEvent(tick=120, channel=4, data=[52, 0]),
   midi.NoteOnEvent(tick=0, channel=4, data=[53, 56]),
   midi.NoteOnEvent(tick=120, channel=4, data=[53, 0]),
   midi.NoteOnEvent(tick=0, channel=4, data=[55, 57]),
   midi.NoteOnEvent(tick=120, channel=4, data=[55, 0]),
   midi.NoteOnEvent(tick=0, channel=4, data=[57, 59]),
   midi.NoteOnEvent(tick=120, channel=4, data=[57, 0]),
   midi.NoteOnEvent(tick=0, channel=4, data=[58, 63]),
   midi.NoteOnEvent(tick=90, channel=4, data=[58, 0]),
   midi.NoteOnEvent(tick=30, channel=4, data=[55, 60]),
   midi.NoteOnEvent(tick=120, channel=4, data=[55, 0]),
   midi.NoteOnEvent(tick=0, channel=4, data=[57, 60]),
   midi.NoteOnEvent(tick=90, channel=4, data=[57, 0]),
   midi.NoteOnEvent(tick=30, channel=4, data=[52, 63]),
   midi.NoteOnEvent(tick=120, channel=4, data=[52, 0]),
   midi.NoteOnEvent(tick=0, channel=4, data=[53, 55]),
   midi.NoteOnEvent(tick=120, channel=4, data=[53, 0]),
   midi.NoteOnEvent(tick=0, channel=4, data=[55, 57]),
   midi.NoteOnEvent(tick=120, channel=4, data=[55, 0]),
   midi.NoteOnEvent(tick=0, channel=4, data=[57, 59]),
   midi.NoteOnEvent(tick=120, channel=4, data=[57, 0]),
   midi.NoteOnEvent(tick=0, channel=4, data=[59, 60]),
   midi.NoteOnEvent(tick=120, channel=4, data=[59, 0]),
   midi.NoteOnEvent(tick=0, channel=4, data=[60, 62]),
   midi.NoteOnEvent(tick=90, channel=4, data=[60, 0]),
   midi.NoteOnEvent(tick=30, channel=4, data=[57, 58]),
   midi.NoteOnEvent(tick=120, channel=4, data=[57, 0]),
   midi.NoteOnEvent(tick=0, channel=4, data=[59, 62]),
   midi.NoteOnEvent(tick=960, channel=4, data=[59, 0]),
   midi.NoteOnEvent(tick=0, channel=4, data=[60, 60]),
   midi.NoteOnEvent(tick=1920, channel=4, data=[60, 0]),
   midi.EndOfTrackEvent(tick=0, data=[])]),
 midi.Track(\
  [midi.PortEvent(tick=0, data=[0]),
   midi.TrackNameEvent(tick=0, text='Fuga 4', data=[70, 117, 103, 97, 32, 52]),
   midi.ProgramChangeEvent(tick=0, channel=5, data=[0]),
   midi.ControlChangeEvent(tick=0, channel=5, data=[7, 100]),
   midi.ControlChangeEvent(tick=0, channel=5, data=[10, 64]),
   midi.ControlChangeEvent(tick=67200, channel=5, data=[91, 127]),
   midi.ControlChangeEvent(tick=0, channel=5, data=[93, 0]),
   midi.ControlChangeEvent(tick=8880, channel=5, data=[7, 120]),
   midi.NoteOnEvent(tick=0, channel=5, data=[48, 51]),
   midi.NoteOnEvent(tick=240, channel=5, data=[48, 0]),
   midi.NoteOnEvent(tick=0, channel=5, data=[50, 53]),
   midi.NoteOnEvent(tick=240, channel=5, data=[50, 0]),
   midi.NoteOnEvent(tick=0, channel=5, data=[52, 56]),
   midi.NoteOnEvent(tick=240, channel=5, data=[52, 0]),
   midi.NoteOnEvent(tick=0, channel=5, data=[53, 60]),
   midi.NoteOnEvent(tick=360, channel=5, data=[53, 0]),
   midi.NoteOnEvent(tick=0, channel=5, data=[55, 57]),
   midi.NoteOnEvent(tick=60, channel=5, data=[55, 0]),
   midi.NoteOnEvent(tick=0, channel=5, data=[53, 57]),
   midi.NoteOnEvent(tick=60, channel=5, data=[53, 0]),
   midi.NoteOnEvent(tick=0, channel=5, data=[52, 57]),
   midi.NoteOnEvent(tick=220, channel=5, data=[52, 0]),
   midi.NoteOnEvent(tick=20, channel=5, data=[57, 60]),
   midi.NoteOnEvent(tick=240, channel=5, data=[57, 0]),
   midi.NoteOnEvent(tick=0, channel=5, data=[50, 55]),
   midi.NoteOnEvent(tick=220, channel=5, data=[50, 0]),
   midi.NoteOnEvent(tick=20, channel=5, data=[55, 60]),
   midi.NoteOnEvent(tick=360, channel=5, data=[55, 0]),
   midi.NoteOnEvent(tick=0, channel=5, data=[57, 59]),
   midi.NoteOnEvent(tick=120, channel=5, data=[57, 0]),
   midi.NoteOnEvent(tick=0, channel=5, data=[55, 58]),
   midi.NoteOnEvent(tick=120, channel=5, data=[55, 0]),
   midi.NoteOnEvent(tick=0, channel=5, data=[53, 57]),
   midi.NoteOnEvent(tick=120, channel=5, data=[53, 0]),
   midi.NoteOnEvent(tick=0, channel=5, data=[52, 56]),
   midi.NoteOnEvent(tick=90, channel=5, data=[52, 0]),
   midi.NoteOnEvent(tick=30, channel=5, data=[53, 57]),
   midi.NoteOnEvent(tick=120, channel=5, data=[53, 0]),
   midi.ControlChangeEvent(tick=0, channel=5, data=[7, 100]),
   midi.NoteOnEvent(tick=0, channel=5, data=[52, 56]),
   midi.NoteOnEvent(tick=120, channel=5, data=[52, 0]),
   midi.NoteOnEvent(tick=0, channel=5, data=[50, 55]),
   midi.NoteOnEvent(tick=120, channel=5, data=[50, 0]),
   midi.NoteOnEvent(tick=0, channel=5, data=[48, 54]),
   midi.NoteOnEvent(tick=90, channel=5, data=[48, 0]),
   midi.NoteOnEvent(tick=30, channel=5, data=[50, 57]),
   midi.NoteOnEvent(tick=120, channel=5, data=[50, 0]),
   midi.NoteOnEvent(tick=0, channel=5, data=[48, 56]),
   midi.NoteOnEvent(tick=120, channel=5, data=[48, 0]),
   midi.NoteOnEvent(tick=0, channel=5, data=[47, 55]),
   midi.NoteOnEvent(tick=120, channel=5, data=[47, 0]),
   midi.NoteOnEvent(tick=0, channel=5, data=[45, 54]),
   midi.NoteOnEvent(tick=220, channel=5, data=[45, 0]),
   midi.NoteOnEvent(tick=20, channel=5, data=[50, 57]),
   midi.NoteOnEvent(tick=240, channel=5, data=[50, 0]),
   midi.NoteOnEvent(tick=0, channel=5, data=[57, 60]),
   midi.NoteOnEvent(tick=240, channel=5, data=[57, 0]),
   midi.NoteOnEvent(tick=0, channel=5, data=[54, 57]),
   midi.NoteOnEvent(tick=240, channel=5, data=[54, 0]),
   midi.NoteOnEvent(tick=0, channel=5, data=[55, 58]),
   midi.NoteOnEvent(tick=120, channel=5, data=[55, 0]),
   midi.NoteOnEvent(tick=0, channel=5, data=[57, 58]),
   midi.NoteOnEvent(tick=120, channel=5, data=[57, 0]),
   midi.NoteOnEvent(tick=0, channel=5, data=[58, 60]),
   midi.NoteOnEvent(tick=120, channel=5, data=[58, 0]),
   midi.NoteOnEvent(tick=0, channel=5, data=[55, 58]),
   midi.NoteOnEvent(tick=120, channel=5, data=[55, 0]),
   midi.NoteOnEvent(tick=0, channel=5, data=[49, 56]),
   midi.NoteOnEvent(tick=240, channel=5, data=[49, 0]),
   midi.NoteOnEvent(tick=0, channel=5, data=[50, 57]),
   midi.NoteOnEvent(tick=240, channel=5, data=[50, 0]),
   midi.NoteOnEvent(tick=0, channel=5, data=[57, 58]),
   midi.NoteOnEvent(tick=480, channel=5, data=[57, 0]),
   midi.NoteOnEvent(tick=0, channel=5, data=[52, 56]),
   midi.NoteOnEvent(tick=480, channel=5, data=[52, 0]),
   midi.NoteOnEvent(tick=0, channel=5, data=[57, 56]),
   midi.NoteOnEvent(tick=120, channel=5, data=[57, 0]),
   midi.NoteOnEvent(tick=0, channel=5, data=[59, 57]),
   midi.NoteOnEvent(tick=120, channel=5, data=[59, 0]),
   midi.NoteOnEvent(tick=0, channel=5, data=[60, 58]),
   midi.NoteOnEvent(tick=120, channel=5, data=[60, 0]),
   midi.NoteOnEvent(tick=0, channel=5, data=[62, 59]),
   midi.NoteOnEvent(tick=120, channel=5, data=[62, 0]),
   midi.NoteOnEvent(tick=0, channel=5, data=[60, 60]),
   midi.NoteOnEvent(tick=120, channel=5, data=[60, 0]),
   midi.NoteOnEvent(tick=0, channel=5, data=[59, 57]),
   midi.NoteOnEvent(tick=120, channel=5, data=[59, 0]),
   midi.NoteOnEvent(tick=0, channel=5, data=[57, 56]),
   midi.NoteOnEvent(tick=120, channel=5, data=[57, 0]),
   midi.NoteOnEvent(tick=0, channel=5, data=[55, 55]),
   midi.NoteOnEvent(tick=120, channel=5, data=[55, 0]),
   midi.NoteOnEvent(tick=0, channel=5, data=[60, 60]),
   midi.NoteOnEvent(tick=240, channel=5, data=[60, 0]),
   midi.ControlChangeEvent(tick=1920, channel=5, data=[7, 120]),
   midi.NoteOnEvent(tick=0, channel=5, data=[43, 54]),
   midi.NoteOnEvent(tick=240, channel=5, data=[43, 0]),
   midi.NoteOnEvent(tick=0, channel=5, data=[45, 55]),
   midi.NoteOnEvent(tick=240, channel=5, data=[45, 0]),
   midi.NoteOnEvent(tick=0, channel=5, data=[47, 55]),
   midi.NoteOnEvent(tick=240, channel=5, data=[47, 0]),
   midi.NoteOnEvent(tick=0, channel=5, data=[48, 60]),
   midi.NoteOnEvent(tick=360, channel=5, data=[48, 0]),
   midi.NoteOnEvent(tick=0, channel=5, data=[50, 58]),
   midi.NoteOnEvent(tick=60, channel=5, data=[50, 0]),
   midi.NoteOnEvent(tick=0, channel=5, data=[48, 58]),
   midi.NoteOnEvent(tick=60, channel=5, data=[48, 0]),
   midi.NoteOnEvent(tick=0, channel=5, data=[47, 58]),
   midi.NoteOnEvent(tick=220, channel=5, data=[47, 0]),
   midi.NoteOnEvent(tick=20, channel=5, data=[52, 60]),
   midi.NoteOnEvent(tick=240, channel=5, data=[52, 0]),
   midi.NoteOnEvent(tick=0, channel=5, data=[45, 55]),
   midi.NoteOnEvent(tick=220, channel=5, data=[45, 0]),
   midi.NoteOnEvent(tick=20, channel=5, data=[50, 60]),
   midi.NoteOnEvent(tick=360, channel=5, data=[50, 0]),
   midi.NoteOnEvent(tick=0, channel=5, data=[52, 60]),
   midi.NoteOnEvent(tick=120, channel=5, data=[52, 0]),
   midi.NoteOnEvent(tick=0, channel=5, data=[50, 58]),
   midi.NoteOnEvent(tick=120, channel=5, data=[50, 0]),
   midi.NoteOnEvent(tick=0, channel=5, data=[48, 57]),
   midi.NoteOnEvent(tick=120, channel=5, data=[48, 0]),
   midi.NoteOnEvent(tick=0, channel=5, data=[47, 55]),
   midi.NoteOnEvent(tick=240, channel=5, data=[47, 0]),
   midi.ControlChangeEvent(tick=480, channel=5, data=[7, 100]),
   midi.NoteOnEvent(tick=0, channel=5, data=[50, 58]),
   midi.NoteOnEvent(tick=240, channel=5, data=[50, 0]),
   midi.NoteOnEvent(tick=0, channel=5, data=[48, 58]),
   midi.NoteOnEvent(tick=240, channel=5, data=[48, 0]),
   midi.NoteOnEvent(tick=0, channel=5, data=[53, 60]),
   midi.NoteOnEvent(tick=480, channel=5, data=[53, 0]),
   midi.NoteOnEvent(tick=0, channel=5, data=[52, 58]),
   midi.NoteOnEvent(tick=480, channel=5, data=[52, 0]),
   midi.NoteOnEvent(tick=0, channel=5, data=[50, 57]),
   midi.NoteOnEvent(tick=480, channel=5, data=[50, 0]),
   midi.NoteOnEvent(tick=0, channel=5, data=[52, 57]),
   midi.NoteOnEvent(tick=240, channel=5, data=[52, 0]),
   midi.NoteOnEvent(tick=0, channel=5, data=[53, 60]),
   midi.NoteOnEvent(tick=240, channel=5, data=[53, 0]),
   midi.NoteOnEvent(tick=0, channel=5, data=[52, 55]),
   midi.NoteOnEvent(tick=120, channel=5, data=[52, 0]),
   midi.NoteOnEvent(tick=0, channel=5, data=[50, 55]),
   midi.NoteOnEvent(tick=120, channel=5, data=[50, 0]),
   midi.NoteOnEvent(tick=0, channel=5, data=[52, 58]),
   midi.NoteOnEvent(tick=480, channel=5, data=[52, 0]),
   midi.NoteOnEvent(tick=0, channel=5, data=[45, 61]),
   midi.NoteOnEvent(tick=480, channel=5, data=[45, 0]),
   midi.ControlChangeEvent(tick=1680, channel=5, data=[7, 120]),
   midi.NoteOnEvent(tick=0, channel=5, data=[43, 52]),
   midi.NoteOnEvent(tick=240, channel=5, data=[43, 0]),
   midi.NoteOnEvent(tick=0, channel=5, data=[45, 53]),
   midi.NoteOnEvent(tick=240, channel=5, data=[45, 0]),
   midi.NoteOnEvent(tick=0, channel=5, data=[47, 55]),
   midi.NoteOnEvent(tick=240, channel=5, data=[47, 0]),
   midi.NoteOnEvent(tick=0, channel=5, data=[48, 60]),
   midi.NoteOnEvent(tick=360, channel=5, data=[48, 0]),
   midi.NoteOnEvent(tick=0, channel=5, data=[50, 57]),
   midi.NoteOnEvent(tick=60, channel=5, data=[50, 0]),
   midi.NoteOnEvent(tick=0, channel=5, data=[48, 57]),
   midi.NoteOnEvent(tick=60, channel=5, data=[48, 0]),
   midi.NoteOnEvent(tick=0, channel=5, data=[47, 57]),
   midi.NoteOnEvent(tick=220, channel=5, data=[47, 0]),
   midi.NoteOnEvent(tick=20, channel=5, data=[52, 60]),
   midi.NoteOnEvent(tick=240, channel=5, data=[52, 0]),
   midi.NoteOnEvent(tick=0, channel=5, data=[45, 56]),
   midi.NoteOnEvent(tick=220, channel=5, data=[45, 0]),
   midi.NoteOnEvent(tick=20, channel=5, data=[50, 60]),
   midi.NoteOnEvent(tick=360, channel=5, data=[50, 0]),
   midi.NoteOnEvent(tick=0, channel=5, data=[52, 61]),
   midi.NoteOnEvent(tick=120, channel=5, data=[52, 0]),
   midi.NoteOnEvent(tick=0, channel=5, data=[50, 60]),
   midi.NoteOnEvent(tick=120, channel=5, data=[50, 0]),
   midi.NoteOnEvent(tick=0, channel=5, data=[48, 59]),
   midi.NoteOnEvent(tick=120, channel=5, data=[48, 0]),
   midi.NoteOnEvent(tick=0, channel=5, data=[47, 58]),
   midi.NoteOnEvent(tick=220, channel=5, data=[47, 0]),
   midi.NoteOnEvent(tick=20, channel=5, data=[46, 57]),
   midi.NoteOnEvent(tick=240, channel=5, data=[46, 0]),
   midi.NoteOnEvent(tick=0, channel=5, data=[45, 57]),
   midi.NoteOnEvent(tick=240, channel=5, data=[45, 0]),
   midi.NoteOnEvent(tick=0, channel=5, data=[43, 56]),
   midi.NoteOnEvent(tick=240, channel=5, data=[43, 0]),
   midi.NoteOnEvent(tick=0, channel=5, data=[45, 56]),
   midi.NoteOnEvent(tick=180, channel=5, data=[45, 0]),
   midi.NoteOnEvent(tick=60, channel=5, data=[54, 60]),
   midi.ControlChangeEvent(tick=239, channel=5, data=[7, 100]),
   midi.NoteOnEvent(tick=1, channel=5, data=[54, 0]),
   midi.NoteOnEvent(tick=0, channel=5, data=[55, 60]),
   midi.NoteOnEvent(tick=240, channel=5, data=[55, 0]),
   midi.NoteOnEvent(tick=0, channel=5, data=[52, 57]),
   midi.NoteOnEvent(tick=240, channel=5, data=[52, 0]),
   midi.NoteOnEvent(tick=0, channel=5, data=[50, 57]),
   midi.NoteOnEvent(tick=460, channel=5, data=[50, 0]),
   midi.ControlChangeEvent(tick=20, channel=5, data=[7, 120]),
   midi.NoteOnEvent(tick=0, channel=5, data=[52, 56]),
   midi.NoteOnEvent(tick=240, channel=5, data=[52, 0]),
   midi.NoteOnEvent(tick=0, channel=5, data=[53, 56]),
   midi.NoteOnEvent(tick=240, channel=5, data=[53, 0]),
   midi.NoteOnEvent(tick=0, channel=5, data=[55, 60]),
   midi.NoteOnEvent(tick=360, channel=5, data=[55, 0]),
   midi.NoteOnEvent(tick=0, channel=5, data=[57, 57]),
   midi.NoteOnEvent(tick=60, channel=5, data=[57, 0]),
   midi.NoteOnEvent(tick=0, channel=5, data=[55, 57]),
   midi.NoteOnEvent(tick=60, channel=5, data=[55, 0]),
   midi.NoteOnEvent(tick=0, channel=5, data=[53, 57]),
   midi.NoteOnEvent(tick=220, channel=5, data=[53, 0]),
   midi.NoteOnEvent(tick=20, channel=5, data=[58, 60]),
   midi.NoteOnEvent(tick=240, channel=5, data=[58, 0]),
   midi.NoteOnEvent(tick=0, channel=5, data=[52, 55]),
   midi.NoteOnEvent(tick=220, channel=5, data=[52, 0]),
   midi.NoteOnEvent(tick=20, channel=5, data=[57, 60]),
   midi.NoteOnEvent(tick=360, channel=5, data=[57, 0]),
   midi.NoteOnEvent(tick=0, channel=5, data=[58, 58]),
   midi.NoteOnEvent(tick=120, channel=5, data=[58, 0]),
   midi.NoteOnEvent(tick=0, channel=5, data=[57, 58]),
   midi.NoteOnEvent(tick=120, channel=5, data=[57, 0]),
   midi.NoteOnEvent(tick=0, channel=5, data=[55, 57]),
   midi.NoteOnEvent(tick=120, channel=5, data=[55, 0]),
   midi.NoteOnEvent(tick=0, channel=5, data=[53, 58]),
   midi.NoteOnEvent(tick=120, channel=5, data=[53, 0]),
   midi.NoteOnEvent(tick=0, channel=5, data=[52, 55]),
   midi.NoteOnEvent(tick=120, channel=5, data=[52, 0]),
   midi.ControlChangeEvent(tick=0, channel=5, data=[7, 100]),
   midi.NoteOnEvent(tick=0, channel=5, data=[53, 58]),
   midi.NoteOnEvent(tick=90, channel=5, data=[53, 0]),
   midi.NoteOnEvent(tick=30, channel=5, data=[50, 55]),
   midi.NoteOnEvent(tick=120, channel=5, data=[50, 0]),
   midi.NoteOnEvent(tick=0, channel=5, data=[55, 59]),
   midi.NoteOnEvent(tick=240, channel=5, data=[55, 0]),
   midi.NoteOnEvent(tick=0, channel=5, data=[57, 59]),
   midi.NoteOnEvent(tick=240, channel=5, data=[57, 0]),
   midi.NoteOnEvent(tick=0, channel=5, data=[50, 56]),
   midi.NoteOnEvent(tick=1080, channel=5, data=[50, 0]),
   midi.NoteOnEvent(tick=0, channel=5, data=[52, 57]),
   midi.NoteOnEvent(tick=120, channel=5, data=[52, 0]),
   midi.NoteOnEvent(tick=0, channel=5, data=[50, 57]),
   midi.NoteOnEvent(tick=120, channel=5, data=[50, 0]),
   midi.NoteOnEvent(tick=0, channel=5, data=[48, 56]),
   midi.NoteOnEvent(tick=120, channel=5, data=[48, 0]),
   midi.NoteOnEvent(tick=0, channel=5, data=[47, 56]),
   midi.NoteOnEvent(tick=120, channel=5, data=[47, 0]),
   midi.NoteOnEvent(tick=0, channel=5, data=[45, 55]),
   midi.NoteOnEvent(tick=120, channel=5, data=[45, 0]),
   midi.NoteOnEvent(tick=0, channel=5, data=[43, 55]),
   midi.NoteOnEvent(tick=120, channel=5, data=[43, 0]),
   midi.NoteOnEvent(tick=0, channel=5, data=[42, 54]),
   midi.NoteOnEvent(tick=120, channel=5, data=[42, 0]),
   midi.NoteOnEvent(tick=0, channel=5, data=[40, 54]),
   midi.NoteOnEvent(tick=220, channel=5, data=[40, 0]),
   midi.ControlChangeEvent(tick=19, channel=5, data=[7, 120]),
   midi.NoteOnEvent(tick=1, channel=5, data=[52, 52]),
   midi.NoteOnEvent(tick=240, channel=5, data=[52, 0]),
   midi.NoteOnEvent(tick=0, channel=5, data=[54, 54]),
   midi.NoteOnEvent(tick=240, channel=5, data=[54, 0]),
   midi.NoteOnEvent(tick=0, channel=5, data=[55, 56]),
   midi.NoteOnEvent(tick=480, channel=5, data=[55, 0]),
   midi.NoteOnEvent(tick=0, channel=5, data=[57, 60]),
   midi.NoteOnEvent(tick=120, channel=5, data=[57, 0]),
   midi.NoteOnEvent(tick=0, channel=5, data=[55, 58]),
   midi.NoteOnEvent(tick=120, channel=5, data=[55, 0]),
   midi.NoteOnEvent(tick=0, channel=5, data=[54, 60]),
   midi.NoteOnEvent(tick=220, channel=5, data=[54, 0]),
   midi.NoteOnEvent(tick=20, channel=5, data=[50, 57]),
   midi.NoteOnEvent(tick=240, channel=5, data=[50, 0]),
   midi.NoteOnEvent(tick=0, channel=5, data=[55, 59]),
   midi.NoteOnEvent(tick=1920, channel=5, data=[55, 0]),
   midi.ControlChangeEvent(tick=0, channel=5, data=[7, 100]),
   midi.NoteOnEvent(tick=0, channel=5, data=[57, 52]),
   midi.NoteOnEvent(tick=480, channel=5, data=[57, 0]),
   midi.NoteOnEvent(tick=0, channel=5, data=[59, 57]),
   midi.NoteOnEvent(tick=240, channel=5, data=[59, 0]),
   midi.NoteOnEvent(tick=0, channel=5, data=[60, 57]),
   midi.NoteOnEvent(tick=240, channel=5, data=[60, 0]),
   midi.NoteOnEvent(tick=0, channel=5, data=[53, 58]),
   midi.NoteOnEvent(tick=90, channel=5, data=[53, 0]),
   midi.NoteOnEvent(tick=30, channel=5, data=[57, 60]),
   midi.NoteOnEvent(tick=120, channel=5, data=[57, 0]),
   midi.NoteOnEvent(tick=0, channel=5, data=[55, 59]),
   midi.NoteOnEvent(tick=120, channel=5, data=[55, 0]),
   midi.NoteOnEvent(tick=0, channel=5, data=[53, 58]),
   midi.NoteOnEvent(tick=120, channel=5, data=[53, 0]),
   midi.NoteOnEvent(tick=0, channel=5, data=[52, 57]),
   midi.NoteOnEvent(tick=120, channel=5, data=[52, 0]),
   midi.NoteOnEvent(tick=0, channel=5, data=[50, 56]),
   midi.NoteOnEvent(tick=120, channel=5, data=[50, 0]),
   midi.NoteOnEvent(tick=0, channel=5, data=[48, 56]),
   midi.NoteOnEvent(tick=120, channel=5, data=[48, 0]),
   midi.NoteOnEvent(tick=0, channel=5, data=[47, 55]),
   midi.NoteOnEvent(tick=120, channel=5, data=[47, 0]),
   midi.NoteOnEvent(tick=0, channel=5, data=[48, 51]),
   midi.NoteOnEvent(tick=120, channel=5, data=[48, 0]),
   midi.NoteOnEvent(tick=0, channel=5, data=[50, 53]),
   midi.NoteOnEvent(tick=120, channel=5, data=[50, 0]),
   midi.NoteOnEvent(tick=0, channel=5, data=[52, 56]),
   midi.NoteOnEvent(tick=120, channel=5, data=[52, 0]),
   midi.NoteOnEvent(tick=0, channel=5, data=[53, 58]),
   midi.NoteOnEvent(tick=120, channel=5, data=[53, 0]),
   midi.NoteOnEvent(tick=240, channel=5, data=[43, 57]),
   midi.NoteOnEvent(tick=240, channel=5, data=[43, 0]),
   midi.NoteOnEvent(tick=0, channel=5, data=[48, 60]),
   midi.NoteOnEvent(tick=7680, channel=5, data=[48, 0]),
   midi.EndOfTrackEvent(tick=0, data=[])]),
 midi.Track(\
  [midi.PortEvent(tick=0, data=[0]),
   midi.TrackNameEvent(tick=0, text='Bach: Prelude & Fugue in C major, BWV 846', data=[66, 97, 99, 104, 58, 32, 80, 114, 101, 108, 117, 100, 101, 32, 38, 32, 70, 117, 103, 117, 101, 32, 105, 110, 32, 67, 32, 109, 97, 106, 111, 114, 44, 32, 66, 87, 86, 32, 56, 52, 54]),
   midi.EndOfTrackEvent(tick=0, data=[])]),
 midi.Track(\
  [midi.PortEvent(tick=0, data=[0]),
   midi.TrackNameEvent(tick=0, text='Copyright 2004 by Bernd Krüger.', data=[67, 111, 112, 121, 114, 105, 103, 104, 116, 32, 50, 48, 48, 52, 32, 98, 121, 32, 66, 101, 114, 110, 100, 32, 75, 114, 252, 103, 101, 114, 46]),
   midi.EndOfTrackEvent(tick=0, data=[])]),
 midi.Track(\
  [midi.PortEvent(tick=0, data=[0]),
   midi.TrackNameEvent(tick=0, text='http://www.piano-midi.de', data=[104, 116, 116, 112, 58, 47, 47, 119, 119, 119, 46, 112, 105, 97, 110, 111, 45, 109, 105, 100, 105, 46, 100, 101]),
   midi.EndOfTrackEvent(tick=0, data=[])]),
 midi.Track(\
  [midi.PortEvent(tick=0, data=[0]),
   midi.TrackNameEvent(tick=0, text='Edition: 25.9.2004', data=[69, 100, 105, 116, 105, 111, 110, 58, 32, 50, 53, 46, 57, 46, 50, 48, 48, 52]),
   midi.EndOfTrackEvent(tick=0, data=[])])])
