import midi
pattern=midi.Pattern(format=1, resolution=480, tracks=\
[midi.Track(\
[   midi.ControlChangeEvent(tick=0, channel=0, data=[7, 100]),
   midi.ControlChangeEvent(tick=0, channel=0, data=[10, 64]),
   midi.ControlChangeEvent(tick=0, channel=0, data=[91, 127]),
   midi.NoteOnEvent(tick=0, channel=0, data=[53, 35]),
   midi.ControlChangeEvent(tick=0, channel=0, data=[64, 0]),
   midi.ControlChangeEvent(tick=0, channel=0, data=[91, 127]),
   midi.NoteOnEvent(tick=160, channel=0, data=[55, 29]),
   midi.NoteOnEvent(tick=40, channel=0, data=[53, 0]),
   midi.NoteOnEvent(tick=120, channel=0, data=[58, 30]),
   midi.NoteOnEvent(tick=40, channel=0, data=[55, 0]),
   midi.NoteOnEvent(tick=120, channel=0, data=[61, 30]),
   midi.NoteOnEvent(tick=40, channel=0, data=[58, 0]),
   midi.NoteOnEvent(tick=120, channel=0, data=[52, 33]),
   midi.NoteOnEvent(tick=40, channel=0, data=[61, 0]),
   midi.NoteOnEvent(tick=120, channel=0, data=[55, 31]),
   midi.NoteOnEvent(tick=40, channel=0, data=[52, 0]),
   midi.NoteOnEvent(tick=120, channel=0, data=[55, 0]),
   midi.NoteOnEvent(tick=0, channel=0, data=[53, 37]),
   midi.NoteOnEvent(tick=160, channel=0, data=[55, 30]),
   midi.NoteOnEvent(tick=40, channel=0, data=[53, 0]),
   midi.NoteOnEvent(tick=120, channel=0, data=[58, 31]),
   midi.NoteOnEvent(tick=40, channel=0, data=[55, 0]),
   midi.NoteOnEvent(tick=120, channel=0, data=[61, 32]),
   midi.NoteOnEvent(tick=40, channel=0, data=[58, 0]),
   midi.NoteOnEvent(tick=120, channel=0, data=[52, 34]),
   midi.NoteOnEvent(tick=40, channel=0, data=[61, 0]),
   midi.NoteOnEvent(tick=120, channel=0, data=[55, 33]),
   midi.NoteOnEvent(tick=40, channel=0, data=[52, 0]),
   midi.NoteOnEvent(tick=104, channel=0, data=[55, 0]),
   midi.NoteOnEvent(tick=16, channel=0, data=[55, 40]),
   midi.NoteOnEvent(tick=160, channel=0, data=[57, 33]),
   midi.NoteOnEvent(tick=40, channel=0, data=[55, 0]),
   midi.NoteOnEvent(tick=120, channel=0, data=[60, 35]),
   midi.NoteOnEvent(tick=40, channel=0, data=[57, 0]),
   midi.NoteOnEvent(tick=120, channel=0, data=[63, 36]),
   midi.NoteOnEvent(tick=40, channel=0, data=[60, 0]),
   midi.NoteOnEvent(tick=120, channel=0, data=[54, 34]),
   midi.NoteOnEvent(tick=40, channel=0, data=[63, 0]),
   midi.NoteOnEvent(tick=120, channel=0, data=[57, 36]),
   midi.NoteOnEvent(tick=40, channel=0, data=[54, 0]),
   midi.NoteOnEvent(tick=120, channel=0, data=[57, 0]),
   midi.NoteOnEvent(tick=0, channel=0, data=[55, 40]),
   midi.NoteOnEvent(tick=160, channel=0, data=[57, 34]),
   midi.NoteOnEvent(tick=40, channel=0, data=[55, 0]),
   midi.NoteOnEvent(tick=120, channel=0, data=[60, 34]),
   midi.NoteOnEvent(tick=40, channel=0, data=[57, 0]),
   midi.NoteOnEvent(tick=120, channel=0, data=[63, 35]),
   midi.NoteOnEvent(tick=40, channel=0, data=[60, 0]),
   midi.NoteOnEvent(tick=120, channel=0, data=[54, 34]),
   midi.NoteOnEvent(tick=40, channel=0, data=[63, 0]),
   midi.NoteOnEvent(tick=120, channel=0, data=[57, 36]),
   midi.NoteOnEvent(tick=40, channel=0, data=[54, 0]),
   midi.NoteOnEvent(tick=120, channel=0, data=[57, 0]),
   midi.NoteOnEvent(tick=0, channel=0, data=[58, 45]),
   midi.NoteOnEvent(tick=160, channel=0, data=[60, 35]),
   midi.NoteOnEvent(tick=40, channel=0, data=[58, 0]),
   midi.NoteOnEvent(tick=120, channel=0, data=[63, 38]),
   midi.NoteOnEvent(tick=40, channel=0, data=[60, 0]),
   midi.NoteOnEvent(tick=120, channel=0, data=[66, 43]),
   midi.NoteOnEvent(tick=40, channel=0, data=[63, 0]),
   midi.NoteOnEvent(tick=120, channel=0, data=[57, 39]),
   midi.NoteOnEvent(tick=40, channel=0, data=[66, 0]),
   midi.NoteOnEvent(tick=120, channel=0, data=[60, 38]),
   midi.NoteOnEvent(tick=40, channel=0, data=[57, 0]),
   midi.NoteOnEvent(tick=120, channel=0, data=[60, 0]),
   midi.NoteOnEvent(tick=0, channel=0, data=[61, 41]),
   midi.NoteOnEvent(tick=160, channel=0, data=[63, 39]),
   midi.NoteOnEvent(tick=40, channel=0, data=[61, 0]),
   midi.NoteOnEvent(tick=120, channel=0, data=[66, 39]),
   midi.NoteOnEvent(tick=40, channel=0, data=[63, 0]),
   midi.NoteOnEvent(tick=120, channel=0, data=[69, 43]),
   midi.NoteOnEvent(tick=40, channel=0, data=[66, 0]),
   midi.NoteOnEvent(tick=120, channel=0, data=[60, 39]),
   midi.NoteOnEvent(tick=40, channel=0, data=[69, 0]),
   midi.NoteOnEvent(tick=120, channel=0, data=[63, 39]),
   midi.NoteOnEvent(tick=40, channel=0, data=[60, 0]),
   midi.NoteOnEvent(tick=120, channel=0, data=[63, 0]),
   midi.NoteOnEvent(tick=0, channel=0, data=[61, 49]),
   midi.NoteOnEvent(tick=160, channel=0, data=[63, 42]),
   midi.NoteOnEvent(tick=40, channel=0, data=[61, 0]),
   midi.NoteOnEvent(tick=120, channel=0, data=[66, 39]),
   midi.NoteOnEvent(tick=40, channel=0, data=[63, 0]),
   midi.NoteOnEvent(tick=120, channel=0, data=[66, 0]),
   midi.NoteOnEvent(tick=0, channel=0, data=[69, 40]),
   midi.NoteOnEvent(tick=160, channel=0, data=[60, 42]),
   midi.NoteOnEvent(tick=40, channel=0, data=[69, 0]),
   midi.NoteOnEvent(tick=120, channel=0, data=[63, 43]),
   midi.NoteOnEvent(tick=40, channel=0, data=[60, 0]),
   midi.NoteOnEvent(tick=120, channel=0, data=[63, 0]),
   midi.NoteOnEvent(tick=0, channel=0, data=[66, 50]),
   midi.NoteOnEvent(tick=160, channel=0, data=[70, 40]),
   midi.NoteOnEvent(tick=40, channel=0, data=[66, 0]),
   midi.NoteOnEvent(tick=120, channel=0, data=[72, 41]),
   midi.NoteOnEvent(tick=40, channel=0, data=[70, 0]),
   midi.NoteOnEvent(tick=120, channel=0, data=[75, 44]),
   midi.NoteOnEvent(tick=40, channel=0, data=[72, 0]),
   midi.NoteOnEvent(tick=120, channel=0, data=[65, 44]),
   midi.NoteOnEvent(tick=40, channel=0, data=[75, 0]),
   midi.NoteOnEvent(tick=120, channel=0, data=[69, 44]),
   midi.NoteOnEvent(tick=40, channel=0, data=[65, 0]),
   midi.NoteOnEvent(tick=120, channel=0, data=[69, 0]),
   midi.NoteOnEvent(tick=0, channel=0, data=[70, 56]),
   midi.NoteOnEvent(tick=160, channel=0, data=[73, 45]),
   midi.NoteOnEvent(tick=40, channel=0, data=[70, 0]),
   midi.NoteOnEvent(tick=120, channel=0, data=[78, 49]),
   midi.NoteOnEvent(tick=40, channel=0, data=[73, 0]),
   midi.NoteOnEvent(tick=120, channel=0, data=[77, 46]),
   midi.NoteOnEvent(tick=40, channel=0, data=[78, 0]),
   midi.NoteOnEvent(tick=120, channel=0, data=[72, 45]),
   midi.NoteOnEvent(tick=40, channel=0, data=[77, 0]),
   midi.NoteOnEvent(tick=120, channel=0, data=[73, 45]),
   midi.NoteOnEvent(tick=40, channel=0, data=[72, 0]),
   midi.NoteOnEvent(tick=120, channel=0, data=[73, 0]),
   midi.NoteOnEvent(tick=0, channel=0, data=[76, 50]),
   midi.NoteOnEvent(tick=160, channel=0, data=[72, 46]),
   midi.NoteOnEvent(tick=160, channel=0, data=[72, 0]),
   midi.NoteOnEvent(tick=0, channel=0, data=[76, 0]),
   midi.NoteOnEvent(tick=0, channel=0, data=[73, 45]),
   midi.NoteOnEvent(tick=160, channel=0, data=[69, 43]),
   midi.NoteOnEvent(tick=40, channel=0, data=[73, 0]),
   midi.NoteOnEvent(tick=120, channel=0, data=[69, 0]),
   midi.NoteOnEvent(tick=0, channel=0, data=[70, 47]),
   midi.NoteOnEvent(tick=160, channel=0, data=[66, 44]),
   midi.NoteOnEvent(tick=40, channel=0, data=[70, 0]),
   midi.NoteOnEvent(tick=120, channel=0, data=[66, 0]),
   midi.NoteOnEvent(tick=0, channel=0, data=[64, 48]),
   midi.NoteOnEvent(tick=160, channel=0, data=[65, 44]),
   midi.NoteOnEvent(tick=40, channel=0, data=[64, 0]),
   midi.NoteOnEvent(tick=120, channel=0, data=[70, 44]),
   midi.NoteOnEvent(tick=40, channel=0, data=[65, 0]),
   midi.NoteOnEvent(tick=120, channel=0, data=[70, 0]),
   midi.NoteOnEvent(tick=0, channel=0, data=[68, 45]),
   midi.NoteOnEvent(tick=160, channel=0, data=[69, 45]),
   midi.NoteOnEvent(tick=40, channel=0, data=[68, 0]),
   midi.NoteOnEvent(tick=120, channel=0, data=[73, 45]),
   midi.NoteOnEvent(tick=40, channel=0, data=[69, 0]),
   midi.NoteOnEvent(tick=120, channel=0, data=[73, 0]),
   midi.NoteOnEvent(tick=0, channel=0, data=[69, 47]),
   midi.NoteOnEvent(tick=160, channel=0, data=[70, 44]),
   midi.NoteOnEvent(tick=40, channel=0, data=[69, 0]),
   midi.NoteOnEvent(tick=120, channel=0, data=[73, 45]),
   midi.NoteOnEvent(tick=40, channel=0, data=[70, 0]),
   midi.NoteOnEvent(tick=120, channel=0, data=[73, 0]),
   midi.NoteOnEvent(tick=0, channel=0, data=[71, 46]),
   midi.NoteOnEvent(tick=160, channel=0, data=[72, 45]),
   midi.NoteOnEvent(tick=40, channel=0, data=[71, 0]),
   midi.NoteOnEvent(tick=120, channel=0, data=[77, 45]),
   midi.NoteOnEvent(tick=40, channel=0, data=[72, 0]),
   midi.NoteOnEvent(tick=120, channel=0, data=[77, 0]),
   midi.NoteOnEvent(tick=0, channel=0, data=[68, 48]),
   midi.NoteOnEvent(tick=160, channel=0, data=[71, 43]),
   midi.NoteOnEvent(tick=40, channel=0, data=[68, 0]),
   midi.NoteOnEvent(tick=120, channel=0, data=[76, 45]),
   midi.NoteOnEvent(tick=40, channel=0, data=[71, 0]),
   midi.NoteOnEvent(tick=120, channel=0, data=[75, 44]),
   midi.NoteOnEvent(tick=40, channel=0, data=[76, 0]),
   midi.NoteOnEvent(tick=120, channel=0, data=[70, 40]),
   midi.NoteOnEvent(tick=40, channel=0, data=[75, 0]),
   midi.NoteOnEvent(tick=120, channel=0, data=[71, 38]),
   midi.NoteOnEvent(tick=40, channel=0, data=[70, 0]),
   midi.NoteOnEvent(tick=120, channel=0, data=[71, 0]),
   midi.NoteOnEvent(tick=0, channel=0, data=[74, 51]),
   midi.NoteOnEvent(tick=160, channel=0, data=[70, 43]),
   midi.NoteOnEvent(tick=160, channel=0, data=[74, 0]),
   midi.NoteOnEvent(tick=0, channel=0, data=[71, 42]),
   midi.NoteOnEvent(tick=40, channel=0, data=[70, 0]),
   midi.NoteOnEvent(tick=120, channel=0, data=[67, 43]),
   midi.NoteOnEvent(tick=40, channel=0, data=[71, 0]),
   midi.NoteOnEvent(tick=120, channel=0, data=[68, 45]),
   midi.NoteOnEvent(tick=160, channel=0, data=[67, 0]),
   midi.NoteOnEvent(tick=0, channel=0, data=[64, 43]),
   midi.NoteOnEvent(tick=40, channel=0, data=[68, 0]),
   midi.NoteOnEvent(tick=120, channel=0, data=[64, 0]),
   midi.NoteOnEvent(tick=0, channel=0, data=[62, 47]),
   midi.NoteOnEvent(tick=160, channel=0, data=[63, 41]),
   midi.NoteOnEvent(tick=160, channel=0, data=[62, 0]),
   midi.NoteOnEvent(tick=0, channel=0, data=[68, 41]),
   midi.NoteOnEvent(tick=40, channel=0, data=[63, 0]),
   midi.NoteOnEvent(tick=120, channel=0, data=[68, 0]),
   midi.NoteOnEvent(tick=0, channel=0, data=[64, 44]),
   midi.NoteOnEvent(tick=160, channel=0, data=[65, 42]),
   midi.NoteOnEvent(tick=160, channel=0, data=[64, 0]),
   midi.NoteOnEvent(tick=0, channel=0, data=[71, 42]),
   midi.NoteOnEvent(tick=40, channel=0, data=[65, 0]),
   midi.NoteOnEvent(tick=120, channel=0, data=[71, 0]),
   midi.NoteOnEvent(tick=0, channel=0, data=[65, 47]),
   midi.NoteOnEvent(tick=160, channel=0, data=[66, 45]),
   midi.NoteOnEvent(tick=160, channel=0, data=[65, 0]),
   midi.NoteOnEvent(tick=0, channel=0, data=[71, 43]),
   midi.NoteOnEvent(tick=40, channel=0, data=[66, 0]),
   midi.NoteOnEvent(tick=120, channel=0, data=[71, 0]),
   midi.NoteOnEvent(tick=0, channel=0, data=[69, 45]),
   midi.NoteOnEvent(tick=160, channel=0, data=[70, 44]),
   midi.NoteOnEvent(tick=160, channel=0, data=[69, 0]),
   midi.NoteOnEvent(tick=0, channel=0, data=[75, 44]),
   midi.NoteOnEvent(tick=40, channel=0, data=[70, 0]),
   midi.NoteOnEvent(tick=120, channel=0, data=[75, 0]),
   midi.NoteOnEvent(tick=0, channel=0, data=[73, 51]),
   midi.NoteOnEvent(tick=160, channel=0, data=[65, 45]),
   midi.NoteOnEvent(tick=160, channel=0, data=[73, 0]),
   midi.NoteOnEvent(tick=0, channel=0, data=[70, 41]),
   midi.NoteOnEvent(tick=40, channel=0, data=[65, 0]),
   midi.NoteOnEvent(tick=120, channel=0, data=[61, 45]),
   midi.NoteOnEvent(tick=40, channel=0, data=[70, 0]),
   midi.NoteOnEvent(tick=120, channel=0, data=[64, 43]),
   midi.NoteOnEvent(tick=160, channel=0, data=[61, 0]),
   midi.NoteOnEvent(tick=0, channel=0, data=[69, 43]),
   midi.NoteOnEvent(tick=40, channel=0, data=[64, 0]),
   midi.NoteOnEvent(tick=120, channel=0, data=[69, 0]),
   midi.NoteOnEvent(tick=0, channel=0, data=[72, 45]),
   midi.NoteOnEvent(tick=160, channel=0, data=[63, 41]),
   midi.NoteOnEvent(tick=160, channel=0, data=[72, 0]),
   midi.NoteOnEvent(tick=0, channel=0, data=[68, 42]),
   midi.NoteOnEvent(tick=40, channel=0, data=[63, 0]),
   midi.NoteOnEvent(tick=120, channel=0, data=[59, 42]),
   midi.NoteOnEvent(tick=40, channel=0, data=[68, 0]),
   midi.NoteOnEvent(tick=120, channel=0, data=[62, 41]),
   midi.NoteOnEvent(tick=160, channel=0, data=[59, 0]),
   midi.NoteOnEvent(tick=0, channel=0, data=[67, 42]),
   midi.NoteOnEvent(tick=40, channel=0, data=[62, 0]),
   midi.NoteOnEvent(tick=120, channel=0, data=[67, 0]),
   midi.NoteOnEvent(tick=0, channel=0, data=[71, 53]),
   midi.NoteOnEvent(tick=160, channel=0, data=[62, 45]),
   midi.NoteOnEvent(tick=40, channel=0, data=[71, 0]),
   midi.NoteOnEvent(tick=120, channel=0, data=[66, 45]),
   midi.NoteOnEvent(tick=40, channel=0, data=[62, 0]),
   midi.NoteOnEvent(tick=120, channel=0, data=[58, 42]),
   midi.NoteOnEvent(tick=40, channel=0, data=[66, 0]),
   midi.NoteOnEvent(tick=120, channel=0, data=[61, 42]),
   midi.NoteOnEvent(tick=40, channel=0, data=[58, 0]),
   midi.NoteOnEvent(tick=120, channel=0, data=[66, 43]),
   midi.NoteOnEvent(tick=40, channel=0, data=[61, 0]),
   midi.NoteOnEvent(tick=120, channel=0, data=[66, 0]),
   midi.NoteOnEvent(tick=0, channel=0, data=[70, 50]),
   midi.NoteOnEvent(tick=160, channel=0, data=[66, 45]),
   midi.NoteOnEvent(tick=40, channel=0, data=[70, 0]),
   midi.NoteOnEvent(tick=120, channel=0, data=[71, 42]),
   midi.NoteOnEvent(tick=40, channel=0, data=[66, 0]),
   midi.NoteOnEvent(tick=120, channel=0, data=[72, 46]),
   midi.NoteOnEvent(tick=40, channel=0, data=[71, 0]),
   midi.NoteOnEvent(tick=120, channel=0, data=[73, 51]),
   midi.NoteOnEvent(tick=40, channel=0, data=[72, 0]),
   midi.NoteOnEvent(tick=120, channel=0, data=[75, 54]),
   midi.NoteOnEvent(tick=40, channel=0, data=[73, 0]),
   midi.NoteOnEvent(tick=120, channel=0, data=[75, 0]),
   midi.NoteOnEvent(tick=0, channel=0, data=[76, 57]),
   midi.NoteOnEvent(tick=160, channel=0, data=[67, 45]),
   midi.NoteOnEvent(tick=40, channel=0, data=[76, 0]),
   midi.NoteOnEvent(tick=120, channel=0, data=[72, 45]),
   midi.NoteOnEvent(tick=40, channel=0, data=[67, 0]),
   midi.NoteOnEvent(tick=120, channel=0, data=[63, 43]),
   midi.NoteOnEvent(tick=40, channel=0, data=[72, 0]),
   midi.NoteOnEvent(tick=120, channel=0, data=[66, 44]),
   midi.NoteOnEvent(tick=160, channel=0, data=[63, 0]),
   midi.NoteOnEvent(tick=0, channel=0, data=[71, 44]),
   midi.NoteOnEvent(tick=40, channel=0, data=[66, 0]),
   midi.NoteOnEvent(tick=120, channel=0, data=[71, 0]),
   midi.NoteOnEvent(tick=0, channel=0, data=[74, 48]),
   midi.NoteOnEvent(tick=160, channel=0, data=[65, 42]),
   midi.NoteOnEvent(tick=160, channel=0, data=[74, 0]),
   midi.NoteOnEvent(tick=0, channel=0, data=[70, 43]),
   midi.NoteOnEvent(tick=40, channel=0, data=[65, 0]),
   midi.NoteOnEvent(tick=120, channel=0, data=[61, 43]),
   midi.NoteOnEvent(tick=40, channel=0, data=[70, 0]),
   midi.NoteOnEvent(tick=120, channel=0, data=[64, 45]),
   midi.NoteOnEvent(tick=160, channel=0, data=[61, 0]),
   midi.NoteOnEvent(tick=0, channel=0, data=[69, 45]),
   midi.NoteOnEvent(tick=40, channel=0, data=[64, 0]),
   midi.NoteOnEvent(tick=120, channel=0, data=[69, 0]),
   midi.NoteOnEvent(tick=0, channel=0, data=[72, 49]),
   midi.NoteOnEvent(tick=160, channel=0, data=[64, 45]),
   midi.NoteOnEvent(tick=40, channel=0, data=[72, 0]),
   midi.NoteOnEvent(tick=120, channel=0, data=[68, 45]),
   midi.NoteOnEvent(tick=40, channel=0, data=[64, 0]),
   midi.NoteOnEvent(tick=120, channel=0, data=[59, 45]),
   midi.NoteOnEvent(tick=40, channel=0, data=[68, 0]),
   midi.NoteOnEvent(tick=120, channel=0, data=[62, 43]),
   midi.NoteOnEvent(tick=40, channel=0, data=[59, 0]),
   midi.NoteOnEvent(tick=120, channel=0, data=[67, 43]),
   midi.NoteOnEvent(tick=40, channel=0, data=[62, 0]),
   midi.NoteOnEvent(tick=120, channel=0, data=[67, 0]),
   midi.NoteOnEvent(tick=0, channel=0, data=[71, 50]),
   midi.NoteOnEvent(tick=160, channel=0, data=[66, 45]),
   midi.NoteOnEvent(tick=40, channel=0, data=[71, 0]),
   midi.NoteOnEvent(tick=120, channel=0, data=[73, 45]),
   midi.NoteOnEvent(tick=40, channel=0, data=[66, 0]),
   midi.NoteOnEvent(tick=120, channel=0, data=[74, 50]),
   midi.NoteOnEvent(tick=40, channel=0, data=[73, 0]),
   midi.NoteOnEvent(tick=120, channel=0, data=[75, 52]),
   midi.NoteOnEvent(tick=40, channel=0, data=[74, 0]),
   midi.NoteOnEvent(tick=120, channel=0, data=[76, 54]),
   midi.NoteOnEvent(tick=40, channel=0, data=[75, 0]),
   midi.NoteOnEvent(tick=120, channel=0, data=[76, 0]),
   midi.NoteOnEvent(tick=0, channel=0, data=[77, 56]),
   midi.NoteOnEvent(tick=160, channel=0, data=[69, 45]),
   midi.NoteOnEvent(tick=40, channel=0, data=[77, 0]),
   midi.NoteOnEvent(tick=120, channel=0, data=[75, 45]),
   midi.NoteOnEvent(tick=40, channel=0, data=[69, 0]),
   midi.NoteOnEvent(tick=120, channel=0, data=[76, 54]),
   midi.NoteOnEvent(tick=40, channel=0, data=[75, 0]),
   midi.NoteOnEvent(tick=120, channel=0, data=[77, 53]),
   midi.NoteOnEvent(tick=40, channel=0, data=[76, 0]),
   midi.NoteOnEvent(tick=120, channel=0, data=[78, 56]),
   midi.NoteOnEvent(tick=40, channel=0, data=[77, 0]),
   midi.NoteOnEvent(tick=120, channel=0, data=[78, 0]),
   midi.NoteOnEvent(tick=0, channel=0, data=[77, 61]),
   midi.NoteOnEvent(tick=160, channel=0, data=[70, 46]),
   midi.NoteOnEvent(tick=40, channel=0, data=[77, 0]),
   midi.NoteOnEvent(tick=120, channel=0, data=[73, 50]),
   midi.NoteOnEvent(tick=40, channel=0, data=[70, 0]),
   midi.NoteOnEvent(tick=120, channel=0, data=[76, 55]),
   midi.NoteOnEvent(tick=40, channel=0, data=[73, 0]),
   midi.NoteOnEvent(tick=120, channel=0, data=[77, 57]),
   midi.NoteOnEvent(tick=40, channel=0, data=[76, 0]),
   midi.NoteOnEvent(tick=120, channel=0, data=[78, 59]),
   midi.NoteOnEvent(tick=40, channel=0, data=[77, 0]),
   midi.NoteOnEvent(tick=120, channel=0, data=[78, 0]),
   midi.NoteOnEvent(tick=0, channel=0, data=[79, 64]),
   midi.NoteOnEvent(tick=160, channel=0, data=[71, 47]),
   midi.NoteOnEvent(tick=40, channel=0, data=[79, 0]),
   midi.NoteOnEvent(tick=120, channel=0, data=[77, 54]),
   midi.NoteOnEvent(tick=40, channel=0, data=[71, 0]),
   midi.NoteOnEvent(tick=120, channel=0, data=[78, 60]),
   midi.NoteOnEvent(tick=40, channel=0, data=[77, 0]),
   midi.NoteOnEvent(tick=120, channel=0, data=[79, 60]),
   midi.NoteOnEvent(tick=40, channel=0, data=[78, 0]),
   midi.NoteOnEvent(tick=120, channel=0, data=[80, 65]),
   midi.NoteOnEvent(tick=40, channel=0, data=[79, 0]),
   midi.NoteOnEvent(tick=120, channel=0, data=[80, 0]),
   midi.NoteOnEvent(tick=0, channel=0, data=[79, 68]),
   midi.NoteOnEvent(tick=160, channel=0, data=[72, 51]),
   midi.NoteOnEvent(tick=40, channel=0, data=[79, 0]),
   midi.NoteOnEvent(tick=120, channel=0, data=[75, 60]),
   midi.NoteOnEvent(tick=40, channel=0, data=[72, 0]),
   midi.NoteOnEvent(tick=120, channel=0, data=[78, 64]),
   midi.NoteOnEvent(tick=40, channel=0, data=[75, 0]),
   midi.NoteOnEvent(tick=120, channel=0, data=[79, 67]),
   midi.NoteOnEvent(tick=40, channel=0, data=[78, 0]),
   midi.NoteOnEvent(tick=120, channel=0, data=[80, 68]),
   midi.NoteOnEvent(tick=40, channel=0, data=[79, 0]),
   midi.NoteOnEvent(tick=120, channel=0, data=[80, 0]),
   midi.NoteOnEvent(tick=0, channel=0, data=[75, 68]),
   midi.NoteOnEvent(tick=160, channel=0, data=[72, 58]),
   midi.NoteOnEvent(tick=160, channel=0, data=[75, 0]),
   midi.NoteOnEvent(tick=0, channel=0, data=[77, 51]),
   midi.NoteOnEvent(tick=40, channel=0, data=[72, 0]),
   midi.NoteOnEvent(tick=120, channel=0, data=[75, 53]),
   midi.NoteOnEvent(tick=40, channel=0, data=[77, 0]),
   midi.NoteOnEvent(tick=120, channel=0, data=[68, 49]),
   midi.NoteOnEvent(tick=160, channel=0, data=[75, 0]),
   midi.NoteOnEvent(tick=0, channel=0, data=[73, 52]),
   midi.NoteOnEvent(tick=40, channel=0, data=[68, 0]),
   midi.NoteOnEvent(tick=120, channel=0, data=[73, 0]),
   midi.NoteOnEvent(tick=0, channel=0, data=[72, 57]),
   midi.NoteOnEvent(tick=160, channel=0, data=[63, 45]),
   midi.NoteOnEvent(tick=160, channel=0, data=[72, 0]),
   midi.NoteOnEvent(tick=0, channel=0, data=[70, 47]),
   midi.NoteOnEvent(tick=40, channel=0, data=[63, 0]),
   midi.NoteOnEvent(tick=120, channel=0, data=[68, 50]),
   midi.NoteOnEvent(tick=40, channel=0, data=[70, 0]),
   midi.NoteOnEvent(tick=120, channel=0, data=[60, 47]),
   midi.NoteOnEvent(tick=160, channel=0, data=[68, 0]),
   midi.NoteOnEvent(tick=0, channel=0, data=[65, 47]),
   midi.NoteOnEvent(tick=40, channel=0, data=[60, 0]),
   midi.NoteOnEvent(tick=120, channel=0, data=[65, 0]),
   midi.NoteOnEvent(tick=0, channel=0, data=[63, 56]),
   midi.NoteOnEvent(tick=160, channel=0, data=[56, 45]),
   midi.NoteOnEvent(tick=40, channel=0, data=[63, 0]),
   midi.NoteOnEvent(tick=120, channel=0, data=[61, 45]),
   midi.NoteOnEvent(tick=40, channel=0, data=[56, 0]),
   midi.NoteOnEvent(tick=120, channel=0, data=[60, 45]),
   midi.NoteOnEvent(tick=40, channel=0, data=[61, 0]),
   midi.NoteOnEvent(tick=120, channel=0, data=[55, 42]),
   midi.NoteOnEvent(tick=40, channel=0, data=[60, 0]),
   midi.NoteOnEvent(tick=120, channel=0, data=[56, 43]),
   midi.NoteOnEvent(tick=40, channel=0, data=[55, 0]),
   midi.NoteOnEvent(tick=120, channel=0, data=[56, 0]),
   midi.NoteOnEvent(tick=0, channel=0, data=[60, 47]),
   midi.NoteOnEvent(tick=160, channel=0, data=[54, 39]),
   midi.NoteOnEvent(tick=40, channel=0, data=[60, 0]),
   midi.NoteOnEvent(tick=120, channel=0, data=[62, 38]),
   midi.NoteOnEvent(tick=40, channel=0, data=[54, 0]),
   midi.NoteOnEvent(tick=120, channel=0, data=[60, 40]),
   midi.NoteOnEvent(tick=40, channel=0, data=[62, 0]),
   midi.NoteOnEvent(tick=120, channel=0, data=[53, 39]),
   midi.NoteOnEvent(tick=40, channel=0, data=[60, 0]),
   midi.NoteOnEvent(tick=120, channel=0, data=[54, 37]),
   midi.NoteOnEvent(tick=40, channel=0, data=[53, 0]),
   midi.NoteOnEvent(tick=120, channel=0, data=[54, 0]),
   midi.NoteOnEvent(tick=0, channel=0, data=[55, 42]),
   midi.NoteOnEvent(tick=160, channel=0, data=[57, 38]),
   midi.NoteOnEvent(tick=40, channel=0, data=[55, 0]),
   midi.NoteOnEvent(tick=120, channel=0, data=[59, 35]),
   midi.NoteOnEvent(tick=40, channel=0, data=[57, 0]),
   midi.NoteOnEvent(tick=120, channel=0, data=[60, 36]),
   midi.NoteOnEvent(tick=40, channel=0, data=[59, 0]),
   midi.NoteOnEvent(tick=120, channel=0, data=[62, 38]),
   midi.NoteOnEvent(tick=40, channel=0, data=[60, 0]),
   midi.NoteOnEvent(tick=120, channel=0, data=[63, 42]),
   midi.NoteOnEvent(tick=40, channel=0, data=[62, 0]),
   midi.NoteOnEvent(tick=120, channel=0, data=[63, 0]),
   midi.NoteOnEvent(tick=0, channel=0, data=[56, 45]),
   midi.NoteOnEvent(tick=160, channel=0, data=[58, 36]),
   midi.NoteOnEvent(tick=40, channel=0, data=[56, 0]),
   midi.NoteOnEvent(tick=120, channel=0, data=[59, 34]),
   midi.NoteOnEvent(tick=40, channel=0, data=[58, 0]),
   midi.NoteOnEvent(tick=120, channel=0, data=[60, 38]),
   midi.NoteOnEvent(tick=40, channel=0, data=[59, 0]),
   midi.NoteOnEvent(tick=120, channel=0, data=[61, 37]),
   midi.NoteOnEvent(tick=40, channel=0, data=[60, 0]),
   midi.NoteOnEvent(tick=120, channel=0, data=[63, 37]),
   midi.NoteOnEvent(tick=40, channel=0, data=[61, 0]),
   midi.NoteOnEvent(tick=120, channel=0, data=[63, 0]),
   midi.NoteOnEvent(tick=0, channel=0, data=[57, 48]),
   midi.NoteOnEvent(tick=160, channel=0, data=[58, 41]),
   midi.NoteOnEvent(tick=40, channel=0, data=[57, 0]),
   midi.NoteOnEvent(tick=120, channel=0, data=[60, 38]),
   midi.NoteOnEvent(tick=40, channel=0, data=[58, 0]),
   midi.NoteOnEvent(tick=120, channel=0, data=[61, 43]),
   midi.NoteOnEvent(tick=40, channel=0, data=[60, 0]),
   midi.NoteOnEvent(tick=120, channel=0, data=[63, 41]),
   midi.NoteOnEvent(tick=40, channel=0, data=[61, 0]),
   midi.NoteOnEvent(tick=120, channel=0, data=[65, 42]),
   midi.NoteOnEvent(tick=40, channel=0, data=[63, 0]),
   midi.NoteOnEvent(tick=120, channel=0, data=[65, 0]),
   midi.NoteOnEvent(tick=0, channel=0, data=[58, 48]),
   midi.NoteOnEvent(tick=160, channel=0, data=[59, 38]),
   midi.NoteOnEvent(tick=40, channel=0, data=[58, 0]),
   midi.NoteOnEvent(tick=120, channel=0, data=[60, 39]),
   midi.NoteOnEvent(tick=40, channel=0, data=[59, 0]),
   midi.NoteOnEvent(tick=120, channel=0, data=[61, 43]),
   midi.NoteOnEvent(tick=40, channel=0, data=[60, 0]),
   midi.NoteOnEvent(tick=120, channel=0, data=[63, 39]),
   midi.NoteOnEvent(tick=40, channel=0, data=[61, 0]),
   midi.NoteOnEvent(tick=120, channel=0, data=[65, 43]),
   midi.NoteOnEvent(tick=40, channel=0, data=[63, 0]),
   midi.NoteOnEvent(tick=120, channel=0, data=[65, 0]),
   midi.NoteOnEvent(tick=0, channel=0, data=[60, 51]),
   midi.NoteOnEvent(tick=160, channel=0, data=[61, 43]),
   midi.NoteOnEvent(tick=40, channel=0, data=[60, 0]),
   midi.NoteOnEvent(tick=120, channel=0, data=[62, 39]),
   midi.NoteOnEvent(tick=40, channel=0, data=[61, 0]),
   midi.NoteOnEvent(tick=120, channel=0, data=[63, 44]),
   midi.NoteOnEvent(tick=40, channel=0, data=[62, 0]),
   midi.NoteOnEvent(tick=120, channel=0, data=[65, 43]),
   midi.NoteOnEvent(tick=40, channel=0, data=[63, 0]),
   midi.NoteOnEvent(tick=120, channel=0, data=[66, 45]),
   midi.NoteOnEvent(tick=40, channel=0, data=[65, 0]),
   midi.NoteOnEvent(tick=120, channel=0, data=[66, 0]),
   midi.NoteOnEvent(tick=0, channel=0, data=[57, 51]),
   midi.NoteOnEvent(tick=160, channel=0, data=[61, 43]),
   midi.NoteOnEvent(tick=40, channel=0, data=[57, 0]),
   midi.NoteOnEvent(tick=120, channel=0, data=[62, 43]),
   midi.NoteOnEvent(tick=40, channel=0, data=[61, 0]),
   midi.NoteOnEvent(tick=120, channel=0, data=[63, 47]),
   midi.NoteOnEvent(tick=40, channel=0, data=[62, 0]),
   midi.NoteOnEvent(tick=120, channel=0, data=[65, 45]),
   midi.NoteOnEvent(tick=40, channel=0, data=[63, 0]),
   midi.NoteOnEvent(tick=120, channel=0, data=[66, 48]),
   midi.NoteOnEvent(tick=40, channel=0, data=[65, 0]),
   midi.NoteOnEvent(tick=120, channel=0, data=[66, 0]),
   midi.NoteOnEvent(tick=0, channel=0, data=[69, 59]),
   midi.NoteOnEvent(tick=160, channel=0, data=[66, 48]),
   midi.NoteOnEvent(tick=40, channel=0, data=[69, 0]),
   midi.NoteOnEvent(tick=120, channel=0, data=[64, 48]),
   midi.NoteOnEvent(tick=40, channel=0, data=[66, 0]),
   midi.NoteOnEvent(tick=120, channel=0, data=[62, 49]),
   midi.NoteOnEvent(tick=40, channel=0, data=[64, 0]),
   midi.NoteOnEvent(tick=120, channel=0, data=[64, 45]),
   midi.NoteOnEvent(tick=40, channel=0, data=[62, 0]),
   midi.NoteOnEvent(tick=120, channel=0, data=[66, 46]),
   midi.NoteOnEvent(tick=40, channel=0, data=[64, 0]),
   midi.NoteOnEvent(tick=120, channel=0, data=[66, 0]),
   midi.NoteOnEvent(tick=0, channel=0, data=[57, 51]),
   midi.NoteOnEvent(tick=160, channel=0, data=[61, 43]),
   midi.NoteOnEvent(tick=40, channel=0, data=[57, 0]),
   midi.NoteOnEvent(tick=120, channel=0, data=[62, 41]),
   midi.NoteOnEvent(tick=40, channel=0, data=[61, 0]),
   midi.NoteOnEvent(tick=120, channel=0, data=[64, 45]),
   midi.NoteOnEvent(tick=40, channel=0, data=[62, 0]),
   midi.NoteOnEvent(tick=120, channel=0, data=[65, 40]),
   midi.NoteOnEvent(tick=40, channel=0, data=[64, 0]),
   midi.NoteOnEvent(tick=120, channel=0, data=[66, 45]),
   midi.NoteOnEvent(tick=40, channel=0, data=[65, 0]),
   midi.NoteOnEvent(tick=120, channel=0, data=[66, 0]),
   midi.NoteOnEvent(tick=0, channel=0, data=[69, 51]),
   midi.NoteOnEvent(tick=160, channel=0, data=[68, 44]),
   midi.NoteOnEvent(tick=40, channel=0, data=[69, 0]),
   midi.NoteOnEvent(tick=120, channel=0, data=[67, 40]),
   midi.NoteOnEvent(tick=40, channel=0, data=[68, 0]),
   midi.NoteOnEvent(tick=120, channel=0, data=[66, 46]),
   midi.NoteOnEvent(tick=40, channel=0, data=[67, 0]),
   midi.NoteOnEvent(tick=120, channel=0, data=[63, 43]),
   midi.NoteOnEvent(tick=40, channel=0, data=[66, 0]),
   midi.NoteOnEvent(tick=120, channel=0, data=[60, 44]),
   midi.NoteOnEvent(tick=40, channel=0, data=[63, 0]),
   midi.NoteOnEvent(tick=120, channel=0, data=[60, 0]),
   midi.NoteOnEvent(tick=0, channel=0, data=[66, 49]),
   midi.NoteOnEvent(tick=160, channel=0, data=[63, 43]),
   midi.NoteOnEvent(tick=40, channel=0, data=[66, 0]),
   midi.NoteOnEvent(tick=120, channel=0, data=[60, 43]),
   midi.NoteOnEvent(tick=40, channel=0, data=[63, 0]),
   midi.NoteOnEvent(tick=120, channel=0, data=[58, 45]),
   midi.NoteOnEvent(tick=40, channel=0, data=[60, 0]),
   midi.NoteOnEvent(tick=120, channel=0, data=[57, 44]),
   midi.NoteOnEvent(tick=40, channel=0, data=[58, 0]),
   midi.NoteOnEvent(tick=120, channel=0, data=[56, 43]),
   midi.NoteOnEvent(tick=40, channel=0, data=[57, 0]),
   midi.NoteOnEvent(tick=120, channel=0, data=[56, 0]),
   midi.NoteOnEvent(tick=0, channel=0, data=[55, 46]),
   midi.NoteOnEvent(tick=160, channel=0, data=[56, 39]),
   midi.NoteOnEvent(tick=40, channel=0, data=[55, 0]),
   midi.NoteOnEvent(tick=120, channel=0, data=[57, 39]),
   midi.NoteOnEvent(tick=40, channel=0, data=[56, 0]),
   midi.NoteOnEvent(tick=120, channel=0, data=[53, 39]),
   midi.NoteOnEvent(tick=40, channel=0, data=[57, 0]),
   midi.NoteOnEvent(tick=120, channel=0, data=[54, 39]),
   midi.NoteOnEvent(tick=40, channel=0, data=[53, 0]),
   midi.NoteOnEvent(tick=120, channel=0, data=[56, 39]),
   midi.NoteOnEvent(tick=40, channel=0, data=[54, 0]),
   midi.NoteOnEvent(tick=120, channel=0, data=[56, 0]),
   midi.NoteOnEvent(tick=0, channel=0, data=[52, 44]),
   midi.NoteOnEvent(tick=160, channel=0, data=[53, 38]),
   midi.NoteOnEvent(tick=40, channel=0, data=[52, 0]),
   midi.NoteOnEvent(tick=120, channel=0, data=[54, 37]),
   midi.NoteOnEvent(tick=40, channel=0, data=[53, 0]),
   midi.NoteOnEvent(tick=120, channel=0, data=[50, 38]),
   midi.NoteOnEvent(tick=40, channel=0, data=[54, 0]),
   midi.NoteOnEvent(tick=120, channel=0, data=[51, 36]),
   midi.NoteOnEvent(tick=40, channel=0, data=[50, 0]),
   midi.NoteOnEvent(tick=120, channel=0, data=[53, 36]),
   midi.NoteOnEvent(tick=40, channel=0, data=[51, 0]),
   midi.NoteOnEvent(tick=120, channel=0, data=[53, 0]),
   midi.NoteOnEvent(tick=0, channel=0, data=[43, 38]),
   midi.NoteOnEvent(tick=160, channel=0, data=[44, 34]),
   midi.NoteOnEvent(tick=40, channel=0, data=[43, 0]),
   midi.NoteOnEvent(tick=120, channel=0, data=[46, 34]),
   midi.NoteOnEvent(tick=40, channel=0, data=[44, 0]),
   midi.NoteOnEvent(tick=120, channel=0, data=[48, 36]),
   midi.NoteOnEvent(tick=40, channel=0, data=[46, 0]),
   midi.NoteOnEvent(tick=120, channel=0, data=[49, 38]),
   midi.NoteOnEvent(tick=40, channel=0, data=[48, 0]),
   midi.NoteOnEvent(tick=120, channel=0, data=[51, 39]),
   midi.NoteOnEvent(tick=40, channel=0, data=[49, 0]),
   midi.NoteOnEvent(tick=120, channel=0, data=[51, 0]),
   midi.NoteOnEvent(tick=0, channel=0, data=[53, 41]),
   midi.NoteOnEvent(tick=160, channel=0, data=[54, 40]),
   midi.NoteOnEvent(tick=40, channel=0, data=[53, 0]),
   midi.NoteOnEvent(tick=120, channel=0, data=[55, 41]),
   midi.NoteOnEvent(tick=40, channel=0, data=[54, 0]),
   midi.NoteOnEvent(tick=120, channel=0, data=[56, 42]),
   midi.NoteOnEvent(tick=40, channel=0, data=[55, 0]),
   midi.NoteOnEvent(tick=120, channel=0, data=[53, 41]),
   midi.NoteOnEvent(tick=40, channel=0, data=[56, 0]),
   midi.NoteOnEvent(tick=120, channel=0, data=[58, 41]),
   midi.NoteOnEvent(tick=40, channel=0, data=[53, 0]),
   midi.NoteOnEvent(tick=120, channel=0, data=[58, 0]),
   midi.NoteOnEvent(tick=0, channel=0, data=[56, 46]),
   midi.NoteOnEvent(tick=160, channel=0, data=[65, 49]),
   midi.NoteOnEvent(tick=40, channel=0, data=[56, 0]),
   midi.NoteOnEvent(tick=120, channel=0, data=[63, 47]),
   midi.NoteOnEvent(tick=40, channel=0, data=[65, 0]),
   midi.NoteOnEvent(tick=120, channel=0, data=[61, 49]),
   midi.NoteOnEvent(tick=40, channel=0, data=[63, 0]),
   midi.NoteOnEvent(tick=120, channel=0, data=[60, 46]),
   midi.NoteOnEvent(tick=40, channel=0, data=[61, 0]),
   midi.NoteOnEvent(tick=120, channel=0, data=[58, 46]),
   midi.NoteOnEvent(tick=40, channel=0, data=[60, 0]),
   midi.NoteOnEvent(tick=120, channel=0, data=[58, 0]),
   midi.NoteOnEvent(tick=0, channel=0, data=[56, 45]),
   midi.NoteOnEvent(tick=160, channel=0, data=[53, 43]),
   midi.NoteOnEvent(tick=40, channel=0, data=[56, 0]),
   midi.NoteOnEvent(tick=120, channel=0, data=[54, 43]),
   midi.NoteOnEvent(tick=40, channel=0, data=[53, 0]),
   midi.NoteOnEvent(tick=120, channel=0, data=[56, 43]),
   midi.NoteOnEvent(tick=40, channel=0, data=[54, 0]),
   midi.NoteOnEvent(tick=120, channel=0, data=[53, 46]),
   midi.NoteOnEvent(tick=40, channel=0, data=[56, 0]),
   midi.NoteOnEvent(tick=120, channel=0, data=[58, 45]),
   midi.NoteOnEvent(tick=40, channel=0, data=[53, 0]),
   midi.NoteOnEvent(tick=120, channel=0, data=[58, 0]),
   midi.NoteOnEvent(tick=0, channel=0, data=[56, 51]),
   midi.NoteOnEvent(tick=160, channel=0, data=[51, 44]),
   midi.NoteOnEvent(tick=40, channel=0, data=[56, 0]),
   midi.NoteOnEvent(tick=120, channel=0, data=[53, 44]),
   midi.NoteOnEvent(tick=40, channel=0, data=[51, 0]),
   midi.NoteOnEvent(tick=120, channel=0, data=[54, 45]),
   midi.NoteOnEvent(tick=40, channel=0, data=[53, 0]),
   midi.NoteOnEvent(tick=120, channel=0, data=[51, 43]),
   midi.NoteOnEvent(tick=40, channel=0, data=[54, 0]),
   midi.NoteOnEvent(tick=120, channel=0, data=[58, 53]),
   midi.NoteOnEvent(tick=40, channel=0, data=[51, 0]),
   midi.NoteOnEvent(tick=120, channel=0, data=[58, 0]),
   midi.NoteOnEvent(tick=0, channel=0, data=[56, 51]),
   midi.NoteOnEvent(tick=160, channel=0, data=[49, 46]),
   midi.NoteOnEvent(tick=40, channel=0, data=[56, 0]),
   midi.NoteOnEvent(tick=120, channel=0, data=[51, 47]),
   midi.NoteOnEvent(tick=40, channel=0, data=[49, 0]),
   midi.NoteOnEvent(tick=120, channel=0, data=[53, 51]),
   midi.NoteOnEvent(tick=40, channel=0, data=[51, 0]),
   midi.NoteOnEvent(tick=120, channel=0, data=[49, 47]),
   midi.NoteOnEvent(tick=40, channel=0, data=[53, 0]),
   midi.NoteOnEvent(tick=120, channel=0, data=[58, 53]),
   midi.NoteOnEvent(tick=40, channel=0, data=[49, 0]),
   midi.NoteOnEvent(tick=120, channel=0, data=[58, 0]),
   midi.NoteOnEvent(tick=0, channel=0, data=[56, 51]),
   midi.NoteOnEvent(tick=160, channel=0, data=[48, 44]),
   midi.NoteOnEvent(tick=40, channel=0, data=[56, 0]),
   midi.NoteOnEvent(tick=120, channel=0, data=[49, 44]),
   midi.NoteOnEvent(tick=40, channel=0, data=[48, 0]),
   midi.NoteOnEvent(tick=120, channel=0, data=[51, 46]),
   midi.NoteOnEvent(tick=40, channel=0, data=[49, 0]),
   midi.NoteOnEvent(tick=120, channel=0, data=[48, 43]),
   midi.NoteOnEvent(tick=40, channel=0, data=[51, 0]),
   midi.NoteOnEvent(tick=120, channel=0, data=[53, 50]),
   midi.NoteOnEvent(tick=40, channel=0, data=[48, 0]),
   midi.NoteOnEvent(tick=120, channel=0, data=[53, 0]),
   midi.NoteOnEvent(tick=0, channel=0, data=[51, 48]),
   midi.NoteOnEvent(tick=160, channel=0, data=[46, 46]),
   midi.NoteOnEvent(tick=40, channel=0, data=[51, 0]),
   midi.NoteOnEvent(tick=120, channel=0, data=[53, 47]),
   midi.NoteOnEvent(tick=40, channel=0, data=[46, 0]),
   midi.NoteOnEvent(tick=120, channel=0, data=[51, 51]),
   midi.NoteOnEvent(tick=40, channel=0, data=[53, 0]),
   midi.NoteOnEvent(tick=120, channel=0, data=[44, 47]),
   midi.NoteOnEvent(tick=40, channel=0, data=[51, 0]),
   midi.NoteOnEvent(tick=120, channel=0, data=[46, 47]),
   midi.NoteOnEvent(tick=40, channel=0, data=[44, 0]),
   midi.NoteOnEvent(tick=120, channel=0, data=[46, 0]),
   midi.NoteOnEvent(tick=0, channel=0, data=[44, 51]),
   midi.NoteOnEvent(tick=160, channel=0, data=[49, 40]),
   midi.NoteOnEvent(tick=40, channel=0, data=[44, 0]),
   midi.NoteOnEvent(tick=120, channel=0, data=[51, 42]),
   midi.NoteOnEvent(tick=40, channel=0, data=[49, 0]),
   midi.NoteOnEvent(tick=120, channel=0, data=[53, 43]),
   midi.NoteOnEvent(tick=40, channel=0, data=[51, 0]),
   midi.NoteOnEvent(tick=120, channel=0, data=[54, 45]),
   midi.NoteOnEvent(tick=40, channel=0, data=[53, 0]),
   midi.NoteOnEvent(tick=120, channel=0, data=[56, 46]),
   midi.NoteOnEvent(tick=40, channel=0, data=[54, 0]),
   midi.NoteOnEvent(tick=120, channel=0, data=[56, 0]),
   midi.NoteOnEvent(tick=0, channel=0, data=[58, 48]),
   midi.NoteOnEvent(tick=160, channel=0, data=[60, 51]),
   midi.NoteOnEvent(tick=40, channel=0, data=[58, 0]),
   midi.NoteOnEvent(tick=120, channel=0, data=[61, 48]),
   midi.NoteOnEvent(tick=40, channel=0, data=[60, 0]),
   midi.NoteOnEvent(tick=120, channel=0, data=[63, 53]),
   midi.NoteOnEvent(tick=40, channel=0, data=[61, 0]),
   midi.NoteOnEvent(tick=120, channel=0, data=[65, 50]),
   midi.NoteOnEvent(tick=40, channel=0, data=[63, 0]),
   midi.NoteOnEvent(tick=120, channel=0, data=[66, 56]),
   midi.NoteOnEvent(tick=40, channel=0, data=[65, 0]),
   midi.NoteOnEvent(tick=120, channel=0, data=[66, 0]),
   midi.NoteOnEvent(tick=0, channel=0, data=[68, 59]),
   midi.NoteOnEvent(tick=160, channel=0, data=[77, 60]),
   midi.NoteOnEvent(tick=40, channel=0, data=[68, 0]),
   midi.NoteOnEvent(tick=120, channel=0, data=[75, 57]),
   midi.NoteOnEvent(tick=40, channel=0, data=[77, 0]),
   midi.NoteOnEvent(tick=120, channel=0, data=[73, 56]),
   midi.NoteOnEvent(tick=40, channel=0, data=[75, 0]),
   midi.NoteOnEvent(tick=120, channel=0, data=[72, 54]),
   midi.NoteOnEvent(tick=40, channel=0, data=[73, 0]),
   midi.NoteOnEvent(tick=120, channel=0, data=[70, 54]),
   midi.NoteOnEvent(tick=40, channel=0, data=[72, 0]),
   midi.NoteOnEvent(tick=120, channel=0, data=[70, 0]),
   midi.NoteOnEvent(tick=0, channel=0, data=[68, 56]),
   midi.NoteOnEvent(tick=160, channel=0, data=[65, 51]),
   midi.NoteOnEvent(tick=40, channel=0, data=[68, 0]),
   midi.NoteOnEvent(tick=120, channel=0, data=[66, 51]),
   midi.NoteOnEvent(tick=40, channel=0, data=[65, 0]),
   midi.NoteOnEvent(tick=120, channel=0, data=[68, 52]),
   midi.NoteOnEvent(tick=40, channel=0, data=[66, 0]),
   midi.NoteOnEvent(tick=120, channel=0, data=[65, 51]),
   midi.NoteOnEvent(tick=40, channel=0, data=[68, 0]),
   midi.NoteOnEvent(tick=120, channel=0, data=[70, 51]),
   midi.NoteOnEvent(tick=40, channel=0, data=[65, 0]),
   midi.NoteOnEvent(tick=120, channel=0, data=[70, 0]),
   midi.NoteOnEvent(tick=0, channel=0, data=[68, 56]),
   midi.NoteOnEvent(tick=160, channel=0, data=[63, 48]),
   midi.NoteOnEvent(tick=40, channel=0, data=[68, 0]),
   midi.NoteOnEvent(tick=120, channel=0, data=[65, 48]),
   midi.NoteOnEvent(tick=40, channel=0, data=[63, 0]),
   midi.NoteOnEvent(tick=120, channel=0, data=[66, 53]),
   midi.NoteOnEvent(tick=40, channel=0, data=[65, 0]),
   midi.NoteOnEvent(tick=120, channel=0, data=[63, 51]),
   midi.NoteOnEvent(tick=40, channel=0, data=[66, 0]),
   midi.NoteOnEvent(tick=120, channel=0, data=[70, 51]),
   midi.NoteOnEvent(tick=40, channel=0, data=[63, 0]),
   midi.NoteOnEvent(tick=120, channel=0, data=[70, 0]),
   midi.NoteOnEvent(tick=0, channel=0, data=[68, 52]),
   midi.NoteOnEvent(tick=160, channel=0, data=[61, 46]),
   midi.NoteOnEvent(tick=40, channel=0, data=[68, 0]),
   midi.NoteOnEvent(tick=120, channel=0, data=[63, 46]),
   midi.NoteOnEvent(tick=40, channel=0, data=[61, 0]),
   midi.NoteOnEvent(tick=120, channel=0, data=[65, 51]),
   midi.NoteOnEvent(tick=40, channel=0, data=[63, 0]),
   midi.NoteOnEvent(tick=120, channel=0, data=[61, 49]),
   midi.NoteOnEvent(tick=40, channel=0, data=[65, 0]),
   midi.NoteOnEvent(tick=120, channel=0, data=[70, 56]),
   midi.NoteOnEvent(tick=40, channel=0, data=[61, 0]),
   midi.NoteOnEvent(tick=120, channel=0, data=[70, 0]),
   midi.NoteOnEvent(tick=0, channel=0, data=[68, 52]),
   midi.NoteOnEvent(tick=160, channel=0, data=[60, 48]),
   midi.NoteOnEvent(tick=40, channel=0, data=[68, 0]),
   midi.NoteOnEvent(tick=120, channel=0, data=[61, 40]),
   midi.NoteOnEvent(tick=40, channel=0, data=[60, 0]),
   midi.NoteOnEvent(tick=120, channel=0, data=[63, 48]),
   midi.NoteOnEvent(tick=40, channel=0, data=[61, 0]),
   midi.NoteOnEvent(tick=120, channel=0, data=[60, 47]),
   midi.NoteOnEvent(tick=40, channel=0, data=[63, 0]),
   midi.NoteOnEvent(tick=120, channel=0, data=[65, 43]),
   midi.NoteOnEvent(tick=40, channel=0, data=[60, 0]),
   midi.NoteOnEvent(tick=120, channel=0, data=[65, 0]),
   midi.NoteOnEvent(tick=0, channel=0, data=[63, 51]),
   midi.NoteOnEvent(tick=160, channel=0, data=[58, 46]),
   midi.NoteOnEvent(tick=40, channel=0, data=[63, 0]),
   midi.NoteOnEvent(tick=120, channel=0, data=[65, 47]),
   midi.NoteOnEvent(tick=40, channel=0, data=[58, 0]),
   midi.NoteOnEvent(tick=120, channel=0, data=[63, 49]),
   midi.NoteOnEvent(tick=40, channel=0, data=[65, 0]),
   midi.NoteOnEvent(tick=120, channel=0, data=[56, 48]),
   midi.NoteOnEvent(tick=40, channel=0, data=[63, 0]),
   midi.NoteOnEvent(tick=120, channel=0, data=[65, 49]),
   midi.NoteOnEvent(tick=40, channel=0, data=[56, 0]),
   midi.NoteOnEvent(tick=120, channel=0, data=[65, 0]),
   midi.NoteOnEvent(tick=0, channel=0, data=[66, 53]),
   midi.NoteOnEvent(tick=160, channel=0, data=[65, 49]),
   midi.NoteOnEvent(tick=40, channel=0, data=[66, 0]),
   midi.NoteOnEvent(tick=120, channel=0, data=[63, 51]),
   midi.NoteOnEvent(tick=40, channel=0, data=[65, 0]),
   midi.NoteOnEvent(tick=120, channel=0, data=[61, 49]),
   midi.NoteOnEvent(tick=40, channel=0, data=[63, 0]),
   midi.NoteOnEvent(tick=120, channel=0, data=[60, 48]),
   midi.NoteOnEvent(tick=40, channel=0, data=[61, 0]),
   midi.NoteOnEvent(tick=120, channel=0, data=[58, 44]),
   midi.NoteOnEvent(tick=40, channel=0, data=[60, 0]),
   midi.NoteOnEvent(tick=120, channel=0, data=[58, 0]),
   midi.NoteOnEvent(tick=0, channel=0, data=[57, 54]),
   midi.NoteOnEvent(tick=160, channel=0, data=[65, 47]),
   midi.NoteOnEvent(tick=160, channel=0, data=[57, 0]),
   midi.NoteOnEvent(tick=0, channel=0, data=[60, 46]),
   midi.NoteOnEvent(tick=40, channel=0, data=[65, 0]),
   midi.NoteOnEvent(tick=120, channel=0, data=[63, 49]),
   midi.NoteOnEvent(tick=40, channel=0, data=[60, 0]),
   midi.NoteOnEvent(tick=120, channel=0, data=[61, 47]),
   midi.NoteOnEvent(tick=40, channel=0, data=[63, 0]),
   midi.NoteOnEvent(tick=120, channel=0, data=[58, 47]),
   midi.NoteOnEvent(tick=40, channel=0, data=[61, 0]),
   midi.NoteOnEvent(tick=120, channel=0, data=[58, 0]),
   midi.NoteOnEvent(tick=0, channel=0, data=[57, 54]),
   midi.NoteOnEvent(tick=160, channel=0, data=[65, 47]),
   midi.NoteOnEvent(tick=160, channel=0, data=[57, 0]),
   midi.NoteOnEvent(tick=0, channel=0, data=[60, 46]),
   midi.NoteOnEvent(tick=40, channel=0, data=[65, 0]),
   midi.NoteOnEvent(tick=120, channel=0, data=[63, 47]),
   midi.NoteOnEvent(tick=40, channel=0, data=[60, 0]),
   midi.NoteOnEvent(tick=120, channel=0, data=[61, 45]),
   midi.NoteOnEvent(tick=40, channel=0, data=[63, 0]),
   midi.NoteOnEvent(tick=120, channel=0, data=[58, 45]),
   midi.NoteOnEvent(tick=40, channel=0, data=[61, 0]),
   midi.NoteOnEvent(tick=120, channel=0, data=[58, 0]),
   midi.NoteOnEvent(tick=0, channel=0, data=[57, 54]),
   midi.NoteOnEvent(tick=160, channel=0, data=[65, 47]),
   midi.NoteOnEvent(tick=160, channel=0, data=[57, 0]),
   midi.NoteOnEvent(tick=0, channel=0, data=[60, 46]),
   midi.NoteOnEvent(tick=40, channel=0, data=[65, 0]),
   midi.NoteOnEvent(tick=120, channel=0, data=[63, 49]),
   midi.NoteOnEvent(tick=40, channel=0, data=[60, 0]),
   midi.NoteOnEvent(tick=120, channel=0, data=[61, 47]),
   midi.NoteOnEvent(tick=40, channel=0, data=[63, 0]),
   midi.NoteOnEvent(tick=120, channel=0, data=[58, 45]),
   midi.NoteOnEvent(tick=40, channel=0, data=[61, 0]),
   midi.NoteOnEvent(tick=120, channel=0, data=[58, 0]),
   midi.NoteOnEvent(tick=0, channel=0, data=[68, 53]),
   midi.NoteOnEvent(tick=160, channel=0, data=[67, 47]),
   midi.NoteOnEvent(tick=40, channel=0, data=[68, 0]),
   midi.NoteOnEvent(tick=120, channel=0, data=[65, 45]),
   midi.NoteOnEvent(tick=40, channel=0, data=[67, 0]),
   midi.NoteOnEvent(tick=120, channel=0, data=[63, 49]),
   midi.NoteOnEvent(tick=40, channel=0, data=[65, 0]),
   midi.NoteOnEvent(tick=120, channel=0, data=[62, 45]),
   midi.NoteOnEvent(tick=40, channel=0, data=[63, 0]),
   midi.NoteOnEvent(tick=120, channel=0, data=[60, 47]),
   midi.NoteOnEvent(tick=40, channel=0, data=[62, 0]),
   midi.NoteOnEvent(tick=120, channel=0, data=[60, 0]),
   midi.NoteOnEvent(tick=0, channel=0, data=[59, 49]),
   midi.NoteOnEvent(tick=160, channel=0, data=[67, 47]),
   midi.NoteOnEvent(tick=160, channel=0, data=[59, 0]),
   midi.NoteOnEvent(tick=0, channel=0, data=[62, 43]),
   midi.NoteOnEvent(tick=40, channel=0, data=[67, 0]),
   midi.NoteOnEvent(tick=120, channel=0, data=[65, 47]),
   midi.NoteOnEvent(tick=40, channel=0, data=[62, 0]),
   midi.NoteOnEvent(tick=120, channel=0, data=[63, 47]),
   midi.NoteOnEvent(tick=40, channel=0, data=[65, 0]),
   midi.NoteOnEvent(tick=120, channel=0, data=[60, 47]),
   midi.NoteOnEvent(tick=40, channel=0, data=[63, 0]),
   midi.NoteOnEvent(tick=120, channel=0, data=[60, 0]),
   midi.NoteOnEvent(tick=0, channel=0, data=[59, 49]),
   midi.NoteOnEvent(tick=160, channel=0, data=[67, 47]),
   midi.NoteOnEvent(tick=160, channel=0, data=[59, 0]),
   midi.NoteOnEvent(tick=0, channel=0, data=[62, 44]),
   midi.NoteOnEvent(tick=40, channel=0, data=[67, 0]),
   midi.NoteOnEvent(tick=120, channel=0, data=[65, 51]),
   midi.NoteOnEvent(tick=40, channel=0, data=[62, 0]),
   midi.NoteOnEvent(tick=120, channel=0, data=[63, 47]),
   midi.NoteOnEvent(tick=40, channel=0, data=[65, 0]),
   midi.NoteOnEvent(tick=120, channel=0, data=[60, 47]),
   midi.NoteOnEvent(tick=40, channel=0, data=[63, 0]),
   midi.NoteOnEvent(tick=120, channel=0, data=[60, 0]),
   midi.NoteOnEvent(tick=0, channel=0, data=[59, 54]),
   midi.NoteOnEvent(tick=160, channel=0, data=[67, 47]),
   midi.NoteOnEvent(tick=160, channel=0, data=[59, 0]),
   midi.NoteOnEvent(tick=0, channel=0, data=[62, 43]),
   midi.NoteOnEvent(tick=40, channel=0, data=[67, 0]),
   midi.NoteOnEvent(tick=120, channel=0, data=[65, 51]),
   midi.NoteOnEvent(tick=40, channel=0, data=[62, 0]),
   midi.NoteOnEvent(tick=120, channel=0, data=[63, 47]),
   midi.NoteOnEvent(tick=40, channel=0, data=[65, 0]),
   midi.NoteOnEvent(tick=120, channel=0, data=[60, 47]),
   midi.NoteOnEvent(tick=40, channel=0, data=[63, 0]),
   midi.NoteOnEvent(tick=120, channel=0, data=[60, 0]),
   midi.NoteOnEvent(tick=0, channel=0, data=[73, 67]),
   midi.NoteOnEvent(tick=160, channel=0, data=[72, 58]),
   midi.NoteOnEvent(tick=40, channel=0, data=[73, 0]),
   midi.NoteOnEvent(tick=120, channel=0, data=[70, 56]),
   midi.NoteOnEvent(tick=40, channel=0, data=[72, 0]),
   midi.NoteOnEvent(tick=120, channel=0, data=[68, 56]),
   midi.NoteOnEvent(tick=40, channel=0, data=[70, 0]),
   midi.NoteOnEvent(tick=120, channel=0, data=[67, 55]),
   midi.NoteOnEvent(tick=40, channel=0, data=[68, 0]),
   midi.NoteOnEvent(tick=120, channel=0, data=[65, 55]),
   midi.NoteOnEvent(tick=40, channel=0, data=[67, 0]),
   midi.NoteOnEvent(tick=120, channel=0, data=[65, 0]),
   midi.NoteOnEvent(tick=0, channel=0, data=[70, 61]),
   midi.NoteOnEvent(tick=160, channel=0, data=[64, 55]),
   midi.NoteOnEvent(tick=40, channel=0, data=[70, 0]),
   midi.NoteOnEvent(tick=120, channel=0, data=[67, 54]),
   midi.NoteOnEvent(tick=40, channel=0, data=[64, 0]),
   midi.NoteOnEvent(tick=120, channel=0, data=[61, 56]),
   midi.NoteOnEvent(tick=40, channel=0, data=[67, 0]),
   midi.NoteOnEvent(tick=120, channel=0, data=[64, 55]),
   midi.NoteOnEvent(tick=40, channel=0, data=[61, 0]),
   midi.NoteOnEvent(tick=120, channel=0, data=[60, 52]),
   midi.NoteOnEvent(tick=40, channel=0, data=[64, 0]),
   midi.NoteOnEvent(tick=120, channel=0, data=[60, 0]),
   midi.NoteOnEvent(tick=0, channel=0, data=[73, 67]),
   midi.NoteOnEvent(tick=160, channel=0, data=[72, 56]),
   midi.NoteOnEvent(tick=40, channel=0, data=[73, 0]),
   midi.NoteOnEvent(tick=120, channel=0, data=[70, 59]),
   midi.NoteOnEvent(tick=40, channel=0, data=[72, 0]),
   midi.NoteOnEvent(tick=120, channel=0, data=[68, 58]),
   midi.NoteOnEvent(tick=40, channel=0, data=[70, 0]),
   midi.NoteOnEvent(tick=120, channel=0, data=[67, 56]),
   midi.NoteOnEvent(tick=40, channel=0, data=[68, 0]),
   midi.NoteOnEvent(tick=120, channel=0, data=[65, 56]),
   midi.NoteOnEvent(tick=40, channel=0, data=[67, 0]),
   midi.NoteOnEvent(tick=120, channel=0, data=[65, 0]),
   midi.NoteOnEvent(tick=0, channel=0, data=[70, 62]),
   midi.NoteOnEvent(tick=160, channel=0, data=[64, 55]),
   midi.NoteOnEvent(tick=40, channel=0, data=[70, 0]),
   midi.NoteOnEvent(tick=120, channel=0, data=[67, 56]),
   midi.NoteOnEvent(tick=40, channel=0, data=[64, 0]),
   midi.NoteOnEvent(tick=120, channel=0, data=[67, 0]),
   midi.NoteOnEvent(tick=0, channel=0, data=[61, 54]),
   midi.NoteOnEvent(tick=160, channel=0, data=[64, 55]),
   midi.NoteOnEvent(tick=40, channel=0, data=[61, 0]),
   midi.NoteOnEvent(tick=120, channel=0, data=[60, 57]),
   midi.NoteOnEvent(tick=40, channel=0, data=[64, 0]),
   midi.NoteOnEvent(tick=120, channel=0, data=[60, 0]),
   midi.NoteOnEvent(tick=0, channel=0, data=[70, 59]),
   midi.NoteOnEvent(tick=160, channel=0, data=[64, 53]),
   midi.NoteOnEvent(tick=40, channel=0, data=[70, 0]),
   midi.NoteOnEvent(tick=120, channel=0, data=[67, 53]),
   midi.NoteOnEvent(tick=40, channel=0, data=[64, 0]),
   midi.NoteOnEvent(tick=120, channel=0, data=[61, 51]),
   midi.NoteOnEvent(tick=40, channel=0, data=[67, 0]),
   midi.NoteOnEvent(tick=120, channel=0, data=[64, 48]),
   midi.NoteOnEvent(tick=40, channel=0, data=[61, 0]),
   midi.NoteOnEvent(tick=120, channel=0, data=[60, 48]),
   midi.NoteOnEvent(tick=40, channel=0, data=[64, 0]),
   midi.NoteOnEvent(tick=120, channel=0, data=[60, 0]),
   midi.NoteOnEvent(tick=0, channel=0, data=[67, 57]),
   midi.NoteOnEvent(tick=160, channel=0, data=[61, 51]),
   midi.NoteOnEvent(tick=40, channel=0, data=[67, 0]),
   midi.NoteOnEvent(tick=120, channel=0, data=[64, 49]),
   midi.NoteOnEvent(tick=40, channel=0, data=[61, 0]),
   midi.NoteOnEvent(tick=120, channel=0, data=[60, 50]),
   midi.NoteOnEvent(tick=40, channel=0, data=[64, 0]),
   midi.NoteOnEvent(tick=120, channel=0, data=[64, 48]),
   midi.NoteOnEvent(tick=40, channel=0, data=[60, 0]),
   midi.NoteOnEvent(tick=120, channel=0, data=[58, 48]),
   midi.NoteOnEvent(tick=40, channel=0, data=[64, 0]),
   midi.NoteOnEvent(tick=120, channel=0, data=[58, 0]),
   midi.NoteOnEvent(tick=0, channel=0, data=[64, 59]),
   midi.NoteOnEvent(tick=160, channel=0, data=[58, 50]),
   midi.NoteOnEvent(tick=40, channel=0, data=[64, 0]),
   midi.NoteOnEvent(tick=120, channel=0, data=[61, 48]),
   midi.NoteOnEvent(tick=40, channel=0, data=[58, 0]),
   midi.NoteOnEvent(tick=120, channel=0, data=[57, 51]),
   midi.NoteOnEvent(tick=40, channel=0, data=[61, 0]),
   midi.NoteOnEvent(tick=120, channel=0, data=[58, 49]),
   midi.NoteOnEvent(tick=40, channel=0, data=[57, 0]),
   midi.NoteOnEvent(tick=120, channel=0, data=[56, 50]),
   midi.NoteOnEvent(tick=40, channel=0, data=[58, 0]),
   midi.NoteOnEvent(tick=120, channel=0, data=[56, 0]),
   midi.NoteOnEvent(tick=0, channel=0, data=[61, 51]),
   midi.NoteOnEvent(tick=160, channel=0, data=[56, 48]),
   midi.NoteOnEvent(tick=40, channel=0, data=[61, 0]),
   midi.NoteOnEvent(tick=120, channel=0, data=[58, 48]),
   midi.NoteOnEvent(tick=40, channel=0, data=[56, 0]),
   midi.NoteOnEvent(tick=120, channel=0, data=[55, 50]),
   midi.NoteOnEvent(tick=40, channel=0, data=[58, 0]),
   midi.NoteOnEvent(tick=120, channel=0, data=[58, 48]),
   midi.NoteOnEvent(tick=40, channel=0, data=[55, 0]),
   midi.NoteOnEvent(tick=120, channel=0, data=[54, 41]),
   midi.NoteOnEvent(tick=40, channel=0, data=[58, 0]),
   midi.NoteOnEvent(tick=120, channel=0, data=[54, 0]),
   midi.NoteOnEvent(tick=0, channel=0, data=[53, 51]),
   midi.NoteOnEvent(tick=160, channel=0, data=[55, 46]),
   midi.NoteOnEvent(tick=40, channel=0, data=[53, 0]),
   midi.NoteOnEvent(tick=120, channel=0, data=[58, 45]),
   midi.NoteOnEvent(tick=40, channel=0, data=[55, 0]),
   midi.NoteOnEvent(tick=120, channel=0, data=[61, 45]),
   midi.NoteOnEvent(tick=40, channel=0, data=[58, 0]),
   midi.NoteOnEvent(tick=120, channel=0, data=[52, 45]),
   midi.NoteOnEvent(tick=40, channel=0, data=[61, 0]),
   midi.NoteOnEvent(tick=120, channel=0, data=[55, 46]),
   midi.NoteOnEvent(tick=40, channel=0, data=[52, 0]),
   midi.NoteOnEvent(tick=120, channel=0, data=[55, 0]),
   midi.NoteOnEvent(tick=0, channel=0, data=[53, 51]),
   midi.NoteOnEvent(tick=160, channel=0, data=[55, 46]),
   midi.NoteOnEvent(tick=40, channel=0, data=[53, 0]),
   midi.NoteOnEvent(tick=120, channel=0, data=[58, 45]),
   midi.NoteOnEvent(tick=40, channel=0, data=[55, 0]),
   midi.NoteOnEvent(tick=120, channel=0, data=[61, 45]),
   midi.NoteOnEvent(tick=40, channel=0, data=[58, 0]),
   midi.NoteOnEvent(tick=120, channel=0, data=[52, 45]),
   midi.NoteOnEvent(tick=40, channel=0, data=[61, 0]),
   midi.NoteOnEvent(tick=120, channel=0, data=[55, 46]),
   midi.NoteOnEvent(tick=40, channel=0, data=[52, 0]),
   midi.NoteOnEvent(tick=104, channel=0, data=[55, 0]),
   midi.NoteOnEvent(tick=16, channel=0, data=[55, 53]),
   midi.NoteOnEvent(tick=160, channel=0, data=[57, 45]),
   midi.NoteOnEvent(tick=40, channel=0, data=[55, 0]),
   midi.NoteOnEvent(tick=120, channel=0, data=[60, 46]),
   midi.NoteOnEvent(tick=40, channel=0, data=[57, 0]),
   midi.NoteOnEvent(tick=120, channel=0, data=[63, 47]),
   midi.NoteOnEvent(tick=40, channel=0, data=[60, 0]),
   midi.NoteOnEvent(tick=120, channel=0, data=[54, 45]),
   midi.NoteOnEvent(tick=40, channel=0, data=[63, 0]),
   midi.NoteOnEvent(tick=120, channel=0, data=[57, 48]),
   midi.NoteOnEvent(tick=40, channel=0, data=[54, 0]),
   midi.NoteOnEvent(tick=120, channel=0, data=[57, 0]),
   midi.NoteOnEvent(tick=0, channel=0, data=[55, 53]),
   midi.NoteOnEvent(tick=160, channel=0, data=[57, 47]),
   midi.NoteOnEvent(tick=40, channel=0, data=[55, 0]),
   midi.NoteOnEvent(tick=120, channel=0, data=[60, 46]),
   midi.NoteOnEvent(tick=40, channel=0, data=[57, 0]),
   midi.NoteOnEvent(tick=120, channel=0, data=[63, 49]),
   midi.NoteOnEvent(tick=40, channel=0, data=[60, 0]),
   midi.NoteOnEvent(tick=120, channel=0, data=[54, 48]),
   midi.NoteOnEvent(tick=40, channel=0, data=[63, 0]),
   midi.NoteOnEvent(tick=120, channel=0, data=[57, 46]),
   midi.NoteOnEvent(tick=40, channel=0, data=[54, 0]),
   midi.NoteOnEvent(tick=120, channel=0, data=[57, 0]),
   midi.NoteOnEvent(tick=0, channel=0, data=[58, 55]),
   midi.NoteOnEvent(tick=160, channel=0, data=[60, 47]),
   midi.NoteOnEvent(tick=40, channel=0, data=[58, 0]),
   midi.NoteOnEvent(tick=120, channel=0, data=[63, 48]),
   midi.NoteOnEvent(tick=40, channel=0, data=[60, 0]),
   midi.NoteOnEvent(tick=120, channel=0, data=[66, 49]),
   midi.NoteOnEvent(tick=40, channel=0, data=[63, 0]),
   midi.NoteOnEvent(tick=120, channel=0, data=[57, 48]),
   midi.NoteOnEvent(tick=40, channel=0, data=[66, 0]),
   midi.NoteOnEvent(tick=120, channel=0, data=[60, 45]),
   midi.NoteOnEvent(tick=40, channel=0, data=[57, 0]),
   midi.NoteOnEvent(tick=120, channel=0, data=[60, 0]),
   midi.NoteOnEvent(tick=0, channel=0, data=[61, 50]),
   midi.NoteOnEvent(tick=160, channel=0, data=[63, 49]),
   midi.NoteOnEvent(tick=40, channel=0, data=[61, 0]),
   midi.NoteOnEvent(tick=120, channel=0, data=[66, 48]),
   midi.NoteOnEvent(tick=40, channel=0, data=[63, 0]),
   midi.NoteOnEvent(tick=120, channel=0, data=[69, 49]),
   midi.NoteOnEvent(tick=40, channel=0, data=[66, 0]),
   midi.NoteOnEvent(tick=120, channel=0, data=[60, 49]),
   midi.NoteOnEvent(tick=40, channel=0, data=[69, 0]),
   midi.NoteOnEvent(tick=120, channel=0, data=[63, 50]),
   midi.NoteOnEvent(tick=40, channel=0, data=[60, 0]),
   midi.NoteOnEvent(tick=120, channel=0, data=[63, 0]),
   midi.NoteOnEvent(tick=0, channel=0, data=[61, 55]),
   midi.NoteOnEvent(tick=160, channel=0, data=[63, 49]),
   midi.NoteOnEvent(tick=40, channel=0, data=[61, 0]),
   midi.NoteOnEvent(tick=120, channel=0, data=[66, 48]),
   midi.NoteOnEvent(tick=40, channel=0, data=[63, 0]),
   midi.NoteOnEvent(tick=120, channel=0, data=[69, 50]),
   midi.NoteOnEvent(tick=40, channel=0, data=[66, 0]),
   midi.NoteOnEvent(tick=120, channel=0, data=[60, 49]),
   midi.NoteOnEvent(tick=40, channel=0, data=[69, 0]),
   midi.NoteOnEvent(tick=120, channel=0, data=[63, 50]),
   midi.NoteOnEvent(tick=40, channel=0, data=[60, 0]),
   midi.NoteOnEvent(tick=120, channel=0, data=[63, 0]),
   midi.NoteOnEvent(tick=0, channel=0, data=[66, 57]),
   midi.NoteOnEvent(tick=160, channel=0, data=[70, 51]),
   midi.NoteOnEvent(tick=40, channel=0, data=[66, 0]),
   midi.NoteOnEvent(tick=120, channel=0, data=[72, 52]),
   midi.NoteOnEvent(tick=40, channel=0, data=[70, 0]),
   midi.NoteOnEvent(tick=120, channel=0, data=[75, 54]),
   midi.NoteOnEvent(tick=40, channel=0, data=[72, 0]),
   midi.NoteOnEvent(tick=120, channel=0, data=[65, 54]),
   midi.NoteOnEvent(tick=40, channel=0, data=[75, 0]),
   midi.NoteOnEvent(tick=120, channel=0, data=[69, 55]),
   midi.NoteOnEvent(tick=40, channel=0, data=[65, 0]),
   midi.NoteOnEvent(tick=120, channel=0, data=[69, 0]),
   midi.NoteOnEvent(tick=0, channel=0, data=[70, 65]),
   midi.NoteOnEvent(tick=160, channel=0, data=[73, 56]),
   midi.NoteOnEvent(tick=40, channel=0, data=[70, 0]),
   midi.NoteOnEvent(tick=120, channel=0, data=[78, 55]),
   midi.NoteOnEvent(tick=40, channel=0, data=[73, 0]),
   midi.NoteOnEvent(tick=120, channel=0, data=[77, 55]),
   midi.NoteOnEvent(tick=40, channel=0, data=[78, 0]),
   midi.NoteOnEvent(tick=120, channel=0, data=[72, 54]),
   midi.NoteOnEvent(tick=40, channel=0, data=[77, 0]),
   midi.NoteOnEvent(tick=120, channel=0, data=[73, 55]),
   midi.NoteOnEvent(tick=40, channel=0, data=[72, 0]),
   midi.NoteOnEvent(tick=120, channel=0, data=[73, 0]),
   midi.NoteOnEvent(tick=0, channel=0, data=[76, 62]),
   midi.NoteOnEvent(tick=160, channel=0, data=[72, 57]),
   midi.NoteOnEvent(tick=160, channel=0, data=[76, 0]),
   midi.NoteOnEvent(tick=0, channel=0, data=[73, 55]),
   midi.NoteOnEvent(tick=40, channel=0, data=[72, 0]),
   midi.NoteOnEvent(tick=120, channel=0, data=[69, 56]),
   midi.NoteOnEvent(tick=40, channel=0, data=[73, 0]),
   midi.NoteOnEvent(tick=120, channel=0, data=[70, 55]),
   midi.NoteOnEvent(tick=160, channel=0, data=[69, 0]),
   midi.NoteOnEvent(tick=0, channel=0, data=[66, 51]),
   midi.NoteOnEvent(tick=40, channel=0, data=[70, 0]),
   midi.NoteOnEvent(tick=120, channel=0, data=[66, 0]),
   midi.NoteOnEvent(tick=0, channel=0, data=[64, 56]),
   midi.NoteOnEvent(tick=160, channel=0, data=[65, 51]),
   midi.NoteOnEvent(tick=160, channel=0, data=[64, 0]),
   midi.NoteOnEvent(tick=0, channel=0, data=[70, 51]),
   midi.NoteOnEvent(tick=40, channel=0, data=[65, 0]),
   midi.NoteOnEvent(tick=120, channel=0, data=[70, 0]),
   midi.NoteOnEvent(tick=0, channel=0, data=[68, 56]),
   midi.NoteOnEvent(tick=160, channel=0, data=[69, 51]),
   midi.NoteOnEvent(tick=160, channel=0, data=[68, 0]),
   midi.NoteOnEvent(tick=0, channel=0, data=[73, 51]),
   midi.NoteOnEvent(tick=40, channel=0, data=[69, 0]),
   midi.NoteOnEvent(tick=120, channel=0, data=[73, 0]),
   midi.NoteOnEvent(tick=0, channel=0, data=[69, 58]),
   midi.NoteOnEvent(tick=160, channel=0, data=[70, 55]),
   midi.NoteOnEvent(tick=160, channel=0, data=[69, 0]),
   midi.NoteOnEvent(tick=0, channel=0, data=[73, 56]),
   midi.NoteOnEvent(tick=40, channel=0, data=[70, 0]),
   midi.NoteOnEvent(tick=120, channel=0, data=[73, 0]),
   midi.NoteOnEvent(tick=0, channel=0, data=[71, 59]),
   midi.NoteOnEvent(tick=160, channel=0, data=[72, 56]),
   midi.NoteOnEvent(tick=160, channel=0, data=[71, 0]),
   midi.NoteOnEvent(tick=0, channel=0, data=[77, 53]),
   midi.NoteOnEvent(tick=40, channel=0, data=[72, 0]),
   midi.NoteOnEvent(tick=120, channel=0, data=[77, 0]),
   midi.NoteOnEvent(tick=0, channel=0, data=[68, 65]),
   midi.NoteOnEvent(tick=160, channel=0, data=[71, 59]),
   midi.NoteOnEvent(tick=40, channel=0, data=[68, 0]),
   midi.NoteOnEvent(tick=120, channel=0, data=[76, 56]),
   midi.NoteOnEvent(tick=40, channel=0, data=[71, 0]),
   midi.NoteOnEvent(tick=120, channel=0, data=[75, 62]),
   midi.NoteOnEvent(tick=40, channel=0, data=[76, 0]),
   midi.NoteOnEvent(tick=120, channel=0, data=[70, 58]),
   midi.NoteOnEvent(tick=40, channel=0, data=[75, 0]),
   midi.NoteOnEvent(tick=120, channel=0, data=[71, 54]),
   midi.NoteOnEvent(tick=40, channel=0, data=[70, 0]),
   midi.NoteOnEvent(tick=120, channel=0, data=[71, 0]),
   midi.NoteOnEvent(tick=0, channel=0, data=[74, 62]),
   midi.NoteOnEvent(tick=160, channel=0, data=[70, 56]),
   midi.NoteOnEvent(tick=160, channel=0, data=[74, 0]),
   midi.NoteOnEvent(tick=0, channel=0, data=[71, 53]),
   midi.NoteOnEvent(tick=40, channel=0, data=[70, 0]),
   midi.NoteOnEvent(tick=120, channel=0, data=[67, 58]),
   midi.NoteOnEvent(tick=40, channel=0, data=[71, 0]),
   midi.NoteOnEvent(tick=120, channel=0, data=[68, 51]),
   midi.NoteOnEvent(tick=160, channel=0, data=[67, 0]),
   midi.NoteOnEvent(tick=0, channel=0, data=[64, 51]),
   midi.NoteOnEvent(tick=40, channel=0, data=[68, 0]),
   midi.NoteOnEvent(tick=120, channel=0, data=[64, 0]),
   midi.NoteOnEvent(tick=0, channel=0, data=[62, 56]),
   midi.NoteOnEvent(tick=160, channel=0, data=[63, 51]),
   midi.NoteOnEvent(tick=160, channel=0, data=[62, 0]),
   midi.NoteOnEvent(tick=0, channel=0, data=[68, 51]),
   midi.NoteOnEvent(tick=40, channel=0, data=[63, 0]),
   midi.NoteOnEvent(tick=120, channel=0, data=[68, 0]),
   midi.NoteOnEvent(tick=0, channel=0, data=[64, 56]),
   midi.NoteOnEvent(tick=160, channel=0, data=[65, 53]),
   midi.NoteOnEvent(tick=160, channel=0, data=[64, 0]),
   midi.NoteOnEvent(tick=0, channel=0, data=[71, 54]),
   midi.NoteOnEvent(tick=40, channel=0, data=[65, 0]),
   midi.NoteOnEvent(tick=120, channel=0, data=[71, 0]),
   midi.NoteOnEvent(tick=0, channel=0, data=[65, 61]),
   midi.NoteOnEvent(tick=160, channel=0, data=[66, 55]),
   midi.NoteOnEvent(tick=160, channel=0, data=[65, 0]),
   midi.NoteOnEvent(tick=0, channel=0, data=[71, 56]),
   midi.NoteOnEvent(tick=40, channel=0, data=[66, 0]),
   midi.NoteOnEvent(tick=120, channel=0, data=[71, 0]),
   midi.NoteOnEvent(tick=0, channel=0, data=[69, 64]),
   midi.NoteOnEvent(tick=160, channel=0, data=[70, 56]),
   midi.NoteOnEvent(tick=160, channel=0, data=[69, 0]),
   midi.NoteOnEvent(tick=0, channel=0, data=[75, 58]),
   midi.NoteOnEvent(tick=40, channel=0, data=[70, 0]),
   midi.NoteOnEvent(tick=120, channel=0, data=[75, 0]),
   midi.NoteOnEvent(tick=0, channel=0, data=[73, 64]),
   midi.NoteOnEvent(tick=160, channel=0, data=[72, 53]),
   midi.NoteOnEvent(tick=40, channel=0, data=[73, 0]),
   midi.NoteOnEvent(tick=120, channel=0, data=[71, 47]),
   midi.NoteOnEvent(tick=40, channel=0, data=[72, 0]),
   midi.NoteOnEvent(tick=120, channel=0, data=[70, 56]),
   midi.NoteOnEvent(tick=40, channel=0, data=[71, 0]),
   midi.NoteOnEvent(tick=120, channel=0, data=[69, 52]),
   midi.NoteOnEvent(tick=40, channel=0, data=[70, 0]),
   midi.NoteOnEvent(tick=120, channel=0, data=[77, 56]),
   midi.NoteOnEvent(tick=40, channel=0, data=[69, 0]),
   midi.NoteOnEvent(tick=120, channel=0, data=[77, 0]),
   midi.NoteOnEvent(tick=0, channel=0, data=[75, 64]),
   midi.NoteOnEvent(tick=160, channel=0, data=[74, 55]),
   midi.NoteOnEvent(tick=40, channel=0, data=[75, 0]),
   midi.NoteOnEvent(tick=120, channel=0, data=[73, 55]),
   midi.NoteOnEvent(tick=40, channel=0, data=[74, 0]),
   midi.NoteOnEvent(tick=120, channel=0, data=[72, 57]),
   midi.NoteOnEvent(tick=40, channel=0, data=[73, 0]),
   midi.NoteOnEvent(tick=120, channel=0, data=[70, 54]),
   midi.NoteOnEvent(tick=40, channel=0, data=[72, 0]),
   midi.NoteOnEvent(tick=120, channel=0, data=[78, 58]),
   midi.NoteOnEvent(tick=40, channel=0, data=[70, 0]),
   midi.NoteOnEvent(tick=120, channel=0, data=[78, 0]),
   midi.NoteOnEvent(tick=0, channel=0, data=[77, 67]),
   midi.NoteOnEvent(tick=160, channel=0, data=[75, 59]),
   midi.NoteOnEvent(tick=40, channel=0, data=[77, 0]),
   midi.NoteOnEvent(tick=120, channel=0, data=[74, 56]),
   midi.NoteOnEvent(tick=40, channel=0, data=[75, 0]),
   midi.NoteOnEvent(tick=120, channel=0, data=[73, 60]),
   midi.NoteOnEvent(tick=40, channel=0, data=[74, 0]),
   midi.NoteOnEvent(tick=120, channel=0, data=[72, 58]),
   midi.NoteOnEvent(tick=40, channel=0, data=[73, 0]),
   midi.NoteOnEvent(tick=120, channel=0, data=[81, 63]),
   midi.NoteOnEvent(tick=40, channel=0, data=[72, 0]),
   midi.NoteOnEvent(tick=120, channel=0, data=[81, 0]),
   midi.NoteOnEvent(tick=0, channel=0, data=[72, 68]),
   midi.NoteOnEvent(tick=160, channel=0, data=[73, 62]),
   midi.NoteOnEvent(tick=160, channel=0, data=[72, 0]),
   midi.NoteOnEvent(tick=0, channel=0, data=[82, 62]),
   midi.NoteOnEvent(tick=40, channel=0, data=[73, 0]),
   midi.NoteOnEvent(tick=120, channel=0, data=[82, 0]),
   midi.NoteOnEvent(tick=0, channel=0, data=[74, 71]),
   midi.NoteOnEvent(tick=160, channel=0, data=[75, 62]),
   midi.NoteOnEvent(tick=160, channel=0, data=[74, 0]),
   midi.NoteOnEvent(tick=0, channel=0, data=[82, 67]),
   midi.NoteOnEvent(tick=40, channel=0, data=[75, 0]),
   midi.NoteOnEvent(tick=120, channel=0, data=[82, 0]),
   midi.NoteOnEvent(tick=0, channel=0, data=[84, 72]),
   midi.NoteOnEvent(tick=160, channel=0, data=[82, 60]),
   midi.NoteOnEvent(tick=40, channel=0, data=[84, 0]),
   midi.NoteOnEvent(tick=120, channel=0, data=[80, 56]),
   midi.NoteOnEvent(tick=40, channel=0, data=[82, 0]),
   midi.NoteOnEvent(tick=120, channel=0, data=[78, 62]),
   midi.NoteOnEvent(tick=40, channel=0, data=[80, 0]),
   midi.NoteOnEvent(tick=120, channel=0, data=[77, 60]),
   midi.NoteOnEvent(tick=40, channel=0, data=[78, 0]),
   midi.NoteOnEvent(tick=120, channel=0, data=[76, 60]),
   midi.NoteOnEvent(tick=40, channel=0, data=[77, 0]),
   midi.NoteOnEvent(tick=120, channel=0, data=[76, 0]),
   midi.NoteOnEvent(tick=0, channel=0, data=[84, 72]),
   midi.NoteOnEvent(tick=160, channel=0, data=[82, 62]),
   midi.NoteOnEvent(tick=40, channel=0, data=[84, 0]),
   midi.NoteOnEvent(tick=120, channel=0, data=[80, 59]),
   midi.NoteOnEvent(tick=40, channel=0, data=[82, 0]),
   midi.NoteOnEvent(tick=120, channel=0, data=[78, 63]),
   midi.NoteOnEvent(tick=40, channel=0, data=[80, 0]),
   midi.NoteOnEvent(tick=120, channel=0, data=[77, 59]),
   midi.NoteOnEvent(tick=40, channel=0, data=[78, 0]),
   midi.NoteOnEvent(tick=120, channel=0, data=[76, 58]),
   midi.NoteOnEvent(tick=40, channel=0, data=[77, 0]),
   midi.NoteOnEvent(tick=120, channel=0, data=[76, 0]),
   midi.NoteOnEvent(tick=0, channel=0, data=[78, 67]),
   midi.NoteOnEvent(tick=160, channel=0, data=[77, 58]),
   midi.NoteOnEvent(tick=40, channel=0, data=[78, 0]),
   midi.NoteOnEvent(tick=120, channel=0, data=[76, 56]),
   midi.NoteOnEvent(tick=40, channel=0, data=[77, 0]),
   midi.NoteOnEvent(tick=120, channel=0, data=[75, 60]),
   midi.NoteOnEvent(tick=40, channel=0, data=[76, 0]),
   midi.NoteOnEvent(tick=120, channel=0, data=[74, 56]),
   midi.NoteOnEvent(tick=40, channel=0, data=[75, 0]),
   midi.NoteOnEvent(tick=120, channel=0, data=[73, 55]),
   midi.NoteOnEvent(tick=40, channel=0, data=[74, 0]),
   midi.NoteOnEvent(tick=120, channel=0, data=[73, 0]),
   midi.NoteOnEvent(tick=0, channel=0, data=[75, 58]),
   midi.NoteOnEvent(tick=160, channel=0, data=[71, 54]),
   midi.NoteOnEvent(tick=40, channel=0, data=[75, 0]),
   midi.NoteOnEvent(tick=120, channel=0, data=[72, 50]),
   midi.NoteOnEvent(tick=40, channel=0, data=[71, 0]),
   midi.NoteOnEvent(tick=120, channel=0, data=[73, 51]),
   midi.NoteOnEvent(tick=40, channel=0, data=[72, 0]),
   midi.NoteOnEvent(tick=120, channel=0, data=[69, 47]),
   midi.NoteOnEvent(tick=40, channel=0, data=[73, 0]),
   midi.NoteOnEvent(tick=120, channel=0, data=[70, 50]),
   midi.NoteOnEvent(tick=40, channel=0, data=[69, 0]),
   midi.NoteOnEvent(tick=120, channel=0, data=[70, 0]),
   midi.NoteOnEvent(tick=0, channel=0, data=[72, 53]),
   midi.NoteOnEvent(tick=160, channel=0, data=[67, 45]),
   midi.NoteOnEvent(tick=160, channel=0, data=[72, 0]),
   midi.NoteOnEvent(tick=0, channel=0, data=[68, 45]),
   midi.NoteOnEvent(tick=40, channel=0, data=[67, 0]),
   midi.NoteOnEvent(tick=120, channel=0, data=[71, 46]),
   midi.NoteOnEvent(tick=40, channel=0, data=[68, 0]),
   midi.NoteOnEvent(tick=120, channel=0, data=[66, 42]),
   midi.NoteOnEvent(tick=160, channel=0, data=[71, 0]),
   midi.NoteOnEvent(tick=0, channel=0, data=[75, 39]),
   midi.NoteOnEvent(tick=40, channel=0, data=[66, 0]),
   midi.NoteOnEvent(tick=120, channel=0, data=[75, 0]),
   midi.NoteOnEvent(tick=0, channel=0, data=[70, 46]),
   midi.NoteOnEvent(tick=160, channel=0, data=[65, 42]),
   midi.NoteOnEvent(tick=160, channel=0, data=[70, 0]),
   midi.NoteOnEvent(tick=0, channel=0, data=[66, 45]),
   midi.NoteOnEvent(tick=40, channel=0, data=[65, 0]),
   midi.NoteOnEvent(tick=120, channel=0, data=[69, 43]),
   midi.NoteOnEvent(tick=40, channel=0, data=[66, 0]),
   midi.NoteOnEvent(tick=120, channel=0, data=[64, 41]),
   midi.NoteOnEvent(tick=160, channel=0, data=[69, 0]),
   midi.NoteOnEvent(tick=0, channel=0, data=[73, 39]),
   midi.NoteOnEvent(tick=40, channel=0, data=[64, 0]),
   midi.NoteOnEvent(tick=120, channel=0, data=[73, 0]),
   midi.NoteOnEvent(tick=0, channel=0, data=[68, 51]),
   midi.NoteOnEvent(tick=160, channel=0, data=[63, 44]),
   midi.NoteOnEvent(tick=160, channel=0, data=[68, 0]),
   midi.NoteOnEvent(tick=0, channel=0, data=[64, 44]),
   midi.NoteOnEvent(tick=40, channel=0, data=[63, 0]),
   midi.NoteOnEvent(tick=120, channel=0, data=[67, 43]),
   midi.NoteOnEvent(tick=40, channel=0, data=[64, 0]),
   midi.NoteOnEvent(tick=120, channel=0, data=[62, 41]),
   midi.NoteOnEvent(tick=160, channel=0, data=[67, 0]),
   midi.NoteOnEvent(tick=0, channel=0, data=[71, 41]),
   midi.NoteOnEvent(tick=40, channel=0, data=[62, 0]),
   midi.NoteOnEvent(tick=120, channel=0, data=[71, 0]),
   midi.NoteOnEvent(tick=0, channel=0, data=[66, 47]),
   midi.NoteOnEvent(tick=160, channel=0, data=[61, 40]),
   midi.NoteOnEvent(tick=160, channel=0, data=[66, 0]),
   midi.NoteOnEvent(tick=0, channel=0, data=[62, 40]),
   midi.NoteOnEvent(tick=40, channel=0, data=[61, 0]),
   midi.NoteOnEvent(tick=120, channel=0, data=[65, 44]),
   midi.NoteOnEvent(tick=40, channel=0, data=[62, 0]),
   midi.NoteOnEvent(tick=120, channel=0, data=[60, 38]),
   midi.NoteOnEvent(tick=160, channel=0, data=[65, 0]),
   midi.NoteOnEvent(tick=0, channel=0, data=[69, 40]),
   midi.NoteOnEvent(tick=40, channel=0, data=[60, 0]),
   midi.NoteOnEvent(tick=120, channel=0, data=[69, 0]),
   midi.NoteOnEvent(tick=0, channel=0, data=[74, 49]),
   midi.NoteOnEvent(tick=160, channel=0, data=[69, 42]),
   midi.NoteOnEvent(tick=160, channel=0, data=[74, 0]),
   midi.NoteOnEvent(tick=0, channel=0, data=[70, 45]),
   midi.NoteOnEvent(tick=40, channel=0, data=[69, 0]),
   midi.NoteOnEvent(tick=120, channel=0, data=[73, 48]),
   midi.NoteOnEvent(tick=40, channel=0, data=[70, 0]),
   midi.NoteOnEvent(tick=120, channel=0, data=[68, 42]),
   midi.NoteOnEvent(tick=160, channel=0, data=[73, 0]),
   midi.NoteOnEvent(tick=0, channel=0, data=[77, 39]),
   midi.NoteOnEvent(tick=40, channel=0, data=[68, 0]),
   midi.NoteOnEvent(tick=120, channel=0, data=[77, 0]),
   midi.NoteOnEvent(tick=0, channel=0, data=[72, 47]),
   midi.NoteOnEvent(tick=160, channel=0, data=[67, 42]),
   midi.NoteOnEvent(tick=160, channel=0, data=[72, 0]),
   midi.NoteOnEvent(tick=0, channel=0, data=[68, 42]),
   midi.NoteOnEvent(tick=40, channel=0, data=[67, 0]),
   midi.NoteOnEvent(tick=120, channel=0, data=[71, 44]),
   midi.NoteOnEvent(tick=40, channel=0, data=[68, 0]),
   midi.NoteOnEvent(tick=120, channel=0, data=[66, 43]),
   midi.NoteOnEvent(tick=160, channel=0, data=[71, 0]),
   midi.NoteOnEvent(tick=0, channel=0, data=[75, 39]),
   midi.NoteOnEvent(tick=40, channel=0, data=[66, 0]),
   midi.NoteOnEvent(tick=120, channel=0, data=[75, 0]),
   midi.NoteOnEvent(tick=0, channel=0, data=[70, 47]),
   midi.NoteOnEvent(tick=160, channel=0, data=[65, 39]),
   midi.NoteOnEvent(tick=160, channel=0, data=[70, 0]),
   midi.NoteOnEvent(tick=0, channel=0, data=[66, 41]),
   midi.NoteOnEvent(tick=40, channel=0, data=[65, 0]),
   midi.NoteOnEvent(tick=120, channel=0, data=[69, 41]),
   midi.NoteOnEvent(tick=40, channel=0, data=[66, 0]),
   midi.NoteOnEvent(tick=120, channel=0, data=[64, 39]),
   midi.NoteOnEvent(tick=160, channel=0, data=[69, 0]),
   midi.NoteOnEvent(tick=0, channel=0, data=[73, 39]),
   midi.NoteOnEvent(tick=40, channel=0, data=[64, 0]),
   midi.NoteOnEvent(tick=120, channel=0, data=[73, 0]),
   midi.NoteOnEvent(tick=0, channel=0, data=[68, 44]),
   midi.NoteOnEvent(tick=160, channel=0, data=[63, 39]),
   midi.NoteOnEvent(tick=160, channel=0, data=[68, 0]),
   midi.NoteOnEvent(tick=0, channel=0, data=[64, 41]),
   midi.NoteOnEvent(tick=40, channel=0, data=[63, 0]),
   midi.NoteOnEvent(tick=120, channel=0, data=[67, 42]),
   midi.NoteOnEvent(tick=40, channel=0, data=[64, 0]),
   midi.NoteOnEvent(tick=120, channel=0, data=[62, 39]),
   midi.NoteOnEvent(tick=160, channel=0, data=[67, 0]),
   midi.NoteOnEvent(tick=0, channel=0, data=[71, 43]),
   midi.NoteOnEvent(tick=40, channel=0, data=[62, 0]),
   midi.NoteOnEvent(tick=120, channel=0, data=[71, 0]),
   midi.NoteOnEvent(tick=0, channel=0, data=[76, 53]),
   midi.NoteOnEvent(tick=160, channel=0, data=[71, 39]),
   midi.NoteOnEvent(tick=160, channel=0, data=[76, 0]),
   midi.NoteOnEvent(tick=0, channel=0, data=[72, 45]),
   midi.NoteOnEvent(tick=40, channel=0, data=[71, 0]),
   midi.NoteOnEvent(tick=120, channel=0, data=[75, 45]),
   midi.NoteOnEvent(tick=40, channel=0, data=[72, 0]),
   midi.NoteOnEvent(tick=120, channel=0, data=[70, 39]),
   midi.NoteOnEvent(tick=160, channel=0, data=[75, 0]),
   midi.NoteOnEvent(tick=0, channel=0, data=[79, 42]),
   midi.NoteOnEvent(tick=40, channel=0, data=[70, 0]),
   midi.NoteOnEvent(tick=120, channel=0, data=[79, 0]),
   midi.NoteOnEvent(tick=0, channel=0, data=[74, 51]),
   midi.NoteOnEvent(tick=160, channel=0, data=[69, 38]),
   midi.NoteOnEvent(tick=160, channel=0, data=[74, 0]),
   midi.NoteOnEvent(tick=0, channel=0, data=[70, 42]),
   midi.NoteOnEvent(tick=40, channel=0, data=[69, 0]),
   midi.NoteOnEvent(tick=120, channel=0, data=[73, 43]),
   midi.NoteOnEvent(tick=40, channel=0, data=[70, 0]),
   midi.NoteOnEvent(tick=120, channel=0, data=[68, 38]),
   midi.NoteOnEvent(tick=160, channel=0, data=[73, 0]),
   midi.NoteOnEvent(tick=0, channel=0, data=[77, 39]),
   midi.NoteOnEvent(tick=40, channel=0, data=[68, 0]),
   midi.NoteOnEvent(tick=120, channel=0, data=[77, 0]),
   midi.NoteOnEvent(tick=0, channel=0, data=[72, 49]),
   midi.NoteOnEvent(tick=160, channel=0, data=[67, 38]),
   midi.NoteOnEvent(tick=160, channel=0, data=[72, 0]),
   midi.NoteOnEvent(tick=0, channel=0, data=[68, 39]),
   midi.NoteOnEvent(tick=40, channel=0, data=[67, 0]),
   midi.NoteOnEvent(tick=120, channel=0, data=[71, 39]),
   midi.NoteOnEvent(tick=40, channel=0, data=[68, 0]),
   midi.NoteOnEvent(tick=120, channel=0, data=[66, 36]),
   midi.NoteOnEvent(tick=160, channel=0, data=[71, 0]),
   midi.NoteOnEvent(tick=0, channel=0, data=[75, 37]),
   midi.NoteOnEvent(tick=40, channel=0, data=[66, 0]),
   midi.NoteOnEvent(tick=120, channel=0, data=[75, 0]),
   midi.NoteOnEvent(tick=0, channel=0, data=[70, 47]),
   midi.NoteOnEvent(tick=160, channel=0, data=[65, 36]),
   midi.NoteOnEvent(tick=160, channel=0, data=[70, 0]),
   midi.NoteOnEvent(tick=0, channel=0, data=[75, 39]),
   midi.NoteOnEvent(tick=40, channel=0, data=[65, 0]),
   midi.NoteOnEvent(tick=120, channel=0, data=[70, 41]),
   midi.NoteOnEvent(tick=40, channel=0, data=[75, 0]),
   midi.NoteOnEvent(tick=120, channel=0, data=[65, 34]),
   midi.NoteOnEvent(tick=160, channel=0, data=[70, 0]),
   midi.NoteOnEvent(tick=0, channel=0, data=[73, 39]),
   midi.NoteOnEvent(tick=40, channel=0, data=[65, 0]),
   midi.NoteOnEvent(tick=120, channel=0, data=[73, 0]),
   midi.NoteOnEvent(tick=0, channel=0, data=[66, 49]),
   midi.NoteOnEvent(tick=160, channel=0, data=[65, 42]),
   midi.NoteOnEvent(tick=40, channel=0, data=[66, 0]),
   midi.NoteOnEvent(tick=120, channel=0, data=[64, 39]),
   midi.NoteOnEvent(tick=40, channel=0, data=[65, 0]),
   midi.NoteOnEvent(tick=120, channel=0, data=[63, 43]),
   midi.NoteOnEvent(tick=40, channel=0, data=[64, 0]),
   midi.NoteOnEvent(tick=120, channel=0, data=[61, 43]),
   midi.NoteOnEvent(tick=40, channel=0, data=[63, 0]),
   midi.NoteOnEvent(tick=120, channel=0, data=[60, 42]),
   midi.NoteOnEvent(tick=40, channel=0, data=[61, 0]),
   midi.NoteOnEvent(tick=120, channel=0, data=[60, 0]),
   midi.NoteOnEvent(tick=0, channel=0, data=[66, 49]),
   midi.NoteOnEvent(tick=160, channel=0, data=[65, 42]),
   midi.NoteOnEvent(tick=40, channel=0, data=[66, 0]),
   midi.NoteOnEvent(tick=120, channel=0, data=[63, 42]),
   midi.NoteOnEvent(tick=40, channel=0, data=[65, 0]),
   midi.NoteOnEvent(tick=120, channel=0, data=[61, 45]),
   midi.NoteOnEvent(tick=40, channel=0, data=[63, 0]),
   midi.NoteOnEvent(tick=120, channel=0, data=[60, 44]),
   midi.NoteOnEvent(tick=40, channel=0, data=[61, 0]),
   midi.NoteOnEvent(tick=120, channel=0, data=[58, 42]),
   midi.NoteOnEvent(tick=40, channel=0, data=[60, 0]),
   midi.NoteOnEvent(tick=120, channel=0, data=[58, 0]),
   midi.NoteOnEvent(tick=0, channel=0, data=[66, 49]),
   midi.NoteOnEvent(tick=160, channel=0, data=[65, 45]),
   midi.NoteOnEvent(tick=40, channel=0, data=[66, 0]),
   midi.NoteOnEvent(tick=120, channel=0, data=[63, 42]),
   midi.NoteOnEvent(tick=40, channel=0, data=[65, 0]),
   midi.NoteOnEvent(tick=120, channel=0, data=[61, 45]),
   midi.NoteOnEvent(tick=40, channel=0, data=[63, 0]),
   midi.NoteOnEvent(tick=120, channel=0, data=[60, 44]),
   midi.NoteOnEvent(tick=40, channel=0, data=[61, 0]),
   midi.NoteOnEvent(tick=120, channel=0, data=[59, 42]),
   midi.NoteOnEvent(tick=40, channel=0, data=[60, 0]),
   midi.NoteOnEvent(tick=120, channel=0, data=[59, 0]),
   midi.NoteOnEvent(tick=0, channel=0, data=[66, 49]),
   midi.NoteOnEvent(tick=160, channel=0, data=[65, 45]),
   midi.NoteOnEvent(tick=40, channel=0, data=[66, 0]),
   midi.NoteOnEvent(tick=120, channel=0, data=[63, 42]),
   midi.NoteOnEvent(tick=40, channel=0, data=[65, 0]),
   midi.NoteOnEvent(tick=120, channel=0, data=[61, 45]),
   midi.NoteOnEvent(tick=40, channel=0, data=[63, 0]),
   midi.NoteOnEvent(tick=120, channel=0, data=[59, 44]),
   midi.NoteOnEvent(tick=40, channel=0, data=[61, 0]),
   midi.NoteOnEvent(tick=120, channel=0, data=[58, 42]),
   midi.NoteOnEvent(tick=40, channel=0, data=[59, 0]),
   midi.NoteOnEvent(tick=120, channel=0, data=[58, 0]),
   midi.NoteOnEvent(tick=0, channel=0, data=[57, 45]),
   midi.NoteOnEvent(tick=160, channel=0, data=[58, 43]),
   midi.NoteOnEvent(tick=40, channel=0, data=[57, 0]),
   midi.NoteOnEvent(tick=120, channel=0, data=[60, 43]),
   midi.NoteOnEvent(tick=40, channel=0, data=[58, 0]),
   midi.NoteOnEvent(tick=120, channel=0, data=[63, 44]),
   midi.NoteOnEvent(tick=40, channel=0, data=[60, 0]),
   midi.NoteOnEvent(tick=120, channel=0, data=[61, 41]),
   midi.NoteOnEvent(tick=40, channel=0, data=[63, 0]),
   midi.NoteOnEvent(tick=120, channel=0, data=[57, 40]),
   midi.NoteOnEvent(tick=40, channel=0, data=[61, 0]),
   midi.NoteOnEvent(tick=120, channel=0, data=[57, 0]),
   midi.NoteOnEvent(tick=0, channel=0, data=[60, 45]),
   midi.NoteOnEvent(tick=160, channel=0, data=[58, 40]),
   midi.NoteOnEvent(tick=40, channel=0, data=[60, 0]),
   midi.NoteOnEvent(tick=120, channel=0, data=[53, 40]),
   midi.NoteOnEvent(tick=40, channel=0, data=[58, 0]),
   midi.NoteOnEvent(tick=120, channel=0, data=[56, 41]),
   midi.NoteOnEvent(tick=40, channel=0, data=[53, 0]),
   midi.NoteOnEvent(tick=120, channel=0, data=[54, 40]),
   midi.NoteOnEvent(tick=40, channel=0, data=[56, 0]),
   midi.NoteOnEvent(tick=120, channel=0, data=[53, 40]),
   midi.NoteOnEvent(tick=40, channel=0, data=[54, 0]),
   midi.NoteOnEvent(tick=120, channel=0, data=[53, 0]),
   midi.NoteOnEvent(tick=0, channel=0, data=[51, 45]),
   midi.NoteOnEvent(tick=160, channel=0, data=[53, 43]),
   midi.NoteOnEvent(tick=40, channel=0, data=[51, 0]),
   midi.NoteOnEvent(tick=120, channel=0, data=[54, 43]),
   midi.NoteOnEvent(tick=40, channel=0, data=[53, 0]),
   midi.NoteOnEvent(tick=120, channel=0, data=[58, 44]),
   midi.NoteOnEvent(tick=40, channel=0, data=[54, 0]),
   midi.NoteOnEvent(tick=120, channel=0, data=[56, 41]),
   midi.NoteOnEvent(tick=40, channel=0, data=[58, 0]),
   midi.NoteOnEvent(tick=120, channel=0, data=[54, 40]),
   midi.NoteOnEvent(tick=40, channel=0, data=[56, 0]),
   midi.NoteOnEvent(tick=120, channel=0, data=[54, 0]),
   midi.NoteOnEvent(tick=0, channel=0, data=[53, 44]),
   midi.NoteOnEvent(tick=160, channel=0, data=[49, 40]),
   midi.NoteOnEvent(tick=40, channel=0, data=[53, 0]),
   midi.NoteOnEvent(tick=120, channel=0, data=[51, 40]),
   midi.NoteOnEvent(tick=40, channel=0, data=[49, 0]),
   midi.NoteOnEvent(tick=120, channel=0, data=[53, 43]),
   midi.NoteOnEvent(tick=40, channel=0, data=[51, 0]),
   midi.NoteOnEvent(tick=120, channel=0, data=[52, 40]),
   midi.NoteOnEvent(tick=40, channel=0, data=[53, 0]),
   midi.NoteOnEvent(tick=120, channel=0, data=[53, 40]),
   midi.NoteOnEvent(tick=40, channel=0, data=[52, 0]),
   midi.NoteOnEvent(tick=120, channel=0, data=[53, 0]),
   midi.NoteOnEvent(tick=0, channel=0, data=[54, 44]),
   midi.NoteOnEvent(tick=160, channel=0, data=[53, 39]),
   midi.NoteOnEvent(tick=40, channel=0, data=[54, 0]),
   midi.NoteOnEvent(tick=120, channel=0, data=[52, 39]),
   midi.NoteOnEvent(tick=40, channel=0, data=[53, 0]),
   midi.NoteOnEvent(tick=120, channel=0, data=[51, 39]),
   midi.NoteOnEvent(tick=40, channel=0, data=[52, 0]),
   midi.NoteOnEvent(tick=120, channel=0, data=[49, 36]),
   midi.NoteOnEvent(tick=40, channel=0, data=[51, 0]),
   midi.NoteOnEvent(tick=120, channel=0, data=[48, 37]),
   midi.NoteOnEvent(tick=40, channel=0, data=[49, 0]),
   midi.NoteOnEvent(tick=120, channel=0, data=[48, 0]),
   midi.NoteOnEvent(tick=0, channel=0, data=[54, 44]),
   midi.NoteOnEvent(tick=160, channel=0, data=[53, 39]),
   midi.NoteOnEvent(tick=40, channel=0, data=[54, 0]),
   midi.NoteOnEvent(tick=120, channel=0, data=[51, 39]),
   midi.NoteOnEvent(tick=40, channel=0, data=[53, 0]),
   midi.NoteOnEvent(tick=120, channel=0, data=[49, 39]),
   midi.NoteOnEvent(tick=40, channel=0, data=[51, 0]),
   midi.NoteOnEvent(tick=120, channel=0, data=[48, 36]),
   midi.NoteOnEvent(tick=40, channel=0, data=[49, 0]),
   midi.NoteOnEvent(tick=120, channel=0, data=[46, 37]),
   midi.NoteOnEvent(tick=40, channel=0, data=[48, 0]),
   midi.NoteOnEvent(tick=120, channel=0, data=[46, 0]),
   midi.NoteOnEvent(tick=0, channel=0, data=[54, 44]),
   midi.NoteOnEvent(tick=160, channel=0, data=[53, 39]),
   midi.NoteOnEvent(tick=40, channel=0, data=[54, 0]),
   midi.NoteOnEvent(tick=120, channel=0, data=[51, 39]),
   midi.NoteOnEvent(tick=40, channel=0, data=[53, 0]),
   midi.NoteOnEvent(tick=120, channel=0, data=[49, 39]),
   midi.NoteOnEvent(tick=40, channel=0, data=[51, 0]),
   midi.NoteOnEvent(tick=120, channel=0, data=[48, 36]),
   midi.NoteOnEvent(tick=40, channel=0, data=[49, 0]),
   midi.NoteOnEvent(tick=120, channel=0, data=[47, 37]),
   midi.NoteOnEvent(tick=40, channel=0, data=[48, 0]),
   midi.NoteOnEvent(tick=120, channel=0, data=[47, 0]),
   midi.NoteOnEvent(tick=0, channel=0, data=[54, 44]),
   midi.NoteOnEvent(tick=160, channel=0, data=[53, 39]),
   midi.NoteOnEvent(tick=40, channel=0, data=[54, 0]),
   midi.NoteOnEvent(tick=120, channel=0, data=[51, 39]),
   midi.NoteOnEvent(tick=40, channel=0, data=[53, 0]),
   midi.NoteOnEvent(tick=120, channel=0, data=[49, 39]),
   midi.NoteOnEvent(tick=40, channel=0, data=[51, 0]),
   midi.NoteOnEvent(tick=120, channel=0, data=[47, 36]),
   midi.NoteOnEvent(tick=40, channel=0, data=[49, 0]),
   midi.NoteOnEvent(tick=120, channel=0, data=[46, 37]),
   midi.NoteOnEvent(tick=40, channel=0, data=[47, 0]),
   midi.NoteOnEvent(tick=120, channel=0, data=[46, 0]),
   midi.NoteOnEvent(tick=0, channel=0, data=[45, 41]),
   midi.NoteOnEvent(tick=160, channel=0, data=[46, 36]),
   midi.NoteOnEvent(tick=40, channel=0, data=[45, 0]),
   midi.NoteOnEvent(tick=120, channel=0, data=[47, 37]),
   midi.NoteOnEvent(tick=40, channel=0, data=[46, 0]),
   midi.NoteOnEvent(tick=120, channel=0, data=[49, 45]),
   midi.NoteOnEvent(tick=40, channel=0, data=[47, 0]),
   midi.NoteOnEvent(tick=120, channel=0, data=[51, 39]),
   midi.NoteOnEvent(tick=40, channel=0, data=[49, 0]),
   midi.NoteOnEvent(tick=120, channel=0, data=[53, 40]),
   midi.NoteOnEvent(tick=40, channel=0, data=[51, 0]),
   midi.NoteOnEvent(tick=120, channel=0, data=[53, 0]),
   midi.NoteOnEvent(tick=0, channel=0, data=[54, 49]),
   midi.NoteOnEvent(tick=160, channel=0, data=[56, 45]),
   midi.NoteOnEvent(tick=40, channel=0, data=[54, 0]),
   midi.NoteOnEvent(tick=120, channel=0, data=[58, 46]),
   midi.NoteOnEvent(tick=40, channel=0, data=[56, 0]),
   midi.NoteOnEvent(tick=120, channel=0, data=[59, 54]),
   midi.NoteOnEvent(tick=40, channel=0, data=[58, 0]),
   midi.NoteOnEvent(tick=120, channel=0, data=[61, 51]),
   midi.NoteOnEvent(tick=40, channel=0, data=[59, 0]),
   midi.NoteOnEvent(tick=120, channel=0, data=[63, 51]),
   midi.NoteOnEvent(tick=40, channel=0, data=[61, 0]),
   midi.NoteOnEvent(tick=120, channel=0, data=[63, 0]),
   midi.NoteOnEvent(tick=0, channel=0, data=[65, 58]),
   midi.NoteOnEvent(tick=160, channel=0, data=[64, 53]),
   midi.NoteOnEvent(tick=40, channel=0, data=[65, 0]),
   midi.NoteOnEvent(tick=120, channel=0, data=[61, 46]),
   midi.NoteOnEvent(tick=40, channel=0, data=[64, 0]),
   midi.NoteOnEvent(tick=120, channel=0, data=[60, 50]),
   midi.NoteOnEvent(tick=40, channel=0, data=[61, 0]),
   midi.NoteOnEvent(tick=120, channel=0, data=[58, 49]),
   midi.NoteOnEvent(tick=40, channel=0, data=[60, 0]),
   midi.NoteOnEvent(tick=120, channel=0, data=[54, 44]),
   midi.NoteOnEvent(tick=40, channel=0, data=[58, 0]),
   midi.NoteOnEvent(tick=120, channel=0, data=[54, 0]),
   midi.NoteOnEvent(tick=0, channel=0, data=[53, 49]),
   midi.NoteOnEvent(tick=160, channel=0, data=[52, 43]),
   midi.NoteOnEvent(tick=40, channel=0, data=[53, 0]),
   midi.NoteOnEvent(tick=120, channel=0, data=[49, 39]),
   midi.NoteOnEvent(tick=40, channel=0, data=[52, 0]),
   midi.NoteOnEvent(tick=120, channel=0, data=[48, 43]),
   midi.NoteOnEvent(tick=40, channel=0, data=[49, 0]),
   midi.NoteOnEvent(tick=120, channel=0, data=[46, 36]),
   midi.NoteOnEvent(tick=40, channel=0, data=[48, 0]),
   midi.NoteOnEvent(tick=120, channel=0, data=[42, 34]),
   midi.NoteOnEvent(tick=40, channel=0, data=[46, 0]),
   midi.NoteOnEvent(tick=120, channel=0, data=[42, 0]),
   midi.NoteOnEvent(tick=0, channel=0, data=[41, 39]),
   midi.NoteOnEvent(tick=160, channel=0, data=[46, 33]),
   midi.NoteOnEvent(tick=160, channel=0, data=[41, 0]),
   midi.NoteOnEvent(tick=0, channel=0, data=[44, 33]),
   midi.NoteOnEvent(tick=40, channel=0, data=[46, 0]),
   midi.NoteOnEvent(tick=120, channel=0, data=[45, 36]),
   midi.NoteOnEvent(tick=40, channel=0, data=[44, 0]),
   midi.NoteOnEvent(tick=120, channel=0, data=[49, 34]),
   midi.NoteOnEvent(tick=160, channel=0, data=[45, 0]),
   midi.NoteOnEvent(tick=0, channel=0, data=[45, 34]),
   midi.NoteOnEvent(tick=40, channel=0, data=[49, 0]),
   midi.NoteOnEvent(tick=120, channel=0, data=[45, 0]),
   midi.NoteOnEvent(tick=0, channel=0, data=[46, 41]),
   midi.NoteOnEvent(tick=160, channel=0, data=[51, 37]),
   midi.NoteOnEvent(tick=160, channel=0, data=[46, 0]),
   midi.NoteOnEvent(tick=0, channel=0, data=[47, 37]),
   midi.NoteOnEvent(tick=40, channel=0, data=[51, 0]),
   midi.NoteOnEvent(tick=120, channel=0, data=[48, 39]),
   midi.NoteOnEvent(tick=40, channel=0, data=[47, 0]),
   midi.NoteOnEvent(tick=120, channel=0, data=[53, 39]),
   midi.NoteOnEvent(tick=160, channel=0, data=[48, 0]),
   midi.NoteOnEvent(tick=0, channel=0, data=[48, 39]),
   midi.NoteOnEvent(tick=40, channel=0, data=[53, 0]),
   midi.NoteOnEvent(tick=120, channel=0, data=[48, 0]),
   midi.NoteOnEvent(tick=0, channel=0, data=[49, 43]),
   midi.NoteOnEvent(tick=160, channel=0, data=[54, 39]),
   midi.NoteOnEvent(tick=160, channel=0, data=[49, 0]),
   midi.NoteOnEvent(tick=0, channel=0, data=[50, 39]),
   midi.NoteOnEvent(tick=40, channel=0, data=[54, 0]),
   midi.NoteOnEvent(tick=120, channel=0, data=[51, 41]),
   midi.NoteOnEvent(tick=40, channel=0, data=[50, 0]),
   midi.NoteOnEvent(tick=120, channel=0, data=[57, 39]),
   midi.NoteOnEvent(tick=160, channel=0, data=[51, 0]),
   midi.NoteOnEvent(tick=0, channel=0, data=[53, 39]),
   midi.NoteOnEvent(tick=40, channel=0, data=[57, 0]),
   midi.NoteOnEvent(tick=120, channel=0, data=[53, 0]),
   midi.NoteOnEvent(tick=0, channel=0, data=[54, 46]),
   midi.NoteOnEvent(tick=160, channel=0, data=[61, 40]),
   midi.NoteOnEvent(tick=160, channel=0, data=[54, 0]),
   midi.NoteOnEvent(tick=0, channel=0, data=[57, 39]),
   midi.NoteOnEvent(tick=40, channel=0, data=[61, 0]),
   midi.NoteOnEvent(tick=120, channel=0, data=[60, 40]),
   midi.NoteOnEvent(tick=40, channel=0, data=[57, 0]),
   midi.NoteOnEvent(tick=120, channel=0, data=[66, 42]),
   midi.NoteOnEvent(tick=160, channel=0, data=[60, 0]),
   midi.NoteOnEvent(tick=0, channel=0, data=[65, 40]),
   midi.NoteOnEvent(tick=40, channel=0, data=[66, 0]),
   midi.NoteOnEvent(tick=120, channel=0, data=[65, 0]),
   midi.NoteOnEvent(tick=0, channel=0, data=[57, 45]),
   midi.NoteOnEvent(tick=160, channel=0, data=[61, 39]),
   midi.NoteOnEvent(tick=160, channel=0, data=[57, 0]),
   midi.NoteOnEvent(tick=0, channel=0, data=[57, 41]),
   midi.NoteOnEvent(tick=40, channel=0, data=[61, 0]),
   midi.NoteOnEvent(tick=120, channel=0, data=[60, 42]),
   midi.NoteOnEvent(tick=40, channel=0, data=[57, 0]),
   midi.NoteOnEvent(tick=120, channel=0, data=[66, 43]),
   midi.NoteOnEvent(tick=160, channel=0, data=[60, 0]),
   midi.NoteOnEvent(tick=0, channel=0, data=[65, 43]),
   midi.NoteOnEvent(tick=40, channel=0, data=[66, 0]),
   midi.NoteOnEvent(tick=120, channel=0, data=[65, 0]),
   midi.NoteOnEvent(tick=0, channel=0, data=[57, 45]),
   midi.NoteOnEvent(tick=160, channel=0, data=[61, 39]),
   midi.NoteOnEvent(tick=160, channel=0, data=[57, 0]),
   midi.NoteOnEvent(tick=0, channel=0, data=[57, 41]),
   midi.NoteOnEvent(tick=40, channel=0, data=[61, 0]),
   midi.NoteOnEvent(tick=120, channel=0, data=[60, 43]),
   midi.NoteOnEvent(tick=40, channel=0, data=[57, 0]),
   midi.NoteOnEvent(tick=120, channel=0, data=[66, 43]),
   midi.NoteOnEvent(tick=160, channel=0, data=[60, 0]),
   midi.NoteOnEvent(tick=0, channel=0, data=[65, 43]),
   midi.NoteOnEvent(tick=40, channel=0, data=[66, 0]),
   midi.NoteOnEvent(tick=120, channel=0, data=[65, 0]),
   midi.NoteOnEvent(tick=0, channel=0, data=[60, 47]),
   midi.NoteOnEvent(tick=160, channel=0, data=[66, 43]),
   midi.NoteOnEvent(tick=160, channel=0, data=[60, 0]),
   midi.NoteOnEvent(tick=0, channel=0, data=[65, 40]),
   midi.NoteOnEvent(tick=40, channel=0, data=[66, 0]),
   midi.NoteOnEvent(tick=120, channel=0, data=[60, 41]),
   midi.NoteOnEvent(tick=40, channel=0, data=[65, 0]),
   midi.NoteOnEvent(tick=120, channel=0, data=[66, 43]),
   midi.NoteOnEvent(tick=160, channel=0, data=[60, 0]),
   midi.NoteOnEvent(tick=0, channel=0, data=[65, 40]),
   midi.NoteOnEvent(tick=40, channel=0, data=[66, 0]),
   midi.NoteOnEvent(tick=120, channel=0, data=[65, 0]),
   midi.NoteOnEvent(tick=0, channel=0, data=[60, 45]),
   midi.NoteOnEvent(tick=160, channel=0, data=[66, 43]),
   midi.NoteOnEvent(tick=160, channel=0, data=[60, 0]),
   midi.NoteOnEvent(tick=0, channel=0, data=[65, 40]),
   midi.NoteOnEvent(tick=40, channel=0, data=[66, 0]),
   midi.NoteOnEvent(tick=120, channel=0, data=[58, 44]),
   midi.NoteOnEvent(tick=40, channel=0, data=[65, 0]),
   midi.NoteOnEvent(tick=120, channel=0, data=[66, 43]),
   midi.NoteOnEvent(tick=160, channel=0, data=[58, 0]),
   midi.NoteOnEvent(tick=0, channel=0, data=[65, 43]),
   midi.NoteOnEvent(tick=40, channel=0, data=[66, 0]),
   midi.NoteOnEvent(tick=120, channel=0, data=[65, 0]),
   midi.NoteOnEvent(tick=0, channel=0, data=[61, 45]),
   midi.NoteOnEvent(tick=160, channel=0, data=[53, 36]),
   midi.NoteOnEvent(tick=160, channel=0, data=[61, 0]),
   midi.NoteOnEvent(tick=0, channel=0, data=[63, 39]),
   midi.NoteOnEvent(tick=40, channel=0, data=[53, 0]),
   midi.NoteOnEvent(tick=120, channel=0, data=[65, 39]),
   midi.NoteOnEvent(tick=40, channel=0, data=[63, 0]),
   midi.NoteOnEvent(tick=120, channel=0, data=[63, 40]),
   midi.NoteOnEvent(tick=40, channel=0, data=[65, 0]),
   midi.NoteOnEvent(tick=120, channel=0, data=[61, 40]),
   midi.NoteOnEvent(tick=40, channel=0, data=[63, 0]),
   midi.NoteOnEvent(tick=120, channel=0, data=[61, 0]),
   midi.NoteOnEvent(tick=0, channel=0, data=[58, 44]),
   midi.NoteOnEvent(tick=160, channel=0, data=[53, 39]),
   midi.NoteOnEvent(tick=40, channel=0, data=[58, 0]),
   midi.NoteOnEvent(tick=120, channel=0, data=[60, 39]),
   midi.NoteOnEvent(tick=40, channel=0, data=[53, 0]),
   midi.NoteOnEvent(tick=120, channel=0, data=[61, 40]),
   midi.NoteOnEvent(tick=40, channel=0, data=[60, 0]),
   midi.NoteOnEvent(tick=120, channel=0, data=[60, 39]),
   midi.NoteOnEvent(tick=40, channel=0, data=[61, 0]),
   midi.NoteOnEvent(tick=120, channel=0, data=[58, 40]),
   midi.NoteOnEvent(tick=40, channel=0, data=[60, 0]),
   midi.NoteOnEvent(tick=120, channel=0, data=[58, 0]),
   midi.NoteOnEvent(tick=0, channel=0, data=[61, 45]),
   midi.NoteOnEvent(tick=160, channel=0, data=[53, 39]),
   midi.NoteOnEvent(tick=40, channel=0, data=[61, 0]),
   midi.NoteOnEvent(tick=120, channel=0, data=[63, 39]),
   midi.NoteOnEvent(tick=40, channel=0, data=[53, 0]),
   midi.NoteOnEvent(tick=120, channel=0, data=[65, 41]),
   midi.NoteOnEvent(tick=40, channel=0, data=[63, 0]),
   midi.NoteOnEvent(tick=120, channel=0, data=[63, 40]),
   midi.NoteOnEvent(tick=40, channel=0, data=[65, 0]),
   midi.NoteOnEvent(tick=120, channel=0, data=[61, 40]),
   midi.NoteOnEvent(tick=40, channel=0, data=[63, 0]),
   midi.NoteOnEvent(tick=120, channel=0, data=[61, 0]),
   midi.NoteOnEvent(tick=0, channel=0, data=[58, 44]),
   midi.NoteOnEvent(tick=160, channel=0, data=[53, 39]),
   midi.NoteOnEvent(tick=40, channel=0, data=[58, 0]),
   midi.NoteOnEvent(tick=120, channel=0, data=[60, 39]),
   midi.NoteOnEvent(tick=40, channel=0, data=[53, 0]),
   midi.NoteOnEvent(tick=120, channel=0, data=[61, 40]),
   midi.NoteOnEvent(tick=40, channel=0, data=[60, 0]),
   midi.NoteOnEvent(tick=120, channel=0, data=[60, 40]),
   midi.NoteOnEvent(tick=40, channel=0, data=[61, 0]),
   midi.NoteOnEvent(tick=120, channel=0, data=[58, 40]),
   midi.NoteOnEvent(tick=40, channel=0, data=[60, 0]),
   midi.NoteOnEvent(tick=120, channel=0, data=[58, 0]),
   midi.NoteOnEvent(tick=0, channel=0, data=[51, 44]),
   midi.NoteOnEvent(tick=160, channel=0, data=[53, 39]),
   midi.NoteOnEvent(tick=40, channel=0, data=[51, 0]),
   midi.NoteOnEvent(tick=120, channel=0, data=[58, 34]),
   midi.NoteOnEvent(tick=40, channel=0, data=[53, 0]),
   midi.NoteOnEvent(tick=120, channel=0, data=[61, 37]),
   midi.NoteOnEvent(tick=40, channel=0, data=[58, 0]),
   midi.NoteOnEvent(tick=120, channel=0, data=[49, 35]),
   midi.NoteOnEvent(tick=40, channel=0, data=[61, 0]),
   midi.NoteOnEvent(tick=120, channel=0, data=[53, 35]),
   midi.NoteOnEvent(tick=40, channel=0, data=[49, 0]),
   midi.NoteOnEvent(tick=120, channel=0, data=[53, 0]),
   midi.NoteOnEvent(tick=0, channel=0, data=[51, 44]),
   midi.NoteOnEvent(tick=160, channel=0, data=[53, 39]),
   midi.NoteOnEvent(tick=40, channel=0, data=[51, 0]),
   midi.NoteOnEvent(tick=120, channel=0, data=[58, 34]),
   midi.NoteOnEvent(tick=40, channel=0, data=[53, 0]),
   midi.NoteOnEvent(tick=120, channel=0, data=[61, 36]),
   midi.NoteOnEvent(tick=40, channel=0, data=[58, 0]),
   midi.NoteOnEvent(tick=120, channel=0, data=[49, 35]),
   midi.NoteOnEvent(tick=40, channel=0, data=[61, 0]),
   midi.NoteOnEvent(tick=120, channel=0, data=[53, 35]),
   midi.NoteOnEvent(tick=40, channel=0, data=[49, 0]),
   midi.NoteOnEvent(tick=120, channel=0, data=[53, 0]),
   midi.NoteOnEvent(tick=0, channel=0, data=[48, 44]),
   midi.NoteOnEvent(tick=160, channel=0, data=[49, 39]),
   midi.NoteOnEvent(tick=40, channel=0, data=[48, 0]),
   midi.NoteOnEvent(tick=120, channel=0, data=[53, 34]),
   midi.NoteOnEvent(tick=40, channel=0, data=[49, 0]),
   midi.NoteOnEvent(tick=120, channel=0, data=[58, 36]),
   midi.NoteOnEvent(tick=40, channel=0, data=[53, 0]),
   midi.NoteOnEvent(tick=120, channel=0, data=[46, 35]),
   midi.NoteOnEvent(tick=40, channel=0, data=[58, 0]),
   midi.NoteOnEvent(tick=120, channel=0, data=[49, 35]),
   midi.NoteOnEvent(tick=40, channel=0, data=[46, 0]),
   midi.NoteOnEvent(tick=120, channel=0, data=[49, 0]),
   midi.NoteOnEvent(tick=0, channel=0, data=[48, 44]),
   midi.NoteOnEvent(tick=160, channel=0, data=[49, 39]),
   midi.NoteOnEvent(tick=40, channel=0, data=[48, 0]),
   midi.NoteOnEvent(tick=120, channel=0, data=[53, 34]),
   midi.NoteOnEvent(tick=40, channel=0, data=[49, 0]),
   midi.NoteOnEvent(tick=120, channel=0, data=[58, 36]),
   midi.NoteOnEvent(tick=40, channel=0, data=[53, 0]),
   midi.NoteOnEvent(tick=120, channel=0, data=[46, 35]),
   midi.NoteOnEvent(tick=40, channel=0, data=[58, 0]),
   midi.NoteOnEvent(tick=120, channel=0, data=[49, 35]),
   midi.NoteOnEvent(tick=40, channel=0, data=[46, 0]),
   midi.NoteOnEvent(tick=120, channel=0, data=[49, 0]),
   midi.NoteOnEvent(tick=960, channel=0, data=[48, 44]),
   midi.NoteOnEvent(tick=160, channel=0, data=[49, 39]),
   midi.NoteOnEvent(tick=40, channel=0, data=[48, 0]),
   midi.NoteOnEvent(tick=120, channel=0, data=[53, 34]),
   midi.NoteOnEvent(tick=40, channel=0, data=[49, 0]),
   midi.NoteOnEvent(tick=120, channel=0, data=[58, 35]),
   midi.NoteOnEvent(tick=40, channel=0, data=[53, 0]),
   midi.NoteOnEvent(tick=120, channel=0, data=[46, 35]),
   midi.NoteOnEvent(tick=40, channel=0, data=[58, 0]),
   midi.NoteOnEvent(tick=120, channel=0, data=[49, 35]),
   midi.NoteOnEvent(tick=40, channel=0, data=[46, 0]),
   midi.NoteOnEvent(tick=120, channel=0, data=[49, 0]),
   midi.NoteOnEvent(tick=960, channel=0, data=[48, 57]),
   midi.NoteOnEvent(tick=160, channel=0, data=[49, 51]),
   midi.NoteOnEvent(tick=40, channel=0, data=[48, 0]),
   midi.NoteOnEvent(tick=120, channel=0, data=[53, 46]),
   midi.NoteOnEvent(tick=40, channel=0, data=[49, 0]),
   midi.NoteOnEvent(tick=120, channel=0, data=[58, 47]),
   midi.NoteOnEvent(tick=40, channel=0, data=[53, 0]),
   midi.NoteOnEvent(tick=120, channel=0, data=[46, 48]),
   midi.NoteOnEvent(tick=40, channel=0, data=[58, 0]),
   midi.NoteOnEvent(tick=120, channel=0, data=[49, 49]),
   midi.NoteOnEvent(tick=40, channel=0, data=[46, 0]),
   midi.NoteOnEvent(tick=120, channel=0, data=[49, 0]),
   midi.NoteOnEvent(tick=0, channel=0, data=[46, 100]),
   midi.NoteOnEvent(tick=480, channel=0, data=[46, 0]),
   midi.NoteOnEvent(tick=480, channel=0, data=[94, 99]),
   midi.NoteOnEvent(tick=0, channel=0, data=[82, 83]),
   midi.NoteOnEvent(tick=960, channel=0, data=[82, 0]),
   midi.NoteOnEvent(tick=0, channel=0, data=[94, 0]),
   midi.EndOfTrackEvent(tick=0, data=[])]),
 midi.Track(\
[    midi.ControlChangeEvent(tick=0, channel=0, data=[7, 100]),
   midi.ControlChangeEvent(tick=0, channel=0, data=[10, 64]),
   midi.NoteOnEvent(tick=0, channel=0, data=[41, 30]),
   midi.NoteOnEvent(tick=160, channel=0, data=[43, 24]),
   midi.NoteOnEvent(tick=40, channel=0, data=[41, 0]),
   midi.NoteOnEvent(tick=120, channel=0, data=[46, 25]),
   midi.NoteOnEvent(tick=40, channel=0, data=[43, 0]),
   midi.NoteOnEvent(tick=120, channel=0, data=[49, 25]),
   midi.NoteOnEvent(tick=40, channel=0, data=[46, 0]),
   midi.NoteOnEvent(tick=120, channel=0, data=[40, 28]),
   midi.NoteOnEvent(tick=40, channel=0, data=[49, 0]),
   midi.NoteOnEvent(tick=120, channel=0, data=[43, 26]),
   midi.NoteOnEvent(tick=40, channel=0, data=[40, 0]),
   midi.NoteOnEvent(tick=120, channel=0, data=[43, 0]),
   midi.NoteOnEvent(tick=0, channel=0, data=[41, 30]),
   midi.NoteOnEvent(tick=160, channel=0, data=[43, 26]),
   midi.NoteOnEvent(tick=40, channel=0, data=[41, 0]),
   midi.NoteOnEvent(tick=120, channel=0, data=[46, 26]),
   midi.NoteOnEvent(tick=40, channel=0, data=[43, 0]),
   midi.NoteOnEvent(tick=120, channel=0, data=[49, 27]),
   midi.NoteOnEvent(tick=40, channel=0, data=[46, 0]),
   midi.NoteOnEvent(tick=120, channel=0, data=[40, 28]),
   midi.NoteOnEvent(tick=40, channel=0, data=[49, 0]),
   midi.NoteOnEvent(tick=120, channel=0, data=[43, 27]),
   midi.NoteOnEvent(tick=40, channel=0, data=[40, 0]),
   midi.NoteOnEvent(tick=104, channel=0, data=[43, 0]),
   midi.NoteOnEvent(tick=16, channel=0, data=[43, 34]),
   midi.NoteOnEvent(tick=160, channel=0, data=[45, 28]),
   midi.NoteOnEvent(tick=40, channel=0, data=[43, 0]),
   midi.NoteOnEvent(tick=120, channel=0, data=[48, 29]),
   midi.NoteOnEvent(tick=40, channel=0, data=[45, 0]),
   midi.NoteOnEvent(tick=120, channel=0, data=[51, 28]),
   midi.NoteOnEvent(tick=40, channel=0, data=[48, 0]),
   midi.NoteOnEvent(tick=120, channel=0, data=[42, 28]),
   midi.NoteOnEvent(tick=40, channel=0, data=[51, 0]),
   midi.NoteOnEvent(tick=120, channel=0, data=[45, 30]),
   midi.NoteOnEvent(tick=40, channel=0, data=[42, 0]),
   midi.NoteOnEvent(tick=120, channel=0, data=[45, 0]),
   midi.NoteOnEvent(tick=0, channel=0, data=[43, 34]),
   midi.NoteOnEvent(tick=160, channel=0, data=[45, 28]),
   midi.NoteOnEvent(tick=40, channel=0, data=[43, 0]),
   midi.NoteOnEvent(tick=120, channel=0, data=[48, 28]),
   midi.NoteOnEvent(tick=40, channel=0, data=[45, 0]),
   midi.NoteOnEvent(tick=120, channel=0, data=[51, 30]),
   midi.NoteOnEvent(tick=40, channel=0, data=[48, 0]),
   midi.NoteOnEvent(tick=120, channel=0, data=[42, 28]),
   midi.NoteOnEvent(tick=40, channel=0, data=[51, 0]),
   midi.NoteOnEvent(tick=120, channel=0, data=[45, 30]),
   midi.NoteOnEvent(tick=40, channel=0, data=[42, 0]),
   midi.NoteOnEvent(tick=120, channel=0, data=[45, 0]),
   midi.NoteOnEvent(tick=0, channel=0, data=[46, 38]),
   midi.NoteOnEvent(tick=160, channel=0, data=[48, 29]),
   midi.NoteOnEvent(tick=40, channel=0, data=[46, 0]),
   midi.NoteOnEvent(tick=120, channel=0, data=[51, 32]),
   midi.NoteOnEvent(tick=40, channel=0, data=[48, 0]),
   midi.NoteOnEvent(tick=120, channel=0, data=[54, 36]),
   midi.NoteOnEvent(tick=40, channel=0, data=[51, 0]),
   midi.NoteOnEvent(tick=120, channel=0, data=[45, 33]),
   midi.NoteOnEvent(tick=40, channel=0, data=[54, 0]),
   midi.NoteOnEvent(tick=120, channel=0, data=[48, 31]),
   midi.NoteOnEvent(tick=40, channel=0, data=[45, 0]),
   midi.NoteOnEvent(tick=120, channel=0, data=[48, 0]),
   midi.NoteOnEvent(tick=0, channel=0, data=[49, 34]),
   midi.NoteOnEvent(tick=160, channel=0, data=[51, 32]),
   midi.NoteOnEvent(tick=40, channel=0, data=[49, 0]),
   midi.NoteOnEvent(tick=120, channel=0, data=[54, 33]),
   midi.NoteOnEvent(tick=40, channel=0, data=[51, 0]),
   midi.NoteOnEvent(tick=120, channel=0, data=[57, 35]),
   midi.NoteOnEvent(tick=40, channel=0, data=[54, 0]),
   midi.NoteOnEvent(tick=120, channel=0, data=[48, 33]),
   midi.NoteOnEvent(tick=40, channel=0, data=[57, 0]),
   midi.NoteOnEvent(tick=120, channel=0, data=[51, 34]),
   midi.NoteOnEvent(tick=40, channel=0, data=[48, 0]),
   midi.NoteOnEvent(tick=120, channel=0, data=[51, 0]),
   midi.NoteOnEvent(tick=0, channel=0, data=[49, 41]),
   midi.NoteOnEvent(tick=160, channel=0, data=[51, 35]),
   midi.NoteOnEvent(tick=40, channel=0, data=[49, 0]),
   midi.NoteOnEvent(tick=120, channel=0, data=[54, 32]),
   midi.NoteOnEvent(tick=40, channel=0, data=[51, 0]),
   midi.NoteOnEvent(tick=120, channel=0, data=[54, 0]),
   midi.NoteOnEvent(tick=0, channel=0, data=[57, 37]),
   midi.NoteOnEvent(tick=160, channel=0, data=[48, 36]),
   midi.NoteOnEvent(tick=40, channel=0, data=[57, 0]),
   midi.NoteOnEvent(tick=120, channel=0, data=[51, 36]),
   midi.NoteOnEvent(tick=40, channel=0, data=[48, 0]),
   midi.NoteOnEvent(tick=120, channel=0, data=[51, 0]),
   midi.NoteOnEvent(tick=0, channel=0, data=[54, 41]),
   midi.NoteOnEvent(tick=160, channel=0, data=[58, 34]),
   midi.NoteOnEvent(tick=40, channel=0, data=[54, 0]),
   midi.NoteOnEvent(tick=120, channel=0, data=[60, 34]),
   midi.NoteOnEvent(tick=40, channel=0, data=[58, 0]),
   midi.NoteOnEvent(tick=120, channel=0, data=[63, 38]),
   midi.NoteOnEvent(tick=40, channel=0, data=[60, 0]),
   midi.NoteOnEvent(tick=120, channel=0, data=[53, 37]),
   midi.NoteOnEvent(tick=40, channel=0, data=[63, 0]),
   midi.NoteOnEvent(tick=120, channel=0, data=[57, 37]),
   midi.NoteOnEvent(tick=40, channel=0, data=[53, 0]),
   midi.NoteOnEvent(tick=120, channel=0, data=[57, 0]),
   midi.NoteOnEvent(tick=0, channel=0, data=[58, 47]),
   midi.NoteOnEvent(tick=160, channel=0, data=[61, 38]),
   midi.NoteOnEvent(tick=40, channel=0, data=[58, 0]),
   midi.NoteOnEvent(tick=120, channel=0, data=[66, 40]),
   midi.NoteOnEvent(tick=40, channel=0, data=[61, 0]),
   midi.NoteOnEvent(tick=120, channel=0, data=[65, 37]),
   midi.NoteOnEvent(tick=40, channel=0, data=[66, 0]),
   midi.NoteOnEvent(tick=120, channel=0, data=[60, 38]),
   midi.NoteOnEvent(tick=40, channel=0, data=[65, 0]),
   midi.NoteOnEvent(tick=120, channel=0, data=[61, 38]),
   midi.NoteOnEvent(tick=40, channel=0, data=[60, 0]),
   midi.NoteOnEvent(tick=120, channel=0, data=[61, 0]),
   midi.NoteOnEvent(tick=0, channel=0, data=[64, 42]),
   midi.NoteOnEvent(tick=160, channel=0, data=[60, 39]),
   midi.NoteOnEvent(tick=160, channel=0, data=[60, 0]),
   midi.NoteOnEvent(tick=0, channel=0, data=[64, 0]),
   midi.NoteOnEvent(tick=0, channel=0, data=[61, 40]),
   midi.NoteOnEvent(tick=160, channel=0, data=[57, 36]),
   midi.NoteOnEvent(tick=40, channel=0, data=[61, 0]),
   midi.NoteOnEvent(tick=120, channel=0, data=[57, 0]),
   midi.NoteOnEvent(tick=0, channel=0, data=[58, 39]),
   midi.NoteOnEvent(tick=160, channel=0, data=[54, 36]),
   midi.NoteOnEvent(tick=40, channel=0, data=[58, 0]),
   midi.NoteOnEvent(tick=120, channel=0, data=[54, 0]),
   midi.NoteOnEvent(tick=0, channel=0, data=[52, 40]),
   midi.NoteOnEvent(tick=160, channel=0, data=[53, 37]),
   midi.NoteOnEvent(tick=40, channel=0, data=[52, 0]),
   midi.NoteOnEvent(tick=120, channel=0, data=[58, 37]),
   midi.NoteOnEvent(tick=40, channel=0, data=[53, 0]),
   midi.NoteOnEvent(tick=120, channel=0, data=[58, 0]),
   midi.NoteOnEvent(tick=0, channel=0, data=[56, 39]),
   midi.NoteOnEvent(tick=160, channel=0, data=[57, 38]),
   midi.NoteOnEvent(tick=40, channel=0, data=[56, 0]),
   midi.NoteOnEvent(tick=120, channel=0, data=[61, 38]),
   midi.NoteOnEvent(tick=40, channel=0, data=[57, 0]),
   midi.NoteOnEvent(tick=120, channel=0, data=[61, 0]),
   midi.NoteOnEvent(tick=0, channel=0, data=[57, 41]),
   midi.NoteOnEvent(tick=160, channel=0, data=[58, 37]),
   midi.NoteOnEvent(tick=40, channel=0, data=[57, 0]),
   midi.NoteOnEvent(tick=120, channel=0, data=[61, 38]),
   midi.NoteOnEvent(tick=40, channel=0, data=[58, 0]),
   midi.NoteOnEvent(tick=120, channel=0, data=[61, 0]),
   midi.NoteOnEvent(tick=0, channel=0, data=[59, 39]),
   midi.NoteOnEvent(tick=160, channel=0, data=[60, 38]),
   midi.NoteOnEvent(tick=40, channel=0, data=[59, 0]),
   midi.NoteOnEvent(tick=120, channel=0, data=[65, 38]),
   midi.NoteOnEvent(tick=40, channel=0, data=[60, 0]),
   midi.NoteOnEvent(tick=120, channel=0, data=[65, 0]),
   midi.NoteOnEvent(tick=0, channel=0, data=[56, 40]),
   midi.NoteOnEvent(tick=160, channel=0, data=[59, 36]),
   midi.NoteOnEvent(tick=40, channel=0, data=[56, 0]),
   midi.NoteOnEvent(tick=120, channel=0, data=[64, 38]),
   midi.NoteOnEvent(tick=40, channel=0, data=[59, 0]),
   midi.NoteOnEvent(tick=120, channel=0, data=[63, 37]),
   midi.NoteOnEvent(tick=40, channel=0, data=[64, 0]),
   midi.NoteOnEvent(tick=120, channel=0, data=[58, 34]),
   midi.NoteOnEvent(tick=40, channel=0, data=[63, 0]),
   midi.NoteOnEvent(tick=120, channel=0, data=[59, 31]),
   midi.NoteOnEvent(tick=40, channel=0, data=[58, 0]),
   midi.NoteOnEvent(tick=120, channel=0, data=[59, 0]),
   midi.NoteOnEvent(tick=0, channel=0, data=[62, 43]),
   midi.NoteOnEvent(tick=160, channel=0, data=[58, 36]),
   midi.NoteOnEvent(tick=160, channel=0, data=[62, 0]),
   midi.NoteOnEvent(tick=0, channel=0, data=[59, 35]),
   midi.NoteOnEvent(tick=40, channel=0, data=[58, 0]),
   midi.NoteOnEvent(tick=120, channel=0, data=[55, 36]),
   midi.NoteOnEvent(tick=40, channel=0, data=[59, 0]),
   midi.NoteOnEvent(tick=120, channel=0, data=[56, 38]),
   midi.NoteOnEvent(tick=160, channel=0, data=[55, 0]),
   midi.NoteOnEvent(tick=0, channel=0, data=[52, 36]),
   midi.NoteOnEvent(tick=40, channel=0, data=[56, 0]),
   midi.NoteOnEvent(tick=120, channel=0, data=[52, 0]),
   midi.NoteOnEvent(tick=0, channel=0, data=[50, 39]),
   midi.NoteOnEvent(tick=160, channel=0, data=[51, 34]),
   midi.NoteOnEvent(tick=160, channel=0, data=[50, 0]),
   midi.NoteOnEvent(tick=0, channel=0, data=[56, 34]),
   midi.NoteOnEvent(tick=40, channel=0, data=[51, 0]),
   midi.NoteOnEvent(tick=120, channel=0, data=[56, 0]),
   midi.NoteOnEvent(tick=0, channel=0, data=[52, 36]),
   midi.NoteOnEvent(tick=160, channel=0, data=[53, 35]),
   midi.NoteOnEvent(tick=160, channel=0, data=[52, 0]),
   midi.NoteOnEvent(tick=0, channel=0, data=[59, 35]),
   midi.NoteOnEvent(tick=40, channel=0, data=[53, 0]),
   midi.NoteOnEvent(tick=120, channel=0, data=[59, 0]),
   midi.NoteOnEvent(tick=0, channel=0, data=[53, 39]),
   midi.NoteOnEvent(tick=160, channel=0, data=[54, 38]),
   midi.NoteOnEvent(tick=160, channel=0, data=[53, 0]),
   midi.NoteOnEvent(tick=0, channel=0, data=[59, 36]),
   midi.NoteOnEvent(tick=40, channel=0, data=[54, 0]),
   midi.NoteOnEvent(tick=120, channel=0, data=[59, 0]),
   midi.NoteOnEvent(tick=0, channel=0, data=[57, 37]),
   midi.NoteOnEvent(tick=160, channel=0, data=[58, 37]),
   midi.NoteOnEvent(tick=160, channel=0, data=[57, 0]),
   midi.NoteOnEvent(tick=0, channel=0, data=[63, 37]),
   midi.NoteOnEvent(tick=40, channel=0, data=[58, 0]),
   midi.NoteOnEvent(tick=120, channel=0, data=[63, 0]),
   midi.NoteOnEvent(tick=0, channel=0, data=[61, 43]),
   midi.NoteOnEvent(tick=160, channel=0, data=[53, 38]),
   midi.NoteOnEvent(tick=160, channel=0, data=[61, 0]),
   midi.NoteOnEvent(tick=0, channel=0, data=[58, 34]),
   midi.NoteOnEvent(tick=40, channel=0, data=[53, 0]),
   midi.NoteOnEvent(tick=120, channel=0, data=[49, 34]),
   midi.NoteOnEvent(tick=40, channel=0, data=[58, 0]),
   midi.NoteOnEvent(tick=120, channel=0, data=[52, 36]),
   midi.NoteOnEvent(tick=160, channel=0, data=[49, 0]),
   midi.NoteOnEvent(tick=0, channel=0, data=[57, 36]),
   midi.NoteOnEvent(tick=40, channel=0, data=[52, 0]),
   midi.NoteOnEvent(tick=120, channel=0, data=[57, 0]),
   midi.NoteOnEvent(tick=0, channel=0, data=[60, 38]),
   midi.NoteOnEvent(tick=160, channel=0, data=[51, 34]),
   midi.NoteOnEvent(tick=160, channel=0, data=[60, 0]),
   midi.NoteOnEvent(tick=0, channel=0, data=[56, 35]),
   midi.NoteOnEvent(tick=40, channel=0, data=[51, 0]),
   midi.NoteOnEvent(tick=120, channel=0, data=[47, 34]),
   midi.NoteOnEvent(tick=40, channel=0, data=[56, 0]),
   midi.NoteOnEvent(tick=120, channel=0, data=[50, 34]),
   midi.NoteOnEvent(tick=160, channel=0, data=[47, 0]),
   midi.NoteOnEvent(tick=0, channel=0, data=[55, 35]),
   midi.NoteOnEvent(tick=40, channel=0, data=[50, 0]),
   midi.NoteOnEvent(tick=120, channel=0, data=[55, 0]),
   midi.NoteOnEvent(tick=0, channel=0, data=[59, 45]),
   midi.NoteOnEvent(tick=160, channel=0, data=[50, 38]),
   midi.NoteOnEvent(tick=40, channel=0, data=[59, 0]),
   midi.NoteOnEvent(tick=120, channel=0, data=[54, 38]),
   midi.NoteOnEvent(tick=40, channel=0, data=[50, 0]),
   midi.NoteOnEvent(tick=120, channel=0, data=[46, 36]),
   midi.NoteOnEvent(tick=40, channel=0, data=[54, 0]),
   midi.NoteOnEvent(tick=120, channel=0, data=[49, 35]),
   midi.NoteOnEvent(tick=40, channel=0, data=[46, 0]),
   midi.NoteOnEvent(tick=120, channel=0, data=[54, 36]),
   midi.NoteOnEvent(tick=40, channel=0, data=[49, 0]),
   midi.NoteOnEvent(tick=120, channel=0, data=[54, 0]),
   midi.NoteOnEvent(tick=0, channel=0, data=[58, 42]),
   midi.NoteOnEvent(tick=160, channel=0, data=[54, 38]),
   midi.NoteOnEvent(tick=40, channel=0, data=[58, 0]),
   midi.NoteOnEvent(tick=120, channel=0, data=[59, 35]),
   midi.NoteOnEvent(tick=40, channel=0, data=[54, 0]),
   midi.NoteOnEvent(tick=120, channel=0, data=[60, 39]),
   midi.NoteOnEvent(tick=40, channel=0, data=[59, 0]),
   midi.ControlChangeEvent(tick=0, channel=0, data=[64, 127]),
   midi.NoteOnEvent(tick=120, channel=0, data=[61, 43]),
   midi.NoteOnEvent(tick=40, channel=0, data=[60, 0]),
   midi.NoteOnEvent(tick=120, channel=0, data=[63, 45]),
   midi.NoteOnEvent(tick=40, channel=0, data=[61, 0]),
   midi.NoteOnEvent(tick=120, channel=0, data=[63, 0]),
   midi.NoteOnEvent(tick=0, channel=0, data=[64, 48]),
   midi.ControlChangeEvent(tick=9, channel=0, data=[64, 0]),
   midi.NoteOnEvent(tick=151, channel=0, data=[55, 38]),
   midi.NoteOnEvent(tick=40, channel=0, data=[64, 0]),
   midi.NoteOnEvent(tick=120, channel=0, data=[60, 38]),
   midi.NoteOnEvent(tick=40, channel=0, data=[55, 0]),
   midi.NoteOnEvent(tick=120, channel=0, data=[51, 34]),
   midi.NoteOnEvent(tick=40, channel=0, data=[60, 0]),
   midi.NoteOnEvent(tick=120, channel=0, data=[54, 34]),
   midi.NoteOnEvent(tick=160, channel=0, data=[51, 0]),
   midi.NoteOnEvent(tick=0, channel=0, data=[59, 34]),
   midi.NoteOnEvent(tick=40, channel=0, data=[54, 0]),
   midi.NoteOnEvent(tick=120, channel=0, data=[59, 0]),
   midi.NoteOnEvent(tick=0, channel=0, data=[62, 40]),
   midi.NoteOnEvent(tick=160, channel=0, data=[53, 35]),
   midi.NoteOnEvent(tick=160, channel=0, data=[62, 0]),
   midi.NoteOnEvent(tick=0, channel=0, data=[58, 36]),
   midi.NoteOnEvent(tick=40, channel=0, data=[53, 0]),
   midi.NoteOnEvent(tick=120, channel=0, data=[49, 36]),
   midi.NoteOnEvent(tick=40, channel=0, data=[58, 0]),
   midi.NoteOnEvent(tick=120, channel=0, data=[52, 38]),
   midi.NoteOnEvent(tick=160, channel=0, data=[49, 0]),
   midi.NoteOnEvent(tick=0, channel=0, data=[57, 38]),
   midi.NoteOnEvent(tick=40, channel=0, data=[52, 0]),
   midi.NoteOnEvent(tick=120, channel=0, data=[57, 0]),
   midi.NoteOnEvent(tick=0, channel=0, data=[60, 41]),
   midi.NoteOnEvent(tick=160, channel=0, data=[52, 38]),
   midi.NoteOnEvent(tick=40, channel=0, data=[60, 0]),
   midi.NoteOnEvent(tick=120, channel=0, data=[56, 38]),
   midi.NoteOnEvent(tick=40, channel=0, data=[52, 0]),
   midi.NoteOnEvent(tick=120, channel=0, data=[47, 39]),
   midi.NoteOnEvent(tick=40, channel=0, data=[56, 0]),
   midi.NoteOnEvent(tick=120, channel=0, data=[50, 36]),
   midi.NoteOnEvent(tick=40, channel=0, data=[47, 0]),
   midi.NoteOnEvent(tick=120, channel=0, data=[55, 36]),
   midi.NoteOnEvent(tick=40, channel=0, data=[50, 0]),
   midi.NoteOnEvent(tick=120, channel=0, data=[55, 0]),
   midi.NoteOnEvent(tick=0, channel=0, data=[59, 42]),
   midi.NoteOnEvent(tick=160, channel=0, data=[54, 38]),
   midi.NoteOnEvent(tick=40, channel=0, data=[59, 0]),
   midi.NoteOnEvent(tick=120, channel=0, data=[61, 38]),
   midi.NoteOnEvent(tick=40, channel=0, data=[54, 0]),
   midi.NoteOnEvent(tick=120, channel=0, data=[62, 42]),
   midi.ControlChangeEvent(tick=35, channel=0, data=[64, 127]),
   midi.NoteOnEvent(tick=5, channel=0, data=[61, 0]),
   midi.NoteOnEvent(tick=120, channel=0, data=[63, 44]),
   midi.NoteOnEvent(tick=40, channel=0, data=[62, 0]),
   midi.NoteOnEvent(tick=120, channel=0, data=[64, 45]),
   midi.NoteOnEvent(tick=40, channel=0, data=[63, 0]),
   midi.NoteOnEvent(tick=120, channel=0, data=[64, 0]),
   midi.NoteOnEvent(tick=0, channel=0, data=[65, 47]),
   midi.ControlChangeEvent(tick=13, channel=0, data=[64, 0]),
   midi.NoteOnEvent(tick=147, channel=0, data=[57, 38]),
   midi.NoteOnEvent(tick=40, channel=0, data=[65, 0]),
   midi.NoteOnEvent(tick=120, channel=0, data=[63, 38]),
   midi.NoteOnEvent(tick=40, channel=0, data=[57, 0]),
   midi.NoteOnEvent(tick=120, channel=0, data=[64, 45]),
   midi.NoteOnEvent(tick=40, channel=0, data=[63, 0]),
   midi.ControlChangeEvent(tick=23, channel=0, data=[64, 127]),
   midi.NoteOnEvent(tick=97, channel=0, data=[65, 45]),
   midi.NoteOnEvent(tick=40, channel=0, data=[64, 0]),
   midi.NoteOnEvent(tick=120, channel=0, data=[66, 47]),
   midi.NoteOnEvent(tick=40, channel=0, data=[65, 0]),
   midi.NoteOnEvent(tick=120, channel=0, data=[66, 0]),
   midi.NoteOnEvent(tick=0, channel=0, data=[65, 51]),
   midi.ControlChangeEvent(tick=16, channel=0, data=[64, 0]),
   midi.NoteOnEvent(tick=144, channel=0, data=[58, 39]),
   midi.NoteOnEvent(tick=40, channel=0, data=[65, 0]),
   midi.NoteOnEvent(tick=120, channel=0, data=[61, 42]),
   midi.NoteOnEvent(tick=40, channel=0, data=[58, 0]),
   midi.NoteOnEvent(tick=120, channel=0, data=[64, 46]),
   midi.NoteOnEvent(tick=40, channel=0, data=[61, 0]),
   midi.ControlChangeEvent(tick=3, channel=0, data=[64, 127]),
   midi.NoteOnEvent(tick=117, channel=0, data=[65, 48]),
   midi.NoteOnEvent(tick=40, channel=0, data=[64, 0]),
   midi.NoteOnEvent(tick=120, channel=0, data=[66, 50]),
   midi.NoteOnEvent(tick=40, channel=0, data=[65, 0]),
   midi.NoteOnEvent(tick=120, channel=0, data=[66, 0]),
   midi.NoteOnEvent(tick=0, channel=0, data=[67, 54]),
   midi.ControlChangeEvent(tick=7, channel=0, data=[64, 0]),
   midi.NoteOnEvent(tick=153, channel=0, data=[59, 39]),
   midi.NoteOnEvent(tick=40, channel=0, data=[67, 0]),
   midi.NoteOnEvent(tick=120, channel=0, data=[65, 45]),
   midi.NoteOnEvent(tick=40, channel=0, data=[59, 0]),
   midi.NoteOnEvent(tick=120, channel=0, data=[66, 51]),
   midi.ControlChangeEvent(tick=23, channel=0, data=[64, 127]),
   midi.NoteOnEvent(tick=17, channel=0, data=[65, 0]),
   midi.NoteOnEvent(tick=120, channel=0, data=[67, 51]),
   midi.NoteOnEvent(tick=40, channel=0, data=[66, 0]),
   midi.NoteOnEvent(tick=120, channel=0, data=[68, 55]),
   midi.NoteOnEvent(tick=40, channel=0, data=[67, 0]),
   midi.NoteOnEvent(tick=120, channel=0, data=[68, 0]),
   midi.NoteOnEvent(tick=0, channel=0, data=[67, 57]),
   midi.ControlChangeEvent(tick=10, channel=0, data=[64, 0]),
   midi.NoteOnEvent(tick=150, channel=0, data=[60, 43]),
   midi.NoteOnEvent(tick=40, channel=0, data=[67, 0]),
   midi.NoteOnEvent(tick=120, channel=0, data=[63, 51]),
   midi.NoteOnEvent(tick=40, channel=0, data=[60, 0]),
   midi.ControlChangeEvent(tick=103, channel=0, data=[64, 127]),
   midi.NoteOnEvent(tick=17, channel=0, data=[66, 54]),
   midi.NoteOnEvent(tick=40, channel=0, data=[63, 0]),
   midi.NoteOnEvent(tick=120, channel=0, data=[67, 56]),
   midi.NoteOnEvent(tick=40, channel=0, data=[66, 0]),
   midi.NoteOnEvent(tick=120, channel=0, data=[68, 57]),
   midi.NoteOnEvent(tick=40, channel=0, data=[67, 0]),
   midi.NoteOnEvent(tick=120, channel=0, data=[68, 0]),
   midi.NoteOnEvent(tick=0, channel=0, data=[63, 57]),
   midi.ControlChangeEvent(tick=13, channel=0, data=[64, 0]),
   midi.NoteOnEvent(tick=147, channel=0, data=[60, 49]),
   midi.NoteOnEvent(tick=160, channel=0, data=[63, 0]),
   midi.NoteOnEvent(tick=0, channel=0, data=[65, 43]),
   midi.NoteOnEvent(tick=40, channel=0, data=[60, 0]),
   midi.NoteOnEvent(tick=120, channel=0, data=[63, 43]),
   midi.NoteOnEvent(tick=40, channel=0, data=[65, 0]),
   midi.NoteOnEvent(tick=120, channel=0, data=[56, 41]),
   midi.NoteOnEvent(tick=160, channel=0, data=[63, 0]),
   midi.NoteOnEvent(tick=0, channel=0, data=[61, 44]),
   midi.NoteOnEvent(tick=40, channel=0, data=[56, 0]),
   midi.NoteOnEvent(tick=120, channel=0, data=[61, 0]),
   midi.NoteOnEvent(tick=0, channel=0, data=[60, 48]),
   midi.NoteOnEvent(tick=160, channel=0, data=[51, 38]),
   midi.NoteOnEvent(tick=160, channel=0, data=[60, 0]),
   midi.NoteOnEvent(tick=0, channel=0, data=[58, 39]),
   midi.NoteOnEvent(tick=40, channel=0, data=[51, 0]),
   midi.NoteOnEvent(tick=120, channel=0, data=[56, 41]),
   midi.NoteOnEvent(tick=40, channel=0, data=[58, 0]),
   midi.NoteOnEvent(tick=120, channel=0, data=[48, 39]),
   midi.NoteOnEvent(tick=160, channel=0, data=[56, 0]),
   midi.NoteOnEvent(tick=0, channel=0, data=[53, 39]),
   midi.NoteOnEvent(tick=40, channel=0, data=[48, 0]),
   midi.NoteOnEvent(tick=120, channel=0, data=[53, 0]),
   midi.NoteOnEvent(tick=0, channel=0, data=[51, 47]),
   midi.NoteOnEvent(tick=160, channel=0, data=[44, 38]),
   midi.NoteOnEvent(tick=40, channel=0, data=[51, 0]),
   midi.NoteOnEvent(tick=120, channel=0, data=[49, 38]),
   midi.NoteOnEvent(tick=40, channel=0, data=[44, 0]),
   midi.NoteOnEvent(tick=120, channel=0, data=[48, 36]),
   midi.NoteOnEvent(tick=40, channel=0, data=[49, 0]),
   midi.NoteOnEvent(tick=120, channel=0, data=[43, 35]),
   midi.NoteOnEvent(tick=40, channel=0, data=[48, 0]),
   midi.NoteOnEvent(tick=120, channel=0, data=[44, 36]),
   midi.NoteOnEvent(tick=40, channel=0, data=[43, 0]),
   midi.NoteOnEvent(tick=120, channel=0, data=[44, 0]),
   midi.NoteOnEvent(tick=0, channel=0, data=[48, 39]),
   midi.NoteOnEvent(tick=160, channel=0, data=[42, 33]),
   midi.NoteOnEvent(tick=40, channel=0, data=[48, 0]),
   midi.NoteOnEvent(tick=120, channel=0, data=[50, 32]),
   midi.NoteOnEvent(tick=40, channel=0, data=[42, 0]),
   midi.NoteOnEvent(tick=120, channel=0, data=[48, 34]),
   midi.NoteOnEvent(tick=40, channel=0, data=[50, 0]),
   midi.NoteOnEvent(tick=120, channel=0, data=[41, 33]),
   midi.NoteOnEvent(tick=40, channel=0, data=[48, 0]),
   midi.NoteOnEvent(tick=120, channel=0, data=[42, 29]),
   midi.NoteOnEvent(tick=40, channel=0, data=[41, 0]),
   midi.NoteOnEvent(tick=120, channel=0, data=[42, 0]),
   midi.NoteOnEvent(tick=0, channel=0, data=[43, 35]),
   midi.NoteOnEvent(tick=160, channel=0, data=[45, 32]),
   midi.NoteOnEvent(tick=40, channel=0, data=[43, 0]),
   midi.NoteOnEvent(tick=120, channel=0, data=[47, 29]),
   midi.NoteOnEvent(tick=40, channel=0, data=[45, 0]),
   midi.NoteOnEvent(tick=120, channel=0, data=[48, 33]),
   midi.NoteOnEvent(tick=40, channel=0, data=[47, 0]),
   midi.NoteOnEvent(tick=120, channel=0, data=[50, 32]),
   midi.NoteOnEvent(tick=40, channel=0, data=[48, 0]),
   midi.NoteOnEvent(tick=120, channel=0, data=[51, 35]),
   midi.NoteOnEvent(tick=40, channel=0, data=[50, 0]),
   midi.NoteOnEvent(tick=120, channel=0, data=[51, 0]),
   midi.NoteOnEvent(tick=0, channel=0, data=[44, 38]),
   midi.NoteOnEvent(tick=160, channel=0, data=[46, 30]),
   midi.NoteOnEvent(tick=40, channel=0, data=[44, 0]),
   midi.NoteOnEvent(tick=120, channel=0, data=[47, 28]),
   midi.NoteOnEvent(tick=40, channel=0, data=[46, 0]),
   midi.NoteOnEvent(tick=120, channel=0, data=[48, 32]),
   midi.NoteOnEvent(tick=40, channel=0, data=[47, 0]),
   midi.NoteOnEvent(tick=120, channel=0, data=[49, 32]),
   midi.NoteOnEvent(tick=40, channel=0, data=[48, 0]),
   midi.NoteOnEvent(tick=120, channel=0, data=[51, 31]),
   midi.NoteOnEvent(tick=40, channel=0, data=[49, 0]),
   midi.NoteOnEvent(tick=120, channel=0, data=[51, 0]),
   midi.NoteOnEvent(tick=0, channel=0, data=[45, 40]),
   midi.NoteOnEvent(tick=160, channel=0, data=[46, 34]),
   midi.NoteOnEvent(tick=40, channel=0, data=[45, 0]),
   midi.NoteOnEvent(tick=120, channel=0, data=[48, 32]),
   midi.NoteOnEvent(tick=40, channel=0, data=[46, 0]),
   midi.NoteOnEvent(tick=120, channel=0, data=[49, 36]),
   midi.NoteOnEvent(tick=40, channel=0, data=[48, 0]),
   midi.NoteOnEvent(tick=120, channel=0, data=[51, 34]),
   midi.NoteOnEvent(tick=40, channel=0, data=[49, 0]),
   midi.NoteOnEvent(tick=120, channel=0, data=[53, 35]),
   midi.NoteOnEvent(tick=40, channel=0, data=[51, 0]),
   midi.NoteOnEvent(tick=120, channel=0, data=[53, 0]),
   midi.NoteOnEvent(tick=0, channel=0, data=[46, 40]),
   midi.NoteOnEvent(tick=160, channel=0, data=[47, 32]),
   midi.NoteOnEvent(tick=40, channel=0, data=[46, 0]),
   midi.NoteOnEvent(tick=120, channel=0, data=[48, 33]),
   midi.NoteOnEvent(tick=40, channel=0, data=[47, 0]),
   midi.NoteOnEvent(tick=120, channel=0, data=[49, 36]),
   midi.NoteOnEvent(tick=40, channel=0, data=[48, 0]),
   midi.NoteOnEvent(tick=120, channel=0, data=[51, 33]),
   midi.NoteOnEvent(tick=40, channel=0, data=[49, 0]),
   midi.NoteOnEvent(tick=120, channel=0, data=[53, 36]),
   midi.NoteOnEvent(tick=40, channel=0, data=[51, 0]),
   midi.NoteOnEvent(tick=120, channel=0, data=[53, 0]),
   midi.NoteOnEvent(tick=0, channel=0, data=[48, 43]),
   midi.NoteOnEvent(tick=160, channel=0, data=[49, 36]),
   midi.NoteOnEvent(tick=40, channel=0, data=[48, 0]),
   midi.NoteOnEvent(tick=120, channel=0, data=[50, 33]),
   midi.NoteOnEvent(tick=40, channel=0, data=[49, 0]),
   midi.NoteOnEvent(tick=120, channel=0, data=[51, 37]),
   midi.NoteOnEvent(tick=40, channel=0, data=[50, 0]),
   midi.NoteOnEvent(tick=120, channel=0, data=[53, 36]),
   midi.NoteOnEvent(tick=40, channel=0, data=[51, 0]),
   midi.NoteOnEvent(tick=120, channel=0, data=[54, 38]),
   midi.NoteOnEvent(tick=40, channel=0, data=[53, 0]),
   midi.NoteOnEvent(tick=120, channel=0, data=[54, 0]),
   midi.NoteOnEvent(tick=0, channel=0, data=[45, 43]),
   midi.NoteOnEvent(tick=160, channel=0, data=[49, 36]),
   midi.NoteOnEvent(tick=40, channel=0, data=[45, 0]),
   midi.NoteOnEvent(tick=120, channel=0, data=[50, 36]),
   midi.NoteOnEvent(tick=40, channel=0, data=[49, 0]),
   midi.NoteOnEvent(tick=120, channel=0, data=[51, 39]),
   midi.NoteOnEvent(tick=40, channel=0, data=[50, 0]),
   midi.NoteOnEvent(tick=120, channel=0, data=[53, 38]),
   midi.NoteOnEvent(tick=40, channel=0, data=[51, 0]),
   midi.NoteOnEvent(tick=120, channel=0, data=[54, 40]),
   midi.NoteOnEvent(tick=40, channel=0, data=[53, 0]),
   midi.NoteOnEvent(tick=120, channel=0, data=[54, 0]),
   midi.NoteOnEvent(tick=0, channel=0, data=[57, 50]),
   midi.NoteOnEvent(tick=160, channel=0, data=[54, 40]),
   midi.NoteOnEvent(tick=40, channel=0, data=[57, 0]),
   midi.NoteOnEvent(tick=120, channel=0, data=[52, 40]),
   midi.NoteOnEvent(tick=40, channel=0, data=[54, 0]),
   midi.NoteOnEvent(tick=120, channel=0, data=[50, 41]),
   midi.NoteOnEvent(tick=40, channel=0, data=[52, 0]),
   midi.NoteOnEvent(tick=120, channel=0, data=[52, 38]),
   midi.NoteOnEvent(tick=40, channel=0, data=[50, 0]),
   midi.NoteOnEvent(tick=120, channel=0, data=[54, 39]),
   midi.NoteOnEvent(tick=40, channel=0, data=[52, 0]),
   midi.NoteOnEvent(tick=120, channel=0, data=[54, 0]),
   midi.NoteOnEvent(tick=0, channel=0, data=[45, 43]),
   midi.NoteOnEvent(tick=160, channel=0, data=[49, 36]),
   midi.NoteOnEvent(tick=40, channel=0, data=[45, 0]),
   midi.NoteOnEvent(tick=120, channel=0, data=[50, 34]),
   midi.NoteOnEvent(tick=40, channel=0, data=[49, 0]),
   midi.NoteOnEvent(tick=120, channel=0, data=[52, 38]),
   midi.NoteOnEvent(tick=40, channel=0, data=[50, 0]),
   midi.NoteOnEvent(tick=120, channel=0, data=[53, 34]),
   midi.NoteOnEvent(tick=40, channel=0, data=[52, 0]),
   midi.NoteOnEvent(tick=120, channel=0, data=[54, 38]),
   midi.NoteOnEvent(tick=40, channel=0, data=[53, 0]),
   midi.NoteOnEvent(tick=120, channel=0, data=[54, 0]),
   midi.NoteOnEvent(tick=0, channel=0, data=[57, 43]),
   midi.NoteOnEvent(tick=160, channel=0, data=[56, 37]),
   midi.NoteOnEvent(tick=40, channel=0, data=[57, 0]),
   midi.NoteOnEvent(tick=120, channel=0, data=[55, 34]),
   midi.NoteOnEvent(tick=40, channel=0, data=[56, 0]),
   midi.NoteOnEvent(tick=120, channel=0, data=[54, 39]),
   midi.NoteOnEvent(tick=40, channel=0, data=[55, 0]),
   midi.NoteOnEvent(tick=120, channel=0, data=[51, 36]),
   midi.NoteOnEvent(tick=40, channel=0, data=[54, 0]),
   midi.NoteOnEvent(tick=120, channel=0, data=[48, 37]),
   midi.NoteOnEvent(tick=40, channel=0, data=[51, 0]),
   midi.NoteOnEvent(tick=120, channel=0, data=[48, 0]),
   midi.NoteOnEvent(tick=0, channel=0, data=[54, 41]),
   midi.NoteOnEvent(tick=160, channel=0, data=[51, 36]),
   midi.NoteOnEvent(tick=40, channel=0, data=[54, 0]),
   midi.NoteOnEvent(tick=120, channel=0, data=[48, 36]),
   midi.NoteOnEvent(tick=40, channel=0, data=[51, 0]),
   midi.NoteOnEvent(tick=120, channel=0, data=[46, 38]),
   midi.NoteOnEvent(tick=40, channel=0, data=[48, 0]),
   midi.NoteOnEvent(tick=120, channel=0, data=[45, 37]),
   midi.NoteOnEvent(tick=40, channel=0, data=[46, 0]),
   midi.NoteOnEvent(tick=120, channel=0, data=[44, 36]),
   midi.NoteOnEvent(tick=40, channel=0, data=[45, 0]),
   midi.NoteOnEvent(tick=120, channel=0, data=[44, 0]),
   midi.NoteOnEvent(tick=0, channel=0, data=[43, 39]),
   midi.NoteOnEvent(tick=160, channel=0, data=[44, 33]),
   midi.NoteOnEvent(tick=40, channel=0, data=[43, 0]),
   midi.NoteOnEvent(tick=120, channel=0, data=[45, 33]),
   midi.NoteOnEvent(tick=40, channel=0, data=[44, 0]),
   midi.NoteOnEvent(tick=120, channel=0, data=[41, 35]),
   midi.NoteOnEvent(tick=40, channel=0, data=[45, 0]),
   midi.NoteOnEvent(tick=120, channel=0, data=[42, 33]),
   midi.NoteOnEvent(tick=40, channel=0, data=[41, 0]),
   midi.NoteOnEvent(tick=120, channel=0, data=[44, 33]),
   midi.NoteOnEvent(tick=40, channel=0, data=[42, 0]),
   midi.NoteOnEvent(tick=120, channel=0, data=[44, 0]),
   midi.NoteOnEvent(tick=0, channel=0, data=[40, 37]),
   midi.NoteOnEvent(tick=160, channel=0, data=[41, 32]),
   midi.NoteOnEvent(tick=40, channel=0, data=[40, 0]),
   midi.NoteOnEvent(tick=120, channel=0, data=[42, 31]),
   midi.NoteOnEvent(tick=40, channel=0, data=[41, 0]),
   midi.NoteOnEvent(tick=120, channel=0, data=[38, 30]),
   midi.NoteOnEvent(tick=40, channel=0, data=[42, 0]),
   midi.NoteOnEvent(tick=120, channel=0, data=[39, 30]),
   midi.NoteOnEvent(tick=40, channel=0, data=[38, 0]),
   midi.NoteOnEvent(tick=120, channel=0, data=[41, 30]),
   midi.NoteOnEvent(tick=40, channel=0, data=[39, 0]),
   midi.NoteOnEvent(tick=120, channel=0, data=[41, 0]),
   midi.NoteOnEvent(tick=0, channel=0, data=[31, 32]),
   midi.NoteOnEvent(tick=160, channel=0, data=[32, 28]),
   midi.NoteOnEvent(tick=40, channel=0, data=[31, 0]),
   midi.NoteOnEvent(tick=120, channel=0, data=[34, 28]),
   midi.NoteOnEvent(tick=40, channel=0, data=[32, 0]),
   midi.NoteOnEvent(tick=120, channel=0, data=[36, 30]),
   midi.NoteOnEvent(tick=40, channel=0, data=[34, 0]),
   midi.NoteOnEvent(tick=120, channel=0, data=[37, 32]),
   midi.NoteOnEvent(tick=40, channel=0, data=[36, 0]),
   midi.NoteOnEvent(tick=120, channel=0, data=[39, 32]),
   midi.NoteOnEvent(tick=40, channel=0, data=[37, 0]),
   midi.NoteOnEvent(tick=120, channel=0, data=[39, 0]),
   midi.NoteOnEvent(tick=0, channel=0, data=[41, 34]),
   midi.NoteOnEvent(tick=160, channel=0, data=[42, 34]),
   midi.NoteOnEvent(tick=40, channel=0, data=[41, 0]),
   midi.NoteOnEvent(tick=120, channel=0, data=[43, 34]),
   midi.NoteOnEvent(tick=40, channel=0, data=[42, 0]),
   midi.NoteOnEvent(tick=120, channel=0, data=[44, 37]),
   midi.NoteOnEvent(tick=40, channel=0, data=[43, 0]),
   midi.NoteOnEvent(tick=120, channel=0, data=[41, 34]),
   midi.NoteOnEvent(tick=40, channel=0, data=[44, 0]),
   midi.NoteOnEvent(tick=120, channel=0, data=[46, 34]),
   midi.NoteOnEvent(tick=40, channel=0, data=[41, 0]),
   midi.NoteOnEvent(tick=120, channel=0, data=[46, 0]),
   midi.NoteOnEvent(tick=0, channel=0, data=[44, 39]),
   midi.NoteOnEvent(tick=160, channel=0, data=[53, 41]),
   midi.NoteOnEvent(tick=40, channel=0, data=[44, 0]),
   midi.NoteOnEvent(tick=120, channel=0, data=[51, 39]),
   midi.NoteOnEvent(tick=40, channel=0, data=[53, 0]),
   midi.NoteOnEvent(tick=120, channel=0, data=[49, 41]),
   midi.NoteOnEvent(tick=40, channel=0, data=[51, 0]),
   midi.NoteOnEvent(tick=120, channel=0, data=[48, 38]),
   midi.NoteOnEvent(tick=40, channel=0, data=[49, 0]),
   midi.NoteOnEvent(tick=120, channel=0, data=[46, 39]),
   midi.NoteOnEvent(tick=40, channel=0, data=[48, 0]),
   midi.NoteOnEvent(tick=120, channel=0, data=[46, 0]),
   midi.NoteOnEvent(tick=0, channel=0, data=[44, 38]),
   midi.NoteOnEvent(tick=160, channel=0, data=[41, 36]),
   midi.NoteOnEvent(tick=40, channel=0, data=[44, 0]),
   midi.NoteOnEvent(tick=120, channel=0, data=[42, 36]),
   midi.NoteOnEvent(tick=40, channel=0, data=[41, 0]),
   midi.NoteOnEvent(tick=120, channel=0, data=[44, 39]),
   midi.NoteOnEvent(tick=40, channel=0, data=[42, 0]),
   midi.NoteOnEvent(tick=120, channel=0, data=[41, 38]),
   midi.NoteOnEvent(tick=40, channel=0, data=[44, 0]),
   midi.NoteOnEvent(tick=120, channel=0, data=[46, 38]),
   midi.NoteOnEvent(tick=40, channel=0, data=[41, 0]),
   midi.NoteOnEvent(tick=120, channel=0, data=[46, 0]),
   midi.NoteOnEvent(tick=0, channel=0, data=[44, 43]),
   midi.NoteOnEvent(tick=160, channel=0, data=[39, 37]),
   midi.NoteOnEvent(tick=40, channel=0, data=[44, 0]),
   midi.NoteOnEvent(tick=120, channel=0, data=[41, 37]),
   midi.NoteOnEvent(tick=40, channel=0, data=[39, 0]),
   midi.NoteOnEvent(tick=120, channel=0, data=[42, 38]),
   midi.NoteOnEvent(tick=40, channel=0, data=[41, 0]),
   midi.NoteOnEvent(tick=120, channel=0, data=[39, 36]),
   midi.NoteOnEvent(tick=40, channel=0, data=[42, 0]),
   midi.NoteOnEvent(tick=120, channel=0, data=[46, 45]),
   midi.NoteOnEvent(tick=40, channel=0, data=[39, 0]),
   midi.NoteOnEvent(tick=120, channel=0, data=[46, 0]),
   midi.NoteOnEvent(tick=0, channel=0, data=[44, 43]),
   midi.NoteOnEvent(tick=160, channel=0, data=[37, 39]),
   midi.NoteOnEvent(tick=40, channel=0, data=[44, 0]),
   midi.NoteOnEvent(tick=120, channel=0, data=[39, 39]),
   midi.NoteOnEvent(tick=40, channel=0, data=[37, 0]),
   midi.NoteOnEvent(tick=120, channel=0, data=[41, 43]),
   midi.NoteOnEvent(tick=40, channel=0, data=[39, 0]),
   midi.NoteOnEvent(tick=120, channel=0, data=[37, 39]),
   midi.NoteOnEvent(tick=40, channel=0, data=[41, 0]),
   midi.NoteOnEvent(tick=120, channel=0, data=[46, 45]),
   midi.NoteOnEvent(tick=40, channel=0, data=[37, 0]),
   midi.NoteOnEvent(tick=120, channel=0, data=[46, 0]),
   midi.NoteOnEvent(tick=0, channel=0, data=[44, 43]),
   midi.NoteOnEvent(tick=160, channel=0, data=[36, 37]),
   midi.NoteOnEvent(tick=40, channel=0, data=[44, 0]),
   midi.NoteOnEvent(tick=120, channel=0, data=[37, 37]),
   midi.NoteOnEvent(tick=40, channel=0, data=[36, 0]),
   midi.NoteOnEvent(tick=120, channel=0, data=[39, 39]),
   midi.NoteOnEvent(tick=40, channel=0, data=[37, 0]),
   midi.NoteOnEvent(tick=120, channel=0, data=[36, 36]),
   midi.NoteOnEvent(tick=40, channel=0, data=[39, 0]),
   midi.NoteOnEvent(tick=120, channel=0, data=[41, 42]),
   midi.NoteOnEvent(tick=40, channel=0, data=[36, 0]),
   midi.NoteOnEvent(tick=120, channel=0, data=[41, 0]),
   midi.NoteOnEvent(tick=0, channel=0, data=[39, 40]),
   midi.NoteOnEvent(tick=160, channel=0, data=[34, 39]),
   midi.NoteOnEvent(tick=40, channel=0, data=[39, 0]),
   midi.NoteOnEvent(tick=120, channel=0, data=[41, 39]),
   midi.NoteOnEvent(tick=40, channel=0, data=[34, 0]),
   midi.NoteOnEvent(tick=120, channel=0, data=[39, 43]),
   midi.NoteOnEvent(tick=40, channel=0, data=[41, 0]),
   midi.NoteOnEvent(tick=120, channel=0, data=[32, 39]),
   midi.NoteOnEvent(tick=40, channel=0, data=[39, 0]),
   midi.NoteOnEvent(tick=120, channel=0, data=[34, 39]),
   midi.NoteOnEvent(tick=40, channel=0, data=[32, 0]),
   midi.NoteOnEvent(tick=120, channel=0, data=[34, 0]),
   midi.NoteOnEvent(tick=0, channel=0, data=[32, 43]),
   midi.NoteOnEvent(tick=160, channel=0, data=[37, 34]),
   midi.NoteOnEvent(tick=40, channel=0, data=[32, 0]),
   midi.NoteOnEvent(tick=120, channel=0, data=[39, 35]),
   midi.NoteOnEvent(tick=40, channel=0, data=[37, 0]),
   midi.NoteOnEvent(tick=120, channel=0, data=[41, 36]),
   midi.NoteOnEvent(tick=40, channel=0, data=[39, 0]),
   midi.NoteOnEvent(tick=120, channel=0, data=[42, 38]),
   midi.NoteOnEvent(tick=40, channel=0, data=[41, 0]),
   midi.NoteOnEvent(tick=120, channel=0, data=[44, 39]),
   midi.NoteOnEvent(tick=40, channel=0, data=[42, 0]),
   midi.NoteOnEvent(tick=120, channel=0, data=[44, 0]),
   midi.NoteOnEvent(tick=0, channel=0, data=[46, 40]),
   midi.NoteOnEvent(tick=160, channel=0, data=[48, 43]),
   midi.NoteOnEvent(tick=40, channel=0, data=[46, 0]),
   midi.NoteOnEvent(tick=120, channel=0, data=[49, 40]),
   midi.NoteOnEvent(tick=40, channel=0, data=[48, 0]),
   midi.NoteOnEvent(tick=120, channel=0, data=[51, 45]),
   midi.NoteOnEvent(tick=40, channel=0, data=[49, 0]),
   midi.NoteOnEvent(tick=120, channel=0, data=[53, 42]),
   midi.NoteOnEvent(tick=40, channel=0, data=[51, 0]),
   midi.NoteOnEvent(tick=120, channel=0, data=[54, 47]),
   midi.NoteOnEvent(tick=40, channel=0, data=[53, 0]),
   midi.NoteOnEvent(tick=120, channel=0, data=[54, 0]),
   midi.NoteOnEvent(tick=0, channel=0, data=[56, 50]),
   midi.NoteOnEvent(tick=160, channel=0, data=[65, 51]),
   midi.NoteOnEvent(tick=40, channel=0, data=[56, 0]),
   midi.NoteOnEvent(tick=120, channel=0, data=[63, 48]),
   midi.NoteOnEvent(tick=40, channel=0, data=[65, 0]),
   midi.NoteOnEvent(tick=120, channel=0, data=[61, 47]),
   midi.NoteOnEvent(tick=40, channel=0, data=[63, 0]),
   midi.NoteOnEvent(tick=120, channel=0, data=[60, 45]),
   midi.NoteOnEvent(tick=40, channel=0, data=[61, 0]),
   midi.NoteOnEvent(tick=120, channel=0, data=[58, 45]),
   midi.NoteOnEvent(tick=40, channel=0, data=[60, 0]),
   midi.NoteOnEvent(tick=120, channel=0, data=[58, 0]),
   midi.NoteOnEvent(tick=0, channel=0, data=[56, 47]),
   midi.NoteOnEvent(tick=160, channel=0, data=[53, 43]),
   midi.NoteOnEvent(tick=40, channel=0, data=[56, 0]),
   midi.NoteOnEvent(tick=120, channel=0, data=[54, 43]),
   midi.NoteOnEvent(tick=40, channel=0, data=[53, 0]),
   midi.NoteOnEvent(tick=120, channel=0, data=[56, 44]),
   midi.NoteOnEvent(tick=40, channel=0, data=[54, 0]),
   midi.NoteOnEvent(tick=120, channel=0, data=[53, 43]),
   midi.NoteOnEvent(tick=40, channel=0, data=[56, 0]),
   midi.NoteOnEvent(tick=120, channel=0, data=[58, 43]),
   midi.NoteOnEvent(tick=40, channel=0, data=[53, 0]),
   midi.NoteOnEvent(tick=120, channel=0, data=[58, 0]),
   midi.NoteOnEvent(tick=0, channel=0, data=[56, 47]),
   midi.NoteOnEvent(tick=160, channel=0, data=[51, 40]),
   midi.NoteOnEvent(tick=40, channel=0, data=[56, 0]),
   midi.NoteOnEvent(tick=120, channel=0, data=[53, 40]),
   midi.NoteOnEvent(tick=40, channel=0, data=[51, 0]),
   midi.NoteOnEvent(tick=120, channel=0, data=[54, 45]),
   midi.NoteOnEvent(tick=40, channel=0, data=[53, 0]),
   midi.NoteOnEvent(tick=120, channel=0, data=[51, 43]),
   midi.NoteOnEvent(tick=40, channel=0, data=[54, 0]),
   midi.NoteOnEvent(tick=120, channel=0, data=[58, 43]),
   midi.NoteOnEvent(tick=40, channel=0, data=[51, 0]),
   midi.NoteOnEvent(tick=120, channel=0, data=[58, 0]),
   midi.NoteOnEvent(tick=0, channel=0, data=[56, 44]),
   midi.NoteOnEvent(tick=160, channel=0, data=[49, 39]),
   midi.NoteOnEvent(tick=40, channel=0, data=[56, 0]),
   midi.NoteOnEvent(tick=120, channel=0, data=[51, 39]),
   midi.NoteOnEvent(tick=40, channel=0, data=[49, 0]),
   midi.NoteOnEvent(tick=120, channel=0, data=[53, 43]),
   midi.NoteOnEvent(tick=40, channel=0, data=[51, 0]),
   midi.NoteOnEvent(tick=120, channel=0, data=[49, 41]),
   midi.NoteOnEvent(tick=40, channel=0, data=[53, 0]),
   midi.NoteOnEvent(tick=120, channel=0, data=[58, 47]),
   midi.NoteOnEvent(tick=40, channel=0, data=[49, 0]),
   midi.NoteOnEvent(tick=120, channel=0, data=[58, 0]),
   midi.NoteOnEvent(tick=0, channel=0, data=[56, 44]),
   midi.NoteOnEvent(tick=160, channel=0, data=[48, 40]),
   midi.NoteOnEvent(tick=40, channel=0, data=[56, 0]),
   midi.NoteOnEvent(tick=120, channel=0, data=[49, 34]),
   midi.NoteOnEvent(tick=40, channel=0, data=[48, 0]),
   midi.NoteOnEvent(tick=120, channel=0, data=[51, 40]),
   midi.NoteOnEvent(tick=40, channel=0, data=[49, 0]),
   midi.NoteOnEvent(tick=120, channel=0, data=[48, 39]),
   midi.NoteOnEvent(tick=40, channel=0, data=[51, 0]),
   midi.NoteOnEvent(tick=120, channel=0, data=[53, 36]),
   midi.NoteOnEvent(tick=40, channel=0, data=[48, 0]),
   midi.NoteOnEvent(tick=120, channel=0, data=[53, 0]),
   midi.NoteOnEvent(tick=0, channel=0, data=[51, 43]),
   midi.NoteOnEvent(tick=160, channel=0, data=[46, 39]),
   midi.NoteOnEvent(tick=40, channel=0, data=[51, 0]),
   midi.NoteOnEvent(tick=120, channel=0, data=[53, 39]),
   midi.NoteOnEvent(tick=40, channel=0, data=[46, 0]),
   midi.NoteOnEvent(tick=120, channel=0, data=[51, 41]),
   midi.NoteOnEvent(tick=40, channel=0, data=[53, 0]),
   midi.NoteOnEvent(tick=120, channel=0, data=[44, 40]),
   midi.NoteOnEvent(tick=40, channel=0, data=[51, 0]),
   midi.NoteOnEvent(tick=120, channel=0, data=[53, 41]),
   midi.NoteOnEvent(tick=40, channel=0, data=[44, 0]),
   midi.NoteOnEvent(tick=120, channel=0, data=[53, 0]),
   midi.NoteOnEvent(tick=0, channel=0, data=[54, 45]),
   midi.NoteOnEvent(tick=160, channel=0, data=[53, 41]),
   midi.NoteOnEvent(tick=40, channel=0, data=[54, 0]),
   midi.NoteOnEvent(tick=120, channel=0, data=[51, 43]),
   midi.NoteOnEvent(tick=40, channel=0, data=[53, 0]),
   midi.NoteOnEvent(tick=120, channel=0, data=[49, 41]),
   midi.NoteOnEvent(tick=40, channel=0, data=[51, 0]),
   midi.NoteOnEvent(tick=120, channel=0, data=[48, 40]),
   midi.NoteOnEvent(tick=40, channel=0, data=[49, 0]),
   midi.NoteOnEvent(tick=120, channel=0, data=[46, 37]),
   midi.NoteOnEvent(tick=40, channel=0, data=[48, 0]),
   midi.NoteOnEvent(tick=120, channel=0, data=[46, 0]),
   midi.NoteOnEvent(tick=0, channel=0, data=[45, 45]),
   midi.NoteOnEvent(tick=160, channel=0, data=[53, 39]),
   midi.NoteOnEvent(tick=160, channel=0, data=[45, 0]),
   midi.NoteOnEvent(tick=0, channel=0, data=[48, 39]),
   midi.NoteOnEvent(tick=40, channel=0, data=[53, 0]),
   midi.NoteOnEvent(tick=120, channel=0, data=[51, 41]),
   midi.NoteOnEvent(tick=40, channel=0, data=[48, 0]),
   midi.NoteOnEvent(tick=120, channel=0, data=[49, 39]),
   midi.NoteOnEvent(tick=40, channel=0, data=[51, 0]),
   midi.NoteOnEvent(tick=120, channel=0, data=[46, 39]),
   midi.NoteOnEvent(tick=40, channel=0, data=[49, 0]),
   midi.NoteOnEvent(tick=120, channel=0, data=[46, 0]),
   midi.NoteOnEvent(tick=0, channel=0, data=[45, 45]),
   midi.NoteOnEvent(tick=160, channel=0, data=[53, 39]),
   midi.NoteOnEvent(tick=160, channel=0, data=[45, 0]),
   midi.NoteOnEvent(tick=0, channel=0, data=[48, 39]),
   midi.NoteOnEvent(tick=40, channel=0, data=[53, 0]),
   midi.NoteOnEvent(tick=120, channel=0, data=[51, 39]),
   midi.NoteOnEvent(tick=40, channel=0, data=[48, 0]),
   midi.NoteOnEvent(tick=120, channel=0, data=[49, 36]),
   midi.NoteOnEvent(tick=40, channel=0, data=[51, 0]),
   midi.NoteOnEvent(tick=120, channel=0, data=[46, 37]),
   midi.NoteOnEvent(tick=40, channel=0, data=[49, 0]),
   midi.NoteOnEvent(tick=120, channel=0, data=[46, 0]),
   midi.NoteOnEvent(tick=0, channel=0, data=[45, 45]),
   midi.NoteOnEvent(tick=160, channel=0, data=[53, 39]),
   midi.NoteOnEvent(tick=160, channel=0, data=[45, 0]),
   midi.NoteOnEvent(tick=0, channel=0, data=[48, 39]),
   midi.NoteOnEvent(tick=40, channel=0, data=[53, 0]),
   midi.NoteOnEvent(tick=120, channel=0, data=[51, 41]),
   midi.NoteOnEvent(tick=40, channel=0, data=[48, 0]),
   midi.NoteOnEvent(tick=120, channel=0, data=[49, 39]),
   midi.NoteOnEvent(tick=40, channel=0, data=[51, 0]),
   midi.NoteOnEvent(tick=120, channel=0, data=[46, 38]),
   midi.NoteOnEvent(tick=40, channel=0, data=[49, 0]),
   midi.NoteOnEvent(tick=120, channel=0, data=[46, 0]),
   midi.NoteOnEvent(tick=0, channel=0, data=[56, 45]),
   midi.NoteOnEvent(tick=160, channel=0, data=[55, 39]),
   midi.NoteOnEvent(tick=40, channel=0, data=[56, 0]),
   midi.NoteOnEvent(tick=120, channel=0, data=[53, 37]),
   midi.NoteOnEvent(tick=40, channel=0, data=[55, 0]),
   midi.NoteOnEvent(tick=120, channel=0, data=[51, 41]),
   midi.NoteOnEvent(tick=40, channel=0, data=[53, 0]),
   midi.NoteOnEvent(tick=120, channel=0, data=[50, 38]),
   midi.NoteOnEvent(tick=40, channel=0, data=[51, 0]),
   midi.NoteOnEvent(tick=120, channel=0, data=[48, 39]),
   midi.NoteOnEvent(tick=40, channel=0, data=[50, 0]),
   midi.NoteOnEvent(tick=120, channel=0, data=[48, 0]),
   midi.NoteOnEvent(tick=0, channel=0, data=[47, 42]),
   midi.NoteOnEvent(tick=160, channel=0, data=[55, 39]),
   midi.NoteOnEvent(tick=160, channel=0, data=[47, 0]),
   midi.NoteOnEvent(tick=0, channel=0, data=[50, 36]),
   midi.NoteOnEvent(tick=40, channel=0, data=[55, 0]),
   midi.NoteOnEvent(tick=120, channel=0, data=[53, 39]),
   midi.NoteOnEvent(tick=40, channel=0, data=[50, 0]),
   midi.NoteOnEvent(tick=120, channel=0, data=[51, 39]),
   midi.NoteOnEvent(tick=40, channel=0, data=[53, 0]),
   midi.NoteOnEvent(tick=120, channel=0, data=[48, 39]),
   midi.NoteOnEvent(tick=40, channel=0, data=[51, 0]),
   midi.NoteOnEvent(tick=120, channel=0, data=[48, 0]),
   midi.NoteOnEvent(tick=0, channel=0, data=[47, 43]),
   midi.NoteOnEvent(tick=160, channel=0, data=[55, 39]),
   midi.NoteOnEvent(tick=160, channel=0, data=[47, 0]),
   midi.NoteOnEvent(tick=0, channel=0, data=[50, 37]),
   midi.NoteOnEvent(tick=40, channel=0, data=[55, 0]),
   midi.NoteOnEvent(tick=120, channel=0, data=[53, 43]),
   midi.NoteOnEvent(tick=40, channel=0, data=[50, 0]),
   midi.NoteOnEvent(tick=120, channel=0, data=[51, 39]),
   midi.NoteOnEvent(tick=40, channel=0, data=[53, 0]),
   midi.NoteOnEvent(tick=120, channel=0, data=[48, 39]),
   midi.NoteOnEvent(tick=40, channel=0, data=[51, 0]),
   midi.NoteOnEvent(tick=120, channel=0, data=[48, 0]),
   midi.NoteOnEvent(tick=0, channel=0, data=[47, 45]),
   midi.NoteOnEvent(tick=160, channel=0, data=[55, 39]),
   midi.NoteOnEvent(tick=160, channel=0, data=[47, 0]),
   midi.NoteOnEvent(tick=0, channel=0, data=[50, 36]),
   midi.NoteOnEvent(tick=40, channel=0, data=[55, 0]),
   midi.NoteOnEvent(tick=120, channel=0, data=[53, 43]),
   midi.NoteOnEvent(tick=40, channel=0, data=[50, 0]),
   midi.NoteOnEvent(tick=120, channel=0, data=[51, 39]),
   midi.NoteOnEvent(tick=40, channel=0, data=[53, 0]),
   midi.NoteOnEvent(tick=120, channel=0, data=[48, 39]),
   midi.NoteOnEvent(tick=40, channel=0, data=[51, 0]),
   midi.NoteOnEvent(tick=120, channel=0, data=[48, 0]),
   midi.NoteOnEvent(tick=0, channel=0, data=[61, 56]),
   midi.ControlChangeEvent(tick=57, channel=0, data=[64, 127]),
   midi.NoteOnEvent(tick=103, channel=0, data=[60, 49]),
   midi.NoteOnEvent(tick=40, channel=0, data=[61, 0]),
   midi.NoteOnEvent(tick=120, channel=0, data=[58, 47]),
   midi.NoteOnEvent(tick=40, channel=0, data=[60, 0]),
   midi.NoteOnEvent(tick=120, channel=0, data=[56, 47]),
   midi.NoteOnEvent(tick=40, channel=0, data=[58, 0]),
   midi.NoteOnEvent(tick=120, channel=0, data=[55, 46]),
   midi.NoteOnEvent(tick=40, channel=0, data=[56, 0]),
   midi.NoteOnEvent(tick=120, channel=0, data=[53, 46]),
   midi.NoteOnEvent(tick=40, channel=0, data=[55, 0]),
   midi.NoteOnEvent(tick=120, channel=0, data=[53, 0]),
   midi.NoteOnEvent(tick=0, channel=0, data=[58, 51]),
   midi.ControlChangeEvent(tick=21, channel=0, data=[64, 0]),
   midi.ControlChangeEvent(tick=48, channel=0, data=[64, 127]),
   midi.NoteOnEvent(tick=91, channel=0, data=[52, 46]),
   midi.NoteOnEvent(tick=40, channel=0, data=[58, 0]),
   midi.ControlChangeEvent(tick=69, channel=0, data=[64, 0]),
   midi.NoteOnEvent(tick=51, channel=0, data=[55, 45]),
   midi.NoteOnEvent(tick=40, channel=0, data=[52, 0]),
   midi.NoteOnEvent(tick=120, channel=0, data=[49, 47]),
   midi.NoteOnEvent(tick=40, channel=0, data=[55, 0]),
   midi.ControlChangeEvent(tick=40, channel=0, data=[64, 127]),
   midi.NoteOnEvent(tick=80, channel=0, data=[52, 46]),
   midi.NoteOnEvent(tick=40, channel=0, data=[49, 0]),
   midi.NoteOnEvent(tick=120, channel=0, data=[48, 44]),
   midi.NoteOnEvent(tick=40, channel=0, data=[52, 0]),
   midi.NoteOnEvent(tick=120, channel=0, data=[48, 0]),
   midi.ControlChangeEvent(tick=0, channel=0, data=[64, 0]),
   midi.NoteOnEvent(tick=0, channel=0, data=[61, 56]),
   midi.ControlChangeEvent(tick=97, channel=0, data=[64, 127]),
   midi.NoteOnEvent(tick=63, channel=0, data=[60, 47]),
   midi.NoteOnEvent(tick=40, channel=0, data=[61, 0]),
   midi.NoteOnEvent(tick=120, channel=0, data=[58, 50]),
   midi.NoteOnEvent(tick=40, channel=0, data=[60, 0]),
   midi.NoteOnEvent(tick=120, channel=0, data=[56, 49]),
   midi.NoteOnEvent(tick=40, channel=0, data=[58, 0]),
   midi.NoteOnEvent(tick=120, channel=0, data=[55, 47]),
   midi.NoteOnEvent(tick=40, channel=0, data=[56, 0]),
   midi.NoteOnEvent(tick=120, channel=0, data=[53, 47]),
   midi.NoteOnEvent(tick=40, channel=0, data=[55, 0]),
   midi.NoteOnEvent(tick=120, channel=0, data=[53, 0]),
   midi.NoteOnEvent(tick=0, channel=0, data=[58, 52]),
   midi.ControlChangeEvent(tick=18, channel=0, data=[64, 0]),
   midi.ControlChangeEvent(tick=60, channel=0, data=[64, 127]),
   midi.NoteOnEvent(tick=82, channel=0, data=[52, 46]),
   midi.NoteOnEvent(tick=40, channel=0, data=[58, 0]),
   midi.NoteOnEvent(tick=120, channel=0, data=[55, 47]),
   midi.NoteOnEvent(tick=40, channel=0, data=[52, 0]),
   midi.NoteOnEvent(tick=120, channel=0, data=[55, 0]),
   midi.NoteOnEvent(tick=0, channel=0, data=[49, 46]),
   midi.ControlChangeEvent(tick=11, channel=0, data=[64, 0]),
   midi.ControlChangeEvent(tick=46, channel=0, data=[64, 127]),
   midi.NoteOnEvent(tick=103, channel=0, data=[52, 46]),
   midi.NoteOnEvent(tick=40, channel=0, data=[49, 0]),
   midi.NoteOnEvent(tick=120, channel=0, data=[48, 45]),
   midi.NoteOnEvent(tick=40, channel=0, data=[52, 0]),
   midi.NoteOnEvent(tick=120, channel=0, data=[48, 0]),
   midi.NoteOnEvent(tick=0, channel=0, data=[58, 49]),
   midi.ControlChangeEvent(tick=7, channel=0, data=[64, 0]),
   midi.NoteOnEvent(tick=153, channel=0, data=[52, 45]),
   midi.NoteOnEvent(tick=40, channel=0, data=[58, 0]),
   midi.NoteOnEvent(tick=120, channel=0, data=[55, 45]),
   midi.NoteOnEvent(tick=40, channel=0, data=[52, 0]),
   midi.NoteOnEvent(tick=120, channel=0, data=[49, 43]),
   midi.NoteOnEvent(tick=40, channel=0, data=[55, 0]),
   midi.NoteOnEvent(tick=120, channel=0, data=[52, 40]),
   midi.NoteOnEvent(tick=40, channel=0, data=[49, 0]),
   midi.NoteOnEvent(tick=120, channel=0, data=[48, 40]),
   midi.NoteOnEvent(tick=40, channel=0, data=[52, 0]),
   midi.NoteOnEvent(tick=120, channel=0, data=[48, 0]),
   midi.NoteOnEvent(tick=0, channel=0, data=[55, 48]),
   midi.NoteOnEvent(tick=160, channel=0, data=[49, 43]),
   midi.NoteOnEvent(tick=40, channel=0, data=[55, 0]),
   midi.NoteOnEvent(tick=120, channel=0, data=[52, 42]),
   midi.NoteOnEvent(tick=40, channel=0, data=[49, 0]),
   midi.NoteOnEvent(tick=120, channel=0, data=[48, 41]),
   midi.NoteOnEvent(tick=40, channel=0, data=[52, 0]),
   midi.NoteOnEvent(tick=120, channel=0, data=[52, 40]),
   midi.NoteOnEvent(tick=40, channel=0, data=[48, 0]),
   midi.NoteOnEvent(tick=120, channel=0, data=[46, 40]),
   midi.NoteOnEvent(tick=40, channel=0, data=[52, 0]),
   midi.NoteOnEvent(tick=120, channel=0, data=[46, 0]),
   midi.NoteOnEvent(tick=0, channel=0, data=[52, 50]),
   midi.NoteOnEvent(tick=160, channel=0, data=[46, 42]),
   midi.NoteOnEvent(tick=40, channel=0, data=[52, 0]),
   midi.NoteOnEvent(tick=120, channel=0, data=[49, 41]),
   midi.NoteOnEvent(tick=40, channel=0, data=[46, 0]),
   midi.NoteOnEvent(tick=120, channel=0, data=[45, 44]),
   midi.NoteOnEvent(tick=40, channel=0, data=[49, 0]),
   midi.NoteOnEvent(tick=120, channel=0, data=[46, 41]),
   midi.NoteOnEvent(tick=40, channel=0, data=[45, 0]),
   midi.NoteOnEvent(tick=120, channel=0, data=[44, 42]),
   midi.NoteOnEvent(tick=40, channel=0, data=[46, 0]),
   midi.NoteOnEvent(tick=120, channel=0, data=[44, 0]),
   midi.NoteOnEvent(tick=0, channel=0, data=[49, 43]),
   midi.NoteOnEvent(tick=160, channel=0, data=[44, 40]),
   midi.NoteOnEvent(tick=40, channel=0, data=[49, 0]),
   midi.NoteOnEvent(tick=120, channel=0, data=[46, 40]),
   midi.NoteOnEvent(tick=40, channel=0, data=[44, 0]),
   midi.NoteOnEvent(tick=120, channel=0, data=[43, 42]),
   midi.NoteOnEvent(tick=40, channel=0, data=[46, 0]),
   midi.NoteOnEvent(tick=120, channel=0, data=[46, 40]),
   midi.NoteOnEvent(tick=40, channel=0, data=[43, 0]),
   midi.NoteOnEvent(tick=120, channel=0, data=[42, 34]),
   midi.NoteOnEvent(tick=40, channel=0, data=[46, 0]),
   midi.NoteOnEvent(tick=120, channel=0, data=[42, 0]),
   midi.NoteOnEvent(tick=0, channel=0, data=[41, 43]),
   midi.NoteOnEvent(tick=160, channel=0, data=[43, 39]),
   midi.NoteOnEvent(tick=40, channel=0, data=[41, 0]),
   midi.NoteOnEvent(tick=120, channel=0, data=[46, 38]),
   midi.NoteOnEvent(tick=40, channel=0, data=[43, 0]),
   midi.NoteOnEvent(tick=120, channel=0, data=[49, 39]),
   midi.NoteOnEvent(tick=40, channel=0, data=[46, 0]),
   midi.NoteOnEvent(tick=120, channel=0, data=[40, 38]),
   midi.NoteOnEvent(tick=40, channel=0, data=[49, 0]),
   midi.NoteOnEvent(tick=120, channel=0, data=[43, 39]),
   midi.NoteOnEvent(tick=40, channel=0, data=[40, 0]),
   midi.NoteOnEvent(tick=120, channel=0, data=[43, 0]),
   midi.NoteOnEvent(tick=0, channel=0, data=[41, 43]),
   midi.NoteOnEvent(tick=160, channel=0, data=[43, 39]),
   midi.NoteOnEvent(tick=40, channel=0, data=[41, 0]),
   midi.NoteOnEvent(tick=120, channel=0, data=[46, 38]),
   midi.NoteOnEvent(tick=40, channel=0, data=[43, 0]),
   midi.NoteOnEvent(tick=120, channel=0, data=[49, 39]),
   midi.NoteOnEvent(tick=40, channel=0, data=[46, 0]),
   midi.NoteOnEvent(tick=120, channel=0, data=[40, 38]),
   midi.NoteOnEvent(tick=40, channel=0, data=[49, 0]),
   midi.NoteOnEvent(tick=120, channel=0, data=[43, 39]),
   midi.NoteOnEvent(tick=40, channel=0, data=[40, 0]),
   midi.NoteOnEvent(tick=104, channel=0, data=[43, 0]),
   midi.NoteOnEvent(tick=16, channel=0, data=[43, 45]),
   midi.NoteOnEvent(tick=160, channel=0, data=[45, 38]),
   midi.NoteOnEvent(tick=40, channel=0, data=[43, 0]),
   midi.NoteOnEvent(tick=120, channel=0, data=[48, 39]),
   midi.NoteOnEvent(tick=40, channel=0, data=[45, 0]),
   midi.NoteOnEvent(tick=120, channel=0, data=[51, 39]),
   midi.NoteOnEvent(tick=40, channel=0, data=[48, 0]),
   midi.NoteOnEvent(tick=120, channel=0, data=[42, 38]),
   midi.NoteOnEvent(tick=40, channel=0, data=[51, 0]),
   midi.NoteOnEvent(tick=120, channel=0, data=[45, 40]),
   midi.NoteOnEvent(tick=40, channel=0, data=[42, 0]),
   midi.NoteOnEvent(tick=120, channel=0, data=[45, 0]),
   midi.NoteOnEvent(tick=0, channel=0, data=[43, 45]),
   midi.NoteOnEvent(tick=160, channel=0, data=[45, 39]),
   midi.NoteOnEvent(tick=40, channel=0, data=[43, 0]),
   midi.NoteOnEvent(tick=120, channel=0, data=[48, 39]),
   midi.NoteOnEvent(tick=40, channel=0, data=[45, 0]),
   midi.NoteOnEvent(tick=120, channel=0, data=[51, 41]),
   midi.NoteOnEvent(tick=40, channel=0, data=[48, 0]),
   midi.NoteOnEvent(tick=120, channel=0, data=[42, 42]),
   midi.NoteOnEvent(tick=40, channel=0, data=[51, 0]),
   midi.NoteOnEvent(tick=120, channel=0, data=[45, 39]),
   midi.NoteOnEvent(tick=40, channel=0, data=[42, 0]),
   midi.NoteOnEvent(tick=120, channel=0, data=[45, 0]),
   midi.NoteOnEvent(tick=0, channel=0, data=[46, 46]),
   midi.NoteOnEvent(tick=160, channel=0, data=[48, 39]),
   midi.NoteOnEvent(tick=40, channel=0, data=[46, 0]),
   midi.NoteOnEvent(tick=120, channel=0, data=[51, 40]),
   midi.NoteOnEvent(tick=40, channel=0, data=[48, 0]),
   midi.NoteOnEvent(tick=120, channel=0, data=[54, 41]),
   midi.NoteOnEvent(tick=40, channel=0, data=[51, 0]),
   midi.NoteOnEvent(tick=120, channel=0, data=[45, 40]),
   midi.NoteOnEvent(tick=40, channel=0, data=[54, 0]),
   midi.NoteOnEvent(tick=120, channel=0, data=[48, 38]),
   midi.NoteOnEvent(tick=40, channel=0, data=[45, 0]),
   midi.NoteOnEvent(tick=120, channel=0, data=[48, 0]),
   midi.NoteOnEvent(tick=0, channel=0, data=[49, 42]),
   midi.NoteOnEvent(tick=160, channel=0, data=[51, 41]),
   midi.NoteOnEvent(tick=40, channel=0, data=[49, 0]),
   midi.NoteOnEvent(tick=120, channel=0, data=[54, 40]),
   midi.NoteOnEvent(tick=40, channel=0, data=[51, 0]),
   midi.NoteOnEvent(tick=120, channel=0, data=[57, 42]),
   midi.NoteOnEvent(tick=40, channel=0, data=[54, 0]),
   midi.NoteOnEvent(tick=120, channel=0, data=[48, 41]),
   midi.NoteOnEvent(tick=40, channel=0, data=[57, 0]),
   midi.NoteOnEvent(tick=120, channel=0, data=[51, 42]),
   midi.NoteOnEvent(tick=40, channel=0, data=[48, 0]),
   midi.NoteOnEvent(tick=120, channel=0, data=[51, 0]),
   midi.NoteOnEvent(tick=0, channel=0, data=[49, 46]),
   midi.NoteOnEvent(tick=160, channel=0, data=[51, 41]),
   midi.NoteOnEvent(tick=40, channel=0, data=[49, 0]),
   midi.NoteOnEvent(tick=120, channel=0, data=[54, 40]),
   midi.NoteOnEvent(tick=40, channel=0, data=[51, 0]),
   midi.NoteOnEvent(tick=120, channel=0, data=[57, 40]),
   midi.NoteOnEvent(tick=40, channel=0, data=[54, 0]),
   midi.NoteOnEvent(tick=120, channel=0, data=[48, 41]),
   midi.NoteOnEvent(tick=40, channel=0, data=[57, 0]),
   midi.NoteOnEvent(tick=120, channel=0, data=[51, 42]),
   midi.NoteOnEvent(tick=40, channel=0, data=[48, 0]),
   midi.NoteOnEvent(tick=120, channel=0, data=[51, 0]),
   midi.NoteOnEvent(tick=0, channel=0, data=[54, 47]),
   midi.NoteOnEvent(tick=160, channel=0, data=[58, 43]),
   midi.NoteOnEvent(tick=40, channel=0, data=[54, 0]),
   midi.NoteOnEvent(tick=120, channel=0, data=[60, 44]),
   midi.NoteOnEvent(tick=40, channel=0, data=[58, 0]),
   midi.NoteOnEvent(tick=120, channel=0, data=[63, 45]),
   midi.NoteOnEvent(tick=40, channel=0, data=[60, 0]),
   midi.NoteOnEvent(tick=120, channel=0, data=[53, 45]),
   midi.NoteOnEvent(tick=40, channel=0, data=[63, 0]),
   midi.NoteOnEvent(tick=120, channel=0, data=[57, 46]),
   midi.NoteOnEvent(tick=40, channel=0, data=[53, 0]),
   midi.NoteOnEvent(tick=120, channel=0, data=[57, 0]),
   midi.NoteOnEvent(tick=0, channel=0, data=[58, 55]),
   midi.NoteOnEvent(tick=160, channel=0, data=[61, 46]),
   midi.NoteOnEvent(tick=40, channel=0, data=[58, 0]),
   midi.NoteOnEvent(tick=120, channel=0, data=[66, 46]),
   midi.NoteOnEvent(tick=40, channel=0, data=[61, 0]),
   midi.NoteOnEvent(tick=120, channel=0, data=[65, 48]),
   midi.NoteOnEvent(tick=40, channel=0, data=[66, 0]),
   midi.NoteOnEvent(tick=120, channel=0, data=[60, 45]),
   midi.NoteOnEvent(tick=40, channel=0, data=[65, 0]),
   midi.NoteOnEvent(tick=120, channel=0, data=[61, 46]),
   midi.NoteOnEvent(tick=40, channel=0, data=[60, 0]),
   midi.NoteOnEvent(tick=120, channel=0, data=[61, 0]),
   midi.NoteOnEvent(tick=0, channel=0, data=[64, 52]),
   midi.NoteOnEvent(tick=160, channel=0, data=[60, 48]),
   midi.NoteOnEvent(tick=160, channel=0, data=[64, 0]),
   midi.NoteOnEvent(tick=0, channel=0, data=[61, 46]),
   midi.NoteOnEvent(tick=40, channel=0, data=[60, 0]),
   midi.NoteOnEvent(tick=120, channel=0, data=[57, 47]),
   midi.NoteOnEvent(tick=40, channel=0, data=[61, 0]),
   midi.NoteOnEvent(tick=120, channel=0, data=[58, 46]),
   midi.NoteOnEvent(tick=160, channel=0, data=[57, 0]),
   midi.NoteOnEvent(tick=0, channel=0, data=[54, 43]),
   midi.NoteOnEvent(tick=40, channel=0, data=[58, 0]),
   midi.NoteOnEvent(tick=120, channel=0, data=[54, 0]),
   midi.NoteOnEvent(tick=0, channel=0, data=[52, 47]),
   midi.NoteOnEvent(tick=160, channel=0, data=[53, 43]),
   midi.NoteOnEvent(tick=160, channel=0, data=[52, 0]),
   midi.NoteOnEvent(tick=0, channel=0, data=[58, 43]),
   midi.NoteOnEvent(tick=40, channel=0, data=[53, 0]),
   midi.NoteOnEvent(tick=120, channel=0, data=[58, 0]),
   midi.NoteOnEvent(tick=0, channel=0, data=[56, 45]),
   midi.NoteOnEvent(tick=160, channel=0, data=[57, 43]),
   midi.NoteOnEvent(tick=160, channel=0, data=[56, 0]),
   midi.NoteOnEvent(tick=0, channel=0, data=[61, 43]),
   midi.NoteOnEvent(tick=40, channel=0, data=[57, 0]),
   midi.NoteOnEvent(tick=120, channel=0, data=[61, 0]),
   midi.NoteOnEvent(tick=0, channel=0, data=[57, 48]),
   midi.NoteOnEvent(tick=160, channel=0, data=[58, 46]),
   midi.NoteOnEvent(tick=160, channel=0, data=[57, 0]),
   midi.NoteOnEvent(tick=0, channel=0, data=[61, 47]),
   midi.NoteOnEvent(tick=40, channel=0, data=[58, 0]),
   midi.NoteOnEvent(tick=120, channel=0, data=[61, 0]),
   midi.NoteOnEvent(tick=0, channel=0, data=[59, 50]),
   midi.NoteOnEvent(tick=160, channel=0, data=[60, 47]),
   midi.NoteOnEvent(tick=160, channel=0, data=[59, 0]),
   midi.NoteOnEvent(tick=0, channel=0, data=[65, 44]),
   midi.NoteOnEvent(tick=40, channel=0, data=[60, 0]),
   midi.NoteOnEvent(tick=120, channel=0, data=[65, 0]),
   midi.NoteOnEvent(tick=0, channel=0, data=[56, 55]),
   midi.NoteOnEvent(tick=160, channel=0, data=[59, 50]),
   midi.NoteOnEvent(tick=40, channel=0, data=[56, 0]),
   midi.NoteOnEvent(tick=120, channel=0, data=[64, 47]),
   midi.NoteOnEvent(tick=40, channel=0, data=[59, 0]),
   midi.NoteOnEvent(tick=120, channel=0, data=[63, 52]),
   midi.NoteOnEvent(tick=40, channel=0, data=[64, 0]),
   midi.NoteOnEvent(tick=120, channel=0, data=[58, 49]),
   midi.NoteOnEvent(tick=40, channel=0, data=[63, 0]),
   midi.NoteOnEvent(tick=120, channel=0, data=[59, 43]),
   midi.NoteOnEvent(tick=40, channel=0, data=[58, 0]),
   midi.NoteOnEvent(tick=120, channel=0, data=[59, 0]),
   midi.NoteOnEvent(tick=0, channel=0, data=[62, 52]),
   midi.NoteOnEvent(tick=160, channel=0, data=[58, 47]),
   midi.NoteOnEvent(tick=160, channel=0, data=[62, 0]),
   midi.NoteOnEvent(tick=0, channel=0, data=[59, 45]),
   midi.NoteOnEvent(tick=40, channel=0, data=[58, 0]),
   midi.NoteOnEvent(tick=120, channel=0, data=[55, 49]),
   midi.NoteOnEvent(tick=40, channel=0, data=[59, 0]),
   midi.NoteOnEvent(tick=120, channel=0, data=[56, 43]),
   midi.NoteOnEvent(tick=160, channel=0, data=[55, 0]),
   midi.NoteOnEvent(tick=0, channel=0, data=[52, 43]),
   midi.NoteOnEvent(tick=40, channel=0, data=[56, 0]),
   midi.NoteOnEvent(tick=120, channel=0, data=[52, 0]),
   midi.NoteOnEvent(tick=0, channel=0, data=[50, 47]),
   midi.NoteOnEvent(tick=160, channel=0, data=[51, 43]),
   midi.NoteOnEvent(tick=160, channel=0, data=[50, 0]),
   midi.NoteOnEvent(tick=0, channel=0, data=[56, 43]),
   midi.NoteOnEvent(tick=40, channel=0, data=[51, 0]),
   midi.NoteOnEvent(tick=120, channel=0, data=[56, 0]),
   midi.NoteOnEvent(tick=0, channel=0, data=[52, 48]),
   midi.NoteOnEvent(tick=160, channel=0, data=[53, 45]),
   midi.NoteOnEvent(tick=160, channel=0, data=[52, 0]),
   midi.NoteOnEvent(tick=0, channel=0, data=[59, 45]),
   midi.NoteOnEvent(tick=40, channel=0, data=[53, 0]),
   midi.NoteOnEvent(tick=120, channel=0, data=[59, 0]),
   midi.NoteOnEvent(tick=0, channel=0, data=[53, 50]),
   midi.NoteOnEvent(tick=160, channel=0, data=[54, 46]),
   midi.NoteOnEvent(tick=160, channel=0, data=[53, 0]),
   midi.NoteOnEvent(tick=0, channel=0, data=[59, 47]),
   midi.NoteOnEvent(tick=40, channel=0, data=[54, 0]),
   midi.NoteOnEvent(tick=120, channel=0, data=[59, 0]),
   midi.NoteOnEvent(tick=0, channel=0, data=[57, 51]),
   midi.NoteOnEvent(tick=160, channel=0, data=[58, 47]),
   midi.NoteOnEvent(tick=160, channel=0, data=[57, 0]),
   midi.NoteOnEvent(tick=0, channel=0, data=[63, 49]),
   midi.NoteOnEvent(tick=40, channel=0, data=[58, 0]),
   midi.NoteOnEvent(tick=120, channel=0, data=[63, 0]),
   midi.NoteOnEvent(tick=0, channel=0, data=[61, 54]),
   midi.NoteOnEvent(tick=160, channel=0, data=[60, 45]),
   midi.NoteOnEvent(tick=40, channel=0, data=[61, 0]),
   midi.NoteOnEvent(tick=120, channel=0, data=[59, 39]),
   midi.NoteOnEvent(tick=40, channel=0, data=[60, 0]),
   midi.NoteOnEvent(tick=120, channel=0, data=[58, 47]),
   midi.NoteOnEvent(tick=40, channel=0, data=[59, 0]),
   midi.NoteOnEvent(tick=120, channel=0, data=[57, 44]),
   midi.NoteOnEvent(tick=40, channel=0, data=[58, 0]),
   midi.NoteOnEvent(tick=120, channel=0, data=[65, 45]),
   midi.NoteOnEvent(tick=40, channel=0, data=[57, 0]),
   midi.NoteOnEvent(tick=120, channel=0, data=[65, 0]),
   midi.NoteOnEvent(tick=0, channel=0, data=[63, 54]),
   midi.NoteOnEvent(tick=160, channel=0, data=[62, 45]),
   midi.NoteOnEvent(tick=40, channel=0, data=[63, 0]),
   midi.NoteOnEvent(tick=120, channel=0, data=[61, 45]),
   midi.NoteOnEvent(tick=40, channel=0, data=[62, 0]),
   midi.NoteOnEvent(tick=120, channel=0, data=[60, 48]),
   midi.NoteOnEvent(tick=40, channel=0, data=[61, 0]),
   midi.NoteOnEvent(tick=120, channel=0, data=[58, 45]),
   midi.NoteOnEvent(tick=40, channel=0, data=[60, 0]),
   midi.NoteOnEvent(tick=120, channel=0, data=[66, 48]),
   midi.NoteOnEvent(tick=40, channel=0, data=[58, 0]),
   midi.NoteOnEvent(tick=120, channel=0, data=[66, 0]),
   midi.NoteOnEvent(tick=0, channel=0, data=[65, 56]),
   midi.NoteOnEvent(tick=160, channel=0, data=[63, 50]),
   midi.NoteOnEvent(tick=40, channel=0, data=[65, 0]),
   midi.NoteOnEvent(tick=120, channel=0, data=[62, 47]),
   midi.NoteOnEvent(tick=40, channel=0, data=[63, 0]),
   midi.NoteOnEvent(tick=120, channel=0, data=[61, 51]),
   midi.NoteOnEvent(tick=40, channel=0, data=[62, 0]),
   midi.NoteOnEvent(tick=120, channel=0, data=[60, 49]),
   midi.NoteOnEvent(tick=40, channel=0, data=[61, 0]),
   midi.NoteOnEvent(tick=120, channel=0, data=[69, 53]),
   midi.NoteOnEvent(tick=40, channel=0, data=[60, 0]),
   midi.NoteOnEvent(tick=120, channel=0, data=[69, 0]),
   midi.NoteOnEvent(tick=0, channel=0, data=[60, 57]),
   midi.NoteOnEvent(tick=160, channel=0, data=[61, 52]),
   midi.NoteOnEvent(tick=160, channel=0, data=[60, 0]),
   midi.NoteOnEvent(tick=0, channel=0, data=[70, 52]),
   midi.NoteOnEvent(tick=40, channel=0, data=[61, 0]),
   midi.NoteOnEvent(tick=120, channel=0, data=[70, 0]),
   midi.NoteOnEvent(tick=0, channel=0, data=[62, 60]),
   midi.NoteOnEvent(tick=160, channel=0, data=[63, 52]),
   midi.NoteOnEvent(tick=160, channel=0, data=[62, 0]),
   midi.NoteOnEvent(tick=0, channel=0, data=[70, 56]),
   midi.NoteOnEvent(tick=40, channel=0, data=[63, 0]),
   midi.NoteOnEvent(tick=120, channel=0, data=[70, 0]),
   midi.NoteOnEvent(tick=0, channel=0, data=[72, 61]),
   midi.NoteOnEvent(tick=160, channel=0, data=[70, 51]),
   midi.NoteOnEvent(tick=40, channel=0, data=[72, 0]),
   midi.NoteOnEvent(tick=120, channel=0, data=[68, 47]),
   midi.NoteOnEvent(tick=40, channel=0, data=[70, 0]),
   midi.NoteOnEvent(tick=120, channel=0, data=[66, 52]),
   midi.NoteOnEvent(tick=40, channel=0, data=[68, 0]),
   midi.NoteOnEvent(tick=120, channel=0, data=[65, 49]),
   midi.NoteOnEvent(tick=40, channel=0, data=[66, 0]),
   midi.NoteOnEvent(tick=120, channel=0, data=[64, 49]),
   midi.NoteOnEvent(tick=40, channel=0, data=[65, 0]),
   midi.NoteOnEvent(tick=120, channel=0, data=[64, 0]),
   midi.NoteOnEvent(tick=0, channel=0, data=[72, 61]),
   midi.NoteOnEvent(tick=160, channel=0, data=[70, 52]),
   midi.NoteOnEvent(tick=40, channel=0, data=[72, 0]),
   midi.NoteOnEvent(tick=120, channel=0, data=[68, 47]),
   midi.NoteOnEvent(tick=40, channel=0, data=[70, 0]),
   midi.NoteOnEvent(tick=120, channel=0, data=[66, 53]),
   midi.NoteOnEvent(tick=40, channel=0, data=[68, 0]),
   midi.NoteOnEvent(tick=120, channel=0, data=[65, 48]),
   midi.NoteOnEvent(tick=40, channel=0, data=[66, 0]),
   midi.NoteOnEvent(tick=120, channel=0, data=[64, 49]),
   midi.NoteOnEvent(tick=40, channel=0, data=[65, 0]),
   midi.NoteOnEvent(tick=120, channel=0, data=[64, 0]),
   midi.NoteOnEvent(tick=0, channel=0, data=[66, 56]),
   midi.NoteOnEvent(tick=160, channel=0, data=[65, 48]),
   midi.NoteOnEvent(tick=40, channel=0, data=[66, 0]),
   midi.NoteOnEvent(tick=120, channel=0, data=[64, 47]),
   midi.NoteOnEvent(tick=40, channel=0, data=[65, 0]),
   midi.NoteOnEvent(tick=120, channel=0, data=[63, 51]),
   midi.NoteOnEvent(tick=40, channel=0, data=[64, 0]),
   midi.NoteOnEvent(tick=120, channel=0, data=[62, 47]),
   midi.NoteOnEvent(tick=40, channel=0, data=[63, 0]),
   midi.NoteOnEvent(tick=120, channel=0, data=[61, 46]),
   midi.NoteOnEvent(tick=40, channel=0, data=[62, 0]),
   midi.NoteOnEvent(tick=120, channel=0, data=[61, 0]),
   midi.NoteOnEvent(tick=0, channel=0, data=[63, 49]),
   midi.NoteOnEvent(tick=160, channel=0, data=[59, 45]),
   midi.NoteOnEvent(tick=40, channel=0, data=[63, 0]),
   midi.NoteOnEvent(tick=120, channel=0, data=[60, 42]),
   midi.NoteOnEvent(tick=40, channel=0, data=[59, 0]),
   midi.NoteOnEvent(tick=120, channel=0, data=[61, 43]),
   midi.NoteOnEvent(tick=40, channel=0, data=[60, 0]),
   midi.NoteOnEvent(tick=120, channel=0, data=[57, 40]),
   midi.NoteOnEvent(tick=40, channel=0, data=[61, 0]),
   midi.NoteOnEvent(tick=120, channel=0, data=[58, 42]),
   midi.NoteOnEvent(tick=40, channel=0, data=[57, 0]),
   midi.NoteOnEvent(tick=120, channel=0, data=[58, 0]),
   midi.NoteOnEvent(tick=0, channel=0, data=[60, 45]),
   midi.NoteOnEvent(tick=160, channel=0, data=[55, 37]),
   midi.NoteOnEvent(tick=160, channel=0, data=[60, 0]),
   midi.NoteOnEvent(tick=0, channel=0, data=[56, 38]),
   midi.NoteOnEvent(tick=40, channel=0, data=[55, 0]),
   midi.NoteOnEvent(tick=120, channel=0, data=[59, 39]),
   midi.NoteOnEvent(tick=40, channel=0, data=[56, 0]),
   midi.NoteOnEvent(tick=120, channel=0, data=[54, 35]),
   midi.NoteOnEvent(tick=160, channel=0, data=[59, 0]),
   midi.NoteOnEvent(tick=0, channel=0, data=[63, 31]),
   midi.NoteOnEvent(tick=40, channel=0, data=[54, 0]),
   midi.NoteOnEvent(tick=120, channel=0, data=[63, 0]),
   midi.NoteOnEvent(tick=0, channel=0, data=[58, 39]),
   midi.NoteOnEvent(tick=160, channel=0, data=[53, 35]),
   midi.NoteOnEvent(tick=160, channel=0, data=[58, 0]),
   midi.NoteOnEvent(tick=0, channel=0, data=[54, 37]),
   midi.NoteOnEvent(tick=40, channel=0, data=[53, 0]),
   midi.NoteOnEvent(tick=120, channel=0, data=[57, 39]),
   midi.NoteOnEvent(tick=40, channel=0, data=[54, 0]),
   midi.NoteOnEvent(tick=120, channel=0, data=[52, 34]),
   midi.NoteOnEvent(tick=160, channel=0, data=[57, 0]),
   midi.NoteOnEvent(tick=0, channel=0, data=[61, 32]),
   midi.NoteOnEvent(tick=40, channel=0, data=[52, 0]),
   midi.NoteOnEvent(tick=120, channel=0, data=[61, 0]),
   midi.NoteOnEvent(tick=0, channel=0, data=[56, 43]),
   midi.NoteOnEvent(tick=160, channel=0, data=[51, 36]),
   midi.NoteOnEvent(tick=160, channel=0, data=[56, 0]),
   midi.NoteOnEvent(tick=0, channel=0, data=[52, 36]),
   midi.NoteOnEvent(tick=40, channel=0, data=[51, 0]),
   midi.NoteOnEvent(tick=120, channel=0, data=[55, 37]),
   midi.NoteOnEvent(tick=40, channel=0, data=[52, 0]),
   midi.NoteOnEvent(tick=120, channel=0, data=[50, 34]),
   midi.NoteOnEvent(tick=160, channel=0, data=[55, 0]),
   midi.NoteOnEvent(tick=0, channel=0, data=[59, 31]),
   midi.NoteOnEvent(tick=40, channel=0, data=[50, 0]),
   midi.NoteOnEvent(tick=120, channel=0, data=[59, 0]),
   midi.NoteOnEvent(tick=0, channel=0, data=[54, 39]),
   midi.NoteOnEvent(tick=160, channel=0, data=[49, 34]),
   midi.NoteOnEvent(tick=160, channel=0, data=[54, 0]),
   midi.NoteOnEvent(tick=0, channel=0, data=[50, 34]),
   midi.NoteOnEvent(tick=40, channel=0, data=[49, 0]),
   midi.NoteOnEvent(tick=120, channel=0, data=[53, 36]),
   midi.NoteOnEvent(tick=40, channel=0, data=[50, 0]),
   midi.NoteOnEvent(tick=120, channel=0, data=[48, 32]),
   midi.NoteOnEvent(tick=160, channel=0, data=[53, 0]),
   midi.NoteOnEvent(tick=0, channel=0, data=[57, 32]),
   midi.NoteOnEvent(tick=40, channel=0, data=[48, 0]),
   midi.NoteOnEvent(tick=120, channel=0, data=[57, 0]),
   midi.NoteOnEvent(tick=0, channel=0, data=[62, 41]),
   midi.NoteOnEvent(tick=160, channel=0, data=[57, 35]),
   midi.NoteOnEvent(tick=160, channel=0, data=[62, 0]),
   midi.NoteOnEvent(tick=0, channel=0, data=[58, 38]),
   midi.NoteOnEvent(tick=40, channel=0, data=[57, 0]),
   midi.NoteOnEvent(tick=120, channel=0, data=[61, 41]),
   midi.NoteOnEvent(tick=40, channel=0, data=[58, 0]),
   midi.NoteOnEvent(tick=120, channel=0, data=[56, 35]),
   midi.NoteOnEvent(tick=160, channel=0, data=[61, 0]),
   midi.NoteOnEvent(tick=0, channel=0, data=[65, 30]),
   midi.NoteOnEvent(tick=40, channel=0, data=[56, 0]),
   midi.NoteOnEvent(tick=120, channel=0, data=[65, 0]),
   midi.NoteOnEvent(tick=0, channel=0, data=[60, 40]),
   midi.NoteOnEvent(tick=160, channel=0, data=[55, 35]),
   midi.NoteOnEvent(tick=160, channel=0, data=[60, 0]),
   midi.NoteOnEvent(tick=0, channel=0, data=[56, 35]),
   midi.NoteOnEvent(tick=40, channel=0, data=[55, 0]),
   midi.NoteOnEvent(tick=120, channel=0, data=[59, 36]),
   midi.NoteOnEvent(tick=40, channel=0, data=[56, 0]),
   midi.NoteOnEvent(tick=120, channel=0, data=[54, 35]),
   midi.NoteOnEvent(tick=160, channel=0, data=[59, 0]),
   midi.NoteOnEvent(tick=0, channel=0, data=[63, 32]),
   midi.NoteOnEvent(tick=40, channel=0, data=[54, 0]),
   midi.NoteOnEvent(tick=120, channel=0, data=[63, 0]),
   midi.NoteOnEvent(tick=0, channel=0, data=[58, 39]),
   midi.NoteOnEvent(tick=160, channel=0, data=[53, 33]),
   midi.NoteOnEvent(tick=160, channel=0, data=[58, 0]),
   midi.NoteOnEvent(tick=0, channel=0, data=[54, 34]),
   midi.NoteOnEvent(tick=40, channel=0, data=[53, 0]),
   midi.NoteOnEvent(tick=120, channel=0, data=[57, 35]),
   midi.NoteOnEvent(tick=40, channel=0, data=[54, 0]),
   midi.NoteOnEvent(tick=120, channel=0, data=[52, 32]),
   midi.NoteOnEvent(tick=160, channel=0, data=[57, 0]),
   midi.NoteOnEvent(tick=0, channel=0, data=[61, 32]),
   midi.NoteOnEvent(tick=40, channel=0, data=[52, 0]),
   midi.NoteOnEvent(tick=120, channel=0, data=[61, 0]),
   midi.NoteOnEvent(tick=0, channel=0, data=[56, 37]),
   midi.NoteOnEvent(tick=160, channel=0, data=[51, 33]),
   midi.NoteOnEvent(tick=160, channel=0, data=[56, 0]),
   midi.NoteOnEvent(tick=0, channel=0, data=[52, 34]),
   midi.NoteOnEvent(tick=40, channel=0, data=[51, 0]),
   midi.NoteOnEvent(tick=120, channel=0, data=[55, 36]),
   midi.NoteOnEvent(tick=40, channel=0, data=[52, 0]),
   midi.NoteOnEvent(tick=120, channel=0, data=[50, 33]),
   midi.NoteOnEvent(tick=160, channel=0, data=[55, 0]),
   midi.NoteOnEvent(tick=0, channel=0, data=[59, 35]),
   midi.NoteOnEvent(tick=40, channel=0, data=[50, 0]),
   midi.NoteOnEvent(tick=120, channel=0, data=[59, 0]),
   midi.NoteOnEvent(tick=0, channel=0, data=[64, 45]),
   midi.NoteOnEvent(tick=160, channel=0, data=[59, 33]),
   midi.NoteOnEvent(tick=160, channel=0, data=[64, 0]),
   midi.NoteOnEvent(tick=0, channel=0, data=[60, 38]),
   midi.NoteOnEvent(tick=40, channel=0, data=[59, 0]),
   midi.NoteOnEvent(tick=120, channel=0, data=[63, 38]),
   midi.NoteOnEvent(tick=40, channel=0, data=[60, 0]),
   midi.NoteOnEvent(tick=120, channel=0, data=[58, 32]),
   midi.NoteOnEvent(tick=160, channel=0, data=[63, 0]),
   midi.NoteOnEvent(tick=0, channel=0, data=[67, 36]),
   midi.NoteOnEvent(tick=40, channel=0, data=[58, 0]),
   midi.NoteOnEvent(tick=120, channel=0, data=[67, 0]),
   midi.NoteOnEvent(tick=0, channel=0, data=[62, 40]),
   midi.NoteOnEvent(tick=160, channel=0, data=[57, 32]),
   midi.NoteOnEvent(tick=160, channel=0, data=[62, 0]),
   midi.NoteOnEvent(tick=0, channel=0, data=[58, 35]),
   midi.NoteOnEvent(tick=40, channel=0, data=[57, 0]),
   midi.NoteOnEvent(tick=120, channel=0, data=[61, 35]),
   midi.NoteOnEvent(tick=40, channel=0, data=[58, 0]),
   midi.NoteOnEvent(tick=120, channel=0, data=[56, 32]),
   midi.NoteOnEvent(tick=160, channel=0, data=[61, 0]),
   midi.NoteOnEvent(tick=0, channel=0, data=[65, 32]),
   midi.NoteOnEvent(tick=40, channel=0, data=[56, 0]),
   midi.NoteOnEvent(tick=120, channel=0, data=[65, 0]),
   midi.NoteOnEvent(tick=0, channel=0, data=[60, 41]),
   midi.NoteOnEvent(tick=160, channel=0, data=[55, 32]),
   midi.NoteOnEvent(tick=160, channel=0, data=[60, 0]),
   midi.NoteOnEvent(tick=0, channel=0, data=[56, 33]),
   midi.NoteOnEvent(tick=40, channel=0, data=[55, 0]),
   midi.NoteOnEvent(tick=120, channel=0, data=[59, 34]),
   midi.NoteOnEvent(tick=40, channel=0, data=[56, 0]),
   midi.NoteOnEvent(tick=120, channel=0, data=[54, 31]),
   midi.NoteOnEvent(tick=160, channel=0, data=[59, 0]),
   midi.NoteOnEvent(tick=0, channel=0, data=[63, 31]),
   midi.NoteOnEvent(tick=40, channel=0, data=[54, 0]),
   midi.NoteOnEvent(tick=120, channel=0, data=[63, 0]),
   midi.NoteOnEvent(tick=0, channel=0, data=[58, 39]),
   midi.NoteOnEvent(tick=160, channel=0, data=[53, 31]),
   midi.NoteOnEvent(tick=160, channel=0, data=[58, 0]),
   midi.NoteOnEvent(tick=0, channel=0, data=[63, 33]),
   midi.NoteOnEvent(tick=40, channel=0, data=[53, 0]),
   midi.NoteOnEvent(tick=120, channel=0, data=[58, 34]),
   midi.NoteOnEvent(tick=40, channel=0, data=[63, 0]),
   midi.NoteOnEvent(tick=120, channel=0, data=[53, 29]),
   midi.NoteOnEvent(tick=160, channel=0, data=[58, 0]),
   midi.NoteOnEvent(tick=0, channel=0, data=[61, 32]),
   midi.NoteOnEvent(tick=40, channel=0, data=[53, 0]),
   midi.NoteOnEvent(tick=120, channel=0, data=[61, 0]),
   midi.NoteOnEvent(tick=0, channel=0, data=[54, 41]),
   midi.NoteOnEvent(tick=160, channel=0, data=[53, 35]),
   midi.NoteOnEvent(tick=40, channel=0, data=[54, 0]),
   midi.NoteOnEvent(tick=120, channel=0, data=[52, 33]),
   midi.NoteOnEvent(tick=40, channel=0, data=[53, 0]),
   midi.NoteOnEvent(tick=120, channel=0, data=[51, 36]),
   midi.NoteOnEvent(tick=40, channel=0, data=[52, 0]),
   midi.NoteOnEvent(tick=120, channel=0, data=[49, 35]),
   midi.NoteOnEvent(tick=40, channel=0, data=[51, 0]),
   midi.NoteOnEvent(tick=120, channel=0, data=[48, 35]),
   midi.NoteOnEvent(tick=40, channel=0, data=[49, 0]),
   midi.NoteOnEvent(tick=120, channel=0, data=[48, 0]),
   midi.NoteOnEvent(tick=0, channel=0, data=[54, 41]),
   midi.NoteOnEvent(tick=160, channel=0, data=[53, 35]),
   midi.NoteOnEvent(tick=40, channel=0, data=[54, 0]),
   midi.NoteOnEvent(tick=120, channel=0, data=[51, 35]),
   midi.NoteOnEvent(tick=40, channel=0, data=[53, 0]),
   midi.NoteOnEvent(tick=120, channel=0, data=[49, 38]),
   midi.NoteOnEvent(tick=40, channel=0, data=[51, 0]),
   midi.NoteOnEvent(tick=120, channel=0, data=[48, 37]),
   midi.NoteOnEvent(tick=40, channel=0, data=[49, 0]),
   midi.NoteOnEvent(tick=120, channel=0, data=[46, 35]),
   midi.NoteOnEvent(tick=40, channel=0, data=[48, 0]),
   midi.NoteOnEvent(tick=120, channel=0, data=[46, 0]),
   midi.NoteOnEvent(tick=0, channel=0, data=[54, 41]),
   midi.NoteOnEvent(tick=160, channel=0, data=[53, 38]),
   midi.NoteOnEvent(tick=40, channel=0, data=[54, 0]),
   midi.NoteOnEvent(tick=120, channel=0, data=[51, 35]),
   midi.NoteOnEvent(tick=40, channel=0, data=[53, 0]),
   midi.NoteOnEvent(tick=120, channel=0, data=[49, 38]),
   midi.NoteOnEvent(tick=40, channel=0, data=[51, 0]),
   midi.NoteOnEvent(tick=120, channel=0, data=[48, 37]),
   midi.NoteOnEvent(tick=40, channel=0, data=[49, 0]),
   midi.NoteOnEvent(tick=120, channel=0, data=[47, 35]),
   midi.NoteOnEvent(tick=40, channel=0, data=[48, 0]),
   midi.NoteOnEvent(tick=120, channel=0, data=[47, 0]),
   midi.NoteOnEvent(tick=0, channel=0, data=[54, 41]),
   midi.NoteOnEvent(tick=160, channel=0, data=[53, 38]),
   midi.NoteOnEvent(tick=40, channel=0, data=[54, 0]),
   midi.NoteOnEvent(tick=120, channel=0, data=[51, 35]),
   midi.NoteOnEvent(tick=40, channel=0, data=[53, 0]),
   midi.NoteOnEvent(tick=120, channel=0, data=[49, 38]),
   midi.NoteOnEvent(tick=40, channel=0, data=[51, 0]),
   midi.NoteOnEvent(tick=120, channel=0, data=[47, 37]),
   midi.NoteOnEvent(tick=40, channel=0, data=[49, 0]),
   midi.NoteOnEvent(tick=120, channel=0, data=[46, 35]),
   midi.NoteOnEvent(tick=40, channel=0, data=[47, 0]),
   midi.NoteOnEvent(tick=120, channel=0, data=[46, 0]),
   midi.NoteOnEvent(tick=0, channel=0, data=[45, 38]),
   midi.NoteOnEvent(tick=160, channel=0, data=[46, 36]),
   midi.NoteOnEvent(tick=40, channel=0, data=[45, 0]),
   midi.NoteOnEvent(tick=120, channel=0, data=[48, 36]),
   midi.NoteOnEvent(tick=40, channel=0, data=[46, 0]),
   midi.NoteOnEvent(tick=120, channel=0, data=[51, 35]),
   midi.NoteOnEvent(tick=40, channel=0, data=[48, 0]),
   midi.NoteOnEvent(tick=120, channel=0, data=[49, 34]),
   midi.NoteOnEvent(tick=40, channel=0, data=[51, 0]),
   midi.NoteOnEvent(tick=120, channel=0, data=[45, 34]),
   midi.NoteOnEvent(tick=40, channel=0, data=[49, 0]),
   midi.NoteOnEvent(tick=120, channel=0, data=[45, 0]),
   midi.NoteOnEvent(tick=0, channel=0, data=[48, 38]),
   midi.NoteOnEvent(tick=160, channel=0, data=[46, 34]),
   midi.NoteOnEvent(tick=40, channel=0, data=[48, 0]),
   midi.NoteOnEvent(tick=120, channel=0, data=[41, 34]),
   midi.NoteOnEvent(tick=40, channel=0, data=[46, 0]),
   midi.NoteOnEvent(tick=120, channel=0, data=[44, 34]),
   midi.NoteOnEvent(tick=40, channel=0, data=[41, 0]),
   midi.NoteOnEvent(tick=120, channel=0, data=[42, 34]),
   midi.NoteOnEvent(tick=40, channel=0, data=[44, 0]),
   midi.NoteOnEvent(tick=120, channel=0, data=[41, 34]),
   midi.NoteOnEvent(tick=40, channel=0, data=[42, 0]),
   midi.NoteOnEvent(tick=120, channel=0, data=[41, 0]),
   midi.NoteOnEvent(tick=0, channel=0, data=[39, 38]),
   midi.NoteOnEvent(tick=160, channel=0, data=[41, 36]),
   midi.NoteOnEvent(tick=40, channel=0, data=[39, 0]),
   midi.NoteOnEvent(tick=120, channel=0, data=[42, 36]),
   midi.NoteOnEvent(tick=40, channel=0, data=[41, 0]),
   midi.NoteOnEvent(tick=120, channel=0, data=[46, 36]),
   midi.NoteOnEvent(tick=40, channel=0, data=[42, 0]),
   midi.NoteOnEvent(tick=120, channel=0, data=[44, 34]),
   midi.NoteOnEvent(tick=40, channel=0, data=[46, 0]),
   midi.NoteOnEvent(tick=120, channel=0, data=[42, 34]),
   midi.NoteOnEvent(tick=40, channel=0, data=[44, 0]),
   midi.NoteOnEvent(tick=120, channel=0, data=[42, 0]),
   midi.NoteOnEvent(tick=0, channel=0, data=[41, 37]),
   midi.NoteOnEvent(tick=160, channel=0, data=[37, 34]),
   midi.NoteOnEvent(tick=40, channel=0, data=[41, 0]),
   midi.NoteOnEvent(tick=120, channel=0, data=[39, 34]),
   midi.NoteOnEvent(tick=40, channel=0, data=[37, 0]),
   midi.NoteOnEvent(tick=120, channel=0, data=[41, 36]),
   midi.NoteOnEvent(tick=40, channel=0, data=[39, 0]),
   midi.NoteOnEvent(tick=120, channel=0, data=[40, 34]),
   midi.NoteOnEvent(tick=40, channel=0, data=[41, 0]),
   midi.NoteOnEvent(tick=120, channel=0, data=[41, 34]),
   midi.NoteOnEvent(tick=40, channel=0, data=[40, 0]),
   midi.NoteOnEvent(tick=120, channel=0, data=[41, 0]),
   midi.NoteOnEvent(tick=0, channel=0, data=[42, 37]),
   midi.NoteOnEvent(tick=160, channel=0, data=[41, 33]),
   midi.NoteOnEvent(tick=40, channel=0, data=[42, 0]),
   midi.NoteOnEvent(tick=120, channel=0, data=[40, 33]),
   midi.NoteOnEvent(tick=40, channel=0, data=[41, 0]),
   midi.NoteOnEvent(tick=120, channel=0, data=[39, 33]),
   midi.NoteOnEvent(tick=40, channel=0, data=[40, 0]),
   midi.NoteOnEvent(tick=120, channel=0, data=[37, 30]),
   midi.NoteOnEvent(tick=40, channel=0, data=[39, 0]),
   midi.NoteOnEvent(tick=120, channel=0, data=[36, 31]),
   midi.NoteOnEvent(tick=40, channel=0, data=[37, 0]),
   midi.NoteOnEvent(tick=120, channel=0, data=[36, 0]),
   midi.NoteOnEvent(tick=0, channel=0, data=[42, 37]),
   midi.NoteOnEvent(tick=160, channel=0, data=[41, 33]),
   midi.NoteOnEvent(tick=40, channel=0, data=[42, 0]),
   midi.NoteOnEvent(tick=120, channel=0, data=[39, 33]),
   midi.NoteOnEvent(tick=40, channel=0, data=[41, 0]),
   midi.NoteOnEvent(tick=120, channel=0, data=[37, 33]),
   midi.NoteOnEvent(tick=40, channel=0, data=[39, 0]),
   midi.NoteOnEvent(tick=120, channel=0, data=[36, 30]),
   midi.NoteOnEvent(tick=40, channel=0, data=[37, 0]),
   midi.NoteOnEvent(tick=120, channel=0, data=[34, 31]),
   midi.NoteOnEvent(tick=40, channel=0, data=[36, 0]),
   midi.NoteOnEvent(tick=120, channel=0, data=[34, 0]),
   midi.NoteOnEvent(tick=0, channel=0, data=[42, 37]),
   midi.NoteOnEvent(tick=160, channel=0, data=[41, 33]),
   midi.NoteOnEvent(tick=40, channel=0, data=[42, 0]),
   midi.NoteOnEvent(tick=120, channel=0, data=[39, 33]),
   midi.NoteOnEvent(tick=40, channel=0, data=[41, 0]),
   midi.NoteOnEvent(tick=120, channel=0, data=[37, 33]),
   midi.NoteOnEvent(tick=40, channel=0, data=[39, 0]),
   midi.NoteOnEvent(tick=120, channel=0, data=[36, 30]),
   midi.NoteOnEvent(tick=40, channel=0, data=[37, 0]),
   midi.NoteOnEvent(tick=120, channel=0, data=[35, 31]),
   midi.NoteOnEvent(tick=40, channel=0, data=[36, 0]),
   midi.NoteOnEvent(tick=120, channel=0, data=[35, 0]),
   midi.NoteOnEvent(tick=0, channel=0, data=[42, 37]),
   midi.NoteOnEvent(tick=160, channel=0, data=[41, 33]),
   midi.NoteOnEvent(tick=40, channel=0, data=[42, 0]),
   midi.NoteOnEvent(tick=120, channel=0, data=[39, 33]),
   midi.NoteOnEvent(tick=40, channel=0, data=[41, 0]),
   midi.NoteOnEvent(tick=120, channel=0, data=[37, 33]),
   midi.NoteOnEvent(tick=40, channel=0, data=[39, 0]),
   midi.NoteOnEvent(tick=120, channel=0, data=[35, 30]),
   midi.NoteOnEvent(tick=40, channel=0, data=[37, 0]),
   midi.NoteOnEvent(tick=120, channel=0, data=[34, 31]),
   midi.NoteOnEvent(tick=40, channel=0, data=[35, 0]),
   midi.NoteOnEvent(tick=120, channel=0, data=[34, 0]),
   midi.NoteOnEvent(tick=0, channel=0, data=[33, 34]),
   midi.NoteOnEvent(tick=160, channel=0, data=[34, 30]),
   midi.NoteOnEvent(tick=40, channel=0, data=[33, 0]),
   midi.NoteOnEvent(tick=120, channel=0, data=[35, 31]),
   midi.NoteOnEvent(tick=40, channel=0, data=[34, 0]),
   midi.NoteOnEvent(tick=120, channel=0, data=[37, 38]),
   midi.NoteOnEvent(tick=40, channel=0, data=[35, 0]),
   midi.NoteOnEvent(tick=120, channel=0, data=[39, 33]),
   midi.NoteOnEvent(tick=40, channel=0, data=[37, 0]),
   midi.NoteOnEvent(tick=120, channel=0, data=[41, 34]),
   midi.NoteOnEvent(tick=40, channel=0, data=[39, 0]),
   midi.NoteOnEvent(tick=120, channel=0, data=[41, 0]),
   midi.NoteOnEvent(tick=0, channel=0, data=[42, 41]),
   midi.ControlChangeEvent(tick=51, channel=0, data=[64, 127]),
   midi.NoteOnEvent(tick=109, channel=0, data=[44, 38]),
   midi.NoteOnEvent(tick=40, channel=0, data=[42, 0]),
   midi.NoteOnEvent(tick=120, channel=0, data=[46, 39]),
   midi.NoteOnEvent(tick=40, channel=0, data=[44, 0]),
   midi.NoteOnEvent(tick=120, channel=0, data=[47, 45]),
   midi.NoteOnEvent(tick=40, channel=0, data=[46, 0]),
   midi.NoteOnEvent(tick=120, channel=0, data=[49, 43]),
   midi.NoteOnEvent(tick=40, channel=0, data=[47, 0]),
   midi.NoteOnEvent(tick=120, channel=0, data=[51, 43]),
   midi.NoteOnEvent(tick=40, channel=0, data=[49, 0]),
   midi.NoteOnEvent(tick=120, channel=0, data=[51, 0]),
   midi.NoteOnEvent(tick=0, channel=0, data=[53, 49]),
   midi.ControlChangeEvent(tick=18, channel=0, data=[64, 0]),
   midi.NoteOnEvent(tick=142, channel=0, data=[52, 45]),
   midi.NoteOnEvent(tick=40, channel=0, data=[53, 0]),
   midi.NoteOnEvent(tick=120, channel=0, data=[49, 39]),
   midi.NoteOnEvent(tick=40, channel=0, data=[52, 0]),
   midi.NoteOnEvent(tick=120, channel=0, data=[48, 40]),
   midi.NoteOnEvent(tick=40, channel=0, data=[49, 0]),
   midi.NoteOnEvent(tick=120, channel=0, data=[46, 41]),
   midi.NoteOnEvent(tick=40, channel=0, data=[48, 0]),
   midi.NoteOnEvent(tick=120, channel=0, data=[42, 37]),
   midi.NoteOnEvent(tick=40, channel=0, data=[46, 0]),
   midi.NoteOnEvent(tick=120, channel=0, data=[42, 0]),
   midi.NoteOnEvent(tick=0, channel=0, data=[41, 41]),
   midi.NoteOnEvent(tick=160, channel=0, data=[40, 36]),
   midi.NoteOnEvent(tick=40, channel=0, data=[41, 0]),
   midi.NoteOnEvent(tick=120, channel=0, data=[37, 33]),
   midi.NoteOnEvent(tick=40, channel=0, data=[40, 0]),
   midi.NoteOnEvent(tick=120, channel=0, data=[36, 36]),
   midi.NoteOnEvent(tick=40, channel=0, data=[37, 0]),
   midi.NoteOnEvent(tick=120, channel=0, data=[34, 30]),
   midi.NoteOnEvent(tick=40, channel=0, data=[36, 0]),
   midi.NoteOnEvent(tick=120, channel=0, data=[30, 30]),
   midi.NoteOnEvent(tick=40, channel=0, data=[34, 0]),
   midi.NoteOnEvent(tick=120, channel=0, data=[30, 0]),
   midi.NoteOnEvent(tick=0, channel=0, data=[29, 33]),
   midi.NoteOnEvent(tick=160, channel=0, data=[34, 28]),
   midi.NoteOnEvent(tick=160, channel=0, data=[29, 0]),
   midi.NoteOnEvent(tick=0, channel=0, data=[32, 28]),
   midi.NoteOnEvent(tick=40, channel=0, data=[34, 0]),
   midi.NoteOnEvent(tick=120, channel=0, data=[33, 29]),
   midi.NoteOnEvent(tick=40, channel=0, data=[32, 0]),
   midi.NoteOnEvent(tick=120, channel=0, data=[37, 28]),
   midi.NoteOnEvent(tick=160, channel=0, data=[33, 0]),
   midi.NoteOnEvent(tick=0, channel=0, data=[33, 28]),
   midi.NoteOnEvent(tick=40, channel=0, data=[37, 0]),
   midi.NoteOnEvent(tick=120, channel=0, data=[33, 0]),
   midi.NoteOnEvent(tick=0, channel=0, data=[34, 34]),
   midi.NoteOnEvent(tick=160, channel=0, data=[39, 31]),
   midi.NoteOnEvent(tick=160, channel=0, data=[34, 0]),
   midi.NoteOnEvent(tick=0, channel=0, data=[35, 31]),
   midi.NoteOnEvent(tick=40, channel=0, data=[39, 0]),
   midi.NoteOnEvent(tick=120, channel=0, data=[36, 36]),
   midi.NoteOnEvent(tick=40, channel=0, data=[35, 0]),
   midi.NoteOnEvent(tick=120, channel=0, data=[41, 33]),
   midi.NoteOnEvent(tick=160, channel=0, data=[36, 0]),
   midi.NoteOnEvent(tick=0, channel=0, data=[36, 33]),
   midi.NoteOnEvent(tick=40, channel=0, data=[41, 0]),
   midi.NoteOnEvent(tick=120, channel=0, data=[36, 0]),
   midi.NoteOnEvent(tick=0, channel=0, data=[37, 36]),
   midi.NoteOnEvent(tick=160, channel=0, data=[42, 33]),
   midi.NoteOnEvent(tick=160, channel=0, data=[37, 0]),
   midi.NoteOnEvent(tick=0, channel=0, data=[38, 33]),
   midi.NoteOnEvent(tick=40, channel=0, data=[42, 0]),
   midi.NoteOnEvent(tick=120, channel=0, data=[39, 34]),
   midi.NoteOnEvent(tick=40, channel=0, data=[38, 0]),
   midi.NoteOnEvent(tick=120, channel=0, data=[45, 33]),
   midi.NoteOnEvent(tick=160, channel=0, data=[39, 0]),
   midi.NoteOnEvent(tick=0, channel=0, data=[41, 33]),
   midi.NoteOnEvent(tick=40, channel=0, data=[45, 0]),
   midi.NoteOnEvent(tick=120, channel=0, data=[41, 0]),
   midi.NoteOnEvent(tick=0, channel=0, data=[42, 34]),
   midi.NoteOnEvent(tick=160, channel=0, data=[49, 34]),
   midi.NoteOnEvent(tick=160, channel=0, data=[42, 0]),
   midi.NoteOnEvent(tick=0, channel=0, data=[45, 33]),
   midi.NoteOnEvent(tick=40, channel=0, data=[49, 0]),
   midi.NoteOnEvent(tick=120, channel=0, data=[48, 34]),
   midi.NoteOnEvent(tick=40, channel=0, data=[45, 0]),
   midi.NoteOnEvent(tick=120, channel=0, data=[54, 35]),
   midi.NoteOnEvent(tick=160, channel=0, data=[48, 0]),
   midi.NoteOnEvent(tick=0, channel=0, data=[53, 34]),
   midi.NoteOnEvent(tick=40, channel=0, data=[54, 0]),
   midi.NoteOnEvent(tick=120, channel=0, data=[53, 0]),
   midi.NoteOnEvent(tick=0, channel=0, data=[45, 38]),
   midi.NoteOnEvent(tick=160, channel=0, data=[49, 33]),
   midi.NoteOnEvent(tick=160, channel=0, data=[45, 0]),
   midi.NoteOnEvent(tick=0, channel=0, data=[45, 34]),
   midi.NoteOnEvent(tick=40, channel=0, data=[49, 0]),
   midi.NoteOnEvent(tick=120, channel=0, data=[48, 36]),
   midi.NoteOnEvent(tick=40, channel=0, data=[45, 0]),
   midi.NoteOnEvent(tick=120, channel=0, data=[54, 36]),
   midi.NoteOnEvent(tick=160, channel=0, data=[48, 0]),
   midi.NoteOnEvent(tick=0, channel=0, data=[53, 36]),
   midi.NoteOnEvent(tick=40, channel=0, data=[54, 0]),
   midi.NoteOnEvent(tick=120, channel=0, data=[53, 0]),
   midi.NoteOnEvent(tick=0, channel=0, data=[45, 38]),
   midi.NoteOnEvent(tick=160, channel=0, data=[49, 33]),
   midi.NoteOnEvent(tick=160, channel=0, data=[45, 0]),
   midi.NoteOnEvent(tick=0, channel=0, data=[45, 34]),
   midi.NoteOnEvent(tick=40, channel=0, data=[49, 0]),
   midi.NoteOnEvent(tick=120, channel=0, data=[48, 34]),
   midi.NoteOnEvent(tick=40, channel=0, data=[45, 0]),
   midi.NoteOnEvent(tick=120, channel=0, data=[54, 36]),
   midi.NoteOnEvent(tick=160, channel=0, data=[48, 0]),
   midi.NoteOnEvent(tick=0, channel=0, data=[53, 36]),
   midi.NoteOnEvent(tick=40, channel=0, data=[54, 0]),
   midi.NoteOnEvent(tick=120, channel=0, data=[53, 0]),
   midi.NoteOnEvent(tick=0, channel=0, data=[48, 39]),
   midi.NoteOnEvent(tick=160, channel=0, data=[54, 36]),
   midi.NoteOnEvent(tick=160, channel=0, data=[48, 0]),
   midi.NoteOnEvent(tick=0, channel=0, data=[53, 34]),
   midi.NoteOnEvent(tick=40, channel=0, data=[54, 0]),
   midi.NoteOnEvent(tick=120, channel=0, data=[48, 34]),
   midi.NoteOnEvent(tick=40, channel=0, data=[53, 0]),
   midi.NoteOnEvent(tick=120, channel=0, data=[54, 36]),
   midi.NoteOnEvent(tick=160, channel=0, data=[48, 0]),
   midi.NoteOnEvent(tick=0, channel=0, data=[53, 34]),
   midi.NoteOnEvent(tick=40, channel=0, data=[54, 0]),
   midi.NoteOnEvent(tick=120, channel=0, data=[53, 0]),
   midi.NoteOnEvent(tick=0, channel=0, data=[48, 38]),
   midi.NoteOnEvent(tick=160, channel=0, data=[54, 36]),
   midi.NoteOnEvent(tick=160, channel=0, data=[48, 0]),
   midi.NoteOnEvent(tick=0, channel=0, data=[53, 34]),
   midi.NoteOnEvent(tick=40, channel=0, data=[54, 0]),
   midi.NoteOnEvent(tick=120, channel=0, data=[46, 37]),
   midi.NoteOnEvent(tick=40, channel=0, data=[53, 0]),
   midi.NoteOnEvent(tick=120, channel=0, data=[54, 36]),
   midi.NoteOnEvent(tick=160, channel=0, data=[46, 0]),
   midi.NoteOnEvent(tick=0, channel=0, data=[53, 36]),
   midi.NoteOnEvent(tick=40, channel=0, data=[54, 0]),
   midi.NoteOnEvent(tick=120, channel=0, data=[53, 0]),
   midi.NoteOnEvent(tick=0, channel=0, data=[49, 38]),
   midi.NoteOnEvent(tick=160, channel=0, data=[41, 30]),
   midi.NoteOnEvent(tick=160, channel=0, data=[49, 0]),
   midi.NoteOnEvent(tick=0, channel=0, data=[51, 33]),
   midi.NoteOnEvent(tick=40, channel=0, data=[41, 0]),
   midi.NoteOnEvent(tick=120, channel=0, data=[53, 34]),
   midi.NoteOnEvent(tick=40, channel=0, data=[51, 0]),
   midi.NoteOnEvent(tick=120, channel=0, data=[51, 34]),
   midi.NoteOnEvent(tick=40, channel=0, data=[53, 0]),
   midi.NoteOnEvent(tick=120, channel=0, data=[49, 34]),
   midi.NoteOnEvent(tick=40, channel=0, data=[51, 0]),
   midi.NoteOnEvent(tick=120, channel=0, data=[49, 0]),
   midi.NoteOnEvent(tick=0, channel=0, data=[46, 37]),
   midi.NoteOnEvent(tick=160, channel=0, data=[41, 33]),
   midi.NoteOnEvent(tick=40, channel=0, data=[46, 0]),
   midi.NoteOnEvent(tick=120, channel=0, data=[48, 33]),
   midi.NoteOnEvent(tick=40, channel=0, data=[41, 0]),
   midi.NoteOnEvent(tick=120, channel=0, data=[49, 34]),
   midi.NoteOnEvent(tick=40, channel=0, data=[48, 0]),
   midi.NoteOnEvent(tick=120, channel=0, data=[48, 33]),
   midi.NoteOnEvent(tick=40, channel=0, data=[49, 0]),
   midi.NoteOnEvent(tick=120, channel=0, data=[46, 34]),
   midi.NoteOnEvent(tick=40, channel=0, data=[48, 0]),
   midi.NoteOnEvent(tick=120, channel=0, data=[46, 0]),
   midi.NoteOnEvent(tick=0, channel=0, data=[49, 38]),
   midi.NoteOnEvent(tick=160, channel=0, data=[41, 33]),
   midi.NoteOnEvent(tick=40, channel=0, data=[49, 0]),
   midi.NoteOnEvent(tick=120, channel=0, data=[51, 33]),
   midi.NoteOnEvent(tick=40, channel=0, data=[41, 0]),
   midi.NoteOnEvent(tick=120, channel=0, data=[53, 34]),
   midi.NoteOnEvent(tick=40, channel=0, data=[51, 0]),
   midi.NoteOnEvent(tick=120, channel=0, data=[51, 34]),
   midi.NoteOnEvent(tick=40, channel=0, data=[53, 0]),
   midi.NoteOnEvent(tick=120, channel=0, data=[49, 34]),
   midi.NoteOnEvent(tick=40, channel=0, data=[51, 0]),
   midi.NoteOnEvent(tick=120, channel=0, data=[49, 0]),
   midi.NoteOnEvent(tick=0, channel=0, data=[46, 37]),
   midi.NoteOnEvent(tick=160, channel=0, data=[41, 33]),
   midi.NoteOnEvent(tick=40, channel=0, data=[46, 0]),
   midi.NoteOnEvent(tick=120, channel=0, data=[48, 33]),
   midi.NoteOnEvent(tick=40, channel=0, data=[41, 0]),
   midi.NoteOnEvent(tick=120, channel=0, data=[49, 37]),
   midi.NoteOnEvent(tick=40, channel=0, data=[48, 0]),
   midi.NoteOnEvent(tick=120, channel=0, data=[48, 34]),
   midi.NoteOnEvent(tick=40, channel=0, data=[49, 0]),
   midi.NoteOnEvent(tick=120, channel=0, data=[46, 34]),
   midi.NoteOnEvent(tick=40, channel=0, data=[48, 0]),
   midi.NoteOnEvent(tick=120, channel=0, data=[46, 0]),
   midi.NoteOnEvent(tick=0, channel=0, data=[39, 37]),
   midi.NoteOnEvent(tick=160, channel=0, data=[41, 33]),
   midi.NoteOnEvent(tick=40, channel=0, data=[39, 0]),
   midi.NoteOnEvent(tick=120, channel=0, data=[46, 28]),
   midi.NoteOnEvent(tick=40, channel=0, data=[41, 0]),
   midi.NoteOnEvent(tick=120, channel=0, data=[49, 29]),
   midi.NoteOnEvent(tick=40, channel=0, data=[46, 0]),
   midi.NoteOnEvent(tick=114, channel=0, data=[49, 0]),
   midi.NoteOnEvent(tick=6, channel=0, data=[37, 29]),
   midi.NoteOnEvent(tick=160, channel=0, data=[41, 29]),
   midi.NoteOnEvent(tick=40, channel=0, data=[37, 0]),
   midi.NoteOnEvent(tick=120, channel=0, data=[41, 0]),
   midi.NoteOnEvent(tick=0, channel=0, data=[39, 37]),
   midi.NoteOnEvent(tick=160, channel=0, data=[41, 33]),
   midi.NoteOnEvent(tick=40, channel=0, data=[39, 0]),
   midi.NoteOnEvent(tick=120, channel=0, data=[46, 28]),
   midi.NoteOnEvent(tick=40, channel=0, data=[41, 0]),
   midi.NoteOnEvent(tick=120, channel=0, data=[49, 30]),
   midi.NoteOnEvent(tick=40, channel=0, data=[46, 0]),
   midi.NoteOnEvent(tick=116, channel=0, data=[49, 0]),
   midi.NoteOnEvent(tick=4, channel=0, data=[37, 29]),
   midi.NoteOnEvent(tick=160, channel=0, data=[41, 29]),
   midi.NoteOnEvent(tick=40, channel=0, data=[37, 0]),
   midi.NoteOnEvent(tick=120, channel=0, data=[41, 0]),
   midi.NoteOnEvent(tick=0, channel=0, data=[36, 37]),
   midi.NoteOnEvent(tick=160, channel=0, data=[37, 33]),
   midi.NoteOnEvent(tick=40, channel=0, data=[36, 0]),
   midi.NoteOnEvent(tick=120, channel=0, data=[41, 28]),
   midi.NoteOnEvent(tick=40, channel=0, data=[37, 0]),
   midi.NoteOnEvent(tick=120, channel=0, data=[46, 30]),
   midi.NoteOnEvent(tick=40, channel=0, data=[41, 0]),
   midi.NoteOnEvent(tick=120, channel=0, data=[46, 0]),
   midi.NoteOnEvent(tick=0, channel=0, data=[34, 29]),
   midi.NoteOnEvent(tick=160, channel=0, data=[37, 29]),
   midi.NoteOnEvent(tick=40, channel=0, data=[34, 0]),
   midi.NoteOnEvent(tick=120, channel=0, data=[37, 0]),
   midi.NoteOnEvent(tick=0, channel=0, data=[36, 37]),
   midi.NoteOnEvent(tick=160, channel=0, data=[37, 33]),
   midi.NoteOnEvent(tick=40, channel=0, data=[36, 0]),
   midi.NoteOnEvent(tick=120, channel=0, data=[41, 28]),
   midi.NoteOnEvent(tick=40, channel=0, data=[37, 0]),
   midi.NoteOnEvent(tick=120, channel=0, data=[46, 30]),
   midi.NoteOnEvent(tick=40, channel=0, data=[41, 0]),
   midi.NoteOnEvent(tick=120, channel=0, data=[46, 0]),
   midi.NoteOnEvent(tick=0, channel=0, data=[34, 29]),
   midi.NoteOnEvent(tick=160, channel=0, data=[37, 29]),
   midi.NoteOnEvent(tick=40, channel=0, data=[34, 0]),
   midi.NoteOnEvent(tick=120, channel=0, data=[37, 0]),
   midi.NoteOnEvent(tick=960, channel=0, data=[36, 37]),
   midi.NoteOnEvent(tick=160, channel=0, data=[37, 33]),
   midi.NoteOnEvent(tick=40, channel=0, data=[36, 0]),
   midi.NoteOnEvent(tick=120, channel=0, data=[41, 28]),
   midi.NoteOnEvent(tick=40, channel=0, data=[37, 0]),
   midi.NoteOnEvent(tick=120, channel=0, data=[46, 29]),
   midi.NoteOnEvent(tick=40, channel=0, data=[41, 0]),
   midi.NoteOnEvent(tick=114, channel=0, data=[46, 0]),
   midi.NoteOnEvent(tick=6, channel=0, data=[34, 29]),
   midi.NoteOnEvent(tick=160, channel=0, data=[37, 29]),
   midi.NoteOnEvent(tick=40, channel=0, data=[34, 0]),
   midi.NoteOnEvent(tick=120, channel=0, data=[37, 0]),
   midi.NoteOnEvent(tick=960, channel=0, data=[36, 48]),
   midi.NoteOnEvent(tick=160, channel=0, data=[37, 43]),
   midi.NoteOnEvent(tick=40, channel=0, data=[36, 0]),
   midi.NoteOnEvent(tick=120, channel=0, data=[41, 39]),
   midi.NoteOnEvent(tick=40, channel=0, data=[37, 0]),
   midi.NoteOnEvent(tick=120, channel=0, data=[46, 40]),
   midi.NoteOnEvent(tick=40, channel=0, data=[41, 0]),
   midi.NoteOnEvent(tick=115, channel=0, data=[46, 0]),
   midi.NoteOnEvent(tick=5, channel=0, data=[34, 40]),
   midi.NoteOnEvent(tick=160, channel=0, data=[37, 41]),
   midi.NoteOnEvent(tick=40, channel=0, data=[34, 0]),
   midi.NoteOnEvent(tick=120, channel=0, data=[37, 0]),
   midi.NoteOnEvent(tick=0, channel=0, data=[34, 78]),
   midi.ControlChangeEvent(tick=267, channel=0, data=[64, 127]),
   midi.NoteOnEvent(tick=213, channel=0, data=[34, 0]),
   midi.NoteOnEvent(tick=480, channel=0, data=[53, 66]),
   midi.NoteOnEvent(tick=0, channel=0, data=[65, 79]),
   midi.NoteOnEvent(tick=0, channel=0, data=[61, 66]),
   midi.NoteOnEvent(tick=0, channel=0, data=[58, 66]),
   midi.NoteOnEvent(tick=960, channel=0, data=[58, 0]),
   midi.NoteOnEvent(tick=0, channel=0, data=[53, 0]),
   midi.NoteOnEvent(tick=0, channel=0, data=[65, 0]),
   midi.NoteOnEvent(tick=0, channel=0, data=[61, 0]),
   midi.ControlChangeEvent(tick=1920, channel=0, data=[64, 0]),
   midi.EndOfTrackEvent(tick=0, data=[])])])
midi.write_midifile("creationMidi.mid", pattern)