import midi
pattern=midi.Pattern(format=1, resolution=480, tracks=\
[midi.Track(\
[   midi.ControlChangeEvent(tick=0, channel=0, data=[7, 100]),
   midi.ControlChangeEvent(tick=0, channel=0, data=[10, 64]),
   midi.ControlChangeEvent(tick=0, channel=0, data=[91, 127]),
   midi.NoteOnEvent(tick=1440, channel=0, data=[77, 55]),
   midi.ControlChangeEvent(tick=0, channel=0, data=[91, 127]),
   midi.NoteOnEvent(tick=720, channel=0, data=[77, 0]),
   midi.NoteOnEvent(tick=0, channel=0, data=[75, 55]),
   midi.NoteOnEvent(tick=240, channel=0, data=[75, 0]),
   midi.NoteOnEvent(tick=0, channel=0, data=[73, 55]),
   midi.NoteOnEvent(tick=360, channel=0, data=[73, 0]),
   midi.NoteOnEvent(tick=0, channel=0, data=[65, 50]),
   midi.NoteOnEvent(tick=120, channel=0, data=[65, 0]),
   midi.NoteOnEvent(tick=0, channel=0, data=[68, 55]),
   midi.NoteOnEvent(tick=960, channel=0, data=[68, 0]),
   midi.NoteOnEvent(tick=0, channel=0, data=[73, 58]),
   midi.NoteOnEvent(tick=240, channel=0, data=[73, 0]),
   midi.NoteOnEvent(tick=0, channel=0, data=[77, 61]),
   midi.NoteOnEvent(tick=240, channel=0, data=[77, 0]),
   midi.NoteOnEvent(tick=0, channel=0, data=[82, 68]),
   midi.NoteOnEvent(tick=840, channel=0, data=[82, 0]),
   midi.NoteOnEvent(tick=0, channel=0, data=[80, 50]),
   midi.NoteOnEvent(tick=120, channel=0, data=[80, 0]),
   midi.NoteOnEvent(tick=0, channel=0, data=[76, 56]),
   midi.NoteOnEvent(tick=120, channel=0, data=[76, 0]),
   midi.NoteOnEvent(tick=0, channel=0, data=[77, 50]),
   midi.NoteOnEvent(tick=120, channel=0, data=[77, 0]),
   midi.NoteOnEvent(tick=0, channel=0, data=[72, 55]),
   midi.NoteOnEvent(tick=120, channel=0, data=[72, 0]),
   midi.NoteOnEvent(tick=0, channel=0, data=[73, 50]),
   midi.NoteOnEvent(tick=120, channel=0, data=[73, 0]),
   midi.NoteOnEvent(tick=0, channel=0, data=[69, 63]),
   midi.ControlChangeEvent(tick=0, channel=0, data=[91, 127]),
   midi.NoteOnEvent(tick=1440, channel=0, data=[69, 0]),
   midi.NoteOnEvent(tick=0, channel=0, data=[70, 58]),
   midi.ControlChangeEvent(tick=0, channel=0, data=[91, 127]),
   midi.NoteOnEvent(tick=720, channel=0, data=[70, 0]),
   midi.NoteOnEvent(tick=120, channel=0, data=[84, 56]),
   midi.NoteOnEvent(tick=120, channel=0, data=[84, 0]),
   midi.NoteOnEvent(tick=0, channel=0, data=[82, 58]),
   midi.NoteOnEvent(tick=120, channel=0, data=[82, 0]),
   midi.NoteOnEvent(tick=0, channel=0, data=[77, 52]),
   midi.NoteOnEvent(tick=120, channel=0, data=[77, 0]),
   midi.NoteOnEvent(tick=0, channel=0, data=[80, 56]),
   midi.NoteOnEvent(tick=120, channel=0, data=[80, 0]),
   midi.NoteOnEvent(tick=0, channel=0, data=[78, 51]),
   midi.NoteOnEvent(tick=120, channel=0, data=[78, 0]),
   midi.NoteOnEvent(tick=0, channel=0, data=[77, 57]),
   midi.NoteOnEvent(tick=480, channel=0, data=[77, 0]),
   midi.NoteOnEvent(tick=0, channel=0, data=[75, 58]),
   midi.NoteOnEvent(tick=360, channel=0, data=[75, 0]),
   midi.NoteOnEvent(tick=0, channel=0, data=[77, 52]),
   midi.NoteOnEvent(tick=30, channel=0, data=[77, 0]),
   midi.NoteOnEvent(tick=0, channel=0, data=[75, 52]),
   midi.NoteOnEvent(tick=30, channel=0, data=[75, 0]),
   midi.NoteOnEvent(tick=0, channel=0, data=[74, 52]),
   midi.NoteOnEvent(tick=30, channel=0, data=[74, 0]),
   midi.NoteOnEvent(tick=0, channel=0, data=[75, 52]),
   midi.NoteOnEvent(tick=30, channel=0, data=[75, 0]),
   midi.NoteOnEvent(tick=0, channel=0, data=[77, 61]),
   midi.NoteOnEvent(tick=240, channel=0, data=[77, 0]),
   midi.NoteOnEvent(tick=0, channel=0, data=[78, 69]),
   midi.NoteOnEvent(tick=180, channel=0, data=[78, 0]),
   midi.NoteOnEvent(tick=0, channel=0, data=[78, 57]),
   midi.NoteOnEvent(tick=60, channel=0, data=[78, 0]),
   midi.NoteOnEvent(tick=0, channel=0, data=[90, 79]),
   midi.NoteOnEvent(tick=420, channel=0, data=[87, 56]),
   midi.NoteOnEvent(tick=60, channel=0, data=[87, 0]),
   midi.NoteOnEvent(tick=0, channel=0, data=[90, 0]),
   midi.NoteOnEvent(tick=0, channel=0, data=[85, 55]),
   midi.NoteOnEvent(tick=60, channel=0, data=[85, 0]),
   midi.NoteOnEvent(tick=0, channel=0, data=[81, 54]),
   midi.NoteOnEvent(tick=60, channel=0, data=[81, 0]),
   midi.NoteOnEvent(tick=0, channel=0, data=[78, 52]),
   midi.NoteOnEvent(tick=60, channel=0, data=[78, 0]),
   midi.NoteOnEvent(tick=0, channel=0, data=[75, 49]),
   midi.NoteOnEvent(tick=60, channel=0, data=[75, 0]),
   midi.NoteOnEvent(tick=0, channel=0, data=[72, 53]),
   midi.NoteOnEvent(tick=60, channel=0, data=[72, 0]),
   midi.NoteOnEvent(tick=60, channel=0, data=[73, 54]),
   midi.NoteOnEvent(tick=60, channel=0, data=[73, 0]),
   midi.NoteOnEvent(tick=60, channel=0, data=[74, 55]),
   midi.NoteOnEvent(tick=60, channel=0, data=[74, 0]),
   midi.NoteOnEvent(tick=60, channel=0, data=[75, 56]),
   midi.NoteOnEvent(tick=60, channel=0, data=[75, 0]),
   midi.NoteOnEvent(tick=60, channel=0, data=[77, 57]),
   midi.NoteOnEvent(tick=60, channel=0, data=[77, 0]),
   midi.NoteOnEvent(tick=60, channel=0, data=[78, 58]),
   midi.NoteOnEvent(tick=60, channel=0, data=[78, 0]),
   midi.NoteOnEvent(tick=60, channel=0, data=[79, 69]),
   midi.NoteOnEvent(tick=540, channel=0, data=[79, 0]),
   midi.NoteOnEvent(tick=0, channel=0, data=[80, 54]),
   midi.NoteOnEvent(tick=60, channel=0, data=[80, 0]),
   midi.NoteOnEvent(tick=0, channel=0, data=[82, 59]),
   midi.NoteOnEvent(tick=60, channel=0, data=[82, 0]),
   midi.NoteOnEvent(tick=0, channel=0, data=[80, 50]),
   midi.NoteOnEvent(tick=60, channel=0, data=[80, 0]),
   midi.NoteOnEvent(tick=0, channel=0, data=[77, 56]),
   midi.NoteOnEvent(tick=720, channel=0, data=[73, 53]),
   midi.NoteOnEvent(tick=240, channel=0, data=[73, 0]),
   midi.NoteOnEvent(tick=0, channel=0, data=[77, 0]),
   midi.NoteOnEvent(tick=0, channel=0, data=[75, 55]),
   midi.NoteOnEvent(tick=0, channel=0, data=[78, 65]),
   midi.NoteOnEvent(tick=360, channel=0, data=[78, 0]),
   midi.NoteOnEvent(tick=0, channel=0, data=[75, 0]),
   midi.NoteOnEvent(tick=0, channel=0, data=[70, 51]),
   midi.NoteOnEvent(tick=0, channel=0, data=[73, 60]),
   midi.NoteOnEvent(tick=120, channel=0, data=[73, 0]),
   midi.NoteOnEvent(tick=0, channel=0, data=[70, 0]),
   midi.NoteOnEvent(tick=0, channel=0, data=[72, 55]),
   midi.NoteOnEvent(tick=0, channel=0, data=[75, 65]),
   midi.NoteOnEvent(tick=240, channel=0, data=[75, 0]),
   midi.NoteOnEvent(tick=0, channel=0, data=[72, 0]),
   midi.NoteOnEvent(tick=0, channel=0, data=[73, 53]),
   midi.NoteOnEvent(tick=0, channel=0, data=[77, 62]),
   midi.NoteOnEvent(tick=240, channel=0, data=[77, 0]),
   midi.NoteOnEvent(tick=0, channel=0, data=[73, 0]),
   midi.NoteOnEvent(tick=0, channel=0, data=[69, 52]),
   midi.NoteOnEvent(tick=0, channel=0, data=[72, 61]),
   midi.NoteOnEvent(tick=240, channel=0, data=[72, 0]),
   midi.NoteOnEvent(tick=0, channel=0, data=[69, 0]),
   midi.NoteOnEvent(tick=0, channel=0, data=[72, 55]),
   midi.NoteOnEvent(tick=0, channel=0, data=[75, 65]),
   midi.NoteOnEvent(tick=240, channel=0, data=[75, 0]),
   midi.NoteOnEvent(tick=0, channel=0, data=[72, 0]),
   midi.NoteOnEvent(tick=0, channel=0, data=[70, 50]),
   midi.NoteOnEvent(tick=0, channel=0, data=[73, 59]),
   midi.NoteOnEvent(tick=120, channel=0, data=[73, 0]),
   midi.NoteOnEvent(tick=0, channel=0, data=[70, 0]),
   midi.NoteOnEvent(tick=60, channel=0, data=[82, 64]),
   midi.NoteOnEvent(tick=0, channel=0, data=[73, 54]),
   midi.NoteOnEvent(tick=60, channel=0, data=[73, 0]),
   midi.NoteOnEvent(tick=0, channel=0, data=[82, 0]),
   midi.NoteOnEvent(tick=0, channel=0, data=[73, 56]),
   midi.NoteOnEvent(tick=0, channel=0, data=[82, 66]),
   midi.NoteOnEvent(tick=80, channel=0, data=[82, 0]),
   midi.NoteOnEvent(tick=0, channel=0, data=[73, 0]),
   midi.NoteOnEvent(tick=0, channel=0, data=[72, 55]),
   midi.NoteOnEvent(tick=0, channel=0, data=[80, 65]),
   midi.NoteOnEvent(tick=80, channel=0, data=[80, 0]),
   midi.NoteOnEvent(tick=0, channel=0, data=[72, 0]),
   midi.NoteOnEvent(tick=0, channel=0, data=[70, 54]),
   midi.NoteOnEvent(tick=0, channel=0, data=[78, 64]),
   midi.NoteOnEvent(tick=80, channel=0, data=[78, 0]),
   midi.NoteOnEvent(tick=0, channel=0, data=[70, 0]),
   midi.NoteOnEvent(tick=0, channel=0, data=[70, 53]),
   midi.NoteOnEvent(tick=0, channel=0, data=[77, 63]),
   midi.NoteOnEvent(tick=240, channel=0, data=[70, 0]),
   midi.NoteOnEvent(tick=0, channel=0, data=[69, 52]),
   midi.NoteOnEvent(tick=80, channel=0, data=[69, 0]),
   midi.NoteOnEvent(tick=0, channel=0, data=[70, 54]),
   midi.NoteOnEvent(tick=80, channel=0, data=[70, 0]),
   midi.NoteOnEvent(tick=0, channel=0, data=[71, 56]),
   midi.NoteOnEvent(tick=80, channel=0, data=[71, 0]),
   midi.NoteOnEvent(tick=0, channel=0, data=[77, 0]),
   midi.NoteOnEvent(tick=0, channel=0, data=[77, 58]),
   midi.NoteOnEvent(tick=0, channel=0, data=[72, 49]),
   midi.NoteOnEvent(tick=40, channel=0, data=[72, 0]),
   midi.NoteOnEvent(tick=0, channel=0, data=[77, 0]),
   midi.NoteOnEvent(tick=40, channel=0, data=[77, 60]),
   midi.NoteOnEvent(tick=0, channel=0, data=[73, 51]),
   midi.NoteOnEvent(tick=40, channel=0, data=[73, 0]),
   midi.NoteOnEvent(tick=0, channel=0, data=[77, 0]),
   midi.NoteOnEvent(tick=40, channel=0, data=[77, 62]),
   midi.NoteOnEvent(tick=0, channel=0, data=[75, 52]),
   midi.NoteOnEvent(tick=40, channel=0, data=[75, 0]),
   midi.NoteOnEvent(tick=0, channel=0, data=[77, 0]),
   midi.NoteOnEvent(tick=40, channel=0, data=[73, 53]),
   midi.NoteOnEvent(tick=0, channel=0, data=[77, 63]),
   midi.NoteOnEvent(tick=240, channel=0, data=[77, 0]),
   midi.NoteOnEvent(tick=0, channel=0, data=[73, 0]),
   midi.NoteOnEvent(tick=0, channel=0, data=[75, 55]),
   midi.NoteOnEvent(tick=0, channel=0, data=[78, 65]),
   midi.NoteOnEvent(tick=360, channel=0, data=[78, 0]),
   midi.NoteOnEvent(tick=0, channel=0, data=[75, 0]),
   midi.NoteOnEvent(tick=0, channel=0, data=[70, 51]),
   midi.NoteOnEvent(tick=0, channel=0, data=[73, 60]),
   midi.NoteOnEvent(tick=120, channel=0, data=[73, 0]),
   midi.NoteOnEvent(tick=0, channel=0, data=[70, 0]),
   midi.NoteOnEvent(tick=0, channel=0, data=[70, 49]),
   midi.NoteOnEvent(tick=0, channel=0, data=[73, 58]),
   midi.NoteOnEvent(tick=45, channel=0, data=[73, 0]),
   midi.NoteOnEvent(tick=0, channel=0, data=[70, 0]),
   midi.NoteOnEvent(tick=0, channel=0, data=[73, 55]),
   midi.NoteOnEvent(tick=0, channel=0, data=[77, 65]),
   midi.NoteOnEvent(tick=135, channel=0, data=[77, 0]),
   midi.NoteOnEvent(tick=0, channel=0, data=[73, 0]),
   midi.NoteOnEvent(tick=0, channel=0, data=[72, 58]),
   midi.NoteOnEvent(tick=0, channel=0, data=[75, 58]),
   midi.NoteOnEvent(tick=30, channel=0, data=[75, 0]),
   midi.NoteOnEvent(tick=0, channel=0, data=[77, 53]),
   midi.NoteOnEvent(tick=30, channel=0, data=[77, 0]),
   midi.NoteOnEvent(tick=0, channel=0, data=[75, 62]),
   midi.NoteOnEvent(tick=80, channel=0, data=[75, 0]),
   midi.NoteOnEvent(tick=0, channel=0, data=[72, 0]),
   midi.NoteOnEvent(tick=0, channel=0, data=[70, 47]),
   midi.NoteOnEvent(tick=0, channel=0, data=[73, 55]),
   midi.NoteOnEvent(tick=80, channel=0, data=[73, 0]),
   midi.NoteOnEvent(tick=0, channel=0, data=[70, 0]),
   midi.NoteOnEvent(tick=0, channel=0, data=[72, 47]),
   midi.NoteOnEvent(tick=0, channel=0, data=[75, 55]),
   midi.NoteOnEvent(tick=80, channel=0, data=[75, 0]),
   midi.NoteOnEvent(tick=0, channel=0, data=[72, 0]),
   midi.NoteOnEvent(tick=0, channel=0, data=[73, 52]),
   midi.NoteOnEvent(tick=0, channel=0, data=[77, 61]),
   midi.NoteOnEvent(tick=60, channel=0, data=[77, 0]),
   midi.NoteOnEvent(tick=0, channel=0, data=[73, 0]),
   midi.NoteOnEvent(tick=120, channel=0, data=[69, 52]),
   midi.NoteOnEvent(tick=0, channel=0, data=[72, 61]),
   midi.NoteOnEvent(tick=60, channel=0, data=[72, 0]),
   midi.NoteOnEvent(tick=0, channel=0, data=[69, 0]),
   midi.NoteOnEvent(tick=0, channel=0, data=[72, 55]),
   midi.NoteOnEvent(tick=0, channel=0, data=[75, 65]),
   midi.NoteOnEvent(tick=240, channel=0, data=[75, 0]),
   midi.NoteOnEvent(tick=0, channel=0, data=[72, 0]),
   midi.NoteOnEvent(tick=0, channel=0, data=[70, 50]),
   midi.NoteOnEvent(tick=0, channel=0, data=[73, 59]),
   midi.NoteOnEvent(tick=120, channel=0, data=[73, 0]),
   midi.NoteOnEvent(tick=0, channel=0, data=[70, 0]),
   midi.NoteOnEvent(tick=120, channel=0, data=[73, 47]),
   midi.NoteOnEvent(tick=0, channel=0, data=[82, 66]),
   midi.NoteOnEvent(tick=240, channel=0, data=[73, 0]),
   midi.NoteOnEvent(tick=0, channel=0, data=[74, 66]),
   midi.NoteOnEvent(tick=120, channel=0, data=[74, 0]),
   midi.NoteOnEvent(tick=0, channel=0, data=[82, 0]),
   midi.NoteOnEvent(tick=0, channel=0, data=[80, 53]),
   midi.NoteOnEvent(tick=0, channel=0, data=[83, 62]),
   midi.NoteOnEvent(tick=120, channel=0, data=[83, 0]),
   midi.NoteOnEvent(tick=0, channel=0, data=[80, 0]),
   midi.NoteOnEvent(tick=0, channel=0, data=[73, 53]),
   midi.NoteOnEvent(tick=0, channel=0, data=[82, 62]),
   midi.NoteOnEvent(tick=80, channel=0, data=[82, 0]),
   midi.NoteOnEvent(tick=0, channel=0, data=[73, 0]),
   midi.NoteOnEvent(tick=0, channel=0, data=[80, 54]),
   midi.NoteOnEvent(tick=0, channel=0, data=[81, 58]),
   midi.NoteOnEvent(tick=80, channel=0, data=[81, 0]),
   midi.NoteOnEvent(tick=0, channel=0, data=[80, 0]),
   midi.NoteOnEvent(tick=0, channel=0, data=[73, 57]),
   midi.NoteOnEvent(tick=0, channel=0, data=[82, 67]),
   midi.NoteOnEvent(tick=80, channel=0, data=[82, 0]),
   midi.NoteOnEvent(tick=0, channel=0, data=[73, 0]),
   midi.NoteOnEvent(tick=0, channel=0, data=[89, 70]),
   midi.NoteOnEvent(tick=0, channel=0, data=[80, 58]),
   midi.NoteOnEvent(tick=60, channel=0, data=[80, 0]),
   midi.NoteOnEvent(tick=0, channel=0, data=[89, 0]),
   midi.NoteOnEvent(tick=120, channel=0, data=[80, 57]),
   midi.NoteOnEvent(tick=0, channel=0, data=[82, 67]),
   midi.NoteOnEvent(tick=60, channel=0, data=[82, 0]),
   midi.NoteOnEvent(tick=0, channel=0, data=[82, 68]),
   midi.NoteOnEvent(tick=0, channel=0, data=[78, 57]),
   midi.NoteOnEvent(tick=20, channel=0, data=[80, 0]),
   midi.NoteOnEvent(tick=220, channel=0, data=[78, 0]),
   midi.NoteOnEvent(tick=0, channel=0, data=[82, 0]),
   midi.NoteOnEvent(tick=0, channel=0, data=[80, 56]),
   midi.NoteOnEvent(tick=0, channel=0, data=[83, 66]),
   midi.NoteOnEvent(tick=240, channel=0, data=[83, 0]),
   midi.NoteOnEvent(tick=0, channel=0, data=[80, 0]),
   midi.NoteOnEvent(tick=0, channel=0, data=[75, 54]),
   midi.NoteOnEvent(tick=0, channel=0, data=[78, 64]),
   midi.NoteOnEvent(tick=240, channel=0, data=[78, 0]),
   midi.NoteOnEvent(tick=0, channel=0, data=[75, 0]),
   midi.NoteOnEvent(tick=0, channel=0, data=[78, 54]),
   midi.NoteOnEvent(tick=0, channel=0, data=[82, 64]),
   midi.NoteOnEvent(tick=80, channel=0, data=[82, 0]),
   midi.NoteOnEvent(tick=0, channel=0, data=[78, 0]),
   midi.NoteOnEvent(tick=0, channel=0, data=[77, 52]),
   midi.NoteOnEvent(tick=0, channel=0, data=[80, 61]),
   midi.NoteOnEvent(tick=80, channel=0, data=[80, 0]),
   midi.NoteOnEvent(tick=0, channel=0, data=[77, 0]),
   midi.NoteOnEvent(tick=0, channel=0, data=[78, 52]),
   midi.NoteOnEvent(tick=0, channel=0, data=[82, 61]),
   midi.NoteOnEvent(tick=80, channel=0, data=[82, 0]),
   midi.NoteOnEvent(tick=0, channel=0, data=[78, 0]),
   midi.NoteOnEvent(tick=0, channel=0, data=[77, 55]),
   midi.NoteOnEvent(tick=0, channel=0, data=[80, 65]),
   midi.NoteOnEvent(tick=80, channel=0, data=[80, 0]),
   midi.NoteOnEvent(tick=0, channel=0, data=[77, 0]),
   midi.NoteOnEvent(tick=0, channel=0, data=[75, 52]),
   midi.NoteOnEvent(tick=0, channel=0, data=[78, 61]),
   midi.NoteOnEvent(tick=80, channel=0, data=[78, 0]),
   midi.NoteOnEvent(tick=0, channel=0, data=[75, 0]),
   midi.NoteOnEvent(tick=0, channel=0, data=[77, 52]),
   midi.NoteOnEvent(tick=0, channel=0, data=[80, 61]),
   midi.NoteOnEvent(tick=80, channel=0, data=[80, 0]),
   midi.NoteOnEvent(tick=0, channel=0, data=[77, 0]),
   midi.NoteOnEvent(tick=0, channel=0, data=[78, 55]),
   midi.NoteOnEvent(tick=0, channel=0, data=[82, 65]),
   midi.NoteOnEvent(tick=60, channel=0, data=[82, 0]),
   midi.NoteOnEvent(tick=0, channel=0, data=[78, 0]),
   midi.NoteOnEvent(tick=120, channel=0, data=[77, 60]),
   midi.NoteOnEvent(tick=0, channel=0, data=[74, 51]),
   midi.NoteOnEvent(tick=60, channel=0, data=[74, 0]),
   midi.NoteOnEvent(tick=0, channel=0, data=[77, 0]),
   midi.NoteOnEvent(tick=0, channel=0, data=[77, 56]),
   midi.NoteOnEvent(tick=0, channel=0, data=[80, 66]),
   midi.NoteOnEvent(tick=240, channel=0, data=[80, 0]),
   midi.NoteOnEvent(tick=0, channel=0, data=[77, 0]),
   midi.NoteOnEvent(tick=0, channel=0, data=[75, 51]),
   midi.NoteOnEvent(tick=0, channel=0, data=[78, 60]),
   midi.NoteOnEvent(tick=120, channel=0, data=[78, 0]),
   midi.NoteOnEvent(tick=0, channel=0, data=[75, 0]),
   midi.NoteOnEvent(tick=60, channel=0, data=[87, 63]),
   midi.NoteOnEvent(tick=0, channel=0, data=[78, 53]),
   midi.NoteOnEvent(tick=60, channel=0, data=[78, 0]),
   midi.NoteOnEvent(tick=0, channel=0, data=[87, 0]),
   midi.NoteOnEvent(tick=0, channel=0, data=[78, 57]),
   midi.NoteOnEvent(tick=0, channel=0, data=[87, 68]),
   midi.NoteOnEvent(tick=80, channel=0, data=[87, 0]),
   midi.NoteOnEvent(tick=0, channel=0, data=[78, 0]),
   midi.NoteOnEvent(tick=0, channel=0, data=[77, 57]),
   midi.NoteOnEvent(tick=0, channel=0, data=[85, 67]),
   midi.NoteOnEvent(tick=80, channel=0, data=[85, 0]),
   midi.NoteOnEvent(tick=0, channel=0, data=[77, 0]),
   midi.NoteOnEvent(tick=0, channel=0, data=[75, 55]),
   midi.NoteOnEvent(tick=0, channel=0, data=[83, 65]),
   midi.NoteOnEvent(tick=80, channel=0, data=[83, 0]),
   midi.NoteOnEvent(tick=0, channel=0, data=[75, 0]),
   midi.NoteOnEvent(tick=0, channel=0, data=[74, 50]),
   midi.NoteOnEvent(tick=0, channel=0, data=[82, 59]),
   midi.NoteOnEvent(tick=80, channel=0, data=[82, 0]),
   midi.NoteOnEvent(tick=0, channel=0, data=[74, 0]),
   midi.NoteOnEvent(tick=0, channel=0, data=[70, 50]),
   midi.NoteOnEvent(tick=0, channel=0, data=[82, 59]),
   midi.NoteOnEvent(tick=40, channel=0, data=[82, 0]),
   midi.NoteOnEvent(tick=0, channel=0, data=[70, 0]),
   midi.NoteOnEvent(tick=40, channel=0, data=[71, 50]),
   midi.NoteOnEvent(tick=0, channel=0, data=[82, 59]),
   midi.NoteOnEvent(tick=40, channel=0, data=[82, 0]),
   midi.NoteOnEvent(tick=0, channel=0, data=[71, 0]),
   midi.NoteOnEvent(tick=40, channel=0, data=[72, 51]),
   midi.NoteOnEvent(tick=0, channel=0, data=[82, 60]),
   midi.NoteOnEvent(tick=40, channel=0, data=[82, 0]),
   midi.NoteOnEvent(tick=0, channel=0, data=[72, 0]),
   midi.NoteOnEvent(tick=40, channel=0, data=[73, 52]),
   midi.NoteOnEvent(tick=0, channel=0, data=[82, 61]),
   midi.NoteOnEvent(tick=40, channel=0, data=[82, 0]),
   midi.NoteOnEvent(tick=0, channel=0, data=[73, 0]),
   midi.NoteOnEvent(tick=40, channel=0, data=[74, 53]),
   midi.NoteOnEvent(tick=0, channel=0, data=[82, 62]),
   midi.NoteOnEvent(tick=40, channel=0, data=[82, 0]),
   midi.NoteOnEvent(tick=0, channel=0, data=[74, 0]),
   midi.NoteOnEvent(tick=40, channel=0, data=[82, 64]),
   midi.NoteOnEvent(tick=0, channel=0, data=[75, 54]),
   midi.NoteOnEvent(tick=40, channel=0, data=[75, 0]),
   midi.NoteOnEvent(tick=0, channel=0, data=[82, 0]),
   midi.NoteOnEvent(tick=40, channel=0, data=[82, 65]),
   midi.NoteOnEvent(tick=0, channel=0, data=[76, 55]),
   midi.NoteOnEvent(tick=40, channel=0, data=[76, 0]),
   midi.NoteOnEvent(tick=0, channel=0, data=[82, 0]),
   midi.NoteOnEvent(tick=40, channel=0, data=[82, 66]),
   midi.NoteOnEvent(tick=0, channel=0, data=[77, 56]),
   midi.NoteOnEvent(tick=40, channel=0, data=[77, 0]),
   midi.NoteOnEvent(tick=0, channel=0, data=[82, 0]),
   midi.NoteOnEvent(tick=40, channel=0, data=[78, 45]),
   midi.NoteOnEvent(tick=0, channel=0, data=[82, 54]),
   midi.NoteOnEvent(tick=96, channel=0, data=[82, 0]),
   midi.NoteOnEvent(tick=0, channel=0, data=[78, 0]),
   midi.NoteOnEvent(tick=0, channel=0, data=[80, 47]),
   midi.NoteOnEvent(tick=0, channel=0, data=[83, 57]),
   midi.NoteOnEvent(tick=96, channel=0, data=[83, 0]),
   midi.NoteOnEvent(tick=0, channel=0, data=[80, 0]),
   midi.NoteOnEvent(tick=0, channel=0, data=[82, 60]),
   midi.NoteOnEvent(tick=0, channel=0, data=[78, 50]),
   midi.NoteOnEvent(tick=96, channel=0, data=[78, 0]),
   midi.NoteOnEvent(tick=0, channel=0, data=[82, 0]),
   midi.NoteOnEvent(tick=0, channel=0, data=[77, 53]),
   midi.NoteOnEvent(tick=0, channel=0, data=[80, 63]),
   midi.NoteOnEvent(tick=96, channel=0, data=[80, 0]),
   midi.NoteOnEvent(tick=0, channel=0, data=[77, 0]),
   midi.NoteOnEvent(tick=0, channel=0, data=[78, 54]),
   midi.NoteOnEvent(tick=0, channel=0, data=[82, 65]),
   midi.NoteOnEvent(tick=96, channel=0, data=[82, 0]),
   midi.NoteOnEvent(tick=0, channel=0, data=[78, 0]),
   midi.NoteOnEvent(tick=0, channel=0, data=[80, 58]),
   midi.NoteOnEvent(tick=0, channel=0, data=[83, 69]),
   midi.NoteOnEvent(tick=60, channel=0, data=[83, 0]),
   midi.NoteOnEvent(tick=0, channel=0, data=[80, 0]),
   midi.NoteOnEvent(tick=120, channel=0, data=[78, 66]),
   midi.NoteOnEvent(tick=0, channel=0, data=[75, 56]),
   midi.NoteOnEvent(tick=50, channel=0, data=[75, 0]),
   midi.NoteOnEvent(tick=0, channel=0, data=[78, 0]),
   midi.NoteOnEvent(tick=10, channel=0, data=[75, 53]),
   midi.NoteOnEvent(tick=0, channel=0, data=[78, 63]),
   midi.NoteOnEvent(tick=60, channel=0, data=[78, 0]),
   midi.NoteOnEvent(tick=0, channel=0, data=[75, 0]),
   midi.NoteOnEvent(tick=0, channel=0, data=[78, 59]),
   midi.NoteOnEvent(tick=0, channel=0, data=[82, 70]),
   midi.NoteOnEvent(tick=60, channel=0, data=[82, 0]),
   midi.NoteOnEvent(tick=0, channel=0, data=[78, 0]),
   midi.NoteOnEvent(tick=60, channel=0, data=[80, 64]),
   midi.NoteOnEvent(tick=0, channel=0, data=[77, 54]),
   midi.NoteOnEvent(tick=60, channel=0, data=[77, 0]),
   midi.NoteOnEvent(tick=0, channel=0, data=[80, 0]),
   midi.NoteOnEvent(tick=0, channel=0, data=[77, 62]),
   midi.NoteOnEvent(tick=0, channel=0, data=[80, 62]),
   midi.NoteOnEvent(tick=20, channel=0, data=[80, 0]),
   midi.NoteOnEvent(tick=0, channel=0, data=[77, 0]),
   midi.NoteOnEvent(tick=0, channel=0, data=[82, 55]),
   midi.NoteOnEvent(tick=0, channel=0, data=[78, 55]),
   midi.NoteOnEvent(tick=20, channel=0, data=[78, 0]),
   midi.NoteOnEvent(tick=0, channel=0, data=[82, 0]),
   midi.NoteOnEvent(tick=0, channel=0, data=[80, 61]),
   midi.NoteOnEvent(tick=0, channel=0, data=[77, 61]),
   midi.NoteOnEvent(tick=40, channel=0, data=[77, 0]),
   midi.NoteOnEvent(tick=0, channel=0, data=[80, 0]),
   midi.NoteOnEvent(tick=0, channel=0, data=[75, 53]),
   midi.NoteOnEvent(tick=0, channel=0, data=[78, 63]),
   midi.NoteOnEvent(tick=80, channel=0, data=[78, 0]),
   midi.NoteOnEvent(tick=0, channel=0, data=[75, 0]),
   midi.NoteOnEvent(tick=40, channel=0, data=[77, 54]),
   midi.NoteOnEvent(tick=0, channel=0, data=[80, 64]),
   midi.NoteOnEvent(tick=30, channel=0, data=[80, 0]),
   midi.NoteOnEvent(tick=0, channel=0, data=[77, 0]),
   midi.NoteOnEvent(tick=10, channel=0, data=[77, 55]),
   midi.NoteOnEvent(tick=0, channel=0, data=[80, 65]),
   midi.NoteOnEvent(tick=80, channel=0, data=[80, 0]),
   midi.NoteOnEvent(tick=0, channel=0, data=[77, 0]),
   midi.NoteOnEvent(tick=0, channel=0, data=[78, 57]),
   midi.NoteOnEvent(tick=0, channel=0, data=[82, 67]),
   midi.NoteOnEvent(tick=40, channel=0, data=[82, 0]),
   midi.NoteOnEvent(tick=0, channel=0, data=[78, 0]),
   midi.NoteOnEvent(tick=80, channel=0, data=[74, 55]),
   midi.NoteOnEvent(tick=0, channel=0, data=[77, 65]),
   midi.NoteOnEvent(tick=30, channel=0, data=[77, 0]),
   midi.NoteOnEvent(tick=0, channel=0, data=[74, 0]),
   midi.NoteOnEvent(tick=10, channel=0, data=[74, 59]),
   midi.NoteOnEvent(tick=0, channel=0, data=[77, 59]),
   midi.NoteOnEvent(tick=60, channel=0, data=[77, 0]),
   midi.NoteOnEvent(tick=0, channel=0, data=[74, 0]),
   midi.NoteOnEvent(tick=0, channel=0, data=[77, 53]),
   midi.NoteOnEvent(tick=0, channel=0, data=[80, 62]),
   midi.NoteOnEvent(tick=120, channel=0, data=[80, 0]),
   midi.NoteOnEvent(tick=0, channel=0, data=[77, 0]),
   midi.NoteOnEvent(tick=300, channel=0, data=[75, 61]),
   midi.NoteOnEvent(tick=0, channel=0, data=[78, 73]),
   midi.NoteOnEvent(tick=480, channel=0, data=[78, 0]),
   midi.NoteOnEvent(tick=0, channel=0, data=[75, 0]),
   midi.NoteOnEvent(tick=0, channel=0, data=[74, 61]),
   midi.NoteOnEvent(tick=0, channel=0, data=[78, 73]),
   midi.NoteOnEvent(tick=120, channel=0, data=[78, 0]),
   midi.NoteOnEvent(tick=0, channel=0, data=[74, 0]),
   midi.NoteOnEvent(tick=120, channel=0, data=[78, 76]),
   midi.NoteOnEvent(tick=0, channel=0, data=[73, 64]),
   midi.NoteOnEvent(tick=120, channel=0, data=[73, 0]),
   midi.NoteOnEvent(tick=0, channel=0, data=[78, 0]),
   midi.NoteOnEvent(tick=120, channel=0, data=[72, 64]),
   midi.NoteOnEvent(tick=0, channel=0, data=[78, 78]),
   midi.NoteOnEvent(tick=360, channel=0, data=[78, 0]),
   midi.NoteOnEvent(tick=0, channel=0, data=[72, 0]),
   midi.NoteOnEvent(tick=0, channel=0, data=[69, 62]),
   midi.NoteOnEvent(tick=0, channel=0, data=[81, 74]),
   midi.NoteOnEvent(tick=120, channel=0, data=[81, 0]),
   midi.NoteOnEvent(tick=0, channel=0, data=[69, 0]),
   midi.NoteOnEvent(tick=0, channel=0, data=[68, 64]),
   midi.NoteOnEvent(tick=0, channel=0, data=[80, 76]),
   midi.NoteOnEvent(tick=480, channel=0, data=[80, 0]),
   midi.NoteOnEvent(tick=0, channel=0, data=[68, 0]),
   midi.NoteOnEvent(tick=0, channel=0, data=[66, 60]),
   midi.NoteOnEvent(tick=0, channel=0, data=[78, 72]),
   midi.NoteOnEvent(tick=240, channel=0, data=[78, 0]),
   midi.NoteOnEvent(tick=0, channel=0, data=[66, 0]),
   midi.NoteOnEvent(tick=0, channel=0, data=[61, 58]),
   midi.NoteOnEvent(tick=0, channel=0, data=[73, 70]),
   midi.NoteOnEvent(tick=240, channel=0, data=[73, 0]),
   midi.NoteOnEvent(tick=0, channel=0, data=[61, 0]),
   midi.NoteOnEvent(tick=0, channel=0, data=[60, 56]),
   midi.NoteOnEvent(tick=0, channel=0, data=[72, 66]),
   midi.NoteOnEvent(tick=480, channel=0, data=[72, 0]),
   midi.NoteOnEvent(tick=0, channel=0, data=[60, 0]),
   midi.NoteOnEvent(tick=0, channel=0, data=[68, 52]),
   midi.NoteOnEvent(tick=240, channel=0, data=[68, 0]),
   midi.NoteOnEvent(tick=0, channel=0, data=[69, 57]),
   midi.NoteOnEvent(tick=80, channel=0, data=[69, 0]),
   midi.NoteOnEvent(tick=0, channel=0, data=[71, 50]),
   midi.NoteOnEvent(tick=80, channel=0, data=[71, 0]),
   midi.NoteOnEvent(tick=0, channel=0, data=[69, 52]),
   midi.NoteOnEvent(tick=80, channel=0, data=[69, 0]),
   midi.NoteOnEvent(tick=0, channel=0, data=[68, 51]),
   midi.NoteOnEvent(tick=120, channel=0, data=[68, 0]),
   midi.NoteOnEvent(tick=0, channel=0, data=[69, 51]),
   midi.NoteOnEvent(tick=120, channel=0, data=[69, 0]),
   midi.NoteOnEvent(tick=0, channel=0, data=[76, 57]),
   midi.NoteOnEvent(tick=180, channel=0, data=[76, 0]),
   midi.NoteOnEvent(tick=0, channel=0, data=[75, 53]),
   midi.NoteOnEvent(tick=60, channel=0, data=[75, 0]),
   midi.NoteOnEvent(tick=0, channel=0, data=[75, 57]),
   midi.NoteOnEvent(tick=240, channel=0, data=[75, 0]),
   midi.NoteOnEvent(tick=120, channel=0, data=[69, 61]),
   midi.NoteOnEvent(tick=0, channel=0, data=[81, 73]),
   midi.NoteOnEvent(tick=120, channel=0, data=[81, 0]),
   midi.NoteOnEvent(tick=0, channel=0, data=[69, 0]),
   midi.NoteOnEvent(tick=0, channel=0, data=[68, 58]),
   midi.NoteOnEvent(tick=0, channel=0, data=[80, 70]),
   midi.NoteOnEvent(tick=480, channel=0, data=[80, 0]),
   midi.NoteOnEvent(tick=0, channel=0, data=[68, 0]),
   midi.NoteOnEvent(tick=0, channel=0, data=[68, 55]),
   midi.NoteOnEvent(tick=0, channel=0, data=[80, 65]),
   midi.NoteOnEvent(tick=60, channel=0, data=[80, 0]),
   midi.NoteOnEvent(tick=0, channel=0, data=[68, 0]),
   midi.NoteOnEvent(tick=0, channel=0, data=[66, 54]),
   midi.NoteOnEvent(tick=0, channel=0, data=[78, 64]),
   midi.NoteOnEvent(tick=60, channel=0, data=[78, 0]),
   midi.NoteOnEvent(tick=0, channel=0, data=[66, 0]),
   midi.NoteOnEvent(tick=0, channel=0, data=[68, 53]),
   midi.NoteOnEvent(tick=0, channel=0, data=[80, 63]),
   midi.NoteOnEvent(tick=60, channel=0, data=[80, 0]),
   midi.NoteOnEvent(tick=0, channel=0, data=[68, 0]),
   midi.NoteOnEvent(tick=0, channel=0, data=[66, 53]),
   midi.NoteOnEvent(tick=0, channel=0, data=[78, 62]),
   midi.NoteOnEvent(tick=60, channel=0, data=[78, 0]),
   midi.NoteOnEvent(tick=0, channel=0, data=[66, 0]),
   midi.NoteOnEvent(tick=0, channel=0, data=[64, 53]),
   midi.NoteOnEvent(tick=0, channel=0, data=[76, 62]),
   midi.NoteOnEvent(tick=60, channel=0, data=[76, 0]),
   midi.NoteOnEvent(tick=0, channel=0, data=[64, 0]),
   midi.NoteOnEvent(tick=0, channel=0, data=[63, 52]),
   midi.NoteOnEvent(tick=0, channel=0, data=[75, 61]),
   midi.NoteOnEvent(tick=60, channel=0, data=[75, 0]),
   midi.NoteOnEvent(tick=0, channel=0, data=[63, 0]),
   midi.NoteOnEvent(tick=0, channel=0, data=[64, 51]),
   midi.NoteOnEvent(tick=0, channel=0, data=[76, 60]),
   midi.NoteOnEvent(tick=60, channel=0, data=[76, 0]),
   midi.NoteOnEvent(tick=0, channel=0, data=[64, 0]),
   midi.NoteOnEvent(tick=0, channel=0, data=[63, 50]),
   midi.NoteOnEvent(tick=0, channel=0, data=[75, 59]),
   midi.NoteOnEvent(tick=60, channel=0, data=[75, 0]),
   midi.NoteOnEvent(tick=0, channel=0, data=[63, 0]),
   midi.NoteOnEvent(tick=0, channel=0, data=[60, 56]),
   midi.NoteOnEvent(tick=0, channel=0, data=[72, 66]),
   midi.NoteOnEvent(tick=120, channel=0, data=[72, 0]),
   midi.NoteOnEvent(tick=0, channel=0, data=[60, 0]),
   midi.NoteOnEvent(tick=480, channel=0, data=[68, 46]),
   midi.NoteOnEvent(tick=120, channel=0, data=[68, 0]),
   midi.NoteOnEvent(tick=0, channel=0, data=[69, 51]),
   midi.NoteOnEvent(tick=80, channel=0, data=[69, 0]),
   midi.NoteOnEvent(tick=0, channel=0, data=[71, 45]),
   midi.NoteOnEvent(tick=80, channel=0, data=[71, 0]),
   midi.NoteOnEvent(tick=0, channel=0, data=[69, 46]),
   midi.NoteOnEvent(tick=80, channel=0, data=[69, 0]),
   midi.NoteOnEvent(tick=0, channel=0, data=[68, 45]),
   midi.NoteOnEvent(tick=120, channel=0, data=[68, 0]),
   midi.NoteOnEvent(tick=0, channel=0, data=[69, 45]),
   midi.NoteOnEvent(tick=60, channel=0, data=[69, 0]),
   midi.NoteOnEvent(tick=0, channel=0, data=[69, 46]),
   midi.NoteOnEvent(tick=60, channel=0, data=[69, 0]),
   midi.NoteOnEvent(tick=0, channel=0, data=[76, 52]),
   midi.NoteOnEvent(tick=120, channel=0, data=[76, 0]),
   midi.NoteOnEvent(tick=60, channel=0, data=[75, 49]),
   midi.NoteOnEvent(tick=60, channel=0, data=[75, 0]),
   midi.NoteOnEvent(tick=0, channel=0, data=[75, 54]),
   midi.NoteOnEvent(tick=240, channel=0, data=[75, 0]),
   midi.NoteOnEvent(tick=480, channel=0, data=[75, 51]),
   midi.NoteOnEvent(tick=1440, channel=0, data=[75, 0]),
   midi.NoteOnEvent(tick=0, channel=0, data=[74, 51]),
   midi.NoteOnEvent(tick=720, channel=0, data=[74, 0]),
   midi.NoteOnEvent(tick=0, channel=0, data=[73, 54]),
   midi.NoteOnEvent(tick=480, channel=0, data=[73, 0]),
   midi.NoteOnEvent(tick=240, channel=0, data=[73, 51]),
   midi.NoteOnEvent(tick=960, channel=0, data=[73, 0]),
   midi.NoteOnEvent(tick=0, channel=0, data=[72, 49]),
   midi.NoteOnEvent(tick=240, channel=0, data=[72, 0]),
   midi.NoteOnEvent(tick=0, channel=0, data=[70, 48]),
   midi.NoteOnEvent(tick=360, channel=0, data=[70, 0]),
   midi.NoteOnEvent(tick=0, channel=0, data=[68, 42]),
   midi.NoteOnEvent(tick=120, channel=0, data=[68, 0]),
   midi.NoteOnEvent(tick=0, channel=0, data=[70, 44]),
   midi.NoteOnEvent(tick=120, channel=0, data=[70, 0]),
   midi.NoteOnEvent(tick=0, channel=0, data=[72, 45]),
   midi.NoteOnEvent(tick=120, channel=0, data=[72, 0]),
   midi.NoteOnEvent(tick=0, channel=0, data=[73, 47]),
   midi.NoteOnEvent(tick=120, channel=0, data=[73, 0]),
   midi.NoteOnEvent(tick=0, channel=0, data=[75, 48]),
   midi.NoteOnEvent(tick=120, channel=0, data=[75, 0]),
   midi.NoteOnEvent(tick=0, channel=0, data=[77, 49]),
   midi.ControlChangeEvent(tick=0, channel=0, data=[91, 127]),
   midi.NoteOnEvent(tick=720, channel=0, data=[77, 0]),
   midi.NoteOnEvent(tick=0, channel=0, data=[75, 49]),
   midi.NoteOnEvent(tick=240, channel=0, data=[75, 0]),
   midi.NoteOnEvent(tick=0, channel=0, data=[73, 49]),
   midi.NoteOnEvent(tick=360, channel=0, data=[73, 0]),
   midi.NoteOnEvent(tick=0, channel=0, data=[65, 45]),
   midi.NoteOnEvent(tick=120, channel=0, data=[65, 0]),
   midi.NoteOnEvent(tick=0, channel=0, data=[68, 49]),
   midi.NoteOnEvent(tick=960, channel=0, data=[68, 0]),
   midi.NoteOnEvent(tick=0, channel=0, data=[73, 52]),
   midi.NoteOnEvent(tick=240, channel=0, data=[73, 0]),
   midi.NoteOnEvent(tick=0, channel=0, data=[77, 54]),
   midi.NoteOnEvent(tick=240, channel=0, data=[77, 0]),
   midi.NoteOnEvent(tick=0, channel=0, data=[82, 61]),
   midi.NoteOnEvent(tick=840, channel=0, data=[82, 0]),
   midi.NoteOnEvent(tick=0, channel=0, data=[80, 45]),
   midi.NoteOnEvent(tick=120, channel=0, data=[80, 0]),
   midi.NoteOnEvent(tick=0, channel=0, data=[76, 50]),
   midi.NoteOnEvent(tick=120, channel=0, data=[76, 0]),
   midi.NoteOnEvent(tick=0, channel=0, data=[77, 45]),
   midi.NoteOnEvent(tick=120, channel=0, data=[77, 0]),
   midi.NoteOnEvent(tick=0, channel=0, data=[72, 49]),
   midi.NoteOnEvent(tick=120, channel=0, data=[72, 0]),
   midi.NoteOnEvent(tick=0, channel=0, data=[73, 45]),
   midi.NoteOnEvent(tick=120, channel=0, data=[73, 0]),
   midi.NoteOnEvent(tick=0, channel=0, data=[69, 56]),
   midi.ControlChangeEvent(tick=0, channel=0, data=[91, 127]),
   midi.NoteOnEvent(tick=1440, channel=0, data=[69, 0]),
   midi.NoteOnEvent(tick=0, channel=0, data=[70, 52]),
   midi.ControlChangeEvent(tick=0, channel=0, data=[91, 127]),
   midi.NoteOnEvent(tick=720, channel=0, data=[70, 0]),
   midi.NoteOnEvent(tick=120, channel=0, data=[84, 50]),
   midi.NoteOnEvent(tick=120, channel=0, data=[84, 0]),
   midi.NoteOnEvent(tick=0, channel=0, data=[82, 52]),
   midi.NoteOnEvent(tick=120, channel=0, data=[82, 0]),
   midi.NoteOnEvent(tick=0, channel=0, data=[77, 46]),
   midi.NoteOnEvent(tick=120, channel=0, data=[77, 0]),
   midi.NoteOnEvent(tick=0, channel=0, data=[80, 50]),
   midi.NoteOnEvent(tick=120, channel=0, data=[80, 0]),
   midi.NoteOnEvent(tick=0, channel=0, data=[78, 45]),
   midi.NoteOnEvent(tick=120, channel=0, data=[78, 0]),
   midi.NoteOnEvent(tick=0, channel=0, data=[77, 51]),
   midi.NoteOnEvent(tick=480, channel=0, data=[77, 0]),
   midi.NoteOnEvent(tick=0, channel=0, data=[75, 52]),
   midi.NoteOnEvent(tick=360, channel=0, data=[74, 57]),
   midi.NoteOnEvent(tick=60, channel=0, data=[75, 0]),
   midi.NoteOnEvent(tick=60, channel=0, data=[74, 0]),
   midi.NoteOnEvent(tick=0, channel=0, data=[75, 57]),
   midi.NoteOnEvent(tick=120, channel=0, data=[75, 0]),
   midi.NoteOnEvent(tick=0, channel=0, data=[76, 57]),
   midi.NoteOnEvent(tick=120, channel=0, data=[76, 0]),
   midi.NoteOnEvent(tick=0, channel=0, data=[77, 62]),
   midi.NoteOnEvent(tick=180, channel=0, data=[77, 0]),
   midi.NoteOnEvent(tick=0, channel=0, data=[78, 51]),
   midi.NoteOnEvent(tick=30, channel=0, data=[78, 0]),
   midi.NoteOnEvent(tick=0, channel=0, data=[78, 51]),
   midi.NoteOnEvent(tick=30, channel=0, data=[78, 0]),
   midi.NoteOnEvent(tick=0, channel=0, data=[90, 71]),
   midi.NoteOnEvent(tick=320, channel=0, data=[90, 0]),
   midi.NoteOnEvent(tick=0, channel=0, data=[87, 65]),
   midi.NoteOnEvent(tick=80, channel=0, data=[87, 0]),
   midi.NoteOnEvent(tick=0, channel=0, data=[85, 62]),
   midi.NoteOnEvent(tick=80, channel=0, data=[85, 0]),
   midi.NoteOnEvent(tick=0, channel=0, data=[81, 60]),
   midi.NoteOnEvent(tick=80, channel=0, data=[81, 0]),
   midi.NoteOnEvent(tick=0, channel=0, data=[78, 58]),
   midi.NoteOnEvent(tick=80, channel=0, data=[78, 0]),
   midi.NoteOnEvent(tick=0, channel=0, data=[75, 55]),
   midi.NoteOnEvent(tick=80, channel=0, data=[75, 0]),
   midi.NoteOnEvent(tick=0, channel=0, data=[72, 47]),
   midi.NoteOnEvent(tick=120, channel=0, data=[72, 0]),
   midi.NoteOnEvent(tick=60, channel=0, data=[68, 49]),
   midi.NoteOnEvent(tick=60, channel=0, data=[68, 0]),
   midi.NoteOnEvent(tick=0, channel=0, data=[75, 50]),
   midi.NoteOnEvent(tick=40, channel=0, data=[75, 0]),
   midi.NoteOnEvent(tick=0, channel=0, data=[84, 50]),
   midi.NoteOnEvent(tick=40, channel=0, data=[84, 0]),
   midi.NoteOnEvent(tick=0, channel=0, data=[69, 48]),
   midi.NoteOnEvent(tick=40, channel=0, data=[69, 0]),
   midi.NoteOnEvent(tick=0, channel=0, data=[76, 52]),
   midi.NoteOnEvent(tick=40, channel=0, data=[76, 0]),
   midi.NoteOnEvent(tick=0, channel=0, data=[85, 53]),
   midi.NoteOnEvent(tick=40, channel=0, data=[85, 0]),
   midi.NoteOnEvent(tick=0, channel=0, data=[70, 50]),
   midi.NoteOnEvent(tick=40, channel=0, data=[70, 0]),
   midi.NoteOnEvent(tick=0, channel=0, data=[77, 54]),
   midi.NoteOnEvent(tick=40, channel=0, data=[77, 0]),
   midi.NoteOnEvent(tick=0, channel=0, data=[86, 55]),
   midi.NoteOnEvent(tick=40, channel=0, data=[86, 0]),
   midi.NoteOnEvent(tick=0, channel=0, data=[71, 53]),
   midi.NoteOnEvent(tick=40, channel=0, data=[71, 0]),
   midi.NoteOnEvent(tick=0, channel=0, data=[78, 56]),
   midi.NoteOnEvent(tick=40, channel=0, data=[78, 0]),
   midi.NoteOnEvent(tick=0, channel=0, data=[87, 57]),
   midi.NoteOnEvent(tick=40, channel=0, data=[87, 0]),
   midi.NoteOnEvent(tick=0, channel=0, data=[72, 54]),
   midi.NoteOnEvent(tick=40, channel=0, data=[72, 0]),
   midi.NoteOnEvent(tick=0, channel=0, data=[88, 64]),
   midi.NoteOnEvent(tick=0, channel=0, data=[79, 54]),
   midi.NoteOnEvent(tick=360, channel=0, data=[79, 0]),
   midi.NoteOnEvent(tick=0, channel=0, data=[88, 0]),
   midi.NoteOnEvent(tick=0, channel=0, data=[89, 58]),
   midi.NoteOnEvent(tick=0, channel=0, data=[80, 49]),
   midi.NoteOnEvent(tick=120, channel=0, data=[80, 0]),
   midi.NoteOnEvent(tick=0, channel=0, data=[89, 0]),
   midi.NoteOnEvent(tick=0, channel=0, data=[89, 57]),
   midi.NoteOnEvent(tick=0, channel=0, data=[80, 48]),
   midi.NoteOnEvent(tick=80, channel=0, data=[80, 0]),
   midi.NoteOnEvent(tick=0, channel=0, data=[89, 0]),
   midi.NoteOnEvent(tick=0, channel=0, data=[90, 61]),
   midi.NoteOnEvent(tick=0, channel=0, data=[82, 51]),
   midi.NoteOnEvent(tick=40, channel=0, data=[82, 0]),
   midi.NoteOnEvent(tick=0, channel=0, data=[90, 0]),
   midi.NoteOnEvent(tick=80, channel=0, data=[80, 45]),
   midi.NoteOnEvent(tick=0, channel=0, data=[89, 54]),
   midi.NoteOnEvent(tick=40, channel=0, data=[89, 0]),
   midi.NoteOnEvent(tick=0, channel=0, data=[80, 0]),
   midi.NoteOnEvent(tick=0, channel=0, data=[89, 58]),
   midi.NoteOnEvent(tick=0, channel=0, data=[80, 49]),
   midi.NoteOnEvent(tick=60, channel=0, data=[80, 0]),
   midi.NoteOnEvent(tick=0, channel=0, data=[89, 0]),
   midi.NoteOnEvent(tick=0, channel=0, data=[85, 54]),
   midi.NoteOnEvent(tick=0, channel=0, data=[77, 45]),
   midi.NoteOnEvent(tick=660, channel=0, data=[77, 0]),
   midi.NoteOnEvent(tick=0, channel=0, data=[85, 0]),
   midi.NoteOnEvent(tick=0, channel=0, data=[85, 60]),
   midi.NoteOnEvent(tick=0, channel=0, data=[76, 51]),
   midi.NoteOnEvent(tick=240, channel=0, data=[76, 0]),
   midi.NoteOnEvent(tick=0, channel=0, data=[85, 0]),
   midi.NoteOnEvent(tick=0, channel=0, data=[86, 57]),
   midi.NoteOnEvent(tick=0, channel=0, data=[78, 48]),
   midi.NoteOnEvent(tick=240, channel=0, data=[78, 0]),
   midi.NoteOnEvent(tick=0, channel=0, data=[86, 0]),
   midi.NoteOnEvent(tick=0, channel=0, data=[81, 54]),
   midi.NoteOnEvent(tick=0, channel=0, data=[73, 45]),
   midi.NoteOnEvent(tick=240, channel=0, data=[73, 0]),
   midi.NoteOnEvent(tick=0, channel=0, data=[81, 0]),
   midi.NoteOnEvent(tick=0, channel=0, data=[85, 61]),
   midi.NoteOnEvent(tick=0, channel=0, data=[76, 61]),
   midi.NoteOnEvent(tick=120, channel=0, data=[76, 0]),
   midi.NoteOnEvent(tick=0, channel=0, data=[85, 0]),
   midi.NoteOnEvent(tick=0, channel=0, data=[74, 43]),
   midi.NoteOnEvent(tick=0, channel=0, data=[83, 51]),
   midi.NoteOnEvent(tick=30, channel=0, data=[83, 0]),
   midi.NoteOnEvent(tick=0, channel=0, data=[74, 0]),
   midi.NoteOnEvent(tick=0, channel=0, data=[76, 51]),
   midi.NoteOnEvent(tick=0, channel=0, data=[85, 51]),
   midi.NoteOnEvent(tick=30, channel=0, data=[85, 0]),
   midi.NoteOnEvent(tick=0, channel=0, data=[76, 0]),
   midi.NoteOnEvent(tick=0, channel=0, data=[74, 45]),
   midi.NoteOnEvent(tick=0, channel=0, data=[83, 54]),
   midi.NoteOnEvent(tick=60, channel=0, data=[83, 0]),
   midi.NoteOnEvent(tick=0, channel=0, data=[74, 0]),
   midi.NoteOnEvent(tick=0, channel=0, data=[82, 54]),
   midi.NoteOnEvent(tick=0, channel=0, data=[73, 45]),
   midi.NoteOnEvent(tick=120, channel=0, data=[73, 0]),
   midi.NoteOnEvent(tick=0, channel=0, data=[82, 0]),
   midi.NoteOnEvent(tick=0, channel=0, data=[74, 48]),
   midi.NoteOnEvent(tick=0, channel=0, data=[83, 57]),
   midi.NoteOnEvent(tick=120, channel=0, data=[83, 0]),
   midi.NoteOnEvent(tick=0, channel=0, data=[74, 0]),
   midi.NoteOnEvent(tick=0, channel=0, data=[85, 60]),
   midi.NoteOnEvent(tick=0, channel=0, data=[76, 51]),
   midi.NoteOnEvent(tick=60, channel=0, data=[76, 0]),
   midi.NoteOnEvent(tick=0, channel=0, data=[85, 0]),
   midi.NoteOnEvent(tick=120, channel=0, data=[71, 45]),
   midi.NoteOnEvent(tick=0, channel=0, data=[80, 54]),
   midi.NoteOnEvent(tick=60, channel=0, data=[80, 0]),
   midi.NoteOnEvent(tick=0, channel=0, data=[71, 0]),
   midi.NoteOnEvent(tick=0, channel=0, data=[74, 54]),
   midi.NoteOnEvent(tick=0, channel=0, data=[83, 64]),
   midi.NoteOnEvent(tick=120, channel=0, data=[83, 0]),
   midi.NoteOnEvent(tick=0, channel=0, data=[74, 0]),
   midi.NoteOnEvent(tick=240, channel=0, data=[81, 61]),
   midi.NoteOnEvent(tick=0, channel=0, data=[73, 51]),
   midi.NoteOnEvent(tick=120, channel=0, data=[73, 0]),
   midi.NoteOnEvent(tick=0, channel=0, data=[81, 0]),
   midi.NoteOnEvent(tick=0, channel=0, data=[73, 51]),
   midi.NoteOnEvent(tick=0, channel=0, data=[81, 61]),
   midi.NoteOnEvent(tick=40, channel=0, data=[81, 0]),
   midi.NoteOnEvent(tick=0, channel=0, data=[73, 0]),
   midi.NoteOnEvent(tick=40, channel=0, data=[73, 50]),
   midi.NoteOnEvent(tick=0, channel=0, data=[80, 59]),
   midi.NoteOnEvent(tick=40, channel=0, data=[80, 0]),
   midi.NoteOnEvent(tick=0, channel=0, data=[73, 0]),
   midi.NoteOnEvent(tick=40, channel=0, data=[73, 50]),
   midi.NoteOnEvent(tick=0, channel=0, data=[78, 59]),
   midi.NoteOnEvent(tick=40, channel=0, data=[78, 0]),
   midi.NoteOnEvent(tick=0, channel=0, data=[73, 0]),
   midi.NoteOnEvent(tick=40, channel=0, data=[74, 51]),
   midi.NoteOnEvent(tick=0, channel=0, data=[76, 61]),
   midi.NoteOnEvent(tick=360, channel=0, data=[76, 0]),
   midi.NoteOnEvent(tick=0, channel=0, data=[74, 0]),
   midi.NoteOnEvent(tick=0, channel=0, data=[70, 49]),
   midi.NoteOnEvent(tick=0, channel=0, data=[76, 58]),
   midi.NoteOnEvent(tick=60, channel=0, data=[76, 0]),
   midi.NoteOnEvent(tick=0, channel=0, data=[70, 0]),
   midi.NoteOnEvent(tick=60, channel=0, data=[71, 52]),
   midi.NoteOnEvent(tick=0, channel=0, data=[76, 61]),
   midi.NoteOnEvent(tick=60, channel=0, data=[76, 0]),
   midi.NoteOnEvent(tick=0, channel=0, data=[71, 0]),
   midi.NoteOnEvent(tick=60, channel=0, data=[72, 55]),
   midi.NoteOnEvent(tick=0, channel=0, data=[76, 66]),
   midi.NoteOnEvent(tick=60, channel=0, data=[76, 0]),
   midi.NoteOnEvent(tick=0, channel=0, data=[72, 0]),
   midi.NoteOnEvent(tick=60, channel=0, data=[73, 59]),
   midi.NoteOnEvent(tick=0, channel=0, data=[76, 67]),
   midi.NoteOnEvent(tick=480, channel=0, data=[76, 0]),
   midi.NoteOnEvent(tick=0, channel=0, data=[73, 0]),
   midi.NoteOnEvent(tick=0, channel=0, data=[74, 55]),
   midi.NoteOnEvent(tick=0, channel=0, data=[78, 61]),
   midi.NoteOnEvent(tick=120, channel=0, data=[78, 0]),
   midi.NoteOnEvent(tick=0, channel=0, data=[74, 0]),
   midi.NoteOnEvent(tick=0, channel=0, data=[69, 55]),
   midi.NoteOnEvent(tick=0, channel=0, data=[73, 65]),
   midi.NoteOnEvent(tick=120, channel=0, data=[73, 0]),
   midi.NoteOnEvent(tick=0, channel=0, data=[69, 0]),
   midi.NoteOnEvent(tick=0, channel=0, data=[68, 50]),
   midi.NoteOnEvent(tick=0, channel=0, data=[73, 59]),
   midi.NoteOnEvent(tick=60, channel=0, data=[73, 0]),
   midi.NoteOnEvent(tick=0, channel=0, data=[68, 0]),
   midi.NoteOnEvent(tick=0, channel=0, data=[73, 56]),
   midi.NoteOnEvent(tick=0, channel=0, data=[76, 66]),
   midi.NoteOnEvent(tick=120, channel=0, data=[76, 0]),
   midi.NoteOnEvent(tick=0, channel=0, data=[73, 0]),
   midi.NoteOnEvent(tick=0, channel=0, data=[74, 60]),
   midi.NoteOnEvent(tick=0, channel=0, data=[71, 51]),
   midi.NoteOnEvent(tick=60, channel=0, data=[71, 0]),
   midi.NoteOnEvent(tick=0, channel=0, data=[74, 0]),
   midi.NoteOnEvent(tick=0, channel=0, data=[74, 58]),
   midi.NoteOnEvent(tick=0, channel=0, data=[71, 58]),
   midi.NoteOnEvent(tick=20, channel=0, data=[71, 0]),
   midi.NoteOnEvent(tick=0, channel=0, data=[74, 0]),
   midi.NoteOnEvent(tick=0, channel=0, data=[76, 52]),
   midi.NoteOnEvent(tick=0, channel=0, data=[73, 52]),
   midi.NoteOnEvent(tick=20, channel=0, data=[73, 0]),
   midi.NoteOnEvent(tick=0, channel=0, data=[76, 0]),
   midi.NoteOnEvent(tick=0, channel=0, data=[74, 57]),
   midi.NoteOnEvent(tick=0, channel=0, data=[71, 57]),
   midi.NoteOnEvent(tick=40, channel=0, data=[71, 0]),
   midi.NoteOnEvent(tick=0, channel=0, data=[74, 0]),
   midi.NoteOnEvent(tick=0, channel=0, data=[70, 50]),
   midi.NoteOnEvent(tick=0, channel=0, data=[73, 59]),
   midi.NoteOnEvent(tick=80, channel=0, data=[73, 0]),
   midi.NoteOnEvent(tick=0, channel=0, data=[70, 0]),
   midi.NoteOnEvent(tick=0, channel=0, data=[71, 51]),
   midi.NoteOnEvent(tick=0, channel=0, data=[74, 60]),
   midi.NoteOnEvent(tick=80, channel=0, data=[74, 0]),
   midi.NoteOnEvent(tick=0, channel=0, data=[71, 0]),
   midi.NoteOnEvent(tick=0, channel=0, data=[71, 52]),
   midi.NoteOnEvent(tick=0, channel=0, data=[74, 61]),
   midi.NoteOnEvent(tick=80, channel=0, data=[74, 0]),
   midi.NoteOnEvent(tick=0, channel=0, data=[71, 0]),
   midi.NoteOnEvent(tick=0, channel=0, data=[73, 54]),
   midi.NoteOnEvent(tick=0, channel=0, data=[76, 63]),
   midi.NoteOnEvent(tick=40, channel=0, data=[73, 0]),
   midi.NoteOnEvent(tick=40, channel=0, data=[76, 0]),
   midi.NoteOnEvent(tick=40, channel=0, data=[68, 55]),
   midi.NoteOnEvent(tick=0, channel=0, data=[71, 65]),
   midi.NoteOnEvent(tick=40, channel=0, data=[71, 0]),
   midi.NoteOnEvent(tick=0, channel=0, data=[68, 0]),
   midi.NoteOnEvent(tick=0, channel=0, data=[74, 62]),
   midi.NoteOnEvent(tick=0, channel=0, data=[71, 53]),
   midi.NoteOnEvent(tick=240, channel=0, data=[71, 0]),
   midi.NoteOnEvent(tick=0, channel=0, data=[74, 0]),
   midi.NoteOnEvent(tick=0, channel=0, data=[73, 62]),
   midi.NoteOnEvent(tick=0, channel=0, data=[69, 53]),
   midi.NoteOnEvent(tick=240, channel=0, data=[69, 0]),
   midi.NoteOnEvent(tick=0, channel=0, data=[73, 0]),
   midi.NoteOnEvent(tick=0, channel=0, data=[73, 59]),
   midi.NoteOnEvent(tick=0, channel=0, data=[81, 70]),
   midi.NoteOnEvent(tick=480, channel=0, data=[81, 0]),
   midi.NoteOnEvent(tick=0, channel=0, data=[73, 0]),
   midi.NoteOnEvent(tick=0, channel=0, data=[73, 59]),
   midi.NoteOnEvent(tick=0, channel=0, data=[81, 70]),
   midi.NoteOnEvent(tick=240, channel=0, data=[81, 0]),
   midi.NoteOnEvent(tick=0, channel=0, data=[73, 0]),
   midi.NoteOnEvent(tick=0, channel=0, data=[81, 76]),
   midi.NoteOnEvent(tick=0, channel=0, data=[73, 64]),
   midi.NoteOnEvent(tick=240, channel=0, data=[73, 0]),
   midi.NoteOnEvent(tick=0, channel=0, data=[81, 0]),
   midi.NoteOnEvent(tick=0, channel=0, data=[73, 63]),
   midi.NoteOnEvent(tick=0, channel=0, data=[80, 75]),
   midi.NoteOnEvent(tick=240, channel=0, data=[80, 0]),
   midi.NoteOnEvent(tick=0, channel=0, data=[81, 74]),
   midi.NoteOnEvent(tick=360, channel=0, data=[81, 0]),
   midi.NoteOnEvent(tick=0, channel=0, data=[80, 75]),
   midi.NoteOnEvent(tick=120, channel=0, data=[80, 0]),
   midi.NoteOnEvent(tick=0, channel=0, data=[78, 73]),
   midi.NoteOnEvent(tick=80, channel=0, data=[73, 0]),
   midi.NoteOnEvent(tick=0, channel=0, data=[75, 72]),
   midi.NoteOnEvent(tick=80, channel=0, data=[75, 0]),
   midi.NoteOnEvent(tick=0, channel=0, data=[73, 70]),
   midi.NoteOnEvent(tick=80, channel=0, data=[73, 0]),
   midi.NoteOnEvent(tick=0, channel=0, data=[72, 70]),
   midi.NoteOnEvent(tick=80, channel=0, data=[78, 0]),
   midi.NoteOnEvent(tick=0, channel=0, data=[76, 70]),
   midi.NoteOnEvent(tick=80, channel=0, data=[76, 0]),
   midi.NoteOnEvent(tick=0, channel=0, data=[78, 75]),
   midi.NoteOnEvent(tick=80, channel=0, data=[78, 0]),
   midi.NoteOnEvent(tick=0, channel=0, data=[80, 75]),
   midi.NoteOnEvent(tick=60, channel=0, data=[80, 0]),
   midi.NoteOnEvent(tick=60, channel=0, data=[72, 0]),
   midi.NoteOnEvent(tick=60, channel=0, data=[72, 61]),
   midi.NoteOnEvent(tick=0, channel=0, data=[75, 72]),
   midi.NoteOnEvent(tick=60, channel=0, data=[75, 0]),
   midi.NoteOnEvent(tick=0, channel=0, data=[72, 0]),
   midi.NoteOnEvent(tick=0, channel=0, data=[75, 64]),
   midi.NoteOnEvent(tick=0, channel=0, data=[78, 76]),
   midi.NoteOnEvent(tick=320, channel=0, data=[78, 0]),
   midi.NoteOnEvent(tick=0, channel=0, data=[75, 0]),
   midi.NoteOnEvent(tick=0, channel=0, data=[73, 62]),
   midi.NoteOnEvent(tick=0, channel=0, data=[76, 73]),
   midi.NoteOnEvent(tick=40, channel=0, data=[76, 0]),
   midi.NoteOnEvent(tick=0, channel=0, data=[73, 0]),
   midi.NoteOnEvent(tick=80, channel=0, data=[76, 62]),
   midi.NoteOnEvent(tick=0, channel=0, data=[85, 73]),
   midi.NoteOnEvent(tick=40, channel=0, data=[85, 0]),
   midi.NoteOnEvent(tick=0, channel=0, data=[76, 0]),
   midi.NoteOnEvent(tick=0, channel=0, data=[76, 63]),
   midi.NoteOnEvent(tick=0, channel=0, data=[85, 75]),
   midi.NoteOnEvent(tick=80, channel=0, data=[85, 0]),
   midi.NoteOnEvent(tick=0, channel=0, data=[76, 0]),
   midi.NoteOnEvent(tick=0, channel=0, data=[80, 62]),
   midi.NoteOnEvent(tick=0, channel=0, data=[83, 73]),
   midi.NoteOnEvent(tick=80, channel=0, data=[83, 0]),
   midi.NoteOnEvent(tick=0, channel=0, data=[80, 0]),
   midi.NoteOnEvent(tick=40, channel=0, data=[78, 59]),
   midi.NoteOnEvent(tick=0, channel=0, data=[81, 70]),
   midi.NoteOnEvent(tick=40, channel=0, data=[81, 0]),
   midi.NoteOnEvent(tick=0, channel=0, data=[78, 0]),
   midi.NoteOnEvent(tick=0, channel=0, data=[76, 64]),
   midi.NoteOnEvent(tick=0, channel=0, data=[80, 76]),
   midi.NoteOnEvent(tick=40, channel=0, data=[80, 0]),
   midi.NoteOnEvent(tick=0, channel=0, data=[76, 0]),
   midi.NoteOnEvent(tick=40, channel=0, data=[68, 57]),
   midi.NoteOnEvent(tick=0, channel=0, data=[80, 68]),
   midi.NoteOnEvent(tick=40, channel=0, data=[80, 0]),
   midi.NoteOnEvent(tick=0, channel=0, data=[68, 0]),
   midi.NoteOnEvent(tick=40, channel=0, data=[69, 58]),
   midi.NoteOnEvent(tick=0, channel=0, data=[80, 69]),
   midi.NoteOnEvent(tick=40, channel=0, data=[80, 0]),
   midi.NoteOnEvent(tick=0, channel=0, data=[69, 0]),
   midi.NoteOnEvent(tick=40, channel=0, data=[70, 58]),
   midi.NoteOnEvent(tick=0, channel=0, data=[80, 70]),
   midi.NoteOnEvent(tick=40, channel=0, data=[80, 0]),
   midi.NoteOnEvent(tick=0, channel=0, data=[70, 0]),
   midi.NoteOnEvent(tick=40, channel=0, data=[71, 59]),
   midi.NoteOnEvent(tick=0, channel=0, data=[80, 71]),
   midi.NoteOnEvent(tick=40, channel=0, data=[80, 0]),
   midi.NoteOnEvent(tick=0, channel=0, data=[71, 0]),
   midi.NoteOnEvent(tick=40, channel=0, data=[72, 60]),
   midi.NoteOnEvent(tick=0, channel=0, data=[80, 72]),
   midi.NoteOnEvent(tick=40, channel=0, data=[80, 0]),
   midi.NoteOnEvent(tick=0, channel=0, data=[72, 0]),
   midi.NoteOnEvent(tick=40, channel=0, data=[73, 61]),
   midi.NoteOnEvent(tick=0, channel=0, data=[80, 73]),
   midi.NoteOnEvent(tick=40, channel=0, data=[80, 0]),
   midi.NoteOnEvent(tick=0, channel=0, data=[73, 0]),
   midi.NoteOnEvent(tick=8, channel=0, data=[74, 61]),
   midi.NoteOnEvent(tick=0, channel=0, data=[80, 73]),
   midi.NoteOnEvent(tick=40, channel=0, data=[80, 0]),
   midi.NoteOnEvent(tick=0, channel=0, data=[74, 0]),
   midi.NoteOnEvent(tick=8, channel=0, data=[75, 63]),
   midi.NoteOnEvent(tick=0, channel=0, data=[80, 74]),
   midi.NoteOnEvent(tick=40, channel=0, data=[80, 0]),
   midi.NoteOnEvent(tick=0, channel=0, data=[75, 0]),
   midi.NoteOnEvent(tick=8, channel=0, data=[76, 63]),
   midi.NoteOnEvent(tick=0, channel=0, data=[80, 74]),
   midi.NoteOnEvent(tick=40, channel=0, data=[80, 0]),
   midi.NoteOnEvent(tick=0, channel=0, data=[76, 0]),
   midi.NoteOnEvent(tick=8, channel=0, data=[77, 64]),
   midi.NoteOnEvent(tick=0, channel=0, data=[80, 75]),
   midi.NoteOnEvent(tick=40, channel=0, data=[80, 0]),
   midi.NoteOnEvent(tick=0, channel=0, data=[77, 0]),
   midi.NoteOnEvent(tick=8, channel=0, data=[80, 79]),
   midi.NoteOnEvent(tick=0, channel=0, data=[78, 67]),
   midi.NoteOnEvent(tick=180, channel=0, data=[78, 0]),
   midi.NoteOnEvent(tick=0, channel=0, data=[80, 0]),
   midi.NoteOnEvent(tick=0, channel=0, data=[83, 63]),
   midi.NoteOnEvent(tick=60, channel=0, data=[83, 0]),
   midi.NoteOnEvent(tick=0, channel=0, data=[81, 78]),
   midi.NoteOnEvent(tick=0, channel=0, data=[78, 66]),
   midi.NoteOnEvent(tick=240, channel=0, data=[78, 0]),
   midi.NoteOnEvent(tick=0, channel=0, data=[81, 0]),
   midi.NoteOnEvent(tick=0, channel=0, data=[80, 79]),
   midi.NoteOnEvent(tick=0, channel=0, data=[78, 67]),
   midi.NoteOnEvent(tick=240, channel=0, data=[78, 0]),
   midi.NoteOnEvent(tick=0, channel=0, data=[80, 0]),
   midi.NoteOnEvent(tick=0, channel=0, data=[87, 88]),
   midi.NoteOnEvent(tick=0, channel=0, data=[78, 74]),
   midi.NoteOnEvent(tick=60, channel=0, data=[78, 0]),
   midi.NoteOnEvent(tick=0, channel=0, data=[87, 0]),
   midi.NoteOnEvent(tick=180, channel=0, data=[76, 69]),
   midi.NoteOnEvent(tick=0, channel=0, data=[80, 81]),
   midi.NoteOnEvent(tick=240, channel=0, data=[80, 0]),
   midi.NoteOnEvent(tick=0, channel=0, data=[76, 0]),
   midi.NoteOnEvent(tick=0, channel=0, data=[75, 72]),
   midi.NoteOnEvent(tick=0, channel=0, data=[80, 85]),
   midi.NoteOnEvent(tick=240, channel=0, data=[80, 0]),
   midi.NoteOnEvent(tick=0, channel=0, data=[75, 0]),
   midi.NoteOnEvent(tick=0, channel=0, data=[75, 75]),
   midi.NoteOnEvent(tick=0, channel=0, data=[80, 89]),
   midi.NoteOnEvent(tick=480, channel=0, data=[80, 0]),
   midi.NoteOnEvent(tick=0, channel=0, data=[78, 80]),
   midi.NoteOnEvent(tick=240, channel=0, data=[78, 0]),
   midi.NoteOnEvent(tick=0, channel=0, data=[75, 0]),
   midi.NoteOnEvent(tick=240, channel=0, data=[72, 64]),
   midi.NoteOnEvent(tick=0, channel=0, data=[75, 64]),
   midi.NoteOnEvent(tick=0, channel=0, data=[78, 76]),
   midi.NoteOnEvent(tick=240, channel=0, data=[78, 0]),
   midi.NoteOnEvent(tick=0, channel=0, data=[75, 0]),
   midi.NoteOnEvent(tick=0, channel=0, data=[72, 0]),
   midi.NoteOnEvent(tick=0, channel=0, data=[71, 68]),
   midi.NoteOnEvent(tick=0, channel=0, data=[75, 68]),
   midi.NoteOnEvent(tick=0, channel=0, data=[78, 80]),
   midi.NoteOnEvent(tick=240, channel=0, data=[78, 0]),
   midi.NoteOnEvent(tick=0, channel=0, data=[75, 0]),
   midi.NoteOnEvent(tick=0, channel=0, data=[71, 0]),
   midi.NoteOnEvent(tick=0, channel=0, data=[70, 71]),
   midi.NoteOnEvent(tick=0, channel=0, data=[75, 71]),
   midi.NoteOnEvent(tick=0, channel=0, data=[78, 84]),
   midi.NoteOnEvent(tick=120, channel=0, data=[78, 0]),
   midi.NoteOnEvent(tick=0, channel=0, data=[75, 0]),
   midi.NoteOnEvent(tick=0, channel=0, data=[70, 0]),
   midi.NoteOnEvent(tick=60, channel=0, data=[78, 78]),
   midi.NoteOnEvent(tick=60, channel=0, data=[78, 0]),
   midi.NoteOnEvent(tick=0, channel=0, data=[90, 97]),
   midi.NoteOnEvent(tick=600, channel=0, data=[90, 0]),
   midi.NoteOnEvent(tick=0, channel=0, data=[86, 86]),
   midi.NoteOnEvent(tick=120, channel=0, data=[86, 0]),
   midi.NoteOnEvent(tick=0, channel=0, data=[87, 79]),
   midi.NoteOnEvent(tick=80, channel=0, data=[87, 0]),
   midi.NoteOnEvent(tick=0, channel=0, data=[81, 77]),
   midi.NoteOnEvent(tick=80, channel=0, data=[81, 0]),
   midi.NoteOnEvent(tick=0, channel=0, data=[82, 77]),
   midi.NoteOnEvent(tick=80, channel=0, data=[82, 0]),
   midi.NoteOnEvent(tick=0, channel=0, data=[77, 76]),
   midi.NoteOnEvent(tick=80, channel=0, data=[77, 0]),
   midi.NoteOnEvent(tick=0, channel=0, data=[78, 75]),
   midi.NoteOnEvent(tick=80, channel=0, data=[78, 0]),
   midi.NoteOnEvent(tick=0, channel=0, data=[74, 75]),
   midi.NoteOnEvent(tick=80, channel=0, data=[74, 0]),
   midi.NoteOnEvent(tick=0, channel=0, data=[69, 71]),
   midi.NoteOnEvent(tick=0, channel=0, data=[75, 71]),
   midi.NoteOnEvent(tick=0, channel=0, data=[78, 84]),
   midi.NoteOnEvent(tick=120, channel=0, data=[78, 0]),
   midi.NoteOnEvent(tick=0, channel=0, data=[75, 0]),
   midi.NoteOnEvent(tick=0, channel=0, data=[69, 0]),
   midi.NoteOnEvent(tick=60, channel=0, data=[78, 78]),
   midi.NoteOnEvent(tick=60, channel=0, data=[78, 0]),
   midi.NoteOnEvent(tick=0, channel=0, data=[90, 97]),
   midi.NoteOnEvent(tick=600, channel=0, data=[90, 0]),
   midi.NoteOnEvent(tick=0, channel=0, data=[86, 86]),
   midi.NoteOnEvent(tick=120, channel=0, data=[86, 0]),
   midi.NoteOnEvent(tick=0, channel=0, data=[87, 79]),
   midi.NoteOnEvent(tick=80, channel=0, data=[87, 0]),
   midi.NoteOnEvent(tick=0, channel=0, data=[80, 77]),
   midi.NoteOnEvent(tick=80, channel=0, data=[80, 0]),
   midi.NoteOnEvent(tick=0, channel=0, data=[81, 77]),
   midi.NoteOnEvent(tick=80, channel=0, data=[81, 0]),
   midi.NoteOnEvent(tick=0, channel=0, data=[77, 76]),
   midi.NoteOnEvent(tick=80, channel=0, data=[77, 0]),
   midi.NoteOnEvent(tick=0, channel=0, data=[78, 75]),
   midi.NoteOnEvent(tick=80, channel=0, data=[78, 0]),
   midi.NoteOnEvent(tick=0, channel=0, data=[74, 75]),
   midi.NoteOnEvent(tick=80, channel=0, data=[74, 0]),
   midi.NoteOnEvent(tick=0, channel=0, data=[69, 71]),
   midi.NoteOnEvent(tick=0, channel=0, data=[75, 71]),
   midi.NoteOnEvent(tick=0, channel=0, data=[78, 84]),
   midi.NoteOnEvent(tick=120, channel=0, data=[78, 0]),
   midi.NoteOnEvent(tick=0, channel=0, data=[75, 0]),
   midi.NoteOnEvent(tick=0, channel=0, data=[69, 0]),
   midi.NoteOnEvent(tick=60, channel=0, data=[78, 78]),
   midi.NoteOnEvent(tick=60, channel=0, data=[78, 0]),
   midi.NoteOnEvent(tick=0, channel=0, data=[90, 97]),
   midi.NoteOnEvent(tick=480, channel=0, data=[90, 0]),
   midi.NoteOnEvent(tick=0, channel=0, data=[69, 71]),
   midi.NoteOnEvent(tick=0, channel=0, data=[73, 71]),
   midi.NoteOnEvent(tick=0, channel=0, data=[78, 84]),
   midi.NoteOnEvent(tick=120, channel=0, data=[78, 0]),
   midi.NoteOnEvent(tick=0, channel=0, data=[73, 0]),
   midi.NoteOnEvent(tick=0, channel=0, data=[69, 0]),
   midi.NoteOnEvent(tick=60, channel=0, data=[78, 78]),
   midi.NoteOnEvent(tick=60, channel=0, data=[78, 0]),
   midi.NoteOnEvent(tick=0, channel=0, data=[90, 97]),
   midi.NoteOnEvent(tick=240, channel=0, data=[90, 0]),
   midi.NoteOnEvent(tick=0, channel=0, data=[69, 71]),
   midi.NoteOnEvent(tick=0, channel=0, data=[72, 71]),
   midi.NoteOnEvent(tick=0, channel=0, data=[78, 84]),
   midi.NoteOnEvent(tick=120, channel=0, data=[78, 0]),
   midi.NoteOnEvent(tick=0, channel=0, data=[72, 0]),
   midi.NoteOnEvent(tick=0, channel=0, data=[69, 0]),
   midi.NoteOnEvent(tick=60, channel=0, data=[78, 78]),
   midi.NoteOnEvent(tick=60, channel=0, data=[78, 0]),
   midi.NoteOnEvent(tick=0, channel=0, data=[90, 97]),
   midi.NoteOnEvent(tick=320, channel=0, data=[90, 0]),
   midi.NoteOnEvent(tick=0, channel=0, data=[89, 86]),
   midi.NoteOnEvent(tick=80, channel=0, data=[89, 0]),
   midi.NoteOnEvent(tick=0, channel=0, data=[88, 84]),
   midi.NoteOnEvent(tick=80, channel=0, data=[88, 0]),
   midi.NoteOnEvent(tick=0, channel=0, data=[78, 89]),
   midi.NoteOnEvent(tick=80, channel=0, data=[78, 0]),
   midi.NoteOnEvent(tick=0, channel=0, data=[87, 82]),
   midi.NoteOnEvent(tick=80, channel=0, data=[87, 0]),
   midi.NoteOnEvent(tick=0, channel=0, data=[86, 82]),
   midi.NoteOnEvent(tick=80, channel=0, data=[86, 0]),
   midi.NoteOnEvent(tick=0, channel=0, data=[85, 87]),
   midi.NoteOnEvent(tick=80, channel=0, data=[85, 0]),
   midi.NoteOnEvent(tick=0, channel=0, data=[75, 79]),
   midi.NoteOnEvent(tick=80, channel=0, data=[75, 0]),
   midi.NoteOnEvent(tick=0, channel=0, data=[84, 79]),
   midi.NoteOnEvent(tick=80, channel=0, data=[84, 0]),
   midi.NoteOnEvent(tick=0, channel=0, data=[82, 83]),
   midi.NoteOnEvent(tick=80, channel=0, data=[82, 0]),
   midi.NoteOnEvent(tick=0, channel=0, data=[81, 77]),
   midi.NoteOnEvent(tick=80, channel=0, data=[81, 0]),
   midi.NoteOnEvent(tick=0, channel=0, data=[72, 74]),
   midi.NoteOnEvent(tick=80, channel=0, data=[72, 0]),
   midi.NoteOnEvent(tick=0, channel=0, data=[80, 81]),
   midi.NoteOnEvent(tick=80, channel=0, data=[80, 0]),
   midi.NoteOnEvent(tick=0, channel=0, data=[79, 75]),
   midi.NoteOnEvent(tick=80, channel=0, data=[79, 0]),
   midi.NoteOnEvent(tick=0, channel=0, data=[78, 73]),
   midi.NoteOnEvent(tick=80, channel=0, data=[78, 0]),
   midi.NoteOnEvent(tick=0, channel=0, data=[77, 79]),
   midi.ControlChangeEvent(tick=0, channel=0, data=[91, 127]),
   midi.NoteOnEvent(tick=720, channel=0, data=[77, 0]),
   midi.NoteOnEvent(tick=0, channel=0, data=[75, 82]),
   midi.NoteOnEvent(tick=240, channel=0, data=[75, 0]),
   midi.NoteOnEvent(tick=0, channel=0, data=[73, 77]),
   midi.NoteOnEvent(tick=360, channel=0, data=[73, 0]),
   midi.NoteOnEvent(tick=0, channel=0, data=[65, 74]),
   midi.NoteOnEvent(tick=120, channel=0, data=[65, 0]),
   midi.NoteOnEvent(tick=0, channel=0, data=[68, 81]),
   midi.NoteOnEvent(tick=960, channel=0, data=[68, 0]),
   midi.NoteOnEvent(tick=0, channel=0, data=[73, 81]),
   midi.NoteOnEvent(tick=240, channel=0, data=[73, 0]),
   midi.NoteOnEvent(tick=0, channel=0, data=[77, 85]),
   midi.NoteOnEvent(tick=240, channel=0, data=[77, 0]),
   midi.NoteOnEvent(tick=0, channel=0, data=[82, 95]),
   midi.NoteOnEvent(tick=840, channel=0, data=[82, 0]),
   midi.NoteOnEvent(tick=0, channel=0, data=[80, 69]),
   midi.NoteOnEvent(tick=120, channel=0, data=[80, 0]),
   midi.NoteOnEvent(tick=0, channel=0, data=[76, 76]),
   midi.NoteOnEvent(tick=120, channel=0, data=[76, 0]),
   midi.NoteOnEvent(tick=0, channel=0, data=[77, 70]),
   midi.NoteOnEvent(tick=120, channel=0, data=[77, 0]),
   midi.NoteOnEvent(tick=0, channel=0, data=[72, 75]),
   midi.NoteOnEvent(tick=120, channel=0, data=[72, 0]),
   midi.NoteOnEvent(tick=0, channel=0, data=[73, 69]),
   midi.NoteOnEvent(tick=120, channel=0, data=[73, 0]),
   midi.NoteOnEvent(tick=0, channel=0, data=[71, 79]),
   midi.ControlChangeEvent(tick=0, channel=0, data=[91, 127]),
   midi.NoteOnEvent(tick=1440, channel=0, data=[71, 0]),
   midi.NoteOnEvent(tick=0, channel=0, data=[83, 61]),
   midi.ControlChangeEvent(tick=0, channel=0, data=[91, 127]),
   midi.NoteOnEvent(tick=800, channel=0, data=[83, 0]),
   midi.NoteOnEvent(tick=0, channel=0, data=[79, 50]),
   midi.NoteOnEvent(tick=80, channel=0, data=[79, 0]),
   midi.NoteOnEvent(tick=0, channel=0, data=[80, 50]),
   midi.NoteOnEvent(tick=80, channel=0, data=[80, 0]),
   midi.NoteOnEvent(tick=0, channel=0, data=[79, 53]),
   midi.NoteOnEvent(tick=80, channel=0, data=[79, 0]),
   midi.NoteOnEvent(tick=0, channel=0, data=[78, 50]),
   midi.NoteOnEvent(tick=80, channel=0, data=[78, 0]),
   midi.NoteOnEvent(tick=0, channel=0, data=[79, 50]),
   midi.NoteOnEvent(tick=80, channel=0, data=[79, 0]),
   midi.NoteOnEvent(tick=0, channel=0, data=[82, 56]),
   midi.NoteOnEvent(tick=80, channel=0, data=[82, 0]),
   midi.NoteOnEvent(tick=0, channel=0, data=[80, 52]),
   midi.NoteOnEvent(tick=80, channel=0, data=[80, 0]),
   midi.NoteOnEvent(tick=0, channel=0, data=[77, 50]),
   midi.NoteOnEvent(tick=80, channel=0, data=[77, 0]),
   midi.NoteOnEvent(tick=0, channel=0, data=[75, 51]),
   midi.NoteOnEvent(tick=720, channel=0, data=[75, 0]),
   midi.NoteOnEvent(tick=0, channel=0, data=[73, 47]),
   midi.NoteOnEvent(tick=25, channel=0, data=[75, 43]),
   midi.NoteOnEvent(tick=5, channel=0, data=[73, 0]),
   midi.NoteOnEvent(tick=20, channel=0, data=[73, 47]),
   midi.NoteOnEvent(tick=5, channel=0, data=[75, 0]),
   midi.NoteOnEvent(tick=20, channel=0, data=[75, 43]),
   midi.NoteOnEvent(tick=5, channel=0, data=[73, 0]),
   midi.NoteOnEvent(tick=20, channel=0, data=[73, 47]),
   midi.NoteOnEvent(tick=5, channel=0, data=[75, 0]),
   midi.NoteOnEvent(tick=15, channel=0, data=[75, 43]),
   midi.NoteOnEvent(tick=10, channel=0, data=[73, 0]),
   midi.NoteOnEvent(tick=10, channel=0, data=[73, 47]),
   midi.NoteOnEvent(tick=10, channel=0, data=[75, 0]),
   midi.NoteOnEvent(tick=10, channel=0, data=[75, 43]),
   midi.NoteOnEvent(tick=10, channel=0, data=[73, 0]),
   midi.NoteOnEvent(tick=10, channel=0, data=[73, 47]),
   midi.NoteOnEvent(tick=10, channel=0, data=[75, 0]),
   midi.NoteOnEvent(tick=10, channel=0, data=[75, 43]),
   midi.NoteOnEvent(tick=10, channel=0, data=[73, 0]),
   midi.NoteOnEvent(tick=10, channel=0, data=[73, 47]),
   midi.NoteOnEvent(tick=10, channel=0, data=[75, 0]),
   midi.NoteOnEvent(tick=10, channel=0, data=[72, 47]),
   midi.NoteOnEvent(tick=10, channel=0, data=[73, 0]),
   midi.NoteOnEvent(tick=30, channel=0, data=[72, 0]),
   midi.NoteOnEvent(tick=0, channel=0, data=[73, 46]),
   midi.NoteOnEvent(tick=40, channel=0, data=[73, 0]),
   midi.NoteOnEvent(tick=0, channel=0, data=[75, 47]),
   midi.NoteOnEvent(tick=40, channel=0, data=[75, 0]),
   midi.NoteOnEvent(tick=0, channel=0, data=[77, 48]),
   midi.NoteOnEvent(tick=40, channel=0, data=[77, 0]),
   midi.NoteOnEvent(tick=0, channel=0, data=[78, 49]),
   midi.NoteOnEvent(tick=40, channel=0, data=[78, 0]),
   midi.NoteOnEvent(tick=0, channel=0, data=[80, 50]),
   midi.NoteOnEvent(tick=40, channel=0, data=[80, 0]),
   midi.NoteOnEvent(tick=0, channel=0, data=[82, 51]),
   midi.NoteOnEvent(tick=40, channel=0, data=[82, 0]),
   midi.NoteOnEvent(tick=0, channel=0, data=[83, 52]),
   midi.NoteOnEvent(tick=40, channel=0, data=[83, 0]),
   midi.NoteOnEvent(tick=0, channel=0, data=[85, 53]),
   midi.NoteOnEvent(tick=40, channel=0, data=[85, 0]),
   midi.NoteOnEvent(tick=0, channel=0, data=[87, 54]),
   midi.NoteOnEvent(tick=40, channel=0, data=[87, 0]),
   midi.NoteOnEvent(tick=0, channel=0, data=[89, 55]),
   midi.NoteOnEvent(tick=40, channel=0, data=[89, 0]),
   midi.NoteOnEvent(tick=0, channel=0, data=[90, 55]),
   midi.NoteOnEvent(tick=40, channel=0, data=[90, 0]),
   midi.NoteOnEvent(tick=0, channel=0, data=[94, 57]),
   midi.NoteOnEvent(tick=60, channel=0, data=[94, 0]),
   midi.NoteOnEvent(tick=0, channel=0, data=[92, 55]),
   midi.NoteOnEvent(tick=60, channel=0, data=[92, 0]),
   midi.NoteOnEvent(tick=0, channel=0, data=[95, 52]),
   midi.NoteOnEvent(tick=60, channel=0, data=[95, 0]),
   midi.NoteOnEvent(tick=0, channel=0, data=[91, 52]),
   midi.NoteOnEvent(tick=60, channel=0, data=[91, 0]),
   midi.NoteOnEvent(tick=0, channel=0, data=[92, 52]),
   midi.NoteOnEvent(tick=60, channel=0, data=[92, 0]),
   midi.NoteOnEvent(tick=0, channel=0, data=[91, 52]),
   midi.NoteOnEvent(tick=60, channel=0, data=[91, 0]),
   midi.NoteOnEvent(tick=0, channel=0, data=[95, 52]),
   midi.NoteOnEvent(tick=60, channel=0, data=[95, 0]),
   midi.NoteOnEvent(tick=0, channel=0, data=[90, 52]),
   midi.NoteOnEvent(tick=60, channel=0, data=[90, 0]),
   midi.NoteOnEvent(tick=0, channel=0, data=[91, 49]),
   midi.NoteOnEvent(tick=60, channel=0, data=[91, 0]),
   midi.NoteOnEvent(tick=0, channel=0, data=[90, 49]),
   midi.NoteOnEvent(tick=60, channel=0, data=[90, 0]),
   midi.NoteOnEvent(tick=0, channel=0, data=[95, 50]),
   midi.NoteOnEvent(tick=60, channel=0, data=[95, 0]),
   midi.NoteOnEvent(tick=0, channel=0, data=[89, 50]),
   midi.NoteOnEvent(tick=60, channel=0, data=[89, 0]),
   midi.NoteOnEvent(tick=0, channel=0, data=[90, 51]),
   midi.NoteOnEvent(tick=60, channel=0, data=[90, 0]),
   midi.NoteOnEvent(tick=0, channel=0, data=[89, 52]),
   midi.NoteOnEvent(tick=60, channel=0, data=[89, 0]),
   midi.NoteOnEvent(tick=0, channel=0, data=[95, 52]),
   midi.NoteOnEvent(tick=60, channel=0, data=[95, 0]),
   midi.NoteOnEvent(tick=0, channel=0, data=[88, 53]),
   midi.NoteOnEvent(tick=60, channel=0, data=[88, 0]),
   midi.NoteOnEvent(tick=0, channel=0, data=[89, 53]),
   midi.NoteOnEvent(tick=60, channel=0, data=[89, 0]),
   midi.NoteOnEvent(tick=0, channel=0, data=[88, 54]),
   midi.NoteOnEvent(tick=60, channel=0, data=[88, 0]),
   midi.NoteOnEvent(tick=0, channel=0, data=[95, 55]),
   midi.NoteOnEvent(tick=60, channel=0, data=[95, 0]),
   midi.NoteOnEvent(tick=0, channel=0, data=[87, 55]),
   midi.NoteOnEvent(tick=60, channel=0, data=[87, 0]),
   midi.NoteOnEvent(tick=0, channel=0, data=[88, 56]),
   midi.NoteOnEvent(tick=60, channel=0, data=[88, 0]),
   midi.NoteOnEvent(tick=0, channel=0, data=[87, 57]),
   midi.NoteOnEvent(tick=60, channel=0, data=[87, 0]),
   midi.NoteOnEvent(tick=0, channel=0, data=[95, 57]),
   midi.NoteOnEvent(tick=60, channel=0, data=[95, 0]),
   midi.NoteOnEvent(tick=0, channel=0, data=[86, 57]),
   midi.NoteOnEvent(tick=60, channel=0, data=[86, 0]),
   midi.NoteOnEvent(tick=0, channel=0, data=[85, 57]),
   midi.NoteOnEvent(tick=60, channel=0, data=[85, 0]),
   midi.NoteOnEvent(tick=0, channel=0, data=[87, 58]),
   midi.NoteOnEvent(tick=60, channel=0, data=[87, 0]),
   midi.NoteOnEvent(tick=0, channel=0, data=[85, 59]),
   midi.NoteOnEvent(tick=60, channel=0, data=[85, 0]),
   midi.NoteOnEvent(tick=0, channel=0, data=[84, 59]),
   midi.NoteOnEvent(tick=60, channel=0, data=[84, 0]),
   midi.NoteOnEvent(tick=0, channel=0, data=[85, 60]),
   midi.NoteOnEvent(tick=60, channel=0, data=[85, 0]),
   midi.NoteOnEvent(tick=0, channel=0, data=[87, 61]),
   midi.NoteOnEvent(tick=60, channel=0, data=[87, 0]),
   midi.NoteOnEvent(tick=0, channel=0, data=[89, 61]),
   midi.NoteOnEvent(tick=60, channel=0, data=[89, 0]),
   midi.NoteOnEvent(tick=0, channel=0, data=[90, 62]),
   midi.NoteOnEvent(tick=60, channel=0, data=[90, 0]),
   midi.NoteOnEvent(tick=0, channel=0, data=[92, 62]),
   midi.NoteOnEvent(tick=60, channel=0, data=[92, 0]),
   midi.NoteOnEvent(tick=0, channel=0, data=[94, 62]),
   midi.NoteOnEvent(tick=60, channel=0, data=[94, 0]),
   midi.NoteOnEvent(tick=0, channel=0, data=[95, 64]),
   midi.NoteOnEvent(tick=60, channel=0, data=[95, 0]),
   midi.NoteOnEvent(tick=0, channel=0, data=[97, 66]),
   midi.NoteOnEvent(tick=60, channel=0, data=[97, 0]),
   midi.NoteOnEvent(tick=0, channel=0, data=[101, 65]),
   midi.NoteOnEvent(tick=60, channel=0, data=[101, 0]),
   midi.NoteOnEvent(tick=0, channel=0, data=[99, 64]),
   midi.NoteOnEvent(tick=60, channel=0, data=[99, 0]),
   midi.NoteOnEvent(tick=0, channel=0, data=[97, 62]),
   midi.NoteOnEvent(tick=60, channel=0, data=[97, 0]),
   midi.NoteOnEvent(tick=0, channel=0, data=[95, 61]),
   midi.NoteOnEvent(tick=60, channel=0, data=[95, 0]),
   midi.NoteOnEvent(tick=0, channel=0, data=[92, 59]),
   midi.NoteOnEvent(tick=60, channel=0, data=[92, 0]),
   midi.NoteOnEvent(tick=0, channel=0, data=[89, 58]),
   midi.NoteOnEvent(tick=60, channel=0, data=[89, 0]),
   midi.NoteOnEvent(tick=0, channel=0, data=[85, 57]),
   midi.NoteOnEvent(tick=60, channel=0, data=[85, 0]),
   midi.NoteOnEvent(tick=0, channel=0, data=[83, 56]),
   midi.NoteOnEvent(tick=60, channel=0, data=[83, 0]),
   midi.NoteOnEvent(tick=0, channel=0, data=[80, 54]),
   midi.NoteOnEvent(tick=60, channel=0, data=[80, 0]),
   midi.NoteOnEvent(tick=0, channel=0, data=[77, 53]),
   midi.NoteOnEvent(tick=60, channel=0, data=[77, 0]),
   midi.NoteOnEvent(tick=0, channel=0, data=[73, 51]),
   midi.NoteOnEvent(tick=60, channel=0, data=[73, 0]),
   midi.NoteOnEvent(tick=0, channel=0, data=[71, 50]),
   midi.NoteOnEvent(tick=60, channel=0, data=[71, 0]),
   midi.NoteOnEvent(tick=0, channel=0, data=[70, 53]),
   midi.NoteOnEvent(tick=360, channel=0, data=[70, 0]),
   midi.NoteOnEvent(tick=0, channel=0, data=[69, 48]),
   midi.NoteOnEvent(tick=60, channel=0, data=[69, 0]),
   midi.NoteOnEvent(tick=0, channel=0, data=[70, 50]),
   midi.NoteOnEvent(tick=60, channel=0, data=[70, 0]),
   midi.NoteOnEvent(tick=0, channel=0, data=[71, 53]),
   midi.NoteOnEvent(tick=60, channel=0, data=[71, 0]),
   midi.NoteOnEvent(tick=0, channel=0, data=[70, 50]),
   midi.NoteOnEvent(tick=60, channel=0, data=[70, 0]),
   midi.NoteOnEvent(tick=0, channel=0, data=[73, 52]),
   midi.NoteOnEvent(tick=40, channel=0, data=[73, 0]),
   midi.NoteOnEvent(tick=0, channel=0, data=[71, 50]),
   midi.NoteOnEvent(tick=40, channel=0, data=[71, 0]),
   midi.NoteOnEvent(tick=0, channel=0, data=[70, 48]),
   midi.NoteOnEvent(tick=40, channel=0, data=[70, 0]),
   midi.NoteOnEvent(tick=0, channel=0, data=[70, 50]),
   midi.NoteOnEvent(tick=480, channel=0, data=[70, 0]),
   midi.NoteOnEvent(tick=0, channel=0, data=[82, 54]),
   midi.NoteOnEvent(tick=240, channel=0, data=[78, 59]),
   midi.NoteOnEvent(tick=240, channel=0, data=[78, 0]),
   midi.NoteOnEvent(tick=0, channel=0, data=[82, 0]),
   midi.NoteOnEvent(tick=0, channel=0, data=[83, 61]),
   midi.NoteOnEvent(tick=0, channel=0, data=[80, 55]),
   midi.NoteOnEvent(tick=240, channel=0, data=[80, 0]),
   midi.NoteOnEvent(tick=0, channel=0, data=[83, 0]),
   midi.NoteOnEvent(tick=0, channel=0, data=[75, 51]),
   midi.NoteOnEvent(tick=0, channel=0, data=[78, 61]),
   midi.NoteOnEvent(tick=180, channel=0, data=[78, 0]),
   midi.NoteOnEvent(tick=0, channel=0, data=[75, 0]),
   midi.NoteOnEvent(tick=0, channel=0, data=[75, 50]),
   midi.NoteOnEvent(tick=0, channel=0, data=[78, 59]),
   midi.NoteOnEvent(tick=60, channel=0, data=[78, 0]),
   midi.NoteOnEvent(tick=0, channel=0, data=[75, 0]),
   midi.NoteOnEvent(tick=0, channel=0, data=[78, 56]),
   midi.NoteOnEvent(tick=0, channel=0, data=[82, 66]),
   midi.NoteOnEvent(tick=120, channel=0, data=[82, 0]),
   midi.NoteOnEvent(tick=0, channel=0, data=[78, 0]),
   midi.NoteOnEvent(tick=60, channel=0, data=[80, 60]),
   midi.NoteOnEvent(tick=0, channel=0, data=[77, 51]),
   midi.NoteOnEvent(tick=60, channel=0, data=[77, 0]),
   midi.NoteOnEvent(tick=0, channel=0, data=[80, 0]),
   midi.NoteOnEvent(tick=0, channel=0, data=[80, 58]),
   midi.NoteOnEvent(tick=0, channel=0, data=[77, 58]),
   midi.NoteOnEvent(tick=20, channel=0, data=[77, 0]),
   midi.NoteOnEvent(tick=0, channel=0, data=[80, 0]),
   midi.NoteOnEvent(tick=0, channel=0, data=[82, 52]),
   midi.NoteOnEvent(tick=0, channel=0, data=[78, 52]),
   midi.NoteOnEvent(tick=20, channel=0, data=[78, 0]),
   midi.NoteOnEvent(tick=0, channel=0, data=[82, 0]),
   midi.NoteOnEvent(tick=0, channel=0, data=[80, 57]),
   midi.NoteOnEvent(tick=0, channel=0, data=[77, 57]),
   midi.NoteOnEvent(tick=40, channel=0, data=[77, 0]),
   midi.NoteOnEvent(tick=0, channel=0, data=[80, 0]),
   midi.NoteOnEvent(tick=0, channel=0, data=[75, 50]),
   midi.NoteOnEvent(tick=0, channel=0, data=[78, 59]),
   midi.NoteOnEvent(tick=80, channel=0, data=[78, 0]),
   midi.NoteOnEvent(tick=0, channel=0, data=[75, 0]),
   midi.NoteOnEvent(tick=0, channel=0, data=[77, 51]),
   midi.NoteOnEvent(tick=0, channel=0, data=[80, 60]),
   midi.NoteOnEvent(tick=80, channel=0, data=[80, 0]),
   midi.NoteOnEvent(tick=0, channel=0, data=[77, 0]),
   midi.NoteOnEvent(tick=0, channel=0, data=[82, 63]),
   midi.NoteOnEvent(tick=0, channel=0, data=[78, 54]),
   midi.NoteOnEvent(tick=40, channel=0, data=[78, 0]),
   midi.NoteOnEvent(tick=40, channel=0, data=[82, 0]),
   midi.NoteOnEvent(tick=120, channel=0, data=[74, 55]),
   midi.NoteOnEvent(tick=0, channel=0, data=[77, 65]),
   midi.NoteOnEvent(tick=40, channel=0, data=[77, 0]),
   midi.NoteOnEvent(tick=0, channel=0, data=[74, 0]),
   midi.NoteOnEvent(tick=0, channel=0, data=[80, 62]),
   midi.NoteOnEvent(tick=0, channel=0, data=[77, 53]),
   midi.NoteOnEvent(tick=240, channel=0, data=[77, 0]),
   midi.NoteOnEvent(tick=0, channel=0, data=[80, 0]),
   midi.NoteOnEvent(tick=0, channel=0, data=[78, 57]),
   midi.NoteOnEvent(tick=0, channel=0, data=[75, 57]),
   midi.NoteOnEvent(tick=120, channel=0, data=[75, 0]),
   midi.NoteOnEvent(tick=0, channel=0, data=[78, 0]),
   midi.NoteOnEvent(tick=60, channel=0, data=[78, 56]),
   midi.NoteOnEvent(tick=0, channel=0, data=[87, 66]),
   midi.NoteOnEvent(tick=60, channel=0, data=[87, 0]),
   midi.NoteOnEvent(tick=0, channel=0, data=[78, 0]),
   midi.NoteOnEvent(tick=0, channel=0, data=[78, 55]),
   midi.NoteOnEvent(tick=0, channel=0, data=[87, 65]),
   midi.NoteOnEvent(tick=80, channel=0, data=[87, 0]),
   midi.NoteOnEvent(tick=0, channel=0, data=[78, 0]),
   midi.NoteOnEvent(tick=0, channel=0, data=[77, 52]),
   midi.NoteOnEvent(tick=0, channel=0, data=[85, 61]),
   midi.NoteOnEvent(tick=80, channel=0, data=[85, 0]),
   midi.NoteOnEvent(tick=0, channel=0, data=[77, 0]),
   midi.NoteOnEvent(tick=0, channel=0, data=[75, 52]),
   midi.NoteOnEvent(tick=0, channel=0, data=[83, 61]),
   midi.NoteOnEvent(tick=80, channel=0, data=[83, 0]),
   midi.NoteOnEvent(tick=0, channel=0, data=[75, 0]),
   midi.NoteOnEvent(tick=0, channel=0, data=[74, 57]),
   midi.NoteOnEvent(tick=0, channel=0, data=[82, 68]),
   midi.NoteOnEvent(tick=80, channel=0, data=[82, 0]),
   midi.NoteOnEvent(tick=0, channel=0, data=[74, 0]),
   midi.NoteOnEvent(tick=0, channel=0, data=[70, 49]),
   midi.NoteOnEvent(tick=0, channel=0, data=[82, 58]),
   midi.NoteOnEvent(tick=40, channel=0, data=[82, 0]),
   midi.NoteOnEvent(tick=0, channel=0, data=[70, 0]),
   midi.NoteOnEvent(tick=40, channel=0, data=[71, 50]),
   midi.NoteOnEvent(tick=0, channel=0, data=[82, 60]),
   midi.NoteOnEvent(tick=40, channel=0, data=[82, 0]),
   midi.NoteOnEvent(tick=0, channel=0, data=[71, 0]),
   midi.NoteOnEvent(tick=40, channel=0, data=[72, 52]),
   midi.NoteOnEvent(tick=0, channel=0, data=[82, 62]),
   midi.NoteOnEvent(tick=40, channel=0, data=[82, 0]),
   midi.NoteOnEvent(tick=0, channel=0, data=[72, 0]),
   midi.NoteOnEvent(tick=40, channel=0, data=[73, 53]),
   midi.NoteOnEvent(tick=0, channel=0, data=[82, 63]),
   midi.NoteOnEvent(tick=40, channel=0, data=[82, 0]),
   midi.NoteOnEvent(tick=0, channel=0, data=[73, 0]),
   midi.NoteOnEvent(tick=40, channel=0, data=[74, 56]),
   midi.NoteOnEvent(tick=0, channel=0, data=[82, 66]),
   midi.NoteOnEvent(tick=40, channel=0, data=[82, 0]),
   midi.NoteOnEvent(tick=0, channel=0, data=[74, 0]),
   midi.NoteOnEvent(tick=40, channel=0, data=[75, 57]),
   midi.NoteOnEvent(tick=0, channel=0, data=[82, 68]),
   midi.NoteOnEvent(tick=40, channel=0, data=[82, 0]),
   midi.NoteOnEvent(tick=0, channel=0, data=[75, 0]),
   midi.NoteOnEvent(tick=40, channel=0, data=[76, 59]),
   midi.NoteOnEvent(tick=0, channel=0, data=[82, 70]),
   midi.NoteOnEvent(tick=40, channel=0, data=[82, 0]),
   midi.NoteOnEvent(tick=0, channel=0, data=[76, 0]),
   midi.NoteOnEvent(tick=40, channel=0, data=[77, 60]),
   midi.NoteOnEvent(tick=0, channel=0, data=[82, 71]),
   midi.NoteOnEvent(tick=40, channel=0, data=[82, 0]),
   midi.NoteOnEvent(tick=0, channel=0, data=[77, 0]),
   midi.NoteOnEvent(tick=40, channel=0, data=[78, 59]),
   midi.NoteOnEvent(tick=0, channel=0, data=[82, 67]),
   midi.NoteOnEvent(tick=240, channel=0, data=[82, 0]),
   midi.NoteOnEvent(tick=0, channel=0, data=[78, 0]),
   midi.NoteOnEvent(tick=0, channel=0, data=[83, 61]),
   midi.NoteOnEvent(tick=0, channel=0, data=[80, 55]),
   midi.NoteOnEvent(tick=360, channel=0, data=[80, 0]),
   midi.NoteOnEvent(tick=0, channel=0, data=[83, 0]),
   midi.NoteOnEvent(tick=0, channel=0, data=[75, 55]),
   midi.NoteOnEvent(tick=0, channel=0, data=[78, 65]),
   midi.NoteOnEvent(tick=60, channel=0, data=[78, 0]),
   midi.NoteOnEvent(tick=0, channel=0, data=[75, 0]),
   midi.NoteOnEvent(tick=0, channel=0, data=[75, 50]),
   midi.NoteOnEvent(tick=0, channel=0, data=[78, 59]),
   midi.NoteOnEvent(tick=60, channel=0, data=[78, 0]),
   midi.NoteOnEvent(tick=0, channel=0, data=[75, 0]),
   midi.NoteOnEvent(tick=0, channel=0, data=[78, 56]),
   midi.NoteOnEvent(tick=0, channel=0, data=[82, 66]),
   midi.NoteOnEvent(tick=120, channel=0, data=[82, 0]),
   midi.NoteOnEvent(tick=0, channel=0, data=[78, 0]),
   midi.NoteOnEvent(tick=60, channel=0, data=[80, 60]),
   midi.NoteOnEvent(tick=0, channel=0, data=[77, 51]),
   midi.NoteOnEvent(tick=60, channel=0, data=[77, 0]),
   midi.NoteOnEvent(tick=0, channel=0, data=[80, 0]),
   midi.NoteOnEvent(tick=0, channel=0, data=[80, 58]),
   midi.NoteOnEvent(tick=0, channel=0, data=[77, 58]),
   midi.NoteOnEvent(tick=20, channel=0, data=[77, 0]),
   midi.NoteOnEvent(tick=0, channel=0, data=[80, 0]),
   midi.NoteOnEvent(tick=0, channel=0, data=[82, 52]),
   midi.NoteOnEvent(tick=0, channel=0, data=[78, 52]),
   midi.NoteOnEvent(tick=20, channel=0, data=[78, 0]),
   midi.NoteOnEvent(tick=0, channel=0, data=[82, 0]),
   midi.NoteOnEvent(tick=0, channel=0, data=[80, 57]),
   midi.NoteOnEvent(tick=0, channel=0, data=[77, 57]),
   midi.NoteOnEvent(tick=40, channel=0, data=[77, 0]),
   midi.NoteOnEvent(tick=0, channel=0, data=[80, 0]),
   midi.NoteOnEvent(tick=0, channel=0, data=[75, 50]),
   midi.NoteOnEvent(tick=0, channel=0, data=[78, 59]),
   midi.NoteOnEvent(tick=80, channel=0, data=[78, 0]),
   midi.NoteOnEvent(tick=0, channel=0, data=[75, 0]),
   midi.NoteOnEvent(tick=0, channel=0, data=[77, 51]),
   midi.NoteOnEvent(tick=0, channel=0, data=[80, 60]),
   midi.NoteOnEvent(tick=80, channel=0, data=[80, 0]),
   midi.NoteOnEvent(tick=0, channel=0, data=[77, 0]),
   midi.NoteOnEvent(tick=0, channel=0, data=[77, 52]),
   midi.NoteOnEvent(tick=0, channel=0, data=[80, 61]),
   midi.NoteOnEvent(tick=80, channel=0, data=[80, 0]),
   midi.NoteOnEvent(tick=0, channel=0, data=[77, 0]),
   midi.NoteOnEvent(tick=0, channel=0, data=[78, 54]),
   midi.NoteOnEvent(tick=0, channel=0, data=[82, 63]),
   midi.NoteOnEvent(tick=40, channel=0, data=[78, 0]),
   midi.NoteOnEvent(tick=40, channel=0, data=[82, 0]),
   midi.NoteOnEvent(tick=40, channel=0, data=[74, 55]),
   midi.NoteOnEvent(tick=0, channel=0, data=[77, 65]),
   midi.NoteOnEvent(tick=40, channel=0, data=[77, 0]),
   midi.NoteOnEvent(tick=0, channel=0, data=[74, 0]),
   midi.NoteOnEvent(tick=0, channel=0, data=[80, 62]),
   midi.NoteOnEvent(tick=0, channel=0, data=[77, 53]),
   midi.NoteOnEvent(tick=240, channel=0, data=[77, 0]),
   midi.NoteOnEvent(tick=0, channel=0, data=[80, 0]),
   midi.NoteOnEvent(tick=0, channel=0, data=[78, 57]),
   midi.NoteOnEvent(tick=0, channel=0, data=[75, 57]),
   midi.NoteOnEvent(tick=120, channel=0, data=[75, 0]),
   midi.NoteOnEvent(tick=0, channel=0, data=[78, 0]),
   midi.NoteOnEvent(tick=120, channel=0, data=[90, 71]),
   midi.NoteOnEvent(tick=0, channel=0, data=[82, 60]),
   midi.NoteOnEvent(tick=360, channel=0, data=[82, 0]),
   midi.NoteOnEvent(tick=0, channel=0, data=[90, 0]),
   midi.NoteOnEvent(tick=0, channel=0, data=[89, 73]),
   midi.NoteOnEvent(tick=0, channel=0, data=[80, 62]),
   midi.NoteOnEvent(tick=60, channel=0, data=[80, 0]),
   midi.NoteOnEvent(tick=0, channel=0, data=[89, 0]),
   midi.NoteOnEvent(tick=60, channel=0, data=[78, 56]),
   midi.NoteOnEvent(tick=0, channel=0, data=[87, 67]),
   midi.NoteOnEvent(tick=40, channel=0, data=[87, 0]),
   midi.NoteOnEvent(tick=0, channel=0, data=[78, 0]),
   midi.NoteOnEvent(tick=40, channel=0, data=[77, 57]),
   midi.NoteOnEvent(tick=0, channel=0, data=[85, 68]),
   midi.NoteOnEvent(tick=40, channel=0, data=[85, 0]),
   midi.NoteOnEvent(tick=0, channel=0, data=[77, 0]),
   midi.NoteOnEvent(tick=40, channel=0, data=[75, 59]),
   midi.NoteOnEvent(tick=0, channel=0, data=[84, 70]),
   midi.NoteOnEvent(tick=40, channel=0, data=[84, 0]),
   midi.NoteOnEvent(tick=0, channel=0, data=[75, 0]),
   midi.NoteOnEvent(tick=40, channel=0, data=[73, 60]),
   midi.NoteOnEvent(tick=0, channel=0, data=[82, 71]),
   midi.NoteOnEvent(tick=40, channel=0, data=[82, 0]),
   midi.NoteOnEvent(tick=0, channel=0, data=[73, 0]),
   midi.NoteOnEvent(tick=40, channel=0, data=[72, 61]),
   midi.NoteOnEvent(tick=0, channel=0, data=[80, 72]),
   midi.NoteOnEvent(tick=40, channel=0, data=[80, 0]),
   midi.NoteOnEvent(tick=0, channel=0, data=[72, 0]),
   midi.NoteOnEvent(tick=40, channel=0, data=[70, 62]),
   midi.NoteOnEvent(tick=0, channel=0, data=[78, 73]),
   midi.NoteOnEvent(tick=40, channel=0, data=[78, 0]),
   midi.NoteOnEvent(tick=0, channel=0, data=[70, 0]),
   midi.NoteOnEvent(tick=40, channel=0, data=[68, 61]),
   midi.NoteOnEvent(tick=0, channel=0, data=[77, 72]),
   midi.NoteOnEvent(tick=240, channel=0, data=[77, 0]),
   midi.NoteOnEvent(tick=0, channel=0, data=[68, 0]),
   midi.NoteOnEvent(tick=0, channel=0, data=[70, 64]),
   midi.NoteOnEvent(tick=0, channel=0, data=[78, 76]),
   midi.NoteOnEvent(tick=240, channel=0, data=[78, 0]),
   midi.NoteOnEvent(tick=0, channel=0, data=[70, 0]),
   midi.NoteOnEvent(tick=0, channel=0, data=[68, 62]),
   midi.NoteOnEvent(tick=0, channel=0, data=[77, 74]),
   midi.NoteOnEvent(tick=240, channel=0, data=[77, 0]),
   midi.NoteOnEvent(tick=0, channel=0, data=[68, 0]),
   midi.NoteOnEvent(tick=0, channel=0, data=[66, 62]),
   midi.NoteOnEvent(tick=0, channel=0, data=[75, 73]),
   midi.NoteOnEvent(tick=240, channel=0, data=[75, 0]),
   midi.NoteOnEvent(tick=0, channel=0, data=[66, 0]),
   midi.NoteOnEvent(tick=0, channel=0, data=[65, 60]),
   midi.NoteOnEvent(tick=0, channel=0, data=[73, 71]),
   midi.NoteOnEvent(tick=240, channel=0, data=[73, 0]),
   midi.NoteOnEvent(tick=0, channel=0, data=[65, 0]),
   midi.NoteOnEvent(tick=0, channel=0, data=[61, 60]),
   midi.NoteOnEvent(tick=0, channel=0, data=[65, 71]),
   midi.NoteOnEvent(tick=240, channel=0, data=[65, 0]),
   midi.NoteOnEvent(tick=0, channel=0, data=[61, 0]),
   midi.NoteOnEvent(tick=0, channel=0, data=[61, 65]),
   midi.NoteOnEvent(tick=0, channel=0, data=[68, 77]),
   midi.NoteOnEvent(tick=720, channel=0, data=[68, 0]),
   midi.NoteOnEvent(tick=0, channel=0, data=[61, 0]),
   midi.NoteOnEvent(tick=0, channel=0, data=[63, 66]),
   midi.NoteOnEvent(tick=0, channel=0, data=[61, 66]),
   midi.NoteOnEvent(tick=0, channel=0, data=[70, 78]),
   midi.NoteOnEvent(tick=720, channel=0, data=[70, 0]),
   midi.NoteOnEvent(tick=0, channel=0, data=[61, 0]),
   midi.NoteOnEvent(tick=0, channel=0, data=[63, 0]),
   midi.NoteOnEvent(tick=0, channel=0, data=[56, 66]),
   midi.NoteOnEvent(tick=0, channel=0, data=[61, 66]),
   midi.NoteOnEvent(tick=0, channel=0, data=[63, 78]),
   midi.NoteOnEvent(tick=400, channel=0, data=[63, 0]),
   midi.NoteOnEvent(tick=0, channel=0, data=[68, 61]),
   midi.NoteOnEvent(tick=40, channel=0, data=[68, 0]),
   midi.NoteOnEvent(tick=0, channel=0, data=[73, 63]),
   midi.NoteOnEvent(tick=40, channel=0, data=[73, 0]),
   midi.NoteOnEvent(tick=0, channel=0, data=[75, 65]),
   midi.NoteOnEvent(tick=40, channel=0, data=[75, 0]),
   midi.NoteOnEvent(tick=0, channel=0, data=[80, 67]),
   midi.NoteOnEvent(tick=40, channel=0, data=[80, 0]),
   midi.NoteOnEvent(tick=0, channel=0, data=[85, 68]),
   midi.NoteOnEvent(tick=40, channel=0, data=[85, 0]),
   midi.NoteOnEvent(tick=0, channel=0, data=[87, 70]),
   midi.NoteOnEvent(tick=40, channel=0, data=[87, 0]),
   midi.NoteOnEvent(tick=0, channel=0, data=[92, 72]),
   midi.NoteOnEvent(tick=40, channel=0, data=[92, 0]),
   midi.NoteOnEvent(tick=0, channel=0, data=[97, 73]),
   midi.NoteOnEvent(tick=40, channel=0, data=[97, 0]),
   midi.NoteOnEvent(tick=0, channel=0, data=[61, 0]),
   midi.NoteOnEvent(tick=0, channel=0, data=[56, 0]),
   midi.NoteOnEvent(tick=0, channel=0, data=[99, 92]),
   midi.NoteOnEvent(tick=400, channel=0, data=[99, 0]),
   midi.NoteOnEvent(tick=0, channel=0, data=[97, 78]),
   midi.NoteOnEvent(tick=40, channel=0, data=[97, 0]),
   midi.NoteOnEvent(tick=0, channel=0, data=[92, 76]),
   midi.NoteOnEvent(tick=40, channel=0, data=[92, 0]),
   midi.NoteOnEvent(tick=0, channel=0, data=[87, 74]),
   midi.NoteOnEvent(tick=40, channel=0, data=[87, 0]),
   midi.NoteOnEvent(tick=0, channel=0, data=[85, 72]),
   midi.NoteOnEvent(tick=40, channel=0, data=[85, 0]),
   midi.NoteOnEvent(tick=0, channel=0, data=[80, 69]),
   midi.NoteOnEvent(tick=40, channel=0, data=[80, 0]),
   midi.NoteOnEvent(tick=0, channel=0, data=[75, 67]),
   midi.NoteOnEvent(tick=40, channel=0, data=[75, 0]),
   midi.NoteOnEvent(tick=0, channel=0, data=[73, 65]),
   midi.NoteOnEvent(tick=40, channel=0, data=[73, 0]),
   midi.NoteOnEvent(tick=0, channel=0, data=[68, 63]),
   midi.NoteOnEvent(tick=40, channel=0, data=[68, 0]),
   midi.NoteOnEvent(tick=0, channel=0, data=[63, 78]),
   midi.NoteOnEvent(tick=720, channel=0, data=[63, 0]),
   midi.NoteOnEvent(tick=0, channel=0, data=[65, 66]),
   midi.NoteOnEvent(tick=0, channel=0, data=[56, 66]),
   midi.NoteOnEvent(tick=0, channel=0, data=[68, 78]),
   midi.NoteOnEvent(tick=360, channel=0, data=[65, 0]),
   midi.NoteOnEvent(tick=0, channel=0, data=[63, 72]),
   midi.NoteOnEvent(tick=120, channel=0, data=[63, 0]),
   midi.NoteOnEvent(tick=0, channel=0, data=[65, 78]),
   midi.NoteOnEvent(tick=80, channel=0, data=[65, 0]),
   midi.NoteOnEvent(tick=0, channel=0, data=[63, 75]),
   midi.NoteOnEvent(tick=80, channel=0, data=[63, 0]),
   midi.NoteOnEvent(tick=0, channel=0, data=[61, 75]),
   midi.NoteOnEvent(tick=80, channel=0, data=[61, 0]),
   midi.NoteOnEvent(tick=0, channel=0, data=[68, 0]),
   midi.NoteOnEvent(tick=0, channel=0, data=[56, 0]),
   midi.NoteOnEvent(tick=0, channel=0, data=[61, 78]),
   midi.NoteOnEvent(tick=480, channel=0, data=[61, 0]),
   midi.NoteOnEvent(tick=240, channel=0, data=[85, 62]),
   midi.NoteOnEvent(tick=240, channel=0, data=[85, 0]),
   midi.NoteOnEvent(tick=0, channel=0, data=[79, 55]),
   midi.NoteOnEvent(tick=480, channel=0, data=[79, 0]),
   midi.NoteOnEvent(tick=0, channel=0, data=[84, 62]),
   midi.NoteOnEvent(tick=240, channel=0, data=[84, 0]),
   midi.NoteOnEvent(tick=0, channel=0, data=[78, 55]),
   midi.NoteOnEvent(tick=480, channel=0, data=[78, 0]),
   midi.NoteOnEvent(tick=0, channel=0, data=[83, 62]),
   midi.NoteOnEvent(tick=240, channel=0, data=[83, 0]),
   midi.NoteOnEvent(tick=0, channel=0, data=[77, 54]),
   midi.NoteOnEvent(tick=480, channel=0, data=[77, 0]),
   midi.NoteOnEvent(tick=0, channel=0, data=[82, 60]),
   midi.NoteOnEvent(tick=240, channel=0, data=[82, 0]),
   midi.NoteOnEvent(tick=0, channel=0, data=[76, 52]),
   midi.NoteOnEvent(tick=480, channel=0, data=[76, 0]),
   midi.NoteOnEvent(tick=0, channel=0, data=[81, 58]),
   midi.NoteOnEvent(tick=240, channel=0, data=[81, 0]),
   midi.NoteOnEvent(tick=0, channel=0, data=[75, 51]),
   midi.NoteOnEvent(tick=480, channel=0, data=[75, 0]),
   midi.NoteOnEvent(tick=0, channel=0, data=[80, 60]),
   midi.NoteOnEvent(tick=480, channel=0, data=[68, 43]),
   midi.NoteOnEvent(tick=90, channel=0, data=[68, 0]),
   midi.NoteOnEvent(tick=30, channel=0, data=[70, 44]),
   midi.NoteOnEvent(tick=90, channel=0, data=[70, 0]),
   midi.NoteOnEvent(tick=30, channel=0, data=[72, 45]),
   midi.NoteOnEvent(tick=90, channel=0, data=[72, 0]),
   midi.NoteOnEvent(tick=30, channel=0, data=[73, 46]),
   midi.NoteOnEvent(tick=90, channel=0, data=[73, 0]),
   midi.NoteOnEvent(tick=30, channel=0, data=[74, 47]),
   midi.NoteOnEvent(tick=90, channel=0, data=[74, 0]),
   midi.NoteOnEvent(tick=30, channel=0, data=[75, 48]),
   midi.NoteOnEvent(tick=90, channel=0, data=[75, 0]),
   midi.NoteOnEvent(tick=30, channel=0, data=[77, 50]),
   midi.NoteOnEvent(tick=90, channel=0, data=[77, 0]),
   midi.NoteOnEvent(tick=30, channel=0, data=[78, 51]),
   midi.NoteOnEvent(tick=90, channel=0, data=[78, 0]),
   midi.NoteOnEvent(tick=30, channel=0, data=[77, 54]),
   midi.NoteOnEvent(tick=480, channel=0, data=[77, 0]),
   midi.NoteOnEvent(tick=0, channel=0, data=[80, 0]),
   midi.NoteOnEvent(tick=240, channel=0, data=[85, 55]),
   midi.NoteOnEvent(tick=180, channel=0, data=[94, 41]),
   midi.NoteOnEvent(tick=60, channel=0, data=[94, 0]),
   midi.NoteOnEvent(tick=0, channel=0, data=[85, 0]),
   midi.NoteOnEvent(tick=0, channel=0, data=[79, 49]),
   midi.NoteOnEvent(tick=480, channel=0, data=[79, 0]),
   midi.NoteOnEvent(tick=0, channel=0, data=[84, 55]),
   midi.NoteOnEvent(tick=180, channel=0, data=[93, 41]),
   midi.NoteOnEvent(tick=60, channel=0, data=[93, 0]),
   midi.NoteOnEvent(tick=0, channel=0, data=[84, 0]),
   midi.NoteOnEvent(tick=0, channel=0, data=[78, 49]),
   midi.NoteOnEvent(tick=480, channel=0, data=[78, 0]),
   midi.NoteOnEvent(tick=0, channel=0, data=[83, 55]),
   midi.NoteOnEvent(tick=180, channel=0, data=[92, 41]),
   midi.NoteOnEvent(tick=60, channel=0, data=[92, 0]),
   midi.NoteOnEvent(tick=0, channel=0, data=[83, 0]),
   midi.NoteOnEvent(tick=0, channel=0, data=[77, 49]),
   midi.NoteOnEvent(tick=480, channel=0, data=[77, 0]),
   midi.NoteOnEvent(tick=0, channel=0, data=[82, 55]),
   midi.NoteOnEvent(tick=180, channel=0, data=[91, 41]),
   midi.NoteOnEvent(tick=60, channel=0, data=[91, 0]),
   midi.NoteOnEvent(tick=0, channel=0, data=[82, 0]),
   midi.NoteOnEvent(tick=0, channel=0, data=[76, 49]),
   midi.NoteOnEvent(tick=480, channel=0, data=[76, 0]),
   midi.NoteOnEvent(tick=0, channel=0, data=[81, 55]),
   midi.NoteOnEvent(tick=180, channel=0, data=[90, 41]),
   midi.NoteOnEvent(tick=60, channel=0, data=[90, 0]),
   midi.NoteOnEvent(tick=0, channel=0, data=[81, 0]),
   midi.NoteOnEvent(tick=0, channel=0, data=[75, 49]),
   midi.NoteOnEvent(tick=480, channel=0, data=[75, 0]),
   midi.NoteOnEvent(tick=0, channel=0, data=[80, 55]),
   midi.NoteOnEvent(tick=840, channel=0, data=[79, 47]),
   midi.NoteOnEvent(tick=90, channel=0, data=[79, 0]),
   midi.NoteOnEvent(tick=30, channel=0, data=[78, 46]),
   midi.NoteOnEvent(tick=90, channel=0, data=[78, 0]),
   midi.NoteOnEvent(tick=30, channel=0, data=[77, 45]),
   midi.NoteOnEvent(tick=90, channel=0, data=[77, 0]),
   midi.NoteOnEvent(tick=30, channel=0, data=[75, 45]),
   midi.NoteOnEvent(tick=90, channel=0, data=[75, 0]),
   midi.NoteOnEvent(tick=30, channel=0, data=[77, 43]),
   midi.NoteOnEvent(tick=90, channel=0, data=[77, 0]),
   midi.NoteOnEvent(tick=30, channel=0, data=[73, 52]),
   midi.NoteOnEvent(tick=720, channel=0, data=[80, 0]),
   midi.NoteOnEvent(tick=0, channel=0, data=[77, 46]),
   midi.NoteOnEvent(tick=120, channel=0, data=[77, 0]),
   midi.NoteOnEvent(tick=0, channel=0, data=[78, 45]),
   midi.NoteOnEvent(tick=120, channel=0, data=[78, 0]),
   midi.NoteOnEvent(tick=0, channel=0, data=[79, 46]),
   midi.NoteOnEvent(tick=120, channel=0, data=[79, 0]),
   midi.NoteOnEvent(tick=0, channel=0, data=[80, 48]),
   midi.NoteOnEvent(tick=120, channel=0, data=[80, 0]),
   midi.NoteOnEvent(tick=0, channel=0, data=[84, 48]),
   midi.NoteOnEvent(tick=120, channel=0, data=[84, 0]),
   midi.NoteOnEvent(tick=0, channel=0, data=[82, 47]),
   midi.NoteOnEvent(tick=120, channel=0, data=[82, 0]),
   midi.NoteOnEvent(tick=0, channel=0, data=[73, 0]),
   midi.NoteOnEvent(tick=0, channel=0, data=[72, 45]),
   midi.NoteOnEvent(tick=0, channel=0, data=[80, 53]),
   midi.NoteOnEvent(tick=120, channel=0, data=[72, 0]),
   midi.NoteOnEvent(tick=0, channel=0, data=[73, 45]),
   midi.NoteOnEvent(tick=120, channel=0, data=[73, 0]),
   midi.NoteOnEvent(tick=0, channel=0, data=[74, 45]),
   midi.NoteOnEvent(tick=120, channel=0, data=[74, 0]),
   midi.NoteOnEvent(tick=0, channel=0, data=[75, 45]),
   midi.NoteOnEvent(tick=120, channel=0, data=[75, 0]),
   midi.NoteOnEvent(tick=0, channel=0, data=[78, 44]),
   midi.NoteOnEvent(tick=120, channel=0, data=[78, 0]),
   midi.NoteOnEvent(tick=0, channel=0, data=[77, 44]),
   midi.NoteOnEvent(tick=120, channel=0, data=[77, 0]),
   midi.NoteOnEvent(tick=0, channel=0, data=[75, 44]),
   midi.NoteOnEvent(tick=120, channel=0, data=[80, 0]),
   midi.NoteOnEvent(tick=0, channel=0, data=[79, 44]),
   midi.NoteOnEvent(tick=120, channel=0, data=[79, 0]),
   midi.NoteOnEvent(tick=0, channel=0, data=[78, 43]),
   midi.NoteOnEvent(tick=120, channel=0, data=[78, 0]),
   midi.NoteOnEvent(tick=0, channel=0, data=[77, 42]),
   midi.NoteOnEvent(tick=120, channel=0, data=[77, 0]),
   midi.NoteOnEvent(tick=0, channel=0, data=[75, 0]),
   midi.NoteOnEvent(tick=0, channel=0, data=[68, 40]),
   midi.NoteOnEvent(tick=0, channel=0, data=[75, 42]),
   midi.NoteOnEvent(tick=120, channel=0, data=[75, 0]),
   midi.NoteOnEvent(tick=0, channel=0, data=[77, 39]),
   midi.NoteOnEvent(tick=120, channel=0, data=[77, 0]),
   midi.NoteOnEvent(tick=0, channel=0, data=[68, 0]),
   midi.NoteOnEvent(tick=0, channel=0, data=[69, 43]),
   midi.NoteOnEvent(tick=0, channel=0, data=[73, 48]),
   midi.NoteOnEvent(tick=120, channel=0, data=[69, 0]),
   midi.NoteOnEvent(tick=0, channel=0, data=[68, 43]),
   midi.NoteOnEvent(tick=120, channel=0, data=[68, 0]),
   midi.NoteOnEvent(tick=0, channel=0, data=[67, 43]),
   midi.NoteOnEvent(tick=120, channel=0, data=[67, 0]),
   midi.NoteOnEvent(tick=0, channel=0, data=[68, 43]),
   midi.NoteOnEvent(tick=60, channel=0, data=[72, 37]),
   midi.NoteOnEvent(tick=60, channel=0, data=[72, 0]),
   midi.NoteOnEvent(tick=0, channel=0, data=[68, 0]),
   midi.NoteOnEvent(tick=0, channel=0, data=[70, 43]),
   midi.NoteOnEvent(tick=120, channel=0, data=[70, 0]),
   midi.NoteOnEvent(tick=0, channel=0, data=[68, 42]),
   midi.NoteOnEvent(tick=120, channel=0, data=[68, 0]),
   midi.NoteOnEvent(tick=0, channel=0, data=[73, 0]),
   midi.NoteOnEvent(tick=0, channel=0, data=[68, 42]),
   midi.NoteOnEvent(tick=0, channel=0, data=[77, 42]),
   midi.NoteOnEvent(tick=120, channel=0, data=[77, 0]),
   midi.NoteOnEvent(tick=0, channel=0, data=[78, 41]),
   midi.NoteOnEvent(tick=120, channel=0, data=[78, 0]),
   midi.NoteOnEvent(tick=0, channel=0, data=[79, 42]),
   midi.NoteOnEvent(tick=120, channel=0, data=[79, 0]),
   midi.NoteOnEvent(tick=0, channel=0, data=[80, 44]),
   midi.NoteOnEvent(tick=120, channel=0, data=[80, 0]),
   midi.NoteOnEvent(tick=0, channel=0, data=[68, 0]),
   midi.NoteOnEvent(tick=0, channel=0, data=[84, 45]),
   midi.NoteOnEvent(tick=120, channel=0, data=[84, 0]),
   midi.NoteOnEvent(tick=0, channel=0, data=[82, 44]),
   midi.NoteOnEvent(tick=120, channel=0, data=[82, 0]),
   midi.NoteOnEvent(tick=0, channel=0, data=[72, 41]),
   midi.NoteOnEvent(tick=0, channel=0, data=[80, 48]),
   midi.NoteOnEvent(tick=120, channel=0, data=[72, 0]),
   midi.NoteOnEvent(tick=0, channel=0, data=[73, 41]),
   midi.NoteOnEvent(tick=120, channel=0, data=[73, 0]),
   midi.NoteOnEvent(tick=0, channel=0, data=[74, 41]),
   midi.NoteOnEvent(tick=120, channel=0, data=[74, 0]),
   midi.NoteOnEvent(tick=0, channel=0, data=[75, 41]),
   midi.NoteOnEvent(tick=120, channel=0, data=[75, 0]),
   midi.NoteOnEvent(tick=0, channel=0, data=[78, 41]),
   midi.NoteOnEvent(tick=120, channel=0, data=[78, 0]),
   midi.NoteOnEvent(tick=0, channel=0, data=[77, 41]),
   midi.NoteOnEvent(tick=120, channel=0, data=[77, 0]),
   midi.NoteOnEvent(tick=0, channel=0, data=[75, 40]),
   midi.NoteOnEvent(tick=120, channel=0, data=[80, 0]),
   midi.NoteOnEvent(tick=0, channel=0, data=[79, 40]),
   midi.NoteOnEvent(tick=120, channel=0, data=[79, 0]),
   midi.NoteOnEvent(tick=0, channel=0, data=[78, 40]),
   midi.NoteOnEvent(tick=120, channel=0, data=[78, 0]),
   midi.NoteOnEvent(tick=0, channel=0, data=[77, 38]),
   midi.NoteOnEvent(tick=120, channel=0, data=[77, 0]),
   midi.NoteOnEvent(tick=0, channel=0, data=[75, 0]),
   midi.NoteOnEvent(tick=0, channel=0, data=[68, 36]),
   midi.NoteOnEvent(tick=0, channel=0, data=[75, 38]),
   midi.NoteOnEvent(tick=120, channel=0, data=[75, 0]),
   midi.NoteOnEvent(tick=0, channel=0, data=[77, 36]),
   midi.NoteOnEvent(tick=120, channel=0, data=[77, 0]),
   midi.NoteOnEvent(tick=0, channel=0, data=[68, 0]),
   midi.NoteOnEvent(tick=0, channel=0, data=[65, 34]),
   midi.NoteOnEvent(tick=0, channel=0, data=[73, 39]),
   midi.NoteOnEvent(tick=1440, channel=0, data=[73, 0]),
   midi.NoteOnEvent(tick=0, channel=0, data=[65, 0]),
   midi.NoteOnEvent(tick=0, channel=0, data=[68, 31]),
   midi.NoteOnEvent(tick=0, channel=0, data=[77, 37]),
   midi.NoteOnEvent(tick=90, channel=0, data=[77, 0]),
   midi.NoteOnEvent(tick=0, channel=0, data=[68, 0]),
   midi.NoteOnEvent(tick=12, channel=0, data=[70, 31]),
   midi.NoteOnEvent(tick=0, channel=0, data=[78, 37]),
   midi.NoteOnEvent(tick=90, channel=0, data=[78, 0]),
   midi.NoteOnEvent(tick=0, channel=0, data=[70, 0]),
   midi.NoteOnEvent(tick=12, channel=0, data=[72, 31]),
   midi.NoteOnEvent(tick=0, channel=0, data=[80, 37]),
   midi.NoteOnEvent(tick=90, channel=0, data=[80, 0]),
   midi.NoteOnEvent(tick=0, channel=0, data=[72, 0]),
   midi.NoteOnEvent(tick=12, channel=0, data=[73, 30]),
   midi.NoteOnEvent(tick=0, channel=0, data=[82, 36]),
   midi.NoteOnEvent(tick=90, channel=0, data=[82, 0]),
   midi.NoteOnEvent(tick=0, channel=0, data=[73, 0]),
   midi.NoteOnEvent(tick=12, channel=0, data=[75, 30]),
   midi.NoteOnEvent(tick=0, channel=0, data=[84, 36]),
   midi.NoteOnEvent(tick=90, channel=0, data=[84, 0]),
   midi.NoteOnEvent(tick=0, channel=0, data=[75, 0]),
   midi.NoteOnEvent(tick=12, channel=0, data=[77, 29]),
   midi.NoteOnEvent(tick=0, channel=0, data=[85, 35]),
   midi.NoteOnEvent(tick=90, channel=0, data=[85, 0]),
   midi.NoteOnEvent(tick=0, channel=0, data=[77, 0]),
   midi.NoteOnEvent(tick=12, channel=0, data=[78, 29]),
   midi.NoteOnEvent(tick=0, channel=0, data=[87, 35]),
   midi.NoteOnEvent(tick=90, channel=0, data=[87, 0]),
   midi.NoteOnEvent(tick=0, channel=0, data=[78, 0]),
   midi.NoteOnEvent(tick=18, channel=0, data=[80, 28]),
   midi.NoteOnEvent(tick=0, channel=0, data=[89, 34]),
   midi.NoteOnEvent(tick=90, channel=0, data=[89, 0]),
   midi.NoteOnEvent(tick=0, channel=0, data=[80, 0]),
   midi.NoteOnEvent(tick=12, channel=0, data=[82, 28]),
   midi.NoteOnEvent(tick=0, channel=0, data=[90, 34]),
   midi.NoteOnEvent(tick=90, channel=0, data=[90, 0]),
   midi.NoteOnEvent(tick=0, channel=0, data=[82, 0]),
   midi.NoteOnEvent(tick=12, channel=0, data=[84, 28]),
   midi.NoteOnEvent(tick=0, channel=0, data=[92, 33]),
   midi.NoteOnEvent(tick=90, channel=0, data=[92, 0]),
   midi.NoteOnEvent(tick=0, channel=0, data=[84, 0]),
   midi.NoteOnEvent(tick=12, channel=0, data=[85, 28]),
   midi.NoteOnEvent(tick=0, channel=0, data=[94, 33]),
   midi.NoteOnEvent(tick=90, channel=0, data=[94, 0]),
   midi.NoteOnEvent(tick=0, channel=0, data=[85, 0]),
   midi.NoteOnEvent(tick=12, channel=0, data=[87, 27]),
   midi.NoteOnEvent(tick=0, channel=0, data=[96, 32]),
   midi.NoteOnEvent(tick=90, channel=0, data=[96, 0]),
   midi.NoteOnEvent(tick=0, channel=0, data=[87, 0]),
   midi.NoteOnEvent(tick=12, channel=0, data=[89, 27]),
   midi.NoteOnEvent(tick=0, channel=0, data=[97, 32]),
   midi.NoteOnEvent(tick=90, channel=0, data=[97, 0]),
   midi.NoteOnEvent(tick=0, channel=0, data=[89, 0]),
   midi.NoteOnEvent(tick=12, channel=0, data=[90, 27]),
   midi.NoteOnEvent(tick=0, channel=0, data=[99, 32]),
   midi.NoteOnEvent(tick=90, channel=0, data=[99, 0]),
   midi.NoteOnEvent(tick=0, channel=0, data=[90, 0]),
   midi.NoteOnEvent(tick=18, channel=0, data=[101, 36]),
   midi.NoteOnEvent(tick=0, channel=0, data=[92, 30]),
   midi.NoteOnEvent(tick=480, channel=0, data=[92, 0]),
   midi.NoteOnEvent(tick=0, channel=0, data=[101, 0]),
   midi.NoteOnEvent(tick=240, channel=0, data=[68, 30]),
   midi.NoteOnEvent(tick=0, channel=0, data=[77, 36]),
   midi.NoteOnEvent(tick=720, channel=0, data=[77, 0]),
   midi.NoteOnEvent(tick=0, channel=0, data=[68, 0]),
   midi.NoteOnEvent(tick=0, channel=0, data=[65, 28]),
   midi.NoteOnEvent(tick=0, channel=0, data=[73, 33]),
   midi.NoteOnEvent(tick=1440, channel=0, data=[73, 0]),
   midi.NoteOnEvent(tick=0, channel=0, data=[65, 0]),
   midi.EndOfTrackEvent(tick=0, data=[])]),
 midi.Track(\
[    midi.ControlChangeEvent(tick=0, channel=0, data=[7, 100]),
   midi.ControlChangeEvent(tick=0, channel=0, data=[10, 64]),
   midi.NoteOnEvent(tick=0, channel=0, data=[37, 30]),
   midi.ControlChangeEvent(tick=0, channel=0, data=[64, 127]),
   midi.NoteOnEvent(tick=120, channel=0, data=[37, 0]),
   midi.NoteOnEvent(tick=0, channel=0, data=[65, 26]),
   midi.NoteOnEvent(tick=120, channel=0, data=[65, 0]),
   midi.NoteOnEvent(tick=0, channel=0, data=[56, 26]),
   midi.NoteOnEvent(tick=120, channel=0, data=[56, 0]),
   midi.NoteOnEvent(tick=0, channel=0, data=[65, 26]),
   midi.NoteOnEvent(tick=120, channel=0, data=[65, 0]),
   midi.NoteOnEvent(tick=0, channel=0, data=[61, 26]),
   midi.NoteOnEvent(tick=120, channel=0, data=[61, 0]),
   midi.NoteOnEvent(tick=0, channel=0, data=[53, 26]),
   midi.NoteOnEvent(tick=120, channel=0, data=[53, 0]),
   midi.NoteOnEvent(tick=0, channel=0, data=[49, 30]),
   midi.NoteOnEvent(tick=120, channel=0, data=[49, 0]),
   midi.NoteOnEvent(tick=0, channel=0, data=[65, 26]),
   midi.NoteOnEvent(tick=120, channel=0, data=[65, 0]),
   midi.NoteOnEvent(tick=0, channel=0, data=[56, 26]),
   midi.NoteOnEvent(tick=120, channel=0, data=[56, 0]),
   midi.NoteOnEvent(tick=0, channel=0, data=[65, 25]),
   midi.NoteOnEvent(tick=120, channel=0, data=[65, 0]),
   midi.NoteOnEvent(tick=0, channel=0, data=[61, 28]),
   midi.NoteOnEvent(tick=120, channel=0, data=[61, 0]),
   midi.NoteOnEvent(tick=0, channel=0, data=[53, 25]),
   midi.NoteOnEvent(tick=120, channel=0, data=[53, 0]),
   midi.NoteOnEvent(tick=0, channel=0, data=[49, 30]),
   midi.NoteOnEvent(tick=120, channel=0, data=[49, 0]),
   midi.NoteOnEvent(tick=0, channel=0, data=[65, 26]),
   midi.NoteOnEvent(tick=120, channel=0, data=[65, 0]),
   midi.NoteOnEvent(tick=0, channel=0, data=[56, 26]),
   midi.NoteOnEvent(tick=120, channel=0, data=[56, 0]),
   midi.NoteOnEvent(tick=0, channel=0, data=[65, 26]),
   midi.NoteOnEvent(tick=120, channel=0, data=[65, 0]),
   midi.NoteOnEvent(tick=0, channel=0, data=[61, 26]),
   midi.NoteOnEvent(tick=120, channel=0, data=[61, 0]),
   midi.NoteOnEvent(tick=0, channel=0, data=[53, 26]),
   midi.NoteOnEvent(tick=120, channel=0, data=[53, 0]),
   midi.NoteOnEvent(tick=0, channel=0, data=[49, 30]),
   midi.NoteOnEvent(tick=120, channel=0, data=[49, 0]),
   midi.NoteOnEvent(tick=0, channel=0, data=[65, 26]),
   midi.NoteOnEvent(tick=120, channel=0, data=[65, 0]),
   midi.NoteOnEvent(tick=0, channel=0, data=[56, 26]),
   midi.NoteOnEvent(tick=120, channel=0, data=[56, 0]),
   midi.NoteOnEvent(tick=0, channel=0, data=[65, 26]),
   midi.NoteOnEvent(tick=120, channel=0, data=[65, 0]),
   midi.NoteOnEvent(tick=0, channel=0, data=[61, 26]),
   midi.NoteOnEvent(tick=120, channel=0, data=[61, 0]),
   midi.NoteOnEvent(tick=0, channel=0, data=[53, 26]),
   midi.NoteOnEvent(tick=120, channel=0, data=[53, 0]),
   midi.NoteOnEvent(tick=0, channel=0, data=[49, 30]),
   midi.NoteOnEvent(tick=120, channel=0, data=[49, 0]),
   midi.NoteOnEvent(tick=0, channel=0, data=[65, 28]),
   midi.NoteOnEvent(tick=120, channel=0, data=[65, 0]),
   midi.NoteOnEvent(tick=0, channel=0, data=[56, 28]),
   midi.NoteOnEvent(tick=120, channel=0, data=[56, 0]),
   midi.NoteOnEvent(tick=0, channel=0, data=[65, 27]),
   midi.NoteOnEvent(tick=120, channel=0, data=[65, 0]),
   midi.NoteOnEvent(tick=0, channel=0, data=[61, 27]),
   midi.NoteOnEvent(tick=120, channel=0, data=[61, 0]),
   midi.NoteOnEvent(tick=0, channel=0, data=[53, 27]),
   midi.NoteOnEvent(tick=120, channel=0, data=[53, 0]),
   midi.NoteOnEvent(tick=0, channel=0, data=[49, 31]),
   midi.NoteOnEvent(tick=120, channel=0, data=[49, 0]),
   midi.NoteOnEvent(tick=0, channel=0, data=[65, 27]),
   midi.NoteOnEvent(tick=120, channel=0, data=[65, 0]),
   midi.NoteOnEvent(tick=0, channel=0, data=[56, 27]),
   midi.NoteOnEvent(tick=120, channel=0, data=[56, 0]),
   midi.NoteOnEvent(tick=0, channel=0, data=[65, 28]),
   midi.NoteOnEvent(tick=120, channel=0, data=[65, 0]),
   midi.NoteOnEvent(tick=0, channel=0, data=[61, 28]),
   midi.NoteOnEvent(tick=120, channel=0, data=[61, 0]),
   midi.NoteOnEvent(tick=0, channel=0, data=[53, 30]),
   midi.NoteOnEvent(tick=120, channel=0, data=[53, 0]),
   midi.NoteOnEvent(tick=0, channel=0, data=[49, 34]),
   midi.NoteOnEvent(tick=120, channel=0, data=[49, 0]),
   midi.NoteOnEvent(tick=0, channel=0, data=[65, 29]),
   midi.NoteOnEvent(tick=120, channel=0, data=[65, 0]),
   midi.NoteOnEvent(tick=0, channel=0, data=[56, 28]),
   midi.NoteOnEvent(tick=120, channel=0, data=[56, 0]),
   midi.NoteOnEvent(tick=0, channel=0, data=[65, 28]),
   midi.NoteOnEvent(tick=120, channel=0, data=[65, 0]),
   midi.NoteOnEvent(tick=0, channel=0, data=[61, 28]),
   midi.NoteOnEvent(tick=120, channel=0, data=[61, 0]),
   midi.NoteOnEvent(tick=0, channel=0, data=[53, 27]),
   midi.NoteOnEvent(tick=120, channel=0, data=[53, 0]),
   midi.NoteOnEvent(tick=0, channel=0, data=[49, 30]),
   midi.NoteOnEvent(tick=120, channel=0, data=[49, 0]),
   midi.NoteOnEvent(tick=0, channel=0, data=[65, 26]),
   midi.NoteOnEvent(tick=120, channel=0, data=[65, 0]),
   midi.NoteOnEvent(tick=0, channel=0, data=[56, 26]),
   midi.NoteOnEvent(tick=120, channel=0, data=[56, 0]),
   midi.NoteOnEvent(tick=0, channel=0, data=[65, 25]),
   midi.NoteOnEvent(tick=120, channel=0, data=[65, 0]),
   midi.NoteOnEvent(tick=0, channel=0, data=[61, 25]),
   midi.NoteOnEvent(tick=120, channel=0, data=[61, 0]),
   midi.NoteOnEvent(tick=0, channel=0, data=[53, 24]),
   midi.NoteOnEvent(tick=120, channel=0, data=[53, 0]),
   midi.NoteOnEvent(tick=0, channel=0, data=[37, 30]),
   midi.ControlChangeEvent(tick=12, channel=0, data=[64, 0]),
   midi.ControlChangeEvent(tick=57, channel=0, data=[64, 127]),
   midi.NoteOnEvent(tick=51, channel=0, data=[37, 0]),
   midi.NoteOnEvent(tick=0, channel=0, data=[66, 26]),
   midi.NoteOnEvent(tick=120, channel=0, data=[66, 0]),
   midi.NoteOnEvent(tick=0, channel=0, data=[57, 26]),
   midi.NoteOnEvent(tick=120, channel=0, data=[57, 0]),
   midi.NoteOnEvent(tick=0, channel=0, data=[66, 26]),
   midi.NoteOnEvent(tick=120, channel=0, data=[66, 0]),
   midi.NoteOnEvent(tick=0, channel=0, data=[63, 26]),
   midi.NoteOnEvent(tick=120, channel=0, data=[63, 0]),
   midi.NoteOnEvent(tick=0, channel=0, data=[54, 26]),
   midi.NoteOnEvent(tick=120, channel=0, data=[54, 0]),
   midi.NoteOnEvent(tick=0, channel=0, data=[49, 30]),
   midi.NoteOnEvent(tick=120, channel=0, data=[49, 0]),
   midi.NoteOnEvent(tick=0, channel=0, data=[66, 26]),
   midi.NoteOnEvent(tick=120, channel=0, data=[66, 0]),
   midi.NoteOnEvent(tick=0, channel=0, data=[57, 26]),
   midi.NoteOnEvent(tick=120, channel=0, data=[57, 0]),
   midi.NoteOnEvent(tick=0, channel=0, data=[66, 25]),
   midi.NoteOnEvent(tick=120, channel=0, data=[66, 0]),
   midi.NoteOnEvent(tick=0, channel=0, data=[63, 28]),
   midi.NoteOnEvent(tick=120, channel=0, data=[63, 0]),
   midi.NoteOnEvent(tick=0, channel=0, data=[57, 25]),
   midi.NoteOnEvent(tick=120, channel=0, data=[57, 0]),
   midi.NoteOnEvent(tick=0, channel=0, data=[49, 30]),
   midi.ControlChangeEvent(tick=13, channel=0, data=[64, 0]),
   midi.ControlChangeEvent(tick=56, channel=0, data=[64, 127]),
   midi.NoteOnEvent(tick=51, channel=0, data=[49, 0]),
   midi.NoteOnEvent(tick=0, channel=0, data=[66, 26]),
   midi.NoteOnEvent(tick=120, channel=0, data=[66, 0]),
   midi.NoteOnEvent(tick=0, channel=0, data=[58, 26]),
   midi.NoteOnEvent(tick=120, channel=0, data=[58, 0]),
   midi.NoteOnEvent(tick=0, channel=0, data=[66, 26]),
   midi.NoteOnEvent(tick=120, channel=0, data=[66, 0]),
   midi.NoteOnEvent(tick=0, channel=0, data=[63, 26]),
   midi.NoteOnEvent(tick=120, channel=0, data=[63, 0]),
   midi.NoteOnEvent(tick=0, channel=0, data=[54, 26]),
   midi.NoteOnEvent(tick=120, channel=0, data=[54, 0]),
   midi.NoteOnEvent(tick=0, channel=0, data=[49, 30]),
   midi.NoteOnEvent(tick=120, channel=0, data=[49, 0]),
   midi.NoteOnEvent(tick=0, channel=0, data=[66, 26]),
   midi.NoteOnEvent(tick=120, channel=0, data=[66, 0]),
   midi.NoteOnEvent(tick=0, channel=0, data=[58, 26]),
   midi.NoteOnEvent(tick=120, channel=0, data=[58, 0]),
   midi.NoteOnEvent(tick=0, channel=0, data=[66, 25]),
   midi.NoteOnEvent(tick=120, channel=0, data=[66, 0]),
   midi.NoteOnEvent(tick=0, channel=0, data=[63, 28]),
   midi.NoteOnEvent(tick=120, channel=0, data=[63, 0]),
   midi.NoteOnEvent(tick=0, channel=0, data=[54, 25]),
   midi.NoteOnEvent(tick=120, channel=0, data=[54, 0]),
   midi.NoteOnEvent(tick=0, channel=0, data=[48, 30]),
   midi.ControlChangeEvent(tick=17, channel=0, data=[64, 0]),
   midi.ControlChangeEvent(tick=57, channel=0, data=[64, 127]),
   midi.NoteOnEvent(tick=46, channel=0, data=[48, 0]),
   midi.NoteOnEvent(tick=0, channel=0, data=[66, 26]),
   midi.NoteOnEvent(tick=120, channel=0, data=[66, 0]),
   midi.NoteOnEvent(tick=0, channel=0, data=[57, 25]),
   midi.NoteOnEvent(tick=120, channel=0, data=[57, 0]),
   midi.NoteOnEvent(tick=0, channel=0, data=[66, 24]),
   midi.NoteOnEvent(tick=120, channel=0, data=[66, 0]),
   midi.NoteOnEvent(tick=0, channel=0, data=[63, 23]),
   midi.NoteOnEvent(tick=120, channel=0, data=[63, 0]),
   midi.NoteOnEvent(tick=0, channel=0, data=[54, 23]),
   midi.NoteOnEvent(tick=120, channel=0, data=[54, 0]),
   midi.NoteOnEvent(tick=0, channel=0, data=[46, 31]),
   midi.ControlChangeEvent(tick=17, channel=0, data=[64, 0]),
   midi.ControlChangeEvent(tick=63, channel=0, data=[64, 127]),
   midi.NoteOnEvent(tick=40, channel=0, data=[46, 0]),
   midi.NoteOnEvent(tick=0, channel=0, data=[66, 27]),
   midi.NoteOnEvent(tick=120, channel=0, data=[66, 0]),
   midi.NoteOnEvent(tick=0, channel=0, data=[58, 28]),
   midi.NoteOnEvent(tick=120, channel=0, data=[58, 0]),
   midi.NoteOnEvent(tick=0, channel=0, data=[66, 30]),
   midi.NoteOnEvent(tick=120, channel=0, data=[66, 0]),
   midi.NoteOnEvent(tick=0, channel=0, data=[63, 31]),
   midi.NoteOnEvent(tick=120, channel=0, data=[63, 0]),
   midi.NoteOnEvent(tick=0, channel=0, data=[54, 34]),
   midi.NoteOnEvent(tick=120, channel=0, data=[54, 0]),
   midi.NoteOnEvent(tick=0, channel=0, data=[45, 38]),
   midi.ControlChangeEvent(tick=12, channel=0, data=[64, 0]),
   midi.ControlChangeEvent(tick=43, channel=0, data=[64, 127]),
   midi.NoteOnEvent(tick=65, channel=0, data=[45, 0]),
   midi.NoteOnEvent(tick=0, channel=0, data=[66, 28]),
   midi.NoteOnEvent(tick=120, channel=0, data=[66, 0]),
   midi.NoteOnEvent(tick=0, channel=0, data=[57, 27]),
   midi.NoteOnEvent(tick=120, channel=0, data=[57, 0]),
   midi.NoteOnEvent(tick=0, channel=0, data=[66, 25]),
   midi.NoteOnEvent(tick=120, channel=0, data=[66, 0]),
   midi.NoteOnEvent(tick=0, channel=0, data=[61, 24]),
   midi.NoteOnEvent(tick=120, channel=0, data=[61, 0]),
   midi.NoteOnEvent(tick=0, channel=0, data=[51, 23]),
   midi.NoteOnEvent(tick=120, channel=0, data=[51, 0]),
   midi.NoteOnEvent(tick=0, channel=0, data=[44, 30]),
   midi.ControlChangeEvent(tick=17, channel=0, data=[64, 0]),
   midi.ControlChangeEvent(tick=48, channel=0, data=[64, 127]),
   midi.NoteOnEvent(tick=55, channel=0, data=[44, 0]),
   midi.NoteOnEvent(tick=0, channel=0, data=[66, 24]),
   midi.NoteOnEvent(tick=120, channel=0, data=[66, 0]),
   midi.NoteOnEvent(tick=0, channel=0, data=[56, 26]),
   midi.NoteOnEvent(tick=120, channel=0, data=[56, 0]),
   midi.NoteOnEvent(tick=0, channel=0, data=[66, 28]),
   midi.NoteOnEvent(tick=120, channel=0, data=[66, 0]),
   midi.NoteOnEvent(tick=0, channel=0, data=[60, 29]),
   midi.NoteOnEvent(tick=120, channel=0, data=[60, 0]),
   midi.NoteOnEvent(tick=0, channel=0, data=[51, 30]),
   midi.NoteOnEvent(tick=120, channel=0, data=[51, 0]),
   midi.NoteOnEvent(tick=0, channel=0, data=[37, 38]),
   midi.ControlChangeEvent(tick=16, channel=0, data=[64, 0]),
   midi.ControlChangeEvent(tick=39, channel=0, data=[64, 127]),
   midi.NoteOnEvent(tick=65, channel=0, data=[37, 0]),
   midi.NoteOnEvent(tick=0, channel=0, data=[64, 29]),
   midi.NoteOnEvent(tick=60, channel=0, data=[64, 0]),
   midi.NoteOnEvent(tick=60, channel=0, data=[55, 28]),
   midi.NoteOnEvent(tick=120, channel=0, data=[55, 0]),
   midi.NoteOnEvent(tick=0, channel=0, data=[64, 28]),
   midi.NoteOnEvent(tick=60, channel=0, data=[64, 0]),
   midi.NoteOnEvent(tick=60, channel=0, data=[58, 28]),
   midi.NoteOnEvent(tick=120, channel=0, data=[58, 0]),
   midi.NoteOnEvent(tick=0, channel=0, data=[53, 27]),
   midi.NoteOnEvent(tick=120, channel=0, data=[53, 0]),
   midi.NoteOnEvent(tick=0, channel=0, data=[37, 28]),
   midi.ControlChangeEvent(tick=17, channel=0, data=[64, 0]),
   midi.ControlChangeEvent(tick=48, channel=0, data=[64, 127]),
   midi.NoteOnEvent(tick=55, channel=0, data=[37, 0]),
   midi.NoteOnEvent(tick=0, channel=0, data=[65, 23]),
   midi.NoteOnEvent(tick=120, channel=0, data=[65, 0]),
   midi.NoteOnEvent(tick=0, channel=0, data=[56, 23]),
   midi.NoteOnEvent(tick=120, channel=0, data=[56, 0]),
   midi.NoteOnEvent(tick=0, channel=0, data=[65, 23]),
   midi.NoteOnEvent(tick=120, channel=0, data=[65, 0]),
   midi.NoteOnEvent(tick=0, channel=0, data=[61, 24]),
   midi.NoteOnEvent(tick=120, channel=0, data=[61, 0]),
   midi.NoteOnEvent(tick=0, channel=0, data=[53, 25]),
   midi.NoteOnEvent(tick=120, channel=0, data=[53, 0]),
   midi.NoteOnEvent(tick=0, channel=0, data=[46, 38]),
   midi.ControlChangeEvent(tick=10, channel=0, data=[64, 0]),
   midi.ControlChangeEvent(tick=45, channel=0, data=[64, 127]),
   midi.NoteOnEvent(tick=65, channel=0, data=[46, 0]),
   midi.NoteOnEvent(tick=0, channel=0, data=[65, 28]),
   midi.NoteOnEvent(tick=120, channel=0, data=[65, 0]),
   midi.NoteOnEvent(tick=0, channel=0, data=[58, 28]),
   midi.NoteOnEvent(tick=120, channel=0, data=[58, 0]),
   midi.NoteOnEvent(tick=0, channel=0, data=[65, 27]),
   midi.NoteOnEvent(tick=120, channel=0, data=[65, 0]),
   midi.NoteOnEvent(tick=0, channel=0, data=[61, 26]),
   midi.NoteOnEvent(tick=120, channel=0, data=[61, 0]),
   midi.NoteOnEvent(tick=0, channel=0, data=[53, 26]),
   midi.NoteOnEvent(tick=120, channel=0, data=[53, 0]),
   midi.NoteOnEvent(tick=0, channel=0, data=[46, 33]),
   midi.ControlChangeEvent(tick=17, channel=0, data=[64, 0]),
   midi.ControlChangeEvent(tick=48, channel=0, data=[64, 127]),
   midi.NoteOnEvent(tick=55, channel=0, data=[46, 0]),
   midi.NoteOnEvent(tick=0, channel=0, data=[65, 28]),
   midi.NoteOnEvent(tick=120, channel=0, data=[65, 0]),
   midi.NoteOnEvent(tick=0, channel=0, data=[57, 28]),
   midi.NoteOnEvent(tick=120, channel=0, data=[57, 0]),
   midi.NoteOnEvent(tick=0, channel=0, data=[65, 28]),
   midi.NoteOnEvent(tick=120, channel=0, data=[65, 0]),
   midi.NoteOnEvent(tick=0, channel=0, data=[63, 28]),
   midi.NoteOnEvent(tick=120, channel=0, data=[63, 0]),
   midi.NoteOnEvent(tick=0, channel=0, data=[53, 27]),
   midi.NoteOnEvent(tick=120, channel=0, data=[53, 0]),
   midi.NoteOnEvent(tick=0, channel=0, data=[46, 38]),
   midi.ControlChangeEvent(tick=13, channel=0, data=[64, 0]),
   midi.ControlChangeEvent(tick=42, channel=0, data=[64, 127]),
   midi.NoteOnEvent(tick=65, channel=0, data=[46, 0]),
   midi.NoteOnEvent(tick=0, channel=0, data=[65, 28]),
   midi.NoteOnEvent(tick=120, channel=0, data=[65, 0]),
   midi.NoteOnEvent(tick=0, channel=0, data=[58, 28]),
   midi.NoteOnEvent(tick=120, channel=0, data=[58, 0]),
   midi.NoteOnEvent(tick=0, channel=0, data=[65, 27]),
   midi.NoteOnEvent(tick=120, channel=0, data=[65, 0]),
   midi.NoteOnEvent(tick=0, channel=0, data=[61, 26]),
   midi.NoteOnEvent(tick=120, channel=0, data=[61, 0]),
   midi.NoteOnEvent(tick=0, channel=0, data=[53, 26]),
   midi.NoteOnEvent(tick=120, channel=0, data=[53, 0]),
   midi.NoteOnEvent(tick=0, channel=0, data=[41, 33]),
   midi.ControlChangeEvent(tick=17, channel=0, data=[64, 0]),
   midi.ControlChangeEvent(tick=48, channel=0, data=[64, 127]),
   midi.NoteOnEvent(tick=55, channel=0, data=[41, 0]),
   midi.NoteOnEvent(tick=0, channel=0, data=[65, 28]),
   midi.NoteOnEvent(tick=120, channel=0, data=[65, 0]),
   midi.NoteOnEvent(tick=0, channel=0, data=[60, 28]),
   midi.NoteOnEvent(tick=120, channel=0, data=[60, 0]),
   midi.NoteOnEvent(tick=0, channel=0, data=[65, 26]),
   midi.NoteOnEvent(tick=120, channel=0, data=[65, 0]),
   midi.NoteOnEvent(tick=0, channel=0, data=[63, 28]),
   midi.NoteOnEvent(tick=120, channel=0, data=[63, 0]),
   midi.NoteOnEvent(tick=0, channel=0, data=[57, 30]),
   midi.NoteOnEvent(tick=120, channel=0, data=[57, 0]),
   midi.NoteOnEvent(tick=0, channel=0, data=[46, 38]),
   midi.ControlChangeEvent(tick=14, channel=0, data=[64, 0]),
   midi.ControlChangeEvent(tick=41, channel=0, data=[64, 127]),
   midi.NoteOnEvent(tick=65, channel=0, data=[46, 0]),
   midi.NoteOnEvent(tick=0, channel=0, data=[65, 28]),
   midi.NoteOnEvent(tick=120, channel=0, data=[65, 0]),
   midi.NoteOnEvent(tick=0, channel=0, data=[58, 28]),
   midi.NoteOnEvent(tick=120, channel=0, data=[58, 0]),
   midi.NoteOnEvent(tick=0, channel=0, data=[65, 27]),
   midi.NoteOnEvent(tick=120, channel=0, data=[65, 0]),
   midi.NoteOnEvent(tick=0, channel=0, data=[61, 26]),
   midi.NoteOnEvent(tick=120, channel=0, data=[61, 0]),
   midi.NoteOnEvent(tick=0, channel=0, data=[53, 26]),
   midi.NoteOnEvent(tick=120, channel=0, data=[53, 0]),
   midi.NoteOnEvent(tick=0, channel=0, data=[46, 33]),
   midi.ControlChangeEvent(tick=17, channel=0, data=[64, 0]),
   midi.ControlChangeEvent(tick=48, channel=0, data=[64, 127]),
   midi.NoteOnEvent(tick=55, channel=0, data=[46, 0]),
   midi.NoteOnEvent(tick=0, channel=0, data=[65, 28]),
   midi.NoteOnEvent(tick=120, channel=0, data=[65, 0]),
   midi.NoteOnEvent(tick=0, channel=0, data=[57, 28]),
   midi.NoteOnEvent(tick=120, channel=0, data=[57, 0]),
   midi.NoteOnEvent(tick=0, channel=0, data=[65, 28]),
   midi.NoteOnEvent(tick=120, channel=0, data=[65, 0]),
   midi.NoteOnEvent(tick=0, channel=0, data=[63, 28]),
   midi.NoteOnEvent(tick=120, channel=0, data=[63, 0]),
   midi.NoteOnEvent(tick=0, channel=0, data=[53, 27]),
   midi.NoteOnEvent(tick=120, channel=0, data=[53, 0]),
   midi.NoteOnEvent(tick=0, channel=0, data=[46, 38]),
   midi.ControlChangeEvent(tick=16, channel=0, data=[64, 0]),
   midi.ControlChangeEvent(tick=39, channel=0, data=[64, 127]),
   midi.NoteOnEvent(tick=65, channel=0, data=[46, 0]),
   midi.NoteOnEvent(tick=0, channel=0, data=[65, 28]),
   midi.NoteOnEvent(tick=120, channel=0, data=[65, 0]),
   midi.NoteOnEvent(tick=0, channel=0, data=[58, 28]),
   midi.NoteOnEvent(tick=120, channel=0, data=[58, 0]),
   midi.NoteOnEvent(tick=0, channel=0, data=[65, 27]),
   midi.NoteOnEvent(tick=120, channel=0, data=[65, 0]),
   midi.NoteOnEvent(tick=0, channel=0, data=[61, 26]),
   midi.NoteOnEvent(tick=120, channel=0, data=[61, 0]),
   midi.NoteOnEvent(tick=0, channel=0, data=[53, 26]),
   midi.NoteOnEvent(tick=120, channel=0, data=[53, 0]),
   midi.NoteOnEvent(tick=0, channel=0, data=[46, 34]),
   midi.ControlChangeEvent(tick=18, channel=0, data=[64, 0]),
   midi.ControlChangeEvent(tick=47, channel=0, data=[64, 127]),
   midi.NoteOnEvent(tick=55, channel=0, data=[46, 0]),
   midi.NoteOnEvent(tick=0, channel=0, data=[68, 28]),
   midi.NoteOnEvent(tick=120, channel=0, data=[68, 0]),
   midi.NoteOnEvent(tick=0, channel=0, data=[58, 26]),
   midi.NoteOnEvent(tick=120, channel=0, data=[58, 0]),
   midi.NoteOnEvent(tick=0, channel=0, data=[68, 28]),
   midi.NoteOnEvent(tick=120, channel=0, data=[68, 0]),
   midi.NoteOnEvent(tick=0, channel=0, data=[62, 30]),
   midi.NoteOnEvent(tick=120, channel=0, data=[62, 0]),
   midi.NoteOnEvent(tick=0, channel=0, data=[53, 32]),
   midi.NoteOnEvent(tick=120, channel=0, data=[53, 0]),
   midi.NoteOnEvent(tick=0, channel=0, data=[39, 38]),
   midi.ControlChangeEvent(tick=11, channel=0, data=[64, 0]),
   midi.ControlChangeEvent(tick=44, channel=0, data=[64, 127]),
   midi.NoteOnEvent(tick=65, channel=0, data=[39, 0]),
   midi.NoteOnEvent(tick=0, channel=0, data=[66, 31]),
   midi.NoteOnEvent(tick=120, channel=0, data=[66, 0]),
   midi.NoteOnEvent(tick=0, channel=0, data=[58, 29]),
   midi.NoteOnEvent(tick=120, channel=0, data=[58, 0]),
   midi.NoteOnEvent(tick=0, channel=0, data=[66, 29]),
   midi.NoteOnEvent(tick=120, channel=0, data=[66, 0]),
   midi.NoteOnEvent(tick=0, channel=0, data=[63, 29]),
   midi.NoteOnEvent(tick=120, channel=0, data=[63, 0]),
   midi.NoteOnEvent(tick=0, channel=0, data=[54, 29]),
   midi.NoteOnEvent(tick=120, channel=0, data=[54, 0]),
   midi.NoteOnEvent(tick=0, channel=0, data=[51, 39]),
   midi.ControlChangeEvent(tick=17, channel=0, data=[64, 0]),
   midi.ControlChangeEvent(tick=48, channel=0, data=[64, 127]),
   midi.NoteOnEvent(tick=55, channel=0, data=[51, 0]),
   midi.NoteOnEvent(tick=0, channel=0, data=[68, 30]),
   midi.NoteOnEvent(tick=120, channel=0, data=[68, 0]),
   midi.NoteOnEvent(tick=0, channel=0, data=[58, 30]),
   midi.NoteOnEvent(tick=120, channel=0, data=[58, 0]),
   midi.NoteOnEvent(tick=0, channel=0, data=[68, 30]),
   midi.NoteOnEvent(tick=120, channel=0, data=[68, 0]),
   midi.NoteOnEvent(tick=0, channel=0, data=[62, 30]),
   midi.NoteOnEvent(tick=120, channel=0, data=[62, 0]),
   midi.NoteOnEvent(tick=0, channel=0, data=[53, 30]),
   midi.NoteOnEvent(tick=120, channel=0, data=[53, 0]),
   midi.NoteOnEvent(tick=0, channel=0, data=[51, 39]),
   midi.ControlChangeEvent(tick=18, channel=0, data=[64, 0]),
   midi.ControlChangeEvent(tick=37, channel=0, data=[64, 127]),
   midi.NoteOnEvent(tick=65, channel=0, data=[51, 0]),
   midi.NoteOnEvent(tick=0, channel=0, data=[66, 31]),
   midi.NoteOnEvent(tick=120, channel=0, data=[66, 0]),
   midi.NoteOnEvent(tick=0, channel=0, data=[58, 31]),
   midi.NoteOnEvent(tick=120, channel=0, data=[58, 0]),
   midi.NoteOnEvent(tick=0, channel=0, data=[66, 31]),
   midi.NoteOnEvent(tick=120, channel=0, data=[66, 0]),
   midi.NoteOnEvent(tick=0, channel=0, data=[63, 29]),
   midi.NoteOnEvent(tick=120, channel=0, data=[63, 0]),
   midi.NoteOnEvent(tick=0, channel=0, data=[54, 29]),
   midi.NoteOnEvent(tick=120, channel=0, data=[54, 0]),
   midi.NoteOnEvent(tick=0, channel=0, data=[46, 40]),
   midi.ControlChangeEvent(tick=18, channel=0, data=[64, 0]),
   midi.ControlChangeEvent(tick=47, channel=0, data=[64, 127]),
   midi.NoteOnEvent(tick=55, channel=0, data=[46, 0]),
   midi.NoteOnEvent(tick=0, channel=0, data=[68, 30]),
   midi.NoteOnEvent(tick=120, channel=0, data=[68, 0]),
   midi.NoteOnEvent(tick=0, channel=0, data=[58, 32]),
   midi.NoteOnEvent(tick=120, channel=0, data=[58, 0]),
   midi.NoteOnEvent(tick=0, channel=0, data=[68, 34]),
   midi.NoteOnEvent(tick=120, channel=0, data=[68, 0]),
   midi.NoteOnEvent(tick=0, channel=0, data=[62, 35]),
   midi.NoteOnEvent(tick=120, channel=0, data=[62, 0]),
   midi.NoteOnEvent(tick=0, channel=0, data=[53, 37]),
   midi.NoteOnEvent(tick=120, channel=0, data=[53, 0]),
   midi.NoteOnEvent(tick=0, channel=0, data=[39, 38]),
   midi.ControlChangeEvent(tick=18, channel=0, data=[64, 0]),
   midi.ControlChangeEvent(tick=37, channel=0, data=[64, 127]),
   midi.NoteOnEvent(tick=65, channel=0, data=[39, 0]),
   midi.NoteOnEvent(tick=0, channel=0, data=[66, 28]),
   midi.NoteOnEvent(tick=120, channel=0, data=[66, 0]),
   midi.NoteOnEvent(tick=0, channel=0, data=[58, 28]),
   midi.NoteOnEvent(tick=120, channel=0, data=[58, 0]),
   midi.NoteOnEvent(tick=0, channel=0, data=[66, 27]),
   midi.NoteOnEvent(tick=120, channel=0, data=[66, 0]),
   midi.NoteOnEvent(tick=0, channel=0, data=[63, 26]),
   midi.NoteOnEvent(tick=120, channel=0, data=[63, 0]),
   midi.NoteOnEvent(tick=0, channel=0, data=[54, 26]),
   midi.ControlChangeEvent(tick=73, channel=0, data=[64, 0]),
   midi.NoteOnEvent(tick=47, channel=0, data=[54, 0]),
   midi.NoteOnEvent(tick=0, channel=0, data=[51, 33]),
   midi.ControlChangeEvent(tick=65, channel=0, data=[64, 127]),
   midi.NoteOnEvent(tick=55, channel=0, data=[51, 0]),
   midi.NoteOnEvent(tick=0, channel=0, data=[68, 28]),
   midi.NoteOnEvent(tick=120, channel=0, data=[68, 0]),
   midi.NoteOnEvent(tick=0, channel=0, data=[58, 28]),
   midi.NoteOnEvent(tick=120, channel=0, data=[58, 0]),
   midi.NoteOnEvent(tick=0, channel=0, data=[68, 28]),
   midi.NoteOnEvent(tick=120, channel=0, data=[68, 0]),
   midi.NoteOnEvent(tick=0, channel=0, data=[62, 28]),
   midi.NoteOnEvent(tick=120, channel=0, data=[62, 0]),
   midi.NoteOnEvent(tick=0, channel=0, data=[53, 27]),
   midi.NoteOnEvent(tick=120, channel=0, data=[53, 0]),
   midi.NoteOnEvent(tick=0, channel=0, data=[51, 44]),
   midi.ControlChangeEvent(tick=15, channel=0, data=[64, 0]),
   midi.ControlChangeEvent(tick=40, channel=0, data=[64, 127]),
   midi.NoteOnEvent(tick=65, channel=0, data=[51, 0]),
   midi.NoteOnEvent(tick=0, channel=0, data=[66, 34]),
   midi.NoteOnEvent(tick=120, channel=0, data=[66, 0]),
   midi.NoteOnEvent(tick=0, channel=0, data=[58, 34]),
   midi.NoteOnEvent(tick=120, channel=0, data=[58, 0]),
   midi.NoteOnEvent(tick=0, channel=0, data=[66, 34]),
   midi.NoteOnEvent(tick=120, channel=0, data=[66, 0]),
   midi.NoteOnEvent(tick=0, channel=0, data=[63, 34]),
   midi.NoteOnEvent(tick=120, channel=0, data=[63, 0]),
   midi.NoteOnEvent(tick=0, channel=0, data=[54, 34]),
   midi.NoteOnEvent(tick=120, channel=0, data=[54, 0]),
   midi.NoteOnEvent(tick=0, channel=0, data=[45, 64]),
   midi.ControlChangeEvent(tick=17, channel=0, data=[64, 0]),
   midi.ControlChangeEvent(tick=48, channel=0, data=[64, 127]),
   midi.NoteOnEvent(tick=55, channel=0, data=[61, 40]),
   midi.NoteOnEvent(tick=120, channel=0, data=[61, 0]),
   midi.NoteOnEvent(tick=0, channel=0, data=[51, 42]),
   midi.NoteOnEvent(tick=120, channel=0, data=[51, 0]),
   midi.NoteOnEvent(tick=0, channel=0, data=[61, 44]),
   midi.NoteOnEvent(tick=120, channel=0, data=[61, 0]),
   midi.NoteOnEvent(tick=0, channel=0, data=[54, 46]),
   midi.NoteOnEvent(tick=120, channel=0, data=[54, 0]),
   midi.NoteOnEvent(tick=0, channel=0, data=[45, 48]),
   midi.NoteOnEvent(tick=120, channel=0, data=[45, 0]),
   midi.NoteOnEvent(tick=0, channel=0, data=[45, 0]),
   midi.NoteOnEvent(tick=0, channel=0, data=[44, 54]),
   midi.ControlChangeEvent(tick=17, channel=0, data=[64, 0]),
   midi.ControlChangeEvent(tick=43, channel=0, data=[64, 127]),
   midi.NoteOnEvent(tick=60, channel=0, data=[44, 0]),
   midi.NoteOnEvent(tick=0, channel=0, data=[60, 47]),
   midi.NoteOnEvent(tick=120, channel=0, data=[60, 0]),
   midi.NoteOnEvent(tick=0, channel=0, data=[51, 47]),
   midi.NoteOnEvent(tick=120, channel=0, data=[51, 0]),
   midi.NoteOnEvent(tick=0, channel=0, data=[60, 47]),
   midi.NoteOnEvent(tick=120, channel=0, data=[60, 0]),
   midi.NoteOnEvent(tick=0, channel=0, data=[54, 46]),
   midi.NoteOnEvent(tick=120, channel=0, data=[54, 0]),
   midi.NoteOnEvent(tick=0, channel=0, data=[51, 46]),
   midi.NoteOnEvent(tick=120, channel=0, data=[51, 0]),
   midi.NoteOnEvent(tick=0, channel=0, data=[45, 67]),
   midi.ControlChangeEvent(tick=16, channel=0, data=[64, 0]),
   midi.ControlChangeEvent(tick=54, channel=0, data=[64, 127]),
   midi.NoteOnEvent(tick=50, channel=0, data=[57, 51]),
   midi.NoteOnEvent(tick=120, channel=0, data=[57, 0]),
   midi.NoteOnEvent(tick=0, channel=0, data=[51, 51]),
   midi.NoteOnEvent(tick=120, channel=0, data=[51, 0]),
   midi.NoteOnEvent(tick=0, channel=0, data=[57, 51]),
   midi.NoteOnEvent(tick=120, channel=0, data=[57, 0]),
   midi.NoteOnEvent(tick=0, channel=0, data=[54, 51]),
   midi.NoteOnEvent(tick=120, channel=0, data=[54, 0]),
   midi.NoteOnEvent(tick=0, channel=0, data=[51, 51]),
   midi.NoteOnEvent(tick=120, channel=0, data=[51, 0]),
   midi.NoteOnEvent(tick=0, channel=0, data=[45, 0]),
   midi.NoteOnEvent(tick=0, channel=0, data=[44, 44]),
   midi.ControlChangeEvent(tick=13, channel=0, data=[64, 0]),
   midi.ControlChangeEvent(tick=50, channel=0, data=[64, 127]),
   midi.NoteOnEvent(tick=57, channel=0, data=[44, 0]),
   midi.NoteOnEvent(tick=0, channel=0, data=[56, 32]),
   midi.NoteOnEvent(tick=120, channel=0, data=[56, 0]),
   midi.NoteOnEvent(tick=0, channel=0, data=[51, 30]),
   midi.NoteOnEvent(tick=120, channel=0, data=[51, 0]),
   midi.NoteOnEvent(tick=0, channel=0, data=[56, 28]),
   midi.NoteOnEvent(tick=120, channel=0, data=[56, 0]),
   midi.NoteOnEvent(tick=0, channel=0, data=[54, 27]),
   midi.NoteOnEvent(tick=120, channel=0, data=[54, 0]),
   midi.NoteOnEvent(tick=0, channel=0, data=[51, 25]),
   midi.NoteOnEvent(tick=120, channel=0, data=[51, 0]),
   midi.NoteOnEvent(tick=0, channel=0, data=[49, 31]),
   midi.ControlChangeEvent(tick=18, channel=0, data=[64, 0]),
   midi.ControlChangeEvent(tick=28, channel=0, data=[64, 127]),
   midi.NoteOnEvent(tick=74, channel=0, data=[49, 0]),
   midi.NoteOnEvent(tick=0, channel=0, data=[64, 27]),
   midi.NoteOnEvent(tick=120, channel=0, data=[64, 0]),
   midi.NoteOnEvent(tick=0, channel=0, data=[54, 27]),
   midi.NoteOnEvent(tick=120, channel=0, data=[54, 0]),
   midi.NoteOnEvent(tick=0, channel=0, data=[64, 27]),
   midi.NoteOnEvent(tick=120, channel=0, data=[64, 0]),
   midi.NoteOnEvent(tick=0, channel=0, data=[57, 27]),
   midi.NoteOnEvent(tick=120, channel=0, data=[57, 0]),
   midi.NoteOnEvent(tick=0, channel=0, data=[49, 28]),
   midi.NoteOnEvent(tick=120, channel=0, data=[49, 0]),
   midi.NoteOnEvent(tick=0, channel=0, data=[48, 44]),
   midi.ControlChangeEvent(tick=15, channel=0, data=[64, 0]),
   midi.ControlChangeEvent(tick=48, channel=0, data=[64, 127]),
   midi.NoteOnEvent(tick=57, channel=0, data=[48, 0]),
   midi.NoteOnEvent(tick=0, channel=0, data=[63, 30]),
   midi.NoteOnEvent(tick=120, channel=0, data=[63, 0]),
   midi.NoteOnEvent(tick=0, channel=0, data=[54, 32]),
   midi.NoteOnEvent(tick=120, channel=0, data=[54, 0]),
   midi.NoteOnEvent(tick=0, channel=0, data=[63, 39]),
   midi.NoteOnEvent(tick=120, channel=0, data=[63, 0]),
   midi.NoteOnEvent(tick=0, channel=0, data=[56, 42]),
   midi.NoteOnEvent(tick=120, channel=0, data=[56, 0]),
   midi.NoteOnEvent(tick=0, channel=0, data=[54, 43]),
   midi.NoteOnEvent(tick=120, channel=0, data=[54, 0]),
   midi.NoteOnEvent(tick=0, channel=0, data=[45, 49]),
   midi.ControlChangeEvent(tick=18, channel=0, data=[64, 0]),
   midi.ControlChangeEvent(tick=45, channel=0, data=[64, 127]),
   midi.NoteOnEvent(tick=57, channel=0, data=[45, 0]),
   midi.NoteOnEvent(tick=0, channel=0, data=[61, 40]),
   midi.NoteOnEvent(tick=120, channel=0, data=[61, 0]),
   midi.NoteOnEvent(tick=0, channel=0, data=[51, 38]),
   midi.NoteOnEvent(tick=120, channel=0, data=[51, 0]),
   midi.NoteOnEvent(tick=0, channel=0, data=[61, 35]),
   midi.NoteOnEvent(tick=120, channel=0, data=[61, 0]),
   midi.NoteOnEvent(tick=0, channel=0, data=[54, 35]),
   midi.NoteOnEvent(tick=120, channel=0, data=[54, 0]),
   midi.NoteOnEvent(tick=0, channel=0, data=[51, 33]),
   midi.NoteOnEvent(tick=120, channel=0, data=[51, 0]),
   midi.NoteOnEvent(tick=0, channel=0, data=[44, 44]),
   midi.ControlChangeEvent(tick=15, channel=0, data=[64, 0]),
   midi.ControlChangeEvent(tick=48, channel=0, data=[64, 127]),
   midi.NoteOnEvent(tick=57, channel=0, data=[44, 0]),
   midi.NoteOnEvent(tick=0, channel=0, data=[56, 32]),
   midi.NoteOnEvent(tick=120, channel=0, data=[56, 0]),
   midi.NoteOnEvent(tick=0, channel=0, data=[51, 30]),
   midi.NoteOnEvent(tick=120, channel=0, data=[51, 0]),
   midi.NoteOnEvent(tick=0, channel=0, data=[56, 28]),
   midi.NoteOnEvent(tick=120, channel=0, data=[56, 0]),
   midi.NoteOnEvent(tick=0, channel=0, data=[54, 23]),
   midi.NoteOnEvent(tick=120, channel=0, data=[54, 0]),
   midi.NoteOnEvent(tick=0, channel=0, data=[44, 22]),
   midi.NoteOnEvent(tick=120, channel=0, data=[44, 0]),
   midi.NoteOnEvent(tick=0, channel=0, data=[49, 28]),
   midi.ControlChangeEvent(tick=17, channel=0, data=[64, 0]),
   midi.ControlChangeEvent(tick=22, channel=0, data=[64, 127]),
   midi.NoteOnEvent(tick=81, channel=0, data=[49, 0]),
   midi.NoteOnEvent(tick=0, channel=0, data=[64, 23]),
   midi.NoteOnEvent(tick=120, channel=0, data=[64, 0]),
   midi.NoteOnEvent(tick=0, channel=0, data=[54, 23]),
   midi.NoteOnEvent(tick=120, channel=0, data=[54, 0]),
   midi.NoteOnEvent(tick=0, channel=0, data=[64, 23]),
   midi.NoteOnEvent(tick=120, channel=0, data=[64, 0]),
   midi.NoteOnEvent(tick=0, channel=0, data=[57, 23]),
   midi.NoteOnEvent(tick=120, channel=0, data=[57, 0]),
   midi.NoteOnEvent(tick=0, channel=0, data=[49, 24]),
   midi.NoteOnEvent(tick=120, channel=0, data=[49, 0]),
   midi.NoteOnEvent(tick=0, channel=0, data=[48, 31]),
   midi.ControlChangeEvent(tick=15, channel=0, data=[64, 0]),
   midi.ControlChangeEvent(tick=48, channel=0, data=[64, 127]),
   midi.NoteOnEvent(tick=57, channel=0, data=[48, 0]),
   midi.NoteOnEvent(tick=0, channel=0, data=[63, 24]),
   midi.NoteOnEvent(tick=120, channel=0, data=[63, 0]),
   midi.NoteOnEvent(tick=0, channel=0, data=[54, 24]),
   midi.NoteOnEvent(tick=120, channel=0, data=[54, 0]),
   midi.NoteOnEvent(tick=0, channel=0, data=[63, 24]),
   midi.NoteOnEvent(tick=120, channel=0, data=[63, 0]),
   midi.NoteOnEvent(tick=0, channel=0, data=[57, 24]),
   midi.NoteOnEvent(tick=120, channel=0, data=[57, 0]),
   midi.NoteOnEvent(tick=0, channel=0, data=[54, 24]),
   midi.NoteOnEvent(tick=120, channel=0, data=[54, 0]),
   midi.NoteOnEvent(tick=0, channel=0, data=[47, 28]),
   midi.ControlChangeEvent(tick=18, channel=0, data=[64, 0]),
   midi.ControlChangeEvent(tick=54, channel=0, data=[64, 127]),
   midi.NoteOnEvent(tick=48, channel=0, data=[47, 0]),
   midi.NoteOnEvent(tick=0, channel=0, data=[63, 24]),
   midi.NoteOnEvent(tick=120, channel=0, data=[63, 0]),
   midi.NoteOnEvent(tick=0, channel=0, data=[54, 24]),
   midi.NoteOnEvent(tick=120, channel=0, data=[54, 0]),
   midi.NoteOnEvent(tick=0, channel=0, data=[63, 24]),
   midi.NoteOnEvent(tick=120, channel=0, data=[63, 0]),
   midi.NoteOnEvent(tick=0, channel=0, data=[57, 24]),
   midi.NoteOnEvent(tick=120, channel=0, data=[57, 0]),
   midi.NoteOnEvent(tick=0, channel=0, data=[54, 24]),
   midi.NoteOnEvent(tick=120, channel=0, data=[54, 0]),
   midi.NoteOnEvent(tick=0, channel=0, data=[47, 31]),
   midi.ControlChangeEvent(tick=15, channel=0, data=[64, 0]),
   midi.ControlChangeEvent(tick=48, channel=0, data=[64, 127]),
   midi.NoteOnEvent(tick=57, channel=0, data=[47, 0]),
   midi.NoteOnEvent(tick=0, channel=0, data=[63, 24]),
   midi.NoteOnEvent(tick=120, channel=0, data=[63, 0]),
   midi.NoteOnEvent(tick=0, channel=0, data=[53, 24]),
   midi.NoteOnEvent(tick=120, channel=0, data=[53, 0]),
   midi.NoteOnEvent(tick=0, channel=0, data=[63, 24]),
   midi.NoteOnEvent(tick=120, channel=0, data=[63, 0]),
   midi.NoteOnEvent(tick=0, channel=0, data=[56, 24]),
   midi.NoteOnEvent(tick=120, channel=0, data=[56, 0]),
   midi.NoteOnEvent(tick=0, channel=0, data=[53, 24]),
   midi.NoteOnEvent(tick=120, channel=0, data=[47, 28]),
   midi.ControlChangeEvent(tick=17, channel=0, data=[64, 0]),
   midi.ControlChangeEvent(tick=75, channel=0, data=[64, 127]),
   midi.NoteOnEvent(tick=28, channel=0, data=[47, 0]),
   midi.NoteOnEvent(tick=0, channel=0, data=[53, 0]),
   midi.NoteOnEvent(tick=0, channel=0, data=[62, 24]),
   midi.NoteOnEvent(tick=120, channel=0, data=[62, 0]),
   midi.NoteOnEvent(tick=0, channel=0, data=[52, 24]),
   midi.NoteOnEvent(tick=120, channel=0, data=[62, 24]),
   midi.NoteOnEvent(tick=120, channel=0, data=[62, 0]),
   midi.NoteOnEvent(tick=0, channel=0, data=[52, 0]),
   midi.NoteOnEvent(tick=0, channel=0, data=[56, 24]),
   midi.NoteOnEvent(tick=120, channel=0, data=[56, 0]),
   midi.NoteOnEvent(tick=0, channel=0, data=[52, 24]),
   midi.NoteOnEvent(tick=120, channel=0, data=[52, 0]),
   midi.NoteOnEvent(tick=0, channel=0, data=[45, 31]),
   midi.ControlChangeEvent(tick=13, channel=0, data=[64, 0]),
   midi.ControlChangeEvent(tick=50, channel=0, data=[64, 127]),
   midi.NoteOnEvent(tick=57, channel=0, data=[45, 0]),
   midi.NoteOnEvent(tick=0, channel=0, data=[61, 24]),
   midi.NoteOnEvent(tick=120, channel=0, data=[61, 0]),
   midi.NoteOnEvent(tick=0, channel=0, data=[52, 24]),
   midi.NoteOnEvent(tick=120, channel=0, data=[52, 0]),
   midi.NoteOnEvent(tick=0, channel=0, data=[61, 24]),
   midi.NoteOnEvent(tick=120, channel=0, data=[61, 0]),
   midi.NoteOnEvent(tick=0, channel=0, data=[57, 24]),
   midi.NoteOnEvent(tick=120, channel=0, data=[57, 0]),
   midi.NoteOnEvent(tick=0, channel=0, data=[52, 24]),
   midi.NoteOnEvent(tick=120, channel=0, data=[52, 0]),
   midi.NoteOnEvent(tick=0, channel=0, data=[45, 28]),
   midi.ControlChangeEvent(tick=16, channel=0, data=[64, 0]),
   midi.ControlChangeEvent(tick=37, channel=0, data=[64, 127]),
   midi.NoteOnEvent(tick=67, channel=0, data=[45, 0]),
   midi.NoteOnEvent(tick=0, channel=0, data=[61, 24]),
   midi.NoteOnEvent(tick=120, channel=0, data=[61, 0]),
   midi.NoteOnEvent(tick=0, channel=0, data=[51, 24]),
   midi.NoteOnEvent(tick=120, channel=0, data=[51, 0]),
   midi.NoteOnEvent(tick=0, channel=0, data=[61, 24]),
   midi.NoteOnEvent(tick=120, channel=0, data=[61, 0]),
   midi.NoteOnEvent(tick=0, channel=0, data=[54, 24]),
   midi.NoteOnEvent(tick=120, channel=0, data=[54, 0]),
   midi.NoteOnEvent(tick=0, channel=0, data=[51, 24]),
   midi.NoteOnEvent(tick=120, channel=0, data=[51, 0]),
   midi.NoteOnEvent(tick=0, channel=0, data=[44, 31]),
   midi.ControlChangeEvent(tick=15, channel=0, data=[64, 0]),
   midi.ControlChangeEvent(tick=48, channel=0, data=[64, 127]),
   midi.NoteOnEvent(tick=57, channel=0, data=[44, 0]),
   midi.NoteOnEvent(tick=0, channel=0, data=[60, 24]),
   midi.NoteOnEvent(tick=120, channel=0, data=[60, 0]),
   midi.NoteOnEvent(tick=0, channel=0, data=[51, 24]),
   midi.NoteOnEvent(tick=120, channel=0, data=[51, 0]),
   midi.NoteOnEvent(tick=0, channel=0, data=[60, 24]),
   midi.NoteOnEvent(tick=120, channel=0, data=[60, 0]),
   midi.NoteOnEvent(tick=0, channel=0, data=[54, 24]),
   midi.NoteOnEvent(tick=120, channel=0, data=[54, 0]),
   midi.NoteOnEvent(tick=0, channel=0, data=[49, 24]),
   midi.NoteOnEvent(tick=120, channel=0, data=[49, 0]),
   midi.NoteOnEvent(tick=0, channel=0, data=[44, 28]),
   midi.ControlChangeEvent(tick=16, channel=0, data=[64, 0]),
   midi.ControlChangeEvent(tick=48, channel=0, data=[64, 127]),
   midi.NoteOnEvent(tick=56, channel=0, data=[44, 0]),
   midi.NoteOnEvent(tick=0, channel=0, data=[56, 24]),
   midi.NoteOnEvent(tick=120, channel=0, data=[56, 0]),
   midi.NoteOnEvent(tick=0, channel=0, data=[48, 24]),
   midi.NoteOnEvent(tick=120, channel=0, data=[48, 0]),
   midi.NoteOnEvent(tick=0, channel=0, data=[56, 24]),
   midi.NoteOnEvent(tick=120, channel=0, data=[56, 0]),
   midi.NoteOnEvent(tick=0, channel=0, data=[54, 24]),
   midi.NoteOnEvent(tick=120, channel=0, data=[54, 0]),
   midi.NoteOnEvent(tick=0, channel=0, data=[51, 24]),
   midi.NoteOnEvent(tick=120, channel=0, data=[51, 0]),
   midi.NoteOnEvent(tick=0, channel=0, data=[37, 27]),
   midi.ControlChangeEvent(tick=21, channel=0, data=[64, 0]),
   midi.ControlChangeEvent(tick=57, channel=0, data=[64, 127]),
   midi.NoteOnEvent(tick=42, channel=0, data=[37, 0]),
   midi.NoteOnEvent(tick=0, channel=0, data=[65, 22]),
   midi.NoteOnEvent(tick=120, channel=0, data=[65, 0]),
   midi.NoteOnEvent(tick=0, channel=0, data=[56, 22]),
   midi.NoteOnEvent(tick=120, channel=0, data=[56, 0]),
   midi.NoteOnEvent(tick=0, channel=0, data=[65, 22]),
   midi.NoteOnEvent(tick=120, channel=0, data=[65, 0]),
   midi.NoteOnEvent(tick=0, channel=0, data=[61, 22]),
   midi.NoteOnEvent(tick=120, channel=0, data=[61, 0]),
   midi.NoteOnEvent(tick=0, channel=0, data=[53, 22]),
   midi.NoteOnEvent(tick=120, channel=0, data=[53, 0]),
   midi.NoteOnEvent(tick=0, channel=0, data=[49, 27]),
   midi.NoteOnEvent(tick=120, channel=0, data=[49, 0]),
   midi.NoteOnEvent(tick=0, channel=0, data=[65, 22]),
   midi.NoteOnEvent(tick=120, channel=0, data=[65, 0]),
   midi.NoteOnEvent(tick=0, channel=0, data=[56, 22]),
   midi.NoteOnEvent(tick=120, channel=0, data=[56, 0]),
   midi.NoteOnEvent(tick=0, channel=0, data=[65, 22]),
   midi.NoteOnEvent(tick=120, channel=0, data=[65, 0]),
   midi.NoteOnEvent(tick=0, channel=0, data=[61, 22]),
   midi.NoteOnEvent(tick=120, channel=0, data=[61, 0]),
   midi.NoteOnEvent(tick=0, channel=0, data=[53, 22]),
   midi.NoteOnEvent(tick=120, channel=0, data=[53, 0]),
   midi.NoteOnEvent(tick=0, channel=0, data=[49, 27]),
   midi.NoteOnEvent(tick=120, channel=0, data=[49, 0]),
   midi.NoteOnEvent(tick=0, channel=0, data=[65, 24]),
   midi.NoteOnEvent(tick=120, channel=0, data=[65, 0]),
   midi.NoteOnEvent(tick=0, channel=0, data=[56, 24]),
   midi.NoteOnEvent(tick=120, channel=0, data=[56, 0]),
   midi.NoteOnEvent(tick=0, channel=0, data=[65, 23]),
   midi.NoteOnEvent(tick=120, channel=0, data=[65, 0]),
   midi.NoteOnEvent(tick=0, channel=0, data=[61, 23]),
   midi.NoteOnEvent(tick=120, channel=0, data=[61, 0]),
   midi.NoteOnEvent(tick=0, channel=0, data=[53, 23]),
   midi.NoteOnEvent(tick=120, channel=0, data=[53, 0]),
   midi.NoteOnEvent(tick=0, channel=0, data=[49, 28]),
   midi.NoteOnEvent(tick=120, channel=0, data=[49, 0]),
   midi.NoteOnEvent(tick=0, channel=0, data=[65, 23]),
   midi.NoteOnEvent(tick=120, channel=0, data=[65, 0]),
   midi.NoteOnEvent(tick=0, channel=0, data=[56, 23]),
   midi.NoteOnEvent(tick=120, channel=0, data=[56, 0]),
   midi.NoteOnEvent(tick=0, channel=0, data=[65, 24]),
   midi.NoteOnEvent(tick=120, channel=0, data=[65, 0]),
   midi.NoteOnEvent(tick=0, channel=0, data=[61, 25]),
   midi.NoteOnEvent(tick=120, channel=0, data=[61, 0]),
   midi.NoteOnEvent(tick=0, channel=0, data=[53, 27]),
   midi.NoteOnEvent(tick=120, channel=0, data=[53, 0]),
   midi.NoteOnEvent(tick=0, channel=0, data=[49, 30]),
   midi.NoteOnEvent(tick=120, channel=0, data=[49, 0]),
   midi.NoteOnEvent(tick=0, channel=0, data=[65, 26]),
   midi.NoteOnEvent(tick=120, channel=0, data=[65, 0]),
   midi.NoteOnEvent(tick=0, channel=0, data=[56, 25]),
   midi.NoteOnEvent(tick=120, channel=0, data=[56, 0]),
   midi.NoteOnEvent(tick=0, channel=0, data=[65, 24]),
   midi.NoteOnEvent(tick=120, channel=0, data=[65, 0]),
   midi.NoteOnEvent(tick=0, channel=0, data=[61, 24]),
   midi.NoteOnEvent(tick=120, channel=0, data=[61, 0]),
   midi.NoteOnEvent(tick=0, channel=0, data=[53, 23]),
   midi.NoteOnEvent(tick=120, channel=0, data=[53, 0]),
   midi.NoteOnEvent(tick=0, channel=0, data=[49, 27]),
   midi.NoteOnEvent(tick=120, channel=0, data=[49, 0]),
   midi.NoteOnEvent(tick=0, channel=0, data=[65, 22]),
   midi.NoteOnEvent(tick=120, channel=0, data=[65, 0]),
   midi.NoteOnEvent(tick=0, channel=0, data=[56, 22]),
   midi.NoteOnEvent(tick=120, channel=0, data=[56, 0]),
   midi.NoteOnEvent(tick=0, channel=0, data=[65, 22]),
   midi.NoteOnEvent(tick=120, channel=0, data=[65, 0]),
   midi.NoteOnEvent(tick=0, channel=0, data=[61, 22]),
   midi.NoteOnEvent(tick=120, channel=0, data=[61, 0]),
   midi.NoteOnEvent(tick=0, channel=0, data=[53, 22]),
   midi.NoteOnEvent(tick=120, channel=0, data=[53, 0]),
   midi.NoteOnEvent(tick=0, channel=0, data=[37, 28]),
   midi.ControlChangeEvent(tick=13, channel=0, data=[64, 0]),
   midi.ControlChangeEvent(tick=56, channel=0, data=[64, 127]),
   midi.NoteOnEvent(tick=51, channel=0, data=[66, 22]),
   midi.NoteOnEvent(tick=120, channel=0, data=[66, 0]),
   midi.NoteOnEvent(tick=0, channel=0, data=[37, 0]),
   midi.NoteOnEvent(tick=0, channel=0, data=[57, 22]),
   midi.NoteOnEvent(tick=120, channel=0, data=[57, 0]),
   midi.NoteOnEvent(tick=0, channel=0, data=[66, 22]),
   midi.NoteOnEvent(tick=120, channel=0, data=[66, 0]),
   midi.NoteOnEvent(tick=0, channel=0, data=[61, 22]),
   midi.NoteOnEvent(tick=120, channel=0, data=[61, 0]),
   midi.NoteOnEvent(tick=0, channel=0, data=[54, 22]),
   midi.NoteOnEvent(tick=120, channel=0, data=[54, 0]),
   midi.NoteOnEvent(tick=0, channel=0, data=[49, 27]),
   midi.NoteOnEvent(tick=120, channel=0, data=[49, 0]),
   midi.NoteOnEvent(tick=0, channel=0, data=[66, 22]),
   midi.NoteOnEvent(tick=120, channel=0, data=[66, 0]),
   midi.NoteOnEvent(tick=0, channel=0, data=[57, 22]),
   midi.NoteOnEvent(tick=120, channel=0, data=[57, 0]),
   midi.NoteOnEvent(tick=0, channel=0, data=[66, 22]),
   midi.NoteOnEvent(tick=120, channel=0, data=[66, 0]),
   midi.NoteOnEvent(tick=0, channel=0, data=[62, 26]),
   midi.NoteOnEvent(tick=120, channel=0, data=[62, 0]),
   midi.NoteOnEvent(tick=0, channel=0, data=[54, 22]),
   midi.NoteOnEvent(tick=120, channel=0, data=[54, 0]),
   midi.NoteOnEvent(tick=0, channel=0, data=[49, 28]),
   midi.ControlChangeEvent(tick=15, channel=0, data=[64, 0]),
   midi.ControlChangeEvent(tick=54, channel=0, data=[64, 127]),
   midi.NoteOnEvent(tick=51, channel=0, data=[66, 22]),
   midi.NoteOnEvent(tick=120, channel=0, data=[66, 0]),
   midi.NoteOnEvent(tick=0, channel=0, data=[49, 0]),
   midi.NoteOnEvent(tick=0, channel=0, data=[58, 22]),
   midi.NoteOnEvent(tick=120, channel=0, data=[58, 0]),
   midi.NoteOnEvent(tick=0, channel=0, data=[66, 22]),
   midi.NoteOnEvent(tick=120, channel=0, data=[66, 0]),
   midi.NoteOnEvent(tick=0, channel=0, data=[63, 22]),
   midi.NoteOnEvent(tick=120, channel=0, data=[63, 0]),
   midi.NoteOnEvent(tick=0, channel=0, data=[54, 22]),
   midi.NoteOnEvent(tick=120, channel=0, data=[54, 0]),
   midi.NoteOnEvent(tick=0, channel=0, data=[49, 27]),
   midi.NoteOnEvent(tick=120, channel=0, data=[49, 0]),
   midi.NoteOnEvent(tick=0, channel=0, data=[66, 22]),
   midi.NoteOnEvent(tick=120, channel=0, data=[66, 0]),
   midi.NoteOnEvent(tick=0, channel=0, data=[58, 22]),
   midi.NoteOnEvent(tick=120, channel=0, data=[58, 0]),
   midi.NoteOnEvent(tick=0, channel=0, data=[66, 22]),
   midi.NoteOnEvent(tick=120, channel=0, data=[66, 0]),
   midi.NoteOnEvent(tick=0, channel=0, data=[63, 24]),
   midi.NoteOnEvent(tick=120, channel=0, data=[63, 0]),
   midi.NoteOnEvent(tick=0, channel=0, data=[54, 22]),
   midi.NoteOnEvent(tick=120, channel=0, data=[54, 0]),
   midi.NoteOnEvent(tick=0, channel=0, data=[48, 27]),
   midi.ControlChangeEvent(tick=18, channel=0, data=[64, 0]),
   midi.ControlChangeEvent(tick=17, channel=0, data=[64, 127]),
   midi.NoteOnEvent(tick=85, channel=0, data=[48, 0]),
   midi.NoteOnEvent(tick=0, channel=0, data=[66, 22]),
   midi.NoteOnEvent(tick=120, channel=0, data=[66, 0]),
   midi.NoteOnEvent(tick=0, channel=0, data=[57, 22]),
   midi.NoteOnEvent(tick=120, channel=0, data=[57, 0]),
   midi.NoteOnEvent(tick=0, channel=0, data=[66, 22]),
   midi.NoteOnEvent(tick=120, channel=0, data=[66, 0]),
   midi.NoteOnEvent(tick=0, channel=0, data=[63, 21]),
   midi.NoteOnEvent(tick=120, channel=0, data=[63, 0]),
   midi.NoteOnEvent(tick=0, channel=0, data=[54, 21]),
   midi.NoteOnEvent(tick=120, channel=0, data=[54, 0]),
   midi.NoteOnEvent(tick=0, channel=0, data=[46, 28]),
   midi.ControlChangeEvent(tick=17, channel=0, data=[64, 0]),
   midi.ControlChangeEvent(tick=63, channel=0, data=[64, 127]),
   midi.NoteOnEvent(tick=40, channel=0, data=[46, 0]),
   midi.NoteOnEvent(tick=0, channel=0, data=[66, 23]),
   midi.NoteOnEvent(tick=120, channel=0, data=[66, 0]),
   midi.NoteOnEvent(tick=0, channel=0, data=[58, 25]),
   midi.NoteOnEvent(tick=120, channel=0, data=[58, 0]),
   midi.NoteOnEvent(tick=0, channel=0, data=[66, 27]),
   midi.NoteOnEvent(tick=120, channel=0, data=[66, 0]),
   midi.NoteOnEvent(tick=0, channel=0, data=[63, 28]),
   midi.NoteOnEvent(tick=120, channel=0, data=[63, 0]),
   midi.NoteOnEvent(tick=0, channel=0, data=[54, 30]),
   midi.NoteOnEvent(tick=120, channel=0, data=[54, 0]),
   midi.NoteOnEvent(tick=0, channel=0, data=[45, 34]),
   midi.ControlChangeEvent(tick=13, channel=0, data=[64, 0]),
   midi.ControlChangeEvent(tick=42, channel=0, data=[64, 127]),
   midi.NoteOnEvent(tick=65, channel=0, data=[45, 0]),
   midi.NoteOnEvent(tick=0, channel=0, data=[66, 24]),
   midi.NoteOnEvent(tick=120, channel=0, data=[66, 0]),
   midi.NoteOnEvent(tick=0, channel=0, data=[57, 23]),
   midi.NoteOnEvent(tick=120, channel=0, data=[57, 0]),
   midi.NoteOnEvent(tick=0, channel=0, data=[66, 22]),
   midi.NoteOnEvent(tick=120, channel=0, data=[66, 0]),
   midi.NoteOnEvent(tick=0, channel=0, data=[61, 22]),
   midi.NoteOnEvent(tick=120, channel=0, data=[61, 0]),
   midi.NoteOnEvent(tick=0, channel=0, data=[51, 21]),
   midi.NoteOnEvent(tick=120, channel=0, data=[51, 0]),
   midi.NoteOnEvent(tick=0, channel=0, data=[44, 27]),
   midi.ControlChangeEvent(tick=18, channel=0, data=[64, 0]),
   midi.ControlChangeEvent(tick=47, channel=0, data=[64, 127]),
   midi.NoteOnEvent(tick=55, channel=0, data=[44, 0]),
   midi.NoteOnEvent(tick=0, channel=0, data=[66, 22]),
   midi.NoteOnEvent(tick=120, channel=0, data=[66, 0]),
   midi.NoteOnEvent(tick=0, channel=0, data=[56, 22]),
   midi.NoteOnEvent(tick=120, channel=0, data=[56, 0]),
   midi.NoteOnEvent(tick=0, channel=0, data=[66, 24]),
   midi.NoteOnEvent(tick=120, channel=0, data=[66, 0]),
   midi.NoteOnEvent(tick=0, channel=0, data=[60, 26]),
   midi.NoteOnEvent(tick=120, channel=0, data=[60, 0]),
   midi.NoteOnEvent(tick=0, channel=0, data=[51, 27]),
   midi.NoteOnEvent(tick=120, channel=0, data=[51, 0]),
   midi.NoteOnEvent(tick=0, channel=0, data=[37, 28]),
   midi.ControlChangeEvent(tick=10, channel=0, data=[64, 0]),
   midi.ControlChangeEvent(tick=36, channel=0, data=[64, 127]),
   midi.NoteOnEvent(tick=74, channel=0, data=[37, 0]),
   midi.NoteOnEvent(tick=0, channel=0, data=[68, 24]),
   midi.NoteOnEvent(tick=120, channel=0, data=[68, 0]),
   midi.NoteOnEvent(tick=0, channel=0, data=[56, 24]),
   midi.NoteOnEvent(tick=120, channel=0, data=[56, 0]),
   midi.NoteOnEvent(tick=0, channel=0, data=[68, 24]),
   midi.NoteOnEvent(tick=120, channel=0, data=[68, 0]),
   midi.NoteOnEvent(tick=0, channel=0, data=[61, 24]),
   midi.NoteOnEvent(tick=120, channel=0, data=[61, 0]),
   midi.NoteOnEvent(tick=0, channel=0, data=[53, 24]),
   midi.NoteOnEvent(tick=120, channel=0, data=[53, 0]),
   midi.NoteOnEvent(tick=0, channel=0, data=[49, 28]),
   midi.ControlChangeEvent(tick=11, channel=0, data=[64, 0]),
   midi.ControlChangeEvent(tick=60, channel=0, data=[64, 127]),
   midi.NoteOnEvent(tick=49, channel=0, data=[49, 0]),
   midi.NoteOnEvent(tick=0, channel=0, data=[65, 24]),
   midi.NoteOnEvent(tick=120, channel=0, data=[65, 0]),
   midi.NoteOnEvent(tick=0, channel=0, data=[56, 24]),
   midi.NoteOnEvent(tick=120, channel=0, data=[56, 0]),
   midi.NoteOnEvent(tick=0, channel=0, data=[65, 25]),
   midi.NoteOnEvent(tick=120, channel=0, data=[65, 0]),
   midi.NoteOnEvent(tick=0, channel=0, data=[61, 25]),
   midi.NoteOnEvent(tick=120, channel=0, data=[61, 0]),
   midi.NoteOnEvent(tick=0, channel=0, data=[56, 25]),
   midi.NoteOnEvent(tick=120, channel=0, data=[56, 0]),
   midi.NoteOnEvent(tick=0, channel=0, data=[49, 29]),
   midi.ControlChangeEvent(tick=12, channel=0, data=[64, 0]),
   midi.ControlChangeEvent(tick=30, channel=0, data=[64, 127]),
   midi.NoteOnEvent(tick=78, channel=0, data=[49, 0]),
   midi.NoteOnEvent(tick=0, channel=0, data=[64, 27]),
   midi.NoteOnEvent(tick=120, channel=0, data=[64, 0]),
   midi.NoteOnEvent(tick=0, channel=0, data=[52, 26]),
   midi.NoteOnEvent(tick=120, channel=0, data=[52, 0]),
   midi.NoteOnEvent(tick=0, channel=0, data=[64, 26]),
   midi.NoteOnEvent(tick=120, channel=0, data=[64, 0]),
   midi.NoteOnEvent(tick=0, channel=0, data=[57, 26]),
   midi.NoteOnEvent(tick=120, channel=0, data=[57, 0]),
   midi.NoteOnEvent(tick=0, channel=0, data=[52, 26]),
   midi.NoteOnEvent(tick=120, channel=0, data=[52, 0]),
   midi.NoteOnEvent(tick=0, channel=0, data=[50, 23]),
   midi.ControlChangeEvent(tick=18, channel=0, data=[64, 0]),
   midi.ControlChangeEvent(tick=37, channel=0, data=[64, 127]),
   midi.NoteOnEvent(tick=65, channel=0, data=[50, 0]),
   midi.NoteOnEvent(tick=0, channel=0, data=[64, 24]),
   midi.NoteOnEvent(tick=120, channel=0, data=[64, 0]),
   midi.NoteOnEvent(tick=0, channel=0, data=[52, 25]),
   midi.NoteOnEvent(tick=120, channel=0, data=[52, 0]),
   midi.NoteOnEvent(tick=0, channel=0, data=[64, 26]),
   midi.NoteOnEvent(tick=120, channel=0, data=[64, 0]),
   midi.NoteOnEvent(tick=0, channel=0, data=[56, 27]),
   midi.NoteOnEvent(tick=120, channel=0, data=[56, 0]),
   midi.NoteOnEvent(tick=0, channel=0, data=[52, 28]),
   midi.NoteOnEvent(tick=120, channel=0, data=[52, 0]),
   midi.NoteOnEvent(tick=0, channel=0, data=[49, 31]),
   midi.ControlChangeEvent(tick=15, channel=0, data=[64, 0]),
   midi.ControlChangeEvent(tick=40, channel=0, data=[64, 127]),
   midi.NoteOnEvent(tick=65, channel=0, data=[49, 0]),
   midi.NoteOnEvent(tick=0, channel=0, data=[64, 29]),
   midi.NoteOnEvent(tick=120, channel=0, data=[64, 0]),
   midi.NoteOnEvent(tick=0, channel=0, data=[52, 29]),
   midi.NoteOnEvent(tick=120, channel=0, data=[52, 0]),
   midi.NoteOnEvent(tick=0, channel=0, data=[64, 29]),
   midi.NoteOnEvent(tick=120, channel=0, data=[64, 0]),
   midi.NoteOnEvent(tick=0, channel=0, data=[57, 29]),
   midi.NoteOnEvent(tick=120, channel=0, data=[57, 0]),
   midi.NoteOnEvent(tick=0, channel=0, data=[52, 29]),
   midi.NoteOnEvent(tick=120, channel=0, data=[52, 0]),
   midi.NoteOnEvent(tick=0, channel=0, data=[44, 34]),
   midi.ControlChangeEvent(tick=14, channel=0, data=[64, 0]),
   midi.ControlChangeEvent(tick=26, channel=0, data=[64, 127]),
   midi.NoteOnEvent(tick=80, channel=0, data=[44, 0]),
   midi.NoteOnEvent(tick=0, channel=0, data=[64, 26]),
   midi.NoteOnEvent(tick=120, channel=0, data=[64, 0]),
   midi.NoteOnEvent(tick=0, channel=0, data=[52, 28]),
   midi.NoteOnEvent(tick=120, channel=0, data=[52, 0]),
   midi.NoteOnEvent(tick=0, channel=0, data=[64, 30]),
   midi.NoteOnEvent(tick=120, channel=0, data=[64, 0]),
   midi.NoteOnEvent(tick=0, channel=0, data=[62, 32]),
   midi.NoteOnEvent(tick=120, channel=0, data=[62, 0]),
   midi.NoteOnEvent(tick=0, channel=0, data=[52, 34]),
   midi.NoteOnEvent(tick=120, channel=0, data=[52, 0]),
   midi.NoteOnEvent(tick=0, channel=0, data=[45, 40]),
   midi.ControlChangeEvent(tick=12, channel=0, data=[64, 0]),
   midi.ControlChangeEvent(tick=43, channel=0, data=[64, 127]),
   midi.NoteOnEvent(tick=65, channel=0, data=[45, 0]),
   midi.NoteOnEvent(tick=0, channel=0, data=[64, 32]),
   midi.NoteOnEvent(tick=120, channel=0, data=[64, 0]),
   midi.NoteOnEvent(tick=0, channel=0, data=[52, 32]),
   midi.NoteOnEvent(tick=120, channel=0, data=[52, 0]),
   midi.NoteOnEvent(tick=0, channel=0, data=[64, 32]),
   midi.NoteOnEvent(tick=120, channel=0, data=[64, 0]),
   midi.NoteOnEvent(tick=0, channel=0, data=[61, 32]),
   midi.NoteOnEvent(tick=120, channel=0, data=[61, 0]),
   midi.NoteOnEvent(tick=0, channel=0, data=[52, 32]),
   midi.NoteOnEvent(tick=120, channel=0, data=[52, 0]),
   midi.NoteOnEvent(tick=0, channel=0, data=[40, 40]),
   midi.ControlChangeEvent(tick=16, channel=0, data=[64, 0]),
   midi.ControlChangeEvent(tick=49, channel=0, data=[64, 127]),
   midi.NoteOnEvent(tick=55, channel=0, data=[40, 0]),
   midi.NoteOnEvent(tick=0, channel=0, data=[64, 34]),
   midi.NoteOnEvent(tick=120, channel=0, data=[64, 0]),
   midi.NoteOnEvent(tick=0, channel=0, data=[56, 35]),
   midi.NoteOnEvent(tick=120, channel=0, data=[56, 0]),
   midi.NoteOnEvent(tick=0, channel=0, data=[64, 35]),
   midi.NoteOnEvent(tick=120, channel=0, data=[64, 0]),
   midi.NoteOnEvent(tick=0, channel=0, data=[62, 35]),
   midi.NoteOnEvent(tick=120, channel=0, data=[62, 0]),
   midi.NoteOnEvent(tick=0, channel=0, data=[52, 35]),
   midi.NoteOnEvent(tick=120, channel=0, data=[52, 0]),
   midi.NoteOnEvent(tick=0, channel=0, data=[45, 50]),
   midi.ControlChangeEvent(tick=13, channel=0, data=[64, 0]),
   midi.ControlChangeEvent(tick=42, channel=0, data=[64, 127]),
   midi.NoteOnEvent(tick=65, channel=0, data=[45, 0]),
   midi.NoteOnEvent(tick=0, channel=0, data=[64, 39]),
   midi.NoteOnEvent(tick=120, channel=0, data=[64, 0]),
   midi.NoteOnEvent(tick=0, channel=0, data=[57, 39]),
   midi.NoteOnEvent(tick=120, channel=0, data=[57, 0]),
   midi.NoteOnEvent(tick=0, channel=0, data=[64, 39]),
   midi.NoteOnEvent(tick=120, channel=0, data=[64, 0]),
   midi.NoteOnEvent(tick=0, channel=0, data=[61, 39]),
   midi.NoteOnEvent(tick=120, channel=0, data=[61, 0]),
   midi.NoteOnEvent(tick=0, channel=0, data=[52, 39]),
   midi.NoteOnEvent(tick=120, channel=0, data=[52, 0]),
   midi.NoteOnEvent(tick=0, channel=0, data=[39, 65]),
   midi.ControlChangeEvent(tick=18, channel=0, data=[64, 0]),
   midi.ControlChangeEvent(tick=47, channel=0, data=[64, 127]),
   midi.NoteOnEvent(tick=55, channel=0, data=[39, 0]),
   midi.NoteOnEvent(tick=0, channel=0, data=[66, 40]),
   midi.NoteOnEvent(tick=120, channel=0, data=[66, 0]),
   midi.NoteOnEvent(tick=0, channel=0, data=[57, 42]),
   midi.NoteOnEvent(tick=120, channel=0, data=[57, 0]),
   midi.NoteOnEvent(tick=0, channel=0, data=[66, 44]),
   midi.NoteOnEvent(tick=120, channel=0, data=[66, 0]),
   midi.NoteOnEvent(tick=0, channel=0, data=[61, 46]),
   midi.NoteOnEvent(tick=120, channel=0, data=[61, 0]),
   midi.NoteOnEvent(tick=0, channel=0, data=[51, 48]),
   midi.NoteOnEvent(tick=120, channel=0, data=[51, 0]),
   midi.NoteOnEvent(tick=0, channel=0, data=[44, 50]),
   midi.ControlChangeEvent(tick=13, channel=0, data=[64, 0]),
   midi.ControlChangeEvent(tick=42, channel=0, data=[64, 127]),
   midi.NoteOnEvent(tick=65, channel=0, data=[44, 0]),
   midi.NoteOnEvent(tick=0, channel=0, data=[66, 39]),
   midi.NoteOnEvent(tick=120, channel=0, data=[66, 0]),
   midi.NoteOnEvent(tick=0, channel=0, data=[56, 39]),
   midi.NoteOnEvent(tick=120, channel=0, data=[56, 0]),
   midi.NoteOnEvent(tick=0, channel=0, data=[66, 39]),
   midi.NoteOnEvent(tick=120, channel=0, data=[66, 0]),
   midi.NoteOnEvent(tick=0, channel=0, data=[61, 39]),
   midi.NoteOnEvent(tick=120, channel=0, data=[61, 0]),
   midi.NoteOnEvent(tick=0, channel=0, data=[51, 39]),
   midi.NoteOnEvent(tick=120, channel=0, data=[51, 0]),
   midi.NoteOnEvent(tick=0, channel=0, data=[44, 63]),
   midi.ControlChangeEvent(tick=18, channel=0, data=[64, 0]),
   midi.ControlChangeEvent(tick=47, channel=0, data=[64, 127]),
   midi.NoteOnEvent(tick=55, channel=0, data=[44, 0]),
   midi.NoteOnEvent(tick=0, channel=0, data=[66, 40]),
   midi.NoteOnEvent(tick=120, channel=0, data=[66, 0]),
   midi.NoteOnEvent(tick=0, channel=0, data=[56, 42]),
   midi.NoteOnEvent(tick=120, channel=0, data=[56, 0]),
   midi.NoteOnEvent(tick=0, channel=0, data=[66, 44]),
   midi.NoteOnEvent(tick=120, channel=0, data=[66, 0]),
   midi.NoteOnEvent(tick=0, channel=0, data=[60, 46]),
   midi.NoteOnEvent(tick=120, channel=0, data=[60, 0]),
   midi.NoteOnEvent(tick=0, channel=0, data=[51, 48]),
   midi.NoteOnEvent(tick=120, channel=0, data=[51, 0]),
   midi.NoteOnEvent(tick=0, channel=0, data=[44, 50]),
   midi.ControlChangeEvent(tick=12, channel=0, data=[64, 0]),
   midi.ControlChangeEvent(tick=43, channel=0, data=[64, 127]),
   midi.NoteOnEvent(tick=65, channel=0, data=[44, 0]),
   midi.NoteOnEvent(tick=0, channel=0, data=[64, 39]),
   midi.NoteOnEvent(tick=120, channel=0, data=[64, 0]),
   midi.NoteOnEvent(tick=0, channel=0, data=[56, 39]),
   midi.NoteOnEvent(tick=120, channel=0, data=[56, 0]),
   midi.NoteOnEvent(tick=0, channel=0, data=[64, 39]),
   midi.NoteOnEvent(tick=120, channel=0, data=[64, 0]),
   midi.NoteOnEvent(tick=0, channel=0, data=[61, 39]),
   midi.NoteOnEvent(tick=120, channel=0, data=[61, 0]),
   midi.NoteOnEvent(tick=0, channel=0, data=[52, 39]),
   midi.NoteOnEvent(tick=120, channel=0, data=[52, 0]),
   midi.NoteOnEvent(tick=0, channel=0, data=[32, 58]),
   midi.ControlChangeEvent(tick=16, channel=0, data=[64, 0]),
   midi.ControlChangeEvent(tick=49, channel=0, data=[64, 127]),
   midi.NoteOnEvent(tick=55, channel=0, data=[32, 0]),
   midi.NoteOnEvent(tick=0, channel=0, data=[64, 40]),
   midi.NoteOnEvent(tick=120, channel=0, data=[64, 0]),
   midi.NoteOnEvent(tick=0, channel=0, data=[56, 42]),
   midi.NoteOnEvent(tick=120, channel=0, data=[56, 0]),
   midi.NoteOnEvent(tick=0, channel=0, data=[64, 44]),
   midi.NoteOnEvent(tick=120, channel=0, data=[64, 0]),
   midi.NoteOnEvent(tick=0, channel=0, data=[61, 46]),
   midi.NoteOnEvent(tick=120, channel=0, data=[61, 0]),
   midi.NoteOnEvent(tick=0, channel=0, data=[52, 48]),
   midi.NoteOnEvent(tick=120, channel=0, data=[52, 0]),
   midi.NoteOnEvent(tick=0, channel=0, data=[44, 65]),
   midi.ControlChangeEvent(tick=13, channel=0, data=[64, 0]),
   midi.ControlChangeEvent(tick=42, channel=0, data=[64, 127]),
   midi.NoteOnEvent(tick=65, channel=0, data=[44, 0]),
   midi.NoteOnEvent(tick=0, channel=0, data=[63, 51]),
   midi.NoteOnEvent(tick=120, channel=0, data=[63, 0]),
   midi.NoteOnEvent(tick=0, channel=0, data=[54, 51]),
   midi.NoteOnEvent(tick=120, channel=0, data=[54, 0]),
   midi.NoteOnEvent(tick=0, channel=0, data=[63, 51]),
   midi.NoteOnEvent(tick=120, channel=0, data=[63, 0]),
   midi.NoteOnEvent(tick=0, channel=0, data=[60, 51]),
   midi.NoteOnEvent(tick=120, channel=0, data=[60, 0]),
   midi.NoteOnEvent(tick=0, channel=0, data=[51, 51]),
   midi.NoteOnEvent(tick=120, channel=0, data=[51, 0]),
   midi.NoteOnEvent(tick=0, channel=0, data=[32, 64]),
   midi.ControlChangeEvent(tick=16, channel=0, data=[64, 0]),
   midi.ControlChangeEvent(tick=49, channel=0, data=[64, 127]),
   midi.NoteOnEvent(tick=55, channel=0, data=[32, 0]),
   midi.NoteOnEvent(tick=0, channel=0, data=[63, 48]),
   midi.NoteOnEvent(tick=120, channel=0, data=[63, 0]),
   midi.NoteOnEvent(tick=0, channel=0, data=[54, 51]),
   midi.NoteOnEvent(tick=120, channel=0, data=[54, 0]),
   midi.NoteOnEvent(tick=0, channel=0, data=[63, 54]),
   midi.NoteOnEvent(tick=120, channel=0, data=[63, 0]),
   midi.NoteOnEvent(tick=0, channel=0, data=[60, 57]),
   midi.NoteOnEvent(tick=120, channel=0, data=[60, 0]),
   midi.NoteOnEvent(tick=0, channel=0, data=[51, 59]),
   midi.NoteOnEvent(tick=120, channel=0, data=[51, 0]),
   midi.NoteOnEvent(tick=0, channel=0, data=[45, 76]),
   midi.ControlChangeEvent(tick=11, channel=0, data=[64, 0]),
   midi.ControlChangeEvent(tick=44, channel=0, data=[64, 127]),
   midi.NoteOnEvent(tick=65, channel=0, data=[45, 0]),
   midi.NoteOnEvent(tick=0, channel=0, data=[63, 55]),
   midi.NoteOnEvent(tick=120, channel=0, data=[63, 0]),
   midi.NoteOnEvent(tick=0, channel=0, data=[54, 56]),
   midi.NoteOnEvent(tick=120, channel=0, data=[54, 0]),
   midi.NoteOnEvent(tick=0, channel=0, data=[63, 57]),
   midi.NoteOnEvent(tick=120, channel=0, data=[63, 0]),
   midi.NoteOnEvent(tick=0, channel=0, data=[60, 57]),
   midi.NoteOnEvent(tick=120, channel=0, data=[60, 0]),
   midi.NoteOnEvent(tick=0, channel=0, data=[51, 57]),
   midi.NoteOnEvent(tick=120, channel=0, data=[51, 0]),
   midi.NoteOnEvent(tick=0, channel=0, data=[33, 82]),
   midi.ControlChangeEvent(tick=17, channel=0, data=[64, 0]),
   midi.ControlChangeEvent(tick=92, channel=0, data=[64, 127]),
   midi.NoteOnEvent(tick=11, channel=0, data=[33, 0]),
   midi.NoteOnEvent(tick=0, channel=0, data=[63, 57]),
   midi.NoteOnEvent(tick=120, channel=0, data=[63, 0]),
   midi.NoteOnEvent(tick=0, channel=0, data=[54, 58]),
   midi.NoteOnEvent(tick=120, channel=0, data=[54, 0]),
   midi.NoteOnEvent(tick=0, channel=0, data=[63, 59]),
   midi.NoteOnEvent(tick=120, channel=0, data=[63, 0]),
   midi.NoteOnEvent(tick=0, channel=0, data=[59, 62]),
   midi.NoteOnEvent(tick=120, channel=0, data=[59, 0]),
   midi.NoteOnEvent(tick=0, channel=0, data=[51, 63]),
   midi.NoteOnEvent(tick=120, channel=0, data=[51, 0]),
   midi.NoteOnEvent(tick=0, channel=0, data=[46, 84]),
   midi.ControlChangeEvent(tick=13, channel=0, data=[64, 0]),
   midi.ControlChangeEvent(tick=42, channel=0, data=[64, 127]),
   midi.NoteOnEvent(tick=65, channel=0, data=[46, 0]),
   midi.NoteOnEvent(tick=0, channel=0, data=[63, 52]),
   midi.NoteOnEvent(tick=120, channel=0, data=[63, 0]),
   midi.NoteOnEvent(tick=0, channel=0, data=[54, 52]),
   midi.NoteOnEvent(tick=120, channel=0, data=[54, 0]),
   midi.NoteOnEvent(tick=0, channel=0, data=[63, 54]),
   midi.NoteOnEvent(tick=120, channel=0, data=[63, 0]),
   midi.NoteOnEvent(tick=0, channel=0, data=[58, 54]),
   midi.NoteOnEvent(tick=120, channel=0, data=[58, 0]),
   midi.NoteOnEvent(tick=0, channel=0, data=[51, 52]),
   midi.NoteOnEvent(tick=120, channel=0, data=[51, 0]),
   midi.NoteOnEvent(tick=0, channel=0, data=[34, 80]),
   midi.ControlChangeEvent(tick=16, channel=0, data=[64, 0]),
   midi.ControlChangeEvent(tick=49, channel=0, data=[64, 127]),
   midi.NoteOnEvent(tick=55, channel=0, data=[34, 0]),
   midi.NoteOnEvent(tick=0, channel=0, data=[63, 56]),
   midi.NoteOnEvent(tick=120, channel=0, data=[63, 0]),
   midi.NoteOnEvent(tick=0, channel=0, data=[54, 56]),
   midi.NoteOnEvent(tick=120, channel=0, data=[54, 0]),
   midi.NoteOnEvent(tick=0, channel=0, data=[63, 56]),
   midi.NoteOnEvent(tick=120, channel=0, data=[63, 0]),
   midi.NoteOnEvent(tick=0, channel=0, data=[58, 56]),
   midi.NoteOnEvent(tick=120, channel=0, data=[58, 0]),
   midi.NoteOnEvent(tick=0, channel=0, data=[51, 56]),
   midi.NoteOnEvent(tick=120, channel=0, data=[51, 0]),
   midi.NoteOnEvent(tick=0, channel=0, data=[47, 71]),
   midi.ControlChangeEvent(tick=18, channel=0, data=[64, 0]),
   midi.ControlChangeEvent(tick=37, channel=0, data=[64, 127]),
   midi.NoteOnEvent(tick=65, channel=0, data=[47, 0]),
   midi.NoteOnEvent(tick=0, channel=0, data=[63, 52]),
   midi.NoteOnEvent(tick=120, channel=0, data=[63, 0]),
   midi.NoteOnEvent(tick=0, channel=0, data=[54, 52]),
   midi.NoteOnEvent(tick=120, channel=0, data=[54, 0]),
   midi.NoteOnEvent(tick=0, channel=0, data=[63, 54]),
   midi.NoteOnEvent(tick=120, channel=0, data=[63, 0]),
   midi.NoteOnEvent(tick=0, channel=0, data=[57, 54]),
   midi.NoteOnEvent(tick=120, channel=0, data=[57, 0]),
   midi.NoteOnEvent(tick=0, channel=0, data=[51, 52]),
   midi.NoteOnEvent(tick=120, channel=0, data=[51, 0]),
   midi.NoteOnEvent(tick=0, channel=0, data=[35, 79]),
   midi.ControlChangeEvent(tick=17, channel=0, data=[64, 0]),
   midi.ControlChangeEvent(tick=48, channel=0, data=[64, 127]),
   midi.NoteOnEvent(tick=55, channel=0, data=[35, 0]),
   midi.NoteOnEvent(tick=0, channel=0, data=[63, 56]),
   midi.NoteOnEvent(tick=120, channel=0, data=[63, 0]),
   midi.NoteOnEvent(tick=0, channel=0, data=[54, 56]),
   midi.NoteOnEvent(tick=120, channel=0, data=[54, 0]),
   midi.NoteOnEvent(tick=0, channel=0, data=[63, 56]),
   midi.NoteOnEvent(tick=120, channel=0, data=[63, 0]),
   midi.NoteOnEvent(tick=0, channel=0, data=[57, 56]),
   midi.NoteOnEvent(tick=120, channel=0, data=[57, 0]),
   midi.NoteOnEvent(tick=0, channel=0, data=[51, 56]),
   midi.NoteOnEvent(tick=120, channel=0, data=[51, 0]),
   midi.NoteOnEvent(tick=0, channel=0, data=[48, 70]),
   midi.ControlChangeEvent(tick=16, channel=0, data=[64, 0]),
   midi.ControlChangeEvent(tick=39, channel=0, data=[64, 127]),
   midi.NoteOnEvent(tick=65, channel=0, data=[63, 52]),
   midi.NoteOnEvent(tick=120, channel=0, data=[63, 0]),
   midi.NoteOnEvent(tick=0, channel=0, data=[54, 52]),
   midi.NoteOnEvent(tick=120, channel=0, data=[54, 0]),
   midi.NoteOnEvent(tick=0, channel=0, data=[63, 54]),
   midi.NoteOnEvent(tick=120, channel=0, data=[63, 0]),
   midi.NoteOnEvent(tick=0, channel=0, data=[48, 0]),
   midi.NoteOnEvent(tick=0, channel=0, data=[57, 54]),
   midi.NoteOnEvent(tick=120, channel=0, data=[57, 0]),
   midi.NoteOnEvent(tick=0, channel=0, data=[51, 52]),
   midi.NoteOnEvent(tick=120, channel=0, data=[51, 0]),
   midi.NoteOnEvent(tick=0, channel=0, data=[49, 66]),
   midi.ControlChangeEvent(tick=12, channel=0, data=[64, 0]),
   midi.ControlChangeEvent(tick=43, channel=0, data=[64, 127]),
   midi.NoteOnEvent(tick=65, channel=0, data=[61, 52]),
   midi.NoteOnEvent(tick=120, channel=0, data=[61, 0]),
   midi.NoteOnEvent(tick=0, channel=0, data=[54, 52]),
   midi.NoteOnEvent(tick=120, channel=0, data=[54, 0]),
   midi.NoteOnEvent(tick=0, channel=0, data=[57, 54]),
   midi.NoteOnEvent(tick=120, channel=0, data=[57, 0]),
   midi.NoteOnEvent(tick=0, channel=0, data=[49, 0]),
   midi.NoteOnEvent(tick=0, channel=0, data=[50, 66]),
   midi.ControlChangeEvent(tick=14, channel=0, data=[64, 0]),
   midi.ControlChangeEvent(tick=41, channel=0, data=[64, 127]),
   midi.NoteOnEvent(tick=65, channel=0, data=[60, 52]),
   midi.NoteOnEvent(tick=120, channel=0, data=[60, 0]),
   midi.NoteOnEvent(tick=0, channel=0, data=[54, 52]),
   midi.NoteOnEvent(tick=120, channel=0, data=[54, 0]),
   midi.NoteOnEvent(tick=0, channel=0, data=[57, 54]),
   midi.NoteOnEvent(tick=120, channel=0, data=[57, 0]),
   midi.NoteOnEvent(tick=0, channel=0, data=[50, 0]),
   midi.NoteOnEvent(tick=0, channel=0, data=[51, 66]),
   midi.ControlChangeEvent(tick=18, channel=0, data=[64, 0]),
   midi.ControlChangeEvent(tick=16, channel=0, data=[64, 127]),
   midi.NoteOnEvent(tick=86, channel=0, data=[63, 52]),
   midi.NoteOnEvent(tick=120, channel=0, data=[63, 0]),
   midi.NoteOnEvent(tick=0, channel=0, data=[54, 52]),
   midi.NoteOnEvent(tick=120, channel=0, data=[54, 0]),
   midi.NoteOnEvent(tick=0, channel=0, data=[56, 55]),
   midi.NoteOnEvent(tick=120, channel=0, data=[56, 0]),
   midi.NoteOnEvent(tick=0, channel=0, data=[51, 0]),
   midi.NoteOnEvent(tick=0, channel=0, data=[44, 66]),
   midi.NoteOnEvent(tick=120, channel=0, data=[44, 0]),
   midi.NoteOnEvent(tick=0, channel=0, data=[66, 52]),
   midi.NoteOnEvent(tick=120, channel=0, data=[66, 0]),
   midi.NoteOnEvent(tick=0, channel=0, data=[56, 51]),
   midi.NoteOnEvent(tick=120, channel=0, data=[56, 0]),
   midi.NoteOnEvent(tick=0, channel=0, data=[66, 50]),
   midi.NoteOnEvent(tick=120, channel=0, data=[66, 0]),
   midi.NoteOnEvent(tick=0, channel=0, data=[60, 49]),
   midi.NoteOnEvent(tick=120, channel=0, data=[60, 0]),
   midi.NoteOnEvent(tick=0, channel=0, data=[54, 47]),
   midi.NoteOnEvent(tick=120, channel=0, data=[54, 0]),
   midi.NoteOnEvent(tick=0, channel=0, data=[37, 76]),
   midi.ControlChangeEvent(tick=15, channel=0, data=[64, 0]),
   midi.NoteOnEvent(tick=105, channel=0, data=[37, 0]),
   midi.NoteOnEvent(tick=0, channel=0, data=[65, 44]),
   midi.ControlChangeEvent(tick=14, channel=0, data=[64, 127]),
   midi.NoteOnEvent(tick=106, channel=0, data=[65, 0]),
   midi.NoteOnEvent(tick=0, channel=0, data=[56, 48]),
   midi.NoteOnEvent(tick=120, channel=0, data=[56, 0]),
   midi.NoteOnEvent(tick=0, channel=0, data=[65, 48]),
   midi.NoteOnEvent(tick=120, channel=0, data=[65, 0]),
   midi.NoteOnEvent(tick=0, channel=0, data=[61, 48]),
   midi.NoteOnEvent(tick=120, channel=0, data=[61, 0]),
   midi.NoteOnEvent(tick=0, channel=0, data=[53, 47]),
   midi.NoteOnEvent(tick=120, channel=0, data=[53, 0]),
   midi.NoteOnEvent(tick=0, channel=0, data=[49, 56]),
   midi.NoteOnEvent(tick=120, channel=0, data=[49, 0]),
   midi.NoteOnEvent(tick=0, channel=0, data=[65, 44]),
   midi.NoteOnEvent(tick=120, channel=0, data=[65, 0]),
   midi.NoteOnEvent(tick=0, channel=0, data=[56, 44]),
   midi.NoteOnEvent(tick=120, channel=0, data=[56, 0]),
   midi.NoteOnEvent(tick=0, channel=0, data=[65, 44]),
   midi.NoteOnEvent(tick=120, channel=0, data=[65, 0]),
   midi.NoteOnEvent(tick=0, channel=0, data=[61, 44]),
   midi.NoteOnEvent(tick=120, channel=0, data=[61, 0]),
   midi.NoteOnEvent(tick=0, channel=0, data=[53, 44]),
   midi.NoteOnEvent(tick=120, channel=0, data=[53, 0]),
   midi.NoteOnEvent(tick=0, channel=0, data=[49, 52]),
   midi.NoteOnEvent(tick=120, channel=0, data=[49, 0]),
   midi.NoteOnEvent(tick=0, channel=0, data=[65, 48]),
   midi.NoteOnEvent(tick=120, channel=0, data=[65, 0]),
   midi.NoteOnEvent(tick=0, channel=0, data=[56, 48]),
   midi.NoteOnEvent(tick=120, channel=0, data=[56, 0]),
   midi.NoteOnEvent(tick=0, channel=0, data=[65, 46]),
   midi.NoteOnEvent(tick=120, channel=0, data=[65, 0]),
   midi.NoteOnEvent(tick=0, channel=0, data=[61, 46]),
   midi.NoteOnEvent(tick=120, channel=0, data=[61, 0]),
   midi.NoteOnEvent(tick=0, channel=0, data=[53, 46]),
   midi.NoteOnEvent(tick=120, channel=0, data=[53, 0]),
   midi.NoteOnEvent(tick=0, channel=0, data=[49, 54]),
   midi.NoteOnEvent(tick=120, channel=0, data=[49, 0]),
   midi.NoteOnEvent(tick=0, channel=0, data=[65, 46]),
   midi.NoteOnEvent(tick=120, channel=0, data=[65, 0]),
   midi.NoteOnEvent(tick=0, channel=0, data=[56, 46]),
   midi.NoteOnEvent(tick=120, channel=0, data=[56, 0]),
   midi.NoteOnEvent(tick=0, channel=0, data=[65, 48]),
   midi.NoteOnEvent(tick=120, channel=0, data=[65, 0]),
   midi.NoteOnEvent(tick=0, channel=0, data=[61, 49]),
   midi.NoteOnEvent(tick=120, channel=0, data=[61, 0]),
   midi.NoteOnEvent(tick=0, channel=0, data=[53, 52]),
   midi.NoteOnEvent(tick=120, channel=0, data=[53, 0]),
   midi.NoteOnEvent(tick=0, channel=0, data=[49, 59]),
   midi.NoteOnEvent(tick=120, channel=0, data=[49, 0]),
   midi.NoteOnEvent(tick=0, channel=0, data=[65, 51]),
   midi.NoteOnEvent(tick=120, channel=0, data=[65, 0]),
   midi.NoteOnEvent(tick=0, channel=0, data=[56, 49]),
   midi.NoteOnEvent(tick=120, channel=0, data=[56, 0]),
   midi.NoteOnEvent(tick=0, channel=0, data=[65, 48]),
   midi.NoteOnEvent(tick=120, channel=0, data=[65, 0]),
   midi.NoteOnEvent(tick=0, channel=0, data=[61, 48]),
   midi.NoteOnEvent(tick=120, channel=0, data=[61, 0]),
   midi.NoteOnEvent(tick=0, channel=0, data=[53, 46]),
   midi.NoteOnEvent(tick=120, channel=0, data=[53, 0]),
   midi.NoteOnEvent(tick=0, channel=0, data=[49, 52]),
   midi.NoteOnEvent(tick=120, channel=0, data=[49, 0]),
   midi.NoteOnEvent(tick=0, channel=0, data=[65, 44]),
   midi.NoteOnEvent(tick=120, channel=0, data=[65, 0]),
   midi.NoteOnEvent(tick=0, channel=0, data=[56, 44]),
   midi.NoteOnEvent(tick=120, channel=0, data=[56, 0]),
   midi.NoteOnEvent(tick=0, channel=0, data=[65, 44]),
   midi.NoteOnEvent(tick=120, channel=0, data=[65, 0]),
   midi.NoteOnEvent(tick=0, channel=0, data=[61, 44]),
   midi.NoteOnEvent(tick=120, channel=0, data=[61, 0]),
   midi.NoteOnEvent(tick=0, channel=0, data=[53, 42]),
   midi.NoteOnEvent(tick=120, channel=0, data=[53, 0]),
   midi.NoteOnEvent(tick=0, channel=0, data=[37, 52]),
   midi.ControlChangeEvent(tick=11, channel=0, data=[64, 0]),
   midi.ControlChangeEvent(tick=58, channel=0, data=[64, 127]),
   midi.NoteOnEvent(tick=51, channel=0, data=[37, 0]),
   midi.NoteOnEvent(tick=0, channel=0, data=[65, 44]),
   midi.NoteOnEvent(tick=120, channel=0, data=[65, 0]),
   midi.NoteOnEvent(tick=0, channel=0, data=[56, 44]),
   midi.NoteOnEvent(tick=120, channel=0, data=[56, 0]),
   midi.NoteOnEvent(tick=0, channel=0, data=[65, 44]),
   midi.NoteOnEvent(tick=120, channel=0, data=[65, 0]),
   midi.NoteOnEvent(tick=0, channel=0, data=[61, 44]),
   midi.NoteOnEvent(tick=120, channel=0, data=[61, 0]),
   midi.NoteOnEvent(tick=0, channel=0, data=[53, 44]),
   midi.NoteOnEvent(tick=120, channel=0, data=[53, 0]),
   midi.NoteOnEvent(tick=0, channel=0, data=[49, 52]),
   midi.NoteOnEvent(tick=120, channel=0, data=[49, 0]),
   midi.NoteOnEvent(tick=0, channel=0, data=[65, 44]),
   midi.NoteOnEvent(tick=120, channel=0, data=[65, 0]),
   midi.NoteOnEvent(tick=0, channel=0, data=[56, 44]),
   midi.NoteOnEvent(tick=120, channel=0, data=[56, 0]),
   midi.NoteOnEvent(tick=0, channel=0, data=[65, 37]),
   midi.NoteOnEvent(tick=120, channel=0, data=[65, 0]),
   midi.NoteOnEvent(tick=0, channel=0, data=[61, 42]),
   midi.NoteOnEvent(tick=120, channel=0, data=[61, 0]),
   midi.NoteOnEvent(tick=0, channel=0, data=[53, 32]),
   midi.NoteOnEvent(tick=120, channel=0, data=[53, 0]),
   midi.NoteOnEvent(tick=0, channel=0, data=[49, 28]),
   midi.ControlChangeEvent(tick=12, channel=0, data=[64, 0]),
   midi.ControlChangeEvent(tick=34, channel=0, data=[64, 127]),
   midi.NoteOnEvent(tick=74, channel=0, data=[49, 0]),
   midi.NoteOnEvent(tick=0, channel=0, data=[65, 22]),
   midi.NoteOnEvent(tick=120, channel=0, data=[65, 0]),
   midi.NoteOnEvent(tick=0, channel=0, data=[56, 22]),
   midi.NoteOnEvent(tick=120, channel=0, data=[56, 0]),
   midi.NoteOnEvent(tick=0, channel=0, data=[65, 22]),
   midi.NoteOnEvent(tick=120, channel=0, data=[65, 0]),
   midi.NoteOnEvent(tick=0, channel=0, data=[61, 22]),
   midi.NoteOnEvent(tick=120, channel=0, data=[61, 0]),
   midi.NoteOnEvent(tick=0, channel=0, data=[53, 22]),
   midi.NoteOnEvent(tick=120, channel=0, data=[53, 0]),
   midi.NoteOnEvent(tick=0, channel=0, data=[49, 27]),
   midi.NoteOnEvent(tick=120, channel=0, data=[49, 0]),
   midi.NoteOnEvent(tick=0, channel=0, data=[65, 22]),
   midi.NoteOnEvent(tick=120, channel=0, data=[65, 0]),
   midi.NoteOnEvent(tick=0, channel=0, data=[56, 22]),
   midi.NoteOnEvent(tick=120, channel=0, data=[56, 0]),
   midi.NoteOnEvent(tick=0, channel=0, data=[65, 22]),
   midi.NoteOnEvent(tick=120, channel=0, data=[65, 0]),
   midi.NoteOnEvent(tick=0, channel=0, data=[61, 24]),
   midi.NoteOnEvent(tick=120, channel=0, data=[61, 0]),
   midi.NoteOnEvent(tick=0, channel=0, data=[53, 22]),
   midi.NoteOnEvent(tick=120, channel=0, data=[53, 0]),
   midi.NoteOnEvent(tick=0, channel=0, data=[37, 27]),
   midi.ControlChangeEvent(tick=21, channel=0, data=[64, 0]),
   midi.ControlChangeEvent(tick=53, channel=0, data=[64, 127]),
   midi.NoteOnEvent(tick=46, channel=0, data=[37, 0]),
   midi.NoteOnEvent(tick=0, channel=0, data=[65, 22]),
   midi.NoteOnEvent(tick=120, channel=0, data=[65, 0]),
   midi.NoteOnEvent(tick=0, channel=0, data=[56, 22]),
   midi.NoteOnEvent(tick=120, channel=0, data=[56, 0]),
   midi.NoteOnEvent(tick=0, channel=0, data=[65, 22]),
   midi.NoteOnEvent(tick=120, channel=0, data=[65, 0]),
   midi.NoteOnEvent(tick=0, channel=0, data=[59, 21]),
   midi.NoteOnEvent(tick=120, channel=0, data=[59, 0]),
   midi.NoteOnEvent(tick=0, channel=0, data=[53, 21]),
   midi.NoteOnEvent(tick=120, channel=0, data=[53, 0]),
   midi.NoteOnEvent(tick=0, channel=0, data=[49, 28]),
   midi.ControlChangeEvent(tick=17, channel=0, data=[64, 0]),
   midi.ControlChangeEvent(tick=63, channel=0, data=[64, 127]),
   midi.NoteOnEvent(tick=40, channel=0, data=[49, 0]),
   midi.NoteOnEvent(tick=0, channel=0, data=[65, 23]),
   midi.NoteOnEvent(tick=120, channel=0, data=[65, 0]),
   midi.NoteOnEvent(tick=0, channel=0, data=[56, 25]),
   midi.NoteOnEvent(tick=120, channel=0, data=[56, 0]),
   midi.NoteOnEvent(tick=0, channel=0, data=[65, 27]),
   midi.NoteOnEvent(tick=120, channel=0, data=[65, 0]),
   midi.NoteOnEvent(tick=0, channel=0, data=[59, 28]),
   midi.NoteOnEvent(tick=120, channel=0, data=[59, 0]),
   midi.NoteOnEvent(tick=0, channel=0, data=[53, 30]),
   midi.NoteOnEvent(tick=120, channel=0, data=[53, 0]),
   midi.NoteOnEvent(tick=0, channel=0, data=[49, 33]),
   midi.ControlChangeEvent(tick=15, channel=0, data=[64, 0]),
   midi.ControlChangeEvent(tick=35, channel=0, data=[64, 127]),
   midi.NoteOnEvent(tick=190, channel=0, data=[49, 0]),
   midi.NoteOnEvent(tick=0, channel=0, data=[65, 28]),
   midi.NoteOnEvent(tick=240, channel=0, data=[65, 0]),
   midi.NoteOnEvent(tick=0, channel=0, data=[56, 28]),
   midi.NoteOnEvent(tick=240, channel=0, data=[56, 0]),
   midi.NoteOnEvent(tick=0, channel=0, data=[65, 28]),
   midi.NoteOnEvent(tick=240, channel=0, data=[65, 0]),
   midi.NoteOnEvent(tick=0, channel=0, data=[59, 28]),
   midi.NoteOnEvent(tick=240, channel=0, data=[59, 0]),
   midi.NoteOnEvent(tick=0, channel=0, data=[53, 28]),
   midi.NoteOnEvent(tick=240, channel=0, data=[53, 0]),
   midi.NoteOnEvent(tick=0, channel=0, data=[49, 28]),
   midi.ControlChangeEvent(tick=18, channel=0, data=[64, 0]),
   midi.ControlChangeEvent(tick=22, channel=0, data=[64, 127]),
   midi.NoteOnEvent(tick=200, channel=0, data=[49, 0]),
   midi.NoteOnEvent(tick=0, channel=0, data=[65, 29]),
   midi.NoteOnEvent(tick=240, channel=0, data=[65, 0]),
   midi.NoteOnEvent(tick=0, channel=0, data=[56, 30]),
   midi.NoteOnEvent(tick=240, channel=0, data=[56, 0]),
   midi.NoteOnEvent(tick=0, channel=0, data=[65, 30]),
   midi.NoteOnEvent(tick=240, channel=0, data=[65, 0]),
   midi.NoteOnEvent(tick=0, channel=0, data=[59, 29]),
   midi.NoteOnEvent(tick=240, channel=0, data=[59, 0]),
   midi.NoteOnEvent(tick=0, channel=0, data=[53, 28]),
   midi.NoteOnEvent(tick=240, channel=0, data=[53, 0]),
   midi.NoteOnEvent(tick=0, channel=0, data=[50, 29]),
   midi.ControlChangeEvent(tick=24, channel=0, data=[64, 0]),
   midi.ControlChangeEvent(tick=50, channel=0, data=[64, 127]),
   midi.NoteOnEvent(tick=46, channel=0, data=[50, 0]),
   midi.NoteOnEvent(tick=0, channel=0, data=[65, 22]),
   midi.NoteOnEvent(tick=120, channel=0, data=[65, 0]),
   midi.NoteOnEvent(tick=0, channel=0, data=[56, 22]),
   midi.NoteOnEvent(tick=120, channel=0, data=[56, 0]),
   midi.NoteOnEvent(tick=0, channel=0, data=[65, 22]),
   midi.NoteOnEvent(tick=120, channel=0, data=[65, 0]),
   midi.NoteOnEvent(tick=0, channel=0, data=[58, 21]),
   midi.NoteOnEvent(tick=120, channel=0, data=[58, 0]),
   midi.NoteOnEvent(tick=0, channel=0, data=[53, 21]),
   midi.NoteOnEvent(tick=120, channel=0, data=[53, 0]),
   midi.NoteOnEvent(tick=0, channel=0, data=[50, 28]),
   midi.ControlChangeEvent(tick=17, channel=0, data=[64, 0]),
   midi.ControlChangeEvent(tick=63, channel=0, data=[64, 127]),
   midi.NoteOnEvent(tick=40, channel=0, data=[50, 0]),
   midi.NoteOnEvent(tick=0, channel=0, data=[65, 23]),
   midi.NoteOnEvent(tick=120, channel=0, data=[65, 0]),
   midi.NoteOnEvent(tick=0, channel=0, data=[56, 25]),
   midi.NoteOnEvent(tick=120, channel=0, data=[56, 0]),
   midi.NoteOnEvent(tick=0, channel=0, data=[65, 27]),
   midi.NoteOnEvent(tick=120, channel=0, data=[65, 0]),
   midi.NoteOnEvent(tick=0, channel=0, data=[58, 28]),
   midi.NoteOnEvent(tick=120, channel=0, data=[58, 0]),
   midi.NoteOnEvent(tick=0, channel=0, data=[53, 30]),
   midi.NoteOnEvent(tick=120, channel=0, data=[53, 0]),
   midi.NoteOnEvent(tick=0, channel=0, data=[51, 35]),
   midi.ControlChangeEvent(tick=14, channel=0, data=[64, 0]),
   midi.ControlChangeEvent(tick=41, channel=0, data=[64, 127]),
   midi.NoteOnEvent(tick=65, channel=0, data=[51, 0]),
   midi.NoteOnEvent(tick=0, channel=0, data=[66, 28]),
   midi.NoteOnEvent(tick=120, channel=0, data=[66, 0]),
   midi.NoteOnEvent(tick=0, channel=0, data=[58, 28]),
   midi.NoteOnEvent(tick=120, channel=0, data=[58, 0]),
   midi.NoteOnEvent(tick=0, channel=0, data=[66, 28]),
   midi.NoteOnEvent(tick=120, channel=0, data=[66, 0]),
   midi.NoteOnEvent(tick=0, channel=0, data=[63, 28]),
   midi.NoteOnEvent(tick=120, channel=0, data=[63, 0]),
   midi.NoteOnEvent(tick=0, channel=0, data=[54, 28]),
   midi.NoteOnEvent(tick=120, channel=0, data=[54, 0]),
   midi.NoteOnEvent(tick=0, channel=0, data=[51, 35]),
   midi.ControlChangeEvent(tick=17, channel=0, data=[64, 0]),
   midi.ControlChangeEvent(tick=48, channel=0, data=[64, 127]),
   midi.NoteOnEvent(tick=55, channel=0, data=[51, 0]),
   midi.NoteOnEvent(tick=0, channel=0, data=[68, 30]),
   midi.NoteOnEvent(tick=120, channel=0, data=[68, 0]),
   midi.NoteOnEvent(tick=0, channel=0, data=[58, 31]),
   midi.NoteOnEvent(tick=120, channel=0, data=[58, 0]),
   midi.NoteOnEvent(tick=0, channel=0, data=[68, 31]),
   midi.NoteOnEvent(tick=120, channel=0, data=[68, 0]),
   midi.NoteOnEvent(tick=0, channel=0, data=[62, 31]),
   midi.NoteOnEvent(tick=120, channel=0, data=[62, 0]),
   midi.NoteOnEvent(tick=0, channel=0, data=[53, 31]),
   midi.NoteOnEvent(tick=120, channel=0, data=[53, 0]),
   midi.NoteOnEvent(tick=0, channel=0, data=[51, 44]),
   midi.ControlChangeEvent(tick=14, channel=0, data=[64, 0]),
   midi.ControlChangeEvent(tick=41, channel=0, data=[64, 127]),
   midi.NoteOnEvent(tick=65, channel=0, data=[51, 0]),
   midi.NoteOnEvent(tick=0, channel=0, data=[66, 34]),
   midi.NoteOnEvent(tick=120, channel=0, data=[66, 0]),
   midi.NoteOnEvent(tick=0, channel=0, data=[58, 34]),
   midi.NoteOnEvent(tick=120, channel=0, data=[58, 0]),
   midi.NoteOnEvent(tick=0, channel=0, data=[66, 34]),
   midi.NoteOnEvent(tick=120, channel=0, data=[66, 0]),
   midi.NoteOnEvent(tick=0, channel=0, data=[63, 34]),
   midi.NoteOnEvent(tick=120, channel=0, data=[63, 0]),
   midi.NoteOnEvent(tick=0, channel=0, data=[54, 34]),
   midi.NoteOnEvent(tick=120, channel=0, data=[54, 0]),
   midi.NoteOnEvent(tick=0, channel=0, data=[46, 45]),
   midi.ControlChangeEvent(tick=17, channel=0, data=[64, 0]),
   midi.ControlChangeEvent(tick=48, channel=0, data=[64, 127]),
   midi.NoteOnEvent(tick=55, channel=0, data=[46, 0]),
   midi.NoteOnEvent(tick=0, channel=0, data=[65, 35]),
   midi.NoteOnEvent(tick=120, channel=0, data=[65, 0]),
   midi.NoteOnEvent(tick=0, channel=0, data=[58, 37]),
   midi.NoteOnEvent(tick=120, channel=0, data=[58, 0]),
   midi.NoteOnEvent(tick=0, channel=0, data=[65, 39]),
   midi.NoteOnEvent(tick=120, channel=0, data=[65, 0]),
   midi.NoteOnEvent(tick=0, channel=0, data=[62, 40]),
   midi.NoteOnEvent(tick=120, channel=0, data=[62, 0]),
   midi.NoteOnEvent(tick=0, channel=0, data=[53, 42]),
   midi.NoteOnEvent(tick=120, channel=0, data=[53, 0]),
   midi.NoteOnEvent(tick=0, channel=0, data=[39, 35]),
   midi.ControlChangeEvent(tick=13, channel=0, data=[64, 0]),
   midi.ControlChangeEvent(tick=42, channel=0, data=[64, 127]),
   midi.NoteOnEvent(tick=65, channel=0, data=[39, 0]),
   midi.NoteOnEvent(tick=0, channel=0, data=[66, 28]),
   midi.NoteOnEvent(tick=120, channel=0, data=[66, 0]),
   midi.NoteOnEvent(tick=0, channel=0, data=[58, 28]),
   midi.NoteOnEvent(tick=120, channel=0, data=[58, 0]),
   midi.NoteOnEvent(tick=0, channel=0, data=[66, 28]),
   midi.NoteOnEvent(tick=120, channel=0, data=[66, 0]),
   midi.NoteOnEvent(tick=0, channel=0, data=[63, 28]),
   midi.NoteOnEvent(tick=120, channel=0, data=[63, 0]),
   midi.NoteOnEvent(tick=0, channel=0, data=[54, 28]),
   midi.NoteOnEvent(tick=120, channel=0, data=[54, 0]),
   midi.NoteOnEvent(tick=0, channel=0, data=[51, 35]),
   midi.ControlChangeEvent(tick=16, channel=0, data=[64, 0]),
   midi.ControlChangeEvent(tick=49, channel=0, data=[64, 127]),
   midi.NoteOnEvent(tick=55, channel=0, data=[51, 0]),
   midi.NoteOnEvent(tick=0, channel=0, data=[68, 30]),
   midi.NoteOnEvent(tick=120, channel=0, data=[68, 0]),
   midi.NoteOnEvent(tick=0, channel=0, data=[58, 31]),
   midi.NoteOnEvent(tick=120, channel=0, data=[58, 0]),
   midi.NoteOnEvent(tick=0, channel=0, data=[68, 31]),
   midi.NoteOnEvent(tick=120, channel=0, data=[68, 0]),
   midi.NoteOnEvent(tick=0, channel=0, data=[62, 31]),
   midi.NoteOnEvent(tick=120, channel=0, data=[62, 0]),
   midi.NoteOnEvent(tick=0, channel=0, data=[53, 31]),
   midi.NoteOnEvent(tick=120, channel=0, data=[53, 0]),
   midi.NoteOnEvent(tick=0, channel=0, data=[51, 44]),
   midi.ControlChangeEvent(tick=14, channel=0, data=[64, 0]),
   midi.ControlChangeEvent(tick=41, channel=0, data=[64, 127]),
   midi.NoteOnEvent(tick=65, channel=0, data=[51, 0]),
   midi.NoteOnEvent(tick=0, channel=0, data=[66, 34]),
   midi.NoteOnEvent(tick=120, channel=0, data=[66, 0]),
   midi.NoteOnEvent(tick=0, channel=0, data=[58, 34]),
   midi.NoteOnEvent(tick=120, channel=0, data=[58, 0]),
   midi.NoteOnEvent(tick=0, channel=0, data=[66, 34]),
   midi.NoteOnEvent(tick=120, channel=0, data=[66, 0]),
   midi.NoteOnEvent(tick=0, channel=0, data=[63, 34]),
   midi.NoteOnEvent(tick=120, channel=0, data=[63, 0]),
   midi.NoteOnEvent(tick=0, channel=0, data=[54, 34]),
   midi.NoteOnEvent(tick=120, channel=0, data=[54, 0]),
   midi.NoteOnEvent(tick=0, channel=0, data=[42, 65]),
   midi.ControlChangeEvent(tick=17, channel=0, data=[64, 0]),
   midi.ControlChangeEvent(tick=48, channel=0, data=[64, 127]),
   midi.NoteOnEvent(tick=55, channel=0, data=[42, 0]),
   midi.NoteOnEvent(tick=0, channel=0, data=[63, 40]),
   midi.NoteOnEvent(tick=120, channel=0, data=[63, 0]),
   midi.NoteOnEvent(tick=0, channel=0, data=[54, 42]),
   midi.NoteOnEvent(tick=120, channel=0, data=[54, 0]),
   midi.NoteOnEvent(tick=0, channel=0, data=[63, 44]),
   midi.NoteOnEvent(tick=120, channel=0, data=[63, 0]),
   midi.NoteOnEvent(tick=0, channel=0, data=[58, 46]),
   midi.NoteOnEvent(tick=120, channel=0, data=[58, 0]),
   midi.NoteOnEvent(tick=0, channel=0, data=[51, 48]),
   midi.NoteOnEvent(tick=120, channel=0, data=[51, 0]),
   midi.NoteOnEvent(tick=0, channel=0, data=[44, 52]),
   midi.ControlChangeEvent(tick=14, channel=0, data=[64, 0]),
   midi.ControlChangeEvent(tick=41, channel=0, data=[64, 127]),
   midi.NoteOnEvent(tick=65, channel=0, data=[44, 0]),
   midi.NoteOnEvent(tick=0, channel=0, data=[61, 44]),
   midi.NoteOnEvent(tick=120, channel=0, data=[61, 0]),
   midi.NoteOnEvent(tick=0, channel=0, data=[53, 44]),
   midi.NoteOnEvent(tick=120, channel=0, data=[53, 0]),
   midi.NoteOnEvent(tick=0, channel=0, data=[61, 44]),
   midi.NoteOnEvent(tick=120, channel=0, data=[61, 0]),
   midi.NoteOnEvent(tick=0, channel=0, data=[56, 44]),
   midi.NoteOnEvent(tick=120, channel=0, data=[56, 0]),
   midi.NoteOnEvent(tick=0, channel=0, data=[44, 44]),
   midi.NoteOnEvent(tick=120, channel=0, data=[44, 0]),
   midi.NoteOnEvent(tick=0, channel=0, data=[46, 57]),
   midi.ControlChangeEvent(tick=17, channel=0, data=[64, 0]),
   midi.ControlChangeEvent(tick=48, channel=0, data=[64, 127]),
   midi.NoteOnEvent(tick=55, channel=0, data=[46, 0]),
   midi.NoteOnEvent(tick=0, channel=0, data=[61, 48]),
   midi.NoteOnEvent(tick=120, channel=0, data=[61, 0]),
   midi.NoteOnEvent(tick=0, channel=0, data=[53, 48]),
   midi.NoteOnEvent(tick=120, channel=0, data=[53, 0]),
   midi.NoteOnEvent(tick=0, channel=0, data=[61, 48]),
   midi.NoteOnEvent(tick=120, channel=0, data=[61, 0]),
   midi.NoteOnEvent(tick=0, channel=0, data=[58, 48]),
   midi.NoteOnEvent(tick=120, channel=0, data=[58, 0]),
   midi.NoteOnEvent(tick=0, channel=0, data=[46, 49]),
   midi.NoteOnEvent(tick=120, channel=0, data=[46, 0]),
   midi.NoteOnEvent(tick=0, channel=0, data=[41, 58]),
   midi.ControlChangeEvent(tick=13, channel=0, data=[64, 0]),
   midi.ControlChangeEvent(tick=42, channel=0, data=[64, 127]),
   midi.NoteOnEvent(tick=65, channel=0, data=[41, 0]),
   midi.NoteOnEvent(tick=0, channel=0, data=[56, 51]),
   midi.NoteOnEvent(tick=120, channel=0, data=[56, 0]),
   midi.NoteOnEvent(tick=0, channel=0, data=[49, 51]),
   midi.NoteOnEvent(tick=120, channel=0, data=[49, 0]),
   midi.NoteOnEvent(tick=0, channel=0, data=[56, 51]),
   midi.NoteOnEvent(tick=120, channel=0, data=[56, 0]),
   midi.NoteOnEvent(tick=0, channel=0, data=[49, 51]),
   midi.NoteOnEvent(tick=120, channel=0, data=[49, 0]),
   midi.NoteOnEvent(tick=0, channel=0, data=[41, 52]),
   midi.NoteOnEvent(tick=120, channel=0, data=[41, 0]),
   midi.NoteOnEvent(tick=0, channel=0, data=[42, 64]),
   midi.ControlChangeEvent(tick=17, channel=0, data=[64, 0]),
   midi.ControlChangeEvent(tick=48, channel=0, data=[64, 127]),
   midi.NoteOnEvent(tick=55, channel=0, data=[42, 0]),
   midi.NoteOnEvent(tick=0, channel=0, data=[58, 51]),
   midi.NoteOnEvent(tick=120, channel=0, data=[58, 0]),
   midi.NoteOnEvent(tick=0, channel=0, data=[49, 52]),
   midi.NoteOnEvent(tick=120, channel=0, data=[49, 0]),
   midi.NoteOnEvent(tick=0, channel=0, data=[58, 54]),
   midi.NoteOnEvent(tick=120, channel=0, data=[58, 0]),
   midi.NoteOnEvent(tick=0, channel=0, data=[51, 55]),
   midi.NoteOnEvent(tick=120, channel=0, data=[51, 0]),
   midi.NoteOnEvent(tick=0, channel=0, data=[42, 56]),
   midi.NoteOnEvent(tick=120, channel=0, data=[42, 0]),
   midi.NoteOnEvent(tick=0, channel=0, data=[32, 58]),
   midi.ControlChangeEvent(tick=15, channel=0, data=[64, 0]),
   midi.ControlChangeEvent(tick=40, channel=0, data=[64, 127]),
   midi.NoteOnEvent(tick=65, channel=0, data=[32, 0]),
   midi.NoteOnEvent(tick=0, channel=0, data=[61, 51]),
   midi.NoteOnEvent(tick=120, channel=0, data=[61, 0]),
   midi.NoteOnEvent(tick=0, channel=0, data=[51, 51]),
   midi.NoteOnEvent(tick=120, channel=0, data=[51, 0]),
   midi.NoteOnEvent(tick=0, channel=0, data=[61, 51]),
   midi.NoteOnEvent(tick=120, channel=0, data=[61, 0]),
   midi.NoteOnEvent(tick=0, channel=0, data=[56, 51]),
   midi.NoteOnEvent(tick=120, channel=0, data=[56, 0]),
   midi.NoteOnEvent(tick=0, channel=0, data=[51, 52]),
   midi.NoteOnEvent(tick=120, channel=0, data=[51, 0]),
   midi.NoteOnEvent(tick=0, channel=0, data=[44, 64]),
   midi.NoteOnEvent(tick=120, channel=0, data=[44, 0]),
   midi.NoteOnEvent(tick=0, channel=0, data=[61, 51]),
   midi.NoteOnEvent(tick=120, channel=0, data=[61, 0]),
   midi.NoteOnEvent(tick=0, channel=0, data=[51, 52]),
   midi.NoteOnEvent(tick=120, channel=0, data=[51, 0]),
   midi.NoteOnEvent(tick=0, channel=0, data=[61, 54]),
   midi.NoteOnEvent(tick=120, channel=0, data=[61, 0]),
   midi.NoteOnEvent(tick=0, channel=0, data=[56, 55]),
   midi.NoteOnEvent(tick=120, channel=0, data=[56, 0]),
   midi.NoteOnEvent(tick=0, channel=0, data=[51, 56]),
   midi.NoteOnEvent(tick=120, channel=0, data=[51, 0]),
   midi.NoteOnEvent(tick=0, channel=0, data=[32, 58]),
   midi.NoteOnEvent(tick=120, channel=0, data=[32, 0]),
   midi.NoteOnEvent(tick=0, channel=0, data=[61, 51]),
   midi.NoteOnEvent(tick=120, channel=0, data=[61, 0]),
   midi.NoteOnEvent(tick=0, channel=0, data=[51, 51]),
   midi.NoteOnEvent(tick=120, channel=0, data=[51, 0]),
   midi.NoteOnEvent(tick=0, channel=0, data=[61, 51]),
   midi.NoteOnEvent(tick=120, channel=0, data=[61, 0]),
   midi.NoteOnEvent(tick=0, channel=0, data=[54, 51]),
   midi.NoteOnEvent(tick=120, channel=0, data=[54, 0]),
   midi.NoteOnEvent(tick=0, channel=0, data=[51, 52]),
   midi.NoteOnEvent(tick=120, channel=0, data=[51, 0]),
   midi.NoteOnEvent(tick=0, channel=0, data=[44, 64]),
   midi.ControlChangeEvent(tick=17, channel=0, data=[64, 0]),
   midi.ControlChangeEvent(tick=48, channel=0, data=[64, 127]),
   midi.NoteOnEvent(tick=55, channel=0, data=[44, 0]),
   midi.NoteOnEvent(tick=0, channel=0, data=[60, 51]),
   midi.NoteOnEvent(tick=120, channel=0, data=[60, 0]),
   midi.NoteOnEvent(tick=0, channel=0, data=[51, 52]),
   midi.NoteOnEvent(tick=120, channel=0, data=[51, 0]),
   midi.NoteOnEvent(tick=0, channel=0, data=[60, 54]),
   midi.NoteOnEvent(tick=120, channel=0, data=[60, 0]),
   midi.NoteOnEvent(tick=0, channel=0, data=[54, 55]),
   midi.NoteOnEvent(tick=120, channel=0, data=[54, 0]),
   midi.NoteOnEvent(tick=0, channel=0, data=[44, 56]),
   midi.NoteOnEvent(tick=120, channel=0, data=[44, 0]),
   midi.NoteOnEvent(tick=0, channel=0, data=[37, 64]),
   midi.ControlChangeEvent(tick=13, channel=0, data=[64, 0]),
   midi.ControlChangeEvent(tick=38, channel=0, data=[64, 127]),
   midi.NoteOnEvent(tick=69, channel=0, data=[37, 0]),
   midi.NoteOnEvent(tick=0, channel=0, data=[65, 26]),
   midi.NoteOnEvent(tick=120, channel=0, data=[65, 0]),
   midi.NoteOnEvent(tick=0, channel=0, data=[56, 26]),
   midi.NoteOnEvent(tick=120, channel=0, data=[56, 0]),
   midi.NoteOnEvent(tick=0, channel=0, data=[65, 26]),
   midi.NoteOnEvent(tick=120, channel=0, data=[65, 0]),
   midi.NoteOnEvent(tick=0, channel=0, data=[61, 26]),
   midi.NoteOnEvent(tick=120, channel=0, data=[61, 0]),
   midi.NoteOnEvent(tick=0, channel=0, data=[53, 26]),
   midi.NoteOnEvent(tick=120, channel=0, data=[53, 0]),
   midi.NoteOnEvent(tick=0, channel=0, data=[49, 30]),
   midi.ControlChangeEvent(tick=15, channel=0, data=[64, 0]),
   midi.ControlChangeEvent(tick=65, channel=0, data=[64, 127]),
   midi.NoteOnEvent(tick=40, channel=0, data=[49, 0]),
   midi.NoteOnEvent(tick=0, channel=0, data=[64, 26]),
   midi.NoteOnEvent(tick=120, channel=0, data=[64, 0]),
   midi.NoteOnEvent(tick=0, channel=0, data=[58, 26]),
   midi.NoteOnEvent(tick=120, channel=0, data=[58, 0]),
   midi.NoteOnEvent(tick=0, channel=0, data=[64, 26]),
   midi.NoteOnEvent(tick=120, channel=0, data=[64, 0]),
   midi.NoteOnEvent(tick=0, channel=0, data=[61, 26]),
   midi.NoteOnEvent(tick=120, channel=0, data=[61, 0]),
   midi.NoteOnEvent(tick=0, channel=0, data=[55, 26]),
   midi.NoteOnEvent(tick=120, channel=0, data=[55, 0]),
   midi.NoteOnEvent(tick=0, channel=0, data=[49, 30]),
   midi.ControlChangeEvent(tick=19, channel=0, data=[64, 0]),
   midi.ControlChangeEvent(tick=61, channel=0, data=[64, 127]),
   midi.NoteOnEvent(tick=40, channel=0, data=[49, 0]),
   midi.NoteOnEvent(tick=0, channel=0, data=[63, 26]),
   midi.NoteOnEvent(tick=120, channel=0, data=[63, 0]),
   midi.NoteOnEvent(tick=0, channel=0, data=[57, 26]),
   midi.NoteOnEvent(tick=120, channel=0, data=[57, 0]),
   midi.NoteOnEvent(tick=0, channel=0, data=[63, 26]),
   midi.NoteOnEvent(tick=120, channel=0, data=[63, 0]),
   midi.NoteOnEvent(tick=0, channel=0, data=[60, 26]),
   midi.NoteOnEvent(tick=120, channel=0, data=[60, 0]),
   midi.NoteOnEvent(tick=0, channel=0, data=[54, 26]),
   midi.NoteOnEvent(tick=120, channel=0, data=[54, 0]),
   midi.NoteOnEvent(tick=0, channel=0, data=[49, 30]),
   midi.ControlChangeEvent(tick=19, channel=0, data=[64, 0]),
   midi.ControlChangeEvent(tick=61, channel=0, data=[64, 127]),
   midi.NoteOnEvent(tick=40, channel=0, data=[62, 26]),
   midi.NoteOnEvent(tick=120, channel=0, data=[62, 0]),
   midi.NoteOnEvent(tick=0, channel=0, data=[56, 25]),
   midi.NoteOnEvent(tick=120, channel=0, data=[56, 0]),
   midi.NoteOnEvent(tick=0, channel=0, data=[62, 25]),
   midi.NoteOnEvent(tick=120, channel=0, data=[62, 0]),
   midi.NoteOnEvent(tick=0, channel=0, data=[59, 25]),
   midi.NoteOnEvent(tick=120, channel=0, data=[59, 0]),
   midi.NoteOnEvent(tick=0, channel=0, data=[53, 25]),
   midi.NoteOnEvent(tick=120, channel=0, data=[53, 0]),
   midi.NoteOnEvent(tick=0, channel=0, data=[49, 0]),
   midi.NoteOnEvent(tick=0, channel=0, data=[49, 28]),
   midi.ControlChangeEvent(tick=18, channel=0, data=[64, 0]),
   midi.ControlChangeEvent(tick=27, channel=0, data=[64, 127]),
   midi.NoteOnEvent(tick=75, channel=0, data=[61, 25]),
   midi.NoteOnEvent(tick=120, channel=0, data=[61, 0]),
   midi.NoteOnEvent(tick=0, channel=0, data=[55, 24]),
   midi.NoteOnEvent(tick=120, channel=0, data=[55, 0]),
   midi.NoteOnEvent(tick=0, channel=0, data=[61, 24]),
   midi.NoteOnEvent(tick=120, channel=0, data=[61, 0]),
   midi.NoteOnEvent(tick=0, channel=0, data=[58, 24]),
   midi.NoteOnEvent(tick=120, channel=0, data=[58, 0]),
   midi.NoteOnEvent(tick=0, channel=0, data=[52, 24]),
   midi.NoteOnEvent(tick=120, channel=0, data=[52, 0]),
   midi.NoteOnEvent(tick=0, channel=0, data=[49, 0]),
   midi.NoteOnEvent(tick=0, channel=0, data=[49, 28]),
   midi.ControlChangeEvent(tick=17, channel=0, data=[64, 0]),
   midi.ControlChangeEvent(tick=63, channel=0, data=[64, 127]),
   midi.NoteOnEvent(tick=40, channel=0, data=[61, 23]),
   midi.NoteOnEvent(tick=120, channel=0, data=[61, 0]),
   midi.NoteOnEvent(tick=0, channel=0, data=[54, 23]),
   midi.NoteOnEvent(tick=120, channel=0, data=[54, 0]),
   midi.NoteOnEvent(tick=0, channel=0, data=[61, 23]),
   midi.NoteOnEvent(tick=120, channel=0, data=[61, 0]),
   midi.NoteOnEvent(tick=0, channel=0, data=[57, 23]),
   midi.NoteOnEvent(tick=120, channel=0, data=[57, 0]),
   midi.NoteOnEvent(tick=0, channel=0, data=[51, 23]),
   midi.NoteOnEvent(tick=120, channel=0, data=[51, 0]),
   midi.NoteOnEvent(tick=0, channel=0, data=[49, 0]),
   midi.NoteOnEvent(tick=0, channel=0, data=[49, 27]),
   midi.ControlChangeEvent(tick=17, channel=0, data=[64, 0]),
   midi.ControlChangeEvent(tick=28, channel=0, data=[64, 127]),
   midi.NoteOnEvent(tick=75, channel=0, data=[49, 0]),
   midi.NoteOnEvent(tick=0, channel=0, data=[60, 22]),
   midi.NoteOnEvent(tick=120, channel=0, data=[60, 0]),
   midi.NoteOnEvent(tick=0, channel=0, data=[54, 22]),
   midi.NoteOnEvent(tick=120, channel=0, data=[54, 0]),
   midi.NoteOnEvent(tick=0, channel=0, data=[60, 22]),
   midi.NoteOnEvent(tick=120, channel=0, data=[60, 0]),
   midi.NoteOnEvent(tick=0, channel=0, data=[56, 22]),
   midi.NoteOnEvent(tick=120, channel=0, data=[56, 0]),
   midi.NoteOnEvent(tick=0, channel=0, data=[51, 22]),
   midi.NoteOnEvent(tick=120, channel=0, data=[51, 0]),
   midi.NoteOnEvent(tick=0, channel=0, data=[49, 27]),
   midi.ControlChangeEvent(tick=18, channel=0, data=[64, 0]),
   midi.ControlChangeEvent(tick=36, channel=0, data=[64, 127]),
   midi.NoteOnEvent(tick=66, channel=0, data=[49, 0]),
   midi.NoteOnEvent(tick=0, channel=0, data=[60, 22]),
   midi.NoteOnEvent(tick=120, channel=0, data=[60, 0]),
   midi.NoteOnEvent(tick=0, channel=0, data=[54, 22]),
   midi.NoteOnEvent(tick=120, channel=0, data=[54, 0]),
   midi.NoteOnEvent(tick=0, channel=0, data=[60, 22]),
   midi.NoteOnEvent(tick=120, channel=0, data=[60, 0]),
   midi.NoteOnEvent(tick=0, channel=0, data=[56, 22]),
   midi.NoteOnEvent(tick=120, channel=0, data=[56, 0]),
   midi.NoteOnEvent(tick=0, channel=0, data=[51, 22]),
   midi.NoteOnEvent(tick=120, channel=0, data=[51, 0]),
   midi.NoteOnEvent(tick=0, channel=0, data=[37, 27]),
   midi.ControlChangeEvent(tick=12, channel=0, data=[64, 0]),
   midi.ControlChangeEvent(tick=39, channel=0, data=[64, 127]),
   midi.NoteOnEvent(tick=69, channel=0, data=[37, 0]),
   midi.NoteOnEvent(tick=0, channel=0, data=[65, 22]),
   midi.NoteOnEvent(tick=120, channel=0, data=[65, 0]),
   midi.NoteOnEvent(tick=0, channel=0, data=[56, 22]),
   midi.NoteOnEvent(tick=120, channel=0, data=[56, 0]),
   midi.NoteOnEvent(tick=0, channel=0, data=[65, 22]),
   midi.NoteOnEvent(tick=120, channel=0, data=[65, 0]),
   midi.NoteOnEvent(tick=0, channel=0, data=[61, 22]),
   midi.NoteOnEvent(tick=120, channel=0, data=[61, 0]),
   midi.NoteOnEvent(tick=0, channel=0, data=[53, 22]),
   midi.NoteOnEvent(tick=120, channel=0, data=[53, 0]),
   midi.NoteOnEvent(tick=0, channel=0, data=[49, 27]),
   midi.ControlChangeEvent(tick=16, channel=0, data=[64, 0]),
   midi.ControlChangeEvent(tick=41, channel=0, data=[64, 127]),
   midi.NoteOnEvent(tick=63, channel=0, data=[49, 0]),
   midi.NoteOnEvent(tick=0, channel=0, data=[64, 22]),
   midi.NoteOnEvent(tick=60, channel=0, data=[64, 0]),
   midi.NoteOnEvent(tick=60, channel=0, data=[58, 22]),
   midi.NoteOnEvent(tick=120, channel=0, data=[58, 0]),
   midi.NoteOnEvent(tick=0, channel=0, data=[64, 22]),
   midi.NoteOnEvent(tick=60, channel=0, data=[64, 0]),
   midi.NoteOnEvent(tick=60, channel=0, data=[61, 22]),
   midi.NoteOnEvent(tick=120, channel=0, data=[61, 0]),
   midi.NoteOnEvent(tick=0, channel=0, data=[55, 22]),
   midi.NoteOnEvent(tick=120, channel=0, data=[55, 0]),
   midi.NoteOnEvent(tick=0, channel=0, data=[49, 27]),
   midi.ControlChangeEvent(tick=19, channel=0, data=[64, 0]),
   midi.ControlChangeEvent(tick=61, channel=0, data=[64, 127]),
   midi.NoteOnEvent(tick=40, channel=0, data=[49, 0]),
   midi.NoteOnEvent(tick=0, channel=0, data=[63, 22]),
   midi.NoteOnEvent(tick=120, channel=0, data=[63, 0]),
   midi.NoteOnEvent(tick=0, channel=0, data=[57, 22]),
   midi.NoteOnEvent(tick=120, channel=0, data=[57, 0]),
   midi.NoteOnEvent(tick=0, channel=0, data=[63, 22]),
   midi.NoteOnEvent(tick=120, channel=0, data=[63, 0]),
   midi.NoteOnEvent(tick=0, channel=0, data=[60, 22]),
   midi.NoteOnEvent(tick=120, channel=0, data=[60, 0]),
   midi.NoteOnEvent(tick=0, channel=0, data=[54, 22]),
   midi.NoteOnEvent(tick=120, channel=0, data=[54, 0]),
   midi.NoteOnEvent(tick=0, channel=0, data=[49, 27]),
   midi.ControlChangeEvent(tick=16, channel=0, data=[64, 0]),
   midi.ControlChangeEvent(tick=64, channel=0, data=[64, 127]),
   midi.NoteOnEvent(tick=40, channel=0, data=[49, 0]),
   midi.NoteOnEvent(tick=0, channel=0, data=[62, 22]),
   midi.NoteOnEvent(tick=120, channel=0, data=[62, 0]),
   midi.NoteOnEvent(tick=0, channel=0, data=[56, 22]),
   midi.NoteOnEvent(tick=120, channel=0, data=[56, 0]),
   midi.NoteOnEvent(tick=0, channel=0, data=[62, 22]),
   midi.NoteOnEvent(tick=120, channel=0, data=[62, 0]),
   midi.NoteOnEvent(tick=0, channel=0, data=[59, 22]),
   midi.NoteOnEvent(tick=120, channel=0, data=[59, 0]),
   midi.NoteOnEvent(tick=0, channel=0, data=[53, 22]),
   midi.NoteOnEvent(tick=120, channel=0, data=[53, 0]),
   midi.NoteOnEvent(tick=0, channel=0, data=[49, 27]),
   midi.ControlChangeEvent(tick=18, channel=0, data=[64, 0]),
   midi.ControlChangeEvent(tick=27, channel=0, data=[64, 127]),
   midi.NoteOnEvent(tick=75, channel=0, data=[61, 22]),
   midi.NoteOnEvent(tick=120, channel=0, data=[61, 0]),
   midi.NoteOnEvent(tick=0, channel=0, data=[55, 22]),
   midi.NoteOnEvent(tick=120, channel=0, data=[55, 0]),
   midi.NoteOnEvent(tick=0, channel=0, data=[61, 22]),
   midi.NoteOnEvent(tick=120, channel=0, data=[61, 0]),
   midi.NoteOnEvent(tick=0, channel=0, data=[58, 22]),
   midi.NoteOnEvent(tick=120, channel=0, data=[58, 0]),
   midi.NoteOnEvent(tick=0, channel=0, data=[52, 22]),
   midi.NoteOnEvent(tick=120, channel=0, data=[52, 0]),
   midi.NoteOnEvent(tick=0, channel=0, data=[49, 0]),
   midi.NoteOnEvent(tick=0, channel=0, data=[49, 27]),
   midi.ControlChangeEvent(tick=16, channel=0, data=[64, 0]),
   midi.ControlChangeEvent(tick=64, channel=0, data=[64, 127]),
   midi.NoteOnEvent(tick=40, channel=0, data=[61, 22]),
   midi.NoteOnEvent(tick=120, channel=0, data=[61, 0]),
   midi.NoteOnEvent(tick=0, channel=0, data=[54, 22]),
   midi.NoteOnEvent(tick=120, channel=0, data=[54, 0]),
   midi.NoteOnEvent(tick=0, channel=0, data=[61, 22]),
   midi.NoteOnEvent(tick=120, channel=0, data=[61, 0]),
   midi.NoteOnEvent(tick=0, channel=0, data=[57, 22]),
   midi.NoteOnEvent(tick=120, channel=0, data=[57, 0]),
   midi.NoteOnEvent(tick=0, channel=0, data=[51, 22]),
   midi.NoteOnEvent(tick=120, channel=0, data=[51, 0]),
   midi.NoteOnEvent(tick=0, channel=0, data=[49, 0]),
   midi.NoteOnEvent(tick=0, channel=0, data=[49, 27]),
   midi.ControlChangeEvent(tick=19, channel=0, data=[64, 0]),
   midi.ControlChangeEvent(tick=26, channel=0, data=[64, 127]),
   midi.NoteOnEvent(tick=75, channel=0, data=[49, 0]),
   midi.NoteOnEvent(tick=0, channel=0, data=[60, 22]),
   midi.NoteOnEvent(tick=120, channel=0, data=[60, 0]),
   midi.NoteOnEvent(tick=0, channel=0, data=[54, 22]),
   midi.NoteOnEvent(tick=120, channel=0, data=[54, 0]),
   midi.NoteOnEvent(tick=0, channel=0, data=[60, 22]),
   midi.NoteOnEvent(tick=120, channel=0, data=[60, 0]),
   midi.NoteOnEvent(tick=0, channel=0, data=[56, 22]),
   midi.NoteOnEvent(tick=120, channel=0, data=[56, 0]),
   midi.NoteOnEvent(tick=0, channel=0, data=[51, 22]),
   midi.NoteOnEvent(tick=120, channel=0, data=[51, 0]),
   midi.NoteOnEvent(tick=0, channel=0, data=[49, 27]),
   midi.ControlChangeEvent(tick=20, channel=0, data=[64, 0]),
   midi.ControlChangeEvent(tick=60, channel=0, data=[64, 127]),
   midi.NoteOnEvent(tick=40, channel=0, data=[49, 0]),
   midi.NoteOnEvent(tick=0, channel=0, data=[60, 22]),
   midi.NoteOnEvent(tick=120, channel=0, data=[60, 0]),
   midi.NoteOnEvent(tick=0, channel=0, data=[54, 22]),
   midi.NoteOnEvent(tick=120, channel=0, data=[54, 0]),
   midi.NoteOnEvent(tick=0, channel=0, data=[60, 22]),
   midi.NoteOnEvent(tick=120, channel=0, data=[60, 0]),
   midi.NoteOnEvent(tick=0, channel=0, data=[56, 22]),
   midi.NoteOnEvent(tick=120, channel=0, data=[56, 0]),
   midi.NoteOnEvent(tick=0, channel=0, data=[51, 22]),
   midi.NoteOnEvent(tick=120, channel=0, data=[51, 0]),
   midi.NoteOnEvent(tick=0, channel=0, data=[37, 27]),
   midi.ControlChangeEvent(tick=18, channel=0, data=[64, 0]),
   midi.ControlChangeEvent(tick=27, channel=0, data=[64, 127]),
   midi.NoteOnEvent(tick=75, channel=0, data=[37, 0]),
   midi.NoteOnEvent(tick=0, channel=0, data=[61, 22]),
   midi.NoteOnEvent(tick=120, channel=0, data=[61, 0]),
   midi.NoteOnEvent(tick=0, channel=0, data=[49, 22]),
   midi.NoteOnEvent(tick=120, channel=0, data=[49, 0]),
   midi.NoteOnEvent(tick=0, channel=0, data=[61, 22]),
   midi.NoteOnEvent(tick=120, channel=0, data=[61, 0]),
   midi.NoteOnEvent(tick=0, channel=0, data=[53, 22]),
   midi.NoteOnEvent(tick=120, channel=0, data=[53, 0]),
   midi.NoteOnEvent(tick=0, channel=0, data=[44, 22]),
   midi.NoteOnEvent(tick=120, channel=0, data=[44, 0]),
   midi.NoteOnEvent(tick=0, channel=0, data=[37, 26]),
   midi.ControlChangeEvent(tick=19, channel=0, data=[64, 0]),
   midi.ControlChangeEvent(tick=61, channel=0, data=[64, 127]),
   midi.NoteOnEvent(tick=40, channel=0, data=[37, 0]),
   midi.NoteOnEvent(tick=0, channel=0, data=[61, 22]),
   midi.NoteOnEvent(tick=120, channel=0, data=[61, 0]),
   midi.NoteOnEvent(tick=0, channel=0, data=[49, 22]),
   midi.NoteOnEvent(tick=120, channel=0, data=[49, 0]),
   midi.NoteOnEvent(tick=0, channel=0, data=[61, 22]),
   midi.NoteOnEvent(tick=120, channel=0, data=[61, 0]),
   midi.NoteOnEvent(tick=0, channel=0, data=[53, 22]),
   midi.NoteOnEvent(tick=120, channel=0, data=[53, 0]),
   midi.NoteOnEvent(tick=0, channel=0, data=[44, 22]),
   midi.NoteOnEvent(tick=120, channel=0, data=[44, 0]),
   midi.NoteOnEvent(tick=0, channel=0, data=[37, 26]),
   midi.ControlChangeEvent(tick=19, channel=0, data=[64, 0]),
   midi.ControlChangeEvent(tick=26, channel=0, data=[64, 127]),
   midi.NoteOnEvent(tick=75, channel=0, data=[37, 0]),
   midi.NoteOnEvent(tick=0, channel=0, data=[60, 21]),
   midi.NoteOnEvent(tick=120, channel=0, data=[60, 0]),
   midi.NoteOnEvent(tick=0, channel=0, data=[51, 21]),
   midi.NoteOnEvent(tick=120, channel=0, data=[51, 0]),
   midi.NoteOnEvent(tick=0, channel=0, data=[60, 21]),
   midi.NoteOnEvent(tick=120, channel=0, data=[60, 0]),
   midi.NoteOnEvent(tick=0, channel=0, data=[54, 21]),
   midi.NoteOnEvent(tick=120, channel=0, data=[54, 0]),
   midi.NoteOnEvent(tick=0, channel=0, data=[44, 21]),
   midi.NoteOnEvent(tick=120, channel=0, data=[44, 0]),
   midi.NoteOnEvent(tick=0, channel=0, data=[37, 25]),
   midi.ControlChangeEvent(tick=18, channel=0, data=[64, 0]),
   midi.ControlChangeEvent(tick=62, channel=0, data=[64, 127]),
   midi.NoteOnEvent(tick=40, channel=0, data=[37, 0]),
   midi.NoteOnEvent(tick=0, channel=0, data=[60, 21]),
   midi.NoteOnEvent(tick=120, channel=0, data=[60, 0]),
   midi.NoteOnEvent(tick=0, channel=0, data=[51, 21]),
   midi.NoteOnEvent(tick=120, channel=0, data=[51, 0]),
   midi.NoteOnEvent(tick=0, channel=0, data=[60, 21]),
   midi.NoteOnEvent(tick=120, channel=0, data=[60, 0]),
   midi.NoteOnEvent(tick=0, channel=0, data=[54, 21]),
   midi.NoteOnEvent(tick=120, channel=0, data=[54, 0]),
   midi.NoteOnEvent(tick=0, channel=0, data=[44, 21]),
   midi.NoteOnEvent(tick=120, channel=0, data=[44, 0]),
   midi.NoteOnEvent(tick=0, channel=0, data=[37, 24]),
   midi.ControlChangeEvent(tick=18, channel=0, data=[64, 0]),
   midi.ControlChangeEvent(tick=27, channel=0, data=[64, 127]),
   midi.NoteOnEvent(tick=75, channel=0, data=[37, 0]),
   midi.NoteOnEvent(tick=0, channel=0, data=[61, 21]),
   midi.NoteOnEvent(tick=120, channel=0, data=[61, 0]),
   midi.NoteOnEvent(tick=0, channel=0, data=[49, 20]),
   midi.NoteOnEvent(tick=120, channel=0, data=[49, 0]),
   midi.NoteOnEvent(tick=0, channel=0, data=[61, 20]),
   midi.NoteOnEvent(tick=120, channel=0, data=[61, 0]),
   midi.NoteOnEvent(tick=0, channel=0, data=[53, 20]),
   midi.NoteOnEvent(tick=120, channel=0, data=[53, 0]),
   midi.NoteOnEvent(tick=0, channel=0, data=[44, 20]),
   midi.NoteOnEvent(tick=120, channel=0, data=[44, 0]),
   midi.NoteOnEvent(tick=0, channel=0, data=[37, 24]),
   midi.ControlChangeEvent(tick=17, channel=0, data=[64, 0]),
   midi.ControlChangeEvent(tick=63, channel=0, data=[64, 127]),
   midi.NoteOnEvent(tick=40, channel=0, data=[37, 0]),
   midi.NoteOnEvent(tick=0, channel=0, data=[61, 20]),
   midi.NoteOnEvent(tick=120, channel=0, data=[61, 0]),
   midi.NoteOnEvent(tick=0, channel=0, data=[49, 20]),
   midi.NoteOnEvent(tick=120, channel=0, data=[49, 0]),
   midi.NoteOnEvent(tick=0, channel=0, data=[61, 20]),
   midi.NoteOnEvent(tick=120, channel=0, data=[61, 0]),
   midi.NoteOnEvent(tick=0, channel=0, data=[53, 20]),
   midi.NoteOnEvent(tick=120, channel=0, data=[53, 0]),
   midi.NoteOnEvent(tick=0, channel=0, data=[44, 20]),
   midi.NoteOnEvent(tick=120, channel=0, data=[44, 0]),
   midi.NoteOnEvent(tick=0, channel=0, data=[37, 23]),
   midi.ControlChangeEvent(tick=19, channel=0, data=[64, 0]),
   midi.ControlChangeEvent(tick=26, channel=0, data=[64, 127]),
   midi.NoteOnEvent(tick=75, channel=0, data=[37, 0]),
   midi.NoteOnEvent(tick=0, channel=0, data=[60, 20]),
   midi.NoteOnEvent(tick=120, channel=0, data=[60, 0]),
   midi.NoteOnEvent(tick=0, channel=0, data=[51, 20]),
   midi.NoteOnEvent(tick=120, channel=0, data=[51, 0]),
   midi.NoteOnEvent(tick=0, channel=0, data=[60, 19]),
   midi.NoteOnEvent(tick=120, channel=0, data=[60, 0]),
   midi.NoteOnEvent(tick=0, channel=0, data=[54, 19]),
   midi.NoteOnEvent(tick=120, channel=0, data=[54, 0]),
   midi.NoteOnEvent(tick=0, channel=0, data=[44, 19]),
   midi.NoteOnEvent(tick=120, channel=0, data=[44, 0]),
   midi.NoteOnEvent(tick=0, channel=0, data=[37, 22]),
   midi.ControlChangeEvent(tick=18, channel=0, data=[64, 0]),
   midi.ControlChangeEvent(tick=62, channel=0, data=[64, 127]),
   midi.NoteOnEvent(tick=40, channel=0, data=[37, 0]),
   midi.NoteOnEvent(tick=0, channel=0, data=[60, 19]),
   midi.NoteOnEvent(tick=120, channel=0, data=[60, 0]),
   midi.NoteOnEvent(tick=0, channel=0, data=[51, 19]),
   midi.NoteOnEvent(tick=120, channel=0, data=[51, 0]),
   midi.NoteOnEvent(tick=0, channel=0, data=[60, 19]),
   midi.NoteOnEvent(tick=120, channel=0, data=[60, 0]),
   midi.NoteOnEvent(tick=0, channel=0, data=[54, 19]),
   midi.NoteOnEvent(tick=120, channel=0, data=[54, 0]),
   midi.NoteOnEvent(tick=0, channel=0, data=[44, 19]),
   midi.NoteOnEvent(tick=120, channel=0, data=[44, 0]),
   midi.NoteOnEvent(tick=0, channel=0, data=[37, 22]),
   midi.ControlChangeEvent(tick=18, channel=0, data=[64, 0]),
   midi.ControlChangeEvent(tick=27, channel=0, data=[64, 127]),
   midi.NoteOnEvent(tick=75, channel=0, data=[37, 0]),
   midi.NoteOnEvent(tick=0, channel=0, data=[61, 18]),
   midi.NoteOnEvent(tick=120, channel=0, data=[61, 0]),
   midi.NoteOnEvent(tick=0, channel=0, data=[49, 18]),
   midi.NoteOnEvent(tick=120, channel=0, data=[49, 0]),
   midi.NoteOnEvent(tick=0, channel=0, data=[61, 18]),
   midi.NoteOnEvent(tick=120, channel=0, data=[61, 0]),
   midi.NoteOnEvent(tick=0, channel=0, data=[53, 18]),
   midi.NoteOnEvent(tick=120, channel=0, data=[53, 0]),
   midi.NoteOnEvent(tick=0, channel=0, data=[44, 18]),
   midi.NoteOnEvent(tick=120, channel=0, data=[44, 0]),
   midi.NoteOnEvent(tick=0, channel=0, data=[37, 22]),
   midi.NoteOnEvent(tick=120, channel=0, data=[37, 0]),
   midi.NoteOnEvent(tick=0, channel=0, data=[61, 18]),
   midi.NoteOnEvent(tick=120, channel=0, data=[61, 0]),
   midi.NoteOnEvent(tick=0, channel=0, data=[49, 18]),
   midi.NoteOnEvent(tick=120, channel=0, data=[49, 0]),
   midi.NoteOnEvent(tick=0, channel=0, data=[61, 18]),
   midi.NoteOnEvent(tick=120, channel=0, data=[61, 0]),
   midi.NoteOnEvent(tick=0, channel=0, data=[53, 18]),
   midi.NoteOnEvent(tick=120, channel=0, data=[53, 0]),
   midi.NoteOnEvent(tick=0, channel=0, data=[44, 18]),
   midi.NoteOnEvent(tick=120, channel=0, data=[44, 0]),
   midi.NoteOnEvent(tick=0, channel=0, data=[37, 22]),
   midi.NoteOnEvent(tick=120, channel=0, data=[37, 0]),
   midi.NoteOnEvent(tick=0, channel=0, data=[61, 18]),
   midi.NoteOnEvent(tick=120, channel=0, data=[61, 0]),
   midi.NoteOnEvent(tick=0, channel=0, data=[49, 18]),
   midi.NoteOnEvent(tick=120, channel=0, data=[49, 0]),
   midi.NoteOnEvent(tick=0, channel=0, data=[61, 18]),
   midi.NoteOnEvent(tick=120, channel=0, data=[61, 0]),
   midi.NoteOnEvent(tick=0, channel=0, data=[53, 18]),
   midi.NoteOnEvent(tick=120, channel=0, data=[53, 0]),
   midi.NoteOnEvent(tick=0, channel=0, data=[44, 18]),
   midi.NoteOnEvent(tick=120, channel=0, data=[44, 0]),
   midi.NoteOnEvent(tick=0, channel=0, data=[37, 22]),
   midi.NoteOnEvent(tick=120, channel=0, data=[37, 0]),
   midi.NoteOnEvent(tick=0, channel=0, data=[61, 18]),
   midi.NoteOnEvent(tick=120, channel=0, data=[61, 0]),
   midi.NoteOnEvent(tick=0, channel=0, data=[49, 18]),
   midi.NoteOnEvent(tick=120, channel=0, data=[49, 0]),
   midi.NoteOnEvent(tick=0, channel=0, data=[61, 18]),
   midi.NoteOnEvent(tick=120, channel=0, data=[61, 0]),
   midi.NoteOnEvent(tick=0, channel=0, data=[53, 18]),
   midi.NoteOnEvent(tick=120, channel=0, data=[53, 0]),
   midi.NoteOnEvent(tick=0, channel=0, data=[44, 18]),
   midi.NoteOnEvent(tick=120, channel=0, data=[44, 0]),
   midi.NoteOnEvent(tick=0, channel=0, data=[37, 17]),
   midi.ControlChangeEvent(tick=18, channel=0, data=[64, 0]),
   midi.ControlChangeEvent(tick=195, channel=0, data=[64, 127]),
   midi.NoteOnEvent(tick=267, channel=0, data=[37, 0]),
   midi.NoteOnEvent(tick=240, channel=0, data=[44, 16]),
   midi.NoteOnEvent(tick=0, channel=0, data=[56, 20]),
   midi.NoteOnEvent(tick=720, channel=0, data=[56, 0]),
   midi.NoteOnEvent(tick=0, channel=0, data=[44, 0]),
   midi.NoteOnEvent(tick=0, channel=0, data=[49, 16]),
   midi.NoteOnEvent(tick=0, channel=0, data=[56, 20]),
   midi.NoteOnEvent(tick=1440, channel=0, data=[56, 0]),
   midi.NoteOnEvent(tick=0, channel=0, data=[49, 0]),
   midi.ControlChangeEvent(tick=1267, channel=0, data=[64, 0]),
   midi.EndOfTrackEvent(tick=0, data=[])])])
midi.write_midifile("creationMidi.mid", pattern)