import midi
pattern=midi.Pattern(format=1, resolution=480, tracks=\
[midi.Track(\
[   midi.ControlChangeEvent(tick=0, channel=0, data=[7, 100]),
   midi.ControlChangeEvent(tick=0, channel=0, data=[10, 64]),
   midi.ControlChangeEvent(tick=0, channel=0, data=[91, 127]),
   midi.NoteOnEvent(tick=1, channel=0, data=[77, 60]),
   midi.NoteOnEvent(tick=719, channel=0, data=[74, 53]),
   midi.NoteOnEvent(tick=1, channel=0, data=[77, 0]),
   midi.NoteOnEvent(tick=239, channel=0, data=[74, 0]),
   midi.NoteOnEvent(tick=0, channel=0, data=[70, 55]),
   midi.NoteOnEvent(tick=120, channel=0, data=[70, 0]),
   midi.NoteOnEvent(tick=360, channel=0, data=[70, 55]),
   midi.NoteOnEvent(tick=120, channel=0, data=[70, 0]),
   midi.NoteOnEvent(tick=360, channel=0, data=[75, 60]),
   midi.NoteOnEvent(tick=480, channel=0, data=[75, 0]),
   midi.NoteOnEvent(tick=0, channel=0, data=[79, 55]),
   midi.NoteOnEvent(tick=120, channel=0, data=[79, 0]),
   midi.NoteOnEvent(tick=360, channel=0, data=[69, 52]),
   midi.NoteOnEvent(tick=480, channel=0, data=[69, 0]),
   midi.NoteOnEvent(tick=480, channel=0, data=[72, 55]),
   midi.NoteOnEvent(tick=240, channel=0, data=[72, 0]),
   midi.NoteOnEvent(tick=0, channel=0, data=[70, 53]),
   midi.NoteOnEvent(tick=120, channel=0, data=[70, 0]),
   midi.NoteOnEvent(tick=120, channel=0, data=[74, 57]),
   midi.NoteOnEvent(tick=240, channel=0, data=[74, 0]),
   midi.NoteOnEvent(tick=0, channel=0, data=[72, 54]),
   midi.NoteOnEvent(tick=120, channel=0, data=[72, 0]),
   midi.NoteOnEvent(tick=120, channel=0, data=[75, 58]),
   midi.NoteOnEvent(tick=240, channel=0, data=[75, 0]),
   midi.NoteOnEvent(tick=0, channel=0, data=[74, 56]),
   midi.NoteOnEvent(tick=120, channel=0, data=[74, 0]),
   midi.NoteOnEvent(tick=120, channel=0, data=[77, 60]),
   midi.NoteOnEvent(tick=240, channel=0, data=[77, 0]),
   midi.NoteOnEvent(tick=0, channel=0, data=[75, 57]),
   midi.NoteOnEvent(tick=120, channel=0, data=[75, 0]),
   midi.NoteOnEvent(tick=120, channel=0, data=[74, 60]),
   midi.NoteOnEvent(tick=720, channel=0, data=[74, 0]),
   midi.NoteOnEvent(tick=0, channel=0, data=[75, 57]),
   midi.NoteOnEvent(tick=120, channel=0, data=[75, 0]),
   midi.NoteOnEvent(tick=0, channel=0, data=[74, 53]),
   midi.NoteOnEvent(tick=120, channel=0, data=[74, 0]),
   midi.NoteOnEvent(tick=0, channel=0, data=[72, 52]),
   midi.NoteOnEvent(tick=240, channel=0, data=[72, 0]),
   midi.NoteOnEvent(tick=0, channel=0, data=[74, 54]),
   midi.NoteOnEvent(tick=240, channel=0, data=[74, 0]),
   midi.NoteOnEvent(tick=0, channel=0, data=[75, 55]),
   midi.NoteOnEvent(tick=240, channel=0, data=[75, 0]),
   midi.NoteOnEvent(tick=0, channel=0, data=[76, 57]),
   midi.NoteOnEvent(tick=240, channel=0, data=[76, 0]),
   midi.NoteOnEvent(tick=0, channel=0, data=[77, 59]),
   midi.NoteOnEvent(tick=720, channel=0, data=[77, 0]),
   midi.NoteOnEvent(tick=0, channel=0, data=[75, 53]),
   midi.NoteOnEvent(tick=80, channel=0, data=[75, 0]),
   midi.NoteOnEvent(tick=0, channel=0, data=[74, 53]),
   midi.NoteOnEvent(tick=80, channel=0, data=[74, 0]),
   midi.NoteOnEvent(tick=0, channel=0, data=[72, 53]),
   midi.NoteOnEvent(tick=80, channel=0, data=[72, 0]),
   midi.NoteOnEvent(tick=0, channel=0, data=[70, 56]),
   midi.NoteOnEvent(tick=120, channel=0, data=[70, 0]),
   midi.NoteOnEvent(tick=360, channel=0, data=[70, 56]),
   midi.NoteOnEvent(tick=120, channel=0, data=[70, 0]),
   midi.NoteOnEvent(tick=360, channel=0, data=[75, 60]),
   midi.NoteOnEvent(tick=480, channel=0, data=[75, 0]),
   midi.NoteOnEvent(tick=0, channel=0, data=[79, 55]),
   midi.NoteOnEvent(tick=120, channel=0, data=[79, 0]),
   midi.NoteOnEvent(tick=360, channel=0, data=[69, 58]),
   midi.NoteOnEvent(tick=480, channel=0, data=[69, 0]),
   midi.NoteOnEvent(tick=240, channel=0, data=[69, 52]),
   midi.NoteOnEvent(tick=240, channel=0, data=[69, 0]),
   midi.NoteOnEvent(tick=0, channel=0, data=[70, 58]),
   midi.NoteOnEvent(tick=240, channel=0, data=[70, 0]),
   midi.NoteOnEvent(tick=0, channel=0, data=[74, 55]),
   midi.NoteOnEvent(tick=120, channel=0, data=[74, 0]),
   midi.NoteOnEvent(tick=120, channel=0, data=[67, 58]),
   midi.NoteOnEvent(tick=240, channel=0, data=[67, 0]),
   midi.NoteOnEvent(tick=0, channel=0, data=[72, 55]),
   midi.NoteOnEvent(tick=120, channel=0, data=[72, 0]),
   midi.NoteOnEvent(tick=120, channel=0, data=[70, 58]),
   midi.NoteOnEvent(tick=480, channel=0, data=[70, 0]),
   midi.NoteOnEvent(tick=0, channel=0, data=[69, 55]),
   midi.NoteOnEvent(tick=480, channel=0, data=[69, 0]),
   midi.NoteOnEvent(tick=0, channel=0, data=[70, 58]),
   midi.NoteOnEvent(tick=240, channel=0, data=[70, 0]),
   midi.NoteOnEvent(tick=0, channel=0, data=[65, 56]),
   midi.NoteOnEvent(tick=120, channel=0, data=[65, 0]),
   midi.NoteOnEvent(tick=120, channel=0, data=[67, 60]),
   midi.NoteOnEvent(tick=120, channel=0, data=[67, 0]),
   midi.NoteOnEvent(tick=120, channel=0, data=[69, 63]),
   midi.NoteOnEvent(tick=120, channel=0, data=[69, 0]),
   midi.NoteOnEvent(tick=120, channel=0, data=[70, 67]),
   midi.NoteOnEvent(tick=120, channel=0, data=[70, 0]),
   midi.NoteOnEvent(tick=120, channel=0, data=[72, 70]),
   midi.NoteOnEvent(tick=120, channel=0, data=[72, 0]),
   midi.NoteOnEvent(tick=120, channel=0, data=[74, 74]),
   midi.NoteOnEvent(tick=120, channel=0, data=[74, 0]),
   midi.NoteOnEvent(tick=120, channel=0, data=[75, 77]),
   midi.NoteOnEvent(tick=120, channel=0, data=[75, 0]),
   midi.ControlChangeEvent(tick=120, channel=0, data=[91, 127]),
   midi.NoteOnEvent(tick=1, channel=0, data=[77, 85]),
   midi.NoteOnEvent(tick=719, channel=0, data=[74, 74]),
   midi.NoteOnEvent(tick=1, channel=0, data=[77, 0]),
   midi.NoteOnEvent(tick=239, channel=0, data=[74, 0]),
   midi.NoteOnEvent(tick=0, channel=0, data=[70, 78]),
   midi.NoteOnEvent(tick=240, channel=0, data=[70, 0]),
   midi.NoteOnEvent(tick=240, channel=0, data=[70, 78]),
   midi.NoteOnEvent(tick=240, channel=0, data=[70, 0]),
   midi.NoteOnEvent(tick=240, channel=0, data=[75, 85]),
   midi.NoteOnEvent(tick=96, channel=0, data=[75, 0]),
   midi.NoteOnEvent(tick=0, channel=0, data=[77, 72]),
   midi.NoteOnEvent(tick=96, channel=0, data=[77, 0]),
   midi.NoteOnEvent(tick=0, channel=0, data=[75, 61]),
   midi.NoteOnEvent(tick=96, channel=0, data=[75, 0]),
   midi.NoteOnEvent(tick=0, channel=0, data=[74, 70]),
   midi.NoteOnEvent(tick=96, channel=0, data=[74, 0]),
   midi.NoteOnEvent(tick=0, channel=0, data=[75, 72]),
   midi.NoteOnEvent(tick=96, channel=0, data=[75, 0]),
   midi.NoteOnEvent(tick=0, channel=0, data=[79, 78]),
   midi.NoteOnEvent(tick=480, channel=0, data=[79, 0]),
   midi.NoteOnEvent(tick=0, channel=0, data=[69, 81]),
   midi.NoteOnEvent(tick=480, channel=0, data=[69, 0]),
   midi.NoteOnEvent(tick=480, channel=0, data=[72, 78]),
   midi.NoteOnEvent(tick=240, channel=0, data=[72, 0]),
   midi.NoteOnEvent(tick=0, channel=0, data=[70, 74]),
   midi.NoteOnEvent(tick=120, channel=0, data=[70, 0]),
   midi.NoteOnEvent(tick=120, channel=0, data=[74, 81]),
   midi.NoteOnEvent(tick=240, channel=0, data=[74, 0]),
   midi.NoteOnEvent(tick=0, channel=0, data=[72, 77]),
   midi.NoteOnEvent(tick=120, channel=0, data=[72, 0]),
   midi.NoteOnEvent(tick=120, channel=0, data=[75, 82]),
   midi.NoteOnEvent(tick=240, channel=0, data=[75, 0]),
   midi.NoteOnEvent(tick=0, channel=0, data=[74, 79]),
   midi.NoteOnEvent(tick=120, channel=0, data=[74, 0]),
   midi.NoteOnEvent(tick=120, channel=0, data=[77, 85]),
   midi.NoteOnEvent(tick=240, channel=0, data=[77, 0]),
   midi.NoteOnEvent(tick=0, channel=0, data=[75, 81]),
   midi.NoteOnEvent(tick=120, channel=0, data=[75, 0]),
   midi.NoteOnEvent(tick=120, channel=0, data=[74, 85]),
   midi.NoteOnEvent(tick=720, channel=0, data=[74, 0]),
   midi.NoteOnEvent(tick=0, channel=0, data=[75, 81]),
   midi.NoteOnEvent(tick=120, channel=0, data=[75, 0]),
   midi.NoteOnEvent(tick=0, channel=0, data=[74, 81]),
   midi.NoteOnEvent(tick=120, channel=0, data=[74, 0]),
   midi.NoteOnEvent(tick=0, channel=0, data=[72, 73]),
   midi.NoteOnEvent(tick=240, channel=0, data=[72, 0]),
   midi.NoteOnEvent(tick=0, channel=0, data=[74, 77]),
   midi.NoteOnEvent(tick=240, channel=0, data=[74, 0]),
   midi.NoteOnEvent(tick=0, channel=0, data=[75, 78]),
   midi.NoteOnEvent(tick=240, channel=0, data=[75, 0]),
   midi.NoteOnEvent(tick=0, channel=0, data=[76, 81]),
   midi.NoteOnEvent(tick=240, channel=0, data=[76, 0]),
   midi.NoteOnEvent(tick=0, channel=0, data=[77, 83]),
   midi.NoteOnEvent(tick=720, channel=0, data=[77, 0]),
   midi.NoteOnEvent(tick=0, channel=0, data=[75, 74]),
   midi.NoteOnEvent(tick=80, channel=0, data=[75, 0]),
   midi.NoteOnEvent(tick=0, channel=0, data=[74, 74]),
   midi.NoteOnEvent(tick=80, channel=0, data=[74, 0]),
   midi.NoteOnEvent(tick=0, channel=0, data=[72, 74]),
   midi.NoteOnEvent(tick=80, channel=0, data=[72, 0]),
   midi.NoteOnEvent(tick=0, channel=0, data=[70, 79]),
   midi.NoteOnEvent(tick=120, channel=0, data=[70, 0]),
   midi.NoteOnEvent(tick=120, channel=0, data=[70, 76]),
   midi.NoteOnEvent(tick=120, channel=0, data=[70, 0]),
   midi.NoteOnEvent(tick=120, channel=0, data=[70, 79]),
   midi.NoteOnEvent(tick=120, channel=0, data=[70, 0]),
   midi.NoteOnEvent(tick=120, channel=0, data=[70, 76]),
   midi.NoteOnEvent(tick=120, channel=0, data=[70, 0]),
   midi.NoteOnEvent(tick=120, channel=0, data=[75, 85]),
   midi.NoteOnEvent(tick=96, channel=0, data=[75, 0]),
   midi.NoteOnEvent(tick=0, channel=0, data=[77, 72]),
   midi.NoteOnEvent(tick=96, channel=0, data=[77, 0]),
   midi.NoteOnEvent(tick=0, channel=0, data=[75, 61]),
   midi.NoteOnEvent(tick=96, channel=0, data=[75, 0]),
   midi.NoteOnEvent(tick=0, channel=0, data=[74, 70]),
   midi.NoteOnEvent(tick=96, channel=0, data=[74, 0]),
   midi.NoteOnEvent(tick=0, channel=0, data=[75, 72]),
   midi.NoteOnEvent(tick=96, channel=0, data=[75, 0]),
   midi.NoteOnEvent(tick=0, channel=0, data=[79, 78]),
   midi.NoteOnEvent(tick=480, channel=0, data=[79, 0]),
   midi.NoteOnEvent(tick=0, channel=0, data=[69, 82]),
   midi.NoteOnEvent(tick=480, channel=0, data=[69, 0]),
   midi.NoteOnEvent(tick=240, channel=0, data=[81, 77]),
   midi.NoteOnEvent(tick=240, channel=0, data=[81, 0]),
   midi.NoteOnEvent(tick=0, channel=0, data=[82, 85]),
   midi.NoteOnEvent(tick=160, channel=0, data=[82, 0]),
   midi.NoteOnEvent(tick=0, channel=0, data=[77, 74]),
   midi.NoteOnEvent(tick=160, channel=0, data=[77, 0]),
   midi.NoteOnEvent(tick=0, channel=0, data=[74, 72]),
   midi.NoteOnEvent(tick=160, channel=0, data=[74, 0]),
   midi.NoteOnEvent(tick=0, channel=0, data=[79, 84]),
   midi.NoteOnEvent(tick=160, channel=0, data=[79, 0]),
   midi.NoteOnEvent(tick=0, channel=0, data=[75, 73]),
   midi.NoteOnEvent(tick=160, channel=0, data=[75, 0]),
   midi.NoteOnEvent(tick=0, channel=0, data=[72, 74]),
   midi.NoteOnEvent(tick=160, channel=0, data=[72, 0]),
   midi.NoteOnEvent(tick=0, channel=0, data=[77, 84]),
   midi.NoteOnEvent(tick=160, channel=0, data=[77, 0]),
   midi.NoteOnEvent(tick=0, channel=0, data=[74, 75]),
   midi.NoteOnEvent(tick=160, channel=0, data=[74, 0]),
   midi.NoteOnEvent(tick=0, channel=0, data=[70, 74]),
   midi.NoteOnEvent(tick=160, channel=0, data=[70, 0]),
   midi.NoteOnEvent(tick=0, channel=0, data=[75, 84]),
   midi.NoteOnEvent(tick=160, channel=0, data=[75, 0]),
   midi.NoteOnEvent(tick=0, channel=0, data=[72, 74]),
   midi.NoteOnEvent(tick=160, channel=0, data=[72, 0]),
   midi.NoteOnEvent(tick=0, channel=0, data=[69, 74]),
   midi.NoteOnEvent(tick=160, channel=0, data=[69, 0]),
   midi.NoteOnEvent(tick=0, channel=0, data=[70, 83]),
   midi.NoteOnEvent(tick=480, channel=0, data=[70, 0]),
   midi.NoteOnEvent(tick=240, channel=0, data=[65, 53]),
   midi.NoteOnEvent(tick=240, channel=0, data=[65, 0]),
   midi.NoteOnEvent(tick=0, channel=0, data=[70, 58]),
   midi.NoteOnEvent(tick=120, channel=0, data=[70, 0]),
   midi.NoteOnEvent(tick=120, channel=0, data=[69, 53]),
   midi.NoteOnEvent(tick=120, channel=0, data=[69, 0]),
   midi.NoteOnEvent(tick=120, channel=0, data=[70, 55]),
   midi.NoteOnEvent(tick=120, channel=0, data=[70, 0]),
   midi.NoteOnEvent(tick=120, channel=0, data=[72, 53]),
   midi.NoteOnEvent(tick=120, channel=0, data=[72, 0]),
   midi.NoteOnEvent(tick=120, channel=0, data=[74, 55]),
   midi.NoteOnEvent(tick=120, channel=0, data=[74, 0]),
   midi.NoteOnEvent(tick=360, channel=0, data=[74, 56]),
   midi.NoteOnEvent(tick=0, channel=0, data=[70, 56]),
   midi.NoteOnEvent(tick=180, channel=0, data=[70, 0]),
   midi.NoteOnEvent(tick=0, channel=0, data=[74, 0]),
   midi.NoteOnEvent(tick=300, channel=0, data=[70, 59]),
   midi.NoteOnEvent(tick=0, channel=0, data=[74, 59]),
   midi.NoteOnEvent(tick=480, channel=0, data=[74, 0]),
   midi.NoteOnEvent(tick=0, channel=0, data=[70, 0]),
   midi.NoteOnEvent(tick=0, channel=0, data=[75, 55]),
   midi.NoteOnEvent(tick=0, channel=0, data=[72, 55]),
   midi.NoteOnEvent(tick=480, channel=0, data=[72, 0]),
   midi.NoteOnEvent(tick=0, channel=0, data=[75, 0]),
   midi.NoteOnEvent(tick=0, channel=0, data=[72, 54]),
   midi.NoteOnEvent(tick=0, channel=0, data=[69, 54]),
   midi.NoteOnEvent(tick=480, channel=0, data=[69, 0]),
   midi.NoteOnEvent(tick=0, channel=0, data=[72, 0]),
   midi.NoteOnEvent(tick=240, channel=0, data=[65, 55]),
   midi.NoteOnEvent(tick=240, channel=0, data=[65, 0]),
   midi.NoteOnEvent(tick=0, channel=0, data=[72, 57]),
   midi.NoteOnEvent(tick=120, channel=0, data=[72, 0]),
   midi.NoteOnEvent(tick=120, channel=0, data=[70, 55]),
   midi.NoteOnEvent(tick=120, channel=0, data=[70, 0]),
   midi.NoteOnEvent(tick=120, channel=0, data=[72, 56]),
   midi.NoteOnEvent(tick=120, channel=0, data=[72, 0]),
   midi.NoteOnEvent(tick=120, channel=0, data=[74, 53]),
   midi.NoteOnEvent(tick=120, channel=0, data=[74, 0]),
   midi.NoteOnEvent(tick=120, channel=0, data=[75, 56]),
   midi.NoteOnEvent(tick=120, channel=0, data=[75, 0]),
   midi.NoteOnEvent(tick=360, channel=0, data=[67, 56]),
   midi.NoteOnEvent(tick=0, channel=0, data=[75, 56]),
   midi.NoteOnEvent(tick=180, channel=0, data=[75, 0]),
   midi.NoteOnEvent(tick=0, channel=0, data=[67, 0]),
   midi.NoteOnEvent(tick=300, channel=0, data=[72, 58]),
   midi.NoteOnEvent(tick=0, channel=0, data=[75, 58]),
   midi.NoteOnEvent(tick=480, channel=0, data=[75, 0]),
   midi.NoteOnEvent(tick=0, channel=0, data=[72, 0]),
   midi.NoteOnEvent(tick=0, channel=0, data=[77, 56]),
   midi.NoteOnEvent(tick=0, channel=0, data=[69, 56]),
   midi.NoteOnEvent(tick=480, channel=0, data=[69, 0]),
   midi.NoteOnEvent(tick=0, channel=0, data=[77, 0]),
   midi.NoteOnEvent(tick=0, channel=0, data=[70, 54]),
   midi.NoteOnEvent(tick=0, channel=0, data=[74, 54]),
   midi.NoteOnEvent(tick=480, channel=0, data=[74, 0]),
   midi.NoteOnEvent(tick=0, channel=0, data=[70, 0]),
   midi.NoteOnEvent(tick=240, channel=0, data=[70, 73]),
   midi.NoteOnEvent(tick=240, channel=0, data=[70, 0]),
   midi.NoteOnEvent(tick=0, channel=0, data=[74, 79]),
   midi.NoteOnEvent(tick=120, channel=0, data=[74, 0]),
   midi.NoteOnEvent(tick=120, channel=0, data=[72, 72]),
   midi.NoteOnEvent(tick=120, channel=0, data=[72, 0]),
   midi.NoteOnEvent(tick=120, channel=0, data=[74, 75]),
   midi.NoteOnEvent(tick=120, channel=0, data=[74, 0]),
   midi.NoteOnEvent(tick=120, channel=0, data=[76, 72]),
   midi.NoteOnEvent(tick=120, channel=0, data=[76, 0]),
   midi.NoteOnEvent(tick=120, channel=0, data=[77, 79]),
   midi.NoteOnEvent(tick=480, channel=0, data=[77, 0]),
   midi.NoteOnEvent(tick=160, channel=0, data=[77, 77]),
   midi.NoteOnEvent(tick=160, channel=0, data=[77, 0]),
   midi.NoteOnEvent(tick=0, channel=0, data=[79, 79]),
   midi.NoteOnEvent(tick=160, channel=0, data=[79, 0]),
   midi.NoteOnEvent(tick=0, channel=0, data=[81, 82]),
   midi.NoteOnEvent(tick=160, channel=0, data=[81, 0]),
   midi.NoteOnEvent(tick=0, channel=0, data=[79, 76]),
   midi.NoteOnEvent(tick=160, channel=0, data=[79, 0]),
   midi.NoteOnEvent(tick=0, channel=0, data=[77, 76]),
   midi.NoteOnEvent(tick=160, channel=0, data=[77, 0]),
   midi.NoteOnEvent(tick=0, channel=0, data=[76, 79]),
   midi.NoteOnEvent(tick=160, channel=0, data=[76, 0]),
   midi.NoteOnEvent(tick=0, channel=0, data=[74, 77]),
   midi.NoteOnEvent(tick=160, channel=0, data=[74, 0]),
   midi.NoteOnEvent(tick=0, channel=0, data=[72, 76]),
   midi.NoteOnEvent(tick=160, channel=0, data=[72, 0]),
   midi.NoteOnEvent(tick=0, channel=0, data=[70, 75]),
   midi.NoteOnEvent(tick=480, channel=0, data=[70, 0]),
   midi.NoteOnEvent(tick=160, channel=0, data=[76, 73]),
   midi.NoteOnEvent(tick=160, channel=0, data=[76, 0]),
   midi.NoteOnEvent(tick=0, channel=0, data=[77, 76]),
   midi.NoteOnEvent(tick=160, channel=0, data=[77, 0]),
   midi.NoteOnEvent(tick=0, channel=0, data=[79, 80]),
   midi.NoteOnEvent(tick=160, channel=0, data=[79, 0]),
   midi.NoteOnEvent(tick=0, channel=0, data=[77, 79]),
   midi.NoteOnEvent(tick=160, channel=0, data=[77, 0]),
   midi.NoteOnEvent(tick=0, channel=0, data=[76, 78]),
   midi.NoteOnEvent(tick=160, channel=0, data=[76, 0]),
   midi.NoteOnEvent(tick=0, channel=0, data=[74, 77]),
   midi.NoteOnEvent(tick=160, channel=0, data=[74, 0]),
   midi.NoteOnEvent(tick=0, channel=0, data=[72, 76]),
   midi.NoteOnEvent(tick=160, channel=0, data=[72, 0]),
   midi.NoteOnEvent(tick=0, channel=0, data=[70, 75]),
   midi.NoteOnEvent(tick=160, channel=0, data=[70, 0]),
   midi.NoteOnEvent(tick=0, channel=0, data=[69, 73]),
   midi.NoteOnEvent(tick=120, channel=0, data=[69, 0]),
   midi.NoteOnEvent(tick=0, channel=0, data=[72, 69]),
   midi.NoteOnEvent(tick=120, channel=0, data=[72, 0]),
   midi.NoteOnEvent(tick=0, channel=0, data=[70, 71]),
   midi.NoteOnEvent(tick=120, channel=0, data=[70, 0]),
   midi.NoteOnEvent(tick=0, channel=0, data=[69, 72]),
   midi.NoteOnEvent(tick=120, channel=0, data=[69, 0]),
   midi.NoteOnEvent(tick=0, channel=0, data=[70, 74]),
   midi.NoteOnEvent(tick=120, channel=0, data=[70, 0]),
   midi.NoteOnEvent(tick=0, channel=0, data=[72, 76]),
   midi.NoteOnEvent(tick=120, channel=0, data=[72, 0]),
   midi.NoteOnEvent(tick=0, channel=0, data=[74, 77]),
   midi.NoteOnEvent(tick=120, channel=0, data=[74, 0]),
   midi.NoteOnEvent(tick=0, channel=0, data=[76, 79]),
   midi.NoteOnEvent(tick=120, channel=0, data=[76, 0]),
   midi.NoteOnEvent(tick=0, channel=0, data=[77, 81]),
   midi.NoteOnEvent(tick=120, channel=0, data=[77, 0]),
   midi.NoteOnEvent(tick=0, channel=0, data=[79, 82]),
   midi.NoteOnEvent(tick=120, channel=0, data=[79, 0]),
   midi.NoteOnEvent(tick=0, channel=0, data=[81, 84]),
   midi.NoteOnEvent(tick=120, channel=0, data=[81, 0]),
   midi.NoteOnEvent(tick=0, channel=0, data=[82, 86]),
   midi.NoteOnEvent(tick=120, channel=0, data=[82, 0]),
   midi.NoteOnEvent(tick=0, channel=0, data=[84, 87]),
   midi.NoteOnEvent(tick=120, channel=0, data=[84, 0]),
   midi.NoteOnEvent(tick=120, channel=0, data=[69, 59]),
   midi.NoteOnEvent(tick=0, channel=0, data=[65, 59]),
   midi.NoteOnEvent(tick=108, channel=0, data=[65, 0]),
   midi.NoteOnEvent(tick=0, channel=0, data=[69, 0]),
   midi.NoteOnEvent(tick=132, channel=0, data=[69, 56]),
   midi.NoteOnEvent(tick=0, channel=0, data=[65, 56]),
   midi.NoteOnEvent(tick=480, channel=0, data=[65, 0]),
   midi.NoteOnEvent(tick=0, channel=0, data=[69, 0]),
   midi.NoteOnEvent(tick=0, channel=0, data=[67, 52]),
   midi.NoteOnEvent(tick=0, channel=0, data=[64, 52]),
   midi.NoteOnEvent(tick=240, channel=0, data=[64, 0]),
   midi.NoteOnEvent(tick=0, channel=0, data=[67, 0]),
   midi.NoteOnEvent(tick=240, channel=0, data=[79, 76]),
   midi.NoteOnEvent(tick=720, channel=0, data=[79, 0]),
   midi.NoteOnEvent(tick=0, channel=0, data=[76, 60]),
   midi.NoteOnEvent(tick=120, channel=0, data=[76, 0]),
   midi.NoteOnEvent(tick=0, channel=0, data=[72, 60]),
   midi.NoteOnEvent(tick=120, channel=0, data=[72, 0]),
   midi.NoteOnEvent(tick=0, channel=0, data=[77, 67]),
   midi.NoteOnEvent(tick=480, channel=0, data=[77, 0]),
   midi.NoteOnEvent(tick=0, channel=0, data=[78, 70]),
   midi.NoteOnEvent(tick=480, channel=0, data=[78, 0]),
   midi.NoteOnEvent(tick=0, channel=0, data=[79, 74]),
   midi.NoteOnEvent(tick=720, channel=0, data=[79, 0]),
   midi.NoteOnEvent(tick=0, channel=0, data=[76, 61]),
   midi.NoteOnEvent(tick=120, channel=0, data=[76, 0]),
   midi.NoteOnEvent(tick=0, channel=0, data=[72, 61]),
   midi.NoteOnEvent(tick=120, channel=0, data=[72, 0]),
   midi.NoteOnEvent(tick=0, channel=0, data=[77, 65]),
   midi.NoteOnEvent(tick=480, channel=0, data=[77, 0]),
   midi.NoteOnEvent(tick=480, channel=0, data=[79, 75]),
   midi.NoteOnEvent(tick=120, channel=0, data=[79, 0]),
   midi.NoteOnEvent(tick=120, channel=0, data=[79, 75]),
   midi.NoteOnEvent(tick=480, channel=0, data=[79, 0]),
   midi.NoteOnEvent(tick=0, channel=0, data=[76, 61]),
   midi.NoteOnEvent(tick=120, channel=0, data=[76, 0]),
   midi.NoteOnEvent(tick=0, channel=0, data=[72, 61]),
   midi.NoteOnEvent(tick=120, channel=0, data=[72, 0]),
   midi.NoteOnEvent(tick=0, channel=0, data=[77, 64]),
   midi.NoteOnEvent(tick=120, channel=0, data=[77, 0]),
   midi.NoteOnEvent(tick=120, channel=0, data=[77, 68]),
   midi.NoteOnEvent(tick=120, channel=0, data=[77, 0]),
   midi.NoteOnEvent(tick=120, channel=0, data=[78, 71]),
   midi.NoteOnEvent(tick=120, channel=0, data=[78, 0]),
   midi.NoteOnEvent(tick=120, channel=0, data=[78, 71]),
   midi.NoteOnEvent(tick=120, channel=0, data=[78, 0]),
   midi.NoteOnEvent(tick=120, channel=0, data=[79, 77]),
   midi.NoteOnEvent(tick=120, channel=0, data=[79, 0]),
   midi.NoteOnEvent(tick=120, channel=0, data=[79, 77]),
   midi.NoteOnEvent(tick=480, channel=0, data=[79, 0]),
   midi.NoteOnEvent(tick=0, channel=0, data=[76, 60]),
   midi.NoteOnEvent(tick=120, channel=0, data=[76, 0]),
   midi.NoteOnEvent(tick=0, channel=0, data=[72, 62]),
   midi.NoteOnEvent(tick=120, channel=0, data=[72, 0]),
   midi.NoteOnEvent(tick=0, channel=0, data=[77, 66]),
   midi.NoteOnEvent(tick=480, channel=0, data=[77, 0]),
   midi.NoteOnEvent(tick=480, channel=0, data=[78, 69]),
   midi.NoteOnEvent(tick=120, channel=0, data=[79, 70]),
   midi.NoteOnEvent(tick=24, channel=0, data=[78, 0]),
   midi.NoteOnEvent(tick=96, channel=0, data=[81, 71]),
   midi.NoteOnEvent(tick=24, channel=0, data=[79, 0]),
   midi.NoteOnEvent(tick=96, channel=0, data=[79, 71]),
   midi.NoteOnEvent(tick=24, channel=0, data=[81, 0]),
   midi.NoteOnEvent(tick=96, channel=0, data=[77, 72]),
   midi.NoteOnEvent(tick=24, channel=0, data=[79, 0]),
   midi.NoteOnEvent(tick=96, channel=0, data=[76, 73]),
   midi.NoteOnEvent(tick=24, channel=0, data=[77, 0]),
   midi.NoteOnEvent(tick=96, channel=0, data=[74, 74]),
   midi.NoteOnEvent(tick=24, channel=0, data=[76, 0]),
   midi.NoteOnEvent(tick=96, channel=0, data=[72, 75]),
   midi.NoteOnEvent(tick=24, channel=0, data=[74, 0]),
   midi.NoteOnEvent(tick=96, channel=0, data=[77, 80]),
   midi.NoteOnEvent(tick=24, channel=0, data=[72, 0]),
   midi.NoteOnEvent(tick=96, channel=0, data=[77, 0]),
   midi.NoteOnEvent(tick=0, channel=0, data=[72, 76]),
   midi.NoteOnEvent(tick=120, channel=0, data=[72, 0]),
   midi.NoteOnEvent(tick=0, channel=0, data=[81, 80]),
   midi.NoteOnEvent(tick=120, channel=0, data=[81, 0]),
   midi.NoteOnEvent(tick=0, channel=0, data=[77, 76]),
   midi.NoteOnEvent(tick=120, channel=0, data=[77, 0]),
   midi.NoteOnEvent(tick=0, channel=0, data=[84, 80]),
   midi.NoteOnEvent(tick=120, channel=0, data=[84, 0]),
   midi.NoteOnEvent(tick=0, channel=0, data=[81, 76]),
   midi.NoteOnEvent(tick=120, channel=0, data=[81, 0]),
   midi.NoteOnEvent(tick=0, channel=0, data=[84, 80]),
   midi.NoteOnEvent(tick=120, channel=0, data=[84, 0]),
   midi.NoteOnEvent(tick=0, channel=0, data=[81, 75]),
   midi.NoteOnEvent(tick=120, channel=0, data=[81, 0]),
   midi.NoteOnEvent(tick=0, channel=0, data=[84, 78]),
   midi.NoteOnEvent(tick=120, channel=0, data=[82, 78]),
   midi.NoteOnEvent(tick=24, channel=0, data=[84, 0]),
   midi.NoteOnEvent(tick=96, channel=0, data=[81, 77]),
   midi.NoteOnEvent(tick=24, channel=0, data=[82, 0]),
   midi.NoteOnEvent(tick=96, channel=0, data=[79, 76]),
   midi.NoteOnEvent(tick=24, channel=0, data=[81, 0]),
   midi.NoteOnEvent(tick=96, channel=0, data=[77, 76]),
   midi.NoteOnEvent(tick=24, channel=0, data=[79, 0]),
   midi.NoteOnEvent(tick=96, channel=0, data=[75, 76]),
   midi.NoteOnEvent(tick=24, channel=0, data=[77, 0]),
   midi.NoteOnEvent(tick=96, channel=0, data=[74, 75]),
   midi.NoteOnEvent(tick=24, channel=0, data=[75, 0]),
   midi.NoteOnEvent(tick=96, channel=0, data=[72, 75]),
   midi.NoteOnEvent(tick=24, channel=0, data=[74, 0]),
   midi.NoteOnEvent(tick=96, channel=0, data=[74, 79]),
   midi.NoteOnEvent(tick=24, channel=0, data=[72, 0]),
   midi.NoteOnEvent(tick=96, channel=0, data=[74, 0]),
   midi.NoteOnEvent(tick=0, channel=0, data=[70, 74]),
   midi.NoteOnEvent(tick=120, channel=0, data=[70, 0]),
   midi.NoteOnEvent(tick=0, channel=0, data=[77, 81]),
   midi.NoteOnEvent(tick=120, channel=0, data=[77, 0]),
   midi.NoteOnEvent(tick=0, channel=0, data=[74, 75]),
   midi.NoteOnEvent(tick=120, channel=0, data=[74, 0]),
   midi.NoteOnEvent(tick=0, channel=0, data=[82, 84]),
   midi.NoteOnEvent(tick=120, channel=0, data=[82, 0]),
   midi.NoteOnEvent(tick=0, channel=0, data=[77, 79]),
   midi.NoteOnEvent(tick=120, channel=0, data=[77, 0]),
   midi.NoteOnEvent(tick=0, channel=0, data=[86, 82]),
   midi.NoteOnEvent(tick=120, channel=0, data=[86, 0]),
   midi.NoteOnEvent(tick=0, channel=0, data=[82, 80]),
   midi.NoteOnEvent(tick=120, channel=0, data=[82, 0]),
   midi.NoteOnEvent(tick=0, channel=0, data=[86, 78]),
   midi.NoteOnEvent(tick=120, channel=0, data=[84, 76]),
   midi.NoteOnEvent(tick=24, channel=0, data=[86, 0]),
   midi.NoteOnEvent(tick=96, channel=0, data=[82, 75]),
   midi.NoteOnEvent(tick=24, channel=0, data=[84, 0]),
   midi.NoteOnEvent(tick=96, channel=0, data=[81, 73]),
   midi.NoteOnEvent(tick=24, channel=0, data=[82, 0]),
   midi.NoteOnEvent(tick=96, channel=0, data=[79, 72]),
   midi.NoteOnEvent(tick=24, channel=0, data=[81, 0]),
   midi.NoteOnEvent(tick=96, channel=0, data=[77, 69]),
   midi.NoteOnEvent(tick=24, channel=0, data=[79, 0]),
   midi.NoteOnEvent(tick=96, channel=0, data=[76, 67]),
   midi.NoteOnEvent(tick=24, channel=0, data=[77, 0]),
   midi.NoteOnEvent(tick=96, channel=0, data=[74, 65]),
   midi.NoteOnEvent(tick=24, channel=0, data=[76, 0]),
   midi.NoteOnEvent(tick=96, channel=0, data=[72, 63]),
   midi.NoteOnEvent(tick=24, channel=0, data=[74, 0]),
   midi.NoteOnEvent(tick=936, channel=0, data=[72, 0]),
   midi.NoteOnEvent(tick=0, channel=0, data=[79, 67]),
   midi.NoteOnEvent(tick=80, channel=0, data=[79, 0]),
   midi.NoteOnEvent(tick=0, channel=0, data=[81, 61]),
   midi.NoteOnEvent(tick=80, channel=0, data=[81, 0]),
   midi.NoteOnEvent(tick=0, channel=0, data=[79, 59]),
   midi.NoteOnEvent(tick=80, channel=0, data=[79, 0]),
   midi.NoteOnEvent(tick=0, channel=0, data=[81, 67]),
   midi.NoteOnEvent(tick=80, channel=0, data=[81, 0]),
   midi.NoteOnEvent(tick=0, channel=0, data=[79, 59]),
   midi.NoteOnEvent(tick=80, channel=0, data=[79, 0]),
   midi.NoteOnEvent(tick=0, channel=0, data=[81, 59]),
   midi.NoteOnEvent(tick=80, channel=0, data=[81, 0]),
   midi.NoteOnEvent(tick=0, channel=0, data=[79, 61]),
   midi.NoteOnEvent(tick=80, channel=0, data=[79, 0]),
   midi.NoteOnEvent(tick=0, channel=0, data=[81, 67]),
   midi.NoteOnEvent(tick=80, channel=0, data=[81, 0]),
   midi.NoteOnEvent(tick=0, channel=0, data=[79, 67]),
   midi.NoteOnEvent(tick=80, channel=0, data=[79, 0]),
   midi.NoteOnEvent(tick=0, channel=0, data=[77, 69]),
   midi.NoteOnEvent(tick=120, channel=0, data=[77, 0]),
   midi.NoteOnEvent(tick=0, channel=0, data=[79, 70]),
   midi.NoteOnEvent(tick=120, channel=0, data=[79, 0]),
   midi.NoteOnEvent(tick=0, channel=0, data=[81, 72]),
   midi.NoteOnEvent(tick=120, channel=0, data=[81, 0]),
   midi.NoteOnEvent(tick=0, channel=0, data=[82, 74]),
   midi.NoteOnEvent(tick=120, channel=0, data=[82, 0]),
   midi.NoteOnEvent(tick=0, channel=0, data=[84, 74]),
   midi.NoteOnEvent(tick=120, channel=0, data=[84, 0]),
   midi.NoteOnEvent(tick=0, channel=0, data=[82, 72]),
   midi.NoteOnEvent(tick=120, channel=0, data=[82, 0]),
   midi.NoteOnEvent(tick=0, channel=0, data=[81, 71]),
   midi.NoteOnEvent(tick=120, channel=0, data=[81, 0]),
   midi.NoteOnEvent(tick=0, channel=0, data=[79, 70]),
   midi.NoteOnEvent(tick=120, channel=0, data=[79, 0]),
   midi.NoteOnEvent(tick=0, channel=0, data=[77, 68]),
   midi.NoteOnEvent(tick=120, channel=0, data=[77, 0]),
   midi.NoteOnEvent(tick=0, channel=0, data=[76, 67]),
   midi.NoteOnEvent(tick=120, channel=0, data=[76, 0]),
   midi.NoteOnEvent(tick=0, channel=0, data=[77, 69]),
   midi.NoteOnEvent(tick=120, channel=0, data=[77, 0]),
   midi.NoteOnEvent(tick=0, channel=0, data=[79, 71]),
   midi.NoteOnEvent(tick=120, channel=0, data=[79, 0]),
   midi.NoteOnEvent(tick=0, channel=0, data=[81, 72]),
   midi.NoteOnEvent(tick=120, channel=0, data=[81, 0]),
   midi.NoteOnEvent(tick=0, channel=0, data=[79, 70]),
   midi.NoteOnEvent(tick=120, channel=0, data=[79, 0]),
   midi.NoteOnEvent(tick=0, channel=0, data=[77, 69]),
   midi.NoteOnEvent(tick=120, channel=0, data=[77, 0]),
   midi.NoteOnEvent(tick=0, channel=0, data=[75, 69]),
   midi.NoteOnEvent(tick=120, channel=0, data=[75, 0]),
   midi.NoteOnEvent(tick=0, channel=0, data=[74, 68]),
   midi.NoteOnEvent(tick=120, channel=0, data=[74, 0]),
   midi.NoteOnEvent(tick=0, channel=0, data=[73, 67]),
   midi.NoteOnEvent(tick=120, channel=0, data=[73, 0]),
   midi.NoteOnEvent(tick=0, channel=0, data=[74, 67]),
   midi.NoteOnEvent(tick=120, channel=0, data=[74, 0]),
   midi.NoteOnEvent(tick=0, channel=0, data=[76, 70]),
   midi.NoteOnEvent(tick=120, channel=0, data=[76, 0]),
   midi.NoteOnEvent(tick=0, channel=0, data=[77, 72]),
   midi.NoteOnEvent(tick=120, channel=0, data=[77, 0]),
   midi.NoteOnEvent(tick=0, channel=0, data=[76, 71]),
   midi.NoteOnEvent(tick=120, channel=0, data=[76, 0]),
   midi.NoteOnEvent(tick=0, channel=0, data=[74, 70]),
   midi.NoteOnEvent(tick=120, channel=0, data=[74, 0]),
   midi.NoteOnEvent(tick=0, channel=0, data=[72, 69]),
   midi.NoteOnEvent(tick=120, channel=0, data=[72, 0]),
   midi.NoteOnEvent(tick=0, channel=0, data=[70, 68]),
   midi.NoteOnEvent(tick=120, channel=0, data=[70, 0]),
   midi.NoteOnEvent(tick=0, channel=0, data=[69, 68]),
   midi.NoteOnEvent(tick=120, channel=0, data=[69, 0]),
   midi.NoteOnEvent(tick=0, channel=0, data=[67, 67]),
   midi.NoteOnEvent(tick=120, channel=0, data=[67, 0]),
   midi.NoteOnEvent(tick=0, channel=0, data=[69, 68]),
   midi.NoteOnEvent(tick=120, channel=0, data=[69, 0]),
   midi.NoteOnEvent(tick=0, channel=0, data=[70, 69]),
   midi.NoteOnEvent(tick=120, channel=0, data=[70, 0]),
   midi.NoteOnEvent(tick=0, channel=0, data=[69, 68]),
   midi.NoteOnEvent(tick=120, channel=0, data=[69, 0]),
   midi.NoteOnEvent(tick=0, channel=0, data=[67, 66]),
   midi.NoteOnEvent(tick=120, channel=0, data=[67, 0]),
   midi.NoteOnEvent(tick=0, channel=0, data=[65, 65]),
   midi.NoteOnEvent(tick=120, channel=0, data=[65, 0]),
   midi.NoteOnEvent(tick=0, channel=0, data=[64, 63]),
   midi.NoteOnEvent(tick=120, channel=0, data=[64, 0]),
   midi.NoteOnEvent(tick=0, channel=0, data=[62, 61]),
   midi.NoteOnEvent(tick=120, channel=0, data=[62, 0]),
   midi.NoteOnEvent(tick=0, channel=0, data=[60, 60]),
   midi.NoteOnEvent(tick=240, channel=0, data=[60, 0]),
   midi.NoteOnEvent(tick=0, channel=0, data=[62, 60]),
   midi.NoteOnEvent(tick=120, channel=0, data=[62, 0]),
   midi.NoteOnEvent(tick=0, channel=0, data=[64, 61]),
   midi.NoteOnEvent(tick=120, channel=0, data=[64, 0]),
   midi.NoteOnEvent(tick=0, channel=0, data=[65, 62]),
   midi.NoteOnEvent(tick=120, channel=0, data=[65, 0]),
   midi.NoteOnEvent(tick=0, channel=0, data=[67, 64]),
   midi.NoteOnEvent(tick=120, channel=0, data=[67, 0]),
   midi.NoteOnEvent(tick=0, channel=0, data=[69, 65]),
   midi.NoteOnEvent(tick=120, channel=0, data=[69, 0]),
   midi.NoteOnEvent(tick=0, channel=0, data=[70, 66]),
   midi.NoteOnEvent(tick=120, channel=0, data=[70, 0]),
   midi.NoteOnEvent(tick=0, channel=0, data=[72, 67]),
   midi.NoteOnEvent(tick=120, channel=0, data=[72, 0]),
   midi.NoteOnEvent(tick=0, channel=0, data=[74, 69]),
   midi.NoteOnEvent(tick=120, channel=0, data=[74, 0]),
   midi.NoteOnEvent(tick=0, channel=0, data=[76, 70]),
   midi.NoteOnEvent(tick=120, channel=0, data=[76, 0]),
   midi.NoteOnEvent(tick=0, channel=0, data=[77, 71]),
   midi.NoteOnEvent(tick=120, channel=0, data=[77, 0]),
   midi.NoteOnEvent(tick=0, channel=0, data=[79, 73]),
   midi.NoteOnEvent(tick=120, channel=0, data=[79, 0]),
   midi.NoteOnEvent(tick=0, channel=0, data=[81, 74]),
   midi.NoteOnEvent(tick=120, channel=0, data=[81, 0]),
   midi.NoteOnEvent(tick=0, channel=0, data=[82, 75]),
   midi.NoteOnEvent(tick=120, channel=0, data=[82, 0]),
   midi.NoteOnEvent(tick=0, channel=0, data=[84, 77]),
   midi.NoteOnEvent(tick=120, channel=0, data=[84, 0]),
   midi.NoteOnEvent(tick=0, channel=0, data=[77, 71]),
   midi.NoteOnEvent(tick=80, channel=0, data=[77, 0]),
   midi.NoteOnEvent(tick=0, channel=0, data=[79, 64]),
   midi.NoteOnEvent(tick=80, channel=0, data=[79, 0]),
   midi.NoteOnEvent(tick=0, channel=0, data=[81, 58]),
   midi.NoteOnEvent(tick=80, channel=0, data=[81, 0]),
   midi.NoteOnEvent(tick=0, channel=0, data=[79, 64]),
   midi.NoteOnEvent(tick=80, channel=0, data=[79, 0]),
   midi.NoteOnEvent(tick=0, channel=0, data=[81, 58]),
   midi.NoteOnEvent(tick=80, channel=0, data=[81, 0]),
   midi.NoteOnEvent(tick=0, channel=0, data=[79, 65]),
   midi.NoteOnEvent(tick=80, channel=0, data=[79, 0]),
   midi.NoteOnEvent(tick=0, channel=0, data=[81, 62]),
   midi.NoteOnEvent(tick=80, channel=0, data=[81, 0]),
   midi.NoteOnEvent(tick=0, channel=0, data=[79, 67]),
   midi.NoteOnEvent(tick=80, channel=0, data=[79, 0]),
   midi.NoteOnEvent(tick=0, channel=0, data=[81, 61]),
   midi.NoteOnEvent(tick=80, channel=0, data=[81, 0]),
   midi.NoteOnEvent(tick=0, channel=0, data=[79, 68]),
   midi.NoteOnEvent(tick=80, channel=0, data=[79, 0]),
   midi.NoteOnEvent(tick=0, channel=0, data=[81, 61]),
   midi.NoteOnEvent(tick=80, channel=0, data=[81, 0]),
   midi.NoteOnEvent(tick=0, channel=0, data=[79, 69]),
   midi.NoteOnEvent(tick=80, channel=0, data=[79, 0]),
   midi.NoteOnEvent(tick=0, channel=0, data=[81, 64]),
   midi.NoteOnEvent(tick=80, channel=0, data=[81, 0]),
   midi.NoteOnEvent(tick=0, channel=0, data=[79, 70]),
   midi.NoteOnEvent(tick=80, channel=0, data=[79, 0]),
   midi.NoteOnEvent(tick=0, channel=0, data=[81, 64]),
   midi.NoteOnEvent(tick=80, channel=0, data=[81, 0]),
   midi.NoteOnEvent(tick=0, channel=0, data=[79, 70]),
   midi.NoteOnEvent(tick=80, channel=0, data=[79, 0]),
   midi.NoteOnEvent(tick=0, channel=0, data=[81, 66]),
   midi.NoteOnEvent(tick=80, channel=0, data=[81, 0]),
   midi.NoteOnEvent(tick=0, channel=0, data=[79, 69]),
   midi.NoteOnEvent(tick=80, channel=0, data=[79, 0]),
   midi.NoteOnEvent(tick=0, channel=0, data=[81, 72]),
   midi.NoteOnEvent(tick=120, channel=0, data=[81, 0]),
   midi.NoteOnEvent(tick=0, channel=0, data=[79, 72]),
   midi.NoteOnEvent(tick=120, channel=0, data=[79, 0]),
   midi.NoteOnEvent(tick=0, channel=0, data=[77, 73]),
   midi.NoteOnEvent(tick=120, channel=0, data=[77, 0]),
   midi.NoteOnEvent(tick=0, channel=0, data=[79, 70]),
   midi.NoteOnEvent(tick=120, channel=0, data=[79, 0]),
   midi.NoteOnEvent(tick=0, channel=0, data=[77, 76]),
   midi.NoteOnEvent(tick=120, channel=0, data=[77, 0]),
   midi.NoteOnEvent(tick=120, channel=0, data=[77, 72]),
   midi.NoteOnEvent(tick=120, channel=0, data=[77, 0]),
   midi.NoteOnEvent(tick=360, channel=0, data=[77, 55]),
   midi.NoteOnEvent(tick=120, channel=0, data=[77, 0]),
   midi.NoteOnEvent(tick=120, channel=0, data=[77, 57]),
   midi.NoteOnEvent(tick=120, channel=0, data=[77, 0]),
   midi.NoteOnEvent(tick=120, channel=0, data=[77, 54]),
   midi.NoteOnEvent(tick=120, channel=0, data=[77, 0]),
   midi.NoteOnEvent(tick=360, channel=0, data=[77, 55]),
   midi.NoteOnEvent(tick=120, channel=0, data=[77, 0]),
   midi.NoteOnEvent(tick=120, channel=0, data=[77, 57]),
   midi.NoteOnEvent(tick=120, channel=0, data=[77, 0]),
   midi.NoteOnEvent(tick=120, channel=0, data=[77, 53]),
   midi.NoteOnEvent(tick=120, channel=0, data=[77, 0]),
   midi.NoteOnEvent(tick=360, channel=0, data=[77, 60]),
   midi.NoteOnEvent(tick=120, channel=0, data=[77, 0]),
   midi.NoteOnEvent(tick=120, channel=0, data=[77, 64]),
   midi.NoteOnEvent(tick=120, channel=0, data=[77, 0]),
   midi.NoteOnEvent(tick=120, channel=0, data=[77, 60]),
   midi.NoteOnEvent(tick=120, channel=0, data=[77, 0]),
   midi.NoteOnEvent(tick=360, channel=0, data=[77, 69]),
   midi.NoteOnEvent(tick=120, channel=0, data=[77, 0]),
   midi.NoteOnEvent(tick=120, channel=0, data=[77, 72]),
   midi.NoteOnEvent(tick=120, channel=0, data=[77, 0]),
   midi.NoteOnEvent(tick=120, channel=0, data=[77, 69]),
   midi.NoteOnEvent(tick=120, channel=0, data=[77, 0]),
   midi.NoteOnEvent(tick=360, channel=0, data=[77, 79]),
   midi.NoteOnEvent(tick=120, channel=0, data=[77, 0]),
   midi.NoteOnEvent(tick=120, channel=0, data=[77, 82]),
   midi.NoteOnEvent(tick=120, channel=0, data=[77, 0]),
   midi.NoteOnEvent(tick=120, channel=0, data=[77, 78]),
   midi.NoteOnEvent(tick=120, channel=0, data=[77, 0]),
   midi.NoteOnEvent(tick=360, channel=0, data=[77, 80]),
   midi.NoteOnEvent(tick=120, channel=0, data=[77, 0]),
   midi.NoteOnEvent(tick=120, channel=0, data=[77, 86]),
   midi.NoteOnEvent(tick=240, channel=0, data=[77, 0]),
   midi.NoteOnEvent(tick=0, channel=0, data=[81, 81]),
   midi.NoteOnEvent(tick=120, channel=0, data=[81, 0]),
   midi.NoteOnEvent(tick=120, channel=0, data=[81, 86]),
   midi.NoteOnEvent(tick=240, channel=0, data=[81, 0]),
   midi.NoteOnEvent(tick=0, channel=0, data=[84, 81]),
   midi.NoteOnEvent(tick=120, channel=0, data=[84, 0]),
   midi.NoteOnEvent(tick=120, channel=0, data=[84, 86]),
   midi.NoteOnEvent(tick=240, channel=0, data=[84, 0]),
   midi.NoteOnEvent(tick=0, channel=0, data=[87, 81]),
   midi.NoteOnEvent(tick=120, channel=0, data=[87, 0]),
   midi.NoteOnEvent(tick=120, channel=0, data=[87, 86]),
   midi.NoteOnEvent(tick=240, channel=0, data=[87, 0]),
   midi.NoteOnEvent(tick=0, channel=0, data=[84, 75]),
   midi.NoteOnEvent(tick=120, channel=0, data=[84, 0]),
   midi.NoteOnEvent(tick=120, channel=0, data=[84, 81]),
   midi.NoteOnEvent(tick=240, channel=0, data=[84, 0]),
   midi.NoteOnEvent(tick=0, channel=0, data=[81, 73]),
   midi.NoteOnEvent(tick=120, channel=0, data=[81, 0]),
   midi.NoteOnEvent(tick=120, channel=0, data=[81, 79]),
   midi.NoteOnEvent(tick=240, channel=0, data=[81, 0]),
   midi.NoteOnEvent(tick=0, channel=0, data=[77, 71]),
   midi.NoteOnEvent(tick=120, channel=0, data=[77, 0]),
   midi.NoteOnEvent(tick=120, channel=0, data=[77, 68]),
   midi.NoteOnEvent(tick=240, channel=0, data=[77, 0]),
   midi.NoteOnEvent(tick=0, channel=0, data=[76, 57]),
   midi.NoteOnEvent(tick=120, channel=0, data=[76, 0]),
   midi.NoteOnEvent(tick=120, channel=0, data=[76, 57]),
   midi.NoteOnEvent(tick=240, channel=0, data=[76, 0]),
   midi.NoteOnEvent(tick=0, channel=0, data=[77, 57]),
   midi.NoteOnEvent(tick=120, channel=0, data=[77, 0]),
   midi.ControlChangeEvent(tick=120, channel=0, data=[91, 127]),
   midi.NoteOnEvent(tick=1, channel=0, data=[77, 67]),
   midi.NoteOnEvent(tick=719, channel=0, data=[74, 53]),
   midi.NoteOnEvent(tick=1, channel=0, data=[77, 0]),
   midi.NoteOnEvent(tick=239, channel=0, data=[74, 0]),
   midi.NoteOnEvent(tick=0, channel=0, data=[70, 55]),
   midi.NoteOnEvent(tick=120, channel=0, data=[70, 0]),
   midi.NoteOnEvent(tick=360, channel=0, data=[70, 53]),
   midi.NoteOnEvent(tick=120, channel=0, data=[70, 0]),
   midi.NoteOnEvent(tick=360, channel=0, data=[75, 60]),
   midi.NoteOnEvent(tick=480, channel=0, data=[75, 0]),
   midi.NoteOnEvent(tick=0, channel=0, data=[79, 55]),
   midi.NoteOnEvent(tick=120, channel=0, data=[79, 0]),
   midi.NoteOnEvent(tick=360, channel=0, data=[69, 57]),
   midi.NoteOnEvent(tick=480, channel=0, data=[69, 0]),
   midi.NoteOnEvent(tick=480, channel=0, data=[72, 55]),
   midi.NoteOnEvent(tick=240, channel=0, data=[72, 0]),
   midi.NoteOnEvent(tick=0, channel=0, data=[70, 53]),
   midi.NoteOnEvent(tick=120, channel=0, data=[70, 0]),
   midi.NoteOnEvent(tick=120, channel=0, data=[74, 57]),
   midi.NoteOnEvent(tick=240, channel=0, data=[74, 0]),
   midi.NoteOnEvent(tick=0, channel=0, data=[72, 54]),
   midi.NoteOnEvent(tick=120, channel=0, data=[72, 0]),
   midi.NoteOnEvent(tick=120, channel=0, data=[75, 58]),
   midi.NoteOnEvent(tick=240, channel=0, data=[75, 0]),
   midi.NoteOnEvent(tick=0, channel=0, data=[74, 56]),
   midi.NoteOnEvent(tick=120, channel=0, data=[74, 0]),
   midi.NoteOnEvent(tick=120, channel=0, data=[77, 60]),
   midi.NoteOnEvent(tick=240, channel=0, data=[77, 0]),
   midi.NoteOnEvent(tick=0, channel=0, data=[75, 57]),
   midi.NoteOnEvent(tick=120, channel=0, data=[75, 0]),
   midi.NoteOnEvent(tick=120, channel=0, data=[74, 60]),
   midi.NoteOnEvent(tick=720, channel=0, data=[74, 0]),
   midi.NoteOnEvent(tick=0, channel=0, data=[75, 57]),
   midi.NoteOnEvent(tick=120, channel=0, data=[75, 0]),
   midi.NoteOnEvent(tick=0, channel=0, data=[74, 57]),
   midi.NoteOnEvent(tick=120, channel=0, data=[74, 0]),
   midi.NoteOnEvent(tick=0, channel=0, data=[72, 52]),
   midi.NoteOnEvent(tick=240, channel=0, data=[72, 0]),
   midi.NoteOnEvent(tick=0, channel=0, data=[74, 54]),
   midi.NoteOnEvent(tick=240, channel=0, data=[74, 0]),
   midi.NoteOnEvent(tick=0, channel=0, data=[75, 55]),
   midi.NoteOnEvent(tick=240, channel=0, data=[75, 0]),
   midi.NoteOnEvent(tick=0, channel=0, data=[76, 57]),
   midi.NoteOnEvent(tick=240, channel=0, data=[76, 0]),
   midi.NoteOnEvent(tick=0, channel=0, data=[77, 59]),
   midi.NoteOnEvent(tick=720, channel=0, data=[77, 0]),
   midi.NoteOnEvent(tick=0, channel=0, data=[75, 53]),
   midi.NoteOnEvent(tick=80, channel=0, data=[75, 0]),
   midi.NoteOnEvent(tick=0, channel=0, data=[74, 53]),
   midi.NoteOnEvent(tick=80, channel=0, data=[74, 0]),
   midi.NoteOnEvent(tick=0, channel=0, data=[72, 53]),
   midi.NoteOnEvent(tick=80, channel=0, data=[72, 0]),
   midi.NoteOnEvent(tick=0, channel=0, data=[70, 56]),
   midi.NoteOnEvent(tick=120, channel=0, data=[70, 0]),
   midi.NoteOnEvent(tick=360, channel=0, data=[70, 56]),
   midi.NoteOnEvent(tick=120, channel=0, data=[70, 0]),
   midi.NoteOnEvent(tick=360, channel=0, data=[75, 60]),
   midi.NoteOnEvent(tick=480, channel=0, data=[75, 0]),
   midi.NoteOnEvent(tick=0, channel=0, data=[79, 55]),
   midi.NoteOnEvent(tick=120, channel=0, data=[79, 0]),
   midi.NoteOnEvent(tick=360, channel=0, data=[69, 58]),
   midi.NoteOnEvent(tick=480, channel=0, data=[69, 0]),
   midi.NoteOnEvent(tick=240, channel=0, data=[69, 54]),
   midi.NoteOnEvent(tick=240, channel=0, data=[69, 0]),
   midi.NoteOnEvent(tick=0, channel=0, data=[70, 58]),
   midi.NoteOnEvent(tick=240, channel=0, data=[70, 0]),
   midi.NoteOnEvent(tick=0, channel=0, data=[74, 55]),
   midi.NoteOnEvent(tick=120, channel=0, data=[74, 0]),
   midi.NoteOnEvent(tick=120, channel=0, data=[67, 58]),
   midi.NoteOnEvent(tick=240, channel=0, data=[67, 0]),
   midi.NoteOnEvent(tick=0, channel=0, data=[72, 55]),
   midi.NoteOnEvent(tick=120, channel=0, data=[72, 0]),
   midi.NoteOnEvent(tick=120, channel=0, data=[70, 58]),
   midi.NoteOnEvent(tick=480, channel=0, data=[70, 0]),
   midi.NoteOnEvent(tick=0, channel=0, data=[69, 55]),
   midi.NoteOnEvent(tick=480, channel=0, data=[69, 0]),
   midi.NoteOnEvent(tick=0, channel=0, data=[70, 58]),
   midi.NoteOnEvent(tick=240, channel=0, data=[70, 0]),
   midi.NoteOnEvent(tick=0, channel=0, data=[65, 56]),
   midi.NoteOnEvent(tick=120, channel=0, data=[65, 0]),
   midi.NoteOnEvent(tick=120, channel=0, data=[67, 60]),
   midi.NoteOnEvent(tick=120, channel=0, data=[67, 0]),
   midi.NoteOnEvent(tick=120, channel=0, data=[69, 63]),
   midi.NoteOnEvent(tick=120, channel=0, data=[69, 0]),
   midi.NoteOnEvent(tick=120, channel=0, data=[70, 67]),
   midi.NoteOnEvent(tick=120, channel=0, data=[70, 0]),
   midi.NoteOnEvent(tick=120, channel=0, data=[72, 70]),
   midi.NoteOnEvent(tick=120, channel=0, data=[72, 0]),
   midi.NoteOnEvent(tick=120, channel=0, data=[74, 74]),
   midi.NoteOnEvent(tick=120, channel=0, data=[74, 0]),
   midi.NoteOnEvent(tick=120, channel=0, data=[75, 77]),
   midi.NoteOnEvent(tick=120, channel=0, data=[75, 0]),
   midi.ControlChangeEvent(tick=120, channel=0, data=[91, 127]),
   midi.NoteOnEvent(tick=1, channel=0, data=[77, 85]),
   midi.NoteOnEvent(tick=719, channel=0, data=[74, 74]),
   midi.NoteOnEvent(tick=1, channel=0, data=[77, 0]),
   midi.NoteOnEvent(tick=239, channel=0, data=[74, 0]),
   midi.NoteOnEvent(tick=0, channel=0, data=[70, 78]),
   midi.NoteOnEvent(tick=240, channel=0, data=[70, 0]),
   midi.NoteOnEvent(tick=240, channel=0, data=[70, 78]),
   midi.NoteOnEvent(tick=240, channel=0, data=[70, 0]),
   midi.NoteOnEvent(tick=240, channel=0, data=[75, 85]),
   midi.NoteOnEvent(tick=96, channel=0, data=[75, 0]),
   midi.NoteOnEvent(tick=0, channel=0, data=[77, 61]),
   midi.NoteOnEvent(tick=96, channel=0, data=[77, 0]),
   midi.NoteOnEvent(tick=0, channel=0, data=[75, 61]),
   midi.NoteOnEvent(tick=96, channel=0, data=[75, 0]),
   midi.NoteOnEvent(tick=0, channel=0, data=[74, 61]),
   midi.NoteOnEvent(tick=96, channel=0, data=[74, 0]),
   midi.NoteOnEvent(tick=0, channel=0, data=[75, 61]),
   midi.NoteOnEvent(tick=96, channel=0, data=[75, 0]),
   midi.NoteOnEvent(tick=0, channel=0, data=[79, 78]),
   midi.NoteOnEvent(tick=480, channel=0, data=[79, 0]),
   midi.NoteOnEvent(tick=0, channel=0, data=[69, 81]),
   midi.NoteOnEvent(tick=480, channel=0, data=[69, 0]),
   midi.NoteOnEvent(tick=480, channel=0, data=[72, 78]),
   midi.NoteOnEvent(tick=240, channel=0, data=[72, 0]),
   midi.NoteOnEvent(tick=0, channel=0, data=[70, 71]),
   midi.NoteOnEvent(tick=120, channel=0, data=[70, 0]),
   midi.NoteOnEvent(tick=120, channel=0, data=[74, 81]),
   midi.NoteOnEvent(tick=240, channel=0, data=[74, 0]),
   midi.NoteOnEvent(tick=0, channel=0, data=[72, 75]),
   midi.NoteOnEvent(tick=120, channel=0, data=[72, 0]),
   midi.NoteOnEvent(tick=120, channel=0, data=[75, 82]),
   midi.NoteOnEvent(tick=240, channel=0, data=[75, 0]),
   midi.NoteOnEvent(tick=0, channel=0, data=[74, 77]),
   midi.NoteOnEvent(tick=120, channel=0, data=[74, 0]),
   midi.NoteOnEvent(tick=120, channel=0, data=[77, 85]),
   midi.NoteOnEvent(tick=240, channel=0, data=[77, 0]),
   midi.NoteOnEvent(tick=0, channel=0, data=[75, 81]),
   midi.NoteOnEvent(tick=120, channel=0, data=[75, 0]),
   midi.NoteOnEvent(tick=120, channel=0, data=[74, 85]),
   midi.NoteOnEvent(tick=720, channel=0, data=[74, 0]),
   midi.NoteOnEvent(tick=0, channel=0, data=[75, 78]),
   midi.NoteOnEvent(tick=120, channel=0, data=[75, 0]),
   midi.NoteOnEvent(tick=0, channel=0, data=[74, 76]),
   midi.NoteOnEvent(tick=120, channel=0, data=[74, 0]),
   midi.NoteOnEvent(tick=0, channel=0, data=[72, 73]),
   midi.NoteOnEvent(tick=240, channel=0, data=[72, 0]),
   midi.NoteOnEvent(tick=0, channel=0, data=[74, 77]),
   midi.NoteOnEvent(tick=240, channel=0, data=[74, 0]),
   midi.NoteOnEvent(tick=0, channel=0, data=[75, 78]),
   midi.NoteOnEvent(tick=240, channel=0, data=[75, 0]),
   midi.NoteOnEvent(tick=0, channel=0, data=[76, 81]),
   midi.NoteOnEvent(tick=240, channel=0, data=[76, 0]),
   midi.NoteOnEvent(tick=0, channel=0, data=[77, 83]),
   midi.NoteOnEvent(tick=720, channel=0, data=[77, 0]),
   midi.NoteOnEvent(tick=0, channel=0, data=[75, 74]),
   midi.NoteOnEvent(tick=80, channel=0, data=[75, 0]),
   midi.NoteOnEvent(tick=0, channel=0, data=[74, 74]),
   midi.NoteOnEvent(tick=80, channel=0, data=[74, 0]),
   midi.NoteOnEvent(tick=0, channel=0, data=[72, 74]),
   midi.NoteOnEvent(tick=80, channel=0, data=[72, 0]),
   midi.NoteOnEvent(tick=0, channel=0, data=[70, 79]),
   midi.NoteOnEvent(tick=120, channel=0, data=[70, 0]),
   midi.NoteOnEvent(tick=120, channel=0, data=[70, 79]),
   midi.NoteOnEvent(tick=120, channel=0, data=[70, 0]),
   midi.NoteOnEvent(tick=120, channel=0, data=[70, 79]),
   midi.NoteOnEvent(tick=120, channel=0, data=[70, 0]),
   midi.NoteOnEvent(tick=120, channel=0, data=[70, 79]),
   midi.NoteOnEvent(tick=120, channel=0, data=[70, 0]),
   midi.NoteOnEvent(tick=120, channel=0, data=[75, 85]),
   midi.NoteOnEvent(tick=96, channel=0, data=[75, 0]),
   midi.NoteOnEvent(tick=0, channel=0, data=[77, 61]),
   midi.NoteOnEvent(tick=96, channel=0, data=[77, 0]),
   midi.NoteOnEvent(tick=0, channel=0, data=[75, 61]),
   midi.NoteOnEvent(tick=96, channel=0, data=[75, 0]),
   midi.NoteOnEvent(tick=0, channel=0, data=[74, 61]),
   midi.NoteOnEvent(tick=96, channel=0, data=[74, 0]),
   midi.NoteOnEvent(tick=0, channel=0, data=[75, 61]),
   midi.NoteOnEvent(tick=96, channel=0, data=[75, 0]),
   midi.NoteOnEvent(tick=0, channel=0, data=[79, 78]),
   midi.NoteOnEvent(tick=480, channel=0, data=[79, 0]),
   midi.NoteOnEvent(tick=0, channel=0, data=[69, 82]),
   midi.NoteOnEvent(tick=480, channel=0, data=[69, 0]),
   midi.NoteOnEvent(tick=240, channel=0, data=[81, 77]),
   midi.NoteOnEvent(tick=240, channel=0, data=[81, 0]),
   midi.NoteOnEvent(tick=0, channel=0, data=[82, 85]),
   midi.NoteOnEvent(tick=160, channel=0, data=[82, 0]),
   midi.NoteOnEvent(tick=0, channel=0, data=[77, 75]),
   midi.NoteOnEvent(tick=160, channel=0, data=[77, 0]),
   midi.NoteOnEvent(tick=0, channel=0, data=[74, 74]),
   midi.NoteOnEvent(tick=160, channel=0, data=[74, 0]),
   midi.NoteOnEvent(tick=0, channel=0, data=[79, 84]),
   midi.NoteOnEvent(tick=160, channel=0, data=[79, 0]),
   midi.NoteOnEvent(tick=0, channel=0, data=[75, 75]),
   midi.NoteOnEvent(tick=160, channel=0, data=[75, 0]),
   midi.NoteOnEvent(tick=0, channel=0, data=[72, 75]),
   midi.NoteOnEvent(tick=160, channel=0, data=[72, 0]),
   midi.NoteOnEvent(tick=0, channel=0, data=[77, 84]),
   midi.NoteOnEvent(tick=160, channel=0, data=[77, 0]),
   midi.NoteOnEvent(tick=0, channel=0, data=[74, 74]),
   midi.NoteOnEvent(tick=160, channel=0, data=[74, 0]),
   midi.NoteOnEvent(tick=0, channel=0, data=[70, 74]),
   midi.NoteOnEvent(tick=160, channel=0, data=[70, 0]),
   midi.NoteOnEvent(tick=0, channel=0, data=[75, 84]),
   midi.NoteOnEvent(tick=160, channel=0, data=[75, 0]),
   midi.NoteOnEvent(tick=0, channel=0, data=[72, 74]),
   midi.NoteOnEvent(tick=160, channel=0, data=[72, 0]),
   midi.NoteOnEvent(tick=0, channel=0, data=[69, 72]),
   midi.NoteOnEvent(tick=160, channel=0, data=[69, 0]),
   midi.NoteOnEvent(tick=0, channel=0, data=[70, 83]),
   midi.NoteOnEvent(tick=480, channel=0, data=[70, 0]),
   midi.NoteOnEvent(tick=240, channel=0, data=[65, 55]),
   midi.NoteOnEvent(tick=240, channel=0, data=[65, 0]),
   midi.NoteOnEvent(tick=0, channel=0, data=[70, 58]),
   midi.NoteOnEvent(tick=120, channel=0, data=[70, 0]),
   midi.NoteOnEvent(tick=120, channel=0, data=[69, 52]),
   midi.NoteOnEvent(tick=120, channel=0, data=[69, 0]),
   midi.NoteOnEvent(tick=120, channel=0, data=[70, 55]),
   midi.NoteOnEvent(tick=120, channel=0, data=[70, 0]),
   midi.NoteOnEvent(tick=120, channel=0, data=[72, 51]),
   midi.NoteOnEvent(tick=120, channel=0, data=[72, 0]),
   midi.NoteOnEvent(tick=120, channel=0, data=[74, 55]),
   midi.NoteOnEvent(tick=120, channel=0, data=[74, 0]),
   midi.NoteOnEvent(tick=360, channel=0, data=[70, 56]),
   midi.NoteOnEvent(tick=0, channel=0, data=[74, 56]),
   midi.NoteOnEvent(tick=180, channel=0, data=[74, 0]),
   midi.NoteOnEvent(tick=0, channel=0, data=[70, 0]),
   midi.NoteOnEvent(tick=300, channel=0, data=[70, 59]),
   midi.NoteOnEvent(tick=0, channel=0, data=[74, 59]),
   midi.NoteOnEvent(tick=480, channel=0, data=[74, 0]),
   midi.NoteOnEvent(tick=0, channel=0, data=[70, 0]),
   midi.NoteOnEvent(tick=0, channel=0, data=[72, 55]),
   midi.NoteOnEvent(tick=0, channel=0, data=[75, 55]),
   midi.NoteOnEvent(tick=480, channel=0, data=[75, 0]),
   midi.NoteOnEvent(tick=0, channel=0, data=[72, 0]),
   midi.NoteOnEvent(tick=0, channel=0, data=[72, 54]),
   midi.NoteOnEvent(tick=0, channel=0, data=[69, 54]),
   midi.NoteOnEvent(tick=480, channel=0, data=[69, 0]),
   midi.NoteOnEvent(tick=0, channel=0, data=[72, 0]),
   midi.NoteOnEvent(tick=240, channel=0, data=[65, 55]),
   midi.NoteOnEvent(tick=240, channel=0, data=[65, 0]),
   midi.NoteOnEvent(tick=0, channel=0, data=[72, 57]),
   midi.NoteOnEvent(tick=120, channel=0, data=[72, 0]),
   midi.NoteOnEvent(tick=120, channel=0, data=[70, 54]),
   midi.NoteOnEvent(tick=120, channel=0, data=[70, 0]),
   midi.NoteOnEvent(tick=120, channel=0, data=[72, 56]),
   midi.NoteOnEvent(tick=120, channel=0, data=[72, 0]),
   midi.NoteOnEvent(tick=120, channel=0, data=[74, 54]),
   midi.NoteOnEvent(tick=120, channel=0, data=[74, 0]),
   midi.NoteOnEvent(tick=120, channel=0, data=[75, 56]),
   midi.NoteOnEvent(tick=120, channel=0, data=[75, 0]),
   midi.NoteOnEvent(tick=360, channel=0, data=[67, 56]),
   midi.NoteOnEvent(tick=0, channel=0, data=[75, 56]),
   midi.NoteOnEvent(tick=180, channel=0, data=[75, 0]),
   midi.NoteOnEvent(tick=0, channel=0, data=[67, 0]),
   midi.NoteOnEvent(tick=300, channel=0, data=[75, 58]),
   midi.NoteOnEvent(tick=0, channel=0, data=[72, 58]),
   midi.NoteOnEvent(tick=450, channel=0, data=[72, 0]),
   midi.NoteOnEvent(tick=0, channel=0, data=[75, 0]),
   midi.NoteOnEvent(tick=30, channel=0, data=[77, 56]),
   midi.NoteOnEvent(tick=0, channel=0, data=[69, 56]),
   midi.NoteOnEvent(tick=480, channel=0, data=[69, 0]),
   midi.NoteOnEvent(tick=0, channel=0, data=[77, 0]),
   midi.NoteOnEvent(tick=0, channel=0, data=[74, 54]),
   midi.NoteOnEvent(tick=0, channel=0, data=[70, 54]),
   midi.NoteOnEvent(tick=480, channel=0, data=[70, 0]),
   midi.NoteOnEvent(tick=0, channel=0, data=[74, 0]),
   midi.NoteOnEvent(tick=240, channel=0, data=[70, 58]),
   midi.NoteOnEvent(tick=240, channel=0, data=[70, 0]),
   midi.NoteOnEvent(tick=0, channel=0, data=[74, 64]),
   midi.NoteOnEvent(tick=120, channel=0, data=[74, 0]),
   midi.NoteOnEvent(tick=120, channel=0, data=[72, 59]),
   midi.NoteOnEvent(tick=120, channel=0, data=[72, 0]),
   midi.NoteOnEvent(tick=120, channel=0, data=[74, 64]),
   midi.NoteOnEvent(tick=120, channel=0, data=[74, 0]),
   midi.NoteOnEvent(tick=120, channel=0, data=[75, 67]),
   midi.NoteOnEvent(tick=120, channel=0, data=[75, 0]),
   midi.NoteOnEvent(tick=120, channel=0, data=[77, 71]),
   midi.NoteOnEvent(tick=360, channel=0, data=[77, 0]),
   midi.NoteOnEvent(tick=120, channel=0, data=[77, 76]),
   midi.NoteOnEvent(tick=360, channel=0, data=[77, 0]),
   midi.NoteOnEvent(tick=120, channel=0, data=[77, 79]),
   midi.NoteOnEvent(tick=360, channel=0, data=[77, 0]),
   midi.NoteOnEvent(tick=120, channel=0, data=[77, 82]),
   midi.NoteOnEvent(tick=360, channel=0, data=[77, 0]),
   midi.NoteOnEvent(tick=120, channel=0, data=[78, 91]),
   midi.NoteOnEvent(tick=240, channel=0, data=[72, 59]),
   midi.NoteOnEvent(tick=240, channel=0, data=[72, 0]),
   midi.NoteOnEvent(tick=0, channel=0, data=[74, 59]),
   midi.NoteOnEvent(tick=240, channel=0, data=[74, 0]),
   midi.NoteOnEvent(tick=0, channel=0, data=[75, 63]),
   midi.NoteOnEvent(tick=173, channel=0, data=[75, 0]),
   midi.NoteOnEvent(tick=67, channel=0, data=[75, 63]),
   midi.NoteOnEvent(tick=240, channel=0, data=[75, 0]),
   midi.NoteOnEvent(tick=0, channel=0, data=[74, 62]),
   midi.NoteOnEvent(tick=180, channel=0, data=[74, 0]),
   midi.NoteOnEvent(tick=60, channel=0, data=[74, 61]),
   midi.NoteOnEvent(tick=240, channel=0, data=[74, 0]),
   midi.NoteOnEvent(tick=0, channel=0, data=[72, 57]),
   midi.NoteOnEvent(tick=180, channel=0, data=[72, 0]),
   midi.NoteOnEvent(tick=60, channel=0, data=[78, 0]),
   midi.NoteOnEvent(tick=0, channel=0, data=[70, 70]),
   midi.NoteOnEvent(tick=0, channel=0, data=[79, 70]),
   midi.NoteOnEvent(tick=960, channel=0, data=[79, 0]),
   midi.NoteOnEvent(tick=0, channel=0, data=[70, 0]),
   midi.NoteOnEvent(tick=0, channel=0, data=[73, 64]),
   midi.NoteOnEvent(tick=960, channel=0, data=[73, 0]),
   midi.NoteOnEvent(tick=0, channel=0, data=[74, 69]),
   midi.NoteOnEvent(tick=480, channel=0, data=[74, 0]),
   midi.NoteOnEvent(tick=360, channel=0, data=[62, 63]),
   midi.NoteOnEvent(tick=120, channel=0, data=[62, 0]),
   midi.NoteOnEvent(tick=0, channel=0, data=[74, 80]),
   midi.NoteOnEvent(tick=450, channel=0, data=[74, 0]),
   midi.NoteOnEvent(tick=30, channel=0, data=[74, 76]),
   midi.NoteOnEvent(tick=480, channel=0, data=[74, 0]),
   midi.NoteOnEvent(tick=0, channel=0, data=[82, 85]),
   midi.NoteOnEvent(tick=720, channel=0, data=[82, 0]),
   midi.NoteOnEvent(tick=0, channel=0, data=[81, 75]),
   midi.NoteOnEvent(tick=80, channel=0, data=[81, 0]),
   midi.NoteOnEvent(tick=0, channel=0, data=[79, 72]),
   midi.NoteOnEvent(tick=80, channel=0, data=[79, 0]),
   midi.NoteOnEvent(tick=0, channel=0, data=[78, 72]),
   midi.NoteOnEvent(tick=80, channel=0, data=[78, 0]),
   midi.NoteOnEvent(tick=0, channel=0, data=[79, 79]),
   midi.NoteOnEvent(tick=480, channel=0, data=[79, 0]),
   midi.NoteOnEvent(tick=0, channel=0, data=[74, 73]),
   midi.NoteOnEvent(tick=480, channel=0, data=[74, 0]),
   midi.NoteOnEvent(tick=0, channel=0, data=[75, 80]),
   midi.NoteOnEvent(tick=480, channel=0, data=[75, 0]),
   midi.NoteOnEvent(tick=360, channel=0, data=[67, 71]),
   midi.NoteOnEvent(tick=120, channel=0, data=[67, 0]),
   midi.NoteOnEvent(tick=0, channel=0, data=[79, 86]),
   midi.NoteOnEvent(tick=450, channel=0, data=[79, 0]),
   midi.NoteOnEvent(tick=30, channel=0, data=[79, 83]),
   midi.NoteOnEvent(tick=480, channel=0, data=[79, 0]),
   midi.NoteOnEvent(tick=0, channel=0, data=[87, 101]),
   midi.NoteOnEvent(tick=720, channel=0, data=[87, 0]),
   midi.NoteOnEvent(tick=0, channel=0, data=[86, 75]),
   midi.NoteOnEvent(tick=80, channel=0, data=[86, 0]),
   midi.NoteOnEvent(tick=0, channel=0, data=[84, 71]),
   midi.NoteOnEvent(tick=80, channel=0, data=[84, 0]),
   midi.NoteOnEvent(tick=0, channel=0, data=[83, 71]),
   midi.NoteOnEvent(tick=80, channel=0, data=[83, 0]),
   midi.NoteOnEvent(tick=0, channel=0, data=[84, 79]),
   midi.NoteOnEvent(tick=480, channel=0, data=[84, 0]),
   midi.NoteOnEvent(tick=0, channel=0, data=[75, 78]),
   midi.NoteOnEvent(tick=480, channel=0, data=[75, 0]),
   midi.NoteOnEvent(tick=0, channel=0, data=[74, 74]),
   midi.NoteOnEvent(tick=480, channel=0, data=[74, 0]),
   midi.NoteOnEvent(tick=240, channel=0, data=[73, 69]),
   midi.NoteOnEvent(tick=240, channel=0, data=[73, 0]),
   midi.NoteOnEvent(tick=0, channel=0, data=[74, 73]),
   midi.NoteOnEvent(tick=240, channel=0, data=[74, 0]),
   midi.NoteOnEvent(tick=0, channel=0, data=[82, 72]),
   midi.NoteOnEvent(tick=120, channel=0, data=[82, 0]),
   midi.NoteOnEvent(tick=120, channel=0, data=[81, 71]),
   midi.NoteOnEvent(tick=120, channel=0, data=[81, 0]),
   midi.NoteOnEvent(tick=120, channel=0, data=[79, 69]),
   midi.NoteOnEvent(tick=120, channel=0, data=[79, 0]),
   midi.NoteOnEvent(tick=120, channel=0, data=[78, 74]),
   midi.NoteOnEvent(tick=360, channel=0, data=[78, 0]),
   midi.NoteOnEvent(tick=0, channel=0, data=[79, 64]),
   midi.NoteOnEvent(tick=60, channel=0, data=[79, 0]),
   midi.NoteOnEvent(tick=0, channel=0, data=[81, 64]),
   midi.NoteOnEvent(tick=60, channel=0, data=[81, 0]),
   midi.NoteOnEvent(tick=0, channel=0, data=[79, 78]),
   midi.NoteOnEvent(tick=120, channel=0, data=[79, 0]),
   midi.NoteOnEvent(tick=120, channel=0, data=[79, 74]),
   midi.NoteOnEvent(tick=120, channel=0, data=[79, 0]),
   midi.NoteOnEvent(tick=120, channel=0, data=[85, 83]),
   midi.NoteOnEvent(tick=240, channel=0, data=[85, 0]),
   midi.NoteOnEvent(tick=0, channel=0, data=[86, 78]),
   midi.NoteOnEvent(tick=240, channel=0, data=[86, 0]),
   midi.NoteOnEvent(tick=0, channel=0, data=[82, 74]),
   midi.NoteOnEvent(tick=120, channel=0, data=[82, 0]),
   midi.NoteOnEvent(tick=120, channel=0, data=[79, 74]),
   midi.NoteOnEvent(tick=120, channel=0, data=[79, 0]),
   midi.NoteOnEvent(tick=120, channel=0, data=[78, 77]),
   midi.NoteOnEvent(tick=360, channel=0, data=[78, 0]),
   midi.NoteOnEvent(tick=0, channel=0, data=[79, 66]),
   midi.NoteOnEvent(tick=60, channel=0, data=[79, 0]),
   midi.NoteOnEvent(tick=0, channel=0, data=[81, 66]),
   midi.NoteOnEvent(tick=60, channel=0, data=[81, 0]),
   midi.NoteOnEvent(tick=0, channel=0, data=[79, 77]),
   midi.NoteOnEvent(tick=120, channel=0, data=[79, 0]),
   midi.NoteOnEvent(tick=120, channel=0, data=[74, 67]),
   midi.NoteOnEvent(tick=240, channel=0, data=[74, 0]),
   midi.NoteOnEvent(tick=0, channel=0, data=[79, 71]),
   midi.NoteOnEvent(tick=120, channel=0, data=[79, 0]),
   midi.NoteOnEvent(tick=120, channel=0, data=[79, 71]),
   midi.NoteOnEvent(tick=120, channel=0, data=[79, 0]),
   midi.NoteOnEvent(tick=120, channel=0, data=[79, 71]),
   midi.NoteOnEvent(tick=120, channel=0, data=[79, 0]),
   midi.NoteOnEvent(tick=120, channel=0, data=[79, 71]),
   midi.NoteOnEvent(tick=120, channel=0, data=[79, 0]),
   midi.NoteOnEvent(tick=120, channel=0, data=[79, 78]),
   midi.NoteOnEvent(tick=360, channel=0, data=[79, 0]),
   midi.NoteOnEvent(tick=0, channel=0, data=[81, 63]),
   midi.NoteOnEvent(tick=60, channel=0, data=[81, 0]),
   midi.NoteOnEvent(tick=0, channel=0, data=[82, 63]),
   midi.NoteOnEvent(tick=60, channel=0, data=[82, 0]),
   midi.NoteOnEvent(tick=0, channel=0, data=[81, 75]),
   midi.NoteOnEvent(tick=120, channel=0, data=[81, 0]),
   midi.NoteOnEvent(tick=120, channel=0, data=[79, 72]),
   midi.NoteOnEvent(tick=120, channel=0, data=[79, 0]),
   midi.NoteOnEvent(tick=120, channel=0, data=[77, 72]),
   midi.NoteOnEvent(tick=120, channel=0, data=[77, 0]),
   midi.NoteOnEvent(tick=120, channel=0, data=[75, 70]),
   midi.NoteOnEvent(tick=120, channel=0, data=[75, 0]),
   midi.NoteOnEvent(tick=120, channel=0, data=[74, 68]),
   midi.NoteOnEvent(tick=120, channel=0, data=[74, 0]),
   midi.NoteOnEvent(tick=120, channel=0, data=[73, 67]),
   midi.NoteOnEvent(tick=120, channel=0, data=[73, 0]),
   midi.NoteOnEvent(tick=120, channel=0, data=[73, 71]),
   midi.NoteOnEvent(tick=240, channel=0, data=[73, 0]),
   midi.NoteOnEvent(tick=0, channel=0, data=[74, 68]),
   midi.NoteOnEvent(tick=240, channel=0, data=[74, 0]),
   midi.NoteOnEvent(tick=0, channel=0, data=[74, 59]),
   midi.NoteOnEvent(tick=360, channel=0, data=[74, 0]),
   midi.NoteOnEvent(tick=120, channel=0, data=[74, 58]),
   midi.NoteOnEvent(tick=360, channel=0, data=[74, 0]),
   midi.NoteOnEvent(tick=120, channel=0, data=[74, 54]),
   midi.NoteOnEvent(tick=360, channel=0, data=[74, 0]),
   midi.NoteOnEvent(tick=120, channel=0, data=[73, 40]),
   midi.NoteOnEvent(tick=80, channel=0, data=[73, 0]),
   midi.NoteOnEvent(tick=0, channel=0, data=[74, 44]),
   midi.NoteOnEvent(tick=80, channel=0, data=[74, 0]),
   midi.NoteOnEvent(tick=0, channel=0, data=[75, 49]),
   midi.NoteOnEvent(tick=80, channel=0, data=[75, 0]),
   midi.NoteOnEvent(tick=0, channel=0, data=[74, 62]),
   midi.NoteOnEvent(tick=1680, channel=0, data=[74, 0]),
   midi.NoteOnEvent(tick=0, channel=0, data=[77, 72]),
   midi.NoteOnEvent(tick=1920, channel=0, data=[77, 0]),
   midi.NoteOnEvent(tick=0, channel=0, data=[62, 74]),
   midi.NoteOnEvent(tick=0, channel=0, data=[56, 74]),
   midi.NoteOnEvent(tick=1920, channel=0, data=[56, 0]),
   midi.NoteOnEvent(tick=0, channel=0, data=[62, 0]),
   midi.NoteOnEvent(tick=0, channel=0, data=[55, 74]),
   midi.NoteOnEvent(tick=0, channel=0, data=[63, 74]),
   midi.NoteOnEvent(tick=480, channel=0, data=[55, 0]),
   midi.NoteOnEvent(tick=840, channel=0, data=[63, 0]),
   midi.NoteOnEvent(tick=0, channel=0, data=[58, 45]),
   midi.NoteOnEvent(tick=120, channel=0, data=[58, 0]),
   midi.NoteOnEvent(tick=0, channel=0, data=[62, 49]),
   midi.NoteOnEvent(tick=360, channel=0, data=[62, 0]),
   midi.NoteOnEvent(tick=0, channel=0, data=[58, 46]),
   midi.NoteOnEvent(tick=120, channel=0, data=[58, 0]),
   midi.NoteOnEvent(tick=0, channel=0, data=[63, 52]),
   midi.NoteOnEvent(tick=360, channel=0, data=[63, 0]),
   midi.NoteOnEvent(tick=0, channel=0, data=[58, 49]),
   midi.NoteOnEvent(tick=120, channel=0, data=[58, 0]),
   midi.NoteOnEvent(tick=0, channel=0, data=[65, 51]),
   midi.NoteOnEvent(tick=360, channel=0, data=[65, 0]),
   midi.NoteOnEvent(tick=0, channel=0, data=[58, 51]),
   midi.NoteOnEvent(tick=120, channel=0, data=[58, 0]),
   midi.NoteOnEvent(tick=0, channel=0, data=[67, 53]),
   midi.NoteOnEvent(tick=360, channel=0, data=[67, 0]),
   midi.NoteOnEvent(tick=0, channel=0, data=[58, 54]),
   midi.NoteOnEvent(tick=120, channel=0, data=[58, 0]),
   midi.NoteOnEvent(tick=0, channel=0, data=[68, 56]),
   midi.NoteOnEvent(tick=360, channel=0, data=[68, 0]),
   midi.NoteOnEvent(tick=0, channel=0, data=[58, 54]),
   midi.NoteOnEvent(tick=120, channel=0, data=[58, 0]),
   midi.NoteOnEvent(tick=0, channel=0, data=[65, 57]),
   midi.NoteOnEvent(tick=1320, channel=0, data=[65, 0]),
   midi.NoteOnEvent(tick=0, channel=0, data=[58, 50]),
   midi.NoteOnEvent(tick=120, channel=0, data=[58, 0]),
   midi.NoteOnEvent(tick=0, channel=0, data=[64, 52]),
   midi.NoteOnEvent(tick=360, channel=0, data=[64, 0]),
   midi.NoteOnEvent(tick=0, channel=0, data=[58, 53]),
   midi.NoteOnEvent(tick=120, channel=0, data=[58, 0]),
   midi.NoteOnEvent(tick=0, channel=0, data=[65, 55]),
   midi.NoteOnEvent(tick=360, channel=0, data=[65, 0]),
   midi.NoteOnEvent(tick=0, channel=0, data=[58, 51]),
   midi.NoteOnEvent(tick=120, channel=0, data=[58, 0]),
   midi.NoteOnEvent(tick=0, channel=0, data=[67, 52]),
   midi.NoteOnEvent(tick=360, channel=0, data=[67, 0]),
   midi.NoteOnEvent(tick=0, channel=0, data=[58, 54]),
   midi.NoteOnEvent(tick=120, channel=0, data=[58, 0]),
   midi.NoteOnEvent(tick=0, channel=0, data=[68, 56]),
   midi.NoteOnEvent(tick=360, channel=0, data=[68, 0]),
   midi.NoteOnEvent(tick=0, channel=0, data=[58, 56]),
   midi.NoteOnEvent(tick=120, channel=0, data=[58, 0]),
   midi.NoteOnEvent(tick=0, channel=0, data=[70, 57]),
   midi.NoteOnEvent(tick=360, channel=0, data=[70, 0]),
   midi.NoteOnEvent(tick=0, channel=0, data=[58, 55]),
   midi.NoteOnEvent(tick=120, channel=0, data=[58, 0]),
   midi.NoteOnEvent(tick=0, channel=0, data=[67, 58]),
   midi.NoteOnEvent(tick=480, channel=0, data=[67, 0]),
   midi.NoteOnEvent(tick=240, channel=0, data=[70, 63]),
   midi.NoteOnEvent(tick=120, channel=0, data=[70, 0]),
   midi.NoteOnEvent(tick=120, channel=0, data=[75, 67]),
   midi.NoteOnEvent(tick=360, channel=0, data=[75, 0]),
   midi.NoteOnEvent(tick=0, channel=0, data=[77, 69]),
   midi.NoteOnEvent(tick=120, channel=0, data=[77, 0]),
   midi.NoteOnEvent(tick=0, channel=0, data=[79, 72]),
   midi.NoteOnEvent(tick=360, channel=0, data=[79, 0]),
   midi.NoteOnEvent(tick=0, channel=0, data=[70, 63]),
   midi.NoteOnEvent(tick=60, channel=0, data=[70, 0]),
   midi.NoteOnEvent(tick=60, channel=0, data=[72, 66]),
   midi.NoteOnEvent(tick=360, channel=0, data=[72, 0]),
   midi.NoteOnEvent(tick=0, channel=0, data=[74, 68]),
   midi.NoteOnEvent(tick=120, channel=0, data=[74, 0]),
   midi.NoteOnEvent(tick=0, channel=0, data=[75, 71]),
   midi.NoteOnEvent(tick=360, channel=0, data=[75, 0]),
   midi.NoteOnEvent(tick=0, channel=0, data=[67, 63]),
   midi.NoteOnEvent(tick=60, channel=0, data=[67, 0]),
   midi.NoteOnEvent(tick=60, channel=0, data=[68, 65]),
   midi.NoteOnEvent(tick=360, channel=0, data=[68, 0]),
   midi.NoteOnEvent(tick=0, channel=0, data=[70, 67]),
   midi.NoteOnEvent(tick=120, channel=0, data=[70, 0]),
   midi.NoteOnEvent(tick=0, channel=0, data=[72, 70]),
   midi.NoteOnEvent(tick=360, channel=0, data=[72, 0]),
   midi.NoteOnEvent(tick=0, channel=0, data=[68, 63]),
   midi.NoteOnEvent(tick=60, channel=0, data=[68, 0]),
   midi.NoteOnEvent(tick=60, channel=0, data=[67, 61]),
   midi.NoteOnEvent(tick=480, channel=0, data=[67, 0]),
   midi.NoteOnEvent(tick=240, channel=0, data=[70, 63]),
   midi.NoteOnEvent(tick=120, channel=0, data=[70, 0]),
   midi.NoteOnEvent(tick=120, channel=0, data=[75, 65]),
   midi.NoteOnEvent(tick=360, channel=0, data=[75, 0]),
   midi.NoteOnEvent(tick=0, channel=0, data=[77, 67]),
   midi.NoteOnEvent(tick=120, channel=0, data=[77, 0]),
   midi.NoteOnEvent(tick=0, channel=0, data=[79, 70]),
   midi.NoteOnEvent(tick=360, channel=0, data=[79, 0]),
   midi.NoteOnEvent(tick=0, channel=0, data=[71, 63]),
   midi.NoteOnEvent(tick=60, channel=0, data=[71, 0]),
   midi.NoteOnEvent(tick=60, channel=0, data=[72, 66]),
   midi.NoteOnEvent(tick=360, channel=0, data=[72, 0]),
   midi.NoteOnEvent(tick=0, channel=0, data=[74, 67]),
   midi.NoteOnEvent(tick=120, channel=0, data=[74, 0]),
   midi.NoteOnEvent(tick=0, channel=0, data=[75, 71]),
   midi.NoteOnEvent(tick=360, channel=0, data=[75, 0]),
   midi.NoteOnEvent(tick=0, channel=0, data=[67, 61]),
   midi.NoteOnEvent(tick=60, channel=0, data=[67, 0]),
   midi.NoteOnEvent(tick=60, channel=0, data=[68, 63]),
   midi.NoteOnEvent(tick=360, channel=0, data=[68, 0]),
   midi.NoteOnEvent(tick=0, channel=0, data=[70, 64]),
   midi.NoteOnEvent(tick=120, channel=0, data=[70, 0]),
   midi.NoteOnEvent(tick=0, channel=0, data=[72, 68]),
   midi.NoteOnEvent(tick=360, channel=0, data=[72, 0]),
   midi.NoteOnEvent(tick=0, channel=0, data=[68, 61]),
   midi.NoteOnEvent(tick=60, channel=0, data=[68, 0]),
   midi.NoteOnEvent(tick=60, channel=0, data=[67, 57]),
   midi.NoteOnEvent(tick=480, channel=0, data=[67, 0]),
   midi.NoteOnEvent(tick=240, channel=0, data=[67, 49]),
   midi.NoteOnEvent(tick=240, channel=0, data=[67, 0]),
   midi.NoteOnEvent(tick=0, channel=0, data=[70, 53]),
   midi.NoteOnEvent(tick=240, channel=0, data=[70, 0]),
   midi.NoteOnEvent(tick=0, channel=0, data=[69, 49]),
   midi.NoteOnEvent(tick=240, channel=0, data=[69, 0]),
   midi.NoteOnEvent(tick=240, channel=0, data=[69, 54]),
   midi.NoteOnEvent(tick=240, channel=0, data=[69, 0]),
   midi.NoteOnEvent(tick=0, channel=0, data=[72, 58]),
   midi.NoteOnEvent(tick=240, channel=0, data=[72, 0]),
   midi.NoteOnEvent(tick=0, channel=0, data=[70, 55]),
   midi.NoteOnEvent(tick=240, channel=0, data=[70, 0]),
   midi.NoteOnEvent(tick=240, channel=0, data=[71, 61]),
   midi.NoteOnEvent(tick=240, channel=0, data=[71, 0]),
   midi.NoteOnEvent(tick=0, channel=0, data=[74, 66]),
   midi.NoteOnEvent(tick=240, channel=0, data=[74, 0]),
   midi.NoteOnEvent(tick=0, channel=0, data=[72, 60]),
   midi.NoteOnEvent(tick=120, channel=0, data=[72, 0]),
   midi.NoteOnEvent(tick=120, channel=0, data=[75, 71]),
   midi.NoteOnEvent(tick=240, channel=0, data=[75, 0]),
   midi.NoteOnEvent(tick=0, channel=0, data=[74, 62]),
   midi.NoteOnEvent(tick=120, channel=0, data=[74, 0]),
   midi.NoteOnEvent(tick=120, channel=0, data=[77, 74]),
   midi.NoteOnEvent(tick=240, channel=0, data=[77, 0]),
   midi.NoteOnEvent(tick=0, channel=0, data=[75, 63]),
   midi.NoteOnEvent(tick=120, channel=0, data=[75, 0]),
   midi.NoteOnEvent(tick=120, channel=0, data=[77, 79]),
   midi.NoteOnEvent(tick=240, channel=0, data=[77, 0]),
   midi.NoteOnEvent(tick=0, channel=0, data=[76, 69]),
   midi.NoteOnEvent(tick=120, channel=0, data=[76, 0]),
   midi.NoteOnEvent(tick=120, channel=0, data=[79, 86]),
   midi.NoteOnEvent(tick=240, channel=0, data=[79, 0]),
   midi.NoteOnEvent(tick=0, channel=0, data=[77, 74]),
   midi.NoteOnEvent(tick=120, channel=0, data=[77, 0]),
   midi.NoteOnEvent(tick=120, channel=0, data=[80, 91]),
   midi.NoteOnEvent(tick=240, channel=0, data=[80, 0]),
   midi.NoteOnEvent(tick=0, channel=0, data=[79, 83]),
   midi.NoteOnEvent(tick=120, channel=0, data=[79, 0]),
   midi.NoteOnEvent(tick=120, channel=0, data=[82, 99]),
   midi.NoteOnEvent(tick=240, channel=0, data=[82, 0]),
   midi.NoteOnEvent(tick=0, channel=0, data=[80, 83]),
   midi.NoteOnEvent(tick=120, channel=0, data=[80, 0]),
   midi.NoteOnEvent(tick=1320, channel=0, data=[77, 49]),
   midi.NoteOnEvent(tick=240, channel=0, data=[77, 0]),
   midi.NoteOnEvent(tick=0, channel=0, data=[79, 52]),
   midi.NoteOnEvent(tick=360, channel=0, data=[79, 0]),
   midi.NoteOnEvent(tick=0, channel=0, data=[75, 49]),
   midi.NoteOnEvent(tick=120, channel=0, data=[75, 0]),
   midi.NoteOnEvent(tick=0, channel=0, data=[72, 53]),
   midi.NoteOnEvent(tick=360, channel=0, data=[72, 0]),
   midi.NoteOnEvent(tick=0, channel=0, data=[77, 49]),
   midi.NoteOnEvent(tick=120, channel=0, data=[77, 0]),
   midi.NoteOnEvent(tick=0, channel=0, data=[75, 53]),
   midi.NoteOnEvent(tick=480, channel=0, data=[75, 0]),
   midi.NoteOnEvent(tick=0, channel=0, data=[74, 49]),
   midi.NoteOnEvent(tick=480, channel=0, data=[74, 0]),
   midi.NoteOnEvent(tick=0, channel=0, data=[82, 97]),
   midi.NoteOnEvent(tick=240, channel=0, data=[82, 0]),
   midi.NoteOnEvent(tick=0, channel=0, data=[80, 87]),
   midi.NoteOnEvent(tick=240, channel=0, data=[80, 0]),
   midi.NoteOnEvent(tick=1200, channel=0, data=[77, 48]),
   midi.NoteOnEvent(tick=240, channel=0, data=[77, 0]),
   midi.NoteOnEvent(tick=0, channel=0, data=[79, 51]),
   midi.NoteOnEvent(tick=360, channel=0, data=[79, 0]),
   midi.NoteOnEvent(tick=0, channel=0, data=[75, 48]),
   midi.NoteOnEvent(tick=120, channel=0, data=[75, 0]),
   midi.NoteOnEvent(tick=0, channel=0, data=[72, 51]),
   midi.NoteOnEvent(tick=360, channel=0, data=[72, 0]),
   midi.NoteOnEvent(tick=0, channel=0, data=[77, 48]),
   midi.NoteOnEvent(tick=120, channel=0, data=[77, 0]),
   midi.NoteOnEvent(tick=0, channel=0, data=[75, 51]),
   midi.NoteOnEvent(tick=480, channel=0, data=[75, 0]),
   midi.NoteOnEvent(tick=0, channel=0, data=[74, 48]),
   midi.NoteOnEvent(tick=480, channel=0, data=[74, 0]),
   midi.NoteOnEvent(tick=0, channel=0, data=[67, 69]),
   midi.NoteOnEvent(tick=120, channel=0, data=[67, 0]),
   midi.NoteOnEvent(tick=0, channel=0, data=[79, 74]),
   midi.NoteOnEvent(tick=600, channel=0, data=[79, 0]),
   midi.NoteOnEvent(tick=0, channel=0, data=[75, 56]),
   midi.NoteOnEvent(tick=240, channel=0, data=[75, 0]),
   midi.NoteOnEvent(tick=0, channel=0, data=[72, 51]),
   midi.NoteOnEvent(tick=240, channel=0, data=[72, 0]),
   midi.NoteOnEvent(tick=240, channel=0, data=[72, 47]),
   midi.NoteOnEvent(tick=240, channel=0, data=[72, 0]),
   midi.NoteOnEvent(tick=240, channel=0, data=[77, 55]),
   midi.NoteOnEvent(tick=480, channel=0, data=[77, 0]),
   midi.NoteOnEvent(tick=0, channel=0, data=[80, 56]),
   midi.NoteOnEvent(tick=480, channel=0, data=[80, 0]),
   midi.NoteOnEvent(tick=0, channel=0, data=[71, 46]),
   midi.NoteOnEvent(tick=240, channel=0, data=[71, 0]),
   midi.NoteOnEvent(tick=480, channel=0, data=[71, 46]),
   midi.NoteOnEvent(tick=240, channel=0, data=[71, 0]),
   midi.NoteOnEvent(tick=0, channel=0, data=[74, 52]),
   midi.NoteOnEvent(tick=240, channel=0, data=[74, 0]),
   midi.NoteOnEvent(tick=0, channel=0, data=[72, 49]),
   midi.NoteOnEvent(tick=240, channel=0, data=[72, 0]),
   midi.NoteOnEvent(tick=0, channel=0, data=[75, 55]),
   midi.NoteOnEvent(tick=240, channel=0, data=[75, 0]),
   midi.NoteOnEvent(tick=0, channel=0, data=[74, 50]),
   midi.NoteOnEvent(tick=240, channel=0, data=[74, 0]),
   midi.NoteOnEvent(tick=0, channel=0, data=[77, 58]),
   midi.NoteOnEvent(tick=240, channel=0, data=[77, 0]),
   midi.NoteOnEvent(tick=0, channel=0, data=[75, 53]),
   midi.NoteOnEvent(tick=240, channel=0, data=[75, 0]),
   midi.NoteOnEvent(tick=240, channel=0, data=[71, 46]),
   midi.NoteOnEvent(tick=240, channel=0, data=[71, 0]),
   midi.NoteOnEvent(tick=0, channel=0, data=[74, 50]),
   midi.NoteOnEvent(tick=240, channel=0, data=[74, 0]),
   midi.NoteOnEvent(tick=0, channel=0, data=[72, 48]),
   midi.NoteOnEvent(tick=240, channel=0, data=[72, 0]),
   midi.NoteOnEvent(tick=0, channel=0, data=[75, 55]),
   midi.NoteOnEvent(tick=240, channel=0, data=[75, 0]),
   midi.NoteOnEvent(tick=0, channel=0, data=[74, 51]),
   midi.NoteOnEvent(tick=240, channel=0, data=[74, 0]),
   midi.NoteOnEvent(tick=0, channel=0, data=[77, 58]),
   midi.NoteOnEvent(tick=240, channel=0, data=[77, 0]),
   midi.NoteOnEvent(tick=0, channel=0, data=[75, 51]),
   midi.NoteOnEvent(tick=240, channel=0, data=[75, 0]),
   midi.NoteOnEvent(tick=0, channel=0, data=[77, 62]),
   midi.NoteOnEvent(tick=240, channel=0, data=[77, 0]),
   midi.NoteOnEvent(tick=0, channel=0, data=[76, 56]),
   midi.NoteOnEvent(tick=240, channel=0, data=[76, 0]),
   midi.NoteOnEvent(tick=0, channel=0, data=[77, 75]),
   midi.NoteOnEvent(tick=720, channel=0, data=[77, 0]),
   midi.NoteOnEvent(tick=0, channel=0, data=[74, 44]),
   midi.NoteOnEvent(tick=240, channel=0, data=[74, 0]),
   midi.NoteOnEvent(tick=0, channel=0, data=[70, 48]),
   midi.NoteOnEvent(tick=240, channel=0, data=[70, 0]),
   midi.NoteOnEvent(tick=240, channel=0, data=[70, 48]),
   midi.NoteOnEvent(tick=240, channel=0, data=[70, 0]),
   midi.NoteOnEvent(tick=240, channel=0, data=[75, 52]),
   midi.NoteOnEvent(tick=480, channel=0, data=[75, 0]),
   midi.NoteOnEvent(tick=0, channel=0, data=[78, 49]),
   midi.NoteOnEvent(tick=480, channel=0, data=[78, 0]),
   midi.NoteOnEvent(tick=0, channel=0, data=[69, 52]),
   midi.NoteOnEvent(tick=240, channel=0, data=[69, 0]),
   midi.NoteOnEvent(tick=480, channel=0, data=[69, 44]),
   midi.NoteOnEvent(tick=240, channel=0, data=[69, 0]),
   midi.NoteOnEvent(tick=0, channel=0, data=[72, 49]),
   midi.NoteOnEvent(tick=240, channel=0, data=[72, 0]),
   midi.NoteOnEvent(tick=0, channel=0, data=[70, 47]),
   midi.NoteOnEvent(tick=240, channel=0, data=[70, 0]),
   midi.NoteOnEvent(tick=0, channel=0, data=[73, 51]),
   midi.NoteOnEvent(tick=240, channel=0, data=[73, 0]),
   midi.NoteOnEvent(tick=0, channel=0, data=[72, 47]),
   midi.NoteOnEvent(tick=240, channel=0, data=[72, 0]),
   midi.NoteOnEvent(tick=0, channel=0, data=[75, 54]),
   midi.NoteOnEvent(tick=240, channel=0, data=[75, 0]),
   midi.NoteOnEvent(tick=0, channel=0, data=[73, 51]),
   midi.NoteOnEvent(tick=240, channel=0, data=[73, 0]),
   midi.NoteOnEvent(tick=240, channel=0, data=[69, 45]),
   midi.NoteOnEvent(tick=240, channel=0, data=[69, 0]),
   midi.NoteOnEvent(tick=0, channel=0, data=[72, 50]),
   midi.NoteOnEvent(tick=240, channel=0, data=[72, 0]),
   midi.NoteOnEvent(tick=0, channel=0, data=[70, 45]),
   midi.NoteOnEvent(tick=240, channel=0, data=[70, 0]),
   midi.NoteOnEvent(tick=0, channel=0, data=[73, 52]),
   midi.NoteOnEvent(tick=240, channel=0, data=[73, 0]),
   midi.NoteOnEvent(tick=0, channel=0, data=[72, 48]),
   midi.NoteOnEvent(tick=240, channel=0, data=[72, 0]),
   midi.NoteOnEvent(tick=0, channel=0, data=[75, 55]),
   midi.NoteOnEvent(tick=240, channel=0, data=[75, 0]),
   midi.NoteOnEvent(tick=0, channel=0, data=[73, 50]),
   midi.NoteOnEvent(tick=240, channel=0, data=[73, 0]),
   midi.NoteOnEvent(tick=240, channel=0, data=[73, 51]),
   midi.NoteOnEvent(tick=120, channel=0, data=[73, 0]),
   midi.NoteOnEvent(tick=120, channel=0, data=[73, 55]),
   midi.NoteOnEvent(tick=240, channel=0, data=[73, 0]),
   midi.NoteOnEvent(tick=0, channel=0, data=[71, 52]),
   midi.NoteOnEvent(tick=240, channel=0, data=[71, 0]),
   midi.NoteOnEvent(tick=240, channel=0, data=[71, 48]),
   midi.NoteOnEvent(tick=228, channel=0, data=[71, 0]),
   midi.NoteOnEvent(tick=12, channel=0, data=[71, 53]),
   midi.NoteOnEvent(tick=240, channel=0, data=[71, 0]),
   midi.NoteOnEvent(tick=0, channel=0, data=[70, 49]),
   midi.NoteOnEvent(tick=240, channel=0, data=[70, 0]),
   midi.NoteOnEvent(tick=240, channel=0, data=[70, 52]),
   midi.NoteOnEvent(tick=228, channel=0, data=[70, 0]),
   midi.NoteOnEvent(tick=12, channel=0, data=[70, 71]),
   midi.NoteOnEvent(tick=240, channel=0, data=[70, 0]),
   midi.NoteOnEvent(tick=0, channel=0, data=[80, 73]),
   midi.NoteOnEvent(tick=240, channel=0, data=[80, 0]),
   midi.NoteOnEvent(tick=240, channel=0, data=[80, 74]),
   midi.NoteOnEvent(tick=228, channel=0, data=[80, 0]),
   midi.NoteOnEvent(tick=12, channel=0, data=[80, 78]),
   midi.NoteOnEvent(tick=240, channel=0, data=[80, 0]),
   midi.NoteOnEvent(tick=0, channel=0, data=[78, 75]),
   midi.NoteOnEvent(tick=240, channel=0, data=[78, 0]),
   midi.NoteOnEvent(tick=240, channel=0, data=[78, 76]),
   midi.NoteOnEvent(tick=228, channel=0, data=[78, 0]),
   midi.NoteOnEvent(tick=12, channel=0, data=[78, 81]),
   midi.NoteOnEvent(tick=240, channel=0, data=[78, 0]),
   midi.NoteOnEvent(tick=0, channel=0, data=[77, 78]),
   midi.NoteOnEvent(tick=240, channel=0, data=[77, 0]),
   midi.NoteOnEvent(tick=240, channel=0, data=[77, 84]),
   midi.NoteOnEvent(tick=228, channel=0, data=[77, 0]),
   midi.NoteOnEvent(tick=12, channel=0, data=[77, 89]),
   midi.NoteOnEvent(tick=240, channel=0, data=[77, 0]),
   midi.NoteOnEvent(tick=0, channel=0, data=[76, 84]),
   midi.NoteOnEvent(tick=240, channel=0, data=[76, 0]),
   midi.NoteOnEvent(tick=240, channel=0, data=[76, 91]),
   midi.NoteOnEvent(tick=240, channel=0, data=[76, 0]),
   midi.NoteOnEvent(tick=0, channel=0, data=[82, 93]),
   midi.NoteOnEvent(tick=240, channel=0, data=[82, 0]),
   midi.NoteOnEvent(tick=0, channel=0, data=[84, 76]),
   midi.NoteOnEvent(tick=80, channel=0, data=[84, 0]),
   midi.NoteOnEvent(tick=0, channel=0, data=[82, 78]),
   midi.NoteOnEvent(tick=80, channel=0, data=[82, 0]),
   midi.NoteOnEvent(tick=0, channel=0, data=[81, 80]),
   midi.NoteOnEvent(tick=80, channel=0, data=[81, 0]),
   midi.NoteOnEvent(tick=0, channel=0, data=[82, 79]),
   midi.NoteOnEvent(tick=240, channel=0, data=[82, 0]),
   midi.NoteOnEvent(tick=0, channel=0, data=[84, 86]),
   midi.NoteOnEvent(tick=240, channel=0, data=[84, 0]),
   midi.NoteOnEvent(tick=0, channel=0, data=[85, 92]),
   midi.NoteOnEvent(tick=480, channel=0, data=[85, 0]),
   midi.NoteOnEvent(tick=0, channel=0, data=[76, 89]),
   midi.NoteOnEvent(tick=480, channel=0, data=[76, 0]),
   midi.NoteOnEvent(tick=0, channel=0, data=[77, 91]),
   midi.NoteOnEvent(tick=240, channel=0, data=[77, 0]),
   midi.NoteOnEvent(tick=0, channel=0, data=[76, 79]),
   midi.NoteOnEvent(tick=240, channel=0, data=[76, 0]),
   midi.NoteOnEvent(tick=0, channel=0, data=[77, 85]),
   midi.NoteOnEvent(tick=240, channel=0, data=[77, 0]),
   midi.NoteOnEvent(tick=0, channel=0, data=[72, 74]),
   midi.NoteOnEvent(tick=240, channel=0, data=[72, 0]),
   midi.NoteOnEvent(tick=0, channel=0, data=[75, 78]),
   midi.NoteOnEvent(tick=240, channel=0, data=[75, 0]),
   midi.NoteOnEvent(tick=0, channel=0, data=[73, 70]),
   midi.NoteOnEvent(tick=240, channel=0, data=[73, 0]),
   midi.NoteOnEvent(tick=0, channel=0, data=[72, 68]),
   midi.NoteOnEvent(tick=240, channel=0, data=[72, 0]),
   midi.NoteOnEvent(tick=0, channel=0, data=[70, 64]),
   midi.NoteOnEvent(tick=240, channel=0, data=[70, 0]),
   midi.NoteOnEvent(tick=0, channel=0, data=[78, 76]),
   midi.NoteOnEvent(tick=240, channel=0, data=[78, 0]),
   midi.NoteOnEvent(tick=0, channel=0, data=[77, 71]),
   midi.NoteOnEvent(tick=240, channel=0, data=[77, 0]),
   midi.NoteOnEvent(tick=0, channel=0, data=[76, 71]),
   midi.NoteOnEvent(tick=240, channel=0, data=[76, 0]),
   midi.NoteOnEvent(tick=0, channel=0, data=[77, 61]),
   midi.NoteOnEvent(tick=240, channel=0, data=[77, 0]),
   midi.NoteOnEvent(tick=0, channel=0, data=[75, 66]),
   midi.NoteOnEvent(tick=240, channel=0, data=[75, 0]),
   midi.NoteOnEvent(tick=0, channel=0, data=[73, 60]),
   midi.NoteOnEvent(tick=240, channel=0, data=[73, 0]),
   midi.NoteOnEvent(tick=0, channel=0, data=[72, 56]),
   midi.NoteOnEvent(tick=240, channel=0, data=[72, 0]),
   midi.NoteOnEvent(tick=0, channel=0, data=[70, 53]),
   midi.NoteOnEvent(tick=240, channel=0, data=[70, 0]),
   midi.NoteOnEvent(tick=0, channel=0, data=[69, 50]),
   midi.NoteOnEvent(tick=0, channel=0, data=[72, 50]),
   midi.NoteOnEvent(tick=480, channel=0, data=[72, 0]),
   midi.NoteOnEvent(tick=0, channel=0, data=[69, 0]),
   midi.NoteOnEvent(tick=0, channel=0, data=[70, 62]),
   midi.NoteOnEvent(tick=0, channel=0, data=[73, 62]),
   midi.NoteOnEvent(tick=480, channel=0, data=[73, 0]),
   midi.NoteOnEvent(tick=0, channel=0, data=[70, 0]),
   midi.NoteOnEvent(tick=0, channel=0, data=[72, 57]),
   midi.NoteOnEvent(tick=0, channel=0, data=[69, 57]),
   midi.NoteOnEvent(tick=480, channel=0, data=[69, 0]),
   midi.NoteOnEvent(tick=0, channel=0, data=[72, 0]),
   midi.NoteOnEvent(tick=0, channel=0, data=[70, 62]),
   midi.NoteOnEvent(tick=0, channel=0, data=[76, 62]),
   midi.NoteOnEvent(tick=480, channel=0, data=[76, 0]),
   midi.NoteOnEvent(tick=0, channel=0, data=[70, 0]),
   midi.NoteOnEvent(tick=0, channel=0, data=[77, 65]),
   midi.NoteOnEvent(tick=0, channel=0, data=[69, 65]),
   midi.NoteOnEvent(tick=480, channel=0, data=[69, 0]),
   midi.NoteOnEvent(tick=0, channel=0, data=[77, 0]),
   midi.NoteOnEvent(tick=0, channel=0, data=[73, 62]),
   midi.NoteOnEvent(tick=0, channel=0, data=[70, 62]),
   midi.NoteOnEvent(tick=480, channel=0, data=[70, 0]),
   midi.NoteOnEvent(tick=0, channel=0, data=[73, 0]),
   midi.NoteOnEvent(tick=0, channel=0, data=[72, 57]),
   midi.NoteOnEvent(tick=0, channel=0, data=[69, 57]),
   midi.NoteOnEvent(tick=480, channel=0, data=[69, 0]),
   midi.NoteOnEvent(tick=0, channel=0, data=[72, 0]),
   midi.NoteOnEvent(tick=0, channel=0, data=[70, 62]),
   midi.NoteOnEvent(tick=0, channel=0, data=[76, 62]),
   midi.NoteOnEvent(tick=480, channel=0, data=[76, 0]),
   midi.NoteOnEvent(tick=0, channel=0, data=[70, 0]),
   midi.NoteOnEvent(tick=0, channel=0, data=[77, 68]),
   midi.NoteOnEvent(tick=0, channel=0, data=[69, 68]),
   midi.NoteOnEvent(tick=228, channel=0, data=[69, 0]),
   midi.NoteOnEvent(tick=0, channel=0, data=[77, 0]),
   midi.NoteOnEvent(tick=12, channel=0, data=[77, 68]),
   midi.NoteOnEvent(tick=240, channel=0, data=[77, 0]),
   midi.NoteOnEvent(tick=240, channel=0, data=[77, 60]),
   midi.NoteOnEvent(tick=228, channel=0, data=[77, 0]),
   midi.NoteOnEvent(tick=12, channel=0, data=[77, 64]),
   midi.NoteOnEvent(tick=228, channel=0, data=[77, 0]),
   midi.NoteOnEvent(tick=12, channel=0, data=[77, 60]),
   midi.NoteOnEvent(tick=240, channel=0, data=[77, 0]),
   midi.NoteOnEvent(tick=240, channel=0, data=[77, 60]),
   midi.NoteOnEvent(tick=228, channel=0, data=[77, 0]),
   midi.NoteOnEvent(tick=12, channel=0, data=[77, 63]),
   midi.NoteOnEvent(tick=228, channel=0, data=[77, 0]),
   midi.NoteOnEvent(tick=12, channel=0, data=[77, 60]),
   midi.NoteOnEvent(tick=240, channel=0, data=[77, 0]),
   midi.NoteOnEvent(tick=240, channel=0, data=[77, 64]),
   midi.NoteOnEvent(tick=228, channel=0, data=[77, 0]),
   midi.NoteOnEvent(tick=12, channel=0, data=[77, 67]),
   midi.NoteOnEvent(tick=228, channel=0, data=[77, 0]),
   midi.NoteOnEvent(tick=12, channel=0, data=[77, 64]),
   midi.NoteOnEvent(tick=240, channel=0, data=[77, 0]),
   midi.NoteOnEvent(tick=240, channel=0, data=[77, 69]),
   midi.NoteOnEvent(tick=228, channel=0, data=[77, 0]),
   midi.NoteOnEvent(tick=12, channel=0, data=[77, 72]),
   midi.NoteOnEvent(tick=228, channel=0, data=[77, 0]),
   midi.NoteOnEvent(tick=12, channel=0, data=[77, 74]),
   midi.NoteOnEvent(tick=240, channel=0, data=[77, 0]),
   midi.NoteOnEvent(tick=240, channel=0, data=[77, 79]),
   midi.NoteOnEvent(tick=228, channel=0, data=[77, 0]),
   midi.NoteOnEvent(tick=12, channel=0, data=[77, 82]),
   midi.NoteOnEvent(tick=228, channel=0, data=[77, 0]),
   midi.NoteOnEvent(tick=12, channel=0, data=[77, 84]),
   midi.NoteOnEvent(tick=240, channel=0, data=[77, 0]),
   midi.NoteOnEvent(tick=240, channel=0, data=[77, 86]),
   midi.NoteOnEvent(tick=228, channel=0, data=[77, 0]),
   midi.NoteOnEvent(tick=12, channel=0, data=[77, 86]),
   midi.NoteOnEvent(tick=120, channel=0, data=[77, 0]),
   midi.NoteOnEvent(tick=120, channel=0, data=[65, 67]),
   midi.NoteOnEvent(tick=240, channel=0, data=[65, 0]),
   midi.NoteOnEvent(tick=0, channel=0, data=[64, 66]),
   midi.NoteOnEvent(tick=240, channel=0, data=[64, 0]),
   midi.NoteOnEvent(tick=0, channel=0, data=[65, 65]),
   midi.NoteOnEvent(tick=240, channel=0, data=[65, 0]),
   midi.NoteOnEvent(tick=0, channel=0, data=[66, 64]),
   midi.NoteOnEvent(tick=240, channel=0, data=[66, 0]),
   midi.NoteOnEvent(tick=0, channel=0, data=[67, 63]),
   midi.NoteOnEvent(tick=240, channel=0, data=[67, 0]),
   midi.NoteOnEvent(tick=0, channel=0, data=[68, 62]),
   midi.NoteOnEvent(tick=240, channel=0, data=[68, 0]),
   midi.NoteOnEvent(tick=0, channel=0, data=[69, 61]),
   midi.NoteOnEvent(tick=240, channel=0, data=[69, 0]),
   midi.NoteOnEvent(tick=0, channel=0, data=[70, 60]),
   midi.NoteOnEvent(tick=240, channel=0, data=[70, 0]),
   midi.NoteOnEvent(tick=0, channel=0, data=[71, 59]),
   midi.NoteOnEvent(tick=240, channel=0, data=[71, 0]),
   midi.NoteOnEvent(tick=0, channel=0, data=[72, 58]),
   midi.NoteOnEvent(tick=240, channel=0, data=[72, 0]),
   midi.NoteOnEvent(tick=0, channel=0, data=[73, 57]),
   midi.NoteOnEvent(tick=240, channel=0, data=[73, 0]),
   midi.NoteOnEvent(tick=0, channel=0, data=[74, 56]),
   midi.NoteOnEvent(tick=240, channel=0, data=[74, 0]),
   midi.NoteOnEvent(tick=0, channel=0, data=[75, 55]),
   midi.NoteOnEvent(tick=240, channel=0, data=[75, 0]),
   midi.NoteOnEvent(tick=0, channel=0, data=[76, 54]),
   midi.NoteOnEvent(tick=240, channel=0, data=[76, 0]),
   midi.NoteOnEvent(tick=0, channel=0, data=[77, 52]),
   midi.NoteOnEvent(tick=230, channel=0, data=[77, 0]),
   midi.ControlChangeEvent(tick=10, channel=0, data=[91, 127]),
   midi.NoteOnEvent(tick=1, channel=0, data=[77, 66]),
   midi.NoteOnEvent(tick=719, channel=0, data=[74, 53]),
   midi.NoteOnEvent(tick=1, channel=0, data=[77, 0]),
   midi.NoteOnEvent(tick=239, channel=0, data=[74, 0]),
   midi.NoteOnEvent(tick=0, channel=0, data=[70, 55]),
   midi.NoteOnEvent(tick=120, channel=0, data=[70, 0]),
   midi.NoteOnEvent(tick=360, channel=0, data=[70, 55]),
   midi.NoteOnEvent(tick=120, channel=0, data=[70, 0]),
   midi.NoteOnEvent(tick=360, channel=0, data=[75, 60]),
   midi.NoteOnEvent(tick=480, channel=0, data=[75, 0]),
   midi.NoteOnEvent(tick=0, channel=0, data=[79, 55]),
   midi.NoteOnEvent(tick=120, channel=0, data=[79, 0]),
   midi.NoteOnEvent(tick=360, channel=0, data=[69, 57]),
   midi.NoteOnEvent(tick=480, channel=0, data=[69, 0]),
   midi.NoteOnEvent(tick=480, channel=0, data=[72, 55]),
   midi.NoteOnEvent(tick=240, channel=0, data=[72, 0]),
   midi.NoteOnEvent(tick=0, channel=0, data=[70, 53]),
   midi.NoteOnEvent(tick=120, channel=0, data=[70, 0]),
   midi.NoteOnEvent(tick=120, channel=0, data=[74, 57]),
   midi.NoteOnEvent(tick=240, channel=0, data=[74, 0]),
   midi.NoteOnEvent(tick=0, channel=0, data=[72, 54]),
   midi.NoteOnEvent(tick=120, channel=0, data=[72, 0]),
   midi.NoteOnEvent(tick=120, channel=0, data=[75, 58]),
   midi.NoteOnEvent(tick=240, channel=0, data=[75, 0]),
   midi.NoteOnEvent(tick=0, channel=0, data=[74, 56]),
   midi.NoteOnEvent(tick=120, channel=0, data=[74, 0]),
   midi.NoteOnEvent(tick=120, channel=0, data=[77, 60]),
   midi.NoteOnEvent(tick=240, channel=0, data=[77, 0]),
   midi.NoteOnEvent(tick=0, channel=0, data=[75, 57]),
   midi.NoteOnEvent(tick=120, channel=0, data=[75, 0]),
   midi.NoteOnEvent(tick=120, channel=0, data=[74, 60]),
   midi.NoteOnEvent(tick=720, channel=0, data=[74, 0]),
   midi.NoteOnEvent(tick=0, channel=0, data=[75, 57]),
   midi.NoteOnEvent(tick=120, channel=0, data=[75, 0]),
   midi.NoteOnEvent(tick=0, channel=0, data=[74, 55]),
   midi.NoteOnEvent(tick=120, channel=0, data=[74, 0]),
   midi.NoteOnEvent(tick=0, channel=0, data=[72, 52]),
   midi.NoteOnEvent(tick=240, channel=0, data=[72, 0]),
   midi.NoteOnEvent(tick=0, channel=0, data=[74, 54]),
   midi.NoteOnEvent(tick=240, channel=0, data=[74, 0]),
   midi.NoteOnEvent(tick=0, channel=0, data=[75, 55]),
   midi.NoteOnEvent(tick=240, channel=0, data=[75, 0]),
   midi.NoteOnEvent(tick=0, channel=0, data=[76, 57]),
   midi.NoteOnEvent(tick=240, channel=0, data=[76, 0]),
   midi.NoteOnEvent(tick=0, channel=0, data=[77, 59]),
   midi.NoteOnEvent(tick=720, channel=0, data=[77, 0]),
   midi.NoteOnEvent(tick=0, channel=0, data=[75, 53]),
   midi.NoteOnEvent(tick=80, channel=0, data=[75, 0]),
   midi.NoteOnEvent(tick=0, channel=0, data=[74, 53]),
   midi.NoteOnEvent(tick=80, channel=0, data=[74, 0]),
   midi.NoteOnEvent(tick=0, channel=0, data=[72, 53]),
   midi.NoteOnEvent(tick=80, channel=0, data=[72, 0]),
   midi.NoteOnEvent(tick=0, channel=0, data=[70, 56]),
   midi.NoteOnEvent(tick=120, channel=0, data=[70, 0]),
   midi.NoteOnEvent(tick=360, channel=0, data=[70, 56]),
   midi.NoteOnEvent(tick=120, channel=0, data=[70, 0]),
   midi.NoteOnEvent(tick=360, channel=0, data=[75, 60]),
   midi.NoteOnEvent(tick=480, channel=0, data=[75, 0]),
   midi.NoteOnEvent(tick=0, channel=0, data=[79, 55]),
   midi.NoteOnEvent(tick=120, channel=0, data=[79, 0]),
   midi.NoteOnEvent(tick=360, channel=0, data=[69, 58]),
   midi.NoteOnEvent(tick=480, channel=0, data=[69, 0]),
   midi.NoteOnEvent(tick=240, channel=0, data=[69, 54]),
   midi.NoteOnEvent(tick=240, channel=0, data=[69, 0]),
   midi.NoteOnEvent(tick=0, channel=0, data=[70, 58]),
   midi.NoteOnEvent(tick=240, channel=0, data=[70, 0]),
   midi.NoteOnEvent(tick=0, channel=0, data=[74, 55]),
   midi.NoteOnEvent(tick=120, channel=0, data=[74, 0]),
   midi.NoteOnEvent(tick=120, channel=0, data=[67, 58]),
   midi.NoteOnEvent(tick=240, channel=0, data=[67, 0]),
   midi.NoteOnEvent(tick=0, channel=0, data=[72, 55]),
   midi.NoteOnEvent(tick=120, channel=0, data=[72, 0]),
   midi.NoteOnEvent(tick=120, channel=0, data=[70, 58]),
   midi.NoteOnEvent(tick=480, channel=0, data=[70, 0]),
   midi.NoteOnEvent(tick=0, channel=0, data=[69, 55]),
   midi.NoteOnEvent(tick=480, channel=0, data=[69, 0]),
   midi.NoteOnEvent(tick=0, channel=0, data=[70, 58]),
   midi.NoteOnEvent(tick=240, channel=0, data=[70, 0]),
   midi.NoteOnEvent(tick=0, channel=0, data=[65, 56]),
   midi.NoteOnEvent(tick=120, channel=0, data=[65, 0]),
   midi.NoteOnEvent(tick=120, channel=0, data=[67, 60]),
   midi.NoteOnEvent(tick=120, channel=0, data=[67, 0]),
   midi.NoteOnEvent(tick=120, channel=0, data=[69, 63]),
   midi.NoteOnEvent(tick=120, channel=0, data=[69, 0]),
   midi.NoteOnEvent(tick=120, channel=0, data=[70, 67]),
   midi.NoteOnEvent(tick=120, channel=0, data=[70, 0]),
   midi.NoteOnEvent(tick=120, channel=0, data=[72, 70]),
   midi.NoteOnEvent(tick=120, channel=0, data=[72, 0]),
   midi.NoteOnEvent(tick=120, channel=0, data=[74, 74]),
   midi.NoteOnEvent(tick=120, channel=0, data=[74, 0]),
   midi.NoteOnEvent(tick=120, channel=0, data=[75, 77]),
   midi.NoteOnEvent(tick=120, channel=0, data=[75, 0]),
   midi.ControlChangeEvent(tick=120, channel=0, data=[91, 127]),
   midi.NoteOnEvent(tick=1, channel=0, data=[77, 85]),
   midi.NoteOnEvent(tick=719, channel=0, data=[74, 74]),
   midi.NoteOnEvent(tick=1, channel=0, data=[77, 0]),
   midi.NoteOnEvent(tick=239, channel=0, data=[74, 0]),
   midi.NoteOnEvent(tick=0, channel=0, data=[70, 78]),
   midi.NoteOnEvent(tick=240, channel=0, data=[70, 0]),
   midi.NoteOnEvent(tick=240, channel=0, data=[70, 78]),
   midi.NoteOnEvent(tick=240, channel=0, data=[70, 0]),
   midi.NoteOnEvent(tick=240, channel=0, data=[75, 85]),
   midi.NoteOnEvent(tick=96, channel=0, data=[75, 0]),
   midi.NoteOnEvent(tick=0, channel=0, data=[77, 61]),
   midi.NoteOnEvent(tick=96, channel=0, data=[77, 0]),
   midi.NoteOnEvent(tick=0, channel=0, data=[75, 61]),
   midi.NoteOnEvent(tick=96, channel=0, data=[75, 0]),
   midi.NoteOnEvent(tick=0, channel=0, data=[74, 61]),
   midi.NoteOnEvent(tick=96, channel=0, data=[74, 0]),
   midi.NoteOnEvent(tick=0, channel=0, data=[75, 61]),
   midi.NoteOnEvent(tick=96, channel=0, data=[75, 0]),
   midi.NoteOnEvent(tick=0, channel=0, data=[79, 78]),
   midi.NoteOnEvent(tick=480, channel=0, data=[79, 0]),
   midi.NoteOnEvent(tick=0, channel=0, data=[69, 81]),
   midi.NoteOnEvent(tick=480, channel=0, data=[69, 0]),
   midi.NoteOnEvent(tick=480, channel=0, data=[72, 78]),
   midi.NoteOnEvent(tick=240, channel=0, data=[72, 0]),
   midi.NoteOnEvent(tick=0, channel=0, data=[70, 73]),
   midi.NoteOnEvent(tick=120, channel=0, data=[70, 0]),
   midi.NoteOnEvent(tick=120, channel=0, data=[74, 81]),
   midi.NoteOnEvent(tick=240, channel=0, data=[74, 0]),
   midi.NoteOnEvent(tick=0, channel=0, data=[72, 75]),
   midi.NoteOnEvent(tick=120, channel=0, data=[72, 0]),
   midi.NoteOnEvent(tick=120, channel=0, data=[75, 82]),
   midi.NoteOnEvent(tick=240, channel=0, data=[75, 0]),
   midi.NoteOnEvent(tick=0, channel=0, data=[74, 77]),
   midi.NoteOnEvent(tick=120, channel=0, data=[74, 0]),
   midi.NoteOnEvent(tick=120, channel=0, data=[77, 85]),
   midi.NoteOnEvent(tick=240, channel=0, data=[77, 0]),
   midi.NoteOnEvent(tick=0, channel=0, data=[75, 81]),
   midi.NoteOnEvent(tick=120, channel=0, data=[75, 0]),
   midi.NoteOnEvent(tick=120, channel=0, data=[74, 85]),
   midi.NoteOnEvent(tick=720, channel=0, data=[74, 0]),
   midi.NoteOnEvent(tick=0, channel=0, data=[75, 81]),
   midi.NoteOnEvent(tick=120, channel=0, data=[75, 0]),
   midi.NoteOnEvent(tick=0, channel=0, data=[74, 76]),
   midi.NoteOnEvent(tick=120, channel=0, data=[74, 0]),
   midi.NoteOnEvent(tick=0, channel=0, data=[72, 73]),
   midi.NoteOnEvent(tick=240, channel=0, data=[72, 0]),
   midi.NoteOnEvent(tick=0, channel=0, data=[74, 77]),
   midi.NoteOnEvent(tick=240, channel=0, data=[74, 0]),
   midi.NoteOnEvent(tick=0, channel=0, data=[75, 78]),
   midi.NoteOnEvent(tick=240, channel=0, data=[75, 0]),
   midi.NoteOnEvent(tick=0, channel=0, data=[76, 81]),
   midi.NoteOnEvent(tick=240, channel=0, data=[76, 0]),
   midi.NoteOnEvent(tick=0, channel=0, data=[77, 83]),
   midi.NoteOnEvent(tick=720, channel=0, data=[77, 0]),
   midi.NoteOnEvent(tick=0, channel=0, data=[75, 74]),
   midi.NoteOnEvent(tick=80, channel=0, data=[75, 0]),
   midi.NoteOnEvent(tick=0, channel=0, data=[74, 74]),
   midi.NoteOnEvent(tick=80, channel=0, data=[74, 0]),
   midi.NoteOnEvent(tick=0, channel=0, data=[72, 74]),
   midi.NoteOnEvent(tick=80, channel=0, data=[72, 0]),
   midi.NoteOnEvent(tick=0, channel=0, data=[70, 79]),
   midi.NoteOnEvent(tick=120, channel=0, data=[70, 0]),
   midi.NoteOnEvent(tick=120, channel=0, data=[70, 76]),
   midi.NoteOnEvent(tick=120, channel=0, data=[70, 0]),
   midi.NoteOnEvent(tick=120, channel=0, data=[70, 79]),
   midi.NoteOnEvent(tick=120, channel=0, data=[70, 0]),
   midi.NoteOnEvent(tick=120, channel=0, data=[70, 77]),
   midi.NoteOnEvent(tick=120, channel=0, data=[70, 0]),
   midi.NoteOnEvent(tick=120, channel=0, data=[75, 85]),
   midi.NoteOnEvent(tick=96, channel=0, data=[75, 0]),
   midi.NoteOnEvent(tick=0, channel=0, data=[77, 61]),
   midi.NoteOnEvent(tick=96, channel=0, data=[77, 0]),
   midi.NoteOnEvent(tick=0, channel=0, data=[75, 61]),
   midi.NoteOnEvent(tick=96, channel=0, data=[75, 0]),
   midi.NoteOnEvent(tick=0, channel=0, data=[74, 61]),
   midi.NoteOnEvent(tick=96, channel=0, data=[74, 0]),
   midi.NoteOnEvent(tick=0, channel=0, data=[75, 61]),
   midi.NoteOnEvent(tick=96, channel=0, data=[75, 0]),
   midi.NoteOnEvent(tick=0, channel=0, data=[79, 78]),
   midi.NoteOnEvent(tick=480, channel=0, data=[79, 0]),
   midi.NoteOnEvent(tick=0, channel=0, data=[69, 82]),
   midi.NoteOnEvent(tick=480, channel=0, data=[69, 0]),
   midi.NoteOnEvent(tick=240, channel=0, data=[81, 77]),
   midi.NoteOnEvent(tick=240, channel=0, data=[81, 0]),
   midi.NoteOnEvent(tick=0, channel=0, data=[82, 85]),
   midi.NoteOnEvent(tick=160, channel=0, data=[82, 0]),
   midi.NoteOnEvent(tick=0, channel=0, data=[77, 75]),
   midi.NoteOnEvent(tick=160, channel=0, data=[77, 0]),
   midi.NoteOnEvent(tick=0, channel=0, data=[74, 74]),
   midi.NoteOnEvent(tick=160, channel=0, data=[74, 0]),
   midi.NoteOnEvent(tick=0, channel=0, data=[79, 84]),
   midi.NoteOnEvent(tick=160, channel=0, data=[79, 0]),
   midi.NoteOnEvent(tick=0, channel=0, data=[75, 76]),
   midi.NoteOnEvent(tick=160, channel=0, data=[75, 0]),
   midi.NoteOnEvent(tick=0, channel=0, data=[72, 75]),
   midi.NoteOnEvent(tick=160, channel=0, data=[72, 0]),
   midi.NoteOnEvent(tick=0, channel=0, data=[77, 84]),
   midi.NoteOnEvent(tick=160, channel=0, data=[77, 0]),
   midi.NoteOnEvent(tick=0, channel=0, data=[74, 76]),
   midi.NoteOnEvent(tick=160, channel=0, data=[74, 0]),
   midi.NoteOnEvent(tick=0, channel=0, data=[70, 77]),
   midi.NoteOnEvent(tick=160, channel=0, data=[70, 0]),
   midi.NoteOnEvent(tick=0, channel=0, data=[75, 84]),
   midi.NoteOnEvent(tick=160, channel=0, data=[75, 0]),
   midi.NoteOnEvent(tick=0, channel=0, data=[72, 76]),
   midi.NoteOnEvent(tick=160, channel=0, data=[72, 0]),
   midi.NoteOnEvent(tick=0, channel=0, data=[69, 75]),
   midi.NoteOnEvent(tick=160, channel=0, data=[69, 0]),
   midi.NoteOnEvent(tick=0, channel=0, data=[70, 83]),
   midi.NoteOnEvent(tick=480, channel=0, data=[70, 0]),
   midi.NoteOnEvent(tick=240, channel=0, data=[65, 55]),
   midi.NoteOnEvent(tick=240, channel=0, data=[65, 0]),
   midi.NoteOnEvent(tick=0, channel=0, data=[70, 58]),
   midi.NoteOnEvent(tick=120, channel=0, data=[70, 0]),
   midi.NoteOnEvent(tick=120, channel=0, data=[69, 53]),
   midi.NoteOnEvent(tick=120, channel=0, data=[69, 0]),
   midi.NoteOnEvent(tick=120, channel=0, data=[70, 55]),
   midi.NoteOnEvent(tick=120, channel=0, data=[70, 0]),
   midi.NoteOnEvent(tick=120, channel=0, data=[72, 52]),
   midi.NoteOnEvent(tick=120, channel=0, data=[72, 0]),
   midi.NoteOnEvent(tick=120, channel=0, data=[74, 55]),
   midi.NoteOnEvent(tick=120, channel=0, data=[74, 0]),
   midi.NoteOnEvent(tick=360, channel=0, data=[70, 56]),
   midi.NoteOnEvent(tick=0, channel=0, data=[74, 56]),
   midi.NoteOnEvent(tick=180, channel=0, data=[74, 0]),
   midi.NoteOnEvent(tick=0, channel=0, data=[70, 0]),
   midi.NoteOnEvent(tick=300, channel=0, data=[70, 59]),
   midi.NoteOnEvent(tick=0, channel=0, data=[74, 59]),
   midi.NoteOnEvent(tick=480, channel=0, data=[74, 0]),
   midi.NoteOnEvent(tick=0, channel=0, data=[70, 0]),
   midi.NoteOnEvent(tick=0, channel=0, data=[72, 55]),
   midi.NoteOnEvent(tick=0, channel=0, data=[75, 55]),
   midi.NoteOnEvent(tick=480, channel=0, data=[75, 0]),
   midi.NoteOnEvent(tick=0, channel=0, data=[72, 0]),
   midi.NoteOnEvent(tick=0, channel=0, data=[72, 54]),
   midi.NoteOnEvent(tick=0, channel=0, data=[69, 54]),
   midi.NoteOnEvent(tick=480, channel=0, data=[69, 0]),
   midi.NoteOnEvent(tick=0, channel=0, data=[72, 0]),
   midi.NoteOnEvent(tick=240, channel=0, data=[65, 55]),
   midi.NoteOnEvent(tick=240, channel=0, data=[65, 0]),
   midi.NoteOnEvent(tick=0, channel=0, data=[72, 57]),
   midi.NoteOnEvent(tick=120, channel=0, data=[72, 0]),
   midi.NoteOnEvent(tick=120, channel=0, data=[70, 53]),
   midi.NoteOnEvent(tick=120, channel=0, data=[70, 0]),
   midi.NoteOnEvent(tick=120, channel=0, data=[72, 56]),
   midi.NoteOnEvent(tick=120, channel=0, data=[72, 0]),
   midi.NoteOnEvent(tick=120, channel=0, data=[74, 52]),
   midi.NoteOnEvent(tick=120, channel=0, data=[74, 0]),
   midi.NoteOnEvent(tick=120, channel=0, data=[75, 56]),
   midi.NoteOnEvent(tick=120, channel=0, data=[75, 0]),
   midi.NoteOnEvent(tick=360, channel=0, data=[67, 56]),
   midi.NoteOnEvent(tick=0, channel=0, data=[75, 56]),
   midi.NoteOnEvent(tick=180, channel=0, data=[75, 0]),
   midi.NoteOnEvent(tick=0, channel=0, data=[67, 0]),
   midi.NoteOnEvent(tick=300, channel=0, data=[75, 58]),
   midi.NoteOnEvent(tick=0, channel=0, data=[72, 58]),
   midi.NoteOnEvent(tick=480, channel=0, data=[72, 0]),
   midi.NoteOnEvent(tick=0, channel=0, data=[75, 0]),
   midi.NoteOnEvent(tick=0, channel=0, data=[77, 56]),
   midi.NoteOnEvent(tick=0, channel=0, data=[69, 56]),
   midi.NoteOnEvent(tick=480, channel=0, data=[69, 0]),
   midi.NoteOnEvent(tick=0, channel=0, data=[77, 0]),
   midi.NoteOnEvent(tick=0, channel=0, data=[70, 54]),
   midi.NoteOnEvent(tick=0, channel=0, data=[74, 54]),
   midi.NoteOnEvent(tick=480, channel=0, data=[74, 0]),
   midi.NoteOnEvent(tick=0, channel=0, data=[70, 0]),
   midi.NoteOnEvent(tick=240, channel=0, data=[70, 56]),
   midi.NoteOnEvent(tick=240, channel=0, data=[70, 0]),
   midi.NoteOnEvent(tick=0, channel=0, data=[74, 60]),
   midi.NoteOnEvent(tick=120, channel=0, data=[74, 0]),
   midi.NoteOnEvent(tick=120, channel=0, data=[75, 64]),
   midi.NoteOnEvent(tick=120, channel=0, data=[75, 0]),
   midi.NoteOnEvent(tick=120, channel=0, data=[77, 68]),
   midi.NoteOnEvent(tick=120, channel=0, data=[77, 0]),
   midi.NoteOnEvent(tick=120, channel=0, data=[79, 72]),
   midi.NoteOnEvent(tick=120, channel=0, data=[79, 0]),
   midi.NoteOnEvent(tick=120, channel=0, data=[80, 76]),
   midi.NoteOnEvent(tick=240, channel=0, data=[80, 0]),
   midi.NoteOnEvent(tick=240, channel=0, data=[65, 72]),
   midi.NoteOnEvent(tick=0, channel=0, data=[68, 72]),
   midi.NoteOnEvent(tick=0, channel=0, data=[58, 64]),
   midi.NoteOnEvent(tick=240, channel=0, data=[58, 0]),
   midi.NoteOnEvent(tick=0, channel=0, data=[68, 0]),
   midi.NoteOnEvent(tick=0, channel=0, data=[65, 0]),
   midi.NoteOnEvent(tick=240, channel=0, data=[68, 73]),
   midi.NoteOnEvent(tick=0, channel=0, data=[58, 65]),
   midi.NoteOnEvent(tick=0, channel=0, data=[65, 73]),
   midi.NoteOnEvent(tick=240, channel=0, data=[65, 0]),
   midi.NoteOnEvent(tick=0, channel=0, data=[58, 0]),
   midi.NoteOnEvent(tick=0, channel=0, data=[68, 0]),
   midi.NoteOnEvent(tick=240, channel=0, data=[68, 71]),
   midi.NoteOnEvent(tick=0, channel=0, data=[65, 71]),
   midi.NoteOnEvent(tick=0, channel=0, data=[60, 63]),
   midi.NoteOnEvent(tick=240, channel=0, data=[60, 0]),
   midi.NoteOnEvent(tick=0, channel=0, data=[65, 0]),
   midi.NoteOnEvent(tick=0, channel=0, data=[68, 0]),
   midi.NoteOnEvent(tick=240, channel=0, data=[65, 72]),
   midi.NoteOnEvent(tick=0, channel=0, data=[62, 64]),
   midi.NoteOnEvent(tick=0, channel=0, data=[67, 72]),
   midi.NoteOnEvent(tick=480, channel=0, data=[67, 0]),
   midi.NoteOnEvent(tick=0, channel=0, data=[62, 0]),
   midi.NoteOnEvent(tick=0, channel=0, data=[65, 0]),
   midi.NoteOnEvent(tick=240, channel=0, data=[74, 53]),
   midi.NoteOnEvent(tick=240, channel=0, data=[74, 0]),
   midi.NoteOnEvent(tick=0, channel=0, data=[79, 58]),
   midi.NoteOnEvent(tick=120, channel=0, data=[79, 0]),
   midi.NoteOnEvent(tick=120, channel=0, data=[78, 53]),
   midi.NoteOnEvent(tick=120, channel=0, data=[78, 0]),
   midi.NoteOnEvent(tick=120, channel=0, data=[79, 56]),
   midi.NoteOnEvent(tick=120, channel=0, data=[79, 0]),
   midi.NoteOnEvent(tick=120, channel=0, data=[74, 53]),
   midi.NoteOnEvent(tick=120, channel=0, data=[74, 0]),
   midi.NoteOnEvent(tick=120, channel=0, data=[77, 57]),
   midi.NoteOnEvent(tick=240, channel=0, data=[77, 0]),
   midi.NoteOnEvent(tick=0, channel=0, data=[75, 53]),
   midi.NoteOnEvent(tick=240, channel=0, data=[75, 0]),
   midi.NoteOnEvent(tick=240, channel=0, data=[67, 53]),
   midi.NoteOnEvent(tick=240, channel=0, data=[67, 0]),
   midi.NoteOnEvent(tick=0, channel=0, data=[72, 54]),
   midi.NoteOnEvent(tick=120, channel=0, data=[72, 0]),
   midi.NoteOnEvent(tick=0, channel=0, data=[71, 58]),
   midi.NoteOnEvent(tick=120, channel=0, data=[71, 0]),
   midi.NoteOnEvent(tick=0, channel=0, data=[74, 61]),
   midi.NoteOnEvent(tick=120, channel=0, data=[74, 0]),
   midi.NoteOnEvent(tick=0, channel=0, data=[72, 65]),
   midi.NoteOnEvent(tick=120, channel=0, data=[72, 0]),
   midi.NoteOnEvent(tick=0, channel=0, data=[75, 69]),
   midi.NoteOnEvent(tick=120, channel=0, data=[75, 0]),
   midi.NoteOnEvent(tick=0, channel=0, data=[74, 73]),
   midi.NoteOnEvent(tick=120, channel=0, data=[74, 0]),
   midi.NoteOnEvent(tick=0, channel=0, data=[77, 76]),
   midi.NoteOnEvent(tick=120, channel=0, data=[77, 0]),
   midi.NoteOnEvent(tick=0, channel=0, data=[75, 80]),
   midi.NoteOnEvent(tick=120, channel=0, data=[75, 0]),
   midi.NoteOnEvent(tick=0, channel=0, data=[79, 84]),
   midi.NoteOnEvent(tick=240, channel=0, data=[79, 0]),
   midi.NoteOnEvent(tick=240, channel=0, data=[67, 74]),
   midi.NoteOnEvent(tick=0, channel=0, data=[60, 66]),
   midi.NoteOnEvent(tick=0, channel=0, data=[63, 74]),
   midi.NoteOnEvent(tick=240, channel=0, data=[63, 0]),
   midi.NoteOnEvent(tick=0, channel=0, data=[60, 0]),
   midi.NoteOnEvent(tick=0, channel=0, data=[67, 0]),
   midi.NoteOnEvent(tick=240, channel=0, data=[60, 66]),
   midi.NoteOnEvent(tick=0, channel=0, data=[63, 74]),
   midi.NoteOnEvent(tick=0, channel=0, data=[67, 74]),
   midi.NoteOnEvent(tick=240, channel=0, data=[67, 0]),
   midi.NoteOnEvent(tick=0, channel=0, data=[63, 0]),
   midi.NoteOnEvent(tick=0, channel=0, data=[60, 0]),
   midi.NoteOnEvent(tick=240, channel=0, data=[60, 64]),
   midi.NoteOnEvent(tick=0, channel=0, data=[66, 72]),
   midi.NoteOnEvent(tick=0, channel=0, data=[63, 72]),
   midi.NoteOnEvent(tick=240, channel=0, data=[63, 0]),
   midi.NoteOnEvent(tick=0, channel=0, data=[66, 0]),
   midi.NoteOnEvent(tick=0, channel=0, data=[60, 0]),
   midi.NoteOnEvent(tick=240, channel=0, data=[63, 71]),
   midi.NoteOnEvent(tick=0, channel=0, data=[65, 71]),
   midi.NoteOnEvent(tick=0, channel=0, data=[60, 63]),
   midi.NoteOnEvent(tick=480, channel=0, data=[60, 0]),
   midi.NoteOnEvent(tick=0, channel=0, data=[65, 0]),
   midi.NoteOnEvent(tick=0, channel=0, data=[63, 0]),
   midi.NoteOnEvent(tick=240, channel=0, data=[72, 52]),
   midi.NoteOnEvent(tick=240, channel=0, data=[72, 0]),
   midi.NoteOnEvent(tick=0, channel=0, data=[77, 55]),
   midi.NoteOnEvent(tick=120, channel=0, data=[77, 0]),
   midi.NoteOnEvent(tick=120, channel=0, data=[76, 52]),
   midi.NoteOnEvent(tick=120, channel=0, data=[76, 0]),
   midi.NoteOnEvent(tick=120, channel=0, data=[77, 55]),
   midi.NoteOnEvent(tick=120, channel=0, data=[77, 0]),
   midi.NoteOnEvent(tick=120, channel=0, data=[72, 52]),
   midi.NoteOnEvent(tick=120, channel=0, data=[72, 0]),
   midi.NoteOnEvent(tick=120, channel=0, data=[75, 55]),
   midi.NoteOnEvent(tick=240, channel=0, data=[75, 0]),
   midi.NoteOnEvent(tick=0, channel=0, data=[74, 52]),
   midi.NoteOnEvent(tick=240, channel=0, data=[74, 0]),
   midi.NoteOnEvent(tick=160, channel=0, data=[82, 73]),
   midi.NoteOnEvent(tick=160, channel=0, data=[82, 0]),
   midi.NoteOnEvent(tick=0, channel=0, data=[81, 69]),
   midi.NoteOnEvent(tick=160, channel=0, data=[81, 0]),
   midi.NoteOnEvent(tick=0, channel=0, data=[82, 77]),
   midi.NoteOnEvent(tick=160, channel=0, data=[82, 0]),
   midi.NoteOnEvent(tick=0, channel=0, data=[81, 69]),
   midi.NoteOnEvent(tick=160, channel=0, data=[81, 0]),
   midi.NoteOnEvent(tick=0, channel=0, data=[79, 70]),
   midi.NoteOnEvent(tick=160, channel=0, data=[79, 0]),
   midi.NoteOnEvent(tick=0, channel=0, data=[77, 73]),
   midi.NoteOnEvent(tick=160, channel=0, data=[77, 0]),
   midi.NoteOnEvent(tick=0, channel=0, data=[75, 72]),
   midi.NoteOnEvent(tick=160, channel=0, data=[75, 0]),
   midi.NoteOnEvent(tick=0, channel=0, data=[74, 71]),
   midi.NoteOnEvent(tick=160, channel=0, data=[74, 0]),
   midi.NoteOnEvent(tick=0, channel=0, data=[72, 70]),
   midi.NoteOnEvent(tick=240, channel=0, data=[72, 0]),
   midi.NoteOnEvent(tick=400, channel=0, data=[72, 70]),
   midi.NoteOnEvent(tick=160, channel=0, data=[72, 0]),
   midi.NoteOnEvent(tick=0, channel=0, data=[74, 72]),
   midi.NoteOnEvent(tick=160, channel=0, data=[74, 0]),
   midi.NoteOnEvent(tick=0, channel=0, data=[75, 74]),
   midi.NoteOnEvent(tick=160, channel=0, data=[75, 0]),
   midi.NoteOnEvent(tick=0, channel=0, data=[74, 73]),
   midi.NoteOnEvent(tick=160, channel=0, data=[74, 0]),
   midi.NoteOnEvent(tick=0, channel=0, data=[72, 68]),
   midi.NoteOnEvent(tick=160, channel=0, data=[72, 0]),
   midi.NoteOnEvent(tick=0, channel=0, data=[79, 73]),
   midi.NoteOnEvent(tick=160, channel=0, data=[79, 0]),
   midi.NoteOnEvent(tick=0, channel=0, data=[77, 72]),
   midi.NoteOnEvent(tick=160, channel=0, data=[77, 0]),
   midi.NoteOnEvent(tick=0, channel=0, data=[75, 71]),
   midi.NoteOnEvent(tick=160, channel=0, data=[75, 0]),
   midi.NoteOnEvent(tick=0, channel=0, data=[74, 69]),
   midi.NoteOnEvent(tick=480, channel=0, data=[74, 0]),
   midi.NoteOnEvent(tick=160, channel=0, data=[82, 74]),
   midi.NoteOnEvent(tick=160, channel=0, data=[82, 0]),
   midi.NoteOnEvent(tick=0, channel=0, data=[81, 74]),
   midi.NoteOnEvent(tick=160, channel=0, data=[81, 0]),
   midi.NoteOnEvent(tick=0, channel=0, data=[82, 76]),
   midi.NoteOnEvent(tick=160, channel=0, data=[82, 0]),
   midi.NoteOnEvent(tick=0, channel=0, data=[80, 72]),
   midi.NoteOnEvent(tick=160, channel=0, data=[80, 0]),
   midi.NoteOnEvent(tick=0, channel=0, data=[79, 71]),
   midi.NoteOnEvent(tick=160, channel=0, data=[79, 0]),
   midi.NoteOnEvent(tick=0, channel=0, data=[77, 73]),
   midi.NoteOnEvent(tick=160, channel=0, data=[77, 0]),
   midi.NoteOnEvent(tick=0, channel=0, data=[75, 71]),
   midi.NoteOnEvent(tick=160, channel=0, data=[75, 0]),
   midi.NoteOnEvent(tick=0, channel=0, data=[74, 70]),
   midi.NoteOnEvent(tick=160, channel=0, data=[74, 0]),
   midi.NoteOnEvent(tick=0, channel=0, data=[75, 74]),
   midi.NoteOnEvent(tick=480, channel=0, data=[75, 0]),
   midi.NoteOnEvent(tick=160, channel=0, data=[75, 71]),
   midi.NoteOnEvent(tick=160, channel=0, data=[75, 0]),
   midi.NoteOnEvent(tick=0, channel=0, data=[77, 72]),
   midi.NoteOnEvent(tick=160, channel=0, data=[77, 0]),
   midi.NoteOnEvent(tick=0, channel=0, data=[79, 74]),
   midi.NoteOnEvent(tick=160, channel=0, data=[79, 0]),
   midi.NoteOnEvent(tick=0, channel=0, data=[77, 73]),
   midi.NoteOnEvent(tick=160, channel=0, data=[77, 0]),
   midi.NoteOnEvent(tick=0, channel=0, data=[75, 72]),
   midi.NoteOnEvent(tick=160, channel=0, data=[75, 0]),
   midi.NoteOnEvent(tick=0, channel=0, data=[82, 79]),
   midi.NoteOnEvent(tick=160, channel=0, data=[82, 0]),
   midi.NoteOnEvent(tick=0, channel=0, data=[80, 72]),
   midi.NoteOnEvent(tick=160, channel=0, data=[80, 0]),
   midi.NoteOnEvent(tick=0, channel=0, data=[79, 70]),
   midi.NoteOnEvent(tick=160, channel=0, data=[79, 0]),
   midi.NoteOnEvent(tick=0, channel=0, data=[77, 72]),
   midi.NoteOnEvent(tick=480, channel=0, data=[77, 0]),
   midi.NoteOnEvent(tick=160, channel=0, data=[82, 74]),
   midi.NoteOnEvent(tick=160, channel=0, data=[82, 0]),
   midi.NoteOnEvent(tick=0, channel=0, data=[81, 71]),
   midi.NoteOnEvent(tick=160, channel=0, data=[81, 0]),
   midi.NoteOnEvent(tick=0, channel=0, data=[82, 76]),
   midi.NoteOnEvent(tick=160, channel=0, data=[82, 0]),
   midi.NoteOnEvent(tick=0, channel=0, data=[80, 72]),
   midi.NoteOnEvent(tick=160, channel=0, data=[80, 0]),
   midi.NoteOnEvent(tick=0, channel=0, data=[79, 73]),
   midi.NoteOnEvent(tick=160, channel=0, data=[79, 0]),
   midi.NoteOnEvent(tick=0, channel=0, data=[77, 71]),
   midi.NoteOnEvent(tick=160, channel=0, data=[77, 0]),
   midi.NoteOnEvent(tick=0, channel=0, data=[79, 72]),
   midi.NoteOnEvent(tick=160, channel=0, data=[79, 0]),
   midi.NoteOnEvent(tick=0, channel=0, data=[80, 74]),
   midi.NoteOnEvent(tick=160, channel=0, data=[80, 0]),
   midi.NoteOnEvent(tick=0, channel=0, data=[79, 72]),
   midi.NoteOnEvent(tick=160, channel=0, data=[79, 0]),
   midi.NoteOnEvent(tick=0, channel=0, data=[82, 78]),
   midi.NoteOnEvent(tick=160, channel=0, data=[82, 0]),
   midi.NoteOnEvent(tick=0, channel=0, data=[81, 75]),
   midi.NoteOnEvent(tick=160, channel=0, data=[81, 0]),
   midi.NoteOnEvent(tick=0, channel=0, data=[79, 71]),
   midi.NoteOnEvent(tick=160, channel=0, data=[79, 0]),
   midi.NoteOnEvent(tick=0, channel=0, data=[81, 73]),
   midi.NoteOnEvent(tick=160, channel=0, data=[81, 0]),
   midi.NoteOnEvent(tick=0, channel=0, data=[82, 75]),
   midi.NoteOnEvent(tick=160, channel=0, data=[82, 0]),
   midi.NoteOnEvent(tick=0, channel=0, data=[75, 70]),
   midi.NoteOnEvent(tick=160, channel=0, data=[75, 0]),
   midi.NoteOnEvent(tick=0, channel=0, data=[79, 74]),
   midi.NoteOnEvent(tick=160, channel=0, data=[79, 0]),
   midi.NoteOnEvent(tick=0, channel=0, data=[77, 69]),
   midi.NoteOnEvent(tick=160, channel=0, data=[77, 0]),
   midi.NoteOnEvent(tick=0, channel=0, data=[75, 70]),
   midi.NoteOnEvent(tick=160, channel=0, data=[75, 0]),
   midi.NoteOnEvent(tick=0, channel=0, data=[77, 72]),
   midi.NoteOnEvent(tick=160, channel=0, data=[77, 0]),
   midi.NoteOnEvent(tick=0, channel=0, data=[79, 75]),
   midi.NoteOnEvent(tick=160, channel=0, data=[79, 0]),
   midi.NoteOnEvent(tick=0, channel=0, data=[72, 73]),
   midi.NoteOnEvent(tick=160, channel=0, data=[72, 0]),
   midi.NoteOnEvent(tick=0, channel=0, data=[75, 76]),
   midi.NoteOnEvent(tick=160, channel=0, data=[75, 0]),
   midi.NoteOnEvent(tick=0, channel=0, data=[74, 74]),
   midi.NoteOnEvent(tick=160, channel=0, data=[74, 0]),
   midi.NoteOnEvent(tick=0, channel=0, data=[72, 73]),
   midi.NoteOnEvent(tick=160, channel=0, data=[72, 0]),
   midi.NoteOnEvent(tick=0, channel=0, data=[74, 74]),
   midi.NoteOnEvent(tick=160, channel=0, data=[74, 0]),
   midi.NoteOnEvent(tick=0, channel=0, data=[75, 69]),
   midi.NoteOnEvent(tick=160, channel=0, data=[75, 0]),
   midi.NoteOnEvent(tick=0, channel=0, data=[67, 72]),
   midi.NoteOnEvent(tick=160, channel=0, data=[67, 0]),
   midi.NoteOnEvent(tick=0, channel=0, data=[70, 74]),
   midi.NoteOnEvent(tick=160, channel=0, data=[70, 0]),
   midi.NoteOnEvent(tick=0, channel=0, data=[69, 72]),
   midi.NoteOnEvent(tick=160, channel=0, data=[69, 0]),
   midi.NoteOnEvent(tick=0, channel=0, data=[67, 68]),
   midi.NoteOnEvent(tick=160, channel=0, data=[67, 0]),
   midi.NoteOnEvent(tick=0, channel=0, data=[69, 70]),
   midi.NoteOnEvent(tick=160, channel=0, data=[69, 0]),
   midi.NoteOnEvent(tick=0, channel=0, data=[70, 71]),
   midi.NoteOnEvent(tick=160, channel=0, data=[70, 0]),
   midi.NoteOnEvent(tick=0, channel=0, data=[69, 71]),
   midi.NoteOnEvent(tick=120, channel=0, data=[69, 0]),
   midi.NoteOnEvent(tick=0, channel=0, data=[65, 69]),
   midi.NoteOnEvent(tick=120, channel=0, data=[65, 0]),
   midi.NoteOnEvent(tick=0, channel=0, data=[67, 70]),
   midi.NoteOnEvent(tick=120, channel=0, data=[67, 0]),
   midi.NoteOnEvent(tick=0, channel=0, data=[69, 71]),
   midi.NoteOnEvent(tick=120, channel=0, data=[69, 0]),
   midi.NoteOnEvent(tick=0, channel=0, data=[70, 72]),
   midi.NoteOnEvent(tick=120, channel=0, data=[70, 0]),
   midi.NoteOnEvent(tick=0, channel=0, data=[72, 73]),
   midi.NoteOnEvent(tick=120, channel=0, data=[72, 0]),
   midi.NoteOnEvent(tick=0, channel=0, data=[74, 74]),
   midi.NoteOnEvent(tick=120, channel=0, data=[74, 0]),
   midi.NoteOnEvent(tick=0, channel=0, data=[76, 76]),
   midi.NoteOnEvent(tick=120, channel=0, data=[76, 0]),
   midi.NoteOnEvent(tick=0, channel=0, data=[77, 77]),
   midi.NoteOnEvent(tick=120, channel=0, data=[77, 0]),
   midi.NoteOnEvent(tick=0, channel=0, data=[79, 78]),
   midi.NoteOnEvent(tick=120, channel=0, data=[79, 0]),
   midi.NoteOnEvent(tick=0, channel=0, data=[81, 79]),
   midi.NoteOnEvent(tick=120, channel=0, data=[81, 0]),
   midi.NoteOnEvent(tick=0, channel=0, data=[82, 80]),
   midi.NoteOnEvent(tick=120, channel=0, data=[82, 0]),
   midi.NoteOnEvent(tick=0, channel=0, data=[84, 93]),
   midi.NoteOnEvent(tick=120, channel=0, data=[84, 0]),
   midi.NoteOnEvent(tick=120, channel=0, data=[75, 76]),
   midi.NoteOnEvent(tick=120, channel=0, data=[75, 0]),
   midi.NoteOnEvent(tick=120, channel=0, data=[74, 74]),
   midi.NoteOnEvent(tick=120, channel=0, data=[74, 0]),
   midi.NoteOnEvent(tick=0, channel=0, data=[70, 69]),
   midi.NoteOnEvent(tick=120, channel=0, data=[70, 0]),
   midi.NoteOnEvent(tick=0, channel=0, data=[72, 71]),
   midi.NoteOnEvent(tick=120, channel=0, data=[72, 0]),
   midi.NoteOnEvent(tick=0, channel=0, data=[74, 72]),
   midi.NoteOnEvent(tick=120, channel=0, data=[74, 0]),
   midi.NoteOnEvent(tick=0, channel=0, data=[75, 74]),
   midi.NoteOnEvent(tick=120, channel=0, data=[75, 0]),
   midi.NoteOnEvent(tick=0, channel=0, data=[77, 75]),
   midi.NoteOnEvent(tick=120, channel=0, data=[77, 0]),
   midi.NoteOnEvent(tick=0, channel=0, data=[79, 77]),
   midi.NoteOnEvent(tick=120, channel=0, data=[79, 0]),
   midi.NoteOnEvent(tick=0, channel=0, data=[81, 78]),
   midi.NoteOnEvent(tick=120, channel=0, data=[81, 0]),
   midi.NoteOnEvent(tick=0, channel=0, data=[82, 80]),
   midi.NoteOnEvent(tick=120, channel=0, data=[82, 0]),
   midi.NoteOnEvent(tick=0, channel=0, data=[84, 81]),
   midi.NoteOnEvent(tick=120, channel=0, data=[84, 0]),
   midi.NoteOnEvent(tick=0, channel=0, data=[86, 83]),
   midi.NoteOnEvent(tick=120, channel=0, data=[86, 0]),
   midi.NoteOnEvent(tick=0, channel=0, data=[87, 84]),
   midi.NoteOnEvent(tick=120, channel=0, data=[87, 0]),
   midi.NoteOnEvent(tick=0, channel=0, data=[89, 99]),
   midi.NoteOnEvent(tick=120, channel=0, data=[89, 0]),
   midi.NoteOnEvent(tick=120, channel=0, data=[82, 82]),
   midi.NoteOnEvent(tick=120, channel=0, data=[82, 0]),
   midi.NoteOnEvent(tick=120, channel=0, data=[81, 78]),
   midi.NoteOnEvent(tick=120, channel=0, data=[81, 0]),
   midi.NoteOnEvent(tick=0, channel=0, data=[82, 81]),
   midi.NoteOnEvent(tick=120, channel=0, data=[82, 0]),
   midi.NoteOnEvent(tick=0, channel=0, data=[84, 83]),
   midi.NoteOnEvent(tick=120, channel=0, data=[84, 0]),
   midi.NoteOnEvent(tick=0, channel=0, data=[82, 80]),
   midi.NoteOnEvent(tick=120, channel=0, data=[82, 0]),
   midi.NoteOnEvent(tick=0, channel=0, data=[81, 79]),
   midi.NoteOnEvent(tick=120, channel=0, data=[81, 0]),
   midi.NoteOnEvent(tick=0, channel=0, data=[82, 82]),
   midi.NoteOnEvent(tick=120, channel=0, data=[82, 0]),
   midi.NoteOnEvent(tick=0, channel=0, data=[84, 85]),
   midi.NoteOnEvent(tick=120, channel=0, data=[84, 0]),
   midi.NoteOnEvent(tick=0, channel=0, data=[86, 88]),
   midi.NoteOnEvent(tick=120, channel=0, data=[86, 0]),
   midi.NoteOnEvent(tick=0, channel=0, data=[87, 89]),
   midi.NoteOnEvent(tick=120, channel=0, data=[87, 0]),
   midi.NoteOnEvent(tick=0, channel=0, data=[86, 87]),
   midi.NoteOnEvent(tick=120, channel=0, data=[86, 0]),
   midi.NoteOnEvent(tick=0, channel=0, data=[84, 86]),
   midi.NoteOnEvent(tick=120, channel=0, data=[84, 0]),
   midi.NoteOnEvent(tick=0, channel=0, data=[82, 84]),
   midi.NoteOnEvent(tick=120, channel=0, data=[82, 0]),
   midi.NoteOnEvent(tick=0, channel=0, data=[81, 82]),
   midi.NoteOnEvent(tick=120, channel=0, data=[81, 0]),
   midi.NoteOnEvent(tick=0, channel=0, data=[79, 80]),
   midi.NoteOnEvent(tick=120, channel=0, data=[79, 0]),
   midi.NoteOnEvent(tick=0, channel=0, data=[77, 78]),
   midi.NoteOnEvent(tick=120, channel=0, data=[77, 0]),
   midi.NoteOnEvent(tick=0, channel=0, data=[75, 77]),
   midi.NoteOnEvent(tick=120, channel=0, data=[75, 0]),
   midi.NoteOnEvent(tick=0, channel=0, data=[74, 75]),
   midi.NoteOnEvent(tick=120, channel=0, data=[74, 0]),
   midi.NoteOnEvent(tick=0, channel=0, data=[77, 75]),
   midi.NoteOnEvent(tick=120, channel=0, data=[77, 0]),
   midi.NoteOnEvent(tick=0, channel=0, data=[75, 74]),
   midi.NoteOnEvent(tick=120, channel=0, data=[75, 0]),
   midi.NoteOnEvent(tick=0, channel=0, data=[74, 73]),
   midi.NoteOnEvent(tick=120, channel=0, data=[74, 0]),
   midi.NoteOnEvent(tick=0, channel=0, data=[75, 71]),
   midi.NoteOnEvent(tick=120, channel=0, data=[75, 0]),
   midi.NoteOnEvent(tick=0, channel=0, data=[77, 73]),
   midi.NoteOnEvent(tick=120, channel=0, data=[77, 0]),
   midi.NoteOnEvent(tick=0, channel=0, data=[79, 76]),
   midi.NoteOnEvent(tick=120, channel=0, data=[79, 0]),
   midi.NoteOnEvent(tick=0, channel=0, data=[81, 78]),
   midi.NoteOnEvent(tick=120, channel=0, data=[81, 0]),
   midi.NoteOnEvent(tick=0, channel=0, data=[82, 79]),
   midi.NoteOnEvent(tick=120, channel=0, data=[82, 0]),
   midi.NoteOnEvent(tick=0, channel=0, data=[81, 78]),
   midi.NoteOnEvent(tick=120, channel=0, data=[81, 0]),
   midi.NoteOnEvent(tick=0, channel=0, data=[79, 77]),
   midi.NoteOnEvent(tick=120, channel=0, data=[79, 0]),
   midi.NoteOnEvent(tick=0, channel=0, data=[77, 76]),
   midi.NoteOnEvent(tick=120, channel=0, data=[77, 0]),
   midi.NoteOnEvent(tick=0, channel=0, data=[75, 75]),
   midi.NoteOnEvent(tick=120, channel=0, data=[75, 0]),
   midi.NoteOnEvent(tick=0, channel=0, data=[74, 74]),
   midi.NoteOnEvent(tick=120, channel=0, data=[74, 0]),
   midi.NoteOnEvent(tick=0, channel=0, data=[72, 72]),
   midi.NoteOnEvent(tick=120, channel=0, data=[72, 0]),
   midi.NoteOnEvent(tick=0, channel=0, data=[70, 71]),
   midi.NoteOnEvent(tick=120, channel=0, data=[70, 0]),
   midi.NoteOnEvent(tick=0, channel=0, data=[77, 70]),
   midi.NoteOnEvent(tick=0, channel=0, data=[69, 70]),
   midi.NoteOnEvent(tick=0, channel=0, data=[72, 70]),
   midi.NoteOnEvent(tick=120, channel=0, data=[72, 0]),
   midi.NoteOnEvent(tick=0, channel=0, data=[69, 0]),
   midi.NoteOnEvent(tick=0, channel=0, data=[77, 0]),
   midi.NoteOnEvent(tick=360, channel=0, data=[65, 71]),
   midi.NoteOnEvent(tick=240, channel=0, data=[65, 0]),
   midi.NoteOnEvent(tick=240, channel=0, data=[72, 76]),
   midi.NoteOnEvent(tick=720, channel=0, data=[72, 0]),
   midi.NoteOnEvent(tick=0, channel=0, data=[69, 60]),
   midi.NoteOnEvent(tick=120, channel=0, data=[69, 0]),
   midi.NoteOnEvent(tick=0, channel=0, data=[65, 60]),
   midi.NoteOnEvent(tick=120, channel=0, data=[65, 0]),
   midi.NoteOnEvent(tick=0, channel=0, data=[70, 67]),
   midi.NoteOnEvent(tick=480, channel=0, data=[70, 0]),
   midi.NoteOnEvent(tick=0, channel=0, data=[71, 70]),
   midi.NoteOnEvent(tick=480, channel=0, data=[71, 0]),
   midi.NoteOnEvent(tick=0, channel=0, data=[72, 74]),
   midi.NoteOnEvent(tick=720, channel=0, data=[72, 0]),
   midi.NoteOnEvent(tick=0, channel=0, data=[69, 61]),
   midi.NoteOnEvent(tick=120, channel=0, data=[69, 0]),
   midi.NoteOnEvent(tick=0, channel=0, data=[65, 61]),
   midi.NoteOnEvent(tick=120, channel=0, data=[65, 0]),
   midi.NoteOnEvent(tick=0, channel=0, data=[70, 65]),
   midi.NoteOnEvent(tick=480, channel=0, data=[70, 0]),
   midi.NoteOnEvent(tick=480, channel=0, data=[72, 75]),
   midi.NoteOnEvent(tick=120, channel=0, data=[72, 0]),
   midi.NoteOnEvent(tick=120, channel=0, data=[72, 75]),
   midi.NoteOnEvent(tick=480, channel=0, data=[72, 0]),
   midi.NoteOnEvent(tick=0, channel=0, data=[69, 61]),
   midi.NoteOnEvent(tick=120, channel=0, data=[69, 0]),
   midi.NoteOnEvent(tick=0, channel=0, data=[65, 61]),
   midi.NoteOnEvent(tick=120, channel=0, data=[65, 0]),
   midi.NoteOnEvent(tick=0, channel=0, data=[70, 64]),
   midi.NoteOnEvent(tick=120, channel=0, data=[70, 0]),
   midi.NoteOnEvent(tick=120, channel=0, data=[70, 68]),
   midi.NoteOnEvent(tick=120, channel=0, data=[70, 0]),
   midi.NoteOnEvent(tick=120, channel=0, data=[71, 71]),
   midi.NoteOnEvent(tick=120, channel=0, data=[71, 0]),
   midi.NoteOnEvent(tick=120, channel=0, data=[71, 71]),
   midi.NoteOnEvent(tick=120, channel=0, data=[71, 0]),
   midi.NoteOnEvent(tick=120, channel=0, data=[72, 77]),
   midi.NoteOnEvent(tick=120, channel=0, data=[72, 0]),
   midi.NoteOnEvent(tick=120, channel=0, data=[72, 77]),
   midi.NoteOnEvent(tick=480, channel=0, data=[72, 0]),
   midi.NoteOnEvent(tick=0, channel=0, data=[69, 60]),
   midi.NoteOnEvent(tick=120, channel=0, data=[69, 0]),
   midi.NoteOnEvent(tick=0, channel=0, data=[65, 62]),
   midi.NoteOnEvent(tick=120, channel=0, data=[65, 0]),
   midi.NoteOnEvent(tick=0, channel=0, data=[70, 66]),
   midi.NoteOnEvent(tick=480, channel=0, data=[70, 0]),
   midi.NoteOnEvent(tick=480, channel=0, data=[83, 65]),
   midi.NoteOnEvent(tick=120, channel=0, data=[84, 68]),
   midi.NoteOnEvent(tick=24, channel=0, data=[83, 0]),
   midi.NoteOnEvent(tick=96, channel=0, data=[86, 70]),
   midi.NoteOnEvent(tick=24, channel=0, data=[84, 0]),
   midi.NoteOnEvent(tick=96, channel=0, data=[84, 73]),
   midi.NoteOnEvent(tick=24, channel=0, data=[86, 0]),
   midi.NoteOnEvent(tick=96, channel=0, data=[82, 76]),
   midi.NoteOnEvent(tick=24, channel=0, data=[84, 0]),
   midi.NoteOnEvent(tick=96, channel=0, data=[81, 77]),
   midi.NoteOnEvent(tick=24, channel=0, data=[82, 0]),
   midi.NoteOnEvent(tick=96, channel=0, data=[79, 80]),
   midi.NoteOnEvent(tick=24, channel=0, data=[81, 0]),
   midi.NoteOnEvent(tick=96, channel=0, data=[77, 79]),
   midi.NoteOnEvent(tick=24, channel=0, data=[79, 0]),
   midi.NoteOnEvent(tick=96, channel=0, data=[82, 85]),
   midi.NoteOnEvent(tick=24, channel=0, data=[77, 0]),
   midi.NoteOnEvent(tick=96, channel=0, data=[82, 0]),
   midi.NoteOnEvent(tick=0, channel=0, data=[77, 75]),
   midi.NoteOnEvent(tick=120, channel=0, data=[77, 0]),
   midi.NoteOnEvent(tick=0, channel=0, data=[86, 85]),
   midi.NoteOnEvent(tick=120, channel=0, data=[86, 0]),
   midi.NoteOnEvent(tick=0, channel=0, data=[82, 79]),
   midi.NoteOnEvent(tick=120, channel=0, data=[82, 0]),
   midi.NoteOnEvent(tick=0, channel=0, data=[89, 85]),
   midi.NoteOnEvent(tick=120, channel=0, data=[89, 0]),
   midi.NoteOnEvent(tick=0, channel=0, data=[86, 78]),
   midi.NoteOnEvent(tick=120, channel=0, data=[86, 0]),
   midi.NoteOnEvent(tick=0, channel=0, data=[89, 85]),
   midi.NoteOnEvent(tick=120, channel=0, data=[89, 0]),
   midi.NoteOnEvent(tick=0, channel=0, data=[86, 77]),
   midi.NoteOnEvent(tick=120, channel=0, data=[86, 0]),
   midi.NoteOnEvent(tick=0, channel=0, data=[89, 83]),
   midi.NoteOnEvent(tick=120, channel=0, data=[87, 83]),
   midi.NoteOnEvent(tick=24, channel=0, data=[89, 0]),
   midi.NoteOnEvent(tick=96, channel=0, data=[86, 82]),
   midi.NoteOnEvent(tick=24, channel=0, data=[87, 0]),
   midi.NoteOnEvent(tick=96, channel=0, data=[84, 81]),
   midi.NoteOnEvent(tick=24, channel=0, data=[86, 0]),
   midi.NoteOnEvent(tick=96, channel=0, data=[82, 81]),
   midi.NoteOnEvent(tick=24, channel=0, data=[84, 0]),
   midi.NoteOnEvent(tick=96, channel=0, data=[81, 80]),
   midi.NoteOnEvent(tick=24, channel=0, data=[82, 0]),
   midi.NoteOnEvent(tick=96, channel=0, data=[79, 79]),
   midi.NoteOnEvent(tick=24, channel=0, data=[81, 0]),
   midi.NoteOnEvent(tick=96, channel=0, data=[77, 79]),
   midi.NoteOnEvent(tick=24, channel=0, data=[79, 0]),
   midi.NoteOnEvent(tick=96, channel=0, data=[79, 87]),
   midi.NoteOnEvent(tick=24, channel=0, data=[77, 0]),
   midi.NoteOnEvent(tick=96, channel=0, data=[79, 0]),
   midi.NoteOnEvent(tick=0, channel=0, data=[75, 78]),
   midi.NoteOnEvent(tick=120, channel=0, data=[75, 0]),
   midi.NoteOnEvent(tick=0, channel=0, data=[82, 86]),
   midi.NoteOnEvent(tick=120, channel=0, data=[82, 0]),
   midi.NoteOnEvent(tick=0, channel=0, data=[79, 76]),
   midi.NoteOnEvent(tick=120, channel=0, data=[79, 0]),
   midi.NoteOnEvent(tick=0, channel=0, data=[82, 86]),
   midi.NoteOnEvent(tick=120, channel=0, data=[82, 0]),
   midi.NoteOnEvent(tick=0, channel=0, data=[81, 77]),
   midi.NoteOnEvent(tick=120, channel=0, data=[81, 0]),
   midi.NoteOnEvent(tick=0, channel=0, data=[82, 83]),
   midi.NoteOnEvent(tick=120, channel=0, data=[82, 0]),
   midi.NoteOnEvent(tick=0, channel=0, data=[81, 77]),
   midi.NoteOnEvent(tick=120, channel=0, data=[81, 0]),
   midi.NoteOnEvent(tick=0, channel=0, data=[82, 79]),
   midi.NoteOnEvent(tick=120, channel=0, data=[82, 0]),
   midi.NoteOnEvent(tick=0, channel=0, data=[81, 73]),
   midi.NoteOnEvent(tick=120, channel=0, data=[81, 0]),
   midi.NoteOnEvent(tick=0, channel=0, data=[79, 76]),
   midi.NoteOnEvent(tick=120, channel=0, data=[79, 0]),
   midi.NoteOnEvent(tick=0, channel=0, data=[77, 68]),
   midi.NoteOnEvent(tick=120, channel=0, data=[77, 0]),
   midi.NoteOnEvent(tick=0, channel=0, data=[75, 72]),
   midi.NoteOnEvent(tick=120, channel=0, data=[75, 0]),
   midi.NoteOnEvent(tick=0, channel=0, data=[74, 67]),
   midi.NoteOnEvent(tick=120, channel=0, data=[74, 0]),
   midi.NoteOnEvent(tick=0, channel=0, data=[72, 68]),
   midi.NoteOnEvent(tick=120, channel=0, data=[72, 0]),
   midi.NoteOnEvent(tick=0, channel=0, data=[70, 63]),
   midi.NoteOnEvent(tick=120, channel=0, data=[70, 0]),
   midi.NoteOnEvent(tick=0, channel=0, data=[65, 67]),
   midi.NoteOnEvent(tick=60, channel=0, data=[65, 0]),
   midi.NoteOnEvent(tick=60, channel=0, data=[77, 67]),
   midi.NoteOnEvent(tick=120, channel=0, data=[77, 0]),
   midi.NoteOnEvent(tick=0, channel=0, data=[79, 69]),
   midi.NoteOnEvent(tick=120, channel=0, data=[79, 0]),
   midi.NoteOnEvent(tick=0, channel=0, data=[77, 67]),
   midi.NoteOnEvent(tick=120, channel=0, data=[77, 0]),
   midi.NoteOnEvent(tick=0, channel=0, data=[75, 67]),
   midi.NoteOnEvent(tick=120, channel=0, data=[75, 0]),
   midi.NoteOnEvent(tick=0, channel=0, data=[74, 64]),
   midi.NoteOnEvent(tick=120, channel=0, data=[74, 0]),
   midi.NoteOnEvent(tick=0, channel=0, data=[72, 67]),
   midi.NoteOnEvent(tick=120, channel=0, data=[72, 0]),
   midi.NoteOnEvent(tick=0, channel=0, data=[70, 64]),
   midi.NoteOnEvent(tick=120, channel=0, data=[70, 0]),
   midi.NoteOnEvent(tick=0, channel=0, data=[72, 67]),
   midi.NoteOnEvent(tick=80, channel=0, data=[72, 0]),
   midi.NoteOnEvent(tick=0, channel=0, data=[74, 61]),
   midi.NoteOnEvent(tick=80, channel=0, data=[74, 0]),
   midi.NoteOnEvent(tick=0, channel=0, data=[72, 59]),
   midi.NoteOnEvent(tick=80, channel=0, data=[72, 0]),
   midi.NoteOnEvent(tick=0, channel=0, data=[74, 67]),
   midi.NoteOnEvent(tick=80, channel=0, data=[74, 0]),
   midi.NoteOnEvent(tick=0, channel=0, data=[72, 59]),
   midi.NoteOnEvent(tick=80, channel=0, data=[72, 0]),
   midi.NoteOnEvent(tick=0, channel=0, data=[74, 59]),
   midi.NoteOnEvent(tick=80, channel=0, data=[74, 0]),
   midi.NoteOnEvent(tick=0, channel=0, data=[72, 61]),
   midi.NoteOnEvent(tick=80, channel=0, data=[72, 0]),
   midi.NoteOnEvent(tick=0, channel=0, data=[74, 67]),
   midi.NoteOnEvent(tick=80, channel=0, data=[74, 0]),
   midi.NoteOnEvent(tick=0, channel=0, data=[72, 67]),
   midi.NoteOnEvent(tick=80, channel=0, data=[72, 0]),
   midi.NoteOnEvent(tick=0, channel=0, data=[70, 69]),
   midi.NoteOnEvent(tick=120, channel=0, data=[70, 0]),
   midi.NoteOnEvent(tick=0, channel=0, data=[72, 70]),
   midi.NoteOnEvent(tick=120, channel=0, data=[72, 0]),
   midi.NoteOnEvent(tick=0, channel=0, data=[74, 72]),
   midi.NoteOnEvent(tick=120, channel=0, data=[74, 0]),
   midi.NoteOnEvent(tick=0, channel=0, data=[75, 74]),
   midi.NoteOnEvent(tick=120, channel=0, data=[75, 0]),
   midi.NoteOnEvent(tick=0, channel=0, data=[77, 74]),
   midi.NoteOnEvent(tick=120, channel=0, data=[77, 0]),
   midi.NoteOnEvent(tick=0, channel=0, data=[75, 72]),
   midi.NoteOnEvent(tick=120, channel=0, data=[75, 0]),
   midi.NoteOnEvent(tick=0, channel=0, data=[74, 71]),
   midi.NoteOnEvent(tick=120, channel=0, data=[74, 0]),
   midi.NoteOnEvent(tick=0, channel=0, data=[72, 70]),
   midi.NoteOnEvent(tick=120, channel=0, data=[72, 0]),
   midi.NoteOnEvent(tick=0, channel=0, data=[70, 68]),
   midi.NoteOnEvent(tick=120, channel=0, data=[70, 0]),
   midi.NoteOnEvent(tick=0, channel=0, data=[69, 67]),
   midi.NoteOnEvent(tick=120, channel=0, data=[69, 0]),
   midi.NoteOnEvent(tick=0, channel=0, data=[70, 69]),
   midi.NoteOnEvent(tick=120, channel=0, data=[70, 0]),
   midi.NoteOnEvent(tick=0, channel=0, data=[72, 71]),
   midi.NoteOnEvent(tick=120, channel=0, data=[72, 0]),
   midi.NoteOnEvent(tick=0, channel=0, data=[74, 72]),
   midi.NoteOnEvent(tick=120, channel=0, data=[74, 0]),
   midi.NoteOnEvent(tick=0, channel=0, data=[72, 70]),
   midi.NoteOnEvent(tick=120, channel=0, data=[72, 0]),
   midi.NoteOnEvent(tick=0, channel=0, data=[70, 69]),
   midi.NoteOnEvent(tick=120, channel=0, data=[70, 0]),
   midi.NoteOnEvent(tick=0, channel=0, data=[68, 69]),
   midi.NoteOnEvent(tick=120, channel=0, data=[68, 0]),
   midi.NoteOnEvent(tick=0, channel=0, data=[67, 68]),
   midi.NoteOnEvent(tick=120, channel=0, data=[67, 0]),
   midi.NoteOnEvent(tick=0, channel=0, data=[66, 67]),
   midi.NoteOnEvent(tick=120, channel=0, data=[66, 0]),
   midi.NoteOnEvent(tick=0, channel=0, data=[67, 67]),
   midi.NoteOnEvent(tick=120, channel=0, data=[67, 0]),
   midi.NoteOnEvent(tick=0, channel=0, data=[69, 70]),
   midi.NoteOnEvent(tick=120, channel=0, data=[69, 0]),
   midi.NoteOnEvent(tick=0, channel=0, data=[70, 72]),
   midi.NoteOnEvent(tick=120, channel=0, data=[70, 0]),
   midi.NoteOnEvent(tick=0, channel=0, data=[69, 71]),
   midi.NoteOnEvent(tick=120, channel=0, data=[69, 0]),
   midi.NoteOnEvent(tick=0, channel=0, data=[67, 70]),
   midi.NoteOnEvent(tick=120, channel=0, data=[67, 0]),
   midi.NoteOnEvent(tick=0, channel=0, data=[65, 69]),
   midi.NoteOnEvent(tick=120, channel=0, data=[65, 0]),
   midi.NoteOnEvent(tick=0, channel=0, data=[63, 68]),
   midi.NoteOnEvent(tick=120, channel=0, data=[63, 0]),
   midi.NoteOnEvent(tick=0, channel=0, data=[62, 68]),
   midi.NoteOnEvent(tick=120, channel=0, data=[62, 0]),
   midi.NoteOnEvent(tick=0, channel=0, data=[60, 67]),
   midi.NoteOnEvent(tick=120, channel=0, data=[60, 0]),
   midi.NoteOnEvent(tick=0, channel=0, data=[62, 68]),
   midi.NoteOnEvent(tick=120, channel=0, data=[62, 0]),
   midi.NoteOnEvent(tick=0, channel=0, data=[63, 69]),
   midi.NoteOnEvent(tick=120, channel=0, data=[63, 0]),
   midi.NoteOnEvent(tick=0, channel=0, data=[62, 68]),
   midi.NoteOnEvent(tick=120, channel=0, data=[62, 0]),
   midi.NoteOnEvent(tick=0, channel=0, data=[60, 66]),
   midi.NoteOnEvent(tick=120, channel=0, data=[60, 0]),
   midi.NoteOnEvent(tick=0, channel=0, data=[58, 65]),
   midi.NoteOnEvent(tick=120, channel=0, data=[58, 0]),
   midi.NoteOnEvent(tick=0, channel=0, data=[57, 63]),
   midi.NoteOnEvent(tick=120, channel=0, data=[57, 0]),
   midi.NoteOnEvent(tick=0, channel=0, data=[55, 61]),
   midi.NoteOnEvent(tick=120, channel=0, data=[55, 0]),
   midi.NoteOnEvent(tick=0, channel=0, data=[53, 60]),
   midi.NoteOnEvent(tick=240, channel=0, data=[53, 0]),
   midi.NoteOnEvent(tick=0, channel=0, data=[55, 62]),
   midi.NoteOnEvent(tick=120, channel=0, data=[55, 0]),
   midi.NoteOnEvent(tick=0, channel=0, data=[57, 64]),
   midi.NoteOnEvent(tick=120, channel=0, data=[57, 0]),
   midi.NoteOnEvent(tick=0, channel=0, data=[58, 66]),
   midi.NoteOnEvent(tick=120, channel=0, data=[58, 0]),
   midi.NoteOnEvent(tick=0, channel=0, data=[60, 68]),
   midi.NoteOnEvent(tick=120, channel=0, data=[60, 0]),
   midi.NoteOnEvent(tick=0, channel=0, data=[62, 70]),
   midi.NoteOnEvent(tick=120, channel=0, data=[62, 0]),
   midi.NoteOnEvent(tick=0, channel=0, data=[63, 69]),
   midi.NoteOnEvent(tick=120, channel=0, data=[63, 0]),
   midi.NoteOnEvent(tick=0, channel=0, data=[67, 72]),
   midi.NoteOnEvent(tick=120, channel=0, data=[67, 0]),
   midi.NoteOnEvent(tick=0, channel=0, data=[65, 71]),
   midi.NoteOnEvent(tick=120, channel=0, data=[65, 0]),
   midi.NoteOnEvent(tick=0, channel=0, data=[63, 70]),
   midi.NoteOnEvent(tick=120, channel=0, data=[63, 0]),
   midi.NoteOnEvent(tick=0, channel=0, data=[62, 69]),
   midi.NoteOnEvent(tick=120, channel=0, data=[62, 0]),
   midi.NoteOnEvent(tick=0, channel=0, data=[63, 67]),
   midi.NoteOnEvent(tick=120, channel=0, data=[63, 0]),
   midi.NoteOnEvent(tick=0, channel=0, data=[65, 67]),
   midi.NoteOnEvent(tick=120, channel=0, data=[65, 0]),
   midi.NoteOnEvent(tick=0, channel=0, data=[67, 68]),
   midi.NoteOnEvent(tick=120, channel=0, data=[67, 0]),
   midi.NoteOnEvent(tick=0, channel=0, data=[69, 69]),
   midi.NoteOnEvent(tick=120, channel=0, data=[69, 0]),
   midi.NoteOnEvent(tick=0, channel=0, data=[70, 71]),
   midi.NoteOnEvent(tick=120, channel=0, data=[70, 0]),
   midi.NoteOnEvent(tick=0, channel=0, data=[69, 71]),
   midi.NoteOnEvent(tick=120, channel=0, data=[69, 0]),
   midi.NoteOnEvent(tick=0, channel=0, data=[67, 70]),
   midi.NoteOnEvent(tick=120, channel=0, data=[67, 0]),
   midi.NoteOnEvent(tick=0, channel=0, data=[65, 69]),
   midi.NoteOnEvent(tick=120, channel=0, data=[65, 0]),
   midi.NoteOnEvent(tick=0, channel=0, data=[67, 68]),
   midi.NoteOnEvent(tick=120, channel=0, data=[67, 0]),
   midi.NoteOnEvent(tick=0, channel=0, data=[69, 69]),
   midi.NoteOnEvent(tick=120, channel=0, data=[69, 0]),
   midi.NoteOnEvent(tick=0, channel=0, data=[70, 70]),
   midi.NoteOnEvent(tick=120, channel=0, data=[70, 0]),
   midi.NoteOnEvent(tick=0, channel=0, data=[72, 71]),
   midi.NoteOnEvent(tick=120, channel=0, data=[72, 0]),
   midi.NoteOnEvent(tick=0, channel=0, data=[74, 73]),
   midi.NoteOnEvent(tick=120, channel=0, data=[74, 0]),
   midi.NoteOnEvent(tick=0, channel=0, data=[72, 73]),
   midi.NoteOnEvent(tick=120, channel=0, data=[72, 0]),
   midi.NoteOnEvent(tick=0, channel=0, data=[70, 72]),
   midi.NoteOnEvent(tick=120, channel=0, data=[70, 0]),
   midi.NoteOnEvent(tick=0, channel=0, data=[69, 71]),
   midi.NoteOnEvent(tick=120, channel=0, data=[69, 0]),
   midi.NoteOnEvent(tick=0, channel=0, data=[70, 70]),
   midi.NoteOnEvent(tick=120, channel=0, data=[70, 0]),
   midi.NoteOnEvent(tick=0, channel=0, data=[72, 71]),
   midi.NoteOnEvent(tick=120, channel=0, data=[72, 0]),
   midi.NoteOnEvent(tick=0, channel=0, data=[74, 73]),
   midi.NoteOnEvent(tick=120, channel=0, data=[74, 0]),
   midi.NoteOnEvent(tick=0, channel=0, data=[75, 75]),
   midi.NoteOnEvent(tick=120, channel=0, data=[75, 0]),
   midi.NoteOnEvent(tick=0, channel=0, data=[77, 76]),
   midi.NoteOnEvent(tick=120, channel=0, data=[77, 0]),
   midi.NoteOnEvent(tick=0, channel=0, data=[74, 71]),
   midi.NoteOnEvent(tick=120, channel=0, data=[74, 0]),
   midi.NoteOnEvent(tick=0, channel=0, data=[77, 76]),
   midi.NoteOnEvent(tick=120, channel=0, data=[77, 0]),
   midi.NoteOnEvent(tick=0, channel=0, data=[74, 70]),
   midi.NoteOnEvent(tick=120, channel=0, data=[74, 0]),
   midi.NoteOnEvent(tick=0, channel=0, data=[82, 82]),
   midi.NoteOnEvent(tick=120, channel=0, data=[82, 0]),
   midi.NoteOnEvent(tick=0, channel=0, data=[77, 76]),
   midi.NoteOnEvent(tick=120, channel=0, data=[77, 0]),
   midi.NoteOnEvent(tick=0, channel=0, data=[82, 82]),
   midi.NoteOnEvent(tick=120, channel=0, data=[82, 0]),
   midi.NoteOnEvent(tick=0, channel=0, data=[77, 76]),
   midi.NoteOnEvent(tick=120, channel=0, data=[77, 0]),
   midi.NoteOnEvent(tick=0, channel=0, data=[86, 88]),
   midi.NoteOnEvent(tick=120, channel=0, data=[86, 0]),
   midi.NoteOnEvent(tick=0, channel=0, data=[82, 83]),
   midi.NoteOnEvent(tick=120, channel=0, data=[82, 0]),
   midi.NoteOnEvent(tick=0, channel=0, data=[86, 88]),
   midi.NoteOnEvent(tick=120, channel=0, data=[86, 0]),
   midi.NoteOnEvent(tick=0, channel=0, data=[82, 83]),
   midi.NoteOnEvent(tick=120, channel=0, data=[82, 0]),
   midi.NoteOnEvent(tick=0, channel=0, data=[89, 95]),
   midi.NoteOnEvent(tick=120, channel=0, data=[89, 0]),
   midi.NoteOnEvent(tick=0, channel=0, data=[86, 88]),
   midi.NoteOnEvent(tick=120, channel=0, data=[86, 0]),
   midi.NoteOnEvent(tick=0, channel=0, data=[89, 95]),
   midi.NoteOnEvent(tick=120, channel=0, data=[89, 0]),
   midi.NoteOnEvent(tick=0, channel=0, data=[86, 85]),
   midi.NoteOnEvent(tick=120, channel=0, data=[86, 0]),
   midi.NoteOnEvent(tick=0, channel=0, data=[82, 93]),
   midi.NoteOnEvent(tick=120, channel=0, data=[82, 0]),
   midi.NoteOnEvent(tick=0, channel=0, data=[86, 89]),
   midi.NoteOnEvent(tick=120, channel=0, data=[86, 0]),
   midi.NoteOnEvent(tick=0, channel=0, data=[82, 93]),
   midi.NoteOnEvent(tick=120, channel=0, data=[82, 0]),
   midi.NoteOnEvent(tick=0, channel=0, data=[86, 87]),
   midi.NoteOnEvent(tick=120, channel=0, data=[86, 0]),
   midi.NoteOnEvent(tick=0, channel=0, data=[77, 89]),
   midi.NoteOnEvent(tick=120, channel=0, data=[77, 0]),
   midi.NoteOnEvent(tick=0, channel=0, data=[82, 84]),
   midi.NoteOnEvent(tick=120, channel=0, data=[82, 0]),
   midi.NoteOnEvent(tick=0, channel=0, data=[77, 90]),
   midi.NoteOnEvent(tick=120, channel=0, data=[77, 0]),
   midi.NoteOnEvent(tick=0, channel=0, data=[82, 84]),
   midi.NoteOnEvent(tick=120, channel=0, data=[82, 0]),
   midi.NoteOnEvent(tick=0, channel=0, data=[74, 87]),
   midi.NoteOnEvent(tick=120, channel=0, data=[74, 0]),
   midi.NoteOnEvent(tick=0, channel=0, data=[77, 80]),
   midi.NoteOnEvent(tick=120, channel=0, data=[77, 0]),
   midi.NoteOnEvent(tick=0, channel=0, data=[74, 87]),
   midi.NoteOnEvent(tick=120, channel=0, data=[74, 0]),
   midi.NoteOnEvent(tick=0, channel=0, data=[77, 80]),
   midi.NoteOnEvent(tick=120, channel=0, data=[77, 0]),
   midi.NoteOnEvent(tick=0, channel=0, data=[70, 81]),
   midi.NoteOnEvent(tick=120, channel=0, data=[70, 0]),
   midi.NoteOnEvent(tick=0, channel=0, data=[74, 73]),
   midi.NoteOnEvent(tick=120, channel=0, data=[74, 0]),
   midi.NoteOnEvent(tick=0, channel=0, data=[70, 81]),
   midi.NoteOnEvent(tick=120, channel=0, data=[70, 0]),
   midi.NoteOnEvent(tick=0, channel=0, data=[74, 73]),
   midi.NoteOnEvent(tick=120, channel=0, data=[74, 0]),
   midi.NoteOnEvent(tick=0, channel=0, data=[65, 83]),
   midi.NoteOnEvent(tick=240, channel=0, data=[65, 0]),
   midi.NoteOnEvent(tick=240, channel=0, data=[77, 91]),
   midi.NoteOnEvent(tick=720, channel=0, data=[77, 0]),
   midi.NoteOnEvent(tick=0, channel=0, data=[79, 77]),
   midi.NoteOnEvent(tick=120, channel=0, data=[79, 0]),
   midi.NoteOnEvent(tick=0, channel=0, data=[77, 76]),
   midi.NoteOnEvent(tick=120, channel=0, data=[77, 0]),
   midi.NoteOnEvent(tick=0, channel=0, data=[75, 76]),
   midi.NoteOnEvent(tick=120, channel=0, data=[75, 0]),
   midi.NoteOnEvent(tick=0, channel=0, data=[74, 75]),
   midi.NoteOnEvent(tick=120, channel=0, data=[74, 0]),
   midi.NoteOnEvent(tick=0, channel=0, data=[72, 74]),
   midi.NoteOnEvent(tick=120, channel=0, data=[72, 0]),
   midi.NoteOnEvent(tick=0, channel=0, data=[70, 73]),
   midi.NoteOnEvent(tick=120, channel=0, data=[70, 0]),
   midi.NoteOnEvent(tick=0, channel=0, data=[70, 53]),
   midi.NoteOnEvent(tick=80, channel=0, data=[70, 0]),
   midi.NoteOnEvent(tick=0, channel=0, data=[72, 48]),
   midi.NoteOnEvent(tick=80, channel=0, data=[72, 0]),
   midi.NoteOnEvent(tick=0, channel=0, data=[74, 49]),
   midi.NoteOnEvent(tick=80, channel=0, data=[74, 0]),
   midi.NoteOnEvent(tick=0, channel=0, data=[72, 53]),
   midi.NoteOnEvent(tick=80, channel=0, data=[72, 0]),
   midi.NoteOnEvent(tick=0, channel=0, data=[74, 51]),
   midi.NoteOnEvent(tick=80, channel=0, data=[74, 0]),
   midi.NoteOnEvent(tick=0, channel=0, data=[72, 55]),
   midi.NoteOnEvent(tick=80, channel=0, data=[72, 0]),
   midi.NoteOnEvent(tick=0, channel=0, data=[74, 52]),
   midi.NoteOnEvent(tick=80, channel=0, data=[74, 0]),
   midi.NoteOnEvent(tick=0, channel=0, data=[72, 56]),
   midi.NoteOnEvent(tick=80, channel=0, data=[72, 0]),
   midi.NoteOnEvent(tick=0, channel=0, data=[74, 52]),
   midi.NoteOnEvent(tick=80, channel=0, data=[74, 0]),
   midi.NoteOnEvent(tick=0, channel=0, data=[72, 56]),
   midi.NoteOnEvent(tick=80, channel=0, data=[72, 0]),
   midi.NoteOnEvent(tick=0, channel=0, data=[74, 54]),
   midi.NoteOnEvent(tick=80, channel=0, data=[74, 0]),
   midi.NoteOnEvent(tick=0, channel=0, data=[72, 58]),
   midi.NoteOnEvent(tick=80, channel=0, data=[72, 0]),
   midi.NoteOnEvent(tick=0, channel=0, data=[74, 55]),
   midi.NoteOnEvent(tick=80, channel=0, data=[74, 0]),
   midi.NoteOnEvent(tick=0, channel=0, data=[72, 59]),
   midi.NoteOnEvent(tick=80, channel=0, data=[72, 0]),
   midi.NoteOnEvent(tick=0, channel=0, data=[74, 54]),
   midi.NoteOnEvent(tick=80, channel=0, data=[74, 0]),
   midi.NoteOnEvent(tick=0, channel=0, data=[72, 60]),
   midi.NoteOnEvent(tick=80, channel=0, data=[72, 0]),
   midi.NoteOnEvent(tick=0, channel=0, data=[74, 56]),
   midi.NoteOnEvent(tick=80, channel=0, data=[74, 0]),
   midi.NoteOnEvent(tick=0, channel=0, data=[72, 57]),
   midi.NoteOnEvent(tick=80, channel=0, data=[72, 0]),
   midi.NoteOnEvent(tick=0, channel=0, data=[74, 65]),
   midi.NoteOnEvent(tick=120, channel=0, data=[74, 0]),
   midi.NoteOnEvent(tick=0, channel=0, data=[72, 61]),
   midi.NoteOnEvent(tick=120, channel=0, data=[72, 0]),
   midi.NoteOnEvent(tick=0, channel=0, data=[70, 67]),
   midi.NoteOnEvent(tick=120, channel=0, data=[70, 0]),
   midi.NoteOnEvent(tick=0, channel=0, data=[72, 64]),
   midi.NoteOnEvent(tick=120, channel=0, data=[72, 0]),
   midi.NoteOnEvent(tick=0, channel=0, data=[70, 70]),
   midi.NoteOnEvent(tick=240, channel=0, data=[70, 0]),
   midi.NoteOnEvent(tick=0, channel=0, data=[70, 59]),
   midi.NoteOnEvent(tick=240, channel=0, data=[70, 0]),
   midi.NoteOnEvent(tick=240, channel=0, data=[70, 56]),
   midi.NoteOnEvent(tick=240, channel=0, data=[70, 0]),
   midi.NoteOnEvent(tick=0, channel=0, data=[70, 57]),
   midi.NoteOnEvent(tick=240, channel=0, data=[70, 0]),
   midi.NoteOnEvent(tick=0, channel=0, data=[70, 57]),
   midi.NoteOnEvent(tick=240, channel=0, data=[70, 0]),
   midi.NoteOnEvent(tick=240, channel=0, data=[70, 56]),
   midi.NoteOnEvent(tick=240, channel=0, data=[70, 0]),
   midi.NoteOnEvent(tick=0, channel=0, data=[72, 60]),
   midi.NoteOnEvent(tick=240, channel=0, data=[72, 0]),
   midi.NoteOnEvent(tick=0, channel=0, data=[72, 57]),
   midi.NoteOnEvent(tick=120, channel=0, data=[72, 0]),
   midi.NoteOnEvent(tick=360, channel=0, data=[72, 57]),
   midi.NoteOnEvent(tick=240, channel=0, data=[72, 0]),
   midi.NoteOnEvent(tick=0, channel=0, data=[72, 60]),
   midi.NoteOnEvent(tick=240, channel=0, data=[72, 0]),
   midi.NoteOnEvent(tick=0, channel=0, data=[72, 57]),
   midi.NoteOnEvent(tick=240, channel=0, data=[72, 0]),
   midi.NoteOnEvent(tick=240, channel=0, data=[72, 61]),
   midi.NoteOnEvent(tick=240, channel=0, data=[72, 0]),
   midi.NoteOnEvent(tick=0, channel=0, data=[74, 65]),
   midi.NoteOnEvent(tick=240, channel=0, data=[74, 0]),
   midi.NoteOnEvent(tick=0, channel=0, data=[74, 61]),
   midi.NoteOnEvent(tick=120, channel=0, data=[74, 0]),
   midi.NoteOnEvent(tick=360, channel=0, data=[74, 70]),
   midi.NoteOnEvent(tick=240, channel=0, data=[74, 0]),
   midi.NoteOnEvent(tick=0, channel=0, data=[75, 72]),
   midi.NoteOnEvent(tick=240, channel=0, data=[75, 0]),
   midi.NoteOnEvent(tick=0, channel=0, data=[75, 70]),
   midi.NoteOnEvent(tick=120, channel=0, data=[75, 0]),
   midi.NoteOnEvent(tick=360, channel=0, data=[76, 77]),
   midi.NoteOnEvent(tick=240, channel=0, data=[76, 0]),
   midi.NoteOnEvent(tick=0, channel=0, data=[77, 81]),
   midi.NoteOnEvent(tick=240, channel=0, data=[77, 0]),
   midi.NoteOnEvent(tick=0, channel=0, data=[77, 78]),
   midi.NoteOnEvent(tick=120, channel=0, data=[77, 0]),
   midi.NoteOnEvent(tick=360, channel=0, data=[78, 85]),
   midi.NoteOnEvent(tick=240, channel=0, data=[78, 0]),
   midi.NoteOnEvent(tick=0, channel=0, data=[79, 92]),
   midi.NoteOnEvent(tick=240, channel=0, data=[79, 0]),
   midi.NoteOnEvent(tick=0, channel=0, data=[79, 92]),
   midi.NoteOnEvent(tick=120, channel=0, data=[79, 0]),
   midi.NoteOnEvent(tick=120, channel=0, data=[81, 96]),
   midi.NoteOnEvent(tick=120, channel=0, data=[81, 0]),
   midi.NoteOnEvent(tick=120, channel=0, data=[81, 96]),
   midi.NoteOnEvent(tick=120, channel=0, data=[81, 0]),
   midi.NoteOnEvent(tick=120, channel=0, data=[74, 109]),
   midi.NoteOnEvent(tick=120, channel=0, data=[74, 0]),
   midi.NoteOnEvent(tick=0, channel=0, data=[82, 93]),
   midi.NoteOnEvent(tick=120, channel=0, data=[82, 0]),
   midi.NoteOnEvent(tick=0, channel=0, data=[86, 105]),
   midi.NoteOnEvent(tick=120, channel=0, data=[86, 0]),
   midi.NoteOnEvent(tick=0, channel=0, data=[82, 96]),
   midi.NoteOnEvent(tick=120, channel=0, data=[82, 0]),
   midi.NoteOnEvent(tick=0, channel=0, data=[86, 105]),
   midi.NoteOnEvent(tick=120, channel=0, data=[86, 0]),
   midi.NoteOnEvent(tick=0, channel=0, data=[82, 96]),
   midi.NoteOnEvent(tick=120, channel=0, data=[82, 0]),
   midi.NoteOnEvent(tick=0, channel=0, data=[86, 103]),
   midi.NoteOnEvent(tick=120, channel=0, data=[86, 0]),
   midi.NoteOnEvent(tick=0, channel=0, data=[82, 94]),
   midi.NoteOnEvent(tick=120, channel=0, data=[82, 0]),
   midi.NoteOnEvent(tick=0, channel=0, data=[74, 110]),
   midi.NoteOnEvent(tick=120, channel=0, data=[74, 0]),
   midi.NoteOnEvent(tick=0, channel=0, data=[82, 94]),
   midi.NoteOnEvent(tick=120, channel=0, data=[82, 0]),
   midi.NoteOnEvent(tick=0, channel=0, data=[86, 103]),
   midi.NoteOnEvent(tick=120, channel=0, data=[86, 0]),
   midi.NoteOnEvent(tick=0, channel=0, data=[82, 100]),
   midi.NoteOnEvent(tick=120, channel=0, data=[82, 0]),
   midi.NoteOnEvent(tick=0, channel=0, data=[86, 105]),
   midi.NoteOnEvent(tick=120, channel=0, data=[86, 0]),
   midi.NoteOnEvent(tick=0, channel=0, data=[82, 94]),
   midi.NoteOnEvent(tick=120, channel=0, data=[82, 0]),
   midi.NoteOnEvent(tick=0, channel=0, data=[86, 100]),
   midi.NoteOnEvent(tick=120, channel=0, data=[86, 0]),
   midi.NoteOnEvent(tick=0, channel=0, data=[82, 95]),
   midi.NoteOnEvent(tick=120, channel=0, data=[82, 0]),
   midi.NoteOnEvent(tick=0, channel=0, data=[74, 109]),
   midi.NoteOnEvent(tick=120, channel=0, data=[74, 0]),
   midi.NoteOnEvent(tick=0, channel=0, data=[82, 95]),
   midi.NoteOnEvent(tick=120, channel=0, data=[82, 0]),
   midi.NoteOnEvent(tick=0, channel=0, data=[86, 100]),
   midi.NoteOnEvent(tick=120, channel=0, data=[86, 0]),
   midi.NoteOnEvent(tick=0, channel=0, data=[82, 93]),
   midi.NoteOnEvent(tick=120, channel=0, data=[82, 0]),
   midi.NoteOnEvent(tick=0, channel=0, data=[86, 105]),
   midi.NoteOnEvent(tick=120, channel=0, data=[86, 0]),
   midi.NoteOnEvent(tick=0, channel=0, data=[82, 95]),
   midi.NoteOnEvent(tick=120, channel=0, data=[82, 0]),
   midi.NoteOnEvent(tick=0, channel=0, data=[86, 100]),
   midi.NoteOnEvent(tick=120, channel=0, data=[86, 0]),
   midi.NoteOnEvent(tick=0, channel=0, data=[82, 93]),
   midi.NoteOnEvent(tick=120, channel=0, data=[82, 0]),
   midi.NoteOnEvent(tick=0, channel=0, data=[74, 109]),
   midi.NoteOnEvent(tick=120, channel=0, data=[74, 0]),
   midi.NoteOnEvent(tick=0, channel=0, data=[82, 95]),
   midi.NoteOnEvent(tick=120, channel=0, data=[82, 0]),
   midi.NoteOnEvent(tick=0, channel=0, data=[86, 101]),
   midi.NoteOnEvent(tick=120, channel=0, data=[86, 0]),
   midi.NoteOnEvent(tick=0, channel=0, data=[82, 94]),
   midi.NoteOnEvent(tick=120, channel=0, data=[82, 0]),
   midi.NoteOnEvent(tick=0, channel=0, data=[86, 105]),
   midi.NoteOnEvent(tick=120, channel=0, data=[86, 0]),
   midi.NoteOnEvent(tick=0, channel=0, data=[82, 96]),
   midi.NoteOnEvent(tick=120, channel=0, data=[82, 0]),
   midi.NoteOnEvent(tick=0, channel=0, data=[86, 100]),
   midi.NoteOnEvent(tick=120, channel=0, data=[86, 0]),
   midi.NoteOnEvent(tick=0, channel=0, data=[82, 93]),
   midi.NoteOnEvent(tick=120, channel=0, data=[82, 0]),
   midi.NoteOnEvent(tick=0, channel=0, data=[74, 109]),
   midi.NoteOnEvent(tick=120, channel=0, data=[74, 0]),
   midi.NoteOnEvent(tick=0, channel=0, data=[82, 95]),
   midi.NoteOnEvent(tick=120, channel=0, data=[82, 0]),
   midi.NoteOnEvent(tick=0, channel=0, data=[86, 100]),
   midi.NoteOnEvent(tick=120, channel=0, data=[86, 0]),
   midi.NoteOnEvent(tick=0, channel=0, data=[82, 95]),
   midi.NoteOnEvent(tick=120, channel=0, data=[82, 0]),
   midi.NoteOnEvent(tick=0, channel=0, data=[86, 104]),
   midi.NoteOnEvent(tick=120, channel=0, data=[86, 0]),
   midi.NoteOnEvent(tick=0, channel=0, data=[82, 94]),
   midi.NoteOnEvent(tick=120, channel=0, data=[82, 0]),
   midi.NoteOnEvent(tick=0, channel=0, data=[86, 101]),
   midi.NoteOnEvent(tick=120, channel=0, data=[86, 0]),
   midi.NoteOnEvent(tick=0, channel=0, data=[82, 93]),
   midi.NoteOnEvent(tick=120, channel=0, data=[82, 0]),
   midi.NoteOnEvent(tick=0, channel=0, data=[74, 109]),
   midi.NoteOnEvent(tick=120, channel=0, data=[74, 0]),
   midi.NoteOnEvent(tick=0, channel=0, data=[82, 95]),
   midi.NoteOnEvent(tick=120, channel=0, data=[82, 0]),
   midi.NoteOnEvent(tick=0, channel=0, data=[86, 100]),
   midi.NoteOnEvent(tick=120, channel=0, data=[86, 0]),
   midi.NoteOnEvent(tick=0, channel=0, data=[82, 95]),
   midi.NoteOnEvent(tick=120, channel=0, data=[82, 0]),
   midi.NoteOnEvent(tick=0, channel=0, data=[86, 104]),
   midi.NoteOnEvent(tick=120, channel=0, data=[86, 0]),
   midi.NoteOnEvent(tick=0, channel=0, data=[82, 95]),
   midi.NoteOnEvent(tick=120, channel=0, data=[82, 0]),
   midi.NoteOnEvent(tick=0, channel=0, data=[86, 100]),
   midi.NoteOnEvent(tick=120, channel=0, data=[86, 0]),
   midi.NoteOnEvent(tick=0, channel=0, data=[82, 95]),
   midi.NoteOnEvent(tick=120, channel=0, data=[82, 0]),
   midi.NoteOnEvent(tick=0, channel=0, data=[82, 99]),
   midi.NoteOnEvent(tick=0, channel=0, data=[86, 99]),
   midi.NoteOnEvent(tick=0, channel=0, data=[74, 99]),
   midi.NoteOnEvent(tick=0, channel=0, data=[77, 99]),
   midi.NoteOnEvent(tick=480, channel=0, data=[77, 0]),
   midi.NoteOnEvent(tick=0, channel=0, data=[74, 0]),
   midi.NoteOnEvent(tick=0, channel=0, data=[82, 0]),
   midi.NoteOnEvent(tick=480, channel=0, data=[86, 0]),
   midi.NoteOnEvent(tick=240, channel=0, data=[65, 57]),
   midi.NoteOnEvent(tick=120, channel=0, data=[65, 0]),
   midi.NoteOnEvent(tick=0, channel=0, data=[69, 59]),
   midi.NoteOnEvent(tick=120, channel=0, data=[69, 0]),
   midi.NoteOnEvent(tick=0, channel=0, data=[67, 61]),
   midi.NoteOnEvent(tick=120, channel=0, data=[67, 0]),
   midi.NoteOnEvent(tick=0, channel=0, data=[70, 62]),
   midi.NoteOnEvent(tick=120, channel=0, data=[70, 0]),
   midi.NoteOnEvent(tick=0, channel=0, data=[69, 64]),
   midi.NoteOnEvent(tick=120, channel=0, data=[69, 0]),
   midi.NoteOnEvent(tick=0, channel=0, data=[72, 66]),
   midi.NoteOnEvent(tick=120, channel=0, data=[72, 0]),
   midi.NoteOnEvent(tick=0, channel=0, data=[70, 68]),
   midi.NoteOnEvent(tick=120, channel=0, data=[70, 0]),
   midi.NoteOnEvent(tick=120, channel=0, data=[69, 54]),
   midi.NoteOnEvent(tick=120, channel=0, data=[69, 0]),
   midi.NoteOnEvent(tick=0, channel=0, data=[72, 56]),
   midi.NoteOnEvent(tick=120, channel=0, data=[72, 0]),
   midi.NoteOnEvent(tick=0, channel=0, data=[70, 58]),
   midi.NoteOnEvent(tick=120, channel=0, data=[70, 0]),
   midi.NoteOnEvent(tick=0, channel=0, data=[74, 60]),
   midi.NoteOnEvent(tick=120, channel=0, data=[74, 0]),
   midi.NoteOnEvent(tick=0, channel=0, data=[72, 61]),
   midi.NoteOnEvent(tick=120, channel=0, data=[72, 0]),
   midi.NoteOnEvent(tick=0, channel=0, data=[75, 63]),
   midi.NoteOnEvent(tick=120, channel=0, data=[75, 0]),
   midi.NoteOnEvent(tick=0, channel=0, data=[74, 65]),
   midi.NoteOnEvent(tick=120, channel=0, data=[74, 0]),
   midi.NoteOnEvent(tick=120, channel=0, data=[72, 56]),
   midi.NoteOnEvent(tick=120, channel=0, data=[72, 0]),
   midi.NoteOnEvent(tick=0, channel=0, data=[75, 58]),
   midi.NoteOnEvent(tick=120, channel=0, data=[75, 0]),
   midi.NoteOnEvent(tick=0, channel=0, data=[74, 59]),
   midi.NoteOnEvent(tick=120, channel=0, data=[74, 0]),
   midi.NoteOnEvent(tick=0, channel=0, data=[77, 60]),
   midi.NoteOnEvent(tick=120, channel=0, data=[77, 0]),
   midi.NoteOnEvent(tick=0, channel=0, data=[75, 62]),
   midi.NoteOnEvent(tick=120, channel=0, data=[75, 0]),
   midi.NoteOnEvent(tick=0, channel=0, data=[79, 63]),
   midi.NoteOnEvent(tick=120, channel=0, data=[79, 0]),
   midi.ControlChangeEvent(tick=0, channel=0, data=[91, 127]),
   midi.NoteOnEvent(tick=1, channel=0, data=[77, 69]),
   midi.NoteOnEvent(tick=719, channel=0, data=[74, 66]),
   midi.NoteOnEvent(tick=1, channel=0, data=[77, 0]),
   midi.NoteOnEvent(tick=239, channel=0, data=[74, 0]),
   midi.NoteOnEvent(tick=0, channel=0, data=[70, 70]),
   midi.NoteOnEvent(tick=240, channel=0, data=[70, 0]),
   midi.NoteOnEvent(tick=240, channel=0, data=[70, 70]),
   midi.NoteOnEvent(tick=240, channel=0, data=[70, 0]),
   midi.NoteOnEvent(tick=240, channel=0, data=[75, 76]),
   midi.NoteOnEvent(tick=96, channel=0, data=[75, 0]),
   midi.NoteOnEvent(tick=0, channel=0, data=[77, 54]),
   midi.NoteOnEvent(tick=96, channel=0, data=[77, 0]),
   midi.NoteOnEvent(tick=0, channel=0, data=[75, 54]),
   midi.NoteOnEvent(tick=96, channel=0, data=[75, 0]),
   midi.NoteOnEvent(tick=0, channel=0, data=[74, 54]),
   midi.NoteOnEvent(tick=96, channel=0, data=[74, 0]),
   midi.NoteOnEvent(tick=0, channel=0, data=[75, 54]),
   midi.NoteOnEvent(tick=96, channel=0, data=[75, 0]),
   midi.NoteOnEvent(tick=0, channel=0, data=[79, 70]),
   midi.NoteOnEvent(tick=480, channel=0, data=[79, 0]),
   midi.NoteOnEvent(tick=0, channel=0, data=[69, 72]),
   midi.NoteOnEvent(tick=480, channel=0, data=[69, 0]),
   midi.ControlChangeEvent(tick=480, channel=0, data=[91, 127]),
   midi.NoteOnEvent(tick=1, channel=0, data=[77, 68]),
   midi.NoteOnEvent(tick=719, channel=0, data=[73, 59]),
   midi.NoteOnEvent(tick=1, channel=0, data=[77, 0]),
   midi.NoteOnEvent(tick=239, channel=0, data=[73, 0]),
   midi.NoteOnEvent(tick=0, channel=0, data=[70, 63]),
   midi.NoteOnEvent(tick=240, channel=0, data=[70, 0]),
   midi.NoteOnEvent(tick=240, channel=0, data=[70, 63]),
   midi.NoteOnEvent(tick=240, channel=0, data=[70, 0]),
   midi.NoteOnEvent(tick=240, channel=0, data=[75, 68]),
   midi.NoteOnEvent(tick=96, channel=0, data=[75, 0]),
   midi.NoteOnEvent(tick=0, channel=0, data=[77, 48]),
   midi.NoteOnEvent(tick=96, channel=0, data=[77, 0]),
   midi.NoteOnEvent(tick=0, channel=0, data=[75, 48]),
   midi.NoteOnEvent(tick=96, channel=0, data=[75, 0]),
   midi.NoteOnEvent(tick=0, channel=0, data=[74, 48]),
   midi.NoteOnEvent(tick=96, channel=0, data=[74, 0]),
   midi.NoteOnEvent(tick=0, channel=0, data=[75, 48]),
   midi.NoteOnEvent(tick=96, channel=0, data=[75, 0]),
   midi.NoteOnEvent(tick=0, channel=0, data=[78, 63]),
   midi.NoteOnEvent(tick=480, channel=0, data=[78, 0]),
   midi.NoteOnEvent(tick=0, channel=0, data=[69, 64]),
   midi.NoteOnEvent(tick=480, channel=0, data=[69, 0]),
   midi.NoteOnEvent(tick=480, channel=0, data=[70, 76]),
   midi.NoteOnEvent(tick=120, channel=0, data=[70, 0]),
   midi.NoteOnEvent(tick=120, channel=0, data=[82, 79]),
   midi.NoteOnEvent(tick=240, channel=0, data=[82, 0]),
   midi.NoteOnEvent(tick=0, channel=0, data=[84, 81]),
   midi.NoteOnEvent(tick=240, channel=0, data=[84, 0]),
   midi.NoteOnEvent(tick=0, channel=0, data=[85, 77]),
   midi.NoteOnEvent(tick=240, channel=0, data=[85, 0]),
   midi.NoteOnEvent(tick=0, channel=0, data=[84, 84]),
   midi.NoteOnEvent(tick=240, channel=0, data=[84, 0]),
   midi.NoteOnEvent(tick=0, channel=0, data=[82, 77]),
   midi.NoteOnEvent(tick=240, channel=0, data=[82, 0]),
   midi.NoteOnEvent(tick=0, channel=0, data=[80, 79]),
   midi.NoteOnEvent(tick=240, channel=0, data=[80, 0]),
   midi.NoteOnEvent(tick=0, channel=0, data=[78, 78]),
   midi.NoteOnEvent(tick=240, channel=0, data=[78, 0]),
   midi.NoteOnEvent(tick=0, channel=0, data=[77, 76]),
   midi.NoteOnEvent(tick=960, channel=0, data=[77, 0]),
   midi.NoteOnEvent(tick=0, channel=0, data=[76, 72]),
   midi.NoteOnEvent(tick=960, channel=0, data=[76, 0]),
   midi.NoteOnEvent(tick=0, channel=0, data=[77, 86]),
   midi.NoteOnEvent(tick=120, channel=0, data=[77, 0]),
   midi.NoteOnEvent(tick=120, channel=0, data=[77, 86]),
   midi.NoteOnEvent(tick=120, channel=0, data=[77, 0]),
   midi.NoteOnEvent(tick=360, channel=0, data=[77, 60]),
   midi.NoteOnEvent(tick=120, channel=0, data=[77, 0]),
   midi.NoteOnEvent(tick=120, channel=0, data=[77, 65]),
   midi.NoteOnEvent(tick=120, channel=0, data=[77, 0]),
   midi.NoteOnEvent(tick=120, channel=0, data=[77, 60]),
   midi.NoteOnEvent(tick=120, channel=0, data=[77, 0]),
   midi.NoteOnEvent(tick=360, channel=0, data=[77, 60]),
   midi.NoteOnEvent(tick=120, channel=0, data=[77, 0]),
   midi.NoteOnEvent(tick=120, channel=0, data=[77, 65]),
   midi.NoteOnEvent(tick=120, channel=0, data=[77, 0]),
   midi.NoteOnEvent(tick=120, channel=0, data=[77, 60]),
   midi.NoteOnEvent(tick=120, channel=0, data=[77, 0]),
   midi.NoteOnEvent(tick=360, channel=0, data=[77, 64]),
   midi.NoteOnEvent(tick=120, channel=0, data=[77, 0]),
   midi.NoteOnEvent(tick=120, channel=0, data=[77, 66]),
   midi.NoteOnEvent(tick=120, channel=0, data=[77, 0]),
   midi.NoteOnEvent(tick=120, channel=0, data=[77, 64]),
   midi.NoteOnEvent(tick=120, channel=0, data=[77, 0]),
   midi.NoteOnEvent(tick=360, channel=0, data=[77, 69]),
   midi.NoteOnEvent(tick=120, channel=0, data=[77, 0]),
   midi.NoteOnEvent(tick=120, channel=0, data=[77, 72]),
   midi.NoteOnEvent(tick=120, channel=0, data=[77, 0]),
   midi.NoteOnEvent(tick=120, channel=0, data=[77, 72]),
   midi.NoteOnEvent(tick=120, channel=0, data=[77, 0]),
   midi.NoteOnEvent(tick=360, channel=0, data=[77, 79]),
   midi.NoteOnEvent(tick=120, channel=0, data=[77, 0]),
   midi.NoteOnEvent(tick=120, channel=0, data=[77, 82]),
   midi.NoteOnEvent(tick=120, channel=0, data=[77, 0]),
   midi.NoteOnEvent(tick=120, channel=0, data=[77, 84]),
   midi.NoteOnEvent(tick=120, channel=0, data=[77, 0]),
   midi.NoteOnEvent(tick=360, channel=0, data=[77, 86]),
   midi.NoteOnEvent(tick=120, channel=0, data=[77, 0]),
   midi.NoteOnEvent(tick=120, channel=0, data=[77, 86]),
   midi.NoteOnEvent(tick=240, channel=0, data=[77, 0]),
   midi.NoteOnEvent(tick=0, channel=0, data=[81, 81]),
   midi.NoteOnEvent(tick=120, channel=0, data=[81, 0]),
   midi.NoteOnEvent(tick=120, channel=0, data=[81, 86]),
   midi.NoteOnEvent(tick=240, channel=0, data=[81, 0]),
   midi.NoteOnEvent(tick=0, channel=0, data=[84, 81]),
   midi.NoteOnEvent(tick=120, channel=0, data=[84, 0]),
   midi.NoteOnEvent(tick=120, channel=0, data=[84, 86]),
   midi.NoteOnEvent(tick=240, channel=0, data=[84, 0]),
   midi.NoteOnEvent(tick=0, channel=0, data=[87, 81]),
   midi.NoteOnEvent(tick=120, channel=0, data=[87, 0]),
   midi.NoteOnEvent(tick=120, channel=0, data=[87, 86]),
   midi.NoteOnEvent(tick=240, channel=0, data=[87, 0]),
   midi.NoteOnEvent(tick=0, channel=0, data=[84, 75]),
   midi.NoteOnEvent(tick=120, channel=0, data=[84, 0]),
   midi.NoteOnEvent(tick=120, channel=0, data=[84, 81]),
   midi.NoteOnEvent(tick=240, channel=0, data=[84, 0]),
   midi.NoteOnEvent(tick=0, channel=0, data=[81, 73]),
   midi.NoteOnEvent(tick=120, channel=0, data=[81, 0]),
   midi.NoteOnEvent(tick=120, channel=0, data=[81, 79]),
   midi.NoteOnEvent(tick=240, channel=0, data=[81, 0]),
   midi.NoteOnEvent(tick=0, channel=0, data=[77, 71]),
   midi.NoteOnEvent(tick=120, channel=0, data=[77, 0]),
   midi.NoteOnEvent(tick=120, channel=0, data=[77, 68]),
   midi.NoteOnEvent(tick=240, channel=0, data=[77, 0]),
   midi.NoteOnEvent(tick=0, channel=0, data=[76, 57]),
   midi.NoteOnEvent(tick=120, channel=0, data=[76, 0]),
   midi.NoteOnEvent(tick=120, channel=0, data=[76, 60]),
   midi.NoteOnEvent(tick=240, channel=0, data=[76, 0]),
   midi.NoteOnEvent(tick=0, channel=0, data=[77, 57]),
   midi.NoteOnEvent(tick=120, channel=0, data=[77, 0]),
   midi.NoteOnEvent(tick=120, channel=0, data=[77, 57]),
   midi.NoteOnEvent(tick=240, channel=0, data=[77, 0]),
   midi.NoteOnEvent(tick=0, channel=0, data=[76, 56]),
   midi.NoteOnEvent(tick=240, channel=0, data=[76, 0]),
   midi.NoteOnEvent(tick=0, channel=0, data=[75, 54]),
   midi.NoteOnEvent(tick=960, channel=0, data=[75, 0]),
   midi.NoteOnEvent(tick=0, channel=0, data=[75, 66]),
   midi.NoteOnEvent(tick=960, channel=0, data=[75, 0]),
   midi.NoteOnEvent(tick=0, channel=0, data=[75, 68]),
   midi.NoteOnEvent(tick=360, channel=0, data=[75, 0]),
   midi.NoteOnEvent(tick=120, channel=0, data=[75, 70]),
   midi.NoteOnEvent(tick=360, channel=0, data=[75, 0]),
   midi.NoteOnEvent(tick=120, channel=0, data=[75, 76]),
   midi.NoteOnEvent(tick=360, channel=0, data=[75, 0]),
   midi.NoteOnEvent(tick=120, channel=0, data=[74, 84]),
   midi.NoteOnEvent(tick=480, channel=0, data=[74, 0]),
   midi.NoteOnEvent(tick=0, channel=0, data=[68, 58]),
   midi.NoteOnEvent(tick=0, channel=0, data=[77, 58]),
   midi.NoteOnEvent(tick=480, channel=0, data=[77, 0]),
   midi.NoteOnEvent(tick=0, channel=0, data=[68, 0]),
   midi.NoteOnEvent(tick=0, channel=0, data=[75, 54]),
   midi.NoteOnEvent(tick=0, channel=0, data=[67, 54]),
   midi.NoteOnEvent(tick=480, channel=0, data=[67, 0]),
   midi.NoteOnEvent(tick=0, channel=0, data=[75, 0]),
   midi.NoteOnEvent(tick=0, channel=0, data=[66, 48]),
   midi.NoteOnEvent(tick=0, channel=0, data=[74, 48]),
   midi.NoteOnEvent(tick=480, channel=0, data=[74, 0]),
   midi.NoteOnEvent(tick=0, channel=0, data=[66, 0]),
   midi.NoteOnEvent(tick=0, channel=0, data=[67, 48]),
   midi.NoteOnEvent(tick=0, channel=0, data=[75, 48]),
   midi.NoteOnEvent(tick=480, channel=0, data=[75, 0]),
   midi.NoteOnEvent(tick=0, channel=0, data=[67, 0]),
   midi.NoteOnEvent(tick=0, channel=0, data=[79, 56]),
   midi.NoteOnEvent(tick=0, channel=0, data=[70, 56]),
   midi.NoteOnEvent(tick=480, channel=0, data=[70, 0]),
   midi.NoteOnEvent(tick=0, channel=0, data=[79, 0]),
   midi.NoteOnEvent(tick=0, channel=0, data=[77, 54]),
   midi.NoteOnEvent(tick=0, channel=0, data=[68, 54]),
   midi.NoteOnEvent(tick=480, channel=0, data=[68, 0]),
   midi.NoteOnEvent(tick=0, channel=0, data=[77, 0]),
   midi.NoteOnEvent(tick=0, channel=0, data=[76, 51]),
   midi.NoteOnEvent(tick=0, channel=0, data=[67, 51]),
   midi.NoteOnEvent(tick=480, channel=0, data=[67, 0]),
   midi.NoteOnEvent(tick=0, channel=0, data=[76, 0]),
   midi.NoteOnEvent(tick=0, channel=0, data=[68, 56]),
   midi.NoteOnEvent(tick=0, channel=0, data=[77, 56]),
   midi.NoteOnEvent(tick=480, channel=0, data=[77, 0]),
   midi.NoteOnEvent(tick=0, channel=0, data=[68, 0]),
   midi.NoteOnEvent(tick=0, channel=0, data=[80, 63]),
   midi.NoteOnEvent(tick=0, channel=0, data=[77, 63]),
   midi.NoteOnEvent(tick=480, channel=0, data=[77, 0]),
   midi.NoteOnEvent(tick=0, channel=0, data=[80, 0]),
   midi.NoteOnEvent(tick=0, channel=0, data=[79, 69]),
   midi.NoteOnEvent(tick=0, channel=0, data=[75, 69]),
   midi.NoteOnEvent(tick=480, channel=0, data=[75, 0]),
   midi.NoteOnEvent(tick=0, channel=0, data=[79, 0]),
   midi.NoteOnEvent(tick=0, channel=0, data=[77, 78]),
   midi.NoteOnEvent(tick=0, channel=0, data=[74, 78]),
   midi.NoteOnEvent(tick=480, channel=0, data=[74, 0]),
   midi.NoteOnEvent(tick=0, channel=0, data=[77, 0]),
   midi.NoteOnEvent(tick=0, channel=0, data=[79, 78]),
   midi.NoteOnEvent(tick=0, channel=0, data=[74, 66]),
   midi.NoteOnEvent(tick=0, channel=0, data=[77, 78]),
   midi.NoteOnEvent(tick=120, channel=0, data=[77, 0]),
   midi.NoteOnEvent(tick=0, channel=0, data=[74, 0]),
   midi.NoteOnEvent(tick=0, channel=0, data=[79, 0]),
   midi.NoteOnEvent(tick=120, channel=0, data=[79, 78]),
   midi.NoteOnEvent(tick=0, channel=0, data=[74, 66]),
   midi.NoteOnEvent(tick=0, channel=0, data=[77, 78]),
   midi.NoteOnEvent(tick=120, channel=0, data=[77, 0]),
   midi.NoteOnEvent(tick=0, channel=0, data=[74, 0]),
   midi.NoteOnEvent(tick=0, channel=0, data=[79, 0]),
   midi.NoteOnEvent(tick=360, channel=0, data=[74, 66]),
   midi.NoteOnEvent(tick=0, channel=0, data=[77, 78]),
   midi.NoteOnEvent(tick=0, channel=0, data=[79, 78]),
   midi.NoteOnEvent(tick=240, channel=0, data=[79, 0]),
   midi.NoteOnEvent(tick=0, channel=0, data=[77, 0]),
   midi.NoteOnEvent(tick=0, channel=0, data=[74, 0]),
   midi.NoteOnEvent(tick=0, channel=0, data=[75, 69]),
   midi.NoteOnEvent(tick=0, channel=0, data=[79, 69]),
   midi.NoteOnEvent(tick=0, channel=0, data=[87, 82]),
   midi.NoteOnEvent(tick=120, channel=0, data=[87, 0]),
   midi.NoteOnEvent(tick=0, channel=0, data=[79, 0]),
   midi.NoteOnEvent(tick=0, channel=0, data=[75, 0]),
   midi.NoteOnEvent(tick=120, channel=0, data=[79, 66]),
   midi.NoteOnEvent(tick=0, channel=0, data=[87, 78]),
   midi.NoteOnEvent(tick=0, channel=0, data=[75, 66]),
   midi.NoteOnEvent(tick=120, channel=0, data=[75, 0]),
   midi.NoteOnEvent(tick=0, channel=0, data=[87, 0]),
   midi.NoteOnEvent(tick=0, channel=0, data=[79, 0]),
   midi.NoteOnEvent(tick=360, channel=0, data=[79, 75]),
   midi.NoteOnEvent(tick=0, channel=0, data=[72, 63]),
   midi.NoteOnEvent(tick=0, channel=0, data=[75, 63]),
   midi.NoteOnEvent(tick=240, channel=0, data=[75, 0]),
   midi.NoteOnEvent(tick=0, channel=0, data=[72, 0]),
   midi.NoteOnEvent(tick=0, channel=0, data=[79, 0]),
   midi.NoteOnEvent(tick=0, channel=0, data=[75, 78]),
   midi.NoteOnEvent(tick=0, channel=0, data=[72, 66]),
   midi.NoteOnEvent(tick=0, channel=0, data=[77, 78]),
   midi.NoteOnEvent(tick=120, channel=0, data=[77, 0]),
   midi.NoteOnEvent(tick=0, channel=0, data=[72, 0]),
   midi.NoteOnEvent(tick=0, channel=0, data=[75, 0]),
   midi.NoteOnEvent(tick=120, channel=0, data=[72, 63]),
   midi.NoteOnEvent(tick=0, channel=0, data=[75, 75]),
   midi.NoteOnEvent(tick=0, channel=0, data=[77, 75]),
   midi.NoteOnEvent(tick=120, channel=0, data=[77, 0]),
   midi.NoteOnEvent(tick=0, channel=0, data=[75, 0]),
   midi.NoteOnEvent(tick=0, channel=0, data=[72, 0]),
   midi.NoteOnEvent(tick=360, channel=0, data=[75, 82]),
   midi.NoteOnEvent(tick=0, channel=0, data=[72, 69]),
   midi.NoteOnEvent(tick=0, channel=0, data=[77, 82]),
   midi.NoteOnEvent(tick=240, channel=0, data=[77, 0]),
   midi.NoteOnEvent(tick=0, channel=0, data=[72, 0]),
   midi.NoteOnEvent(tick=0, channel=0, data=[75, 0]),
   midi.NoteOnEvent(tick=0, channel=0, data=[74, 73]),
   midi.NoteOnEvent(tick=0, channel=0, data=[77, 73]),
   midi.NoteOnEvent(tick=0, channel=0, data=[86, 86]),
   midi.NoteOnEvent(tick=120, channel=0, data=[86, 0]),
   midi.NoteOnEvent(tick=0, channel=0, data=[77, 0]),
   midi.NoteOnEvent(tick=0, channel=0, data=[74, 0]),
   midi.NoteOnEvent(tick=120, channel=0, data=[74, 68]),
   midi.NoteOnEvent(tick=0, channel=0, data=[77, 68]),
   midi.NoteOnEvent(tick=0, channel=0, data=[86, 81]),
   midi.NoteOnEvent(tick=120, channel=0, data=[86, 0]),
   midi.NoteOnEvent(tick=0, channel=0, data=[77, 0]),
   midi.NoteOnEvent(tick=0, channel=0, data=[74, 0]),
   midi.NoteOnEvent(tick=360, channel=0, data=[70, 63]),
   midi.NoteOnEvent(tick=0, channel=0, data=[77, 75]),
   midi.NoteOnEvent(tick=0, channel=0, data=[74, 63]),
   midi.NoteOnEvent(tick=240, channel=0, data=[74, 0]),
   midi.NoteOnEvent(tick=0, channel=0, data=[77, 0]),
   midi.NoteOnEvent(tick=0, channel=0, data=[70, 0]),
   midi.NoteOnEvent(tick=0, channel=0, data=[74, 78]),
   midi.NoteOnEvent(tick=0, channel=0, data=[70, 66]),
   midi.NoteOnEvent(tick=0, channel=0, data=[75, 78]),
   midi.NoteOnEvent(tick=120, channel=0, data=[75, 0]),
   midi.NoteOnEvent(tick=0, channel=0, data=[70, 0]),
   midi.NoteOnEvent(tick=0, channel=0, data=[74, 0]),
   midi.NoteOnEvent(tick=120, channel=0, data=[70, 62]),
   midi.NoteOnEvent(tick=0, channel=0, data=[75, 74]),
   midi.NoteOnEvent(tick=0, channel=0, data=[74, 74]),
   midi.NoteOnEvent(tick=120, channel=0, data=[74, 0]),
   midi.NoteOnEvent(tick=0, channel=0, data=[75, 0]),
   midi.NoteOnEvent(tick=0, channel=0, data=[70, 0]),
   midi.NoteOnEvent(tick=360, channel=0, data=[75, 79]),
   midi.NoteOnEvent(tick=0, channel=0, data=[74, 79]),
   midi.NoteOnEvent(tick=0, channel=0, data=[70, 67]),
   midi.NoteOnEvent(tick=240, channel=0, data=[70, 0]),
   midi.NoteOnEvent(tick=0, channel=0, data=[74, 0]),
   midi.NoteOnEvent(tick=0, channel=0, data=[75, 0]),
   midi.NoteOnEvent(tick=0, channel=0, data=[84, 84]),
   midi.NoteOnEvent(tick=0, channel=0, data=[72, 71]),
   midi.NoteOnEvent(tick=0, channel=0, data=[75, 71]),
   midi.NoteOnEvent(tick=120, channel=0, data=[75, 0]),
   midi.NoteOnEvent(tick=0, channel=0, data=[72, 0]),
   midi.NoteOnEvent(tick=0, channel=0, data=[84, 0]),
   midi.NoteOnEvent(tick=120, channel=0, data=[72, 65]),
   midi.NoteOnEvent(tick=0, channel=0, data=[84, 77]),
   midi.NoteOnEvent(tick=0, channel=0, data=[75, 65]),
   midi.NoteOnEvent(tick=120, channel=0, data=[75, 0]),
   midi.NoteOnEvent(tick=0, channel=0, data=[84, 0]),
   midi.NoteOnEvent(tick=0, channel=0, data=[72, 0]),
   midi.NoteOnEvent(tick=360, channel=0, data=[75, 74]),
   midi.NoteOnEvent(tick=0, channel=0, data=[69, 62]),
   midi.NoteOnEvent(tick=0, channel=0, data=[72, 62]),
   midi.NoteOnEvent(tick=240, channel=0, data=[72, 0]),
   midi.NoteOnEvent(tick=0, channel=0, data=[69, 0]),
   midi.NoteOnEvent(tick=0, channel=0, data=[75, 0]),
   midi.NoteOnEvent(tick=0, channel=0, data=[69, 66]),
   midi.NoteOnEvent(tick=0, channel=0, data=[72, 78]),
   midi.NoteOnEvent(tick=0, channel=0, data=[74, 78]),
   midi.NoteOnEvent(tick=120, channel=0, data=[74, 0]),
   midi.NoteOnEvent(tick=0, channel=0, data=[72, 0]),
   midi.NoteOnEvent(tick=0, channel=0, data=[69, 0]),
   midi.NoteOnEvent(tick=120, channel=0, data=[74, 74]),
   midi.NoteOnEvent(tick=0, channel=0, data=[72, 74]),
   midi.NoteOnEvent(tick=0, channel=0, data=[69, 62]),
   midi.NoteOnEvent(tick=120, channel=0, data=[69, 0]),
   midi.NoteOnEvent(tick=0, channel=0, data=[72, 0]),
   midi.NoteOnEvent(tick=0, channel=0, data=[74, 0]),
   midi.NoteOnEvent(tick=360, channel=0, data=[69, 64]),
   midi.NoteOnEvent(tick=0, channel=0, data=[72, 76]),
   midi.NoteOnEvent(tick=0, channel=0, data=[74, 76]),
   midi.NoteOnEvent(tick=240, channel=0, data=[74, 0]),
   midi.NoteOnEvent(tick=0, channel=0, data=[72, 0]),
   midi.NoteOnEvent(tick=0, channel=0, data=[69, 0]),
   midi.NoteOnEvent(tick=0, channel=0, data=[82, 83]),
   midi.NoteOnEvent(tick=0, channel=0, data=[74, 70]),
   midi.NoteOnEvent(tick=0, channel=0, data=[70, 70]),
   midi.NoteOnEvent(tick=120, channel=0, data=[70, 0]),
   midi.NoteOnEvent(tick=0, channel=0, data=[74, 0]),
   midi.NoteOnEvent(tick=0, channel=0, data=[82, 0]),
   midi.NoteOnEvent(tick=120, channel=0, data=[70, 65]),
   midi.NoteOnEvent(tick=0, channel=0, data=[82, 77]),
   midi.NoteOnEvent(tick=0, channel=0, data=[74, 65]),
   midi.NoteOnEvent(tick=120, channel=0, data=[74, 0]),
   midi.NoteOnEvent(tick=0, channel=0, data=[82, 0]),
   midi.NoteOnEvent(tick=0, channel=0, data=[70, 0]),
   midi.NoteOnEvent(tick=360, channel=0, data=[74, 75]),
   midi.NoteOnEvent(tick=0, channel=0, data=[70, 63]),
   midi.NoteOnEvent(tick=0, channel=0, data=[67, 63]),
   midi.NoteOnEvent(tick=240, channel=0, data=[67, 0]),
   midi.NoteOnEvent(tick=0, channel=0, data=[70, 0]),
   midi.NoteOnEvent(tick=0, channel=0, data=[74, 0]),
   midi.NoteOnEvent(tick=0, channel=0, data=[67, 66]),
   midi.NoteOnEvent(tick=0, channel=0, data=[72, 78]),
   midi.NoteOnEvent(tick=0, channel=0, data=[70, 78]),
   midi.NoteOnEvent(tick=120, channel=0, data=[70, 0]),
   midi.NoteOnEvent(tick=0, channel=0, data=[72, 0]),
   midi.NoteOnEvent(tick=0, channel=0, data=[67, 0]),
   midi.NoteOnEvent(tick=120, channel=0, data=[72, 75]),
   midi.NoteOnEvent(tick=0, channel=0, data=[67, 63]),
   midi.NoteOnEvent(tick=0, channel=0, data=[70, 75]),
   midi.NoteOnEvent(tick=120, channel=0, data=[70, 0]),
   midi.NoteOnEvent(tick=0, channel=0, data=[67, 0]),
   midi.NoteOnEvent(tick=0, channel=0, data=[72, 0]),
   midi.NoteOnEvent(tick=360, channel=0, data=[72, 78]),
   midi.NoteOnEvent(tick=240, channel=0, data=[72, 0]),
   midi.NoteOnEvent(tick=0, channel=0, data=[82, 86]),
   midi.NoteOnEvent(tick=120, channel=0, data=[82, 0]),
   midi.NoteOnEvent(tick=120, channel=0, data=[82, 82]),
   midi.NoteOnEvent(tick=120, channel=0, data=[82, 0]),
   midi.NoteOnEvent(tick=120, channel=0, data=[82, 84]),
   midi.NoteOnEvent(tick=240, channel=0, data=[82, 0]),
   midi.NoteOnEvent(tick=0, channel=0, data=[72, 76]),
   midi.NoteOnEvent(tick=240, channel=0, data=[72, 0]),
   midi.NoteOnEvent(tick=0, channel=0, data=[74, 79]),
   midi.NoteOnEvent(tick=120, channel=0, data=[74, 0]),
   midi.NoteOnEvent(tick=120, channel=0, data=[74, 79]),
   midi.NoteOnEvent(tick=120, channel=0, data=[74, 0]),
   midi.NoteOnEvent(tick=360, channel=0, data=[74, 74]),
   midi.NoteOnEvent(tick=240, channel=0, data=[74, 0]),
   midi.NoteOnEvent(tick=0, channel=0, data=[82, 86]),
   midi.NoteOnEvent(tick=120, channel=0, data=[82, 0]),
   midi.NoteOnEvent(tick=120, channel=0, data=[82, 82]),
   midi.NoteOnEvent(tick=120, channel=0, data=[82, 0]),
   midi.NoteOnEvent(tick=120, channel=0, data=[82, 82]),
   midi.NoteOnEvent(tick=240, channel=0, data=[82, 0]),
   midi.NoteOnEvent(tick=0, channel=0, data=[74, 76]),
   midi.NoteOnEvent(tick=240, channel=0, data=[74, 0]),
   midi.NoteOnEvent(tick=0, channel=0, data=[75, 80]),
   midi.NoteOnEvent(tick=120, channel=0, data=[75, 0]),
   midi.NoteOnEvent(tick=120, channel=0, data=[75, 80]),
   midi.NoteOnEvent(tick=120, channel=0, data=[75, 0]),
   midi.NoteOnEvent(tick=360, channel=0, data=[76, 77]),
   midi.NoteOnEvent(tick=240, channel=0, data=[76, 0]),
   midi.NoteOnEvent(tick=0, channel=0, data=[77, 82]),
   midi.NoteOnEvent(tick=120, channel=0, data=[77, 0]),
   midi.NoteOnEvent(tick=120, channel=0, data=[77, 82]),
   midi.NoteOnEvent(tick=120, channel=0, data=[77, 0]),
   midi.NoteOnEvent(tick=360, channel=0, data=[78, 79]),
   midi.NoteOnEvent(tick=240, channel=0, data=[78, 0]),
   midi.NoteOnEvent(tick=0, channel=0, data=[79, 80]),
   midi.NoteOnEvent(tick=120, channel=0, data=[79, 0]),
   midi.NoteOnEvent(tick=120, channel=0, data=[79, 82]),
   midi.NoteOnEvent(tick=120, channel=0, data=[79, 0]),
   midi.NoteOnEvent(tick=120, channel=0, data=[81, 83]),
   midi.NoteOnEvent(tick=120, channel=0, data=[81, 0]),
   midi.NoteOnEvent(tick=120, channel=0, data=[81, 85]),
   midi.NoteOnEvent(tick=120, channel=0, data=[81, 0]),
   midi.NoteOnEvent(tick=120, channel=0, data=[82, 86]),
   midi.NoteOnEvent(tick=120, channel=0, data=[82, 0]),
   midi.NoteOnEvent(tick=120, channel=0, data=[82, 88]),
   midi.NoteOnEvent(tick=120, channel=0, data=[82, 0]),
   midi.NoteOnEvent(tick=120, channel=0, data=[84, 89]),
   midi.NoteOnEvent(tick=120, channel=0, data=[84, 0]),
   midi.NoteOnEvent(tick=120, channel=0, data=[84, 91]),
   midi.NoteOnEvent(tick=120, channel=0, data=[84, 0]),
   midi.NoteOnEvent(tick=120, channel=0, data=[85, 98]),
   midi.NoteOnEvent(tick=720, channel=0, data=[85, 0]),
   midi.NoteOnEvent(tick=0, channel=0, data=[84, 84]),
   midi.NoteOnEvent(tick=60, channel=0, data=[84, 0]),
   midi.NoteOnEvent(tick=0, channel=0, data=[82, 87]),
   midi.NoteOnEvent(tick=60, channel=0, data=[82, 0]),
   midi.NoteOnEvent(tick=0, channel=0, data=[81, 89]),
   midi.NoteOnEvent(tick=60, channel=0, data=[81, 0]),
   midi.NoteOnEvent(tick=0, channel=0, data=[82, 92]),
   midi.NoteOnEvent(tick=60, channel=0, data=[82, 0]),
   midi.NoteOnEvent(tick=0, channel=0, data=[85, 94]),
   midi.NoteOnEvent(tick=720, channel=0, data=[85, 0]),
   midi.NoteOnEvent(tick=0, channel=0, data=[84, 87]),
   midi.NoteOnEvent(tick=60, channel=0, data=[84, 0]),
   midi.NoteOnEvent(tick=0, channel=0, data=[82, 89]),
   midi.NoteOnEvent(tick=60, channel=0, data=[82, 0]),
   midi.NoteOnEvent(tick=0, channel=0, data=[81, 91]),
   midi.NoteOnEvent(tick=60, channel=0, data=[81, 0]),
   midi.NoteOnEvent(tick=0, channel=0, data=[82, 94]),
   midi.NoteOnEvent(tick=60, channel=0, data=[82, 0]),
   midi.NoteOnEvent(tick=0, channel=0, data=[85, 95]),
   midi.NoteOnEvent(tick=1080, channel=0, data=[85, 0]),
   midi.NoteOnEvent(tick=0, channel=0, data=[82, 87]),
   midi.NoteOnEvent(tick=120, channel=0, data=[82, 0]),
   midi.NoteOnEvent(tick=0, channel=0, data=[79, 86]),
   midi.NoteOnEvent(tick=120, channel=0, data=[79, 0]),
   midi.NoteOnEvent(tick=0, channel=0, data=[76, 84]),
   midi.NoteOnEvent(tick=120, channel=0, data=[76, 0]),
   midi.NoteOnEvent(tick=0, channel=0, data=[73, 83]),
   midi.NoteOnEvent(tick=120, channel=0, data=[73, 0]),
   midi.NoteOnEvent(tick=0, channel=0, data=[70, 82]),
   midi.NoteOnEvent(tick=120, channel=0, data=[70, 0]),
   midi.NoteOnEvent(tick=0, channel=0, data=[67, 81]),
   midi.NoteOnEvent(tick=120, channel=0, data=[67, 0]),
   midi.NoteOnEvent(tick=0, channel=0, data=[64, 79]),
   midi.NoteOnEvent(tick=120, channel=0, data=[64, 0]),
   midi.NoteOnEvent(tick=2072, channel=0, data=[62, 74]),
   midi.NoteOnEvent(tick=19, channel=0, data=[63, 76]),
   midi.NoteOnEvent(tick=10, channel=0, data=[62, 0]),
   midi.NoteOnEvent(tick=9, channel=0, data=[65, 78]),
   midi.NoteOnEvent(tick=10, channel=0, data=[63, 0]),
   midi.NoteOnEvent(tick=9, channel=0, data=[67, 79]),
   midi.NoteOnEvent(tick=10, channel=0, data=[65, 0]),
   midi.NoteOnEvent(tick=9, channel=0, data=[69, 81]),
   midi.NoteOnEvent(tick=10, channel=0, data=[67, 0]),
   midi.NoteOnEvent(tick=9, channel=0, data=[70, 83]),
   midi.NoteOnEvent(tick=10, channel=0, data=[69, 0]),
   midi.NoteOnEvent(tick=9, channel=0, data=[72, 84]),
   midi.NoteOnEvent(tick=10, channel=0, data=[70, 0]),
   midi.NoteOnEvent(tick=9, channel=0, data=[74, 86]),
   midi.NoteOnEvent(tick=10, channel=0, data=[72, 0]),
   midi.NoteOnEvent(tick=9, channel=0, data=[75, 88]),
   midi.NoteOnEvent(tick=10, channel=0, data=[74, 0]),
   midi.NoteOnEvent(tick=9, channel=0, data=[77, 89]),
   midi.NoteOnEvent(tick=10, channel=0, data=[75, 0]),
   midi.NoteOnEvent(tick=9, channel=0, data=[79, 91]),
   midi.NoteOnEvent(tick=10, channel=0, data=[77, 0]),
   midi.NoteOnEvent(tick=9, channel=0, data=[81, 93]),
   midi.NoteOnEvent(tick=10, channel=0, data=[79, 0]),
   midi.NoteOnEvent(tick=9, channel=0, data=[82, 94]),
   midi.NoteOnEvent(tick=10, channel=0, data=[81, 0]),
   midi.NoteOnEvent(tick=9, channel=0, data=[84, 94]),
   midi.NoteOnEvent(tick=10, channel=0, data=[82, 0]),
   midi.NoteOnEvent(tick=9, channel=0, data=[86, 96]),
   midi.NoteOnEvent(tick=10, channel=0, data=[84, 0]),
   midi.NoteOnEvent(tick=9, channel=0, data=[87, 98]),
   midi.NoteOnEvent(tick=10, channel=0, data=[86, 0]),
   midi.NoteOnEvent(tick=9, channel=0, data=[89, 99]),
   midi.NoteOnEvent(tick=10, channel=0, data=[87, 0]),
   midi.NoteOnEvent(tick=10, channel=0, data=[89, 0]),
   midi.NoteOnEvent(tick=484, channel=0, data=[70, 63]),
   midi.NoteOnEvent(tick=90, channel=0, data=[70, 0]),
   midi.NoteOnEvent(tick=30, channel=0, data=[70, 64]),
   midi.NoteOnEvent(tick=60, channel=0, data=[70, 0]),
   midi.NoteOnEvent(tick=0, channel=0, data=[72, 60]),
   midi.NoteOnEvent(tick=60, channel=0, data=[72, 0]),
   midi.NoteOnEvent(tick=0, channel=0, data=[74, 65]),
   midi.NoteOnEvent(tick=60, channel=0, data=[74, 0]),
   midi.NoteOnEvent(tick=0, channel=0, data=[72, 60]),
   midi.NoteOnEvent(tick=60, channel=0, data=[72, 0]),
   midi.NoteOnEvent(tick=0, channel=0, data=[74, 66]),
   midi.NoteOnEvent(tick=60, channel=0, data=[74, 0]),
   midi.NoteOnEvent(tick=0, channel=0, data=[72, 61]),
   midi.NoteOnEvent(tick=60, channel=0, data=[72, 0]),
   midi.NoteOnEvent(tick=0, channel=0, data=[74, 67]),
   midi.NoteOnEvent(tick=60, channel=0, data=[74, 0]),
   midi.NoteOnEvent(tick=0, channel=0, data=[72, 63]),
   midi.NoteOnEvent(tick=60, channel=0, data=[72, 0]),
   midi.NoteOnEvent(tick=0, channel=0, data=[74, 68]),
   midi.NoteOnEvent(tick=60, channel=0, data=[74, 0]),
   midi.NoteOnEvent(tick=0, channel=0, data=[72, 63]),
   midi.NoteOnEvent(tick=60, channel=0, data=[72, 0]),
   midi.NoteOnEvent(tick=0, channel=0, data=[74, 69]),
   midi.NoteOnEvent(tick=60, channel=0, data=[74, 0]),
   midi.NoteOnEvent(tick=0, channel=0, data=[72, 65]),
   midi.NoteOnEvent(tick=60, channel=0, data=[72, 0]),
   midi.NoteOnEvent(tick=0, channel=0, data=[74, 70]),
   midi.NoteOnEvent(tick=60, channel=0, data=[74, 0]),
   midi.NoteOnEvent(tick=0, channel=0, data=[72, 65]),
   midi.NoteOnEvent(tick=60, channel=0, data=[72, 0]),
   midi.NoteOnEvent(tick=0, channel=0, data=[74, 69]),
   midi.NoteOnEvent(tick=60, channel=0, data=[74, 0]),
   midi.NoteOnEvent(tick=0, channel=0, data=[72, 64]),
   midi.NoteOnEvent(tick=60, channel=0, data=[72, 0]),
   midi.NoteOnEvent(tick=0, channel=0, data=[74, 68]),
   midi.NoteOnEvent(tick=60, channel=0, data=[74, 0]),
   midi.NoteOnEvent(tick=0, channel=0, data=[72, 67]),
   midi.NoteOnEvent(tick=60, channel=0, data=[72, 0]),
   midi.NoteOnEvent(tick=0, channel=0, data=[74, 66]),
   midi.NoteOnEvent(tick=60, channel=0, data=[74, 0]),
   midi.NoteOnEvent(tick=0, channel=0, data=[72, 62]),
   midi.NoteOnEvent(tick=60, channel=0, data=[72, 0]),
   midi.NoteOnEvent(tick=0, channel=0, data=[74, 65]),
   midi.NoteOnEvent(tick=60, channel=0, data=[74, 0]),
   midi.NoteOnEvent(tick=0, channel=0, data=[72, 64]),
   midi.NoteOnEvent(tick=60, channel=0, data=[72, 0]),
   midi.NoteOnEvent(tick=0, channel=0, data=[71, 63]),
   midi.NoteOnEvent(tick=40, channel=0, data=[72, 65]),
   midi.NoteOnEvent(tick=20, channel=0, data=[71, 0]),
   midi.NoteOnEvent(tick=20, channel=0, data=[74, 66]),
   midi.NoteOnEvent(tick=20, channel=0, data=[72, 0]),
   midi.NoteOnEvent(tick=20, channel=0, data=[75, 68]),
   midi.NoteOnEvent(tick=20, channel=0, data=[74, 0]),
   midi.NoteOnEvent(tick=20, channel=0, data=[77, 69]),
   midi.NoteOnEvent(tick=20, channel=0, data=[75, 0]),
   midi.NoteOnEvent(tick=20, channel=0, data=[79, 71]),
   midi.NoteOnEvent(tick=20, channel=0, data=[77, 0]),
   midi.NoteOnEvent(tick=20, channel=0, data=[81, 72]),
   midi.NoteOnEvent(tick=20, channel=0, data=[79, 0]),
   midi.NoteOnEvent(tick=20, channel=0, data=[82, 74]),
   midi.NoteOnEvent(tick=20, channel=0, data=[81, 0]),
   midi.NoteOnEvent(tick=20, channel=0, data=[84, 75]),
   midi.NoteOnEvent(tick=20, channel=0, data=[82, 0]),
   midi.NoteOnEvent(tick=20, channel=0, data=[86, 76]),
   midi.NoteOnEvent(tick=20, channel=0, data=[84, 0]),
   midi.NoteOnEvent(tick=20, channel=0, data=[87, 78]),
   midi.NoteOnEvent(tick=20, channel=0, data=[86, 0]),
   midi.NoteOnEvent(tick=20, channel=0, data=[86, 79]),
   midi.NoteOnEvent(tick=20, channel=0, data=[87, 0]),
   midi.NoteOnEvent(tick=20, channel=0, data=[89, 96]),
   midi.NoteOnEvent(tick=20, channel=0, data=[86, 0]),
   midi.NoteOnEvent(tick=40, channel=0, data=[87, 94]),
   midi.NoteOnEvent(tick=30, channel=0, data=[89, 0]),
   midi.NoteOnEvent(tick=30, channel=0, data=[86, 91]),
   midi.NoteOnEvent(tick=30, channel=0, data=[87, 0]),
   midi.NoteOnEvent(tick=15, channel=0, data=[86, 0]),
   midi.NoteOnEvent(tick=15, channel=0, data=[84, 89]),
   midi.NoteOnEvent(tick=30, channel=0, data=[84, 0]),
   midi.NoteOnEvent(tick=30, channel=0, data=[87, 92]),
   midi.NoteOnEvent(tick=60, channel=0, data=[86, 91]),
   midi.NoteOnEvent(tick=30, channel=0, data=[87, 0]),
   midi.NoteOnEvent(tick=30, channel=0, data=[84, 89]),
   midi.NoteOnEvent(tick=30, channel=0, data=[86, 0]),
   midi.NoteOnEvent(tick=15, channel=0, data=[84, 0]),
   midi.NoteOnEvent(tick=15, channel=0, data=[82, 87]),
   midi.NoteOnEvent(tick=30, channel=0, data=[82, 0]),
   midi.NoteOnEvent(tick=30, channel=0, data=[86, 91]),
   midi.NoteOnEvent(tick=60, channel=0, data=[84, 89]),
   midi.NoteOnEvent(tick=30, channel=0, data=[86, 0]),
   midi.NoteOnEvent(tick=30, channel=0, data=[82, 87]),
   midi.NoteOnEvent(tick=30, channel=0, data=[84, 0]),
   midi.NoteOnEvent(tick=15, channel=0, data=[82, 0]),
   midi.NoteOnEvent(tick=15, channel=0, data=[81, 85]),
   midi.NoteOnEvent(tick=30, channel=0, data=[81, 0]),
   midi.NoteOnEvent(tick=30, channel=0, data=[84, 89]),
   midi.NoteOnEvent(tick=60, channel=0, data=[82, 88]),
   midi.NoteOnEvent(tick=30, channel=0, data=[84, 0]),
   midi.NoteOnEvent(tick=30, channel=0, data=[81, 86]),
   midi.NoteOnEvent(tick=30, channel=0, data=[82, 0]),
   midi.NoteOnEvent(tick=15, channel=0, data=[81, 0]),
   midi.NoteOnEvent(tick=15, channel=0, data=[79, 88]),
   midi.NoteOnEvent(tick=30, channel=0, data=[79, 0]),
   midi.NoteOnEvent(tick=30, channel=0, data=[82, 90]),
   midi.NoteOnEvent(tick=120, channel=0, data=[81, 82]),
   midi.NoteOnEvent(tick=60, channel=0, data=[82, 0]),
   midi.NoteOnEvent(tick=60, channel=0, data=[79, 80]),
   midi.NoteOnEvent(tick=60, channel=0, data=[79, 0]),
   midi.NoteOnEvent(tick=0, channel=0, data=[81, 0]),
   midi.NoteOnEvent(tick=60, channel=0, data=[77, 75]),
   midi.NoteOnEvent(tick=60, channel=0, data=[77, 0]),
   midi.NoteOnEvent(tick=60, channel=0, data=[81, 81]),
   midi.NoteOnEvent(tick=120, channel=0, data=[79, 74]),
   midi.NoteOnEvent(tick=60, channel=0, data=[81, 0]),
   midi.NoteOnEvent(tick=60, channel=0, data=[77, 71]),
   midi.NoteOnEvent(tick=60, channel=0, data=[77, 0]),
   midi.NoteOnEvent(tick=0, channel=0, data=[79, 0]),
   midi.NoteOnEvent(tick=60, channel=0, data=[75, 67]),
   midi.NoteOnEvent(tick=60, channel=0, data=[75, 0]),
   midi.NoteOnEvent(tick=60, channel=0, data=[79, 72]),
   midi.NoteOnEvent(tick=120, channel=0, data=[77, 68]),
   midi.NoteOnEvent(tick=60, channel=0, data=[79, 0]),
   midi.NoteOnEvent(tick=60, channel=0, data=[75, 65]),
   midi.NoteOnEvent(tick=60, channel=0, data=[75, 0]),
   midi.NoteOnEvent(tick=0, channel=0, data=[77, 0]),
   midi.NoteOnEvent(tick=60, channel=0, data=[74, 62]),
   midi.NoteOnEvent(tick=60, channel=0, data=[74, 0]),
   midi.NoteOnEvent(tick=60, channel=0, data=[77, 64]),
   midi.NoteOnEvent(tick=240, channel=0, data=[75, 60]),
   midi.NoteOnEvent(tick=48, channel=0, data=[77, 0]),
   midi.NoteOnEvent(tick=192, channel=0, data=[75, 0]),
   midi.NoteOnEvent(tick=0, channel=0, data=[74, 56]),
   midi.NoteOnEvent(tick=120, channel=0, data=[74, 0]),
   midi.NoteOnEvent(tick=120, channel=0, data=[72, 52]),
   midi.NoteOnEvent(tick=120, channel=0, data=[72, 0]),
   midi.NoteOnEvent(tick=120, channel=0, data=[70, 51]),
   midi.NoteOnEvent(tick=60, channel=0, data=[70, 0]),
   midi.NoteOnEvent(tick=60, channel=0, data=[72, 49]),
   midi.NoteOnEvent(tick=60, channel=0, data=[72, 0]),
   midi.NoteOnEvent(tick=60, channel=0, data=[73, 48]),
   midi.NoteOnEvent(tick=60, channel=0, data=[73, 0]),
   midi.NoteOnEvent(tick=60, channel=0, data=[74, 46]),
   midi.NoteOnEvent(tick=60, channel=0, data=[74, 0]),
   midi.NoteOnEvent(tick=60, channel=0, data=[75, 47]),
   midi.NoteOnEvent(tick=240, channel=0, data=[75, 0]),
   midi.NoteOnEvent(tick=0, channel=0, data=[76, 40]),
   midi.NoteOnEvent(tick=240, channel=0, data=[76, 0]),
   midi.ControlChangeEvent(tick=0, channel=0, data=[91, 127]),
   midi.NoteOnEvent(tick=1, channel=0, data=[77, 60]),
   midi.NoteOnEvent(tick=719, channel=0, data=[74, 53]),
   midi.NoteOnEvent(tick=1, channel=0, data=[77, 0]),
   midi.NoteOnEvent(tick=239, channel=0, data=[74, 0]),
   midi.NoteOnEvent(tick=0, channel=0, data=[70, 55]),
   midi.NoteOnEvent(tick=120, channel=0, data=[70, 0]),
   midi.NoteOnEvent(tick=360, channel=0, data=[70, 55]),
   midi.NoteOnEvent(tick=120, channel=0, data=[70, 0]),
   midi.NoteOnEvent(tick=360, channel=0, data=[75, 60]),
   midi.NoteOnEvent(tick=96, channel=0, data=[75, 0]),
   midi.NoteOnEvent(tick=0, channel=0, data=[77, 47]),
   midi.NoteOnEvent(tick=96, channel=0, data=[77, 0]),
   midi.NoteOnEvent(tick=0, channel=0, data=[75, 47]),
   midi.NoteOnEvent(tick=96, channel=0, data=[75, 0]),
   midi.NoteOnEvent(tick=0, channel=0, data=[74, 47]),
   midi.NoteOnEvent(tick=96, channel=0, data=[74, 0]),
   midi.NoteOnEvent(tick=0, channel=0, data=[75, 49]),
   midi.NoteOnEvent(tick=96, channel=0, data=[75, 0]),
   midi.NoteOnEvent(tick=0, channel=0, data=[79, 55]),
   midi.NoteOnEvent(tick=480, channel=0, data=[79, 0]),
   midi.NoteOnEvent(tick=0, channel=0, data=[69, 57]),
   midi.NoteOnEvent(tick=480, channel=0, data=[69, 0]),
   midi.NoteOnEvent(tick=240, channel=0, data=[69, 52]),
   midi.NoteOnEvent(tick=240, channel=0, data=[69, 0]),
   midi.NoteOnEvent(tick=0, channel=0, data=[72, 55]),
   midi.NoteOnEvent(tick=240, channel=0, data=[72, 0]),
   midi.NoteOnEvent(tick=0, channel=0, data=[70, 53]),
   midi.NoteOnEvent(tick=120, channel=0, data=[70, 0]),
   midi.NoteOnEvent(tick=120, channel=0, data=[74, 57]),
   midi.NoteOnEvent(tick=240, channel=0, data=[74, 0]),
   midi.NoteOnEvent(tick=0, channel=0, data=[72, 54]),
   midi.NoteOnEvent(tick=120, channel=0, data=[72, 0]),
   midi.NoteOnEvent(tick=120, channel=0, data=[75, 58]),
   midi.NoteOnEvent(tick=240, channel=0, data=[75, 0]),
   midi.NoteOnEvent(tick=0, channel=0, data=[74, 56]),
   midi.NoteOnEvent(tick=120, channel=0, data=[74, 0]),
   midi.NoteOnEvent(tick=120, channel=0, data=[77, 60]),
   midi.NoteOnEvent(tick=240, channel=0, data=[77, 0]),
   midi.NoteOnEvent(tick=0, channel=0, data=[75, 57]),
   midi.NoteOnEvent(tick=120, channel=0, data=[75, 0]),
   midi.NoteOnEvent(tick=120, channel=0, data=[74, 60]),
   midi.NoteOnEvent(tick=720, channel=0, data=[74, 0]),
   midi.NoteOnEvent(tick=0, channel=0, data=[75, 57]),
   midi.NoteOnEvent(tick=120, channel=0, data=[75, 0]),
   midi.NoteOnEvent(tick=0, channel=0, data=[74, 54]),
   midi.NoteOnEvent(tick=120, channel=0, data=[74, 0]),
   midi.NoteOnEvent(tick=0, channel=0, data=[72, 52]),
   midi.NoteOnEvent(tick=240, channel=0, data=[72, 0]),
   midi.NoteOnEvent(tick=0, channel=0, data=[74, 58]),
   midi.NoteOnEvent(tick=240, channel=0, data=[74, 0]),
   midi.NoteOnEvent(tick=0, channel=0, data=[75, 64]),
   midi.NoteOnEvent(tick=240, channel=0, data=[75, 0]),
   midi.NoteOnEvent(tick=0, channel=0, data=[76, 69]),
   midi.NoteOnEvent(tick=240, channel=0, data=[76, 0]),
   midi.NoteOnEvent(tick=0, channel=0, data=[77, 76]),
   midi.NoteOnEvent(tick=720, channel=0, data=[77, 0]),
   midi.NoteOnEvent(tick=0, channel=0, data=[75, 68]),
   midi.NoteOnEvent(tick=80, channel=0, data=[75, 0]),
   midi.NoteOnEvent(tick=0, channel=0, data=[74, 68]),
   midi.NoteOnEvent(tick=80, channel=0, data=[74, 0]),
   midi.NoteOnEvent(tick=0, channel=0, data=[72, 68]),
   midi.NoteOnEvent(tick=80, channel=0, data=[72, 0]),
   midi.NoteOnEvent(tick=0, channel=0, data=[70, 72]),
   midi.NoteOnEvent(tick=240, channel=0, data=[70, 0]),
   midi.NoteOnEvent(tick=0, channel=0, data=[70, 65]),
   midi.NoteOnEvent(tick=120, channel=0, data=[70, 0]),
   midi.NoteOnEvent(tick=120, channel=0, data=[70, 65]),
   midi.NoteOnEvent(tick=120, channel=0, data=[70, 0]),
   midi.NoteOnEvent(tick=120, channel=0, data=[70, 65]),
   midi.NoteOnEvent(tick=120, channel=0, data=[70, 0]),
   midi.NoteOnEvent(tick=120, channel=0, data=[75, 78]),
   midi.NoteOnEvent(tick=96, channel=0, data=[75, 0]),
   midi.NoteOnEvent(tick=0, channel=0, data=[77, 60]),
   midi.NoteOnEvent(tick=96, channel=0, data=[77, 0]),
   midi.NoteOnEvent(tick=0, channel=0, data=[75, 60]),
   midi.NoteOnEvent(tick=96, channel=0, data=[75, 0]),
   midi.NoteOnEvent(tick=0, channel=0, data=[74, 60]),
   midi.NoteOnEvent(tick=96, channel=0, data=[74, 0]),
   midi.NoteOnEvent(tick=0, channel=0, data=[75, 60]),
   midi.NoteOnEvent(tick=96, channel=0, data=[75, 0]),
   midi.NoteOnEvent(tick=0, channel=0, data=[79, 71]),
   midi.NoteOnEvent(tick=480, channel=0, data=[79, 0]),
   midi.NoteOnEvent(tick=0, channel=0, data=[69, 75]),
   midi.NoteOnEvent(tick=480, channel=0, data=[69, 0]),
   midi.NoteOnEvent(tick=240, channel=0, data=[77, 77]),
   midi.NoteOnEvent(tick=240, channel=0, data=[77, 0]),
   midi.NoteOnEvent(tick=0, channel=0, data=[74, 84]),
   midi.NoteOnEvent(tick=160, channel=0, data=[74, 0]),
   midi.NoteOnEvent(tick=0, channel=0, data=[77, 74]),
   midi.NoteOnEvent(tick=160, channel=0, data=[77, 0]),
   midi.NoteOnEvent(tick=0, channel=0, data=[82, 78]),
   midi.NoteOnEvent(tick=160, channel=0, data=[82, 0]),
   midi.NoteOnEvent(tick=0, channel=0, data=[79, 89]),
   midi.NoteOnEvent(tick=160, channel=0, data=[79, 0]),
   midi.NoteOnEvent(tick=0, channel=0, data=[75, 76]),
   midi.NoteOnEvent(tick=160, channel=0, data=[75, 0]),
   midi.NoteOnEvent(tick=0, channel=0, data=[72, 76]),
   midi.NoteOnEvent(tick=160, channel=0, data=[72, 0]),
   midi.NoteOnEvent(tick=0, channel=0, data=[77, 88]),
   midi.NoteOnEvent(tick=160, channel=0, data=[77, 0]),
   midi.NoteOnEvent(tick=0, channel=0, data=[74, 76]),
   midi.NoteOnEvent(tick=160, channel=0, data=[74, 0]),
   midi.NoteOnEvent(tick=0, channel=0, data=[70, 76]),
   midi.NoteOnEvent(tick=160, channel=0, data=[70, 0]),
   midi.NoteOnEvent(tick=0, channel=0, data=[75, 85]),
   midi.NoteOnEvent(tick=160, channel=0, data=[75, 0]),
   midi.NoteOnEvent(tick=0, channel=0, data=[72, 76]),
   midi.NoteOnEvent(tick=160, channel=0, data=[72, 0]),
   midi.NoteOnEvent(tick=0, channel=0, data=[69, 76]),
   midi.NoteOnEvent(tick=160, channel=0, data=[69, 0]),
   midi.NoteOnEvent(tick=0, channel=0, data=[70, 90]),
   midi.NoteOnEvent(tick=160, channel=0, data=[70, 0]),
   midi.NoteOnEvent(tick=0, channel=0, data=[82, 86]),
   midi.NoteOnEvent(tick=120, channel=0, data=[82, 0]),
   midi.NoteOnEvent(tick=40, channel=0, data=[82, 82]),
   midi.NoteOnEvent(tick=120, channel=0, data=[82, 0]),
   midi.NoteOnEvent(tick=40, channel=0, data=[82, 87]),
   midi.NoteOnEvent(tick=120, channel=0, data=[82, 0]),
   midi.NoteOnEvent(tick=40, channel=0, data=[82, 79]),
   midi.NoteOnEvent(tick=120, channel=0, data=[82, 0]),
   midi.NoteOnEvent(tick=40, channel=0, data=[82, 80]),
   midi.NoteOnEvent(tick=120, channel=0, data=[82, 0]),
   midi.NoteOnEvent(tick=40, channel=0, data=[82, 86]),
   midi.NoteOnEvent(tick=160, channel=0, data=[82, 0]),
   midi.NoteOnEvent(tick=0, channel=0, data=[81, 77]),
   midi.NoteOnEvent(tick=160, channel=0, data=[81, 0]),
   midi.NoteOnEvent(tick=0, channel=0, data=[79, 77]),
   midi.NoteOnEvent(tick=160, channel=0, data=[79, 0]),
   midi.NoteOnEvent(tick=0, channel=0, data=[77, 81]),
   midi.NoteOnEvent(tick=160, channel=0, data=[77, 0]),
   midi.NoteOnEvent(tick=0, channel=0, data=[75, 78]),
   midi.NoteOnEvent(tick=160, channel=0, data=[75, 0]),
   midi.NoteOnEvent(tick=0, channel=0, data=[74, 77]),
   midi.NoteOnEvent(tick=160, channel=0, data=[74, 0]),
   midi.NoteOnEvent(tick=0, channel=0, data=[72, 88]),
   midi.NoteOnEvent(tick=160, channel=0, data=[72, 0]),
   midi.NoteOnEvent(tick=0, channel=0, data=[79, 77]),
   midi.NoteOnEvent(tick=120, channel=0, data=[79, 0]),
   midi.NoteOnEvent(tick=40, channel=0, data=[79, 77]),
   midi.NoteOnEvent(tick=120, channel=0, data=[79, 0]),
   midi.NoteOnEvent(tick=40, channel=0, data=[79, 83]),
   midi.NoteOnEvent(tick=120, channel=0, data=[79, 0]),
   midi.NoteOnEvent(tick=40, channel=0, data=[79, 76]),
   midi.NoteOnEvent(tick=120, channel=0, data=[79, 0]),
   midi.NoteOnEvent(tick=40, channel=0, data=[79, 76]),
   midi.NoteOnEvent(tick=160, channel=0, data=[79, 0]),
   midi.NoteOnEvent(tick=0, channel=0, data=[79, 80]),
   midi.NoteOnEvent(tick=160, channel=0, data=[79, 0]),
   midi.NoteOnEvent(tick=0, channel=0, data=[77, 76]),
   midi.NoteOnEvent(tick=160, channel=0, data=[77, 0]),
   midi.NoteOnEvent(tick=0, channel=0, data=[75, 75]),
   midi.NoteOnEvent(tick=160, channel=0, data=[75, 0]),
   midi.NoteOnEvent(tick=0, channel=0, data=[74, 78]),
   midi.NoteOnEvent(tick=160, channel=0, data=[74, 0]),
   midi.NoteOnEvent(tick=0, channel=0, data=[75, 73]),
   midi.NoteOnEvent(tick=160, channel=0, data=[75, 0]),
   midi.NoteOnEvent(tick=0, channel=0, data=[72, 73]),
   midi.NoteOnEvent(tick=160, channel=0, data=[72, 0]),
   midi.NoteOnEvent(tick=0, channel=0, data=[76, 81]),
   midi.NoteOnEvent(tick=120, channel=0, data=[77, 83]),
   midi.NoteOnEvent(tick=24, channel=0, data=[76, 0]),
   midi.NoteOnEvent(tick=96, channel=0, data=[79, 85]),
   midi.NoteOnEvent(tick=24, channel=0, data=[77, 0]),
   midi.NoteOnEvent(tick=96, channel=0, data=[77, 83]),
   midi.NoteOnEvent(tick=24, channel=0, data=[79, 0]),
   midi.NoteOnEvent(tick=96, channel=0, data=[75, 80]),
   midi.NoteOnEvent(tick=24, channel=0, data=[77, 0]),
   midi.NoteOnEvent(tick=96, channel=0, data=[74, 79]),
   midi.NoteOnEvent(tick=24, channel=0, data=[75, 0]),
   midi.NoteOnEvent(tick=96, channel=0, data=[72, 77]),
   midi.NoteOnEvent(tick=24, channel=0, data=[74, 0]),
   midi.NoteOnEvent(tick=96, channel=0, data=[70, 76]),
   midi.NoteOnEvent(tick=24, channel=0, data=[72, 0]),
   midi.NoteOnEvent(tick=96, channel=0, data=[70, 0]),
   midi.NoteOnEvent(tick=0, channel=0, data=[72, 74]),
   midi.NoteOnEvent(tick=80, channel=0, data=[72, 0]),
   midi.NoteOnEvent(tick=0, channel=0, data=[74, 68]),
   midi.NoteOnEvent(tick=80, channel=0, data=[74, 0]),
   midi.NoteOnEvent(tick=0, channel=0, data=[72, 68]),
   midi.NoteOnEvent(tick=80, channel=0, data=[72, 0]),
   midi.NoteOnEvent(tick=0, channel=0, data=[74, 66]),
   midi.NoteOnEvent(tick=80, channel=0, data=[74, 0]),
   midi.NoteOnEvent(tick=0, channel=0, data=[72, 63]),
   midi.NoteOnEvent(tick=80, channel=0, data=[72, 0]),
   midi.NoteOnEvent(tick=0, channel=0, data=[74, 66]),
   midi.NoteOnEvent(tick=80, channel=0, data=[74, 0]),
   midi.NoteOnEvent(tick=0, channel=0, data=[72, 66]),
   midi.NoteOnEvent(tick=80, channel=0, data=[72, 0]),
   midi.NoteOnEvent(tick=0, channel=0, data=[74, 66]),
   midi.NoteOnEvent(tick=80, channel=0, data=[74, 0]),
   midi.NoteOnEvent(tick=0, channel=0, data=[72, 66]),
   midi.NoteOnEvent(tick=80, channel=0, data=[72, 0]),
   midi.NoteOnEvent(tick=0, channel=0, data=[70, 69]),
   midi.NoteOnEvent(tick=120, channel=0, data=[70, 0]),
   midi.NoteOnEvent(tick=0, channel=0, data=[72, 69]),
   midi.NoteOnEvent(tick=120, channel=0, data=[72, 0]),
   midi.NoteOnEvent(tick=0, channel=0, data=[70, 74]),
   midi.NoteOnEvent(tick=120, channel=0, data=[70, 0]),
   midi.NoteOnEvent(tick=120, channel=0, data=[82, 74]),
   midi.NoteOnEvent(tick=120, channel=0, data=[82, 0]),
   midi.NoteOnEvent(tick=0, channel=0, data=[81, 72]),
   midi.NoteOnEvent(tick=120, channel=0, data=[81, 0]),
   midi.NoteOnEvent(tick=0, channel=0, data=[82, 74]),
   midi.NoteOnEvent(tick=120, channel=0, data=[82, 0]),
   midi.NoteOnEvent(tick=0, channel=0, data=[81, 70]),
   midi.NoteOnEvent(tick=120, channel=0, data=[81, 0]),
   midi.NoteOnEvent(tick=0, channel=0, data=[82, 74]),
   midi.NoteOnEvent(tick=120, channel=0, data=[82, 0]),
   midi.NoteOnEvent(tick=0, channel=0, data=[81, 71]),
   midi.NoteOnEvent(tick=120, channel=0, data=[81, 0]),
   midi.NoteOnEvent(tick=0, channel=0, data=[82, 74]),
   midi.NoteOnEvent(tick=120, channel=0, data=[82, 0]),
   midi.NoteOnEvent(tick=0, channel=0, data=[81, 74]),
   midi.NoteOnEvent(tick=120, channel=0, data=[81, 0]),
   midi.NoteOnEvent(tick=0, channel=0, data=[79, 73]),
   midi.NoteOnEvent(tick=120, channel=0, data=[79, 0]),
   midi.NoteOnEvent(tick=0, channel=0, data=[77, 72]),
   midi.NoteOnEvent(tick=120, channel=0, data=[77, 0]),
   midi.NoteOnEvent(tick=0, channel=0, data=[75, 71]),
   midi.NoteOnEvent(tick=120, channel=0, data=[75, 0]),
   midi.NoteOnEvent(tick=0, channel=0, data=[74, 70]),
   midi.NoteOnEvent(tick=120, channel=0, data=[74, 0]),
   midi.NoteOnEvent(tick=0, channel=0, data=[72, 70]),
   midi.NoteOnEvent(tick=120, channel=0, data=[72, 0]),
   midi.NoteOnEvent(tick=0, channel=0, data=[70, 69]),
   midi.NoteOnEvent(tick=120, channel=0, data=[70, 0]),
   midi.NoteOnEvent(tick=0, channel=0, data=[67, 77]),
   midi.NoteOnEvent(tick=120, channel=0, data=[67, 0]),
   midi.NoteOnEvent(tick=120, channel=0, data=[79, 75]),
   midi.NoteOnEvent(tick=120, channel=0, data=[79, 0]),
   midi.NoteOnEvent(tick=0, channel=0, data=[78, 72]),
   midi.NoteOnEvent(tick=120, channel=0, data=[78, 0]),
   midi.NoteOnEvent(tick=0, channel=0, data=[79, 75]),
   midi.NoteOnEvent(tick=120, channel=0, data=[79, 0]),
   midi.NoteOnEvent(tick=0, channel=0, data=[78, 71]),
   midi.NoteOnEvent(tick=120, channel=0, data=[78, 0]),
   midi.NoteOnEvent(tick=0, channel=0, data=[79, 75]),
   midi.NoteOnEvent(tick=120, channel=0, data=[79, 0]),
   midi.NoteOnEvent(tick=0, channel=0, data=[78, 72]),
   midi.NoteOnEvent(tick=120, channel=0, data=[78, 0]),
   midi.NoteOnEvent(tick=0, channel=0, data=[79, 74]),
   midi.NoteOnEvent(tick=120, channel=0, data=[79, 0]),
   midi.NoteOnEvent(tick=0, channel=0, data=[77, 74]),
   midi.NoteOnEvent(tick=120, channel=0, data=[77, 0]),
   midi.NoteOnEvent(tick=0, channel=0, data=[75, 73]),
   midi.NoteOnEvent(tick=120, channel=0, data=[75, 0]),
   midi.NoteOnEvent(tick=0, channel=0, data=[74, 72]),
   midi.NoteOnEvent(tick=120, channel=0, data=[74, 0]),
   midi.NoteOnEvent(tick=0, channel=0, data=[72, 71]),
   midi.NoteOnEvent(tick=120, channel=0, data=[72, 0]),
   midi.NoteOnEvent(tick=0, channel=0, data=[70, 70]),
   midi.NoteOnEvent(tick=120, channel=0, data=[70, 0]),
   midi.NoteOnEvent(tick=0, channel=0, data=[69, 70]),
   midi.NoteOnEvent(tick=120, channel=0, data=[69, 0]),
   midi.NoteOnEvent(tick=0, channel=0, data=[67, 69]),
   midi.NoteOnEvent(tick=120, channel=0, data=[67, 0]),
   midi.NoteOnEvent(tick=0, channel=0, data=[65, 77]),
   midi.NoteOnEvent(tick=240, channel=0, data=[65, 0]),
   midi.NoteOnEvent(tick=0, channel=0, data=[67, 70]),
   midi.NoteOnEvent(tick=120, channel=0, data=[69, 72]),
   midi.NoteOnEvent(tick=24, channel=0, data=[67, 0]),
   midi.NoteOnEvent(tick=96, channel=0, data=[70, 73]),
   midi.NoteOnEvent(tick=24, channel=0, data=[69, 0]),
   midi.NoteOnEvent(tick=96, channel=0, data=[72, 74]),
   midi.NoteOnEvent(tick=24, channel=0, data=[70, 0]),
   midi.NoteOnEvent(tick=96, channel=0, data=[74, 76]),
   midi.NoteOnEvent(tick=24, channel=0, data=[72, 0]),
   midi.NoteOnEvent(tick=96, channel=0, data=[75, 77]),
   midi.NoteOnEvent(tick=24, channel=0, data=[74, 0]),
   midi.NoteOnEvent(tick=96, channel=0, data=[77, 79]),
   midi.NoteOnEvent(tick=24, channel=0, data=[75, 0]),
   midi.NoteOnEvent(tick=96, channel=0, data=[79, 80]),
   midi.NoteOnEvent(tick=24, channel=0, data=[77, 0]),
   midi.NoteOnEvent(tick=96, channel=0, data=[81, 82]),
   midi.NoteOnEvent(tick=24, channel=0, data=[79, 0]),
   midi.NoteOnEvent(tick=96, channel=0, data=[82, 83]),
   midi.NoteOnEvent(tick=24, channel=0, data=[81, 0]),
   midi.NoteOnEvent(tick=96, channel=0, data=[84, 84]),
   midi.NoteOnEvent(tick=24, channel=0, data=[82, 0]),
   midi.NoteOnEvent(tick=96, channel=0, data=[86, 86]),
   midi.NoteOnEvent(tick=24, channel=0, data=[84, 0]),
   midi.NoteOnEvent(tick=96, channel=0, data=[87, 87]),
   midi.NoteOnEvent(tick=24, channel=0, data=[86, 0]),
   midi.NoteOnEvent(tick=96, channel=0, data=[89, 89]),
   midi.NoteOnEvent(tick=24, channel=0, data=[87, 0]),
   midi.NoteOnEvent(tick=96, channel=0, data=[82, 71]),
   midi.NoteOnEvent(tick=24, channel=0, data=[89, 0]),
   midi.NoteOnEvent(tick=56, channel=0, data=[82, 0]),
   midi.NoteOnEvent(tick=0, channel=0, data=[84, 66]),
   midi.NoteOnEvent(tick=80, channel=0, data=[84, 0]),
   midi.NoteOnEvent(tick=0, channel=0, data=[86, 67]),
   midi.NoteOnEvent(tick=80, channel=0, data=[86, 0]),
   midi.NoteOnEvent(tick=0, channel=0, data=[84, 72]),
   midi.NoteOnEvent(tick=80, channel=0, data=[84, 0]),
   midi.NoteOnEvent(tick=0, channel=0, data=[86, 69]),
   midi.NoteOnEvent(tick=80, channel=0, data=[86, 0]),
   midi.NoteOnEvent(tick=0, channel=0, data=[84, 73]),
   midi.NoteOnEvent(tick=80, channel=0, data=[84, 0]),
   midi.NoteOnEvent(tick=0, channel=0, data=[86, 69]),
   midi.NoteOnEvent(tick=80, channel=0, data=[86, 0]),
   midi.NoteOnEvent(tick=0, channel=0, data=[84, 74]),
   midi.NoteOnEvent(tick=80, channel=0, data=[84, 0]),
   midi.NoteOnEvent(tick=0, channel=0, data=[86, 71]),
   midi.NoteOnEvent(tick=80, channel=0, data=[86, 0]),
   midi.NoteOnEvent(tick=0, channel=0, data=[84, 75]),
   midi.NoteOnEvent(tick=80, channel=0, data=[84, 0]),
   midi.NoteOnEvent(tick=0, channel=0, data=[86, 71]),
   midi.NoteOnEvent(tick=80, channel=0, data=[86, 0]),
   midi.NoteOnEvent(tick=0, channel=0, data=[84, 75]),
   midi.NoteOnEvent(tick=80, channel=0, data=[84, 0]),
   midi.NoteOnEvent(tick=0, channel=0, data=[86, 71]),
   midi.NoteOnEvent(tick=80, channel=0, data=[86, 0]),
   midi.NoteOnEvent(tick=0, channel=0, data=[84, 77]),
   midi.NoteOnEvent(tick=80, channel=0, data=[84, 0]),
   midi.NoteOnEvent(tick=0, channel=0, data=[86, 73]),
   midi.NoteOnEvent(tick=80, channel=0, data=[86, 0]),
   midi.NoteOnEvent(tick=0, channel=0, data=[84, 79]),
   midi.NoteOnEvent(tick=80, channel=0, data=[84, 0]),
   midi.NoteOnEvent(tick=0, channel=0, data=[86, 74]),
   midi.NoteOnEvent(tick=80, channel=0, data=[86, 0]),
   midi.NoteOnEvent(tick=0, channel=0, data=[84, 79]),
   midi.NoteOnEvent(tick=80, channel=0, data=[84, 0]),
   midi.NoteOnEvent(tick=0, channel=0, data=[86, 82]),
   midi.NoteOnEvent(tick=120, channel=0, data=[86, 0]),
   midi.NoteOnEvent(tick=0, channel=0, data=[84, 79]),
   midi.NoteOnEvent(tick=120, channel=0, data=[84, 0]),
   midi.NoteOnEvent(tick=0, channel=0, data=[82, 87]),
   midi.NoteOnEvent(tick=120, channel=0, data=[82, 0]),
   midi.NoteOnEvent(tick=0, channel=0, data=[84, 85]),
   midi.NoteOnEvent(tick=120, channel=0, data=[84, 0]),
   midi.NoteOnEvent(tick=0, channel=0, data=[82, 93]),
   midi.NoteOnEvent(tick=480, channel=0, data=[82, 0]),
   midi.NoteOnEvent(tick=1200, channel=0, data=[70, 51]),
   midi.NoteOnEvent(tick=240, channel=0, data=[70, 0]),
   midi.NoteOnEvent(tick=0, channel=0, data=[80, 54]),
   midi.NoteOnEvent(tick=720, channel=0, data=[80, 0]),
   midi.NoteOnEvent(tick=0, channel=0, data=[77, 52]),
   midi.NoteOnEvent(tick=240, channel=0, data=[77, 0]),
   midi.NoteOnEvent(tick=0, channel=0, data=[74, 50]),
   midi.NoteOnEvent(tick=240, channel=0, data=[74, 0]),
   midi.NoteOnEvent(tick=240, channel=0, data=[74, 51]),
   midi.NoteOnEvent(tick=240, channel=0, data=[74, 0]),
   midi.NoteOnEvent(tick=240, channel=0, data=[75, 56]),
   midi.NoteOnEvent(tick=240, channel=0, data=[75, 0]),
   midi.NoteOnEvent(tick=240, channel=0, data=[77, 57]),
   midi.NoteOnEvent(tick=240, channel=0, data=[77, 0]),
   midi.NoteOnEvent(tick=240, channel=0, data=[79, 61]),
   midi.NoteOnEvent(tick=240, channel=0, data=[79, 0]),
   midi.NoteOnEvent(tick=480, channel=0, data=[79, 53]),
   midi.NoteOnEvent(tick=240, channel=0, data=[79, 0]),
   midi.NoteOnEvent(tick=0, channel=0, data=[77, 57]),
   midi.NoteOnEvent(tick=240, channel=0, data=[75, 57]),
   midi.NoteOnEvent(tick=24, channel=0, data=[77, 0]),
   midi.NoteOnEvent(tick=216, channel=0, data=[74, 56]),
   midi.NoteOnEvent(tick=24, channel=0, data=[75, 0]),
   midi.NoteOnEvent(tick=216, channel=0, data=[72, 56]),
   midi.NoteOnEvent(tick=24, channel=0, data=[74, 0]),
   midi.NoteOnEvent(tick=216, channel=0, data=[70, 55]),
   midi.NoteOnEvent(tick=24, channel=0, data=[72, 0]),
   midi.NoteOnEvent(tick=216, channel=0, data=[69, 55]),
   midi.NoteOnEvent(tick=24, channel=0, data=[70, 0]),
   midi.NoteOnEvent(tick=216, channel=0, data=[75, 62]),
   midi.NoteOnEvent(tick=24, channel=0, data=[69, 0]),
   midi.NoteOnEvent(tick=216, channel=0, data=[69, 58]),
   midi.NoteOnEvent(tick=24, channel=0, data=[75, 0]),
   midi.NoteOnEvent(tick=216, channel=0, data=[69, 0]),
   midi.NoteOnEvent(tick=0, channel=0, data=[70, 58]),
   midi.NoteOnEvent(tick=120, channel=0, data=[70, 0]),
   midi.NoteOnEvent(tick=120, channel=0, data=[72, 60]),
   midi.NoteOnEvent(tick=120, channel=0, data=[72, 0]),
   midi.NoteOnEvent(tick=120, channel=0, data=[74, 61]),
   midi.NoteOnEvent(tick=120, channel=0, data=[74, 0]),
   midi.NoteOnEvent(tick=120, channel=0, data=[75, 63]),
   midi.NoteOnEvent(tick=120, channel=0, data=[75, 0]),
   midi.NoteOnEvent(tick=120, channel=0, data=[76, 65]),
   midi.NoteOnEvent(tick=120, channel=0, data=[76, 0]),
   midi.NoteOnEvent(tick=120, channel=0, data=[77, 67]),
   midi.NoteOnEvent(tick=120, channel=0, data=[77, 0]),
   midi.NoteOnEvent(tick=120, channel=0, data=[78, 69]),
   midi.NoteOnEvent(tick=120, channel=0, data=[78, 0]),
   midi.NoteOnEvent(tick=120, channel=0, data=[79, 71]),
   midi.NoteOnEvent(tick=120, channel=0, data=[79, 0]),
   midi.NoteOnEvent(tick=120, channel=0, data=[80, 73]),
   midi.NoteOnEvent(tick=720, channel=0, data=[80, 0]),
   midi.NoteOnEvent(tick=0, channel=0, data=[79, 58]),
   midi.NoteOnEvent(tick=80, channel=0, data=[79, 0]),
   midi.NoteOnEvent(tick=0, channel=0, data=[77, 58]),
   midi.NoteOnEvent(tick=80, channel=0, data=[77, 0]),
   midi.NoteOnEvent(tick=0, channel=0, data=[75, 58]),
   midi.NoteOnEvent(tick=80, channel=0, data=[75, 0]),
   midi.NoteOnEvent(tick=0, channel=0, data=[74, 63]),
   midi.NoteOnEvent(tick=120, channel=0, data=[74, 0]),
   midi.NoteOnEvent(tick=120, channel=0, data=[74, 60]),
   midi.NoteOnEvent(tick=120, channel=0, data=[74, 0]),
   midi.NoteOnEvent(tick=120, channel=0, data=[74, 64]),
   midi.NoteOnEvent(tick=120, channel=0, data=[74, 0]),
   midi.NoteOnEvent(tick=120, channel=0, data=[74, 60]),
   midi.NoteOnEvent(tick=120, channel=0, data=[74, 0]),
   midi.NoteOnEvent(tick=120, channel=0, data=[75, 66]),
   midi.NoteOnEvent(tick=480, channel=0, data=[75, 0]),
   midi.NoteOnEvent(tick=0, channel=0, data=[77, 59]),
   midi.NoteOnEvent(tick=80, channel=0, data=[77, 0]),
   midi.NoteOnEvent(tick=0, channel=0, data=[79, 59]),
   midi.NoteOnEvent(tick=80, channel=0, data=[79, 0]),
   midi.NoteOnEvent(tick=0, channel=0, data=[77, 60]),
   midi.NoteOnEvent(tick=80, channel=0, data=[77, 0]),
   midi.NoteOnEvent(tick=0, channel=0, data=[79, 60]),
   midi.NoteOnEvent(tick=60, channel=0, data=[79, 0]),
   midi.NoteOnEvent(tick=20, channel=0, data=[77, 60]),
   midi.NoteOnEvent(tick=40, channel=0, data=[75, 59]),
   midi.NoteOnEvent(tick=20, channel=0, data=[77, 0]),
   midi.NoteOnEvent(tick=40, channel=0, data=[75, 0]),
   midi.NoteOnEvent(tick=0, channel=0, data=[77, 63]),
   midi.NoteOnEvent(tick=60, channel=0, data=[77, 0]),
   midi.NoteOnEvent(tick=0, channel=0, data=[79, 66]),
   midi.NoteOnEvent(tick=480, channel=0, data=[79, 0]),
   midi.NoteOnEvent(tick=240, channel=0, data=[79, 55]),
   midi.NoteOnEvent(tick=240, channel=0, data=[79, 0]),
   midi.NoteOnEvent(tick=0, channel=0, data=[77, 59]),
   midi.NoteOnEvent(tick=240, channel=0, data=[75, 58]),
   midi.NoteOnEvent(tick=24, channel=0, data=[77, 0]),
   midi.NoteOnEvent(tick=216, channel=0, data=[74, 57]),
   midi.NoteOnEvent(tick=24, channel=0, data=[75, 0]),
   midi.NoteOnEvent(tick=216, channel=0, data=[72, 57]),
   midi.NoteOnEvent(tick=24, channel=0, data=[74, 0]),
   midi.NoteOnEvent(tick=216, channel=0, data=[70, 56]),
   midi.NoteOnEvent(tick=24, channel=0, data=[72, 0]),
   midi.NoteOnEvent(tick=216, channel=0, data=[69, 56]),
   midi.NoteOnEvent(tick=24, channel=0, data=[70, 0]),
   midi.NoteOnEvent(tick=216, channel=0, data=[75, 60]),
   midi.NoteOnEvent(tick=24, channel=0, data=[69, 0]),
   midi.NoteOnEvent(tick=216, channel=0, data=[69, 57]),
   midi.NoteOnEvent(tick=24, channel=0, data=[75, 0]),
   midi.NoteOnEvent(tick=216, channel=0, data=[70, 61]),
   midi.NoteOnEvent(tick=24, channel=0, data=[69, 0]),
   midi.NoteOnEvent(tick=456, channel=0, data=[70, 0]),
   midi.NoteOnEvent(tick=240, channel=0, data=[74, 53]),
   midi.NoteOnEvent(tick=240, channel=0, data=[74, 0]),
   midi.NoteOnEvent(tick=0, channel=0, data=[77, 56]),
   midi.NoteOnEvent(tick=240, channel=0, data=[77, 0]),
   midi.NoteOnEvent(tick=0, channel=0, data=[75, 54]),
   midi.NoteOnEvent(tick=240, channel=0, data=[75, 0]),
   midi.NoteOnEvent(tick=0, channel=0, data=[72, 54]),
   midi.NoteOnEvent(tick=240, channel=0, data=[72, 0]),
   midi.NoteOnEvent(tick=0, channel=0, data=[69, 54]),
   midi.NoteOnEvent(tick=240, channel=0, data=[69, 0]),
   midi.NoteOnEvent(tick=0, channel=0, data=[70, 57]),
   midi.NoteOnEvent(tick=480, channel=0, data=[70, 0]),
   midi.NoteOnEvent(tick=240, channel=0, data=[74, 50]),
   midi.NoteOnEvent(tick=120, channel=0, data=[74, 0]),
   midi.NoteOnEvent(tick=0, channel=0, data=[70, 48]),
   midi.NoteOnEvent(tick=120, channel=0, data=[70, 0]),
   midi.NoteOnEvent(tick=0, channel=0, data=[77, 54]),
   midi.NoteOnEvent(tick=240, channel=0, data=[77, 0]),
   midi.NoteOnEvent(tick=0, channel=0, data=[75, 51]),
   midi.NoteOnEvent(tick=240, channel=0, data=[75, 0]),
   midi.NoteOnEvent(tick=0, channel=0, data=[72, 51]),
   midi.NoteOnEvent(tick=240, channel=0, data=[72, 0]),
   midi.NoteOnEvent(tick=0, channel=0, data=[69, 49]),
   midi.NoteOnEvent(tick=240, channel=0, data=[69, 0]),
   midi.NoteOnEvent(tick=0, channel=0, data=[70, 55]),
   midi.NoteOnEvent(tick=480, channel=0, data=[70, 0]),
   midi.NoteOnEvent(tick=240, channel=0, data=[77, 91]),
   midi.NoteOnEvent(tick=240, channel=0, data=[77, 0]),
   midi.NoteOnEvent(tick=0, channel=0, data=[81, 96]),
   midi.NoteOnEvent(tick=0, channel=0, data=[72, 81]),
   midi.NoteOnEvent(tick=0, channel=0, data=[75, 81]),
   midi.NoteOnEvent(tick=0, channel=0, data=[77, 96]),
   midi.NoteOnEvent(tick=240, channel=0, data=[77, 0]),
   midi.NoteOnEvent(tick=0, channel=0, data=[81, 0]),
   midi.NoteOnEvent(tick=0, channel=0, data=[72, 0]),
   midi.NoteOnEvent(tick=0, channel=0, data=[75, 0]),
   midi.NoteOnEvent(tick=240, channel=0, data=[72, 81]),
   midi.NoteOnEvent(tick=0, channel=0, data=[75, 81]),
   midi.NoteOnEvent(tick=0, channel=0, data=[77, 96]),
   midi.NoteOnEvent(tick=0, channel=0, data=[81, 96]),
   midi.NoteOnEvent(tick=240, channel=0, data=[81, 0]),
   midi.NoteOnEvent(tick=0, channel=0, data=[72, 0]),
   midi.NoteOnEvent(tick=0, channel=0, data=[75, 0]),
   midi.NoteOnEvent(tick=0, channel=0, data=[77, 0]),
   midi.NoteOnEvent(tick=240, channel=0, data=[74, 84]),
   midi.NoteOnEvent(tick=0, channel=0, data=[77, 99]),
   midi.NoteOnEvent(tick=0, channel=0, data=[70, 84]),
   midi.NoteOnEvent(tick=0, channel=0, data=[82, 99]),
   midi.NoteOnEvent(tick=240, channel=0, data=[82, 0]),
   midi.NoteOnEvent(tick=0, channel=0, data=[74, 0]),
   midi.NoteOnEvent(tick=0, channel=0, data=[77, 0]),
   midi.NoteOnEvent(tick=0, channel=0, data=[70, 0]),
   midi.EndOfTrackEvent(tick=0, data=[])]),
 midi.Track(\
[    midi.ControlChangeEvent(tick=0, channel=0, data=[7, 100]),
   midi.ControlChangeEvent(tick=0, channel=0, data=[10, 64]),
   midi.ControlChangeEvent(tick=0, channel=0, data=[91, 127]),
   midi.NoteOnEvent(tick=480, channel=0, data=[58, 42]),
   midi.NoteOnEvent(tick=480, channel=0, data=[58, 0]),
   midi.NoteOnEvent(tick=0, channel=0, data=[62, 48]),
   midi.NoteOnEvent(tick=120, channel=0, data=[62, 0]),
   midi.NoteOnEvent(tick=360, channel=0, data=[67, 47]),
   midi.NoteOnEvent(tick=120, channel=0, data=[67, 0]),
   midi.NoteOnEvent(tick=360, channel=0, data=[60, 52]),
   midi.NoteOnEvent(tick=480, channel=0, data=[60, 0]),
   midi.NoteOnEvent(tick=0, channel=0, data=[63, 47]),
   midi.NoteOnEvent(tick=120, channel=0, data=[63, 0]),
   midi.NoteOnEvent(tick=360, channel=0, data=[65, 48]),
   midi.NoteOnEvent(tick=480, channel=0, data=[65, 0]),
   midi.NoteOnEvent(tick=0, channel=0, data=[63, 46]),
   midi.NoteOnEvent(tick=480, channel=0, data=[63, 0]),
   midi.NoteOnEvent(tick=0, channel=0, data=[62, 53]),
   midi.NoteOnEvent(tick=480, channel=0, data=[62, 0]),
   midi.NoteOnEvent(tick=0, channel=0, data=[57, 47]),
   midi.NoteOnEvent(tick=480, channel=0, data=[57, 0]),
   midi.NoteOnEvent(tick=0, channel=0, data=[58, 51]),
   midi.NoteOnEvent(tick=480, channel=0, data=[58, 0]),
   midi.NoteOnEvent(tick=0, channel=0, data=[51, 51]),
   midi.NoteOnEvent(tick=0, channel=0, data=[60, 51]),
   midi.NoteOnEvent(tick=480, channel=0, data=[60, 0]),
   midi.NoteOnEvent(tick=0, channel=0, data=[51, 0]),
   midi.NoteOnEvent(tick=0, channel=0, data=[58, 52]),
   midi.NoteOnEvent(tick=0, channel=0, data=[53, 52]),
   midi.NoteOnEvent(tick=960, channel=0, data=[58, 0]),
   midi.NoteOnEvent(tick=0, channel=0, data=[57, 47]),
   midi.NoteOnEvent(tick=480, channel=0, data=[57, 0]),
   midi.NoteOnEvent(tick=0, channel=0, data=[53, 0]),
   midi.NoteOnEvent(tick=960, channel=0, data=[58, 39]),
   midi.NoteOnEvent(tick=480, channel=0, data=[58, 0]),
   midi.NoteOnEvent(tick=0, channel=0, data=[62, 47]),
   midi.NoteOnEvent(tick=120, channel=0, data=[62, 0]),
   midi.NoteOnEvent(tick=360, channel=0, data=[67, 46]),
   midi.NoteOnEvent(tick=120, channel=0, data=[67, 0]),
   midi.NoteOnEvent(tick=360, channel=0, data=[60, 51]),
   midi.NoteOnEvent(tick=480, channel=0, data=[60, 0]),
   midi.NoteOnEvent(tick=0, channel=0, data=[63, 45]),
   midi.NoteOnEvent(tick=120, channel=0, data=[63, 0]),
   midi.NoteOnEvent(tick=360, channel=0, data=[65, 48]),
   midi.NoteOnEvent(tick=480, channel=0, data=[65, 0]),
   midi.NoteOnEvent(tick=0, channel=0, data=[63, 43]),
   midi.NoteOnEvent(tick=480, channel=0, data=[63, 0]),
   midi.NoteOnEvent(tick=0, channel=0, data=[62, 51]),
   midi.NoteOnEvent(tick=480, channel=0, data=[62, 0]),
   midi.NoteOnEvent(tick=0, channel=0, data=[51, 47]),
   midi.NoteOnEvent(tick=0, channel=0, data=[63, 47]),
   midi.NoteOnEvent(tick=480, channel=0, data=[63, 0]),
   midi.NoteOnEvent(tick=0, channel=0, data=[51, 0]),
   midi.NoteOnEvent(tick=0, channel=0, data=[62, 50]),
   midi.NoteOnEvent(tick=0, channel=0, data=[53, 50]),
   midi.NoteOnEvent(tick=480, channel=0, data=[62, 0]),
   midi.NoteOnEvent(tick=0, channel=0, data=[60, 48]),
   midi.NoteOnEvent(tick=480, channel=0, data=[60, 0]),
   midi.NoteOnEvent(tick=0, channel=0, data=[53, 0]),
   midi.NoteOnEvent(tick=0, channel=0, data=[58, 51]),
   midi.NoteOnEvent(tick=480, channel=0, data=[58, 0]),
   midi.ControlChangeEvent(tick=1440, channel=0, data=[91, 127]),
   midi.NoteOnEvent(tick=0, channel=0, data=[58, 64]),
   midi.NoteOnEvent(tick=240, channel=0, data=[58, 0]),
   midi.NoteOnEvent(tick=0, channel=0, data=[65, 54]),
   midi.NoteOnEvent(tick=240, channel=0, data=[65, 0]),
   midi.NoteOnEvent(tick=0, channel=0, data=[62, 59]),
   midi.NoteOnEvent(tick=240, channel=0, data=[62, 0]),
   midi.NoteOnEvent(tick=0, channel=0, data=[65, 54]),
   midi.NoteOnEvent(tick=240, channel=0, data=[65, 0]),
   midi.NoteOnEvent(tick=0, channel=0, data=[55, 63]),
   midi.NoteOnEvent(tick=240, channel=0, data=[55, 0]),
   midi.NoteOnEvent(tick=0, channel=0, data=[62, 56]),
   midi.NoteOnEvent(tick=240, channel=0, data=[62, 0]),
   midi.NoteOnEvent(tick=0, channel=0, data=[58, 59]),
   midi.NoteOnEvent(tick=240, channel=0, data=[58, 0]),
   midi.NoteOnEvent(tick=0, channel=0, data=[62, 55]),
   midi.NoteOnEvent(tick=240, channel=0, data=[62, 0]),
   midi.NoteOnEvent(tick=0, channel=0, data=[51, 64]),
   midi.NoteOnEvent(tick=240, channel=0, data=[51, 0]),
   midi.NoteOnEvent(tick=0, channel=0, data=[60, 54]),
   midi.NoteOnEvent(tick=240, channel=0, data=[60, 0]),
   midi.NoteOnEvent(tick=0, channel=0, data=[55, 59]),
   midi.NoteOnEvent(tick=240, channel=0, data=[55, 0]),
   midi.NoteOnEvent(tick=0, channel=0, data=[60, 55]),
   midi.NoteOnEvent(tick=240, channel=0, data=[60, 0]),
   midi.NoteOnEvent(tick=0, channel=0, data=[53, 64]),
   midi.NoteOnEvent(tick=240, channel=0, data=[53, 0]),
   midi.NoteOnEvent(tick=0, channel=0, data=[63, 54]),
   midi.NoteOnEvent(tick=240, channel=0, data=[63, 0]),
   midi.NoteOnEvent(tick=0, channel=0, data=[60, 60]),
   midi.NoteOnEvent(tick=240, channel=0, data=[60, 0]),
   midi.NoteOnEvent(tick=0, channel=0, data=[63, 56]),
   midi.NoteOnEvent(tick=240, channel=0, data=[63, 0]),
   midi.NoteOnEvent(tick=0, channel=0, data=[62, 66]),
   midi.NoteOnEvent(tick=480, channel=0, data=[62, 0]),
   midi.NoteOnEvent(tick=0, channel=0, data=[62, 60]),
   midi.NoteOnEvent(tick=0, channel=0, data=[57, 60]),
   midi.NoteOnEvent(tick=480, channel=0, data=[57, 0]),
   midi.NoteOnEvent(tick=0, channel=0, data=[58, 64]),
   midi.NoteOnEvent(tick=480, channel=0, data=[58, 0]),
   midi.NoteOnEvent(tick=0, channel=0, data=[62, 0]),
   midi.NoteOnEvent(tick=0, channel=0, data=[51, 64]),
   midi.NoteOnEvent(tick=0, channel=0, data=[60, 64]),
   midi.NoteOnEvent(tick=480, channel=0, data=[60, 0]),
   midi.NoteOnEvent(tick=0, channel=0, data=[51, 0]),
   midi.NoteOnEvent(tick=0, channel=0, data=[58, 65]),
   midi.NoteOnEvent(tick=0, channel=0, data=[53, 65]),
   midi.NoteOnEvent(tick=960, channel=0, data=[58, 0]),
   midi.NoteOnEvent(tick=0, channel=0, data=[57, 60]),
   midi.NoteOnEvent(tick=480, channel=0, data=[57, 0]),
   midi.NoteOnEvent(tick=0, channel=0, data=[53, 0]),
   midi.NoteOnEvent(tick=480, channel=0, data=[58, 65]),
   midi.NoteOnEvent(tick=240, channel=0, data=[58, 0]),
   midi.NoteOnEvent(tick=0, channel=0, data=[65, 55]),
   midi.NoteOnEvent(tick=240, channel=0, data=[65, 0]),
   midi.NoteOnEvent(tick=0, channel=0, data=[62, 60]),
   midi.NoteOnEvent(tick=240, channel=0, data=[62, 0]),
   midi.NoteOnEvent(tick=0, channel=0, data=[65, 55]),
   midi.NoteOnEvent(tick=240, channel=0, data=[65, 0]),
   midi.NoteOnEvent(tick=0, channel=0, data=[55, 64]),
   midi.NoteOnEvent(tick=120, channel=0, data=[55, 0]),
   midi.NoteOnEvent(tick=120, channel=0, data=[62, 57]),
   midi.NoteOnEvent(tick=120, channel=0, data=[62, 0]),
   midi.NoteOnEvent(tick=120, channel=0, data=[58, 60]),
   midi.NoteOnEvent(tick=120, channel=0, data=[58, 0]),
   midi.NoteOnEvent(tick=120, channel=0, data=[62, 57]),
   midi.NoteOnEvent(tick=120, channel=0, data=[62, 0]),
   midi.NoteOnEvent(tick=120, channel=0, data=[51, 64]),
   midi.NoteOnEvent(tick=240, channel=0, data=[51, 0]),
   midi.NoteOnEvent(tick=0, channel=0, data=[60, 55]),
   midi.NoteOnEvent(tick=240, channel=0, data=[60, 0]),
   midi.NoteOnEvent(tick=0, channel=0, data=[55, 59]),
   midi.NoteOnEvent(tick=240, channel=0, data=[55, 0]),
   midi.NoteOnEvent(tick=0, channel=0, data=[60, 55]),
   midi.NoteOnEvent(tick=240, channel=0, data=[60, 0]),
   midi.NoteOnEvent(tick=0, channel=0, data=[53, 64]),
   midi.NoteOnEvent(tick=240, channel=0, data=[53, 0]),
   midi.NoteOnEvent(tick=0, channel=0, data=[63, 55]),
   midi.NoteOnEvent(tick=240, channel=0, data=[63, 0]),
   midi.NoteOnEvent(tick=0, channel=0, data=[60, 59]),
   midi.NoteOnEvent(tick=240, channel=0, data=[60, 0]),
   midi.NoteOnEvent(tick=0, channel=0, data=[63, 55]),
   midi.NoteOnEvent(tick=240, channel=0, data=[63, 0]),
   midi.NoteOnEvent(tick=0, channel=0, data=[58, 59]),
   midi.NoteOnEvent(tick=0, channel=0, data=[50, 59]),
   midi.NoteOnEvent(tick=480, channel=0, data=[50, 0]),
   midi.NoteOnEvent(tick=0, channel=0, data=[51, 55]),
   midi.NoteOnEvent(tick=480, channel=0, data=[51, 0]),
   midi.NoteOnEvent(tick=0, channel=0, data=[58, 0]),
   midi.NoteOnEvent(tick=0, channel=0, data=[62, 59]),
   midi.NoteOnEvent(tick=0, channel=0, data=[53, 59]),
   midi.NoteOnEvent(tick=480, channel=0, data=[62, 0]),
   midi.NoteOnEvent(tick=0, channel=0, data=[63, 56]),
   midi.NoteOnEvent(tick=480, channel=0, data=[63, 0]),
   midi.NoteOnEvent(tick=0, channel=0, data=[53, 0]),
   midi.NoteOnEvent(tick=0, channel=0, data=[58, 59]),
   midi.NoteOnEvent(tick=0, channel=0, data=[62, 59]),
   midi.NoteOnEvent(tick=480, channel=0, data=[62, 0]),
   midi.NoteOnEvent(tick=0, channel=0, data=[58, 0]),
   midi.NoteOnEvent(tick=0, channel=0, data=[46, 64]),
   midi.NoteOnEvent(tick=480, channel=0, data=[46, 0]),
   midi.NoteOnEvent(tick=1440, channel=0, data=[58, 48]),
   midi.NoteOnEvent(tick=180, channel=0, data=[58, 0]),
   midi.NoteOnEvent(tick=300, channel=0, data=[55, 48]),
   midi.NoteOnEvent(tick=480, channel=0, data=[55, 0]),
   midi.NoteOnEvent(tick=0, channel=0, data=[51, 45]),
   midi.NoteOnEvent(tick=480, channel=0, data=[51, 0]),
   midi.NoteOnEvent(tick=0, channel=0, data=[53, 47]),
   midi.NoteOnEvent(tick=480, channel=0, data=[53, 0]),
   midi.NoteOnEvent(tick=0, channel=0, data=[41, 55]),
   midi.NoteOnEvent(tick=480, channel=0, data=[41, 0]),
   midi.NoteOnEvent(tick=1440, channel=0, data=[60, 45]),
   midi.NoteOnEvent(tick=180, channel=0, data=[60, 0]),
   midi.NoteOnEvent(tick=300, channel=0, data=[57, 45]),
   midi.NoteOnEvent(tick=480, channel=0, data=[57, 0]),
   midi.NoteOnEvent(tick=0, channel=0, data=[53, 42]),
   midi.NoteOnEvent(tick=480, channel=0, data=[53, 0]),
   midi.NoteOnEvent(tick=0, channel=0, data=[58, 46]),
   midi.NoteOnEvent(tick=480, channel=0, data=[58, 0]),
   midi.NoteOnEvent(tick=0, channel=0, data=[46, 65]),
   midi.NoteOnEvent(tick=480, channel=0, data=[46, 0]),
   midi.NoteOnEvent(tick=1200, channel=0, data=[57, 53]),
   midi.NoteOnEvent(tick=240, channel=0, data=[57, 0]),
   midi.NoteOnEvent(tick=0, channel=0, data=[60, 57]),
   midi.NoteOnEvent(tick=240, channel=0, data=[60, 0]),
   midi.NoteOnEvent(tick=0, channel=0, data=[57, 53]),
   midi.NoteOnEvent(tick=240, channel=0, data=[57, 0]),
   midi.NoteOnEvent(tick=0, channel=0, data=[65, 67]),
   midi.NoteOnEvent(tick=480, channel=0, data=[65, 0]),
   midi.NoteOnEvent(tick=720, channel=0, data=[55, 53]),
   midi.NoteOnEvent(tick=240, channel=0, data=[55, 0]),
   midi.NoteOnEvent(tick=0, channel=0, data=[58, 58]),
   midi.NoteOnEvent(tick=240, channel=0, data=[58, 0]),
   midi.NoteOnEvent(tick=0, channel=0, data=[55, 54]),
   midi.NoteOnEvent(tick=240, channel=0, data=[55, 0]),
   midi.NoteOnEvent(tick=0, channel=0, data=[64, 66]),
   midi.NoteOnEvent(tick=480, channel=0, data=[64, 0]),
   midi.NoteOnEvent(tick=480, channel=0, data=[65, 69]),
   midi.NoteOnEvent(tick=480, channel=0, data=[65, 0]),
   midi.NoteOnEvent(tick=960, channel=0, data=[53, 53]),
   midi.NoteOnEvent(tick=480, channel=0, data=[53, 0]),
   midi.NoteOnEvent(tick=0, channel=0, data=[48, 53]),
   midi.NoteOnEvent(tick=240, channel=0, data=[48, 0]),
   midi.NoteOnEvent(tick=0, channel=0, data=[60, 47]),
   midi.NoteOnEvent(tick=240, channel=0, data=[60, 0]),
   midi.NoteOnEvent(tick=0, channel=0, data=[59, 49]),
   midi.NoteOnEvent(tick=240, channel=0, data=[59, 0]),
   midi.NoteOnEvent(tick=0, channel=0, data=[60, 47]),
   midi.NoteOnEvent(tick=240, channel=0, data=[60, 0]),
   midi.NoteOnEvent(tick=0, channel=0, data=[58, 54]),
   midi.NoteOnEvent(tick=240, channel=0, data=[58, 0]),
   midi.NoteOnEvent(tick=0, channel=0, data=[60, 50]),
   midi.NoteOnEvent(tick=240, channel=0, data=[60, 0]),
   midi.NoteOnEvent(tick=0, channel=0, data=[58, 45]),
   midi.NoteOnEvent(tick=240, channel=0, data=[58, 0]),
   midi.NoteOnEvent(tick=0, channel=0, data=[60, 41]),
   midi.NoteOnEvent(tick=240, channel=0, data=[60, 0]),
   midi.NoteOnEvent(tick=0, channel=0, data=[57, 48]),
   midi.NoteOnEvent(tick=240, channel=0, data=[57, 0]),
   midi.NoteOnEvent(tick=0, channel=0, data=[60, 45]),
   midi.NoteOnEvent(tick=240, channel=0, data=[60, 0]),
   midi.NoteOnEvent(tick=0, channel=0, data=[57, 51]),
   midi.NoteOnEvent(tick=240, channel=0, data=[57, 0]),
   midi.NoteOnEvent(tick=0, channel=0, data=[60, 47]),
   midi.NoteOnEvent(tick=240, channel=0, data=[60, 0]),
   midi.NoteOnEvent(tick=0, channel=0, data=[58, 53]),
   midi.NoteOnEvent(tick=240, channel=0, data=[58, 0]),
   midi.NoteOnEvent(tick=0, channel=0, data=[60, 50]),
   midi.NoteOnEvent(tick=240, channel=0, data=[60, 0]),
   midi.NoteOnEvent(tick=0, channel=0, data=[58, 47]),
   midi.NoteOnEvent(tick=240, channel=0, data=[58, 0]),
   midi.NoteOnEvent(tick=0, channel=0, data=[60, 43]),
   midi.NoteOnEvent(tick=240, channel=0, data=[60, 0]),
   midi.NoteOnEvent(tick=0, channel=0, data=[57, 46]),
   midi.NoteOnEvent(tick=240, channel=0, data=[57, 0]),
   midi.NoteOnEvent(tick=0, channel=0, data=[60, 36]),
   midi.NoteOnEvent(tick=240, channel=0, data=[60, 0]),
   midi.NoteOnEvent(tick=0, channel=0, data=[57, 43]),
   midi.NoteOnEvent(tick=240, channel=0, data=[57, 0]),
   midi.NoteOnEvent(tick=0, channel=0, data=[60, 36]),
   midi.NoteOnEvent(tick=240, channel=0, data=[60, 0]),
   midi.NoteOnEvent(tick=0, channel=0, data=[58, 56]),
   midi.NoteOnEvent(tick=240, channel=0, data=[58, 0]),
   midi.NoteOnEvent(tick=0, channel=0, data=[60, 55]),
   midi.NoteOnEvent(tick=240, channel=0, data=[60, 0]),
   midi.NoteOnEvent(tick=0, channel=0, data=[58, 49]),
   midi.NoteOnEvent(tick=240, channel=0, data=[58, 0]),
   midi.NoteOnEvent(tick=0, channel=0, data=[60, 46]),
   midi.NoteOnEvent(tick=240, channel=0, data=[60, 0]),
   midi.NoteOnEvent(tick=0, channel=0, data=[57, 48]),
   midi.NoteOnEvent(tick=240, channel=0, data=[57, 0]),
   midi.NoteOnEvent(tick=0, channel=0, data=[60, 45]),
   midi.NoteOnEvent(tick=240, channel=0, data=[60, 0]),
   midi.NoteOnEvent(tick=0, channel=0, data=[57, 50]),
   midi.NoteOnEvent(tick=240, channel=0, data=[57, 0]),
   midi.NoteOnEvent(tick=0, channel=0, data=[60, 47]),
   midi.NoteOnEvent(tick=240, channel=0, data=[60, 0]),
   midi.NoteOnEvent(tick=0, channel=0, data=[58, 53]),
   midi.NoteOnEvent(tick=240, channel=0, data=[58, 0]),
   midi.NoteOnEvent(tick=0, channel=0, data=[60, 50]),
   midi.NoteOnEvent(tick=240, channel=0, data=[60, 0]),
   midi.NoteOnEvent(tick=0, channel=0, data=[58, 48]),
   midi.NoteOnEvent(tick=240, channel=0, data=[58, 0]),
   midi.NoteOnEvent(tick=0, channel=0, data=[60, 45]),
   midi.NoteOnEvent(tick=240, channel=0, data=[60, 0]),
   midi.NoteOnEvent(tick=0, channel=0, data=[57, 53]),
   midi.NoteOnEvent(tick=240, channel=0, data=[57, 0]),
   midi.NoteOnEvent(tick=0, channel=0, data=[60, 49]),
   midi.NoteOnEvent(tick=240, channel=0, data=[60, 0]),
   midi.NoteOnEvent(tick=0, channel=0, data=[57, 53]),
   midi.NoteOnEvent(tick=240, channel=0, data=[57, 0]),
   midi.NoteOnEvent(tick=0, channel=0, data=[60, 49]),
   midi.NoteOnEvent(tick=240, channel=0, data=[60, 0]),
   midi.NoteOnEvent(tick=0, channel=0, data=[58, 54]),
   midi.NoteOnEvent(tick=240, channel=0, data=[58, 0]),
   midi.NoteOnEvent(tick=0, channel=0, data=[60, 48]),
   midi.NoteOnEvent(tick=240, channel=0, data=[60, 0]),
   midi.NoteOnEvent(tick=0, channel=0, data=[58, 57]),
   midi.NoteOnEvent(tick=240, channel=0, data=[58, 0]),
   midi.NoteOnEvent(tick=0, channel=0, data=[60, 52]),
   midi.NoteOnEvent(tick=240, channel=0, data=[60, 0]),
   midi.NoteOnEvent(tick=0, channel=0, data=[57, 64]),
   midi.NoteOnEvent(tick=480, channel=0, data=[57, 0]),
   midi.NoteOnEvent(tick=960, channel=0, data=[65, 71]),
   midi.NoteOnEvent(tick=0, channel=0, data=[57, 71]),
   midi.NoteOnEvent(tick=480, channel=0, data=[57, 0]),
   midi.NoteOnEvent(tick=0, channel=0, data=[65, 0]),
   midi.NoteOnEvent(tick=0, channel=0, data=[58, 81]),
   midi.NoteOnEvent(tick=0, channel=0, data=[65, 81]),
   midi.NoteOnEvent(tick=480, channel=0, data=[65, 0]),
   midi.NoteOnEvent(tick=0, channel=0, data=[58, 0]),
   midi.NoteOnEvent(tick=960, channel=0, data=[65, 51]),
   midi.NoteOnEvent(tick=0, channel=0, data=[67, 51]),
   midi.NoteOnEvent(tick=0, channel=0, data=[58, 51]),
   midi.NoteOnEvent(tick=480, channel=0, data=[58, 0]),
   midi.NoteOnEvent(tick=0, channel=0, data=[67, 0]),
   midi.NoteOnEvent(tick=0, channel=0, data=[65, 0]),
   midi.NoteOnEvent(tick=0, channel=0, data=[60, 55]),
   midi.NoteOnEvent(tick=240, channel=0, data=[60, 0]),
   midi.NoteOnEvent(tick=0, channel=0, data=[69, 51]),
   midi.NoteOnEvent(tick=240, channel=0, data=[69, 0]),
   midi.NoteOnEvent(tick=0, channel=0, data=[65, 56]),
   midi.NoteOnEvent(tick=240, channel=0, data=[65, 0]),
   midi.NoteOnEvent(tick=0, channel=0, data=[69, 51]),
   midi.NoteOnEvent(tick=240, channel=0, data=[69, 0]),
   midi.NoteOnEvent(tick=0, channel=0, data=[60, 55]),
   midi.NoteOnEvent(tick=240, channel=0, data=[60, 0]),
   midi.NoteOnEvent(tick=0, channel=0, data=[70, 49]),
   midi.NoteOnEvent(tick=240, channel=0, data=[70, 0]),
   midi.NoteOnEvent(tick=0, channel=0, data=[64, 55]),
   midi.NoteOnEvent(tick=240, channel=0, data=[64, 0]),
   midi.NoteOnEvent(tick=0, channel=0, data=[70, 49]),
   midi.NoteOnEvent(tick=240, channel=0, data=[70, 0]),
   midi.NoteOnEvent(tick=0, channel=0, data=[65, 55]),
   midi.NoteOnEvent(tick=480, channel=0, data=[65, 0]),
   midi.NoteOnEvent(tick=240, channel=0, data=[67, 61]),
   midi.NoteOnEvent(tick=240, channel=0, data=[67, 0]),
   midi.NoteOnEvent(tick=0, channel=0, data=[69, 66]),
   midi.NoteOnEvent(tick=480, channel=0, data=[69, 0]),
   midi.NoteOnEvent(tick=240, channel=0, data=[57, 60]),
   midi.NoteOnEvent(tick=240, channel=0, data=[57, 0]),
   midi.NoteOnEvent(tick=0, channel=0, data=[58, 66]),
   midi.NoteOnEvent(tick=480, channel=0, data=[58, 0]),
   midi.NoteOnEvent(tick=480, channel=0, data=[34, 67]),
   midi.NoteOnEvent(tick=0, channel=0, data=[46, 67]),
   midi.NoteOnEvent(tick=480, channel=0, data=[46, 0]),
   midi.NoteOnEvent(tick=0, channel=0, data=[34, 0]),
   midi.NoteOnEvent(tick=480, channel=0, data=[48, 57]),
   midi.NoteOnEvent(tick=240, channel=0, data=[48, 0]),
   midi.NoteOnEvent(tick=0, channel=0, data=[57, 54]),
   midi.NoteOnEvent(tick=240, channel=0, data=[57, 0]),
   midi.NoteOnEvent(tick=0, channel=0, data=[53, 57]),
   midi.NoteOnEvent(tick=240, channel=0, data=[53, 0]),
   midi.NoteOnEvent(tick=0, channel=0, data=[57, 54]),
   midi.NoteOnEvent(tick=240, channel=0, data=[57, 0]),
   midi.NoteOnEvent(tick=0, channel=0, data=[48, 63]),
   midi.NoteOnEvent(tick=240, channel=0, data=[48, 0]),
   midi.NoteOnEvent(tick=0, channel=0, data=[57, 57]),
   midi.NoteOnEvent(tick=240, channel=0, data=[57, 0]),
   midi.NoteOnEvent(tick=0, channel=0, data=[53, 67]),
   midi.NoteOnEvent(tick=240, channel=0, data=[53, 0]),
   midi.NoteOnEvent(tick=0, channel=0, data=[57, 61]),
   midi.NoteOnEvent(tick=240, channel=0, data=[57, 0]),
   midi.NoteOnEvent(tick=0, channel=0, data=[48, 57]),
   midi.NoteOnEvent(tick=240, channel=0, data=[48, 0]),
   midi.NoteOnEvent(tick=0, channel=0, data=[58, 53]),
   midi.NoteOnEvent(tick=240, channel=0, data=[58, 0]),
   midi.NoteOnEvent(tick=0, channel=0, data=[52, 57]),
   midi.NoteOnEvent(tick=240, channel=0, data=[52, 0]),
   midi.NoteOnEvent(tick=0, channel=0, data=[58, 53]),
   midi.NoteOnEvent(tick=240, channel=0, data=[58, 0]),
   midi.NoteOnEvent(tick=0, channel=0, data=[48, 57]),
   midi.NoteOnEvent(tick=240, channel=0, data=[48, 0]),
   midi.NoteOnEvent(tick=0, channel=0, data=[58, 53]),
   midi.NoteOnEvent(tick=240, channel=0, data=[58, 0]),
   midi.NoteOnEvent(tick=0, channel=0, data=[52, 57]),
   midi.NoteOnEvent(tick=240, channel=0, data=[52, 0]),
   midi.NoteOnEvent(tick=0, channel=0, data=[58, 52]),
   midi.NoteOnEvent(tick=240, channel=0, data=[58, 0]),
   midi.NoteOnEvent(tick=0, channel=0, data=[53, 57]),
   midi.NoteOnEvent(tick=0, channel=0, data=[57, 57]),
   midi.NoteOnEvent(tick=120, channel=0, data=[57, 0]),
   midi.NoteOnEvent(tick=0, channel=0, data=[53, 0]),
   midi.NoteOnEvent(tick=360, channel=0, data=[57, 47]),
   midi.NoteOnEvent(tick=0, channel=0, data=[53, 47]),
   midi.NoteOnEvent(tick=480, channel=0, data=[53, 0]),
   midi.NoteOnEvent(tick=0, channel=0, data=[57, 0]),
   midi.NoteOnEvent(tick=480, channel=0, data=[57, 47]),
   midi.NoteOnEvent(tick=0, channel=0, data=[53, 47]),
   midi.NoteOnEvent(tick=480, channel=0, data=[53, 0]),
   midi.NoteOnEvent(tick=0, channel=0, data=[57, 0]),
   midi.NoteOnEvent(tick=0, channel=0, data=[55, 50]),
   midi.NoteOnEvent(tick=0, channel=0, data=[58, 50]),
   midi.NoteOnEvent(tick=0, channel=0, data=[53, 50]),
   midi.NoteOnEvent(tick=120, channel=0, data=[53, 0]),
   midi.NoteOnEvent(tick=0, channel=0, data=[58, 0]),
   midi.NoteOnEvent(tick=0, channel=0, data=[55, 0]),
   midi.NoteOnEvent(tick=360, channel=0, data=[53, 50]),
   midi.NoteOnEvent(tick=0, channel=0, data=[55, 50]),
   midi.NoteOnEvent(tick=0, channel=0, data=[58, 50]),
   midi.NoteOnEvent(tick=480, channel=0, data=[58, 0]),
   midi.NoteOnEvent(tick=0, channel=0, data=[55, 0]),
   midi.NoteOnEvent(tick=0, channel=0, data=[53, 0]),
   midi.NoteOnEvent(tick=480, channel=0, data=[53, 54]),
   midi.NoteOnEvent(tick=0, channel=0, data=[56, 54]),
   midi.NoteOnEvent(tick=0, channel=0, data=[59, 54]),
   midi.NoteOnEvent(tick=480, channel=0, data=[59, 0]),
   midi.NoteOnEvent(tick=0, channel=0, data=[56, 0]),
   midi.NoteOnEvent(tick=0, channel=0, data=[53, 0]),
   midi.NoteOnEvent(tick=0, channel=0, data=[53, 55]),
   midi.NoteOnEvent(tick=0, channel=0, data=[60, 55]),
   midi.NoteOnEvent(tick=0, channel=0, data=[57, 55]),
   midi.NoteOnEvent(tick=480, channel=0, data=[57, 0]),
   midi.NoteOnEvent(tick=0, channel=0, data=[60, 0]),
   midi.NoteOnEvent(tick=0, channel=0, data=[57, 61]),
   midi.NoteOnEvent(tick=0, channel=0, data=[61, 61]),
   midi.NoteOnEvent(tick=480, channel=0, data=[61, 0]),
   midi.NoteOnEvent(tick=0, channel=0, data=[57, 0]),
   midi.NoteOnEvent(tick=0, channel=0, data=[53, 0]),
   midi.NoteOnEvent(tick=0, channel=0, data=[58, 66]),
   midi.NoteOnEvent(tick=0, channel=0, data=[62, 66]),
   midi.NoteOnEvent(tick=0, channel=0, data=[53, 66]),
   midi.NoteOnEvent(tick=480, channel=0, data=[62, 0]),
   midi.NoteOnEvent(tick=0, channel=0, data=[58, 0]),
   midi.NoteOnEvent(tick=0, channel=0, data=[59, 71]),
   midi.NoteOnEvent(tick=0, channel=0, data=[62, 71]),
   midi.NoteOnEvent(tick=480, channel=0, data=[62, 0]),
   midi.NoteOnEvent(tick=0, channel=0, data=[59, 0]),
   midi.NoteOnEvent(tick=0, channel=0, data=[53, 0]),
   midi.NoteOnEvent(tick=0, channel=0, data=[60, 77]),
   midi.NoteOnEvent(tick=0, channel=0, data=[53, 77]),
   midi.NoteOnEvent(tick=0, channel=0, data=[63, 77]),
   midi.NoteOnEvent(tick=1920, channel=0, data=[63, 0]),
   midi.NoteOnEvent(tick=0, channel=0, data=[53, 0]),
   midi.NoteOnEvent(tick=0, channel=0, data=[60, 0]),
   midi.ControlChangeEvent(tick=1920, channel=0, data=[91, 127]),
   midi.NoteOnEvent(tick=480, channel=0, data=[58, 45]),
   midi.NoteOnEvent(tick=480, channel=0, data=[58, 0]),
   midi.NoteOnEvent(tick=0, channel=0, data=[62, 48]),
   midi.NoteOnEvent(tick=120, channel=0, data=[62, 0]),
   midi.NoteOnEvent(tick=360, channel=0, data=[67, 46]),
   midi.NoteOnEvent(tick=120, channel=0, data=[67, 0]),
   midi.NoteOnEvent(tick=360, channel=0, data=[60, 52]),
   midi.NoteOnEvent(tick=480, channel=0, data=[60, 0]),
   midi.NoteOnEvent(tick=0, channel=0, data=[63, 46]),
   midi.NoteOnEvent(tick=120, channel=0, data=[63, 0]),
   midi.NoteOnEvent(tick=360, channel=0, data=[65, 48]),
   midi.NoteOnEvent(tick=480, channel=0, data=[65, 0]),
   midi.NoteOnEvent(tick=0, channel=0, data=[63, 46]),
   midi.NoteOnEvent(tick=480, channel=0, data=[63, 0]),
   midi.NoteOnEvent(tick=0, channel=0, data=[62, 53]),
   midi.NoteOnEvent(tick=480, channel=0, data=[62, 0]),
   midi.NoteOnEvent(tick=0, channel=0, data=[57, 47]),
   midi.NoteOnEvent(tick=480, channel=0, data=[57, 0]),
   midi.NoteOnEvent(tick=0, channel=0, data=[58, 51]),
   midi.NoteOnEvent(tick=480, channel=0, data=[58, 0]),
   midi.NoteOnEvent(tick=0, channel=0, data=[60, 49]),
   midi.NoteOnEvent(tick=0, channel=0, data=[51, 49]),
   midi.NoteOnEvent(tick=480, channel=0, data=[51, 0]),
   midi.NoteOnEvent(tick=0, channel=0, data=[60, 0]),
   midi.NoteOnEvent(tick=0, channel=0, data=[53, 52]),
   midi.NoteOnEvent(tick=0, channel=0, data=[58, 52]),
   midi.NoteOnEvent(tick=960, channel=0, data=[58, 0]),
   midi.NoteOnEvent(tick=0, channel=0, data=[57, 47]),
   midi.NoteOnEvent(tick=480, channel=0, data=[57, 0]),
   midi.NoteOnEvent(tick=0, channel=0, data=[53, 0]),
   midi.NoteOnEvent(tick=960, channel=0, data=[58, 41]),
   midi.NoteOnEvent(tick=480, channel=0, data=[58, 0]),
   midi.NoteOnEvent(tick=0, channel=0, data=[62, 47]),
   midi.NoteOnEvent(tick=120, channel=0, data=[62, 0]),
   midi.NoteOnEvent(tick=360, channel=0, data=[67, 45]),
   midi.NoteOnEvent(tick=120, channel=0, data=[67, 0]),
   midi.NoteOnEvent(tick=360, channel=0, data=[60, 51]),
   midi.NoteOnEvent(tick=480, channel=0, data=[60, 0]),
   midi.NoteOnEvent(tick=0, channel=0, data=[63, 47]),
   midi.NoteOnEvent(tick=120, channel=0, data=[63, 0]),
   midi.NoteOnEvent(tick=360, channel=0, data=[65, 48]),
   midi.NoteOnEvent(tick=480, channel=0, data=[65, 0]),
   midi.NoteOnEvent(tick=0, channel=0, data=[63, 45]),
   midi.NoteOnEvent(tick=480, channel=0, data=[63, 0]),
   midi.NoteOnEvent(tick=0, channel=0, data=[62, 51]),
   midi.NoteOnEvent(tick=480, channel=0, data=[62, 0]),
   midi.NoteOnEvent(tick=0, channel=0, data=[63, 47]),
   midi.NoteOnEvent(tick=0, channel=0, data=[51, 47]),
   midi.NoteOnEvent(tick=480, channel=0, data=[51, 0]),
   midi.NoteOnEvent(tick=0, channel=0, data=[63, 0]),
   midi.NoteOnEvent(tick=0, channel=0, data=[53, 50]),
   midi.NoteOnEvent(tick=0, channel=0, data=[62, 50]),
   midi.NoteOnEvent(tick=480, channel=0, data=[62, 0]),
   midi.NoteOnEvent(tick=0, channel=0, data=[60, 48]),
   midi.NoteOnEvent(tick=480, channel=0, data=[60, 0]),
   midi.NoteOnEvent(tick=0, channel=0, data=[53, 0]),
   midi.NoteOnEvent(tick=0, channel=0, data=[58, 51]),
   midi.NoteOnEvent(tick=480, channel=0, data=[58, 0]),
   midi.ControlChangeEvent(tick=1440, channel=0, data=[91, 127]),
   midi.NoteOnEvent(tick=0, channel=0, data=[58, 64]),
   midi.NoteOnEvent(tick=240, channel=0, data=[58, 0]),
   midi.NoteOnEvent(tick=0, channel=0, data=[65, 54]),
   midi.NoteOnEvent(tick=240, channel=0, data=[65, 0]),
   midi.NoteOnEvent(tick=0, channel=0, data=[62, 59]),
   midi.NoteOnEvent(tick=240, channel=0, data=[62, 0]),
   midi.NoteOnEvent(tick=0, channel=0, data=[65, 54]),
   midi.NoteOnEvent(tick=240, channel=0, data=[65, 0]),
   midi.NoteOnEvent(tick=0, channel=0, data=[55, 63]),
   midi.NoteOnEvent(tick=240, channel=0, data=[55, 0]),
   midi.NoteOnEvent(tick=0, channel=0, data=[62, 55]),
   midi.NoteOnEvent(tick=240, channel=0, data=[62, 0]),
   midi.NoteOnEvent(tick=0, channel=0, data=[58, 59]),
   midi.NoteOnEvent(tick=240, channel=0, data=[58, 0]),
   midi.NoteOnEvent(tick=0, channel=0, data=[62, 55]),
   midi.NoteOnEvent(tick=240, channel=0, data=[62, 0]),
   midi.NoteOnEvent(tick=0, channel=0, data=[51, 64]),
   midi.NoteOnEvent(tick=240, channel=0, data=[51, 0]),
   midi.NoteOnEvent(tick=0, channel=0, data=[60, 56]),
   midi.NoteOnEvent(tick=240, channel=0, data=[60, 0]),
   midi.NoteOnEvent(tick=0, channel=0, data=[55, 59]),
   midi.NoteOnEvent(tick=240, channel=0, data=[55, 0]),
   midi.NoteOnEvent(tick=0, channel=0, data=[60, 55]),
   midi.NoteOnEvent(tick=240, channel=0, data=[60, 0]),
   midi.NoteOnEvent(tick=0, channel=0, data=[53, 64]),
   midi.NoteOnEvent(tick=240, channel=0, data=[53, 0]),
   midi.NoteOnEvent(tick=0, channel=0, data=[63, 56]),
   midi.NoteOnEvent(tick=240, channel=0, data=[63, 0]),
   midi.NoteOnEvent(tick=0, channel=0, data=[60, 60]),
   midi.NoteOnEvent(tick=240, channel=0, data=[60, 0]),
   midi.NoteOnEvent(tick=0, channel=0, data=[63, 56]),
   midi.NoteOnEvent(tick=240, channel=0, data=[63, 0]),
   midi.NoteOnEvent(tick=0, channel=0, data=[62, 66]),
   midi.NoteOnEvent(tick=480, channel=0, data=[62, 0]),
   midi.NoteOnEvent(tick=0, channel=0, data=[62, 57]),
   midi.NoteOnEvent(tick=0, channel=0, data=[57, 57]),
   midi.NoteOnEvent(tick=480, channel=0, data=[57, 0]),
   midi.NoteOnEvent(tick=0, channel=0, data=[58, 64]),
   midi.NoteOnEvent(tick=480, channel=0, data=[58, 0]),
   midi.NoteOnEvent(tick=0, channel=0, data=[62, 0]),
   midi.NoteOnEvent(tick=0, channel=0, data=[51, 64]),
   midi.NoteOnEvent(tick=0, channel=0, data=[60, 64]),
   midi.NoteOnEvent(tick=480, channel=0, data=[60, 0]),
   midi.NoteOnEvent(tick=0, channel=0, data=[51, 0]),
   midi.NoteOnEvent(tick=0, channel=0, data=[58, 65]),
   midi.NoteOnEvent(tick=0, channel=0, data=[53, 65]),
   midi.NoteOnEvent(tick=960, channel=0, data=[58, 0]),
   midi.NoteOnEvent(tick=0, channel=0, data=[57, 60]),
   midi.NoteOnEvent(tick=480, channel=0, data=[57, 0]),
   midi.NoteOnEvent(tick=0, channel=0, data=[53, 0]),
   midi.NoteOnEvent(tick=480, channel=0, data=[58, 65]),
   midi.NoteOnEvent(tick=240, channel=0, data=[58, 0]),
   midi.NoteOnEvent(tick=0, channel=0, data=[65, 55]),
   midi.NoteOnEvent(tick=240, channel=0, data=[65, 0]),
   midi.NoteOnEvent(tick=0, channel=0, data=[62, 60]),
   midi.NoteOnEvent(tick=240, channel=0, data=[62, 0]),
   midi.NoteOnEvent(tick=0, channel=0, data=[65, 55]),
   midi.NoteOnEvent(tick=240, channel=0, data=[65, 0]),
   midi.NoteOnEvent(tick=0, channel=0, data=[55, 64]),
   midi.NoteOnEvent(tick=120, channel=0, data=[55, 0]),
   midi.NoteOnEvent(tick=120, channel=0, data=[62, 56]),
   midi.NoteOnEvent(tick=120, channel=0, data=[62, 0]),
   midi.NoteOnEvent(tick=120, channel=0, data=[58, 60]),
   midi.NoteOnEvent(tick=120, channel=0, data=[58, 0]),
   midi.NoteOnEvent(tick=120, channel=0, data=[62, 55]),
   midi.NoteOnEvent(tick=120, channel=0, data=[62, 0]),
   midi.NoteOnEvent(tick=120, channel=0, data=[51, 64]),
   midi.NoteOnEvent(tick=240, channel=0, data=[51, 0]),
   midi.NoteOnEvent(tick=0, channel=0, data=[60, 55]),
   midi.NoteOnEvent(tick=240, channel=0, data=[60, 0]),
   midi.NoteOnEvent(tick=0, channel=0, data=[55, 59]),
   midi.NoteOnEvent(tick=240, channel=0, data=[55, 0]),
   midi.NoteOnEvent(tick=0, channel=0, data=[60, 55]),
   midi.NoteOnEvent(tick=240, channel=0, data=[60, 0]),
   midi.NoteOnEvent(tick=0, channel=0, data=[53, 64]),
   midi.NoteOnEvent(tick=240, channel=0, data=[53, 0]),
   midi.NoteOnEvent(tick=0, channel=0, data=[63, 55]),
   midi.NoteOnEvent(tick=240, channel=0, data=[63, 0]),
   midi.NoteOnEvent(tick=0, channel=0, data=[60, 59]),
   midi.NoteOnEvent(tick=240, channel=0, data=[60, 0]),
   midi.NoteOnEvent(tick=0, channel=0, data=[63, 54]),
   midi.NoteOnEvent(tick=240, channel=0, data=[63, 0]),
   midi.NoteOnEvent(tick=0, channel=0, data=[50, 59]),
   midi.NoteOnEvent(tick=0, channel=0, data=[58, 59]),
   midi.NoteOnEvent(tick=480, channel=0, data=[50, 0]),
   midi.NoteOnEvent(tick=0, channel=0, data=[51, 56]),
   midi.NoteOnEvent(tick=480, channel=0, data=[51, 0]),
   midi.NoteOnEvent(tick=0, channel=0, data=[58, 0]),
   midi.NoteOnEvent(tick=0, channel=0, data=[53, 59]),
   midi.NoteOnEvent(tick=0, channel=0, data=[62, 59]),
   midi.NoteOnEvent(tick=480, channel=0, data=[62, 0]),
   midi.NoteOnEvent(tick=0, channel=0, data=[63, 56]),
   midi.NoteOnEvent(tick=480, channel=0, data=[63, 0]),
   midi.NoteOnEvent(tick=0, channel=0, data=[53, 0]),
   midi.NoteOnEvent(tick=0, channel=0, data=[62, 59]),
   midi.NoteOnEvent(tick=0, channel=0, data=[58, 59]),
   midi.NoteOnEvent(tick=480, channel=0, data=[58, 0]),
   midi.NoteOnEvent(tick=0, channel=0, data=[62, 0]),
   midi.NoteOnEvent(tick=0, channel=0, data=[46, 63]),
   midi.NoteOnEvent(tick=480, channel=0, data=[46, 0]),
   midi.NoteOnEvent(tick=1440, channel=0, data=[58, 46]),
   midi.NoteOnEvent(tick=180, channel=0, data=[58, 0]),
   midi.NoteOnEvent(tick=300, channel=0, data=[55, 48]),
   midi.NoteOnEvent(tick=480, channel=0, data=[55, 0]),
   midi.NoteOnEvent(tick=0, channel=0, data=[51, 46]),
   midi.NoteOnEvent(tick=480, channel=0, data=[51, 0]),
   midi.NoteOnEvent(tick=0, channel=0, data=[53, 47]),
   midi.NoteOnEvent(tick=480, channel=0, data=[53, 0]),
   midi.NoteOnEvent(tick=0, channel=0, data=[41, 57]),
   midi.NoteOnEvent(tick=480, channel=0, data=[41, 0]),
   midi.NoteOnEvent(tick=1440, channel=0, data=[60, 45]),
   midi.NoteOnEvent(tick=180, channel=0, data=[60, 0]),
   midi.NoteOnEvent(tick=300, channel=0, data=[57, 45]),
   midi.NoteOnEvent(tick=480, channel=0, data=[57, 0]),
   midi.NoteOnEvent(tick=0, channel=0, data=[53, 42]),
   midi.NoteOnEvent(tick=480, channel=0, data=[53, 0]),
   midi.NoteOnEvent(tick=0, channel=0, data=[58, 46]),
   midi.NoteOnEvent(tick=480, channel=0, data=[58, 0]),
   midi.NoteOnEvent(tick=0, channel=0, data=[46, 58]),
   midi.NoteOnEvent(tick=480, channel=0, data=[46, 0]),
   midi.NoteOnEvent(tick=1440, channel=0, data=[62, 53]),
   midi.NoteOnEvent(tick=0, channel=0, data=[58, 53]),
   midi.NoteOnEvent(tick=360, channel=0, data=[58, 0]),
   midi.NoteOnEvent(tick=0, channel=0, data=[62, 0]),
   midi.NoteOnEvent(tick=120, channel=0, data=[58, 56]),
   midi.NoteOnEvent(tick=0, channel=0, data=[62, 56]),
   midi.NoteOnEvent(tick=360, channel=0, data=[62, 0]),
   midi.NoteOnEvent(tick=0, channel=0, data=[58, 0]),
   midi.NoteOnEvent(tick=120, channel=0, data=[62, 60]),
   midi.NoteOnEvent(tick=0, channel=0, data=[58, 60]),
   midi.NoteOnEvent(tick=360, channel=0, data=[58, 0]),
   midi.NoteOnEvent(tick=0, channel=0, data=[62, 0]),
   midi.NoteOnEvent(tick=120, channel=0, data=[57, 68]),
   midi.NoteOnEvent(tick=0, channel=0, data=[60, 68]),
   midi.NoteOnEvent(tick=960, channel=0, data=[60, 0]),
   midi.NoteOnEvent(tick=0, channel=0, data=[57, 0]),
   midi.NoteOnEvent(tick=0, channel=0, data=[57, 54]),
   midi.NoteOnEvent(tick=0, channel=0, data=[50, 54]),
   midi.NoteOnEvent(tick=960, channel=0, data=[50, 0]),
   midi.NoteOnEvent(tick=0, channel=0, data=[57, 0]),
   midi.NoteOnEvent(tick=0, channel=0, data=[51, 53]),
   midi.NoteOnEvent(tick=240, channel=0, data=[55, 52]),
   midi.NoteOnEvent(tick=240, channel=0, data=[55, 0]),
   midi.NoteOnEvent(tick=0, channel=0, data=[57, 54]),
   midi.NoteOnEvent(tick=240, channel=0, data=[57, 0]),
   midi.NoteOnEvent(tick=0, channel=0, data=[58, 57]),
   midi.NoteOnEvent(tick=173, channel=0, data=[58, 0]),
   midi.NoteOnEvent(tick=67, channel=0, data=[58, 57]),
   midi.NoteOnEvent(tick=240, channel=0, data=[58, 0]),
   midi.NoteOnEvent(tick=0, channel=0, data=[57, 55]),
   midi.NoteOnEvent(tick=173, channel=0, data=[57, 0]),
   midi.NoteOnEvent(tick=67, channel=0, data=[57, 55]),
   midi.NoteOnEvent(tick=240, channel=0, data=[57, 0]),
   midi.NoteOnEvent(tick=0, channel=0, data=[55, 54]),
   midi.NoteOnEvent(tick=180, channel=0, data=[55, 0]),
   midi.NoteOnEvent(tick=60, channel=0, data=[51, 0]),
   midi.NoteOnEvent(tick=0, channel=0, data=[50, 47]),
   midi.NoteOnEvent(tick=0, channel=0, data=[54, 47]),
   midi.NoteOnEvent(tick=480, channel=0, data=[54, 0]),
   midi.NoteOnEvent(tick=0, channel=0, data=[50, 0]),
   midi.NoteOnEvent(tick=1440, channel=0, data=[55, 58]),
   midi.NoteOnEvent(tick=240, channel=0, data=[55, 0]),
   midi.NoteOnEvent(tick=0, channel=0, data=[58, 50]),
   midi.NoteOnEvent(tick=240, channel=0, data=[58, 0]),
   midi.NoteOnEvent(tick=0, channel=0, data=[62, 54]),
   midi.NoteOnEvent(tick=240, channel=0, data=[62, 0]),
   midi.NoteOnEvent(tick=0, channel=0, data=[58, 50]),
   midi.NoteOnEvent(tick=240, channel=0, data=[58, 0]),
   midi.NoteOnEvent(tick=0, channel=0, data=[55, 54]),
   midi.NoteOnEvent(tick=240, channel=0, data=[55, 0]),
   midi.NoteOnEvent(tick=0, channel=0, data=[58, 47]),
   midi.NoteOnEvent(tick=240, channel=0, data=[58, 0]),
   midi.NoteOnEvent(tick=0, channel=0, data=[62, 50]),
   midi.NoteOnEvent(tick=240, channel=0, data=[62, 0]),
   midi.NoteOnEvent(tick=0, channel=0, data=[58, 47]),
   midi.NoteOnEvent(tick=240, channel=0, data=[58, 0]),
   midi.NoteOnEvent(tick=0, channel=0, data=[55, 58]),
   midi.NoteOnEvent(tick=240, channel=0, data=[55, 0]),
   midi.NoteOnEvent(tick=0, channel=0, data=[60, 51]),
   midi.NoteOnEvent(tick=240, channel=0, data=[60, 0]),
   midi.NoteOnEvent(tick=0, channel=0, data=[63, 54]),
   midi.NoteOnEvent(tick=240, channel=0, data=[63, 0]),
   midi.NoteOnEvent(tick=0, channel=0, data=[60, 51]),
   midi.NoteOnEvent(tick=240, channel=0, data=[60, 0]),
   midi.NoteOnEvent(tick=0, channel=0, data=[55, 53]),
   midi.NoteOnEvent(tick=240, channel=0, data=[55, 0]),
   midi.NoteOnEvent(tick=0, channel=0, data=[60, 49]),
   midi.NoteOnEvent(tick=240, channel=0, data=[60, 0]),
   midi.NoteOnEvent(tick=0, channel=0, data=[63, 51]),
   midi.NoteOnEvent(tick=240, channel=0, data=[63, 0]),
   midi.NoteOnEvent(tick=0, channel=0, data=[60, 48]),
   midi.NoteOnEvent(tick=240, channel=0, data=[60, 0]),
   midi.NoteOnEvent(tick=0, channel=0, data=[53, 58]),
   midi.NoteOnEvent(tick=240, channel=0, data=[53, 0]),
   midi.NoteOnEvent(tick=0, channel=0, data=[60, 51]),
   midi.NoteOnEvent(tick=240, channel=0, data=[60, 0]),
   midi.NoteOnEvent(tick=0, channel=0, data=[63, 54]),
   midi.NoteOnEvent(tick=240, channel=0, data=[63, 0]),
   midi.NoteOnEvent(tick=0, channel=0, data=[60, 51]),
   midi.NoteOnEvent(tick=240, channel=0, data=[60, 0]),
   midi.NoteOnEvent(tick=0, channel=0, data=[55, 56]),
   midi.NoteOnEvent(tick=240, channel=0, data=[55, 0]),
   midi.NoteOnEvent(tick=0, channel=0, data=[60, 50]),
   midi.NoteOnEvent(tick=240, channel=0, data=[60, 0]),
   midi.NoteOnEvent(tick=0, channel=0, data=[63, 52]),
   midi.NoteOnEvent(tick=240, channel=0, data=[63, 0]),
   midi.NoteOnEvent(tick=0, channel=0, data=[60, 49]),
   midi.NoteOnEvent(tick=240, channel=0, data=[60, 0]),
   midi.NoteOnEvent(tick=0, channel=0, data=[55, 53]),
   midi.NoteOnEvent(tick=240, channel=0, data=[55, 0]),
   midi.NoteOnEvent(tick=0, channel=0, data=[58, 50]),
   midi.NoteOnEvent(tick=240, channel=0, data=[58, 0]),
   midi.NoteOnEvent(tick=0, channel=0, data=[62, 50]),
   midi.NoteOnEvent(tick=240, channel=0, data=[62, 0]),
   midi.NoteOnEvent(tick=1200, channel=0, data=[60, 50]),
   midi.NoteOnEvent(tick=0, channel=0, data=[57, 50]),
   midi.NoteOnEvent(tick=0, channel=0, data=[63, 50]),
   midi.NoteOnEvent(tick=480, channel=0, data=[63, 0]),
   midi.NoteOnEvent(tick=0, channel=0, data=[57, 0]),
   midi.NoteOnEvent(tick=0, channel=0, data=[60, 0]),
   midi.NoteOnEvent(tick=0, channel=0, data=[58, 46]),
   midi.NoteOnEvent(tick=0, channel=0, data=[62, 46]),
   midi.NoteOnEvent(tick=240, channel=0, data=[62, 0]),
   midi.NoteOnEvent(tick=0, channel=0, data=[58, 0]),
   midi.NoteOnEvent(tick=1200, channel=0, data=[63, 49]),
   midi.NoteOnEvent(tick=0, channel=0, data=[57, 49]),
   midi.NoteOnEvent(tick=0, channel=0, data=[60, 49]),
   midi.NoteOnEvent(tick=480, channel=0, data=[60, 0]),
   midi.NoteOnEvent(tick=0, channel=0, data=[57, 0]),
   midi.NoteOnEvent(tick=0, channel=0, data=[63, 0]),
   midi.NoteOnEvent(tick=0, channel=0, data=[58, 45]),
   midi.NoteOnEvent(tick=0, channel=0, data=[62, 45]),
   midi.NoteOnEvent(tick=240, channel=0, data=[62, 0]),
   midi.NoteOnEvent(tick=0, channel=0, data=[58, 0]),
   midi.NoteOnEvent(tick=1200, channel=0, data=[51, 53]),
   midi.NoteOnEvent(tick=0, channel=0, data=[58, 53]),
   midi.NoteOnEvent(tick=960, channel=0, data=[58, 0]),
   midi.NoteOnEvent(tick=0, channel=0, data=[55, 47]),
   midi.NoteOnEvent(tick=960, channel=0, data=[55, 0]),
   midi.NoteOnEvent(tick=0, channel=0, data=[51, 0]),
   midi.NoteOnEvent(tick=0, channel=0, data=[54, 40]),
   midi.NoteOnEvent(tick=0, channel=0, data=[57, 40]),
   midi.NoteOnEvent(tick=460, channel=0, data=[54, 0]),
   midi.NoteOnEvent(tick=9, channel=0, data=[57, 0]),
   midi.NoteOnEvent(tick=11, channel=0, data=[50, 28]),
   midi.NoteOnEvent(tick=0, channel=0, data=[54, 28]),
   midi.NoteOnEvent(tick=0, channel=0, data=[57, 34]),
   midi.NoteOnEvent(tick=360, channel=0, data=[57, 0]),
   midi.NoteOnEvent(tick=0, channel=0, data=[54, 0]),
   midi.NoteOnEvent(tick=0, channel=0, data=[50, 0]),
   midi.NoteOnEvent(tick=120, channel=0, data=[50, 29]),
   midi.NoteOnEvent(tick=0, channel=0, data=[54, 29]),
   midi.NoteOnEvent(tick=0, channel=0, data=[57, 35]),
   midi.NoteOnEvent(tick=360, channel=0, data=[57, 0]),
   midi.NoteOnEvent(tick=0, channel=0, data=[54, 0]),
   midi.NoteOnEvent(tick=0, channel=0, data=[50, 0]),
   midi.NoteOnEvent(tick=120, channel=0, data=[50, 28]),
   midi.NoteOnEvent(tick=0, channel=0, data=[54, 28]),
   midi.NoteOnEvent(tick=0, channel=0, data=[57, 34]),
   midi.NoteOnEvent(tick=360, channel=0, data=[57, 0]),
   midi.NoteOnEvent(tick=0, channel=0, data=[54, 0]),
   midi.NoteOnEvent(tick=0, channel=0, data=[50, 0]),
   midi.NoteOnEvent(tick=600, channel=0, data=[53, 27]),
   midi.NoteOnEvent(tick=0, channel=0, data=[57, 37]),
   midi.NoteOnEvent(tick=0, channel=0, data=[50, 27]),
   midi.NoteOnEvent(tick=360, channel=0, data=[50, 0]),
   midi.NoteOnEvent(tick=0, channel=0, data=[57, 0]),
   midi.NoteOnEvent(tick=0, channel=0, data=[53, 0]),
   midi.NoteOnEvent(tick=120, channel=0, data=[53, 27]),
   midi.NoteOnEvent(tick=0, channel=0, data=[57, 37]),
   midi.NoteOnEvent(tick=0, channel=0, data=[50, 27]),
   midi.NoteOnEvent(tick=360, channel=0, data=[50, 0]),
   midi.NoteOnEvent(tick=0, channel=0, data=[57, 0]),
   midi.NoteOnEvent(tick=0, channel=0, data=[53, 0]),
   midi.NoteOnEvent(tick=120, channel=0, data=[53, 26]),
   midi.NoteOnEvent(tick=0, channel=0, data=[57, 36]),
   midi.NoteOnEvent(tick=0, channel=0, data=[50, 26]),
   midi.NoteOnEvent(tick=360, channel=0, data=[50, 0]),
   midi.NoteOnEvent(tick=0, channel=0, data=[57, 0]),
   midi.NoteOnEvent(tick=0, channel=0, data=[53, 0]),
   midi.NoteOnEvent(tick=600, channel=0, data=[50, 38]),
   midi.NoteOnEvent(tick=0, channel=0, data=[58, 51]),
   midi.NoteOnEvent(tick=0, channel=0, data=[53, 38]),
   midi.NoteOnEvent(tick=360, channel=0, data=[53, 0]),
   midi.NoteOnEvent(tick=0, channel=0, data=[58, 0]),
   midi.NoteOnEvent(tick=0, channel=0, data=[50, 0]),
   midi.NoteOnEvent(tick=120, channel=0, data=[50, 41]),
   midi.NoteOnEvent(tick=0, channel=0, data=[53, 41]),
   midi.NoteOnEvent(tick=0, channel=0, data=[58, 56]),
   midi.NoteOnEvent(tick=360, channel=0, data=[58, 0]),
   midi.NoteOnEvent(tick=0, channel=0, data=[53, 0]),
   midi.NoteOnEvent(tick=0, channel=0, data=[50, 0]),
   midi.NoteOnEvent(tick=120, channel=0, data=[50, 45]),
   midi.NoteOnEvent(tick=0, channel=0, data=[53, 45]),
   midi.NoteOnEvent(tick=0, channel=0, data=[58, 60]),
   midi.NoteOnEvent(tick=360, channel=0, data=[58, 0]),
   midi.NoteOnEvent(tick=0, channel=0, data=[53, 0]),
   midi.NoteOnEvent(tick=0, channel=0, data=[50, 0]),
   midi.NoteOnEvent(tick=600, channel=0, data=[53, 60]),
   midi.NoteOnEvent(tick=0, channel=0, data=[46, 45]),
   midi.NoteOnEvent(tick=360, channel=0, data=[46, 0]),
   midi.NoteOnEvent(tick=0, channel=0, data=[53, 0]),
   midi.NoteOnEvent(tick=120, channel=0, data=[46, 48]),
   midi.NoteOnEvent(tick=0, channel=0, data=[53, 63]),
   midi.NoteOnEvent(tick=360, channel=0, data=[53, 0]),
   midi.NoteOnEvent(tick=0, channel=0, data=[46, 0]),
   midi.NoteOnEvent(tick=120, channel=0, data=[53, 60]),
   midi.NoteOnEvent(tick=0, channel=0, data=[46, 45]),
   midi.NoteOnEvent(tick=360, channel=0, data=[46, 0]),
   midi.NoteOnEvent(tick=0, channel=0, data=[53, 0]),
   midi.NoteOnEvent(tick=120, channel=0, data=[39, 48]),
   midi.NoteOnEvent(tick=0, channel=0, data=[51, 63]),
   midi.NoteOnEvent(tick=480, channel=0, data=[51, 0]),
   midi.NoteOnEvent(tick=0, channel=0, data=[39, 0]),
   midi.NoteOnEvent(tick=0, channel=0, data=[51, 46]),
   midi.NoteOnEvent(tick=480, channel=0, data=[51, 0]),
   midi.NoteOnEvent(tick=0, channel=0, data=[55, 41]),
   midi.NoteOnEvent(tick=480, channel=0, data=[55, 0]),
   midi.NoteOnEvent(tick=0, channel=0, data=[56, 38]),
   midi.NoteOnEvent(tick=480, channel=0, data=[56, 0]),
   midi.NoteOnEvent(tick=0, channel=0, data=[55, 44]),
   midi.NoteOnEvent(tick=480, channel=0, data=[55, 0]),
   midi.NoteOnEvent(tick=0, channel=0, data=[50, 35]),
   midi.NoteOnEvent(tick=480, channel=0, data=[50, 0]),
   midi.NoteOnEvent(tick=0, channel=0, data=[51, 41]),
   midi.NoteOnEvent(tick=480, channel=0, data=[51, 0]),
   midi.NoteOnEvent(tick=0, channel=0, data=[53, 46]),
   midi.NoteOnEvent(tick=480, channel=0, data=[53, 0]),
   midi.NoteOnEvent(tick=480, channel=0, data=[46, 41]),
   midi.NoteOnEvent(tick=480, channel=0, data=[46, 0]),
   midi.NoteOnEvent(tick=0, channel=0, data=[50, 45]),
   midi.NoteOnEvent(tick=480, channel=0, data=[50, 0]),
   midi.NoteOnEvent(tick=0, channel=0, data=[49, 41]),
   midi.NoteOnEvent(tick=480, channel=0, data=[49, 0]),
   midi.NoteOnEvent(tick=0, channel=0, data=[50, 47]),
   midi.NoteOnEvent(tick=480, channel=0, data=[50, 0]),
   midi.NoteOnEvent(tick=0, channel=0, data=[52, 38]),
   midi.NoteOnEvent(tick=480, channel=0, data=[52, 0]),
   midi.NoteOnEvent(tick=0, channel=0, data=[53, 42]),
   midi.NoteOnEvent(tick=480, channel=0, data=[53, 0]),
   midi.NoteOnEvent(tick=0, channel=0, data=[50, 48]),
   midi.NoteOnEvent(tick=480, channel=0, data=[50, 0]),
   midi.NoteOnEvent(tick=0, channel=0, data=[51, 50]),
   midi.NoteOnEvent(tick=480, channel=0, data=[51, 0]),
   midi.NoteOnEvent(tick=0, channel=0, data=[39, 45]),
   midi.NoteOnEvent(tick=480, channel=0, data=[39, 0]),
   midi.NoteOnEvent(tick=480, channel=0, data=[55, 49]),
   midi.NoteOnEvent(tick=0, channel=0, data=[63, 49]),
   midi.NoteOnEvent(tick=480, channel=0, data=[63, 0]),
   midi.NoteOnEvent(tick=0, channel=0, data=[55, 0]),
   midi.NoteOnEvent(tick=480, channel=0, data=[56, 47]),
   midi.NoteOnEvent(tick=0, channel=0, data=[63, 47]),
   midi.NoteOnEvent(tick=480, channel=0, data=[63, 0]),
   midi.NoteOnEvent(tick=0, channel=0, data=[56, 0]),
   midi.NoteOnEvent(tick=480, channel=0, data=[60, 46]),
   midi.NoteOnEvent(tick=0, channel=0, data=[63, 46]),
   midi.NoteOnEvent(tick=480, channel=0, data=[63, 0]),
   midi.NoteOnEvent(tick=0, channel=0, data=[60, 0]),
   midi.NoteOnEvent(tick=0, channel=0, data=[58, 46]),
   midi.NoteOnEvent(tick=0, channel=0, data=[63, 46]),
   midi.NoteOnEvent(tick=240, channel=0, data=[63, 0]),
   midi.NoteOnEvent(tick=0, channel=0, data=[58, 0]),
   midi.NoteOnEvent(tick=240, channel=0, data=[46, 58]),
   midi.NoteOnEvent(tick=240, channel=0, data=[46, 0]),
   midi.NoteOnEvent(tick=720, channel=0, data=[55, 47]),
   midi.NoteOnEvent(tick=0, channel=0, data=[63, 47]),
   midi.NoteOnEvent(tick=480, channel=0, data=[63, 0]),
   midi.NoteOnEvent(tick=0, channel=0, data=[55, 0]),
   midi.NoteOnEvent(tick=480, channel=0, data=[56, 47]),
   midi.NoteOnEvent(tick=0, channel=0, data=[63, 47]),
   midi.NoteOnEvent(tick=480, channel=0, data=[63, 0]),
   midi.NoteOnEvent(tick=0, channel=0, data=[56, 0]),
   midi.NoteOnEvent(tick=480, channel=0, data=[63, 47]),
   midi.NoteOnEvent(tick=0, channel=0, data=[60, 47]),
   midi.NoteOnEvent(tick=480, channel=0, data=[60, 0]),
   midi.NoteOnEvent(tick=0, channel=0, data=[63, 0]),
   midi.NoteOnEvent(tick=0, channel=0, data=[63, 52]),
   midi.NoteOnEvent(tick=0, channel=0, data=[58, 52]),
   midi.NoteOnEvent(tick=240, channel=0, data=[58, 0]),
   midi.NoteOnEvent(tick=0, channel=0, data=[63, 0]),
   midi.NoteOnEvent(tick=240, channel=0, data=[46, 62]),
   midi.NoteOnEvent(tick=240, channel=0, data=[46, 0]),
   midi.NoteOnEvent(tick=720, channel=0, data=[60, 47]),
   midi.NoteOnEvent(tick=0, channel=0, data=[63, 47]),
   midi.NoteOnEvent(tick=480, channel=0, data=[63, 0]),
   midi.NoteOnEvent(tick=0, channel=0, data=[60, 0]),
   midi.NoteOnEvent(tick=480, channel=0, data=[63, 49]),
   midi.NoteOnEvent(tick=0, channel=0, data=[55, 49]),
   midi.NoteOnEvent(tick=480, channel=0, data=[55, 0]),
   midi.NoteOnEvent(tick=0, channel=0, data=[63, 0]),
   midi.NoteOnEvent(tick=0, channel=0, data=[56, 52]),
   midi.NoteOnEvent(tick=0, channel=0, data=[63, 52]),
   midi.NoteOnEvent(tick=480, channel=0, data=[63, 0]),
   midi.NoteOnEvent(tick=0, channel=0, data=[56, 0]),
   midi.NoteOnEvent(tick=0, channel=0, data=[56, 55]),
   midi.NoteOnEvent(tick=0, channel=0, data=[53, 55]),
   midi.NoteOnEvent(tick=480, channel=0, data=[53, 0]),
   midi.NoteOnEvent(tick=0, channel=0, data=[56, 0]),
   midi.NoteOnEvent(tick=0, channel=0, data=[58, 56]),
   midi.NoteOnEvent(tick=0, channel=0, data=[55, 56]),
   midi.NoteOnEvent(tick=480, channel=0, data=[55, 0]),
   midi.NoteOnEvent(tick=0, channel=0, data=[58, 0]),
   midi.NoteOnEvent(tick=0, channel=0, data=[55, 57]),
   midi.NoteOnEvent(tick=0, channel=0, data=[58, 57]),
   midi.NoteOnEvent(tick=480, channel=0, data=[58, 0]),
   midi.NoteOnEvent(tick=0, channel=0, data=[55, 0]),
   midi.NoteOnEvent(tick=0, channel=0, data=[53, 57]),
   midi.NoteOnEvent(tick=0, channel=0, data=[56, 57]),
   midi.NoteOnEvent(tick=0, channel=0, data=[58, 57]),
   midi.NoteOnEvent(tick=480, channel=0, data=[58, 0]),
   midi.NoteOnEvent(tick=0, channel=0, data=[56, 0]),
   midi.NoteOnEvent(tick=0, channel=0, data=[53, 0]),
   midi.NoteOnEvent(tick=0, channel=0, data=[51, 59]),
   midi.NoteOnEvent(tick=0, channel=0, data=[55, 59]),
   midi.NoteOnEvent(tick=0, channel=0, data=[58, 59]),
   midi.NoteOnEvent(tick=480, channel=0, data=[58, 0]),
   midi.NoteOnEvent(tick=0, channel=0, data=[55, 0]),
   midi.NoteOnEvent(tick=0, channel=0, data=[51, 0]),
   midi.NoteOnEvent(tick=0, channel=0, data=[50, 65]),
   midi.NoteOnEvent(tick=0, channel=0, data=[53, 65]),
   midi.NoteOnEvent(tick=0, channel=0, data=[58, 65]),
   midi.NoteOnEvent(tick=480, channel=0, data=[58, 0]),
   midi.NoteOnEvent(tick=0, channel=0, data=[53, 0]),
   midi.NoteOnEvent(tick=0, channel=0, data=[50, 0]),
   midi.NoteOnEvent(tick=1440, channel=0, data=[63, 48]),
   midi.NoteOnEvent(tick=0, channel=0, data=[70, 48]),
   midi.NoteOnEvent(tick=480, channel=0, data=[70, 0]),
   midi.NoteOnEvent(tick=0, channel=0, data=[63, 0]),
   midi.NoteOnEvent(tick=0, channel=0, data=[68, 47]),
   midi.NoteOnEvent(tick=0, channel=0, data=[56, 47]),
   midi.NoteOnEvent(tick=480, channel=0, data=[56, 0]),
   midi.NoteOnEvent(tick=0, channel=0, data=[68, 0]),
   midi.NoteOnEvent(tick=0, channel=0, data=[58, 48]),
   midi.NoteOnEvent(tick=0, channel=0, data=[67, 48]),
   midi.NoteOnEvent(tick=480, channel=0, data=[67, 0]),
   midi.NoteOnEvent(tick=0, channel=0, data=[65, 45]),
   midi.NoteOnEvent(tick=480, channel=0, data=[65, 0]),
   midi.NoteOnEvent(tick=0, channel=0, data=[58, 0]),
   midi.NoteOnEvent(tick=0, channel=0, data=[50, 68]),
   midi.NoteOnEvent(tick=0, channel=0, data=[53, 68]),
   midi.NoteOnEvent(tick=0, channel=0, data=[58, 68]),
   midi.NoteOnEvent(tick=480, channel=0, data=[58, 0]),
   midi.NoteOnEvent(tick=0, channel=0, data=[53, 0]),
   midi.NoteOnEvent(tick=0, channel=0, data=[50, 0]),
   midi.NoteOnEvent(tick=1440, channel=0, data=[63, 46]),
   midi.NoteOnEvent(tick=0, channel=0, data=[70, 46]),
   midi.NoteOnEvent(tick=480, channel=0, data=[70, 0]),
   midi.NoteOnEvent(tick=0, channel=0, data=[63, 0]),
   midi.NoteOnEvent(tick=0, channel=0, data=[68, 43]),
   midi.NoteOnEvent(tick=0, channel=0, data=[56, 43]),
   midi.NoteOnEvent(tick=480, channel=0, data=[56, 0]),
   midi.NoteOnEvent(tick=0, channel=0, data=[68, 0]),
   midi.NoteOnEvent(tick=0, channel=0, data=[58, 46]),
   midi.NoteOnEvent(tick=0, channel=0, data=[67, 46]),
   midi.NoteOnEvent(tick=480, channel=0, data=[67, 0]),
   midi.NoteOnEvent(tick=0, channel=0, data=[65, 43]),
   midi.NoteOnEvent(tick=480, channel=0, data=[65, 0]),
   midi.NoteOnEvent(tick=0, channel=0, data=[58, 0]),
   midi.NoteOnEvent(tick=960, channel=0, data=[67, 44]),
   midi.NoteOnEvent(tick=0, channel=0, data=[63, 44]),
   midi.NoteOnEvent(tick=960, channel=0, data=[63, 0]),
   midi.NoteOnEvent(tick=0, channel=0, data=[67, 0]),
   midi.NoteOnEvent(tick=0, channel=0, data=[71, 49]),
   midi.NoteOnEvent(tick=0, channel=0, data=[62, 49]),
   midi.NoteOnEvent(tick=955, channel=0, data=[71, 0]),
   midi.NoteOnEvent(tick=5, channel=0, data=[62, 0]),
   midi.NoteOnEvent(tick=0, channel=0, data=[65, 46]),
   midi.NoteOnEvent(tick=0, channel=0, data=[68, 46]),
   midi.NoteOnEvent(tick=480, channel=0, data=[68, 0]),
   midi.NoteOnEvent(tick=0, channel=0, data=[65, 0]),
   midi.NoteOnEvent(tick=480, channel=0, data=[67, 40]),
   midi.NoteOnEvent(tick=0, channel=0, data=[63, 40]),
   midi.NoteOnEvent(tick=480, channel=0, data=[63, 0]),
   midi.NoteOnEvent(tick=0, channel=0, data=[59, 42]),
   midi.NoteOnEvent(tick=480, channel=0, data=[59, 0]),
   midi.NoteOnEvent(tick=0, channel=0, data=[60, 45]),
   midi.NoteOnEvent(tick=480, channel=0, data=[60, 0]),
   midi.NoteOnEvent(tick=0, channel=0, data=[62, 46]),
   midi.NoteOnEvent(tick=480, channel=0, data=[62, 0]),
   midi.NoteOnEvent(tick=0, channel=0, data=[67, 0]),
   midi.NoteOnEvent(tick=0, channel=0, data=[67, 42]),
   midi.NoteOnEvent(tick=0, channel=0, data=[63, 42]),
   midi.NoteOnEvent(tick=480, channel=0, data=[63, 0]),
   midi.NoteOnEvent(tick=0, channel=0, data=[59, 46]),
   midi.NoteOnEvent(tick=480, channel=0, data=[59, 0]),
   midi.NoteOnEvent(tick=0, channel=0, data=[60, 49]),
   midi.NoteOnEvent(tick=480, channel=0, data=[60, 0]),
   midi.NoteOnEvent(tick=0, channel=0, data=[67, 0]),
   midi.NoteOnEvent(tick=1440, channel=0, data=[65, 41]),
   midi.NoteOnEvent(tick=0, channel=0, data=[62, 41]),
   midi.NoteOnEvent(tick=960, channel=0, data=[62, 0]),
   midi.NoteOnEvent(tick=0, channel=0, data=[65, 0]),
   midi.NoteOnEvent(tick=0, channel=0, data=[69, 49]),
   midi.NoteOnEvent(tick=0, channel=0, data=[60, 49]),
   midi.NoteOnEvent(tick=955, channel=0, data=[69, 0]),
   midi.NoteOnEvent(tick=5, channel=0, data=[60, 0]),
   midi.NoteOnEvent(tick=0, channel=0, data=[66, 40]),
   midi.NoteOnEvent(tick=0, channel=0, data=[63, 40]),
   midi.NoteOnEvent(tick=480, channel=0, data=[63, 0]),
   midi.NoteOnEvent(tick=0, channel=0, data=[66, 0]),
   midi.NoteOnEvent(tick=480, channel=0, data=[61, 42]),
   midi.NoteOnEvent(tick=0, channel=0, data=[65, 42]),
   midi.NoteOnEvent(tick=480, channel=0, data=[61, 0]),
   midi.NoteOnEvent(tick=0, channel=0, data=[57, 44]),
   midi.NoteOnEvent(tick=480, channel=0, data=[57, 0]),
   midi.NoteOnEvent(tick=0, channel=0, data=[58, 47]),
   midi.NoteOnEvent(tick=480, channel=0, data=[58, 0]),
   midi.NoteOnEvent(tick=0, channel=0, data=[60, 42]),
   midi.NoteOnEvent(tick=480, channel=0, data=[60, 0]),
   midi.NoteOnEvent(tick=0, channel=0, data=[65, 0]),
   midi.NoteOnEvent(tick=0, channel=0, data=[61, 43]),
   midi.NoteOnEvent(tick=0, channel=0, data=[65, 43]),
   midi.NoteOnEvent(tick=480, channel=0, data=[61, 0]),
   midi.NoteOnEvent(tick=0, channel=0, data=[57, 46]),
   midi.NoteOnEvent(tick=480, channel=0, data=[57, 0]),
   midi.NoteOnEvent(tick=0, channel=0, data=[58, 48]),
   midi.NoteOnEvent(tick=480, channel=0, data=[58, 0]),
   midi.NoteOnEvent(tick=0, channel=0, data=[65, 0]),
   midi.NoteOnEvent(tick=0, channel=0, data=[58, 44]),
   midi.NoteOnEvent(tick=0, channel=0, data=[65, 44]),
   midi.NoteOnEvent(tick=480, channel=0, data=[65, 0]),
   midi.NoteOnEvent(tick=0, channel=0, data=[58, 0]),
   midi.NoteOnEvent(tick=480, channel=0, data=[65, 49]),
   midi.NoteOnEvent(tick=0, channel=0, data=[56, 49]),
   midi.NoteOnEvent(tick=480, channel=0, data=[56, 0]),
   midi.NoteOnEvent(tick=0, channel=0, data=[65, 0]),
   midi.NoteOnEvent(tick=480, channel=0, data=[54, 49]),
   midi.NoteOnEvent(tick=0, channel=0, data=[61, 49]),
   midi.NoteOnEvent(tick=480, channel=0, data=[61, 0]),
   midi.NoteOnEvent(tick=0, channel=0, data=[54, 0]),
   midi.NoteOnEvent(tick=480, channel=0, data=[53, 49]),
   midi.NoteOnEvent(tick=0, channel=0, data=[62, 49]),
   midi.NoteOnEvent(tick=480, channel=0, data=[62, 0]),
   midi.NoteOnEvent(tick=0, channel=0, data=[53, 0]),
   midi.NoteOnEvent(tick=480, channel=0, data=[63, 58]),
   midi.NoteOnEvent(tick=0, channel=0, data=[51, 58]),
   midi.NoteOnEvent(tick=480, channel=0, data=[51, 0]),
   midi.NoteOnEvent(tick=0, channel=0, data=[63, 0]),
   midi.NoteOnEvent(tick=480, channel=0, data=[53, 66]),
   midi.NoteOnEvent(tick=0, channel=0, data=[61, 66]),
   midi.NoteOnEvent(tick=480, channel=0, data=[61, 0]),
   midi.NoteOnEvent(tick=0, channel=0, data=[53, 0]),
   midi.NoteOnEvent(tick=480, channel=0, data=[61, 71]),
   midi.NoteOnEvent(tick=0, channel=0, data=[54, 71]),
   midi.NoteOnEvent(tick=480, channel=0, data=[54, 0]),
   midi.NoteOnEvent(tick=0, channel=0, data=[61, 0]),
   midi.NoteOnEvent(tick=0, channel=0, data=[64, 71]),
   midi.NoteOnEvent(tick=0, channel=0, data=[54, 71]),
   midi.NoteOnEvent(tick=960, channel=0, data=[64, 0]),
   midi.NoteOnEvent(tick=0, channel=0, data=[58, 76]),
   midi.NoteOnEvent(tick=960, channel=0, data=[58, 0]),
   midi.NoteOnEvent(tick=0, channel=0, data=[54, 0]),
   midi.NoteOnEvent(tick=0, channel=0, data=[57, 74]),
   midi.NoteOnEvent(tick=0, channel=0, data=[53, 74]),
   midi.NoteOnEvent(tick=960, channel=0, data=[57, 0]),
   midi.NoteOnEvent(tick=0, channel=0, data=[58, 65]),
   midi.NoteOnEvent(tick=960, channel=0, data=[58, 0]),
   midi.NoteOnEvent(tick=0, channel=0, data=[53, 0]),
   midi.NoteOnEvent(tick=0, channel=0, data=[57, 59]),
   midi.NoteOnEvent(tick=0, channel=0, data=[53, 59]),
   midi.NoteOnEvent(tick=960, channel=0, data=[57, 0]),
   midi.NoteOnEvent(tick=0, channel=0, data=[58, 47]),
   midi.NoteOnEvent(tick=960, channel=0, data=[58, 0]),
   midi.NoteOnEvent(tick=0, channel=0, data=[53, 0]),
   midi.NoteOnEvent(tick=0, channel=0, data=[65, 47]),
   midi.NoteOnEvent(tick=228, channel=0, data=[65, 0]),
   midi.NoteOnEvent(tick=12, channel=0, data=[65, 47]),
   midi.NoteOnEvent(tick=240, channel=0, data=[65, 0]),
   midi.NoteOnEvent(tick=240, channel=0, data=[65, 45]),
   midi.NoteOnEvent(tick=228, channel=0, data=[65, 0]),
   midi.NoteOnEvent(tick=12, channel=0, data=[65, 47]),
   midi.NoteOnEvent(tick=228, channel=0, data=[65, 0]),
   midi.NoteOnEvent(tick=12, channel=0, data=[65, 47]),
   midi.NoteOnEvent(tick=240, channel=0, data=[65, 0]),
   midi.NoteOnEvent(tick=240, channel=0, data=[65, 44]),
   midi.NoteOnEvent(tick=228, channel=0, data=[65, 0]),
   midi.NoteOnEvent(tick=12, channel=0, data=[65, 47]),
   midi.NoteOnEvent(tick=228, channel=0, data=[65, 0]),
   midi.NoteOnEvent(tick=12, channel=0, data=[65, 47]),
   midi.NoteOnEvent(tick=240, channel=0, data=[65, 0]),
   midi.NoteOnEvent(tick=240, channel=0, data=[65, 44]),
   midi.NoteOnEvent(tick=228, channel=0, data=[65, 0]),
   midi.NoteOnEvent(tick=12, channel=0, data=[65, 47]),
   midi.NoteOnEvent(tick=228, channel=0, data=[65, 0]),
   midi.NoteOnEvent(tick=12, channel=0, data=[65, 47]),
   midi.NoteOnEvent(tick=240, channel=0, data=[65, 0]),
   midi.NoteOnEvent(tick=240, channel=0, data=[65, 47]),
   midi.NoteOnEvent(tick=228, channel=0, data=[65, 0]),
   midi.NoteOnEvent(tick=12, channel=0, data=[53, 53]),
   midi.NoteOnEvent(tick=0, channel=0, data=[65, 53]),
   midi.NoteOnEvent(tick=471, channel=0, data=[65, 0]),
   midi.NoteOnEvent(tick=0, channel=0, data=[53, 0]),
   midi.NoteOnEvent(tick=9, channel=0, data=[53, 50]),
   midi.NoteOnEvent(tick=0, channel=0, data=[57, 50]),
   midi.NoteOnEvent(tick=480, channel=0, data=[57, 0]),
   midi.NoteOnEvent(tick=0, channel=0, data=[53, 0]),
   midi.NoteOnEvent(tick=480, channel=0, data=[53, 50]),
   midi.NoteOnEvent(tick=0, channel=0, data=[57, 50]),
   midi.NoteOnEvent(tick=480, channel=0, data=[57, 0]),
   midi.NoteOnEvent(tick=0, channel=0, data=[53, 0]),
   midi.NoteOnEvent(tick=0, channel=0, data=[53, 53]),
   midi.NoteOnEvent(tick=0, channel=0, data=[55, 53]),
   midi.NoteOnEvent(tick=0, channel=0, data=[58, 53]),
   midi.NoteOnEvent(tick=471, channel=0, data=[58, 0]),
   midi.NoteOnEvent(tick=0, channel=0, data=[55, 0]),
   midi.NoteOnEvent(tick=0, channel=0, data=[53, 0]),
   midi.NoteOnEvent(tick=9, channel=0, data=[53, 50]),
   midi.NoteOnEvent(tick=0, channel=0, data=[58, 50]),
   midi.NoteOnEvent(tick=0, channel=0, data=[55, 50]),
   midi.NoteOnEvent(tick=480, channel=0, data=[55, 0]),
   midi.NoteOnEvent(tick=0, channel=0, data=[58, 0]),
   midi.NoteOnEvent(tick=0, channel=0, data=[53, 0]),
   midi.NoteOnEvent(tick=480, channel=0, data=[53, 54]),
   midi.NoteOnEvent(tick=0, channel=0, data=[59, 54]),
   midi.NoteOnEvent(tick=0, channel=0, data=[56, 54]),
   midi.NoteOnEvent(tick=480, channel=0, data=[56, 0]),
   midi.NoteOnEvent(tick=0, channel=0, data=[59, 0]),
   midi.NoteOnEvent(tick=0, channel=0, data=[53, 0]),
   midi.NoteOnEvent(tick=0, channel=0, data=[53, 55]),
   midi.NoteOnEvent(tick=0, channel=0, data=[60, 55]),
   midi.NoteOnEvent(tick=0, channel=0, data=[57, 55]),
   midi.NoteOnEvent(tick=480, channel=0, data=[57, 0]),
   midi.NoteOnEvent(tick=0, channel=0, data=[60, 0]),
   midi.NoteOnEvent(tick=0, channel=0, data=[57, 61]),
   midi.NoteOnEvent(tick=0, channel=0, data=[61, 61]),
   midi.NoteOnEvent(tick=480, channel=0, data=[61, 0]),
   midi.NoteOnEvent(tick=0, channel=0, data=[57, 0]),
   midi.NoteOnEvent(tick=0, channel=0, data=[53, 0]),
   midi.NoteOnEvent(tick=0, channel=0, data=[53, 66]),
   midi.NoteOnEvent(tick=0, channel=0, data=[62, 66]),
   midi.NoteOnEvent(tick=0, channel=0, data=[58, 66]),
   midi.NoteOnEvent(tick=480, channel=0, data=[58, 0]),
   midi.NoteOnEvent(tick=0, channel=0, data=[62, 0]),
   midi.NoteOnEvent(tick=0, channel=0, data=[59, 71]),
   midi.NoteOnEvent(tick=0, channel=0, data=[62, 71]),
   midi.NoteOnEvent(tick=480, channel=0, data=[62, 0]),
   midi.NoteOnEvent(tick=0, channel=0, data=[59, 0]),
   midi.NoteOnEvent(tick=0, channel=0, data=[53, 0]),
   midi.NoteOnEvent(tick=0, channel=0, data=[63, 77]),
   midi.NoteOnEvent(tick=0, channel=0, data=[60, 77]),
   midi.NoteOnEvent(tick=0, channel=0, data=[53, 77]),
   midi.NoteOnEvent(tick=1920, channel=0, data=[53, 0]),
   midi.NoteOnEvent(tick=0, channel=0, data=[60, 0]),
   midi.NoteOnEvent(tick=0, channel=0, data=[63, 0]),
   midi.ControlChangeEvent(tick=1920, channel=0, data=[91, 127]),
   midi.NoteOnEvent(tick=480, channel=0, data=[58, 42]),
   midi.NoteOnEvent(tick=480, channel=0, data=[58, 0]),
   midi.NoteOnEvent(tick=0, channel=0, data=[62, 48]),
   midi.NoteOnEvent(tick=120, channel=0, data=[62, 0]),
   midi.NoteOnEvent(tick=360, channel=0, data=[67, 46]),
   midi.NoteOnEvent(tick=120, channel=0, data=[67, 0]),
   midi.NoteOnEvent(tick=360, channel=0, data=[60, 52]),
   midi.NoteOnEvent(tick=480, channel=0, data=[60, 0]),
   midi.NoteOnEvent(tick=0, channel=0, data=[63, 46]),
   midi.NoteOnEvent(tick=120, channel=0, data=[63, 0]),
   midi.NoteOnEvent(tick=360, channel=0, data=[65, 48]),
   midi.NoteOnEvent(tick=480, channel=0, data=[65, 0]),
   midi.NoteOnEvent(tick=0, channel=0, data=[63, 47]),
   midi.NoteOnEvent(tick=480, channel=0, data=[63, 0]),
   midi.NoteOnEvent(tick=0, channel=0, data=[62, 53]),
   midi.NoteOnEvent(tick=480, channel=0, data=[62, 0]),
   midi.NoteOnEvent(tick=0, channel=0, data=[57, 47]),
   midi.NoteOnEvent(tick=480, channel=0, data=[57, 0]),
   midi.NoteOnEvent(tick=0, channel=0, data=[58, 51]),
   midi.NoteOnEvent(tick=480, channel=0, data=[58, 0]),
   midi.NoteOnEvent(tick=0, channel=0, data=[51, 51]),
   midi.NoteOnEvent(tick=0, channel=0, data=[60, 51]),
   midi.NoteOnEvent(tick=480, channel=0, data=[60, 0]),
   midi.NoteOnEvent(tick=0, channel=0, data=[51, 0]),
   midi.NoteOnEvent(tick=0, channel=0, data=[58, 52]),
   midi.NoteOnEvent(tick=0, channel=0, data=[53, 52]),
   midi.NoteOnEvent(tick=960, channel=0, data=[58, 0]),
   midi.NoteOnEvent(tick=0, channel=0, data=[57, 47]),
   midi.NoteOnEvent(tick=480, channel=0, data=[57, 0]),
   midi.NoteOnEvent(tick=0, channel=0, data=[53, 0]),
   midi.NoteOnEvent(tick=960, channel=0, data=[58, 45]),
   midi.NoteOnEvent(tick=480, channel=0, data=[58, 0]),
   midi.NoteOnEvent(tick=0, channel=0, data=[62, 47]),
   midi.NoteOnEvent(tick=120, channel=0, data=[62, 0]),
   midi.NoteOnEvent(tick=360, channel=0, data=[67, 47]),
   midi.NoteOnEvent(tick=120, channel=0, data=[67, 0]),
   midi.NoteOnEvent(tick=360, channel=0, data=[60, 51]),
   midi.NoteOnEvent(tick=480, channel=0, data=[60, 0]),
   midi.NoteOnEvent(tick=0, channel=0, data=[63, 46]),
   midi.NoteOnEvent(tick=120, channel=0, data=[63, 0]),
   midi.NoteOnEvent(tick=360, channel=0, data=[65, 48]),
   midi.NoteOnEvent(tick=480, channel=0, data=[65, 0]),
   midi.NoteOnEvent(tick=0, channel=0, data=[63, 48]),
   midi.NoteOnEvent(tick=480, channel=0, data=[63, 0]),
   midi.NoteOnEvent(tick=0, channel=0, data=[62, 51]),
   midi.NoteOnEvent(tick=480, channel=0, data=[62, 0]),
   midi.NoteOnEvent(tick=0, channel=0, data=[51, 47]),
   midi.NoteOnEvent(tick=0, channel=0, data=[63, 47]),
   midi.NoteOnEvent(tick=480, channel=0, data=[63, 0]),
   midi.NoteOnEvent(tick=0, channel=0, data=[51, 0]),
   midi.NoteOnEvent(tick=0, channel=0, data=[62, 50]),
   midi.NoteOnEvent(tick=0, channel=0, data=[53, 50]),
   midi.NoteOnEvent(tick=480, channel=0, data=[62, 0]),
   midi.NoteOnEvent(tick=0, channel=0, data=[60, 48]),
   midi.NoteOnEvent(tick=480, channel=0, data=[60, 0]),
   midi.NoteOnEvent(tick=0, channel=0, data=[53, 0]),
   midi.NoteOnEvent(tick=0, channel=0, data=[58, 51]),
   midi.NoteOnEvent(tick=480, channel=0, data=[58, 0]),
   midi.ControlChangeEvent(tick=1440, channel=0, data=[91, 127]),
   midi.NoteOnEvent(tick=0, channel=0, data=[58, 64]),
   midi.NoteOnEvent(tick=240, channel=0, data=[58, 0]),
   midi.NoteOnEvent(tick=0, channel=0, data=[65, 56]),
   midi.NoteOnEvent(tick=240, channel=0, data=[65, 0]),
   midi.NoteOnEvent(tick=0, channel=0, data=[62, 59]),
   midi.NoteOnEvent(tick=240, channel=0, data=[62, 0]),
   midi.NoteOnEvent(tick=0, channel=0, data=[65, 56]),
   midi.NoteOnEvent(tick=240, channel=0, data=[65, 0]),
   midi.NoteOnEvent(tick=0, channel=0, data=[55, 63]),
   midi.NoteOnEvent(tick=240, channel=0, data=[55, 0]),
   midi.NoteOnEvent(tick=0, channel=0, data=[62, 57]),
   midi.NoteOnEvent(tick=240, channel=0, data=[62, 0]),
   midi.NoteOnEvent(tick=0, channel=0, data=[58, 59]),
   midi.NoteOnEvent(tick=240, channel=0, data=[58, 0]),
   midi.NoteOnEvent(tick=0, channel=0, data=[62, 56]),
   midi.NoteOnEvent(tick=240, channel=0, data=[62, 0]),
   midi.NoteOnEvent(tick=0, channel=0, data=[51, 64]),
   midi.NoteOnEvent(tick=240, channel=0, data=[51, 0]),
   midi.NoteOnEvent(tick=0, channel=0, data=[60, 56]),
   midi.NoteOnEvent(tick=240, channel=0, data=[60, 0]),
   midi.NoteOnEvent(tick=0, channel=0, data=[55, 59]),
   midi.NoteOnEvent(tick=240, channel=0, data=[55, 0]),
   midi.NoteOnEvent(tick=0, channel=0, data=[60, 56]),
   midi.NoteOnEvent(tick=240, channel=0, data=[60, 0]),
   midi.NoteOnEvent(tick=0, channel=0, data=[53, 64]),
   midi.NoteOnEvent(tick=240, channel=0, data=[53, 0]),
   midi.NoteOnEvent(tick=0, channel=0, data=[63, 57]),
   midi.NoteOnEvent(tick=240, channel=0, data=[63, 0]),
   midi.NoteOnEvent(tick=0, channel=0, data=[60, 60]),
   midi.NoteOnEvent(tick=240, channel=0, data=[60, 0]),
   midi.NoteOnEvent(tick=0, channel=0, data=[63, 57]),
   midi.NoteOnEvent(tick=240, channel=0, data=[63, 0]),
   midi.NoteOnEvent(tick=0, channel=0, data=[62, 66]),
   midi.NoteOnEvent(tick=480, channel=0, data=[62, 0]),
   midi.NoteOnEvent(tick=0, channel=0, data=[65, 60]),
   midi.NoteOnEvent(tick=0, channel=0, data=[57, 60]),
   midi.NoteOnEvent(tick=480, channel=0, data=[57, 0]),
   midi.NoteOnEvent(tick=0, channel=0, data=[58, 64]),
   midi.NoteOnEvent(tick=480, channel=0, data=[58, 0]),
   midi.NoteOnEvent(tick=0, channel=0, data=[65, 0]),
   midi.NoteOnEvent(tick=0, channel=0, data=[51, 58]),
   midi.NoteOnEvent(tick=0, channel=0, data=[60, 58]),
   midi.NoteOnEvent(tick=480, channel=0, data=[60, 0]),
   midi.NoteOnEvent(tick=0, channel=0, data=[51, 0]),
   midi.NoteOnEvent(tick=0, channel=0, data=[58, 65]),
   midi.NoteOnEvent(tick=0, channel=0, data=[53, 65]),
   midi.NoteOnEvent(tick=960, channel=0, data=[58, 0]),
   midi.NoteOnEvent(tick=0, channel=0, data=[57, 60]),
   midi.NoteOnEvent(tick=480, channel=0, data=[57, 0]),
   midi.NoteOnEvent(tick=0, channel=0, data=[53, 0]),
   midi.NoteOnEvent(tick=480, channel=0, data=[58, 65]),
   midi.NoteOnEvent(tick=240, channel=0, data=[58, 0]),
   midi.NoteOnEvent(tick=0, channel=0, data=[65, 57]),
   midi.NoteOnEvent(tick=240, channel=0, data=[65, 0]),
   midi.NoteOnEvent(tick=0, channel=0, data=[62, 60]),
   midi.NoteOnEvent(tick=240, channel=0, data=[62, 0]),
   midi.NoteOnEvent(tick=0, channel=0, data=[65, 56]),
   midi.NoteOnEvent(tick=240, channel=0, data=[65, 0]),
   midi.NoteOnEvent(tick=0, channel=0, data=[55, 64]),
   midi.NoteOnEvent(tick=120, channel=0, data=[55, 0]),
   midi.NoteOnEvent(tick=120, channel=0, data=[62, 57]),
   midi.NoteOnEvent(tick=120, channel=0, data=[62, 0]),
   midi.NoteOnEvent(tick=120, channel=0, data=[58, 60]),
   midi.NoteOnEvent(tick=120, channel=0, data=[58, 0]),
   midi.NoteOnEvent(tick=120, channel=0, data=[62, 57]),
   midi.NoteOnEvent(tick=120, channel=0, data=[62, 0]),
   midi.NoteOnEvent(tick=120, channel=0, data=[51, 64]),
   midi.NoteOnEvent(tick=240, channel=0, data=[51, 0]),
   midi.NoteOnEvent(tick=0, channel=0, data=[60, 56]),
   midi.NoteOnEvent(tick=240, channel=0, data=[60, 0]),
   midi.NoteOnEvent(tick=0, channel=0, data=[55, 59]),
   midi.NoteOnEvent(tick=240, channel=0, data=[55, 0]),
   midi.NoteOnEvent(tick=0, channel=0, data=[60, 56]),
   midi.NoteOnEvent(tick=240, channel=0, data=[60, 0]),
   midi.NoteOnEvent(tick=0, channel=0, data=[53, 64]),
   midi.NoteOnEvent(tick=240, channel=0, data=[53, 0]),
   midi.NoteOnEvent(tick=0, channel=0, data=[63, 56]),
   midi.NoteOnEvent(tick=240, channel=0, data=[63, 0]),
   midi.NoteOnEvent(tick=0, channel=0, data=[60, 59]),
   midi.NoteOnEvent(tick=240, channel=0, data=[60, 0]),
   midi.NoteOnEvent(tick=0, channel=0, data=[63, 55]),
   midi.NoteOnEvent(tick=240, channel=0, data=[63, 0]),
   midi.NoteOnEvent(tick=0, channel=0, data=[58, 59]),
   midi.NoteOnEvent(tick=0, channel=0, data=[50, 59]),
   midi.NoteOnEvent(tick=480, channel=0, data=[50, 0]),
   midi.NoteOnEvent(tick=0, channel=0, data=[51, 57]),
   midi.NoteOnEvent(tick=480, channel=0, data=[51, 0]),
   midi.NoteOnEvent(tick=0, channel=0, data=[58, 0]),
   midi.NoteOnEvent(tick=0, channel=0, data=[62, 59]),
   midi.NoteOnEvent(tick=0, channel=0, data=[53, 59]),
   midi.NoteOnEvent(tick=480, channel=0, data=[62, 0]),
   midi.NoteOnEvent(tick=0, channel=0, data=[63, 57]),
   midi.NoteOnEvent(tick=480, channel=0, data=[63, 0]),
   midi.NoteOnEvent(tick=0, channel=0, data=[53, 0]),
   midi.NoteOnEvent(tick=0, channel=0, data=[58, 59]),
   midi.NoteOnEvent(tick=0, channel=0, data=[62, 59]),
   midi.NoteOnEvent(tick=480, channel=0, data=[62, 0]),
   midi.NoteOnEvent(tick=0, channel=0, data=[58, 0]),
   midi.NoteOnEvent(tick=0, channel=0, data=[46, 63]),
   midi.NoteOnEvent(tick=480, channel=0, data=[46, 0]),
   midi.NoteOnEvent(tick=1440, channel=0, data=[58, 47]),
   midi.NoteOnEvent(tick=180, channel=0, data=[58, 0]),
   midi.NoteOnEvent(tick=300, channel=0, data=[55, 48]),
   midi.NoteOnEvent(tick=480, channel=0, data=[55, 0]),
   midi.NoteOnEvent(tick=0, channel=0, data=[51, 46]),
   midi.NoteOnEvent(tick=480, channel=0, data=[51, 0]),
   midi.NoteOnEvent(tick=0, channel=0, data=[53, 47]),
   midi.NoteOnEvent(tick=480, channel=0, data=[53, 0]),
   midi.NoteOnEvent(tick=0, channel=0, data=[41, 57]),
   midi.NoteOnEvent(tick=480, channel=0, data=[41, 0]),
   midi.NoteOnEvent(tick=1440, channel=0, data=[60, 45]),
   midi.NoteOnEvent(tick=180, channel=0, data=[60, 0]),
   midi.NoteOnEvent(tick=300, channel=0, data=[57, 45]),
   midi.NoteOnEvent(tick=480, channel=0, data=[57, 0]),
   midi.NoteOnEvent(tick=0, channel=0, data=[53, 45]),
   midi.NoteOnEvent(tick=480, channel=0, data=[53, 0]),
   midi.NoteOnEvent(tick=0, channel=0, data=[58, 46]),
   midi.NoteOnEvent(tick=480, channel=0, data=[58, 0]),
   midi.NoteOnEvent(tick=0, channel=0, data=[46, 70]),
   midi.NoteOnEvent(tick=480, channel=0, data=[46, 0]),
   midi.NoteOnEvent(tick=1440, channel=0, data=[50, 59]),
   midi.NoteOnEvent(tick=0, channel=0, data=[38, 53]),
   midi.NoteOnEvent(tick=240, channel=0, data=[38, 0]),
   midi.NoteOnEvent(tick=0, channel=0, data=[50, 0]),
   midi.NoteOnEvent(tick=240, channel=0, data=[38, 57]),
   midi.NoteOnEvent(tick=0, channel=0, data=[50, 64]),
   midi.NoteOnEvent(tick=240, channel=0, data=[50, 0]),
   midi.NoteOnEvent(tick=0, channel=0, data=[38, 0]),
   midi.NoteOnEvent(tick=240, channel=0, data=[48, 58]),
   midi.NoteOnEvent(tick=0, channel=0, data=[36, 52]),
   midi.NoteOnEvent(tick=240, channel=0, data=[36, 0]),
   midi.NoteOnEvent(tick=0, channel=0, data=[48, 0]),
   midi.NoteOnEvent(tick=240, channel=0, data=[47, 57]),
   midi.NoteOnEvent(tick=0, channel=0, data=[35, 51]),
   midi.NoteOnEvent(tick=480, channel=0, data=[35, 0]),
   midi.NoteOnEvent(tick=0, channel=0, data=[47, 0]),
   midi.NoteOnEvent(tick=0, channel=0, data=[59, 66]),
   midi.NoteOnEvent(tick=480, channel=0, data=[59, 0]),
   midi.NoteOnEvent(tick=480, channel=0, data=[67, 47]),
   midi.NoteOnEvent(tick=0, channel=0, data=[58, 47]),
   midi.NoteOnEvent(tick=480, channel=0, data=[58, 0]),
   midi.NoteOnEvent(tick=0, channel=0, data=[67, 0]),
   midi.NoteOnEvent(tick=0, channel=0, data=[60, 48]),
   midi.NoteOnEvent(tick=0, channel=0, data=[67, 48]),
   midi.NoteOnEvent(tick=480, channel=0, data=[67, 0]),
   midi.NoteOnEvent(tick=0, channel=0, data=[60, 0]),
   midi.NoteOnEvent(tick=0, channel=0, data=[48, 55]),
   midi.NoteOnEvent(tick=480, channel=0, data=[48, 0]),
   midi.NoteOnEvent(tick=1440, channel=0, data=[36, 52]),
   midi.NoteOnEvent(tick=0, channel=0, data=[48, 58]),
   midi.NoteOnEvent(tick=240, channel=0, data=[48, 0]),
   midi.NoteOnEvent(tick=0, channel=0, data=[36, 0]),
   midi.NoteOnEvent(tick=240, channel=0, data=[48, 62]),
   midi.NoteOnEvent(tick=0, channel=0, data=[36, 55]),
   midi.NoteOnEvent(tick=240, channel=0, data=[36, 0]),
   midi.NoteOnEvent(tick=0, channel=0, data=[48, 0]),
   midi.NoteOnEvent(tick=240, channel=0, data=[34, 52]),
   midi.NoteOnEvent(tick=0, channel=0, data=[46, 58]),
   midi.NoteOnEvent(tick=240, channel=0, data=[46, 0]),
   midi.NoteOnEvent(tick=0, channel=0, data=[34, 0]),
   midi.NoteOnEvent(tick=240, channel=0, data=[45, 57]),
   midi.NoteOnEvent(tick=0, channel=0, data=[33, 51]),
   midi.NoteOnEvent(tick=480, channel=0, data=[33, 0]),
   midi.NoteOnEvent(tick=0, channel=0, data=[45, 0]),
   midi.NoteOnEvent(tick=0, channel=0, data=[57, 60]),
   midi.NoteOnEvent(tick=480, channel=0, data=[57, 0]),
   midi.NoteOnEvent(tick=480, channel=0, data=[57, 44]),
   midi.NoteOnEvent(tick=0, channel=0, data=[65, 44]),
   midi.NoteOnEvent(tick=480, channel=0, data=[65, 0]),
   midi.NoteOnEvent(tick=0, channel=0, data=[57, 0]),
   midi.NoteOnEvent(tick=0, channel=0, data=[58, 44]),
   midi.NoteOnEvent(tick=0, channel=0, data=[65, 44]),
   midi.NoteOnEvent(tick=480, channel=0, data=[65, 0]),
   midi.NoteOnEvent(tick=0, channel=0, data=[58, 0]),
   midi.NoteOnEvent(tick=0, channel=0, data=[46, 51]),
   midi.NoteOnEvent(tick=480, channel=0, data=[46, 0]),
   midi.NoteOnEvent(tick=1200, channel=0, data=[51, 52]),
   midi.NoteOnEvent(tick=240, channel=0, data=[51, 0]),
   midi.NoteOnEvent(tick=0, channel=0, data=[58, 55]),
   midi.NoteOnEvent(tick=240, channel=0, data=[58, 0]),
   midi.NoteOnEvent(tick=0, channel=0, data=[55, 51]),
   midi.NoteOnEvent(tick=240, channel=0, data=[55, 0]),
   midi.NoteOnEvent(tick=0, channel=0, data=[60, 60]),
   midi.NoteOnEvent(tick=480, channel=0, data=[60, 0]),
   midi.NoteOnEvent(tick=720, channel=0, data=[53, 57]),
   midi.NoteOnEvent(tick=240, channel=0, data=[53, 0]),
   midi.NoteOnEvent(tick=0, channel=0, data=[58, 60]),
   midi.NoteOnEvent(tick=240, channel=0, data=[58, 0]),
   midi.NoteOnEvent(tick=0, channel=0, data=[56, 54]),
   midi.NoteOnEvent(tick=240, channel=0, data=[56, 0]),
   midi.NoteOnEvent(tick=0, channel=0, data=[62, 68]),
   midi.NoteOnEvent(tick=480, channel=0, data=[62, 0]),
   midi.NoteOnEvent(tick=720, channel=0, data=[55, 54]),
   midi.NoteOnEvent(tick=240, channel=0, data=[55, 0]),
   midi.NoteOnEvent(tick=0, channel=0, data=[63, 58]),
   midi.NoteOnEvent(tick=240, channel=0, data=[63, 0]),
   midi.NoteOnEvent(tick=0, channel=0, data=[58, 54]),
   midi.NoteOnEvent(tick=240, channel=0, data=[58, 0]),
   midi.NoteOnEvent(tick=0, channel=0, data=[67, 65]),
   midi.NoteOnEvent(tick=480, channel=0, data=[67, 0]),
   midi.NoteOnEvent(tick=720, channel=0, data=[50, 55]),
   midi.NoteOnEvent(tick=240, channel=0, data=[50, 0]),
   midi.NoteOnEvent(tick=0, channel=0, data=[58, 58]),
   midi.NoteOnEvent(tick=240, channel=0, data=[58, 0]),
   midi.NoteOnEvent(tick=0, channel=0, data=[53, 55]),
   midi.NoteOnEvent(tick=240, channel=0, data=[53, 0]),
   midi.NoteOnEvent(tick=0, channel=0, data=[62, 64]),
   midi.NoteOnEvent(tick=480, channel=0, data=[62, 0]),
   midi.NoteOnEvent(tick=480, channel=0, data=[51, 73]),
   midi.NoteOnEvent(tick=960, channel=0, data=[55, 70]),
   midi.NoteOnEvent(tick=960, channel=0, data=[55, 0]),
   midi.NoteOnEvent(tick=0, channel=0, data=[60, 74]),
   midi.NoteOnEvent(tick=960, channel=0, data=[60, 0]),
   midi.NoteOnEvent(tick=0, channel=0, data=[51, 0]),
   midi.NoteOnEvent(tick=0, channel=0, data=[60, 70]),
   midi.NoteOnEvent(tick=0, channel=0, data=[52, 70]),
   midi.NoteOnEvent(tick=960, channel=0, data=[52, 0]),
   midi.NoteOnEvent(tick=0, channel=0, data=[60, 0]),
   midi.NoteOnEvent(tick=0, channel=0, data=[53, 65]),
   midi.NoteOnEvent(tick=240, channel=0, data=[53, 0]),
   midi.NoteOnEvent(tick=0, channel=0, data=[60, 60]),
   midi.NoteOnEvent(tick=240, channel=0, data=[60, 0]),
   midi.NoteOnEvent(tick=0, channel=0, data=[57, 68]),
   midi.NoteOnEvent(tick=240, channel=0, data=[57, 0]),
   midi.NoteOnEvent(tick=0, channel=0, data=[60, 66]),
   midi.NoteOnEvent(tick=240, channel=0, data=[60, 0]),
   midi.NoteOnEvent(tick=0, channel=0, data=[53, 69]),
   midi.NoteOnEvent(tick=240, channel=0, data=[53, 0]),
   midi.NoteOnEvent(tick=0, channel=0, data=[60, 65]),
   midi.NoteOnEvent(tick=240, channel=0, data=[60, 0]),
   midi.NoteOnEvent(tick=0, channel=0, data=[57, 71]),
   midi.NoteOnEvent(tick=120, channel=0, data=[57, 0]),
   midi.NoteOnEvent(tick=120, channel=0, data=[60, 66]),
   midi.NoteOnEvent(tick=120, channel=0, data=[60, 0]),
   midi.NoteOnEvent(tick=120, channel=0, data=[53, 65]),
   midi.NoteOnEvent(tick=240, channel=0, data=[53, 0]),
   midi.NoteOnEvent(tick=0, channel=0, data=[62, 58]),
   midi.NoteOnEvent(tick=240, channel=0, data=[62, 0]),
   midi.NoteOnEvent(tick=0, channel=0, data=[58, 66]),
   midi.NoteOnEvent(tick=240, channel=0, data=[58, 0]),
   midi.NoteOnEvent(tick=0, channel=0, data=[62, 62]),
   midi.NoteOnEvent(tick=240, channel=0, data=[62, 0]),
   midi.NoteOnEvent(tick=0, channel=0, data=[53, 69]),
   midi.NoteOnEvent(tick=240, channel=0, data=[53, 0]),
   midi.NoteOnEvent(tick=0, channel=0, data=[62, 64]),
   midi.NoteOnEvent(tick=240, channel=0, data=[62, 0]),
   midi.NoteOnEvent(tick=0, channel=0, data=[58, 71]),
   midi.NoteOnEvent(tick=120, channel=0, data=[58, 0]),
   midi.NoteOnEvent(tick=120, channel=0, data=[62, 66]),
   midi.NoteOnEvent(tick=120, channel=0, data=[62, 0]),
   midi.NoteOnEvent(tick=120, channel=0, data=[53, 71]),
   midi.NoteOnEvent(tick=240, channel=0, data=[53, 0]),
   midi.NoteOnEvent(tick=0, channel=0, data=[63, 67]),
   midi.NoteOnEvent(tick=240, channel=0, data=[63, 0]),
   midi.NoteOnEvent(tick=0, channel=0, data=[60, 71]),
   midi.NoteOnEvent(tick=240, channel=0, data=[60, 0]),
   midi.NoteOnEvent(tick=0, channel=0, data=[63, 66]),
   midi.NoteOnEvent(tick=240, channel=0, data=[63, 0]),
   midi.NoteOnEvent(tick=0, channel=0, data=[53, 75]),
   midi.NoteOnEvent(tick=240, channel=0, data=[53, 0]),
   midi.NoteOnEvent(tick=0, channel=0, data=[60, 71]),
   midi.NoteOnEvent(tick=240, channel=0, data=[60, 0]),
   midi.NoteOnEvent(tick=0, channel=0, data=[57, 73]),
   midi.NoteOnEvent(tick=240, channel=0, data=[57, 0]),
   midi.NoteOnEvent(tick=0, channel=0, data=[60, 66]),
   midi.NoteOnEvent(tick=240, channel=0, data=[60, 0]),
   midi.NoteOnEvent(tick=0, channel=0, data=[53, 69]),
   midi.NoteOnEvent(tick=240, channel=0, data=[53, 0]),
   midi.NoteOnEvent(tick=0, channel=0, data=[62, 65]),
   midi.NoteOnEvent(tick=240, channel=0, data=[62, 0]),
   midi.NoteOnEvent(tick=0, channel=0, data=[58, 67]),
   midi.NoteOnEvent(tick=240, channel=0, data=[58, 0]),
   midi.NoteOnEvent(tick=0, channel=0, data=[62, 63]),
   midi.NoteOnEvent(tick=240, channel=0, data=[62, 0]),
   midi.NoteOnEvent(tick=0, channel=0, data=[53, 68]),
   midi.NoteOnEvent(tick=240, channel=0, data=[53, 0]),
   midi.NoteOnEvent(tick=0, channel=0, data=[62, 63]),
   midi.NoteOnEvent(tick=240, channel=0, data=[62, 0]),
   midi.NoteOnEvent(tick=0, channel=0, data=[58, 65]),
   midi.NoteOnEvent(tick=240, channel=0, data=[58, 0]),
   midi.NoteOnEvent(tick=0, channel=0, data=[62, 56]),
   midi.NoteOnEvent(tick=240, channel=0, data=[62, 0]),
   midi.NoteOnEvent(tick=0, channel=0, data=[57, 60]),
   midi.NoteOnEvent(tick=0, channel=0, data=[60, 60]),
   midi.NoteOnEvent(tick=0, channel=0, data=[53, 60]),
   midi.NoteOnEvent(tick=120, channel=0, data=[53, 0]),
   midi.NoteOnEvent(tick=0, channel=0, data=[60, 0]),
   midi.NoteOnEvent(tick=0, channel=0, data=[57, 0]),
   midi.NoteOnEvent(tick=840, channel=0, data=[51, 54]),
   midi.NoteOnEvent(tick=240, channel=0, data=[51, 0]),
   midi.NoteOnEvent(tick=0, channel=0, data=[53, 50]),
   midi.NoteOnEvent(tick=240, channel=0, data=[53, 0]),
   midi.NoteOnEvent(tick=0, channel=0, data=[51, 45]),
   midi.NoteOnEvent(tick=240, channel=0, data=[51, 0]),
   midi.NoteOnEvent(tick=0, channel=0, data=[53, 41]),
   midi.NoteOnEvent(tick=240, channel=0, data=[53, 0]),
   midi.NoteOnEvent(tick=0, channel=0, data=[50, 48]),
   midi.NoteOnEvent(tick=240, channel=0, data=[50, 0]),
   midi.NoteOnEvent(tick=0, channel=0, data=[53, 45]),
   midi.NoteOnEvent(tick=240, channel=0, data=[53, 0]),
   midi.NoteOnEvent(tick=0, channel=0, data=[50, 51]),
   midi.NoteOnEvent(tick=240, channel=0, data=[50, 0]),
   midi.NoteOnEvent(tick=0, channel=0, data=[53, 47]),
   midi.NoteOnEvent(tick=240, channel=0, data=[53, 0]),
   midi.NoteOnEvent(tick=0, channel=0, data=[51, 53]),
   midi.NoteOnEvent(tick=240, channel=0, data=[51, 0]),
   midi.NoteOnEvent(tick=0, channel=0, data=[53, 50]),
   midi.NoteOnEvent(tick=240, channel=0, data=[53, 0]),
   midi.NoteOnEvent(tick=0, channel=0, data=[51, 47]),
   midi.NoteOnEvent(tick=240, channel=0, data=[51, 0]),
   midi.NoteOnEvent(tick=0, channel=0, data=[53, 43]),
   midi.NoteOnEvent(tick=240, channel=0, data=[53, 0]),
   midi.NoteOnEvent(tick=0, channel=0, data=[50, 46]),
   midi.NoteOnEvent(tick=240, channel=0, data=[50, 0]),
   midi.NoteOnEvent(tick=0, channel=0, data=[53, 38]),
   midi.NoteOnEvent(tick=240, channel=0, data=[53, 0]),
   midi.NoteOnEvent(tick=0, channel=0, data=[50, 44]),
   midi.NoteOnEvent(tick=240, channel=0, data=[50, 0]),
   midi.NoteOnEvent(tick=0, channel=0, data=[53, 42]),
   midi.NoteOnEvent(tick=240, channel=0, data=[53, 0]),
   midi.NoteOnEvent(tick=0, channel=0, data=[51, 56]),
   midi.NoteOnEvent(tick=240, channel=0, data=[51, 0]),
   midi.NoteOnEvent(tick=0, channel=0, data=[53, 55]),
   midi.NoteOnEvent(tick=240, channel=0, data=[53, 0]),
   midi.NoteOnEvent(tick=0, channel=0, data=[51, 49]),
   midi.NoteOnEvent(tick=240, channel=0, data=[51, 0]),
   midi.NoteOnEvent(tick=0, channel=0, data=[53, 46]),
   midi.NoteOnEvent(tick=240, channel=0, data=[53, 0]),
   midi.NoteOnEvent(tick=0, channel=0, data=[50, 48]),
   midi.NoteOnEvent(tick=240, channel=0, data=[50, 0]),
   midi.NoteOnEvent(tick=0, channel=0, data=[53, 45]),
   midi.NoteOnEvent(tick=240, channel=0, data=[53, 0]),
   midi.NoteOnEvent(tick=0, channel=0, data=[50, 50]),
   midi.NoteOnEvent(tick=240, channel=0, data=[50, 0]),
   midi.NoteOnEvent(tick=0, channel=0, data=[53, 47]),
   midi.NoteOnEvent(tick=240, channel=0, data=[53, 0]),
   midi.NoteOnEvent(tick=0, channel=0, data=[51, 53]),
   midi.NoteOnEvent(tick=240, channel=0, data=[51, 0]),
   midi.NoteOnEvent(tick=0, channel=0, data=[53, 50]),
   midi.NoteOnEvent(tick=240, channel=0, data=[53, 0]),
   midi.NoteOnEvent(tick=0, channel=0, data=[51, 48]),
   midi.NoteOnEvent(tick=240, channel=0, data=[51, 0]),
   midi.NoteOnEvent(tick=0, channel=0, data=[53, 45]),
   midi.NoteOnEvent(tick=240, channel=0, data=[53, 0]),
   midi.NoteOnEvent(tick=0, channel=0, data=[50, 53]),
   midi.NoteOnEvent(tick=240, channel=0, data=[50, 0]),
   midi.NoteOnEvent(tick=0, channel=0, data=[65, 49]),
   midi.NoteOnEvent(tick=240, channel=0, data=[65, 0]),
   midi.NoteOnEvent(tick=0, channel=0, data=[62, 53]),
   midi.NoteOnEvent(tick=240, channel=0, data=[62, 0]),
   midi.NoteOnEvent(tick=0, channel=0, data=[65, 49]),
   midi.NoteOnEvent(tick=240, channel=0, data=[65, 0]),
   midi.NoteOnEvent(tick=0, channel=0, data=[63, 54]),
   midi.NoteOnEvent(tick=240, channel=0, data=[63, 0]),
   midi.NoteOnEvent(tick=0, channel=0, data=[65, 48]),
   midi.NoteOnEvent(tick=240, channel=0, data=[65, 0]),
   midi.NoteOnEvent(tick=0, channel=0, data=[63, 57]),
   midi.NoteOnEvent(tick=240, channel=0, data=[63, 0]),
   midi.NoteOnEvent(tick=0, channel=0, data=[65, 52]),
   midi.NoteOnEvent(tick=240, channel=0, data=[65, 0]),
   midi.NoteOnEvent(tick=0, channel=0, data=[62, 64]),
   midi.NoteOnEvent(tick=480, channel=0, data=[62, 0]),
   midi.NoteOnEvent(tick=960, channel=0, data=[58, 75]),
   midi.NoteOnEvent(tick=0, channel=0, data=[50, 75]),
   midi.NoteOnEvent(tick=480, channel=0, data=[50, 0]),
   midi.NoteOnEvent(tick=0, channel=0, data=[58, 0]),
   midi.NoteOnEvent(tick=0, channel=0, data=[51, 85]),
   midi.NoteOnEvent(tick=0, channel=0, data=[58, 85]),
   midi.NoteOnEvent(tick=480, channel=0, data=[58, 0]),
   midi.NoteOnEvent(tick=0, channel=0, data=[51, 0]),
   midi.NoteOnEvent(tick=960, channel=0, data=[58, 57]),
   midi.NoteOnEvent(tick=0, channel=0, data=[60, 57]),
   midi.NoteOnEvent(tick=0, channel=0, data=[51, 57]),
   midi.NoteOnEvent(tick=480, channel=0, data=[51, 0]),
   midi.NoteOnEvent(tick=0, channel=0, data=[60, 0]),
   midi.NoteOnEvent(tick=0, channel=0, data=[58, 0]),
   midi.NoteOnEvent(tick=0, channel=0, data=[53, 61]),
   midi.NoteOnEvent(tick=240, channel=0, data=[53, 0]),
   midi.NoteOnEvent(tick=0, channel=0, data=[62, 57]),
   midi.NoteOnEvent(tick=240, channel=0, data=[62, 0]),
   midi.NoteOnEvent(tick=0, channel=0, data=[58, 62]),
   midi.NoteOnEvent(tick=240, channel=0, data=[58, 0]),
   midi.NoteOnEvent(tick=0, channel=0, data=[62, 57]),
   midi.NoteOnEvent(tick=240, channel=0, data=[62, 0]),
   midi.NoteOnEvent(tick=0, channel=0, data=[53, 61]),
   midi.NoteOnEvent(tick=240, channel=0, data=[53, 0]),
   midi.NoteOnEvent(tick=0, channel=0, data=[63, 55]),
   midi.NoteOnEvent(tick=240, channel=0, data=[63, 0]),
   midi.NoteOnEvent(tick=0, channel=0, data=[57, 61]),
   midi.NoteOnEvent(tick=240, channel=0, data=[57, 0]),
   midi.NoteOnEvent(tick=0, channel=0, data=[63, 55]),
   midi.NoteOnEvent(tick=240, channel=0, data=[63, 0]),
   midi.NoteOnEvent(tick=0, channel=0, data=[58, 61]),
   midi.NoteOnEvent(tick=480, channel=0, data=[58, 0]),
   midi.NoteOnEvent(tick=240, channel=0, data=[60, 69]),
   midi.NoteOnEvent(tick=240, channel=0, data=[60, 0]),
   midi.NoteOnEvent(tick=0, channel=0, data=[62, 74]),
   midi.NoteOnEvent(tick=480, channel=0, data=[62, 0]),
   midi.NoteOnEvent(tick=240, channel=0, data=[38, 64]),
   midi.NoteOnEvent(tick=0, channel=0, data=[50, 64]),
   midi.NoteOnEvent(tick=240, channel=0, data=[50, 0]),
   midi.NoteOnEvent(tick=0, channel=0, data=[38, 0]),
   midi.NoteOnEvent(tick=0, channel=0, data=[39, 69]),
   midi.NoteOnEvent(tick=0, channel=0, data=[51, 69]),
   midi.NoteOnEvent(tick=480, channel=0, data=[51, 0]),
   midi.NoteOnEvent(tick=0, channel=0, data=[39, 0]),
   midi.NoteOnEvent(tick=1440, channel=0, data=[41, 88]),
   midi.NoteOnEvent(tick=0, channel=0, data=[29, 88]),
   midi.NoteOnEvent(tick=1920, channel=0, data=[29, 0]),
   midi.NoteOnEvent(tick=0, channel=0, data=[41, 0]),
   midi.NoteOnEvent(tick=0, channel=0, data=[41, 70]),
   midi.NoteOnEvent(tick=0, channel=0, data=[50, 70]),
   midi.NoteOnEvent(tick=0, channel=0, data=[46, 70]),
   midi.NoteOnEvent(tick=480, channel=0, data=[46, 0]),
   midi.NoteOnEvent(tick=0, channel=0, data=[50, 0]),
   midi.NoteOnEvent(tick=0, channel=0, data=[41, 0]),
   midi.NoteOnEvent(tick=480, channel=0, data=[46, 71]),
   midi.NoteOnEvent(tick=0, channel=0, data=[50, 71]),
   midi.NoteOnEvent(tick=0, channel=0, data=[41, 71]),
   midi.NoteOnEvent(tick=480, channel=0, data=[41, 0]),
   midi.NoteOnEvent(tick=0, channel=0, data=[50, 0]),
   midi.NoteOnEvent(tick=0, channel=0, data=[46, 0]),
   midi.NoteOnEvent(tick=480, channel=0, data=[58, 81]),
   midi.NoteOnEvent(tick=0, channel=0, data=[53, 81]),
   midi.NoteOnEvent(tick=0, channel=0, data=[62, 81]),
   midi.NoteOnEvent(tick=480, channel=0, data=[62, 0]),
   midi.NoteOnEvent(tick=0, channel=0, data=[53, 0]),
   midi.NoteOnEvent(tick=0, channel=0, data=[58, 0]),
   midi.NoteOnEvent(tick=3360, channel=0, data=[53, 57]),
   midi.NoteOnEvent(tick=240, channel=0, data=[53, 0]),
   midi.NoteOnEvent(tick=0, channel=0, data=[62, 54]),
   midi.NoteOnEvent(tick=240, channel=0, data=[62, 0]),
   midi.NoteOnEvent(tick=0, channel=0, data=[58, 57]),
   midi.NoteOnEvent(tick=240, channel=0, data=[58, 0]),
   midi.NoteOnEvent(tick=0, channel=0, data=[62, 53]),
   midi.NoteOnEvent(tick=240, channel=0, data=[62, 0]),
   midi.NoteOnEvent(tick=0, channel=0, data=[53, 57]),
   midi.NoteOnEvent(tick=240, channel=0, data=[53, 0]),
   midi.NoteOnEvent(tick=0, channel=0, data=[62, 52]),
   midi.NoteOnEvent(tick=240, channel=0, data=[62, 0]),
   midi.NoteOnEvent(tick=0, channel=0, data=[58, 57]),
   midi.NoteOnEvent(tick=240, channel=0, data=[58, 0]),
   midi.NoteOnEvent(tick=0, channel=0, data=[62, 53]),
   midi.NoteOnEvent(tick=240, channel=0, data=[62, 0]),
   midi.NoteOnEvent(tick=0, channel=0, data=[53, 66]),
   midi.NoteOnEvent(tick=240, channel=0, data=[53, 0]),
   midi.NoteOnEvent(tick=0, channel=0, data=[63, 59]),
   midi.NoteOnEvent(tick=240, channel=0, data=[63, 0]),
   midi.NoteOnEvent(tick=0, channel=0, data=[57, 65]),
   midi.NoteOnEvent(tick=240, channel=0, data=[57, 0]),
   midi.NoteOnEvent(tick=0, channel=0, data=[63, 61]),
   midi.NoteOnEvent(tick=240, channel=0, data=[63, 0]),
   midi.NoteOnEvent(tick=0, channel=0, data=[53, 65]),
   midi.NoteOnEvent(tick=240, channel=0, data=[53, 0]),
   midi.NoteOnEvent(tick=0, channel=0, data=[63, 61]),
   midi.NoteOnEvent(tick=240, channel=0, data=[63, 0]),
   midi.NoteOnEvent(tick=0, channel=0, data=[57, 65]),
   midi.NoteOnEvent(tick=240, channel=0, data=[57, 0]),
   midi.NoteOnEvent(tick=0, channel=0, data=[63, 61]),
   midi.NoteOnEvent(tick=240, channel=0, data=[63, 0]),
   midi.NoteOnEvent(tick=0, channel=0, data=[58, 52]),
   midi.NoteOnEvent(tick=0, channel=0, data=[62, 52]),
   midi.NoteOnEvent(tick=480, channel=0, data=[62, 0]),
   midi.NoteOnEvent(tick=0, channel=0, data=[58, 0]),
   midi.NoteOnEvent(tick=0, channel=0, data=[62, 52]),
   midi.NoteOnEvent(tick=0, channel=0, data=[58, 52]),
   midi.NoteOnEvent(tick=480, channel=0, data=[58, 0]),
   midi.NoteOnEvent(tick=0, channel=0, data=[62, 0]),
   midi.NoteOnEvent(tick=480, channel=0, data=[62, 56]),
   midi.NoteOnEvent(tick=0, channel=0, data=[58, 56]),
   midi.NoteOnEvent(tick=480, channel=0, data=[58, 0]),
   midi.NoteOnEvent(tick=0, channel=0, data=[62, 0]),
   midi.NoteOnEvent(tick=0, channel=0, data=[58, 58]),
   midi.NoteOnEvent(tick=0, channel=0, data=[69, 58]),
   midi.NoteOnEvent(tick=480, channel=0, data=[69, 0]),
   midi.NoteOnEvent(tick=0, channel=0, data=[58, 0]),
   midi.NoteOnEvent(tick=0, channel=0, data=[58, 54]),
   midi.NoteOnEvent(tick=0, channel=0, data=[69, 54]),
   midi.NoteOnEvent(tick=480, channel=0, data=[69, 0]),
   midi.NoteOnEvent(tick=0, channel=0, data=[58, 0]),
   midi.NoteOnEvent(tick=480, channel=0, data=[58, 61]),
   midi.NoteOnEvent(tick=0, channel=0, data=[69, 61]),
   midi.NoteOnEvent(tick=480, channel=0, data=[69, 0]),
   midi.NoteOnEvent(tick=0, channel=0, data=[58, 0]),
   midi.NoteOnEvent(tick=0, channel=0, data=[58, 67]),
   midi.NoteOnEvent(tick=0, channel=0, data=[68, 67]),
   midi.NoteOnEvent(tick=480, channel=0, data=[68, 0]),
   midi.NoteOnEvent(tick=0, channel=0, data=[58, 0]),
   midi.NoteOnEvent(tick=0, channel=0, data=[68, 62]),
   midi.NoteOnEvent(tick=0, channel=0, data=[58, 62]),
   midi.NoteOnEvent(tick=480, channel=0, data=[58, 0]),
   midi.NoteOnEvent(tick=0, channel=0, data=[68, 0]),
   midi.NoteOnEvent(tick=0, channel=0, data=[67, 71]),
   midi.NoteOnEvent(tick=0, channel=0, data=[58, 71]),
   midi.NoteOnEvent(tick=480, channel=0, data=[58, 0]),
   midi.NoteOnEvent(tick=0, channel=0, data=[67, 0]),
   midi.NoteOnEvent(tick=0, channel=0, data=[67, 68]),
   midi.NoteOnEvent(tick=0, channel=0, data=[58, 68]),
   midi.NoteOnEvent(tick=480, channel=0, data=[58, 0]),
   midi.NoteOnEvent(tick=0, channel=0, data=[67, 0]),
   midi.NoteOnEvent(tick=0, channel=0, data=[62, 82]),
   midi.NoteOnEvent(tick=0, channel=0, data=[58, 82]),
   midi.NoteOnEvent(tick=480, channel=0, data=[58, 0]),
   midi.NoteOnEvent(tick=0, channel=0, data=[62, 0]),
   midi.NoteOnEvent(tick=0, channel=0, data=[58, 76]),
   midi.NoteOnEvent(tick=0, channel=0, data=[62, 76]),
   midi.NoteOnEvent(tick=480, channel=0, data=[62, 0]),
   midi.NoteOnEvent(tick=0, channel=0, data=[58, 0]),
   midi.NoteOnEvent(tick=0, channel=0, data=[58, 85]),
   midi.NoteOnEvent(tick=0, channel=0, data=[63, 85]),
   midi.NoteOnEvent(tick=480, channel=0, data=[63, 0]),
   midi.NoteOnEvent(tick=0, channel=0, data=[58, 0]),
   midi.NoteOnEvent(tick=0, channel=0, data=[58, 91]),
   midi.NoteOnEvent(tick=0, channel=0, data=[60, 91]),
   midi.NoteOnEvent(tick=480, channel=0, data=[60, 0]),
   midi.NoteOnEvent(tick=0, channel=0, data=[58, 0]),
   midi.NoteOnEvent(tick=0, channel=0, data=[58, 90]),
   midi.NoteOnEvent(tick=0, channel=0, data=[46, 76]),
   midi.NoteOnEvent(tick=120, channel=0, data=[46, 0]),
   midi.NoteOnEvent(tick=0, channel=0, data=[58, 0]),
   midi.NoteOnEvent(tick=120, channel=0, data=[58, 87]),
   midi.NoteOnEvent(tick=0, channel=0, data=[46, 73]),
   midi.NoteOnEvent(tick=120, channel=0, data=[46, 0]),
   midi.NoteOnEvent(tick=0, channel=0, data=[58, 0]),
   midi.NoteOnEvent(tick=360, channel=0, data=[46, 71]),
   midi.NoteOnEvent(tick=0, channel=0, data=[58, 84]),
   midi.NoteOnEvent(tick=240, channel=0, data=[58, 0]),
   midi.NoteOnEvent(tick=0, channel=0, data=[46, 0]),
   midi.NoteOnEvent(tick=0, channel=0, data=[62, 90]),
   midi.NoteOnEvent(tick=0, channel=0, data=[50, 76]),
   midi.NoteOnEvent(tick=120, channel=0, data=[50, 0]),
   midi.NoteOnEvent(tick=0, channel=0, data=[62, 0]),
   midi.NoteOnEvent(tick=120, channel=0, data=[50, 74]),
   midi.NoteOnEvent(tick=0, channel=0, data=[62, 88]),
   midi.NoteOnEvent(tick=120, channel=0, data=[62, 0]),
   midi.NoteOnEvent(tick=0, channel=0, data=[50, 0]),
   midi.NoteOnEvent(tick=360, channel=0, data=[46, 72]),
   midi.NoteOnEvent(tick=0, channel=0, data=[58, 85]),
   midi.NoteOnEvent(tick=240, channel=0, data=[58, 0]),
   midi.NoteOnEvent(tick=0, channel=0, data=[46, 0]),
   midi.NoteOnEvent(tick=0, channel=0, data=[43, 76]),
   midi.NoteOnEvent(tick=0, channel=0, data=[55, 90]),
   midi.NoteOnEvent(tick=120, channel=0, data=[55, 0]),
   midi.NoteOnEvent(tick=0, channel=0, data=[43, 0]),
   midi.NoteOnEvent(tick=120, channel=0, data=[43, 74]),
   midi.NoteOnEvent(tick=0, channel=0, data=[55, 88]),
   midi.NoteOnEvent(tick=120, channel=0, data=[55, 0]),
   midi.NoteOnEvent(tick=0, channel=0, data=[43, 0]),
   midi.NoteOnEvent(tick=360, channel=0, data=[43, 71]),
   midi.NoteOnEvent(tick=0, channel=0, data=[55, 84]),
   midi.NoteOnEvent(tick=240, channel=0, data=[55, 0]),
   midi.NoteOnEvent(tick=0, channel=0, data=[43, 0]),
   midi.NoteOnEvent(tick=0, channel=0, data=[58, 90]),
   midi.NoteOnEvent(tick=0, channel=0, data=[46, 76]),
   midi.NoteOnEvent(tick=120, channel=0, data=[46, 0]),
   midi.NoteOnEvent(tick=0, channel=0, data=[58, 0]),
   midi.NoteOnEvent(tick=120, channel=0, data=[58, 87]),
   midi.NoteOnEvent(tick=0, channel=0, data=[46, 73]),
   midi.NoteOnEvent(tick=120, channel=0, data=[46, 0]),
   midi.NoteOnEvent(tick=0, channel=0, data=[58, 0]),
   midi.NoteOnEvent(tick=360, channel=0, data=[43, 71]),
   midi.NoteOnEvent(tick=0, channel=0, data=[55, 84]),
   midi.NoteOnEvent(tick=240, channel=0, data=[55, 0]),
   midi.NoteOnEvent(tick=0, channel=0, data=[43, 0]),
   midi.NoteOnEvent(tick=0, channel=0, data=[38, 76]),
   midi.NoteOnEvent(tick=0, channel=0, data=[50, 90]),
   midi.NoteOnEvent(tick=120, channel=0, data=[50, 0]),
   midi.NoteOnEvent(tick=0, channel=0, data=[38, 0]),
   midi.NoteOnEvent(tick=120, channel=0, data=[50, 89]),
   midi.NoteOnEvent(tick=0, channel=0, data=[38, 75]),
   midi.NoteOnEvent(tick=120, channel=0, data=[38, 0]),
   midi.NoteOnEvent(tick=0, channel=0, data=[50, 0]),
   midi.NoteOnEvent(tick=360, channel=0, data=[38, 74]),
   midi.NoteOnEvent(tick=0, channel=0, data=[50, 88]),
   midi.NoteOnEvent(tick=240, channel=0, data=[50, 0]),
   midi.NoteOnEvent(tick=0, channel=0, data=[38, 0]),
   midi.NoteOnEvent(tick=0, channel=0, data=[51, 91]),
   midi.NoteOnEvent(tick=0, channel=0, data=[39, 77]),
   midi.NoteOnEvent(tick=120, channel=0, data=[39, 0]),
   midi.NoteOnEvent(tick=0, channel=0, data=[51, 0]),
   midi.NoteOnEvent(tick=120, channel=0, data=[39, 77]),
   midi.NoteOnEvent(tick=0, channel=0, data=[51, 91]),
   midi.NoteOnEvent(tick=120, channel=0, data=[51, 0]),
   midi.NoteOnEvent(tick=0, channel=0, data=[39, 0]),
   midi.NoteOnEvent(tick=120, channel=0, data=[52, 96]),
   midi.NoteOnEvent(tick=0, channel=0, data=[40, 81]),
   midi.NoteOnEvent(tick=120, channel=0, data=[40, 0]),
   midi.NoteOnEvent(tick=0, channel=0, data=[52, 0]),
   midi.NoteOnEvent(tick=120, channel=0, data=[40, 78]),
   midi.NoteOnEvent(tick=0, channel=0, data=[52, 92]),
   midi.NoteOnEvent(tick=120, channel=0, data=[52, 0]),
   midi.NoteOnEvent(tick=0, channel=0, data=[40, 0]),
   midi.NoteOnEvent(tick=120, channel=0, data=[41, 79]),
   midi.NoteOnEvent(tick=0, channel=0, data=[53, 93]),
   midi.NoteOnEvent(tick=960, channel=0, data=[53, 0]),
   midi.NoteOnEvent(tick=0, channel=0, data=[41, 0]),
   midi.ControlChangeEvent(tick=2880, channel=0, data=[91, 127]),
   midi.NoteOnEvent(tick=0, channel=0, data=[53, 51]),
   midi.NoteOnEvent(tick=240, channel=0, data=[53, 0]),
   midi.NoteOnEvent(tick=0, channel=0, data=[62, 45]),
   midi.NoteOnEvent(tick=240, channel=0, data=[62, 0]),
   midi.NoteOnEvent(tick=0, channel=0, data=[58, 47]),
   midi.NoteOnEvent(tick=240, channel=0, data=[58, 0]),
   midi.NoteOnEvent(tick=0, channel=0, data=[62, 44]),
   midi.NoteOnEvent(tick=240, channel=0, data=[62, 0]),
   midi.NoteOnEvent(tick=0, channel=0, data=[53, 50]),
   midi.NoteOnEvent(tick=240, channel=0, data=[53, 0]),
   midi.NoteOnEvent(tick=0, channel=0, data=[62, 44]),
   midi.NoteOnEvent(tick=240, channel=0, data=[62, 0]),
   midi.NoteOnEvent(tick=0, channel=0, data=[58, 47]),
   midi.NoteOnEvent(tick=240, channel=0, data=[58, 0]),
   midi.NoteOnEvent(tick=0, channel=0, data=[62, 44]),
   midi.NoteOnEvent(tick=240, channel=0, data=[62, 0]),
   midi.NoteOnEvent(tick=0, channel=0, data=[53, 51]),
   midi.NoteOnEvent(tick=240, channel=0, data=[53, 0]),
   midi.NoteOnEvent(tick=0, channel=0, data=[63, 44]),
   midi.NoteOnEvent(tick=240, channel=0, data=[63, 0]),
   midi.NoteOnEvent(tick=0, channel=0, data=[60, 47]),
   midi.NoteOnEvent(tick=240, channel=0, data=[60, 0]),
   midi.NoteOnEvent(tick=0, channel=0, data=[63, 45]),
   midi.NoteOnEvent(tick=240, channel=0, data=[63, 0]),
   midi.NoteOnEvent(tick=0, channel=0, data=[53, 50]),
   midi.NoteOnEvent(tick=240, channel=0, data=[53, 0]),
   midi.NoteOnEvent(tick=0, channel=0, data=[63, 39]),
   midi.NoteOnEvent(tick=240, channel=0, data=[63, 0]),
   midi.NoteOnEvent(tick=0, channel=0, data=[60, 44]),
   midi.NoteOnEvent(tick=240, channel=0, data=[60, 0]),
   midi.NoteOnEvent(tick=0, channel=0, data=[63, 38]),
   midi.NoteOnEvent(tick=240, channel=0, data=[63, 0]),
   midi.ControlChangeEvent(tick=0, channel=0, data=[91, 127]),
   midi.NoteOnEvent(tick=0, channel=0, data=[53, 51]),
   midi.NoteOnEvent(tick=240, channel=0, data=[53, 0]),
   midi.NoteOnEvent(tick=0, channel=0, data=[61, 41]),
   midi.NoteOnEvent(tick=240, channel=0, data=[61, 0]),
   midi.NoteOnEvent(tick=0, channel=0, data=[58, 45]),
   midi.NoteOnEvent(tick=240, channel=0, data=[58, 0]),
   midi.NoteOnEvent(tick=0, channel=0, data=[61, 41]),
   midi.NoteOnEvent(tick=240, channel=0, data=[61, 0]),
   midi.NoteOnEvent(tick=0, channel=0, data=[53, 47]),
   midi.NoteOnEvent(tick=240, channel=0, data=[53, 0]),
   midi.NoteOnEvent(tick=0, channel=0, data=[61, 40]),
   midi.NoteOnEvent(tick=240, channel=0, data=[61, 0]),
   midi.NoteOnEvent(tick=0, channel=0, data=[58, 45]),
   midi.NoteOnEvent(tick=240, channel=0, data=[58, 0]),
   midi.NoteOnEvent(tick=0, channel=0, data=[61, 40]),
   midi.NoteOnEvent(tick=240, channel=0, data=[61, 0]),
   midi.NoteOnEvent(tick=0, channel=0, data=[53, 48]),
   midi.NoteOnEvent(tick=240, channel=0, data=[53, 0]),
   midi.NoteOnEvent(tick=0, channel=0, data=[63, 40]),
   midi.NoteOnEvent(tick=240, channel=0, data=[63, 0]),
   midi.NoteOnEvent(tick=0, channel=0, data=[60, 45]),
   midi.NoteOnEvent(tick=240, channel=0, data=[60, 0]),
   midi.NoteOnEvent(tick=0, channel=0, data=[63, 40]),
   midi.NoteOnEvent(tick=240, channel=0, data=[63, 0]),
   midi.NoteOnEvent(tick=0, channel=0, data=[53, 48]),
   midi.NoteOnEvent(tick=240, channel=0, data=[53, 0]),
   midi.NoteOnEvent(tick=0, channel=0, data=[63, 36]),
   midi.NoteOnEvent(tick=240, channel=0, data=[63, 0]),
   midi.NoteOnEvent(tick=0, channel=0, data=[60, 41]),
   midi.NoteOnEvent(tick=240, channel=0, data=[60, 0]),
   midi.NoteOnEvent(tick=0, channel=0, data=[63, 35]),
   midi.NoteOnEvent(tick=240, channel=0, data=[63, 0]),
   midi.NoteOnEvent(tick=0, channel=0, data=[54, 75]),
   midi.NoteOnEvent(tick=0, channel=0, data=[61, 75]),
   midi.NoteOnEvent(tick=480, channel=0, data=[61, 0]),
   midi.NoteOnEvent(tick=0, channel=0, data=[54, 0]),
   midi.NoteOnEvent(tick=1440, channel=0, data=[54, 66]),
   midi.NoteOnEvent(tick=240, channel=0, data=[58, 63]),
   midi.NoteOnEvent(tick=240, channel=0, data=[58, 0]),
   midi.NoteOnEvent(tick=0, channel=0, data=[60, 66]),
   midi.NoteOnEvent(tick=240, channel=0, data=[60, 0]),
   midi.NoteOnEvent(tick=0, channel=0, data=[61, 70]),
   midi.NoteOnEvent(tick=105, channel=0, data=[61, 0]),
   midi.NoteOnEvent(tick=135, channel=0, data=[61, 70]),
   midi.NoteOnEvent(tick=240, channel=0, data=[61, 0]),
   midi.NoteOnEvent(tick=0, channel=0, data=[60, 65]),
   midi.NoteOnEvent(tick=105, channel=0, data=[60, 0]),
   midi.NoteOnEvent(tick=135, channel=0, data=[60, 69]),
   midi.NoteOnEvent(tick=240, channel=0, data=[60, 0]),
   midi.NoteOnEvent(tick=0, channel=0, data=[58, 66]),
   midi.NoteOnEvent(tick=120, channel=0, data=[58, 0]),
   midi.NoteOnEvent(tick=120, channel=0, data=[54, 0]),
   midi.NoteOnEvent(tick=0, channel=0, data=[57, 67]),
   midi.NoteOnEvent(tick=0, channel=0, data=[53, 47]),
   midi.NoteOnEvent(tick=120, channel=0, data=[53, 0]),
   midi.NoteOnEvent(tick=0, channel=0, data=[57, 0]),
   midi.NoteOnEvent(tick=360, channel=0, data=[57, 50]),
   midi.NoteOnEvent(tick=0, channel=0, data=[53, 35]),
   midi.NoteOnEvent(tick=480, channel=0, data=[53, 0]),
   midi.NoteOnEvent(tick=0, channel=0, data=[57, 0]),
   midi.NoteOnEvent(tick=480, channel=0, data=[53, 35]),
   midi.NoteOnEvent(tick=0, channel=0, data=[57, 50]),
   midi.NoteOnEvent(tick=480, channel=0, data=[57, 0]),
   midi.NoteOnEvent(tick=0, channel=0, data=[53, 0]),
   midi.NoteOnEvent(tick=0, channel=0, data=[53, 38]),
   midi.NoteOnEvent(tick=0, channel=0, data=[58, 53]),
   midi.NoteOnEvent(tick=0, channel=0, data=[55, 38]),
   midi.NoteOnEvent(tick=120, channel=0, data=[55, 0]),
   midi.NoteOnEvent(tick=0, channel=0, data=[58, 0]),
   midi.NoteOnEvent(tick=0, channel=0, data=[53, 0]),
   midi.NoteOnEvent(tick=360, channel=0, data=[55, 35]),
   midi.NoteOnEvent(tick=0, channel=0, data=[58, 50]),
   midi.NoteOnEvent(tick=0, channel=0, data=[53, 35]),
   midi.NoteOnEvent(tick=480, channel=0, data=[53, 0]),
   midi.NoteOnEvent(tick=0, channel=0, data=[58, 0]),
   midi.NoteOnEvent(tick=0, channel=0, data=[55, 0]),
   midi.NoteOnEvent(tick=480, channel=0, data=[56, 54]),
   midi.NoteOnEvent(tick=0, channel=0, data=[59, 54]),
   midi.NoteOnEvent(tick=0, channel=0, data=[53, 38]),
   midi.NoteOnEvent(tick=480, channel=0, data=[53, 0]),
   midi.NoteOnEvent(tick=0, channel=0, data=[59, 0]),
   midi.NoteOnEvent(tick=0, channel=0, data=[56, 0]),
   midi.NoteOnEvent(tick=0, channel=0, data=[57, 39]),
   midi.NoteOnEvent(tick=0, channel=0, data=[60, 55]),
   midi.NoteOnEvent(tick=0, channel=0, data=[53, 39]),
   midi.NoteOnEvent(tick=480, channel=0, data=[60, 0]),
   midi.NoteOnEvent(tick=0, channel=0, data=[57, 0]),
   midi.NoteOnEvent(tick=0, channel=0, data=[57, 43]),
   midi.NoteOnEvent(tick=0, channel=0, data=[61, 61]),
   midi.NoteOnEvent(tick=480, channel=0, data=[61, 0]),
   midi.NoteOnEvent(tick=0, channel=0, data=[57, 0]),
   midi.NoteOnEvent(tick=0, channel=0, data=[53, 0]),
   midi.NoteOnEvent(tick=0, channel=0, data=[58, 47]),
   midi.NoteOnEvent(tick=0, channel=0, data=[62, 66]),
   midi.NoteOnEvent(tick=0, channel=0, data=[53, 47]),
   midi.NoteOnEvent(tick=480, channel=0, data=[62, 0]),
   midi.NoteOnEvent(tick=0, channel=0, data=[58, 0]),
   midi.NoteOnEvent(tick=0, channel=0, data=[59, 51]),
   midi.NoteOnEvent(tick=0, channel=0, data=[62, 71]),
   midi.NoteOnEvent(tick=480, channel=0, data=[62, 0]),
   midi.NoteOnEvent(tick=0, channel=0, data=[59, 0]),
   midi.NoteOnEvent(tick=0, channel=0, data=[53, 0]),
   midi.NoteOnEvent(tick=0, channel=0, data=[63, 77]),
   midi.NoteOnEvent(tick=0, channel=0, data=[53, 55]),
   midi.NoteOnEvent(tick=0, channel=0, data=[60, 55]),
   midi.NoteOnEvent(tick=1920, channel=0, data=[60, 0]),
   midi.NoteOnEvent(tick=0, channel=0, data=[53, 0]),
   midi.NoteOnEvent(tick=0, channel=0, data=[63, 0]),
   midi.NoteOnEvent(tick=1920, channel=0, data=[53, 36]),
   midi.NoteOnEvent(tick=240, channel=0, data=[53, 0]),
   midi.NoteOnEvent(tick=0, channel=0, data=[57, 36]),
   midi.NoteOnEvent(tick=108, channel=0, data=[57, 0]),
   midi.NoteOnEvent(tick=132, channel=0, data=[57, 42]),
   midi.NoteOnEvent(tick=240, channel=0, data=[57, 0]),
   midi.NoteOnEvent(tick=0, channel=0, data=[60, 42]),
   midi.NoteOnEvent(tick=108, channel=0, data=[60, 0]),
   midi.NoteOnEvent(tick=132, channel=0, data=[60, 50]),
   midi.NoteOnEvent(tick=240, channel=0, data=[60, 0]),
   midi.NoteOnEvent(tick=0, channel=0, data=[63, 48]),
   midi.NoteOnEvent(tick=108, channel=0, data=[63, 0]),
   midi.NoteOnEvent(tick=132, channel=0, data=[63, 56]),
   midi.NoteOnEvent(tick=240, channel=0, data=[63, 0]),
   midi.NoteOnEvent(tick=0, channel=0, data=[60, 51]),
   midi.NoteOnEvent(tick=120, channel=0, data=[60, 0]),
   midi.NoteOnEvent(tick=120, channel=0, data=[60, 55]),
   midi.NoteOnEvent(tick=240, channel=0, data=[60, 0]),
   midi.NoteOnEvent(tick=0, channel=0, data=[57, 53]),
   midi.NoteOnEvent(tick=108, channel=0, data=[57, 0]),
   midi.NoteOnEvent(tick=132, channel=0, data=[57, 55]),
   midi.NoteOnEvent(tick=240, channel=0, data=[57, 0]),
   midi.NoteOnEvent(tick=0, channel=0, data=[53, 51]),
   midi.NoteOnEvent(tick=240, channel=0, data=[53, 0]),
   midi.NoteOnEvent(tick=0, channel=0, data=[54, 56]),
   midi.NoteOnEvent(tick=240, channel=0, data=[54, 0]),
   midi.NoteOnEvent(tick=0, channel=0, data=[55, 59]),
   midi.NoteOnEvent(tick=240, channel=0, data=[55, 0]),
   midi.NoteOnEvent(tick=0, channel=0, data=[56, 62]),
   midi.NoteOnEvent(tick=240, channel=0, data=[56, 0]),
   midi.NoteOnEvent(tick=0, channel=0, data=[57, 65]),
   midi.NoteOnEvent(tick=240, channel=0, data=[57, 0]),
   midi.NoteOnEvent(tick=0, channel=0, data=[58, 69]),
   midi.NoteOnEvent(tick=120, channel=0, data=[58, 0]),
   midi.NoteOnEvent(tick=120, channel=0, data=[58, 46]),
   midi.NoteOnEvent(tick=120, channel=0, data=[58, 0]),
   midi.NoteOnEvent(tick=360, channel=0, data=[58, 46]),
   midi.NoteOnEvent(tick=120, channel=0, data=[58, 0]),
   midi.NoteOnEvent(tick=120, channel=0, data=[58, 48]),
   midi.NoteOnEvent(tick=120, channel=0, data=[58, 0]),
   midi.NoteOnEvent(tick=120, channel=0, data=[58, 46]),
   midi.NoteOnEvent(tick=120, channel=0, data=[58, 0]),
   midi.NoteOnEvent(tick=360, channel=0, data=[58, 46]),
   midi.NoteOnEvent(tick=120, channel=0, data=[58, 0]),
   midi.NoteOnEvent(tick=120, channel=0, data=[58, 49]),
   midi.NoteOnEvent(tick=120, channel=0, data=[58, 0]),
   midi.NoteOnEvent(tick=120, channel=0, data=[58, 46]),
   midi.NoteOnEvent(tick=120, channel=0, data=[58, 0]),
   midi.NoteOnEvent(tick=360, channel=0, data=[58, 46]),
   midi.NoteOnEvent(tick=120, channel=0, data=[58, 0]),
   midi.NoteOnEvent(tick=120, channel=0, data=[58, 49]),
   midi.NoteOnEvent(tick=120, channel=0, data=[58, 0]),
   midi.NoteOnEvent(tick=120, channel=0, data=[58, 46]),
   midi.NoteOnEvent(tick=120, channel=0, data=[58, 0]),
   midi.NoteOnEvent(tick=360, channel=0, data=[58, 45]),
   midi.NoteOnEvent(tick=120, channel=0, data=[58, 0]),
   midi.NoteOnEvent(tick=120, channel=0, data=[58, 48]),
   midi.NoteOnEvent(tick=120, channel=0, data=[58, 0]),
   midi.NoteOnEvent(tick=120, channel=0, data=[58, 51]),
   midi.NoteOnEvent(tick=120, channel=0, data=[58, 0]),
   midi.NoteOnEvent(tick=360, channel=0, data=[58, 57]),
   midi.NoteOnEvent(tick=120, channel=0, data=[58, 0]),
   midi.NoteOnEvent(tick=120, channel=0, data=[58, 60]),
   midi.NoteOnEvent(tick=120, channel=0, data=[58, 0]),
   midi.NoteOnEvent(tick=120, channel=0, data=[58, 64]),
   midi.NoteOnEvent(tick=120, channel=0, data=[58, 0]),
   midi.NoteOnEvent(tick=360, channel=0, data=[58, 70]),
   midi.NoteOnEvent(tick=120, channel=0, data=[58, 0]),
   midi.NoteOnEvent(tick=120, channel=0, data=[59, 66]),
   midi.NoteOnEvent(tick=480, channel=0, data=[59, 0]),
   midi.NoteOnEvent(tick=0, channel=0, data=[47, 56]),
   midi.NoteOnEvent(tick=0, channel=0, data=[59, 66]),
   midi.NoteOnEvent(tick=480, channel=0, data=[59, 0]),
   midi.NoteOnEvent(tick=0, channel=0, data=[47, 0]),
   midi.NoteOnEvent(tick=0, channel=0, data=[60, 71]),
   midi.NoteOnEvent(tick=0, channel=0, data=[48, 60]),
   midi.NoteOnEvent(tick=480, channel=0, data=[48, 0]),
   midi.NoteOnEvent(tick=0, channel=0, data=[60, 0]),
   midi.NoteOnEvent(tick=0, channel=0, data=[58, 66]),
   midi.NoteOnEvent(tick=0, channel=0, data=[46, 56]),
   midi.NoteOnEvent(tick=480, channel=0, data=[46, 0]),
   midi.NoteOnEvent(tick=0, channel=0, data=[58, 0]),
   midi.NoteOnEvent(tick=0, channel=0, data=[45, 61]),
   midi.NoteOnEvent(tick=0, channel=0, data=[57, 72]),
   midi.NoteOnEvent(tick=480, channel=0, data=[57, 0]),
   midi.NoteOnEvent(tick=0, channel=0, data=[45, 0]),
   midi.NoteOnEvent(tick=0, channel=0, data=[57, 66]),
   midi.NoteOnEvent(tick=0, channel=0, data=[45, 56]),
   midi.NoteOnEvent(tick=480, channel=0, data=[45, 0]),
   midi.NoteOnEvent(tick=0, channel=0, data=[57, 0]),
   midi.NoteOnEvent(tick=0, channel=0, data=[46, 58]),
   midi.NoteOnEvent(tick=0, channel=0, data=[58, 69]),
   midi.NoteOnEvent(tick=480, channel=0, data=[58, 0]),
   midi.NoteOnEvent(tick=0, channel=0, data=[46, 0]),
   midi.NoteOnEvent(tick=0, channel=0, data=[57, 66]),
   midi.NoteOnEvent(tick=0, channel=0, data=[45, 56]),
   midi.NoteOnEvent(tick=480, channel=0, data=[45, 0]),
   midi.NoteOnEvent(tick=0, channel=0, data=[57, 0]),
   midi.NoteOnEvent(tick=0, channel=0, data=[55, 70]),
   midi.NoteOnEvent(tick=0, channel=0, data=[43, 59]),
   midi.NoteOnEvent(tick=480, channel=0, data=[43, 0]),
   midi.NoteOnEvent(tick=0, channel=0, data=[55, 0]),
   midi.NoteOnEvent(tick=0, channel=0, data=[43, 56]),
   midi.NoteOnEvent(tick=0, channel=0, data=[55, 66]),
   midi.NoteOnEvent(tick=480, channel=0, data=[55, 0]),
   midi.NoteOnEvent(tick=0, channel=0, data=[43, 0]),
   midi.NoteOnEvent(tick=0, channel=0, data=[57, 69]),
   midi.NoteOnEvent(tick=0, channel=0, data=[45, 58]),
   midi.NoteOnEvent(tick=480, channel=0, data=[45, 0]),
   midi.NoteOnEvent(tick=0, channel=0, data=[57, 0]),
   midi.NoteOnEvent(tick=0, channel=0, data=[43, 56]),
   midi.NoteOnEvent(tick=0, channel=0, data=[55, 66]),
   midi.NoteOnEvent(tick=480, channel=0, data=[55, 0]),
   midi.NoteOnEvent(tick=0, channel=0, data=[43, 0]),
   midi.NoteOnEvent(tick=0, channel=0, data=[54, 68]),
   midi.NoteOnEvent(tick=0, channel=0, data=[42, 57]),
   midi.NoteOnEvent(tick=480, channel=0, data=[42, 0]),
   midi.NoteOnEvent(tick=0, channel=0, data=[54, 0]),
   midi.NoteOnEvent(tick=0, channel=0, data=[54, 66]),
   midi.NoteOnEvent(tick=0, channel=0, data=[42, 56]),
   midi.NoteOnEvent(tick=480, channel=0, data=[42, 0]),
   midi.NoteOnEvent(tick=0, channel=0, data=[54, 0]),
   midi.NoteOnEvent(tick=0, channel=0, data=[43, 59]),
   midi.NoteOnEvent(tick=0, channel=0, data=[55, 70]),
   midi.NoteOnEvent(tick=480, channel=0, data=[55, 0]),
   midi.NoteOnEvent(tick=0, channel=0, data=[43, 0]),
   midi.NoteOnEvent(tick=0, channel=0, data=[53, 66]),
   midi.NoteOnEvent(tick=0, channel=0, data=[41, 56]),
   midi.NoteOnEvent(tick=480, channel=0, data=[41, 0]),
   midi.NoteOnEvent(tick=0, channel=0, data=[53, 0]),
   midi.NoteOnEvent(tick=0, channel=0, data=[39, 62]),
   midi.NoteOnEvent(tick=0, channel=0, data=[51, 73]),
   midi.NoteOnEvent(tick=240, channel=0, data=[51, 0]),
   midi.NoteOnEvent(tick=0, channel=0, data=[39, 0]),
   midi.NoteOnEvent(tick=0, channel=0, data=[55, 65]),
   midi.NoteOnEvent(tick=240, channel=0, data=[55, 0]),
   midi.NoteOnEvent(tick=0, channel=0, data=[58, 65]),
   midi.NoteOnEvent(tick=240, channel=0, data=[58, 0]),
   midi.NoteOnEvent(tick=0, channel=0, data=[55, 65]),
   midi.NoteOnEvent(tick=240, channel=0, data=[55, 0]),
   midi.NoteOnEvent(tick=0, channel=0, data=[51, 71]),
   midi.NoteOnEvent(tick=240, channel=0, data=[51, 0]),
   midi.NoteOnEvent(tick=0, channel=0, data=[55, 65]),
   midi.NoteOnEvent(tick=240, channel=0, data=[55, 0]),
   midi.NoteOnEvent(tick=0, channel=0, data=[58, 65]),
   midi.NoteOnEvent(tick=240, channel=0, data=[58, 0]),
   midi.NoteOnEvent(tick=0, channel=0, data=[55, 60]),
   midi.NoteOnEvent(tick=240, channel=0, data=[55, 0]),
   midi.NoteOnEvent(tick=0, channel=0, data=[53, 69]),
   midi.NoteOnEvent(tick=240, channel=0, data=[53, 0]),
   midi.NoteOnEvent(tick=0, channel=0, data=[56, 60]),
   midi.NoteOnEvent(tick=240, channel=0, data=[56, 0]),
   midi.NoteOnEvent(tick=0, channel=0, data=[58, 65]),
   midi.NoteOnEvent(tick=240, channel=0, data=[58, 0]),
   midi.NoteOnEvent(tick=0, channel=0, data=[56, 60]),
   midi.NoteOnEvent(tick=240, channel=0, data=[56, 0]),
   midi.NoteOnEvent(tick=0, channel=0, data=[53, 69]),
   midi.NoteOnEvent(tick=240, channel=0, data=[53, 0]),
   midi.NoteOnEvent(tick=0, channel=0, data=[56, 61]),
   midi.NoteOnEvent(tick=240, channel=0, data=[56, 0]),
   midi.NoteOnEvent(tick=0, channel=0, data=[58, 65]),
   midi.NoteOnEvent(tick=240, channel=0, data=[58, 0]),
   midi.NoteOnEvent(tick=0, channel=0, data=[56, 61]),
   midi.NoteOnEvent(tick=240, channel=0, data=[56, 0]),
   midi.NoteOnEvent(tick=0, channel=0, data=[55, 71]),
   midi.NoteOnEvent(tick=240, channel=0, data=[55, 0]),
   midi.NoteOnEvent(tick=0, channel=0, data=[58, 64]),
   midi.NoteOnEvent(tick=240, channel=0, data=[58, 0]),
   midi.NoteOnEvent(tick=0, channel=0, data=[63, 68]),
   midi.NoteOnEvent(tick=240, channel=0, data=[63, 0]),
   midi.NoteOnEvent(tick=0, channel=0, data=[58, 65]),
   midi.NoteOnEvent(tick=240, channel=0, data=[58, 0]),
   midi.NoteOnEvent(tick=0, channel=0, data=[50, 78]),
   midi.NoteOnEvent(tick=240, channel=0, data=[50, 0]),
   midi.NoteOnEvent(tick=0, channel=0, data=[56, 66]),
   midi.NoteOnEvent(tick=240, channel=0, data=[56, 0]),
   midi.NoteOnEvent(tick=0, channel=0, data=[58, 71]),
   midi.NoteOnEvent(tick=240, channel=0, data=[58, 0]),
   midi.NoteOnEvent(tick=0, channel=0, data=[56, 69]),
   midi.NoteOnEvent(tick=240, channel=0, data=[56, 0]),
   midi.NoteOnEvent(tick=0, channel=0, data=[51, 79]),
   midi.NoteOnEvent(tick=240, channel=0, data=[51, 0]),
   midi.NoteOnEvent(tick=0, channel=0, data=[63, 72]),
   midi.NoteOnEvent(tick=240, channel=0, data=[63, 0]),
   midi.NoteOnEvent(tick=0, channel=0, data=[48, 82]),
   midi.NoteOnEvent(tick=240, channel=0, data=[48, 0]),
   midi.NoteOnEvent(tick=0, channel=0, data=[60, 73]),
   midi.NoteOnEvent(tick=240, channel=0, data=[60, 0]),
   midi.NoteOnEvent(tick=0, channel=0, data=[50, 83]),
   midi.NoteOnEvent(tick=240, channel=0, data=[50, 0]),
   midi.NoteOnEvent(tick=0, channel=0, data=[62, 76]),
   midi.NoteOnEvent(tick=240, channel=0, data=[62, 0]),
   midi.NoteOnEvent(tick=0, channel=0, data=[45, 84]),
   midi.NoteOnEvent(tick=240, channel=0, data=[45, 0]),
   midi.NoteOnEvent(tick=0, channel=0, data=[57, 78]),
   midi.NoteOnEvent(tick=240, channel=0, data=[57, 0]),
   midi.NoteOnEvent(tick=0, channel=0, data=[46, 90]),
   midi.NoteOnEvent(tick=0, channel=0, data=[58, 90]),
   midi.NoteOnEvent(tick=960, channel=0, data=[58, 0]),
   midi.NoteOnEvent(tick=0, channel=0, data=[46, 0]),
   midi.NoteOnEvent(tick=0, channel=0, data=[42, 89]),
   midi.NoteOnEvent(tick=0, channel=0, data=[54, 89]),
   midi.NoteOnEvent(tick=960, channel=0, data=[54, 0]),
   midi.NoteOnEvent(tick=0, channel=0, data=[42, 0]),
   midi.NoteOnEvent(tick=0, channel=0, data=[40, 89]),
   midi.NoteOnEvent(tick=0, channel=0, data=[52, 89]),
   midi.NoteOnEvent(tick=960, channel=0, data=[52, 0]),
   midi.NoteOnEvent(tick=0, channel=0, data=[40, 0]),
   midi.NoteOnEvent(tick=960, channel=0, data=[61, 69]),
   midi.NoteOnEvent(tick=120, channel=0, data=[61, 0]),
   midi.NoteOnEvent(tick=0, channel=0, data=[58, 71]),
   midi.NoteOnEvent(tick=120, channel=0, data=[58, 0]),
   midi.NoteOnEvent(tick=0, channel=0, data=[55, 74]),
   midi.NoteOnEvent(tick=120, channel=0, data=[55, 0]),
   midi.NoteOnEvent(tick=0, channel=0, data=[52, 77]),
   midi.NoteOnEvent(tick=120, channel=0, data=[52, 0]),
   midi.NoteOnEvent(tick=0, channel=0, data=[49, 80]),
   midi.NoteOnEvent(tick=120, channel=0, data=[49, 0]),
   midi.NoteOnEvent(tick=0, channel=0, data=[46, 82]),
   midi.NoteOnEvent(tick=120, channel=0, data=[46, 0]),
   midi.NoteOnEvent(tick=0, channel=0, data=[43, 85]),
   midi.NoteOnEvent(tick=120, channel=0, data=[43, 0]),
   midi.NoteOnEvent(tick=0, channel=0, data=[40, 88]),
   midi.NoteOnEvent(tick=120, channel=0, data=[40, 0]),
   midi.NoteOnEvent(tick=0, channel=0, data=[41, 108]),
   midi.NoteOnEvent(tick=0, channel=0, data=[53, 108]),
   midi.NoteOnEvent(tick=960, channel=0, data=[41, 0]),
   midi.NoteOnEvent(tick=19, channel=0, data=[53, 0]),
   midi.NoteOnEvent(tick=0, channel=0, data=[57, 66]),
   midi.NoteOnEvent(tick=19, channel=0, data=[55, 67]),
   midi.NoteOnEvent(tick=10, channel=0, data=[57, 0]),
   midi.NoteOnEvent(tick=9, channel=0, data=[53, 69]),
   midi.NoteOnEvent(tick=10, channel=0, data=[55, 0]),
   midi.NoteOnEvent(tick=9, channel=0, data=[55, 70]),
   midi.NoteOnEvent(tick=10, channel=0, data=[53, 0]),
   midi.NoteOnEvent(tick=9, channel=0, data=[57, 71]),
   midi.NoteOnEvent(tick=10, channel=0, data=[55, 0]),
   midi.NoteOnEvent(tick=9, channel=0, data=[58, 72]),
   midi.NoteOnEvent(tick=10, channel=0, data=[57, 0]),
   midi.NoteOnEvent(tick=9, channel=0, data=[60, 74]),
   midi.NoteOnEvent(tick=10, channel=0, data=[58, 0]),
   midi.NoteOnEvent(tick=19, channel=0, data=[60, 0]),
   midi.NoteOnEvent(tick=1758, channel=0, data=[60, 54]),
   midi.NoteOnEvent(tick=0, channel=0, data=[63, 54]),
   midi.NoteOnEvent(tick=0, channel=0, data=[53, 54]),
   midi.NoteOnEvent(tick=0, channel=0, data=[57, 54]),
   midi.NoteOnEvent(tick=1440, channel=0, data=[57, 0]),
   midi.NoteOnEvent(tick=0, channel=0, data=[60, 0]),
   midi.NoteOnEvent(tick=0, channel=0, data=[63, 0]),
   midi.NoteOnEvent(tick=0, channel=0, data=[53, 0]),
   midi.ControlChangeEvent(tick=3840, channel=0, data=[91, 127]),
   midi.NoteOnEvent(tick=480, channel=0, data=[58, 42]),
   midi.NoteOnEvent(tick=480, channel=0, data=[58, 0]),
   midi.NoteOnEvent(tick=0, channel=0, data=[62, 48]),
   midi.NoteOnEvent(tick=120, channel=0, data=[62, 0]),
   midi.NoteOnEvent(tick=360, channel=0, data=[67, 46]),
   midi.NoteOnEvent(tick=120, channel=0, data=[67, 0]),
   midi.NoteOnEvent(tick=360, channel=0, data=[60, 52]),
   midi.NoteOnEvent(tick=480, channel=0, data=[60, 0]),
   midi.NoteOnEvent(tick=0, channel=0, data=[63, 47]),
   midi.NoteOnEvent(tick=480, channel=0, data=[63, 0]),
   midi.NoteOnEvent(tick=0, channel=0, data=[65, 48]),
   midi.NoteOnEvent(tick=480, channel=0, data=[65, 0]),
   midi.NoteOnEvent(tick=0, channel=0, data=[63, 45]),
   midi.NoteOnEvent(tick=480, channel=0, data=[63, 0]),
   midi.NoteOnEvent(tick=0, channel=0, data=[62, 53]),
   midi.NoteOnEvent(tick=480, channel=0, data=[62, 0]),
   midi.NoteOnEvent(tick=0, channel=0, data=[65, 47]),
   midi.NoteOnEvent(tick=0, channel=0, data=[57, 47]),
   midi.NoteOnEvent(tick=480, channel=0, data=[57, 0]),
   midi.NoteOnEvent(tick=0, channel=0, data=[58, 51]),
   midi.NoteOnEvent(tick=480, channel=0, data=[58, 0]),
   midi.NoteOnEvent(tick=0, channel=0, data=[65, 0]),
   midi.NoteOnEvent(tick=0, channel=0, data=[51, 48]),
   midi.NoteOnEvent(tick=0, channel=0, data=[60, 48]),
   midi.NoteOnEvent(tick=480, channel=0, data=[60, 0]),
   midi.NoteOnEvent(tick=0, channel=0, data=[51, 0]),
   midi.NoteOnEvent(tick=0, channel=0, data=[58, 52]),
   midi.NoteOnEvent(tick=0, channel=0, data=[53, 52]),
   midi.NoteOnEvent(tick=960, channel=0, data=[58, 0]),
   midi.NoteOnEvent(tick=0, channel=0, data=[57, 47]),
   midi.NoteOnEvent(tick=480, channel=0, data=[57, 0]),
   midi.NoteOnEvent(tick=0, channel=0, data=[53, 0]),
   midi.NoteOnEvent(tick=480, channel=0, data=[46, 62]),
   midi.NoteOnEvent(tick=120, channel=0, data=[46, 0]),
   midi.NoteOnEvent(tick=120, channel=0, data=[58, 50]),
   midi.NoteOnEvent(tick=240, channel=0, data=[58, 0]),
   midi.NoteOnEvent(tick=0, channel=0, data=[62, 53]),
   midi.NoteOnEvent(tick=240, channel=0, data=[62, 0]),
   midi.NoteOnEvent(tick=0, channel=0, data=[58, 50]),
   midi.NoteOnEvent(tick=240, channel=0, data=[58, 0]),
   midi.NoteOnEvent(tick=0, channel=0, data=[43, 62]),
   midi.NoteOnEvent(tick=120, channel=0, data=[43, 0]),
   midi.NoteOnEvent(tick=120, channel=0, data=[55, 52]),
   midi.NoteOnEvent(tick=120, channel=0, data=[55, 0]),
   midi.NoteOnEvent(tick=120, channel=0, data=[58, 54]),
   midi.NoteOnEvent(tick=120, channel=0, data=[58, 0]),
   midi.NoteOnEvent(tick=120, channel=0, data=[55, 52]),
   midi.NoteOnEvent(tick=120, channel=0, data=[55, 0]),
   midi.NoteOnEvent(tick=120, channel=0, data=[36, 64]),
   midi.NoteOnEvent(tick=120, channel=0, data=[36, 0]),
   midi.NoteOnEvent(tick=120, channel=0, data=[48, 51]),
   midi.NoteOnEvent(tick=240, channel=0, data=[48, 0]),
   midi.NoteOnEvent(tick=0, channel=0, data=[51, 54]),
   midi.NoteOnEvent(tick=240, channel=0, data=[51, 0]),
   midi.NoteOnEvent(tick=0, channel=0, data=[48, 52]),
   midi.NoteOnEvent(tick=240, channel=0, data=[48, 0]),
   midi.NoteOnEvent(tick=0, channel=0, data=[41, 64]),
   midi.NoteOnEvent(tick=120, channel=0, data=[41, 0]),
   midi.NoteOnEvent(tick=120, channel=0, data=[53, 53]),
   midi.NoteOnEvent(tick=240, channel=0, data=[53, 0]),
   midi.NoteOnEvent(tick=0, channel=0, data=[57, 54]),
   midi.NoteOnEvent(tick=240, channel=0, data=[57, 0]),
   midi.NoteOnEvent(tick=0, channel=0, data=[53, 54]),
   midi.NoteOnEvent(tick=240, channel=0, data=[53, 0]),
   midi.NoteOnEvent(tick=0, channel=0, data=[58, 63]),
   midi.NoteOnEvent(tick=480, channel=0, data=[58, 0]),
   midi.NoteOnEvent(tick=0, channel=0, data=[51, 54]),
   midi.NoteOnEvent(tick=480, channel=0, data=[51, 0]),
   midi.NoteOnEvent(tick=0, channel=0, data=[53, 57]),
   midi.NoteOnEvent(tick=480, channel=0, data=[53, 0]),
   midi.NoteOnEvent(tick=0, channel=0, data=[41, 54]),
   midi.NoteOnEvent(tick=480, channel=0, data=[41, 0]),
   midi.NoteOnEvent(tick=0, channel=0, data=[50, 69]),
   midi.NoteOnEvent(tick=0, channel=0, data=[58, 69]),
   midi.NoteOnEvent(tick=480, channel=0, data=[58, 0]),
   midi.NoteOnEvent(tick=0, channel=0, data=[50, 0]),
   midi.NoteOnEvent(tick=960, channel=0, data=[50, 63]),
   midi.NoteOnEvent(tick=0, channel=0, data=[58, 63]),
   midi.NoteOnEvent(tick=480, channel=0, data=[58, 0]),
   midi.NoteOnEvent(tick=0, channel=0, data=[50, 0]),
   midi.NoteOnEvent(tick=0, channel=0, data=[58, 68]),
   midi.NoteOnEvent(tick=0, channel=0, data=[51, 68]),
   midi.NoteOnEvent(tick=480, channel=0, data=[51, 0]),
   midi.NoteOnEvent(tick=0, channel=0, data=[58, 0]),
   midi.NoteOnEvent(tick=960, channel=0, data=[51, 64]),
   midi.NoteOnEvent(tick=0, channel=0, data=[57, 64]),
   midi.NoteOnEvent(tick=480, channel=0, data=[57, 0]),
   midi.NoteOnEvent(tick=0, channel=0, data=[51, 0]),
   midi.NoteOnEvent(tick=0, channel=0, data=[50, 69]),
   midi.NoteOnEvent(tick=0, channel=0, data=[58, 69]),
   midi.NoteOnEvent(tick=480, channel=0, data=[50, 0]),
   midi.NoteOnEvent(tick=0, channel=0, data=[55, 59]),
   midi.NoteOnEvent(tick=480, channel=0, data=[55, 0]),
   midi.NoteOnEvent(tick=0, channel=0, data=[51, 66]),
   midi.NoteOnEvent(tick=480, channel=0, data=[51, 0]),
   midi.NoteOnEvent(tick=0, channel=0, data=[58, 0]),
   midi.NoteOnEvent(tick=0, channel=0, data=[57, 59]),
   midi.NoteOnEvent(tick=0, channel=0, data=[53, 59]),
   midi.NoteOnEvent(tick=480, channel=0, data=[53, 0]),
   midi.NoteOnEvent(tick=0, channel=0, data=[57, 0]),
   midi.NoteOnEvent(tick=0, channel=0, data=[50, 64]),
   midi.NoteOnEvent(tick=0, channel=0, data=[58, 64]),
   midi.NoteOnEvent(tick=480, channel=0, data=[58, 0]),
   midi.NoteOnEvent(tick=0, channel=0, data=[50, 0]),
   midi.NoteOnEvent(tick=960, channel=0, data=[58, 54]),
   midi.NoteOnEvent(tick=0, channel=0, data=[50, 54]),
   midi.NoteOnEvent(tick=480, channel=0, data=[50, 0]),
   midi.NoteOnEvent(tick=0, channel=0, data=[58, 0]),
   midi.NoteOnEvent(tick=0, channel=0, data=[58, 58]),
   midi.NoteOnEvent(tick=0, channel=0, data=[51, 58]),
   midi.NoteOnEvent(tick=480, channel=0, data=[51, 0]),
   midi.NoteOnEvent(tick=0, channel=0, data=[58, 0]),
   midi.NoteOnEvent(tick=960, channel=0, data=[51, 55]),
   midi.NoteOnEvent(tick=0, channel=0, data=[60, 55]),
   midi.NoteOnEvent(tick=480, channel=0, data=[60, 0]),
   midi.NoteOnEvent(tick=0, channel=0, data=[51, 0]),
   midi.NoteOnEvent(tick=0, channel=0, data=[53, 64]),
   midi.NoteOnEvent(tick=240, channel=0, data=[53, 0]),
   midi.NoteOnEvent(tick=0, channel=0, data=[62, 57]),
   midi.NoteOnEvent(tick=240, channel=0, data=[62, 0]),
   midi.NoteOnEvent(tick=0, channel=0, data=[58, 64]),
   midi.NoteOnEvent(tick=240, channel=0, data=[58, 0]),
   midi.NoteOnEvent(tick=0, channel=0, data=[62, 58]),
   midi.NoteOnEvent(tick=240, channel=0, data=[62, 0]),
   midi.NoteOnEvent(tick=0, channel=0, data=[53, 64]),
   midi.NoteOnEvent(tick=240, channel=0, data=[53, 0]),
   midi.NoteOnEvent(tick=0, channel=0, data=[62, 58]),
   midi.NoteOnEvent(tick=240, channel=0, data=[62, 0]),
   midi.NoteOnEvent(tick=0, channel=0, data=[58, 64]),
   midi.NoteOnEvent(tick=240, channel=0, data=[58, 0]),
   midi.NoteOnEvent(tick=0, channel=0, data=[62, 58]),
   midi.NoteOnEvent(tick=240, channel=0, data=[62, 0]),
   midi.NoteOnEvent(tick=0, channel=0, data=[53, 64]),
   midi.NoteOnEvent(tick=240, channel=0, data=[53, 0]),
   midi.NoteOnEvent(tick=0, channel=0, data=[63, 64]),
   midi.NoteOnEvent(tick=240, channel=0, data=[63, 0]),
   midi.NoteOnEvent(tick=0, channel=0, data=[57, 67]),
   midi.NoteOnEvent(tick=240, channel=0, data=[57, 0]),
   midi.NoteOnEvent(tick=0, channel=0, data=[63, 64]),
   midi.NoteOnEvent(tick=240, channel=0, data=[63, 0]),
   midi.NoteOnEvent(tick=0, channel=0, data=[53, 70]),
   midi.NoteOnEvent(tick=240, channel=0, data=[53, 0]),
   midi.NoteOnEvent(tick=0, channel=0, data=[63, 64]),
   midi.NoteOnEvent(tick=240, channel=0, data=[63, 0]),
   midi.NoteOnEvent(tick=0, channel=0, data=[57, 71]),
   midi.NoteOnEvent(tick=240, channel=0, data=[57, 0]),
   midi.NoteOnEvent(tick=0, channel=0, data=[63, 66]),
   midi.NoteOnEvent(tick=240, channel=0, data=[63, 0]),
   midi.NoteOnEvent(tick=0, channel=0, data=[62, 66]),
   midi.NoteOnEvent(tick=240, channel=0, data=[62, 0]),
   midi.NoteOnEvent(tick=0, channel=0, data=[58, 49]),
   midi.NoteOnEvent(tick=240, channel=0, data=[58, 0]),
   midi.NoteOnEvent(tick=0, channel=0, data=[62, 41]),
   midi.NoteOnEvent(tick=240, channel=0, data=[62, 0]),
   midi.NoteOnEvent(tick=0, channel=0, data=[58, 34]),
   midi.NoteOnEvent(tick=240, channel=0, data=[58, 0]),
   midi.NoteOnEvent(tick=0, channel=0, data=[62, 40]),
   midi.NoteOnEvent(tick=240, channel=0, data=[62, 0]),
   midi.NoteOnEvent(tick=0, channel=0, data=[58, 35]),
   midi.NoteOnEvent(tick=240, channel=0, data=[58, 0]),
   midi.NoteOnEvent(tick=0, channel=0, data=[62, 40]),
   midi.NoteOnEvent(tick=240, channel=0, data=[62, 0]),
   midi.NoteOnEvent(tick=0, channel=0, data=[58, 35]),
   midi.NoteOnEvent(tick=240, channel=0, data=[58, 0]),
   midi.NoteOnEvent(tick=0, channel=0, data=[65, 43]),
   midi.NoteOnEvent(tick=240, channel=0, data=[65, 0]),
   midi.NoteOnEvent(tick=0, channel=0, data=[58, 39]),
   midi.NoteOnEvent(tick=240, channel=0, data=[58, 0]),
   midi.NoteOnEvent(tick=0, channel=0, data=[65, 44]),
   midi.NoteOnEvent(tick=240, channel=0, data=[65, 0]),
   midi.NoteOnEvent(tick=0, channel=0, data=[58, 38]),
   midi.NoteOnEvent(tick=240, channel=0, data=[58, 0]),
   midi.NoteOnEvent(tick=0, channel=0, data=[68, 44]),
   midi.NoteOnEvent(tick=240, channel=0, data=[68, 0]),
   midi.NoteOnEvent(tick=0, channel=0, data=[58, 38]),
   midi.NoteOnEvent(tick=240, channel=0, data=[58, 0]),
   midi.NoteOnEvent(tick=0, channel=0, data=[68, 44]),
   midi.NoteOnEvent(tick=240, channel=0, data=[68, 0]),
   midi.NoteOnEvent(tick=0, channel=0, data=[58, 38]),
   midi.NoteOnEvent(tick=240, channel=0, data=[58, 0]),
   midi.NoteOnEvent(tick=0, channel=0, data=[67, 44]),
   midi.NoteOnEvent(tick=240, channel=0, data=[67, 0]),
   midi.NoteOnEvent(tick=0, channel=0, data=[58, 42]),
   midi.NoteOnEvent(tick=240, channel=0, data=[58, 0]),
   midi.NoteOnEvent(tick=0, channel=0, data=[62, 47]),
   midi.NoteOnEvent(tick=240, channel=0, data=[62, 0]),
   midi.NoteOnEvent(tick=0, channel=0, data=[58, 44]),
   midi.NoteOnEvent(tick=240, channel=0, data=[58, 0]),
   midi.NoteOnEvent(tick=0, channel=0, data=[63, 50]),
   midi.NoteOnEvent(tick=240, channel=0, data=[63, 0]),
   midi.NoteOnEvent(tick=0, channel=0, data=[58, 46]),
   midi.NoteOnEvent(tick=240, channel=0, data=[58, 0]),
   midi.NoteOnEvent(tick=0, channel=0, data=[63, 44]),
   midi.NoteOnEvent(tick=240, channel=0, data=[63, 0]),
   midi.NoteOnEvent(tick=0, channel=0, data=[58, 44]),
   midi.NoteOnEvent(tick=240, channel=0, data=[58, 0]),
   midi.NoteOnEvent(tick=0, channel=0, data=[60, 43]),
   midi.NoteOnEvent(tick=240, channel=0, data=[60, 0]),
   midi.NoteOnEvent(tick=0, channel=0, data=[58, 38]),
   midi.NoteOnEvent(tick=240, channel=0, data=[58, 0]),
   midi.NoteOnEvent(tick=0, channel=0, data=[60, 41]),
   midi.NoteOnEvent(tick=240, channel=0, data=[60, 0]),
   midi.NoteOnEvent(tick=0, channel=0, data=[58, 40]),
   midi.NoteOnEvent(tick=240, channel=0, data=[58, 0]),
   midi.NoteOnEvent(tick=0, channel=0, data=[60, 48]),
   midi.NoteOnEvent(tick=240, channel=0, data=[60, 0]),
   midi.NoteOnEvent(tick=0, channel=0, data=[58, 43]),
   midi.NoteOnEvent(tick=240, channel=0, data=[58, 0]),
   midi.NoteOnEvent(tick=0, channel=0, data=[60, 43]),
   midi.NoteOnEvent(tick=240, channel=0, data=[60, 0]),
   midi.NoteOnEvent(tick=0, channel=0, data=[58, 39]),
   midi.NoteOnEvent(tick=240, channel=0, data=[58, 0]),
   midi.NoteOnEvent(tick=0, channel=0, data=[58, 45]),
   midi.NoteOnEvent(tick=0, channel=0, data=[62, 45]),
   midi.NoteOnEvent(tick=480, channel=0, data=[62, 0]),
   midi.NoteOnEvent(tick=0, channel=0, data=[58, 0]),
   midi.NoteOnEvent(tick=1440, channel=0, data=[65, 42]),
   midi.NoteOnEvent(tick=240, channel=0, data=[65, 0]),
   midi.NoteOnEvent(tick=0, channel=0, data=[58, 38]),
   midi.NoteOnEvent(tick=240, channel=0, data=[58, 0]),
   midi.NoteOnEvent(tick=0, channel=0, data=[65, 42]),
   midi.NoteOnEvent(tick=240, channel=0, data=[65, 0]),
   midi.NoteOnEvent(tick=0, channel=0, data=[58, 39]),
   midi.NoteOnEvent(tick=240, channel=0, data=[58, 0]),
   midi.NoteOnEvent(tick=0, channel=0, data=[68, 42]),
   midi.NoteOnEvent(tick=120, channel=0, data=[68, 0]),
   midi.NoteOnEvent(tick=120, channel=0, data=[58, 39]),
   midi.NoteOnEvent(tick=120, channel=0, data=[58, 0]),
   midi.NoteOnEvent(tick=120, channel=0, data=[68, 42]),
   midi.NoteOnEvent(tick=120, channel=0, data=[68, 0]),
   midi.NoteOnEvent(tick=120, channel=0, data=[58, 38]),
   midi.NoteOnEvent(tick=120, channel=0, data=[58, 0]),
   midi.NoteOnEvent(tick=120, channel=0, data=[67, 42]),
   midi.NoteOnEvent(tick=240, channel=0, data=[67, 0]),
   midi.NoteOnEvent(tick=0, channel=0, data=[58, 42]),
   midi.NoteOnEvent(tick=240, channel=0, data=[58, 0]),
   midi.NoteOnEvent(tick=0, channel=0, data=[62, 46]),
   midi.NoteOnEvent(tick=240, channel=0, data=[62, 0]),
   midi.NoteOnEvent(tick=0, channel=0, data=[58, 42]),
   midi.NoteOnEvent(tick=240, channel=0, data=[58, 0]),
   midi.NoteOnEvent(tick=0, channel=0, data=[63, 45]),
   midi.NoteOnEvent(tick=240, channel=0, data=[63, 0]),
   midi.NoteOnEvent(tick=0, channel=0, data=[58, 34]),
   midi.NoteOnEvent(tick=240, channel=0, data=[58, 0]),
   midi.NoteOnEvent(tick=0, channel=0, data=[63, 39]),
   midi.NoteOnEvent(tick=240, channel=0, data=[63, 0]),
   midi.NoteOnEvent(tick=0, channel=0, data=[58, 35]),
   midi.NoteOnEvent(tick=240, channel=0, data=[58, 0]),
   midi.NoteOnEvent(tick=0, channel=0, data=[60, 45]),
   midi.NoteOnEvent(tick=240, channel=0, data=[60, 0]),
   midi.NoteOnEvent(tick=0, channel=0, data=[58, 42]),
   midi.NoteOnEvent(tick=240, channel=0, data=[58, 0]),
   midi.NoteOnEvent(tick=0, channel=0, data=[60, 45]),
   midi.NoteOnEvent(tick=240, channel=0, data=[60, 0]),
   midi.NoteOnEvent(tick=0, channel=0, data=[58, 42]),
   midi.NoteOnEvent(tick=240, channel=0, data=[58, 0]),
   midi.NoteOnEvent(tick=0, channel=0, data=[60, 46]),
   midi.NoteOnEvent(tick=240, channel=0, data=[60, 0]),
   midi.NoteOnEvent(tick=0, channel=0, data=[58, 42]),
   midi.NoteOnEvent(tick=240, channel=0, data=[58, 0]),
   midi.NoteOnEvent(tick=0, channel=0, data=[60, 46]),
   midi.NoteOnEvent(tick=240, channel=0, data=[60, 0]),
   midi.NoteOnEvent(tick=0, channel=0, data=[58, 44]),
   midi.NoteOnEvent(tick=240, channel=0, data=[58, 0]),
   midi.NoteOnEvent(tick=0, channel=0, data=[62, 49]),
   midi.NoteOnEvent(tick=0, channel=0, data=[58, 49]),
   midi.NoteOnEvent(tick=480, channel=0, data=[58, 0]),
   midi.NoteOnEvent(tick=0, channel=0, data=[62, 0]),
   midi.NoteOnEvent(tick=480, channel=0, data=[60, 39]),
   midi.NoteOnEvent(tick=0, channel=0, data=[53, 39]),
   midi.NoteOnEvent(tick=480, channel=0, data=[60, 0]),
   midi.NoteOnEvent(tick=0, channel=0, data=[63, 39]),
   midi.NoteOnEvent(tick=480, channel=0, data=[63, 0]),
   midi.NoteOnEvent(tick=0, channel=0, data=[53, 0]),
   midi.NoteOnEvent(tick=0, channel=0, data=[62, 46]),
   midi.NoteOnEvent(tick=0, channel=0, data=[58, 46]),
   midi.NoteOnEvent(tick=480, channel=0, data=[58, 0]),
   midi.NoteOnEvent(tick=0, channel=0, data=[62, 0]),
   midi.NoteOnEvent(tick=480, channel=0, data=[60, 37]),
   midi.NoteOnEvent(tick=0, channel=0, data=[53, 37]),
   midi.NoteOnEvent(tick=480, channel=0, data=[60, 0]),
   midi.NoteOnEvent(tick=0, channel=0, data=[63, 37]),
   midi.NoteOnEvent(tick=480, channel=0, data=[63, 0]),
   midi.NoteOnEvent(tick=0, channel=0, data=[53, 0]),
   midi.NoteOnEvent(tick=0, channel=0, data=[58, 43]),
   midi.NoteOnEvent(tick=0, channel=0, data=[62, 43]),
   midi.NoteOnEvent(tick=480, channel=0, data=[62, 0]),
   midi.NoteOnEvent(tick=0, channel=0, data=[58, 0]),
   midi.NoteOnEvent(tick=480, channel=0, data=[53, 84]),
   midi.NoteOnEvent(tick=0, channel=0, data=[41, 71]),
   midi.NoteOnEvent(tick=240, channel=0, data=[41, 0]),
   midi.NoteOnEvent(tick=0, channel=0, data=[53, 0]),
   midi.NoteOnEvent(tick=240, channel=0, data=[41, 71]),
   midi.NoteOnEvent(tick=0, channel=0, data=[53, 84]),
   midi.NoteOnEvent(tick=240, channel=0, data=[53, 0]),
   midi.NoteOnEvent(tick=0, channel=0, data=[41, 0]),
   midi.NoteOnEvent(tick=240, channel=0, data=[34, 75]),
   midi.NoteOnEvent(tick=0, channel=0, data=[46, 89]),
   midi.NoteOnEvent(tick=240, channel=0, data=[46, 0]),
   midi.NoteOnEvent(tick=0, channel=0, data=[34, 0]),
   midi.EndOfTrackEvent(tick=0, data=[])])])
midi.write_midifile("creationMidi.mid", pattern)