import midi
pattern=midi.Pattern(format=1, resolution=480, tracks=\
[midi.Track(\
[   midi.ControlChangeEvent(tick=0, channel=0, data=[7, 100]),
   midi.ControlChangeEvent(tick=0, channel=0, data=[10, 64]),
   midi.ControlChangeEvent(tick=0, channel=0, data=[91, 127]),
   midi.NoteOnEvent(tick=1, channel=0, data=[70, 59]),
   midi.NoteOnEvent(tick=0, channel=0, data=[67, 59]),
   midi.NoteOnEvent(tick=479, channel=0, data=[68, 55]),
   midi.NoteOnEvent(tick=0, channel=0, data=[65, 55]),
   midi.NoteOnEvent(tick=1, channel=0, data=[67, 0]),
   midi.NoteOnEvent(tick=0, channel=0, data=[70, 0]),
   midi.NoteOnEvent(tick=239, channel=0, data=[63, 53]),
   midi.NoteOnEvent(tick=0, channel=0, data=[67, 53]),
   midi.NoteOnEvent(tick=20, channel=0, data=[68, 0]),
   midi.NoteOnEvent(tick=0, channel=0, data=[65, 0]),
   midi.NoteOnEvent(tick=220, channel=0, data=[68, 54]),
   midi.NoteOnEvent(tick=0, channel=0, data=[72, 54]),
   midi.NoteOnEvent(tick=20, channel=0, data=[63, 0]),
   midi.NoteOnEvent(tick=0, channel=0, data=[67, 0]),
   midi.NoteOnEvent(tick=220, channel=0, data=[67, 52]),
   midi.NoteOnEvent(tick=0, channel=0, data=[70, 52]),
   midi.NoteOnEvent(tick=20, channel=0, data=[68, 0]),
   midi.NoteOnEvent(tick=0, channel=0, data=[72, 0]),
   midi.NoteOnEvent(tick=200, channel=0, data=[67, 0]),
   midi.NoteOnEvent(tick=0, channel=0, data=[70, 0]),
   midi.NoteOnEvent(tick=20, channel=0, data=[70, 59]),
   midi.NoteOnEvent(tick=0, channel=0, data=[67, 59]),
   midi.NoteOnEvent(tick=480, channel=0, data=[67, 0]),
   midi.NoteOnEvent(tick=0, channel=0, data=[70, 0]),
   midi.NoteOnEvent(tick=0, channel=0, data=[65, 53]),
   midi.NoteOnEvent(tick=0, channel=0, data=[68, 53]),
   midi.NoteOnEvent(tick=480, channel=0, data=[68, 0]),
   midi.NoteOnEvent(tick=0, channel=0, data=[65, 0]),
   midi.NoteOnEvent(tick=0, channel=0, data=[63, 51]),
   midi.NoteOnEvent(tick=0, channel=0, data=[67, 51]),
   midi.NoteOnEvent(tick=480, channel=0, data=[67, 0]),
   midi.NoteOnEvent(tick=0, channel=0, data=[63, 0]),
   midi.NoteOnEvent(tick=0, channel=0, data=[64, 65]),
   midi.NoteOnEvent(tick=480, channel=0, data=[64, 0]),
   midi.NoteOnEvent(tick=0, channel=0, data=[65, 55]),
   midi.NoteOnEvent(tick=240, channel=0, data=[65, 0]),
   midi.NoteOnEvent(tick=0, channel=0, data=[72, 55]),
   midi.NoteOnEvent(tick=240, channel=0, data=[72, 0]),
   midi.NoteOnEvent(tick=0, channel=0, data=[70, 53]),
   midi.NoteOnEvent(tick=120, channel=0, data=[70, 0]),
   midi.NoteOnEvent(tick=0, channel=0, data=[68, 51]),
   midi.NoteOnEvent(tick=120, channel=0, data=[68, 0]),
   midi.NoteOnEvent(tick=0, channel=0, data=[67, 53]),
   midi.NoteOnEvent(tick=120, channel=0, data=[67, 0]),
   midi.NoteOnEvent(tick=0, channel=0, data=[65, 52]),
   midi.NoteOnEvent(tick=120, channel=0, data=[65, 0]),
   midi.NoteOnEvent(tick=0, channel=0, data=[55, 59]),
   midi.NoteOnEvent(tick=0, channel=0, data=[63, 59]),
   midi.NoteOnEvent(tick=480, channel=0, data=[63, 0]),
   midi.NoteOnEvent(tick=0, channel=0, data=[55, 0]),
   midi.NoteOnEvent(tick=0, channel=0, data=[53, 53]),
   midi.NoteOnEvent(tick=0, channel=0, data=[62, 53]),
   midi.NoteOnEvent(tick=120, channel=0, data=[62, 0]),
   midi.NoteOnEvent(tick=0, channel=0, data=[53, 0]),
   midi.NoteOnEvent(tick=60, channel=0, data=[58, 47]),
   midi.NoteOnEvent(tick=60, channel=0, data=[58, 0]),
   midi.NoteOnEvent(tick=0, channel=0, data=[62, 51]),
   midi.NoteOnEvent(tick=60, channel=0, data=[62, 0]),
   midi.NoteOnEvent(tick=0, channel=0, data=[60, 49]),
   midi.NoteOnEvent(tick=60, channel=0, data=[60, 0]),
   midi.NoteOnEvent(tick=0, channel=0, data=[63, 52]),
   midi.NoteOnEvent(tick=60, channel=0, data=[63, 0]),
   midi.NoteOnEvent(tick=0, channel=0, data=[62, 51]),
   midi.NoteOnEvent(tick=60, channel=0, data=[62, 0]),
   midi.NoteOnEvent(tick=0, channel=0, data=[65, 53]),
   midi.NoteOnEvent(tick=60, channel=0, data=[65, 0]),
   midi.NoteOnEvent(tick=0, channel=0, data=[63, 51]),
   midi.NoteOnEvent(tick=60, channel=0, data=[63, 0]),
   midi.NoteOnEvent(tick=0, channel=0, data=[67, 54]),
   midi.NoteOnEvent(tick=60, channel=0, data=[67, 0]),
   midi.NoteOnEvent(tick=0, channel=0, data=[65, 54]),
   midi.NoteOnEvent(tick=60, channel=0, data=[65, 0]),
   midi.NoteOnEvent(tick=0, channel=0, data=[68, 57]),
   midi.NoteOnEvent(tick=60, channel=0, data=[68, 0]),
   midi.NoteOnEvent(tick=0, channel=0, data=[67, 54]),
   midi.NoteOnEvent(tick=60, channel=0, data=[67, 0]),
   midi.NoteOnEvent(tick=0, channel=0, data=[70, 59]),
   midi.NoteOnEvent(tick=60, channel=0, data=[70, 0]),
   midi.NoteOnEvent(tick=0, channel=0, data=[68, 56]),
   midi.NoteOnEvent(tick=60, channel=0, data=[68, 0]),
   midi.NoteOnEvent(tick=0, channel=0, data=[72, 60]),
   midi.NoteOnEvent(tick=60, channel=0, data=[72, 0]),
   midi.NoteOnEvent(tick=0, channel=0, data=[67, 61]),
   midi.NoteOnEvent(tick=0, channel=0, data=[70, 61]),
   midi.NoteOnEvent(tick=300, channel=0, data=[70, 0]),
   midi.NoteOnEvent(tick=0, channel=0, data=[72, 53]),
   midi.NoteOnEvent(tick=60, channel=0, data=[72, 0]),
   midi.NoteOnEvent(tick=0, channel=0, data=[70, 50]),
   midi.NoteOnEvent(tick=60, channel=0, data=[70, 0]),
   midi.NoteOnEvent(tick=0, channel=0, data=[67, 0]),
   midi.NoteOnEvent(tick=0, channel=0, data=[68, 53]),
   midi.NoteOnEvent(tick=120, channel=0, data=[68, 0]),
   midi.NoteOnEvent(tick=0, channel=0, data=[67, 51]),
   midi.NoteOnEvent(tick=120, channel=0, data=[67, 0]),
   midi.NoteOnEvent(tick=0, channel=0, data=[65, 53]),
   midi.NoteOnEvent(tick=120, channel=0, data=[65, 0]),
   midi.NoteOnEvent(tick=0, channel=0, data=[63, 52]),
   midi.NoteOnEvent(tick=120, channel=0, data=[63, 0]),
   midi.NoteOnEvent(tick=0, channel=0, data=[79, 62]),
   midi.NoteOnEvent(tick=120, channel=0, data=[79, 0]),
   midi.NoteOnEvent(tick=0, channel=0, data=[74, 54]),
   midi.NoteOnEvent(tick=120, channel=0, data=[74, 0]),
   midi.NoteOnEvent(tick=0, channel=0, data=[75, 58]),
   midi.NoteOnEvent(tick=120, channel=0, data=[75, 0]),
   midi.NoteOnEvent(tick=0, channel=0, data=[72, 52]),
   midi.NoteOnEvent(tick=120, channel=0, data=[72, 0]),
   midi.NoteOnEvent(tick=0, channel=0, data=[70, 56]),
   midi.NoteOnEvent(tick=480, channel=0, data=[70, 0]),
   midi.NoteOnEvent(tick=0, channel=0, data=[68, 50]),
   midi.NoteOnEvent(tick=52, channel=0, data=[68, 0]),
   midi.NoteOnEvent(tick=0, channel=0, data=[70, 48]),
   midi.NoteOnEvent(tick=51, channel=0, data=[70, 0]),
   midi.NoteOnEvent(tick=0, channel=0, data=[68, 50]),
   midi.NoteOnEvent(tick=52, channel=0, data=[68, 0]),
   midi.NoteOnEvent(tick=0, channel=0, data=[70, 48]),
   midi.NoteOnEvent(tick=52, channel=0, data=[70, 0]),
   midi.NoteOnEvent(tick=0, channel=0, data=[68, 50]),
   midi.NoteOnEvent(tick=51, channel=0, data=[68, 0]),
   midi.NoteOnEvent(tick=0, channel=0, data=[70, 49]),
   midi.NoteOnEvent(tick=52, channel=0, data=[70, 0]),
   midi.NoteOnEvent(tick=0, channel=0, data=[68, 49]),
   midi.NoteOnEvent(tick=50, channel=0, data=[67, 57]),
   midi.NoteOnEvent(tick=1, channel=0, data=[68, 0]),
   midi.NoteOnEvent(tick=59, channel=0, data=[67, 0]),
   midi.NoteOnEvent(tick=0, channel=0, data=[68, 55]),
   midi.NoteOnEvent(tick=60, channel=0, data=[68, 0]),
   midi.NoteOnEvent(tick=0, channel=0, data=[67, 60]),
   midi.NoteOnEvent(tick=60, channel=0, data=[67, 0]),
   midi.NoteOnEvent(tick=60, channel=0, data=[75, 65]),
   midi.NoteOnEvent(tick=120, channel=0, data=[75, 0]),
   midi.NoteOnEvent(tick=0, channel=0, data=[74, 62]),
   midi.NoteOnEvent(tick=120, channel=0, data=[74, 0]),
   midi.NoteOnEvent(tick=0, channel=0, data=[73, 59]),
   midi.NoteOnEvent(tick=120, channel=0, data=[73, 0]),
   midi.NoteOnEvent(tick=0, channel=0, data=[71, 57]),
   midi.NoteOnEvent(tick=90, channel=0, data=[74, 53]),
   midi.NoteOnEvent(tick=30, channel=0, data=[74, 0]),
   midi.NoteOnEvent(tick=0, channel=0, data=[71, 0]),
   midi.NoteOnEvent(tick=0, channel=0, data=[72, 61]),
   midi.NoteOnEvent(tick=90, channel=0, data=[70, 53]),
   midi.NoteOnEvent(tick=30, channel=0, data=[70, 0]),
   midi.NoteOnEvent(tick=0, channel=0, data=[72, 0]),
   midi.NoteOnEvent(tick=0, channel=0, data=[68, 57]),
   midi.NoteOnEvent(tick=90, channel=0, data=[67, 47]),
   midi.NoteOnEvent(tick=30, channel=0, data=[67, 0]),
   midi.NoteOnEvent(tick=0, channel=0, data=[68, 0]),
   midi.NoteOnEvent(tick=0, channel=0, data=[65, 55]),
   midi.NoteOnEvent(tick=120, channel=0, data=[65, 0]),
   midi.NoteOnEvent(tick=0, channel=0, data=[63, 51]),
   midi.NoteOnEvent(tick=720, channel=0, data=[63, 0]),
   midi.NoteOnEvent(tick=0, channel=0, data=[67, 50]),
   midi.NoteOnEvent(tick=0, channel=0, data=[62, 50]),
   midi.NoteOnEvent(tick=120, channel=0, data=[67, 0]),
   midi.NoteOnEvent(tick=0, channel=0, data=[65, 47]),
   midi.NoteOnEvent(tick=120, channel=0, data=[65, 0]),
   midi.NoteOnEvent(tick=0, channel=0, data=[62, 0]),
   midi.NoteOnEvent(tick=0, channel=0, data=[63, 46]),
   midi.NoteOnEvent(tick=480, channel=0, data=[63, 0]),
   midi.NoteOnEvent(tick=240, channel=0, data=[67, 49]),
   midi.NoteOnEvent(tick=0, channel=0, data=[70, 49]),
   midi.NoteOnEvent(tick=240, channel=0, data=[70, 0]),
   midi.NoteOnEvent(tick=0, channel=0, data=[67, 0]),
   midi.NoteOnEvent(tick=0, channel=0, data=[67, 52]),
   midi.NoteOnEvent(tick=0, channel=0, data=[70, 52]),
   midi.NoteOnEvent(tick=240, channel=0, data=[70, 0]),
   midi.NoteOnEvent(tick=0, channel=0, data=[67, 0]),
   midi.NoteOnEvent(tick=0, channel=0, data=[67, 46]),
   midi.NoteOnEvent(tick=0, channel=0, data=[70, 46]),
   midi.NoteOnEvent(tick=240, channel=0, data=[70, 0]),
   midi.NoteOnEvent(tick=0, channel=0, data=[67, 0]),
   midi.NoteOnEvent(tick=0, channel=0, data=[68, 57]),
   midi.NoteOnEvent(tick=0, channel=0, data=[75, 57]),
   midi.NoteOnEvent(tick=240, channel=0, data=[75, 0]),
   midi.NoteOnEvent(tick=0, channel=0, data=[74, 50]),
   midi.NoteOnEvent(tick=480, channel=0, data=[74, 0]),
   midi.NoteOnEvent(tick=0, channel=0, data=[68, 0]),
   midi.NoteOnEvent(tick=0, channel=0, data=[82, 54]),
   midi.NoteOnEvent(tick=120, channel=0, data=[80, 51]),
   midi.NoteOnEvent(tick=24, channel=0, data=[82, 0]),
   midi.NoteOnEvent(tick=96, channel=0, data=[80, 0]),
   midi.NoteOnEvent(tick=0, channel=0, data=[79, 54]),
   midi.NoteOnEvent(tick=120, channel=0, data=[77, 52]),
   midi.NoteOnEvent(tick=24, channel=0, data=[79, 0]),
   midi.NoteOnEvent(tick=96, channel=0, data=[75, 52]),
   midi.NoteOnEvent(tick=24, channel=0, data=[77, 0]),
   midi.NoteOnEvent(tick=96, channel=0, data=[74, 49]),
   midi.NoteOnEvent(tick=24, channel=0, data=[75, 0]),
   midi.NoteOnEvent(tick=96, channel=0, data=[74, 0]),
   midi.NoteOnEvent(tick=0, channel=0, data=[77, 54]),
   midi.NoteOnEvent(tick=40, channel=0, data=[77, 0]),
   midi.NoteOnEvent(tick=0, channel=0, data=[75, 52]),
   midi.NoteOnEvent(tick=320, channel=0, data=[75, 0]),
   midi.NoteOnEvent(tick=0, channel=0, data=[74, 45]),
   midi.NoteOnEvent(tick=60, channel=0, data=[74, 0]),
   midi.NoteOnEvent(tick=0, channel=0, data=[72, 44]),
   midi.NoteOnEvent(tick=60, channel=0, data=[72, 0]),
   midi.NoteOnEvent(tick=0, channel=0, data=[70, 45]),
   midi.NoteOnEvent(tick=240, channel=0, data=[70, 0]),
   midi.NoteOnEvent(tick=0, channel=0, data=[67, 45]),
   midi.NoteOnEvent(tick=0, channel=0, data=[70, 45]),
   midi.NoteOnEvent(tick=240, channel=0, data=[70, 0]),
   midi.NoteOnEvent(tick=0, channel=0, data=[67, 0]),
   midi.NoteOnEvent(tick=0, channel=0, data=[67, 50]),
   midi.NoteOnEvent(tick=0, channel=0, data=[70, 50]),
   midi.NoteOnEvent(tick=240, channel=0, data=[70, 0]),
   midi.NoteOnEvent(tick=0, channel=0, data=[67, 0]),
   midi.NoteOnEvent(tick=0, channel=0, data=[70, 45]),
   midi.NoteOnEvent(tick=0, channel=0, data=[67, 45]),
   midi.NoteOnEvent(tick=240, channel=0, data=[67, 0]),
   midi.NoteOnEvent(tick=0, channel=0, data=[70, 0]),
   midi.NoteOnEvent(tick=0, channel=0, data=[68, 56]),
   midi.NoteOnEvent(tick=0, channel=0, data=[75, 56]),
   midi.NoteOnEvent(tick=240, channel=0, data=[75, 0]),
   midi.NoteOnEvent(tick=0, channel=0, data=[74, 46]),
   midi.NoteOnEvent(tick=480, channel=0, data=[74, 0]),
   midi.NoteOnEvent(tick=0, channel=0, data=[68, 0]),
   midi.NoteOnEvent(tick=0, channel=0, data=[82, 53]),
   midi.NoteOnEvent(tick=120, channel=0, data=[80, 50]),
   midi.NoteOnEvent(tick=24, channel=0, data=[82, 0]),
   midi.NoteOnEvent(tick=96, channel=0, data=[80, 0]),
   midi.NoteOnEvent(tick=0, channel=0, data=[79, 53]),
   midi.NoteOnEvent(tick=120, channel=0, data=[77, 50]),
   midi.NoteOnEvent(tick=24, channel=0, data=[79, 0]),
   midi.NoteOnEvent(tick=96, channel=0, data=[75, 52]),
   midi.NoteOnEvent(tick=24, channel=0, data=[77, 0]),
   midi.NoteOnEvent(tick=96, channel=0, data=[74, 50]),
   midi.NoteOnEvent(tick=24, channel=0, data=[75, 0]),
   midi.NoteOnEvent(tick=96, channel=0, data=[74, 0]),
   midi.NoteOnEvent(tick=0, channel=0, data=[75, 53]),
   midi.NoteOnEvent(tick=120, channel=0, data=[75, 0]),
   midi.NoteOnEvent(tick=0, channel=0, data=[77, 43]),
   midi.NoteOnEvent(tick=40, channel=0, data=[77, 0]),
   midi.NoteOnEvent(tick=0, channel=0, data=[75, 43]),
   midi.NoteOnEvent(tick=40, channel=0, data=[75, 0]),
   midi.NoteOnEvent(tick=0, channel=0, data=[74, 43]),
   midi.NoteOnEvent(tick=40, channel=0, data=[74, 0]),
   midi.NoteOnEvent(tick=0, channel=0, data=[75, 43]),
   midi.NoteOnEvent(tick=60, channel=0, data=[75, 0]),
   midi.NoteOnEvent(tick=0, channel=0, data=[77, 44]),
   midi.NoteOnEvent(tick=60, channel=0, data=[77, 0]),
   midi.NoteOnEvent(tick=0, channel=0, data=[79, 45]),
   midi.NoteOnEvent(tick=60, channel=0, data=[79, 0]),
   midi.NoteOnEvent(tick=0, channel=0, data=[75, 44]),
   midi.NoteOnEvent(tick=60, channel=0, data=[75, 0]),
   midi.NoteOnEvent(tick=0, channel=0, data=[70, 43]),
   midi.NoteOnEvent(tick=120, channel=0, data=[70, 0]),
   midi.NoteOnEvent(tick=120, channel=0, data=[70, 48]),
   midi.NoteOnEvent(tick=0, channel=0, data=[67, 48]),
   midi.NoteOnEvent(tick=240, channel=0, data=[67, 0]),
   midi.NoteOnEvent(tick=0, channel=0, data=[70, 0]),
   midi.NoteOnEvent(tick=0, channel=0, data=[65, 45]),
   midi.NoteOnEvent(tick=0, channel=0, data=[68, 45]),
   midi.NoteOnEvent(tick=240, channel=0, data=[68, 0]),
   midi.NoteOnEvent(tick=0, channel=0, data=[65, 0]),
   midi.NoteOnEvent(tick=0, channel=0, data=[63, 49]),
   midi.NoteOnEvent(tick=0, channel=0, data=[67, 49]),
   midi.NoteOnEvent(tick=240, channel=0, data=[67, 0]),
   midi.NoteOnEvent(tick=0, channel=0, data=[63, 0]),
   midi.NoteOnEvent(tick=0, channel=0, data=[63, 53]),
   midi.NoteOnEvent(tick=0, channel=0, data=[70, 53]),
   midi.NoteOnEvent(tick=360, channel=0, data=[70, 0]),
   midi.NoteOnEvent(tick=0, channel=0, data=[67, 39]),
   midi.NoteOnEvent(tick=120, channel=0, data=[67, 0]),
   midi.NoteOnEvent(tick=0, channel=0, data=[63, 0]),
   midi.NoteOnEvent(tick=0, channel=0, data=[62, 35]),
   midi.NoteOnEvent(tick=0, channel=0, data=[65, 35]),
   midi.NoteOnEvent(tick=480, channel=0, data=[65, 0]),
   midi.NoteOnEvent(tick=0, channel=0, data=[62, 0]),
   midi.NoteOnEvent(tick=420, channel=0, data=[65, 67]),
   midi.NoteOnEvent(tick=60, channel=0, data=[65, 0]),
   midi.NoteOnEvent(tick=0, channel=0, data=[77, 72]),
   midi.NoteOnEvent(tick=720, channel=0, data=[77, 0]),
   midi.NoteOnEvent(tick=0, channel=0, data=[75, 70]),
   midi.NoteOnEvent(tick=60, channel=0, data=[75, 0]),
   midi.NoteOnEvent(tick=0, channel=0, data=[74, 62]),
   midi.NoteOnEvent(tick=60, channel=0, data=[74, 0]),
   midi.NoteOnEvent(tick=0, channel=0, data=[72, 65]),
   midi.NoteOnEvent(tick=60, channel=0, data=[72, 0]),
   midi.NoteOnEvent(tick=0, channel=0, data=[70, 63]),
   midi.NoteOnEvent(tick=60, channel=0, data=[70, 0]),
   midi.NoteOnEvent(tick=0, channel=0, data=[69, 71]),
   midi.NoteOnEvent(tick=240, channel=0, data=[69, 0]),
   midi.NoteOnEvent(tick=0, channel=0, data=[70, 70]),
   midi.NoteOnEvent(tick=240, channel=0, data=[70, 0]),
   midi.NoteOnEvent(tick=0, channel=0, data=[72, 67]),
   midi.NoteOnEvent(tick=0, channel=0, data=[69, 67]),
   midi.NoteOnEvent(tick=240, channel=0, data=[69, 0]),
   midi.NoteOnEvent(tick=0, channel=0, data=[72, 0]),
   midi.NoteOnEvent(tick=0, channel=0, data=[75, 65]),
   midi.NoteOnEvent(tick=0, channel=0, data=[70, 65]),
   midi.NoteOnEvent(tick=60, channel=0, data=[75, 0]),
   midi.NoteOnEvent(tick=0, channel=0, data=[74, 62]),
   midi.NoteOnEvent(tick=60, channel=0, data=[74, 0]),
   midi.NoteOnEvent(tick=0, channel=0, data=[72, 65]),
   midi.NoteOnEvent(tick=60, channel=0, data=[72, 0]),
   midi.NoteOnEvent(tick=0, channel=0, data=[74, 61]),
   midi.NoteOnEvent(tick=60, channel=0, data=[74, 0]),
   midi.NoteOnEvent(tick=0, channel=0, data=[70, 0]),
   midi.NoteOnEvent(tick=0, channel=0, data=[72, 65]),
   midi.NoteOnEvent(tick=0, channel=0, data=[75, 65]),
   midi.NoteOnEvent(tick=240, channel=0, data=[75, 0]),
   midi.NoteOnEvent(tick=0, channel=0, data=[72, 0]),
   midi.NoteOnEvent(tick=0, channel=0, data=[65, 49]),
   midi.NoteOnEvent(tick=240, channel=0, data=[65, 0]),
   midi.NoteOnEvent(tick=0, channel=0, data=[65, 53]),
   midi.NoteOnEvent(tick=240, channel=0, data=[65, 0]),
   midi.NoteOnEvent(tick=0, channel=0, data=[65, 50]),
   midi.NoteOnEvent(tick=240, channel=0, data=[65, 0]),
   midi.NoteOnEvent(tick=0, channel=0, data=[75, 72]),
   midi.NoteOnEvent(tick=720, channel=0, data=[75, 0]),
   midi.NoteOnEvent(tick=0, channel=0, data=[77, 69]),
   midi.NoteOnEvent(tick=60, channel=0, data=[77, 0]),
   midi.NoteOnEvent(tick=0, channel=0, data=[75, 63]),
   midi.NoteOnEvent(tick=60, channel=0, data=[75, 0]),
   midi.NoteOnEvent(tick=0, channel=0, data=[74, 69]),
   midi.NoteOnEvent(tick=60, channel=0, data=[74, 0]),
   midi.NoteOnEvent(tick=0, channel=0, data=[72, 63]),
   midi.NoteOnEvent(tick=60, channel=0, data=[72, 0]),
   midi.NoteOnEvent(tick=0, channel=0, data=[70, 73]),
   midi.NoteOnEvent(tick=240, channel=0, data=[70, 0]),
   midi.NoteOnEvent(tick=0, channel=0, data=[69, 70]),
   midi.NoteOnEvent(tick=0, channel=0, data=[72, 70]),
   midi.NoteOnEvent(tick=240, channel=0, data=[72, 0]),
   midi.NoteOnEvent(tick=0, channel=0, data=[69, 0]),
   midi.NoteOnEvent(tick=0, channel=0, data=[74, 71]),
   midi.NoteOnEvent(tick=0, channel=0, data=[70, 71]),
   midi.NoteOnEvent(tick=240, channel=0, data=[70, 0]),
   midi.NoteOnEvent(tick=0, channel=0, data=[74, 0]),
   midi.NoteOnEvent(tick=0, channel=0, data=[77, 67]),
   midi.NoteOnEvent(tick=0, channel=0, data=[72, 67]),
   midi.NoteOnEvent(tick=60, channel=0, data=[77, 0]),
   midi.NoteOnEvent(tick=0, channel=0, data=[75, 67]),
   midi.NoteOnEvent(tick=60, channel=0, data=[75, 0]),
   midi.NoteOnEvent(tick=0, channel=0, data=[74, 67]),
   midi.NoteOnEvent(tick=60, channel=0, data=[74, 0]),
   midi.NoteOnEvent(tick=0, channel=0, data=[75, 64]),
   midi.NoteOnEvent(tick=60, channel=0, data=[75, 0]),
   midi.NoteOnEvent(tick=0, channel=0, data=[72, 0]),
   midi.NoteOnEvent(tick=0, channel=0, data=[74, 72]),
   midi.NoteOnEvent(tick=0, channel=0, data=[77, 72]),
   midi.NoteOnEvent(tick=120, channel=0, data=[77, 0]),
   midi.NoteOnEvent(tick=0, channel=0, data=[74, 0]),
   midi.NoteOnEvent(tick=840, channel=0, data=[80, 76]),
   midi.NoteOnEvent(tick=720, channel=0, data=[80, 0]),
   midi.NoteOnEvent(tick=0, channel=0, data=[79, 67]),
   midi.NoteOnEvent(tick=60, channel=0, data=[79, 0]),
   midi.NoteOnEvent(tick=0, channel=0, data=[77, 63]),
   midi.NoteOnEvent(tick=60, channel=0, data=[77, 0]),
   midi.NoteOnEvent(tick=0, channel=0, data=[75, 67]),
   midi.NoteOnEvent(tick=60, channel=0, data=[75, 0]),
   midi.NoteOnEvent(tick=0, channel=0, data=[74, 64]),
   midi.NoteOnEvent(tick=60, channel=0, data=[74, 0]),
   midi.NoteOnEvent(tick=0, channel=0, data=[75, 72]),
   midi.NoteOnEvent(tick=240, channel=0, data=[75, 0]),
   midi.NoteOnEvent(tick=0, channel=0, data=[77, 74]),
   midi.NoteOnEvent(tick=120, channel=0, data=[77, 0]),
   midi.NoteOnEvent(tick=120, channel=0, data=[78, 80]),
   midi.NoteOnEvent(tick=720, channel=0, data=[78, 0]),
   midi.NoteOnEvent(tick=0, channel=0, data=[80, 72]),
   midi.NoteOnEvent(tick=120, channel=0, data=[80, 0]),
   midi.NoteOnEvent(tick=0, channel=0, data=[79, 69]),
   midi.NoteOnEvent(tick=120, channel=0, data=[79, 0]),
   midi.NoteOnEvent(tick=0, channel=0, data=[77, 70]),
   midi.NoteOnEvent(tick=120, channel=0, data=[77, 0]),
   midi.NoteOnEvent(tick=0, channel=0, data=[75, 67]),
   midi.NoteOnEvent(tick=120, channel=0, data=[75, 0]),
   midi.NoteOnEvent(tick=0, channel=0, data=[74, 67]),
   midi.NoteOnEvent(tick=120, channel=0, data=[74, 0]),
   midi.NoteOnEvent(tick=0, channel=0, data=[72, 64]),
   midi.NoteOnEvent(tick=120, channel=0, data=[72, 0]),
   midi.NoteOnEvent(tick=0, channel=0, data=[77, 75]),
   midi.NoteOnEvent(tick=80, channel=0, data=[77, 0]),
   midi.NoteOnEvent(tick=0, channel=0, data=[76, 71]),
   midi.NoteOnEvent(tick=80, channel=0, data=[76, 0]),
   midi.NoteOnEvent(tick=0, channel=0, data=[77, 73]),
   midi.NoteOnEvent(tick=80, channel=0, data=[77, 0]),
   midi.NoteOnEvent(tick=0, channel=0, data=[79, 75]),
   midi.NoteOnEvent(tick=80, channel=0, data=[79, 0]),
   midi.NoteOnEvent(tick=0, channel=0, data=[67, 67]),
   midi.NoteOnEvent(tick=80, channel=0, data=[67, 0]),
   midi.NoteOnEvent(tick=0, channel=0, data=[75, 69]),
   midi.NoteOnEvent(tick=80, channel=0, data=[75, 0]),
   midi.NoteOnEvent(tick=0, channel=0, data=[70, 75]),
   midi.NoteOnEvent(tick=480, channel=0, data=[70, 0]),
   midi.NoteOnEvent(tick=0, channel=0, data=[69, 62]),
   midi.NoteOnEvent(tick=0, channel=0, data=[74, 68]),
   midi.NoteOnEvent(tick=120, channel=0, data=[74, 0]),
   midi.NoteOnEvent(tick=0, channel=0, data=[72, 60]),
   midi.NoteOnEvent(tick=120, channel=0, data=[72, 0]),
   midi.NoteOnEvent(tick=0, channel=0, data=[70, 66]),
   midi.NoteOnEvent(tick=120, channel=0, data=[70, 0]),
   midi.NoteOnEvent(tick=0, channel=0, data=[72, 59]),
   midi.NoteOnEvent(tick=120, channel=0, data=[72, 0]),
   midi.NoteOnEvent(tick=0, channel=0, data=[69, 0]),
   midi.NoteOnEvent(tick=0, channel=0, data=[70, 60]),
   midi.NoteOnEvent(tick=480, channel=0, data=[70, 0]),
   midi.NoteOnEvent(tick=240, channel=0, data=[70, 75]),
   midi.NoteOnEvent(tick=0, channel=0, data=[77, 75]),
   midi.NoteOnEvent(tick=240, channel=0, data=[77, 0]),
   midi.NoteOnEvent(tick=0, channel=0, data=[70, 0]),
   midi.NoteOnEvent(tick=0, channel=0, data=[77, 59]),
   midi.NoteOnEvent(tick=0, channel=0, data=[72, 80]),
   midi.NoteOnEvent(tick=240, channel=0, data=[72, 0]),
   midi.NoteOnEvent(tick=0, channel=0, data=[77, 0]),
   midi.NoteOnEvent(tick=0, channel=0, data=[74, 76]),
   midi.NoteOnEvent(tick=0, channel=0, data=[77, 76]),
   midi.NoteOnEvent(tick=240, channel=0, data=[77, 0]),
   midi.NoteOnEvent(tick=0, channel=0, data=[74, 0]),
   midi.NoteOnEvent(tick=0, channel=0, data=[77, 80]),
   midi.NoteOnEvent(tick=0, channel=0, data=[75, 63]),
   midi.NoteOnEvent(tick=300, channel=0, data=[77, 0]),
   midi.NoteOnEvent(tick=0, channel=0, data=[79, 69]),
   midi.NoteOnEvent(tick=60, channel=0, data=[79, 0]),
   midi.NoteOnEvent(tick=0, channel=0, data=[77, 67]),
   midi.NoteOnEvent(tick=60, channel=0, data=[77, 0]),
   midi.NoteOnEvent(tick=0, channel=0, data=[76, 70]),
   midi.NoteOnEvent(tick=60, channel=0, data=[76, 0]),
   midi.NoteOnEvent(tick=0, channel=0, data=[77, 76]),
   midi.NoteOnEvent(tick=120, channel=0, data=[77, 0]),
   midi.NoteOnEvent(tick=120, channel=0, data=[75, 0]),
   midi.NoteOnEvent(tick=0, channel=0, data=[69, 75]),
   midi.NoteOnEvent(tick=0, channel=0, data=[77, 75]),
   midi.NoteOnEvent(tick=240, channel=0, data=[77, 0]),
   midi.NoteOnEvent(tick=0, channel=0, data=[69, 0]),
   midi.NoteOnEvent(tick=0, channel=0, data=[70, 76]),
   midi.NoteOnEvent(tick=0, channel=0, data=[79, 76]),
   midi.NoteOnEvent(tick=240, channel=0, data=[79, 0]),
   midi.NoteOnEvent(tick=0, channel=0, data=[70, 0]),
   midi.NoteOnEvent(tick=0, channel=0, data=[72, 75]),
   midi.NoteOnEvent(tick=0, channel=0, data=[81, 75]),
   midi.NoteOnEvent(tick=240, channel=0, data=[81, 0]),
   midi.NoteOnEvent(tick=0, channel=0, data=[72, 0]),
   midi.NoteOnEvent(tick=0, channel=0, data=[82, 86]),
   midi.NoteOnEvent(tick=0, channel=0, data=[70, 86]),
   midi.NoteOnEvent(tick=300, channel=0, data=[82, 0]),
   midi.NoteOnEvent(tick=0, channel=0, data=[84, 75]),
   midi.NoteOnEvent(tick=60, channel=0, data=[84, 0]),
   midi.NoteOnEvent(tick=0, channel=0, data=[86, 76]),
   midi.NoteOnEvent(tick=60, channel=0, data=[86, 0]),
   midi.NoteOnEvent(tick=0, channel=0, data=[82, 72]),
   midi.NoteOnEvent(tick=60, channel=0, data=[82, 0]),
   midi.NoteOnEvent(tick=0, channel=0, data=[77, 78]),
   midi.NoteOnEvent(tick=120, channel=0, data=[77, 0]),
   midi.NoteOnEvent(tick=120, channel=0, data=[70, 0]),
   midi.NoteOnEvent(tick=0, channel=0, data=[74, 54]),
   midi.NoteOnEvent(tick=0, channel=0, data=[77, 54]),
   midi.NoteOnEvent(tick=240, channel=0, data=[77, 0]),
   midi.NoteOnEvent(tick=0, channel=0, data=[74, 0]),
   midi.NoteOnEvent(tick=0, channel=0, data=[72, 54]),
   midi.NoteOnEvent(tick=0, channel=0, data=[75, 54]),
   midi.NoteOnEvent(tick=240, channel=0, data=[75, 0]),
   midi.NoteOnEvent(tick=0, channel=0, data=[72, 0]),
   midi.NoteOnEvent(tick=0, channel=0, data=[70, 54]),
   midi.NoteOnEvent(tick=0, channel=0, data=[74, 54]),
   midi.NoteOnEvent(tick=240, channel=0, data=[74, 0]),
   midi.NoteOnEvent(tick=0, channel=0, data=[70, 0]),
   midi.NoteOnEvent(tick=0, channel=0, data=[72, 57]),
   midi.NoteOnEvent(tick=300, channel=0, data=[72, 0]),
   midi.NoteOnEvent(tick=0, channel=0, data=[74, 52]),
   midi.NoteOnEvent(tick=60, channel=0, data=[74, 0]),
   midi.NoteOnEvent(tick=0, channel=0, data=[75, 54]),
   midi.NoteOnEvent(tick=60, channel=0, data=[75, 0]),
   midi.NoteOnEvent(tick=0, channel=0, data=[72, 52]),
   midi.NoteOnEvent(tick=60, channel=0, data=[72, 0]),
   midi.NoteOnEvent(tick=0, channel=0, data=[79, 59]),
   midi.NoteOnEvent(tick=120, channel=0, data=[79, 0]),
   midi.NoteOnEvent(tick=120, channel=0, data=[67, 49]),
   midi.NoteOnEvent(tick=0, channel=0, data=[75, 49]),
   midi.NoteOnEvent(tick=240, channel=0, data=[75, 0]),
   midi.NoteOnEvent(tick=0, channel=0, data=[67, 0]),
   midi.NoteOnEvent(tick=0, channel=0, data=[65, 52]),
   midi.NoteOnEvent(tick=0, channel=0, data=[70, 52]),
   midi.NoteOnEvent(tick=240, channel=0, data=[70, 0]),
   midi.NoteOnEvent(tick=0, channel=0, data=[65, 0]),
   midi.NoteOnEvent(tick=0, channel=0, data=[69, 49]),
   midi.NoteOnEvent(tick=0, channel=0, data=[72, 49]),
   midi.NoteOnEvent(tick=240, channel=0, data=[72, 0]),
   midi.NoteOnEvent(tick=0, channel=0, data=[69, 0]),
   midi.NoteOnEvent(tick=0, channel=0, data=[72, 54]),
   midi.NoteOnEvent(tick=0, channel=0, data=[69, 54]),
   midi.NoteOnEvent(tick=360, channel=0, data=[72, 0]),
   midi.NoteOnEvent(tick=0, channel=0, data=[73, 50]),
   midi.NoteOnEvent(tick=120, channel=0, data=[73, 0]),
   midi.NoteOnEvent(tick=0, channel=0, data=[69, 0]),
   midi.NoteOnEvent(tick=0, channel=0, data=[70, 45]),
   midi.NoteOnEvent(tick=0, channel=0, data=[74, 45]),
   midi.NoteOnEvent(tick=240, channel=0, data=[74, 0]),
   midi.NoteOnEvent(tick=0, channel=0, data=[70, 0]),
   midi.NoteOnEvent(tick=0, channel=0, data=[70, 74]),
   midi.NoteOnEvent(tick=0, channel=0, data=[77, 74]),
   midi.NoteOnEvent(tick=240, channel=0, data=[77, 0]),
   midi.NoteOnEvent(tick=0, channel=0, data=[70, 0]),
   midi.NoteOnEvent(tick=0, channel=0, data=[72, 80]),
   midi.NoteOnEvent(tick=0, channel=0, data=[77, 59]),
   midi.NoteOnEvent(tick=240, channel=0, data=[77, 0]),
   midi.NoteOnEvent(tick=0, channel=0, data=[72, 0]),
   midi.NoteOnEvent(tick=0, channel=0, data=[77, 75]),
   midi.NoteOnEvent(tick=0, channel=0, data=[74, 75]),
   midi.NoteOnEvent(tick=240, channel=0, data=[74, 0]),
   midi.NoteOnEvent(tick=0, channel=0, data=[77, 0]),
   midi.NoteOnEvent(tick=0, channel=0, data=[75, 83]),
   midi.NoteOnEvent(tick=0, channel=0, data=[77, 83]),
   midi.NoteOnEvent(tick=300, channel=0, data=[77, 0]),
   midi.NoteOnEvent(tick=0, channel=0, data=[79, 69]),
   midi.NoteOnEvent(tick=60, channel=0, data=[79, 0]),
   midi.NoteOnEvent(tick=0, channel=0, data=[77, 71]),
   midi.NoteOnEvent(tick=60, channel=0, data=[77, 0]),
   midi.NoteOnEvent(tick=0, channel=0, data=[76, 67]),
   midi.NoteOnEvent(tick=60, channel=0, data=[76, 0]),
   midi.NoteOnEvent(tick=0, channel=0, data=[77, 77]),
   midi.NoteOnEvent(tick=120, channel=0, data=[77, 0]),
   midi.NoteOnEvent(tick=120, channel=0, data=[75, 0]),
   midi.NoteOnEvent(tick=0, channel=0, data=[69, 76]),
   midi.NoteOnEvent(tick=0, channel=0, data=[77, 76]),
   midi.NoteOnEvent(tick=240, channel=0, data=[77, 0]),
   midi.NoteOnEvent(tick=0, channel=0, data=[69, 0]),
   midi.NoteOnEvent(tick=0, channel=0, data=[79, 81]),
   midi.NoteOnEvent(tick=0, channel=0, data=[70, 81]),
   midi.NoteOnEvent(tick=240, channel=0, data=[70, 0]),
   midi.NoteOnEvent(tick=0, channel=0, data=[79, 0]),
   midi.NoteOnEvent(tick=0, channel=0, data=[72, 76]),
   midi.NoteOnEvent(tick=0, channel=0, data=[81, 76]),
   midi.NoteOnEvent(tick=240, channel=0, data=[81, 0]),
   midi.NoteOnEvent(tick=0, channel=0, data=[72, 0]),
   midi.NoteOnEvent(tick=0, channel=0, data=[82, 86]),
   midi.NoteOnEvent(tick=0, channel=0, data=[70, 86]),
   midi.NoteOnEvent(tick=300, channel=0, data=[82, 0]),
   midi.NoteOnEvent(tick=0, channel=0, data=[84, 67]),
   midi.NoteOnEvent(tick=60, channel=0, data=[84, 0]),
   midi.NoteOnEvent(tick=0, channel=0, data=[86, 70]),
   midi.NoteOnEvent(tick=60, channel=0, data=[86, 0]),
   midi.NoteOnEvent(tick=0, channel=0, data=[82, 66]),
   midi.NoteOnEvent(tick=60, channel=0, data=[82, 0]),
   midi.NoteOnEvent(tick=0, channel=0, data=[77, 63]),
   midi.NoteOnEvent(tick=120, channel=0, data=[77, 0]),
   midi.NoteOnEvent(tick=120, channel=0, data=[70, 0]),
   midi.NoteOnEvent(tick=0, channel=0, data=[74, 54]),
   midi.NoteOnEvent(tick=0, channel=0, data=[77, 54]),
   midi.NoteOnEvent(tick=240, channel=0, data=[77, 0]),
   midi.NoteOnEvent(tick=0, channel=0, data=[74, 0]),
   midi.NoteOnEvent(tick=0, channel=0, data=[72, 54]),
   midi.NoteOnEvent(tick=0, channel=0, data=[75, 54]),
   midi.NoteOnEvent(tick=240, channel=0, data=[75, 0]),
   midi.NoteOnEvent(tick=0, channel=0, data=[72, 0]),
   midi.NoteOnEvent(tick=0, channel=0, data=[70, 54]),
   midi.NoteOnEvent(tick=0, channel=0, data=[74, 54]),
   midi.NoteOnEvent(tick=240, channel=0, data=[74, 0]),
   midi.NoteOnEvent(tick=0, channel=0, data=[70, 0]),
   midi.NoteOnEvent(tick=0, channel=0, data=[71, 45]),
   midi.NoteOnEvent(tick=60, channel=0, data=[71, 0]),
   midi.NoteOnEvent(tick=0, channel=0, data=[72, 45]),
   midi.NoteOnEvent(tick=60, channel=0, data=[72, 0]),
   midi.NoteOnEvent(tick=0, channel=0, data=[74, 46]),
   midi.NoteOnEvent(tick=60, channel=0, data=[74, 0]),
   midi.NoteOnEvent(tick=0, channel=0, data=[72, 45]),
   midi.NoteOnEvent(tick=60, channel=0, data=[72, 0]),
   midi.NoteOnEvent(tick=0, channel=0, data=[75, 50]),
   midi.NoteOnEvent(tick=60, channel=0, data=[75, 0]),
   midi.NoteOnEvent(tick=0, channel=0, data=[74, 47]),
   midi.NoteOnEvent(tick=60, channel=0, data=[74, 0]),
   midi.NoteOnEvent(tick=0, channel=0, data=[77, 52]),
   midi.NoteOnEvent(tick=60, channel=0, data=[77, 0]),
   midi.NoteOnEvent(tick=0, channel=0, data=[75, 50]),
   midi.NoteOnEvent(tick=60, channel=0, data=[75, 0]),
   midi.NoteOnEvent(tick=0, channel=0, data=[79, 60]),
   midi.NoteOnEvent(tick=480, channel=0, data=[79, 0]),
   midi.NoteOnEvent(tick=0, channel=0, data=[77, 54]),
   midi.NoteOnEvent(tick=240, channel=0, data=[77, 0]),
   midi.NoteOnEvent(tick=180, channel=0, data=[69, 50]),
   midi.NoteOnEvent(tick=60, channel=0, data=[69, 0]),
   midi.NoteOnEvent(tick=0, channel=0, data=[70, 51]),
   midi.NoteOnEvent(tick=480, channel=0, data=[70, 0]),
   midi.NoteOnEvent(tick=240, channel=0, data=[80, 66]),
   midi.NoteOnEvent(tick=240, channel=0, data=[80, 0]),
   midi.NoteOnEvent(tick=0, channel=0, data=[79, 70]),
   midi.NoteOnEvent(tick=240, channel=0, data=[79, 0]),
   midi.NoteOnEvent(tick=0, channel=0, data=[81, 73]),
   midi.NoteOnEvent(tick=240, channel=0, data=[81, 0]),
   midi.NoteOnEvent(tick=0, channel=0, data=[84, 76]),
   midi.NoteOnEvent(tick=240, channel=0, data=[84, 0]),
   midi.NoteOnEvent(tick=0, channel=0, data=[82, 71]),
   midi.NoteOnEvent(tick=240, channel=0, data=[82, 0]),
   midi.NoteOnEvent(tick=240, channel=0, data=[68, 69]),
   midi.NoteOnEvent(tick=240, channel=0, data=[68, 0]),
   midi.NoteOnEvent(tick=0, channel=0, data=[67, 69]),
   midi.NoteOnEvent(tick=240, channel=0, data=[67, 0]),
   midi.NoteOnEvent(tick=0, channel=0, data=[63, 63]),
   midi.NoteOnEvent(tick=0, channel=0, data=[69, 63]),
   midi.NoteOnEvent(tick=240, channel=0, data=[69, 0]),
   midi.NoteOnEvent(tick=0, channel=0, data=[63, 0]),
   midi.NoteOnEvent(tick=0, channel=0, data=[72, 54]),
   midi.NoteOnEvent(tick=0, channel=0, data=[63, 54]),
   midi.NoteOnEvent(tick=480, channel=0, data=[63, 0]),
   midi.NoteOnEvent(tick=0, channel=0, data=[72, 0]),
   midi.NoteOnEvent(tick=0, channel=0, data=[70, 42]),
   midi.NoteOnEvent(tick=0, channel=0, data=[62, 42]),
   midi.NoteOnEvent(tick=240, channel=0, data=[62, 0]),
   midi.NoteOnEvent(tick=0, channel=0, data=[70, 0]),
   midi.NoteOnEvent(tick=0, channel=0, data=[62, 47]),
   midi.NoteOnEvent(tick=0, channel=0, data=[65, 47]),
   midi.NoteOnEvent(tick=240, channel=0, data=[65, 0]),
   midi.NoteOnEvent(tick=0, channel=0, data=[62, 0]),
   midi.NoteOnEvent(tick=0, channel=0, data=[63, 52]),
   midi.NoteOnEvent(tick=0, channel=0, data=[67, 52]),
   midi.NoteOnEvent(tick=240, channel=0, data=[67, 0]),
   midi.NoteOnEvent(tick=0, channel=0, data=[63, 0]),
   midi.NoteOnEvent(tick=0, channel=0, data=[65, 55]),
   midi.NoteOnEvent(tick=0, channel=0, data=[68, 55]),
   midi.NoteOnEvent(tick=240, channel=0, data=[68, 0]),
   midi.NoteOnEvent(tick=0, channel=0, data=[65, 0]),
   midi.ControlChangeEvent(tick=0, channel=0, data=[91, 127]),
   midi.NoteOnEvent(tick=1, channel=0, data=[70, 59]),
   midi.NoteOnEvent(tick=0, channel=0, data=[67, 59]),
   midi.NoteOnEvent(tick=479, channel=0, data=[68, 55]),
   midi.NoteOnEvent(tick=0, channel=0, data=[65, 55]),
   midi.NoteOnEvent(tick=1, channel=0, data=[67, 0]),
   midi.NoteOnEvent(tick=0, channel=0, data=[70, 0]),
   midi.NoteOnEvent(tick=239, channel=0, data=[63, 53]),
   midi.NoteOnEvent(tick=0, channel=0, data=[67, 53]),
   midi.NoteOnEvent(tick=20, channel=0, data=[68, 0]),
   midi.NoteOnEvent(tick=0, channel=0, data=[65, 0]),
   midi.NoteOnEvent(tick=220, channel=0, data=[68, 54]),
   midi.NoteOnEvent(tick=0, channel=0, data=[72, 54]),
   midi.NoteOnEvent(tick=20, channel=0, data=[63, 0]),
   midi.NoteOnEvent(tick=0, channel=0, data=[67, 0]),
   midi.NoteOnEvent(tick=220, channel=0, data=[67, 52]),
   midi.NoteOnEvent(tick=0, channel=0, data=[70, 52]),
   midi.NoteOnEvent(tick=20, channel=0, data=[68, 0]),
   midi.NoteOnEvent(tick=0, channel=0, data=[72, 0]),
   midi.NoteOnEvent(tick=200, channel=0, data=[67, 0]),
   midi.NoteOnEvent(tick=0, channel=0, data=[70, 0]),
   midi.NoteOnEvent(tick=20, channel=0, data=[70, 59]),
   midi.NoteOnEvent(tick=0, channel=0, data=[67, 59]),
   midi.NoteOnEvent(tick=480, channel=0, data=[67, 0]),
   midi.NoteOnEvent(tick=0, channel=0, data=[70, 0]),
   midi.NoteOnEvent(tick=0, channel=0, data=[65, 53]),
   midi.NoteOnEvent(tick=0, channel=0, data=[68, 53]),
   midi.NoteOnEvent(tick=480, channel=0, data=[68, 0]),
   midi.NoteOnEvent(tick=0, channel=0, data=[65, 0]),
   midi.NoteOnEvent(tick=0, channel=0, data=[63, 51]),
   midi.NoteOnEvent(tick=0, channel=0, data=[67, 51]),
   midi.NoteOnEvent(tick=480, channel=0, data=[67, 0]),
   midi.NoteOnEvent(tick=0, channel=0, data=[63, 0]),
   midi.NoteOnEvent(tick=0, channel=0, data=[64, 65]),
   midi.NoteOnEvent(tick=480, channel=0, data=[64, 0]),
   midi.NoteOnEvent(tick=0, channel=0, data=[65, 55]),
   midi.NoteOnEvent(tick=240, channel=0, data=[65, 0]),
   midi.NoteOnEvent(tick=0, channel=0, data=[72, 55]),
   midi.NoteOnEvent(tick=240, channel=0, data=[72, 0]),
   midi.NoteOnEvent(tick=0, channel=0, data=[70, 53]),
   midi.NoteOnEvent(tick=120, channel=0, data=[70, 0]),
   midi.NoteOnEvent(tick=0, channel=0, data=[68, 51]),
   midi.NoteOnEvent(tick=120, channel=0, data=[68, 0]),
   midi.NoteOnEvent(tick=0, channel=0, data=[67, 53]),
   midi.NoteOnEvent(tick=120, channel=0, data=[67, 0]),
   midi.NoteOnEvent(tick=0, channel=0, data=[65, 52]),
   midi.NoteOnEvent(tick=120, channel=0, data=[65, 0]),
   midi.NoteOnEvent(tick=0, channel=0, data=[55, 59]),
   midi.NoteOnEvent(tick=0, channel=0, data=[63, 59]),
   midi.NoteOnEvent(tick=480, channel=0, data=[63, 0]),
   midi.NoteOnEvent(tick=0, channel=0, data=[55, 0]),
   midi.NoteOnEvent(tick=0, channel=0, data=[53, 53]),
   midi.NoteOnEvent(tick=0, channel=0, data=[62, 53]),
   midi.NoteOnEvent(tick=120, channel=0, data=[62, 0]),
   midi.NoteOnEvent(tick=0, channel=0, data=[53, 0]),
   midi.NoteOnEvent(tick=60, channel=0, data=[58, 47]),
   midi.NoteOnEvent(tick=60, channel=0, data=[58, 0]),
   midi.NoteOnEvent(tick=0, channel=0, data=[62, 51]),
   midi.NoteOnEvent(tick=60, channel=0, data=[62, 0]),
   midi.NoteOnEvent(tick=0, channel=0, data=[60, 49]),
   midi.NoteOnEvent(tick=60, channel=0, data=[60, 0]),
   midi.NoteOnEvent(tick=0, channel=0, data=[63, 52]),
   midi.NoteOnEvent(tick=60, channel=0, data=[63, 0]),
   midi.NoteOnEvent(tick=0, channel=0, data=[62, 51]),
   midi.NoteOnEvent(tick=60, channel=0, data=[62, 0]),
   midi.NoteOnEvent(tick=0, channel=0, data=[65, 53]),
   midi.NoteOnEvent(tick=60, channel=0, data=[65, 0]),
   midi.NoteOnEvent(tick=0, channel=0, data=[63, 51]),
   midi.NoteOnEvent(tick=60, channel=0, data=[63, 0]),
   midi.NoteOnEvent(tick=0, channel=0, data=[67, 54]),
   midi.NoteOnEvent(tick=60, channel=0, data=[67, 0]),
   midi.NoteOnEvent(tick=0, channel=0, data=[65, 54]),
   midi.NoteOnEvent(tick=60, channel=0, data=[65, 0]),
   midi.NoteOnEvent(tick=0, channel=0, data=[68, 57]),
   midi.NoteOnEvent(tick=60, channel=0, data=[68, 0]),
   midi.NoteOnEvent(tick=0, channel=0, data=[67, 54]),
   midi.NoteOnEvent(tick=60, channel=0, data=[67, 0]),
   midi.NoteOnEvent(tick=0, channel=0, data=[70, 59]),
   midi.NoteOnEvent(tick=60, channel=0, data=[70, 0]),
   midi.NoteOnEvent(tick=0, channel=0, data=[68, 56]),
   midi.NoteOnEvent(tick=60, channel=0, data=[68, 0]),
   midi.NoteOnEvent(tick=0, channel=0, data=[72, 60]),
   midi.NoteOnEvent(tick=60, channel=0, data=[72, 0]),
   midi.NoteOnEvent(tick=0, channel=0, data=[67, 61]),
   midi.NoteOnEvent(tick=0, channel=0, data=[70, 61]),
   midi.NoteOnEvent(tick=300, channel=0, data=[70, 0]),
   midi.NoteOnEvent(tick=0, channel=0, data=[72, 53]),
   midi.NoteOnEvent(tick=60, channel=0, data=[72, 0]),
   midi.NoteOnEvent(tick=0, channel=0, data=[70, 50]),
   midi.NoteOnEvent(tick=60, channel=0, data=[70, 0]),
   midi.NoteOnEvent(tick=0, channel=0, data=[67, 0]),
   midi.NoteOnEvent(tick=0, channel=0, data=[68, 53]),
   midi.NoteOnEvent(tick=120, channel=0, data=[68, 0]),
   midi.NoteOnEvent(tick=0, channel=0, data=[67, 51]),
   midi.NoteOnEvent(tick=120, channel=0, data=[67, 0]),
   midi.NoteOnEvent(tick=0, channel=0, data=[65, 53]),
   midi.NoteOnEvent(tick=120, channel=0, data=[65, 0]),
   midi.NoteOnEvent(tick=0, channel=0, data=[63, 52]),
   midi.NoteOnEvent(tick=120, channel=0, data=[63, 0]),
   midi.NoteOnEvent(tick=0, channel=0, data=[79, 62]),
   midi.NoteOnEvent(tick=120, channel=0, data=[79, 0]),
   midi.NoteOnEvent(tick=0, channel=0, data=[74, 54]),
   midi.NoteOnEvent(tick=120, channel=0, data=[74, 0]),
   midi.NoteOnEvent(tick=0, channel=0, data=[75, 58]),
   midi.NoteOnEvent(tick=120, channel=0, data=[75, 0]),
   midi.NoteOnEvent(tick=0, channel=0, data=[72, 52]),
   midi.NoteOnEvent(tick=120, channel=0, data=[72, 0]),
   midi.NoteOnEvent(tick=0, channel=0, data=[70, 56]),
   midi.NoteOnEvent(tick=480, channel=0, data=[70, 0]),
   midi.NoteOnEvent(tick=0, channel=0, data=[68, 50]),
   midi.NoteOnEvent(tick=52, channel=0, data=[68, 0]),
   midi.NoteOnEvent(tick=0, channel=0, data=[70, 48]),
   midi.NoteOnEvent(tick=51, channel=0, data=[70, 0]),
   midi.NoteOnEvent(tick=0, channel=0, data=[68, 50]),
   midi.NoteOnEvent(tick=52, channel=0, data=[68, 0]),
   midi.NoteOnEvent(tick=0, channel=0, data=[70, 48]),
   midi.NoteOnEvent(tick=52, channel=0, data=[70, 0]),
   midi.NoteOnEvent(tick=0, channel=0, data=[68, 50]),
   midi.NoteOnEvent(tick=51, channel=0, data=[68, 0]),
   midi.NoteOnEvent(tick=0, channel=0, data=[70, 49]),
   midi.NoteOnEvent(tick=52, channel=0, data=[70, 0]),
   midi.NoteOnEvent(tick=0, channel=0, data=[68, 49]),
   midi.NoteOnEvent(tick=50, channel=0, data=[67, 57]),
   midi.NoteOnEvent(tick=1, channel=0, data=[68, 0]),
   midi.NoteOnEvent(tick=59, channel=0, data=[67, 0]),
   midi.NoteOnEvent(tick=0, channel=0, data=[68, 55]),
   midi.NoteOnEvent(tick=60, channel=0, data=[68, 0]),
   midi.NoteOnEvent(tick=0, channel=0, data=[67, 60]),
   midi.NoteOnEvent(tick=60, channel=0, data=[67, 0]),
   midi.NoteOnEvent(tick=60, channel=0, data=[75, 65]),
   midi.NoteOnEvent(tick=120, channel=0, data=[75, 0]),
   midi.NoteOnEvent(tick=0, channel=0, data=[74, 62]),
   midi.NoteOnEvent(tick=120, channel=0, data=[74, 0]),
   midi.NoteOnEvent(tick=0, channel=0, data=[73, 59]),
   midi.NoteOnEvent(tick=120, channel=0, data=[73, 0]),
   midi.NoteOnEvent(tick=0, channel=0, data=[71, 57]),
   midi.NoteOnEvent(tick=90, channel=0, data=[74, 53]),
   midi.NoteOnEvent(tick=30, channel=0, data=[74, 0]),
   midi.NoteOnEvent(tick=0, channel=0, data=[71, 0]),
   midi.NoteOnEvent(tick=0, channel=0, data=[72, 61]),
   midi.NoteOnEvent(tick=90, channel=0, data=[70, 53]),
   midi.NoteOnEvent(tick=30, channel=0, data=[70, 0]),
   midi.NoteOnEvent(tick=0, channel=0, data=[72, 0]),
   midi.NoteOnEvent(tick=0, channel=0, data=[68, 57]),
   midi.NoteOnEvent(tick=90, channel=0, data=[67, 47]),
   midi.NoteOnEvent(tick=30, channel=0, data=[67, 0]),
   midi.NoteOnEvent(tick=0, channel=0, data=[68, 0]),
   midi.NoteOnEvent(tick=0, channel=0, data=[65, 55]),
   midi.NoteOnEvent(tick=120, channel=0, data=[65, 0]),
   midi.NoteOnEvent(tick=0, channel=0, data=[63, 51]),
   midi.NoteOnEvent(tick=720, channel=0, data=[63, 0]),
   midi.NoteOnEvent(tick=0, channel=0, data=[67, 50]),
   midi.NoteOnEvent(tick=0, channel=0, data=[62, 50]),
   midi.NoteOnEvent(tick=120, channel=0, data=[67, 0]),
   midi.NoteOnEvent(tick=0, channel=0, data=[65, 47]),
   midi.NoteOnEvent(tick=120, channel=0, data=[65, 0]),
   midi.NoteOnEvent(tick=0, channel=0, data=[62, 0]),
   midi.NoteOnEvent(tick=0, channel=0, data=[63, 46]),
   midi.NoteOnEvent(tick=480, channel=0, data=[63, 0]),
   midi.NoteOnEvent(tick=240, channel=0, data=[67, 49]),
   midi.NoteOnEvent(tick=0, channel=0, data=[70, 49]),
   midi.NoteOnEvent(tick=240, channel=0, data=[70, 0]),
   midi.NoteOnEvent(tick=0, channel=0, data=[67, 0]),
   midi.NoteOnEvent(tick=0, channel=0, data=[67, 52]),
   midi.NoteOnEvent(tick=0, channel=0, data=[70, 52]),
   midi.NoteOnEvent(tick=240, channel=0, data=[70, 0]),
   midi.NoteOnEvent(tick=0, channel=0, data=[67, 0]),
   midi.NoteOnEvent(tick=0, channel=0, data=[67, 46]),
   midi.NoteOnEvent(tick=0, channel=0, data=[70, 46]),
   midi.NoteOnEvent(tick=240, channel=0, data=[70, 0]),
   midi.NoteOnEvent(tick=0, channel=0, data=[67, 0]),
   midi.NoteOnEvent(tick=0, channel=0, data=[68, 57]),
   midi.NoteOnEvent(tick=0, channel=0, data=[75, 57]),
   midi.NoteOnEvent(tick=240, channel=0, data=[75, 0]),
   midi.NoteOnEvent(tick=0, channel=0, data=[74, 50]),
   midi.NoteOnEvent(tick=480, channel=0, data=[74, 0]),
   midi.NoteOnEvent(tick=0, channel=0, data=[68, 0]),
   midi.NoteOnEvent(tick=0, channel=0, data=[82, 54]),
   midi.NoteOnEvent(tick=120, channel=0, data=[80, 51]),
   midi.NoteOnEvent(tick=24, channel=0, data=[82, 0]),
   midi.NoteOnEvent(tick=96, channel=0, data=[80, 0]),
   midi.NoteOnEvent(tick=0, channel=0, data=[79, 54]),
   midi.NoteOnEvent(tick=120, channel=0, data=[77, 52]),
   midi.NoteOnEvent(tick=24, channel=0, data=[79, 0]),
   midi.NoteOnEvent(tick=96, channel=0, data=[75, 52]),
   midi.NoteOnEvent(tick=24, channel=0, data=[77, 0]),
   midi.NoteOnEvent(tick=96, channel=0, data=[74, 49]),
   midi.NoteOnEvent(tick=24, channel=0, data=[75, 0]),
   midi.NoteOnEvent(tick=96, channel=0, data=[74, 0]),
   midi.NoteOnEvent(tick=0, channel=0, data=[77, 54]),
   midi.NoteOnEvent(tick=40, channel=0, data=[77, 0]),
   midi.NoteOnEvent(tick=0, channel=0, data=[75, 52]),
   midi.NoteOnEvent(tick=320, channel=0, data=[75, 0]),
   midi.NoteOnEvent(tick=0, channel=0, data=[74, 45]),
   midi.NoteOnEvent(tick=60, channel=0, data=[74, 0]),
   midi.NoteOnEvent(tick=0, channel=0, data=[72, 44]),
   midi.NoteOnEvent(tick=60, channel=0, data=[72, 0]),
   midi.NoteOnEvent(tick=0, channel=0, data=[70, 45]),
   midi.NoteOnEvent(tick=240, channel=0, data=[70, 0]),
   midi.NoteOnEvent(tick=0, channel=0, data=[67, 45]),
   midi.NoteOnEvent(tick=0, channel=0, data=[70, 45]),
   midi.NoteOnEvent(tick=240, channel=0, data=[70, 0]),
   midi.NoteOnEvent(tick=0, channel=0, data=[67, 0]),
   midi.NoteOnEvent(tick=0, channel=0, data=[67, 50]),
   midi.NoteOnEvent(tick=0, channel=0, data=[70, 50]),
   midi.NoteOnEvent(tick=240, channel=0, data=[70, 0]),
   midi.NoteOnEvent(tick=0, channel=0, data=[67, 0]),
   midi.NoteOnEvent(tick=0, channel=0, data=[70, 45]),
   midi.NoteOnEvent(tick=0, channel=0, data=[67, 45]),
   midi.NoteOnEvent(tick=240, channel=0, data=[67, 0]),
   midi.NoteOnEvent(tick=0, channel=0, data=[70, 0]),
   midi.NoteOnEvent(tick=0, channel=0, data=[68, 56]),
   midi.NoteOnEvent(tick=0, channel=0, data=[75, 56]),
   midi.NoteOnEvent(tick=240, channel=0, data=[75, 0]),
   midi.NoteOnEvent(tick=0, channel=0, data=[74, 46]),
   midi.NoteOnEvent(tick=480, channel=0, data=[74, 0]),
   midi.NoteOnEvent(tick=0, channel=0, data=[68, 0]),
   midi.NoteOnEvent(tick=0, channel=0, data=[82, 53]),
   midi.NoteOnEvent(tick=120, channel=0, data=[80, 50]),
   midi.NoteOnEvent(tick=24, channel=0, data=[82, 0]),
   midi.NoteOnEvent(tick=96, channel=0, data=[80, 0]),
   midi.NoteOnEvent(tick=0, channel=0, data=[79, 53]),
   midi.NoteOnEvent(tick=120, channel=0, data=[77, 50]),
   midi.NoteOnEvent(tick=24, channel=0, data=[79, 0]),
   midi.NoteOnEvent(tick=96, channel=0, data=[75, 52]),
   midi.NoteOnEvent(tick=24, channel=0, data=[77, 0]),
   midi.NoteOnEvent(tick=96, channel=0, data=[74, 50]),
   midi.NoteOnEvent(tick=24, channel=0, data=[75, 0]),
   midi.NoteOnEvent(tick=96, channel=0, data=[74, 0]),
   midi.NoteOnEvent(tick=0, channel=0, data=[75, 53]),
   midi.NoteOnEvent(tick=120, channel=0, data=[75, 0]),
   midi.NoteOnEvent(tick=0, channel=0, data=[77, 43]),
   midi.NoteOnEvent(tick=40, channel=0, data=[77, 0]),
   midi.NoteOnEvent(tick=0, channel=0, data=[75, 43]),
   midi.NoteOnEvent(tick=40, channel=0, data=[75, 0]),
   midi.NoteOnEvent(tick=0, channel=0, data=[74, 43]),
   midi.NoteOnEvent(tick=40, channel=0, data=[74, 0]),
   midi.NoteOnEvent(tick=0, channel=0, data=[75, 43]),
   midi.NoteOnEvent(tick=60, channel=0, data=[75, 0]),
   midi.NoteOnEvent(tick=0, channel=0, data=[77, 44]),
   midi.NoteOnEvent(tick=60, channel=0, data=[77, 0]),
   midi.NoteOnEvent(tick=0, channel=0, data=[79, 45]),
   midi.NoteOnEvent(tick=60, channel=0, data=[79, 0]),
   midi.NoteOnEvent(tick=0, channel=0, data=[75, 44]),
   midi.NoteOnEvent(tick=60, channel=0, data=[75, 0]),
   midi.NoteOnEvent(tick=0, channel=0, data=[70, 43]),
   midi.NoteOnEvent(tick=120, channel=0, data=[70, 0]),
   midi.NoteOnEvent(tick=120, channel=0, data=[70, 48]),
   midi.NoteOnEvent(tick=0, channel=0, data=[67, 48]),
   midi.NoteOnEvent(tick=240, channel=0, data=[67, 0]),
   midi.NoteOnEvent(tick=0, channel=0, data=[70, 0]),
   midi.NoteOnEvent(tick=0, channel=0, data=[65, 45]),
   midi.NoteOnEvent(tick=0, channel=0, data=[68, 45]),
   midi.NoteOnEvent(tick=240, channel=0, data=[68, 0]),
   midi.NoteOnEvent(tick=0, channel=0, data=[65, 0]),
   midi.NoteOnEvent(tick=0, channel=0, data=[63, 49]),
   midi.NoteOnEvent(tick=0, channel=0, data=[67, 49]),
   midi.NoteOnEvent(tick=240, channel=0, data=[67, 0]),
   midi.NoteOnEvent(tick=0, channel=0, data=[63, 0]),
   midi.NoteOnEvent(tick=0, channel=0, data=[63, 53]),
   midi.NoteOnEvent(tick=0, channel=0, data=[70, 53]),
   midi.NoteOnEvent(tick=360, channel=0, data=[70, 0]),
   midi.NoteOnEvent(tick=0, channel=0, data=[67, 39]),
   midi.NoteOnEvent(tick=120, channel=0, data=[67, 0]),
   midi.NoteOnEvent(tick=0, channel=0, data=[63, 0]),
   midi.NoteOnEvent(tick=0, channel=0, data=[62, 35]),
   midi.NoteOnEvent(tick=0, channel=0, data=[65, 35]),
   midi.NoteOnEvent(tick=480, channel=0, data=[65, 0]),
   midi.NoteOnEvent(tick=0, channel=0, data=[62, 0]),
   midi.NoteOnEvent(tick=420, channel=0, data=[65, 67]),
   midi.NoteOnEvent(tick=60, channel=0, data=[65, 0]),
   midi.NoteOnEvent(tick=0, channel=0, data=[77, 72]),
   midi.NoteOnEvent(tick=720, channel=0, data=[77, 0]),
   midi.NoteOnEvent(tick=0, channel=0, data=[75, 70]),
   midi.NoteOnEvent(tick=60, channel=0, data=[75, 0]),
   midi.NoteOnEvent(tick=0, channel=0, data=[74, 62]),
   midi.NoteOnEvent(tick=60, channel=0, data=[74, 0]),
   midi.NoteOnEvent(tick=0, channel=0, data=[72, 65]),
   midi.NoteOnEvent(tick=60, channel=0, data=[72, 0]),
   midi.NoteOnEvent(tick=0, channel=0, data=[70, 63]),
   midi.NoteOnEvent(tick=60, channel=0, data=[70, 0]),
   midi.NoteOnEvent(tick=0, channel=0, data=[69, 71]),
   midi.NoteOnEvent(tick=240, channel=0, data=[69, 0]),
   midi.NoteOnEvent(tick=0, channel=0, data=[70, 70]),
   midi.NoteOnEvent(tick=240, channel=0, data=[70, 0]),
   midi.NoteOnEvent(tick=0, channel=0, data=[72, 67]),
   midi.NoteOnEvent(tick=0, channel=0, data=[69, 67]),
   midi.NoteOnEvent(tick=240, channel=0, data=[69, 0]),
   midi.NoteOnEvent(tick=0, channel=0, data=[72, 0]),
   midi.NoteOnEvent(tick=0, channel=0, data=[75, 65]),
   midi.NoteOnEvent(tick=0, channel=0, data=[70, 65]),
   midi.NoteOnEvent(tick=60, channel=0, data=[75, 0]),
   midi.NoteOnEvent(tick=0, channel=0, data=[74, 62]),
   midi.NoteOnEvent(tick=60, channel=0, data=[74, 0]),
   midi.NoteOnEvent(tick=0, channel=0, data=[72, 65]),
   midi.NoteOnEvent(tick=60, channel=0, data=[72, 0]),
   midi.NoteOnEvent(tick=0, channel=0, data=[74, 61]),
   midi.NoteOnEvent(tick=60, channel=0, data=[74, 0]),
   midi.NoteOnEvent(tick=0, channel=0, data=[70, 0]),
   midi.NoteOnEvent(tick=0, channel=0, data=[72, 65]),
   midi.NoteOnEvent(tick=0, channel=0, data=[75, 65]),
   midi.NoteOnEvent(tick=240, channel=0, data=[75, 0]),
   midi.NoteOnEvent(tick=0, channel=0, data=[72, 0]),
   midi.NoteOnEvent(tick=0, channel=0, data=[65, 49]),
   midi.NoteOnEvent(tick=240, channel=0, data=[65, 0]),
   midi.NoteOnEvent(tick=0, channel=0, data=[65, 53]),
   midi.NoteOnEvent(tick=240, channel=0, data=[65, 0]),
   midi.NoteOnEvent(tick=0, channel=0, data=[65, 50]),
   midi.NoteOnEvent(tick=240, channel=0, data=[65, 0]),
   midi.NoteOnEvent(tick=0, channel=0, data=[75, 72]),
   midi.NoteOnEvent(tick=720, channel=0, data=[75, 0]),
   midi.NoteOnEvent(tick=0, channel=0, data=[77, 69]),
   midi.NoteOnEvent(tick=60, channel=0, data=[77, 0]),
   midi.NoteOnEvent(tick=0, channel=0, data=[75, 63]),
   midi.NoteOnEvent(tick=60, channel=0, data=[75, 0]),
   midi.NoteOnEvent(tick=0, channel=0, data=[74, 69]),
   midi.NoteOnEvent(tick=60, channel=0, data=[74, 0]),
   midi.NoteOnEvent(tick=0, channel=0, data=[72, 63]),
   midi.NoteOnEvent(tick=60, channel=0, data=[72, 0]),
   midi.NoteOnEvent(tick=0, channel=0, data=[70, 73]),
   midi.NoteOnEvent(tick=240, channel=0, data=[70, 0]),
   midi.NoteOnEvent(tick=0, channel=0, data=[69, 70]),
   midi.NoteOnEvent(tick=0, channel=0, data=[72, 70]),
   midi.NoteOnEvent(tick=240, channel=0, data=[72, 0]),
   midi.NoteOnEvent(tick=0, channel=0, data=[69, 0]),
   midi.NoteOnEvent(tick=0, channel=0, data=[74, 71]),
   midi.NoteOnEvent(tick=0, channel=0, data=[70, 71]),
   midi.NoteOnEvent(tick=240, channel=0, data=[70, 0]),
   midi.NoteOnEvent(tick=0, channel=0, data=[74, 0]),
   midi.NoteOnEvent(tick=0, channel=0, data=[77, 67]),
   midi.NoteOnEvent(tick=0, channel=0, data=[72, 67]),
   midi.NoteOnEvent(tick=60, channel=0, data=[77, 0]),
   midi.NoteOnEvent(tick=0, channel=0, data=[75, 67]),
   midi.NoteOnEvent(tick=60, channel=0, data=[75, 0]),
   midi.NoteOnEvent(tick=0, channel=0, data=[74, 67]),
   midi.NoteOnEvent(tick=60, channel=0, data=[74, 0]),
   midi.NoteOnEvent(tick=0, channel=0, data=[75, 64]),
   midi.NoteOnEvent(tick=60, channel=0, data=[75, 0]),
   midi.NoteOnEvent(tick=0, channel=0, data=[72, 0]),
   midi.NoteOnEvent(tick=0, channel=0, data=[74, 72]),
   midi.NoteOnEvent(tick=0, channel=0, data=[77, 72]),
   midi.NoteOnEvent(tick=120, channel=0, data=[77, 0]),
   midi.NoteOnEvent(tick=0, channel=0, data=[74, 0]),
   midi.NoteOnEvent(tick=840, channel=0, data=[80, 76]),
   midi.NoteOnEvent(tick=720, channel=0, data=[80, 0]),
   midi.NoteOnEvent(tick=0, channel=0, data=[79, 67]),
   midi.NoteOnEvent(tick=60, channel=0, data=[79, 0]),
   midi.NoteOnEvent(tick=0, channel=0, data=[77, 63]),
   midi.NoteOnEvent(tick=60, channel=0, data=[77, 0]),
   midi.NoteOnEvent(tick=0, channel=0, data=[75, 67]),
   midi.NoteOnEvent(tick=60, channel=0, data=[75, 0]),
   midi.NoteOnEvent(tick=0, channel=0, data=[74, 64]),
   midi.NoteOnEvent(tick=60, channel=0, data=[74, 0]),
   midi.NoteOnEvent(tick=0, channel=0, data=[75, 72]),
   midi.NoteOnEvent(tick=240, channel=0, data=[75, 0]),
   midi.NoteOnEvent(tick=0, channel=0, data=[77, 74]),
   midi.NoteOnEvent(tick=120, channel=0, data=[77, 0]),
   midi.NoteOnEvent(tick=120, channel=0, data=[78, 80]),
   midi.NoteOnEvent(tick=720, channel=0, data=[78, 0]),
   midi.NoteOnEvent(tick=0, channel=0, data=[80, 72]),
   midi.NoteOnEvent(tick=120, channel=0, data=[80, 0]),
   midi.NoteOnEvent(tick=0, channel=0, data=[79, 69]),
   midi.NoteOnEvent(tick=120, channel=0, data=[79, 0]),
   midi.NoteOnEvent(tick=0, channel=0, data=[77, 70]),
   midi.NoteOnEvent(tick=120, channel=0, data=[77, 0]),
   midi.NoteOnEvent(tick=0, channel=0, data=[75, 67]),
   midi.NoteOnEvent(tick=120, channel=0, data=[75, 0]),
   midi.NoteOnEvent(tick=0, channel=0, data=[74, 67]),
   midi.NoteOnEvent(tick=120, channel=0, data=[74, 0]),
   midi.NoteOnEvent(tick=0, channel=0, data=[72, 64]),
   midi.NoteOnEvent(tick=120, channel=0, data=[72, 0]),
   midi.NoteOnEvent(tick=0, channel=0, data=[77, 75]),
   midi.NoteOnEvent(tick=80, channel=0, data=[77, 0]),
   midi.NoteOnEvent(tick=0, channel=0, data=[76, 71]),
   midi.NoteOnEvent(tick=80, channel=0, data=[76, 0]),
   midi.NoteOnEvent(tick=0, channel=0, data=[77, 73]),
   midi.NoteOnEvent(tick=80, channel=0, data=[77, 0]),
   midi.NoteOnEvent(tick=0, channel=0, data=[79, 75]),
   midi.NoteOnEvent(tick=80, channel=0, data=[79, 0]),
   midi.NoteOnEvent(tick=0, channel=0, data=[67, 67]),
   midi.NoteOnEvent(tick=80, channel=0, data=[67, 0]),
   midi.NoteOnEvent(tick=0, channel=0, data=[75, 69]),
   midi.NoteOnEvent(tick=80, channel=0, data=[75, 0]),
   midi.NoteOnEvent(tick=0, channel=0, data=[70, 75]),
   midi.NoteOnEvent(tick=480, channel=0, data=[70, 0]),
   midi.NoteOnEvent(tick=0, channel=0, data=[69, 62]),
   midi.NoteOnEvent(tick=0, channel=0, data=[74, 68]),
   midi.NoteOnEvent(tick=120, channel=0, data=[74, 0]),
   midi.NoteOnEvent(tick=0, channel=0, data=[72, 60]),
   midi.NoteOnEvent(tick=120, channel=0, data=[72, 0]),
   midi.NoteOnEvent(tick=0, channel=0, data=[70, 66]),
   midi.NoteOnEvent(tick=120, channel=0, data=[70, 0]),
   midi.NoteOnEvent(tick=0, channel=0, data=[72, 59]),
   midi.NoteOnEvent(tick=120, channel=0, data=[72, 0]),
   midi.NoteOnEvent(tick=0, channel=0, data=[69, 0]),
   midi.NoteOnEvent(tick=0, channel=0, data=[70, 60]),
   midi.NoteOnEvent(tick=480, channel=0, data=[70, 0]),
   midi.NoteOnEvent(tick=240, channel=0, data=[70, 75]),
   midi.NoteOnEvent(tick=0, channel=0, data=[77, 75]),
   midi.NoteOnEvent(tick=240, channel=0, data=[77, 0]),
   midi.NoteOnEvent(tick=0, channel=0, data=[70, 0]),
   midi.NoteOnEvent(tick=0, channel=0, data=[77, 59]),
   midi.NoteOnEvent(tick=0, channel=0, data=[72, 80]),
   midi.NoteOnEvent(tick=240, channel=0, data=[72, 0]),
   midi.NoteOnEvent(tick=0, channel=0, data=[77, 0]),
   midi.NoteOnEvent(tick=0, channel=0, data=[74, 76]),
   midi.NoteOnEvent(tick=0, channel=0, data=[77, 76]),
   midi.NoteOnEvent(tick=240, channel=0, data=[77, 0]),
   midi.NoteOnEvent(tick=0, channel=0, data=[74, 0]),
   midi.NoteOnEvent(tick=0, channel=0, data=[77, 80]),
   midi.NoteOnEvent(tick=0, channel=0, data=[75, 63]),
   midi.NoteOnEvent(tick=300, channel=0, data=[77, 0]),
   midi.NoteOnEvent(tick=0, channel=0, data=[79, 69]),
   midi.NoteOnEvent(tick=60, channel=0, data=[79, 0]),
   midi.NoteOnEvent(tick=0, channel=0, data=[77, 67]),
   midi.NoteOnEvent(tick=60, channel=0, data=[77, 0]),
   midi.NoteOnEvent(tick=0, channel=0, data=[76, 70]),
   midi.NoteOnEvent(tick=60, channel=0, data=[76, 0]),
   midi.NoteOnEvent(tick=0, channel=0, data=[77, 76]),
   midi.NoteOnEvent(tick=120, channel=0, data=[77, 0]),
   midi.NoteOnEvent(tick=120, channel=0, data=[75, 0]),
   midi.NoteOnEvent(tick=0, channel=0, data=[69, 75]),
   midi.NoteOnEvent(tick=0, channel=0, data=[77, 75]),
   midi.NoteOnEvent(tick=240, channel=0, data=[77, 0]),
   midi.NoteOnEvent(tick=0, channel=0, data=[69, 0]),
   midi.NoteOnEvent(tick=0, channel=0, data=[70, 76]),
   midi.NoteOnEvent(tick=0, channel=0, data=[79, 76]),
   midi.NoteOnEvent(tick=240, channel=0, data=[79, 0]),
   midi.NoteOnEvent(tick=0, channel=0, data=[70, 0]),
   midi.NoteOnEvent(tick=0, channel=0, data=[72, 75]),
   midi.NoteOnEvent(tick=0, channel=0, data=[81, 75]),
   midi.NoteOnEvent(tick=240, channel=0, data=[81, 0]),
   midi.NoteOnEvent(tick=0, channel=0, data=[72, 0]),
   midi.NoteOnEvent(tick=0, channel=0, data=[82, 86]),
   midi.NoteOnEvent(tick=0, channel=0, data=[70, 86]),
   midi.NoteOnEvent(tick=300, channel=0, data=[82, 0]),
   midi.NoteOnEvent(tick=0, channel=0, data=[84, 75]),
   midi.NoteOnEvent(tick=60, channel=0, data=[84, 0]),
   midi.NoteOnEvent(tick=0, channel=0, data=[86, 76]),
   midi.NoteOnEvent(tick=60, channel=0, data=[86, 0]),
   midi.NoteOnEvent(tick=0, channel=0, data=[82, 72]),
   midi.NoteOnEvent(tick=60, channel=0, data=[82, 0]),
   midi.NoteOnEvent(tick=0, channel=0, data=[77, 78]),
   midi.NoteOnEvent(tick=120, channel=0, data=[77, 0]),
   midi.NoteOnEvent(tick=120, channel=0, data=[70, 0]),
   midi.NoteOnEvent(tick=0, channel=0, data=[74, 54]),
   midi.NoteOnEvent(tick=0, channel=0, data=[77, 54]),
   midi.NoteOnEvent(tick=240, channel=0, data=[77, 0]),
   midi.NoteOnEvent(tick=0, channel=0, data=[74, 0]),
   midi.NoteOnEvent(tick=0, channel=0, data=[72, 54]),
   midi.NoteOnEvent(tick=0, channel=0, data=[75, 54]),
   midi.NoteOnEvent(tick=240, channel=0, data=[75, 0]),
   midi.NoteOnEvent(tick=0, channel=0, data=[72, 0]),
   midi.NoteOnEvent(tick=0, channel=0, data=[70, 54]),
   midi.NoteOnEvent(tick=0, channel=0, data=[74, 54]),
   midi.NoteOnEvent(tick=240, channel=0, data=[74, 0]),
   midi.NoteOnEvent(tick=0, channel=0, data=[70, 0]),
   midi.NoteOnEvent(tick=0, channel=0, data=[72, 57]),
   midi.NoteOnEvent(tick=300, channel=0, data=[72, 0]),
   midi.NoteOnEvent(tick=0, channel=0, data=[74, 52]),
   midi.NoteOnEvent(tick=60, channel=0, data=[74, 0]),
   midi.NoteOnEvent(tick=0, channel=0, data=[75, 54]),
   midi.NoteOnEvent(tick=60, channel=0, data=[75, 0]),
   midi.NoteOnEvent(tick=0, channel=0, data=[72, 52]),
   midi.NoteOnEvent(tick=60, channel=0, data=[72, 0]),
   midi.NoteOnEvent(tick=0, channel=0, data=[79, 59]),
   midi.NoteOnEvent(tick=120, channel=0, data=[79, 0]),
   midi.NoteOnEvent(tick=120, channel=0, data=[67, 49]),
   midi.NoteOnEvent(tick=0, channel=0, data=[75, 49]),
   midi.NoteOnEvent(tick=240, channel=0, data=[75, 0]),
   midi.NoteOnEvent(tick=0, channel=0, data=[67, 0]),
   midi.NoteOnEvent(tick=0, channel=0, data=[65, 52]),
   midi.NoteOnEvent(tick=0, channel=0, data=[70, 52]),
   midi.NoteOnEvent(tick=240, channel=0, data=[70, 0]),
   midi.NoteOnEvent(tick=0, channel=0, data=[65, 0]),
   midi.NoteOnEvent(tick=0, channel=0, data=[69, 49]),
   midi.NoteOnEvent(tick=0, channel=0, data=[72, 49]),
   midi.NoteOnEvent(tick=240, channel=0, data=[72, 0]),
   midi.NoteOnEvent(tick=0, channel=0, data=[69, 0]),
   midi.NoteOnEvent(tick=0, channel=0, data=[72, 54]),
   midi.NoteOnEvent(tick=0, channel=0, data=[69, 54]),
   midi.NoteOnEvent(tick=360, channel=0, data=[72, 0]),
   midi.NoteOnEvent(tick=0, channel=0, data=[73, 50]),
   midi.NoteOnEvent(tick=120, channel=0, data=[73, 0]),
   midi.NoteOnEvent(tick=0, channel=0, data=[69, 0]),
   midi.NoteOnEvent(tick=0, channel=0, data=[70, 45]),
   midi.NoteOnEvent(tick=0, channel=0, data=[74, 45]),
   midi.NoteOnEvent(tick=240, channel=0, data=[74, 0]),
   midi.NoteOnEvent(tick=0, channel=0, data=[70, 0]),
   midi.NoteOnEvent(tick=0, channel=0, data=[70, 74]),
   midi.NoteOnEvent(tick=0, channel=0, data=[77, 74]),
   midi.NoteOnEvent(tick=240, channel=0, data=[77, 0]),
   midi.NoteOnEvent(tick=0, channel=0, data=[70, 0]),
   midi.NoteOnEvent(tick=0, channel=0, data=[72, 80]),
   midi.NoteOnEvent(tick=0, channel=0, data=[77, 59]),
   midi.NoteOnEvent(tick=240, channel=0, data=[77, 0]),
   midi.NoteOnEvent(tick=0, channel=0, data=[72, 0]),
   midi.NoteOnEvent(tick=0, channel=0, data=[77, 75]),
   midi.NoteOnEvent(tick=0, channel=0, data=[74, 75]),
   midi.NoteOnEvent(tick=240, channel=0, data=[74, 0]),
   midi.NoteOnEvent(tick=0, channel=0, data=[77, 0]),
   midi.NoteOnEvent(tick=0, channel=0, data=[75, 83]),
   midi.NoteOnEvent(tick=0, channel=0, data=[77, 83]),
   midi.NoteOnEvent(tick=300, channel=0, data=[77, 0]),
   midi.NoteOnEvent(tick=0, channel=0, data=[79, 69]),
   midi.NoteOnEvent(tick=60, channel=0, data=[79, 0]),
   midi.NoteOnEvent(tick=0, channel=0, data=[77, 71]),
   midi.NoteOnEvent(tick=60, channel=0, data=[77, 0]),
   midi.NoteOnEvent(tick=0, channel=0, data=[76, 67]),
   midi.NoteOnEvent(tick=60, channel=0, data=[76, 0]),
   midi.NoteOnEvent(tick=0, channel=0, data=[77, 77]),
   midi.NoteOnEvent(tick=120, channel=0, data=[77, 0]),
   midi.NoteOnEvent(tick=120, channel=0, data=[75, 0]),
   midi.NoteOnEvent(tick=0, channel=0, data=[69, 76]),
   midi.NoteOnEvent(tick=0, channel=0, data=[77, 76]),
   midi.NoteOnEvent(tick=240, channel=0, data=[77, 0]),
   midi.NoteOnEvent(tick=0, channel=0, data=[69, 0]),
   midi.NoteOnEvent(tick=0, channel=0, data=[79, 81]),
   midi.NoteOnEvent(tick=0, channel=0, data=[70, 81]),
   midi.NoteOnEvent(tick=240, channel=0, data=[70, 0]),
   midi.NoteOnEvent(tick=0, channel=0, data=[79, 0]),
   midi.NoteOnEvent(tick=0, channel=0, data=[72, 76]),
   midi.NoteOnEvent(tick=0, channel=0, data=[81, 76]),
   midi.NoteOnEvent(tick=240, channel=0, data=[81, 0]),
   midi.NoteOnEvent(tick=0, channel=0, data=[72, 0]),
   midi.NoteOnEvent(tick=0, channel=0, data=[82, 86]),
   midi.NoteOnEvent(tick=0, channel=0, data=[70, 86]),
   midi.NoteOnEvent(tick=300, channel=0, data=[82, 0]),
   midi.NoteOnEvent(tick=0, channel=0, data=[84, 67]),
   midi.NoteOnEvent(tick=60, channel=0, data=[84, 0]),
   midi.NoteOnEvent(tick=0, channel=0, data=[86, 70]),
   midi.NoteOnEvent(tick=60, channel=0, data=[86, 0]),
   midi.NoteOnEvent(tick=0, channel=0, data=[82, 66]),
   midi.NoteOnEvent(tick=60, channel=0, data=[82, 0]),
   midi.NoteOnEvent(tick=0, channel=0, data=[77, 63]),
   midi.NoteOnEvent(tick=120, channel=0, data=[77, 0]),
   midi.NoteOnEvent(tick=120, channel=0, data=[70, 0]),
   midi.NoteOnEvent(tick=0, channel=0, data=[74, 54]),
   midi.NoteOnEvent(tick=0, channel=0, data=[77, 54]),
   midi.NoteOnEvent(tick=240, channel=0, data=[77, 0]),
   midi.NoteOnEvent(tick=0, channel=0, data=[74, 0]),
   midi.NoteOnEvent(tick=0, channel=0, data=[72, 54]),
   midi.NoteOnEvent(tick=0, channel=0, data=[75, 54]),
   midi.NoteOnEvent(tick=240, channel=0, data=[75, 0]),
   midi.NoteOnEvent(tick=0, channel=0, data=[72, 0]),
   midi.NoteOnEvent(tick=0, channel=0, data=[70, 54]),
   midi.NoteOnEvent(tick=0, channel=0, data=[74, 54]),
   midi.NoteOnEvent(tick=240, channel=0, data=[74, 0]),
   midi.NoteOnEvent(tick=0, channel=0, data=[70, 0]),
   midi.NoteOnEvent(tick=0, channel=0, data=[71, 45]),
   midi.NoteOnEvent(tick=60, channel=0, data=[71, 0]),
   midi.NoteOnEvent(tick=0, channel=0, data=[72, 45]),
   midi.NoteOnEvent(tick=60, channel=0, data=[72, 0]),
   midi.NoteOnEvent(tick=0, channel=0, data=[74, 46]),
   midi.NoteOnEvent(tick=60, channel=0, data=[74, 0]),
   midi.NoteOnEvent(tick=0, channel=0, data=[72, 45]),
   midi.NoteOnEvent(tick=60, channel=0, data=[72, 0]),
   midi.NoteOnEvent(tick=0, channel=0, data=[75, 50]),
   midi.NoteOnEvent(tick=60, channel=0, data=[75, 0]),
   midi.NoteOnEvent(tick=0, channel=0, data=[74, 47]),
   midi.NoteOnEvent(tick=60, channel=0, data=[74, 0]),
   midi.NoteOnEvent(tick=0, channel=0, data=[77, 52]),
   midi.NoteOnEvent(tick=60, channel=0, data=[77, 0]),
   midi.NoteOnEvent(tick=0, channel=0, data=[75, 50]),
   midi.NoteOnEvent(tick=60, channel=0, data=[75, 0]),
   midi.NoteOnEvent(tick=0, channel=0, data=[79, 60]),
   midi.NoteOnEvent(tick=480, channel=0, data=[79, 0]),
   midi.NoteOnEvent(tick=0, channel=0, data=[77, 54]),
   midi.NoteOnEvent(tick=240, channel=0, data=[77, 0]),
   midi.NoteOnEvent(tick=180, channel=0, data=[69, 50]),
   midi.NoteOnEvent(tick=60, channel=0, data=[69, 0]),
   midi.NoteOnEvent(tick=0, channel=0, data=[70, 51]),
   midi.NoteOnEvent(tick=480, channel=0, data=[70, 0]),
   midi.NoteOnEvent(tick=240, channel=0, data=[80, 66]),
   midi.NoteOnEvent(tick=240, channel=0, data=[80, 0]),
   midi.NoteOnEvent(tick=0, channel=0, data=[79, 70]),
   midi.NoteOnEvent(tick=240, channel=0, data=[79, 0]),
   midi.NoteOnEvent(tick=0, channel=0, data=[81, 73]),
   midi.NoteOnEvent(tick=240, channel=0, data=[81, 0]),
   midi.NoteOnEvent(tick=0, channel=0, data=[84, 76]),
   midi.NoteOnEvent(tick=240, channel=0, data=[84, 0]),
   midi.NoteOnEvent(tick=0, channel=0, data=[82, 71]),
   midi.NoteOnEvent(tick=240, channel=0, data=[82, 0]),
   midi.NoteOnEvent(tick=240, channel=0, data=[68, 69]),
   midi.NoteOnEvent(tick=240, channel=0, data=[68, 0]),
   midi.NoteOnEvent(tick=0, channel=0, data=[67, 69]),
   midi.NoteOnEvent(tick=240, channel=0, data=[67, 0]),
   midi.NoteOnEvent(tick=0, channel=0, data=[63, 63]),
   midi.NoteOnEvent(tick=0, channel=0, data=[69, 63]),
   midi.NoteOnEvent(tick=240, channel=0, data=[69, 0]),
   midi.NoteOnEvent(tick=0, channel=0, data=[63, 0]),
   midi.NoteOnEvent(tick=0, channel=0, data=[72, 54]),
   midi.NoteOnEvent(tick=0, channel=0, data=[63, 54]),
   midi.NoteOnEvent(tick=480, channel=0, data=[63, 0]),
   midi.NoteOnEvent(tick=0, channel=0, data=[72, 0]),
   midi.NoteOnEvent(tick=0, channel=0, data=[70, 42]),
   midi.NoteOnEvent(tick=0, channel=0, data=[62, 42]),
   midi.NoteOnEvent(tick=240, channel=0, data=[62, 0]),
   midi.NoteOnEvent(tick=0, channel=0, data=[70, 0]),
   midi.NoteOnEvent(tick=0, channel=0, data=[62, 47]),
   midi.NoteOnEvent(tick=0, channel=0, data=[65, 47]),
   midi.NoteOnEvent(tick=240, channel=0, data=[65, 0]),
   midi.NoteOnEvent(tick=0, channel=0, data=[62, 0]),
   midi.NoteOnEvent(tick=0, channel=0, data=[63, 52]),
   midi.NoteOnEvent(tick=0, channel=0, data=[67, 52]),
   midi.NoteOnEvent(tick=240, channel=0, data=[67, 0]),
   midi.NoteOnEvent(tick=0, channel=0, data=[63, 0]),
   midi.NoteOnEvent(tick=0, channel=0, data=[65, 55]),
   midi.NoteOnEvent(tick=0, channel=0, data=[68, 55]),
   midi.NoteOnEvent(tick=240, channel=0, data=[68, 0]),
   midi.NoteOnEvent(tick=0, channel=0, data=[65, 0]),
   midi.ControlChangeEvent(tick=0, channel=0, data=[91, 127]),
   midi.NoteOnEvent(tick=0, channel=0, data=[66, 67]),
   midi.NoteOnEvent(tick=0, channel=0, data=[69, 67]),
   midi.NoteOnEvent(tick=480, channel=0, data=[69, 0]),
   midi.NoteOnEvent(tick=0, channel=0, data=[66, 0]),
   midi.NoteOnEvent(tick=0, channel=0, data=[67, 62]),
   midi.NoteOnEvent(tick=0, channel=0, data=[70, 62]),
   midi.NoteOnEvent(tick=240, channel=0, data=[70, 0]),
   midi.NoteOnEvent(tick=0, channel=0, data=[67, 0]),
   midi.NoteOnEvent(tick=0, channel=0, data=[70, 54]),
   midi.NoteOnEvent(tick=0, channel=0, data=[73, 54]),
   midi.NoteOnEvent(tick=240, channel=0, data=[73, 0]),
   midi.NoteOnEvent(tick=0, channel=0, data=[70, 0]),
   midi.NoteOnEvent(tick=0, channel=0, data=[64, 56]),
   midi.NoteOnEvent(tick=0, channel=0, data=[67, 56]),
   midi.NoteOnEvent(tick=240, channel=0, data=[67, 0]),
   midi.NoteOnEvent(tick=0, channel=0, data=[64, 0]),
   midi.NoteOnEvent(tick=0, channel=0, data=[68, 51]),
   midi.NoteOnEvent(tick=0, channel=0, data=[72, 51]),
   midi.NoteOnEvent(tick=240, channel=0, data=[72, 0]),
   midi.NoteOnEvent(tick=0, channel=0, data=[68, 0]),
   midi.NoteOnEvent(tick=0, channel=0, data=[67, 55]),
   midi.NoteOnEvent(tick=0, channel=0, data=[70, 55]),
   midi.NoteOnEvent(tick=480, channel=0, data=[70, 0]),
   midi.NoteOnEvent(tick=0, channel=0, data=[67, 0]),
   midi.NoteOnEvent(tick=0, channel=0, data=[65, 52]),
   midi.NoteOnEvent(tick=0, channel=0, data=[68, 52]),
   midi.NoteOnEvent(tick=240, channel=0, data=[68, 0]),
   midi.NoteOnEvent(tick=0, channel=0, data=[65, 0]),
   midi.NoteOnEvent(tick=0, channel=0, data=[77, 54]),
   midi.NoteOnEvent(tick=216, channel=0, data=[77, 0]),
   midi.NoteOnEvent(tick=24, channel=0, data=[77, 54]),
   midi.NoteOnEvent(tick=216, channel=0, data=[77, 0]),
   midi.NoteOnEvent(tick=24, channel=0, data=[77, 54]),
   midi.NoteOnEvent(tick=216, channel=0, data=[77, 0]),
   midi.NoteOnEvent(tick=24, channel=0, data=[78, 62]),
   midi.NoteOnEvent(tick=480, channel=0, data=[78, 0]),
   midi.NoteOnEvent(tick=0, channel=0, data=[79, 56]),
   midi.NoteOnEvent(tick=240, channel=0, data=[79, 0]),
   midi.NoteOnEvent(tick=0, channel=0, data=[82, 63]),
   midi.NoteOnEvent(tick=480, channel=0, data=[82, 0]),
   midi.NoteOnEvent(tick=0, channel=0, data=[76, 57]),
   midi.NoteOnEvent(tick=240, channel=0, data=[76, 0]),
   midi.NoteOnEvent(tick=0, channel=0, data=[79, 64]),
   midi.NoteOnEvent(tick=480, channel=0, data=[79, 0]),
   midi.NoteOnEvent(tick=0, channel=0, data=[77, 60]),
   midi.NoteOnEvent(tick=240, channel=0, data=[77, 0]),
   midi.NoteOnEvent(tick=960, channel=0, data=[80, 59]),
   midi.NoteOnEvent(tick=240, channel=0, data=[80, 0]),
   midi.NoteOnEvent(tick=0, channel=0, data=[79, 61]),
   midi.NoteOnEvent(tick=120, channel=0, data=[79, 0]),
   midi.NoteOnEvent(tick=0, channel=0, data=[77, 59]),
   midi.NoteOnEvent(tick=120, channel=0, data=[77, 0]),
   midi.NoteOnEvent(tick=0, channel=0, data=[75, 57]),
   midi.NoteOnEvent(tick=120, channel=0, data=[75, 0]),
   midi.NoteOnEvent(tick=0, channel=0, data=[73, 57]),
   midi.NoteOnEvent(tick=120, channel=0, data=[73, 0]),
   midi.NoteOnEvent(tick=0, channel=0, data=[72, 59]),
   midi.NoteOnEvent(tick=120, channel=0, data=[72, 0]),
   midi.NoteOnEvent(tick=0, channel=0, data=[73, 62]),
   midi.NoteOnEvent(tick=120, channel=0, data=[73, 0]),
   midi.NoteOnEvent(tick=0, channel=0, data=[77, 66]),
   midi.NoteOnEvent(tick=120, channel=0, data=[77, 0]),
   midi.NoteOnEvent(tick=0, channel=0, data=[73, 60]),
   midi.NoteOnEvent(tick=120, channel=0, data=[73, 0]),
   midi.NoteOnEvent(tick=0, channel=0, data=[62, 57]),
   midi.NoteOnEvent(tick=0, channel=0, data=[68, 57]),
   midi.NoteOnEvent(tick=0, channel=0, data=[72, 57]),
   midi.NoteOnEvent(tick=480, channel=0, data=[72, 0]),
   midi.NoteOnEvent(tick=0, channel=0, data=[71, 47]),
   midi.NoteOnEvent(tick=960, channel=0, data=[71, 0]),
   midi.NoteOnEvent(tick=0, channel=0, data=[68, 0]),
   midi.NoteOnEvent(tick=0, channel=0, data=[62, 0]),
   midi.NoteOnEvent(tick=240, channel=0, data=[63, 53]),
   midi.NoteOnEvent(tick=0, channel=0, data=[72, 53]),
   midi.NoteOnEvent(tick=240, channel=0, data=[72, 0]),
   midi.NoteOnEvent(tick=0, channel=0, data=[71, 56]),
   midi.NoteOnEvent(tick=120, channel=0, data=[71, 0]),
   midi.NoteOnEvent(tick=0, channel=0, data=[72, 58]),
   midi.NoteOnEvent(tick=120, channel=0, data=[72, 0]),
   midi.NoteOnEvent(tick=0, channel=0, data=[63, 0]),
   midi.NoteOnEvent(tick=0, channel=0, data=[63, 50]),
   midi.NoteOnEvent(tick=0, channel=0, data=[74, 59]),
   midi.NoteOnEvent(tick=120, channel=0, data=[74, 0]),
   midi.NoteOnEvent(tick=0, channel=0, data=[72, 56]),
   midi.NoteOnEvent(tick=120, channel=0, data=[72, 0]),
   midi.NoteOnEvent(tick=0, channel=0, data=[71, 56]),
   midi.NoteOnEvent(tick=120, channel=0, data=[71, 0]),
   midi.NoteOnEvent(tick=0, channel=0, data=[72, 59]),
   midi.NoteOnEvent(tick=120, channel=0, data=[72, 0]),
   midi.NoteOnEvent(tick=0, channel=0, data=[63, 0]),
   midi.NoteOnEvent(tick=0, channel=0, data=[63, 61]),
   midi.NoteOnEvent(tick=0, channel=0, data=[75, 61]),
   midi.NoteOnEvent(tick=120, channel=0, data=[75, 0]),
   midi.NoteOnEvent(tick=0, channel=0, data=[74, 60]),
   midi.NoteOnEvent(tick=120, channel=0, data=[74, 0]),
   midi.NoteOnEvent(tick=0, channel=0, data=[71, 66]),
   midi.NoteOnEvent(tick=480, channel=0, data=[71, 0]),
   midi.NoteOnEvent(tick=0, channel=0, data=[63, 0]),
   midi.NoteOnEvent(tick=0, channel=0, data=[63, 60]),
   midi.NoteOnEvent(tick=0, channel=0, data=[72, 60]),
   midi.NoteOnEvent(tick=960, channel=0, data=[72, 0]),
   midi.NoteOnEvent(tick=0, channel=0, data=[63, 0]),
   midi.NoteOnEvent(tick=240, channel=0, data=[63, 62]),
   midi.NoteOnEvent(tick=0, channel=0, data=[72, 62]),
   midi.NoteOnEvent(tick=216, channel=0, data=[72, 0]),
   midi.NoteOnEvent(tick=0, channel=0, data=[63, 0]),
   midi.NoteOnEvent(tick=24, channel=0, data=[63, 64]),
   midi.NoteOnEvent(tick=0, channel=0, data=[72, 64]),
   midi.NoteOnEvent(tick=216, channel=0, data=[72, 0]),
   midi.NoteOnEvent(tick=0, channel=0, data=[63, 0]),
   midi.NoteOnEvent(tick=24, channel=0, data=[63, 67]),
   midi.NoteOnEvent(tick=0, channel=0, data=[72, 67]),
   midi.NoteOnEvent(tick=216, channel=0, data=[72, 0]),
   midi.NoteOnEvent(tick=0, channel=0, data=[63, 0]),
   midi.NoteOnEvent(tick=24, channel=0, data=[63, 70]),
   midi.NoteOnEvent(tick=0, channel=0, data=[72, 70]),
   midi.NoteOnEvent(tick=216, channel=0, data=[72, 0]),
   midi.NoteOnEvent(tick=0, channel=0, data=[63, 0]),
   midi.NoteOnEvent(tick=24, channel=0, data=[63, 72]),
   midi.NoteOnEvent(tick=0, channel=0, data=[72, 72]),
   midi.NoteOnEvent(tick=216, channel=0, data=[72, 0]),
   midi.NoteOnEvent(tick=0, channel=0, data=[63, 0]),
   midi.NoteOnEvent(tick=24, channel=0, data=[73, 74]),
   midi.NoteOnEvent(tick=0, channel=0, data=[63, 74]),
   midi.NoteOnEvent(tick=300, channel=0, data=[73, 0]),
   midi.NoteOnEvent(tick=0, channel=0, data=[72, 62]),
   midi.NoteOnEvent(tick=60, channel=0, data=[72, 0]),
   midi.NoteOnEvent(tick=0, channel=0, data=[70, 57]),
   midi.NoteOnEvent(tick=60, channel=0, data=[70, 0]),
   midi.NoteOnEvent(tick=0, channel=0, data=[68, 54]),
   midi.NoteOnEvent(tick=60, channel=0, data=[68, 0]),
   midi.NoteOnEvent(tick=0, channel=0, data=[67, 66]),
   midi.NoteOnEvent(tick=240, channel=0, data=[67, 0]),
   midi.NoteOnEvent(tick=0, channel=0, data=[63, 0]),
   midi.NoteOnEvent(tick=0, channel=0, data=[79, 67]),
   midi.NoteOnEvent(tick=240, channel=0, data=[79, 0]),
   midi.NoteOnEvent(tick=0, channel=0, data=[80, 67]),
   midi.NoteOnEvent(tick=240, channel=0, data=[80, 0]),
   midi.NoteOnEvent(tick=0, channel=0, data=[72, 65]),
   midi.NoteOnEvent(tick=360, channel=0, data=[72, 0]),
   midi.NoteOnEvent(tick=0, channel=0, data=[70, 56]),
   midi.NoteOnEvent(tick=120, channel=0, data=[70, 0]),
   midi.NoteOnEvent(tick=0, channel=0, data=[73, 60]),
   midi.NoteOnEvent(tick=120, channel=0, data=[73, 0]),
   midi.NoteOnEvent(tick=0, channel=0, data=[77, 55]),
   midi.NoteOnEvent(tick=120, channel=0, data=[77, 0]),
   midi.NoteOnEvent(tick=0, channel=0, data=[68, 63]),
   midi.NoteOnEvent(tick=720, channel=0, data=[68, 0]),
   midi.NoteOnEvent(tick=0, channel=0, data=[67, 55]),
   midi.NoteOnEvent(tick=0, channel=0, data=[72, 55]),
   midi.NoteOnEvent(tick=120, channel=0, data=[72, 0]),
   midi.NoteOnEvent(tick=0, channel=0, data=[70, 55]),
   midi.NoteOnEvent(tick=120, channel=0, data=[70, 0]),
   midi.NoteOnEvent(tick=0, channel=0, data=[67, 0]),
   midi.NoteOnEvent(tick=0, channel=0, data=[68, 46]),
   midi.NoteOnEvent(tick=480, channel=0, data=[68, 0]),
   midi.NoteOnEvent(tick=240, channel=0, data=[68, 46]),
   midi.NoteOnEvent(tick=0, channel=0, data=[72, 46]),
   midi.NoteOnEvent(tick=240, channel=0, data=[72, 0]),
   midi.NoteOnEvent(tick=0, channel=0, data=[68, 0]),
   midi.NoteOnEvent(tick=0, channel=0, data=[68, 49]),
   midi.NoteOnEvent(tick=0, channel=0, data=[72, 49]),
   midi.NoteOnEvent(tick=240, channel=0, data=[72, 0]),
   midi.NoteOnEvent(tick=0, channel=0, data=[68, 0]),
   midi.NoteOnEvent(tick=0, channel=0, data=[68, 46]),
   midi.NoteOnEvent(tick=0, channel=0, data=[72, 46]),
   midi.NoteOnEvent(tick=240, channel=0, data=[72, 0]),
   midi.NoteOnEvent(tick=0, channel=0, data=[68, 0]),
   midi.NoteOnEvent(tick=0, channel=0, data=[70, 58]),
   midi.NoteOnEvent(tick=0, channel=0, data=[72, 58]),
   midi.NoteOnEvent(tick=0, channel=0, data=[77, 58]),
   midi.NoteOnEvent(tick=240, channel=0, data=[77, 0]),
   midi.NoteOnEvent(tick=0, channel=0, data=[76, 46]),
   midi.NoteOnEvent(tick=480, channel=0, data=[76, 0]),
   midi.NoteOnEvent(tick=0, channel=0, data=[72, 0]),
   midi.NoteOnEvent(tick=0, channel=0, data=[70, 0]),
   midi.NoteOnEvent(tick=0, channel=0, data=[70, 47]),
   midi.NoteOnEvent(tick=0, channel=0, data=[72, 47]),
   midi.NoteOnEvent(tick=240, channel=0, data=[72, 0]),
   midi.NoteOnEvent(tick=0, channel=0, data=[70, 0]),
   midi.NoteOnEvent(tick=0, channel=0, data=[70, 51]),
   midi.NoteOnEvent(tick=0, channel=0, data=[72, 51]),
   midi.NoteOnEvent(tick=240, channel=0, data=[72, 0]),
   midi.NoteOnEvent(tick=0, channel=0, data=[70, 0]),
   midi.NoteOnEvent(tick=0, channel=0, data=[70, 47]),
   midi.NoteOnEvent(tick=0, channel=0, data=[72, 47]),
   midi.NoteOnEvent(tick=240, channel=0, data=[72, 0]),
   midi.NoteOnEvent(tick=0, channel=0, data=[70, 0]),
   midi.NoteOnEvent(tick=0, channel=0, data=[79, 59]),
   midi.NoteOnEvent(tick=0, channel=0, data=[68, 59]),
   midi.NoteOnEvent(tick=0, channel=0, data=[72, 59]),
   midi.NoteOnEvent(tick=240, channel=0, data=[79, 0]),
   midi.NoteOnEvent(tick=0, channel=0, data=[77, 51]),
   midi.NoteOnEvent(tick=480, channel=0, data=[77, 0]),
   midi.NoteOnEvent(tick=0, channel=0, data=[72, 0]),
   midi.NoteOnEvent(tick=0, channel=0, data=[68, 0]),
   midi.NoteOnEvent(tick=0, channel=0, data=[68, 51]),
   midi.NoteOnEvent(tick=0, channel=0, data=[72, 51]),
   midi.NoteOnEvent(tick=240, channel=0, data=[72, 0]),
   midi.NoteOnEvent(tick=0, channel=0, data=[68, 0]),
   midi.NoteOnEvent(tick=0, channel=0, data=[68, 54]),
   midi.NoteOnEvent(tick=0, channel=0, data=[72, 54]),
   midi.NoteOnEvent(tick=240, channel=0, data=[72, 0]),
   midi.NoteOnEvent(tick=0, channel=0, data=[68, 0]),
   midi.NoteOnEvent(tick=0, channel=0, data=[68, 49]),
   midi.NoteOnEvent(tick=0, channel=0, data=[72, 49]),
   midi.NoteOnEvent(tick=240, channel=0, data=[72, 0]),
   midi.NoteOnEvent(tick=0, channel=0, data=[68, 0]),
   midi.NoteOnEvent(tick=0, channel=0, data=[80, 64]),
   midi.NoteOnEvent(tick=0, channel=0, data=[68, 64]),
   midi.NoteOnEvent(tick=0, channel=0, data=[72, 64]),
   midi.NoteOnEvent(tick=240, channel=0, data=[80, 0]),
   midi.NoteOnEvent(tick=0, channel=0, data=[78, 60]),
   midi.NoteOnEvent(tick=480, channel=0, data=[78, 0]),
   midi.NoteOnEvent(tick=0, channel=0, data=[72, 0]),
   midi.NoteOnEvent(tick=0, channel=0, data=[68, 0]),
   midi.NoteOnEvent(tick=0, channel=0, data=[68, 50]),
   midi.NoteOnEvent(tick=0, channel=0, data=[72, 50]),
   midi.NoteOnEvent(tick=216, channel=0, data=[72, 0]),
   midi.NoteOnEvent(tick=0, channel=0, data=[68, 0]),
   midi.NoteOnEvent(tick=24, channel=0, data=[68, 55]),
   midi.NoteOnEvent(tick=0, channel=0, data=[72, 55]),
   midi.NoteOnEvent(tick=216, channel=0, data=[72, 0]),
   midi.NoteOnEvent(tick=0, channel=0, data=[68, 0]),
   midi.NoteOnEvent(tick=24, channel=0, data=[68, 51]),
   midi.NoteOnEvent(tick=0, channel=0, data=[72, 51]),
   midi.NoteOnEvent(tick=216, channel=0, data=[72, 0]),
   midi.NoteOnEvent(tick=0, channel=0, data=[68, 0]),
   midi.NoteOnEvent(tick=24, channel=0, data=[78, 61]),
   midi.NoteOnEvent(tick=0, channel=0, data=[68, 61]),
   midi.NoteOnEvent(tick=0, channel=0, data=[73, 61]),
   midi.NoteOnEvent(tick=240, channel=0, data=[78, 0]),
   midi.NoteOnEvent(tick=0, channel=0, data=[76, 56]),
   midi.NoteOnEvent(tick=480, channel=0, data=[76, 0]),
   midi.NoteOnEvent(tick=0, channel=0, data=[73, 0]),
   midi.NoteOnEvent(tick=0, channel=0, data=[68, 0]),
   midi.NoteOnEvent(tick=0, channel=0, data=[68, 59]),
   midi.NoteOnEvent(tick=0, channel=0, data=[76, 59]),
   midi.NoteOnEvent(tick=240, channel=0, data=[76, 0]),
   midi.NoteOnEvent(tick=0, channel=0, data=[68, 0]),
   midi.NoteOnEvent(tick=0, channel=0, data=[68, 64]),
   midi.NoteOnEvent(tick=0, channel=0, data=[76, 64]),
   midi.NoteOnEvent(tick=240, channel=0, data=[76, 0]),
   midi.NoteOnEvent(tick=0, channel=0, data=[68, 0]),
   midi.NoteOnEvent(tick=0, channel=0, data=[68, 59]),
   midi.NoteOnEvent(tick=0, channel=0, data=[75, 59]),
   midi.NoteOnEvent(tick=240, channel=0, data=[75, 0]),
   midi.NoteOnEvent(tick=0, channel=0, data=[68, 0]),
   midi.NoteOnEvent(tick=0, channel=0, data=[68, 65]),
   midi.NoteOnEvent(tick=0, channel=0, data=[75, 65]),
   midi.NoteOnEvent(tick=360, channel=0, data=[75, 0]),
   midi.NoteOnEvent(tick=0, channel=0, data=[77, 52]),
   midi.NoteOnEvent(tick=60, channel=0, data=[77, 0]),
   midi.NoteOnEvent(tick=0, channel=0, data=[75, 49]),
   midi.NoteOnEvent(tick=60, channel=0, data=[75, 0]),
   midi.NoteOnEvent(tick=0, channel=0, data=[74, 52]),
   midi.NoteOnEvent(tick=240, channel=0, data=[74, 0]),
   midi.NoteOnEvent(tick=0, channel=0, data=[68, 0]),
   midi.NoteOnEvent(tick=0, channel=0, data=[62, 45]),
   midi.NoteOnEvent(tick=0, channel=0, data=[68, 45]),
   midi.NoteOnEvent(tick=240, channel=0, data=[68, 0]),
   midi.NoteOnEvent(tick=0, channel=0, data=[62, 0]),
   midi.NoteOnEvent(tick=0, channel=0, data=[62, 47]),
   midi.NoteOnEvent(tick=0, channel=0, data=[68, 47]),
   midi.NoteOnEvent(tick=240, channel=0, data=[68, 0]),
   midi.NoteOnEvent(tick=0, channel=0, data=[62, 0]),
   midi.NoteOnEvent(tick=0, channel=0, data=[62, 45]),
   midi.NoteOnEvent(tick=0, channel=0, data=[68, 45]),
   midi.NoteOnEvent(tick=240, channel=0, data=[68, 0]),
   midi.NoteOnEvent(tick=0, channel=0, data=[62, 0]),
   midi.NoteOnEvent(tick=0, channel=0, data=[62, 47]),
   midi.NoteOnEvent(tick=0, channel=0, data=[68, 47]),
   midi.NoteOnEvent(tick=480, channel=0, data=[68, 0]),
   midi.NoteOnEvent(tick=0, channel=0, data=[62, 0]),
   midi.NoteOnEvent(tick=240, channel=0, data=[74, 39]),
   midi.NoteOnEvent(tick=0, channel=0, data=[80, 39]),
   midi.NoteOnEvent(tick=216, channel=0, data=[80, 0]),
   midi.NoteOnEvent(tick=0, channel=0, data=[74, 0]),
   midi.NoteOnEvent(tick=24, channel=0, data=[74, 39]),
   midi.NoteOnEvent(tick=0, channel=0, data=[80, 39]),
   midi.NoteOnEvent(tick=216, channel=0, data=[80, 0]),
   midi.NoteOnEvent(tick=0, channel=0, data=[74, 0]),
   midi.NoteOnEvent(tick=24, channel=0, data=[74, 39]),
   midi.NoteOnEvent(tick=0, channel=0, data=[80, 39]),
   midi.NoteOnEvent(tick=216, channel=0, data=[80, 0]),
   midi.NoteOnEvent(tick=0, channel=0, data=[74, 0]),
   midi.NoteOnEvent(tick=24, channel=0, data=[74, 43]),
   midi.NoteOnEvent(tick=0, channel=0, data=[80, 43]),
   midi.NoteOnEvent(tick=240, channel=0, data=[80, 0]),
   midi.NoteOnEvent(tick=0, channel=0, data=[82, 34]),
   midi.NoteOnEvent(tick=30, channel=0, data=[82, 0]),
   midi.NoteOnEvent(tick=0, channel=0, data=[80, 36]),
   midi.NoteOnEvent(tick=30, channel=0, data=[80, 0]),
   midi.NoteOnEvent(tick=0, channel=0, data=[79, 39]),
   midi.NoteOnEvent(tick=30, channel=0, data=[79, 0]),
   midi.NoteOnEvent(tick=0, channel=0, data=[80, 41]),
   midi.NoteOnEvent(tick=30, channel=0, data=[80, 0]),
   midi.NoteOnEvent(tick=0, channel=0, data=[82, 40]),
   midi.NoteOnEvent(tick=60, channel=0, data=[82, 0]),
   midi.NoteOnEvent(tick=0, channel=0, data=[84, 37]),
   midi.NoteOnEvent(tick=60, channel=0, data=[84, 0]),
   midi.NoteOnEvent(tick=0, channel=0, data=[74, 0]),
   midi.NoteOnEvent(tick=0, channel=0, data=[82, 43]),
   midi.NoteOnEvent(tick=120, channel=0, data=[82, 0]),
   midi.NoteOnEvent(tick=0, channel=0, data=[80, 40]),
   midi.NoteOnEvent(tick=120, channel=0, data=[80, 0]),
   midi.NoteOnEvent(tick=0, channel=0, data=[79, 44]),
   midi.NoteOnEvent(tick=120, channel=0, data=[79, 0]),
   midi.NoteOnEvent(tick=0, channel=0, data=[77, 44]),
   midi.NoteOnEvent(tick=120, channel=0, data=[77, 0]),
   midi.NoteOnEvent(tick=0, channel=0, data=[75, 46]),
   midi.NoteOnEvent(tick=120, channel=0, data=[75, 0]),
   midi.NoteOnEvent(tick=0, channel=0, data=[74, 44]),
   midi.NoteOnEvent(tick=120, channel=0, data=[74, 0]),
   midi.NoteOnEvent(tick=0, channel=0, data=[72, 44]),
   midi.NoteOnEvent(tick=120, channel=0, data=[72, 0]),
   midi.NoteOnEvent(tick=0, channel=0, data=[70, 44]),
   midi.NoteOnEvent(tick=110, channel=0, data=[70, 0]),
   midi.ControlChangeEvent(tick=10, channel=0, data=[91, 127]),
   midi.NoteOnEvent(tick=1, channel=0, data=[70, 46]),
   midi.NoteOnEvent(tick=0, channel=0, data=[67, 46]),
   midi.NoteOnEvent(tick=359, channel=0, data=[72, 46]),
   midi.NoteOnEvent(tick=1, channel=0, data=[70, 0]),
   midi.NoteOnEvent(tick=59, channel=0, data=[72, 0]),
   midi.NoteOnEvent(tick=0, channel=0, data=[70, 46]),
   midi.NoteOnEvent(tick=60, channel=0, data=[70, 0]),
   midi.NoteOnEvent(tick=0, channel=0, data=[65, 44]),
   midi.NoteOnEvent(tick=0, channel=0, data=[68, 44]),
   midi.NoteOnEvent(tick=1, channel=0, data=[67, 0]),
   midi.NoteOnEvent(tick=239, channel=0, data=[68, 0]),
   midi.NoteOnEvent(tick=0, channel=0, data=[65, 0]),
   midi.NoteOnEvent(tick=0, channel=0, data=[63, 42]),
   midi.NoteOnEvent(tick=0, channel=0, data=[67, 42]),
   midi.NoteOnEvent(tick=240, channel=0, data=[67, 0]),
   midi.NoteOnEvent(tick=0, channel=0, data=[63, 0]),
   midi.NoteOnEvent(tick=0, channel=0, data=[68, 43]),
   midi.NoteOnEvent(tick=0, channel=0, data=[72, 43]),
   midi.NoteOnEvent(tick=240, channel=0, data=[72, 0]),
   midi.NoteOnEvent(tick=0, channel=0, data=[68, 0]),
   midi.NoteOnEvent(tick=0, channel=0, data=[67, 41]),
   midi.NoteOnEvent(tick=0, channel=0, data=[70, 41]),
   midi.NoteOnEvent(tick=230, channel=0, data=[70, 0]),
   midi.NoteOnEvent(tick=0, channel=0, data=[67, 0]),
   midi.NoteOnEvent(tick=10, channel=0, data=[70, 45]),
   midi.NoteOnEvent(tick=0, channel=0, data=[67, 45]),
   midi.NoteOnEvent(tick=360, channel=0, data=[70, 0]),
   midi.NoteOnEvent(tick=0, channel=0, data=[72, 42]),
   midi.NoteOnEvent(tick=60, channel=0, data=[72, 0]),
   midi.NoteOnEvent(tick=0, channel=0, data=[70, 42]),
   midi.NoteOnEvent(tick=60, channel=0, data=[70, 0]),
   midi.NoteOnEvent(tick=0, channel=0, data=[67, 0]),
   midi.NoteOnEvent(tick=0, channel=0, data=[68, 47]),
   midi.NoteOnEvent(tick=480, channel=0, data=[68, 0]),
   midi.NoteOnEvent(tick=0, channel=0, data=[67, 47]),
   midi.NoteOnEvent(tick=600, channel=0, data=[67, 0]),
   midi.NoteOnEvent(tick=0, channel=0, data=[64, 44]),
   midi.NoteOnEvent(tick=120, channel=0, data=[64, 0]),
   midi.NoteOnEvent(tick=0, channel=0, data=[65, 45]),
   midi.NoteOnEvent(tick=120, channel=0, data=[65, 0]),
   midi.NoteOnEvent(tick=0, channel=0, data=[67, 46]),
   midi.NoteOnEvent(tick=120, channel=0, data=[67, 0]),
   midi.NoteOnEvent(tick=0, channel=0, data=[68, 49]),
   midi.NoteOnEvent(tick=120, channel=0, data=[68, 0]),
   midi.NoteOnEvent(tick=0, channel=0, data=[69, 51]),
   midi.NoteOnEvent(tick=120, channel=0, data=[69, 0]),
   midi.NoteOnEvent(tick=0, channel=0, data=[70, 52]),
   midi.NoteOnEvent(tick=120, channel=0, data=[70, 0]),
   midi.NoteOnEvent(tick=0, channel=0, data=[71, 54]),
   midi.NoteOnEvent(tick=120, channel=0, data=[71, 0]),
   midi.NoteOnEvent(tick=0, channel=0, data=[74, 56]),
   midi.NoteOnEvent(tick=60, channel=0, data=[74, 0]),
   midi.NoteOnEvent(tick=0, channel=0, data=[72, 54]),
   midi.NoteOnEvent(tick=60, channel=0, data=[72, 0]),
   midi.NoteOnEvent(tick=0, channel=0, data=[71, 52]),
   midi.NoteOnEvent(tick=60, channel=0, data=[71, 0]),
   midi.NoteOnEvent(tick=0, channel=0, data=[72, 54]),
   midi.NoteOnEvent(tick=60, channel=0, data=[72, 0]),
   midi.NoteOnEvent(tick=0, channel=0, data=[70, 52]),
   midi.NoteOnEvent(tick=60, channel=0, data=[70, 0]),
   midi.NoteOnEvent(tick=0, channel=0, data=[68, 49]),
   midi.NoteOnEvent(tick=60, channel=0, data=[68, 0]),
   midi.NoteOnEvent(tick=0, channel=0, data=[67, 51]),
   midi.NoteOnEvent(tick=60, channel=0, data=[67, 0]),
   midi.NoteOnEvent(tick=0, channel=0, data=[65, 50]),
   midi.NoteOnEvent(tick=60, channel=0, data=[65, 0]),
   midi.NoteOnEvent(tick=0, channel=0, data=[55, 54]),
   midi.NoteOnEvent(tick=0, channel=0, data=[63, 54]),
   midi.NoteOnEvent(tick=480, channel=0, data=[63, 0]),
   midi.NoteOnEvent(tick=0, channel=0, data=[55, 0]),
   midi.NoteOnEvent(tick=0, channel=0, data=[53, 47]),
   midi.NoteOnEvent(tick=0, channel=0, data=[62, 47]),
   midi.NoteOnEvent(tick=60, channel=0, data=[62, 0]),
   midi.NoteOnEvent(tick=0, channel=0, data=[53, 0]),
   midi.NoteOnEvent(tick=0, channel=0, data=[58, 49]),
   midi.NoteOnEvent(tick=60, channel=0, data=[58, 0]),
   midi.NoteOnEvent(tick=0, channel=0, data=[57, 50]),
   midi.NoteOnEvent(tick=60, channel=0, data=[57, 0]),
   midi.NoteOnEvent(tick=0, channel=0, data=[58, 51]),
   midi.NoteOnEvent(tick=60, channel=0, data=[58, 0]),
   midi.NoteOnEvent(tick=0, channel=0, data=[59, 52]),
   midi.NoteOnEvent(tick=60, channel=0, data=[59, 0]),
   midi.NoteOnEvent(tick=0, channel=0, data=[60, 53]),
   midi.NoteOnEvent(tick=60, channel=0, data=[60, 0]),
   midi.NoteOnEvent(tick=0, channel=0, data=[61, 54]),
   midi.NoteOnEvent(tick=60, channel=0, data=[61, 0]),
   midi.NoteOnEvent(tick=0, channel=0, data=[62, 54]),
   midi.NoteOnEvent(tick=60, channel=0, data=[62, 0]),
   midi.NoteOnEvent(tick=0, channel=0, data=[63, 55]),
   midi.NoteOnEvent(tick=60, channel=0, data=[63, 0]),
   midi.NoteOnEvent(tick=0, channel=0, data=[64, 56]),
   midi.NoteOnEvent(tick=60, channel=0, data=[64, 0]),
   midi.NoteOnEvent(tick=0, channel=0, data=[65, 57]),
   midi.NoteOnEvent(tick=60, channel=0, data=[65, 0]),
   midi.NoteOnEvent(tick=0, channel=0, data=[66, 59]),
   midi.NoteOnEvent(tick=60, channel=0, data=[66, 0]),
   midi.NoteOnEvent(tick=0, channel=0, data=[67, 60]),
   midi.NoteOnEvent(tick=60, channel=0, data=[67, 0]),
   midi.NoteOnEvent(tick=0, channel=0, data=[68, 61]),
   midi.NoteOnEvent(tick=60, channel=0, data=[68, 0]),
   midi.NoteOnEvent(tick=0, channel=0, data=[69, 62]),
   midi.NoteOnEvent(tick=60, channel=0, data=[69, 0]),
   midi.NoteOnEvent(tick=0, channel=0, data=[70, 63]),
   midi.NoteOnEvent(tick=50, channel=0, data=[70, 0]),
   midi.NoteOnEvent(tick=10, channel=0, data=[67, 63]),
   midi.NoteOnEvent(tick=0, channel=0, data=[70, 63]),
   midi.NoteOnEvent(tick=360, channel=0, data=[70, 0]),
   midi.NoteOnEvent(tick=0, channel=0, data=[72, 57]),
   midi.NoteOnEvent(tick=60, channel=0, data=[72, 0]),
   midi.NoteOnEvent(tick=0, channel=0, data=[70, 53]),
   midi.NoteOnEvent(tick=60, channel=0, data=[70, 0]),
   midi.NoteOnEvent(tick=0, channel=0, data=[67, 0]),
   midi.NoteOnEvent(tick=0, channel=0, data=[68, 55]),
   midi.NoteOnEvent(tick=60, channel=0, data=[68, 0]),
   midi.NoteOnEvent(tick=0, channel=0, data=[67, 54]),
   midi.NoteOnEvent(tick=60, channel=0, data=[67, 0]),
   midi.NoteOnEvent(tick=0, channel=0, data=[72, 56]),
   midi.NoteOnEvent(tick=60, channel=0, data=[72, 0]),
   midi.NoteOnEvent(tick=0, channel=0, data=[70, 53]),
   midi.NoteOnEvent(tick=60, channel=0, data=[70, 0]),
   midi.NoteOnEvent(tick=0, channel=0, data=[75, 57]),
   midi.NoteOnEvent(tick=60, channel=0, data=[75, 0]),
   midi.NoteOnEvent(tick=0, channel=0, data=[74, 55]),
   midi.NoteOnEvent(tick=60, channel=0, data=[74, 0]),
   midi.NoteOnEvent(tick=0, channel=0, data=[77, 61]),
   midi.NoteOnEvent(tick=60, channel=0, data=[77, 0]),
   midi.NoteOnEvent(tick=0, channel=0, data=[75, 55]),
   midi.NoteOnEvent(tick=60, channel=0, data=[75, 0]),
   midi.NoteOnEvent(tick=0, channel=0, data=[80, 63]),
   midi.NoteOnEvent(tick=60, channel=0, data=[80, 0]),
   midi.NoteOnEvent(tick=0, channel=0, data=[79, 59]),
   midi.NoteOnEvent(tick=60, channel=0, data=[79, 0]),
   midi.NoteOnEvent(tick=0, channel=0, data=[78, 61]),
   midi.NoteOnEvent(tick=60, channel=0, data=[78, 0]),
   midi.NoteOnEvent(tick=0, channel=0, data=[79, 61]),
   midi.NoteOnEvent(tick=60, channel=0, data=[79, 0]),
   midi.NoteOnEvent(tick=0, channel=0, data=[77, 61]),
   midi.NoteOnEvent(tick=60, channel=0, data=[77, 0]),
   midi.NoteOnEvent(tick=0, channel=0, data=[75, 59]),
   midi.NoteOnEvent(tick=60, channel=0, data=[75, 0]),
   midi.NoteOnEvent(tick=0, channel=0, data=[74, 57]),
   midi.NoteOnEvent(tick=60, channel=0, data=[74, 0]),
   midi.NoteOnEvent(tick=0, channel=0, data=[72, 55]),
   midi.NoteOnEvent(tick=60, channel=0, data=[72, 0]),
   midi.NoteOnEvent(tick=0, channel=0, data=[70, 60]),
   midi.NoteOnEvent(tick=240, channel=0, data=[70, 0]),
   midi.NoteOnEvent(tick=0, channel=0, data=[69, 63]),
   midi.NoteOnEvent(tick=480, channel=0, data=[69, 0]),
   midi.NoteOnEvent(tick=0, channel=0, data=[68, 63]),
   midi.NoteOnEvent(tick=360, channel=0, data=[68, 0]),
   midi.NoteOnEvent(tick=0, channel=0, data=[67, 66]),
   midi.NoteOnEvent(tick=120, channel=0, data=[67, 0]),
   midi.NoteOnEvent(tick=0, channel=0, data=[75, 68]),
   midi.NoteOnEvent(tick=120, channel=0, data=[75, 0]),
   midi.NoteOnEvent(tick=0, channel=0, data=[73, 64]),
   midi.NoteOnEvent(tick=120, channel=0, data=[73, 0]),
   midi.NoteOnEvent(tick=0, channel=0, data=[71, 67]),
   midi.NoteOnEvent(tick=120, channel=0, data=[71, 0]),
   midi.NoteOnEvent(tick=0, channel=0, data=[72, 64]),
   midi.NoteOnEvent(tick=120, channel=0, data=[72, 0]),
   midi.NoteOnEvent(tick=0, channel=0, data=[74, 69]),
   midi.NoteOnEvent(tick=120, channel=0, data=[74, 0]),
   midi.NoteOnEvent(tick=0, channel=0, data=[75, 64]),
   midi.NoteOnEvent(tick=110, channel=0, data=[75, 0]),
   midi.NoteOnEvent(tick=10, channel=0, data=[75, 70]),
   midi.NoteOnEvent(tick=240, channel=0, data=[75, 0]),
   midi.NoteOnEvent(tick=0, channel=0, data=[70, 66]),
   midi.NoteOnEvent(tick=360, channel=0, data=[70, 0]),
   midi.NoteOnEvent(tick=0, channel=0, data=[72, 54]),
   midi.NoteOnEvent(tick=60, channel=0, data=[72, 0]),
   midi.NoteOnEvent(tick=0, channel=0, data=[70, 50]),
   midi.NoteOnEvent(tick=50, channel=0, data=[70, 0]),
   midi.NoteOnEvent(tick=10, channel=0, data=[70, 53]),
   midi.NoteOnEvent(tick=60, channel=0, data=[70, 0]),
   midi.NoteOnEvent(tick=0, channel=0, data=[68, 45]),
   midi.NoteOnEvent(tick=60, channel=0, data=[68, 0]),
   midi.NoteOnEvent(tick=0, channel=0, data=[67, 51]),
   midi.NoteOnEvent(tick=60, channel=0, data=[67, 0]),
   midi.NoteOnEvent(tick=0, channel=0, data=[65, 45]),
   midi.NoteOnEvent(tick=60, channel=0, data=[65, 0]),
   midi.NoteOnEvent(tick=0, channel=0, data=[63, 46]),
   midi.NoteOnEvent(tick=480, channel=0, data=[63, 0]),
   midi.NoteOnEvent(tick=240, channel=0, data=[67, 46]),
   midi.NoteOnEvent(tick=0, channel=0, data=[70, 46]),
   midi.NoteOnEvent(tick=240, channel=0, data=[70, 0]),
   midi.NoteOnEvent(tick=0, channel=0, data=[67, 0]),
   midi.NoteOnEvent(tick=0, channel=0, data=[67, 50]),
   midi.NoteOnEvent(tick=0, channel=0, data=[70, 50]),
   midi.NoteOnEvent(tick=240, channel=0, data=[70, 0]),
   midi.NoteOnEvent(tick=0, channel=0, data=[67, 0]),
   midi.NoteOnEvent(tick=0, channel=0, data=[67, 46]),
   midi.NoteOnEvent(tick=0, channel=0, data=[70, 46]),
   midi.NoteOnEvent(tick=240, channel=0, data=[70, 0]),
   midi.NoteOnEvent(tick=0, channel=0, data=[67, 0]),
   midi.NoteOnEvent(tick=0, channel=0, data=[68, 54]),
   midi.NoteOnEvent(tick=0, channel=0, data=[75, 54]),
   midi.NoteOnEvent(tick=240, channel=0, data=[75, 0]),
   midi.NoteOnEvent(tick=0, channel=0, data=[74, 46]),
   midi.NoteOnEvent(tick=480, channel=0, data=[74, 0]),
   midi.NoteOnEvent(tick=0, channel=0, data=[68, 0]),
   midi.NoteOnEvent(tick=0, channel=0, data=[82, 50]),
   midi.NoteOnEvent(tick=120, channel=0, data=[82, 0]),
   midi.NoteOnEvent(tick=0, channel=0, data=[80, 47]),
   midi.NoteOnEvent(tick=120, channel=0, data=[80, 0]),
   midi.NoteOnEvent(tick=0, channel=0, data=[79, 52]),
   midi.NoteOnEvent(tick=120, channel=0, data=[79, 0]),
   midi.NoteOnEvent(tick=0, channel=0, data=[77, 47]),
   midi.NoteOnEvent(tick=120, channel=0, data=[77, 0]),
   midi.NoteOnEvent(tick=0, channel=0, data=[75, 49]),
   midi.NoteOnEvent(tick=120, channel=0, data=[75, 0]),
   midi.NoteOnEvent(tick=0, channel=0, data=[74, 45]),
   midi.NoteOnEvent(tick=120, channel=0, data=[74, 0]),
   midi.NoteOnEvent(tick=0, channel=0, data=[77, 54]),
   midi.NoteOnEvent(tick=40, channel=0, data=[77, 0]),
   midi.NoteOnEvent(tick=0, channel=0, data=[75, 52]),
   midi.NoteOnEvent(tick=300, channel=0, data=[75, 0]),
   midi.NoteOnEvent(tick=20, channel=0, data=[74, 49]),
   midi.NoteOnEvent(tick=60, channel=0, data=[74, 0]),
   midi.NoteOnEvent(tick=0, channel=0, data=[72, 45]),
   midi.NoteOnEvent(tick=60, channel=0, data=[72, 0]),
   midi.NoteOnEvent(tick=0, channel=0, data=[70, 50]),
   midi.NoteOnEvent(tick=230, channel=0, data=[70, 0]),
   midi.NoteOnEvent(tick=10, channel=0, data=[67, 49]),
   midi.NoteOnEvent(tick=0, channel=0, data=[70, 49]),
   midi.NoteOnEvent(tick=216, channel=0, data=[70, 0]),
   midi.NoteOnEvent(tick=0, channel=0, data=[67, 0]),
   midi.NoteOnEvent(tick=24, channel=0, data=[67, 53]),
   midi.NoteOnEvent(tick=0, channel=0, data=[70, 53]),
   midi.NoteOnEvent(tick=216, channel=0, data=[70, 0]),
   midi.NoteOnEvent(tick=0, channel=0, data=[67, 0]),
   midi.NoteOnEvent(tick=24, channel=0, data=[67, 49]),
   midi.NoteOnEvent(tick=0, channel=0, data=[70, 49]),
   midi.NoteOnEvent(tick=216, channel=0, data=[70, 0]),
   midi.NoteOnEvent(tick=0, channel=0, data=[67, 0]),
   midi.NoteOnEvent(tick=24, channel=0, data=[68, 62]),
   midi.NoteOnEvent(tick=0, channel=0, data=[75, 62]),
   midi.NoteOnEvent(tick=120, channel=0, data=[75, 0]),
   midi.NoteOnEvent(tick=0, channel=0, data=[74, 55]),
   midi.NoteOnEvent(tick=120, channel=0, data=[74, 0]),
   midi.NoteOnEvent(tick=0, channel=0, data=[68, 0]),
   midi.NoteOnEvent(tick=0, channel=0, data=[84, 60]),
   midi.NoteOnEvent(tick=480, channel=0, data=[84, 0]),
   midi.NoteOnEvent(tick=0, channel=0, data=[82, 50]),
   midi.NoteOnEvent(tick=60, channel=0, data=[82, 0]),
   midi.NoteOnEvent(tick=0, channel=0, data=[80, 49]),
   midi.NoteOnEvent(tick=60, channel=0, data=[80, 0]),
   midi.NoteOnEvent(tick=0, channel=0, data=[84, 52]),
   midi.NoteOnEvent(tick=60, channel=0, data=[84, 0]),
   midi.NoteOnEvent(tick=0, channel=0, data=[80, 49]),
   midi.NoteOnEvent(tick=60, channel=0, data=[80, 0]),
   midi.NoteOnEvent(tick=0, channel=0, data=[79, 51]),
   midi.NoteOnEvent(tick=60, channel=0, data=[79, 0]),
   midi.NoteOnEvent(tick=0, channel=0, data=[77, 49]),
   midi.NoteOnEvent(tick=60, channel=0, data=[77, 0]),
   midi.NoteOnEvent(tick=0, channel=0, data=[80, 51]),
   midi.NoteOnEvent(tick=60, channel=0, data=[80, 0]),
   midi.NoteOnEvent(tick=0, channel=0, data=[77, 49]),
   midi.NoteOnEvent(tick=60, channel=0, data=[77, 0]),
   midi.NoteOnEvent(tick=0, channel=0, data=[75, 51]),
   midi.NoteOnEvent(tick=60, channel=0, data=[75, 0]),
   midi.NoteOnEvent(tick=0, channel=0, data=[74, 49]),
   midi.NoteOnEvent(tick=60, channel=0, data=[74, 0]),
   midi.NoteOnEvent(tick=0, channel=0, data=[77, 52]),
   midi.NoteOnEvent(tick=60, channel=0, data=[77, 0]),
   midi.NoteOnEvent(tick=0, channel=0, data=[74, 49]),
   midi.NoteOnEvent(tick=60, channel=0, data=[74, 0]),
   midi.NoteOnEvent(tick=0, channel=0, data=[75, 54]),
   midi.NoteOnEvent(tick=60, channel=0, data=[75, 0]),
   midi.NoteOnEvent(tick=0, channel=0, data=[77, 52]),
   midi.NoteOnEvent(tick=60, channel=0, data=[77, 0]),
   midi.NoteOnEvent(tick=0, channel=0, data=[75, 52]),
   midi.NoteOnEvent(tick=60, channel=0, data=[75, 0]),
   midi.NoteOnEvent(tick=0, channel=0, data=[74, 52]),
   midi.NoteOnEvent(tick=60, channel=0, data=[74, 0]),
   midi.NoteOnEvent(tick=0, channel=0, data=[75, 50]),
   midi.NoteOnEvent(tick=40, channel=0, data=[75, 0]),
   midi.NoteOnEvent(tick=0, channel=0, data=[76, 47]),
   midi.NoteOnEvent(tick=40, channel=0, data=[76, 0]),
   midi.NoteOnEvent(tick=0, channel=0, data=[77, 50]),
   midi.NoteOnEvent(tick=40, channel=0, data=[77, 0]),
   midi.NoteOnEvent(tick=0, channel=0, data=[78, 53]),
   midi.NoteOnEvent(tick=60, channel=0, data=[78, 0]),
   midi.NoteOnEvent(tick=0, channel=0, data=[79, 54]),
   midi.NoteOnEvent(tick=60, channel=0, data=[79, 0]),
   midi.NoteOnEvent(tick=0, channel=0, data=[70, 50]),
   midi.NoteOnEvent(tick=240, channel=0, data=[70, 0]),
   midi.NoteOnEvent(tick=0, channel=0, data=[67, 45]),
   midi.NoteOnEvent(tick=0, channel=0, data=[70, 45]),
   midi.NoteOnEvent(tick=240, channel=0, data=[70, 0]),
   midi.NoteOnEvent(tick=0, channel=0, data=[67, 0]),
   midi.NoteOnEvent(tick=0, channel=0, data=[65, 47]),
   midi.NoteOnEvent(tick=0, channel=0, data=[68, 47]),
   midi.NoteOnEvent(tick=240, channel=0, data=[68, 0]),
   midi.NoteOnEvent(tick=0, channel=0, data=[65, 0]),
   midi.NoteOnEvent(tick=0, channel=0, data=[63, 51]),
   midi.NoteOnEvent(tick=0, channel=0, data=[67, 51]),
   midi.NoteOnEvent(tick=230, channel=0, data=[67, 0]),
   midi.NoteOnEvent(tick=0, channel=0, data=[63, 0]),
   midi.NoteOnEvent(tick=10, channel=0, data=[63, 58]),
   midi.NoteOnEvent(tick=0, channel=0, data=[70, 58]),
   midi.NoteOnEvent(tick=120, channel=0, data=[70, 0]),
   midi.NoteOnEvent(tick=0, channel=0, data=[69, 49]),
   midi.NoteOnEvent(tick=120, channel=0, data=[69, 0]),
   midi.NoteOnEvent(tick=0, channel=0, data=[70, 53]),
   midi.NoteOnEvent(tick=120, channel=0, data=[70, 0]),
   midi.NoteOnEvent(tick=0, channel=0, data=[67, 42]),
   midi.NoteOnEvent(tick=120, channel=0, data=[67, 0]),
   midi.NoteOnEvent(tick=0, channel=0, data=[63, 0]),
   midi.NoteOnEvent(tick=0, channel=0, data=[62, 38]),
   midi.NoteOnEvent(tick=0, channel=0, data=[65, 38]),
   midi.NoteOnEvent(tick=480, channel=0, data=[65, 0]),
   midi.NoteOnEvent(tick=0, channel=0, data=[62, 0]),
   midi.NoteOnEvent(tick=420, channel=0, data=[70, 67]),
   midi.NoteOnEvent(tick=60, channel=0, data=[70, 0]),
   midi.NoteOnEvent(tick=0, channel=0, data=[82, 73]),
   midi.NoteOnEvent(tick=720, channel=0, data=[82, 0]),
   midi.NoteOnEvent(tick=0, channel=0, data=[80, 70]),
   midi.NoteOnEvent(tick=60, channel=0, data=[80, 0]),
   midi.NoteOnEvent(tick=0, channel=0, data=[79, 66]),
   midi.NoteOnEvent(tick=60, channel=0, data=[79, 0]),
   midi.NoteOnEvent(tick=0, channel=0, data=[77, 70]),
   midi.NoteOnEvent(tick=60, channel=0, data=[77, 0]),
   midi.NoteOnEvent(tick=0, channel=0, data=[75, 64]),
   midi.NoteOnEvent(tick=60, channel=0, data=[75, 0]),
   midi.NoteOnEvent(tick=0, channel=0, data=[74, 74]),
   midi.NoteOnEvent(tick=240, channel=0, data=[74, 0]),
   midi.NoteOnEvent(tick=0, channel=0, data=[75, 72]),
   midi.NoteOnEvent(tick=240, channel=0, data=[75, 0]),
   midi.NoteOnEvent(tick=0, channel=0, data=[74, 67]),
   midi.NoteOnEvent(tick=0, channel=0, data=[77, 67]),
   midi.NoteOnEvent(tick=240, channel=0, data=[77, 0]),
   midi.NoteOnEvent(tick=0, channel=0, data=[74, 0]),
   midi.NoteOnEvent(tick=0, channel=0, data=[80, 69]),
   midi.NoteOnEvent(tick=0, channel=0, data=[75, 69]),
   midi.NoteOnEvent(tick=60, channel=0, data=[80, 0]),
   midi.NoteOnEvent(tick=0, channel=0, data=[79, 65]),
   midi.NoteOnEvent(tick=60, channel=0, data=[79, 0]),
   midi.NoteOnEvent(tick=0, channel=0, data=[77, 66]),
   midi.NoteOnEvent(tick=60, channel=0, data=[77, 0]),
   midi.NoteOnEvent(tick=0, channel=0, data=[79, 65]),
   midi.NoteOnEvent(tick=60, channel=0, data=[79, 0]),
   midi.NoteOnEvent(tick=0, channel=0, data=[75, 0]),
   midi.NoteOnEvent(tick=0, channel=0, data=[77, 70]),
   midi.NoteOnEvent(tick=0, channel=0, data=[80, 70]),
   midi.NoteOnEvent(tick=240, channel=0, data=[80, 0]),
   midi.NoteOnEvent(tick=0, channel=0, data=[77, 0]),
   midi.NoteOnEvent(tick=0, channel=0, data=[70, 57]),
   midi.NoteOnEvent(tick=216, channel=0, data=[70, 0]),
   midi.NoteOnEvent(tick=24, channel=0, data=[70, 59]),
   midi.NoteOnEvent(tick=216, channel=0, data=[70, 0]),
   midi.NoteOnEvent(tick=24, channel=0, data=[70, 59]),
   midi.NoteOnEvent(tick=216, channel=0, data=[70, 0]),
   midi.NoteOnEvent(tick=24, channel=0, data=[80, 72]),
   midi.NoteOnEvent(tick=720, channel=0, data=[80, 0]),
   midi.NoteOnEvent(tick=0, channel=0, data=[82, 69]),
   midi.NoteOnEvent(tick=60, channel=0, data=[82, 0]),
   midi.NoteOnEvent(tick=0, channel=0, data=[80, 65]),
   midi.NoteOnEvent(tick=60, channel=0, data=[80, 0]),
   midi.NoteOnEvent(tick=0, channel=0, data=[79, 69]),
   midi.NoteOnEvent(tick=60, channel=0, data=[79, 0]),
   midi.NoteOnEvent(tick=0, channel=0, data=[77, 64]),
   midi.NoteOnEvent(tick=60, channel=0, data=[77, 0]),
   midi.NoteOnEvent(tick=0, channel=0, data=[75, 73]),
   midi.NoteOnEvent(tick=240, channel=0, data=[75, 0]),
   midi.NoteOnEvent(tick=0, channel=0, data=[74, 70]),
   midi.NoteOnEvent(tick=0, channel=0, data=[77, 70]),
   midi.NoteOnEvent(tick=240, channel=0, data=[77, 0]),
   midi.NoteOnEvent(tick=0, channel=0, data=[74, 0]),
   midi.NoteOnEvent(tick=0, channel=0, data=[75, 71]),
   midi.NoteOnEvent(tick=0, channel=0, data=[79, 71]),
   midi.NoteOnEvent(tick=240, channel=0, data=[79, 0]),
   midi.NoteOnEvent(tick=0, channel=0, data=[75, 0]),
   midi.NoteOnEvent(tick=0, channel=0, data=[82, 67]),
   midi.NoteOnEvent(tick=0, channel=0, data=[77, 67]),
   midi.NoteOnEvent(tick=60, channel=0, data=[82, 0]),
   midi.NoteOnEvent(tick=0, channel=0, data=[80, 63]),
   midi.NoteOnEvent(tick=60, channel=0, data=[80, 0]),
   midi.NoteOnEvent(tick=0, channel=0, data=[79, 67]),
   midi.NoteOnEvent(tick=60, channel=0, data=[79, 0]),
   midi.NoteOnEvent(tick=0, channel=0, data=[80, 64]),
   midi.NoteOnEvent(tick=60, channel=0, data=[80, 0]),
   midi.NoteOnEvent(tick=0, channel=0, data=[77, 0]),
   midi.NoteOnEvent(tick=0, channel=0, data=[79, 72]),
   midi.NoteOnEvent(tick=0, channel=0, data=[82, 72]),
   midi.NoteOnEvent(tick=120, channel=0, data=[82, 0]),
   midi.NoteOnEvent(tick=0, channel=0, data=[79, 0]),
   midi.NoteOnEvent(tick=840, channel=0, data=[73, 83]),
   midi.NoteOnEvent(tick=600, channel=0, data=[73, 0]),
   midi.NoteOnEvent(tick=0, channel=0, data=[75, 62]),
   midi.NoteOnEvent(tick=30, channel=0, data=[75, 0]),
   midi.NoteOnEvent(tick=0, channel=0, data=[73, 58]),
   midi.NoteOnEvent(tick=30, channel=0, data=[73, 0]),
   midi.NoteOnEvent(tick=0, channel=0, data=[72, 62]),
   midi.NoteOnEvent(tick=30, channel=0, data=[72, 0]),
   midi.NoteOnEvent(tick=0, channel=0, data=[73, 59]),
   midi.NoteOnEvent(tick=30, channel=0, data=[73, 0]),
   midi.NoteOnEvent(tick=0, channel=0, data=[75, 67]),
   midi.NoteOnEvent(tick=120, channel=0, data=[75, 0]),
   midi.NoteOnEvent(tick=0, channel=0, data=[77, 67]),
   midi.NoteOnEvent(tick=120, channel=0, data=[77, 0]),
   midi.NoteOnEvent(tick=0, channel=0, data=[75, 67]),
   midi.NoteOnEvent(tick=120, channel=0, data=[75, 0]),
   midi.NoteOnEvent(tick=0, channel=0, data=[73, 60]),
   midi.NoteOnEvent(tick=120, channel=0, data=[73, 0]),
   midi.NoteOnEvent(tick=0, channel=0, data=[72, 67]),
   midi.NoteOnEvent(tick=120, channel=0, data=[72, 0]),
   midi.NoteOnEvent(tick=0, channel=0, data=[71, 61]),
   midi.NoteOnEvent(tick=110, channel=0, data=[71, 0]),
   midi.NoteOnEvent(tick=10, channel=0, data=[71, 70]),
   midi.NoteOnEvent(tick=600, channel=0, data=[71, 0]),
   midi.NoteOnEvent(tick=0, channel=0, data=[72, 67]),
   midi.NoteOnEvent(tick=120, channel=0, data=[72, 0]),
   midi.NoteOnEvent(tick=0, channel=0, data=[75, 69]),
   midi.NoteOnEvent(tick=120, channel=0, data=[75, 0]),
   midi.NoteOnEvent(tick=0, channel=0, data=[74, 69]),
   midi.NoteOnEvent(tick=120, channel=0, data=[74, 0]),
   midi.NoteOnEvent(tick=0, channel=0, data=[77, 69]),
   midi.NoteOnEvent(tick=120, channel=0, data=[77, 0]),
   midi.NoteOnEvent(tick=0, channel=0, data=[75, 64]),
   midi.NoteOnEvent(tick=120, channel=0, data=[75, 0]),
   midi.NoteOnEvent(tick=0, channel=0, data=[74, 68]),
   midi.NoteOnEvent(tick=120, channel=0, data=[74, 0]),
   midi.NoteOnEvent(tick=0, channel=0, data=[72, 61]),
   midi.NoteOnEvent(tick=120, channel=0, data=[72, 0]),
   midi.NoteOnEvent(tick=0, channel=0, data=[70, 59]),
   midi.NoteOnEvent(tick=80, channel=0, data=[71, 60]),
   midi.NoteOnEvent(tick=20, channel=0, data=[70, 0]),
   midi.NoteOnEvent(tick=60, channel=0, data=[72, 62]),
   midi.NoteOnEvent(tick=20, channel=0, data=[71, 0]),
   midi.NoteOnEvent(tick=60, channel=0, data=[73, 66]),
   midi.NoteOnEvent(tick=20, channel=0, data=[72, 0]),
   midi.NoteOnEvent(tick=60, channel=0, data=[74, 68]),
   midi.NoteOnEvent(tick=20, channel=0, data=[73, 0]),
   midi.NoteOnEvent(tick=60, channel=0, data=[75, 69]),
   midi.NoteOnEvent(tick=20, channel=0, data=[74, 0]),
   midi.NoteOnEvent(tick=60, channel=0, data=[75, 0]),
   midi.NoteOnEvent(tick=0, channel=0, data=[75, 60]),
   midi.NoteOnEvent(tick=60, channel=0, data=[75, 0]),
   midi.NoteOnEvent(tick=0, channel=0, data=[63, 73]),
   midi.NoteOnEvent(tick=420, channel=0, data=[63, 0]),
   midi.NoteOnEvent(tick=0, channel=0, data=[67, 59]),
   midi.NoteOnEvent(tick=0, channel=0, data=[62, 59]),
   midi.NoteOnEvent(tick=120, channel=0, data=[67, 0]),
   midi.NoteOnEvent(tick=0, channel=0, data=[65, 64]),
   midi.NoteOnEvent(tick=120, channel=0, data=[65, 0]),
   midi.NoteOnEvent(tick=0, channel=0, data=[63, 64]),
   midi.NoteOnEvent(tick=120, channel=0, data=[63, 0]),
   midi.NoteOnEvent(tick=0, channel=0, data=[65, 59]),
   midi.NoteOnEvent(tick=120, channel=0, data=[65, 0]),
   midi.NoteOnEvent(tick=0, channel=0, data=[62, 0]),
   midi.NoteOnEvent(tick=0, channel=0, data=[63, 55]),
   midi.NoteOnEvent(tick=480, channel=0, data=[63, 0]),
   midi.NoteOnEvent(tick=240, channel=0, data=[63, 75]),
   midi.NoteOnEvent(tick=0, channel=0, data=[70, 75]),
   midi.NoteOnEvent(tick=216, channel=0, data=[70, 0]),
   midi.NoteOnEvent(tick=0, channel=0, data=[63, 0]),
   midi.NoteOnEvent(tick=24, channel=0, data=[65, 80]),
   midi.NoteOnEvent(tick=0, channel=0, data=[70, 59]),
   midi.NoteOnEvent(tick=216, channel=0, data=[70, 0]),
   midi.NoteOnEvent(tick=0, channel=0, data=[65, 0]),
   midi.NoteOnEvent(tick=24, channel=0, data=[67, 75]),
   midi.NoteOnEvent(tick=0, channel=0, data=[70, 75]),
   midi.NoteOnEvent(tick=216, channel=0, data=[70, 0]),
   midi.NoteOnEvent(tick=0, channel=0, data=[67, 0]),
   midi.NoteOnEvent(tick=24, channel=0, data=[70, 80]),
   midi.NoteOnEvent(tick=0, channel=0, data=[68, 63]),
   midi.NoteOnEvent(tick=300, channel=0, data=[70, 0]),
   midi.NoteOnEvent(tick=0, channel=0, data=[72, 76]),
   midi.NoteOnEvent(tick=60, channel=0, data=[72, 0]),
   midi.NoteOnEvent(tick=0, channel=0, data=[70, 70]),
   midi.NoteOnEvent(tick=60, channel=0, data=[70, 0]),
   midi.NoteOnEvent(tick=0, channel=0, data=[69, 69]),
   midi.NoteOnEvent(tick=60, channel=0, data=[69, 0]),
   midi.NoteOnEvent(tick=0, channel=0, data=[70, 79]),
   midi.NoteOnEvent(tick=120, channel=0, data=[70, 0]),
   midi.NoteOnEvent(tick=120, channel=0, data=[68, 0]),
   midi.NoteOnEvent(tick=0, channel=0, data=[62, 74]),
   midi.NoteOnEvent(tick=0, channel=0, data=[70, 74]),
   midi.NoteOnEvent(tick=240, channel=0, data=[70, 0]),
   midi.NoteOnEvent(tick=0, channel=0, data=[62, 0]),
   midi.NoteOnEvent(tick=0, channel=0, data=[63, 76]),
   midi.NoteOnEvent(tick=0, channel=0, data=[72, 76]),
   midi.NoteOnEvent(tick=240, channel=0, data=[72, 0]),
   midi.NoteOnEvent(tick=0, channel=0, data=[63, 0]),
   midi.NoteOnEvent(tick=0, channel=0, data=[65, 72]),
   midi.NoteOnEvent(tick=0, channel=0, data=[74, 72]),
   midi.NoteOnEvent(tick=240, channel=0, data=[74, 0]),
   midi.NoteOnEvent(tick=0, channel=0, data=[65, 0]),
   midi.NoteOnEvent(tick=0, channel=0, data=[75, 81]),
   midi.NoteOnEvent(tick=0, channel=0, data=[63, 81]),
   midi.NoteOnEvent(tick=300, channel=0, data=[75, 0]),
   midi.NoteOnEvent(tick=0, channel=0, data=[77, 70]),
   midi.NoteOnEvent(tick=60, channel=0, data=[77, 0]),
   midi.NoteOnEvent(tick=0, channel=0, data=[79, 72]),
   midi.NoteOnEvent(tick=60, channel=0, data=[79, 0]),
   midi.NoteOnEvent(tick=0, channel=0, data=[75, 66]),
   midi.NoteOnEvent(tick=60, channel=0, data=[75, 0]),
   midi.NoteOnEvent(tick=0, channel=0, data=[70, 69]),
   midi.NoteOnEvent(tick=120, channel=0, data=[70, 0]),
   midi.NoteOnEvent(tick=120, channel=0, data=[63, 0]),
   midi.NoteOnEvent(tick=0, channel=0, data=[67, 52]),
   midi.NoteOnEvent(tick=0, channel=0, data=[70, 52]),
   midi.NoteOnEvent(tick=240, channel=0, data=[70, 0]),
   midi.NoteOnEvent(tick=0, channel=0, data=[67, 0]),
   midi.NoteOnEvent(tick=0, channel=0, data=[65, 54]),
   midi.NoteOnEvent(tick=0, channel=0, data=[68, 54]),
   midi.NoteOnEvent(tick=240, channel=0, data=[68, 0]),
   midi.NoteOnEvent(tick=0, channel=0, data=[65, 0]),
   midi.NoteOnEvent(tick=0, channel=0, data=[63, 52]),
   midi.NoteOnEvent(tick=0, channel=0, data=[67, 52]),
   midi.NoteOnEvent(tick=240, channel=0, data=[67, 0]),
   midi.NoteOnEvent(tick=0, channel=0, data=[63, 0]),
   midi.NoteOnEvent(tick=0, channel=0, data=[65, 57]),
   midi.NoteOnEvent(tick=300, channel=0, data=[65, 0]),
   midi.NoteOnEvent(tick=0, channel=0, data=[67, 50]),
   midi.NoteOnEvent(tick=60, channel=0, data=[67, 0]),
   midi.NoteOnEvent(tick=0, channel=0, data=[68, 52]),
   midi.NoteOnEvent(tick=60, channel=0, data=[68, 0]),
   midi.NoteOnEvent(tick=0, channel=0, data=[65, 50]),
   midi.NoteOnEvent(tick=60, channel=0, data=[65, 0]),
   midi.NoteOnEvent(tick=0, channel=0, data=[72, 56]),
   midi.NoteOnEvent(tick=120, channel=0, data=[72, 0]),
   midi.NoteOnEvent(tick=120, channel=0, data=[60, 46]),
   midi.NoteOnEvent(tick=0, channel=0, data=[65, 46]),
   midi.NoteOnEvent(tick=240, channel=0, data=[65, 0]),
   midi.NoteOnEvent(tick=0, channel=0, data=[60, 0]),
   midi.NoteOnEvent(tick=0, channel=0, data=[58, 49]),
   midi.NoteOnEvent(tick=0, channel=0, data=[63, 49]),
   midi.NoteOnEvent(tick=240, channel=0, data=[63, 0]),
   midi.NoteOnEvent(tick=0, channel=0, data=[58, 0]),
   midi.NoteOnEvent(tick=0, channel=0, data=[62, 46]),
   midi.NoteOnEvent(tick=0, channel=0, data=[65, 46]),
   midi.NoteOnEvent(tick=230, channel=0, data=[65, 0]),
   midi.NoteOnEvent(tick=0, channel=0, data=[62, 0]),
   midi.NoteOnEvent(tick=10, channel=0, data=[62, 54]),
   midi.NoteOnEvent(tick=0, channel=0, data=[65, 54]),
   midi.NoteOnEvent(tick=360, channel=0, data=[65, 0]),
   midi.NoteOnEvent(tick=0, channel=0, data=[66, 50]),
   midi.NoteOnEvent(tick=120, channel=0, data=[66, 0]),
   midi.NoteOnEvent(tick=0, channel=0, data=[62, 0]),
   midi.NoteOnEvent(tick=0, channel=0, data=[63, 45]),
   midi.NoteOnEvent(tick=0, channel=0, data=[67, 45]),
   midi.NoteOnEvent(tick=240, channel=0, data=[67, 0]),
   midi.NoteOnEvent(tick=0, channel=0, data=[63, 0]),
   midi.NoteOnEvent(tick=0, channel=0, data=[75, 76]),
   midi.NoteOnEvent(tick=0, channel=0, data=[82, 76]),
   midi.NoteOnEvent(tick=216, channel=0, data=[82, 0]),
   midi.NoteOnEvent(tick=0, channel=0, data=[75, 0]),
   midi.NoteOnEvent(tick=24, channel=0, data=[77, 77]),
   midi.NoteOnEvent(tick=0, channel=0, data=[82, 77]),
   midi.NoteOnEvent(tick=216, channel=0, data=[82, 0]),
   midi.NoteOnEvent(tick=0, channel=0, data=[77, 0]),
   midi.NoteOnEvent(tick=24, channel=0, data=[79, 76]),
   midi.NoteOnEvent(tick=0, channel=0, data=[82, 76]),
   midi.NoteOnEvent(tick=216, channel=0, data=[82, 0]),
   midi.NoteOnEvent(tick=0, channel=0, data=[79, 0]),
   midi.NoteOnEvent(tick=24, channel=0, data=[82, 81]),
   midi.NoteOnEvent(tick=0, channel=0, data=[80, 81]),
   midi.NoteOnEvent(tick=300, channel=0, data=[82, 0]),
   midi.NoteOnEvent(tick=0, channel=0, data=[84, 73]),
   midi.NoteOnEvent(tick=60, channel=0, data=[84, 0]),
   midi.NoteOnEvent(tick=0, channel=0, data=[82, 69]),
   midi.NoteOnEvent(tick=60, channel=0, data=[82, 0]),
   midi.NoteOnEvent(tick=0, channel=0, data=[81, 70]),
   midi.NoteOnEvent(tick=60, channel=0, data=[81, 0]),
   midi.NoteOnEvent(tick=0, channel=0, data=[82, 78]),
   midi.NoteOnEvent(tick=120, channel=0, data=[82, 0]),
   midi.NoteOnEvent(tick=120, channel=0, data=[80, 0]),
   midi.NoteOnEvent(tick=0, channel=0, data=[74, 76]),
   midi.NoteOnEvent(tick=0, channel=0, data=[82, 76]),
   midi.NoteOnEvent(tick=240, channel=0, data=[82, 0]),
   midi.NoteOnEvent(tick=0, channel=0, data=[74, 0]),
   midi.NoteOnEvent(tick=0, channel=0, data=[75, 80]),
   midi.NoteOnEvent(tick=0, channel=0, data=[84, 80]),
   midi.NoteOnEvent(tick=240, channel=0, data=[84, 0]),
   midi.NoteOnEvent(tick=0, channel=0, data=[75, 0]),
   midi.NoteOnEvent(tick=0, channel=0, data=[77, 75]),
   midi.NoteOnEvent(tick=0, channel=0, data=[86, 75]),
   midi.NoteOnEvent(tick=240, channel=0, data=[86, 0]),
   midi.NoteOnEvent(tick=0, channel=0, data=[77, 0]),
   midi.NoteOnEvent(tick=0, channel=0, data=[87, 86]),
   midi.NoteOnEvent(tick=0, channel=0, data=[75, 86]),
   midi.NoteOnEvent(tick=300, channel=0, data=[87, 0]),
   midi.NoteOnEvent(tick=0, channel=0, data=[86, 68]),
   midi.NoteOnEvent(tick=60, channel=0, data=[86, 0]),
   midi.NoteOnEvent(tick=0, channel=0, data=[87, 70]),
   midi.NoteOnEvent(tick=60, channel=0, data=[87, 0]),
   midi.NoteOnEvent(tick=0, channel=0, data=[82, 66]),
   midi.NoteOnEvent(tick=60, channel=0, data=[82, 0]),
   midi.NoteOnEvent(tick=0, channel=0, data=[79, 61]),
   midi.NoteOnEvent(tick=120, channel=0, data=[79, 0]),
   midi.NoteOnEvent(tick=120, channel=0, data=[75, 0]),
   midi.NoteOnEvent(tick=0, channel=0, data=[79, 54]),
   midi.NoteOnEvent(tick=0, channel=0, data=[82, 54]),
   midi.NoteOnEvent(tick=240, channel=0, data=[82, 0]),
   midi.NoteOnEvent(tick=0, channel=0, data=[79, 0]),
   midi.NoteOnEvent(tick=0, channel=0, data=[77, 54]),
   midi.NoteOnEvent(tick=0, channel=0, data=[80, 54]),
   midi.NoteOnEvent(tick=240, channel=0, data=[80, 0]),
   midi.NoteOnEvent(tick=0, channel=0, data=[77, 0]),
   midi.NoteOnEvent(tick=0, channel=0, data=[75, 54]),
   midi.NoteOnEvent(tick=0, channel=0, data=[79, 54]),
   midi.NoteOnEvent(tick=240, channel=0, data=[79, 0]),
   midi.NoteOnEvent(tick=0, channel=0, data=[75, 0]),
   midi.NoteOnEvent(tick=0, channel=0, data=[76, 51]),
   midi.NoteOnEvent(tick=60, channel=0, data=[76, 0]),
   midi.NoteOnEvent(tick=0, channel=0, data=[77, 50]),
   midi.NoteOnEvent(tick=60, channel=0, data=[77, 0]),
   midi.NoteOnEvent(tick=0, channel=0, data=[79, 56]),
   midi.NoteOnEvent(tick=60, channel=0, data=[79, 0]),
   midi.NoteOnEvent(tick=0, channel=0, data=[77, 55]),
   midi.NoteOnEvent(tick=60, channel=0, data=[77, 0]),
   midi.NoteOnEvent(tick=0, channel=0, data=[80, 59]),
   midi.NoteOnEvent(tick=60, channel=0, data=[80, 0]),
   midi.NoteOnEvent(tick=0, channel=0, data=[79, 58]),
   midi.NoteOnEvent(tick=60, channel=0, data=[79, 0]),
   midi.NoteOnEvent(tick=0, channel=0, data=[82, 62]),
   midi.NoteOnEvent(tick=60, channel=0, data=[82, 0]),
   midi.NoteOnEvent(tick=0, channel=0, data=[80, 60]),
   midi.NoteOnEvent(tick=60, channel=0, data=[80, 0]),
   midi.NoteOnEvent(tick=0, channel=0, data=[84, 66]),
   midi.NoteOnEvent(tick=480, channel=0, data=[84, 0]),
   midi.NoteOnEvent(tick=0, channel=0, data=[82, 59]),
   midi.NoteOnEvent(tick=240, channel=0, data=[82, 0]),
   midi.NoteOnEvent(tick=180, channel=0, data=[74, 53]),
   midi.NoteOnEvent(tick=60, channel=0, data=[74, 0]),
   midi.NoteOnEvent(tick=0, channel=0, data=[75, 56]),
   midi.NoteOnEvent(tick=480, channel=0, data=[75, 0]),
   midi.NoteOnEvent(tick=240, channel=0, data=[85, 69]),
   midi.NoteOnEvent(tick=240, channel=0, data=[85, 0]),
   midi.NoteOnEvent(tick=0, channel=0, data=[84, 72]),
   midi.NoteOnEvent(tick=240, channel=0, data=[84, 0]),
   midi.NoteOnEvent(tick=0, channel=0, data=[86, 75]),
   midi.NoteOnEvent(tick=240, channel=0, data=[86, 0]),
   midi.NoteOnEvent(tick=0, channel=0, data=[89, 81]),
   midi.NoteOnEvent(tick=240, channel=0, data=[89, 0]),
   midi.NoteOnEvent(tick=0, channel=0, data=[87, 78]),
   midi.NoteOnEvent(tick=240, channel=0, data=[87, 0]),
   midi.NoteOnEvent(tick=240, channel=0, data=[73, 72]),
   midi.NoteOnEvent(tick=240, channel=0, data=[73, 0]),
   midi.NoteOnEvent(tick=0, channel=0, data=[72, 74]),
   midi.NoteOnEvent(tick=240, channel=0, data=[72, 0]),
   midi.NoteOnEvent(tick=0, channel=0, data=[68, 69]),
   midi.NoteOnEvent(tick=0, channel=0, data=[74, 69]),
   midi.NoteOnEvent(tick=240, channel=0, data=[74, 0]),
   midi.NoteOnEvent(tick=0, channel=0, data=[68, 0]),
   midi.NoteOnEvent(tick=0, channel=0, data=[77, 59]),
   midi.NoteOnEvent(tick=0, channel=0, data=[68, 59]),
   midi.NoteOnEvent(tick=480, channel=0, data=[68, 0]),
   midi.NoteOnEvent(tick=0, channel=0, data=[77, 0]),
   midi.NoteOnEvent(tick=0, channel=0, data=[67, 52]),
   midi.NoteOnEvent(tick=0, channel=0, data=[75, 52]),
   midi.NoteOnEvent(tick=240, channel=0, data=[75, 0]),
   midi.NoteOnEvent(tick=0, channel=0, data=[67, 0]),
   midi.NoteOnEvent(tick=0, channel=0, data=[62, 47]),
   midi.NoteOnEvent(tick=0, channel=0, data=[65, 47]),
   midi.NoteOnEvent(tick=240, channel=0, data=[65, 0]),
   midi.NoteOnEvent(tick=0, channel=0, data=[62, 0]),
   midi.NoteOnEvent(tick=0, channel=0, data=[63, 52]),
   midi.NoteOnEvent(tick=0, channel=0, data=[67, 52]),
   midi.NoteOnEvent(tick=240, channel=0, data=[67, 0]),
   midi.NoteOnEvent(tick=0, channel=0, data=[63, 0]),
   midi.NoteOnEvent(tick=0, channel=0, data=[65, 54]),
   midi.NoteOnEvent(tick=0, channel=0, data=[68, 54]),
   midi.NoteOnEvent(tick=240, channel=0, data=[68, 0]),
   midi.NoteOnEvent(tick=0, channel=0, data=[65, 0]),
   midi.ControlChangeEvent(tick=0, channel=0, data=[91, 127]),
   midi.NoteOnEvent(tick=0, channel=0, data=[66, 67]),
   midi.NoteOnEvent(tick=0, channel=0, data=[69, 67]),
   midi.NoteOnEvent(tick=480, channel=0, data=[69, 0]),
   midi.NoteOnEvent(tick=0, channel=0, data=[66, 0]),
   midi.NoteOnEvent(tick=0, channel=0, data=[67, 62]),
   midi.NoteOnEvent(tick=0, channel=0, data=[70, 62]),
   midi.NoteOnEvent(tick=240, channel=0, data=[70, 0]),
   midi.NoteOnEvent(tick=0, channel=0, data=[67, 0]),
   midi.NoteOnEvent(tick=0, channel=0, data=[70, 54]),
   midi.NoteOnEvent(tick=0, channel=0, data=[73, 54]),
   midi.NoteOnEvent(tick=240, channel=0, data=[73, 0]),
   midi.NoteOnEvent(tick=0, channel=0, data=[70, 0]),
   midi.NoteOnEvent(tick=0, channel=0, data=[64, 56]),
   midi.NoteOnEvent(tick=0, channel=0, data=[67, 56]),
   midi.NoteOnEvent(tick=240, channel=0, data=[67, 0]),
   midi.NoteOnEvent(tick=0, channel=0, data=[64, 0]),
   midi.NoteOnEvent(tick=0, channel=0, data=[68, 51]),
   midi.NoteOnEvent(tick=0, channel=0, data=[72, 51]),
   midi.NoteOnEvent(tick=240, channel=0, data=[72, 0]),
   midi.NoteOnEvent(tick=0, channel=0, data=[68, 0]),
   midi.NoteOnEvent(tick=0, channel=0, data=[67, 55]),
   midi.NoteOnEvent(tick=0, channel=0, data=[70, 55]),
   midi.NoteOnEvent(tick=480, channel=0, data=[70, 0]),
   midi.NoteOnEvent(tick=0, channel=0, data=[67, 0]),
   midi.NoteOnEvent(tick=0, channel=0, data=[65, 52]),
   midi.NoteOnEvent(tick=0, channel=0, data=[68, 52]),
   midi.NoteOnEvent(tick=240, channel=0, data=[68, 0]),
   midi.NoteOnEvent(tick=0, channel=0, data=[65, 0]),
   midi.NoteOnEvent(tick=0, channel=0, data=[77, 54]),
   midi.NoteOnEvent(tick=216, channel=0, data=[77, 0]),
   midi.NoteOnEvent(tick=24, channel=0, data=[77, 54]),
   midi.NoteOnEvent(tick=216, channel=0, data=[77, 0]),
   midi.NoteOnEvent(tick=24, channel=0, data=[77, 54]),
   midi.NoteOnEvent(tick=216, channel=0, data=[77, 0]),
   midi.NoteOnEvent(tick=24, channel=0, data=[78, 62]),
   midi.NoteOnEvent(tick=480, channel=0, data=[78, 0]),
   midi.NoteOnEvent(tick=0, channel=0, data=[79, 56]),
   midi.NoteOnEvent(tick=240, channel=0, data=[79, 0]),
   midi.NoteOnEvent(tick=0, channel=0, data=[82, 63]),
   midi.NoteOnEvent(tick=480, channel=0, data=[82, 0]),
   midi.NoteOnEvent(tick=0, channel=0, data=[76, 57]),
   midi.NoteOnEvent(tick=240, channel=0, data=[76, 0]),
   midi.NoteOnEvent(tick=0, channel=0, data=[79, 64]),
   midi.NoteOnEvent(tick=480, channel=0, data=[79, 0]),
   midi.NoteOnEvent(tick=0, channel=0, data=[77, 60]),
   midi.NoteOnEvent(tick=240, channel=0, data=[77, 0]),
   midi.NoteOnEvent(tick=960, channel=0, data=[80, 59]),
   midi.NoteOnEvent(tick=240, channel=0, data=[80, 0]),
   midi.NoteOnEvent(tick=0, channel=0, data=[79, 61]),
   midi.NoteOnEvent(tick=120, channel=0, data=[79, 0]),
   midi.NoteOnEvent(tick=0, channel=0, data=[77, 59]),
   midi.NoteOnEvent(tick=120, channel=0, data=[77, 0]),
   midi.NoteOnEvent(tick=0, channel=0, data=[75, 57]),
   midi.NoteOnEvent(tick=120, channel=0, data=[75, 0]),
   midi.NoteOnEvent(tick=0, channel=0, data=[73, 57]),
   midi.NoteOnEvent(tick=120, channel=0, data=[73, 0]),
   midi.NoteOnEvent(tick=0, channel=0, data=[72, 59]),
   midi.NoteOnEvent(tick=120, channel=0, data=[72, 0]),
   midi.NoteOnEvent(tick=0, channel=0, data=[73, 62]),
   midi.NoteOnEvent(tick=120, channel=0, data=[73, 0]),
   midi.NoteOnEvent(tick=0, channel=0, data=[77, 66]),
   midi.NoteOnEvent(tick=120, channel=0, data=[77, 0]),
   midi.NoteOnEvent(tick=0, channel=0, data=[73, 60]),
   midi.NoteOnEvent(tick=120, channel=0, data=[73, 0]),
   midi.NoteOnEvent(tick=0, channel=0, data=[62, 57]),
   midi.NoteOnEvent(tick=0, channel=0, data=[68, 57]),
   midi.NoteOnEvent(tick=0, channel=0, data=[72, 57]),
   midi.NoteOnEvent(tick=480, channel=0, data=[72, 0]),
   midi.NoteOnEvent(tick=0, channel=0, data=[71, 47]),
   midi.NoteOnEvent(tick=960, channel=0, data=[71, 0]),
   midi.NoteOnEvent(tick=0, channel=0, data=[68, 0]),
   midi.NoteOnEvent(tick=0, channel=0, data=[62, 0]),
   midi.NoteOnEvent(tick=240, channel=0, data=[63, 53]),
   midi.NoteOnEvent(tick=0, channel=0, data=[72, 53]),
   midi.NoteOnEvent(tick=240, channel=0, data=[72, 0]),
   midi.NoteOnEvent(tick=0, channel=0, data=[71, 56]),
   midi.NoteOnEvent(tick=120, channel=0, data=[71, 0]),
   midi.NoteOnEvent(tick=0, channel=0, data=[72, 58]),
   midi.NoteOnEvent(tick=120, channel=0, data=[72, 0]),
   midi.NoteOnEvent(tick=0, channel=0, data=[63, 0]),
   midi.NoteOnEvent(tick=0, channel=0, data=[63, 50]),
   midi.NoteOnEvent(tick=0, channel=0, data=[74, 59]),
   midi.NoteOnEvent(tick=120, channel=0, data=[74, 0]),
   midi.NoteOnEvent(tick=0, channel=0, data=[72, 56]),
   midi.NoteOnEvent(tick=120, channel=0, data=[72, 0]),
   midi.NoteOnEvent(tick=0, channel=0, data=[71, 56]),
   midi.NoteOnEvent(tick=120, channel=0, data=[71, 0]),
   midi.NoteOnEvent(tick=0, channel=0, data=[72, 59]),
   midi.NoteOnEvent(tick=120, channel=0, data=[72, 0]),
   midi.NoteOnEvent(tick=0, channel=0, data=[63, 0]),
   midi.NoteOnEvent(tick=0, channel=0, data=[63, 61]),
   midi.NoteOnEvent(tick=0, channel=0, data=[75, 61]),
   midi.NoteOnEvent(tick=120, channel=0, data=[75, 0]),
   midi.NoteOnEvent(tick=0, channel=0, data=[74, 60]),
   midi.NoteOnEvent(tick=120, channel=0, data=[74, 0]),
   midi.NoteOnEvent(tick=0, channel=0, data=[71, 66]),
   midi.NoteOnEvent(tick=480, channel=0, data=[71, 0]),
   midi.NoteOnEvent(tick=0, channel=0, data=[63, 0]),
   midi.NoteOnEvent(tick=0, channel=0, data=[63, 60]),
   midi.NoteOnEvent(tick=0, channel=0, data=[72, 60]),
   midi.NoteOnEvent(tick=960, channel=0, data=[72, 0]),
   midi.NoteOnEvent(tick=0, channel=0, data=[63, 0]),
   midi.NoteOnEvent(tick=240, channel=0, data=[63, 62]),
   midi.NoteOnEvent(tick=0, channel=0, data=[72, 62]),
   midi.NoteOnEvent(tick=216, channel=0, data=[72, 0]),
   midi.NoteOnEvent(tick=0, channel=0, data=[63, 0]),
   midi.NoteOnEvent(tick=24, channel=0, data=[63, 64]),
   midi.NoteOnEvent(tick=0, channel=0, data=[72, 64]),
   midi.NoteOnEvent(tick=216, channel=0, data=[72, 0]),
   midi.NoteOnEvent(tick=0, channel=0, data=[63, 0]),
   midi.NoteOnEvent(tick=24, channel=0, data=[63, 67]),
   midi.NoteOnEvent(tick=0, channel=0, data=[72, 67]),
   midi.NoteOnEvent(tick=216, channel=0, data=[72, 0]),
   midi.NoteOnEvent(tick=0, channel=0, data=[63, 0]),
   midi.NoteOnEvent(tick=24, channel=0, data=[63, 70]),
   midi.NoteOnEvent(tick=0, channel=0, data=[72, 70]),
   midi.NoteOnEvent(tick=216, channel=0, data=[72, 0]),
   midi.NoteOnEvent(tick=0, channel=0, data=[63, 0]),
   midi.NoteOnEvent(tick=24, channel=0, data=[63, 72]),
   midi.NoteOnEvent(tick=0, channel=0, data=[72, 72]),
   midi.NoteOnEvent(tick=216, channel=0, data=[72, 0]),
   midi.NoteOnEvent(tick=0, channel=0, data=[63, 0]),
   midi.NoteOnEvent(tick=24, channel=0, data=[73, 74]),
   midi.NoteOnEvent(tick=0, channel=0, data=[63, 74]),
   midi.NoteOnEvent(tick=300, channel=0, data=[73, 0]),
   midi.NoteOnEvent(tick=0, channel=0, data=[72, 62]),
   midi.NoteOnEvent(tick=60, channel=0, data=[72, 0]),
   midi.NoteOnEvent(tick=0, channel=0, data=[70, 57]),
   midi.NoteOnEvent(tick=60, channel=0, data=[70, 0]),
   midi.NoteOnEvent(tick=0, channel=0, data=[68, 54]),
   midi.NoteOnEvent(tick=60, channel=0, data=[68, 0]),
   midi.NoteOnEvent(tick=0, channel=0, data=[67, 66]),
   midi.NoteOnEvent(tick=240, channel=0, data=[67, 0]),
   midi.NoteOnEvent(tick=0, channel=0, data=[63, 0]),
   midi.NoteOnEvent(tick=0, channel=0, data=[79, 67]),
   midi.NoteOnEvent(tick=240, channel=0, data=[79, 0]),
   midi.NoteOnEvent(tick=0, channel=0, data=[80, 67]),
   midi.NoteOnEvent(tick=240, channel=0, data=[80, 0]),
   midi.NoteOnEvent(tick=0, channel=0, data=[72, 65]),
   midi.NoteOnEvent(tick=360, channel=0, data=[72, 0]),
   midi.NoteOnEvent(tick=0, channel=0, data=[70, 56]),
   midi.NoteOnEvent(tick=120, channel=0, data=[70, 0]),
   midi.NoteOnEvent(tick=0, channel=0, data=[73, 60]),
   midi.NoteOnEvent(tick=120, channel=0, data=[73, 0]),
   midi.NoteOnEvent(tick=0, channel=0, data=[77, 55]),
   midi.NoteOnEvent(tick=120, channel=0, data=[77, 0]),
   midi.NoteOnEvent(tick=0, channel=0, data=[68, 63]),
   midi.NoteOnEvent(tick=720, channel=0, data=[68, 0]),
   midi.NoteOnEvent(tick=0, channel=0, data=[67, 55]),
   midi.NoteOnEvent(tick=0, channel=0, data=[72, 55]),
   midi.NoteOnEvent(tick=120, channel=0, data=[72, 0]),
   midi.NoteOnEvent(tick=0, channel=0, data=[70, 55]),
   midi.NoteOnEvent(tick=120, channel=0, data=[70, 0]),
   midi.NoteOnEvent(tick=0, channel=0, data=[67, 0]),
   midi.NoteOnEvent(tick=0, channel=0, data=[68, 46]),
   midi.NoteOnEvent(tick=480, channel=0, data=[68, 0]),
   midi.NoteOnEvent(tick=240, channel=0, data=[68, 46]),
   midi.NoteOnEvent(tick=0, channel=0, data=[72, 46]),
   midi.NoteOnEvent(tick=240, channel=0, data=[72, 0]),
   midi.NoteOnEvent(tick=0, channel=0, data=[68, 0]),
   midi.NoteOnEvent(tick=0, channel=0, data=[68, 49]),
   midi.NoteOnEvent(tick=0, channel=0, data=[72, 49]),
   midi.NoteOnEvent(tick=240, channel=0, data=[72, 0]),
   midi.NoteOnEvent(tick=0, channel=0, data=[68, 0]),
   midi.NoteOnEvent(tick=0, channel=0, data=[68, 46]),
   midi.NoteOnEvent(tick=0, channel=0, data=[72, 46]),
   midi.NoteOnEvent(tick=240, channel=0, data=[72, 0]),
   midi.NoteOnEvent(tick=0, channel=0, data=[68, 0]),
   midi.NoteOnEvent(tick=0, channel=0, data=[70, 58]),
   midi.NoteOnEvent(tick=0, channel=0, data=[72, 58]),
   midi.NoteOnEvent(tick=0, channel=0, data=[77, 58]),
   midi.NoteOnEvent(tick=240, channel=0, data=[77, 0]),
   midi.NoteOnEvent(tick=0, channel=0, data=[76, 46]),
   midi.NoteOnEvent(tick=480, channel=0, data=[76, 0]),
   midi.NoteOnEvent(tick=0, channel=0, data=[72, 0]),
   midi.NoteOnEvent(tick=0, channel=0, data=[70, 0]),
   midi.NoteOnEvent(tick=0, channel=0, data=[70, 47]),
   midi.NoteOnEvent(tick=0, channel=0, data=[72, 47]),
   midi.NoteOnEvent(tick=240, channel=0, data=[72, 0]),
   midi.NoteOnEvent(tick=0, channel=0, data=[70, 0]),
   midi.NoteOnEvent(tick=0, channel=0, data=[70, 51]),
   midi.NoteOnEvent(tick=0, channel=0, data=[72, 51]),
   midi.NoteOnEvent(tick=240, channel=0, data=[72, 0]),
   midi.NoteOnEvent(tick=0, channel=0, data=[70, 0]),
   midi.NoteOnEvent(tick=0, channel=0, data=[70, 47]),
   midi.NoteOnEvent(tick=0, channel=0, data=[72, 47]),
   midi.NoteOnEvent(tick=240, channel=0, data=[72, 0]),
   midi.NoteOnEvent(tick=0, channel=0, data=[70, 0]),
   midi.NoteOnEvent(tick=0, channel=0, data=[79, 59]),
   midi.NoteOnEvent(tick=0, channel=0, data=[68, 59]),
   midi.NoteOnEvent(tick=0, channel=0, data=[72, 59]),
   midi.NoteOnEvent(tick=240, channel=0, data=[79, 0]),
   midi.NoteOnEvent(tick=0, channel=0, data=[77, 51]),
   midi.NoteOnEvent(tick=480, channel=0, data=[77, 0]),
   midi.NoteOnEvent(tick=0, channel=0, data=[72, 0]),
   midi.NoteOnEvent(tick=0, channel=0, data=[68, 0]),
   midi.NoteOnEvent(tick=0, channel=0, data=[68, 51]),
   midi.NoteOnEvent(tick=0, channel=0, data=[72, 51]),
   midi.NoteOnEvent(tick=240, channel=0, data=[72, 0]),
   midi.NoteOnEvent(tick=0, channel=0, data=[68, 0]),
   midi.NoteOnEvent(tick=0, channel=0, data=[68, 54]),
   midi.NoteOnEvent(tick=0, channel=0, data=[72, 54]),
   midi.NoteOnEvent(tick=240, channel=0, data=[72, 0]),
   midi.NoteOnEvent(tick=0, channel=0, data=[68, 0]),
   midi.NoteOnEvent(tick=0, channel=0, data=[68, 49]),
   midi.NoteOnEvent(tick=0, channel=0, data=[72, 49]),
   midi.NoteOnEvent(tick=240, channel=0, data=[72, 0]),
   midi.NoteOnEvent(tick=0, channel=0, data=[68, 0]),
   midi.NoteOnEvent(tick=0, channel=0, data=[80, 64]),
   midi.NoteOnEvent(tick=0, channel=0, data=[68, 64]),
   midi.NoteOnEvent(tick=0, channel=0, data=[72, 64]),
   midi.NoteOnEvent(tick=240, channel=0, data=[80, 0]),
   midi.NoteOnEvent(tick=0, channel=0, data=[78, 60]),
   midi.NoteOnEvent(tick=480, channel=0, data=[78, 0]),
   midi.NoteOnEvent(tick=0, channel=0, data=[72, 0]),
   midi.NoteOnEvent(tick=0, channel=0, data=[68, 0]),
   midi.NoteOnEvent(tick=0, channel=0, data=[68, 50]),
   midi.NoteOnEvent(tick=0, channel=0, data=[72, 50]),
   midi.NoteOnEvent(tick=216, channel=0, data=[72, 0]),
   midi.NoteOnEvent(tick=0, channel=0, data=[68, 0]),
   midi.NoteOnEvent(tick=24, channel=0, data=[68, 55]),
   midi.NoteOnEvent(tick=0, channel=0, data=[72, 55]),
   midi.NoteOnEvent(tick=216, channel=0, data=[72, 0]),
   midi.NoteOnEvent(tick=0, channel=0, data=[68, 0]),
   midi.NoteOnEvent(tick=24, channel=0, data=[68, 51]),
   midi.NoteOnEvent(tick=0, channel=0, data=[72, 51]),
   midi.NoteOnEvent(tick=216, channel=0, data=[72, 0]),
   midi.NoteOnEvent(tick=0, channel=0, data=[68, 0]),
   midi.NoteOnEvent(tick=24, channel=0, data=[78, 61]),
   midi.NoteOnEvent(tick=0, channel=0, data=[68, 61]),
   midi.NoteOnEvent(tick=0, channel=0, data=[73, 61]),
   midi.NoteOnEvent(tick=240, channel=0, data=[78, 0]),
   midi.NoteOnEvent(tick=0, channel=0, data=[76, 56]),
   midi.NoteOnEvent(tick=480, channel=0, data=[76, 0]),
   midi.NoteOnEvent(tick=0, channel=0, data=[73, 0]),
   midi.NoteOnEvent(tick=0, channel=0, data=[68, 0]),
   midi.NoteOnEvent(tick=0, channel=0, data=[68, 59]),
   midi.NoteOnEvent(tick=0, channel=0, data=[76, 59]),
   midi.NoteOnEvent(tick=240, channel=0, data=[76, 0]),
   midi.NoteOnEvent(tick=0, channel=0, data=[68, 0]),
   midi.NoteOnEvent(tick=0, channel=0, data=[68, 64]),
   midi.NoteOnEvent(tick=0, channel=0, data=[76, 64]),
   midi.NoteOnEvent(tick=240, channel=0, data=[76, 0]),
   midi.NoteOnEvent(tick=0, channel=0, data=[68, 0]),
   midi.NoteOnEvent(tick=0, channel=0, data=[68, 59]),
   midi.NoteOnEvent(tick=0, channel=0, data=[75, 59]),
   midi.NoteOnEvent(tick=240, channel=0, data=[75, 0]),
   midi.NoteOnEvent(tick=0, channel=0, data=[68, 0]),
   midi.NoteOnEvent(tick=0, channel=0, data=[68, 65]),
   midi.NoteOnEvent(tick=0, channel=0, data=[75, 65]),
   midi.NoteOnEvent(tick=360, channel=0, data=[75, 0]),
   midi.NoteOnEvent(tick=0, channel=0, data=[77, 52]),
   midi.NoteOnEvent(tick=60, channel=0, data=[77, 0]),
   midi.NoteOnEvent(tick=0, channel=0, data=[75, 49]),
   midi.NoteOnEvent(tick=60, channel=0, data=[75, 0]),
   midi.NoteOnEvent(tick=0, channel=0, data=[74, 52]),
   midi.NoteOnEvent(tick=240, channel=0, data=[74, 0]),
   midi.NoteOnEvent(tick=0, channel=0, data=[68, 0]),
   midi.NoteOnEvent(tick=0, channel=0, data=[62, 45]),
   midi.NoteOnEvent(tick=0, channel=0, data=[68, 45]),
   midi.NoteOnEvent(tick=240, channel=0, data=[68, 0]),
   midi.NoteOnEvent(tick=0, channel=0, data=[62, 0]),
   midi.NoteOnEvent(tick=0, channel=0, data=[62, 47]),
   midi.NoteOnEvent(tick=0, channel=0, data=[68, 47]),
   midi.NoteOnEvent(tick=240, channel=0, data=[68, 0]),
   midi.NoteOnEvent(tick=0, channel=0, data=[62, 0]),
   midi.NoteOnEvent(tick=0, channel=0, data=[62, 45]),
   midi.NoteOnEvent(tick=0, channel=0, data=[68, 45]),
   midi.NoteOnEvent(tick=240, channel=0, data=[68, 0]),
   midi.NoteOnEvent(tick=0, channel=0, data=[62, 0]),
   midi.NoteOnEvent(tick=0, channel=0, data=[62, 47]),
   midi.NoteOnEvent(tick=0, channel=0, data=[68, 47]),
   midi.NoteOnEvent(tick=480, channel=0, data=[68, 0]),
   midi.NoteOnEvent(tick=0, channel=0, data=[62, 0]),
   midi.NoteOnEvent(tick=240, channel=0, data=[74, 39]),
   midi.NoteOnEvent(tick=0, channel=0, data=[80, 39]),
   midi.NoteOnEvent(tick=216, channel=0, data=[80, 0]),
   midi.NoteOnEvent(tick=0, channel=0, data=[74, 0]),
   midi.NoteOnEvent(tick=24, channel=0, data=[74, 39]),
   midi.NoteOnEvent(tick=0, channel=0, data=[80, 39]),
   midi.NoteOnEvent(tick=216, channel=0, data=[80, 0]),
   midi.NoteOnEvent(tick=0, channel=0, data=[74, 0]),
   midi.NoteOnEvent(tick=24, channel=0, data=[74, 39]),
   midi.NoteOnEvent(tick=0, channel=0, data=[80, 39]),
   midi.NoteOnEvent(tick=216, channel=0, data=[80, 0]),
   midi.NoteOnEvent(tick=0, channel=0, data=[74, 0]),
   midi.NoteOnEvent(tick=24, channel=0, data=[74, 43]),
   midi.NoteOnEvent(tick=0, channel=0, data=[80, 43]),
   midi.NoteOnEvent(tick=240, channel=0, data=[80, 0]),
   midi.NoteOnEvent(tick=0, channel=0, data=[82, 34]),
   midi.NoteOnEvent(tick=30, channel=0, data=[82, 0]),
   midi.NoteOnEvent(tick=0, channel=0, data=[80, 36]),
   midi.NoteOnEvent(tick=30, channel=0, data=[80, 0]),
   midi.NoteOnEvent(tick=0, channel=0, data=[79, 39]),
   midi.NoteOnEvent(tick=30, channel=0, data=[79, 0]),
   midi.NoteOnEvent(tick=0, channel=0, data=[80, 41]),
   midi.NoteOnEvent(tick=30, channel=0, data=[80, 0]),
   midi.NoteOnEvent(tick=0, channel=0, data=[82, 40]),
   midi.NoteOnEvent(tick=60, channel=0, data=[82, 0]),
   midi.NoteOnEvent(tick=0, channel=0, data=[84, 37]),
   midi.NoteOnEvent(tick=60, channel=0, data=[84, 0]),
   midi.NoteOnEvent(tick=0, channel=0, data=[74, 0]),
   midi.NoteOnEvent(tick=0, channel=0, data=[82, 43]),
   midi.NoteOnEvent(tick=120, channel=0, data=[82, 0]),
   midi.NoteOnEvent(tick=0, channel=0, data=[80, 40]),
   midi.NoteOnEvent(tick=120, channel=0, data=[80, 0]),
   midi.NoteOnEvent(tick=0, channel=0, data=[79, 44]),
   midi.NoteOnEvent(tick=120, channel=0, data=[79, 0]),
   midi.NoteOnEvent(tick=0, channel=0, data=[77, 44]),
   midi.NoteOnEvent(tick=120, channel=0, data=[77, 0]),
   midi.NoteOnEvent(tick=0, channel=0, data=[75, 46]),
   midi.NoteOnEvent(tick=120, channel=0, data=[75, 0]),
   midi.NoteOnEvent(tick=0, channel=0, data=[74, 44]),
   midi.NoteOnEvent(tick=120, channel=0, data=[74, 0]),
   midi.NoteOnEvent(tick=0, channel=0, data=[72, 44]),
   midi.NoteOnEvent(tick=120, channel=0, data=[72, 0]),
   midi.NoteOnEvent(tick=0, channel=0, data=[70, 44]),
   midi.NoteOnEvent(tick=110, channel=0, data=[70, 0]),
   midi.ControlChangeEvent(tick=10, channel=0, data=[91, 127]),
   midi.NoteOnEvent(tick=1, channel=0, data=[70, 46]),
   midi.NoteOnEvent(tick=0, channel=0, data=[67, 46]),
   midi.NoteOnEvent(tick=359, channel=0, data=[72, 46]),
   midi.NoteOnEvent(tick=1, channel=0, data=[70, 0]),
   midi.NoteOnEvent(tick=59, channel=0, data=[72, 0]),
   midi.NoteOnEvent(tick=0, channel=0, data=[70, 46]),
   midi.NoteOnEvent(tick=60, channel=0, data=[70, 0]),
   midi.NoteOnEvent(tick=0, channel=0, data=[65, 44]),
   midi.NoteOnEvent(tick=0, channel=0, data=[68, 44]),
   midi.NoteOnEvent(tick=1, channel=0, data=[67, 0]),
   midi.NoteOnEvent(tick=239, channel=0, data=[68, 0]),
   midi.NoteOnEvent(tick=0, channel=0, data=[65, 0]),
   midi.NoteOnEvent(tick=0, channel=0, data=[63, 42]),
   midi.NoteOnEvent(tick=0, channel=0, data=[67, 42]),
   midi.NoteOnEvent(tick=240, channel=0, data=[67, 0]),
   midi.NoteOnEvent(tick=0, channel=0, data=[63, 0]),
   midi.NoteOnEvent(tick=0, channel=0, data=[68, 43]),
   midi.NoteOnEvent(tick=0, channel=0, data=[72, 43]),
   midi.NoteOnEvent(tick=240, channel=0, data=[72, 0]),
   midi.NoteOnEvent(tick=0, channel=0, data=[68, 0]),
   midi.NoteOnEvent(tick=0, channel=0, data=[67, 41]),
   midi.NoteOnEvent(tick=0, channel=0, data=[70, 41]),
   midi.NoteOnEvent(tick=230, channel=0, data=[70, 0]),
   midi.NoteOnEvent(tick=0, channel=0, data=[67, 0]),
   midi.NoteOnEvent(tick=10, channel=0, data=[70, 45]),
   midi.NoteOnEvent(tick=0, channel=0, data=[67, 45]),
   midi.NoteOnEvent(tick=360, channel=0, data=[70, 0]),
   midi.NoteOnEvent(tick=0, channel=0, data=[72, 42]),
   midi.NoteOnEvent(tick=60, channel=0, data=[72, 0]),
   midi.NoteOnEvent(tick=0, channel=0, data=[70, 42]),
   midi.NoteOnEvent(tick=60, channel=0, data=[70, 0]),
   midi.NoteOnEvent(tick=0, channel=0, data=[67, 0]),
   midi.NoteOnEvent(tick=0, channel=0, data=[68, 47]),
   midi.NoteOnEvent(tick=480, channel=0, data=[68, 0]),
   midi.NoteOnEvent(tick=0, channel=0, data=[67, 47]),
   midi.NoteOnEvent(tick=600, channel=0, data=[67, 0]),
   midi.NoteOnEvent(tick=0, channel=0, data=[64, 44]),
   midi.NoteOnEvent(tick=120, channel=0, data=[64, 0]),
   midi.NoteOnEvent(tick=0, channel=0, data=[65, 45]),
   midi.NoteOnEvent(tick=120, channel=0, data=[65, 0]),
   midi.NoteOnEvent(tick=0, channel=0, data=[67, 46]),
   midi.NoteOnEvent(tick=120, channel=0, data=[67, 0]),
   midi.NoteOnEvent(tick=0, channel=0, data=[68, 49]),
   midi.NoteOnEvent(tick=120, channel=0, data=[68, 0]),
   midi.NoteOnEvent(tick=0, channel=0, data=[69, 51]),
   midi.NoteOnEvent(tick=120, channel=0, data=[69, 0]),
   midi.NoteOnEvent(tick=0, channel=0, data=[70, 52]),
   midi.NoteOnEvent(tick=120, channel=0, data=[70, 0]),
   midi.NoteOnEvent(tick=0, channel=0, data=[71, 54]),
   midi.NoteOnEvent(tick=120, channel=0, data=[71, 0]),
   midi.NoteOnEvent(tick=0, channel=0, data=[74, 56]),
   midi.NoteOnEvent(tick=60, channel=0, data=[74, 0]),
   midi.NoteOnEvent(tick=0, channel=0, data=[72, 54]),
   midi.NoteOnEvent(tick=60, channel=0, data=[72, 0]),
   midi.NoteOnEvent(tick=0, channel=0, data=[71, 52]),
   midi.NoteOnEvent(tick=60, channel=0, data=[71, 0]),
   midi.NoteOnEvent(tick=0, channel=0, data=[72, 54]),
   midi.NoteOnEvent(tick=60, channel=0, data=[72, 0]),
   midi.NoteOnEvent(tick=0, channel=0, data=[70, 52]),
   midi.NoteOnEvent(tick=60, channel=0, data=[70, 0]),
   midi.NoteOnEvent(tick=0, channel=0, data=[68, 49]),
   midi.NoteOnEvent(tick=60, channel=0, data=[68, 0]),
   midi.NoteOnEvent(tick=0, channel=0, data=[67, 51]),
   midi.NoteOnEvent(tick=60, channel=0, data=[67, 0]),
   midi.NoteOnEvent(tick=0, channel=0, data=[65, 50]),
   midi.NoteOnEvent(tick=60, channel=0, data=[65, 0]),
   midi.NoteOnEvent(tick=0, channel=0, data=[55, 54]),
   midi.NoteOnEvent(tick=0, channel=0, data=[63, 54]),
   midi.NoteOnEvent(tick=480, channel=0, data=[63, 0]),
   midi.NoteOnEvent(tick=0, channel=0, data=[55, 0]),
   midi.NoteOnEvent(tick=0, channel=0, data=[53, 47]),
   midi.NoteOnEvent(tick=0, channel=0, data=[62, 47]),
   midi.NoteOnEvent(tick=60, channel=0, data=[62, 0]),
   midi.NoteOnEvent(tick=0, channel=0, data=[53, 0]),
   midi.NoteOnEvent(tick=0, channel=0, data=[58, 49]),
   midi.NoteOnEvent(tick=60, channel=0, data=[58, 0]),
   midi.NoteOnEvent(tick=0, channel=0, data=[57, 50]),
   midi.NoteOnEvent(tick=60, channel=0, data=[57, 0]),
   midi.NoteOnEvent(tick=0, channel=0, data=[58, 51]),
   midi.NoteOnEvent(tick=60, channel=0, data=[58, 0]),
   midi.NoteOnEvent(tick=0, channel=0, data=[59, 52]),
   midi.NoteOnEvent(tick=60, channel=0, data=[59, 0]),
   midi.NoteOnEvent(tick=0, channel=0, data=[60, 53]),
   midi.NoteOnEvent(tick=60, channel=0, data=[60, 0]),
   midi.NoteOnEvent(tick=0, channel=0, data=[61, 54]),
   midi.NoteOnEvent(tick=60, channel=0, data=[61, 0]),
   midi.NoteOnEvent(tick=0, channel=0, data=[62, 54]),
   midi.NoteOnEvent(tick=60, channel=0, data=[62, 0]),
   midi.NoteOnEvent(tick=0, channel=0, data=[63, 55]),
   midi.NoteOnEvent(tick=60, channel=0, data=[63, 0]),
   midi.NoteOnEvent(tick=0, channel=0, data=[64, 56]),
   midi.NoteOnEvent(tick=60, channel=0, data=[64, 0]),
   midi.NoteOnEvent(tick=0, channel=0, data=[65, 57]),
   midi.NoteOnEvent(tick=60, channel=0, data=[65, 0]),
   midi.NoteOnEvent(tick=0, channel=0, data=[66, 59]),
   midi.NoteOnEvent(tick=60, channel=0, data=[66, 0]),
   midi.NoteOnEvent(tick=0, channel=0, data=[67, 60]),
   midi.NoteOnEvent(tick=60, channel=0, data=[67, 0]),
   midi.NoteOnEvent(tick=0, channel=0, data=[68, 61]),
   midi.NoteOnEvent(tick=60, channel=0, data=[68, 0]),
   midi.NoteOnEvent(tick=0, channel=0, data=[69, 62]),
   midi.NoteOnEvent(tick=60, channel=0, data=[69, 0]),
   midi.NoteOnEvent(tick=0, channel=0, data=[70, 63]),
   midi.NoteOnEvent(tick=50, channel=0, data=[70, 0]),
   midi.NoteOnEvent(tick=10, channel=0, data=[67, 63]),
   midi.NoteOnEvent(tick=0, channel=0, data=[70, 63]),
   midi.NoteOnEvent(tick=360, channel=0, data=[70, 0]),
   midi.NoteOnEvent(tick=0, channel=0, data=[72, 57]),
   midi.NoteOnEvent(tick=60, channel=0, data=[72, 0]),
   midi.NoteOnEvent(tick=0, channel=0, data=[70, 53]),
   midi.NoteOnEvent(tick=60, channel=0, data=[70, 0]),
   midi.NoteOnEvent(tick=0, channel=0, data=[67, 0]),
   midi.NoteOnEvent(tick=0, channel=0, data=[68, 55]),
   midi.NoteOnEvent(tick=60, channel=0, data=[68, 0]),
   midi.NoteOnEvent(tick=0, channel=0, data=[67, 54]),
   midi.NoteOnEvent(tick=60, channel=0, data=[67, 0]),
   midi.NoteOnEvent(tick=0, channel=0, data=[72, 56]),
   midi.NoteOnEvent(tick=60, channel=0, data=[72, 0]),
   midi.NoteOnEvent(tick=0, channel=0, data=[70, 53]),
   midi.NoteOnEvent(tick=60, channel=0, data=[70, 0]),
   midi.NoteOnEvent(tick=0, channel=0, data=[75, 57]),
   midi.NoteOnEvent(tick=60, channel=0, data=[75, 0]),
   midi.NoteOnEvent(tick=0, channel=0, data=[74, 55]),
   midi.NoteOnEvent(tick=60, channel=0, data=[74, 0]),
   midi.NoteOnEvent(tick=0, channel=0, data=[77, 61]),
   midi.NoteOnEvent(tick=60, channel=0, data=[77, 0]),
   midi.NoteOnEvent(tick=0, channel=0, data=[75, 55]),
   midi.NoteOnEvent(tick=60, channel=0, data=[75, 0]),
   midi.NoteOnEvent(tick=0, channel=0, data=[80, 63]),
   midi.NoteOnEvent(tick=60, channel=0, data=[80, 0]),
   midi.NoteOnEvent(tick=0, channel=0, data=[79, 59]),
   midi.NoteOnEvent(tick=60, channel=0, data=[79, 0]),
   midi.NoteOnEvent(tick=0, channel=0, data=[78, 61]),
   midi.NoteOnEvent(tick=60, channel=0, data=[78, 0]),
   midi.NoteOnEvent(tick=0, channel=0, data=[79, 61]),
   midi.NoteOnEvent(tick=60, channel=0, data=[79, 0]),
   midi.NoteOnEvent(tick=0, channel=0, data=[77, 61]),
   midi.NoteOnEvent(tick=60, channel=0, data=[77, 0]),
   midi.NoteOnEvent(tick=0, channel=0, data=[75, 59]),
   midi.NoteOnEvent(tick=60, channel=0, data=[75, 0]),
   midi.NoteOnEvent(tick=0, channel=0, data=[74, 57]),
   midi.NoteOnEvent(tick=60, channel=0, data=[74, 0]),
   midi.NoteOnEvent(tick=0, channel=0, data=[72, 55]),
   midi.NoteOnEvent(tick=60, channel=0, data=[72, 0]),
   midi.NoteOnEvent(tick=0, channel=0, data=[70, 60]),
   midi.NoteOnEvent(tick=240, channel=0, data=[70, 0]),
   midi.NoteOnEvent(tick=0, channel=0, data=[69, 63]),
   midi.NoteOnEvent(tick=480, channel=0, data=[69, 0]),
   midi.NoteOnEvent(tick=0, channel=0, data=[68, 63]),
   midi.NoteOnEvent(tick=360, channel=0, data=[68, 0]),
   midi.NoteOnEvent(tick=0, channel=0, data=[67, 66]),
   midi.NoteOnEvent(tick=120, channel=0, data=[67, 0]),
   midi.NoteOnEvent(tick=0, channel=0, data=[75, 68]),
   midi.NoteOnEvent(tick=120, channel=0, data=[75, 0]),
   midi.NoteOnEvent(tick=0, channel=0, data=[73, 64]),
   midi.NoteOnEvent(tick=120, channel=0, data=[73, 0]),
   midi.NoteOnEvent(tick=0, channel=0, data=[71, 67]),
   midi.NoteOnEvent(tick=120, channel=0, data=[71, 0]),
   midi.NoteOnEvent(tick=0, channel=0, data=[72, 64]),
   midi.NoteOnEvent(tick=120, channel=0, data=[72, 0]),
   midi.NoteOnEvent(tick=0, channel=0, data=[74, 69]),
   midi.NoteOnEvent(tick=120, channel=0, data=[74, 0]),
   midi.NoteOnEvent(tick=0, channel=0, data=[75, 64]),
   midi.NoteOnEvent(tick=110, channel=0, data=[75, 0]),
   midi.NoteOnEvent(tick=10, channel=0, data=[75, 70]),
   midi.NoteOnEvent(tick=240, channel=0, data=[75, 0]),
   midi.NoteOnEvent(tick=0, channel=0, data=[70, 66]),
   midi.NoteOnEvent(tick=360, channel=0, data=[70, 0]),
   midi.NoteOnEvent(tick=0, channel=0, data=[72, 54]),
   midi.NoteOnEvent(tick=60, channel=0, data=[72, 0]),
   midi.NoteOnEvent(tick=0, channel=0, data=[70, 50]),
   midi.NoteOnEvent(tick=50, channel=0, data=[70, 0]),
   midi.NoteOnEvent(tick=10, channel=0, data=[70, 53]),
   midi.NoteOnEvent(tick=60, channel=0, data=[70, 0]),
   midi.NoteOnEvent(tick=0, channel=0, data=[68, 45]),
   midi.NoteOnEvent(tick=60, channel=0, data=[68, 0]),
   midi.NoteOnEvent(tick=0, channel=0, data=[67, 51]),
   midi.NoteOnEvent(tick=60, channel=0, data=[67, 0]),
   midi.NoteOnEvent(tick=0, channel=0, data=[65, 45]),
   midi.NoteOnEvent(tick=60, channel=0, data=[65, 0]),
   midi.NoteOnEvent(tick=0, channel=0, data=[63, 46]),
   midi.NoteOnEvent(tick=480, channel=0, data=[63, 0]),
   midi.NoteOnEvent(tick=240, channel=0, data=[67, 46]),
   midi.NoteOnEvent(tick=0, channel=0, data=[70, 46]),
   midi.NoteOnEvent(tick=240, channel=0, data=[70, 0]),
   midi.NoteOnEvent(tick=0, channel=0, data=[67, 0]),
   midi.NoteOnEvent(tick=0, channel=0, data=[67, 50]),
   midi.NoteOnEvent(tick=0, channel=0, data=[70, 50]),
   midi.NoteOnEvent(tick=240, channel=0, data=[70, 0]),
   midi.NoteOnEvent(tick=0, channel=0, data=[67, 0]),
   midi.NoteOnEvent(tick=0, channel=0, data=[67, 46]),
   midi.NoteOnEvent(tick=0, channel=0, data=[70, 46]),
   midi.NoteOnEvent(tick=240, channel=0, data=[70, 0]),
   midi.NoteOnEvent(tick=0, channel=0, data=[67, 0]),
   midi.NoteOnEvent(tick=0, channel=0, data=[68, 54]),
   midi.NoteOnEvent(tick=0, channel=0, data=[75, 54]),
   midi.NoteOnEvent(tick=240, channel=0, data=[75, 0]),
   midi.NoteOnEvent(tick=0, channel=0, data=[74, 46]),
   midi.NoteOnEvent(tick=480, channel=0, data=[74, 0]),
   midi.NoteOnEvent(tick=0, channel=0, data=[68, 0]),
   midi.NoteOnEvent(tick=0, channel=0, data=[82, 50]),
   midi.NoteOnEvent(tick=120, channel=0, data=[82, 0]),
   midi.NoteOnEvent(tick=0, channel=0, data=[80, 47]),
   midi.NoteOnEvent(tick=120, channel=0, data=[80, 0]),
   midi.NoteOnEvent(tick=0, channel=0, data=[79, 52]),
   midi.NoteOnEvent(tick=120, channel=0, data=[79, 0]),
   midi.NoteOnEvent(tick=0, channel=0, data=[77, 47]),
   midi.NoteOnEvent(tick=120, channel=0, data=[77, 0]),
   midi.NoteOnEvent(tick=0, channel=0, data=[75, 49]),
   midi.NoteOnEvent(tick=120, channel=0, data=[75, 0]),
   midi.NoteOnEvent(tick=0, channel=0, data=[74, 45]),
   midi.NoteOnEvent(tick=120, channel=0, data=[74, 0]),
   midi.NoteOnEvent(tick=0, channel=0, data=[77, 54]),
   midi.NoteOnEvent(tick=40, channel=0, data=[77, 0]),
   midi.NoteOnEvent(tick=0, channel=0, data=[75, 52]),
   midi.NoteOnEvent(tick=300, channel=0, data=[75, 0]),
   midi.NoteOnEvent(tick=20, channel=0, data=[74, 49]),
   midi.NoteOnEvent(tick=60, channel=0, data=[74, 0]),
   midi.NoteOnEvent(tick=0, channel=0, data=[72, 45]),
   midi.NoteOnEvent(tick=60, channel=0, data=[72, 0]),
   midi.NoteOnEvent(tick=0, channel=0, data=[70, 50]),
   midi.NoteOnEvent(tick=230, channel=0, data=[70, 0]),
   midi.NoteOnEvent(tick=10, channel=0, data=[67, 49]),
   midi.NoteOnEvent(tick=0, channel=0, data=[70, 49]),
   midi.NoteOnEvent(tick=216, channel=0, data=[70, 0]),
   midi.NoteOnEvent(tick=0, channel=0, data=[67, 0]),
   midi.NoteOnEvent(tick=24, channel=0, data=[67, 53]),
   midi.NoteOnEvent(tick=0, channel=0, data=[70, 53]),
   midi.NoteOnEvent(tick=216, channel=0, data=[70, 0]),
   midi.NoteOnEvent(tick=0, channel=0, data=[67, 0]),
   midi.NoteOnEvent(tick=24, channel=0, data=[67, 49]),
   midi.NoteOnEvent(tick=0, channel=0, data=[70, 49]),
   midi.NoteOnEvent(tick=216, channel=0, data=[70, 0]),
   midi.NoteOnEvent(tick=0, channel=0, data=[67, 0]),
   midi.NoteOnEvent(tick=24, channel=0, data=[68, 62]),
   midi.NoteOnEvent(tick=0, channel=0, data=[75, 62]),
   midi.NoteOnEvent(tick=120, channel=0, data=[75, 0]),
   midi.NoteOnEvent(tick=0, channel=0, data=[74, 55]),
   midi.NoteOnEvent(tick=120, channel=0, data=[74, 0]),
   midi.NoteOnEvent(tick=0, channel=0, data=[68, 0]),
   midi.NoteOnEvent(tick=0, channel=0, data=[84, 60]),
   midi.NoteOnEvent(tick=480, channel=0, data=[84, 0]),
   midi.NoteOnEvent(tick=0, channel=0, data=[82, 50]),
   midi.NoteOnEvent(tick=60, channel=0, data=[82, 0]),
   midi.NoteOnEvent(tick=0, channel=0, data=[80, 49]),
   midi.NoteOnEvent(tick=60, channel=0, data=[80, 0]),
   midi.NoteOnEvent(tick=0, channel=0, data=[84, 52]),
   midi.NoteOnEvent(tick=60, channel=0, data=[84, 0]),
   midi.NoteOnEvent(tick=0, channel=0, data=[80, 49]),
   midi.NoteOnEvent(tick=60, channel=0, data=[80, 0]),
   midi.NoteOnEvent(tick=0, channel=0, data=[79, 51]),
   midi.NoteOnEvent(tick=60, channel=0, data=[79, 0]),
   midi.NoteOnEvent(tick=0, channel=0, data=[77, 49]),
   midi.NoteOnEvent(tick=60, channel=0, data=[77, 0]),
   midi.NoteOnEvent(tick=0, channel=0, data=[80, 51]),
   midi.NoteOnEvent(tick=60, channel=0, data=[80, 0]),
   midi.NoteOnEvent(tick=0, channel=0, data=[77, 49]),
   midi.NoteOnEvent(tick=60, channel=0, data=[77, 0]),
   midi.NoteOnEvent(tick=0, channel=0, data=[75, 51]),
   midi.NoteOnEvent(tick=60, channel=0, data=[75, 0]),
   midi.NoteOnEvent(tick=0, channel=0, data=[74, 49]),
   midi.NoteOnEvent(tick=60, channel=0, data=[74, 0]),
   midi.NoteOnEvent(tick=0, channel=0, data=[77, 52]),
   midi.NoteOnEvent(tick=60, channel=0, data=[77, 0]),
   midi.NoteOnEvent(tick=0, channel=0, data=[74, 49]),
   midi.NoteOnEvent(tick=60, channel=0, data=[74, 0]),
   midi.NoteOnEvent(tick=0, channel=0, data=[75, 54]),
   midi.NoteOnEvent(tick=60, channel=0, data=[75, 0]),
   midi.NoteOnEvent(tick=0, channel=0, data=[77, 52]),
   midi.NoteOnEvent(tick=60, channel=0, data=[77, 0]),
   midi.NoteOnEvent(tick=0, channel=0, data=[75, 52]),
   midi.NoteOnEvent(tick=60, channel=0, data=[75, 0]),
   midi.NoteOnEvent(tick=0, channel=0, data=[74, 52]),
   midi.NoteOnEvent(tick=60, channel=0, data=[74, 0]),
   midi.NoteOnEvent(tick=0, channel=0, data=[75, 50]),
   midi.NoteOnEvent(tick=40, channel=0, data=[75, 0]),
   midi.NoteOnEvent(tick=0, channel=0, data=[76, 47]),
   midi.NoteOnEvent(tick=40, channel=0, data=[76, 0]),
   midi.NoteOnEvent(tick=0, channel=0, data=[77, 50]),
   midi.NoteOnEvent(tick=40, channel=0, data=[77, 0]),
   midi.NoteOnEvent(tick=0, channel=0, data=[78, 53]),
   midi.NoteOnEvent(tick=60, channel=0, data=[78, 0]),
   midi.NoteOnEvent(tick=0, channel=0, data=[79, 54]),
   midi.NoteOnEvent(tick=60, channel=0, data=[79, 0]),
   midi.NoteOnEvent(tick=0, channel=0, data=[70, 50]),
   midi.NoteOnEvent(tick=240, channel=0, data=[70, 0]),
   midi.NoteOnEvent(tick=0, channel=0, data=[67, 45]),
   midi.NoteOnEvent(tick=0, channel=0, data=[70, 45]),
   midi.NoteOnEvent(tick=240, channel=0, data=[70, 0]),
   midi.NoteOnEvent(tick=0, channel=0, data=[67, 0]),
   midi.NoteOnEvent(tick=0, channel=0, data=[65, 47]),
   midi.NoteOnEvent(tick=0, channel=0, data=[68, 47]),
   midi.NoteOnEvent(tick=240, channel=0, data=[68, 0]),
   midi.NoteOnEvent(tick=0, channel=0, data=[65, 0]),
   midi.NoteOnEvent(tick=0, channel=0, data=[63, 51]),
   midi.NoteOnEvent(tick=0, channel=0, data=[67, 51]),
   midi.NoteOnEvent(tick=230, channel=0, data=[67, 0]),
   midi.NoteOnEvent(tick=0, channel=0, data=[63, 0]),
   midi.NoteOnEvent(tick=10, channel=0, data=[63, 58]),
   midi.NoteOnEvent(tick=0, channel=0, data=[70, 58]),
   midi.NoteOnEvent(tick=120, channel=0, data=[70, 0]),
   midi.NoteOnEvent(tick=0, channel=0, data=[69, 49]),
   midi.NoteOnEvent(tick=120, channel=0, data=[69, 0]),
   midi.NoteOnEvent(tick=0, channel=0, data=[70, 53]),
   midi.NoteOnEvent(tick=120, channel=0, data=[70, 0]),
   midi.NoteOnEvent(tick=0, channel=0, data=[67, 42]),
   midi.NoteOnEvent(tick=120, channel=0, data=[67, 0]),
   midi.NoteOnEvent(tick=0, channel=0, data=[63, 0]),
   midi.NoteOnEvent(tick=0, channel=0, data=[62, 38]),
   midi.NoteOnEvent(tick=0, channel=0, data=[65, 38]),
   midi.NoteOnEvent(tick=480, channel=0, data=[65, 0]),
   midi.NoteOnEvent(tick=0, channel=0, data=[62, 0]),
   midi.NoteOnEvent(tick=420, channel=0, data=[70, 67]),
   midi.NoteOnEvent(tick=60, channel=0, data=[70, 0]),
   midi.NoteOnEvent(tick=0, channel=0, data=[82, 73]),
   midi.NoteOnEvent(tick=720, channel=0, data=[82, 0]),
   midi.NoteOnEvent(tick=0, channel=0, data=[80, 70]),
   midi.NoteOnEvent(tick=60, channel=0, data=[80, 0]),
   midi.NoteOnEvent(tick=0, channel=0, data=[79, 66]),
   midi.NoteOnEvent(tick=60, channel=0, data=[79, 0]),
   midi.NoteOnEvent(tick=0, channel=0, data=[77, 70]),
   midi.NoteOnEvent(tick=60, channel=0, data=[77, 0]),
   midi.NoteOnEvent(tick=0, channel=0, data=[75, 64]),
   midi.NoteOnEvent(tick=60, channel=0, data=[75, 0]),
   midi.NoteOnEvent(tick=0, channel=0, data=[74, 74]),
   midi.NoteOnEvent(tick=240, channel=0, data=[74, 0]),
   midi.NoteOnEvent(tick=0, channel=0, data=[75, 72]),
   midi.NoteOnEvent(tick=240, channel=0, data=[75, 0]),
   midi.NoteOnEvent(tick=0, channel=0, data=[74, 67]),
   midi.NoteOnEvent(tick=0, channel=0, data=[77, 67]),
   midi.NoteOnEvent(tick=240, channel=0, data=[77, 0]),
   midi.NoteOnEvent(tick=0, channel=0, data=[74, 0]),
   midi.NoteOnEvent(tick=0, channel=0, data=[80, 69]),
   midi.NoteOnEvent(tick=0, channel=0, data=[75, 69]),
   midi.NoteOnEvent(tick=60, channel=0, data=[80, 0]),
   midi.NoteOnEvent(tick=0, channel=0, data=[79, 65]),
   midi.NoteOnEvent(tick=60, channel=0, data=[79, 0]),
   midi.NoteOnEvent(tick=0, channel=0, data=[77, 66]),
   midi.NoteOnEvent(tick=60, channel=0, data=[77, 0]),
   midi.NoteOnEvent(tick=0, channel=0, data=[79, 65]),
   midi.NoteOnEvent(tick=60, channel=0, data=[79, 0]),
   midi.NoteOnEvent(tick=0, channel=0, data=[75, 0]),
   midi.NoteOnEvent(tick=0, channel=0, data=[77, 70]),
   midi.NoteOnEvent(tick=0, channel=0, data=[80, 70]),
   midi.NoteOnEvent(tick=240, channel=0, data=[80, 0]),
   midi.NoteOnEvent(tick=0, channel=0, data=[77, 0]),
   midi.NoteOnEvent(tick=0, channel=0, data=[70, 57]),
   midi.NoteOnEvent(tick=216, channel=0, data=[70, 0]),
   midi.NoteOnEvent(tick=24, channel=0, data=[70, 59]),
   midi.NoteOnEvent(tick=216, channel=0, data=[70, 0]),
   midi.NoteOnEvent(tick=24, channel=0, data=[70, 59]),
   midi.NoteOnEvent(tick=216, channel=0, data=[70, 0]),
   midi.NoteOnEvent(tick=24, channel=0, data=[80, 72]),
   midi.NoteOnEvent(tick=720, channel=0, data=[80, 0]),
   midi.NoteOnEvent(tick=0, channel=0, data=[82, 69]),
   midi.NoteOnEvent(tick=60, channel=0, data=[82, 0]),
   midi.NoteOnEvent(tick=0, channel=0, data=[80, 65]),
   midi.NoteOnEvent(tick=60, channel=0, data=[80, 0]),
   midi.NoteOnEvent(tick=0, channel=0, data=[79, 69]),
   midi.NoteOnEvent(tick=60, channel=0, data=[79, 0]),
   midi.NoteOnEvent(tick=0, channel=0, data=[77, 64]),
   midi.NoteOnEvent(tick=60, channel=0, data=[77, 0]),
   midi.NoteOnEvent(tick=0, channel=0, data=[75, 73]),
   midi.NoteOnEvent(tick=240, channel=0, data=[75, 0]),
   midi.NoteOnEvent(tick=0, channel=0, data=[74, 70]),
   midi.NoteOnEvent(tick=0, channel=0, data=[77, 70]),
   midi.NoteOnEvent(tick=240, channel=0, data=[77, 0]),
   midi.NoteOnEvent(tick=0, channel=0, data=[74, 0]),
   midi.NoteOnEvent(tick=0, channel=0, data=[75, 71]),
   midi.NoteOnEvent(tick=0, channel=0, data=[79, 71]),
   midi.NoteOnEvent(tick=240, channel=0, data=[79, 0]),
   midi.NoteOnEvent(tick=0, channel=0, data=[75, 0]),
   midi.NoteOnEvent(tick=0, channel=0, data=[82, 67]),
   midi.NoteOnEvent(tick=0, channel=0, data=[77, 67]),
   midi.NoteOnEvent(tick=60, channel=0, data=[82, 0]),
   midi.NoteOnEvent(tick=0, channel=0, data=[80, 63]),
   midi.NoteOnEvent(tick=60, channel=0, data=[80, 0]),
   midi.NoteOnEvent(tick=0, channel=0, data=[79, 67]),
   midi.NoteOnEvent(tick=60, channel=0, data=[79, 0]),
   midi.NoteOnEvent(tick=0, channel=0, data=[80, 64]),
   midi.NoteOnEvent(tick=60, channel=0, data=[80, 0]),
   midi.NoteOnEvent(tick=0, channel=0, data=[77, 0]),
   midi.NoteOnEvent(tick=0, channel=0, data=[79, 72]),
   midi.NoteOnEvent(tick=0, channel=0, data=[82, 72]),
   midi.NoteOnEvent(tick=120, channel=0, data=[82, 0]),
   midi.NoteOnEvent(tick=0, channel=0, data=[79, 0]),
   midi.NoteOnEvent(tick=840, channel=0, data=[73, 83]),
   midi.NoteOnEvent(tick=600, channel=0, data=[73, 0]),
   midi.NoteOnEvent(tick=0, channel=0, data=[75, 62]),
   midi.NoteOnEvent(tick=30, channel=0, data=[75, 0]),
   midi.NoteOnEvent(tick=0, channel=0, data=[73, 58]),
   midi.NoteOnEvent(tick=30, channel=0, data=[73, 0]),
   midi.NoteOnEvent(tick=0, channel=0, data=[72, 62]),
   midi.NoteOnEvent(tick=30, channel=0, data=[72, 0]),
   midi.NoteOnEvent(tick=0, channel=0, data=[73, 59]),
   midi.NoteOnEvent(tick=30, channel=0, data=[73, 0]),
   midi.NoteOnEvent(tick=0, channel=0, data=[75, 67]),
   midi.NoteOnEvent(tick=120, channel=0, data=[75, 0]),
   midi.NoteOnEvent(tick=0, channel=0, data=[77, 67]),
   midi.NoteOnEvent(tick=120, channel=0, data=[77, 0]),
   midi.NoteOnEvent(tick=0, channel=0, data=[75, 67]),
   midi.NoteOnEvent(tick=120, channel=0, data=[75, 0]),
   midi.NoteOnEvent(tick=0, channel=0, data=[73, 60]),
   midi.NoteOnEvent(tick=120, channel=0, data=[73, 0]),
   midi.NoteOnEvent(tick=0, channel=0, data=[72, 67]),
   midi.NoteOnEvent(tick=120, channel=0, data=[72, 0]),
   midi.NoteOnEvent(tick=0, channel=0, data=[71, 61]),
   midi.NoteOnEvent(tick=110, channel=0, data=[71, 0]),
   midi.NoteOnEvent(tick=10, channel=0, data=[71, 70]),
   midi.NoteOnEvent(tick=600, channel=0, data=[71, 0]),
   midi.NoteOnEvent(tick=0, channel=0, data=[72, 67]),
   midi.NoteOnEvent(tick=120, channel=0, data=[72, 0]),
   midi.NoteOnEvent(tick=0, channel=0, data=[75, 69]),
   midi.NoteOnEvent(tick=120, channel=0, data=[75, 0]),
   midi.NoteOnEvent(tick=0, channel=0, data=[74, 69]),
   midi.NoteOnEvent(tick=120, channel=0, data=[74, 0]),
   midi.NoteOnEvent(tick=0, channel=0, data=[77, 69]),
   midi.NoteOnEvent(tick=120, channel=0, data=[77, 0]),
   midi.NoteOnEvent(tick=0, channel=0, data=[75, 64]),
   midi.NoteOnEvent(tick=120, channel=0, data=[75, 0]),
   midi.NoteOnEvent(tick=0, channel=0, data=[74, 68]),
   midi.NoteOnEvent(tick=120, channel=0, data=[74, 0]),
   midi.NoteOnEvent(tick=0, channel=0, data=[72, 61]),
   midi.NoteOnEvent(tick=120, channel=0, data=[72, 0]),
   midi.NoteOnEvent(tick=0, channel=0, data=[70, 59]),
   midi.NoteOnEvent(tick=80, channel=0, data=[71, 60]),
   midi.NoteOnEvent(tick=20, channel=0, data=[70, 0]),
   midi.NoteOnEvent(tick=60, channel=0, data=[72, 62]),
   midi.NoteOnEvent(tick=20, channel=0, data=[71, 0]),
   midi.NoteOnEvent(tick=60, channel=0, data=[73, 66]),
   midi.NoteOnEvent(tick=20, channel=0, data=[72, 0]),
   midi.NoteOnEvent(tick=60, channel=0, data=[74, 68]),
   midi.NoteOnEvent(tick=20, channel=0, data=[73, 0]),
   midi.NoteOnEvent(tick=60, channel=0, data=[75, 69]),
   midi.NoteOnEvent(tick=20, channel=0, data=[74, 0]),
   midi.NoteOnEvent(tick=60, channel=0, data=[75, 0]),
   midi.NoteOnEvent(tick=0, channel=0, data=[75, 60]),
   midi.NoteOnEvent(tick=60, channel=0, data=[75, 0]),
   midi.NoteOnEvent(tick=0, channel=0, data=[63, 73]),
   midi.NoteOnEvent(tick=420, channel=0, data=[63, 0]),
   midi.NoteOnEvent(tick=0, channel=0, data=[67, 59]),
   midi.NoteOnEvent(tick=0, channel=0, data=[62, 59]),
   midi.NoteOnEvent(tick=120, channel=0, data=[67, 0]),
   midi.NoteOnEvent(tick=0, channel=0, data=[65, 64]),
   midi.NoteOnEvent(tick=120, channel=0, data=[65, 0]),
   midi.NoteOnEvent(tick=0, channel=0, data=[63, 64]),
   midi.NoteOnEvent(tick=120, channel=0, data=[63, 0]),
   midi.NoteOnEvent(tick=0, channel=0, data=[65, 59]),
   midi.NoteOnEvent(tick=120, channel=0, data=[65, 0]),
   midi.NoteOnEvent(tick=0, channel=0, data=[62, 0]),
   midi.NoteOnEvent(tick=0, channel=0, data=[63, 55]),
   midi.NoteOnEvent(tick=480, channel=0, data=[63, 0]),
   midi.NoteOnEvent(tick=240, channel=0, data=[63, 75]),
   midi.NoteOnEvent(tick=0, channel=0, data=[70, 75]),
   midi.NoteOnEvent(tick=216, channel=0, data=[70, 0]),
   midi.NoteOnEvent(tick=0, channel=0, data=[63, 0]),
   midi.NoteOnEvent(tick=24, channel=0, data=[65, 80]),
   midi.NoteOnEvent(tick=0, channel=0, data=[70, 59]),
   midi.NoteOnEvent(tick=216, channel=0, data=[70, 0]),
   midi.NoteOnEvent(tick=0, channel=0, data=[65, 0]),
   midi.NoteOnEvent(tick=24, channel=0, data=[67, 75]),
   midi.NoteOnEvent(tick=0, channel=0, data=[70, 75]),
   midi.NoteOnEvent(tick=216, channel=0, data=[70, 0]),
   midi.NoteOnEvent(tick=0, channel=0, data=[67, 0]),
   midi.NoteOnEvent(tick=24, channel=0, data=[70, 80]),
   midi.NoteOnEvent(tick=0, channel=0, data=[68, 63]),
   midi.NoteOnEvent(tick=300, channel=0, data=[70, 0]),
   midi.NoteOnEvent(tick=0, channel=0, data=[72, 76]),
   midi.NoteOnEvent(tick=60, channel=0, data=[72, 0]),
   midi.NoteOnEvent(tick=0, channel=0, data=[70, 70]),
   midi.NoteOnEvent(tick=60, channel=0, data=[70, 0]),
   midi.NoteOnEvent(tick=0, channel=0, data=[69, 69]),
   midi.NoteOnEvent(tick=60, channel=0, data=[69, 0]),
   midi.NoteOnEvent(tick=0, channel=0, data=[70, 79]),
   midi.NoteOnEvent(tick=120, channel=0, data=[70, 0]),
   midi.NoteOnEvent(tick=120, channel=0, data=[68, 0]),
   midi.NoteOnEvent(tick=0, channel=0, data=[62, 74]),
   midi.NoteOnEvent(tick=0, channel=0, data=[70, 74]),
   midi.NoteOnEvent(tick=240, channel=0, data=[70, 0]),
   midi.NoteOnEvent(tick=0, channel=0, data=[62, 0]),
   midi.NoteOnEvent(tick=0, channel=0, data=[63, 76]),
   midi.NoteOnEvent(tick=0, channel=0, data=[72, 76]),
   midi.NoteOnEvent(tick=240, channel=0, data=[72, 0]),
   midi.NoteOnEvent(tick=0, channel=0, data=[63, 0]),
   midi.NoteOnEvent(tick=0, channel=0, data=[65, 72]),
   midi.NoteOnEvent(tick=0, channel=0, data=[74, 72]),
   midi.NoteOnEvent(tick=240, channel=0, data=[74, 0]),
   midi.NoteOnEvent(tick=0, channel=0, data=[65, 0]),
   midi.NoteOnEvent(tick=0, channel=0, data=[75, 81]),
   midi.NoteOnEvent(tick=0, channel=0, data=[63, 81]),
   midi.NoteOnEvent(tick=300, channel=0, data=[75, 0]),
   midi.NoteOnEvent(tick=0, channel=0, data=[77, 70]),
   midi.NoteOnEvent(tick=60, channel=0, data=[77, 0]),
   midi.NoteOnEvent(tick=0, channel=0, data=[79, 72]),
   midi.NoteOnEvent(tick=60, channel=0, data=[79, 0]),
   midi.NoteOnEvent(tick=0, channel=0, data=[75, 66]),
   midi.NoteOnEvent(tick=60, channel=0, data=[75, 0]),
   midi.NoteOnEvent(tick=0, channel=0, data=[70, 69]),
   midi.NoteOnEvent(tick=120, channel=0, data=[70, 0]),
   midi.NoteOnEvent(tick=120, channel=0, data=[63, 0]),
   midi.NoteOnEvent(tick=0, channel=0, data=[67, 52]),
   midi.NoteOnEvent(tick=0, channel=0, data=[70, 52]),
   midi.NoteOnEvent(tick=240, channel=0, data=[70, 0]),
   midi.NoteOnEvent(tick=0, channel=0, data=[67, 0]),
   midi.NoteOnEvent(tick=0, channel=0, data=[65, 54]),
   midi.NoteOnEvent(tick=0, channel=0, data=[68, 54]),
   midi.NoteOnEvent(tick=240, channel=0, data=[68, 0]),
   midi.NoteOnEvent(tick=0, channel=0, data=[65, 0]),
   midi.NoteOnEvent(tick=0, channel=0, data=[63, 52]),
   midi.NoteOnEvent(tick=0, channel=0, data=[67, 52]),
   midi.NoteOnEvent(tick=240, channel=0, data=[67, 0]),
   midi.NoteOnEvent(tick=0, channel=0, data=[63, 0]),
   midi.NoteOnEvent(tick=0, channel=0, data=[65, 57]),
   midi.NoteOnEvent(tick=300, channel=0, data=[65, 0]),
   midi.NoteOnEvent(tick=0, channel=0, data=[67, 50]),
   midi.NoteOnEvent(tick=60, channel=0, data=[67, 0]),
   midi.NoteOnEvent(tick=0, channel=0, data=[68, 52]),
   midi.NoteOnEvent(tick=60, channel=0, data=[68, 0]),
   midi.NoteOnEvent(tick=0, channel=0, data=[65, 50]),
   midi.NoteOnEvent(tick=60, channel=0, data=[65, 0]),
   midi.NoteOnEvent(tick=0, channel=0, data=[72, 56]),
   midi.NoteOnEvent(tick=120, channel=0, data=[72, 0]),
   midi.NoteOnEvent(tick=120, channel=0, data=[60, 46]),
   midi.NoteOnEvent(tick=0, channel=0, data=[65, 46]),
   midi.NoteOnEvent(tick=240, channel=0, data=[65, 0]),
   midi.NoteOnEvent(tick=0, channel=0, data=[60, 0]),
   midi.NoteOnEvent(tick=0, channel=0, data=[58, 49]),
   midi.NoteOnEvent(tick=0, channel=0, data=[63, 49]),
   midi.NoteOnEvent(tick=240, channel=0, data=[63, 0]),
   midi.NoteOnEvent(tick=0, channel=0, data=[58, 0]),
   midi.NoteOnEvent(tick=0, channel=0, data=[62, 46]),
   midi.NoteOnEvent(tick=0, channel=0, data=[65, 46]),
   midi.NoteOnEvent(tick=230, channel=0, data=[65, 0]),
   midi.NoteOnEvent(tick=0, channel=0, data=[62, 0]),
   midi.NoteOnEvent(tick=10, channel=0, data=[62, 54]),
   midi.NoteOnEvent(tick=0, channel=0, data=[65, 54]),
   midi.NoteOnEvent(tick=360, channel=0, data=[65, 0]),
   midi.NoteOnEvent(tick=0, channel=0, data=[66, 50]),
   midi.NoteOnEvent(tick=120, channel=0, data=[66, 0]),
   midi.NoteOnEvent(tick=0, channel=0, data=[62, 0]),
   midi.NoteOnEvent(tick=0, channel=0, data=[63, 45]),
   midi.NoteOnEvent(tick=0, channel=0, data=[67, 45]),
   midi.NoteOnEvent(tick=240, channel=0, data=[67, 0]),
   midi.NoteOnEvent(tick=0, channel=0, data=[63, 0]),
   midi.NoteOnEvent(tick=0, channel=0, data=[75, 76]),
   midi.NoteOnEvent(tick=0, channel=0, data=[82, 76]),
   midi.NoteOnEvent(tick=216, channel=0, data=[82, 0]),
   midi.NoteOnEvent(tick=0, channel=0, data=[75, 0]),
   midi.NoteOnEvent(tick=24, channel=0, data=[77, 77]),
   midi.NoteOnEvent(tick=0, channel=0, data=[82, 77]),
   midi.NoteOnEvent(tick=216, channel=0, data=[82, 0]),
   midi.NoteOnEvent(tick=0, channel=0, data=[77, 0]),
   midi.NoteOnEvent(tick=24, channel=0, data=[79, 76]),
   midi.NoteOnEvent(tick=0, channel=0, data=[82, 76]),
   midi.NoteOnEvent(tick=216, channel=0, data=[82, 0]),
   midi.NoteOnEvent(tick=0, channel=0, data=[79, 0]),
   midi.NoteOnEvent(tick=24, channel=0, data=[82, 81]),
   midi.NoteOnEvent(tick=0, channel=0, data=[80, 81]),
   midi.NoteOnEvent(tick=300, channel=0, data=[82, 0]),
   midi.NoteOnEvent(tick=0, channel=0, data=[84, 73]),
   midi.NoteOnEvent(tick=60, channel=0, data=[84, 0]),
   midi.NoteOnEvent(tick=0, channel=0, data=[82, 69]),
   midi.NoteOnEvent(tick=60, channel=0, data=[82, 0]),
   midi.NoteOnEvent(tick=0, channel=0, data=[81, 70]),
   midi.NoteOnEvent(tick=60, channel=0, data=[81, 0]),
   midi.NoteOnEvent(tick=0, channel=0, data=[82, 78]),
   midi.NoteOnEvent(tick=120, channel=0, data=[82, 0]),
   midi.NoteOnEvent(tick=120, channel=0, data=[80, 0]),
   midi.NoteOnEvent(tick=0, channel=0, data=[74, 76]),
   midi.NoteOnEvent(tick=0, channel=0, data=[82, 76]),
   midi.NoteOnEvent(tick=240, channel=0, data=[82, 0]),
   midi.NoteOnEvent(tick=0, channel=0, data=[74, 0]),
   midi.NoteOnEvent(tick=0, channel=0, data=[75, 80]),
   midi.NoteOnEvent(tick=0, channel=0, data=[84, 80]),
   midi.NoteOnEvent(tick=240, channel=0, data=[84, 0]),
   midi.NoteOnEvent(tick=0, channel=0, data=[75, 0]),
   midi.NoteOnEvent(tick=0, channel=0, data=[77, 75]),
   midi.NoteOnEvent(tick=0, channel=0, data=[86, 75]),
   midi.NoteOnEvent(tick=240, channel=0, data=[86, 0]),
   midi.NoteOnEvent(tick=0, channel=0, data=[77, 0]),
   midi.NoteOnEvent(tick=0, channel=0, data=[87, 86]),
   midi.NoteOnEvent(tick=0, channel=0, data=[75, 86]),
   midi.NoteOnEvent(tick=300, channel=0, data=[87, 0]),
   midi.NoteOnEvent(tick=0, channel=0, data=[86, 68]),
   midi.NoteOnEvent(tick=60, channel=0, data=[86, 0]),
   midi.NoteOnEvent(tick=0, channel=0, data=[87, 70]),
   midi.NoteOnEvent(tick=60, channel=0, data=[87, 0]),
   midi.NoteOnEvent(tick=0, channel=0, data=[82, 66]),
   midi.NoteOnEvent(tick=60, channel=0, data=[82, 0]),
   midi.NoteOnEvent(tick=0, channel=0, data=[79, 61]),
   midi.NoteOnEvent(tick=120, channel=0, data=[79, 0]),
   midi.NoteOnEvent(tick=120, channel=0, data=[75, 0]),
   midi.NoteOnEvent(tick=0, channel=0, data=[79, 54]),
   midi.NoteOnEvent(tick=0, channel=0, data=[82, 54]),
   midi.NoteOnEvent(tick=240, channel=0, data=[82, 0]),
   midi.NoteOnEvent(tick=0, channel=0, data=[79, 0]),
   midi.NoteOnEvent(tick=0, channel=0, data=[77, 54]),
   midi.NoteOnEvent(tick=0, channel=0, data=[80, 54]),
   midi.NoteOnEvent(tick=240, channel=0, data=[80, 0]),
   midi.NoteOnEvent(tick=0, channel=0, data=[77, 0]),
   midi.NoteOnEvent(tick=0, channel=0, data=[75, 54]),
   midi.NoteOnEvent(tick=0, channel=0, data=[79, 54]),
   midi.NoteOnEvent(tick=240, channel=0, data=[79, 0]),
   midi.NoteOnEvent(tick=0, channel=0, data=[75, 0]),
   midi.NoteOnEvent(tick=0, channel=0, data=[76, 51]),
   midi.NoteOnEvent(tick=60, channel=0, data=[76, 0]),
   midi.NoteOnEvent(tick=0, channel=0, data=[77, 50]),
   midi.NoteOnEvent(tick=60, channel=0, data=[77, 0]),
   midi.NoteOnEvent(tick=0, channel=0, data=[79, 56]),
   midi.NoteOnEvent(tick=60, channel=0, data=[79, 0]),
   midi.NoteOnEvent(tick=0, channel=0, data=[77, 55]),
   midi.NoteOnEvent(tick=60, channel=0, data=[77, 0]),
   midi.NoteOnEvent(tick=0, channel=0, data=[80, 59]),
   midi.NoteOnEvent(tick=60, channel=0, data=[80, 0]),
   midi.NoteOnEvent(tick=0, channel=0, data=[79, 58]),
   midi.NoteOnEvent(tick=60, channel=0, data=[79, 0]),
   midi.NoteOnEvent(tick=0, channel=0, data=[82, 62]),
   midi.NoteOnEvent(tick=60, channel=0, data=[82, 0]),
   midi.NoteOnEvent(tick=0, channel=0, data=[80, 60]),
   midi.NoteOnEvent(tick=60, channel=0, data=[80, 0]),
   midi.NoteOnEvent(tick=0, channel=0, data=[84, 66]),
   midi.NoteOnEvent(tick=480, channel=0, data=[84, 0]),
   midi.NoteOnEvent(tick=0, channel=0, data=[82, 59]),
   midi.NoteOnEvent(tick=240, channel=0, data=[82, 0]),
   midi.NoteOnEvent(tick=180, channel=0, data=[74, 53]),
   midi.NoteOnEvent(tick=60, channel=0, data=[74, 0]),
   midi.NoteOnEvent(tick=0, channel=0, data=[75, 56]),
   midi.NoteOnEvent(tick=480, channel=0, data=[75, 0]),
   midi.NoteOnEvent(tick=240, channel=0, data=[85, 69]),
   midi.NoteOnEvent(tick=240, channel=0, data=[85, 0]),
   midi.NoteOnEvent(tick=0, channel=0, data=[84, 72]),
   midi.NoteOnEvent(tick=240, channel=0, data=[84, 0]),
   midi.NoteOnEvent(tick=0, channel=0, data=[86, 75]),
   midi.NoteOnEvent(tick=240, channel=0, data=[86, 0]),
   midi.NoteOnEvent(tick=0, channel=0, data=[89, 81]),
   midi.NoteOnEvent(tick=240, channel=0, data=[89, 0]),
   midi.NoteOnEvent(tick=0, channel=0, data=[87, 78]),
   midi.NoteOnEvent(tick=240, channel=0, data=[87, 0]),
   midi.NoteOnEvent(tick=240, channel=0, data=[73, 72]),
   midi.NoteOnEvent(tick=240, channel=0, data=[73, 0]),
   midi.NoteOnEvent(tick=0, channel=0, data=[72, 74]),
   midi.NoteOnEvent(tick=240, channel=0, data=[72, 0]),
   midi.NoteOnEvent(tick=0, channel=0, data=[68, 69]),
   midi.NoteOnEvent(tick=0, channel=0, data=[74, 69]),
   midi.NoteOnEvent(tick=240, channel=0, data=[74, 0]),
   midi.NoteOnEvent(tick=0, channel=0, data=[68, 0]),
   midi.NoteOnEvent(tick=0, channel=0, data=[77, 54]),
   midi.NoteOnEvent(tick=0, channel=0, data=[68, 54]),
   midi.NoteOnEvent(tick=480, channel=0, data=[68, 0]),
   midi.NoteOnEvent(tick=0, channel=0, data=[77, 0]),
   midi.NoteOnEvent(tick=0, channel=0, data=[67, 42]),
   midi.NoteOnEvent(tick=0, channel=0, data=[75, 42]),
   midi.NoteOnEvent(tick=240, channel=0, data=[75, 0]),
   midi.NoteOnEvent(tick=0, channel=0, data=[67, 0]),
   midi.NoteOnEvent(tick=0, channel=0, data=[62, 41]),
   midi.NoteOnEvent(tick=0, channel=0, data=[65, 41]),
   midi.NoteOnEvent(tick=240, channel=0, data=[65, 0]),
   midi.NoteOnEvent(tick=0, channel=0, data=[62, 0]),
   midi.NoteOnEvent(tick=0, channel=0, data=[63, 46]),
   midi.NoteOnEvent(tick=0, channel=0, data=[67, 46]),
   midi.NoteOnEvent(tick=240, channel=0, data=[67, 0]),
   midi.NoteOnEvent(tick=0, channel=0, data=[63, 0]),
   midi.NoteOnEvent(tick=0, channel=0, data=[65, 45]),
   midi.NoteOnEvent(tick=0, channel=0, data=[68, 45]),
   midi.NoteOnEvent(tick=240, channel=0, data=[68, 0]),
   midi.NoteOnEvent(tick=0, channel=0, data=[65, 0]),
   midi.NoteOnEvent(tick=0, channel=0, data=[62, 34]),
   midi.NoteOnEvent(tick=0, channel=0, data=[65, 37]),
   midi.NoteOnEvent(tick=0, channel=0, data=[68, 37]),
   midi.NoteOnEvent(tick=960, channel=0, data=[68, 0]),
   midi.NoteOnEvent(tick=0, channel=0, data=[65, 0]),
   midi.NoteOnEvent(tick=0, channel=0, data=[62, 0]),
   midi.NoteOnEvent(tick=0, channel=0, data=[63, 36]),
   midi.NoteOnEvent(tick=0, channel=0, data=[67, 36]),
   midi.NoteOnEvent(tick=240, channel=0, data=[67, 0]),
   midi.NoteOnEvent(tick=0, channel=0, data=[63, 0]),
   midi.EndOfTrackEvent(tick=0, data=[])]),
 midi.Track(\
[    midi.ControlChangeEvent(tick=0, channel=0, data=[7, 100]),
   midi.ControlChangeEvent(tick=0, channel=0, data=[10, 64]),
   midi.ControlChangeEvent(tick=0, channel=0, data=[91, 127]),
   midi.NoteOnEvent(tick=1, channel=0, data=[51, 51]),
   midi.NoteOnEvent(tick=960, channel=0, data=[51, 0]),
   midi.NoteOnEvent(tick=479, channel=0, data=[51, 50]),
   midi.NoteOnEvent(tick=480, channel=0, data=[51, 0]),
   midi.NoteOnEvent(tick=0, channel=0, data=[53, 46]),
   midi.NoteOnEvent(tick=480, channel=0, data=[53, 0]),
   midi.NoteOnEvent(tick=0, channel=0, data=[55, 45]),
   midi.NoteOnEvent(tick=480, channel=0, data=[55, 0]),
   midi.NoteOnEvent(tick=0, channel=0, data=[58, 55]),
   midi.NoteOnEvent(tick=0, channel=0, data=[61, 55]),
   midi.NoteOnEvent(tick=480, channel=0, data=[61, 0]),
   midi.NoteOnEvent(tick=0, channel=0, data=[58, 0]),
   midi.NoteOnEvent(tick=0, channel=0, data=[60, 51]),
   midi.NoteOnEvent(tick=0, channel=0, data=[56, 51]),
   midi.NoteOnEvent(tick=480, channel=0, data=[56, 0]),
   midi.NoteOnEvent(tick=0, channel=0, data=[60, 0]),
   midi.NoteOnEvent(tick=480, channel=0, data=[45, 47]),
   midi.NoteOnEvent(tick=120, channel=0, data=[45, 0]),
   midi.NoteOnEvent(tick=0, channel=0, data=[46, 50]),
   midi.NoteOnEvent(tick=120, channel=0, data=[46, 0]),
   midi.NoteOnEvent(tick=0, channel=0, data=[48, 53]),
   midi.NoteOnEvent(tick=120, channel=0, data=[48, 0]),
   midi.NoteOnEvent(tick=0, channel=0, data=[46, 51]),
   midi.NoteOnEvent(tick=110, channel=0, data=[46, 0]),
   midi.NoteOnEvent(tick=10, channel=0, data=[46, 49]),
   midi.NoteOnEvent(tick=480, channel=0, data=[46, 0]),
   midi.NoteOnEvent(tick=480, channel=0, data=[39, 53]),
   midi.NoteOnEvent(tick=0, channel=0, data=[51, 53]),
   midi.NoteOnEvent(tick=480, channel=0, data=[51, 0]),
   midi.NoteOnEvent(tick=0, channel=0, data=[39, 0]),
   midi.NoteOnEvent(tick=480, channel=0, data=[51, 49]),
   midi.NoteOnEvent(tick=0, channel=0, data=[60, 49]),
   midi.NoteOnEvent(tick=480, channel=0, data=[60, 0]),
   midi.NoteOnEvent(tick=0, channel=0, data=[51, 0]),
   midi.NoteOnEvent(tick=0, channel=0, data=[60, 53]),
   midi.NoteOnEvent(tick=0, channel=0, data=[53, 53]),
   midi.NoteOnEvent(tick=480, channel=0, data=[53, 0]),
   midi.NoteOnEvent(tick=0, channel=0, data=[60, 0]),
   midi.NoteOnEvent(tick=0, channel=0, data=[58, 50]),
   midi.NoteOnEvent(tick=0, channel=0, data=[62, 50]),
   midi.NoteOnEvent(tick=480, channel=0, data=[62, 0]),
   midi.NoteOnEvent(tick=0, channel=0, data=[58, 0]),
   midi.NoteOnEvent(tick=0, channel=0, data=[60, 49]),
   midi.NoteOnEvent(tick=0, channel=0, data=[63, 49]),
   midi.NoteOnEvent(tick=240, channel=0, data=[63, 0]),
   midi.NoteOnEvent(tick=0, channel=0, data=[60, 0]),
   midi.NoteOnEvent(tick=240, channel=0, data=[44, 54]),
   midi.NoteOnEvent(tick=0, channel=0, data=[56, 54]),
   midi.NoteOnEvent(tick=480, channel=0, data=[56, 0]),
   midi.NoteOnEvent(tick=0, channel=0, data=[44, 0]),
   midi.NoteOnEvent(tick=0, channel=0, data=[46, 50]),
   midi.NoteOnEvent(tick=0, channel=0, data=[55, 50]),
   midi.NoteOnEvent(tick=480, channel=0, data=[55, 0]),
   midi.NoteOnEvent(tick=0, channel=0, data=[56, 40]),
   midi.NoteOnEvent(tick=480, channel=0, data=[56, 0]),
   midi.NoteOnEvent(tick=0, channel=0, data=[46, 0]),
   midi.NoteOnEvent(tick=0, channel=0, data=[51, 32]),
   midi.NoteOnEvent(tick=120, channel=0, data=[51, 0]),
   midi.NoteOnEvent(tick=0, channel=0, data=[55, 32]),
   midi.NoteOnEvent(tick=120, channel=0, data=[55, 0]),
   midi.NoteOnEvent(tick=0, channel=0, data=[58, 30]),
   midi.NoteOnEvent(tick=120, channel=0, data=[58, 0]),
   midi.NoteOnEvent(tick=0, channel=0, data=[55, 27]),
   midi.NoteOnEvent(tick=120, channel=0, data=[55, 0]),
   midi.NoteOnEvent(tick=0, channel=0, data=[51, 33]),
   midi.NoteOnEvent(tick=120, channel=0, data=[51, 0]),
   midi.NoteOnEvent(tick=0, channel=0, data=[55, 29]),
   midi.NoteOnEvent(tick=120, channel=0, data=[55, 0]),
   midi.NoteOnEvent(tick=0, channel=0, data=[58, 31]),
   midi.NoteOnEvent(tick=120, channel=0, data=[58, 0]),
   midi.NoteOnEvent(tick=0, channel=0, data=[55, 29]),
   midi.NoteOnEvent(tick=120, channel=0, data=[55, 0]),
   midi.NoteOnEvent(tick=0, channel=0, data=[51, 33]),
   midi.NoteOnEvent(tick=120, channel=0, data=[51, 0]),
   midi.NoteOnEvent(tick=0, channel=0, data=[55, 29]),
   midi.NoteOnEvent(tick=120, channel=0, data=[55, 0]),
   midi.NoteOnEvent(tick=0, channel=0, data=[58, 31]),
   midi.NoteOnEvent(tick=120, channel=0, data=[58, 0]),
   midi.NoteOnEvent(tick=0, channel=0, data=[55, 29]),
   midi.NoteOnEvent(tick=120, channel=0, data=[55, 0]),
   midi.NoteOnEvent(tick=0, channel=0, data=[51, 36]),
   midi.NoteOnEvent(tick=120, channel=0, data=[51, 0]),
   midi.NoteOnEvent(tick=0, channel=0, data=[53, 27]),
   midi.NoteOnEvent(tick=120, channel=0, data=[53, 0]),
   midi.NoteOnEvent(tick=0, channel=0, data=[56, 30]),
   midi.NoteOnEvent(tick=120, channel=0, data=[56, 0]),
   midi.NoteOnEvent(tick=0, channel=0, data=[53, 27]),
   midi.NoteOnEvent(tick=120, channel=0, data=[53, 0]),
   midi.NoteOnEvent(tick=0, channel=0, data=[51, 32]),
   midi.NoteOnEvent(tick=120, channel=0, data=[51, 0]),
   midi.NoteOnEvent(tick=0, channel=0, data=[53, 27]),
   midi.NoteOnEvent(tick=120, channel=0, data=[53, 0]),
   midi.NoteOnEvent(tick=0, channel=0, data=[56, 30]),
   midi.NoteOnEvent(tick=120, channel=0, data=[56, 0]),
   midi.NoteOnEvent(tick=0, channel=0, data=[53, 27]),
   midi.NoteOnEvent(tick=120, channel=0, data=[53, 0]),
   midi.NoteOnEvent(tick=0, channel=0, data=[51, 32]),
   midi.NoteOnEvent(tick=120, channel=0, data=[51, 0]),
   midi.NoteOnEvent(tick=0, channel=0, data=[53, 27]),
   midi.NoteOnEvent(tick=120, channel=0, data=[53, 0]),
   midi.NoteOnEvent(tick=0, channel=0, data=[56, 30]),
   midi.NoteOnEvent(tick=120, channel=0, data=[56, 0]),
   midi.NoteOnEvent(tick=0, channel=0, data=[53, 27]),
   midi.NoteOnEvent(tick=120, channel=0, data=[53, 0]),
   midi.NoteOnEvent(tick=0, channel=0, data=[51, 33]),
   midi.NoteOnEvent(tick=120, channel=0, data=[51, 0]),
   midi.NoteOnEvent(tick=0, channel=0, data=[55, 27]),
   midi.NoteOnEvent(tick=120, channel=0, data=[55, 0]),
   midi.NoteOnEvent(tick=0, channel=0, data=[58, 30]),
   midi.NoteOnEvent(tick=120, channel=0, data=[58, 0]),
   midi.NoteOnEvent(tick=0, channel=0, data=[55, 27]),
   midi.NoteOnEvent(tick=120, channel=0, data=[55, 0]),
   midi.NoteOnEvent(tick=0, channel=0, data=[51, 29]),
   midi.NoteOnEvent(tick=120, channel=0, data=[51, 0]),
   midi.NoteOnEvent(tick=0, channel=0, data=[55, 27]),
   midi.NoteOnEvent(tick=120, channel=0, data=[55, 0]),
   midi.NoteOnEvent(tick=0, channel=0, data=[58, 30]),
   midi.NoteOnEvent(tick=120, channel=0, data=[58, 0]),
   midi.NoteOnEvent(tick=0, channel=0, data=[55, 27]),
   midi.NoteOnEvent(tick=120, channel=0, data=[55, 0]),
   midi.NoteOnEvent(tick=0, channel=0, data=[51, 29]),
   midi.NoteOnEvent(tick=120, channel=0, data=[51, 0]),
   midi.NoteOnEvent(tick=0, channel=0, data=[55, 27]),
   midi.NoteOnEvent(tick=120, channel=0, data=[55, 0]),
   midi.NoteOnEvent(tick=0, channel=0, data=[58, 30]),
   midi.NoteOnEvent(tick=120, channel=0, data=[58, 0]),
   midi.NoteOnEvent(tick=0, channel=0, data=[55, 27]),
   midi.NoteOnEvent(tick=120, channel=0, data=[55, 0]),
   midi.NoteOnEvent(tick=0, channel=0, data=[51, 35]),
   midi.NoteOnEvent(tick=120, channel=0, data=[51, 0]),
   midi.NoteOnEvent(tick=0, channel=0, data=[53, 29]),
   midi.NoteOnEvent(tick=120, channel=0, data=[53, 0]),
   midi.NoteOnEvent(tick=0, channel=0, data=[56, 30]),
   midi.NoteOnEvent(tick=120, channel=0, data=[56, 0]),
   midi.NoteOnEvent(tick=0, channel=0, data=[53, 29]),
   midi.NoteOnEvent(tick=120, channel=0, data=[53, 0]),
   midi.NoteOnEvent(tick=0, channel=0, data=[51, 32]),
   midi.NoteOnEvent(tick=120, channel=0, data=[51, 0]),
   midi.NoteOnEvent(tick=0, channel=0, data=[53, 27]),
   midi.NoteOnEvent(tick=120, channel=0, data=[53, 0]),
   midi.NoteOnEvent(tick=0, channel=0, data=[56, 27]),
   midi.NoteOnEvent(tick=120, channel=0, data=[56, 0]),
   midi.NoteOnEvent(tick=0, channel=0, data=[53, 27]),
   midi.NoteOnEvent(tick=120, channel=0, data=[53, 0]),
   midi.NoteOnEvent(tick=0, channel=0, data=[51, 32]),
   midi.NoteOnEvent(tick=120, channel=0, data=[51, 0]),
   midi.NoteOnEvent(tick=0, channel=0, data=[53, 27]),
   midi.NoteOnEvent(tick=120, channel=0, data=[53, 0]),
   midi.NoteOnEvent(tick=0, channel=0, data=[56, 27]),
   midi.NoteOnEvent(tick=120, channel=0, data=[56, 0]),
   midi.NoteOnEvent(tick=0, channel=0, data=[53, 27]),
   midi.NoteOnEvent(tick=120, channel=0, data=[53, 0]),
   midi.NoteOnEvent(tick=0, channel=0, data=[55, 27]),
   midi.NoteOnEvent(tick=0, channel=0, data=[51, 27]),
   midi.NoteOnEvent(tick=480, channel=0, data=[51, 0]),
   midi.NoteOnEvent(tick=0, channel=0, data=[55, 0]),
   midi.NoteOnEvent(tick=240, channel=0, data=[58, 32]),
   midi.NoteOnEvent(tick=0, channel=0, data=[55, 32]),
   midi.NoteOnEvent(tick=240, channel=0, data=[55, 0]),
   midi.NoteOnEvent(tick=0, channel=0, data=[58, 0]),
   midi.NoteOnEvent(tick=0, channel=0, data=[56, 34]),
   midi.NoteOnEvent(tick=0, channel=0, data=[60, 34]),
   midi.NoteOnEvent(tick=240, channel=0, data=[60, 0]),
   midi.NoteOnEvent(tick=0, channel=0, data=[56, 0]),
   midi.NoteOnEvent(tick=0, channel=0, data=[57, 35]),
   midi.NoteOnEvent(tick=0, channel=0, data=[60, 35]),
   midi.NoteOnEvent(tick=240, channel=0, data=[60, 0]),
   midi.NoteOnEvent(tick=0, channel=0, data=[57, 0]),
   midi.NoteOnEvent(tick=0, channel=0, data=[58, 37]),
   midi.NoteOnEvent(tick=480, channel=0, data=[58, 0]),
   midi.NoteOnEvent(tick=240, channel=0, data=[58, 46]),
   midi.NoteOnEvent(tick=240, channel=0, data=[58, 0]),
   midi.NoteOnEvent(tick=0, channel=0, data=[53, 46]),
   midi.NoteOnEvent(tick=240, channel=0, data=[53, 0]),
   midi.NoteOnEvent(tick=0, channel=0, data=[50, 46]),
   midi.NoteOnEvent(tick=240, channel=0, data=[50, 0]),
   midi.NoteOnEvent(tick=0, channel=0, data=[46, 53]),
   midi.NoteOnEvent(tick=240, channel=0, data=[46, 0]),
   midi.NoteOnEvent(tick=0, channel=0, data=[50, 45]),
   midi.NoteOnEvent(tick=240, channel=0, data=[50, 0]),
   midi.NoteOnEvent(tick=0, channel=0, data=[53, 47]),
   midi.NoteOnEvent(tick=240, channel=0, data=[53, 0]),
   midi.NoteOnEvent(tick=0, channel=0, data=[58, 45]),
   midi.NoteOnEvent(tick=240, channel=0, data=[58, 0]),
   midi.NoteOnEvent(tick=0, channel=0, data=[65, 51]),
   midi.NoteOnEvent(tick=0, channel=0, data=[63, 51]),
   midi.NoteOnEvent(tick=240, channel=0, data=[63, 0]),
   midi.NoteOnEvent(tick=0, channel=0, data=[62, 47]),
   midi.NoteOnEvent(tick=240, channel=0, data=[62, 0]),
   midi.NoteOnEvent(tick=0, channel=0, data=[65, 0]),
   midi.NoteOnEvent(tick=0, channel=0, data=[63, 51]),
   midi.NoteOnEvent(tick=0, channel=0, data=[60, 51]),
   midi.NoteOnEvent(tick=240, channel=0, data=[60, 0]),
   midi.NoteOnEvent(tick=0, channel=0, data=[63, 0]),
   midi.NoteOnEvent(tick=0, channel=0, data=[62, 47]),
   midi.NoteOnEvent(tick=0, channel=0, data=[58, 47]),
   midi.NoteOnEvent(tick=240, channel=0, data=[58, 0]),
   midi.NoteOnEvent(tick=0, channel=0, data=[62, 0]),
   midi.NoteOnEvent(tick=0, channel=0, data=[60, 47]),
   midi.NoteOnEvent(tick=0, channel=0, data=[57, 47]),
   midi.NoteOnEvent(tick=240, channel=0, data=[57, 0]),
   midi.NoteOnEvent(tick=0, channel=0, data=[60, 0]),
   midi.NoteOnEvent(tick=960, channel=0, data=[53, 45]),
   midi.NoteOnEvent(tick=240, channel=0, data=[53, 0]),
   midi.NoteOnEvent(tick=0, channel=0, data=[57, 45]),
   midi.NoteOnEvent(tick=240, channel=0, data=[57, 0]),
   midi.NoteOnEvent(tick=0, channel=0, data=[60, 45]),
   midi.NoteOnEvent(tick=240, channel=0, data=[60, 0]),
   midi.NoteOnEvent(tick=0, channel=0, data=[62, 50]),
   midi.NoteOnEvent(tick=240, channel=0, data=[62, 0]),
   midi.NoteOnEvent(tick=0, channel=0, data=[63, 45]),
   midi.NoteOnEvent(tick=0, channel=0, data=[65, 45]),
   midi.NoteOnEvent(tick=240, channel=0, data=[63, 0]),
   midi.NoteOnEvent(tick=0, channel=0, data=[62, 51]),
   midi.NoteOnEvent(tick=240, channel=0, data=[62, 0]),
   midi.NoteOnEvent(tick=0, channel=0, data=[65, 0]),
   midi.NoteOnEvent(tick=0, channel=0, data=[60, 45]),
   midi.NoteOnEvent(tick=0, channel=0, data=[63, 45]),
   midi.NoteOnEvent(tick=240, channel=0, data=[63, 0]),
   midi.NoteOnEvent(tick=0, channel=0, data=[60, 0]),
   midi.NoteOnEvent(tick=0, channel=0, data=[62, 50]),
   midi.NoteOnEvent(tick=0, channel=0, data=[58, 50]),
   midi.NoteOnEvent(tick=240, channel=0, data=[58, 0]),
   midi.NoteOnEvent(tick=0, channel=0, data=[62, 0]),
   midi.NoteOnEvent(tick=0, channel=0, data=[46, 54]),
   midi.NoteOnEvent(tick=216, channel=0, data=[46, 0]),
   midi.NoteOnEvent(tick=24, channel=0, data=[46, 57]),
   midi.NoteOnEvent(tick=216, channel=0, data=[46, 0]),
   midi.NoteOnEvent(tick=24, channel=0, data=[46, 54]),
   midi.NoteOnEvent(tick=216, channel=0, data=[46, 0]),
   midi.NoteOnEvent(tick=264, channel=0, data=[50, 54]),
   midi.NoteOnEvent(tick=240, channel=0, data=[50, 0]),
   midi.NoteOnEvent(tick=0, channel=0, data=[53, 56]),
   midi.NoteOnEvent(tick=240, channel=0, data=[53, 0]),
   midi.NoteOnEvent(tick=0, channel=0, data=[56, 52]),
   midi.NoteOnEvent(tick=240, channel=0, data=[56, 0]),
   midi.NoteOnEvent(tick=0, channel=0, data=[55, 56]),
   midi.NoteOnEvent(tick=240, channel=0, data=[55, 0]),
   midi.NoteOnEvent(tick=0, channel=0, data=[50, 53]),
   midi.NoteOnEvent(tick=120, channel=0, data=[50, 0]),
   midi.NoteOnEvent(tick=360, channel=0, data=[58, 53]),
   midi.NoteOnEvent(tick=0, channel=0, data=[51, 53]),
   midi.NoteOnEvent(tick=240, channel=0, data=[51, 0]),
   midi.NoteOnEvent(tick=0, channel=0, data=[58, 0]),
   midi.NoteOnEvent(tick=0, channel=0, data=[58, 53]),
   midi.NoteOnEvent(tick=0, channel=0, data=[51, 53]),
   midi.NoteOnEvent(tick=240, channel=0, data=[51, 0]),
   midi.NoteOnEvent(tick=0, channel=0, data=[58, 0]),
   midi.NoteOnEvent(tick=0, channel=0, data=[59, 55]),
   midi.NoteOnEvent(tick=0, channel=0, data=[51, 55]),
   midi.NoteOnEvent(tick=240, channel=0, data=[51, 0]),
   midi.NoteOnEvent(tick=0, channel=0, data=[59, 0]),
   midi.NoteOnEvent(tick=0, channel=0, data=[51, 55]),
   midi.NoteOnEvent(tick=0, channel=0, data=[60, 55]),
   midi.NoteOnEvent(tick=240, channel=0, data=[60, 0]),
   midi.NoteOnEvent(tick=0, channel=0, data=[51, 0]),
   midi.NoteOnEvent(tick=0, channel=0, data=[57, 53]),
   midi.NoteOnEvent(tick=0, channel=0, data=[51, 53]),
   midi.NoteOnEvent(tick=240, channel=0, data=[51, 0]),
   midi.NoteOnEvent(tick=0, channel=0, data=[57, 0]),
   midi.NoteOnEvent(tick=0, channel=0, data=[58, 54]),
   midi.NoteOnEvent(tick=0, channel=0, data=[50, 54]),
   midi.NoteOnEvent(tick=240, channel=0, data=[50, 0]),
   midi.NoteOnEvent(tick=0, channel=0, data=[58, 0]),
   midi.NoteOnEvent(tick=0, channel=0, data=[51, 50]),
   midi.NoteOnEvent(tick=0, channel=0, data=[58, 50]),
   midi.NoteOnEvent(tick=240, channel=0, data=[58, 0]),
   midi.NoteOnEvent(tick=0, channel=0, data=[51, 0]),
   midi.NoteOnEvent(tick=0, channel=0, data=[53, 50]),
   midi.NoteOnEvent(tick=0, channel=0, data=[62, 50]),
   midi.NoteOnEvent(tick=240, channel=0, data=[62, 0]),
   midi.NoteOnEvent(tick=0, channel=0, data=[53, 0]),
   midi.NoteOnEvent(tick=0, channel=0, data=[62, 46]),
   midi.NoteOnEvent(tick=0, channel=0, data=[53, 46]),
   midi.NoteOnEvent(tick=240, channel=0, data=[53, 0]),
   midi.NoteOnEvent(tick=0, channel=0, data=[62, 0]),
   midi.NoteOnEvent(tick=0, channel=0, data=[63, 42]),
   midi.NoteOnEvent(tick=0, channel=0, data=[53, 42]),
   midi.NoteOnEvent(tick=240, channel=0, data=[53, 0]),
   midi.NoteOnEvent(tick=0, channel=0, data=[63, 0]),
   midi.NoteOnEvent(tick=0, channel=0, data=[63, 42]),
   midi.NoteOnEvent(tick=0, channel=0, data=[53, 42]),
   midi.NoteOnEvent(tick=240, channel=0, data=[53, 0]),
   midi.NoteOnEvent(tick=0, channel=0, data=[63, 0]),
   midi.NoteOnEvent(tick=0, channel=0, data=[62, 45]),
   midi.NoteOnEvent(tick=0, channel=0, data=[58, 45]),
   midi.NoteOnEvent(tick=120, channel=0, data=[58, 0]),
   midi.NoteOnEvent(tick=0, channel=0, data=[62, 0]),
   midi.NoteOnEvent(tick=0, channel=0, data=[58, 50]),
   midi.NoteOnEvent(tick=120, channel=0, data=[58, 0]),
   midi.NoteOnEvent(tick=0, channel=0, data=[62, 54]),
   midi.NoteOnEvent(tick=120, channel=0, data=[62, 0]),
   midi.NoteOnEvent(tick=0, channel=0, data=[65, 57]),
   midi.NoteOnEvent(tick=120, channel=0, data=[65, 0]),
   midi.NoteOnEvent(tick=0, channel=0, data=[63, 63]),
   midi.NoteOnEvent(tick=120, channel=0, data=[63, 0]),
   midi.NoteOnEvent(tick=0, channel=0, data=[65, 54]),
   midi.NoteOnEvent(tick=120, channel=0, data=[65, 0]),
   midi.NoteOnEvent(tick=0, channel=0, data=[62, 63]),
   midi.NoteOnEvent(tick=120, channel=0, data=[62, 0]),
   midi.NoteOnEvent(tick=0, channel=0, data=[65, 54]),
   midi.NoteOnEvent(tick=120, channel=0, data=[65, 0]),
   midi.NoteOnEvent(tick=0, channel=0, data=[60, 63]),
   midi.NoteOnEvent(tick=120, channel=0, data=[60, 0]),
   midi.NoteOnEvent(tick=0, channel=0, data=[65, 56]),
   midi.NoteOnEvent(tick=120, channel=0, data=[65, 0]),
   midi.NoteOnEvent(tick=0, channel=0, data=[58, 63]),
   midi.NoteOnEvent(tick=120, channel=0, data=[58, 0]),
   midi.NoteOnEvent(tick=0, channel=0, data=[65, 55]),
   midi.NoteOnEvent(tick=120, channel=0, data=[65, 0]),
   midi.NoteOnEvent(tick=0, channel=0, data=[57, 63]),
   midi.NoteOnEvent(tick=120, channel=0, data=[57, 0]),
   midi.NoteOnEvent(tick=0, channel=0, data=[60, 53]),
   midi.NoteOnEvent(tick=120, channel=0, data=[60, 0]),
   midi.NoteOnEvent(tick=0, channel=0, data=[63, 56]),
   midi.NoteOnEvent(tick=120, channel=0, data=[63, 0]),
   midi.NoteOnEvent(tick=0, channel=0, data=[62, 53]),
   midi.NoteOnEvent(tick=120, channel=0, data=[62, 0]),
   midi.NoteOnEvent(tick=0, channel=0, data=[60, 61]),
   midi.NoteOnEvent(tick=120, channel=0, data=[60, 0]),
   midi.NoteOnEvent(tick=0, channel=0, data=[58, 54]),
   midi.NoteOnEvent(tick=120, channel=0, data=[58, 0]),
   midi.NoteOnEvent(tick=0, channel=0, data=[57, 56]),
   midi.NoteOnEvent(tick=120, channel=0, data=[57, 0]),
   midi.NoteOnEvent(tick=0, channel=0, data=[55, 54]),
   midi.NoteOnEvent(tick=120, channel=0, data=[55, 0]),
   midi.NoteOnEvent(tick=0, channel=0, data=[53, 56]),
   midi.NoteOnEvent(tick=120, channel=0, data=[53, 0]),
   midi.NoteOnEvent(tick=0, channel=0, data=[55, 54]),
   midi.NoteOnEvent(tick=120, channel=0, data=[55, 0]),
   midi.NoteOnEvent(tick=0, channel=0, data=[51, 56]),
   midi.NoteOnEvent(tick=120, channel=0, data=[51, 0]),
   midi.NoteOnEvent(tick=0, channel=0, data=[53, 54]),
   midi.NoteOnEvent(tick=120, channel=0, data=[53, 0]),
   midi.NoteOnEvent(tick=0, channel=0, data=[50, 61]),
   midi.NoteOnEvent(tick=120, channel=0, data=[50, 0]),
   midi.NoteOnEvent(tick=0, channel=0, data=[53, 52]),
   midi.NoteOnEvent(tick=120, channel=0, data=[53, 0]),
   midi.NoteOnEvent(tick=0, channel=0, data=[58, 54]),
   midi.NoteOnEvent(tick=120, channel=0, data=[58, 0]),
   midi.NoteOnEvent(tick=0, channel=0, data=[53, 51]),
   midi.NoteOnEvent(tick=120, channel=0, data=[53, 0]),
   midi.NoteOnEvent(tick=0, channel=0, data=[62, 57]),
   midi.NoteOnEvent(tick=120, channel=0, data=[62, 0]),
   midi.NoteOnEvent(tick=120, channel=0, data=[58, 41]),
   midi.NoteOnEvent(tick=0, channel=0, data=[62, 41]),
   midi.NoteOnEvent(tick=240, channel=0, data=[62, 0]),
   midi.NoteOnEvent(tick=0, channel=0, data=[58, 0]),
   midi.NoteOnEvent(tick=0, channel=0, data=[60, 43]),
   midi.NoteOnEvent(tick=0, channel=0, data=[63, 43]),
   midi.NoteOnEvent(tick=240, channel=0, data=[63, 0]),
   midi.NoteOnEvent(tick=0, channel=0, data=[60, 0]),
   midi.NoteOnEvent(tick=0, channel=0, data=[65, 39]),
   midi.NoteOnEvent(tick=0, channel=0, data=[62, 39]),
   midi.NoteOnEvent(tick=240, channel=0, data=[62, 0]),
   midi.NoteOnEvent(tick=0, channel=0, data=[65, 0]),
   midi.NoteOnEvent(tick=0, channel=0, data=[67, 46]),
   midi.NoteOnEvent(tick=0, channel=0, data=[63, 46]),
   midi.NoteOnEvent(tick=480, channel=0, data=[63, 0]),
   midi.NoteOnEvent(tick=0, channel=0, data=[67, 0]),
   midi.NoteOnEvent(tick=240, channel=0, data=[60, 41]),
   midi.NoteOnEvent(tick=0, channel=0, data=[51, 41]),
   midi.NoteOnEvent(tick=240, channel=0, data=[51, 0]),
   midi.NoteOnEvent(tick=0, channel=0, data=[60, 0]),
   midi.NoteOnEvent(tick=0, channel=0, data=[62, 43]),
   midi.NoteOnEvent(tick=0, channel=0, data=[53, 43]),
   midi.NoteOnEvent(tick=240, channel=0, data=[62, 0]),
   midi.NoteOnEvent(tick=0, channel=0, data=[63, 42]),
   midi.NoteOnEvent(tick=240, channel=0, data=[63, 0]),
   midi.NoteOnEvent(tick=0, channel=0, data=[53, 0]),
   midi.NoteOnEvent(tick=0, channel=0, data=[63, 45]),
   midi.NoteOnEvent(tick=0, channel=0, data=[58, 45]),
   midi.NoteOnEvent(tick=480, channel=0, data=[63, 0]),
   midi.NoteOnEvent(tick=0, channel=0, data=[62, 35]),
   midi.NoteOnEvent(tick=120, channel=0, data=[62, 0]),
   midi.NoteOnEvent(tick=0, channel=0, data=[58, 0]),
   midi.NoteOnEvent(tick=0, channel=0, data=[58, 51]),
   midi.NoteOnEvent(tick=120, channel=0, data=[58, 0]),
   midi.NoteOnEvent(tick=0, channel=0, data=[62, 54]),
   midi.NoteOnEvent(tick=120, channel=0, data=[62, 0]),
   midi.NoteOnEvent(tick=0, channel=0, data=[65, 51]),
   midi.NoteOnEvent(tick=120, channel=0, data=[65, 0]),
   midi.NoteOnEvent(tick=0, channel=0, data=[63, 57]),
   midi.NoteOnEvent(tick=120, channel=0, data=[63, 0]),
   midi.NoteOnEvent(tick=0, channel=0, data=[62, 54]),
   midi.NoteOnEvent(tick=120, channel=0, data=[62, 0]),
   midi.NoteOnEvent(tick=0, channel=0, data=[60, 55]),
   midi.NoteOnEvent(tick=120, channel=0, data=[60, 0]),
   midi.NoteOnEvent(tick=0, channel=0, data=[58, 53]),
   midi.NoteOnEvent(tick=120, channel=0, data=[58, 0]),
   midi.NoteOnEvent(tick=0, channel=0, data=[57, 63]),
   midi.NoteOnEvent(tick=120, channel=0, data=[57, 0]),
   midi.NoteOnEvent(tick=0, channel=0, data=[60, 54]),
   midi.NoteOnEvent(tick=120, channel=0, data=[60, 0]),
   midi.NoteOnEvent(tick=0, channel=0, data=[63, 56]),
   midi.NoteOnEvent(tick=120, channel=0, data=[63, 0]),
   midi.NoteOnEvent(tick=0, channel=0, data=[62, 54]),
   midi.NoteOnEvent(tick=120, channel=0, data=[62, 0]),
   midi.NoteOnEvent(tick=0, channel=0, data=[60, 61]),
   midi.NoteOnEvent(tick=120, channel=0, data=[60, 0]),
   midi.NoteOnEvent(tick=0, channel=0, data=[58, 54]),
   midi.NoteOnEvent(tick=120, channel=0, data=[58, 0]),
   midi.NoteOnEvent(tick=0, channel=0, data=[57, 56]),
   midi.NoteOnEvent(tick=120, channel=0, data=[57, 0]),
   midi.NoteOnEvent(tick=0, channel=0, data=[55, 54]),
   midi.NoteOnEvent(tick=120, channel=0, data=[55, 0]),
   midi.NoteOnEvent(tick=0, channel=0, data=[53, 56]),
   midi.NoteOnEvent(tick=120, channel=0, data=[53, 0]),
   midi.NoteOnEvent(tick=0, channel=0, data=[55, 54]),
   midi.NoteOnEvent(tick=120, channel=0, data=[55, 0]),
   midi.NoteOnEvent(tick=0, channel=0, data=[51, 56]),
   midi.NoteOnEvent(tick=120, channel=0, data=[51, 0]),
   midi.NoteOnEvent(tick=0, channel=0, data=[53, 54]),
   midi.NoteOnEvent(tick=120, channel=0, data=[53, 0]),
   midi.NoteOnEvent(tick=0, channel=0, data=[50, 61]),
   midi.NoteOnEvent(tick=120, channel=0, data=[50, 0]),
   midi.NoteOnEvent(tick=0, channel=0, data=[53, 46]),
   midi.NoteOnEvent(tick=120, channel=0, data=[53, 0]),
   midi.NoteOnEvent(tick=0, channel=0, data=[58, 51]),
   midi.NoteOnEvent(tick=120, channel=0, data=[58, 0]),
   midi.NoteOnEvent(tick=0, channel=0, data=[53, 45]),
   midi.NoteOnEvent(tick=120, channel=0, data=[53, 0]),
   midi.NoteOnEvent(tick=0, channel=0, data=[62, 50]),
   midi.NoteOnEvent(tick=120, channel=0, data=[62, 0]),
   midi.NoteOnEvent(tick=120, channel=0, data=[58, 41]),
   midi.NoteOnEvent(tick=0, channel=0, data=[62, 41]),
   midi.NoteOnEvent(tick=240, channel=0, data=[62, 0]),
   midi.NoteOnEvent(tick=0, channel=0, data=[58, 0]),
   midi.NoteOnEvent(tick=0, channel=0, data=[60, 43]),
   midi.NoteOnEvent(tick=0, channel=0, data=[63, 43]),
   midi.NoteOnEvent(tick=240, channel=0, data=[63, 0]),
   midi.NoteOnEvent(tick=0, channel=0, data=[60, 0]),
   midi.NoteOnEvent(tick=0, channel=0, data=[65, 42]),
   midi.NoteOnEvent(tick=0, channel=0, data=[62, 42]),
   midi.NoteOnEvent(tick=240, channel=0, data=[62, 0]),
   midi.NoteOnEvent(tick=0, channel=0, data=[65, 0]),
   midi.NoteOnEvent(tick=0, channel=0, data=[63, 43]),
   midi.NoteOnEvent(tick=0, channel=0, data=[67, 43]),
   midi.NoteOnEvent(tick=480, channel=0, data=[67, 0]),
   midi.NoteOnEvent(tick=0, channel=0, data=[63, 0]),
   midi.NoteOnEvent(tick=480, channel=0, data=[57, 43]),
   midi.NoteOnEvent(tick=0, channel=0, data=[63, 43]),
   midi.NoteOnEvent(tick=0, channel=0, data=[53, 43]),
   midi.NoteOnEvent(tick=240, channel=0, data=[57, 0]),
   midi.NoteOnEvent(tick=0, channel=0, data=[60, 43]),
   midi.NoteOnEvent(tick=240, channel=0, data=[60, 0]),
   midi.NoteOnEvent(tick=0, channel=0, data=[53, 0]),
   midi.NoteOnEvent(tick=0, channel=0, data=[63, 0]),
   midi.NoteOnEvent(tick=0, channel=0, data=[58, 43]),
   midi.NoteOnEvent(tick=120, channel=0, data=[58, 0]),
   midi.NoteOnEvent(tick=0, channel=0, data=[62, 39]),
   midi.NoteOnEvent(tick=120, channel=0, data=[62, 0]),
   midi.NoteOnEvent(tick=0, channel=0, data=[65, 40]),
   midi.NoteOnEvent(tick=120, channel=0, data=[65, 0]),
   midi.NoteOnEvent(tick=0, channel=0, data=[62, 42]),
   midi.NoteOnEvent(tick=120, channel=0, data=[62, 0]),
   midi.NoteOnEvent(tick=0, channel=0, data=[58, 46]),
   midi.NoteOnEvent(tick=120, channel=0, data=[58, 0]),
   midi.NoteOnEvent(tick=0, channel=0, data=[62, 44]),
   midi.NoteOnEvent(tick=120, channel=0, data=[62, 0]),
   midi.NoteOnEvent(tick=0, channel=0, data=[65, 45]),
   midi.NoteOnEvent(tick=120, channel=0, data=[65, 0]),
   midi.NoteOnEvent(tick=0, channel=0, data=[62, 46]),
   midi.NoteOnEvent(tick=120, channel=0, data=[62, 0]),
   midi.NoteOnEvent(tick=0, channel=0, data=[63, 53]),
   midi.NoteOnEvent(tick=120, channel=0, data=[63, 0]),
   midi.NoteOnEvent(tick=0, channel=0, data=[60, 50]),
   midi.NoteOnEvent(tick=120, channel=0, data=[60, 0]),
   midi.NoteOnEvent(tick=0, channel=0, data=[65, 51]),
   midi.NoteOnEvent(tick=120, channel=0, data=[65, 0]),
   midi.NoteOnEvent(tick=0, channel=0, data=[63, 53]),
   midi.NoteOnEvent(tick=120, channel=0, data=[63, 0]),
   midi.NoteOnEvent(tick=0, channel=0, data=[62, 56]),
   midi.NoteOnEvent(tick=120, channel=0, data=[62, 0]),
   midi.NoteOnEvent(tick=0, channel=0, data=[65, 51]),
   midi.NoteOnEvent(tick=120, channel=0, data=[65, 0]),
   midi.NoteOnEvent(tick=0, channel=0, data=[62, 53]),
   midi.NoteOnEvent(tick=120, channel=0, data=[62, 0]),
   midi.NoteOnEvent(tick=0, channel=0, data=[60, 50]),
   midi.NoteOnEvent(tick=120, channel=0, data=[60, 0]),
   midi.NoteOnEvent(tick=0, channel=0, data=[58, 64]),
   midi.NoteOnEvent(tick=120, channel=0, data=[58, 0]),
   midi.NoteOnEvent(tick=0, channel=0, data=[56, 56]),
   midi.NoteOnEvent(tick=120, channel=0, data=[56, 0]),
   midi.NoteOnEvent(tick=0, channel=0, data=[53, 59]),
   midi.NoteOnEvent(tick=120, channel=0, data=[53, 0]),
   midi.NoteOnEvent(tick=0, channel=0, data=[50, 56]),
   midi.NoteOnEvent(tick=120, channel=0, data=[50, 0]),
   midi.NoteOnEvent(tick=0, channel=0, data=[51, 64]),
   midi.NoteOnEvent(tick=120, channel=0, data=[51, 0]),
   midi.NoteOnEvent(tick=0, channel=0, data=[48, 59]),
   midi.NoteOnEvent(tick=120, channel=0, data=[48, 0]),
   midi.NoteOnEvent(tick=0, channel=0, data=[53, 64]),
   midi.NoteOnEvent(tick=120, channel=0, data=[53, 0]),
   midi.NoteOnEvent(tick=0, channel=0, data=[41, 54]),
   midi.NoteOnEvent(tick=120, channel=0, data=[41, 0]),
   midi.NoteOnEvent(tick=0, channel=0, data=[46, 46]),
   midi.NoteOnEvent(tick=720, channel=0, data=[46, 0]),
   midi.NoteOnEvent(tick=0, channel=0, data=[56, 42]),
   midi.NoteOnEvent(tick=240, channel=0, data=[56, 0]),
   midi.NoteOnEvent(tick=0, channel=0, data=[55, 45]),
   midi.NoteOnEvent(tick=240, channel=0, data=[55, 0]),
   midi.NoteOnEvent(tick=0, channel=0, data=[53, 49]),
   midi.NoteOnEvent(tick=240, channel=0, data=[53, 0]),
   midi.ControlChangeEvent(tick=0, channel=0, data=[91, 127]),
   midi.NoteOnEvent(tick=1, channel=0, data=[51, 51]),
   midi.NoteOnEvent(tick=960, channel=0, data=[51, 0]),
   midi.NoteOnEvent(tick=479, channel=0, data=[51, 50]),
   midi.NoteOnEvent(tick=480, channel=0, data=[51, 0]),
   midi.NoteOnEvent(tick=0, channel=0, data=[53, 46]),
   midi.NoteOnEvent(tick=480, channel=0, data=[53, 0]),
   midi.NoteOnEvent(tick=0, channel=0, data=[55, 45]),
   midi.NoteOnEvent(tick=480, channel=0, data=[55, 0]),
   midi.NoteOnEvent(tick=0, channel=0, data=[58, 55]),
   midi.NoteOnEvent(tick=0, channel=0, data=[61, 55]),
   midi.NoteOnEvent(tick=480, channel=0, data=[61, 0]),
   midi.NoteOnEvent(tick=0, channel=0, data=[58, 0]),
   midi.NoteOnEvent(tick=0, channel=0, data=[60, 51]),
   midi.NoteOnEvent(tick=0, channel=0, data=[56, 51]),
   midi.NoteOnEvent(tick=480, channel=0, data=[56, 0]),
   midi.NoteOnEvent(tick=0, channel=0, data=[60, 0]),
   midi.NoteOnEvent(tick=480, channel=0, data=[45, 47]),
   midi.NoteOnEvent(tick=120, channel=0, data=[45, 0]),
   midi.NoteOnEvent(tick=0, channel=0, data=[46, 50]),
   midi.NoteOnEvent(tick=120, channel=0, data=[46, 0]),
   midi.NoteOnEvent(tick=0, channel=0, data=[48, 53]),
   midi.NoteOnEvent(tick=120, channel=0, data=[48, 0]),
   midi.NoteOnEvent(tick=0, channel=0, data=[46, 51]),
   midi.NoteOnEvent(tick=110, channel=0, data=[46, 0]),
   midi.NoteOnEvent(tick=10, channel=0, data=[46, 49]),
   midi.NoteOnEvent(tick=480, channel=0, data=[46, 0]),
   midi.NoteOnEvent(tick=480, channel=0, data=[39, 53]),
   midi.NoteOnEvent(tick=0, channel=0, data=[51, 53]),
   midi.NoteOnEvent(tick=480, channel=0, data=[51, 0]),
   midi.NoteOnEvent(tick=0, channel=0, data=[39, 0]),
   midi.NoteOnEvent(tick=480, channel=0, data=[51, 49]),
   midi.NoteOnEvent(tick=0, channel=0, data=[60, 49]),
   midi.NoteOnEvent(tick=480, channel=0, data=[60, 0]),
   midi.NoteOnEvent(tick=0, channel=0, data=[51, 0]),
   midi.NoteOnEvent(tick=0, channel=0, data=[60, 53]),
   midi.NoteOnEvent(tick=0, channel=0, data=[53, 53]),
   midi.NoteOnEvent(tick=480, channel=0, data=[53, 0]),
   midi.NoteOnEvent(tick=0, channel=0, data=[60, 0]),
   midi.NoteOnEvent(tick=0, channel=0, data=[58, 50]),
   midi.NoteOnEvent(tick=0, channel=0, data=[62, 50]),
   midi.NoteOnEvent(tick=480, channel=0, data=[62, 0]),
   midi.NoteOnEvent(tick=0, channel=0, data=[58, 0]),
   midi.NoteOnEvent(tick=0, channel=0, data=[60, 49]),
   midi.NoteOnEvent(tick=0, channel=0, data=[63, 49]),
   midi.NoteOnEvent(tick=240, channel=0, data=[63, 0]),
   midi.NoteOnEvent(tick=0, channel=0, data=[60, 0]),
   midi.NoteOnEvent(tick=240, channel=0, data=[44, 54]),
   midi.NoteOnEvent(tick=0, channel=0, data=[56, 54]),
   midi.NoteOnEvent(tick=480, channel=0, data=[56, 0]),
   midi.NoteOnEvent(tick=0, channel=0, data=[44, 0]),
   midi.NoteOnEvent(tick=0, channel=0, data=[46, 50]),
   midi.NoteOnEvent(tick=0, channel=0, data=[55, 50]),
   midi.NoteOnEvent(tick=480, channel=0, data=[55, 0]),
   midi.NoteOnEvent(tick=0, channel=0, data=[56, 40]),
   midi.NoteOnEvent(tick=480, channel=0, data=[56, 0]),
   midi.NoteOnEvent(tick=0, channel=0, data=[46, 0]),
   midi.NoteOnEvent(tick=0, channel=0, data=[51, 32]),
   midi.NoteOnEvent(tick=120, channel=0, data=[51, 0]),
   midi.NoteOnEvent(tick=0, channel=0, data=[55, 32]),
   midi.NoteOnEvent(tick=120, channel=0, data=[55, 0]),
   midi.NoteOnEvent(tick=0, channel=0, data=[58, 30]),
   midi.NoteOnEvent(tick=120, channel=0, data=[58, 0]),
   midi.NoteOnEvent(tick=0, channel=0, data=[55, 27]),
   midi.NoteOnEvent(tick=120, channel=0, data=[55, 0]),
   midi.NoteOnEvent(tick=0, channel=0, data=[51, 33]),
   midi.NoteOnEvent(tick=120, channel=0, data=[51, 0]),
   midi.NoteOnEvent(tick=0, channel=0, data=[55, 29]),
   midi.NoteOnEvent(tick=120, channel=0, data=[55, 0]),
   midi.NoteOnEvent(tick=0, channel=0, data=[58, 31]),
   midi.NoteOnEvent(tick=120, channel=0, data=[58, 0]),
   midi.NoteOnEvent(tick=0, channel=0, data=[55, 29]),
   midi.NoteOnEvent(tick=120, channel=0, data=[55, 0]),
   midi.NoteOnEvent(tick=0, channel=0, data=[51, 33]),
   midi.NoteOnEvent(tick=120, channel=0, data=[51, 0]),
   midi.NoteOnEvent(tick=0, channel=0, data=[55, 29]),
   midi.NoteOnEvent(tick=120, channel=0, data=[55, 0]),
   midi.NoteOnEvent(tick=0, channel=0, data=[58, 31]),
   midi.NoteOnEvent(tick=120, channel=0, data=[58, 0]),
   midi.NoteOnEvent(tick=0, channel=0, data=[55, 29]),
   midi.NoteOnEvent(tick=120, channel=0, data=[55, 0]),
   midi.NoteOnEvent(tick=0, channel=0, data=[51, 36]),
   midi.NoteOnEvent(tick=120, channel=0, data=[51, 0]),
   midi.NoteOnEvent(tick=0, channel=0, data=[53, 27]),
   midi.NoteOnEvent(tick=120, channel=0, data=[53, 0]),
   midi.NoteOnEvent(tick=0, channel=0, data=[56, 30]),
   midi.NoteOnEvent(tick=120, channel=0, data=[56, 0]),
   midi.NoteOnEvent(tick=0, channel=0, data=[53, 27]),
   midi.NoteOnEvent(tick=120, channel=0, data=[53, 0]),
   midi.NoteOnEvent(tick=0, channel=0, data=[51, 32]),
   midi.NoteOnEvent(tick=120, channel=0, data=[51, 0]),
   midi.NoteOnEvent(tick=0, channel=0, data=[53, 27]),
   midi.NoteOnEvent(tick=120, channel=0, data=[53, 0]),
   midi.NoteOnEvent(tick=0, channel=0, data=[56, 30]),
   midi.NoteOnEvent(tick=120, channel=0, data=[56, 0]),
   midi.NoteOnEvent(tick=0, channel=0, data=[53, 27]),
   midi.NoteOnEvent(tick=120, channel=0, data=[53, 0]),
   midi.NoteOnEvent(tick=0, channel=0, data=[51, 32]),
   midi.NoteOnEvent(tick=120, channel=0, data=[51, 0]),
   midi.NoteOnEvent(tick=0, channel=0, data=[53, 27]),
   midi.NoteOnEvent(tick=120, channel=0, data=[53, 0]),
   midi.NoteOnEvent(tick=0, channel=0, data=[56, 30]),
   midi.NoteOnEvent(tick=120, channel=0, data=[56, 0]),
   midi.NoteOnEvent(tick=0, channel=0, data=[53, 27]),
   midi.NoteOnEvent(tick=120, channel=0, data=[53, 0]),
   midi.NoteOnEvent(tick=0, channel=0, data=[51, 33]),
   midi.NoteOnEvent(tick=120, channel=0, data=[51, 0]),
   midi.NoteOnEvent(tick=0, channel=0, data=[55, 27]),
   midi.NoteOnEvent(tick=120, channel=0, data=[55, 0]),
   midi.NoteOnEvent(tick=0, channel=0, data=[58, 30]),
   midi.NoteOnEvent(tick=120, channel=0, data=[58, 0]),
   midi.NoteOnEvent(tick=0, channel=0, data=[55, 27]),
   midi.NoteOnEvent(tick=120, channel=0, data=[55, 0]),
   midi.NoteOnEvent(tick=0, channel=0, data=[51, 29]),
   midi.NoteOnEvent(tick=120, channel=0, data=[51, 0]),
   midi.NoteOnEvent(tick=0, channel=0, data=[55, 27]),
   midi.NoteOnEvent(tick=120, channel=0, data=[55, 0]),
   midi.NoteOnEvent(tick=0, channel=0, data=[58, 30]),
   midi.NoteOnEvent(tick=120, channel=0, data=[58, 0]),
   midi.NoteOnEvent(tick=0, channel=0, data=[55, 27]),
   midi.NoteOnEvent(tick=120, channel=0, data=[55, 0]),
   midi.NoteOnEvent(tick=0, channel=0, data=[51, 29]),
   midi.NoteOnEvent(tick=120, channel=0, data=[51, 0]),
   midi.NoteOnEvent(tick=0, channel=0, data=[55, 27]),
   midi.NoteOnEvent(tick=120, channel=0, data=[55, 0]),
   midi.NoteOnEvent(tick=0, channel=0, data=[58, 30]),
   midi.NoteOnEvent(tick=120, channel=0, data=[58, 0]),
   midi.NoteOnEvent(tick=0, channel=0, data=[55, 27]),
   midi.NoteOnEvent(tick=120, channel=0, data=[55, 0]),
   midi.NoteOnEvent(tick=0, channel=0, data=[51, 35]),
   midi.NoteOnEvent(tick=120, channel=0, data=[51, 0]),
   midi.NoteOnEvent(tick=0, channel=0, data=[53, 29]),
   midi.NoteOnEvent(tick=120, channel=0, data=[53, 0]),
   midi.NoteOnEvent(tick=0, channel=0, data=[56, 30]),
   midi.NoteOnEvent(tick=120, channel=0, data=[56, 0]),
   midi.NoteOnEvent(tick=0, channel=0, data=[53, 29]),
   midi.NoteOnEvent(tick=120, channel=0, data=[53, 0]),
   midi.NoteOnEvent(tick=0, channel=0, data=[51, 32]),
   midi.NoteOnEvent(tick=120, channel=0, data=[51, 0]),
   midi.NoteOnEvent(tick=0, channel=0, data=[53, 27]),
   midi.NoteOnEvent(tick=120, channel=0, data=[53, 0]),
   midi.NoteOnEvent(tick=0, channel=0, data=[56, 27]),
   midi.NoteOnEvent(tick=120, channel=0, data=[56, 0]),
   midi.NoteOnEvent(tick=0, channel=0, data=[53, 27]),
   midi.NoteOnEvent(tick=120, channel=0, data=[53, 0]),
   midi.NoteOnEvent(tick=0, channel=0, data=[51, 32]),
   midi.NoteOnEvent(tick=120, channel=0, data=[51, 0]),
   midi.NoteOnEvent(tick=0, channel=0, data=[53, 27]),
   midi.NoteOnEvent(tick=120, channel=0, data=[53, 0]),
   midi.NoteOnEvent(tick=0, channel=0, data=[56, 27]),
   midi.NoteOnEvent(tick=120, channel=0, data=[56, 0]),
   midi.NoteOnEvent(tick=0, channel=0, data=[53, 27]),
   midi.NoteOnEvent(tick=120, channel=0, data=[53, 0]),
   midi.NoteOnEvent(tick=0, channel=0, data=[55, 27]),
   midi.NoteOnEvent(tick=0, channel=0, data=[51, 27]),
   midi.NoteOnEvent(tick=480, channel=0, data=[51, 0]),
   midi.NoteOnEvent(tick=0, channel=0, data=[55, 0]),
   midi.NoteOnEvent(tick=240, channel=0, data=[58, 32]),
   midi.NoteOnEvent(tick=0, channel=0, data=[55, 32]),
   midi.NoteOnEvent(tick=240, channel=0, data=[55, 0]),
   midi.NoteOnEvent(tick=0, channel=0, data=[58, 0]),
   midi.NoteOnEvent(tick=0, channel=0, data=[56, 34]),
   midi.NoteOnEvent(tick=0, channel=0, data=[60, 34]),
   midi.NoteOnEvent(tick=240, channel=0, data=[60, 0]),
   midi.NoteOnEvent(tick=0, channel=0, data=[56, 0]),
   midi.NoteOnEvent(tick=0, channel=0, data=[57, 35]),
   midi.NoteOnEvent(tick=0, channel=0, data=[60, 35]),
   midi.NoteOnEvent(tick=240, channel=0, data=[60, 0]),
   midi.NoteOnEvent(tick=0, channel=0, data=[57, 0]),
   midi.NoteOnEvent(tick=0, channel=0, data=[58, 37]),
   midi.NoteOnEvent(tick=480, channel=0, data=[58, 0]),
   midi.NoteOnEvent(tick=240, channel=0, data=[58, 46]),
   midi.NoteOnEvent(tick=240, channel=0, data=[58, 0]),
   midi.NoteOnEvent(tick=0, channel=0, data=[53, 46]),
   midi.NoteOnEvent(tick=240, channel=0, data=[53, 0]),
   midi.NoteOnEvent(tick=0, channel=0, data=[50, 46]),
   midi.NoteOnEvent(tick=240, channel=0, data=[50, 0]),
   midi.NoteOnEvent(tick=0, channel=0, data=[46, 53]),
   midi.NoteOnEvent(tick=240, channel=0, data=[46, 0]),
   midi.NoteOnEvent(tick=0, channel=0, data=[50, 45]),
   midi.NoteOnEvent(tick=240, channel=0, data=[50, 0]),
   midi.NoteOnEvent(tick=0, channel=0, data=[53, 47]),
   midi.NoteOnEvent(tick=240, channel=0, data=[53, 0]),
   midi.NoteOnEvent(tick=0, channel=0, data=[58, 45]),
   midi.NoteOnEvent(tick=240, channel=0, data=[58, 0]),
   midi.NoteOnEvent(tick=0, channel=0, data=[65, 51]),
   midi.NoteOnEvent(tick=0, channel=0, data=[63, 51]),
   midi.NoteOnEvent(tick=240, channel=0, data=[63, 0]),
   midi.NoteOnEvent(tick=0, channel=0, data=[62, 47]),
   midi.NoteOnEvent(tick=240, channel=0, data=[62, 0]),
   midi.NoteOnEvent(tick=0, channel=0, data=[65, 0]),
   midi.NoteOnEvent(tick=0, channel=0, data=[63, 51]),
   midi.NoteOnEvent(tick=0, channel=0, data=[60, 51]),
   midi.NoteOnEvent(tick=240, channel=0, data=[60, 0]),
   midi.NoteOnEvent(tick=0, channel=0, data=[63, 0]),
   midi.NoteOnEvent(tick=0, channel=0, data=[62, 47]),
   midi.NoteOnEvent(tick=0, channel=0, data=[58, 47]),
   midi.NoteOnEvent(tick=240, channel=0, data=[58, 0]),
   midi.NoteOnEvent(tick=0, channel=0, data=[62, 0]),
   midi.NoteOnEvent(tick=0, channel=0, data=[60, 47]),
   midi.NoteOnEvent(tick=0, channel=0, data=[57, 47]),
   midi.NoteOnEvent(tick=240, channel=0, data=[57, 0]),
   midi.NoteOnEvent(tick=0, channel=0, data=[60, 0]),
   midi.NoteOnEvent(tick=960, channel=0, data=[53, 45]),
   midi.NoteOnEvent(tick=240, channel=0, data=[53, 0]),
   midi.NoteOnEvent(tick=0, channel=0, data=[57, 45]),
   midi.NoteOnEvent(tick=240, channel=0, data=[57, 0]),
   midi.NoteOnEvent(tick=0, channel=0, data=[60, 45]),
   midi.NoteOnEvent(tick=240, channel=0, data=[60, 0]),
   midi.NoteOnEvent(tick=0, channel=0, data=[62, 50]),
   midi.NoteOnEvent(tick=240, channel=0, data=[62, 0]),
   midi.NoteOnEvent(tick=0, channel=0, data=[63, 45]),
   midi.NoteOnEvent(tick=0, channel=0, data=[65, 45]),
   midi.NoteOnEvent(tick=240, channel=0, data=[63, 0]),
   midi.NoteOnEvent(tick=0, channel=0, data=[62, 51]),
   midi.NoteOnEvent(tick=240, channel=0, data=[62, 0]),
   midi.NoteOnEvent(tick=0, channel=0, data=[65, 0]),
   midi.NoteOnEvent(tick=0, channel=0, data=[60, 45]),
   midi.NoteOnEvent(tick=0, channel=0, data=[63, 45]),
   midi.NoteOnEvent(tick=240, channel=0, data=[63, 0]),
   midi.NoteOnEvent(tick=0, channel=0, data=[60, 0]),
   midi.NoteOnEvent(tick=0, channel=0, data=[62, 50]),
   midi.NoteOnEvent(tick=0, channel=0, data=[58, 50]),
   midi.NoteOnEvent(tick=240, channel=0, data=[58, 0]),
   midi.NoteOnEvent(tick=0, channel=0, data=[62, 0]),
   midi.NoteOnEvent(tick=0, channel=0, data=[46, 54]),
   midi.NoteOnEvent(tick=216, channel=0, data=[46, 0]),
   midi.NoteOnEvent(tick=24, channel=0, data=[46, 57]),
   midi.NoteOnEvent(tick=216, channel=0, data=[46, 0]),
   midi.NoteOnEvent(tick=24, channel=0, data=[46, 54]),
   midi.NoteOnEvent(tick=216, channel=0, data=[46, 0]),
   midi.NoteOnEvent(tick=264, channel=0, data=[50, 54]),
   midi.NoteOnEvent(tick=240, channel=0, data=[50, 0]),
   midi.NoteOnEvent(tick=0, channel=0, data=[53, 56]),
   midi.NoteOnEvent(tick=240, channel=0, data=[53, 0]),
   midi.NoteOnEvent(tick=0, channel=0, data=[56, 52]),
   midi.NoteOnEvent(tick=240, channel=0, data=[56, 0]),
   midi.NoteOnEvent(tick=0, channel=0, data=[55, 56]),
   midi.NoteOnEvent(tick=240, channel=0, data=[55, 0]),
   midi.NoteOnEvent(tick=0, channel=0, data=[50, 53]),
   midi.NoteOnEvent(tick=120, channel=0, data=[50, 0]),
   midi.NoteOnEvent(tick=360, channel=0, data=[58, 53]),
   midi.NoteOnEvent(tick=0, channel=0, data=[51, 53]),
   midi.NoteOnEvent(tick=240, channel=0, data=[51, 0]),
   midi.NoteOnEvent(tick=0, channel=0, data=[58, 0]),
   midi.NoteOnEvent(tick=0, channel=0, data=[58, 53]),
   midi.NoteOnEvent(tick=0, channel=0, data=[51, 53]),
   midi.NoteOnEvent(tick=240, channel=0, data=[51, 0]),
   midi.NoteOnEvent(tick=0, channel=0, data=[58, 0]),
   midi.NoteOnEvent(tick=0, channel=0, data=[59, 55]),
   midi.NoteOnEvent(tick=0, channel=0, data=[51, 55]),
   midi.NoteOnEvent(tick=240, channel=0, data=[51, 0]),
   midi.NoteOnEvent(tick=0, channel=0, data=[59, 0]),
   midi.NoteOnEvent(tick=0, channel=0, data=[51, 55]),
   midi.NoteOnEvent(tick=0, channel=0, data=[60, 55]),
   midi.NoteOnEvent(tick=240, channel=0, data=[60, 0]),
   midi.NoteOnEvent(tick=0, channel=0, data=[51, 0]),
   midi.NoteOnEvent(tick=0, channel=0, data=[57, 53]),
   midi.NoteOnEvent(tick=0, channel=0, data=[51, 53]),
   midi.NoteOnEvent(tick=240, channel=0, data=[51, 0]),
   midi.NoteOnEvent(tick=0, channel=0, data=[57, 0]),
   midi.NoteOnEvent(tick=0, channel=0, data=[58, 54]),
   midi.NoteOnEvent(tick=0, channel=0, data=[50, 54]),
   midi.NoteOnEvent(tick=240, channel=0, data=[50, 0]),
   midi.NoteOnEvent(tick=0, channel=0, data=[58, 0]),
   midi.NoteOnEvent(tick=0, channel=0, data=[51, 50]),
   midi.NoteOnEvent(tick=0, channel=0, data=[58, 50]),
   midi.NoteOnEvent(tick=240, channel=0, data=[58, 0]),
   midi.NoteOnEvent(tick=0, channel=0, data=[51, 0]),
   midi.NoteOnEvent(tick=0, channel=0, data=[53, 50]),
   midi.NoteOnEvent(tick=0, channel=0, data=[62, 50]),
   midi.NoteOnEvent(tick=240, channel=0, data=[62, 0]),
   midi.NoteOnEvent(tick=0, channel=0, data=[53, 0]),
   midi.NoteOnEvent(tick=0, channel=0, data=[62, 46]),
   midi.NoteOnEvent(tick=0, channel=0, data=[53, 46]),
   midi.NoteOnEvent(tick=240, channel=0, data=[53, 0]),
   midi.NoteOnEvent(tick=0, channel=0, data=[62, 0]),
   midi.NoteOnEvent(tick=0, channel=0, data=[63, 42]),
   midi.NoteOnEvent(tick=0, channel=0, data=[53, 42]),
   midi.NoteOnEvent(tick=240, channel=0, data=[53, 0]),
   midi.NoteOnEvent(tick=0, channel=0, data=[63, 0]),
   midi.NoteOnEvent(tick=0, channel=0, data=[63, 42]),
   midi.NoteOnEvent(tick=0, channel=0, data=[53, 42]),
   midi.NoteOnEvent(tick=240, channel=0, data=[53, 0]),
   midi.NoteOnEvent(tick=0, channel=0, data=[63, 0]),
   midi.NoteOnEvent(tick=0, channel=0, data=[62, 45]),
   midi.NoteOnEvent(tick=0, channel=0, data=[58, 45]),
   midi.NoteOnEvent(tick=120, channel=0, data=[58, 0]),
   midi.NoteOnEvent(tick=0, channel=0, data=[62, 0]),
   midi.NoteOnEvent(tick=0, channel=0, data=[58, 50]),
   midi.NoteOnEvent(tick=120, channel=0, data=[58, 0]),
   midi.NoteOnEvent(tick=0, channel=0, data=[62, 54]),
   midi.NoteOnEvent(tick=120, channel=0, data=[62, 0]),
   midi.NoteOnEvent(tick=0, channel=0, data=[65, 57]),
   midi.NoteOnEvent(tick=120, channel=0, data=[65, 0]),
   midi.NoteOnEvent(tick=0, channel=0, data=[63, 63]),
   midi.NoteOnEvent(tick=120, channel=0, data=[63, 0]),
   midi.NoteOnEvent(tick=0, channel=0, data=[65, 54]),
   midi.NoteOnEvent(tick=120, channel=0, data=[65, 0]),
   midi.NoteOnEvent(tick=0, channel=0, data=[62, 63]),
   midi.NoteOnEvent(tick=120, channel=0, data=[62, 0]),
   midi.NoteOnEvent(tick=0, channel=0, data=[65, 54]),
   midi.NoteOnEvent(tick=120, channel=0, data=[65, 0]),
   midi.NoteOnEvent(tick=0, channel=0, data=[60, 63]),
   midi.NoteOnEvent(tick=120, channel=0, data=[60, 0]),
   midi.NoteOnEvent(tick=0, channel=0, data=[65, 56]),
   midi.NoteOnEvent(tick=120, channel=0, data=[65, 0]),
   midi.NoteOnEvent(tick=0, channel=0, data=[58, 63]),
   midi.NoteOnEvent(tick=120, channel=0, data=[58, 0]),
   midi.NoteOnEvent(tick=0, channel=0, data=[65, 55]),
   midi.NoteOnEvent(tick=120, channel=0, data=[65, 0]),
   midi.NoteOnEvent(tick=0, channel=0, data=[57, 63]),
   midi.NoteOnEvent(tick=120, channel=0, data=[57, 0]),
   midi.NoteOnEvent(tick=0, channel=0, data=[60, 53]),
   midi.NoteOnEvent(tick=120, channel=0, data=[60, 0]),
   midi.NoteOnEvent(tick=0, channel=0, data=[63, 56]),
   midi.NoteOnEvent(tick=120, channel=0, data=[63, 0]),
   midi.NoteOnEvent(tick=0, channel=0, data=[62, 53]),
   midi.NoteOnEvent(tick=120, channel=0, data=[62, 0]),
   midi.NoteOnEvent(tick=0, channel=0, data=[60, 61]),
   midi.NoteOnEvent(tick=120, channel=0, data=[60, 0]),
   midi.NoteOnEvent(tick=0, channel=0, data=[58, 54]),
   midi.NoteOnEvent(tick=120, channel=0, data=[58, 0]),
   midi.NoteOnEvent(tick=0, channel=0, data=[57, 56]),
   midi.NoteOnEvent(tick=120, channel=0, data=[57, 0]),
   midi.NoteOnEvent(tick=0, channel=0, data=[55, 54]),
   midi.NoteOnEvent(tick=120, channel=0, data=[55, 0]),
   midi.NoteOnEvent(tick=0, channel=0, data=[53, 56]),
   midi.NoteOnEvent(tick=120, channel=0, data=[53, 0]),
   midi.NoteOnEvent(tick=0, channel=0, data=[55, 54]),
   midi.NoteOnEvent(tick=120, channel=0, data=[55, 0]),
   midi.NoteOnEvent(tick=0, channel=0, data=[51, 56]),
   midi.NoteOnEvent(tick=120, channel=0, data=[51, 0]),
   midi.NoteOnEvent(tick=0, channel=0, data=[53, 54]),
   midi.NoteOnEvent(tick=120, channel=0, data=[53, 0]),
   midi.NoteOnEvent(tick=0, channel=0, data=[50, 61]),
   midi.NoteOnEvent(tick=120, channel=0, data=[50, 0]),
   midi.NoteOnEvent(tick=0, channel=0, data=[53, 52]),
   midi.NoteOnEvent(tick=120, channel=0, data=[53, 0]),
   midi.NoteOnEvent(tick=0, channel=0, data=[58, 54]),
   midi.NoteOnEvent(tick=120, channel=0, data=[58, 0]),
   midi.NoteOnEvent(tick=0, channel=0, data=[53, 51]),
   midi.NoteOnEvent(tick=120, channel=0, data=[53, 0]),
   midi.NoteOnEvent(tick=0, channel=0, data=[62, 57]),
   midi.NoteOnEvent(tick=120, channel=0, data=[62, 0]),
   midi.NoteOnEvent(tick=120, channel=0, data=[58, 41]),
   midi.NoteOnEvent(tick=0, channel=0, data=[62, 41]),
   midi.NoteOnEvent(tick=240, channel=0, data=[62, 0]),
   midi.NoteOnEvent(tick=0, channel=0, data=[58, 0]),
   midi.NoteOnEvent(tick=0, channel=0, data=[60, 43]),
   midi.NoteOnEvent(tick=0, channel=0, data=[63, 43]),
   midi.NoteOnEvent(tick=240, channel=0, data=[63, 0]),
   midi.NoteOnEvent(tick=0, channel=0, data=[60, 0]),
   midi.NoteOnEvent(tick=0, channel=0, data=[65, 39]),
   midi.NoteOnEvent(tick=0, channel=0, data=[62, 39]),
   midi.NoteOnEvent(tick=240, channel=0, data=[62, 0]),
   midi.NoteOnEvent(tick=0, channel=0, data=[65, 0]),
   midi.NoteOnEvent(tick=0, channel=0, data=[67, 46]),
   midi.NoteOnEvent(tick=0, channel=0, data=[63, 46]),
   midi.NoteOnEvent(tick=480, channel=0, data=[63, 0]),
   midi.NoteOnEvent(tick=0, channel=0, data=[67, 0]),
   midi.NoteOnEvent(tick=240, channel=0, data=[60, 41]),
   midi.NoteOnEvent(tick=0, channel=0, data=[51, 41]),
   midi.NoteOnEvent(tick=240, channel=0, data=[51, 0]),
   midi.NoteOnEvent(tick=0, channel=0, data=[60, 0]),
   midi.NoteOnEvent(tick=0, channel=0, data=[62, 43]),
   midi.NoteOnEvent(tick=0, channel=0, data=[53, 43]),
   midi.NoteOnEvent(tick=240, channel=0, data=[62, 0]),
   midi.NoteOnEvent(tick=0, channel=0, data=[63, 42]),
   midi.NoteOnEvent(tick=240, channel=0, data=[63, 0]),
   midi.NoteOnEvent(tick=0, channel=0, data=[53, 0]),
   midi.NoteOnEvent(tick=0, channel=0, data=[63, 45]),
   midi.NoteOnEvent(tick=0, channel=0, data=[58, 45]),
   midi.NoteOnEvent(tick=480, channel=0, data=[63, 0]),
   midi.NoteOnEvent(tick=0, channel=0, data=[62, 35]),
   midi.NoteOnEvent(tick=120, channel=0, data=[62, 0]),
   midi.NoteOnEvent(tick=0, channel=0, data=[58, 0]),
   midi.NoteOnEvent(tick=0, channel=0, data=[58, 51]),
   midi.NoteOnEvent(tick=120, channel=0, data=[58, 0]),
   midi.NoteOnEvent(tick=0, channel=0, data=[62, 54]),
   midi.NoteOnEvent(tick=120, channel=0, data=[62, 0]),
   midi.NoteOnEvent(tick=0, channel=0, data=[65, 51]),
   midi.NoteOnEvent(tick=120, channel=0, data=[65, 0]),
   midi.NoteOnEvent(tick=0, channel=0, data=[63, 57]),
   midi.NoteOnEvent(tick=120, channel=0, data=[63, 0]),
   midi.NoteOnEvent(tick=0, channel=0, data=[62, 54]),
   midi.NoteOnEvent(tick=120, channel=0, data=[62, 0]),
   midi.NoteOnEvent(tick=0, channel=0, data=[60, 55]),
   midi.NoteOnEvent(tick=120, channel=0, data=[60, 0]),
   midi.NoteOnEvent(tick=0, channel=0, data=[58, 53]),
   midi.NoteOnEvent(tick=120, channel=0, data=[58, 0]),
   midi.NoteOnEvent(tick=0, channel=0, data=[57, 63]),
   midi.NoteOnEvent(tick=120, channel=0, data=[57, 0]),
   midi.NoteOnEvent(tick=0, channel=0, data=[60, 54]),
   midi.NoteOnEvent(tick=120, channel=0, data=[60, 0]),
   midi.NoteOnEvent(tick=0, channel=0, data=[63, 56]),
   midi.NoteOnEvent(tick=120, channel=0, data=[63, 0]),
   midi.NoteOnEvent(tick=0, channel=0, data=[62, 54]),
   midi.NoteOnEvent(tick=120, channel=0, data=[62, 0]),
   midi.NoteOnEvent(tick=0, channel=0, data=[60, 61]),
   midi.NoteOnEvent(tick=120, channel=0, data=[60, 0]),
   midi.NoteOnEvent(tick=0, channel=0, data=[58, 54]),
   midi.NoteOnEvent(tick=120, channel=0, data=[58, 0]),
   midi.NoteOnEvent(tick=0, channel=0, data=[57, 56]),
   midi.NoteOnEvent(tick=120, channel=0, data=[57, 0]),
   midi.NoteOnEvent(tick=0, channel=0, data=[55, 54]),
   midi.NoteOnEvent(tick=120, channel=0, data=[55, 0]),
   midi.NoteOnEvent(tick=0, channel=0, data=[53, 56]),
   midi.NoteOnEvent(tick=120, channel=0, data=[53, 0]),
   midi.NoteOnEvent(tick=0, channel=0, data=[55, 54]),
   midi.NoteOnEvent(tick=120, channel=0, data=[55, 0]),
   midi.NoteOnEvent(tick=0, channel=0, data=[51, 56]),
   midi.NoteOnEvent(tick=120, channel=0, data=[51, 0]),
   midi.NoteOnEvent(tick=0, channel=0, data=[53, 54]),
   midi.NoteOnEvent(tick=120, channel=0, data=[53, 0]),
   midi.NoteOnEvent(tick=0, channel=0, data=[50, 61]),
   midi.NoteOnEvent(tick=120, channel=0, data=[50, 0]),
   midi.NoteOnEvent(tick=0, channel=0, data=[53, 46]),
   midi.NoteOnEvent(tick=120, channel=0, data=[53, 0]),
   midi.NoteOnEvent(tick=0, channel=0, data=[58, 51]),
   midi.NoteOnEvent(tick=120, channel=0, data=[58, 0]),
   midi.NoteOnEvent(tick=0, channel=0, data=[53, 45]),
   midi.NoteOnEvent(tick=120, channel=0, data=[53, 0]),
   midi.NoteOnEvent(tick=0, channel=0, data=[62, 50]),
   midi.NoteOnEvent(tick=120, channel=0, data=[62, 0]),
   midi.NoteOnEvent(tick=120, channel=0, data=[58, 41]),
   midi.NoteOnEvent(tick=0, channel=0, data=[62, 41]),
   midi.NoteOnEvent(tick=240, channel=0, data=[62, 0]),
   midi.NoteOnEvent(tick=0, channel=0, data=[58, 0]),
   midi.NoteOnEvent(tick=0, channel=0, data=[60, 43]),
   midi.NoteOnEvent(tick=0, channel=0, data=[63, 43]),
   midi.NoteOnEvent(tick=240, channel=0, data=[63, 0]),
   midi.NoteOnEvent(tick=0, channel=0, data=[60, 0]),
   midi.NoteOnEvent(tick=0, channel=0, data=[65, 42]),
   midi.NoteOnEvent(tick=0, channel=0, data=[62, 42]),
   midi.NoteOnEvent(tick=240, channel=0, data=[62, 0]),
   midi.NoteOnEvent(tick=0, channel=0, data=[65, 0]),
   midi.NoteOnEvent(tick=0, channel=0, data=[63, 43]),
   midi.NoteOnEvent(tick=0, channel=0, data=[67, 43]),
   midi.NoteOnEvent(tick=480, channel=0, data=[67, 0]),
   midi.NoteOnEvent(tick=0, channel=0, data=[63, 0]),
   midi.NoteOnEvent(tick=480, channel=0, data=[57, 43]),
   midi.NoteOnEvent(tick=0, channel=0, data=[63, 43]),
   midi.NoteOnEvent(tick=0, channel=0, data=[53, 43]),
   midi.NoteOnEvent(tick=240, channel=0, data=[57, 0]),
   midi.NoteOnEvent(tick=0, channel=0, data=[60, 43]),
   midi.NoteOnEvent(tick=240, channel=0, data=[60, 0]),
   midi.NoteOnEvent(tick=0, channel=0, data=[53, 0]),
   midi.NoteOnEvent(tick=0, channel=0, data=[63, 0]),
   midi.NoteOnEvent(tick=0, channel=0, data=[58, 43]),
   midi.NoteOnEvent(tick=120, channel=0, data=[58, 0]),
   midi.NoteOnEvent(tick=0, channel=0, data=[62, 39]),
   midi.NoteOnEvent(tick=120, channel=0, data=[62, 0]),
   midi.NoteOnEvent(tick=0, channel=0, data=[65, 40]),
   midi.NoteOnEvent(tick=120, channel=0, data=[65, 0]),
   midi.NoteOnEvent(tick=0, channel=0, data=[62, 42]),
   midi.NoteOnEvent(tick=120, channel=0, data=[62, 0]),
   midi.NoteOnEvent(tick=0, channel=0, data=[58, 46]),
   midi.NoteOnEvent(tick=120, channel=0, data=[58, 0]),
   midi.NoteOnEvent(tick=0, channel=0, data=[62, 44]),
   midi.NoteOnEvent(tick=120, channel=0, data=[62, 0]),
   midi.NoteOnEvent(tick=0, channel=0, data=[65, 45]),
   midi.NoteOnEvent(tick=120, channel=0, data=[65, 0]),
   midi.NoteOnEvent(tick=0, channel=0, data=[62, 46]),
   midi.NoteOnEvent(tick=120, channel=0, data=[62, 0]),
   midi.NoteOnEvent(tick=0, channel=0, data=[63, 53]),
   midi.NoteOnEvent(tick=120, channel=0, data=[63, 0]),
   midi.NoteOnEvent(tick=0, channel=0, data=[60, 50]),
   midi.NoteOnEvent(tick=120, channel=0, data=[60, 0]),
   midi.NoteOnEvent(tick=0, channel=0, data=[65, 51]),
   midi.NoteOnEvent(tick=120, channel=0, data=[65, 0]),
   midi.NoteOnEvent(tick=0, channel=0, data=[63, 53]),
   midi.NoteOnEvent(tick=120, channel=0, data=[63, 0]),
   midi.NoteOnEvent(tick=0, channel=0, data=[62, 56]),
   midi.NoteOnEvent(tick=120, channel=0, data=[62, 0]),
   midi.NoteOnEvent(tick=0, channel=0, data=[65, 51]),
   midi.NoteOnEvent(tick=120, channel=0, data=[65, 0]),
   midi.NoteOnEvent(tick=0, channel=0, data=[62, 53]),
   midi.NoteOnEvent(tick=120, channel=0, data=[62, 0]),
   midi.NoteOnEvent(tick=0, channel=0, data=[60, 50]),
   midi.NoteOnEvent(tick=120, channel=0, data=[60, 0]),
   midi.NoteOnEvent(tick=0, channel=0, data=[58, 64]),
   midi.NoteOnEvent(tick=120, channel=0, data=[58, 0]),
   midi.NoteOnEvent(tick=0, channel=0, data=[56, 56]),
   midi.NoteOnEvent(tick=120, channel=0, data=[56, 0]),
   midi.NoteOnEvent(tick=0, channel=0, data=[53, 59]),
   midi.NoteOnEvent(tick=120, channel=0, data=[53, 0]),
   midi.NoteOnEvent(tick=0, channel=0, data=[50, 56]),
   midi.NoteOnEvent(tick=120, channel=0, data=[50, 0]),
   midi.NoteOnEvent(tick=0, channel=0, data=[51, 64]),
   midi.NoteOnEvent(tick=120, channel=0, data=[51, 0]),
   midi.NoteOnEvent(tick=0, channel=0, data=[48, 59]),
   midi.NoteOnEvent(tick=120, channel=0, data=[48, 0]),
   midi.NoteOnEvent(tick=0, channel=0, data=[53, 64]),
   midi.NoteOnEvent(tick=120, channel=0, data=[53, 0]),
   midi.NoteOnEvent(tick=0, channel=0, data=[41, 54]),
   midi.NoteOnEvent(tick=120, channel=0, data=[41, 0]),
   midi.NoteOnEvent(tick=0, channel=0, data=[46, 46]),
   midi.NoteOnEvent(tick=720, channel=0, data=[46, 0]),
   midi.NoteOnEvent(tick=0, channel=0, data=[56, 42]),
   midi.NoteOnEvent(tick=240, channel=0, data=[56, 0]),
   midi.NoteOnEvent(tick=0, channel=0, data=[55, 45]),
   midi.NoteOnEvent(tick=240, channel=0, data=[55, 0]),
   midi.NoteOnEvent(tick=0, channel=0, data=[53, 49]),
   midi.NoteOnEvent(tick=240, channel=0, data=[53, 0]),
   midi.NoteOnEvent(tick=0, channel=0, data=[52, 56]),
   midi.ControlChangeEvent(tick=0, channel=0, data=[91, 127]),
   midi.NoteOnEvent(tick=960, channel=0, data=[52, 0]),
   midi.NoteOnEvent(tick=0, channel=0, data=[48, 46]),
   midi.NoteOnEvent(tick=480, channel=0, data=[48, 0]),
   midi.NoteOnEvent(tick=0, channel=0, data=[49, 53]),
   midi.NoteOnEvent(tick=960, channel=0, data=[49, 0]),
   midi.NoteOnEvent(tick=0, channel=0, data=[60, 43]),
   midi.NoteOnEvent(tick=0, channel=0, data=[56, 43]),
   midi.NoteOnEvent(tick=480, channel=0, data=[56, 0]),
   midi.NoteOnEvent(tick=0, channel=0, data=[60, 0]),
   midi.NoteOnEvent(tick=0, channel=0, data=[58, 43]),
   midi.NoteOnEvent(tick=0, channel=0, data=[61, 43]),
   midi.NoteOnEvent(tick=480, channel=0, data=[61, 0]),
   midi.NoteOnEvent(tick=0, channel=0, data=[58, 0]),
   midi.NoteOnEvent(tick=480, channel=0, data=[60, 43]),
   midi.NoteOnEvent(tick=0, channel=0, data=[70, 43]),
   midi.NoteOnEvent(tick=480, channel=0, data=[70, 0]),
   midi.NoteOnEvent(tick=0, channel=0, data=[60, 0]),
   midi.NoteOnEvent(tick=0, channel=0, data=[65, 43]),
   midi.NoteOnEvent(tick=0, channel=0, data=[70, 43]),
   midi.NoteOnEvent(tick=480, channel=0, data=[70, 0]),
   midi.NoteOnEvent(tick=0, channel=0, data=[68, 36]),
   midi.NoteOnEvent(tick=240, channel=0, data=[68, 0]),
   midi.NoteOnEvent(tick=0, channel=0, data=[65, 0]),
   midi.NoteOnEvent(tick=0, channel=0, data=[41, 45]),
   midi.NoteOnEvent(tick=216, channel=0, data=[41, 0]),
   midi.NoteOnEvent(tick=24, channel=0, data=[41, 46]),
   midi.NoteOnEvent(tick=216, channel=0, data=[41, 0]),
   midi.NoteOnEvent(tick=24, channel=0, data=[41, 44]),
   midi.NoteOnEvent(tick=216, channel=0, data=[41, 0]),
   midi.NoteOnEvent(tick=24, channel=0, data=[41, 52]),
   midi.NoteOnEvent(tick=1440, channel=0, data=[41, 0]),
   midi.NoteOnEvent(tick=0, channel=0, data=[41, 42]),
   midi.NoteOnEvent(tick=720, channel=0, data=[41, 0]),
   midi.NoteOnEvent(tick=0, channel=0, data=[41, 45]),
   midi.NoteOnEvent(tick=216, channel=0, data=[41, 0]),
   midi.NoteOnEvent(tick=24, channel=0, data=[41, 46]),
   midi.NoteOnEvent(tick=216, channel=0, data=[41, 0]),
   midi.NoteOnEvent(tick=24, channel=0, data=[41, 45]),
   midi.NoteOnEvent(tick=216, channel=0, data=[41, 0]),
   midi.NoteOnEvent(tick=24, channel=0, data=[42, 54]),
   midi.NoteOnEvent(tick=1440, channel=0, data=[42, 0]),
   midi.NoteOnEvent(tick=0, channel=0, data=[43, 49]),
   midi.NoteOnEvent(tick=720, channel=0, data=[43, 0]),
   midi.NoteOnEvent(tick=0, channel=0, data=[43, 48]),
   midi.NoteOnEvent(tick=216, channel=0, data=[43, 0]),
   midi.NoteOnEvent(tick=24, channel=0, data=[43, 50]),
   midi.NoteOnEvent(tick=216, channel=0, data=[43, 0]),
   midi.NoteOnEvent(tick=24, channel=0, data=[43, 47]),
   midi.NoteOnEvent(tick=216, channel=0, data=[43, 0]),
   midi.NoteOnEvent(tick=24, channel=0, data=[44, 55]),
   midi.NoteOnEvent(tick=960, channel=0, data=[44, 0]),
   midi.NoteOnEvent(tick=0, channel=0, data=[45, 62]),
   midi.NoteOnEvent(tick=480, channel=0, data=[45, 0]),
   midi.NoteOnEvent(tick=0, channel=0, data=[46, 62]),
   midi.NoteOnEvent(tick=480, channel=0, data=[46, 0]),
   midi.NoteOnEvent(tick=0, channel=0, data=[49, 48]),
   midi.NoteOnEvent(tick=480, channel=0, data=[49, 0]),
   midi.NoteOnEvent(tick=0, channel=0, data=[48, 54]),
   midi.NoteOnEvent(tick=480, channel=0, data=[48, 0]),
   midi.NoteOnEvent(tick=0, channel=0, data=[49, 44]),
   midi.NoteOnEvent(tick=480, channel=0, data=[49, 0]),
   midi.NoteOnEvent(tick=0, channel=0, data=[51, 43]),
   midi.NoteOnEvent(tick=0, channel=0, data=[60, 43]),
   midi.NoteOnEvent(tick=480, channel=0, data=[60, 0]),
   midi.NoteOnEvent(tick=0, channel=0, data=[51, 0]),
   midi.NoteOnEvent(tick=0, channel=0, data=[51, 36]),
   midi.NoteOnEvent(tick=0, channel=0, data=[61, 36]),
   midi.NoteOnEvent(tick=480, channel=0, data=[61, 0]),
   midi.NoteOnEvent(tick=0, channel=0, data=[51, 0]),
   midi.NoteOnEvent(tick=0, channel=0, data=[56, 33]),
   midi.NoteOnEvent(tick=120, channel=0, data=[56, 0]),
   midi.NoteOnEvent(tick=0, channel=0, data=[60, 26]),
   midi.NoteOnEvent(tick=120, channel=0, data=[60, 0]),
   midi.NoteOnEvent(tick=0, channel=0, data=[63, 27]),
   midi.NoteOnEvent(tick=120, channel=0, data=[63, 0]),
   midi.NoteOnEvent(tick=0, channel=0, data=[60, 25]),
   midi.NoteOnEvent(tick=120, channel=0, data=[60, 0]),
   midi.NoteOnEvent(tick=0, channel=0, data=[56, 30]),
   midi.NoteOnEvent(tick=120, channel=0, data=[56, 0]),
   midi.NoteOnEvent(tick=0, channel=0, data=[60, 26]),
   midi.NoteOnEvent(tick=120, channel=0, data=[60, 0]),
   midi.NoteOnEvent(tick=0, channel=0, data=[63, 29]),
   midi.NoteOnEvent(tick=120, channel=0, data=[63, 0]),
   midi.NoteOnEvent(tick=0, channel=0, data=[60, 26]),
   midi.NoteOnEvent(tick=120, channel=0, data=[60, 0]),
   midi.NoteOnEvent(tick=0, channel=0, data=[56, 33]),
   midi.NoteOnEvent(tick=120, channel=0, data=[56, 0]),
   midi.NoteOnEvent(tick=0, channel=0, data=[60, 27]),
   midi.NoteOnEvent(tick=120, channel=0, data=[60, 0]),
   midi.NoteOnEvent(tick=0, channel=0, data=[63, 29]),
   midi.NoteOnEvent(tick=120, channel=0, data=[63, 0]),
   midi.NoteOnEvent(tick=0, channel=0, data=[60, 27]),
   midi.NoteOnEvent(tick=120, channel=0, data=[60, 0]),
   midi.NoteOnEvent(tick=0, channel=0, data=[55, 36]),
   midi.NoteOnEvent(tick=120, channel=0, data=[55, 0]),
   midi.NoteOnEvent(tick=0, channel=0, data=[58, 26]),
   midi.NoteOnEvent(tick=120, channel=0, data=[58, 0]),
   midi.NoteOnEvent(tick=0, channel=0, data=[60, 27]),
   midi.NoteOnEvent(tick=120, channel=0, data=[60, 0]),
   midi.NoteOnEvent(tick=0, channel=0, data=[58, 26]),
   midi.NoteOnEvent(tick=120, channel=0, data=[58, 0]),
   midi.NoteOnEvent(tick=0, channel=0, data=[55, 32]),
   midi.NoteOnEvent(tick=120, channel=0, data=[55, 0]),
   midi.NoteOnEvent(tick=0, channel=0, data=[58, 26]),
   midi.NoteOnEvent(tick=120, channel=0, data=[58, 0]),
   midi.NoteOnEvent(tick=0, channel=0, data=[60, 27]),
   midi.NoteOnEvent(tick=120, channel=0, data=[60, 0]),
   midi.NoteOnEvent(tick=0, channel=0, data=[58, 25]),
   midi.NoteOnEvent(tick=120, channel=0, data=[58, 0]),
   midi.NoteOnEvent(tick=0, channel=0, data=[55, 32]),
   midi.NoteOnEvent(tick=120, channel=0, data=[55, 0]),
   midi.NoteOnEvent(tick=0, channel=0, data=[58, 27]),
   midi.NoteOnEvent(tick=120, channel=0, data=[58, 0]),
   midi.NoteOnEvent(tick=0, channel=0, data=[60, 27]),
   midi.NoteOnEvent(tick=120, channel=0, data=[60, 0]),
   midi.NoteOnEvent(tick=0, channel=0, data=[58, 25]),
   midi.NoteOnEvent(tick=120, channel=0, data=[58, 0]),
   midi.NoteOnEvent(tick=0, channel=0, data=[53, 36]),
   midi.NoteOnEvent(tick=120, channel=0, data=[53, 0]),
   midi.NoteOnEvent(tick=0, channel=0, data=[56, 27]),
   midi.NoteOnEvent(tick=120, channel=0, data=[56, 0]),
   midi.NoteOnEvent(tick=0, channel=0, data=[60, 30]),
   midi.NoteOnEvent(tick=120, channel=0, data=[60, 0]),
   midi.NoteOnEvent(tick=0, channel=0, data=[56, 27]),
   midi.NoteOnEvent(tick=120, channel=0, data=[56, 0]),
   midi.NoteOnEvent(tick=0, channel=0, data=[53, 32]),
   midi.NoteOnEvent(tick=120, channel=0, data=[53, 0]),
   midi.NoteOnEvent(tick=0, channel=0, data=[56, 26]),
   midi.NoteOnEvent(tick=120, channel=0, data=[56, 0]),
   midi.NoteOnEvent(tick=0, channel=0, data=[60, 27]),
   midi.NoteOnEvent(tick=120, channel=0, data=[60, 0]),
   midi.NoteOnEvent(tick=0, channel=0, data=[56, 26]),
   midi.NoteOnEvent(tick=120, channel=0, data=[56, 0]),
   midi.NoteOnEvent(tick=0, channel=0, data=[53, 32]),
   midi.NoteOnEvent(tick=120, channel=0, data=[53, 0]),
   midi.NoteOnEvent(tick=0, channel=0, data=[56, 27]),
   midi.NoteOnEvent(tick=120, channel=0, data=[56, 0]),
   midi.NoteOnEvent(tick=0, channel=0, data=[60, 29]),
   midi.NoteOnEvent(tick=120, channel=0, data=[60, 0]),
   midi.NoteOnEvent(tick=0, channel=0, data=[56, 27]),
   midi.NoteOnEvent(tick=120, channel=0, data=[56, 0]),
   midi.NoteOnEvent(tick=0, channel=0, data=[51, 36]),
   midi.NoteOnEvent(tick=120, channel=0, data=[51, 0]),
   midi.NoteOnEvent(tick=0, channel=0, data=[54, 30]),
   midi.NoteOnEvent(tick=120, channel=0, data=[54, 0]),
   midi.NoteOnEvent(tick=0, channel=0, data=[56, 32]),
   midi.NoteOnEvent(tick=120, channel=0, data=[56, 0]),
   midi.NoteOnEvent(tick=0, channel=0, data=[54, 29]),
   midi.NoteOnEvent(tick=120, channel=0, data=[54, 0]),
   midi.NoteOnEvent(tick=0, channel=0, data=[51, 36]),
   midi.NoteOnEvent(tick=120, channel=0, data=[51, 0]),
   midi.NoteOnEvent(tick=0, channel=0, data=[54, 29]),
   midi.NoteOnEvent(tick=120, channel=0, data=[54, 0]),
   midi.NoteOnEvent(tick=0, channel=0, data=[56, 32]),
   midi.NoteOnEvent(tick=120, channel=0, data=[56, 0]),
   midi.NoteOnEvent(tick=0, channel=0, data=[54, 29]),
   midi.NoteOnEvent(tick=120, channel=0, data=[54, 0]),
   midi.NoteOnEvent(tick=0, channel=0, data=[51, 35]),
   midi.NoteOnEvent(tick=120, channel=0, data=[51, 0]),
   midi.NoteOnEvent(tick=0, channel=0, data=[54, 29]),
   midi.NoteOnEvent(tick=120, channel=0, data=[54, 0]),
   midi.NoteOnEvent(tick=0, channel=0, data=[56, 31]),
   midi.NoteOnEvent(tick=120, channel=0, data=[56, 0]),
   midi.NoteOnEvent(tick=0, channel=0, data=[54, 27]),
   midi.NoteOnEvent(tick=120, channel=0, data=[54, 0]),
   midi.NoteOnEvent(tick=0, channel=0, data=[49, 40]),
   midi.NoteOnEvent(tick=120, channel=0, data=[49, 0]),
   midi.NoteOnEvent(tick=0, channel=0, data=[52, 34]),
   midi.NoteOnEvent(tick=120, channel=0, data=[52, 0]),
   midi.NoteOnEvent(tick=0, channel=0, data=[56, 36]),
   midi.NoteOnEvent(tick=120, channel=0, data=[56, 0]),
   midi.NoteOnEvent(tick=0, channel=0, data=[52, 33]),
   midi.NoteOnEvent(tick=120, channel=0, data=[52, 0]),
   midi.NoteOnEvent(tick=0, channel=0, data=[49, 40]),
   midi.NoteOnEvent(tick=120, channel=0, data=[49, 0]),
   midi.NoteOnEvent(tick=0, channel=0, data=[52, 33]),
   midi.NoteOnEvent(tick=120, channel=0, data=[52, 0]),
   midi.NoteOnEvent(tick=0, channel=0, data=[56, 36]),
   midi.NoteOnEvent(tick=120, channel=0, data=[56, 0]),
   midi.NoteOnEvent(tick=0, channel=0, data=[52, 33]),
   midi.NoteOnEvent(tick=120, channel=0, data=[52, 0]),
   midi.NoteOnEvent(tick=0, channel=0, data=[47, 39]),
   midi.NoteOnEvent(tick=120, channel=0, data=[47, 0]),
   midi.NoteOnEvent(tick=0, channel=0, data=[51, 34]),
   midi.NoteOnEvent(tick=120, channel=0, data=[51, 0]),
   midi.NoteOnEvent(tick=0, channel=0, data=[56, 36]),
   midi.NoteOnEvent(tick=120, channel=0, data=[56, 0]),
   midi.NoteOnEvent(tick=0, channel=0, data=[51, 33]),
   midi.NoteOnEvent(tick=120, channel=0, data=[51, 0]),
   midi.NoteOnEvent(tick=0, channel=0, data=[46, 36]),
   midi.NoteOnEvent(tick=0, channel=0, data=[53, 36]),
   midi.NoteOnEvent(tick=720, channel=0, data=[53, 0]),
   midi.NoteOnEvent(tick=0, channel=0, data=[46, 0]),
   midi.NoteOnEvent(tick=0, channel=0, data=[46, 29]),
   midi.NoteOnEvent(tick=0, channel=0, data=[53, 29]),
   midi.NoteOnEvent(tick=240, channel=0, data=[53, 0]),
   midi.NoteOnEvent(tick=0, channel=0, data=[46, 0]),
   midi.NoteOnEvent(tick=0, channel=0, data=[46, 32]),
   midi.NoteOnEvent(tick=0, channel=0, data=[53, 32]),
   midi.NoteOnEvent(tick=240, channel=0, data=[53, 0]),
   midi.NoteOnEvent(tick=0, channel=0, data=[46, 0]),
   midi.NoteOnEvent(tick=0, channel=0, data=[46, 29]),
   midi.NoteOnEvent(tick=0, channel=0, data=[53, 29]),
   midi.NoteOnEvent(tick=240, channel=0, data=[53, 0]),
   midi.NoteOnEvent(tick=0, channel=0, data=[46, 0]),
   midi.NoteOnEvent(tick=0, channel=0, data=[46, 32]),
   midi.NoteOnEvent(tick=0, channel=0, data=[53, 32]),
   midi.NoteOnEvent(tick=480, channel=0, data=[53, 0]),
   midi.NoteOnEvent(tick=0, channel=0, data=[46, 0]),
   midi.NoteOnEvent(tick=240, channel=0, data=[65, 27]),
   midi.NoteOnEvent(tick=0, channel=0, data=[58, 27]),
   midi.NoteOnEvent(tick=216, channel=0, data=[58, 0]),
   midi.NoteOnEvent(tick=0, channel=0, data=[65, 0]),
   midi.NoteOnEvent(tick=24, channel=0, data=[65, 27]),
   midi.NoteOnEvent(tick=0, channel=0, data=[58, 27]),
   midi.NoteOnEvent(tick=216, channel=0, data=[58, 0]),
   midi.NoteOnEvent(tick=0, channel=0, data=[65, 0]),
   midi.NoteOnEvent(tick=24, channel=0, data=[65, 27]),
   midi.NoteOnEvent(tick=0, channel=0, data=[58, 27]),
   midi.NoteOnEvent(tick=216, channel=0, data=[58, 0]),
   midi.NoteOnEvent(tick=0, channel=0, data=[65, 0]),
   midi.NoteOnEvent(tick=24, channel=0, data=[58, 31]),
   midi.NoteOnEvent(tick=0, channel=0, data=[65, 31]),
   midi.NoteOnEvent(tick=480, channel=0, data=[65, 0]),
   midi.NoteOnEvent(tick=0, channel=0, data=[58, 0]),
   midi.ControlChangeEvent(tick=960, channel=0, data=[91, 127]),
   midi.NoteOnEvent(tick=1, channel=0, data=[51, 39]),
   midi.NoteOnEvent(tick=960, channel=0, data=[51, 0]),
   midi.NoteOnEvent(tick=479, channel=0, data=[51, 37]),
   midi.NoteOnEvent(tick=120, channel=0, data=[51, 0]),
   midi.NoteOnEvent(tick=0, channel=0, data=[55, 33]),
   midi.NoteOnEvent(tick=120, channel=0, data=[55, 0]),
   midi.NoteOnEvent(tick=0, channel=0, data=[58, 36]),
   midi.NoteOnEvent(tick=120, channel=0, data=[58, 0]),
   midi.NoteOnEvent(tick=0, channel=0, data=[51, 33]),
   midi.NoteOnEvent(tick=120, channel=0, data=[51, 0]),
   midi.NoteOnEvent(tick=0, channel=0, data=[53, 40]),
   midi.NoteOnEvent(tick=120, channel=0, data=[53, 0]),
   midi.NoteOnEvent(tick=0, channel=0, data=[56, 32]),
   midi.NoteOnEvent(tick=120, channel=0, data=[56, 0]),
   midi.NoteOnEvent(tick=0, channel=0, data=[62, 35]),
   midi.NoteOnEvent(tick=120, channel=0, data=[62, 0]),
   midi.NoteOnEvent(tick=0, channel=0, data=[53, 33]),
   midi.NoteOnEvent(tick=120, channel=0, data=[53, 0]),
   midi.NoteOnEvent(tick=0, channel=0, data=[55, 40]),
   midi.NoteOnEvent(tick=120, channel=0, data=[55, 0]),
   midi.NoteOnEvent(tick=0, channel=0, data=[58, 32]),
   midi.NoteOnEvent(tick=120, channel=0, data=[58, 0]),
   midi.NoteOnEvent(tick=0, channel=0, data=[63, 36]),
   midi.NoteOnEvent(tick=120, channel=0, data=[63, 0]),
   midi.NoteOnEvent(tick=0, channel=0, data=[55, 33]),
   midi.NoteOnEvent(tick=120, channel=0, data=[55, 0]),
   midi.NoteOnEvent(tick=0, channel=0, data=[56, 41]),
   midi.NoteOnEvent(tick=0, channel=0, data=[60, 41]),
   midi.NoteOnEvent(tick=1440, channel=0, data=[60, 0]),
   midi.NoteOnEvent(tick=0, channel=0, data=[56, 0]),
   midi.NoteOnEvent(tick=0, channel=0, data=[45, 44]),
   midi.NoteOnEvent(tick=120, channel=0, data=[45, 0]),
   midi.NoteOnEvent(tick=0, channel=0, data=[46, 46]),
   midi.NoteOnEvent(tick=120, channel=0, data=[46, 0]),
   midi.NoteOnEvent(tick=0, channel=0, data=[48, 49]),
   midi.NoteOnEvent(tick=120, channel=0, data=[48, 0]),
   midi.NoteOnEvent(tick=0, channel=0, data=[46, 45]),
   midi.NoteOnEvent(tick=110, channel=0, data=[46, 0]),
   midi.NoteOnEvent(tick=10, channel=0, data=[46, 45]),
   midi.NoteOnEvent(tick=480, channel=0, data=[46, 0]),
   midi.NoteOnEvent(tick=480, channel=0, data=[39, 45]),
   midi.NoteOnEvent(tick=0, channel=0, data=[51, 45]),
   midi.NoteOnEvent(tick=480, channel=0, data=[51, 0]),
   midi.NoteOnEvent(tick=0, channel=0, data=[39, 0]),
   midi.NoteOnEvent(tick=480, channel=0, data=[51, 53]),
   midi.NoteOnEvent(tick=0, channel=0, data=[60, 53]),
   midi.NoteOnEvent(tick=480, channel=0, data=[60, 0]),
   midi.NoteOnEvent(tick=0, channel=0, data=[51, 0]),
   midi.NoteOnEvent(tick=0, channel=0, data=[53, 51]),
   midi.NoteOnEvent(tick=0, channel=0, data=[60, 51]),
   midi.NoteOnEvent(tick=480, channel=0, data=[60, 0]),
   midi.NoteOnEvent(tick=0, channel=0, data=[53, 0]),
   midi.NoteOnEvent(tick=0, channel=0, data=[58, 46]),
   midi.NoteOnEvent(tick=0, channel=0, data=[62, 46]),
   midi.NoteOnEvent(tick=240, channel=0, data=[58, 0]),
   midi.NoteOnEvent(tick=0, channel=0, data=[59, 40]),
   midi.NoteOnEvent(tick=240, channel=0, data=[59, 0]),
   midi.NoteOnEvent(tick=0, channel=0, data=[62, 0]),
   midi.NoteOnEvent(tick=0, channel=0, data=[63, 47]),
   midi.NoteOnEvent(tick=0, channel=0, data=[60, 47]),
   midi.NoteOnEvent(tick=240, channel=0, data=[60, 0]),
   midi.NoteOnEvent(tick=0, channel=0, data=[55, 45]),
   midi.NoteOnEvent(tick=240, channel=0, data=[55, 0]),
   midi.NoteOnEvent(tick=0, channel=0, data=[56, 50]),
   midi.NoteOnEvent(tick=240, channel=0, data=[56, 0]),
   midi.NoteOnEvent(tick=0, channel=0, data=[63, 0]),
   midi.NoteOnEvent(tick=240, channel=0, data=[46, 51]),
   midi.NoteOnEvent(tick=0, channel=0, data=[55, 51]),
   midi.NoteOnEvent(tick=480, channel=0, data=[55, 0]),
   midi.NoteOnEvent(tick=0, channel=0, data=[56, 37]),
   midi.NoteOnEvent(tick=480, channel=0, data=[56, 0]),
   midi.NoteOnEvent(tick=0, channel=0, data=[46, 0]),
   midi.NoteOnEvent(tick=0, channel=0, data=[51, 30]),
   midi.NoteOnEvent(tick=120, channel=0, data=[51, 0]),
   midi.NoteOnEvent(tick=0, channel=0, data=[55, 26]),
   midi.NoteOnEvent(tick=120, channel=0, data=[55, 0]),
   midi.NoteOnEvent(tick=0, channel=0, data=[58, 27]),
   midi.NoteOnEvent(tick=120, channel=0, data=[58, 0]),
   midi.NoteOnEvent(tick=0, channel=0, data=[55, 27]),
   midi.NoteOnEvent(tick=120, channel=0, data=[55, 0]),
   midi.NoteOnEvent(tick=0, channel=0, data=[51, 30]),
   midi.NoteOnEvent(tick=120, channel=0, data=[51, 0]),
   midi.NoteOnEvent(tick=0, channel=0, data=[55, 27]),
   midi.NoteOnEvent(tick=120, channel=0, data=[55, 0]),
   midi.NoteOnEvent(tick=0, channel=0, data=[58, 29]),
   midi.NoteOnEvent(tick=120, channel=0, data=[58, 0]),
   midi.NoteOnEvent(tick=0, channel=0, data=[55, 27]),
   midi.NoteOnEvent(tick=120, channel=0, data=[55, 0]),
   midi.NoteOnEvent(tick=0, channel=0, data=[51, 33]),
   midi.NoteOnEvent(tick=120, channel=0, data=[51, 0]),
   midi.NoteOnEvent(tick=0, channel=0, data=[55, 27]),
   midi.NoteOnEvent(tick=120, channel=0, data=[55, 0]),
   midi.NoteOnEvent(tick=0, channel=0, data=[58, 29]),
   midi.NoteOnEvent(tick=120, channel=0, data=[58, 0]),
   midi.NoteOnEvent(tick=0, channel=0, data=[55, 27]),
   midi.NoteOnEvent(tick=120, channel=0, data=[55, 0]),
   midi.NoteOnEvent(tick=0, channel=0, data=[51, 36]),
   midi.NoteOnEvent(tick=120, channel=0, data=[51, 0]),
   midi.NoteOnEvent(tick=0, channel=0, data=[53, 27]),
   midi.NoteOnEvent(tick=120, channel=0, data=[53, 0]),
   midi.NoteOnEvent(tick=0, channel=0, data=[56, 30]),
   midi.NoteOnEvent(tick=120, channel=0, data=[56, 0]),
   midi.NoteOnEvent(tick=0, channel=0, data=[53, 27]),
   midi.NoteOnEvent(tick=120, channel=0, data=[53, 0]),
   midi.NoteOnEvent(tick=0, channel=0, data=[51, 32]),
   midi.NoteOnEvent(tick=120, channel=0, data=[51, 0]),
   midi.NoteOnEvent(tick=0, channel=0, data=[53, 27]),
   midi.NoteOnEvent(tick=120, channel=0, data=[53, 0]),
   midi.NoteOnEvent(tick=0, channel=0, data=[56, 27]),
   midi.NoteOnEvent(tick=120, channel=0, data=[56, 0]),
   midi.NoteOnEvent(tick=0, channel=0, data=[53, 26]),
   midi.NoteOnEvent(tick=120, channel=0, data=[53, 0]),
   midi.NoteOnEvent(tick=0, channel=0, data=[51, 32]),
   midi.NoteOnEvent(tick=120, channel=0, data=[51, 0]),
   midi.NoteOnEvent(tick=0, channel=0, data=[53, 27]),
   midi.NoteOnEvent(tick=120, channel=0, data=[53, 0]),
   midi.NoteOnEvent(tick=0, channel=0, data=[56, 27]),
   midi.NoteOnEvent(tick=120, channel=0, data=[56, 0]),
   midi.NoteOnEvent(tick=0, channel=0, data=[53, 27]),
   midi.NoteOnEvent(tick=120, channel=0, data=[53, 0]),
   midi.NoteOnEvent(tick=0, channel=0, data=[51, 33]),
   midi.NoteOnEvent(tick=120, channel=0, data=[51, 0]),
   midi.NoteOnEvent(tick=0, channel=0, data=[55, 26]),
   midi.NoteOnEvent(tick=120, channel=0, data=[55, 0]),
   midi.NoteOnEvent(tick=0, channel=0, data=[58, 27]),
   midi.NoteOnEvent(tick=120, channel=0, data=[58, 0]),
   midi.NoteOnEvent(tick=0, channel=0, data=[55, 26]),
   midi.NoteOnEvent(tick=120, channel=0, data=[55, 0]),
   midi.NoteOnEvent(tick=0, channel=0, data=[51, 31]),
   midi.NoteOnEvent(tick=120, channel=0, data=[51, 0]),
   midi.NoteOnEvent(tick=0, channel=0, data=[55, 26]),
   midi.NoteOnEvent(tick=120, channel=0, data=[55, 0]),
   midi.NoteOnEvent(tick=0, channel=0, data=[58, 27]),
   midi.NoteOnEvent(tick=120, channel=0, data=[58, 0]),
   midi.NoteOnEvent(tick=0, channel=0, data=[55, 26]),
   midi.NoteOnEvent(tick=120, channel=0, data=[55, 0]),
   midi.NoteOnEvent(tick=0, channel=0, data=[51, 33]),
   midi.NoteOnEvent(tick=120, channel=0, data=[51, 0]),
   midi.NoteOnEvent(tick=0, channel=0, data=[55, 27]),
   midi.NoteOnEvent(tick=120, channel=0, data=[55, 0]),
   midi.NoteOnEvent(tick=0, channel=0, data=[58, 30]),
   midi.NoteOnEvent(tick=120, channel=0, data=[58, 0]),
   midi.NoteOnEvent(tick=0, channel=0, data=[55, 27]),
   midi.NoteOnEvent(tick=120, channel=0, data=[55, 0]),
   midi.NoteOnEvent(tick=0, channel=0, data=[51, 36]),
   midi.NoteOnEvent(tick=120, channel=0, data=[51, 0]),
   midi.NoteOnEvent(tick=0, channel=0, data=[53, 25]),
   midi.NoteOnEvent(tick=120, channel=0, data=[53, 0]),
   midi.NoteOnEvent(tick=0, channel=0, data=[56, 27]),
   midi.NoteOnEvent(tick=120, channel=0, data=[56, 0]),
   midi.NoteOnEvent(tick=0, channel=0, data=[53, 24]),
   midi.NoteOnEvent(tick=120, channel=0, data=[53, 0]),
   midi.NoteOnEvent(tick=0, channel=0, data=[51, 29]),
   midi.NoteOnEvent(tick=120, channel=0, data=[51, 0]),
   midi.NoteOnEvent(tick=0, channel=0, data=[53, 23]),
   midi.NoteOnEvent(tick=120, channel=0, data=[53, 0]),
   midi.NoteOnEvent(tick=0, channel=0, data=[56, 27]),
   midi.NoteOnEvent(tick=120, channel=0, data=[56, 0]),
   midi.NoteOnEvent(tick=0, channel=0, data=[53, 23]),
   midi.NoteOnEvent(tick=120, channel=0, data=[53, 0]),
   midi.NoteOnEvent(tick=0, channel=0, data=[51, 30]),
   midi.NoteOnEvent(tick=120, channel=0, data=[51, 0]),
   midi.NoteOnEvent(tick=0, channel=0, data=[53, 26]),
   midi.NoteOnEvent(tick=120, channel=0, data=[53, 0]),
   midi.NoteOnEvent(tick=0, channel=0, data=[56, 26]),
   midi.NoteOnEvent(tick=120, channel=0, data=[56, 0]),
   midi.NoteOnEvent(tick=0, channel=0, data=[53, 25]),
   midi.NoteOnEvent(tick=120, channel=0, data=[53, 0]),
   midi.NoteOnEvent(tick=0, channel=0, data=[51, 27]),
   midi.NoteOnEvent(tick=0, channel=0, data=[55, 27]),
   midi.NoteOnEvent(tick=480, channel=0, data=[55, 0]),
   midi.NoteOnEvent(tick=0, channel=0, data=[51, 0]),
   midi.NoteOnEvent(tick=240, channel=0, data=[55, 32]),
   midi.NoteOnEvent(tick=240, channel=0, data=[55, 0]),
   midi.NoteOnEvent(tick=0, channel=0, data=[56, 34]),
   midi.NoteOnEvent(tick=240, channel=0, data=[56, 0]),
   midi.NoteOnEvent(tick=0, channel=0, data=[57, 35]),
   midi.NoteOnEvent(tick=240, channel=0, data=[57, 0]),
   midi.NoteOnEvent(tick=0, channel=0, data=[58, 37]),
   midi.NoteOnEvent(tick=600, channel=0, data=[58, 0]),
   midi.NoteOnEvent(tick=0, channel=0, data=[59, 41]),
   midi.NoteOnEvent(tick=120, channel=0, data=[59, 0]),
   midi.NoteOnEvent(tick=0, channel=0, data=[60, 45]),
   midi.NoteOnEvent(tick=120, channel=0, data=[60, 0]),
   midi.NoteOnEvent(tick=0, channel=0, data=[58, 43]),
   midi.NoteOnEvent(tick=110, channel=0, data=[58, 0]),
   midi.NoteOnEvent(tick=10, channel=0, data=[58, 45]),
   midi.NoteOnEvent(tick=120, channel=0, data=[58, 0]),
   midi.NoteOnEvent(tick=0, channel=0, data=[56, 44]),
   midi.NoteOnEvent(tick=120, channel=0, data=[56, 0]),
   midi.NoteOnEvent(tick=0, channel=0, data=[55, 45]),
   midi.NoteOnEvent(tick=120, channel=0, data=[55, 0]),
   midi.NoteOnEvent(tick=0, channel=0, data=[53, 45]),
   midi.NoteOnEvent(tick=120, channel=0, data=[53, 0]),
   midi.NoteOnEvent(tick=0, channel=0, data=[51, 53]),
   midi.NoteOnEvent(tick=240, channel=0, data=[51, 0]),
   midi.NoteOnEvent(tick=0, channel=0, data=[55, 45]),
   midi.NoteOnEvent(tick=240, channel=0, data=[55, 0]),
   midi.NoteOnEvent(tick=0, channel=0, data=[58, 47]),
   midi.NoteOnEvent(tick=240, channel=0, data=[58, 0]),
   midi.NoteOnEvent(tick=0, channel=0, data=[63, 45]),
   midi.NoteOnEvent(tick=240, channel=0, data=[63, 0]),
   midi.NoteOnEvent(tick=0, channel=0, data=[68, 51]),
   midi.NoteOnEvent(tick=240, channel=0, data=[68, 0]),
   midi.NoteOnEvent(tick=0, channel=0, data=[67, 47]),
   midi.NoteOnEvent(tick=240, channel=0, data=[67, 0]),
   midi.NoteOnEvent(tick=0, channel=0, data=[68, 51]),
   midi.NoteOnEvent(tick=0, channel=0, data=[65, 51]),
   midi.NoteOnEvent(tick=240, channel=0, data=[65, 0]),
   midi.NoteOnEvent(tick=0, channel=0, data=[68, 0]),
   midi.NoteOnEvent(tick=0, channel=0, data=[67, 47]),
   midi.NoteOnEvent(tick=0, channel=0, data=[63, 47]),
   midi.NoteOnEvent(tick=240, channel=0, data=[63, 0]),
   midi.NoteOnEvent(tick=0, channel=0, data=[67, 0]),
   midi.NoteOnEvent(tick=0, channel=0, data=[62, 47]),
   midi.NoteOnEvent(tick=0, channel=0, data=[65, 47]),
   midi.NoteOnEvent(tick=240, channel=0, data=[65, 0]),
   midi.NoteOnEvent(tick=0, channel=0, data=[62, 0]),
   midi.NoteOnEvent(tick=960, channel=0, data=[58, 45]),
   midi.NoteOnEvent(tick=240, channel=0, data=[58, 0]),
   midi.NoteOnEvent(tick=0, channel=0, data=[62, 45]),
   midi.NoteOnEvent(tick=240, channel=0, data=[62, 0]),
   midi.NoteOnEvent(tick=0, channel=0, data=[65, 45]),
   midi.NoteOnEvent(tick=240, channel=0, data=[65, 0]),
   midi.NoteOnEvent(tick=0, channel=0, data=[67, 50]),
   midi.NoteOnEvent(tick=240, channel=0, data=[67, 0]),
   midi.NoteOnEvent(tick=0, channel=0, data=[70, 45]),
   midi.NoteOnEvent(tick=0, channel=0, data=[68, 45]),
   midi.NoteOnEvent(tick=240, channel=0, data=[68, 0]),
   midi.NoteOnEvent(tick=0, channel=0, data=[67, 51]),
   midi.NoteOnEvent(tick=240, channel=0, data=[67, 0]),
   midi.NoteOnEvent(tick=0, channel=0, data=[70, 0]),
   midi.NoteOnEvent(tick=0, channel=0, data=[65, 45]),
   midi.NoteOnEvent(tick=0, channel=0, data=[68, 45]),
   midi.NoteOnEvent(tick=240, channel=0, data=[68, 0]),
   midi.NoteOnEvent(tick=0, channel=0, data=[65, 0]),
   midi.NoteOnEvent(tick=0, channel=0, data=[63, 50]),
   midi.NoteOnEvent(tick=0, channel=0, data=[67, 50]),
   midi.NoteOnEvent(tick=240, channel=0, data=[67, 0]),
   midi.NoteOnEvent(tick=0, channel=0, data=[63, 0]),
   midi.NoteOnEvent(tick=0, channel=0, data=[39, 54]),
   midi.NoteOnEvent(tick=0, channel=0, data=[51, 54]),
   midi.NoteOnEvent(tick=216, channel=0, data=[51, 0]),
   midi.NoteOnEvent(tick=0, channel=0, data=[39, 0]),
   midi.NoteOnEvent(tick=24, channel=0, data=[39, 56]),
   midi.NoteOnEvent(tick=0, channel=0, data=[51, 56]),
   midi.NoteOnEvent(tick=216, channel=0, data=[51, 0]),
   midi.NoteOnEvent(tick=0, channel=0, data=[39, 0]),
   midi.NoteOnEvent(tick=24, channel=0, data=[39, 54]),
   midi.NoteOnEvent(tick=0, channel=0, data=[51, 54]),
   midi.NoteOnEvent(tick=216, channel=0, data=[51, 0]),
   midi.NoteOnEvent(tick=0, channel=0, data=[39, 0]),
   midi.NoteOnEvent(tick=264, channel=0, data=[63, 47]),
   midi.NoteOnEvent(tick=0, channel=0, data=[55, 47]),
   midi.NoteOnEvent(tick=216, channel=0, data=[55, 0]),
   midi.NoteOnEvent(tick=0, channel=0, data=[63, 0]),
   midi.NoteOnEvent(tick=24, channel=0, data=[55, 49]),
   midi.NoteOnEvent(tick=0, channel=0, data=[63, 49]),
   midi.NoteOnEvent(tick=216, channel=0, data=[63, 0]),
   midi.NoteOnEvent(tick=0, channel=0, data=[55, 0]),
   midi.NoteOnEvent(tick=24, channel=0, data=[55, 48]),
   midi.NoteOnEvent(tick=0, channel=0, data=[63, 48]),
   midi.NoteOnEvent(tick=216, channel=0, data=[63, 0]),
   midi.NoteOnEvent(tick=0, channel=0, data=[55, 0]),
   midi.NoteOnEvent(tick=24, channel=0, data=[55, 51]),
   midi.NoteOnEvent(tick=0, channel=0, data=[63, 51]),
   midi.NoteOnEvent(tick=216, channel=0, data=[63, 0]),
   midi.NoteOnEvent(tick=0, channel=0, data=[55, 0]),
   midi.NoteOnEvent(tick=24, channel=0, data=[55, 45]),
   midi.NoteOnEvent(tick=0, channel=0, data=[63, 45]),
   midi.NoteOnEvent(tick=216, channel=0, data=[63, 0]),
   midi.NoteOnEvent(tick=0, channel=0, data=[55, 0]),
   midi.NoteOnEvent(tick=264, channel=0, data=[55, 47]),
   midi.NoteOnEvent(tick=0, channel=0, data=[63, 47]),
   midi.NoteOnEvent(tick=240, channel=0, data=[55, 0]),
   midi.NoteOnEvent(tick=0, channel=0, data=[56, 50]),
   midi.NoteOnEvent(tick=240, channel=0, data=[56, 0]),
   midi.NoteOnEvent(tick=0, channel=0, data=[63, 0]),
   midi.NoteOnEvent(tick=0, channel=0, data=[63, 55]),
   midi.NoteOnEvent(tick=0, channel=0, data=[56, 55]),
   midi.NoteOnEvent(tick=216, channel=0, data=[56, 0]),
   midi.NoteOnEvent(tick=0, channel=0, data=[63, 0]),
   midi.NoteOnEvent(tick=24, channel=0, data=[56, 55]),
   midi.NoteOnEvent(tick=0, channel=0, data=[63, 55]),
   midi.NoteOnEvent(tick=216, channel=0, data=[63, 0]),
   midi.NoteOnEvent(tick=0, channel=0, data=[56, 0]),
   midi.NoteOnEvent(tick=24, channel=0, data=[56, 50]),
   midi.NoteOnEvent(tick=0, channel=0, data=[63, 50]),
   midi.NoteOnEvent(tick=216, channel=0, data=[63, 0]),
   midi.NoteOnEvent(tick=0, channel=0, data=[56, 0]),
   midi.NoteOnEvent(tick=24, channel=0, data=[55, 53]),
   midi.NoteOnEvent(tick=0, channel=0, data=[63, 53]),
   midi.NoteOnEvent(tick=240, channel=0, data=[63, 0]),
   midi.NoteOnEvent(tick=0, channel=0, data=[55, 0]),
   midi.NoteOnEvent(tick=0, channel=0, data=[56, 48]),
   midi.NoteOnEvent(tick=0, channel=0, data=[63, 48]),
   midi.NoteOnEvent(tick=240, channel=0, data=[63, 0]),
   midi.NoteOnEvent(tick=0, channel=0, data=[56, 0]),
   midi.NoteOnEvent(tick=0, channel=0, data=[46, 50]),
   midi.NoteOnEvent(tick=0, channel=0, data=[55, 50]),
   midi.NoteOnEvent(tick=216, channel=0, data=[55, 0]),
   midi.NoteOnEvent(tick=0, channel=0, data=[46, 0]),
   midi.NoteOnEvent(tick=24, channel=0, data=[46, 46]),
   midi.NoteOnEvent(tick=0, channel=0, data=[55, 46]),
   midi.NoteOnEvent(tick=216, channel=0, data=[55, 0]),
   midi.NoteOnEvent(tick=0, channel=0, data=[46, 0]),
   midi.NoteOnEvent(tick=24, channel=0, data=[46, 39]),
   midi.NoteOnEvent(tick=0, channel=0, data=[56, 39]),
   midi.NoteOnEvent(tick=216, channel=0, data=[56, 0]),
   midi.NoteOnEvent(tick=0, channel=0, data=[46, 0]),
   midi.NoteOnEvent(tick=24, channel=0, data=[46, 39]),
   midi.NoteOnEvent(tick=0, channel=0, data=[56, 39]),
   midi.NoteOnEvent(tick=216, channel=0, data=[56, 0]),
   midi.NoteOnEvent(tick=0, channel=0, data=[46, 0]),
   midi.NoteOnEvent(tick=24, channel=0, data=[51, 45]),
   midi.NoteOnEvent(tick=0, channel=0, data=[55, 45]),
   midi.NoteOnEvent(tick=120, channel=0, data=[55, 0]),
   midi.NoteOnEvent(tick=0, channel=0, data=[51, 0]),
   midi.NoteOnEvent(tick=0, channel=0, data=[51, 50]),
   midi.NoteOnEvent(tick=120, channel=0, data=[51, 0]),
   midi.NoteOnEvent(tick=0, channel=0, data=[55, 54]),
   midi.NoteOnEvent(tick=120, channel=0, data=[55, 0]),
   midi.NoteOnEvent(tick=0, channel=0, data=[58, 57]),
   midi.NoteOnEvent(tick=120, channel=0, data=[58, 0]),
   midi.NoteOnEvent(tick=0, channel=0, data=[56, 63]),
   midi.NoteOnEvent(tick=120, channel=0, data=[56, 0]),
   midi.NoteOnEvent(tick=0, channel=0, data=[58, 56]),
   midi.NoteOnEvent(tick=120, channel=0, data=[58, 0]),
   midi.NoteOnEvent(tick=0, channel=0, data=[55, 63]),
   midi.NoteOnEvent(tick=120, channel=0, data=[55, 0]),
   midi.NoteOnEvent(tick=0, channel=0, data=[58, 56]),
   midi.NoteOnEvent(tick=120, channel=0, data=[58, 0]),
   midi.NoteOnEvent(tick=0, channel=0, data=[53, 63]),
   midi.NoteOnEvent(tick=120, channel=0, data=[53, 0]),
   midi.NoteOnEvent(tick=0, channel=0, data=[58, 56]),
   midi.NoteOnEvent(tick=120, channel=0, data=[58, 0]),
   midi.NoteOnEvent(tick=0, channel=0, data=[51, 63]),
   midi.NoteOnEvent(tick=120, channel=0, data=[51, 0]),
   midi.NoteOnEvent(tick=0, channel=0, data=[58, 56]),
   midi.NoteOnEvent(tick=120, channel=0, data=[58, 0]),
   midi.NoteOnEvent(tick=0, channel=0, data=[50, 63]),
   midi.NoteOnEvent(tick=120, channel=0, data=[50, 0]),
   midi.NoteOnEvent(tick=0, channel=0, data=[53, 54]),
   midi.NoteOnEvent(tick=120, channel=0, data=[53, 0]),
   midi.NoteOnEvent(tick=0, channel=0, data=[56, 56]),
   midi.NoteOnEvent(tick=120, channel=0, data=[56, 0]),
   midi.NoteOnEvent(tick=0, channel=0, data=[55, 53]),
   midi.NoteOnEvent(tick=120, channel=0, data=[55, 0]),
   midi.NoteOnEvent(tick=0, channel=0, data=[53, 61]),
   midi.NoteOnEvent(tick=120, channel=0, data=[53, 0]),
   midi.NoteOnEvent(tick=0, channel=0, data=[51, 54]),
   midi.NoteOnEvent(tick=120, channel=0, data=[51, 0]),
   midi.NoteOnEvent(tick=0, channel=0, data=[50, 56]),
   midi.NoteOnEvent(tick=120, channel=0, data=[50, 0]),
   midi.NoteOnEvent(tick=0, channel=0, data=[48, 54]),
   midi.NoteOnEvent(tick=120, channel=0, data=[48, 0]),
   midi.NoteOnEvent(tick=0, channel=0, data=[46, 56]),
   midi.NoteOnEvent(tick=120, channel=0, data=[46, 0]),
   midi.NoteOnEvent(tick=0, channel=0, data=[48, 54]),
   midi.NoteOnEvent(tick=120, channel=0, data=[48, 0]),
   midi.NoteOnEvent(tick=0, channel=0, data=[44, 56]),
   midi.NoteOnEvent(tick=120, channel=0, data=[44, 0]),
   midi.NoteOnEvent(tick=0, channel=0, data=[46, 52]),
   midi.NoteOnEvent(tick=120, channel=0, data=[46, 0]),
   midi.NoteOnEvent(tick=0, channel=0, data=[43, 61]),
   midi.NoteOnEvent(tick=120, channel=0, data=[43, 0]),
   midi.NoteOnEvent(tick=0, channel=0, data=[46, 47]),
   midi.NoteOnEvent(tick=120, channel=0, data=[46, 0]),
   midi.NoteOnEvent(tick=0, channel=0, data=[51, 52]),
   midi.NoteOnEvent(tick=120, channel=0, data=[51, 0]),
   midi.NoteOnEvent(tick=0, channel=0, data=[46, 47]),
   midi.NoteOnEvent(tick=120, channel=0, data=[46, 0]),
   midi.NoteOnEvent(tick=0, channel=0, data=[55, 52]),
   midi.NoteOnEvent(tick=120, channel=0, data=[55, 0]),
   midi.NoteOnEvent(tick=120, channel=0, data=[51, 43]),
   midi.NoteOnEvent(tick=0, channel=0, data=[55, 43]),
   midi.NoteOnEvent(tick=240, channel=0, data=[55, 0]),
   midi.NoteOnEvent(tick=0, channel=0, data=[51, 0]),
   midi.NoteOnEvent(tick=0, channel=0, data=[53, 43]),
   midi.NoteOnEvent(tick=0, channel=0, data=[56, 43]),
   midi.NoteOnEvent(tick=240, channel=0, data=[56, 0]),
   midi.NoteOnEvent(tick=0, channel=0, data=[53, 0]),
   midi.NoteOnEvent(tick=0, channel=0, data=[55, 43]),
   midi.NoteOnEvent(tick=0, channel=0, data=[58, 43]),
   midi.NoteOnEvent(tick=240, channel=0, data=[58, 0]),
   midi.NoteOnEvent(tick=0, channel=0, data=[55, 0]),
   midi.NoteOnEvent(tick=0, channel=0, data=[56, 46]),
   midi.NoteOnEvent(tick=0, channel=0, data=[60, 46]),
   midi.NoteOnEvent(tick=480, channel=0, data=[60, 0]),
   midi.NoteOnEvent(tick=0, channel=0, data=[56, 0]),
   midi.NoteOnEvent(tick=240, channel=0, data=[44, 36]),
   midi.NoteOnEvent(tick=0, channel=0, data=[53, 36]),
   midi.NoteOnEvent(tick=240, channel=0, data=[53, 0]),
   midi.NoteOnEvent(tick=0, channel=0, data=[44, 0]),
   midi.NoteOnEvent(tick=0, channel=0, data=[46, 43]),
   midi.NoteOnEvent(tick=0, channel=0, data=[55, 43]),
   midi.NoteOnEvent(tick=240, channel=0, data=[55, 0]),
   midi.NoteOnEvent(tick=0, channel=0, data=[56, 36]),
   midi.NoteOnEvent(tick=230, channel=0, data=[56, 0]),
   midi.NoteOnEvent(tick=10, channel=0, data=[46, 0]),
   midi.NoteOnEvent(tick=0, channel=0, data=[51, 45]),
   midi.NoteOnEvent(tick=0, channel=0, data=[56, 45]),
   midi.NoteOnEvent(tick=480, channel=0, data=[56, 0]),
   midi.NoteOnEvent(tick=0, channel=0, data=[55, 35]),
   midi.NoteOnEvent(tick=120, channel=0, data=[55, 0]),
   midi.NoteOnEvent(tick=0, channel=0, data=[51, 0]),
   midi.NoteOnEvent(tick=0, channel=0, data=[63, 52]),
   midi.NoteOnEvent(tick=120, channel=0, data=[63, 0]),
   midi.NoteOnEvent(tick=0, channel=0, data=[67, 54]),
   midi.NoteOnEvent(tick=120, channel=0, data=[67, 0]),
   midi.NoteOnEvent(tick=0, channel=0, data=[70, 51]),
   midi.NoteOnEvent(tick=120, channel=0, data=[70, 0]),
   midi.NoteOnEvent(tick=0, channel=0, data=[68, 57]),
   midi.NoteOnEvent(tick=120, channel=0, data=[68, 0]),
   midi.NoteOnEvent(tick=0, channel=0, data=[67, 52]),
   midi.NoteOnEvent(tick=120, channel=0, data=[67, 0]),
   midi.NoteOnEvent(tick=0, channel=0, data=[65, 54]),
   midi.NoteOnEvent(tick=120, channel=0, data=[65, 0]),
   midi.NoteOnEvent(tick=0, channel=0, data=[63, 53]),
   midi.NoteOnEvent(tick=120, channel=0, data=[63, 0]),
   midi.NoteOnEvent(tick=0, channel=0, data=[62, 63]),
   midi.NoteOnEvent(tick=120, channel=0, data=[62, 0]),
   midi.NoteOnEvent(tick=0, channel=0, data=[65, 54]),
   midi.NoteOnEvent(tick=120, channel=0, data=[65, 0]),
   midi.NoteOnEvent(tick=0, channel=0, data=[68, 56]),
   midi.NoteOnEvent(tick=120, channel=0, data=[68, 0]),
   midi.NoteOnEvent(tick=0, channel=0, data=[67, 54]),
   midi.NoteOnEvent(tick=120, channel=0, data=[67, 0]),
   midi.NoteOnEvent(tick=0, channel=0, data=[65, 61]),
   midi.NoteOnEvent(tick=120, channel=0, data=[65, 0]),
   midi.NoteOnEvent(tick=0, channel=0, data=[63, 54]),
   midi.NoteOnEvent(tick=120, channel=0, data=[63, 0]),
   midi.NoteOnEvent(tick=0, channel=0, data=[62, 56]),
   midi.NoteOnEvent(tick=120, channel=0, data=[62, 0]),
   midi.NoteOnEvent(tick=0, channel=0, data=[60, 54]),
   midi.NoteOnEvent(tick=120, channel=0, data=[60, 0]),
   midi.NoteOnEvent(tick=0, channel=0, data=[58, 56]),
   midi.NoteOnEvent(tick=120, channel=0, data=[58, 0]),
   midi.NoteOnEvent(tick=0, channel=0, data=[60, 54]),
   midi.NoteOnEvent(tick=120, channel=0, data=[60, 0]),
   midi.NoteOnEvent(tick=0, channel=0, data=[56, 56]),
   midi.NoteOnEvent(tick=120, channel=0, data=[56, 0]),
   midi.NoteOnEvent(tick=0, channel=0, data=[58, 53]),
   midi.NoteOnEvent(tick=120, channel=0, data=[58, 0]),
   midi.NoteOnEvent(tick=0, channel=0, data=[55, 61]),
   midi.NoteOnEvent(tick=120, channel=0, data=[55, 0]),
   midi.NoteOnEvent(tick=0, channel=0, data=[58, 45]),
   midi.NoteOnEvent(tick=120, channel=0, data=[58, 0]),
   midi.NoteOnEvent(tick=0, channel=0, data=[60, 49]),
   midi.NoteOnEvent(tick=120, channel=0, data=[60, 0]),
   midi.NoteOnEvent(tick=0, channel=0, data=[62, 45]),
   midi.NoteOnEvent(tick=120, channel=0, data=[62, 0]),
   midi.NoteOnEvent(tick=0, channel=0, data=[63, 46]),
   midi.NoteOnEvent(tick=120, channel=0, data=[63, 0]),
   midi.NoteOnEvent(tick=120, channel=0, data=[63, 43]),
   midi.NoteOnEvent(tick=0, channel=0, data=[67, 43]),
   midi.NoteOnEvent(tick=240, channel=0, data=[67, 0]),
   midi.NoteOnEvent(tick=0, channel=0, data=[63, 0]),
   midi.NoteOnEvent(tick=0, channel=0, data=[65, 43]),
   midi.NoteOnEvent(tick=0, channel=0, data=[68, 43]),
   midi.NoteOnEvent(tick=240, channel=0, data=[68, 0]),
   midi.NoteOnEvent(tick=0, channel=0, data=[65, 0]),
   midi.NoteOnEvent(tick=0, channel=0, data=[67, 36]),
   midi.NoteOnEvent(tick=0, channel=0, data=[70, 36]),
   midi.NoteOnEvent(tick=240, channel=0, data=[70, 0]),
   midi.NoteOnEvent(tick=0, channel=0, data=[67, 0]),
   midi.NoteOnEvent(tick=0, channel=0, data=[68, 43]),
   midi.NoteOnEvent(tick=0, channel=0, data=[72, 43]),
   midi.NoteOnEvent(tick=240, channel=0, data=[72, 0]),
   midi.NoteOnEvent(tick=0, channel=0, data=[68, 0]),
   midi.NoteOnEvent(tick=720, channel=0, data=[62, 43]),
   midi.NoteOnEvent(tick=0, channel=0, data=[58, 43]),
   midi.NoteOnEvent(tick=0, channel=0, data=[68, 43]),
   midi.NoteOnEvent(tick=240, channel=0, data=[62, 0]),
   midi.NoteOnEvent(tick=0, channel=0, data=[65, 43]),
   midi.NoteOnEvent(tick=240, channel=0, data=[65, 0]),
   midi.NoteOnEvent(tick=0, channel=0, data=[68, 0]),
   midi.NoteOnEvent(tick=0, channel=0, data=[58, 0]),
   midi.NoteOnEvent(tick=0, channel=0, data=[63, 43]),
   midi.NoteOnEvent(tick=120, channel=0, data=[63, 0]),
   midi.NoteOnEvent(tick=0, channel=0, data=[67, 39]),
   midi.NoteOnEvent(tick=120, channel=0, data=[67, 0]),
   midi.NoteOnEvent(tick=0, channel=0, data=[70, 40]),
   midi.NoteOnEvent(tick=120, channel=0, data=[70, 0]),
   midi.NoteOnEvent(tick=0, channel=0, data=[67, 42]),
   midi.NoteOnEvent(tick=120, channel=0, data=[67, 0]),
   midi.NoteOnEvent(tick=0, channel=0, data=[63, 46]),
   midi.NoteOnEvent(tick=120, channel=0, data=[63, 0]),
   midi.NoteOnEvent(tick=0, channel=0, data=[67, 44]),
   midi.NoteOnEvent(tick=120, channel=0, data=[67, 0]),
   midi.NoteOnEvent(tick=0, channel=0, data=[70, 49]),
   midi.NoteOnEvent(tick=120, channel=0, data=[70, 0]),
   midi.NoteOnEvent(tick=0, channel=0, data=[67, 50]),
   midi.NoteOnEvent(tick=120, channel=0, data=[67, 0]),
   midi.NoteOnEvent(tick=0, channel=0, data=[68, 58]),
   midi.NoteOnEvent(tick=120, channel=0, data=[68, 0]),
   midi.NoteOnEvent(tick=0, channel=0, data=[65, 55]),
   midi.NoteOnEvent(tick=120, channel=0, data=[65, 0]),
   midi.NoteOnEvent(tick=0, channel=0, data=[70, 56]),
   midi.NoteOnEvent(tick=120, channel=0, data=[70, 0]),
   midi.NoteOnEvent(tick=0, channel=0, data=[68, 58]),
   midi.NoteOnEvent(tick=120, channel=0, data=[68, 0]),
   midi.NoteOnEvent(tick=0, channel=0, data=[67, 62]),
   midi.NoteOnEvent(tick=120, channel=0, data=[67, 0]),
   midi.NoteOnEvent(tick=0, channel=0, data=[70, 56]),
   midi.NoteOnEvent(tick=120, channel=0, data=[70, 0]),
   midi.NoteOnEvent(tick=0, channel=0, data=[67, 53]),
   midi.NoteOnEvent(tick=120, channel=0, data=[67, 0]),
   midi.NoteOnEvent(tick=0, channel=0, data=[65, 55]),
   midi.NoteOnEvent(tick=120, channel=0, data=[65, 0]),
   midi.NoteOnEvent(tick=0, channel=0, data=[63, 70]),
   midi.NoteOnEvent(tick=120, channel=0, data=[63, 0]),
   midi.NoteOnEvent(tick=0, channel=0, data=[61, 61]),
   midi.NoteOnEvent(tick=120, channel=0, data=[61, 0]),
   midi.NoteOnEvent(tick=0, channel=0, data=[58, 64]),
   midi.NoteOnEvent(tick=120, channel=0, data=[58, 0]),
   midi.NoteOnEvent(tick=0, channel=0, data=[55, 61]),
   midi.NoteOnEvent(tick=120, channel=0, data=[55, 0]),
   midi.NoteOnEvent(tick=0, channel=0, data=[56, 70]),
   midi.NoteOnEvent(tick=120, channel=0, data=[56, 0]),
   midi.NoteOnEvent(tick=0, channel=0, data=[53, 64]),
   midi.NoteOnEvent(tick=120, channel=0, data=[53, 0]),
   midi.NoteOnEvent(tick=0, channel=0, data=[58, 70]),
   midi.NoteOnEvent(tick=120, channel=0, data=[58, 0]),
   midi.NoteOnEvent(tick=0, channel=0, data=[46, 59]),
   midi.NoteOnEvent(tick=120, channel=0, data=[46, 0]),
   midi.NoteOnEvent(tick=0, channel=0, data=[51, 50]),
   midi.NoteOnEvent(tick=720, channel=0, data=[51, 0]),
   midi.NoteOnEvent(tick=0, channel=0, data=[56, 42]),
   midi.NoteOnEvent(tick=240, channel=0, data=[56, 0]),
   midi.NoteOnEvent(tick=0, channel=0, data=[55, 45]),
   midi.NoteOnEvent(tick=240, channel=0, data=[55, 0]),
   midi.NoteOnEvent(tick=0, channel=0, data=[53, 47]),
   midi.NoteOnEvent(tick=240, channel=0, data=[53, 0]),
   midi.NoteOnEvent(tick=0, channel=0, data=[52, 56]),
   midi.ControlChangeEvent(tick=0, channel=0, data=[91, 127]),
   midi.NoteOnEvent(tick=960, channel=0, data=[52, 0]),
   midi.NoteOnEvent(tick=0, channel=0, data=[48, 46]),
   midi.NoteOnEvent(tick=480, channel=0, data=[48, 0]),
   midi.NoteOnEvent(tick=0, channel=0, data=[49, 53]),
   midi.NoteOnEvent(tick=960, channel=0, data=[49, 0]),
   midi.NoteOnEvent(tick=0, channel=0, data=[60, 43]),
   midi.NoteOnEvent(tick=0, channel=0, data=[56, 43]),
   midi.NoteOnEvent(tick=480, channel=0, data=[56, 0]),
   midi.NoteOnEvent(tick=0, channel=0, data=[60, 0]),
   midi.NoteOnEvent(tick=0, channel=0, data=[58, 43]),
   midi.NoteOnEvent(tick=0, channel=0, data=[61, 43]),
   midi.NoteOnEvent(tick=480, channel=0, data=[61, 0]),
   midi.NoteOnEvent(tick=0, channel=0, data=[58, 0]),
   midi.NoteOnEvent(tick=480, channel=0, data=[60, 43]),
   midi.NoteOnEvent(tick=0, channel=0, data=[70, 43]),
   midi.NoteOnEvent(tick=480, channel=0, data=[70, 0]),
   midi.NoteOnEvent(tick=0, channel=0, data=[60, 0]),
   midi.NoteOnEvent(tick=0, channel=0, data=[65, 43]),
   midi.NoteOnEvent(tick=0, channel=0, data=[70, 43]),
   midi.NoteOnEvent(tick=480, channel=0, data=[70, 0]),
   midi.NoteOnEvent(tick=0, channel=0, data=[68, 36]),
   midi.NoteOnEvent(tick=240, channel=0, data=[68, 0]),
   midi.NoteOnEvent(tick=0, channel=0, data=[65, 0]),
   midi.NoteOnEvent(tick=0, channel=0, data=[41, 45]),
   midi.NoteOnEvent(tick=216, channel=0, data=[41, 0]),
   midi.NoteOnEvent(tick=24, channel=0, data=[41, 46]),
   midi.NoteOnEvent(tick=216, channel=0, data=[41, 0]),
   midi.NoteOnEvent(tick=24, channel=0, data=[41, 44]),
   midi.NoteOnEvent(tick=216, channel=0, data=[41, 0]),
   midi.NoteOnEvent(tick=24, channel=0, data=[41, 52]),
   midi.NoteOnEvent(tick=1440, channel=0, data=[41, 0]),
   midi.NoteOnEvent(tick=0, channel=0, data=[41, 42]),
   midi.NoteOnEvent(tick=720, channel=0, data=[41, 0]),
   midi.NoteOnEvent(tick=0, channel=0, data=[41, 45]),
   midi.NoteOnEvent(tick=216, channel=0, data=[41, 0]),
   midi.NoteOnEvent(tick=24, channel=0, data=[41, 46]),
   midi.NoteOnEvent(tick=216, channel=0, data=[41, 0]),
   midi.NoteOnEvent(tick=24, channel=0, data=[41, 45]),
   midi.NoteOnEvent(tick=216, channel=0, data=[41, 0]),
   midi.NoteOnEvent(tick=24, channel=0, data=[42, 54]),
   midi.NoteOnEvent(tick=1440, channel=0, data=[42, 0]),
   midi.NoteOnEvent(tick=0, channel=0, data=[43, 49]),
   midi.NoteOnEvent(tick=720, channel=0, data=[43, 0]),
   midi.NoteOnEvent(tick=0, channel=0, data=[43, 48]),
   midi.NoteOnEvent(tick=216, channel=0, data=[43, 0]),
   midi.NoteOnEvent(tick=24, channel=0, data=[43, 50]),
   midi.NoteOnEvent(tick=216, channel=0, data=[43, 0]),
   midi.NoteOnEvent(tick=24, channel=0, data=[43, 47]),
   midi.NoteOnEvent(tick=216, channel=0, data=[43, 0]),
   midi.NoteOnEvent(tick=24, channel=0, data=[44, 55]),
   midi.NoteOnEvent(tick=960, channel=0, data=[44, 0]),
   midi.NoteOnEvent(tick=0, channel=0, data=[45, 62]),
   midi.NoteOnEvent(tick=480, channel=0, data=[45, 0]),
   midi.NoteOnEvent(tick=0, channel=0, data=[46, 62]),
   midi.NoteOnEvent(tick=480, channel=0, data=[46, 0]),
   midi.NoteOnEvent(tick=0, channel=0, data=[49, 48]),
   midi.NoteOnEvent(tick=480, channel=0, data=[49, 0]),
   midi.NoteOnEvent(tick=0, channel=0, data=[48, 54]),
   midi.NoteOnEvent(tick=480, channel=0, data=[48, 0]),
   midi.NoteOnEvent(tick=0, channel=0, data=[49, 44]),
   midi.NoteOnEvent(tick=480, channel=0, data=[49, 0]),
   midi.NoteOnEvent(tick=0, channel=0, data=[51, 43]),
   midi.NoteOnEvent(tick=0, channel=0, data=[60, 43]),
   midi.NoteOnEvent(tick=480, channel=0, data=[60, 0]),
   midi.NoteOnEvent(tick=0, channel=0, data=[51, 0]),
   midi.NoteOnEvent(tick=0, channel=0, data=[51, 36]),
   midi.NoteOnEvent(tick=0, channel=0, data=[61, 36]),
   midi.NoteOnEvent(tick=480, channel=0, data=[61, 0]),
   midi.NoteOnEvent(tick=0, channel=0, data=[51, 0]),
   midi.NoteOnEvent(tick=0, channel=0, data=[56, 33]),
   midi.NoteOnEvent(tick=120, channel=0, data=[56, 0]),
   midi.NoteOnEvent(tick=0, channel=0, data=[60, 26]),
   midi.NoteOnEvent(tick=120, channel=0, data=[60, 0]),
   midi.NoteOnEvent(tick=0, channel=0, data=[63, 27]),
   midi.NoteOnEvent(tick=120, channel=0, data=[63, 0]),
   midi.NoteOnEvent(tick=0, channel=0, data=[60, 25]),
   midi.NoteOnEvent(tick=120, channel=0, data=[60, 0]),
   midi.NoteOnEvent(tick=0, channel=0, data=[56, 30]),
   midi.NoteOnEvent(tick=120, channel=0, data=[56, 0]),
   midi.NoteOnEvent(tick=0, channel=0, data=[60, 26]),
   midi.NoteOnEvent(tick=120, channel=0, data=[60, 0]),
   midi.NoteOnEvent(tick=0, channel=0, data=[63, 29]),
   midi.NoteOnEvent(tick=120, channel=0, data=[63, 0]),
   midi.NoteOnEvent(tick=0, channel=0, data=[60, 26]),
   midi.NoteOnEvent(tick=120, channel=0, data=[60, 0]),
   midi.NoteOnEvent(tick=0, channel=0, data=[56, 33]),
   midi.NoteOnEvent(tick=120, channel=0, data=[56, 0]),
   midi.NoteOnEvent(tick=0, channel=0, data=[60, 27]),
   midi.NoteOnEvent(tick=120, channel=0, data=[60, 0]),
   midi.NoteOnEvent(tick=0, channel=0, data=[63, 29]),
   midi.NoteOnEvent(tick=120, channel=0, data=[63, 0]),
   midi.NoteOnEvent(tick=0, channel=0, data=[60, 27]),
   midi.NoteOnEvent(tick=120, channel=0, data=[60, 0]),
   midi.NoteOnEvent(tick=0, channel=0, data=[55, 36]),
   midi.NoteOnEvent(tick=120, channel=0, data=[55, 0]),
   midi.NoteOnEvent(tick=0, channel=0, data=[58, 26]),
   midi.NoteOnEvent(tick=120, channel=0, data=[58, 0]),
   midi.NoteOnEvent(tick=0, channel=0, data=[60, 27]),
   midi.NoteOnEvent(tick=120, channel=0, data=[60, 0]),
   midi.NoteOnEvent(tick=0, channel=0, data=[58, 26]),
   midi.NoteOnEvent(tick=120, channel=0, data=[58, 0]),
   midi.NoteOnEvent(tick=0, channel=0, data=[55, 32]),
   midi.NoteOnEvent(tick=120, channel=0, data=[55, 0]),
   midi.NoteOnEvent(tick=0, channel=0, data=[58, 26]),
   midi.NoteOnEvent(tick=120, channel=0, data=[58, 0]),
   midi.NoteOnEvent(tick=0, channel=0, data=[60, 27]),
   midi.NoteOnEvent(tick=120, channel=0, data=[60, 0]),
   midi.NoteOnEvent(tick=0, channel=0, data=[58, 25]),
   midi.NoteOnEvent(tick=120, channel=0, data=[58, 0]),
   midi.NoteOnEvent(tick=0, channel=0, data=[55, 32]),
   midi.NoteOnEvent(tick=120, channel=0, data=[55, 0]),
   midi.NoteOnEvent(tick=0, channel=0, data=[58, 27]),
   midi.NoteOnEvent(tick=120, channel=0, data=[58, 0]),
   midi.NoteOnEvent(tick=0, channel=0, data=[60, 27]),
   midi.NoteOnEvent(tick=120, channel=0, data=[60, 0]),
   midi.NoteOnEvent(tick=0, channel=0, data=[58, 25]),
   midi.NoteOnEvent(tick=120, channel=0, data=[58, 0]),
   midi.NoteOnEvent(tick=0, channel=0, data=[53, 36]),
   midi.NoteOnEvent(tick=120, channel=0, data=[53, 0]),
   midi.NoteOnEvent(tick=0, channel=0, data=[56, 27]),
   midi.NoteOnEvent(tick=120, channel=0, data=[56, 0]),
   midi.NoteOnEvent(tick=0, channel=0, data=[60, 30]),
   midi.NoteOnEvent(tick=120, channel=0, data=[60, 0]),
   midi.NoteOnEvent(tick=0, channel=0, data=[56, 27]),
   midi.NoteOnEvent(tick=120, channel=0, data=[56, 0]),
   midi.NoteOnEvent(tick=0, channel=0, data=[53, 32]),
   midi.NoteOnEvent(tick=120, channel=0, data=[53, 0]),
   midi.NoteOnEvent(tick=0, channel=0, data=[56, 26]),
   midi.NoteOnEvent(tick=120, channel=0, data=[56, 0]),
   midi.NoteOnEvent(tick=0, channel=0, data=[60, 27]),
   midi.NoteOnEvent(tick=120, channel=0, data=[60, 0]),
   midi.NoteOnEvent(tick=0, channel=0, data=[56, 26]),
   midi.NoteOnEvent(tick=120, channel=0, data=[56, 0]),
   midi.NoteOnEvent(tick=0, channel=0, data=[53, 32]),
   midi.NoteOnEvent(tick=120, channel=0, data=[53, 0]),
   midi.NoteOnEvent(tick=0, channel=0, data=[56, 27]),
   midi.NoteOnEvent(tick=120, channel=0, data=[56, 0]),
   midi.NoteOnEvent(tick=0, channel=0, data=[60, 29]),
   midi.NoteOnEvent(tick=120, channel=0, data=[60, 0]),
   midi.NoteOnEvent(tick=0, channel=0, data=[56, 27]),
   midi.NoteOnEvent(tick=120, channel=0, data=[56, 0]),
   midi.NoteOnEvent(tick=0, channel=0, data=[51, 36]),
   midi.NoteOnEvent(tick=120, channel=0, data=[51, 0]),
   midi.NoteOnEvent(tick=0, channel=0, data=[54, 30]),
   midi.NoteOnEvent(tick=120, channel=0, data=[54, 0]),
   midi.NoteOnEvent(tick=0, channel=0, data=[56, 32]),
   midi.NoteOnEvent(tick=120, channel=0, data=[56, 0]),
   midi.NoteOnEvent(tick=0, channel=0, data=[54, 29]),
   midi.NoteOnEvent(tick=120, channel=0, data=[54, 0]),
   midi.NoteOnEvent(tick=0, channel=0, data=[51, 36]),
   midi.NoteOnEvent(tick=120, channel=0, data=[51, 0]),
   midi.NoteOnEvent(tick=0, channel=0, data=[54, 29]),
   midi.NoteOnEvent(tick=120, channel=0, data=[54, 0]),
   midi.NoteOnEvent(tick=0, channel=0, data=[56, 32]),
   midi.NoteOnEvent(tick=120, channel=0, data=[56, 0]),
   midi.NoteOnEvent(tick=0, channel=0, data=[54, 29]),
   midi.NoteOnEvent(tick=120, channel=0, data=[54, 0]),
   midi.NoteOnEvent(tick=0, channel=0, data=[51, 35]),
   midi.NoteOnEvent(tick=120, channel=0, data=[51, 0]),
   midi.NoteOnEvent(tick=0, channel=0, data=[54, 29]),
   midi.NoteOnEvent(tick=120, channel=0, data=[54, 0]),
   midi.NoteOnEvent(tick=0, channel=0, data=[56, 31]),
   midi.NoteOnEvent(tick=120, channel=0, data=[56, 0]),
   midi.NoteOnEvent(tick=0, channel=0, data=[54, 27]),
   midi.NoteOnEvent(tick=120, channel=0, data=[54, 0]),
   midi.NoteOnEvent(tick=0, channel=0, data=[49, 40]),
   midi.NoteOnEvent(tick=120, channel=0, data=[49, 0]),
   midi.NoteOnEvent(tick=0, channel=0, data=[52, 34]),
   midi.NoteOnEvent(tick=120, channel=0, data=[52, 0]),
   midi.NoteOnEvent(tick=0, channel=0, data=[56, 36]),
   midi.NoteOnEvent(tick=120, channel=0, data=[56, 0]),
   midi.NoteOnEvent(tick=0, channel=0, data=[52, 33]),
   midi.NoteOnEvent(tick=120, channel=0, data=[52, 0]),
   midi.NoteOnEvent(tick=0, channel=0, data=[49, 40]),
   midi.NoteOnEvent(tick=120, channel=0, data=[49, 0]),
   midi.NoteOnEvent(tick=0, channel=0, data=[52, 33]),
   midi.NoteOnEvent(tick=120, channel=0, data=[52, 0]),
   midi.NoteOnEvent(tick=0, channel=0, data=[56, 36]),
   midi.NoteOnEvent(tick=120, channel=0, data=[56, 0]),
   midi.NoteOnEvent(tick=0, channel=0, data=[52, 33]),
   midi.NoteOnEvent(tick=120, channel=0, data=[52, 0]),
   midi.NoteOnEvent(tick=0, channel=0, data=[47, 39]),
   midi.NoteOnEvent(tick=120, channel=0, data=[47, 0]),
   midi.NoteOnEvent(tick=0, channel=0, data=[51, 34]),
   midi.NoteOnEvent(tick=120, channel=0, data=[51, 0]),
   midi.NoteOnEvent(tick=0, channel=0, data=[56, 36]),
   midi.NoteOnEvent(tick=120, channel=0, data=[56, 0]),
   midi.NoteOnEvent(tick=0, channel=0, data=[51, 33]),
   midi.NoteOnEvent(tick=120, channel=0, data=[51, 0]),
   midi.NoteOnEvent(tick=0, channel=0, data=[46, 36]),
   midi.NoteOnEvent(tick=0, channel=0, data=[53, 36]),
   midi.NoteOnEvent(tick=720, channel=0, data=[53, 0]),
   midi.NoteOnEvent(tick=0, channel=0, data=[46, 0]),
   midi.NoteOnEvent(tick=0, channel=0, data=[46, 29]),
   midi.NoteOnEvent(tick=0, channel=0, data=[53, 29]),
   midi.NoteOnEvent(tick=240, channel=0, data=[53, 0]),
   midi.NoteOnEvent(tick=0, channel=0, data=[46, 0]),
   midi.NoteOnEvent(tick=0, channel=0, data=[46, 32]),
   midi.NoteOnEvent(tick=0, channel=0, data=[53, 32]),
   midi.NoteOnEvent(tick=240, channel=0, data=[53, 0]),
   midi.NoteOnEvent(tick=0, channel=0, data=[46, 0]),
   midi.NoteOnEvent(tick=0, channel=0, data=[46, 29]),
   midi.NoteOnEvent(tick=0, channel=0, data=[53, 29]),
   midi.NoteOnEvent(tick=240, channel=0, data=[53, 0]),
   midi.NoteOnEvent(tick=0, channel=0, data=[46, 0]),
   midi.NoteOnEvent(tick=0, channel=0, data=[46, 32]),
   midi.NoteOnEvent(tick=0, channel=0, data=[53, 32]),
   midi.NoteOnEvent(tick=480, channel=0, data=[53, 0]),
   midi.NoteOnEvent(tick=0, channel=0, data=[46, 0]),
   midi.NoteOnEvent(tick=240, channel=0, data=[65, 27]),
   midi.NoteOnEvent(tick=0, channel=0, data=[58, 27]),
   midi.NoteOnEvent(tick=216, channel=0, data=[58, 0]),
   midi.NoteOnEvent(tick=0, channel=0, data=[65, 0]),
   midi.NoteOnEvent(tick=24, channel=0, data=[65, 27]),
   midi.NoteOnEvent(tick=0, channel=0, data=[58, 27]),
   midi.NoteOnEvent(tick=216, channel=0, data=[58, 0]),
   midi.NoteOnEvent(tick=0, channel=0, data=[65, 0]),
   midi.NoteOnEvent(tick=24, channel=0, data=[65, 27]),
   midi.NoteOnEvent(tick=0, channel=0, data=[58, 27]),
   midi.NoteOnEvent(tick=216, channel=0, data=[58, 0]),
   midi.NoteOnEvent(tick=0, channel=0, data=[65, 0]),
   midi.NoteOnEvent(tick=24, channel=0, data=[58, 31]),
   midi.NoteOnEvent(tick=0, channel=0, data=[65, 31]),
   midi.NoteOnEvent(tick=480, channel=0, data=[65, 0]),
   midi.NoteOnEvent(tick=0, channel=0, data=[58, 0]),
   midi.ControlChangeEvent(tick=960, channel=0, data=[91, 127]),
   midi.NoteOnEvent(tick=1, channel=0, data=[51, 39]),
   midi.NoteOnEvent(tick=960, channel=0, data=[51, 0]),
   midi.NoteOnEvent(tick=479, channel=0, data=[51, 37]),
   midi.NoteOnEvent(tick=120, channel=0, data=[51, 0]),
   midi.NoteOnEvent(tick=0, channel=0, data=[55, 33]),
   midi.NoteOnEvent(tick=120, channel=0, data=[55, 0]),
   midi.NoteOnEvent(tick=0, channel=0, data=[58, 36]),
   midi.NoteOnEvent(tick=120, channel=0, data=[58, 0]),
   midi.NoteOnEvent(tick=0, channel=0, data=[51, 33]),
   midi.NoteOnEvent(tick=120, channel=0, data=[51, 0]),
   midi.NoteOnEvent(tick=0, channel=0, data=[53, 40]),
   midi.NoteOnEvent(tick=120, channel=0, data=[53, 0]),
   midi.NoteOnEvent(tick=0, channel=0, data=[56, 32]),
   midi.NoteOnEvent(tick=120, channel=0, data=[56, 0]),
   midi.NoteOnEvent(tick=0, channel=0, data=[62, 35]),
   midi.NoteOnEvent(tick=120, channel=0, data=[62, 0]),
   midi.NoteOnEvent(tick=0, channel=0, data=[53, 33]),
   midi.NoteOnEvent(tick=120, channel=0, data=[53, 0]),
   midi.NoteOnEvent(tick=0, channel=0, data=[55, 40]),
   midi.NoteOnEvent(tick=120, channel=0, data=[55, 0]),
   midi.NoteOnEvent(tick=0, channel=0, data=[58, 32]),
   midi.NoteOnEvent(tick=120, channel=0, data=[58, 0]),
   midi.NoteOnEvent(tick=0, channel=0, data=[63, 36]),
   midi.NoteOnEvent(tick=120, channel=0, data=[63, 0]),
   midi.NoteOnEvent(tick=0, channel=0, data=[55, 33]),
   midi.NoteOnEvent(tick=120, channel=0, data=[55, 0]),
   midi.NoteOnEvent(tick=0, channel=0, data=[56, 41]),
   midi.NoteOnEvent(tick=0, channel=0, data=[60, 41]),
   midi.NoteOnEvent(tick=1440, channel=0, data=[60, 0]),
   midi.NoteOnEvent(tick=0, channel=0, data=[56, 0]),
   midi.NoteOnEvent(tick=0, channel=0, data=[45, 44]),
   midi.NoteOnEvent(tick=120, channel=0, data=[45, 0]),
   midi.NoteOnEvent(tick=0, channel=0, data=[46, 46]),
   midi.NoteOnEvent(tick=120, channel=0, data=[46, 0]),
   midi.NoteOnEvent(tick=0, channel=0, data=[48, 49]),
   midi.NoteOnEvent(tick=120, channel=0, data=[48, 0]),
   midi.NoteOnEvent(tick=0, channel=0, data=[46, 45]),
   midi.NoteOnEvent(tick=110, channel=0, data=[46, 0]),
   midi.NoteOnEvent(tick=10, channel=0, data=[46, 45]),
   midi.NoteOnEvent(tick=480, channel=0, data=[46, 0]),
   midi.NoteOnEvent(tick=480, channel=0, data=[39, 45]),
   midi.NoteOnEvent(tick=0, channel=0, data=[51, 45]),
   midi.NoteOnEvent(tick=480, channel=0, data=[51, 0]),
   midi.NoteOnEvent(tick=0, channel=0, data=[39, 0]),
   midi.NoteOnEvent(tick=480, channel=0, data=[51, 53]),
   midi.NoteOnEvent(tick=0, channel=0, data=[60, 53]),
   midi.NoteOnEvent(tick=480, channel=0, data=[60, 0]),
   midi.NoteOnEvent(tick=0, channel=0, data=[51, 0]),
   midi.NoteOnEvent(tick=0, channel=0, data=[53, 51]),
   midi.NoteOnEvent(tick=0, channel=0, data=[60, 51]),
   midi.NoteOnEvent(tick=480, channel=0, data=[60, 0]),
   midi.NoteOnEvent(tick=0, channel=0, data=[53, 0]),
   midi.NoteOnEvent(tick=0, channel=0, data=[58, 46]),
   midi.NoteOnEvent(tick=0, channel=0, data=[62, 46]),
   midi.NoteOnEvent(tick=240, channel=0, data=[58, 0]),
   midi.NoteOnEvent(tick=0, channel=0, data=[59, 40]),
   midi.NoteOnEvent(tick=240, channel=0, data=[59, 0]),
   midi.NoteOnEvent(tick=0, channel=0, data=[62, 0]),
   midi.NoteOnEvent(tick=0, channel=0, data=[63, 47]),
   midi.NoteOnEvent(tick=0, channel=0, data=[60, 47]),
   midi.NoteOnEvent(tick=240, channel=0, data=[60, 0]),
   midi.NoteOnEvent(tick=0, channel=0, data=[55, 45]),
   midi.NoteOnEvent(tick=240, channel=0, data=[55, 0]),
   midi.NoteOnEvent(tick=0, channel=0, data=[56, 50]),
   midi.NoteOnEvent(tick=240, channel=0, data=[56, 0]),
   midi.NoteOnEvent(tick=0, channel=0, data=[63, 0]),
   midi.NoteOnEvent(tick=240, channel=0, data=[46, 51]),
   midi.NoteOnEvent(tick=0, channel=0, data=[55, 51]),
   midi.NoteOnEvent(tick=480, channel=0, data=[55, 0]),
   midi.NoteOnEvent(tick=0, channel=0, data=[56, 37]),
   midi.NoteOnEvent(tick=480, channel=0, data=[56, 0]),
   midi.NoteOnEvent(tick=0, channel=0, data=[46, 0]),
   midi.NoteOnEvent(tick=0, channel=0, data=[51, 30]),
   midi.NoteOnEvent(tick=120, channel=0, data=[51, 0]),
   midi.NoteOnEvent(tick=0, channel=0, data=[55, 26]),
   midi.NoteOnEvent(tick=120, channel=0, data=[55, 0]),
   midi.NoteOnEvent(tick=0, channel=0, data=[58, 27]),
   midi.NoteOnEvent(tick=120, channel=0, data=[58, 0]),
   midi.NoteOnEvent(tick=0, channel=0, data=[55, 27]),
   midi.NoteOnEvent(tick=120, channel=0, data=[55, 0]),
   midi.NoteOnEvent(tick=0, channel=0, data=[51, 30]),
   midi.NoteOnEvent(tick=120, channel=0, data=[51, 0]),
   midi.NoteOnEvent(tick=0, channel=0, data=[55, 27]),
   midi.NoteOnEvent(tick=120, channel=0, data=[55, 0]),
   midi.NoteOnEvent(tick=0, channel=0, data=[58, 29]),
   midi.NoteOnEvent(tick=120, channel=0, data=[58, 0]),
   midi.NoteOnEvent(tick=0, channel=0, data=[55, 27]),
   midi.NoteOnEvent(tick=120, channel=0, data=[55, 0]),
   midi.NoteOnEvent(tick=0, channel=0, data=[51, 33]),
   midi.NoteOnEvent(tick=120, channel=0, data=[51, 0]),
   midi.NoteOnEvent(tick=0, channel=0, data=[55, 27]),
   midi.NoteOnEvent(tick=120, channel=0, data=[55, 0]),
   midi.NoteOnEvent(tick=0, channel=0, data=[58, 29]),
   midi.NoteOnEvent(tick=120, channel=0, data=[58, 0]),
   midi.NoteOnEvent(tick=0, channel=0, data=[55, 27]),
   midi.NoteOnEvent(tick=120, channel=0, data=[55, 0]),
   midi.NoteOnEvent(tick=0, channel=0, data=[51, 36]),
   midi.NoteOnEvent(tick=120, channel=0, data=[51, 0]),
   midi.NoteOnEvent(tick=0, channel=0, data=[53, 27]),
   midi.NoteOnEvent(tick=120, channel=0, data=[53, 0]),
   midi.NoteOnEvent(tick=0, channel=0, data=[56, 30]),
   midi.NoteOnEvent(tick=120, channel=0, data=[56, 0]),
   midi.NoteOnEvent(tick=0, channel=0, data=[53, 27]),
   midi.NoteOnEvent(tick=120, channel=0, data=[53, 0]),
   midi.NoteOnEvent(tick=0, channel=0, data=[51, 32]),
   midi.NoteOnEvent(tick=120, channel=0, data=[51, 0]),
   midi.NoteOnEvent(tick=0, channel=0, data=[53, 27]),
   midi.NoteOnEvent(tick=120, channel=0, data=[53, 0]),
   midi.NoteOnEvent(tick=0, channel=0, data=[56, 27]),
   midi.NoteOnEvent(tick=120, channel=0, data=[56, 0]),
   midi.NoteOnEvent(tick=0, channel=0, data=[53, 26]),
   midi.NoteOnEvent(tick=120, channel=0, data=[53, 0]),
   midi.NoteOnEvent(tick=0, channel=0, data=[51, 32]),
   midi.NoteOnEvent(tick=120, channel=0, data=[51, 0]),
   midi.NoteOnEvent(tick=0, channel=0, data=[53, 27]),
   midi.NoteOnEvent(tick=120, channel=0, data=[53, 0]),
   midi.NoteOnEvent(tick=0, channel=0, data=[56, 27]),
   midi.NoteOnEvent(tick=120, channel=0, data=[56, 0]),
   midi.NoteOnEvent(tick=0, channel=0, data=[53, 27]),
   midi.NoteOnEvent(tick=120, channel=0, data=[53, 0]),
   midi.NoteOnEvent(tick=0, channel=0, data=[51, 33]),
   midi.NoteOnEvent(tick=120, channel=0, data=[51, 0]),
   midi.NoteOnEvent(tick=0, channel=0, data=[55, 26]),
   midi.NoteOnEvent(tick=120, channel=0, data=[55, 0]),
   midi.NoteOnEvent(tick=0, channel=0, data=[58, 27]),
   midi.NoteOnEvent(tick=120, channel=0, data=[58, 0]),
   midi.NoteOnEvent(tick=0, channel=0, data=[55, 26]),
   midi.NoteOnEvent(tick=120, channel=0, data=[55, 0]),
   midi.NoteOnEvent(tick=0, channel=0, data=[51, 31]),
   midi.NoteOnEvent(tick=120, channel=0, data=[51, 0]),
   midi.NoteOnEvent(tick=0, channel=0, data=[55, 26]),
   midi.NoteOnEvent(tick=120, channel=0, data=[55, 0]),
   midi.NoteOnEvent(tick=0, channel=0, data=[58, 27]),
   midi.NoteOnEvent(tick=120, channel=0, data=[58, 0]),
   midi.NoteOnEvent(tick=0, channel=0, data=[55, 26]),
   midi.NoteOnEvent(tick=120, channel=0, data=[55, 0]),
   midi.NoteOnEvent(tick=0, channel=0, data=[51, 33]),
   midi.NoteOnEvent(tick=120, channel=0, data=[51, 0]),
   midi.NoteOnEvent(tick=0, channel=0, data=[55, 27]),
   midi.NoteOnEvent(tick=120, channel=0, data=[55, 0]),
   midi.NoteOnEvent(tick=0, channel=0, data=[58, 30]),
   midi.NoteOnEvent(tick=120, channel=0, data=[58, 0]),
   midi.NoteOnEvent(tick=0, channel=0, data=[55, 27]),
   midi.NoteOnEvent(tick=120, channel=0, data=[55, 0]),
   midi.NoteOnEvent(tick=0, channel=0, data=[51, 36]),
   midi.NoteOnEvent(tick=120, channel=0, data=[51, 0]),
   midi.NoteOnEvent(tick=0, channel=0, data=[53, 25]),
   midi.NoteOnEvent(tick=120, channel=0, data=[53, 0]),
   midi.NoteOnEvent(tick=0, channel=0, data=[56, 27]),
   midi.NoteOnEvent(tick=120, channel=0, data=[56, 0]),
   midi.NoteOnEvent(tick=0, channel=0, data=[53, 24]),
   midi.NoteOnEvent(tick=120, channel=0, data=[53, 0]),
   midi.NoteOnEvent(tick=0, channel=0, data=[51, 29]),
   midi.NoteOnEvent(tick=120, channel=0, data=[51, 0]),
   midi.NoteOnEvent(tick=0, channel=0, data=[53, 23]),
   midi.NoteOnEvent(tick=120, channel=0, data=[53, 0]),
   midi.NoteOnEvent(tick=0, channel=0, data=[56, 27]),
   midi.NoteOnEvent(tick=120, channel=0, data=[56, 0]),
   midi.NoteOnEvent(tick=0, channel=0, data=[53, 23]),
   midi.NoteOnEvent(tick=120, channel=0, data=[53, 0]),
   midi.NoteOnEvent(tick=0, channel=0, data=[51, 30]),
   midi.NoteOnEvent(tick=120, channel=0, data=[51, 0]),
   midi.NoteOnEvent(tick=0, channel=0, data=[53, 26]),
   midi.NoteOnEvent(tick=120, channel=0, data=[53, 0]),
   midi.NoteOnEvent(tick=0, channel=0, data=[56, 26]),
   midi.NoteOnEvent(tick=120, channel=0, data=[56, 0]),
   midi.NoteOnEvent(tick=0, channel=0, data=[53, 25]),
   midi.NoteOnEvent(tick=120, channel=0, data=[53, 0]),
   midi.NoteOnEvent(tick=0, channel=0, data=[51, 27]),
   midi.NoteOnEvent(tick=0, channel=0, data=[55, 27]),
   midi.NoteOnEvent(tick=480, channel=0, data=[55, 0]),
   midi.NoteOnEvent(tick=0, channel=0, data=[51, 0]),
   midi.NoteOnEvent(tick=240, channel=0, data=[55, 32]),
   midi.NoteOnEvent(tick=240, channel=0, data=[55, 0]),
   midi.NoteOnEvent(tick=0, channel=0, data=[56, 34]),
   midi.NoteOnEvent(tick=240, channel=0, data=[56, 0]),
   midi.NoteOnEvent(tick=0, channel=0, data=[57, 35]),
   midi.NoteOnEvent(tick=240, channel=0, data=[57, 0]),
   midi.NoteOnEvent(tick=0, channel=0, data=[58, 37]),
   midi.NoteOnEvent(tick=600, channel=0, data=[58, 0]),
   midi.NoteOnEvent(tick=0, channel=0, data=[59, 41]),
   midi.NoteOnEvent(tick=120, channel=0, data=[59, 0]),
   midi.NoteOnEvent(tick=0, channel=0, data=[60, 45]),
   midi.NoteOnEvent(tick=120, channel=0, data=[60, 0]),
   midi.NoteOnEvent(tick=0, channel=0, data=[58, 43]),
   midi.NoteOnEvent(tick=110, channel=0, data=[58, 0]),
   midi.NoteOnEvent(tick=10, channel=0, data=[58, 45]),
   midi.NoteOnEvent(tick=120, channel=0, data=[58, 0]),
   midi.NoteOnEvent(tick=0, channel=0, data=[56, 44]),
   midi.NoteOnEvent(tick=120, channel=0, data=[56, 0]),
   midi.NoteOnEvent(tick=0, channel=0, data=[55, 45]),
   midi.NoteOnEvent(tick=120, channel=0, data=[55, 0]),
   midi.NoteOnEvent(tick=0, channel=0, data=[53, 45]),
   midi.NoteOnEvent(tick=120, channel=0, data=[53, 0]),
   midi.NoteOnEvent(tick=0, channel=0, data=[51, 53]),
   midi.NoteOnEvent(tick=240, channel=0, data=[51, 0]),
   midi.NoteOnEvent(tick=0, channel=0, data=[55, 45]),
   midi.NoteOnEvent(tick=240, channel=0, data=[55, 0]),
   midi.NoteOnEvent(tick=0, channel=0, data=[58, 47]),
   midi.NoteOnEvent(tick=240, channel=0, data=[58, 0]),
   midi.NoteOnEvent(tick=0, channel=0, data=[63, 45]),
   midi.NoteOnEvent(tick=240, channel=0, data=[63, 0]),
   midi.NoteOnEvent(tick=0, channel=0, data=[68, 51]),
   midi.NoteOnEvent(tick=240, channel=0, data=[68, 0]),
   midi.NoteOnEvent(tick=0, channel=0, data=[67, 47]),
   midi.NoteOnEvent(tick=240, channel=0, data=[67, 0]),
   midi.NoteOnEvent(tick=0, channel=0, data=[68, 51]),
   midi.NoteOnEvent(tick=0, channel=0, data=[65, 51]),
   midi.NoteOnEvent(tick=240, channel=0, data=[65, 0]),
   midi.NoteOnEvent(tick=0, channel=0, data=[68, 0]),
   midi.NoteOnEvent(tick=0, channel=0, data=[67, 47]),
   midi.NoteOnEvent(tick=0, channel=0, data=[63, 47]),
   midi.NoteOnEvent(tick=240, channel=0, data=[63, 0]),
   midi.NoteOnEvent(tick=0, channel=0, data=[67, 0]),
   midi.NoteOnEvent(tick=0, channel=0, data=[62, 47]),
   midi.NoteOnEvent(tick=0, channel=0, data=[65, 47]),
   midi.NoteOnEvent(tick=240, channel=0, data=[65, 0]),
   midi.NoteOnEvent(tick=0, channel=0, data=[62, 0]),
   midi.NoteOnEvent(tick=960, channel=0, data=[58, 45]),
   midi.NoteOnEvent(tick=240, channel=0, data=[58, 0]),
   midi.NoteOnEvent(tick=0, channel=0, data=[62, 45]),
   midi.NoteOnEvent(tick=240, channel=0, data=[62, 0]),
   midi.NoteOnEvent(tick=0, channel=0, data=[65, 45]),
   midi.NoteOnEvent(tick=240, channel=0, data=[65, 0]),
   midi.NoteOnEvent(tick=0, channel=0, data=[67, 50]),
   midi.NoteOnEvent(tick=240, channel=0, data=[67, 0]),
   midi.NoteOnEvent(tick=0, channel=0, data=[70, 45]),
   midi.NoteOnEvent(tick=0, channel=0, data=[68, 45]),
   midi.NoteOnEvent(tick=240, channel=0, data=[68, 0]),
   midi.NoteOnEvent(tick=0, channel=0, data=[67, 51]),
   midi.NoteOnEvent(tick=240, channel=0, data=[67, 0]),
   midi.NoteOnEvent(tick=0, channel=0, data=[70, 0]),
   midi.NoteOnEvent(tick=0, channel=0, data=[65, 45]),
   midi.NoteOnEvent(tick=0, channel=0, data=[68, 45]),
   midi.NoteOnEvent(tick=240, channel=0, data=[68, 0]),
   midi.NoteOnEvent(tick=0, channel=0, data=[65, 0]),
   midi.NoteOnEvent(tick=0, channel=0, data=[63, 50]),
   midi.NoteOnEvent(tick=0, channel=0, data=[67, 50]),
   midi.NoteOnEvent(tick=240, channel=0, data=[67, 0]),
   midi.NoteOnEvent(tick=0, channel=0, data=[63, 0]),
   midi.NoteOnEvent(tick=0, channel=0, data=[39, 54]),
   midi.NoteOnEvent(tick=0, channel=0, data=[51, 54]),
   midi.NoteOnEvent(tick=216, channel=0, data=[51, 0]),
   midi.NoteOnEvent(tick=0, channel=0, data=[39, 0]),
   midi.NoteOnEvent(tick=24, channel=0, data=[39, 56]),
   midi.NoteOnEvent(tick=0, channel=0, data=[51, 56]),
   midi.NoteOnEvent(tick=216, channel=0, data=[51, 0]),
   midi.NoteOnEvent(tick=0, channel=0, data=[39, 0]),
   midi.NoteOnEvent(tick=24, channel=0, data=[39, 54]),
   midi.NoteOnEvent(tick=0, channel=0, data=[51, 54]),
   midi.NoteOnEvent(tick=216, channel=0, data=[51, 0]),
   midi.NoteOnEvent(tick=0, channel=0, data=[39, 0]),
   midi.NoteOnEvent(tick=264, channel=0, data=[63, 47]),
   midi.NoteOnEvent(tick=0, channel=0, data=[55, 47]),
   midi.NoteOnEvent(tick=216, channel=0, data=[55, 0]),
   midi.NoteOnEvent(tick=0, channel=0, data=[63, 0]),
   midi.NoteOnEvent(tick=24, channel=0, data=[55, 49]),
   midi.NoteOnEvent(tick=0, channel=0, data=[63, 49]),
   midi.NoteOnEvent(tick=216, channel=0, data=[63, 0]),
   midi.NoteOnEvent(tick=0, channel=0, data=[55, 0]),
   midi.NoteOnEvent(tick=24, channel=0, data=[55, 48]),
   midi.NoteOnEvent(tick=0, channel=0, data=[63, 48]),
   midi.NoteOnEvent(tick=216, channel=0, data=[63, 0]),
   midi.NoteOnEvent(tick=0, channel=0, data=[55, 0]),
   midi.NoteOnEvent(tick=24, channel=0, data=[55, 51]),
   midi.NoteOnEvent(tick=0, channel=0, data=[63, 51]),
   midi.NoteOnEvent(tick=216, channel=0, data=[63, 0]),
   midi.NoteOnEvent(tick=0, channel=0, data=[55, 0]),
   midi.NoteOnEvent(tick=24, channel=0, data=[55, 45]),
   midi.NoteOnEvent(tick=0, channel=0, data=[63, 45]),
   midi.NoteOnEvent(tick=216, channel=0, data=[63, 0]),
   midi.NoteOnEvent(tick=0, channel=0, data=[55, 0]),
   midi.NoteOnEvent(tick=264, channel=0, data=[55, 47]),
   midi.NoteOnEvent(tick=0, channel=0, data=[63, 47]),
   midi.NoteOnEvent(tick=240, channel=0, data=[55, 0]),
   midi.NoteOnEvent(tick=0, channel=0, data=[56, 50]),
   midi.NoteOnEvent(tick=240, channel=0, data=[56, 0]),
   midi.NoteOnEvent(tick=0, channel=0, data=[63, 0]),
   midi.NoteOnEvent(tick=0, channel=0, data=[63, 55]),
   midi.NoteOnEvent(tick=0, channel=0, data=[56, 55]),
   midi.NoteOnEvent(tick=216, channel=0, data=[56, 0]),
   midi.NoteOnEvent(tick=0, channel=0, data=[63, 0]),
   midi.NoteOnEvent(tick=24, channel=0, data=[56, 55]),
   midi.NoteOnEvent(tick=0, channel=0, data=[63, 55]),
   midi.NoteOnEvent(tick=216, channel=0, data=[63, 0]),
   midi.NoteOnEvent(tick=0, channel=0, data=[56, 0]),
   midi.NoteOnEvent(tick=24, channel=0, data=[56, 50]),
   midi.NoteOnEvent(tick=0, channel=0, data=[63, 50]),
   midi.NoteOnEvent(tick=216, channel=0, data=[63, 0]),
   midi.NoteOnEvent(tick=0, channel=0, data=[56, 0]),
   midi.NoteOnEvent(tick=24, channel=0, data=[55, 53]),
   midi.NoteOnEvent(tick=0, channel=0, data=[63, 53]),
   midi.NoteOnEvent(tick=240, channel=0, data=[63, 0]),
   midi.NoteOnEvent(tick=0, channel=0, data=[55, 0]),
   midi.NoteOnEvent(tick=0, channel=0, data=[56, 48]),
   midi.NoteOnEvent(tick=0, channel=0, data=[63, 48]),
   midi.NoteOnEvent(tick=240, channel=0, data=[63, 0]),
   midi.NoteOnEvent(tick=0, channel=0, data=[56, 0]),
   midi.NoteOnEvent(tick=0, channel=0, data=[46, 50]),
   midi.NoteOnEvent(tick=0, channel=0, data=[55, 50]),
   midi.NoteOnEvent(tick=216, channel=0, data=[55, 0]),
   midi.NoteOnEvent(tick=0, channel=0, data=[46, 0]),
   midi.NoteOnEvent(tick=24, channel=0, data=[46, 46]),
   midi.NoteOnEvent(tick=0, channel=0, data=[55, 46]),
   midi.NoteOnEvent(tick=216, channel=0, data=[55, 0]),
   midi.NoteOnEvent(tick=0, channel=0, data=[46, 0]),
   midi.NoteOnEvent(tick=24, channel=0, data=[46, 39]),
   midi.NoteOnEvent(tick=0, channel=0, data=[56, 39]),
   midi.NoteOnEvent(tick=216, channel=0, data=[56, 0]),
   midi.NoteOnEvent(tick=0, channel=0, data=[46, 0]),
   midi.NoteOnEvent(tick=24, channel=0, data=[46, 39]),
   midi.NoteOnEvent(tick=0, channel=0, data=[56, 39]),
   midi.NoteOnEvent(tick=216, channel=0, data=[56, 0]),
   midi.NoteOnEvent(tick=0, channel=0, data=[46, 0]),
   midi.NoteOnEvent(tick=24, channel=0, data=[51, 45]),
   midi.NoteOnEvent(tick=0, channel=0, data=[55, 45]),
   midi.NoteOnEvent(tick=120, channel=0, data=[55, 0]),
   midi.NoteOnEvent(tick=0, channel=0, data=[51, 0]),
   midi.NoteOnEvent(tick=0, channel=0, data=[51, 50]),
   midi.NoteOnEvent(tick=120, channel=0, data=[51, 0]),
   midi.NoteOnEvent(tick=0, channel=0, data=[55, 54]),
   midi.NoteOnEvent(tick=120, channel=0, data=[55, 0]),
   midi.NoteOnEvent(tick=0, channel=0, data=[58, 57]),
   midi.NoteOnEvent(tick=120, channel=0, data=[58, 0]),
   midi.NoteOnEvent(tick=0, channel=0, data=[56, 63]),
   midi.NoteOnEvent(tick=120, channel=0, data=[56, 0]),
   midi.NoteOnEvent(tick=0, channel=0, data=[58, 56]),
   midi.NoteOnEvent(tick=120, channel=0, data=[58, 0]),
   midi.NoteOnEvent(tick=0, channel=0, data=[55, 63]),
   midi.NoteOnEvent(tick=120, channel=0, data=[55, 0]),
   midi.NoteOnEvent(tick=0, channel=0, data=[58, 56]),
   midi.NoteOnEvent(tick=120, channel=0, data=[58, 0]),
   midi.NoteOnEvent(tick=0, channel=0, data=[53, 63]),
   midi.NoteOnEvent(tick=120, channel=0, data=[53, 0]),
   midi.NoteOnEvent(tick=0, channel=0, data=[58, 56]),
   midi.NoteOnEvent(tick=120, channel=0, data=[58, 0]),
   midi.NoteOnEvent(tick=0, channel=0, data=[51, 63]),
   midi.NoteOnEvent(tick=120, channel=0, data=[51, 0]),
   midi.NoteOnEvent(tick=0, channel=0, data=[58, 56]),
   midi.NoteOnEvent(tick=120, channel=0, data=[58, 0]),
   midi.NoteOnEvent(tick=0, channel=0, data=[50, 63]),
   midi.NoteOnEvent(tick=120, channel=0, data=[50, 0]),
   midi.NoteOnEvent(tick=0, channel=0, data=[53, 54]),
   midi.NoteOnEvent(tick=120, channel=0, data=[53, 0]),
   midi.NoteOnEvent(tick=0, channel=0, data=[56, 56]),
   midi.NoteOnEvent(tick=120, channel=0, data=[56, 0]),
   midi.NoteOnEvent(tick=0, channel=0, data=[55, 53]),
   midi.NoteOnEvent(tick=120, channel=0, data=[55, 0]),
   midi.NoteOnEvent(tick=0, channel=0, data=[53, 61]),
   midi.NoteOnEvent(tick=120, channel=0, data=[53, 0]),
   midi.NoteOnEvent(tick=0, channel=0, data=[51, 54]),
   midi.NoteOnEvent(tick=120, channel=0, data=[51, 0]),
   midi.NoteOnEvent(tick=0, channel=0, data=[50, 56]),
   midi.NoteOnEvent(tick=120, channel=0, data=[50, 0]),
   midi.NoteOnEvent(tick=0, channel=0, data=[48, 54]),
   midi.NoteOnEvent(tick=120, channel=0, data=[48, 0]),
   midi.NoteOnEvent(tick=0, channel=0, data=[46, 56]),
   midi.NoteOnEvent(tick=120, channel=0, data=[46, 0]),
   midi.NoteOnEvent(tick=0, channel=0, data=[48, 54]),
   midi.NoteOnEvent(tick=120, channel=0, data=[48, 0]),
   midi.NoteOnEvent(tick=0, channel=0, data=[44, 56]),
   midi.NoteOnEvent(tick=120, channel=0, data=[44, 0]),
   midi.NoteOnEvent(tick=0, channel=0, data=[46, 52]),
   midi.NoteOnEvent(tick=120, channel=0, data=[46, 0]),
   midi.NoteOnEvent(tick=0, channel=0, data=[43, 61]),
   midi.NoteOnEvent(tick=120, channel=0, data=[43, 0]),
   midi.NoteOnEvent(tick=0, channel=0, data=[46, 47]),
   midi.NoteOnEvent(tick=120, channel=0, data=[46, 0]),
   midi.NoteOnEvent(tick=0, channel=0, data=[51, 52]),
   midi.NoteOnEvent(tick=120, channel=0, data=[51, 0]),
   midi.NoteOnEvent(tick=0, channel=0, data=[46, 47]),
   midi.NoteOnEvent(tick=120, channel=0, data=[46, 0]),
   midi.NoteOnEvent(tick=0, channel=0, data=[55, 52]),
   midi.NoteOnEvent(tick=120, channel=0, data=[55, 0]),
   midi.NoteOnEvent(tick=120, channel=0, data=[51, 43]),
   midi.NoteOnEvent(tick=0, channel=0, data=[55, 43]),
   midi.NoteOnEvent(tick=240, channel=0, data=[55, 0]),
   midi.NoteOnEvent(tick=0, channel=0, data=[51, 0]),
   midi.NoteOnEvent(tick=0, channel=0, data=[53, 43]),
   midi.NoteOnEvent(tick=0, channel=0, data=[56, 43]),
   midi.NoteOnEvent(tick=240, channel=0, data=[56, 0]),
   midi.NoteOnEvent(tick=0, channel=0, data=[53, 0]),
   midi.NoteOnEvent(tick=0, channel=0, data=[55, 43]),
   midi.NoteOnEvent(tick=0, channel=0, data=[58, 43]),
   midi.NoteOnEvent(tick=240, channel=0, data=[58, 0]),
   midi.NoteOnEvent(tick=0, channel=0, data=[55, 0]),
   midi.NoteOnEvent(tick=0, channel=0, data=[56, 46]),
   midi.NoteOnEvent(tick=0, channel=0, data=[60, 46]),
   midi.NoteOnEvent(tick=480, channel=0, data=[60, 0]),
   midi.NoteOnEvent(tick=0, channel=0, data=[56, 0]),
   midi.NoteOnEvent(tick=240, channel=0, data=[44, 36]),
   midi.NoteOnEvent(tick=0, channel=0, data=[53, 36]),
   midi.NoteOnEvent(tick=240, channel=0, data=[53, 0]),
   midi.NoteOnEvent(tick=0, channel=0, data=[44, 0]),
   midi.NoteOnEvent(tick=0, channel=0, data=[46, 43]),
   midi.NoteOnEvent(tick=0, channel=0, data=[55, 43]),
   midi.NoteOnEvent(tick=240, channel=0, data=[55, 0]),
   midi.NoteOnEvent(tick=0, channel=0, data=[56, 36]),
   midi.NoteOnEvent(tick=230, channel=0, data=[56, 0]),
   midi.NoteOnEvent(tick=10, channel=0, data=[46, 0]),
   midi.NoteOnEvent(tick=0, channel=0, data=[51, 45]),
   midi.NoteOnEvent(tick=0, channel=0, data=[56, 45]),
   midi.NoteOnEvent(tick=480, channel=0, data=[56, 0]),
   midi.NoteOnEvent(tick=0, channel=0, data=[55, 35]),
   midi.NoteOnEvent(tick=120, channel=0, data=[55, 0]),
   midi.NoteOnEvent(tick=0, channel=0, data=[51, 0]),
   midi.NoteOnEvent(tick=0, channel=0, data=[63, 52]),
   midi.NoteOnEvent(tick=120, channel=0, data=[63, 0]),
   midi.NoteOnEvent(tick=0, channel=0, data=[67, 54]),
   midi.NoteOnEvent(tick=120, channel=0, data=[67, 0]),
   midi.NoteOnEvent(tick=0, channel=0, data=[70, 51]),
   midi.NoteOnEvent(tick=120, channel=0, data=[70, 0]),
   midi.NoteOnEvent(tick=0, channel=0, data=[68, 57]),
   midi.NoteOnEvent(tick=120, channel=0, data=[68, 0]),
   midi.NoteOnEvent(tick=0, channel=0, data=[67, 52]),
   midi.NoteOnEvent(tick=120, channel=0, data=[67, 0]),
   midi.NoteOnEvent(tick=0, channel=0, data=[65, 54]),
   midi.NoteOnEvent(tick=120, channel=0, data=[65, 0]),
   midi.NoteOnEvent(tick=0, channel=0, data=[63, 53]),
   midi.NoteOnEvent(tick=120, channel=0, data=[63, 0]),
   midi.NoteOnEvent(tick=0, channel=0, data=[62, 63]),
   midi.NoteOnEvent(tick=120, channel=0, data=[62, 0]),
   midi.NoteOnEvent(tick=0, channel=0, data=[65, 54]),
   midi.NoteOnEvent(tick=120, channel=0, data=[65, 0]),
   midi.NoteOnEvent(tick=0, channel=0, data=[68, 56]),
   midi.NoteOnEvent(tick=120, channel=0, data=[68, 0]),
   midi.NoteOnEvent(tick=0, channel=0, data=[67, 54]),
   midi.NoteOnEvent(tick=120, channel=0, data=[67, 0]),
   midi.NoteOnEvent(tick=0, channel=0, data=[65, 61]),
   midi.NoteOnEvent(tick=120, channel=0, data=[65, 0]),
   midi.NoteOnEvent(tick=0, channel=0, data=[63, 54]),
   midi.NoteOnEvent(tick=120, channel=0, data=[63, 0]),
   midi.NoteOnEvent(tick=0, channel=0, data=[62, 56]),
   midi.NoteOnEvent(tick=120, channel=0, data=[62, 0]),
   midi.NoteOnEvent(tick=0, channel=0, data=[60, 54]),
   midi.NoteOnEvent(tick=120, channel=0, data=[60, 0]),
   midi.NoteOnEvent(tick=0, channel=0, data=[58, 56]),
   midi.NoteOnEvent(tick=120, channel=0, data=[58, 0]),
   midi.NoteOnEvent(tick=0, channel=0, data=[60, 54]),
   midi.NoteOnEvent(tick=120, channel=0, data=[60, 0]),
   midi.NoteOnEvent(tick=0, channel=0, data=[56, 56]),
   midi.NoteOnEvent(tick=120, channel=0, data=[56, 0]),
   midi.NoteOnEvent(tick=0, channel=0, data=[58, 53]),
   midi.NoteOnEvent(tick=120, channel=0, data=[58, 0]),
   midi.NoteOnEvent(tick=0, channel=0, data=[55, 61]),
   midi.NoteOnEvent(tick=120, channel=0, data=[55, 0]),
   midi.NoteOnEvent(tick=0, channel=0, data=[58, 45]),
   midi.NoteOnEvent(tick=120, channel=0, data=[58, 0]),
   midi.NoteOnEvent(tick=0, channel=0, data=[60, 49]),
   midi.NoteOnEvent(tick=120, channel=0, data=[60, 0]),
   midi.NoteOnEvent(tick=0, channel=0, data=[62, 45]),
   midi.NoteOnEvent(tick=120, channel=0, data=[62, 0]),
   midi.NoteOnEvent(tick=0, channel=0, data=[63, 46]),
   midi.NoteOnEvent(tick=120, channel=0, data=[63, 0]),
   midi.NoteOnEvent(tick=120, channel=0, data=[63, 43]),
   midi.NoteOnEvent(tick=0, channel=0, data=[67, 43]),
   midi.NoteOnEvent(tick=240, channel=0, data=[67, 0]),
   midi.NoteOnEvent(tick=0, channel=0, data=[63, 0]),
   midi.NoteOnEvent(tick=0, channel=0, data=[65, 43]),
   midi.NoteOnEvent(tick=0, channel=0, data=[68, 43]),
   midi.NoteOnEvent(tick=240, channel=0, data=[68, 0]),
   midi.NoteOnEvent(tick=0, channel=0, data=[65, 0]),
   midi.NoteOnEvent(tick=0, channel=0, data=[67, 36]),
   midi.NoteOnEvent(tick=0, channel=0, data=[70, 36]),
   midi.NoteOnEvent(tick=240, channel=0, data=[70, 0]),
   midi.NoteOnEvent(tick=0, channel=0, data=[67, 0]),
   midi.NoteOnEvent(tick=0, channel=0, data=[68, 43]),
   midi.NoteOnEvent(tick=0, channel=0, data=[72, 43]),
   midi.NoteOnEvent(tick=240, channel=0, data=[72, 0]),
   midi.NoteOnEvent(tick=0, channel=0, data=[68, 0]),
   midi.NoteOnEvent(tick=720, channel=0, data=[62, 43]),
   midi.NoteOnEvent(tick=0, channel=0, data=[58, 43]),
   midi.NoteOnEvent(tick=0, channel=0, data=[68, 43]),
   midi.NoteOnEvent(tick=240, channel=0, data=[62, 0]),
   midi.NoteOnEvent(tick=0, channel=0, data=[65, 43]),
   midi.NoteOnEvent(tick=240, channel=0, data=[65, 0]),
   midi.NoteOnEvent(tick=0, channel=0, data=[68, 0]),
   midi.NoteOnEvent(tick=0, channel=0, data=[58, 0]),
   midi.NoteOnEvent(tick=0, channel=0, data=[63, 43]),
   midi.NoteOnEvent(tick=120, channel=0, data=[63, 0]),
   midi.NoteOnEvent(tick=0, channel=0, data=[67, 39]),
   midi.NoteOnEvent(tick=120, channel=0, data=[67, 0]),
   midi.NoteOnEvent(tick=0, channel=0, data=[70, 40]),
   midi.NoteOnEvent(tick=120, channel=0, data=[70, 0]),
   midi.NoteOnEvent(tick=0, channel=0, data=[67, 42]),
   midi.NoteOnEvent(tick=120, channel=0, data=[67, 0]),
   midi.NoteOnEvent(tick=0, channel=0, data=[63, 46]),
   midi.NoteOnEvent(tick=120, channel=0, data=[63, 0]),
   midi.NoteOnEvent(tick=0, channel=0, data=[67, 44]),
   midi.NoteOnEvent(tick=120, channel=0, data=[67, 0]),
   midi.NoteOnEvent(tick=0, channel=0, data=[70, 49]),
   midi.NoteOnEvent(tick=120, channel=0, data=[70, 0]),
   midi.NoteOnEvent(tick=0, channel=0, data=[67, 50]),
   midi.NoteOnEvent(tick=120, channel=0, data=[67, 0]),
   midi.NoteOnEvent(tick=0, channel=0, data=[68, 58]),
   midi.NoteOnEvent(tick=120, channel=0, data=[68, 0]),
   midi.NoteOnEvent(tick=0, channel=0, data=[65, 55]),
   midi.NoteOnEvent(tick=120, channel=0, data=[65, 0]),
   midi.NoteOnEvent(tick=0, channel=0, data=[70, 56]),
   midi.NoteOnEvent(tick=120, channel=0, data=[70, 0]),
   midi.NoteOnEvent(tick=0, channel=0, data=[68, 58]),
   midi.NoteOnEvent(tick=120, channel=0, data=[68, 0]),
   midi.NoteOnEvent(tick=0, channel=0, data=[67, 62]),
   midi.NoteOnEvent(tick=120, channel=0, data=[67, 0]),
   midi.NoteOnEvent(tick=0, channel=0, data=[70, 56]),
   midi.NoteOnEvent(tick=120, channel=0, data=[70, 0]),
   midi.NoteOnEvent(tick=0, channel=0, data=[67, 53]),
   midi.NoteOnEvent(tick=120, channel=0, data=[67, 0]),
   midi.NoteOnEvent(tick=0, channel=0, data=[65, 55]),
   midi.NoteOnEvent(tick=120, channel=0, data=[65, 0]),
   midi.NoteOnEvent(tick=0, channel=0, data=[63, 70]),
   midi.NoteOnEvent(tick=120, channel=0, data=[63, 0]),
   midi.NoteOnEvent(tick=0, channel=0, data=[61, 61]),
   midi.NoteOnEvent(tick=120, channel=0, data=[61, 0]),
   midi.NoteOnEvent(tick=0, channel=0, data=[58, 64]),
   midi.NoteOnEvent(tick=120, channel=0, data=[58, 0]),
   midi.NoteOnEvent(tick=0, channel=0, data=[55, 61]),
   midi.NoteOnEvent(tick=120, channel=0, data=[55, 0]),
   midi.NoteOnEvent(tick=0, channel=0, data=[56, 70]),
   midi.NoteOnEvent(tick=120, channel=0, data=[56, 0]),
   midi.NoteOnEvent(tick=0, channel=0, data=[53, 64]),
   midi.NoteOnEvent(tick=120, channel=0, data=[53, 0]),
   midi.NoteOnEvent(tick=0, channel=0, data=[58, 70]),
   midi.NoteOnEvent(tick=120, channel=0, data=[58, 0]),
   midi.NoteOnEvent(tick=0, channel=0, data=[46, 59]),
   midi.NoteOnEvent(tick=120, channel=0, data=[46, 0]),
   midi.NoteOnEvent(tick=0, channel=0, data=[51, 46]),
   midi.NoteOnEvent(tick=720, channel=0, data=[51, 0]),
   midi.NoteOnEvent(tick=480, channel=0, data=[46, 36]),
   midi.NoteOnEvent(tick=240, channel=0, data=[46, 0]),
   midi.NoteOnEvent(tick=0, channel=0, data=[39, 27]),
   midi.NoteOnEvent(tick=0, channel=0, data=[51, 31]),
   midi.NoteOnEvent(tick=1200, channel=0, data=[51, 0]),
   midi.NoteOnEvent(tick=0, channel=0, data=[39, 0]),
   midi.EndOfTrackEvent(tick=0, data=[])])])
midi.write_midifile("creationMidi.mid", pattern)