import midi
pattern=midi.Pattern(format=1, resolution=480, tracks=\
[midi.Track(\
[   midi.ControlChangeEvent(tick=0, channel=0, data=[7, 100]),
   midi.ControlChangeEvent(tick=0, channel=0, data=[10, 64]),
   midi.ControlChangeEvent(tick=960, channel=0, data=[91, 127]),
   midi.NoteOnEvent(tick=1, channel=0, data=[73, 22]),
   midi.NoteOnEvent(tick=3, channel=0, data=[80, 22]),
   midi.NoteOnEvent(tick=0, channel=0, data=[77, 22]),
   midi.NoteOnEvent(tick=45, channel=0, data=[73, 0]),
   midi.NoteOnEvent(tick=3, channel=0, data=[77, 0]),
   midi.NoteOnEvent(tick=0, channel=0, data=[80, 0]),
   midi.NoteOnEvent(tick=11, channel=0, data=[81, 27]),
   midi.NoteOnEvent(tick=38, channel=0, data=[81, 0]),
   midi.NoteOnEvent(tick=20, channel=0, data=[73, 22]),
   midi.NoteOnEvent(tick=1, channel=0, data=[77, 22]),
   midi.NoteOnEvent(tick=0, channel=0, data=[80, 22]),
   midi.NoteOnEvent(tick=44, channel=0, data=[73, 0]),
   midi.NoteOnEvent(tick=1, channel=0, data=[80, 0]),
   midi.NoteOnEvent(tick=0, channel=0, data=[77, 0]),
   midi.NoteOnEvent(tick=15, channel=0, data=[73, 22]),
   midi.NoteOnEvent(tick=1, channel=0, data=[77, 22]),
   midi.NoteOnEvent(tick=0, channel=0, data=[80, 22]),
   midi.NoteOnEvent(tick=47, channel=0, data=[73, 0]),
   midi.NoteOnEvent(tick=1, channel=0, data=[80, 0]),
   midi.NoteOnEvent(tick=0, channel=0, data=[77, 0]),
   midi.NoteOnEvent(tick=12, channel=0, data=[81, 27]),
   midi.NoteOnEvent(tick=38, channel=0, data=[81, 0]),
   midi.NoteOnEvent(tick=17, channel=0, data=[80, 22]),
   midi.NoteOnEvent(tick=2, channel=0, data=[77, 22]),
   midi.NoteOnEvent(tick=1, channel=0, data=[73, 22]),
   midi.NoteOnEvent(tick=42, channel=0, data=[80, 0]),
   midi.NoteOnEvent(tick=2, channel=0, data=[77, 0]),
   midi.NoteOnEvent(tick=1, channel=0, data=[73, 0]),
   midi.NoteOnEvent(tick=14, channel=0, data=[73, 22]),
   midi.NoteOnEvent(tick=0, channel=0, data=[80, 22]),
   midi.NoteOnEvent(tick=2, channel=0, data=[77, 22]),
   midi.NoteOnEvent(tick=46, channel=0, data=[80, 0]),
   midi.NoteOnEvent(tick=0, channel=0, data=[73, 0]),
   midi.NoteOnEvent(tick=2, channel=0, data=[77, 0]),
   midi.NoteOnEvent(tick=9, channel=0, data=[81, 25]),
   midi.NoteOnEvent(tick=38, channel=0, data=[81, 0]),
   midi.NoteOnEvent(tick=21, channel=0, data=[73, 22]),
   midi.NoteOnEvent(tick=3, channel=0, data=[77, 22]),
   midi.NoteOnEvent(tick=1, channel=0, data=[80, 22]),
   midi.NoteOnEvent(tick=44, channel=0, data=[73, 0]),
   midi.NoteOnEvent(tick=3, channel=0, data=[77, 0]),
   midi.NoteOnEvent(tick=1, channel=0, data=[80, 0]),
   midi.NoteOnEvent(tick=8, channel=0, data=[81, 27]),
   midi.NoteOnEvent(tick=38, channel=0, data=[81, 0]),
   midi.NoteOnEvent(tick=22, channel=0, data=[73, 22]),
   midi.NoteOnEvent(tick=2, channel=0, data=[77, 22]),
   midi.NoteOnEvent(tick=2, channel=0, data=[80, 22]),
   midi.NoteOnEvent(tick=41, channel=0, data=[73, 0]),
   midi.NoteOnEvent(tick=2, channel=0, data=[77, 0]),
   midi.NoteOnEvent(tick=2, channel=0, data=[80, 0]),
   midi.NoteOnEvent(tick=11, channel=0, data=[77, 22]),
   midi.NoteOnEvent(tick=0, channel=0, data=[80, 22]),
   midi.NoteOnEvent(tick=4, channel=0, data=[73, 22]),
   midi.NoteOnEvent(tick=44, channel=0, data=[80, 0]),
   midi.NoteOnEvent(tick=0, channel=0, data=[77, 0]),
   midi.NoteOnEvent(tick=4, channel=0, data=[73, 0]),
   midi.NoteOnEvent(tick=8, channel=0, data=[81, 25]),
   midi.NoteOnEvent(tick=38, channel=0, data=[81, 0]),
   midi.NoteOnEvent(tick=22, channel=0, data=[77, 18]),
   midi.NoteOnEvent(tick=2, channel=0, data=[73, 18]),
   midi.NoteOnEvent(tick=3, channel=0, data=[80, 18]),
   midi.NoteOnEvent(tick=40, channel=0, data=[77, 0]),
   midi.NoteOnEvent(tick=2, channel=0, data=[73, 0]),
   midi.NoteOnEvent(tick=3, channel=0, data=[80, 0]),
   midi.NoteOnEvent(tick=10, channel=0, data=[77, 18]),
   midi.NoteOnEvent(tick=3, channel=0, data=[73, 18]),
   midi.NoteOnEvent(tick=2, channel=0, data=[80, 18]),
   midi.NoteOnEvent(tick=43, channel=0, data=[77, 0]),
   midi.NoteOnEvent(tick=3, channel=0, data=[73, 0]),
   midi.NoteOnEvent(tick=2, channel=0, data=[80, 0]),
   midi.NoteOnEvent(tick=10, channel=0, data=[81, 25]),
   midi.NoteOnEvent(tick=38, channel=0, data=[81, 0]),
   midi.NoteOnEvent(tick=19, channel=0, data=[77, 22]),
   midi.NoteOnEvent(tick=1, channel=0, data=[80, 22]),
   midi.NoteOnEvent(tick=1, channel=0, data=[73, 22]),
   midi.NoteOnEvent(tick=46, channel=0, data=[77, 0]),
   midi.NoteOnEvent(tick=1, channel=0, data=[80, 0]),
   midi.NoteOnEvent(tick=1, channel=0, data=[73, 0]),
   midi.NoteOnEvent(tick=12, channel=0, data=[81, 25]),
   midi.NoteOnEvent(tick=38, channel=0, data=[81, 0]),
   midi.NoteOnEvent(tick=20, channel=0, data=[80, 22]),
   midi.NoteOnEvent(tick=3, channel=0, data=[73, 22]),
   midi.NoteOnEvent(tick=1, channel=0, data=[77, 22]),
   midi.NoteOnEvent(tick=41, channel=0, data=[80, 0]),
   midi.NoteOnEvent(tick=3, channel=0, data=[73, 0]),
   midi.NoteOnEvent(tick=1, channel=0, data=[77, 0]),
   midi.NoteOnEvent(tick=11, channel=0, data=[77, 22]),
   midi.NoteOnEvent(tick=3, channel=0, data=[80, 22]),
   midi.NoteOnEvent(tick=1, channel=0, data=[73, 22]),
   midi.NoteOnEvent(tick=44, channel=0, data=[77, 0]),
   midi.NoteOnEvent(tick=3, channel=0, data=[80, 0]),
   midi.NoteOnEvent(tick=1, channel=0, data=[73, 0]),
   midi.NoteOnEvent(tick=11, channel=0, data=[81, 25]),
   midi.NoteOnEvent(tick=38, channel=0, data=[81, 0]),
   midi.NoteOnEvent(tick=20, channel=0, data=[80, 22]),
   midi.NoteOnEvent(tick=1, channel=0, data=[77, 22]),
   midi.NoteOnEvent(tick=3, channel=0, data=[73, 22]),
   midi.NoteOnEvent(tick=41, channel=0, data=[80, 0]),
   midi.NoteOnEvent(tick=1, channel=0, data=[77, 0]),
   midi.NoteOnEvent(tick=3, channel=0, data=[73, 0]),
   midi.NoteOnEvent(tick=11, channel=0, data=[73, 22]),
   midi.NoteOnEvent(tick=1, channel=0, data=[80, 22]),
   midi.NoteOnEvent(tick=2, channel=0, data=[77, 22]),
   midi.NoteOnEvent(tick=45, channel=0, data=[73, 0]),
   midi.NoteOnEvent(tick=1, channel=0, data=[80, 0]),
   midi.NoteOnEvent(tick=2, channel=0, data=[77, 0]),
   midi.NoteOnEvent(tick=10, channel=0, data=[81, 25]),
   midi.NoteOnEvent(tick=48, channel=0, data=[81, 0]),
   midi.NoteOnEvent(tick=10, channel=0, data=[77, 22]),
   midi.NoteOnEvent(tick=3, channel=0, data=[73, 22]),
   midi.NoteOnEvent(tick=2, channel=0, data=[80, 22]),
   midi.NoteOnEvent(tick=43, channel=0, data=[77, 0]),
   midi.NoteOnEvent(tick=3, channel=0, data=[73, 0]),
   midi.NoteOnEvent(tick=2, channel=0, data=[80, 0]),
   midi.NoteOnEvent(tick=11, channel=0, data=[81, 25]),
   midi.NoteOnEvent(tick=38, channel=0, data=[81, 0]),
   midi.NoteOnEvent(tick=18, channel=0, data=[73, 18]),
   midi.NoteOnEvent(tick=2, channel=0, data=[77, 18]),
   midi.NoteOnEvent(tick=2, channel=0, data=[80, 18]),
   midi.NoteOnEvent(tick=41, channel=0, data=[73, 0]),
   midi.NoteOnEvent(tick=2, channel=0, data=[77, 0]),
   midi.NoteOnEvent(tick=2, channel=0, data=[80, 0]),
   midi.NoteOnEvent(tick=14, channel=0, data=[80, 18]),
   midi.NoteOnEvent(tick=1, channel=0, data=[77, 18]),
   midi.NoteOnEvent(tick=1, channel=0, data=[73, 18]),
   midi.NoteOnEvent(tick=46, channel=0, data=[80, 0]),
   midi.NoteOnEvent(tick=1, channel=0, data=[77, 0]),
   midi.NoteOnEvent(tick=1, channel=0, data=[73, 0]),
   midi.NoteOnEvent(tick=10, channel=0, data=[81, 23]),
   midi.NoteOnEvent(tick=38, channel=0, data=[81, 0]),
   midi.NoteOnEvent(tick=20, channel=0, data=[80, 18]),
   midi.NoteOnEvent(tick=3, channel=0, data=[77, 18]),
   midi.NoteOnEvent(tick=1, channel=0, data=[73, 18]),
   midi.NoteOnEvent(tick=41, channel=0, data=[80, 0]),
   midi.NoteOnEvent(tick=3, channel=0, data=[77, 0]),
   midi.NoteOnEvent(tick=1, channel=0, data=[73, 0]),
   midi.NoteOnEvent(tick=11, channel=0, data=[77, 18]),
   midi.NoteOnEvent(tick=2, channel=0, data=[73, 18]),
   midi.NoteOnEvent(tick=0, channel=0, data=[80, 18]),
   midi.NoteOnEvent(tick=46, channel=0, data=[77, 0]),
   midi.NoteOnEvent(tick=2, channel=0, data=[80, 0]),
   midi.NoteOnEvent(tick=0, channel=0, data=[73, 0]),
   midi.NoteOnEvent(tick=13, channel=0, data=[81, 22]),
   midi.NoteOnEvent(tick=38, channel=0, data=[81, 0]),
   midi.NoteOnEvent(tick=19, channel=0, data=[73, 20]),
   midi.NoteOnEvent(tick=1, channel=0, data=[80, 20]),
   midi.NoteOnEvent(tick=1, channel=0, data=[77, 20]),
   midi.NoteOnEvent(tick=46, channel=0, data=[73, 0]),
   midi.NoteOnEvent(tick=1, channel=0, data=[80, 0]),
   midi.NoteOnEvent(tick=1, channel=0, data=[77, 0]),
   midi.NoteOnEvent(tick=14, channel=0, data=[81, 23]),
   midi.NoteOnEvent(tick=38, channel=0, data=[81, 0]),
   midi.NoteOnEvent(tick=20, channel=0, data=[80, 18]),
   midi.NoteOnEvent(tick=1, channel=0, data=[73, 18]),
   midi.NoteOnEvent(tick=0, channel=0, data=[77, 18]),
   midi.NoteOnEvent(tick=44, channel=0, data=[80, 0]),
   midi.NoteOnEvent(tick=1, channel=0, data=[77, 0]),
   midi.NoteOnEvent(tick=0, channel=0, data=[73, 0]),
   midi.NoteOnEvent(tick=13, channel=0, data=[73, 18]),
   midi.NoteOnEvent(tick=2, channel=0, data=[77, 18]),
   midi.NoteOnEvent(tick=0, channel=0, data=[80, 18]),
   midi.NoteOnEvent(tick=46, channel=0, data=[73, 0]),
   midi.NoteOnEvent(tick=2, channel=0, data=[80, 0]),
   midi.NoteOnEvent(tick=0, channel=0, data=[77, 0]),
   midi.NoteOnEvent(tick=13, channel=0, data=[81, 23]),
   midi.NoteOnEvent(tick=38, channel=0, data=[81, 0]),
   midi.NoteOnEvent(tick=18, channel=0, data=[73, 18]),
   midi.NoteOnEvent(tick=2, channel=0, data=[77, 18]),
   midi.NoteOnEvent(tick=2, channel=0, data=[80, 18]),
   midi.NoteOnEvent(tick=41, channel=0, data=[73, 0]),
   midi.NoteOnEvent(tick=2, channel=0, data=[77, 0]),
   midi.NoteOnEvent(tick=2, channel=0, data=[80, 0]),
   midi.NoteOnEvent(tick=13, channel=0, data=[73, 18]),
   midi.NoteOnEvent(tick=0, channel=0, data=[80, 18]),
   midi.NoteOnEvent(tick=2, channel=0, data=[77, 18]),
   midi.NoteOnEvent(tick=46, channel=0, data=[80, 0]),
   midi.NoteOnEvent(tick=0, channel=0, data=[73, 0]),
   midi.NoteOnEvent(tick=2, channel=0, data=[77, 0]),
   midi.NoteOnEvent(tick=9, channel=0, data=[81, 22]),
   midi.NoteOnEvent(tick=38, channel=0, data=[81, 0]),
   midi.NoteOnEvent(tick=22, channel=0, data=[73, 18]),
   midi.NoteOnEvent(tick=3, channel=0, data=[77, 18]),
   midi.NoteOnEvent(tick=0, channel=0, data=[80, 18]),
   midi.NoteOnEvent(tick=45, channel=0, data=[73, 0]),
   midi.NoteOnEvent(tick=3, channel=0, data=[80, 0]),
   midi.NoteOnEvent(tick=0, channel=0, data=[77, 0]),
   midi.NoteOnEvent(tick=8, channel=0, data=[81, 23]),
   midi.NoteOnEvent(tick=38, channel=0, data=[81, 0]),
   midi.NoteOnEvent(tick=22, channel=0, data=[73, 18]),
   midi.NoteOnEvent(tick=0, channel=0, data=[77, 18]),
   midi.NoteOnEvent(tick=3, channel=0, data=[80, 18]),
   midi.NoteOnEvent(tick=42, channel=0, data=[77, 0]),
   midi.NoteOnEvent(tick=0, channel=0, data=[73, 0]),
   midi.NoteOnEvent(tick=3, channel=0, data=[80, 0]),
   midi.NoteOnEvent(tick=11, channel=0, data=[80, 18]),
   midi.NoteOnEvent(tick=3, channel=0, data=[77, 18]),
   midi.NoteOnEvent(tick=2, channel=0, data=[73, 18]),
   midi.NoteOnEvent(tick=43, channel=0, data=[80, 0]),
   midi.NoteOnEvent(tick=3, channel=0, data=[77, 0]),
   midi.NoteOnEvent(tick=2, channel=0, data=[73, 0]),
   midi.NoteOnEvent(tick=10, channel=0, data=[81, 23]),
   midi.NoteOnEvent(tick=38, channel=0, data=[81, 0]),
   midi.NoteOnEvent(tick=19, channel=0, data=[73, 18]),
   midi.NoteOnEvent(tick=3, channel=0, data=[77, 18]),
   midi.NoteOnEvent(tick=0, channel=0, data=[80, 18]),
   midi.NoteOnEvent(tick=42, channel=0, data=[73, 0]),
   midi.NoteOnEvent(tick=3, channel=0, data=[80, 0]),
   midi.NoteOnEvent(tick=0, channel=0, data=[77, 0]),
   midi.NoteOnEvent(tick=12, channel=0, data=[77, 18]),
   midi.NoteOnEvent(tick=2, channel=0, data=[73, 18]),
   midi.NoteOnEvent(tick=3, channel=0, data=[80, 18]),
   midi.NoteOnEvent(tick=43, channel=0, data=[77, 0]),
   midi.NoteOnEvent(tick=2, channel=0, data=[73, 0]),
   midi.NoteOnEvent(tick=3, channel=0, data=[80, 0]),
   midi.NoteOnEvent(tick=7, channel=0, data=[81, 23]),
   midi.NoteOnEvent(tick=38, channel=0, data=[81, 0]),
   midi.NoteOnEvent(tick=22, channel=0, data=[77, 22]),
   midi.NoteOnEvent(tick=1, channel=0, data=[80, 22]),
   midi.NoteOnEvent(tick=2, channel=0, data=[73, 22]),
   midi.NoteOnEvent(tick=45, channel=0, data=[77, 0]),
   midi.NoteOnEvent(tick=1, channel=0, data=[80, 0]),
   midi.NoteOnEvent(tick=2, channel=0, data=[73, 0]),
   midi.NoteOnEvent(tick=12, channel=0, data=[81, 25]),
   midi.NoteOnEvent(tick=38, channel=0, data=[81, 0]),
   midi.NoteOnEvent(tick=20, channel=0, data=[73, 22]),
   midi.NoteOnEvent(tick=0, channel=0, data=[77, 22]),
   midi.NoteOnEvent(tick=2, channel=0, data=[80, 22]),
   midi.NoteOnEvent(tick=43, channel=0, data=[77, 0]),
   midi.NoteOnEvent(tick=0, channel=0, data=[73, 0]),
   midi.NoteOnEvent(tick=2, channel=0, data=[80, 0]),
   midi.NoteOnEvent(tick=13, channel=0, data=[80, 22]),
   midi.NoteOnEvent(tick=1, channel=0, data=[73, 22]),
   midi.NoteOnEvent(tick=0, channel=0, data=[77, 22]),
   midi.NoteOnEvent(tick=47, channel=0, data=[80, 0]),
   midi.NoteOnEvent(tick=1, channel=0, data=[77, 0]),
   midi.NoteOnEvent(tick=0, channel=0, data=[73, 0]),
   midi.NoteOnEvent(tick=14, channel=0, data=[81, 23]),
   midi.NoteOnEvent(tick=38, channel=0, data=[81, 0]),
   midi.NoteOnEvent(tick=18, channel=0, data=[73, 18]),
   midi.NoteOnEvent(tick=2, channel=0, data=[77, 18]),
   midi.NoteOnEvent(tick=1, channel=0, data=[80, 18]),
   midi.NoteOnEvent(tick=42, channel=0, data=[73, 0]),
   midi.NoteOnEvent(tick=2, channel=0, data=[77, 0]),
   midi.NoteOnEvent(tick=1, channel=0, data=[80, 0]),
   midi.NoteOnEvent(tick=12, channel=0, data=[80, 18]),
   midi.NoteOnEvent(tick=2, channel=0, data=[77, 18]),
   midi.NoteOnEvent(tick=2, channel=0, data=[73, 18]),
   midi.NoteOnEvent(tick=44, channel=0, data=[80, 0]),
   midi.NoteOnEvent(tick=2, channel=0, data=[77, 0]),
   midi.NoteOnEvent(tick=2, channel=0, data=[73, 0]),
   midi.NoteOnEvent(tick=10, channel=0, data=[81, 23]),
   midi.NoteOnEvent(tick=38, channel=0, data=[81, 0]),
   midi.NoteOnEvent(tick=20, channel=0, data=[77, 18]),
   midi.NoteOnEvent(tick=2, channel=0, data=[73, 18]),
   midi.NoteOnEvent(tick=2, channel=0, data=[80, 18]),
   midi.NoteOnEvent(tick=44, channel=0, data=[77, 0]),
   midi.NoteOnEvent(tick=2, channel=0, data=[73, 0]),
   midi.NoteOnEvent(tick=2, channel=0, data=[80, 0]),
   midi.NoteOnEvent(tick=12, channel=0, data=[81, 23]),
   midi.NoteOnEvent(tick=38, channel=0, data=[81, 0]),
   midi.NoteOnEvent(tick=21, channel=0, data=[77, 18]),
   midi.NoteOnEvent(tick=0, channel=0, data=[80, 18]),
   midi.NoteOnEvent(tick=2, channel=0, data=[73, 18]),
   midi.NoteOnEvent(tick=43, channel=0, data=[80, 0]),
   midi.NoteOnEvent(tick=0, channel=0, data=[77, 0]),
   midi.NoteOnEvent(tick=2, channel=0, data=[73, 0]),
   midi.NoteOnEvent(tick=13, channel=0, data=[73, 18]),
   midi.NoteOnEvent(tick=1, channel=0, data=[77, 18]),
   midi.NoteOnEvent(tick=0, channel=0, data=[80, 18]),
   midi.NoteOnEvent(tick=47, channel=0, data=[73, 0]),
   midi.NoteOnEvent(tick=1, channel=0, data=[80, 0]),
   midi.NoteOnEvent(tick=0, channel=0, data=[77, 0]),
   midi.NoteOnEvent(tick=13, channel=0, data=[81, 22]),
   midi.NoteOnEvent(tick=38, channel=0, data=[81, 0]),
   midi.NoteOnEvent(tick=17, channel=0, data=[80, 17]),
   midi.NoteOnEvent(tick=2, channel=0, data=[73, 17]),
   midi.NoteOnEvent(tick=0, channel=0, data=[77, 17]),
   midi.NoteOnEvent(tick=43, channel=0, data=[80, 0]),
   midi.NoteOnEvent(tick=2, channel=0, data=[77, 0]),
   midi.NoteOnEvent(tick=0, channel=0, data=[73, 0]),
   midi.NoteOnEvent(tick=15, channel=0, data=[80, 17]),
   midi.NoteOnEvent(tick=2, channel=0, data=[77, 17]),
   midi.NoteOnEvent(tick=1, channel=0, data=[73, 17]),
   midi.NoteOnEvent(tick=45, channel=0, data=[80, 0]),
   midi.NoteOnEvent(tick=2, channel=0, data=[77, 0]),
   midi.NoteOnEvent(tick=1, channel=0, data=[73, 0]),
   midi.NoteOnEvent(tick=7, channel=0, data=[81, 22]),
   midi.NoteOnEvent(tick=38, channel=0, data=[81, 0]),
   midi.NoteOnEvent(tick=22, channel=0, data=[80, 18]),
   midi.NoteOnEvent(tick=4, channel=0, data=[77, 18]),
   midi.NoteOnEvent(tick=1, channel=0, data=[73, 18]),
   midi.NoteOnEvent(tick=43, channel=0, data=[80, 0]),
   midi.NoteOnEvent(tick=4, channel=0, data=[77, 0]),
   midi.NoteOnEvent(tick=1, channel=0, data=[73, 0]),
   midi.NoteOnEvent(tick=9, channel=0, data=[81, 23]),
   midi.NoteOnEvent(tick=38, channel=0, data=[81, 0]),
   midi.NoteOnEvent(tick=20, channel=0, data=[77, 18]),
   midi.NoteOnEvent(tick=0, channel=0, data=[80, 18]),
   midi.NoteOnEvent(tick=5, channel=0, data=[73, 18]),
   midi.NoteOnEvent(tick=40, channel=0, data=[80, 0]),
   midi.NoteOnEvent(tick=0, channel=0, data=[77, 0]),
   midi.NoteOnEvent(tick=5, channel=0, data=[73, 0]),
   midi.NoteOnEvent(tick=10, channel=0, data=[77, 18]),
   midi.NoteOnEvent(tick=1, channel=0, data=[73, 18]),
   midi.NoteOnEvent(tick=2, channel=0, data=[80, 18]),
   midi.NoteOnEvent(tick=45, channel=0, data=[77, 0]),
   midi.NoteOnEvent(tick=1, channel=0, data=[73, 0]),
   midi.NoteOnEvent(tick=2, channel=0, data=[80, 0]),
   midi.NoteOnEvent(tick=9, channel=0, data=[81, 23]),
   midi.NoteOnEvent(tick=38, channel=0, data=[81, 0]),
   midi.NoteOnEvent(tick=25, channel=0, data=[73, 18]),
   midi.NoteOnEvent(tick=0, channel=0, data=[77, 18]),
   midi.NoteOnEvent(tick=1, channel=0, data=[80, 18]),
   midi.NoteOnEvent(tick=44, channel=0, data=[77, 0]),
   midi.NoteOnEvent(tick=0, channel=0, data=[73, 0]),
   midi.NoteOnEvent(tick=1, channel=0, data=[80, 0]),
   midi.NoteOnEvent(tick=15, channel=0, data=[73, 18]),
   midi.NoteOnEvent(tick=0, channel=0, data=[80, 18]),
   midi.NoteOnEvent(tick=1, channel=0, data=[77, 18]),
   midi.NoteOnEvent(tick=47, channel=0, data=[80, 0]),
   midi.NoteOnEvent(tick=0, channel=0, data=[73, 0]),
   midi.NoteOnEvent(tick=1, channel=0, data=[77, 0]),
   midi.NoteOnEvent(tick=8, channel=0, data=[81, 23]),
   midi.NoteOnEvent(tick=38, channel=0, data=[81, 0]),
   midi.NoteOnEvent(tick=23, channel=0, data=[73, 17]),
   midi.NoteOnEvent(tick=0, channel=0, data=[80, 17]),
   midi.NoteOnEvent(tick=2, channel=0, data=[77, 17]),
   midi.NoteOnEvent(tick=46, channel=0, data=[80, 0]),
   midi.NoteOnEvent(tick=0, channel=0, data=[73, 0]),
   midi.NoteOnEvent(tick=2, channel=0, data=[77, 0]),
   midi.NoteOnEvent(tick=13, channel=0, data=[81, 22]),
   midi.NoteOnEvent(tick=38, channel=0, data=[81, 0]),
   midi.NoteOnEvent(tick=18, channel=0, data=[80, 17]),
   midi.NoteOnEvent(tick=3, channel=0, data=[77, 17]),
   midi.NoteOnEvent(tick=42, channel=0, data=[80, 0]),
   midi.NoteOnEvent(tick=3, channel=0, data=[77, 0]),
   midi.NoteOnEvent(tick=12, channel=0, data=[77, 18]),
   midi.NoteOnEvent(tick=1, channel=0, data=[80, 18]),
   midi.NoteOnEvent(tick=47, channel=0, data=[77, 0]),
   midi.NoteOnEvent(tick=1, channel=0, data=[80, 0]),
   midi.NoteOnEvent(tick=11, channel=0, data=[81, 23]),
   midi.NoteOnEvent(tick=38, channel=0, data=[81, 0]),
   midi.NoteOnEvent(tick=22, channel=0, data=[80, 18]),
   midi.NoteOnEvent(tick=2, channel=0, data=[77, 18]),
   midi.NoteOnEvent(tick=43, channel=0, data=[80, 0]),
   midi.NoteOnEvent(tick=2, channel=0, data=[77, 0]),
   midi.NoteOnEvent(tick=13, channel=0, data=[80, 18]),
   midi.NoteOnEvent(tick=4, channel=0, data=[77, 18]),
   midi.NoteOnEvent(tick=44, channel=0, data=[80, 0]),
   midi.NoteOnEvent(tick=4, channel=0, data=[77, 0]),
   midi.NoteOnEvent(tick=9, channel=0, data=[81, 23]),
   midi.NoteOnEvent(tick=38, channel=0, data=[81, 0]),
   midi.NoteOnEvent(tick=20, channel=0, data=[77, 18]),
   midi.NoteOnEvent(tick=1, channel=0, data=[73, 18]),
   midi.NoteOnEvent(tick=0, channel=0, data=[80, 18]),
   midi.NoteOnEvent(tick=47, channel=0, data=[77, 0]),
   midi.NoteOnEvent(tick=1, channel=0, data=[80, 0]),
   midi.NoteOnEvent(tick=0, channel=0, data=[73, 0]),
   midi.NoteOnEvent(tick=11, channel=0, data=[81, 23]),
   midi.NoteOnEvent(tick=38, channel=0, data=[81, 0]),
   midi.NoteOnEvent(tick=26, channel=0, data=[73, 18]),
   midi.NoteOnEvent(tick=0, channel=0, data=[77, 18]),
   midi.NoteOnEvent(tick=1, channel=0, data=[80, 18]),
   midi.NoteOnEvent(tick=44, channel=0, data=[77, 0]),
   midi.NoteOnEvent(tick=0, channel=0, data=[73, 0]),
   midi.NoteOnEvent(tick=1, channel=0, data=[80, 0]),
   midi.NoteOnEvent(tick=10, channel=0, data=[73, 18]),
   midi.NoteOnEvent(tick=2, channel=0, data=[77, 18]),
   midi.NoteOnEvent(tick=0, channel=0, data=[80, 18]),
   midi.NoteOnEvent(tick=46, channel=0, data=[73, 0]),
   midi.NoteOnEvent(tick=2, channel=0, data=[80, 0]),
   midi.NoteOnEvent(tick=0, channel=0, data=[77, 0]),
   midi.NoteOnEvent(tick=14, channel=0, data=[81, 23]),
   midi.NoteOnEvent(tick=38, channel=0, data=[81, 0]),
   midi.NoteOnEvent(tick=20, channel=0, data=[73, 18]),
   midi.NoteOnEvent(tick=0, channel=0, data=[77, 18]),
   midi.NoteOnEvent(tick=2, channel=0, data=[80, 18]),
   midi.NoteOnEvent(tick=43, channel=0, data=[77, 0]),
   midi.NoteOnEvent(tick=0, channel=0, data=[73, 0]),
   midi.NoteOnEvent(tick=2, channel=0, data=[80, 0]),
   midi.NoteOnEvent(tick=11, channel=0, data=[80, 18]),
   midi.NoteOnEvent(tick=1, channel=0, data=[73, 18]),
   midi.NoteOnEvent(tick=2, channel=0, data=[77, 18]),
   midi.NoteOnEvent(tick=45, channel=0, data=[80, 0]),
   midi.NoteOnEvent(tick=1, channel=0, data=[73, 0]),
   midi.NoteOnEvent(tick=2, channel=0, data=[77, 0]),
   midi.NoteOnEvent(tick=14, channel=0, data=[81, 23]),
   midi.NoteOnEvent(tick=38, channel=0, data=[81, 0]),
   midi.NoteOnEvent(tick=17, channel=0, data=[80, 18]),
   midi.NoteOnEvent(tick=5, channel=0, data=[73, 18]),
   midi.NoteOnEvent(tick=0, channel=0, data=[77, 18]),
   midi.NoteOnEvent(tick=43, channel=0, data=[80, 0]),
   midi.NoteOnEvent(tick=5, channel=0, data=[77, 0]),
   midi.NoteOnEvent(tick=0, channel=0, data=[73, 0]),
   midi.NoteOnEvent(tick=9, channel=0, data=[81, 23]),
   midi.NoteOnEvent(tick=38, channel=0, data=[81, 0]),
   midi.NoteOnEvent(tick=23, channel=0, data=[73, 18]),
   midi.NoteOnEvent(tick=1, channel=0, data=[77, 18]),
   midi.NoteOnEvent(tick=0, channel=0, data=[80, 18]),
   midi.NoteOnEvent(tick=44, channel=0, data=[73, 0]),
   midi.NoteOnEvent(tick=1, channel=0, data=[80, 0]),
   midi.NoteOnEvent(tick=0, channel=0, data=[77, 0]),
   midi.NoteOnEvent(tick=12, channel=0, data=[73, 18]),
   midi.NoteOnEvent(tick=3, channel=0, data=[80, 18]),
   midi.NoteOnEvent(tick=1, channel=0, data=[77, 18]),
   midi.NoteOnEvent(tick=44, channel=0, data=[73, 0]),
   midi.NoteOnEvent(tick=3, channel=0, data=[80, 0]),
   midi.NoteOnEvent(tick=1, channel=0, data=[77, 0]),
   midi.NoteOnEvent(tick=8, channel=0, data=[81, 23]),
   midi.NoteOnEvent(tick=38, channel=0, data=[81, 0]),
   midi.NoteOnEvent(tick=21, channel=0, data=[77, 17]),
   midi.NoteOnEvent(tick=3, channel=0, data=[73, 17]),
   midi.NoteOnEvent(tick=0, channel=0, data=[80, 17]),
   midi.NoteOnEvent(tick=42, channel=0, data=[77, 0]),
   midi.NoteOnEvent(tick=3, channel=0, data=[80, 0]),
   midi.NoteOnEvent(tick=0, channel=0, data=[73, 0]),
   midi.NoteOnEvent(tick=12, channel=0, data=[80, 17]),
   midi.NoteOnEvent(tick=4, channel=0, data=[73, 17]),
   midi.NoteOnEvent(tick=0, channel=0, data=[77, 17]),
   midi.NoteOnEvent(tick=44, channel=0, data=[80, 0]),
   midi.NoteOnEvent(tick=4, channel=0, data=[77, 0]),
   midi.NoteOnEvent(tick=0, channel=0, data=[73, 0]),
   midi.NoteOnEvent(tick=12, channel=0, data=[81, 22]),
   midi.NoteOnEvent(tick=48, channel=0, data=[81, 0]),
   midi.NoteOnEvent(tick=11, channel=0, data=[73, 16]),
   midi.NoteOnEvent(tick=2, channel=0, data=[77, 16]),
   midi.NoteOnEvent(tick=0, channel=0, data=[80, 16]),
   midi.NoteOnEvent(tick=46, channel=0, data=[73, 0]),
   midi.NoteOnEvent(tick=2, channel=0, data=[80, 0]),
   midi.NoteOnEvent(tick=0, channel=0, data=[77, 0]),
   midi.NoteOnEvent(tick=11, channel=0, data=[81, 22]),
   midi.NoteOnEvent(tick=38, channel=0, data=[81, 0]),
   midi.NoteOnEvent(tick=19, channel=0, data=[73, 16]),
   midi.NoteOnEvent(tick=1, channel=0, data=[77, 16]),
   midi.NoteOnEvent(tick=0, channel=0, data=[80, 16]),
   midi.NoteOnEvent(tick=44, channel=0, data=[73, 0]),
   midi.NoteOnEvent(tick=1, channel=0, data=[80, 0]),
   midi.NoteOnEvent(tick=0, channel=0, data=[77, 0]),
   midi.NoteOnEvent(tick=13, channel=0, data=[73, 16]),
   midi.NoteOnEvent(tick=0, channel=0, data=[80, 16]),
   midi.NoteOnEvent(tick=3, channel=0, data=[77, 16]),
   midi.NoteOnEvent(tick=45, channel=0, data=[80, 0]),
   midi.NoteOnEvent(tick=0, channel=0, data=[73, 0]),
   midi.NoteOnEvent(tick=3, channel=0, data=[77, 0]),
   midi.NoteOnEvent(tick=13, channel=0, data=[81, 22]),
   midi.NoteOnEvent(tick=38, channel=0, data=[81, 0]),
   midi.NoteOnEvent(tick=18, channel=0, data=[80, 17]),
   midi.NoteOnEvent(tick=1, channel=0, data=[77, 17]),
   midi.NoteOnEvent(tick=3, channel=0, data=[73, 17]),
   midi.NoteOnEvent(tick=41, channel=0, data=[80, 0]),
   midi.NoteOnEvent(tick=1, channel=0, data=[77, 0]),
   midi.NoteOnEvent(tick=3, channel=0, data=[73, 0]),
   midi.NoteOnEvent(tick=11, channel=0, data=[73, 17]),
   midi.NoteOnEvent(tick=0, channel=0, data=[80, 17]),
   midi.NoteOnEvent(tick=4, channel=0, data=[77, 17]),
   midi.NoteOnEvent(tick=44, channel=0, data=[80, 0]),
   midi.NoteOnEvent(tick=0, channel=0, data=[73, 0]),
   midi.NoteOnEvent(tick=4, channel=0, data=[77, 0]),
   midi.NoteOnEvent(tick=10, channel=0, data=[81, 23]),
   midi.NoteOnEvent(tick=38, channel=0, data=[81, 0]),
   midi.NoteOnEvent(tick=22, channel=0, data=[80, 18]),
   midi.NoteOnEvent(tick=2, channel=0, data=[73, 18]),
   midi.NoteOnEvent(tick=0, channel=0, data=[77, 18]),
   midi.NoteOnEvent(tick=46, channel=0, data=[80, 0]),
   midi.NoteOnEvent(tick=2, channel=0, data=[77, 0]),
   midi.NoteOnEvent(tick=0, channel=0, data=[73, 0]),
   midi.NoteOnEvent(tick=13, channel=0, data=[81, 23]),
   midi.NoteOnEvent(tick=38, channel=0, data=[81, 0]),
   midi.NoteOnEvent(tick=18, channel=0, data=[80, 18]),
   midi.NoteOnEvent(tick=2, channel=0, data=[77, 18]),
   midi.NoteOnEvent(tick=43, channel=0, data=[80, 0]),
   midi.NoteOnEvent(tick=2, channel=0, data=[77, 0]),
   midi.NoteOnEvent(tick=14, channel=0, data=[77, 18]),
   midi.NoteOnEvent(tick=3, channel=0, data=[80, 18]),
   midi.NoteOnEvent(tick=45, channel=0, data=[77, 0]),
   midi.NoteOnEvent(tick=3, channel=0, data=[80, 0]),
   midi.NoteOnEvent(tick=7, channel=0, data=[81, 23]),
   midi.NoteOnEvent(tick=38, channel=0, data=[81, 0]),
   midi.NoteOnEvent(tick=22, channel=0, data=[77, 18]),
   midi.NoteOnEvent(tick=0, channel=0, data=[80, 18]),
   midi.NoteOnEvent(tick=45, channel=0, data=[80, 0]),
   midi.NoteOnEvent(tick=0, channel=0, data=[77, 0]),
   midi.NoteOnEvent(tick=15, channel=0, data=[77, 22]),
   midi.NoteOnEvent(tick=5, channel=0, data=[80, 22]),
   midi.NoteOnEvent(tick=43, channel=0, data=[77, 0]),
   midi.NoteOnEvent(tick=5, channel=0, data=[80, 0]),
   midi.NoteOnEvent(tick=8, channel=0, data=[81, 25]),
   midi.NoteOnEvent(tick=38, channel=0, data=[81, 0]),
   midi.NoteOnEvent(tick=21, channel=0, data=[80, 18]),
   midi.NoteOnEvent(tick=2, channel=0, data=[73, 18]),
   midi.NoteOnEvent(tick=2, channel=0, data=[77, 18]),
   midi.NoteOnEvent(tick=44, channel=0, data=[80, 0]),
   midi.NoteOnEvent(tick=2, channel=0, data=[73, 0]),
   midi.NoteOnEvent(tick=2, channel=0, data=[77, 0]),
   midi.NoteOnEvent(tick=12, channel=0, data=[81, 23]),
   midi.NoteOnEvent(tick=38, channel=0, data=[81, 0]),
   midi.NoteOnEvent(tick=19, channel=0, data=[73, 18]),
   midi.NoteOnEvent(tick=0, channel=0, data=[80, 18]),
   midi.NoteOnEvent(tick=4, channel=0, data=[77, 18]),
   midi.NoteOnEvent(tick=41, channel=0, data=[80, 0]),
   midi.NoteOnEvent(tick=0, channel=0, data=[73, 0]),
   midi.NoteOnEvent(tick=4, channel=0, data=[77, 0]),
   midi.NoteOnEvent(tick=11, channel=0, data=[73, 22]),
   midi.NoteOnEvent(tick=0, channel=0, data=[77, 22]),
   midi.NoteOnEvent(tick=0, channel=0, data=[80, 22]),
   midi.NoteOnEvent(tick=48, channel=0, data=[80, 0]),
   midi.NoteOnEvent(tick=0, channel=0, data=[77, 0]),
   midi.NoteOnEvent(tick=0, channel=0, data=[73, 0]),
   midi.NoteOnEvent(tick=16, channel=0, data=[81, 25]),
   midi.NoteOnEvent(tick=38, channel=0, data=[81, 0]),
   midi.NoteOnEvent(tick=22, channel=0, data=[73, 22]),
   midi.NoteOnEvent(tick=0, channel=0, data=[77, 22]),
   midi.NoteOnEvent(tick=0, channel=0, data=[80, 22]),
   midi.NoteOnEvent(tick=45, channel=0, data=[80, 0]),
   midi.NoteOnEvent(tick=0, channel=0, data=[77, 0]),
   midi.NoteOnEvent(tick=0, channel=0, data=[73, 0]),
   midi.NoteOnEvent(tick=10, channel=0, data=[77, 22]),
   midi.NoteOnEvent(tick=1, channel=0, data=[80, 22]),
   midi.NoteOnEvent(tick=2, channel=0, data=[73, 22]),
   midi.NoteOnEvent(tick=45, channel=0, data=[77, 0]),
   midi.NoteOnEvent(tick=1, channel=0, data=[80, 0]),
   midi.NoteOnEvent(tick=2, channel=0, data=[73, 0]),
   midi.NoteOnEvent(tick=10, channel=0, data=[81, 27]),
   midi.NoteOnEvent(tick=38, channel=0, data=[81, 0]),
   midi.NoteOnEvent(tick=23, channel=0, data=[73, 25]),
   midi.NoteOnEvent(tick=0, channel=0, data=[77, 25]),
   midi.NoteOnEvent(tick=48, channel=0, data=[77, 0]),
   midi.NoteOnEvent(tick=0, channel=0, data=[73, 0]),
   midi.NoteOnEvent(tick=11, channel=0, data=[81, 30]),
   midi.NoteOnEvent(tick=38, channel=0, data=[81, 0]),
   midi.NoteOnEvent(tick=26, channel=0, data=[81, 30]),
   midi.NoteOnEvent(tick=38, channel=0, data=[81, 0]),
   midi.NoteOnEvent(tick=20, channel=0, data=[73, 25]),
   midi.NoteOnEvent(tick=48, channel=0, data=[73, 0]),
   midi.NoteOnEvent(tick=12, channel=0, data=[81, 33]),
   midi.NoteOnEvent(tick=38, channel=0, data=[81, 0]),
   midi.NoteOnEvent(tick=22, channel=0, data=[80, 25]),
   midi.NoteOnEvent(tick=2, channel=0, data=[73, 25]),
   midi.NoteOnEvent(tick=43, channel=0, data=[80, 0]),
   midi.NoteOnEvent(tick=2, channel=0, data=[73, 0]),
   midi.NoteOnEvent(tick=14, channel=0, data=[73, 25]),
   midi.NoteOnEvent(tick=1, channel=0, data=[80, 25]),
   midi.NoteOnEvent(tick=47, channel=0, data=[73, 0]),
   midi.NoteOnEvent(tick=1, channel=0, data=[80, 0]),
   midi.NoteOnEvent(tick=12, channel=0, data=[81, 28]),
   midi.NoteOnEvent(tick=38, channel=0, data=[81, 0]),
   midi.NoteOnEvent(tick=17, channel=0, data=[80, 23]),
   midi.NoteOnEvent(tick=5, channel=0, data=[73, 23]),
   midi.NoteOnEvent(tick=0, channel=0, data=[77, 23]),
   midi.NoteOnEvent(tick=43, channel=0, data=[80, 0]),
   midi.NoteOnEvent(tick=5, channel=0, data=[77, 0]),
   midi.NoteOnEvent(tick=0, channel=0, data=[73, 0]),
   midi.NoteOnEvent(tick=9, channel=0, data=[81, 28]),
   midi.NoteOnEvent(tick=38, channel=0, data=[81, 0]),
   midi.NoteOnEvent(tick=21, channel=0, data=[81, 27]),
   midi.NoteOnEvent(tick=38, channel=0, data=[81, 0]),
   midi.NoteOnEvent(tick=22, channel=0, data=[73, 22]),
   midi.NoteOnEvent(tick=3, channel=0, data=[80, 22]),
   midi.NoteOnEvent(tick=1, channel=0, data=[77, 22]),
   midi.NoteOnEvent(tick=44, channel=0, data=[73, 0]),
   midi.NoteOnEvent(tick=3, channel=0, data=[80, 0]),
   midi.NoteOnEvent(tick=1, channel=0, data=[77, 0]),
   midi.NoteOnEvent(tick=11, channel=0, data=[81, 25]),
   midi.NoteOnEvent(tick=38, channel=0, data=[81, 0]),
   midi.NoteOnEvent(tick=18, channel=0, data=[73, 18]),
   midi.NoteOnEvent(tick=3, channel=0, data=[77, 18]),
   midi.NoteOnEvent(tick=1, channel=0, data=[80, 18]),
   midi.NoteOnEvent(tick=41, channel=0, data=[73, 0]),
   midi.NoteOnEvent(tick=3, channel=0, data=[77, 0]),
   midi.NoteOnEvent(tick=1, channel=0, data=[80, 0]),
   midi.NoteOnEvent(tick=11, channel=0, data=[80, 18]),
   midi.NoteOnEvent(tick=4, channel=0, data=[73, 18]),
   midi.NoteOnEvent(tick=0, channel=0, data=[77, 18]),
   midi.NoteOnEvent(tick=44, channel=0, data=[80, 0]),
   midi.NoteOnEvent(tick=4, channel=0, data=[77, 0]),
   midi.NoteOnEvent(tick=0, channel=0, data=[73, 0]),
   midi.NoteOnEvent(tick=12, channel=0, data=[81, 23]),
   midi.NoteOnEvent(tick=38, channel=0, data=[81, 0]),
   midi.NoteOnEvent(tick=20, channel=0, data=[73, 22]),
   midi.NoteOnEvent(tick=1, channel=0, data=[77, 22]),
   midi.NoteOnEvent(tick=2, channel=0, data=[80, 22]),
   midi.NoteOnEvent(tick=45, channel=0, data=[73, 0]),
   midi.NoteOnEvent(tick=1, channel=0, data=[77, 0]),
   midi.NoteOnEvent(tick=2, channel=0, data=[80, 0]),
   midi.NoteOnEvent(tick=12, channel=0, data=[82, 23]),
   midi.NoteOnEvent(tick=38, channel=0, data=[82, 0]),
   midi.NoteOnEvent(tick=17, channel=0, data=[82, 23]),
   midi.NoteOnEvent(tick=38, channel=0, data=[82, 0]),
   midi.NoteOnEvent(tick=22, channel=0, data=[80, 18]),
   midi.NoteOnEvent(tick=2, channel=0, data=[77, 18]),
   midi.NoteOnEvent(tick=2, channel=0, data=[73, 18]),
   midi.NoteOnEvent(tick=44, channel=0, data=[80, 0]),
   midi.NoteOnEvent(tick=2, channel=0, data=[77, 0]),
   midi.NoteOnEvent(tick=2, channel=0, data=[73, 0]),
   midi.NoteOnEvent(tick=9, channel=0, data=[82, 23]),
   midi.NoteOnEvent(tick=38, channel=0, data=[82, 0]),
   midi.NoteOnEvent(tick=21, channel=0, data=[77, 18]),
   midi.NoteOnEvent(tick=2, channel=0, data=[73, 18]),
   midi.NoteOnEvent(tick=3, channel=0, data=[80, 18]),
   midi.NoteOnEvent(tick=40, channel=0, data=[77, 0]),
   midi.NoteOnEvent(tick=2, channel=0, data=[73, 0]),
   midi.NoteOnEvent(tick=3, channel=0, data=[80, 0]),
   midi.NoteOnEvent(tick=11, channel=0, data=[77, 18]),
   midi.NoteOnEvent(tick=2, channel=0, data=[73, 18]),
   midi.NoteOnEvent(tick=1, channel=0, data=[80, 18]),
   midi.NoteOnEvent(tick=45, channel=0, data=[77, 0]),
   midi.NoteOnEvent(tick=2, channel=0, data=[73, 0]),
   midi.NoteOnEvent(tick=1, channel=0, data=[80, 0]),
   midi.NoteOnEvent(tick=13, channel=0, data=[82, 23]),
   midi.NoteOnEvent(tick=38, channel=0, data=[82, 0]),
   midi.NoteOnEvent(tick=17, channel=0, data=[77, 18]),
   midi.NoteOnEvent(tick=1, channel=0, data=[74, 18]),
   midi.NoteOnEvent(tick=3, channel=0, data=[80, 18]),
   midi.NoteOnEvent(tick=44, channel=0, data=[77, 0]),
   midi.NoteOnEvent(tick=1, channel=0, data=[74, 0]),
   midi.NoteOnEvent(tick=3, channel=0, data=[80, 0]),
   midi.NoteOnEvent(tick=9, channel=0, data=[82, 23]),
   midi.NoteOnEvent(tick=38, channel=0, data=[82, 0]),
   midi.NoteOnEvent(tick=24, channel=0, data=[82, 23]),
   midi.NoteOnEvent(tick=38, channel=0, data=[82, 0]),
   midi.NoteOnEvent(tick=20, channel=0, data=[80, 18]),
   midi.NoteOnEvent(tick=3, channel=0, data=[74, 18]),
   midi.NoteOnEvent(tick=1, channel=0, data=[77, 18]),
   midi.NoteOnEvent(tick=44, channel=0, data=[80, 0]),
   midi.NoteOnEvent(tick=3, channel=0, data=[74, 0]),
   midi.NoteOnEvent(tick=1, channel=0, data=[77, 0]),
   midi.NoteOnEvent(tick=10, channel=0, data=[82, 23]),
   midi.NoteOnEvent(tick=38, channel=0, data=[82, 0]),
   midi.NoteOnEvent(tick=22, channel=0, data=[80, 18]),
   midi.NoteOnEvent(tick=2, channel=0, data=[74, 18]),
   midi.NoteOnEvent(tick=0, channel=0, data=[77, 18]),
   midi.NoteOnEvent(tick=43, channel=0, data=[80, 0]),
   midi.NoteOnEvent(tick=2, channel=0, data=[77, 0]),
   midi.NoteOnEvent(tick=0, channel=0, data=[74, 0]),
   midi.NoteOnEvent(tick=11, channel=0, data=[74, 18]),
   midi.NoteOnEvent(tick=1, channel=0, data=[80, 18]),
   midi.NoteOnEvent(tick=2, channel=0, data=[77, 18]),
   midi.NoteOnEvent(tick=45, channel=0, data=[74, 0]),
   midi.NoteOnEvent(tick=1, channel=0, data=[80, 0]),
   midi.NoteOnEvent(tick=2, channel=0, data=[77, 0]),
   midi.NoteOnEvent(tick=10, channel=0, data=[82, 23]),
   midi.NoteOnEvent(tick=38, channel=0, data=[82, 0]),
   midi.NoteOnEvent(tick=20, channel=0, data=[74, 22]),
   midi.NoteOnEvent(tick=2, channel=0, data=[80, 22]),
   midi.NoteOnEvent(tick=1, channel=0, data=[77, 22]),
   midi.NoteOnEvent(tick=45, channel=0, data=[74, 0]),
   midi.NoteOnEvent(tick=2, channel=0, data=[80, 0]),
   midi.NoteOnEvent(tick=1, channel=0, data=[77, 0]),
   midi.NoteOnEvent(tick=9, channel=0, data=[82, 25]),
   midi.NoteOnEvent(tick=38, channel=0, data=[82, 0]),
   midi.NoteOnEvent(tick=23, channel=0, data=[82, 25]),
   midi.NoteOnEvent(tick=38, channel=0, data=[82, 0]),
   midi.NoteOnEvent(tick=22, channel=0, data=[77, 18]),
   midi.NoteOnEvent(tick=4, channel=0, data=[74, 18]),
   midi.NoteOnEvent(tick=0, channel=0, data=[80, 18]),
   midi.NoteOnEvent(tick=44, channel=0, data=[77, 0]),
   midi.NoteOnEvent(tick=4, channel=0, data=[80, 0]),
   midi.NoteOnEvent(tick=0, channel=0, data=[74, 0]),
   midi.NoteOnEvent(tick=7, channel=0, data=[82, 23]),
   midi.NoteOnEvent(tick=38, channel=0, data=[82, 0]),
   midi.NoteOnEvent(tick=24, channel=0, data=[80, 18]),
   midi.NoteOnEvent(tick=3, channel=0, data=[74, 18]),
   midi.NoteOnEvent(tick=0, channel=0, data=[77, 18]),
   midi.NoteOnEvent(tick=42, channel=0, data=[80, 0]),
   midi.NoteOnEvent(tick=3, channel=0, data=[77, 0]),
   midi.NoteOnEvent(tick=0, channel=0, data=[74, 0]),
   midi.NoteOnEvent(tick=11, channel=0, data=[74, 18]),
   midi.NoteOnEvent(tick=2, channel=0, data=[77, 18]),
   midi.NoteOnEvent(tick=0, channel=0, data=[80, 18]),
   midi.NoteOnEvent(tick=46, channel=0, data=[74, 0]),
   midi.NoteOnEvent(tick=2, channel=0, data=[80, 0]),
   midi.NoteOnEvent(tick=0, channel=0, data=[77, 0]),
   midi.NoteOnEvent(tick=12, channel=0, data=[82, 23]),
   midi.NoteOnEvent(tick=38, channel=0, data=[82, 0]),
   midi.NoteOnEvent(tick=19, channel=0, data=[77, 18]),
   midi.NoteOnEvent(tick=2, channel=0, data=[74, 18]),
   midi.NoteOnEvent(tick=3, channel=0, data=[80, 18]),
   midi.NoteOnEvent(tick=43, channel=0, data=[77, 0]),
   midi.NoteOnEvent(tick=2, channel=0, data=[74, 0]),
   midi.NoteOnEvent(tick=3, channel=0, data=[80, 0]),
   midi.NoteOnEvent(tick=7, channel=0, data=[82, 23]),
   midi.NoteOnEvent(tick=38, channel=0, data=[82, 0]),
   midi.NoteOnEvent(tick=23, channel=0, data=[82, 23]),
   midi.NoteOnEvent(tick=38, channel=0, data=[82, 0]),
   midi.NoteOnEvent(tick=22, channel=0, data=[74, 18]),
   midi.NoteOnEvent(tick=2, channel=0, data=[80, 18]),
   midi.NoteOnEvent(tick=1, channel=0, data=[77, 18]),
   midi.NoteOnEvent(tick=45, channel=0, data=[74, 0]),
   midi.NoteOnEvent(tick=2, channel=0, data=[80, 0]),
   midi.NoteOnEvent(tick=1, channel=0, data=[77, 0]),
   midi.NoteOnEvent(tick=13, channel=0, data=[82, 23]),
   midi.NoteOnEvent(tick=38, channel=0, data=[82, 0]),
   midi.NoteOnEvent(tick=19, channel=0, data=[80, 20]),
   midi.NoteOnEvent(tick=1, channel=0, data=[74, 20]),
   midi.NoteOnEvent(tick=1, channel=0, data=[77, 20]),
   midi.NoteOnEvent(tick=43, channel=0, data=[80, 0]),
   midi.NoteOnEvent(tick=1, channel=0, data=[74, 0]),
   midi.NoteOnEvent(tick=1, channel=0, data=[77, 0]),
   midi.NoteOnEvent(tick=11, channel=0, data=[80, 20]),
   midi.NoteOnEvent(tick=4, channel=0, data=[74, 20]),
   midi.NoteOnEvent(tick=0, channel=0, data=[77, 20]),
   midi.NoteOnEvent(tick=44, channel=0, data=[80, 0]),
   midi.NoteOnEvent(tick=4, channel=0, data=[77, 0]),
   midi.NoteOnEvent(tick=0, channel=0, data=[74, 0]),
   midi.NoteOnEvent(tick=11, channel=0, data=[82, 25]),
   midi.NoteOnEvent(tick=38, channel=0, data=[82, 0]),
   midi.NoteOnEvent(tick=19, channel=0, data=[73, 25]),
   midi.NoteOnEvent(tick=0, channel=0, data=[77, 25]),
   midi.NoteOnEvent(tick=4, channel=0, data=[80, 25]),
   midi.NoteOnEvent(tick=44, channel=0, data=[77, 0]),
   midi.NoteOnEvent(tick=0, channel=0, data=[73, 0]),
   midi.NoteOnEvent(tick=4, channel=0, data=[80, 0]),
   midi.NoteOnEvent(tick=10, channel=0, data=[82, 33]),
   midi.NoteOnEvent(tick=38, channel=0, data=[82, 0]),
   midi.NoteOnEvent(tick=25, channel=0, data=[82, 33]),
   midi.NoteOnEvent(tick=38, channel=0, data=[82, 0]),
   midi.NoteOnEvent(tick=17, channel=0, data=[80, 25]),
   midi.NoteOnEvent(tick=2, channel=0, data=[73, 25]),
   midi.NoteOnEvent(tick=2, channel=0, data=[77, 25]),
   midi.NoteOnEvent(tick=44, channel=0, data=[80, 0]),
   midi.NoteOnEvent(tick=2, channel=0, data=[73, 0]),
   midi.NoteOnEvent(tick=2, channel=0, data=[77, 0]),
   midi.NoteOnEvent(tick=11, channel=0, data=[82, 33]),
   midi.NoteOnEvent(tick=38, channel=0, data=[82, 0]),
   midi.NoteOnEvent(tick=19, channel=0, data=[73, 25]),
   midi.NoteOnEvent(tick=4, channel=0, data=[77, 25]),
   midi.NoteOnEvent(tick=1, channel=0, data=[80, 25]),
   midi.NoteOnEvent(tick=40, channel=0, data=[73, 0]),
   midi.NoteOnEvent(tick=4, channel=0, data=[77, 0]),
   midi.NoteOnEvent(tick=1, channel=0, data=[80, 0]),
   midi.NoteOnEvent(tick=11, channel=0, data=[80, 23]),
   midi.NoteOnEvent(tick=2, channel=0, data=[73, 23]),
   midi.NoteOnEvent(tick=1, channel=0, data=[77, 23]),
   midi.NoteOnEvent(tick=45, channel=0, data=[80, 0]),
   midi.NoteOnEvent(tick=2, channel=0, data=[73, 0]),
   midi.NoteOnEvent(tick=1, channel=0, data=[77, 0]),
   midi.NoteOnEvent(tick=12, channel=0, data=[82, 25]),
   midi.NoteOnEvent(tick=38, channel=0, data=[82, 0]),
   midi.NoteOnEvent(tick=19, channel=0, data=[80, 22]),
   midi.NoteOnEvent(tick=2, channel=0, data=[74, 22]),
   midi.NoteOnEvent(tick=0, channel=0, data=[77, 22]),
   midi.NoteOnEvent(tick=46, channel=0, data=[80, 0]),
   midi.NoteOnEvent(tick=2, channel=0, data=[77, 0]),
   midi.NoteOnEvent(tick=0, channel=0, data=[74, 0]),
   midi.NoteOnEvent(tick=14, channel=0, data=[82, 27]),
   midi.NoteOnEvent(tick=38, channel=0, data=[82, 0]),
   midi.NoteOnEvent(tick=19, channel=0, data=[82, 27]),
   midi.NoteOnEvent(tick=38, channel=0, data=[82, 0]),
   midi.NoteOnEvent(tick=20, channel=0, data=[80, 22]),
   midi.NoteOnEvent(tick=2, channel=0, data=[77, 22]),
   midi.NoteOnEvent(tick=2, channel=0, data=[74, 22]),
   midi.NoteOnEvent(tick=44, channel=0, data=[80, 0]),
   midi.NoteOnEvent(tick=2, channel=0, data=[77, 0]),
   midi.NoteOnEvent(tick=2, channel=0, data=[74, 0]),
   midi.NoteOnEvent(tick=10, channel=0, data=[82, 25]),
   midi.NoteOnEvent(tick=38, channel=0, data=[82, 0]),
   midi.NoteOnEvent(tick=22, channel=0, data=[77, 22]),
   midi.NoteOnEvent(tick=0, channel=0, data=[80, 22]),
   midi.NoteOnEvent(tick=1, channel=0, data=[74, 22]),
   midi.NoteOnEvent(tick=44, channel=0, data=[80, 0]),
   midi.NoteOnEvent(tick=0, channel=0, data=[77, 0]),
   midi.NoteOnEvent(tick=1, channel=0, data=[74, 0]),
   midi.NoteOnEvent(tick=12, channel=0, data=[74, 18]),
   midi.NoteOnEvent(tick=1, channel=0, data=[80, 18]),
   midi.NoteOnEvent(tick=2, channel=0, data=[77, 18]),
   midi.NoteOnEvent(tick=45, channel=0, data=[74, 0]),
   midi.NoteOnEvent(tick=1, channel=0, data=[80, 0]),
   midi.NoteOnEvent(tick=2, channel=0, data=[77, 0]),
   midi.NoteOnEvent(tick=14, channel=0, data=[82, 23]),
   midi.NoteOnEvent(tick=38, channel=0, data=[82, 0]),
   midi.NoteOnEvent(tick=19, channel=0, data=[74, 22]),
   midi.NoteOnEvent(tick=0, channel=0, data=[80, 22]),
   midi.NoteOnEvent(tick=3, channel=0, data=[77, 22]),
   midi.NoteOnEvent(tick=45, channel=0, data=[80, 0]),
   midi.NoteOnEvent(tick=0, channel=0, data=[74, 0]),
   midi.NoteOnEvent(tick=3, channel=0, data=[77, 0]),
   midi.NoteOnEvent(tick=10, channel=0, data=[82, 25]),
   midi.NoteOnEvent(tick=38, channel=0, data=[82, 0]),
   midi.NoteOnEvent(tick=19, channel=0, data=[82, 23]),
   midi.NoteOnEvent(tick=38, channel=0, data=[82, 0]),
   midi.NoteOnEvent(tick=24, channel=0, data=[80, 18]),
   midi.NoteOnEvent(tick=3, channel=0, data=[74, 18]),
   midi.NoteOnEvent(tick=0, channel=0, data=[77, 18]),
   midi.NoteOnEvent(tick=45, channel=0, data=[80, 0]),
   midi.NoteOnEvent(tick=3, channel=0, data=[77, 0]),
   midi.NoteOnEvent(tick=0, channel=0, data=[74, 0]),
   midi.NoteOnEvent(tick=11, channel=0, data=[82, 23]),
   midi.NoteOnEvent(tick=38, channel=0, data=[82, 0]),
   midi.NoteOnEvent(tick=19, channel=0, data=[74, 22]),
   midi.NoteOnEvent(tick=1, channel=0, data=[80, 22]),
   midi.NoteOnEvent(tick=1, channel=0, data=[77, 22]),
   midi.NoteOnEvent(tick=43, channel=0, data=[74, 0]),
   midi.NoteOnEvent(tick=1, channel=0, data=[80, 0]),
   midi.NoteOnEvent(tick=1, channel=0, data=[77, 0]),
   midi.NoteOnEvent(tick=12, channel=0, data=[77, 20]),
   midi.NoteOnEvent(tick=2, channel=0, data=[80, 20]),
   midi.NoteOnEvent(tick=1, channel=0, data=[74, 20]),
   midi.NoteOnEvent(tick=45, channel=0, data=[77, 0]),
   midi.NoteOnEvent(tick=2, channel=0, data=[80, 0]),
   midi.NoteOnEvent(tick=1, channel=0, data=[74, 0]),
   midi.NoteOnEvent(tick=10, channel=0, data=[82, 27]),
   midi.NoteOnEvent(tick=38, channel=0, data=[82, 0]),
   midi.NoteOnEvent(tick=26, channel=0, data=[74, 18]),
   midi.NoteOnEvent(tick=0, channel=0, data=[77, 18]),
   midi.NoteOnEvent(tick=0, channel=0, data=[80, 18]),
   midi.NoteOnEvent(tick=48, channel=0, data=[80, 0]),
   midi.NoteOnEvent(tick=0, channel=0, data=[77, 0]),
   midi.NoteOnEvent(tick=0, channel=0, data=[74, 0]),
   midi.NoteOnEvent(tick=10, channel=0, data=[82, 23]),
   midi.NoteOnEvent(tick=38, channel=0, data=[82, 0]),
   midi.NoteOnEvent(tick=22, channel=0, data=[82, 25]),
   midi.NoteOnEvent(tick=38, channel=0, data=[82, 0]),
   midi.NoteOnEvent(tick=19, channel=0, data=[74, 22]),
   midi.NoteOnEvent(tick=1, channel=0, data=[80, 22]),
   midi.NoteOnEvent(tick=1, channel=0, data=[77, 22]),
   midi.NoteOnEvent(tick=46, channel=0, data=[74, 0]),
   midi.NoteOnEvent(tick=1, channel=0, data=[80, 0]),
   midi.NoteOnEvent(tick=1, channel=0, data=[77, 0]),
   midi.NoteOnEvent(tick=12, channel=0, data=[82, 28]),
   midi.NoteOnEvent(tick=38, channel=0, data=[82, 0]),
   midi.NoteOnEvent(tick=20, channel=0, data=[74, 23]),
   midi.NoteOnEvent(tick=1, channel=0, data=[80, 23]),
   midi.NoteOnEvent(tick=4, channel=0, data=[77, 23]),
   midi.NoteOnEvent(tick=40, channel=0, data=[74, 0]),
   midi.NoteOnEvent(tick=1, channel=0, data=[80, 0]),
   midi.NoteOnEvent(tick=4, channel=0, data=[77, 0]),
   midi.NoteOnEvent(tick=13, channel=0, data=[80, 23]),
   midi.NoteOnEvent(tick=1, channel=0, data=[74, 23]),
   midi.NoteOnEvent(tick=1, channel=0, data=[77, 23]),
   midi.NoteOnEvent(tick=46, channel=0, data=[80, 0]),
   midi.NoteOnEvent(tick=1, channel=0, data=[74, 0]),
   midi.NoteOnEvent(tick=1, channel=0, data=[77, 0]),
   midi.NoteOnEvent(tick=8, channel=0, data=[82, 33]),
   midi.NoteOnEvent(tick=38, channel=0, data=[82, 0]),
   midi.NoteOnEvent(tick=22, channel=0, data=[74, 25]),
   midi.NoteOnEvent(tick=2, channel=0, data=[80, 25]),
   midi.NoteOnEvent(tick=2, channel=0, data=[82, 25]),
   midi.NoteOnEvent(tick=44, channel=0, data=[74, 0]),
   midi.NoteOnEvent(tick=2, channel=0, data=[80, 0]),
   midi.NoteOnEvent(tick=2, channel=0, data=[82, 0]),
   midi.NoteOnEvent(tick=8, channel=0, data=[84, 33]),
   midi.NoteOnEvent(tick=38, channel=0, data=[84, 0]),
   midi.NoteOnEvent(tick=22, channel=0, data=[84, 33]),
   midi.NoteOnEvent(tick=38, channel=0, data=[84, 0]),
   midi.NoteOnEvent(tick=22, channel=0, data=[82, 25]),
   midi.NoteOnEvent(tick=3, channel=0, data=[74, 25]),
   midi.NoteOnEvent(tick=1, channel=0, data=[80, 25]),
   midi.NoteOnEvent(tick=44, channel=0, data=[82, 0]),
   midi.NoteOnEvent(tick=3, channel=0, data=[74, 0]),
   midi.NoteOnEvent(tick=1, channel=0, data=[80, 0]),
   midi.NoteOnEvent(tick=8, channel=0, data=[84, 33]),
   midi.NoteOnEvent(tick=38, channel=0, data=[84, 0]),
   midi.NoteOnEvent(tick=23, channel=0, data=[74, 25]),
   midi.NoteOnEvent(tick=1, channel=0, data=[82, 25]),
   midi.NoteOnEvent(tick=2, channel=0, data=[80, 25]),
   midi.NoteOnEvent(tick=42, channel=0, data=[74, 0]),
   midi.NoteOnEvent(tick=1, channel=0, data=[82, 0]),
   midi.NoteOnEvent(tick=2, channel=0, data=[80, 0]),
   midi.NoteOnEvent(tick=10, channel=0, data=[74, 25]),
   midi.NoteOnEvent(tick=0, channel=0, data=[80, 25]),
   midi.NoteOnEvent(tick=5, channel=0, data=[82, 25]),
   midi.NoteOnEvent(tick=43, channel=0, data=[80, 0]),
   midi.NoteOnEvent(tick=0, channel=0, data=[74, 0]),
   midi.NoteOnEvent(tick=5, channel=0, data=[82, 0]),
   midi.NoteOnEvent(tick=10, channel=0, data=[84, 33]),
   midi.NoteOnEvent(tick=38, channel=0, data=[84, 0]),
   midi.NoteOnEvent(tick=19, channel=0, data=[82, 25]),
   midi.NoteOnEvent(tick=1, channel=0, data=[74, 25]),
   midi.NoteOnEvent(tick=0, channel=0, data=[80, 25]),
   midi.NoteOnEvent(tick=47, channel=0, data=[82, 0]),
   midi.NoteOnEvent(tick=1, channel=0, data=[80, 0]),
   midi.NoteOnEvent(tick=0, channel=0, data=[74, 0]),
   midi.NoteOnEvent(tick=12, channel=0, data=[84, 33]),
   midi.NoteOnEvent(tick=38, channel=0, data=[84, 0]),
   midi.NoteOnEvent(tick=23, channel=0, data=[84, 33]),
   midi.NoteOnEvent(tick=38, channel=0, data=[84, 0]),
   midi.NoteOnEvent(tick=20, channel=0, data=[80, 25]),
   midi.NoteOnEvent(tick=0, channel=0, data=[82, 25]),
   midi.NoteOnEvent(tick=5, channel=0, data=[74, 25]),
   midi.NoteOnEvent(tick=43, channel=0, data=[82, 0]),
   midi.NoteOnEvent(tick=0, channel=0, data=[80, 0]),
   midi.NoteOnEvent(tick=5, channel=0, data=[74, 0]),
   midi.NoteOnEvent(tick=9, channel=0, data=[84, 33]),
   midi.NoteOnEvent(tick=38, channel=0, data=[84, 0]),
   midi.NoteOnEvent(tick=21, channel=0, data=[74, 25]),
   midi.NoteOnEvent(tick=1, channel=0, data=[82, 25]),
   midi.NoteOnEvent(tick=1, channel=0, data=[80, 25]),
   midi.NoteOnEvent(tick=43, channel=0, data=[74, 0]),
   midi.NoteOnEvent(tick=1, channel=0, data=[82, 0]),
   midi.NoteOnEvent(tick=1, channel=0, data=[80, 0]),
   midi.NoteOnEvent(tick=14, channel=0, data=[74, 23]),
   midi.NoteOnEvent(tick=1, channel=0, data=[82, 23]),
   midi.NoteOnEvent(tick=2, channel=0, data=[80, 23]),
   midi.NoteOnEvent(tick=45, channel=0, data=[74, 0]),
   midi.NoteOnEvent(tick=1, channel=0, data=[82, 0]),
   midi.NoteOnEvent(tick=2, channel=0, data=[80, 0]),
   midi.NoteOnEvent(tick=8, channel=0, data=[84, 30]),
   midi.NoteOnEvent(tick=38, channel=0, data=[84, 0]),
   midi.NoteOnEvent(tick=23, channel=0, data=[74, 23]),
   midi.NoteOnEvent(tick=0, channel=0, data=[80, 23]),
   midi.NoteOnEvent(tick=3, channel=0, data=[82, 23]),
   midi.NoteOnEvent(tick=45, channel=0, data=[80, 0]),
   midi.NoteOnEvent(tick=0, channel=0, data=[74, 0]),
   midi.NoteOnEvent(tick=3, channel=0, data=[82, 0]),
   midi.NoteOnEvent(tick=10, channel=0, data=[84, 28]),
   midi.NoteOnEvent(tick=38, channel=0, data=[84, 0]),
   midi.NoteOnEvent(tick=24, channel=0, data=[84, 27]),
   midi.NoteOnEvent(tick=38, channel=0, data=[84, 0]),
   midi.NoteOnEvent(tick=20, channel=0, data=[82, 22]),
   midi.NoteOnEvent(tick=1, channel=0, data=[74, 22]),
   midi.NoteOnEvent(tick=0, channel=0, data=[80, 22]),
   midi.NoteOnEvent(tick=47, channel=0, data=[82, 0]),
   midi.NoteOnEvent(tick=1, channel=0, data=[80, 0]),
   midi.NoteOnEvent(tick=0, channel=0, data=[74, 0]),
   midi.NoteOnEvent(tick=13, channel=0, data=[84, 25]),
   midi.NoteOnEvent(tick=38, channel=0, data=[84, 0]),
   midi.NoteOnEvent(tick=18, channel=0, data=[74, 18]),
   midi.NoteOnEvent(tick=0, channel=0, data=[82, 18]),
   midi.NoteOnEvent(tick=4, channel=0, data=[80, 18]),
   midi.NoteOnEvent(tick=41, channel=0, data=[82, 0]),
   midi.NoteOnEvent(tick=0, channel=0, data=[74, 0]),
   midi.NoteOnEvent(tick=4, channel=0, data=[80, 0]),
   midi.NoteOnEvent(tick=10, channel=0, data=[82, 18]),
   midi.NoteOnEvent(tick=4, channel=0, data=[80, 18]),
   midi.NoteOnEvent(tick=1, channel=0, data=[74, 18]),
   midi.NoteOnEvent(tick=43, channel=0, data=[82, 0]),
   midi.NoteOnEvent(tick=4, channel=0, data=[80, 0]),
   midi.NoteOnEvent(tick=1, channel=0, data=[74, 0]),
   midi.NoteOnEvent(tick=11, channel=0, data=[84, 23]),
   midi.NoteOnEvent(tick=38, channel=0, data=[84, 0]),
   midi.NoteOnEvent(tick=18, channel=0, data=[82, 18]),
   midi.NoteOnEvent(tick=1, channel=0, data=[78, 18]),
   midi.NoteOnEvent(tick=1, channel=0, data=[75, 18]),
   midi.NoteOnEvent(tick=46, channel=0, data=[82, 0]),
   midi.NoteOnEvent(tick=1, channel=0, data=[78, 0]),
   midi.NoteOnEvent(tick=1, channel=0, data=[75, 0]),
   midi.NoteOnEvent(tick=10, channel=0, data=[84, 23]),
   midi.NoteOnEvent(tick=38, channel=0, data=[84, 0]),
   midi.NoteOnEvent(tick=22, channel=0, data=[82, 18]),
   midi.NoteOnEvent(tick=2, channel=0, data=[75, 18]),
   midi.NoteOnEvent(tick=3, channel=0, data=[78, 18]),
   midi.NoteOnEvent(tick=40, channel=0, data=[82, 0]),
   midi.NoteOnEvent(tick=2, channel=0, data=[75, 0]),
   midi.NoteOnEvent(tick=3, channel=0, data=[78, 0]),
   midi.NoteOnEvent(tick=10, channel=0, data=[75, 18]),
   midi.NoteOnEvent(tick=1, channel=0, data=[78, 18]),
   midi.NoteOnEvent(tick=3, channel=0, data=[82, 18]),
   midi.NoteOnEvent(tick=44, channel=0, data=[75, 0]),
   midi.NoteOnEvent(tick=1, channel=0, data=[78, 0]),
   midi.NoteOnEvent(tick=3, channel=0, data=[82, 0]),
   midi.NoteOnEvent(tick=12, channel=0, data=[84, 23]),
   midi.NoteOnEvent(tick=38, channel=0, data=[84, 0]),
   midi.NoteOnEvent(tick=19, channel=0, data=[82, 18]),
   midi.NoteOnEvent(tick=2, channel=0, data=[78, 18]),
   midi.NoteOnEvent(tick=1, channel=0, data=[75, 18]),
   midi.NoteOnEvent(tick=42, channel=0, data=[82, 0]),
   midi.NoteOnEvent(tick=2, channel=0, data=[78, 0]),
   midi.NoteOnEvent(tick=1, channel=0, data=[75, 0]),
   midi.NoteOnEvent(tick=15, channel=0, data=[75, 18]),
   midi.NoteOnEvent(tick=1, channel=0, data=[78, 18]),
   midi.NoteOnEvent(tick=0, channel=0, data=[82, 18]),
   midi.NoteOnEvent(tick=47, channel=0, data=[75, 0]),
   midi.NoteOnEvent(tick=1, channel=0, data=[82, 0]),
   midi.NoteOnEvent(tick=0, channel=0, data=[78, 0]),
   midi.NoteOnEvent(tick=8, channel=0, data=[84, 23]),
   midi.NoteOnEvent(tick=48, channel=0, data=[84, 0]),
   midi.NoteOnEvent(tick=11, channel=0, data=[78, 16]),
   midi.NoteOnEvent(tick=0, channel=0, data=[82, 16]),
   midi.NoteOnEvent(tick=2, channel=0, data=[75, 16]),
   midi.NoteOnEvent(tick=46, channel=0, data=[82, 0]),
   midi.NoteOnEvent(tick=0, channel=0, data=[78, 0]),
   midi.NoteOnEvent(tick=2, channel=0, data=[75, 0]),
   midi.NoteOnEvent(tick=10, channel=0, data=[84, 22]),
   midi.NoteOnEvent(tick=38, channel=0, data=[84, 0]),
   midi.NoteOnEvent(tick=24, channel=0, data=[75, 17]),
   midi.NoteOnEvent(tick=0, channel=0, data=[82, 17]),
   midi.NoteOnEvent(tick=2, channel=0, data=[78, 17]),
   midi.NoteOnEvent(tick=43, channel=0, data=[82, 0]),
   midi.NoteOnEvent(tick=0, channel=0, data=[75, 0]),
   midi.NoteOnEvent(tick=2, channel=0, data=[78, 0]),
   midi.NoteOnEvent(tick=12, channel=0, data=[75, 17]),
   midi.NoteOnEvent(tick=0, channel=0, data=[78, 17]),
   midi.NoteOnEvent(tick=0, channel=0, data=[82, 17]),
   midi.NoteOnEvent(tick=48, channel=0, data=[82, 0]),
   midi.NoteOnEvent(tick=0, channel=0, data=[78, 0]),
   midi.NoteOnEvent(tick=0, channel=0, data=[75, 0]),
   midi.NoteOnEvent(tick=15, channel=0, data=[84, 23]),
   midi.NoteOnEvent(tick=38, channel=0, data=[84, 0]),
   midi.NoteOnEvent(tick=18, channel=0, data=[75, 18]),
   midi.NoteOnEvent(tick=0, channel=0, data=[78, 18]),
   midi.NoteOnEvent(tick=3, channel=0, data=[82, 18]),
   midi.NoteOnEvent(tick=42, channel=0, data=[78, 0]),
   midi.NoteOnEvent(tick=0, channel=0, data=[75, 0]),
   midi.NoteOnEvent(tick=3, channel=0, data=[82, 0]),
   midi.NoteOnEvent(tick=12, channel=0, data=[82, 18]),
   midi.NoteOnEvent(tick=2, channel=0, data=[75, 18]),
   midi.NoteOnEvent(tick=2, channel=0, data=[78, 18]),
   midi.NoteOnEvent(tick=44, channel=0, data=[82, 0]),
   midi.NoteOnEvent(tick=2, channel=0, data=[75, 0]),
   midi.NoteOnEvent(tick=2, channel=0, data=[78, 0]),
   midi.NoteOnEvent(tick=13, channel=0, data=[84, 25]),
   midi.NoteOnEvent(tick=38, channel=0, data=[84, 0]),
   midi.NoteOnEvent(tick=17, channel=0, data=[75, 22]),
   midi.NoteOnEvent(tick=0, channel=0, data=[78, 22]),
   midi.NoteOnEvent(tick=1, channel=0, data=[82, 22]),
   midi.NoteOnEvent(tick=47, channel=0, data=[78, 0]),
   midi.NoteOnEvent(tick=0, channel=0, data=[75, 0]),
   midi.NoteOnEvent(tick=1, channel=0, data=[82, 0]),
   midi.NoteOnEvent(tick=15, channel=0, data=[84, 25]),
   midi.NoteOnEvent(tick=38, channel=0, data=[84, 0]),
   midi.NoteOnEvent(tick=19, channel=0, data=[75, 22]),
   midi.NoteOnEvent(tick=1, channel=0, data=[82, 22]),
   midi.NoteOnEvent(tick=1, channel=0, data=[78, 22]),
   midi.NoteOnEvent(tick=43, channel=0, data=[75, 0]),
   midi.NoteOnEvent(tick=1, channel=0, data=[82, 0]),
   midi.NoteOnEvent(tick=1, channel=0, data=[78, 0]),
   midi.NoteOnEvent(tick=15, channel=0, data=[75, 23]),
   midi.NoteOnEvent(tick=0, channel=0, data=[78, 23]),
   midi.NoteOnEvent(tick=2, channel=0, data=[82, 23]),
   midi.NoteOnEvent(tick=46, channel=0, data=[78, 0]),
   midi.NoteOnEvent(tick=0, channel=0, data=[75, 0]),
   midi.NoteOnEvent(tick=2, channel=0, data=[82, 0]),
   midi.NoteOnEvent(tick=12, channel=0, data=[84, 30]),
   midi.NoteOnEvent(tick=38, channel=0, data=[84, 0]),
   midi.NoteOnEvent(tick=17, channel=0, data=[78, 25]),
   midi.NoteOnEvent(tick=0, channel=0, data=[82, 25]),
   midi.NoteOnEvent(tick=5, channel=0, data=[75, 25]),
   midi.NoteOnEvent(tick=40, channel=0, data=[82, 0]),
   midi.NoteOnEvent(tick=0, channel=0, data=[78, 0]),
   midi.NoteOnEvent(tick=5, channel=0, data=[75, 0]),
   midi.NoteOnEvent(tick=13, channel=0, data=[75, 25]),
   midi.NoteOnEvent(tick=1, channel=0, data=[78, 25]),
   midi.NoteOnEvent(tick=1, channel=0, data=[82, 25]),
   midi.NoteOnEvent(tick=46, channel=0, data=[75, 0]),
   midi.NoteOnEvent(tick=1, channel=0, data=[78, 0]),
   midi.NoteOnEvent(tick=1, channel=0, data=[82, 0]),
   midi.NoteOnEvent(tick=7, channel=0, data=[84, 33]),
   midi.NoteOnEvent(tick=38, channel=0, data=[84, 0]),
   midi.NoteOnEvent(tick=24, channel=0, data=[81, 25]),
   midi.NoteOnEvent(tick=2, channel=0, data=[78, 25]),
   midi.NoteOnEvent(tick=1, channel=0, data=[75, 25]),
   midi.NoteOnEvent(tick=45, channel=0, data=[81, 0]),
   midi.NoteOnEvent(tick=2, channel=0, data=[78, 0]),
   midi.NoteOnEvent(tick=1, channel=0, data=[75, 0]),
   midi.NoteOnEvent(tick=10, channel=0, data=[83, 33]),
   midi.NoteOnEvent(tick=38, channel=0, data=[83, 0]),
   midi.NoteOnEvent(tick=20, channel=0, data=[81, 25]),
   midi.NoteOnEvent(tick=1, channel=0, data=[78, 25]),
   midi.NoteOnEvent(tick=2, channel=0, data=[75, 25]),
   midi.NoteOnEvent(tick=42, channel=0, data=[81, 0]),
   midi.NoteOnEvent(tick=1, channel=0, data=[78, 0]),
   midi.NoteOnEvent(tick=2, channel=0, data=[75, 0]),
   midi.NoteOnEvent(tick=15, channel=0, data=[81, 25]),
   midi.NoteOnEvent(tick=1, channel=0, data=[75, 25]),
   midi.NoteOnEvent(tick=0, channel=0, data=[78, 25]),
   midi.NoteOnEvent(tick=47, channel=0, data=[81, 0]),
   midi.NoteOnEvent(tick=1, channel=0, data=[78, 0]),
   midi.NoteOnEvent(tick=0, channel=0, data=[75, 0]),
   midi.NoteOnEvent(tick=10, channel=0, data=[83, 33]),
   midi.NoteOnEvent(tick=38, channel=0, data=[83, 0]),
   midi.NoteOnEvent(tick=19, channel=0, data=[78, 25]),
   midi.NoteOnEvent(tick=1, channel=0, data=[75, 25]),
   midi.NoteOnEvent(tick=0, channel=0, data=[81, 25]),
   midi.NoteOnEvent(tick=44, channel=0, data=[78, 0]),
   midi.NoteOnEvent(tick=1, channel=0, data=[81, 0]),
   midi.NoteOnEvent(tick=0, channel=0, data=[75, 0]),
   midi.NoteOnEvent(tick=16, channel=0, data=[78, 25]),
   midi.NoteOnEvent(tick=0, channel=0, data=[81, 25]),
   midi.NoteOnEvent(tick=1, channel=0, data=[75, 25]),
   midi.NoteOnEvent(tick=47, channel=0, data=[81, 0]),
   midi.NoteOnEvent(tick=0, channel=0, data=[78, 0]),
   midi.NoteOnEvent(tick=1, channel=0, data=[75, 0]),
   midi.NoteOnEvent(tick=10, channel=0, data=[83, 33]),
   midi.NoteOnEvent(tick=38, channel=0, data=[83, 0]),
   midi.NoteOnEvent(tick=23, channel=0, data=[75, 25]),
   midi.NoteOnEvent(tick=2, channel=0, data=[78, 25]),
   midi.NoteOnEvent(tick=1, channel=0, data=[82, 25]),
   midi.NoteOnEvent(tick=45, channel=0, data=[75, 0]),
   midi.NoteOnEvent(tick=2, channel=0, data=[78, 0]),
   midi.NoteOnEvent(tick=1, channel=0, data=[82, 0]),
   midi.NoteOnEvent(tick=11, channel=0, data=[84, 28]),
   midi.NoteOnEvent(tick=38, channel=0, data=[84, 0]),
   midi.NoteOnEvent(tick=19, channel=0, data=[78, 23]),
   midi.NoteOnEvent(tick=2, channel=0, data=[82, 23]),
   midi.NoteOnEvent(tick=2, channel=0, data=[75, 23]),
   midi.NoteOnEvent(tick=41, channel=0, data=[78, 0]),
   midi.NoteOnEvent(tick=2, channel=0, data=[82, 0]),
   midi.NoteOnEvent(tick=2, channel=0, data=[75, 0]),
   midi.NoteOnEvent(tick=11, channel=0, data=[75, 23]),
   midi.NoteOnEvent(tick=1, channel=0, data=[82, 23]),
   midi.NoteOnEvent(tick=3, channel=0, data=[78, 23]),
   midi.NoteOnEvent(tick=44, channel=0, data=[75, 0]),
   midi.NoteOnEvent(tick=1, channel=0, data=[82, 0]),
   midi.NoteOnEvent(tick=3, channel=0, data=[78, 0]),
   midi.NoteOnEvent(tick=8, channel=0, data=[84, 28]),
   midi.NoteOnEvent(tick=38, channel=0, data=[84, 0]),
   midi.NoteOnEvent(tick=23, channel=0, data=[82, 23]),
   midi.NoteOnEvent(tick=1, channel=0, data=[75, 23]),
   midi.NoteOnEvent(tick=0, channel=0, data=[78, 23]),
   midi.NoteOnEvent(tick=44, channel=0, data=[82, 0]),
   midi.NoteOnEvent(tick=1, channel=0, data=[78, 0]),
   midi.NoteOnEvent(tick=0, channel=0, data=[75, 0]),
   midi.NoteOnEvent(tick=13, channel=0, data=[78, 22]),
   midi.NoteOnEvent(tick=0, channel=0, data=[82, 22]),
   midi.NoteOnEvent(tick=1, channel=0, data=[75, 22]),
   midi.NoteOnEvent(tick=47, channel=0, data=[82, 0]),
   midi.NoteOnEvent(tick=0, channel=0, data=[78, 0]),
   midi.NoteOnEvent(tick=1, channel=0, data=[75, 0]),
   midi.NoteOnEvent(tick=11, channel=0, data=[84, 27]),
   midi.NoteOnEvent(tick=38, channel=0, data=[84, 0]),
   midi.NoteOnEvent(tick=25, channel=0, data=[78, 22]),
   midi.NoteOnEvent(tick=0, channel=0, data=[82, 22]),
   midi.NoteOnEvent(tick=1, channel=0, data=[75, 22]),
   midi.NoteOnEvent(tick=47, channel=0, data=[82, 0]),
   midi.NoteOnEvent(tick=0, channel=0, data=[78, 0]),
   midi.NoteOnEvent(tick=1, channel=0, data=[75, 0]),
   midi.NoteOnEvent(tick=10, channel=0, data=[84, 27]),
   midi.NoteOnEvent(tick=38, channel=0, data=[84, 0]),
   midi.NoteOnEvent(tick=20, channel=0, data=[78, 22]),
   midi.NoteOnEvent(tick=3, channel=0, data=[75, 22]),
   midi.NoteOnEvent(tick=0, channel=0, data=[82, 22]),
   midi.NoteOnEvent(tick=42, channel=0, data=[78, 0]),
   midi.NoteOnEvent(tick=3, channel=0, data=[82, 0]),
   midi.NoteOnEvent(tick=0, channel=0, data=[75, 0]),
   midi.NoteOnEvent(tick=11, channel=0, data=[75, 22]),
   midi.NoteOnEvent(tick=4, channel=0, data=[78, 22]),
   midi.NoteOnEvent(tick=1, channel=0, data=[82, 22]),
   midi.NoteOnEvent(tick=43, channel=0, data=[75, 0]),
   midi.NoteOnEvent(tick=4, channel=0, data=[78, 0]),
   midi.NoteOnEvent(tick=1, channel=0, data=[82, 0]),
   midi.NoteOnEvent(tick=9, channel=0, data=[84, 25]),
   midi.NoteOnEvent(tick=38, channel=0, data=[84, 0]),
   midi.NoteOnEvent(tick=20, channel=0, data=[75, 22]),
   midi.NoteOnEvent(tick=0, channel=0, data=[82, 22]),
   midi.NoteOnEvent(tick=2, channel=0, data=[78, 22]),
   midi.NoteOnEvent(tick=43, channel=0, data=[82, 0]),
   midi.NoteOnEvent(tick=0, channel=0, data=[75, 0]),
   midi.NoteOnEvent(tick=2, channel=0, data=[78, 0]),
   midi.NoteOnEvent(tick=16, channel=0, data=[78, 22]),
   midi.NoteOnEvent(tick=0, channel=0, data=[82, 22]),
   midi.NoteOnEvent(tick=2, channel=0, data=[75, 22]),
   midi.NoteOnEvent(tick=46, channel=0, data=[82, 0]),
   midi.NoteOnEvent(tick=0, channel=0, data=[78, 0]),
   midi.NoteOnEvent(tick=2, channel=0, data=[75, 0]),
   midi.NoteOnEvent(tick=10, channel=0, data=[84, 25]),
   midi.NoteOnEvent(tick=38, channel=0, data=[84, 0]),
   midi.NoteOnEvent(tick=22, channel=0, data=[75, 22]),
   midi.NoteOnEvent(tick=0, channel=0, data=[82, 22]),
   midi.NoteOnEvent(tick=1, channel=0, data=[78, 22]),
   midi.NoteOnEvent(tick=47, channel=0, data=[82, 0]),
   midi.NoteOnEvent(tick=0, channel=0, data=[75, 0]),
   midi.NoteOnEvent(tick=1, channel=0, data=[78, 0]),
   midi.NoteOnEvent(tick=12, channel=0, data=[84, 23]),
   midi.NoteOnEvent(tick=38, channel=0, data=[84, 0]),
   midi.NoteOnEvent(tick=18, channel=0, data=[82, 18]),
   midi.NoteOnEvent(tick=4, channel=0, data=[75, 18]),
   midi.NoteOnEvent(tick=1, channel=0, data=[78, 18]),
   midi.NoteOnEvent(tick=40, channel=0, data=[82, 0]),
   midi.NoteOnEvent(tick=4, channel=0, data=[75, 0]),
   midi.NoteOnEvent(tick=1, channel=0, data=[78, 0]),
   midi.NoteOnEvent(tick=10, channel=0, data=[82, 22]),
   midi.NoteOnEvent(tick=2, channel=0, data=[75, 22]),
   midi.NoteOnEvent(tick=2, channel=0, data=[78, 22]),
   midi.NoteOnEvent(tick=44, channel=0, data=[82, 0]),
   midi.NoteOnEvent(tick=2, channel=0, data=[75, 0]),
   midi.NoteOnEvent(tick=2, channel=0, data=[78, 0]),
   midi.NoteOnEvent(tick=10, channel=0, data=[84, 25]),
   midi.NoteOnEvent(tick=38, channel=0, data=[84, 0]),
   midi.NoteOnEvent(tick=20, channel=0, data=[75, 22]),
   midi.NoteOnEvent(tick=1, channel=0, data=[82, 22]),
   midi.NoteOnEvent(tick=2, channel=0, data=[78, 22]),
   midi.NoteOnEvent(tick=42, channel=0, data=[75, 0]),
   midi.NoteOnEvent(tick=1, channel=0, data=[82, 0]),
   midi.NoteOnEvent(tick=2, channel=0, data=[78, 0]),
   midi.NoteOnEvent(tick=12, channel=0, data=[75, 22]),
   midi.NoteOnEvent(tick=1, channel=0, data=[78, 22]),
   midi.NoteOnEvent(tick=4, channel=0, data=[82, 22]),
   midi.NoteOnEvent(tick=43, channel=0, data=[75, 0]),
   midi.NoteOnEvent(tick=1, channel=0, data=[78, 0]),
   midi.NoteOnEvent(tick=4, channel=0, data=[82, 0]),
   midi.NoteOnEvent(tick=10, channel=0, data=[84, 27]),
   midi.NoteOnEvent(tick=38, channel=0, data=[84, 0]),
   midi.NoteOnEvent(tick=19, channel=0, data=[78, 23]),
   midi.NoteOnEvent(tick=2, channel=0, data=[81, 23]),
   midi.NoteOnEvent(tick=1, channel=0, data=[75, 23]),
   midi.NoteOnEvent(tick=45, channel=0, data=[78, 0]),
   midi.NoteOnEvent(tick=2, channel=0, data=[81, 0]),
   midi.NoteOnEvent(tick=1, channel=0, data=[75, 0]),
   midi.NoteOnEvent(tick=14, channel=0, data=[83, 30]),
   midi.NoteOnEvent(tick=38, channel=0, data=[83, 0]),
   midi.NoteOnEvent(tick=18, channel=0, data=[81, 25]),
   midi.NoteOnEvent(tick=1, channel=0, data=[78, 25]),
   midi.NoteOnEvent(tick=3, channel=0, data=[75, 25]),
   midi.NoteOnEvent(tick=41, channel=0, data=[81, 0]),
   midi.NoteOnEvent(tick=1, channel=0, data=[78, 0]),
   midi.NoteOnEvent(tick=6, channel=0, data=[75, 0]),
   midi.NoteOnEvent(tick=7, channel=0, data=[78, 25]),
   midi.NoteOnEvent(tick=1, channel=0, data=[75, 25]),
   midi.NoteOnEvent(tick=4, channel=0, data=[81, 25]),
   midi.NoteOnEvent(tick=43, channel=0, data=[78, 0]),
   midi.NoteOnEvent(tick=1, channel=0, data=[75, 0]),
   midi.NoteOnEvent(tick=4, channel=0, data=[81, 0]),
   midi.NoteOnEvent(tick=8, channel=0, data=[83, 31]),
   midi.NoteOnEvent(tick=38, channel=0, data=[83, 0]),
   midi.NoteOnEvent(tick=21, channel=0, data=[75, 27]),
   midi.NoteOnEvent(tick=1, channel=0, data=[78, 27]),
   midi.NoteOnEvent(tick=0, channel=0, data=[81, 27]),
   midi.NoteOnEvent(tick=45, channel=0, data=[81, 0]),
   midi.NoteOnEvent(tick=0, channel=0, data=[78, 0]),
   midi.NoteOnEvent(tick=2, channel=0, data=[75, 0]),
   midi.NoteOnEvent(tick=12, channel=0, data=[81, 27]),
   midi.NoteOnEvent(tick=3, channel=0, data=[78, 27]),
   midi.NoteOnEvent(tick=1, channel=0, data=[75, 27]),
   midi.NoteOnEvent(tick=44, channel=0, data=[81, 0]),
   midi.NoteOnEvent(tick=3, channel=0, data=[78, 0]),
   midi.NoteOnEvent(tick=1, channel=0, data=[75, 0]),
   midi.NoteOnEvent(tick=9, channel=0, data=[83, 33]),
   midi.NoteOnEvent(tick=38, channel=0, data=[83, 0]),
   midi.NoteOnEvent(tick=21, channel=0, data=[73, 25]),
   midi.NoteOnEvent(tick=1, channel=0, data=[78, 25]),
   midi.NoteOnEvent(tick=2, channel=0, data=[81, 25]),
   midi.NoteOnEvent(tick=45, channel=0, data=[73, 0]),
   midi.NoteOnEvent(tick=1, channel=0, data=[78, 0]),
   midi.NoteOnEvent(tick=2, channel=0, data=[81, 0]),
   midi.NoteOnEvent(tick=10, channel=0, data=[83, 30]),
   midi.NoteOnEvent(tick=38, channel=0, data=[83, 0]),
   midi.NoteOnEvent(tick=21, channel=0, data=[78, 25]),
   midi.NoteOnEvent(tick=2, channel=0, data=[81, 25]),
   midi.NoteOnEvent(tick=1, channel=0, data=[73, 25]),
   midi.NoteOnEvent(tick=42, channel=0, data=[78, 0]),
   midi.NoteOnEvent(tick=2, channel=0, data=[81, 0]),
   midi.NoteOnEvent(tick=4, channel=0, data=[73, 0]),
   midi.NoteOnEvent(tick=9, channel=0, data=[81, 25]),
   midi.NoteOnEvent(tick=2, channel=0, data=[78, 25]),
   midi.NoteOnEvent(tick=2, channel=0, data=[73, 25]),
   midi.NoteOnEvent(tick=44, channel=0, data=[81, 0]),
   midi.NoteOnEvent(tick=2, channel=0, data=[78, 0]),
   midi.NoteOnEvent(tick=2, channel=0, data=[73, 0]),
   midi.NoteOnEvent(tick=9, channel=0, data=[83, 33]),
   midi.NoteOnEvent(tick=38, channel=0, data=[83, 0]),
   midi.NoteOnEvent(tick=24, channel=0, data=[81, 25]),
   midi.NoteOnEvent(tick=1, channel=0, data=[73, 25]),
   midi.NoteOnEvent(tick=1, channel=0, data=[78, 25]),
   midi.NoteOnEvent(tick=43, channel=0, data=[81, 0]),
   midi.NoteOnEvent(tick=2, channel=0, data=[78, 0]),
   midi.NoteOnEvent(tick=2, channel=0, data=[73, 0]),
   midi.NoteOnEvent(tick=8, channel=0, data=[78, 27]),
   midi.NoteOnEvent(tick=4, channel=0, data=[81, 27]),
   midi.NoteOnEvent(tick=1, channel=0, data=[73, 27]),
   midi.NoteOnEvent(tick=43, channel=0, data=[78, 0]),
   midi.NoteOnEvent(tick=4, channel=0, data=[81, 0]),
   midi.NoteOnEvent(tick=1, channel=0, data=[73, 0]),
   midi.NoteOnEvent(tick=12, channel=0, data=[83, 33]),
   midi.NoteOnEvent(tick=38, channel=0, data=[83, 0]),
   midi.NoteOnEvent(tick=20, channel=0, data=[73, 28]),
   midi.NoteOnEvent(tick=0, channel=0, data=[81, 28]),
   midi.NoteOnEvent(tick=48, channel=0, data=[81, 0]),
   midi.NoteOnEvent(tick=0, channel=0, data=[73, 0]),
   midi.NoteOnEvent(tick=12, channel=0, data=[83, 36]),
   midi.NoteOnEvent(tick=38, channel=0, data=[83, 0]),
   midi.NoteOnEvent(tick=20, channel=0, data=[81, 28]),
   midi.NoteOnEvent(tick=2, channel=0, data=[73, 28]),
   midi.NoteOnEvent(tick=43, channel=0, data=[81, 0]),
   midi.NoteOnEvent(tick=5, channel=0, data=[73, 0]),
   midi.NoteOnEvent(tick=10, channel=0, data=[81, 28]),
   midi.NoteOnEvent(tick=4, channel=0, data=[73, 28]),
   midi.NoteOnEvent(tick=44, channel=0, data=[81, 0]),
   midi.NoteOnEvent(tick=4, channel=0, data=[73, 0]),
   midi.NoteOnEvent(tick=7, channel=0, data=[83, 36]),
   midi.NoteOnEvent(tick=38, channel=0, data=[83, 0]),
   midi.NoteOnEvent(tick=23, channel=0, data=[73, 25]),
   midi.NoteOnEvent(tick=0, channel=0, data=[81, 25]),
   midi.NoteOnEvent(tick=45, channel=0, data=[81, 0]),
   midi.NoteOnEvent(tick=3, channel=0, data=[73, 0]),
   midi.NoteOnEvent(tick=13, channel=0, data=[73, 25]),
   midi.NoteOnEvent(tick=2, channel=0, data=[81, 25]),
   midi.NoteOnEvent(tick=46, channel=0, data=[73, 0]),
   midi.NoteOnEvent(tick=2, channel=0, data=[81, 0]),
   midi.NoteOnEvent(tick=9, channel=0, data=[83, 33]),
   midi.NoteOnEvent(tick=38, channel=0, data=[83, 0]),
   midi.NoteOnEvent(tick=23, channel=0, data=[78, 23]),
   midi.NoteOnEvent(tick=3, channel=0, data=[73, 23]),
   midi.NoteOnEvent(tick=45, channel=0, data=[78, 0]),
   midi.NoteOnEvent(tick=3, channel=0, data=[73, 0]),
   midi.NoteOnEvent(tick=11, channel=0, data=[83, 25]),
   midi.NoteOnEvent(tick=38, channel=0, data=[83, 0]),
   midi.NoteOnEvent(tick=18, channel=0, data=[78, 22]),
   midi.NoteOnEvent(tick=1, channel=0, data=[73, 22]),
   midi.NoteOnEvent(tick=44, channel=0, data=[78, 0]),
   midi.NoteOnEvent(tick=4, channel=0, data=[73, 0]),
   midi.NoteOnEvent(tick=13, channel=0, data=[78, 22]),
   midi.NoteOnEvent(tick=1, channel=0, data=[73, 22]),
   midi.NoteOnEvent(tick=47, channel=0, data=[78, 0]),
   midi.NoteOnEvent(tick=1, channel=0, data=[73, 0]),
   midi.NoteOnEvent(tick=11, channel=0, data=[83, 28]),
   midi.NoteOnEvent(tick=38, channel=0, data=[83, 0]),
   midi.NoteOnEvent(tick=21, channel=0, data=[81, 23]),
   midi.NoteOnEvent(tick=3, channel=0, data=[78, 23]),
   midi.NoteOnEvent(tick=1, channel=0, data=[73, 23]),
   midi.NoteOnEvent(tick=41, channel=0, data=[81, 0]),
   midi.NoteOnEvent(tick=3, channel=0, data=[78, 0]),
   midi.NoteOnEvent(tick=4, channel=0, data=[73, 0]),
   midi.NoteOnEvent(tick=9, channel=0, data=[73, 23]),
   midi.NoteOnEvent(tick=3, channel=0, data=[78, 23]),
   midi.NoteOnEvent(tick=0, channel=0, data=[81, 23]),
   midi.NoteOnEvent(tick=45, channel=0, data=[78, 0]),
   midi.NoteOnEvent(tick=0, channel=0, data=[73, 0]),
   midi.NoteOnEvent(tick=3, channel=0, data=[81, 0]),
   midi.NoteOnEvent(tick=10, channel=0, data=[83, 33]),
   midi.NoteOnEvent(tick=38, channel=0, data=[83, 0]),
   midi.NoteOnEvent(tick=20, channel=0, data=[75, 25]),
   midi.NoteOnEvent(tick=0, channel=0, data=[78, 25]),
   midi.NoteOnEvent(tick=1, channel=0, data=[81, 25]),
   midi.NoteOnEvent(tick=47, channel=0, data=[78, 0]),
   midi.NoteOnEvent(tick=0, channel=0, data=[75, 0]),
   midi.NoteOnEvent(tick=1, channel=0, data=[81, 0]),
   midi.NoteOnEvent(tick=13, channel=0, data=[83, 33]),
   midi.NoteOnEvent(tick=38, channel=0, data=[83, 0]),
   midi.NoteOnEvent(tick=19, channel=0, data=[81, 23]),
   midi.NoteOnEvent(tick=1, channel=0, data=[75, 23]),
   midi.NoteOnEvent(tick=0, channel=0, data=[78, 23]),
   midi.NoteOnEvent(tick=44, channel=0, data=[81, 0]),
   midi.NoteOnEvent(tick=1, channel=0, data=[78, 0]),
   midi.NoteOnEvent(tick=3, channel=0, data=[75, 0]),
   midi.NoteOnEvent(tick=11, channel=0, data=[75, 25]),
   midi.NoteOnEvent(tick=4, channel=0, data=[78, 25]),
   midi.NoteOnEvent(tick=1, channel=0, data=[81, 25]),
   midi.NoteOnEvent(tick=43, channel=0, data=[75, 0]),
   midi.NoteOnEvent(tick=4, channel=0, data=[78, 0]),
   midi.NoteOnEvent(tick=1, channel=0, data=[81, 0]),
   midi.NoteOnEvent(tick=11, channel=0, data=[83, 31]),
   midi.NoteOnEvent(tick=38, channel=0, data=[83, 0]),
   midi.NoteOnEvent(tick=18, channel=0, data=[78, 25]),
   midi.NoteOnEvent(tick=2, channel=0, data=[81, 25]),
   midi.NoteOnEvent(tick=2, channel=0, data=[75, 25]),
   midi.NoteOnEvent(tick=41, channel=0, data=[78, 0]),
   midi.NoteOnEvent(tick=2, channel=0, data=[81, 0]),
   midi.NoteOnEvent(tick=5, channel=0, data=[75, 0]),
   midi.NoteOnEvent(tick=9, channel=0, data=[81, 25]),
   midi.NoteOnEvent(tick=2, channel=0, data=[75, 25]),
   midi.NoteOnEvent(tick=2, channel=0, data=[78, 25]),
   midi.NoteOnEvent(tick=44, channel=0, data=[81, 0]),
   midi.NoteOnEvent(tick=2, channel=0, data=[75, 0]),
   midi.NoteOnEvent(tick=2, channel=0, data=[78, 0]),
   midi.NoteOnEvent(tick=10, channel=0, data=[83, 33]),
   midi.NoteOnEvent(tick=38, channel=0, data=[83, 0]),
   midi.NoteOnEvent(tick=23, channel=0, data=[75, 25]),
   midi.NoteOnEvent(tick=1, channel=0, data=[78, 25]),
   midi.NoteOnEvent(tick=0, channel=0, data=[81, 25]),
   midi.NoteOnEvent(tick=47, channel=0, data=[75, 0]),
   midi.NoteOnEvent(tick=1, channel=0, data=[81, 0]),
   midi.NoteOnEvent(tick=0, channel=0, data=[78, 0]),
   midi.NoteOnEvent(tick=11, channel=0, data=[83, 36]),
   midi.NoteOnEvent(tick=38, channel=0, data=[83, 0]),
   midi.NoteOnEvent(tick=19, channel=0, data=[78, 27]),
   midi.NoteOnEvent(tick=2, channel=0, data=[75, 27]),
   midi.NoteOnEvent(tick=1, channel=0, data=[81, 27]),
   midi.NoteOnEvent(tick=42, channel=0, data=[78, 0]),
   midi.NoteOnEvent(tick=3, channel=0, data=[81, 0]),
   midi.NoteOnEvent(tick=2, channel=0, data=[75, 0]),
   midi.NoteOnEvent(tick=9, channel=0, data=[75, 28]),
   midi.NoteOnEvent(tick=3, channel=0, data=[78, 28]),
   midi.NoteOnEvent(tick=1, channel=0, data=[81, 28]),
   midi.NoteOnEvent(tick=44, channel=0, data=[75, 0]),
   midi.NoteOnEvent(tick=3, channel=0, data=[78, 0]),
   midi.NoteOnEvent(tick=1, channel=0, data=[81, 0]),
   midi.NoteOnEvent(tick=10, channel=0, data=[83, 36]),
   midi.NoteOnEvent(tick=38, channel=0, data=[83, 0]),
   midi.NoteOnEvent(tick=20, channel=0, data=[78, 28]),
   midi.NoteOnEvent(tick=2, channel=0, data=[81, 28]),
   midi.NoteOnEvent(tick=3, channel=0, data=[73, 28]),
   midi.NoteOnEvent(tick=40, channel=0, data=[78, 0]),
   midi.NoteOnEvent(tick=2, channel=0, data=[81, 0]),
   midi.NoteOnEvent(tick=6, channel=0, data=[73, 0]),
   midi.NoteOnEvent(tick=7, channel=0, data=[73, 30]),
   midi.NoteOnEvent(tick=1, channel=0, data=[81, 30]),
   midi.NoteOnEvent(tick=3, channel=0, data=[78, 30]),
   midi.NoteOnEvent(tick=44, channel=0, data=[73, 0]),
   midi.NoteOnEvent(tick=1, channel=0, data=[81, 0]),
   midi.NoteOnEvent(tick=3, channel=0, data=[78, 0]),
   midi.NoteOnEvent(tick=9, channel=0, data=[83, 38]),
   midi.NoteOnEvent(tick=38, channel=0, data=[83, 0]),
   midi.NoteOnEvent(tick=22, channel=0, data=[78, 28]),
   midi.NoteOnEvent(tick=0, channel=0, data=[81, 28]),
   midi.NoteOnEvent(tick=48, channel=0, data=[81, 0]),
   midi.NoteOnEvent(tick=0, channel=0, data=[78, 0]),
   midi.NoteOnEvent(tick=16, channel=0, data=[83, 36]),
   midi.NoteOnEvent(tick=38, channel=0, data=[83, 0]),
   midi.NoteOnEvent(tick=17, channel=0, data=[81, 27]),
   midi.NoteOnEvent(tick=4, channel=0, data=[78, 27]),
   midi.NoteOnEvent(tick=41, channel=0, data=[81, 0]),
   midi.NoteOnEvent(tick=4, channel=0, data=[78, 0]),
   midi.NoteOnEvent(tick=11, channel=0, data=[81, 27]),
   midi.NoteOnEvent(tick=2, channel=0, data=[78, 27]),
   midi.NoteOnEvent(tick=63, channel=0, data=[77, 27]),
   midi.NoteOnEvent(tick=48, channel=0, data=[77, 0]),
   midi.NoteOnEvent(tick=7, channel=0, data=[81, 0]),
   midi.NoteOnEvent(tick=0, channel=0, data=[83, 33]),
   midi.NoteOnEvent(tick=2, channel=0, data=[78, 0]),
   midi.NoteOnEvent(tick=36, channel=0, data=[83, 0]),
   midi.NoteOnEvent(tick=25, channel=0, data=[77, 25]),
   midi.NoteOnEvent(tick=0, channel=0, data=[81, 25]),
   midi.NoteOnEvent(tick=2, channel=0, data=[78, 25]),
   midi.NoteOnEvent(tick=43, channel=0, data=[81, 0]),
   midi.NoteOnEvent(tick=0, channel=0, data=[77, 0]),
   midi.NoteOnEvent(tick=2, channel=0, data=[78, 0]),
   midi.NoteOnEvent(tick=12, channel=0, data=[78, 25]),
   midi.NoteOnEvent(tick=0, channel=0, data=[81, 25]),
   midi.NoteOnEvent(tick=3, channel=0, data=[77, 25]),
   midi.NoteOnEvent(tick=48, channel=0, data=[77, 0]),
   midi.NoteOnEvent(tick=9, channel=0, data=[75, 25]),
   midi.NoteOnEvent(tick=48, channel=0, data=[75, 0]),
   midi.NoteOnEvent(tick=12, channel=0, data=[81, 0]),
   midi.NoteOnEvent(tick=0, channel=0, data=[78, 0]),
   midi.NoteOnEvent(tick=1, channel=0, data=[83, 33]),
   midi.NoteOnEvent(tick=38, channel=0, data=[83, 0]),
   midi.NoteOnEvent(tick=20, channel=0, data=[81, 23]),
   midi.NoteOnEvent(tick=3, channel=0, data=[75, 23]),
   midi.NoteOnEvent(tick=1, channel=0, data=[78, 23]),
   midi.NoteOnEvent(tick=41, channel=0, data=[81, 0]),
   midi.NoteOnEvent(tick=4, channel=0, data=[78, 0]),
   midi.NoteOnEvent(tick=2, channel=0, data=[75, 0]),
   midi.NoteOnEvent(tick=8, channel=0, data=[75, 23]),
   midi.NoteOnEvent(tick=0, channel=0, data=[81, 23]),
   midi.NoteOnEvent(tick=3, channel=0, data=[78, 23]),
   midi.NoteOnEvent(tick=45, channel=0, data=[81, 0]),
   midi.NoteOnEvent(tick=0, channel=0, data=[75, 0]),
   midi.NoteOnEvent(tick=3, channel=0, data=[78, 0]),
   midi.NoteOnEvent(tick=12, channel=0, data=[83, 30]),
   midi.NoteOnEvent(tick=38, channel=0, data=[83, 0]),
   midi.NoteOnEvent(tick=21, channel=0, data=[75, 23]),
   midi.NoteOnEvent(tick=1, channel=0, data=[81, 23]),
   midi.NoteOnEvent(tick=2, channel=0, data=[78, 23]),
   midi.NoteOnEvent(tick=43, channel=0, data=[81, 0]),
   midi.NoteOnEvent(tick=2, channel=0, data=[78, 0]),
   midi.NoteOnEvent(tick=0, channel=0, data=[75, 0]),
   midi.NoteOnEvent(tick=11, channel=0, data=[75, 23]),
   midi.NoteOnEvent(tick=1, channel=0, data=[78, 23]),
   midi.NoteOnEvent(tick=0, channel=0, data=[81, 23]),
   midi.NoteOnEvent(tick=47, channel=0, data=[75, 0]),
   midi.NoteOnEvent(tick=1, channel=0, data=[81, 0]),
   midi.NoteOnEvent(tick=0, channel=0, data=[78, 0]),
   midi.NoteOnEvent(tick=13, channel=0, data=[83, 28]),
   midi.NoteOnEvent(tick=38, channel=0, data=[83, 0]),
   midi.NoteOnEvent(tick=19, channel=0, data=[78, 23]),
   midi.NoteOnEvent(tick=0, channel=0, data=[81, 23]),
   midi.NoteOnEvent(tick=4, channel=0, data=[73, 23]),
   midi.NoteOnEvent(tick=44, channel=0, data=[81, 0]),
   midi.NoteOnEvent(tick=0, channel=0, data=[78, 0]),
   midi.NoteOnEvent(tick=4, channel=0, data=[73, 0]),
   midi.NoteOnEvent(tick=10, channel=0, data=[83, 30]),
   midi.NoteOnEvent(tick=38, channel=0, data=[83, 0]),
   midi.NoteOnEvent(tick=21, channel=0, data=[73, 23]),
   midi.NoteOnEvent(tick=0, channel=0, data=[78, 23]),
   midi.NoteOnEvent(tick=3, channel=0, data=[81, 23]),
   midi.NoteOnEvent(tick=42, channel=0, data=[78, 0]),
   midi.NoteOnEvent(tick=3, channel=0, data=[81, 0]),
   midi.NoteOnEvent(tick=0, channel=0, data=[73, 0]),
   midi.NoteOnEvent(tick=12, channel=0, data=[78, 23]),
   midi.NoteOnEvent(tick=0, channel=0, data=[81, 23]),
   midi.NoteOnEvent(tick=4, channel=0, data=[73, 23]),
   midi.NoteOnEvent(tick=44, channel=0, data=[81, 0]),
   midi.NoteOnEvent(tick=0, channel=0, data=[78, 0]),
   midi.NoteOnEvent(tick=4, channel=0, data=[73, 0]),
   midi.NoteOnEvent(tick=10, channel=0, data=[83, 33]),
   midi.NoteOnEvent(tick=38, channel=0, data=[83, 0]),
   midi.NoteOnEvent(tick=21, channel=0, data=[75, 25]),
   midi.NoteOnEvent(tick=0, channel=0, data=[81, 25]),
   midi.NoteOnEvent(tick=3, channel=0, data=[78, 25]),
   midi.NoteOnEvent(tick=42, channel=0, data=[81, 0]),
   midi.NoteOnEvent(tick=3, channel=0, data=[78, 0]),
   midi.NoteOnEvent(tick=0, channel=0, data=[75, 0]),
   midi.NoteOnEvent(tick=12, channel=0, data=[75, 25]),
   midi.NoteOnEvent(tick=0, channel=0, data=[78, 25]),
   midi.NoteOnEvent(tick=0, channel=0, data=[81, 25]),
   midi.NoteOnEvent(tick=48, channel=0, data=[81, 0]),
   midi.NoteOnEvent(tick=0, channel=0, data=[78, 0]),
   midi.NoteOnEvent(tick=0, channel=0, data=[75, 0]),
   midi.NoteOnEvent(tick=13, channel=0, data=[83, 33]),
   midi.NoteOnEvent(tick=38, channel=0, data=[83, 0]),
   midi.NoteOnEvent(tick=21, channel=0, data=[81, 25]),
   midi.NoteOnEvent(tick=3, channel=0, data=[78, 25]),
   midi.NoteOnEvent(tick=45, channel=0, data=[81, 0]),
   midi.NoteOnEvent(tick=3, channel=0, data=[78, 0]),
   midi.NoteOnEvent(tick=9, channel=0, data=[83, 33]),
   midi.NoteOnEvent(tick=48, channel=0, data=[83, 0]),
   midi.NoteOnEvent(tick=13, channel=0, data=[81, 25]),
   midi.NoteOnEvent(tick=2, channel=0, data=[78, 25]),
   midi.NoteOnEvent(tick=43, channel=0, data=[81, 0]),
   midi.NoteOnEvent(tick=2, channel=0, data=[78, 0]),
   midi.NoteOnEvent(tick=12, channel=0, data=[78, 25]),
   midi.NoteOnEvent(tick=1, channel=0, data=[81, 25]),
   midi.NoteOnEvent(tick=61, channel=0, data=[77, 25]),
   midi.NoteOnEvent(tick=48, channel=0, data=[77, 0]),
   midi.NoteOnEvent(tick=8, channel=0, data=[83, 33]),
   midi.NoteOnEvent(tick=2, channel=0, data=[78, 0]),
   midi.NoteOnEvent(tick=1, channel=0, data=[81, 0]),
   midi.NoteOnEvent(tick=35, channel=0, data=[83, 0]),
   midi.NoteOnEvent(tick=22, channel=0, data=[77, 25]),
   midi.NoteOnEvent(tick=0, channel=0, data=[81, 25]),
   midi.NoteOnEvent(tick=1, channel=0, data=[78, 25]),
   midi.NoteOnEvent(tick=44, channel=0, data=[81, 0]),
   midi.NoteOnEvent(tick=0, channel=0, data=[77, 0]),
   midi.NoteOnEvent(tick=1, channel=0, data=[78, 0]),
   midi.NoteOnEvent(tick=15, channel=0, data=[77, 25]),
   midi.NoteOnEvent(tick=1, channel=0, data=[78, 25]),
   midi.NoteOnEvent(tick=1, channel=0, data=[81, 25]),
   midi.NoteOnEvent(tick=46, channel=0, data=[77, 0]),
   midi.NoteOnEvent(tick=1, channel=0, data=[78, 0]),
   midi.NoteOnEvent(tick=1, channel=0, data=[81, 0]),
   midi.NoteOnEvent(tick=9, channel=0, data=[78, 25]),
   midi.NoteOnEvent(tick=1, channel=0, data=[73, 25]),
   midi.NoteOnEvent(tick=2, channel=0, data=[81, 25]),
   midi.NoteOnEvent(tick=45, channel=0, data=[78, 0]),
   midi.NoteOnEvent(tick=1, channel=0, data=[73, 0]),
   midi.NoteOnEvent(tick=2, channel=0, data=[81, 0]),
   midi.NoteOnEvent(tick=9, channel=0, data=[83, 27]),
   midi.NoteOnEvent(tick=38, channel=0, data=[83, 0]),
   midi.NoteOnEvent(tick=23, channel=0, data=[73, 23]),
   midi.NoteOnEvent(tick=1, channel=0, data=[81, 23]),
   midi.NoteOnEvent(tick=2, channel=0, data=[78, 23]),
   midi.NoteOnEvent(tick=43, channel=0, data=[81, 0]),
   midi.NoteOnEvent(tick=2, channel=0, data=[78, 0]),
   midi.NoteOnEvent(tick=0, channel=0, data=[73, 0]),
   midi.NoteOnEvent(tick=11, channel=0, data=[81, 23]),
   midi.NoteOnEvent(tick=1, channel=0, data=[78, 23]),
   midi.NoteOnEvent(tick=4, channel=0, data=[73, 23]),
   midi.NoteOnEvent(tick=43, channel=0, data=[81, 0]),
   midi.NoteOnEvent(tick=1, channel=0, data=[78, 0]),
   midi.NoteOnEvent(tick=4, channel=0, data=[73, 0]),
   midi.NoteOnEvent(tick=10, channel=0, data=[83, 27]),
   midi.NoteOnEvent(tick=38, channel=0, data=[83, 0]),
   midi.NoteOnEvent(tick=19, channel=0, data=[78, 22]),
   midi.NoteOnEvent(tick=1, channel=0, data=[73, 22]),
   midi.NoteOnEvent(tick=2, channel=0, data=[81, 22]),
   midi.NoteOnEvent(tick=42, channel=0, data=[78, 0]),
   midi.NoteOnEvent(tick=3, channel=0, data=[81, 0]),
   midi.NoteOnEvent(tick=1, channel=0, data=[73, 0]),
   midi.NoteOnEvent(tick=11, channel=0, data=[78, 22]),
   midi.NoteOnEvent(tick=4, channel=0, data=[73, 22]),
   midi.NoteOnEvent(tick=1, channel=0, data=[81, 22]),
   midi.NoteOnEvent(tick=43, channel=0, data=[78, 0]),
   midi.NoteOnEvent(tick=4, channel=0, data=[73, 0]),
   midi.NoteOnEvent(tick=1, channel=0, data=[81, 0]),
   midi.NoteOnEvent(tick=9, channel=0, data=[83, 25]),
   midi.NoteOnEvent(tick=38, channel=0, data=[83, 0]),
   midi.NoteOnEvent(tick=23, channel=0, data=[78, 18]),
   midi.NoteOnEvent(tick=2, channel=0, data=[71, 18]),
   midi.NoteOnEvent(tick=46, channel=0, data=[78, 0]),
   midi.NoteOnEvent(tick=2, channel=0, data=[71, 0]),
   midi.NoteOnEvent(tick=8, channel=0, data=[81, 18]),
   midi.NoteOnEvent(tick=38, channel=0, data=[81, 0]),
   midi.NoteOnEvent(tick=22, channel=0, data=[71, 18]),
   midi.NoteOnEvent(tick=1, channel=0, data=[78, 18]),
   midi.NoteOnEvent(tick=45, channel=0, data=[78, 0]),
   midi.NoteOnEvent(tick=2, channel=0, data=[71, 0]),
   midi.NoteOnEvent(tick=12, channel=0, data=[71, 18]),
   midi.NoteOnEvent(tick=1, channel=0, data=[78, 18]),
   midi.NoteOnEvent(tick=47, channel=0, data=[71, 0]),
   midi.NoteOnEvent(tick=1, channel=0, data=[78, 0]),
   midi.NoteOnEvent(tick=12, channel=0, data=[81, 18]),
   midi.NoteOnEvent(tick=2, channel=0, data=[73, 18]),
   midi.NoteOnEvent(tick=1, channel=0, data=[78, 18]),
   midi.NoteOnEvent(tick=45, channel=0, data=[81, 0]),
   midi.NoteOnEvent(tick=2, channel=0, data=[73, 0]),
   midi.NoteOnEvent(tick=1, channel=0, data=[78, 0]),
   midi.NoteOnEvent(tick=9, channel=0, data=[83, 22]),
   midi.NoteOnEvent(tick=38, channel=0, data=[83, 0]),
   midi.NoteOnEvent(tick=20, channel=0, data=[81, 17]),
   midi.NoteOnEvent(tick=4, channel=0, data=[73, 17]),
   midi.NoteOnEvent(tick=0, channel=0, data=[78, 17]),
   midi.NoteOnEvent(tick=41, channel=0, data=[81, 0]),
   midi.NoteOnEvent(tick=4, channel=0, data=[78, 0]),
   midi.NoteOnEvent(tick=3, channel=0, data=[73, 0]),
   midi.NoteOnEvent(tick=8, channel=0, data=[73, 16]),
   midi.NoteOnEvent(tick=4, channel=0, data=[78, 16]),
   midi.NoteOnEvent(tick=1, channel=0, data=[81, 16]),
   midi.NoteOnEvent(tick=43, channel=0, data=[73, 0]),
   midi.NoteOnEvent(tick=4, channel=0, data=[78, 0]),
   midi.NoteOnEvent(tick=1, channel=0, data=[81, 0]),
   midi.NoteOnEvent(tick=7, channel=0, data=[77, 22]),
   midi.NoteOnEvent(tick=3, channel=0, data=[80, 22]),
   midi.NoteOnEvent(tick=42, channel=0, data=[77, 0]),
   midi.NoteOnEvent(tick=3, channel=0, data=[80, 0]),
   midi.NoteOnEvent(tick=13, channel=0, data=[81, 27]),
   midi.NoteOnEvent(tick=45, channel=0, data=[81, 0]),
   midi.NoteOnEvent(tick=17, channel=0, data=[80, 27]),
   midi.NoteOnEvent(tick=1, channel=0, data=[77, 27]),
   midi.NoteOnEvent(tick=31, channel=0, data=[80, 0]),
   midi.NoteOnEvent(tick=1, channel=0, data=[77, 0]),
   midi.NoteOnEvent(tick=26, channel=0, data=[80, 27]),
   midi.NoteOnEvent(tick=45, channel=0, data=[80, 0]),
   midi.NoteOnEvent(tick=15, channel=0, data=[93, 33]),
   midi.NoteOnEvent(tick=45, channel=0, data=[93, 0]),
   midi.NoteOnEvent(tick=17, channel=0, data=[92, 33]),
   midi.NoteOnEvent(tick=1, channel=0, data=[89, 33]),
   midi.NoteOnEvent(tick=44, channel=0, data=[92, 0]),
   midi.NoteOnEvent(tick=1, channel=0, data=[89, 0]),
   midi.NoteOnEvent(tick=14, channel=0, data=[80, 27]),
   midi.NoteOnEvent(tick=45, channel=0, data=[80, 0]),
   midi.NoteOnEvent(tick=12, channel=0, data=[81, 27]),
   midi.NoteOnEvent(tick=45, channel=0, data=[81, 0]),
   midi.NoteOnEvent(tick=18, channel=0, data=[80, 27]),
   midi.NoteOnEvent(tick=1, channel=0, data=[77, 27]),
   midi.NoteOnEvent(tick=44, channel=0, data=[80, 0]),
   midi.NoteOnEvent(tick=1, channel=0, data=[77, 0]),
   midi.NoteOnEvent(tick=13, channel=0, data=[81, 25]),
   midi.NoteOnEvent(tick=45, channel=0, data=[81, 0]),
   midi.NoteOnEvent(tick=12, channel=0, data=[80, 25]),
   midi.NoteOnEvent(tick=1, channel=0, data=[77, 25]),
   midi.NoteOnEvent(tick=44, channel=0, data=[80, 0]),
   midi.NoteOnEvent(tick=1, channel=0, data=[77, 0]),
   midi.NoteOnEvent(tick=14, channel=0, data=[68, 28]),
   midi.NoteOnEvent(tick=45, channel=0, data=[68, 0]),
   midi.NoteOnEvent(tick=17, channel=0, data=[69, 30]),
   midi.NoteOnEvent(tick=45, channel=0, data=[69, 0]),
   midi.NoteOnEvent(tick=13, channel=0, data=[65, 28]),
   midi.NoteOnEvent(tick=0, channel=0, data=[68, 28]),
   midi.NoteOnEvent(tick=45, channel=0, data=[68, 0]),
   midi.NoteOnEvent(tick=0, channel=0, data=[65, 0]),
   midi.NoteOnEvent(tick=20, channel=0, data=[68, 28]),
   midi.NoteOnEvent(tick=45, channel=0, data=[68, 0]),
   midi.NoteOnEvent(tick=12, channel=0, data=[81, 31]),
   midi.NoteOnEvent(tick=45, channel=0, data=[81, 0]),
   midi.NoteOnEvent(tick=13, channel=0, data=[77, 28]),
   midi.NoteOnEvent(tick=0, channel=0, data=[80, 28]),
   midi.NoteOnEvent(tick=45, channel=0, data=[80, 0]),
   midi.NoteOnEvent(tick=0, channel=0, data=[77, 0]),
   midi.NoteOnEvent(tick=15, channel=0, data=[81, 30]),
   midi.NoteOnEvent(tick=45, channel=0, data=[81, 0]),
   midi.NoteOnEvent(tick=17, channel=0, data=[77, 28]),
   midi.NoteOnEvent(tick=1, channel=0, data=[80, 28]),
   midi.NoteOnEvent(tick=31, channel=0, data=[77, 0]),
   midi.NoteOnEvent(tick=1, channel=0, data=[80, 0]),
   midi.NoteOnEvent(tick=28, channel=0, data=[80, 28]),
   midi.NoteOnEvent(tick=45, channel=0, data=[80, 0]),
   midi.NoteOnEvent(tick=15, channel=0, data=[93, 31]),
   midi.NoteOnEvent(tick=45, channel=0, data=[93, 0]),
   midi.NoteOnEvent(tick=12, channel=0, data=[92, 31]),
   midi.NoteOnEvent(tick=3, channel=0, data=[89, 31]),
   midi.NoteOnEvent(tick=42, channel=0, data=[92, 0]),
   midi.NoteOnEvent(tick=3, channel=0, data=[89, 0]),
   midi.NoteOnEvent(tick=15, channel=0, data=[80, 23]),
   midi.NoteOnEvent(tick=45, channel=0, data=[80, 0]),
   midi.NoteOnEvent(tick=14, channel=0, data=[81, 25]),
   midi.NoteOnEvent(tick=45, channel=0, data=[81, 0]),
   midi.NoteOnEvent(tick=13, channel=0, data=[80, 25]),
   midi.NoteOnEvent(tick=2, channel=0, data=[77, 25]),
   midi.NoteOnEvent(tick=43, channel=0, data=[80, 0]),
   midi.NoteOnEvent(tick=2, channel=0, data=[77, 0]),
   midi.NoteOnEvent(tick=16, channel=0, data=[81, 25]),
   midi.NoteOnEvent(tick=45, channel=0, data=[81, 0]),
   midi.NoteOnEvent(tick=16, channel=0, data=[77, 25]),
   midi.NoteOnEvent(tick=0, channel=0, data=[80, 25]),
   midi.NoteOnEvent(tick=45, channel=0, data=[80, 0]),
   midi.NoteOnEvent(tick=0, channel=0, data=[77, 0]),
   midi.NoteOnEvent(tick=14, channel=0, data=[68, 28]),
   midi.NoteOnEvent(tick=45, channel=0, data=[68, 0]),
   midi.NoteOnEvent(tick=13, channel=0, data=[69, 30]),
   midi.NoteOnEvent(tick=45, channel=0, data=[69, 0]),
   midi.NoteOnEvent(tick=18, channel=0, data=[68, 25]),
   midi.NoteOnEvent(tick=1, channel=0, data=[65, 25]),
   midi.NoteOnEvent(tick=44, channel=0, data=[68, 0]),
   midi.NoteOnEvent(tick=1, channel=0, data=[65, 0]),
   midi.NoteOnEvent(tick=15, channel=0, data=[68, 25]),
   midi.NoteOnEvent(tick=45, channel=0, data=[68, 0]),
   midi.NoteOnEvent(tick=15, channel=0, data=[81, 28]),
   midi.NoteOnEvent(tick=45, channel=0, data=[81, 0]),
   midi.NoteOnEvent(tick=10, channel=0, data=[80, 25]),
   midi.NoteOnEvent(tick=3, channel=0, data=[77, 25]),
   midi.NoteOnEvent(tick=42, channel=0, data=[80, 0]),
   midi.NoteOnEvent(tick=3, channel=0, data=[77, 0]),
   midi.NoteOnEvent(tick=14, channel=0, data=[81, 27]),
   midi.NoteOnEvent(tick=45, channel=0, data=[81, 0]),
   midi.NoteOnEvent(tick=14, channel=0, data=[77, 27]),
   midi.NoteOnEvent(tick=4, channel=0, data=[80, 27]),
   midi.NoteOnEvent(tick=28, channel=0, data=[77, 0]),
   midi.NoteOnEvent(tick=4, channel=0, data=[80, 0]),
   midi.NoteOnEvent(tick=24, channel=0, data=[80, 27]),
   midi.NoteOnEvent(tick=45, channel=0, data=[80, 0]),
   midi.NoteOnEvent(tick=18, channel=0, data=[93, 30]),
   midi.NoteOnEvent(tick=45, channel=0, data=[93, 0]),
   midi.NoteOnEvent(tick=16, channel=0, data=[89, 30]),
   midi.NoteOnEvent(tick=0, channel=0, data=[92, 30]),
   midi.NoteOnEvent(tick=45, channel=0, data=[92, 0]),
   midi.NoteOnEvent(tick=0, channel=0, data=[89, 0]),
   midi.NoteOnEvent(tick=15, channel=0, data=[80, 27]),
   midi.NoteOnEvent(tick=45, channel=0, data=[80, 0]),
   midi.NoteOnEvent(tick=13, channel=0, data=[81, 27]),
   midi.NoteOnEvent(tick=45, channel=0, data=[81, 0]),
   midi.NoteOnEvent(tick=13, channel=0, data=[80, 27]),
   midi.NoteOnEvent(tick=1, channel=0, data=[77, 27]),
   midi.NoteOnEvent(tick=44, channel=0, data=[80, 0]),
   midi.NoteOnEvent(tick=1, channel=0, data=[77, 0]),
   midi.NoteOnEvent(tick=14, channel=0, data=[81, 25]),
   midi.NoteOnEvent(tick=45, channel=0, data=[81, 0]),
   midi.NoteOnEvent(tick=14, channel=0, data=[80, 25]),
   midi.NoteOnEvent(tick=5, channel=0, data=[77, 25]),
   midi.NoteOnEvent(tick=27, channel=0, data=[80, 0]),
   midi.NoteOnEvent(tick=5, channel=0, data=[77, 0]),
   midi.NoteOnEvent(tick=25, channel=0, data=[68, 23]),
   midi.NoteOnEvent(tick=45, channel=0, data=[68, 0]),
   midi.NoteOnEvent(tick=13, channel=0, data=[69, 30]),
   midi.NoteOnEvent(tick=45, channel=0, data=[69, 0]),
   midi.NoteOnEvent(tick=15, channel=0, data=[68, 25]),
   midi.NoteOnEvent(tick=4, channel=0, data=[65, 25]),
   midi.NoteOnEvent(tick=41, channel=0, data=[68, 0]),
   midi.NoteOnEvent(tick=4, channel=0, data=[65, 0]),
   midi.NoteOnEvent(tick=11, channel=0, data=[68, 25]),
   midi.NoteOnEvent(tick=45, channel=0, data=[68, 0]),
   midi.NoteOnEvent(tick=20, channel=0, data=[81, 25]),
   midi.NoteOnEvent(tick=45, channel=0, data=[81, 0]),
   midi.NoteOnEvent(tick=11, channel=0, data=[77, 25]),
   midi.NoteOnEvent(tick=0, channel=0, data=[80, 25]),
   midi.NoteOnEvent(tick=45, channel=0, data=[80, 0]),
   midi.NoteOnEvent(tick=0, channel=0, data=[77, 0]),
   midi.NoteOnEvent(tick=17, channel=0, data=[81, 25]),
   midi.NoteOnEvent(tick=45, channel=0, data=[81, 0]),
   midi.NoteOnEvent(tick=16, channel=0, data=[77, 25]),
   midi.NoteOnEvent(tick=1, channel=0, data=[80, 25]),
   midi.NoteOnEvent(tick=31, channel=0, data=[77, 0]),
   midi.NoteOnEvent(tick=1, channel=0, data=[80, 0]),
   midi.NoteOnEvent(tick=27, channel=0, data=[80, 25]),
   midi.NoteOnEvent(tick=45, channel=0, data=[80, 0]),
   midi.NoteOnEvent(tick=13, channel=0, data=[93, 33]),
   midi.NoteOnEvent(tick=45, channel=0, data=[93, 0]),
   midi.NoteOnEvent(tick=14, channel=0, data=[89, 33]),
   midi.NoteOnEvent(tick=3, channel=0, data=[92, 33]),
   midi.NoteOnEvent(tick=42, channel=0, data=[89, 0]),
   midi.NoteOnEvent(tick=3, channel=0, data=[92, 0]),
   midi.NoteOnEvent(tick=13, channel=0, data=[80, 27]),
   midi.NoteOnEvent(tick=45, channel=0, data=[80, 0]),
   midi.NoteOnEvent(tick=15, channel=0, data=[81, 27]),
   midi.NoteOnEvent(tick=45, channel=0, data=[81, 0]),
   midi.NoteOnEvent(tick=17, channel=0, data=[80, 27]),
   midi.NoteOnEvent(tick=1, channel=0, data=[77, 27]),
   midi.NoteOnEvent(tick=44, channel=0, data=[80, 0]),
   midi.NoteOnEvent(tick=1, channel=0, data=[77, 0]),
   midi.NoteOnEvent(tick=10, channel=0, data=[81, 27]),
   midi.NoteOnEvent(tick=45, channel=0, data=[81, 0]),
   midi.NoteOnEvent(tick=17, channel=0, data=[80, 27]),
   midi.NoteOnEvent(tick=1, channel=0, data=[77, 27]),
   midi.NoteOnEvent(tick=31, channel=0, data=[80, 0]),
   midi.NoteOnEvent(tick=1, channel=0, data=[77, 0]),
   midi.NoteOnEvent(tick=29, channel=0, data=[68, 25]),
   midi.NoteOnEvent(tick=45, channel=0, data=[68, 0]),
   midi.NoteOnEvent(tick=14, channel=0, data=[69, 30]),
   midi.NoteOnEvent(tick=45, channel=0, data=[69, 0]),
   midi.NoteOnEvent(tick=14, channel=0, data=[68, 25]),
   midi.NoteOnEvent(tick=1, channel=0, data=[65, 25]),
   midi.NoteOnEvent(tick=44, channel=0, data=[68, 0]),
   midi.NoteOnEvent(tick=1, channel=0, data=[65, 0]),
   midi.NoteOnEvent(tick=12, channel=0, data=[68, 25]),
   midi.NoteOnEvent(tick=45, channel=0, data=[68, 0]),
   midi.NoteOnEvent(tick=16, channel=0, data=[81, 27]),
   midi.NoteOnEvent(tick=30, channel=0, data=[81, 0]),
   midi.NoteOnEvent(tick=1, channel=0, data=[76, 41]),
   midi.NoteOnEvent(tick=15, channel=0, data=[80, 45]),
   midi.NoteOnEvent(tick=15, channel=0, data=[87, 67]),
   midi.NoteOnEvent(tick=240, channel=0, data=[80, 0]),
   midi.NoteOnEvent(tick=0, channel=0, data=[76, 0]),
   midi.NoteOnEvent(tick=0, channel=0, data=[85, 61]),
   midi.NoteOnEvent(tick=10, channel=0, data=[87, 0]),
   midi.NoteOnEvent(tick=230, channel=0, data=[80, 60]),
   midi.NoteOnEvent(tick=10, channel=0, data=[85, 0]),
   midi.NoteOnEvent(tick=50, channel=0, data=[78, 42]),
   midi.NoteOnEvent(tick=60, channel=0, data=[78, 0]),
   midi.NoteOnEvent(tick=0, channel=0, data=[76, 40]),
   midi.NoteOnEvent(tick=60, channel=0, data=[76, 0]),
   midi.NoteOnEvent(tick=0, channel=0, data=[73, 38]),
   midi.NoteOnEvent(tick=60, channel=0, data=[73, 0]),
   midi.NoteOnEvent(tick=240, channel=0, data=[80, 0]),
   midi.NoteOnEvent(tick=0, channel=0, data=[82, 59]),
   midi.NoteOnEvent(tick=240, channel=0, data=[82, 0]),
   midi.NoteOnEvent(tick=0, channel=0, data=[83, 59]),
   midi.NoteOnEvent(tick=240, channel=0, data=[83, 0]),
   midi.NoteOnEvent(tick=0, channel=0, data=[72, 50]),
   midi.NoteOnEvent(tick=0, channel=0, data=[76, 50]),
   midi.NoteOnEvent(tick=0, channel=0, data=[80, 50]),
   midi.NoteOnEvent(tick=0, channel=0, data=[84, 50]),
   midi.NoteOnEvent(tick=104, channel=0, data=[64, 40]),
   midi.NoteOnEvent(tick=34, channel=0, data=[64, 0]),
   midi.NoteOnEvent(tick=0, channel=0, data=[68, 45]),
   midi.NoteOnEvent(tick=34, channel=0, data=[68, 0]),
   midi.NoteOnEvent(tick=0, channel=0, data=[72, 47]),
   midi.NoteOnEvent(tick=34, channel=0, data=[72, 0]),
   midi.NoteOnEvent(tick=0, channel=0, data=[76, 50]),
   midi.NoteOnEvent(tick=36, channel=0, data=[76, 0]),
   midi.NoteOnEvent(tick=38, channel=0, data=[64, 47]),
   midi.NoteOnEvent(tick=40, channel=0, data=[64, 0]),
   midi.NoteOnEvent(tick=0, channel=0, data=[68, 47]),
   midi.NoteOnEvent(tick=40, channel=0, data=[68, 0]),
   midi.NoteOnEvent(tick=0, channel=0, data=[72, 47]),
   midi.NoteOnEvent(tick=30, channel=0, data=[72, 0]),
   midi.NoteOnEvent(tick=10, channel=0, data=[72, 46]),
   midi.NoteOnEvent(tick=40, channel=0, data=[72, 0]),
   midi.NoteOnEvent(tick=0, channel=0, data=[76, 46]),
   midi.NoteOnEvent(tick=40, channel=0, data=[76, 0]),
   midi.NoteOnEvent(tick=0, channel=0, data=[80, 46]),
   midi.NoteOnEvent(tick=40, channel=0, data=[80, 0]),
   midi.NoteOnEvent(tick=0, channel=0, data=[76, 45]),
   midi.NoteOnEvent(tick=40, channel=0, data=[76, 0]),
   midi.NoteOnEvent(tick=0, channel=0, data=[72, 45]),
   midi.NoteOnEvent(tick=30, channel=0, data=[72, 0]),
   midi.NoteOnEvent(tick=10, channel=0, data=[72, 42]),
   midi.NoteOnEvent(tick=40, channel=0, data=[72, 0]),
   midi.NoteOnEvent(tick=0, channel=0, data=[68, 42]),
   midi.NoteOnEvent(tick=40, channel=0, data=[68, 0]),
   midi.NoteOnEvent(tick=0, channel=0, data=[64, 42]),
   midi.NoteOnEvent(tick=40, channel=0, data=[64, 0]),
   midi.NoteOnEvent(tick=240, channel=0, data=[80, 0]),
   midi.NoteOnEvent(tick=0, channel=0, data=[72, 0]),
   midi.NoteOnEvent(tick=0, channel=0, data=[76, 0]),
   midi.NoteOnEvent(tick=0, channel=0, data=[84, 0]),
   midi.NoteOnEvent(tick=0, channel=0, data=[87, 81]),
   midi.NoteOnEvent(tick=240, channel=0, data=[85, 67]),
   midi.NoteOnEvent(tick=10, channel=0, data=[87, 0]),
   midi.NoteOnEvent(tick=230, channel=0, data=[80, 76]),
   midi.NoteOnEvent(tick=10, channel=0, data=[85, 0]),
   midi.NoteOnEvent(tick=50, channel=0, data=[76, 42]),
   midi.NoteOnEvent(tick=60, channel=0, data=[76, 0]),
   midi.NoteOnEvent(tick=0, channel=0, data=[73, 40]),
   midi.NoteOnEvent(tick=60, channel=0, data=[73, 0]),
   midi.NoteOnEvent(tick=0, channel=0, data=[70, 38]),
   midi.NoteOnEvent(tick=60, channel=0, data=[70, 0]),
   midi.NoteOnEvent(tick=240, channel=0, data=[80, 0]),
   midi.NoteOnEvent(tick=0, channel=0, data=[82, 66]),
   midi.NoteOnEvent(tick=240, channel=0, data=[82, 0]),
   midi.NoteOnEvent(tick=0, channel=0, data=[83, 71]),
   midi.NoteOnEvent(tick=240, channel=0, data=[83, 0]),
   midi.NoteOnEvent(tick=0, channel=0, data=[72, 50]),
   midi.NoteOnEvent(tick=0, channel=0, data=[76, 0]),
   midi.NoteOnEvent(tick=0, channel=0, data=[80, 50]),
   midi.NoteOnEvent(tick=0, channel=0, data=[84, 75]),
   midi.NoteOnEvent(tick=104, channel=0, data=[64, 45]),
   midi.NoteOnEvent(tick=34, channel=0, data=[64, 0]),
   midi.NoteOnEvent(tick=0, channel=0, data=[68, 46]),
   midi.NoteOnEvent(tick=34, channel=0, data=[68, 0]),
   midi.NoteOnEvent(tick=0, channel=0, data=[72, 50]),
   midi.NoteOnEvent(tick=34, channel=0, data=[72, 0]),
   midi.NoteOnEvent(tick=0, channel=0, data=[76, 50]),
   midi.NoteOnEvent(tick=36, channel=0, data=[76, 0]),
   midi.NoteOnEvent(tick=38, channel=0, data=[64, 47]),
   midi.NoteOnEvent(tick=40, channel=0, data=[64, 0]),
   midi.NoteOnEvent(tick=0, channel=0, data=[68, 47]),
   midi.NoteOnEvent(tick=40, channel=0, data=[68, 0]),
   midi.NoteOnEvent(tick=0, channel=0, data=[72, 47]),
   midi.NoteOnEvent(tick=30, channel=0, data=[72, 0]),
   midi.NoteOnEvent(tick=10, channel=0, data=[72, 46]),
   midi.NoteOnEvent(tick=40, channel=0, data=[72, 0]),
   midi.NoteOnEvent(tick=0, channel=0, data=[76, 46]),
   midi.NoteOnEvent(tick=40, channel=0, data=[76, 0]),
   midi.NoteOnEvent(tick=0, channel=0, data=[80, 46]),
   midi.NoteOnEvent(tick=40, channel=0, data=[80, 0]),
   midi.NoteOnEvent(tick=0, channel=0, data=[76, 45]),
   midi.NoteOnEvent(tick=40, channel=0, data=[76, 0]),
   midi.NoteOnEvent(tick=0, channel=0, data=[72, 45]),
   midi.NoteOnEvent(tick=30, channel=0, data=[72, 0]),
   midi.NoteOnEvent(tick=10, channel=0, data=[72, 42]),
   midi.NoteOnEvent(tick=40, channel=0, data=[72, 0]),
   midi.NoteOnEvent(tick=0, channel=0, data=[68, 42]),
   midi.NoteOnEvent(tick=40, channel=0, data=[68, 0]),
   midi.NoteOnEvent(tick=0, channel=0, data=[64, 42]),
   midi.NoteOnEvent(tick=40, channel=0, data=[64, 0]),
   midi.NoteOnEvent(tick=210, channel=0, data=[75, 45]),
   midi.NoteOnEvent(tick=15, channel=0, data=[80, 55]),
   midi.NoteOnEvent(tick=15, channel=0, data=[80, 0]),
   midi.NoteOnEvent(tick=0, channel=0, data=[84, 0]),
   midi.NoteOnEvent(tick=0, channel=0, data=[72, 0]),
   midi.NoteOnEvent(tick=0, channel=0, data=[76, 0]),
   midi.NoteOnEvent(tick=0, channel=0, data=[87, 83]),
   midi.NoteOnEvent(tick=240, channel=0, data=[80, 0]),
   midi.NoteOnEvent(tick=0, channel=0, data=[75, 0]),
   midi.NoteOnEvent(tick=0, channel=0, data=[73, 67]),
   midi.NoteOnEvent(tick=0, channel=0, data=[85, 67]),
   midi.NoteOnEvent(tick=10, channel=0, data=[87, 0]),
   midi.NoteOnEvent(tick=230, channel=0, data=[73, 0]),
   midi.NoteOnEvent(tick=0, channel=0, data=[80, 76]),
   midi.NoteOnEvent(tick=10, channel=0, data=[85, 0]),
   midi.NoteOnEvent(tick=38, channel=0, data=[78, 42]),
   midi.NoteOnEvent(tick=48, channel=0, data=[78, 0]),
   midi.NoteOnEvent(tick=0, channel=0, data=[73, 40]),
   midi.NoteOnEvent(tick=48, channel=0, data=[73, 0]),
   midi.NoteOnEvent(tick=0, channel=0, data=[68, 38]),
   midi.NoteOnEvent(tick=48, channel=0, data=[68, 0]),
   midi.NoteOnEvent(tick=0, channel=0, data=[66, 40]),
   midi.NoteOnEvent(tick=48, channel=0, data=[66, 0]),
   midi.NoteOnEvent(tick=240, channel=0, data=[80, 0]),
   midi.NoteOnEvent(tick=0, channel=0, data=[70, 65]),
   midi.NoteOnEvent(tick=0, channel=0, data=[82, 65]),
   midi.NoteOnEvent(tick=240, channel=0, data=[82, 0]),
   midi.NoteOnEvent(tick=0, channel=0, data=[70, 0]),
   midi.NoteOnEvent(tick=0, channel=0, data=[71, 68]),
   midi.NoteOnEvent(tick=0, channel=0, data=[83, 68]),
   midi.NoteOnEvent(tick=240, channel=0, data=[83, 0]),
   midi.NoteOnEvent(tick=0, channel=0, data=[71, 0]),
   midi.NoteOnEvent(tick=0, channel=0, data=[84, 71]),
   midi.NoteOnEvent(tick=0, channel=0, data=[92, 71]),
   midi.NoteOnEvent(tick=0, channel=0, data=[80, 71]),
   midi.NoteOnEvent(tick=240, channel=0, data=[80, 0]),
   midi.NoteOnEvent(tick=0, channel=0, data=[84, 0]),
   midi.NoteOnEvent(tick=0, channel=0, data=[88, 68]),
   midi.NoteOnEvent(tick=0, channel=0, data=[76, 68]),
   midi.NoteOnEvent(tick=10, channel=0, data=[92, 0]),
   midi.NoteOnEvent(tick=230, channel=0, data=[76, 0]),
   midi.NoteOnEvent(tick=0, channel=0, data=[72, 66]),
   midi.NoteOnEvent(tick=0, channel=0, data=[76, 66]),
   midi.NoteOnEvent(tick=0, channel=0, data=[84, 66]),
   midi.NoteOnEvent(tick=10, channel=0, data=[88, 0]),
   midi.NoteOnEvent(tick=470, channel=0, data=[72, 0]),
   midi.NoteOnEvent(tick=0, channel=0, data=[76, 0]),
   midi.NoteOnEvent(tick=0, channel=0, data=[84, 0]),
   midi.NoteOnEvent(tick=0, channel=0, data=[85, 57]),
   midi.NoteOnEvent(tick=0, channel=0, data=[73, 57]),
   midi.NoteOnEvent(tick=0, channel=0, data=[80, 57]),
   midi.NoteOnEvent(tick=160, channel=0, data=[73, 0]),
   midi.NoteOnEvent(tick=0, channel=0, data=[85, 0]),
   midi.NoteOnEvent(tick=0, channel=0, data=[87, 56]),
   midi.NoteOnEvent(tick=0, channel=0, data=[75, 56]),
   midi.NoteOnEvent(tick=160, channel=0, data=[75, 0]),
   midi.NoteOnEvent(tick=0, channel=0, data=[87, 0]),
   midi.NoteOnEvent(tick=0, channel=0, data=[88, 53]),
   midi.NoteOnEvent(tick=0, channel=0, data=[76, 53]),
   midi.NoteOnEvent(tick=160, channel=0, data=[76, 0]),
   midi.NoteOnEvent(tick=0, channel=0, data=[88, 0]),
   midi.NoteOnEvent(tick=0, channel=0, data=[80, 0]),
   midi.NoteOnEvent(tick=0, channel=0, data=[94, 53]),
   midi.NoteOnEvent(tick=0, channel=0, data=[87, 53]),
   midi.NoteOnEvent(tick=0, channel=0, data=[82, 53]),
   midi.NoteOnEvent(tick=480, channel=0, data=[82, 0]),
   midi.NoteOnEvent(tick=0, channel=0, data=[87, 0]),
   midi.NoteOnEvent(tick=0, channel=0, data=[94, 0]),
   midi.NoteOnEvent(tick=0, channel=0, data=[92, 53]),
   midi.NoteOnEvent(tick=0, channel=0, data=[89, 53]),
   midi.NoteOnEvent(tick=0, channel=0, data=[80, 53]),
   midi.NoteOnEvent(tick=480, channel=0, data=[80, 0]),
   midi.NoteOnEvent(tick=0, channel=0, data=[89, 0]),
   midi.NoteOnEvent(tick=0, channel=0, data=[92, 0]),
   midi.NoteOnEvent(tick=0, channel=0, data=[72, 42]),
   midi.NoteOnEvent(tick=0, channel=0, data=[75, 42]),
   midi.NoteOnEvent(tick=0, channel=0, data=[79, 42]),
   midi.NoteOnEvent(tick=0, channel=0, data=[84, 42]),
   midi.NoteOnEvent(tick=480, channel=0, data=[84, 0]),
   midi.NoteOnEvent(tick=0, channel=0, data=[72, 0]),
   midi.NoteOnEvent(tick=0, channel=0, data=[75, 0]),
   midi.NoteOnEvent(tick=0, channel=0, data=[79, 0]),
   midi.NoteOnEvent(tick=0, channel=0, data=[82, 62]),
   midi.NoteOnEvent(tick=960, channel=0, data=[82, 0]),
   midi.NoteOnEvent(tick=0, channel=0, data=[81, 65]),
   midi.NoteOnEvent(tick=240, channel=0, data=[84, 68]),
   midi.NoteOnEvent(tick=10, channel=0, data=[81, 0]),
   midi.NoteOnEvent(tick=230, channel=0, data=[82, 63]),
   midi.NoteOnEvent(tick=10, channel=0, data=[84, 0]),
   midi.NoteOnEvent(tick=710, channel=0, data=[82, 0]),
   midi.NoteOnEvent(tick=0, channel=0, data=[82, 67]),
   midi.NoteOnEvent(tick=240, channel=0, data=[82, 0]),
   midi.NoteOnEvent(tick=0, channel=0, data=[81, 72]),
   midi.NoteOnEvent(tick=240, channel=0, data=[85, 67]),
   midi.NoteOnEvent(tick=10, channel=0, data=[81, 0]),
   midi.NoteOnEvent(tick=230, channel=0, data=[82, 63]),
   midi.NoteOnEvent(tick=10, channel=0, data=[85, 0]),
   midi.NoteOnEvent(tick=710, channel=0, data=[82, 0]),
   midi.NoteOnEvent(tick=0, channel=0, data=[70, 63]),
   midi.NoteOnEvent(tick=0, channel=0, data=[82, 63]),
   midi.NoteOnEvent(tick=480, channel=0, data=[82, 0]),
   midi.NoteOnEvent(tick=0, channel=0, data=[70, 0]),
   midi.NoteOnEvent(tick=0, channel=0, data=[82, 62]),
   midi.NoteOnEvent(tick=0, channel=0, data=[77, 62]),
   midi.NoteOnEvent(tick=0, channel=0, data=[89, 62]),
   midi.NoteOnEvent(tick=240, channel=0, data=[89, 0]),
   midi.NoteOnEvent(tick=0, channel=0, data=[77, 0]),
   midi.NoteOnEvent(tick=0, channel=0, data=[82, 0]),
   midi.NoteOnEvent(tick=0, channel=0, data=[78, 53]),
   midi.NoteOnEvent(tick=0, channel=0, data=[89, 53]),
   midi.NoteOnEvent(tick=0, channel=0, data=[82, 53]),
   midi.NoteOnEvent(tick=0, channel=0, data=[77, 53]),
   midi.NoteOnEvent(tick=480, channel=0, data=[77, 0]),
   midi.NoteOnEvent(tick=0, channel=0, data=[78, 0]),
   midi.NoteOnEvent(tick=0, channel=0, data=[89, 0]),
   midi.NoteOnEvent(tick=0, channel=0, data=[82, 0]),
   midi.NoteOnEvent(tick=0, channel=0, data=[87, 60]),
   midi.NoteOnEvent(tick=480, channel=0, data=[87, 0]),
   midi.NoteOnEvent(tick=0, channel=0, data=[70, 42]),
   midi.NoteOnEvent(tick=0, channel=0, data=[75, 42]),
   midi.NoteOnEvent(tick=0, channel=0, data=[78, 42]),
   midi.NoteOnEvent(tick=0, channel=0, data=[82, 42]),
   midi.NoteOnEvent(tick=450, channel=0, data=[67, 38]),
   midi.NoteOnEvent(tick=15, channel=0, data=[75, 38]),
   midi.NoteOnEvent(tick=15, channel=0, data=[82, 0]),
   midi.NoteOnEvent(tick=0, channel=0, data=[78, 0]),
   midi.NoteOnEvent(tick=0, channel=0, data=[70, 0]),
   midi.NoteOnEvent(tick=0, channel=0, data=[75, 0]),
   midi.NoteOnEvent(tick=0, channel=0, data=[79, 55]),
   midi.NoteOnEvent(tick=480, channel=0, data=[79, 0]),
   midi.NoteOnEvent(tick=0, channel=0, data=[75, 0]),
   midi.NoteOnEvent(tick=0, channel=0, data=[67, 0]),
   midi.NoteOnEvent(tick=720, channel=0, data=[79, 66]),
   midi.NoteOnEvent(tick=480, channel=0, data=[79, 0]),
   midi.NoteOnEvent(tick=0, channel=0, data=[81, 72]),
   midi.NoteOnEvent(tick=240, channel=0, data=[81, 0]),
   midi.NoteOnEvent(tick=0, channel=0, data=[76, 70]),
   midi.NoteOnEvent(tick=0, channel=0, data=[72, 70]),
   midi.NoteOnEvent(tick=0, channel=0, data=[84, 70]),
   midi.NoteOnEvent(tick=240, channel=0, data=[84, 0]),
   midi.NoteOnEvent(tick=0, channel=0, data=[72, 0]),
   midi.NoteOnEvent(tick=0, channel=0, data=[76, 0]),
   midi.NoteOnEvent(tick=0, channel=0, data=[82, 68]),
   midi.NoteOnEvent(tick=480, channel=0, data=[82, 0]),
   midi.NoteOnEvent(tick=0, channel=0, data=[80, 67]),
   midi.NoteOnEvent(tick=240, channel=0, data=[80, 0]),
   midi.NoteOnEvent(tick=0, channel=0, data=[61, 53]),
   midi.NoteOnEvent(tick=0, channel=0, data=[69, 53]),
   midi.NoteOnEvent(tick=0, channel=0, data=[73, 53]),
   midi.NoteOnEvent(tick=240, channel=0, data=[73, 0]),
   midi.NoteOnEvent(tick=0, channel=0, data=[69, 0]),
   midi.NoteOnEvent(tick=0, channel=0, data=[61, 0]),
   midi.NoteOnEvent(tick=0, channel=0, data=[66, 62]),
   midi.NoteOnEvent(tick=60, channel=0, data=[63, 38]),
   midi.NoteOnEvent(tick=60, channel=0, data=[63, 0]),
   midi.NoteOnEvent(tick=0, channel=0, data=[61, 36]),
   midi.NoteOnEvent(tick=60, channel=0, data=[61, 0]),
   midi.NoteOnEvent(tick=0, channel=0, data=[57, 35]),
   midi.NoteOnEvent(tick=60, channel=0, data=[57, 0]),
   midi.NoteOnEvent(tick=0, channel=0, data=[54, 33]),
   midi.NoteOnEvent(tick=60, channel=0, data=[54, 0]),
   midi.NoteOnEvent(tick=0, channel=0, data=[49, 33]),
   midi.NoteOnEvent(tick=60, channel=0, data=[49, 0]),
   midi.NoteOnEvent(tick=360, channel=0, data=[66, 0]),
   midi.NoteOnEvent(tick=0, channel=0, data=[68, 50]),
   midi.NoteOnEvent(tick=60, channel=0, data=[63, 36]),
   midi.NoteOnEvent(tick=60, channel=0, data=[63, 0]),
   midi.NoteOnEvent(tick=0, channel=0, data=[60, 36]),
   midi.NoteOnEvent(tick=60, channel=0, data=[60, 0]),
   midi.NoteOnEvent(tick=0, channel=0, data=[57, 36]),
   midi.NoteOnEvent(tick=60, channel=0, data=[57, 0]),
   midi.NoteOnEvent(tick=0, channel=0, data=[68, 0]),
   midi.NoteOnEvent(tick=0, channel=0, data=[57, 35]),
   midi.NoteOnEvent(tick=60, channel=0, data=[57, 0]),
   midi.NoteOnEvent(tick=0, channel=0, data=[54, 35]),
   midi.NoteOnEvent(tick=60, channel=0, data=[54, 0]),
   midi.NoteOnEvent(tick=0, channel=0, data=[51, 35]),
   midi.NoteOnEvent(tick=60, channel=0, data=[51, 0]),
   midi.NoteOnEvent(tick=0, channel=0, data=[48, 35]),
   midi.NoteOnEvent(tick=60, channel=0, data=[48, 0]),
   midi.NoteOnEvent(tick=0, channel=0, data=[59, 33]),
   midi.NoteOnEvent(tick=0, channel=0, data=[63, 33]),
   midi.ControlChangeEvent(tick=0, channel=0, data=[91, 127]),
   midi.NoteOnEvent(tick=48, channel=0, data=[63, 0]),
   midi.NoteOnEvent(tick=0, channel=0, data=[59, 0]),
   midi.NoteOnEvent(tick=12, channel=0, data=[64, 35]),
   midi.NoteOnEvent(tick=38, channel=0, data=[64, 0]),
   midi.NoteOnEvent(tick=22, channel=0, data=[63, 33]),
   midi.NoteOnEvent(tick=45, channel=0, data=[63, 0]),
   midi.NoteOnEvent(tick=15, channel=0, data=[63, 33]),
   midi.NoteOnEvent(tick=48, channel=0, data=[63, 0]),
   midi.NoteOnEvent(tick=10, channel=0, data=[76, 35]),
   midi.NoteOnEvent(tick=38, channel=0, data=[76, 0]),
   midi.NoteOnEvent(tick=25, channel=0, data=[68, 25]),
   midi.NoteOnEvent(tick=1, channel=0, data=[75, 25]),
   midi.NoteOnEvent(tick=1, channel=0, data=[72, 25]),
   midi.NoteOnEvent(tick=43, channel=0, data=[68, 0]),
   midi.NoteOnEvent(tick=1, channel=0, data=[75, 0]),
   midi.NoteOnEvent(tick=1, channel=0, data=[72, 0]),
   midi.NoteOnEvent(tick=11, channel=0, data=[72, 25]),
   midi.NoteOnEvent(tick=1, channel=0, data=[75, 25]),
   midi.NoteOnEvent(tick=3, channel=0, data=[68, 25]),
   midi.NoteOnEvent(tick=44, channel=0, data=[72, 0]),
   midi.NoteOnEvent(tick=1, channel=0, data=[75, 0]),
   midi.NoteOnEvent(tick=3, channel=0, data=[68, 0]),
   midi.NoteOnEvent(tick=8, channel=0, data=[76, 35]),
   midi.NoteOnEvent(tick=38, channel=0, data=[76, 0]),
   midi.NoteOnEvent(tick=23, channel=0, data=[72, 28]),
   midi.NoteOnEvent(tick=3, channel=0, data=[68, 28]),
   midi.NoteOnEvent(tick=0, channel=0, data=[75, 28]),
   midi.NoteOnEvent(tick=45, channel=0, data=[72, 0]),
   midi.NoteOnEvent(tick=3, channel=0, data=[75, 0]),
   midi.NoteOnEvent(tick=0, channel=0, data=[68, 0]),
   midi.NoteOnEvent(tick=7, channel=0, data=[76, 35]),
   midi.NoteOnEvent(tick=38, channel=0, data=[76, 0]),
   midi.NoteOnEvent(tick=22, channel=0, data=[72, 23]),
   midi.NoteOnEvent(tick=2, channel=0, data=[75, 23]),
   midi.NoteOnEvent(tick=1, channel=0, data=[68, 23]),
   midi.NoteOnEvent(tick=42, channel=0, data=[72, 0]),
   midi.NoteOnEvent(tick=2, channel=0, data=[75, 0]),
   midi.NoteOnEvent(tick=1, channel=0, data=[68, 0]),
   midi.NoteOnEvent(tick=12, channel=0, data=[72, 23]),
   midi.NoteOnEvent(tick=5, channel=0, data=[68, 23]),
   midi.NoteOnEvent(tick=0, channel=0, data=[75, 23]),
   midi.NoteOnEvent(tick=43, channel=0, data=[72, 0]),
   midi.NoteOnEvent(tick=5, channel=0, data=[75, 0]),
   midi.NoteOnEvent(tick=0, channel=0, data=[68, 0]),
   midi.NoteOnEvent(tick=8, channel=0, data=[76, 33]),
   midi.NoteOnEvent(tick=38, channel=0, data=[76, 0]),
   midi.NoteOnEvent(tick=22, channel=0, data=[68, 23]),
   midi.NoteOnEvent(tick=1, channel=0, data=[75, 23]),
   midi.NoteOnEvent(tick=2, channel=0, data=[72, 23]),
   midi.NoteOnEvent(tick=42, channel=0, data=[68, 0]),
   midi.NoteOnEvent(tick=1, channel=0, data=[75, 0]),
   midi.NoteOnEvent(tick=2, channel=0, data=[72, 0]),
   midi.NoteOnEvent(tick=12, channel=0, data=[68, 27]),
   midi.NoteOnEvent(tick=2, channel=0, data=[72, 27]),
   midi.NoteOnEvent(tick=0, channel=0, data=[75, 27]),
   midi.NoteOnEvent(tick=46, channel=0, data=[68, 0]),
   midi.NoteOnEvent(tick=2, channel=0, data=[75, 0]),
   midi.NoteOnEvent(tick=0, channel=0, data=[72, 0]),
   midi.NoteOnEvent(tick=11, channel=0, data=[76, 33]),
   midi.NoteOnEvent(tick=38, channel=0, data=[76, 0]),
   midi.NoteOnEvent(tick=22, channel=0, data=[68, 27]),
   midi.NoteOnEvent(tick=1, channel=0, data=[72, 27]),
   midi.NoteOnEvent(tick=0, channel=0, data=[75, 27]),
   midi.NoteOnEvent(tick=47, channel=0, data=[68, 0]),
   midi.NoteOnEvent(tick=1, channel=0, data=[75, 0]),
   midi.NoteOnEvent(tick=0, channel=0, data=[72, 0]),
   midi.NoteOnEvent(tick=14, channel=0, data=[76, 33]),
   midi.NoteOnEvent(tick=38, channel=0, data=[76, 0]),
   midi.NoteOnEvent(tick=20, channel=0, data=[72, 27]),
   midi.NoteOnEvent(tick=1, channel=0, data=[68, 27]),
   midi.NoteOnEvent(tick=0, channel=0, data=[75, 27]),
   midi.NoteOnEvent(tick=44, channel=0, data=[72, 0]),
   midi.NoteOnEvent(tick=1, channel=0, data=[75, 0]),
   midi.NoteOnEvent(tick=0, channel=0, data=[68, 0]),
   midi.NoteOnEvent(tick=12, channel=0, data=[75, 25]),
   midi.NoteOnEvent(tick=1, channel=0, data=[72, 25]),
   midi.NoteOnEvent(tick=1, channel=0, data=[68, 25]),
   midi.NoteOnEvent(tick=46, channel=0, data=[75, 0]),
   midi.NoteOnEvent(tick=1, channel=0, data=[72, 0]),
   midi.NoteOnEvent(tick=1, channel=0, data=[68, 0]),
   midi.NoteOnEvent(tick=13, channel=0, data=[76, 33]),
   midi.NoteOnEvent(tick=38, channel=0, data=[76, 0]),
   midi.NoteOnEvent(tick=19, channel=0, data=[75, 27]),
   midi.NoteOnEvent(tick=2, channel=0, data=[68, 27]),
   midi.NoteOnEvent(tick=2, channel=0, data=[72, 27]),
   midi.NoteOnEvent(tick=41, channel=0, data=[75, 0]),
   midi.NoteOnEvent(tick=2, channel=0, data=[68, 0]),
   midi.NoteOnEvent(tick=2, channel=0, data=[72, 0]),
   midi.NoteOnEvent(tick=11, channel=0, data=[68, 25]),
   midi.NoteOnEvent(tick=2, channel=0, data=[72, 25]),
   midi.NoteOnEvent(tick=1, channel=0, data=[75, 25]),
   midi.NoteOnEvent(tick=45, channel=0, data=[68, 0]),
   midi.NoteOnEvent(tick=2, channel=0, data=[72, 0]),
   midi.NoteOnEvent(tick=1, channel=0, data=[75, 0]),
   midi.NoteOnEvent(tick=11, channel=0, data=[76, 33]),
   midi.NoteOnEvent(tick=48, channel=0, data=[76, 0]),
   midi.NoteOnEvent(tick=9, channel=0, data=[75, 27]),
   midi.NoteOnEvent(tick=2, channel=0, data=[68, 27]),
   midi.NoteOnEvent(tick=0, channel=0, data=[72, 27]),
   midi.NoteOnEvent(tick=46, channel=0, data=[75, 0]),
   midi.NoteOnEvent(tick=2, channel=0, data=[72, 0]),
   midi.NoteOnEvent(tick=0, channel=0, data=[68, 0]),
   midi.NoteOnEvent(tick=14, channel=0, data=[76, 33]),
   midi.NoteOnEvent(tick=38, channel=0, data=[76, 0]),
   midi.NoteOnEvent(tick=21, channel=0, data=[68, 27]),
   midi.NoteOnEvent(tick=0, channel=0, data=[72, 27]),
   midi.NoteOnEvent(tick=1, channel=0, data=[75, 27]),
   midi.NoteOnEvent(tick=44, channel=0, data=[72, 0]),
   midi.NoteOnEvent(tick=0, channel=0, data=[68, 0]),
   midi.NoteOnEvent(tick=1, channel=0, data=[75, 0]),
   midi.NoteOnEvent(tick=11, channel=0, data=[72, 25]),
   midi.NoteOnEvent(tick=3, channel=0, data=[75, 25]),
   midi.NoteOnEvent(tick=1, channel=0, data=[68, 25]),
   midi.NoteOnEvent(tick=44, channel=0, data=[72, 0]),
   midi.NoteOnEvent(tick=3, channel=0, data=[75, 0]),
   midi.NoteOnEvent(tick=1, channel=0, data=[68, 0]),
   midi.NoteOnEvent(tick=13, channel=0, data=[76, 33]),
   midi.NoteOnEvent(tick=38, channel=0, data=[76, 0]),
   midi.NoteOnEvent(tick=20, channel=0, data=[72, 25]),
   midi.NoteOnEvent(tick=1, channel=0, data=[75, 25]),
   midi.NoteOnEvent(tick=1, channel=0, data=[68, 25]),
   midi.NoteOnEvent(tick=43, channel=0, data=[72, 0]),
   midi.NoteOnEvent(tick=1, channel=0, data=[75, 0]),
   midi.NoteOnEvent(tick=1, channel=0, data=[68, 0]),
   midi.NoteOnEvent(tick=10, channel=0, data=[68, 23]),
   midi.NoteOnEvent(tick=4, channel=0, data=[72, 23]),
   midi.NoteOnEvent(tick=1, channel=0, data=[75, 23]),
   midi.NoteOnEvent(tick=43, channel=0, data=[68, 0]),
   midi.NoteOnEvent(tick=4, channel=0, data=[72, 0]),
   midi.NoteOnEvent(tick=1, channel=0, data=[75, 0]),
   midi.NoteOnEvent(tick=8, channel=0, data=[76, 33]),
   midi.NoteOnEvent(tick=38, channel=0, data=[76, 0]),
   midi.NoteOnEvent(tick=22, channel=0, data=[72, 23]),
   midi.NoteOnEvent(tick=0, channel=0, data=[75, 23]),
   midi.NoteOnEvent(tick=2, channel=0, data=[68, 23]),
   midi.NoteOnEvent(tick=46, channel=0, data=[75, 0]),
   midi.NoteOnEvent(tick=0, channel=0, data=[72, 0]),
   midi.NoteOnEvent(tick=2, channel=0, data=[68, 0]),
   midi.NoteOnEvent(tick=9, channel=0, data=[76, 33]),
   midi.NoteOnEvent(tick=38, channel=0, data=[76, 0]),
   midi.NoteOnEvent(tick=26, channel=0, data=[75, 23]),
   midi.NoteOnEvent(tick=1, channel=0, data=[68, 23]),
   midi.NoteOnEvent(tick=0, channel=0, data=[72, 23]),
   midi.NoteOnEvent(tick=44, channel=0, data=[75, 0]),
   midi.NoteOnEvent(tick=1, channel=0, data=[72, 0]),
   midi.NoteOnEvent(tick=0, channel=0, data=[68, 0]),
   midi.NoteOnEvent(tick=10, channel=0, data=[68, 23]),
   midi.NoteOnEvent(tick=0, channel=0, data=[75, 23]),
   midi.NoteOnEvent(tick=1, channel=0, data=[72, 23]),
   midi.NoteOnEvent(tick=47, channel=0, data=[75, 0]),
   midi.NoteOnEvent(tick=0, channel=0, data=[68, 0]),
   midi.NoteOnEvent(tick=1, channel=0, data=[72, 0]),
   midi.NoteOnEvent(tick=11, channel=0, data=[76, 33]),
   midi.NoteOnEvent(tick=38, channel=0, data=[76, 0]),
   midi.NoteOnEvent(tick=25, channel=0, data=[68, 23]),
   midi.NoteOnEvent(tick=0, channel=0, data=[75, 23]),
   midi.NoteOnEvent(tick=1, channel=0, data=[72, 23]),
   midi.NoteOnEvent(tick=44, channel=0, data=[75, 0]),
   midi.NoteOnEvent(tick=0, channel=0, data=[68, 0]),
   midi.NoteOnEvent(tick=1, channel=0, data=[72, 0]),
   midi.NoteOnEvent(tick=12, channel=0, data=[75, 25]),
   midi.NoteOnEvent(tick=1, channel=0, data=[68, 25]),
   midi.NoteOnEvent(tick=0, channel=0, data=[72, 25]),
   midi.NoteOnEvent(tick=47, channel=0, data=[75, 0]),
   midi.NoteOnEvent(tick=1, channel=0, data=[72, 0]),
   midi.NoteOnEvent(tick=0, channel=0, data=[68, 0]),
   midi.NoteOnEvent(tick=12, channel=0, data=[76, 33]),
   midi.NoteOnEvent(tick=38, channel=0, data=[76, 0]),
   midi.NoteOnEvent(tick=20, channel=0, data=[72, 23]),
   midi.NoteOnEvent(tick=1, channel=0, data=[75, 23]),
   midi.NoteOnEvent(tick=2, channel=0, data=[68, 23]),
   midi.NoteOnEvent(tick=45, channel=0, data=[72, 0]),
   midi.NoteOnEvent(tick=1, channel=0, data=[75, 0]),
   midi.NoteOnEvent(tick=2, channel=0, data=[68, 0]),
   midi.NoteOnEvent(tick=13, channel=0, data=[76, 33]),
   midi.NoteOnEvent(tick=38, channel=0, data=[76, 0]),
   midi.NoteOnEvent(tick=19, channel=0, data=[68, 23]),
   midi.NoteOnEvent(tick=3, channel=0, data=[72, 23]),
   midi.NoteOnEvent(tick=1, channel=0, data=[75, 23]),
   midi.NoteOnEvent(tick=41, channel=0, data=[68, 0]),
   midi.NoteOnEvent(tick=3, channel=0, data=[72, 0]),
   midi.NoteOnEvent(tick=1, channel=0, data=[75, 0]),
   midi.NoteOnEvent(tick=11, channel=0, data=[75, 23]),
   midi.NoteOnEvent(tick=3, channel=0, data=[72, 23]),
   midi.NoteOnEvent(tick=1, channel=0, data=[68, 23]),
   midi.NoteOnEvent(tick=44, channel=0, data=[75, 0]),
   midi.NoteOnEvent(tick=3, channel=0, data=[72, 0]),
   midi.NoteOnEvent(tick=1, channel=0, data=[68, 0]),
   midi.NoteOnEvent(tick=12, channel=0, data=[76, 33]),
   midi.NoteOnEvent(tick=38, channel=0, data=[76, 0]),
   midi.NoteOnEvent(tick=17, channel=0, data=[68, 23]),
   midi.NoteOnEvent(tick=0, channel=0, data=[72, 23]),
   midi.NoteOnEvent(tick=4, channel=0, data=[75, 23]),
   midi.NoteOnEvent(tick=41, channel=0, data=[72, 0]),
   midi.NoteOnEvent(tick=0, channel=0, data=[68, 0]),
   midi.NoteOnEvent(tick=4, channel=0, data=[75, 0]),
   midi.NoteOnEvent(tick=14, channel=0, data=[68, 23]),
   midi.NoteOnEvent(tick=0, channel=0, data=[72, 23]),
   midi.NoteOnEvent(tick=2, channel=0, data=[75, 23]),
   midi.NoteOnEvent(tick=46, channel=0, data=[72, 0]),
   midi.NoteOnEvent(tick=0, channel=0, data=[68, 0]),
   midi.NoteOnEvent(tick=2, channel=0, data=[75, 0]),
   midi.NoteOnEvent(tick=7, channel=0, data=[76, 33]),
   midi.NoteOnEvent(tick=38, channel=0, data=[76, 0]),
   midi.NoteOnEvent(tick=23, channel=0, data=[75, 27]),
   midi.NoteOnEvent(tick=2, channel=0, data=[72, 27]),
   midi.NoteOnEvent(tick=2, channel=0, data=[68, 27]),
   midi.NoteOnEvent(tick=44, channel=0, data=[75, 0]),
   midi.NoteOnEvent(tick=2, channel=0, data=[72, 0]),
   midi.NoteOnEvent(tick=2, channel=0, data=[68, 0]),
   midi.NoteOnEvent(tick=7, channel=0, data=[76, 33]),
   midi.NoteOnEvent(tick=38, channel=0, data=[76, 0]),
   midi.NoteOnEvent(tick=23, channel=0, data=[72, 27]),
   midi.NoteOnEvent(tick=0, channel=0, data=[75, 27]),
   midi.NoteOnEvent(tick=2, channel=0, data=[68, 27]),
   midi.NoteOnEvent(tick=43, channel=0, data=[75, 0]),
   midi.NoteOnEvent(tick=0, channel=0, data=[72, 0]),
   midi.NoteOnEvent(tick=2, channel=0, data=[68, 0]),
   midi.NoteOnEvent(tick=15, channel=0, data=[72, 27]),
   midi.NoteOnEvent(tick=0, channel=0, data=[75, 27]),
   midi.NoteOnEvent(tick=2, channel=0, data=[68, 27]),
   midi.NoteOnEvent(tick=46, channel=0, data=[75, 0]),
   midi.NoteOnEvent(tick=0, channel=0, data=[72, 0]),
   midi.NoteOnEvent(tick=2, channel=0, data=[68, 0]),
   midi.NoteOnEvent(tick=7, channel=0, data=[76, 33]),
   midi.NoteOnEvent(tick=38, channel=0, data=[76, 0]),
   midi.NoteOnEvent(tick=24, channel=0, data=[72, 28]),
   midi.NoteOnEvent(tick=0, channel=0, data=[75, 28]),
   midi.NoteOnEvent(tick=45, channel=0, data=[75, 0]),
   midi.NoteOnEvent(tick=0, channel=0, data=[72, 0]),
   midi.NoteOnEvent(tick=15, channel=0, data=[72, 28]),
   midi.NoteOnEvent(tick=2, channel=0, data=[75, 28]),
   midi.NoteOnEvent(tick=46, channel=0, data=[72, 0]),
   midi.NoteOnEvent(tick=2, channel=0, data=[75, 0]),
   midi.NoteOnEvent(tick=11, channel=0, data=[76, 33]),
   midi.NoteOnEvent(tick=38, channel=0, data=[76, 0]),
   midi.NoteOnEvent(tick=21, channel=0, data=[68, 23]),
   midi.NoteOnEvent(tick=1, channel=0, data=[75, 23]),
   midi.NoteOnEvent(tick=1, channel=0, data=[72, 23]),
   midi.NoteOnEvent(tick=46, channel=0, data=[68, 0]),
   midi.NoteOnEvent(tick=1, channel=0, data=[75, 0]),
   midi.NoteOnEvent(tick=1, channel=0, data=[72, 0]),
   midi.NoteOnEvent(tick=11, channel=0, data=[76, 33]),
   midi.NoteOnEvent(tick=38, channel=0, data=[76, 0]),
   midi.NoteOnEvent(tick=19, channel=0, data=[72, 23]),
   midi.NoteOnEvent(tick=2, channel=0, data=[68, 23]),
   midi.NoteOnEvent(tick=2, channel=0, data=[75, 23]),
   midi.NoteOnEvent(tick=41, channel=0, data=[72, 0]),
   midi.NoteOnEvent(tick=2, channel=0, data=[68, 0]),
   midi.NoteOnEvent(tick=2, channel=0, data=[75, 0]),
   midi.NoteOnEvent(tick=11, channel=0, data=[68, 23]),
   midi.NoteOnEvent(tick=3, channel=0, data=[72, 23]),
   midi.NoteOnEvent(tick=2, channel=0, data=[75, 23]),
   midi.NoteOnEvent(tick=43, channel=0, data=[68, 0]),
   midi.NoteOnEvent(tick=3, channel=0, data=[72, 0]),
   midi.NoteOnEvent(tick=2, channel=0, data=[75, 0]),
   midi.NoteOnEvent(tick=9, channel=0, data=[76, 33]),
   midi.NoteOnEvent(tick=38, channel=0, data=[76, 0]),
   midi.NoteOnEvent(tick=22, channel=0, data=[72, 27]),
   midi.NoteOnEvent(tick=0, channel=0, data=[75, 27]),
   midi.NoteOnEvent(tick=2, channel=0, data=[68, 27]),
   midi.NoteOnEvent(tick=43, channel=0, data=[75, 0]),
   midi.NoteOnEvent(tick=0, channel=0, data=[72, 0]),
   midi.NoteOnEvent(tick=2, channel=0, data=[68, 0]),
   midi.NoteOnEvent(tick=13, channel=0, data=[75, 27]),
   midi.NoteOnEvent(tick=1, channel=0, data=[72, 27]),
   midi.NoteOnEvent(tick=1, channel=0, data=[68, 27]),
   midi.NoteOnEvent(tick=46, channel=0, data=[75, 0]),
   midi.NoteOnEvent(tick=1, channel=0, data=[72, 0]),
   midi.NoteOnEvent(tick=1, channel=0, data=[68, 0]),
   midi.NoteOnEvent(tick=13, channel=0, data=[76, 36]),
   midi.NoteOnEvent(tick=38, channel=0, data=[76, 0]),
   midi.NoteOnEvent(tick=18, channel=0, data=[72, 31]),
   midi.NoteOnEvent(tick=1, channel=0, data=[75, 31]),
   midi.NoteOnEvent(tick=1, channel=0, data=[68, 31]),
   midi.NoteOnEvent(tick=46, channel=0, data=[72, 0]),
   midi.NoteOnEvent(tick=1, channel=0, data=[75, 0]),
   midi.NoteOnEvent(tick=1, channel=0, data=[68, 0]),
   midi.NoteOnEvent(tick=9, channel=0, data=[76, 36]),
   midi.NoteOnEvent(tick=38, channel=0, data=[76, 0]),
   midi.NoteOnEvent(tick=25, channel=0, data=[75, 28]),
   midi.NoteOnEvent(tick=1, channel=0, data=[68, 28]),
   midi.NoteOnEvent(tick=1, channel=0, data=[72, 28]),
   midi.NoteOnEvent(tick=43, channel=0, data=[75, 0]),
   midi.NoteOnEvent(tick=1, channel=0, data=[68, 0]),
   midi.NoteOnEvent(tick=1, channel=0, data=[72, 0]),
   midi.NoteOnEvent(tick=10, channel=0, data=[68, 28]),
   midi.NoteOnEvent(tick=0, channel=0, data=[75, 28]),
   midi.NoteOnEvent(tick=1, channel=0, data=[72, 28]),
   midi.NoteOnEvent(tick=47, channel=0, data=[75, 0]),
   midi.NoteOnEvent(tick=0, channel=0, data=[68, 0]),
   midi.NoteOnEvent(tick=1, channel=0, data=[72, 0]),
   midi.NoteOnEvent(tick=14, channel=0, data=[76, 33]),
   midi.NoteOnEvent(tick=38, channel=0, data=[76, 0]),
   midi.NoteOnEvent(tick=19, channel=0, data=[68, 25]),
   midi.NoteOnEvent(tick=5, channel=0, data=[72, 25]),
   midi.NoteOnEvent(tick=0, channel=0, data=[75, 25]),
   midi.NoteOnEvent(tick=40, channel=0, data=[68, 0]),
   midi.NoteOnEvent(tick=5, channel=0, data=[75, 0]),
   midi.NoteOnEvent(tick=0, channel=0, data=[72, 0]),
   midi.NoteOnEvent(tick=13, channel=0, data=[68, 25]),
   midi.NoteOnEvent(tick=1, channel=0, data=[72, 25]),
   midi.NoteOnEvent(tick=1, channel=0, data=[75, 25]),
   midi.NoteOnEvent(tick=46, channel=0, data=[68, 0]),
   midi.NoteOnEvent(tick=1, channel=0, data=[72, 0]),
   midi.NoteOnEvent(tick=1, channel=0, data=[75, 0]),
   midi.NoteOnEvent(tick=7, channel=0, data=[76, 30]),
   midi.NoteOnEvent(tick=38, channel=0, data=[76, 0]),
   midi.NoteOnEvent(tick=22, channel=0, data=[72, 22]),
   midi.NoteOnEvent(tick=4, channel=0, data=[75, 22]),
   midi.NoteOnEvent(tick=44, channel=0, data=[72, 0]),
   midi.NoteOnEvent(tick=4, channel=0, data=[75, 0]),
   midi.NoteOnEvent(tick=11, channel=0, data=[76, 28]),
   midi.NoteOnEvent(tick=38, channel=0, data=[76, 0]),
   midi.NoteOnEvent(tick=19, channel=0, data=[75, 22]),
   midi.NoteOnEvent(tick=1, channel=0, data=[72, 22]),
   midi.NoteOnEvent(tick=44, channel=0, data=[75, 0]),
   midi.NoteOnEvent(tick=1, channel=0, data=[72, 0]),
   midi.NoteOnEvent(tick=15, channel=0, data=[72, 23]),
   midi.NoteOnEvent(tick=2, channel=0, data=[75, 23]),
   midi.NoteOnEvent(tick=46, channel=0, data=[72, 0]),
   midi.NoteOnEvent(tick=2, channel=0, data=[75, 0]),
   midi.NoteOnEvent(tick=11, channel=0, data=[76, 33]),
   midi.NoteOnEvent(tick=38, channel=0, data=[76, 0]),
   midi.NoteOnEvent(tick=21, channel=0, data=[68, 27]),
   midi.NoteOnEvent(tick=1, channel=0, data=[72, 27]),
   midi.NoteOnEvent(tick=1, channel=0, data=[75, 27]),
   midi.NoteOnEvent(tick=43, channel=0, data=[68, 0]),
   midi.NoteOnEvent(tick=1, channel=0, data=[72, 0]),
   midi.NoteOnEvent(tick=1, channel=0, data=[75, 0]),
   midi.NoteOnEvent(tick=15, channel=0, data=[75, 27]),
   midi.NoteOnEvent(tick=1, channel=0, data=[68, 27]),
   midi.NoteOnEvent(tick=0, channel=0, data=[72, 27]),
   midi.NoteOnEvent(tick=47, channel=0, data=[75, 0]),
   midi.NoteOnEvent(tick=1, channel=0, data=[72, 0]),
   midi.NoteOnEvent(tick=0, channel=0, data=[68, 0]),
   midi.NoteOnEvent(tick=11, channel=0, data=[76, 36]),
   midi.NoteOnEvent(tick=38, channel=0, data=[76, 0]),
   midi.NoteOnEvent(tick=19, channel=0, data=[73, 30]),
   midi.NoteOnEvent(tick=4, channel=0, data=[66, 30]),
   midi.NoteOnEvent(tick=1, channel=0, data=[69, 30]),
   midi.NoteOnEvent(tick=43, channel=0, data=[73, 0]),
   midi.NoteOnEvent(tick=4, channel=0, data=[66, 0]),
   midi.NoteOnEvent(tick=1, channel=0, data=[69, 0]),
   midi.NoteOnEvent(tick=10, channel=0, data=[75, 36]),
   midi.NoteOnEvent(tick=38, channel=0, data=[75, 0]),
   midi.NoteOnEvent(tick=19, channel=0, data=[73, 28]),
   midi.NoteOnEvent(tick=1, channel=0, data=[69, 28]),
   midi.NoteOnEvent(tick=1, channel=0, data=[66, 28]),
   midi.NoteOnEvent(tick=43, channel=0, data=[73, 0]),
   midi.NoteOnEvent(tick=1, channel=0, data=[69, 0]),
   midi.NoteOnEvent(tick=1, channel=0, data=[66, 0]),
   midi.NoteOnEvent(tick=13, channel=0, data=[69, 28]),
   midi.NoteOnEvent(tick=2, channel=0, data=[73, 28]),
   midi.NoteOnEvent(tick=3, channel=0, data=[66, 28]),
   midi.NoteOnEvent(tick=43, channel=0, data=[69, 0]),
   midi.NoteOnEvent(tick=2, channel=0, data=[73, 0]),
   midi.NoteOnEvent(tick=3, channel=0, data=[66, 0]),
   midi.NoteOnEvent(tick=10, channel=0, data=[75, 35]),
   midi.NoteOnEvent(tick=38, channel=0, data=[75, 0]),
   midi.NoteOnEvent(tick=20, channel=0, data=[66, 28]),
   midi.NoteOnEvent(tick=0, channel=0, data=[73, 28]),
   midi.NoteOnEvent(tick=2, channel=0, data=[69, 28]),
   midi.NoteOnEvent(tick=43, channel=0, data=[73, 0]),
   midi.NoteOnEvent(tick=0, channel=0, data=[66, 0]),
   midi.NoteOnEvent(tick=2, channel=0, data=[69, 0]),
   midi.NoteOnEvent(tick=12, channel=0, data=[69, 28]),
   midi.NoteOnEvent(tick=1, channel=0, data=[66, 28]),
   midi.NoteOnEvent(tick=3, channel=0, data=[73, 28]),
   midi.NoteOnEvent(tick=42, channel=0, data=[66, 0]),
   midi.NoteOnEvent(tick=2, channel=0, data=[69, 0]),
   midi.NoteOnEvent(tick=4, channel=0, data=[73, 0]),
   midi.NoteOnEvent(tick=8, channel=0, data=[75, 36]),
   midi.NoteOnEvent(tick=38, channel=0, data=[75, 0]),
   midi.NoteOnEvent(tick=23, channel=0, data=[66, 30]),
   midi.NoteOnEvent(tick=3, channel=0, data=[69, 30]),
   midi.NoteOnEvent(tick=1, channel=0, data=[73, 30]),
   midi.NoteOnEvent(tick=44, channel=0, data=[66, 0]),
   midi.NoteOnEvent(tick=3, channel=0, data=[69, 0]),
   midi.NoteOnEvent(tick=1, channel=0, data=[73, 0]),
   midi.NoteOnEvent(tick=11, channel=0, data=[75, 36]),
   midi.NoteOnEvent(tick=38, channel=0, data=[75, 0]),
   midi.NoteOnEvent(tick=20, channel=0, data=[73, 28]),
   midi.NoteOnEvent(tick=1, channel=0, data=[69, 28]),
   midi.NoteOnEvent(tick=1, channel=0, data=[66, 28]),
   midi.NoteOnEvent(tick=43, channel=0, data=[73, 0]),
   midi.NoteOnEvent(tick=1, channel=0, data=[69, 0]),
   midi.NoteOnEvent(tick=1, channel=0, data=[66, 0]),
   midi.NoteOnEvent(tick=12, channel=0, data=[69, 28]),
   midi.NoteOnEvent(tick=4, channel=0, data=[66, 28]),
   midi.NoteOnEvent(tick=0, channel=0, data=[73, 28]),
   midi.NoteOnEvent(tick=44, channel=0, data=[69, 0]),
   midi.NoteOnEvent(tick=4, channel=0, data=[73, 0]),
   midi.NoteOnEvent(tick=0, channel=0, data=[66, 0]),
   midi.NoteOnEvent(tick=8, channel=0, data=[75, 36]),
   midi.NoteOnEvent(tick=38, channel=0, data=[75, 0]),
   midi.NoteOnEvent(tick=22, channel=0, data=[66, 28]),
   midi.NoteOnEvent(tick=2, channel=0, data=[69, 28]),
   midi.NoteOnEvent(tick=2, channel=0, data=[73, 28]),
   midi.NoteOnEvent(tick=41, channel=0, data=[66, 0]),
   midi.NoteOnEvent(tick=2, channel=0, data=[69, 0]),
   midi.NoteOnEvent(tick=2, channel=0, data=[73, 0]),
   midi.NoteOnEvent(tick=10, channel=0, data=[66, 28]),
   midi.NoteOnEvent(tick=0, channel=0, data=[69, 28]),
   midi.NoteOnEvent(tick=3, channel=0, data=[73, 28]),
   midi.NoteOnEvent(tick=45, channel=0, data=[69, 0]),
   midi.NoteOnEvent(tick=0, channel=0, data=[66, 0]),
   midi.NoteOnEvent(tick=3, channel=0, data=[73, 0]),
   midi.NoteOnEvent(tick=11, channel=0, data=[75, 33]),
   midi.NoteOnEvent(tick=38, channel=0, data=[75, 0]),
   midi.NoteOnEvent(tick=20, channel=0, data=[69, 28]),
   midi.NoteOnEvent(tick=1, channel=0, data=[73, 28]),
   midi.NoteOnEvent(tick=47, channel=0, data=[69, 0]),
   midi.NoteOnEvent(tick=1, channel=0, data=[73, 0]),
   midi.NoteOnEvent(tick=16, channel=0, data=[75, 33]),
   midi.NoteOnEvent(tick=38, channel=0, data=[75, 0]),
   midi.NoteOnEvent(tick=17, channel=0, data=[69, 27]),
   midi.NoteOnEvent(tick=0, channel=0, data=[73, 27]),
   midi.NoteOnEvent(tick=1, channel=0, data=[66, 27]),
   midi.NoteOnEvent(tick=44, channel=0, data=[73, 0]),
   midi.NoteOnEvent(tick=0, channel=0, data=[69, 0]),
   midi.NoteOnEvent(tick=1, channel=0, data=[66, 0]),
   midi.NoteOnEvent(tick=14, channel=0, data=[69, 27]),
   midi.NoteOnEvent(tick=0, channel=0, data=[73, 27]),
   midi.NoteOnEvent(tick=5, channel=0, data=[66, 27]),
   midi.NoteOnEvent(tick=43, channel=0, data=[73, 0]),
   midi.NoteOnEvent(tick=0, channel=0, data=[69, 0]),
   midi.NoteOnEvent(tick=5, channel=0, data=[66, 0]),
   midi.NoteOnEvent(tick=7, channel=0, data=[75, 33]),
   midi.NoteOnEvent(tick=38, channel=0, data=[75, 0]),
   midi.NoteOnEvent(tick=24, channel=0, data=[66, 23]),
   midi.NoteOnEvent(tick=0, channel=0, data=[73, 23]),
   midi.NoteOnEvent(tick=3, channel=0, data=[69, 23]),
   midi.NoteOnEvent(tick=42, channel=0, data=[73, 0]),
   midi.NoteOnEvent(tick=0, channel=0, data=[66, 0]),
   midi.NoteOnEvent(tick=3, channel=0, data=[69, 0]),
   midi.NoteOnEvent(tick=12, channel=0, data=[66, 23]),
   midi.NoteOnEvent(tick=3, channel=0, data=[69, 23]),
   midi.NoteOnEvent(tick=0, channel=0, data=[73, 23]),
   midi.NoteOnEvent(tick=45, channel=0, data=[66, 0]),
   midi.NoteOnEvent(tick=3, channel=0, data=[73, 0]),
   midi.NoteOnEvent(tick=0, channel=0, data=[69, 0]),
   midi.NoteOnEvent(tick=10, channel=0, data=[75, 30]),
   midi.NoteOnEvent(tick=38, channel=0, data=[75, 0]),
   midi.NoteOnEvent(tick=21, channel=0, data=[73, 23]),
   midi.NoteOnEvent(tick=2, channel=0, data=[69, 23]),
   midi.NoteOnEvent(tick=1, channel=0, data=[66, 23]),
   midi.NoteOnEvent(tick=45, channel=0, data=[73, 0]),
   midi.NoteOnEvent(tick=2, channel=0, data=[69, 0]),
   midi.NoteOnEvent(tick=1, channel=0, data=[66, 0]),
   midi.NoteOnEvent(tick=8, channel=0, data=[75, 33]),
   midi.NoteOnEvent(tick=38, channel=0, data=[75, 0]),
   midi.NoteOnEvent(tick=21, channel=0, data=[66, 27]),
   midi.NoteOnEvent(tick=3, channel=0, data=[69, 27]),
   midi.NoteOnEvent(tick=2, channel=0, data=[73, 27]),
   midi.NoteOnEvent(tick=40, channel=0, data=[66, 0]),
   midi.NoteOnEvent(tick=3, channel=0, data=[69, 0]),
   midi.NoteOnEvent(tick=2, channel=0, data=[73, 0]),
   midi.NoteOnEvent(tick=11, channel=0, data=[69, 27]),
   midi.NoteOnEvent(tick=1, channel=0, data=[66, 27]),
   midi.NoteOnEvent(tick=1, channel=0, data=[73, 27]),
   midi.NoteOnEvent(tick=46, channel=0, data=[69, 0]),
   midi.NoteOnEvent(tick=1, channel=0, data=[66, 0]),
   midi.NoteOnEvent(tick=1, channel=0, data=[73, 0]),
   midi.NoteOnEvent(tick=10, channel=0, data=[75, 33]),
   midi.NoteOnEvent(tick=38, channel=0, data=[75, 0]),
   midi.NoteOnEvent(tick=23, channel=0, data=[73, 23]),
   midi.NoteOnEvent(tick=2, channel=0, data=[66, 23]),
   midi.NoteOnEvent(tick=1, channel=0, data=[69, 23]),
   midi.NoteOnEvent(tick=42, channel=0, data=[73, 0]),
   midi.NoteOnEvent(tick=2, channel=0, data=[66, 0]),
   midi.NoteOnEvent(tick=1, channel=0, data=[69, 0]),
   midi.NoteOnEvent(tick=10, channel=0, data=[69, 23]),
   midi.NoteOnEvent(tick=5, channel=0, data=[66, 23]),
   midi.NoteOnEvent(tick=0, channel=0, data=[73, 23]),
   midi.NoteOnEvent(tick=43, channel=0, data=[69, 0]),
   midi.NoteOnEvent(tick=2, channel=0, data=[66, 0]),
   midi.NoteOnEvent(tick=3, channel=0, data=[73, 0]),
   midi.NoteOnEvent(tick=10, channel=0, data=[75, 33]),
   midi.NoteOnEvent(tick=38, channel=0, data=[75, 0]),
   midi.NoteOnEvent(tick=19, channel=0, data=[73, 23]),
   midi.NoteOnEvent(tick=3, channel=0, data=[69, 23]),
   midi.NoteOnEvent(tick=1, channel=0, data=[66, 23]),
   midi.NoteOnEvent(tick=44, channel=0, data=[73, 0]),
   midi.NoteOnEvent(tick=3, channel=0, data=[69, 0]),
   midi.NoteOnEvent(tick=1, channel=0, data=[66, 0]),
   midi.NoteOnEvent(tick=9, channel=0, data=[75, 30]),
   midi.NoteOnEvent(tick=38, channel=0, data=[75, 0]),
   midi.NoteOnEvent(tick=21, channel=0, data=[69, 23]),
   midi.NoteOnEvent(tick=2, channel=0, data=[66, 23]),
   midi.NoteOnEvent(tick=0, channel=0, data=[73, 23]),
   midi.NoteOnEvent(tick=43, channel=0, data=[69, 0]),
   midi.NoteOnEvent(tick=2, channel=0, data=[73, 0]),
   midi.NoteOnEvent(tick=0, channel=0, data=[66, 0]),
   midi.NoteOnEvent(tick=13, channel=0, data=[66, 23]),
   midi.NoteOnEvent(tick=3, channel=0, data=[69, 23]),
   midi.NoteOnEvent(tick=2, channel=0, data=[73, 23]),
   midi.NoteOnEvent(tick=43, channel=0, data=[66, 0]),
   midi.NoteOnEvent(tick=3, channel=0, data=[69, 0]),
   midi.NoteOnEvent(tick=2, channel=0, data=[73, 0]),
   midi.NoteOnEvent(tick=7, channel=0, data=[75, 30]),
   midi.NoteOnEvent(tick=38, channel=0, data=[75, 0]),
   midi.NoteOnEvent(tick=25, channel=0, data=[69, 23]),
   midi.NoteOnEvent(tick=1, channel=0, data=[66, 23]),
   midi.NoteOnEvent(tick=0, channel=0, data=[73, 23]),
   midi.NoteOnEvent(tick=44, channel=0, data=[69, 0]),
   midi.NoteOnEvent(tick=1, channel=0, data=[73, 0]),
   midi.NoteOnEvent(tick=0, channel=0, data=[66, 0]),
   midi.NoteOnEvent(tick=14, channel=0, data=[69, 23]),
   midi.NoteOnEvent(tick=1, channel=0, data=[66, 23]),
   midi.NoteOnEvent(tick=0, channel=0, data=[73, 23]),
   midi.NoteOnEvent(tick=47, channel=0, data=[69, 0]),
   midi.NoteOnEvent(tick=1, channel=0, data=[73, 0]),
   midi.NoteOnEvent(tick=0, channel=0, data=[66, 0]),
   midi.NoteOnEvent(tick=8, channel=0, data=[75, 33]),
   midi.NoteOnEvent(tick=38, channel=0, data=[75, 0]),
   midi.NoteOnEvent(tick=26, channel=0, data=[69, 23]),
   midi.NoteOnEvent(tick=0, channel=0, data=[73, 23]),
   midi.NoteOnEvent(tick=48, channel=0, data=[73, 0]),
   midi.NoteOnEvent(tick=0, channel=0, data=[69, 0]),
   midi.NoteOnEvent(tick=12, channel=0, data=[75, 33]),
   midi.NoteOnEvent(tick=38, channel=0, data=[75, 0]),
   midi.NoteOnEvent(tick=18, channel=0, data=[69, 23]),
   midi.NoteOnEvent(tick=5, channel=0, data=[73, 23]),
   midi.NoteOnEvent(tick=40, channel=0, data=[69, 0]),
   midi.NoteOnEvent(tick=5, channel=0, data=[73, 0]),
   midi.NoteOnEvent(tick=13, channel=0, data=[69, 23]),
   midi.NoteOnEvent(tick=1, channel=0, data=[73, 23]),
   midi.NoteOnEvent(tick=47, channel=0, data=[69, 0]),
   midi.NoteOnEvent(tick=1, channel=0, data=[73, 0]),
   midi.NoteOnEvent(tick=8, channel=0, data=[75, 33]),
   midi.NoteOnEvent(tick=38, channel=0, data=[75, 0]),
   midi.NoteOnEvent(tick=22, channel=0, data=[73, 23]),
   midi.NoteOnEvent(tick=3, channel=0, data=[66, 23]),
   midi.NoteOnEvent(tick=2, channel=0, data=[69, 23]),
   midi.NoteOnEvent(tick=40, channel=0, data=[73, 0]),
   midi.NoteOnEvent(tick=3, channel=0, data=[66, 0]),
   midi.NoteOnEvent(tick=2, channel=0, data=[69, 0]),
   midi.NoteOnEvent(tick=10, channel=0, data=[69, 23]),
   midi.NoteOnEvent(tick=1, channel=0, data=[66, 23]),
   midi.NoteOnEvent(tick=4, channel=0, data=[73, 23]),
   midi.NoteOnEvent(tick=43, channel=0, data=[69, 0]),
   midi.NoteOnEvent(tick=1, channel=0, data=[66, 0]),
   midi.NoteOnEvent(tick=4, channel=0, data=[73, 0]),
   midi.NoteOnEvent(tick=10, channel=0, data=[75, 30]),
   midi.NoteOnEvent(tick=38, channel=0, data=[75, 0]),
   midi.NoteOnEvent(tick=20, channel=0, data=[66, 27]),
   midi.NoteOnEvent(tick=1, channel=0, data=[73, 27]),
   midi.NoteOnEvent(tick=3, channel=0, data=[69, 27]),
   midi.NoteOnEvent(tick=44, channel=0, data=[66, 0]),
   midi.NoteOnEvent(tick=1, channel=0, data=[73, 0]),
   midi.NoteOnEvent(tick=3, channel=0, data=[69, 0]),
   midi.NoteOnEvent(tick=11, channel=0, data=[75, 33]),
   midi.NoteOnEvent(tick=38, channel=0, data=[75, 0]),
   midi.NoteOnEvent(tick=18, channel=0, data=[69, 27]),
   midi.NoteOnEvent(tick=1, channel=0, data=[66, 27]),
   midi.NoteOnEvent(tick=0, channel=0, data=[73, 27]),
   midi.NoteOnEvent(tick=44, channel=0, data=[69, 0]),
   midi.NoteOnEvent(tick=1, channel=0, data=[73, 0]),
   midi.NoteOnEvent(tick=0, channel=0, data=[66, 0]),
   midi.NoteOnEvent(tick=14, channel=0, data=[73, 27]),
   midi.NoteOnEvent(tick=3, channel=0, data=[66, 27]),
   midi.NoteOnEvent(tick=2, channel=0, data=[69, 27]),
   midi.NoteOnEvent(tick=43, channel=0, data=[73, 0]),
   midi.NoteOnEvent(tick=3, channel=0, data=[66, 0]),
   midi.NoteOnEvent(tick=2, channel=0, data=[69, 0]),
   midi.NoteOnEvent(tick=12, channel=0, data=[75, 33]),
   midi.NoteOnEvent(tick=38, channel=0, data=[75, 0]),
   midi.NoteOnEvent(tick=17, channel=0, data=[69, 23]),
   midi.NoteOnEvent(tick=2, channel=0, data=[66, 23]),
   midi.NoteOnEvent(tick=2, channel=0, data=[73, 23]),
   midi.NoteOnEvent(tick=41, channel=0, data=[69, 0]),
   midi.NoteOnEvent(tick=2, channel=0, data=[66, 0]),
   midi.NoteOnEvent(tick=2, channel=0, data=[73, 0]),
   midi.NoteOnEvent(tick=12, channel=0, data=[66, 23]),
   midi.NoteOnEvent(tick=3, channel=0, data=[73, 23]),
   midi.NoteOnEvent(tick=1, channel=0, data=[69, 23]),
   midi.NoteOnEvent(tick=41, channel=0, data=[66, 0]),
   midi.NoteOnEvent(tick=6, channel=0, data=[73, 0]),
   midi.NoteOnEvent(tick=1, channel=0, data=[69, 0]),
   midi.NoteOnEvent(tick=12, channel=0, data=[75, 33]),
   midi.NoteOnEvent(tick=38, channel=0, data=[75, 0]),
   midi.NoteOnEvent(tick=17, channel=0, data=[73, 23]),
   midi.NoteOnEvent(tick=1, channel=0, data=[66, 23]),
   midi.NoteOnEvent(tick=1, channel=0, data=[69, 23]),
   midi.NoteOnEvent(tick=46, channel=0, data=[73, 0]),
   midi.NoteOnEvent(tick=1, channel=0, data=[66, 0]),
   midi.NoteOnEvent(tick=1, channel=0, data=[69, 0]),
   midi.NoteOnEvent(tick=14, channel=0, data=[75, 30]),
   midi.NoteOnEvent(tick=38, channel=0, data=[75, 0]),
   midi.NoteOnEvent(tick=18, channel=0, data=[66, 23]),
   midi.NoteOnEvent(tick=1, channel=0, data=[73, 23]),
   midi.NoteOnEvent(tick=1, channel=0, data=[69, 23]),
   midi.NoteOnEvent(tick=43, channel=0, data=[66, 0]),
   midi.NoteOnEvent(tick=1, channel=0, data=[73, 0]),
   midi.NoteOnEvent(tick=1, channel=0, data=[69, 0]),
   midi.NoteOnEvent(tick=13, channel=0, data=[69, 23]),
   midi.NoteOnEvent(tick=1, channel=0, data=[73, 23]),
   midi.NoteOnEvent(tick=4, channel=0, data=[66, 23]),
   midi.NoteOnEvent(tick=43, channel=0, data=[69, 0]),
   midi.NoteOnEvent(tick=1, channel=0, data=[73, 0]),
   midi.NoteOnEvent(tick=4, channel=0, data=[66, 0]),
   midi.NoteOnEvent(tick=8, channel=0, data=[75, 28]),
   midi.NoteOnEvent(tick=38, channel=0, data=[75, 0]),
   midi.NoteOnEvent(tick=21, channel=0, data=[69, 22]),
   midi.NoteOnEvent(tick=1, channel=0, data=[66, 22]),
   midi.NoteOnEvent(tick=2, channel=0, data=[73, 22]),
   midi.NoteOnEvent(tick=42, channel=0, data=[69, 0]),
   midi.NoteOnEvent(tick=1, channel=0, data=[66, 0]),
   midi.NoteOnEvent(tick=2, channel=0, data=[73, 0]),
   midi.NoteOnEvent(tick=13, channel=0, data=[73, 22]),
   midi.NoteOnEvent(tick=4, channel=0, data=[66, 22]),
   midi.NoteOnEvent(tick=0, channel=0, data=[69, 22]),
   midi.NoteOnEvent(tick=44, channel=0, data=[73, 0]),
   midi.NoteOnEvent(tick=4, channel=0, data=[69, 0]),
   midi.NoteOnEvent(tick=0, channel=0, data=[66, 0]),
   midi.NoteOnEvent(tick=11, channel=0, data=[75, 28]),
   midi.NoteOnEvent(tick=38, channel=0, data=[75, 0]),
   midi.NoteOnEvent(tick=21, channel=0, data=[68, 28]),
   midi.NoteOnEvent(tick=0, channel=0, data=[72, 28]),
   midi.NoteOnEvent(tick=2, channel=0, data=[75, 28]),
   midi.NoteOnEvent(tick=43, channel=0, data=[72, 0]),
   midi.NoteOnEvent(tick=0, channel=0, data=[68, 0]),
   midi.NoteOnEvent(tick=2, channel=0, data=[75, 0]),
   midi.NoteOnEvent(tick=12, channel=0, data=[76, 35]),
   midi.NoteOnEvent(tick=45, channel=0, data=[76, 0]),
   midi.NoteOnEvent(tick=18, channel=0, data=[75, 35]),
   midi.NoteOnEvent(tick=32, channel=0, data=[75, 0]),
   midi.NoteOnEvent(tick=26, channel=0, data=[75, 35]),
   midi.NoteOnEvent(tick=45, channel=0, data=[75, 0]),
   midi.NoteOnEvent(tick=12, channel=0, data=[88, 45]),
   midi.NoteOnEvent(tick=45, channel=0, data=[88, 0]),
   midi.NoteOnEvent(tick=18, channel=0, data=[84, 36]),
   midi.NoteOnEvent(tick=0, channel=0, data=[87, 36]),
   midi.NoteOnEvent(tick=45, channel=0, data=[87, 0]),
   midi.NoteOnEvent(tick=0, channel=0, data=[84, 0]),
   midi.NoteOnEvent(tick=14, channel=0, data=[75, 35]),
   midi.NoteOnEvent(tick=45, channel=0, data=[75, 0]),
   midi.NoteOnEvent(tick=18, channel=0, data=[76, 35]),
   midi.NoteOnEvent(tick=45, channel=0, data=[76, 0]),
   midi.NoteOnEvent(tick=13, channel=0, data=[72, 33]),
   midi.NoteOnEvent(tick=0, channel=0, data=[75, 33]),
   midi.NoteOnEvent(tick=45, channel=0, data=[75, 0]),
   midi.NoteOnEvent(tick=0, channel=0, data=[72, 0]),
   midi.NoteOnEvent(tick=15, channel=0, data=[76, 33]),
   midi.NoteOnEvent(tick=45, channel=0, data=[76, 0]),
   midi.NoteOnEvent(tick=13, channel=0, data=[75, 31]),
   midi.NoteOnEvent(tick=45, channel=0, data=[75, 0]),
   midi.NoteOnEvent(tick=16, channel=0, data=[63, 31]),
   midi.NoteOnEvent(tick=45, channel=0, data=[63, 0]),
   midi.NoteOnEvent(tick=15, channel=0, data=[64, 38]),
   midi.NoteOnEvent(tick=45, channel=0, data=[64, 0]),
   midi.NoteOnEvent(tick=13, channel=0, data=[60, 33]),
   midi.NoteOnEvent(tick=4, channel=0, data=[63, 33]),
   midi.NoteOnEvent(tick=41, channel=0, data=[60, 0]),
   midi.NoteOnEvent(tick=4, channel=0, data=[63, 0]),
   midi.NoteOnEvent(tick=12, channel=0, data=[63, 38]),
   midi.NoteOnEvent(tick=45, channel=0, data=[63, 0]),
   midi.NoteOnEvent(tick=14, channel=0, data=[76, 35]),
   midi.NoteOnEvent(tick=45, channel=0, data=[76, 0]),
   midi.NoteOnEvent(tick=17, channel=0, data=[72, 28]),
   midi.NoteOnEvent(tick=1, channel=0, data=[75, 28]),
   midi.NoteOnEvent(tick=44, channel=0, data=[72, 0]),
   midi.NoteOnEvent(tick=1, channel=0, data=[75, 0]),
   midi.NoteOnEvent(tick=12, channel=0, data=[76, 35]),
   midi.NoteOnEvent(tick=45, channel=0, data=[76, 0]),
   midi.NoteOnEvent(tick=16, channel=0, data=[75, 35]),
   midi.NoteOnEvent(tick=32, channel=0, data=[75, 0]),
   midi.NoteOnEvent(tick=27, channel=0, data=[75, 35]),
   midi.NoteOnEvent(tick=45, channel=0, data=[75, 0]),
   midi.NoteOnEvent(tick=18, channel=0, data=[88, 46]),
   midi.NoteOnEvent(tick=45, channel=0, data=[88, 0]),
   midi.NoteOnEvent(tick=14, channel=0, data=[84, 42]),
   midi.NoteOnEvent(tick=1, channel=0, data=[87, 42]),
   midi.NoteOnEvent(tick=44, channel=0, data=[84, 0]),
   midi.NoteOnEvent(tick=1, channel=0, data=[87, 0]),
   midi.NoteOnEvent(tick=16, channel=0, data=[75, 35]),
   midi.NoteOnEvent(tick=45, channel=0, data=[75, 0]),
   midi.NoteOnEvent(tick=13, channel=0, data=[76, 35]),
   midi.NoteOnEvent(tick=45, channel=0, data=[76, 0]),
   midi.NoteOnEvent(tick=15, channel=0, data=[75, 33]),
   midi.NoteOnEvent(tick=2, channel=0, data=[72, 33]),
   midi.NoteOnEvent(tick=43, channel=0, data=[75, 0]),
   midi.NoteOnEvent(tick=2, channel=0, data=[72, 0]),
   midi.NoteOnEvent(tick=16, channel=0, data=[76, 33]),
   midi.NoteOnEvent(tick=45, channel=0, data=[76, 0]),
   midi.NoteOnEvent(tick=13, channel=0, data=[75, 33]),
   midi.NoteOnEvent(tick=45, channel=0, data=[75, 0]),
   midi.NoteOnEvent(tick=13, channel=0, data=[63, 33]),
   midi.NoteOnEvent(tick=45, channel=0, data=[63, 0]),
   midi.NoteOnEvent(tick=19, channel=0, data=[64, 38]),
   midi.NoteOnEvent(tick=45, channel=0, data=[64, 0]),
   midi.NoteOnEvent(tick=12, channel=0, data=[63, 33]),
   midi.NoteOnEvent(tick=3, channel=0, data=[60, 33]),
   midi.NoteOnEvent(tick=42, channel=0, data=[63, 0]),
   midi.NoteOnEvent(tick=3, channel=0, data=[60, 0]),
   midi.NoteOnEvent(tick=15, channel=0, data=[63, 38]),
   midi.NoteOnEvent(tick=45, channel=0, data=[63, 0]),
   midi.NoteOnEvent(tick=11, channel=0, data=[76, 35]),
   midi.NoteOnEvent(tick=31, channel=0, data=[70, 50]),
   midi.NoteOnEvent(tick=14, channel=0, data=[76, 0]),
   midi.NoteOnEvent(tick=16, channel=0, data=[82, 53]),
   midi.NoteOnEvent(tick=0, channel=0, data=[72, 57]),
   midi.NoteOnEvent(tick=0, channel=0, data=[75, 33]),
   midi.NoteOnEvent(tick=45, channel=0, data=[75, 0]),
   midi.NoteOnEvent(tick=0, channel=0, data=[72, 0]),
   midi.NoteOnEvent(tick=15, channel=0, data=[76, 35]),
   midi.NoteOnEvent(tick=45, channel=0, data=[76, 0]),
   midi.NoteOnEvent(tick=15, channel=0, data=[75, 35]),
   midi.NoteOnEvent(tick=32, channel=0, data=[75, 0]),
   midi.NoteOnEvent(tick=28, channel=0, data=[75, 35]),
   midi.NoteOnEvent(tick=45, channel=0, data=[75, 0]),
   midi.NoteOnEvent(tick=15, channel=0, data=[88, 46]),
   midi.NoteOnEvent(tick=45, channel=0, data=[88, 0]),
   midi.NoteOnEvent(tick=15, channel=0, data=[84, 36]),
   midi.NoteOnEvent(tick=0, channel=0, data=[87, 36]),
   midi.NoteOnEvent(tick=45, channel=0, data=[87, 0]),
   midi.NoteOnEvent(tick=0, channel=0, data=[84, 0]),
   midi.NoteOnEvent(tick=15, channel=0, data=[75, 35]),
   midi.NoteOnEvent(tick=45, channel=0, data=[75, 0]),
   midi.NoteOnEvent(tick=15, channel=0, data=[76, 35]),
   midi.NoteOnEvent(tick=45, channel=0, data=[76, 0]),
   midi.NoteOnEvent(tick=15, channel=0, data=[82, 0]),
   midi.NoteOnEvent(tick=0, channel=0, data=[70, 0]),
   midi.NoteOnEvent(tick=0, channel=0, data=[80, 64]),
   midi.NoteOnEvent(tick=60, channel=0, data=[72, 33]),
   midi.NoteOnEvent(tick=0, channel=0, data=[76, 33]),
   midi.NoteOnEvent(tick=45, channel=0, data=[76, 0]),
   midi.NoteOnEvent(tick=0, channel=0, data=[72, 0]),
   midi.NoteOnEvent(tick=15, channel=0, data=[68, 33]),
   midi.NoteOnEvent(tick=45, channel=0, data=[68, 0]),
   midi.NoteOnEvent(tick=15, channel=0, data=[68, 33]),
   midi.NoteOnEvent(tick=45, channel=0, data=[68, 0]),
   midi.NoteOnEvent(tick=15, channel=0, data=[80, 0]),
   midi.NoteOnEvent(tick=0, channel=0, data=[75, 63]),
   midi.NoteOnEvent(tick=0, channel=0, data=[63, 42]),
   midi.NoteOnEvent(tick=45, channel=0, data=[63, 0]),
   midi.NoteOnEvent(tick=15, channel=0, data=[72, 30]),
   midi.NoteOnEvent(tick=45, channel=0, data=[72, 0]),
   midi.NoteOnEvent(tick=15, channel=0, data=[64, 42]),
   midi.NoteOnEvent(tick=45, channel=0, data=[64, 0]),
   midi.NoteOnEvent(tick=15, channel=0, data=[63, 35]),
   midi.NoteOnEvent(tick=45, channel=0, data=[63, 0]),
   midi.NoteOnEvent(tick=13, channel=0, data=[75, 0]),
   midi.NoteOnEvent(tick=2, channel=0, data=[68, 33]),
   midi.NoteOnEvent(tick=0, channel=0, data=[75, 53]),
   midi.NoteOnEvent(tick=0, channel=0, data=[63, 53]),
   midi.NoteOnEvent(tick=45, channel=0, data=[68, 0]),
   midi.NoteOnEvent(tick=15, channel=0, data=[70, 33]),
   midi.NoteOnEvent(tick=45, channel=0, data=[70, 0]),
   midi.NoteOnEvent(tick=15, channel=0, data=[68, 33]),
   midi.NoteOnEvent(tick=45, channel=0, data=[68, 0]),
   midi.NoteOnEvent(tick=15, channel=0, data=[68, 33]),
   midi.NoteOnEvent(tick=45, channel=0, data=[68, 0]),
   midi.NoteOnEvent(tick=15, channel=0, data=[70, 35]),
   midi.NoteOnEvent(tick=45, channel=0, data=[70, 0]),
   midi.NoteOnEvent(tick=15, channel=0, data=[68, 35]),
   midi.NoteOnEvent(tick=45, channel=0, data=[68, 0]),
   midi.NoteOnEvent(tick=15, channel=0, data=[68, 36]),
   midi.NoteOnEvent(tick=45, channel=0, data=[68, 0]),
   midi.NoteOnEvent(tick=15, channel=0, data=[70, 38]),
   midi.NoteOnEvent(tick=45, channel=0, data=[70, 0]),
   midi.NoteOnEvent(tick=15, channel=0, data=[68, 38]),
   midi.NoteOnEvent(tick=45, channel=0, data=[68, 0]),
   midi.NoteOnEvent(tick=15, channel=0, data=[70, 35]),
   midi.NoteOnEvent(tick=45, channel=0, data=[70, 0]),
   midi.NoteOnEvent(tick=15, channel=0, data=[68, 35]),
   midi.NoteOnEvent(tick=45, channel=0, data=[68, 0]),
   midi.NoteOnEvent(tick=15, channel=0, data=[68, 33]),
   midi.NoteOnEvent(tick=45, channel=0, data=[68, 0]),
   midi.NoteOnEvent(tick=5, channel=0, data=[63, 0]),
   midi.NoteOnEvent(tick=0, channel=0, data=[75, 0]),
   midi.NoteOnEvent(tick=10, channel=0, data=[70, 55]),
   midi.NoteOnEvent(tick=0, channel=0, data=[73, 55]),
   midi.NoteOnEvent(tick=0, channel=0, data=[61, 55]),
   midi.NoteOnEvent(tick=45, channel=0, data=[70, 0]),
   midi.NoteOnEvent(tick=15, channel=0, data=[68, 33]),
   midi.NoteOnEvent(tick=45, channel=0, data=[68, 0]),
   midi.NoteOnEvent(tick=15, channel=0, data=[68, 35]),
   midi.NoteOnEvent(tick=45, channel=0, data=[68, 0]),
   midi.NoteOnEvent(tick=15, channel=0, data=[70, 33]),
   midi.NoteOnEvent(tick=45, channel=0, data=[70, 0]),
   midi.NoteOnEvent(tick=15, channel=0, data=[61, 0]),
   midi.NoteOnEvent(tick=0, channel=0, data=[73, 0]),
   midi.NoteOnEvent(tick=0, channel=0, data=[68, 59]),
   midi.NoteOnEvent(tick=0, channel=0, data=[78, 59]),
   midi.NoteOnEvent(tick=0, channel=0, data=[66, 59]),
   midi.NoteOnEvent(tick=45, channel=0, data=[68, 0]),
   midi.NoteOnEvent(tick=15, channel=0, data=[70, 36]),
   midi.NoteOnEvent(tick=45, channel=0, data=[70, 0]),
   midi.NoteOnEvent(tick=15, channel=0, data=[70, 36]),
   midi.NoteOnEvent(tick=45, channel=0, data=[70, 0]),
   midi.NoteOnEvent(tick=15, channel=0, data=[68, 36]),
   midi.NoteOnEvent(tick=45, channel=0, data=[68, 0]),
   midi.NoteOnEvent(tick=15, channel=0, data=[66, 0]),
   midi.NoteOnEvent(tick=0, channel=0, data=[78, 0]),
   midi.NoteOnEvent(tick=0, channel=0, data=[70, 54]),
   midi.NoteOnEvent(tick=0, channel=0, data=[76, 54]),
   midi.NoteOnEvent(tick=0, channel=0, data=[64, 54]),
   midi.NoteOnEvent(tick=45, channel=0, data=[70, 0]),
   midi.NoteOnEvent(tick=15, channel=0, data=[68, 36]),
   midi.NoteOnEvent(tick=45, channel=0, data=[68, 0]),
   midi.NoteOnEvent(tick=15, channel=0, data=[68, 36]),
   midi.NoteOnEvent(tick=45, channel=0, data=[68, 0]),
   midi.NoteOnEvent(tick=15, channel=0, data=[70, 36]),
   midi.NoteOnEvent(tick=45, channel=0, data=[70, 0]),
   midi.NoteOnEvent(tick=15, channel=0, data=[64, 0]),
   midi.NoteOnEvent(tick=0, channel=0, data=[76, 0]),
   midi.NoteOnEvent(tick=0, channel=0, data=[61, 54]),
   midi.NoteOnEvent(tick=0, channel=0, data=[73, 54]),
   midi.NoteOnEvent(tick=160, channel=0, data=[57, 33]),
   midi.NoteOnEvent(tick=40, channel=0, data=[57, 0]),
   midi.NoteOnEvent(tick=0, channel=0, data=[61, 33]),
   midi.NoteOnEvent(tick=40, channel=0, data=[61, 0]),
   midi.NoteOnEvent(tick=0, channel=0, data=[64, 36]),
   midi.NoteOnEvent(tick=40, channel=0, data=[64, 0]),
   midi.NoteOnEvent(tick=0, channel=0, data=[67, 38]),
   midi.NoteOnEvent(tick=40, channel=0, data=[67, 0]),
   midi.NoteOnEvent(tick=0, channel=0, data=[69, 40]),
   midi.NoteOnEvent(tick=40, channel=0, data=[69, 0]),
   midi.NoteOnEvent(tick=0, channel=0, data=[73, 45]),
   midi.NoteOnEvent(tick=40, channel=0, data=[73, 0]),
   midi.NoteOnEvent(tick=0, channel=0, data=[76, 46]),
   midi.NoteOnEvent(tick=40, channel=0, data=[76, 0]),
   midi.NoteOnEvent(tick=0, channel=0, data=[79, 47]),
   midi.NoteOnEvent(tick=40, channel=0, data=[79, 0]),
   midi.NoteOnEvent(tick=0, channel=0, data=[73, 0]),
   midi.NoteOnEvent(tick=0, channel=0, data=[61, 0]),
   midi.NoteOnEvent(tick=0, channel=0, data=[81, 47]),
   midi.NoteOnEvent(tick=37, channel=0, data=[81, 0]),
   midi.NoteOnEvent(tick=0, channel=0, data=[79, 46]),
   midi.NoteOnEvent(tick=37, channel=0, data=[79, 0]),
   midi.NoteOnEvent(tick=0, channel=0, data=[76, 45]),
   midi.NoteOnEvent(tick=37, channel=0, data=[76, 0]),
   midi.NoteOnEvent(tick=0, channel=0, data=[73, 42]),
   midi.NoteOnEvent(tick=37, channel=0, data=[73, 0]),
   midi.NoteOnEvent(tick=0, channel=0, data=[69, 40]),
   midi.NoteOnEvent(tick=37, channel=0, data=[69, 0]),
   midi.NoteOnEvent(tick=0, channel=0, data=[67, 38]),
   midi.NoteOnEvent(tick=37, channel=0, data=[67, 0]),
   midi.NoteOnEvent(tick=0, channel=0, data=[64, 38]),
   midi.NoteOnEvent(tick=18, channel=0, data=[61, 46]),
   midi.NoteOnEvent(tick=0, channel=0, data=[73, 46]),
   midi.NoteOnEvent(tick=19, channel=0, data=[64, 0]),
   midi.NoteOnEvent(tick=0, channel=0, data=[67, 36]),
   midi.NoteOnEvent(tick=37, channel=0, data=[67, 0]),
   midi.NoteOnEvent(tick=0, channel=0, data=[64, 36]),
   midi.NoteOnEvent(tick=37, channel=0, data=[64, 0]),
   midi.NoteOnEvent(tick=0, channel=0, data=[61, 36]),
   midi.NoteOnEvent(tick=37, channel=0, data=[61, 0]),
   midi.NoteOnEvent(tick=110, channel=0, data=[73, 0]),
   midi.NoteOnEvent(tick=0, channel=0, data=[61, 0]),
   midi.NoteOnEvent(tick=0, channel=0, data=[63, 54]),
   midi.NoteOnEvent(tick=0, channel=0, data=[75, 54]),
   midi.NoteOnEvent(tick=0, channel=0, data=[68, 54]),
   midi.NoteOnEvent(tick=45, channel=0, data=[68, 0]),
   midi.NoteOnEvent(tick=15, channel=0, data=[70, 33]),
   midi.NoteOnEvent(tick=45, channel=0, data=[70, 0]),
   midi.NoteOnEvent(tick=15, channel=0, data=[68, 33]),
   midi.NoteOnEvent(tick=45, channel=0, data=[68, 0]),
   midi.NoteOnEvent(tick=15, channel=0, data=[68, 33]),
   midi.NoteOnEvent(tick=45, channel=0, data=[68, 0]),
   midi.NoteOnEvent(tick=15, channel=0, data=[75, 0]),
   midi.NoteOnEvent(tick=0, channel=0, data=[63, 0]),
   midi.NoteOnEvent(tick=0, channel=0, data=[70, 50]),
   midi.NoteOnEvent(tick=0, channel=0, data=[61, 50]),
   midi.NoteOnEvent(tick=0, channel=0, data=[73, 50]),
   midi.NoteOnEvent(tick=45, channel=0, data=[70, 0]),
   midi.NoteOnEvent(tick=15, channel=0, data=[68, 35]),
   midi.NoteOnEvent(tick=45, channel=0, data=[68, 0]),
   midi.NoteOnEvent(tick=15, channel=0, data=[68, 36]),
   midi.NoteOnEvent(tick=45, channel=0, data=[68, 0]),
   midi.NoteOnEvent(tick=15, channel=0, data=[70, 38]),
   midi.NoteOnEvent(tick=45, channel=0, data=[70, 0]),
   midi.NoteOnEvent(tick=15, channel=0, data=[73, 0]),
   midi.NoteOnEvent(tick=0, channel=0, data=[61, 0]),
   midi.NoteOnEvent(tick=0, channel=0, data=[78, 57]),
   midi.NoteOnEvent(tick=0, channel=0, data=[68, 57]),
   midi.NoteOnEvent(tick=0, channel=0, data=[66, 57]),
   midi.NoteOnEvent(tick=45, channel=0, data=[68, 0]),
   midi.NoteOnEvent(tick=15, channel=0, data=[70, 35]),
   midi.NoteOnEvent(tick=45, channel=0, data=[70, 0]),
   midi.NoteOnEvent(tick=15, channel=0, data=[68, 35]),
   midi.NoteOnEvent(tick=45, channel=0, data=[68, 0]),
   midi.NoteOnEvent(tick=15, channel=0, data=[68, 33]),
   midi.NoteOnEvent(tick=45, channel=0, data=[68, 0]),
   midi.NoteOnEvent(tick=15, channel=0, data=[66, 0]),
   midi.NoteOnEvent(tick=0, channel=0, data=[78, 0]),
   midi.NoteOnEvent(tick=0, channel=0, data=[64, 53]),
   midi.NoteOnEvent(tick=0, channel=0, data=[70, 53]),
   midi.NoteOnEvent(tick=0, channel=0, data=[76, 53]),
   midi.NoteOnEvent(tick=45, channel=0, data=[70, 0]),
   midi.NoteOnEvent(tick=15, channel=0, data=[68, 33]),
   midi.NoteOnEvent(tick=45, channel=0, data=[68, 0]),
   midi.NoteOnEvent(tick=15, channel=0, data=[68, 35]),
   midi.NoteOnEvent(tick=45, channel=0, data=[68, 0]),
   midi.NoteOnEvent(tick=15, channel=0, data=[70, 33]),
   midi.NoteOnEvent(tick=45, channel=0, data=[70, 0]),
   midi.NoteOnEvent(tick=15, channel=0, data=[76, 0]),
   midi.NoteOnEvent(tick=0, channel=0, data=[64, 0]),
   midi.NoteOnEvent(tick=0, channel=0, data=[63, 58]),
   midi.NoteOnEvent(tick=0, channel=0, data=[75, 58]),
   midi.NoteOnEvent(tick=160, channel=0, data=[57, 33]),
   midi.NoteOnEvent(tick=40, channel=0, data=[57, 0]),
   midi.NoteOnEvent(tick=0, channel=0, data=[61, 33]),
   midi.NoteOnEvent(tick=40, channel=0, data=[61, 0]),
   midi.NoteOnEvent(tick=0, channel=0, data=[64, 36]),
   midi.NoteOnEvent(tick=40, channel=0, data=[64, 0]),
   midi.NoteOnEvent(tick=0, channel=0, data=[67, 38]),
   midi.NoteOnEvent(tick=40, channel=0, data=[67, 0]),
   midi.NoteOnEvent(tick=0, channel=0, data=[69, 40]),
   midi.NoteOnEvent(tick=40, channel=0, data=[69, 0]),
   midi.NoteOnEvent(tick=0, channel=0, data=[73, 45]),
   midi.NoteOnEvent(tick=40, channel=0, data=[73, 0]),
   midi.NoteOnEvent(tick=0, channel=0, data=[76, 46]),
   midi.NoteOnEvent(tick=40, channel=0, data=[76, 0]),
   midi.NoteOnEvent(tick=0, channel=0, data=[79, 47]),
   midi.NoteOnEvent(tick=40, channel=0, data=[79, 0]),
   midi.NoteOnEvent(tick=0, channel=0, data=[75, 0]),
   midi.NoteOnEvent(tick=0, channel=0, data=[63, 0]),
   midi.NoteOnEvent(tick=0, channel=0, data=[81, 47]),
   midi.NoteOnEvent(tick=37, channel=0, data=[81, 0]),
   midi.NoteOnEvent(tick=0, channel=0, data=[79, 46]),
   midi.NoteOnEvent(tick=37, channel=0, data=[79, 0]),
   midi.NoteOnEvent(tick=0, channel=0, data=[76, 45]),
   midi.NoteOnEvent(tick=37, channel=0, data=[76, 0]),
   midi.NoteOnEvent(tick=0, channel=0, data=[73, 42]),
   midi.NoteOnEvent(tick=37, channel=0, data=[73, 0]),
   midi.NoteOnEvent(tick=0, channel=0, data=[69, 40]),
   midi.NoteOnEvent(tick=37, channel=0, data=[69, 0]),
   midi.NoteOnEvent(tick=0, channel=0, data=[67, 38]),
   midi.NoteOnEvent(tick=37, channel=0, data=[67, 0]),
   midi.NoteOnEvent(tick=0, channel=0, data=[64, 38]),
   midi.NoteOnEvent(tick=18, channel=0, data=[71, 46]),
   midi.NoteOnEvent(tick=0, channel=0, data=[59, 46]),
   midi.NoteOnEvent(tick=19, channel=0, data=[64, 0]),
   midi.NoteOnEvent(tick=0, channel=0, data=[67, 36]),
   midi.NoteOnEvent(tick=37, channel=0, data=[67, 0]),
   midi.NoteOnEvent(tick=0, channel=0, data=[64, 36]),
   midi.NoteOnEvent(tick=37, channel=0, data=[64, 0]),
   midi.NoteOnEvent(tick=0, channel=0, data=[61, 36]),
   midi.NoteOnEvent(tick=37, channel=0, data=[61, 0]),
   midi.NoteOnEvent(tick=110, channel=0, data=[59, 0]),
   midi.NoteOnEvent(tick=0, channel=0, data=[71, 0]),
   midi.NoteOnEvent(tick=0, channel=0, data=[55, 23]),
   midi.NoteOnEvent(tick=0, channel=0, data=[58, 23]),
   midi.NoteOnEvent(tick=45, channel=0, data=[58, 0]),
   midi.NoteOnEvent(tick=0, channel=0, data=[55, 0]),
   midi.NoteOnEvent(tick=15, channel=0, data=[59, 31]),
   midi.NoteOnEvent(tick=45, channel=0, data=[59, 0]),
   midi.NoteOnEvent(tick=15, channel=0, data=[58, 31]),
   midi.NoteOnEvent(tick=32, channel=0, data=[58, 0]),
   midi.NoteOnEvent(tick=28, channel=0, data=[58, 31]),
   midi.NoteOnEvent(tick=45, channel=0, data=[58, 0]),
   midi.NoteOnEvent(tick=15, channel=0, data=[71, 35]),
   midi.NoteOnEvent(tick=45, channel=0, data=[71, 0]),
   midi.NoteOnEvent(tick=15, channel=0, data=[67, 27]),
   midi.NoteOnEvent(tick=0, channel=0, data=[70, 27]),
   midi.NoteOnEvent(tick=45, channel=0, data=[70, 0]),
   midi.NoteOnEvent(tick=0, channel=0, data=[67, 0]),
   midi.NoteOnEvent(tick=15, channel=0, data=[58, 33]),
   midi.NoteOnEvent(tick=45, channel=0, data=[58, 0]),
   midi.NoteOnEvent(tick=15, channel=0, data=[71, 33]),
   midi.NoteOnEvent(tick=45, channel=0, data=[71, 0]),
   midi.NoteOnEvent(tick=15, channel=0, data=[67, 31]),
   midi.NoteOnEvent(tick=0, channel=0, data=[70, 31]),
   midi.NoteOnEvent(tick=45, channel=0, data=[70, 0]),
   midi.NoteOnEvent(tick=0, channel=0, data=[67, 0]),
   midi.NoteOnEvent(tick=15, channel=0, data=[71, 33]),
   midi.NoteOnEvent(tick=45, channel=0, data=[71, 0]),
   midi.NoteOnEvent(tick=15, channel=0, data=[70, 33]),
   midi.NoteOnEvent(tick=45, channel=0, data=[70, 0]),
   midi.NoteOnEvent(tick=15, channel=0, data=[70, 33]),
   midi.NoteOnEvent(tick=45, channel=0, data=[70, 0]),
   midi.NoteOnEvent(tick=15, channel=0, data=[83, 36]),
   midi.NoteOnEvent(tick=45, channel=0, data=[83, 0]),
   midi.NoteOnEvent(tick=15, channel=0, data=[82, 30]),
   midi.NoteOnEvent(tick=0, channel=0, data=[79, 30]),
   midi.NoteOnEvent(tick=45, channel=0, data=[79, 0]),
   midi.NoteOnEvent(tick=0, channel=0, data=[82, 0]),
   midi.NoteOnEvent(tick=15, channel=0, data=[70, 33]),
   midi.NoteOnEvent(tick=45, channel=0, data=[70, 0]),
   midi.NoteOnEvent(tick=15, channel=0, data=[83, 30]),
   midi.NoteOnEvent(tick=45, channel=0, data=[83, 0]),
   midi.NoteOnEvent(tick=15, channel=0, data=[82, 35]),
   midi.NoteOnEvent(tick=48, channel=0, data=[82, 0]),
   midi.NoteOnEvent(tick=12, channel=0, data=[83, 35]),
   midi.NoteOnEvent(tick=38, channel=0, data=[83, 0]),
   midi.NoteOnEvent(tick=22, channel=0, data=[82, 35]),
   midi.NoteOnEvent(tick=45, channel=0, data=[82, 0]),
   midi.NoteOnEvent(tick=15, channel=0, data=[82, 35]),
   midi.NoteOnEvent(tick=48, channel=0, data=[82, 0]),
   midi.NoteOnEvent(tick=12, channel=0, data=[87, 31]),
   midi.NoteOnEvent(tick=0, channel=0, data=[83, 31]),
   midi.NoteOnEvent(tick=38, channel=0, data=[83, 0]),
   midi.NoteOnEvent(tick=0, channel=0, data=[87, 0]),
   midi.NoteOnEvent(tick=22, channel=0, data=[82, 36]),
   midi.NoteOnEvent(tick=45, channel=0, data=[82, 0]),
   midi.NoteOnEvent(tick=15, channel=0, data=[82, 36]),
   midi.NoteOnEvent(tick=48, channel=0, data=[82, 0]),
   midi.NoteOnEvent(tick=12, channel=0, data=[83, 36]),
   midi.NoteOnEvent(tick=38, channel=0, data=[83, 0]),
   midi.NoteOnEvent(tick=22, channel=0, data=[79, 33]),
   midi.NoteOnEvent(tick=0, channel=0, data=[82, 33]),
   midi.NoteOnEvent(tick=48, channel=0, data=[82, 0]),
   midi.NoteOnEvent(tick=0, channel=0, data=[79, 0]),
   midi.NoteOnEvent(tick=12, channel=0, data=[83, 35]),
   midi.NoteOnEvent(tick=38, channel=0, data=[83, 0]),
   midi.NoteOnEvent(tick=22, channel=0, data=[82, 35]),
   midi.NoteOnEvent(tick=45, channel=0, data=[82, 0]),
   midi.NoteOnEvent(tick=15, channel=0, data=[82, 35]),
   midi.NoteOnEvent(tick=48, channel=0, data=[82, 0]),
   midi.NoteOnEvent(tick=12, channel=0, data=[87, 31]),
   midi.NoteOnEvent(tick=0, channel=0, data=[83, 31]),
   midi.NoteOnEvent(tick=38, channel=0, data=[83, 0]),
   midi.NoteOnEvent(tick=0, channel=0, data=[87, 0]),
   midi.NoteOnEvent(tick=22, channel=0, data=[82, 36]),
   midi.NoteOnEvent(tick=45, channel=0, data=[82, 0]),
   midi.NoteOnEvent(tick=15, channel=0, data=[82, 36]),
   midi.NoteOnEvent(tick=48, channel=0, data=[82, 0]),
   midi.NoteOnEvent(tick=12, channel=0, data=[83, 36]),
   midi.NoteOnEvent(tick=38, channel=0, data=[83, 0]),
   midi.NoteOnEvent(tick=22, channel=0, data=[79, 31]),
   midi.NoteOnEvent(tick=0, channel=0, data=[82, 31]),
   midi.NoteOnEvent(tick=48, channel=0, data=[82, 0]),
   midi.NoteOnEvent(tick=0, channel=0, data=[79, 0]),
   midi.NoteOnEvent(tick=12, channel=0, data=[83, 35]),
   midi.NoteOnEvent(tick=38, channel=0, data=[83, 0]),
   midi.NoteOnEvent(tick=22, channel=0, data=[82, 35]),
   midi.NoteOnEvent(tick=45, channel=0, data=[82, 0]),
   midi.NoteOnEvent(tick=15, channel=0, data=[82, 35]),
   midi.NoteOnEvent(tick=48, channel=0, data=[82, 0]),
   midi.NoteOnEvent(tick=12, channel=0, data=[87, 31]),
   midi.NoteOnEvent(tick=0, channel=0, data=[83, 31]),
   midi.NoteOnEvent(tick=38, channel=0, data=[83, 0]),
   midi.NoteOnEvent(tick=0, channel=0, data=[87, 0]),
   midi.NoteOnEvent(tick=22, channel=0, data=[82, 36]),
   midi.NoteOnEvent(tick=45, channel=0, data=[82, 0]),
   midi.NoteOnEvent(tick=15, channel=0, data=[82, 36]),
   midi.NoteOnEvent(tick=48, channel=0, data=[82, 0]),
   midi.NoteOnEvent(tick=12, channel=0, data=[83, 36]),
   midi.NoteOnEvent(tick=38, channel=0, data=[83, 0]),
   midi.NoteOnEvent(tick=22, channel=0, data=[79, 30]),
   midi.NoteOnEvent(tick=0, channel=0, data=[82, 30]),
   midi.NoteOnEvent(tick=48, channel=0, data=[82, 0]),
   midi.NoteOnEvent(tick=0, channel=0, data=[79, 0]),
   midi.NoteOnEvent(tick=12, channel=0, data=[83, 33]),
   midi.NoteOnEvent(tick=38, channel=0, data=[83, 0]),
   midi.NoteOnEvent(tick=22, channel=0, data=[82, 33]),
   midi.NoteOnEvent(tick=45, channel=0, data=[82, 0]),
   midi.NoteOnEvent(tick=15, channel=0, data=[82, 33]),
   midi.NoteOnEvent(tick=48, channel=0, data=[82, 0]),
   midi.NoteOnEvent(tick=12, channel=0, data=[87, 28]),
   midi.NoteOnEvent(tick=0, channel=0, data=[83, 28]),
   midi.NoteOnEvent(tick=38, channel=0, data=[83, 0]),
   midi.NoteOnEvent(tick=0, channel=0, data=[87, 0]),
   midi.NoteOnEvent(tick=22, channel=0, data=[82, 33]),
   midi.NoteOnEvent(tick=45, channel=0, data=[82, 0]),
   midi.NoteOnEvent(tick=15, channel=0, data=[82, 33]),
   midi.NoteOnEvent(tick=48, channel=0, data=[82, 0]),
   midi.NoteOnEvent(tick=12, channel=0, data=[83, 33]),
   midi.NoteOnEvent(tick=38, channel=0, data=[83, 0]),
   midi.NoteOnEvent(tick=22, channel=0, data=[79, 28]),
   midi.NoteOnEvent(tick=0, channel=0, data=[82, 28]),
   midi.NoteOnEvent(tick=48, channel=0, data=[82, 0]),
   midi.NoteOnEvent(tick=0, channel=0, data=[79, 0]),
   midi.NoteOnEvent(tick=12, channel=0, data=[83, 31]),
   midi.NoteOnEvent(tick=38, channel=0, data=[83, 0]),
   midi.NoteOnEvent(tick=22, channel=0, data=[82, 31]),
   midi.NoteOnEvent(tick=45, channel=0, data=[82, 0]),
   midi.NoteOnEvent(tick=15, channel=0, data=[82, 31]),
   midi.NoteOnEvent(tick=48, channel=0, data=[82, 0]),
   midi.NoteOnEvent(tick=12, channel=0, data=[87, 28]),
   midi.NoteOnEvent(tick=0, channel=0, data=[83, 28]),
   midi.NoteOnEvent(tick=38, channel=0, data=[83, 0]),
   midi.NoteOnEvent(tick=0, channel=0, data=[87, 0]),
   midi.NoteOnEvent(tick=22, channel=0, data=[82, 31]),
   midi.NoteOnEvent(tick=45, channel=0, data=[82, 0]),
   midi.NoteOnEvent(tick=15, channel=0, data=[82, 31]),
   midi.NoteOnEvent(tick=48, channel=0, data=[82, 0]),
   midi.NoteOnEvent(tick=12, channel=0, data=[83, 31]),
   midi.NoteOnEvent(tick=38, channel=0, data=[83, 0]),
   midi.NoteOnEvent(tick=22, channel=0, data=[79, 28]),
   midi.NoteOnEvent(tick=0, channel=0, data=[82, 28]),
   midi.NoteOnEvent(tick=48, channel=0, data=[82, 0]),
   midi.NoteOnEvent(tick=0, channel=0, data=[79, 0]),
   midi.NoteOnEvent(tick=12, channel=0, data=[83, 30]),
   midi.NoteOnEvent(tick=38, channel=0, data=[83, 0]),
   midi.NoteOnEvent(tick=22, channel=0, data=[82, 30]),
   midi.NoteOnEvent(tick=45, channel=0, data=[82, 0]),
   midi.NoteOnEvent(tick=15, channel=0, data=[82, 30]),
   midi.NoteOnEvent(tick=48, channel=0, data=[82, 0]),
   midi.NoteOnEvent(tick=12, channel=0, data=[87, 25]),
   midi.NoteOnEvent(tick=0, channel=0, data=[83, 25]),
   midi.NoteOnEvent(tick=38, channel=0, data=[83, 0]),
   midi.NoteOnEvent(tick=0, channel=0, data=[87, 0]),
   midi.NoteOnEvent(tick=22, channel=0, data=[82, 31]),
   midi.NoteOnEvent(tick=45, channel=0, data=[82, 0]),
   midi.NoteOnEvent(tick=15, channel=0, data=[82, 31]),
   midi.NoteOnEvent(tick=48, channel=0, data=[82, 0]),
   midi.NoteOnEvent(tick=12, channel=0, data=[83, 31]),
   midi.NoteOnEvent(tick=38, channel=0, data=[83, 0]),
   midi.NoteOnEvent(tick=22, channel=0, data=[81, 28]),
   midi.NoteOnEvent(tick=0, channel=0, data=[79, 28]),
   midi.NoteOnEvent(tick=30, channel=0, data=[79, 0]),
   midi.NoteOnEvent(tick=0, channel=0, data=[81, 0]),
   midi.NoteOnEvent(tick=10, channel=0, data=[83, 30]),
   midi.NoteOnEvent(tick=30, channel=0, data=[83, 0]),
   midi.NoteOnEvent(tick=10, channel=0, data=[81, 31]),
   midi.NoteOnEvent(tick=30, channel=0, data=[81, 0]),
   midi.NoteOnEvent(tick=10, channel=0, data=[81, 33]),
   midi.NoteOnEvent(tick=30, channel=0, data=[81, 0]),
   midi.NoteOnEvent(tick=10, channel=0, data=[85, 33]),
   midi.NoteOnEvent(tick=30, channel=0, data=[85, 0]),
   midi.NoteOnEvent(tick=10, channel=0, data=[88, 35]),
   midi.NoteOnEvent(tick=30, channel=0, data=[88, 0]),
   midi.NoteOnEvent(tick=10, channel=0, data=[91, 36]),
   midi.NoteOnEvent(tick=30, channel=0, data=[91, 0]),
   midi.NoteOnEvent(tick=10, channel=0, data=[88, 33]),
   midi.NoteOnEvent(tick=30, channel=0, data=[88, 0]),
   midi.NoteOnEvent(tick=10, channel=0, data=[85, 33]),
   midi.NoteOnEvent(tick=30, channel=0, data=[85, 0]),
   midi.NoteOnEvent(tick=10, channel=0, data=[81, 31]),
   midi.NoteOnEvent(tick=30, channel=0, data=[81, 0]),
   midi.NoteOnEvent(tick=10, channel=0, data=[81, 31]),
   midi.NoteOnEvent(tick=30, channel=0, data=[81, 0]),
   midi.NoteOnEvent(tick=10, channel=0, data=[83, 30]),
   midi.NoteOnEvent(tick=30, channel=0, data=[83, 0]),
   midi.NoteOnEvent(tick=10, channel=0, data=[79, 28]),
   midi.NoteOnEvent(tick=0, channel=0, data=[82, 28]),
   midi.NoteOnEvent(tick=48, channel=0, data=[82, 0]),
   midi.NoteOnEvent(tick=0, channel=0, data=[79, 0]),
   midi.NoteOnEvent(tick=12, channel=0, data=[83, 31]),
   midi.NoteOnEvent(tick=38, channel=0, data=[83, 0]),
   midi.NoteOnEvent(tick=22, channel=0, data=[82, 31]),
   midi.NoteOnEvent(tick=45, channel=0, data=[82, 0]),
   midi.NoteOnEvent(tick=15, channel=0, data=[82, 31]),
   midi.NoteOnEvent(tick=48, channel=0, data=[82, 0]),
   midi.NoteOnEvent(tick=12, channel=0, data=[87, 28]),
   midi.NoteOnEvent(tick=0, channel=0, data=[83, 28]),
   midi.NoteOnEvent(tick=38, channel=0, data=[83, 0]),
   midi.NoteOnEvent(tick=0, channel=0, data=[87, 0]),
   midi.NoteOnEvent(tick=22, channel=0, data=[82, 31]),
   midi.NoteOnEvent(tick=45, channel=0, data=[82, 0]),
   midi.NoteOnEvent(tick=15, channel=0, data=[82, 31]),
   midi.NoteOnEvent(tick=48, channel=0, data=[82, 0]),
   midi.NoteOnEvent(tick=12, channel=0, data=[83, 31]),
   midi.NoteOnEvent(tick=38, channel=0, data=[83, 0]),
   midi.NoteOnEvent(tick=22, channel=0, data=[79, 25]),
   midi.NoteOnEvent(tick=0, channel=0, data=[82, 25]),
   midi.NoteOnEvent(tick=48, channel=0, data=[82, 0]),
   midi.NoteOnEvent(tick=0, channel=0, data=[79, 0]),
   midi.NoteOnEvent(tick=12, channel=0, data=[83, 30]),
   midi.NoteOnEvent(tick=38, channel=0, data=[83, 0]),
   midi.NoteOnEvent(tick=22, channel=0, data=[82, 30]),
   midi.NoteOnEvent(tick=45, channel=0, data=[82, 0]),
   midi.NoteOnEvent(tick=15, channel=0, data=[82, 30]),
   midi.NoteOnEvent(tick=48, channel=0, data=[82, 0]),
   midi.NoteOnEvent(tick=12, channel=0, data=[87, 25]),
   midi.NoteOnEvent(tick=0, channel=0, data=[83, 25]),
   midi.NoteOnEvent(tick=38, channel=0, data=[83, 0]),
   midi.NoteOnEvent(tick=0, channel=0, data=[87, 0]),
   midi.NoteOnEvent(tick=22, channel=0, data=[82, 30]),
   midi.NoteOnEvent(tick=45, channel=0, data=[82, 0]),
   midi.NoteOnEvent(tick=15, channel=0, data=[82, 30]),
   midi.NoteOnEvent(tick=48, channel=0, data=[82, 0]),
   midi.NoteOnEvent(tick=12, channel=0, data=[83, 30]),
   midi.NoteOnEvent(tick=48, channel=0, data=[83, 0]),
   midi.NoteOnEvent(tick=12, channel=0, data=[79, 28]),
   midi.NoteOnEvent(tick=0, channel=0, data=[82, 28]),
   midi.NoteOnEvent(tick=48, channel=0, data=[82, 0]),
   midi.NoteOnEvent(tick=0, channel=0, data=[79, 0]),
   midi.NoteOnEvent(tick=12, channel=0, data=[83, 30]),
   midi.NoteOnEvent(tick=38, channel=0, data=[83, 0]),
   midi.NoteOnEvent(tick=22, channel=0, data=[82, 30]),
   midi.NoteOnEvent(tick=45, channel=0, data=[82, 0]),
   midi.NoteOnEvent(tick=15, channel=0, data=[82, 30]),
   midi.NoteOnEvent(tick=48, channel=0, data=[82, 0]),
   midi.NoteOnEvent(tick=12, channel=0, data=[87, 25]),
   midi.NoteOnEvent(tick=0, channel=0, data=[83, 25]),
   midi.NoteOnEvent(tick=38, channel=0, data=[83, 0]),
   midi.NoteOnEvent(tick=0, channel=0, data=[87, 0]),
   midi.NoteOnEvent(tick=22, channel=0, data=[82, 31]),
   midi.NoteOnEvent(tick=45, channel=0, data=[82, 0]),
   midi.NoteOnEvent(tick=15, channel=0, data=[82, 31]),
   midi.NoteOnEvent(tick=48, channel=0, data=[82, 0]),
   midi.NoteOnEvent(tick=12, channel=0, data=[83, 31]),
   midi.NoteOnEvent(tick=38, channel=0, data=[83, 0]),
   midi.NoteOnEvent(tick=22, channel=0, data=[81, 28]),
   midi.NoteOnEvent(tick=0, channel=0, data=[79, 28]),
   midi.NoteOnEvent(tick=30, channel=0, data=[79, 0]),
   midi.NoteOnEvent(tick=0, channel=0, data=[81, 0]),
   midi.NoteOnEvent(tick=10, channel=0, data=[83, 28]),
   midi.NoteOnEvent(tick=30, channel=0, data=[83, 0]),
   midi.NoteOnEvent(tick=10, channel=0, data=[81, 30]),
   midi.NoteOnEvent(tick=30, channel=0, data=[81, 0]),
   midi.NoteOnEvent(tick=10, channel=0, data=[81, 31]),
   midi.NoteOnEvent(tick=30, channel=0, data=[81, 0]),
   midi.NoteOnEvent(tick=10, channel=0, data=[85, 33]),
   midi.NoteOnEvent(tick=30, channel=0, data=[85, 0]),
   midi.NoteOnEvent(tick=10, channel=0, data=[88, 33]),
   midi.NoteOnEvent(tick=30, channel=0, data=[88, 0]),
   midi.NoteOnEvent(tick=10, channel=0, data=[91, 33]),
   midi.NoteOnEvent(tick=30, channel=0, data=[91, 0]),
   midi.NoteOnEvent(tick=10, channel=0, data=[88, 36]),
   midi.NoteOnEvent(tick=30, channel=0, data=[88, 0]),
   midi.NoteOnEvent(tick=10, channel=0, data=[85, 35]),
   midi.NoteOnEvent(tick=30, channel=0, data=[85, 0]),
   midi.NoteOnEvent(tick=10, channel=0, data=[81, 33]),
   midi.NoteOnEvent(tick=30, channel=0, data=[81, 0]),
   midi.NoteOnEvent(tick=10, channel=0, data=[81, 33]),
   midi.NoteOnEvent(tick=30, channel=0, data=[81, 0]),
   midi.NoteOnEvent(tick=10, channel=0, data=[83, 31]),
   midi.NoteOnEvent(tick=30, channel=0, data=[83, 0]),
   midi.NoteOnEvent(tick=10, channel=0, data=[79, 27]),
   midi.NoteOnEvent(tick=0, channel=0, data=[82, 27]),
   midi.NoteOnEvent(tick=48, channel=0, data=[82, 0]),
   midi.NoteOnEvent(tick=0, channel=0, data=[79, 0]),
   midi.NoteOnEvent(tick=12, channel=0, data=[83, 31]),
   midi.NoteOnEvent(tick=38, channel=0, data=[83, 0]),
   midi.NoteOnEvent(tick=22, channel=0, data=[82, 31]),
   midi.NoteOnEvent(tick=45, channel=0, data=[82, 0]),
   midi.NoteOnEvent(tick=15, channel=0, data=[82, 31]),
   midi.NoteOnEvent(tick=48, channel=0, data=[82, 0]),
   midi.NoteOnEvent(tick=12, channel=0, data=[87, 30]),
   midi.NoteOnEvent(tick=0, channel=0, data=[83, 30]),
   midi.NoteOnEvent(tick=38, channel=0, data=[83, 0]),
   midi.NoteOnEvent(tick=0, channel=0, data=[87, 0]),
   midi.NoteOnEvent(tick=22, channel=0, data=[82, 35]),
   midi.NoteOnEvent(tick=45, channel=0, data=[82, 0]),
   midi.NoteOnEvent(tick=15, channel=0, data=[82, 35]),
   midi.NoteOnEvent(tick=48, channel=0, data=[82, 0]),
   midi.NoteOnEvent(tick=12, channel=0, data=[83, 36]),
   midi.NoteOnEvent(tick=38, channel=0, data=[83, 0]),
   midi.NoteOnEvent(tick=62, channel=0, data=[83, 35]),
   midi.NoteOnEvent(tick=30, channel=0, data=[83, 0]),
   midi.NoteOnEvent(tick=10, channel=0, data=[84, 35]),
   midi.NoteOnEvent(tick=30, channel=0, data=[84, 0]),
   midi.NoteOnEvent(tick=10, channel=0, data=[85, 36]),
   midi.NoteOnEvent(tick=30, channel=0, data=[85, 0]),
   midi.NoteOnEvent(tick=10, channel=0, data=[87, 36]),
   midi.NoteOnEvent(tick=30, channel=0, data=[87, 0]),
   midi.NoteOnEvent(tick=10, channel=0, data=[88, 40]),
   midi.NoteOnEvent(tick=30, channel=0, data=[88, 0]),
   midi.NoteOnEvent(tick=10, channel=0, data=[94, 40]),
   midi.NoteOnEvent(tick=35, channel=0, data=[94, 0]),
   midi.NoteOnEvent(tick=13, channel=0, data=[91, 40]),
   midi.NoteOnEvent(tick=35, channel=0, data=[91, 0]),
   midi.NoteOnEvent(tick=13, channel=0, data=[89, 40]),
   midi.NoteOnEvent(tick=35, channel=0, data=[89, 0]),
   midi.NoteOnEvent(tick=13, channel=0, data=[85, 36]),
   midi.NoteOnEvent(tick=35, channel=0, data=[85, 0]),
   midi.NoteOnEvent(tick=13, channel=0, data=[82, 35]),
   midi.NoteOnEvent(tick=35, channel=0, data=[82, 0]),
   midi.NoteOnEvent(tick=47, channel=0, data=[78, 36]),
   midi.NoteOnEvent(tick=30, channel=0, data=[78, 0]),
   midi.NoteOnEvent(tick=4, channel=0, data=[79, 36]),
   midi.NoteOnEvent(tick=30, channel=0, data=[79, 0]),
   midi.NoteOnEvent(tick=4, channel=0, data=[80, 36]),
   midi.NoteOnEvent(tick=30, channel=0, data=[80, 0]),
   midi.NoteOnEvent(tick=4, channel=0, data=[81, 36]),
   midi.NoteOnEvent(tick=30, channel=0, data=[81, 0]),
   midi.NoteOnEvent(tick=4, channel=0, data=[82, 36]),
   midi.NoteOnEvent(tick=30, channel=0, data=[82, 0]),
   midi.NoteOnEvent(tick=4, channel=0, data=[85, 40]),
   midi.NoteOnEvent(tick=30, channel=0, data=[85, 0]),
   midi.NoteOnEvent(tick=6, channel=0, data=[89, 40]),
   midi.NoteOnEvent(tick=35, channel=0, data=[89, 0]),
   midi.NoteOnEvent(tick=13, channel=0, data=[88, 36]),
   midi.NoteOnEvent(tick=35, channel=0, data=[88, 0]),
   midi.NoteOnEvent(tick=13, channel=0, data=[85, 36]),
   midi.NoteOnEvent(tick=35, channel=0, data=[85, 0]),
   midi.NoteOnEvent(tick=13, channel=0, data=[82, 36]),
   midi.NoteOnEvent(tick=35, channel=0, data=[82, 0]),
   midi.NoteOnEvent(tick=13, channel=0, data=[79, 36]),
   midi.NoteOnEvent(tick=35, channel=0, data=[79, 0]),
   midi.NoteOnEvent(tick=61, channel=0, data=[77, 36]),
   midi.NoteOnEvent(tick=35, channel=0, data=[77, 0]),
   midi.NoteOnEvent(tick=13, channel=0, data=[73, 36]),
   midi.NoteOnEvent(tick=35, channel=0, data=[73, 0]),
   midi.NoteOnEvent(tick=13, channel=0, data=[67, 35]),
   midi.NoteOnEvent(tick=35, channel=0, data=[67, 0]),
   midi.NoteOnEvent(tick=13, channel=0, data=[65, 35]),
   midi.NoteOnEvent(tick=35, channel=0, data=[65, 0]),
   midi.NoteOnEvent(tick=13, channel=0, data=[63, 33]),
   midi.NoteOnEvent(tick=35, channel=0, data=[63, 0]),
   midi.NoteOnEvent(tick=13, channel=0, data=[61, 33]),
   midi.NoteOnEvent(tick=35, channel=0, data=[61, 0]),
   midi.NoteOnEvent(tick=13, channel=0, data=[58, 33]),
   midi.NoteOnEvent(tick=35, channel=0, data=[58, 0]),
   midi.NoteOnEvent(tick=13, channel=0, data=[55, 31]),
   midi.NoteOnEvent(tick=35, channel=0, data=[55, 0]),
   midi.NoteOnEvent(tick=13, channel=0, data=[53, 31]),
   midi.NoteOnEvent(tick=35, channel=0, data=[53, 0]),
   midi.NoteOnEvent(tick=13, channel=0, data=[52, 27]),
   midi.NoteOnEvent(tick=0, channel=0, data=[55, 27]),
   midi.NoteOnEvent(tick=48, channel=0, data=[55, 0]),
   midi.NoteOnEvent(tick=0, channel=0, data=[52, 0]),
   midi.NoteOnEvent(tick=12, channel=0, data=[56, 30]),
   midi.NoteOnEvent(tick=48, channel=0, data=[56, 0]),
   midi.NoteOnEvent(tick=12, channel=0, data=[55, 30]),
   midi.NoteOnEvent(tick=48, channel=0, data=[55, 0]),
   midi.NoteOnEvent(tick=12, channel=0, data=[55, 30]),
   midi.NoteOnEvent(tick=48, channel=0, data=[55, 0]),
   midi.NoteOnEvent(tick=12, channel=0, data=[64, 25]),
   midi.NoteOnEvent(tick=0, channel=0, data=[67, 25]),
   midi.NoteOnEvent(tick=48, channel=0, data=[67, 0]),
   midi.NoteOnEvent(tick=0, channel=0, data=[64, 0]),
   midi.NoteOnEvent(tick=12, channel=0, data=[55, 28]),
   midi.NoteOnEvent(tick=48, channel=0, data=[55, 0]),
   midi.NoteOnEvent(tick=12, channel=0, data=[55, 28]),
   midi.NoteOnEvent(tick=48, channel=0, data=[55, 0]),
   midi.NoteOnEvent(tick=12, channel=0, data=[56, 28]),
   midi.NoteOnEvent(tick=48, channel=0, data=[56, 0]),
   midi.NoteOnEvent(tick=12, channel=0, data=[52, 27]),
   midi.NoteOnEvent(tick=0, channel=0, data=[55, 27]),
   midi.NoteOnEvent(tick=48, channel=0, data=[55, 0]),
   midi.NoteOnEvent(tick=0, channel=0, data=[52, 0]),
   midi.NoteOnEvent(tick=12, channel=0, data=[56, 30]),
   midi.NoteOnEvent(tick=48, channel=0, data=[56, 0]),
   midi.NoteOnEvent(tick=12, channel=0, data=[55, 30]),
   midi.NoteOnEvent(tick=48, channel=0, data=[55, 0]),
   midi.NoteOnEvent(tick=12, channel=0, data=[55, 30]),
   midi.NoteOnEvent(tick=48, channel=0, data=[55, 0]),
   midi.NoteOnEvent(tick=12, channel=0, data=[64, 25]),
   midi.NoteOnEvent(tick=0, channel=0, data=[67, 25]),
   midi.NoteOnEvent(tick=48, channel=0, data=[67, 0]),
   midi.NoteOnEvent(tick=0, channel=0, data=[64, 0]),
   midi.NoteOnEvent(tick=12, channel=0, data=[55, 28]),
   midi.NoteOnEvent(tick=48, channel=0, data=[55, 0]),
   midi.NoteOnEvent(tick=12, channel=0, data=[55, 28]),
   midi.NoteOnEvent(tick=48, channel=0, data=[55, 0]),
   midi.NoteOnEvent(tick=12, channel=0, data=[56, 28]),
   midi.NoteOnEvent(tick=48, channel=0, data=[56, 0]),
   midi.NoteOnEvent(tick=12, channel=0, data=[52, 27]),
   midi.NoteOnEvent(tick=0, channel=0, data=[55, 27]),
   midi.NoteOnEvent(tick=48, channel=0, data=[55, 0]),
   midi.NoteOnEvent(tick=0, channel=0, data=[52, 0]),
   midi.NoteOnEvent(tick=12, channel=0, data=[56, 33]),
   midi.NoteOnEvent(tick=48, channel=0, data=[56, 0]),
   midi.NoteOnEvent(tick=12, channel=0, data=[55, 33]),
   midi.NoteOnEvent(tick=48, channel=0, data=[55, 0]),
   midi.NoteOnEvent(tick=12, channel=0, data=[55, 33]),
   midi.NoteOnEvent(tick=48, channel=0, data=[55, 0]),
   midi.NoteOnEvent(tick=12, channel=0, data=[64, 33]),
   midi.NoteOnEvent(tick=0, channel=0, data=[67, 33]),
   midi.NoteOnEvent(tick=48, channel=0, data=[67, 0]),
   midi.NoteOnEvent(tick=0, channel=0, data=[64, 0]),
   midi.NoteOnEvent(tick=12, channel=0, data=[55, 35]),
   midi.NoteOnEvent(tick=48, channel=0, data=[55, 0]),
   midi.NoteOnEvent(tick=12, channel=0, data=[55, 35]),
   midi.NoteOnEvent(tick=48, channel=0, data=[55, 0]),
   midi.NoteOnEvent(tick=12, channel=0, data=[56, 35]),
   midi.NoteOnEvent(tick=48, channel=0, data=[56, 0]),
   midi.NoteOnEvent(tick=12, channel=0, data=[63, 36]),
   midi.NoteOnEvent(tick=38, channel=0, data=[63, 0]),
   midi.NoteOnEvent(tick=10, channel=0, data=[52, 36]),
   midi.NoteOnEvent(tick=40, channel=0, data=[52, 0]),
   midi.NoteOnEvent(tick=8, channel=0, data=[54, 36]),
   midi.NoteOnEvent(tick=40, channel=0, data=[54, 0]),
   midi.NoteOnEvent(tick=8, channel=0, data=[56, 35]),
   midi.NoteOnEvent(tick=40, channel=0, data=[56, 0]),
   midi.NoteOnEvent(tick=8, channel=0, data=[58, 35]),
   midi.NoteOnEvent(tick=40, channel=0, data=[58, 0]),
   midi.NoteOnEvent(tick=8, channel=0, data=[61, 35]),
   midi.NoteOnEvent(tick=40, channel=0, data=[61, 0]),
   midi.NoteOnEvent(tick=8, channel=0, data=[64, 35]),
   midi.NoteOnEvent(tick=40, channel=0, data=[64, 0]),
   midi.NoteOnEvent(tick=8, channel=0, data=[66, 33]),
   midi.NoteOnEvent(tick=40, channel=0, data=[66, 0]),
   midi.NoteOnEvent(tick=8, channel=0, data=[68, 33]),
   midi.NoteOnEvent(tick=40, channel=0, data=[68, 0]),
   midi.NoteOnEvent(tick=8, channel=0, data=[70, 33]),
   midi.NoteOnEvent(tick=40, channel=0, data=[70, 0]),
   midi.NoteOnEvent(tick=8, channel=0, data=[55, 28]),
   midi.NoteOnEvent(tick=0, channel=0, data=[52, 28]),
   midi.NoteOnEvent(tick=45, channel=0, data=[52, 0]),
   midi.NoteOnEvent(tick=0, channel=0, data=[55, 0]),
   midi.NoteOnEvent(tick=15, channel=0, data=[56, 35]),
   midi.NoteOnEvent(tick=45, channel=0, data=[56, 0]),
   midi.NoteOnEvent(tick=15, channel=0, data=[55, 35]),
   midi.NoteOnEvent(tick=32, channel=0, data=[55, 0]),
   midi.NoteOnEvent(tick=28, channel=0, data=[55, 35]),
   midi.NoteOnEvent(tick=45, channel=0, data=[55, 0]),
   midi.NoteOnEvent(tick=15, channel=0, data=[68, 40]),
   midi.NoteOnEvent(tick=45, channel=0, data=[68, 0]),
   midi.NoteOnEvent(tick=15, channel=0, data=[67, 30]),
   midi.NoteOnEvent(tick=0, channel=0, data=[64, 30]),
   midi.NoteOnEvent(tick=45, channel=0, data=[64, 0]),
   midi.NoteOnEvent(tick=0, channel=0, data=[67, 0]),
   midi.NoteOnEvent(tick=15, channel=0, data=[55, 33]),
   midi.NoteOnEvent(tick=45, channel=0, data=[55, 0]),
   midi.NoteOnEvent(tick=15, channel=0, data=[68, 33]),
   midi.NoteOnEvent(tick=45, channel=0, data=[68, 0]),
   midi.NoteOnEvent(tick=15, channel=0, data=[67, 28]),
   midi.NoteOnEvent(tick=0, channel=0, data=[64, 28]),
   midi.NoteOnEvent(tick=45, channel=0, data=[64, 0]),
   midi.NoteOnEvent(tick=0, channel=0, data=[67, 0]),
   midi.NoteOnEvent(tick=15, channel=0, data=[68, 35]),
   midi.NoteOnEvent(tick=45, channel=0, data=[68, 0]),
   midi.NoteOnEvent(tick=15, channel=0, data=[67, 35]),
   midi.NoteOnEvent(tick=32, channel=0, data=[67, 0]),
   midi.NoteOnEvent(tick=28, channel=0, data=[67, 35]),
   midi.NoteOnEvent(tick=45, channel=0, data=[67, 0]),
   midi.NoteOnEvent(tick=15, channel=0, data=[80, 40]),
   midi.NoteOnEvent(tick=45, channel=0, data=[80, 0]),
   midi.NoteOnEvent(tick=15, channel=0, data=[79, 31]),
   midi.NoteOnEvent(tick=0, channel=0, data=[76, 31]),
   midi.NoteOnEvent(tick=45, channel=0, data=[76, 0]),
   midi.NoteOnEvent(tick=0, channel=0, data=[79, 0]),
   midi.NoteOnEvent(tick=15, channel=0, data=[67, 33]),
   midi.NoteOnEvent(tick=45, channel=0, data=[67, 0]),
   midi.NoteOnEvent(tick=15, channel=0, data=[80, 33]),
   midi.NoteOnEvent(tick=45, channel=0, data=[80, 0]),
   midi.NoteOnEvent(tick=15, channel=0, data=[79, 33]),
   midi.NoteOnEvent(tick=0, channel=0, data=[76, 33]),
   midi.NoteOnEvent(tick=45, channel=0, data=[76, 0]),
   midi.NoteOnEvent(tick=0, channel=0, data=[79, 0]),
   midi.NoteOnEvent(tick=15, channel=0, data=[80, 35]),
   midi.NoteOnEvent(tick=45, channel=0, data=[80, 0]),
   midi.NoteOnEvent(tick=15, channel=0, data=[79, 35]),
   midi.NoteOnEvent(tick=32, channel=0, data=[79, 0]),
   midi.NoteOnEvent(tick=28, channel=0, data=[79, 35]),
   midi.NoteOnEvent(tick=45, channel=0, data=[79, 0]),
   midi.NoteOnEvent(tick=15, channel=0, data=[92, 40]),
   midi.NoteOnEvent(tick=45, channel=0, data=[92, 0]),
   midi.NoteOnEvent(tick=15, channel=0, data=[91, 35]),
   midi.NoteOnEvent(tick=0, channel=0, data=[88, 35]),
   midi.NoteOnEvent(tick=45, channel=0, data=[88, 0]),
   midi.NoteOnEvent(tick=0, channel=0, data=[91, 0]),
   midi.NoteOnEvent(tick=15, channel=0, data=[79, 36]),
   midi.NoteOnEvent(tick=45, channel=0, data=[79, 0]),
   midi.NoteOnEvent(tick=15, channel=0, data=[80, 36]),
   midi.NoteOnEvent(tick=45, channel=0, data=[80, 0]),
   midi.NoteOnEvent(tick=15, channel=0, data=[76, 28]),
   midi.NoteOnEvent(tick=0, channel=0, data=[79, 28]),
   midi.NoteOnEvent(tick=45, channel=0, data=[79, 0]),
   midi.NoteOnEvent(tick=0, channel=0, data=[76, 0]),
   midi.NoteOnEvent(tick=15, channel=0, data=[80, 35]),
   midi.NoteOnEvent(tick=45, channel=0, data=[80, 0]),
   midi.NoteOnEvent(tick=15, channel=0, data=[79, 35]),
   midi.NoteOnEvent(tick=32, channel=0, data=[79, 0]),
   midi.NoteOnEvent(tick=28, channel=0, data=[79, 35]),
   midi.NoteOnEvent(tick=45, channel=0, data=[79, 0]),
   midi.NoteOnEvent(tick=15, channel=0, data=[92, 50]),
   midi.NoteOnEvent(tick=45, channel=0, data=[92, 0]),
   midi.NoteOnEvent(tick=15, channel=0, data=[88, 33]),
   midi.NoteOnEvent(tick=0, channel=0, data=[91, 33]),
   midi.NoteOnEvent(tick=45, channel=0, data=[91, 0]),
   midi.NoteOnEvent(tick=0, channel=0, data=[88, 0]),
   midi.NoteOnEvent(tick=15, channel=0, data=[79, 35]),
   midi.NoteOnEvent(tick=45, channel=0, data=[79, 0]),
   midi.NoteOnEvent(tick=15, channel=0, data=[80, 35]),
   midi.NoteOnEvent(tick=45, channel=0, data=[80, 0]),
   midi.NoteOnEvent(tick=15, channel=0, data=[76, 35]),
   midi.NoteOnEvent(tick=0, channel=0, data=[79, 35]),
   midi.NoteOnEvent(tick=45, channel=0, data=[79, 0]),
   midi.NoteOnEvent(tick=0, channel=0, data=[76, 0]),
   midi.NoteOnEvent(tick=15, channel=0, data=[80, 33]),
   midi.NoteOnEvent(tick=45, channel=0, data=[80, 0]),
   midi.NoteOnEvent(tick=15, channel=0, data=[79, 33]),
   midi.NoteOnEvent(tick=45, channel=0, data=[79, 0]),
   midi.NoteOnEvent(tick=15, channel=0, data=[79, 50]),
   midi.NoteOnEvent(tick=45, channel=0, data=[79, 0]),
   midi.NoteOnEvent(tick=15, channel=0, data=[92, 36]),
   midi.NoteOnEvent(tick=45, channel=0, data=[92, 0]),
   midi.NoteOnEvent(tick=15, channel=0, data=[88, 33]),
   midi.NoteOnEvent(tick=0, channel=0, data=[91, 33]),
   midi.NoteOnEvent(tick=45, channel=0, data=[91, 0]),
   midi.NoteOnEvent(tick=0, channel=0, data=[88, 0]),
   midi.NoteOnEvent(tick=15, channel=0, data=[79, 33]),
   midi.NoteOnEvent(tick=45, channel=0, data=[79, 0]),
   midi.NoteOnEvent(tick=15, channel=0, data=[80, 40]),
   midi.NoteOnEvent(tick=45, channel=0, data=[80, 0]),
   midi.NoteOnEvent(tick=15, channel=0, data=[76, 36]),
   midi.NoteOnEvent(tick=0, channel=0, data=[79, 36]),
   midi.NoteOnEvent(tick=45, channel=0, data=[79, 0]),
   midi.NoteOnEvent(tick=0, channel=0, data=[76, 0]),
   midi.NoteOnEvent(tick=15, channel=0, data=[80, 38]),
   midi.NoteOnEvent(tick=45, channel=0, data=[80, 0]),
   midi.NoteOnEvent(tick=15, channel=0, data=[79, 36]),
   midi.NoteOnEvent(tick=32, channel=0, data=[79, 0]),
   midi.NoteOnEvent(tick=28, channel=0, data=[79, 36]),
   midi.NoteOnEvent(tick=45, channel=0, data=[79, 0]),
   midi.NoteOnEvent(tick=15, channel=0, data=[92, 50]),
   midi.NoteOnEvent(tick=45, channel=0, data=[92, 0]),
   midi.NoteOnEvent(tick=15, channel=0, data=[88, 35]),
   midi.NoteOnEvent(tick=0, channel=0, data=[91, 35]),
   midi.NoteOnEvent(tick=45, channel=0, data=[91, 0]),
   midi.NoteOnEvent(tick=0, channel=0, data=[88, 0]),
   midi.NoteOnEvent(tick=15, channel=0, data=[79, 33]),
   midi.NoteOnEvent(tick=45, channel=0, data=[79, 0]),
   midi.NoteOnEvent(tick=15, channel=0, data=[80, 33]),
   midi.NoteOnEvent(tick=45, channel=0, data=[80, 0]),
   midi.NoteOnEvent(tick=15, channel=0, data=[82, 30]),
   midi.NoteOnEvent(tick=30, channel=0, data=[82, 0]),
   midi.NoteOnEvent(tick=0, channel=0, data=[76, 30]),
   midi.NoteOnEvent(tick=30, channel=0, data=[76, 0]),
   midi.NoteOnEvent(tick=0, channel=0, data=[78, 31]),
   midi.NoteOnEvent(tick=30, channel=0, data=[78, 0]),
   midi.NoteOnEvent(tick=0, channel=0, data=[82, 33]),
   midi.NoteOnEvent(tick=30, channel=0, data=[82, 0]),
   midi.NoteOnEvent(tick=0, channel=0, data=[85, 33]),
   midi.NoteOnEvent(tick=30, channel=0, data=[85, 0]),
   midi.NoteOnEvent(tick=0, channel=0, data=[88, 33]),
   midi.NoteOnEvent(tick=30, channel=0, data=[88, 0]),
   midi.NoteOnEvent(tick=0, channel=0, data=[90, 33]),
   midi.NoteOnEvent(tick=30, channel=0, data=[90, 0]),
   midi.NoteOnEvent(tick=0, channel=0, data=[94, 35]),
   midi.NoteOnEvent(tick=30, channel=0, data=[94, 0]),
   midi.NoteOnEvent(tick=0, channel=0, data=[97, 35]),
   midi.NoteOnEvent(tick=30, channel=0, data=[97, 0]),
   midi.NoteOnEvent(tick=0, channel=0, data=[94, 35]),
   midi.NoteOnEvent(tick=30, channel=0, data=[94, 0]),
   midi.NoteOnEvent(tick=0, channel=0, data=[90, 35]),
   midi.NoteOnEvent(tick=30, channel=0, data=[90, 0]),
   midi.NoteOnEvent(tick=0, channel=0, data=[88, 33]),
   midi.NoteOnEvent(tick=30, channel=0, data=[88, 0]),
   midi.NoteOnEvent(tick=0, channel=0, data=[85, 33]),
   midi.NoteOnEvent(tick=30, channel=0, data=[85, 0]),
   midi.NoteOnEvent(tick=0, channel=0, data=[82, 33]),
   midi.NoteOnEvent(tick=30, channel=0, data=[82, 0]),
   midi.NoteOnEvent(tick=0, channel=0, data=[78, 33]),
   midi.NoteOnEvent(tick=30, channel=0, data=[78, 0]),
   midi.NoteOnEvent(tick=0, channel=0, data=[76, 33]),
   midi.NoteOnEvent(tick=30, channel=0, data=[76, 0]),
   midi.NoteOnEvent(tick=0, channel=0, data=[76, 28]),
   midi.NoteOnEvent(tick=0, channel=0, data=[79, 28]),
   midi.NoteOnEvent(tick=45, channel=0, data=[79, 0]),
   midi.NoteOnEvent(tick=0, channel=0, data=[76, 0]),
   midi.NoteOnEvent(tick=15, channel=0, data=[80, 35]),
   midi.NoteOnEvent(tick=45, channel=0, data=[80, 0]),
   midi.NoteOnEvent(tick=15, channel=0, data=[79, 35]),
   midi.NoteOnEvent(tick=32, channel=0, data=[79, 0]),
   midi.NoteOnEvent(tick=28, channel=0, data=[79, 33]),
   midi.NoteOnEvent(tick=45, channel=0, data=[79, 0]),
   midi.NoteOnEvent(tick=15, channel=0, data=[92, 50]),
   midi.NoteOnEvent(tick=45, channel=0, data=[92, 0]),
   midi.NoteOnEvent(tick=15, channel=0, data=[88, 35]),
   midi.NoteOnEvent(tick=0, channel=0, data=[91, 35]),
   midi.NoteOnEvent(tick=45, channel=0, data=[91, 0]),
   midi.NoteOnEvent(tick=0, channel=0, data=[88, 0]),
   midi.NoteOnEvent(tick=15, channel=0, data=[79, 35]),
   midi.NoteOnEvent(tick=45, channel=0, data=[79, 0]),
   midi.NoteOnEvent(tick=15, channel=0, data=[80, 35]),
   midi.NoteOnEvent(tick=45, channel=0, data=[80, 0]),
   midi.NoteOnEvent(tick=15, channel=0, data=[76, 30]),
   midi.NoteOnEvent(tick=0, channel=0, data=[79, 30]),
   midi.NoteOnEvent(tick=45, channel=0, data=[79, 0]),
   midi.NoteOnEvent(tick=0, channel=0, data=[76, 0]),
   midi.NoteOnEvent(tick=15, channel=0, data=[80, 33]),
   midi.NoteOnEvent(tick=45, channel=0, data=[80, 0]),
   midi.NoteOnEvent(tick=15, channel=0, data=[79, 33]),
   midi.NoteOnEvent(tick=45, channel=0, data=[79, 0]),
   midi.NoteOnEvent(tick=15, channel=0, data=[79, 33]),
   midi.NoteOnEvent(tick=45, channel=0, data=[79, 0]),
   midi.NoteOnEvent(tick=15, channel=0, data=[92, 38]),
   midi.NoteOnEvent(tick=45, channel=0, data=[92, 0]),
   midi.NoteOnEvent(tick=15, channel=0, data=[88, 33]),
   midi.NoteOnEvent(tick=0, channel=0, data=[91, 33]),
   midi.NoteOnEvent(tick=45, channel=0, data=[91, 0]),
   midi.NoteOnEvent(tick=0, channel=0, data=[88, 0]),
   midi.NoteOnEvent(tick=15, channel=0, data=[79, 33]),
   midi.NoteOnEvent(tick=45, channel=0, data=[79, 0]),
   midi.NoteOnEvent(tick=15, channel=0, data=[80, 30]),
   midi.NoteOnEvent(tick=45, channel=0, data=[80, 0]),
   midi.NoteOnEvent(tick=15, channel=0, data=[76, 36]),
   midi.NoteOnEvent(tick=0, channel=0, data=[79, 36]),
   midi.NoteOnEvent(tick=45, channel=0, data=[79, 0]),
   midi.NoteOnEvent(tick=0, channel=0, data=[76, 0]),
   midi.NoteOnEvent(tick=15, channel=0, data=[80, 38]),
   midi.NoteOnEvent(tick=45, channel=0, data=[80, 0]),
   midi.NoteOnEvent(tick=15, channel=0, data=[79, 36]),
   midi.NoteOnEvent(tick=32, channel=0, data=[79, 0]),
   midi.NoteOnEvent(tick=28, channel=0, data=[79, 33]),
   midi.NoteOnEvent(tick=45, channel=0, data=[79, 0]),
   midi.NoteOnEvent(tick=15, channel=0, data=[92, 50]),
   midi.NoteOnEvent(tick=45, channel=0, data=[92, 0]),
   midi.NoteOnEvent(tick=15, channel=0, data=[88, 36]),
   midi.NoteOnEvent(tick=0, channel=0, data=[91, 36]),
   midi.NoteOnEvent(tick=45, channel=0, data=[91, 0]),
   midi.NoteOnEvent(tick=0, channel=0, data=[88, 0]),
   midi.NoteOnEvent(tick=15, channel=0, data=[79, 33]),
   midi.NoteOnEvent(tick=45, channel=0, data=[79, 0]),
   midi.NoteOnEvent(tick=15, channel=0, data=[80, 33]),
   midi.NoteOnEvent(tick=45, channel=0, data=[80, 0]),
   midi.NoteOnEvent(tick=15, channel=0, data=[82, 28]),
   midi.NoteOnEvent(tick=30, channel=0, data=[82, 0]),
   midi.NoteOnEvent(tick=0, channel=0, data=[76, 28]),
   midi.NoteOnEvent(tick=30, channel=0, data=[76, 0]),
   midi.NoteOnEvent(tick=0, channel=0, data=[78, 30]),
   midi.NoteOnEvent(tick=30, channel=0, data=[78, 0]),
   midi.NoteOnEvent(tick=0, channel=0, data=[82, 30]),
   midi.NoteOnEvent(tick=30, channel=0, data=[82, 0]),
   midi.NoteOnEvent(tick=0, channel=0, data=[85, 31]),
   midi.NoteOnEvent(tick=30, channel=0, data=[85, 0]),
   midi.NoteOnEvent(tick=0, channel=0, data=[88, 33]),
   midi.NoteOnEvent(tick=30, channel=0, data=[88, 0]),
   midi.NoteOnEvent(tick=0, channel=0, data=[90, 33]),
   midi.NoteOnEvent(tick=30, channel=0, data=[90, 0]),
   midi.NoteOnEvent(tick=0, channel=0, data=[94, 33]),
   midi.NoteOnEvent(tick=30, channel=0, data=[94, 0]),
   midi.NoteOnEvent(tick=0, channel=0, data=[97, 33]),
   midi.NoteOnEvent(tick=30, channel=0, data=[97, 0]),
   midi.NoteOnEvent(tick=0, channel=0, data=[94, 33]),
   midi.NoteOnEvent(tick=30, channel=0, data=[94, 0]),
   midi.NoteOnEvent(tick=0, channel=0, data=[90, 33]),
   midi.NoteOnEvent(tick=30, channel=0, data=[90, 0]),
   midi.NoteOnEvent(tick=0, channel=0, data=[88, 33]),
   midi.NoteOnEvent(tick=30, channel=0, data=[88, 0]),
   midi.NoteOnEvent(tick=0, channel=0, data=[85, 33]),
   midi.NoteOnEvent(tick=30, channel=0, data=[85, 0]),
   midi.NoteOnEvent(tick=0, channel=0, data=[82, 31]),
   midi.NoteOnEvent(tick=30, channel=0, data=[82, 0]),
   midi.NoteOnEvent(tick=0, channel=0, data=[78, 31]),
   midi.NoteOnEvent(tick=30, channel=0, data=[78, 0]),
   midi.NoteOnEvent(tick=0, channel=0, data=[76, 33]),
   midi.NoteOnEvent(tick=30, channel=0, data=[76, 0]),
   midi.NoteOnEvent(tick=0, channel=0, data=[76, 28]),
   midi.NoteOnEvent(tick=0, channel=0, data=[79, 28]),
   midi.NoteOnEvent(tick=45, channel=0, data=[79, 0]),
   midi.NoteOnEvent(tick=0, channel=0, data=[76, 0]),
   midi.NoteOnEvent(tick=15, channel=0, data=[80, 35]),
   midi.NoteOnEvent(tick=45, channel=0, data=[80, 0]),
   midi.NoteOnEvent(tick=15, channel=0, data=[79, 35]),
   midi.NoteOnEvent(tick=32, channel=0, data=[79, 0]),
   midi.NoteOnEvent(tick=28, channel=0, data=[79, 35]),
   midi.NoteOnEvent(tick=45, channel=0, data=[79, 0]),
   midi.NoteOnEvent(tick=15, channel=0, data=[92, 50]),
   midi.NoteOnEvent(tick=45, channel=0, data=[92, 0]),
   midi.NoteOnEvent(tick=15, channel=0, data=[88, 33]),
   midi.NoteOnEvent(tick=0, channel=0, data=[91, 33]),
   midi.NoteOnEvent(tick=45, channel=0, data=[91, 0]),
   midi.NoteOnEvent(tick=0, channel=0, data=[88, 0]),
   midi.NoteOnEvent(tick=15, channel=0, data=[79, 35]),
   midi.NoteOnEvent(tick=45, channel=0, data=[79, 0]),
   midi.NoteOnEvent(tick=15, channel=0, data=[80, 35]),
   midi.NoteOnEvent(tick=45, channel=0, data=[80, 0]),
   midi.NoteOnEvent(tick=55, channel=0, data=[86, 33]),
   midi.NoteOnEvent(tick=40, channel=0, data=[86, 0]),
   midi.NoteOnEvent(tick=0, channel=0, data=[90, 33]),
   midi.NoteOnEvent(tick=40, channel=0, data=[90, 0]),
   midi.NoteOnEvent(tick=0, channel=0, data=[94, 33]),
   midi.NoteOnEvent(tick=40, channel=0, data=[94, 0]),
   midi.NoteOnEvent(tick=0, channel=0, data=[87, 33]),
   midi.NoteOnEvent(tick=40, channel=0, data=[87, 0]),
   midi.NoteOnEvent(tick=0, channel=0, data=[91, 33]),
   midi.NoteOnEvent(tick=40, channel=0, data=[91, 0]),
   midi.NoteOnEvent(tick=0, channel=0, data=[95, 33]),
   midi.NoteOnEvent(tick=40, channel=0, data=[95, 0]),
   midi.NoteOnEvent(tick=0, channel=0, data=[89, 33]),
   midi.NoteOnEvent(tick=40, channel=0, data=[89, 0]),
   midi.NoteOnEvent(tick=0, channel=0, data=[90, 33]),
   midi.NoteOnEvent(tick=40, channel=0, data=[90, 0]),
   midi.NoteOnEvent(tick=0, channel=0, data=[91, 33]),
   midi.NoteOnEvent(tick=40, channel=0, data=[91, 0]),
   midi.NoteOnEvent(tick=0, channel=0, data=[94, 33]),
   midi.NoteOnEvent(tick=40, channel=0, data=[94, 0]),
   midi.NoteOnEvent(tick=0, channel=0, data=[98, 35]),
   midi.NoteOnEvent(tick=40, channel=0, data=[98, 0]),
   midi.NoteOnEvent(tick=0, channel=0, data=[103, 33]),
   midi.NoteOnEvent(tick=37, channel=0, data=[103, 0]),
   midi.NoteOnEvent(tick=0, channel=0, data=[98, 33]),
   midi.NoteOnEvent(tick=37, channel=0, data=[98, 0]),
   midi.NoteOnEvent(tick=0, channel=0, data=[94, 33]),
   midi.NoteOnEvent(tick=37, channel=0, data=[94, 0]),
   midi.NoteOnEvent(tick=0, channel=0, data=[91, 33]),
   midi.NoteOnEvent(tick=37, channel=0, data=[91, 0]),
   midi.NoteOnEvent(tick=0, channel=0, data=[90, 33]),
   midi.NoteOnEvent(tick=37, channel=0, data=[90, 0]),
   midi.NoteOnEvent(tick=0, channel=0, data=[85, 33]),
   midi.NoteOnEvent(tick=37, channel=0, data=[85, 0]),
   midi.NoteOnEvent(tick=0, channel=0, data=[82, 33]),
   midi.NoteOnEvent(tick=37, channel=0, data=[82, 0]),
   midi.NoteOnEvent(tick=0, channel=0, data=[78, 33]),
   midi.NoteOnEvent(tick=37, channel=0, data=[78, 0]),
   midi.NoteOnEvent(tick=0, channel=0, data=[82, 33]),
   midi.NoteOnEvent(tick=37, channel=0, data=[82, 0]),
   midi.NoteOnEvent(tick=0, channel=0, data=[85, 33]),
   midi.NoteOnEvent(tick=37, channel=0, data=[85, 0]),
   midi.NoteOnEvent(tick=0, channel=0, data=[79, 33]),
   midi.NoteOnEvent(tick=37, channel=0, data=[79, 0]),
   midi.NoteOnEvent(tick=0, channel=0, data=[82, 33]),
   midi.NoteOnEvent(tick=37, channel=0, data=[82, 0]),
   midi.NoteOnEvent(tick=0, channel=0, data=[86, 33]),
   midi.NoteOnEvent(tick=36, channel=0, data=[86, 0]),
   midi.NoteOnEvent(tick=40, channel=0, data=[82, 33]),
   midi.NoteOnEvent(tick=40, channel=0, data=[82, 0]),
   midi.NoteOnEvent(tick=0, channel=0, data=[79, 33]),
   midi.NoteOnEvent(tick=40, channel=0, data=[79, 0]),
   midi.NoteOnEvent(tick=0, channel=0, data=[76, 33]),
   midi.NoteOnEvent(tick=40, channel=0, data=[76, 0]),
   midi.NoteOnEvent(tick=0, channel=0, data=[74, 33]),
   midi.NoteOnEvent(tick=40, channel=0, data=[74, 0]),
   midi.NoteOnEvent(tick=0, channel=0, data=[70, 33]),
   midi.NoteOnEvent(tick=40, channel=0, data=[70, 0]),
   midi.NoteOnEvent(tick=40, channel=0, data=[76, 33]),
   midi.NoteOnEvent(tick=40, channel=0, data=[76, 0]),
   midi.NoteOnEvent(tick=0, channel=0, data=[74, 33]),
   midi.NoteOnEvent(tick=40, channel=0, data=[74, 0]),
   midi.NoteOnEvent(tick=0, channel=0, data=[70, 33]),
   midi.NoteOnEvent(tick=40, channel=0, data=[70, 0]),
   midi.NoteOnEvent(tick=0, channel=0, data=[64, 33]),
   midi.NoteOnEvent(tick=40, channel=0, data=[64, 0]),
   midi.NoteOnEvent(tick=0, channel=0, data=[62, 33]),
   midi.NoteOnEvent(tick=40, channel=0, data=[62, 0]),
   midi.NoteOnEvent(tick=0, channel=0, data=[61, 30]),
   midi.NoteOnEvent(tick=0, channel=0, data=[64, 30]),
   midi.NoteOnEvent(tick=48, channel=0, data=[64, 0]),
   midi.NoteOnEvent(tick=0, channel=0, data=[61, 0]),
   midi.NoteOnEvent(tick=12, channel=0, data=[65, 31]),
   midi.NoteOnEvent(tick=48, channel=0, data=[65, 0]),
   midi.NoteOnEvent(tick=12, channel=0, data=[64, 31]),
   midi.NoteOnEvent(tick=48, channel=0, data=[64, 0]),
   midi.NoteOnEvent(tick=12, channel=0, data=[64, 31]),
   midi.NoteOnEvent(tick=48, channel=0, data=[64, 0]),
   midi.NoteOnEvent(tick=12, channel=0, data=[73, 25]),
   midi.NoteOnEvent(tick=0, channel=0, data=[76, 25]),
   midi.NoteOnEvent(tick=48, channel=0, data=[76, 0]),
   midi.NoteOnEvent(tick=0, channel=0, data=[73, 0]),
   midi.NoteOnEvent(tick=12, channel=0, data=[64, 30]),
   midi.NoteOnEvent(tick=48, channel=0, data=[64, 0]),
   midi.NoteOnEvent(tick=12, channel=0, data=[64, 30]),
   midi.NoteOnEvent(tick=48, channel=0, data=[64, 0]),
   midi.NoteOnEvent(tick=12, channel=0, data=[65, 30]),
   midi.NoteOnEvent(tick=48, channel=0, data=[65, 0]),
   midi.NoteOnEvent(tick=12, channel=0, data=[61, 30]),
   midi.NoteOnEvent(tick=0, channel=0, data=[64, 30]),
   midi.NoteOnEvent(tick=48, channel=0, data=[64, 0]),
   midi.NoteOnEvent(tick=0, channel=0, data=[61, 0]),
   midi.NoteOnEvent(tick=12, channel=0, data=[65, 31]),
   midi.NoteOnEvent(tick=48, channel=0, data=[65, 0]),
   midi.NoteOnEvent(tick=12, channel=0, data=[64, 31]),
   midi.NoteOnEvent(tick=48, channel=0, data=[64, 0]),
   midi.NoteOnEvent(tick=12, channel=0, data=[64, 31]),
   midi.NoteOnEvent(tick=48, channel=0, data=[64, 0]),
   midi.NoteOnEvent(tick=12, channel=0, data=[73, 28]),
   midi.NoteOnEvent(tick=0, channel=0, data=[76, 28]),
   midi.NoteOnEvent(tick=48, channel=0, data=[76, 0]),
   midi.NoteOnEvent(tick=0, channel=0, data=[73, 0]),
   midi.NoteOnEvent(tick=12, channel=0, data=[64, 30]),
   midi.NoteOnEvent(tick=48, channel=0, data=[64, 0]),
   midi.NoteOnEvent(tick=12, channel=0, data=[64, 30]),
   midi.NoteOnEvent(tick=48, channel=0, data=[64, 0]),
   midi.NoteOnEvent(tick=12, channel=0, data=[65, 30]),
   midi.NoteOnEvent(tick=48, channel=0, data=[65, 0]),
   midi.NoteOnEvent(tick=12, channel=0, data=[61, 30]),
   midi.NoteOnEvent(tick=0, channel=0, data=[64, 30]),
   midi.NoteOnEvent(tick=48, channel=0, data=[64, 0]),
   midi.NoteOnEvent(tick=0, channel=0, data=[61, 0]),
   midi.NoteOnEvent(tick=12, channel=0, data=[65, 36]),
   midi.NoteOnEvent(tick=48, channel=0, data=[65, 0]),
   midi.NoteOnEvent(tick=12, channel=0, data=[64, 36]),
   midi.NoteOnEvent(tick=48, channel=0, data=[64, 0]),
   midi.NoteOnEvent(tick=12, channel=0, data=[64, 36]),
   midi.NoteOnEvent(tick=48, channel=0, data=[64, 0]),
   midi.NoteOnEvent(tick=12, channel=0, data=[73, 33]),
   midi.NoteOnEvent(tick=0, channel=0, data=[76, 33]),
   midi.NoteOnEvent(tick=48, channel=0, data=[76, 0]),
   midi.NoteOnEvent(tick=0, channel=0, data=[73, 0]),
   midi.NoteOnEvent(tick=12, channel=0, data=[64, 36]),
   midi.NoteOnEvent(tick=48, channel=0, data=[64, 0]),
   midi.NoteOnEvent(tick=12, channel=0, data=[64, 36]),
   midi.NoteOnEvent(tick=48, channel=0, data=[64, 0]),
   midi.NoteOnEvent(tick=12, channel=0, data=[65, 36]),
   midi.NoteOnEvent(tick=48, channel=0, data=[65, 0]),
   midi.NoteOnEvent(tick=12, channel=0, data=[72, 38]),
   midi.NoteOnEvent(tick=48, channel=0, data=[72, 0]),
   midi.NoteOnEvent(tick=0, channel=0, data=[61, 38]),
   midi.NoteOnEvent(tick=48, channel=0, data=[61, 0]),
   midi.NoteOnEvent(tick=0, channel=0, data=[63, 38]),
   midi.NoteOnEvent(tick=48, channel=0, data=[63, 0]),
   midi.NoteOnEvent(tick=0, channel=0, data=[65, 36]),
   midi.NoteOnEvent(tick=48, channel=0, data=[65, 0]),
   midi.NoteOnEvent(tick=0, channel=0, data=[67, 36]),
   midi.NoteOnEvent(tick=48, channel=0, data=[67, 0]),
   midi.NoteOnEvent(tick=0, channel=0, data=[70, 36]),
   midi.NoteOnEvent(tick=40, channel=0, data=[70, 0]),
   midi.NoteOnEvent(tick=0, channel=0, data=[67, 36]),
   midi.NoteOnEvent(tick=40, channel=0, data=[67, 0]),
   midi.NoteOnEvent(tick=0, channel=0, data=[65, 36]),
   midi.NoteOnEvent(tick=40, channel=0, data=[65, 0]),
   midi.NoteOnEvent(tick=0, channel=0, data=[63, 36]),
   midi.NoteOnEvent(tick=40, channel=0, data=[63, 0]),
   midi.NoteOnEvent(tick=0, channel=0, data=[61, 36]),
   midi.NoteOnEvent(tick=40, channel=0, data=[61, 0]),
   midi.NoteOnEvent(tick=0, channel=0, data=[55, 36]),
   midi.NoteOnEvent(tick=40, channel=0, data=[55, 0]),
   midi.NoteOnEvent(tick=0, channel=0, data=[64, 31]),
   midi.NoteOnEvent(tick=0, channel=0, data=[61, 31]),
   midi.NoteOnEvent(tick=45, channel=0, data=[61, 0]),
   midi.NoteOnEvent(tick=0, channel=0, data=[64, 0]),
   midi.NoteOnEvent(tick=15, channel=0, data=[65, 36]),
   midi.NoteOnEvent(tick=45, channel=0, data=[65, 0]),
   midi.NoteOnEvent(tick=15, channel=0, data=[64, 36]),
   midi.NoteOnEvent(tick=32, channel=0, data=[64, 0]),
   midi.NoteOnEvent(tick=28, channel=0, data=[64, 36]),
   midi.NoteOnEvent(tick=45, channel=0, data=[64, 0]),
   midi.NoteOnEvent(tick=15, channel=0, data=[77, 45]),
   midi.NoteOnEvent(tick=45, channel=0, data=[77, 0]),
   midi.NoteOnEvent(tick=15, channel=0, data=[76, 30]),
   midi.NoteOnEvent(tick=0, channel=0, data=[73, 30]),
   midi.NoteOnEvent(tick=45, channel=0, data=[73, 0]),
   midi.NoteOnEvent(tick=0, channel=0, data=[76, 0]),
   midi.NoteOnEvent(tick=15, channel=0, data=[64, 38]),
   midi.NoteOnEvent(tick=45, channel=0, data=[64, 0]),
   midi.NoteOnEvent(tick=15, channel=0, data=[77, 33]),
   midi.NoteOnEvent(tick=45, channel=0, data=[77, 0]),
   midi.NoteOnEvent(tick=15, channel=0, data=[76, 31]),
   midi.NoteOnEvent(tick=0, channel=0, data=[73, 31]),
   midi.NoteOnEvent(tick=45, channel=0, data=[73, 0]),
   midi.NoteOnEvent(tick=0, channel=0, data=[76, 0]),
   midi.NoteOnEvent(tick=15, channel=0, data=[77, 36]),
   midi.NoteOnEvent(tick=45, channel=0, data=[77, 0]),
   midi.NoteOnEvent(tick=15, channel=0, data=[76, 36]),
   midi.NoteOnEvent(tick=32, channel=0, data=[76, 0]),
   midi.NoteOnEvent(tick=28, channel=0, data=[76, 36]),
   midi.NoteOnEvent(tick=45, channel=0, data=[76, 0]),
   midi.NoteOnEvent(tick=15, channel=0, data=[89, 45]),
   midi.NoteOnEvent(tick=45, channel=0, data=[89, 0]),
   midi.NoteOnEvent(tick=15, channel=0, data=[88, 33]),
   midi.NoteOnEvent(tick=0, channel=0, data=[85, 33]),
   midi.NoteOnEvent(tick=45, channel=0, data=[85, 0]),
   midi.NoteOnEvent(tick=0, channel=0, data=[88, 0]),
   midi.NoteOnEvent(tick=15, channel=0, data=[76, 38]),
   midi.NoteOnEvent(tick=45, channel=0, data=[76, 0]),
   midi.NoteOnEvent(tick=15, channel=0, data=[77, 33]),
   midi.NoteOnEvent(tick=45, channel=0, data=[77, 0]),
   midi.NoteOnEvent(tick=15, channel=0, data=[76, 33]),
   midi.NoteOnEvent(tick=0, channel=0, data=[73, 33]),
   midi.NoteOnEvent(tick=45, channel=0, data=[73, 0]),
   midi.NoteOnEvent(tick=0, channel=0, data=[76, 0]),
   midi.NoteOnEvent(tick=15, channel=0, data=[77, 36]),
   midi.NoteOnEvent(tick=45, channel=0, data=[77, 0]),
   midi.NoteOnEvent(tick=15, channel=0, data=[76, 36]),
   midi.NoteOnEvent(tick=32, channel=0, data=[76, 0]),
   midi.NoteOnEvent(tick=28, channel=0, data=[76, 36]),
   midi.NoteOnEvent(tick=45, channel=0, data=[76, 0]),
   midi.NoteOnEvent(tick=15, channel=0, data=[89, 45]),
   midi.NoteOnEvent(tick=45, channel=0, data=[89, 0]),
   midi.NoteOnEvent(tick=15, channel=0, data=[88, 36]),
   midi.NoteOnEvent(tick=0, channel=0, data=[85, 36]),
   midi.NoteOnEvent(tick=45, channel=0, data=[85, 0]),
   midi.NoteOnEvent(tick=0, channel=0, data=[88, 0]),
   midi.NoteOnEvent(tick=15, channel=0, data=[77, 38]),
   midi.NoteOnEvent(tick=45, channel=0, data=[77, 0]),
   midi.NoteOnEvent(tick=15, channel=0, data=[73, 36]),
   midi.NoteOnEvent(tick=45, channel=0, data=[73, 0]),
   midi.NoteOnEvent(tick=15, channel=0, data=[81, 67]),
   midi.NoteOnEvent(tick=60, channel=0, data=[69, 45]),
   midi.NoteOnEvent(tick=60, channel=0, data=[69, 0]),
   midi.NoteOnEvent(tick=0, channel=0, data=[73, 45]),
   midi.NoteOnEvent(tick=60, channel=0, data=[73, 0]),
   midi.NoteOnEvent(tick=0, channel=0, data=[81, 45]),
   midi.NoteOnEvent(tick=45, channel=0, data=[81, 0]),
   midi.NoteOnEvent(tick=15, channel=0, data=[81, 0]),
   midi.NoteOnEvent(tick=60, channel=0, data=[81, 46]),
   midi.NoteOnEvent(tick=45, channel=0, data=[81, 0]),
   midi.NoteOnEvent(tick=15, channel=0, data=[81, 50]),
   midi.NoteOnEvent(tick=45, channel=0, data=[81, 0]),
   midi.NoteOnEvent(tick=15, channel=0, data=[93, 46]),
   midi.NoteOnEvent(tick=45, channel=0, data=[93, 0]),
   midi.NoteOnEvent(tick=15, channel=0, data=[77, 68]),
   midi.NoteOnEvent(tick=60, channel=0, data=[69, 47]),
   midi.NoteOnEvent(tick=60, channel=0, data=[69, 0]),
   midi.NoteOnEvent(tick=0, channel=0, data=[73, 47]),
   midi.NoteOnEvent(tick=60, channel=0, data=[73, 0]),
   midi.NoteOnEvent(tick=0, channel=0, data=[81, 47]),
   midi.NoteOnEvent(tick=60, channel=0, data=[81, 0]),
   midi.NoteOnEvent(tick=0, channel=0, data=[77, 0]),
   midi.NoteOnEvent(tick=60, channel=0, data=[81, 50]),
   midi.NoteOnEvent(tick=45, channel=0, data=[81, 0]),
   midi.NoteOnEvent(tick=15, channel=0, data=[81, 50]),
   midi.NoteOnEvent(tick=45, channel=0, data=[81, 0]),
   midi.NoteOnEvent(tick=15, channel=0, data=[93, 46]),
   midi.NoteOnEvent(tick=45, channel=0, data=[93, 0]),
   midi.NoteOnEvent(tick=15, channel=0, data=[81, 67]),
   midi.NoteOnEvent(tick=60, channel=0, data=[69, 41]),
   midi.NoteOnEvent(tick=60, channel=0, data=[69, 0]),
   midi.NoteOnEvent(tick=0, channel=0, data=[74, 45]),
   midi.NoteOnEvent(tick=60, channel=0, data=[74, 0]),
   midi.NoteOnEvent(tick=0, channel=0, data=[81, 45]),
   midi.NoteOnEvent(tick=60, channel=0, data=[81, 0]),
   midi.NoteOnEvent(tick=60, channel=0, data=[81, 41]),
   midi.NoteOnEvent(tick=45, channel=0, data=[81, 0]),
   midi.NoteOnEvent(tick=15, channel=0, data=[81, 41]),
   midi.NoteOnEvent(tick=45, channel=0, data=[81, 0]),
   midi.NoteOnEvent(tick=15, channel=0, data=[93, 36]),
   midi.NoteOnEvent(tick=45, channel=0, data=[93, 0]),
   midi.NoteOnEvent(tick=15, channel=0, data=[81, 0]),
   midi.NoteOnEvent(tick=0, channel=0, data=[79, 66]),
   midi.NoteOnEvent(tick=60, channel=0, data=[69, 42]),
   midi.NoteOnEvent(tick=60, channel=0, data=[69, 0]),
   midi.NoteOnEvent(tick=0, channel=0, data=[74, 42]),
   midi.NoteOnEvent(tick=60, channel=0, data=[74, 0]),
   midi.NoteOnEvent(tick=0, channel=0, data=[81, 42]),
   midi.NoteOnEvent(tick=60, channel=0, data=[81, 0]),
   midi.NoteOnEvent(tick=0, channel=0, data=[79, 0]),
   midi.NoteOnEvent(tick=60, channel=0, data=[81, 38]),
   midi.NoteOnEvent(tick=45, channel=0, data=[81, 0]),
   midi.NoteOnEvent(tick=15, channel=0, data=[81, 38]),
   midi.NoteOnEvent(tick=45, channel=0, data=[81, 0]),
   midi.NoteOnEvent(tick=15, channel=0, data=[93, 37]),
   midi.NoteOnEvent(tick=45, channel=0, data=[93, 0]),
   midi.NoteOnEvent(tick=15, channel=0, data=[74, 68]),
   midi.NoteOnEvent(tick=60, channel=0, data=[69, 41]),
   midi.NoteOnEvent(tick=60, channel=0, data=[69, 0]),
   midi.NoteOnEvent(tick=0, channel=0, data=[79, 42]),
   midi.NoteOnEvent(tick=60, channel=0, data=[79, 0]),
   midi.NoteOnEvent(tick=0, channel=0, data=[81, 44]),
   midi.NoteOnEvent(tick=45, channel=0, data=[81, 0]),
   midi.NoteOnEvent(tick=75, channel=0, data=[81, 44]),
   midi.NoteOnEvent(tick=45, channel=0, data=[81, 0]),
   midi.NoteOnEvent(tick=15, channel=0, data=[81, 44]),
   midi.NoteOnEvent(tick=45, channel=0, data=[81, 0]),
   midi.NoteOnEvent(tick=15, channel=0, data=[93, 36]),
   midi.NoteOnEvent(tick=45, channel=0, data=[93, 0]),
   midi.NoteOnEvent(tick=75, channel=0, data=[69, 41]),
   midi.NoteOnEvent(tick=60, channel=0, data=[69, 0]),
   midi.NoteOnEvent(tick=0, channel=0, data=[79, 41]),
   midi.NoteOnEvent(tick=60, channel=0, data=[79, 0]),
   midi.NoteOnEvent(tick=0, channel=0, data=[81, 41]),
   midi.NoteOnEvent(tick=60, channel=0, data=[81, 0]),
   midi.NoteOnEvent(tick=0, channel=0, data=[74, 0]),
   midi.NoteOnEvent(tick=60, channel=0, data=[81, 37]),
   midi.NoteOnEvent(tick=45, channel=0, data=[81, 0]),
   midi.NoteOnEvent(tick=15, channel=0, data=[81, 37]),
   midi.NoteOnEvent(tick=45, channel=0, data=[81, 0]),
   midi.NoteOnEvent(tick=15, channel=0, data=[93, 33]),
   midi.NoteOnEvent(tick=45, channel=0, data=[93, 0]),
   midi.NoteOnEvent(tick=15, channel=0, data=[77, 64]),
   midi.NoteOnEvent(tick=60, channel=0, data=[69, 38]),
   midi.NoteOnEvent(tick=60, channel=0, data=[69, 0]),
   midi.NoteOnEvent(tick=0, channel=0, data=[77, 40]),
   midi.NoteOnEvent(tick=60, channel=0, data=[77, 0]),
   midi.NoteOnEvent(tick=0, channel=0, data=[81, 38]),
   midi.NoteOnEvent(tick=60, channel=0, data=[81, 0]),
   midi.NoteOnEvent(tick=0, channel=0, data=[77, 0]),
   midi.NoteOnEvent(tick=60, channel=0, data=[81, 38]),
   midi.NoteOnEvent(tick=45, channel=0, data=[81, 0]),
   midi.NoteOnEvent(tick=15, channel=0, data=[81, 38]),
   midi.NoteOnEvent(tick=45, channel=0, data=[81, 0]),
   midi.NoteOnEvent(tick=15, channel=0, data=[93, 35]),
   midi.NoteOnEvent(tick=45, channel=0, data=[93, 0]),
   midi.NoteOnEvent(tick=15, channel=0, data=[74, 63]),
   midi.NoteOnEvent(tick=60, channel=0, data=[69, 39]),
   midi.NoteOnEvent(tick=60, channel=0, data=[69, 0]),
   midi.NoteOnEvent(tick=0, channel=0, data=[78, 39]),
   midi.NoteOnEvent(tick=60, channel=0, data=[78, 0]),
   midi.NoteOnEvent(tick=0, channel=0, data=[81, 37]),
   midi.NoteOnEvent(tick=45, channel=0, data=[81, 0]),
   midi.NoteOnEvent(tick=75, channel=0, data=[81, 39]),
   midi.NoteOnEvent(tick=45, channel=0, data=[81, 0]),
   midi.NoteOnEvent(tick=15, channel=0, data=[81, 37]),
   midi.NoteOnEvent(tick=45, channel=0, data=[81, 0]),
   midi.NoteOnEvent(tick=15, channel=0, data=[93, 37]),
   midi.NoteOnEvent(tick=45, channel=0, data=[93, 0]),
   midi.NoteOnEvent(tick=15, channel=0, data=[74, 0]),
   midi.NoteOnEvent(tick=0, channel=0, data=[72, 61]),
   midi.NoteOnEvent(tick=60, channel=0, data=[67, 38]),
   midi.NoteOnEvent(tick=60, channel=0, data=[67, 0]),
   midi.NoteOnEvent(tick=0, channel=0, data=[73, 38]),
   midi.NoteOnEvent(tick=60, channel=0, data=[73, 0]),
   midi.NoteOnEvent(tick=0, channel=0, data=[81, 38]),
   midi.NoteOnEvent(tick=45, channel=0, data=[81, 0]),
   midi.NoteOnEvent(tick=15, channel=0, data=[72, 0]),
   midi.NoteOnEvent(tick=60, channel=0, data=[81, 37]),
   midi.NoteOnEvent(tick=45, channel=0, data=[81, 0]),
   midi.NoteOnEvent(tick=15, channel=0, data=[81, 37]),
   midi.NoteOnEvent(tick=45, channel=0, data=[81, 0]),
   midi.NoteOnEvent(tick=15, channel=0, data=[93, 39]),
   midi.NoteOnEvent(tick=45, channel=0, data=[93, 0]),
   midi.NoteOnEvent(tick=15, channel=0, data=[57, 52]),
   midi.NoteOnEvent(tick=53, channel=0, data=[57, 0]),
   midi.NoteOnEvent(tick=0, channel=0, data=[61, 53]),
   midi.NoteOnEvent(tick=53, channel=0, data=[61, 0]),
   midi.NoteOnEvent(tick=0, channel=0, data=[64, 56]),
   midi.NoteOnEvent(tick=53, channel=0, data=[64, 0]),
   midi.NoteOnEvent(tick=0, channel=0, data=[69, 57]),
   midi.NoteOnEvent(tick=53, channel=0, data=[69, 0]),
   midi.NoteOnEvent(tick=0, channel=0, data=[73, 58]),
   midi.NoteOnEvent(tick=53, channel=0, data=[73, 0]),
   midi.NoteOnEvent(tick=0, channel=0, data=[76, 61]),
   midi.NoteOnEvent(tick=53, channel=0, data=[76, 0]),
   midi.NoteOnEvent(tick=0, channel=0, data=[81, 63]),
   midi.NoteOnEvent(tick=53, channel=0, data=[81, 0]),
   midi.NoteOnEvent(tick=0, channel=0, data=[85, 66]),
   midi.NoteOnEvent(tick=53, channel=0, data=[85, 0]),
   midi.NoteOnEvent(tick=0, channel=0, data=[88, 67]),
   midi.NoteOnEvent(tick=56, channel=0, data=[88, 0]),
   midi.NoteOnEvent(tick=0, channel=0, data=[93, 71]),
   midi.NoteOnEvent(tick=0, channel=0, data=[88, 60]),
   midi.NoteOnEvent(tick=0, channel=0, data=[81, 60]),
   midi.NoteOnEvent(tick=240, channel=0, data=[81, 0]),
   midi.NoteOnEvent(tick=0, channel=0, data=[88, 0]),
   midi.NoteOnEvent(tick=0, channel=0, data=[93, 0]),
   midi.NoteOnEvent(tick=0, channel=0, data=[91, 71]),
   midi.NoteOnEvent(tick=0, channel=0, data=[79, 60]),
   midi.NoteOnEvent(tick=240, channel=0, data=[79, 0]),
   midi.NoteOnEvent(tick=0, channel=0, data=[91, 0]),
   midi.NoteOnEvent(tick=0, channel=0, data=[89, 75]),
   midi.NoteOnEvent(tick=0, channel=0, data=[77, 63]),
   midi.NoteOnEvent(tick=240, channel=0, data=[77, 0]),
   midi.NoteOnEvent(tick=0, channel=0, data=[89, 0]),
   midi.NoteOnEvent(tick=0, channel=0, data=[88, 77]),
   midi.NoteOnEvent(tick=0, channel=0, data=[76, 65]),
   midi.NoteOnEvent(tick=240, channel=0, data=[76, 0]),
   midi.NoteOnEvent(tick=0, channel=0, data=[88, 0]),
   midi.NoteOnEvent(tick=0, channel=0, data=[93, 78]),
   midi.NoteOnEvent(tick=0, channel=0, data=[86, 64]),
   midi.NoteOnEvent(tick=0, channel=0, data=[81, 64]),
   midi.NoteOnEvent(tick=480, channel=0, data=[81, 0]),
   midi.NoteOnEvent(tick=0, channel=0, data=[86, 0]),
   midi.NoteOnEvent(tick=0, channel=0, data=[93, 0]),
   midi.NoteOnEvent(tick=0, channel=0, data=[91, 80]),
   midi.NoteOnEvent(tick=0, channel=0, data=[79, 68]),
   midi.NoteOnEvent(tick=240, channel=0, data=[79, 0]),
   midi.NoteOnEvent(tick=0, channel=0, data=[91, 0]),
   midi.NoteOnEvent(tick=0, channel=0, data=[86, 67]),
   midi.NoteOnEvent(tick=0, channel=0, data=[74, 56]),
   midi.NoteOnEvent(tick=240, channel=0, data=[74, 0]),
   midi.NoteOnEvent(tick=0, channel=0, data=[86, 0]),
   midi.NoteOnEvent(tick=0, channel=0, data=[62, 56]),
   midi.NoteOnEvent(tick=48, channel=0, data=[62, 0]),
   midi.NoteOnEvent(tick=0, channel=0, data=[65, 53]),
   midi.NoteOnEvent(tick=48, channel=0, data=[65, 0]),
   midi.NoteOnEvent(tick=0, channel=0, data=[71, 52]),
   midi.NoteOnEvent(tick=48, channel=0, data=[71, 0]),
   midi.NoteOnEvent(tick=0, channel=0, data=[74, 51]),
   midi.NoteOnEvent(tick=48, channel=0, data=[74, 0]),
   midi.NoteOnEvent(tick=0, channel=0, data=[77, 50]),
   midi.NoteOnEvent(tick=48, channel=0, data=[77, 0]),
   midi.NoteOnEvent(tick=0, channel=0, data=[83, 50]),
   midi.NoteOnEvent(tick=48, channel=0, data=[83, 0]),
   midi.NoteOnEvent(tick=0, channel=0, data=[86, 50]),
   midi.NoteOnEvent(tick=48, channel=0, data=[86, 0]),
   midi.NoteOnEvent(tick=0, channel=0, data=[89, 47]),
   midi.NoteOnEvent(tick=48, channel=0, data=[89, 0]),
   midi.NoteOnEvent(tick=0, channel=0, data=[95, 46]),
   midi.NoteOnEvent(tick=48, channel=0, data=[95, 0]),
   midi.NoteOnEvent(tick=0, channel=0, data=[98, 46]),
   midi.NoteOnEvent(tick=40, channel=0, data=[98, 0]),
   midi.NoteOnEvent(tick=8, channel=0, data=[98, 38]),
   midi.NoteOnEvent(tick=0, channel=0, data=[95, 38]),
   midi.NoteOnEvent(tick=60, channel=0, data=[95, 0]),
   midi.NoteOnEvent(tick=0, channel=0, data=[98, 0]),
   midi.NoteOnEvent(tick=0, channel=0, data=[100, 38]),
   midi.NoteOnEvent(tick=0, channel=0, data=[97, 38]),
   midi.NoteOnEvent(tick=60, channel=0, data=[97, 0]),
   midi.NoteOnEvent(tick=0, channel=0, data=[100, 0]),
   midi.NoteOnEvent(tick=0, channel=0, data=[95, 38]),
   midi.NoteOnEvent(tick=0, channel=0, data=[98, 38]),
   midi.NoteOnEvent(tick=60, channel=0, data=[98, 0]),
   midi.NoteOnEvent(tick=0, channel=0, data=[95, 0]),
   midi.NoteOnEvent(tick=0, channel=0, data=[94, 40]),
   midi.NoteOnEvent(tick=0, channel=0, data=[97, 40]),
   midi.NoteOnEvent(tick=60, channel=0, data=[97, 0]),
   midi.NoteOnEvent(tick=0, channel=0, data=[94, 0]),
   midi.NoteOnEvent(tick=0, channel=0, data=[89, 41]),
   midi.NoteOnEvent(tick=0, channel=0, data=[95, 41]),
   midi.NoteOnEvent(tick=60, channel=0, data=[95, 0]),
   midi.NoteOnEvent(tick=0, channel=0, data=[89, 0]),
   midi.NoteOnEvent(tick=0, channel=0, data=[94, 42]),
   midi.NoteOnEvent(tick=0, channel=0, data=[97, 42]),
   midi.NoteOnEvent(tick=60, channel=0, data=[97, 0]),
   midi.NoteOnEvent(tick=0, channel=0, data=[94, 0]),
   midi.NoteOnEvent(tick=0, channel=0, data=[89, 42]),
   midi.NoteOnEvent(tick=0, channel=0, data=[95, 42]),
   midi.NoteOnEvent(tick=60, channel=0, data=[95, 0]),
   midi.NoteOnEvent(tick=0, channel=0, data=[89, 0]),
   midi.NoteOnEvent(tick=0, channel=0, data=[89, 45]),
   midi.NoteOnEvent(tick=0, channel=0, data=[94, 45]),
   midi.NoteOnEvent(tick=60, channel=0, data=[94, 0]),
   midi.NoteOnEvent(tick=0, channel=0, data=[89, 0]),
   midi.NoteOnEvent(tick=0, channel=0, data=[88, 42]),
   midi.NoteOnEvent(tick=0, channel=0, data=[91, 42]),
   midi.NoteOnEvent(tick=60, channel=0, data=[91, 0]),
   midi.NoteOnEvent(tick=0, channel=0, data=[88, 0]),
   midi.NoteOnEvent(tick=0, channel=0, data=[95, 42]),
   midi.NoteOnEvent(tick=0, channel=0, data=[90, 42]),
   midi.NoteOnEvent(tick=60, channel=0, data=[90, 0]),
   midi.NoteOnEvent(tick=0, channel=0, data=[95, 0]),
   midi.NoteOnEvent(tick=0, channel=0, data=[88, 45]),
   midi.NoteOnEvent(tick=0, channel=0, data=[91, 45]),
   midi.NoteOnEvent(tick=60, channel=0, data=[91, 0]),
   midi.NoteOnEvent(tick=0, channel=0, data=[88, 0]),
   midi.NoteOnEvent(tick=0, channel=0, data=[87, 45]),
   midi.NoteOnEvent(tick=0, channel=0, data=[90, 45]),
   midi.NoteOnEvent(tick=60, channel=0, data=[90, 0]),
   midi.NoteOnEvent(tick=0, channel=0, data=[87, 0]),
   midi.NoteOnEvent(tick=0, channel=0, data=[83, 45]),
   midi.NoteOnEvent(tick=0, channel=0, data=[88, 45]),
   midi.NoteOnEvent(tick=60, channel=0, data=[88, 0]),
   midi.NoteOnEvent(tick=0, channel=0, data=[83, 0]),
   midi.NoteOnEvent(tick=0, channel=0, data=[87, 45]),
   midi.NoteOnEvent(tick=0, channel=0, data=[90, 45]),
   midi.NoteOnEvent(tick=60, channel=0, data=[90, 0]),
   midi.NoteOnEvent(tick=0, channel=0, data=[87, 0]),
   midi.NoteOnEvent(tick=0, channel=0, data=[83, 46]),
   midi.NoteOnEvent(tick=0, channel=0, data=[88, 46]),
   midi.NoteOnEvent(tick=60, channel=0, data=[88, 0]),
   midi.NoteOnEvent(tick=0, channel=0, data=[83, 0]),
   midi.NoteOnEvent(tick=0, channel=0, data=[82, 46]),
   midi.NoteOnEvent(tick=0, channel=0, data=[87, 46]),
   midi.NoteOnEvent(tick=60, channel=0, data=[87, 0]),
   midi.NoteOnEvent(tick=0, channel=0, data=[82, 0]),
   midi.NoteOnEvent(tick=0, channel=0, data=[83, 45]),
   midi.NoteOnEvent(tick=0, channel=0, data=[79, 45]),
   midi.NoteOnEvent(tick=60, channel=0, data=[79, 0]),
   midi.NoteOnEvent(tick=0, channel=0, data=[83, 0]),
   midi.NoteOnEvent(tick=0, channel=0, data=[82, 45]),
   midi.NoteOnEvent(tick=0, channel=0, data=[87, 45]),
   midi.NoteOnEvent(tick=60, channel=0, data=[87, 0]),
   midi.NoteOnEvent(tick=0, channel=0, data=[82, 0]),
   midi.NoteOnEvent(tick=0, channel=0, data=[79, 46]),
   midi.NoteOnEvent(tick=0, channel=0, data=[83, 46]),
   midi.NoteOnEvent(tick=60, channel=0, data=[83, 0]),
   midi.NoteOnEvent(tick=0, channel=0, data=[79, 0]),
   midi.NoteOnEvent(tick=0, channel=0, data=[78, 47]),
   midi.NoteOnEvent(tick=0, channel=0, data=[82, 47]),
   midi.NoteOnEvent(tick=60, channel=0, data=[82, 0]),
   midi.NoteOnEvent(tick=0, channel=0, data=[78, 0]),
   midi.NoteOnEvent(tick=0, channel=0, data=[76, 50]),
   midi.NoteOnEvent(tick=0, channel=0, data=[79, 50]),
   midi.NoteOnEvent(tick=60, channel=0, data=[79, 0]),
   midi.NoteOnEvent(tick=0, channel=0, data=[76, 0]),
   midi.NoteOnEvent(tick=0, channel=0, data=[78, 50]),
   midi.NoteOnEvent(tick=0, channel=0, data=[82, 50]),
   midi.NoteOnEvent(tick=60, channel=0, data=[82, 0]),
   midi.NoteOnEvent(tick=0, channel=0, data=[78, 0]),
   midi.NoteOnEvent(tick=0, channel=0, data=[76, 50]),
   midi.NoteOnEvent(tick=0, channel=0, data=[79, 50]),
   midi.NoteOnEvent(tick=60, channel=0, data=[79, 0]),
   midi.NoteOnEvent(tick=0, channel=0, data=[76, 0]),
   midi.NoteOnEvent(tick=0, channel=0, data=[73, 50]),
   midi.NoteOnEvent(tick=0, channel=0, data=[78, 50]),
   midi.NoteOnEvent(tick=60, channel=0, data=[78, 0]),
   midi.NoteOnEvent(tick=0, channel=0, data=[73, 0]),
   midi.NoteOnEvent(tick=0, channel=0, data=[76, 67]),
   midi.NoteOnEvent(tick=30, channel=0, data=[65, 50]),
   midi.NoteOnEvent(tick=30, channel=0, data=[65, 0]),
   midi.NoteOnEvent(tick=0, channel=0, data=[67, 50]),
   midi.NoteOnEvent(tick=30, channel=0, data=[67, 0]),
   midi.NoteOnEvent(tick=0, channel=0, data=[71, 50]),
   midi.NoteOnEvent(tick=30, channel=0, data=[71, 0]),
   midi.NoteOnEvent(tick=0, channel=0, data=[76, 50]),
   midi.NoteOnEvent(tick=30, channel=0, data=[76, 0]),
   midi.NoteOnEvent(tick=0, channel=0, data=[79, 50]),
   midi.NoteOnEvent(tick=30, channel=0, data=[79, 0]),
   midi.NoteOnEvent(tick=0, channel=0, data=[83, 50]),
   midi.NoteOnEvent(tick=30, channel=0, data=[83, 0]),
   midi.NoteOnEvent(tick=0, channel=0, data=[88, 50]),
   midi.NoteOnEvent(tick=30, channel=0, data=[88, 0]),
   midi.NoteOnEvent(tick=0, channel=0, data=[76, 0]),
   midi.NoteOnEvent(tick=0, channel=0, data=[86, 63]),
   midi.NoteOnEvent(tick=30, channel=0, data=[83, 50]),
   midi.NoteOnEvent(tick=30, channel=0, data=[83, 0]),
   midi.NoteOnEvent(tick=0, channel=0, data=[74, 50]),
   midi.NoteOnEvent(tick=30, channel=0, data=[74, 0]),
   midi.NoteOnEvent(tick=0, channel=0, data=[83, 50]),
   midi.NoteOnEvent(tick=30, channel=0, data=[83, 0]),
   midi.NoteOnEvent(tick=0, channel=0, data=[86, 46]),
   midi.NoteOnEvent(tick=25, channel=0, data=[86, 0]),
   midi.NoteOnEvent(tick=5, channel=0, data=[86, 45]),
   midi.NoteOnEvent(tick=25, channel=0, data=[86, 0]),
   midi.NoteOnEvent(tick=5, channel=0, data=[95, 42]),
   midi.NoteOnEvent(tick=30, channel=0, data=[95, 0]),
   midi.NoteOnEvent(tick=0, channel=0, data=[98, 41]),
   midi.NoteOnEvent(tick=30, channel=0, data=[98, 0]),
   midi.NoteOnEvent(tick=0, channel=0, data=[86, 0]),
   midi.NoteOnEvent(tick=0, channel=0, data=[98, 42]),
   midi.NoteOnEvent(tick=0, channel=0, data=[95, 42]),
   midi.NoteOnEvent(tick=60, channel=0, data=[95, 0]),
   midi.NoteOnEvent(tick=0, channel=0, data=[98, 0]),
   midi.NoteOnEvent(tick=0, channel=0, data=[100, 38]),
   midi.NoteOnEvent(tick=0, channel=0, data=[97, 38]),
   midi.NoteOnEvent(tick=60, channel=0, data=[97, 0]),
   midi.NoteOnEvent(tick=0, channel=0, data=[100, 0]),
   midi.NoteOnEvent(tick=0, channel=0, data=[95, 38]),
   midi.NoteOnEvent(tick=0, channel=0, data=[98, 38]),
   midi.NoteOnEvent(tick=60, channel=0, data=[98, 0]),
   midi.NoteOnEvent(tick=0, channel=0, data=[95, 0]),
   midi.NoteOnEvent(tick=0, channel=0, data=[94, 40]),
   midi.NoteOnEvent(tick=0, channel=0, data=[97, 40]),
   midi.NoteOnEvent(tick=60, channel=0, data=[97, 0]),
   midi.NoteOnEvent(tick=0, channel=0, data=[94, 0]),
   midi.NoteOnEvent(tick=0, channel=0, data=[89, 41]),
   midi.NoteOnEvent(tick=0, channel=0, data=[95, 41]),
   midi.NoteOnEvent(tick=60, channel=0, data=[95, 0]),
   midi.NoteOnEvent(tick=0, channel=0, data=[89, 0]),
   midi.NoteOnEvent(tick=0, channel=0, data=[94, 42]),
   midi.NoteOnEvent(tick=0, channel=0, data=[97, 42]),
   midi.NoteOnEvent(tick=60, channel=0, data=[97, 0]),
   midi.NoteOnEvent(tick=0, channel=0, data=[94, 0]),
   midi.NoteOnEvent(tick=0, channel=0, data=[89, 42]),
   midi.NoteOnEvent(tick=0, channel=0, data=[95, 42]),
   midi.NoteOnEvent(tick=60, channel=0, data=[95, 0]),
   midi.NoteOnEvent(tick=0, channel=0, data=[89, 0]),
   midi.NoteOnEvent(tick=0, channel=0, data=[89, 45]),
   midi.NoteOnEvent(tick=0, channel=0, data=[94, 45]),
   midi.NoteOnEvent(tick=60, channel=0, data=[94, 0]),
   midi.NoteOnEvent(tick=0, channel=0, data=[89, 0]),
   midi.NoteOnEvent(tick=0, channel=0, data=[88, 42]),
   midi.NoteOnEvent(tick=0, channel=0, data=[91, 42]),
   midi.NoteOnEvent(tick=60, channel=0, data=[91, 0]),
   midi.NoteOnEvent(tick=0, channel=0, data=[88, 0]),
   midi.NoteOnEvent(tick=0, channel=0, data=[95, 42]),
   midi.NoteOnEvent(tick=0, channel=0, data=[90, 42]),
   midi.NoteOnEvent(tick=60, channel=0, data=[90, 0]),
   midi.NoteOnEvent(tick=0, channel=0, data=[95, 0]),
   midi.NoteOnEvent(tick=0, channel=0, data=[88, 45]),
   midi.NoteOnEvent(tick=0, channel=0, data=[91, 45]),
   midi.NoteOnEvent(tick=60, channel=0, data=[91, 0]),
   midi.NoteOnEvent(tick=0, channel=0, data=[88, 0]),
   midi.NoteOnEvent(tick=0, channel=0, data=[87, 45]),
   midi.NoteOnEvent(tick=0, channel=0, data=[90, 45]),
   midi.NoteOnEvent(tick=60, channel=0, data=[90, 0]),
   midi.NoteOnEvent(tick=0, channel=0, data=[87, 0]),
   midi.NoteOnEvent(tick=0, channel=0, data=[83, 45]),
   midi.NoteOnEvent(tick=0, channel=0, data=[88, 45]),
   midi.NoteOnEvent(tick=60, channel=0, data=[88, 0]),
   midi.NoteOnEvent(tick=0, channel=0, data=[83, 0]),
   midi.NoteOnEvent(tick=0, channel=0, data=[87, 45]),
   midi.NoteOnEvent(tick=0, channel=0, data=[90, 45]),
   midi.NoteOnEvent(tick=60, channel=0, data=[90, 0]),
   midi.NoteOnEvent(tick=0, channel=0, data=[87, 0]),
   midi.NoteOnEvent(tick=0, channel=0, data=[83, 46]),
   midi.NoteOnEvent(tick=0, channel=0, data=[88, 46]),
   midi.NoteOnEvent(tick=60, channel=0, data=[88, 0]),
   midi.NoteOnEvent(tick=0, channel=0, data=[83, 0]),
   midi.NoteOnEvent(tick=0, channel=0, data=[82, 46]),
   midi.NoteOnEvent(tick=0, channel=0, data=[87, 46]),
   midi.NoteOnEvent(tick=60, channel=0, data=[87, 0]),
   midi.NoteOnEvent(tick=0, channel=0, data=[82, 0]),
   midi.NoteOnEvent(tick=0, channel=0, data=[83, 45]),
   midi.NoteOnEvent(tick=0, channel=0, data=[79, 45]),
   midi.NoteOnEvent(tick=60, channel=0, data=[79, 0]),
   midi.NoteOnEvent(tick=0, channel=0, data=[83, 0]),
   midi.NoteOnEvent(tick=0, channel=0, data=[82, 45]),
   midi.NoteOnEvent(tick=0, channel=0, data=[87, 45]),
   midi.NoteOnEvent(tick=60, channel=0, data=[87, 0]),
   midi.NoteOnEvent(tick=0, channel=0, data=[82, 0]),
   midi.NoteOnEvent(tick=0, channel=0, data=[79, 46]),
   midi.NoteOnEvent(tick=0, channel=0, data=[83, 46]),
   midi.NoteOnEvent(tick=60, channel=0, data=[83, 0]),
   midi.NoteOnEvent(tick=0, channel=0, data=[79, 0]),
   midi.NoteOnEvent(tick=0, channel=0, data=[78, 47]),
   midi.NoteOnEvent(tick=0, channel=0, data=[82, 47]),
   midi.NoteOnEvent(tick=60, channel=0, data=[82, 0]),
   midi.NoteOnEvent(tick=0, channel=0, data=[78, 0]),
   midi.NoteOnEvent(tick=0, channel=0, data=[76, 50]),
   midi.NoteOnEvent(tick=0, channel=0, data=[79, 50]),
   midi.NoteOnEvent(tick=60, channel=0, data=[79, 0]),
   midi.NoteOnEvent(tick=0, channel=0, data=[76, 0]),
   midi.NoteOnEvent(tick=0, channel=0, data=[78, 50]),
   midi.NoteOnEvent(tick=0, channel=0, data=[82, 50]),
   midi.NoteOnEvent(tick=60, channel=0, data=[82, 0]),
   midi.NoteOnEvent(tick=0, channel=0, data=[78, 0]),
   midi.NoteOnEvent(tick=0, channel=0, data=[76, 50]),
   midi.NoteOnEvent(tick=0, channel=0, data=[79, 50]),
   midi.NoteOnEvent(tick=60, channel=0, data=[79, 0]),
   midi.NoteOnEvent(tick=0, channel=0, data=[76, 0]),
   midi.NoteOnEvent(tick=0, channel=0, data=[73, 50]),
   midi.NoteOnEvent(tick=0, channel=0, data=[78, 50]),
   midi.NoteOnEvent(tick=60, channel=0, data=[78, 0]),
   midi.NoteOnEvent(tick=0, channel=0, data=[73, 0]),
   midi.NoteOnEvent(tick=0, channel=0, data=[76, 67]),
   midi.NoteOnEvent(tick=30, channel=0, data=[65, 50]),
   midi.NoteOnEvent(tick=30, channel=0, data=[65, 0]),
   midi.NoteOnEvent(tick=0, channel=0, data=[67, 50]),
   midi.NoteOnEvent(tick=30, channel=0, data=[67, 0]),
   midi.NoteOnEvent(tick=0, channel=0, data=[71, 50]),
   midi.NoteOnEvent(tick=30, channel=0, data=[71, 0]),
   midi.NoteOnEvent(tick=0, channel=0, data=[76, 50]),
   midi.NoteOnEvent(tick=30, channel=0, data=[76, 0]),
   midi.NoteOnEvent(tick=0, channel=0, data=[79, 50]),
   midi.NoteOnEvent(tick=30, channel=0, data=[79, 0]),
   midi.NoteOnEvent(tick=0, channel=0, data=[83, 50]),
   midi.NoteOnEvent(tick=30, channel=0, data=[83, 0]),
   midi.NoteOnEvent(tick=0, channel=0, data=[88, 50]),
   midi.NoteOnEvent(tick=30, channel=0, data=[88, 0]),
   midi.NoteOnEvent(tick=0, channel=0, data=[76, 0]),
   midi.NoteOnEvent(tick=0, channel=0, data=[86, 63]),
   midi.NoteOnEvent(tick=30, channel=0, data=[83, 50]),
   midi.NoteOnEvent(tick=30, channel=0, data=[83, 0]),
   midi.NoteOnEvent(tick=0, channel=0, data=[74, 50]),
   midi.NoteOnEvent(tick=30, channel=0, data=[74, 0]),
   midi.NoteOnEvent(tick=0, channel=0, data=[83, 50]),
   midi.NoteOnEvent(tick=30, channel=0, data=[83, 0]),
   midi.NoteOnEvent(tick=0, channel=0, data=[86, 50]),
   midi.NoteOnEvent(tick=25, channel=0, data=[86, 0]),
   midi.NoteOnEvent(tick=5, channel=0, data=[86, 50]),
   midi.NoteOnEvent(tick=25, channel=0, data=[86, 0]),
   midi.NoteOnEvent(tick=5, channel=0, data=[95, 47]),
   midi.NoteOnEvent(tick=30, channel=0, data=[95, 0]),
   midi.NoteOnEvent(tick=0, channel=0, data=[98, 47]),
   midi.NoteOnEvent(tick=30, channel=0, data=[98, 0]),
   midi.NoteOnEvent(tick=0, channel=0, data=[86, 0]),
   midi.NoteOnEvent(tick=0, channel=0, data=[98, 45]),
   midi.NoteOnEvent(tick=0, channel=0, data=[95, 45]),
   midi.NoteOnEvent(tick=60, channel=0, data=[95, 0]),
   midi.NoteOnEvent(tick=0, channel=0, data=[98, 0]),
   midi.NoteOnEvent(tick=0, channel=0, data=[100, 45]),
   midi.NoteOnEvent(tick=0, channel=0, data=[97, 45]),
   midi.NoteOnEvent(tick=60, channel=0, data=[97, 0]),
   midi.NoteOnEvent(tick=0, channel=0, data=[100, 0]),
   midi.NoteOnEvent(tick=0, channel=0, data=[95, 45]),
   midi.NoteOnEvent(tick=0, channel=0, data=[98, 45]),
   midi.NoteOnEvent(tick=60, channel=0, data=[98, 0]),
   midi.NoteOnEvent(tick=0, channel=0, data=[95, 0]),
   midi.NoteOnEvent(tick=0, channel=0, data=[94, 45]),
   midi.NoteOnEvent(tick=0, channel=0, data=[97, 45]),
   midi.NoteOnEvent(tick=60, channel=0, data=[97, 0]),
   midi.NoteOnEvent(tick=0, channel=0, data=[94, 0]),
   midi.NoteOnEvent(tick=0, channel=0, data=[89, 45]),
   midi.NoteOnEvent(tick=0, channel=0, data=[95, 45]),
   midi.NoteOnEvent(tick=60, channel=0, data=[95, 0]),
   midi.NoteOnEvent(tick=0, channel=0, data=[89, 0]),
   midi.NoteOnEvent(tick=0, channel=0, data=[94, 46]),
   midi.NoteOnEvent(tick=0, channel=0, data=[97, 46]),
   midi.NoteOnEvent(tick=60, channel=0, data=[97, 0]),
   midi.NoteOnEvent(tick=0, channel=0, data=[94, 0]),
   midi.NoteOnEvent(tick=0, channel=0, data=[89, 46]),
   midi.NoteOnEvent(tick=0, channel=0, data=[95, 46]),
   midi.NoteOnEvent(tick=60, channel=0, data=[95, 0]),
   midi.NoteOnEvent(tick=0, channel=0, data=[89, 0]),
   midi.NoteOnEvent(tick=0, channel=0, data=[89, 46]),
   midi.NoteOnEvent(tick=0, channel=0, data=[94, 46]),
   midi.NoteOnEvent(tick=60, channel=0, data=[94, 0]),
   midi.NoteOnEvent(tick=0, channel=0, data=[89, 0]),
   midi.NoteOnEvent(tick=0, channel=0, data=[88, 46]),
   midi.NoteOnEvent(tick=0, channel=0, data=[91, 46]),
   midi.NoteOnEvent(tick=60, channel=0, data=[91, 0]),
   midi.NoteOnEvent(tick=0, channel=0, data=[88, 0]),
   midi.NoteOnEvent(tick=0, channel=0, data=[95, 46]),
   midi.NoteOnEvent(tick=0, channel=0, data=[90, 46]),
   midi.NoteOnEvent(tick=60, channel=0, data=[90, 0]),
   midi.NoteOnEvent(tick=0, channel=0, data=[95, 0]),
   midi.NoteOnEvent(tick=0, channel=0, data=[88, 47]),
   midi.NoteOnEvent(tick=0, channel=0, data=[91, 47]),
   midi.NoteOnEvent(tick=60, channel=0, data=[91, 0]),
   midi.NoteOnEvent(tick=0, channel=0, data=[88, 0]),
   midi.NoteOnEvent(tick=0, channel=0, data=[87, 50]),
   midi.NoteOnEvent(tick=0, channel=0, data=[90, 50]),
   midi.NoteOnEvent(tick=60, channel=0, data=[90, 0]),
   midi.NoteOnEvent(tick=0, channel=0, data=[87, 0]),
   midi.NoteOnEvent(tick=0, channel=0, data=[83, 50]),
   midi.NoteOnEvent(tick=0, channel=0, data=[88, 50]),
   midi.NoteOnEvent(tick=60, channel=0, data=[88, 0]),
   midi.NoteOnEvent(tick=0, channel=0, data=[83, 0]),
   midi.NoteOnEvent(tick=0, channel=0, data=[87, 50]),
   midi.NoteOnEvent(tick=0, channel=0, data=[90, 50]),
   midi.NoteOnEvent(tick=60, channel=0, data=[90, 0]),
   midi.NoteOnEvent(tick=0, channel=0, data=[87, 0]),
   midi.NoteOnEvent(tick=0, channel=0, data=[83, 52]),
   midi.NoteOnEvent(tick=0, channel=0, data=[88, 52]),
   midi.NoteOnEvent(tick=60, channel=0, data=[88, 0]),
   midi.NoteOnEvent(tick=0, channel=0, data=[83, 0]),
   midi.NoteOnEvent(tick=0, channel=0, data=[82, 52]),
   midi.NoteOnEvent(tick=0, channel=0, data=[87, 52]),
   midi.NoteOnEvent(tick=60, channel=0, data=[87, 0]),
   midi.NoteOnEvent(tick=0, channel=0, data=[82, 0]),
   midi.NoteOnEvent(tick=0, channel=0, data=[83, 50]),
   midi.NoteOnEvent(tick=0, channel=0, data=[79, 50]),
   midi.NoteOnEvent(tick=60, channel=0, data=[79, 0]),
   midi.NoteOnEvent(tick=0, channel=0, data=[83, 0]),
   midi.NoteOnEvent(tick=0, channel=0, data=[82, 50]),
   midi.NoteOnEvent(tick=0, channel=0, data=[87, 50]),
   midi.NoteOnEvent(tick=60, channel=0, data=[87, 0]),
   midi.NoteOnEvent(tick=0, channel=0, data=[82, 0]),
   midi.NoteOnEvent(tick=0, channel=0, data=[79, 52]),
   midi.NoteOnEvent(tick=0, channel=0, data=[83, 52]),
   midi.NoteOnEvent(tick=60, channel=0, data=[83, 0]),
   midi.NoteOnEvent(tick=0, channel=0, data=[79, 0]),
   midi.NoteOnEvent(tick=0, channel=0, data=[78, 53]),
   midi.NoteOnEvent(tick=0, channel=0, data=[82, 53]),
   midi.NoteOnEvent(tick=60, channel=0, data=[82, 0]),
   midi.NoteOnEvent(tick=0, channel=0, data=[78, 0]),
   midi.NoteOnEvent(tick=0, channel=0, data=[76, 53]),
   midi.NoteOnEvent(tick=0, channel=0, data=[79, 53]),
   midi.NoteOnEvent(tick=60, channel=0, data=[79, 0]),
   midi.NoteOnEvent(tick=0, channel=0, data=[76, 0]),
   midi.NoteOnEvent(tick=0, channel=0, data=[78, 53]),
   midi.NoteOnEvent(tick=0, channel=0, data=[82, 53]),
   midi.NoteOnEvent(tick=60, channel=0, data=[82, 0]),
   midi.NoteOnEvent(tick=0, channel=0, data=[78, 0]),
   midi.NoteOnEvent(tick=0, channel=0, data=[76, 56]),
   midi.NoteOnEvent(tick=0, channel=0, data=[79, 56]),
   midi.NoteOnEvent(tick=60, channel=0, data=[79, 0]),
   midi.NoteOnEvent(tick=0, channel=0, data=[76, 0]),
   midi.NoteOnEvent(tick=0, channel=0, data=[71, 56]),
   midi.NoteOnEvent(tick=0, channel=0, data=[78, 56]),
   midi.NoteOnEvent(tick=60, channel=0, data=[78, 0]),
   midi.NoteOnEvent(tick=0, channel=0, data=[71, 0]),
   midi.NoteOnEvent(tick=0, channel=0, data=[65, 62]),
   midi.NoteOnEvent(tick=69, channel=0, data=[65, 0]),
   midi.NoteOnEvent(tick=0, channel=0, data=[68, 62]),
   midi.NoteOnEvent(tick=69, channel=0, data=[68, 0]),
   midi.NoteOnEvent(tick=0, channel=0, data=[72, 58]),
   midi.NoteOnEvent(tick=69, channel=0, data=[72, 0]),
   midi.NoteOnEvent(tick=0, channel=0, data=[77, 58]),
   midi.NoteOnEvent(tick=69, channel=0, data=[77, 0]),
   midi.NoteOnEvent(tick=0, channel=0, data=[80, 56]),
   midi.NoteOnEvent(tick=69, channel=0, data=[80, 0]),
   midi.NoteOnEvent(tick=0, channel=0, data=[84, 53]),
   midi.NoteOnEvent(tick=69, channel=0, data=[84, 0]),
   midi.NoteOnEvent(tick=0, channel=0, data=[89, 53]),
   midi.NoteOnEvent(tick=66, channel=0, data=[89, 0]),
   midi.NoteOnEvent(tick=0, channel=0, data=[92, 45]),
   midi.NoteOnEvent(tick=0, channel=0, data=[96, 45]),
   midi.NoteOnEvent(tick=60, channel=0, data=[96, 0]),
   midi.NoteOnEvent(tick=0, channel=0, data=[92, 0]),
   midi.NoteOnEvent(tick=0, channel=0, data=[98, 45]),
   midi.NoteOnEvent(tick=0, channel=0, data=[91, 45]),
   midi.NoteOnEvent(tick=60, channel=0, data=[91, 0]),
   midi.NoteOnEvent(tick=0, channel=0, data=[98, 0]),
   midi.NoteOnEvent(tick=0, channel=0, data=[90, 46]),
   midi.NoteOnEvent(tick=0, channel=0, data=[95, 46]),
   midi.NoteOnEvent(tick=60, channel=0, data=[95, 0]),
   midi.NoteOnEvent(tick=0, channel=0, data=[90, 0]),
   midi.NoteOnEvent(tick=0, channel=0, data=[89, 47]),
   midi.NoteOnEvent(tick=0, channel=0, data=[96, 47]),
   midi.NoteOnEvent(tick=60, channel=0, data=[96, 0]),
   midi.NoteOnEvent(tick=0, channel=0, data=[89, 0]),
   midi.NoteOnEvent(tick=0, channel=0, data=[88, 50]),
   midi.NoteOnEvent(tick=0, channel=0, data=[92, 50]),
   midi.NoteOnEvent(tick=60, channel=0, data=[92, 0]),
   midi.NoteOnEvent(tick=0, channel=0, data=[88, 0]),
   midi.NoteOnEvent(tick=0, channel=0, data=[87, 50]),
   midi.NoteOnEvent(tick=0, channel=0, data=[94, 50]),
   midi.NoteOnEvent(tick=60, channel=0, data=[94, 0]),
   midi.NoteOnEvent(tick=0, channel=0, data=[87, 0]),
   midi.NoteOnEvent(tick=0, channel=0, data=[91, 50]),
   midi.NoteOnEvent(tick=0, channel=0, data=[86, 50]),
   midi.NoteOnEvent(tick=60, channel=0, data=[86, 0]),
   midi.NoteOnEvent(tick=0, channel=0, data=[91, 0]),
   midi.NoteOnEvent(tick=0, channel=0, data=[93, 50]),
   midi.NoteOnEvent(tick=0, channel=0, data=[85, 50]),
   midi.NoteOnEvent(tick=60, channel=0, data=[85, 0]),
   midi.NoteOnEvent(tick=0, channel=0, data=[93, 0]),
   midi.NoteOnEvent(tick=0, channel=0, data=[84, 50]),
   midi.NoteOnEvent(tick=0, channel=0, data=[88, 50]),
   midi.NoteOnEvent(tick=60, channel=0, data=[88, 0]),
   midi.NoteOnEvent(tick=0, channel=0, data=[84, 0]),
   midi.NoteOnEvent(tick=0, channel=0, data=[83, 50]),
   midi.NoteOnEvent(tick=0, channel=0, data=[89, 50]),
   midi.NoteOnEvent(tick=60, channel=0, data=[89, 0]),
   midi.NoteOnEvent(tick=0, channel=0, data=[83, 0]),
   midi.NoteOnEvent(tick=0, channel=0, data=[85, 50]),
   midi.NoteOnEvent(tick=0, channel=0, data=[82, 50]),
   midi.NoteOnEvent(tick=60, channel=0, data=[82, 0]),
   midi.NoteOnEvent(tick=0, channel=0, data=[85, 0]),
   midi.NoteOnEvent(tick=0, channel=0, data=[81, 50]),
   midi.NoteOnEvent(tick=0, channel=0, data=[86, 50]),
   midi.NoteOnEvent(tick=60, channel=0, data=[86, 0]),
   midi.NoteOnEvent(tick=0, channel=0, data=[81, 0]),
   midi.NoteOnEvent(tick=0, channel=0, data=[80, 50]),
   midi.NoteOnEvent(tick=0, channel=0, data=[83, 50]),
   midi.NoteOnEvent(tick=60, channel=0, data=[83, 0]),
   midi.NoteOnEvent(tick=0, channel=0, data=[80, 0]),
   midi.NoteOnEvent(tick=0, channel=0, data=[79, 52]),
   midi.NoteOnEvent(tick=0, channel=0, data=[85, 52]),
   midi.NoteOnEvent(tick=60, channel=0, data=[85, 0]),
   midi.NoteOnEvent(tick=0, channel=0, data=[79, 0]),
   midi.NoteOnEvent(tick=0, channel=0, data=[78, 53]),
   midi.NoteOnEvent(tick=0, channel=0, data=[80, 53]),
   midi.NoteOnEvent(tick=60, channel=0, data=[80, 0]),
   midi.NoteOnEvent(tick=0, channel=0, data=[78, 0]),
   midi.NoteOnEvent(tick=0, channel=0, data=[77, 53]),
   midi.NoteOnEvent(tick=0, channel=0, data=[83, 53]),
   midi.NoteOnEvent(tick=60, channel=0, data=[83, 0]),
   midi.NoteOnEvent(tick=0, channel=0, data=[77, 0]),
   midi.NoteOnEvent(tick=0, channel=0, data=[76, 50]),
   midi.NoteOnEvent(tick=0, channel=0, data=[79, 50]),
   midi.NoteOnEvent(tick=60, channel=0, data=[79, 0]),
   midi.NoteOnEvent(tick=0, channel=0, data=[76, 0]),
   midi.NoteOnEvent(tick=0, channel=0, data=[75, 50]),
   midi.NoteOnEvent(tick=0, channel=0, data=[82, 50]),
   midi.NoteOnEvent(tick=60, channel=0, data=[82, 0]),
   midi.NoteOnEvent(tick=0, channel=0, data=[75, 0]),
   midi.NoteOnEvent(tick=0, channel=0, data=[77, 50]),
   midi.NoteOnEvent(tick=0, channel=0, data=[74, 50]),
   midi.NoteOnEvent(tick=60, channel=0, data=[74, 0]),
   midi.NoteOnEvent(tick=0, channel=0, data=[77, 0]),
   midi.NoteOnEvent(tick=0, channel=0, data=[73, 52]),
   midi.NoteOnEvent(tick=0, channel=0, data=[80, 52]),
   midi.NoteOnEvent(tick=60, channel=0, data=[80, 0]),
   midi.NoteOnEvent(tick=0, channel=0, data=[73, 0]),
   midi.NoteOnEvent(tick=0, channel=0, data=[76, 53]),
   midi.NoteOnEvent(tick=0, channel=0, data=[72, 53]),
   midi.NoteOnEvent(tick=60, channel=0, data=[72, 0]),
   midi.NoteOnEvent(tick=0, channel=0, data=[76, 0]),
   midi.NoteOnEvent(tick=0, channel=0, data=[75, 56]),
   midi.NoteOnEvent(tick=0, channel=0, data=[79, 56]),
   midi.NoteOnEvent(tick=60, channel=0, data=[79, 0]),
   midi.NoteOnEvent(tick=0, channel=0, data=[75, 0]),
   midi.NoteOnEvent(tick=0, channel=0, data=[72, 57]),
   midi.NoteOnEvent(tick=0, channel=0, data=[77, 57]),
   midi.NoteOnEvent(tick=60, channel=0, data=[77, 0]),
   midi.NoteOnEvent(tick=0, channel=0, data=[72, 0]),
   midi.NoteOnEvent(tick=0, channel=0, data=[68, 61]),
   midi.NoteOnEvent(tick=0, channel=0, data=[76, 61]),
   midi.NoteOnEvent(tick=60, channel=0, data=[76, 0]),
   midi.NoteOnEvent(tick=0, channel=0, data=[68, 0]),
   midi.NoteOnEvent(tick=0, channel=0, data=[73, 73]),
   midi.NoteOnEvent(tick=30, channel=0, data=[62, 50]),
   midi.NoteOnEvent(tick=30, channel=0, data=[62, 0]),
   midi.NoteOnEvent(tick=0, channel=0, data=[66, 50]),
   midi.NoteOnEvent(tick=30, channel=0, data=[66, 0]),
   midi.NoteOnEvent(tick=0, channel=0, data=[68, 50]),
   midi.NoteOnEvent(tick=30, channel=0, data=[68, 0]),
   midi.NoteOnEvent(tick=0, channel=0, data=[73, 50]),
   midi.NoteOnEvent(tick=30, channel=0, data=[73, 0]),
   midi.NoteOnEvent(tick=0, channel=0, data=[74, 50]),
   midi.NoteOnEvent(tick=30, channel=0, data=[74, 0]),
   midi.NoteOnEvent(tick=0, channel=0, data=[78, 50]),
   midi.NoteOnEvent(tick=30, channel=0, data=[78, 0]),
   midi.NoteOnEvent(tick=0, channel=0, data=[85, 50]),
   midi.NoteOnEvent(tick=30, channel=0, data=[85, 0]),
   midi.NoteOnEvent(tick=0, channel=0, data=[73, 0]),
   midi.NoteOnEvent(tick=0, channel=0, data=[83, 68]),
   midi.NoteOnEvent(tick=30, channel=0, data=[71, 50]),
   midi.NoteOnEvent(tick=30, channel=0, data=[71, 0]),
   midi.NoteOnEvent(tick=0, channel=0, data=[74, 50]),
   midi.NoteOnEvent(tick=30, channel=0, data=[74, 0]),
   midi.NoteOnEvent(tick=0, channel=0, data=[78, 50]),
   midi.NoteOnEvent(tick=30, channel=0, data=[78, 0]),
   midi.NoteOnEvent(tick=0, channel=0, data=[83, 46]),
   midi.NoteOnEvent(tick=30, channel=0, data=[83, 0]),
   midi.NoteOnEvent(tick=0, channel=0, data=[86, 45]),
   midi.NoteOnEvent(tick=30, channel=0, data=[86, 0]),
   midi.NoteOnEvent(tick=0, channel=0, data=[90, 42]),
   midi.NoteOnEvent(tick=30, channel=0, data=[90, 0]),
   midi.NoteOnEvent(tick=0, channel=0, data=[95, 42]),
   midi.NoteOnEvent(tick=30, channel=0, data=[95, 0]),
   midi.NoteOnEvent(tick=0, channel=0, data=[83, 0]),
   midi.NoteOnEvent(tick=0, channel=0, data=[96, 45]),
   midi.NoteOnEvent(tick=0, channel=0, data=[92, 45]),
   midi.NoteOnEvent(tick=60, channel=0, data=[92, 0]),
   midi.NoteOnEvent(tick=0, channel=0, data=[96, 0]),
   midi.NoteOnEvent(tick=0, channel=0, data=[98, 45]),
   midi.NoteOnEvent(tick=0, channel=0, data=[91, 45]),
   midi.NoteOnEvent(tick=60, channel=0, data=[91, 0]),
   midi.NoteOnEvent(tick=0, channel=0, data=[98, 0]),
   midi.NoteOnEvent(tick=0, channel=0, data=[90, 45]),
   midi.NoteOnEvent(tick=0, channel=0, data=[95, 45]),
   midi.NoteOnEvent(tick=60, channel=0, data=[95, 0]),
   midi.NoteOnEvent(tick=0, channel=0, data=[90, 0]),
   midi.NoteOnEvent(tick=0, channel=0, data=[89, 45]),
   midi.NoteOnEvent(tick=0, channel=0, data=[96, 45]),
   midi.NoteOnEvent(tick=60, channel=0, data=[96, 0]),
   midi.NoteOnEvent(tick=0, channel=0, data=[89, 0]),
   midi.NoteOnEvent(tick=0, channel=0, data=[88, 45]),
   midi.NoteOnEvent(tick=0, channel=0, data=[92, 45]),
   midi.NoteOnEvent(tick=60, channel=0, data=[92, 0]),
   midi.NoteOnEvent(tick=0, channel=0, data=[88, 0]),
   midi.NoteOnEvent(tick=0, channel=0, data=[87, 47]),
   midi.NoteOnEvent(tick=0, channel=0, data=[94, 47]),
   midi.NoteOnEvent(tick=60, channel=0, data=[94, 0]),
   midi.NoteOnEvent(tick=0, channel=0, data=[87, 0]),
   midi.NoteOnEvent(tick=0, channel=0, data=[86, 47]),
   midi.NoteOnEvent(tick=0, channel=0, data=[91, 47]),
   midi.NoteOnEvent(tick=60, channel=0, data=[91, 0]),
   midi.NoteOnEvent(tick=0, channel=0, data=[86, 0]),
   midi.NoteOnEvent(tick=0, channel=0, data=[85, 47]),
   midi.NoteOnEvent(tick=0, channel=0, data=[92, 47]),
   midi.NoteOnEvent(tick=60, channel=0, data=[92, 0]),
   midi.NoteOnEvent(tick=0, channel=0, data=[85, 0]),
   midi.NoteOnEvent(tick=0, channel=0, data=[84, 47]),
   midi.NoteOnEvent(tick=0, channel=0, data=[88, 47]),
   midi.NoteOnEvent(tick=60, channel=0, data=[88, 0]),
   midi.NoteOnEvent(tick=0, channel=0, data=[84, 0]),
   midi.NoteOnEvent(tick=0, channel=0, data=[89, 47]),
   midi.NoteOnEvent(tick=0, channel=0, data=[83, 47]),
   midi.NoteOnEvent(tick=60, channel=0, data=[83, 0]),
   midi.NoteOnEvent(tick=0, channel=0, data=[89, 0]),
   midi.NoteOnEvent(tick=0, channel=0, data=[82, 50]),
   midi.NoteOnEvent(tick=0, channel=0, data=[85, 50]),
   midi.NoteOnEvent(tick=60, channel=0, data=[85, 0]),
   midi.NoteOnEvent(tick=0, channel=0, data=[82, 0]),
   midi.NoteOnEvent(tick=0, channel=0, data=[81, 50]),
   midi.NoteOnEvent(tick=0, channel=0, data=[86, 50]),
   midi.NoteOnEvent(tick=60, channel=0, data=[86, 0]),
   midi.NoteOnEvent(tick=0, channel=0, data=[81, 0]),
   midi.NoteOnEvent(tick=0, channel=0, data=[80, 50]),
   midi.NoteOnEvent(tick=0, channel=0, data=[83, 50]),
   midi.NoteOnEvent(tick=60, channel=0, data=[83, 0]),
   midi.NoteOnEvent(tick=0, channel=0, data=[80, 0]),
   midi.NoteOnEvent(tick=0, channel=0, data=[79, 52]),
   midi.NoteOnEvent(tick=0, channel=0, data=[85, 52]),
   midi.NoteOnEvent(tick=60, channel=0, data=[85, 0]),
   midi.NoteOnEvent(tick=0, channel=0, data=[79, 0]),
   midi.NoteOnEvent(tick=0, channel=0, data=[78, 53]),
   midi.NoteOnEvent(tick=0, channel=0, data=[80, 53]),
   midi.NoteOnEvent(tick=60, channel=0, data=[80, 0]),
   midi.NoteOnEvent(tick=0, channel=0, data=[78, 0]),
   midi.NoteOnEvent(tick=0, channel=0, data=[77, 53]),
   midi.NoteOnEvent(tick=0, channel=0, data=[83, 53]),
   midi.NoteOnEvent(tick=60, channel=0, data=[83, 0]),
   midi.NoteOnEvent(tick=0, channel=0, data=[77, 0]),
   midi.NoteOnEvent(tick=0, channel=0, data=[79, 52]),
   midi.NoteOnEvent(tick=0, channel=0, data=[76, 52]),
   midi.NoteOnEvent(tick=60, channel=0, data=[76, 0]),
   midi.NoteOnEvent(tick=0, channel=0, data=[79, 0]),
   midi.NoteOnEvent(tick=0, channel=0, data=[75, 52]),
   midi.NoteOnEvent(tick=0, channel=0, data=[82, 52]),
   midi.NoteOnEvent(tick=60, channel=0, data=[82, 0]),
   midi.NoteOnEvent(tick=0, channel=0, data=[75, 0]),
   midi.NoteOnEvent(tick=0, channel=0, data=[77, 53]),
   midi.NoteOnEvent(tick=0, channel=0, data=[74, 53]),
   midi.NoteOnEvent(tick=60, channel=0, data=[74, 0]),
   midi.NoteOnEvent(tick=0, channel=0, data=[77, 0]),
   midi.NoteOnEvent(tick=0, channel=0, data=[73, 56]),
   midi.NoteOnEvent(tick=0, channel=0, data=[80, 56]),
   midi.NoteOnEvent(tick=60, channel=0, data=[80, 0]),
   midi.NoteOnEvent(tick=0, channel=0, data=[73, 0]),
   midi.NoteOnEvent(tick=0, channel=0, data=[71, 56]),
   midi.NoteOnEvent(tick=0, channel=0, data=[76, 56]),
   midi.NoteOnEvent(tick=60, channel=0, data=[76, 0]),
   midi.NoteOnEvent(tick=0, channel=0, data=[71, 0]),
   midi.NoteOnEvent(tick=0, channel=0, data=[70, 56]),
   midi.NoteOnEvent(tick=0, channel=0, data=[79, 56]),
   midi.NoteOnEvent(tick=60, channel=0, data=[79, 0]),
   midi.NoteOnEvent(tick=0, channel=0, data=[70, 0]),
   midi.NoteOnEvent(tick=0, channel=0, data=[69, 58]),
   midi.NoteOnEvent(tick=0, channel=0, data=[73, 58]),
   midi.NoteOnEvent(tick=60, channel=0, data=[73, 0]),
   midi.NoteOnEvent(tick=0, channel=0, data=[69, 0]),
   midi.NoteOnEvent(tick=0, channel=0, data=[68, 58]),
   midi.NoteOnEvent(tick=0, channel=0, data=[74, 58]),
   midi.NoteOnEvent(tick=60, channel=0, data=[74, 0]),
   midi.NoteOnEvent(tick=0, channel=0, data=[68, 0]),
   midi.NoteOnEvent(tick=0, channel=0, data=[75, 75]),
   midi.NoteOnEvent(tick=40, channel=0, data=[68, 50]),
   midi.NoteOnEvent(tick=40, channel=0, data=[68, 0]),
   midi.NoteOnEvent(tick=0, channel=0, data=[63, 53]),
   midi.NoteOnEvent(tick=30, channel=0, data=[63, 0]),
   midi.NoteOnEvent(tick=10, channel=0, data=[63, 50]),
   midi.NoteOnEvent(tick=30, channel=0, data=[63, 0]),
   midi.NoteOnEvent(tick=10, channel=0, data=[56, 50]),
   midi.NoteOnEvent(tick=40, channel=0, data=[56, 0]),
   midi.NoteOnEvent(tick=0, channel=0, data=[51, 46]),
   midi.NoteOnEvent(tick=10, channel=0, data=[53, 40]),
   midi.NoteOnEvent(tick=10, channel=0, data=[48, 40]),
   midi.NoteOnEvent(tick=10, channel=0, data=[44, 34]),
   midi.NoteOnEvent(tick=10, channel=0, data=[51, 0]),
   midi.NoteOnEvent(tick=0, channel=0, data=[75, 0]),
   midi.NoteOnEvent(tick=0, channel=0, data=[41, 42]),
   midi.NoteOnEvent(tick=230, channel=0, data=[48, 0]),
   midi.NoteOnEvent(tick=10, channel=0, data=[44, 0]),
   midi.NoteOnEvent(tick=0, channel=0, data=[53, 0]),
   midi.NoteOnEvent(tick=0, channel=0, data=[41, 0]),
   midi.NoteOnEvent(tick=0, channel=0, data=[43, 42]),
   midi.NoteOnEvent(tick=0, channel=0, data=[48, 40]),
   midi.NoteOnEvent(tick=0, channel=0, data=[55, 50]),
   midi.NoteOnEvent(tick=240, channel=0, data=[55, 0]),
   midi.NoteOnEvent(tick=0, channel=0, data=[43, 0]),
   midi.NoteOnEvent(tick=0, channel=0, data=[44, 44]),
   midi.NoteOnEvent(tick=0, channel=0, data=[56, 52]),
   midi.NoteOnEvent(tick=240, channel=0, data=[56, 0]),
   midi.NoteOnEvent(tick=0, channel=0, data=[44, 0]),
   midi.NoteOnEvent(tick=0, channel=0, data=[48, 0]),
   midi.NoteOnEvent(tick=0, channel=0, data=[56, 45]),
   midi.NoteOnEvent(tick=0, channel=0, data=[46, 47]),
   midi.NoteOnEvent(tick=0, channel=0, data=[58, 56]),
   midi.NoteOnEvent(tick=240, channel=0, data=[58, 0]),
   midi.NoteOnEvent(tick=0, channel=0, data=[46, 0]),
   midi.NoteOnEvent(tick=0, channel=0, data=[48, 47]),
   midi.NoteOnEvent(tick=0, channel=0, data=[60, 56]),
   midi.NoteOnEvent(tick=240, channel=0, data=[60, 0]),
   midi.NoteOnEvent(tick=0, channel=0, data=[48, 0]),
   midi.NoteOnEvent(tick=0, channel=0, data=[56, 0]),
   midi.NoteOnEvent(tick=0, channel=0, data=[49, 49]),
   midi.NoteOnEvent(tick=0, channel=0, data=[54, 45]),
   midi.NoteOnEvent(tick=0, channel=0, data=[57, 45]),
   midi.NoteOnEvent(tick=0, channel=0, data=[61, 58]),
   midi.NoteOnEvent(tick=240, channel=0, data=[61, 0]),
   midi.NoteOnEvent(tick=0, channel=0, data=[49, 0]),
   midi.NoteOnEvent(tick=0, channel=0, data=[63, 65]),
   midi.NoteOnEvent(tick=0, channel=0, data=[51, 55]),
   midi.NoteOnEvent(tick=240, channel=0, data=[51, 0]),
   midi.NoteOnEvent(tick=0, channel=0, data=[54, 0]),
   midi.NoteOnEvent(tick=0, channel=0, data=[57, 0]),
   midi.NoteOnEvent(tick=0, channel=0, data=[63, 0]),
   midi.NoteOnEvent(tick=0, channel=0, data=[53, 53]),
   midi.NoteOnEvent(tick=0, channel=0, data=[57, 50]),
   midi.NoteOnEvent(tick=0, channel=0, data=[61, 50]),
   midi.NoteOnEvent(tick=0, channel=0, data=[65, 63]),
   midi.NoteOnEvent(tick=240, channel=0, data=[65, 0]),
   midi.NoteOnEvent(tick=0, channel=0, data=[53, 0]),
   midi.NoteOnEvent(tick=0, channel=0, data=[66, 63]),
   midi.NoteOnEvent(tick=0, channel=0, data=[54, 53]),
   midi.NoteOnEvent(tick=240, channel=0, data=[54, 0]),
   midi.NoteOnEvent(tick=0, channel=0, data=[57, 0]),
   midi.NoteOnEvent(tick=0, channel=0, data=[61, 0]),
   midi.NoteOnEvent(tick=0, channel=0, data=[66, 0]),
   midi.NoteOnEvent(tick=0, channel=0, data=[61, 56]),
   midi.NoteOnEvent(tick=0, channel=0, data=[66, 56]),
   midi.NoteOnEvent(tick=0, channel=0, data=[56, 57]),
   midi.NoteOnEvent(tick=0, channel=0, data=[68, 68]),
   midi.NoteOnEvent(tick=240, channel=0, data=[68, 0]),
   midi.NoteOnEvent(tick=0, channel=0, data=[56, 0]),
   midi.NoteOnEvent(tick=0, channel=0, data=[69, 68]),
   midi.NoteOnEvent(tick=0, channel=0, data=[57, 57]),
   midi.NoteOnEvent(tick=240, channel=0, data=[57, 0]),
   midi.NoteOnEvent(tick=0, channel=0, data=[61, 0]),
   midi.NoteOnEvent(tick=0, channel=0, data=[66, 0]),
   midi.NoteOnEvent(tick=0, channel=0, data=[69, 0]),
   midi.NoteOnEvent(tick=0, channel=0, data=[64, 56]),
   midi.NoteOnEvent(tick=0, channel=0, data=[67, 56]),
   midi.NoteOnEvent(tick=0, channel=0, data=[59, 63]),
   midi.NoteOnEvent(tick=0, channel=0, data=[71, 75]),
   midi.NoteOnEvent(tick=240, channel=0, data=[71, 0]),
   midi.NoteOnEvent(tick=0, channel=0, data=[59, 0]),
   midi.NoteOnEvent(tick=0, channel=0, data=[61, 66]),
   midi.NoteOnEvent(tick=0, channel=0, data=[73, 78]),
   midi.NoteOnEvent(tick=240, channel=0, data=[73, 0]),
   midi.NoteOnEvent(tick=0, channel=0, data=[64, 0]),
   midi.NoteOnEvent(tick=0, channel=0, data=[67, 0]),
   midi.NoteOnEvent(tick=0, channel=0, data=[61, 0]),
   midi.NoteOnEvent(tick=0, channel=0, data=[67, 65]),
   midi.NoteOnEvent(tick=0, channel=0, data=[71, 65]),
   midi.NoteOnEvent(tick=0, channel=0, data=[63, 72]),
   midi.NoteOnEvent(tick=0, channel=0, data=[75, 85]),
   midi.NoteOnEvent(tick=240, channel=0, data=[75, 0]),
   midi.NoteOnEvent(tick=0, channel=0, data=[63, 0]),
   midi.NoteOnEvent(tick=0, channel=0, data=[64, 85]),
   midi.NoteOnEvent(tick=0, channel=0, data=[76, 85]),
   midi.NoteOnEvent(tick=240, channel=0, data=[76, 0]),
   midi.NoteOnEvent(tick=0, channel=0, data=[67, 0]),
   midi.NoteOnEvent(tick=0, channel=0, data=[71, 0]),
   midi.NoteOnEvent(tick=0, channel=0, data=[64, 0]),
   midi.NoteOnEvent(tick=0, channel=0, data=[71, 76]),
   midi.NoteOnEvent(tick=0, channel=0, data=[76, 76]),
   midi.NoteOnEvent(tick=0, channel=0, data=[66, 77]),
   midi.NoteOnEvent(tick=0, channel=0, data=[78, 91]),
   midi.NoteOnEvent(tick=240, channel=0, data=[78, 0]),
   midi.NoteOnEvent(tick=0, channel=0, data=[66, 0]),
   midi.NoteOnEvent(tick=0, channel=0, data=[67, 78]),
   midi.NoteOnEvent(tick=0, channel=0, data=[79, 92]),
   midi.NoteOnEvent(tick=240, channel=0, data=[79, 0]),
   midi.NoteOnEvent(tick=0, channel=0, data=[71, 0]),
   midi.NoteOnEvent(tick=0, channel=0, data=[76, 0]),
   midi.NoteOnEvent(tick=0, channel=0, data=[67, 0]),
   midi.NoteOnEvent(tick=0, channel=0, data=[68, 80]),
   midi.NoteOnEvent(tick=0, channel=0, data=[71, 80]),
   midi.NoteOnEvent(tick=0, channel=0, data=[77, 80]),
   midi.NoteOnEvent(tick=0, channel=0, data=[80, 95]),
   midi.NoteOnEvent(tick=240, channel=0, data=[80, 0]),
   midi.NoteOnEvent(tick=0, channel=0, data=[68, 0]),
   midi.NoteOnEvent(tick=0, channel=0, data=[71, 0]),
   midi.NoteOnEvent(tick=0, channel=0, data=[77, 0]),
   midi.NoteOnEvent(tick=0, channel=0, data=[70, 81]),
   midi.NoteOnEvent(tick=0, channel=0, data=[73, 81]),
   midi.NoteOnEvent(tick=0, channel=0, data=[77, 81]),
   midi.NoteOnEvent(tick=0, channel=0, data=[82, 96]),
   midi.NoteOnEvent(tick=240, channel=0, data=[82, 0]),
   midi.NoteOnEvent(tick=0, channel=0, data=[70, 0]),
   midi.NoteOnEvent(tick=0, channel=0, data=[73, 0]),
   midi.NoteOnEvent(tick=0, channel=0, data=[77, 0]),
   midi.NoteOnEvent(tick=0, channel=0, data=[71, 85]),
   midi.NoteOnEvent(tick=0, channel=0, data=[75, 85]),
   midi.NoteOnEvent(tick=0, channel=0, data=[83, 101]),
   midi.NoteOnEvent(tick=0, channel=0, data=[80, 85]),
   midi.NoteOnEvent(tick=240, channel=0, data=[80, 0]),
   midi.NoteOnEvent(tick=0, channel=0, data=[71, 0]),
   midi.NoteOnEvent(tick=0, channel=0, data=[75, 0]),
   midi.NoteOnEvent(tick=0, channel=0, data=[83, 0]),
   midi.NoteOnEvent(tick=0, channel=0, data=[73, 87]),
   midi.NoteOnEvent(tick=0, channel=0, data=[77, 87]),
   midi.NoteOnEvent(tick=0, channel=0, data=[80, 87]),
   midi.NoteOnEvent(tick=0, channel=0, data=[85, 103]),
   midi.NoteOnEvent(tick=240, channel=0, data=[85, 0]),
   midi.NoteOnEvent(tick=0, channel=0, data=[73, 0]),
   midi.NoteOnEvent(tick=0, channel=0, data=[77, 0]),
   midi.NoteOnEvent(tick=0, channel=0, data=[80, 0]),
   midi.NoteOnEvent(tick=0, channel=0, data=[87, 110]),
   midi.NoteOnEvent(tick=0, channel=0, data=[83, 93]),
   midi.NoteOnEvent(tick=0, channel=0, data=[80, 93]),
   midi.NoteOnEvent(tick=0, channel=0, data=[75, 93]),
   midi.NoteOnEvent(tick=240, channel=0, data=[75, 0]),
   midi.NoteOnEvent(tick=0, channel=0, data=[87, 0]),
   midi.NoteOnEvent(tick=0, channel=0, data=[83, 0]),
   midi.NoteOnEvent(tick=0, channel=0, data=[80, 0]),
   midi.NoteOnEvent(tick=0, channel=0, data=[89, 112]),
   midi.NoteOnEvent(tick=0, channel=0, data=[85, 95]),
   midi.NoteOnEvent(tick=0, channel=0, data=[80, 95]),
   midi.NoteOnEvent(tick=0, channel=0, data=[77, 95]),
   midi.NoteOnEvent(tick=240, channel=0, data=[77, 0]),
   midi.NoteOnEvent(tick=0, channel=0, data=[89, 0]),
   midi.NoteOnEvent(tick=0, channel=0, data=[85, 0]),
   midi.NoteOnEvent(tick=0, channel=0, data=[80, 0]),
   midi.NoteOnEvent(tick=1, channel=0, data=[85, 115]),
   midi.NoteOnEvent(tick=33, channel=0, data=[97, 80]),
   midi.NoteOnEvent(tick=34, channel=0, data=[97, 0]),
   midi.NoteOnEvent(tick=0, channel=0, data=[90, 80]),
   midi.NoteOnEvent(tick=34, channel=0, data=[90, 0]),
   midi.NoteOnEvent(tick=0, channel=0, data=[85, 80]),
   midi.NoteOnEvent(tick=34, channel=0, data=[85, 0]),
   midi.NoteOnEvent(tick=0, channel=0, data=[85, 70]),
   midi.NoteOnEvent(tick=34, channel=0, data=[85, 0]),
   midi.NoteOnEvent(tick=0, channel=0, data=[78, 80]),
   midi.NoteOnEvent(tick=34, channel=0, data=[78, 0]),
   midi.NoteOnEvent(tick=0, channel=0, data=[73, 66]),
   midi.NoteOnEvent(tick=34, channel=0, data=[73, 0]),
   midi.NoteOnEvent(tick=3, channel=0, data=[85, 0]),
   midi.NoteOnEvent(tick=0, channel=0, data=[83, 102]),
   midi.NoteOnEvent(tick=39, channel=0, data=[78, 72]),
   midi.NoteOnEvent(tick=40, channel=0, data=[78, 0]),
   midi.NoteOnEvent(tick=0, channel=0, data=[71, 72]),
   midi.NoteOnEvent(tick=40, channel=0, data=[71, 0]),
   midi.NoteOnEvent(tick=0, channel=0, data=[78, 62]),
   midi.NoteOnEvent(tick=40, channel=0, data=[78, 0]),
   midi.NoteOnEvent(tick=0, channel=0, data=[83, 72]),
   midi.NoteOnEvent(tick=40, channel=0, data=[83, 0]),
   midi.NoteOnEvent(tick=0, channel=0, data=[95, 66]),
   midi.NoteOnEvent(tick=40, channel=0, data=[95, 0]),
   midi.NoteOnEvent(tick=1, channel=0, data=[83, 0]),
   midi.NoteOnEvent(tick=0, channel=0, data=[81, 97]),
   midi.NoteOnEvent(tick=33, channel=0, data=[93, 68]),
   midi.NoteOnEvent(tick=34, channel=0, data=[93, 0]),
   midi.NoteOnEvent(tick=0, channel=0, data=[86, 68]),
   midi.NoteOnEvent(tick=34, channel=0, data=[86, 0]),
   midi.NoteOnEvent(tick=0, channel=0, data=[81, 68]),
   midi.NoteOnEvent(tick=34, channel=0, data=[81, 0]),
   midi.NoteOnEvent(tick=0, channel=0, data=[81, 63]),
   midi.NoteOnEvent(tick=34, channel=0, data=[81, 0]),
   midi.NoteOnEvent(tick=0, channel=0, data=[74, 68]),
   midi.NoteOnEvent(tick=34, channel=0, data=[74, 0]),
   midi.NoteOnEvent(tick=0, channel=0, data=[69, 62]),
   midi.NoteOnEvent(tick=34, channel=0, data=[69, 0]),
   midi.NoteOnEvent(tick=3, channel=0, data=[81, 0]),
   midi.NoteOnEvent(tick=0, channel=0, data=[79, 92]),
   midi.NoteOnEvent(tick=39, channel=0, data=[74, 63]),
   midi.NoteOnEvent(tick=40, channel=0, data=[74, 0]),
   midi.NoteOnEvent(tick=0, channel=0, data=[67, 63]),
   midi.NoteOnEvent(tick=40, channel=0, data=[67, 0]),
   midi.NoteOnEvent(tick=0, channel=0, data=[74, 60]),
   midi.NoteOnEvent(tick=40, channel=0, data=[74, 0]),
   midi.NoteOnEvent(tick=0, channel=0, data=[79, 63]),
   midi.NoteOnEvent(tick=40, channel=0, data=[79, 0]),
   midi.NoteOnEvent(tick=0, channel=0, data=[91, 61]),
   midi.NoteOnEvent(tick=40, channel=0, data=[91, 0]),
   midi.NoteOnEvent(tick=1, channel=0, data=[79, 0]),
   midi.NoteOnEvent(tick=0, channel=0, data=[77, 91]),
   midi.NoteOnEvent(tick=33, channel=0, data=[89, 67]),
   midi.NoteOnEvent(tick=34, channel=0, data=[89, 0]),
   midi.NoteOnEvent(tick=0, channel=0, data=[82, 67]),
   midi.NoteOnEvent(tick=34, channel=0, data=[82, 0]),
   midi.NoteOnEvent(tick=0, channel=0, data=[77, 61]),
   midi.NoteOnEvent(tick=34, channel=0, data=[77, 0]),
   midi.NoteOnEvent(tick=0, channel=0, data=[77, 66]),
   midi.NoteOnEvent(tick=34, channel=0, data=[77, 0]),
   midi.NoteOnEvent(tick=0, channel=0, data=[70, 66]),
   midi.NoteOnEvent(tick=34, channel=0, data=[70, 0]),
   midi.NoteOnEvent(tick=0, channel=0, data=[65, 66]),
   midi.NoteOnEvent(tick=34, channel=0, data=[65, 0]),
   midi.NoteOnEvent(tick=2, channel=0, data=[65, 60]),
   midi.NoteOnEvent(tick=40, channel=0, data=[65, 0]),
   midi.NoteOnEvent(tick=0, channel=0, data=[70, 66]),
   midi.NoteOnEvent(tick=40, channel=0, data=[70, 0]),
   midi.NoteOnEvent(tick=0, channel=0, data=[77, 66]),
   midi.NoteOnEvent(tick=40, channel=0, data=[77, 0]),
   midi.NoteOnEvent(tick=0, channel=0, data=[70, 63]),
   midi.NoteOnEvent(tick=40, channel=0, data=[70, 0]),
   midi.NoteOnEvent(tick=0, channel=0, data=[77, 68]),
   midi.NoteOnEvent(tick=40, channel=0, data=[77, 0]),
   midi.NoteOnEvent(tick=0, channel=0, data=[82, 68]),
   midi.NoteOnEvent(tick=40, channel=0, data=[82, 0]),
   midi.NoteOnEvent(tick=1, channel=0, data=[77, 0]),
   midi.NoteOnEvent(tick=0, channel=0, data=[87, 90]),
   midi.NoteOnEvent(tick=39, channel=0, data=[82, 67]),
   midi.NoteOnEvent(tick=40, channel=0, data=[82, 0]),
   midi.NoteOnEvent(tick=0, channel=0, data=[75, 68]),
   midi.NoteOnEvent(tick=40, channel=0, data=[75, 0]),
   midi.NoteOnEvent(tick=0, channel=0, data=[75, 61]),
   midi.NoteOnEvent(tick=40, channel=0, data=[75, 0]),
   midi.NoteOnEvent(tick=0, channel=0, data=[70, 66]),
   midi.NoteOnEvent(tick=40, channel=0, data=[70, 0]),
   midi.NoteOnEvent(tick=0, channel=0, data=[68, 61]),
   midi.NoteOnEvent(tick=40, channel=0, data=[68, 0]),
   midi.NoteOnEvent(tick=1, channel=0, data=[87, 0]),
   midi.NoteOnEvent(tick=0, channel=0, data=[82, 86]),
   midi.NoteOnEvent(tick=39, channel=0, data=[79, 61]),
   midi.NoteOnEvent(tick=40, channel=0, data=[79, 0]),
   midi.NoteOnEvent(tick=0, channel=0, data=[76, 58]),
   midi.NoteOnEvent(tick=40, channel=0, data=[76, 0]),
   midi.NoteOnEvent(tick=0, channel=0, data=[70, 56]),
   midi.NoteOnEvent(tick=40, channel=0, data=[70, 0]),
   midi.NoteOnEvent(tick=0, channel=0, data=[67, 55]),
   midi.NoteOnEvent(tick=40, channel=0, data=[67, 0]),
   midi.NoteOnEvent(tick=0, channel=0, data=[65, 55]),
   midi.NoteOnEvent(tick=40, channel=0, data=[65, 0]),
   midi.NoteOnEvent(tick=1, channel=0, data=[82, 0]),
   midi.NoteOnEvent(tick=0, channel=0, data=[73, 90]),
   midi.NoteOnEvent(tick=39, channel=0, data=[85, 62]),
   midi.NoteOnEvent(tick=40, channel=0, data=[85, 0]),
   midi.NoteOnEvent(tick=0, channel=0, data=[78, 62]),
   midi.NoteOnEvent(tick=40, channel=0, data=[78, 0]),
   midi.NoteOnEvent(tick=0, channel=0, data=[74, 56]),
   midi.NoteOnEvent(tick=40, channel=0, data=[74, 0]),
   midi.NoteOnEvent(tick=0, channel=0, data=[66, 61]),
   midi.NoteOnEvent(tick=40, channel=0, data=[66, 0]),
   midi.NoteOnEvent(tick=0, channel=0, data=[78, 55]),
   midi.NoteOnEvent(tick=40, channel=0, data=[78, 0]),
   midi.NoteOnEvent(tick=1, channel=0, data=[73, 0]),
   midi.NoteOnEvent(tick=0, channel=0, data=[71, 85]),
   midi.NoteOnEvent(tick=39, channel=0, data=[83, 55]),
   midi.NoteOnEvent(tick=40, channel=0, data=[83, 0]),
   midi.NoteOnEvent(tick=0, channel=0, data=[78, 56]),
   midi.NoteOnEvent(tick=40, channel=0, data=[78, 0]),
   midi.NoteOnEvent(tick=0, channel=0, data=[74, 48]),
   midi.NoteOnEvent(tick=40, channel=0, data=[74, 0]),
   midi.NoteOnEvent(tick=0, channel=0, data=[66, 56]),
   midi.NoteOnEvent(tick=40, channel=0, data=[66, 0]),
   midi.NoteOnEvent(tick=0, channel=0, data=[78, 55]),
   midi.NoteOnEvent(tick=40, channel=0, data=[78, 0]),
   midi.NoteOnEvent(tick=1, channel=0, data=[71, 0]),
   midi.NoteOnEvent(tick=0, channel=0, data=[69, 80]),
   midi.NoteOnEvent(tick=39, channel=0, data=[81, 56]),
   midi.NoteOnEvent(tick=40, channel=0, data=[81, 0]),
   midi.NoteOnEvent(tick=0, channel=0, data=[74, 56]),
   midi.NoteOnEvent(tick=40, channel=0, data=[74, 0]),
   midi.NoteOnEvent(tick=0, channel=0, data=[70, 50]),
   midi.NoteOnEvent(tick=40, channel=0, data=[70, 0]),
   midi.NoteOnEvent(tick=0, channel=0, data=[62, 57]),
   midi.NoteOnEvent(tick=40, channel=0, data=[62, 0]),
   midi.NoteOnEvent(tick=0, channel=0, data=[74, 55]),
   midi.NoteOnEvent(tick=40, channel=0, data=[74, 0]),
   midi.NoteOnEvent(tick=1, channel=0, data=[69, 0]),
   midi.NoteOnEvent(tick=0, channel=0, data=[67, 73]),
   midi.NoteOnEvent(tick=39, channel=0, data=[79, 55]),
   midi.NoteOnEvent(tick=40, channel=0, data=[79, 0]),
   midi.NoteOnEvent(tick=0, channel=0, data=[74, 50]),
   midi.NoteOnEvent(tick=40, channel=0, data=[74, 0]),
   midi.NoteOnEvent(tick=0, channel=0, data=[70, 48]),
   midi.NoteOnEvent(tick=40, channel=0, data=[70, 0]),
   midi.NoteOnEvent(tick=0, channel=0, data=[62, 48]),
   midi.NoteOnEvent(tick=40, channel=0, data=[62, 0]),
   midi.NoteOnEvent(tick=0, channel=0, data=[74, 48]),
   midi.NoteOnEvent(tick=40, channel=0, data=[74, 0]),
   midi.NoteOnEvent(tick=1, channel=0, data=[67, 0]),
   midi.NoteOnEvent(tick=0, channel=0, data=[65, 78]),
   midi.NoteOnEvent(tick=39, channel=0, data=[77, 48]),
   midi.NoteOnEvent(tick=34, channel=0, data=[77, 0]),
   midi.NoteOnEvent(tick=6, channel=0, data=[70, 55]),
   midi.NoteOnEvent(tick=34, channel=0, data=[70, 0]),
   midi.NoteOnEvent(tick=6, channel=0, data=[66, 50]),
   midi.NoteOnEvent(tick=34, channel=0, data=[66, 0]),
   midi.NoteOnEvent(tick=6, channel=0, data=[58, 55]),
   midi.NoteOnEvent(tick=34, channel=0, data=[58, 0]),
   midi.NoteOnEvent(tick=6, channel=0, data=[70, 48]),
   midi.NoteOnEvent(tick=34, channel=0, data=[70, 0]),
   midi.NoteOnEvent(tick=6, channel=0, data=[65, 55]),
   midi.NoteOnEvent(tick=40, channel=0, data=[65, 0]),
   midi.NoteOnEvent(tick=0, channel=0, data=[70, 48]),
   midi.NoteOnEvent(tick=40, channel=0, data=[70, 0]),
   midi.NoteOnEvent(tick=0, channel=0, data=[66, 50]),
   midi.NoteOnEvent(tick=40, channel=0, data=[66, 0]),
   midi.NoteOnEvent(tick=0, channel=0, data=[58, 43]),
   midi.NoteOnEvent(tick=40, channel=0, data=[58, 0]),
   midi.NoteOnEvent(tick=0, channel=0, data=[70, 48]),
   midi.NoteOnEvent(tick=40, channel=0, data=[70, 0]),
   midi.NoteOnEvent(tick=0, channel=0, data=[66, 42]),
   midi.NoteOnEvent(tick=40, channel=0, data=[66, 0]),
   midi.NoteOnEvent(tick=1, channel=0, data=[65, 0]),
   midi.NoteOnEvent(tick=0, channel=0, data=[75, 66]),
   midi.NoteOnEvent(tick=39, channel=0, data=[64, 45]),
   midi.NoteOnEvent(tick=40, channel=0, data=[64, 0]),
   midi.NoteOnEvent(tick=0, channel=0, data=[68, 48]),
   midi.NoteOnEvent(tick=40, channel=0, data=[68, 0]),
   midi.NoteOnEvent(tick=0, channel=0, data=[63, 42]),
   midi.NoteOnEvent(tick=40, channel=0, data=[63, 0]),
   midi.NoteOnEvent(tick=0, channel=0, data=[68, 48]),
   midi.NoteOnEvent(tick=40, channel=0, data=[68, 0]),
   midi.NoteOnEvent(tick=0, channel=0, data=[64, 43]),
   midi.NoteOnEvent(tick=40, channel=0, data=[64, 0]),
   midi.NoteOnEvent(tick=1, channel=0, data=[75, 0]),
   midi.NoteOnEvent(tick=0, channel=0, data=[70, 57]),
   midi.NoteOnEvent(tick=39, channel=0, data=[64, 36]),
   midi.NoteOnEvent(tick=40, channel=0, data=[64, 0]),
   midi.NoteOnEvent(tick=0, channel=0, data=[67, 42]),
   midi.NoteOnEvent(tick=40, channel=0, data=[67, 0]),
   midi.NoteOnEvent(tick=0, channel=0, data=[58, 36]),
   midi.NoteOnEvent(tick=40, channel=0, data=[58, 0]),
   midi.NoteOnEvent(tick=0, channel=0, data=[67, 38]),
   midi.NoteOnEvent(tick=40, channel=0, data=[67, 0]),
   midi.NoteOnEvent(tick=0, channel=0, data=[64, 36]),
   midi.NoteOnEvent(tick=31, channel=0, data=[70, 0]),
   midi.NoteOnEvent(tick=9, channel=0, data=[64, 0]),
   midi.NoteOnEvent(tick=0, channel=0, data=[70, 64]),
   midi.NoteOnEvent(tick=60, channel=0, data=[66, 36]),
   midi.NoteOnEvent(tick=60, channel=0, data=[66, 0]),
   midi.NoteOnEvent(tick=0, channel=0, data=[62, 35]),
   midi.NoteOnEvent(tick=60, channel=0, data=[62, 0]),
   midi.NoteOnEvent(tick=0, channel=0, data=[56, 33]),
   midi.NoteOnEvent(tick=60, channel=0, data=[56, 0]),
   midi.NoteOnEvent(tick=0, channel=0, data=[54, 33]),
   midi.NoteOnEvent(tick=60, channel=0, data=[54, 0]),
   midi.NoteOnEvent(tick=0, channel=0, data=[56, 33]),
   midi.NoteOnEvent(tick=60, channel=0, data=[56, 0]),
   midi.NoteOnEvent(tick=0, channel=0, data=[62, 33]),
   midi.NoteOnEvent(tick=60, channel=0, data=[62, 0]),
   midi.NoteOnEvent(tick=0, channel=0, data=[66, 33]),
   midi.NoteOnEvent(tick=60, channel=0, data=[66, 0]),
   midi.NoteOnEvent(tick=60, channel=0, data=[66, 33]),
   midi.NoteOnEvent(tick=60, channel=0, data=[66, 0]),
   midi.NoteOnEvent(tick=0, channel=0, data=[62, 33]),
   midi.NoteOnEvent(tick=60, channel=0, data=[62, 0]),
   midi.NoteOnEvent(tick=0, channel=0, data=[56, 33]),
   midi.NoteOnEvent(tick=60, channel=0, data=[56, 0]),
   midi.NoteOnEvent(tick=0, channel=0, data=[70, 0]),
   midi.NoteOnEvent(tick=0, channel=0, data=[68, 59]),
   midi.NoteOnEvent(tick=60, channel=0, data=[66, 33]),
   midi.NoteOnEvent(tick=60, channel=0, data=[66, 0]),
   midi.NoteOnEvent(tick=0, channel=0, data=[62, 33]),
   midi.NoteOnEvent(tick=60, channel=0, data=[62, 0]),
   midi.NoteOnEvent(tick=0, channel=0, data=[54, 33]),
   midi.NoteOnEvent(tick=60, channel=0, data=[54, 0]),
   midi.NoteOnEvent(tick=0, channel=0, data=[68, 0]),
   midi.NoteOnEvent(tick=0, channel=0, data=[73, 64]),
   midi.NoteOnEvent(tick=60, channel=0, data=[68, 36]),
   midi.NoteOnEvent(tick=60, channel=0, data=[68, 0]),
   midi.NoteOnEvent(tick=0, channel=0, data=[66, 36]),
   midi.NoteOnEvent(tick=60, channel=0, data=[66, 0]),
   midi.NoteOnEvent(tick=0, channel=0, data=[62, 36]),
   midi.NoteOnEvent(tick=60, channel=0, data=[62, 0]),
   midi.NoteOnEvent(tick=0, channel=0, data=[61, 36]),
   midi.NoteOnEvent(tick=60, channel=0, data=[61, 0]),
   midi.NoteOnEvent(tick=0, channel=0, data=[62, 36]),
   midi.NoteOnEvent(tick=60, channel=0, data=[62, 0]),
   midi.NoteOnEvent(tick=0, channel=0, data=[66, 36]),
   midi.NoteOnEvent(tick=60, channel=0, data=[66, 0]),
   midi.NoteOnEvent(tick=0, channel=0, data=[68, 36]),
   midi.NoteOnEvent(tick=60, channel=0, data=[68, 0]),
   midi.NoteOnEvent(tick=0, channel=0, data=[73, 0]),
   midi.NoteOnEvent(tick=0, channel=0, data=[71, 63]),
   midi.NoteOnEvent(tick=60, channel=0, data=[68, 33]),
   midi.NoteOnEvent(tick=60, channel=0, data=[68, 0]),
   midi.NoteOnEvent(tick=0, channel=0, data=[66, 33]),
   midi.NoteOnEvent(tick=60, channel=0, data=[66, 0]),
   midi.NoteOnEvent(tick=0, channel=0, data=[62, 33]),
   midi.NoteOnEvent(tick=60, channel=0, data=[62, 0]),
   midi.NoteOnEvent(tick=0, channel=0, data=[59, 33]),
   midi.NoteOnEvent(tick=60, channel=0, data=[59, 0]),
   midi.NoteOnEvent(tick=0, channel=0, data=[62, 31]),
   midi.NoteOnEvent(tick=60, channel=0, data=[62, 0]),
   midi.NoteOnEvent(tick=0, channel=0, data=[66, 33]),
   midi.NoteOnEvent(tick=60, channel=0, data=[66, 0]),
   midi.NoteOnEvent(tick=0, channel=0, data=[68, 35]),
   midi.NoteOnEvent(tick=60, channel=0, data=[68, 0]),
   midi.NoteOnEvent(tick=0, channel=0, data=[71, 0]),
   midi.NoteOnEvent(tick=0, channel=0, data=[82, 71]),
   midi.NoteOnEvent(tick=60, channel=0, data=[78, 33]),
   midi.NoteOnEvent(tick=60, channel=0, data=[78, 0]),
   midi.NoteOnEvent(tick=0, channel=0, data=[74, 33]),
   midi.NoteOnEvent(tick=60, channel=0, data=[74, 0]),
   midi.NoteOnEvent(tick=0, channel=0, data=[68, 33]),
   midi.NoteOnEvent(tick=60, channel=0, data=[68, 0]),
   midi.NoteOnEvent(tick=0, channel=0, data=[66, 30]),
   midi.NoteOnEvent(tick=60, channel=0, data=[66, 0]),
   midi.NoteOnEvent(tick=0, channel=0, data=[68, 30]),
   midi.NoteOnEvent(tick=60, channel=0, data=[68, 0]),
   midi.NoteOnEvent(tick=0, channel=0, data=[74, 33]),
   midi.NoteOnEvent(tick=60, channel=0, data=[74, 0]),
   midi.NoteOnEvent(tick=0, channel=0, data=[78, 33]),
   midi.NoteOnEvent(tick=60, channel=0, data=[78, 0]),
   midi.NoteOnEvent(tick=60, channel=0, data=[78, 33]),
   midi.NoteOnEvent(tick=60, channel=0, data=[78, 0]),
   midi.NoteOnEvent(tick=0, channel=0, data=[74, 33]),
   midi.NoteOnEvent(tick=60, channel=0, data=[74, 0]),
   midi.NoteOnEvent(tick=0, channel=0, data=[68, 33]),
   midi.NoteOnEvent(tick=60, channel=0, data=[68, 0]),
   midi.NoteOnEvent(tick=0, channel=0, data=[82, 0]),
   midi.NoteOnEvent(tick=0, channel=0, data=[80, 65]),
   midi.NoteOnEvent(tick=60, channel=0, data=[78, 33]),
   midi.NoteOnEvent(tick=60, channel=0, data=[78, 0]),
   midi.NoteOnEvent(tick=0, channel=0, data=[74, 33]),
   midi.NoteOnEvent(tick=60, channel=0, data=[74, 0]),
   midi.NoteOnEvent(tick=0, channel=0, data=[66, 35]),
   midi.NoteOnEvent(tick=60, channel=0, data=[66, 0]),
   midi.NoteOnEvent(tick=0, channel=0, data=[80, 0]),
   midi.NoteOnEvent(tick=0, channel=0, data=[85, 67]),
   midi.NoteOnEvent(tick=60, channel=0, data=[80, 33]),
   midi.NoteOnEvent(tick=60, channel=0, data=[80, 0]),
   midi.NoteOnEvent(tick=0, channel=0, data=[78, 33]),
   midi.NoteOnEvent(tick=60, channel=0, data=[78, 0]),
   midi.NoteOnEvent(tick=0, channel=0, data=[74, 33]),
   midi.NoteOnEvent(tick=60, channel=0, data=[74, 0]),
   midi.NoteOnEvent(tick=0, channel=0, data=[73, 33]),
   midi.NoteOnEvent(tick=60, channel=0, data=[73, 0]),
   midi.NoteOnEvent(tick=0, channel=0, data=[74, 33]),
   midi.NoteOnEvent(tick=60, channel=0, data=[74, 0]),
   midi.NoteOnEvent(tick=0, channel=0, data=[78, 33]),
   midi.NoteOnEvent(tick=60, channel=0, data=[78, 0]),
   midi.NoteOnEvent(tick=0, channel=0, data=[80, 33]),
   midi.NoteOnEvent(tick=60, channel=0, data=[80, 0]),
   midi.NoteOnEvent(tick=0, channel=0, data=[85, 0]),
   midi.NoteOnEvent(tick=0, channel=0, data=[83, 66]),
   midi.NoteOnEvent(tick=60, channel=0, data=[80, 33]),
   midi.NoteOnEvent(tick=60, channel=0, data=[80, 0]),
   midi.NoteOnEvent(tick=0, channel=0, data=[78, 33]),
   midi.NoteOnEvent(tick=60, channel=0, data=[78, 0]),
   midi.NoteOnEvent(tick=0, channel=0, data=[74, 33]),
   midi.NoteOnEvent(tick=60, channel=0, data=[74, 0]),
   midi.NoteOnEvent(tick=0, channel=0, data=[71, 30]),
   midi.NoteOnEvent(tick=60, channel=0, data=[71, 0]),
   midi.NoteOnEvent(tick=0, channel=0, data=[74, 33]),
   midi.NoteOnEvent(tick=60, channel=0, data=[74, 0]),
   midi.NoteOnEvent(tick=0, channel=0, data=[78, 33]),
   midi.NoteOnEvent(tick=60, channel=0, data=[78, 0]),
   midi.NoteOnEvent(tick=0, channel=0, data=[80, 33]),
   midi.NoteOnEvent(tick=60, channel=0, data=[80, 0]),
   midi.NoteOnEvent(tick=0, channel=0, data=[83, 0]),
   midi.NoteOnEvent(tick=0, channel=0, data=[66, 35]),
   midi.NoteOnEvent(tick=60, channel=0, data=[66, 0]),
   midi.NoteOnEvent(tick=20, channel=0, data=[74, 35]),
   midi.NoteOnEvent(tick=80, channel=0, data=[74, 0]),
   midi.NoteOnEvent(tick=0, channel=0, data=[78, 36]),
   midi.NoteOnEvent(tick=80, channel=0, data=[78, 0]),
   midi.NoteOnEvent(tick=0, channel=0, data=[78, 36]),
   midi.NoteOnEvent(tick=80, channel=0, data=[78, 0]),
   midi.NoteOnEvent(tick=0, channel=0, data=[86, 35]),
   midi.NoteOnEvent(tick=80, channel=0, data=[90, 36]),
   midi.NoteOnEvent(tick=140, channel=0, data=[90, 0]),
   midi.NoteOnEvent(tick=0, channel=0, data=[86, 0]),
   midi.NoteOnEvent(tick=0, channel=0, data=[92, 33]),
   midi.NoteOnEvent(tick=45, channel=0, data=[92, 0]),
   midi.NoteOnEvent(tick=15, channel=0, data=[86, 33]),
   midi.NoteOnEvent(tick=0, channel=0, data=[90, 33]),
   midi.NoteOnEvent(tick=45, channel=0, data=[90, 0]),
   midi.NoteOnEvent(tick=0, channel=0, data=[86, 0]),
   midi.NoteOnEvent(tick=15, channel=0, data=[78, 33]),
   midi.NoteOnEvent(tick=45, channel=0, data=[78, 0]),
   midi.NoteOnEvent(tick=15, channel=0, data=[80, 33]),
   midi.NoteOnEvent(tick=45, channel=0, data=[80, 0]),
   midi.NoteOnEvent(tick=15, channel=0, data=[74, 31]),
   midi.NoteOnEvent(tick=0, channel=0, data=[78, 31]),
   midi.NoteOnEvent(tick=45, channel=0, data=[78, 0]),
   midi.NoteOnEvent(tick=0, channel=0, data=[74, 0]),
   midi.NoteOnEvent(tick=15, channel=0, data=[78, 31]),
   midi.NoteOnEvent(tick=45, channel=0, data=[78, 0]),
   midi.NoteOnEvent(tick=15, channel=0, data=[92, 35]),
   midi.NoteOnEvent(tick=45, channel=0, data=[92, 0]),
   midi.NoteOnEvent(tick=15, channel=0, data=[86, 36]),
   midi.NoteOnEvent(tick=0, channel=0, data=[90, 36]),
   midi.NoteOnEvent(tick=45, channel=0, data=[90, 0]),
   midi.NoteOnEvent(tick=0, channel=0, data=[86, 0]),
   midi.NoteOnEvent(tick=15, channel=0, data=[92, 33]),
   midi.NoteOnEvent(tick=45, channel=0, data=[92, 0]),
   midi.NoteOnEvent(tick=15, channel=0, data=[86, 33]),
   midi.NoteOnEvent(tick=0, channel=0, data=[90, 33]),
   midi.NoteOnEvent(tick=45, channel=0, data=[90, 0]),
   midi.NoteOnEvent(tick=0, channel=0, data=[86, 0]),
   midi.NoteOnEvent(tick=15, channel=0, data=[78, 31]),
   midi.NoteOnEvent(tick=45, channel=0, data=[78, 0]),
   midi.NoteOnEvent(tick=15, channel=0, data=[80, 31]),
   midi.NoteOnEvent(tick=45, channel=0, data=[80, 0]),
   midi.NoteOnEvent(tick=15, channel=0, data=[74, 28]),
   midi.NoteOnEvent(tick=0, channel=0, data=[78, 28]),
   midi.NoteOnEvent(tick=45, channel=0, data=[78, 0]),
   midi.NoteOnEvent(tick=0, channel=0, data=[74, 0]),
   midi.NoteOnEvent(tick=15, channel=0, data=[78, 28]),
   midi.NoteOnEvent(tick=45, channel=0, data=[78, 0]),
   midi.NoteOnEvent(tick=15, channel=0, data=[92, 33]),
   midi.NoteOnEvent(tick=45, channel=0, data=[92, 0]),
   midi.NoteOnEvent(tick=15, channel=0, data=[86, 35]),
   midi.NoteOnEvent(tick=0, channel=0, data=[90, 35]),
   midi.NoteOnEvent(tick=45, channel=0, data=[90, 0]),
   midi.NoteOnEvent(tick=0, channel=0, data=[86, 0]),
   midi.NoteOnEvent(tick=15, channel=0, data=[92, 33]),
   midi.NoteOnEvent(tick=45, channel=0, data=[92, 0]),
   midi.NoteOnEvent(tick=15, channel=0, data=[90, 33]),
   midi.NoteOnEvent(tick=0, channel=0, data=[86, 33]),
   midi.NoteOnEvent(tick=45, channel=0, data=[86, 0]),
   midi.NoteOnEvent(tick=0, channel=0, data=[90, 0]),
   midi.NoteOnEvent(tick=15, channel=0, data=[78, 28]),
   midi.NoteOnEvent(tick=45, channel=0, data=[78, 0]),
   midi.NoteOnEvent(tick=15, channel=0, data=[80, 28]),
   midi.NoteOnEvent(tick=45, channel=0, data=[80, 0]),
   midi.NoteOnEvent(tick=15, channel=0, data=[78, 23]),
   midi.NoteOnEvent(tick=0, channel=0, data=[74, 23]),
   midi.NoteOnEvent(tick=45, channel=0, data=[74, 0]),
   midi.NoteOnEvent(tick=0, channel=0, data=[78, 0]),
   midi.NoteOnEvent(tick=15, channel=0, data=[78, 23]),
   midi.NoteOnEvent(tick=45, channel=0, data=[78, 0]),
   midi.NoteOnEvent(tick=15, channel=0, data=[92, 31]),
   midi.NoteOnEvent(tick=45, channel=0, data=[92, 0]),
   midi.NoteOnEvent(tick=15, channel=0, data=[86, 33]),
   midi.NoteOnEvent(tick=0, channel=0, data=[90, 33]),
   midi.NoteOnEvent(tick=45, channel=0, data=[90, 0]),
   midi.NoteOnEvent(tick=0, channel=0, data=[86, 0]),
   midi.NoteOnEvent(tick=15, channel=0, data=[92, 28]),
   midi.NoteOnEvent(tick=45, channel=0, data=[92, 0]),
   midi.NoteOnEvent(tick=15, channel=0, data=[86, 28]),
   midi.NoteOnEvent(tick=0, channel=0, data=[90, 28]),
   midi.NoteOnEvent(tick=45, channel=0, data=[90, 0]),
   midi.NoteOnEvent(tick=0, channel=0, data=[86, 0]),
   midi.NoteOnEvent(tick=15, channel=0, data=[78, 23]),
   midi.NoteOnEvent(tick=45, channel=0, data=[78, 0]),
   midi.NoteOnEvent(tick=15, channel=0, data=[80, 23]),
   midi.NoteOnEvent(tick=45, channel=0, data=[80, 0]),
   midi.NoteOnEvent(tick=15, channel=0, data=[74, 23]),
   midi.NoteOnEvent(tick=0, channel=0, data=[78, 23]),
   midi.NoteOnEvent(tick=45, channel=0, data=[78, 0]),
   midi.NoteOnEvent(tick=0, channel=0, data=[74, 0]),
   midi.NoteOnEvent(tick=15, channel=0, data=[78, 23]),
   midi.NoteOnEvent(tick=45, channel=0, data=[78, 0]),
   midi.NoteOnEvent(tick=15, channel=0, data=[92, 30]),
   midi.NoteOnEvent(tick=45, channel=0, data=[92, 0]),
   midi.NoteOnEvent(tick=15, channel=0, data=[87, 30]),
   midi.NoteOnEvent(tick=0, channel=0, data=[90, 30]),
   midi.NoteOnEvent(tick=45, channel=0, data=[90, 0]),
   midi.NoteOnEvent(tick=0, channel=0, data=[87, 0]),
   midi.NoteOnEvent(tick=15, channel=0, data=[92, 28]),
   midi.NoteOnEvent(tick=45, channel=0, data=[92, 0]),
   midi.NoteOnEvent(tick=15, channel=0, data=[87, 28]),
   midi.NoteOnEvent(tick=0, channel=0, data=[90, 28]),
   midi.NoteOnEvent(tick=45, channel=0, data=[90, 0]),
   midi.NoteOnEvent(tick=0, channel=0, data=[87, 0]),
   midi.NoteOnEvent(tick=15, channel=0, data=[78, 23]),
   midi.NoteOnEvent(tick=45, channel=0, data=[78, 0]),
   midi.NoteOnEvent(tick=15, channel=0, data=[80, 23]),
   midi.NoteOnEvent(tick=45, channel=0, data=[80, 0]),
   midi.NoteOnEvent(tick=15, channel=0, data=[75, 23]),
   midi.NoteOnEvent(tick=0, channel=0, data=[78, 23]),
   midi.NoteOnEvent(tick=45, channel=0, data=[78, 0]),
   midi.NoteOnEvent(tick=0, channel=0, data=[75, 0]),
   midi.NoteOnEvent(tick=15, channel=0, data=[78, 23]),
   midi.NoteOnEvent(tick=45, channel=0, data=[78, 0]),
   midi.NoteOnEvent(tick=15, channel=0, data=[92, 26]),
   midi.NoteOnEvent(tick=45, channel=0, data=[92, 0]),
   midi.NoteOnEvent(tick=15, channel=0, data=[87, 25]),
   midi.NoteOnEvent(tick=0, channel=0, data=[90, 25]),
   midi.NoteOnEvent(tick=45, channel=0, data=[90, 0]),
   midi.NoteOnEvent(tick=0, channel=0, data=[87, 0]),
   midi.NoteOnEvent(tick=15, channel=0, data=[92, 23]),
   midi.NoteOnEvent(tick=45, channel=0, data=[92, 0]),
   midi.NoteOnEvent(tick=15, channel=0, data=[87, 23]),
   midi.NoteOnEvent(tick=0, channel=0, data=[90, 23]),
   midi.NoteOnEvent(tick=45, channel=0, data=[90, 0]),
   midi.NoteOnEvent(tick=0, channel=0, data=[87, 0]),
   midi.NoteOnEvent(tick=15, channel=0, data=[78, 23]),
   midi.NoteOnEvent(tick=45, channel=0, data=[78, 0]),
   midi.NoteOnEvent(tick=15, channel=0, data=[80, 23]),
   midi.NoteOnEvent(tick=45, channel=0, data=[80, 0]),
   midi.NoteOnEvent(tick=15, channel=0, data=[75, 22]),
   midi.NoteOnEvent(tick=0, channel=0, data=[78, 22]),
   midi.NoteOnEvent(tick=45, channel=0, data=[78, 0]),
   midi.NoteOnEvent(tick=0, channel=0, data=[75, 0]),
   midi.NoteOnEvent(tick=15, channel=0, data=[78, 22]),
   midi.NoteOnEvent(tick=45, channel=0, data=[78, 0]),
   midi.NoteOnEvent(tick=15, channel=0, data=[92, 23]),
   midi.NoteOnEvent(tick=45, channel=0, data=[92, 0]),
   midi.NoteOnEvent(tick=15, channel=0, data=[87, 23]),
   midi.NoteOnEvent(tick=0, channel=0, data=[90, 23]),
   midi.NoteOnEvent(tick=45, channel=0, data=[90, 0]),
   midi.NoteOnEvent(tick=0, channel=0, data=[87, 0]),
   midi.NoteOnEvent(tick=15, channel=0, data=[92, 23]),
   midi.NoteOnEvent(tick=45, channel=0, data=[92, 0]),
   midi.NoteOnEvent(tick=15, channel=0, data=[87, 23]),
   midi.NoteOnEvent(tick=0, channel=0, data=[90, 23]),
   midi.NoteOnEvent(tick=45, channel=0, data=[90, 0]),
   midi.NoteOnEvent(tick=0, channel=0, data=[87, 0]),
   midi.NoteOnEvent(tick=15, channel=0, data=[78, 23]),
   midi.NoteOnEvent(tick=45, channel=0, data=[78, 0]),
   midi.NoteOnEvent(tick=15, channel=0, data=[80, 23]),
   midi.NoteOnEvent(tick=45, channel=0, data=[80, 0]),
   midi.NoteOnEvent(tick=15, channel=0, data=[75, 22]),
   midi.NoteOnEvent(tick=0, channel=0, data=[78, 22]),
   midi.NoteOnEvent(tick=45, channel=0, data=[78, 0]),
   midi.NoteOnEvent(tick=0, channel=0, data=[75, 0]),
   midi.NoteOnEvent(tick=15, channel=0, data=[78, 22]),
   midi.NoteOnEvent(tick=45, channel=0, data=[78, 0]),
   midi.NoteOnEvent(tick=15, channel=0, data=[92, 25]),
   midi.NoteOnEvent(tick=45, channel=0, data=[92, 0]),
   midi.NoteOnEvent(tick=15, channel=0, data=[87, 23]),
   midi.NoteOnEvent(tick=0, channel=0, data=[90, 23]),
   midi.NoteOnEvent(tick=45, channel=0, data=[90, 0]),
   midi.NoteOnEvent(tick=0, channel=0, data=[87, 0]),
   midi.NoteOnEvent(tick=15, channel=0, data=[92, 23]),
   midi.NoteOnEvent(tick=45, channel=0, data=[92, 0]),
   midi.NoteOnEvent(tick=15, channel=0, data=[87, 23]),
   midi.NoteOnEvent(tick=0, channel=0, data=[90, 23]),
   midi.NoteOnEvent(tick=45, channel=0, data=[90, 0]),
   midi.NoteOnEvent(tick=0, channel=0, data=[87, 0]),
   midi.NoteOnEvent(tick=15, channel=0, data=[78, 22]),
   midi.NoteOnEvent(tick=45, channel=0, data=[78, 0]),
   midi.NoteOnEvent(tick=15, channel=0, data=[80, 22]),
   midi.NoteOnEvent(tick=45, channel=0, data=[80, 0]),
   midi.NoteOnEvent(tick=15, channel=0, data=[75, 20]),
   midi.NoteOnEvent(tick=0, channel=0, data=[78, 20]),
   midi.NoteOnEvent(tick=45, channel=0, data=[78, 0]),
   midi.NoteOnEvent(tick=0, channel=0, data=[75, 0]),
   midi.NoteOnEvent(tick=15, channel=0, data=[78, 18]),
   midi.NoteOnEvent(tick=45, channel=0, data=[78, 0]),
   midi.NoteOnEvent(tick=15, channel=0, data=[92, 23]),
   midi.NoteOnEvent(tick=45, channel=0, data=[92, 0]),
   midi.NoteOnEvent(tick=255, channel=0, data=[76, 36]),
   midi.NoteOnEvent(tick=60, channel=0, data=[76, 0]),
   midi.NoteOnEvent(tick=0, channel=0, data=[81, 36]),
   midi.NoteOnEvent(tick=60, channel=0, data=[84, 36]),
   midi.NoteOnEvent(tick=60, channel=0, data=[88, 36]),
   midi.NoteOnEvent(tick=60, channel=0, data=[93, 42]),
   midi.NoteOnEvent(tick=480, channel=0, data=[93, 0]),
   midi.NoteOnEvent(tick=0, channel=0, data=[81, 0]),
   midi.NoteOnEvent(tick=0, channel=0, data=[84, 0]),
   midi.NoteOnEvent(tick=0, channel=0, data=[88, 0]),
   midi.NoteOnEvent(tick=0, channel=0, data=[91, 38]),
   midi.NoteOnEvent(tick=0, channel=0, data=[88, 38]),
   midi.NoteOnEvent(tick=0, channel=0, data=[84, 38]),
   midi.NoteOnEvent(tick=0, channel=0, data=[79, 38]),
   midi.NoteOnEvent(tick=480, channel=0, data=[79, 0]),
   midi.NoteOnEvent(tick=0, channel=0, data=[91, 0]),
   midi.NoteOnEvent(tick=0, channel=0, data=[88, 0]),
   midi.NoteOnEvent(tick=0, channel=0, data=[84, 0]),
   midi.NoteOnEvent(tick=0, channel=0, data=[83, 36]),
   midi.NoteOnEvent(tick=0, channel=0, data=[79, 36]),
   midi.NoteOnEvent(tick=0, channel=0, data=[76, 36]),
   midi.NoteOnEvent(tick=0, channel=0, data=[71, 36]),
   midi.NoteOnEvent(tick=480, channel=0, data=[71, 0]),
   midi.NoteOnEvent(tick=0, channel=0, data=[83, 0]),
   midi.NoteOnEvent(tick=0, channel=0, data=[79, 0]),
   midi.NoteOnEvent(tick=0, channel=0, data=[76, 0]),
   midi.NoteOnEvent(tick=0, channel=0, data=[69, 33]),
   midi.NoteOnEvent(tick=0, channel=0, data=[72, 33]),
   midi.NoteOnEvent(tick=0, channel=0, data=[76, 33]),
   midi.NoteOnEvent(tick=0, channel=0, data=[81, 33]),
   midi.NoteOnEvent(tick=1920, channel=0, data=[81, 0]),
   midi.NoteOnEvent(tick=0, channel=0, data=[69, 0]),
   midi.NoteOnEvent(tick=0, channel=0, data=[72, 0]),
   midi.NoteOnEvent(tick=0, channel=0, data=[76, 0]),
   midi.NoteOnEvent(tick=0, channel=0, data=[67, 38]),
   midi.NoteOnEvent(tick=0, channel=0, data=[72, 38]),
   midi.NoteOnEvent(tick=0, channel=0, data=[79, 38]),
   midi.NoteOnEvent(tick=480, channel=0, data=[79, 0]),
   midi.NoteOnEvent(tick=0, channel=0, data=[72, 0]),
   midi.NoteOnEvent(tick=0, channel=0, data=[67, 0]),
   midi.NoteOnEvent(tick=0, channel=0, data=[69, 35]),
   midi.NoteOnEvent(tick=0, channel=0, data=[76, 35]),
   midi.NoteOnEvent(tick=0, channel=0, data=[81, 35]),
   midi.NoteOnEvent(tick=480, channel=0, data=[81, 0]),
   midi.NoteOnEvent(tick=0, channel=0, data=[76, 0]),
   midi.NoteOnEvent(tick=0, channel=0, data=[69, 0]),
   midi.NoteOnEvent(tick=0, channel=0, data=[87, 40]),
   midi.NoteOnEvent(tick=0, channel=0, data=[82, 36]),
   midi.NoteOnEvent(tick=0, channel=0, data=[75, 36]),
   midi.NoteOnEvent(tick=480, channel=0, data=[75, 0]),
   midi.NoteOnEvent(tick=0, channel=0, data=[82, 0]),
   midi.NoteOnEvent(tick=0, channel=0, data=[87, 0]),
   midi.NoteOnEvent(tick=0, channel=0, data=[85, 40]),
   midi.NoteOnEvent(tick=0, channel=0, data=[78, 36]),
   midi.NoteOnEvent(tick=0, channel=0, data=[73, 36]),
   midi.NoteOnEvent(tick=480, channel=0, data=[73, 0]),
   midi.NoteOnEvent(tick=0, channel=0, data=[78, 0]),
   midi.NoteOnEvent(tick=0, channel=0, data=[85, 0]),
   midi.NoteOnEvent(tick=0, channel=0, data=[73, 35]),
   midi.NoteOnEvent(tick=0, channel=0, data=[76, 35]),
   midi.NoteOnEvent(tick=0, channel=0, data=[64, 35]),
   midi.NoteOnEvent(tick=480, channel=0, data=[64, 0]),
   midi.NoteOnEvent(tick=0, channel=0, data=[76, 0]),
   midi.NoteOnEvent(tick=0, channel=0, data=[73, 0]),
   midi.NoteOnEvent(tick=0, channel=0, data=[63, 33]),
   midi.NoteOnEvent(tick=32, channel=0, data=[63, 0]),
   midi.NoteOnEvent(tick=0, channel=0, data=[66, 33]),
   midi.NoteOnEvent(tick=32, channel=0, data=[66, 0]),
   midi.NoteOnEvent(tick=0, channel=0, data=[68, 33]),
   midi.NoteOnEvent(tick=32, channel=0, data=[68, 0]),
   midi.NoteOnEvent(tick=0, channel=0, data=[70, 33]),
   midi.NoteOnEvent(tick=32, channel=0, data=[70, 0]),
   midi.NoteOnEvent(tick=0, channel=0, data=[73, 33]),
   midi.NoteOnEvent(tick=32, channel=0, data=[73, 0]),
   midi.NoteOnEvent(tick=0, channel=0, data=[75, 33]),
   midi.NoteOnEvent(tick=32, channel=0, data=[75, 0]),
   midi.NoteOnEvent(tick=0, channel=0, data=[78, 33]),
   midi.NoteOnEvent(tick=32, channel=0, data=[78, 0]),
   midi.NoteOnEvent(tick=0, channel=0, data=[80, 33]),
   midi.NoteOnEvent(tick=32, channel=0, data=[80, 0]),
   midi.NoteOnEvent(tick=0, channel=0, data=[82, 33]),
   midi.NoteOnEvent(tick=32, channel=0, data=[82, 0]),
   midi.NoteOnEvent(tick=0, channel=0, data=[85, 33]),
   midi.NoteOnEvent(tick=32, channel=0, data=[85, 0]),
   midi.NoteOnEvent(tick=0, channel=0, data=[87, 33]),
   midi.NoteOnEvent(tick=32, channel=0, data=[87, 0]),
   midi.NoteOnEvent(tick=0, channel=0, data=[90, 33]),
   midi.NoteOnEvent(tick=32, channel=0, data=[90, 0]),
   midi.NoteOnEvent(tick=0, channel=0, data=[92, 33]),
   midi.NoteOnEvent(tick=32, channel=0, data=[92, 0]),
   midi.NoteOnEvent(tick=0, channel=0, data=[94, 33]),
   midi.NoteOnEvent(tick=32, channel=0, data=[94, 0]),
   midi.NoteOnEvent(tick=0, channel=0, data=[97, 33]),
   midi.NoteOnEvent(tick=32, channel=0, data=[97, 0]),
   midi.NoteOnEvent(tick=0, channel=0, data=[99, 33]),
   midi.NoteOnEvent(tick=240, channel=0, data=[99, 0]),
   midi.NoteOnEvent(tick=0, channel=0, data=[63, 28]),
   midi.NoteOnEvent(tick=40, channel=0, data=[63, 0]),
   midi.NoteOnEvent(tick=0, channel=0, data=[65, 28]),
   midi.NoteOnEvent(tick=40, channel=0, data=[65, 0]),
   midi.NoteOnEvent(tick=0, channel=0, data=[70, 28]),
   midi.NoteOnEvent(tick=40, channel=0, data=[70, 0]),
   midi.NoteOnEvent(tick=0, channel=0, data=[75, 38]),
   midi.NoteOnEvent(tick=40, channel=0, data=[75, 0]),
   midi.NoteOnEvent(tick=0, channel=0, data=[70, 33]),
   midi.NoteOnEvent(tick=40, channel=0, data=[70, 0]),
   midi.NoteOnEvent(tick=0, channel=0, data=[66, 33]),
   midi.NoteOnEvent(tick=40, channel=0, data=[66, 0]),
   midi.NoteOnEvent(tick=0, channel=0, data=[63, 28]),
   midi.NoteOnEvent(tick=40, channel=0, data=[63, 0]),
   midi.NoteOnEvent(tick=0, channel=0, data=[65, 28]),
   midi.NoteOnEvent(tick=40, channel=0, data=[65, 0]),
   midi.NoteOnEvent(tick=0, channel=0, data=[70, 28]),
   midi.NoteOnEvent(tick=40, channel=0, data=[70, 0]),
   midi.NoteOnEvent(tick=0, channel=0, data=[75, 38]),
   midi.NoteOnEvent(tick=40, channel=0, data=[75, 0]),
   midi.NoteOnEvent(tick=0, channel=0, data=[70, 33]),
   midi.NoteOnEvent(tick=40, channel=0, data=[70, 0]),
   midi.NoteOnEvent(tick=0, channel=0, data=[66, 33]),
   midi.NoteOnEvent(tick=40, channel=0, data=[66, 0]),
   midi.NoteOnEvent(tick=0, channel=0, data=[63, 30]),
   midi.NoteOnEvent(tick=40, channel=0, data=[63, 0]),
   midi.NoteOnEvent(tick=0, channel=0, data=[65, 28]),
   midi.NoteOnEvent(tick=40, channel=0, data=[65, 0]),
   midi.NoteOnEvent(tick=0, channel=0, data=[70, 28]),
   midi.NoteOnEvent(tick=40, channel=0, data=[70, 0]),
   midi.NoteOnEvent(tick=0, channel=0, data=[75, 38]),
   midi.NoteOnEvent(tick=40, channel=0, data=[75, 0]),
   midi.NoteOnEvent(tick=0, channel=0, data=[70, 33]),
   midi.NoteOnEvent(tick=40, channel=0, data=[70, 0]),
   midi.NoteOnEvent(tick=0, channel=0, data=[66, 33]),
   midi.NoteOnEvent(tick=40, channel=0, data=[66, 0]),
   midi.NoteOnEvent(tick=0, channel=0, data=[63, 28]),
   midi.NoteOnEvent(tick=40, channel=0, data=[63, 0]),
   midi.NoteOnEvent(tick=0, channel=0, data=[65, 28]),
   midi.NoteOnEvent(tick=40, channel=0, data=[65, 0]),
   midi.NoteOnEvent(tick=0, channel=0, data=[70, 28]),
   midi.NoteOnEvent(tick=40, channel=0, data=[70, 0]),
   midi.NoteOnEvent(tick=0, channel=0, data=[75, 36]),
   midi.NoteOnEvent(tick=40, channel=0, data=[75, 0]),
   midi.NoteOnEvent(tick=0, channel=0, data=[70, 30]),
   midi.NoteOnEvent(tick=40, channel=0, data=[70, 0]),
   midi.NoteOnEvent(tick=0, channel=0, data=[66, 30]),
   midi.NoteOnEvent(tick=40, channel=0, data=[66, 0]),
   midi.NoteOnEvent(tick=0, channel=0, data=[63, 28]),
   midi.NoteOnEvent(tick=40, channel=0, data=[63, 0]),
   midi.NoteOnEvent(tick=0, channel=0, data=[65, 28]),
   midi.NoteOnEvent(tick=40, channel=0, data=[65, 0]),
   midi.NoteOnEvent(tick=0, channel=0, data=[70, 28]),
   midi.NoteOnEvent(tick=40, channel=0, data=[70, 0]),
   midi.NoteOnEvent(tick=0, channel=0, data=[75, 36]),
   midi.NoteOnEvent(tick=40, channel=0, data=[75, 0]),
   midi.NoteOnEvent(tick=0, channel=0, data=[70, 30]),
   midi.NoteOnEvent(tick=40, channel=0, data=[70, 0]),
   midi.NoteOnEvent(tick=0, channel=0, data=[66, 30]),
   midi.NoteOnEvent(tick=40, channel=0, data=[66, 0]),
   midi.NoteOnEvent(tick=0, channel=0, data=[63, 28]),
   midi.NoteOnEvent(tick=40, channel=0, data=[63, 0]),
   midi.NoteOnEvent(tick=0, channel=0, data=[65, 28]),
   midi.NoteOnEvent(tick=40, channel=0, data=[65, 0]),
   midi.NoteOnEvent(tick=0, channel=0, data=[70, 28]),
   midi.NoteOnEvent(tick=40, channel=0, data=[70, 0]),
   midi.NoteOnEvent(tick=0, channel=0, data=[75, 36]),
   midi.NoteOnEvent(tick=40, channel=0, data=[75, 0]),
   midi.NoteOnEvent(tick=0, channel=0, data=[70, 28]),
   midi.NoteOnEvent(tick=40, channel=0, data=[70, 0]),
   midi.NoteOnEvent(tick=0, channel=0, data=[66, 28]),
   midi.NoteOnEvent(tick=40, channel=0, data=[66, 0]),
   midi.NoteOnEvent(tick=0, channel=0, data=[63, 28]),
   midi.NoteOnEvent(tick=40, channel=0, data=[63, 0]),
   midi.NoteOnEvent(tick=0, channel=0, data=[65, 28]),
   midi.NoteOnEvent(tick=40, channel=0, data=[65, 0]),
   midi.NoteOnEvent(tick=0, channel=0, data=[70, 28]),
   midi.NoteOnEvent(tick=40, channel=0, data=[70, 0]),
   midi.NoteOnEvent(tick=0, channel=0, data=[75, 36]),
   midi.NoteOnEvent(tick=40, channel=0, data=[75, 0]),
   midi.NoteOnEvent(tick=0, channel=0, data=[70, 28]),
   midi.NoteOnEvent(tick=40, channel=0, data=[70, 0]),
   midi.NoteOnEvent(tick=0, channel=0, data=[66, 28]),
   midi.NoteOnEvent(tick=40, channel=0, data=[66, 0]),
   midi.NoteOnEvent(tick=0, channel=0, data=[62, 30]),
   midi.NoteOnEvent(tick=40, channel=0, data=[62, 0]),
   midi.NoteOnEvent(tick=0, channel=0, data=[64, 33]),
   midi.NoteOnEvent(tick=40, channel=0, data=[64, 0]),
   midi.NoteOnEvent(tick=0, channel=0, data=[69, 33]),
   midi.NoteOnEvent(tick=40, channel=0, data=[69, 0]),
   midi.NoteOnEvent(tick=0, channel=0, data=[74, 58]),
   midi.NoteOnEvent(tick=40, channel=0, data=[69, 36]),
   midi.NoteOnEvent(tick=40, channel=0, data=[69, 0]),
   midi.NoteOnEvent(tick=0, channel=0, data=[66, 36]),
   midi.NoteOnEvent(tick=40, channel=0, data=[66, 0]),
   midi.NoteOnEvent(tick=0, channel=0, data=[65, 33]),
   midi.NoteOnEvent(tick=40, channel=0, data=[65, 0]),
   midi.NoteOnEvent(tick=0, channel=0, data=[67, 33]),
   midi.NoteOnEvent(tick=40, channel=0, data=[67, 0]),
   midi.NoteOnEvent(tick=0, channel=0, data=[72, 33]),
   midi.NoteOnEvent(tick=40, channel=0, data=[72, 0]),
   midi.NoteOnEvent(tick=0, channel=0, data=[74, 0]),
   midi.NoteOnEvent(tick=0, channel=0, data=[77, 60]),
   midi.NoteOnEvent(tick=40, channel=0, data=[72, 35]),
   midi.NoteOnEvent(tick=40, channel=0, data=[72, 0]),
   midi.NoteOnEvent(tick=0, channel=0, data=[69, 35]),
   midi.NoteOnEvent(tick=40, channel=0, data=[69, 0]),
   midi.NoteOnEvent(tick=0, channel=0, data=[63, 33]),
   midi.NoteOnEvent(tick=40, channel=0, data=[63, 0]),
   midi.NoteOnEvent(tick=0, channel=0, data=[65, 33]),
   midi.NoteOnEvent(tick=40, channel=0, data=[65, 0]),
   midi.NoteOnEvent(tick=0, channel=0, data=[70, 33]),
   midi.NoteOnEvent(tick=40, channel=0, data=[70, 0]),
   midi.NoteOnEvent(tick=0, channel=0, data=[77, 0]),
   midi.NoteOnEvent(tick=0, channel=0, data=[75, 56]),
   midi.NoteOnEvent(tick=40, channel=0, data=[70, 33]),
   midi.NoteOnEvent(tick=40, channel=0, data=[70, 0]),
   midi.NoteOnEvent(tick=0, channel=0, data=[66, 33]),
   midi.NoteOnEvent(tick=40, channel=0, data=[66, 0]),
   midi.NoteOnEvent(tick=0, channel=0, data=[63, 30]),
   midi.NoteOnEvent(tick=40, channel=0, data=[63, 0]),
   midi.NoteOnEvent(tick=0, channel=0, data=[65, 28]),
   midi.NoteOnEvent(tick=40, channel=0, data=[65, 0]),
   midi.NoteOnEvent(tick=0, channel=0, data=[70, 28]),
   midi.NoteOnEvent(tick=40, channel=0, data=[70, 0]),
   midi.NoteOnEvent(tick=0, channel=0, data=[75, 35]),
   midi.NoteOnEvent(tick=40, channel=0, data=[75, 0]),
   midi.NoteOnEvent(tick=0, channel=0, data=[70, 33]),
   midi.NoteOnEvent(tick=40, channel=0, data=[70, 0]),
   midi.NoteOnEvent(tick=0, channel=0, data=[66, 33]),
   midi.NoteOnEvent(tick=40, channel=0, data=[66, 0]),
   midi.NoteOnEvent(tick=0, channel=0, data=[63, 28]),
   midi.NoteOnEvent(tick=40, channel=0, data=[63, 0]),
   midi.NoteOnEvent(tick=0, channel=0, data=[65, 28]),
   midi.NoteOnEvent(tick=40, channel=0, data=[65, 0]),
   midi.NoteOnEvent(tick=0, channel=0, data=[70, 28]),
   midi.NoteOnEvent(tick=40, channel=0, data=[70, 0]),
   midi.NoteOnEvent(tick=0, channel=0, data=[75, 40]),
   midi.NoteOnEvent(tick=40, channel=0, data=[75, 0]),
   midi.NoteOnEvent(tick=0, channel=0, data=[70, 33]),
   midi.NoteOnEvent(tick=40, channel=0, data=[70, 0]),
   midi.NoteOnEvent(tick=0, channel=0, data=[65, 33]),
   midi.NoteOnEvent(tick=40, channel=0, data=[65, 0]),
   midi.NoteOnEvent(tick=0, channel=0, data=[63, 33]),
   midi.NoteOnEvent(tick=40, channel=0, data=[63, 0]),
   midi.NoteOnEvent(tick=0, channel=0, data=[65, 30]),
   midi.NoteOnEvent(tick=40, channel=0, data=[65, 0]),
   midi.NoteOnEvent(tick=0, channel=0, data=[70, 30]),
   midi.NoteOnEvent(tick=40, channel=0, data=[70, 0]),
   midi.NoteOnEvent(tick=0, channel=0, data=[75, 0]),
   midi.NoteOnEvent(tick=0, channel=0, data=[75, 57]),
   midi.NoteOnEvent(tick=40, channel=0, data=[70, 33]),
   midi.NoteOnEvent(tick=40, channel=0, data=[70, 0]),
   midi.NoteOnEvent(tick=0, channel=0, data=[65, 33]),
   midi.NoteOnEvent(tick=40, channel=0, data=[65, 0]),
   midi.NoteOnEvent(tick=0, channel=0, data=[62, 33]),
   midi.NoteOnEvent(tick=40, channel=0, data=[62, 0]),
   midi.NoteOnEvent(tick=0, channel=0, data=[64, 33]),
   midi.NoteOnEvent(tick=40, channel=0, data=[64, 0]),
   midi.NoteOnEvent(tick=0, channel=0, data=[69, 33]),
   midi.NoteOnEvent(tick=40, channel=0, data=[69, 0]),
   midi.NoteOnEvent(tick=0, channel=0, data=[75, 0]),
   midi.NoteOnEvent(tick=0, channel=0, data=[74, 59]),
   midi.NoteOnEvent(tick=40, channel=0, data=[69, 36]),
   midi.NoteOnEvent(tick=40, channel=0, data=[69, 0]),
   midi.NoteOnEvent(tick=0, channel=0, data=[66, 36]),
   midi.NoteOnEvent(tick=40, channel=0, data=[66, 0]),
   midi.NoteOnEvent(tick=0, channel=0, data=[66, 33]),
   midi.NoteOnEvent(tick=40, channel=0, data=[66, 0]),
   midi.NoteOnEvent(tick=0, channel=0, data=[68, 33]),
   midi.NoteOnEvent(tick=40, channel=0, data=[68, 0]),
   midi.NoteOnEvent(tick=0, channel=0, data=[72, 30]),
   midi.NoteOnEvent(tick=40, channel=0, data=[72, 0]),
   midi.NoteOnEvent(tick=0, channel=0, data=[74, 0]),
   midi.NoteOnEvent(tick=0, channel=0, data=[78, 61]),
   midi.NoteOnEvent(tick=40, channel=0, data=[72, 35]),
   midi.NoteOnEvent(tick=40, channel=0, data=[72, 0]),
   midi.NoteOnEvent(tick=0, channel=0, data=[69, 35]),
   midi.NoteOnEvent(tick=40, channel=0, data=[69, 0]),
   midi.NoteOnEvent(tick=0, channel=0, data=[63, 33]),
   midi.NoteOnEvent(tick=40, channel=0, data=[63, 0]),
   midi.NoteOnEvent(tick=0, channel=0, data=[65, 33]),
   midi.NoteOnEvent(tick=40, channel=0, data=[65, 0]),
   midi.NoteOnEvent(tick=0, channel=0, data=[70, 33]),
   midi.NoteOnEvent(tick=40, channel=0, data=[70, 0]),
   midi.NoteOnEvent(tick=0, channel=0, data=[78, 0]),
   midi.NoteOnEvent(tick=0, channel=0, data=[75, 57]),
   midi.NoteOnEvent(tick=40, channel=0, data=[70, 33]),
   midi.NoteOnEvent(tick=40, channel=0, data=[70, 0]),
   midi.NoteOnEvent(tick=0, channel=0, data=[66, 33]),
   midi.NoteOnEvent(tick=40, channel=0, data=[66, 0]),
   midi.NoteOnEvent(tick=0, channel=0, data=[63, 30]),
   midi.NoteOnEvent(tick=40, channel=0, data=[63, 0]),
   midi.NoteOnEvent(tick=0, channel=0, data=[65, 28]),
   midi.NoteOnEvent(tick=40, channel=0, data=[65, 0]),
   midi.NoteOnEvent(tick=0, channel=0, data=[70, 28]),
   midi.NoteOnEvent(tick=40, channel=0, data=[70, 0]),
   midi.NoteOnEvent(tick=0, channel=0, data=[75, 35]),
   midi.NoteOnEvent(tick=40, channel=0, data=[75, 0]),
   midi.NoteOnEvent(tick=0, channel=0, data=[70, 33]),
   midi.NoteOnEvent(tick=40, channel=0, data=[70, 0]),
   midi.NoteOnEvent(tick=0, channel=0, data=[66, 33]),
   midi.NoteOnEvent(tick=40, channel=0, data=[66, 0]),
   midi.NoteOnEvent(tick=0, channel=0, data=[63, 28]),
   midi.NoteOnEvent(tick=40, channel=0, data=[63, 0]),
   midi.NoteOnEvent(tick=0, channel=0, data=[65, 28]),
   midi.NoteOnEvent(tick=40, channel=0, data=[65, 0]),
   midi.NoteOnEvent(tick=0, channel=0, data=[70, 28]),
   midi.NoteOnEvent(tick=40, channel=0, data=[70, 0]),
   midi.NoteOnEvent(tick=0, channel=0, data=[75, 35]),
   midi.NoteOnEvent(tick=40, channel=0, data=[75, 0]),
   midi.NoteOnEvent(tick=0, channel=0, data=[70, 33]),
   midi.NoteOnEvent(tick=40, channel=0, data=[70, 0]),
   midi.NoteOnEvent(tick=0, channel=0, data=[66, 33]),
   midi.NoteOnEvent(tick=40, channel=0, data=[66, 0]),
   midi.NoteOnEvent(tick=0, channel=0, data=[63, 33]),
   midi.NoteOnEvent(tick=40, channel=0, data=[63, 0]),
   midi.NoteOnEvent(tick=0, channel=0, data=[65, 30]),
   midi.NoteOnEvent(tick=40, channel=0, data=[65, 0]),
   midi.NoteOnEvent(tick=0, channel=0, data=[70, 30]),
   midi.NoteOnEvent(tick=40, channel=0, data=[70, 0]),
   midi.NoteOnEvent(tick=0, channel=0, data=[75, 0]),
   midi.NoteOnEvent(tick=0, channel=0, data=[75, 56]),
   midi.NoteOnEvent(tick=40, channel=0, data=[70, 35]),
   midi.NoteOnEvent(tick=40, channel=0, data=[70, 0]),
   midi.NoteOnEvent(tick=0, channel=0, data=[66, 35]),
   midi.NoteOnEvent(tick=40, channel=0, data=[66, 0]),
   midi.NoteOnEvent(tick=0, channel=0, data=[63, 33]),
   midi.NoteOnEvent(tick=40, channel=0, data=[63, 0]),
   midi.NoteOnEvent(tick=0, channel=0, data=[65, 33]),
   midi.NoteOnEvent(tick=40, channel=0, data=[65, 0]),
   midi.NoteOnEvent(tick=0, channel=0, data=[70, 33]),
   midi.NoteOnEvent(tick=40, channel=0, data=[70, 0]),
   midi.NoteOnEvent(tick=0, channel=0, data=[75, 0]),
   midi.NoteOnEvent(tick=0, channel=0, data=[75, 38]),
   midi.NoteOnEvent(tick=40, channel=0, data=[75, 0]),
   midi.NoteOnEvent(tick=0, channel=0, data=[70, 36]),
   midi.NoteOnEvent(tick=40, channel=0, data=[70, 0]),
   midi.NoteOnEvent(tick=0, channel=0, data=[66, 36]),
   midi.NoteOnEvent(tick=40, channel=0, data=[66, 0]),
   midi.NoteOnEvent(tick=0, channel=0, data=[63, 33]),
   midi.NoteOnEvent(tick=30, channel=0, data=[63, 0]),
   midi.NoteOnEvent(tick=0, channel=0, data=[66, 33]),
   midi.NoteOnEvent(tick=30, channel=0, data=[66, 0]),
   midi.NoteOnEvent(tick=0, channel=0, data=[70, 33]),
   midi.NoteOnEvent(tick=25, channel=0, data=[70, 0]),
   midi.NoteOnEvent(tick=5, channel=0, data=[70, 33]),
   midi.NoteOnEvent(tick=30, channel=0, data=[70, 0]),
   midi.NoteOnEvent(tick=0, channel=0, data=[82, 62]),
   midi.NoteOnEvent(tick=40, channel=0, data=[75, 36]),
   midi.NoteOnEvent(tick=40, channel=0, data=[75, 0]),
   midi.NoteOnEvent(tick=0, channel=0, data=[70, 36]),
   midi.NoteOnEvent(tick=40, channel=0, data=[70, 0]),
   midi.NoteOnEvent(tick=0, channel=0, data=[82, 0]),
   midi.NoteOnEvent(tick=0, channel=0, data=[53, 36]),
   midi.NoteOnEvent(tick=80, channel=0, data=[53, 0]),
   midi.NoteOnEvent(tick=0, channel=0, data=[58, 38]),
   midi.NoteOnEvent(tick=80, channel=0, data=[58, 0]),
   midi.NoteOnEvent(tick=0, channel=0, data=[61, 38]),
   midi.NoteOnEvent(tick=80, channel=0, data=[61, 0]),
   midi.NoteOnEvent(tick=0, channel=0, data=[65, 42]),
   midi.NoteOnEvent(tick=80, channel=0, data=[65, 0]),
   midi.NoteOnEvent(tick=0, channel=0, data=[70, 45]),
   midi.NoteOnEvent(tick=80, channel=0, data=[70, 0]),
   midi.NoteOnEvent(tick=0, channel=0, data=[73, 47]),
   midi.NoteOnEvent(tick=80, channel=0, data=[73, 0]),
   midi.NoteOnEvent(tick=0, channel=0, data=[82, 67]),
   midi.NoteOnEvent(tick=480, channel=0, data=[82, 0]),
   midi.NoteOnEvent(tick=0, channel=0, data=[67, 45]),
   midi.NoteOnEvent(tick=0, channel=0, data=[75, 45]),
   midi.NoteOnEvent(tick=0, channel=0, data=[79, 45]),
   midi.NoteOnEvent(tick=480, channel=0, data=[79, 0]),
   midi.NoteOnEvent(tick=0, channel=0, data=[75, 0]),
   midi.NoteOnEvent(tick=0, channel=0, data=[67, 0]),
   midi.NoteOnEvent(tick=0, channel=0, data=[73, 46]),
   midi.NoteOnEvent(tick=0, channel=0, data=[77, 46]),
   midi.NoteOnEvent(tick=480, channel=0, data=[77, 0]),
   midi.NoteOnEvent(tick=0, channel=0, data=[73, 0]),
   midi.NoteOnEvent(tick=480, channel=0, data=[71, 18]),
   midi.NoteOnEvent(tick=0, channel=0, data=[75, 18]),
   midi.NoteOnEvent(tick=45, channel=0, data=[75, 0]),
   midi.NoteOnEvent(tick=0, channel=0, data=[71, 0]),
   midi.NoteOnEvent(tick=15, channel=0, data=[77, 23]),
   midi.NoteOnEvent(tick=45, channel=0, data=[77, 0]),
   midi.NoteOnEvent(tick=15, channel=0, data=[71, 23]),
   midi.NoteOnEvent(tick=0, channel=0, data=[75, 23]),
   midi.NoteOnEvent(tick=32, channel=0, data=[75, 0]),
   midi.NoteOnEvent(tick=0, channel=0, data=[71, 0]),
   midi.NoteOnEvent(tick=28, channel=0, data=[75, 23]),
   midi.NoteOnEvent(tick=45, channel=0, data=[75, 0]),
   midi.NoteOnEvent(tick=15, channel=0, data=[89, 33]),
   midi.NoteOnEvent(tick=45, channel=0, data=[89, 0]),
   midi.NoteOnEvent(tick=15, channel=0, data=[83, 33]),
   midi.NoteOnEvent(tick=0, channel=0, data=[87, 33]),
   midi.NoteOnEvent(tick=45, channel=0, data=[87, 0]),
   midi.NoteOnEvent(tick=0, channel=0, data=[83, 0]),
   midi.NoteOnEvent(tick=15, channel=0, data=[75, 23]),
   midi.NoteOnEvent(tick=45, channel=0, data=[75, 0]),
   midi.NoteOnEvent(tick=15, channel=0, data=[77, 23]),
   midi.NoteOnEvent(tick=45, channel=0, data=[77, 0]),
   midi.NoteOnEvent(tick=15, channel=0, data=[71, 23]),
   midi.NoteOnEvent(tick=0, channel=0, data=[75, 23]),
   midi.NoteOnEvent(tick=45, channel=0, data=[75, 0]),
   midi.NoteOnEvent(tick=0, channel=0, data=[71, 0]),
   midi.NoteOnEvent(tick=15, channel=0, data=[77, 23]),
   midi.NoteOnEvent(tick=45, channel=0, data=[77, 0]),
   midi.NoteOnEvent(tick=15, channel=0, data=[71, 23]),
   midi.NoteOnEvent(tick=0, channel=0, data=[75, 23]),
   midi.NoteOnEvent(tick=45, channel=0, data=[75, 0]),
   midi.NoteOnEvent(tick=0, channel=0, data=[71, 0]),
   midi.NoteOnEvent(tick=15, channel=0, data=[63, 23]),
   midi.NoteOnEvent(tick=45, channel=0, data=[63, 0]),
   midi.NoteOnEvent(tick=15, channel=0, data=[65, 23]),
   midi.NoteOnEvent(tick=45, channel=0, data=[65, 0]),
   midi.NoteOnEvent(tick=15, channel=0, data=[63, 22]),
   midi.NoteOnEvent(tick=45, channel=0, data=[63, 0]),
   midi.NoteOnEvent(tick=15, channel=0, data=[63, 22]),
   midi.NoteOnEvent(tick=45, channel=0, data=[63, 0]),
   midi.NoteOnEvent(tick=15, channel=0, data=[77, 27]),
   midi.NoteOnEvent(tick=45, channel=0, data=[77, 0]),
   midi.NoteOnEvent(tick=15, channel=0, data=[71, 23]),
   midi.NoteOnEvent(tick=0, channel=0, data=[75, 23]),
   midi.NoteOnEvent(tick=45, channel=0, data=[75, 0]),
   midi.NoteOnEvent(tick=0, channel=0, data=[71, 0]),
   midi.NoteOnEvent(tick=15, channel=0, data=[77, 25]),
   midi.NoteOnEvent(tick=45, channel=0, data=[77, 0]),
   midi.NoteOnEvent(tick=15, channel=0, data=[71, 23]),
   midi.NoteOnEvent(tick=0, channel=0, data=[75, 23]),
   midi.NoteOnEvent(tick=32, channel=0, data=[75, 0]),
   midi.NoteOnEvent(tick=0, channel=0, data=[71, 0]),
   midi.NoteOnEvent(tick=28, channel=0, data=[75, 23]),
   midi.NoteOnEvent(tick=45, channel=0, data=[75, 0]),
   midi.NoteOnEvent(tick=15, channel=0, data=[89, 30]),
   midi.NoteOnEvent(tick=45, channel=0, data=[89, 0]),
   midi.NoteOnEvent(tick=15, channel=0, data=[83, 30]),
   midi.NoteOnEvent(tick=0, channel=0, data=[87, 30]),
   midi.NoteOnEvent(tick=45, channel=0, data=[87, 0]),
   midi.NoteOnEvent(tick=0, channel=0, data=[83, 0]),
   midi.NoteOnEvent(tick=15, channel=0, data=[75, 22]),
   midi.NoteOnEvent(tick=45, channel=0, data=[75, 0]),
   midi.NoteOnEvent(tick=15, channel=0, data=[77, 22]),
   midi.NoteOnEvent(tick=45, channel=0, data=[77, 0]),
   midi.NoteOnEvent(tick=15, channel=0, data=[71, 22]),
   midi.NoteOnEvent(tick=0, channel=0, data=[74, 22]),
   midi.NoteOnEvent(tick=45, channel=0, data=[74, 0]),
   midi.NoteOnEvent(tick=0, channel=0, data=[71, 0]),
   midi.NoteOnEvent(tick=15, channel=0, data=[76, 23]),
   midi.NoteOnEvent(tick=45, channel=0, data=[76, 0]),
   midi.NoteOnEvent(tick=15, channel=0, data=[71, 23]),
   midi.NoteOnEvent(tick=0, channel=0, data=[74, 23]),
   midi.NoteOnEvent(tick=45, channel=0, data=[74, 0]),
   midi.NoteOnEvent(tick=0, channel=0, data=[71, 0]),
   midi.NoteOnEvent(tick=15, channel=0, data=[62, 23]),
   midi.NoteOnEvent(tick=45, channel=0, data=[62, 0]),
   midi.NoteOnEvent(tick=15, channel=0, data=[64, 23]),
   midi.NoteOnEvent(tick=45, channel=0, data=[64, 0]),
   midi.NoteOnEvent(tick=15, channel=0, data=[62, 23]),
   midi.NoteOnEvent(tick=45, channel=0, data=[62, 0]),
   midi.NoteOnEvent(tick=15, channel=0, data=[62, 23]),
   midi.NoteOnEvent(tick=45, channel=0, data=[62, 0]),
   midi.NoteOnEvent(tick=15, channel=0, data=[76, 23]),
   midi.NoteOnEvent(tick=45, channel=0, data=[76, 0]),
   midi.NoteOnEvent(tick=15, channel=0, data=[71, 18]),
   midi.NoteOnEvent(tick=0, channel=0, data=[75, 18]),
   midi.NoteOnEvent(tick=45, channel=0, data=[75, 0]),
   midi.NoteOnEvent(tick=0, channel=0, data=[71, 0]),
   midi.NoteOnEvent(tick=15, channel=0, data=[77, 23]),
   midi.NoteOnEvent(tick=45, channel=0, data=[77, 0]),
   midi.NoteOnEvent(tick=15, channel=0, data=[71, 23]),
   midi.NoteOnEvent(tick=0, channel=0, data=[75, 23]),
   midi.NoteOnEvent(tick=32, channel=0, data=[75, 0]),
   midi.NoteOnEvent(tick=0, channel=0, data=[71, 0]),
   midi.NoteOnEvent(tick=28, channel=0, data=[75, 23]),
   midi.NoteOnEvent(tick=45, channel=0, data=[75, 0]),
   midi.NoteOnEvent(tick=15, channel=0, data=[89, 33]),
   midi.NoteOnEvent(tick=45, channel=0, data=[89, 0]),
   midi.NoteOnEvent(tick=15, channel=0, data=[83, 33]),
   midi.NoteOnEvent(tick=0, channel=0, data=[87, 33]),
   midi.NoteOnEvent(tick=45, channel=0, data=[87, 0]),
   midi.NoteOnEvent(tick=0, channel=0, data=[83, 0]),
   midi.NoteOnEvent(tick=15, channel=0, data=[75, 23]),
   midi.NoteOnEvent(tick=45, channel=0, data=[75, 0]),
   midi.NoteOnEvent(tick=15, channel=0, data=[77, 23]),
   midi.NoteOnEvent(tick=45, channel=0, data=[77, 0]),
   midi.NoteOnEvent(tick=15, channel=0, data=[71, 23]),
   midi.NoteOnEvent(tick=0, channel=0, data=[75, 23]),
   midi.NoteOnEvent(tick=45, channel=0, data=[75, 0]),
   midi.NoteOnEvent(tick=0, channel=0, data=[71, 0]),
   midi.NoteOnEvent(tick=15, channel=0, data=[77, 23]),
   midi.NoteOnEvent(tick=45, channel=0, data=[77, 0]),
   midi.NoteOnEvent(tick=15, channel=0, data=[71, 23]),
   midi.NoteOnEvent(tick=0, channel=0, data=[75, 23]),
   midi.NoteOnEvent(tick=45, channel=0, data=[75, 0]),
   midi.NoteOnEvent(tick=0, channel=0, data=[71, 0]),
   midi.NoteOnEvent(tick=15, channel=0, data=[63, 23]),
   midi.NoteOnEvent(tick=45, channel=0, data=[63, 0]),
   midi.NoteOnEvent(tick=15, channel=0, data=[65, 23]),
   midi.NoteOnEvent(tick=45, channel=0, data=[65, 0]),
   midi.NoteOnEvent(tick=15, channel=0, data=[63, 22]),
   midi.NoteOnEvent(tick=45, channel=0, data=[63, 0]),
   midi.NoteOnEvent(tick=15, channel=0, data=[63, 22]),
   midi.NoteOnEvent(tick=45, channel=0, data=[63, 0]),
   midi.NoteOnEvent(tick=15, channel=0, data=[77, 27]),
   midi.NoteOnEvent(tick=45, channel=0, data=[77, 0]),
   midi.NoteOnEvent(tick=15, channel=0, data=[71, 23]),
   midi.NoteOnEvent(tick=0, channel=0, data=[75, 23]),
   midi.NoteOnEvent(tick=45, channel=0, data=[75, 0]),
   midi.NoteOnEvent(tick=0, channel=0, data=[71, 0]),
   midi.NoteOnEvent(tick=15, channel=0, data=[77, 25]),
   midi.NoteOnEvent(tick=45, channel=0, data=[77, 0]),
   midi.NoteOnEvent(tick=15, channel=0, data=[71, 23]),
   midi.NoteOnEvent(tick=0, channel=0, data=[75, 23]),
   midi.NoteOnEvent(tick=32, channel=0, data=[75, 0]),
   midi.NoteOnEvent(tick=0, channel=0, data=[71, 0]),
   midi.NoteOnEvent(tick=28, channel=0, data=[75, 23]),
   midi.NoteOnEvent(tick=45, channel=0, data=[75, 0]),
   midi.NoteOnEvent(tick=15, channel=0, data=[89, 30]),
   midi.NoteOnEvent(tick=45, channel=0, data=[89, 0]),
   midi.NoteOnEvent(tick=15, channel=0, data=[83, 30]),
   midi.NoteOnEvent(tick=0, channel=0, data=[87, 30]),
   midi.NoteOnEvent(tick=45, channel=0, data=[87, 0]),
   midi.NoteOnEvent(tick=0, channel=0, data=[83, 0]),
   midi.NoteOnEvent(tick=15, channel=0, data=[75, 22]),
   midi.NoteOnEvent(tick=45, channel=0, data=[75, 0]),
   midi.NoteOnEvent(tick=15, channel=0, data=[77, 22]),
   midi.NoteOnEvent(tick=45, channel=0, data=[77, 0]),
   midi.NoteOnEvent(tick=15, channel=0, data=[71, 22]),
   midi.NoteOnEvent(tick=0, channel=0, data=[74, 22]),
   midi.NoteOnEvent(tick=45, channel=0, data=[74, 0]),
   midi.NoteOnEvent(tick=0, channel=0, data=[71, 0]),
   midi.NoteOnEvent(tick=15, channel=0, data=[76, 23]),
   midi.NoteOnEvent(tick=45, channel=0, data=[76, 0]),
   midi.NoteOnEvent(tick=15, channel=0, data=[71, 23]),
   midi.NoteOnEvent(tick=0, channel=0, data=[74, 23]),
   midi.NoteOnEvent(tick=45, channel=0, data=[74, 0]),
   midi.NoteOnEvent(tick=0, channel=0, data=[71, 0]),
   midi.NoteOnEvent(tick=15, channel=0, data=[62, 23]),
   midi.NoteOnEvent(tick=45, channel=0, data=[62, 0]),
   midi.NoteOnEvent(tick=15, channel=0, data=[64, 23]),
   midi.NoteOnEvent(tick=45, channel=0, data=[64, 0]),
   midi.NoteOnEvent(tick=15, channel=0, data=[62, 23]),
   midi.NoteOnEvent(tick=45, channel=0, data=[62, 0]),
   midi.NoteOnEvent(tick=15, channel=0, data=[62, 23]),
   midi.NoteOnEvent(tick=45, channel=0, data=[62, 0]),
   midi.NoteOnEvent(tick=15, channel=0, data=[76, 23]),
   midi.NoteOnEvent(tick=45, channel=0, data=[76, 0]),
   midi.NoteOnEvent(tick=15, channel=0, data=[71, 18]),
   midi.NoteOnEvent(tick=0, channel=0, data=[75, 18]),
   midi.NoteOnEvent(tick=45, channel=0, data=[75, 0]),
   midi.NoteOnEvent(tick=0, channel=0, data=[71, 0]),
   midi.NoteOnEvent(tick=15, channel=0, data=[77, 25]),
   midi.NoteOnEvent(tick=45, channel=0, data=[77, 0]),
   midi.NoteOnEvent(tick=15, channel=0, data=[71, 25]),
   midi.NoteOnEvent(tick=0, channel=0, data=[75, 25]),
   midi.NoteOnEvent(tick=32, channel=0, data=[75, 0]),
   midi.NoteOnEvent(tick=0, channel=0, data=[71, 0]),
   midi.NoteOnEvent(tick=28, channel=0, data=[75, 25]),
   midi.NoteOnEvent(tick=45, channel=0, data=[75, 0]),
   midi.NoteOnEvent(tick=15, channel=0, data=[89, 33]),
   midi.NoteOnEvent(tick=45, channel=0, data=[89, 0]),
   midi.NoteOnEvent(tick=15, channel=0, data=[83, 33]),
   midi.NoteOnEvent(tick=0, channel=0, data=[87, 33]),
   midi.NoteOnEvent(tick=45, channel=0, data=[87, 0]),
   midi.NoteOnEvent(tick=0, channel=0, data=[83, 0]),
   midi.NoteOnEvent(tick=15, channel=0, data=[75, 28]),
   midi.NoteOnEvent(tick=45, channel=0, data=[75, 0]),
   midi.NoteOnEvent(tick=15, channel=0, data=[77, 28]),
   midi.NoteOnEvent(tick=45, channel=0, data=[77, 0]),
   midi.NoteOnEvent(tick=15, channel=0, data=[71, 23]),
   midi.NoteOnEvent(tick=45, channel=0, data=[71, 0]),
   midi.NoteOnEvent(tick=15, channel=0, data=[77, 30]),
   midi.NoteOnEvent(tick=45, channel=0, data=[77, 0]),
   midi.NoteOnEvent(tick=15, channel=0, data=[71, 30]),
   midi.NoteOnEvent(tick=0, channel=0, data=[75, 30]),
   midi.NoteOnEvent(tick=32, channel=0, data=[75, 0]),
   midi.NoteOnEvent(tick=0, channel=0, data=[71, 0]),
   midi.NoteOnEvent(tick=28, channel=0, data=[75, 30]),
   midi.NoteOnEvent(tick=45, channel=0, data=[75, 0]),
   midi.NoteOnEvent(tick=15, channel=0, data=[89, 35]),
   midi.NoteOnEvent(tick=45, channel=0, data=[89, 0]),
   midi.NoteOnEvent(tick=15, channel=0, data=[83, 35]),
   midi.NoteOnEvent(tick=0, channel=0, data=[87, 35]),
   midi.NoteOnEvent(tick=45, channel=0, data=[87, 0]),
   midi.NoteOnEvent(tick=0, channel=0, data=[83, 0]),
   midi.NoteOnEvent(tick=15, channel=0, data=[75, 33]),
   midi.NoteOnEvent(tick=45, channel=0, data=[75, 0]),
   midi.NoteOnEvent(tick=15, channel=0, data=[77, 33]),
   midi.NoteOnEvent(tick=45, channel=0, data=[77, 0]),
   midi.NoteOnEvent(tick=15, channel=0, data=[71, 18]),
   midi.NoteOnEvent(tick=0, channel=0, data=[75, 18]),
   midi.NoteOnEvent(tick=45, channel=0, data=[75, 0]),
   midi.NoteOnEvent(tick=0, channel=0, data=[71, 0]),
   midi.NoteOnEvent(tick=15, channel=0, data=[77, 25]),
   midi.NoteOnEvent(tick=45, channel=0, data=[77, 0]),
   midi.NoteOnEvent(tick=15, channel=0, data=[71, 25]),
   midi.NoteOnEvent(tick=0, channel=0, data=[75, 25]),
   midi.NoteOnEvent(tick=32, channel=0, data=[75, 0]),
   midi.NoteOnEvent(tick=0, channel=0, data=[71, 0]),
   midi.NoteOnEvent(tick=28, channel=0, data=[75, 25]),
   midi.NoteOnEvent(tick=45, channel=0, data=[75, 0]),
   midi.NoteOnEvent(tick=15, channel=0, data=[89, 33]),
   midi.NoteOnEvent(tick=45, channel=0, data=[89, 0]),
   midi.NoteOnEvent(tick=15, channel=0, data=[83, 31]),
   midi.NoteOnEvent(tick=0, channel=0, data=[87, 31]),
   midi.NoteOnEvent(tick=45, channel=0, data=[87, 0]),
   midi.NoteOnEvent(tick=0, channel=0, data=[83, 0]),
   midi.NoteOnEvent(tick=15, channel=0, data=[75, 23]),
   midi.NoteOnEvent(tick=45, channel=0, data=[75, 0]),
   midi.NoteOnEvent(tick=15, channel=0, data=[77, 23]),
   midi.NoteOnEvent(tick=45, channel=0, data=[77, 0]),
   midi.NoteOnEvent(tick=15, channel=0, data=[71, 18]),
   midi.NoteOnEvent(tick=0, channel=0, data=[75, 18]),
   midi.NoteOnEvent(tick=45, channel=0, data=[75, 0]),
   midi.NoteOnEvent(tick=0, channel=0, data=[71, 0]),
   midi.NoteOnEvent(tick=15, channel=0, data=[77, 20]),
   midi.NoteOnEvent(tick=45, channel=0, data=[77, 0]),
   midi.NoteOnEvent(tick=15, channel=0, data=[71, 20]),
   midi.NoteOnEvent(tick=0, channel=0, data=[75, 20]),
   midi.NoteOnEvent(tick=32, channel=0, data=[75, 0]),
   midi.NoteOnEvent(tick=0, channel=0, data=[71, 0]),
   midi.NoteOnEvent(tick=28, channel=0, data=[75, 20]),
   midi.NoteOnEvent(tick=45, channel=0, data=[75, 0]),
   midi.NoteOnEvent(tick=15, channel=0, data=[89, 23]),
   midi.NoteOnEvent(tick=45, channel=0, data=[89, 0]),
   midi.NoteOnEvent(tick=15, channel=0, data=[83, 23]),
   midi.NoteOnEvent(tick=0, channel=0, data=[87, 23]),
   midi.NoteOnEvent(tick=45, channel=0, data=[87, 0]),
   midi.NoteOnEvent(tick=0, channel=0, data=[83, 0]),
   midi.NoteOnEvent(tick=15, channel=0, data=[75, 22]),
   midi.NoteOnEvent(tick=45, channel=0, data=[75, 0]),
   midi.NoteOnEvent(tick=15, channel=0, data=[77, 22]),
   midi.NoteOnEvent(tick=45, channel=0, data=[77, 0]),
   midi.NoteOnEvent(tick=15, channel=0, data=[71, 18]),
   midi.NoteOnEvent(tick=0, channel=0, data=[75, 18]),
   midi.NoteOnEvent(tick=45, channel=0, data=[75, 0]),
   midi.NoteOnEvent(tick=0, channel=0, data=[71, 0]),
   midi.NoteOnEvent(tick=15, channel=0, data=[77, 18]),
   midi.NoteOnEvent(tick=45, channel=0, data=[77, 0]),
   midi.NoteOnEvent(tick=15, channel=0, data=[71, 20]),
   midi.NoteOnEvent(tick=0, channel=0, data=[75, 20]),
   midi.NoteOnEvent(tick=32, channel=0, data=[75, 0]),
   midi.NoteOnEvent(tick=0, channel=0, data=[71, 0]),
   midi.NoteOnEvent(tick=28, channel=0, data=[63, 20]),
   midi.NoteOnEvent(tick=45, channel=0, data=[63, 0]),
   midi.NoteOnEvent(tick=15, channel=0, data=[65, 20]),
   midi.NoteOnEvent(tick=60, channel=0, data=[65, 0]),
   midi.NoteOnEvent(tick=0, channel=0, data=[63, 20]),
   midi.NoteOnEvent(tick=60, channel=0, data=[63, 0]),
   midi.NoteOnEvent(tick=0, channel=0, data=[59, 20]),
   midi.NoteOnEvent(tick=60, channel=0, data=[59, 0]),
   midi.NoteOnEvent(tick=0, channel=0, data=[51, 18]),
   midi.NoteOnEvent(tick=60, channel=0, data=[51, 0]),
   midi.NoteOnEvent(tick=30, channel=0, data=[57, 28]),
   midi.NoteOnEvent(tick=0, channel=0, data=[53, 28]),
   midi.NoteOnEvent(tick=20, channel=0, data=[53, 0]),
   midi.NoteOnEvent(tick=10, channel=0, data=[57, 0]),
   midi.NoteOnEvent(tick=0, channel=0, data=[59, 31]),
   midi.NoteOnEvent(tick=45, channel=0, data=[59, 0]),
   midi.NoteOnEvent(tick=15, channel=0, data=[53, 27]),
   midi.NoteOnEvent(tick=0, channel=0, data=[57, 27]),
   midi.NoteOnEvent(tick=45, channel=0, data=[57, 0]),
   midi.NoteOnEvent(tick=0, channel=0, data=[53, 0]),
   midi.NoteOnEvent(tick=15, channel=0, data=[53, 27]),
   midi.NoteOnEvent(tick=0, channel=0, data=[57, 27]),
   midi.NoteOnEvent(tick=32, channel=0, data=[57, 0]),
   midi.NoteOnEvent(tick=0, channel=0, data=[53, 0]),
   midi.NoteOnEvent(tick=28, channel=0, data=[71, 33]),
   midi.NoteOnEvent(tick=45, channel=0, data=[71, 0]),
   midi.NoteOnEvent(tick=15, channel=0, data=[65, 28]),
   midi.NoteOnEvent(tick=0, channel=0, data=[69, 28]),
   midi.NoteOnEvent(tick=45, channel=0, data=[69, 0]),
   midi.NoteOnEvent(tick=0, channel=0, data=[65, 0]),
   midi.NoteOnEvent(tick=15, channel=0, data=[65, 28]),
   midi.NoteOnEvent(tick=0, channel=0, data=[69, 28]),
   midi.NoteOnEvent(tick=45, channel=0, data=[69, 0]),
   midi.NoteOnEvent(tick=0, channel=0, data=[65, 0]),
   midi.NoteOnEvent(tick=15, channel=0, data=[71, 31]),
   midi.NoteOnEvent(tick=45, channel=0, data=[71, 0]),
   midi.NoteOnEvent(tick=15, channel=0, data=[77, 31]),
   midi.NoteOnEvent(tick=0, channel=0, data=[81, 31]),
   midi.NoteOnEvent(tick=45, channel=0, data=[81, 0]),
   midi.NoteOnEvent(tick=0, channel=0, data=[77, 0]),
   midi.NoteOnEvent(tick=15, channel=0, data=[83, 33]),
   midi.NoteOnEvent(tick=45, channel=0, data=[83, 0]),
   midi.NoteOnEvent(tick=15, channel=0, data=[77, 30]),
   midi.NoteOnEvent(tick=0, channel=0, data=[81, 30]),
   midi.NoteOnEvent(tick=45, channel=0, data=[81, 0]),
   midi.NoteOnEvent(tick=0, channel=0, data=[77, 0]),
   midi.NoteOnEvent(tick=15, channel=0, data=[77, 30]),
   midi.NoteOnEvent(tick=0, channel=0, data=[81, 30]),
   midi.NoteOnEvent(tick=45, channel=0, data=[81, 0]),
   midi.NoteOnEvent(tick=0, channel=0, data=[77, 0]),
   midi.NoteOnEvent(tick=15, channel=0, data=[95, 33]),
   midi.NoteOnEvent(tick=45, channel=0, data=[95, 0]),
   midi.NoteOnEvent(tick=15, channel=0, data=[89, 30]),
   midi.NoteOnEvent(tick=0, channel=0, data=[93, 30]),
   midi.NoteOnEvent(tick=45, channel=0, data=[93, 0]),
   midi.NoteOnEvent(tick=0, channel=0, data=[89, 0]),
   midi.NoteOnEvent(tick=15, channel=0, data=[89, 28]),
   midi.NoteOnEvent(tick=0, channel=0, data=[93, 28]),
   midi.NoteOnEvent(tick=45, channel=0, data=[93, 0]),
   midi.NoteOnEvent(tick=0, channel=0, data=[89, 0]),
   midi.NoteOnEvent(tick=15, channel=0, data=[95, 30]),
   midi.NoteOnEvent(tick=45, channel=0, data=[95, 0]),
   midi.NoteOnEvent(tick=15, channel=0, data=[105, 23]),
   midi.NoteOnEvent(tick=0, channel=0, data=[101, 23]),
   midi.NoteOnEvent(tick=240, channel=0, data=[101, 0]),
   midi.NoteOnEvent(tick=0, channel=0, data=[105, 0]),
   midi.NoteOnEvent(tick=720, channel=0, data=[69, 33]),
   midi.NoteOnEvent(tick=480, channel=0, data=[69, 0]),
   midi.NoteOnEvent(tick=0, channel=0, data=[62, 33]),
   midi.NoteOnEvent(tick=480, channel=0, data=[62, 0]),
   midi.NoteOnEvent(tick=0, channel=0, data=[65, 33]),
   midi.NoteOnEvent(tick=240, channel=0, data=[65, 0]),
   midi.NoteOnEvent(tick=0, channel=0, data=[69, 33]),
   midi.NoteOnEvent(tick=240, channel=0, data=[69, 0]),
   midi.NoteOnEvent(tick=0, channel=0, data=[71, 33]),
   midi.NoteOnEvent(tick=480, channel=0, data=[71, 0]),
   midi.NoteOnEvent(tick=240, channel=0, data=[69, 33]),
   midi.NoteOnEvent(tick=240, channel=0, data=[69, 0]),
   midi.NoteOnEvent(tick=0, channel=0, data=[74, 35]),
   midi.NoteOnEvent(tick=240, channel=0, data=[74, 0]),
   midi.NoteOnEvent(tick=0, channel=0, data=[73, 33]),
   midi.NoteOnEvent(tick=240, channel=0, data=[73, 0]),
   midi.NoteOnEvent(tick=0, channel=0, data=[71, 33]),
   midi.NoteOnEvent(tick=480, channel=0, data=[71, 0]),
   midi.NoteOnEvent(tick=0, channel=0, data=[69, 33]),
   midi.NoteOnEvent(tick=240, channel=0, data=[69, 0]),
   midi.NoteOnEvent(tick=0, channel=0, data=[71, 33]),
   midi.NoteOnEvent(tick=240, channel=0, data=[71, 0]),
   midi.NoteOnEvent(tick=0, channel=0, data=[74, 33]),
   midi.NoteOnEvent(tick=240, channel=0, data=[74, 0]),
   midi.NoteOnEvent(tick=0, channel=0, data=[73, 33]),
   midi.NoteOnEvent(tick=240, channel=0, data=[73, 0]),
   midi.NoteOnEvent(tick=0, channel=0, data=[69, 33]),
   midi.NoteOnEvent(tick=360, channel=0, data=[69, 0]),
   midi.NoteOnEvent(tick=120, channel=0, data=[68, 36]),
   midi.NoteOnEvent(tick=960, channel=0, data=[68, 0]),
   midi.NoteOnEvent(tick=0, channel=0, data=[69, 20]),
   midi.NoteOnEvent(tick=360, channel=0, data=[69, 0]),
   midi.NoteOnEvent(tick=120, channel=0, data=[48, 52]),
   midi.NoteOnEvent(tick=40, channel=0, data=[48, 0]),
   midi.NoteOnEvent(tick=0, channel=0, data=[52, 53]),
   midi.NoteOnEvent(tick=40, channel=0, data=[52, 0]),
   midi.NoteOnEvent(tick=0, channel=0, data=[55, 56]),
   midi.NoteOnEvent(tick=40, channel=0, data=[55, 0]),
   midi.NoteOnEvent(tick=0, channel=0, data=[60, 58]),
   midi.NoteOnEvent(tick=40, channel=0, data=[60, 0]),
   midi.NoteOnEvent(tick=0, channel=0, data=[64, 58]),
   midi.NoteOnEvent(tick=40, channel=0, data=[64, 0]),
   midi.NoteOnEvent(tick=0, channel=0, data=[67, 62]),
   midi.NoteOnEvent(tick=40, channel=0, data=[67, 0]),
   midi.NoteOnEvent(tick=0, channel=0, data=[72, 63]),
   midi.NoteOnEvent(tick=40, channel=0, data=[72, 0]),
   midi.NoteOnEvent(tick=0, channel=0, data=[76, 65]),
   midi.NoteOnEvent(tick=40, channel=0, data=[76, 0]),
   midi.NoteOnEvent(tick=0, channel=0, data=[79, 67]),
   midi.NoteOnEvent(tick=40, channel=0, data=[79, 0]),
   midi.NoteOnEvent(tick=0, channel=0, data=[84, 68]),
   midi.NoteOnEvent(tick=40, channel=0, data=[84, 0]),
   midi.NoteOnEvent(tick=0, channel=0, data=[88, 70]),
   midi.NoteOnEvent(tick=40, channel=0, data=[88, 0]),
   midi.NoteOnEvent(tick=0, channel=0, data=[91, 73]),
   midi.NoteOnEvent(tick=40, channel=0, data=[91, 0]),
   midi.NoteOnEvent(tick=0, channel=0, data=[96, 85]),
   midi.NoteOnEvent(tick=53, channel=0, data=[96, 0]),
   midi.NoteOnEvent(tick=0, channel=0, data=[91, 72]),
   midi.NoteOnEvent(tick=53, channel=0, data=[91, 0]),
   midi.NoteOnEvent(tick=0, channel=0, data=[88, 68]),
   midi.NoteOnEvent(tick=53, channel=0, data=[88, 0]),
   midi.NoteOnEvent(tick=0, channel=0, data=[84, 67]),
   midi.NoteOnEvent(tick=53, channel=0, data=[84, 0]),
   midi.NoteOnEvent(tick=0, channel=0, data=[79, 65]),
   midi.NoteOnEvent(tick=53, channel=0, data=[79, 0]),
   midi.NoteOnEvent(tick=0, channel=0, data=[76, 63]),
   midi.NoteOnEvent(tick=53, channel=0, data=[76, 0]),
   midi.NoteOnEvent(tick=0, channel=0, data=[72, 62]),
   midi.NoteOnEvent(tick=53, channel=0, data=[72, 0]),
   midi.NoteOnEvent(tick=0, channel=0, data=[67, 58]),
   midi.NoteOnEvent(tick=53, channel=0, data=[67, 0]),
   midi.NoteOnEvent(tick=0, channel=0, data=[64, 57]),
   midi.NoteOnEvent(tick=56, channel=0, data=[64, 0]),
   midi.NoteOnEvent(tick=0, channel=0, data=[60, 58]),
   midi.NoteOnEvent(tick=53, channel=0, data=[60, 0]),
   midi.NoteOnEvent(tick=0, channel=0, data=[64, 58]),
   midi.NoteOnEvent(tick=53, channel=0, data=[64, 0]),
   midi.NoteOnEvent(tick=0, channel=0, data=[67, 62]),
   midi.NoteOnEvent(tick=53, channel=0, data=[67, 0]),
   midi.NoteOnEvent(tick=0, channel=0, data=[72, 63]),
   midi.NoteOnEvent(tick=53, channel=0, data=[72, 0]),
   midi.NoteOnEvent(tick=0, channel=0, data=[76, 65]),
   midi.NoteOnEvent(tick=53, channel=0, data=[76, 0]),
   midi.NoteOnEvent(tick=0, channel=0, data=[79, 67]),
   midi.NoteOnEvent(tick=53, channel=0, data=[79, 0]),
   midi.NoteOnEvent(tick=0, channel=0, data=[84, 68]),
   midi.NoteOnEvent(tick=53, channel=0, data=[84, 0]),
   midi.NoteOnEvent(tick=0, channel=0, data=[88, 70]),
   midi.NoteOnEvent(tick=53, channel=0, data=[88, 0]),
   midi.NoteOnEvent(tick=0, channel=0, data=[91, 73]),
   midi.NoteOnEvent(tick=56, channel=0, data=[91, 0]),
   midi.NoteOnEvent(tick=0, channel=0, data=[96, 85]),
   midi.NoteOnEvent(tick=80, channel=0, data=[96, 0]),
   midi.NoteOnEvent(tick=0, channel=0, data=[91, 72]),
   midi.NoteOnEvent(tick=80, channel=0, data=[91, 0]),
   midi.NoteOnEvent(tick=0, channel=0, data=[88, 68]),
   midi.NoteOnEvent(tick=80, channel=0, data=[88, 0]),
   midi.NoteOnEvent(tick=0, channel=0, data=[84, 67]),
   midi.NoteOnEvent(tick=80, channel=0, data=[84, 0]),
   midi.NoteOnEvent(tick=0, channel=0, data=[79, 65]),
   midi.NoteOnEvent(tick=80, channel=0, data=[79, 0]),
   midi.NoteOnEvent(tick=0, channel=0, data=[76, 63]),
   midi.NoteOnEvent(tick=80, channel=0, data=[76, 0]),
   midi.NoteOnEvent(tick=0, channel=0, data=[72, 62]),
   midi.NoteOnEvent(tick=80, channel=0, data=[72, 0]),
   midi.NoteOnEvent(tick=0, channel=0, data=[76, 62]),
   midi.NoteOnEvent(tick=80, channel=0, data=[76, 0]),
   midi.NoteOnEvent(tick=0, channel=0, data=[79, 63]),
   midi.NoteOnEvent(tick=80, channel=0, data=[79, 0]),
   midi.NoteOnEvent(tick=0, channel=0, data=[84, 67]),
   midi.NoteOnEvent(tick=80, channel=0, data=[84, 0]),
   midi.NoteOnEvent(tick=0, channel=0, data=[88, 68]),
   midi.NoteOnEvent(tick=80, channel=0, data=[88, 0]),
   midi.NoteOnEvent(tick=0, channel=0, data=[91, 68]),
   midi.NoteOnEvent(tick=80, channel=0, data=[91, 0]),
   midi.NoteOnEvent(tick=0, channel=0, data=[96, 81]),
   midi.NoteOnEvent(tick=80, channel=0, data=[96, 0]),
   midi.NoteOnEvent(tick=0, channel=0, data=[91, 72]),
   midi.NoteOnEvent(tick=80, channel=0, data=[91, 0]),
   midi.NoteOnEvent(tick=0, channel=0, data=[88, 68]),
   midi.NoteOnEvent(tick=80, channel=0, data=[88, 0]),
   midi.NoteOnEvent(tick=0, channel=0, data=[84, 67]),
   midi.NoteOnEvent(tick=80, channel=0, data=[84, 0]),
   midi.NoteOnEvent(tick=0, channel=0, data=[79, 65]),
   midi.NoteOnEvent(tick=80, channel=0, data=[79, 0]),
   midi.NoteOnEvent(tick=0, channel=0, data=[76, 63]),
   midi.NoteOnEvent(tick=80, channel=0, data=[76, 0]),
   midi.NoteOnEvent(tick=0, channel=0, data=[72, 62]),
   midi.NoteOnEvent(tick=80, channel=0, data=[72, 0]),
   midi.NoteOnEvent(tick=0, channel=0, data=[76, 62]),
   midi.NoteOnEvent(tick=80, channel=0, data=[76, 0]),
   midi.NoteOnEvent(tick=0, channel=0, data=[79, 63]),
   midi.NoteOnEvent(tick=80, channel=0, data=[79, 0]),
   midi.NoteOnEvent(tick=0, channel=0, data=[84, 67]),
   midi.NoteOnEvent(tick=80, channel=0, data=[84, 0]),
   midi.NoteOnEvent(tick=0, channel=0, data=[88, 68]),
   midi.NoteOnEvent(tick=80, channel=0, data=[88, 0]),
   midi.NoteOnEvent(tick=0, channel=0, data=[91, 68]),
   midi.NoteOnEvent(tick=80, channel=0, data=[91, 0]),
   midi.NoteOnEvent(tick=0, channel=0, data=[96, 76]),
   midi.NoteOnEvent(tick=60, channel=0, data=[96, 0]),
   midi.NoteOnEvent(tick=0, channel=0, data=[91, 58]),
   midi.NoteOnEvent(tick=60, channel=0, data=[91, 0]),
   midi.NoteOnEvent(tick=0, channel=0, data=[88, 58]),
   midi.NoteOnEvent(tick=60, channel=0, data=[88, 0]),
   midi.NoteOnEvent(tick=0, channel=0, data=[84, 58]),
   midi.NoteOnEvent(tick=60, channel=0, data=[84, 0]),
   midi.NoteOnEvent(tick=0, channel=0, data=[94, 75]),
   midi.NoteOnEvent(tick=60, channel=0, data=[94, 0]),
   midi.NoteOnEvent(tick=0, channel=0, data=[89, 58]),
   midi.NoteOnEvent(tick=60, channel=0, data=[89, 0]),
   midi.NoteOnEvent(tick=0, channel=0, data=[86, 58]),
   midi.NoteOnEvent(tick=60, channel=0, data=[86, 0]),
   midi.NoteOnEvent(tick=0, channel=0, data=[82, 58]),
   midi.NoteOnEvent(tick=60, channel=0, data=[82, 0]),
   midi.NoteOnEvent(tick=0, channel=0, data=[91, 75]),
   midi.NoteOnEvent(tick=60, channel=0, data=[91, 0]),
   midi.NoteOnEvent(tick=0, channel=0, data=[86, 57]),
   midi.NoteOnEvent(tick=60, channel=0, data=[86, 0]),
   midi.NoteOnEvent(tick=0, channel=0, data=[83, 57]),
   midi.NoteOnEvent(tick=60, channel=0, data=[83, 0]),
   midi.NoteOnEvent(tick=0, channel=0, data=[79, 57]),
   midi.NoteOnEvent(tick=60, channel=0, data=[79, 0]),
   midi.NoteOnEvent(tick=0, channel=0, data=[89, 75]),
   midi.NoteOnEvent(tick=60, channel=0, data=[89, 0]),
   midi.NoteOnEvent(tick=0, channel=0, data=[84, 56]),
   midi.NoteOnEvent(tick=60, channel=0, data=[84, 0]),
   midi.NoteOnEvent(tick=0, channel=0, data=[81, 56]),
   midi.NoteOnEvent(tick=60, channel=0, data=[81, 0]),
   midi.NoteOnEvent(tick=0, channel=0, data=[77, 56]),
   midi.NoteOnEvent(tick=60, channel=0, data=[77, 0]),
   midi.NoteOnEvent(tick=0, channel=0, data=[84, 70]),
   midi.NoteOnEvent(tick=60, channel=0, data=[84, 0]),
   midi.NoteOnEvent(tick=0, channel=0, data=[79, 53]),
   midi.NoteOnEvent(tick=60, channel=0, data=[79, 0]),
   midi.NoteOnEvent(tick=0, channel=0, data=[76, 53]),
   midi.NoteOnEvent(tick=60, channel=0, data=[76, 0]),
   midi.NoteOnEvent(tick=0, channel=0, data=[72, 53]),
   midi.NoteOnEvent(tick=60, channel=0, data=[72, 0]),
   midi.NoteOnEvent(tick=0, channel=0, data=[82, 70]),
   midi.NoteOnEvent(tick=60, channel=0, data=[82, 0]),
   midi.NoteOnEvent(tick=0, channel=0, data=[77, 52]),
   midi.NoteOnEvent(tick=60, channel=0, data=[77, 0]),
   midi.NoteOnEvent(tick=0, channel=0, data=[74, 52]),
   midi.NoteOnEvent(tick=60, channel=0, data=[74, 0]),
   midi.NoteOnEvent(tick=0, channel=0, data=[70, 52]),
   midi.NoteOnEvent(tick=60, channel=0, data=[70, 0]),
   midi.NoteOnEvent(tick=0, channel=0, data=[79, 70]),
   midi.NoteOnEvent(tick=60, channel=0, data=[79, 0]),
   midi.NoteOnEvent(tick=0, channel=0, data=[74, 51]),
   midi.NoteOnEvent(tick=60, channel=0, data=[74, 0]),
   midi.NoteOnEvent(tick=0, channel=0, data=[71, 51]),
   midi.NoteOnEvent(tick=60, channel=0, data=[71, 0]),
   midi.NoteOnEvent(tick=0, channel=0, data=[67, 51]),
   midi.NoteOnEvent(tick=60, channel=0, data=[67, 0]),
   midi.NoteOnEvent(tick=0, channel=0, data=[77, 68]),
   midi.NoteOnEvent(tick=60, channel=0, data=[77, 0]),
   midi.NoteOnEvent(tick=0, channel=0, data=[72, 50]),
   midi.NoteOnEvent(tick=60, channel=0, data=[72, 0]),
   midi.NoteOnEvent(tick=0, channel=0, data=[69, 50]),
   midi.NoteOnEvent(tick=60, channel=0, data=[69, 0]),
   midi.NoteOnEvent(tick=0, channel=0, data=[65, 50]),
   midi.NoteOnEvent(tick=60, channel=0, data=[65, 0]),
   midi.NoteOnEvent(tick=0, channel=0, data=[72, 67]),
   midi.NoteOnEvent(tick=60, channel=0, data=[72, 0]),
   midi.NoteOnEvent(tick=0, channel=0, data=[67, 50]),
   midi.NoteOnEvent(tick=60, channel=0, data=[67, 0]),
   midi.NoteOnEvent(tick=0, channel=0, data=[64, 50]),
   midi.NoteOnEvent(tick=60, channel=0, data=[64, 0]),
   midi.NoteOnEvent(tick=0, channel=0, data=[60, 50]),
   midi.NoteOnEvent(tick=60, channel=0, data=[60, 0]),
   midi.NoteOnEvent(tick=0, channel=0, data=[70, 67]),
   midi.NoteOnEvent(tick=60, channel=0, data=[70, 0]),
   midi.NoteOnEvent(tick=0, channel=0, data=[65, 46]),
   midi.NoteOnEvent(tick=60, channel=0, data=[65, 0]),
   midi.NoteOnEvent(tick=0, channel=0, data=[62, 46]),
   midi.NoteOnEvent(tick=60, channel=0, data=[62, 0]),
   midi.NoteOnEvent(tick=0, channel=0, data=[58, 46]),
   midi.NoteOnEvent(tick=60, channel=0, data=[58, 0]),
   midi.NoteOnEvent(tick=0, channel=0, data=[67, 63]),
   midi.NoteOnEvent(tick=60, channel=0, data=[67, 0]),
   midi.NoteOnEvent(tick=0, channel=0, data=[62, 45]),
   midi.NoteOnEvent(tick=60, channel=0, data=[62, 0]),
   midi.NoteOnEvent(tick=0, channel=0, data=[59, 45]),
   midi.NoteOnEvent(tick=60, channel=0, data=[59, 0]),
   midi.NoteOnEvent(tick=0, channel=0, data=[55, 45]),
   midi.NoteOnEvent(tick=60, channel=0, data=[55, 0]),
   midi.NoteOnEvent(tick=0, channel=0, data=[65, 62]),
   midi.NoteOnEvent(tick=60, channel=0, data=[65, 0]),
   midi.NoteOnEvent(tick=0, channel=0, data=[60, 45]),
   midi.NoteOnEvent(tick=60, channel=0, data=[60, 0]),
   midi.NoteOnEvent(tick=0, channel=0, data=[57, 45]),
   midi.NoteOnEvent(tick=60, channel=0, data=[57, 0]),
   midi.NoteOnEvent(tick=0, channel=0, data=[53, 45]),
   midi.NoteOnEvent(tick=60, channel=0, data=[53, 0]),
   midi.NoteOnEvent(tick=0, channel=0, data=[60, 62]),
   midi.NoteOnEvent(tick=60, channel=0, data=[60, 0]),
   midi.NoteOnEvent(tick=0, channel=0, data=[55, 45]),
   midi.NoteOnEvent(tick=60, channel=0, data=[55, 0]),
   midi.NoteOnEvent(tick=0, channel=0, data=[52, 45]),
   midi.NoteOnEvent(tick=60, channel=0, data=[52, 0]),
   midi.NoteOnEvent(tick=0, channel=0, data=[48, 45]),
   midi.NoteOnEvent(tick=60, channel=0, data=[48, 0]),
   midi.NoteOnEvent(tick=0, channel=0, data=[58, 58]),
   midi.NoteOnEvent(tick=60, channel=0, data=[58, 0]),
   midi.NoteOnEvent(tick=0, channel=0, data=[53, 41]),
   midi.NoteOnEvent(tick=60, channel=0, data=[53, 0]),
   midi.NoteOnEvent(tick=0, channel=0, data=[50, 41]),
   midi.NoteOnEvent(tick=60, channel=0, data=[50, 0]),
   midi.NoteOnEvent(tick=0, channel=0, data=[46, 41]),
   midi.NoteOnEvent(tick=60, channel=0, data=[46, 0]),
   midi.NoteOnEvent(tick=0, channel=0, data=[56, 59]),
   midi.NoteOnEvent(tick=60, channel=0, data=[45, 41]),
   midi.NoteOnEvent(tick=30, channel=0, data=[56, 0]),
   midi.NoteOnEvent(tick=30, channel=0, data=[45, 0]),
   midi.NoteOnEvent(tick=0, channel=0, data=[49, 36]),
   midi.NoteOnEvent(tick=60, channel=0, data=[49, 0]),
   midi.NoteOnEvent(tick=0, channel=0, data=[51, 38]),
   midi.NoteOnEvent(tick=60, channel=0, data=[51, 0]),
   midi.NoteOnEvent(tick=0, channel=0, data=[54, 55]),
   midi.NoteOnEvent(tick=60, channel=0, data=[57, 36]),
   midi.NoteOnEvent(tick=30, channel=0, data=[54, 0]),
   midi.NoteOnEvent(tick=30, channel=0, data=[57, 0]),
   midi.NoteOnEvent(tick=0, channel=0, data=[61, 38]),
   midi.NoteOnEvent(tick=60, channel=0, data=[61, 0]),
   midi.NoteOnEvent(tick=0, channel=0, data=[63, 40]),
   midi.NoteOnEvent(tick=60, channel=0, data=[63, 0]),
   midi.NoteOnEvent(tick=0, channel=0, data=[68, 40]),
   midi.NoteOnEvent(tick=60, channel=0, data=[68, 0]),
   midi.NoteOnEvent(tick=0, channel=0, data=[66, 40]),
   midi.NoteOnEvent(tick=60, channel=0, data=[66, 0]),
   midi.NoteOnEvent(tick=0, channel=0, data=[63, 38]),
   midi.NoteOnEvent(tick=60, channel=0, data=[63, 0]),
   midi.NoteOnEvent(tick=0, channel=0, data=[61, 38]),
   midi.NoteOnEvent(tick=60, channel=0, data=[61, 0]),
   midi.NoteOnEvent(tick=0, channel=0, data=[57, 38]),
   midi.NoteOnEvent(tick=60, channel=0, data=[57, 0]),
   midi.NoteOnEvent(tick=0, channel=0, data=[54, 38]),
   midi.NoteOnEvent(tick=60, channel=0, data=[54, 0]),
   midi.NoteOnEvent(tick=0, channel=0, data=[51, 36]),
   midi.NoteOnEvent(tick=60, channel=0, data=[51, 0]),
   midi.NoteOnEvent(tick=0, channel=0, data=[49, 36]),
   midi.NoteOnEvent(tick=60, channel=0, data=[49, 0]),
   midi.NoteOnEvent(tick=0, channel=0, data=[56, 58]),
   midi.NoteOnEvent(tick=60, channel=0, data=[45, 33]),
   midi.NoteOnEvent(tick=30, channel=0, data=[56, 0]),
   midi.NoteOnEvent(tick=30, channel=0, data=[45, 0]),
   midi.NoteOnEvent(tick=0, channel=0, data=[49, 33]),
   midi.NoteOnEvent(tick=60, channel=0, data=[49, 0]),
   midi.NoteOnEvent(tick=0, channel=0, data=[51, 35]),
   midi.NoteOnEvent(tick=60, channel=0, data=[51, 0]),
   midi.NoteOnEvent(tick=0, channel=0, data=[54, 53]),
   midi.NoteOnEvent(tick=60, channel=0, data=[57, 35]),
   midi.NoteOnEvent(tick=30, channel=0, data=[54, 0]),
   midi.NoteOnEvent(tick=30, channel=0, data=[57, 0]),
   midi.NoteOnEvent(tick=0, channel=0, data=[61, 36]),
   midi.NoteOnEvent(tick=60, channel=0, data=[61, 0]),
   midi.NoteOnEvent(tick=0, channel=0, data=[63, 36]),
   midi.NoteOnEvent(tick=60, channel=0, data=[63, 0]),
   midi.NoteOnEvent(tick=0, channel=0, data=[68, 36]),
   midi.NoteOnEvent(tick=60, channel=0, data=[68, 0]),
   midi.NoteOnEvent(tick=0, channel=0, data=[66, 36]),
   midi.NoteOnEvent(tick=60, channel=0, data=[66, 0]),
   midi.NoteOnEvent(tick=0, channel=0, data=[63, 36]),
   midi.NoteOnEvent(tick=60, channel=0, data=[63, 0]),
   midi.NoteOnEvent(tick=0, channel=0, data=[61, 35]),
   midi.NoteOnEvent(tick=60, channel=0, data=[61, 0]),
   midi.NoteOnEvent(tick=0, channel=0, data=[57, 35]),
   midi.NoteOnEvent(tick=60, channel=0, data=[57, 0]),
   midi.NoteOnEvent(tick=0, channel=0, data=[54, 33]),
   midi.NoteOnEvent(tick=60, channel=0, data=[54, 0]),
   midi.NoteOnEvent(tick=0, channel=0, data=[51, 33]),
   midi.NoteOnEvent(tick=60, channel=0, data=[51, 0]),
   midi.NoteOnEvent(tick=0, channel=0, data=[49, 33]),
   midi.NoteOnEvent(tick=60, channel=0, data=[49, 0]),
   midi.NoteOnEvent(tick=0, channel=0, data=[56, 54]),
   midi.NoteOnEvent(tick=60, channel=0, data=[45, 31]),
   midi.NoteOnEvent(tick=30, channel=0, data=[56, 0]),
   midi.NoteOnEvent(tick=30, channel=0, data=[45, 0]),
   midi.NoteOnEvent(tick=0, channel=0, data=[49, 33]),
   midi.NoteOnEvent(tick=60, channel=0, data=[49, 0]),
   midi.NoteOnEvent(tick=0, channel=0, data=[51, 50]),
   midi.NoteOnEvent(tick=60, channel=0, data=[51, 0]),
   midi.NoteOnEvent(tick=0, channel=0, data=[54, 42]),
   midi.NoteOnEvent(tick=60, channel=0, data=[57, 33]),
   midi.NoteOnEvent(tick=30, channel=0, data=[54, 0]),
   midi.NoteOnEvent(tick=30, channel=0, data=[57, 0]),
   midi.NoteOnEvent(tick=0, channel=0, data=[61, 33]),
   midi.NoteOnEvent(tick=60, channel=0, data=[61, 0]),
   midi.NoteOnEvent(tick=0, channel=0, data=[63, 33]),
   midi.NoteOnEvent(tick=60, channel=0, data=[63, 0]),
   midi.NoteOnEvent(tick=0, channel=0, data=[68, 33]),
   midi.NoteOnEvent(tick=60, channel=0, data=[68, 0]),
   midi.NoteOnEvent(tick=0, channel=0, data=[66, 33]),
   midi.NoteOnEvent(tick=60, channel=0, data=[66, 0]),
   midi.NoteOnEvent(tick=0, channel=0, data=[63, 33]),
   midi.NoteOnEvent(tick=60, channel=0, data=[63, 0]),
   midi.NoteOnEvent(tick=0, channel=0, data=[61, 33]),
   midi.NoteOnEvent(tick=60, channel=0, data=[61, 0]),
   midi.NoteOnEvent(tick=0, channel=0, data=[57, 33]),
   midi.NoteOnEvent(tick=60, channel=0, data=[57, 0]),
   midi.NoteOnEvent(tick=0, channel=0, data=[54, 31]),
   midi.NoteOnEvent(tick=60, channel=0, data=[54, 0]),
   midi.NoteOnEvent(tick=0, channel=0, data=[51, 31]),
   midi.NoteOnEvent(tick=60, channel=0, data=[51, 0]),
   midi.NoteOnEvent(tick=0, channel=0, data=[49, 28]),
   midi.NoteOnEvent(tick=60, channel=0, data=[49, 0]),
   midi.NoteOnEvent(tick=0, channel=0, data=[56, 46]),
   midi.NoteOnEvent(tick=60, channel=0, data=[45, 27]),
   midi.NoteOnEvent(tick=30, channel=0, data=[56, 0]),
   midi.NoteOnEvent(tick=30, channel=0, data=[45, 0]),
   midi.NoteOnEvent(tick=0, channel=0, data=[49, 28]),
   midi.NoteOnEvent(tick=60, channel=0, data=[49, 0]),
   midi.NoteOnEvent(tick=0, channel=0, data=[51, 28]),
   midi.NoteOnEvent(tick=60, channel=0, data=[51, 0]),
   midi.NoteOnEvent(tick=0, channel=0, data=[56, 30]),
   midi.NoteOnEvent(tick=60, channel=0, data=[57, 30]),
   midi.NoteOnEvent(tick=30, channel=0, data=[56, 0]),
   midi.NoteOnEvent(tick=30, channel=0, data=[57, 0]),
   midi.NoteOnEvent(tick=0, channel=0, data=[61, 31]),
   midi.NoteOnEvent(tick=60, channel=0, data=[61, 0]),
   midi.NoteOnEvent(tick=0, channel=0, data=[63, 31]),
   midi.NoteOnEvent(tick=60, channel=0, data=[63, 0]),
   midi.NoteOnEvent(tick=0, channel=0, data=[66, 31]),
   midi.NoteOnEvent(tick=60, channel=0, data=[66, 0]),
   midi.NoteOnEvent(tick=0, channel=0, data=[63, 31]),
   midi.NoteOnEvent(tick=60, channel=0, data=[63, 0]),
   midi.NoteOnEvent(tick=0, channel=0, data=[61, 31]),
   midi.NoteOnEvent(tick=60, channel=0, data=[61, 0]),
   midi.NoteOnEvent(tick=0, channel=0, data=[57, 30]),
   midi.NoteOnEvent(tick=60, channel=0, data=[57, 0]),
   midi.NoteOnEvent(tick=0, channel=0, data=[54, 30]),
   midi.NoteOnEvent(tick=60, channel=0, data=[54, 0]),
   midi.NoteOnEvent(tick=0, channel=0, data=[51, 28]),
   midi.NoteOnEvent(tick=60, channel=0, data=[51, 0]),
   midi.NoteOnEvent(tick=0, channel=0, data=[49, 28]),
   midi.NoteOnEvent(tick=60, channel=0, data=[49, 0]),
   midi.NoteOnEvent(tick=0, channel=0, data=[45, 28]),
   midi.NoteOnEvent(tick=60, channel=0, data=[45, 0]),
   midi.NoteOnEvent(tick=0, channel=0, data=[49, 44]),
   midi.NoteOnEvent(tick=60, channel=0, data=[45, 27]),
   midi.NoteOnEvent(tick=30, channel=0, data=[49, 0]),
   midi.NoteOnEvent(tick=30, channel=0, data=[45, 0]),
   midi.NoteOnEvent(tick=0, channel=0, data=[49, 27]),
   midi.NoteOnEvent(tick=60, channel=0, data=[49, 0]),
   midi.NoteOnEvent(tick=0, channel=0, data=[51, 28]),
   midi.NoteOnEvent(tick=60, channel=0, data=[51, 0]),
   midi.NoteOnEvent(tick=0, channel=0, data=[54, 28]),
   midi.NoteOnEvent(tick=60, channel=0, data=[57, 28]),
   midi.NoteOnEvent(tick=30, channel=0, data=[54, 0]),
   midi.NoteOnEvent(tick=30, channel=0, data=[57, 0]),
   midi.NoteOnEvent(tick=0, channel=0, data=[61, 28]),
   midi.NoteOnEvent(tick=60, channel=0, data=[61, 0]),
   midi.NoteOnEvent(tick=0, channel=0, data=[66, 30]),
   midi.NoteOnEvent(tick=60, channel=0, data=[66, 0]),
   midi.NoteOnEvent(tick=0, channel=0, data=[63, 28]),
   midi.NoteOnEvent(tick=60, channel=0, data=[63, 0]),
   midi.NoteOnEvent(tick=0, channel=0, data=[61, 28]),
   midi.NoteOnEvent(tick=60, channel=0, data=[61, 0]),
   midi.NoteOnEvent(tick=0, channel=0, data=[57, 27]),
   midi.NoteOnEvent(tick=60, channel=0, data=[57, 0]),
   midi.NoteOnEvent(tick=0, channel=0, data=[56, 27]),
   midi.NoteOnEvent(tick=60, channel=0, data=[56, 0]),
   midi.NoteOnEvent(tick=0, channel=0, data=[54, 25]),
   midi.NoteOnEvent(tick=60, channel=0, data=[54, 0]),
   midi.NoteOnEvent(tick=0, channel=0, data=[51, 23]),
   midi.NoteOnEvent(tick=60, channel=0, data=[51, 0]),
   midi.NoteOnEvent(tick=0, channel=0, data=[49, 23]),
   midi.NoteOnEvent(tick=60, channel=0, data=[49, 0]),
   midi.NoteOnEvent(tick=0, channel=0, data=[45, 23]),
   midi.NoteOnEvent(tick=30, channel=0, data=[45, 0]),
   midi.NoteOnEvent(tick=30, channel=0, data=[56, 25]),
   midi.NoteOnEvent(tick=60, channel=0, data=[56, 0]),
   midi.NoteOnEvent(tick=0, channel=0, data=[57, 22]),
   midi.NoteOnEvent(tick=60, channel=0, data=[57, 0]),
   midi.NoteOnEvent(tick=0, channel=0, data=[65, 22]),
   midi.NoteOnEvent(tick=60, channel=0, data=[65, 0]),
   midi.NoteOnEvent(tick=0, channel=0, data=[68, 23]),
   midi.NoteOnEvent(tick=60, channel=0, data=[68, 0]),
   midi.NoteOnEvent(tick=0, channel=0, data=[69, 23]),
   midi.NoteOnEvent(tick=60, channel=0, data=[69, 0]),
   midi.NoteOnEvent(tick=0, channel=0, data=[77, 23]),
   midi.NoteOnEvent(tick=60, channel=0, data=[77, 0]),
   midi.NoteOnEvent(tick=0, channel=0, data=[80, 23]),
   midi.NoteOnEvent(tick=60, channel=0, data=[80, 0]),
   midi.NoteOnEvent(tick=0, channel=0, data=[81, 25]),
   midi.NoteOnEvent(tick=60, channel=0, data=[81, 0]),
   midi.NoteOnEvent(tick=0, channel=0, data=[89, 27]),
   midi.NoteOnEvent(tick=0, channel=0, data=[85, 18]),
   midi.NoteOnEvent(tick=60, channel=0, data=[85, 0]),
   midi.NoteOnEvent(tick=0, channel=0, data=[89, 0]),
   midi.NoteOnEvent(tick=0, channel=0, data=[81, 27]),
   midi.NoteOnEvent(tick=60, channel=0, data=[81, 0]),
   midi.NoteOnEvent(tick=0, channel=0, data=[80, 25]),
   midi.NoteOnEvent(tick=60, channel=0, data=[80, 0]),
   midi.NoteOnEvent(tick=0, channel=0, data=[77, 25]),
   midi.NoteOnEvent(tick=60, channel=0, data=[77, 0]),
   midi.NoteOnEvent(tick=0, channel=0, data=[69, 23]),
   midi.NoteOnEvent(tick=60, channel=0, data=[69, 0]),
   midi.NoteOnEvent(tick=0, channel=0, data=[68, 23]),
   midi.NoteOnEvent(tick=60, channel=0, data=[68, 0]),
   midi.NoteOnEvent(tick=0, channel=0, data=[65, 23]),
   midi.NoteOnEvent(tick=60, channel=0, data=[65, 0]),
   midi.NoteOnEvent(tick=0, channel=0, data=[57, 23]),
   midi.NoteOnEvent(tick=60, channel=0, data=[57, 0]),
   midi.NoteOnEvent(tick=0, channel=0, data=[56, 25]),
   midi.NoteOnEvent(tick=60, channel=0, data=[56, 0]),
   midi.NoteOnEvent(tick=0, channel=0, data=[57, 22]),
   midi.NoteOnEvent(tick=60, channel=0, data=[57, 0]),
   midi.NoteOnEvent(tick=0, channel=0, data=[65, 22]),
   midi.NoteOnEvent(tick=60, channel=0, data=[65, 0]),
   midi.NoteOnEvent(tick=0, channel=0, data=[68, 23]),
   midi.NoteOnEvent(tick=60, channel=0, data=[68, 0]),
   midi.NoteOnEvent(tick=0, channel=0, data=[69, 23]),
   midi.NoteOnEvent(tick=60, channel=0, data=[69, 0]),
   midi.NoteOnEvent(tick=0, channel=0, data=[77, 23]),
   midi.NoteOnEvent(tick=60, channel=0, data=[77, 0]),
   midi.NoteOnEvent(tick=0, channel=0, data=[80, 23]),
   midi.NoteOnEvent(tick=60, channel=0, data=[80, 0]),
   midi.NoteOnEvent(tick=0, channel=0, data=[81, 25]),
   midi.NoteOnEvent(tick=60, channel=0, data=[81, 0]),
   midi.NoteOnEvent(tick=0, channel=0, data=[89, 27]),
   midi.NoteOnEvent(tick=0, channel=0, data=[85, 20]),
   midi.NoteOnEvent(tick=60, channel=0, data=[85, 0]),
   midi.NoteOnEvent(tick=0, channel=0, data=[89, 0]),
   midi.NoteOnEvent(tick=0, channel=0, data=[81, 27]),
   midi.NoteOnEvent(tick=60, channel=0, data=[81, 0]),
   midi.NoteOnEvent(tick=0, channel=0, data=[80, 25]),
   midi.NoteOnEvent(tick=60, channel=0, data=[80, 0]),
   midi.NoteOnEvent(tick=0, channel=0, data=[77, 25]),
   midi.NoteOnEvent(tick=60, channel=0, data=[77, 0]),
   midi.NoteOnEvent(tick=0, channel=0, data=[69, 23]),
   midi.NoteOnEvent(tick=60, channel=0, data=[69, 0]),
   midi.NoteOnEvent(tick=0, channel=0, data=[68, 23]),
   midi.NoteOnEvent(tick=60, channel=0, data=[68, 0]),
   midi.NoteOnEvent(tick=0, channel=0, data=[65, 23]),
   midi.NoteOnEvent(tick=60, channel=0, data=[65, 0]),
   midi.NoteOnEvent(tick=0, channel=0, data=[57, 23]),
   midi.NoteOnEvent(tick=60, channel=0, data=[57, 0]),
   midi.NoteOnEvent(tick=0, channel=0, data=[56, 25]),
   midi.NoteOnEvent(tick=60, channel=0, data=[56, 0]),
   midi.NoteOnEvent(tick=0, channel=0, data=[57, 22]),
   midi.NoteOnEvent(tick=60, channel=0, data=[57, 0]),
   midi.NoteOnEvent(tick=0, channel=0, data=[65, 22]),
   midi.NoteOnEvent(tick=60, channel=0, data=[65, 0]),
   midi.NoteOnEvent(tick=0, channel=0, data=[68, 23]),
   midi.NoteOnEvent(tick=60, channel=0, data=[68, 0]),
   midi.NoteOnEvent(tick=0, channel=0, data=[69, 23]),
   midi.NoteOnEvent(tick=60, channel=0, data=[69, 0]),
   midi.NoteOnEvent(tick=0, channel=0, data=[77, 23]),
   midi.NoteOnEvent(tick=60, channel=0, data=[77, 0]),
   midi.NoteOnEvent(tick=0, channel=0, data=[80, 23]),
   midi.NoteOnEvent(tick=60, channel=0, data=[80, 0]),
   midi.NoteOnEvent(tick=0, channel=0, data=[81, 25]),
   midi.NoteOnEvent(tick=60, channel=0, data=[81, 0]),
   midi.NoteOnEvent(tick=0, channel=0, data=[89, 27]),
   midi.NoteOnEvent(tick=0, channel=0, data=[85, 20]),
   midi.NoteOnEvent(tick=60, channel=0, data=[85, 0]),
   midi.NoteOnEvent(tick=0, channel=0, data=[89, 0]),
   midi.NoteOnEvent(tick=0, channel=0, data=[81, 27]),
   midi.NoteOnEvent(tick=60, channel=0, data=[81, 0]),
   midi.NoteOnEvent(tick=0, channel=0, data=[80, 25]),
   midi.NoteOnEvent(tick=60, channel=0, data=[80, 0]),
   midi.NoteOnEvent(tick=0, channel=0, data=[77, 25]),
   midi.NoteOnEvent(tick=60, channel=0, data=[77, 0]),
   midi.NoteOnEvent(tick=0, channel=0, data=[69, 23]),
   midi.NoteOnEvent(tick=60, channel=0, data=[69, 0]),
   midi.NoteOnEvent(tick=0, channel=0, data=[68, 23]),
   midi.NoteOnEvent(tick=60, channel=0, data=[68, 0]),
   midi.NoteOnEvent(tick=0, channel=0, data=[65, 23]),
   midi.NoteOnEvent(tick=60, channel=0, data=[65, 0]),
   midi.NoteOnEvent(tick=0, channel=0, data=[57, 23]),
   midi.NoteOnEvent(tick=60, channel=0, data=[57, 0]),
   midi.NoteOnEvent(tick=0, channel=0, data=[56, 25]),
   midi.NoteOnEvent(tick=60, channel=0, data=[56, 0]),
   midi.NoteOnEvent(tick=0, channel=0, data=[57, 22]),
   midi.NoteOnEvent(tick=60, channel=0, data=[57, 0]),
   midi.NoteOnEvent(tick=0, channel=0, data=[65, 22]),
   midi.NoteOnEvent(tick=60, channel=0, data=[65, 0]),
   midi.NoteOnEvent(tick=0, channel=0, data=[68, 23]),
   midi.NoteOnEvent(tick=60, channel=0, data=[68, 0]),
   midi.NoteOnEvent(tick=0, channel=0, data=[69, 23]),
   midi.NoteOnEvent(tick=60, channel=0, data=[69, 0]),
   midi.NoteOnEvent(tick=0, channel=0, data=[77, 23]),
   midi.NoteOnEvent(tick=60, channel=0, data=[77, 0]),
   midi.NoteOnEvent(tick=0, channel=0, data=[80, 23]),
   midi.NoteOnEvent(tick=60, channel=0, data=[80, 0]),
   midi.NoteOnEvent(tick=0, channel=0, data=[81, 25]),
   midi.NoteOnEvent(tick=60, channel=0, data=[81, 0]),
   midi.NoteOnEvent(tick=0, channel=0, data=[89, 27]),
   midi.NoteOnEvent(tick=0, channel=0, data=[85, 20]),
   midi.NoteOnEvent(tick=60, channel=0, data=[85, 0]),
   midi.NoteOnEvent(tick=0, channel=0, data=[89, 0]),
   midi.NoteOnEvent(tick=0, channel=0, data=[81, 27]),
   midi.NoteOnEvent(tick=60, channel=0, data=[81, 0]),
   midi.NoteOnEvent(tick=0, channel=0, data=[80, 25]),
   midi.NoteOnEvent(tick=60, channel=0, data=[80, 0]),
   midi.NoteOnEvent(tick=0, channel=0, data=[77, 25]),
   midi.NoteOnEvent(tick=60, channel=0, data=[77, 0]),
   midi.NoteOnEvent(tick=0, channel=0, data=[69, 23]),
   midi.NoteOnEvent(tick=60, channel=0, data=[69, 0]),
   midi.NoteOnEvent(tick=0, channel=0, data=[68, 23]),
   midi.NoteOnEvent(tick=60, channel=0, data=[68, 0]),
   midi.NoteOnEvent(tick=0, channel=0, data=[65, 23]),
   midi.NoteOnEvent(tick=60, channel=0, data=[65, 0]),
   midi.NoteOnEvent(tick=0, channel=0, data=[57, 23]),
   midi.NoteOnEvent(tick=60, channel=0, data=[57, 0]),
   midi.NoteOnEvent(tick=0, channel=0, data=[56, 25]),
   midi.NoteOnEvent(tick=60, channel=0, data=[56, 0]),
   midi.NoteOnEvent(tick=0, channel=0, data=[57, 22]),
   midi.NoteOnEvent(tick=60, channel=0, data=[57, 0]),
   midi.NoteOnEvent(tick=0, channel=0, data=[65, 22]),
   midi.NoteOnEvent(tick=60, channel=0, data=[65, 0]),
   midi.NoteOnEvent(tick=0, channel=0, data=[68, 23]),
   midi.NoteOnEvent(tick=60, channel=0, data=[68, 0]),
   midi.NoteOnEvent(tick=0, channel=0, data=[69, 23]),
   midi.NoteOnEvent(tick=60, channel=0, data=[69, 0]),
   midi.NoteOnEvent(tick=0, channel=0, data=[77, 23]),
   midi.NoteOnEvent(tick=60, channel=0, data=[77, 0]),
   midi.NoteOnEvent(tick=0, channel=0, data=[80, 23]),
   midi.NoteOnEvent(tick=60, channel=0, data=[80, 0]),
   midi.NoteOnEvent(tick=0, channel=0, data=[81, 25]),
   midi.NoteOnEvent(tick=60, channel=0, data=[81, 0]),
   midi.NoteOnEvent(tick=0, channel=0, data=[85, 27]),
   midi.NoteOnEvent(tick=0, channel=0, data=[89, 27]),
   midi.NoteOnEvent(tick=240, channel=0, data=[89, 0]),
   midi.NoteOnEvent(tick=0, channel=0, data=[85, 0]),
   midi.EndOfTrackEvent(tick=0, data=[])]),
 midi.Track(\
[    midi.ControlChangeEvent(tick=0, channel=0, data=[7, 100]),
   midi.ControlChangeEvent(tick=0, channel=0, data=[10, 64]),
   midi.ControlChangeEvent(tick=960, channel=0, data=[64, 127]),
   midi.ControlChangeEvent(tick=0, channel=0, data=[91, 127]),
   midi.NoteOnEvent(tick=2880, channel=0, data=[75, 56]),
   midi.ControlChangeEvent(tick=6, channel=0, data=[64, 0]),
   midi.ControlChangeEvent(tick=28, channel=0, data=[64, 127]),
   midi.NoteOnEvent(tick=446, channel=0, data=[71, 46]),
   midi.NoteOnEvent(tick=20, channel=0, data=[75, 0]),
   midi.NoteOnEvent(tick=700, channel=0, data=[71, 0]),
   midi.NoteOnEvent(tick=0, channel=0, data=[68, 46]),
   midi.NoteOnEvent(tick=240, channel=0, data=[71, 53]),
   midi.NoteOnEvent(tick=10, channel=0, data=[68, 0]),
   midi.NoteOnEvent(tick=230, channel=0, data=[73, 56]),
   midi.NoteOnEvent(tick=10, channel=0, data=[71, 0]),
   midi.NoteOnEvent(tick=230, channel=0, data=[75, 56]),
   midi.ControlChangeEvent(tick=5, channel=0, data=[64, 0]),
   midi.NoteOnEvent(tick=5, channel=0, data=[73, 0]),
   midi.ControlChangeEvent(tick=24, channel=0, data=[64, 127]),
   midi.NoteOnEvent(tick=446, channel=0, data=[75, 0]),
   midi.NoteOnEvent(tick=0, channel=0, data=[71, 52]),
   midi.NoteOnEvent(tick=720, channel=0, data=[71, 0]),
   midi.NoteOnEvent(tick=0, channel=0, data=[68, 52]),
   midi.NoteOnEvent(tick=240, channel=0, data=[71, 53]),
   midi.NoteOnEvent(tick=10, channel=0, data=[68, 0]),
   midi.NoteOnEvent(tick=230, channel=0, data=[73, 53]),
   midi.NoteOnEvent(tick=10, channel=0, data=[71, 0]),
   midi.NoteOnEvent(tick=230, channel=0, data=[75, 56]),
   midi.NoteOnEvent(tick=10, channel=0, data=[73, 0]),
   midi.NoteOnEvent(tick=230, channel=0, data=[75, 0]),
   midi.NoteOnEvent(tick=0, channel=0, data=[73, 53]),
   midi.NoteOnEvent(tick=240, channel=0, data=[73, 0]),
   midi.NoteOnEvent(tick=0, channel=0, data=[80, 61]),
   midi.ControlChangeEvent(tick=6, channel=0, data=[64, 0]),
   midi.ControlChangeEvent(tick=28, channel=0, data=[64, 127]),
   midi.NoteOnEvent(tick=206, channel=0, data=[77, 56]),
   midi.NoteOnEvent(tick=10, channel=0, data=[80, 0]),
   midi.NoteOnEvent(tick=230, channel=0, data=[72, 50]),
   midi.NoteOnEvent(tick=10, channel=0, data=[77, 0]),
   midi.NoteOnEvent(tick=470, channel=0, data=[72, 0]),
   midi.NoteOnEvent(tick=0, channel=0, data=[70, 46]),
   midi.NoteOnEvent(tick=240, channel=0, data=[68, 45]),
   midi.NoteOnEvent(tick=10, channel=0, data=[70, 0]),
   midi.NoteOnEvent(tick=230, channel=0, data=[72, 45]),
   midi.NoteOnEvent(tick=10, channel=0, data=[68, 0]),
   midi.NoteOnEvent(tick=1190, channel=0, data=[72, 0]),
   midi.NoteOnEvent(tick=0, channel=0, data=[65, 46]),
   midi.ControlChangeEvent(tick=6, channel=0, data=[64, 0]),
   midi.ControlChangeEvent(tick=28, channel=0, data=[64, 127]),
   midi.NoteOnEvent(tick=206, channel=0, data=[70, 51]),
   midi.NoteOnEvent(tick=10, channel=0, data=[65, 0]),
   midi.NoteOnEvent(tick=230, channel=0, data=[68, 50]),
   midi.NoteOnEvent(tick=10, channel=0, data=[70, 0]),
   midi.NoteOnEvent(tick=230, channel=0, data=[72, 45]),
   midi.NoteOnEvent(tick=10, channel=0, data=[68, 0]),
   midi.NoteOnEvent(tick=470, channel=0, data=[72, 0]),
   midi.NoteOnEvent(tick=0, channel=0, data=[65, 45]),
   midi.NoteOnEvent(tick=480, channel=0, data=[65, 0]),
   midi.NoteOnEvent(tick=0, channel=0, data=[68, 53]),
   midi.NoteOnEvent(tick=240, channel=0, data=[70, 56]),
   midi.NoteOnEvent(tick=10, channel=0, data=[68, 0]),
   midi.NoteOnEvent(tick=230, channel=0, data=[77, 62]),
   midi.NoteOnEvent(tick=10, channel=0, data=[70, 0]),
   midi.NoteOnEvent(tick=1190, channel=0, data=[77, 0]),
   midi.NoteOnEvent(tick=0, channel=0, data=[77, 56]),
   midi.ControlChangeEvent(tick=219, channel=0, data=[64, 0]),
   midi.NoteOnEvent(tick=21, channel=0, data=[77, 0]),
   midi.NoteOnEvent(tick=0, channel=0, data=[77, 56]),
   midi.ControlChangeEvent(tick=40, channel=0, data=[64, 127]),
   midi.NoteOnEvent(tick=440, channel=0, data=[77, 0]),
   midi.NoteOnEvent(tick=0, channel=0, data=[73, 45]),
   midi.NoteOnEvent(tick=720, channel=0, data=[73, 0]),
   midi.NoteOnEvent(tick=0, channel=0, data=[70, 52]),
   midi.NoteOnEvent(tick=240, channel=0, data=[73, 56]),
   midi.NoteOnEvent(tick=10, channel=0, data=[70, 0]),
   midi.NoteOnEvent(tick=230, channel=0, data=[75, 58]),
   midi.NoteOnEvent(tick=10, channel=0, data=[73, 0]),
   midi.NoteOnEvent(tick=230, channel=0, data=[77, 62]),
   midi.NoteOnEvent(tick=10, channel=0, data=[75, 0]),
   midi.NoteOnEvent(tick=470, channel=0, data=[77, 0]),
   midi.NoteOnEvent(tick=0, channel=0, data=[73, 52]),
   midi.NoteOnEvent(tick=720, channel=0, data=[73, 0]),
   midi.NoteOnEvent(tick=0, channel=0, data=[70, 53]),
   midi.ControlChangeEvent(tick=5, channel=0, data=[64, 0]),
   midi.ControlChangeEvent(tick=35, channel=0, data=[64, 127]),
   midi.NoteOnEvent(tick=200, channel=0, data=[73, 57]),
   midi.NoteOnEvent(tick=10, channel=0, data=[70, 0]),
   midi.NoteOnEvent(tick=230, channel=0, data=[75, 56]),
   midi.NoteOnEvent(tick=10, channel=0, data=[73, 0]),
   midi.NoteOnEvent(tick=230, channel=0, data=[85, 67]),
   midi.NoteOnEvent(tick=10, channel=0, data=[75, 0]),
   midi.NoteOnEvent(tick=470, channel=0, data=[85, 0]),
   midi.NoteOnEvent(tick=0, channel=0, data=[78, 67]),
   midi.NoteOnEvent(tick=480, channel=0, data=[78, 0]),
   midi.NoteOnEvent(tick=0, channel=0, data=[81, 61]),
   midi.ControlChangeEvent(tick=9, channel=0, data=[64, 0]),
   midi.ControlChangeEvent(tick=25, channel=0, data=[64, 127]),
   midi.NoteOnEvent(tick=206, channel=0, data=[85, 63]),
   midi.NoteOnEvent(tick=10, channel=0, data=[81, 0]),
   midi.NoteOnEvent(tick=230, channel=0, data=[87, 72]),
   midi.NoteOnEvent(tick=10, channel=0, data=[85, 0]),
   midi.NoteOnEvent(tick=710, channel=0, data=[87, 0]),
   midi.NoteOnEvent(tick=0, channel=0, data=[85, 71]),
   midi.NoteOnEvent(tick=240, channel=0, data=[90, 75]),
   midi.NoteOnEvent(tick=10, channel=0, data=[85, 0]),
   midi.NoteOnEvent(tick=230, channel=0, data=[89, 73]),
   midi.NoteOnEvent(tick=10, channel=0, data=[90, 0]),
   midi.NoteOnEvent(tick=230, channel=0, data=[87, 75]),
   midi.NoteOnEvent(tick=10, channel=0, data=[89, 0]),
   midi.NoteOnEvent(tick=470, channel=0, data=[87, 0]),
   midi.NoteOnEvent(tick=0, channel=0, data=[85, 67]),
   midi.ControlChangeEvent(tick=9, channel=0, data=[64, 0]),
   midi.ControlChangeEvent(tick=34, channel=0, data=[64, 127]),
   midi.NoteOnEvent(tick=197, channel=0, data=[87, 67]),
   midi.NoteOnEvent(tick=10, channel=0, data=[85, 0]),
   midi.NoteOnEvent(tick=230, channel=0, data=[90, 71]),
   midi.NoteOnEvent(tick=10, channel=0, data=[87, 0]),
   midi.NoteOnEvent(tick=230, channel=0, data=[89, 68]),
   midi.NoteOnEvent(tick=10, channel=0, data=[90, 0]),
   midi.NoteOnEvent(tick=230, channel=0, data=[89, 0]),
   midi.NoteOnEvent(tick=0, channel=0, data=[85, 67]),
   midi.NoteOnEvent(tick=480, channel=0, data=[85, 0]),
   midi.NoteOnEvent(tick=0, channel=0, data=[83, 53]),
   midi.NoteOnEvent(tick=240, channel=0, data=[83, 0]),
   midi.NoteOnEvent(tick=0, channel=0, data=[85, 52]),
   midi.NoteOnEvent(tick=180, channel=0, data=[75, 45]),
   midi.ControlChangeEvent(tick=14, channel=0, data=[64, 0]),
   midi.NoteOnEvent(tick=46, channel=0, data=[85, 0]),
   midi.NoteOnEvent(tick=0, channel=0, data=[87, 62]),
   midi.ControlChangeEvent(tick=0, channel=0, data=[64, 127]),
   midi.NoteOnEvent(tick=420, channel=0, data=[71, 40]),
   midi.NoteOnEvent(tick=60, channel=0, data=[87, 0]),
   midi.NoteOnEvent(tick=0, channel=0, data=[75, 0]),
   midi.NoteOnEvent(tick=0, channel=0, data=[83, 56]),
   midi.NoteOnEvent(tick=660, channel=0, data=[68, 45]),
   midi.NoteOnEvent(tick=60, channel=0, data=[83, 0]),
   midi.NoteOnEvent(tick=0, channel=0, data=[71, 0]),
   midi.NoteOnEvent(tick=0, channel=0, data=[80, 56]),
   midi.NoteOnEvent(tick=180, channel=0, data=[71, 51]),
   midi.NoteOnEvent(tick=60, channel=0, data=[80, 0]),
   midi.NoteOnEvent(tick=0, channel=0, data=[68, 0]),
   midi.NoteOnEvent(tick=0, channel=0, data=[83, 61]),
   midi.NoteOnEvent(tick=180, channel=0, data=[73, 53]),
   midi.NoteOnEvent(tick=60, channel=0, data=[83, 0]),
   midi.NoteOnEvent(tick=0, channel=0, data=[71, 0]),
   midi.NoteOnEvent(tick=0, channel=0, data=[85, 62]),
   midi.NoteOnEvent(tick=200, channel=0, data=[75, 46]),
   midi.NoteOnEvent(tick=40, channel=0, data=[85, 0]),
   midi.NoteOnEvent(tick=0, channel=0, data=[73, 0]),
   midi.NoteOnEvent(tick=0, channel=0, data=[87, 67]),
   midi.NoteOnEvent(tick=420, channel=0, data=[71, 40]),
   midi.NoteOnEvent(tick=60, channel=0, data=[87, 0]),
   midi.NoteOnEvent(tick=0, channel=0, data=[75, 0]),
   midi.NoteOnEvent(tick=0, channel=0, data=[83, 61]),
   midi.NoteOnEvent(tick=660, channel=0, data=[68, 51]),
   midi.NoteOnEvent(tick=60, channel=0, data=[83, 0]),
   midi.NoteOnEvent(tick=0, channel=0, data=[71, 0]),
   midi.NoteOnEvent(tick=0, channel=0, data=[80, 61]),
   midi.NoteOnEvent(tick=180, channel=0, data=[71, 45]),
   midi.NoteOnEvent(tick=60, channel=0, data=[68, 0]),
   midi.NoteOnEvent(tick=0, channel=0, data=[83, 61]),
   midi.NoteOnEvent(tick=10, channel=0, data=[80, 0]),
   midi.NoteOnEvent(tick=170, channel=0, data=[73, 45]),
   midi.NoteOnEvent(tick=60, channel=0, data=[83, 0]),
   midi.NoteOnEvent(tick=0, channel=0, data=[71, 0]),
   midi.NoteOnEvent(tick=0, channel=0, data=[85, 61]),
   midi.NoteOnEvent(tick=240, channel=0, data=[85, 0]),
   midi.NoteOnEvent(tick=0, channel=0, data=[73, 0]),
   midi.NoteOnEvent(tick=0, channel=0, data=[61, 31]),
   midi.ControlChangeEvent(tick=7, channel=0, data=[64, 0]),
   midi.ControlChangeEvent(tick=27, channel=0, data=[64, 127]),
   midi.NoteOnEvent(tick=26, channel=0, data=[61, 0]),
   midi.NoteOnEvent(tick=0, channel=0, data=[64, 31]),
   midi.NoteOnEvent(tick=60, channel=0, data=[64, 0]),
   midi.NoteOnEvent(tick=0, channel=0, data=[66, 32]),
   midi.NoteOnEvent(tick=60, channel=0, data=[66, 0]),
   midi.NoteOnEvent(tick=0, channel=0, data=[68, 35]),
   midi.NoteOnEvent(tick=60, channel=0, data=[68, 0]),
   midi.NoteOnEvent(tick=0, channel=0, data=[70, 36]),
   midi.NoteOnEvent(tick=60, channel=0, data=[70, 0]),
   midi.NoteOnEvent(tick=0, channel=0, data=[73, 38]),
   midi.NoteOnEvent(tick=60, channel=0, data=[73, 0]),
   midi.NoteOnEvent(tick=0, channel=0, data=[76, 40]),
   midi.NoteOnEvent(tick=60, channel=0, data=[76, 0]),
   midi.NoteOnEvent(tick=0, channel=0, data=[78, 40]),
   midi.NoteOnEvent(tick=60, channel=0, data=[78, 0]),
   midi.NoteOnEvent(tick=240, channel=0, data=[70, 36]),
   midi.NoteOnEvent(tick=60, channel=0, data=[70, 0]),
   midi.NoteOnEvent(tick=0, channel=0, data=[68, 36]),
   midi.NoteOnEvent(tick=60, channel=0, data=[68, 0]),
   midi.NoteOnEvent(tick=0, channel=0, data=[66, 35]),
   midi.NoteOnEvent(tick=60, channel=0, data=[66, 0]),
   midi.NoteOnEvent(tick=0, channel=0, data=[64, 33]),
   midi.NoteOnEvent(tick=60, channel=0, data=[64, 0]),
   midi.NoteOnEvent(tick=0, channel=0, data=[61, 36]),
   midi.NoteOnEvent(tick=60, channel=0, data=[61, 0]),
   midi.NoteOnEvent(tick=0, channel=0, data=[66, 32]),
   midi.NoteOnEvent(tick=60, channel=0, data=[66, 0]),
   midi.NoteOnEvent(tick=0, channel=0, data=[68, 33]),
   midi.NoteOnEvent(tick=60, channel=0, data=[68, 0]),
   midi.NoteOnEvent(tick=0, channel=0, data=[70, 35]),
   midi.NoteOnEvent(tick=60, channel=0, data=[70, 0]),
   midi.NoteOnEvent(tick=0, channel=0, data=[76, 35]),
   midi.NoteOnEvent(tick=60, channel=0, data=[76, 0]),
   midi.NoteOnEvent(tick=0, channel=0, data=[70, 36]),
   midi.NoteOnEvent(tick=60, channel=0, data=[70, 0]),
   midi.NoteOnEvent(tick=0, channel=0, data=[68, 40]),
   midi.NoteOnEvent(tick=60, channel=0, data=[68, 0]),
   midi.NoteOnEvent(tick=0, channel=0, data=[66, 42]),
   midi.NoteOnEvent(tick=60, channel=0, data=[66, 0]),
   midi.NoteOnEvent(tick=0, channel=0, data=[58, 38]),
   midi.ControlChangeEvent(tick=5, channel=0, data=[64, 0]),
   midi.ControlChangeEvent(tick=29, channel=0, data=[64, 127]),
   midi.NoteOnEvent(tick=2, channel=0, data=[60, 40]),
   midi.NoteOnEvent(tick=34, channel=0, data=[60, 0]),
   midi.NoteOnEvent(tick=0, channel=0, data=[68, 45]),
   midi.NoteOnEvent(tick=34, channel=0, data=[68, 0]),
   midi.NoteOnEvent(tick=136, channel=0, data=[63, 65]),
   midi.NoteOnEvent(tick=0, channel=0, data=[75, 65]),
   midi.NoteOnEvent(tick=240, channel=0, data=[75, 0]),
   midi.NoteOnEvent(tick=0, channel=0, data=[63, 0]),
   midi.NoteOnEvent(tick=240, channel=0, data=[60, 45]),
   midi.NoteOnEvent(tick=40, channel=0, data=[64, 40]),
   midi.NoteOnEvent(tick=40, channel=0, data=[64, 0]),
   midi.NoteOnEvent(tick=0, channel=0, data=[68, 40]),
   midi.NoteOnEvent(tick=40, channel=0, data=[68, 0]),
   midi.NoteOnEvent(tick=0, channel=0, data=[72, 38]),
   midi.NoteOnEvent(tick=40, channel=0, data=[72, 0]),
   midi.NoteOnEvent(tick=0, channel=0, data=[76, 38]),
   midi.NoteOnEvent(tick=40, channel=0, data=[80, 38]),
   midi.NoteOnEvent(tick=40, channel=0, data=[60, 0]),
   midi.NoteOnEvent(tick=0, channel=0, data=[58, 0]),
   midi.NoteOnEvent(tick=0, channel=0, data=[56, 31]),
   midi.ControlChangeEvent(tick=6, channel=0, data=[64, 0]),
   midi.ControlChangeEvent(tick=28, channel=0, data=[64, 127]),
   midi.NoteOnEvent(tick=26, channel=0, data=[56, 0]),
   midi.NoteOnEvent(tick=0, channel=0, data=[58, 31]),
   midi.NoteOnEvent(tick=60, channel=0, data=[58, 0]),
   midi.NoteOnEvent(tick=0, channel=0, data=[61, 36]),
   midi.NoteOnEvent(tick=60, channel=0, data=[61, 0]),
   midi.NoteOnEvent(tick=0, channel=0, data=[64, 36]),
   midi.NoteOnEvent(tick=60, channel=0, data=[64, 0]),
   midi.NoteOnEvent(tick=0, channel=0, data=[76, 0]),
   midi.NoteOnEvent(tick=0, channel=0, data=[80, 0]),
   midi.NoteOnEvent(tick=0, channel=0, data=[68, 36]),
   midi.NoteOnEvent(tick=60, channel=0, data=[68, 0]),
   midi.NoteOnEvent(tick=0, channel=0, data=[70, 37]),
   midi.NoteOnEvent(tick=60, channel=0, data=[70, 0]),
   midi.NoteOnEvent(tick=0, channel=0, data=[73, 43]),
   midi.NoteOnEvent(tick=60, channel=0, data=[73, 0]),
   midi.NoteOnEvent(tick=0, channel=0, data=[76, 43]),
   midi.NoteOnEvent(tick=60, channel=0, data=[76, 0]),
   midi.NoteOnEvent(tick=240, channel=0, data=[68, 40]),
   midi.NoteOnEvent(tick=60, channel=0, data=[68, 0]),
   midi.NoteOnEvent(tick=0, channel=0, data=[64, 40]),
   midi.NoteOnEvent(tick=60, channel=0, data=[64, 0]),
   midi.NoteOnEvent(tick=0, channel=0, data=[61, 40]),
   midi.NoteOnEvent(tick=60, channel=0, data=[61, 0]),
   midi.NoteOnEvent(tick=0, channel=0, data=[58, 38]),
   midi.NoteOnEvent(tick=60, channel=0, data=[58, 0]),
   midi.NoteOnEvent(tick=0, channel=0, data=[56, 36]),
   midi.NoteOnEvent(tick=60, channel=0, data=[56, 0]),
   midi.NoteOnEvent(tick=0, channel=0, data=[58, 36]),
   midi.NoteOnEvent(tick=60, channel=0, data=[58, 0]),
   midi.NoteOnEvent(tick=0, channel=0, data=[61, 38]),
   midi.NoteOnEvent(tick=60, channel=0, data=[61, 0]),
   midi.NoteOnEvent(tick=0, channel=0, data=[64, 40]),
   midi.NoteOnEvent(tick=60, channel=0, data=[64, 0]),
   midi.NoteOnEvent(tick=0, channel=0, data=[71, 40]),
   midi.NoteOnEvent(tick=60, channel=0, data=[71, 0]),
   midi.NoteOnEvent(tick=0, channel=0, data=[68, 42]),
   midi.NoteOnEvent(tick=60, channel=0, data=[68, 0]),
   midi.NoteOnEvent(tick=0, channel=0, data=[64, 42]),
   midi.NoteOnEvent(tick=60, channel=0, data=[64, 0]),
   midi.NoteOnEvent(tick=0, channel=0, data=[61, 43]),
   midi.NoteOnEvent(tick=60, channel=0, data=[61, 0]),
   midi.NoteOnEvent(tick=0, channel=0, data=[52, 40]),
   midi.ControlChangeEvent(tick=6, channel=0, data=[64, 0]),
   midi.NoteOnEvent(tick=30, channel=0, data=[56, 45]),
   midi.ControlChangeEvent(tick=7, channel=0, data=[64, 127]),
   midi.NoteOnEvent(tick=27, channel=0, data=[56, 0]),
   midi.NoteOnEvent(tick=0, channel=0, data=[58, 45]),
   midi.NoteOnEvent(tick=34, channel=0, data=[58, 0]),
   midi.NoteOnEvent(tick=136, channel=0, data=[63, 62]),
   midi.NoteOnEvent(tick=0, channel=0, data=[75, 68]),
   midi.NoteOnEvent(tick=240, channel=0, data=[75, 0]),
   midi.NoteOnEvent(tick=0, channel=0, data=[63, 0]),
   midi.NoteOnEvent(tick=240, channel=0, data=[60, 45]),
   midi.NoteOnEvent(tick=40, channel=0, data=[64, 40]),
   midi.NoteOnEvent(tick=40, channel=0, data=[64, 0]),
   midi.NoteOnEvent(tick=0, channel=0, data=[68, 40]),
   midi.NoteOnEvent(tick=40, channel=0, data=[68, 0]),
   midi.NoteOnEvent(tick=0, channel=0, data=[72, 38]),
   midi.NoteOnEvent(tick=40, channel=0, data=[72, 0]),
   midi.NoteOnEvent(tick=0, channel=0, data=[76, 38]),
   midi.NoteOnEvent(tick=40, channel=0, data=[76, 0]),
   midi.NoteOnEvent(tick=0, channel=0, data=[80, 38]),
   midi.NoteOnEvent(tick=40, channel=0, data=[80, 0]),
   midi.NoteOnEvent(tick=0, channel=0, data=[60, 0]),
   midi.NoteOnEvent(tick=0, channel=0, data=[52, 0]),
   midi.NoteOnEvent(tick=0, channel=0, data=[49, 31]),
   midi.ControlChangeEvent(tick=5, channel=0, data=[64, 0]),
   midi.ControlChangeEvent(tick=32, channel=0, data=[64, 127]),
   midi.NoteOnEvent(tick=23, channel=0, data=[49, 0]),
   midi.NoteOnEvent(tick=0, channel=0, data=[54, 31]),
   midi.NoteOnEvent(tick=60, channel=0, data=[54, 0]),
   midi.NoteOnEvent(tick=0, channel=0, data=[56, 36]),
   midi.NoteOnEvent(tick=60, channel=0, data=[56, 0]),
   midi.NoteOnEvent(tick=0, channel=0, data=[58, 38]),
   midi.NoteOnEvent(tick=60, channel=0, data=[58, 0]),
   midi.NoteOnEvent(tick=0, channel=0, data=[64, 38]),
   midi.NoteOnEvent(tick=60, channel=0, data=[64, 0]),
   midi.NoteOnEvent(tick=0, channel=0, data=[66, 38]),
   midi.NoteOnEvent(tick=60, channel=0, data=[66, 0]),
   midi.NoteOnEvent(tick=0, channel=0, data=[68, 38]),
   midi.NoteOnEvent(tick=60, channel=0, data=[68, 0]),
   midi.NoteOnEvent(tick=0, channel=0, data=[70, 43]),
   midi.NoteOnEvent(tick=60, channel=0, data=[70, 0]),
   midi.NoteOnEvent(tick=0, channel=0, data=[76, 50]),
   midi.NoteOnEvent(tick=240, channel=0, data=[64, 40]),
   midi.NoteOnEvent(tick=60, channel=0, data=[64, 0]),
   midi.NoteOnEvent(tick=0, channel=0, data=[58, 40]),
   midi.NoteOnEvent(tick=60, channel=0, data=[58, 0]),
   midi.NoteOnEvent(tick=0, channel=0, data=[56, 40]),
   midi.NoteOnEvent(tick=60, channel=0, data=[56, 0]),
   midi.NoteOnEvent(tick=0, channel=0, data=[54, 38]),
   midi.NoteOnEvent(tick=60, channel=0, data=[54, 0]),
   midi.NoteOnEvent(tick=0, channel=0, data=[76, 0]),
   midi.NoteOnEvent(tick=0, channel=0, data=[49, 36]),
   midi.NoteOnEvent(tick=48, channel=0, data=[49, 0]),
   midi.NoteOnEvent(tick=0, channel=0, data=[54, 36]),
   midi.NoteOnEvent(tick=48, channel=0, data=[54, 0]),
   midi.NoteOnEvent(tick=0, channel=0, data=[56, 38]),
   midi.NoteOnEvent(tick=48, channel=0, data=[56, 0]),
   midi.NoteOnEvent(tick=0, channel=0, data=[58, 40]),
   midi.NoteOnEvent(tick=48, channel=0, data=[58, 0]),
   midi.NoteOnEvent(tick=0, channel=0, data=[64, 40]),
   midi.NoteOnEvent(tick=48, channel=0, data=[64, 0]),
   midi.NoteOnEvent(tick=0, channel=0, data=[68, 40]),
   midi.NoteOnEvent(tick=48, channel=0, data=[68, 0]),
   midi.NoteOnEvent(tick=0, channel=0, data=[64, 45]),
   midi.NoteOnEvent(tick=48, channel=0, data=[64, 0]),
   midi.NoteOnEvent(tick=0, channel=0, data=[58, 45]),
   midi.NoteOnEvent(tick=48, channel=0, data=[58, 0]),
   midi.NoteOnEvent(tick=0, channel=0, data=[56, 45]),
   midi.NoteOnEvent(tick=48, channel=0, data=[56, 0]),
   midi.NoteOnEvent(tick=0, channel=0, data=[54, 46]),
   midi.NoteOnEvent(tick=48, channel=0, data=[54, 0]),
   midi.NoteOnEvent(tick=0, channel=0, data=[46, 45]),
   midi.ControlChangeEvent(tick=5, channel=0, data=[64, 0]),
   midi.ControlChangeEvent(tick=29, channel=0, data=[64, 127]),
   midi.NoteOnEvent(tick=26, channel=0, data=[46, 0]),
   midi.NoteOnEvent(tick=0, channel=0, data=[52, 45]),
   midi.NoteOnEvent(tick=60, channel=0, data=[52, 0]),
   midi.NoteOnEvent(tick=0, channel=0, data=[56, 45]),
   midi.NoteOnEvent(tick=60, channel=0, data=[56, 0]),
   midi.NoteOnEvent(tick=0, channel=0, data=[60, 45]),
   midi.NoteOnEvent(tick=50, channel=0, data=[60, 0]),
   midi.NoteOnEvent(tick=10, channel=0, data=[60, 40]),
   midi.NoteOnEvent(tick=60, channel=0, data=[60, 0]),
   midi.NoteOnEvent(tick=0, channel=0, data=[64, 40]),
   midi.NoteOnEvent(tick=60, channel=0, data=[64, 0]),
   midi.NoteOnEvent(tick=0, channel=0, data=[68, 40]),
   midi.NoteOnEvent(tick=60, channel=0, data=[68, 0]),
   midi.NoteOnEvent(tick=0, channel=0, data=[72, 40]),
   midi.NoteOnEvent(tick=60, channel=0, data=[72, 0]),
   midi.NoteOnEvent(tick=0, channel=0, data=[75, 40]),
   midi.NoteOnEvent(tick=60, channel=0, data=[75, 0]),
   midi.NoteOnEvent(tick=0, channel=0, data=[80, 40]),
   midi.NoteOnEvent(tick=60, channel=0, data=[80, 0]),
   midi.NoteOnEvent(tick=0, channel=0, data=[75, 40]),
   midi.NoteOnEvent(tick=60, channel=0, data=[75, 0]),
   midi.NoteOnEvent(tick=0, channel=0, data=[70, 45]),
   midi.NoteOnEvent(tick=60, channel=0, data=[70, 0]),
   midi.NoteOnEvent(tick=0, channel=0, data=[72, 45]),
   midi.NoteOnEvent(tick=60, channel=0, data=[72, 0]),
   midi.NoteOnEvent(tick=0, channel=0, data=[68, 45]),
   midi.NoteOnEvent(tick=60, channel=0, data=[68, 0]),
   midi.NoteOnEvent(tick=0, channel=0, data=[64, 40]),
   midi.NoteOnEvent(tick=60, channel=0, data=[64, 0]),
   midi.NoteOnEvent(tick=0, channel=0, data=[60, 40]),
   midi.NoteOnEvent(tick=60, channel=0, data=[60, 0]),
   midi.NoteOnEvent(tick=0, channel=0, data=[63, 36]),
   midi.NoteOnEvent(tick=40, channel=0, data=[63, 0]),
   midi.NoteOnEvent(tick=0, channel=0, data=[61, 36]),
   midi.NoteOnEvent(tick=40, channel=0, data=[61, 0]),
   midi.NoteOnEvent(tick=0, channel=0, data=[58, 36]),
   midi.NoteOnEvent(tick=40, channel=0, data=[58, 0]),
   midi.NoteOnEvent(tick=0, channel=0, data=[56, 36]),
   midi.NoteOnEvent(tick=40, channel=0, data=[56, 0]),
   midi.NoteOnEvent(tick=0, channel=0, data=[61, 36]),
   midi.NoteOnEvent(tick=40, channel=0, data=[61, 0]),
   midi.NoteOnEvent(tick=0, channel=0, data=[58, 36]),
   midi.NoteOnEvent(tick=40, channel=0, data=[58, 0]),
   midi.NoteOnEvent(tick=0, channel=0, data=[56, 35]),
   midi.NoteOnEvent(tick=40, channel=0, data=[56, 0]),
   midi.NoteOnEvent(tick=0, channel=0, data=[52, 35]),
   midi.NoteOnEvent(tick=40, channel=0, data=[52, 0]),
   midi.NoteOnEvent(tick=0, channel=0, data=[56, 35]),
   midi.NoteOnEvent(tick=40, channel=0, data=[56, 0]),
   midi.NoteOnEvent(tick=0, channel=0, data=[52, 35]),
   midi.NoteOnEvent(tick=40, channel=0, data=[52, 0]),
   midi.NoteOnEvent(tick=0, channel=0, data=[49, 35]),
   midi.NoteOnEvent(tick=40, channel=0, data=[49, 0]),
   midi.NoteOnEvent(tick=0, channel=0, data=[46, 35]),
   midi.NoteOnEvent(tick=40, channel=0, data=[46, 0]),
   midi.NoteOnEvent(tick=0, channel=0, data=[32, 27]),
   midi.ControlChangeEvent(tick=4, channel=0, data=[64, 0]),
   midi.ControlChangeEvent(tick=47, channel=0, data=[64, 127]),
   midi.NoteOnEvent(tick=9, channel=0, data=[32, 0]),
   midi.NoteOnEvent(tick=0, channel=0, data=[34, 30]),
   midi.NoteOnEvent(tick=60, channel=0, data=[34, 0]),
   midi.NoteOnEvent(tick=0, channel=0, data=[36, 30]),
   midi.NoteOnEvent(tick=60, channel=0, data=[36, 0]),
   midi.NoteOnEvent(tick=0, channel=0, data=[37, 30]),
   midi.NoteOnEvent(tick=60, channel=0, data=[37, 0]),
   midi.NoteOnEvent(tick=0, channel=0, data=[39, 30]),
   midi.NoteOnEvent(tick=60, channel=0, data=[39, 0]),
   midi.NoteOnEvent(tick=0, channel=0, data=[41, 30]),
   midi.NoteOnEvent(tick=60, channel=0, data=[41, 0]),
   midi.NoteOnEvent(tick=0, channel=0, data=[43, 30]),
   midi.NoteOnEvent(tick=60, channel=0, data=[43, 0]),
   midi.NoteOnEvent(tick=0, channel=0, data=[44, 30]),
   midi.NoteOnEvent(tick=60, channel=0, data=[44, 0]),
   midi.NoteOnEvent(tick=0, channel=0, data=[46, 30]),
   midi.ControlChangeEvent(tick=6, channel=0, data=[64, 0]),
   midi.ControlChangeEvent(tick=22, channel=0, data=[64, 127]),
   midi.NoteOnEvent(tick=32, channel=0, data=[46, 0]),
   midi.NoteOnEvent(tick=0, channel=0, data=[48, 30]),
   midi.NoteOnEvent(tick=60, channel=0, data=[48, 0]),
   midi.NoteOnEvent(tick=0, channel=0, data=[49, 30]),
   midi.NoteOnEvent(tick=60, channel=0, data=[49, 0]),
   midi.NoteOnEvent(tick=0, channel=0, data=[51, 30]),
   midi.NoteOnEvent(tick=60, channel=0, data=[51, 0]),
   midi.NoteOnEvent(tick=0, channel=0, data=[53, 30]),
   midi.NoteOnEvent(tick=60, channel=0, data=[53, 0]),
   midi.NoteOnEvent(tick=0, channel=0, data=[55, 30]),
   midi.NoteOnEvent(tick=60, channel=0, data=[55, 0]),
   midi.NoteOnEvent(tick=0, channel=0, data=[56, 30]),
   midi.NoteOnEvent(tick=60, channel=0, data=[56, 0]),
   midi.NoteOnEvent(tick=0, channel=0, data=[58, 30]),
   midi.NoteOnEvent(tick=60, channel=0, data=[58, 0]),
   midi.NoteOnEvent(tick=0, channel=0, data=[60, 23]),
   midi.ControlChangeEvent(tick=4, channel=0, data=[64, 0]),
   midi.ControlChangeEvent(tick=21, channel=0, data=[64, 127]),
   midi.NoteOnEvent(tick=35, channel=0, data=[60, 0]),
   midi.NoteOnEvent(tick=0, channel=0, data=[61, 23]),
   midi.NoteOnEvent(tick=60, channel=0, data=[61, 0]),
   midi.NoteOnEvent(tick=0, channel=0, data=[63, 23]),
   midi.NoteOnEvent(tick=60, channel=0, data=[63, 0]),
   midi.NoteOnEvent(tick=0, channel=0, data=[65, 22]),
   midi.NoteOnEvent(tick=60, channel=0, data=[65, 0]),
   midi.NoteOnEvent(tick=0, channel=0, data=[67, 22]),
   midi.NoteOnEvent(tick=48, channel=0, data=[67, 0]),
   midi.NoteOnEvent(tick=0, channel=0, data=[68, 22]),
   midi.NoteOnEvent(tick=48, channel=0, data=[68, 0]),
   midi.NoteOnEvent(tick=0, channel=0, data=[70, 22]),
   midi.NoteOnEvent(tick=48, channel=0, data=[70, 0]),
   midi.NoteOnEvent(tick=0, channel=0, data=[72, 22]),
   midi.NoteOnEvent(tick=48, channel=0, data=[72, 0]),
   midi.NoteOnEvent(tick=0, channel=0, data=[73, 22]),
   midi.NoteOnEvent(tick=23, channel=0, data=[63, 30]),
   midi.NoteOnEvent(tick=5, channel=0, data=[68, 22]),
   midi.NoteOnEvent(tick=5, channel=0, data=[70, 22]),
   midi.NoteOnEvent(tick=5, channel=0, data=[73, 22]),
   midi.NoteOnEvent(tick=5, channel=0, data=[77, 22]),
   midi.NoteOnEvent(tick=5, channel=0, data=[73, 0]),
   midi.ControlChangeEvent(tick=4, channel=0, data=[64, 0]),
   midi.ControlChangeEvent(tick=33, channel=0, data=[64, 127]),
   midi.NoteOnEvent(tick=11, channel=0, data=[68, 0]),
   midi.NoteOnEvent(tick=0, channel=0, data=[70, 0]),
   midi.NoteOnEvent(tick=0, channel=0, data=[77, 0]),
   midi.NoteOnEvent(tick=1, channel=0, data=[73, 0]),
   midi.NoteOnEvent(tick=11, channel=0, data=[79, 23]),
   midi.NoteOnEvent(tick=0, channel=0, data=[75, 23]),
   midi.NoteOnEvent(tick=48, channel=0, data=[75, 0]),
   midi.NoteOnEvent(tick=0, channel=0, data=[79, 0]),
   midi.NoteOnEvent(tick=12, channel=0, data=[79, 27]),
   midi.NoteOnEvent(tick=0, channel=0, data=[75, 27]),
   midi.NoteOnEvent(tick=48, channel=0, data=[75, 0]),
   midi.NoteOnEvent(tick=0, channel=0, data=[79, 0]),
   midi.NoteOnEvent(tick=12, channel=0, data=[77, 22]),
   midi.NoteOnEvent(tick=0, channel=0, data=[73, 22]),
   midi.NoteOnEvent(tick=0, channel=0, data=[70, 22]),
   midi.NoteOnEvent(tick=0, channel=0, data=[68, 22]),
   midi.NoteOnEvent(tick=48, channel=0, data=[68, 0]),
   midi.NoteOnEvent(tick=0, channel=0, data=[73, 0]),
   midi.NoteOnEvent(tick=0, channel=0, data=[70, 0]),
   midi.NoteOnEvent(tick=0, channel=0, data=[77, 0]),
   midi.NoteOnEvent(tick=12, channel=0, data=[75, 27]),
   midi.NoteOnEvent(tick=0, channel=0, data=[79, 27]),
   midi.NoteOnEvent(tick=48, channel=0, data=[79, 0]),
   midi.NoteOnEvent(tick=0, channel=0, data=[75, 0]),
   midi.NoteOnEvent(tick=12, channel=0, data=[68, 22]),
   midi.NoteOnEvent(tick=0, channel=0, data=[77, 22]),
   midi.NoteOnEvent(tick=0, channel=0, data=[70, 22]),
   midi.NoteOnEvent(tick=0, channel=0, data=[73, 22]),
   midi.NoteOnEvent(tick=48, channel=0, data=[73, 0]),
   midi.NoteOnEvent(tick=0, channel=0, data=[77, 0]),
   midi.NoteOnEvent(tick=0, channel=0, data=[70, 0]),
   midi.NoteOnEvent(tick=0, channel=0, data=[68, 0]),
   midi.NoteOnEvent(tick=12, channel=0, data=[68, 22]),
   midi.NoteOnEvent(tick=0, channel=0, data=[70, 22]),
   midi.NoteOnEvent(tick=0, channel=0, data=[77, 22]),
   midi.NoteOnEvent(tick=0, channel=0, data=[73, 22]),
   midi.NoteOnEvent(tick=48, channel=0, data=[73, 0]),
   midi.NoteOnEvent(tick=0, channel=0, data=[70, 0]),
   midi.NoteOnEvent(tick=0, channel=0, data=[77, 0]),
   midi.NoteOnEvent(tick=0, channel=0, data=[68, 0]),
   midi.NoteOnEvent(tick=12, channel=0, data=[75, 28]),
   midi.NoteOnEvent(tick=0, channel=0, data=[79, 28]),
   midi.NoteOnEvent(tick=48, channel=0, data=[79, 0]),
   midi.NoteOnEvent(tick=0, channel=0, data=[75, 0]),
   midi.NoteOnEvent(tick=12, channel=0, data=[68, 22]),
   midi.NoteOnEvent(tick=0, channel=0, data=[77, 22]),
   midi.NoteOnEvent(tick=0, channel=0, data=[70, 22]),
   midi.NoteOnEvent(tick=0, channel=0, data=[73, 22]),
   midi.NoteOnEvent(tick=48, channel=0, data=[73, 0]),
   midi.NoteOnEvent(tick=0, channel=0, data=[77, 0]),
   midi.NoteOnEvent(tick=0, channel=0, data=[70, 0]),
   midi.NoteOnEvent(tick=0, channel=0, data=[68, 0]),
   midi.NoteOnEvent(tick=12, channel=0, data=[75, 28]),
   midi.NoteOnEvent(tick=0, channel=0, data=[79, 28]),
   midi.NoteOnEvent(tick=48, channel=0, data=[79, 0]),
   midi.NoteOnEvent(tick=0, channel=0, data=[75, 0]),
   midi.NoteOnEvent(tick=12, channel=0, data=[75, 30]),
   midi.NoteOnEvent(tick=0, channel=0, data=[79, 30]),
   midi.NoteOnEvent(tick=48, channel=0, data=[79, 0]),
   midi.NoteOnEvent(tick=0, channel=0, data=[75, 0]),
   midi.NoteOnEvent(tick=12, channel=0, data=[68, 22]),
   midi.NoteOnEvent(tick=0, channel=0, data=[70, 22]),
   midi.NoteOnEvent(tick=0, channel=0, data=[73, 22]),
   midi.NoteOnEvent(tick=0, channel=0, data=[77, 22]),
   midi.NoteOnEvent(tick=48, channel=0, data=[77, 0]),
   midi.NoteOnEvent(tick=0, channel=0, data=[70, 0]),
   midi.NoteOnEvent(tick=0, channel=0, data=[73, 0]),
   midi.NoteOnEvent(tick=0, channel=0, data=[68, 0]),
   midi.NoteOnEvent(tick=12, channel=0, data=[75, 30]),
   midi.NoteOnEvent(tick=0, channel=0, data=[79, 30]),
   midi.NoteOnEvent(tick=48, channel=0, data=[79, 0]),
   midi.NoteOnEvent(tick=0, channel=0, data=[75, 0]),
   midi.NoteOnEvent(tick=12, channel=0, data=[68, 22]),
   midi.NoteOnEvent(tick=0, channel=0, data=[70, 22]),
   midi.NoteOnEvent(tick=0, channel=0, data=[73, 22]),
   midi.NoteOnEvent(tick=0, channel=0, data=[77, 22]),
   midi.NoteOnEvent(tick=48, channel=0, data=[77, 0]),
   midi.NoteOnEvent(tick=0, channel=0, data=[70, 0]),
   midi.NoteOnEvent(tick=0, channel=0, data=[73, 0]),
   midi.NoteOnEvent(tick=0, channel=0, data=[68, 0]),
   midi.NoteOnEvent(tick=12, channel=0, data=[77, 22]),
   midi.NoteOnEvent(tick=0, channel=0, data=[73, 22]),
   midi.NoteOnEvent(tick=0, channel=0, data=[70, 22]),
   midi.NoteOnEvent(tick=0, channel=0, data=[68, 22]),
   midi.NoteOnEvent(tick=48, channel=0, data=[68, 0]),
   midi.NoteOnEvent(tick=0, channel=0, data=[73, 0]),
   midi.NoteOnEvent(tick=0, channel=0, data=[70, 0]),
   midi.NoteOnEvent(tick=0, channel=0, data=[77, 0]),
   midi.NoteOnEvent(tick=12, channel=0, data=[75, 31]),
   midi.NoteOnEvent(tick=0, channel=0, data=[79, 31]),
   midi.NoteOnEvent(tick=48, channel=0, data=[79, 0]),
   midi.NoteOnEvent(tick=0, channel=0, data=[75, 0]),
   midi.NoteOnEvent(tick=12, channel=0, data=[67, 23]),
   midi.NoteOnEvent(tick=0, channel=0, data=[69, 23]),
   midi.NoteOnEvent(tick=0, channel=0, data=[76, 23]),
   midi.ControlChangeEvent(tick=8, channel=0, data=[64, 0]),
   midi.ControlChangeEvent(tick=20, channel=0, data=[64, 127]),
   midi.NoteOnEvent(tick=20, channel=0, data=[76, 0]),
   midi.NoteOnEvent(tick=0, channel=0, data=[69, 0]),
   midi.NoteOnEvent(tick=0, channel=0, data=[67, 0]),
   midi.NoteOnEvent(tick=12, channel=0, data=[73, 31]),
   midi.NoteOnEvent(tick=0, channel=0, data=[78, 31]),
   midi.NoteOnEvent(tick=48, channel=0, data=[78, 0]),
   midi.NoteOnEvent(tick=0, channel=0, data=[73, 0]),
   midi.NoteOnEvent(tick=12, channel=0, data=[73, 31]),
   midi.NoteOnEvent(tick=0, channel=0, data=[78, 31]),
   midi.NoteOnEvent(tick=48, channel=0, data=[78, 0]),
   midi.NoteOnEvent(tick=0, channel=0, data=[73, 0]),
   midi.NoteOnEvent(tick=12, channel=0, data=[67, 23]),
   midi.NoteOnEvent(tick=0, channel=0, data=[69, 23]),
   midi.NoteOnEvent(tick=0, channel=0, data=[76, 23]),
   midi.NoteOnEvent(tick=48, channel=0, data=[76, 0]),
   midi.NoteOnEvent(tick=0, channel=0, data=[69, 0]),
   midi.NoteOnEvent(tick=0, channel=0, data=[67, 0]),
   midi.NoteOnEvent(tick=12, channel=0, data=[81, 31]),
   midi.NoteOnEvent(tick=0, channel=0, data=[76, 31]),
   midi.NoteOnEvent(tick=48, channel=0, data=[76, 0]),
   midi.NoteOnEvent(tick=0, channel=0, data=[81, 0]),
   midi.NoteOnEvent(tick=12, channel=0, data=[70, 22]),
   midi.NoteOnEvent(tick=0, channel=0, data=[72, 22]),
   midi.NoteOnEvent(tick=0, channel=0, data=[79, 22]),
   midi.NoteOnEvent(tick=48, channel=0, data=[79, 0]),
   midi.NoteOnEvent(tick=0, channel=0, data=[72, 0]),
   midi.NoteOnEvent(tick=0, channel=0, data=[70, 0]),
   midi.NoteOnEvent(tick=12, channel=0, data=[70, 22]),
   midi.NoteOnEvent(tick=0, channel=0, data=[72, 22]),
   midi.NoteOnEvent(tick=0, channel=0, data=[79, 22]),
   midi.NoteOnEvent(tick=48, channel=0, data=[79, 0]),
   midi.NoteOnEvent(tick=0, channel=0, data=[72, 0]),
   midi.NoteOnEvent(tick=0, channel=0, data=[70, 0]),
   midi.NoteOnEvent(tick=12, channel=0, data=[81, 23]),
   midi.NoteOnEvent(tick=0, channel=0, data=[76, 23]),
   midi.NoteOnEvent(tick=35, channel=0, data=[63, 31]),
   midi.NoteOnEvent(tick=5, channel=0, data=[68, 22]),
   midi.NoteOnEvent(tick=5, channel=0, data=[70, 22]),
   midi.NoteOnEvent(tick=3, channel=0, data=[76, 0]),
   midi.NoteOnEvent(tick=0, channel=0, data=[81, 0]),
   midi.NoteOnEvent(tick=2, channel=0, data=[73, 22]),
   midi.NoteOnEvent(tick=5, channel=0, data=[77, 22]),
   midi.NoteOnEvent(tick=5, channel=0, data=[63, 0]),
   midi.ControlChangeEvent(tick=7, channel=0, data=[64, 0]),
   midi.ControlChangeEvent(tick=29, channel=0, data=[64, 127]),
   midi.NoteOnEvent(tick=12, channel=0, data=[70, 0]),
   midi.NoteOnEvent(tick=0, channel=0, data=[68, 0]),
   midi.NoteOnEvent(tick=0, channel=0, data=[73, 0]),
   midi.NoteOnEvent(tick=0, channel=0, data=[77, 0]),
   midi.NoteOnEvent(tick=12, channel=0, data=[79, 23]),
   midi.NoteOnEvent(tick=0, channel=0, data=[75, 23]),
   midi.NoteOnEvent(tick=48, channel=0, data=[75, 0]),
   midi.NoteOnEvent(tick=0, channel=0, data=[79, 0]),
   midi.NoteOnEvent(tick=12, channel=0, data=[75, 23]),
   midi.NoteOnEvent(tick=0, channel=0, data=[79, 23]),
   midi.NoteOnEvent(tick=48, channel=0, data=[79, 0]),
   midi.NoteOnEvent(tick=0, channel=0, data=[75, 0]),
   midi.NoteOnEvent(tick=12, channel=0, data=[73, 22]),
   midi.NoteOnEvent(tick=0, channel=0, data=[77, 22]),
   midi.NoteOnEvent(tick=0, channel=0, data=[70, 22]),
   midi.NoteOnEvent(tick=0, channel=0, data=[68, 22]),
   midi.NoteOnEvent(tick=48, channel=0, data=[68, 0]),
   midi.NoteOnEvent(tick=0, channel=0, data=[77, 0]),
   midi.NoteOnEvent(tick=0, channel=0, data=[70, 0]),
   midi.NoteOnEvent(tick=0, channel=0, data=[73, 0]),
   midi.NoteOnEvent(tick=12, channel=0, data=[79, 23]),
   midi.NoteOnEvent(tick=0, channel=0, data=[75, 23]),
   midi.NoteOnEvent(tick=48, channel=0, data=[75, 0]),
   midi.NoteOnEvent(tick=0, channel=0, data=[79, 0]),
   midi.NoteOnEvent(tick=12, channel=0, data=[68, 22]),
   midi.NoteOnEvent(tick=0, channel=0, data=[73, 22]),
   midi.NoteOnEvent(tick=0, channel=0, data=[70, 22]),
   midi.NoteOnEvent(tick=0, channel=0, data=[77, 22]),
   midi.NoteOnEvent(tick=48, channel=0, data=[77, 0]),
   midi.NoteOnEvent(tick=0, channel=0, data=[73, 0]),
   midi.NoteOnEvent(tick=0, channel=0, data=[70, 0]),
   midi.NoteOnEvent(tick=0, channel=0, data=[68, 0]),
   midi.NoteOnEvent(tick=12, channel=0, data=[70, 22]),
   midi.NoteOnEvent(tick=0, channel=0, data=[68, 22]),
   midi.NoteOnEvent(tick=0, channel=0, data=[77, 22]),
   midi.NoteOnEvent(tick=0, channel=0, data=[73, 22]),
   midi.NoteOnEvent(tick=48, channel=0, data=[73, 0]),
   midi.NoteOnEvent(tick=0, channel=0, data=[68, 0]),
   midi.NoteOnEvent(tick=0, channel=0, data=[77, 0]),
   midi.NoteOnEvent(tick=0, channel=0, data=[70, 0]),
   midi.NoteOnEvent(tick=12, channel=0, data=[79, 27]),
   midi.NoteOnEvent(tick=0, channel=0, data=[75, 27]),
   midi.NoteOnEvent(tick=48, channel=0, data=[75, 0]),
   midi.NoteOnEvent(tick=0, channel=0, data=[79, 0]),
   midi.NoteOnEvent(tick=12, channel=0, data=[68, 22]),
   midi.NoteOnEvent(tick=0, channel=0, data=[73, 22]),
   midi.NoteOnEvent(tick=0, channel=0, data=[70, 22]),
   midi.NoteOnEvent(tick=0, channel=0, data=[77, 22]),
   midi.NoteOnEvent(tick=48, channel=0, data=[77, 0]),
   midi.NoteOnEvent(tick=0, channel=0, data=[73, 0]),
   midi.NoteOnEvent(tick=0, channel=0, data=[70, 0]),
   midi.NoteOnEvent(tick=0, channel=0, data=[68, 0]),
   midi.NoteOnEvent(tick=12, channel=0, data=[79, 27]),
   midi.NoteOnEvent(tick=0, channel=0, data=[75, 27]),
   midi.NoteOnEvent(tick=48, channel=0, data=[75, 0]),
   midi.NoteOnEvent(tick=0, channel=0, data=[79, 0]),
   midi.NoteOnEvent(tick=12, channel=0, data=[75, 28]),
   midi.NoteOnEvent(tick=0, channel=0, data=[79, 28]),
   midi.NoteOnEvent(tick=48, channel=0, data=[79, 0]),
   midi.NoteOnEvent(tick=0, channel=0, data=[75, 0]),
   midi.NoteOnEvent(tick=12, channel=0, data=[70, 22]),
   midi.NoteOnEvent(tick=0, channel=0, data=[73, 22]),
   midi.NoteOnEvent(tick=0, channel=0, data=[77, 22]),
   midi.NoteOnEvent(tick=0, channel=0, data=[68, 22]),
   midi.NoteOnEvent(tick=48, channel=0, data=[68, 0]),
   midi.NoteOnEvent(tick=0, channel=0, data=[73, 0]),
   midi.NoteOnEvent(tick=0, channel=0, data=[77, 0]),
   midi.NoteOnEvent(tick=0, channel=0, data=[70, 0]),
   midi.NoteOnEvent(tick=12, channel=0, data=[75, 28]),
   midi.NoteOnEvent(tick=0, channel=0, data=[79, 28]),
   midi.NoteOnEvent(tick=48, channel=0, data=[79, 0]),
   midi.NoteOnEvent(tick=0, channel=0, data=[75, 0]),
   midi.NoteOnEvent(tick=12, channel=0, data=[77, 22]),
   midi.NoteOnEvent(tick=0, channel=0, data=[68, 22]),
   midi.NoteOnEvent(tick=0, channel=0, data=[70, 22]),
   midi.NoteOnEvent(tick=0, channel=0, data=[73, 22]),
   midi.NoteOnEvent(tick=48, channel=0, data=[73, 0]),
   midi.NoteOnEvent(tick=0, channel=0, data=[68, 0]),
   midi.NoteOnEvent(tick=0, channel=0, data=[70, 0]),
   midi.NoteOnEvent(tick=0, channel=0, data=[77, 0]),
   midi.NoteOnEvent(tick=12, channel=0, data=[70, 22]),
   midi.NoteOnEvent(tick=0, channel=0, data=[77, 22]),
   midi.NoteOnEvent(tick=0, channel=0, data=[73, 22]),
   midi.NoteOnEvent(tick=0, channel=0, data=[68, 22]),
   midi.NoteOnEvent(tick=48, channel=0, data=[68, 0]),
   midi.NoteOnEvent(tick=0, channel=0, data=[77, 0]),
   midi.NoteOnEvent(tick=0, channel=0, data=[73, 0]),
   midi.NoteOnEvent(tick=0, channel=0, data=[70, 0]),
   midi.NoteOnEvent(tick=12, channel=0, data=[79, 30]),
   midi.NoteOnEvent(tick=0, channel=0, data=[75, 30]),
   midi.NoteOnEvent(tick=48, channel=0, data=[75, 0]),
   midi.NoteOnEvent(tick=0, channel=0, data=[79, 0]),
   midi.NoteOnEvent(tick=12, channel=0, data=[76, 22]),
   midi.NoteOnEvent(tick=0, channel=0, data=[67, 22]),
   midi.NoteOnEvent(tick=0, channel=0, data=[69, 22]),
   midi.NoteOnEvent(tick=48, channel=0, data=[69, 0]),
   midi.NoteOnEvent(tick=0, channel=0, data=[67, 0]),
   midi.NoteOnEvent(tick=0, channel=0, data=[76, 0]),
   midi.NoteOnEvent(tick=12, channel=0, data=[73, 30]),
   midi.NoteOnEvent(tick=0, channel=0, data=[78, 30]),
   midi.NoteOnEvent(tick=48, channel=0, data=[78, 0]),
   midi.NoteOnEvent(tick=0, channel=0, data=[73, 0]),
   midi.NoteOnEvent(tick=12, channel=0, data=[73, 31]),
   midi.NoteOnEvent(tick=0, channel=0, data=[78, 31]),
   midi.NoteOnEvent(tick=48, channel=0, data=[78, 0]),
   midi.NoteOnEvent(tick=0, channel=0, data=[73, 0]),
   midi.NoteOnEvent(tick=12, channel=0, data=[69, 22]),
   midi.NoteOnEvent(tick=0, channel=0, data=[67, 22]),
   midi.NoteOnEvent(tick=0, channel=0, data=[76, 22]),
   midi.NoteOnEvent(tick=48, channel=0, data=[76, 0]),
   midi.NoteOnEvent(tick=0, channel=0, data=[67, 0]),
   midi.NoteOnEvent(tick=0, channel=0, data=[69, 0]),
   midi.NoteOnEvent(tick=12, channel=0, data=[76, 31]),
   midi.NoteOnEvent(tick=0, channel=0, data=[82, 31]),
   midi.NoteOnEvent(tick=48, channel=0, data=[82, 0]),
   midi.NoteOnEvent(tick=0, channel=0, data=[76, 0]),
   midi.NoteOnEvent(tick=12, channel=0, data=[79, 22]),
   midi.NoteOnEvent(tick=0, channel=0, data=[70, 22]),
   midi.NoteOnEvent(tick=0, channel=0, data=[73, 22]),
   midi.NoteOnEvent(tick=48, channel=0, data=[73, 0]),
   midi.NoteOnEvent(tick=0, channel=0, data=[70, 0]),
   midi.NoteOnEvent(tick=0, channel=0, data=[79, 0]),
   midi.NoteOnEvent(tick=12, channel=0, data=[79, 22]),
   midi.NoteOnEvent(tick=0, channel=0, data=[70, 22]),
   midi.NoteOnEvent(tick=0, channel=0, data=[73, 22]),
   midi.NoteOnEvent(tick=48, channel=0, data=[73, 0]),
   midi.NoteOnEvent(tick=0, channel=0, data=[70, 0]),
   midi.NoteOnEvent(tick=0, channel=0, data=[79, 0]),
   midi.NoteOnEvent(tick=12, channel=0, data=[82, 23]),
   midi.NoteOnEvent(tick=0, channel=0, data=[76, 23]),
   midi.NoteOnEvent(tick=35, channel=0, data=[63, 31]),
   midi.NoteOnEvent(tick=5, channel=0, data=[68, 22]),
   midi.NoteOnEvent(tick=5, channel=0, data=[70, 22]),
   midi.NoteOnEvent(tick=3, channel=0, data=[76, 0]),
   midi.NoteOnEvent(tick=0, channel=0, data=[82, 0]),
   midi.NoteOnEvent(tick=2, channel=0, data=[73, 22]),
   midi.NoteOnEvent(tick=5, channel=0, data=[77, 22]),
   midi.NoteOnEvent(tick=5, channel=0, data=[63, 0]),
   midi.ControlChangeEvent(tick=6, channel=0, data=[64, 0]),
   midi.ControlChangeEvent(tick=40, channel=0, data=[64, 127]),
   midi.NoteOnEvent(tick=2, channel=0, data=[70, 0]),
   midi.NoteOnEvent(tick=0, channel=0, data=[68, 0]),
   midi.NoteOnEvent(tick=0, channel=0, data=[73, 0]),
   midi.NoteOnEvent(tick=0, channel=0, data=[77, 0]),
   midi.NoteOnEvent(tick=12, channel=0, data=[79, 23]),
   midi.NoteOnEvent(tick=0, channel=0, data=[75, 23]),
   midi.NoteOnEvent(tick=48, channel=0, data=[75, 0]),
   midi.NoteOnEvent(tick=0, channel=0, data=[79, 0]),
   midi.NoteOnEvent(tick=12, channel=0, data=[79, 23]),
   midi.NoteOnEvent(tick=0, channel=0, data=[75, 23]),
   midi.NoteOnEvent(tick=48, channel=0, data=[75, 0]),
   midi.NoteOnEvent(tick=0, channel=0, data=[79, 0]),
   midi.NoteOnEvent(tick=12, channel=0, data=[77, 22]),
   midi.NoteOnEvent(tick=0, channel=0, data=[73, 22]),
   midi.NoteOnEvent(tick=0, channel=0, data=[70, 22]),
   midi.NoteOnEvent(tick=0, channel=0, data=[68, 22]),
   midi.NoteOnEvent(tick=48, channel=0, data=[68, 0]),
   midi.NoteOnEvent(tick=0, channel=0, data=[73, 0]),
   midi.NoteOnEvent(tick=0, channel=0, data=[70, 0]),
   midi.NoteOnEvent(tick=0, channel=0, data=[77, 0]),
   midi.NoteOnEvent(tick=12, channel=0, data=[75, 23]),
   midi.NoteOnEvent(tick=0, channel=0, data=[79, 23]),
   midi.NoteOnEvent(tick=48, channel=0, data=[79, 0]),
   midi.NoteOnEvent(tick=0, channel=0, data=[75, 0]),
   midi.NoteOnEvent(tick=12, channel=0, data=[68, 22]),
   midi.NoteOnEvent(tick=0, channel=0, data=[77, 22]),
   midi.NoteOnEvent(tick=0, channel=0, data=[70, 22]),
   midi.NoteOnEvent(tick=0, channel=0, data=[73, 22]),
   midi.NoteOnEvent(tick=48, channel=0, data=[73, 0]),
   midi.NoteOnEvent(tick=0, channel=0, data=[77, 0]),
   midi.NoteOnEvent(tick=0, channel=0, data=[70, 0]),
   midi.NoteOnEvent(tick=0, channel=0, data=[68, 0]),
   midi.NoteOnEvent(tick=12, channel=0, data=[68, 22]),
   midi.NoteOnEvent(tick=0, channel=0, data=[70, 22]),
   midi.NoteOnEvent(tick=0, channel=0, data=[77, 22]),
   midi.NoteOnEvent(tick=0, channel=0, data=[73, 22]),
   midi.NoteOnEvent(tick=48, channel=0, data=[73, 0]),
   midi.NoteOnEvent(tick=0, channel=0, data=[70, 0]),
   midi.NoteOnEvent(tick=0, channel=0, data=[77, 0]),
   midi.NoteOnEvent(tick=0, channel=0, data=[68, 0]),
   midi.NoteOnEvent(tick=12, channel=0, data=[75, 27]),
   midi.NoteOnEvent(tick=0, channel=0, data=[79, 27]),
   midi.NoteOnEvent(tick=48, channel=0, data=[79, 0]),
   midi.NoteOnEvent(tick=0, channel=0, data=[75, 0]),
   midi.NoteOnEvent(tick=12, channel=0, data=[68, 22]),
   midi.NoteOnEvent(tick=0, channel=0, data=[77, 22]),
   midi.NoteOnEvent(tick=0, channel=0, data=[70, 22]),
   midi.NoteOnEvent(tick=0, channel=0, data=[73, 22]),
   midi.NoteOnEvent(tick=48, channel=0, data=[73, 0]),
   midi.NoteOnEvent(tick=0, channel=0, data=[77, 0]),
   midi.NoteOnEvent(tick=0, channel=0, data=[70, 0]),
   midi.NoteOnEvent(tick=0, channel=0, data=[68, 0]),
   midi.NoteOnEvent(tick=12, channel=0, data=[75, 27]),
   midi.NoteOnEvent(tick=0, channel=0, data=[79, 27]),
   midi.NoteOnEvent(tick=48, channel=0, data=[79, 0]),
   midi.NoteOnEvent(tick=0, channel=0, data=[75, 0]),
   midi.NoteOnEvent(tick=12, channel=0, data=[75, 28]),
   midi.NoteOnEvent(tick=0, channel=0, data=[79, 28]),
   midi.NoteOnEvent(tick=48, channel=0, data=[79, 0]),
   midi.NoteOnEvent(tick=0, channel=0, data=[75, 0]),
   midi.NoteOnEvent(tick=12, channel=0, data=[68, 22]),
   midi.NoteOnEvent(tick=0, channel=0, data=[73, 22]),
   midi.NoteOnEvent(tick=0, channel=0, data=[77, 22]),
   midi.NoteOnEvent(tick=48, channel=0, data=[77, 0]),
   midi.NoteOnEvent(tick=0, channel=0, data=[73, 0]),
   midi.NoteOnEvent(tick=0, channel=0, data=[68, 0]),
   midi.NoteOnEvent(tick=12, channel=0, data=[75, 28]),
   midi.NoteOnEvent(tick=0, channel=0, data=[79, 28]),
   midi.NoteOnEvent(tick=48, channel=0, data=[79, 0]),
   midi.NoteOnEvent(tick=0, channel=0, data=[75, 0]),
   midi.NoteOnEvent(tick=12, channel=0, data=[68, 22]),
   midi.NoteOnEvent(tick=0, channel=0, data=[77, 22]),
   midi.NoteOnEvent(tick=48, channel=0, data=[77, 0]),
   midi.NoteOnEvent(tick=0, channel=0, data=[68, 0]),
   midi.NoteOnEvent(tick=12, channel=0, data=[77, 22]),
   midi.NoteOnEvent(tick=0, channel=0, data=[68, 22]),
   midi.NoteOnEvent(tick=48, channel=0, data=[68, 0]),
   midi.NoteOnEvent(tick=0, channel=0, data=[77, 0]),
   midi.NoteOnEvent(tick=12, channel=0, data=[75, 28]),
   midi.NoteOnEvent(tick=0, channel=0, data=[79, 28]),
   midi.NoteOnEvent(tick=48, channel=0, data=[79, 0]),
   midi.NoteOnEvent(tick=0, channel=0, data=[75, 0]),
   midi.NoteOnEvent(tick=12, channel=0, data=[73, 22]),
   midi.NoteOnEvent(tick=0, channel=0, data=[70, 22]),
   midi.NoteOnEvent(tick=0, channel=0, data=[68, 22]),
   midi.NoteOnEvent(tick=0, channel=0, data=[77, 22]),
   midi.NoteOnEvent(tick=48, channel=0, data=[77, 0]),
   midi.NoteOnEvent(tick=0, channel=0, data=[70, 0]),
   midi.NoteOnEvent(tick=0, channel=0, data=[68, 0]),
   midi.NoteOnEvent(tick=0, channel=0, data=[73, 0]),
   midi.NoteOnEvent(tick=12, channel=0, data=[75, 30]),
   midi.NoteOnEvent(tick=0, channel=0, data=[79, 30]),
   midi.NoteOnEvent(tick=48, channel=0, data=[79, 0]),
   midi.NoteOnEvent(tick=0, channel=0, data=[75, 0]),
   midi.NoteOnEvent(tick=12, channel=0, data=[75, 30]),
   midi.NoteOnEvent(tick=0, channel=0, data=[79, 30]),
   midi.NoteOnEvent(tick=48, channel=0, data=[79, 0]),
   midi.NoteOnEvent(tick=0, channel=0, data=[75, 0]),
   midi.NoteOnEvent(tick=12, channel=0, data=[68, 22]),
   midi.NoteOnEvent(tick=0, channel=0, data=[70, 22]),
   midi.NoteOnEvent(tick=48, channel=0, data=[70, 0]),
   midi.NoteOnEvent(tick=0, channel=0, data=[68, 0]),
   midi.NoteOnEvent(tick=12, channel=0, data=[79, 30]),
   midi.NoteOnEvent(tick=0, channel=0, data=[73, 30]),
   midi.NoteOnEvent(tick=48, channel=0, data=[73, 0]),
   midi.NoteOnEvent(tick=0, channel=0, data=[79, 0]),
   midi.NoteOnEvent(tick=12, channel=0, data=[68, 22]),
   midi.NoteOnEvent(tick=0, channel=0, data=[70, 22]),
   midi.NoteOnEvent(tick=48, channel=0, data=[70, 0]),
   midi.NoteOnEvent(tick=0, channel=0, data=[68, 0]),
   midi.NoteOnEvent(tick=12, channel=0, data=[68, 22]),
   midi.NoteOnEvent(tick=0, channel=0, data=[70, 22]),
   midi.NoteOnEvent(tick=48, channel=0, data=[70, 0]),
   midi.NoteOnEvent(tick=0, channel=0, data=[68, 0]),
   midi.NoteOnEvent(tick=12, channel=0, data=[79, 31]),
   midi.NoteOnEvent(tick=0, channel=0, data=[73, 31]),
   midi.NoteOnEvent(tick=48, channel=0, data=[73, 0]),
   midi.NoteOnEvent(tick=0, channel=0, data=[79, 0]),
   midi.NoteOnEvent(tick=12, channel=0, data=[63, 0]),
   midi.NoteOnEvent(tick=0, channel=0, data=[60, 35]),
   midi.ControlChangeEvent(tick=6, channel=0, data=[64, 0]),
   midi.ControlChangeEvent(tick=43, channel=0, data=[64, 127]),
   midi.NoteOnEvent(tick=11, channel=0, data=[60, 0]),
   midi.NoteOnEvent(tick=0, channel=0, data=[63, 38]),
   midi.NoteOnEvent(tick=60, channel=0, data=[63, 0]),
   midi.NoteOnEvent(tick=0, channel=0, data=[66, 38]),
   midi.NoteOnEvent(tick=60, channel=0, data=[66, 0]),
   midi.NoteOnEvent(tick=0, channel=0, data=[70, 38]),
   midi.NoteOnEvent(tick=60, channel=0, data=[70, 0]),
   midi.NoteOnEvent(tick=0, channel=0, data=[72, 38]),
   midi.NoteOnEvent(tick=60, channel=0, data=[72, 0]),
   midi.NoteOnEvent(tick=0, channel=0, data=[75, 38]),
   midi.NoteOnEvent(tick=60, channel=0, data=[75, 0]),
   midi.NoteOnEvent(tick=0, channel=0, data=[78, 38]),
   midi.NoteOnEvent(tick=60, channel=0, data=[78, 0]),
   midi.NoteOnEvent(tick=0, channel=0, data=[82, 38]),
   midi.NoteOnEvent(tick=60, channel=0, data=[82, 0]),
   midi.NoteOnEvent(tick=0, channel=0, data=[84, 36]),
   midi.ControlChangeEvent(tick=9, channel=0, data=[64, 0]),
   midi.ControlChangeEvent(tick=31, channel=0, data=[64, 127]),
   midi.NoteOnEvent(tick=28, channel=0, data=[84, 0]),
   midi.NoteOnEvent(tick=0, channel=0, data=[82, 36]),
   midi.NoteOnEvent(tick=68, channel=0, data=[82, 0]),
   midi.NoteOnEvent(tick=0, channel=0, data=[78, 36]),
   midi.NoteOnEvent(tick=68, channel=0, data=[78, 0]),
   midi.NoteOnEvent(tick=0, channel=0, data=[75, 36]),
   midi.NoteOnEvent(tick=68, channel=0, data=[75, 0]),
   midi.NoteOnEvent(tick=0, channel=0, data=[72, 36]),
   midi.NoteOnEvent(tick=68, channel=0, data=[72, 0]),
   midi.NoteOnEvent(tick=0, channel=0, data=[70, 36]),
   midi.NoteOnEvent(tick=68, channel=0, data=[70, 0]),
   midi.NoteOnEvent(tick=0, channel=0, data=[66, 36]),
   midi.NoteOnEvent(tick=72, channel=0, data=[66, 0]),
   midi.NoteOnEvent(tick=0, channel=0, data=[63, 38]),
   midi.ControlChangeEvent(tick=10, channel=0, data=[64, 0]),
   midi.ControlChangeEvent(tick=30, channel=0, data=[64, 127]),
   midi.NoteOnEvent(tick=40, channel=0, data=[63, 0]),
   midi.NoteOnEvent(tick=0, channel=0, data=[60, 31]),
   midi.NoteOnEvent(tick=80, channel=0, data=[60, 0]),
   midi.NoteOnEvent(tick=0, channel=0, data=[58, 31]),
   midi.NoteOnEvent(tick=80, channel=0, data=[58, 0]),
   midi.NoteOnEvent(tick=0, channel=0, data=[54, 31]),
   midi.NoteOnEvent(tick=80, channel=0, data=[54, 0]),
   midi.NoteOnEvent(tick=0, channel=0, data=[51, 30]),
   midi.NoteOnEvent(tick=80, channel=0, data=[51, 0]),
   midi.NoteOnEvent(tick=0, channel=0, data=[48, 30]),
   midi.NoteOnEvent(tick=50, channel=0, data=[41, 30]),
   midi.NoteOnEvent(tick=15, channel=0, data=[48, 28]),
   midi.NoteOnEvent(tick=15, channel=0, data=[48, 0]),
   midi.NoteOnEvent(tick=0, channel=0, data=[67, 36]),
   midi.NoteOnEvent(tick=0, channel=0, data=[63, 36]),
   midi.NoteOnEvent(tick=0, channel=0, data=[57, 36]),
   midi.ControlChangeEvent(tick=9, channel=0, data=[64, 0]),
   midi.ControlChangeEvent(tick=24, channel=0, data=[64, 127]),
   midi.NoteOnEvent(tick=15, channel=0, data=[63, 0]),
   midi.NoteOnEvent(tick=0, channel=0, data=[67, 0]),
   midi.NoteOnEvent(tick=12, channel=0, data=[75, 31]),
   midi.NoteOnEvent(tick=0, channel=0, data=[69, 31]),
   midi.NoteOnEvent(tick=48, channel=0, data=[69, 0]),
   midi.NoteOnEvent(tick=0, channel=0, data=[75, 0]),
   midi.NoteOnEvent(tick=12, channel=0, data=[75, 31]),
   midi.NoteOnEvent(tick=0, channel=0, data=[69, 31]),
   midi.NoteOnEvent(tick=48, channel=0, data=[69, 0]),
   midi.NoteOnEvent(tick=0, channel=0, data=[75, 0]),
   midi.NoteOnEvent(tick=12, channel=0, data=[67, 28]),
   midi.NoteOnEvent(tick=0, channel=0, data=[63, 28]),
   midi.NoteOnEvent(tick=0, channel=0, data=[57, 28]),
   midi.NoteOnEvent(tick=48, channel=0, data=[57, 0]),
   midi.NoteOnEvent(tick=0, channel=0, data=[67, 0]),
   midi.NoteOnEvent(tick=0, channel=0, data=[63, 0]),
   midi.NoteOnEvent(tick=12, channel=0, data=[69, 31]),
   midi.NoteOnEvent(tick=0, channel=0, data=[75, 31]),
   midi.NoteOnEvent(tick=48, channel=0, data=[75, 0]),
   midi.NoteOnEvent(tick=0, channel=0, data=[69, 0]),
   midi.NoteOnEvent(tick=12, channel=0, data=[57, 28]),
   midi.NoteOnEvent(tick=0, channel=0, data=[63, 28]),
   midi.NoteOnEvent(tick=0, channel=0, data=[67, 28]),
   midi.NoteOnEvent(tick=48, channel=0, data=[67, 0]),
   midi.NoteOnEvent(tick=0, channel=0, data=[57, 0]),
   midi.NoteOnEvent(tick=0, channel=0, data=[63, 0]),
   midi.NoteOnEvent(tick=12, channel=0, data=[57, 28]),
   midi.NoteOnEvent(tick=0, channel=0, data=[63, 28]),
   midi.NoteOnEvent(tick=0, channel=0, data=[67, 28]),
   midi.NoteOnEvent(tick=48, channel=0, data=[67, 0]),
   midi.NoteOnEvent(tick=0, channel=0, data=[57, 0]),
   midi.NoteOnEvent(tick=0, channel=0, data=[63, 0]),
   midi.NoteOnEvent(tick=12, channel=0, data=[69, 35]),
   midi.NoteOnEvent(tick=0, channel=0, data=[75, 35]),
   midi.NoteOnEvent(tick=48, channel=0, data=[75, 0]),
   midi.NoteOnEvent(tick=0, channel=0, data=[69, 0]),
   midi.NoteOnEvent(tick=12, channel=0, data=[57, 28]),
   midi.NoteOnEvent(tick=0, channel=0, data=[63, 28]),
   midi.NoteOnEvent(tick=0, channel=0, data=[67, 28]),
   midi.NoteOnEvent(tick=48, channel=0, data=[67, 0]),
   midi.NoteOnEvent(tick=0, channel=0, data=[57, 0]),
   midi.NoteOnEvent(tick=0, channel=0, data=[63, 0]),
   midi.NoteOnEvent(tick=12, channel=0, data=[69, 35]),
   midi.NoteOnEvent(tick=0, channel=0, data=[75, 35]),
   midi.NoteOnEvent(tick=48, channel=0, data=[75, 0]),
   midi.NoteOnEvent(tick=0, channel=0, data=[69, 0]),
   midi.NoteOnEvent(tick=12, channel=0, data=[69, 36]),
   midi.NoteOnEvent(tick=0, channel=0, data=[75, 36]),
   midi.NoteOnEvent(tick=48, channel=0, data=[75, 0]),
   midi.NoteOnEvent(tick=0, channel=0, data=[69, 0]),
   midi.NoteOnEvent(tick=12, channel=0, data=[57, 30]),
   midi.NoteOnEvent(tick=0, channel=0, data=[63, 30]),
   midi.NoteOnEvent(tick=0, channel=0, data=[67, 30]),
   midi.NoteOnEvent(tick=48, channel=0, data=[67, 0]),
   midi.NoteOnEvent(tick=0, channel=0, data=[57, 0]),
   midi.NoteOnEvent(tick=0, channel=0, data=[63, 0]),
   midi.NoteOnEvent(tick=12, channel=0, data=[75, 31]),
   midi.NoteOnEvent(tick=0, channel=0, data=[69, 31]),
   midi.NoteOnEvent(tick=48, channel=0, data=[69, 0]),
   midi.NoteOnEvent(tick=0, channel=0, data=[75, 0]),
   midi.NoteOnEvent(tick=12, channel=0, data=[63, 28]),
   midi.NoteOnEvent(tick=0, channel=0, data=[57, 28]),
   midi.NoteOnEvent(tick=0, channel=0, data=[67, 28]),
   midi.NoteOnEvent(tick=48, channel=0, data=[67, 0]),
   midi.NoteOnEvent(tick=0, channel=0, data=[63, 0]),
   midi.NoteOnEvent(tick=0, channel=0, data=[57, 0]),
   midi.NoteOnEvent(tick=12, channel=0, data=[67, 28]),
   midi.NoteOnEvent(tick=0, channel=0, data=[57, 28]),
   midi.NoteOnEvent(tick=0, channel=0, data=[63, 28]),
   midi.NoteOnEvent(tick=48, channel=0, data=[63, 0]),
   midi.NoteOnEvent(tick=0, channel=0, data=[67, 0]),
   midi.NoteOnEvent(tick=0, channel=0, data=[57, 0]),
   midi.NoteOnEvent(tick=12, channel=0, data=[75, 35]),
   midi.NoteOnEvent(tick=0, channel=0, data=[69, 35]),
   midi.NoteOnEvent(tick=48, channel=0, data=[69, 0]),
   midi.NoteOnEvent(tick=0, channel=0, data=[75, 0]),
   midi.NoteOnEvent(tick=12, channel=0, data=[63, 28]),
   midi.NoteOnEvent(tick=0, channel=0, data=[67, 28]),
   midi.NoteOnEvent(tick=0, channel=0, data=[57, 28]),
   midi.NoteOnEvent(tick=48, channel=0, data=[57, 0]),
   midi.NoteOnEvent(tick=0, channel=0, data=[63, 0]),
   midi.NoteOnEvent(tick=0, channel=0, data=[67, 0]),
   midi.NoteOnEvent(tick=12, channel=0, data=[69, 35]),
   midi.NoteOnEvent(tick=0, channel=0, data=[75, 35]),
   midi.NoteOnEvent(tick=48, channel=0, data=[75, 0]),
   midi.NoteOnEvent(tick=0, channel=0, data=[69, 0]),
   midi.NoteOnEvent(tick=12, channel=0, data=[69, 36]),
   midi.NoteOnEvent(tick=0, channel=0, data=[75, 36]),
   midi.NoteOnEvent(tick=48, channel=0, data=[75, 0]),
   midi.NoteOnEvent(tick=0, channel=0, data=[69, 0]),
   midi.NoteOnEvent(tick=12, channel=0, data=[57, 30]),
   midi.NoteOnEvent(tick=0, channel=0, data=[63, 30]),
   midi.NoteOnEvent(tick=0, channel=0, data=[67, 30]),
   midi.NoteOnEvent(tick=48, channel=0, data=[67, 0]),
   midi.NoteOnEvent(tick=0, channel=0, data=[57, 0]),
   midi.NoteOnEvent(tick=0, channel=0, data=[63, 0]),
   midi.NoteOnEvent(tick=12, channel=0, data=[69, 36]),
   midi.NoteOnEvent(tick=0, channel=0, data=[75, 36]),
   midi.NoteOnEvent(tick=48, channel=0, data=[75, 0]),
   midi.NoteOnEvent(tick=0, channel=0, data=[69, 0]),
   midi.NoteOnEvent(tick=12, channel=0, data=[67, 30]),
   midi.NoteOnEvent(tick=0, channel=0, data=[57, 30]),
   midi.NoteOnEvent(tick=0, channel=0, data=[63, 30]),
   midi.NoteOnEvent(tick=48, channel=0, data=[63, 0]),
   midi.NoteOnEvent(tick=0, channel=0, data=[67, 0]),
   midi.NoteOnEvent(tick=0, channel=0, data=[57, 0]),
   midi.NoteOnEvent(tick=12, channel=0, data=[67, 30]),
   midi.NoteOnEvent(tick=0, channel=0, data=[63, 30]),
   midi.NoteOnEvent(tick=0, channel=0, data=[57, 30]),
   midi.NoteOnEvent(tick=48, channel=0, data=[57, 0]),
   midi.NoteOnEvent(tick=0, channel=0, data=[67, 0]),
   midi.NoteOnEvent(tick=0, channel=0, data=[63, 0]),
   midi.NoteOnEvent(tick=12, channel=0, data=[69, 36]),
   midi.NoteOnEvent(tick=0, channel=0, data=[75, 36]),
   midi.NoteOnEvent(tick=48, channel=0, data=[75, 0]),
   midi.NoteOnEvent(tick=0, channel=0, data=[69, 0]),
   midi.NoteOnEvent(tick=12, channel=0, data=[48, 0]),
   midi.NoteOnEvent(tick=0, channel=0, data=[57, 0]),
   midi.NoteOnEvent(tick=0, channel=0, data=[41, 0]),
   midi.NoteOnEvent(tick=0, channel=0, data=[75, 30]),
   midi.NoteOnEvent(tick=0, channel=0, data=[69, 30]),
   midi.NoteOnEvent(tick=48, channel=0, data=[69, 0]),
   midi.NoteOnEvent(tick=0, channel=0, data=[75, 0]),
   midi.NoteOnEvent(tick=12, channel=0, data=[67, 38]),
   midi.NoteOnEvent(tick=0, channel=0, data=[63, 38]),
   midi.NoteOnEvent(tick=0, channel=0, data=[57, 38]),
   midi.NoteOnEvent(tick=48, channel=0, data=[57, 0]),
   midi.NoteOnEvent(tick=0, channel=0, data=[63, 0]),
   midi.NoteOnEvent(tick=0, channel=0, data=[67, 0]),
   midi.NoteOnEvent(tick=12, channel=0, data=[67, 38]),
   midi.NoteOnEvent(tick=0, channel=0, data=[63, 38]),
   midi.NoteOnEvent(tick=0, channel=0, data=[57, 38]),
   midi.NoteOnEvent(tick=48, channel=0, data=[57, 0]),
   midi.NoteOnEvent(tick=0, channel=0, data=[63, 0]),
   midi.NoteOnEvent(tick=0, channel=0, data=[67, 0]),
   midi.NoteOnEvent(tick=12, channel=0, data=[75, 30]),
   midi.NoteOnEvent(tick=0, channel=0, data=[69, 30]),
   midi.NoteOnEvent(tick=48, channel=0, data=[69, 0]),
   midi.NoteOnEvent(tick=0, channel=0, data=[75, 0]),
   midi.NoteOnEvent(tick=12, channel=0, data=[69, 38]),
   midi.NoteOnEvent(tick=0, channel=0, data=[75, 38]),
   midi.NoteOnEvent(tick=0, channel=0, data=[78, 38]),
   midi.NoteOnEvent(tick=48, channel=0, data=[78, 0]),
   midi.NoteOnEvent(tick=0, channel=0, data=[75, 0]),
   midi.NoteOnEvent(tick=0, channel=0, data=[69, 0]),
   midi.NoteOnEvent(tick=12, channel=0, data=[66, 30]),
   midi.NoteOnEvent(tick=0, channel=0, data=[63, 30]),
   midi.NoteOnEvent(tick=0, channel=0, data=[57, 30]),
   midi.NoteOnEvent(tick=48, channel=0, data=[57, 0]),
   midi.NoteOnEvent(tick=0, channel=0, data=[63, 0]),
   midi.NoteOnEvent(tick=0, channel=0, data=[66, 0]),
   midi.NoteOnEvent(tick=12, channel=0, data=[66, 30]),
   midi.NoteOnEvent(tick=0, channel=0, data=[63, 30]),
   midi.NoteOnEvent(tick=0, channel=0, data=[57, 30]),
   midi.NoteOnEvent(tick=48, channel=0, data=[57, 0]),
   midi.NoteOnEvent(tick=0, channel=0, data=[63, 0]),
   midi.NoteOnEvent(tick=0, channel=0, data=[66, 0]),
   midi.NoteOnEvent(tick=12, channel=0, data=[78, 40]),
   midi.NoteOnEvent(tick=0, channel=0, data=[69, 40]),
   midi.NoteOnEvent(tick=0, channel=0, data=[75, 40]),
   midi.NoteOnEvent(tick=48, channel=0, data=[75, 0]),
   midi.NoteOnEvent(tick=0, channel=0, data=[69, 0]),
   midi.NoteOnEvent(tick=0, channel=0, data=[78, 0]),
   midi.NoteOnEvent(tick=12, channel=0, data=[46, 27]),
   midi.ControlChangeEvent(tick=6, channel=0, data=[64, 0]),
   midi.ControlChangeEvent(tick=25, channel=0, data=[64, 127]),
   midi.NoteOnEvent(tick=3, channel=0, data=[46, 0]),
   midi.NoteOnEvent(tick=0, channel=0, data=[52, 28]),
   midi.NoteOnEvent(tick=34, channel=0, data=[52, 0]),
   midi.NoteOnEvent(tick=0, channel=0, data=[56, 30]),
   midi.NoteOnEvent(tick=34, channel=0, data=[56, 0]),
   midi.NoteOnEvent(tick=0, channel=0, data=[60, 31]),
   midi.NoteOnEvent(tick=34, channel=0, data=[60, 0]),
   midi.NoteOnEvent(tick=0, channel=0, data=[64, 33]),
   midi.NoteOnEvent(tick=34, channel=0, data=[64, 0]),
   midi.NoteOnEvent(tick=0, channel=0, data=[68, 33]),
   midi.NoteOnEvent(tick=34, channel=0, data=[68, 0]),
   midi.NoteOnEvent(tick=0, channel=0, data=[72, 36]),
   midi.NoteOnEvent(tick=34, channel=0, data=[72, 0]),
   midi.NoteOnEvent(tick=2, channel=0, data=[76, 38]),
   midi.ControlChangeEvent(tick=6, channel=0, data=[64, 0]),
   midi.ControlChangeEvent(tick=25, channel=0, data=[64, 127]),
   midi.NoteOnEvent(tick=5, channel=0, data=[76, 0]),
   midi.NoteOnEvent(tick=1, channel=0, data=[72, 36]),
   midi.NoteOnEvent(tick=36, channel=0, data=[72, 0]),
   midi.NoteOnEvent(tick=1, channel=0, data=[68, 36]),
   midi.NoteOnEvent(tick=36, channel=0, data=[68, 0]),
   midi.NoteOnEvent(tick=1, channel=0, data=[64, 36]),
   midi.NoteOnEvent(tick=36, channel=0, data=[64, 0]),
   midi.NoteOnEvent(tick=1, channel=0, data=[64, 35]),
   midi.NoteOnEvent(tick=36, channel=0, data=[64, 0]),
   midi.NoteOnEvent(tick=1, channel=0, data=[60, 35]),
   midi.NoteOnEvent(tick=36, channel=0, data=[60, 0]),
   midi.NoteOnEvent(tick=1, channel=0, data=[56, 35]),
   midi.NoteOnEvent(tick=36, channel=0, data=[56, 0]),
   midi.NoteOnEvent(tick=1, channel=0, data=[52, 35]),
   midi.NoteOnEvent(tick=36, channel=0, data=[52, 0]),
   midi.NoteOnEvent(tick=1, channel=0, data=[56, 36]),
   midi.NoteOnEvent(tick=36, channel=0, data=[56, 0]),
   midi.NoteOnEvent(tick=1, channel=0, data=[60, 35]),
   midi.NoteOnEvent(tick=36, channel=0, data=[60, 0]),
   midi.NoteOnEvent(tick=1, channel=0, data=[64, 36]),
   midi.NoteOnEvent(tick=36, channel=0, data=[64, 0]),
   midi.NoteOnEvent(tick=1, channel=0, data=[68, 38]),
   midi.NoteOnEvent(tick=36, channel=0, data=[68, 0]),
   midi.NoteOnEvent(tick=1, channel=0, data=[72, 38]),
   midi.NoteOnEvent(tick=34, channel=0, data=[72, 0]),
   midi.NoteOnEvent(tick=2, channel=0, data=[76, 38]),
   midi.ControlChangeEvent(tick=10, channel=0, data=[64, 0]),
   midi.ControlChangeEvent(tick=18, channel=0, data=[64, 127]),
   midi.NoteOnEvent(tick=2, channel=0, data=[76, 0]),
   midi.NoteOnEvent(tick=0, channel=0, data=[72, 38]),
   midi.NoteOnEvent(tick=30, channel=0, data=[72, 0]),
   midi.NoteOnEvent(tick=0, channel=0, data=[68, 36]),
   midi.NoteOnEvent(tick=30, channel=0, data=[68, 0]),
   midi.NoteOnEvent(tick=0, channel=0, data=[64, 36]),
   midi.NoteOnEvent(tick=30, channel=0, data=[64, 0]),
   midi.NoteOnEvent(tick=0, channel=0, data=[64, 36]),
   midi.NoteOnEvent(tick=30, channel=0, data=[64, 0]),
   midi.NoteOnEvent(tick=0, channel=0, data=[60, 35]),
   midi.NoteOnEvent(tick=30, channel=0, data=[60, 0]),
   midi.NoteOnEvent(tick=0, channel=0, data=[56, 35]),
   midi.NoteOnEvent(tick=30, channel=0, data=[56, 0]),
   midi.NoteOnEvent(tick=0, channel=0, data=[52, 35]),
   midi.NoteOnEvent(tick=30, channel=0, data=[52, 0]),
   midi.NoteOnEvent(tick=0, channel=0, data=[47, 31]),
   midi.ControlChangeEvent(tick=8, channel=0, data=[64, 0]),
   midi.ControlChangeEvent(tick=21, channel=0, data=[64, 127]),
   midi.NoteOnEvent(tick=31, channel=0, data=[47, 0]),
   midi.NoteOnEvent(tick=0, channel=0, data=[54, 35]),
   midi.NoteOnEvent(tick=60, channel=0, data=[54, 0]),
   midi.NoteOnEvent(tick=0, channel=0, data=[57, 36]),
   midi.NoteOnEvent(tick=60, channel=0, data=[57, 0]),
   midi.NoteOnEvent(tick=0, channel=0, data=[61, 40]),
   midi.NoteOnEvent(tick=60, channel=0, data=[61, 0]),
   midi.NoteOnEvent(tick=360, channel=0, data=[47, 30]),
   midi.ControlChangeEvent(tick=4, channel=0, data=[64, 0]),
   midi.ControlChangeEvent(tick=23, channel=0, data=[64, 127]),
   midi.NoteOnEvent(tick=33, channel=0, data=[47, 0]),
   midi.NoteOnEvent(tick=0, channel=0, data=[42, 30]),
   midi.NoteOnEvent(tick=60, channel=0, data=[42, 0]),
   midi.NoteOnEvent(tick=0, channel=0, data=[35, 31]),
   midi.NoteOnEvent(tick=60, channel=0, data=[35, 0]),
   midi.NoteOnEvent(tick=0, channel=0, data=[47, 35]),
   midi.NoteOnEvent(tick=60, channel=0, data=[47, 0]),
   midi.NoteOnEvent(tick=0, channel=0, data=[51, 36]),
   midi.NoteOnEvent(tick=60, channel=0, data=[51, 0]),
   midi.NoteOnEvent(tick=0, channel=0, data=[57, 36]),
   midi.NoteOnEvent(tick=60, channel=0, data=[57, 0]),
   midi.NoteOnEvent(tick=0, channel=0, data=[60, 38]),
   midi.NoteOnEvent(tick=240, channel=0, data=[60, 0]),
   midi.NoteOnEvent(tick=240, channel=0, data=[44, 35]),
   midi.ControlChangeEvent(tick=0, channel=0, data=[91, 127]),
   midi.ControlChangeEvent(tick=6, channel=0, data=[64, 0]),
   midi.ControlChangeEvent(tick=30, channel=0, data=[64, 127]),
   midi.NoteOnEvent(tick=12, channel=0, data=[44, 0]),
   midi.NoteOnEvent(tick=12, channel=0, data=[51, 35]),
   midi.NoteOnEvent(tick=48, channel=0, data=[51, 0]),
   midi.NoteOnEvent(tick=12, channel=0, data=[56, 35]),
   midi.NoteOnEvent(tick=60, channel=0, data=[60, 35]),
   midi.NoteOnEvent(tick=1020, channel=0, data=[60, 0]),
   midi.NoteOnEvent(tick=0, channel=0, data=[56, 0]),
   midi.NoteOnEvent(tick=1680, channel=0, data=[70, 56]),
   midi.ControlChangeEvent(tick=7, channel=0, data=[64, 0]),
   midi.ControlChangeEvent(tick=34, channel=0, data=[64, 127]),
   midi.NoteOnEvent(tick=199, channel=0, data=[68, 56]),
   midi.NoteOnEvent(tick=10, channel=0, data=[70, 0]),
   midi.NoteOnEvent(tick=230, channel=0, data=[66, 56]),
   midi.NoteOnEvent(tick=10, channel=0, data=[68, 0]),
   midi.NoteOnEvent(tick=230, channel=0, data=[64, 56]),
   midi.NoteOnEvent(tick=10, channel=0, data=[66, 0]),
   midi.NoteOnEvent(tick=230, channel=0, data=[70, 61]),
   midi.NoteOnEvent(tick=10, channel=0, data=[64, 0]),
   midi.NoteOnEvent(tick=470, channel=0, data=[70, 0]),
   midi.NoteOnEvent(tick=0, channel=0, data=[68, 53]),
   midi.NoteOnEvent(tick=240, channel=0, data=[63, 52]),
   midi.NoteOnEvent(tick=10, channel=0, data=[68, 0]),
   midi.NoteOnEvent(tick=220, channel=0, data=[63, 0]),
   midi.NoteOnEvent(tick=10, channel=0, data=[63, 56]),
   midi.NoteOnEvent(tick=710, channel=0, data=[63, 0]),
   midi.NoteOnEvent(tick=10, channel=0, data=[61, 61]),
   midi.ControlChangeEvent(tick=7, channel=0, data=[64, 0]),
   midi.ControlChangeEvent(tick=36, channel=0, data=[64, 127]),
   midi.NoteOnEvent(tick=197, channel=0, data=[66, 61]),
   midi.NoteOnEvent(tick=10, channel=0, data=[61, 0]),
   midi.NoteOnEvent(tick=230, channel=0, data=[65, 52]),
   midi.NoteOnEvent(tick=10, channel=0, data=[66, 0]),
   midi.NoteOnEvent(tick=230, channel=0, data=[63, 45]),
   midi.NoteOnEvent(tick=10, channel=0, data=[65, 0]),
   midi.NoteOnEvent(tick=470, channel=0, data=[63, 0]),
   midi.NoteOnEvent(tick=0, channel=0, data=[61, 45]),
   midi.ControlChangeEvent(tick=8, channel=0, data=[64, 0]),
   midi.ControlChangeEvent(tick=32, channel=0, data=[64, 127]),
   midi.NoteOnEvent(tick=200, channel=0, data=[63, 46]),
   midi.NoteOnEvent(tick=10, channel=0, data=[61, 0]),
   midi.NoteOnEvent(tick=230, channel=0, data=[66, 52]),
   midi.NoteOnEvent(tick=10, channel=0, data=[63, 0]),
   midi.NoteOnEvent(tick=230, channel=0, data=[65, 45]),
   midi.NoteOnEvent(tick=10, channel=0, data=[66, 0]),
   midi.NoteOnEvent(tick=230, channel=0, data=[61, 45]),
   midi.ControlChangeEvent(tick=6, channel=0, data=[64, 0]),
   midi.NoteOnEvent(tick=4, channel=0, data=[65, 0]),
   midi.ControlChangeEvent(tick=39, channel=0, data=[64, 127]),
   midi.NoteOnEvent(tick=671, channel=0, data=[61, 0]),
   midi.NoteOnEvent(tick=0, channel=0, data=[59, 45]),
   midi.NoteOnEvent(tick=240, channel=0, data=[59, 0]),
   midi.NoteOnEvent(tick=0, channel=0, data=[63, 45]),
   midi.ControlChangeEvent(tick=5, channel=0, data=[64, 0]),
   midi.ControlChangeEvent(tick=28, channel=0, data=[64, 127]),
   midi.NoteOnEvent(tick=447, channel=0, data=[63, 0]),
   midi.NoteOnEvent(tick=480, channel=0, data=[82, 61]),
   midi.NoteOnEvent(tick=0, channel=0, data=[70, 56]),
   midi.ControlChangeEvent(tick=4, channel=0, data=[64, 0]),
   midi.ControlChangeEvent(tick=36, channel=0, data=[64, 127]),
   midi.NoteOnEvent(tick=200, channel=0, data=[80, 52]),
   midi.NoteOnEvent(tick=0, channel=0, data=[68, 46]),
   midi.NoteOnEvent(tick=10, channel=0, data=[70, 0]),
   midi.NoteOnEvent(tick=0, channel=0, data=[82, 0]),
   midi.NoteOnEvent(tick=230, channel=0, data=[78, 61]),
   midi.NoteOnEvent(tick=0, channel=0, data=[66, 56]),
   midi.NoteOnEvent(tick=10, channel=0, data=[80, 0]),
   midi.NoteOnEvent(tick=0, channel=0, data=[68, 0]),
   midi.NoteOnEvent(tick=230, channel=0, data=[76, 62]),
   midi.NoteOnEvent(tick=10, channel=0, data=[78, 0]),
   midi.NoteOnEvent(tick=0, channel=0, data=[66, 0]),
   midi.ControlChangeEvent(tick=225, channel=0, data=[64, 0]),
   midi.NoteOnEvent(tick=5, channel=0, data=[76, 0]),
   midi.NoteOnEvent(tick=0, channel=0, data=[44, 25]),
   midi.ControlChangeEvent(tick=34, channel=0, data=[64, 127]),
   midi.NoteOnEvent(tick=26, channel=0, data=[44, 0]),
   midi.NoteOnEvent(tick=0, channel=0, data=[51, 27]),
   midi.NoteOnEvent(tick=60, channel=0, data=[51, 0]),
   midi.NoteOnEvent(tick=0, channel=0, data=[56, 28]),
   midi.NoteOnEvent(tick=60, channel=0, data=[56, 0]),
   midi.NoteOnEvent(tick=0, channel=0, data=[60, 30]),
   midi.NoteOnEvent(tick=60, channel=0, data=[60, 0]),
   midi.NoteOnEvent(tick=0, channel=0, data=[63, 31]),
   midi.NoteOnEvent(tick=60, channel=0, data=[63, 0]),
   midi.NoteOnEvent(tick=0, channel=0, data=[64, 33]),
   midi.NoteOnEvent(tick=60, channel=0, data=[64, 0]),
   midi.NoteOnEvent(tick=0, channel=0, data=[68, 33]),
   midi.NoteOnEvent(tick=60, channel=0, data=[68, 0]),
   midi.NoteOnEvent(tick=0, channel=0, data=[72, 35]),
   midi.NoteOnEvent(tick=60, channel=0, data=[72, 0]),
   midi.NoteOnEvent(tick=0, channel=0, data=[68, 36]),
   midi.NoteOnEvent(tick=60, channel=0, data=[68, 0]),
   midi.NoteOnEvent(tick=0, channel=0, data=[64, 36]),
   midi.NoteOnEvent(tick=60, channel=0, data=[64, 0]),
   midi.NoteOnEvent(tick=0, channel=0, data=[63, 35]),
   midi.NoteOnEvent(tick=60, channel=0, data=[63, 0]),
   midi.NoteOnEvent(tick=0, channel=0, data=[60, 35]),
   midi.NoteOnEvent(tick=60, channel=0, data=[60, 0]),
   midi.NoteOnEvent(tick=0, channel=0, data=[58, 33]),
   midi.NoteOnEvent(tick=60, channel=0, data=[58, 0]),
   midi.NoteOnEvent(tick=0, channel=0, data=[56, 33]),
   midi.NoteOnEvent(tick=60, channel=0, data=[56, 0]),
   midi.NoteOnEvent(tick=0, channel=0, data=[51, 33]),
   midi.NoteOnEvent(tick=60, channel=0, data=[51, 0]),
   midi.NoteOnEvent(tick=0, channel=0, data=[44, 31]),
   midi.NoteOnEvent(tick=60, channel=0, data=[44, 0]),
   midi.NoteOnEvent(tick=0, channel=0, data=[42, 30]),
   midi.ControlChangeEvent(tick=5, channel=0, data=[64, 0]),
   midi.ControlChangeEvent(tick=26, channel=0, data=[64, 127]),
   midi.NoteOnEvent(tick=29, channel=0, data=[42, 0]),
   midi.NoteOnEvent(tick=0, channel=0, data=[49, 30]),
   midi.NoteOnEvent(tick=60, channel=0, data=[49, 0]),
   midi.NoteOnEvent(tick=0, channel=0, data=[52, 31]),
   midi.NoteOnEvent(tick=60, channel=0, data=[52, 0]),
   midi.NoteOnEvent(tick=0, channel=0, data=[56, 35]),
   midi.NoteOnEvent(tick=60, channel=0, data=[56, 0]),
   midi.NoteOnEvent(tick=0, channel=0, data=[58, 36]),
   midi.NoteOnEvent(tick=60, channel=0, data=[58, 0]),
   midi.NoteOnEvent(tick=0, channel=0, data=[61, 38]),
   midi.NoteOnEvent(tick=60, channel=0, data=[61, 0]),
   midi.NoteOnEvent(tick=0, channel=0, data=[64, 40]),
   midi.NoteOnEvent(tick=60, channel=0, data=[64, 0]),
   midi.NoteOnEvent(tick=0, channel=0, data=[68, 40]),
   midi.NoteOnEvent(tick=60, channel=0, data=[68, 0]),
   midi.NoteOnEvent(tick=0, channel=0, data=[68, 40]),
   midi.NoteOnEvent(tick=60, channel=0, data=[68, 0]),
   midi.NoteOnEvent(tick=0, channel=0, data=[66, 40]),
   midi.NoteOnEvent(tick=60, channel=0, data=[66, 0]),
   midi.NoteOnEvent(tick=0, channel=0, data=[64, 40]),
   midi.NoteOnEvent(tick=60, channel=0, data=[64, 0]),
   midi.NoteOnEvent(tick=0, channel=0, data=[61, 38]),
   midi.NoteOnEvent(tick=60, channel=0, data=[61, 0]),
   midi.NoteOnEvent(tick=0, channel=0, data=[58, 36]),
   midi.NoteOnEvent(tick=60, channel=0, data=[58, 0]),
   midi.NoteOnEvent(tick=0, channel=0, data=[56, 36]),
   midi.NoteOnEvent(tick=60, channel=0, data=[56, 0]),
   midi.NoteOnEvent(tick=0, channel=0, data=[52, 35]),
   midi.NoteOnEvent(tick=60, channel=0, data=[52, 0]),
   midi.NoteOnEvent(tick=0, channel=0, data=[49, 31]),
   midi.NoteOnEvent(tick=60, channel=0, data=[49, 0]),
   midi.NoteOnEvent(tick=0, channel=0, data=[42, 30]),
   midi.ControlChangeEvent(tick=6, channel=0, data=[64, 0]),
   midi.ControlChangeEvent(tick=34, channel=0, data=[64, 127]),
   midi.NoteOnEvent(tick=20, channel=0, data=[42, 0]),
   midi.NoteOnEvent(tick=0, channel=0, data=[49, 31]),
   midi.NoteOnEvent(tick=60, channel=0, data=[49, 0]),
   midi.NoteOnEvent(tick=0, channel=0, data=[52, 35]),
   midi.NoteOnEvent(tick=60, channel=0, data=[52, 0]),
   midi.NoteOnEvent(tick=0, channel=0, data=[56, 38]),
   midi.NoteOnEvent(tick=60, channel=0, data=[56, 0]),
   midi.NoteOnEvent(tick=0, channel=0, data=[58, 36]),
   midi.NoteOnEvent(tick=60, channel=0, data=[58, 0]),
   midi.NoteOnEvent(tick=0, channel=0, data=[56, 35]),
   midi.NoteOnEvent(tick=60, channel=0, data=[56, 0]),
   midi.NoteOnEvent(tick=0, channel=0, data=[52, 31]),
   midi.NoteOnEvent(tick=60, channel=0, data=[52, 0]),
   midi.NoteOnEvent(tick=0, channel=0, data=[49, 35]),
   midi.NoteOnEvent(tick=60, channel=0, data=[49, 0]),
   midi.NoteOnEvent(tick=0, channel=0, data=[42, 30]),
   midi.ControlChangeEvent(tick=7, channel=0, data=[64, 0]),
   midi.ControlChangeEvent(tick=26, channel=0, data=[64, 127]),
   midi.NoteOnEvent(tick=7, channel=0, data=[42, 0]),
   midi.NoteOnEvent(tick=0, channel=0, data=[49, 35]),
   midi.NoteOnEvent(tick=40, channel=0, data=[49, 0]),
   midi.NoteOnEvent(tick=0, channel=0, data=[52, 36]),
   midi.NoteOnEvent(tick=40, channel=0, data=[52, 0]),
   midi.NoteOnEvent(tick=0, channel=0, data=[56, 40]),
   midi.NoteOnEvent(tick=40, channel=0, data=[56, 0]),
   midi.NoteOnEvent(tick=320, channel=0, data=[59, 51]),
   midi.NoteOnEvent(tick=0, channel=0, data=[71, 51]),
   midi.NoteOnEvent(tick=370, channel=0, data=[57, 36]),
   midi.NoteOnEvent(tick=37, channel=0, data=[57, 0]),
   midi.NoteOnEvent(tick=0, channel=0, data=[52, 35]),
   midi.NoteOnEvent(tick=37, channel=0, data=[52, 0]),
   midi.NoteOnEvent(tick=0, channel=0, data=[49, 35]),
   midi.NoteOnEvent(tick=36, channel=0, data=[49, 0]),
   midi.NoteOnEvent(tick=0, channel=0, data=[71, 0]),
   midi.NoteOnEvent(tick=0, channel=0, data=[59, 0]),
   midi.NoteOnEvent(tick=0, channel=0, data=[42, 30]),
   midi.ControlChangeEvent(tick=5, channel=0, data=[64, 0]),
   midi.ControlChangeEvent(tick=32, channel=0, data=[64, 127]),
   midi.NoteOnEvent(tick=23, channel=0, data=[42, 0]),
   midi.NoteOnEvent(tick=0, channel=0, data=[49, 30]),
   midi.NoteOnEvent(tick=60, channel=0, data=[49, 0]),
   midi.NoteOnEvent(tick=0, channel=0, data=[52, 31]),
   midi.NoteOnEvent(tick=60, channel=0, data=[52, 0]),
   midi.NoteOnEvent(tick=0, channel=0, data=[56, 35]),
   midi.NoteOnEvent(tick=60, channel=0, data=[56, 0]),
   midi.NoteOnEvent(tick=0, channel=0, data=[58, 36]),
   midi.NoteOnEvent(tick=60, channel=0, data=[58, 0]),
   midi.NoteOnEvent(tick=0, channel=0, data=[61, 38]),
   midi.NoteOnEvent(tick=60, channel=0, data=[61, 0]),
   midi.NoteOnEvent(tick=0, channel=0, data=[64, 40]),
   midi.NoteOnEvent(tick=60, channel=0, data=[64, 0]),
   midi.NoteOnEvent(tick=0, channel=0, data=[66, 40]),
   midi.NoteOnEvent(tick=60, channel=0, data=[66, 0]),
   midi.NoteOnEvent(tick=0, channel=0, data=[68, 40]),
   midi.NoteOnEvent(tick=60, channel=0, data=[68, 0]),
   midi.NoteOnEvent(tick=0, channel=0, data=[66, 40]),
   midi.NoteOnEvent(tick=60, channel=0, data=[66, 0]),
   midi.NoteOnEvent(tick=0, channel=0, data=[64, 40]),
   midi.NoteOnEvent(tick=60, channel=0, data=[64, 0]),
   midi.NoteOnEvent(tick=0, channel=0, data=[61, 38]),
   midi.NoteOnEvent(tick=60, channel=0, data=[61, 0]),
   midi.NoteOnEvent(tick=0, channel=0, data=[58, 36]),
   midi.NoteOnEvent(tick=60, channel=0, data=[58, 0]),
   midi.NoteOnEvent(tick=0, channel=0, data=[56, 36]),
   midi.NoteOnEvent(tick=60, channel=0, data=[56, 0]),
   midi.NoteOnEvent(tick=0, channel=0, data=[52, 35]),
   midi.NoteOnEvent(tick=60, channel=0, data=[52, 0]),
   midi.NoteOnEvent(tick=0, channel=0, data=[49, 31]),
   midi.NoteOnEvent(tick=60, channel=0, data=[49, 0]),
   midi.NoteOnEvent(tick=0, channel=0, data=[42, 30]),
   midi.ControlChangeEvent(tick=4, channel=0, data=[64, 0]),
   midi.ControlChangeEvent(tick=29, channel=0, data=[64, 127]),
   midi.NoteOnEvent(tick=7, channel=0, data=[42, 0]),
   midi.NoteOnEvent(tick=0, channel=0, data=[49, 35]),
   midi.NoteOnEvent(tick=40, channel=0, data=[49, 0]),
   midi.NoteOnEvent(tick=0, channel=0, data=[52, 36]),
   midi.NoteOnEvent(tick=40, channel=0, data=[52, 0]),
   midi.NoteOnEvent(tick=0, channel=0, data=[56, 40]),
   midi.NoteOnEvent(tick=40, channel=0, data=[56, 0]),
   midi.NoteOnEvent(tick=320, channel=0, data=[73, 51]),
   midi.NoteOnEvent(tick=0, channel=0, data=[61, 51]),
   midi.NoteOnEvent(tick=240, channel=0, data=[61, 0]),
   midi.NoteOnEvent(tick=0, channel=0, data=[73, 0]),
   midi.NoteOnEvent(tick=130, channel=0, data=[57, 36]),
   midi.NoteOnEvent(tick=37, channel=0, data=[57, 0]),
   midi.NoteOnEvent(tick=0, channel=0, data=[52, 35]),
   midi.NoteOnEvent(tick=37, channel=0, data=[52, 0]),
   midi.NoteOnEvent(tick=0, channel=0, data=[49, 35]),
   midi.NoteOnEvent(tick=36, channel=0, data=[49, 0]),
   midi.NoteOnEvent(tick=0, channel=0, data=[39, 36]),
   midi.ControlChangeEvent(tick=6, channel=0, data=[64, 0]),
   midi.ControlChangeEvent(tick=32, channel=0, data=[64, 127]),
   midi.NoteOnEvent(tick=82, channel=0, data=[39, 0]),
   midi.NoteOnEvent(tick=0, channel=0, data=[46, 28]),
   midi.NoteOnEvent(tick=120, channel=0, data=[46, 0]),
   midi.NoteOnEvent(tick=0, channel=0, data=[51, 28]),
   midi.NoteOnEvent(tick=120, channel=0, data=[51, 0]),
   midi.NoteOnEvent(tick=0, channel=0, data=[55, 28]),
   midi.NoteOnEvent(tick=120, channel=0, data=[55, 0]),
   midi.NoteOnEvent(tick=0, channel=0, data=[58, 31]),
   midi.NoteOnEvent(tick=120, channel=0, data=[58, 0]),
   midi.NoteOnEvent(tick=0, channel=0, data=[63, 28]),
   midi.NoteOnEvent(tick=120, channel=0, data=[63, 0]),
   midi.NoteOnEvent(tick=0, channel=0, data=[67, 28]),
   midi.NoteOnEvent(tick=120, channel=0, data=[67, 0]),
   midi.NoteOnEvent(tick=0, channel=0, data=[75, 28]),
   midi.NoteOnEvent(tick=120, channel=0, data=[75, 0]),
   midi.NoteOnEvent(tick=0, channel=0, data=[79, 28]),
   midi.ControlChangeEvent(tick=9, channel=0, data=[64, 0]),
   midi.ControlChangeEvent(tick=17, channel=0, data=[64, 127]),
   midi.NoteOnEvent(tick=214, channel=0, data=[79, 0]),
   midi.ControlChangeEvent(tick=1146, channel=0, data=[64, 0]),
   midi.NoteOnEvent(tick=54, channel=0, data=[77, 56]),
   midi.ControlChangeEvent(tick=6, channel=0, data=[64, 127]),
   midi.NoteOnEvent(tick=474, channel=0, data=[73, 46]),
   midi.NoteOnEvent(tick=20, channel=0, data=[77, 0]),
   midi.NoteOnEvent(tick=700, channel=0, data=[73, 0]),
   midi.NoteOnEvent(tick=0, channel=0, data=[70, 51]),
   midi.NoteOnEvent(tick=240, channel=0, data=[73, 56]),
   midi.NoteOnEvent(tick=10, channel=0, data=[70, 0]),
   midi.NoteOnEvent(tick=230, channel=0, data=[75, 61]),
   midi.NoteOnEvent(tick=10, channel=0, data=[73, 0]),
   midi.NoteOnEvent(tick=230, channel=0, data=[77, 56]),
   midi.ControlChangeEvent(tick=8, channel=0, data=[64, 0]),
   midi.NoteOnEvent(tick=2, channel=0, data=[75, 0]),
   midi.ControlChangeEvent(tick=23, channel=0, data=[64, 127]),
   midi.NoteOnEvent(tick=447, channel=0, data=[77, 0]),
   midi.NoteOnEvent(tick=0, channel=0, data=[73, 52]),
   midi.NoteOnEvent(tick=720, channel=0, data=[73, 0]),
   midi.NoteOnEvent(tick=0, channel=0, data=[70, 52]),
   midi.NoteOnEvent(tick=240, channel=0, data=[73, 53]),
   midi.NoteOnEvent(tick=10, channel=0, data=[70, 0]),
   midi.NoteOnEvent(tick=230, channel=0, data=[75, 53]),
   midi.NoteOnEvent(tick=10, channel=0, data=[73, 0]),
   midi.NoteOnEvent(tick=230, channel=0, data=[77, 56]),
   midi.NoteOnEvent(tick=10, channel=0, data=[75, 0]),
   midi.NoteOnEvent(tick=230, channel=0, data=[77, 0]),
   midi.NoteOnEvent(tick=0, channel=0, data=[75, 53]),
   midi.NoteOnEvent(tick=240, channel=0, data=[75, 0]),
   midi.NoteOnEvent(tick=0, channel=0, data=[82, 67]),
   midi.ControlChangeEvent(tick=8, channel=0, data=[64, 0]),
   midi.ControlChangeEvent(tick=20, channel=0, data=[64, 127]),
   midi.NoteOnEvent(tick=212, channel=0, data=[79, 62]),
   midi.NoteOnEvent(tick=10, channel=0, data=[82, 0]),
   midi.NoteOnEvent(tick=230, channel=0, data=[77, 61]),
   midi.NoteOnEvent(tick=10, channel=0, data=[79, 0]),
   midi.NoteOnEvent(tick=470, channel=0, data=[77, 0]),
   midi.NoteOnEvent(tick=0, channel=0, data=[75, 56]),
   midi.NoteOnEvent(tick=240, channel=0, data=[70, 51]),
   midi.NoteOnEvent(tick=10, channel=0, data=[75, 0]),
   midi.NoteOnEvent(tick=230, channel=0, data=[36, 36]),
   midi.NoteOnEvent(tick=0, channel=0, data=[43, 45]),
   midi.ControlChangeEvent(tick=9, channel=0, data=[64, 0]),
   midi.NoteOnEvent(tick=1, channel=0, data=[70, 0]),
   midi.ControlChangeEvent(tick=10, channel=0, data=[64, 127]),
   midi.NoteOnEvent(tick=220, channel=0, data=[44, 45]),
   midi.NoteOnEvent(tick=10, channel=0, data=[43, 0]),
   midi.NoteOnEvent(tick=230, channel=0, data=[46, 45]),
   midi.NoteOnEvent(tick=10, channel=0, data=[44, 0]),
   midi.ControlChangeEvent(tick=0, channel=0, data=[64, 0]),
   midi.ControlChangeEvent(tick=11, channel=0, data=[64, 127]),
   midi.ControlChangeEvent(tick=462, channel=0, data=[64, 0]),
   midi.ControlChangeEvent(tick=12, channel=0, data=[64, 127]),
   midi.NoteOnEvent(tick=225, channel=0, data=[46, 0]),
   midi.NoteOnEvent(tick=0, channel=0, data=[48, 46]),
   midi.NoteOnEvent(tick=240, channel=0, data=[48, 0]),
   midi.NoteOnEvent(tick=0, channel=0, data=[36, 0]),
   midi.NoteOnEvent(tick=0, channel=0, data=[42, 42]),
   midi.NoteOnEvent(tick=0, channel=0, data=[51, 52]),
   midi.ControlChangeEvent(tick=3, channel=0, data=[64, 0]),
   midi.ControlChangeEvent(tick=5, channel=0, data=[64, 127]),
   midi.NoteOnEvent(tick=232, channel=0, data=[51, 0]),
   midi.NoteOnEvent(tick=0, channel=0, data=[49, 51]),
   midi.NoteOnEvent(tick=240, channel=0, data=[49, 0]),
   midi.NoteOnEvent(tick=0, channel=0, data=[42, 0]),
   midi.NoteOnEvent(tick=0, channel=0, data=[36, 38]),
   midi.NoteOnEvent(tick=0, channel=0, data=[43, 45]),
   midi.ControlChangeEvent(tick=5, channel=0, data=[64, 0]),
   midi.ControlChangeEvent(tick=29, channel=0, data=[64, 127]),
   midi.NoteOnEvent(tick=206, channel=0, data=[48, 45]),
   midi.NoteOnEvent(tick=240, channel=0, data=[48, 0]),
   midi.NoteOnEvent(tick=0, channel=0, data=[55, 49]),
   midi.ControlChangeEvent(tick=10, channel=0, data=[64, 0]),
   midi.ControlChangeEvent(tick=30, channel=0, data=[64, 127]),
   midi.NoteOnEvent(tick=200, channel=0, data=[55, 0]),
   midi.NoteOnEvent(tick=0, channel=0, data=[64, 52]),
   midi.NoteOnEvent(tick=240, channel=0, data=[64, 0]),
   midi.NoteOnEvent(tick=0, channel=0, data=[67, 52]),
   midi.ControlChangeEvent(tick=4, channel=0, data=[64, 0]),
   midi.ControlChangeEvent(tick=39, channel=0, data=[64, 127]),
   midi.NoteOnEvent(tick=197, channel=0, data=[67, 0]),
   midi.NoteOnEvent(tick=0, channel=0, data=[76, 52]),
   midi.NoteOnEvent(tick=240, channel=0, data=[76, 0]),
   midi.NoteOnEvent(tick=0, channel=0, data=[43, 0]),
   midi.NoteOnEvent(tick=0, channel=0, data=[36, 0]),
   midi.NoteOnEvent(tick=0, channel=0, data=[74, 56]),
   midi.NoteOnEvent(tick=0, channel=0, data=[86, 56]),
   midi.ControlChangeEvent(tick=6, channel=0, data=[64, 0]),
   midi.ControlChangeEvent(tick=25, channel=0, data=[64, 127]),
   midi.NoteOnEvent(tick=449, channel=0, data=[86, 0]),
   midi.NoteOnEvent(tick=0, channel=0, data=[74, 0]),
   midi.NoteOnEvent(tick=0, channel=0, data=[70, 52]),
   midi.NoteOnEvent(tick=0, channel=0, data=[82, 52]),
   midi.NoteOnEvent(tick=720, channel=0, data=[82, 0]),
   midi.NoteOnEvent(tick=0, channel=0, data=[70, 0]),
   midi.NoteOnEvent(tick=0, channel=0, data=[67, 40]),
   midi.NoteOnEvent(tick=0, channel=0, data=[79, 46]),
   midi.NoteOnEvent(tick=240, channel=0, data=[67, 0]),
   midi.NoteOnEvent(tick=0, channel=0, data=[70, 45]),
   midi.NoteOnEvent(tick=0, channel=0, data=[82, 53]),
   midi.NoteOnEvent(tick=10, channel=0, data=[79, 0]),
   midi.NoteOnEvent(tick=230, channel=0, data=[70, 0]),
   midi.NoteOnEvent(tick=0, channel=0, data=[72, 45]),
   midi.NoteOnEvent(tick=0, channel=0, data=[84, 56]),
   midi.NoteOnEvent(tick=10, channel=0, data=[82, 0]),
   midi.NoteOnEvent(tick=230, channel=0, data=[72, 0]),
   midi.NoteOnEvent(tick=0, channel=0, data=[74, 53]),
   midi.NoteOnEvent(tick=0, channel=0, data=[86, 53]),
   midi.ControlChangeEvent(tick=6, channel=0, data=[64, 0]),
   midi.NoteOnEvent(tick=4, channel=0, data=[84, 0]),
   midi.ControlChangeEvent(tick=26, channel=0, data=[64, 127]),
   midi.NoteOnEvent(tick=444, channel=0, data=[86, 0]),
   midi.NoteOnEvent(tick=0, channel=0, data=[74, 0]),
   midi.NoteOnEvent(tick=0, channel=0, data=[70, 35]),
   midi.NoteOnEvent(tick=0, channel=0, data=[82, 46]),
   midi.NoteOnEvent(tick=720, channel=0, data=[82, 0]),
   midi.NoteOnEvent(tick=0, channel=0, data=[70, 0]),
   midi.NoteOnEvent(tick=0, channel=0, data=[67, 40]),
   midi.NoteOnEvent(tick=0, channel=0, data=[79, 46]),
   midi.NoteOnEvent(tick=240, channel=0, data=[67, 0]),
   midi.NoteOnEvent(tick=0, channel=0, data=[70, 45]),
   midi.NoteOnEvent(tick=0, channel=0, data=[82, 53]),
   midi.NoteOnEvent(tick=10, channel=0, data=[79, 0]),
   midi.NoteOnEvent(tick=230, channel=0, data=[70, 0]),
   midi.NoteOnEvent(tick=0, channel=0, data=[72, 45]),
   midi.NoteOnEvent(tick=0, channel=0, data=[84, 56]),
   midi.NoteOnEvent(tick=10, channel=0, data=[82, 0]),
   midi.NoteOnEvent(tick=230, channel=0, data=[72, 0]),
   midi.NoteOnEvent(tick=0, channel=0, data=[86, 56]),
   midi.NoteOnEvent(tick=0, channel=0, data=[74, 56]),
   midi.ControlChangeEvent(tick=7, channel=0, data=[64, 0]),
   midi.NoteOnEvent(tick=3, channel=0, data=[84, 0]),
   midi.ControlChangeEvent(tick=21, channel=0, data=[64, 127]),
   midi.NoteOnEvent(tick=209, channel=0, data=[74, 0]),
   midi.NoteOnEvent(tick=0, channel=0, data=[86, 0]),
   midi.NoteOnEvent(tick=0, channel=0, data=[72, 52]),
   midi.NoteOnEvent(tick=0, channel=0, data=[84, 52]),
   midi.NoteOnEvent(tick=240, channel=0, data=[84, 0]),
   midi.NoteOnEvent(tick=0, channel=0, data=[72, 0]),
   midi.NoteOnEvent(tick=0, channel=0, data=[91, 61]),
   midi.NoteOnEvent(tick=0, channel=0, data=[79, 61]),
   midi.NoteOnEvent(tick=240, channel=0, data=[79, 0]),
   midi.NoteOnEvent(tick=0, channel=0, data=[91, 0]),
   midi.NoteOnEvent(tick=0, channel=0, data=[88, 52]),
   midi.NoteOnEvent(tick=0, channel=0, data=[76, 52]),
   midi.NoteOnEvent(tick=240, channel=0, data=[76, 0]),
   midi.NoteOnEvent(tick=0, channel=0, data=[88, 0]),
   midi.NoteOnEvent(tick=0, channel=0, data=[74, 50]),
   midi.NoteOnEvent(tick=0, channel=0, data=[86, 50]),
   midi.NoteOnEvent(tick=480, channel=0, data=[86, 0]),
   midi.NoteOnEvent(tick=0, channel=0, data=[74, 0]),
   midi.NoteOnEvent(tick=0, channel=0, data=[84, 52]),
   midi.NoteOnEvent(tick=0, channel=0, data=[72, 52]),
   midi.NoteOnEvent(tick=240, channel=0, data=[72, 0]),
   midi.NoteOnEvent(tick=0, channel=0, data=[84, 0]),
   midi.NoteOnEvent(tick=0, channel=0, data=[67, 49]),
   midi.NoteOnEvent(tick=0, channel=0, data=[79, 49]),
   midi.NoteOnEvent(tick=210, channel=0, data=[33, 37]),
   midi.NoteOnEvent(tick=30, channel=0, data=[79, 0]),
   midi.NoteOnEvent(tick=0, channel=0, data=[67, 0]),
   midi.NoteOnEvent(tick=0, channel=0, data=[45, 39]),
   midi.NoteOnEvent(tick=0, channel=0, data=[52, 45]),
   midi.ControlChangeEvent(tick=7, channel=0, data=[64, 0]),
   midi.ControlChangeEvent(tick=24, channel=0, data=[64, 127]),
   midi.NoteOnEvent(tick=209, channel=0, data=[53, 45]),
   midi.NoteOnEvent(tick=10, channel=0, data=[52, 0]),
   midi.NoteOnEvent(tick=230, channel=0, data=[55, 45]),
   midi.ControlChangeEvent(tick=7, channel=0, data=[64, 0]),
   midi.NoteOnEvent(tick=3, channel=0, data=[53, 0]),
   midi.ControlChangeEvent(tick=24, channel=0, data=[64, 127]),
   midi.ControlChangeEvent(tick=452, channel=0, data=[64, 0]),
   midi.ControlChangeEvent(tick=28, channel=0, data=[64, 127]),
   midi.NoteOnEvent(tick=206, channel=0, data=[55, 0]),
   midi.NoteOnEvent(tick=0, channel=0, data=[57, 46]),
   midi.NoteOnEvent(tick=240, channel=0, data=[57, 0]),
   midi.NoteOnEvent(tick=0, channel=0, data=[45, 0]),
   midi.NoteOnEvent(tick=0, channel=0, data=[33, 0]),
   midi.NoteOnEvent(tick=0, channel=0, data=[45, 29]),
   midi.NoteOnEvent(tick=0, channel=0, data=[49, 29]),
   midi.NoteOnEvent(tick=0, channel=0, data=[51, 29]),
   midi.NoteOnEvent(tick=0, channel=0, data=[55, 35]),
   midi.NoteOnEvent(tick=0, channel=0, data=[60, 52]),
   midi.NoteOnEvent(tick=240, channel=0, data=[60, 0]),
   midi.NoteOnEvent(tick=0, channel=0, data=[58, 51]),
   midi.ControlChangeEvent(tick=193, channel=0, data=[64, 0]),
   midi.NoteOnEvent(tick=17, channel=0, data=[33, 37]),
   midi.NoteOnEvent(tick=30, channel=0, data=[58, 0]),
   midi.NoteOnEvent(tick=0, channel=0, data=[51, 0]),
   midi.NoteOnEvent(tick=0, channel=0, data=[55, 0]),
   midi.NoteOnEvent(tick=0, channel=0, data=[45, 0]),
   midi.NoteOnEvent(tick=0, channel=0, data=[49, 0]),
   midi.NoteOnEvent(tick=0, channel=0, data=[52, 45]),
   midi.NoteOnEvent(tick=0, channel=0, data=[45, 39]),
   midi.ControlChangeEvent(tick=0, channel=0, data=[64, 127]),
   midi.NoteOnEvent(tick=240, channel=0, data=[52, 0]),
   midi.NoteOnEvent(tick=0, channel=0, data=[61, 50]),
   midi.NoteOnEvent(tick=240, channel=0, data=[61, 0]),
   midi.NoteOnEvent(tick=0, channel=0, data=[64, 51]),
   midi.ControlChangeEvent(tick=10, channel=0, data=[64, 0]),
   midi.ControlChangeEvent(tick=33, channel=0, data=[64, 127]),
   midi.NoteOnEvent(tick=197, channel=0, data=[64, 0]),
   midi.NoteOnEvent(tick=0, channel=0, data=[69, 55]),
   midi.NoteOnEvent(tick=240, channel=0, data=[69, 0]),
   midi.NoteOnEvent(tick=0, channel=0, data=[73, 54]),
   midi.NoteOnEvent(tick=240, channel=0, data=[73, 0]),
   midi.NoteOnEvent(tick=0, channel=0, data=[76, 58]),
   midi.NoteOnEvent(tick=240, channel=0, data=[76, 0]),
   midi.NoteOnEvent(tick=0, channel=0, data=[45, 0]),
   midi.NoteOnEvent(tick=0, channel=0, data=[33, 0]),
   midi.NoteOnEvent(tick=0, channel=0, data=[57, 51]),
   midi.ControlChangeEvent(tick=5, channel=0, data=[64, 0]),
   midi.ControlChangeEvent(tick=58, channel=0, data=[64, 127]),
   midi.NoteOnEvent(tick=17, channel=0, data=[57, 0]),
   midi.NoteOnEvent(tick=0, channel=0, data=[61, 42]),
   midi.NoteOnEvent(tick=80, channel=0, data=[61, 0]),
   midi.NoteOnEvent(tick=0, channel=0, data=[67, 42]),
   midi.NoteOnEvent(tick=80, channel=0, data=[67, 0]),
   midi.NoteOnEvent(tick=0, channel=0, data=[79, 67]),
   midi.NoteOnEvent(tick=80, channel=0, data=[70, 40]),
   midi.NoteOnEvent(tick=20, channel=0, data=[73, 40]),
   midi.NoteOnEvent(tick=20, channel=0, data=[82, 40]),
   midi.NoteOnEvent(tick=60, channel=0, data=[82, 0]),
   midi.NoteOnEvent(tick=0, channel=0, data=[73, 0]),
   midi.NoteOnEvent(tick=0, channel=0, data=[70, 0]),
   midi.NoteOnEvent(tick=60, channel=0, data=[79, 0]),
   midi.NoteOnEvent(tick=0, channel=0, data=[57, 51]),
   midi.ControlChangeEvent(tick=3, channel=0, data=[64, 0]),
   midi.ControlChangeEvent(tick=17, channel=0, data=[64, 127]),
   midi.NoteOnEvent(tick=60, channel=0, data=[57, 0]),
   midi.NoteOnEvent(tick=0, channel=0, data=[61, 42]),
   midi.NoteOnEvent(tick=80, channel=0, data=[61, 0]),
   midi.NoteOnEvent(tick=0, channel=0, data=[67, 42]),
   midi.NoteOnEvent(tick=80, channel=0, data=[67, 0]),
   midi.NoteOnEvent(tick=0, channel=0, data=[76, 59]),
   midi.NoteOnEvent(tick=80, channel=0, data=[70, 40]),
   midi.NoteOnEvent(tick=20, channel=0, data=[73, 40]),
   midi.NoteOnEvent(tick=20, channel=0, data=[82, 40]),
   midi.NoteOnEvent(tick=60, channel=0, data=[82, 0]),
   midi.NoteOnEvent(tick=0, channel=0, data=[73, 0]),
   midi.NoteOnEvent(tick=0, channel=0, data=[70, 0]),
   midi.NoteOnEvent(tick=60, channel=0, data=[76, 0]),
   midi.NoteOnEvent(tick=0, channel=0, data=[57, 45]),
   midi.ControlChangeEvent(tick=5, channel=0, data=[64, 0]),
   midi.ControlChangeEvent(tick=35, channel=0, data=[64, 127]),
   midi.NoteOnEvent(tick=40, channel=0, data=[57, 0]),
   midi.NoteOnEvent(tick=0, channel=0, data=[62, 39]),
   midi.NoteOnEvent(tick=80, channel=0, data=[62, 0]),
   midi.NoteOnEvent(tick=0, channel=0, data=[71, 39]),
   midi.NoteOnEvent(tick=80, channel=0, data=[71, 0]),
   midi.NoteOnEvent(tick=0, channel=0, data=[77, 40]),
   midi.NoteOnEvent(tick=120, channel=0, data=[77, 0]),
   midi.NoteOnEvent(tick=0, channel=0, data=[71, 40]),
   midi.NoteOnEvent(tick=0, channel=0, data=[83, 40]),
   midi.NoteOnEvent(tick=60, channel=0, data=[83, 0]),
   midi.NoteOnEvent(tick=0, channel=0, data=[71, 0]),
   midi.NoteOnEvent(tick=60, channel=0, data=[57, 45]),
   midi.ControlChangeEvent(tick=9, channel=0, data=[64, 0]),
   midi.ControlChangeEvent(tick=34, channel=0, data=[64, 127]),
   midi.NoteOnEvent(tick=37, channel=0, data=[57, 0]),
   midi.NoteOnEvent(tick=0, channel=0, data=[62, 39]),
   midi.NoteOnEvent(tick=80, channel=0, data=[62, 0]),
   midi.NoteOnEvent(tick=0, channel=0, data=[71, 39]),
   midi.NoteOnEvent(tick=80, channel=0, data=[71, 0]),
   midi.NoteOnEvent(tick=0, channel=0, data=[74, 53]),
   midi.NoteOnEvent(tick=100, channel=0, data=[71, 40]),
   midi.NoteOnEvent(tick=20, channel=0, data=[83, 40]),
   midi.NoteOnEvent(tick=60, channel=0, data=[83, 0]),
   midi.NoteOnEvent(tick=0, channel=0, data=[71, 0]),
   midi.NoteOnEvent(tick=58, channel=0, data=[74, 0]),
   midi.NoteOnEvent(tick=2, channel=0, data=[57, 35]),
   midi.ControlChangeEvent(tick=4, channel=0, data=[64, 0]),
   midi.ControlChangeEvent(tick=39, channel=0, data=[64, 127]),
   midi.NoteOnEvent(tick=37, channel=0, data=[57, 0]),
   midi.NoteOnEvent(tick=0, channel=0, data=[63, 35]),
   midi.NoteOnEvent(tick=80, channel=0, data=[63, 0]),
   midi.NoteOnEvent(tick=0, channel=0, data=[67, 35]),
   midi.NoteOnEvent(tick=80, channel=0, data=[67, 0]),
   midi.NoteOnEvent(tick=0, channel=0, data=[69, 38]),
   midi.NoteOnEvent(tick=100, channel=0, data=[75, 30]),
   midi.NoteOnEvent(tick=20, channel=0, data=[69, 0]),
   midi.NoteOnEvent(tick=0, channel=0, data=[79, 30]),
   midi.NoteOnEvent(tick=60, channel=0, data=[79, 0]),
   midi.NoteOnEvent(tick=0, channel=0, data=[75, 0]),
   midi.NoteOnEvent(tick=60, channel=0, data=[57, 35]),
   midi.ControlChangeEvent(tick=9, channel=0, data=[64, 0]),
   midi.ControlChangeEvent(tick=31, channel=0, data=[64, 127]),
   midi.NoteOnEvent(tick=40, channel=0, data=[57, 0]),
   midi.NoteOnEvent(tick=0, channel=0, data=[63, 35]),
   midi.NoteOnEvent(tick=80, channel=0, data=[63, 0]),
   midi.NoteOnEvent(tick=0, channel=0, data=[67, 35]),
   midi.NoteOnEvent(tick=80, channel=0, data=[67, 0]),
   midi.NoteOnEvent(tick=0, channel=0, data=[72, 59]),
   midi.NoteOnEvent(tick=100, channel=0, data=[75, 30]),
   midi.NoteOnEvent(tick=20, channel=0, data=[79, 30]),
   midi.NoteOnEvent(tick=60, channel=0, data=[79, 0]),
   midi.NoteOnEvent(tick=0, channel=0, data=[75, 0]),
   midi.NoteOnEvent(tick=60, channel=0, data=[72, 0]),
   midi.NoteOnEvent(tick=0, channel=0, data=[57, 35]),
   midi.ControlChangeEvent(tick=6, channel=0, data=[64, 0]),
   midi.ControlChangeEvent(tick=43, channel=0, data=[64, 127]),
   midi.NoteOnEvent(tick=31, channel=0, data=[57, 0]),
   midi.NoteOnEvent(tick=0, channel=0, data=[63, 35]),
   midi.NoteOnEvent(tick=80, channel=0, data=[63, 0]),
   midi.NoteOnEvent(tick=0, channel=0, data=[67, 35]),
   midi.NoteOnEvent(tick=80, channel=0, data=[67, 0]),
   midi.NoteOnEvent(tick=0, channel=0, data=[75, 56]),
   midi.NoteOnEvent(tick=100, channel=0, data=[69, 30]),
   midi.NoteOnEvent(tick=20, channel=0, data=[79, 30]),
   midi.NoteOnEvent(tick=60, channel=0, data=[79, 0]),
   midi.NoteOnEvent(tick=0, channel=0, data=[69, 0]),
   midi.NoteOnEvent(tick=60, channel=0, data=[75, 0]),
   midi.NoteOnEvent(tick=0, channel=0, data=[57, 35]),
   midi.ControlChangeEvent(tick=10, channel=0, data=[64, 0]),
   midi.ControlChangeEvent(tick=20, channel=0, data=[64, 127]),
   midi.NoteOnEvent(tick=50, channel=0, data=[57, 0]),
   midi.NoteOnEvent(tick=0, channel=0, data=[66, 35]),
   midi.NoteOnEvent(tick=80, channel=0, data=[66, 0]),
   midi.NoteOnEvent(tick=0, channel=0, data=[69, 35]),
   midi.NoteOnEvent(tick=80, channel=0, data=[69, 0]),
   midi.NoteOnEvent(tick=0, channel=0, data=[66, 38]),
   midi.NoteOnEvent(tick=100, channel=0, data=[69, 30]),
   midi.NoteOnEvent(tick=20, channel=0, data=[66, 0]),
   midi.NoteOnEvent(tick=0, channel=0, data=[78, 30]),
   midi.NoteOnEvent(tick=60, channel=0, data=[78, 0]),
   midi.NoteOnEvent(tick=0, channel=0, data=[69, 0]),
   midi.NoteOnEvent(tick=60, channel=0, data=[57, 30]),
   midi.ControlChangeEvent(tick=10, channel=0, data=[64, 0]),
   midi.ControlChangeEvent(tick=33, channel=0, data=[64, 127]),
   midi.NoteOnEvent(tick=37, channel=0, data=[57, 0]),
   midi.NoteOnEvent(tick=0, channel=0, data=[63, 30]),
   midi.NoteOnEvent(tick=80, channel=0, data=[63, 0]),
   midi.NoteOnEvent(tick=0, channel=0, data=[67, 30]),
   midi.NoteOnEvent(tick=80, channel=0, data=[67, 0]),
   midi.NoteOnEvent(tick=0, channel=0, data=[70, 53]),
   midi.NoteOnEvent(tick=80, channel=0, data=[72, 30]),
   midi.NoteOnEvent(tick=20, channel=0, data=[75, 30]),
   midi.NoteOnEvent(tick=20, channel=0, data=[82, 30]),
   midi.NoteOnEvent(tick=60, channel=0, data=[82, 0]),
   midi.NoteOnEvent(tick=0, channel=0, data=[75, 0]),
   midi.NoteOnEvent(tick=0, channel=0, data=[72, 0]),
   midi.NoteOnEvent(tick=60, channel=0, data=[70, 0]),
   midi.NoteOnEvent(tick=0, channel=0, data=[45, 45]),
   midi.ControlChangeEvent(tick=10, channel=0, data=[64, 0]),
   midi.ControlChangeEvent(tick=21, channel=0, data=[64, 127]),
   midi.NoteOnEvent(tick=49, channel=0, data=[45, 0]),
   midi.NoteOnEvent(tick=0, channel=0, data=[49, 47]),
   midi.NoteOnEvent(tick=80, channel=0, data=[49, 0]),
   midi.NoteOnEvent(tick=0, channel=0, data=[58, 50]),
   midi.NoteOnEvent(tick=80, channel=0, data=[58, 0]),
   midi.NoteOnEvent(tick=0, channel=0, data=[61, 52]),
   midi.NoteOnEvent(tick=80, channel=0, data=[61, 0]),
   midi.NoteOnEvent(tick=0, channel=0, data=[70, 56]),
   midi.NoteOnEvent(tick=80, channel=0, data=[70, 0]),
   midi.NoteOnEvent(tick=0, channel=0, data=[73, 57]),
   midi.NoteOnEvent(tick=80, channel=0, data=[73, 0]),
   midi.NoteOnEvent(tick=0, channel=0, data=[82, 67]),
   midi.ControlChangeEvent(tick=10, channel=0, data=[64, 0]),
   midi.ControlChangeEvent(tick=33, channel=0, data=[64, 127]),
   midi.NoteOnEvent(tick=10, channel=0, data=[82, 0]),
   midi.NoteOnEvent(tick=0, channel=0, data=[79, 72]),
   midi.NoteOnEvent(tick=53, channel=0, data=[79, 0]),
   midi.NoteOnEvent(tick=0, channel=0, data=[73, 72]),
   midi.NoteOnEvent(tick=53, channel=0, data=[73, 0]),
   midi.NoteOnEvent(tick=0, channel=0, data=[70, 68]),
   midi.NoteOnEvent(tick=53, channel=0, data=[70, 0]),
   midi.NoteOnEvent(tick=0, channel=0, data=[67, 68]),
   midi.NoteOnEvent(tick=53, channel=0, data=[67, 0]),
   midi.NoteOnEvent(tick=0, channel=0, data=[61, 67]),
   midi.NoteOnEvent(tick=53, channel=0, data=[61, 0]),
   midi.NoteOnEvent(tick=0, channel=0, data=[58, 67]),
   midi.NoteOnEvent(tick=53, channel=0, data=[58, 0]),
   midi.NoteOnEvent(tick=0, channel=0, data=[55, 67]),
   midi.NoteOnEvent(tick=53, channel=0, data=[55, 0]),
   midi.NoteOnEvent(tick=0, channel=0, data=[52, 63]),
   midi.NoteOnEvent(tick=53, channel=0, data=[52, 0]),
   midi.NoteOnEvent(tick=3, channel=0, data=[45, 61]),
   midi.ControlChangeEvent(tick=8, channel=0, data=[64, 0]),
   midi.ControlChangeEvent(tick=32, channel=0, data=[64, 127]),
   midi.NoteOnEvent(tick=8, channel=0, data=[45, 0]),
   midi.NoteOnEvent(tick=0, channel=0, data=[49, 56]),
   midi.NoteOnEvent(tick=48, channel=0, data=[49, 0]),
   midi.NoteOnEvent(tick=0, channel=0, data=[55, 61]),
   midi.NoteOnEvent(tick=48, channel=0, data=[55, 0]),
   midi.NoteOnEvent(tick=0, channel=0, data=[58, 62]),
   midi.NoteOnEvent(tick=48, channel=0, data=[58, 0]),
   midi.NoteOnEvent(tick=0, channel=0, data=[61, 67]),
   midi.NoteOnEvent(tick=48, channel=0, data=[61, 0]),
   midi.NoteOnEvent(tick=0, channel=0, data=[64, 62]),
   midi.NoteOnEvent(tick=48, channel=0, data=[64, 0]),
   midi.NoteOnEvent(tick=0, channel=0, data=[61, 62]),
   midi.NoteOnEvent(tick=48, channel=0, data=[61, 0]),
   midi.NoteOnEvent(tick=0, channel=0, data=[58, 63]),
   midi.NoteOnEvent(tick=48, channel=0, data=[58, 0]),
   midi.NoteOnEvent(tick=0, channel=0, data=[55, 63]),
   midi.NoteOnEvent(tick=48, channel=0, data=[55, 0]),
   midi.NoteOnEvent(tick=0, channel=0, data=[49, 67]),
   midi.NoteOnEvent(tick=48, channel=0, data=[49, 0]),
   midi.NoteOnEvent(tick=0, channel=0, data=[43, 67]),
   midi.ControlChangeEvent(tick=9, channel=0, data=[64, 0]),
   midi.ControlChangeEvent(tick=24, channel=0, data=[64, 127]),
   midi.NoteOnEvent(tick=20, channel=0, data=[43, 0]),
   midi.NoteOnEvent(tick=0, channel=0, data=[50, 67]),
   midi.NoteOnEvent(tick=53, channel=0, data=[50, 0]),
   midi.NoteOnEvent(tick=0, channel=0, data=[55, 67]),
   midi.NoteOnEvent(tick=53, channel=0, data=[55, 0]),
   midi.NoteOnEvent(tick=0, channel=0, data=[59, 67]),
   midi.NoteOnEvent(tick=53, channel=0, data=[59, 0]),
   midi.NoteOnEvent(tick=0, channel=0, data=[62, 68]),
   midi.NoteOnEvent(tick=53, channel=0, data=[62, 0]),
   midi.NoteOnEvent(tick=0, channel=0, data=[67, 72]),
   midi.NoteOnEvent(tick=53, channel=0, data=[67, 0]),
   midi.NoteOnEvent(tick=0, channel=0, data=[71, 68]),
   midi.NoteOnEvent(tick=53, channel=0, data=[71, 0]),
   midi.NoteOnEvent(tick=0, channel=0, data=[74, 72]),
   midi.NoteOnEvent(tick=53, channel=0, data=[74, 0]),
   midi.NoteOnEvent(tick=0, channel=0, data=[79, 72]),
   midi.NoteOnEvent(tick=54, channel=0, data=[79, 0]),
   midi.NoteOnEvent(tick=2, channel=0, data=[83, 67]),
   midi.NoteOnEvent(tick=53, channel=0, data=[83, 0]),
   midi.NoteOnEvent(tick=0, channel=0, data=[79, 67]),
   midi.NoteOnEvent(tick=53, channel=0, data=[79, 0]),
   midi.NoteOnEvent(tick=0, channel=0, data=[74, 67]),
   midi.NoteOnEvent(tick=53, channel=0, data=[74, 0]),
   midi.NoteOnEvent(tick=0, channel=0, data=[71, 67]),
   midi.NoteOnEvent(tick=53, channel=0, data=[71, 0]),
   midi.NoteOnEvent(tick=0, channel=0, data=[67, 67]),
   midi.NoteOnEvent(tick=53, channel=0, data=[67, 0]),
   midi.NoteOnEvent(tick=0, channel=0, data=[62, 67]),
   midi.NoteOnEvent(tick=53, channel=0, data=[62, 0]),
   midi.NoteOnEvent(tick=0, channel=0, data=[59, 67]),
   midi.NoteOnEvent(tick=53, channel=0, data=[59, 0]),
   midi.NoteOnEvent(tick=0, channel=0, data=[55, 67]),
   midi.NoteOnEvent(tick=53, channel=0, data=[55, 0]),
   midi.NoteOnEvent(tick=0, channel=0, data=[50, 63]),
   midi.NoteOnEvent(tick=16, channel=0, data=[50, 0]),
   midi.NoteOnEvent(tick=40, channel=0, data=[37, 56]),
   midi.ControlChangeEvent(tick=10, channel=0, data=[64, 0]),
   midi.ControlChangeEvent(tick=29, channel=0, data=[64, 127]),
   midi.NoteOnEvent(tick=441, channel=0, data=[49, 43]),
   midi.NoteOnEvent(tick=0, channel=0, data=[53, 51]),
   midi.NoteOnEvent(tick=0, channel=0, data=[44, 47]),
   midi.NoteOnEvent(tick=0, channel=0, data=[56, 56]),
   midi.ControlChangeEvent(tick=6, channel=0, data=[64, 0]),
   midi.ControlChangeEvent(tick=25, channel=0, data=[64, 127]),
   midi.NoteOnEvent(tick=209, channel=0, data=[56, 0]),
   midi.NoteOnEvent(tick=0, channel=0, data=[44, 0]),
   midi.NoteOnEvent(tick=0, channel=0, data=[46, 51]),
   midi.NoteOnEvent(tick=0, channel=0, data=[58, 61]),
   midi.NoteOnEvent(tick=240, channel=0, data=[58, 0]),
   midi.NoteOnEvent(tick=0, channel=0, data=[53, 0]),
   midi.NoteOnEvent(tick=0, channel=0, data=[46, 0]),
   midi.NoteOnEvent(tick=0, channel=0, data=[49, 0]),
   midi.NoteOnEvent(tick=0, channel=0, data=[52, 47]),
   midi.NoteOnEvent(tick=0, channel=0, data=[55, 47]),
   midi.NoteOnEvent(tick=0, channel=0, data=[47, 47]),
   midi.NoteOnEvent(tick=0, channel=0, data=[59, 63]),
   midi.ControlChangeEvent(tick=10, channel=0, data=[64, 0]),
   midi.ControlChangeEvent(tick=41, channel=0, data=[64, 127]),
   midi.NoteOnEvent(tick=429, channel=0, data=[55, 0]),
   midi.NoteOnEvent(tick=0, channel=0, data=[52, 0]),
   midi.ControlChangeEvent(tick=5, channel=0, data=[64, 0]),
   midi.ControlChangeEvent(tick=15, channel=0, data=[64, 127]),
   midi.NoteOnEvent(tick=220, channel=0, data=[59, 0]),
   midi.NoteOnEvent(tick=0, channel=0, data=[47, 0]),
   midi.NoteOnEvent(tick=0, channel=0, data=[49, 73]),
   midi.NoteOnEvent(tick=0, channel=0, data=[61, 73]),
   midi.NoteOnEvent(tick=180, channel=0, data=[37, 0]),
   midi.NoteOnEvent(tick=0, channel=0, data=[43, 47]),
   midi.NoteOnEvent(tick=60, channel=0, data=[61, 0]),
   midi.NoteOnEvent(tick=0, channel=0, data=[49, 0]),
   midi.NoteOnEvent(tick=0, channel=0, data=[53, 66]),
   midi.NoteOnEvent(tick=0, channel=0, data=[55, 66]),
   midi.NoteOnEvent(tick=0, channel=0, data=[59, 78]),
   midi.NoteOnEvent(tick=0, channel=0, data=[64, 78]),
   midi.ControlChangeEvent(tick=10, channel=0, data=[64, 0]),
   midi.ControlChangeEvent(tick=36, channel=0, data=[64, 127]),
   midi.NoteOnEvent(tick=194, channel=0, data=[64, 0]),
   midi.NoteOnEvent(tick=0, channel=0, data=[62, 73]),
   midi.NoteOnEvent(tick=180, channel=0, data=[43, 0]),
   midi.NoteOnEvent(tick=0, channel=0, data=[37, 47]),
   midi.NoteOnEvent(tick=60, channel=0, data=[59, 0]),
   midi.NoteOnEvent(tick=0, channel=0, data=[62, 0]),
   midi.NoteOnEvent(tick=0, channel=0, data=[53, 0]),
   midi.NoteOnEvent(tick=0, channel=0, data=[55, 0]),
   midi.NoteOnEvent(tick=0, channel=0, data=[49, 43]),
   midi.NoteOnEvent(tick=0, channel=0, data=[53, 43]),
   midi.NoteOnEvent(tick=0, channel=0, data=[44, 47]),
   midi.NoteOnEvent(tick=0, channel=0, data=[56, 56]),
   midi.ControlChangeEvent(tick=10, channel=0, data=[64, 0]),
   midi.ControlChangeEvent(tick=20, channel=0, data=[64, 127]),
   midi.NoteOnEvent(tick=210, channel=0, data=[56, 0]),
   midi.NoteOnEvent(tick=0, channel=0, data=[44, 0]),
   midi.NoteOnEvent(tick=0, channel=0, data=[46, 51]),
   midi.NoteOnEvent(tick=0, channel=0, data=[58, 61]),
   midi.NoteOnEvent(tick=240, channel=0, data=[58, 0]),
   midi.NoteOnEvent(tick=0, channel=0, data=[53, 0]),
   midi.NoteOnEvent(tick=0, channel=0, data=[46, 0]),
   midi.NoteOnEvent(tick=0, channel=0, data=[49, 0]),
   midi.NoteOnEvent(tick=0, channel=0, data=[52, 47]),
   midi.NoteOnEvent(tick=0, channel=0, data=[55, 56]),
   midi.NoteOnEvent(tick=0, channel=0, data=[47, 49]),
   midi.NoteOnEvent(tick=0, channel=0, data=[59, 63]),
   midi.ControlChangeEvent(tick=6, channel=0, data=[64, 0]),
   midi.ControlChangeEvent(tick=27, channel=0, data=[64, 127]),
   midi.NoteOnEvent(tick=447, channel=0, data=[55, 0]),
   midi.NoteOnEvent(tick=0, channel=0, data=[52, 0]),
   midi.ControlChangeEvent(tick=9, channel=0, data=[64, 0]),
   midi.ControlChangeEvent(tick=31, channel=0, data=[64, 127]),
   midi.NoteOnEvent(tick=200, channel=0, data=[59, 0]),
   midi.NoteOnEvent(tick=0, channel=0, data=[47, 0]),
   midi.NoteOnEvent(tick=0, channel=0, data=[49, 73]),
   midi.NoteOnEvent(tick=0, channel=0, data=[61, 73]),
   midi.NoteOnEvent(tick=180, channel=0, data=[37, 0]),
   midi.NoteOnEvent(tick=0, channel=0, data=[43, 47]),
   midi.NoteOnEvent(tick=60, channel=0, data=[61, 0]),
   midi.NoteOnEvent(tick=0, channel=0, data=[49, 0]),
   midi.NoteOnEvent(tick=0, channel=0, data=[53, 66]),
   midi.NoteOnEvent(tick=0, channel=0, data=[55, 66]),
   midi.NoteOnEvent(tick=0, channel=0, data=[59, 78]),
   midi.NoteOnEvent(tick=0, channel=0, data=[64, 78]),
   midi.ControlChangeEvent(tick=10, channel=0, data=[64, 0]),
   midi.ControlChangeEvent(tick=41, channel=0, data=[64, 127]),
   midi.NoteOnEvent(tick=189, channel=0, data=[64, 0]),
   midi.NoteOnEvent(tick=0, channel=0, data=[62, 73]),
   midi.NoteOnEvent(tick=180, channel=0, data=[43, 0]),
   midi.NoteOnEvent(tick=0, channel=0, data=[37, 56]),
   midi.NoteOnEvent(tick=60, channel=0, data=[59, 0]),
   midi.NoteOnEvent(tick=0, channel=0, data=[62, 0]),
   midi.NoteOnEvent(tick=0, channel=0, data=[53, 0]),
   midi.NoteOnEvent(tick=0, channel=0, data=[55, 0]),
   midi.NoteOnEvent(tick=0, channel=0, data=[49, 43]),
   midi.NoteOnEvent(tick=0, channel=0, data=[53, 43]),
   midi.NoteOnEvent(tick=0, channel=0, data=[44, 47]),
   midi.NoteOnEvent(tick=0, channel=0, data=[56, 56]),
   midi.ControlChangeEvent(tick=10, channel=0, data=[64, 0]),
   midi.ControlChangeEvent(tick=27, channel=0, data=[64, 127]),
   midi.NoteOnEvent(tick=203, channel=0, data=[56, 0]),
   midi.NoteOnEvent(tick=0, channel=0, data=[44, 0]),
   midi.NoteOnEvent(tick=0, channel=0, data=[46, 51]),
   midi.NoteOnEvent(tick=0, channel=0, data=[58, 61]),
   midi.NoteOnEvent(tick=240, channel=0, data=[58, 0]),
   midi.NoteOnEvent(tick=0, channel=0, data=[53, 0]),
   midi.NoteOnEvent(tick=0, channel=0, data=[46, 0]),
   midi.NoteOnEvent(tick=0, channel=0, data=[49, 0]),
   midi.NoteOnEvent(tick=0, channel=0, data=[52, 51]),
   midi.NoteOnEvent(tick=0, channel=0, data=[55, 51]),
   midi.NoteOnEvent(tick=0, channel=0, data=[47, 52]),
   midi.NoteOnEvent(tick=0, channel=0, data=[59, 65]),
   midi.ControlChangeEvent(tick=6, channel=0, data=[64, 0]),
   midi.ControlChangeEvent(tick=45, channel=0, data=[64, 127]),
   midi.NoteOnEvent(tick=189, channel=0, data=[59, 0]),
   midi.NoteOnEvent(tick=0, channel=0, data=[47, 0]),
   midi.NoteOnEvent(tick=0, channel=0, data=[49, 70]),
   midi.NoteOnEvent(tick=0, channel=0, data=[61, 70]),
   midi.NoteOnEvent(tick=240, channel=0, data=[61, 0]),
   midi.NoteOnEvent(tick=0, channel=0, data=[55, 0]),
   midi.NoteOnEvent(tick=0, channel=0, data=[49, 0]),
   midi.NoteOnEvent(tick=0, channel=0, data=[52, 0]),
   midi.NoteOnEvent(tick=0, channel=0, data=[55, 61]),
   midi.NoteOnEvent(tick=0, channel=0, data=[59, 72]),
   midi.NoteOnEvent(tick=0, channel=0, data=[51, 61]),
   midi.NoteOnEvent(tick=0, channel=0, data=[63, 72]),
   midi.ControlChangeEvent(tick=4, channel=0, data=[64, 0]),
   midi.ControlChangeEvent(tick=33, channel=0, data=[64, 127]),
   midi.NoteOnEvent(tick=203, channel=0, data=[63, 0]),
   midi.NoteOnEvent(tick=0, channel=0, data=[51, 0]),
   midi.NoteOnEvent(tick=0, channel=0, data=[52, 73]),
   midi.NoteOnEvent(tick=0, channel=0, data=[64, 73]),
   midi.NoteOnEvent(tick=180, channel=0, data=[37, 0]),
   midi.NoteOnEvent(tick=60, channel=0, data=[52, 0]),
   midi.NoteOnEvent(tick=0, channel=0, data=[55, 0]),
   midi.NoteOnEvent(tick=0, channel=0, data=[59, 0]),
   midi.NoteOnEvent(tick=0, channel=0, data=[64, 0]),
   midi.NoteOnEvent(tick=0, channel=0, data=[34, 67]),
   midi.ControlChangeEvent(tick=10, channel=0, data=[64, 0]),
   midi.ControlChangeEvent(tick=27, channel=0, data=[64, 127]),
   midi.NoteOnEvent(tick=443, channel=0, data=[56, 51]),
   midi.NoteOnEvent(tick=0, channel=0, data=[60, 61]),
   midi.NoteOnEvent(tick=0, channel=0, data=[53, 51]),
   midi.NoteOnEvent(tick=0, channel=0, data=[65, 61]),
   midi.ControlChangeEvent(tick=9, channel=0, data=[64, 0]),
   midi.ControlChangeEvent(tick=21, channel=0, data=[64, 127]),
   midi.NoteOnEvent(tick=210, channel=0, data=[65, 0]),
   midi.NoteOnEvent(tick=0, channel=0, data=[53, 0]),
   midi.NoteOnEvent(tick=0, channel=0, data=[55, 56]),
   midi.NoteOnEvent(tick=0, channel=0, data=[67, 67]),
   midi.NoteOnEvent(tick=240, channel=0, data=[67, 0]),
   midi.NoteOnEvent(tick=0, channel=0, data=[60, 0]),
   midi.NoteOnEvent(tick=0, channel=0, data=[55, 0]),
   midi.NoteOnEvent(tick=0, channel=0, data=[56, 0]),
   midi.NoteOnEvent(tick=0, channel=0, data=[60, 52]),
   midi.NoteOnEvent(tick=0, channel=0, data=[65, 57]),
   midi.NoteOnEvent(tick=0, channel=0, data=[56, 57]),
   midi.NoteOnEvent(tick=0, channel=0, data=[68, 68]),
   midi.ControlChangeEvent(tick=10, channel=0, data=[64, 0]),
   midi.ControlChangeEvent(tick=18, channel=0, data=[64, 127]),
   midi.NoteOnEvent(tick=452, channel=0, data=[65, 0]),
   midi.NoteOnEvent(tick=0, channel=0, data=[34, 0]),
   midi.NoteOnEvent(tick=0, channel=0, data=[60, 0]),
   midi.ControlChangeEvent(tick=10, channel=0, data=[64, 0]),
   midi.ControlChangeEvent(tick=21, channel=0, data=[64, 127]),
   midi.NoteOnEvent(tick=209, channel=0, data=[56, 0]),
   midi.NoteOnEvent(tick=0, channel=0, data=[68, 0]),
   midi.NoteOnEvent(tick=0, channel=0, data=[58, 68]),
   midi.NoteOnEvent(tick=0, channel=0, data=[70, 80]),
   midi.NoteOnEvent(tick=180, channel=0, data=[40, 56]),
   midi.NoteOnEvent(tick=60, channel=0, data=[70, 0]),
   midi.NoteOnEvent(tick=0, channel=0, data=[58, 0]),
   midi.NoteOnEvent(tick=0, channel=0, data=[61, 64]),
   midi.NoteOnEvent(tick=0, channel=0, data=[56, 64]),
   midi.NoteOnEvent(tick=0, channel=0, data=[64, 81]),
   midi.ControlChangeEvent(tick=6, channel=0, data=[64, 0]),
   midi.ControlChangeEvent(tick=26, channel=0, data=[64, 127]),
   midi.NoteOnEvent(tick=208, channel=0, data=[64, 0]),
   midi.NoteOnEvent(tick=0, channel=0, data=[62, 65]),
   midi.NoteOnEvent(tick=0, channel=0, data=[66, 65]),
   midi.NoteOnEvent(tick=0, channel=0, data=[59, 65]),
   midi.NoteOnEvent(tick=0, channel=0, data=[71, 71]),
   midi.NoteOnEvent(tick=180, channel=0, data=[40, 0]),
   midi.NoteOnEvent(tick=0, channel=0, data=[34, 56]),
   midi.NoteOnEvent(tick=60, channel=0, data=[59, 0]),
   midi.NoteOnEvent(tick=0, channel=0, data=[66, 0]),
   midi.NoteOnEvent(tick=0, channel=0, data=[56, 0]),
   midi.NoteOnEvent(tick=0, channel=0, data=[62, 0]),
   midi.NoteOnEvent(tick=0, channel=0, data=[61, 0]),
   midi.NoteOnEvent(tick=0, channel=0, data=[71, 0]),
   midi.NoteOnEvent(tick=0, channel=0, data=[56, 56]),
   midi.NoteOnEvent(tick=0, channel=0, data=[60, 56]),
   midi.NoteOnEvent(tick=0, channel=0, data=[53, 56]),
   midi.NoteOnEvent(tick=0, channel=0, data=[65, 67]),
   midi.ControlChangeEvent(tick=11, channel=0, data=[64, 0]),
   midi.ControlChangeEvent(tick=19, channel=0, data=[64, 127]),
   midi.NoteOnEvent(tick=210, channel=0, data=[65, 0]),
   midi.NoteOnEvent(tick=0, channel=0, data=[53, 0]),
   midi.NoteOnEvent(tick=0, channel=0, data=[55, 55]),
   midi.NoteOnEvent(tick=0, channel=0, data=[67, 65]),
   midi.NoteOnEvent(tick=240, channel=0, data=[67, 0]),
   midi.NoteOnEvent(tick=0, channel=0, data=[60, 0]),
   midi.NoteOnEvent(tick=0, channel=0, data=[55, 0]),
   midi.NoteOnEvent(tick=0, channel=0, data=[56, 0]),
   midi.NoteOnEvent(tick=0, channel=0, data=[60, 61]),
   midi.NoteOnEvent(tick=0, channel=0, data=[65, 61]),
   midi.NoteOnEvent(tick=0, channel=0, data=[56, 61]),
   midi.NoteOnEvent(tick=0, channel=0, data=[68, 72]),
   midi.ControlChangeEvent(tick=10, channel=0, data=[64, 0]),
   midi.ControlChangeEvent(tick=35, channel=0, data=[64, 127]),
   midi.NoteOnEvent(tick=195, channel=0, data=[68, 0]),
   midi.NoteOnEvent(tick=0, channel=0, data=[56, 0]),
   midi.NoteOnEvent(tick=0, channel=0, data=[58, 77]),
   midi.NoteOnEvent(tick=0, channel=0, data=[70, 77]),
   midi.NoteOnEvent(tick=240, channel=0, data=[70, 0]),
   midi.NoteOnEvent(tick=0, channel=0, data=[65, 0]),
   midi.NoteOnEvent(tick=0, channel=0, data=[58, 0]),
   midi.NoteOnEvent(tick=0, channel=0, data=[60, 0]),
   midi.NoteOnEvent(tick=0, channel=0, data=[65, 69]),
   midi.NoteOnEvent(tick=0, channel=0, data=[68, 69]),
   midi.NoteOnEvent(tick=0, channel=0, data=[60, 69]),
   midi.NoteOnEvent(tick=0, channel=0, data=[72, 82]),
   midi.ControlChangeEvent(tick=6, channel=0, data=[64, 0]),
   midi.ControlChangeEvent(tick=13, channel=0, data=[64, 127]),
   midi.NoteOnEvent(tick=221, channel=0, data=[72, 0]),
   midi.NoteOnEvent(tick=0, channel=0, data=[60, 0]),
   midi.NoteOnEvent(tick=0, channel=0, data=[62, 73]),
   midi.NoteOnEvent(tick=0, channel=0, data=[74, 86]),
   midi.NoteOnEvent(tick=180, channel=0, data=[34, 0]),
   midi.NoteOnEvent(tick=60, channel=0, data=[62, 0]),
   midi.NoteOnEvent(tick=0, channel=0, data=[65, 0]),
   midi.NoteOnEvent(tick=0, channel=0, data=[68, 0]),
   midi.NoteOnEvent(tick=0, channel=0, data=[74, 0]),
   midi.NoteOnEvent(tick=0, channel=0, data=[51, 95]),
   midi.ControlChangeEvent(tick=10, channel=0, data=[64, 0]),
   midi.ControlChangeEvent(tick=39, channel=0, data=[64, 127]),
   midi.NoteOnEvent(tick=31, channel=0, data=[44, 62]),
   midi.NoteOnEvent(tick=80, channel=0, data=[44, 0]),
   midi.NoteOnEvent(tick=0, channel=0, data=[39, 56]),
   midi.NoteOnEvent(tick=80, channel=0, data=[39, 0]),
   midi.NoteOnEvent(tick=0, channel=0, data=[51, 0]),
   midi.NoteOnEvent(tick=0, channel=0, data=[32, 51]),
   midi.NoteOnEvent(tick=80, channel=0, data=[32, 0]),
   midi.NoteOnEvent(tick=0, channel=0, data=[39, 53]),
   midi.NoteOnEvent(tick=80, channel=0, data=[39, 0]),
   midi.NoteOnEvent(tick=0, channel=0, data=[44, 53]),
   midi.NoteOnEvent(tick=80, channel=0, data=[44, 0]),
   midi.NoteOnEvent(tick=0, channel=0, data=[51, 56]),
   midi.ControlChangeEvent(tick=4, channel=0, data=[64, 0]),
   midi.ControlChangeEvent(tick=31, channel=0, data=[64, 127]),
   midi.NoteOnEvent(tick=45, channel=0, data=[51, 0]),
   midi.NoteOnEvent(tick=0, channel=0, data=[44, 53]),
   midi.NoteOnEvent(tick=80, channel=0, data=[44, 0]),
   midi.NoteOnEvent(tick=0, channel=0, data=[39, 53]),
   midi.NoteOnEvent(tick=80, channel=0, data=[39, 0]),
   midi.NoteOnEvent(tick=0, channel=0, data=[32, 56]),
   midi.NoteOnEvent(tick=80, channel=0, data=[32, 0]),
   midi.NoteOnEvent(tick=0, channel=0, data=[39, 53]),
   midi.NoteOnEvent(tick=80, channel=0, data=[39, 0]),
   midi.NoteOnEvent(tick=0, channel=0, data=[44, 56]),
   midi.NoteOnEvent(tick=80, channel=0, data=[44, 0]),
   midi.NoteOnEvent(tick=0, channel=0, data=[51, 56]),
   midi.ControlChangeEvent(tick=10, channel=0, data=[64, 0]),
   midi.ControlChangeEvent(tick=43, channel=0, data=[64, 127]),
   midi.NoteOnEvent(tick=27, channel=0, data=[51, 0]),
   midi.NoteOnEvent(tick=0, channel=0, data=[44, 56]),
   midi.NoteOnEvent(tick=80, channel=0, data=[44, 0]),
   midi.NoteOnEvent(tick=0, channel=0, data=[39, 56]),
   midi.NoteOnEvent(tick=80, channel=0, data=[39, 0]),
   midi.NoteOnEvent(tick=0, channel=0, data=[32, 56]),
   midi.NoteOnEvent(tick=80, channel=0, data=[32, 0]),
   midi.NoteOnEvent(tick=0, channel=0, data=[39, 56]),
   midi.NoteOnEvent(tick=80, channel=0, data=[39, 0]),
   midi.NoteOnEvent(tick=0, channel=0, data=[44, 56]),
   midi.NoteOnEvent(tick=80, channel=0, data=[44, 0]),
   midi.NoteOnEvent(tick=0, channel=0, data=[30, 63]),
   midi.ControlChangeEvent(tick=10, channel=0, data=[64, 0]),
   midi.ControlChangeEvent(tick=43, channel=0, data=[64, 127]),
   midi.NoteOnEvent(tick=27, channel=0, data=[30, 0]),
   midi.NoteOnEvent(tick=0, channel=0, data=[37, 61]),
   midi.NoteOnEvent(tick=80, channel=0, data=[37, 0]),
   midi.NoteOnEvent(tick=0, channel=0, data=[42, 61]),
   midi.NoteOnEvent(tick=80, channel=0, data=[42, 0]),
   midi.NoteOnEvent(tick=0, channel=0, data=[49, 65]),
   midi.NoteOnEvent(tick=80, channel=0, data=[49, 0]),
   midi.NoteOnEvent(tick=0, channel=0, data=[42, 67]),
   midi.NoteOnEvent(tick=80, channel=0, data=[42, 0]),
   midi.NoteOnEvent(tick=0, channel=0, data=[37, 67]),
   midi.NoteOnEvent(tick=80, channel=0, data=[37, 0]),
   midi.NoteOnEvent(tick=0, channel=0, data=[30, 68]),
   midi.ControlChangeEvent(tick=10, channel=0, data=[64, 0]),
   midi.ControlChangeEvent(tick=36, channel=0, data=[64, 127]),
   midi.NoteOnEvent(tick=34, channel=0, data=[30, 0]),
   midi.NoteOnEvent(tick=0, channel=0, data=[37, 67]),
   midi.NoteOnEvent(tick=80, channel=0, data=[37, 0]),
   midi.NoteOnEvent(tick=0, channel=0, data=[42, 67]),
   midi.NoteOnEvent(tick=80, channel=0, data=[42, 0]),
   midi.NoteOnEvent(tick=0, channel=0, data=[49, 68]),
   midi.NoteOnEvent(tick=80, channel=0, data=[49, 0]),
   midi.NoteOnEvent(tick=0, channel=0, data=[42, 67]),
   midi.NoteOnEvent(tick=80, channel=0, data=[42, 0]),
   midi.NoteOnEvent(tick=0, channel=0, data=[37, 67]),
   midi.NoteOnEvent(tick=80, channel=0, data=[37, 0]),
   midi.NoteOnEvent(tick=0, channel=0, data=[30, 73]),
   midi.ControlChangeEvent(tick=10, channel=0, data=[64, 0]),
   midi.ControlChangeEvent(tick=50, channel=0, data=[64, 127]),
   midi.NoteOnEvent(tick=20, channel=0, data=[30, 0]),
   midi.NoteOnEvent(tick=0, channel=0, data=[37, 72]),
   midi.NoteOnEvent(tick=80, channel=0, data=[37, 0]),
   midi.NoteOnEvent(tick=0, channel=0, data=[42, 72]),
   midi.NoteOnEvent(tick=80, channel=0, data=[42, 0]),
   midi.NoteOnEvent(tick=0, channel=0, data=[49, 73]),
   midi.NoteOnEvent(tick=80, channel=0, data=[49, 0]),
   midi.NoteOnEvent(tick=0, channel=0, data=[42, 72]),
   midi.NoteOnEvent(tick=80, channel=0, data=[42, 0]),
   midi.NoteOnEvent(tick=0, channel=0, data=[37, 72]),
   midi.NoteOnEvent(tick=80, channel=0, data=[37, 0]),
   midi.NoteOnEvent(tick=0, channel=0, data=[28, 78]),
   midi.ControlChangeEvent(tick=10, channel=0, data=[64, 0]),
   midi.ControlChangeEvent(tick=21, channel=0, data=[64, 127]),
   midi.NoteOnEvent(tick=49, channel=0, data=[28, 0]),
   midi.NoteOnEvent(tick=0, channel=0, data=[40, 73]),
   midi.NoteOnEvent(tick=80, channel=0, data=[40, 0]),
   midi.NoteOnEvent(tick=0, channel=0, data=[47, 73]),
   midi.NoteOnEvent(tick=80, channel=0, data=[47, 0]),
   midi.NoteOnEvent(tick=0, channel=0, data=[59, 78]),
   midi.NoteOnEvent(tick=0, channel=0, data=[52, 78]),
   midi.NoteOnEvent(tick=80, channel=0, data=[52, 0]),
   midi.NoteOnEvent(tick=0, channel=0, data=[59, 0]),
   midi.NoteOnEvent(tick=0, channel=0, data=[47, 78]),
   midi.NoteOnEvent(tick=80, channel=0, data=[47, 0]),
   midi.NoteOnEvent(tick=0, channel=0, data=[40, 78]),
   midi.NoteOnEvent(tick=80, channel=0, data=[40, 0]),
   midi.NoteOnEvent(tick=0, channel=0, data=[28, 78]),
   midi.ControlChangeEvent(tick=10, channel=0, data=[64, 0]),
   midi.ControlChangeEvent(tick=24, channel=0, data=[64, 127]),
   midi.NoteOnEvent(tick=46, channel=0, data=[28, 0]),
   midi.NoteOnEvent(tick=0, channel=0, data=[40, 78]),
   midi.NoteOnEvent(tick=80, channel=0, data=[40, 0]),
   midi.NoteOnEvent(tick=0, channel=0, data=[47, 78]),
   midi.NoteOnEvent(tick=80, channel=0, data=[47, 0]),
   midi.NoteOnEvent(tick=0, channel=0, data=[59, 81]),
   midi.NoteOnEvent(tick=0, channel=0, data=[52, 81]),
   midi.NoteOnEvent(tick=80, channel=0, data=[52, 0]),
   midi.NoteOnEvent(tick=0, channel=0, data=[59, 0]),
   midi.NoteOnEvent(tick=0, channel=0, data=[47, 78]),
   midi.NoteOnEvent(tick=80, channel=0, data=[47, 0]),
   midi.NoteOnEvent(tick=0, channel=0, data=[40, 78]),
   midi.NoteOnEvent(tick=80, channel=0, data=[40, 0]),
   midi.NoteOnEvent(tick=0, channel=0, data=[28, 87]),
   midi.ControlChangeEvent(tick=8, channel=0, data=[64, 0]),
   midi.ControlChangeEvent(tick=32, channel=0, data=[64, 127]),
   midi.NoteOnEvent(tick=40, channel=0, data=[28, 0]),
   midi.NoteOnEvent(tick=0, channel=0, data=[40, 83]),
   midi.NoteOnEvent(tick=80, channel=0, data=[40, 0]),
   midi.NoteOnEvent(tick=0, channel=0, data=[47, 87]),
   midi.NoteOnEvent(tick=80, channel=0, data=[47, 0]),
   midi.NoteOnEvent(tick=0, channel=0, data=[59, 91]),
   midi.NoteOnEvent(tick=0, channel=0, data=[52, 91]),
   midi.NoteOnEvent(tick=80, channel=0, data=[52, 0]),
   midi.NoteOnEvent(tick=0, channel=0, data=[59, 0]),
   midi.NoteOnEvent(tick=0, channel=0, data=[47, 90]),
   midi.NoteOnEvent(tick=80, channel=0, data=[47, 0]),
   midi.NoteOnEvent(tick=0, channel=0, data=[40, 90]),
   midi.NoteOnEvent(tick=80, channel=0, data=[40, 0]),
   midi.NoteOnEvent(tick=0, channel=0, data=[25, 91]),
   midi.ControlChangeEvent(tick=4, channel=0, data=[64, 0]),
   midi.ControlChangeEvent(tick=21, channel=0, data=[64, 127]),
   midi.NoteOnEvent(tick=55, channel=0, data=[25, 0]),
   midi.NoteOnEvent(tick=0, channel=0, data=[37, 83]),
   midi.NoteOnEvent(tick=80, channel=0, data=[37, 0]),
   midi.NoteOnEvent(tick=0, channel=0, data=[37, 83]),
   midi.NoteOnEvent(tick=80, channel=0, data=[37, 0]),
   midi.NoteOnEvent(tick=0, channel=0, data=[49, 91]),
   midi.NoteOnEvent(tick=80, channel=0, data=[49, 0]),
   midi.NoteOnEvent(tick=0, channel=0, data=[49, 87]),
   midi.NoteOnEvent(tick=80, channel=0, data=[49, 0]),
   midi.NoteOnEvent(tick=0, channel=0, data=[61, 87]),
   midi.NoteOnEvent(tick=80, channel=0, data=[61, 0]),
   midi.NoteOnEvent(tick=0, channel=0, data=[59, 85]),
   midi.NoteOnEvent(tick=0, channel=0, data=[56, 85]),
   midi.NoteOnEvent(tick=0, channel=0, data=[51, 85]),
   midi.ControlChangeEvent(tick=10, channel=0, data=[64, 0]),
   midi.ControlChangeEvent(tick=43, channel=0, data=[64, 127]),
   midi.NoteOnEvent(tick=27, channel=0, data=[51, 0]),
   midi.NoteOnEvent(tick=0, channel=0, data=[56, 0]),
   midi.NoteOnEvent(tick=0, channel=0, data=[59, 0]),
   midi.NoteOnEvent(tick=0, channel=0, data=[49, 90]),
   midi.NoteOnEvent(tick=80, channel=0, data=[49, 0]),
   midi.NoteOnEvent(tick=0, channel=0, data=[37, 91]),
   midi.NoteOnEvent(tick=80, channel=0, data=[37, 0]),
   midi.NoteOnEvent(tick=0, channel=0, data=[49, 96]),
   midi.NoteOnEvent(tick=80, channel=0, data=[49, 0]),
   midi.NoteOnEvent(tick=0, channel=0, data=[49, 91]),
   midi.NoteOnEvent(tick=80, channel=0, data=[49, 0]),
   midi.NoteOnEvent(tick=0, channel=0, data=[61, 91]),
   midi.NoteOnEvent(tick=80, channel=0, data=[61, 0]),
   midi.NoteOnEvent(tick=0, channel=0, data=[63, 87]),
   midi.NoteOnEvent(tick=0, channel=0, data=[59, 87]),
   midi.NoteOnEvent(tick=0, channel=0, data=[53, 87]),
   midi.ControlChangeEvent(tick=4, channel=0, data=[64, 0]),
   midi.ControlChangeEvent(tick=35, channel=0, data=[64, 127]),
   midi.NoteOnEvent(tick=41, channel=0, data=[53, 0]),
   midi.NoteOnEvent(tick=0, channel=0, data=[59, 0]),
   midi.NoteOnEvent(tick=0, channel=0, data=[63, 0]),
   midi.NoteOnEvent(tick=0, channel=0, data=[37, 87]),
   midi.NoteOnEvent(tick=80, channel=0, data=[37, 0]),
   midi.NoteOnEvent(tick=0, channel=0, data=[49, 87]),
   midi.NoteOnEvent(tick=80, channel=0, data=[49, 0]),
   midi.NoteOnEvent(tick=0, channel=0, data=[68, 91]),
   midi.NoteOnEvent(tick=0, channel=0, data=[61, 91]),
   midi.NoteOnEvent(tick=0, channel=0, data=[56, 91]),
   midi.NoteOnEvent(tick=80, channel=0, data=[56, 0]),
   midi.NoteOnEvent(tick=0, channel=0, data=[61, 0]),
   midi.NoteOnEvent(tick=0, channel=0, data=[68, 0]),
   midi.NoteOnEvent(tick=0, channel=0, data=[49, 97]),
   midi.NoteOnEvent(tick=80, channel=0, data=[49, 0]),
   midi.NoteOnEvent(tick=0, channel=0, data=[37, 98]),
   midi.NoteOnEvent(tick=80, channel=0, data=[37, 0]),
   midi.NoteOnEvent(tick=0, channel=0, data=[23, 101]),
   midi.ControlChangeEvent(tick=7, channel=0, data=[64, 0]),
   midi.ControlChangeEvent(tick=32, channel=0, data=[64, 127]),
   midi.NoteOnEvent(tick=1, channel=0, data=[23, 0]),
   midi.NoteOnEvent(tick=0, channel=0, data=[35, 81]),
   midi.NoteOnEvent(tick=40, channel=0, data=[35, 0]),
   midi.NoteOnEvent(tick=0, channel=0, data=[42, 81]),
   midi.NoteOnEvent(tick=40, channel=0, data=[42, 0]),
   midi.NoteOnEvent(tick=0, channel=0, data=[50, 72]),
   midi.NoteOnEvent(tick=40, channel=0, data=[50, 0]),
   midi.NoteOnEvent(tick=0, channel=0, data=[54, 80]),
   midi.NoteOnEvent(tick=40, channel=0, data=[54, 0]),
   midi.NoteOnEvent(tick=0, channel=0, data=[62, 73]),
   midi.NoteOnEvent(tick=40, channel=0, data=[62, 0]),
   midi.NoteOnEvent(tick=1, channel=0, data=[64, 78]),
   midi.ControlChangeEvent(tick=4, channel=0, data=[64, 0]),
   midi.ControlChangeEvent(tick=10, channel=0, data=[64, 127]),
   midi.NoteOnEvent(tick=19, channel=0, data=[60, 76]),
   midi.NoteOnEvent(tick=1, channel=0, data=[64, 0]),
   midi.NoteOnEvent(tick=33, channel=0, data=[60, 0]),
   midi.NoteOnEvent(tick=0, channel=0, data=[54, 76]),
   midi.NoteOnEvent(tick=34, channel=0, data=[54, 0]),
   midi.NoteOnEvent(tick=0, channel=0, data=[50, 75]),
   midi.NoteOnEvent(tick=34, channel=0, data=[50, 0]),
   midi.NoteOnEvent(tick=0, channel=0, data=[38, 75]),
   midi.NoteOnEvent(tick=34, channel=0, data=[38, 0]),
   midi.NoteOnEvent(tick=0, channel=0, data=[38, 73]),
   midi.NoteOnEvent(tick=34, channel=0, data=[38, 0]),
   midi.NoteOnEvent(tick=0, channel=0, data=[26, 78]),
   midi.NoteOnEvent(tick=34, channel=0, data=[26, 0]),
   midi.NoteOnEvent(tick=3, channel=0, data=[31, 91]),
   midi.ControlChangeEvent(tick=7, channel=0, data=[64, 0]),
   midi.ControlChangeEvent(tick=15, channel=0, data=[64, 127]),
   midi.NoteOnEvent(tick=25, channel=0, data=[43, 76]),
   midi.NoteOnEvent(tick=1, channel=0, data=[31, 0]),
   midi.NoteOnEvent(tick=47, channel=0, data=[43, 0]),
   midi.NoteOnEvent(tick=0, channel=0, data=[50, 76]),
   midi.NoteOnEvent(tick=48, channel=0, data=[50, 0]),
   midi.NoteOnEvent(tick=0, channel=0, data=[58, 78]),
   midi.NoteOnEvent(tick=48, channel=0, data=[58, 0]),
   midi.NoteOnEvent(tick=0, channel=0, data=[62, 75]),
   midi.NoteOnEvent(tick=48, channel=0, data=[62, 0]),
   midi.NoteOnEvent(tick=1, channel=0, data=[60, 75]),
   midi.ControlChangeEvent(tick=5, channel=0, data=[64, 0]),
   midi.ControlChangeEvent(tick=15, channel=0, data=[64, 127]),
   midi.NoteOnEvent(tick=27, channel=0, data=[56, 76]),
   midi.NoteOnEvent(tick=1, channel=0, data=[60, 0]),
   midi.NoteOnEvent(tick=47, channel=0, data=[56, 0]),
   midi.NoteOnEvent(tick=0, channel=0, data=[50, 78]),
   midi.NoteOnEvent(tick=48, channel=0, data=[50, 0]),
   midi.NoteOnEvent(tick=0, channel=0, data=[46, 76]),
   midi.NoteOnEvent(tick=48, channel=0, data=[46, 0]),
   midi.NoteOnEvent(tick=0, channel=0, data=[34, 76]),
   midi.NoteOnEvent(tick=48, channel=0, data=[34, 0]),
   midi.NoteOnEvent(tick=1, channel=0, data=[39, 97]),
   midi.ControlChangeEvent(tick=3, channel=0, data=[64, 0]),
   midi.ControlChangeEvent(tick=14, channel=0, data=[64, 127]),
   midi.NoteOnEvent(tick=30, channel=0, data=[46, 78]),
   midi.NoteOnEvent(tick=1, channel=0, data=[39, 0]),
   midi.NoteOnEvent(tick=47, channel=0, data=[46, 0]),
   midi.NoteOnEvent(tick=0, channel=0, data=[51, 76]),
   midi.NoteOnEvent(tick=48, channel=0, data=[51, 0]),
   midi.NoteOnEvent(tick=0, channel=0, data=[54, 72]),
   midi.NoteOnEvent(tick=48, channel=0, data=[54, 0]),
   midi.NoteOnEvent(tick=0, channel=0, data=[58, 72]),
   midi.NoteOnEvent(tick=48, channel=0, data=[58, 0]),
   midi.NoteOnEvent(tick=0, channel=0, data=[66, 70]),
   midi.NoteOnEvent(tick=40, channel=0, data=[66, 0]),
   midi.NoteOnEvent(tick=0, channel=0, data=[58, 70]),
   midi.NoteOnEvent(tick=40, channel=0, data=[58, 0]),
   midi.NoteOnEvent(tick=0, channel=0, data=[54, 70]),
   midi.NoteOnEvent(tick=40, channel=0, data=[54, 0]),
   midi.NoteOnEvent(tick=0, channel=0, data=[51, 70]),
   midi.NoteOnEvent(tick=40, channel=0, data=[51, 0]),
   midi.NoteOnEvent(tick=0, channel=0, data=[46, 70]),
   midi.NoteOnEvent(tick=40, channel=0, data=[46, 0]),
   midi.NoteOnEvent(tick=0, channel=0, data=[39, 70]),
   midi.NoteOnEvent(tick=40, channel=0, data=[39, 0]),
   midi.NoteOnEvent(tick=1, channel=0, data=[42, 91]),
   midi.ControlChangeEvent(tick=9, channel=0, data=[64, 0]),
   midi.ControlChangeEvent(tick=24, channel=0, data=[64, 127]),
   midi.NoteOnEvent(tick=14, channel=0, data=[49, 73]),
   midi.NoteOnEvent(tick=1, channel=0, data=[42, 0]),
   midi.NoteOnEvent(tick=47, channel=0, data=[49, 0]),
   midi.NoteOnEvent(tick=0, channel=0, data=[54, 72]),
   midi.NoteOnEvent(tick=48, channel=0, data=[54, 0]),
   midi.NoteOnEvent(tick=0, channel=0, data=[58, 68]),
   midi.NoteOnEvent(tick=48, channel=0, data=[58, 0]),
   midi.NoteOnEvent(tick=0, channel=0, data=[64, 67]),
   midi.NoteOnEvent(tick=48, channel=0, data=[64, 0]),
   midi.NoteOnEvent(tick=1, channel=0, data=[67, 67]),
   midi.ControlChangeEvent(tick=9, channel=0, data=[64, 0]),
   midi.ControlChangeEvent(tick=9, channel=0, data=[64, 127]),
   midi.NoteOnEvent(tick=29, channel=0, data=[64, 67]),
   midi.NoteOnEvent(tick=1, channel=0, data=[67, 0]),
   midi.NoteOnEvent(tick=47, channel=0, data=[64, 0]),
   midi.NoteOnEvent(tick=0, channel=0, data=[58, 67]),
   midi.NoteOnEvent(tick=48, channel=0, data=[58, 0]),
   midi.NoteOnEvent(tick=0, channel=0, data=[54, 65]),
   midi.NoteOnEvent(tick=48, channel=0, data=[54, 0]),
   midi.NoteOnEvent(tick=0, channel=0, data=[42, 65]),
   midi.NoteOnEvent(tick=48, channel=0, data=[42, 0]),
   midi.NoteOnEvent(tick=1, channel=0, data=[35, 85]),
   midi.ControlChangeEvent(tick=8, channel=0, data=[64, 0]),
   midi.ControlChangeEvent(tick=31, channel=0, data=[64, 127]),
   midi.NoteOnEvent(tick=8, channel=0, data=[42, 72]),
   midi.NoteOnEvent(tick=1, channel=0, data=[35, 0]),
   midi.NoteOnEvent(tick=47, channel=0, data=[42, 0]),
   midi.NoteOnEvent(tick=0, channel=0, data=[50, 67]),
   midi.NoteOnEvent(tick=48, channel=0, data=[50, 0]),
   midi.NoteOnEvent(tick=0, channel=0, data=[54, 67]),
   midi.NoteOnEvent(tick=48, channel=0, data=[54, 0]),
   midi.NoteOnEvent(tick=0, channel=0, data=[62, 65]),
   midi.NoteOnEvent(tick=48, channel=0, data=[62, 0]),
   midi.NoteOnEvent(tick=1, channel=0, data=[64, 63]),
   midi.ControlChangeEvent(tick=2, channel=0, data=[64, 0]),
   midi.ControlChangeEvent(tick=23, channel=0, data=[64, 127]),
   midi.NoteOnEvent(tick=22, channel=0, data=[60, 61]),
   midi.NoteOnEvent(tick=1, channel=0, data=[64, 0]),
   midi.NoteOnEvent(tick=47, channel=0, data=[60, 0]),
   midi.NoteOnEvent(tick=0, channel=0, data=[54, 63]),
   midi.NoteOnEvent(tick=48, channel=0, data=[54, 0]),
   midi.NoteOnEvent(tick=0, channel=0, data=[50, 65]),
   midi.NoteOnEvent(tick=48, channel=0, data=[50, 0]),
   midi.NoteOnEvent(tick=0, channel=0, data=[38, 65]),
   midi.NoteOnEvent(tick=48, channel=0, data=[38, 0]),
   midi.NoteOnEvent(tick=1, channel=0, data=[43, 72]),
   midi.ControlChangeEvent(tick=9, channel=0, data=[64, 0]),
   midi.ControlChangeEvent(tick=30, channel=0, data=[64, 127]),
   midi.NoteOnEvent(tick=8, channel=0, data=[50, 58]),
   midi.NoteOnEvent(tick=1, channel=0, data=[43, 0]),
   midi.NoteOnEvent(tick=47, channel=0, data=[50, 0]),
   midi.NoteOnEvent(tick=0, channel=0, data=[58, 58]),
   midi.NoteOnEvent(tick=48, channel=0, data=[58, 0]),
   midi.NoteOnEvent(tick=0, channel=0, data=[50, 57]),
   midi.NoteOnEvent(tick=48, channel=0, data=[50, 0]),
   midi.NoteOnEvent(tick=0, channel=0, data=[58, 57]),
   midi.NoteOnEvent(tick=48, channel=0, data=[58, 0]),
   midi.NoteOnEvent(tick=1, channel=0, data=[60, 57]),
   midi.ControlChangeEvent(tick=9, channel=0, data=[64, 0]),
   midi.ControlChangeEvent(tick=19, channel=0, data=[64, 127]),
   midi.NoteOnEvent(tick=19, channel=0, data=[56, 56]),
   midi.NoteOnEvent(tick=1, channel=0, data=[60, 0]),
   midi.NoteOnEvent(tick=47, channel=0, data=[56, 0]),
   midi.NoteOnEvent(tick=0, channel=0, data=[50, 56]),
   midi.NoteOnEvent(tick=48, channel=0, data=[50, 0]),
   midi.NoteOnEvent(tick=0, channel=0, data=[46, 56]),
   midi.NoteOnEvent(tick=48, channel=0, data=[46, 0]),
   midi.NoteOnEvent(tick=0, channel=0, data=[34, 56]),
   midi.NoteOnEvent(tick=48, channel=0, data=[34, 0]),
   midi.NoteOnEvent(tick=1, channel=0, data=[39, 70]),
   midi.ControlChangeEvent(tick=9, channel=0, data=[64, 0]),
   midi.ControlChangeEvent(tick=30, channel=0, data=[64, 127]),
   midi.NoteOnEvent(tick=8, channel=0, data=[46, 53]),
   midi.NoteOnEvent(tick=1, channel=0, data=[39, 0]),
   midi.NoteOnEvent(tick=47, channel=0, data=[46, 0]),
   midi.NoteOnEvent(tick=0, channel=0, data=[54, 53]),
   midi.NoteOnEvent(tick=48, channel=0, data=[54, 0]),
   midi.NoteOnEvent(tick=0, channel=0, data=[46, 53]),
   midi.NoteOnEvent(tick=48, channel=0, data=[46, 0]),
   midi.NoteOnEvent(tick=0, channel=0, data=[54, 51]),
   midi.NoteOnEvent(tick=48, channel=0, data=[54, 0]),
   midi.NoteOnEvent(tick=0, channel=0, data=[58, 51]),
   midi.NoteOnEvent(tick=48, channel=0, data=[58, 0]),
   midi.NoteOnEvent(tick=0, channel=0, data=[54, 51]),
   midi.NoteOnEvent(tick=48, channel=0, data=[54, 0]),
   midi.NoteOnEvent(tick=0, channel=0, data=[46, 47]),
   midi.NoteOnEvent(tick=48, channel=0, data=[46, 0]),
   midi.NoteOnEvent(tick=0, channel=0, data=[54, 47]),
   midi.NoteOnEvent(tick=48, channel=0, data=[54, 0]),
   midi.NoteOnEvent(tick=0, channel=0, data=[46, 47]),
   midi.NoteOnEvent(tick=48, channel=0, data=[46, 0]),
   midi.NoteOnEvent(tick=1, channel=0, data=[42, 56]),
   midi.ControlChangeEvent(tick=9, channel=0, data=[64, 0]),
   midi.NoteOnEvent(tick=39, channel=0, data=[42, 0]),
   midi.ControlChangeEvent(tick=0, channel=0, data=[64, 127]),
   midi.NoteOnEvent(tick=11, channel=0, data=[49, 47]),
   midi.NoteOnEvent(tick=48, channel=0, data=[49, 0]),
   midi.NoteOnEvent(tick=12, channel=0, data=[52, 47]),
   midi.NoteOnEvent(tick=48, channel=0, data=[52, 0]),
   midi.NoteOnEvent(tick=12, channel=0, data=[56, 47]),
   midi.NoteOnEvent(tick=48, channel=0, data=[56, 0]),
   midi.NoteOnEvent(tick=13, channel=0, data=[58, 47]),
   midi.ControlChangeEvent(tick=9, channel=0, data=[64, 0]),
   midi.ControlChangeEvent(tick=21, channel=0, data=[64, 127]),
   midi.NoteOnEvent(tick=17, channel=0, data=[55, 47]),
   midi.NoteOnEvent(tick=1, channel=0, data=[58, 0]),
   midi.NoteOnEvent(tick=47, channel=0, data=[55, 0]),
   midi.NoteOnEvent(tick=0, channel=0, data=[52, 45]),
   midi.NoteOnEvent(tick=48, channel=0, data=[52, 0]),
   midi.NoteOnEvent(tick=0, channel=0, data=[49, 45]),
   midi.NoteOnEvent(tick=48, channel=0, data=[49, 0]),
   midi.NoteOnEvent(tick=0, channel=0, data=[42, 45]),
   midi.NoteOnEvent(tick=48, channel=0, data=[42, 0]),
   midi.NoteOnEvent(tick=0, channel=0, data=[35, 40]),
   midi.ControlChangeEvent(tick=7, channel=0, data=[64, 0]),
   midi.ControlChangeEvent(tick=24, channel=0, data=[64, 127]),
   midi.NoteOnEvent(tick=89, channel=0, data=[35, 0]),
   midi.NoteOnEvent(tick=0, channel=0, data=[42, 40]),
   midi.NoteOnEvent(tick=120, channel=0, data=[42, 0]),
   midi.NoteOnEvent(tick=0, channel=0, data=[50, 38]),
   midi.NoteOnEvent(tick=120, channel=0, data=[50, 0]),
   midi.NoteOnEvent(tick=0, channel=0, data=[54, 38]),
   midi.NoteOnEvent(tick=120, channel=0, data=[54, 0]),
   midi.NoteOnEvent(tick=0, channel=0, data=[62, 38]),
   midi.NoteOnEvent(tick=120, channel=0, data=[62, 0]),
   midi.NoteOnEvent(tick=0, channel=0, data=[54, 36]),
   midi.NoteOnEvent(tick=120, channel=0, data=[54, 0]),
   midi.NoteOnEvent(tick=0, channel=0, data=[50, 38]),
   midi.NoteOnEvent(tick=120, channel=0, data=[50, 0]),
   midi.NoteOnEvent(tick=0, channel=0, data=[42, 38]),
   midi.NoteOnEvent(tick=120, channel=0, data=[42, 0]),
   midi.NoteOnEvent(tick=0, channel=0, data=[35, 36]),
   midi.ControlChangeEvent(tick=3, channel=0, data=[64, 0]),
   midi.ControlChangeEvent(tick=40, channel=0, data=[64, 127]),
   midi.NoteOnEvent(tick=77, channel=0, data=[35, 0]),
   midi.NoteOnEvent(tick=0, channel=0, data=[42, 36]),
   midi.NoteOnEvent(tick=120, channel=0, data=[42, 0]),
   midi.NoteOnEvent(tick=0, channel=0, data=[50, 35]),
   midi.NoteOnEvent(tick=120, channel=0, data=[50, 0]),
   midi.NoteOnEvent(tick=0, channel=0, data=[54, 35]),
   midi.NoteOnEvent(tick=120, channel=0, data=[54, 0]),
   midi.NoteOnEvent(tick=0, channel=0, data=[62, 33]),
   midi.NoteOnEvent(tick=120, channel=0, data=[62, 0]),
   midi.NoteOnEvent(tick=0, channel=0, data=[54, 33]),
   midi.NoteOnEvent(tick=120, channel=0, data=[54, 0]),
   midi.NoteOnEvent(tick=0, channel=0, data=[50, 33]),
   midi.NoteOnEvent(tick=120, channel=0, data=[50, 0]),
   midi.NoteOnEvent(tick=0, channel=0, data=[42, 31]),
   midi.NoteOnEvent(tick=120, channel=0, data=[42, 0]),
   midi.NoteOnEvent(tick=0, channel=0, data=[35, 33]),
   midi.NoteOnEvent(tick=0, channel=0, data=[47, 33]),
   midi.ControlChangeEvent(tick=6, channel=0, data=[64, 0]),
   midi.ControlChangeEvent(tick=37, channel=0, data=[64, 127]),
   midi.NoteOnEvent(tick=77, channel=0, data=[54, 30]),
   midi.NoteOnEvent(tick=120, channel=0, data=[54, 0]),
   midi.NoteOnEvent(tick=0, channel=0, data=[58, 54]),
   midi.NoteOnEvent(tick=120, channel=0, data=[70, 30]),
   midi.NoteOnEvent(tick=120, channel=0, data=[70, 0]),
   midi.NoteOnEvent(tick=0, channel=0, data=[74, 33]),
   midi.NoteOnEvent(tick=120, channel=0, data=[74, 0]),
   midi.NoteOnEvent(tick=0, channel=0, data=[66, 31]),
   midi.NoteOnEvent(tick=120, channel=0, data=[66, 0]),
   midi.NoteOnEvent(tick=0, channel=0, data=[58, 0]),
   midi.NoteOnEvent(tick=0, channel=0, data=[56, 45]),
   midi.NoteOnEvent(tick=120, channel=0, data=[68, 33]),
   midi.NoteOnEvent(tick=120, channel=0, data=[68, 0]),
   midi.NoteOnEvent(tick=0, channel=0, data=[56, 0]),
   midi.NoteOnEvent(tick=0, channel=0, data=[61, 45]),
   midi.ControlChangeEvent(tick=9, channel=0, data=[64, 0]),
   midi.ControlChangeEvent(tick=37, channel=0, data=[64, 127]),
   midi.NoteOnEvent(tick=74, channel=0, data=[73, 30]),
   midi.NoteOnEvent(tick=120, channel=0, data=[73, 0]),
   midi.NoteOnEvent(tick=0, channel=0, data=[66, 35]),
   midi.NoteOnEvent(tick=120, channel=0, data=[66, 0]),
   midi.NoteOnEvent(tick=0, channel=0, data=[68, 31]),
   midi.NoteOnEvent(tick=120, channel=0, data=[68, 0]),
   midi.NoteOnEvent(tick=0, channel=0, data=[61, 0]),
   midi.NoteOnEvent(tick=0, channel=0, data=[59, 36]),
   midi.NoteOnEvent(tick=120, channel=0, data=[71, 30]),
   midi.NoteOnEvent(tick=120, channel=0, data=[71, 0]),
   midi.NoteOnEvent(tick=0, channel=0, data=[66, 28]),
   midi.NoteOnEvent(tick=120, channel=0, data=[66, 0]),
   midi.NoteOnEvent(tick=0, channel=0, data=[68, 27]),
   midi.NoteOnEvent(tick=120, channel=0, data=[68, 0]),
   midi.NoteOnEvent(tick=0, channel=0, data=[35, 0]),
   midi.NoteOnEvent(tick=0, channel=0, data=[47, 0]),
   midi.NoteOnEvent(tick=0, channel=0, data=[59, 0]),
   midi.NoteOnEvent(tick=0, channel=0, data=[32, 36]),
   midi.ControlChangeEvent(tick=3, channel=0, data=[64, 0]),
   midi.ControlChangeEvent(tick=34, channel=0, data=[64, 127]),
   midi.NoteOnEvent(tick=83, channel=0, data=[32, 0]),
   midi.NoteOnEvent(tick=0, channel=0, data=[44, 38]),
   midi.NoteOnEvent(tick=120, channel=0, data=[44, 0]),
   midi.NoteOnEvent(tick=0, channel=0, data=[54, 38]),
   midi.NoteOnEvent(tick=120, channel=0, data=[54, 0]),
   midi.NoteOnEvent(tick=0, channel=0, data=[62, 38]),
   midi.NoteOnEvent(tick=120, channel=0, data=[62, 0]),
   midi.NoteOnEvent(tick=0, channel=0, data=[70, 38]),
   midi.NoteOnEvent(tick=30, channel=0, data=[82, 43]),
   midi.NoteOnEvent(tick=30, channel=0, data=[94, 47]),
   midi.NoteOnEvent(tick=660, channel=0, data=[94, 0]),
   midi.NoteOnEvent(tick=0, channel=0, data=[82, 0]),
   midi.NoteOnEvent(tick=0, channel=0, data=[70, 0]),
   midi.NoteOnEvent(tick=0, channel=0, data=[68, 38]),
   midi.NoteOnEvent(tick=120, channel=0, data=[92, 43]),
   midi.NoteOnEvent(tick=120, channel=0, data=[92, 0]),
   midi.NoteOnEvent(tick=0, channel=0, data=[68, 0]),
   midi.NoteOnEvent(tick=0, channel=0, data=[73, 38]),
   midi.ControlChangeEvent(tick=10, channel=0, data=[64, 0]),
   midi.ControlChangeEvent(tick=24, channel=0, data=[64, 127]),
   midi.NoteOnEvent(tick=26, channel=0, data=[85, 43]),
   midi.NoteOnEvent(tick=60, channel=0, data=[97, 47]),
   midi.NoteOnEvent(tick=360, channel=0, data=[97, 0]),
   midi.NoteOnEvent(tick=0, channel=0, data=[85, 0]),
   midi.NoteOnEvent(tick=0, channel=0, data=[73, 0]),
   midi.NoteOnEvent(tick=0, channel=0, data=[71, 33]),
   midi.NoteOnEvent(tick=60, channel=0, data=[83, 40]),
   midi.NoteOnEvent(tick=60, channel=0, data=[95, 45]),
   midi.NoteOnEvent(tick=360, channel=0, data=[95, 0]),
   midi.NoteOnEvent(tick=0, channel=0, data=[83, 0]),
   midi.NoteOnEvent(tick=0, channel=0, data=[71, 0]),
   midi.NoteOnEvent(tick=0, channel=0, data=[68, 31]),
   midi.ControlChangeEvent(tick=7, channel=0, data=[64, 0]),
   midi.ControlChangeEvent(tick=49, channel=0, data=[64, 127]),
   midi.NoteOnEvent(tick=4, channel=0, data=[80, 37]),
   midi.NoteOnEvent(tick=60, channel=0, data=[92, 43]),
   midi.NoteOnEvent(tick=600, channel=0, data=[92, 0]),
   midi.NoteOnEvent(tick=240, channel=0, data=[80, 0]),
   midi.NoteOnEvent(tick=0, channel=0, data=[68, 0]),
   midi.NoteOnEvent(tick=0, channel=0, data=[66, 33]),
   midi.ControlChangeEvent(tick=7, channel=0, data=[64, 0]),
   midi.ControlChangeEvent(tick=42, channel=0, data=[64, 127]),
   midi.NoteOnEvent(tick=11, channel=0, data=[78, 38]),
   midi.NoteOnEvent(tick=420, channel=0, data=[78, 0]),
   midi.NoteOnEvent(tick=0, channel=0, data=[66, 0]),
   midi.NoteOnEvent(tick=0, channel=0, data=[68, 28]),
   midi.NoteOnEvent(tick=60, channel=0, data=[80, 33]),
   midi.NoteOnEvent(tick=420, channel=0, data=[80, 0]),
   midi.NoteOnEvent(tick=0, channel=0, data=[68, 0]),
   midi.NoteOnEvent(tick=0, channel=0, data=[57, 42]),
   midi.ControlChangeEvent(tick=8, channel=0, data=[64, 0]),
   midi.ControlChangeEvent(tick=27, channel=0, data=[64, 127]),
   midi.NoteOnEvent(tick=25, channel=0, data=[57, 0]),
   midi.NoteOnEvent(tick=0, channel=0, data=[60, 42]),
   midi.NoteOnEvent(tick=60, channel=0, data=[60, 0]),
   midi.NoteOnEvent(tick=0, channel=0, data=[64, 42]),
   midi.NoteOnEvent(tick=60, channel=0, data=[64, 0]),
   midi.NoteOnEvent(tick=0, channel=0, data=[69, 42]),
   midi.NoteOnEvent(tick=60, channel=0, data=[69, 0]),
   midi.NoteOnEvent(tick=240, channel=0, data=[24, 34]),
   midi.ControlChangeEvent(tick=9, channel=0, data=[64, 0]),
   midi.ControlChangeEvent(tick=26, channel=0, data=[64, 127]),
   midi.NoteOnEvent(tick=25, channel=0, data=[24, 0]),
   midi.NoteOnEvent(tick=0, channel=0, data=[26, 34]),
   midi.NoteOnEvent(tick=60, channel=0, data=[26, 0]),
   midi.NoteOnEvent(tick=0, channel=0, data=[28, 34]),
   midi.NoteOnEvent(tick=60, channel=0, data=[28, 0]),
   midi.NoteOnEvent(tick=0, channel=0, data=[29, 34]),
   midi.NoteOnEvent(tick=60, channel=0, data=[29, 0]),
   midi.NoteOnEvent(tick=0, channel=0, data=[31, 34]),
   midi.NoteOnEvent(tick=60, channel=0, data=[31, 0]),
   midi.NoteOnEvent(tick=0, channel=0, data=[33, 34]),
   midi.NoteOnEvent(tick=60, channel=0, data=[33, 0]),
   midi.NoteOnEvent(tick=0, channel=0, data=[35, 36]),
   midi.NoteOnEvent(tick=60, channel=0, data=[35, 0]),
   midi.NoteOnEvent(tick=0, channel=0, data=[36, 36]),
   midi.NoteOnEvent(tick=60, channel=0, data=[36, 0]),
   midi.NoteOnEvent(tick=0, channel=0, data=[38, 34]),
   midi.ControlChangeEvent(tick=10, channel=0, data=[64, 0]),
   midi.ControlChangeEvent(tick=20, channel=0, data=[64, 127]),
   midi.NoteOnEvent(tick=23, channel=0, data=[38, 0]),
   midi.NoteOnEvent(tick=0, channel=0, data=[40, 34]),
   midi.NoteOnEvent(tick=53, channel=0, data=[40, 0]),
   midi.NoteOnEvent(tick=0, channel=0, data=[41, 34]),
   midi.NoteOnEvent(tick=53, channel=0, data=[41, 0]),
   midi.NoteOnEvent(tick=0, channel=0, data=[43, 34]),
   midi.NoteOnEvent(tick=53, channel=0, data=[43, 0]),
   midi.NoteOnEvent(tick=0, channel=0, data=[45, 34]),
   midi.NoteOnEvent(tick=53, channel=0, data=[45, 0]),
   midi.NoteOnEvent(tick=0, channel=0, data=[47, 34]),
   midi.NoteOnEvent(tick=53, channel=0, data=[47, 0]),
   midi.NoteOnEvent(tick=0, channel=0, data=[48, 32]),
   midi.NoteOnEvent(tick=53, channel=0, data=[48, 0]),
   midi.NoteOnEvent(tick=0, channel=0, data=[50, 32]),
   midi.NoteOnEvent(tick=53, channel=0, data=[50, 0]),
   midi.NoteOnEvent(tick=0, channel=0, data=[52, 34]),
   midi.NoteOnEvent(tick=53, channel=0, data=[52, 0]),
   midi.NoteOnEvent(tick=3, channel=0, data=[53, 36]),
   midi.ControlChangeEvent(tick=10, channel=0, data=[64, 0]),
   midi.ControlChangeEvent(tick=20, channel=0, data=[64, 127]),
   midi.NoteOnEvent(tick=30, channel=0, data=[53, 0]),
   midi.NoteOnEvent(tick=0, channel=0, data=[55, 36]),
   midi.NoteOnEvent(tick=60, channel=0, data=[55, 0]),
   midi.NoteOnEvent(tick=0, channel=0, data=[57, 34]),
   midi.NoteOnEvent(tick=60, channel=0, data=[57, 0]),
   midi.NoteOnEvent(tick=0, channel=0, data=[59, 32]),
   midi.NoteOnEvent(tick=60, channel=0, data=[59, 0]),
   midi.NoteOnEvent(tick=0, channel=0, data=[60, 32]),
   midi.NoteOnEvent(tick=60, channel=0, data=[60, 0]),
   midi.NoteOnEvent(tick=0, channel=0, data=[62, 31]),
   midi.NoteOnEvent(tick=60, channel=0, data=[62, 0]),
   midi.NoteOnEvent(tick=0, channel=0, data=[64, 31]),
   midi.NoteOnEvent(tick=60, channel=0, data=[64, 0]),
   midi.NoteOnEvent(tick=0, channel=0, data=[65, 31]),
   midi.NoteOnEvent(tick=60, channel=0, data=[65, 0]),
   midi.NoteOnEvent(tick=0, channel=0, data=[67, 31]),
   midi.ControlChangeEvent(tick=9, channel=0, data=[64, 0]),
   midi.ControlChangeEvent(tick=32, channel=0, data=[64, 127]),
   midi.NoteOnEvent(tick=6, channel=0, data=[67, 0]),
   midi.NoteOnEvent(tick=0, channel=0, data=[69, 31]),
   midi.NoteOnEvent(tick=47, channel=0, data=[69, 0]),
   midi.NoteOnEvent(tick=0, channel=0, data=[71, 31]),
   midi.NoteOnEvent(tick=47, channel=0, data=[71, 0]),
   midi.NoteOnEvent(tick=0, channel=0, data=[72, 32]),
   midi.NoteOnEvent(tick=47, channel=0, data=[72, 0]),
   midi.NoteOnEvent(tick=0, channel=0, data=[74, 32]),
   midi.NoteOnEvent(tick=47, channel=0, data=[74, 0]),
   midi.NoteOnEvent(tick=0, channel=0, data=[76, 34]),
   midi.NoteOnEvent(tick=47, channel=0, data=[76, 0]),
   midi.NoteOnEvent(tick=0, channel=0, data=[77, 34]),
   midi.NoteOnEvent(tick=47, channel=0, data=[77, 0]),
   midi.NoteOnEvent(tick=0, channel=0, data=[79, 37]),
   midi.NoteOnEvent(tick=47, channel=0, data=[79, 0]),
   midi.NoteOnEvent(tick=0, channel=0, data=[81, 37]),
   midi.NoteOnEvent(tick=47, channel=0, data=[81, 0]),
   midi.NoteOnEvent(tick=0, channel=0, data=[83, 37]),
   midi.NoteOnEvent(tick=47, channel=0, data=[83, 0]),
   midi.NoteOnEvent(tick=0, channel=0, data=[72, 34]),
   midi.ControlChangeEvent(tick=13, channel=0, data=[64, 0]),
   midi.ControlChangeEvent(tick=32, channel=0, data=[64, 127]),
   midi.NoteOnEvent(tick=2, channel=0, data=[72, 0]),
   midi.NoteOnEvent(tick=0, channel=0, data=[74, 31]),
   midi.NoteOnEvent(tick=47, channel=0, data=[74, 0]),
   midi.NoteOnEvent(tick=0, channel=0, data=[76, 32]),
   midi.NoteOnEvent(tick=47, channel=0, data=[76, 0]),
   midi.NoteOnEvent(tick=0, channel=0, data=[77, 32]),
   midi.NoteOnEvent(tick=47, channel=0, data=[77, 0]),
   midi.NoteOnEvent(tick=0, channel=0, data=[79, 34]),
   midi.NoteOnEvent(tick=47, channel=0, data=[79, 0]),
   midi.NoteOnEvent(tick=0, channel=0, data=[81, 37]),
   midi.NoteOnEvent(tick=47, channel=0, data=[81, 0]),
   midi.NoteOnEvent(tick=0, channel=0, data=[83, 32]),
   midi.NoteOnEvent(tick=47, channel=0, data=[83, 0]),
   midi.NoteOnEvent(tick=0, channel=0, data=[84, 32]),
   midi.NoteOnEvent(tick=47, channel=0, data=[84, 0]),
   midi.NoteOnEvent(tick=0, channel=0, data=[86, 34]),
   midi.NoteOnEvent(tick=47, channel=0, data=[86, 0]),
   midi.NoteOnEvent(tick=0, channel=0, data=[88, 37]),
   midi.NoteOnEvent(tick=47, channel=0, data=[88, 0]),
   midi.NoteOnEvent(tick=0, channel=0, data=[89, 40]),
   midi.NoteOnEvent(tick=47, channel=0, data=[89, 0]),
   midi.NoteOnEvent(tick=0, channel=0, data=[91, 44]),
   midi.ControlChangeEvent(tick=3, channel=0, data=[64, 0]),
   midi.NoteOnEvent(tick=44, channel=0, data=[91, 0]),
   midi.NoteOnEvent(tick=0, channel=0, data=[93, 40]),
   midi.ControlChangeEvent(tick=46, channel=0, data=[64, 127]),
   midi.NoteOnEvent(tick=1, channel=0, data=[93, 0]),
   midi.NoteOnEvent(tick=0, channel=0, data=[93, 37]),
   midi.NoteOnEvent(tick=47, channel=0, data=[93, 0]),
   midi.NoteOnEvent(tick=0, channel=0, data=[91, 34]),
   midi.NoteOnEvent(tick=47, channel=0, data=[91, 0]),
   midi.NoteOnEvent(tick=0, channel=0, data=[88, 32]),
   midi.NoteOnEvent(tick=47, channel=0, data=[88, 0]),
   midi.NoteOnEvent(tick=0, channel=0, data=[84, 32]),
   midi.NoteOnEvent(tick=47, channel=0, data=[84, 0]),
   midi.NoteOnEvent(tick=0, channel=0, data=[81, 31]),
   midi.NoteOnEvent(tick=47, channel=0, data=[81, 0]),
   midi.NoteOnEvent(tick=0, channel=0, data=[79, 31]),
   midi.NoteOnEvent(tick=47, channel=0, data=[79, 0]),
   midi.NoteOnEvent(tick=0, channel=0, data=[76, 31]),
   midi.NoteOnEvent(tick=47, channel=0, data=[76, 0]),
   midi.NoteOnEvent(tick=0, channel=0, data=[72, 34]),
   midi.ControlChangeEvent(tick=40, channel=0, data=[64, 0]),
   midi.NoteOnEvent(tick=7, channel=0, data=[72, 0]),
   midi.NoteOnEvent(tick=0, channel=0, data=[69, 32]),
   midi.ControlChangeEvent(tick=13, channel=0, data=[64, 127]),
   midi.NoteOnEvent(tick=34, channel=0, data=[69, 0]),
   midi.NoteOnEvent(tick=0, channel=0, data=[79, 32]),
   midi.NoteOnEvent(tick=47, channel=0, data=[79, 0]),
   midi.NoteOnEvent(tick=0, channel=0, data=[76, 34]),
   midi.NoteOnEvent(tick=47, channel=0, data=[76, 0]),
   midi.NoteOnEvent(tick=0, channel=0, data=[72, 34]),
   midi.NoteOnEvent(tick=47, channel=0, data=[72, 0]),
   midi.NoteOnEvent(tick=0, channel=0, data=[69, 37]),
   midi.NoteOnEvent(tick=47, channel=0, data=[69, 0]),
   midi.NoteOnEvent(tick=0, channel=0, data=[67, 37]),
   midi.NoteOnEvent(tick=47, channel=0, data=[67, 0]),
   midi.NoteOnEvent(tick=0, channel=0, data=[64, 40]),
   midi.NoteOnEvent(tick=47, channel=0, data=[64, 0]),
   midi.NoteOnEvent(tick=0, channel=0, data=[60, 40]),
   midi.NoteOnEvent(tick=47, channel=0, data=[60, 0]),
   midi.NoteOnEvent(tick=0, channel=0, data=[57, 40]),
   midi.NoteOnEvent(tick=47, channel=0, data=[57, 0]),
   midi.NoteOnEvent(tick=0, channel=0, data=[55, 40]),
   midi.NoteOnEvent(tick=40, channel=0, data=[55, 0]),
   midi.NoteOnEvent(tick=0, channel=0, data=[48, 32]),
   midi.ControlChangeEvent(tick=10, channel=0, data=[64, 0]),
   midi.ControlChangeEvent(tick=18, channel=0, data=[64, 127]),
   midi.NoteOnEvent(tick=9, channel=0, data=[48, 0]),
   midi.NoteOnEvent(tick=0, channel=0, data=[55, 34]),
   midi.NoteOnEvent(tick=37, channel=0, data=[55, 0]),
   midi.NoteOnEvent(tick=0, channel=0, data=[60, 34]),
   midi.NoteOnEvent(tick=37, channel=0, data=[60, 0]),
   midi.NoteOnEvent(tick=0, channel=0, data=[64, 34]),
   midi.NoteOnEvent(tick=37, channel=0, data=[64, 0]),
   midi.NoteOnEvent(tick=0, channel=0, data=[67, 34]),
   midi.NoteOnEvent(tick=37, channel=0, data=[67, 0]),
   midi.NoteOnEvent(tick=0, channel=0, data=[69, 34]),
   midi.NoteOnEvent(tick=37, channel=0, data=[69, 0]),
   midi.NoteOnEvent(tick=0, channel=0, data=[67, 34]),
   midi.NoteOnEvent(tick=37, channel=0, data=[67, 0]),
   midi.NoteOnEvent(tick=0, channel=0, data=[64, 34]),
   midi.NoteOnEvent(tick=37, channel=0, data=[64, 0]),
   midi.NoteOnEvent(tick=0, channel=0, data=[60, 34]),
   midi.NoteOnEvent(tick=37, channel=0, data=[60, 0]),
   midi.NoteOnEvent(tick=0, channel=0, data=[55, 34]),
   midi.NoteOnEvent(tick=37, channel=0, data=[55, 0]),
   midi.NoteOnEvent(tick=0, channel=0, data=[48, 34]),
   midi.NoteOnEvent(tick=30, channel=0, data=[48, 0]),
   midi.NoteOnEvent(tick=7, channel=0, data=[48, 34]),
   midi.NoteOnEvent(tick=37, channel=0, data=[48, 0]),
   midi.NoteOnEvent(tick=0, channel=0, data=[43, 34]),
   midi.NoteOnEvent(tick=36, channel=0, data=[43, 0]),
   midi.NoteOnEvent(tick=0, channel=0, data=[36, 29]),
   midi.ControlChangeEvent(tick=10, channel=0, data=[64, 0]),
   midi.NoteOnEvent(tick=27, channel=0, data=[36, 0]),
   midi.NoteOnEvent(tick=0, channel=0, data=[43, 29]),
   midi.ControlChangeEvent(tick=10, channel=0, data=[64, 127]),
   midi.NoteOnEvent(tick=27, channel=0, data=[43, 0]),
   midi.NoteOnEvent(tick=0, channel=0, data=[48, 29]),
   midi.NoteOnEvent(tick=37, channel=0, data=[48, 0]),
   midi.NoteOnEvent(tick=0, channel=0, data=[52, 29]),
   midi.NoteOnEvent(tick=37, channel=0, data=[52, 0]),
   midi.NoteOnEvent(tick=0, channel=0, data=[55, 29]),
   midi.NoteOnEvent(tick=37, channel=0, data=[55, 0]),
   midi.NoteOnEvent(tick=0, channel=0, data=[57, 29]),
   midi.NoteOnEvent(tick=37, channel=0, data=[57, 0]),
   midi.NoteOnEvent(tick=0, channel=0, data=[55, 29]),
   midi.NoteOnEvent(tick=37, channel=0, data=[55, 0]),
   midi.NoteOnEvent(tick=0, channel=0, data=[52, 29]),
   midi.NoteOnEvent(tick=37, channel=0, data=[52, 0]),
   midi.NoteOnEvent(tick=0, channel=0, data=[48, 29]),
   midi.NoteOnEvent(tick=37, channel=0, data=[48, 0]),
   midi.NoteOnEvent(tick=0, channel=0, data=[43, 29]),
   midi.NoteOnEvent(tick=37, channel=0, data=[43, 0]),
   midi.NoteOnEvent(tick=0, channel=0, data=[36, 29]),
   midi.NoteOnEvent(tick=37, channel=0, data=[36, 0]),
   midi.NoteOnEvent(tick=0, channel=0, data=[43, 29]),
   midi.NoteOnEvent(tick=37, channel=0, data=[43, 0]),
   midi.NoteOnEvent(tick=0, channel=0, data=[36, 29]),
   midi.NoteOnEvent(tick=36, channel=0, data=[36, 0]),
   midi.NoteOnEvent(tick=0, channel=0, data=[30, 30]),
   midi.ControlChangeEvent(tick=7, channel=0, data=[64, 0]),
   midi.ControlChangeEvent(tick=32, channel=0, data=[64, 127]),
   midi.NoteOnEvent(tick=51, channel=0, data=[30, 0]),
   midi.NoteOnEvent(tick=0, channel=0, data=[32, 30]),
   midi.NoteOnEvent(tick=60, channel=0, data=[32, 0]),
   midi.NoteOnEvent(tick=15, channel=0, data=[34, 30]),
   midi.NoteOnEvent(tick=60, channel=0, data=[34, 0]),
   midi.NoteOnEvent(tick=15, channel=0, data=[37, 30]),
   midi.NoteOnEvent(tick=75, channel=0, data=[39, 30]),
   midi.NoteOnEvent(tick=5, channel=0, data=[37, 0]),
   midi.NoteOnEvent(tick=70, channel=0, data=[42, 30]),
   midi.NoteOnEvent(tick=5, channel=0, data=[39, 0]),
   midi.NoteOnEvent(tick=70, channel=0, data=[44, 33]),
   midi.NoteOnEvent(tick=5, channel=0, data=[42, 0]),
   midi.ControlChangeEvent(tick=13, channel=0, data=[64, 0]),
   midi.ControlChangeEvent(tick=27, channel=0, data=[64, 127]),
   midi.NoteOnEvent(tick=30, channel=0, data=[46, 33]),
   midi.NoteOnEvent(tick=5, channel=0, data=[44, 0]),
   midi.NoteOnEvent(tick=70, channel=0, data=[49, 30]),
   midi.NoteOnEvent(tick=5, channel=0, data=[46, 0]),
   midi.NoteOnEvent(tick=70, channel=0, data=[51, 30]),
   midi.NoteOnEvent(tick=5, channel=0, data=[49, 0]),
   midi.NoteOnEvent(tick=70, channel=0, data=[54, 30]),
   midi.NoteOnEvent(tick=5, channel=0, data=[51, 0]),
   midi.NoteOnEvent(tick=70, channel=0, data=[56, 30]),
   midi.NoteOnEvent(tick=5, channel=0, data=[54, 0]),
   midi.NoteOnEvent(tick=70, channel=0, data=[58, 30]),
   midi.NoteOnEvent(tick=5, channel=0, data=[56, 0]),
   midi.ControlChangeEvent(tick=50, channel=0, data=[64, 0]),
   midi.ControlChangeEvent(tick=20, channel=0, data=[64, 127]),
   midi.NoteOnEvent(tick=0, channel=0, data=[61, 33]),
   midi.NoteOnEvent(tick=5, channel=0, data=[58, 0]),
   midi.NoteOnEvent(tick=70, channel=0, data=[63, 33]),
   midi.NoteOnEvent(tick=5, channel=0, data=[61, 0]),
   midi.NoteOnEvent(tick=70, channel=0, data=[66, 30]),
   midi.NoteOnEvent(tick=5, channel=0, data=[63, 0]),
   midi.NoteOnEvent(tick=70, channel=0, data=[68, 28]),
   midi.NoteOnEvent(tick=5, channel=0, data=[66, 0]),
   midi.NoteOnEvent(tick=70, channel=0, data=[70, 28]),
   midi.NoteOnEvent(tick=5, channel=0, data=[68, 0]),
   midi.NoteOnEvent(tick=70, channel=0, data=[73, 27]),
   midi.NoteOnEvent(tick=5, channel=0, data=[70, 0]),
   midi.NoteOnEvent(tick=70, channel=0, data=[75, 30]),
   midi.NoteOnEvent(tick=5, channel=0, data=[73, 0]),
   midi.ControlChangeEvent(tick=1, channel=0, data=[64, 0]),
   midi.ControlChangeEvent(tick=29, channel=0, data=[64, 127]),
   midi.NoteOnEvent(tick=205, channel=0, data=[75, 0]),
   midi.NoteOnEvent(tick=240, channel=0, data=[42, 35]),
   midi.ControlChangeEvent(tick=8, channel=0, data=[64, 0]),
   midi.ControlChangeEvent(tick=15, channel=0, data=[64, 127]),
   midi.NoteOnEvent(tick=57, channel=0, data=[42, 0]),
   midi.NoteOnEvent(tick=0, channel=0, data=[49, 31]),
   midi.NoteOnEvent(tick=80, channel=0, data=[49, 0]),
   midi.NoteOnEvent(tick=0, channel=0, data=[58, 27]),
   midi.NoteOnEvent(tick=80, channel=0, data=[58, 0]),
   midi.NoteOnEvent(tick=0, channel=0, data=[58, 33]),
   midi.ControlChangeEvent(tick=5, channel=0, data=[64, 0]),
   midi.ControlChangeEvent(tick=24, channel=0, data=[64, 127]),
   midi.NoteOnEvent(tick=31, channel=0, data=[58, 0]),
   midi.NoteOnEvent(tick=0, channel=0, data=[61, 33]),
   midi.NoteOnEvent(tick=60, channel=0, data=[61, 0]),
   midi.NoteOnEvent(tick=0, channel=0, data=[65, 33]),
   midi.NoteOnEvent(tick=60, channel=0, data=[65, 0]),
   midi.NoteOnEvent(tick=0, channel=0, data=[63, 33]),
   midi.NoteOnEvent(tick=60, channel=0, data=[63, 0]),
   midi.NoteOnEvent(tick=0, channel=0, data=[58, 33]),
   midi.ControlChangeEvent(tick=2, channel=0, data=[64, 0]),
   midi.ControlChangeEvent(tick=17, channel=0, data=[64, 127]),
   midi.NoteOnEvent(tick=41, channel=0, data=[58, 0]),
   midi.NoteOnEvent(tick=0, channel=0, data=[61, 33]),
   midi.NoteOnEvent(tick=60, channel=0, data=[61, 0]),
   midi.NoteOnEvent(tick=0, channel=0, data=[65, 33]),
   midi.NoteOnEvent(tick=60, channel=0, data=[65, 0]),
   midi.NoteOnEvent(tick=0, channel=0, data=[63, 33]),
   midi.NoteOnEvent(tick=60, channel=0, data=[63, 0]),
   midi.NoteOnEvent(tick=0, channel=0, data=[58, 33]),
   midi.NoteOnEvent(tick=60, channel=0, data=[58, 0]),
   midi.NoteOnEvent(tick=0, channel=0, data=[61, 33]),
   midi.NoteOnEvent(tick=60, channel=0, data=[61, 0]),
   midi.NoteOnEvent(tick=0, channel=0, data=[65, 36]),
   midi.NoteOnEvent(tick=60, channel=0, data=[65, 0]),
   midi.NoteOnEvent(tick=0, channel=0, data=[63, 33]),
   midi.NoteOnEvent(tick=60, channel=0, data=[63, 0]),
   midi.ControlChangeEvent(tick=0, channel=0, data=[64, 0]),
   midi.NoteOnEvent(tick=0, channel=0, data=[58, 33]),
   midi.ControlChangeEvent(tick=16, channel=0, data=[64, 127]),
   midi.NoteOnEvent(tick=44, channel=0, data=[58, 0]),
   midi.NoteOnEvent(tick=0, channel=0, data=[61, 33]),
   midi.NoteOnEvent(tick=60, channel=0, data=[61, 0]),
   midi.NoteOnEvent(tick=0, channel=0, data=[65, 33]),
   midi.NoteOnEvent(tick=60, channel=0, data=[65, 0]),
   midi.NoteOnEvent(tick=0, channel=0, data=[63, 33]),
   midi.NoteOnEvent(tick=60, channel=0, data=[63, 0]),
   midi.NoteOnEvent(tick=0, channel=0, data=[58, 33]),
   midi.NoteOnEvent(tick=60, channel=0, data=[58, 0]),
   midi.NoteOnEvent(tick=0, channel=0, data=[61, 33]),
   midi.NoteOnEvent(tick=60, channel=0, data=[61, 0]),
   midi.NoteOnEvent(tick=0, channel=0, data=[65, 33]),
   midi.NoteOnEvent(tick=60, channel=0, data=[65, 0]),
   midi.NoteOnEvent(tick=0, channel=0, data=[63, 33]),
   midi.NoteOnEvent(tick=60, channel=0, data=[63, 0]),
   midi.NoteOnEvent(tick=0, channel=0, data=[58, 33]),
   midi.ControlChangeEvent(tick=2, channel=0, data=[64, 0]),
   midi.ControlChangeEvent(tick=11, channel=0, data=[64, 127]),
   midi.NoteOnEvent(tick=47, channel=0, data=[58, 0]),
   midi.NoteOnEvent(tick=0, channel=0, data=[61, 33]),
   midi.NoteOnEvent(tick=60, channel=0, data=[61, 0]),
   midi.NoteOnEvent(tick=0, channel=0, data=[65, 33]),
   midi.NoteOnEvent(tick=60, channel=0, data=[65, 0]),
   midi.NoteOnEvent(tick=0, channel=0, data=[63, 33]),
   midi.NoteOnEvent(tick=60, channel=0, data=[63, 0]),
   midi.NoteOnEvent(tick=0, channel=0, data=[58, 33]),
   midi.NoteOnEvent(tick=60, channel=0, data=[58, 0]),
   midi.NoteOnEvent(tick=0, channel=0, data=[61, 33]),
   midi.NoteOnEvent(tick=60, channel=0, data=[61, 0]),
   midi.NoteOnEvent(tick=0, channel=0, data=[65, 33]),
   midi.NoteOnEvent(tick=60, channel=0, data=[65, 0]),
   midi.NoteOnEvent(tick=0, channel=0, data=[63, 33]),
   midi.NoteOnEvent(tick=60, channel=0, data=[63, 0]),
   midi.NoteOnEvent(tick=0, channel=0, data=[57, 36]),
   midi.ControlChangeEvent(tick=5, channel=0, data=[64, 0]),
   midi.ControlChangeEvent(tick=14, channel=0, data=[64, 127]),
   midi.NoteOnEvent(tick=41, channel=0, data=[57, 0]),
   midi.NoteOnEvent(tick=0, channel=0, data=[60, 33]),
   midi.NoteOnEvent(tick=60, channel=0, data=[60, 0]),
   midi.NoteOnEvent(tick=0, channel=0, data=[64, 38]),
   midi.NoteOnEvent(tick=60, channel=0, data=[64, 0]),
   midi.NoteOnEvent(tick=0, channel=0, data=[62, 33]),
   midi.NoteOnEvent(tick=60, channel=0, data=[62, 0]),
   midi.NoteOnEvent(tick=0, channel=0, data=[60, 38]),
   midi.NoteOnEvent(tick=60, channel=0, data=[60, 0]),
   midi.NoteOnEvent(tick=0, channel=0, data=[63, 33]),
   midi.NoteOnEvent(tick=60, channel=0, data=[63, 0]),
   midi.NoteOnEvent(tick=0, channel=0, data=[67, 38]),
   midi.NoteOnEvent(tick=60, channel=0, data=[67, 0]),
   midi.NoteOnEvent(tick=0, channel=0, data=[65, 36]),
   midi.NoteOnEvent(tick=60, channel=0, data=[65, 0]),
   midi.NoteOnEvent(tick=0, channel=0, data=[54, 33]),
   midi.ControlChangeEvent(tick=10, channel=0, data=[64, 0]),
   midi.ControlChangeEvent(tick=22, channel=0, data=[64, 127]),
   midi.NoteOnEvent(tick=8, channel=0, data=[54, 0]),
   midi.NoteOnEvent(tick=0, channel=0, data=[58, 33]),
   midi.NoteOnEvent(tick=40, channel=0, data=[58, 0]),
   midi.NoteOnEvent(tick=0, channel=0, data=[61, 33]),
   midi.NoteOnEvent(tick=40, channel=0, data=[61, 0]),
   midi.NoteOnEvent(tick=0, channel=0, data=[65, 33]),
   midi.NoteOnEvent(tick=60, channel=0, data=[65, 0]),
   midi.NoteOnEvent(tick=0, channel=0, data=[63, 33]),
   midi.NoteOnEvent(tick=60, channel=0, data=[63, 0]),
   midi.NoteOnEvent(tick=0, channel=0, data=[58, 33]),
   midi.NoteOnEvent(tick=60, channel=0, data=[58, 0]),
   midi.NoteOnEvent(tick=0, channel=0, data=[61, 33]),
   midi.NoteOnEvent(tick=60, channel=0, data=[61, 0]),
   midi.NoteOnEvent(tick=0, channel=0, data=[65, 38]),
   midi.NoteOnEvent(tick=60, channel=0, data=[65, 0]),
   midi.NoteOnEvent(tick=0, channel=0, data=[63, 33]),
   midi.NoteOnEvent(tick=60, channel=0, data=[63, 0]),
   midi.NoteOnEvent(tick=0, channel=0, data=[58, 33]),
   midi.ControlChangeEvent(tick=10, channel=0, data=[64, 0]),
   midi.ControlChangeEvent(tick=34, channel=0, data=[64, 127]),
   midi.NoteOnEvent(tick=16, channel=0, data=[58, 0]),
   midi.NoteOnEvent(tick=0, channel=0, data=[61, 33]),
   midi.NoteOnEvent(tick=60, channel=0, data=[61, 0]),
   midi.NoteOnEvent(tick=0, channel=0, data=[65, 33]),
   midi.NoteOnEvent(tick=60, channel=0, data=[65, 0]),
   midi.NoteOnEvent(tick=0, channel=0, data=[63, 33]),
   midi.NoteOnEvent(tick=60, channel=0, data=[63, 0]),
   midi.NoteOnEvent(tick=0, channel=0, data=[58, 38]),
   midi.NoteOnEvent(tick=60, channel=0, data=[58, 0]),
   midi.NoteOnEvent(tick=0, channel=0, data=[61, 33]),
   midi.NoteOnEvent(tick=60, channel=0, data=[61, 0]),
   midi.NoteOnEvent(tick=0, channel=0, data=[65, 38]),
   midi.NoteOnEvent(tick=60, channel=0, data=[65, 0]),
   midi.NoteOnEvent(tick=0, channel=0, data=[63, 33]),
   midi.NoteOnEvent(tick=60, channel=0, data=[63, 0]),
   midi.NoteOnEvent(tick=0, channel=0, data=[57, 38]),
   midi.ControlChangeEvent(tick=2, channel=0, data=[64, 0]),
   midi.ControlChangeEvent(tick=14, channel=0, data=[64, 127]),
   midi.NoteOnEvent(tick=44, channel=0, data=[57, 0]),
   midi.NoteOnEvent(tick=0, channel=0, data=[60, 38]),
   midi.NoteOnEvent(tick=60, channel=0, data=[60, 0]),
   midi.NoteOnEvent(tick=0, channel=0, data=[64, 38]),
   midi.NoteOnEvent(tick=60, channel=0, data=[64, 0]),
   midi.NoteOnEvent(tick=0, channel=0, data=[62, 36]),
   midi.NoteOnEvent(tick=60, channel=0, data=[62, 0]),
   midi.NoteOnEvent(tick=0, channel=0, data=[60, 38]),
   midi.NoteOnEvent(tick=60, channel=0, data=[60, 0]),
   midi.NoteOnEvent(tick=0, channel=0, data=[63, 33]),
   midi.NoteOnEvent(tick=60, channel=0, data=[63, 0]),
   midi.NoteOnEvent(tick=0, channel=0, data=[68, 38]),
   midi.NoteOnEvent(tick=60, channel=0, data=[68, 0]),
   midi.NoteOnEvent(tick=0, channel=0, data=[66, 36]),
   midi.NoteOnEvent(tick=60, channel=0, data=[66, 0]),
   midi.NoteOnEvent(tick=0, channel=0, data=[54, 49]),
   midi.ControlChangeEvent(tick=5, channel=0, data=[64, 0]),
   midi.ControlChangeEvent(tick=32, channel=0, data=[64, 127]),
   midi.NoteOnEvent(tick=3, channel=0, data=[58, 33]),
   midi.NoteOnEvent(tick=40, channel=0, data=[58, 0]),
   midi.NoteOnEvent(tick=0, channel=0, data=[61, 33]),
   midi.NoteOnEvent(tick=40, channel=0, data=[61, 0]),
   midi.NoteOnEvent(tick=0, channel=0, data=[65, 33]),
   midi.NoteOnEvent(tick=60, channel=0, data=[65, 0]),
   midi.NoteOnEvent(tick=0, channel=0, data=[63, 33]),
   midi.NoteOnEvent(tick=60, channel=0, data=[63, 0]),
   midi.NoteOnEvent(tick=0, channel=0, data=[58, 33]),
   midi.NoteOnEvent(tick=60, channel=0, data=[58, 0]),
   midi.NoteOnEvent(tick=0, channel=0, data=[61, 33]),
   midi.NoteOnEvent(tick=60, channel=0, data=[61, 0]),
   midi.NoteOnEvent(tick=0, channel=0, data=[65, 38]),
   midi.NoteOnEvent(tick=60, channel=0, data=[65, 0]),
   midi.NoteOnEvent(tick=0, channel=0, data=[63, 33]),
   midi.NoteOnEvent(tick=60, channel=0, data=[63, 0]),
   midi.NoteOnEvent(tick=0, channel=0, data=[58, 33]),
   midi.NoteOnEvent(tick=60, channel=0, data=[58, 0]),
   midi.NoteOnEvent(tick=0, channel=0, data=[61, 33]),
   midi.NoteOnEvent(tick=60, channel=0, data=[61, 0]),
   midi.NoteOnEvent(tick=0, channel=0, data=[65, 33]),
   midi.NoteOnEvent(tick=60, channel=0, data=[65, 0]),
   midi.NoteOnEvent(tick=0, channel=0, data=[63, 33]),
   midi.NoteOnEvent(tick=60, channel=0, data=[63, 0]),
   midi.NoteOnEvent(tick=0, channel=0, data=[54, 0]),
   midi.NoteOnEvent(tick=0, channel=0, data=[49, 49]),
   midi.ControlChangeEvent(tick=3, channel=0, data=[64, 0]),
   midi.ControlChangeEvent(tick=20, channel=0, data=[64, 127]),
   midi.NoteOnEvent(tick=17, channel=0, data=[58, 38]),
   midi.NoteOnEvent(tick=40, channel=0, data=[58, 0]),
   midi.NoteOnEvent(tick=0, channel=0, data=[61, 33]),
   midi.NoteOnEvent(tick=40, channel=0, data=[61, 0]),
   midi.NoteOnEvent(tick=0, channel=0, data=[65, 38]),
   midi.NoteOnEvent(tick=60, channel=0, data=[65, 0]),
   midi.NoteOnEvent(tick=0, channel=0, data=[63, 33]),
   midi.NoteOnEvent(tick=60, channel=0, data=[63, 0]),
   midi.NoteOnEvent(tick=0, channel=0, data=[58, 38]),
   midi.NoteOnEvent(tick=60, channel=0, data=[58, 0]),
   midi.NoteOnEvent(tick=0, channel=0, data=[61, 38]),
   midi.NoteOnEvent(tick=60, channel=0, data=[61, 0]),
   midi.NoteOnEvent(tick=0, channel=0, data=[65, 38]),
   midi.NoteOnEvent(tick=60, channel=0, data=[65, 0]),
   midi.NoteOnEvent(tick=0, channel=0, data=[63, 36]),
   midi.NoteOnEvent(tick=60, channel=0, data=[63, 0]),
   midi.NoteOnEvent(tick=0, channel=0, data=[49, 0]),
   midi.NoteOnEvent(tick=0, channel=0, data=[42, 47]),
   midi.NoteOnEvent(tick=40, channel=0, data=[58, 38]),
   midi.NoteOnEvent(tick=40, channel=0, data=[58, 0]),
   midi.NoteOnEvent(tick=0, channel=0, data=[61, 33]),
   midi.NoteOnEvent(tick=40, channel=0, data=[61, 0]),
   midi.NoteOnEvent(tick=0, channel=0, data=[65, 38]),
   midi.NoteOnEvent(tick=60, channel=0, data=[65, 0]),
   midi.NoteOnEvent(tick=0, channel=0, data=[63, 36]),
   midi.NoteOnEvent(tick=60, channel=0, data=[63, 0]),
   midi.NoteOnEvent(tick=0, channel=0, data=[42, 0]),
   midi.NoteOnEvent(tick=0, channel=0, data=[39, 40]),
   midi.ControlChangeEvent(tick=10, channel=0, data=[64, 0]),
   midi.ControlChangeEvent(tick=20, channel=0, data=[64, 127]),
   midi.NoteOnEvent(tick=50, channel=0, data=[39, 0]),
   midi.NoteOnEvent(tick=0, channel=0, data=[46, 41]),
   midi.NoteOnEvent(tick=80, channel=0, data=[46, 0]),
   midi.NoteOnEvent(tick=0, channel=0, data=[49, 42]),
   midi.NoteOnEvent(tick=80, channel=0, data=[49, 0]),
   midi.NoteOnEvent(tick=0, channel=0, data=[55, 45]),
   midi.NoteOnEvent(tick=80, channel=0, data=[55, 0]),
   midi.NoteOnEvent(tick=0, channel=0, data=[58, 45]),
   midi.NoteOnEvent(tick=80, channel=0, data=[58, 0]),
   midi.NoteOnEvent(tick=0, channel=0, data=[61, 47]),
   midi.NoteOnEvent(tick=80, channel=0, data=[61, 0]),
   midi.NoteOnEvent(tick=0, channel=0, data=[67, 45]),
   midi.NoteOnEvent(tick=53, channel=0, data=[67, 0]),
   midi.NoteOnEvent(tick=0, channel=0, data=[70, 45]),
   midi.NoteOnEvent(tick=53, channel=0, data=[70, 0]),
   midi.NoteOnEvent(tick=0, channel=0, data=[73, 45]),
   midi.NoteOnEvent(tick=53, channel=0, data=[73, 0]),
   midi.NoteOnEvent(tick=0, channel=0, data=[77, 45]),
   midi.NoteOnEvent(tick=53, channel=0, data=[77, 0]),
   midi.NoteOnEvent(tick=0, channel=0, data=[73, 45]),
   midi.NoteOnEvent(tick=53, channel=0, data=[73, 0]),
   midi.NoteOnEvent(tick=0, channel=0, data=[70, 45]),
   midi.NoteOnEvent(tick=53, channel=0, data=[70, 0]),
   midi.NoteOnEvent(tick=0, channel=0, data=[67, 42]),
   midi.NoteOnEvent(tick=53, channel=0, data=[67, 0]),
   midi.NoteOnEvent(tick=0, channel=0, data=[61, 42]),
   midi.NoteOnEvent(tick=53, channel=0, data=[61, 0]),
   midi.NoteOnEvent(tick=0, channel=0, data=[58, 42]),
   midi.NoteOnEvent(tick=53, channel=0, data=[58, 0]),
   midi.NoteOnEvent(tick=3, channel=0, data=[55, 41]),
   midi.ControlChangeEvent(tick=6, channel=0, data=[64, 0]),
   midi.ControlChangeEvent(tick=34, channel=0, data=[64, 127]),
   midi.NoteOnEvent(tick=8, channel=0, data=[55, 0]),
   midi.NoteOnEvent(tick=0, channel=0, data=[49, 41]),
   midi.NoteOnEvent(tick=48, channel=0, data=[49, 0]),
   midi.NoteOnEvent(tick=0, channel=0, data=[46, 41]),
   midi.NoteOnEvent(tick=48, channel=0, data=[46, 0]),
   midi.NoteOnEvent(tick=0, channel=0, data=[39, 41]),
   midi.NoteOnEvent(tick=48, channel=0, data=[39, 0]),
   midi.NoteOnEvent(tick=0, channel=0, data=[46, 41]),
   midi.NoteOnEvent(tick=48, channel=0, data=[46, 0]),
   midi.NoteOnEvent(tick=0, channel=0, data=[49, 40]),
   midi.NoteOnEvent(tick=48, channel=0, data=[49, 0]),
   midi.NoteOnEvent(tick=0, channel=0, data=[55, 40]),
   midi.NoteOnEvent(tick=48, channel=0, data=[55, 0]),
   midi.NoteOnEvent(tick=0, channel=0, data=[58, 40]),
   midi.NoteOnEvent(tick=48, channel=0, data=[58, 0]),
   midi.NoteOnEvent(tick=0, channel=0, data=[61, 40]),
   midi.NoteOnEvent(tick=48, channel=0, data=[61, 0]),
   midi.NoteOnEvent(tick=0, channel=0, data=[63, 40]),
   midi.NoteOnEvent(tick=48, channel=0, data=[63, 0]),
   midi.NoteOnEvent(tick=0, channel=0, data=[65, 41]),
   midi.ControlChangeEvent(tick=9, channel=0, data=[64, 0]),
   midi.ControlChangeEvent(tick=22, channel=0, data=[64, 127]),
   midi.NoteOnEvent(tick=17, channel=0, data=[65, 0]),
   midi.NoteOnEvent(tick=12, channel=0, data=[70, 41]),
   midi.NoteOnEvent(tick=48, channel=0, data=[70, 0]),
   midi.NoteOnEvent(tick=12, channel=0, data=[67, 41]),
   midi.NoteOnEvent(tick=48, channel=0, data=[67, 0]),
   midi.NoteOnEvent(tick=12, channel=0, data=[65, 41]),
   midi.NoteOnEvent(tick=48, channel=0, data=[65, 0]),
   midi.NoteOnEvent(tick=12, channel=0, data=[61, 41]),
   midi.NoteOnEvent(tick=48, channel=0, data=[61, 0]),
   midi.NoteOnEvent(tick=12, channel=0, data=[58, 41]),
   midi.NoteOnEvent(tick=48, channel=0, data=[58, 0]),
   midi.NoteOnEvent(tick=12, channel=0, data=[55, 41]),
   midi.NoteOnEvent(tick=48, channel=0, data=[55, 0]),
   midi.NoteOnEvent(tick=12, channel=0, data=[53, 41]),
   midi.NoteOnEvent(tick=48, channel=0, data=[53, 0]),
   midi.ControlChangeEvent(tick=6, channel=0, data=[64, 0]),
   midi.NoteOnEvent(tick=6, channel=0, data=[44, 30]),
   midi.NoteOnEvent(tick=96, channel=0, data=[44, 0]),
   midi.NoteOnEvent(tick=0, channel=0, data=[51, 33]),
   midi.ControlChangeEvent(tick=4, channel=0, data=[64, 127]),
   midi.NoteOnEvent(tick=92, channel=0, data=[51, 0]),
   midi.NoteOnEvent(tick=0, channel=0, data=[59, 33]),
   midi.NoteOnEvent(tick=96, channel=0, data=[59, 0]),
   midi.NoteOnEvent(tick=0, channel=0, data=[63, 36]),
   midi.NoteOnEvent(tick=96, channel=0, data=[63, 0]),
   midi.NoteOnEvent(tick=0, channel=0, data=[66, 38]),
   midi.NoteOnEvent(tick=96, channel=0, data=[66, 0]),
   midi.NoteOnEvent(tick=0, channel=0, data=[44, 33]),
   midi.NoteOnEvent(tick=0, channel=0, data=[59, 33]),
   midi.NoteOnEvent(tick=0, channel=0, data=[63, 33]),
   midi.NoteOnEvent(tick=0, channel=0, data=[70, 45]),
   midi.ControlChangeEvent(tick=10, channel=0, data=[64, 0]),
   midi.ControlChangeEvent(tick=20, channel=0, data=[64, 127]),
   midi.NoteOnEvent(tick=450, channel=0, data=[70, 0]),
   midi.NoteOnEvent(tick=0, channel=0, data=[66, 45]),
   midi.NoteOnEvent(tick=720, channel=0, data=[66, 0]),
   midi.NoteOnEvent(tick=0, channel=0, data=[63, 45]),
   midi.ControlChangeEvent(tick=10, channel=0, data=[64, 0]),
   midi.ControlChangeEvent(tick=39, channel=0, data=[64, 127]),
   midi.NoteOnEvent(tick=191, channel=0, data=[63, 0]),
   midi.NoteOnEvent(tick=0, channel=0, data=[59, 0]),
   midi.NoteOnEvent(tick=0, channel=0, data=[56, 30]),
   midi.NoteOnEvent(tick=0, channel=0, data=[60, 30]),
   midi.NoteOnEvent(tick=0, channel=0, data=[66, 50]),
   midi.NoteOnEvent(tick=10, channel=0, data=[63, 0]),
   midi.NoteOnEvent(tick=230, channel=0, data=[68, 50]),
   midi.NoteOnEvent(tick=10, channel=0, data=[66, 0]),
   midi.NoteOnEvent(tick=170, channel=0, data=[44, 0]),
   midi.NoteOnEvent(tick=0, channel=0, data=[44, 33]),
   midi.NoteOnEvent(tick=60, channel=0, data=[60, 0]),
   midi.NoteOnEvent(tick=0, channel=0, data=[56, 0]),
   midi.NoteOnEvent(tick=0, channel=0, data=[59, 33]),
   midi.NoteOnEvent(tick=0, channel=0, data=[63, 33]),
   midi.NoteOnEvent(tick=0, channel=0, data=[70, 45]),
   midi.ControlChangeEvent(tick=5, channel=0, data=[64, 0]),
   midi.NoteOnEvent(tick=5, channel=0, data=[68, 0]),
   midi.ControlChangeEvent(tick=36, channel=0, data=[64, 127]),
   midi.NoteOnEvent(tick=434, channel=0, data=[70, 0]),
   midi.NoteOnEvent(tick=0, channel=0, data=[66, 41]),
   midi.NoteOnEvent(tick=720, channel=0, data=[66, 0]),
   midi.NoteOnEvent(tick=0, channel=0, data=[63, 45]),
   midi.ControlChangeEvent(tick=19, channel=0, data=[64, 0]),
   midi.ControlChangeEvent(tick=32, channel=0, data=[64, 127]),
   midi.NoteOnEvent(tick=189, channel=0, data=[63, 0]),
   midi.NoteOnEvent(tick=0, channel=0, data=[59, 0]),
   midi.NoteOnEvent(tick=0, channel=0, data=[56, 36]),
   midi.NoteOnEvent(tick=0, channel=0, data=[60, 36]),
   midi.NoteOnEvent(tick=0, channel=0, data=[66, 47]),
   midi.NoteOnEvent(tick=10, channel=0, data=[63, 0]),
   midi.NoteOnEvent(tick=230, channel=0, data=[68, 47]),
   midi.NoteOnEvent(tick=10, channel=0, data=[66, 0]),
   midi.NoteOnEvent(tick=170, channel=0, data=[44, 0]),
   midi.NoteOnEvent(tick=0, channel=0, data=[44, 33]),
   midi.NoteOnEvent(tick=60, channel=0, data=[60, 0]),
   midi.NoteOnEvent(tick=0, channel=0, data=[56, 0]),
   midi.NoteOnEvent(tick=0, channel=0, data=[59, 33]),
   midi.NoteOnEvent(tick=0, channel=0, data=[63, 33]),
   midi.NoteOnEvent(tick=0, channel=0, data=[70, 50]),
   midi.ControlChangeEvent(tick=8, channel=0, data=[64, 0]),
   midi.NoteOnEvent(tick=2, channel=0, data=[68, 0]),
   midi.ControlChangeEvent(tick=41, channel=0, data=[64, 127]),
   midi.NoteOnEvent(tick=189, channel=0, data=[70, 0]),
   midi.NoteOnEvent(tick=0, channel=0, data=[68, 46]),
   midi.NoteOnEvent(tick=240, channel=0, data=[68, 0]),
   midi.NoteOnEvent(tick=0, channel=0, data=[75, 57]),
   midi.NoteOnEvent(tick=720, channel=0, data=[75, 0]),
   midi.NoteOnEvent(tick=0, channel=0, data=[70, 48]),
   midi.NoteOnEvent(tick=240, channel=0, data=[70, 0]),
   midi.NoteOnEvent(tick=0, channel=0, data=[66, 44]),
   midi.NoteOnEvent(tick=480, channel=0, data=[66, 0]),
   midi.NoteOnEvent(tick=0, channel=0, data=[44, 0]),
   midi.NoteOnEvent(tick=0, channel=0, data=[59, 0]),
   midi.NoteOnEvent(tick=0, channel=0, data=[63, 0]),
   midi.NoteOnEvent(tick=0, channel=0, data=[63, 41]),
   midi.NoteOnEvent(tick=240, channel=0, data=[63, 0]),
   midi.NoteOnEvent(tick=0, channel=0, data=[58, 38]),
   midi.NoteOnEvent(tick=240, channel=0, data=[58, 0]),
   midi.NoteOnEvent(tick=0, channel=0, data=[26, 18]),
   midi.ControlChangeEvent(tick=5, channel=0, data=[64, 0]),
   midi.NoteOnEvent(tick=0, channel=0, data=[38, 18]),
   midi.NoteOnEvent(tick=5, channel=0, data=[45, 18]),
   midi.NoteOnEvent(tick=5, channel=0, data=[50, 18]),
   midi.NoteOnEvent(tick=5, channel=0, data=[53, 18]),
   midi.NoteOnEvent(tick=5, channel=0, data=[57, 18]),
   midi.ControlChangeEvent(tick=10, channel=0, data=[64, 127]),
   midi.NoteOnEvent(tick=1885, channel=0, data=[57, 0]),
   midi.NoteOnEvent(tick=0, channel=0, data=[38, 0]),
   midi.NoteOnEvent(tick=0, channel=0, data=[45, 0]),
   midi.NoteOnEvent(tick=0, channel=0, data=[26, 0]),
   midi.NoteOnEvent(tick=0, channel=0, data=[53, 0]),
   midi.NoteOnEvent(tick=0, channel=0, data=[50, 0]),
   midi.ControlChangeEvent(tick=6014, channel=0, data=[64, 0]),
   midi.ControlChangeEvent(tick=106, channel=0, data=[64, 127]),
   midi.NoteOnEvent(tick=0, channel=0, data=[27, 58]),
   midi.NoteOnEvent(tick=60, channel=0, data=[27, 0]),
   midi.NoteOnEvent(tick=0, channel=0, data=[39, 58]),
   midi.NoteOnEvent(tick=100, channel=0, data=[39, 0]),
   midi.NoteOnEvent(tick=0, channel=0, data=[43, 61]),
   midi.NoteOnEvent(tick=40, channel=0, data=[43, 0]),
   midi.NoteOnEvent(tick=0, channel=0, data=[49, 63]),
   midi.NoteOnEvent(tick=40, channel=0, data=[49, 0]),
   midi.NoteOnEvent(tick=0, channel=0, data=[52, 67]),
   midi.NoteOnEvent(tick=40, channel=0, data=[52, 0]),
   midi.NoteOnEvent(tick=0, channel=0, data=[55, 67]),
   midi.NoteOnEvent(tick=40, channel=0, data=[55, 0]),
   midi.NoteOnEvent(tick=0, channel=0, data=[61, 68]),
   midi.NoteOnEvent(tick=40, channel=0, data=[61, 0]),
   midi.NoteOnEvent(tick=0, channel=0, data=[64, 72]),
   midi.NoteOnEvent(tick=40, channel=0, data=[64, 0]),
   midi.NoteOnEvent(tick=0, channel=0, data=[67, 73]),
   midi.NoteOnEvent(tick=40, channel=0, data=[67, 0]),
   midi.NoteOnEvent(tick=0, channel=0, data=[73, 76]),
   midi.NoteOnEvent(tick=40, channel=0, data=[73, 0]),
   midi.NoteOnEvent(tick=0, channel=0, data=[76, 78]),
   midi.NoteOnEvent(tick=40, channel=0, data=[76, 0]),
   midi.NoteOnEvent(tick=0, channel=0, data=[79, 78]),
   midi.NoteOnEvent(tick=40, channel=0, data=[79, 0]),
   midi.NoteOnEvent(tick=0, channel=0, data=[85, 81]),
   midi.NoteOnEvent(tick=40, channel=0, data=[85, 0]),
   midi.NoteOnEvent(tick=0, channel=0, data=[88, 90]),
   midi.NoteOnEvent(tick=53, channel=0, data=[88, 0]),
   midi.NoteOnEvent(tick=0, channel=0, data=[85, 78]),
   midi.NoteOnEvent(tick=53, channel=0, data=[85, 0]),
   midi.NoteOnEvent(tick=0, channel=0, data=[79, 75]),
   midi.NoteOnEvent(tick=53, channel=0, data=[79, 0]),
   midi.NoteOnEvent(tick=0, channel=0, data=[76, 72]),
   midi.NoteOnEvent(tick=53, channel=0, data=[76, 0]),
   midi.NoteOnEvent(tick=0, channel=0, data=[73, 68]),
   midi.NoteOnEvent(tick=53, channel=0, data=[73, 0]),
   midi.NoteOnEvent(tick=0, channel=0, data=[67, 67]),
   midi.NoteOnEvent(tick=53, channel=0, data=[67, 0]),
   midi.NoteOnEvent(tick=0, channel=0, data=[64, 65]),
   midi.NoteOnEvent(tick=53, channel=0, data=[64, 0]),
   midi.NoteOnEvent(tick=0, channel=0, data=[61, 62]),
   midi.NoteOnEvent(tick=53, channel=0, data=[61, 0]),
   midi.NoteOnEvent(tick=0, channel=0, data=[55, 58]),
   midi.NoteOnEvent(tick=56, channel=0, data=[55, 0]),
   midi.NoteOnEvent(tick=0, channel=0, data=[52, 67]),
   midi.ControlChangeEvent(tick=6, channel=0, data=[64, 0]),
   midi.ControlChangeEvent(tick=31, channel=0, data=[64, 127]),
   midi.NoteOnEvent(tick=16, channel=0, data=[52, 0]),
   midi.NoteOnEvent(tick=0, channel=0, data=[55, 67]),
   midi.NoteOnEvent(tick=53, channel=0, data=[55, 0]),
   midi.NoteOnEvent(tick=0, channel=0, data=[61, 68]),
   midi.NoteOnEvent(tick=53, channel=0, data=[61, 0]),
   midi.NoteOnEvent(tick=0, channel=0, data=[64, 72]),
   midi.NoteOnEvent(tick=53, channel=0, data=[64, 0]),
   midi.NoteOnEvent(tick=0, channel=0, data=[67, 73]),
   midi.NoteOnEvent(tick=53, channel=0, data=[67, 0]),
   midi.NoteOnEvent(tick=0, channel=0, data=[73, 76]),
   midi.NoteOnEvent(tick=53, channel=0, data=[73, 0]),
   midi.NoteOnEvent(tick=0, channel=0, data=[76, 78]),
   midi.NoteOnEvent(tick=53, channel=0, data=[76, 0]),
   midi.NoteOnEvent(tick=0, channel=0, data=[79, 78]),
   midi.NoteOnEvent(tick=53, channel=0, data=[79, 0]),
   midi.NoteOnEvent(tick=0, channel=0, data=[85, 81]),
   midi.NoteOnEvent(tick=56, channel=0, data=[85, 0]),
   midi.NoteOnEvent(tick=0, channel=0, data=[88, 90]),
   midi.NoteOnEvent(tick=80, channel=0, data=[88, 0]),
   midi.NoteOnEvent(tick=0, channel=0, data=[85, 78]),
   midi.NoteOnEvent(tick=80, channel=0, data=[85, 0]),
   midi.NoteOnEvent(tick=0, channel=0, data=[79, 75]),
   midi.NoteOnEvent(tick=80, channel=0, data=[79, 0]),
   midi.NoteOnEvent(tick=0, channel=0, data=[76, 72]),
   midi.NoteOnEvent(tick=80, channel=0, data=[76, 0]),
   midi.NoteOnEvent(tick=0, channel=0, data=[73, 68]),
   midi.NoteOnEvent(tick=80, channel=0, data=[73, 0]),
   midi.NoteOnEvent(tick=0, channel=0, data=[67, 67]),
   midi.NoteOnEvent(tick=80, channel=0, data=[67, 0]),
   midi.NoteOnEvent(tick=0, channel=0, data=[64, 67]),
   midi.ControlChangeEvent(tick=9, channel=0, data=[64, 0]),
   midi.ControlChangeEvent(tick=28, channel=0, data=[64, 127]),
   midi.NoteOnEvent(tick=43, channel=0, data=[64, 0]),
   midi.NoteOnEvent(tick=0, channel=0, data=[67, 70]),
   midi.NoteOnEvent(tick=80, channel=0, data=[67, 0]),
   midi.NoteOnEvent(tick=0, channel=0, data=[73, 72]),
   midi.NoteOnEvent(tick=80, channel=0, data=[73, 0]),
   midi.NoteOnEvent(tick=0, channel=0, data=[76, 73]),
   midi.NoteOnEvent(tick=80, channel=0, data=[76, 0]),
   midi.NoteOnEvent(tick=0, channel=0, data=[79, 76]),
   midi.NoteOnEvent(tick=80, channel=0, data=[79, 0]),
   midi.NoteOnEvent(tick=0, channel=0, data=[85, 78]),
   midi.NoteOnEvent(tick=80, channel=0, data=[85, 0]),
   midi.NoteOnEvent(tick=0, channel=0, data=[88, 87]),
   midi.NoteOnEvent(tick=80, channel=0, data=[88, 0]),
   midi.NoteOnEvent(tick=0, channel=0, data=[85, 78]),
   midi.NoteOnEvent(tick=80, channel=0, data=[85, 0]),
   midi.NoteOnEvent(tick=0, channel=0, data=[79, 75]),
   midi.NoteOnEvent(tick=80, channel=0, data=[79, 0]),
   midi.NoteOnEvent(tick=0, channel=0, data=[76, 72]),
   midi.NoteOnEvent(tick=80, channel=0, data=[76, 0]),
   midi.NoteOnEvent(tick=0, channel=0, data=[73, 68]),
   midi.NoteOnEvent(tick=80, channel=0, data=[73, 0]),
   midi.NoteOnEvent(tick=0, channel=0, data=[67, 67]),
   midi.NoteOnEvent(tick=80, channel=0, data=[67, 0]),
   midi.NoteOnEvent(tick=0, channel=0, data=[64, 67]),
   midi.ControlChangeEvent(tick=6, channel=0, data=[64, 0]),
   midi.ControlChangeEvent(tick=28, channel=0, data=[64, 127]),
   midi.NoteOnEvent(tick=46, channel=0, data=[64, 0]),
   midi.NoteOnEvent(tick=0, channel=0, data=[67, 70]),
   midi.NoteOnEvent(tick=80, channel=0, data=[67, 0]),
   midi.NoteOnEvent(tick=0, channel=0, data=[73, 72]),
   midi.NoteOnEvent(tick=80, channel=0, data=[73, 0]),
   midi.NoteOnEvent(tick=0, channel=0, data=[76, 73]),
   midi.NoteOnEvent(tick=80, channel=0, data=[76, 0]),
   midi.NoteOnEvent(tick=0, channel=0, data=[79, 76]),
   midi.NoteOnEvent(tick=80, channel=0, data=[79, 0]),
   midi.NoteOnEvent(tick=0, channel=0, data=[85, 78]),
   midi.NoteOnEvent(tick=80, channel=0, data=[85, 0]),
   midi.NoteOnEvent(tick=0, channel=0, data=[88, 86]),
   midi.ControlChangeEvent(tick=10, channel=0, data=[64, 0]),
   midi.ControlChangeEvent(tick=30, channel=0, data=[64, 127]),
   midi.NoteOnEvent(tick=20, channel=0, data=[88, 0]),
   midi.NoteOnEvent(tick=0, channel=0, data=[85, 67]),
   midi.NoteOnEvent(tick=60, channel=0, data=[85, 0]),
   midi.NoteOnEvent(tick=0, channel=0, data=[79, 67]),
   midi.NoteOnEvent(tick=60, channel=0, data=[79, 0]),
   midi.NoteOnEvent(tick=0, channel=0, data=[76, 67]),
   midi.NoteOnEvent(tick=60, channel=0, data=[76, 0]),
   midi.NoteOnEvent(tick=0, channel=0, data=[86, 85]),
   midi.ControlChangeEvent(tick=10, channel=0, data=[64, 0]),
   midi.ControlChangeEvent(tick=27, channel=0, data=[64, 127]),
   midi.NoteOnEvent(tick=23, channel=0, data=[86, 0]),
   midi.NoteOnEvent(tick=0, channel=0, data=[83, 67]),
   midi.NoteOnEvent(tick=60, channel=0, data=[83, 0]),
   midi.NoteOnEvent(tick=0, channel=0, data=[77, 67]),
   midi.NoteOnEvent(tick=60, channel=0, data=[77, 0]),
   midi.NoteOnEvent(tick=0, channel=0, data=[74, 67]),
   midi.NoteOnEvent(tick=60, channel=0, data=[74, 0]),
   midi.NoteOnEvent(tick=0, channel=0, data=[83, 83]),
   midi.ControlChangeEvent(tick=10, channel=0, data=[64, 0]),
   midi.ControlChangeEvent(tick=28, channel=0, data=[64, 127]),
   midi.NoteOnEvent(tick=22, channel=0, data=[83, 0]),
   midi.NoteOnEvent(tick=0, channel=0, data=[80, 65]),
   midi.NoteOnEvent(tick=60, channel=0, data=[80, 0]),
   midi.NoteOnEvent(tick=0, channel=0, data=[74, 65]),
   midi.NoteOnEvent(tick=60, channel=0, data=[74, 0]),
   midi.NoteOnEvent(tick=0, channel=0, data=[71, 65]),
   midi.NoteOnEvent(tick=60, channel=0, data=[71, 0]),
   midi.NoteOnEvent(tick=0, channel=0, data=[81, 83]),
   midi.ControlChangeEvent(tick=10, channel=0, data=[64, 0]),
   midi.ControlChangeEvent(tick=35, channel=0, data=[64, 127]),
   midi.NoteOnEvent(tick=15, channel=0, data=[81, 0]),
   midi.NoteOnEvent(tick=0, channel=0, data=[78, 62]),
   midi.NoteOnEvent(tick=60, channel=0, data=[78, 0]),
   midi.NoteOnEvent(tick=0, channel=0, data=[72, 62]),
   midi.NoteOnEvent(tick=60, channel=0, data=[72, 0]),
   midi.NoteOnEvent(tick=0, channel=0, data=[69, 62]),
   midi.NoteOnEvent(tick=60, channel=0, data=[69, 0]),
   midi.NoteOnEvent(tick=0, channel=0, data=[76, 80]),
   midi.ControlChangeEvent(tick=8, channel=0, data=[64, 0]),
   midi.ControlChangeEvent(tick=27, channel=0, data=[64, 127]),
   midi.NoteOnEvent(tick=25, channel=0, data=[76, 0]),
   midi.NoteOnEvent(tick=0, channel=0, data=[73, 61]),
   midi.NoteOnEvent(tick=60, channel=0, data=[73, 0]),
   midi.NoteOnEvent(tick=0, channel=0, data=[67, 61]),
   midi.NoteOnEvent(tick=60, channel=0, data=[67, 0]),
   midi.NoteOnEvent(tick=0, channel=0, data=[64, 61]),
   midi.NoteOnEvent(tick=60, channel=0, data=[64, 0]),
   midi.NoteOnEvent(tick=0, channel=0, data=[74, 80]),
   midi.ControlChangeEvent(tick=11, channel=0, data=[64, 0]),
   midi.ControlChangeEvent(tick=31, channel=0, data=[64, 127]),
   midi.NoteOnEvent(tick=18, channel=0, data=[74, 0]),
   midi.NoteOnEvent(tick=0, channel=0, data=[71, 58]),
   midi.NoteOnEvent(tick=60, channel=0, data=[71, 0]),
   midi.NoteOnEvent(tick=0, channel=0, data=[65, 58]),
   midi.NoteOnEvent(tick=60, channel=0, data=[65, 0]),
   midi.NoteOnEvent(tick=0, channel=0, data=[62, 58]),
   midi.NoteOnEvent(tick=60, channel=0, data=[62, 0]),
   midi.NoteOnEvent(tick=0, channel=0, data=[71, 78]),
   midi.ControlChangeEvent(tick=3, channel=0, data=[64, 0]),
   midi.ControlChangeEvent(tick=46, channel=0, data=[64, 127]),
   midi.NoteOnEvent(tick=11, channel=0, data=[71, 0]),
   midi.NoteOnEvent(tick=0, channel=0, data=[68, 57]),
   midi.NoteOnEvent(tick=60, channel=0, data=[68, 0]),
   midi.NoteOnEvent(tick=0, channel=0, data=[62, 57]),
   midi.NoteOnEvent(tick=60, channel=0, data=[62, 0]),
   midi.NoteOnEvent(tick=0, channel=0, data=[59, 57]),
   midi.NoteOnEvent(tick=60, channel=0, data=[59, 0]),
   midi.NoteOnEvent(tick=0, channel=0, data=[69, 78]),
   midi.ControlChangeEvent(tick=10, channel=0, data=[64, 0]),
   midi.ControlChangeEvent(tick=46, channel=0, data=[64, 127]),
   midi.NoteOnEvent(tick=4, channel=0, data=[69, 0]),
   midi.NoteOnEvent(tick=0, channel=0, data=[66, 56]),
   midi.NoteOnEvent(tick=60, channel=0, data=[66, 0]),
   midi.NoteOnEvent(tick=0, channel=0, data=[60, 56]),
   midi.NoteOnEvent(tick=60, channel=0, data=[60, 0]),
   midi.NoteOnEvent(tick=0, channel=0, data=[57, 56]),
   midi.NoteOnEvent(tick=60, channel=0, data=[57, 0]),
   midi.NoteOnEvent(tick=0, channel=0, data=[64, 76]),
   midi.ControlChangeEvent(tick=10, channel=0, data=[64, 0]),
   midi.ControlChangeEvent(tick=39, channel=0, data=[64, 127]),
   midi.NoteOnEvent(tick=11, channel=0, data=[64, 0]),
   midi.NoteOnEvent(tick=0, channel=0, data=[61, 56]),
   midi.NoteOnEvent(tick=60, channel=0, data=[61, 0]),
   midi.NoteOnEvent(tick=0, channel=0, data=[55, 56]),
   midi.NoteOnEvent(tick=60, channel=0, data=[55, 0]),
   midi.NoteOnEvent(tick=0, channel=0, data=[52, 56]),
   midi.NoteOnEvent(tick=60, channel=0, data=[52, 0]),
   midi.NoteOnEvent(tick=0, channel=0, data=[62, 73]),
   midi.ControlChangeEvent(tick=10, channel=0, data=[64, 0]),
   midi.ControlChangeEvent(tick=41, channel=0, data=[64, 127]),
   midi.NoteOnEvent(tick=9, channel=0, data=[62, 0]),
   midi.NoteOnEvent(tick=0, channel=0, data=[59, 52]),
   midi.NoteOnEvent(tick=60, channel=0, data=[59, 0]),
   midi.NoteOnEvent(tick=0, channel=0, data=[53, 52]),
   midi.NoteOnEvent(tick=60, channel=0, data=[53, 0]),
   midi.NoteOnEvent(tick=0, channel=0, data=[50, 52]),
   midi.NoteOnEvent(tick=60, channel=0, data=[50, 0]),
   midi.NoteOnEvent(tick=0, channel=0, data=[59, 72]),
   midi.ControlChangeEvent(tick=10, channel=0, data=[64, 0]),
   midi.ControlChangeEvent(tick=47, channel=0, data=[64, 127]),
   midi.NoteOnEvent(tick=3, channel=0, data=[59, 0]),
   midi.NoteOnEvent(tick=0, channel=0, data=[56, 51]),
   midi.NoteOnEvent(tick=60, channel=0, data=[56, 0]),
   midi.NoteOnEvent(tick=0, channel=0, data=[50, 51]),
   midi.NoteOnEvent(tick=60, channel=0, data=[50, 0]),
   midi.NoteOnEvent(tick=0, channel=0, data=[47, 51]),
   midi.NoteOnEvent(tick=60, channel=0, data=[47, 0]),
   midi.NoteOnEvent(tick=0, channel=0, data=[57, 70]),
   midi.ControlChangeEvent(tick=6, channel=0, data=[64, 0]),
   midi.ControlChangeEvent(tick=40, channel=0, data=[64, 127]),
   midi.NoteOnEvent(tick=14, channel=0, data=[57, 0]),
   midi.NoteOnEvent(tick=0, channel=0, data=[54, 50]),
   midi.NoteOnEvent(tick=60, channel=0, data=[54, 0]),
   midi.NoteOnEvent(tick=0, channel=0, data=[48, 50]),
   midi.NoteOnEvent(tick=60, channel=0, data=[48, 0]),
   midi.NoteOnEvent(tick=0, channel=0, data=[45, 50]),
   midi.NoteOnEvent(tick=60, channel=0, data=[45, 0]),
   midi.NoteOnEvent(tick=0, channel=0, data=[52, 68]),
   midi.ControlChangeEvent(tick=8, channel=0, data=[64, 0]),
   midi.ControlChangeEvent(tick=32, channel=0, data=[64, 127]),
   midi.NoteOnEvent(tick=40, channel=0, data=[52, 0]),
   midi.NoteOnEvent(tick=0, channel=0, data=[49, 50]),
   midi.NoteOnEvent(tick=80, channel=0, data=[49, 0]),
   midi.NoteOnEvent(tick=0, channel=0, data=[46, 50]),
   midi.NoteOnEvent(tick=80, channel=0, data=[46, 0]),
   midi.NoteOnEvent(tick=0, channel=0, data=[49, 67]),
   midi.ControlChangeEvent(tick=6, channel=0, data=[64, 0]),
   midi.ControlChangeEvent(tick=45, channel=0, data=[64, 127]),
   midi.NoteOnEvent(tick=29, channel=0, data=[49, 0]),
   midi.NoteOnEvent(tick=0, channel=0, data=[47, 50]),
   midi.NoteOnEvent(tick=80, channel=0, data=[47, 0]),
   midi.NoteOnEvent(tick=0, channel=0, data=[44, 50]),
   midi.NoteOnEvent(tick=80, channel=0, data=[44, 0]),
   midi.NoteOnEvent(tick=0, channel=0, data=[39, 67]),
   midi.ControlChangeEvent(tick=6, channel=0, data=[64, 0]),
   midi.ControlChangeEvent(tick=48, channel=0, data=[64, 127]),
   midi.NoteOnEvent(tick=426, channel=0, data=[49, 49]),
   midi.NoteOnEvent(tick=90, channel=0, data=[49, 0]),
   midi.NoteOnEvent(tick=150, channel=0, data=[51, 50]),
   midi.NoteOnEvent(tick=90, channel=0, data=[51, 0]),
   midi.ControlChangeEvent(tick=158, channel=0, data=[64, 0]),
   midi.ControlChangeEvent(tick=32, channel=0, data=[64, 127]),
   midi.NoteOnEvent(tick=440, channel=0, data=[39, 0]),
   midi.NoteOnEvent(tick=0, channel=0, data=[49, 49]),
   midi.NoteOnEvent(tick=90, channel=0, data=[49, 0]),
   midi.NoteOnEvent(tick=150, channel=0, data=[51, 49]),
   midi.NoteOnEvent(tick=90, channel=0, data=[51, 0]),
   midi.ControlChangeEvent(tick=160, channel=0, data=[64, 0]),
   midi.ControlChangeEvent(tick=39, channel=0, data=[64, 127]),
   midi.NoteOnEvent(tick=431, channel=0, data=[49, 48]),
   midi.NoteOnEvent(tick=90, channel=0, data=[49, 0]),
   midi.NoteOnEvent(tick=150, channel=0, data=[51, 48]),
   midi.NoteOnEvent(tick=90, channel=0, data=[51, 0]),
   midi.NoteOnEvent(tick=150, channel=0, data=[39, 38]),
   midi.ControlChangeEvent(tick=11, channel=0, data=[64, 0]),
   midi.ControlChangeEvent(tick=25, channel=0, data=[64, 127]),
   midi.NoteOnEvent(tick=444, channel=0, data=[54, 39]),
   midi.NoteOnEvent(tick=90, channel=0, data=[54, 0]),
   midi.NoteOnEvent(tick=390, channel=0, data=[39, 0]),
   midi.ControlChangeEvent(tick=10, channel=0, data=[64, 0]),
   midi.ControlChangeEvent(tick=20, channel=0, data=[64, 127]),
   midi.NoteOnEvent(tick=450, channel=0, data=[51, 36]),
   midi.NoteOnEvent(tick=90, channel=0, data=[51, 0]),
   midi.NoteOnEvent(tick=360, channel=0, data=[37, 36]),
   midi.NoteOnEvent(tick=15, channel=0, data=[37, 0]),
   midi.NoteOnEvent(tick=0, channel=0, data=[44, 33]),
   midi.NoteOnEvent(tick=15, channel=0, data=[44, 0]),
   midi.NoteOnEvent(tick=0, channel=0, data=[49, 30]),
   midi.ControlChangeEvent(tick=11, channel=0, data=[64, 0]),
   midi.ControlChangeEvent(tick=20, channel=0, data=[64, 127]),
   midi.NoteOnEvent(tick=29, channel=0, data=[49, 0]),
   midi.NoteOnEvent(tick=0, channel=0, data=[53, 23]),
   midi.NoteOnEvent(tick=60, channel=0, data=[53, 0]),
   midi.NoteOnEvent(tick=0, channel=0, data=[56, 25]),
   midi.NoteOnEvent(tick=60, channel=0, data=[56, 0]),
   midi.NoteOnEvent(tick=0, channel=0, data=[61, 27]),
   midi.NoteOnEvent(tick=60, channel=0, data=[61, 0]),
   midi.NoteOnEvent(tick=0, channel=0, data=[65, 27]),
   midi.NoteOnEvent(tick=60, channel=0, data=[65, 0]),
   midi.NoteOnEvent(tick=0, channel=0, data=[68, 27]),
   midi.NoteOnEvent(tick=60, channel=0, data=[68, 0]),
   midi.NoteOnEvent(tick=0, channel=0, data=[73, 28]),
   midi.NoteOnEvent(tick=60, channel=0, data=[73, 0]),
   midi.NoteOnEvent(tick=0, channel=0, data=[77, 30]),
   midi.NoteOnEvent(tick=60, channel=0, data=[77, 0]),
   midi.NoteOnEvent(tick=0, channel=0, data=[80, 31]),
   midi.NoteOnEvent(tick=60, channel=0, data=[80, 0]),
   midi.NoteOnEvent(tick=0, channel=0, data=[77, 31]),
   midi.NoteOnEvent(tick=60, channel=0, data=[77, 0]),
   midi.NoteOnEvent(tick=0, channel=0, data=[73, 30]),
   midi.NoteOnEvent(tick=60, channel=0, data=[73, 0]),
   midi.NoteOnEvent(tick=0, channel=0, data=[68, 30]),
   midi.NoteOnEvent(tick=60, channel=0, data=[68, 0]),
   midi.NoteOnEvent(tick=0, channel=0, data=[65, 28]),
   midi.NoteOnEvent(tick=60, channel=0, data=[65, 0]),
   midi.NoteOnEvent(tick=0, channel=0, data=[61, 27]),
   midi.NoteOnEvent(tick=60, channel=0, data=[61, 0]),
   midi.NoteOnEvent(tick=0, channel=0, data=[56, 27]),
   midi.NoteOnEvent(tick=60, channel=0, data=[56, 0]),
   midi.NoteOnEvent(tick=0, channel=0, data=[53, 27]),
   midi.NoteOnEvent(tick=60, channel=0, data=[53, 0]),
   midi.NoteOnEvent(tick=0, channel=0, data=[49, 30]),
   midi.ControlChangeEvent(tick=9, channel=0, data=[64, 0]),
   midi.ControlChangeEvent(tick=28, channel=0, data=[64, 127]),
   midi.NoteOnEvent(tick=23, channel=0, data=[49, 0]),
   midi.NoteOnEvent(tick=0, channel=0, data=[53, 23]),
   midi.NoteOnEvent(tick=60, channel=0, data=[53, 0]),
   midi.NoteOnEvent(tick=0, channel=0, data=[56, 25]),
   midi.NoteOnEvent(tick=60, channel=0, data=[56, 0]),
   midi.NoteOnEvent(tick=0, channel=0, data=[61, 27]),
   midi.NoteOnEvent(tick=60, channel=0, data=[61, 0]),
   midi.NoteOnEvent(tick=0, channel=0, data=[65, 27]),
   midi.NoteOnEvent(tick=60, channel=0, data=[65, 0]),
   midi.NoteOnEvent(tick=0, channel=0, data=[68, 27]),
   midi.NoteOnEvent(tick=60, channel=0, data=[68, 0]),
   midi.NoteOnEvent(tick=0, channel=0, data=[73, 28]),
   midi.NoteOnEvent(tick=60, channel=0, data=[73, 0]),
   midi.NoteOnEvent(tick=0, channel=0, data=[77, 30]),
   midi.NoteOnEvent(tick=60, channel=0, data=[77, 0]),
   midi.NoteOnEvent(tick=0, channel=0, data=[80, 31]),
   midi.NoteOnEvent(tick=60, channel=0, data=[80, 0]),
   midi.NoteOnEvent(tick=0, channel=0, data=[77, 31]),
   midi.NoteOnEvent(tick=60, channel=0, data=[77, 0]),
   midi.NoteOnEvent(tick=0, channel=0, data=[73, 30]),
   midi.NoteOnEvent(tick=60, channel=0, data=[73, 0]),
   midi.NoteOnEvent(tick=0, channel=0, data=[68, 30]),
   midi.NoteOnEvent(tick=60, channel=0, data=[68, 0]),
   midi.NoteOnEvent(tick=0, channel=0, data=[65, 28]),
   midi.NoteOnEvent(tick=60, channel=0, data=[65, 0]),
   midi.NoteOnEvent(tick=0, channel=0, data=[61, 27]),
   midi.NoteOnEvent(tick=60, channel=0, data=[61, 0]),
   midi.NoteOnEvent(tick=0, channel=0, data=[56, 27]),
   midi.NoteOnEvent(tick=60, channel=0, data=[56, 0]),
   midi.NoteOnEvent(tick=0, channel=0, data=[53, 27]),
   midi.NoteOnEvent(tick=60, channel=0, data=[53, 0]),
   midi.NoteOnEvent(tick=0, channel=0, data=[49, 30]),
   midi.ControlChangeEvent(tick=6, channel=0, data=[64, 0]),
   midi.ControlChangeEvent(tick=31, channel=0, data=[64, 127]),
   midi.NoteOnEvent(tick=23, channel=0, data=[49, 0]),
   midi.NoteOnEvent(tick=0, channel=0, data=[53, 23]),
   midi.NoteOnEvent(tick=60, channel=0, data=[53, 0]),
   midi.NoteOnEvent(tick=0, channel=0, data=[56, 25]),
   midi.NoteOnEvent(tick=60, channel=0, data=[56, 0]),
   midi.NoteOnEvent(tick=0, channel=0, data=[61, 27]),
   midi.NoteOnEvent(tick=60, channel=0, data=[61, 0]),
   midi.NoteOnEvent(tick=0, channel=0, data=[65, 27]),
   midi.NoteOnEvent(tick=60, channel=0, data=[65, 0]),
   midi.NoteOnEvent(tick=0, channel=0, data=[68, 27]),
   midi.NoteOnEvent(tick=60, channel=0, data=[68, 0]),
   midi.NoteOnEvent(tick=0, channel=0, data=[73, 28]),
   midi.NoteOnEvent(tick=60, channel=0, data=[73, 0]),
   midi.NoteOnEvent(tick=0, channel=0, data=[77, 30]),
   midi.NoteOnEvent(tick=60, channel=0, data=[77, 0]),
   midi.NoteOnEvent(tick=0, channel=0, data=[80, 31]),
   midi.NoteOnEvent(tick=60, channel=0, data=[80, 0]),
   midi.NoteOnEvent(tick=0, channel=0, data=[77, 31]),
   midi.NoteOnEvent(tick=60, channel=0, data=[77, 0]),
   midi.NoteOnEvent(tick=0, channel=0, data=[73, 30]),
   midi.NoteOnEvent(tick=60, channel=0, data=[73, 0]),
   midi.NoteOnEvent(tick=0, channel=0, data=[68, 30]),
   midi.NoteOnEvent(tick=60, channel=0, data=[68, 0]),
   midi.NoteOnEvent(tick=0, channel=0, data=[65, 28]),
   midi.NoteOnEvent(tick=60, channel=0, data=[65, 0]),
   midi.NoteOnEvent(tick=0, channel=0, data=[61, 27]),
   midi.NoteOnEvent(tick=60, channel=0, data=[61, 0]),
   midi.NoteOnEvent(tick=0, channel=0, data=[56, 27]),
   midi.NoteOnEvent(tick=60, channel=0, data=[56, 0]),
   midi.NoteOnEvent(tick=0, channel=0, data=[53, 27]),
   midi.NoteOnEvent(tick=60, channel=0, data=[53, 0]),
   midi.NoteOnEvent(tick=0, channel=0, data=[49, 30]),
   midi.ControlChangeEvent(tick=7, channel=0, data=[64, 0]),
   midi.ControlChangeEvent(tick=30, channel=0, data=[64, 127]),
   midi.NoteOnEvent(tick=23, channel=0, data=[49, 0]),
   midi.NoteOnEvent(tick=0, channel=0, data=[53, 23]),
   midi.NoteOnEvent(tick=60, channel=0, data=[53, 0]),
   midi.NoteOnEvent(tick=0, channel=0, data=[56, 25]),
   midi.NoteOnEvent(tick=60, channel=0, data=[56, 0]),
   midi.NoteOnEvent(tick=0, channel=0, data=[61, 27]),
   midi.NoteOnEvent(tick=60, channel=0, data=[61, 0]),
   midi.NoteOnEvent(tick=0, channel=0, data=[65, 27]),
   midi.NoteOnEvent(tick=60, channel=0, data=[65, 0]),
   midi.NoteOnEvent(tick=0, channel=0, data=[68, 27]),
   midi.NoteOnEvent(tick=60, channel=0, data=[68, 0]),
   midi.NoteOnEvent(tick=0, channel=0, data=[73, 28]),
   midi.NoteOnEvent(tick=60, channel=0, data=[73, 0]),
   midi.NoteOnEvent(tick=0, channel=0, data=[77, 30]),
   midi.NoteOnEvent(tick=60, channel=0, data=[77, 0]),
   midi.NoteOnEvent(tick=0, channel=0, data=[80, 31]),
   midi.NoteOnEvent(tick=60, channel=0, data=[80, 0]),
   midi.NoteOnEvent(tick=0, channel=0, data=[77, 31]),
   midi.NoteOnEvent(tick=60, channel=0, data=[77, 0]),
   midi.NoteOnEvent(tick=0, channel=0, data=[73, 30]),
   midi.NoteOnEvent(tick=60, channel=0, data=[73, 0]),
   midi.NoteOnEvent(tick=0, channel=0, data=[68, 30]),
   midi.NoteOnEvent(tick=60, channel=0, data=[68, 0]),
   midi.NoteOnEvent(tick=0, channel=0, data=[65, 28]),
   midi.NoteOnEvent(tick=60, channel=0, data=[65, 0]),
   midi.NoteOnEvent(tick=0, channel=0, data=[61, 27]),
   midi.NoteOnEvent(tick=60, channel=0, data=[61, 0]),
   midi.NoteOnEvent(tick=0, channel=0, data=[56, 27]),
   midi.NoteOnEvent(tick=60, channel=0, data=[56, 0]),
   midi.NoteOnEvent(tick=0, channel=0, data=[53, 27]),
   midi.NoteOnEvent(tick=60, channel=0, data=[53, 0]),
   midi.NoteOnEvent(tick=0, channel=0, data=[49, 30]),
   midi.ControlChangeEvent(tick=6, channel=0, data=[64, 0]),
   midi.ControlChangeEvent(tick=24, channel=0, data=[64, 127]),
   midi.NoteOnEvent(tick=30, channel=0, data=[49, 0]),
   midi.NoteOnEvent(tick=0, channel=0, data=[53, 23]),
   midi.NoteOnEvent(tick=60, channel=0, data=[53, 0]),
   midi.NoteOnEvent(tick=0, channel=0, data=[56, 25]),
   midi.NoteOnEvent(tick=60, channel=0, data=[56, 0]),
   midi.NoteOnEvent(tick=0, channel=0, data=[61, 27]),
   midi.NoteOnEvent(tick=60, channel=0, data=[61, 0]),
   midi.NoteOnEvent(tick=0, channel=0, data=[65, 27]),
   midi.NoteOnEvent(tick=60, channel=0, data=[65, 0]),
   midi.NoteOnEvent(tick=0, channel=0, data=[68, 27]),
   midi.NoteOnEvent(tick=60, channel=0, data=[68, 0]),
   midi.NoteOnEvent(tick=0, channel=0, data=[73, 28]),
   midi.NoteOnEvent(tick=60, channel=0, data=[77, 30]),
   midi.NoteOnEvent(tick=60, channel=0, data=[65, 24]),
   midi.NoteOnEvent(tick=0, channel=0, data=[68, 28]),
   midi.ControlChangeEvent(tick=20, channel=0, data=[64, 0]),
   midi.ControlChangeEvent(tick=40, channel=0, data=[64, 127]),
   midi.NoteOnEvent(tick=900, channel=0, data=[68, 0]),
   midi.NoteOnEvent(tick=0, channel=0, data=[73, 0]),
   midi.NoteOnEvent(tick=0, channel=0, data=[77, 0]),
   midi.NoteOnEvent(tick=0, channel=0, data=[65, 0]),
   midi.ControlChangeEvent(tick=1973, channel=0, data=[64, 0]),
   midi.EndOfTrackEvent(tick=0, data=[])])])
midi.write_midifile("creationMidi.mid", pattern)