midi.Pattern(format=1, resolution=480, tracks=\
[midi.Track(\
  [midi.TrackNameEvent(tick=0, text='Kinderszenen Opus 15', data=[75, 105, 110, 100, 101, 114, 115, 122, 101, 110, 101, 110, 32, 79, 112, 117, 115, 32, 49, 53]),
   midi.TrackNameEvent(tick=0, text='Hasche-Mann', data=[72, 97, 115, 99, 104, 101, 45, 77, 97, 110, 110]),
   midi.CopyrightMetaEvent(tick=0, text='Copyright © 1997 von Bernd Krüger.', data=[67, 111, 112, 121, 114, 105, 103, 104, 116, 32, 169, 32, 49, 57, 57, 55, 32, 118, 111, 110, 32, 66, 101, 114, 110, 100, 32, 75, 114, 252, 103, 101, 114, 46]),
   midi.TextMetaEvent(tick=0, text='Robert Schumann', data=[82, 111, 98, 101, 114, 116, 32, 83, 99, 104, 117, 109, 97, 110, 110]),
   midi.TextMetaEvent(tick=0, text='Fertiggestellt am 29.11.97\n', data=[70, 101, 114, 116, 105, 103, 103, 101, 115, 116, 101, 108, 108, 116, 32, 97, 109, 32, 50, 57, 46, 49, 49, 46, 57, 55, 10]),
   midi.TextMetaEvent(tick=0, text='Korrekturen am 4.9.98\n', data=[75, 111, 114, 114, 101, 107, 116, 117, 114, 101, 110, 32, 97, 109, 32, 52, 46, 57, 46, 57, 56, 10]),
   midi.TextMetaEvent(tick=0, text='Anpassungen an Digitalpiano am 1.1.99\n', data=[65, 110, 112, 97, 115, 115, 117, 110, 103, 101, 110, 32, 97, 110, 32, 68, 105, 103, 105, 116, 97, 108, 112, 105, 97, 110, 111, 32, 97, 109, 32, 49, 46, 49, 46, 57, 57, 10]),
   midi.TextMetaEvent(tick=0, text='Update am 16.6.99\n', data=[85, 112, 100, 97, 116, 101, 32, 97, 109, 32, 49, 54, 46, 54, 46, 57, 57, 10]),
   midi.TextMetaEvent(tick=0, text='Update am 9.7.99\n', data=[85, 112, 100, 97, 116, 101, 32, 97, 109, 32, 57, 46, 55, 46, 57, 57, 10]),
   midi.TextMetaEvent(tick=0, text='Normierung: 23.12.2002\n', data=[78, 111, 114, 109, 105, 101, 114, 117, 110, 103, 58, 32, 50, 51, 46, 49, 50, 46, 50, 48, 48, 50, 10]),
   midi.TextMetaEvent(tick=0, text='Update am 5.10.2008\n', data=[85, 112, 100, 97, 116, 101, 32, 97, 109, 32, 53, 46, 49, 48, 46, 50, 48, 48, 56, 10]),
   midi.TextMetaEvent(tick=0, text='Update am 26.3.2014\n', data=[85, 112, 100, 97, 116, 101, 32, 97, 109, 32, 50, 54, 46, 51, 46, 50, 48, 49, 52, 10]),
   midi.TextMetaEvent(tick=0, text='Dauer: 0:31 Minuten\n', data=[68, 97, 117, 101, 114, 58, 32, 48, 58, 51, 49, 32, 77, 105, 110, 117, 116, 101, 110, 10]),
   midi.TimeSignatureEvent(tick=0, data=[2, 2, 24, 8]),
   midi.KeySignatureEvent(tick=0, data=[2, 0]),
   midi.SetTempoEvent(tick=0, data=[7, 246, 11]),
   midi.MarkerEvent(tick=0, text="Blindman's Buff", data=[66, 108, 105, 110, 100, 109, 97, 110, 39, 115, 32, 66, 117, 102, 102]),
   midi.SetTempoEvent(tick=460, data=[7, 3, 250]),
   midi.SetTempoEvent(tick=80, data=[6, 253, 31]),
   midi.SetTempoEvent(tick=60, data=[6, 246, 82]),
   midi.SetTempoEvent(tick=60, data=[6, 239, 145]),
   midi.SetTempoEvent(tick=80, data=[6, 232, 222]),
   midi.SetTempoEvent(tick=60, data=[6, 226, 56]),
   midi.SetTempoEvent(tick=60, data=[6, 219, 158]),
   midi.SetTempoEvent(tick=60, data=[6, 213, 17]),
   midi.SetTempoEvent(tick=40, data=[6, 246, 82]),
   midi.SetTempoEvent(tick=480, data=[7, 39, 14]),
   midi.SetTempoEvent(tick=360, data=[7, 90, 136]),
   midi.SetTempoEvent(tick=120, data=[7, 246, 11]),
   midi.SetTempoEvent(tick=460, data=[7, 98, 31]),
   midi.SetTempoEvent(tick=20, data=[6, 174, 196]),
   midi.SetTempoEvent(tick=100, data=[6, 181, 8]),
   midi.SetTempoEvent(tick=100, data=[6, 187, 88]),
   midi.SetTempoEvent(tick=80, data=[6, 193, 180]),
   midi.SetTempoEvent(tick=100, data=[6, 200, 28]),
   midi.SetTempoEvent(tick=80, data=[6, 206, 145]),
   midi.SetTempoEvent(tick=20, data=[7, 53, 121]),
   midi.SetTempoEvent(tick=360, data=[7, 211, 53]),
   midi.SetTempoEvent(tick=120, data=[7, 53, 121]),
   midi.SetTempoEvent(tick=20, data=[7, 60, 196]),
   midi.SetTempoEvent(tick=20, data=[7, 68, 30]),
   midi.SetTempoEvent(tick=20, data=[7, 83, 0]),
   midi.SetTempoEvent(tick=20, data=[7, 98, 31]),
   midi.SetTempoEvent(tick=20, data=[7, 105, 198]),
   midi.SetTempoEvent(tick=20, data=[7, 121, 68]),
   midi.SetTempoEvent(tick=20, data=[7, 137, 3]),
   midi.SetTempoEvent(tick=20, data=[7, 144, 252]),
   midi.SetTempoEvent(tick=20, data=[7, 161, 32]),
   midi.SetTempoEvent(tick=20, data=[7, 177, 138]),
   midi.SetTempoEvent(tick=20, data=[7, 185, 217]),
   midi.SetTempoEvent(tick=20, data=[7, 202, 174]),
   midi.SetTempoEvent(tick=20, data=[7, 219, 205]),
   midi.SetTempoEvent(tick=20, data=[7, 228, 121]),
   midi.SetTempoEvent(tick=20, data=[7, 246, 11]),
   midi.SetTempoEvent(tick=20, data=[8, 7, 236]),
   midi.SetTempoEvent(tick=40, data=[8, 249, 203]),
   midi.SetTempoEvent(tick=100, data=[7, 161, 32]),
   midi.SetTempoEvent(tick=20, data=[7, 246, 11]),
   midi.SetTempoEvent(tick=480, data=[6, 232, 222]),
   midi.SetTempoEvent(tick=440, data=[6, 181, 8]),
   midi.SetTempoEvent(tick=40, data=[6, 246, 82]),
   midi.SetTempoEvent(tick=480, data=[7, 39, 14]),
   midi.SetTempoEvent(tick=360, data=[7, 137, 3]),
   midi.SetTempoEvent(tick=120, data=[7, 246, 11]),
   midi.SetTempoEvent(tick=460, data=[6, 206, 145]),
   midi.SetTempoEvent(tick=80, data=[6, 213, 17]),
   midi.SetTempoEvent(tick=80, data=[6, 219, 158]),
   midi.SetTempoEvent(tick=80, data=[6, 226, 56]),
   midi.SetTempoEvent(tick=80, data=[6, 232, 222]),
   midi.SetTempoEvent(tick=80, data=[6, 239, 145]),
   midi.SetTempoEvent(tick=80, data=[6, 246, 82]),
   midi.SetTempoEvent(tick=20, data=[7, 105, 198]),
   midi.SetTempoEvent(tick=360, data=[7, 237, 57]),
   midi.SetTempoEvent(tick=120, data=[7, 53, 121]),
   midi.SetTempoEvent(tick=20, data=[7, 121, 68]),
   midi.SetTempoEvent(tick=20, data=[7, 129, 27]),
   midi.SetTempoEvent(tick=20, data=[7, 144, 252]),
   midi.SetTempoEvent(tick=20, data=[7, 161, 32]),
   midi.SetTempoEvent(tick=20, data=[7, 177, 138]),
   midi.SetTempoEvent(tick=20, data=[7, 185, 217]),
   midi.SetTempoEvent(tick=20, data=[7, 202, 174]),
   midi.SetTempoEvent(tick=20, data=[7, 219, 205]),
   midi.SetTempoEvent(tick=20, data=[7, 237, 57]),
   midi.SetTempoEvent(tick=20, data=[7, 246, 11]),
   midi.SetTempoEvent(tick=20, data=[8, 7, 236]),
   midi.SetTempoEvent(tick=20, data=[8, 26, 29]),
   midi.SetTempoEvent(tick=20, data=[8, 44, 162]),
   midi.SetTempoEvent(tick=20, data=[8, 54, 5]),
   midi.SetTempoEvent(tick=20, data=[8, 73, 10]),
   midi.SetTempoEvent(tick=20, data=[8, 92, 105]),
   midi.SetTempoEvent(tick=20, data=[8, 112, 35]),
   midi.SetTempoEvent(tick=20, data=[10, 1, 122]),
   midi.SetTempoEvent(tick=100, data=[7, 161, 32]),
   midi.SetTempoEvent(tick=20, data=[7, 228, 121]),
   midi.SetTempoEvent(tick=480, data=[7, 3, 250]),
   midi.SetTempoEvent(tick=20, data=[7, 17, 216]),
   midi.SetTempoEvent(tick=900, data=[6, 226, 56]),
   midi.SetTempoEvent(tick=20, data=[6, 232, 222]),
   midi.SetTempoEvent(tick=20, data=[6, 239, 145]),
   midi.SetTempoEvent(tick=20, data=[6, 246, 82]),
   midi.SetTempoEvent(tick=20, data=[7, 3, 250]),
   midi.SetTempoEvent(tick=20, data=[7, 10, 226]),
   midi.SetTempoEvent(tick=20, data=[7, 24, 220]),
   midi.SetTempoEvent(tick=20, data=[7, 31, 238]),
   midi.SetTempoEvent(tick=20, data=[7, 39, 14]),
   midi.SetTempoEvent(tick=20, data=[7, 53, 121]),
   midi.SetTempoEvent(tick=20, data=[7, 60, 196]),
   midi.SetTempoEvent(tick=20, data=[7, 75, 136]),
   midi.SetTempoEvent(tick=20, data=[7, 83, 0]),
   midi.SetTempoEvent(tick=20, data=[7, 90, 136]),
   midi.SetTempoEvent(tick=20, data=[7, 105, 198]),
   midi.SetTempoEvent(tick=20, data=[7, 113, 125]),
   midi.SetTempoEvent(tick=20, data=[7, 129, 27]),
   midi.SetTempoEvent(tick=20, data=[7, 137, 3]),
   midi.SetTempoEvent(tick=20, data=[7, 153, 5]),
   midi.SetTempoEvent(tick=40, data=[8, 132, 60]),
   midi.SetTempoEvent(tick=100, data=[7, 75, 136]),
   midi.SetTempoEvent(tick=20, data=[7, 161, 32]),
   midi.SetTempoEvent(tick=480, data=[7, 24, 220]),
   midi.SetTempoEvent(tick=20, data=[7, 31, 238]),
   midi.SetTempoEvent(tick=220, data=[7, 39, 14]),
   midi.SetTempoEvent(tick=220, data=[7, 46, 60]),
   midi.SetTempoEvent(tick=60, data=[7, 39, 14]),
   midi.SetTempoEvent(tick=60, data=[7, 31, 238]),
   midi.SetTempoEvent(tick=40, data=[7, 24, 220]),
   midi.SetTempoEvent(tick=60, data=[7, 17, 216]),
   midi.SetTempoEvent(tick=40, data=[7, 10, 226]),
   midi.SetTempoEvent(tick=60, data=[7, 3, 250]),
   midi.SetTempoEvent(tick=40, data=[6, 253, 31]),
   midi.SetTempoEvent(tick=20, data=[6, 246, 82]),
   midi.SetTempoEvent(tick=20, data=[6, 253, 31]),
   midi.SetTempoEvent(tick=20, data=[7, 3, 250]),
   midi.SetTempoEvent(tick=20, data=[7, 10, 226]),
   midi.SetTempoEvent(tick=20, data=[7, 17, 216]),
   midi.SetTempoEvent(tick=20, data=[7, 24, 220]),
   midi.SetTempoEvent(tick=20, data=[7, 31, 238]),
   midi.SetTempoEvent(tick=20, data=[7, 39, 14]),
   midi.SetTempoEvent(tick=20, data=[7, 46, 60]),
   midi.SetTempoEvent(tick=20, data=[7, 53, 121]),
   midi.SetTempoEvent(tick=20, data=[7, 60, 196]),
   midi.SetTempoEvent(tick=20, data=[7, 68, 30]),
   midi.SetTempoEvent(tick=20, data=[7, 75, 136]),
   midi.SetTempoEvent(tick=20, data=[7, 83, 0]),
   midi.SetTempoEvent(tick=20, data=[7, 90, 136]),
   midi.SetTempoEvent(tick=20, data=[7, 98, 31]),
   midi.SetTempoEvent(tick=20, data=[7, 105, 198]),
   midi.SetTempoEvent(tick=20, data=[7, 113, 125]),
   midi.SetTempoEvent(tick=20, data=[7, 121, 68]),
   midi.SetTempoEvent(tick=20, data=[7, 129, 27]),
   midi.SetTempoEvent(tick=20, data=[7, 137, 3]),
   midi.SetTempoEvent(tick=20, data=[7, 144, 252]),
   midi.SetTempoEvent(tick=20, data=[7, 153, 5]),
   midi.SetTempoEvent(tick=20, data=[7, 161, 32]),
   midi.SetTempoEvent(tick=20, data=[7, 169, 76]),
   midi.SetTempoEvent(tick=20, data=[7, 177, 138]),
   midi.SetTempoEvent(tick=20, data=[7, 185, 217]),
   midi.SetTempoEvent(tick=20, data=[7, 194, 59]),
   midi.SetTempoEvent(tick=20, data=[7, 202, 174]),
   midi.SetTempoEvent(tick=20, data=[7, 211, 53]),
   midi.SetTempoEvent(tick=20, data=[7, 161, 32]),
   midi.SetTempoEvent(tick=20, data=[7, 169, 76]),
   midi.SetTempoEvent(tick=20, data=[7, 185, 217]),
   midi.SetTempoEvent(tick=1400, data=[7, 153, 5]),
   midi.SetTempoEvent(tick=100, data=[7, 144, 252]),
   midi.SetTempoEvent(tick=100, data=[7, 137, 3]),
   midi.SetTempoEvent(tick=100, data=[7, 129, 27]),
   midi.SetTempoEvent(tick=100, data=[7, 121, 68]),
   midi.SetTempoEvent(tick=80, data=[7, 113, 125]),
   midi.SetTempoEvent(tick=360, data=[8, 35, 85]),
   midi.SetTempoEvent(tick=120, data=[7, 39, 14]),
   midi.SetTempoEvent(tick=240, data=[7, 24, 220]),
   midi.SetTempoEvent(tick=220, data=[7, 10, 226]),
   midi.SetTempoEvent(tick=240, data=[6, 253, 31]),
   midi.SetTempoEvent(tick=240, data=[6, 239, 145]),
   midi.SetTempoEvent(tick=40, data=[6, 253, 31]),
   midi.SetTempoEvent(tick=40, data=[7, 10, 226]),
   midi.SetTempoEvent(tick=40, data=[7, 24, 220]),
   midi.SetTempoEvent(tick=40, data=[7, 39, 14]),
   midi.SetTempoEvent(tick=20, data=[7, 53, 121]),
   midi.SetTempoEvent(tick=40, data=[7, 68, 30]),
   midi.SetTempoEvent(tick=40, data=[7, 83, 0]),
   midi.SetTempoEvent(tick=40, data=[7, 98, 31]),
   midi.SetTempoEvent(tick=40, data=[7, 113, 125]),
   midi.SetTempoEvent(tick=20, data=[7, 129, 27]),
   midi.SetTempoEvent(tick=20, data=[8, 194, 211]),
   midi.SetTempoEvent(tick=80, data=[7, 246, 11]),
   midi.SetTempoEvent(tick=40, data=[7, 246, 11]),
   midi.SetTempoEvent(tick=480, data=[7, 3, 250]),
   midi.SetTempoEvent(tick=80, data=[6, 253, 31]),
   midi.SetTempoEvent(tick=60, data=[6, 246, 82]),
   midi.SetTempoEvent(tick=60, data=[6, 239, 145]),
   midi.SetTempoEvent(tick=80, data=[6, 232, 222]),
   midi.SetTempoEvent(tick=60, data=[6, 226, 56]),
   midi.SetTempoEvent(tick=60, data=[6, 219, 158]),
   midi.SetTempoEvent(tick=60, data=[6, 213, 17]),
   midi.SetTempoEvent(tick=20, data=[6, 246, 82]),
   midi.SetTempoEvent(tick=480, data=[7, 39, 14]),
   midi.SetTempoEvent(tick=360, data=[7, 90, 136]),
   midi.SetTempoEvent(tick=120, data=[7, 246, 11]),
   midi.SetTempoEvent(tick=460, data=[7, 98, 31]),
   midi.SetTempoEvent(tick=20, data=[6, 232, 222]),
   midi.SetTempoEvent(tick=360, data=[7, 129, 27]),
   midi.SetTempoEvent(tick=100, data=[6, 206, 145]),
   midi.SetTempoEvent(tick=20, data=[7, 53, 121]),
   midi.SetTempoEvent(tick=360, data=[7, 161, 32]),
   midi.SetTempoEvent(tick=120, data=[7, 53, 121]),
   midi.SetTempoEvent(tick=20, data=[7, 60, 196]),
   midi.SetTempoEvent(tick=20, data=[7, 68, 30]),
   midi.SetTempoEvent(tick=20, data=[7, 83, 0]),
   midi.SetTempoEvent(tick=20, data=[7, 98, 31]),
   midi.SetTempoEvent(tick=20, data=[7, 105, 198]),
   midi.SetTempoEvent(tick=20, data=[7, 121, 68]),
   midi.SetTempoEvent(tick=20, data=[7, 137, 3]),
   midi.SetTempoEvent(tick=20, data=[7, 144, 252]),
   midi.SetTempoEvent(tick=20, data=[7, 161, 32]),
   midi.SetTempoEvent(tick=20, data=[7, 177, 138]),
   midi.SetTempoEvent(tick=20, data=[7, 185, 217]),
   midi.SetTempoEvent(tick=20, data=[7, 202, 174]),
   midi.SetTempoEvent(tick=20, data=[7, 219, 205]),
   midi.SetTempoEvent(tick=20, data=[7, 228, 121]),
   midi.SetTempoEvent(tick=20, data=[7, 246, 11]),
   midi.SetTempoEvent(tick=20, data=[8, 7, 236]),
   midi.SetTempoEvent(tick=40, data=[9, 137, 104]),
   midi.SetTempoEvent(tick=100, data=[7, 161, 32]),
   midi.SetTempoEvent(tick=20, data=[7, 228, 121]),
   midi.SetTempoEvent(tick=480, data=[7, 3, 250]),
   midi.SetTempoEvent(tick=20, data=[7, 17, 216]),
   midi.SetTempoEvent(tick=900, data=[6, 226, 56]),
   midi.SetTempoEvent(tick=20, data=[6, 232, 222]),
   midi.SetTempoEvent(tick=20, data=[6, 239, 145]),
   midi.SetTempoEvent(tick=20, data=[6, 246, 82]),
   midi.SetTempoEvent(tick=20, data=[7, 3, 250]),
   midi.SetTempoEvent(tick=20, data=[7, 10, 226]),
   midi.SetTempoEvent(tick=20, data=[7, 24, 220]),
   midi.SetTempoEvent(tick=20, data=[7, 31, 238]),
   midi.SetTempoEvent(tick=20, data=[7, 39, 14]),
   midi.SetTempoEvent(tick=20, data=[7, 53, 121]),
   midi.SetTempoEvent(tick=20, data=[7, 60, 196]),
   midi.SetTempoEvent(tick=20, data=[7, 75, 136]),
   midi.SetTempoEvent(tick=20, data=[7, 83, 0]),
   midi.SetTempoEvent(tick=20, data=[7, 90, 136]),
   midi.SetTempoEvent(tick=20, data=[7, 105, 198]),
   midi.SetTempoEvent(tick=20, data=[7, 113, 125]),
   midi.SetTempoEvent(tick=20, data=[7, 129, 27]),
   midi.SetTempoEvent(tick=20, data=[7, 137, 3]),
   midi.SetTempoEvent(tick=20, data=[7, 153, 5]),
   midi.SetTempoEvent(tick=40, data=[8, 132, 60]),
   midi.SetTempoEvent(tick=100, data=[7, 75, 136]),
   midi.SetTempoEvent(tick=20, data=[7, 161, 32]),
   midi.SetTempoEvent(tick=440, data=[7, 39, 14]),
   midi.SetTempoEvent(tick=20, data=[7, 24, 220]),
   midi.SetTempoEvent(tick=100, data=[7, 31, 238]),
   midi.SetTempoEvent(tick=80, data=[7, 39, 14]),
   midi.SetTempoEvent(tick=80, data=[7, 46, 60]),
   midi.SetTempoEvent(tick=80, data=[7, 53, 121]),
   midi.SetTempoEvent(tick=80, data=[7, 60, 196]),
   midi.SetTempoEvent(tick=80, data=[7, 68, 30]),
   midi.SetTempoEvent(tick=40, data=[7, 39, 14]),
   midi.SetTempoEvent(tick=60, data=[7, 31, 238]),
   midi.SetTempoEvent(tick=40, data=[7, 24, 220]),
   midi.SetTempoEvent(tick=60, data=[7, 17, 216]),
   midi.SetTempoEvent(tick=40, data=[7, 10, 226]),
   midi.SetTempoEvent(tick=60, data=[7, 3, 250]),
   midi.SetTempoEvent(tick=40, data=[6, 253, 31]),
   midi.SetTempoEvent(tick=20, data=[6, 246, 82]),
   midi.SetTempoEvent(tick=20, data=[6, 253, 31]),
   midi.SetTempoEvent(tick=20, data=[7, 3, 250]),
   midi.SetTempoEvent(tick=20, data=[7, 10, 226]),
   midi.SetTempoEvent(tick=20, data=[7, 17, 216]),
   midi.SetTempoEvent(tick=20, data=[7, 24, 220]),
   midi.SetTempoEvent(tick=20, data=[7, 31, 238]),
   midi.SetTempoEvent(tick=20, data=[7, 39, 14]),
   midi.SetTempoEvent(tick=20, data=[7, 46, 60]),
   midi.SetTempoEvent(tick=20, data=[7, 53, 121]),
   midi.SetTempoEvent(tick=20, data=[7, 60, 196]),
   midi.SetTempoEvent(tick=20, data=[7, 68, 30]),
   midi.SetTempoEvent(tick=20, data=[7, 75, 136]),
   midi.SetTempoEvent(tick=20, data=[7, 83, 0]),
   midi.SetTempoEvent(tick=20, data=[7, 90, 136]),
   midi.SetTempoEvent(tick=20, data=[7, 98, 31]),
   midi.SetTempoEvent(tick=20, data=[7, 105, 198]),
   midi.SetTempoEvent(tick=20, data=[7, 113, 125]),
   midi.SetTempoEvent(tick=20, data=[7, 121, 68]),
   midi.SetTempoEvent(tick=20, data=[7, 129, 27]),
   midi.SetTempoEvent(tick=20, data=[7, 137, 3]),
   midi.SetTempoEvent(tick=20, data=[7, 144, 252]),
   midi.SetTempoEvent(tick=20, data=[7, 153, 5]),
   midi.SetTempoEvent(tick=20, data=[7, 161, 32]),
   midi.SetTempoEvent(tick=20, data=[7, 169, 76]),
   midi.SetTempoEvent(tick=20, data=[7, 177, 138]),
   midi.SetTempoEvent(tick=20, data=[7, 185, 217]),
   midi.SetTempoEvent(tick=20, data=[7, 194, 59]),
   midi.SetTempoEvent(tick=20, data=[7, 202, 174]),
   midi.SetTempoEvent(tick=20, data=[7, 211, 53]),
   midi.SetTempoEvent(tick=20, data=[7, 161, 32]),
   midi.SetTempoEvent(tick=20, data=[7, 169, 76]),
   midi.SetTempoEvent(tick=20, data=[7, 185, 217]),
   midi.SetTempoEvent(tick=1400, data=[7, 153, 5]),
   midi.SetTempoEvent(tick=100, data=[7, 144, 252]),
   midi.SetTempoEvent(tick=100, data=[7, 137, 3]),
   midi.SetTempoEvent(tick=100, data=[7, 129, 27]),
   midi.SetTempoEvent(tick=100, data=[7, 121, 68]),
   midi.SetTempoEvent(tick=80, data=[7, 113, 125]),
   midi.SetTempoEvent(tick=360, data=[8, 35, 85]),
   midi.SetTempoEvent(tick=100, data=[7, 98, 31]),
   midi.SetTempoEvent(tick=100, data=[7, 83, 0]),
   midi.SetTempoEvent(tick=80, data=[7, 68, 30]),
   midi.SetTempoEvent(tick=80, data=[7, 53, 121]),
   midi.SetTempoEvent(tick=80, data=[7, 39, 14]),
   midi.SetTempoEvent(tick=80, data=[7, 24, 220]),
   midi.SetTempoEvent(tick=80, data=[7, 10, 226]),
   midi.SetTempoEvent(tick=20, data=[7, 10, 226]),
   midi.SetTempoEvent(tick=120, data=[6, 253, 31]),
   midi.SetTempoEvent(tick=100, data=[6, 239, 145]),
   midi.SetTempoEvent(tick=120, data=[6, 226, 56]),
   midi.SetTempoEvent(tick=100, data=[6, 213, 17]),
   midi.SetTempoEvent(tick=20, data=[6, 200, 28]),
   midi.SetTempoEvent(tick=40, data=[6, 213, 17]),
   midi.SetTempoEvent(tick=20, data=[6, 226, 56]),
   midi.SetTempoEvent(tick=20, data=[6, 239, 145]),
   midi.SetTempoEvent(tick=40, data=[6, 253, 31]),
   midi.SetTempoEvent(tick=20, data=[7, 10, 226]),
   midi.SetTempoEvent(tick=20, data=[7, 24, 220]),
   midi.SetTempoEvent(tick=40, data=[7, 39, 14]),
   midi.SetTempoEvent(tick=20, data=[7, 53, 121]),
   midi.SetTempoEvent(tick=20, data=[7, 68, 30]),
   midi.SetTempoEvent(tick=40, data=[7, 83, 0]),
   midi.SetTempoEvent(tick=20, data=[7, 98, 31]),
   midi.SetTempoEvent(tick=20, data=[7, 113, 125]),
   midi.SetTempoEvent(tick=20, data=[7, 144, 252]),
   midi.SetTempoEvent(tick=20, data=[8, 194, 211]),
   midi.SetTempoEvent(tick=80, data=[7, 246, 11]),
   midi.SetTempoEvent(tick=40, data=[7, 246, 11]),
   midi.SetTempoEvent(tick=480, data=[7, 10, 226]),
   midi.SetTempoEvent(tick=60, data=[7, 3, 250]),
   midi.SetTempoEvent(tick=60, data=[6, 253, 31]),
   midi.SetTempoEvent(tick=60, data=[6, 246, 82]),
   midi.SetTempoEvent(tick=60, data=[6, 239, 145]),
   midi.SetTempoEvent(tick=60, data=[6, 232, 222]),
   midi.SetTempoEvent(tick=60, data=[6, 226, 56]),
   midi.SetTempoEvent(tick=60, data=[6, 219, 158]),
   midi.SetTempoEvent(tick=40, data=[6, 213, 17]),
   midi.SetTempoEvent(tick=20, data=[6, 246, 82]),
   midi.SetTempoEvent(tick=480, data=[7, 39, 14]),
   midi.SetTempoEvent(tick=360, data=[7, 90, 136]),
   midi.SetTempoEvent(tick=120, data=[7, 246, 11]),
   midi.SetTempoEvent(tick=480, data=[7, 194, 59]),
   midi.SetTempoEvent(tick=40, data=[7, 202, 174]),
   midi.SetTempoEvent(tick=20, data=[7, 211, 53]),
   midi.SetTempoEvent(tick=20, data=[7, 219, 205]),
   midi.SetTempoEvent(tick=20, data=[7, 228, 121]),
   midi.SetTempoEvent(tick=20, data=[7, 237, 57]),
   midi.SetTempoEvent(tick=20, data=[7, 246, 11]),
   midi.SetTempoEvent(tick=40, data=[7, 254, 241]),
   midi.SetTempoEvent(tick=20, data=[8, 7, 236]),
   midi.SetTempoEvent(tick=20, data=[8, 16, 250]),
   midi.SetTempoEvent(tick=20, data=[8, 26, 29]),
   midi.SetTempoEvent(tick=20, data=[8, 35, 85]),
   midi.SetTempoEvent(tick=20, data=[8, 44, 162]),
   midi.SetTempoEvent(tick=20, data=[8, 54, 5]),
   midi.SetTempoEvent(tick=40, data=[8, 63, 125]),
   midi.SetTempoEvent(tick=20, data=[8, 73, 10]),
   midi.SetTempoEvent(tick=20, data=[8, 82, 175]),
   midi.SetTempoEvent(tick=20, data=[8, 92, 105]),
   midi.SetTempoEvent(tick=20, data=[8, 102, 59]),
   midi.SetTempoEvent(tick=20, data=[8, 112, 35]),
   midi.SetTempoEvent(tick=20, data=[8, 122, 36]),
   midi.SetTempoEvent(tick=20, data=[8, 227, 124]),
   midi.SetTempoEvent(tick=240, data=[9, 39, 192]),
   midi.SetTempoEvent(tick=120, data=[14, 166, 0]),
   midi.MarkerEvent(tick=360, text='Fine', data=[70, 105, 110, 101]),
   midi.EndOfTrackEvent(tick=0, data=[])]),
 midi.Track(\
  [midi.TrackNameEvent(tick=0, text='Piano right', data=[80, 105, 97, 110, 111, 32, 114, 105, 103, 104, 116]),
   midi.ProgramChangeEvent(tick=0, channel=0, data=[0]),
   midi.ControlChangeEvent(tick=0, channel=0, data=[7, 100]),
   midi.ControlChangeEvent(tick=0, channel=0, data=[10, 64]),
   midi.TextMetaEvent(tick=0, text='bdca426d104a26ac9dcb070447587523', data=[98, 100, 99, 97, 52, 50, 54, 100, 49, 48, 52, 97, 50, 54, 97, 99, 57, 100, 99, 98, 48, 55, 48, 52, 52, 55, 53, 56, 55, 53, 50, 51]),
   midi.ControlChangeEvent(tick=0, channel=0, data=[91, 127]),
   midi.NoteOnEvent(tick=1, channel=0, data=[66, 70]),
   midi.NoteOnEvent(tick=0, channel=0, data=[71, 90]),
   midi.NoteOnEvent(tick=119, channel=0, data=[62, 61]),
   midi.NoteOnEvent(tick=1, channel=0, data=[66, 0]),
   midi.NoteOnEvent(tick=119, channel=0, data=[62, 0]),
   midi.NoteOnEvent(tick=240, channel=0, data=[73, 57]),
   midi.NoteOnEvent(tick=1, channel=0, data=[71, 0]),
   midi.NoteOnEvent(tick=119, channel=0, data=[73, 0]),
   midi.NoteOnEvent(tick=0, channel=0, data=[74, 57]),
   midi.NoteOnEvent(tick=60, channel=0, data=[74, 0]),
   midi.NoteOnEvent(tick=60, channel=0, data=[76, 57]),
   midi.NoteOnEvent(tick=60, channel=0, data=[76, 0]),
   midi.NoteOnEvent(tick=60, channel=0, data=[78, 57]),
   midi.NoteOnEvent(tick=60, channel=0, data=[78, 0]),
   midi.NoteOnEvent(tick=60, channel=0, data=[81, 80]),
   midi.NoteOnEvent(tick=60, channel=0, data=[81, 0]),
   midi.NoteOnEvent(tick=60, channel=0, data=[79, 57]),
   midi.NoteOnEvent(tick=60, channel=0, data=[79, 0]),
   midi.NoteOnEvent(tick=60, channel=0, data=[78, 57]),
   midi.NoteOnEvent(tick=60, channel=0, data=[78, 0]),
   midi.NoteOnEvent(tick=60, channel=0, data=[76, 57]),
   midi.NoteOnEvent(tick=60, channel=0, data=[76, 0]),
   midi.NoteOnEvent(tick=60, channel=0, data=[79, 79]),
   midi.NoteOnEvent(tick=60, channel=0, data=[79, 0]),
   midi.NoteOnEvent(tick=60, channel=0, data=[78, 57]),
   midi.NoteOnEvent(tick=60, channel=0, data=[78, 0]),
   midi.NoteOnEvent(tick=60, channel=0, data=[76, 57]),
   midi.NoteOnEvent(tick=60, channel=0, data=[76, 0]),
   midi.NoteOnEvent(tick=60, channel=0, data=[74, 57]),
   midi.NoteOnEvent(tick=60, channel=0, data=[74, 0]),
   midi.NoteOnEvent(tick=60, channel=0, data=[71, 70]),
   midi.NoteOnEvent(tick=0, channel=0, data=[76, 90]),
   midi.NoteOnEvent(tick=120, channel=0, data=[71, 0]),
   midi.NoteOnEvent(tick=0, channel=0, data=[67, 61]),
   midi.NoteOnEvent(tick=120, channel=0, data=[67, 0]),
   midi.NoteOnEvent(tick=240, channel=0, data=[76, 0]),
   midi.NoteOnEvent(tick=0, channel=0, data=[78, 57]),
   midi.NoteOnEvent(tick=120, channel=0, data=[78, 0]),
   midi.NoteOnEvent(tick=0, channel=0, data=[79, 57]),
   midi.NoteOnEvent(tick=60, channel=0, data=[79, 0]),
   midi.NoteOnEvent(tick=60, channel=0, data=[81, 57]),
   midi.NoteOnEvent(tick=60, channel=0, data=[81, 0]),
   midi.NoteOnEvent(tick=60, channel=0, data=[83, 57]),
   midi.NoteOnEvent(tick=60, channel=0, data=[83, 0]),
   midi.NoteOnEvent(tick=60, channel=0, data=[86, 86]),
   midi.NoteOnEvent(tick=60, channel=0, data=[86, 0]),
   midi.NoteOnEvent(tick=60, channel=0, data=[85, 57]),
   midi.NoteOnEvent(tick=60, channel=0, data=[85, 0]),
   midi.NoteOnEvent(tick=60, channel=0, data=[83, 57]),
   midi.NoteOnEvent(tick=60, channel=0, data=[83, 0]),
   midi.NoteOnEvent(tick=60, channel=0, data=[82, 57]),
   midi.NoteOnEvent(tick=60, channel=0, data=[82, 0]),
   midi.NoteOnEvent(tick=60, channel=0, data=[78, 66]),
   midi.NoteOnEvent(tick=0, channel=0, data=[83, 66]),
   midi.NoteOnEvent(tick=120, channel=0, data=[83, 0]),
   midi.NoteOnEvent(tick=0, channel=0, data=[78, 0]),
   midi.NoteOnEvent(tick=0, channel=0, data=[74, 57]),
   midi.NoteOnEvent(tick=120, channel=0, data=[74, 0]),
   midi.NoteOnEvent(tick=0, channel=0, data=[71, 57]),
   midi.NoteOnEvent(tick=60, channel=0, data=[71, 0]),
   midi.NoteOnEvent(tick=60, channel=0, data=[66, 57]),
   midi.NoteOnEvent(tick=60, channel=0, data=[66, 0]),
   midi.ControlChangeEvent(tick=60, channel=0, data=[91, 127]),
   midi.NoteOnEvent(tick=1, channel=0, data=[66, 70]),
   midi.NoteOnEvent(tick=0, channel=0, data=[71, 90]),
   midi.NoteOnEvent(tick=119, channel=0, data=[62, 61]),
   midi.NoteOnEvent(tick=1, channel=0, data=[66, 0]),
   midi.NoteOnEvent(tick=119, channel=0, data=[62, 0]),
   midi.NoteOnEvent(tick=240, channel=0, data=[73, 60]),
   midi.NoteOnEvent(tick=1, channel=0, data=[71, 0]),
   midi.NoteOnEvent(tick=119, channel=0, data=[73, 0]),
   midi.NoteOnEvent(tick=0, channel=0, data=[74, 58]),
   midi.NoteOnEvent(tick=60, channel=0, data=[74, 0]),
   midi.NoteOnEvent(tick=60, channel=0, data=[76, 60]),
   midi.NoteOnEvent(tick=60, channel=0, data=[76, 0]),
   midi.NoteOnEvent(tick=60, channel=0, data=[78, 61]),
   midi.NoteOnEvent(tick=60, channel=0, data=[78, 0]),
   midi.NoteOnEvent(tick=60, channel=0, data=[81, 84]),
   midi.NoteOnEvent(tick=60, channel=0, data=[81, 0]),
   midi.NoteOnEvent(tick=60, channel=0, data=[79, 55]),
   midi.NoteOnEvent(tick=60, channel=0, data=[79, 0]),
   midi.NoteOnEvent(tick=60, channel=0, data=[78, 56]),
   midi.NoteOnEvent(tick=60, channel=0, data=[78, 0]),
   midi.NoteOnEvent(tick=60, channel=0, data=[76, 57]),
   midi.NoteOnEvent(tick=60, channel=0, data=[76, 0]),
   midi.NoteOnEvent(tick=60, channel=0, data=[79, 78]),
   midi.NoteOnEvent(tick=60, channel=0, data=[79, 0]),
   midi.NoteOnEvent(tick=60, channel=0, data=[78, 56]),
   midi.NoteOnEvent(tick=60, channel=0, data=[78, 0]),
   midi.NoteOnEvent(tick=60, channel=0, data=[76, 58]),
   midi.NoteOnEvent(tick=60, channel=0, data=[76, 0]),
   midi.NoteOnEvent(tick=60, channel=0, data=[74, 61]),
   midi.NoteOnEvent(tick=60, channel=0, data=[74, 0]),
   midi.NoteOnEvent(tick=60, channel=0, data=[71, 70]),
   midi.NoteOnEvent(tick=0, channel=0, data=[76, 89]),
   midi.NoteOnEvent(tick=120, channel=0, data=[71, 0]),
   midi.NoteOnEvent(tick=0, channel=0, data=[67, 61]),
   midi.NoteOnEvent(tick=120, channel=0, data=[67, 0]),
   midi.NoteOnEvent(tick=240, channel=0, data=[76, 0]),
   midi.NoteOnEvent(tick=0, channel=0, data=[78, 55]),
   midi.NoteOnEvent(tick=120, channel=0, data=[78, 0]),
   midi.NoteOnEvent(tick=0, channel=0, data=[79, 56]),
   midi.NoteOnEvent(tick=60, channel=0, data=[79, 0]),
   midi.NoteOnEvent(tick=60, channel=0, data=[81, 57]),
   midi.NoteOnEvent(tick=60, channel=0, data=[81, 0]),
   midi.NoteOnEvent(tick=60, channel=0, data=[83, 58]),
   midi.NoteOnEvent(tick=60, channel=0, data=[83, 0]),
   midi.NoteOnEvent(tick=60, channel=0, data=[86, 86]),
   midi.NoteOnEvent(tick=60, channel=0, data=[86, 0]),
   midi.NoteOnEvent(tick=60, channel=0, data=[85, 62]),
   midi.NoteOnEvent(tick=60, channel=0, data=[85, 0]),
   midi.NoteOnEvent(tick=60, channel=0, data=[83, 61]),
   midi.NoteOnEvent(tick=60, channel=0, data=[83, 0]),
   midi.NoteOnEvent(tick=60, channel=0, data=[82, 60]),
   midi.NoteOnEvent(tick=60, channel=0, data=[82, 0]),
   midi.NoteOnEvent(tick=60, channel=0, data=[78, 66]),
   midi.NoteOnEvent(tick=0, channel=0, data=[83, 66]),
   midi.NoteOnEvent(tick=120, channel=0, data=[83, 0]),
   midi.NoteOnEvent(tick=0, channel=0, data=[78, 0]),
   midi.NoteOnEvent(tick=0, channel=0, data=[74, 60]),
   midi.NoteOnEvent(tick=120, channel=0, data=[74, 0]),
   midi.NoteOnEvent(tick=0, channel=0, data=[71, 58]),
   midi.NoteOnEvent(tick=60, channel=0, data=[71, 0]),
   midi.NoteOnEvent(tick=60, channel=0, data=[66, 58]),
   midi.NoteOnEvent(tick=60, channel=0, data=[66, 0]),
   midi.NoteOnEvent(tick=60, channel=0, data=[74, 70]),
   midi.NoteOnEvent(tick=0, channel=0, data=[79, 91]),
   midi.NoteOnEvent(tick=120, channel=0, data=[74, 0]),
   midi.NoteOnEvent(tick=0, channel=0, data=[71, 70]),
   midi.NoteOnEvent(tick=120, channel=0, data=[71, 0]),
   midi.NoteOnEvent(tick=240, channel=0, data=[79, 0]),
   midi.NoteOnEvent(tick=0, channel=0, data=[69, 52]),
   midi.NoteOnEvent(tick=120, channel=0, data=[69, 0]),
   midi.NoteOnEvent(tick=0, channel=0, data=[71, 56]),
   midi.NoteOnEvent(tick=60, channel=0, data=[71, 0]),
   midi.NoteOnEvent(tick=60, channel=0, data=[73, 60]),
   midi.NoteOnEvent(tick=60, channel=0, data=[73, 0]),
   midi.NoteOnEvent(tick=60, channel=0, data=[74, 64]),
   midi.NoteOnEvent(tick=60, channel=0, data=[74, 0]),
   midi.NoteOnEvent(tick=60, channel=0, data=[78, 77]),
   midi.NoteOnEvent(tick=60, channel=0, data=[78, 0]),
   midi.NoteOnEvent(tick=60, channel=0, data=[76, 66]),
   midi.NoteOnEvent(tick=60, channel=0, data=[76, 0]),
   midi.NoteOnEvent(tick=60, channel=0, data=[74, 65]),
   midi.NoteOnEvent(tick=60, channel=0, data=[74, 0]),
   midi.NoteOnEvent(tick=60, channel=0, data=[72, 63]),
   midi.NoteOnEvent(tick=60, channel=0, data=[72, 0]),
   midi.NoteOnEvent(tick=60, channel=0, data=[71, 62]),
   midi.NoteOnEvent(tick=60, channel=0, data=[71, 0]),
   midi.NoteOnEvent(tick=60, channel=0, data=[69, 61]),
   midi.NoteOnEvent(tick=60, channel=0, data=[69, 0]),
   midi.NoteOnEvent(tick=60, channel=0, data=[67, 59]),
   midi.NoteOnEvent(tick=60, channel=0, data=[67, 0]),
   midi.NoteOnEvent(tick=60, channel=0, data=[66, 58]),
   midi.NoteOnEvent(tick=60, channel=0, data=[66, 0]),
   midi.NoteOnEvent(tick=60, channel=0, data=[64, 68]),
   midi.NoteOnEvent(tick=0, channel=0, data=[67, 88]),
   midi.NoteOnEvent(tick=120, channel=0, data=[64, 0]),
   midi.NoteOnEvent(tick=0, channel=0, data=[59, 69]),
   midi.NoteOnEvent(tick=120, channel=0, data=[59, 0]),
   midi.NoteOnEvent(tick=240, channel=0, data=[67, 0]),
   midi.NoteOnEvent(tick=0, channel=0, data=[66, 60]),
   midi.NoteOnEvent(tick=120, channel=0, data=[66, 0]),
   midi.NoteOnEvent(tick=0, channel=0, data=[67, 58]),
   midi.NoteOnEvent(tick=60, channel=0, data=[67, 0]),
   midi.NoteOnEvent(tick=60, channel=0, data=[69, 62]),
   midi.NoteOnEvent(tick=60, channel=0, data=[69, 0]),
   midi.NoteOnEvent(tick=60, channel=0, data=[71, 65]),
   midi.NoteOnEvent(tick=60, channel=0, data=[71, 0]),
   midi.NoteOnEvent(tick=60, channel=0, data=[74, 76]),
   midi.NoteOnEvent(tick=60, channel=0, data=[74, 0]),
   midi.NoteOnEvent(tick=60, channel=0, data=[72, 66]),
   midi.NoteOnEvent(tick=60, channel=0, data=[72, 0]),
   midi.NoteOnEvent(tick=60, channel=0, data=[71, 65]),
   midi.NoteOnEvent(tick=60, channel=0, data=[71, 0]),
   midi.NoteOnEvent(tick=60, channel=0, data=[69, 63]),
   midi.NoteOnEvent(tick=60, channel=0, data=[69, 0]),
   midi.NoteOnEvent(tick=60, channel=0, data=[67, 61]),
   midi.NoteOnEvent(tick=60, channel=0, data=[67, 0]),
   midi.NoteOnEvent(tick=60, channel=0, data=[66, 60]),
   midi.NoteOnEvent(tick=60, channel=0, data=[66, 0]),
   midi.NoteOnEvent(tick=60, channel=0, data=[64, 58]),
   midi.NoteOnEvent(tick=60, channel=0, data=[64, 0]),
   midi.NoteOnEvent(tick=60, channel=0, data=[63, 56]),
   midi.NoteOnEvent(tick=60, channel=0, data=[63, 0]),
   midi.NoteOnEvent(tick=60, channel=0, data=[60, 56]),
   midi.NoteOnEvent(tick=0, channel=0, data=[64, 56]),
   midi.NoteOnEvent(tick=120, channel=0, data=[60, 0]),
   midi.NoteOnEvent(tick=0, channel=0, data=[55, 54]),
   midi.NoteOnEvent(tick=120, channel=0, data=[55, 0]),
   midi.NoteOnEvent(tick=240, channel=0, data=[64, 0]),
   midi.NoteOnEvent(tick=0, channel=0, data=[62, 51]),
   midi.NoteOnEvent(tick=120, channel=0, data=[64, 52]),
   midi.NoteOnEvent(tick=120, channel=0, data=[64, 0]),
   midi.NoteOnEvent(tick=0, channel=0, data=[62, 0]),
   midi.NoteOnEvent(tick=0, channel=0, data=[59, 53]),
   midi.NoteOnEvent(tick=0, channel=0, data=[65, 53]),
   midi.NoteOnEvent(tick=120, channel=0, data=[65, 0]),
   midi.NoteOnEvent(tick=0, channel=0, data=[67, 55]),
   midi.NoteOnEvent(tick=120, channel=0, data=[67, 0]),
   midi.NoteOnEvent(tick=0, channel=0, data=[59, 0]),
   midi.NoteOnEvent(tick=0, channel=0, data=[60, 56]),
   midi.NoteOnEvent(tick=0, channel=0, data=[64, 56]),
   midi.NoteOnEvent(tick=120, channel=0, data=[60, 0]),
   midi.NoteOnEvent(tick=0, channel=0, data=[55, 53]),
   midi.NoteOnEvent(tick=120, channel=0, data=[55, 0]),
   midi.NoteOnEvent(tick=240, channel=0, data=[64, 0]),
   midi.NoteOnEvent(tick=0, channel=0, data=[65, 54]),
   midi.NoteOnEvent(tick=120, channel=0, data=[67, 57]),
   midi.NoteOnEvent(tick=120, channel=0, data=[67, 0]),
   midi.NoteOnEvent(tick=0, channel=0, data=[65, 0]),
   midi.NoteOnEvent(tick=0, channel=0, data=[62, 60]),
   midi.NoteOnEvent(tick=0, channel=0, data=[69, 60]),
   midi.NoteOnEvent(tick=120, channel=0, data=[69, 0]),
   midi.NoteOnEvent(tick=0, channel=0, data=[71, 63]),
   midi.NoteOnEvent(tick=120, channel=0, data=[71, 0]),
   midi.NoteOnEvent(tick=0, channel=0, data=[62, 0]),
   midi.NoteOnEvent(tick=0, channel=0, data=[67, 66]),
   midi.NoteOnEvent(tick=0, channel=0, data=[72, 66]),
   midi.NoteOnEvent(tick=120, channel=0, data=[67, 0]),
   midi.NoteOnEvent(tick=0, channel=0, data=[64, 56]),
   midi.NoteOnEvent(tick=120, channel=0, data=[64, 0]),
   midi.NoteOnEvent(tick=240, channel=0, data=[72, 0]),
   midi.NoteOnEvent(tick=0, channel=0, data=[70, 77]),
   midi.NoteOnEvent(tick=0, channel=0, data=[76, 77]),
   midi.NoteOnEvent(tick=120, channel=0, data=[64, 56]),
   midi.NoteOnEvent(tick=120, channel=0, data=[64, 0]),
   midi.NoteOnEvent(tick=1200, channel=0, data=[76, 0]),
   midi.NoteOnEvent(tick=0, channel=0, data=[70, 0]),
   midi.ControlChangeEvent(tick=0, channel=0, data=[91, 127]),
   midi.NoteOnEvent(tick=1, channel=0, data=[66, 70]),
   midi.NoteOnEvent(tick=0, channel=0, data=[71, 93]),
   midi.NoteOnEvent(tick=119, channel=0, data=[62, 61]),
   midi.NoteOnEvent(tick=1, channel=0, data=[66, 0]),
   midi.NoteOnEvent(tick=119, channel=0, data=[62, 0]),
   midi.NoteOnEvent(tick=240, channel=0, data=[73, 57]),
   midi.NoteOnEvent(tick=1, channel=0, data=[71, 0]),
   midi.NoteOnEvent(tick=119, channel=0, data=[73, 0]),
   midi.NoteOnEvent(tick=0, channel=0, data=[74, 57]),
   midi.NoteOnEvent(tick=60, channel=0, data=[74, 0]),
   midi.NoteOnEvent(tick=60, channel=0, data=[76, 57]),
   midi.NoteOnEvent(tick=60, channel=0, data=[76, 0]),
   midi.NoteOnEvent(tick=60, channel=0, data=[78, 57]),
   midi.NoteOnEvent(tick=60, channel=0, data=[78, 0]),
   midi.NoteOnEvent(tick=60, channel=0, data=[81, 78]),
   midi.NoteOnEvent(tick=60, channel=0, data=[81, 0]),
   midi.NoteOnEvent(tick=60, channel=0, data=[79, 57]),
   midi.NoteOnEvent(tick=60, channel=0, data=[79, 0]),
   midi.NoteOnEvent(tick=60, channel=0, data=[78, 57]),
   midi.NoteOnEvent(tick=60, channel=0, data=[78, 0]),
   midi.NoteOnEvent(tick=60, channel=0, data=[76, 57]),
   midi.NoteOnEvent(tick=60, channel=0, data=[76, 0]),
   midi.NoteOnEvent(tick=60, channel=0, data=[79, 76]),
   midi.NoteOnEvent(tick=60, channel=0, data=[79, 0]),
   midi.NoteOnEvent(tick=60, channel=0, data=[78, 57]),
   midi.NoteOnEvent(tick=60, channel=0, data=[78, 0]),
   midi.NoteOnEvent(tick=60, channel=0, data=[76, 57]),
   midi.NoteOnEvent(tick=60, channel=0, data=[76, 0]),
   midi.NoteOnEvent(tick=60, channel=0, data=[74, 57]),
   midi.NoteOnEvent(tick=60, channel=0, data=[74, 0]),
   midi.NoteOnEvent(tick=60, channel=0, data=[71, 70]),
   midi.NoteOnEvent(tick=0, channel=0, data=[76, 93]),
   midi.NoteOnEvent(tick=120, channel=0, data=[71, 0]),
   midi.NoteOnEvent(tick=0, channel=0, data=[67, 61]),
   midi.NoteOnEvent(tick=120, channel=0, data=[67, 0]),
   midi.NoteOnEvent(tick=240, channel=0, data=[76, 0]),
   midi.NoteOnEvent(tick=0, channel=0, data=[78, 57]),
   midi.NoteOnEvent(tick=120, channel=0, data=[78, 0]),
   midi.NoteOnEvent(tick=0, channel=0, data=[79, 57]),
   midi.NoteOnEvent(tick=60, channel=0, data=[79, 0]),
   midi.NoteOnEvent(tick=60, channel=0, data=[81, 57]),
   midi.NoteOnEvent(tick=60, channel=0, data=[81, 0]),
   midi.NoteOnEvent(tick=60, channel=0, data=[83, 57]),
   midi.NoteOnEvent(tick=60, channel=0, data=[83, 0]),
   midi.NoteOnEvent(tick=60, channel=0, data=[86, 78]),
   midi.NoteOnEvent(tick=60, channel=0, data=[86, 0]),
   midi.NoteOnEvent(tick=60, channel=0, data=[85, 57]),
   midi.NoteOnEvent(tick=60, channel=0, data=[85, 0]),
   midi.NoteOnEvent(tick=60, channel=0, data=[83, 57]),
   midi.NoteOnEvent(tick=60, channel=0, data=[83, 0]),
   midi.NoteOnEvent(tick=60, channel=0, data=[82, 57]),
   midi.NoteOnEvent(tick=60, channel=0, data=[82, 0]),
   midi.NoteOnEvent(tick=60, channel=0, data=[78, 66]),
   midi.NoteOnEvent(tick=0, channel=0, data=[83, 66]),
   midi.NoteOnEvent(tick=120, channel=0, data=[83, 0]),
   midi.NoteOnEvent(tick=0, channel=0, data=[78, 0]),
   midi.NoteOnEvent(tick=0, channel=0, data=[74, 57]),
   midi.NoteOnEvent(tick=120, channel=0, data=[74, 0]),
   midi.NoteOnEvent(tick=0, channel=0, data=[71, 57]),
   midi.NoteOnEvent(tick=60, channel=0, data=[71, 0]),
   midi.NoteOnEvent(tick=60, channel=0, data=[66, 57]),
   midi.NoteOnEvent(tick=60, channel=0, data=[66, 0]),
   midi.NoteOnEvent(tick=60, channel=0, data=[74, 70]),
   midi.NoteOnEvent(tick=0, channel=0, data=[79, 91]),
   midi.NoteOnEvent(tick=120, channel=0, data=[74, 0]),
   midi.NoteOnEvent(tick=0, channel=0, data=[71, 70]),
   midi.NoteOnEvent(tick=120, channel=0, data=[71, 0]),
   midi.NoteOnEvent(tick=240, channel=0, data=[79, 0]),
   midi.NoteOnEvent(tick=0, channel=0, data=[69, 52]),
   midi.NoteOnEvent(tick=120, channel=0, data=[69, 0]),
   midi.NoteOnEvent(tick=0, channel=0, data=[71, 56]),
   midi.NoteOnEvent(tick=60, channel=0, data=[71, 0]),
   midi.NoteOnEvent(tick=60, channel=0, data=[73, 60]),
   midi.NoteOnEvent(tick=60, channel=0, data=[73, 0]),
   midi.NoteOnEvent(tick=60, channel=0, data=[74, 64]),
   midi.NoteOnEvent(tick=60, channel=0, data=[74, 0]),
   midi.NoteOnEvent(tick=60, channel=0, data=[78, 77]),
   midi.NoteOnEvent(tick=60, channel=0, data=[78, 0]),
   midi.NoteOnEvent(tick=60, channel=0, data=[76, 66]),
   midi.NoteOnEvent(tick=60, channel=0, data=[76, 0]),
   midi.NoteOnEvent(tick=60, channel=0, data=[74, 65]),
   midi.NoteOnEvent(tick=60, channel=0, data=[74, 0]),
   midi.NoteOnEvent(tick=60, channel=0, data=[72, 63]),
   midi.NoteOnEvent(tick=60, channel=0, data=[72, 0]),
   midi.NoteOnEvent(tick=60, channel=0, data=[71, 62]),
   midi.NoteOnEvent(tick=60, channel=0, data=[71, 0]),
   midi.NoteOnEvent(tick=60, channel=0, data=[69, 61]),
   midi.NoteOnEvent(tick=60, channel=0, data=[69, 0]),
   midi.NoteOnEvent(tick=60, channel=0, data=[67, 59]),
   midi.NoteOnEvent(tick=60, channel=0, data=[67, 0]),
   midi.NoteOnEvent(tick=60, channel=0, data=[66, 58]),
   midi.NoteOnEvent(tick=60, channel=0, data=[66, 0]),
   midi.NoteOnEvent(tick=60, channel=0, data=[64, 68]),
   midi.NoteOnEvent(tick=0, channel=0, data=[67, 88]),
   midi.NoteOnEvent(tick=120, channel=0, data=[64, 0]),
   midi.NoteOnEvent(tick=0, channel=0, data=[59, 69]),
   midi.NoteOnEvent(tick=120, channel=0, data=[59, 0]),
   midi.NoteOnEvent(tick=240, channel=0, data=[67, 0]),
   midi.NoteOnEvent(tick=0, channel=0, data=[66, 60]),
   midi.NoteOnEvent(tick=120, channel=0, data=[66, 0]),
   midi.NoteOnEvent(tick=0, channel=0, data=[67, 58]),
   midi.NoteOnEvent(tick=60, channel=0, data=[67, 0]),
   midi.NoteOnEvent(tick=60, channel=0, data=[69, 62]),
   midi.NoteOnEvent(tick=60, channel=0, data=[69, 0]),
   midi.NoteOnEvent(tick=60, channel=0, data=[71, 65]),
   midi.NoteOnEvent(tick=60, channel=0, data=[71, 0]),
   midi.NoteOnEvent(tick=60, channel=0, data=[74, 80]),
   midi.NoteOnEvent(tick=60, channel=0, data=[74, 0]),
   midi.NoteOnEvent(tick=60, channel=0, data=[72, 66]),
   midi.NoteOnEvent(tick=60, channel=0, data=[72, 0]),
   midi.NoteOnEvent(tick=60, channel=0, data=[71, 65]),
   midi.NoteOnEvent(tick=60, channel=0, data=[71, 0]),
   midi.NoteOnEvent(tick=60, channel=0, data=[69, 63]),
   midi.NoteOnEvent(tick=60, channel=0, data=[69, 0]),
   midi.NoteOnEvent(tick=60, channel=0, data=[67, 61]),
   midi.NoteOnEvent(tick=60, channel=0, data=[67, 0]),
   midi.NoteOnEvent(tick=60, channel=0, data=[66, 60]),
   midi.NoteOnEvent(tick=60, channel=0, data=[66, 0]),
   midi.NoteOnEvent(tick=60, channel=0, data=[64, 58]),
   midi.NoteOnEvent(tick=60, channel=0, data=[64, 0]),
   midi.NoteOnEvent(tick=60, channel=0, data=[63, 56]),
   midi.NoteOnEvent(tick=60, channel=0, data=[63, 0]),
   midi.NoteOnEvent(tick=60, channel=0, data=[60, 56]),
   midi.NoteOnEvent(tick=0, channel=0, data=[64, 56]),
   midi.NoteOnEvent(tick=120, channel=0, data=[60, 0]),
   midi.NoteOnEvent(tick=0, channel=0, data=[55, 54]),
   midi.NoteOnEvent(tick=120, channel=0, data=[55, 0]),
   midi.NoteOnEvent(tick=240, channel=0, data=[64, 0]),
   midi.NoteOnEvent(tick=0, channel=0, data=[62, 51]),
   midi.NoteOnEvent(tick=120, channel=0, data=[64, 52]),
   midi.NoteOnEvent(tick=120, channel=0, data=[64, 0]),
   midi.NoteOnEvent(tick=0, channel=0, data=[62, 0]),
   midi.NoteOnEvent(tick=0, channel=0, data=[59, 53]),
   midi.NoteOnEvent(tick=0, channel=0, data=[65, 53]),
   midi.NoteOnEvent(tick=120, channel=0, data=[65, 0]),
   midi.NoteOnEvent(tick=0, channel=0, data=[67, 55]),
   midi.NoteOnEvent(tick=120, channel=0, data=[67, 0]),
   midi.NoteOnEvent(tick=0, channel=0, data=[59, 0]),
   midi.NoteOnEvent(tick=0, channel=0, data=[60, 56]),
   midi.NoteOnEvent(tick=0, channel=0, data=[64, 56]),
   midi.NoteOnEvent(tick=120, channel=0, data=[60, 0]),
   midi.NoteOnEvent(tick=0, channel=0, data=[55, 53]),
   midi.NoteOnEvent(tick=120, channel=0, data=[55, 0]),
   midi.NoteOnEvent(tick=240, channel=0, data=[64, 0]),
   midi.NoteOnEvent(tick=0, channel=0, data=[65, 54]),
   midi.NoteOnEvent(tick=120, channel=0, data=[67, 57]),
   midi.NoteOnEvent(tick=120, channel=0, data=[67, 0]),
   midi.NoteOnEvent(tick=0, channel=0, data=[65, 0]),
   midi.NoteOnEvent(tick=0, channel=0, data=[62, 60]),
   midi.NoteOnEvent(tick=0, channel=0, data=[69, 60]),
   midi.NoteOnEvent(tick=120, channel=0, data=[69, 0]),
   midi.NoteOnEvent(tick=0, channel=0, data=[71, 63]),
   midi.NoteOnEvent(tick=120, channel=0, data=[71, 0]),
   midi.NoteOnEvent(tick=0, channel=0, data=[62, 0]),
   midi.NoteOnEvent(tick=0, channel=0, data=[67, 66]),
   midi.NoteOnEvent(tick=0, channel=0, data=[72, 66]),
   midi.NoteOnEvent(tick=120, channel=0, data=[67, 0]),
   midi.NoteOnEvent(tick=0, channel=0, data=[64, 56]),
   midi.NoteOnEvent(tick=120, channel=0, data=[64, 0]),
   midi.NoteOnEvent(tick=240, channel=0, data=[72, 0]),
   midi.NoteOnEvent(tick=0, channel=0, data=[70, 77]),
   midi.NoteOnEvent(tick=0, channel=0, data=[76, 77]),
   midi.NoteOnEvent(tick=120, channel=0, data=[64, 56]),
   midi.NoteOnEvent(tick=120, channel=0, data=[64, 0]),
   midi.NoteOnEvent(tick=1200, channel=0, data=[76, 0]),
   midi.NoteOnEvent(tick=0, channel=0, data=[70, 0]),
   midi.ControlChangeEvent(tick=0, channel=0, data=[91, 127]),
   midi.NoteOnEvent(tick=1, channel=0, data=[66, 70]),
   midi.NoteOnEvent(tick=0, channel=0, data=[71, 96]),
   midi.NoteOnEvent(tick=119, channel=0, data=[62, 61]),
   midi.NoteOnEvent(tick=1, channel=0, data=[66, 0]),
   midi.NoteOnEvent(tick=119, channel=0, data=[62, 0]),
   midi.NoteOnEvent(tick=240, channel=0, data=[73, 57]),
   midi.NoteOnEvent(tick=1, channel=0, data=[71, 0]),
   midi.NoteOnEvent(tick=119, channel=0, data=[73, 0]),
   midi.NoteOnEvent(tick=0, channel=0, data=[74, 57]),
   midi.NoteOnEvent(tick=60, channel=0, data=[74, 0]),
   midi.NoteOnEvent(tick=60, channel=0, data=[76, 57]),
   midi.NoteOnEvent(tick=60, channel=0, data=[76, 0]),
   midi.NoteOnEvent(tick=60, channel=0, data=[78, 57]),
   midi.NoteOnEvent(tick=60, channel=0, data=[78, 0]),
   midi.NoteOnEvent(tick=60, channel=0, data=[81, 76]),
   midi.NoteOnEvent(tick=60, channel=0, data=[81, 0]),
   midi.NoteOnEvent(tick=60, channel=0, data=[79, 57]),
   midi.NoteOnEvent(tick=60, channel=0, data=[79, 0]),
   midi.NoteOnEvent(tick=60, channel=0, data=[78, 57]),
   midi.NoteOnEvent(tick=60, channel=0, data=[78, 0]),
   midi.NoteOnEvent(tick=60, channel=0, data=[76, 57]),
   midi.NoteOnEvent(tick=60, channel=0, data=[76, 0]),
   midi.NoteOnEvent(tick=60, channel=0, data=[79, 73]),
   midi.NoteOnEvent(tick=60, channel=0, data=[79, 0]),
   midi.NoteOnEvent(tick=60, channel=0, data=[78, 57]),
   midi.NoteOnEvent(tick=60, channel=0, data=[78, 0]),
   midi.NoteOnEvent(tick=60, channel=0, data=[76, 57]),
   midi.NoteOnEvent(tick=60, channel=0, data=[76, 0]),
   midi.NoteOnEvent(tick=60, channel=0, data=[74, 57]),
   midi.NoteOnEvent(tick=60, channel=0, data=[74, 0]),
   midi.NoteOnEvent(tick=60, channel=0, data=[71, 70]),
   midi.NoteOnEvent(tick=0, channel=0, data=[76, 93]),
   midi.NoteOnEvent(tick=120, channel=0, data=[71, 0]),
   midi.NoteOnEvent(tick=0, channel=0, data=[67, 61]),
   midi.NoteOnEvent(tick=120, channel=0, data=[67, 0]),
   midi.NoteOnEvent(tick=240, channel=0, data=[76, 0]),
   midi.NoteOnEvent(tick=0, channel=0, data=[78, 57]),
   midi.NoteOnEvent(tick=120, channel=0, data=[78, 0]),
   midi.NoteOnEvent(tick=0, channel=0, data=[79, 57]),
   midi.NoteOnEvent(tick=60, channel=0, data=[79, 0]),
   midi.NoteOnEvent(tick=60, channel=0, data=[81, 57]),
   midi.NoteOnEvent(tick=60, channel=0, data=[81, 0]),
   midi.NoteOnEvent(tick=60, channel=0, data=[83, 57]),
   midi.NoteOnEvent(tick=60, channel=0, data=[83, 0]),
   midi.NoteOnEvent(tick=60, channel=0, data=[86, 67]),
   midi.NoteOnEvent(tick=60, channel=0, data=[86, 0]),
   midi.NoteOnEvent(tick=60, channel=0, data=[85, 53]),
   midi.NoteOnEvent(tick=60, channel=0, data=[85, 0]),
   midi.NoteOnEvent(tick=60, channel=0, data=[83, 47]),
   midi.NoteOnEvent(tick=60, channel=0, data=[83, 0]),
   midi.NoteOnEvent(tick=60, channel=0, data=[82, 47]),
   midi.NoteOnEvent(tick=60, channel=0, data=[82, 0]),
   midi.NoteOnEvent(tick=60, channel=0, data=[83, 53]),
   midi.NoteOnEvent(tick=240, channel=0, data=[83, 0]),
   midi.EndOfTrackEvent(tick=0, data=[])]),
 midi.Track(\
  [midi.TrackNameEvent(tick=0, text='Piano left', data=[80, 105, 97, 110, 111, 32, 108, 101, 102, 116]),
   midi.ProgramChangeEvent(tick=0, channel=0, data=[0]),
   midi.ControlChangeEvent(tick=0, channel=0, data=[7, 100]),
   midi.ControlChangeEvent(tick=0, channel=0, data=[10, 64]),
   midi.ControlChangeEvent(tick=0, channel=0, data=[64, 127]),
   midi.ControlChangeEvent(tick=0, channel=0, data=[91, 127]),
   midi.NoteOnEvent(tick=1, channel=0, data=[47, 80]),
   midi.NoteOnEvent(tick=60, channel=0, data=[47, 0]),
   midi.ControlChangeEvent(tick=55, channel=0, data=[64, 0]),
   midi.NoteOnEvent(tick=124, channel=0, data=[59, 54]),
   midi.NoteOnEvent(tick=60, channel=0, data=[59, 0]),
   midi.NoteOnEvent(tick=60, channel=0, data=[54, 54]),
   midi.NoteOnEvent(tick=60, channel=0, data=[54, 0]),
   midi.NoteOnEvent(tick=60, channel=0, data=[47, 57]),
   midi.NoteOnEvent(tick=60, channel=0, data=[47, 0]),
   midi.NoteOnEvent(tick=180, channel=0, data=[62, 50]),
   midi.NoteOnEvent(tick=0, channel=0, data=[54, 50]),
   midi.NoteOnEvent(tick=60, channel=0, data=[54, 0]),
   midi.NoteOnEvent(tick=0, channel=0, data=[62, 0]),
   midi.NoteOnEvent(tick=180, channel=0, data=[52, 62]),
   midi.NoteOnEvent(tick=60, channel=0, data=[52, 0]),
   midi.NoteOnEvent(tick=180, channel=0, data=[64, 52]),
   midi.NoteOnEvent(tick=0, channel=0, data=[59, 52]),
   midi.NoteOnEvent(tick=60, channel=0, data=[59, 0]),
   midi.NoteOnEvent(tick=0, channel=0, data=[64, 0]),
   midi.NoteOnEvent(tick=180, channel=0, data=[47, 59]),
   midi.NoteOnEvent(tick=60, channel=0, data=[47, 0]),
   midi.NoteOnEvent(tick=180, channel=0, data=[62, 52]),
   midi.NoteOnEvent(tick=0, channel=0, data=[59, 52]),
   midi.NoteOnEvent(tick=60, channel=0, data=[59, 0]),
   midi.NoteOnEvent(tick=0, channel=0, data=[62, 0]),
   midi.NoteOnEvent(tick=180, channel=0, data=[52, 78]),
   midi.ControlChangeEvent(tick=0, channel=0, data=[64, 127]),
   midi.NoteOnEvent(tick=120, channel=0, data=[52, 0]),
   midi.ControlChangeEvent(tick=39, channel=0, data=[64, 0]),
   midi.NoteOnEvent(tick=81, channel=0, data=[64, 51]),
   midi.NoteOnEvent(tick=60, channel=0, data=[64, 0]),
   midi.NoteOnEvent(tick=60, channel=0, data=[59, 52]),
   midi.NoteOnEvent(tick=60, channel=0, data=[59, 0]),
   midi.NoteOnEvent(tick=60, channel=0, data=[52, 57]),
   midi.NoteOnEvent(tick=60, channel=0, data=[52, 0]),
   midi.NoteOnEvent(tick=180, channel=0, data=[64, 52]),
   midi.NoteOnEvent(tick=0, channel=0, data=[67, 52]),
   midi.NoteOnEvent(tick=60, channel=0, data=[67, 0]),
   midi.NoteOnEvent(tick=0, channel=0, data=[64, 0]),
   midi.NoteOnEvent(tick=180, channel=0, data=[54, 59]),
   midi.NoteOnEvent(tick=60, channel=0, data=[54, 0]),
   midi.NoteOnEvent(tick=180, channel=0, data=[64, 50]),
   midi.NoteOnEvent(tick=0, channel=0, data=[70, 50]),
   midi.NoteOnEvent(tick=60, channel=0, data=[70, 0]),
   midi.NoteOnEvent(tick=0, channel=0, data=[64, 0]),
   midi.NoteOnEvent(tick=180, channel=0, data=[59, 59]),
   midi.NoteOnEvent(tick=60, channel=0, data=[59, 0]),
   midi.ControlChangeEvent(tick=420, channel=0, data=[91, 127]),
   midi.NoteOnEvent(tick=1, channel=0, data=[47, 80]),
   midi.ControlChangeEvent(tick=3, channel=0, data=[64, 127]),
   midi.NoteOnEvent(tick=57, channel=0, data=[47, 0]),
   midi.ControlChangeEvent(tick=98, channel=0, data=[64, 0]),
   midi.NoteOnEvent(tick=81, channel=0, data=[59, 54]),
   midi.NoteOnEvent(tick=60, channel=0, data=[59, 0]),
   midi.NoteOnEvent(tick=60, channel=0, data=[54, 54]),
   midi.NoteOnEvent(tick=60, channel=0, data=[54, 0]),
   midi.NoteOnEvent(tick=60, channel=0, data=[47, 57]),
   midi.NoteOnEvent(tick=60, channel=0, data=[47, 0]),
   midi.NoteOnEvent(tick=180, channel=0, data=[62, 51]),
   midi.NoteOnEvent(tick=0, channel=0, data=[54, 51]),
   midi.NoteOnEvent(tick=60, channel=0, data=[54, 0]),
   midi.NoteOnEvent(tick=0, channel=0, data=[62, 0]),
   midi.NoteOnEvent(tick=180, channel=0, data=[52, 61]),
   midi.NoteOnEvent(tick=60, channel=0, data=[52, 0]),
   midi.NoteOnEvent(tick=180, channel=0, data=[64, 54]),
   midi.NoteOnEvent(tick=0, channel=0, data=[59, 54]),
   midi.NoteOnEvent(tick=60, channel=0, data=[59, 0]),
   midi.NoteOnEvent(tick=0, channel=0, data=[64, 0]),
   midi.NoteOnEvent(tick=180, channel=0, data=[47, 64]),
   midi.NoteOnEvent(tick=60, channel=0, data=[47, 0]),
   midi.NoteOnEvent(tick=180, channel=0, data=[62, 54]),
   midi.NoteOnEvent(tick=0, channel=0, data=[59, 54]),
   midi.NoteOnEvent(tick=60, channel=0, data=[59, 0]),
   midi.NoteOnEvent(tick=0, channel=0, data=[62, 0]),
   midi.NoteOnEvent(tick=180, channel=0, data=[52, 78]),
   midi.ControlChangeEvent(tick=0, channel=0, data=[64, 127]),
   midi.NoteOnEvent(tick=120, channel=0, data=[52, 0]),
   midi.ControlChangeEvent(tick=60, channel=0, data=[64, 0]),
   midi.NoteOnEvent(tick=60, channel=0, data=[64, 51]),
   midi.NoteOnEvent(tick=60, channel=0, data=[64, 0]),
   midi.NoteOnEvent(tick=60, channel=0, data=[59, 52]),
   midi.NoteOnEvent(tick=60, channel=0, data=[59, 0]),
   midi.NoteOnEvent(tick=60, channel=0, data=[52, 57]),
   midi.NoteOnEvent(tick=60, channel=0, data=[52, 0]),
   midi.NoteOnEvent(tick=180, channel=0, data=[64, 52]),
   midi.NoteOnEvent(tick=0, channel=0, data=[67, 52]),
   midi.NoteOnEvent(tick=60, channel=0, data=[67, 0]),
   midi.NoteOnEvent(tick=0, channel=0, data=[64, 0]),
   midi.NoteOnEvent(tick=180, channel=0, data=[54, 60]),
   midi.NoteOnEvent(tick=60, channel=0, data=[54, 0]),
   midi.NoteOnEvent(tick=180, channel=0, data=[64, 50]),
   midi.NoteOnEvent(tick=0, channel=0, data=[70, 50]),
   midi.NoteOnEvent(tick=60, channel=0, data=[70, 0]),
   midi.NoteOnEvent(tick=0, channel=0, data=[64, 0]),
   midi.NoteOnEvent(tick=180, channel=0, data=[59, 57]),
   midi.NoteOnEvent(tick=60, channel=0, data=[59, 0]),
   midi.ControlChangeEvent(tick=420, channel=0, data=[64, 127]),
   midi.NoteOnEvent(tick=0, channel=0, data=[59, 74]),
   midi.NoteOnEvent(tick=120, channel=0, data=[59, 0]),
   midi.ControlChangeEvent(tick=42, channel=0, data=[64, 0]),
   midi.NoteOnEvent(tick=78, channel=0, data=[67, 48]),
   midi.NoteOnEvent(tick=60, channel=0, data=[67, 0]),
   midi.NoteOnEvent(tick=60, channel=0, data=[62, 48]),
   midi.NoteOnEvent(tick=60, channel=0, data=[62, 0]),
   midi.NoteOnEvent(tick=60, channel=0, data=[59, 54]),
   midi.NoteOnEvent(tick=60, channel=0, data=[59, 0]),
   midi.NoteOnEvent(tick=180, channel=0, data=[67, 49]),
   midi.NoteOnEvent(tick=0, channel=0, data=[62, 49]),
   midi.NoteOnEvent(tick=60, channel=0, data=[62, 0]),
   midi.NoteOnEvent(tick=0, channel=0, data=[67, 0]),
   midi.NoteOnEvent(tick=180, channel=0, data=[57, 60]),
   midi.NoteOnEvent(tick=60, channel=0, data=[57, 0]),
   midi.NoteOnEvent(tick=180, channel=0, data=[67, 51]),
   midi.NoteOnEvent(tick=0, channel=0, data=[60, 51]),
   midi.NoteOnEvent(tick=60, channel=0, data=[60, 0]),
   midi.NoteOnEvent(tick=0, channel=0, data=[67, 0]),
   midi.NoteOnEvent(tick=180, channel=0, data=[50, 59]),
   midi.NoteOnEvent(tick=60, channel=0, data=[50, 0]),
   midi.NoteOnEvent(tick=180, channel=0, data=[60, 49]),
   midi.NoteOnEvent(tick=60, channel=0, data=[60, 0]),
   midi.ControlChangeEvent(tick=194, channel=0, data=[64, 127]),
   midi.ControlChangeEvent(tick=131, channel=0, data=[64, 0]),
   midi.NoteOnEvent(tick=95, channel=0, data=[55, 47]),
   midi.NoteOnEvent(tick=60, channel=0, data=[55, 0]),
   midi.NoteOnEvent(tick=60, channel=0, data=[52, 47]),
   midi.NoteOnEvent(tick=60, channel=0, data=[52, 0]),
   midi.NoteOnEvent(tick=60, channel=0, data=[47, 54]),
   midi.NoteOnEvent(tick=120, channel=0, data=[47, 0]),
   midi.NoteOnEvent(tick=120, channel=0, data=[59, 47]),
   midi.NoteOnEvent(tick=0, channel=0, data=[55, 47]),
   midi.NoteOnEvent(tick=60, channel=0, data=[55, 0]),
   midi.NoteOnEvent(tick=0, channel=0, data=[59, 0]),
   midi.NoteOnEvent(tick=180, channel=0, data=[45, 59]),
   midi.NoteOnEvent(tick=60, channel=0, data=[45, 0]),
   midi.NoteOnEvent(tick=180, channel=0, data=[60, 48]),
   midi.NoteOnEvent(tick=0, channel=0, data=[54, 48]),
   midi.NoteOnEvent(tick=60, channel=0, data=[54, 0]),
   midi.NoteOnEvent(tick=0, channel=0, data=[60, 0]),
   midi.NoteOnEvent(tick=180, channel=0, data=[47, 58]),
   midi.NoteOnEvent(tick=60, channel=0, data=[47, 0]),
   midi.NoteOnEvent(tick=180, channel=0, data=[54, 47]),
   midi.NoteOnEvent(tick=0, channel=0, data=[57, 47]),
   midi.NoteOnEvent(tick=60, channel=0, data=[57, 0]),
   midi.NoteOnEvent(tick=0, channel=0, data=[54, 0]),
   midi.ControlChangeEvent(tick=180, channel=0, data=[64, 127]),
   midi.NoteOnEvent(tick=240, channel=0, data=[52, 51]),
   midi.NoteOnEvent(tick=120, channel=0, data=[52, 0]),
   midi.NoteOnEvent(tick=0, channel=0, data=[48, 51]),
   midi.NoteOnEvent(tick=120, channel=0, data=[48, 0]),
   midi.NoteOnEvent(tick=0, channel=0, data=[36, 56]),
   midi.NoteOnEvent(tick=0, channel=0, data=[43, 56]),
   midi.ControlChangeEvent(tick=3, channel=0, data=[64, 0]),
   midi.ControlChangeEvent(tick=60, channel=0, data=[64, 127]),
   midi.ControlChangeEvent(tick=417, channel=0, data=[64, 0]),
   midi.ControlChangeEvent(tick=69, channel=0, data=[64, 127]),
   midi.NoteOnEvent(tick=171, channel=0, data=[43, 0]),
   midi.NoteOnEvent(tick=0, channel=0, data=[36, 0]),
   midi.NoteOnEvent(tick=0, channel=0, data=[52, 50]),
   midi.NoteOnEvent(tick=120, channel=0, data=[52, 0]),
   midi.NoteOnEvent(tick=0, channel=0, data=[48, 50]),
   midi.NoteOnEvent(tick=120, channel=0, data=[48, 0]),
   midi.NoteOnEvent(tick=0, channel=0, data=[36, 56]),
   midi.NoteOnEvent(tick=0, channel=0, data=[43, 56]),
   midi.ControlChangeEvent(tick=11, channel=0, data=[64, 0]),
   midi.ControlChangeEvent(tick=69, channel=0, data=[64, 127]),
   midi.ControlChangeEvent(tick=400, channel=0, data=[64, 0]),
   midi.ControlChangeEvent(tick=69, channel=0, data=[64, 127]),
   midi.NoteOnEvent(tick=171, channel=0, data=[43, 0]),
   midi.NoteOnEvent(tick=0, channel=0, data=[36, 0]),
   midi.NoteOnEvent(tick=0, channel=0, data=[60, 53]),
   midi.NoteOnEvent(tick=120, channel=0, data=[60, 0]),
   midi.NoteOnEvent(tick=0, channel=0, data=[55, 54]),
   midi.NoteOnEvent(tick=120, channel=0, data=[55, 0]),
   midi.NoteOnEvent(tick=0, channel=0, data=[42, 66]),
   midi.NoteOnEvent(tick=0, channel=0, data=[54, 66]),
   midi.ControlChangeEvent(tick=4, channel=0, data=[64, 0]),
   midi.ControlChangeEvent(tick=65, channel=0, data=[64, 127]),
   midi.NoteOnEvent(tick=171, channel=0, data=[56, 50]),
   midi.NoteOnEvent(tick=120, channel=0, data=[56, 0]),
   midi.NoteOnEvent(tick=0, channel=0, data=[57, 52]),
   midi.NoteOnEvent(tick=120, channel=0, data=[57, 0]),
   midi.NoteOnEvent(tick=0, channel=0, data=[58, 56]),
   midi.ControlChangeEvent(tick=2, channel=0, data=[64, 0]),
   midi.ControlChangeEvent(tick=113, channel=0, data=[64, 127]),
   midi.NoteOnEvent(tick=5, channel=0, data=[58, 0]),
   midi.NoteOnEvent(tick=0, channel=0, data=[59, 58]),
   midi.NoteOnEvent(tick=120, channel=0, data=[59, 0]),
   midi.NoteOnEvent(tick=0, channel=0, data=[60, 60]),
   midi.NoteOnEvent(tick=120, channel=0, data=[60, 0]),
   midi.NoteOnEvent(tick=0, channel=0, data=[61, 64]),
   midi.NoteOnEvent(tick=120, channel=0, data=[61, 0]),
   midi.NoteOnEvent(tick=0, channel=0, data=[62, 67]),
   midi.ControlChangeEvent(tick=17, channel=0, data=[64, 0]),
   midi.ControlChangeEvent(tick=57, channel=0, data=[64, 127]),
   midi.NoteOnEvent(tick=46, channel=0, data=[62, 0]),
   midi.NoteOnEvent(tick=0, channel=0, data=[63, 67]),
   midi.NoteOnEvent(tick=120, channel=0, data=[63, 0]),
   midi.NoteOnEvent(tick=0, channel=0, data=[64, 69]),
   midi.NoteOnEvent(tick=120, channel=0, data=[64, 0]),
   midi.NoteOnEvent(tick=0, channel=0, data=[65, 71]),
   midi.NoteOnEvent(tick=120, channel=0, data=[65, 0]),
   midi.NoteOnEvent(tick=0, channel=0, data=[54, 0]),
   midi.NoteOnEvent(tick=0, channel=0, data=[42, 0]),
   midi.ControlChangeEvent(tick=0, channel=0, data=[64, 0]),
   midi.ControlChangeEvent(tick=0, channel=0, data=[91, 127]),
   midi.ControlChangeEvent(tick=49, channel=0, data=[64, 127]),
   midi.ControlChangeEvent(tick=103, channel=0, data=[64, 0]),
   midi.NoteOnEvent(tick=88, channel=0, data=[59, 54]),
   midi.NoteOnEvent(tick=60, channel=0, data=[59, 0]),
   midi.NoteOnEvent(tick=60, channel=0, data=[54, 54]),
   midi.NoteOnEvent(tick=60, channel=0, data=[54, 0]),
   midi.NoteOnEvent(tick=60, channel=0, data=[47, 57]),
   midi.NoteOnEvent(tick=60, channel=0, data=[47, 0]),
   midi.NoteOnEvent(tick=180, channel=0, data=[62, 50]),
   midi.NoteOnEvent(tick=0, channel=0, data=[54, 50]),
   midi.NoteOnEvent(tick=60, channel=0, data=[54, 0]),
   midi.NoteOnEvent(tick=0, channel=0, data=[62, 0]),
   midi.NoteOnEvent(tick=180, channel=0, data=[52, 63]),
   midi.NoteOnEvent(tick=60, channel=0, data=[52, 0]),
   midi.NoteOnEvent(tick=180, channel=0, data=[64, 52]),
   midi.NoteOnEvent(tick=0, channel=0, data=[59, 52]),
   midi.NoteOnEvent(tick=60, channel=0, data=[59, 0]),
   midi.NoteOnEvent(tick=0, channel=0, data=[64, 0]),
   midi.NoteOnEvent(tick=180, channel=0, data=[47, 59]),
   midi.NoteOnEvent(tick=60, channel=0, data=[47, 0]),
   midi.NoteOnEvent(tick=180, channel=0, data=[62, 52]),
   midi.NoteOnEvent(tick=0, channel=0, data=[59, 52]),
   midi.NoteOnEvent(tick=60, channel=0, data=[59, 0]),
   midi.NoteOnEvent(tick=0, channel=0, data=[62, 0]),
   midi.NoteOnEvent(tick=180, channel=0, data=[52, 78]),
   midi.ControlChangeEvent(tick=7, channel=0, data=[64, 127]),
   midi.NoteOnEvent(tick=113, channel=0, data=[52, 0]),
   midi.ControlChangeEvent(tick=71, channel=0, data=[64, 0]),
   midi.NoteOnEvent(tick=49, channel=0, data=[64, 51]),
   midi.NoteOnEvent(tick=60, channel=0, data=[64, 0]),
   midi.NoteOnEvent(tick=60, channel=0, data=[59, 52]),
   midi.NoteOnEvent(tick=60, channel=0, data=[59, 0]),
   midi.NoteOnEvent(tick=60, channel=0, data=[52, 57]),
   midi.NoteOnEvent(tick=60, channel=0, data=[52, 0]),
   midi.NoteOnEvent(tick=180, channel=0, data=[67, 52]),
   midi.NoteOnEvent(tick=0, channel=0, data=[64, 52]),
   midi.NoteOnEvent(tick=60, channel=0, data=[64, 0]),
   midi.NoteOnEvent(tick=0, channel=0, data=[67, 0]),
   midi.NoteOnEvent(tick=180, channel=0, data=[54, 58]),
   midi.NoteOnEvent(tick=60, channel=0, data=[54, 0]),
   midi.NoteOnEvent(tick=180, channel=0, data=[70, 50]),
   midi.NoteOnEvent(tick=0, channel=0, data=[64, 50]),
   midi.NoteOnEvent(tick=60, channel=0, data=[64, 0]),
   midi.NoteOnEvent(tick=0, channel=0, data=[70, 0]),
   midi.NoteOnEvent(tick=180, channel=0, data=[59, 57]),
   midi.NoteOnEvent(tick=60, channel=0, data=[59, 0]),
   midi.ControlChangeEvent(tick=420, channel=0, data=[64, 127]),
   midi.NoteOnEvent(tick=0, channel=0, data=[59, 74]),
   midi.NoteOnEvent(tick=120, channel=0, data=[59, 0]),
   midi.ControlChangeEvent(tick=25, channel=0, data=[64, 0]),
   midi.NoteOnEvent(tick=95, channel=0, data=[67, 48]),
   midi.NoteOnEvent(tick=60, channel=0, data=[67, 0]),
   midi.NoteOnEvent(tick=60, channel=0, data=[62, 48]),
   midi.NoteOnEvent(tick=60, channel=0, data=[62, 0]),
   midi.NoteOnEvent(tick=60, channel=0, data=[59, 54]),
   midi.NoteOnEvent(tick=60, channel=0, data=[59, 0]),
   midi.NoteOnEvent(tick=180, channel=0, data=[67, 49]),
   midi.NoteOnEvent(tick=0, channel=0, data=[62, 49]),
   midi.NoteOnEvent(tick=60, channel=0, data=[62, 0]),
   midi.NoteOnEvent(tick=0, channel=0, data=[67, 0]),
   midi.NoteOnEvent(tick=180, channel=0, data=[57, 60]),
   midi.NoteOnEvent(tick=60, channel=0, data=[57, 0]),
   midi.NoteOnEvent(tick=180, channel=0, data=[67, 51]),
   midi.NoteOnEvent(tick=0, channel=0, data=[60, 51]),
   midi.NoteOnEvent(tick=60, channel=0, data=[60, 0]),
   midi.NoteOnEvent(tick=0, channel=0, data=[67, 0]),
   midi.NoteOnEvent(tick=180, channel=0, data=[50, 58]),
   midi.NoteOnEvent(tick=60, channel=0, data=[50, 0]),
   midi.NoteOnEvent(tick=180, channel=0, data=[60, 49]),
   midi.NoteOnEvent(tick=60, channel=0, data=[60, 0]),
   midi.ControlChangeEvent(tick=184, channel=0, data=[64, 127]),
   midi.ControlChangeEvent(tick=158, channel=0, data=[64, 0]),
   midi.NoteOnEvent(tick=78, channel=0, data=[55, 47]),
   midi.NoteOnEvent(tick=60, channel=0, data=[55, 0]),
   midi.NoteOnEvent(tick=60, channel=0, data=[52, 47]),
   midi.NoteOnEvent(tick=60, channel=0, data=[52, 0]),
   midi.NoteOnEvent(tick=60, channel=0, data=[47, 54]),
   midi.NoteOnEvent(tick=60, channel=0, data=[47, 0]),
   midi.NoteOnEvent(tick=180, channel=0, data=[59, 47]),
   midi.NoteOnEvent(tick=0, channel=0, data=[55, 47]),
   midi.NoteOnEvent(tick=60, channel=0, data=[55, 0]),
   midi.NoteOnEvent(tick=0, channel=0, data=[59, 0]),
   midi.NoteOnEvent(tick=180, channel=0, data=[45, 59]),
   midi.NoteOnEvent(tick=60, channel=0, data=[45, 0]),
   midi.NoteOnEvent(tick=180, channel=0, data=[60, 48]),
   midi.NoteOnEvent(tick=0, channel=0, data=[54, 48]),
   midi.NoteOnEvent(tick=60, channel=0, data=[54, 0]),
   midi.NoteOnEvent(tick=0, channel=0, data=[60, 0]),
   midi.NoteOnEvent(tick=180, channel=0, data=[47, 58]),
   midi.NoteOnEvent(tick=60, channel=0, data=[47, 0]),
   midi.NoteOnEvent(tick=180, channel=0, data=[54, 47]),
   midi.NoteOnEvent(tick=0, channel=0, data=[57, 47]),
   midi.NoteOnEvent(tick=60, channel=0, data=[57, 0]),
   midi.NoteOnEvent(tick=0, channel=0, data=[54, 0]),
   midi.ControlChangeEvent(tick=180, channel=0, data=[64, 127]),
   midi.NoteOnEvent(tick=240, channel=0, data=[52, 51]),
   midi.NoteOnEvent(tick=120, channel=0, data=[52, 0]),
   midi.NoteOnEvent(tick=0, channel=0, data=[48, 51]),
   midi.NoteOnEvent(tick=120, channel=0, data=[48, 0]),
   midi.NoteOnEvent(tick=0, channel=0, data=[36, 56]),
   midi.NoteOnEvent(tick=0, channel=0, data=[43, 56]),
   midi.ControlChangeEvent(tick=8, channel=0, data=[64, 0]),
   midi.ControlChangeEvent(tick=66, channel=0, data=[64, 127]),
   midi.ControlChangeEvent(tick=412, channel=0, data=[64, 0]),
   midi.ControlChangeEvent(tick=57, channel=0, data=[64, 127]),
   midi.NoteOnEvent(tick=177, channel=0, data=[43, 0]),
   midi.NoteOnEvent(tick=0, channel=0, data=[36, 0]),
   midi.NoteOnEvent(tick=0, channel=0, data=[52, 50]),
   midi.NoteOnEvent(tick=120, channel=0, data=[52, 0]),
   midi.NoteOnEvent(tick=0, channel=0, data=[48, 50]),
   midi.NoteOnEvent(tick=120, channel=0, data=[48, 0]),
   midi.NoteOnEvent(tick=0, channel=0, data=[36, 56]),
   midi.NoteOnEvent(tick=0, channel=0, data=[43, 56]),
   midi.ControlChangeEvent(tick=8, channel=0, data=[64, 0]),
   midi.ControlChangeEvent(tick=61, channel=0, data=[64, 127]),
   midi.ControlChangeEvent(tick=414, channel=0, data=[64, 0]),
   midi.ControlChangeEvent(tick=71, channel=0, data=[64, 127]),
   midi.NoteOnEvent(tick=166, channel=0, data=[43, 0]),
   midi.NoteOnEvent(tick=0, channel=0, data=[36, 0]),
   midi.NoteOnEvent(tick=0, channel=0, data=[60, 53]),
   midi.NoteOnEvent(tick=120, channel=0, data=[60, 0]),
   midi.NoteOnEvent(tick=0, channel=0, data=[55, 54]),
   midi.NoteOnEvent(tick=120, channel=0, data=[55, 0]),
   midi.NoteOnEvent(tick=0, channel=0, data=[42, 66]),
   midi.NoteOnEvent(tick=0, channel=0, data=[54, 66]),
   midi.ControlChangeEvent(tick=9, channel=0, data=[64, 0]),
   midi.ControlChangeEvent(tick=77, channel=0, data=[64, 127]),
   midi.NoteOnEvent(tick=154, channel=0, data=[56, 50]),
   midi.NoteOnEvent(tick=120, channel=0, data=[56, 0]),
   midi.NoteOnEvent(tick=0, channel=0, data=[57, 52]),
   midi.NoteOnEvent(tick=120, channel=0, data=[57, 0]),
   midi.NoteOnEvent(tick=0, channel=0, data=[58, 56]),
   midi.ControlChangeEvent(tick=3, channel=0, data=[64, 0]),
   midi.ControlChangeEvent(tick=66, channel=0, data=[64, 127]),
   midi.NoteOnEvent(tick=51, channel=0, data=[58, 0]),
   midi.NoteOnEvent(tick=0, channel=0, data=[59, 58]),
   midi.NoteOnEvent(tick=120, channel=0, data=[59, 0]),
   midi.NoteOnEvent(tick=0, channel=0, data=[60, 60]),
   midi.NoteOnEvent(tick=120, channel=0, data=[60, 0]),
   midi.NoteOnEvent(tick=0, channel=0, data=[61, 64]),
   midi.NoteOnEvent(tick=120, channel=0, data=[61, 0]),
   midi.NoteOnEvent(tick=0, channel=0, data=[62, 67]),
   midi.ControlChangeEvent(tick=7, channel=0, data=[64, 0]),
   midi.ControlChangeEvent(tick=68, channel=0, data=[64, 127]),
   midi.NoteOnEvent(tick=45, channel=0, data=[62, 0]),
   midi.NoteOnEvent(tick=0, channel=0, data=[63, 68]),
   midi.NoteOnEvent(tick=120, channel=0, data=[63, 0]),
   midi.NoteOnEvent(tick=0, channel=0, data=[64, 69]),
   midi.NoteOnEvent(tick=120, channel=0, data=[64, 0]),
   midi.NoteOnEvent(tick=0, channel=0, data=[65, 71]),
   midi.NoteOnEvent(tick=120, channel=0, data=[65, 0]),
   midi.NoteOnEvent(tick=0, channel=0, data=[54, 0]),
   midi.NoteOnEvent(tick=0, channel=0, data=[42, 0]),
   midi.ControlChangeEvent(tick=0, channel=0, data=[64, 0]),
   midi.ControlChangeEvent(tick=0, channel=0, data=[91, 127]),
   midi.ControlChangeEvent(tick=53, channel=0, data=[64, 127]),
   midi.ControlChangeEvent(tick=120, channel=0, data=[64, 0]),
   midi.NoteOnEvent(tick=67, channel=0, data=[59, 54]),
   midi.NoteOnEvent(tick=60, channel=0, data=[59, 0]),
   midi.NoteOnEvent(tick=60, channel=0, data=[54, 54]),
   midi.NoteOnEvent(tick=60, channel=0, data=[54, 0]),
   midi.NoteOnEvent(tick=60, channel=0, data=[47, 57]),
   midi.NoteOnEvent(tick=60, channel=0, data=[47, 0]),
   midi.NoteOnEvent(tick=180, channel=0, data=[62, 50]),
   midi.NoteOnEvent(tick=0, channel=0, data=[54, 50]),
   midi.NoteOnEvent(tick=60, channel=0, data=[54, 0]),
   midi.NoteOnEvent(tick=0, channel=0, data=[62, 0]),
   midi.NoteOnEvent(tick=180, channel=0, data=[52, 61]),
   midi.NoteOnEvent(tick=60, channel=0, data=[52, 0]),
   midi.NoteOnEvent(tick=180, channel=0, data=[64, 52]),
   midi.NoteOnEvent(tick=0, channel=0, data=[59, 52]),
   midi.NoteOnEvent(tick=60, channel=0, data=[59, 0]),
   midi.NoteOnEvent(tick=0, channel=0, data=[64, 0]),
   midi.NoteOnEvent(tick=180, channel=0, data=[47, 58]),
   midi.NoteOnEvent(tick=60, channel=0, data=[47, 0]),
   midi.NoteOnEvent(tick=180, channel=0, data=[62, 52]),
   midi.NoteOnEvent(tick=0, channel=0, data=[59, 52]),
   midi.NoteOnEvent(tick=60, channel=0, data=[59, 0]),
   midi.NoteOnEvent(tick=0, channel=0, data=[62, 0]),
   midi.NoteOnEvent(tick=180, channel=0, data=[52, 78]),
   midi.ControlChangeEvent(tick=7, channel=0, data=[64, 127]),
   midi.NoteOnEvent(tick=113, channel=0, data=[52, 0]),
   midi.ControlChangeEvent(tick=74, channel=0, data=[64, 0]),
   midi.NoteOnEvent(tick=46, channel=0, data=[64, 51]),
   midi.NoteOnEvent(tick=60, channel=0, data=[64, 0]),
   midi.NoteOnEvent(tick=60, channel=0, data=[59, 52]),
   midi.NoteOnEvent(tick=60, channel=0, data=[59, 0]),
   midi.NoteOnEvent(tick=60, channel=0, data=[52, 57]),
   midi.NoteOnEvent(tick=60, channel=0, data=[52, 0]),
   midi.NoteOnEvent(tick=180, channel=0, data=[67, 52]),
   midi.NoteOnEvent(tick=0, channel=0, data=[64, 52]),
   midi.NoteOnEvent(tick=60, channel=0, data=[64, 0]),
   midi.NoteOnEvent(tick=0, channel=0, data=[67, 0]),
   midi.NoteOnEvent(tick=180, channel=0, data=[54, 49]),
   midi.NoteOnEvent(tick=60, channel=0, data=[54, 0]),
   midi.NoteOnEvent(tick=180, channel=0, data=[70, 36]),
   midi.NoteOnEvent(tick=0, channel=0, data=[64, 36]),
   midi.NoteOnEvent(tick=60, channel=0, data=[64, 0]),
   midi.NoteOnEvent(tick=0, channel=0, data=[70, 0]),
   midi.NoteOnEvent(tick=180, channel=0, data=[71, 40]),
   midi.NoteOnEvent(tick=0, channel=0, data=[62, 40]),
   midi.NoteOnEvent(tick=0, channel=0, data=[59, 40]),
   midi.NoteOnEvent(tick=240, channel=0, data=[59, 0]),
   midi.NoteOnEvent(tick=0, channel=0, data=[62, 0]),
   midi.NoteOnEvent(tick=0, channel=0, data=[71, 0]),
   midi.EndOfTrackEvent(tick=0, data=[])]),
 midi.Track(\
  [midi.TrackNameEvent(tick=0, text='Schumann: Scenes from Childhood Op. 15', data=[83, 99, 104, 117, 109, 97, 110, 110, 58, 32, 83, 99, 101, 110, 101, 115, 32, 102, 114, 111, 109, 32, 67, 104, 105, 108, 100, 104, 111, 111, 100, 32, 79, 112, 46, 32, 49, 53]),
   midi.EndOfTrackEvent(tick=0, data=[])]),
 midi.Track(\
  [midi.TrackNameEvent(tick=0, text='Copyright © 1997 by Bernd Krueger', data=[67, 111, 112, 121, 114, 105, 103, 104, 116, 32, 169, 32, 49, 57, 57, 55, 32, 98, 121, 32, 66, 101, 114, 110, 100, 32, 75, 114, 117, 101, 103, 101, 114]),
   midi.EndOfTrackEvent(tick=0, data=[])]),
 midi.Track(\
  [midi.TrackNameEvent(tick=0, text='http://www.piano-midi.de', data=[104, 116, 116, 112, 58, 47, 47, 119, 119, 119, 46, 112, 105, 97, 110, 111, 45, 109, 105, 100, 105, 46, 100, 101]),
   midi.EndOfTrackEvent(tick=0, data=[])]),
 midi.Track(\
  [midi.TrackNameEvent(tick=0, text='Edition: 2014-03-26', data=[69, 100, 105, 116, 105, 111, 110, 58, 32, 50, 48, 49, 52, 45, 48, 51, 45, 50, 54]),
   midi.EndOfTrackEvent(tick=0, data=[])])])
