midi.Pattern(format=1, resolution=480, tracks=\
[midi.Track(\
  [midi.TrackNameEvent(tick=0, text='Wächterlied Op12, No. 3', data=[87, 228, 99, 104, 116, 101, 114, 108, 105, 101, 100, 32, 79, 112, 49, 50, 44, 32, 78, 111, 46, 32, 51]),
   midi.CopyrightMetaEvent(tick=0, text='Copyright Bernd Krüger http://www.piano-midi.de', data=[67, 111, 112, 121, 114, 105, 103, 104, 116, 32, 66, 101, 114, 110, 100, 32, 75, 114, 252, 103, 101, 114, 32, 104, 116, 116, 112, 58, 47, 47, 119, 119, 119, 46, 112, 105, 97, 110, 111, 45, 109, 105, 100, 105, 46, 100, 101]),
   midi.TextMetaEvent(tick=0, text='Edvard Grieg', data=[69, 100, 118, 97, 114, 100, 32, 71, 114, 105, 101, 103]),
   midi.TextMetaEvent(tick=0, text='Molto andante e simplice', data=[77, 111, 108, 116, 111, 32, 97, 110, 100, 97, 110, 116, 101, 32, 101, 32, 115, 105, 109, 112, 108, 105, 99, 101]),
   midi.TextMetaEvent(tick=0, text="Pan's auf Normal am 18.1.98\n", data=[80, 97, 110, 39, 115, 32, 97, 117, 102, 32, 78, 111, 114, 109, 97, 108, 32, 97, 109, 32, 49, 56, 46, 49, 46, 57, 56, 10]),
   midi.TextMetaEvent(tick=0, text='Korrekturen am 4.9.98\n', data=[75, 111, 114, 114, 101, 107, 116, 117, 114, 101, 110, 32, 97, 109, 32, 52, 46, 57, 46, 57, 56, 10]),
   midi.TextMetaEvent(tick=0, text='Anpassungen an Digitalpiano am 28.12.98\n', data=[65, 110, 112, 97, 115, 115, 117, 110, 103, 101, 110, 32, 97, 110, 32, 68, 105, 103, 105, 116, 97, 108, 112, 105, 97, 110, 111, 32, 97, 109, 32, 50, 56, 46, 49, 50, 46, 57, 56, 10]),
   midi.TextMetaEvent(tick=0, text='Update am 19.8.99\n', data=[85, 112, 100, 97, 116, 101, 32, 97, 109, 32, 49, 57, 46, 56, 46, 57, 57, 10]),
   midi.TextMetaEvent(tick=0, text='Normierung: 23.12.2002\n', data=[78, 111, 114, 109, 105, 101, 114, 117, 110, 103, 58, 32, 50, 51, 46, 49, 50, 46, 50, 48, 48, 50, 10]),
   midi.TextMetaEvent(tick=0, text='Update : 28.4.2007 Umstellung auf SONAR und höheres Tempo\n', data=[85, 112, 100, 97, 116, 101, 32, 58, 32, 50, 56, 46, 52, 46, 50, 48, 48, 55, 32, 85, 109, 115, 116, 101, 108, 108, 117, 110, 103, 32, 97, 117, 102, 32, 83, 79, 78, 65, 82, 32, 117, 110, 100, 32, 104, 246, 104, 101, 114, 101, 115, 32, 84, 101, 109, 112, 111, 10]),
   midi.TextMetaEvent(tick=0, text='Update: 28.10.2012\n', data=[85, 112, 100, 97, 116, 101, 58, 32, 50, 56, 46, 49, 48, 46, 50, 48, 49, 50, 10]),
   midi.TextMetaEvent(tick=0, text='Dauer: 2:26 Minuten\n', data=[68, 97, 117, 101, 114, 58, 32, 50, 58, 50, 54, 32, 77, 105, 110, 117, 116, 101, 110, 10]),
   midi.TimeSignatureEvent(tick=0, data=[4, 2, 24, 8]),
   midi.KeySignatureEvent(tick=0, data=[4, 0]),
   midi.SetTempoEvent(tick=0, data=[10, 17, 209]),
   midi.MarkerEvent(tick=0, text='Molto andante e semplice', data=[77, 111, 108, 116, 111, 32, 97, 110, 100, 97, 110, 116, 101, 32, 101, 32, 115, 101, 109, 112, 108, 105, 99, 101]),
   midi.SetTempoEvent(tick=3360, data=[10, 90, 26]),
   midi.SetTempoEvent(tick=240, data=[10, 166, 143]),
   midi.SetTempoEvent(tick=240, data=[10, 90, 26]),
   midi.SetTempoEvent(tick=960, data=[10, 17, 209]),
   midi.SetTempoEvent(tick=960, data=[10, 41, 145]),
   midi.SetTempoEvent(tick=480, data=[10, 5, 246]),
   midi.SetTempoEvent(tick=480, data=[10, 17, 209]),
   midi.SetTempoEvent(tick=480, data=[10, 115, 53]),
   midi.SetTempoEvent(tick=480, data=[10, 17, 209]),
   midi.SetTempoEvent(tick=1440, data=[9, 194, 34]),
   midi.SetTempoEvent(tick=480, data=[9, 227, 222]),
   midi.SetTempoEvent(tick=1440, data=[10, 53, 117]),
   midi.SetTempoEvent(tick=240, data=[10, 5, 246]),
   midi.SetTempoEvent(tick=240, data=[10, 5, 246]),
   midi.SetTempoEvent(tick=480, data=[10, 65, 43]),
   midi.SetTempoEvent(tick=480, data=[10, 41, 145]),
   midi.SetTempoEvent(tick=960, data=[10, 115, 53]),
   midi.SetTempoEvent(tick=960, data=[10, 115, 53]),
   midi.SetTempoEvent(tick=80, data=[10, 127, 201]),
   midi.SetTempoEvent(tick=80, data=[10, 140, 124]),
   midi.SetTempoEvent(tick=80, data=[10, 153, 77]),
   midi.SetTempoEvent(tick=80, data=[10, 166, 143]),
   midi.SetTempoEvent(tick=80, data=[10, 179, 242]),
   midi.SetTempoEvent(tick=80, data=[10, 192, 210]),
   midi.SetTempoEvent(tick=80, data=[10, 206, 119]),
   midi.SetTempoEvent(tick=80, data=[10, 219, 235]),
   midi.SetTempoEvent(tick=80, data=[10, 233, 129]),
   midi.SetTempoEvent(tick=80, data=[10, 247, 143]),
   midi.SetTempoEvent(tick=40, data=[11, 217, 50]),
   midi.SetTempoEvent(tick=120, data=[10, 17, 209]),
   midi.SetTempoEvent(tick=1440, data=[9, 194, 239]),
   midi.SetTempoEvent(tick=480, data=[9, 125, 131]),
   midi.SetTempoEvent(tick=240, data=[9, 46, 24]),
   midi.SetTempoEvent(tick=240, data=[9, 65, 209]),
   midi.SetTempoEvent(tick=480, data=[9, 140, 249]),
   midi.SetTempoEvent(tick=480, data=[9, 56, 9]),
   midi.SetTempoEvent(tick=480, data=[9, 65, 209]),
   midi.SetTempoEvent(tick=480, data=[9, 17, 178]),
   midi.SetTempoEvent(tick=480, data=[10, 9, 159]),
   midi.SetTempoEvent(tick=480, data=[9, 65, 209]),
   midi.SetTempoEvent(tick=720, data=[9, 8, 194]),
   midi.SetTempoEvent(tick=240, data=[9, 27, 41]),
   midi.SetTempoEvent(tick=480, data=[9, 95, 44]),
   midi.SetTempoEvent(tick=480, data=[8, 255, 55]),
   midi.SetTempoEvent(tick=240, data=[8, 210, 154]),
   midi.SetTempoEvent(tick=240, data=[9, 46, 24]),
   midi.SetTempoEvent(tick=480, data=[9, 75, 113]),
   midi.SetTempoEvent(tick=480, data=[10, 90, 180]),
   midi.SetTempoEvent(tick=41, data=[10, 39, 213]),
   midi.SetTempoEvent(tick=80, data=[10, 90, 26]),
   midi.SetTempoEvent(tick=359, data=[10, 41, 145]),
   midi.SetTempoEvent(tick=1920, data=[10, 140, 124]),
   midi.SetTempoEvent(tick=240, data=[10, 247, 143]),
   midi.SetTempoEvent(tick=240, data=[10, 140, 124]),
   midi.SetTempoEvent(tick=960, data=[10, 17, 209]),
   midi.SetTempoEvent(tick=960, data=[10, 127, 201]),
   midi.SetTempoEvent(tick=960, data=[10, 115, 53]),
   midi.SetTempoEvent(tick=80, data=[10, 127, 201]),
   midi.SetTempoEvent(tick=40, data=[10, 140, 124]),
   midi.SetTempoEvent(tick=40, data=[10, 153, 77]),
   midi.SetTempoEvent(tick=80, data=[10, 166, 143]),
   midi.SetTempoEvent(tick=40, data=[10, 179, 242]),
   midi.SetTempoEvent(tick=40, data=[10, 192, 210]),
   midi.SetTempoEvent(tick=80, data=[10, 206, 119]),
   midi.SetTempoEvent(tick=40, data=[10, 219, 235]),
   midi.SetTempoEvent(tick=40, data=[10, 233, 129]),
   midi.SetTempoEvent(tick=80, data=[10, 247, 143]),
   midi.SetTempoEvent(tick=40, data=[11, 5, 193]),
   midi.SetTempoEvent(tick=40, data=[11, 19, 193]),
   midi.SetTempoEvent(tick=80, data=[11, 33, 139]),
   midi.SetTempoEvent(tick=40, data=[11, 48, 133]),
   midi.SetTempoEvent(tick=40, data=[11, 62, 242]),
   midi.SetTempoEvent(tick=20, data=[11, 168, 233]),
   midi.SetTempoEvent(tick=20, data=[13, 28, 94]),
   midi.SetTempoEvent(tick=600, data=[10, 17, 209]),
   midi.SetTempoEvent(tick=960, data=[9, 150, 246]),
   midi.SetTempoEvent(tick=480, data=[9, 88, 205]),
   midi.SetTempoEvent(tick=240, data=[9, 20, 58]),
   midi.SetTempoEvent(tick=240, data=[9, 78, 150]),
   midi.SetTempoEvent(tick=480, data=[9, 140, 53]),
   midi.SetTempoEvent(tick=480, data=[9, 10, 150]),
   midi.SetTempoEvent(tick=480, data=[9, 39, 132]),
   midi.SetTempoEvent(tick=480, data=[9, 1, 123]),
   midi.SetTempoEvent(tick=480, data=[9, 250, 127]),
   midi.SetTempoEvent(tick=480, data=[9, 78, 150]),
   midi.SetTempoEvent(tick=720, data=[8, 229, 122]),
   midi.SetTempoEvent(tick=240, data=[9, 20, 58]),
   midi.SetTempoEvent(tick=240, data=[8, 238, 150]),
   midi.SetTempoEvent(tick=240, data=[9, 29, 183]),
   midi.SetTempoEvent(tick=480, data=[8, 229, 122]),
   midi.SetTempoEvent(tick=240, data=[8, 167, 68]),
   midi.SetTempoEvent(tick=240, data=[8, 247, 254]),
   midi.SetTempoEvent(tick=480, data=[9, 29, 183]),
   midi.SetTempoEvent(tick=480, data=[10, 90, 26]),
   midi.SetTempoEvent(tick=480, data=[10, 41, 145]),
   midi.SetTempoEvent(tick=1920, data=[10, 140, 124]),
   midi.SetTempoEvent(tick=240, data=[11, 19, 193]),
   midi.SetTempoEvent(tick=240, data=[10, 140, 124]),
   midi.SetTempoEvent(tick=960, data=[10, 17, 209]),
   midi.SetTempoEvent(tick=960, data=[10, 192, 210]),
   midi.SetTempoEvent(tick=480, data=[10, 247, 143]),
   midi.SetTempoEvent(tick=480, data=[10, 219, 235]),
   midi.SetTempoEvent(tick=40, data=[10, 233, 129]),
   midi.SetTempoEvent(tick=40, data=[11, 5, 193]),
   midi.SetTempoEvent(tick=40, data=[11, 19, 193]),
   midi.SetTempoEvent(tick=40, data=[11, 48, 133]),
   midi.SetTempoEvent(tick=40, data=[11, 62, 242]),
   midi.SetTempoEvent(tick=40, data=[11, 92, 154]),
   midi.SetTempoEvent(tick=40, data=[11, 107, 122]),
   midi.SetTempoEvent(tick=40, data=[11, 137, 176]),
   midi.SetTempoEvent(tick=40, data=[11, 153, 103]),
   midi.SetTempoEvent(tick=40, data=[11, 184, 147]),
   midi.SetTempoEvent(tick=40, data=[11, 200, 204]),
   midi.SetTempoEvent(tick=40, data=[11, 232, 251]),
   midi.SetTempoEvent(tick=40, data=[11, 249, 187]),
   midi.SetTempoEvent(tick=40, data=[12, 26, 248]),
   midi.SetTempoEvent(tick=40, data=[12, 43, 220]),
   midi.SetTempoEvent(tick=40, data=[12, 78, 160]),
   midi.SetTempoEvent(tick=40, data=[12, 96, 241]),
   midi.SetTempoEvent(tick=40, data=[12, 132, 121]),
   midi.SetTempoEvent(tick=40, data=[12, 169, 65]),
   midi.SetTempoEvent(tick=40, data=[12, 96, 241]),
   midi.SetTempoEvent(tick=20, data=[11, 168, 233]),
   midi.SetTempoEvent(tick=20, data=[13, 239, 229]),
   midi.KeySignatureEvent(tick=2040, data=[1, 0]),
   midi.SetTempoEvent(tick=0, data=[13, 49, 41]),
   midi.MarkerEvent(tick=0, text='Intermezzo', data=[73, 110, 116, 101, 114, 109, 101, 122, 122, 111]),
   midi.SetTempoEvent(tick=2880, data=[9, 239, 246]),
   midi.SetTempoEvent(tick=60, data=[9, 227, 152]),
   midi.SetTempoEvent(tick=60, data=[9, 215, 228]),
   midi.SetTempoEvent(tick=60, data=[9, 204, 7]),
   midi.SetTempoEvent(tick=60, data=[9, 192, 70]),
   midi.SetTempoEvent(tick=60, data=[9, 181, 40]),
   midi.SetTempoEvent(tick=60, data=[9, 169, 91]),
   midi.SetTempoEvent(tick=60, data=[9, 157, 170]),
   midi.SetTempoEvent(tick=60, data=[9, 146, 153]),
   midi.SetTempoEvent(tick=60, data=[9, 135, 161]),
   midi.SetTempoEvent(tick=60, data=[9, 124, 129]),
   midi.SetTempoEvent(tick=60, data=[9, 113, 124]),
   midi.SetTempoEvent(tick=60, data=[9, 102, 144]),
   midi.SetTempoEvent(tick=60, data=[9, 92, 58]),
   midi.SetTempoEvent(tick=60, data=[9, 81, 65]),
   midi.SetTempoEvent(tick=60, data=[9, 70, 159]),
   midi.SetTempoEvent(tick=1500, data=[9, 181, 40]),
   midi.SetTempoEvent(tick=480, data=[9, 135, 161]),
   midi.SetTempoEvent(tick=1920, data=[13, 26, 114]),
   midi.SetTempoEvent(tick=1680, data=[14, 44, 25]),
   midi.SetTempoEvent(tick=240, data=[13, 26, 114]),
   midi.SetTempoEvent(tick=960, data=[9, 169, 91]),
   midi.SetTempoEvent(tick=140, data=[9, 157, 170]),
   midi.SetTempoEvent(tick=140, data=[9, 146, 153]),
   midi.SetTempoEvent(tick=140, data=[9, 135, 161]),
   midi.SetTempoEvent(tick=140, data=[9, 124, 129]),
   midi.SetTempoEvent(tick=140, data=[9, 113, 124]),
   midi.SetTempoEvent(tick=140, data=[9, 102, 144]),
   midi.SetTempoEvent(tick=120, data=[9, 92, 58]),
   midi.SetTempoEvent(tick=1440, data=[10, 8, 198]),
   midi.SetTempoEvent(tick=480, data=[9, 135, 161]),
   midi.SetTempoEvent(tick=1920, data=[13, 26, 114]),
   midi.SetTempoEvent(tick=2920, data=[9, 181, 40]),
   midi.SetTempoEvent(tick=80, data=[9, 169, 91]),
   midi.SetTempoEvent(tick=80, data=[9, 157, 170]),
   midi.SetTempoEvent(tick=60, data=[9, 146, 153]),
   midi.SetTempoEvent(tick=80, data=[9, 135, 161]),
   midi.SetTempoEvent(tick=60, data=[9, 124, 129]),
   midi.SetTempoEvent(tick=80, data=[9, 113, 124]),
   midi.SetTempoEvent(tick=60, data=[9, 102, 144]),
   midi.SetTempoEvent(tick=80, data=[9, 92, 58]),
   midi.SetTempoEvent(tick=60, data=[9, 81, 65]),
   midi.SetTempoEvent(tick=80, data=[9, 70, 159]),
   midi.SetTempoEvent(tick=60, data=[9, 60, 82]),
   midi.SetTempoEvent(tick=80, data=[9, 49, 223]),
   midi.SetTempoEvent(tick=60, data=[9, 39, 192]),
   midi.SetTempoEvent(tick=1440, data=[9, 124, 129]),
   midi.SetTempoEvent(tick=2400, data=[13, 26, 114]),
   midi.SetTempoEvent(tick=1680, data=[14, 68, 104]),
   midi.SetTempoEvent(tick=120, data=[16, 33, 58]),
   midi.SetTempoEvent(tick=120, data=[13, 26, 114]),
   midi.SetTempoEvent(tick=960, data=[9, 181, 40]),
   midi.SetTempoEvent(tick=120, data=[9, 169, 91]),
   midi.SetTempoEvent(tick=120, data=[9, 157, 170]),
   midi.SetTempoEvent(tick=120, data=[9, 146, 153]),
   midi.SetTempoEvent(tick=120, data=[9, 135, 161]),
   midi.SetTempoEvent(tick=120, data=[9, 124, 129]),
   midi.SetTempoEvent(tick=120, data=[9, 113, 124]),
   midi.SetTempoEvent(tick=120, data=[9, 102, 144]),
   midi.SetTempoEvent(tick=120, data=[9, 92, 58]),
   midi.SetTempoEvent(tick=960, data=[9, 146, 153]),
   midi.SetTempoEvent(tick=480, data=[10, 206, 36]),
   midi.KeySignatureEvent(tick=480, data=[4, 0]),
   midi.SetTempoEvent(tick=0, data=[9, 135, 161]),
   midi.SetTempoEvent(tick=480, data=[9, 66, 137]),
   midi.SetTempoEvent(tick=480, data=[10, 17, 209]),
   midi.SetTempoEvent(tick=480, data=[9, 86, 218]),
   midi.SetTempoEvent(tick=40, data=[9, 136, 165]),
   midi.SetTempoEvent(tick=680, data=[9, 30, 106]),
   midi.SetTempoEvent(tick=240, data=[9, 68, 240]),
   midi.SetTempoEvent(tick=480, data=[9, 136, 165]),
   midi.SetTempoEvent(tick=480, data=[9, 45, 99]),
   midi.SetTempoEvent(tick=960, data=[8, 253, 219]),
   midi.SetTempoEvent(tick=480, data=[9, 224, 11]),
   midi.SetTempoEvent(tick=480, data=[9, 85, 37]),
   midi.SetTempoEvent(tick=720, data=[9, 26, 119]),
   midi.SetTempoEvent(tick=720, data=[9, 75, 51]),
   midi.SetTempoEvent(tick=480, data=[9, 2, 99]),
   midi.SetTempoEvent(tick=480, data=[9, 30, 106]),
   midi.SetTempoEvent(tick=480, data=[9, 49, 42]),
   midi.SetTempoEvent(tick=480, data=[10, 86, 54]),
   midi.SetTempoEvent(tick=1, data=[10, 32, 18]),
   midi.SetTempoEvent(tick=40, data=[10, 90, 26]),
   midi.SetTempoEvent(tick=439, data=[10, 41, 145]),
   midi.SetTempoEvent(tick=1920, data=[10, 90, 26]),
   midi.SetTempoEvent(tick=480, data=[10, 140, 124]),
   midi.SetTempoEvent(tick=960, data=[10, 17, 209]),
   midi.SetTempoEvent(tick=960, data=[10, 115, 53]),
   midi.SetTempoEvent(tick=1400, data=[11, 122, 34]),
   midi.SetTempoEvent(tick=40, data=[12, 62, 50]),
   midi.SetTempoEvent(tick=480, data=[10, 17, 209]),
   midi.SetTempoEvent(tick=1440, data=[9, 250, 127]),
   midi.SetTempoEvent(tick=1920, data=[10, 53, 117]),
   midi.SetTempoEvent(tick=480, data=[10, 90, 26]),
   midi.SetTempoEvent(tick=1560, data=[11, 60, 31]),
   midi.SetTempoEvent(tick=360, data=[11, 132, 124]),
   midi.SetTempoEvent(tick=840, data=[11, 189, 49]),
   midi.SetTempoEvent(tick=56, data=[11, 151, 38]),
   midi.SetTempoEvent(tick=40, data=[11, 189, 49]),
   midi.SetTempoEvent(tick=40, data=[11, 228, 58]),
   midi.SetTempoEvent(tick=40, data=[12, 12, 74]),
   midi.SetTempoEvent(tick=40, data=[12, 74, 101]),
   midi.SetTempoEvent(tick=40, data=[12, 117, 54]),
   midi.SetTempoEvent(tick=40, data=[12, 161, 52]),
   midi.SetTempoEvent(tick=40, data=[12, 206, 110]),
   midi.SetTempoEvent(tick=40, data=[13, 20, 177]),
   midi.SetTempoEvent(tick=40, data=[13, 69, 59]),
   midi.SetTempoEvent(tick=40, data=[13, 119, 51]),
   midi.SetTempoEvent(tick=40, data=[13, 170, 168]),
   midi.SetTempoEvent(tick=40, data=[13, 250, 202]),
   midi.SetTempoEvent(tick=40, data=[14, 50, 73]),
   midi.SetTempoEvent(tick=40, data=[14, 107, 135]),
   midi.SetTempoEvent(tick=40, data=[14, 166, 154]),
   midi.SetTempoEvent(tick=40, data=[15, 2, 216]),
   midi.SetTempoEvent(tick=40, data=[15, 66, 231]),
   midi.SetTempoEvent(tick=40, data=[15, 133, 34]),
   midi.SetTempoEvent(tick=64, data=[18, 225, 121]),
   midi.SetTempoEvent(tick=240, data=[15, 34, 155]),
   midi.SetTempoEvent(tick=1920, data=[10, 17, 209]),
   midi.MarkerEvent(tick=0, text='Fine', data=[70, 105, 110, 101]),
   midi.SetTempoEvent(tick=2, data=[8, 82, 175]),
   midi.SetTempoEvent(tick=8638, data=[7, 254, 241]),
   midi.EndOfTrackEvent(tick=0, data=[])]),
 midi.Track(\
  [midi.TrackNameEvent(tick=0, text='Piano right', data=[80, 105, 97, 110, 111, 32, 114, 105, 103, 104, 116]),
   midi.ProgramChangeEvent(tick=0, channel=0, data=[0]),
   midi.ControlChangeEvent(tick=0, channel=0, data=[7, 100]),
   midi.ControlChangeEvent(tick=0, channel=0, data=[10, 64]),
   midi.TextMetaEvent(tick=0, text='bdca426d104a26ac9dcb070447587523', data=[98, 100, 99, 97, 52, 50, 54, 100, 49, 48, 52, 97, 50, 54, 97, 99, 57, 100, 99, 98, 48, 55, 48, 52, 52, 55, 53, 56, 55, 53, 50, 51]),
   midi.ControlChangeEvent(tick=1436, channel=0, data=[91, 127]),
   midi.NoteOnEvent(tick=4, channel=0, data=[59, 57]),
   midi.NoteOnEvent(tick=480, channel=0, data=[59, 0]),
   midi.NoteOnEvent(tick=0, channel=0, data=[64, 60]),
   midi.NoteOnEvent(tick=480, channel=0, data=[64, 0]),
   midi.NoteOnEvent(tick=0, channel=0, data=[64, 61]),
   midi.NoteOnEvent(tick=480, channel=0, data=[64, 0]),
   midi.NoteOnEvent(tick=0, channel=0, data=[63, 57]),
   midi.NoteOnEvent(tick=480, channel=0, data=[63, 0]),
   midi.NoteOnEvent(tick=0, channel=0, data=[61, 55]),
   midi.NoteOnEvent(tick=240, channel=0, data=[61, 0]),
   midi.NoteOnEvent(tick=0, channel=0, data=[59, 49]),
   midi.NoteOnEvent(tick=240, channel=0, data=[59, 0]),
   midi.NoteOnEvent(tick=0, channel=0, data=[61, 53]),
   midi.NoteOnEvent(tick=0, channel=0, data=[57, 45]),
   midi.NoteOnEvent(tick=960, channel=0, data=[57, 0]),
   midi.NoteOnEvent(tick=0, channel=0, data=[61, 0]),
   midi.NoteOnEvent(tick=0, channel=0, data=[56, 44]),
   midi.NoteOnEvent(tick=0, channel=0, data=[64, 52]),
   midi.NoteOnEvent(tick=480, channel=0, data=[64, 0]),
   midi.NoteOnEvent(tick=0, channel=0, data=[56, 0]),
   midi.NoteOnEvent(tick=480, channel=0, data=[61, 45]),
   midi.NoteOnEvent(tick=0, channel=0, data=[66, 54]),
   midi.NoteOnEvent(tick=320, channel=0, data=[66, 0]),
   midi.NoteOnEvent(tick=0, channel=0, data=[61, 0]),
   midi.NoteOnEvent(tick=160, channel=0, data=[61, 43]),
   midi.NoteOnEvent(tick=0, channel=0, data=[66, 51]),
   midi.NoteOnEvent(tick=320, channel=0, data=[66, 0]),
   midi.NoteOnEvent(tick=0, channel=0, data=[61, 0]),
   midi.NoteOnEvent(tick=160, channel=0, data=[59, 41]),
   midi.NoteOnEvent(tick=0, channel=0, data=[66, 49]),
   midi.NoteOnEvent(tick=320, channel=0, data=[66, 0]),
   midi.NoteOnEvent(tick=0, channel=0, data=[59, 0]),
   midi.NoteOnEvent(tick=160, channel=0, data=[66, 48]),
   midi.NoteOnEvent(tick=0, channel=0, data=[59, 40]),
   midi.NoteOnEvent(tick=320, channel=0, data=[59, 0]),
   midi.NoteOnEvent(tick=0, channel=0, data=[66, 0]),
   midi.NoteOnEvent(tick=160, channel=0, data=[68, 52]),
   midi.NoteOnEvent(tick=0, channel=0, data=[59, 44]),
   midi.NoteOnEvent(tick=960, channel=0, data=[59, 0]),
   midi.NoteOnEvent(tick=0, channel=0, data=[68, 0]),
   midi.NoteOnEvent(tick=480, channel=0, data=[68, 64]),
   midi.NoteOnEvent(tick=480, channel=0, data=[68, 0]),
   midi.NoteOnEvent(tick=0, channel=0, data=[73, 71]),
   midi.NoteOnEvent(tick=480, channel=0, data=[73, 0]),
   midi.NoteOnEvent(tick=0, channel=0, data=[73, 69]),
   midi.NoteOnEvent(tick=480, channel=0, data=[73, 0]),
   midi.NoteOnEvent(tick=0, channel=0, data=[71, 69]),
   midi.NoteOnEvent(tick=480, channel=0, data=[71, 0]),
   midi.NoteOnEvent(tick=0, channel=0, data=[69, 69]),
   midi.NoteOnEvent(tick=240, channel=0, data=[69, 0]),
   midi.NoteOnEvent(tick=0, channel=0, data=[68, 63]),
   midi.NoteOnEvent(tick=240, channel=0, data=[68, 0]),
   midi.NoteOnEvent(tick=0, channel=0, data=[61, 69]),
   midi.NoteOnEvent(tick=0, channel=0, data=[69, 69]),
   midi.NoteOnEvent(tick=480, channel=0, data=[61, 0]),
   midi.NoteOnEvent(tick=0, channel=0, data=[63, 60]),
   midi.NoteOnEvent(tick=480, channel=0, data=[63, 0]),
   midi.NoteOnEvent(tick=0, channel=0, data=[69, 0]),
   midi.NoteOnEvent(tick=0, channel=0, data=[64, 53]),
   midi.NoteOnEvent(tick=0, channel=0, data=[68, 62]),
   midi.NoteOnEvent(tick=960, channel=0, data=[68, 0]),
   midi.NoteOnEvent(tick=0, channel=0, data=[64, 0]),
   midi.NoteOnEvent(tick=0, channel=0, data=[61, 56]),
   midi.NoteOnEvent(tick=0, channel=0, data=[66, 66]),
   midi.NoteOnEvent(tick=480, channel=0, data=[66, 0]),
   midi.NoteOnEvent(tick=0, channel=0, data=[61, 0]),
   midi.NoteOnEvent(tick=0, channel=0, data=[57, 47]),
   midi.NoteOnEvent(tick=0, channel=0, data=[66, 56]),
   midi.NoteOnEvent(tick=480, channel=0, data=[66, 0]),
   midi.NoteOnEvent(tick=0, channel=0, data=[57, 0]),
   midi.NoteOnEvent(tick=0, channel=0, data=[66, 56]),
   midi.NoteOnEvent(tick=0, channel=0, data=[59, 47]),
   midi.NoteOnEvent(tick=0, channel=0, data=[57, 47]),
   midi.NoteOnEvent(tick=720, channel=0, data=[66, 0]),
   midi.NoteOnEvent(tick=0, channel=0, data=[64, 51]),
   midi.NoteOnEvent(tick=240, channel=0, data=[64, 0]),
   midi.NoteOnEvent(tick=0, channel=0, data=[57, 0]),
   midi.NoteOnEvent(tick=0, channel=0, data=[59, 0]),
   midi.NoteOnEvent(tick=0, channel=0, data=[64, 45]),
   midi.NoteOnEvent(tick=0, channel=0, data=[59, 37]),
   midi.NoteOnEvent(tick=0, channel=0, data=[56, 37]),
   midi.NoteOnEvent(tick=960, channel=0, data=[56, 0]),
   midi.NoteOnEvent(tick=0, channel=0, data=[59, 0]),
   midi.NoteOnEvent(tick=0, channel=0, data=[64, 0]),
   midi.NoteOnEvent(tick=480, channel=0, data=[71, 52]),
   midi.NoteOnEvent(tick=480, channel=0, data=[68, 31]),
   midi.NoteOnEvent(tick=240, channel=0, data=[71, 0]),
   midi.NoteOnEvent(tick=0, channel=0, data=[73, 52]),
   midi.NoteOnEvent(tick=240, channel=0, data=[73, 0]),
   midi.NoteOnEvent(tick=0, channel=0, data=[68, 0]),
   midi.NoteOnEvent(tick=0, channel=0, data=[75, 49]),
   midi.NoteOnEvent(tick=0, channel=0, data=[66, 41]),
   midi.NoteOnEvent(tick=470, channel=0, data=[66, 0]),
   midi.NoteOnEvent(tick=0, channel=0, data=[75, 0]),
   midi.NoteOnEvent(tick=10, channel=0, data=[75, 53]),
   midi.NoteOnEvent(tick=0, channel=0, data=[64, 40]),
   midi.NoteOnEvent(tick=480, channel=0, data=[75, 0]),
   midi.NoteOnEvent(tick=0, channel=0, data=[71, 49]),
   midi.NoteOnEvent(tick=480, channel=0, data=[71, 0]),
   midi.NoteOnEvent(tick=0, channel=0, data=[68, 51]),
   midi.NoteOnEvent(tick=480, channel=0, data=[68, 0]),
   midi.NoteOnEvent(tick=0, channel=0, data=[70, 49]),
   midi.NoteOnEvent(tick=480, channel=0, data=[70, 0]),
   midi.NoteOnEvent(tick=0, channel=0, data=[64, 0]),
   midi.NoteOnEvent(tick=0, channel=0, data=[63, 39]),
   midi.NoteOnEvent(tick=0, channel=0, data=[71, 47]),
   midi.NoteOnEvent(tick=450, channel=0, data=[71, 0]),
   midi.NoteOnEvent(tick=0, channel=0, data=[63, 0]),
   midi.NoteOnEvent(tick=30, channel=0, data=[71, 58]),
   midi.NoteOnEvent(tick=480, channel=0, data=[68, 36]),
   midi.NoteOnEvent(tick=240, channel=0, data=[71, 0]),
   midi.NoteOnEvent(tick=0, channel=0, data=[73, 52]),
   midi.NoteOnEvent(tick=240, channel=0, data=[73, 0]),
   midi.NoteOnEvent(tick=0, channel=0, data=[68, 0]),
   midi.NoteOnEvent(tick=0, channel=0, data=[66, 46]),
   midi.NoteOnEvent(tick=0, channel=0, data=[75, 55]),
   midi.NoteOnEvent(tick=240, channel=0, data=[75, 0]),
   midi.NoteOnEvent(tick=0, channel=0, data=[71, 50]),
   midi.NoteOnEvent(tick=240, channel=0, data=[71, 0]),
   midi.NoteOnEvent(tick=0, channel=0, data=[66, 0]),
   midi.NoteOnEvent(tick=0, channel=0, data=[64, 43]),
   midi.NoteOnEvent(tick=0, channel=0, data=[75, 57]),
   midi.NoteOnEvent(tick=480, channel=0, data=[75, 0]),
   midi.NoteOnEvent(tick=0, channel=0, data=[73, 55]),
   midi.NoteOnEvent(tick=240, channel=0, data=[73, 0]),
   midi.NoteOnEvent(tick=0, channel=0, data=[71, 47]),
   midi.NoteOnEvent(tick=240, channel=0, data=[71, 0]),
   midi.NoteOnEvent(tick=0, channel=0, data=[68, 57]),
   midi.NoteOnEvent(tick=480, channel=0, data=[68, 0]),
   midi.NoteOnEvent(tick=0, channel=0, data=[70, 53]),
   midi.NoteOnEvent(tick=480, channel=0, data=[70, 0]),
   midi.NoteOnEvent(tick=0, channel=0, data=[64, 0]),
   midi.NoteOnEvent(tick=0, channel=0, data=[63, 42]),
   midi.NoteOnEvent(tick=0, channel=0, data=[71, 50]),
   midi.NoteOnEvent(tick=450, channel=0, data=[71, 0]),
   midi.NoteOnEvent(tick=0, channel=0, data=[63, 0]),
   midi.NoteOnEvent(tick=30, channel=0, data=[59, 57]),
   midi.NoteOnEvent(tick=480, channel=0, data=[59, 0]),
   midi.NoteOnEvent(tick=0, channel=0, data=[64, 60]),
   midi.NoteOnEvent(tick=480, channel=0, data=[64, 0]),
   midi.NoteOnEvent(tick=0, channel=0, data=[64, 57]),
   midi.NoteOnEvent(tick=480, channel=0, data=[64, 0]),
   midi.NoteOnEvent(tick=0, channel=0, data=[63, 57]),
   midi.NoteOnEvent(tick=480, channel=0, data=[63, 0]),
   midi.NoteOnEvent(tick=0, channel=0, data=[61, 57]),
   midi.NoteOnEvent(tick=240, channel=0, data=[61, 0]),
   midi.NoteOnEvent(tick=0, channel=0, data=[59, 55]),
   midi.NoteOnEvent(tick=240, channel=0, data=[59, 0]),
   midi.NoteOnEvent(tick=0, channel=0, data=[61, 53]),
   midi.NoteOnEvent(tick=0, channel=0, data=[57, 45]),
   midi.NoteOnEvent(tick=960, channel=0, data=[57, 0]),
   midi.NoteOnEvent(tick=0, channel=0, data=[61, 0]),
   midi.NoteOnEvent(tick=0, channel=0, data=[56, 44]),
   midi.NoteOnEvent(tick=0, channel=0, data=[64, 52]),
   midi.NoteOnEvent(tick=480, channel=0, data=[64, 0]),
   midi.NoteOnEvent(tick=0, channel=0, data=[56, 0]),
   midi.NoteOnEvent(tick=480, channel=0, data=[61, 47]),
   midi.NoteOnEvent(tick=0, channel=0, data=[66, 56]),
   midi.NoteOnEvent(tick=480, channel=0, data=[66, 0]),
   midi.NoteOnEvent(tick=0, channel=0, data=[61, 0]),
   midi.NoteOnEvent(tick=0, channel=0, data=[66, 54]),
   midi.NoteOnEvent(tick=0, channel=0, data=[57, 45]),
   midi.NoteOnEvent(tick=480, channel=0, data=[57, 0]),
   midi.NoteOnEvent(tick=0, channel=0, data=[66, 0]),
   midi.NoteOnEvent(tick=0, channel=0, data=[59, 44]),
   midi.NoteOnEvent(tick=0, channel=0, data=[57, 44]),
   midi.NoteOnEvent(tick=0, channel=0, data=[66, 52]),
   midi.NoteOnEvent(tick=720, channel=0, data=[66, 0]),
   midi.NoteOnEvent(tick=0, channel=0, data=[64, 49]),
   midi.NoteOnEvent(tick=240, channel=0, data=[64, 0]),
   midi.NoteOnEvent(tick=0, channel=0, data=[57, 0]),
   midi.NoteOnEvent(tick=0, channel=0, data=[59, 0]),
   midi.NoteOnEvent(tick=0, channel=0, data=[59, 39]),
   midi.NoteOnEvent(tick=0, channel=0, data=[56, 39]),
   midi.NoteOnEvent(tick=0, channel=0, data=[64, 46]),
   midi.NoteOnEvent(tick=960, channel=0, data=[64, 0]),
   midi.NoteOnEvent(tick=0, channel=0, data=[56, 0]),
   midi.NoteOnEvent(tick=0, channel=0, data=[59, 0]),
   midi.NoteOnEvent(tick=480, channel=0, data=[71, 52]),
   midi.NoteOnEvent(tick=480, channel=0, data=[68, 31]),
   midi.NoteOnEvent(tick=240, channel=0, data=[71, 0]),
   midi.NoteOnEvent(tick=0, channel=0, data=[73, 52]),
   midi.NoteOnEvent(tick=240, channel=0, data=[73, 0]),
   midi.NoteOnEvent(tick=0, channel=0, data=[68, 0]),
   midi.NoteOnEvent(tick=0, channel=0, data=[75, 49]),
   midi.NoteOnEvent(tick=0, channel=0, data=[66, 41]),
   midi.NoteOnEvent(tick=470, channel=0, data=[66, 0]),
   midi.NoteOnEvent(tick=0, channel=0, data=[75, 0]),
   midi.NoteOnEvent(tick=10, channel=0, data=[75, 53]),
   midi.NoteOnEvent(tick=0, channel=0, data=[64, 40]),
   midi.NoteOnEvent(tick=480, channel=0, data=[75, 0]),
   midi.NoteOnEvent(tick=0, channel=0, data=[71, 45]),
   midi.NoteOnEvent(tick=480, channel=0, data=[71, 0]),
   midi.NoteOnEvent(tick=0, channel=0, data=[68, 43]),
   midi.NoteOnEvent(tick=480, channel=0, data=[68, 0]),
   midi.NoteOnEvent(tick=0, channel=0, data=[70, 45]),
   midi.NoteOnEvent(tick=480, channel=0, data=[70, 0]),
   midi.NoteOnEvent(tick=0, channel=0, data=[64, 0]),
   midi.NoteOnEvent(tick=0, channel=0, data=[63, 39]),
   midi.NoteOnEvent(tick=0, channel=0, data=[71, 47]),
   midi.NoteOnEvent(tick=450, channel=0, data=[71, 0]),
   midi.NoteOnEvent(tick=0, channel=0, data=[63, 0]),
   midi.NoteOnEvent(tick=30, channel=0, data=[71, 58]),
   midi.NoteOnEvent(tick=480, channel=0, data=[68, 36]),
   midi.NoteOnEvent(tick=240, channel=0, data=[71, 0]),
   midi.NoteOnEvent(tick=0, channel=0, data=[73, 52]),
   midi.NoteOnEvent(tick=240, channel=0, data=[73, 0]),
   midi.NoteOnEvent(tick=0, channel=0, data=[68, 0]),
   midi.NoteOnEvent(tick=0, channel=0, data=[75, 55]),
   midi.NoteOnEvent(tick=0, channel=0, data=[66, 46]),
   midi.NoteOnEvent(tick=240, channel=0, data=[75, 0]),
   midi.NoteOnEvent(tick=0, channel=0, data=[71, 50]),
   midi.NoteOnEvent(tick=240, channel=0, data=[71, 0]),
   midi.NoteOnEvent(tick=0, channel=0, data=[66, 0]),
   midi.NoteOnEvent(tick=0, channel=0, data=[64, 43]),
   midi.NoteOnEvent(tick=0, channel=0, data=[75, 57]),
   midi.NoteOnEvent(tick=480, channel=0, data=[75, 0]),
   midi.NoteOnEvent(tick=0, channel=0, data=[73, 55]),
   midi.NoteOnEvent(tick=240, channel=0, data=[73, 0]),
   midi.NoteOnEvent(tick=0, channel=0, data=[71, 50]),
   midi.NoteOnEvent(tick=240, channel=0, data=[71, 0]),
   midi.NoteOnEvent(tick=0, channel=0, data=[68, 53]),
   midi.NoteOnEvent(tick=480, channel=0, data=[68, 0]),
   midi.NoteOnEvent(tick=0, channel=0, data=[70, 50]),
   midi.NoteOnEvent(tick=480, channel=0, data=[70, 0]),
   midi.NoteOnEvent(tick=0, channel=0, data=[64, 0]),
   midi.NoteOnEvent(tick=0, channel=0, data=[63, 40]),
   midi.NoteOnEvent(tick=0, channel=0, data=[71, 48]),
   midi.NoteOnEvent(tick=450, channel=0, data=[71, 0]),
   midi.NoteOnEvent(tick=0, channel=0, data=[63, 0]),
   midi.NoteOnEvent(tick=30, channel=0, data=[59, 57]),
   midi.NoteOnEvent(tick=480, channel=0, data=[59, 0]),
   midi.NoteOnEvent(tick=0, channel=0, data=[64, 60]),
   midi.NoteOnEvent(tick=480, channel=0, data=[64, 0]),
   midi.NoteOnEvent(tick=0, channel=0, data=[64, 57]),
   midi.NoteOnEvent(tick=480, channel=0, data=[64, 0]),
   midi.NoteOnEvent(tick=0, channel=0, data=[63, 57]),
   midi.NoteOnEvent(tick=480, channel=0, data=[63, 0]),
   midi.NoteOnEvent(tick=0, channel=0, data=[61, 57]),
   midi.NoteOnEvent(tick=240, channel=0, data=[61, 0]),
   midi.NoteOnEvent(tick=0, channel=0, data=[59, 55]),
   midi.NoteOnEvent(tick=240, channel=0, data=[59, 0]),
   midi.NoteOnEvent(tick=0, channel=0, data=[57, 45]),
   midi.NoteOnEvent(tick=0, channel=0, data=[61, 53]),
   midi.NoteOnEvent(tick=960, channel=0, data=[61, 0]),
   midi.NoteOnEvent(tick=0, channel=0, data=[57, 0]),
   midi.NoteOnEvent(tick=0, channel=0, data=[56, 44]),
   midi.NoteOnEvent(tick=0, channel=0, data=[64, 52]),
   midi.NoteOnEvent(tick=480, channel=0, data=[64, 0]),
   midi.NoteOnEvent(tick=0, channel=0, data=[56, 0]),
   midi.NoteOnEvent(tick=480, channel=0, data=[61, 41]),
   midi.NoteOnEvent(tick=0, channel=0, data=[66, 49]),
   midi.NoteOnEvent(tick=480, channel=0, data=[66, 0]),
   midi.NoteOnEvent(tick=0, channel=0, data=[61, 0]),
   midi.NoteOnEvent(tick=0, channel=0, data=[66, 47]),
   midi.NoteOnEvent(tick=0, channel=0, data=[57, 39]),
   midi.NoteOnEvent(tick=480, channel=0, data=[57, 0]),
   midi.NoteOnEvent(tick=0, channel=0, data=[66, 0]),
   midi.NoteOnEvent(tick=0, channel=0, data=[59, 33]),
   midi.NoteOnEvent(tick=0, channel=0, data=[57, 33]),
   midi.NoteOnEvent(tick=0, channel=0, data=[66, 39]),
   midi.NoteOnEvent(tick=720, channel=0, data=[66, 0]),
   midi.NoteOnEvent(tick=0, channel=0, data=[64, 37]),
   midi.NoteOnEvent(tick=240, channel=0, data=[64, 0]),
   midi.NoteOnEvent(tick=0, channel=0, data=[57, 0]),
   midi.NoteOnEvent(tick=0, channel=0, data=[59, 0]),
   midi.NoteOnEvent(tick=0, channel=0, data=[64, 33]),
   midi.NoteOnEvent(tick=0, channel=0, data=[59, 28]),
   midi.NoteOnEvent(tick=0, channel=0, data=[56, 28]),
   midi.NoteOnEvent(tick=960, channel=0, data=[56, 0]),
   midi.NoteOnEvent(tick=0, channel=0, data=[59, 0]),
   midi.NoteOnEvent(tick=0, channel=0, data=[64, 0]),
   midi.ControlChangeEvent(tick=960, channel=0, data=[91, 127]),
   midi.NoteOnEvent(tick=3120, channel=0, data=[59, 31]),
   midi.NoteOnEvent(tick=0, channel=0, data=[64, 31]),
   midi.NoteOnEvent(tick=0, channel=0, data=[67, 37]),
   midi.NoteOnEvent(tick=240, channel=0, data=[67, 0]),
   midi.NoteOnEvent(tick=0, channel=0, data=[64, 0]),
   midi.NoteOnEvent(tick=0, channel=0, data=[59, 0]),
   midi.NoteOnEvent(tick=0, channel=0, data=[64, 33]),
   midi.NoteOnEvent(tick=0, channel=0, data=[67, 33]),
   midi.NoteOnEvent(tick=0, channel=0, data=[71, 39]),
   midi.NoteOnEvent(tick=240, channel=0, data=[71, 0]),
   midi.NoteOnEvent(tick=0, channel=0, data=[67, 0]),
   midi.NoteOnEvent(tick=0, channel=0, data=[64, 0]),
   midi.NoteOnEvent(tick=0, channel=0, data=[67, 35]),
   midi.NoteOnEvent(tick=0, channel=0, data=[71, 35]),
   midi.NoteOnEvent(tick=0, channel=0, data=[76, 42]),
   midi.NoteOnEvent(tick=240, channel=0, data=[76, 0]),
   midi.NoteOnEvent(tick=0, channel=0, data=[71, 0]),
   midi.NoteOnEvent(tick=0, channel=0, data=[67, 0]),
   midi.NoteOnEvent(tick=0, channel=0, data=[67, 38]),
   midi.NoteOnEvent(tick=0, channel=0, data=[71, 38]),
   midi.NoteOnEvent(tick=0, channel=0, data=[76, 45]),
   midi.NoteOnEvent(tick=720, channel=0, data=[76, 0]),
   midi.NoteOnEvent(tick=0, channel=0, data=[71, 0]),
   midi.NoteOnEvent(tick=0, channel=0, data=[67, 0]),
   midi.NoteOnEvent(tick=0, channel=0, data=[64, 37]),
   midi.NoteOnEvent(tick=0, channel=0, data=[67, 37]),
   midi.NoteOnEvent(tick=0, channel=0, data=[71, 44]),
   midi.NoteOnEvent(tick=240, channel=0, data=[71, 0]),
   midi.NoteOnEvent(tick=0, channel=0, data=[67, 0]),
   midi.NoteOnEvent(tick=0, channel=0, data=[64, 0]),
   midi.NoteOnEvent(tick=0, channel=0, data=[59, 42]),
   midi.NoteOnEvent(tick=0, channel=0, data=[64, 42]),
   midi.NoteOnEvent(tick=0, channel=0, data=[67, 51]),
   midi.NoteOnEvent(tick=480, channel=0, data=[67, 0]),
   midi.NoteOnEvent(tick=0, channel=0, data=[64, 0]),
   midi.NoteOnEvent(tick=0, channel=0, data=[59, 0]),
   midi.NoteOnEvent(tick=0, channel=0, data=[64, 51]),
   midi.NoteOnEvent(tick=0, channel=0, data=[67, 51]),
   midi.NoteOnEvent(tick=0, channel=0, data=[71, 60]),
   midi.NoteOnEvent(tick=480, channel=0, data=[71, 0]),
   midi.NoteOnEvent(tick=0, channel=0, data=[67, 0]),
   midi.NoteOnEvent(tick=0, channel=0, data=[64, 0]),
   midi.NoteOnEvent(tick=0, channel=0, data=[62, 60]),
   midi.NoteOnEvent(tick=0, channel=0, data=[66, 60]),
   midi.NoteOnEvent(tick=0, channel=0, data=[69, 60]),
   midi.NoteOnEvent(tick=0, channel=0, data=[74, 70]),
   midi.NoteOnEvent(tick=1900, channel=0, data=[74, 0]),
   midi.NoteOnEvent(tick=0, channel=0, data=[62, 0]),
   midi.NoteOnEvent(tick=0, channel=0, data=[66, 0]),
   midi.NoteOnEvent(tick=0, channel=0, data=[69, 0]),
   midi.NoteOnEvent(tick=3140, channel=0, data=[60, 38]),
   midi.NoteOnEvent(tick=0, channel=0, data=[65, 38]),
   midi.NoteOnEvent(tick=0, channel=0, data=[69, 45]),
   midi.NoteOnEvent(tick=240, channel=0, data=[69, 0]),
   midi.NoteOnEvent(tick=0, channel=0, data=[65, 0]),
   midi.NoteOnEvent(tick=0, channel=0, data=[60, 0]),
   midi.NoteOnEvent(tick=0, channel=0, data=[65, 46]),
   midi.NoteOnEvent(tick=0, channel=0, data=[69, 46]),
   midi.NoteOnEvent(tick=0, channel=0, data=[72, 55]),
   midi.NoteOnEvent(tick=240, channel=0, data=[72, 0]),
   midi.NoteOnEvent(tick=0, channel=0, data=[69, 0]),
   midi.NoteOnEvent(tick=0, channel=0, data=[65, 0]),
   midi.NoteOnEvent(tick=0, channel=0, data=[69, 54]),
   midi.NoteOnEvent(tick=0, channel=0, data=[72, 54]),
   midi.NoteOnEvent(tick=0, channel=0, data=[77, 65]),
   midi.NoteOnEvent(tick=240, channel=0, data=[77, 0]),
   midi.NoteOnEvent(tick=0, channel=0, data=[72, 0]),
   midi.NoteOnEvent(tick=0, channel=0, data=[69, 0]),
   midi.NoteOnEvent(tick=0, channel=0, data=[69, 65]),
   midi.NoteOnEvent(tick=0, channel=0, data=[72, 65]),
   midi.NoteOnEvent(tick=0, channel=0, data=[77, 77]),
   midi.NoteOnEvent(tick=720, channel=0, data=[77, 0]),
   midi.NoteOnEvent(tick=0, channel=0, data=[72, 0]),
   midi.NoteOnEvent(tick=0, channel=0, data=[69, 0]),
   midi.NoteOnEvent(tick=0, channel=0, data=[65, 51]),
   midi.NoteOnEvent(tick=0, channel=0, data=[69, 51]),
   midi.NoteOnEvent(tick=0, channel=0, data=[72, 60]),
   midi.NoteOnEvent(tick=240, channel=0, data=[72, 0]),
   midi.NoteOnEvent(tick=0, channel=0, data=[69, 0]),
   midi.NoteOnEvent(tick=0, channel=0, data=[65, 0]),
   midi.NoteOnEvent(tick=0, channel=0, data=[60, 45]),
   midi.NoteOnEvent(tick=0, channel=0, data=[65, 45]),
   midi.NoteOnEvent(tick=0, channel=0, data=[69, 54]),
   midi.NoteOnEvent(tick=480, channel=0, data=[69, 0]),
   midi.NoteOnEvent(tick=0, channel=0, data=[65, 0]),
   midi.NoteOnEvent(tick=0, channel=0, data=[60, 0]),
   midi.NoteOnEvent(tick=0, channel=0, data=[69, 39]),
   midi.NoteOnEvent(tick=0, channel=0, data=[72, 46]),
   midi.NoteOnEvent(tick=0, channel=0, data=[64, 39]),
   midi.NoteOnEvent(tick=480, channel=0, data=[64, 0]),
   midi.NoteOnEvent(tick=0, channel=0, data=[72, 0]),
   midi.NoteOnEvent(tick=0, channel=0, data=[69, 0]),
   midi.NoteOnEvent(tick=0, channel=0, data=[63, 37]),
   midi.NoteOnEvent(tick=0, channel=0, data=[71, 44]),
   midi.NoteOnEvent(tick=0, channel=0, data=[66, 37]),
   midi.NoteOnEvent(tick=1900, channel=0, data=[66, 0]),
   midi.NoteOnEvent(tick=0, channel=0, data=[71, 0]),
   midi.NoteOnEvent(tick=0, channel=0, data=[63, 0]),
   midi.NoteOnEvent(tick=3140, channel=0, data=[59, 29]),
   midi.NoteOnEvent(tick=0, channel=0, data=[64, 29]),
   midi.NoteOnEvent(tick=0, channel=0, data=[67, 35]),
   midi.NoteOnEvent(tick=240, channel=0, data=[67, 0]),
   midi.NoteOnEvent(tick=0, channel=0, data=[64, 0]),
   midi.NoteOnEvent(tick=0, channel=0, data=[59, 0]),
   midi.NoteOnEvent(tick=0, channel=0, data=[64, 33]),
   midi.NoteOnEvent(tick=0, channel=0, data=[67, 33]),
   midi.NoteOnEvent(tick=0, channel=0, data=[71, 39]),
   midi.NoteOnEvent(tick=240, channel=0, data=[71, 0]),
   midi.NoteOnEvent(tick=0, channel=0, data=[67, 0]),
   midi.NoteOnEvent(tick=0, channel=0, data=[64, 0]),
   midi.NoteOnEvent(tick=0, channel=0, data=[67, 36]),
   midi.NoteOnEvent(tick=0, channel=0, data=[71, 36]),
   midi.NoteOnEvent(tick=0, channel=0, data=[76, 43]),
   midi.NoteOnEvent(tick=240, channel=0, data=[76, 0]),
   midi.NoteOnEvent(tick=0, channel=0, data=[71, 0]),
   midi.NoteOnEvent(tick=0, channel=0, data=[67, 0]),
   midi.NoteOnEvent(tick=0, channel=0, data=[67, 39]),
   midi.NoteOnEvent(tick=0, channel=0, data=[71, 39]),
   midi.NoteOnEvent(tick=0, channel=0, data=[76, 46]),
   midi.NoteOnEvent(tick=720, channel=0, data=[76, 0]),
   midi.NoteOnEvent(tick=0, channel=0, data=[71, 0]),
   midi.NoteOnEvent(tick=0, channel=0, data=[67, 0]),
   midi.NoteOnEvent(tick=0, channel=0, data=[64, 39]),
   midi.NoteOnEvent(tick=0, channel=0, data=[67, 39]),
   midi.NoteOnEvent(tick=0, channel=0, data=[71, 46]),
   midi.NoteOnEvent(tick=240, channel=0, data=[71, 0]),
   midi.NoteOnEvent(tick=0, channel=0, data=[67, 0]),
   midi.NoteOnEvent(tick=0, channel=0, data=[64, 0]),
   midi.NoteOnEvent(tick=0, channel=0, data=[59, 44]),
   midi.NoteOnEvent(tick=0, channel=0, data=[64, 44]),
   midi.NoteOnEvent(tick=0, channel=0, data=[67, 52]),
   midi.NoteOnEvent(tick=480, channel=0, data=[67, 0]),
   midi.NoteOnEvent(tick=0, channel=0, data=[64, 0]),
   midi.NoteOnEvent(tick=0, channel=0, data=[59, 0]),
   midi.NoteOnEvent(tick=0, channel=0, data=[64, 52]),
   midi.NoteOnEvent(tick=0, channel=0, data=[67, 52]),
   midi.NoteOnEvent(tick=0, channel=0, data=[71, 63]),
   midi.NoteOnEvent(tick=480, channel=0, data=[71, 0]),
   midi.NoteOnEvent(tick=0, channel=0, data=[67, 0]),
   midi.NoteOnEvent(tick=0, channel=0, data=[64, 0]),
   midi.NoteOnEvent(tick=0, channel=0, data=[62, 62]),
   midi.NoteOnEvent(tick=0, channel=0, data=[66, 62]),
   midi.NoteOnEvent(tick=0, channel=0, data=[69, 62]),
   midi.NoteOnEvent(tick=0, channel=0, data=[74, 73]),
   midi.NoteOnEvent(tick=1900, channel=0, data=[74, 0]),
   midi.NoteOnEvent(tick=0, channel=0, data=[62, 0]),
   midi.NoteOnEvent(tick=0, channel=0, data=[66, 0]),
   midi.NoteOnEvent(tick=0, channel=0, data=[69, 0]),
   midi.NoteOnEvent(tick=3140, channel=0, data=[60, 33]),
   midi.NoteOnEvent(tick=0, channel=0, data=[65, 33]),
   midi.NoteOnEvent(tick=0, channel=0, data=[69, 39]),
   midi.NoteOnEvent(tick=240, channel=0, data=[69, 0]),
   midi.NoteOnEvent(tick=0, channel=0, data=[65, 0]),
   midi.NoteOnEvent(tick=0, channel=0, data=[60, 0]),
   midi.NoteOnEvent(tick=0, channel=0, data=[65, 42]),
   midi.NoteOnEvent(tick=0, channel=0, data=[69, 42]),
   midi.NoteOnEvent(tick=0, channel=0, data=[72, 50]),
   midi.NoteOnEvent(tick=240, channel=0, data=[72, 0]),
   midi.NoteOnEvent(tick=0, channel=0, data=[69, 0]),
   midi.NoteOnEvent(tick=0, channel=0, data=[65, 0]),
   midi.NoteOnEvent(tick=0, channel=0, data=[69, 53]),
   midi.NoteOnEvent(tick=0, channel=0, data=[72, 53]),
   midi.NoteOnEvent(tick=0, channel=0, data=[77, 63]),
   midi.NoteOnEvent(tick=240, channel=0, data=[77, 0]),
   midi.NoteOnEvent(tick=0, channel=0, data=[72, 0]),
   midi.NoteOnEvent(tick=0, channel=0, data=[69, 0]),
   midi.NoteOnEvent(tick=0, channel=0, data=[69, 63]),
   midi.NoteOnEvent(tick=0, channel=0, data=[72, 63]),
   midi.NoteOnEvent(tick=0, channel=0, data=[77, 75]),
   midi.NoteOnEvent(tick=720, channel=0, data=[77, 0]),
   midi.NoteOnEvent(tick=0, channel=0, data=[72, 0]),
   midi.NoteOnEvent(tick=0, channel=0, data=[69, 0]),
   midi.NoteOnEvent(tick=0, channel=0, data=[69, 51]),
   midi.NoteOnEvent(tick=0, channel=0, data=[72, 61]),
   midi.NoteOnEvent(tick=0, channel=0, data=[65, 51]),
   midi.NoteOnEvent(tick=240, channel=0, data=[65, 0]),
   midi.NoteOnEvent(tick=0, channel=0, data=[72, 0]),
   midi.NoteOnEvent(tick=0, channel=0, data=[69, 0]),
   midi.NoteOnEvent(tick=0, channel=0, data=[60, 48]),
   midi.NoteOnEvent(tick=0, channel=0, data=[65, 48]),
   midi.NoteOnEvent(tick=0, channel=0, data=[69, 57]),
   midi.NoteOnEvent(tick=480, channel=0, data=[69, 0]),
   midi.NoteOnEvent(tick=0, channel=0, data=[65, 0]),
   midi.NoteOnEvent(tick=0, channel=0, data=[60, 0]),
   midi.NoteOnEvent(tick=0, channel=0, data=[69, 38]),
   midi.NoteOnEvent(tick=0, channel=0, data=[72, 45]),
   midi.NoteOnEvent(tick=0, channel=0, data=[64, 38]),
   midi.NoteOnEvent(tick=480, channel=0, data=[64, 0]),
   midi.NoteOnEvent(tick=0, channel=0, data=[72, 0]),
   midi.NoteOnEvent(tick=0, channel=0, data=[69, 0]),
   midi.NoteOnEvent(tick=0, channel=0, data=[63, 32]),
   midi.NoteOnEvent(tick=0, channel=0, data=[66, 32]),
   midi.NoteOnEvent(tick=0, channel=0, data=[71, 38]),
   midi.NoteOnEvent(tick=960, channel=0, data=[71, 0]),
   midi.NoteOnEvent(tick=0, channel=0, data=[66, 0]),
   midi.NoteOnEvent(tick=0, channel=0, data=[63, 0]),
   midi.NoteOnEvent(tick=480, channel=0, data=[71, 52]),
   midi.NoteOnEvent(tick=480, channel=0, data=[68, 31]),
   midi.NoteOnEvent(tick=240, channel=0, data=[71, 0]),
   midi.NoteOnEvent(tick=0, channel=0, data=[73, 52]),
   midi.NoteOnEvent(tick=240, channel=0, data=[73, 0]),
   midi.NoteOnEvent(tick=0, channel=0, data=[68, 0]),
   midi.NoteOnEvent(tick=0, channel=0, data=[75, 49]),
   midi.NoteOnEvent(tick=0, channel=0, data=[66, 41]),
   midi.NoteOnEvent(tick=480, channel=0, data=[66, 0]),
   midi.NoteOnEvent(tick=0, channel=0, data=[75, 0]),
   midi.NoteOnEvent(tick=0, channel=0, data=[64, 40]),
   midi.NoteOnEvent(tick=0, channel=0, data=[75, 53]),
   midi.NoteOnEvent(tick=480, channel=0, data=[75, 0]),
   midi.NoteOnEvent(tick=0, channel=0, data=[71, 51]),
   midi.NoteOnEvent(tick=480, channel=0, data=[71, 0]),
   midi.NoteOnEvent(tick=0, channel=0, data=[68, 51]),
   midi.NoteOnEvent(tick=480, channel=0, data=[68, 0]),
   midi.NoteOnEvent(tick=0, channel=0, data=[70, 50]),
   midi.NoteOnEvent(tick=480, channel=0, data=[70, 0]),
   midi.NoteOnEvent(tick=0, channel=0, data=[64, 0]),
   midi.NoteOnEvent(tick=0, channel=0, data=[63, 41]),
   midi.NoteOnEvent(tick=0, channel=0, data=[71, 49]),
   midi.NoteOnEvent(tick=450, channel=0, data=[71, 0]),
   midi.NoteOnEvent(tick=0, channel=0, data=[63, 0]),
   midi.NoteOnEvent(tick=30, channel=0, data=[71, 58]),
   midi.NoteOnEvent(tick=480, channel=0, data=[68, 36]),
   midi.NoteOnEvent(tick=240, channel=0, data=[71, 0]),
   midi.NoteOnEvent(tick=0, channel=0, data=[73, 52]),
   midi.NoteOnEvent(tick=240, channel=0, data=[73, 0]),
   midi.NoteOnEvent(tick=0, channel=0, data=[68, 0]),
   midi.NoteOnEvent(tick=0, channel=0, data=[66, 46]),
   midi.NoteOnEvent(tick=0, channel=0, data=[75, 55]),
   midi.NoteOnEvent(tick=240, channel=0, data=[75, 0]),
   midi.NoteOnEvent(tick=0, channel=0, data=[71, 50]),
   midi.NoteOnEvent(tick=240, channel=0, data=[71, 0]),
   midi.NoteOnEvent(tick=0, channel=0, data=[66, 0]),
   midi.NoteOnEvent(tick=0, channel=0, data=[75, 57]),
   midi.NoteOnEvent(tick=0, channel=0, data=[64, 43]),
   midi.NoteOnEvent(tick=480, channel=0, data=[75, 0]),
   midi.NoteOnEvent(tick=0, channel=0, data=[73, 51]),
   midi.NoteOnEvent(tick=240, channel=0, data=[73, 0]),
   midi.NoteOnEvent(tick=0, channel=0, data=[71, 51]),
   midi.NoteOnEvent(tick=240, channel=0, data=[71, 0]),
   midi.NoteOnEvent(tick=0, channel=0, data=[68, 55]),
   midi.NoteOnEvent(tick=480, channel=0, data=[68, 0]),
   midi.NoteOnEvent(tick=0, channel=0, data=[70, 51]),
   midi.NoteOnEvent(tick=480, channel=0, data=[70, 0]),
   midi.NoteOnEvent(tick=0, channel=0, data=[64, 0]),
   midi.NoteOnEvent(tick=0, channel=0, data=[71, 49]),
   midi.NoteOnEvent(tick=0, channel=0, data=[63, 41]),
   midi.NoteOnEvent(tick=450, channel=0, data=[63, 0]),
   midi.NoteOnEvent(tick=0, channel=0, data=[71, 0]),
   midi.NoteOnEvent(tick=30, channel=0, data=[59, 62]),
   midi.NoteOnEvent(tick=480, channel=0, data=[59, 0]),
   midi.NoteOnEvent(tick=0, channel=0, data=[64, 66]),
   midi.NoteOnEvent(tick=480, channel=0, data=[64, 0]),
   midi.NoteOnEvent(tick=0, channel=0, data=[64, 63]),
   midi.NoteOnEvent(tick=480, channel=0, data=[64, 0]),
   midi.NoteOnEvent(tick=0, channel=0, data=[63, 62]),
   midi.NoteOnEvent(tick=480, channel=0, data=[63, 0]),
   midi.NoteOnEvent(tick=0, channel=0, data=[61, 62]),
   midi.NoteOnEvent(tick=240, channel=0, data=[61, 0]),
   midi.NoteOnEvent(tick=0, channel=0, data=[59, 56]),
   midi.NoteOnEvent(tick=240, channel=0, data=[59, 0]),
   midi.NoteOnEvent(tick=0, channel=0, data=[61, 58]),
   midi.NoteOnEvent(tick=0, channel=0, data=[57, 49]),
   midi.NoteOnEvent(tick=960, channel=0, data=[57, 0]),
   midi.NoteOnEvent(tick=0, channel=0, data=[61, 0]),
   midi.NoteOnEvent(tick=0, channel=0, data=[64, 57]),
   midi.NoteOnEvent(tick=0, channel=0, data=[56, 48]),
   midi.NoteOnEvent(tick=480, channel=0, data=[56, 0]),
   midi.NoteOnEvent(tick=0, channel=0, data=[64, 0]),
   midi.NoteOnEvent(tick=480, channel=0, data=[61, 50]),
   midi.NoteOnEvent(tick=0, channel=0, data=[66, 59]),
   midi.NoteOnEvent(tick=450, channel=0, data=[66, 0]),
   midi.NoteOnEvent(tick=0, channel=0, data=[61, 0]),
   midi.NoteOnEvent(tick=30, channel=0, data=[61, 48]),
   midi.NoteOnEvent(tick=0, channel=0, data=[66, 57]),
   midi.NoteOnEvent(tick=450, channel=0, data=[66, 0]),
   midi.NoteOnEvent(tick=0, channel=0, data=[61, 0]),
   midi.NoteOnEvent(tick=30, channel=0, data=[61, 45]),
   midi.NoteOnEvent(tick=0, channel=0, data=[69, 53]),
   midi.NoteOnEvent(tick=450, channel=0, data=[69, 0]),
   midi.NoteOnEvent(tick=0, channel=0, data=[61, 0]),
   midi.NoteOnEvent(tick=30, channel=0, data=[61, 45]),
   midi.NoteOnEvent(tick=0, channel=0, data=[69, 53]),
   midi.NoteOnEvent(tick=450, channel=0, data=[69, 0]),
   midi.NoteOnEvent(tick=0, channel=0, data=[61, 0]),
   midi.NoteOnEvent(tick=30, channel=0, data=[68, 49]),
   midi.NoteOnEvent(tick=0, channel=0, data=[60, 41]),
   midi.NoteOnEvent(tick=1410, channel=0, data=[60, 0]),
   midi.NoteOnEvent(tick=0, channel=0, data=[68, 0]),
   midi.NoteOnEvent(tick=30, channel=0, data=[68, 64]),
   midi.NoteOnEvent(tick=480, channel=0, data=[68, 0]),
   midi.NoteOnEvent(tick=0, channel=0, data=[73, 71]),
   midi.NoteOnEvent(tick=480, channel=0, data=[73, 0]),
   midi.NoteOnEvent(tick=0, channel=0, data=[73, 67]),
   midi.NoteOnEvent(tick=480, channel=0, data=[73, 0]),
   midi.NoteOnEvent(tick=0, channel=0, data=[71, 69]),
   midi.NoteOnEvent(tick=480, channel=0, data=[71, 0]),
   midi.NoteOnEvent(tick=0, channel=0, data=[69, 69]),
   midi.NoteOnEvent(tick=240, channel=0, data=[69, 0]),
   midi.NoteOnEvent(tick=0, channel=0, data=[68, 65]),
   midi.NoteOnEvent(tick=240, channel=0, data=[68, 0]),
   midi.NoteOnEvent(tick=0, channel=0, data=[61, 58]),
   midi.NoteOnEvent(tick=0, channel=0, data=[69, 69]),
   midi.NoteOnEvent(tick=480, channel=0, data=[61, 0]),
   midi.NoteOnEvent(tick=0, channel=0, data=[63, 57]),
   midi.NoteOnEvent(tick=480, channel=0, data=[63, 0]),
   midi.NoteOnEvent(tick=0, channel=0, data=[69, 0]),
   midi.NoteOnEvent(tick=0, channel=0, data=[64, 56]),
   midi.NoteOnEvent(tick=0, channel=0, data=[68, 66]),
   midi.NoteOnEvent(tick=480, channel=0, data=[64, 0]),
   midi.NoteOnEvent(tick=0, channel=0, data=[60, 51]),
   midi.NoteOnEvent(tick=480, channel=0, data=[60, 0]),
   midi.NoteOnEvent(tick=0, channel=0, data=[68, 0]),
   midi.NoteOnEvent(tick=0, channel=0, data=[61, 47]),
   midi.NoteOnEvent(tick=0, channel=0, data=[66, 56]),
   midi.NoteOnEvent(tick=480, channel=0, data=[66, 0]),
   midi.NoteOnEvent(tick=0, channel=0, data=[61, 0]),
   midi.NoteOnEvent(tick=0, channel=0, data=[57, 45]),
   midi.NoteOnEvent(tick=0, channel=0, data=[66, 54]),
   midi.NoteOnEvent(tick=480, channel=0, data=[66, 0]),
   midi.NoteOnEvent(tick=0, channel=0, data=[57, 0]),
   midi.NoteOnEvent(tick=0, channel=0, data=[57, 41]),
   midi.NoteOnEvent(tick=0, channel=0, data=[59, 41]),
   midi.NoteOnEvent(tick=0, channel=0, data=[66, 49]),
   midi.NoteOnEvent(tick=720, channel=0, data=[66, 0]),
   midi.NoteOnEvent(tick=0, channel=0, data=[64, 36]),
   midi.NoteOnEvent(tick=240, channel=0, data=[64, 0]),
   midi.NoteOnEvent(tick=0, channel=0, data=[59, 0]),
   midi.NoteOnEvent(tick=0, channel=0, data=[57, 0]),
   midi.NoteOnEvent(tick=0, channel=0, data=[56, 23]),
   midi.NoteOnEvent(tick=0, channel=0, data=[59, 23]),
   midi.NoteOnEvent(tick=0, channel=0, data=[64, 27]),
   midi.NoteOnEvent(tick=1920, channel=0, data=[64, 0]),
   midi.NoteOnEvent(tick=0, channel=0, data=[59, 0]),
   midi.NoteOnEvent(tick=0, channel=0, data=[56, 0]),
   midi.EndOfTrackEvent(tick=0, data=[])]),
 midi.Track(\
  [midi.TrackNameEvent(tick=0, text='Piano left', data=[80, 105, 97, 110, 111, 32, 108, 101, 102, 116]),
   midi.ProgramChangeEvent(tick=0, channel=0, data=[0]),
   midi.ControlChangeEvent(tick=0, channel=0, data=[7, 100]),
   midi.ControlChangeEvent(tick=0, channel=0, data=[10, 64]),
   midi.ControlChangeEvent(tick=0, channel=0, data=[64, 0]),
   midi.ControlChangeEvent(tick=1436, channel=0, data=[91, 127]),
   midi.NoteOnEvent(tick=4, channel=0, data=[47, 48]),
   midi.ControlChangeEvent(tick=0, channel=0, data=[64, 0]),
   midi.NoteOnEvent(tick=480, channel=0, data=[47, 0]),
   midi.NoteOnEvent(tick=0, channel=0, data=[52, 51]),
   midi.NoteOnEvent(tick=480, channel=0, data=[52, 0]),
   midi.NoteOnEvent(tick=0, channel=0, data=[52, 51]),
   midi.NoteOnEvent(tick=480, channel=0, data=[52, 0]),
   midi.NoteOnEvent(tick=0, channel=0, data=[51, 48]),
   midi.NoteOnEvent(tick=480, channel=0, data=[51, 0]),
   midi.NoteOnEvent(tick=0, channel=0, data=[49, 46]),
   midi.NoteOnEvent(tick=240, channel=0, data=[49, 0]),
   midi.NoteOnEvent(tick=0, channel=0, data=[47, 41]),
   midi.NoteOnEvent(tick=240, channel=0, data=[47, 0]),
   midi.NoteOnEvent(tick=0, channel=0, data=[45, 38]),
   midi.NoteOnEvent(tick=0, channel=0, data=[52, 45]),
   midi.ControlChangeEvent(tick=240, channel=0, data=[64, 127]),
   midi.NoteOnEvent(tick=720, channel=0, data=[52, 0]),
   midi.NoteOnEvent(tick=0, channel=0, data=[45, 0]),
   midi.NoteOnEvent(tick=0, channel=0, data=[52, 44]),
   midi.NoteOnEvent(tick=0, channel=0, data=[49, 37]),
   midi.ControlChangeEvent(tick=12, channel=0, data=[64, 0]),
   midi.NoteOnEvent(tick=468, channel=0, data=[49, 0]),
   midi.NoteOnEvent(tick=0, channel=0, data=[52, 0]),
   midi.NoteOnEvent(tick=480, channel=0, data=[45, 37]),
   midi.NoteOnEvent(tick=0, channel=0, data=[52, 44]),
   midi.ControlChangeEvent(tick=21, channel=0, data=[64, 127]),
   midi.NoteOnEvent(tick=299, channel=0, data=[52, 0]),
   midi.NoteOnEvent(tick=0, channel=0, data=[45, 0]),
   midi.NoteOnEvent(tick=160, channel=0, data=[52, 42]),
   midi.NoteOnEvent(tick=0, channel=0, data=[45, 35]),
   midi.NoteOnEvent(tick=320, channel=0, data=[45, 0]),
   midi.NoteOnEvent(tick=0, channel=0, data=[52, 0]),
   midi.ControlChangeEvent(tick=132, channel=0, data=[64, 0]),
   midi.NoteOnEvent(tick=28, channel=0, data=[51, 42]),
   midi.NoteOnEvent(tick=0, channel=0, data=[47, 35]),
   midi.ControlChangeEvent(tick=60, channel=0, data=[64, 127]),
   midi.NoteOnEvent(tick=260, channel=0, data=[47, 0]),
   midi.NoteOnEvent(tick=0, channel=0, data=[51, 0]),
   midi.NoteOnEvent(tick=160, channel=0, data=[51, 39]),
   midi.NoteOnEvent(tick=0, channel=0, data=[47, 33]),
   midi.NoteOnEvent(tick=320, channel=0, data=[47, 0]),
   midi.NoteOnEvent(tick=0, channel=0, data=[51, 0]),
   midi.ControlChangeEvent(tick=111, channel=0, data=[64, 0]),
   midi.NoteOnEvent(tick=49, channel=0, data=[52, 44]),
   midi.NoteOnEvent(tick=0, channel=0, data=[40, 37]),
   midi.ControlChangeEvent(tick=133, channel=0, data=[64, 127]),
   midi.NoteOnEvent(tick=827, channel=0, data=[40, 0]),
   midi.NoteOnEvent(tick=0, channel=0, data=[52, 0]),
   midi.ControlChangeEvent(tick=133, channel=0, data=[64, 0]),
   midi.NoteOnEvent(tick=347, channel=0, data=[56, 66]),
   midi.NoteOnEvent(tick=480, channel=0, data=[56, 0]),
   midi.NoteOnEvent(tick=0, channel=0, data=[61, 66]),
   midi.NoteOnEvent(tick=480, channel=0, data=[61, 0]),
   midi.NoteOnEvent(tick=0, channel=0, data=[61, 64]),
   midi.NoteOnEvent(tick=480, channel=0, data=[61, 0]),
   midi.NoteOnEvent(tick=0, channel=0, data=[59, 64]),
   midi.NoteOnEvent(tick=480, channel=0, data=[59, 0]),
   midi.NoteOnEvent(tick=0, channel=0, data=[57, 65]),
   midi.NoteOnEvent(tick=240, channel=0, data=[57, 0]),
   midi.NoteOnEvent(tick=0, channel=0, data=[56, 59]),
   midi.NoteOnEvent(tick=240, channel=0, data=[56, 0]),
   midi.NoteOnEvent(tick=0, channel=0, data=[57, 69]),
   midi.ControlChangeEvent(tick=160, channel=0, data=[64, 127]),
   midi.NoteOnEvent(tick=320, channel=0, data=[57, 0]),
   midi.NoteOnEvent(tick=0, channel=0, data=[54, 59]),
   midi.NoteOnEvent(tick=480, channel=0, data=[54, 0]),
   midi.NoteOnEvent(tick=0, channel=0, data=[49, 60]),
   midi.ControlChangeEvent(tick=12, channel=0, data=[64, 0]),
   midi.ControlChangeEvent(tick=362, channel=0, data=[64, 127]),
   midi.ControlChangeEvent(tick=400, channel=0, data=[64, 0]),
   midi.NoteOnEvent(tick=186, channel=0, data=[49, 0]),
   midi.NoteOnEvent(tick=0, channel=0, data=[45, 46]),
   midi.NoteOnEvent(tick=0, channel=0, data=[52, 55]),
   midi.ControlChangeEvent(tick=127, channel=0, data=[64, 127]),
   midi.NoteOnEvent(tick=353, channel=0, data=[52, 0]),
   midi.NoteOnEvent(tick=0, channel=0, data=[45, 0]),
   midi.NoteOnEvent(tick=0, channel=0, data=[52, 47]),
   midi.NoteOnEvent(tick=0, channel=0, data=[42, 39]),
   midi.NoteOnEvent(tick=480, channel=0, data=[42, 0]),
   midi.NoteOnEvent(tick=0, channel=0, data=[52, 0]),
   midi.NoteOnEvent(tick=0, channel=0, data=[52, 46]),
   midi.NoteOnEvent(tick=0, channel=0, data=[47, 39]),
   midi.ControlChangeEvent(tick=8, channel=0, data=[64, 0]),
   midi.ControlChangeEvent(tick=162, channel=0, data=[64, 127]),
   midi.NoteOnEvent(tick=310, channel=0, data=[52, 0]),
   midi.NoteOnEvent(tick=0, channel=0, data=[51, 44]),
   midi.NoteOnEvent(tick=480, channel=0, data=[51, 0]),
   midi.NoteOnEvent(tick=0, channel=0, data=[47, 0]),
   midi.NoteOnEvent(tick=0, channel=0, data=[47, 29]),
   midi.NoteOnEvent(tick=0, channel=0, data=[52, 35]),
   midi.NoteOnEvent(tick=0, channel=0, data=[40, 29]),
   midi.ControlChangeEvent(tick=3, channel=0, data=[64, 0]),
   midi.ControlChangeEvent(tick=317, channel=0, data=[64, 127]),
   midi.NoteOnEvent(tick=640, channel=0, data=[40, 0]),
   midi.NoteOnEvent(tick=0, channel=0, data=[52, 0]),
   midi.NoteOnEvent(tick=0, channel=0, data=[47, 0]),
   midi.ControlChangeEvent(tick=80, channel=0, data=[64, 0]),
   midi.ControlChangeEvent(tick=560, channel=0, data=[64, 127]),
   midi.NoteOnEvent(tick=320, channel=0, data=[56, 40]),
   midi.NoteOnEvent(tick=960, channel=0, data=[56, 0]),
   midi.NoteOnEvent(tick=0, channel=0, data=[49, 40]),
   midi.ControlChangeEvent(tick=7, channel=0, data=[64, 0]),
   midi.ControlChangeEvent(tick=219, channel=0, data=[64, 127]),
   midi.ControlChangeEvent(tick=894, channel=0, data=[64, 0]),
   midi.NoteOnEvent(tick=320, channel=0, data=[49, 0]),
   midi.NoteOnEvent(tick=0, channel=0, data=[54, 46]),
   midi.NoteOnEvent(tick=480, channel=0, data=[54, 0]),
   midi.NoteOnEvent(tick=0, channel=0, data=[47, 47]),
   midi.NoteOnEvent(tick=450, channel=0, data=[47, 0]),
   midi.ControlChangeEvent(tick=99, channel=0, data=[64, 127]),
   midi.NoteOnEvent(tick=411, channel=0, data=[56, 45]),
   midi.NoteOnEvent(tick=960, channel=0, data=[56, 0]),
   midi.NoteOnEvent(tick=0, channel=0, data=[49, 45]),
   midi.ControlChangeEvent(tick=12, channel=0, data=[64, 0]),
   midi.ControlChangeEvent(tick=186, channel=0, data=[64, 127]),
   midi.NoteOnEvent(tick=1242, channel=0, data=[49, 0]),
   midi.NoteOnEvent(tick=0, channel=0, data=[54, 54]),
   midi.ControlChangeEvent(tick=12, channel=0, data=[64, 0]),
   midi.NoteOnEvent(tick=468, channel=0, data=[54, 0]),
   midi.NoteOnEvent(tick=0, channel=0, data=[47, 51]),
   midi.NoteOnEvent(tick=450, channel=0, data=[47, 0]),
   midi.NoteOnEvent(tick=30, channel=0, data=[47, 48]),
   midi.NoteOnEvent(tick=480, channel=0, data=[47, 0]),
   midi.NoteOnEvent(tick=0, channel=0, data=[52, 51]),
   midi.NoteOnEvent(tick=480, channel=0, data=[52, 0]),
   midi.NoteOnEvent(tick=0, channel=0, data=[52, 48]),
   midi.NoteOnEvent(tick=480, channel=0, data=[52, 0]),
   midi.NoteOnEvent(tick=0, channel=0, data=[51, 48]),
   midi.NoteOnEvent(tick=480, channel=0, data=[51, 0]),
   midi.NoteOnEvent(tick=0, channel=0, data=[49, 46]),
   midi.NoteOnEvent(tick=240, channel=0, data=[49, 0]),
   midi.NoteOnEvent(tick=0, channel=0, data=[47, 44]),
   midi.NoteOnEvent(tick=240, channel=0, data=[47, 0]),
   midi.NoteOnEvent(tick=0, channel=0, data=[52, 44]),
   midi.NoteOnEvent(tick=0, channel=0, data=[45, 37]),
   midi.ControlChangeEvent(tick=293, channel=0, data=[64, 127]),
   midi.NoteOnEvent(tick=667, channel=0, data=[45, 0]),
   midi.NoteOnEvent(tick=0, channel=0, data=[52, 0]),
   midi.NoteOnEvent(tick=0, channel=0, data=[49, 38]),
   midi.NoteOnEvent(tick=0, channel=0, data=[52, 45]),
   midi.ControlChangeEvent(tick=6, channel=0, data=[64, 0]),
   midi.NoteOnEvent(tick=474, channel=0, data=[52, 0]),
   midi.NoteOnEvent(tick=0, channel=0, data=[49, 0]),
   midi.NoteOnEvent(tick=480, channel=0, data=[52, 48]),
   midi.NoteOnEvent(tick=0, channel=0, data=[45, 40]),
   midi.ControlChangeEvent(tick=71, channel=0, data=[64, 127]),
   midi.NoteOnEvent(tick=409, channel=0, data=[45, 0]),
   midi.NoteOnEvent(tick=0, channel=0, data=[52, 0]),
   midi.NoteOnEvent(tick=0, channel=0, data=[52, 46]),
   midi.NoteOnEvent(tick=0, channel=0, data=[42, 39]),
   midi.NoteOnEvent(tick=480, channel=0, data=[42, 0]),
   midi.NoteOnEvent(tick=0, channel=0, data=[52, 0]),
   midi.NoteOnEvent(tick=0, channel=0, data=[47, 36]),
   midi.NoteOnEvent(tick=0, channel=0, data=[52, 43]),
   midi.ControlChangeEvent(tick=11, channel=0, data=[64, 0]),
   midi.ControlChangeEvent(tick=187, channel=0, data=[64, 127]),
   midi.NoteOnEvent(tick=282, channel=0, data=[52, 0]),
   midi.NoteOnEvent(tick=0, channel=0, data=[51, 43]),
   midi.NoteOnEvent(tick=480, channel=0, data=[51, 0]),
   midi.NoteOnEvent(tick=0, channel=0, data=[47, 0]),
   midi.NoteOnEvent(tick=0, channel=0, data=[40, 33]),
   midi.NoteOnEvent(tick=0, channel=0, data=[52, 39]),
   midi.NoteOnEvent(tick=0, channel=0, data=[47, 33]),
   midi.ControlChangeEvent(tick=4, channel=0, data=[64, 0]),
   midi.ControlChangeEvent(tick=210, channel=0, data=[64, 127]),
   midi.NoteOnEvent(tick=746, channel=0, data=[47, 0]),
   midi.NoteOnEvent(tick=0, channel=0, data=[52, 0]),
   midi.NoteOnEvent(tick=0, channel=0, data=[40, 0]),
   midi.ControlChangeEvent(tick=80, channel=0, data=[64, 0]),
   midi.ControlChangeEvent(tick=560, channel=0, data=[64, 127]),
   midi.NoteOnEvent(tick=320, channel=0, data=[56, 40]),
   midi.NoteOnEvent(tick=960, channel=0, data=[56, 0]),
   midi.NoteOnEvent(tick=0, channel=0, data=[49, 40]),
   midi.ControlChangeEvent(tick=12, channel=0, data=[64, 0]),
   midi.ControlChangeEvent(tick=228, channel=0, data=[64, 127]),
   midi.NoteOnEvent(tick=1200, channel=0, data=[49, 0]),
   midi.NoteOnEvent(tick=0, channel=0, data=[54, 47]),
   midi.ControlChangeEvent(tick=10, channel=0, data=[64, 0]),
   midi.NoteOnEvent(tick=470, channel=0, data=[54, 0]),
   midi.NoteOnEvent(tick=0, channel=0, data=[47, 50]),
   midi.NoteOnEvent(tick=450, channel=0, data=[47, 0]),
   midi.ControlChangeEvent(tick=53, channel=0, data=[64, 127]),
   midi.NoteOnEvent(tick=457, channel=0, data=[56, 45]),
   midi.NoteOnEvent(tick=960, channel=0, data=[56, 0]),
   midi.NoteOnEvent(tick=0, channel=0, data=[49, 45]),
   midi.ControlChangeEvent(tick=11, channel=0, data=[64, 0]),
   midi.ControlChangeEvent(tick=215, channel=0, data=[64, 127]),
   midi.NoteOnEvent(tick=1214, channel=0, data=[49, 0]),
   midi.NoteOnEvent(tick=0, channel=0, data=[54, 51]),
   midi.ControlChangeEvent(tick=16, channel=0, data=[64, 0]),
   midi.NoteOnEvent(tick=464, channel=0, data=[54, 0]),
   midi.NoteOnEvent(tick=0, channel=0, data=[47, 50]),
   midi.NoteOnEvent(tick=450, channel=0, data=[47, 0]),
   midi.NoteOnEvent(tick=30, channel=0, data=[47, 48]),
   midi.NoteOnEvent(tick=480, channel=0, data=[47, 0]),
   midi.NoteOnEvent(tick=0, channel=0, data=[52, 51]),
   midi.NoteOnEvent(tick=480, channel=0, data=[52, 0]),
   midi.NoteOnEvent(tick=0, channel=0, data=[52, 48]),
   midi.NoteOnEvent(tick=480, channel=0, data=[52, 0]),
   midi.NoteOnEvent(tick=0, channel=0, data=[51, 48]),
   midi.NoteOnEvent(tick=480, channel=0, data=[51, 0]),
   midi.NoteOnEvent(tick=0, channel=0, data=[49, 46]),
   midi.NoteOnEvent(tick=240, channel=0, data=[49, 0]),
   midi.NoteOnEvent(tick=0, channel=0, data=[47, 44]),
   midi.NoteOnEvent(tick=240, channel=0, data=[47, 0]),
   midi.NoteOnEvent(tick=0, channel=0, data=[45, 37]),
   midi.NoteOnEvent(tick=0, channel=0, data=[52, 44]),
   midi.ControlChangeEvent(tick=214, channel=0, data=[64, 127]),
   midi.NoteOnEvent(tick=746, channel=0, data=[52, 0]),
   midi.NoteOnEvent(tick=0, channel=0, data=[45, 0]),
   midi.NoteOnEvent(tick=0, channel=0, data=[49, 38]),
   midi.NoteOnEvent(tick=0, channel=0, data=[52, 45]),
   midi.ControlChangeEvent(tick=10, channel=0, data=[64, 0]),
   midi.NoteOnEvent(tick=470, channel=0, data=[52, 0]),
   midi.NoteOnEvent(tick=0, channel=0, data=[49, 0]),
   midi.NoteOnEvent(tick=480, channel=0, data=[45, 38]),
   midi.NoteOnEvent(tick=0, channel=0, data=[52, 45]),
   midi.ControlChangeEvent(tick=113, channel=0, data=[64, 127]),
   midi.NoteOnEvent(tick=367, channel=0, data=[52, 0]),
   midi.NoteOnEvent(tick=0, channel=0, data=[45, 0]),
   midi.NoteOnEvent(tick=0, channel=0, data=[52, 41]),
   midi.NoteOnEvent(tick=0, channel=0, data=[42, 34]),
   midi.NoteOnEvent(tick=480, channel=0, data=[42, 0]),
   midi.NoteOnEvent(tick=0, channel=0, data=[52, 0]),
   midi.NoteOnEvent(tick=0, channel=0, data=[47, 31]),
   midi.NoteOnEvent(tick=0, channel=0, data=[52, 37]),
   midi.ControlChangeEvent(tick=11, channel=0, data=[64, 0]),
   midi.ControlChangeEvent(tick=243, channel=0, data=[64, 127]),
   midi.NoteOnEvent(tick=226, channel=0, data=[52, 0]),
   midi.NoteOnEvent(tick=0, channel=0, data=[51, 34]),
   midi.NoteOnEvent(tick=480, channel=0, data=[51, 0]),
   midi.NoteOnEvent(tick=0, channel=0, data=[47, 0]),
   midi.NoteOnEvent(tick=0, channel=0, data=[47, 23]),
   midi.NoteOnEvent(tick=0, channel=0, data=[40, 23]),
   midi.NoteOnEvent(tick=0, channel=0, data=[52, 28]),
   midi.ControlChangeEvent(tick=6, channel=0, data=[64, 0]),
   midi.ControlChangeEvent(tick=528, channel=0, data=[64, 127]),
   midi.NoteOnEvent(tick=426, channel=0, data=[52, 0]),
   midi.NoteOnEvent(tick=0, channel=0, data=[40, 0]),
   midi.NoteOnEvent(tick=0, channel=0, data=[47, 0]),
   midi.ControlChangeEvent(tick=187, channel=0, data=[64, 0]),
   midi.ControlChangeEvent(tick=773, channel=0, data=[64, 127]),
   midi.ControlChangeEvent(tick=0, channel=0, data=[91, 127]),
   midi.NoteOnEvent(tick=0, channel=0, data=[40, 28]),
   midi.NoteOnEvent(tick=720, channel=0, data=[47, 21]),
   midi.NoteOnEvent(tick=36, channel=0, data=[52, 22]),
   midi.NoteOnEvent(tick=18, channel=0, data=[47, 0]),
   midi.NoteOnEvent(tick=16, channel=0, data=[55, 24]),
   midi.NoteOnEvent(tick=17, channel=0, data=[52, 0]),
   midi.NoteOnEvent(tick=17, channel=0, data=[59, 24]),
   midi.NoteOnEvent(tick=17, channel=0, data=[55, 0]),
   midi.NoteOnEvent(tick=17, channel=0, data=[55, 24]),
   midi.NoteOnEvent(tick=17, channel=0, data=[59, 0]),
   midi.NoteOnEvent(tick=17, channel=0, data=[52, 23]),
   midi.NoteOnEvent(tick=17, channel=0, data=[55, 0]),
   midi.NoteOnEvent(tick=17, channel=0, data=[47, 22]),
   midi.NoteOnEvent(tick=17, channel=0, data=[52, 0]),
   midi.NoteOnEvent(tick=17, channel=0, data=[40, 0]),
   midi.NoteOnEvent(tick=0, channel=0, data=[40, 34]),
   midi.NoteOnEvent(tick=17, channel=0, data=[47, 0]),
   midi.NoteOnEvent(tick=703, channel=0, data=[47, 22]),
   midi.NoteOnEvent(tick=36, channel=0, data=[52, 26]),
   midi.NoteOnEvent(tick=18, channel=0, data=[47, 0]),
   midi.NoteOnEvent(tick=16, channel=0, data=[55, 28]),
   midi.NoteOnEvent(tick=17, channel=0, data=[52, 0]),
   midi.NoteOnEvent(tick=17, channel=0, data=[59, 29]),
   midi.NoteOnEvent(tick=17, channel=0, data=[55, 0]),
   midi.NoteOnEvent(tick=17, channel=0, data=[55, 28]),
   midi.NoteOnEvent(tick=17, channel=0, data=[59, 0]),
   midi.NoteOnEvent(tick=17, channel=0, data=[52, 26]),
   midi.NoteOnEvent(tick=17, channel=0, data=[55, 0]),
   midi.NoteOnEvent(tick=17, channel=0, data=[47, 24]),
   midi.NoteOnEvent(tick=17, channel=0, data=[52, 0]),
   midi.NoteOnEvent(tick=17, channel=0, data=[47, 0]),
   midi.NoteOnEvent(tick=0, channel=0, data=[40, 0]),
   midi.NoteOnEvent(tick=0, channel=0, data=[40, 38]),
   midi.ControlChangeEvent(tick=1080, channel=0, data=[64, 0]),
   midi.ControlChangeEvent(tick=176, channel=0, data=[64, 127]),
   midi.NoteOnEvent(tick=184, channel=0, data=[40, 0]),
   midi.ControlChangeEvent(tick=489, channel=0, data=[64, 0]),
   midi.ControlChangeEvent(tick=217, channel=0, data=[64, 127]),
   midi.ControlChangeEvent(tick=1697, channel=0, data=[64, 0]),
   midi.ControlChangeEvent(tick=557, channel=0, data=[64, 127]),
   midi.ControlChangeEvent(tick=1013, channel=0, data=[64, 0]),
   midi.NoteOnEvent(tick=347, channel=0, data=[41, 28]),
   midi.ControlChangeEvent(tick=66, channel=0, data=[64, 127]),
   midi.NoteOnEvent(tick=654, channel=0, data=[48, 23]),
   midi.NoteOnEvent(tick=36, channel=0, data=[53, 23]),
   midi.NoteOnEvent(tick=33, channel=0, data=[48, 0]),
   midi.NoteOnEvent(tick=1, channel=0, data=[57, 24]),
   midi.NoteOnEvent(tick=32, channel=0, data=[53, 0]),
   midi.NoteOnEvent(tick=2, channel=0, data=[60, 25]),
   midi.NoteOnEvent(tick=32, channel=0, data=[57, 0]),
   midi.NoteOnEvent(tick=2, channel=0, data=[57, 28]),
   midi.NoteOnEvent(tick=32, channel=0, data=[60, 0]),
   midi.NoteOnEvent(tick=2, channel=0, data=[53, 26]),
   midi.NoteOnEvent(tick=32, channel=0, data=[57, 0]),
   midi.NoteOnEvent(tick=2, channel=0, data=[48, 26]),
   midi.NoteOnEvent(tick=32, channel=0, data=[53, 0]),
   midi.NoteOnEvent(tick=2, channel=0, data=[41, 0]),
   midi.NoteOnEvent(tick=0, channel=0, data=[41, 32]),
   midi.NoteOnEvent(tick=32, channel=0, data=[48, 0]),
   midi.NoteOnEvent(tick=688, channel=0, data=[48, 22]),
   midi.NoteOnEvent(tick=36, channel=0, data=[53, 23]),
   midi.NoteOnEvent(tick=33, channel=0, data=[48, 0]),
   midi.NoteOnEvent(tick=1, channel=0, data=[57, 24]),
   midi.NoteOnEvent(tick=32, channel=0, data=[53, 0]),
   midi.NoteOnEvent(tick=2, channel=0, data=[60, 24]),
   midi.NoteOnEvent(tick=32, channel=0, data=[57, 0]),
   midi.NoteOnEvent(tick=2, channel=0, data=[57, 26]),
   midi.NoteOnEvent(tick=32, channel=0, data=[60, 0]),
   midi.NoteOnEvent(tick=2, channel=0, data=[53, 26]),
   midi.NoteOnEvent(tick=32, channel=0, data=[57, 0]),
   midi.NoteOnEvent(tick=2, channel=0, data=[48, 26]),
   midi.NoteOnEvent(tick=32, channel=0, data=[53, 0]),
   midi.NoteOnEvent(tick=2, channel=0, data=[41, 0]),
   midi.NoteOnEvent(tick=0, channel=0, data=[41, 32]),
   midi.NoteOnEvent(tick=10, channel=0, data=[48, 0]),
   midi.ControlChangeEvent(tick=950, channel=0, data=[64, 0]),
   midi.ControlChangeEvent(tick=309, channel=0, data=[64, 127]),
   midi.NoteOnEvent(tick=171, channel=0, data=[41, 0]),
   midi.ControlChangeEvent(tick=490, channel=0, data=[64, 0]),
   midi.ControlChangeEvent(tick=196, channel=0, data=[64, 127]),
   midi.NoteOnEvent(tick=1234, channel=0, data=[57, 46]),
   midi.ControlChangeEvent(tick=8, channel=0, data=[64, 0]),
   midi.ControlChangeEvent(tick=106, channel=0, data=[64, 127]),
   midi.NoteOnEvent(tick=366, channel=0, data=[57, 0]),
   midi.NoteOnEvent(tick=0, channel=0, data=[59, 37]),
   midi.ControlChangeEvent(tick=4, channel=0, data=[64, 0]),
   midi.ControlChangeEvent(tick=690, channel=0, data=[64, 127]),
   midi.ControlChangeEvent(tick=1066, channel=0, data=[64, 0]),
   midi.NoteOnEvent(tick=140, channel=0, data=[59, 0]),
   midi.NoteOnEvent(tick=20, channel=0, data=[40, 28]),
   midi.ControlChangeEvent(tick=46, channel=0, data=[64, 127]),
   midi.NoteOnEvent(tick=674, channel=0, data=[47, 22]),
   midi.NoteOnEvent(tick=36, channel=0, data=[52, 22]),
   midi.NoteOnEvent(tick=33, channel=0, data=[47, 0]),
   midi.NoteOnEvent(tick=1, channel=0, data=[55, 23]),
   midi.NoteOnEvent(tick=32, channel=0, data=[52, 0]),
   midi.NoteOnEvent(tick=2, channel=0, data=[59, 23]),
   midi.NoteOnEvent(tick=32, channel=0, data=[55, 0]),
   midi.NoteOnEvent(tick=2, channel=0, data=[55, 22]),
   midi.NoteOnEvent(tick=32, channel=0, data=[59, 0]),
   midi.NoteOnEvent(tick=2, channel=0, data=[52, 22]),
   midi.NoteOnEvent(tick=32, channel=0, data=[55, 0]),
   midi.NoteOnEvent(tick=2, channel=0, data=[47, 21]),
   midi.NoteOnEvent(tick=32, channel=0, data=[52, 0]),
   midi.NoteOnEvent(tick=2, channel=0, data=[40, 0]),
   midi.NoteOnEvent(tick=0, channel=0, data=[40, 27]),
   midi.NoteOnEvent(tick=32, channel=0, data=[47, 0]),
   midi.NoteOnEvent(tick=688, channel=0, data=[47, 20]),
   midi.NoteOnEvent(tick=36, channel=0, data=[52, 22]),
   midi.NoteOnEvent(tick=33, channel=0, data=[47, 0]),
   midi.NoteOnEvent(tick=1, channel=0, data=[55, 24]),
   midi.NoteOnEvent(tick=32, channel=0, data=[52, 0]),
   midi.NoteOnEvent(tick=2, channel=0, data=[59, 26]),
   midi.NoteOnEvent(tick=32, channel=0, data=[55, 0]),
   midi.NoteOnEvent(tick=2, channel=0, data=[55, 24]),
   midi.NoteOnEvent(tick=32, channel=0, data=[59, 0]),
   midi.NoteOnEvent(tick=2, channel=0, data=[52, 22]),
   midi.NoteOnEvent(tick=32, channel=0, data=[55, 0]),
   midi.NoteOnEvent(tick=2, channel=0, data=[47, 20]),
   midi.NoteOnEvent(tick=32, channel=0, data=[52, 0]),
   midi.NoteOnEvent(tick=2, channel=0, data=[40, 0]),
   midi.NoteOnEvent(tick=0, channel=0, data=[40, 32]),
   midi.NoteOnEvent(tick=32, channel=0, data=[47, 0]),
   midi.ControlChangeEvent(tick=928, channel=0, data=[64, 0]),
   midi.ControlChangeEvent(tick=247, channel=0, data=[64, 127]),
   midi.NoteOnEvent(tick=233, channel=0, data=[40, 0]),
   midi.ControlChangeEvent(tick=483, channel=0, data=[64, 0]),
   midi.ControlChangeEvent(tick=223, channel=0, data=[64, 127]),
   midi.ControlChangeEvent(tick=1701, channel=0, data=[64, 0]),
   midi.ControlChangeEvent(tick=393, channel=0, data=[64, 127]),
   midi.ControlChangeEvent(tick=1200, channel=0, data=[64, 0]),
   midi.NoteOnEvent(tick=320, channel=0, data=[41, 28]),
   midi.ControlChangeEvent(tick=29, channel=0, data=[64, 127]),
   midi.NoteOnEvent(tick=691, channel=0, data=[48, 25]),
   midi.NoteOnEvent(tick=36, channel=0, data=[53, 25]),
   midi.NoteOnEvent(tick=33, channel=0, data=[48, 0]),
   midi.NoteOnEvent(tick=1, channel=0, data=[57, 26]),
   midi.NoteOnEvent(tick=32, channel=0, data=[53, 0]),
   midi.NoteOnEvent(tick=2, channel=0, data=[60, 28]),
   midi.NoteOnEvent(tick=32, channel=0, data=[57, 0]),
   midi.NoteOnEvent(tick=2, channel=0, data=[57, 28]),
   midi.NoteOnEvent(tick=32, channel=0, data=[60, 0]),
   midi.NoteOnEvent(tick=2, channel=0, data=[53, 28]),
   midi.NoteOnEvent(tick=32, channel=0, data=[57, 0]),
   midi.NoteOnEvent(tick=2, channel=0, data=[48, 26]),
   midi.NoteOnEvent(tick=32, channel=0, data=[53, 0]),
   midi.NoteOnEvent(tick=2, channel=0, data=[41, 0]),
   midi.NoteOnEvent(tick=0, channel=0, data=[41, 32]),
   midi.NoteOnEvent(tick=32, channel=0, data=[48, 0]),
   midi.NoteOnEvent(tick=688, channel=0, data=[48, 24]),
   midi.NoteOnEvent(tick=36, channel=0, data=[53, 24]),
   midi.NoteOnEvent(tick=33, channel=0, data=[48, 0]),
   midi.NoteOnEvent(tick=1, channel=0, data=[57, 25]),
   midi.NoteOnEvent(tick=32, channel=0, data=[53, 0]),
   midi.NoteOnEvent(tick=2, channel=0, data=[60, 26]),
   midi.NoteOnEvent(tick=32, channel=0, data=[57, 0]),
   midi.NoteOnEvent(tick=2, channel=0, data=[57, 28]),
   midi.NoteOnEvent(tick=32, channel=0, data=[60, 0]),
   midi.NoteOnEvent(tick=2, channel=0, data=[53, 28]),
   midi.NoteOnEvent(tick=32, channel=0, data=[57, 0]),
   midi.NoteOnEvent(tick=2, channel=0, data=[48, 28]),
   midi.NoteOnEvent(tick=32, channel=0, data=[53, 0]),
   midi.NoteOnEvent(tick=2, channel=0, data=[41, 0]),
   midi.NoteOnEvent(tick=0, channel=0, data=[41, 39]),
   midi.NoteOnEvent(tick=32, channel=0, data=[48, 0]),
   midi.ControlChangeEvent(tick=924, channel=0, data=[64, 0]),
   midi.ControlChangeEvent(tick=255, channel=0, data=[64, 127]),
   midi.NoteOnEvent(tick=229, channel=0, data=[41, 0]),
   midi.ControlChangeEvent(tick=484, channel=0, data=[64, 0]),
   midi.ControlChangeEvent(tick=133, channel=0, data=[64, 127]),
   midi.NoteOnEvent(tick=1303, channel=0, data=[57, 37]),
   midi.ControlChangeEvent(tick=11, channel=0, data=[64, 0]),
   midi.ControlChangeEvent(tick=195, channel=0, data=[64, 127]),
   midi.NoteOnEvent(tick=274, channel=0, data=[57, 0]),
   midi.NoteOnEvent(tick=0, channel=0, data=[59, 31]),
   midi.ControlChangeEvent(tick=4, channel=0, data=[64, 0]),
   midi.ControlChangeEvent(tick=396, channel=0, data=[64, 127]),
   midi.NoteOnEvent(tick=560, channel=0, data=[59, 0]),
   midi.ControlChangeEvent(tick=53, channel=0, data=[64, 0]),
   midi.ControlChangeEvent(tick=454, channel=0, data=[64, 127]),
   midi.NoteOnEvent(tick=453, channel=0, data=[56, 40]),
   midi.NoteOnEvent(tick=960, channel=0, data=[56, 0]),
   midi.NoteOnEvent(tick=0, channel=0, data=[49, 40]),
   midi.ControlChangeEvent(tick=12, channel=0, data=[64, 0]),
   midi.ControlChangeEvent(tick=214, channel=0, data=[64, 127]),
   midi.NoteOnEvent(tick=1214, channel=0, data=[49, 0]),
   midi.NoteOnEvent(tick=0, channel=0, data=[54, 47]),
   midi.ControlChangeEvent(tick=11, channel=0, data=[64, 0]),
   midi.NoteOnEvent(tick=469, channel=0, data=[54, 0]),
   midi.NoteOnEvent(tick=0, channel=0, data=[47, 50]),
   midi.NoteOnEvent(tick=450, channel=0, data=[47, 0]),
   midi.ControlChangeEvent(tick=121, channel=0, data=[64, 127]),
   midi.NoteOnEvent(tick=389, channel=0, data=[56, 45]),
   midi.NoteOnEvent(tick=960, channel=0, data=[56, 0]),
   midi.NoteOnEvent(tick=0, channel=0, data=[49, 43]),
   midi.ControlChangeEvent(tick=12, channel=0, data=[64, 0]),
   midi.ControlChangeEvent(tick=256, channel=0, data=[64, 127]),
   midi.NoteOnEvent(tick=1172, channel=0, data=[49, 0]),
   midi.NoteOnEvent(tick=0, channel=0, data=[54, 49]),
   midi.ControlChangeEvent(tick=9, channel=0, data=[64, 0]),
   midi.NoteOnEvent(tick=471, channel=0, data=[54, 0]),
   midi.NoteOnEvent(tick=0, channel=0, data=[47, 47]),
   midi.NoteOnEvent(tick=450, channel=0, data=[47, 0]),
   midi.NoteOnEvent(tick=30, channel=0, data=[47, 52]),
   midi.NoteOnEvent(tick=480, channel=0, data=[47, 0]),
   midi.NoteOnEvent(tick=0, channel=0, data=[52, 56]),
   midi.NoteOnEvent(tick=480, channel=0, data=[52, 0]),
   midi.NoteOnEvent(tick=0, channel=0, data=[52, 54]),
   midi.NoteOnEvent(tick=480, channel=0, data=[52, 0]),
   midi.NoteOnEvent(tick=0, channel=0, data=[51, 52]),
   midi.NoteOnEvent(tick=480, channel=0, data=[51, 0]),
   midi.NoteOnEvent(tick=0, channel=0, data=[49, 51]),
   midi.NoteOnEvent(tick=240, channel=0, data=[49, 0]),
   midi.NoteOnEvent(tick=0, channel=0, data=[47, 46]),
   midi.NoteOnEvent(tick=240, channel=0, data=[47, 0]),
   midi.NoteOnEvent(tick=0, channel=0, data=[52, 48]),
   midi.NoteOnEvent(tick=0, channel=0, data=[45, 40]),
   midi.ControlChangeEvent(tick=240, channel=0, data=[64, 127]),
   midi.NoteOnEvent(tick=720, channel=0, data=[45, 0]),
   midi.NoteOnEvent(tick=0, channel=0, data=[52, 0]),
   midi.NoteOnEvent(tick=0, channel=0, data=[49, 41]),
   midi.NoteOnEvent(tick=0, channel=0, data=[52, 49]),
   midi.ControlChangeEvent(tick=12, channel=0, data=[64, 0]),
   midi.NoteOnEvent(tick=468, channel=0, data=[52, 0]),
   midi.NoteOnEvent(tick=0, channel=0, data=[49, 0]),
   midi.NoteOnEvent(tick=480, channel=0, data=[45, 40]),
   midi.NoteOnEvent(tick=0, channel=0, data=[52, 48]),
   midi.ControlChangeEvent(tick=53, channel=0, data=[64, 127]),
   midi.NoteOnEvent(tick=397, channel=0, data=[52, 0]),
   midi.NoteOnEvent(tick=0, channel=0, data=[45, 0]),
   midi.NoteOnEvent(tick=30, channel=0, data=[45, 39]),
   midi.NoteOnEvent(tick=0, channel=0, data=[52, 46]),
   midi.NoteOnEvent(tick=450, channel=0, data=[52, 0]),
   midi.NoteOnEvent(tick=0, channel=0, data=[45, 0]),
   midi.NoteOnEvent(tick=30, channel=0, data=[42, 39]),
   midi.NoteOnEvent(tick=0, channel=0, data=[52, 46]),
   midi.ControlChangeEvent(tick=11, channel=0, data=[64, 0]),
   midi.ControlChangeEvent(tick=229, channel=0, data=[64, 127]),
   midi.NoteOnEvent(tick=210, channel=0, data=[52, 0]),
   midi.NoteOnEvent(tick=0, channel=0, data=[42, 0]),
   midi.NoteOnEvent(tick=30, channel=0, data=[42, 39]),
   midi.NoteOnEvent(tick=0, channel=0, data=[52, 46]),
   midi.NoteOnEvent(tick=450, channel=0, data=[52, 0]),
   midi.NoteOnEvent(tick=0, channel=0, data=[42, 0]),
   midi.NoteOnEvent(tick=30, channel=0, data=[44, 34]),
   midi.NoteOnEvent(tick=0, channel=0, data=[51, 40]),
   midi.ControlChangeEvent(tick=7, channel=0, data=[64, 0]),
   midi.ControlChangeEvent(tick=393, channel=0, data=[64, 127]),
   midi.ControlChangeEvent(tick=720, channel=0, data=[64, 0]),
   midi.NoteOnEvent(tick=290, channel=0, data=[51, 0]),
   midi.NoteOnEvent(tick=0, channel=0, data=[44, 0]),
   midi.NoteOnEvent(tick=30, channel=0, data=[56, 66]),
   midi.NoteOnEvent(tick=480, channel=0, data=[56, 0]),
   midi.NoteOnEvent(tick=0, channel=0, data=[61, 66]),
   midi.NoteOnEvent(tick=480, channel=0, data=[61, 0]),
   midi.NoteOnEvent(tick=0, channel=0, data=[61, 62]),
   midi.NoteOnEvent(tick=480, channel=0, data=[61, 0]),
   midi.NoteOnEvent(tick=0, channel=0, data=[59, 64]),
   midi.NoteOnEvent(tick=480, channel=0, data=[59, 0]),
   midi.NoteOnEvent(tick=0, channel=0, data=[57, 65]),
   midi.NoteOnEvent(tick=240, channel=0, data=[57, 0]),
   midi.NoteOnEvent(tick=0, channel=0, data=[56, 61]),
   midi.NoteOnEvent(tick=240, channel=0, data=[56, 0]),
   midi.NoteOnEvent(tick=0, channel=0, data=[57, 58]),
   midi.ControlChangeEvent(tick=183, channel=0, data=[64, 127]),
   midi.NoteOnEvent(tick=297, channel=0, data=[57, 0]),
   midi.NoteOnEvent(tick=0, channel=0, data=[54, 56]),
   midi.NoteOnEvent(tick=480, channel=0, data=[54, 0]),
   midi.NoteOnEvent(tick=0, channel=0, data=[49, 54]),
   midi.ControlChangeEvent(tick=4, channel=0, data=[64, 0]),
   midi.ControlChangeEvent(tick=179, channel=0, data=[64, 127]),
   midi.NoteOnEvent(tick=297, channel=0, data=[49, 0]),
   midi.NoteOnEvent(tick=0, channel=0, data=[44, 51]),
   midi.ControlChangeEvent(tick=12, channel=0, data=[64, 0]),
   midi.ControlChangeEvent(tick=240, channel=0, data=[64, 127]),
   midi.NoteOnEvent(tick=228, channel=0, data=[44, 0]),
   midi.NoteOnEvent(tick=0, channel=0, data=[45, 39]),
   midi.NoteOnEvent(tick=0, channel=0, data=[52, 46]),
   midi.ControlChangeEvent(tick=12, channel=0, data=[64, 0]),
   midi.ControlChangeEvent(tick=158, channel=0, data=[64, 127]),
   midi.NoteOnEvent(tick=310, channel=0, data=[52, 0]),
   midi.NoteOnEvent(tick=0, channel=0, data=[45, 0]),
   midi.NoteOnEvent(tick=0, channel=0, data=[42, 37]),
   midi.NoteOnEvent(tick=0, channel=0, data=[52, 44]),
   midi.NoteOnEvent(tick=480, channel=0, data=[52, 0]),
   midi.NoteOnEvent(tick=0, channel=0, data=[42, 0]),
   midi.NoteOnEvent(tick=0, channel=0, data=[52, 40]),
   midi.NoteOnEvent(tick=0, channel=0, data=[47, 34]),
   midi.ControlChangeEvent(tick=11, channel=0, data=[64, 0]),
   midi.ControlChangeEvent(tick=159, channel=0, data=[64, 127]),
   midi.NoteOnEvent(tick=310, channel=0, data=[52, 0]),
   midi.NoteOnEvent(tick=0, channel=0, data=[51, 31]),
   midi.NoteOnEvent(tick=480, channel=0, data=[51, 0]),
   midi.NoteOnEvent(tick=0, channel=0, data=[47, 0]),
   midi.NoteOnEvent(tick=0, channel=0, data=[47, 20]),
   midi.NoteOnEvent(tick=0, channel=0, data=[40, 20]),
   midi.NoteOnEvent(tick=0, channel=0, data=[52, 24]),
   midi.ControlChangeEvent(tick=8, channel=0, data=[64, 0]),
   midi.ControlChangeEvent(tick=552, channel=0, data=[64, 127]),
   midi.NoteOnEvent(tick=1360, channel=0, data=[52, 0]),
   midi.NoteOnEvent(tick=0, channel=0, data=[40, 0]),
   midi.NoteOnEvent(tick=0, channel=0, data=[47, 0]),
   midi.ControlChangeEvent(tick=1654, channel=0, data=[64, 0]),
   midi.EndOfTrackEvent(tick=0, data=[])]),
 midi.Track(\
  [midi.TrackNameEvent(tick=0, text='Grieg: Waechterlied in E-Dur, Op. 12 No. 3', data=[71, 114, 105, 101, 103, 58, 32, 87, 97, 101, 99, 104, 116, 101, 114, 108, 105, 101, 100, 32, 105, 110, 32, 69, 45, 68, 117, 114, 44, 32, 79, 112, 46, 32, 49, 50, 32, 78, 111, 46, 32, 51]),
   midi.EndOfTrackEvent(tick=0, data=[])]),
 midi.Track(\
  [midi.TrackNameEvent(tick=0, text='Copyright © 1997 by Bernd Krueger', data=[67, 111, 112, 121, 114, 105, 103, 104, 116, 32, 169, 32, 49, 57, 57, 55, 32, 98, 121, 32, 66, 101, 114, 110, 100, 32, 75, 114, 117, 101, 103, 101, 114]),
   midi.EndOfTrackEvent(tick=0, data=[])]),
 midi.Track(\
  [midi.TrackNameEvent(tick=0, text='http://www.piano-midi.de', data=[104, 116, 116, 112, 58, 47, 47, 119, 119, 119, 46, 112, 105, 97, 110, 111, 45, 109, 105, 100, 105, 46, 100, 101]),
   midi.EndOfTrackEvent(tick=0, data=[])]),
 midi.Track(\
  [midi.TrackNameEvent(tick=0, text='Edition: 2012-10-28', data=[69, 100, 105, 116, 105, 111, 110, 58, 32, 50, 48, 49, 50, 45, 49, 48, 45, 50, 56]),
   midi.EndOfTrackEvent(tick=0, data=[])])])
