midi.Pattern(format=1, resolution=480, tracks=\
[midi.Track(\
  [midi.TrackNameEvent(tick=0, text='Clementi: Sonatine Opus 36 Nr. 3, 2. Satz', data=[67, 108, 101, 109, 101, 110, 116, 105, 58, 32, 83, 111, 110, 97, 116, 105, 110, 101, 32, 79, 112, 117, 115, 32, 51, 54, 32, 78, 114, 46, 32, 51, 44, 32, 50, 46, 32, 83, 97, 116, 122]),
   midi.CopyrightMetaEvent(tick=0, text='Copyright © 2010 by Bernd Krueger', data=[67, 111, 112, 121, 114, 105, 103, 104, 116, 32, 169, 32, 50, 48, 49, 48, 32, 98, 121, 32, 66, 101, 114, 110, 100, 32, 75, 114, 117, 101, 103, 101, 114]),
   midi.TextMetaEvent(tick=0, text='Muzio Clementi', data=[77, 117, 122, 105, 111, 32, 67, 108, 101, 109, 101, 110, 116, 105]),
   midi.TextMetaEvent(tick=0, text='Un poco Adagio', data=[85, 110, 32, 112, 111, 99, 111, 32, 65, 100, 97, 103, 105, 111]),
   midi.TextMetaEvent(tick=0, text='Erstellt:  14.12.2010\n', data=[69, 114, 115, 116, 101, 108, 108, 116, 58, 32, 32, 49, 52, 46, 49, 50, 46, 50, 48, 49, 48, 10]),
   midi.TextMetaEvent(tick=0, text='Dauer: 1:28 Minuten \n', data=[68, 97, 117, 101, 114, 58, 32, 49, 58, 50, 56, 32, 77, 105, 110, 117, 116, 101, 110, 32, 10]),
   midi.TimeSignatureEvent(tick=0, data=[4, 2, 24, 8]),
   midi.KeySignatureEvent(tick=0, data=[1, 0]),
   midi.SetTempoEvent(tick=0, data=[10, 18, 171]),
   midi.MarkerEvent(tick=0, text='Teil 1', data=[84, 101, 105, 108, 32, 49]),
   midi.SetTempoEvent(tick=480, data=[10, 76, 176]),
   midi.SetTempoEvent(tick=480, data=[10, 32, 238]),
   midi.SetTempoEvent(tick=960, data=[10, 18, 171]),
   midi.SetTempoEvent(tick=480, data=[10, 91, 154]),
   midi.SetTempoEvent(tick=480, data=[10, 61, 240]),
   midi.SetTempoEvent(tick=720, data=[11, 46, 18]),
   midi.SetTempoEvent(tick=240, data=[10, 4, 143]),
   midi.SetTempoEvent(tick=480, data=[10, 47, 90]),
   midi.SetTempoEvent(tick=1440, data=[9, 205, 163]),
   midi.SetTempoEvent(tick=480, data=[10, 32, 238]),
   midi.SetTempoEvent(tick=480, data=[10, 47, 90]),
   midi.SetTempoEvent(tick=480, data=[10, 184, 194]),
   midi.SetTempoEvent(tick=480, data=[10, 47, 90]),
   midi.SetTempoEvent(tick=960, data=[9, 232, 205]),
   midi.SetTempoEvent(tick=840, data=[11, 11, 139]),
   midi.SetTempoEvent(tick=120, data=[10, 47, 90]),
   midi.SetTempoEvent(tick=480, data=[10, 233, 214]),
   midi.SetTempoEvent(tick=360, data=[10, 47, 90]),
   midi.SetTempoEvent(tick=600, data=[10, 4, 143]),
   midi.SetTempoEvent(tick=240, data=[10, 217, 73]),
   midi.SetTempoEvent(tick=240, data=[10, 76, 176]),
   midi.SetTempoEvent(tick=960, data=[10, 121, 241]),
   midi.SetTempoEvent(tick=480, data=[10, 217, 73]),
   midi.SetTempoEvent(tick=240, data=[12, 36, 214]),
   midi.SetTempoEvent(tick=240, data=[11, 193, 13]),
   midi.SetTempoEvent(tick=480, data=[12, 78, 160]),
   midi.SetTempoEvent(tick=1440, data=[10, 18, 171]),
   midi.MarkerEvent(tick=0, text='Teil 1 Wiederholung', data=[84, 101, 105, 108, 32, 49, 32, 87, 105, 101, 100, 101, 114, 104, 111, 108, 117, 110, 103]),
   midi.SetTempoEvent(tick=480, data=[10, 76, 176]),
   midi.SetTempoEvent(tick=480, data=[10, 18, 171]),
   midi.SetTempoEvent(tick=480, data=[10, 137, 96]),
   midi.SetTempoEvent(tick=480, data=[10, 91, 154]),
   midi.SetTempoEvent(tick=120, data=[10, 18, 171]),
   midi.SetTempoEvent(tick=360, data=[10, 106, 176]),
   midi.SetTempoEvent(tick=1200, data=[11, 46, 18]),
   midi.SetTempoEvent(tick=240, data=[10, 4, 143]),
   midi.SetTempoEvent(tick=480, data=[10, 47, 90]),
   midi.SetTempoEvent(tick=480, data=[10, 32, 238]),
   midi.SetTempoEvent(tick=600, data=[10, 47, 90]),
   midi.SetTempoEvent(tick=360, data=[9, 205, 163]),
   midi.SetTempoEvent(tick=480, data=[10, 32, 238]),
   midi.SetTempoEvent(tick=480, data=[10, 47, 90]),
   midi.SetTempoEvent(tick=480, data=[10, 184, 194]),
   midi.SetTempoEvent(tick=480, data=[10, 47, 90]),
   midi.SetTempoEvent(tick=960, data=[9, 219, 37]),
   midi.SetTempoEvent(tick=840, data=[11, 11, 139]),
   midi.SetTempoEvent(tick=120, data=[10, 47, 90]),
   midi.SetTempoEvent(tick=480, data=[10, 233, 214]),
   midi.SetTempoEvent(tick=360, data=[10, 47, 90]),
   midi.SetTempoEvent(tick=840, data=[10, 217, 73]),
   midi.SetTempoEvent(tick=240, data=[10, 76, 176]),
   midi.SetTempoEvent(tick=960, data=[10, 121, 241]),
   midi.SetTempoEvent(tick=480, data=[10, 217, 73]),
   midi.SetTempoEvent(tick=240, data=[12, 36, 214]),
   midi.SetTempoEvent(tick=240, data=[11, 193, 13]),
   midi.SetTempoEvent(tick=480, data=[12, 78, 160]),
   midi.SetTempoEvent(tick=1440, data=[9, 246, 155]),
   midi.MarkerEvent(tick=0, text='Teil 2', data=[84, 101, 105, 108, 32, 50]),
   midi.SetTempoEvent(tick=480, data=[10, 76, 176]),
   midi.SetTempoEvent(tick=480, data=[9, 232, 205]),
   midi.SetTempoEvent(tick=480, data=[10, 76, 176]),
   midi.SetTempoEvent(tick=480, data=[10, 47, 90]),
   midi.SetTempoEvent(tick=120, data=[9, 232, 205]),
   midi.SetTempoEvent(tick=360, data=[10, 47, 90]),
   midi.SetTempoEvent(tick=960, data=[10, 76, 176]),
   midi.SetTempoEvent(tick=240, data=[11, 28, 180]),
   midi.SetTempoEvent(tick=240, data=[9, 246, 155]),
   midi.SetTempoEvent(tick=480, data=[10, 61, 240]),
   midi.SetTempoEvent(tick=480, data=[10, 4, 143]),
   midi.SetTempoEvent(tick=480, data=[10, 47, 90]),
   midi.SetTempoEvent(tick=480, data=[9, 246, 155]),
   midi.SetTempoEvent(tick=480, data=[10, 32, 238]),
   midi.SetTempoEvent(tick=1200, data=[11, 46, 18]),
   midi.SetTempoEvent(tick=240, data=[10, 47, 90]),
   midi.SetTempoEvent(tick=960, data=[10, 4, 143]),
   midi.SetTempoEvent(tick=840, data=[11, 11, 139]),
   midi.SetTempoEvent(tick=120, data=[10, 47, 90]),
   midi.SetTempoEvent(tick=480, data=[10, 168, 200]),
   midi.SetTempoEvent(tick=360, data=[10, 47, 90]),
   midi.SetTempoEvent(tick=840, data=[10, 217, 73]),
   midi.SetTempoEvent(tick=240, data=[10, 76, 176]),
   midi.SetTempoEvent(tick=720, data=[12, 36, 214]),
   midi.SetTempoEvent(tick=30, data=[13, 74, 42]),
   midi.SetTempoEvent(tick=60, data=[16, 60, 82]),
   midi.SetTempoEvent(tick=30, data=[8, 218, 231]),
   midi.SetTempoEvent(tick=120, data=[10, 152, 253]),
   midi.SetTempoEvent(tick=480, data=[11, 11, 139]),
   midi.SetTempoEvent(tick=240, data=[12, 36, 214]),
   midi.SetTempoEvent(tick=240, data=[11, 193, 13]),
   midi.SetTempoEvent(tick=480, data=[12, 78, 160]),
   midi.SetTempoEvent(tick=1440, data=[9, 246, 155]),
   midi.MarkerEvent(tick=0, text='Teil 2 Wiederholung', data=[84, 101, 105, 108, 32, 50, 32, 87, 105, 101, 100, 101, 114, 104, 111, 108, 117, 110, 103]),
   midi.SetTempoEvent(tick=480, data=[10, 106, 176]),
   midi.SetTempoEvent(tick=480, data=[10, 18, 171]),
   midi.SetTempoEvent(tick=480, data=[10, 106, 176]),
   midi.SetTempoEvent(tick=480, data=[9, 219, 37]),
   midi.SetTempoEvent(tick=480, data=[10, 18, 171]),
   midi.SetTempoEvent(tick=960, data=[10, 200, 237]),
   midi.SetTempoEvent(tick=240, data=[11, 193, 13]),
   midi.SetTempoEvent(tick=120, data=[11, 232, 48]),
   midi.SetTempoEvent(tick=120, data=[9, 165, 247]),
   midi.SetTempoEvent(tick=480, data=[10, 61, 240]),
   midi.SetTempoEvent(tick=480, data=[9, 246, 155]),
   midi.SetTempoEvent(tick=480, data=[10, 18, 171]),
   midi.SetTempoEvent(tick=480, data=[9, 246, 155]),
   midi.SetTempoEvent(tick=480, data=[10, 76, 176]),
   midi.SetTempoEvent(tick=1200, data=[11, 46, 18]),
   midi.SetTempoEvent(tick=240, data=[10, 47, 90]),
   midi.SetTempoEvent(tick=960, data=[9, 232, 205]),
   midi.SetTempoEvent(tick=600, data=[10, 4, 143]),
   midi.SetTempoEvent(tick=240, data=[11, 11, 139]),
   midi.SetTempoEvent(tick=120, data=[10, 47, 90]),
   midi.SetTempoEvent(tick=480, data=[10, 168, 200]),
   midi.SetTempoEvent(tick=360, data=[10, 47, 90]),
   midi.SetTempoEvent(tick=840, data=[10, 217, 73]),
   midi.SetTempoEvent(tick=240, data=[10, 76, 176]),
   midi.SetTempoEvent(tick=720, data=[14, 84, 106]),
   midi.SetTempoEvent(tick=90, data=[17, 208, 182]),
   midi.SetTempoEvent(tick=30, data=[11, 81, 116]),
   midi.SetTempoEvent(tick=30, data=[9, 30, 165]),
   midi.SetTempoEvent(tick=90, data=[10, 152, 253]),
   midi.SetTempoEvent(tick=480, data=[11, 11, 139]),
   midi.SetTempoEvent(tick=240, data=[13, 1, 170]),
   midi.SetTempoEvent(tick=240, data=[13, 49, 166]),
   midi.SetTempoEvent(tick=480, data=[13, 49, 166]),
   midi.EndOfTrackEvent(tick=0, data=[])]),
 midi.Track(\
  [midi.TrackNameEvent(tick=0, text='Piano right', data=[80, 105, 97, 110, 111, 32, 114, 105, 103, 104, 116]),
   midi.ProgramChangeEvent(tick=0, channel=0, data=[0]),
   midi.NoteOnEvent(tick=0, channel=0, data=[67, 42]),
   midi.NoteOnEvent(tick=720, channel=0, data=[67, 0]),
   midi.NoteOnEvent(tick=0, channel=0, data=[66, 31]),
   midi.NoteOnEvent(tick=240, channel=0, data=[66, 0]),
   midi.NoteOnEvent(tick=0, channel=0, data=[67, 42]),
   midi.NoteOnEvent(tick=720, channel=0, data=[67, 0]),
   midi.NoteOnEvent(tick=0, channel=0, data=[69, 33]),
   midi.NoteOnEvent(tick=240, channel=0, data=[69, 0]),
   midi.NoteOnEvent(tick=0, channel=0, data=[71, 40]),
   midi.NoteOnEvent(tick=720, channel=0, data=[71, 0]),
   midi.NoteOnEvent(tick=0, channel=0, data=[69, 30]),
   midi.NoteOnEvent(tick=240, channel=0, data=[69, 0]),
   midi.NoteOnEvent(tick=0, channel=0, data=[67, 39]),
   midi.NoteOnEvent(tick=960, channel=0, data=[67, 0]),
   midi.NoteOnEvent(tick=0, channel=0, data=[74, 53]),
   midi.NoteOnEvent(tick=720, channel=0, data=[74, 0]),
   midi.NoteOnEvent(tick=0, channel=0, data=[76, 36]),
   midi.NoteOnEvent(tick=240, channel=0, data=[76, 0]),
   midi.NoteOnEvent(tick=0, channel=0, data=[74, 42]),
   midi.NoteOnEvent(tick=720, channel=0, data=[74, 0]),
   midi.NoteOnEvent(tick=0, channel=0, data=[72, 34]),
   midi.NoteOnEvent(tick=240, channel=0, data=[72, 0]),
   midi.NoteOnEvent(tick=0, channel=0, data=[71, 40]),
   midi.NoteOnEvent(tick=720, channel=0, data=[71, 0]),
   midi.NoteOnEvent(tick=0, channel=0, data=[72, 35]),
   midi.NoteOnEvent(tick=240, channel=0, data=[72, 0]),
   midi.NoteOnEvent(tick=0, channel=0, data=[74, 45]),
   midi.NoteOnEvent(tick=480, channel=0, data=[74, 0]),
   midi.NoteOnEvent(tick=480, channel=0, data=[79, 53]),
   midi.NoteOnEvent(tick=720, channel=0, data=[79, 0]),
   midi.NoteOnEvent(tick=0, channel=0, data=[78, 45]),
   midi.NoteOnEvent(tick=240, channel=0, data=[78, 0]),
   midi.NoteOnEvent(tick=0, channel=0, data=[79, 55]),
   midi.NoteOnEvent(tick=360, channel=0, data=[79, 0]),
   midi.NoteOnEvent(tick=0, channel=0, data=[78, 47]),
   midi.NoteOnEvent(tick=120, channel=0, data=[78, 0]),
   midi.NoteOnEvent(tick=0, channel=0, data=[79, 58]),
   midi.NoteOnEvent(tick=360, channel=0, data=[79, 0]),
   midi.NoteOnEvent(tick=0, channel=0, data=[78, 50]),
   midi.NoteOnEvent(tick=120, channel=0, data=[78, 0]),
   midi.NoteOnEvent(tick=0, channel=0, data=[79, 65]),
   midi.NoteOnEvent(tick=720, channel=0, data=[79, 0]),
   midi.NoteOnEvent(tick=0, channel=0, data=[81, 61]),
   midi.NoteOnEvent(tick=240, channel=0, data=[81, 0]),
   midi.NoteOnEvent(tick=0, channel=0, data=[83, 69]),
   midi.NoteOnEvent(tick=360, channel=0, data=[83, 0]),
   midi.NoteOnEvent(tick=0, channel=0, data=[81, 58]),
   midi.NoteOnEvent(tick=120, channel=0, data=[81, 0]),
   midi.NoteOnEvent(tick=0, channel=0, data=[79, 64]),
   midi.NoteOnEvent(tick=360, channel=0, data=[79, 0]),
   midi.NoteOnEvent(tick=0, channel=0, data=[78, 55]),
   midi.NoteOnEvent(tick=120, channel=0, data=[78, 0]),
   midi.NoteOnEvent(tick=0, channel=0, data=[76, 61]),
   midi.NoteOnEvent(tick=360, channel=0, data=[76, 0]),
   midi.NoteOnEvent(tick=0, channel=0, data=[74, 42]),
   midi.NoteOnEvent(tick=120, channel=0, data=[74, 0]),
   midi.NoteOnEvent(tick=0, channel=0, data=[72, 44]),
   midi.NoteOnEvent(tick=360, channel=0, data=[72, 0]),
   midi.NoteOnEvent(tick=0, channel=0, data=[71, 35]),
   midi.NoteOnEvent(tick=120, channel=0, data=[71, 0]),
   midi.NoteOnEvent(tick=0, channel=0, data=[69, 39]),
   midi.NoteOnEvent(tick=360, channel=0, data=[69, 0]),
   midi.NoteOnEvent(tick=0, channel=0, data=[67, 33]),
   midi.NoteOnEvent(tick=120, channel=0, data=[67, 0]),
   midi.NoteOnEvent(tick=0, channel=0, data=[66, 38]),
   midi.NoteOnEvent(tick=360, channel=0, data=[66, 0]),
   midi.NoteOnEvent(tick=0, channel=0, data=[67, 28]),
   midi.NoteOnEvent(tick=120, channel=0, data=[67, 0]),
   midi.NoteOnEvent(tick=0, channel=0, data=[71, 35]),
   midi.NoteOnEvent(tick=0, channel=0, data=[67, 29]),
   midi.NoteOnEvent(tick=960, channel=0, data=[67, 0]),
   midi.NoteOnEvent(tick=0, channel=0, data=[71, 0]),
   midi.NoteOnEvent(tick=0, channel=0, data=[69, 30]),
   midi.NoteOnEvent(tick=0, channel=0, data=[66, 25]),
   midi.NoteOnEvent(tick=480, channel=0, data=[66, 0]),
   midi.NoteOnEvent(tick=0, channel=0, data=[69, 0]),
   midi.NoteOnEvent(tick=480, channel=0, data=[67, 42]),
   midi.NoteOnEvent(tick=720, channel=0, data=[67, 0]),
   midi.NoteOnEvent(tick=0, channel=0, data=[66, 32]),
   midi.NoteOnEvent(tick=240, channel=0, data=[66, 0]),
   midi.NoteOnEvent(tick=0, channel=0, data=[67, 42]),
   midi.NoteOnEvent(tick=720, channel=0, data=[67, 0]),
   midi.NoteOnEvent(tick=0, channel=0, data=[69, 31]),
   midi.NoteOnEvent(tick=240, channel=0, data=[69, 0]),
   midi.NoteOnEvent(tick=0, channel=0, data=[71, 40]),
   midi.NoteOnEvent(tick=720, channel=0, data=[71, 0]),
   midi.NoteOnEvent(tick=0, channel=0, data=[69, 30]),
   midi.NoteOnEvent(tick=240, channel=0, data=[69, 0]),
   midi.NoteOnEvent(tick=0, channel=0, data=[67, 39]),
   midi.NoteOnEvent(tick=960, channel=0, data=[67, 0]),
   midi.NoteOnEvent(tick=0, channel=0, data=[74, 53]),
   midi.NoteOnEvent(tick=720, channel=0, data=[74, 0]),
   midi.NoteOnEvent(tick=0, channel=0, data=[76, 36]),
   midi.NoteOnEvent(tick=240, channel=0, data=[76, 0]),
   midi.NoteOnEvent(tick=0, channel=0, data=[74, 42]),
   midi.NoteOnEvent(tick=720, channel=0, data=[74, 0]),
   midi.NoteOnEvent(tick=0, channel=0, data=[72, 34]),
   midi.NoteOnEvent(tick=240, channel=0, data=[72, 0]),
   midi.NoteOnEvent(tick=0, channel=0, data=[71, 40]),
   midi.NoteOnEvent(tick=720, channel=0, data=[71, 0]),
   midi.NoteOnEvent(tick=0, channel=0, data=[72, 35]),
   midi.NoteOnEvent(tick=240, channel=0, data=[72, 0]),
   midi.NoteOnEvent(tick=0, channel=0, data=[74, 45]),
   midi.NoteOnEvent(tick=480, channel=0, data=[74, 0]),
   midi.NoteOnEvent(tick=480, channel=0, data=[79, 53]),
   midi.NoteOnEvent(tick=720, channel=0, data=[79, 0]),
   midi.NoteOnEvent(tick=0, channel=0, data=[78, 45]),
   midi.NoteOnEvent(tick=240, channel=0, data=[78, 0]),
   midi.NoteOnEvent(tick=0, channel=0, data=[79, 55]),
   midi.NoteOnEvent(tick=360, channel=0, data=[79, 0]),
   midi.NoteOnEvent(tick=0, channel=0, data=[78, 47]),
   midi.NoteOnEvent(tick=120, channel=0, data=[78, 0]),
   midi.NoteOnEvent(tick=0, channel=0, data=[79, 58]),
   midi.NoteOnEvent(tick=360, channel=0, data=[79, 0]),
   midi.NoteOnEvent(tick=0, channel=0, data=[78, 50]),
   midi.NoteOnEvent(tick=120, channel=0, data=[78, 0]),
   midi.NoteOnEvent(tick=0, channel=0, data=[79, 65]),
   midi.NoteOnEvent(tick=720, channel=0, data=[79, 0]),
   midi.NoteOnEvent(tick=0, channel=0, data=[81, 61]),
   midi.NoteOnEvent(tick=240, channel=0, data=[81, 0]),
   midi.NoteOnEvent(tick=0, channel=0, data=[83, 69]),
   midi.NoteOnEvent(tick=360, channel=0, data=[83, 0]),
   midi.NoteOnEvent(tick=0, channel=0, data=[81, 58]),
   midi.NoteOnEvent(tick=120, channel=0, data=[81, 0]),
   midi.NoteOnEvent(tick=0, channel=0, data=[79, 64]),
   midi.NoteOnEvent(tick=360, channel=0, data=[79, 0]),
   midi.NoteOnEvent(tick=0, channel=0, data=[78, 55]),
   midi.NoteOnEvent(tick=120, channel=0, data=[78, 0]),
   midi.NoteOnEvent(tick=0, channel=0, data=[76, 61]),
   midi.NoteOnEvent(tick=360, channel=0, data=[76, 0]),
   midi.NoteOnEvent(tick=0, channel=0, data=[74, 42]),
   midi.NoteOnEvent(tick=120, channel=0, data=[74, 0]),
   midi.NoteOnEvent(tick=0, channel=0, data=[72, 44]),
   midi.NoteOnEvent(tick=360, channel=0, data=[72, 0]),
   midi.NoteOnEvent(tick=0, channel=0, data=[71, 35]),
   midi.NoteOnEvent(tick=120, channel=0, data=[71, 0]),
   midi.NoteOnEvent(tick=0, channel=0, data=[69, 39]),
   midi.NoteOnEvent(tick=360, channel=0, data=[69, 0]),
   midi.NoteOnEvent(tick=0, channel=0, data=[67, 33]),
   midi.NoteOnEvent(tick=120, channel=0, data=[67, 0]),
   midi.NoteOnEvent(tick=0, channel=0, data=[66, 38]),
   midi.NoteOnEvent(tick=360, channel=0, data=[66, 0]),
   midi.NoteOnEvent(tick=0, channel=0, data=[67, 28]),
   midi.NoteOnEvent(tick=120, channel=0, data=[67, 0]),
   midi.NoteOnEvent(tick=0, channel=0, data=[71, 35]),
   midi.NoteOnEvent(tick=0, channel=0, data=[67, 29]),
   midi.NoteOnEvent(tick=960, channel=0, data=[67, 0]),
   midi.NoteOnEvent(tick=0, channel=0, data=[71, 0]),
   midi.NoteOnEvent(tick=0, channel=0, data=[69, 30]),
   midi.NoteOnEvent(tick=0, channel=0, data=[66, 25]),
   midi.NoteOnEvent(tick=480, channel=0, data=[66, 0]),
   midi.NoteOnEvent(tick=0, channel=0, data=[69, 0]),
   midi.NoteOnEvent(tick=480, channel=0, data=[72, 42]),
   midi.NoteOnEvent(tick=720, channel=0, data=[72, 0]),
   midi.NoteOnEvent(tick=0, channel=0, data=[74, 36]),
   midi.NoteOnEvent(tick=240, channel=0, data=[74, 0]),
   midi.NoteOnEvent(tick=0, channel=0, data=[72, 42]),
   midi.NoteOnEvent(tick=720, channel=0, data=[72, 0]),
   midi.NoteOnEvent(tick=0, channel=0, data=[71, 31]),
   midi.NoteOnEvent(tick=240, channel=0, data=[71, 0]),
   midi.NoteOnEvent(tick=0, channel=0, data=[69, 40]),
   midi.NoteOnEvent(tick=706, channel=0, data=[71, 30]),
   midi.NoteOnEvent(tick=14, channel=0, data=[69, 0]),
   midi.NoteOnEvent(tick=226, channel=0, data=[71, 0]),
   midi.NoteOnEvent(tick=14, channel=0, data=[72, 38]),
   midi.NoteOnEvent(tick=720, channel=0, data=[72, 0]),
   midi.NoteOnEvent(tick=0, channel=0, data=[73, 23]),
   midi.NoteOnEvent(tick=240, channel=0, data=[73, 0]),
   midi.NoteOnEvent(tick=0, channel=0, data=[74, 33]),
   midi.NoteOnEvent(tick=720, channel=0, data=[74, 0]),
   midi.NoteOnEvent(tick=0, channel=0, data=[76, 32]),
   midi.NoteOnEvent(tick=240, channel=0, data=[76, 0]),
   midi.NoteOnEvent(tick=0, channel=0, data=[74, 39]),
   midi.NoteOnEvent(tick=720, channel=0, data=[74, 0]),
   midi.NoteOnEvent(tick=0, channel=0, data=[72, 34]),
   midi.NoteOnEvent(tick=240, channel=0, data=[72, 0]),
   midi.NoteOnEvent(tick=0, channel=0, data=[71, 40]),
   midi.NoteOnEvent(tick=720, channel=0, data=[71, 0]),
   midi.NoteOnEvent(tick=0, channel=0, data=[72, 34]),
   midi.NoteOnEvent(tick=240, channel=0, data=[72, 0]),
   midi.NoteOnEvent(tick=0, channel=0, data=[74, 40]),
   midi.NoteOnEvent(tick=480, channel=0, data=[74, 0]),
   midi.NoteOnEvent(tick=480, channel=0, data=[79, 53]),
   midi.NoteOnEvent(tick=720, channel=0, data=[79, 0]),
   midi.NoteOnEvent(tick=0, channel=0, data=[78, 45]),
   midi.NoteOnEvent(tick=240, channel=0, data=[78, 0]),
   midi.NoteOnEvent(tick=0, channel=0, data=[79, 55]),
   midi.NoteOnEvent(tick=360, channel=0, data=[79, 0]),
   midi.NoteOnEvent(tick=0, channel=0, data=[81, 53]),
   midi.NoteOnEvent(tick=120, channel=0, data=[81, 0]),
   midi.NoteOnEvent(tick=0, channel=0, data=[83, 63]),
   midi.NoteOnEvent(tick=360, channel=0, data=[83, 0]),
   midi.NoteOnEvent(tick=0, channel=0, data=[84, 61]),
   midi.NoteOnEvent(tick=120, channel=0, data=[84, 0]),
   midi.NoteOnEvent(tick=0, channel=0, data=[86, 73]),
   midi.NoteOnEvent(tick=720, channel=0, data=[86, 0]),
   midi.NoteOnEvent(tick=0, channel=0, data=[84, 56]),
   midi.NoteOnEvent(tick=240, channel=0, data=[84, 0]),
   midi.NoteOnEvent(tick=0, channel=0, data=[83, 63]),
   midi.NoteOnEvent(tick=360, channel=0, data=[83, 0]),
   midi.NoteOnEvent(tick=0, channel=0, data=[81, 55]),
   midi.NoteOnEvent(tick=120, channel=0, data=[81, 0]),
   midi.NoteOnEvent(tick=0, channel=0, data=[79, 64]),
   midi.NoteOnEvent(tick=360, channel=0, data=[79, 0]),
   midi.NoteOnEvent(tick=0, channel=0, data=[78, 48]),
   midi.NoteOnEvent(tick=120, channel=0, data=[78, 0]),
   midi.NoteOnEvent(tick=0, channel=0, data=[76, 55]),
   midi.NoteOnEvent(tick=360, channel=0, data=[76, 0]),
   midi.NoteOnEvent(tick=0, channel=0, data=[74, 42]),
   midi.NoteOnEvent(tick=120, channel=0, data=[74, 0]),
   midi.NoteOnEvent(tick=0, channel=0, data=[72, 49]),
   midi.NoteOnEvent(tick=360, channel=0, data=[72, 0]),
   midi.NoteOnEvent(tick=0, channel=0, data=[71, 39]),
   midi.NoteOnEvent(tick=30, channel=0, data=[71, 0]),
   midi.NoteOnEvent(tick=30, channel=0, data=[71, 24]),
   midi.NoteOnEvent(tick=60, channel=0, data=[71, 0]),
   midi.NoteOnEvent(tick=0, channel=0, data=[69, 44]),
   midi.NoteOnEvent(tick=360, channel=0, data=[69, 0]),
   midi.NoteOnEvent(tick=0, channel=0, data=[67, 37]),
   midi.NoteOnEvent(tick=120, channel=0, data=[67, 0]),
   midi.NoteOnEvent(tick=0, channel=0, data=[69, 43]),
   midi.NoteOnEvent(tick=360, channel=0, data=[69, 0]),
   midi.NoteOnEvent(tick=0, channel=0, data=[71, 32]),
   midi.NoteOnEvent(tick=120, channel=0, data=[71, 0]),
   midi.NoteOnEvent(tick=0, channel=0, data=[69, 35]),
   midi.NoteOnEvent(tick=0, channel=0, data=[66, 29]),
   midi.NoteOnEvent(tick=960, channel=0, data=[66, 0]),
   midi.NoteOnEvent(tick=0, channel=0, data=[69, 0]),
   midi.NoteOnEvent(tick=0, channel=0, data=[67, 28]),
   midi.NoteOnEvent(tick=480, channel=0, data=[67, 0]),
   midi.NoteOnEvent(tick=480, channel=0, data=[72, 42]),
   midi.NoteOnEvent(tick=720, channel=0, data=[72, 0]),
   midi.NoteOnEvent(tick=0, channel=0, data=[74, 36]),
   midi.NoteOnEvent(tick=240, channel=0, data=[74, 0]),
   midi.NoteOnEvent(tick=0, channel=0, data=[72, 42]),
   midi.NoteOnEvent(tick=720, channel=0, data=[72, 0]),
   midi.NoteOnEvent(tick=0, channel=0, data=[71, 30]),
   midi.NoteOnEvent(tick=240, channel=0, data=[71, 0]),
   midi.NoteOnEvent(tick=0, channel=0, data=[69, 40]),
   midi.NoteOnEvent(tick=706, channel=0, data=[71, 30]),
   midi.NoteOnEvent(tick=14, channel=0, data=[69, 0]),
   midi.NoteOnEvent(tick=226, channel=0, data=[71, 0]),
   midi.NoteOnEvent(tick=14, channel=0, data=[72, 38]),
   midi.NoteOnEvent(tick=720, channel=0, data=[72, 0]),
   midi.NoteOnEvent(tick=0, channel=0, data=[73, 23]),
   midi.NoteOnEvent(tick=240, channel=0, data=[73, 0]),
   midi.NoteOnEvent(tick=0, channel=0, data=[74, 34]),
   midi.NoteOnEvent(tick=720, channel=0, data=[74, 0]),
   midi.NoteOnEvent(tick=0, channel=0, data=[76, 32]),
   midi.NoteOnEvent(tick=240, channel=0, data=[76, 0]),
   midi.NoteOnEvent(tick=0, channel=0, data=[74, 38]),
   midi.NoteOnEvent(tick=720, channel=0, data=[74, 0]),
   midi.NoteOnEvent(tick=0, channel=0, data=[72, 34]),
   midi.NoteOnEvent(tick=240, channel=0, data=[72, 0]),
   midi.NoteOnEvent(tick=0, channel=0, data=[71, 40]),
   midi.NoteOnEvent(tick=720, channel=0, data=[71, 0]),
   midi.NoteOnEvent(tick=0, channel=0, data=[72, 34]),
   midi.NoteOnEvent(tick=240, channel=0, data=[72, 0]),
   midi.NoteOnEvent(tick=0, channel=0, data=[74, 40]),
   midi.NoteOnEvent(tick=480, channel=0, data=[74, 0]),
   midi.NoteOnEvent(tick=480, channel=0, data=[79, 53]),
   midi.NoteOnEvent(tick=720, channel=0, data=[79, 0]),
   midi.NoteOnEvent(tick=0, channel=0, data=[78, 45]),
   midi.NoteOnEvent(tick=240, channel=0, data=[78, 0]),
   midi.NoteOnEvent(tick=0, channel=0, data=[79, 55]),
   midi.NoteOnEvent(tick=360, channel=0, data=[79, 0]),
   midi.NoteOnEvent(tick=0, channel=0, data=[81, 53]),
   midi.NoteOnEvent(tick=120, channel=0, data=[81, 0]),
   midi.NoteOnEvent(tick=0, channel=0, data=[83, 63]),
   midi.NoteOnEvent(tick=360, channel=0, data=[83, 0]),
   midi.NoteOnEvent(tick=0, channel=0, data=[84, 61]),
   midi.NoteOnEvent(tick=120, channel=0, data=[84, 0]),
   midi.NoteOnEvent(tick=0, channel=0, data=[86, 73]),
   midi.NoteOnEvent(tick=720, channel=0, data=[86, 0]),
   midi.NoteOnEvent(tick=0, channel=0, data=[84, 56]),
   midi.NoteOnEvent(tick=240, channel=0, data=[84, 0]),
   midi.NoteOnEvent(tick=0, channel=0, data=[83, 63]),
   midi.NoteOnEvent(tick=360, channel=0, data=[83, 0]),
   midi.NoteOnEvent(tick=0, channel=0, data=[81, 55]),
   midi.NoteOnEvent(tick=120, channel=0, data=[81, 0]),
   midi.NoteOnEvent(tick=0, channel=0, data=[79, 64]),
   midi.NoteOnEvent(tick=360, channel=0, data=[79, 0]),
   midi.NoteOnEvent(tick=0, channel=0, data=[78, 48]),
   midi.NoteOnEvent(tick=120, channel=0, data=[78, 0]),
   midi.NoteOnEvent(tick=0, channel=0, data=[76, 55]),
   midi.NoteOnEvent(tick=360, channel=0, data=[76, 0]),
   midi.NoteOnEvent(tick=0, channel=0, data=[74, 42]),
   midi.NoteOnEvent(tick=120, channel=0, data=[74, 0]),
   midi.NoteOnEvent(tick=0, channel=0, data=[72, 49]),
   midi.NoteOnEvent(tick=360, channel=0, data=[72, 0]),
   midi.NoteOnEvent(tick=0, channel=0, data=[71, 39]),
   midi.NoteOnEvent(tick=40, channel=0, data=[71, 0]),
   midi.NoteOnEvent(tick=50, channel=0, data=[71, 34]),
   midi.NoteOnEvent(tick=30, channel=0, data=[71, 0]),
   midi.NoteOnEvent(tick=0, channel=0, data=[69, 44]),
   midi.NoteOnEvent(tick=360, channel=0, data=[69, 0]),
   midi.NoteOnEvent(tick=0, channel=0, data=[67, 37]),
   midi.NoteOnEvent(tick=120, channel=0, data=[67, 0]),
   midi.NoteOnEvent(tick=0, channel=0, data=[69, 43]),
   midi.NoteOnEvent(tick=360, channel=0, data=[69, 0]),
   midi.NoteOnEvent(tick=0, channel=0, data=[71, 32]),
   midi.NoteOnEvent(tick=120, channel=0, data=[71, 0]),
   midi.NoteOnEvent(tick=0, channel=0, data=[69, 35]),
   midi.NoteOnEvent(tick=0, channel=0, data=[66, 29]),
   midi.NoteOnEvent(tick=960, channel=0, data=[66, 0]),
   midi.NoteOnEvent(tick=0, channel=0, data=[69, 0]),
   midi.NoteOnEvent(tick=0, channel=0, data=[67, 28]),
   midi.NoteOnEvent(tick=480, channel=0, data=[67, 0]),
   midi.EndOfTrackEvent(tick=0, data=[])]),
 midi.Track(\
  [midi.TrackNameEvent(tick=0, text='Piano left', data=[80, 105, 97, 110, 111, 32, 108, 101, 102, 116]),
   midi.ProgramChangeEvent(tick=0, channel=0, data=[0]),
   midi.NoteOnEvent(tick=0, channel=0, data=[55, 23]),
   midi.NoteOnEvent(tick=480, channel=0, data=[55, 0]),
   midi.NoteOnEvent(tick=0, channel=0, data=[62, 17]),
   midi.NoteOnEvent(tick=480, channel=0, data=[62, 0]),
   midi.NoteOnEvent(tick=0, channel=0, data=[59, 22]),
   midi.NoteOnEvent(tick=480, channel=0, data=[59, 0]),
   midi.NoteOnEvent(tick=0, channel=0, data=[62, 19]),
   midi.NoteOnEvent(tick=480, channel=0, data=[62, 0]),
   midi.NoteOnEvent(tick=0, channel=0, data=[55, 22]),
   midi.NoteOnEvent(tick=480, channel=0, data=[55, 0]),
   midi.NoteOnEvent(tick=0, channel=0, data=[62, 16]),
   midi.NoteOnEvent(tick=480, channel=0, data=[62, 0]),
   midi.NoteOnEvent(tick=0, channel=0, data=[59, 22]),
   midi.NoteOnEvent(tick=480, channel=0, data=[59, 0]),
   midi.NoteOnEvent(tick=0, channel=0, data=[62, 18]),
   midi.NoteOnEvent(tick=480, channel=0, data=[62, 0]),
   midi.NoteOnEvent(tick=0, channel=0, data=[54, 31]),
   midi.NoteOnEvent(tick=480, channel=0, data=[54, 0]),
   midi.NoteOnEvent(tick=0, channel=0, data=[62, 17]),
   midi.NoteOnEvent(tick=480, channel=0, data=[62, 0]),
   midi.NoteOnEvent(tick=0, channel=0, data=[57, 22]),
   midi.NoteOnEvent(tick=480, channel=0, data=[57, 0]),
   midi.NoteOnEvent(tick=0, channel=0, data=[62, 19]),
   midi.NoteOnEvent(tick=480, channel=0, data=[62, 0]),
   midi.NoteOnEvent(tick=0, channel=0, data=[55, 22]),
   midi.NoteOnEvent(tick=480, channel=0, data=[55, 0]),
   midi.NoteOnEvent(tick=0, channel=0, data=[62, 16]),
   midi.NoteOnEvent(tick=480, channel=0, data=[62, 0]),
   midi.NoteOnEvent(tick=0, channel=0, data=[59, 22]),
   midi.NoteOnEvent(tick=480, channel=0, data=[59, 0]),
   midi.NoteOnEvent(tick=0, channel=0, data=[62, 18]),
   midi.NoteOnEvent(tick=480, channel=0, data=[62, 0]),
   midi.NoteOnEvent(tick=0, channel=0, data=[64, 26]),
   midi.NoteOnEvent(tick=480, channel=0, data=[64, 0]),
   midi.NoteOnEvent(tick=0, channel=0, data=[67, 26]),
   midi.NoteOnEvent(tick=480, channel=0, data=[67, 0]),
   midi.NoteOnEvent(tick=0, channel=0, data=[62, 31]),
   midi.NoteOnEvent(tick=480, channel=0, data=[62, 0]),
   midi.NoteOnEvent(tick=0, channel=0, data=[60, 26]),
   midi.NoteOnEvent(tick=480, channel=0, data=[60, 0]),
   midi.NoteOnEvent(tick=0, channel=0, data=[59, 34]),
   midi.NoteOnEvent(tick=480, channel=0, data=[59, 0]),
   midi.NoteOnEvent(tick=0, channel=0, data=[62, 33]),
   midi.NoteOnEvent(tick=480, channel=0, data=[62, 0]),
   midi.NoteOnEvent(tick=0, channel=0, data=[67, 38]),
   midi.NoteOnEvent(tick=480, channel=0, data=[67, 0]),
   midi.NoteOnEvent(tick=480, channel=0, data=[60, 38]),
   midi.NoteOnEvent(tick=960, channel=0, data=[60, 0]),
   midi.NoteOnEvent(tick=0, channel=0, data=[61, 21]),
   midi.NoteOnEvent(tick=960, channel=0, data=[61, 0]),
   midi.NoteOnEvent(tick=0, channel=0, data=[62, 22]),
   midi.NoteOnEvent(tick=480, channel=0, data=[62, 0]),
   midi.NoteOnEvent(tick=0, channel=0, data=[50, 16]),
   midi.NoteOnEvent(tick=480, channel=0, data=[50, 0]),
   midi.NoteOnEvent(tick=0, channel=0, data=[62, 23]),
   midi.NoteOnEvent(tick=480, channel=0, data=[62, 0]),
   midi.NoteOnEvent(tick=480, channel=0, data=[55, 23]),
   midi.NoteOnEvent(tick=480, channel=0, data=[55, 0]),
   midi.NoteOnEvent(tick=0, channel=0, data=[62, 17]),
   midi.NoteOnEvent(tick=480, channel=0, data=[62, 0]),
   midi.NoteOnEvent(tick=0, channel=0, data=[59, 22]),
   midi.NoteOnEvent(tick=480, channel=0, data=[59, 0]),
   midi.NoteOnEvent(tick=0, channel=0, data=[62, 19]),
   midi.NoteOnEvent(tick=480, channel=0, data=[62, 0]),
   midi.NoteOnEvent(tick=0, channel=0, data=[55, 22]),
   midi.NoteOnEvent(tick=480, channel=0, data=[55, 0]),
   midi.NoteOnEvent(tick=0, channel=0, data=[62, 16]),
   midi.NoteOnEvent(tick=480, channel=0, data=[62, 0]),
   midi.NoteOnEvent(tick=0, channel=0, data=[59, 22]),
   midi.NoteOnEvent(tick=480, channel=0, data=[59, 0]),
   midi.NoteOnEvent(tick=0, channel=0, data=[62, 18]),
   midi.NoteOnEvent(tick=480, channel=0, data=[62, 0]),
   midi.NoteOnEvent(tick=0, channel=0, data=[54, 31]),
   midi.NoteOnEvent(tick=480, channel=0, data=[54, 0]),
   midi.NoteOnEvent(tick=0, channel=0, data=[62, 17]),
   midi.NoteOnEvent(tick=480, channel=0, data=[62, 0]),
   midi.NoteOnEvent(tick=0, channel=0, data=[57, 22]),
   midi.NoteOnEvent(tick=480, channel=0, data=[57, 0]),
   midi.NoteOnEvent(tick=0, channel=0, data=[62, 19]),
   midi.NoteOnEvent(tick=480, channel=0, data=[62, 0]),
   midi.NoteOnEvent(tick=0, channel=0, data=[55, 22]),
   midi.NoteOnEvent(tick=480, channel=0, data=[55, 0]),
   midi.NoteOnEvent(tick=0, channel=0, data=[62, 16]),
   midi.NoteOnEvent(tick=480, channel=0, data=[62, 0]),
   midi.NoteOnEvent(tick=0, channel=0, data=[59, 22]),
   midi.NoteOnEvent(tick=480, channel=0, data=[59, 0]),
   midi.NoteOnEvent(tick=0, channel=0, data=[62, 18]),
   midi.NoteOnEvent(tick=480, channel=0, data=[62, 0]),
   midi.NoteOnEvent(tick=0, channel=0, data=[64, 26]),
   midi.NoteOnEvent(tick=480, channel=0, data=[64, 0]),
   midi.NoteOnEvent(tick=0, channel=0, data=[67, 26]),
   midi.NoteOnEvent(tick=480, channel=0, data=[67, 0]),
   midi.NoteOnEvent(tick=0, channel=0, data=[62, 31]),
   midi.NoteOnEvent(tick=480, channel=0, data=[62, 0]),
   midi.NoteOnEvent(tick=0, channel=0, data=[60, 26]),
   midi.NoteOnEvent(tick=480, channel=0, data=[60, 0]),
   midi.NoteOnEvent(tick=0, channel=0, data=[59, 34]),
   midi.NoteOnEvent(tick=480, channel=0, data=[59, 0]),
   midi.NoteOnEvent(tick=0, channel=0, data=[62, 33]),
   midi.NoteOnEvent(tick=480, channel=0, data=[62, 0]),
   midi.NoteOnEvent(tick=0, channel=0, data=[67, 38]),
   midi.NoteOnEvent(tick=480, channel=0, data=[67, 0]),
   midi.NoteOnEvent(tick=480, channel=0, data=[60, 38]),
   midi.NoteOnEvent(tick=960, channel=0, data=[60, 0]),
   midi.NoteOnEvent(tick=0, channel=0, data=[61, 21]),
   midi.NoteOnEvent(tick=960, channel=0, data=[61, 0]),
   midi.NoteOnEvent(tick=0, channel=0, data=[62, 22]),
   midi.NoteOnEvent(tick=480, channel=0, data=[62, 0]),
   midi.NoteOnEvent(tick=0, channel=0, data=[50, 16]),
   midi.NoteOnEvent(tick=480, channel=0, data=[50, 0]),
   midi.NoteOnEvent(tick=0, channel=0, data=[62, 23]),
   midi.NoteOnEvent(tick=480, channel=0, data=[62, 0]),
   midi.NoteOnEvent(tick=480, channel=0, data=[69, 23]),
   midi.NoteOnEvent(tick=480, channel=0, data=[69, 0]),
   midi.NoteOnEvent(tick=0, channel=0, data=[62, 17]),
   midi.NoteOnEvent(tick=480, channel=0, data=[62, 0]),
   midi.NoteOnEvent(tick=0, channel=0, data=[69, 22]),
   midi.NoteOnEvent(tick=480, channel=0, data=[69, 0]),
   midi.NoteOnEvent(tick=0, channel=0, data=[67, 19]),
   midi.NoteOnEvent(tick=480, channel=0, data=[67, 0]),
   midi.NoteOnEvent(tick=0, channel=0, data=[66, 22]),
   midi.NoteOnEvent(tick=480, channel=0, data=[66, 0]),
   midi.NoteOnEvent(tick=0, channel=0, data=[62, 16]),
   midi.NoteOnEvent(tick=480, channel=0, data=[62, 0]),
   midi.NoteOnEvent(tick=0, channel=0, data=[69, 22]),
   midi.NoteOnEvent(tick=480, channel=0, data=[69, 0]),
   midi.NoteOnEvent(tick=0, channel=0, data=[62, 15]),
   midi.NoteOnEvent(tick=480, channel=0, data=[62, 0]),
   midi.NoteOnEvent(tick=0, channel=0, data=[71, 23]),
   midi.NoteOnEvent(tick=480, channel=0, data=[71, 0]),
   midi.NoteOnEvent(tick=0, channel=0, data=[62, 17]),
   midi.NoteOnEvent(tick=480, channel=0, data=[62, 0]),
   midi.NoteOnEvent(tick=0, channel=0, data=[71, 22]),
   midi.NoteOnEvent(tick=480, channel=0, data=[71, 0]),
   midi.NoteOnEvent(tick=0, channel=0, data=[69, 21]),
   midi.NoteOnEvent(tick=480, channel=0, data=[69, 0]),
   midi.NoteOnEvent(tick=0, channel=0, data=[67, 22]),
   midi.NoteOnEvent(tick=480, channel=0, data=[67, 0]),
   midi.NoteOnEvent(tick=0, channel=0, data=[62, 16]),
   midi.NoteOnEvent(tick=480, channel=0, data=[62, 0]),
   midi.NoteOnEvent(tick=0, channel=0, data=[71, 22]),
   midi.NoteOnEvent(tick=480, channel=0, data=[71, 0]),
   midi.NoteOnEvent(tick=0, channel=0, data=[62, 18]),
   midi.NoteOnEvent(tick=480, channel=0, data=[62, 0]),
   midi.NoteOnEvent(tick=0, channel=0, data=[64, 26]),
   midi.NoteOnEvent(tick=480, channel=0, data=[64, 0]),
   midi.NoteOnEvent(tick=0, channel=0, data=[67, 26]),
   midi.NoteOnEvent(tick=480, channel=0, data=[67, 0]),
   midi.NoteOnEvent(tick=0, channel=0, data=[62, 31]),
   midi.NoteOnEvent(tick=480, channel=0, data=[62, 0]),
   midi.NoteOnEvent(tick=0, channel=0, data=[60, 26]),
   midi.NoteOnEvent(tick=480, channel=0, data=[60, 0]),
   midi.NoteOnEvent(tick=0, channel=0, data=[59, 34]),
   midi.NoteOnEvent(tick=480, channel=0, data=[59, 0]),
   midi.NoteOnEvent(tick=0, channel=0, data=[62, 27]),
   midi.NoteOnEvent(tick=480, channel=0, data=[62, 0]),
   midi.NoteOnEvent(tick=0, channel=0, data=[67, 39]),
   midi.NoteOnEvent(tick=480, channel=0, data=[67, 0]),
   midi.NoteOnEvent(tick=480, channel=0, data=[48, 38]),
   midi.NoteOnEvent(tick=960, channel=0, data=[48, 0]),
   midi.NoteOnEvent(tick=0, channel=0, data=[50, 20]),
   midi.NoteOnEvent(tick=0, channel=0, data=[60, 24]),
   midi.NoteOnEvent(tick=480, channel=0, data=[60, 0]),
   midi.NoteOnEvent(tick=0, channel=0, data=[50, 0]),
   midi.NoteOnEvent(tick=0, channel=0, data=[50, 20]),
   midi.NoteOnEvent(tick=0, channel=0, data=[60, 24]),
   midi.NoteOnEvent(tick=480, channel=0, data=[60, 0]),
   midi.NoteOnEvent(tick=0, channel=0, data=[50, 0]),
   midi.NoteOnEvent(tick=0, channel=0, data=[55, 16]),
   midi.NoteOnEvent(tick=0, channel=0, data=[60, 22]),
   midi.NoteOnEvent(tick=960, channel=0, data=[60, 0]),
   midi.NoteOnEvent(tick=0, channel=0, data=[55, 0]),
   midi.NoteOnEvent(tick=0, channel=0, data=[55, 20]),
   midi.NoteOnEvent(tick=0, channel=0, data=[59, 22]),
   midi.NoteOnEvent(tick=480, channel=0, data=[59, 0]),
   midi.NoteOnEvent(tick=0, channel=0, data=[55, 0]),
   midi.NoteOnEvent(tick=480, channel=0, data=[69, 23]),
   midi.NoteOnEvent(tick=480, channel=0, data=[69, 0]),
   midi.NoteOnEvent(tick=0, channel=0, data=[62, 17]),
   midi.NoteOnEvent(tick=480, channel=0, data=[62, 0]),
   midi.NoteOnEvent(tick=0, channel=0, data=[69, 22]),
   midi.NoteOnEvent(tick=480, channel=0, data=[69, 0]),
   midi.NoteOnEvent(tick=0, channel=0, data=[67, 19]),
   midi.NoteOnEvent(tick=480, channel=0, data=[67, 0]),
   midi.NoteOnEvent(tick=0, channel=0, data=[66, 22]),
   midi.NoteOnEvent(tick=480, channel=0, data=[66, 0]),
   midi.NoteOnEvent(tick=0, channel=0, data=[62, 16]),
   midi.NoteOnEvent(tick=480, channel=0, data=[62, 0]),
   midi.NoteOnEvent(tick=0, channel=0, data=[69, 22]),
   midi.NoteOnEvent(tick=480, channel=0, data=[69, 0]),
   midi.NoteOnEvent(tick=0, channel=0, data=[62, 15]),
   midi.NoteOnEvent(tick=480, channel=0, data=[62, 0]),
   midi.NoteOnEvent(tick=0, channel=0, data=[71, 23]),
   midi.NoteOnEvent(tick=480, channel=0, data=[71, 0]),
   midi.NoteOnEvent(tick=0, channel=0, data=[62, 17]),
   midi.NoteOnEvent(tick=480, channel=0, data=[62, 0]),
   midi.NoteOnEvent(tick=0, channel=0, data=[71, 22]),
   midi.NoteOnEvent(tick=480, channel=0, data=[71, 0]),
   midi.NoteOnEvent(tick=0, channel=0, data=[69, 17]),
   midi.NoteOnEvent(tick=480, channel=0, data=[69, 0]),
   midi.NoteOnEvent(tick=0, channel=0, data=[67, 22]),
   midi.NoteOnEvent(tick=480, channel=0, data=[67, 0]),
   midi.NoteOnEvent(tick=0, channel=0, data=[62, 16]),
   midi.NoteOnEvent(tick=480, channel=0, data=[62, 0]),
   midi.NoteOnEvent(tick=0, channel=0, data=[71, 22]),
   midi.NoteOnEvent(tick=480, channel=0, data=[71, 0]),
   midi.NoteOnEvent(tick=0, channel=0, data=[62, 18]),
   midi.NoteOnEvent(tick=480, channel=0, data=[62, 0]),
   midi.NoteOnEvent(tick=0, channel=0, data=[64, 26]),
   midi.NoteOnEvent(tick=480, channel=0, data=[64, 0]),
   midi.NoteOnEvent(tick=0, channel=0, data=[67, 26]),
   midi.NoteOnEvent(tick=480, channel=0, data=[67, 0]),
   midi.NoteOnEvent(tick=0, channel=0, data=[62, 31]),
   midi.NoteOnEvent(tick=480, channel=0, data=[62, 0]),
   midi.NoteOnEvent(tick=0, channel=0, data=[60, 26]),
   midi.NoteOnEvent(tick=480, channel=0, data=[60, 0]),
   midi.NoteOnEvent(tick=0, channel=0, data=[59, 34]),
   midi.NoteOnEvent(tick=480, channel=0, data=[59, 0]),
   midi.NoteOnEvent(tick=0, channel=0, data=[62, 27]),
   midi.NoteOnEvent(tick=480, channel=0, data=[62, 0]),
   midi.NoteOnEvent(tick=0, channel=0, data=[67, 39]),
   midi.NoteOnEvent(tick=480, channel=0, data=[67, 0]),
   midi.NoteOnEvent(tick=480, channel=0, data=[48, 38]),
   midi.NoteOnEvent(tick=960, channel=0, data=[48, 0]),
   midi.NoteOnEvent(tick=0, channel=0, data=[50, 20]),
   midi.NoteOnEvent(tick=0, channel=0, data=[60, 24]),
   midi.NoteOnEvent(tick=480, channel=0, data=[60, 0]),
   midi.NoteOnEvent(tick=0, channel=0, data=[50, 0]),
   midi.NoteOnEvent(tick=0, channel=0, data=[50, 20]),
   midi.NoteOnEvent(tick=0, channel=0, data=[60, 24]),
   midi.NoteOnEvent(tick=480, channel=0, data=[60, 0]),
   midi.NoteOnEvent(tick=0, channel=0, data=[50, 0]),
   midi.NoteOnEvent(tick=0, channel=0, data=[55, 16]),
   midi.NoteOnEvent(tick=0, channel=0, data=[60, 22]),
   midi.NoteOnEvent(tick=960, channel=0, data=[60, 0]),
   midi.NoteOnEvent(tick=0, channel=0, data=[55, 0]),
   midi.NoteOnEvent(tick=0, channel=0, data=[55, 20]),
   midi.NoteOnEvent(tick=0, channel=0, data=[59, 22]),
   midi.NoteOnEvent(tick=480, channel=0, data=[59, 0]),
   midi.NoteOnEvent(tick=0, channel=0, data=[55, 0]),
   midi.EndOfTrackEvent(tick=0, data=[])]),
 midi.Track(\
  [midi.TrackNameEvent(tick=0, text='Pedale', data=[80, 101, 100, 97, 108, 101]),
   midi.ProgramChangeEvent(tick=0, channel=0, data=[0]),
   midi.ControlChangeEvent(tick=3106, channel=0, data=[64, 127]),
   midi.ControlChangeEvent(tick=739, channel=0, data=[64, 0]),
   midi.ControlChangeEvent(tick=9729, channel=0, data=[64, 127]),
   midi.ControlChangeEvent(tick=840, channel=0, data=[64, 0]),
   midi.ControlChangeEvent(tick=4052, channel=0, data=[64, 127]),
   midi.ControlChangeEvent(tick=739, channel=0, data=[64, 0]),
   midi.ControlChangeEvent(tick=9729, channel=0, data=[64, 127]),
   midi.ControlChangeEvent(tick=840, channel=0, data=[64, 0]),
   midi.ControlChangeEvent(tick=14520, channel=0, data=[64, 127]),
   midi.ControlChangeEvent(tick=840, channel=0, data=[64, 0]),
   midi.ControlChangeEvent(tick=14520, channel=0, data=[64, 127]),
   midi.ControlChangeEvent(tick=840, channel=0, data=[64, 0]),
   midi.EndOfTrackEvent(tick=0, data=[])]),
 midi.Track(\
  [midi.TrackNameEvent(tick=0, text='Clementi: Sonatatina Opus 26, No. 3, 2. movement', data=[67, 108, 101, 109, 101, 110, 116, 105, 58, 32, 83, 111, 110, 97, 116, 97, 116, 105, 110, 97, 32, 79, 112, 117, 115, 32, 50, 54, 44, 32, 78, 111, 46, 32, 51, 44, 32, 50, 46, 32, 109, 111, 118, 101, 109, 101, 110, 116]),
   midi.EndOfTrackEvent(tick=0, data=[])]),
 midi.Track(\
  [midi.TrackNameEvent(tick=0, text='Copyright © 2010 by Bernd Krueger', data=[67, 111, 112, 121, 114, 105, 103, 104, 116, 32, 169, 32, 50, 48, 49, 48, 32, 98, 121, 32, 66, 101, 114, 110, 100, 32, 75, 114, 117, 101, 103, 101, 114]),
   midi.EndOfTrackEvent(tick=0, data=[])]),
 midi.Track(\
  [midi.TrackNameEvent(tick=0, text='http://www.piano-midi.de/', data=[104, 116, 116, 112, 58, 47, 47, 119, 119, 119, 46, 112, 105, 97, 110, 111, 45, 109, 105, 100, 105, 46, 100, 101, 47]),
   midi.EndOfTrackEvent(tick=0, data=[])]),
 midi.Track(\
  [midi.TrackNameEvent(tick=0, text='Edition: 2010-12-14', data=[69, 100, 105, 116, 105, 111, 110, 58, 32, 50, 48, 49, 48, 45, 49, 50, 45, 49, 52]),
   midi.EndOfTrackEvent(tick=0, data=[])]),
 midi.Track(\
  [midi.TrackNameEvent(tick=0, text='Spur 8', data=[83, 112, 117, 114, 32, 56]),
   midi.EndOfTrackEvent(tick=0, data=[])]),
 midi.Track(\
  [midi.TrackNameEvent(tick=0, text='Spur 9', data=[83, 112, 117, 114, 32, 57]),
   midi.EndOfTrackEvent(tick=0, data=[])]),
 midi.Track(\
  [midi.TrackNameEvent(tick=0, text='Spur 10', data=[83, 112, 117, 114, 32, 49, 48]),
   midi.EndOfTrackEvent(tick=0, data=[])]),
 midi.Track(\
  [midi.TrackNameEvent(tick=0, text='Spur 11', data=[83, 112, 117, 114, 32, 49, 49]),
   midi.EndOfTrackEvent(tick=0, data=[])]),
 midi.Track(\
  [midi.TrackNameEvent(tick=0, text='Spur 12', data=[83, 112, 117, 114, 32, 49, 50]),
   midi.EndOfTrackEvent(tick=0, data=[])]),
 midi.Track(\
  [midi.TrackNameEvent(tick=0, text='Spur 13', data=[83, 112, 117, 114, 32, 49, 51]),
   midi.EndOfTrackEvent(tick=0, data=[])]),
 midi.Track(\
  [midi.TrackNameEvent(tick=0, text='Spur 14', data=[83, 112, 117, 114, 32, 49, 52]),
   midi.EndOfTrackEvent(tick=0, data=[])]),
 midi.Track(\
  [midi.TrackNameEvent(tick=0, text='Spur 15', data=[83, 112, 117, 114, 32, 49, 53]),
   midi.EndOfTrackEvent(tick=0, data=[])]),
 midi.Track(\
  [midi.TrackNameEvent(tick=0, text='Spur 16', data=[83, 112, 117, 114, 32, 49, 54]),
   midi.EndOfTrackEvent(tick=0, data=[])])])
