import midi
pattern=midi.Pattern(format=1, resolution=480, tracks=\
[midi.Track(\
[   midi.NoteOnEvent(tick=720, channel=0, data=[74, 46]),
   midi.NoteOnEvent(tick=240, channel=0, data=[74, 0]),
   midi.NoteOnEvent(tick=0, channel=0, data=[74, 50]),
   midi.NoteOnEvent(tick=240, channel=0, data=[74, 0]),
   midi.NoteOnEvent(tick=0, channel=0, data=[71, 45]),
   midi.NoteOnEvent(tick=240, channel=0, data=[71, 0]),
   midi.NoteOnEvent(tick=0, channel=0, data=[71, 49]),
   midi.NoteOnEvent(tick=240, channel=0, data=[71, 0]),
   midi.NoteOnEvent(tick=0, channel=0, data=[79, 62]),
   midi.NoteOnEvent(tick=240, channel=0, data=[79, 0]),
   midi.NoteOnEvent(tick=0, channel=0, data=[79, 69]),
   midi.NoteOnEvent(tick=720, channel=0, data=[79, 0]),
   midi.NoteOnEvent(tick=0, channel=0, data=[78, 49]),
   midi.NoteOnEvent(tick=120, channel=0, data=[78, 0]),
   midi.NoteOnEvent(tick=0, channel=0, data=[76, 45]),
   midi.NoteOnEvent(tick=120, channel=0, data=[76, 0]),
   midi.NoteOnEvent(tick=0, channel=0, data=[74, 50]),
   midi.NoteOnEvent(tick=120, channel=0, data=[74, 0]),
   midi.NoteOnEvent(tick=120, channel=0, data=[74, 45]),
   midi.NoteOnEvent(tick=120, channel=0, data=[74, 0]),
   midi.NoteOnEvent(tick=120, channel=0, data=[74, 50]),
   midi.NoteOnEvent(tick=120, channel=0, data=[76, 43]),
   midi.NoteOnEvent(tick=12, channel=0, data=[74, 0]),
   midi.NoteOnEvent(tick=108, channel=0, data=[74, 43]),
   midi.NoteOnEvent(tick=12, channel=0, data=[76, 0]),
   midi.NoteOnEvent(tick=108, channel=0, data=[72, 43]),
   midi.NoteOnEvent(tick=12, channel=0, data=[74, 0]),
   midi.NoteOnEvent(tick=108, channel=0, data=[71, 53]),
   midi.NoteOnEvent(tick=12, channel=0, data=[72, 0]),
   midi.NoteOnEvent(tick=228, channel=0, data=[71, 0]),
   midi.NoteOnEvent(tick=0, channel=0, data=[74, 46]),
   midi.NoteOnEvent(tick=120, channel=0, data=[74, 0]),
   midi.NoteOnEvent(tick=360, channel=0, data=[79, 46]),
   midi.NoteOnEvent(tick=240, channel=0, data=[79, 0]),
   midi.NoteOnEvent(tick=0, channel=0, data=[79, 53]),
   midi.NoteOnEvent(tick=240, channel=0, data=[79, 0]),
   midi.NoteOnEvent(tick=0, channel=0, data=[74, 49]),
   midi.NoteOnEvent(tick=240, channel=0, data=[74, 0]),
   midi.NoteOnEvent(tick=0, channel=0, data=[74, 58]),
   midi.NoteOnEvent(tick=240, channel=0, data=[74, 0]),
   midi.NoteOnEvent(tick=0, channel=0, data=[83, 62]),
   midi.NoteOnEvent(tick=240, channel=0, data=[83, 0]),
   midi.NoteOnEvent(tick=0, channel=0, data=[83, 69]),
   midi.NoteOnEvent(tick=720, channel=0, data=[83, 0]),
   midi.NoteOnEvent(tick=0, channel=0, data=[79, 49]),
   midi.NoteOnEvent(tick=120, channel=0, data=[79, 0]),
   midi.NoteOnEvent(tick=0, channel=0, data=[76, 45]),
   midi.NoteOnEvent(tick=120, channel=0, data=[76, 0]),
   midi.NoteOnEvent(tick=0, channel=0, data=[74, 50]),
   midi.NoteOnEvent(tick=120, channel=0, data=[74, 0]),
   midi.NoteOnEvent(tick=120, channel=0, data=[74, 45]),
   midi.NoteOnEvent(tick=120, channel=0, data=[74, 0]),
   midi.NoteOnEvent(tick=120, channel=0, data=[74, 50]),
   midi.NoteOnEvent(tick=120, channel=0, data=[73, 43]),
   midi.NoteOnEvent(tick=12, channel=0, data=[74, 0]),
   midi.NoteOnEvent(tick=108, channel=0, data=[71, 43]),
   midi.NoteOnEvent(tick=12, channel=0, data=[73, 0]),
   midi.NoteOnEvent(tick=108, channel=0, data=[73, 43]),
   midi.NoteOnEvent(tick=12, channel=0, data=[71, 0]),
   midi.NoteOnEvent(tick=108, channel=0, data=[74, 53]),
   midi.NoteOnEvent(tick=12, channel=0, data=[73, 0]),
   midi.NoteOnEvent(tick=468, channel=0, data=[74, 0]),
   midi.NoteOnEvent(tick=240, channel=0, data=[81, 50]),
   midi.NoteOnEvent(tick=120, channel=0, data=[79, 46]),
   midi.NoteOnEvent(tick=12, channel=0, data=[81, 0]),
   midi.NoteOnEvent(tick=108, channel=0, data=[78, 50]),
   midi.NoteOnEvent(tick=12, channel=0, data=[79, 0]),
   midi.NoteOnEvent(tick=108, channel=0, data=[76, 45]),
   midi.NoteOnEvent(tick=12, channel=0, data=[78, 0]),
   midi.NoteOnEvent(tick=108, channel=0, data=[74, 45]),
   midi.NoteOnEvent(tick=12, channel=0, data=[76, 0]),
   midi.NoteOnEvent(tick=108, channel=0, data=[73, 45]),
   midi.NoteOnEvent(tick=12, channel=0, data=[74, 0]),
   midi.NoteOnEvent(tick=108, channel=0, data=[71, 50]),
   midi.NoteOnEvent(tick=12, channel=0, data=[73, 0]),
   midi.NoteOnEvent(tick=108, channel=0, data=[73, 46]),
   midi.NoteOnEvent(tick=12, channel=0, data=[71, 0]),
   midi.NoteOnEvent(tick=108, channel=0, data=[74, 46]),
   midi.NoteOnEvent(tick=12, channel=0, data=[73, 0]),
   midi.NoteOnEvent(tick=108, channel=0, data=[71, 46]),
   midi.NoteOnEvent(tick=12, channel=0, data=[74, 0]),
   midi.NoteOnEvent(tick=108, channel=0, data=[69, 50]),
   midi.NoteOnEvent(tick=12, channel=0, data=[71, 0]),
   midi.NoteOnEvent(tick=228, channel=0, data=[69, 0]),
   midi.NoteOnEvent(tick=480, channel=0, data=[81, 50]),
   midi.NoteOnEvent(tick=120, channel=0, data=[79, 46]),
   midi.NoteOnEvent(tick=12, channel=0, data=[81, 0]),
   midi.NoteOnEvent(tick=108, channel=0, data=[78, 50]),
   midi.NoteOnEvent(tick=12, channel=0, data=[79, 0]),
   midi.NoteOnEvent(tick=108, channel=0, data=[76, 45]),
   midi.NoteOnEvent(tick=12, channel=0, data=[78, 0]),
   midi.NoteOnEvent(tick=108, channel=0, data=[74, 45]),
   midi.NoteOnEvent(tick=12, channel=0, data=[76, 0]),
   midi.NoteOnEvent(tick=108, channel=0, data=[73, 45]),
   midi.NoteOnEvent(tick=12, channel=0, data=[74, 0]),
   midi.NoteOnEvent(tick=108, channel=0, data=[71, 50]),
   midi.NoteOnEvent(tick=12, channel=0, data=[73, 0]),
   midi.NoteOnEvent(tick=108, channel=0, data=[73, 48]),
   midi.NoteOnEvent(tick=12, channel=0, data=[71, 0]),
   midi.NoteOnEvent(tick=108, channel=0, data=[74, 50]),
   midi.NoteOnEvent(tick=12, channel=0, data=[73, 0]),
   midi.NoteOnEvent(tick=108, channel=0, data=[71, 55]),
   midi.NoteOnEvent(tick=12, channel=0, data=[74, 0]),
   midi.NoteOnEvent(tick=108, channel=0, data=[69, 60]),
   midi.NoteOnEvent(tick=12, channel=0, data=[71, 0]),
   midi.NoteOnEvent(tick=228, channel=0, data=[69, 0]),
   midi.NoteOnEvent(tick=240, channel=0, data=[86, 62]),
   midi.NoteOnEvent(tick=120, channel=0, data=[86, 0]),
   midi.NoteOnEvent(tick=0, channel=0, data=[81, 53]),
   midi.NoteOnEvent(tick=120, channel=0, data=[81, 0]),
   midi.NoteOnEvent(tick=0, channel=0, data=[78, 56]),
   midi.NoteOnEvent(tick=120, channel=0, data=[78, 0]),
   midi.NoteOnEvent(tick=0, channel=0, data=[74, 54]),
   midi.NoteOnEvent(tick=120, channel=0, data=[74, 0]),
   midi.NoteOnEvent(tick=0, channel=0, data=[76, 62]),
   midi.NoteOnEvent(tick=120, channel=0, data=[76, 0]),
   midi.NoteOnEvent(tick=120, channel=0, data=[76, 58]),
   midi.NoteOnEvent(tick=120, channel=0, data=[76, 0]),
   midi.NoteOnEvent(tick=120, channel=0, data=[73, 52]),
   midi.NoteOnEvent(tick=0, channel=0, data=[81, 62]),
   midi.NoteOnEvent(tick=120, channel=0, data=[81, 0]),
   midi.NoteOnEvent(tick=0, channel=0, data=[73, 0]),
   midi.NoteOnEvent(tick=120, channel=0, data=[81, 57]),
   midi.NoteOnEvent(tick=0, channel=0, data=[73, 48]),
   midi.NoteOnEvent(tick=120, channel=0, data=[73, 0]),
   midi.NoteOnEvent(tick=0, channel=0, data=[81, 0]),
   midi.NoteOnEvent(tick=120, channel=0, data=[76, 52]),
   midi.NoteOnEvent(tick=0, channel=0, data=[79, 62]),
   midi.NoteOnEvent(tick=480, channel=0, data=[79, 0]),
   midi.NoteOnEvent(tick=0, channel=0, data=[76, 0]),
   midi.NoteOnEvent(tick=0, channel=0, data=[78, 59]),
   midi.NoteOnEvent(tick=0, channel=0, data=[74, 50]),
   midi.NoteOnEvent(tick=240, channel=0, data=[74, 0]),
   midi.NoteOnEvent(tick=0, channel=0, data=[78, 0]),
   midi.NoteOnEvent(tick=0, channel=0, data=[81, 50]),
   midi.NoteOnEvent(tick=120, channel=0, data=[79, 46]),
   midi.NoteOnEvent(tick=12, channel=0, data=[81, 0]),
   midi.NoteOnEvent(tick=108, channel=0, data=[78, 50]),
   midi.NoteOnEvent(tick=12, channel=0, data=[79, 0]),
   midi.NoteOnEvent(tick=108, channel=0, data=[76, 45]),
   midi.NoteOnEvent(tick=12, channel=0, data=[78, 0]),
   midi.NoteOnEvent(tick=108, channel=0, data=[74, 45]),
   midi.NoteOnEvent(tick=12, channel=0, data=[76, 0]),
   midi.NoteOnEvent(tick=108, channel=0, data=[73, 45]),
   midi.NoteOnEvent(tick=12, channel=0, data=[74, 0]),
   midi.NoteOnEvent(tick=108, channel=0, data=[71, 50]),
   midi.NoteOnEvent(tick=12, channel=0, data=[73, 0]),
   midi.NoteOnEvent(tick=108, channel=0, data=[73, 46]),
   midi.NoteOnEvent(tick=12, channel=0, data=[71, 0]),
   midi.NoteOnEvent(tick=108, channel=0, data=[74, 46]),
   midi.NoteOnEvent(tick=12, channel=0, data=[73, 0]),
   midi.NoteOnEvent(tick=108, channel=0, data=[71, 46]),
   midi.NoteOnEvent(tick=12, channel=0, data=[74, 0]),
   midi.NoteOnEvent(tick=108, channel=0, data=[69, 50]),
   midi.NoteOnEvent(tick=12, channel=0, data=[71, 0]),
   midi.NoteOnEvent(tick=108, channel=0, data=[67, 46]),
   midi.NoteOnEvent(tick=12, channel=0, data=[69, 0]),
   midi.NoteOnEvent(tick=108, channel=0, data=[66, 46]),
   midi.NoteOnEvent(tick=12, channel=0, data=[67, 0]),
   midi.NoteOnEvent(tick=108, channel=0, data=[67, 46]),
   midi.NoteOnEvent(tick=12, channel=0, data=[66, 0]),
   midi.NoteOnEvent(tick=108, channel=0, data=[69, 50]),
   midi.NoteOnEvent(tick=12, channel=0, data=[67, 0]),
   midi.NoteOnEvent(tick=108, channel=0, data=[69, 0]),
   midi.NoteOnEvent(tick=120, channel=0, data=[81, 50]),
   midi.NoteOnEvent(tick=120, channel=0, data=[79, 46]),
   midi.NoteOnEvent(tick=12, channel=0, data=[81, 0]),
   midi.NoteOnEvent(tick=108, channel=0, data=[78, 50]),
   midi.NoteOnEvent(tick=12, channel=0, data=[79, 0]),
   midi.NoteOnEvent(tick=108, channel=0, data=[76, 45]),
   midi.NoteOnEvent(tick=12, channel=0, data=[78, 0]),
   midi.NoteOnEvent(tick=108, channel=0, data=[74, 45]),
   midi.NoteOnEvent(tick=12, channel=0, data=[76, 0]),
   midi.NoteOnEvent(tick=108, channel=0, data=[73, 45]),
   midi.NoteOnEvent(tick=12, channel=0, data=[74, 0]),
   midi.NoteOnEvent(tick=108, channel=0, data=[71, 50]),
   midi.NoteOnEvent(tick=12, channel=0, data=[73, 0]),
   midi.NoteOnEvent(tick=108, channel=0, data=[73, 48]),
   midi.NoteOnEvent(tick=12, channel=0, data=[71, 0]),
   midi.NoteOnEvent(tick=108, channel=0, data=[74, 50]),
   midi.NoteOnEvent(tick=12, channel=0, data=[73, 0]),
   midi.NoteOnEvent(tick=108, channel=0, data=[71, 55]),
   midi.NoteOnEvent(tick=12, channel=0, data=[74, 0]),
   midi.NoteOnEvent(tick=108, channel=0, data=[69, 60]),
   midi.NoteOnEvent(tick=12, channel=0, data=[71, 0]),
   midi.NoteOnEvent(tick=228, channel=0, data=[69, 0]),
   midi.NoteOnEvent(tick=240, channel=0, data=[74, 62]),
   midi.NoteOnEvent(tick=120, channel=0, data=[74, 0]),
   midi.NoteOnEvent(tick=0, channel=0, data=[78, 53]),
   midi.NoteOnEvent(tick=120, channel=0, data=[78, 0]),
   midi.NoteOnEvent(tick=0, channel=0, data=[81, 56]),
   midi.NoteOnEvent(tick=120, channel=0, data=[81, 0]),
   midi.NoteOnEvent(tick=0, channel=0, data=[86, 54]),
   midi.NoteOnEvent(tick=120, channel=0, data=[86, 0]),
   midi.NoteOnEvent(tick=0, channel=0, data=[85, 67]),
   midi.NoteOnEvent(tick=120, channel=0, data=[83, 55]),
   midi.NoteOnEvent(tick=12, channel=0, data=[85, 0]),
   midi.NoteOnEvent(tick=108, channel=0, data=[81, 58]),
   midi.NoteOnEvent(tick=12, channel=0, data=[83, 0]),
   midi.NoteOnEvent(tick=108, channel=0, data=[79, 55]),
   midi.NoteOnEvent(tick=12, channel=0, data=[81, 0]),
   midi.NoteOnEvent(tick=108, channel=0, data=[78, 66]),
   midi.NoteOnEvent(tick=12, channel=0, data=[79, 0]),
   midi.NoteOnEvent(tick=108, channel=0, data=[76, 53]),
   midi.NoteOnEvent(tick=12, channel=0, data=[78, 0]),
   midi.NoteOnEvent(tick=108, channel=0, data=[74, 58]),
   midi.NoteOnEvent(tick=12, channel=0, data=[76, 0]),
   midi.NoteOnEvent(tick=108, channel=0, data=[73, 56]),
   midi.NoteOnEvent(tick=12, channel=0, data=[74, 0]),
   midi.NoteOnEvent(tick=108, channel=0, data=[73, 0]),
   midi.NoteOnEvent(tick=0, channel=0, data=[74, 67]),
   midi.NoteOnEvent(tick=120, channel=0, data=[74, 0]),
   midi.NoteOnEvent(tick=0, channel=0, data=[78, 58]),
   midi.NoteOnEvent(tick=120, channel=0, data=[78, 0]),
   midi.NoteOnEvent(tick=0, channel=0, data=[81, 64]),
   midi.NoteOnEvent(tick=120, channel=0, data=[81, 0]),
   midi.NoteOnEvent(tick=0, channel=0, data=[78, 58]),
   midi.NoteOnEvent(tick=120, channel=0, data=[78, 0]),
   midi.NoteOnEvent(tick=0, channel=0, data=[81, 67]),
   midi.NoteOnEvent(tick=120, channel=0, data=[81, 0]),
   midi.NoteOnEvent(tick=0, channel=0, data=[78, 59]),
   midi.NoteOnEvent(tick=120, channel=0, data=[78, 0]),
   midi.NoteOnEvent(tick=0, channel=0, data=[79, 64]),
   midi.NoteOnEvent(tick=120, channel=0, data=[79, 0]),
   midi.NoteOnEvent(tick=0, channel=0, data=[76, 58]),
   midi.NoteOnEvent(tick=120, channel=0, data=[76, 0]),
   midi.NoteOnEvent(tick=0, channel=0, data=[74, 67]),
   midi.NoteOnEvent(tick=120, channel=0, data=[74, 0]),
   midi.NoteOnEvent(tick=0, channel=0, data=[78, 59]),
   midi.NoteOnEvent(tick=120, channel=0, data=[78, 0]),
   midi.NoteOnEvent(tick=0, channel=0, data=[81, 63]),
   midi.NoteOnEvent(tick=120, channel=0, data=[81, 0]),
   midi.NoteOnEvent(tick=0, channel=0, data=[78, 58]),
   midi.NoteOnEvent(tick=120, channel=0, data=[78, 0]),
   midi.NoteOnEvent(tick=0, channel=0, data=[81, 67]),
   midi.NoteOnEvent(tick=120, channel=0, data=[81, 0]),
   midi.NoteOnEvent(tick=0, channel=0, data=[78, 59]),
   midi.NoteOnEvent(tick=120, channel=0, data=[78, 0]),
   midi.NoteOnEvent(tick=0, channel=0, data=[79, 65]),
   midi.NoteOnEvent(tick=120, channel=0, data=[79, 0]),
   midi.NoteOnEvent(tick=0, channel=0, data=[76, 59]),
   midi.NoteOnEvent(tick=120, channel=0, data=[76, 0]),
   midi.NoteOnEvent(tick=0, channel=0, data=[74, 70]),
   midi.NoteOnEvent(tick=480, channel=0, data=[74, 0]),
   midi.NoteOnEvent(tick=240, channel=0, data=[74, 46]),
   midi.NoteOnEvent(tick=240, channel=0, data=[74, 0]),
   midi.NoteOnEvent(tick=0, channel=0, data=[74, 50]),
   midi.NoteOnEvent(tick=240, channel=0, data=[74, 0]),
   midi.NoteOnEvent(tick=0, channel=0, data=[71, 45]),
   midi.NoteOnEvent(tick=240, channel=0, data=[71, 0]),
   midi.NoteOnEvent(tick=0, channel=0, data=[71, 49]),
   midi.NoteOnEvent(tick=240, channel=0, data=[71, 0]),
   midi.NoteOnEvent(tick=0, channel=0, data=[79, 62]),
   midi.NoteOnEvent(tick=240, channel=0, data=[79, 0]),
   midi.NoteOnEvent(tick=0, channel=0, data=[79, 69]),
   midi.NoteOnEvent(tick=720, channel=0, data=[79, 0]),
   midi.NoteOnEvent(tick=0, channel=0, data=[78, 49]),
   midi.NoteOnEvent(tick=120, channel=0, data=[78, 0]),
   midi.NoteOnEvent(tick=0, channel=0, data=[76, 45]),
   midi.NoteOnEvent(tick=120, channel=0, data=[76, 0]),
   midi.NoteOnEvent(tick=0, channel=0, data=[74, 50]),
   midi.NoteOnEvent(tick=120, channel=0, data=[74, 0]),
   midi.NoteOnEvent(tick=120, channel=0, data=[74, 45]),
   midi.NoteOnEvent(tick=120, channel=0, data=[74, 0]),
   midi.NoteOnEvent(tick=120, channel=0, data=[74, 50]),
   midi.NoteOnEvent(tick=120, channel=0, data=[76, 43]),
   midi.NoteOnEvent(tick=12, channel=0, data=[74, 0]),
   midi.NoteOnEvent(tick=108, channel=0, data=[74, 43]),
   midi.NoteOnEvent(tick=12, channel=0, data=[76, 0]),
   midi.NoteOnEvent(tick=108, channel=0, data=[72, 43]),
   midi.NoteOnEvent(tick=12, channel=0, data=[74, 0]),
   midi.NoteOnEvent(tick=108, channel=0, data=[71, 53]),
   midi.NoteOnEvent(tick=12, channel=0, data=[72, 0]),
   midi.NoteOnEvent(tick=228, channel=0, data=[71, 0]),
   midi.NoteOnEvent(tick=0, channel=0, data=[74, 46]),
   midi.NoteOnEvent(tick=120, channel=0, data=[74, 0]),
   midi.NoteOnEvent(tick=360, channel=0, data=[79, 46]),
   midi.NoteOnEvent(tick=240, channel=0, data=[79, 0]),
   midi.NoteOnEvent(tick=0, channel=0, data=[79, 53]),
   midi.NoteOnEvent(tick=240, channel=0, data=[79, 0]),
   midi.NoteOnEvent(tick=0, channel=0, data=[74, 49]),
   midi.NoteOnEvent(tick=240, channel=0, data=[74, 0]),
   midi.NoteOnEvent(tick=0, channel=0, data=[74, 58]),
   midi.NoteOnEvent(tick=240, channel=0, data=[74, 0]),
   midi.NoteOnEvent(tick=0, channel=0, data=[83, 62]),
   midi.NoteOnEvent(tick=240, channel=0, data=[83, 0]),
   midi.NoteOnEvent(tick=0, channel=0, data=[83, 69]),
   midi.NoteOnEvent(tick=720, channel=0, data=[83, 0]),
   midi.NoteOnEvent(tick=0, channel=0, data=[79, 49]),
   midi.NoteOnEvent(tick=120, channel=0, data=[79, 0]),
   midi.NoteOnEvent(tick=0, channel=0, data=[76, 45]),
   midi.NoteOnEvent(tick=120, channel=0, data=[76, 0]),
   midi.NoteOnEvent(tick=0, channel=0, data=[74, 50]),
   midi.NoteOnEvent(tick=120, channel=0, data=[74, 0]),
   midi.NoteOnEvent(tick=120, channel=0, data=[74, 45]),
   midi.NoteOnEvent(tick=120, channel=0, data=[74, 0]),
   midi.NoteOnEvent(tick=120, channel=0, data=[74, 50]),
   midi.NoteOnEvent(tick=120, channel=0, data=[73, 43]),
   midi.NoteOnEvent(tick=12, channel=0, data=[74, 0]),
   midi.NoteOnEvent(tick=108, channel=0, data=[71, 43]),
   midi.NoteOnEvent(tick=12, channel=0, data=[73, 0]),
   midi.NoteOnEvent(tick=108, channel=0, data=[73, 43]),
   midi.NoteOnEvent(tick=12, channel=0, data=[71, 0]),
   midi.NoteOnEvent(tick=108, channel=0, data=[74, 53]),
   midi.NoteOnEvent(tick=12, channel=0, data=[73, 0]),
   midi.NoteOnEvent(tick=468, channel=0, data=[74, 0]),
   midi.NoteOnEvent(tick=240, channel=0, data=[81, 50]),
   midi.NoteOnEvent(tick=120, channel=0, data=[79, 46]),
   midi.NoteOnEvent(tick=12, channel=0, data=[81, 0]),
   midi.NoteOnEvent(tick=108, channel=0, data=[78, 50]),
   midi.NoteOnEvent(tick=12, channel=0, data=[79, 0]),
   midi.NoteOnEvent(tick=108, channel=0, data=[76, 45]),
   midi.NoteOnEvent(tick=12, channel=0, data=[78, 0]),
   midi.NoteOnEvent(tick=108, channel=0, data=[74, 45]),
   midi.NoteOnEvent(tick=12, channel=0, data=[76, 0]),
   midi.NoteOnEvent(tick=108, channel=0, data=[73, 45]),
   midi.NoteOnEvent(tick=12, channel=0, data=[74, 0]),
   midi.NoteOnEvent(tick=108, channel=0, data=[71, 50]),
   midi.NoteOnEvent(tick=12, channel=0, data=[73, 0]),
   midi.NoteOnEvent(tick=108, channel=0, data=[73, 46]),
   midi.NoteOnEvent(tick=12, channel=0, data=[71, 0]),
   midi.NoteOnEvent(tick=108, channel=0, data=[74, 46]),
   midi.NoteOnEvent(tick=12, channel=0, data=[73, 0]),
   midi.NoteOnEvent(tick=108, channel=0, data=[71, 46]),
   midi.NoteOnEvent(tick=12, channel=0, data=[74, 0]),
   midi.NoteOnEvent(tick=108, channel=0, data=[69, 50]),
   midi.NoteOnEvent(tick=12, channel=0, data=[71, 0]),
   midi.NoteOnEvent(tick=228, channel=0, data=[69, 0]),
   midi.NoteOnEvent(tick=480, channel=0, data=[81, 50]),
   midi.NoteOnEvent(tick=120, channel=0, data=[79, 46]),
   midi.NoteOnEvent(tick=12, channel=0, data=[81, 0]),
   midi.NoteOnEvent(tick=108, channel=0, data=[78, 50]),
   midi.NoteOnEvent(tick=12, channel=0, data=[79, 0]),
   midi.NoteOnEvent(tick=108, channel=0, data=[76, 45]),
   midi.NoteOnEvent(tick=12, channel=0, data=[78, 0]),
   midi.NoteOnEvent(tick=108, channel=0, data=[74, 45]),
   midi.NoteOnEvent(tick=12, channel=0, data=[76, 0]),
   midi.NoteOnEvent(tick=108, channel=0, data=[73, 45]),
   midi.NoteOnEvent(tick=12, channel=0, data=[74, 0]),
   midi.NoteOnEvent(tick=108, channel=0, data=[71, 50]),
   midi.NoteOnEvent(tick=12, channel=0, data=[73, 0]),
   midi.NoteOnEvent(tick=108, channel=0, data=[73, 48]),
   midi.NoteOnEvent(tick=12, channel=0, data=[71, 0]),
   midi.NoteOnEvent(tick=108, channel=0, data=[74, 50]),
   midi.NoteOnEvent(tick=12, channel=0, data=[73, 0]),
   midi.NoteOnEvent(tick=108, channel=0, data=[71, 55]),
   midi.NoteOnEvent(tick=12, channel=0, data=[74, 0]),
   midi.NoteOnEvent(tick=108, channel=0, data=[69, 60]),
   midi.NoteOnEvent(tick=12, channel=0, data=[71, 0]),
   midi.NoteOnEvent(tick=228, channel=0, data=[69, 0]),
   midi.NoteOnEvent(tick=240, channel=0, data=[86, 62]),
   midi.NoteOnEvent(tick=120, channel=0, data=[86, 0]),
   midi.NoteOnEvent(tick=0, channel=0, data=[81, 53]),
   midi.NoteOnEvent(tick=120, channel=0, data=[81, 0]),
   midi.NoteOnEvent(tick=0, channel=0, data=[78, 56]),
   midi.NoteOnEvent(tick=120, channel=0, data=[78, 0]),
   midi.NoteOnEvent(tick=0, channel=0, data=[74, 54]),
   midi.NoteOnEvent(tick=120, channel=0, data=[74, 0]),
   midi.NoteOnEvent(tick=0, channel=0, data=[76, 62]),
   midi.NoteOnEvent(tick=120, channel=0, data=[76, 0]),
   midi.NoteOnEvent(tick=120, channel=0, data=[76, 58]),
   midi.NoteOnEvent(tick=120, channel=0, data=[76, 0]),
   midi.NoteOnEvent(tick=120, channel=0, data=[73, 52]),
   midi.NoteOnEvent(tick=0, channel=0, data=[81, 62]),
   midi.NoteOnEvent(tick=120, channel=0, data=[81, 0]),
   midi.NoteOnEvent(tick=0, channel=0, data=[73, 0]),
   midi.NoteOnEvent(tick=120, channel=0, data=[81, 57]),
   midi.NoteOnEvent(tick=0, channel=0, data=[73, 48]),
   midi.NoteOnEvent(tick=120, channel=0, data=[73, 0]),
   midi.NoteOnEvent(tick=0, channel=0, data=[81, 0]),
   midi.NoteOnEvent(tick=120, channel=0, data=[76, 52]),
   midi.NoteOnEvent(tick=0, channel=0, data=[79, 62]),
   midi.NoteOnEvent(tick=480, channel=0, data=[79, 0]),
   midi.NoteOnEvent(tick=0, channel=0, data=[76, 0]),
   midi.NoteOnEvent(tick=0, channel=0, data=[78, 59]),
   midi.NoteOnEvent(tick=0, channel=0, data=[74, 50]),
   midi.NoteOnEvent(tick=240, channel=0, data=[74, 0]),
   midi.NoteOnEvent(tick=0, channel=0, data=[78, 0]),
   midi.NoteOnEvent(tick=0, channel=0, data=[81, 50]),
   midi.NoteOnEvent(tick=120, channel=0, data=[79, 46]),
   midi.NoteOnEvent(tick=12, channel=0, data=[81, 0]),
   midi.NoteOnEvent(tick=108, channel=0, data=[78, 50]),
   midi.NoteOnEvent(tick=12, channel=0, data=[79, 0]),
   midi.NoteOnEvent(tick=108, channel=0, data=[76, 45]),
   midi.NoteOnEvent(tick=12, channel=0, data=[78, 0]),
   midi.NoteOnEvent(tick=108, channel=0, data=[74, 45]),
   midi.NoteOnEvent(tick=12, channel=0, data=[76, 0]),
   midi.NoteOnEvent(tick=108, channel=0, data=[73, 45]),
   midi.NoteOnEvent(tick=12, channel=0, data=[74, 0]),
   midi.NoteOnEvent(tick=108, channel=0, data=[71, 50]),
   midi.NoteOnEvent(tick=12, channel=0, data=[73, 0]),
   midi.NoteOnEvent(tick=108, channel=0, data=[73, 46]),
   midi.NoteOnEvent(tick=12, channel=0, data=[71, 0]),
   midi.NoteOnEvent(tick=108, channel=0, data=[74, 46]),
   midi.NoteOnEvent(tick=12, channel=0, data=[73, 0]),
   midi.NoteOnEvent(tick=108, channel=0, data=[71, 46]),
   midi.NoteOnEvent(tick=12, channel=0, data=[74, 0]),
   midi.NoteOnEvent(tick=108, channel=0, data=[69, 50]),
   midi.NoteOnEvent(tick=12, channel=0, data=[71, 0]),
   midi.NoteOnEvent(tick=108, channel=0, data=[67, 46]),
   midi.NoteOnEvent(tick=12, channel=0, data=[69, 0]),
   midi.NoteOnEvent(tick=108, channel=0, data=[66, 46]),
   midi.NoteOnEvent(tick=12, channel=0, data=[67, 0]),
   midi.NoteOnEvent(tick=108, channel=0, data=[67, 46]),
   midi.NoteOnEvent(tick=12, channel=0, data=[66, 0]),
   midi.NoteOnEvent(tick=108, channel=0, data=[69, 50]),
   midi.NoteOnEvent(tick=12, channel=0, data=[67, 0]),
   midi.NoteOnEvent(tick=108, channel=0, data=[69, 0]),
   midi.NoteOnEvent(tick=120, channel=0, data=[81, 50]),
   midi.NoteOnEvent(tick=120, channel=0, data=[79, 46]),
   midi.NoteOnEvent(tick=12, channel=0, data=[81, 0]),
   midi.NoteOnEvent(tick=108, channel=0, data=[78, 50]),
   midi.NoteOnEvent(tick=12, channel=0, data=[79, 0]),
   midi.NoteOnEvent(tick=108, channel=0, data=[76, 45]),
   midi.NoteOnEvent(tick=12, channel=0, data=[78, 0]),
   midi.NoteOnEvent(tick=108, channel=0, data=[74, 45]),
   midi.NoteOnEvent(tick=12, channel=0, data=[76, 0]),
   midi.NoteOnEvent(tick=108, channel=0, data=[73, 45]),
   midi.NoteOnEvent(tick=12, channel=0, data=[74, 0]),
   midi.NoteOnEvent(tick=108, channel=0, data=[71, 50]),
   midi.NoteOnEvent(tick=12, channel=0, data=[73, 0]),
   midi.NoteOnEvent(tick=108, channel=0, data=[73, 48]),
   midi.NoteOnEvent(tick=12, channel=0, data=[71, 0]),
   midi.NoteOnEvent(tick=108, channel=0, data=[74, 50]),
   midi.NoteOnEvent(tick=12, channel=0, data=[73, 0]),
   midi.NoteOnEvent(tick=108, channel=0, data=[71, 55]),
   midi.NoteOnEvent(tick=12, channel=0, data=[74, 0]),
   midi.NoteOnEvent(tick=108, channel=0, data=[69, 60]),
   midi.NoteOnEvent(tick=12, channel=0, data=[71, 0]),
   midi.NoteOnEvent(tick=228, channel=0, data=[69, 0]),
   midi.NoteOnEvent(tick=240, channel=0, data=[74, 62]),
   midi.NoteOnEvent(tick=120, channel=0, data=[74, 0]),
   midi.NoteOnEvent(tick=0, channel=0, data=[78, 53]),
   midi.NoteOnEvent(tick=120, channel=0, data=[78, 0]),
   midi.NoteOnEvent(tick=0, channel=0, data=[81, 56]),
   midi.NoteOnEvent(tick=120, channel=0, data=[81, 0]),
   midi.NoteOnEvent(tick=0, channel=0, data=[86, 54]),
   midi.NoteOnEvent(tick=120, channel=0, data=[86, 0]),
   midi.NoteOnEvent(tick=0, channel=0, data=[85, 67]),
   midi.NoteOnEvent(tick=120, channel=0, data=[83, 55]),
   midi.NoteOnEvent(tick=12, channel=0, data=[85, 0]),
   midi.NoteOnEvent(tick=108, channel=0, data=[81, 58]),
   midi.NoteOnEvent(tick=12, channel=0, data=[83, 0]),
   midi.NoteOnEvent(tick=108, channel=0, data=[79, 55]),
   midi.NoteOnEvent(tick=12, channel=0, data=[81, 0]),
   midi.NoteOnEvent(tick=108, channel=0, data=[78, 66]),
   midi.NoteOnEvent(tick=12, channel=0, data=[79, 0]),
   midi.NoteOnEvent(tick=108, channel=0, data=[76, 53]),
   midi.NoteOnEvent(tick=12, channel=0, data=[78, 0]),
   midi.NoteOnEvent(tick=108, channel=0, data=[74, 58]),
   midi.NoteOnEvent(tick=12, channel=0, data=[76, 0]),
   midi.NoteOnEvent(tick=108, channel=0, data=[73, 56]),
   midi.NoteOnEvent(tick=12, channel=0, data=[74, 0]),
   midi.NoteOnEvent(tick=108, channel=0, data=[73, 0]),
   midi.NoteOnEvent(tick=0, channel=0, data=[74, 67]),
   midi.NoteOnEvent(tick=120, channel=0, data=[74, 0]),
   midi.NoteOnEvent(tick=0, channel=0, data=[78, 58]),
   midi.NoteOnEvent(tick=120, channel=0, data=[78, 0]),
   midi.NoteOnEvent(tick=0, channel=0, data=[81, 64]),
   midi.NoteOnEvent(tick=120, channel=0, data=[81, 0]),
   midi.NoteOnEvent(tick=0, channel=0, data=[78, 58]),
   midi.NoteOnEvent(tick=120, channel=0, data=[78, 0]),
   midi.NoteOnEvent(tick=0, channel=0, data=[81, 67]),
   midi.NoteOnEvent(tick=120, channel=0, data=[81, 0]),
   midi.NoteOnEvent(tick=0, channel=0, data=[78, 59]),
   midi.NoteOnEvent(tick=120, channel=0, data=[78, 0]),
   midi.NoteOnEvent(tick=0, channel=0, data=[79, 64]),
   midi.NoteOnEvent(tick=120, channel=0, data=[79, 0]),
   midi.NoteOnEvent(tick=0, channel=0, data=[76, 58]),
   midi.NoteOnEvent(tick=120, channel=0, data=[76, 0]),
   midi.NoteOnEvent(tick=0, channel=0, data=[74, 67]),
   midi.NoteOnEvent(tick=120, channel=0, data=[74, 0]),
   midi.NoteOnEvent(tick=0, channel=0, data=[78, 59]),
   midi.NoteOnEvent(tick=120, channel=0, data=[78, 0]),
   midi.NoteOnEvent(tick=0, channel=0, data=[81, 63]),
   midi.NoteOnEvent(tick=120, channel=0, data=[81, 0]),
   midi.NoteOnEvent(tick=0, channel=0, data=[78, 58]),
   midi.NoteOnEvent(tick=120, channel=0, data=[78, 0]),
   midi.NoteOnEvent(tick=0, channel=0, data=[81, 67]),
   midi.NoteOnEvent(tick=120, channel=0, data=[81, 0]),
   midi.NoteOnEvent(tick=0, channel=0, data=[78, 59]),
   midi.NoteOnEvent(tick=120, channel=0, data=[78, 0]),
   midi.NoteOnEvent(tick=0, channel=0, data=[79, 65]),
   midi.NoteOnEvent(tick=120, channel=0, data=[79, 0]),
   midi.NoteOnEvent(tick=0, channel=0, data=[76, 59]),
   midi.NoteOnEvent(tick=120, channel=0, data=[76, 0]),
   midi.NoteOnEvent(tick=0, channel=0, data=[74, 70]),
   midi.NoteOnEvent(tick=480, channel=0, data=[74, 0]),
   midi.NoteOnEvent(tick=240, channel=0, data=[74, 46]),
   midi.NoteOnEvent(tick=240, channel=0, data=[74, 0]),
   midi.NoteOnEvent(tick=0, channel=0, data=[74, 50]),
   midi.NoteOnEvent(tick=240, channel=0, data=[74, 0]),
   midi.NoteOnEvent(tick=0, channel=0, data=[71, 45]),
   midi.NoteOnEvent(tick=240, channel=0, data=[71, 0]),
   midi.NoteOnEvent(tick=0, channel=0, data=[71, 49]),
   midi.NoteOnEvent(tick=240, channel=0, data=[71, 0]),
   midi.NoteOnEvent(tick=0, channel=0, data=[77, 62]),
   midi.NoteOnEvent(tick=240, channel=0, data=[77, 0]),
   midi.NoteOnEvent(tick=0, channel=0, data=[77, 69]),
   midi.NoteOnEvent(tick=720, channel=0, data=[77, 0]),
   midi.NoteOnEvent(tick=0, channel=0, data=[76, 49]),
   midi.NoteOnEvent(tick=120, channel=0, data=[76, 0]),
   midi.NoteOnEvent(tick=0, channel=0, data=[74, 45]),
   midi.NoteOnEvent(tick=120, channel=0, data=[74, 0]),
   midi.NoteOnEvent(tick=0, channel=0, data=[72, 50]),
   midi.NoteOnEvent(tick=120, channel=0, data=[72, 0]),
   midi.NoteOnEvent(tick=120, channel=0, data=[72, 45]),
   midi.NoteOnEvent(tick=120, channel=0, data=[72, 0]),
   midi.NoteOnEvent(tick=120, channel=0, data=[72, 50]),
   midi.NoteOnEvent(tick=120, channel=0, data=[71, 43]),
   midi.NoteOnEvent(tick=12, channel=0, data=[72, 0]),
   midi.NoteOnEvent(tick=108, channel=0, data=[69, 43]),
   midi.NoteOnEvent(tick=12, channel=0, data=[71, 0]),
   midi.NoteOnEvent(tick=108, channel=0, data=[71, 43]),
   midi.NoteOnEvent(tick=12, channel=0, data=[69, 0]),
   midi.NoteOnEvent(tick=108, channel=0, data=[72, 53]),
   midi.NoteOnEvent(tick=12, channel=0, data=[71, 0]),
   midi.NoteOnEvent(tick=228, channel=0, data=[72, 0]),
   midi.NoteOnEvent(tick=0, channel=0, data=[81, 46]),
   midi.NoteOnEvent(tick=120, channel=0, data=[81, 0]),
   midi.NoteOnEvent(tick=120, channel=0, data=[76, 50]),
   midi.NoteOnEvent(tick=120, channel=0, data=[77, 43]),
   midi.NoteOnEvent(tick=12, channel=0, data=[76, 0]),
   midi.NoteOnEvent(tick=108, channel=0, data=[76, 43]),
   midi.NoteOnEvent(tick=12, channel=0, data=[77, 0]),
   midi.NoteOnEvent(tick=108, channel=0, data=[74, 43]),
   midi.NoteOnEvent(tick=12, channel=0, data=[76, 0]),
   midi.NoteOnEvent(tick=108, channel=0, data=[72, 53]),
   midi.NoteOnEvent(tick=12, channel=0, data=[74, 0]),
   midi.NoteOnEvent(tick=228, channel=0, data=[72, 0]),
   midi.NoteOnEvent(tick=0, channel=0, data=[81, 46]),
   midi.NoteOnEvent(tick=120, channel=0, data=[81, 0]),
   midi.NoteOnEvent(tick=120, channel=0, data=[76, 50]),
   midi.NoteOnEvent(tick=120, channel=0, data=[77, 43]),
   midi.NoteOnEvent(tick=12, channel=0, data=[76, 0]),
   midi.NoteOnEvent(tick=108, channel=0, data=[76, 43]),
   midi.NoteOnEvent(tick=12, channel=0, data=[77, 0]),
   midi.NoteOnEvent(tick=108, channel=0, data=[74, 43]),
   midi.NoteOnEvent(tick=12, channel=0, data=[76, 0]),
   midi.NoteOnEvent(tick=108, channel=0, data=[72, 50]),
   midi.NoteOnEvent(tick=12, channel=0, data=[74, 0]),
   midi.NoteOnEvent(tick=108, channel=0, data=[74, 45]),
   midi.NoteOnEvent(tick=12, channel=0, data=[72, 0]),
   midi.NoteOnEvent(tick=108, channel=0, data=[72, 45]),
   midi.NoteOnEvent(tick=12, channel=0, data=[74, 0]),
   midi.NoteOnEvent(tick=108, channel=0, data=[71, 45]),
   midi.NoteOnEvent(tick=12, channel=0, data=[72, 0]),
   midi.NoteOnEvent(tick=108, channel=0, data=[69, 51]),
   midi.NoteOnEvent(tick=12, channel=0, data=[71, 0]),
   midi.NoteOnEvent(tick=108, channel=0, data=[71, 55]),
   midi.NoteOnEvent(tick=12, channel=0, data=[69, 0]),
   midi.NoteOnEvent(tick=108, channel=0, data=[72, 58]),
   midi.NoteOnEvent(tick=12, channel=0, data=[71, 0]),
   midi.NoteOnEvent(tick=108, channel=0, data=[74, 62]),
   midi.NoteOnEvent(tick=12, channel=0, data=[72, 0]),
   midi.NoteOnEvent(tick=108, channel=0, data=[76, 70]),
   midi.NoteOnEvent(tick=12, channel=0, data=[74, 0]),
   midi.NoteOnEvent(tick=708, channel=0, data=[76, 0]),
   midi.NoteOnEvent(tick=0, channel=0, data=[74, 50]),
   midi.NoteOnEvent(tick=120, channel=0, data=[72, 43]),
   midi.NoteOnEvent(tick=12, channel=0, data=[74, 0]),
   midi.NoteOnEvent(tick=108, channel=0, data=[71, 50]),
   midi.NoteOnEvent(tick=12, channel=0, data=[72, 0]),
   midi.NoteOnEvent(tick=108, channel=0, data=[71, 0]),
   midi.NoteOnEvent(tick=0, channel=0, data=[74, 45]),
   midi.NoteOnEvent(tick=120, channel=0, data=[72, 43]),
   midi.NoteOnEvent(tick=12, channel=0, data=[74, 0]),
   midi.NoteOnEvent(tick=108, channel=0, data=[71, 43]),
   midi.NoteOnEvent(tick=12, channel=0, data=[72, 0]),
   midi.NoteOnEvent(tick=108, channel=0, data=[69, 50]),
   midi.NoteOnEvent(tick=12, channel=0, data=[71, 0]),
   midi.NoteOnEvent(tick=108, channel=0, data=[72, 45]),
   midi.NoteOnEvent(tick=12, channel=0, data=[69, 0]),
   midi.NoteOnEvent(tick=108, channel=0, data=[71, 43]),
   midi.NoteOnEvent(tick=12, channel=0, data=[72, 0]),
   midi.NoteOnEvent(tick=108, channel=0, data=[69, 43]),
   midi.NoteOnEvent(tick=12, channel=0, data=[71, 0]),
   midi.NoteOnEvent(tick=108, channel=0, data=[67, 50]),
   midi.NoteOnEvent(tick=12, channel=0, data=[69, 0]),
   midi.NoteOnEvent(tick=108, channel=0, data=[69, 45]),
   midi.NoteOnEvent(tick=12, channel=0, data=[67, 0]),
   midi.NoteOnEvent(tick=108, channel=0, data=[67, 45]),
   midi.NoteOnEvent(tick=12, channel=0, data=[69, 0]),
   midi.NoteOnEvent(tick=108, channel=0, data=[66, 45]),
   midi.NoteOnEvent(tick=12, channel=0, data=[67, 0]),
   midi.NoteOnEvent(tick=108, channel=0, data=[67, 50]),
   midi.NoteOnEvent(tick=12, channel=0, data=[66, 0]),
   midi.NoteOnEvent(tick=108, channel=0, data=[69, 46]),
   midi.NoteOnEvent(tick=12, channel=0, data=[67, 0]),
   midi.NoteOnEvent(tick=108, channel=0, data=[71, 50]),
   midi.NoteOnEvent(tick=12, channel=0, data=[69, 0]),
   midi.NoteOnEvent(tick=108, channel=0, data=[73, 57]),
   midi.NoteOnEvent(tick=12, channel=0, data=[71, 0]),
   midi.NoteOnEvent(tick=108, channel=0, data=[74, 67]),
   midi.NoteOnEvent(tick=12, channel=0, data=[73, 0]),
   midi.NoteOnEvent(tick=228, channel=0, data=[74, 0]),
   midi.NoteOnEvent(tick=240, channel=0, data=[66, 54]),
   midi.NoteOnEvent(tick=120, channel=0, data=[67, 50]),
   midi.NoteOnEvent(tick=12, channel=0, data=[66, 0]),
   midi.NoteOnEvent(tick=108, channel=0, data=[66, 53]),
   midi.NoteOnEvent(tick=12, channel=0, data=[67, 0]),
   midi.NoteOnEvent(tick=108, channel=0, data=[64, 50]),
   midi.NoteOnEvent(tick=12, channel=0, data=[66, 0]),
   midi.NoteOnEvent(tick=108, channel=0, data=[62, 58]),
   midi.NoteOnEvent(tick=12, channel=0, data=[64, 0]),
   midi.NoteOnEvent(tick=108, channel=0, data=[62, 0]),
   midi.NoteOnEvent(tick=360, channel=0, data=[67, 50]),
   midi.NoteOnEvent(tick=120, channel=0, data=[69, 46]),
   midi.NoteOnEvent(tick=12, channel=0, data=[67, 0]),
   midi.NoteOnEvent(tick=108, channel=0, data=[67, 50]),
   midi.NoteOnEvent(tick=12, channel=0, data=[69, 0]),
   midi.NoteOnEvent(tick=108, channel=0, data=[66, 47]),
   midi.NoteOnEvent(tick=12, channel=0, data=[67, 0]),
   midi.NoteOnEvent(tick=108, channel=0, data=[64, 50]),
   midi.NoteOnEvent(tick=12, channel=0, data=[66, 0]),
   midi.NoteOnEvent(tick=108, channel=0, data=[64, 0]),
   midi.NoteOnEvent(tick=360, channel=0, data=[69, 45]),
   midi.NoteOnEvent(tick=120, channel=0, data=[71, 41]),
   midi.NoteOnEvent(tick=12, channel=0, data=[69, 0]),
   midi.NoteOnEvent(tick=108, channel=0, data=[69, 45]),
   midi.NoteOnEvent(tick=12, channel=0, data=[71, 0]),
   midi.NoteOnEvent(tick=108, channel=0, data=[67, 39]),
   midi.NoteOnEvent(tick=12, channel=0, data=[69, 0]),
   midi.NoteOnEvent(tick=108, channel=0, data=[66, 45]),
   midi.NoteOnEvent(tick=12, channel=0, data=[67, 0]),
   midi.NoteOnEvent(tick=108, channel=0, data=[67, 38]),
   midi.NoteOnEvent(tick=12, channel=0, data=[66, 0]),
   midi.NoteOnEvent(tick=108, channel=0, data=[66, 38]),
   midi.NoteOnEvent(tick=12, channel=0, data=[67, 0]),
   midi.NoteOnEvent(tick=108, channel=0, data=[64, 38]),
   midi.NoteOnEvent(tick=12, channel=0, data=[66, 0]),
   midi.NoteOnEvent(tick=108, channel=0, data=[66, 42]),
   midi.NoteOnEvent(tick=12, channel=0, data=[64, 0]),
   midi.NoteOnEvent(tick=108, channel=0, data=[67, 43]),
   midi.NoteOnEvent(tick=12, channel=0, data=[66, 0]),
   midi.NoteOnEvent(tick=108, channel=0, data=[69, 41]),
   midi.NoteOnEvent(tick=12, channel=0, data=[67, 0]),
   midi.NoteOnEvent(tick=108, channel=0, data=[71, 40]),
   midi.NoteOnEvent(tick=12, channel=0, data=[69, 0]),
   midi.NoteOnEvent(tick=108, channel=0, data=[72, 42]),
   midi.NoteOnEvent(tick=12, channel=0, data=[71, 0]),
   midi.NoteOnEvent(tick=228, channel=0, data=[72, 0]),
   midi.NoteOnEvent(tick=480, channel=0, data=[74, 46]),
   midi.NoteOnEvent(tick=240, channel=0, data=[74, 0]),
   midi.NoteOnEvent(tick=0, channel=0, data=[74, 50]),
   midi.NoteOnEvent(tick=240, channel=0, data=[74, 0]),
   midi.NoteOnEvent(tick=0, channel=0, data=[71, 45]),
   midi.NoteOnEvent(tick=240, channel=0, data=[71, 0]),
   midi.NoteOnEvent(tick=0, channel=0, data=[71, 49]),
   midi.NoteOnEvent(tick=240, channel=0, data=[71, 0]),
   midi.NoteOnEvent(tick=0, channel=0, data=[79, 62]),
   midi.NoteOnEvent(tick=240, channel=0, data=[79, 0]),
   midi.NoteOnEvent(tick=0, channel=0, data=[79, 69]),
   midi.NoteOnEvent(tick=720, channel=0, data=[79, 0]),
   midi.NoteOnEvent(tick=0, channel=0, data=[78, 49]),
   midi.NoteOnEvent(tick=120, channel=0, data=[78, 0]),
   midi.NoteOnEvent(tick=0, channel=0, data=[76, 45]),
   midi.NoteOnEvent(tick=120, channel=0, data=[76, 0]),
   midi.NoteOnEvent(tick=0, channel=0, data=[74, 50]),
   midi.NoteOnEvent(tick=120, channel=0, data=[74, 0]),
   midi.NoteOnEvent(tick=120, channel=0, data=[74, 45]),
   midi.NoteOnEvent(tick=120, channel=0, data=[74, 0]),
   midi.NoteOnEvent(tick=120, channel=0, data=[74, 50]),
   midi.NoteOnEvent(tick=120, channel=0, data=[76, 43]),
   midi.NoteOnEvent(tick=12, channel=0, data=[74, 0]),
   midi.NoteOnEvent(tick=108, channel=0, data=[74, 43]),
   midi.NoteOnEvent(tick=12, channel=0, data=[76, 0]),
   midi.NoteOnEvent(tick=108, channel=0, data=[72, 43]),
   midi.NoteOnEvent(tick=12, channel=0, data=[74, 0]),
   midi.NoteOnEvent(tick=108, channel=0, data=[71, 53]),
   midi.NoteOnEvent(tick=12, channel=0, data=[72, 0]),
   midi.NoteOnEvent(tick=228, channel=0, data=[71, 0]),
   midi.NoteOnEvent(tick=0, channel=0, data=[74, 46]),
   midi.NoteOnEvent(tick=120, channel=0, data=[74, 0]),
   midi.NoteOnEvent(tick=360, channel=0, data=[71, 46]),
   midi.NoteOnEvent(tick=240, channel=0, data=[71, 0]),
   midi.NoteOnEvent(tick=0, channel=0, data=[71, 53]),
   midi.NoteOnEvent(tick=240, channel=0, data=[71, 0]),
   midi.NoteOnEvent(tick=0, channel=0, data=[69, 49]),
   midi.NoteOnEvent(tick=240, channel=0, data=[69, 0]),
   midi.NoteOnEvent(tick=0, channel=0, data=[69, 58]),
   midi.NoteOnEvent(tick=240, channel=0, data=[69, 0]),
   midi.NoteOnEvent(tick=0, channel=0, data=[76, 62]),
   midi.NoteOnEvent(tick=240, channel=0, data=[76, 0]),
   midi.NoteOnEvent(tick=0, channel=0, data=[76, 69]),
   midi.NoteOnEvent(tick=720, channel=0, data=[76, 0]),
   midi.NoteOnEvent(tick=0, channel=0, data=[72, 49]),
   midi.NoteOnEvent(tick=120, channel=0, data=[72, 0]),
   midi.NoteOnEvent(tick=0, channel=0, data=[69, 45]),
   midi.NoteOnEvent(tick=120, channel=0, data=[69, 0]),
   midi.NoteOnEvent(tick=0, channel=0, data=[67, 50]),
   midi.NoteOnEvent(tick=120, channel=0, data=[67, 0]),
   midi.NoteOnEvent(tick=120, channel=0, data=[67, 45]),
   midi.NoteOnEvent(tick=120, channel=0, data=[67, 0]),
   midi.NoteOnEvent(tick=120, channel=0, data=[67, 50]),
   midi.NoteOnEvent(tick=120, channel=0, data=[66, 43]),
   midi.NoteOnEvent(tick=12, channel=0, data=[67, 0]),
   midi.NoteOnEvent(tick=108, channel=0, data=[64, 43]),
   midi.NoteOnEvent(tick=12, channel=0, data=[66, 0]),
   midi.NoteOnEvent(tick=108, channel=0, data=[66, 43]),
   midi.NoteOnEvent(tick=12, channel=0, data=[64, 0]),
   midi.NoteOnEvent(tick=108, channel=0, data=[67, 53]),
   midi.NoteOnEvent(tick=12, channel=0, data=[66, 0]),
   midi.NoteOnEvent(tick=468, channel=0, data=[67, 0]),
   midi.NoteOnEvent(tick=240, channel=0, data=[74, 50]),
   midi.NoteOnEvent(tick=120, channel=0, data=[72, 46]),
   midi.NoteOnEvent(tick=12, channel=0, data=[74, 0]),
   midi.NoteOnEvent(tick=108, channel=0, data=[71, 50]),
   midi.NoteOnEvent(tick=12, channel=0, data=[72, 0]),
   midi.NoteOnEvent(tick=108, channel=0, data=[69, 45]),
   midi.NoteOnEvent(tick=12, channel=0, data=[71, 0]),
   midi.NoteOnEvent(tick=108, channel=0, data=[67, 45]),
   midi.NoteOnEvent(tick=12, channel=0, data=[69, 0]),
   midi.NoteOnEvent(tick=108, channel=0, data=[66, 45]),
   midi.NoteOnEvent(tick=12, channel=0, data=[67, 0]),
   midi.NoteOnEvent(tick=108, channel=0, data=[64, 50]),
   midi.NoteOnEvent(tick=12, channel=0, data=[66, 0]),
   midi.NoteOnEvent(tick=108, channel=0, data=[66, 46]),
   midi.NoteOnEvent(tick=12, channel=0, data=[64, 0]),
   midi.NoteOnEvent(tick=108, channel=0, data=[67, 46]),
   midi.NoteOnEvent(tick=12, channel=0, data=[66, 0]),
   midi.NoteOnEvent(tick=108, channel=0, data=[64, 46]),
   midi.NoteOnEvent(tick=12, channel=0, data=[67, 0]),
   midi.NoteOnEvent(tick=108, channel=0, data=[62, 50]),
   midi.NoteOnEvent(tick=12, channel=0, data=[64, 0]),
   midi.NoteOnEvent(tick=228, channel=0, data=[62, 0]),
   midi.NoteOnEvent(tick=480, channel=0, data=[74, 50]),
   midi.NoteOnEvent(tick=120, channel=0, data=[72, 46]),
   midi.NoteOnEvent(tick=12, channel=0, data=[74, 0]),
   midi.NoteOnEvent(tick=108, channel=0, data=[71, 50]),
   midi.NoteOnEvent(tick=12, channel=0, data=[72, 0]),
   midi.NoteOnEvent(tick=108, channel=0, data=[69, 45]),
   midi.NoteOnEvent(tick=12, channel=0, data=[71, 0]),
   midi.NoteOnEvent(tick=108, channel=0, data=[67, 45]),
   midi.NoteOnEvent(tick=12, channel=0, data=[69, 0]),
   midi.NoteOnEvent(tick=108, channel=0, data=[66, 45]),
   midi.NoteOnEvent(tick=12, channel=0, data=[67, 0]),
   midi.NoteOnEvent(tick=108, channel=0, data=[64, 50]),
   midi.NoteOnEvent(tick=12, channel=0, data=[66, 0]),
   midi.NoteOnEvent(tick=108, channel=0, data=[66, 48]),
   midi.NoteOnEvent(tick=12, channel=0, data=[64, 0]),
   midi.NoteOnEvent(tick=108, channel=0, data=[67, 50]),
   midi.NoteOnEvent(tick=12, channel=0, data=[66, 0]),
   midi.NoteOnEvent(tick=108, channel=0, data=[64, 55]),
   midi.NoteOnEvent(tick=12, channel=0, data=[67, 0]),
   midi.NoteOnEvent(tick=108, channel=0, data=[62, 60]),
   midi.NoteOnEvent(tick=12, channel=0, data=[64, 0]),
   midi.NoteOnEvent(tick=108, channel=0, data=[62, 0]),
   midi.NoteOnEvent(tick=120, channel=0, data=[79, 62]),
   midi.NoteOnEvent(tick=120, channel=0, data=[79, 0]),
   midi.NoteOnEvent(tick=0, channel=0, data=[78, 58]),
   midi.NoteOnEvent(tick=120, channel=0, data=[78, 0]),
   midi.NoteOnEvent(tick=0, channel=0, data=[76, 56]),
   midi.NoteOnEvent(tick=120, channel=0, data=[76, 0]),
   midi.NoteOnEvent(tick=0, channel=0, data=[74, 56]),
   midi.NoteOnEvent(tick=120, channel=0, data=[74, 0]),
   midi.NoteOnEvent(tick=0, channel=0, data=[72, 56]),
   midi.NoteOnEvent(tick=120, channel=0, data=[72, 0]),
   midi.NoteOnEvent(tick=0, channel=0, data=[71, 56]),
   midi.NoteOnEvent(tick=120, channel=0, data=[71, 0]),
   midi.NoteOnEvent(tick=0, channel=0, data=[69, 62]),
   midi.NoteOnEvent(tick=120, channel=0, data=[69, 0]),
   midi.NoteOnEvent(tick=120, channel=0, data=[69, 58]),
   midi.NoteOnEvent(tick=120, channel=0, data=[69, 0]),
   midi.NoteOnEvent(tick=120, channel=0, data=[66, 52]),
   midi.NoteOnEvent(tick=0, channel=0, data=[74, 62]),
   midi.NoteOnEvent(tick=120, channel=0, data=[74, 0]),
   midi.NoteOnEvent(tick=0, channel=0, data=[66, 0]),
   midi.NoteOnEvent(tick=120, channel=0, data=[74, 57]),
   midi.NoteOnEvent(tick=0, channel=0, data=[66, 48]),
   midi.NoteOnEvent(tick=120, channel=0, data=[66, 0]),
   midi.NoteOnEvent(tick=0, channel=0, data=[74, 0]),
   midi.NoteOnEvent(tick=120, channel=0, data=[69, 52]),
   midi.NoteOnEvent(tick=0, channel=0, data=[72, 62]),
   midi.NoteOnEvent(tick=480, channel=0, data=[72, 0]),
   midi.NoteOnEvent(tick=0, channel=0, data=[69, 0]),
   midi.NoteOnEvent(tick=0, channel=0, data=[71, 59]),
   midi.NoteOnEvent(tick=0, channel=0, data=[67, 50]),
   midi.NoteOnEvent(tick=240, channel=0, data=[67, 0]),
   midi.NoteOnEvent(tick=0, channel=0, data=[71, 0]),
   midi.NoteOnEvent(tick=0, channel=0, data=[83, 50]),
   midi.NoteOnEvent(tick=120, channel=0, data=[81, 46]),
   midi.NoteOnEvent(tick=12, channel=0, data=[83, 0]),
   midi.NoteOnEvent(tick=108, channel=0, data=[79, 50]),
   midi.NoteOnEvent(tick=12, channel=0, data=[81, 0]),
   midi.NoteOnEvent(tick=108, channel=0, data=[78, 45]),
   midi.NoteOnEvent(tick=12, channel=0, data=[79, 0]),
   midi.NoteOnEvent(tick=108, channel=0, data=[76, 45]),
   midi.NoteOnEvent(tick=12, channel=0, data=[78, 0]),
   midi.NoteOnEvent(tick=108, channel=0, data=[75, 45]),
   midi.NoteOnEvent(tick=12, channel=0, data=[76, 0]),
   midi.NoteOnEvent(tick=108, channel=0, data=[76, 50]),
   midi.NoteOnEvent(tick=12, channel=0, data=[75, 0]),
   midi.NoteOnEvent(tick=108, channel=0, data=[78, 46]),
   midi.NoteOnEvent(tick=12, channel=0, data=[76, 0]),
   midi.NoteOnEvent(tick=108, channel=0, data=[79, 46]),
   midi.NoteOnEvent(tick=12, channel=0, data=[78, 0]),
   midi.NoteOnEvent(tick=108, channel=0, data=[76, 46]),
   midi.NoteOnEvent(tick=12, channel=0, data=[79, 0]),
   midi.NoteOnEvent(tick=108, channel=0, data=[74, 50]),
   midi.NoteOnEvent(tick=12, channel=0, data=[76, 0]),
   midi.NoteOnEvent(tick=108, channel=0, data=[72, 46]),
   midi.NoteOnEvent(tick=12, channel=0, data=[74, 0]),
   midi.NoteOnEvent(tick=108, channel=0, data=[71, 46]),
   midi.NoteOnEvent(tick=12, channel=0, data=[72, 0]),
   midi.NoteOnEvent(tick=108, channel=0, data=[72, 46]),
   midi.NoteOnEvent(tick=12, channel=0, data=[71, 0]),
   midi.NoteOnEvent(tick=108, channel=0, data=[74, 50]),
   midi.NoteOnEvent(tick=12, channel=0, data=[72, 0]),
   midi.NoteOnEvent(tick=108, channel=0, data=[74, 0]),
   midi.NoteOnEvent(tick=120, channel=0, data=[83, 50]),
   midi.NoteOnEvent(tick=120, channel=0, data=[81, 46]),
   midi.NoteOnEvent(tick=12, channel=0, data=[83, 0]),
   midi.NoteOnEvent(tick=108, channel=0, data=[79, 50]),
   midi.NoteOnEvent(tick=12, channel=0, data=[81, 0]),
   midi.NoteOnEvent(tick=108, channel=0, data=[78, 45]),
   midi.NoteOnEvent(tick=12, channel=0, data=[79, 0]),
   midi.NoteOnEvent(tick=108, channel=0, data=[76, 45]),
   midi.NoteOnEvent(tick=12, channel=0, data=[78, 0]),
   midi.NoteOnEvent(tick=108, channel=0, data=[75, 45]),
   midi.NoteOnEvent(tick=12, channel=0, data=[76, 0]),
   midi.NoteOnEvent(tick=108, channel=0, data=[76, 50]),
   midi.NoteOnEvent(tick=12, channel=0, data=[75, 0]),
   midi.NoteOnEvent(tick=108, channel=0, data=[78, 48]),
   midi.NoteOnEvent(tick=12, channel=0, data=[76, 0]),
   midi.NoteOnEvent(tick=108, channel=0, data=[79, 50]),
   midi.NoteOnEvent(tick=12, channel=0, data=[78, 0]),
   midi.NoteOnEvent(tick=108, channel=0, data=[76, 55]),
   midi.NoteOnEvent(tick=12, channel=0, data=[79, 0]),
   midi.NoteOnEvent(tick=108, channel=0, data=[74, 62]),
   midi.NoteOnEvent(tick=12, channel=0, data=[76, 0]),
   midi.NoteOnEvent(tick=108, channel=0, data=[74, 0]),
   midi.NoteOnEvent(tick=0, channel=0, data=[79, 53]),
   midi.NoteOnEvent(tick=120, channel=0, data=[79, 0]),
   midi.NoteOnEvent(tick=0, channel=0, data=[83, 56]),
   midi.NoteOnEvent(tick=120, channel=0, data=[83, 0]),
   midi.NoteOnEvent(tick=0, channel=0, data=[86, 54]),
   midi.NoteOnEvent(tick=120, channel=0, data=[86, 0]),
   midi.NoteOnEvent(tick=0, channel=0, data=[84, 62]),
   midi.NoteOnEvent(tick=120, channel=0, data=[84, 0]),
   midi.NoteOnEvent(tick=0, channel=0, data=[83, 53]),
   midi.NoteOnEvent(tick=120, channel=0, data=[83, 0]),
   midi.NoteOnEvent(tick=0, channel=0, data=[81, 56]),
   midi.NoteOnEvent(tick=120, channel=0, data=[81, 0]),
   midi.NoteOnEvent(tick=0, channel=0, data=[79, 59]),
   midi.NoteOnEvent(tick=120, channel=0, data=[79, 0]),
   midi.NoteOnEvent(tick=0, channel=0, data=[78, 67]),
   midi.NoteOnEvent(tick=120, channel=0, data=[78, 0]),
   midi.NoteOnEvent(tick=0, channel=0, data=[76, 55]),
   midi.NoteOnEvent(tick=120, channel=0, data=[76, 0]),
   midi.NoteOnEvent(tick=0, channel=0, data=[74, 58]),
   midi.NoteOnEvent(tick=120, channel=0, data=[74, 0]),
   midi.NoteOnEvent(tick=0, channel=0, data=[72, 55]),
   midi.NoteOnEvent(tick=120, channel=0, data=[72, 0]),
   midi.NoteOnEvent(tick=0, channel=0, data=[71, 66]),
   midi.NoteOnEvent(tick=120, channel=0, data=[71, 0]),
   midi.NoteOnEvent(tick=0, channel=0, data=[69, 53]),
   midi.NoteOnEvent(tick=120, channel=0, data=[69, 0]),
   midi.NoteOnEvent(tick=0, channel=0, data=[67, 58]),
   midi.NoteOnEvent(tick=120, channel=0, data=[67, 0]),
   midi.NoteOnEvent(tick=0, channel=0, data=[66, 56]),
   midi.NoteOnEvent(tick=120, channel=0, data=[66, 0]),
   midi.NoteOnEvent(tick=0, channel=0, data=[67, 67]),
   midi.NoteOnEvent(tick=120, channel=0, data=[67, 0]),
   midi.NoteOnEvent(tick=0, channel=0, data=[71, 58]),
   midi.NoteOnEvent(tick=120, channel=0, data=[71, 0]),
   midi.NoteOnEvent(tick=0, channel=0, data=[74, 64]),
   midi.NoteOnEvent(tick=120, channel=0, data=[74, 0]),
   midi.NoteOnEvent(tick=0, channel=0, data=[71, 58]),
   midi.NoteOnEvent(tick=120, channel=0, data=[71, 0]),
   midi.NoteOnEvent(tick=0, channel=0, data=[74, 67]),
   midi.NoteOnEvent(tick=120, channel=0, data=[74, 0]),
   midi.NoteOnEvent(tick=0, channel=0, data=[71, 59]),
   midi.NoteOnEvent(tick=120, channel=0, data=[71, 0]),
   midi.NoteOnEvent(tick=0, channel=0, data=[72, 64]),
   midi.NoteOnEvent(tick=120, channel=0, data=[72, 0]),
   midi.NoteOnEvent(tick=0, channel=0, data=[69, 58]),
   midi.NoteOnEvent(tick=120, channel=0, data=[69, 0]),
   midi.NoteOnEvent(tick=0, channel=0, data=[67, 67]),
   midi.NoteOnEvent(tick=120, channel=0, data=[67, 0]),
   midi.NoteOnEvent(tick=0, channel=0, data=[71, 59]),
   midi.NoteOnEvent(tick=120, channel=0, data=[71, 0]),
   midi.NoteOnEvent(tick=0, channel=0, data=[74, 63]),
   midi.NoteOnEvent(tick=120, channel=0, data=[74, 0]),
   midi.NoteOnEvent(tick=0, channel=0, data=[71, 58]),
   midi.NoteOnEvent(tick=120, channel=0, data=[71, 0]),
   midi.NoteOnEvent(tick=0, channel=0, data=[74, 67]),
   midi.NoteOnEvent(tick=120, channel=0, data=[74, 0]),
   midi.NoteOnEvent(tick=0, channel=0, data=[71, 59]),
   midi.NoteOnEvent(tick=120, channel=0, data=[71, 0]),
   midi.NoteOnEvent(tick=0, channel=0, data=[72, 65]),
   midi.NoteOnEvent(tick=120, channel=0, data=[72, 0]),
   midi.NoteOnEvent(tick=0, channel=0, data=[69, 59]),
   midi.NoteOnEvent(tick=120, channel=0, data=[69, 0]),
   midi.NoteOnEvent(tick=0, channel=0, data=[67, 70]),
   midi.NoteOnEvent(tick=240, channel=0, data=[67, 0]),
   midi.NoteOnEvent(tick=240, channel=0, data=[71, 59]),
   midi.NoteOnEvent(tick=0, channel=0, data=[74, 59]),
   midi.NoteOnEvent(tick=0, channel=0, data=[79, 70]),
   midi.NoteOnEvent(tick=240, channel=0, data=[79, 0]),
   midi.NoteOnEvent(tick=0, channel=0, data=[74, 0]),
   midi.NoteOnEvent(tick=0, channel=0, data=[71, 0]),
   midi.NoteOnEvent(tick=240, channel=0, data=[71, 59]),
   midi.NoteOnEvent(tick=0, channel=0, data=[74, 59]),
   midi.NoteOnEvent(tick=0, channel=0, data=[79, 70]),
   midi.NoteOnEvent(tick=480, channel=0, data=[79, 0]),
   midi.NoteOnEvent(tick=0, channel=0, data=[74, 0]),
   midi.NoteOnEvent(tick=0, channel=0, data=[71, 0]),
   midi.NoteOnEvent(tick=240, channel=0, data=[74, 46]),
   midi.NoteOnEvent(tick=240, channel=0, data=[74, 0]),
   midi.NoteOnEvent(tick=0, channel=0, data=[74, 50]),
   midi.NoteOnEvent(tick=240, channel=0, data=[74, 0]),
   midi.NoteOnEvent(tick=0, channel=0, data=[71, 45]),
   midi.NoteOnEvent(tick=240, channel=0, data=[71, 0]),
   midi.NoteOnEvent(tick=0, channel=0, data=[71, 49]),
   midi.NoteOnEvent(tick=240, channel=0, data=[71, 0]),
   midi.NoteOnEvent(tick=0, channel=0, data=[77, 62]),
   midi.NoteOnEvent(tick=240, channel=0, data=[77, 0]),
   midi.NoteOnEvent(tick=0, channel=0, data=[77, 69]),
   midi.NoteOnEvent(tick=720, channel=0, data=[77, 0]),
   midi.NoteOnEvent(tick=0, channel=0, data=[76, 49]),
   midi.NoteOnEvent(tick=120, channel=0, data=[76, 0]),
   midi.NoteOnEvent(tick=0, channel=0, data=[74, 45]),
   midi.NoteOnEvent(tick=120, channel=0, data=[74, 0]),
   midi.NoteOnEvent(tick=0, channel=0, data=[72, 50]),
   midi.NoteOnEvent(tick=120, channel=0, data=[72, 0]),
   midi.NoteOnEvent(tick=120, channel=0, data=[72, 45]),
   midi.NoteOnEvent(tick=120, channel=0, data=[72, 0]),
   midi.NoteOnEvent(tick=120, channel=0, data=[72, 50]),
   midi.NoteOnEvent(tick=120, channel=0, data=[71, 43]),
   midi.NoteOnEvent(tick=12, channel=0, data=[72, 0]),
   midi.NoteOnEvent(tick=108, channel=0, data=[69, 43]),
   midi.NoteOnEvent(tick=12, channel=0, data=[71, 0]),
   midi.NoteOnEvent(tick=108, channel=0, data=[71, 43]),
   midi.NoteOnEvent(tick=12, channel=0, data=[69, 0]),
   midi.NoteOnEvent(tick=108, channel=0, data=[72, 53]),
   midi.NoteOnEvent(tick=12, channel=0, data=[71, 0]),
   midi.NoteOnEvent(tick=228, channel=0, data=[72, 0]),
   midi.NoteOnEvent(tick=0, channel=0, data=[81, 46]),
   midi.NoteOnEvent(tick=120, channel=0, data=[81, 0]),
   midi.NoteOnEvent(tick=120, channel=0, data=[76, 50]),
   midi.NoteOnEvent(tick=120, channel=0, data=[77, 43]),
   midi.NoteOnEvent(tick=12, channel=0, data=[76, 0]),
   midi.NoteOnEvent(tick=108, channel=0, data=[76, 43]),
   midi.NoteOnEvent(tick=12, channel=0, data=[77, 0]),
   midi.NoteOnEvent(tick=108, channel=0, data=[74, 43]),
   midi.NoteOnEvent(tick=12, channel=0, data=[76, 0]),
   midi.NoteOnEvent(tick=108, channel=0, data=[72, 53]),
   midi.NoteOnEvent(tick=12, channel=0, data=[74, 0]),
   midi.NoteOnEvent(tick=228, channel=0, data=[72, 0]),
   midi.NoteOnEvent(tick=0, channel=0, data=[81, 46]),
   midi.NoteOnEvent(tick=120, channel=0, data=[81, 0]),
   midi.NoteOnEvent(tick=120, channel=0, data=[76, 50]),
   midi.NoteOnEvent(tick=120, channel=0, data=[77, 43]),
   midi.NoteOnEvent(tick=12, channel=0, data=[76, 0]),
   midi.NoteOnEvent(tick=108, channel=0, data=[76, 43]),
   midi.NoteOnEvent(tick=12, channel=0, data=[77, 0]),
   midi.NoteOnEvent(tick=108, channel=0, data=[74, 43]),
   midi.NoteOnEvent(tick=12, channel=0, data=[76, 0]),
   midi.NoteOnEvent(tick=108, channel=0, data=[72, 50]),
   midi.NoteOnEvent(tick=12, channel=0, data=[74, 0]),
   midi.NoteOnEvent(tick=108, channel=0, data=[74, 45]),
   midi.NoteOnEvent(tick=12, channel=0, data=[72, 0]),
   midi.NoteOnEvent(tick=108, channel=0, data=[72, 45]),
   midi.NoteOnEvent(tick=12, channel=0, data=[74, 0]),
   midi.NoteOnEvent(tick=108, channel=0, data=[71, 45]),
   midi.NoteOnEvent(tick=12, channel=0, data=[72, 0]),
   midi.NoteOnEvent(tick=108, channel=0, data=[69, 51]),
   midi.NoteOnEvent(tick=12, channel=0, data=[71, 0]),
   midi.NoteOnEvent(tick=108, channel=0, data=[71, 55]),
   midi.NoteOnEvent(tick=12, channel=0, data=[69, 0]),
   midi.NoteOnEvent(tick=108, channel=0, data=[72, 58]),
   midi.NoteOnEvent(tick=12, channel=0, data=[71, 0]),
   midi.NoteOnEvent(tick=108, channel=0, data=[74, 62]),
   midi.NoteOnEvent(tick=12, channel=0, data=[72, 0]),
   midi.NoteOnEvent(tick=108, channel=0, data=[76, 70]),
   midi.NoteOnEvent(tick=12, channel=0, data=[74, 0]),
   midi.NoteOnEvent(tick=708, channel=0, data=[76, 0]),
   midi.NoteOnEvent(tick=0, channel=0, data=[74, 50]),
   midi.NoteOnEvent(tick=120, channel=0, data=[72, 43]),
   midi.NoteOnEvent(tick=12, channel=0, data=[74, 0]),
   midi.NoteOnEvent(tick=108, channel=0, data=[71, 50]),
   midi.NoteOnEvent(tick=12, channel=0, data=[72, 0]),
   midi.NoteOnEvent(tick=108, channel=0, data=[71, 0]),
   midi.NoteOnEvent(tick=0, channel=0, data=[74, 45]),
   midi.NoteOnEvent(tick=120, channel=0, data=[72, 43]),
   midi.NoteOnEvent(tick=12, channel=0, data=[74, 0]),
   midi.NoteOnEvent(tick=108, channel=0, data=[71, 43]),
   midi.NoteOnEvent(tick=12, channel=0, data=[72, 0]),
   midi.NoteOnEvent(tick=108, channel=0, data=[69, 50]),
   midi.NoteOnEvent(tick=12, channel=0, data=[71, 0]),
   midi.NoteOnEvent(tick=108, channel=0, data=[72, 45]),
   midi.NoteOnEvent(tick=12, channel=0, data=[69, 0]),
   midi.NoteOnEvent(tick=108, channel=0, data=[71, 43]),
   midi.NoteOnEvent(tick=12, channel=0, data=[72, 0]),
   midi.NoteOnEvent(tick=108, channel=0, data=[69, 43]),
   midi.NoteOnEvent(tick=12, channel=0, data=[71, 0]),
   midi.NoteOnEvent(tick=108, channel=0, data=[67, 50]),
   midi.NoteOnEvent(tick=12, channel=0, data=[69, 0]),
   midi.NoteOnEvent(tick=108, channel=0, data=[69, 45]),
   midi.NoteOnEvent(tick=12, channel=0, data=[67, 0]),
   midi.NoteOnEvent(tick=108, channel=0, data=[67, 45]),
   midi.NoteOnEvent(tick=12, channel=0, data=[69, 0]),
   midi.NoteOnEvent(tick=108, channel=0, data=[66, 45]),
   midi.NoteOnEvent(tick=12, channel=0, data=[67, 0]),
   midi.NoteOnEvent(tick=108, channel=0, data=[67, 50]),
   midi.NoteOnEvent(tick=12, channel=0, data=[66, 0]),
   midi.NoteOnEvent(tick=108, channel=0, data=[69, 46]),
   midi.NoteOnEvent(tick=12, channel=0, data=[67, 0]),
   midi.NoteOnEvent(tick=108, channel=0, data=[71, 50]),
   midi.NoteOnEvent(tick=12, channel=0, data=[69, 0]),
   midi.NoteOnEvent(tick=108, channel=0, data=[73, 57]),
   midi.NoteOnEvent(tick=12, channel=0, data=[71, 0]),
   midi.NoteOnEvent(tick=108, channel=0, data=[74, 67]),
   midi.NoteOnEvent(tick=12, channel=0, data=[73, 0]),
   midi.NoteOnEvent(tick=228, channel=0, data=[74, 0]),
   midi.NoteOnEvent(tick=240, channel=0, data=[66, 54]),
   midi.NoteOnEvent(tick=120, channel=0, data=[67, 50]),
   midi.NoteOnEvent(tick=12, channel=0, data=[66, 0]),
   midi.NoteOnEvent(tick=108, channel=0, data=[66, 53]),
   midi.NoteOnEvent(tick=12, channel=0, data=[67, 0]),
   midi.NoteOnEvent(tick=108, channel=0, data=[64, 50]),
   midi.NoteOnEvent(tick=12, channel=0, data=[66, 0]),
   midi.NoteOnEvent(tick=108, channel=0, data=[62, 58]),
   midi.NoteOnEvent(tick=12, channel=0, data=[64, 0]),
   midi.NoteOnEvent(tick=108, channel=0, data=[62, 0]),
   midi.NoteOnEvent(tick=360, channel=0, data=[67, 50]),
   midi.NoteOnEvent(tick=120, channel=0, data=[69, 46]),
   midi.NoteOnEvent(tick=12, channel=0, data=[67, 0]),
   midi.NoteOnEvent(tick=108, channel=0, data=[67, 50]),
   midi.NoteOnEvent(tick=12, channel=0, data=[69, 0]),
   midi.NoteOnEvent(tick=108, channel=0, data=[66, 47]),
   midi.NoteOnEvent(tick=12, channel=0, data=[67, 0]),
   midi.NoteOnEvent(tick=108, channel=0, data=[64, 50]),
   midi.NoteOnEvent(tick=12, channel=0, data=[66, 0]),
   midi.NoteOnEvent(tick=108, channel=0, data=[64, 0]),
   midi.NoteOnEvent(tick=360, channel=0, data=[69, 45]),
   midi.NoteOnEvent(tick=120, channel=0, data=[71, 41]),
   midi.NoteOnEvent(tick=12, channel=0, data=[69, 0]),
   midi.NoteOnEvent(tick=108, channel=0, data=[69, 45]),
   midi.NoteOnEvent(tick=12, channel=0, data=[71, 0]),
   midi.NoteOnEvent(tick=108, channel=0, data=[67, 39]),
   midi.NoteOnEvent(tick=12, channel=0, data=[69, 0]),
   midi.NoteOnEvent(tick=108, channel=0, data=[66, 45]),
   midi.NoteOnEvent(tick=12, channel=0, data=[67, 0]),
   midi.NoteOnEvent(tick=108, channel=0, data=[67, 38]),
   midi.NoteOnEvent(tick=12, channel=0, data=[66, 0]),
   midi.NoteOnEvent(tick=108, channel=0, data=[66, 38]),
   midi.NoteOnEvent(tick=12, channel=0, data=[67, 0]),
   midi.NoteOnEvent(tick=108, channel=0, data=[64, 38]),
   midi.NoteOnEvent(tick=12, channel=0, data=[66, 0]),
   midi.NoteOnEvent(tick=108, channel=0, data=[66, 42]),
   midi.NoteOnEvent(tick=12, channel=0, data=[64, 0]),
   midi.NoteOnEvent(tick=108, channel=0, data=[67, 43]),
   midi.NoteOnEvent(tick=12, channel=0, data=[66, 0]),
   midi.NoteOnEvent(tick=108, channel=0, data=[69, 41]),
   midi.NoteOnEvent(tick=12, channel=0, data=[67, 0]),
   midi.NoteOnEvent(tick=108, channel=0, data=[71, 40]),
   midi.NoteOnEvent(tick=12, channel=0, data=[69, 0]),
   midi.NoteOnEvent(tick=108, channel=0, data=[72, 42]),
   midi.NoteOnEvent(tick=12, channel=0, data=[71, 0]),
   midi.NoteOnEvent(tick=228, channel=0, data=[72, 0]),
   midi.NoteOnEvent(tick=480, channel=0, data=[74, 46]),
   midi.NoteOnEvent(tick=240, channel=0, data=[74, 0]),
   midi.NoteOnEvent(tick=0, channel=0, data=[74, 50]),
   midi.NoteOnEvent(tick=240, channel=0, data=[74, 0]),
   midi.NoteOnEvent(tick=0, channel=0, data=[71, 45]),
   midi.NoteOnEvent(tick=240, channel=0, data=[71, 0]),
   midi.NoteOnEvent(tick=0, channel=0, data=[71, 49]),
   midi.NoteOnEvent(tick=240, channel=0, data=[71, 0]),
   midi.NoteOnEvent(tick=0, channel=0, data=[79, 62]),
   midi.NoteOnEvent(tick=240, channel=0, data=[79, 0]),
   midi.NoteOnEvent(tick=0, channel=0, data=[79, 69]),
   midi.NoteOnEvent(tick=720, channel=0, data=[79, 0]),
   midi.NoteOnEvent(tick=0, channel=0, data=[78, 49]),
   midi.NoteOnEvent(tick=120, channel=0, data=[78, 0]),
   midi.NoteOnEvent(tick=0, channel=0, data=[76, 45]),
   midi.NoteOnEvent(tick=120, channel=0, data=[76, 0]),
   midi.NoteOnEvent(tick=0, channel=0, data=[74, 50]),
   midi.NoteOnEvent(tick=120, channel=0, data=[74, 0]),
   midi.NoteOnEvent(tick=120, channel=0, data=[74, 45]),
   midi.NoteOnEvent(tick=120, channel=0, data=[74, 0]),
   midi.NoteOnEvent(tick=120, channel=0, data=[74, 50]),
   midi.NoteOnEvent(tick=120, channel=0, data=[76, 43]),
   midi.NoteOnEvent(tick=12, channel=0, data=[74, 0]),
   midi.NoteOnEvent(tick=108, channel=0, data=[74, 43]),
   midi.NoteOnEvent(tick=12, channel=0, data=[76, 0]),
   midi.NoteOnEvent(tick=108, channel=0, data=[72, 43]),
   midi.NoteOnEvent(tick=12, channel=0, data=[74, 0]),
   midi.NoteOnEvent(tick=108, channel=0, data=[71, 53]),
   midi.NoteOnEvent(tick=12, channel=0, data=[72, 0]),
   midi.NoteOnEvent(tick=228, channel=0, data=[71, 0]),
   midi.NoteOnEvent(tick=0, channel=0, data=[74, 46]),
   midi.NoteOnEvent(tick=120, channel=0, data=[74, 0]),
   midi.NoteOnEvent(tick=360, channel=0, data=[71, 46]),
   midi.NoteOnEvent(tick=240, channel=0, data=[71, 0]),
   midi.NoteOnEvent(tick=0, channel=0, data=[71, 53]),
   midi.NoteOnEvent(tick=240, channel=0, data=[71, 0]),
   midi.NoteOnEvent(tick=0, channel=0, data=[69, 49]),
   midi.NoteOnEvent(tick=240, channel=0, data=[69, 0]),
   midi.NoteOnEvent(tick=0, channel=0, data=[69, 58]),
   midi.NoteOnEvent(tick=240, channel=0, data=[69, 0]),
   midi.NoteOnEvent(tick=0, channel=0, data=[76, 62]),
   midi.NoteOnEvent(tick=240, channel=0, data=[76, 0]),
   midi.NoteOnEvent(tick=0, channel=0, data=[76, 69]),
   midi.NoteOnEvent(tick=720, channel=0, data=[76, 0]),
   midi.NoteOnEvent(tick=0, channel=0, data=[72, 49]),
   midi.NoteOnEvent(tick=120, channel=0, data=[72, 0]),
   midi.NoteOnEvent(tick=0, channel=0, data=[69, 45]),
   midi.NoteOnEvent(tick=120, channel=0, data=[69, 0]),
   midi.NoteOnEvent(tick=0, channel=0, data=[67, 50]),
   midi.NoteOnEvent(tick=120, channel=0, data=[67, 0]),
   midi.NoteOnEvent(tick=120, channel=0, data=[67, 45]),
   midi.NoteOnEvent(tick=120, channel=0, data=[67, 0]),
   midi.NoteOnEvent(tick=120, channel=0, data=[67, 50]),
   midi.NoteOnEvent(tick=120, channel=0, data=[66, 43]),
   midi.NoteOnEvent(tick=12, channel=0, data=[67, 0]),
   midi.NoteOnEvent(tick=108, channel=0, data=[64, 43]),
   midi.NoteOnEvent(tick=12, channel=0, data=[66, 0]),
   midi.NoteOnEvent(tick=108, channel=0, data=[66, 43]),
   midi.NoteOnEvent(tick=12, channel=0, data=[64, 0]),
   midi.NoteOnEvent(tick=108, channel=0, data=[67, 53]),
   midi.NoteOnEvent(tick=12, channel=0, data=[66, 0]),
   midi.NoteOnEvent(tick=468, channel=0, data=[67, 0]),
   midi.NoteOnEvent(tick=240, channel=0, data=[74, 50]),
   midi.NoteOnEvent(tick=120, channel=0, data=[72, 46]),
   midi.NoteOnEvent(tick=12, channel=0, data=[74, 0]),
   midi.NoteOnEvent(tick=108, channel=0, data=[71, 50]),
   midi.NoteOnEvent(tick=12, channel=0, data=[72, 0]),
   midi.NoteOnEvent(tick=108, channel=0, data=[69, 45]),
   midi.NoteOnEvent(tick=12, channel=0, data=[71, 0]),
   midi.NoteOnEvent(tick=108, channel=0, data=[67, 45]),
   midi.NoteOnEvent(tick=12, channel=0, data=[69, 0]),
   midi.NoteOnEvent(tick=108, channel=0, data=[66, 45]),
   midi.NoteOnEvent(tick=12, channel=0, data=[67, 0]),
   midi.NoteOnEvent(tick=108, channel=0, data=[64, 50]),
   midi.NoteOnEvent(tick=12, channel=0, data=[66, 0]),
   midi.NoteOnEvent(tick=108, channel=0, data=[66, 46]),
   midi.NoteOnEvent(tick=12, channel=0, data=[64, 0]),
   midi.NoteOnEvent(tick=108, channel=0, data=[67, 46]),
   midi.NoteOnEvent(tick=12, channel=0, data=[66, 0]),
   midi.NoteOnEvent(tick=108, channel=0, data=[64, 46]),
   midi.NoteOnEvent(tick=12, channel=0, data=[67, 0]),
   midi.NoteOnEvent(tick=108, channel=0, data=[62, 50]),
   midi.NoteOnEvent(tick=12, channel=0, data=[64, 0]),
   midi.NoteOnEvent(tick=228, channel=0, data=[62, 0]),
   midi.NoteOnEvent(tick=480, channel=0, data=[74, 50]),
   midi.NoteOnEvent(tick=120, channel=0, data=[72, 46]),
   midi.NoteOnEvent(tick=12, channel=0, data=[74, 0]),
   midi.NoteOnEvent(tick=108, channel=0, data=[71, 50]),
   midi.NoteOnEvent(tick=12, channel=0, data=[72, 0]),
   midi.NoteOnEvent(tick=108, channel=0, data=[69, 45]),
   midi.NoteOnEvent(tick=12, channel=0, data=[71, 0]),
   midi.NoteOnEvent(tick=108, channel=0, data=[67, 45]),
   midi.NoteOnEvent(tick=12, channel=0, data=[69, 0]),
   midi.NoteOnEvent(tick=108, channel=0, data=[66, 45]),
   midi.NoteOnEvent(tick=12, channel=0, data=[67, 0]),
   midi.NoteOnEvent(tick=108, channel=0, data=[64, 50]),
   midi.NoteOnEvent(tick=12, channel=0, data=[66, 0]),
   midi.NoteOnEvent(tick=108, channel=0, data=[66, 48]),
   midi.NoteOnEvent(tick=12, channel=0, data=[64, 0]),
   midi.NoteOnEvent(tick=108, channel=0, data=[67, 50]),
   midi.NoteOnEvent(tick=12, channel=0, data=[66, 0]),
   midi.NoteOnEvent(tick=108, channel=0, data=[64, 55]),
   midi.NoteOnEvent(tick=12, channel=0, data=[67, 0]),
   midi.NoteOnEvent(tick=108, channel=0, data=[62, 60]),
   midi.NoteOnEvent(tick=12, channel=0, data=[64, 0]),
   midi.NoteOnEvent(tick=108, channel=0, data=[62, 0]),
   midi.NoteOnEvent(tick=120, channel=0, data=[79, 62]),
   midi.NoteOnEvent(tick=120, channel=0, data=[79, 0]),
   midi.NoteOnEvent(tick=0, channel=0, data=[78, 58]),
   midi.NoteOnEvent(tick=120, channel=0, data=[78, 0]),
   midi.NoteOnEvent(tick=0, channel=0, data=[76, 56]),
   midi.NoteOnEvent(tick=120, channel=0, data=[76, 0]),
   midi.NoteOnEvent(tick=0, channel=0, data=[74, 56]),
   midi.NoteOnEvent(tick=120, channel=0, data=[74, 0]),
   midi.NoteOnEvent(tick=0, channel=0, data=[72, 56]),
   midi.NoteOnEvent(tick=120, channel=0, data=[72, 0]),
   midi.NoteOnEvent(tick=0, channel=0, data=[71, 56]),
   midi.NoteOnEvent(tick=120, channel=0, data=[71, 0]),
   midi.NoteOnEvent(tick=0, channel=0, data=[69, 62]),
   midi.NoteOnEvent(tick=120, channel=0, data=[69, 0]),
   midi.NoteOnEvent(tick=120, channel=0, data=[69, 58]),
   midi.NoteOnEvent(tick=120, channel=0, data=[69, 0]),
   midi.NoteOnEvent(tick=120, channel=0, data=[66, 52]),
   midi.NoteOnEvent(tick=0, channel=0, data=[74, 62]),
   midi.NoteOnEvent(tick=120, channel=0, data=[74, 0]),
   midi.NoteOnEvent(tick=0, channel=0, data=[66, 0]),
   midi.NoteOnEvent(tick=120, channel=0, data=[74, 57]),
   midi.NoteOnEvent(tick=0, channel=0, data=[66, 48]),
   midi.NoteOnEvent(tick=120, channel=0, data=[66, 0]),
   midi.NoteOnEvent(tick=0, channel=0, data=[74, 0]),
   midi.NoteOnEvent(tick=120, channel=0, data=[69, 52]),
   midi.NoteOnEvent(tick=0, channel=0, data=[72, 62]),
   midi.NoteOnEvent(tick=480, channel=0, data=[72, 0]),
   midi.NoteOnEvent(tick=0, channel=0, data=[69, 0]),
   midi.NoteOnEvent(tick=0, channel=0, data=[71, 59]),
   midi.NoteOnEvent(tick=0, channel=0, data=[67, 50]),
   midi.NoteOnEvent(tick=240, channel=0, data=[67, 0]),
   midi.NoteOnEvent(tick=0, channel=0, data=[71, 0]),
   midi.NoteOnEvent(tick=0, channel=0, data=[83, 50]),
   midi.NoteOnEvent(tick=120, channel=0, data=[81, 46]),
   midi.NoteOnEvent(tick=12, channel=0, data=[83, 0]),
   midi.NoteOnEvent(tick=108, channel=0, data=[79, 50]),
   midi.NoteOnEvent(tick=12, channel=0, data=[81, 0]),
   midi.NoteOnEvent(tick=108, channel=0, data=[78, 45]),
   midi.NoteOnEvent(tick=12, channel=0, data=[79, 0]),
   midi.NoteOnEvent(tick=108, channel=0, data=[76, 45]),
   midi.NoteOnEvent(tick=12, channel=0, data=[78, 0]),
   midi.NoteOnEvent(tick=108, channel=0, data=[75, 45]),
   midi.NoteOnEvent(tick=12, channel=0, data=[76, 0]),
   midi.NoteOnEvent(tick=108, channel=0, data=[76, 50]),
   midi.NoteOnEvent(tick=12, channel=0, data=[75, 0]),
   midi.NoteOnEvent(tick=108, channel=0, data=[78, 46]),
   midi.NoteOnEvent(tick=12, channel=0, data=[76, 0]),
   midi.NoteOnEvent(tick=108, channel=0, data=[79, 46]),
   midi.NoteOnEvent(tick=12, channel=0, data=[78, 0]),
   midi.NoteOnEvent(tick=108, channel=0, data=[76, 46]),
   midi.NoteOnEvent(tick=12, channel=0, data=[79, 0]),
   midi.NoteOnEvent(tick=108, channel=0, data=[74, 50]),
   midi.NoteOnEvent(tick=12, channel=0, data=[76, 0]),
   midi.NoteOnEvent(tick=108, channel=0, data=[72, 46]),
   midi.NoteOnEvent(tick=12, channel=0, data=[74, 0]),
   midi.NoteOnEvent(tick=108, channel=0, data=[71, 46]),
   midi.NoteOnEvent(tick=12, channel=0, data=[72, 0]),
   midi.NoteOnEvent(tick=108, channel=0, data=[72, 46]),
   midi.NoteOnEvent(tick=12, channel=0, data=[71, 0]),
   midi.NoteOnEvent(tick=108, channel=0, data=[74, 50]),
   midi.NoteOnEvent(tick=12, channel=0, data=[72, 0]),
   midi.NoteOnEvent(tick=108, channel=0, data=[74, 0]),
   midi.NoteOnEvent(tick=120, channel=0, data=[83, 50]),
   midi.NoteOnEvent(tick=120, channel=0, data=[81, 46]),
   midi.NoteOnEvent(tick=12, channel=0, data=[83, 0]),
   midi.NoteOnEvent(tick=108, channel=0, data=[79, 50]),
   midi.NoteOnEvent(tick=12, channel=0, data=[81, 0]),
   midi.NoteOnEvent(tick=108, channel=0, data=[78, 45]),
   midi.NoteOnEvent(tick=12, channel=0, data=[79, 0]),
   midi.NoteOnEvent(tick=108, channel=0, data=[76, 45]),
   midi.NoteOnEvent(tick=12, channel=0, data=[78, 0]),
   midi.NoteOnEvent(tick=108, channel=0, data=[75, 45]),
   midi.NoteOnEvent(tick=12, channel=0, data=[76, 0]),
   midi.NoteOnEvent(tick=108, channel=0, data=[76, 50]),
   midi.NoteOnEvent(tick=12, channel=0, data=[75, 0]),
   midi.NoteOnEvent(tick=108, channel=0, data=[78, 48]),
   midi.NoteOnEvent(tick=12, channel=0, data=[76, 0]),
   midi.NoteOnEvent(tick=108, channel=0, data=[79, 50]),
   midi.NoteOnEvent(tick=12, channel=0, data=[78, 0]),
   midi.NoteOnEvent(tick=108, channel=0, data=[76, 55]),
   midi.NoteOnEvent(tick=12, channel=0, data=[79, 0]),
   midi.NoteOnEvent(tick=108, channel=0, data=[74, 62]),
   midi.NoteOnEvent(tick=12, channel=0, data=[76, 0]),
   midi.NoteOnEvent(tick=108, channel=0, data=[74, 0]),
   midi.NoteOnEvent(tick=0, channel=0, data=[79, 53]),
   midi.NoteOnEvent(tick=120, channel=0, data=[79, 0]),
   midi.NoteOnEvent(tick=0, channel=0, data=[83, 56]),
   midi.NoteOnEvent(tick=120, channel=0, data=[83, 0]),
   midi.NoteOnEvent(tick=0, channel=0, data=[86, 54]),
   midi.NoteOnEvent(tick=120, channel=0, data=[86, 0]),
   midi.NoteOnEvent(tick=0, channel=0, data=[84, 62]),
   midi.NoteOnEvent(tick=120, channel=0, data=[84, 0]),
   midi.NoteOnEvent(tick=0, channel=0, data=[83, 53]),
   midi.NoteOnEvent(tick=120, channel=0, data=[83, 0]),
   midi.NoteOnEvent(tick=0, channel=0, data=[81, 56]),
   midi.NoteOnEvent(tick=120, channel=0, data=[81, 0]),
   midi.NoteOnEvent(tick=0, channel=0, data=[79, 59]),
   midi.NoteOnEvent(tick=120, channel=0, data=[79, 0]),
   midi.NoteOnEvent(tick=0, channel=0, data=[78, 67]),
   midi.NoteOnEvent(tick=120, channel=0, data=[78, 0]),
   midi.NoteOnEvent(tick=0, channel=0, data=[76, 55]),
   midi.NoteOnEvent(tick=120, channel=0, data=[76, 0]),
   midi.NoteOnEvent(tick=0, channel=0, data=[74, 58]),
   midi.NoteOnEvent(tick=120, channel=0, data=[74, 0]),
   midi.NoteOnEvent(tick=0, channel=0, data=[72, 55]),
   midi.NoteOnEvent(tick=120, channel=0, data=[72, 0]),
   midi.NoteOnEvent(tick=0, channel=0, data=[71, 66]),
   midi.NoteOnEvent(tick=120, channel=0, data=[71, 0]),
   midi.NoteOnEvent(tick=0, channel=0, data=[69, 53]),
   midi.NoteOnEvent(tick=120, channel=0, data=[69, 0]),
   midi.NoteOnEvent(tick=0, channel=0, data=[67, 58]),
   midi.NoteOnEvent(tick=120, channel=0, data=[67, 0]),
   midi.NoteOnEvent(tick=0, channel=0, data=[66, 56]),
   midi.NoteOnEvent(tick=120, channel=0, data=[66, 0]),
   midi.NoteOnEvent(tick=0, channel=0, data=[67, 67]),
   midi.NoteOnEvent(tick=120, channel=0, data=[67, 0]),
   midi.NoteOnEvent(tick=0, channel=0, data=[71, 58]),
   midi.NoteOnEvent(tick=120, channel=0, data=[71, 0]),
   midi.NoteOnEvent(tick=0, channel=0, data=[74, 64]),
   midi.NoteOnEvent(tick=120, channel=0, data=[74, 0]),
   midi.NoteOnEvent(tick=0, channel=0, data=[71, 58]),
   midi.NoteOnEvent(tick=120, channel=0, data=[71, 0]),
   midi.NoteOnEvent(tick=0, channel=0, data=[74, 67]),
   midi.NoteOnEvent(tick=120, channel=0, data=[74, 0]),
   midi.NoteOnEvent(tick=0, channel=0, data=[71, 59]),
   midi.NoteOnEvent(tick=120, channel=0, data=[71, 0]),
   midi.NoteOnEvent(tick=0, channel=0, data=[72, 64]),
   midi.NoteOnEvent(tick=120, channel=0, data=[72, 0]),
   midi.NoteOnEvent(tick=0, channel=0, data=[69, 58]),
   midi.NoteOnEvent(tick=120, channel=0, data=[69, 0]),
   midi.NoteOnEvent(tick=0, channel=0, data=[67, 67]),
   midi.NoteOnEvent(tick=120, channel=0, data=[67, 0]),
   midi.NoteOnEvent(tick=0, channel=0, data=[71, 59]),
   midi.NoteOnEvent(tick=120, channel=0, data=[71, 0]),
   midi.NoteOnEvent(tick=0, channel=0, data=[74, 63]),
   midi.NoteOnEvent(tick=120, channel=0, data=[74, 0]),
   midi.NoteOnEvent(tick=0, channel=0, data=[71, 58]),
   midi.NoteOnEvent(tick=120, channel=0, data=[71, 0]),
   midi.NoteOnEvent(tick=0, channel=0, data=[74, 67]),
   midi.NoteOnEvent(tick=120, channel=0, data=[74, 0]),
   midi.NoteOnEvent(tick=0, channel=0, data=[71, 59]),
   midi.NoteOnEvent(tick=120, channel=0, data=[71, 0]),
   midi.NoteOnEvent(tick=0, channel=0, data=[72, 65]),
   midi.NoteOnEvent(tick=120, channel=0, data=[72, 0]),
   midi.NoteOnEvent(tick=0, channel=0, data=[69, 59]),
   midi.NoteOnEvent(tick=120, channel=0, data=[69, 0]),
   midi.NoteOnEvent(tick=0, channel=0, data=[67, 70]),
   midi.NoteOnEvent(tick=240, channel=0, data=[67, 0]),
   midi.NoteOnEvent(tick=240, channel=0, data=[71, 59]),
   midi.NoteOnEvent(tick=0, channel=0, data=[74, 59]),
   midi.NoteOnEvent(tick=0, channel=0, data=[79, 70]),
   midi.NoteOnEvent(tick=240, channel=0, data=[79, 0]),
   midi.NoteOnEvent(tick=0, channel=0, data=[74, 0]),
   midi.NoteOnEvent(tick=0, channel=0, data=[71, 0]),
   midi.NoteOnEvent(tick=240, channel=0, data=[71, 59]),
   midi.NoteOnEvent(tick=0, channel=0, data=[74, 59]),
   midi.NoteOnEvent(tick=0, channel=0, data=[79, 70]),
   midi.NoteOnEvent(tick=480, channel=0, data=[79, 0]),
   midi.NoteOnEvent(tick=0, channel=0, data=[74, 0]),
   midi.NoteOnEvent(tick=0, channel=0, data=[71, 0]),
   midi.EndOfTrackEvent(tick=0, data=[])]),
 midi.Track(\
[    midi.NoteOnEvent(tick=960, channel=0, data=[55, 35]),
   midi.NoteOnEvent(tick=240, channel=0, data=[55, 0]),
   midi.NoteOnEvent(tick=0, channel=0, data=[59, 28]),
   midi.NoteOnEvent(tick=240, channel=0, data=[59, 0]),
   midi.NoteOnEvent(tick=0, channel=0, data=[62, 28]),
   midi.NoteOnEvent(tick=240, channel=0, data=[62, 0]),
   midi.NoteOnEvent(tick=0, channel=0, data=[59, 32]),
   midi.NoteOnEvent(tick=240, channel=0, data=[59, 0]),
   midi.NoteOnEvent(tick=0, channel=0, data=[55, 41]),
   midi.NoteOnEvent(tick=240, channel=0, data=[55, 0]),
   midi.NoteOnEvent(tick=0, channel=0, data=[59, 33]),
   midi.NoteOnEvent(tick=240, channel=0, data=[59, 0]),
   midi.NoteOnEvent(tick=0, channel=0, data=[62, 31]),
   midi.NoteOnEvent(tick=240, channel=0, data=[62, 0]),
   midi.NoteOnEvent(tick=0, channel=0, data=[59, 31]),
   midi.NoteOnEvent(tick=240, channel=0, data=[59, 0]),
   midi.NoteOnEvent(tick=0, channel=0, data=[54, 35]),
   midi.NoteOnEvent(tick=240, channel=0, data=[54, 0]),
   midi.NoteOnEvent(tick=0, channel=0, data=[57, 31]),
   midi.NoteOnEvent(tick=240, channel=0, data=[57, 0]),
   midi.NoteOnEvent(tick=0, channel=0, data=[62, 35]),
   midi.NoteOnEvent(tick=240, channel=0, data=[62, 0]),
   midi.NoteOnEvent(tick=0, channel=0, data=[57, 30]),
   midi.NoteOnEvent(tick=240, channel=0, data=[57, 0]),
   midi.NoteOnEvent(tick=0, channel=0, data=[55, 35]),
   midi.NoteOnEvent(tick=240, channel=0, data=[55, 0]),
   midi.NoteOnEvent(tick=0, channel=0, data=[59, 30]),
   midi.NoteOnEvent(tick=240, channel=0, data=[59, 0]),
   midi.NoteOnEvent(tick=0, channel=0, data=[62, 30]),
   midi.NoteOnEvent(tick=240, channel=0, data=[62, 0]),
   midi.NoteOnEvent(tick=0, channel=0, data=[59, 30]),
   midi.NoteOnEvent(tick=240, channel=0, data=[59, 0]),
   midi.NoteOnEvent(tick=0, channel=0, data=[55, 35]),
   midi.NoteOnEvent(tick=240, channel=0, data=[55, 0]),
   midi.NoteOnEvent(tick=0, channel=0, data=[59, 28]),
   midi.NoteOnEvent(tick=240, channel=0, data=[59, 0]),
   midi.NoteOnEvent(tick=0, channel=0, data=[62, 34]),
   midi.NoteOnEvent(tick=240, channel=0, data=[62, 0]),
   midi.NoteOnEvent(tick=0, channel=0, data=[59, 39]),
   midi.NoteOnEvent(tick=240, channel=0, data=[59, 0]),
   midi.NoteOnEvent(tick=0, channel=0, data=[55, 42]),
   midi.NoteOnEvent(tick=240, channel=0, data=[55, 0]),
   midi.NoteOnEvent(tick=0, channel=0, data=[59, 38]),
   midi.NoteOnEvent(tick=240, channel=0, data=[59, 0]),
   midi.NoteOnEvent(tick=0, channel=0, data=[64, 31]),
   midi.NoteOnEvent(tick=240, channel=0, data=[64, 0]),
   midi.NoteOnEvent(tick=240, channel=0, data=[66, 35]),
   midi.NoteOnEvent(tick=0, channel=0, data=[57, 35]),
   midi.NoteOnEvent(tick=120, channel=0, data=[57, 0]),
   midi.NoteOnEvent(tick=0, channel=0, data=[66, 0]),
   midi.NoteOnEvent(tick=120, channel=0, data=[66, 31]),
   midi.NoteOnEvent(tick=0, channel=0, data=[57, 31]),
   midi.NoteOnEvent(tick=120, channel=0, data=[57, 0]),
   midi.NoteOnEvent(tick=0, channel=0, data=[66, 0]),
   midi.NoteOnEvent(tick=120, channel=0, data=[57, 35]),
   midi.NoteOnEvent(tick=0, channel=0, data=[64, 35]),
   midi.NoteOnEvent(tick=120, channel=0, data=[64, 0]),
   midi.NoteOnEvent(tick=0, channel=0, data=[57, 0]),
   midi.NoteOnEvent(tick=120, channel=0, data=[64, 30]),
   midi.NoteOnEvent(tick=0, channel=0, data=[57, 30]),
   midi.NoteOnEvent(tick=120, channel=0, data=[57, 0]),
   midi.NoteOnEvent(tick=0, channel=0, data=[64, 0]),
   midi.NoteOnEvent(tick=120, channel=0, data=[50, 35]),
   midi.NoteOnEvent(tick=120, channel=0, data=[50, 0]),
   midi.NoteOnEvent(tick=120, channel=0, data=[62, 30]),
   midi.NoteOnEvent(tick=120, channel=0, data=[62, 0]),
   midi.NoteOnEvent(tick=120, channel=0, data=[50, 35]),
   midi.NoteOnEvent(tick=120, channel=0, data=[50, 0]),
   midi.NoteOnEvent(tick=120, channel=0, data=[62, 35]),
   midi.NoteOnEvent(tick=120, channel=0, data=[62, 0]),
   midi.NoteOnEvent(tick=120, channel=0, data=[50, 35]),
   midi.NoteOnEvent(tick=120, channel=0, data=[50, 0]),
   midi.NoteOnEvent(tick=120, channel=0, data=[62, 32]),
   midi.NoteOnEvent(tick=120, channel=0, data=[62, 0]),
   midi.NoteOnEvent(tick=120, channel=0, data=[50, 35]),
   midi.NoteOnEvent(tick=120, channel=0, data=[50, 0]),
   midi.NoteOnEvent(tick=120, channel=0, data=[62, 31]),
   midi.NoteOnEvent(tick=120, channel=0, data=[62, 0]),
   midi.NoteOnEvent(tick=120, channel=0, data=[50, 35]),
   midi.NoteOnEvent(tick=120, channel=0, data=[52, 30]),
   midi.NoteOnEvent(tick=12, channel=0, data=[50, 0]),
   midi.NoteOnEvent(tick=108, channel=0, data=[54, 31]),
   midi.NoteOnEvent(tick=12, channel=0, data=[52, 0]),
   midi.NoteOnEvent(tick=108, channel=0, data=[55, 31]),
   midi.NoteOnEvent(tick=12, channel=0, data=[54, 0]),
   midi.NoteOnEvent(tick=108, channel=0, data=[57, 32]),
   midi.NoteOnEvent(tick=12, channel=0, data=[55, 0]),
   midi.NoteOnEvent(tick=108, channel=0, data=[59, 34]),
   midi.NoteOnEvent(tick=12, channel=0, data=[57, 0]),
   midi.NoteOnEvent(tick=108, channel=0, data=[61, 34]),
   midi.NoteOnEvent(tick=12, channel=0, data=[59, 0]),
   midi.NoteOnEvent(tick=108, channel=0, data=[62, 36]),
   midi.NoteOnEvent(tick=12, channel=0, data=[61, 0]),
   midi.NoteOnEvent(tick=108, channel=0, data=[62, 0]),
   midi.NoteOnEvent(tick=0, channel=0, data=[50, 35]),
   midi.NoteOnEvent(tick=120, channel=0, data=[50, 0]),
   midi.NoteOnEvent(tick=120, channel=0, data=[62, 32]),
   midi.NoteOnEvent(tick=120, channel=0, data=[62, 0]),
   midi.NoteOnEvent(tick=120, channel=0, data=[50, 42]),
   midi.NoteOnEvent(tick=120, channel=0, data=[50, 0]),
   midi.NoteOnEvent(tick=120, channel=0, data=[62, 37]),
   midi.NoteOnEvent(tick=120, channel=0, data=[62, 0]),
   midi.NoteOnEvent(tick=120, channel=0, data=[50, 48]),
   midi.NoteOnEvent(tick=120, channel=0, data=[50, 0]),
   midi.NoteOnEvent(tick=0, channel=0, data=[54, 41]),
   midi.NoteOnEvent(tick=120, channel=0, data=[54, 0]),
   midi.NoteOnEvent(tick=0, channel=0, data=[57, 47]),
   midi.NoteOnEvent(tick=120, channel=0, data=[57, 0]),
   midi.NoteOnEvent(tick=0, channel=0, data=[62, 41]),
   midi.NoteOnEvent(tick=120, channel=0, data=[62, 0]),
   midi.NoteOnEvent(tick=480, channel=0, data=[55, 40]),
   midi.NoteOnEvent(tick=0, channel=0, data=[59, 48]),
   midi.NoteOnEvent(tick=120, channel=0, data=[59, 0]),
   midi.NoteOnEvent(tick=0, channel=0, data=[55, 0]),
   midi.NoteOnEvent(tick=120, channel=0, data=[59, 43]),
   midi.NoteOnEvent(tick=0, channel=0, data=[55, 36]),
   midi.NoteOnEvent(tick=120, channel=0, data=[55, 0]),
   midi.NoteOnEvent(tick=0, channel=0, data=[59, 0]),
   midi.NoteOnEvent(tick=120, channel=0, data=[57, 48]),
   midi.NoteOnEvent(tick=120, channel=0, data=[57, 0]),
   midi.NoteOnEvent(tick=120, channel=0, data=[57, 43]),
   midi.NoteOnEvent(tick=120, channel=0, data=[57, 0]),
   midi.NoteOnEvent(tick=120, channel=0, data=[50, 35]),
   midi.NoteOnEvent(tick=120, channel=0, data=[50, 0]),
   midi.NoteOnEvent(tick=120, channel=0, data=[62, 32]),
   midi.NoteOnEvent(tick=120, channel=0, data=[62, 0]),
   midi.NoteOnEvent(tick=120, channel=0, data=[50, 35]),
   midi.NoteOnEvent(tick=120, channel=0, data=[50, 0]),
   midi.NoteOnEvent(tick=120, channel=0, data=[62, 35]),
   midi.NoteOnEvent(tick=120, channel=0, data=[62, 0]),
   midi.NoteOnEvent(tick=120, channel=0, data=[50, 35]),
   midi.NoteOnEvent(tick=120, channel=0, data=[50, 0]),
   midi.NoteOnEvent(tick=120, channel=0, data=[62, 32]),
   midi.NoteOnEvent(tick=120, channel=0, data=[62, 0]),
   midi.NoteOnEvent(tick=120, channel=0, data=[50, 35]),
   midi.NoteOnEvent(tick=120, channel=0, data=[50, 0]),
   midi.NoteOnEvent(tick=120, channel=0, data=[62, 31]),
   midi.NoteOnEvent(tick=120, channel=0, data=[62, 0]),
   midi.NoteOnEvent(tick=120, channel=0, data=[50, 35]),
   midi.NoteOnEvent(tick=120, channel=0, data=[50, 0]),
   midi.NoteOnEvent(tick=120, channel=0, data=[62, 32]),
   midi.NoteOnEvent(tick=120, channel=0, data=[62, 0]),
   midi.NoteOnEvent(tick=120, channel=0, data=[50, 35]),
   midi.NoteOnEvent(tick=120, channel=0, data=[50, 0]),
   midi.NoteOnEvent(tick=120, channel=0, data=[62, 31]),
   midi.NoteOnEvent(tick=120, channel=0, data=[62, 0]),
   midi.NoteOnEvent(tick=120, channel=0, data=[50, 35]),
   midi.NoteOnEvent(tick=120, channel=0, data=[50, 0]),
   midi.NoteOnEvent(tick=120, channel=0, data=[62, 32]),
   midi.NoteOnEvent(tick=120, channel=0, data=[62, 0]),
   midi.NoteOnEvent(tick=120, channel=0, data=[50, 42]),
   midi.NoteOnEvent(tick=120, channel=0, data=[50, 0]),
   midi.NoteOnEvent(tick=120, channel=0, data=[62, 37]),
   midi.NoteOnEvent(tick=120, channel=0, data=[62, 0]),
   midi.NoteOnEvent(tick=120, channel=0, data=[50, 48]),
   midi.NoteOnEvent(tick=120, channel=0, data=[50, 0]),
   midi.NoteOnEvent(tick=0, channel=0, data=[54, 41]),
   midi.NoteOnEvent(tick=120, channel=0, data=[54, 0]),
   midi.NoteOnEvent(tick=0, channel=0, data=[57, 47]),
   midi.NoteOnEvent(tick=120, channel=0, data=[57, 0]),
   midi.NoteOnEvent(tick=0, channel=0, data=[62, 41]),
   midi.NoteOnEvent(tick=120, channel=0, data=[62, 0]),
   midi.NoteOnEvent(tick=480, channel=0, data=[55, 49]),
   midi.NoteOnEvent(tick=240, channel=0, data=[55, 0]),
   midi.NoteOnEvent(tick=0, channel=0, data=[52, 40]),
   midi.NoteOnEvent(tick=240, channel=0, data=[52, 0]),
   midi.NoteOnEvent(tick=0, channel=0, data=[57, 47]),
   midi.NoteOnEvent(tick=240, channel=0, data=[57, 0]),
   midi.NoteOnEvent(tick=0, channel=0, data=[45, 42]),
   midi.NoteOnEvent(tick=240, channel=0, data=[45, 0]),
   midi.NoteOnEvent(tick=0, channel=0, data=[50, 49]),
   midi.NoteOnEvent(tick=240, channel=0, data=[50, 0]),
   midi.NoteOnEvent(tick=480, channel=0, data=[45, 49]),
   midi.NoteOnEvent(tick=120, channel=0, data=[45, 0]),
   midi.NoteOnEvent(tick=120, channel=0, data=[50, 57]),
   midi.NoteOnEvent(tick=120, channel=0, data=[50, 0]),
   midi.NoteOnEvent(tick=600, channel=0, data=[45, 49]),
   midi.NoteOnEvent(tick=120, channel=0, data=[45, 0]),
   midi.NoteOnEvent(tick=120, channel=0, data=[50, 56]),
   midi.NoteOnEvent(tick=120, channel=0, data=[50, 0]),
   midi.NoteOnEvent(tick=120, channel=0, data=[38, 49]),
   midi.NoteOnEvent(tick=120, channel=0, data=[38, 0]),
   midi.NoteOnEvent(tick=120, channel=0, data=[38, 54]),
   midi.NoteOnEvent(tick=120, channel=0, data=[38, 0]),
   midi.NoteOnEvent(tick=360, channel=0, data=[55, 35]),
   midi.NoteOnEvent(tick=240, channel=0, data=[55, 0]),
   midi.NoteOnEvent(tick=0, channel=0, data=[59, 28]),
   midi.NoteOnEvent(tick=240, channel=0, data=[59, 0]),
   midi.NoteOnEvent(tick=0, channel=0, data=[62, 28]),
   midi.NoteOnEvent(tick=240, channel=0, data=[62, 0]),
   midi.NoteOnEvent(tick=0, channel=0, data=[59, 32]),
   midi.NoteOnEvent(tick=240, channel=0, data=[59, 0]),
   midi.NoteOnEvent(tick=0, channel=0, data=[55, 41]),
   midi.NoteOnEvent(tick=240, channel=0, data=[55, 0]),
   midi.NoteOnEvent(tick=0, channel=0, data=[59, 33]),
   midi.NoteOnEvent(tick=240, channel=0, data=[59, 0]),
   midi.NoteOnEvent(tick=0, channel=0, data=[62, 31]),
   midi.NoteOnEvent(tick=240, channel=0, data=[62, 0]),
   midi.NoteOnEvent(tick=0, channel=0, data=[59, 31]),
   midi.NoteOnEvent(tick=240, channel=0, data=[59, 0]),
   midi.NoteOnEvent(tick=0, channel=0, data=[54, 35]),
   midi.NoteOnEvent(tick=240, channel=0, data=[54, 0]),
   midi.NoteOnEvent(tick=0, channel=0, data=[57, 31]),
   midi.NoteOnEvent(tick=240, channel=0, data=[57, 0]),
   midi.NoteOnEvent(tick=0, channel=0, data=[62, 35]),
   midi.NoteOnEvent(tick=240, channel=0, data=[62, 0]),
   midi.NoteOnEvent(tick=0, channel=0, data=[57, 30]),
   midi.NoteOnEvent(tick=240, channel=0, data=[57, 0]),
   midi.NoteOnEvent(tick=0, channel=0, data=[55, 35]),
   midi.NoteOnEvent(tick=240, channel=0, data=[55, 0]),
   midi.NoteOnEvent(tick=0, channel=0, data=[59, 30]),
   midi.NoteOnEvent(tick=240, channel=0, data=[59, 0]),
   midi.NoteOnEvent(tick=0, channel=0, data=[62, 30]),
   midi.NoteOnEvent(tick=240, channel=0, data=[62, 0]),
   midi.NoteOnEvent(tick=0, channel=0, data=[59, 30]),
   midi.NoteOnEvent(tick=240, channel=0, data=[59, 0]),
   midi.NoteOnEvent(tick=0, channel=0, data=[55, 35]),
   midi.NoteOnEvent(tick=240, channel=0, data=[55, 0]),
   midi.NoteOnEvent(tick=0, channel=0, data=[59, 28]),
   midi.NoteOnEvent(tick=240, channel=0, data=[59, 0]),
   midi.NoteOnEvent(tick=0, channel=0, data=[62, 34]),
   midi.NoteOnEvent(tick=240, channel=0, data=[62, 0]),
   midi.NoteOnEvent(tick=0, channel=0, data=[59, 39]),
   midi.NoteOnEvent(tick=240, channel=0, data=[59, 0]),
   midi.NoteOnEvent(tick=0, channel=0, data=[55, 42]),
   midi.NoteOnEvent(tick=240, channel=0, data=[55, 0]),
   midi.NoteOnEvent(tick=0, channel=0, data=[59, 38]),
   midi.NoteOnEvent(tick=240, channel=0, data=[59, 0]),
   midi.NoteOnEvent(tick=0, channel=0, data=[64, 31]),
   midi.NoteOnEvent(tick=240, channel=0, data=[64, 0]),
   midi.NoteOnEvent(tick=240, channel=0, data=[66, 35]),
   midi.NoteOnEvent(tick=0, channel=0, data=[57, 35]),
   midi.NoteOnEvent(tick=120, channel=0, data=[57, 0]),
   midi.NoteOnEvent(tick=0, channel=0, data=[66, 0]),
   midi.NoteOnEvent(tick=120, channel=0, data=[66, 31]),
   midi.NoteOnEvent(tick=0, channel=0, data=[57, 31]),
   midi.NoteOnEvent(tick=120, channel=0, data=[57, 0]),
   midi.NoteOnEvent(tick=0, channel=0, data=[66, 0]),
   midi.NoteOnEvent(tick=120, channel=0, data=[57, 35]),
   midi.NoteOnEvent(tick=0, channel=0, data=[64, 35]),
   midi.NoteOnEvent(tick=120, channel=0, data=[64, 0]),
   midi.NoteOnEvent(tick=0, channel=0, data=[57, 0]),
   midi.NoteOnEvent(tick=120, channel=0, data=[64, 30]),
   midi.NoteOnEvent(tick=0, channel=0, data=[57, 30]),
   midi.NoteOnEvent(tick=120, channel=0, data=[57, 0]),
   midi.NoteOnEvent(tick=0, channel=0, data=[64, 0]),
   midi.NoteOnEvent(tick=120, channel=0, data=[50, 35]),
   midi.NoteOnEvent(tick=120, channel=0, data=[50, 0]),
   midi.NoteOnEvent(tick=120, channel=0, data=[62, 30]),
   midi.NoteOnEvent(tick=120, channel=0, data=[62, 0]),
   midi.NoteOnEvent(tick=120, channel=0, data=[50, 35]),
   midi.NoteOnEvent(tick=120, channel=0, data=[50, 0]),
   midi.NoteOnEvent(tick=120, channel=0, data=[62, 35]),
   midi.NoteOnEvent(tick=120, channel=0, data=[62, 0]),
   midi.NoteOnEvent(tick=120, channel=0, data=[50, 35]),
   midi.NoteOnEvent(tick=120, channel=0, data=[50, 0]),
   midi.NoteOnEvent(tick=120, channel=0, data=[62, 32]),
   midi.NoteOnEvent(tick=120, channel=0, data=[62, 0]),
   midi.NoteOnEvent(tick=120, channel=0, data=[50, 35]),
   midi.NoteOnEvent(tick=120, channel=0, data=[50, 0]),
   midi.NoteOnEvent(tick=120, channel=0, data=[62, 31]),
   midi.NoteOnEvent(tick=120, channel=0, data=[62, 0]),
   midi.NoteOnEvent(tick=120, channel=0, data=[50, 35]),
   midi.NoteOnEvent(tick=120, channel=0, data=[52, 30]),
   midi.NoteOnEvent(tick=12, channel=0, data=[50, 0]),
   midi.NoteOnEvent(tick=108, channel=0, data=[54, 31]),
   midi.NoteOnEvent(tick=12, channel=0, data=[52, 0]),
   midi.NoteOnEvent(tick=108, channel=0, data=[55, 31]),
   midi.NoteOnEvent(tick=12, channel=0, data=[54, 0]),
   midi.NoteOnEvent(tick=108, channel=0, data=[57, 32]),
   midi.NoteOnEvent(tick=12, channel=0, data=[55, 0]),
   midi.NoteOnEvent(tick=108, channel=0, data=[59, 34]),
   midi.NoteOnEvent(tick=12, channel=0, data=[57, 0]),
   midi.NoteOnEvent(tick=108, channel=0, data=[61, 34]),
   midi.NoteOnEvent(tick=12, channel=0, data=[59, 0]),
   midi.NoteOnEvent(tick=108, channel=0, data=[62, 36]),
   midi.NoteOnEvent(tick=12, channel=0, data=[61, 0]),
   midi.NoteOnEvent(tick=108, channel=0, data=[62, 0]),
   midi.NoteOnEvent(tick=0, channel=0, data=[50, 35]),
   midi.NoteOnEvent(tick=120, channel=0, data=[50, 0]),
   midi.NoteOnEvent(tick=120, channel=0, data=[62, 32]),
   midi.NoteOnEvent(tick=120, channel=0, data=[62, 0]),
   midi.NoteOnEvent(tick=120, channel=0, data=[50, 42]),
   midi.NoteOnEvent(tick=120, channel=0, data=[50, 0]),
   midi.NoteOnEvent(tick=120, channel=0, data=[62, 37]),
   midi.NoteOnEvent(tick=120, channel=0, data=[62, 0]),
   midi.NoteOnEvent(tick=120, channel=0, data=[50, 48]),
   midi.NoteOnEvent(tick=120, channel=0, data=[50, 0]),
   midi.NoteOnEvent(tick=0, channel=0, data=[54, 41]),
   midi.NoteOnEvent(tick=120, channel=0, data=[54, 0]),
   midi.NoteOnEvent(tick=0, channel=0, data=[57, 47]),
   midi.NoteOnEvent(tick=120, channel=0, data=[57, 0]),
   midi.NoteOnEvent(tick=0, channel=0, data=[62, 41]),
   midi.NoteOnEvent(tick=120, channel=0, data=[62, 0]),
   midi.NoteOnEvent(tick=480, channel=0, data=[55, 40]),
   midi.NoteOnEvent(tick=0, channel=0, data=[59, 48]),
   midi.NoteOnEvent(tick=120, channel=0, data=[59, 0]),
   midi.NoteOnEvent(tick=0, channel=0, data=[55, 0]),
   midi.NoteOnEvent(tick=120, channel=0, data=[59, 43]),
   midi.NoteOnEvent(tick=0, channel=0, data=[55, 36]),
   midi.NoteOnEvent(tick=120, channel=0, data=[55, 0]),
   midi.NoteOnEvent(tick=0, channel=0, data=[59, 0]),
   midi.NoteOnEvent(tick=120, channel=0, data=[57, 48]),
   midi.NoteOnEvent(tick=120, channel=0, data=[57, 0]),
   midi.NoteOnEvent(tick=120, channel=0, data=[57, 43]),
   midi.NoteOnEvent(tick=120, channel=0, data=[57, 0]),
   midi.NoteOnEvent(tick=120, channel=0, data=[50, 35]),
   midi.NoteOnEvent(tick=120, channel=0, data=[50, 0]),
   midi.NoteOnEvent(tick=120, channel=0, data=[62, 32]),
   midi.NoteOnEvent(tick=120, channel=0, data=[62, 0]),
   midi.NoteOnEvent(tick=120, channel=0, data=[50, 35]),
   midi.NoteOnEvent(tick=120, channel=0, data=[50, 0]),
   midi.NoteOnEvent(tick=120, channel=0, data=[62, 35]),
   midi.NoteOnEvent(tick=120, channel=0, data=[62, 0]),
   midi.NoteOnEvent(tick=120, channel=0, data=[50, 35]),
   midi.NoteOnEvent(tick=120, channel=0, data=[50, 0]),
   midi.NoteOnEvent(tick=120, channel=0, data=[62, 32]),
   midi.NoteOnEvent(tick=120, channel=0, data=[62, 0]),
   midi.NoteOnEvent(tick=120, channel=0, data=[50, 35]),
   midi.NoteOnEvent(tick=120, channel=0, data=[50, 0]),
   midi.NoteOnEvent(tick=120, channel=0, data=[62, 31]),
   midi.NoteOnEvent(tick=120, channel=0, data=[62, 0]),
   midi.NoteOnEvent(tick=120, channel=0, data=[50, 35]),
   midi.NoteOnEvent(tick=120, channel=0, data=[50, 0]),
   midi.NoteOnEvent(tick=120, channel=0, data=[62, 32]),
   midi.NoteOnEvent(tick=120, channel=0, data=[62, 0]),
   midi.NoteOnEvent(tick=120, channel=0, data=[50, 35]),
   midi.NoteOnEvent(tick=120, channel=0, data=[50, 0]),
   midi.NoteOnEvent(tick=120, channel=0, data=[62, 31]),
   midi.NoteOnEvent(tick=120, channel=0, data=[62, 0]),
   midi.NoteOnEvent(tick=120, channel=0, data=[50, 35]),
   midi.NoteOnEvent(tick=120, channel=0, data=[50, 0]),
   midi.NoteOnEvent(tick=120, channel=0, data=[62, 32]),
   midi.NoteOnEvent(tick=120, channel=0, data=[62, 0]),
   midi.NoteOnEvent(tick=120, channel=0, data=[50, 42]),
   midi.NoteOnEvent(tick=120, channel=0, data=[50, 0]),
   midi.NoteOnEvent(tick=120, channel=0, data=[62, 37]),
   midi.NoteOnEvent(tick=120, channel=0, data=[62, 0]),
   midi.NoteOnEvent(tick=120, channel=0, data=[50, 48]),
   midi.NoteOnEvent(tick=120, channel=0, data=[50, 0]),
   midi.NoteOnEvent(tick=0, channel=0, data=[54, 41]),
   midi.NoteOnEvent(tick=120, channel=0, data=[54, 0]),
   midi.NoteOnEvent(tick=0, channel=0, data=[57, 47]),
   midi.NoteOnEvent(tick=120, channel=0, data=[57, 0]),
   midi.NoteOnEvent(tick=0, channel=0, data=[62, 41]),
   midi.NoteOnEvent(tick=120, channel=0, data=[62, 0]),
   midi.NoteOnEvent(tick=480, channel=0, data=[55, 49]),
   midi.NoteOnEvent(tick=240, channel=0, data=[55, 0]),
   midi.NoteOnEvent(tick=0, channel=0, data=[52, 40]),
   midi.NoteOnEvent(tick=240, channel=0, data=[52, 0]),
   midi.NoteOnEvent(tick=0, channel=0, data=[57, 47]),
   midi.NoteOnEvent(tick=240, channel=0, data=[57, 0]),
   midi.NoteOnEvent(tick=0, channel=0, data=[45, 42]),
   midi.NoteOnEvent(tick=240, channel=0, data=[45, 0]),
   midi.NoteOnEvent(tick=0, channel=0, data=[50, 49]),
   midi.NoteOnEvent(tick=240, channel=0, data=[50, 0]),
   midi.NoteOnEvent(tick=480, channel=0, data=[45, 49]),
   midi.NoteOnEvent(tick=120, channel=0, data=[45, 0]),
   midi.NoteOnEvent(tick=120, channel=0, data=[50, 57]),
   midi.NoteOnEvent(tick=120, channel=0, data=[50, 0]),
   midi.NoteOnEvent(tick=600, channel=0, data=[45, 49]),
   midi.NoteOnEvent(tick=120, channel=0, data=[45, 0]),
   midi.NoteOnEvent(tick=120, channel=0, data=[50, 56]),
   midi.NoteOnEvent(tick=120, channel=0, data=[50, 0]),
   midi.NoteOnEvent(tick=120, channel=0, data=[38, 49]),
   midi.NoteOnEvent(tick=120, channel=0, data=[38, 0]),
   midi.NoteOnEvent(tick=120, channel=0, data=[38, 54]),
   midi.NoteOnEvent(tick=120, channel=0, data=[38, 0]),
   midi.NoteOnEvent(tick=1080, channel=0, data=[56, 32]),
   midi.NoteOnEvent(tick=240, channel=0, data=[56, 0]),
   midi.NoteOnEvent(tick=0, channel=0, data=[56, 41]),
   midi.NoteOnEvent(tick=240, channel=0, data=[56, 0]),
   midi.NoteOnEvent(tick=0, channel=0, data=[62, 33]),
   midi.NoteOnEvent(tick=0, channel=0, data=[59, 33]),
   midi.NoteOnEvent(tick=240, channel=0, data=[59, 0]),
   midi.NoteOnEvent(tick=0, channel=0, data=[62, 0]),
   midi.NoteOnEvent(tick=0, channel=0, data=[59, 31]),
   midi.NoteOnEvent(tick=0, channel=0, data=[62, 31]),
   midi.NoteOnEvent(tick=240, channel=0, data=[62, 0]),
   midi.NoteOnEvent(tick=0, channel=0, data=[59, 0]),
   midi.NoteOnEvent(tick=0, channel=0, data=[56, 31]),
   midi.NoteOnEvent(tick=240, channel=0, data=[56, 0]),
   midi.NoteOnEvent(tick=0, channel=0, data=[57, 35]),
   midi.NoteOnEvent(tick=120, channel=0, data=[57, 0]),
   midi.NoteOnEvent(tick=360, channel=0, data=[52, 35]),
   midi.NoteOnEvent(tick=120, channel=0, data=[52, 0]),
   midi.NoteOnEvent(tick=360, channel=0, data=[45, 35]),
   midi.NoteOnEvent(tick=240, channel=0, data=[45, 0]),
   midi.NoteOnEvent(tick=480, channel=0, data=[56, 35]),
   midi.NoteOnEvent(tick=120, channel=0, data=[56, 0]),
   midi.NoteOnEvent(tick=120, channel=0, data=[57, 35]),
   midi.NoteOnEvent(tick=240, channel=0, data=[57, 0]),
   midi.NoteOnEvent(tick=480, channel=0, data=[56, 35]),
   midi.NoteOnEvent(tick=120, channel=0, data=[56, 0]),
   midi.NoteOnEvent(tick=120, channel=0, data=[57, 42]),
   midi.NoteOnEvent(tick=240, channel=0, data=[57, 0]),
   midi.NoteOnEvent(tick=0, channel=0, data=[45, 35]),
   midi.NoteOnEvent(tick=240, channel=0, data=[45, 0]),
   midi.NoteOnEvent(tick=0, channel=0, data=[57, 39]),
   midi.NoteOnEvent(tick=240, channel=0, data=[57, 0]),
   midi.NoteOnEvent(tick=0, channel=0, data=[55, 48]),
   midi.NoteOnEvent(tick=240, channel=0, data=[55, 0]),
   midi.NoteOnEvent(tick=0, channel=0, data=[54, 52]),
   midi.NoteOnEvent(tick=240, channel=0, data=[54, 0]),
   midi.NoteOnEvent(tick=0, channel=0, data=[57, 35]),
   midi.NoteOnEvent(tick=0, channel=0, data=[60, 42]),
   midi.NoteOnEvent(tick=240, channel=0, data=[60, 0]),
   midi.NoteOnEvent(tick=0, channel=0, data=[57, 0]),
   midi.NoteOnEvent(tick=0, channel=0, data=[57, 35]),
   midi.NoteOnEvent(tick=0, channel=0, data=[60, 42]),
   midi.NoteOnEvent(tick=240, channel=0, data=[60, 0]),
   midi.NoteOnEvent(tick=0, channel=0, data=[57, 0]),
   midi.NoteOnEvent(tick=0, channel=0, data=[54, 38]),
   midi.NoteOnEvent(tick=240, channel=0, data=[54, 0]),
   midi.NoteOnEvent(tick=0, channel=0, data=[55, 35]),
   midi.NoteOnEvent(tick=120, channel=0, data=[55, 0]),
   midi.NoteOnEvent(tick=360, channel=0, data=[50, 29]),
   midi.NoteOnEvent(tick=120, channel=0, data=[50, 0]),
   midi.NoteOnEvent(tick=360, channel=0, data=[52, 38]),
   midi.NoteOnEvent(tick=0, channel=0, data=[40, 38]),
   midi.NoteOnEvent(tick=960, channel=0, data=[40, 0]),
   midi.NoteOnEvent(tick=0, channel=0, data=[52, 0]),
   midi.NoteOnEvent(tick=0, channel=0, data=[50, 49]),
   midi.NoteOnEvent(tick=120, channel=0, data=[50, 0]),
   midi.NoteOnEvent(tick=120, channel=0, data=[38, 38]),
   midi.NoteOnEvent(tick=120, channel=0, data=[38, 0]),
   midi.NoteOnEvent(tick=600, channel=0, data=[50, 49]),
   midi.NoteOnEvent(tick=120, channel=0, data=[50, 0]),
   midi.NoteOnEvent(tick=120, channel=0, data=[38, 38]),
   midi.NoteOnEvent(tick=120, channel=0, data=[38, 0]),
   midi.NoteOnEvent(tick=600, channel=0, data=[50, 39]),
   midi.NoteOnEvent(tick=120, channel=0, data=[50, 0]),
   midi.NoteOnEvent(tick=120, channel=0, data=[38, 34]),
   midi.NoteOnEvent(tick=120, channel=0, data=[38, 0]),
   midi.NoteOnEvent(tick=600, channel=0, data=[50, 34]),
   midi.NoteOnEvent(tick=240, channel=0, data=[50, 0]),
   midi.NoteOnEvent(tick=0, channel=0, data=[38, 28]),
   midi.NoteOnEvent(tick=240, channel=0, data=[38, 0]),
   midi.NoteOnEvent(tick=0, channel=0, data=[50, 37]),
   midi.NoteOnEvent(tick=240, channel=0, data=[50, 0]),
   midi.NoteOnEvent(tick=0, channel=0, data=[38, 31]),
   midi.NoteOnEvent(tick=240, channel=0, data=[38, 0]),
   midi.NoteOnEvent(tick=0, channel=0, data=[50, 30]),
   midi.NoteOnEvent(tick=240, channel=0, data=[50, 0]),
   midi.NoteOnEvent(tick=720, channel=0, data=[55, 35]),
   midi.NoteOnEvent(tick=240, channel=0, data=[55, 0]),
   midi.NoteOnEvent(tick=0, channel=0, data=[59, 28]),
   midi.NoteOnEvent(tick=240, channel=0, data=[59, 0]),
   midi.NoteOnEvent(tick=0, channel=0, data=[62, 28]),
   midi.NoteOnEvent(tick=240, channel=0, data=[62, 0]),
   midi.NoteOnEvent(tick=0, channel=0, data=[59, 32]),
   midi.NoteOnEvent(tick=240, channel=0, data=[59, 0]),
   midi.NoteOnEvent(tick=0, channel=0, data=[55, 41]),
   midi.NoteOnEvent(tick=240, channel=0, data=[55, 0]),
   midi.NoteOnEvent(tick=0, channel=0, data=[59, 33]),
   midi.NoteOnEvent(tick=240, channel=0, data=[59, 0]),
   midi.NoteOnEvent(tick=0, channel=0, data=[62, 31]),
   midi.NoteOnEvent(tick=240, channel=0, data=[62, 0]),
   midi.NoteOnEvent(tick=0, channel=0, data=[59, 31]),
   midi.NoteOnEvent(tick=240, channel=0, data=[59, 0]),
   midi.NoteOnEvent(tick=0, channel=0, data=[54, 35]),
   midi.NoteOnEvent(tick=240, channel=0, data=[54, 0]),
   midi.NoteOnEvent(tick=0, channel=0, data=[57, 31]),
   midi.NoteOnEvent(tick=240, channel=0, data=[57, 0]),
   midi.NoteOnEvent(tick=0, channel=0, data=[62, 35]),
   midi.NoteOnEvent(tick=240, channel=0, data=[62, 0]),
   midi.NoteOnEvent(tick=0, channel=0, data=[57, 30]),
   midi.NoteOnEvent(tick=240, channel=0, data=[57, 0]),
   midi.NoteOnEvent(tick=0, channel=0, data=[55, 35]),
   midi.NoteOnEvent(tick=240, channel=0, data=[55, 0]),
   midi.NoteOnEvent(tick=0, channel=0, data=[50, 30]),
   midi.NoteOnEvent(tick=240, channel=0, data=[50, 0]),
   midi.NoteOnEvent(tick=0, channel=0, data=[47, 30]),
   midi.NoteOnEvent(tick=240, channel=0, data=[47, 0]),
   midi.NoteOnEvent(tick=0, channel=0, data=[43, 30]),
   midi.NoteOnEvent(tick=240, channel=0, data=[43, 0]),
   midi.NoteOnEvent(tick=0, channel=0, data=[48, 35]),
   midi.NoteOnEvent(tick=240, channel=0, data=[48, 0]),
   midi.NoteOnEvent(tick=0, channel=0, data=[52, 28]),
   midi.NoteOnEvent(tick=240, channel=0, data=[52, 0]),
   midi.NoteOnEvent(tick=0, channel=0, data=[57, 34]),
   midi.NoteOnEvent(tick=240, channel=0, data=[57, 0]),
   midi.NoteOnEvent(tick=0, channel=0, data=[52, 39]),
   midi.NoteOnEvent(tick=240, channel=0, data=[52, 0]),
   midi.NoteOnEvent(tick=0, channel=0, data=[48, 42]),
   midi.NoteOnEvent(tick=240, channel=0, data=[48, 0]),
   midi.NoteOnEvent(tick=0, channel=0, data=[52, 38]),
   midi.NoteOnEvent(tick=240, channel=0, data=[52, 0]),
   midi.NoteOnEvent(tick=0, channel=0, data=[57, 31]),
   midi.NoteOnEvent(tick=240, channel=0, data=[57, 0]),
   midi.NoteOnEvent(tick=240, channel=0, data=[59, 35]),
   midi.NoteOnEvent(tick=0, channel=0, data=[50, 35]),
   midi.NoteOnEvent(tick=120, channel=0, data=[50, 0]),
   midi.NoteOnEvent(tick=0, channel=0, data=[59, 0]),
   midi.NoteOnEvent(tick=120, channel=0, data=[59, 31]),
   midi.NoteOnEvent(tick=0, channel=0, data=[50, 31]),
   midi.NoteOnEvent(tick=120, channel=0, data=[50, 0]),
   midi.NoteOnEvent(tick=0, channel=0, data=[59, 0]),
   midi.NoteOnEvent(tick=120, channel=0, data=[50, 35]),
   midi.NoteOnEvent(tick=0, channel=0, data=[57, 35]),
   midi.NoteOnEvent(tick=120, channel=0, data=[57, 0]),
   midi.NoteOnEvent(tick=0, channel=0, data=[50, 0]),
   midi.NoteOnEvent(tick=120, channel=0, data=[57, 30]),
   midi.NoteOnEvent(tick=0, channel=0, data=[50, 30]),
   midi.NoteOnEvent(tick=120, channel=0, data=[50, 0]),
   midi.NoteOnEvent(tick=0, channel=0, data=[57, 0]),
   midi.NoteOnEvent(tick=120, channel=0, data=[43, 35]),
   midi.NoteOnEvent(tick=120, channel=0, data=[43, 0]),
   midi.NoteOnEvent(tick=120, channel=0, data=[55, 30]),
   midi.NoteOnEvent(tick=120, channel=0, data=[55, 0]),
   midi.NoteOnEvent(tick=120, channel=0, data=[43, 35]),
   midi.NoteOnEvent(tick=120, channel=0, data=[43, 0]),
   midi.NoteOnEvent(tick=120, channel=0, data=[55, 35]),
   midi.NoteOnEvent(tick=120, channel=0, data=[55, 0]),
   midi.NoteOnEvent(tick=120, channel=0, data=[43, 35]),
   midi.NoteOnEvent(tick=120, channel=0, data=[43, 0]),
   midi.NoteOnEvent(tick=120, channel=0, data=[55, 32]),
   midi.NoteOnEvent(tick=120, channel=0, data=[55, 0]),
   midi.NoteOnEvent(tick=120, channel=0, data=[43, 35]),
   midi.NoteOnEvent(tick=120, channel=0, data=[43, 0]),
   midi.NoteOnEvent(tick=120, channel=0, data=[55, 31]),
   midi.NoteOnEvent(tick=120, channel=0, data=[55, 0]),
   midi.NoteOnEvent(tick=120, channel=0, data=[43, 35]),
   midi.NoteOnEvent(tick=120, channel=0, data=[45, 30]),
   midi.NoteOnEvent(tick=12, channel=0, data=[43, 0]),
   midi.NoteOnEvent(tick=108, channel=0, data=[47, 31]),
   midi.NoteOnEvent(tick=12, channel=0, data=[45, 0]),
   midi.NoteOnEvent(tick=108, channel=0, data=[48, 31]),
   midi.NoteOnEvent(tick=12, channel=0, data=[47, 0]),
   midi.NoteOnEvent(tick=108, channel=0, data=[50, 32]),
   midi.NoteOnEvent(tick=12, channel=0, data=[48, 0]),
   midi.NoteOnEvent(tick=108, channel=0, data=[52, 34]),
   midi.NoteOnEvent(tick=12, channel=0, data=[50, 0]),
   midi.NoteOnEvent(tick=108, channel=0, data=[54, 34]),
   midi.NoteOnEvent(tick=12, channel=0, data=[52, 0]),
   midi.NoteOnEvent(tick=108, channel=0, data=[55, 36]),
   midi.NoteOnEvent(tick=12, channel=0, data=[54, 0]),
   midi.NoteOnEvent(tick=108, channel=0, data=[55, 0]),
   midi.NoteOnEvent(tick=0, channel=0, data=[43, 35]),
   midi.NoteOnEvent(tick=120, channel=0, data=[43, 0]),
   midi.NoteOnEvent(tick=120, channel=0, data=[55, 32]),
   midi.NoteOnEvent(tick=120, channel=0, data=[55, 0]),
   midi.NoteOnEvent(tick=120, channel=0, data=[43, 42]),
   midi.NoteOnEvent(tick=120, channel=0, data=[43, 0]),
   midi.NoteOnEvent(tick=120, channel=0, data=[55, 37]),
   midi.NoteOnEvent(tick=120, channel=0, data=[55, 0]),
   midi.NoteOnEvent(tick=120, channel=0, data=[43, 48]),
   midi.NoteOnEvent(tick=120, channel=0, data=[43, 0]),
   midi.NoteOnEvent(tick=120, channel=0, data=[47, 42]),
   midi.NoteOnEvent(tick=240, channel=0, data=[47, 0]),
   midi.NoteOnEvent(tick=0, channel=0, data=[50, 48]),
   midi.NoteOnEvent(tick=240, channel=0, data=[50, 0]),
   midi.NoteOnEvent(tick=0, channel=0, data=[55, 43]),
   midi.NoteOnEvent(tick=240, channel=0, data=[55, 0]),
   midi.NoteOnEvent(tick=0, channel=0, data=[48, 48]),
   midi.NoteOnEvent(tick=120, channel=0, data=[48, 0]),
   midi.NoteOnEvent(tick=120, channel=0, data=[48, 43]),
   midi.NoteOnEvent(tick=120, channel=0, data=[48, 0]),
   midi.NoteOnEvent(tick=120, channel=0, data=[50, 48]),
   midi.NoteOnEvent(tick=120, channel=0, data=[50, 0]),
   midi.NoteOnEvent(tick=120, channel=0, data=[50, 43]),
   midi.NoteOnEvent(tick=120, channel=0, data=[50, 0]),
   midi.NoteOnEvent(tick=120, channel=0, data=[43, 35]),
   midi.NoteOnEvent(tick=120, channel=0, data=[43, 0]),
   midi.NoteOnEvent(tick=120, channel=0, data=[55, 32]),
   midi.NoteOnEvent(tick=120, channel=0, data=[55, 0]),
   midi.NoteOnEvent(tick=120, channel=0, data=[43, 35]),
   midi.NoteOnEvent(tick=120, channel=0, data=[43, 0]),
   midi.NoteOnEvent(tick=120, channel=0, data=[55, 35]),
   midi.NoteOnEvent(tick=120, channel=0, data=[55, 0]),
   midi.NoteOnEvent(tick=120, channel=0, data=[43, 35]),
   midi.NoteOnEvent(tick=120, channel=0, data=[43, 0]),
   midi.NoteOnEvent(tick=120, channel=0, data=[55, 32]),
   midi.NoteOnEvent(tick=120, channel=0, data=[55, 0]),
   midi.NoteOnEvent(tick=120, channel=0, data=[43, 35]),
   midi.NoteOnEvent(tick=120, channel=0, data=[43, 0]),
   midi.NoteOnEvent(tick=120, channel=0, data=[55, 31]),
   midi.NoteOnEvent(tick=120, channel=0, data=[55, 0]),
   midi.NoteOnEvent(tick=120, channel=0, data=[43, 35]),
   midi.NoteOnEvent(tick=120, channel=0, data=[43, 0]),
   midi.NoteOnEvent(tick=120, channel=0, data=[55, 32]),
   midi.NoteOnEvent(tick=120, channel=0, data=[55, 0]),
   midi.NoteOnEvent(tick=120, channel=0, data=[43, 35]),
   midi.NoteOnEvent(tick=120, channel=0, data=[43, 0]),
   midi.NoteOnEvent(tick=120, channel=0, data=[55, 31]),
   midi.NoteOnEvent(tick=120, channel=0, data=[55, 0]),
   midi.NoteOnEvent(tick=120, channel=0, data=[43, 35]),
   midi.NoteOnEvent(tick=120, channel=0, data=[43, 0]),
   midi.NoteOnEvent(tick=120, channel=0, data=[55, 32]),
   midi.NoteOnEvent(tick=120, channel=0, data=[55, 0]),
   midi.NoteOnEvent(tick=120, channel=0, data=[43, 42]),
   midi.NoteOnEvent(tick=120, channel=0, data=[43, 0]),
   midi.NoteOnEvent(tick=120, channel=0, data=[55, 37]),
   midi.NoteOnEvent(tick=120, channel=0, data=[55, 0]),
   midi.NoteOnEvent(tick=120, channel=0, data=[43, 48]),
   midi.NoteOnEvent(tick=240, channel=0, data=[43, 0]),
   midi.NoteOnEvent(tick=0, channel=0, data=[55, 41]),
   midi.NoteOnEvent(tick=240, channel=0, data=[55, 0]),
   midi.NoteOnEvent(tick=0, channel=0, data=[50, 41]),
   midi.NoteOnEvent(tick=240, channel=0, data=[50, 0]),
   midi.NoteOnEvent(tick=0, channel=0, data=[47, 41]),
   midi.NoteOnEvent(tick=240, channel=0, data=[47, 0]),
   midi.NoteOnEvent(tick=0, channel=0, data=[48, 49]),
   midi.NoteOnEvent(tick=240, channel=0, data=[48, 0]),
   midi.NoteOnEvent(tick=0, channel=0, data=[45, 40]),
   midi.NoteOnEvent(tick=240, channel=0, data=[45, 0]),
   midi.NoteOnEvent(tick=0, channel=0, data=[50, 47]),
   midi.NoteOnEvent(tick=240, channel=0, data=[50, 0]),
   midi.NoteOnEvent(tick=0, channel=0, data=[38, 42]),
   midi.NoteOnEvent(tick=240, channel=0, data=[38, 0]),
   midi.NoteOnEvent(tick=0, channel=0, data=[43, 49]),
   midi.NoteOnEvent(tick=240, channel=0, data=[43, 0]),
   midi.NoteOnEvent(tick=480, channel=0, data=[50, 49]),
   midi.NoteOnEvent(tick=120, channel=0, data=[50, 0]),
   midi.NoteOnEvent(tick=120, channel=0, data=[55, 57]),
   midi.NoteOnEvent(tick=120, channel=0, data=[55, 0]),
   midi.NoteOnEvent(tick=600, channel=0, data=[50, 49]),
   midi.NoteOnEvent(tick=120, channel=0, data=[50, 0]),
   midi.NoteOnEvent(tick=120, channel=0, data=[43, 56]),
   midi.NoteOnEvent(tick=120, channel=0, data=[43, 0]),
   midi.NoteOnEvent(tick=120, channel=0, data=[55, 41]),
   midi.NoteOnEvent(tick=240, channel=0, data=[55, 0]),
   midi.NoteOnEvent(tick=0, channel=0, data=[50, 48]),
   midi.NoteOnEvent(tick=240, channel=0, data=[50, 0]),
   midi.NoteOnEvent(tick=0, channel=0, data=[47, 41]),
   midi.NoteOnEvent(tick=240, channel=0, data=[47, 0]),
   midi.NoteOnEvent(tick=0, channel=0, data=[43, 56]),
   midi.NoteOnEvent(tick=480, channel=0, data=[43, 0]),
   midi.NoteOnEvent(tick=1200, channel=0, data=[56, 32]),
   midi.NoteOnEvent(tick=240, channel=0, data=[56, 0]),
   midi.NoteOnEvent(tick=0, channel=0, data=[56, 41]),
   midi.NoteOnEvent(tick=240, channel=0, data=[56, 0]),
   midi.NoteOnEvent(tick=0, channel=0, data=[62, 33]),
   midi.NoteOnEvent(tick=0, channel=0, data=[59, 33]),
   midi.NoteOnEvent(tick=240, channel=0, data=[59, 0]),
   midi.NoteOnEvent(tick=0, channel=0, data=[62, 0]),
   midi.NoteOnEvent(tick=0, channel=0, data=[59, 31]),
   midi.NoteOnEvent(tick=0, channel=0, data=[62, 31]),
   midi.NoteOnEvent(tick=240, channel=0, data=[62, 0]),
   midi.NoteOnEvent(tick=0, channel=0, data=[59, 0]),
   midi.NoteOnEvent(tick=0, channel=0, data=[56, 31]),
   midi.NoteOnEvent(tick=240, channel=0, data=[56, 0]),
   midi.NoteOnEvent(tick=0, channel=0, data=[57, 35]),
   midi.NoteOnEvent(tick=120, channel=0, data=[57, 0]),
   midi.NoteOnEvent(tick=360, channel=0, data=[52, 35]),
   midi.NoteOnEvent(tick=120, channel=0, data=[52, 0]),
   midi.NoteOnEvent(tick=360, channel=0, data=[45, 35]),
   midi.NoteOnEvent(tick=240, channel=0, data=[45, 0]),
   midi.NoteOnEvent(tick=480, channel=0, data=[56, 35]),
   midi.NoteOnEvent(tick=120, channel=0, data=[56, 0]),
   midi.NoteOnEvent(tick=120, channel=0, data=[57, 35]),
   midi.NoteOnEvent(tick=240, channel=0, data=[57, 0]),
   midi.NoteOnEvent(tick=480, channel=0, data=[56, 35]),
   midi.NoteOnEvent(tick=120, channel=0, data=[56, 0]),
   midi.NoteOnEvent(tick=120, channel=0, data=[57, 42]),
   midi.NoteOnEvent(tick=240, channel=0, data=[57, 0]),
   midi.NoteOnEvent(tick=0, channel=0, data=[45, 35]),
   midi.NoteOnEvent(tick=240, channel=0, data=[45, 0]),
   midi.NoteOnEvent(tick=0, channel=0, data=[57, 39]),
   midi.NoteOnEvent(tick=240, channel=0, data=[57, 0]),
   midi.NoteOnEvent(tick=0, channel=0, data=[55, 48]),
   midi.NoteOnEvent(tick=240, channel=0, data=[55, 0]),
   midi.NoteOnEvent(tick=0, channel=0, data=[54, 52]),
   midi.NoteOnEvent(tick=240, channel=0, data=[54, 0]),
   midi.NoteOnEvent(tick=0, channel=0, data=[57, 35]),
   midi.NoteOnEvent(tick=0, channel=0, data=[60, 42]),
   midi.NoteOnEvent(tick=240, channel=0, data=[60, 0]),
   midi.NoteOnEvent(tick=0, channel=0, data=[57, 0]),
   midi.NoteOnEvent(tick=0, channel=0, data=[57, 35]),
   midi.NoteOnEvent(tick=0, channel=0, data=[60, 42]),
   midi.NoteOnEvent(tick=240, channel=0, data=[60, 0]),
   midi.NoteOnEvent(tick=0, channel=0, data=[57, 0]),
   midi.NoteOnEvent(tick=0, channel=0, data=[54, 38]),
   midi.NoteOnEvent(tick=240, channel=0, data=[54, 0]),
   midi.NoteOnEvent(tick=0, channel=0, data=[55, 35]),
   midi.NoteOnEvent(tick=120, channel=0, data=[55, 0]),
   midi.NoteOnEvent(tick=360, channel=0, data=[50, 29]),
   midi.NoteOnEvent(tick=120, channel=0, data=[50, 0]),
   midi.NoteOnEvent(tick=360, channel=0, data=[52, 38]),
   midi.NoteOnEvent(tick=0, channel=0, data=[40, 38]),
   midi.NoteOnEvent(tick=960, channel=0, data=[40, 0]),
   midi.NoteOnEvent(tick=0, channel=0, data=[52, 0]),
   midi.NoteOnEvent(tick=0, channel=0, data=[50, 49]),
   midi.NoteOnEvent(tick=120, channel=0, data=[50, 0]),
   midi.NoteOnEvent(tick=120, channel=0, data=[38, 38]),
   midi.NoteOnEvent(tick=120, channel=0, data=[38, 0]),
   midi.NoteOnEvent(tick=600, channel=0, data=[50, 49]),
   midi.NoteOnEvent(tick=120, channel=0, data=[50, 0]),
   midi.NoteOnEvent(tick=120, channel=0, data=[38, 38]),
   midi.NoteOnEvent(tick=120, channel=0, data=[38, 0]),
   midi.NoteOnEvent(tick=600, channel=0, data=[50, 39]),
   midi.NoteOnEvent(tick=120, channel=0, data=[50, 0]),
   midi.NoteOnEvent(tick=120, channel=0, data=[38, 34]),
   midi.NoteOnEvent(tick=120, channel=0, data=[38, 0]),
   midi.NoteOnEvent(tick=600, channel=0, data=[50, 34]),
   midi.NoteOnEvent(tick=240, channel=0, data=[50, 0]),
   midi.NoteOnEvent(tick=0, channel=0, data=[38, 28]),
   midi.NoteOnEvent(tick=240, channel=0, data=[38, 0]),
   midi.NoteOnEvent(tick=0, channel=0, data=[50, 37]),
   midi.NoteOnEvent(tick=240, channel=0, data=[50, 0]),
   midi.NoteOnEvent(tick=0, channel=0, data=[38, 31]),
   midi.NoteOnEvent(tick=240, channel=0, data=[38, 0]),
   midi.NoteOnEvent(tick=0, channel=0, data=[50, 30]),
   midi.NoteOnEvent(tick=240, channel=0, data=[50, 0]),
   midi.NoteOnEvent(tick=720, channel=0, data=[55, 35]),
   midi.NoteOnEvent(tick=240, channel=0, data=[55, 0]),
   midi.NoteOnEvent(tick=0, channel=0, data=[59, 28]),
   midi.NoteOnEvent(tick=240, channel=0, data=[59, 0]),
   midi.NoteOnEvent(tick=0, channel=0, data=[62, 28]),
   midi.NoteOnEvent(tick=240, channel=0, data=[62, 0]),
   midi.NoteOnEvent(tick=0, channel=0, data=[59, 32]),
   midi.NoteOnEvent(tick=240, channel=0, data=[59, 0]),
   midi.NoteOnEvent(tick=0, channel=0, data=[55, 41]),
   midi.NoteOnEvent(tick=240, channel=0, data=[55, 0]),
   midi.NoteOnEvent(tick=0, channel=0, data=[59, 33]),
   midi.NoteOnEvent(tick=240, channel=0, data=[59, 0]),
   midi.NoteOnEvent(tick=0, channel=0, data=[62, 31]),
   midi.NoteOnEvent(tick=240, channel=0, data=[62, 0]),
   midi.NoteOnEvent(tick=0, channel=0, data=[59, 31]),
   midi.NoteOnEvent(tick=240, channel=0, data=[59, 0]),
   midi.NoteOnEvent(tick=0, channel=0, data=[54, 35]),
   midi.NoteOnEvent(tick=240, channel=0, data=[54, 0]),
   midi.NoteOnEvent(tick=0, channel=0, data=[57, 31]),
   midi.NoteOnEvent(tick=240, channel=0, data=[57, 0]),
   midi.NoteOnEvent(tick=0, channel=0, data=[62, 35]),
   midi.NoteOnEvent(tick=240, channel=0, data=[62, 0]),
   midi.NoteOnEvent(tick=0, channel=0, data=[57, 30]),
   midi.NoteOnEvent(tick=240, channel=0, data=[57, 0]),
   midi.NoteOnEvent(tick=0, channel=0, data=[55, 35]),
   midi.NoteOnEvent(tick=240, channel=0, data=[55, 0]),
   midi.NoteOnEvent(tick=0, channel=0, data=[50, 30]),
   midi.NoteOnEvent(tick=240, channel=0, data=[50, 0]),
   midi.NoteOnEvent(tick=0, channel=0, data=[47, 30]),
   midi.NoteOnEvent(tick=240, channel=0, data=[47, 0]),
   midi.NoteOnEvent(tick=0, channel=0, data=[43, 30]),
   midi.NoteOnEvent(tick=240, channel=0, data=[43, 0]),
   midi.NoteOnEvent(tick=0, channel=0, data=[48, 35]),
   midi.NoteOnEvent(tick=240, channel=0, data=[48, 0]),
   midi.NoteOnEvent(tick=0, channel=0, data=[52, 28]),
   midi.NoteOnEvent(tick=240, channel=0, data=[52, 0]),
   midi.NoteOnEvent(tick=0, channel=0, data=[57, 34]),
   midi.NoteOnEvent(tick=240, channel=0, data=[57, 0]),
   midi.NoteOnEvent(tick=0, channel=0, data=[52, 39]),
   midi.NoteOnEvent(tick=240, channel=0, data=[52, 0]),
   midi.NoteOnEvent(tick=0, channel=0, data=[48, 42]),
   midi.NoteOnEvent(tick=240, channel=0, data=[48, 0]),
   midi.NoteOnEvent(tick=0, channel=0, data=[52, 38]),
   midi.NoteOnEvent(tick=240, channel=0, data=[52, 0]),
   midi.NoteOnEvent(tick=0, channel=0, data=[57, 31]),
   midi.NoteOnEvent(tick=240, channel=0, data=[57, 0]),
   midi.NoteOnEvent(tick=240, channel=0, data=[59, 35]),
   midi.NoteOnEvent(tick=0, channel=0, data=[50, 35]),
   midi.NoteOnEvent(tick=120, channel=0, data=[50, 0]),
   midi.NoteOnEvent(tick=0, channel=0, data=[59, 0]),
   midi.NoteOnEvent(tick=120, channel=0, data=[59, 31]),
   midi.NoteOnEvent(tick=0, channel=0, data=[50, 31]),
   midi.NoteOnEvent(tick=120, channel=0, data=[50, 0]),
   midi.NoteOnEvent(tick=0, channel=0, data=[59, 0]),
   midi.NoteOnEvent(tick=120, channel=0, data=[50, 35]),
   midi.NoteOnEvent(tick=0, channel=0, data=[57, 35]),
   midi.NoteOnEvent(tick=120, channel=0, data=[57, 0]),
   midi.NoteOnEvent(tick=0, channel=0, data=[50, 0]),
   midi.NoteOnEvent(tick=120, channel=0, data=[57, 30]),
   midi.NoteOnEvent(tick=0, channel=0, data=[50, 30]),
   midi.NoteOnEvent(tick=120, channel=0, data=[50, 0]),
   midi.NoteOnEvent(tick=0, channel=0, data=[57, 0]),
   midi.NoteOnEvent(tick=120, channel=0, data=[43, 35]),
   midi.NoteOnEvent(tick=120, channel=0, data=[43, 0]),
   midi.NoteOnEvent(tick=120, channel=0, data=[55, 30]),
   midi.NoteOnEvent(tick=120, channel=0, data=[55, 0]),
   midi.NoteOnEvent(tick=120, channel=0, data=[43, 35]),
   midi.NoteOnEvent(tick=120, channel=0, data=[43, 0]),
   midi.NoteOnEvent(tick=120, channel=0, data=[55, 35]),
   midi.NoteOnEvent(tick=120, channel=0, data=[55, 0]),
   midi.NoteOnEvent(tick=120, channel=0, data=[43, 35]),
   midi.NoteOnEvent(tick=120, channel=0, data=[43, 0]),
   midi.NoteOnEvent(tick=120, channel=0, data=[55, 32]),
   midi.NoteOnEvent(tick=120, channel=0, data=[55, 0]),
   midi.NoteOnEvent(tick=120, channel=0, data=[43, 35]),
   midi.NoteOnEvent(tick=120, channel=0, data=[43, 0]),
   midi.NoteOnEvent(tick=120, channel=0, data=[55, 31]),
   midi.NoteOnEvent(tick=120, channel=0, data=[55, 0]),
   midi.NoteOnEvent(tick=120, channel=0, data=[43, 35]),
   midi.NoteOnEvent(tick=120, channel=0, data=[45, 30]),
   midi.NoteOnEvent(tick=12, channel=0, data=[43, 0]),
   midi.NoteOnEvent(tick=108, channel=0, data=[47, 31]),
   midi.NoteOnEvent(tick=12, channel=0, data=[45, 0]),
   midi.NoteOnEvent(tick=108, channel=0, data=[48, 31]),
   midi.NoteOnEvent(tick=12, channel=0, data=[47, 0]),
   midi.NoteOnEvent(tick=108, channel=0, data=[50, 32]),
   midi.NoteOnEvent(tick=12, channel=0, data=[48, 0]),
   midi.NoteOnEvent(tick=108, channel=0, data=[52, 34]),
   midi.NoteOnEvent(tick=12, channel=0, data=[50, 0]),
   midi.NoteOnEvent(tick=108, channel=0, data=[54, 34]),
   midi.NoteOnEvent(tick=12, channel=0, data=[52, 0]),
   midi.NoteOnEvent(tick=108, channel=0, data=[55, 36]),
   midi.NoteOnEvent(tick=12, channel=0, data=[54, 0]),
   midi.NoteOnEvent(tick=108, channel=0, data=[55, 0]),
   midi.NoteOnEvent(tick=0, channel=0, data=[43, 35]),
   midi.NoteOnEvent(tick=120, channel=0, data=[43, 0]),
   midi.NoteOnEvent(tick=120, channel=0, data=[55, 32]),
   midi.NoteOnEvent(tick=120, channel=0, data=[55, 0]),
   midi.NoteOnEvent(tick=120, channel=0, data=[43, 42]),
   midi.NoteOnEvent(tick=120, channel=0, data=[43, 0]),
   midi.NoteOnEvent(tick=120, channel=0, data=[55, 37]),
   midi.NoteOnEvent(tick=120, channel=0, data=[55, 0]),
   midi.NoteOnEvent(tick=120, channel=0, data=[43, 48]),
   midi.NoteOnEvent(tick=120, channel=0, data=[43, 0]),
   midi.NoteOnEvent(tick=120, channel=0, data=[47, 42]),
   midi.NoteOnEvent(tick=240, channel=0, data=[47, 0]),
   midi.NoteOnEvent(tick=0, channel=0, data=[50, 48]),
   midi.NoteOnEvent(tick=240, channel=0, data=[50, 0]),
   midi.NoteOnEvent(tick=0, channel=0, data=[55, 43]),
   midi.NoteOnEvent(tick=240, channel=0, data=[55, 0]),
   midi.NoteOnEvent(tick=0, channel=0, data=[48, 48]),
   midi.NoteOnEvent(tick=120, channel=0, data=[48, 0]),
   midi.NoteOnEvent(tick=120, channel=0, data=[48, 43]),
   midi.NoteOnEvent(tick=120, channel=0, data=[48, 0]),
   midi.NoteOnEvent(tick=120, channel=0, data=[50, 48]),
   midi.NoteOnEvent(tick=120, channel=0, data=[50, 0]),
   midi.NoteOnEvent(tick=120, channel=0, data=[50, 43]),
   midi.NoteOnEvent(tick=120, channel=0, data=[50, 0]),
   midi.NoteOnEvent(tick=120, channel=0, data=[43, 35]),
   midi.NoteOnEvent(tick=120, channel=0, data=[43, 0]),
   midi.NoteOnEvent(tick=120, channel=0, data=[55, 32]),
   midi.NoteOnEvent(tick=120, channel=0, data=[55, 0]),
   midi.NoteOnEvent(tick=120, channel=0, data=[43, 35]),
   midi.NoteOnEvent(tick=120, channel=0, data=[43, 0]),
   midi.NoteOnEvent(tick=120, channel=0, data=[55, 35]),
   midi.NoteOnEvent(tick=120, channel=0, data=[55, 0]),
   midi.NoteOnEvent(tick=120, channel=0, data=[43, 35]),
   midi.NoteOnEvent(tick=120, channel=0, data=[43, 0]),
   midi.NoteOnEvent(tick=120, channel=0, data=[55, 32]),
   midi.NoteOnEvent(tick=120, channel=0, data=[55, 0]),
   midi.NoteOnEvent(tick=120, channel=0, data=[43, 35]),
   midi.NoteOnEvent(tick=120, channel=0, data=[43, 0]),
   midi.NoteOnEvent(tick=120, channel=0, data=[55, 31]),
   midi.NoteOnEvent(tick=120, channel=0, data=[55, 0]),
   midi.NoteOnEvent(tick=120, channel=0, data=[43, 35]),
   midi.NoteOnEvent(tick=120, channel=0, data=[43, 0]),
   midi.NoteOnEvent(tick=120, channel=0, data=[55, 32]),
   midi.NoteOnEvent(tick=120, channel=0, data=[55, 0]),
   midi.NoteOnEvent(tick=120, channel=0, data=[43, 35]),
   midi.NoteOnEvent(tick=120, channel=0, data=[43, 0]),
   midi.NoteOnEvent(tick=120, channel=0, data=[55, 31]),
   midi.NoteOnEvent(tick=120, channel=0, data=[55, 0]),
   midi.NoteOnEvent(tick=120, channel=0, data=[43, 35]),
   midi.NoteOnEvent(tick=120, channel=0, data=[43, 0]),
   midi.NoteOnEvent(tick=120, channel=0, data=[55, 32]),
   midi.NoteOnEvent(tick=120, channel=0, data=[55, 0]),
   midi.NoteOnEvent(tick=120, channel=0, data=[43, 42]),
   midi.NoteOnEvent(tick=120, channel=0, data=[43, 0]),
   midi.NoteOnEvent(tick=120, channel=0, data=[55, 37]),
   midi.NoteOnEvent(tick=120, channel=0, data=[55, 0]),
   midi.NoteOnEvent(tick=120, channel=0, data=[43, 48]),
   midi.NoteOnEvent(tick=240, channel=0, data=[43, 0]),
   midi.NoteOnEvent(tick=0, channel=0, data=[55, 41]),
   midi.NoteOnEvent(tick=240, channel=0, data=[55, 0]),
   midi.NoteOnEvent(tick=0, channel=0, data=[50, 41]),
   midi.NoteOnEvent(tick=240, channel=0, data=[50, 0]),
   midi.NoteOnEvent(tick=0, channel=0, data=[47, 41]),
   midi.NoteOnEvent(tick=240, channel=0, data=[47, 0]),
   midi.NoteOnEvent(tick=0, channel=0, data=[48, 49]),
   midi.NoteOnEvent(tick=240, channel=0, data=[48, 0]),
   midi.NoteOnEvent(tick=0, channel=0, data=[45, 40]),
   midi.NoteOnEvent(tick=240, channel=0, data=[45, 0]),
   midi.NoteOnEvent(tick=0, channel=0, data=[50, 47]),
   midi.NoteOnEvent(tick=240, channel=0, data=[50, 0]),
   midi.NoteOnEvent(tick=0, channel=0, data=[38, 42]),
   midi.NoteOnEvent(tick=240, channel=0, data=[38, 0]),
   midi.NoteOnEvent(tick=0, channel=0, data=[43, 49]),
   midi.NoteOnEvent(tick=240, channel=0, data=[43, 0]),
   midi.NoteOnEvent(tick=480, channel=0, data=[50, 49]),
   midi.NoteOnEvent(tick=120, channel=0, data=[50, 0]),
   midi.NoteOnEvent(tick=120, channel=0, data=[55, 57]),
   midi.NoteOnEvent(tick=120, channel=0, data=[55, 0]),
   midi.NoteOnEvent(tick=600, channel=0, data=[50, 49]),
   midi.NoteOnEvent(tick=120, channel=0, data=[50, 0]),
   midi.NoteOnEvent(tick=120, channel=0, data=[43, 56]),
   midi.NoteOnEvent(tick=120, channel=0, data=[43, 0]),
   midi.NoteOnEvent(tick=120, channel=0, data=[55, 41]),
   midi.NoteOnEvent(tick=240, channel=0, data=[55, 0]),
   midi.NoteOnEvent(tick=0, channel=0, data=[50, 48]),
   midi.NoteOnEvent(tick=240, channel=0, data=[50, 0]),
   midi.NoteOnEvent(tick=0, channel=0, data=[47, 41]),
   midi.NoteOnEvent(tick=240, channel=0, data=[47, 0]),
   midi.NoteOnEvent(tick=0, channel=0, data=[43, 56]),
   midi.NoteOnEvent(tick=480, channel=0, data=[43, 0]),
   midi.EndOfTrackEvent(tick=0, data=[])])])
midi.write_midifile("creationMidi.mid", pattern)