midi.Pattern(format=1, resolution=480, tracks=\
[midi.Track(\
  [midi.TrackNameEvent(tick=0, text='Clementi: Sonatine Opus 36 Nr. 2, 2. Satz', data=[67, 108, 101, 109, 101, 110, 116, 105, 58, 32, 83, 111, 110, 97, 116, 105, 110, 101, 32, 79, 112, 117, 115, 32, 51, 54, 32, 78, 114, 46, 32, 50, 44, 32, 50, 46, 32, 83, 97, 116, 122]),
   midi.CopyrightMetaEvent(tick=0, text='Copyright © 2010 by Bernd Krueger', data=[67, 111, 112, 121, 114, 105, 103, 104, 116, 32, 169, 32, 50, 48, 49, 48, 32, 98, 121, 32, 66, 101, 114, 110, 100, 32, 75, 114, 117, 101, 103, 101, 114]),
   midi.TextMetaEvent(tick=0, text='Muzio Clementi', data=[77, 117, 122, 105, 111, 32, 67, 108, 101, 109, 101, 110, 116, 105]),
   midi.TextMetaEvent(tick=0, text='Allegretto', data=[65, 108, 108, 101, 103, 114, 101, 116, 116, 111]),
   midi.TextMetaEvent(tick=0, text='Erstellt: 30.11.2010\n', data=[69, 114, 115, 116, 101, 108, 108, 116, 58, 32, 51, 48, 46, 49, 49, 46, 50, 48, 49, 48, 10]),
   midi.TextMetaEvent(tick=0, text='Dauer: 1:06 Minuten\n', data=[68, 97, 117, 101, 114, 58, 32, 49, 58, 48, 54, 32, 77, 105, 110, 117, 116, 101, 110, 10]),
   midi.TimeSignatureEvent(tick=0, data=[3, 2, 24, 8]),
   midi.KeySignatureEvent(tick=0, data=[0, 0]),
   midi.SetTempoEvent(tick=0, data=[11, 252, 35]),
   midi.SetTempoEvent(tick=360, data=[10, 106, 176]),
   midi.SetTempoEvent(tick=120, data=[11, 117, 185]),
   midi.SetTempoEvent(tick=360, data=[10, 121, 241]),
   midi.SetTempoEvent(tick=120, data=[11, 99, 121]),
   midi.SetTempoEvent(tick=240, data=[12, 49, 65]),
   midi.SetTempoEvent(tick=240, data=[11, 110, 101]),
   midi.SetTempoEvent(tick=360, data=[10, 137, 96]),
   midi.SetTempoEvent(tick=120, data=[11, 81, 116]),
   midi.SetTempoEvent(tick=360, data=[10, 152, 253]),
   midi.SetTempoEvent(tick=120, data=[11, 81, 116]),
   midi.SetTempoEvent(tick=240, data=[12, 49, 65]),
   midi.SetTempoEvent(tick=120, data=[12, 28, 156]),
   midi.SetTempoEvent(tick=120, data=[11, 128, 200]),
   midi.SetTempoEvent(tick=360, data=[10, 168, 200]),
   midi.SetTempoEvent(tick=120, data=[11, 117, 185]),
   midi.SetTempoEvent(tick=360, data=[10, 184, 194]),
   midi.SetTempoEvent(tick=120, data=[11, 99, 121]),
   midi.SetTempoEvent(tick=240, data=[12, 8, 60]),
   midi.SetTempoEvent(tick=240, data=[11, 110, 101]),
   midi.SetTempoEvent(tick=360, data=[10, 106, 176]),
   midi.SetTempoEvent(tick=120, data=[11, 81, 116]),
   midi.SetTempoEvent(tick=360, data=[10, 121, 241]),
   midi.SetTempoEvent(tick=120, data=[11, 99, 121]),
   midi.SetTempoEvent(tick=240, data=[13, 15, 234]),
   midi.SetTempoEvent(tick=240, data=[12, 49, 65]),
   midi.SetTempoEvent(tick=240, data=[11, 92, 61]),
   midi.SetTempoEvent(tick=120, data=[10, 168, 200]),
   midi.SetTempoEvent(tick=120, data=[11, 46, 18]),
   midi.SetTempoEvent(tick=360, data=[10, 121, 241]),
   midi.SetTempoEvent(tick=120, data=[11, 28, 180]),
   midi.SetTempoEvent(tick=240, data=[13, 15, 234]),
   midi.SetTempoEvent(tick=240, data=[12, 8, 60]),
   midi.SetTempoEvent(tick=360, data=[10, 200, 237]),
   midi.SetTempoEvent(tick=120, data=[11, 81, 116]),
   midi.SetTempoEvent(tick=720, data=[12, 224, 225]),
   midi.SetTempoEvent(tick=240, data=[12, 8, 60]),
   midi.SetTempoEvent(tick=480, data=[12, 70, 45]),
   midi.SetTempoEvent(tick=720, data=[14, 72, 247]),
   midi.SetTempoEvent(tick=240, data=[13, 139, 153]),
   midi.SetTempoEvent(tick=480, data=[15, 60, 102]),
   midi.SetTempoEvent(tick=480, data=[14, 101, 185]),
   midi.SetTempoEvent(tick=480, data=[11, 147, 101]),
   midi.SetTempoEvent(tick=360, data=[10, 168, 200]),
   midi.SetTempoEvent(tick=120, data=[11, 136, 51]),
   midi.SetTempoEvent(tick=360, data=[10, 200, 237]),
   midi.SetTempoEvent(tick=120, data=[11, 117, 185]),
   midi.SetTempoEvent(tick=240, data=[12, 49, 65]),
   midi.SetTempoEvent(tick=240, data=[11, 110, 101]),
   midi.SetTempoEvent(tick=360, data=[10, 168, 200]),
   midi.SetTempoEvent(tick=120, data=[11, 99, 121]),
   midi.SetTempoEvent(tick=360, data=[10, 168, 200]),
   midi.SetTempoEvent(tick=120, data=[11, 99, 121]),
   midi.SetTempoEvent(tick=240, data=[12, 49, 65]),
   midi.SetTempoEvent(tick=120, data=[12, 28, 156]),
   midi.SetTempoEvent(tick=120, data=[11, 128, 200]),
   midi.SetTempoEvent(tick=360, data=[10, 184, 194]),
   midi.SetTempoEvent(tick=120, data=[11, 117, 185]),
   midi.SetTempoEvent(tick=360, data=[10, 184, 194]),
   midi.SetTempoEvent(tick=120, data=[11, 117, 185]),
   midi.SetTempoEvent(tick=240, data=[12, 8, 60]),
   midi.SetTempoEvent(tick=240, data=[11, 56, 152]),
   midi.SetTempoEvent(tick=360, data=[10, 137, 96]),
   midi.SetTempoEvent(tick=120, data=[11, 28, 180]),
   midi.SetTempoEvent(tick=360, data=[10, 106, 176]),
   midi.SetTempoEvent(tick=120, data=[10, 250, 151]),
   midi.SetTempoEvent(tick=480, data=[10, 210, 184]),
   midi.SetTempoEvent(tick=360, data=[10, 18, 171]),
   midi.SetTempoEvent(tick=120, data=[10, 184, 194]),
   midi.SetTempoEvent(tick=360, data=[10, 47, 90]),
   midi.SetTempoEvent(tick=120, data=[10, 184, 194]),
   midi.SetTempoEvent(tick=360, data=[11, 224, 71]),
   midi.SetTempoEvent(tick=120, data=[10, 210, 184]),
   midi.SetTempoEvent(tick=360, data=[10, 61, 240]),
   midi.SetTempoEvent(tick=120, data=[10, 200, 237]),
   midi.SetTempoEvent(tick=360, data=[10, 76, 176]),
   midi.SetTempoEvent(tick=120, data=[10, 200, 237]),
   midi.SetTempoEvent(tick=360, data=[12, 112, 224]),
   midi.SetTempoEvent(tick=120, data=[11, 128, 200]),
   midi.SetTempoEvent(tick=120, data=[11, 110, 101]),
   midi.SetTempoEvent(tick=360, data=[11, 204, 176]),
   midi.SetTempoEvent(tick=480, data=[12, 70, 45]),
   midi.SetTempoEvent(tick=480, data=[12, 179, 37]),
   midi.SetTempoEvent(tick=480, data=[13, 39, 241]),
   midi.SetTempoEvent(tick=480, data=[13, 165, 113]),
   midi.SetTempoEvent(tick=360, data=[16, 197, 94]),
   midi.SetTempoEvent(tick=120, data=[11, 147, 101]),
   midi.SetTempoEvent(tick=360, data=[10, 200, 237]),
   midi.SetTempoEvent(tick=120, data=[11, 136, 51]),
   midi.SetTempoEvent(tick=360, data=[10, 168, 200]),
   midi.SetTempoEvent(tick=120, data=[11, 117, 185]),
   midi.SetTempoEvent(tick=240, data=[12, 49, 65]),
   midi.SetTempoEvent(tick=240, data=[11, 110, 101]),
   midi.SetTempoEvent(tick=360, data=[10, 168, 200]),
   midi.SetTempoEvent(tick=120, data=[11, 81, 116]),
   midi.SetTempoEvent(tick=360, data=[10, 184, 194]),
   midi.SetTempoEvent(tick=120, data=[11, 99, 121]),
   midi.SetTempoEvent(tick=240, data=[12, 49, 65]),
   midi.SetTempoEvent(tick=120, data=[12, 28, 156]),
   midi.SetTempoEvent(tick=120, data=[11, 128, 200]),
   midi.SetTempoEvent(tick=360, data=[10, 184, 194]),
   midi.SetTempoEvent(tick=120, data=[11, 117, 185]),
   midi.SetTempoEvent(tick=360, data=[10, 168, 200]),
   midi.SetTempoEvent(tick=120, data=[11, 117, 185]),
   midi.SetTempoEvent(tick=240, data=[12, 8, 60]),
   midi.SetTempoEvent(tick=240, data=[11, 110, 101]),
   midi.SetTempoEvent(tick=360, data=[10, 200, 237]),
   midi.SetTempoEvent(tick=120, data=[11, 81, 116]),
   midi.SetTempoEvent(tick=360, data=[10, 217, 73]),
   midi.SetTempoEvent(tick=120, data=[11, 99, 121]),
   midi.SetTempoEvent(tick=240, data=[13, 15, 234]),
   midi.SetTempoEvent(tick=240, data=[12, 28, 156]),
   midi.SetTempoEvent(tick=360, data=[10, 200, 237]),
   midi.SetTempoEvent(tick=120, data=[11, 81, 116]),
   midi.SetTempoEvent(tick=360, data=[10, 200, 237]),
   midi.SetTempoEvent(tick=120, data=[11, 81, 116]),
   midi.SetTempoEvent(tick=240, data=[13, 15, 234]),
   midi.SetTempoEvent(tick=240, data=[12, 8, 60]),
   midi.SetTempoEvent(tick=360, data=[10, 200, 237]),
   midi.SetTempoEvent(tick=120, data=[11, 81, 116]),
   midi.SetTempoEvent(tick=360, data=[10, 184, 194]),
   midi.SetTempoEvent(tick=120, data=[11, 63, 167]),
   midi.SetTempoEvent(tick=240, data=[12, 224, 225]),
   midi.SetTempoEvent(tick=240, data=[12, 8, 60]),
   midi.SetTempoEvent(tick=480, data=[12, 70, 45]),
   midi.SetTempoEvent(tick=720, data=[14, 72, 247]),
   midi.SetTempoEvent(tick=240, data=[13, 139, 153]),
   midi.SetTempoEvent(tick=360, data=[11, 46, 18]),
   midi.SetTempoEvent(tick=120, data=[11, 193, 13]),
   midi.SetTempoEvent(tick=360, data=[11, 46, 18]),
   midi.SetTempoEvent(tick=120, data=[11, 224, 71]),
   midi.SetTempoEvent(tick=360, data=[13, 139, 153]),
   midi.SetTempoEvent(tick=120, data=[12, 49, 65]),
   midi.SetTempoEvent(tick=360, data=[10, 250, 151]),
   midi.SetTempoEvent(tick=120, data=[11, 99, 121]),
   midi.SetTempoEvent(tick=360, data=[10, 233, 214]),
   midi.SetTempoEvent(tick=120, data=[11, 81, 116]),
   midi.SetTempoEvent(tick=240, data=[13, 15, 234]),
   midi.SetTempoEvent(tick=240, data=[11, 244, 32]),
   midi.SetTempoEvent(tick=360, data=[10, 200, 237]),
   midi.SetTempoEvent(tick=120, data=[11, 63, 167]),
   midi.SetTempoEvent(tick=360, data=[10, 200, 237]),
   midi.SetTempoEvent(tick=120, data=[11, 46, 18]),
   midi.SetTempoEvent(tick=240, data=[12, 224, 225]),
   midi.SetTempoEvent(tick=240, data=[12, 8, 60]),
   midi.SetTempoEvent(tick=240, data=[11, 81, 116]),
   midi.SetTempoEvent(tick=120, data=[11, 99, 121]),
   midi.SetTempoEvent(tick=120, data=[12, 16, 90]),
   midi.SetTempoEvent(tick=480, data=[12, 201, 218]),
   midi.SetTempoEvent(tick=240, data=[15, 126, 104]),
   midi.SetTempoEvent(tick=240, data=[15, 194, 176]),
   midi.SetTempoEvent(tick=480, data=[17, 147, 109]),
   midi.SetTempoEvent(tick=480, data=[19, 9, 173]),
   midi.EndOfTrackEvent(tick=0, data=[])]),
 midi.Track(\
  [midi.TrackNameEvent(tick=0, text='Piano right', data=[80, 105, 97, 110, 111, 32, 114, 105, 103, 104, 116]),
   midi.ProgramChangeEvent(tick=0, channel=0, data=[0]),
   midi.NoteOnEvent(tick=0, channel=0, data=[64, 50]),
   midi.NoteOnEvent(tick=360, channel=0, data=[64, 0]),
   midi.NoteOnEvent(tick=0, channel=0, data=[67, 40]),
   midi.NoteOnEvent(tick=120, channel=0, data=[67, 0]),
   midi.NoteOnEvent(tick=0, channel=0, data=[72, 50]),
   midi.NoteOnEvent(tick=360, channel=0, data=[72, 0]),
   midi.NoteOnEvent(tick=0, channel=0, data=[69, 41]),
   midi.NoteOnEvent(tick=120, channel=0, data=[69, 0]),
   midi.NoteOnEvent(tick=0, channel=0, data=[67, 47]),
   midi.NoteOnEvent(tick=360, channel=0, data=[67, 0]),
   midi.NoteOnEvent(tick=0, channel=0, data=[65, 42]),
   midi.NoteOnEvent(tick=120, channel=0, data=[65, 0]),
   midi.NoteOnEvent(tick=0, channel=0, data=[64, 50]),
   midi.NoteOnEvent(tick=360, channel=0, data=[64, 0]),
   midi.NoteOnEvent(tick=0, channel=0, data=[67, 40]),
   midi.NoteOnEvent(tick=120, channel=0, data=[67, 0]),
   midi.NoteOnEvent(tick=0, channel=0, data=[72, 50]),
   midi.NoteOnEvent(tick=360, channel=0, data=[72, 0]),
   midi.NoteOnEvent(tick=0, channel=0, data=[69, 41]),
   midi.NoteOnEvent(tick=120, channel=0, data=[69, 0]),
   midi.NoteOnEvent(tick=0, channel=0, data=[67, 47]),
   midi.NoteOnEvent(tick=360, channel=0, data=[67, 0]),
   midi.NoteOnEvent(tick=0, channel=0, data=[65, 42]),
   midi.NoteOnEvent(tick=120, channel=0, data=[65, 0]),
   midi.NoteOnEvent(tick=0, channel=0, data=[64, 50]),
   midi.NoteOnEvent(tick=360, channel=0, data=[64, 0]),
   midi.NoteOnEvent(tick=0, channel=0, data=[67, 40]),
   midi.NoteOnEvent(tick=120, channel=0, data=[67, 0]),
   midi.NoteOnEvent(tick=0, channel=0, data=[69, 50]),
   midi.NoteOnEvent(tick=360, channel=0, data=[69, 0]),
   midi.NoteOnEvent(tick=0, channel=0, data=[65, 41]),
   midi.NoteOnEvent(tick=120, channel=0, data=[65, 0]),
   midi.NoteOnEvent(tick=0, channel=0, data=[62, 47]),
   midi.NoteOnEvent(tick=360, channel=0, data=[62, 0]),
   midi.NoteOnEvent(tick=0, channel=0, data=[60, 42]),
   midi.NoteOnEvent(tick=120, channel=0, data=[60, 0]),
   midi.NoteOnEvent(tick=0, channel=0, data=[59, 47]),
   midi.NoteOnEvent(tick=360, channel=0, data=[59, 0]),
   midi.NoteOnEvent(tick=0, channel=0, data=[62, 42]),
   midi.NoteOnEvent(tick=120, channel=0, data=[62, 0]),
   midi.NoteOnEvent(tick=0, channel=0, data=[60, 47]),
   midi.NoteOnEvent(tick=480, channel=0, data=[60, 0]),
   midi.NoteOnEvent(tick=480, channel=0, data=[65, 61]),
   midi.NoteOnEvent(tick=0, channel=0, data=[62, 51]),
   midi.NoteOnEvent(tick=960, channel=0, data=[62, 0]),
   midi.NoteOnEvent(tick=0, channel=0, data=[65, 0]),
   midi.NoteOnEvent(tick=0, channel=0, data=[60, 39]),
   midi.NoteOnEvent(tick=0, channel=0, data=[64, 47]),
   midi.NoteOnEvent(tick=480, channel=0, data=[64, 0]),
   midi.NoteOnEvent(tick=0, channel=0, data=[60, 0]),
   midi.NoteOnEvent(tick=0, channel=0, data=[65, 61]),
   midi.NoteOnEvent(tick=0, channel=0, data=[62, 51]),
   midi.NoteOnEvent(tick=960, channel=0, data=[62, 0]),
   midi.NoteOnEvent(tick=0, channel=0, data=[65, 0]),
   midi.NoteOnEvent(tick=0, channel=0, data=[60, 39]),
   midi.NoteOnEvent(tick=0, channel=0, data=[64, 47]),
   midi.NoteOnEvent(tick=480, channel=0, data=[64, 0]),
   midi.NoteOnEvent(tick=0, channel=0, data=[60, 0]),
   midi.NoteOnEvent(tick=0, channel=0, data=[57, 49]),
   midi.NoteOnEvent(tick=360, channel=0, data=[57, 0]),
   midi.NoteOnEvent(tick=0, channel=0, data=[62, 42]),
   midi.NoteOnEvent(tick=120, channel=0, data=[62, 0]),
   midi.NoteOnEvent(tick=0, channel=0, data=[55, 47]),
   midi.NoteOnEvent(tick=360, channel=0, data=[55, 0]),
   midi.NoteOnEvent(tick=0, channel=0, data=[60, 38]),
   midi.NoteOnEvent(tick=120, channel=0, data=[60, 0]),
   midi.NoteOnEvent(tick=0, channel=0, data=[53, 45]),
   midi.NoteOnEvent(tick=360, channel=0, data=[53, 0]),
   midi.NoteOnEvent(tick=0, channel=0, data=[59, 36]),
   midi.NoteOnEvent(tick=120, channel=0, data=[59, 0]),
   midi.NoteOnEvent(tick=0, channel=0, data=[53, 32]),
   midi.NoteOnEvent(tick=0, channel=0, data=[59, 32]),
   midi.NoteOnEvent(tick=0, channel=0, data=[62, 38]),
   midi.NoteOnEvent(tick=960, channel=0, data=[62, 0]),
   midi.NoteOnEvent(tick=0, channel=0, data=[59, 0]),
   midi.NoteOnEvent(tick=0, channel=0, data=[53, 0]),
   midi.NoteOnEvent(tick=0, channel=0, data=[52, 29]),
   midi.NoteOnEvent(tick=0, channel=0, data=[60, 35]),
   midi.NoteOnEvent(tick=480, channel=0, data=[60, 0]),
   midi.NoteOnEvent(tick=0, channel=0, data=[52, 0]),
   midi.NoteOnEvent(tick=0, channel=0, data=[64, 50]),
   midi.NoteOnEvent(tick=360, channel=0, data=[64, 0]),
   midi.NoteOnEvent(tick=0, channel=0, data=[76, 44]),
   midi.NoteOnEvent(tick=120, channel=0, data=[76, 0]),
   midi.NoteOnEvent(tick=0, channel=0, data=[74, 50]),
   midi.NoteOnEvent(tick=360, channel=0, data=[74, 0]),
   midi.NoteOnEvent(tick=0, channel=0, data=[71, 45]),
   midi.NoteOnEvent(tick=120, channel=0, data=[71, 0]),
   midi.NoteOnEvent(tick=0, channel=0, data=[72, 47]),
   midi.NoteOnEvent(tick=360, channel=0, data=[72, 0]),
   midi.NoteOnEvent(tick=0, channel=0, data=[69, 42]),
   midi.NoteOnEvent(tick=120, channel=0, data=[69, 0]),
   midi.NoteOnEvent(tick=0, channel=0, data=[68, 50]),
   midi.NoteOnEvent(tick=360, channel=0, data=[68, 0]),
   midi.NoteOnEvent(tick=0, channel=0, data=[71, 40]),
   midi.NoteOnEvent(tick=120, channel=0, data=[71, 0]),
   midi.NoteOnEvent(tick=0, channel=0, data=[64, 50]),
   midi.NoteOnEvent(tick=360, channel=0, data=[64, 0]),
   midi.NoteOnEvent(tick=0, channel=0, data=[68, 41]),
   midi.NoteOnEvent(tick=120, channel=0, data=[68, 0]),
   midi.NoteOnEvent(tick=0, channel=0, data=[69, 47]),
   midi.NoteOnEvent(tick=360, channel=0, data=[69, 0]),
   midi.NoteOnEvent(tick=0, channel=0, data=[72, 42]),
   midi.NoteOnEvent(tick=120, channel=0, data=[72, 0]),
   midi.NoteOnEvent(tick=0, channel=0, data=[62, 50]),
   midi.NoteOnEvent(tick=360, channel=0, data=[62, 0]),
   midi.NoteOnEvent(tick=0, channel=0, data=[74, 40]),
   midi.NoteOnEvent(tick=120, channel=0, data=[74, 0]),
   midi.NoteOnEvent(tick=0, channel=0, data=[72, 50]),
   midi.NoteOnEvent(tick=360, channel=0, data=[72, 0]),
   midi.NoteOnEvent(tick=0, channel=0, data=[69, 41]),
   midi.NoteOnEvent(tick=120, channel=0, data=[69, 0]),
   midi.NoteOnEvent(tick=0, channel=0, data=[71, 47]),
   midi.NoteOnEvent(tick=360, channel=0, data=[71, 0]),
   midi.NoteOnEvent(tick=0, channel=0, data=[67, 42]),
   midi.NoteOnEvent(tick=120, channel=0, data=[67, 0]),
   midi.NoteOnEvent(tick=0, channel=0, data=[66, 50]),
   midi.NoteOnEvent(tick=360, channel=0, data=[66, 0]),
   midi.NoteOnEvent(tick=0, channel=0, data=[74, 49]),
   midi.NoteOnEvent(tick=120, channel=0, data=[74, 0]),
   midi.NoteOnEvent(tick=0, channel=0, data=[67, 57]),
   midi.NoteOnEvent(tick=360, channel=0, data=[67, 0]),
   midi.NoteOnEvent(tick=0, channel=0, data=[74, 56]),
   midi.NoteOnEvent(tick=120, channel=0, data=[74, 0]),
   midi.NoteOnEvent(tick=0, channel=0, data=[69, 64]),
   midi.NoteOnEvent(tick=360, channel=0, data=[69, 0]),
   midi.NoteOnEvent(tick=0, channel=0, data=[74, 64]),
   midi.NoteOnEvent(tick=120, channel=0, data=[74, 0]),
   midi.NoteOnEvent(tick=0, channel=0, data=[71, 72]),
   midi.NoteOnEvent(tick=360, channel=0, data=[71, 0]),
   midi.NoteOnEvent(tick=0, channel=0, data=[79, 62]),
   midi.NoteOnEvent(tick=120, channel=0, data=[79, 0]),
   midi.NoteOnEvent(tick=0, channel=0, data=[72, 68]),
   midi.NoteOnEvent(tick=360, channel=0, data=[72, 0]),
   midi.NoteOnEvent(tick=0, channel=0, data=[79, 61]),
   midi.NoteOnEvent(tick=120, channel=0, data=[79, 0]),
   midi.NoteOnEvent(tick=0, channel=0, data=[74, 68]),
   midi.NoteOnEvent(tick=360, channel=0, data=[74, 0]),
   midi.NoteOnEvent(tick=0, channel=0, data=[79, 63]),
   midi.NoteOnEvent(tick=120, channel=0, data=[79, 0]),
   midi.NoteOnEvent(tick=0, channel=0, data=[76, 68]),
   midi.NoteOnEvent(tick=360, channel=0, data=[76, 0]),
   midi.NoteOnEvent(tick=0, channel=0, data=[84, 56]),
   midi.NoteOnEvent(tick=120, channel=0, data=[84, 0]),
   midi.NoteOnEvent(tick=0, channel=0, data=[78, 65]),
   midi.NoteOnEvent(tick=360, channel=0, data=[78, 0]),
   midi.NoteOnEvent(tick=0, channel=0, data=[81, 56]),
   midi.NoteOnEvent(tick=120, channel=0, data=[81, 0]),
   midi.NoteOnEvent(tick=0, channel=0, data=[79, 65]),
   midi.NoteOnEvent(tick=360, channel=0, data=[79, 0]),
   midi.NoteOnEvent(tick=0, channel=0, data=[71, 42]),
   midi.NoteOnEvent(tick=0, channel=0, data=[74, 50]),
   midi.NoteOnEvent(tick=120, channel=0, data=[74, 0]),
   midi.NoteOnEvent(tick=0, channel=0, data=[71, 0]),
   midi.NoteOnEvent(tick=0, channel=0, data=[71, 51]),
   midi.NoteOnEvent(tick=0, channel=0, data=[74, 61]),
   midi.NoteOnEvent(tick=360, channel=0, data=[74, 0]),
   midi.NoteOnEvent(tick=0, channel=0, data=[71, 0]),
   midi.NoteOnEvent(tick=0, channel=0, data=[69, 39]),
   midi.NoteOnEvent(tick=0, channel=0, data=[72, 47]),
   midi.NoteOnEvent(tick=120, channel=0, data=[72, 0]),
   midi.NoteOnEvent(tick=0, channel=0, data=[69, 0]),
   midi.NoteOnEvent(tick=0, channel=0, data=[71, 59]),
   midi.NoteOnEvent(tick=0, channel=0, data=[67, 50]),
   midi.NoteOnEvent(tick=480, channel=0, data=[67, 0]),
   midi.NoteOnEvent(tick=0, channel=0, data=[71, 0]),
   midi.NoteOnEvent(tick=0, channel=0, data=[69, 44]),
   midi.NoteOnEvent(tick=0, channel=0, data=[66, 37]),
   midi.NoteOnEvent(tick=480, channel=0, data=[66, 0]),
   midi.NoteOnEvent(tick=0, channel=0, data=[69, 0]),
   midi.NoteOnEvent(tick=0, channel=0, data=[67, 54]),
   midi.NoteOnEvent(tick=480, channel=0, data=[67, 0]),
   midi.NoteOnEvent(tick=0, channel=0, data=[66, 40]),
   midi.NoteOnEvent(tick=480, channel=0, data=[66, 0]),
   midi.NoteOnEvent(tick=0, channel=0, data=[65, 28]),
   midi.NoteOnEvent(tick=480, channel=0, data=[65, 0]),
   midi.NoteOnEvent(tick=0, channel=0, data=[64, 46]),
   midi.NoteOnEvent(tick=360, channel=0, data=[64, 0]),
   midi.NoteOnEvent(tick=0, channel=0, data=[67, 40]),
   midi.NoteOnEvent(tick=120, channel=0, data=[67, 0]),
   midi.NoteOnEvent(tick=0, channel=0, data=[72, 50]),
   midi.NoteOnEvent(tick=360, channel=0, data=[72, 0]),
   midi.NoteOnEvent(tick=0, channel=0, data=[69, 41]),
   midi.NoteOnEvent(tick=120, channel=0, data=[69, 0]),
   midi.NoteOnEvent(tick=0, channel=0, data=[67, 47]),
   midi.NoteOnEvent(tick=360, channel=0, data=[67, 0]),
   midi.NoteOnEvent(tick=0, channel=0, data=[65, 42]),
   midi.NoteOnEvent(tick=120, channel=0, data=[65, 0]),
   midi.NoteOnEvent(tick=0, channel=0, data=[64, 50]),
   midi.NoteOnEvent(tick=360, channel=0, data=[64, 0]),
   midi.NoteOnEvent(tick=0, channel=0, data=[67, 40]),
   midi.NoteOnEvent(tick=120, channel=0, data=[67, 0]),
   midi.NoteOnEvent(tick=0, channel=0, data=[72, 50]),
   midi.NoteOnEvent(tick=360, channel=0, data=[72, 0]),
   midi.NoteOnEvent(tick=0, channel=0, data=[69, 41]),
   midi.NoteOnEvent(tick=120, channel=0, data=[69, 0]),
   midi.NoteOnEvent(tick=0, channel=0, data=[67, 47]),
   midi.NoteOnEvent(tick=360, channel=0, data=[67, 0]),
   midi.NoteOnEvent(tick=0, channel=0, data=[65, 42]),
   midi.NoteOnEvent(tick=120, channel=0, data=[65, 0]),
   midi.NoteOnEvent(tick=0, channel=0, data=[64, 50]),
   midi.NoteOnEvent(tick=360, channel=0, data=[64, 0]),
   midi.NoteOnEvent(tick=0, channel=0, data=[67, 40]),
   midi.NoteOnEvent(tick=120, channel=0, data=[67, 0]),
   midi.NoteOnEvent(tick=0, channel=0, data=[69, 50]),
   midi.NoteOnEvent(tick=360, channel=0, data=[69, 0]),
   midi.NoteOnEvent(tick=0, channel=0, data=[65, 41]),
   midi.NoteOnEvent(tick=120, channel=0, data=[65, 0]),
   midi.NoteOnEvent(tick=0, channel=0, data=[62, 47]),
   midi.NoteOnEvent(tick=360, channel=0, data=[62, 0]),
   midi.NoteOnEvent(tick=0, channel=0, data=[60, 42]),
   midi.NoteOnEvent(tick=120, channel=0, data=[60, 0]),
   midi.NoteOnEvent(tick=0, channel=0, data=[59, 47]),
   midi.NoteOnEvent(tick=360, channel=0, data=[59, 0]),
   midi.NoteOnEvent(tick=0, channel=0, data=[62, 42]),
   midi.NoteOnEvent(tick=120, channel=0, data=[62, 0]),
   midi.NoteOnEvent(tick=0, channel=0, data=[60, 47]),
   midi.NoteOnEvent(tick=480, channel=0, data=[60, 0]),
   midi.NoteOnEvent(tick=480, channel=0, data=[65, 61]),
   midi.NoteOnEvent(tick=0, channel=0, data=[62, 51]),
   midi.NoteOnEvent(tick=960, channel=0, data=[62, 0]),
   midi.NoteOnEvent(tick=0, channel=0, data=[65, 0]),
   midi.NoteOnEvent(tick=0, channel=0, data=[60, 39]),
   midi.NoteOnEvent(tick=0, channel=0, data=[64, 47]),
   midi.NoteOnEvent(tick=480, channel=0, data=[64, 0]),
   midi.NoteOnEvent(tick=0, channel=0, data=[60, 0]),
   midi.NoteOnEvent(tick=0, channel=0, data=[65, 61]),
   midi.NoteOnEvent(tick=0, channel=0, data=[62, 51]),
   midi.NoteOnEvent(tick=960, channel=0, data=[62, 0]),
   midi.NoteOnEvent(tick=0, channel=0, data=[65, 0]),
   midi.NoteOnEvent(tick=0, channel=0, data=[60, 39]),
   midi.NoteOnEvent(tick=0, channel=0, data=[64, 47]),
   midi.NoteOnEvent(tick=480, channel=0, data=[64, 0]),
   midi.NoteOnEvent(tick=0, channel=0, data=[60, 0]),
   midi.NoteOnEvent(tick=0, channel=0, data=[57, 49]),
   midi.NoteOnEvent(tick=360, channel=0, data=[57, 0]),
   midi.NoteOnEvent(tick=0, channel=0, data=[62, 42]),
   midi.NoteOnEvent(tick=120, channel=0, data=[62, 0]),
   midi.NoteOnEvent(tick=0, channel=0, data=[55, 47]),
   midi.NoteOnEvent(tick=360, channel=0, data=[55, 0]),
   midi.NoteOnEvent(tick=0, channel=0, data=[60, 38]),
   midi.NoteOnEvent(tick=120, channel=0, data=[60, 0]),
   midi.NoteOnEvent(tick=0, channel=0, data=[53, 45]),
   midi.NoteOnEvent(tick=360, channel=0, data=[53, 0]),
   midi.NoteOnEvent(tick=0, channel=0, data=[59, 36]),
   midi.NoteOnEvent(tick=120, channel=0, data=[59, 0]),
   midi.NoteOnEvent(tick=0, channel=0, data=[60, 38]),
   midi.NoteOnEvent(tick=360, channel=0, data=[60, 0]),
   midi.NoteOnEvent(tick=0, channel=0, data=[72, 38]),
   midi.NoteOnEvent(tick=120, channel=0, data=[72, 0]),
   midi.NoteOnEvent(tick=0, channel=0, data=[71, 46]),
   midi.NoteOnEvent(tick=360, channel=0, data=[71, 0]),
   midi.NoteOnEvent(tick=0, channel=0, data=[69, 47]),
   midi.NoteOnEvent(tick=120, channel=0, data=[69, 0]),
   midi.NoteOnEvent(tick=0, channel=0, data=[67, 53]),
   midi.NoteOnEvent(tick=360, channel=0, data=[67, 0]),
   midi.NoteOnEvent(tick=0, channel=0, data=[66, 49]),
   midi.NoteOnEvent(tick=120, channel=0, data=[66, 0]),
   midi.NoteOnEvent(tick=0, channel=0, data=[65, 61]),
   midi.NoteOnEvent(tick=0, channel=0, data=[62, 51]),
   midi.NoteOnEvent(tick=960, channel=0, data=[62, 0]),
   midi.NoteOnEvent(tick=0, channel=0, data=[65, 0]),
   midi.NoteOnEvent(tick=0, channel=0, data=[60, 39]),
   midi.NoteOnEvent(tick=0, channel=0, data=[64, 47]),
   midi.NoteOnEvent(tick=480, channel=0, data=[64, 0]),
   midi.NoteOnEvent(tick=0, channel=0, data=[60, 0]),
   midi.NoteOnEvent(tick=0, channel=0, data=[65, 61]),
   midi.NoteOnEvent(tick=0, channel=0, data=[62, 51]),
   midi.NoteOnEvent(tick=960, channel=0, data=[62, 0]),
   midi.NoteOnEvent(tick=0, channel=0, data=[65, 0]),
   midi.NoteOnEvent(tick=0, channel=0, data=[60, 39]),
   midi.NoteOnEvent(tick=0, channel=0, data=[64, 47]),
   midi.NoteOnEvent(tick=480, channel=0, data=[64, 0]),
   midi.NoteOnEvent(tick=0, channel=0, data=[60, 0]),
   midi.NoteOnEvent(tick=0, channel=0, data=[57, 49]),
   midi.NoteOnEvent(tick=360, channel=0, data=[57, 0]),
   midi.NoteOnEvent(tick=0, channel=0, data=[62, 42]),
   midi.NoteOnEvent(tick=120, channel=0, data=[62, 0]),
   midi.NoteOnEvent(tick=0, channel=0, data=[55, 47]),
   midi.NoteOnEvent(tick=360, channel=0, data=[55, 0]),
   midi.NoteOnEvent(tick=0, channel=0, data=[60, 38]),
   midi.NoteOnEvent(tick=120, channel=0, data=[60, 0]),
   midi.NoteOnEvent(tick=0, channel=0, data=[53, 45]),
   midi.NoteOnEvent(tick=360, channel=0, data=[53, 0]),
   midi.NoteOnEvent(tick=0, channel=0, data=[59, 36]),
   midi.NoteOnEvent(tick=120, channel=0, data=[59, 0]),
   midi.NoteOnEvent(tick=0, channel=0, data=[53, 32]),
   midi.NoteOnEvent(tick=0, channel=0, data=[59, 32]),
   midi.NoteOnEvent(tick=0, channel=0, data=[62, 38]),
   midi.NoteOnEvent(tick=960, channel=0, data=[62, 0]),
   midi.NoteOnEvent(tick=0, channel=0, data=[59, 0]),
   midi.NoteOnEvent(tick=0, channel=0, data=[53, 0]),
   midi.NoteOnEvent(tick=0, channel=0, data=[52, 29]),
   midi.NoteOnEvent(tick=0, channel=0, data=[60, 35]),
   midi.NoteOnEvent(tick=480, channel=0, data=[60, 0]),
   midi.NoteOnEvent(tick=0, channel=0, data=[52, 0]),
   midi.EndOfTrackEvent(tick=0, data=[])]),
 midi.Track(\
  [midi.TrackNameEvent(tick=0, text='Piano left', data=[80, 105, 97, 110, 111, 32, 108, 101, 102, 116]),
   midi.ProgramChangeEvent(tick=0, channel=0, data=[0]),
   midi.NoteOnEvent(tick=0, channel=0, data=[60, 35]),
   midi.NoteOnEvent(tick=960, channel=0, data=[60, 0]),
   midi.NoteOnEvent(tick=0, channel=0, data=[59, 30]),
   midi.NoteOnEvent(tick=480, channel=0, data=[59, 0]),
   midi.NoteOnEvent(tick=0, channel=0, data=[60, 35]),
   midi.NoteOnEvent(tick=960, channel=0, data=[60, 0]),
   midi.NoteOnEvent(tick=0, channel=0, data=[59, 30]),
   midi.NoteOnEvent(tick=480, channel=0, data=[59, 0]),
   midi.NoteOnEvent(tick=0, channel=0, data=[60, 35]),
   midi.NoteOnEvent(tick=480, channel=0, data=[60, 0]),
   midi.NoteOnEvent(tick=0, channel=0, data=[53, 30]),
   midi.NoteOnEvent(tick=960, channel=0, data=[53, 0]),
   midi.NoteOnEvent(tick=0, channel=0, data=[55, 35]),
   midi.NoteOnEvent(tick=480, channel=0, data=[55, 0]),
   midi.NoteOnEvent(tick=0, channel=0, data=[52, 45]),
   midi.NoteOnEvent(tick=360, channel=0, data=[52, 0]),
   midi.NoteOnEvent(tick=0, channel=0, data=[55, 37]),
   midi.NoteOnEvent(tick=120, channel=0, data=[55, 0]),
   midi.NoteOnEvent(tick=0, channel=0, data=[52, 49]),
   midi.NoteOnEvent(tick=360, channel=0, data=[52, 0]),
   midi.NoteOnEvent(tick=0, channel=0, data=[48, 45]),
   midi.NoteOnEvent(tick=120, channel=0, data=[48, 0]),
   midi.NoteOnEvent(tick=0, channel=0, data=[47, 61]),
   midi.NoteOnEvent(tick=360, channel=0, data=[47, 0]),
   midi.NoteOnEvent(tick=0, channel=0, data=[50, 47]),
   midi.NoteOnEvent(tick=120, channel=0, data=[50, 0]),
   midi.NoteOnEvent(tick=0, channel=0, data=[43, 52]),
   midi.NoteOnEvent(tick=360, channel=0, data=[43, 0]),
   midi.NoteOnEvent(tick=0, channel=0, data=[47, 37]),
   midi.NoteOnEvent(tick=120, channel=0, data=[47, 0]),
   midi.NoteOnEvent(tick=0, channel=0, data=[48, 43]),
   midi.NoteOnEvent(tick=360, channel=0, data=[48, 0]),
   midi.NoteOnEvent(tick=0, channel=0, data=[52, 41]),
   midi.NoteOnEvent(tick=120, channel=0, data=[52, 0]),
   midi.NoteOnEvent(tick=0, channel=0, data=[47, 61]),
   midi.NoteOnEvent(tick=360, channel=0, data=[47, 0]),
   midi.NoteOnEvent(tick=0, channel=0, data=[50, 47]),
   midi.NoteOnEvent(tick=120, channel=0, data=[50, 0]),
   midi.NoteOnEvent(tick=0, channel=0, data=[43, 52]),
   midi.NoteOnEvent(tick=360, channel=0, data=[43, 0]),
   midi.NoteOnEvent(tick=0, channel=0, data=[47, 37]),
   midi.NoteOnEvent(tick=120, channel=0, data=[47, 0]),
   midi.NoteOnEvent(tick=0, channel=0, data=[48, 43]),
   midi.NoteOnEvent(tick=360, channel=0, data=[48, 0]),
   midi.NoteOnEvent(tick=0, channel=0, data=[52, 41]),
   midi.NoteOnEvent(tick=120, channel=0, data=[52, 0]),
   midi.NoteOnEvent(tick=0, channel=0, data=[53, 35]),
   midi.NoteOnEvent(tick=480, channel=0, data=[53, 0]),
   midi.NoteOnEvent(tick=0, channel=0, data=[43, 35]),
   midi.NoteOnEvent(tick=0, channel=0, data=[52, 35]),
   midi.NoteOnEvent(tick=480, channel=0, data=[52, 0]),
   midi.NoteOnEvent(tick=0, channel=0, data=[43, 0]),
   midi.NoteOnEvent(tick=0, channel=0, data=[50, 28]),
   midi.NoteOnEvent(tick=0, channel=0, data=[43, 28]),
   midi.NoteOnEvent(tick=480, channel=0, data=[43, 0]),
   midi.NoteOnEvent(tick=0, channel=0, data=[50, 0]),
   midi.NoteOnEvent(tick=0, channel=0, data=[48, 37]),
   midi.NoteOnEvent(tick=480, channel=0, data=[48, 0]),
   midi.NoteOnEvent(tick=0, channel=0, data=[43, 31]),
   midi.NoteOnEvent(tick=480, channel=0, data=[43, 0]),
   midi.NoteOnEvent(tick=0, channel=0, data=[36, 29]),
   midi.NoteOnEvent(tick=480, channel=0, data=[36, 0]),
   midi.NoteOnEvent(tick=0, channel=0, data=[56, 35]),
   midi.NoteOnEvent(tick=960, channel=0, data=[56, 0]),
   midi.NoteOnEvent(tick=0, channel=0, data=[57, 30]),
   midi.NoteOnEvent(tick=480, channel=0, data=[57, 0]),
   midi.NoteOnEvent(tick=0, channel=0, data=[62, 35]),
   midi.NoteOnEvent(tick=960, channel=0, data=[62, 0]),
   midi.NoteOnEvent(tick=0, channel=0, data=[60, 30]),
   midi.NoteOnEvent(tick=480, channel=0, data=[60, 0]),
   midi.NoteOnEvent(tick=0, channel=0, data=[54, 35]),
   midi.NoteOnEvent(tick=960, channel=0, data=[54, 0]),
   midi.NoteOnEvent(tick=0, channel=0, data=[55, 30]),
   midi.NoteOnEvent(tick=480, channel=0, data=[55, 0]),
   midi.NoteOnEvent(tick=0, channel=0, data=[60, 29]),
   midi.NoteOnEvent(tick=480, channel=0, data=[60, 0]),
   midi.NoteOnEvent(tick=0, channel=0, data=[59, 34]),
   midi.NoteOnEvent(tick=480, channel=0, data=[59, 0]),
   midi.NoteOnEvent(tick=0, channel=0, data=[54, 40]),
   midi.NoteOnEvent(tick=480, channel=0, data=[54, 0]),
   midi.NoteOnEvent(tick=0, channel=0, data=[55, 54]),
   midi.NoteOnEvent(tick=480, channel=0, data=[55, 0]),
   midi.NoteOnEvent(tick=0, channel=0, data=[57, 48]),
   midi.NoteOnEvent(tick=480, channel=0, data=[57, 0]),
   midi.NoteOnEvent(tick=0, channel=0, data=[59, 50]),
   midi.NoteOnEvent(tick=480, channel=0, data=[59, 0]),
   midi.NoteOnEvent(tick=0, channel=0, data=[60, 54]),
   midi.NoteOnEvent(tick=480, channel=0, data=[60, 0]),
   midi.NoteOnEvent(tick=0, channel=0, data=[57, 48]),
   midi.NoteOnEvent(tick=480, channel=0, data=[57, 0]),
   midi.NoteOnEvent(tick=0, channel=0, data=[59, 42]),
   midi.NoteOnEvent(tick=480, channel=0, data=[59, 0]),
   midi.NoteOnEvent(tick=0, channel=0, data=[48, 53]),
   midi.NoteOnEvent(tick=480, channel=0, data=[48, 0]),
   midi.NoteOnEvent(tick=0, channel=0, data=[50, 42]),
   midi.NoteOnEvent(tick=480, channel=0, data=[50, 0]),
   midi.NoteOnEvent(tick=0, channel=0, data=[38, 36]),
   midi.NoteOnEvent(tick=480, channel=0, data=[38, 0]),
   midi.NoteOnEvent(tick=0, channel=0, data=[43, 30]),
   midi.NoteOnEvent(tick=360, channel=0, data=[43, 0]),
   midi.NoteOnEvent(tick=0, channel=0, data=[55, 26]),
   midi.NoteOnEvent(tick=120, channel=0, data=[55, 0]),
   midi.NoteOnEvent(tick=0, channel=0, data=[45, 30]),
   midi.NoteOnEvent(tick=360, channel=0, data=[45, 0]),
   midi.NoteOnEvent(tick=0, channel=0, data=[55, 25]),
   midi.NoteOnEvent(tick=120, channel=0, data=[55, 0]),
   midi.NoteOnEvent(tick=0, channel=0, data=[47, 30]),
   midi.NoteOnEvent(tick=360, channel=0, data=[47, 0]),
   midi.NoteOnEvent(tick=0, channel=0, data=[55, 20]),
   midi.NoteOnEvent(tick=120, channel=0, data=[55, 0]),
   midi.NoteOnEvent(tick=0, channel=0, data=[48, 33]),
   midi.NoteOnEvent(tick=960, channel=0, data=[48, 0]),
   midi.NoteOnEvent(tick=0, channel=0, data=[47, 30]),
   midi.NoteOnEvent(tick=480, channel=0, data=[47, 0]),
   midi.NoteOnEvent(tick=0, channel=0, data=[48, 35]),
   midi.NoteOnEvent(tick=960, channel=0, data=[48, 0]),
   midi.NoteOnEvent(tick=0, channel=0, data=[47, 30]),
   midi.NoteOnEvent(tick=480, channel=0, data=[47, 0]),
   midi.NoteOnEvent(tick=0, channel=0, data=[48, 35]),
   midi.NoteOnEvent(tick=480, channel=0, data=[48, 0]),
   midi.NoteOnEvent(tick=0, channel=0, data=[53, 30]),
   midi.NoteOnEvent(tick=960, channel=0, data=[53, 0]),
   midi.NoteOnEvent(tick=0, channel=0, data=[55, 35]),
   midi.NoteOnEvent(tick=480, channel=0, data=[55, 0]),
   midi.NoteOnEvent(tick=0, channel=0, data=[52, 45]),
   midi.NoteOnEvent(tick=360, channel=0, data=[52, 0]),
   midi.NoteOnEvent(tick=0, channel=0, data=[55, 37]),
   midi.NoteOnEvent(tick=120, channel=0, data=[55, 0]),
   midi.NoteOnEvent(tick=0, channel=0, data=[52, 43]),
   midi.NoteOnEvent(tick=360, channel=0, data=[52, 0]),
   midi.NoteOnEvent(tick=0, channel=0, data=[48, 41]),
   midi.NoteOnEvent(tick=120, channel=0, data=[48, 0]),
   midi.NoteOnEvent(tick=0, channel=0, data=[47, 61]),
   midi.NoteOnEvent(tick=360, channel=0, data=[47, 0]),
   midi.NoteOnEvent(tick=0, channel=0, data=[50, 47]),
   midi.NoteOnEvent(tick=120, channel=0, data=[50, 0]),
   midi.NoteOnEvent(tick=0, channel=0, data=[43, 52]),
   midi.NoteOnEvent(tick=360, channel=0, data=[43, 0]),
   midi.NoteOnEvent(tick=0, channel=0, data=[47, 37]),
   midi.NoteOnEvent(tick=120, channel=0, data=[47, 0]),
   midi.NoteOnEvent(tick=0, channel=0, data=[48, 43]),
   midi.NoteOnEvent(tick=360, channel=0, data=[48, 0]),
   midi.NoteOnEvent(tick=0, channel=0, data=[52, 41]),
   midi.NoteOnEvent(tick=120, channel=0, data=[52, 0]),
   midi.NoteOnEvent(tick=0, channel=0, data=[47, 61]),
   midi.NoteOnEvent(tick=360, channel=0, data=[47, 0]),
   midi.NoteOnEvent(tick=0, channel=0, data=[50, 47]),
   midi.NoteOnEvent(tick=120, channel=0, data=[50, 0]),
   midi.NoteOnEvent(tick=0, channel=0, data=[43, 52]),
   midi.NoteOnEvent(tick=360, channel=0, data=[43, 0]),
   midi.NoteOnEvent(tick=0, channel=0, data=[47, 37]),
   midi.NoteOnEvent(tick=120, channel=0, data=[47, 0]),
   midi.NoteOnEvent(tick=0, channel=0, data=[48, 43]),
   midi.NoteOnEvent(tick=360, channel=0, data=[48, 0]),
   midi.NoteOnEvent(tick=0, channel=0, data=[52, 41]),
   midi.NoteOnEvent(tick=120, channel=0, data=[52, 0]),
   midi.NoteOnEvent(tick=0, channel=0, data=[53, 35]),
   midi.NoteOnEvent(tick=480, channel=0, data=[53, 0]),
   midi.NoteOnEvent(tick=0, channel=0, data=[43, 35]),
   midi.NoteOnEvent(tick=0, channel=0, data=[52, 35]),
   midi.NoteOnEvent(tick=480, channel=0, data=[52, 0]),
   midi.NoteOnEvent(tick=0, channel=0, data=[43, 0]),
   midi.NoteOnEvent(tick=0, channel=0, data=[50, 28]),
   midi.NoteOnEvent(tick=0, channel=0, data=[43, 28]),
   midi.NoteOnEvent(tick=480, channel=0, data=[43, 0]),
   midi.NoteOnEvent(tick=0, channel=0, data=[50, 0]),
   midi.NoteOnEvent(tick=0, channel=0, data=[52, 37]),
   midi.NoteOnEvent(tick=0, channel=0, data=[48, 37]),
   midi.NoteOnEvent(tick=480, channel=0, data=[48, 0]),
   midi.NoteOnEvent(tick=0, channel=0, data=[52, 0]),
   midi.NoteOnEvent(tick=960, channel=0, data=[47, 61]),
   midi.NoteOnEvent(tick=360, channel=0, data=[47, 0]),
   midi.NoteOnEvent(tick=0, channel=0, data=[50, 47]),
   midi.NoteOnEvent(tick=120, channel=0, data=[50, 0]),
   midi.NoteOnEvent(tick=0, channel=0, data=[43, 52]),
   midi.NoteOnEvent(tick=360, channel=0, data=[43, 0]),
   midi.NoteOnEvent(tick=0, channel=0, data=[47, 37]),
   midi.NoteOnEvent(tick=120, channel=0, data=[47, 0]),
   midi.NoteOnEvent(tick=0, channel=0, data=[48, 43]),
   midi.NoteOnEvent(tick=360, channel=0, data=[48, 0]),
   midi.NoteOnEvent(tick=0, channel=0, data=[52, 41]),
   midi.NoteOnEvent(tick=120, channel=0, data=[52, 0]),
   midi.NoteOnEvent(tick=0, channel=0, data=[47, 61]),
   midi.NoteOnEvent(tick=360, channel=0, data=[47, 0]),
   midi.NoteOnEvent(tick=0, channel=0, data=[50, 47]),
   midi.NoteOnEvent(tick=120, channel=0, data=[50, 0]),
   midi.NoteOnEvent(tick=0, channel=0, data=[43, 52]),
   midi.NoteOnEvent(tick=360, channel=0, data=[43, 0]),
   midi.NoteOnEvent(tick=0, channel=0, data=[47, 37]),
   midi.NoteOnEvent(tick=120, channel=0, data=[47, 0]),
   midi.NoteOnEvent(tick=0, channel=0, data=[48, 43]),
   midi.NoteOnEvent(tick=360, channel=0, data=[48, 0]),
   midi.NoteOnEvent(tick=0, channel=0, data=[52, 41]),
   midi.NoteOnEvent(tick=120, channel=0, data=[52, 0]),
   midi.NoteOnEvent(tick=0, channel=0, data=[53, 35]),
   midi.NoteOnEvent(tick=480, channel=0, data=[53, 0]),
   midi.NoteOnEvent(tick=0, channel=0, data=[43, 29]),
   midi.NoteOnEvent(tick=0, channel=0, data=[52, 35]),
   midi.NoteOnEvent(tick=480, channel=0, data=[52, 0]),
   midi.NoteOnEvent(tick=0, channel=0, data=[43, 0]),
   midi.NoteOnEvent(tick=0, channel=0, data=[50, 28]),
   midi.NoteOnEvent(tick=0, channel=0, data=[43, 23]),
   midi.NoteOnEvent(tick=480, channel=0, data=[43, 0]),
   midi.NoteOnEvent(tick=0, channel=0, data=[50, 0]),
   midi.NoteOnEvent(tick=0, channel=0, data=[48, 37]),
   midi.NoteOnEvent(tick=480, channel=0, data=[48, 0]),
   midi.NoteOnEvent(tick=0, channel=0, data=[43, 31]),
   midi.NoteOnEvent(tick=480, channel=0, data=[43, 0]),
   midi.NoteOnEvent(tick=0, channel=0, data=[36, 29]),
   midi.NoteOnEvent(tick=480, channel=0, data=[36, 0]),
   midi.EndOfTrackEvent(tick=0, data=[])]),
 midi.Track(\
  [midi.TrackNameEvent(tick=0, text='Pedale', data=[80, 101, 100, 97, 108, 101]),
   midi.ProgramChangeEvent(tick=0, channel=0, data=[0]),
   midi.ControlChangeEvent(tick=4468, channel=0, data=[64, 127]),
   midi.ControlChangeEvent(tick=349, channel=0, data=[64, 0]),
   midi.ControlChangeEvent(tick=1000, channel=0, data=[64, 127]),
   midi.ControlChangeEvent(tick=917, channel=0, data=[64, 0]),
   midi.ControlChangeEvent(tick=113, channel=0, data=[64, 127]),
   midi.ControlChangeEvent(tick=367, channel=0, data=[64, 0]),
   midi.ControlChangeEvent(tick=85, channel=0, data=[64, 127]),
   midi.ControlChangeEvent(tick=876, channel=0, data=[64, 0]),
   midi.ControlChangeEvent(tick=126, channel=0, data=[64, 127]),
   midi.ControlChangeEvent(tick=351, channel=0, data=[64, 0]),
   midi.ControlChangeEvent(tick=136, channel=0, data=[64, 127]),
   midi.ControlChangeEvent(tick=346, channel=0, data=[64, 0]),
   midi.ControlChangeEvent(tick=92, channel=0, data=[64, 127]),
   midi.ControlChangeEvent(tick=387, channel=0, data=[64, 0]),
   midi.ControlChangeEvent(tick=100, channel=0, data=[64, 127]),
   midi.ControlChangeEvent(tick=375, channel=0, data=[64, 0]),
   midi.ControlChangeEvent(tick=312, channel=0, data=[64, 127]),
   midi.ControlChangeEvent(tick=653, channel=0, data=[64, 0]),
   midi.ControlChangeEvent(tick=4921, channel=0, data=[64, 127]),
   midi.ControlChangeEvent(tick=363, channel=0, data=[64, 0]),
   midi.ControlChangeEvent(tick=103, channel=0, data=[64, 127]),
   midi.ControlChangeEvent(tick=373, channel=0, data=[64, 0]),
   midi.ControlChangeEvent(tick=100, channel=0, data=[64, 127]),
   midi.ControlChangeEvent(tick=378, channel=0, data=[64, 0]),
   midi.ControlChangeEvent(tick=116, channel=0, data=[64, 127]),
   midi.ControlChangeEvent(tick=372, channel=0, data=[64, 0]),
   midi.ControlChangeEvent(tick=115, channel=0, data=[64, 127]),
   midi.ControlChangeEvent(tick=359, channel=0, data=[64, 0]),
   midi.ControlChangeEvent(tick=107, channel=0, data=[64, 127]),
   midi.ControlChangeEvent(tick=378, channel=0, data=[64, 0]),
   midi.ControlChangeEvent(tick=102, channel=0, data=[64, 127]),
   midi.ControlChangeEvent(tick=379, channel=0, data=[64, 0]),
   midi.ControlChangeEvent(tick=129, channel=0, data=[64, 127]),
   midi.ControlChangeEvent(tick=350, channel=0, data=[64, 0]),
   midi.ControlChangeEvent(tick=95, channel=0, data=[64, 127]),
   midi.ControlChangeEvent(tick=381, channel=0, data=[64, 0]),
   midi.ControlChangeEvent(tick=85, channel=0, data=[64, 127]),
   midi.ControlChangeEvent(tick=397, channel=0, data=[64, 0]),
   midi.ControlChangeEvent(tick=90, channel=0, data=[64, 127]),
   midi.ControlChangeEvent(tick=393, channel=0, data=[64, 0]),
   midi.ControlChangeEvent(tick=122, channel=0, data=[64, 127]),
   midi.ControlChangeEvent(tick=353, channel=0, data=[64, 0]),
   midi.ControlChangeEvent(tick=78, channel=0, data=[64, 127]),
   midi.ControlChangeEvent(tick=406, channel=0, data=[64, 0]),
   midi.ControlChangeEvent(tick=109, channel=0, data=[64, 127]),
   midi.ControlChangeEvent(tick=370, channel=0, data=[64, 0]),
   midi.ControlChangeEvent(tick=103, channel=0, data=[64, 127]),
   midi.ControlChangeEvent(tick=366, channel=0, data=[64, 0]),
   midi.ControlChangeEvent(tick=4462, channel=0, data=[64, 127]),
   midi.ControlChangeEvent(tick=349, channel=0, data=[64, 0]),
   midi.ControlChangeEvent(tick=1000, channel=0, data=[64, 127]),
   midi.ControlChangeEvent(tick=917, channel=0, data=[64, 0]),
   midi.ControlChangeEvent(tick=113, channel=0, data=[64, 127]),
   midi.ControlChangeEvent(tick=367, channel=0, data=[64, 0]),
   midi.ControlChangeEvent(tick=85, channel=0, data=[64, 127]),
   midi.ControlChangeEvent(tick=876, channel=0, data=[64, 0]),
   midi.ControlChangeEvent(tick=126, channel=0, data=[64, 127]),
   midi.ControlChangeEvent(tick=351, channel=0, data=[64, 0]),
   midi.ControlChangeEvent(tick=136, channel=0, data=[64, 127]),
   midi.ControlChangeEvent(tick=346, channel=0, data=[64, 0]),
   midi.ControlChangeEvent(tick=92, channel=0, data=[64, 127]),
   midi.ControlChangeEvent(tick=387, channel=0, data=[64, 0]),
   midi.ControlChangeEvent(tick=100, channel=0, data=[64, 127]),
   midi.ControlChangeEvent(tick=375, channel=0, data=[64, 0]),
   midi.ControlChangeEvent(tick=1489, channel=0, data=[64, 127]),
   midi.ControlChangeEvent(tick=917, channel=0, data=[64, 0]),
   midi.ControlChangeEvent(tick=113, channel=0, data=[64, 127]),
   midi.ControlChangeEvent(tick=367, channel=0, data=[64, 0]),
   midi.ControlChangeEvent(tick=85, channel=0, data=[64, 127]),
   midi.ControlChangeEvent(tick=876, channel=0, data=[64, 0]),
   midi.ControlChangeEvent(tick=126, channel=0, data=[64, 127]),
   midi.ControlChangeEvent(tick=351, channel=0, data=[64, 0]),
   midi.ControlChangeEvent(tick=136, channel=0, data=[64, 127]),
   midi.ControlChangeEvent(tick=346, channel=0, data=[64, 0]),
   midi.ControlChangeEvent(tick=92, channel=0, data=[64, 127]),
   midi.ControlChangeEvent(tick=387, channel=0, data=[64, 0]),
   midi.ControlChangeEvent(tick=100, channel=0, data=[64, 127]),
   midi.ControlChangeEvent(tick=375, channel=0, data=[64, 0]),
   midi.ControlChangeEvent(tick=312, channel=0, data=[64, 127]),
   midi.ControlChangeEvent(tick=653, channel=0, data=[64, 0]),
   midi.EndOfTrackEvent(tick=0, data=[])]),
 midi.Track(\
  [midi.TrackNameEvent(tick=0, text='Clementi: Sonatatina Opus 26, No. 2, 2. movement', data=[67, 108, 101, 109, 101, 110, 116, 105, 58, 32, 83, 111, 110, 97, 116, 97, 116, 105, 110, 97, 32, 79, 112, 117, 115, 32, 50, 54, 44, 32, 78, 111, 46, 32, 50, 44, 32, 50, 46, 32, 109, 111, 118, 101, 109, 101, 110, 116]),
   midi.EndOfTrackEvent(tick=0, data=[])]),
 midi.Track(\
  [midi.TrackNameEvent(tick=0, text='Copyright © 2010 by Bernd Krueger', data=[67, 111, 112, 121, 114, 105, 103, 104, 116, 32, 169, 32, 50, 48, 49, 48, 32, 98, 121, 32, 66, 101, 114, 110, 100, 32, 75, 114, 117, 101, 103, 101, 114]),
   midi.EndOfTrackEvent(tick=0, data=[])]),
 midi.Track(\
  [midi.TrackNameEvent(tick=0, text='http://www.piano-midi.de/', data=[104, 116, 116, 112, 58, 47, 47, 119, 119, 119, 46, 112, 105, 97, 110, 111, 45, 109, 105, 100, 105, 46, 100, 101, 47]),
   midi.EndOfTrackEvent(tick=0, data=[])]),
 midi.Track(\
  [midi.TrackNameEvent(tick=0, text='Edition: 2010-11-30', data=[69, 100, 105, 116, 105, 111, 110, 58, 32, 50, 48, 49, 48, 45, 49, 49, 45, 51, 48]),
   midi.EndOfTrackEvent(tick=0, data=[])]),
 midi.Track(\
  [midi.TrackNameEvent(tick=0, text='Spur 8', data=[83, 112, 117, 114, 32, 56]),
   midi.EndOfTrackEvent(tick=0, data=[])]),
 midi.Track(\
  [midi.TrackNameEvent(tick=0, text='Spur 9', data=[83, 112, 117, 114, 32, 57]),
   midi.EndOfTrackEvent(tick=0, data=[])]),
 midi.Track(\
  [midi.TrackNameEvent(tick=0, text='Spur 10', data=[83, 112, 117, 114, 32, 49, 48]),
   midi.EndOfTrackEvent(tick=0, data=[])]),
 midi.Track(\
  [midi.TrackNameEvent(tick=0, text='Spur 11', data=[83, 112, 117, 114, 32, 49, 49]),
   midi.EndOfTrackEvent(tick=0, data=[])]),
 midi.Track(\
  [midi.TrackNameEvent(tick=0, text='Spur 12', data=[83, 112, 117, 114, 32, 49, 50]),
   midi.EndOfTrackEvent(tick=0, data=[])]),
 midi.Track(\
  [midi.TrackNameEvent(tick=0, text='Spur 13', data=[83, 112, 117, 114, 32, 49, 51]),
   midi.EndOfTrackEvent(tick=0, data=[])]),
 midi.Track(\
  [midi.TrackNameEvent(tick=0, text='Spur 14', data=[83, 112, 117, 114, 32, 49, 52]),
   midi.EndOfTrackEvent(tick=0, data=[])]),
 midi.Track(\
  [midi.TrackNameEvent(tick=0, text='Spur 15', data=[83, 112, 117, 114, 32, 49, 53]),
   midi.EndOfTrackEvent(tick=0, data=[])]),
 midi.Track(\
  [midi.TrackNameEvent(tick=0, text='Spur 16', data=[83, 112, 117, 114, 32, 49, 54]),
   midi.EndOfTrackEvent(tick=0, data=[])])])
