import midi
pattern=midi.Pattern(format=1, resolution=480, tracks=\
[midi.Track(\
[   midi.NoteOnEvent(tick=4, channel=0, data=[83, 40]),
   midi.NoteOnEvent(tick=116, channel=0, data=[87, 34]),
   midi.NoteOnEvent(tick=4, channel=0, data=[83, 0]),
   midi.NoteOnEvent(tick=116, channel=0, data=[87, 0]),
   midi.NoteOnEvent(tick=0, channel=0, data=[83, 40]),
   midi.NoteOnEvent(tick=120, channel=0, data=[83, 0]),
   midi.NoteOnEvent(tick=0, channel=0, data=[80, 34]),
   midi.NoteOnEvent(tick=90, channel=0, data=[80, 0]),
   midi.NoteOnEvent(tick=30, channel=0, data=[80, 40]),
   midi.NoteOnEvent(tick=120, channel=0, data=[80, 0]),
   midi.NoteOnEvent(tick=0, channel=0, data=[83, 34]),
   midi.NoteOnEvent(tick=120, channel=0, data=[83, 0]),
   midi.NoteOnEvent(tick=0, channel=0, data=[80, 40]),
   midi.NoteOnEvent(tick=120, channel=0, data=[80, 0]),
   midi.NoteOnEvent(tick=0, channel=0, data=[75, 34]),
   midi.NoteOnEvent(tick=90, channel=0, data=[75, 0]),
   midi.NoteOnEvent(tick=30, channel=0, data=[75, 40]),
   midi.NoteOnEvent(tick=120, channel=0, data=[75, 0]),
   midi.NoteOnEvent(tick=0, channel=0, data=[80, 34]),
   midi.NoteOnEvent(tick=120, channel=0, data=[80, 0]),
   midi.NoteOnEvent(tick=0, channel=0, data=[75, 40]),
   midi.NoteOnEvent(tick=120, channel=0, data=[75, 0]),
   midi.NoteOnEvent(tick=0, channel=0, data=[71, 34]),
   midi.NoteOnEvent(tick=90, channel=0, data=[71, 0]),
   midi.NoteOnEvent(tick=30, channel=0, data=[71, 40]),
   midi.NoteOnEvent(tick=120, channel=0, data=[71, 0]),
   midi.NoteOnEvent(tick=0, channel=0, data=[75, 34]),
   midi.NoteOnEvent(tick=120, channel=0, data=[75, 0]),
   midi.NoteOnEvent(tick=0, channel=0, data=[71, 40]),
   midi.NoteOnEvent(tick=120, channel=0, data=[71, 0]),
   midi.NoteOnEvent(tick=0, channel=0, data=[68, 34]),
   midi.NoteOnEvent(tick=90, channel=0, data=[68, 0]),
   midi.NoteOnEvent(tick=30, channel=0, data=[68, 40]),
   midi.NoteOnEvent(tick=120, channel=0, data=[68, 0]),
   midi.NoteOnEvent(tick=0, channel=0, data=[71, 34]),
   midi.NoteOnEvent(tick=120, channel=0, data=[71, 0]),
   midi.NoteOnEvent(tick=0, channel=0, data=[68, 40]),
   midi.NoteOnEvent(tick=120, channel=0, data=[68, 0]),
   midi.NoteOnEvent(tick=0, channel=0, data=[63, 34]),
   midi.NoteOnEvent(tick=120, channel=0, data=[63, 0]),
   midi.NoteOnEvent(tick=0, channel=0, data=[67, 30]),
   midi.NoteOnEvent(tick=0, channel=0, data=[70, 36]),
   midi.NoteOnEvent(tick=240, channel=0, data=[70, 0]),
   midi.NoteOnEvent(tick=0, channel=0, data=[67, 0]),
   midi.NoteOnEvent(tick=240, channel=0, data=[83, 40]),
   midi.NoteOnEvent(tick=120, channel=0, data=[83, 0]),
   midi.NoteOnEvent(tick=0, channel=0, data=[87, 34]),
   midi.NoteOnEvent(tick=120, channel=0, data=[87, 0]),
   midi.NoteOnEvent(tick=0, channel=0, data=[83, 40]),
   midi.NoteOnEvent(tick=120, channel=0, data=[83, 0]),
   midi.NoteOnEvent(tick=0, channel=0, data=[80, 34]),
   midi.NoteOnEvent(tick=90, channel=0, data=[80, 0]),
   midi.NoteOnEvent(tick=30, channel=0, data=[80, 40]),
   midi.NoteOnEvent(tick=120, channel=0, data=[80, 0]),
   midi.NoteOnEvent(tick=0, channel=0, data=[83, 34]),
   midi.NoteOnEvent(tick=120, channel=0, data=[83, 0]),
   midi.NoteOnEvent(tick=0, channel=0, data=[80, 40]),
   midi.NoteOnEvent(tick=120, channel=0, data=[80, 0]),
   midi.NoteOnEvent(tick=0, channel=0, data=[75, 34]),
   midi.NoteOnEvent(tick=90, channel=0, data=[75, 0]),
   midi.NoteOnEvent(tick=30, channel=0, data=[75, 40]),
   midi.NoteOnEvent(tick=120, channel=0, data=[75, 0]),
   midi.NoteOnEvent(tick=0, channel=0, data=[80, 34]),
   midi.NoteOnEvent(tick=120, channel=0, data=[80, 0]),
   midi.NoteOnEvent(tick=0, channel=0, data=[75, 40]),
   midi.NoteOnEvent(tick=120, channel=0, data=[75, 0]),
   midi.NoteOnEvent(tick=0, channel=0, data=[71, 34]),
   midi.NoteOnEvent(tick=90, channel=0, data=[71, 0]),
   midi.NoteOnEvent(tick=30, channel=0, data=[71, 40]),
   midi.NoteOnEvent(tick=120, channel=0, data=[71, 0]),
   midi.NoteOnEvent(tick=0, channel=0, data=[75, 34]),
   midi.NoteOnEvent(tick=120, channel=0, data=[75, 0]),
   midi.NoteOnEvent(tick=0, channel=0, data=[71, 40]),
   midi.NoteOnEvent(tick=120, channel=0, data=[71, 0]),
   midi.NoteOnEvent(tick=0, channel=0, data=[68, 34]),
   midi.NoteOnEvent(tick=90, channel=0, data=[68, 0]),
   midi.NoteOnEvent(tick=30, channel=0, data=[68, 40]),
   midi.NoteOnEvent(tick=120, channel=0, data=[68, 0]),
   midi.NoteOnEvent(tick=0, channel=0, data=[71, 34]),
   midi.NoteOnEvent(tick=120, channel=0, data=[71, 0]),
   midi.NoteOnEvent(tick=0, channel=0, data=[68, 40]),
   midi.NoteOnEvent(tick=120, channel=0, data=[68, 0]),
   midi.NoteOnEvent(tick=0, channel=0, data=[63, 34]),
   midi.NoteOnEvent(tick=120, channel=0, data=[63, 0]),
   midi.NoteOnEvent(tick=0, channel=0, data=[67, 30]),
   midi.NoteOnEvent(tick=0, channel=0, data=[70, 36]),
   midi.NoteOnEvent(tick=240, channel=0, data=[70, 0]),
   midi.NoteOnEvent(tick=0, channel=0, data=[67, 0]),
   midi.NoteOnEvent(tick=240, channel=0, data=[68, 31]),
   midi.NoteOnEvent(tick=0, channel=0, data=[71, 31]),
   midi.NoteOnEvent(tick=456, channel=0, data=[71, 0]),
   midi.NoteOnEvent(tick=0, channel=0, data=[68, 0]),
   midi.NoteOnEvent(tick=24, channel=0, data=[67, 31]),
   midi.NoteOnEvent(tick=0, channel=0, data=[70, 31]),
   midi.NoteOnEvent(tick=0, channel=0, data=[76, 31]),
   midi.NoteOnEvent(tick=456, channel=0, data=[76, 0]),
   midi.NoteOnEvent(tick=0, channel=0, data=[70, 0]),
   midi.NoteOnEvent(tick=0, channel=0, data=[67, 0]),
   midi.NoteOnEvent(tick=24, channel=0, data=[67, 36]),
   midi.NoteOnEvent(tick=0, channel=0, data=[70, 36]),
   midi.NoteOnEvent(tick=0, channel=0, data=[76, 36]),
   midi.NoteOnEvent(tick=456, channel=0, data=[76, 0]),
   midi.NoteOnEvent(tick=0, channel=0, data=[70, 0]),
   midi.NoteOnEvent(tick=0, channel=0, data=[67, 0]),
   midi.NoteOnEvent(tick=24, channel=0, data=[67, 37]),
   midi.NoteOnEvent(tick=0, channel=0, data=[70, 37]),
   midi.NoteOnEvent(tick=0, channel=0, data=[76, 37]),
   midi.NoteOnEvent(tick=456, channel=0, data=[76, 0]),
   midi.NoteOnEvent(tick=0, channel=0, data=[70, 0]),
   midi.NoteOnEvent(tick=0, channel=0, data=[67, 0]),
   midi.NoteOnEvent(tick=24, channel=0, data=[67, 31]),
   midi.NoteOnEvent(tick=0, channel=0, data=[70, 31]),
   midi.NoteOnEvent(tick=0, channel=0, data=[75, 31]),
   midi.NoteOnEvent(tick=456, channel=0, data=[75, 0]),
   midi.NoteOnEvent(tick=0, channel=0, data=[70, 0]),
   midi.NoteOnEvent(tick=0, channel=0, data=[67, 0]),
   midi.NoteOnEvent(tick=24, channel=0, data=[67, 31]),
   midi.NoteOnEvent(tick=0, channel=0, data=[70, 31]),
   midi.NoteOnEvent(tick=0, channel=0, data=[73, 31]),
   midi.NoteOnEvent(tick=456, channel=0, data=[73, 0]),
   midi.NoteOnEvent(tick=0, channel=0, data=[70, 0]),
   midi.NoteOnEvent(tick=0, channel=0, data=[67, 0]),
   midi.NoteOnEvent(tick=24, channel=0, data=[83, 40]),
   midi.NoteOnEvent(tick=120, channel=0, data=[83, 0]),
   midi.NoteOnEvent(tick=0, channel=0, data=[87, 34]),
   midi.NoteOnEvent(tick=120, channel=0, data=[87, 0]),
   midi.NoteOnEvent(tick=0, channel=0, data=[83, 40]),
   midi.NoteOnEvent(tick=120, channel=0, data=[83, 0]),
   midi.NoteOnEvent(tick=0, channel=0, data=[80, 34]),
   midi.NoteOnEvent(tick=90, channel=0, data=[80, 0]),
   midi.NoteOnEvent(tick=30, channel=0, data=[80, 40]),
   midi.NoteOnEvent(tick=120, channel=0, data=[80, 0]),
   midi.NoteOnEvent(tick=0, channel=0, data=[83, 34]),
   midi.NoteOnEvent(tick=120, channel=0, data=[83, 0]),
   midi.NoteOnEvent(tick=0, channel=0, data=[80, 40]),
   midi.NoteOnEvent(tick=120, channel=0, data=[80, 0]),
   midi.NoteOnEvent(tick=0, channel=0, data=[75, 34]),
   midi.NoteOnEvent(tick=90, channel=0, data=[75, 0]),
   midi.NoteOnEvent(tick=30, channel=0, data=[75, 40]),
   midi.NoteOnEvent(tick=120, channel=0, data=[75, 0]),
   midi.NoteOnEvent(tick=0, channel=0, data=[80, 34]),
   midi.NoteOnEvent(tick=120, channel=0, data=[80, 0]),
   midi.NoteOnEvent(tick=0, channel=0, data=[75, 40]),
   midi.NoteOnEvent(tick=120, channel=0, data=[75, 0]),
   midi.NoteOnEvent(tick=0, channel=0, data=[71, 34]),
   midi.NoteOnEvent(tick=90, channel=0, data=[71, 0]),
   midi.NoteOnEvent(tick=30, channel=0, data=[71, 40]),
   midi.NoteOnEvent(tick=120, channel=0, data=[71, 0]),
   midi.NoteOnEvent(tick=0, channel=0, data=[75, 34]),
   midi.NoteOnEvent(tick=120, channel=0, data=[75, 0]),
   midi.NoteOnEvent(tick=0, channel=0, data=[71, 40]),
   midi.NoteOnEvent(tick=120, channel=0, data=[71, 0]),
   midi.NoteOnEvent(tick=0, channel=0, data=[68, 34]),
   midi.NoteOnEvent(tick=90, channel=0, data=[68, 0]),
   midi.NoteOnEvent(tick=30, channel=0, data=[68, 40]),
   midi.NoteOnEvent(tick=120, channel=0, data=[68, 0]),
   midi.NoteOnEvent(tick=0, channel=0, data=[71, 34]),
   midi.NoteOnEvent(tick=120, channel=0, data=[71, 0]),
   midi.NoteOnEvent(tick=0, channel=0, data=[68, 40]),
   midi.NoteOnEvent(tick=120, channel=0, data=[68, 0]),
   midi.NoteOnEvent(tick=0, channel=0, data=[63, 34]),
   midi.NoteOnEvent(tick=120, channel=0, data=[63, 0]),
   midi.NoteOnEvent(tick=0, channel=0, data=[67, 30]),
   midi.NoteOnEvent(tick=0, channel=0, data=[70, 36]),
   midi.NoteOnEvent(tick=240, channel=0, data=[70, 0]),
   midi.NoteOnEvent(tick=0, channel=0, data=[67, 0]),
   midi.NoteOnEvent(tick=240, channel=0, data=[83, 40]),
   midi.NoteOnEvent(tick=120, channel=0, data=[83, 0]),
   midi.NoteOnEvent(tick=0, channel=0, data=[87, 34]),
   midi.NoteOnEvent(tick=120, channel=0, data=[87, 0]),
   midi.NoteOnEvent(tick=0, channel=0, data=[83, 40]),
   midi.NoteOnEvent(tick=120, channel=0, data=[83, 0]),
   midi.NoteOnEvent(tick=0, channel=0, data=[80, 34]),
   midi.NoteOnEvent(tick=90, channel=0, data=[80, 0]),
   midi.NoteOnEvent(tick=30, channel=0, data=[80, 40]),
   midi.NoteOnEvent(tick=120, channel=0, data=[80, 0]),
   midi.NoteOnEvent(tick=0, channel=0, data=[83, 34]),
   midi.NoteOnEvent(tick=120, channel=0, data=[83, 0]),
   midi.NoteOnEvent(tick=0, channel=0, data=[80, 40]),
   midi.NoteOnEvent(tick=120, channel=0, data=[80, 0]),
   midi.NoteOnEvent(tick=0, channel=0, data=[75, 34]),
   midi.NoteOnEvent(tick=90, channel=0, data=[75, 0]),
   midi.NoteOnEvent(tick=30, channel=0, data=[75, 40]),
   midi.NoteOnEvent(tick=120, channel=0, data=[75, 0]),
   midi.NoteOnEvent(tick=0, channel=0, data=[80, 34]),
   midi.NoteOnEvent(tick=120, channel=0, data=[80, 0]),
   midi.NoteOnEvent(tick=0, channel=0, data=[75, 40]),
   midi.NoteOnEvent(tick=120, channel=0, data=[75, 0]),
   midi.NoteOnEvent(tick=0, channel=0, data=[71, 34]),
   midi.NoteOnEvent(tick=90, channel=0, data=[71, 0]),
   midi.NoteOnEvent(tick=30, channel=0, data=[71, 40]),
   midi.NoteOnEvent(tick=120, channel=0, data=[71, 0]),
   midi.NoteOnEvent(tick=0, channel=0, data=[75, 34]),
   midi.NoteOnEvent(tick=120, channel=0, data=[75, 0]),
   midi.NoteOnEvent(tick=0, channel=0, data=[71, 40]),
   midi.NoteOnEvent(tick=120, channel=0, data=[71, 0]),
   midi.NoteOnEvent(tick=0, channel=0, data=[68, 34]),
   midi.NoteOnEvent(tick=90, channel=0, data=[68, 0]),
   midi.NoteOnEvent(tick=30, channel=0, data=[68, 40]),
   midi.NoteOnEvent(tick=120, channel=0, data=[68, 0]),
   midi.NoteOnEvent(tick=0, channel=0, data=[71, 34]),
   midi.NoteOnEvent(tick=120, channel=0, data=[71, 0]),
   midi.NoteOnEvent(tick=0, channel=0, data=[68, 40]),
   midi.NoteOnEvent(tick=120, channel=0, data=[68, 0]),
   midi.NoteOnEvent(tick=0, channel=0, data=[63, 34]),
   midi.NoteOnEvent(tick=120, channel=0, data=[63, 0]),
   midi.NoteOnEvent(tick=0, channel=0, data=[70, 36]),
   midi.NoteOnEvent(tick=0, channel=0, data=[67, 30]),
   midi.NoteOnEvent(tick=240, channel=0, data=[67, 0]),
   midi.NoteOnEvent(tick=0, channel=0, data=[70, 0]),
   midi.NoteOnEvent(tick=240, channel=0, data=[68, 31]),
   midi.NoteOnEvent(tick=0, channel=0, data=[71, 31]),
   midi.NoteOnEvent(tick=456, channel=0, data=[71, 0]),
   midi.NoteOnEvent(tick=0, channel=0, data=[68, 0]),
   midi.NoteOnEvent(tick=24, channel=0, data=[76, 31]),
   midi.NoteOnEvent(tick=0, channel=0, data=[70, 31]),
   midi.NoteOnEvent(tick=0, channel=0, data=[66, 31]),
   midi.NoteOnEvent(tick=456, channel=0, data=[66, 0]),
   midi.NoteOnEvent(tick=0, channel=0, data=[70, 0]),
   midi.NoteOnEvent(tick=0, channel=0, data=[76, 0]),
   midi.NoteOnEvent(tick=24, channel=0, data=[66, 36]),
   midi.NoteOnEvent(tick=0, channel=0, data=[70, 36]),
   midi.NoteOnEvent(tick=0, channel=0, data=[76, 36]),
   midi.NoteOnEvent(tick=456, channel=0, data=[76, 0]),
   midi.NoteOnEvent(tick=0, channel=0, data=[70, 0]),
   midi.NoteOnEvent(tick=0, channel=0, data=[66, 0]),
   midi.NoteOnEvent(tick=24, channel=0, data=[66, 37]),
   midi.NoteOnEvent(tick=0, channel=0, data=[70, 37]),
   midi.NoteOnEvent(tick=0, channel=0, data=[76, 37]),
   midi.NoteOnEvent(tick=456, channel=0, data=[76, 0]),
   midi.NoteOnEvent(tick=0, channel=0, data=[70, 0]),
   midi.NoteOnEvent(tick=0, channel=0, data=[66, 0]),
   midi.NoteOnEvent(tick=24, channel=0, data=[75, 31]),
   midi.NoteOnEvent(tick=0, channel=0, data=[70, 31]),
   midi.NoteOnEvent(tick=0, channel=0, data=[66, 31]),
   midi.NoteOnEvent(tick=456, channel=0, data=[66, 0]),
   midi.NoteOnEvent(tick=0, channel=0, data=[70, 0]),
   midi.NoteOnEvent(tick=0, channel=0, data=[75, 0]),
   midi.NoteOnEvent(tick=24, channel=0, data=[70, 31]),
   midi.NoteOnEvent(tick=0, channel=0, data=[66, 31]),
   midi.NoteOnEvent(tick=0, channel=0, data=[74, 31]),
   midi.NoteOnEvent(tick=456, channel=0, data=[74, 0]),
   midi.NoteOnEvent(tick=0, channel=0, data=[66, 0]),
   midi.NoteOnEvent(tick=0, channel=0, data=[70, 0]),
   midi.NoteOnEvent(tick=24, channel=0, data=[87, 50]),
   midi.NoteOnEvent(tick=120, channel=0, data=[87, 0]),
   midi.NoteOnEvent(tick=0, channel=0, data=[90, 42]),
   midi.NoteOnEvent(tick=120, channel=0, data=[90, 0]),
   midi.NoteOnEvent(tick=0, channel=0, data=[87, 50]),
   midi.NoteOnEvent(tick=120, channel=0, data=[87, 0]),
   midi.NoteOnEvent(tick=0, channel=0, data=[83, 42]),
   midi.NoteOnEvent(tick=90, channel=0, data=[83, 0]),
   midi.NoteOnEvent(tick=30, channel=0, data=[83, 50]),
   midi.NoteOnEvent(tick=120, channel=0, data=[83, 0]),
   midi.NoteOnEvent(tick=0, channel=0, data=[87, 42]),
   midi.NoteOnEvent(tick=120, channel=0, data=[87, 0]),
   midi.NoteOnEvent(tick=0, channel=0, data=[83, 50]),
   midi.NoteOnEvent(tick=120, channel=0, data=[83, 0]),
   midi.NoteOnEvent(tick=0, channel=0, data=[78, 42]),
   midi.NoteOnEvent(tick=90, channel=0, data=[78, 0]),
   midi.NoteOnEvent(tick=30, channel=0, data=[78, 50]),
   midi.NoteOnEvent(tick=120, channel=0, data=[78, 0]),
   midi.NoteOnEvent(tick=0, channel=0, data=[83, 42]),
   midi.NoteOnEvent(tick=120, channel=0, data=[83, 0]),
   midi.NoteOnEvent(tick=0, channel=0, data=[78, 50]),
   midi.NoteOnEvent(tick=120, channel=0, data=[78, 0]),
   midi.NoteOnEvent(tick=0, channel=0, data=[75, 42]),
   midi.NoteOnEvent(tick=90, channel=0, data=[75, 0]),
   midi.NoteOnEvent(tick=30, channel=0, data=[75, 50]),
   midi.NoteOnEvent(tick=120, channel=0, data=[75, 0]),
   midi.NoteOnEvent(tick=0, channel=0, data=[78, 42]),
   midi.NoteOnEvent(tick=120, channel=0, data=[78, 0]),
   midi.NoteOnEvent(tick=0, channel=0, data=[75, 50]),
   midi.NoteOnEvent(tick=120, channel=0, data=[75, 0]),
   midi.NoteOnEvent(tick=0, channel=0, data=[71, 42]),
   midi.NoteOnEvent(tick=90, channel=0, data=[71, 0]),
   midi.NoteOnEvent(tick=30, channel=0, data=[71, 50]),
   midi.NoteOnEvent(tick=120, channel=0, data=[71, 0]),
   midi.NoteOnEvent(tick=0, channel=0, data=[75, 42]),
   midi.NoteOnEvent(tick=120, channel=0, data=[75, 0]),
   midi.NoteOnEvent(tick=0, channel=0, data=[71, 50]),
   midi.NoteOnEvent(tick=120, channel=0, data=[71, 0]),
   midi.NoteOnEvent(tick=0, channel=0, data=[66, 42]),
   midi.NoteOnEvent(tick=120, channel=0, data=[66, 0]),
   midi.NoteOnEvent(tick=0, channel=0, data=[70, 37]),
   midi.NoteOnEvent(tick=0, channel=0, data=[73, 45]),
   midi.NoteOnEvent(tick=240, channel=0, data=[73, 0]),
   midi.NoteOnEvent(tick=0, channel=0, data=[70, 0]),
   midi.NoteOnEvent(tick=240, channel=0, data=[87, 50]),
   midi.NoteOnEvent(tick=120, channel=0, data=[87, 0]),
   midi.NoteOnEvent(tick=0, channel=0, data=[90, 42]),
   midi.NoteOnEvent(tick=120, channel=0, data=[90, 0]),
   midi.NoteOnEvent(tick=0, channel=0, data=[87, 50]),
   midi.NoteOnEvent(tick=120, channel=0, data=[87, 0]),
   midi.NoteOnEvent(tick=0, channel=0, data=[83, 42]),
   midi.NoteOnEvent(tick=90, channel=0, data=[83, 0]),
   midi.NoteOnEvent(tick=30, channel=0, data=[83, 50]),
   midi.NoteOnEvent(tick=120, channel=0, data=[83, 0]),
   midi.NoteOnEvent(tick=0, channel=0, data=[87, 42]),
   midi.NoteOnEvent(tick=120, channel=0, data=[87, 0]),
   midi.NoteOnEvent(tick=0, channel=0, data=[83, 50]),
   midi.NoteOnEvent(tick=120, channel=0, data=[83, 0]),
   midi.NoteOnEvent(tick=0, channel=0, data=[78, 42]),
   midi.NoteOnEvent(tick=90, channel=0, data=[78, 0]),
   midi.NoteOnEvent(tick=30, channel=0, data=[78, 50]),
   midi.NoteOnEvent(tick=120, channel=0, data=[78, 0]),
   midi.NoteOnEvent(tick=0, channel=0, data=[83, 42]),
   midi.NoteOnEvent(tick=120, channel=0, data=[83, 0]),
   midi.NoteOnEvent(tick=0, channel=0, data=[78, 50]),
   midi.NoteOnEvent(tick=120, channel=0, data=[78, 0]),
   midi.NoteOnEvent(tick=0, channel=0, data=[75, 42]),
   midi.NoteOnEvent(tick=90, channel=0, data=[75, 0]),
   midi.NoteOnEvent(tick=30, channel=0, data=[75, 50]),
   midi.NoteOnEvent(tick=120, channel=0, data=[75, 0]),
   midi.NoteOnEvent(tick=0, channel=0, data=[78, 42]),
   midi.NoteOnEvent(tick=120, channel=0, data=[78, 0]),
   midi.NoteOnEvent(tick=0, channel=0, data=[75, 50]),
   midi.NoteOnEvent(tick=120, channel=0, data=[75, 0]),
   midi.NoteOnEvent(tick=0, channel=0, data=[71, 42]),
   midi.NoteOnEvent(tick=90, channel=0, data=[71, 0]),
   midi.NoteOnEvent(tick=30, channel=0, data=[71, 50]),
   midi.NoteOnEvent(tick=120, channel=0, data=[71, 0]),
   midi.NoteOnEvent(tick=0, channel=0, data=[75, 42]),
   midi.NoteOnEvent(tick=120, channel=0, data=[75, 0]),
   midi.NoteOnEvent(tick=0, channel=0, data=[71, 50]),
   midi.NoteOnEvent(tick=120, channel=0, data=[71, 0]),
   midi.NoteOnEvent(tick=0, channel=0, data=[66, 42]),
   midi.NoteOnEvent(tick=120, channel=0, data=[66, 0]),
   midi.NoteOnEvent(tick=0, channel=0, data=[70, 37]),
   midi.NoteOnEvent(tick=0, channel=0, data=[73, 45]),
   midi.NoteOnEvent(tick=240, channel=0, data=[73, 0]),
   midi.NoteOnEvent(tick=0, channel=0, data=[70, 0]),
   midi.NoteOnEvent(tick=240, channel=0, data=[71, 41]),
   midi.NoteOnEvent(tick=0, channel=0, data=[75, 41]),
   midi.NoteOnEvent(tick=456, channel=0, data=[75, 0]),
   midi.NoteOnEvent(tick=0, channel=0, data=[71, 0]),
   midi.NoteOnEvent(tick=24, channel=0, data=[70, 47]),
   midi.NoteOnEvent(tick=0, channel=0, data=[80, 47]),
   midi.NoteOnEvent(tick=0, channel=0, data=[73, 47]),
   midi.NoteOnEvent(tick=456, channel=0, data=[73, 0]),
   midi.NoteOnEvent(tick=0, channel=0, data=[80, 0]),
   midi.NoteOnEvent(tick=0, channel=0, data=[70, 0]),
   midi.NoteOnEvent(tick=24, channel=0, data=[80, 48]),
   midi.NoteOnEvent(tick=0, channel=0, data=[73, 48]),
   midi.NoteOnEvent(tick=0, channel=0, data=[70, 48]),
   midi.NoteOnEvent(tick=456, channel=0, data=[70, 0]),
   midi.NoteOnEvent(tick=0, channel=0, data=[73, 0]),
   midi.NoteOnEvent(tick=0, channel=0, data=[80, 0]),
   midi.NoteOnEvent(tick=24, channel=0, data=[80, 49]),
   midi.NoteOnEvent(tick=0, channel=0, data=[73, 49]),
   midi.NoteOnEvent(tick=0, channel=0, data=[70, 49]),
   midi.NoteOnEvent(tick=456, channel=0, data=[70, 0]),
   midi.NoteOnEvent(tick=0, channel=0, data=[73, 0]),
   midi.NoteOnEvent(tick=0, channel=0, data=[80, 0]),
   midi.NoteOnEvent(tick=24, channel=0, data=[78, 39]),
   midi.NoteOnEvent(tick=0, channel=0, data=[70, 39]),
   midi.NoteOnEvent(tick=0, channel=0, data=[75, 39]),
   midi.NoteOnEvent(tick=456, channel=0, data=[75, 0]),
   midi.NoteOnEvent(tick=0, channel=0, data=[70, 0]),
   midi.NoteOnEvent(tick=0, channel=0, data=[78, 0]),
   midi.NoteOnEvent(tick=24, channel=0, data=[76, 39]),
   midi.NoteOnEvent(tick=0, channel=0, data=[70, 39]),
   midi.NoteOnEvent(tick=456, channel=0, data=[70, 0]),
   midi.NoteOnEvent(tick=0, channel=0, data=[76, 0]),
   midi.NoteOnEvent(tick=24, channel=0, data=[86, 50]),
   midi.NoteOnEvent(tick=120, channel=0, data=[86, 0]),
   midi.NoteOnEvent(tick=0, channel=0, data=[90, 42]),
   midi.NoteOnEvent(tick=120, channel=0, data=[90, 0]),
   midi.NoteOnEvent(tick=0, channel=0, data=[86, 50]),
   midi.NoteOnEvent(tick=120, channel=0, data=[86, 0]),
   midi.NoteOnEvent(tick=0, channel=0, data=[83, 42]),
   midi.NoteOnEvent(tick=90, channel=0, data=[83, 0]),
   midi.NoteOnEvent(tick=30, channel=0, data=[83, 50]),
   midi.NoteOnEvent(tick=120, channel=0, data=[83, 0]),
   midi.NoteOnEvent(tick=0, channel=0, data=[86, 42]),
   midi.NoteOnEvent(tick=120, channel=0, data=[86, 0]),
   midi.NoteOnEvent(tick=0, channel=0, data=[83, 50]),
   midi.NoteOnEvent(tick=120, channel=0, data=[83, 0]),
   midi.NoteOnEvent(tick=0, channel=0, data=[78, 42]),
   midi.NoteOnEvent(tick=90, channel=0, data=[78, 0]),
   midi.NoteOnEvent(tick=30, channel=0, data=[78, 50]),
   midi.NoteOnEvent(tick=120, channel=0, data=[78, 0]),
   midi.NoteOnEvent(tick=0, channel=0, data=[83, 42]),
   midi.NoteOnEvent(tick=120, channel=0, data=[83, 0]),
   midi.NoteOnEvent(tick=0, channel=0, data=[78, 50]),
   midi.NoteOnEvent(tick=120, channel=0, data=[78, 0]),
   midi.NoteOnEvent(tick=0, channel=0, data=[74, 42]),
   midi.NoteOnEvent(tick=90, channel=0, data=[74, 0]),
   midi.NoteOnEvent(tick=30, channel=0, data=[74, 50]),
   midi.NoteOnEvent(tick=120, channel=0, data=[74, 0]),
   midi.NoteOnEvent(tick=0, channel=0, data=[78, 42]),
   midi.NoteOnEvent(tick=120, channel=0, data=[78, 0]),
   midi.NoteOnEvent(tick=0, channel=0, data=[74, 50]),
   midi.NoteOnEvent(tick=120, channel=0, data=[74, 0]),
   midi.NoteOnEvent(tick=0, channel=0, data=[71, 42]),
   midi.NoteOnEvent(tick=90, channel=0, data=[71, 0]),
   midi.NoteOnEvent(tick=30, channel=0, data=[71, 50]),
   midi.NoteOnEvent(tick=120, channel=0, data=[71, 0]),
   midi.NoteOnEvent(tick=0, channel=0, data=[74, 42]),
   midi.NoteOnEvent(tick=120, channel=0, data=[74, 0]),
   midi.NoteOnEvent(tick=0, channel=0, data=[71, 50]),
   midi.NoteOnEvent(tick=120, channel=0, data=[71, 0]),
   midi.NoteOnEvent(tick=0, channel=0, data=[66, 42]),
   midi.NoteOnEvent(tick=120, channel=0, data=[66, 0]),
   midi.NoteOnEvent(tick=0, channel=0, data=[73, 45]),
   midi.NoteOnEvent(tick=0, channel=0, data=[70, 37]),
   midi.NoteOnEvent(tick=240, channel=0, data=[70, 0]),
   midi.NoteOnEvent(tick=0, channel=0, data=[73, 0]),
   midi.NoteOnEvent(tick=240, channel=0, data=[86, 50]),
   midi.NoteOnEvent(tick=120, channel=0, data=[86, 0]),
   midi.NoteOnEvent(tick=0, channel=0, data=[90, 42]),
   midi.NoteOnEvent(tick=120, channel=0, data=[90, 0]),
   midi.NoteOnEvent(tick=0, channel=0, data=[86, 50]),
   midi.NoteOnEvent(tick=120, channel=0, data=[86, 0]),
   midi.NoteOnEvent(tick=0, channel=0, data=[83, 42]),
   midi.NoteOnEvent(tick=90, channel=0, data=[83, 0]),
   midi.NoteOnEvent(tick=30, channel=0, data=[83, 50]),
   midi.NoteOnEvent(tick=120, channel=0, data=[83, 0]),
   midi.NoteOnEvent(tick=0, channel=0, data=[86, 42]),
   midi.NoteOnEvent(tick=120, channel=0, data=[86, 0]),
   midi.NoteOnEvent(tick=0, channel=0, data=[83, 50]),
   midi.NoteOnEvent(tick=120, channel=0, data=[83, 0]),
   midi.NoteOnEvent(tick=0, channel=0, data=[78, 42]),
   midi.NoteOnEvent(tick=90, channel=0, data=[78, 0]),
   midi.NoteOnEvent(tick=30, channel=0, data=[78, 50]),
   midi.NoteOnEvent(tick=120, channel=0, data=[78, 0]),
   midi.NoteOnEvent(tick=0, channel=0, data=[83, 43]),
   midi.NoteOnEvent(tick=120, channel=0, data=[83, 0]),
   midi.NoteOnEvent(tick=0, channel=0, data=[78, 50]),
   midi.NoteOnEvent(tick=120, channel=0, data=[78, 0]),
   midi.NoteOnEvent(tick=0, channel=0, data=[74, 42]),
   midi.NoteOnEvent(tick=90, channel=0, data=[74, 0]),
   midi.NoteOnEvent(tick=30, channel=0, data=[74, 50]),
   midi.NoteOnEvent(tick=120, channel=0, data=[74, 0]),
   midi.NoteOnEvent(tick=0, channel=0, data=[78, 42]),
   midi.NoteOnEvent(tick=120, channel=0, data=[78, 0]),
   midi.NoteOnEvent(tick=0, channel=0, data=[74, 50]),
   midi.NoteOnEvent(tick=120, channel=0, data=[74, 0]),
   midi.NoteOnEvent(tick=0, channel=0, data=[71, 42]),
   midi.NoteOnEvent(tick=90, channel=0, data=[71, 0]),
   midi.NoteOnEvent(tick=30, channel=0, data=[71, 50]),
   midi.NoteOnEvent(tick=120, channel=0, data=[71, 0]),
   midi.NoteOnEvent(tick=0, channel=0, data=[74, 42]),
   midi.NoteOnEvent(tick=120, channel=0, data=[74, 0]),
   midi.NoteOnEvent(tick=0, channel=0, data=[71, 50]),
   midi.NoteOnEvent(tick=120, channel=0, data=[71, 0]),
   midi.NoteOnEvent(tick=0, channel=0, data=[66, 42]),
   midi.NoteOnEvent(tick=120, channel=0, data=[66, 0]),
   midi.NoteOnEvent(tick=0, channel=0, data=[70, 45]),
   midi.NoteOnEvent(tick=0, channel=0, data=[73, 45]),
   midi.NoteOnEvent(tick=240, channel=0, data=[73, 0]),
   midi.NoteOnEvent(tick=0, channel=0, data=[70, 0]),
   midi.NoteOnEvent(tick=240, channel=0, data=[74, 41]),
   midi.NoteOnEvent(tick=0, channel=0, data=[66, 41]),
   midi.NoteOnEvent(tick=0, channel=0, data=[71, 41]),
   midi.NoteOnEvent(tick=456, channel=0, data=[71, 0]),
   midi.NoteOnEvent(tick=0, channel=0, data=[66, 0]),
   midi.NoteOnEvent(tick=0, channel=0, data=[74, 0]),
   midi.NoteOnEvent(tick=24, channel=0, data=[73, 50]),
   midi.NoteOnEvent(tick=0, channel=0, data=[76, 50]),
   midi.NoteOnEvent(tick=0, channel=0, data=[83, 50]),
   midi.NoteOnEvent(tick=456, channel=0, data=[83, 0]),
   midi.NoteOnEvent(tick=0, channel=0, data=[76, 0]),
   midi.NoteOnEvent(tick=0, channel=0, data=[73, 0]),
   midi.NoteOnEvent(tick=24, channel=0, data=[83, 48]),
   midi.NoteOnEvent(tick=0, channel=0, data=[76, 48]),
   midi.NoteOnEvent(tick=0, channel=0, data=[73, 48]),
   midi.NoteOnEvent(tick=456, channel=0, data=[73, 0]),
   midi.NoteOnEvent(tick=0, channel=0, data=[76, 0]),
   midi.NoteOnEvent(tick=0, channel=0, data=[83, 0]),
   midi.NoteOnEvent(tick=24, channel=0, data=[83, 46]),
   midi.NoteOnEvent(tick=0, channel=0, data=[73, 46]),
   midi.NoteOnEvent(tick=0, channel=0, data=[76, 46]),
   midi.NoteOnEvent(tick=456, channel=0, data=[76, 0]),
   midi.NoteOnEvent(tick=0, channel=0, data=[73, 0]),
   midi.NoteOnEvent(tick=0, channel=0, data=[83, 0]),
   midi.NoteOnEvent(tick=24, channel=0, data=[73, 44]),
   midi.NoteOnEvent(tick=0, channel=0, data=[78, 44]),
   midi.NoteOnEvent(tick=0, channel=0, data=[81, 44]),
   midi.NoteOnEvent(tick=456, channel=0, data=[81, 0]),
   midi.NoteOnEvent(tick=0, channel=0, data=[78, 0]),
   midi.NoteOnEvent(tick=0, channel=0, data=[73, 0]),
   midi.NoteOnEvent(tick=24, channel=0, data=[73, 42]),
   midi.NoteOnEvent(tick=0, channel=0, data=[79, 42]),
   midi.NoteOnEvent(tick=456, channel=0, data=[79, 0]),
   midi.NoteOnEvent(tick=0, channel=0, data=[73, 0]),
   midi.NoteOnEvent(tick=24, channel=0, data=[74, 38]),
   midi.NoteOnEvent(tick=0, channel=0, data=[78, 38]),
   midi.NoteOnEvent(tick=456, channel=0, data=[78, 0]),
   midi.NoteOnEvent(tick=0, channel=0, data=[74, 0]),
   midi.NoteOnEvent(tick=24, channel=0, data=[79, 46]),
   midi.NoteOnEvent(tick=0, channel=0, data=[73, 46]),
   midi.NoteOnEvent(tick=0, channel=0, data=[70, 46]),
   midi.NoteOnEvent(tick=456, channel=0, data=[70, 0]),
   midi.NoteOnEvent(tick=0, channel=0, data=[73, 0]),
   midi.NoteOnEvent(tick=0, channel=0, data=[79, 0]),
   midi.NoteOnEvent(tick=24, channel=0, data=[79, 46]),
   midi.NoteOnEvent(tick=0, channel=0, data=[73, 46]),
   midi.NoteOnEvent(tick=0, channel=0, data=[70, 46]),
   midi.NoteOnEvent(tick=456, channel=0, data=[70, 0]),
   midi.NoteOnEvent(tick=0, channel=0, data=[73, 0]),
   midi.NoteOnEvent(tick=0, channel=0, data=[79, 0]),
   midi.NoteOnEvent(tick=24, channel=0, data=[73, 46]),
   midi.NoteOnEvent(tick=0, channel=0, data=[70, 46]),
   midi.NoteOnEvent(tick=0, channel=0, data=[79, 46]),
   midi.NoteOnEvent(tick=456, channel=0, data=[79, 0]),
   midi.NoteOnEvent(tick=0, channel=0, data=[70, 0]),
   midi.NoteOnEvent(tick=0, channel=0, data=[73, 0]),
   midi.NoteOnEvent(tick=24, channel=0, data=[70, 44]),
   midi.NoteOnEvent(tick=0, channel=0, data=[73, 44]),
   midi.NoteOnEvent(tick=0, channel=0, data=[78, 44]),
   midi.NoteOnEvent(tick=456, channel=0, data=[78, 0]),
   midi.NoteOnEvent(tick=0, channel=0, data=[73, 0]),
   midi.NoteOnEvent(tick=0, channel=0, data=[70, 0]),
   midi.NoteOnEvent(tick=24, channel=0, data=[76, 42]),
   midi.NoteOnEvent(tick=0, channel=0, data=[73, 42]),
   midi.NoteOnEvent(tick=456, channel=0, data=[73, 0]),
   midi.NoteOnEvent(tick=0, channel=0, data=[76, 0]),
   midi.NoteOnEvent(tick=24, channel=0, data=[75, 41]),
   midi.NoteOnEvent(tick=0, channel=0, data=[71, 41]),
   midi.NoteOnEvent(tick=456, channel=0, data=[71, 0]),
   midi.NoteOnEvent(tick=0, channel=0, data=[75, 0]),
   midi.NoteOnEvent(tick=24, channel=0, data=[76, 49]),
   midi.NoteOnEvent(tick=0, channel=0, data=[64, 49]),
   midi.NoteOnEvent(tick=0, channel=0, data=[68, 49]),
   midi.NoteOnEvent(tick=456, channel=0, data=[68, 0]),
   midi.NoteOnEvent(tick=0, channel=0, data=[64, 0]),
   midi.NoteOnEvent(tick=0, channel=0, data=[76, 0]),
   midi.NoteOnEvent(tick=24, channel=0, data=[76, 49]),
   midi.NoteOnEvent(tick=0, channel=0, data=[68, 49]),
   midi.NoteOnEvent(tick=0, channel=0, data=[64, 49]),
   midi.NoteOnEvent(tick=456, channel=0, data=[64, 0]),
   midi.NoteOnEvent(tick=0, channel=0, data=[68, 0]),
   midi.NoteOnEvent(tick=0, channel=0, data=[76, 0]),
   midi.NoteOnEvent(tick=24, channel=0, data=[68, 49]),
   midi.NoteOnEvent(tick=0, channel=0, data=[64, 49]),
   midi.NoteOnEvent(tick=0, channel=0, data=[76, 49]),
   midi.NoteOnEvent(tick=456, channel=0, data=[76, 0]),
   midi.NoteOnEvent(tick=0, channel=0, data=[64, 0]),
   midi.NoteOnEvent(tick=0, channel=0, data=[68, 0]),
   midi.NoteOnEvent(tick=24, channel=0, data=[63, 49]),
   midi.NoteOnEvent(tick=0, channel=0, data=[75, 49]),
   midi.NoteOnEvent(tick=0, channel=0, data=[68, 49]),
   midi.NoteOnEvent(tick=456, channel=0, data=[68, 0]),
   midi.NoteOnEvent(tick=0, channel=0, data=[75, 0]),
   midi.NoteOnEvent(tick=0, channel=0, data=[63, 0]),
   midi.NoteOnEvent(tick=24, channel=0, data=[68, 47]),
   midi.NoteOnEvent(tick=0, channel=0, data=[73, 47]),
   midi.NoteOnEvent(tick=0, channel=0, data=[61, 47]),
   midi.NoteOnEvent(tick=456, channel=0, data=[61, 0]),
   midi.NoteOnEvent(tick=0, channel=0, data=[73, 0]),
   midi.NoteOnEvent(tick=0, channel=0, data=[68, 0]),
   midi.NoteOnEvent(tick=24, channel=0, data=[71, 48]),
   midi.NoteOnEvent(tick=0, channel=0, data=[68, 48]),
   midi.NoteOnEvent(tick=0, channel=0, data=[63, 48]),
   midi.NoteOnEvent(tick=456, channel=0, data=[63, 0]),
   midi.NoteOnEvent(tick=0, channel=0, data=[68, 0]),
   midi.NoteOnEvent(tick=0, channel=0, data=[71, 0]),
   midi.NoteOnEvent(tick=24, channel=0, data=[63, 48]),
   midi.NoteOnEvent(tick=0, channel=0, data=[68, 48]),
   midi.NoteOnEvent(tick=0, channel=0, data=[71, 48]),
   midi.NoteOnEvent(tick=456, channel=0, data=[71, 0]),
   midi.NoteOnEvent(tick=0, channel=0, data=[68, 0]),
   midi.NoteOnEvent(tick=0, channel=0, data=[63, 0]),
   midi.NoteOnEvent(tick=24, channel=0, data=[63, 48]),
   midi.NoteOnEvent(tick=0, channel=0, data=[68, 48]),
   midi.NoteOnEvent(tick=0, channel=0, data=[71, 48]),
   midi.NoteOnEvent(tick=456, channel=0, data=[71, 0]),
   midi.NoteOnEvent(tick=0, channel=0, data=[68, 0]),
   midi.NoteOnEvent(tick=0, channel=0, data=[63, 0]),
   midi.NoteOnEvent(tick=24, channel=0, data=[70, 33]),
   midi.NoteOnEvent(tick=0, channel=0, data=[67, 33]),
   midi.NoteOnEvent(tick=0, channel=0, data=[63, 33]),
   midi.NoteOnEvent(tick=456, channel=0, data=[63, 0]),
   midi.NoteOnEvent(tick=0, channel=0, data=[67, 0]),
   midi.NoteOnEvent(tick=0, channel=0, data=[70, 0]),
   midi.NoteOnEvent(tick=24, channel=0, data=[70, 34]),
   midi.NoteOnEvent(tick=0, channel=0, data=[63, 34]),
   midi.NoteOnEvent(tick=0, channel=0, data=[67, 34]),
   midi.NoteOnEvent(tick=456, channel=0, data=[67, 0]),
   midi.NoteOnEvent(tick=0, channel=0, data=[63, 0]),
   midi.NoteOnEvent(tick=0, channel=0, data=[70, 0]),
   midi.NoteOnEvent(tick=24, channel=0, data=[63, 34]),
   midi.NoteOnEvent(tick=0, channel=0, data=[67, 34]),
   midi.NoteOnEvent(tick=0, channel=0, data=[70, 34]),
   midi.NoteOnEvent(tick=456, channel=0, data=[70, 0]),
   midi.NoteOnEvent(tick=0, channel=0, data=[67, 0]),
   midi.NoteOnEvent(tick=0, channel=0, data=[63, 0]),
   midi.NoteOnEvent(tick=24, channel=0, data=[84, 40]),
   midi.NoteOnEvent(tick=120, channel=0, data=[84, 0]),
   midi.NoteOnEvent(tick=0, channel=0, data=[87, 34]),
   midi.NoteOnEvent(tick=120, channel=0, data=[87, 0]),
   midi.NoteOnEvent(tick=0, channel=0, data=[84, 40]),
   midi.NoteOnEvent(tick=120, channel=0, data=[84, 0]),
   midi.NoteOnEvent(tick=0, channel=0, data=[80, 34]),
   midi.NoteOnEvent(tick=90, channel=0, data=[80, 0]),
   midi.NoteOnEvent(tick=30, channel=0, data=[80, 40]),
   midi.NoteOnEvent(tick=120, channel=0, data=[80, 0]),
   midi.NoteOnEvent(tick=0, channel=0, data=[84, 34]),
   midi.NoteOnEvent(tick=120, channel=0, data=[84, 0]),
   midi.NoteOnEvent(tick=0, channel=0, data=[80, 40]),
   midi.NoteOnEvent(tick=120, channel=0, data=[80, 0]),
   midi.NoteOnEvent(tick=0, channel=0, data=[75, 34]),
   midi.NoteOnEvent(tick=90, channel=0, data=[75, 0]),
   midi.NoteOnEvent(tick=30, channel=0, data=[75, 40]),
   midi.NoteOnEvent(tick=120, channel=0, data=[75, 0]),
   midi.NoteOnEvent(tick=0, channel=0, data=[80, 34]),
   midi.NoteOnEvent(tick=120, channel=0, data=[80, 0]),
   midi.NoteOnEvent(tick=0, channel=0, data=[75, 40]),
   midi.NoteOnEvent(tick=120, channel=0, data=[75, 0]),
   midi.NoteOnEvent(tick=0, channel=0, data=[72, 34]),
   midi.NoteOnEvent(tick=90, channel=0, data=[72, 0]),
   midi.NoteOnEvent(tick=30, channel=0, data=[72, 40]),
   midi.NoteOnEvent(tick=120, channel=0, data=[72, 0]),
   midi.NoteOnEvent(tick=0, channel=0, data=[75, 34]),
   midi.NoteOnEvent(tick=120, channel=0, data=[75, 0]),
   midi.NoteOnEvent(tick=0, channel=0, data=[72, 40]),
   midi.NoteOnEvent(tick=120, channel=0, data=[72, 0]),
   midi.NoteOnEvent(tick=0, channel=0, data=[68, 34]),
   midi.NoteOnEvent(tick=90, channel=0, data=[68, 0]),
   midi.NoteOnEvent(tick=30, channel=0, data=[68, 40]),
   midi.NoteOnEvent(tick=120, channel=0, data=[68, 0]),
   midi.NoteOnEvent(tick=0, channel=0, data=[72, 34]),
   midi.NoteOnEvent(tick=120, channel=0, data=[72, 0]),
   midi.NoteOnEvent(tick=0, channel=0, data=[68, 40]),
   midi.NoteOnEvent(tick=120, channel=0, data=[68, 0]),
   midi.NoteOnEvent(tick=0, channel=0, data=[63, 34]),
   midi.NoteOnEvent(tick=120, channel=0, data=[63, 0]),
   midi.NoteOnEvent(tick=0, channel=0, data=[67, 30]),
   midi.NoteOnEvent(tick=0, channel=0, data=[70, 36]),
   midi.NoteOnEvent(tick=240, channel=0, data=[70, 0]),
   midi.NoteOnEvent(tick=0, channel=0, data=[67, 0]),
   midi.NoteOnEvent(tick=240, channel=0, data=[84, 40]),
   midi.NoteOnEvent(tick=120, channel=0, data=[84, 0]),
   midi.NoteOnEvent(tick=0, channel=0, data=[87, 34]),
   midi.NoteOnEvent(tick=120, channel=0, data=[87, 0]),
   midi.NoteOnEvent(tick=0, channel=0, data=[84, 40]),
   midi.NoteOnEvent(tick=120, channel=0, data=[84, 0]),
   midi.NoteOnEvent(tick=0, channel=0, data=[80, 34]),
   midi.NoteOnEvent(tick=90, channel=0, data=[80, 0]),
   midi.NoteOnEvent(tick=30, channel=0, data=[80, 40]),
   midi.NoteOnEvent(tick=120, channel=0, data=[80, 0]),
   midi.NoteOnEvent(tick=0, channel=0, data=[84, 34]),
   midi.NoteOnEvent(tick=120, channel=0, data=[84, 0]),
   midi.NoteOnEvent(tick=0, channel=0, data=[80, 40]),
   midi.NoteOnEvent(tick=120, channel=0, data=[80, 0]),
   midi.NoteOnEvent(tick=0, channel=0, data=[75, 34]),
   midi.NoteOnEvent(tick=90, channel=0, data=[75, 0]),
   midi.NoteOnEvent(tick=30, channel=0, data=[75, 40]),
   midi.NoteOnEvent(tick=120, channel=0, data=[75, 0]),
   midi.NoteOnEvent(tick=0, channel=0, data=[80, 34]),
   midi.NoteOnEvent(tick=120, channel=0, data=[80, 0]),
   midi.NoteOnEvent(tick=0, channel=0, data=[75, 40]),
   midi.NoteOnEvent(tick=120, channel=0, data=[75, 0]),
   midi.NoteOnEvent(tick=0, channel=0, data=[72, 34]),
   midi.NoteOnEvent(tick=90, channel=0, data=[72, 0]),
   midi.NoteOnEvent(tick=30, channel=0, data=[72, 40]),
   midi.NoteOnEvent(tick=120, channel=0, data=[72, 0]),
   midi.NoteOnEvent(tick=0, channel=0, data=[75, 34]),
   midi.NoteOnEvent(tick=120, channel=0, data=[75, 0]),
   midi.NoteOnEvent(tick=0, channel=0, data=[72, 40]),
   midi.NoteOnEvent(tick=120, channel=0, data=[72, 0]),
   midi.NoteOnEvent(tick=0, channel=0, data=[68, 34]),
   midi.NoteOnEvent(tick=90, channel=0, data=[68, 0]),
   midi.NoteOnEvent(tick=30, channel=0, data=[68, 40]),
   midi.NoteOnEvent(tick=120, channel=0, data=[68, 0]),
   midi.NoteOnEvent(tick=0, channel=0, data=[72, 34]),
   midi.NoteOnEvent(tick=120, channel=0, data=[72, 0]),
   midi.NoteOnEvent(tick=0, channel=0, data=[68, 40]),
   midi.NoteOnEvent(tick=120, channel=0, data=[68, 0]),
   midi.NoteOnEvent(tick=0, channel=0, data=[63, 34]),
   midi.NoteOnEvent(tick=120, channel=0, data=[63, 0]),
   midi.NoteOnEvent(tick=0, channel=0, data=[67, 36]),
   midi.NoteOnEvent(tick=0, channel=0, data=[70, 36]),
   midi.NoteOnEvent(tick=240, channel=0, data=[70, 0]),
   midi.NoteOnEvent(tick=0, channel=0, data=[67, 0]),
   midi.NoteOnEvent(tick=0, channel=0, data=[87, 45]),
   midi.NoteOnEvent(tick=120, channel=0, data=[87, 0]),
   midi.NoteOnEvent(tick=0, channel=0, data=[92, 38]),
   midi.NoteOnEvent(tick=120, channel=0, data=[92, 0]),
   midi.NoteOnEvent(tick=0, channel=0, data=[87, 45]),
   midi.NoteOnEvent(tick=120, channel=0, data=[87, 0]),
   midi.NoteOnEvent(tick=0, channel=0, data=[84, 38]),
   midi.NoteOnEvent(tick=90, channel=0, data=[84, 0]),
   midi.NoteOnEvent(tick=30, channel=0, data=[84, 45]),
   midi.NoteOnEvent(tick=120, channel=0, data=[84, 0]),
   midi.NoteOnEvent(tick=0, channel=0, data=[87, 38]),
   midi.NoteOnEvent(tick=120, channel=0, data=[87, 0]),
   midi.NoteOnEvent(tick=0, channel=0, data=[84, 45]),
   midi.NoteOnEvent(tick=120, channel=0, data=[84, 0]),
   midi.NoteOnEvent(tick=0, channel=0, data=[80, 38]),
   midi.NoteOnEvent(tick=90, channel=0, data=[80, 0]),
   midi.NoteOnEvent(tick=30, channel=0, data=[80, 45]),
   midi.NoteOnEvent(tick=120, channel=0, data=[80, 0]),
   midi.NoteOnEvent(tick=0, channel=0, data=[84, 38]),
   midi.NoteOnEvent(tick=120, channel=0, data=[84, 0]),
   midi.NoteOnEvent(tick=0, channel=0, data=[80, 45]),
   midi.NoteOnEvent(tick=120, channel=0, data=[80, 0]),
   midi.NoteOnEvent(tick=0, channel=0, data=[75, 38]),
   midi.NoteOnEvent(tick=90, channel=0, data=[75, 0]),
   midi.NoteOnEvent(tick=30, channel=0, data=[75, 45]),
   midi.NoteOnEvent(tick=120, channel=0, data=[75, 0]),
   midi.NoteOnEvent(tick=0, channel=0, data=[80, 38]),
   midi.NoteOnEvent(tick=120, channel=0, data=[80, 0]),
   midi.NoteOnEvent(tick=0, channel=0, data=[75, 45]),
   midi.NoteOnEvent(tick=120, channel=0, data=[75, 0]),
   midi.NoteOnEvent(tick=0, channel=0, data=[72, 38]),
   midi.NoteOnEvent(tick=90, channel=0, data=[72, 0]),
   midi.NoteOnEvent(tick=30, channel=0, data=[72, 45]),
   midi.NoteOnEvent(tick=120, channel=0, data=[72, 0]),
   midi.NoteOnEvent(tick=0, channel=0, data=[75, 38]),
   midi.NoteOnEvent(tick=120, channel=0, data=[75, 0]),
   midi.NoteOnEvent(tick=0, channel=0, data=[72, 45]),
   midi.NoteOnEvent(tick=120, channel=0, data=[72, 0]),
   midi.NoteOnEvent(tick=0, channel=0, data=[68, 38]),
   midi.NoteOnEvent(tick=120, channel=0, data=[68, 0]),
   midi.NoteOnEvent(tick=0, channel=0, data=[67, 40]),
   midi.NoteOnEvent(tick=0, channel=0, data=[70, 40]),
   midi.NoteOnEvent(tick=240, channel=0, data=[70, 0]),
   midi.NoteOnEvent(tick=0, channel=0, data=[67, 0]),
   midi.NoteOnEvent(tick=240, channel=0, data=[87, 50]),
   midi.NoteOnEvent(tick=120, channel=0, data=[87, 0]),
   midi.NoteOnEvent(tick=0, channel=0, data=[92, 42]),
   midi.NoteOnEvent(tick=120, channel=0, data=[92, 0]),
   midi.NoteOnEvent(tick=0, channel=0, data=[87, 50]),
   midi.NoteOnEvent(tick=120, channel=0, data=[87, 0]),
   midi.NoteOnEvent(tick=0, channel=0, data=[84, 42]),
   midi.NoteOnEvent(tick=90, channel=0, data=[84, 0]),
   midi.NoteOnEvent(tick=30, channel=0, data=[84, 50]),
   midi.NoteOnEvent(tick=120, channel=0, data=[84, 0]),
   midi.NoteOnEvent(tick=0, channel=0, data=[87, 42]),
   midi.NoteOnEvent(tick=120, channel=0, data=[87, 0]),
   midi.NoteOnEvent(tick=0, channel=0, data=[84, 50]),
   midi.NoteOnEvent(tick=120, channel=0, data=[84, 0]),
   midi.NoteOnEvent(tick=0, channel=0, data=[80, 42]),
   midi.NoteOnEvent(tick=90, channel=0, data=[80, 0]),
   midi.NoteOnEvent(tick=30, channel=0, data=[80, 50]),
   midi.NoteOnEvent(tick=120, channel=0, data=[80, 0]),
   midi.NoteOnEvent(tick=0, channel=0, data=[84, 42]),
   midi.NoteOnEvent(tick=120, channel=0, data=[84, 0]),
   midi.NoteOnEvent(tick=0, channel=0, data=[80, 50]),
   midi.NoteOnEvent(tick=120, channel=0, data=[80, 0]),
   midi.NoteOnEvent(tick=0, channel=0, data=[75, 42]),
   midi.NoteOnEvent(tick=90, channel=0, data=[75, 0]),
   midi.NoteOnEvent(tick=30, channel=0, data=[75, 50]),
   midi.NoteOnEvent(tick=120, channel=0, data=[75, 0]),
   midi.NoteOnEvent(tick=0, channel=0, data=[80, 42]),
   midi.NoteOnEvent(tick=120, channel=0, data=[80, 0]),
   midi.NoteOnEvent(tick=0, channel=0, data=[75, 50]),
   midi.NoteOnEvent(tick=120, channel=0, data=[75, 0]),
   midi.NoteOnEvent(tick=0, channel=0, data=[72, 42]),
   midi.NoteOnEvent(tick=90, channel=0, data=[72, 0]),
   midi.NoteOnEvent(tick=30, channel=0, data=[72, 50]),
   midi.NoteOnEvent(tick=120, channel=0, data=[72, 0]),
   midi.NoteOnEvent(tick=0, channel=0, data=[75, 42]),
   midi.NoteOnEvent(tick=120, channel=0, data=[75, 0]),
   midi.NoteOnEvent(tick=0, channel=0, data=[72, 50]),
   midi.NoteOnEvent(tick=120, channel=0, data=[72, 0]),
   midi.NoteOnEvent(tick=0, channel=0, data=[68, 42]),
   midi.NoteOnEvent(tick=120, channel=0, data=[68, 0]),
   midi.NoteOnEvent(tick=0, channel=0, data=[67, 45]),
   midi.NoteOnEvent(tick=0, channel=0, data=[70, 45]),
   midi.NoteOnEvent(tick=240, channel=0, data=[70, 0]),
   midi.NoteOnEvent(tick=0, channel=0, data=[67, 0]),
   midi.NoteOnEvent(tick=240, channel=0, data=[72, 40]),
   midi.NoteOnEvent(tick=120, channel=0, data=[72, 0]),
   midi.NoteOnEvent(tick=0, channel=0, data=[75, 34]),
   midi.NoteOnEvent(tick=120, channel=0, data=[75, 0]),
   midi.NoteOnEvent(tick=0, channel=0, data=[72, 40]),
   midi.NoteOnEvent(tick=120, channel=0, data=[72, 0]),
   midi.NoteOnEvent(tick=0, channel=0, data=[68, 34]),
   midi.NoteOnEvent(tick=90, channel=0, data=[68, 0]),
   midi.NoteOnEvent(tick=30, channel=0, data=[68, 40]),
   midi.NoteOnEvent(tick=120, channel=0, data=[68, 0]),
   midi.NoteOnEvent(tick=0, channel=0, data=[72, 34]),
   midi.NoteOnEvent(tick=120, channel=0, data=[72, 0]),
   midi.NoteOnEvent(tick=0, channel=0, data=[68, 40]),
   midi.NoteOnEvent(tick=120, channel=0, data=[68, 0]),
   midi.NoteOnEvent(tick=0, channel=0, data=[63, 34]),
   midi.NoteOnEvent(tick=120, channel=0, data=[63, 0]),
   midi.NoteOnEvent(tick=0, channel=0, data=[68, 40]),
   midi.NoteOnEvent(tick=120, channel=0, data=[68, 0]),
   midi.NoteOnEvent(tick=360, channel=0, data=[73, 40]),
   midi.NoteOnEvent(tick=120, channel=0, data=[73, 0]),
   midi.NoteOnEvent(tick=0, channel=0, data=[77, 34]),
   midi.NoteOnEvent(tick=120, channel=0, data=[77, 0]),
   midi.NoteOnEvent(tick=0, channel=0, data=[73, 40]),
   midi.NoteOnEvent(tick=120, channel=0, data=[73, 0]),
   midi.NoteOnEvent(tick=0, channel=0, data=[68, 34]),
   midi.NoteOnEvent(tick=90, channel=0, data=[68, 0]),
   midi.NoteOnEvent(tick=30, channel=0, data=[68, 40]),
   midi.NoteOnEvent(tick=120, channel=0, data=[68, 0]),
   midi.NoteOnEvent(tick=0, channel=0, data=[73, 34]),
   midi.NoteOnEvent(tick=120, channel=0, data=[73, 0]),
   midi.NoteOnEvent(tick=0, channel=0, data=[68, 40]),
   midi.NoteOnEvent(tick=120, channel=0, data=[68, 0]),
   midi.NoteOnEvent(tick=0, channel=0, data=[65, 34]),
   midi.NoteOnEvent(tick=120, channel=0, data=[65, 0]),
   midi.NoteOnEvent(tick=0, channel=0, data=[68, 40]),
   midi.NoteOnEvent(tick=120, channel=0, data=[68, 0]),
   midi.NoteOnEvent(tick=360, channel=0, data=[75, 40]),
   midi.NoteOnEvent(tick=120, channel=0, data=[75, 0]),
   midi.NoteOnEvent(tick=0, channel=0, data=[79, 34]),
   midi.NoteOnEvent(tick=120, channel=0, data=[79, 0]),
   midi.NoteOnEvent(tick=0, channel=0, data=[75, 40]),
   midi.NoteOnEvent(tick=120, channel=0, data=[75, 0]),
   midi.NoteOnEvent(tick=0, channel=0, data=[70, 34]),
   midi.NoteOnEvent(tick=90, channel=0, data=[70, 0]),
   midi.NoteOnEvent(tick=30, channel=0, data=[70, 40]),
   midi.NoteOnEvent(tick=120, channel=0, data=[70, 0]),
   midi.NoteOnEvent(tick=0, channel=0, data=[75, 34]),
   midi.NoteOnEvent(tick=120, channel=0, data=[75, 0]),
   midi.NoteOnEvent(tick=0, channel=0, data=[70, 40]),
   midi.NoteOnEvent(tick=120, channel=0, data=[70, 0]),
   midi.NoteOnEvent(tick=0, channel=0, data=[67, 34]),
   midi.NoteOnEvent(tick=120, channel=0, data=[67, 0]),
   midi.NoteOnEvent(tick=0, channel=0, data=[70, 40]),
   midi.NoteOnEvent(tick=120, channel=0, data=[70, 0]),
   midi.NoteOnEvent(tick=360, channel=0, data=[75, 40]),
   midi.NoteOnEvent(tick=120, channel=0, data=[75, 0]),
   midi.NoteOnEvent(tick=0, channel=0, data=[80, 34]),
   midi.NoteOnEvent(tick=120, channel=0, data=[80, 0]),
   midi.NoteOnEvent(tick=0, channel=0, data=[75, 40]),
   midi.NoteOnEvent(tick=120, channel=0, data=[75, 0]),
   midi.NoteOnEvent(tick=0, channel=0, data=[72, 34]),
   midi.NoteOnEvent(tick=90, channel=0, data=[72, 0]),
   midi.NoteOnEvent(tick=30, channel=0, data=[72, 40]),
   midi.NoteOnEvent(tick=120, channel=0, data=[72, 0]),
   midi.NoteOnEvent(tick=0, channel=0, data=[75, 34]),
   midi.NoteOnEvent(tick=120, channel=0, data=[75, 0]),
   midi.NoteOnEvent(tick=0, channel=0, data=[72, 40]),
   midi.NoteOnEvent(tick=120, channel=0, data=[72, 0]),
   midi.NoteOnEvent(tick=0, channel=0, data=[68, 34]),
   midi.NoteOnEvent(tick=120, channel=0, data=[68, 0]),
   midi.NoteOnEvent(tick=0, channel=0, data=[72, 40]),
   midi.NoteOnEvent(tick=120, channel=0, data=[72, 0]),
   midi.NoteOnEvent(tick=360, channel=0, data=[84, 52]),
   midi.NoteOnEvent(tick=120, channel=0, data=[84, 0]),
   midi.NoteOnEvent(tick=0, channel=0, data=[87, 44]),
   midi.NoteOnEvent(tick=120, channel=0, data=[87, 0]),
   midi.NoteOnEvent(tick=0, channel=0, data=[84, 52]),
   midi.NoteOnEvent(tick=120, channel=0, data=[84, 0]),
   midi.NoteOnEvent(tick=0, channel=0, data=[80, 44]),
   midi.NoteOnEvent(tick=90, channel=0, data=[80, 0]),
   midi.NoteOnEvent(tick=30, channel=0, data=[80, 52]),
   midi.NoteOnEvent(tick=120, channel=0, data=[80, 0]),
   midi.NoteOnEvent(tick=0, channel=0, data=[84, 44]),
   midi.NoteOnEvent(tick=120, channel=0, data=[84, 0]),
   midi.NoteOnEvent(tick=0, channel=0, data=[80, 52]),
   midi.NoteOnEvent(tick=120, channel=0, data=[80, 0]),
   midi.NoteOnEvent(tick=0, channel=0, data=[75, 44]),
   midi.NoteOnEvent(tick=120, channel=0, data=[75, 0]),
   midi.NoteOnEvent(tick=0, channel=0, data=[80, 52]),
   midi.NoteOnEvent(tick=120, channel=0, data=[80, 0]),
   midi.NoteOnEvent(tick=360, channel=0, data=[85, 60]),
   midi.NoteOnEvent(tick=120, channel=0, data=[85, 0]),
   midi.NoteOnEvent(tick=0, channel=0, data=[89, 51]),
   midi.NoteOnEvent(tick=120, channel=0, data=[89, 0]),
   midi.NoteOnEvent(tick=0, channel=0, data=[85, 60]),
   midi.NoteOnEvent(tick=120, channel=0, data=[85, 0]),
   midi.NoteOnEvent(tick=0, channel=0, data=[80, 51]),
   midi.NoteOnEvent(tick=90, channel=0, data=[80, 0]),
   midi.NoteOnEvent(tick=30, channel=0, data=[80, 60]),
   midi.NoteOnEvent(tick=120, channel=0, data=[80, 0]),
   midi.NoteOnEvent(tick=0, channel=0, data=[85, 51]),
   midi.NoteOnEvent(tick=120, channel=0, data=[85, 0]),
   midi.NoteOnEvent(tick=0, channel=0, data=[80, 60]),
   midi.NoteOnEvent(tick=120, channel=0, data=[80, 0]),
   midi.NoteOnEvent(tick=0, channel=0, data=[77, 51]),
   midi.NoteOnEvent(tick=120, channel=0, data=[77, 0]),
   midi.NoteOnEvent(tick=0, channel=0, data=[80, 60]),
   midi.NoteOnEvent(tick=120, channel=0, data=[80, 0]),
   midi.NoteOnEvent(tick=360, channel=0, data=[87, 70]),
   midi.NoteOnEvent(tick=120, channel=0, data=[87, 0]),
   midi.NoteOnEvent(tick=0, channel=0, data=[91, 59]),
   midi.NoteOnEvent(tick=120, channel=0, data=[91, 0]),
   midi.NoteOnEvent(tick=0, channel=0, data=[87, 70]),
   midi.NoteOnEvent(tick=120, channel=0, data=[87, 0]),
   midi.NoteOnEvent(tick=0, channel=0, data=[82, 59]),
   midi.NoteOnEvent(tick=90, channel=0, data=[82, 0]),
   midi.NoteOnEvent(tick=30, channel=0, data=[82, 70]),
   midi.NoteOnEvent(tick=120, channel=0, data=[82, 0]),
   midi.NoteOnEvent(tick=0, channel=0, data=[87, 59]),
   midi.NoteOnEvent(tick=120, channel=0, data=[87, 0]),
   midi.NoteOnEvent(tick=0, channel=0, data=[82, 70]),
   midi.NoteOnEvent(tick=120, channel=0, data=[82, 0]),
   midi.NoteOnEvent(tick=0, channel=0, data=[79, 59]),
   midi.NoteOnEvent(tick=120, channel=0, data=[79, 0]),
   midi.NoteOnEvent(tick=0, channel=0, data=[82, 70]),
   midi.NoteOnEvent(tick=240, channel=0, data=[82, 0]),
   midi.NoteOnEvent(tick=240, channel=0, data=[87, 80]),
   midi.NoteOnEvent(tick=120, channel=0, data=[87, 0]),
   midi.NoteOnEvent(tick=0, channel=0, data=[92, 68]),
   midi.NoteOnEvent(tick=120, channel=0, data=[92, 0]),
   midi.NoteOnEvent(tick=0, channel=0, data=[87, 80]),
   midi.NoteOnEvent(tick=120, channel=0, data=[87, 0]),
   midi.NoteOnEvent(tick=0, channel=0, data=[84, 68]),
   midi.NoteOnEvent(tick=90, channel=0, data=[84, 0]),
   midi.NoteOnEvent(tick=30, channel=0, data=[84, 80]),
   midi.NoteOnEvent(tick=120, channel=0, data=[84, 0]),
   midi.NoteOnEvent(tick=0, channel=0, data=[87, 68]),
   midi.NoteOnEvent(tick=120, channel=0, data=[87, 0]),
   midi.NoteOnEvent(tick=0, channel=0, data=[84, 80]),
   midi.NoteOnEvent(tick=120, channel=0, data=[84, 0]),
   midi.NoteOnEvent(tick=0, channel=0, data=[80, 68]),
   midi.NoteOnEvent(tick=120, channel=0, data=[80, 0]),
   midi.NoteOnEvent(tick=0, channel=0, data=[84, 80]),
   midi.NoteOnEvent(tick=240, channel=0, data=[84, 0]),
   midi.NoteOnEvent(tick=240, channel=0, data=[72, 40]),
   midi.NoteOnEvent(tick=120, channel=0, data=[72, 0]),
   midi.NoteOnEvent(tick=0, channel=0, data=[75, 34]),
   midi.NoteOnEvent(tick=120, channel=0, data=[75, 0]),
   midi.NoteOnEvent(tick=0, channel=0, data=[72, 40]),
   midi.NoteOnEvent(tick=120, channel=0, data=[72, 0]),
   midi.NoteOnEvent(tick=0, channel=0, data=[68, 34]),
   midi.NoteOnEvent(tick=90, channel=0, data=[68, 0]),
   midi.NoteOnEvent(tick=30, channel=0, data=[68, 40]),
   midi.NoteOnEvent(tick=120, channel=0, data=[68, 0]),
   midi.NoteOnEvent(tick=0, channel=0, data=[72, 34]),
   midi.NoteOnEvent(tick=120, channel=0, data=[72, 0]),
   midi.NoteOnEvent(tick=0, channel=0, data=[68, 40]),
   midi.NoteOnEvent(tick=120, channel=0, data=[68, 0]),
   midi.NoteOnEvent(tick=0, channel=0, data=[63, 34]),
   midi.NoteOnEvent(tick=120, channel=0, data=[63, 0]),
   midi.NoteOnEvent(tick=0, channel=0, data=[68, 40]),
   midi.NoteOnEvent(tick=240, channel=0, data=[68, 0]),
   midi.NoteOnEvent(tick=240, channel=0, data=[73, 40]),
   midi.NoteOnEvent(tick=120, channel=0, data=[73, 0]),
   midi.NoteOnEvent(tick=0, channel=0, data=[77, 34]),
   midi.NoteOnEvent(tick=120, channel=0, data=[77, 0]),
   midi.NoteOnEvent(tick=0, channel=0, data=[73, 40]),
   midi.NoteOnEvent(tick=120, channel=0, data=[73, 0]),
   midi.NoteOnEvent(tick=0, channel=0, data=[68, 34]),
   midi.NoteOnEvent(tick=90, channel=0, data=[68, 0]),
   midi.NoteOnEvent(tick=30, channel=0, data=[68, 40]),
   midi.NoteOnEvent(tick=120, channel=0, data=[68, 0]),
   midi.NoteOnEvent(tick=0, channel=0, data=[73, 34]),
   midi.NoteOnEvent(tick=120, channel=0, data=[73, 0]),
   midi.NoteOnEvent(tick=0, channel=0, data=[68, 40]),
   midi.NoteOnEvent(tick=120, channel=0, data=[68, 0]),
   midi.NoteOnEvent(tick=0, channel=0, data=[65, 34]),
   midi.NoteOnEvent(tick=120, channel=0, data=[65, 0]),
   midi.NoteOnEvent(tick=0, channel=0, data=[68, 40]),
   midi.NoteOnEvent(tick=240, channel=0, data=[68, 0]),
   midi.NoteOnEvent(tick=240, channel=0, data=[75, 40]),
   midi.NoteOnEvent(tick=120, channel=0, data=[75, 0]),
   midi.NoteOnEvent(tick=0, channel=0, data=[79, 34]),
   midi.NoteOnEvent(tick=120, channel=0, data=[79, 0]),
   midi.NoteOnEvent(tick=0, channel=0, data=[75, 40]),
   midi.NoteOnEvent(tick=120, channel=0, data=[75, 0]),
   midi.NoteOnEvent(tick=0, channel=0, data=[70, 34]),
   midi.NoteOnEvent(tick=90, channel=0, data=[70, 0]),
   midi.NoteOnEvent(tick=30, channel=0, data=[70, 40]),
   midi.NoteOnEvent(tick=120, channel=0, data=[70, 0]),
   midi.NoteOnEvent(tick=0, channel=0, data=[75, 34]),
   midi.NoteOnEvent(tick=120, channel=0, data=[75, 0]),
   midi.NoteOnEvent(tick=0, channel=0, data=[70, 40]),
   midi.NoteOnEvent(tick=120, channel=0, data=[70, 0]),
   midi.NoteOnEvent(tick=0, channel=0, data=[67, 34]),
   midi.NoteOnEvent(tick=120, channel=0, data=[67, 0]),
   midi.NoteOnEvent(tick=0, channel=0, data=[70, 40]),
   midi.NoteOnEvent(tick=240, channel=0, data=[70, 0]),
   midi.NoteOnEvent(tick=240, channel=0, data=[75, 40]),
   midi.NoteOnEvent(tick=120, channel=0, data=[75, 0]),
   midi.NoteOnEvent(tick=0, channel=0, data=[80, 34]),
   midi.NoteOnEvent(tick=120, channel=0, data=[80, 0]),
   midi.NoteOnEvent(tick=0, channel=0, data=[75, 40]),
   midi.NoteOnEvent(tick=120, channel=0, data=[75, 0]),
   midi.NoteOnEvent(tick=0, channel=0, data=[72, 34]),
   midi.NoteOnEvent(tick=90, channel=0, data=[72, 0]),
   midi.NoteOnEvent(tick=30, channel=0, data=[72, 40]),
   midi.NoteOnEvent(tick=120, channel=0, data=[72, 0]),
   midi.NoteOnEvent(tick=0, channel=0, data=[75, 34]),
   midi.NoteOnEvent(tick=120, channel=0, data=[75, 0]),
   midi.NoteOnEvent(tick=0, channel=0, data=[72, 40]),
   midi.NoteOnEvent(tick=120, channel=0, data=[72, 0]),
   midi.NoteOnEvent(tick=0, channel=0, data=[68, 34]),
   midi.NoteOnEvent(tick=120, channel=0, data=[68, 0]),
   midi.NoteOnEvent(tick=0, channel=0, data=[72, 40]),
   midi.NoteOnEvent(tick=240, channel=0, data=[72, 0]),
   midi.NoteOnEvent(tick=240, channel=0, data=[84, 52]),
   midi.NoteOnEvent(tick=120, channel=0, data=[84, 0]),
   midi.NoteOnEvent(tick=0, channel=0, data=[87, 44]),
   midi.NoteOnEvent(tick=120, channel=0, data=[87, 0]),
   midi.NoteOnEvent(tick=0, channel=0, data=[84, 52]),
   midi.NoteOnEvent(tick=120, channel=0, data=[84, 0]),
   midi.NoteOnEvent(tick=0, channel=0, data=[80, 44]),
   midi.NoteOnEvent(tick=90, channel=0, data=[80, 0]),
   midi.NoteOnEvent(tick=30, channel=0, data=[80, 52]),
   midi.NoteOnEvent(tick=120, channel=0, data=[80, 0]),
   midi.NoteOnEvent(tick=0, channel=0, data=[84, 44]),
   midi.NoteOnEvent(tick=120, channel=0, data=[84, 0]),
   midi.NoteOnEvent(tick=0, channel=0, data=[80, 52]),
   midi.NoteOnEvent(tick=120, channel=0, data=[80, 0]),
   midi.NoteOnEvent(tick=0, channel=0, data=[75, 44]),
   midi.NoteOnEvent(tick=120, channel=0, data=[75, 0]),
   midi.NoteOnEvent(tick=0, channel=0, data=[80, 52]),
   midi.NoteOnEvent(tick=240, channel=0, data=[80, 0]),
   midi.NoteOnEvent(tick=240, channel=0, data=[85, 55]),
   midi.NoteOnEvent(tick=120, channel=0, data=[85, 0]),
   midi.NoteOnEvent(tick=0, channel=0, data=[89, 46]),
   midi.NoteOnEvent(tick=120, channel=0, data=[89, 0]),
   midi.NoteOnEvent(tick=0, channel=0, data=[85, 55]),
   midi.NoteOnEvent(tick=120, channel=0, data=[85, 0]),
   midi.NoteOnEvent(tick=0, channel=0, data=[80, 46]),
   midi.NoteOnEvent(tick=90, channel=0, data=[80, 0]),
   midi.NoteOnEvent(tick=30, channel=0, data=[80, 55]),
   midi.NoteOnEvent(tick=120, channel=0, data=[80, 0]),
   midi.NoteOnEvent(tick=0, channel=0, data=[85, 46]),
   midi.NoteOnEvent(tick=120, channel=0, data=[85, 0]),
   midi.NoteOnEvent(tick=0, channel=0, data=[80, 55]),
   midi.NoteOnEvent(tick=120, channel=0, data=[80, 0]),
   midi.NoteOnEvent(tick=0, channel=0, data=[77, 46]),
   midi.NoteOnEvent(tick=120, channel=0, data=[77, 0]),
   midi.NoteOnEvent(tick=0, channel=0, data=[80, 55]),
   midi.NoteOnEvent(tick=240, channel=0, data=[80, 0]),
   midi.NoteOnEvent(tick=240, channel=0, data=[87, 62]),
   midi.NoteOnEvent(tick=120, channel=0, data=[87, 0]),
   midi.NoteOnEvent(tick=0, channel=0, data=[91, 52]),
   midi.NoteOnEvent(tick=120, channel=0, data=[91, 0]),
   midi.NoteOnEvent(tick=0, channel=0, data=[87, 62]),
   midi.NoteOnEvent(tick=120, channel=0, data=[87, 0]),
   midi.NoteOnEvent(tick=0, channel=0, data=[82, 52]),
   midi.NoteOnEvent(tick=90, channel=0, data=[82, 0]),
   midi.NoteOnEvent(tick=30, channel=0, data=[82, 62]),
   midi.NoteOnEvent(tick=120, channel=0, data=[82, 0]),
   midi.NoteOnEvent(tick=0, channel=0, data=[87, 52]),
   midi.NoteOnEvent(tick=120, channel=0, data=[87, 0]),
   midi.NoteOnEvent(tick=0, channel=0, data=[82, 62]),
   midi.NoteOnEvent(tick=120, channel=0, data=[82, 0]),
   midi.NoteOnEvent(tick=0, channel=0, data=[79, 52]),
   midi.NoteOnEvent(tick=120, channel=0, data=[79, 0]),
   midi.NoteOnEvent(tick=0, channel=0, data=[82, 62]),
   midi.NoteOnEvent(tick=240, channel=0, data=[82, 0]),
   midi.NoteOnEvent(tick=240, channel=0, data=[87, 70]),
   midi.NoteOnEvent(tick=120, channel=0, data=[87, 0]),
   midi.NoteOnEvent(tick=0, channel=0, data=[92, 59]),
   midi.NoteOnEvent(tick=120, channel=0, data=[92, 0]),
   midi.NoteOnEvent(tick=0, channel=0, data=[87, 70]),
   midi.NoteOnEvent(tick=120, channel=0, data=[87, 0]),
   midi.NoteOnEvent(tick=0, channel=0, data=[84, 58]),
   midi.NoteOnEvent(tick=90, channel=0, data=[84, 0]),
   midi.NoteOnEvent(tick=30, channel=0, data=[84, 70]),
   midi.NoteOnEvent(tick=120, channel=0, data=[84, 0]),
   midi.NoteOnEvent(tick=0, channel=0, data=[87, 59]),
   midi.NoteOnEvent(tick=120, channel=0, data=[87, 0]),
   midi.NoteOnEvent(tick=0, channel=0, data=[84, 70]),
   midi.NoteOnEvent(tick=120, channel=0, data=[84, 0]),
   midi.NoteOnEvent(tick=0, channel=0, data=[80, 59]),
   midi.NoteOnEvent(tick=120, channel=0, data=[80, 0]),
   midi.NoteOnEvent(tick=0, channel=0, data=[84, 70]),
   midi.NoteOnEvent(tick=240, channel=0, data=[84, 0]),
   midi.NoteOnEvent(tick=240, channel=0, data=[87, 77]),
   midi.NoteOnEvent(tick=120, channel=0, data=[87, 0]),
   midi.NoteOnEvent(tick=0, channel=0, data=[91, 65]),
   midi.NoteOnEvent(tick=120, channel=0, data=[91, 0]),
   midi.NoteOnEvent(tick=0, channel=0, data=[87, 77]),
   midi.NoteOnEvent(tick=120, channel=0, data=[87, 0]),
   midi.NoteOnEvent(tick=0, channel=0, data=[82, 65]),
   midi.NoteOnEvent(tick=90, channel=0, data=[82, 0]),
   midi.NoteOnEvent(tick=30, channel=0, data=[82, 77]),
   midi.NoteOnEvent(tick=120, channel=0, data=[82, 0]),
   midi.NoteOnEvent(tick=0, channel=0, data=[87, 65]),
   midi.NoteOnEvent(tick=120, channel=0, data=[87, 0]),
   midi.NoteOnEvent(tick=0, channel=0, data=[82, 77]),
   midi.NoteOnEvent(tick=120, channel=0, data=[82, 0]),
   midi.NoteOnEvent(tick=0, channel=0, data=[79, 65]),
   midi.NoteOnEvent(tick=120, channel=0, data=[79, 0]),
   midi.NoteOnEvent(tick=0, channel=0, data=[82, 77]),
   midi.NoteOnEvent(tick=240, channel=0, data=[82, 0]),
   midi.NoteOnEvent(tick=240, channel=0, data=[87, 78]),
   midi.NoteOnEvent(tick=120, channel=0, data=[87, 0]),
   midi.NoteOnEvent(tick=0, channel=0, data=[92, 66]),
   midi.NoteOnEvent(tick=120, channel=0, data=[92, 0]),
   midi.NoteOnEvent(tick=0, channel=0, data=[87, 78]),
   midi.NoteOnEvent(tick=120, channel=0, data=[87, 0]),
   midi.NoteOnEvent(tick=0, channel=0, data=[84, 66]),
   midi.NoteOnEvent(tick=90, channel=0, data=[84, 0]),
   midi.NoteOnEvent(tick=30, channel=0, data=[84, 78]),
   midi.NoteOnEvent(tick=120, channel=0, data=[84, 0]),
   midi.NoteOnEvent(tick=0, channel=0, data=[87, 66]),
   midi.NoteOnEvent(tick=120, channel=0, data=[87, 0]),
   midi.NoteOnEvent(tick=0, channel=0, data=[84, 78]),
   midi.NoteOnEvent(tick=120, channel=0, data=[84, 0]),
   midi.NoteOnEvent(tick=0, channel=0, data=[80, 66]),
   midi.NoteOnEvent(tick=120, channel=0, data=[80, 0]),
   midi.NoteOnEvent(tick=0, channel=0, data=[84, 78]),
   midi.NoteOnEvent(tick=240, channel=0, data=[84, 0]),
   midi.NoteOnEvent(tick=240, channel=0, data=[89, 78]),
   midi.NoteOnEvent(tick=120, channel=0, data=[89, 0]),
   midi.NoteOnEvent(tick=0, channel=0, data=[93, 67]),
   midi.NoteOnEvent(tick=120, channel=0, data=[93, 0]),
   midi.NoteOnEvent(tick=0, channel=0, data=[89, 78]),
   midi.NoteOnEvent(tick=120, channel=0, data=[89, 0]),
   midi.NoteOnEvent(tick=0, channel=0, data=[84, 67]),
   midi.NoteOnEvent(tick=90, channel=0, data=[84, 0]),
   midi.NoteOnEvent(tick=30, channel=0, data=[84, 78]),
   midi.NoteOnEvent(tick=120, channel=0, data=[84, 0]),
   midi.NoteOnEvent(tick=0, channel=0, data=[89, 67]),
   midi.NoteOnEvent(tick=120, channel=0, data=[89, 0]),
   midi.NoteOnEvent(tick=0, channel=0, data=[84, 78]),
   midi.NoteOnEvent(tick=120, channel=0, data=[84, 0]),
   midi.NoteOnEvent(tick=0, channel=0, data=[81, 67]),
   midi.NoteOnEvent(tick=120, channel=0, data=[81, 0]),
   midi.NoteOnEvent(tick=0, channel=0, data=[84, 78]),
   midi.NoteOnEvent(tick=240, channel=0, data=[84, 0]),
   midi.NoteOnEvent(tick=240, channel=0, data=[89, 78]),
   midi.NoteOnEvent(tick=120, channel=0, data=[89, 0]),
   midi.NoteOnEvent(tick=0, channel=0, data=[94, 67]),
   midi.NoteOnEvent(tick=120, channel=0, data=[94, 0]),
   midi.NoteOnEvent(tick=0, channel=0, data=[89, 78]),
   midi.NoteOnEvent(tick=120, channel=0, data=[89, 0]),
   midi.NoteOnEvent(tick=0, channel=0, data=[85, 67]),
   midi.NoteOnEvent(tick=90, channel=0, data=[85, 0]),
   midi.NoteOnEvent(tick=30, channel=0, data=[85, 78]),
   midi.NoteOnEvent(tick=120, channel=0, data=[85, 0]),
   midi.NoteOnEvent(tick=0, channel=0, data=[89, 67]),
   midi.NoteOnEvent(tick=120, channel=0, data=[89, 0]),
   midi.NoteOnEvent(tick=0, channel=0, data=[85, 78]),
   midi.NoteOnEvent(tick=120, channel=0, data=[85, 0]),
   midi.NoteOnEvent(tick=0, channel=0, data=[82, 67]),
   midi.NoteOnEvent(tick=120, channel=0, data=[82, 0]),
   midi.NoteOnEvent(tick=0, channel=0, data=[85, 78]),
   midi.NoteOnEvent(tick=240, channel=0, data=[85, 0]),
   midi.NoteOnEvent(tick=240, channel=0, data=[89, 78]),
   midi.NoteOnEvent(tick=120, channel=0, data=[89, 0]),
   midi.NoteOnEvent(tick=0, channel=0, data=[93, 67]),
   midi.NoteOnEvent(tick=120, channel=0, data=[93, 0]),
   midi.NoteOnEvent(tick=0, channel=0, data=[89, 78]),
   midi.NoteOnEvent(tick=120, channel=0, data=[89, 0]),
   midi.NoteOnEvent(tick=0, channel=0, data=[84, 67]),
   midi.NoteOnEvent(tick=90, channel=0, data=[84, 0]),
   midi.NoteOnEvent(tick=30, channel=0, data=[84, 78]),
   midi.NoteOnEvent(tick=120, channel=0, data=[84, 0]),
   midi.NoteOnEvent(tick=0, channel=0, data=[89, 67]),
   midi.NoteOnEvent(tick=120, channel=0, data=[89, 0]),
   midi.NoteOnEvent(tick=0, channel=0, data=[84, 78]),
   midi.NoteOnEvent(tick=120, channel=0, data=[84, 0]),
   midi.NoteOnEvent(tick=0, channel=0, data=[81, 67]),
   midi.NoteOnEvent(tick=120, channel=0, data=[81, 0]),
   midi.NoteOnEvent(tick=0, channel=0, data=[84, 78]),
   midi.NoteOnEvent(tick=240, channel=0, data=[84, 0]),
   midi.NoteOnEvent(tick=240, channel=0, data=[89, 78]),
   midi.NoteOnEvent(tick=120, channel=0, data=[89, 0]),
   midi.NoteOnEvent(tick=0, channel=0, data=[94, 67]),
   midi.NoteOnEvent(tick=120, channel=0, data=[94, 0]),
   midi.NoteOnEvent(tick=0, channel=0, data=[89, 78]),
   midi.NoteOnEvent(tick=120, channel=0, data=[89, 0]),
   midi.NoteOnEvent(tick=0, channel=0, data=[85, 67]),
   midi.NoteOnEvent(tick=90, channel=0, data=[85, 0]),
   midi.NoteOnEvent(tick=30, channel=0, data=[85, 78]),
   midi.NoteOnEvent(tick=120, channel=0, data=[85, 0]),
   midi.NoteOnEvent(tick=0, channel=0, data=[89, 67]),
   midi.NoteOnEvent(tick=120, channel=0, data=[89, 0]),
   midi.NoteOnEvent(tick=0, channel=0, data=[85, 78]),
   midi.NoteOnEvent(tick=120, channel=0, data=[85, 0]),
   midi.NoteOnEvent(tick=0, channel=0, data=[82, 67]),
   midi.NoteOnEvent(tick=120, channel=0, data=[82, 0]),
   midi.NoteOnEvent(tick=0, channel=0, data=[85, 78]),
   midi.NoteOnEvent(tick=240, channel=0, data=[85, 0]),
   midi.NoteOnEvent(tick=240, channel=0, data=[92, 78]),
   midi.NoteOnEvent(tick=120, channel=0, data=[92, 0]),
   midi.NoteOnEvent(tick=0, channel=0, data=[96, 67]),
   midi.NoteOnEvent(tick=120, channel=0, data=[96, 0]),
   midi.NoteOnEvent(tick=0, channel=0, data=[92, 78]),
   midi.NoteOnEvent(tick=120, channel=0, data=[92, 0]),
   midi.NoteOnEvent(tick=0, channel=0, data=[87, 67]),
   midi.NoteOnEvent(tick=90, channel=0, data=[87, 0]),
   midi.NoteOnEvent(tick=30, channel=0, data=[87, 78]),
   midi.NoteOnEvent(tick=120, channel=0, data=[87, 0]),
   midi.NoteOnEvent(tick=0, channel=0, data=[92, 67]),
   midi.NoteOnEvent(tick=120, channel=0, data=[92, 0]),
   midi.NoteOnEvent(tick=0, channel=0, data=[87, 78]),
   midi.NoteOnEvent(tick=120, channel=0, data=[87, 0]),
   midi.NoteOnEvent(tick=0, channel=0, data=[84, 67]),
   midi.NoteOnEvent(tick=120, channel=0, data=[84, 0]),
   midi.NoteOnEvent(tick=0, channel=0, data=[87, 78]),
   midi.NoteOnEvent(tick=240, channel=0, data=[87, 0]),
   midi.NoteOnEvent(tick=240, channel=0, data=[92, 78]),
   midi.NoteOnEvent(tick=120, channel=0, data=[92, 0]),
   midi.NoteOnEvent(tick=0, channel=0, data=[97, 67]),
   midi.NoteOnEvent(tick=120, channel=0, data=[97, 0]),
   midi.NoteOnEvent(tick=0, channel=0, data=[92, 78]),
   midi.NoteOnEvent(tick=120, channel=0, data=[92, 0]),
   midi.NoteOnEvent(tick=0, channel=0, data=[89, 67]),
   midi.NoteOnEvent(tick=90, channel=0, data=[89, 0]),
   midi.NoteOnEvent(tick=30, channel=0, data=[89, 79]),
   midi.NoteOnEvent(tick=120, channel=0, data=[89, 0]),
   midi.NoteOnEvent(tick=0, channel=0, data=[92, 68]),
   midi.NoteOnEvent(tick=120, channel=0, data=[92, 0]),
   midi.NoteOnEvent(tick=0, channel=0, data=[89, 80]),
   midi.NoteOnEvent(tick=120, channel=0, data=[89, 0]),
   midi.NoteOnEvent(tick=0, channel=0, data=[85, 68]),
   midi.NoteOnEvent(tick=120, channel=0, data=[85, 0]),
   midi.NoteOnEvent(tick=0, channel=0, data=[89, 81]),
   midi.NoteOnEvent(tick=240, channel=0, data=[89, 0]),
   midi.NoteOnEvent(tick=240, channel=0, data=[92, 82]),
   midi.NoteOnEvent(tick=120, channel=0, data=[92, 0]),
   midi.NoteOnEvent(tick=0, channel=0, data=[96, 70]),
   midi.NoteOnEvent(tick=120, channel=0, data=[96, 0]),
   midi.NoteOnEvent(tick=0, channel=0, data=[92, 83]),
   midi.NoteOnEvent(tick=120, channel=0, data=[92, 0]),
   midi.NoteOnEvent(tick=0, channel=0, data=[87, 71]),
   midi.NoteOnEvent(tick=90, channel=0, data=[87, 0]),
   midi.NoteOnEvent(tick=30, channel=0, data=[87, 84]),
   midi.NoteOnEvent(tick=120, channel=0, data=[87, 0]),
   midi.NoteOnEvent(tick=0, channel=0, data=[92, 72]),
   midi.NoteOnEvent(tick=120, channel=0, data=[92, 0]),
   midi.NoteOnEvent(tick=0, channel=0, data=[87, 85]),
   midi.NoteOnEvent(tick=120, channel=0, data=[87, 0]),
   midi.NoteOnEvent(tick=0, channel=0, data=[84, 72]),
   midi.NoteOnEvent(tick=120, channel=0, data=[84, 0]),
   midi.NoteOnEvent(tick=0, channel=0, data=[87, 85]),
   midi.NoteOnEvent(tick=240, channel=0, data=[87, 0]),
   midi.NoteOnEvent(tick=240, channel=0, data=[92, 86]),
   midi.NoteOnEvent(tick=120, channel=0, data=[92, 0]),
   midi.NoteOnEvent(tick=0, channel=0, data=[97, 73]),
   midi.NoteOnEvent(tick=120, channel=0, data=[97, 0]),
   midi.NoteOnEvent(tick=0, channel=0, data=[92, 86]),
   midi.NoteOnEvent(tick=120, channel=0, data=[92, 0]),
   midi.NoteOnEvent(tick=0, channel=0, data=[89, 73]),
   midi.NoteOnEvent(tick=90, channel=0, data=[89, 0]),
   midi.NoteOnEvent(tick=30, channel=0, data=[89, 86]),
   midi.NoteOnEvent(tick=120, channel=0, data=[89, 0]),
   midi.NoteOnEvent(tick=0, channel=0, data=[92, 73]),
   midi.NoteOnEvent(tick=120, channel=0, data=[92, 0]),
   midi.NoteOnEvent(tick=0, channel=0, data=[89, 86]),
   midi.NoteOnEvent(tick=120, channel=0, data=[89, 0]),
   midi.NoteOnEvent(tick=0, channel=0, data=[85, 73]),
   midi.NoteOnEvent(tick=90, channel=0, data=[85, 0]),
   midi.NoteOnEvent(tick=30, channel=0, data=[85, 86]),
   midi.NoteOnEvent(tick=120, channel=0, data=[85, 0]),
   midi.NoteOnEvent(tick=0, channel=0, data=[89, 73]),
   midi.NoteOnEvent(tick=120, channel=0, data=[89, 0]),
   midi.NoteOnEvent(tick=0, channel=0, data=[85, 86]),
   midi.NoteOnEvent(tick=120, channel=0, data=[85, 0]),
   midi.NoteOnEvent(tick=0, channel=0, data=[80, 73]),
   midi.NoteOnEvent(tick=90, channel=0, data=[80, 0]),
   midi.NoteOnEvent(tick=30, channel=0, data=[80, 86]),
   midi.NoteOnEvent(tick=120, channel=0, data=[80, 0]),
   midi.NoteOnEvent(tick=0, channel=0, data=[85, 73]),
   midi.NoteOnEvent(tick=120, channel=0, data=[85, 0]),
   midi.NoteOnEvent(tick=0, channel=0, data=[80, 86]),
   midi.NoteOnEvent(tick=120, channel=0, data=[80, 0]),
   midi.NoteOnEvent(tick=0, channel=0, data=[77, 73]),
   midi.NoteOnEvent(tick=90, channel=0, data=[77, 0]),
   midi.NoteOnEvent(tick=30, channel=0, data=[77, 86]),
   midi.NoteOnEvent(tick=120, channel=0, data=[77, 0]),
   midi.NoteOnEvent(tick=0, channel=0, data=[80, 73]),
   midi.NoteOnEvent(tick=120, channel=0, data=[80, 0]),
   midi.NoteOnEvent(tick=0, channel=0, data=[77, 86]),
   midi.NoteOnEvent(tick=120, channel=0, data=[77, 0]),
   midi.NoteOnEvent(tick=0, channel=0, data=[73, 73]),
   midi.NoteOnEvent(tick=90, channel=0, data=[73, 0]),
   midi.NoteOnEvent(tick=30, channel=0, data=[73, 86]),
   midi.NoteOnEvent(tick=120, channel=0, data=[73, 0]),
   midi.NoteOnEvent(tick=0, channel=0, data=[77, 73]),
   midi.NoteOnEvent(tick=120, channel=0, data=[77, 0]),
   midi.NoteOnEvent(tick=0, channel=0, data=[73, 86]),
   midi.NoteOnEvent(tick=120, channel=0, data=[73, 0]),
   midi.NoteOnEvent(tick=0, channel=0, data=[68, 73]),
   midi.NoteOnEvent(tick=120, channel=0, data=[68, 0]),
   midi.NoteOnEvent(tick=0, channel=0, data=[80, 86]),
   midi.NoteOnEvent(tick=120, channel=0, data=[80, 0]),
   midi.NoteOnEvent(tick=0, channel=0, data=[85, 73]),
   midi.NoteOnEvent(tick=120, channel=0, data=[85, 0]),
   midi.NoteOnEvent(tick=0, channel=0, data=[80, 86]),
   midi.NoteOnEvent(tick=120, channel=0, data=[80, 0]),
   midi.NoteOnEvent(tick=0, channel=0, data=[77, 73]),
   midi.NoteOnEvent(tick=90, channel=0, data=[77, 0]),
   midi.NoteOnEvent(tick=30, channel=0, data=[77, 86]),
   midi.NoteOnEvent(tick=120, channel=0, data=[77, 0]),
   midi.NoteOnEvent(tick=0, channel=0, data=[80, 73]),
   midi.NoteOnEvent(tick=120, channel=0, data=[80, 0]),
   midi.NoteOnEvent(tick=0, channel=0, data=[77, 86]),
   midi.NoteOnEvent(tick=120, channel=0, data=[77, 0]),
   midi.NoteOnEvent(tick=0, channel=0, data=[73, 73]),
   midi.NoteOnEvent(tick=90, channel=0, data=[73, 0]),
   midi.NoteOnEvent(tick=30, channel=0, data=[73, 86]),
   midi.NoteOnEvent(tick=120, channel=0, data=[73, 0]),
   midi.NoteOnEvent(tick=0, channel=0, data=[77, 73]),
   midi.NoteOnEvent(tick=120, channel=0, data=[77, 0]),
   midi.NoteOnEvent(tick=0, channel=0, data=[73, 86]),
   midi.NoteOnEvent(tick=120, channel=0, data=[73, 0]),
   midi.NoteOnEvent(tick=0, channel=0, data=[68, 73]),
   midi.NoteOnEvent(tick=90, channel=0, data=[68, 0]),
   midi.NoteOnEvent(tick=30, channel=0, data=[68, 86]),
   midi.NoteOnEvent(tick=120, channel=0, data=[68, 0]),
   midi.NoteOnEvent(tick=0, channel=0, data=[73, 73]),
   midi.NoteOnEvent(tick=120, channel=0, data=[73, 0]),
   midi.NoteOnEvent(tick=0, channel=0, data=[68, 86]),
   midi.NoteOnEvent(tick=120, channel=0, data=[68, 0]),
   midi.NoteOnEvent(tick=0, channel=0, data=[65, 73]),
   midi.NoteOnEvent(tick=90, channel=0, data=[65, 0]),
   midi.NoteOnEvent(tick=30, channel=0, data=[65, 86]),
   midi.NoteOnEvent(tick=120, channel=0, data=[65, 0]),
   midi.NoteOnEvent(tick=0, channel=0, data=[68, 73]),
   midi.NoteOnEvent(tick=120, channel=0, data=[68, 0]),
   midi.NoteOnEvent(tick=0, channel=0, data=[65, 86]),
   midi.NoteOnEvent(tick=120, channel=0, data=[65, 0]),
   midi.NoteOnEvent(tick=0, channel=0, data=[61, 73]),
   midi.NoteOnEvent(tick=90, channel=0, data=[61, 0]),
   midi.NoteOnEvent(tick=30, channel=0, data=[61, 86]),
   midi.NoteOnEvent(tick=120, channel=0, data=[61, 0]),
   midi.NoteOnEvent(tick=0, channel=0, data=[65, 73]),
   midi.NoteOnEvent(tick=120, channel=0, data=[65, 0]),
   midi.NoteOnEvent(tick=0, channel=0, data=[61, 86]),
   midi.NoteOnEvent(tick=120, channel=0, data=[61, 0]),
   midi.NoteOnEvent(tick=0, channel=0, data=[56, 73]),
   midi.NoteOnEvent(tick=120, channel=0, data=[56, 0]),
   midi.NoteOnEvent(tick=0, channel=0, data=[61, 88]),
   midi.NoteOnEvent(tick=120, channel=0, data=[61, 0]),
   midi.NoteOnEvent(tick=0, channel=0, data=[64, 68]),
   midi.NoteOnEvent(tick=120, channel=0, data=[64, 0]),
   midi.NoteOnEvent(tick=0, channel=0, data=[61, 80]),
   midi.NoteOnEvent(tick=120, channel=0, data=[61, 0]),
   midi.NoteOnEvent(tick=0, channel=0, data=[58, 68]),
   midi.NoteOnEvent(tick=90, channel=0, data=[58, 0]),
   midi.NoteOnEvent(tick=30, channel=0, data=[58, 80]),
   midi.NoteOnEvent(tick=120, channel=0, data=[58, 0]),
   midi.NoteOnEvent(tick=0, channel=0, data=[61, 68]),
   midi.NoteOnEvent(tick=120, channel=0, data=[61, 0]),
   midi.NoteOnEvent(tick=0, channel=0, data=[58, 80]),
   midi.NoteOnEvent(tick=120, channel=0, data=[58, 0]),
   midi.NoteOnEvent(tick=0, channel=0, data=[55, 68]),
   midi.NoteOnEvent(tick=120, channel=0, data=[55, 0]),
   midi.NoteOnEvent(tick=0, channel=0, data=[61, 89]),
   midi.NoteOnEvent(tick=120, channel=0, data=[61, 0]),
   midi.NoteOnEvent(tick=0, channel=0, data=[64, 68]),
   midi.NoteOnEvent(tick=120, channel=0, data=[64, 0]),
   midi.NoteOnEvent(tick=0, channel=0, data=[61, 80]),
   midi.NoteOnEvent(tick=120, channel=0, data=[61, 0]),
   midi.NoteOnEvent(tick=0, channel=0, data=[58, 68]),
   midi.NoteOnEvent(tick=90, channel=0, data=[58, 0]),
   midi.NoteOnEvent(tick=30, channel=0, data=[58, 80]),
   midi.NoteOnEvent(tick=120, channel=0, data=[58, 0]),
   midi.NoteOnEvent(tick=0, channel=0, data=[61, 68]),
   midi.NoteOnEvent(tick=120, channel=0, data=[61, 0]),
   midi.NoteOnEvent(tick=0, channel=0, data=[58, 80]),
   midi.NoteOnEvent(tick=120, channel=0, data=[58, 0]),
   midi.NoteOnEvent(tick=0, channel=0, data=[55, 68]),
   midi.NoteOnEvent(tick=120, channel=0, data=[55, 0]),
   midi.NoteOnEvent(tick=0, channel=0, data=[61, 88]),
   midi.NoteOnEvent(tick=120, channel=0, data=[61, 0]),
   midi.NoteOnEvent(tick=0, channel=0, data=[64, 68]),
   midi.NoteOnEvent(tick=120, channel=0, data=[64, 0]),
   midi.NoteOnEvent(tick=0, channel=0, data=[61, 80]),
   midi.NoteOnEvent(tick=120, channel=0, data=[61, 0]),
   midi.NoteOnEvent(tick=0, channel=0, data=[58, 68]),
   midi.NoteOnEvent(tick=90, channel=0, data=[58, 0]),
   midi.NoteOnEvent(tick=30, channel=0, data=[58, 80]),
   midi.NoteOnEvent(tick=120, channel=0, data=[58, 0]),
   midi.NoteOnEvent(tick=0, channel=0, data=[61, 68]),
   midi.NoteOnEvent(tick=120, channel=0, data=[61, 0]),
   midi.NoteOnEvent(tick=0, channel=0, data=[58, 80]),
   midi.NoteOnEvent(tick=120, channel=0, data=[58, 0]),
   midi.NoteOnEvent(tick=0, channel=0, data=[55, 68]),
   midi.NoteOnEvent(tick=120, channel=0, data=[55, 0]),
   midi.NoteOnEvent(tick=0, channel=0, data=[61, 80]),
   midi.NoteOnEvent(tick=120, channel=0, data=[61, 0]),
   midi.NoteOnEvent(tick=0, channel=0, data=[63, 68]),
   midi.NoteOnEvent(tick=120, channel=0, data=[63, 0]),
   midi.NoteOnEvent(tick=0, channel=0, data=[61, 79]),
   midi.NoteOnEvent(tick=120, channel=0, data=[61, 0]),
   midi.NoteOnEvent(tick=0, channel=0, data=[58, 66]),
   midi.NoteOnEvent(tick=90, channel=0, data=[58, 0]),
   midi.NoteOnEvent(tick=30, channel=0, data=[58, 77]),
   midi.NoteOnEvent(tick=120, channel=0, data=[58, 0]),
   midi.NoteOnEvent(tick=0, channel=0, data=[61, 65]),
   midi.NoteOnEvent(tick=120, channel=0, data=[61, 0]),
   midi.NoteOnEvent(tick=0, channel=0, data=[58, 76]),
   midi.NoteOnEvent(tick=120, channel=0, data=[58, 0]),
   midi.NoteOnEvent(tick=0, channel=0, data=[55, 63]),
   midi.NoteOnEvent(tick=120, channel=0, data=[55, 0]),
   midi.NoteOnEvent(tick=0, channel=0, data=[61, 82]),
   midi.NoteOnEvent(tick=120, channel=0, data=[61, 0]),
   midi.NoteOnEvent(tick=0, channel=0, data=[63, 64]),
   midi.NoteOnEvent(tick=120, channel=0, data=[63, 0]),
   midi.NoteOnEvent(tick=0, channel=0, data=[61, 75]),
   midi.NoteOnEvent(tick=120, channel=0, data=[61, 0]),
   midi.NoteOnEvent(tick=0, channel=0, data=[58, 61]),
   midi.NoteOnEvent(tick=90, channel=0, data=[58, 0]),
   midi.NoteOnEvent(tick=30, channel=0, data=[58, 76]),
   midi.NoteOnEvent(tick=120, channel=0, data=[58, 0]),
   midi.NoteOnEvent(tick=0, channel=0, data=[61, 63]),
   midi.NoteOnEvent(tick=120, channel=0, data=[61, 0]),
   midi.NoteOnEvent(tick=0, channel=0, data=[58, 73]),
   midi.NoteOnEvent(tick=120, channel=0, data=[58, 0]),
   midi.NoteOnEvent(tick=0, channel=0, data=[55, 59]),
   midi.NoteOnEvent(tick=120, channel=0, data=[55, 0]),
   midi.NoteOnEvent(tick=0, channel=0, data=[61, 76]),
   midi.NoteOnEvent(tick=120, channel=0, data=[61, 0]),
   midi.NoteOnEvent(tick=0, channel=0, data=[63, 57]),
   midi.NoteOnEvent(tick=120, channel=0, data=[63, 0]),
   midi.NoteOnEvent(tick=0, channel=0, data=[61, 66]),
   midi.NoteOnEvent(tick=120, channel=0, data=[61, 0]),
   midi.NoteOnEvent(tick=0, channel=0, data=[58, 55]),
   midi.NoteOnEvent(tick=90, channel=0, data=[58, 0]),
   midi.NoteOnEvent(tick=30, channel=0, data=[58, 63]),
   midi.NoteOnEvent(tick=120, channel=0, data=[58, 0]),
   midi.NoteOnEvent(tick=0, channel=0, data=[61, 52]),
   midi.NoteOnEvent(tick=120, channel=0, data=[61, 0]),
   midi.NoteOnEvent(tick=0, channel=0, data=[58, 60]),
   midi.NoteOnEvent(tick=120, channel=0, data=[58, 0]),
   midi.NoteOnEvent(tick=0, channel=0, data=[55, 49]),
   midi.NoteOnEvent(tick=120, channel=0, data=[55, 0]),
   midi.NoteOnEvent(tick=0, channel=0, data=[63, 50]),
   midi.NoteOnEvent(tick=160, channel=0, data=[60, 40]),
   midi.NoteOnEvent(tick=160, channel=0, data=[60, 0]),
   midi.NoteOnEvent(tick=0, channel=0, data=[56, 40]),
   midi.NoteOnEvent(tick=160, channel=0, data=[56, 0]),
   midi.NoteOnEvent(tick=0, channel=0, data=[63, 0]),
   midi.NoteOnEvent(tick=0, channel=0, data=[68, 50]),
   midi.NoteOnEvent(tick=160, channel=0, data=[63, 40]),
   midi.NoteOnEvent(tick=160, channel=0, data=[63, 0]),
   midi.NoteOnEvent(tick=0, channel=0, data=[60, 40]),
   midi.NoteOnEvent(tick=160, channel=0, data=[60, 0]),
   midi.NoteOnEvent(tick=0, channel=0, data=[68, 0]),
   midi.NoteOnEvent(tick=0, channel=0, data=[67, 50]),
   midi.NoteOnEvent(tick=160, channel=0, data=[63, 40]),
   midi.NoteOnEvent(tick=160, channel=0, data=[63, 0]),
   midi.NoteOnEvent(tick=0, channel=0, data=[60, 40]),
   midi.NoteOnEvent(tick=160, channel=0, data=[60, 0]),
   midi.NoteOnEvent(tick=0, channel=0, data=[67, 0]),
   midi.NoteOnEvent(tick=0, channel=0, data=[65, 50]),
   midi.NoteOnEvent(tick=160, channel=0, data=[61, 40]),
   midi.NoteOnEvent(tick=160, channel=0, data=[61, 0]),
   midi.NoteOnEvent(tick=0, channel=0, data=[56, 40]),
   midi.NoteOnEvent(tick=160, channel=0, data=[56, 0]),
   midi.NoteOnEvent(tick=0, channel=0, data=[65, 0]),
   midi.NoteOnEvent(tick=0, channel=0, data=[73, 50]),
   midi.NoteOnEvent(tick=160, channel=0, data=[65, 40]),
   midi.NoteOnEvent(tick=160, channel=0, data=[65, 0]),
   midi.NoteOnEvent(tick=0, channel=0, data=[61, 40]),
   midi.NoteOnEvent(tick=160, channel=0, data=[61, 0]),
   midi.NoteOnEvent(tick=0, channel=0, data=[73, 0]),
   midi.NoteOnEvent(tick=0, channel=0, data=[70, 50]),
   midi.NoteOnEvent(tick=160, channel=0, data=[65, 40]),
   midi.NoteOnEvent(tick=160, channel=0, data=[65, 0]),
   midi.NoteOnEvent(tick=0, channel=0, data=[61, 40]),
   midi.NoteOnEvent(tick=160, channel=0, data=[61, 0]),
   midi.NoteOnEvent(tick=0, channel=0, data=[70, 0]),
   midi.NoteOnEvent(tick=0, channel=0, data=[70, 50]),
   midi.NoteOnEvent(tick=160, channel=0, data=[63, 40]),
   midi.NoteOnEvent(tick=160, channel=0, data=[63, 0]),
   midi.NoteOnEvent(tick=0, channel=0, data=[61, 40]),
   midi.NoteOnEvent(tick=160, channel=0, data=[61, 0]),
   midi.NoteOnEvent(tick=0, channel=0, data=[70, 0]),
   midi.NoteOnEvent(tick=0, channel=0, data=[68, 50]),
   midi.NoteOnEvent(tick=160, channel=0, data=[63, 40]),
   midi.NoteOnEvent(tick=160, channel=0, data=[63, 0]),
   midi.NoteOnEvent(tick=0, channel=0, data=[60, 40]),
   midi.NoteOnEvent(tick=160, channel=0, data=[60, 0]),
   midi.NoteOnEvent(tick=0, channel=0, data=[68, 0]),
   midi.NoteOnEvent(tick=0, channel=0, data=[68, 50]),
   midi.NoteOnEvent(tick=160, channel=0, data=[63, 40]),
   midi.NoteOnEvent(tick=160, channel=0, data=[63, 0]),
   midi.NoteOnEvent(tick=0, channel=0, data=[60, 40]),
   midi.NoteOnEvent(tick=160, channel=0, data=[60, 0]),
   midi.NoteOnEvent(tick=0, channel=0, data=[68, 0]),
   midi.NoteOnEvent(tick=0, channel=0, data=[68, 50]),
   midi.NoteOnEvent(tick=160, channel=0, data=[63, 40]),
   midi.NoteOnEvent(tick=160, channel=0, data=[63, 0]),
   midi.NoteOnEvent(tick=0, channel=0, data=[60, 40]),
   midi.NoteOnEvent(tick=160, channel=0, data=[60, 0]),
   midi.NoteOnEvent(tick=0, channel=0, data=[68, 0]),
   midi.NoteOnEvent(tick=0, channel=0, data=[67, 50]),
   midi.NoteOnEvent(tick=160, channel=0, data=[63, 40]),
   midi.NoteOnEvent(tick=160, channel=0, data=[63, 0]),
   midi.NoteOnEvent(tick=0, channel=0, data=[58, 40]),
   midi.NoteOnEvent(tick=160, channel=0, data=[58, 0]),
   midi.NoteOnEvent(tick=0, channel=0, data=[67, 0]),
   midi.NoteOnEvent(tick=0, channel=0, data=[67, 50]),
   midi.NoteOnEvent(tick=160, channel=0, data=[63, 40]),
   midi.NoteOnEvent(tick=160, channel=0, data=[63, 0]),
   midi.NoteOnEvent(tick=0, channel=0, data=[58, 40]),
   midi.NoteOnEvent(tick=160, channel=0, data=[58, 0]),
   midi.NoteOnEvent(tick=0, channel=0, data=[67, 0]),
   midi.NoteOnEvent(tick=0, channel=0, data=[63, 50]),
   midi.NoteOnEvent(tick=160, channel=0, data=[60, 40]),
   midi.NoteOnEvent(tick=160, channel=0, data=[60, 0]),
   midi.NoteOnEvent(tick=0, channel=0, data=[56, 40]),
   midi.NoteOnEvent(tick=160, channel=0, data=[56, 0]),
   midi.NoteOnEvent(tick=0, channel=0, data=[63, 0]),
   midi.NoteOnEvent(tick=0, channel=0, data=[68, 50]),
   midi.NoteOnEvent(tick=160, channel=0, data=[63, 40]),
   midi.NoteOnEvent(tick=160, channel=0, data=[63, 0]),
   midi.NoteOnEvent(tick=0, channel=0, data=[60, 40]),
   midi.NoteOnEvent(tick=160, channel=0, data=[60, 0]),
   midi.NoteOnEvent(tick=0, channel=0, data=[68, 0]),
   midi.NoteOnEvent(tick=0, channel=0, data=[67, 50]),
   midi.NoteOnEvent(tick=160, channel=0, data=[63, 40]),
   midi.NoteOnEvent(tick=160, channel=0, data=[63, 0]),
   midi.NoteOnEvent(tick=0, channel=0, data=[60, 40]),
   midi.NoteOnEvent(tick=160, channel=0, data=[60, 0]),
   midi.NoteOnEvent(tick=0, channel=0, data=[67, 0]),
   midi.NoteOnEvent(tick=0, channel=0, data=[65, 50]),
   midi.NoteOnEvent(tick=160, channel=0, data=[61, 40]),
   midi.NoteOnEvent(tick=160, channel=0, data=[61, 0]),
   midi.NoteOnEvent(tick=0, channel=0, data=[56, 40]),
   midi.NoteOnEvent(tick=160, channel=0, data=[56, 0]),
   midi.NoteOnEvent(tick=0, channel=0, data=[65, 0]),
   midi.NoteOnEvent(tick=0, channel=0, data=[77, 50]),
   midi.NoteOnEvent(tick=160, channel=0, data=[68, 40]),
   midi.NoteOnEvent(tick=160, channel=0, data=[68, 0]),
   midi.NoteOnEvent(tick=0, channel=0, data=[65, 40]),
   midi.NoteOnEvent(tick=160, channel=0, data=[65, 0]),
   midi.NoteOnEvent(tick=0, channel=0, data=[77, 0]),
   midi.NoteOnEvent(tick=0, channel=0, data=[73, 50]),
   midi.NoteOnEvent(tick=160, channel=0, data=[65, 40]),
   midi.NoteOnEvent(tick=160, channel=0, data=[65, 0]),
   midi.NoteOnEvent(tick=0, channel=0, data=[61, 40]),
   midi.NoteOnEvent(tick=160, channel=0, data=[61, 0]),
   midi.NoteOnEvent(tick=0, channel=0, data=[73, 0]),
   midi.NoteOnEvent(tick=0, channel=0, data=[73, 50]),
   midi.NoteOnEvent(tick=160, channel=0, data=[68, 40]),
   midi.NoteOnEvent(tick=160, channel=0, data=[68, 0]),
   midi.NoteOnEvent(tick=0, channel=0, data=[63, 40]),
   midi.NoteOnEvent(tick=160, channel=0, data=[63, 0]),
   midi.NoteOnEvent(tick=0, channel=0, data=[73, 0]),
   midi.NoteOnEvent(tick=0, channel=0, data=[72, 50]),
   midi.NoteOnEvent(tick=160, channel=0, data=[68, 40]),
   midi.NoteOnEvent(tick=160, channel=0, data=[68, 0]),
   midi.NoteOnEvent(tick=0, channel=0, data=[63, 40]),
   midi.NoteOnEvent(tick=160, channel=0, data=[63, 0]),
   midi.NoteOnEvent(tick=0, channel=0, data=[72, 0]),
   midi.NoteOnEvent(tick=0, channel=0, data=[72, 50]),
   midi.NoteOnEvent(tick=160, channel=0, data=[68, 40]),
   midi.NoteOnEvent(tick=160, channel=0, data=[68, 0]),
   midi.NoteOnEvent(tick=0, channel=0, data=[63, 40]),
   midi.NoteOnEvent(tick=160, channel=0, data=[63, 0]),
   midi.NoteOnEvent(tick=0, channel=0, data=[72, 0]),
   midi.NoteOnEvent(tick=0, channel=0, data=[72, 50]),
   midi.NoteOnEvent(tick=160, channel=0, data=[63, 40]),
   midi.NoteOnEvent(tick=160, channel=0, data=[63, 0]),
   midi.NoteOnEvent(tick=0, channel=0, data=[61, 40]),
   midi.NoteOnEvent(tick=160, channel=0, data=[61, 0]),
   midi.NoteOnEvent(tick=0, channel=0, data=[72, 0]),
   midi.NoteOnEvent(tick=0, channel=0, data=[70, 50]),
   midi.NoteOnEvent(tick=160, channel=0, data=[63, 40]),
   midi.NoteOnEvent(tick=160, channel=0, data=[63, 0]),
   midi.NoteOnEvent(tick=0, channel=0, data=[61, 40]),
   midi.NoteOnEvent(tick=160, channel=0, data=[61, 0]),
   midi.NoteOnEvent(tick=0, channel=0, data=[70, 0]),
   midi.NoteOnEvent(tick=0, channel=0, data=[70, 50]),
   midi.NoteOnEvent(tick=160, channel=0, data=[63, 40]),
   midi.NoteOnEvent(tick=160, channel=0, data=[63, 0]),
   midi.NoteOnEvent(tick=0, channel=0, data=[61, 40]),
   midi.NoteOnEvent(tick=160, channel=0, data=[61, 0]),
   midi.NoteOnEvent(tick=0, channel=0, data=[70, 0]),
   midi.NoteOnEvent(tick=0, channel=0, data=[72, 48]),
   midi.NoteOnEvent(tick=112, channel=0, data=[72, 0]),
   midi.NoteOnEvent(tick=0, channel=0, data=[75, 40]),
   midi.NoteOnEvent(tick=120, channel=0, data=[75, 0]),
   midi.NoteOnEvent(tick=0, channel=0, data=[72, 48]),
   midi.NoteOnEvent(tick=120, channel=0, data=[72, 0]),
   midi.NoteOnEvent(tick=0, channel=0, data=[68, 40]),
   midi.NoteOnEvent(tick=90, channel=0, data=[68, 0]),
   midi.NoteOnEvent(tick=30, channel=0, data=[68, 48]),
   midi.NoteOnEvent(tick=120, channel=0, data=[68, 0]),
   midi.NoteOnEvent(tick=0, channel=0, data=[72, 40]),
   midi.NoteOnEvent(tick=120, channel=0, data=[72, 0]),
   midi.NoteOnEvent(tick=0, channel=0, data=[68, 48]),
   midi.NoteOnEvent(tick=120, channel=0, data=[68, 0]),
   midi.NoteOnEvent(tick=0, channel=0, data=[63, 40]),
   midi.NoteOnEvent(tick=120, channel=0, data=[63, 0]),
   midi.NoteOnEvent(tick=0, channel=0, data=[68, 48]),
   midi.NoteOnEvent(tick=240, channel=0, data=[68, 0]),
   midi.NoteOnEvent(tick=240, channel=0, data=[73, 48]),
   midi.NoteOnEvent(tick=120, channel=0, data=[73, 0]),
   midi.NoteOnEvent(tick=0, channel=0, data=[77, 40]),
   midi.NoteOnEvent(tick=120, channel=0, data=[77, 0]),
   midi.NoteOnEvent(tick=0, channel=0, data=[73, 48]),
   midi.NoteOnEvent(tick=120, channel=0, data=[73, 0]),
   midi.NoteOnEvent(tick=0, channel=0, data=[68, 40]),
   midi.NoteOnEvent(tick=90, channel=0, data=[68, 0]),
   midi.NoteOnEvent(tick=30, channel=0, data=[68, 48]),
   midi.NoteOnEvent(tick=120, channel=0, data=[68, 0]),
   midi.NoteOnEvent(tick=0, channel=0, data=[73, 40]),
   midi.NoteOnEvent(tick=120, channel=0, data=[73, 0]),
   midi.NoteOnEvent(tick=0, channel=0, data=[68, 48]),
   midi.NoteOnEvent(tick=120, channel=0, data=[68, 0]),
   midi.NoteOnEvent(tick=0, channel=0, data=[65, 40]),
   midi.NoteOnEvent(tick=120, channel=0, data=[65, 0]),
   midi.NoteOnEvent(tick=0, channel=0, data=[68, 48]),
   midi.NoteOnEvent(tick=240, channel=0, data=[68, 0]),
   midi.NoteOnEvent(tick=240, channel=0, data=[75, 48]),
   midi.NoteOnEvent(tick=120, channel=0, data=[75, 0]),
   midi.NoteOnEvent(tick=0, channel=0, data=[79, 40]),
   midi.NoteOnEvent(tick=120, channel=0, data=[79, 0]),
   midi.NoteOnEvent(tick=0, channel=0, data=[75, 48]),
   midi.NoteOnEvent(tick=120, channel=0, data=[75, 0]),
   midi.NoteOnEvent(tick=0, channel=0, data=[70, 40]),
   midi.NoteOnEvent(tick=90, channel=0, data=[70, 0]),
   midi.NoteOnEvent(tick=30, channel=0, data=[70, 48]),
   midi.NoteOnEvent(tick=120, channel=0, data=[70, 0]),
   midi.NoteOnEvent(tick=0, channel=0, data=[75, 40]),
   midi.NoteOnEvent(tick=120, channel=0, data=[75, 0]),
   midi.NoteOnEvent(tick=0, channel=0, data=[70, 48]),
   midi.NoteOnEvent(tick=120, channel=0, data=[70, 0]),
   midi.NoteOnEvent(tick=0, channel=0, data=[67, 40]),
   midi.NoteOnEvent(tick=120, channel=0, data=[67, 0]),
   midi.NoteOnEvent(tick=0, channel=0, data=[70, 48]),
   midi.NoteOnEvent(tick=240, channel=0, data=[70, 0]),
   midi.NoteOnEvent(tick=240, channel=0, data=[75, 48]),
   midi.NoteOnEvent(tick=120, channel=0, data=[75, 0]),
   midi.NoteOnEvent(tick=0, channel=0, data=[80, 40]),
   midi.NoteOnEvent(tick=120, channel=0, data=[80, 0]),
   midi.NoteOnEvent(tick=0, channel=0, data=[75, 48]),
   midi.NoteOnEvent(tick=120, channel=0, data=[75, 0]),
   midi.NoteOnEvent(tick=0, channel=0, data=[72, 40]),
   midi.NoteOnEvent(tick=90, channel=0, data=[72, 0]),
   midi.NoteOnEvent(tick=30, channel=0, data=[72, 48]),
   midi.NoteOnEvent(tick=120, channel=0, data=[72, 0]),
   midi.NoteOnEvent(tick=0, channel=0, data=[75, 40]),
   midi.NoteOnEvent(tick=120, channel=0, data=[75, 0]),
   midi.NoteOnEvent(tick=0, channel=0, data=[72, 48]),
   midi.NoteOnEvent(tick=120, channel=0, data=[72, 0]),
   midi.NoteOnEvent(tick=0, channel=0, data=[68, 40]),
   midi.NoteOnEvent(tick=120, channel=0, data=[68, 0]),
   midi.NoteOnEvent(tick=0, channel=0, data=[72, 48]),
   midi.NoteOnEvent(tick=240, channel=0, data=[72, 0]),
   midi.NoteOnEvent(tick=240, channel=0, data=[84, 64]),
   midi.NoteOnEvent(tick=120, channel=0, data=[84, 0]),
   midi.NoteOnEvent(tick=0, channel=0, data=[87, 54]),
   midi.NoteOnEvent(tick=120, channel=0, data=[87, 0]),
   midi.NoteOnEvent(tick=0, channel=0, data=[84, 64]),
   midi.NoteOnEvent(tick=120, channel=0, data=[84, 0]),
   midi.NoteOnEvent(tick=0, channel=0, data=[80, 54]),
   midi.NoteOnEvent(tick=90, channel=0, data=[80, 0]),
   midi.NoteOnEvent(tick=30, channel=0, data=[80, 64]),
   midi.NoteOnEvent(tick=120, channel=0, data=[80, 0]),
   midi.NoteOnEvent(tick=0, channel=0, data=[84, 54]),
   midi.NoteOnEvent(tick=120, channel=0, data=[84, 0]),
   midi.NoteOnEvent(tick=0, channel=0, data=[80, 64]),
   midi.NoteOnEvent(tick=120, channel=0, data=[80, 0]),
   midi.NoteOnEvent(tick=0, channel=0, data=[75, 54]),
   midi.NoteOnEvent(tick=120, channel=0, data=[75, 0]),
   midi.NoteOnEvent(tick=0, channel=0, data=[80, 64]),
   midi.NoteOnEvent(tick=240, channel=0, data=[80, 0]),
   midi.NoteOnEvent(tick=240, channel=0, data=[85, 72]),
   midi.NoteOnEvent(tick=120, channel=0, data=[85, 0]),
   midi.NoteOnEvent(tick=0, channel=0, data=[89, 61]),
   midi.NoteOnEvent(tick=120, channel=0, data=[89, 0]),
   midi.NoteOnEvent(tick=0, channel=0, data=[85, 72]),
   midi.NoteOnEvent(tick=120, channel=0, data=[85, 0]),
   midi.NoteOnEvent(tick=0, channel=0, data=[80, 61]),
   midi.NoteOnEvent(tick=90, channel=0, data=[80, 0]),
   midi.NoteOnEvent(tick=30, channel=0, data=[80, 72]),
   midi.NoteOnEvent(tick=120, channel=0, data=[80, 0]),
   midi.NoteOnEvent(tick=0, channel=0, data=[85, 61]),
   midi.NoteOnEvent(tick=120, channel=0, data=[85, 0]),
   midi.NoteOnEvent(tick=0, channel=0, data=[80, 72]),
   midi.NoteOnEvent(tick=120, channel=0, data=[80, 0]),
   midi.NoteOnEvent(tick=0, channel=0, data=[77, 61]),
   midi.NoteOnEvent(tick=120, channel=0, data=[77, 0]),
   midi.NoteOnEvent(tick=0, channel=0, data=[80, 72]),
   midi.NoteOnEvent(tick=240, channel=0, data=[80, 0]),
   midi.NoteOnEvent(tick=240, channel=0, data=[87, 84]),
   midi.NoteOnEvent(tick=120, channel=0, data=[87, 0]),
   midi.NoteOnEvent(tick=0, channel=0, data=[91, 71]),
   midi.NoteOnEvent(tick=120, channel=0, data=[91, 0]),
   midi.NoteOnEvent(tick=0, channel=0, data=[87, 84]),
   midi.NoteOnEvent(tick=120, channel=0, data=[87, 0]),
   midi.NoteOnEvent(tick=0, channel=0, data=[82, 71]),
   midi.NoteOnEvent(tick=90, channel=0, data=[82, 0]),
   midi.NoteOnEvent(tick=30, channel=0, data=[82, 84]),
   midi.NoteOnEvent(tick=120, channel=0, data=[82, 0]),
   midi.NoteOnEvent(tick=0, channel=0, data=[87, 71]),
   midi.NoteOnEvent(tick=120, channel=0, data=[87, 0]),
   midi.NoteOnEvent(tick=0, channel=0, data=[82, 84]),
   midi.NoteOnEvent(tick=120, channel=0, data=[82, 0]),
   midi.NoteOnEvent(tick=0, channel=0, data=[79, 71]),
   midi.NoteOnEvent(tick=120, channel=0, data=[79, 0]),
   midi.NoteOnEvent(tick=0, channel=0, data=[82, 84]),
   midi.NoteOnEvent(tick=240, channel=0, data=[82, 0]),
   midi.NoteOnEvent(tick=240, channel=0, data=[87, 91]),
   midi.NoteOnEvent(tick=120, channel=0, data=[87, 0]),
   midi.NoteOnEvent(tick=0, channel=0, data=[92, 76]),
   midi.NoteOnEvent(tick=120, channel=0, data=[92, 0]),
   midi.NoteOnEvent(tick=0, channel=0, data=[87, 91]),
   midi.NoteOnEvent(tick=120, channel=0, data=[87, 0]),
   midi.NoteOnEvent(tick=0, channel=0, data=[84, 76]),
   midi.NoteOnEvent(tick=90, channel=0, data=[84, 0]),
   midi.NoteOnEvent(tick=30, channel=0, data=[84, 91]),
   midi.NoteOnEvent(tick=120, channel=0, data=[84, 0]),
   midi.NoteOnEvent(tick=0, channel=0, data=[87, 76]),
   midi.NoteOnEvent(tick=120, channel=0, data=[87, 0]),
   midi.NoteOnEvent(tick=0, channel=0, data=[84, 91]),
   midi.NoteOnEvent(tick=120, channel=0, data=[84, 0]),
   midi.NoteOnEvent(tick=0, channel=0, data=[80, 76]),
   midi.NoteOnEvent(tick=120, channel=0, data=[80, 0]),
   midi.NoteOnEvent(tick=0, channel=0, data=[84, 91]),
   midi.NoteOnEvent(tick=240, channel=0, data=[84, 0]),
   midi.NoteOnEvent(tick=240, channel=0, data=[72, 48]),
   midi.NoteOnEvent(tick=120, channel=0, data=[72, 0]),
   midi.NoteOnEvent(tick=0, channel=0, data=[75, 40]),
   midi.NoteOnEvent(tick=120, channel=0, data=[75, 0]),
   midi.NoteOnEvent(tick=0, channel=0, data=[72, 48]),
   midi.NoteOnEvent(tick=120, channel=0, data=[72, 0]),
   midi.NoteOnEvent(tick=0, channel=0, data=[68, 40]),
   midi.NoteOnEvent(tick=90, channel=0, data=[68, 0]),
   midi.NoteOnEvent(tick=30, channel=0, data=[68, 48]),
   midi.NoteOnEvent(tick=120, channel=0, data=[68, 0]),
   midi.NoteOnEvent(tick=0, channel=0, data=[72, 40]),
   midi.NoteOnEvent(tick=120, channel=0, data=[72, 0]),
   midi.NoteOnEvent(tick=0, channel=0, data=[68, 48]),
   midi.NoteOnEvent(tick=120, channel=0, data=[68, 0]),
   midi.NoteOnEvent(tick=0, channel=0, data=[63, 40]),
   midi.NoteOnEvent(tick=120, channel=0, data=[63, 0]),
   midi.NoteOnEvent(tick=0, channel=0, data=[68, 48]),
   midi.NoteOnEvent(tick=240, channel=0, data=[68, 0]),
   midi.NoteOnEvent(tick=240, channel=0, data=[73, 48]),
   midi.NoteOnEvent(tick=120, channel=0, data=[73, 0]),
   midi.NoteOnEvent(tick=0, channel=0, data=[77, 40]),
   midi.NoteOnEvent(tick=120, channel=0, data=[77, 0]),
   midi.NoteOnEvent(tick=0, channel=0, data=[73, 48]),
   midi.NoteOnEvent(tick=120, channel=0, data=[73, 0]),
   midi.NoteOnEvent(tick=0, channel=0, data=[68, 40]),
   midi.NoteOnEvent(tick=90, channel=0, data=[68, 0]),
   midi.NoteOnEvent(tick=30, channel=0, data=[68, 48]),
   midi.NoteOnEvent(tick=120, channel=0, data=[68, 0]),
   midi.NoteOnEvent(tick=0, channel=0, data=[73, 40]),
   midi.NoteOnEvent(tick=120, channel=0, data=[73, 0]),
   midi.NoteOnEvent(tick=0, channel=0, data=[68, 48]),
   midi.NoteOnEvent(tick=120, channel=0, data=[68, 0]),
   midi.NoteOnEvent(tick=0, channel=0, data=[65, 40]),
   midi.NoteOnEvent(tick=120, channel=0, data=[65, 0]),
   midi.NoteOnEvent(tick=0, channel=0, data=[68, 48]),
   midi.NoteOnEvent(tick=240, channel=0, data=[68, 0]),
   midi.NoteOnEvent(tick=240, channel=0, data=[75, 48]),
   midi.NoteOnEvent(tick=120, channel=0, data=[75, 0]),
   midi.NoteOnEvent(tick=0, channel=0, data=[79, 40]),
   midi.NoteOnEvent(tick=120, channel=0, data=[79, 0]),
   midi.NoteOnEvent(tick=0, channel=0, data=[75, 48]),
   midi.NoteOnEvent(tick=120, channel=0, data=[75, 0]),
   midi.NoteOnEvent(tick=0, channel=0, data=[70, 40]),
   midi.NoteOnEvent(tick=90, channel=0, data=[70, 0]),
   midi.NoteOnEvent(tick=30, channel=0, data=[70, 48]),
   midi.NoteOnEvent(tick=120, channel=0, data=[70, 0]),
   midi.NoteOnEvent(tick=0, channel=0, data=[75, 40]),
   midi.NoteOnEvent(tick=120, channel=0, data=[75, 0]),
   midi.NoteOnEvent(tick=0, channel=0, data=[70, 48]),
   midi.NoteOnEvent(tick=120, channel=0, data=[70, 0]),
   midi.NoteOnEvent(tick=0, channel=0, data=[67, 40]),
   midi.NoteOnEvent(tick=120, channel=0, data=[67, 0]),
   midi.NoteOnEvent(tick=0, channel=0, data=[70, 48]),
   midi.NoteOnEvent(tick=240, channel=0, data=[70, 0]),
   midi.NoteOnEvent(tick=240, channel=0, data=[75, 48]),
   midi.NoteOnEvent(tick=120, channel=0, data=[75, 0]),
   midi.NoteOnEvent(tick=0, channel=0, data=[80, 40]),
   midi.NoteOnEvent(tick=120, channel=0, data=[80, 0]),
   midi.NoteOnEvent(tick=0, channel=0, data=[75, 48]),
   midi.NoteOnEvent(tick=120, channel=0, data=[75, 0]),
   midi.NoteOnEvent(tick=0, channel=0, data=[72, 40]),
   midi.NoteOnEvent(tick=90, channel=0, data=[72, 0]),
   midi.NoteOnEvent(tick=30, channel=0, data=[72, 48]),
   midi.NoteOnEvent(tick=120, channel=0, data=[72, 0]),
   midi.NoteOnEvent(tick=0, channel=0, data=[75, 40]),
   midi.NoteOnEvent(tick=120, channel=0, data=[75, 0]),
   midi.NoteOnEvent(tick=0, channel=0, data=[72, 48]),
   midi.NoteOnEvent(tick=120, channel=0, data=[72, 0]),
   midi.NoteOnEvent(tick=0, channel=0, data=[68, 40]),
   midi.NoteOnEvent(tick=120, channel=0, data=[68, 0]),
   midi.NoteOnEvent(tick=0, channel=0, data=[72, 48]),
   midi.NoteOnEvent(tick=240, channel=0, data=[72, 0]),
   midi.NoteOnEvent(tick=240, channel=0, data=[84, 68]),
   midi.NoteOnEvent(tick=120, channel=0, data=[84, 0]),
   midi.NoteOnEvent(tick=0, channel=0, data=[87, 57]),
   midi.NoteOnEvent(tick=120, channel=0, data=[87, 0]),
   midi.NoteOnEvent(tick=0, channel=0, data=[84, 68]),
   midi.NoteOnEvent(tick=120, channel=0, data=[84, 0]),
   midi.NoteOnEvent(tick=0, channel=0, data=[80, 57]),
   midi.NoteOnEvent(tick=90, channel=0, data=[80, 0]),
   midi.NoteOnEvent(tick=30, channel=0, data=[80, 68]),
   midi.NoteOnEvent(tick=120, channel=0, data=[80, 0]),
   midi.NoteOnEvent(tick=0, channel=0, data=[84, 57]),
   midi.NoteOnEvent(tick=120, channel=0, data=[84, 0]),
   midi.NoteOnEvent(tick=0, channel=0, data=[80, 68]),
   midi.NoteOnEvent(tick=120, channel=0, data=[80, 0]),
   midi.NoteOnEvent(tick=0, channel=0, data=[75, 57]),
   midi.NoteOnEvent(tick=120, channel=0, data=[75, 0]),
   midi.NoteOnEvent(tick=0, channel=0, data=[80, 68]),
   midi.NoteOnEvent(tick=240, channel=0, data=[80, 0]),
   midi.NoteOnEvent(tick=240, channel=0, data=[85, 68]),
   midi.NoteOnEvent(tick=120, channel=0, data=[85, 0]),
   midi.NoteOnEvent(tick=0, channel=0, data=[89, 57]),
   midi.NoteOnEvent(tick=120, channel=0, data=[89, 0]),
   midi.NoteOnEvent(tick=0, channel=0, data=[85, 68]),
   midi.NoteOnEvent(tick=120, channel=0, data=[85, 0]),
   midi.NoteOnEvent(tick=0, channel=0, data=[80, 57]),
   midi.NoteOnEvent(tick=90, channel=0, data=[80, 0]),
   midi.NoteOnEvent(tick=30, channel=0, data=[80, 68]),
   midi.NoteOnEvent(tick=120, channel=0, data=[80, 0]),
   midi.NoteOnEvent(tick=0, channel=0, data=[85, 57]),
   midi.NoteOnEvent(tick=120, channel=0, data=[85, 0]),
   midi.NoteOnEvent(tick=0, channel=0, data=[80, 68]),
   midi.NoteOnEvent(tick=120, channel=0, data=[80, 0]),
   midi.NoteOnEvent(tick=0, channel=0, data=[77, 57]),
   midi.NoteOnEvent(tick=120, channel=0, data=[77, 0]),
   midi.NoteOnEvent(tick=0, channel=0, data=[80, 68]),
   midi.NoteOnEvent(tick=240, channel=0, data=[80, 0]),
   midi.NoteOnEvent(tick=240, channel=0, data=[87, 68]),
   midi.NoteOnEvent(tick=120, channel=0, data=[87, 0]),
   midi.NoteOnEvent(tick=0, channel=0, data=[91, 57]),
   midi.NoteOnEvent(tick=120, channel=0, data=[91, 0]),
   midi.NoteOnEvent(tick=0, channel=0, data=[87, 68]),
   midi.NoteOnEvent(tick=120, channel=0, data=[87, 0]),
   midi.NoteOnEvent(tick=0, channel=0, data=[82, 57]),
   midi.NoteOnEvent(tick=90, channel=0, data=[82, 0]),
   midi.NoteOnEvent(tick=30, channel=0, data=[82, 68]),
   midi.NoteOnEvent(tick=120, channel=0, data=[82, 0]),
   midi.NoteOnEvent(tick=0, channel=0, data=[87, 57]),
   midi.NoteOnEvent(tick=120, channel=0, data=[87, 0]),
   midi.NoteOnEvent(tick=0, channel=0, data=[82, 68]),
   midi.NoteOnEvent(tick=120, channel=0, data=[82, 0]),
   midi.NoteOnEvent(tick=0, channel=0, data=[79, 57]),
   midi.NoteOnEvent(tick=120, channel=0, data=[79, 0]),
   midi.NoteOnEvent(tick=0, channel=0, data=[82, 68]),
   midi.NoteOnEvent(tick=240, channel=0, data=[82, 0]),
   midi.NoteOnEvent(tick=240, channel=0, data=[87, 80]),
   midi.NoteOnEvent(tick=120, channel=0, data=[87, 0]),
   midi.NoteOnEvent(tick=0, channel=0, data=[92, 68]),
   midi.NoteOnEvent(tick=120, channel=0, data=[92, 0]),
   midi.NoteOnEvent(tick=0, channel=0, data=[87, 80]),
   midi.NoteOnEvent(tick=120, channel=0, data=[87, 0]),
   midi.NoteOnEvent(tick=0, channel=0, data=[84, 68]),
   midi.NoteOnEvent(tick=90, channel=0, data=[84, 0]),
   midi.NoteOnEvent(tick=30, channel=0, data=[84, 80]),
   midi.NoteOnEvent(tick=120, channel=0, data=[84, 0]),
   midi.NoteOnEvent(tick=0, channel=0, data=[87, 68]),
   midi.NoteOnEvent(tick=120, channel=0, data=[87, 0]),
   midi.NoteOnEvent(tick=0, channel=0, data=[84, 80]),
   midi.NoteOnEvent(tick=120, channel=0, data=[84, 0]),
   midi.NoteOnEvent(tick=0, channel=0, data=[80, 68]),
   midi.NoteOnEvent(tick=120, channel=0, data=[80, 0]),
   midi.NoteOnEvent(tick=0, channel=0, data=[84, 80]),
   midi.NoteOnEvent(tick=240, channel=0, data=[84, 0]),
   midi.NoteOnEvent(tick=240, channel=0, data=[87, 84]),
   midi.NoteOnEvent(tick=120, channel=0, data=[87, 0]),
   midi.NoteOnEvent(tick=0, channel=0, data=[91, 71]),
   midi.NoteOnEvent(tick=120, channel=0, data=[91, 0]),
   midi.NoteOnEvent(tick=0, channel=0, data=[87, 84]),
   midi.NoteOnEvent(tick=120, channel=0, data=[87, 0]),
   midi.NoteOnEvent(tick=0, channel=0, data=[82, 71]),
   midi.NoteOnEvent(tick=90, channel=0, data=[82, 0]),
   midi.NoteOnEvent(tick=30, channel=0, data=[82, 84]),
   midi.NoteOnEvent(tick=120, channel=0, data=[82, 0]),
   midi.NoteOnEvent(tick=0, channel=0, data=[87, 71]),
   midi.NoteOnEvent(tick=120, channel=0, data=[87, 0]),
   midi.NoteOnEvent(tick=0, channel=0, data=[82, 84]),
   midi.NoteOnEvent(tick=120, channel=0, data=[82, 0]),
   midi.NoteOnEvent(tick=0, channel=0, data=[79, 71]),
   midi.NoteOnEvent(tick=120, channel=0, data=[79, 0]),
   midi.NoteOnEvent(tick=0, channel=0, data=[82, 84]),
   midi.NoteOnEvent(tick=240, channel=0, data=[82, 0]),
   midi.NoteOnEvent(tick=240, channel=0, data=[87, 90]),
   midi.NoteOnEvent(tick=120, channel=0, data=[87, 0]),
   midi.NoteOnEvent(tick=0, channel=0, data=[92, 76]),
   midi.NoteOnEvent(tick=120, channel=0, data=[92, 0]),
   midi.NoteOnEvent(tick=0, channel=0, data=[87, 90]),
   midi.NoteOnEvent(tick=120, channel=0, data=[87, 0]),
   midi.NoteOnEvent(tick=0, channel=0, data=[84, 76]),
   midi.NoteOnEvent(tick=90, channel=0, data=[84, 0]),
   midi.NoteOnEvent(tick=30, channel=0, data=[84, 90]),
   midi.NoteOnEvent(tick=120, channel=0, data=[84, 0]),
   midi.NoteOnEvent(tick=0, channel=0, data=[87, 76]),
   midi.NoteOnEvent(tick=120, channel=0, data=[87, 0]),
   midi.NoteOnEvent(tick=0, channel=0, data=[84, 90]),
   midi.NoteOnEvent(tick=120, channel=0, data=[84, 0]),
   midi.NoteOnEvent(tick=0, channel=0, data=[80, 76]),
   midi.NoteOnEvent(tick=120, channel=0, data=[80, 0]),
   midi.NoteOnEvent(tick=0, channel=0, data=[84, 90]),
   midi.NoteOnEvent(tick=240, channel=0, data=[84, 0]),
   midi.NoteOnEvent(tick=240, channel=0, data=[87, 96]),
   midi.NoteOnEvent(tick=120, channel=0, data=[87, 0]),
   midi.NoteOnEvent(tick=0, channel=0, data=[91, 81]),
   midi.NoteOnEvent(tick=120, channel=0, data=[91, 0]),
   midi.NoteOnEvent(tick=0, channel=0, data=[87, 96]),
   midi.NoteOnEvent(tick=120, channel=0, data=[87, 0]),
   midi.NoteOnEvent(tick=0, channel=0, data=[82, 81]),
   midi.NoteOnEvent(tick=90, channel=0, data=[82, 0]),
   midi.NoteOnEvent(tick=30, channel=0, data=[82, 96]),
   midi.NoteOnEvent(tick=120, channel=0, data=[82, 0]),
   midi.NoteOnEvent(tick=0, channel=0, data=[87, 81]),
   midi.NoteOnEvent(tick=120, channel=0, data=[87, 0]),
   midi.NoteOnEvent(tick=0, channel=0, data=[82, 96]),
   midi.NoteOnEvent(tick=120, channel=0, data=[82, 0]),
   midi.NoteOnEvent(tick=0, channel=0, data=[79, 81]),
   midi.NoteOnEvent(tick=120, channel=0, data=[79, 0]),
   midi.NoteOnEvent(tick=0, channel=0, data=[82, 96]),
   midi.NoteOnEvent(tick=240, channel=0, data=[82, 0]),
   midi.NoteOnEvent(tick=240, channel=0, data=[87, 96]),
   midi.NoteOnEvent(tick=120, channel=0, data=[87, 0]),
   midi.NoteOnEvent(tick=0, channel=0, data=[92, 81]),
   midi.NoteOnEvent(tick=120, channel=0, data=[92, 0]),
   midi.NoteOnEvent(tick=0, channel=0, data=[87, 96]),
   midi.NoteOnEvent(tick=120, channel=0, data=[87, 0]),
   midi.NoteOnEvent(tick=0, channel=0, data=[84, 81]),
   midi.NoteOnEvent(tick=90, channel=0, data=[84, 0]),
   midi.NoteOnEvent(tick=30, channel=0, data=[84, 96]),
   midi.NoteOnEvent(tick=120, channel=0, data=[84, 0]),
   midi.NoteOnEvent(tick=0, channel=0, data=[87, 81]),
   midi.NoteOnEvent(tick=120, channel=0, data=[87, 0]),
   midi.NoteOnEvent(tick=0, channel=0, data=[84, 96]),
   midi.NoteOnEvent(tick=120, channel=0, data=[84, 0]),
   midi.NoteOnEvent(tick=0, channel=0, data=[80, 81]),
   midi.NoteOnEvent(tick=90, channel=0, data=[80, 0]),
   midi.NoteOnEvent(tick=30, channel=0, data=[80, 96]),
   midi.NoteOnEvent(tick=120, channel=0, data=[80, 0]),
   midi.NoteOnEvent(tick=0, channel=0, data=[84, 81]),
   midi.NoteOnEvent(tick=120, channel=0, data=[84, 0]),
   midi.NoteOnEvent(tick=0, channel=0, data=[80, 96]),
   midi.NoteOnEvent(tick=120, channel=0, data=[80, 0]),
   midi.NoteOnEvent(tick=0, channel=0, data=[75, 81]),
   midi.NoteOnEvent(tick=90, channel=0, data=[75, 0]),
   midi.NoteOnEvent(tick=30, channel=0, data=[75, 96]),
   midi.NoteOnEvent(tick=120, channel=0, data=[75, 0]),
   midi.NoteOnEvent(tick=0, channel=0, data=[80, 81]),
   midi.NoteOnEvent(tick=120, channel=0, data=[80, 0]),
   midi.NoteOnEvent(tick=0, channel=0, data=[75, 96]),
   midi.NoteOnEvent(tick=120, channel=0, data=[75, 0]),
   midi.NoteOnEvent(tick=0, channel=0, data=[72, 81]),
   midi.NoteOnEvent(tick=90, channel=0, data=[72, 0]),
   midi.NoteOnEvent(tick=30, channel=0, data=[72, 96]),
   midi.NoteOnEvent(tick=120, channel=0, data=[72, 0]),
   midi.NoteOnEvent(tick=0, channel=0, data=[75, 81]),
   midi.NoteOnEvent(tick=120, channel=0, data=[75, 0]),
   midi.NoteOnEvent(tick=0, channel=0, data=[72, 96]),
   midi.NoteOnEvent(tick=120, channel=0, data=[72, 0]),
   midi.NoteOnEvent(tick=0, channel=0, data=[68, 81]),
   midi.NoteOnEvent(tick=90, channel=0, data=[68, 0]),
   midi.NoteOnEvent(tick=30, channel=0, data=[68, 96]),
   midi.NoteOnEvent(tick=120, channel=0, data=[68, 0]),
   midi.NoteOnEvent(tick=0, channel=0, data=[72, 81]),
   midi.NoteOnEvent(tick=120, channel=0, data=[72, 0]),
   midi.NoteOnEvent(tick=0, channel=0, data=[68, 96]),
   midi.NoteOnEvent(tick=120, channel=0, data=[68, 0]),
   midi.NoteOnEvent(tick=0, channel=0, data=[63, 80]),
   midi.NoteOnEvent(tick=120, channel=0, data=[63, 0]),
   midi.NoteOnEvent(tick=0, channel=0, data=[75, 95]),
   midi.NoteOnEvent(tick=120, channel=0, data=[75, 0]),
   midi.NoteOnEvent(tick=0, channel=0, data=[80, 79]),
   midi.NoteOnEvent(tick=120, channel=0, data=[80, 0]),
   midi.NoteOnEvent(tick=0, channel=0, data=[75, 93]),
   midi.NoteOnEvent(tick=120, channel=0, data=[75, 0]),
   midi.NoteOnEvent(tick=0, channel=0, data=[72, 77]),
   midi.NoteOnEvent(tick=90, channel=0, data=[72, 0]),
   midi.NoteOnEvent(tick=30, channel=0, data=[72, 91]),
   midi.NoteOnEvent(tick=120, channel=0, data=[72, 0]),
   midi.NoteOnEvent(tick=0, channel=0, data=[75, 76]),
   midi.NoteOnEvent(tick=120, channel=0, data=[75, 0]),
   midi.NoteOnEvent(tick=0, channel=0, data=[72, 89]),
   midi.NoteOnEvent(tick=120, channel=0, data=[72, 0]),
   midi.NoteOnEvent(tick=0, channel=0, data=[68, 75]),
   midi.NoteOnEvent(tick=90, channel=0, data=[68, 0]),
   midi.NoteOnEvent(tick=30, channel=0, data=[68, 87]),
   midi.NoteOnEvent(tick=120, channel=0, data=[68, 0]),
   midi.NoteOnEvent(tick=0, channel=0, data=[72, 73]),
   midi.NoteOnEvent(tick=120, channel=0, data=[72, 0]),
   midi.NoteOnEvent(tick=0, channel=0, data=[68, 85]),
   midi.NoteOnEvent(tick=120, channel=0, data=[68, 0]),
   midi.NoteOnEvent(tick=0, channel=0, data=[63, 71]),
   midi.NoteOnEvent(tick=90, channel=0, data=[63, 0]),
   midi.NoteOnEvent(tick=30, channel=0, data=[63, 83]),
   midi.NoteOnEvent(tick=120, channel=0, data=[63, 0]),
   midi.NoteOnEvent(tick=0, channel=0, data=[68, 70]),
   midi.NoteOnEvent(tick=120, channel=0, data=[68, 0]),
   midi.NoteOnEvent(tick=0, channel=0, data=[63, 79]),
   midi.NoteOnEvent(tick=120, channel=0, data=[63, 0]),
   midi.NoteOnEvent(tick=0, channel=0, data=[60, 68]),
   midi.NoteOnEvent(tick=90, channel=0, data=[60, 0]),
   midi.NoteOnEvent(tick=30, channel=0, data=[60, 77]),
   midi.NoteOnEvent(tick=120, channel=0, data=[60, 0]),
   midi.NoteOnEvent(tick=0, channel=0, data=[63, 66]),
   midi.NoteOnEvent(tick=120, channel=0, data=[63, 0]),
   midi.NoteOnEvent(tick=0, channel=0, data=[60, 75]),
   midi.NoteOnEvent(tick=120, channel=0, data=[60, 0]),
   midi.NoteOnEvent(tick=0, channel=0, data=[56, 62]),
   midi.NoteOnEvent(tick=120, channel=0, data=[56, 0]),
   midi.NoteOnEvent(tick=0, channel=0, data=[63, 70]),
   midi.NoteOnEvent(tick=120, channel=0, data=[63, 0]),
   midi.NoteOnEvent(tick=0, channel=0, data=[68, 57]),
   midi.NoteOnEvent(tick=120, channel=0, data=[68, 0]),
   midi.NoteOnEvent(tick=0, channel=0, data=[63, 65]),
   midi.NoteOnEvent(tick=120, channel=0, data=[63, 0]),
   midi.NoteOnEvent(tick=0, channel=0, data=[60, 53]),
   midi.NoteOnEvent(tick=120, channel=0, data=[60, 0]),
   midi.NoteOnEvent(tick=0, channel=0, data=[56, 60]),
   midi.NoteOnEvent(tick=120, channel=0, data=[56, 0]),
   midi.NoteOnEvent(tick=0, channel=0, data=[60, 51]),
   midi.NoteOnEvent(tick=120, channel=0, data=[60, 0]),
   midi.NoteOnEvent(tick=0, channel=0, data=[56, 60]),
   midi.NoteOnEvent(tick=120, channel=0, data=[56, 0]),
   midi.NoteOnEvent(tick=0, channel=0, data=[51, 51]),
   midi.NoteOnEvent(tick=120, channel=0, data=[51, 0]),
   midi.NoteOnEvent(tick=0, channel=0, data=[56, 60]),
   midi.NoteOnEvent(tick=120, channel=0, data=[56, 0]),
   midi.NoteOnEvent(tick=0, channel=0, data=[60, 51]),
   midi.NoteOnEvent(tick=120, channel=0, data=[60, 0]),
   midi.NoteOnEvent(tick=0, channel=0, data=[56, 60]),
   midi.NoteOnEvent(tick=120, channel=0, data=[56, 0]),
   midi.NoteOnEvent(tick=0, channel=0, data=[51, 51]),
   midi.NoteOnEvent(tick=120, channel=0, data=[51, 0]),
   midi.NoteOnEvent(tick=0, channel=0, data=[56, 60]),
   midi.NoteOnEvent(tick=120, channel=0, data=[56, 0]),
   midi.NoteOnEvent(tick=0, channel=0, data=[60, 51]),
   midi.NoteOnEvent(tick=120, channel=0, data=[60, 0]),
   midi.NoteOnEvent(tick=0, channel=0, data=[56, 60]),
   midi.NoteOnEvent(tick=120, channel=0, data=[56, 0]),
   midi.NoteOnEvent(tick=0, channel=0, data=[51, 51]),
   midi.NoteOnEvent(tick=120, channel=0, data=[51, 0]),
   midi.NoteOnEvent(tick=0, channel=0, data=[56, 60]),
   midi.NoteOnEvent(tick=120, channel=0, data=[56, 0]),
   midi.NoteOnEvent(tick=0, channel=0, data=[60, 51]),
   midi.NoteOnEvent(tick=120, channel=0, data=[60, 0]),
   midi.NoteOnEvent(tick=0, channel=0, data=[56, 60]),
   midi.NoteOnEvent(tick=120, channel=0, data=[56, 0]),
   midi.NoteOnEvent(tick=0, channel=0, data=[51, 51]),
   midi.NoteOnEvent(tick=120, channel=0, data=[51, 0]),
   midi.NoteOnEvent(tick=0, channel=0, data=[56, 60]),
   midi.NoteOnEvent(tick=120, channel=0, data=[56, 0]),
   midi.NoteOnEvent(tick=0, channel=0, data=[60, 51]),
   midi.NoteOnEvent(tick=120, channel=0, data=[60, 0]),
   midi.NoteOnEvent(tick=0, channel=0, data=[56, 60]),
   midi.NoteOnEvent(tick=120, channel=0, data=[56, 0]),
   midi.NoteOnEvent(tick=0, channel=0, data=[51, 51]),
   midi.NoteOnEvent(tick=120, channel=0, data=[51, 0]),
   midi.NoteOnEvent(tick=0, channel=0, data=[56, 60]),
   midi.NoteOnEvent(tick=120, channel=0, data=[56, 0]),
   midi.NoteOnEvent(tick=0, channel=0, data=[60, 51]),
   midi.NoteOnEvent(tick=120, channel=0, data=[60, 0]),
   midi.NoteOnEvent(tick=0, channel=0, data=[56, 60]),
   midi.NoteOnEvent(tick=120, channel=0, data=[56, 0]),
   midi.NoteOnEvent(tick=0, channel=0, data=[51, 51]),
   midi.NoteOnEvent(tick=120, channel=0, data=[51, 0]),
   midi.NoteOnEvent(tick=0, channel=0, data=[68, 60]),
   midi.NoteOnEvent(tick=0, channel=0, data=[63, 60]),
   midi.NoteOnEvent(tick=120, channel=0, data=[63, 0]),
   midi.NoteOnEvent(tick=0, channel=0, data=[66, 51]),
   midi.NoteOnEvent(tick=120, channel=0, data=[66, 0]),
   midi.NoteOnEvent(tick=0, channel=0, data=[63, 59]),
   midi.NoteOnEvent(tick=120, channel=0, data=[63, 0]),
   midi.NoteOnEvent(tick=0, channel=0, data=[56, 49]),
   midi.NoteOnEvent(tick=120, channel=0, data=[56, 0]),
   midi.NoteOnEvent(tick=0, channel=0, data=[63, 57]),
   midi.NoteOnEvent(tick=120, channel=0, data=[63, 0]),
   midi.NoteOnEvent(tick=0, channel=0, data=[66, 47]),
   midi.NoteOnEvent(tick=120, channel=0, data=[66, 0]),
   midi.NoteOnEvent(tick=0, channel=0, data=[63, 55]),
   midi.NoteOnEvent(tick=120, channel=0, data=[63, 0]),
   midi.NoteOnEvent(tick=0, channel=0, data=[56, 46]),
   midi.NoteOnEvent(tick=120, channel=0, data=[56, 0]),
   midi.NoteOnEvent(tick=0, channel=0, data=[63, 54]),
   midi.NoteOnEvent(tick=120, channel=0, data=[63, 0]),
   midi.NoteOnEvent(tick=0, channel=0, data=[66, 45]),
   midi.NoteOnEvent(tick=120, channel=0, data=[66, 0]),
   midi.NoteOnEvent(tick=0, channel=0, data=[63, 52]),
   midi.NoteOnEvent(tick=120, channel=0, data=[63, 0]),
   midi.NoteOnEvent(tick=0, channel=0, data=[56, 43]),
   midi.NoteOnEvent(tick=120, channel=0, data=[56, 0]),
   midi.NoteOnEvent(tick=0, channel=0, data=[63, 50]),
   midi.NoteOnEvent(tick=120, channel=0, data=[63, 0]),
   midi.NoteOnEvent(tick=0, channel=0, data=[66, 42]),
   midi.NoteOnEvent(tick=120, channel=0, data=[66, 0]),
   midi.NoteOnEvent(tick=0, channel=0, data=[63, 49]),
   midi.NoteOnEvent(tick=120, channel=0, data=[63, 0]),
   midi.NoteOnEvent(tick=0, channel=0, data=[56, 40]),
   midi.NoteOnEvent(tick=120, channel=0, data=[56, 0]),
   midi.NoteOnEvent(tick=0, channel=0, data=[63, 47]),
   midi.NoteOnEvent(tick=120, channel=0, data=[63, 0]),
   midi.NoteOnEvent(tick=0, channel=0, data=[66, 39]),
   midi.NoteOnEvent(tick=120, channel=0, data=[66, 0]),
   midi.NoteOnEvent(tick=0, channel=0, data=[63, 45]),
   midi.NoteOnEvent(tick=120, channel=0, data=[63, 0]),
   midi.NoteOnEvent(tick=0, channel=0, data=[56, 38]),
   midi.NoteOnEvent(tick=120, channel=0, data=[56, 0]),
   midi.NoteOnEvent(tick=0, channel=0, data=[63, 44]),
   midi.NoteOnEvent(tick=120, channel=0, data=[63, 0]),
   midi.NoteOnEvent(tick=0, channel=0, data=[66, 36]),
   midi.NoteOnEvent(tick=120, channel=0, data=[66, 0]),
   midi.NoteOnEvent(tick=0, channel=0, data=[63, 42]),
   midi.NoteOnEvent(tick=120, channel=0, data=[63, 0]),
   midi.NoteOnEvent(tick=0, channel=0, data=[56, 34]),
   midi.NoteOnEvent(tick=120, channel=0, data=[56, 0]),
   midi.NoteOnEvent(tick=0, channel=0, data=[68, 0]),
   midi.NoteOnEvent(tick=0, channel=0, data=[68, 61]),
   midi.NoteOnEvent(tick=224, channel=0, data=[56, 27]),
   midi.NoteOnEvent(tick=0, channel=0, data=[64, 27]),
   midi.NoteOnEvent(tick=228, channel=0, data=[64, 0]),
   midi.NoteOnEvent(tick=0, channel=0, data=[56, 0]),
   midi.NoteOnEvent(tick=12, channel=0, data=[56, 26]),
   midi.NoteOnEvent(tick=0, channel=0, data=[64, 26]),
   midi.NoteOnEvent(tick=228, channel=0, data=[64, 0]),
   midi.NoteOnEvent(tick=0, channel=0, data=[56, 0]),
   midi.NoteOnEvent(tick=12, channel=0, data=[56, 26]),
   midi.NoteOnEvent(tick=0, channel=0, data=[64, 26]),
   midi.NoteOnEvent(tick=228, channel=0, data=[64, 0]),
   midi.NoteOnEvent(tick=0, channel=0, data=[56, 0]),
   midi.NoteOnEvent(tick=12, channel=0, data=[56, 26]),
   midi.NoteOnEvent(tick=0, channel=0, data=[64, 26]),
   midi.NoteOnEvent(tick=228, channel=0, data=[64, 0]),
   midi.NoteOnEvent(tick=0, channel=0, data=[56, 0]),
   midi.NoteOnEvent(tick=12, channel=0, data=[56, 26]),
   midi.NoteOnEvent(tick=0, channel=0, data=[64, 26]),
   midi.NoteOnEvent(tick=228, channel=0, data=[64, 0]),
   midi.NoteOnEvent(tick=0, channel=0, data=[56, 0]),
   midi.NoteOnEvent(tick=12, channel=0, data=[68, 0]),
   midi.NoteOnEvent(tick=0, channel=0, data=[68, 61]),
   midi.NoteOnEvent(tick=240, channel=0, data=[56, 26]),
   midi.NoteOnEvent(tick=0, channel=0, data=[64, 26]),
   midi.NoteOnEvent(tick=228, channel=0, data=[56, 0]),
   midi.NoteOnEvent(tick=12, channel=0, data=[64, 0]),
   midi.NoteOnEvent(tick=0, channel=0, data=[68, 0]),
   midi.NoteOnEvent(tick=0, channel=0, data=[69, 59]),
   midi.NoteOnEvent(tick=240, channel=0, data=[57, 27]),
   midi.NoteOnEvent(tick=0, channel=0, data=[64, 27]),
   midi.NoteOnEvent(tick=228, channel=0, data=[57, 0]),
   midi.NoteOnEvent(tick=12, channel=0, data=[64, 0]),
   midi.NoteOnEvent(tick=0, channel=0, data=[69, 0]),
   midi.NoteOnEvent(tick=0, channel=0, data=[68, 59]),
   midi.NoteOnEvent(tick=240, channel=0, data=[56, 26]),
   midi.NoteOnEvent(tick=0, channel=0, data=[64, 26]),
   midi.NoteOnEvent(tick=228, channel=0, data=[56, 0]),
   midi.NoteOnEvent(tick=12, channel=0, data=[64, 0]),
   midi.NoteOnEvent(tick=0, channel=0, data=[68, 0]),
   midi.NoteOnEvent(tick=0, channel=0, data=[69, 60]),
   midi.NoteOnEvent(tick=240, channel=0, data=[57, 26]),
   midi.NoteOnEvent(tick=0, channel=0, data=[66, 26]),
   midi.NoteOnEvent(tick=228, channel=0, data=[66, 0]),
   midi.NoteOnEvent(tick=0, channel=0, data=[57, 0]),
   midi.NoteOnEvent(tick=12, channel=0, data=[57, 26]),
   midi.NoteOnEvent(tick=0, channel=0, data=[66, 26]),
   midi.NoteOnEvent(tick=228, channel=0, data=[66, 0]),
   midi.NoteOnEvent(tick=0, channel=0, data=[57, 0]),
   midi.NoteOnEvent(tick=12, channel=0, data=[57, 26]),
   midi.NoteOnEvent(tick=0, channel=0, data=[66, 26]),
   midi.NoteOnEvent(tick=228, channel=0, data=[66, 0]),
   midi.NoteOnEvent(tick=0, channel=0, data=[57, 0]),
   midi.NoteOnEvent(tick=12, channel=0, data=[57, 26]),
   midi.NoteOnEvent(tick=0, channel=0, data=[66, 26]),
   midi.NoteOnEvent(tick=228, channel=0, data=[66, 0]),
   midi.NoteOnEvent(tick=0, channel=0, data=[57, 0]),
   midi.NoteOnEvent(tick=12, channel=0, data=[57, 26]),
   midi.NoteOnEvent(tick=0, channel=0, data=[66, 26]),
   midi.NoteOnEvent(tick=228, channel=0, data=[66, 0]),
   midi.NoteOnEvent(tick=0, channel=0, data=[57, 0]),
   midi.NoteOnEvent(tick=12, channel=0, data=[69, 0]),
   midi.NoteOnEvent(tick=0, channel=0, data=[68, 59]),
   midi.NoteOnEvent(tick=240, channel=0, data=[56, 28]),
   midi.NoteOnEvent(tick=0, channel=0, data=[66, 28]),
   midi.NoteOnEvent(tick=228, channel=0, data=[66, 0]),
   midi.NoteOnEvent(tick=0, channel=0, data=[56, 0]),
   midi.NoteOnEvent(tick=12, channel=0, data=[56, 29]),
   midi.NoteOnEvent(tick=0, channel=0, data=[66, 29]),
   midi.NoteOnEvent(tick=228, channel=0, data=[66, 0]),
   midi.NoteOnEvent(tick=0, channel=0, data=[56, 0]),
   midi.NoteOnEvent(tick=12, channel=0, data=[56, 29]),
   midi.NoteOnEvent(tick=0, channel=0, data=[66, 29]),
   midi.NoteOnEvent(tick=228, channel=0, data=[66, 0]),
   midi.NoteOnEvent(tick=0, channel=0, data=[56, 0]),
   midi.NoteOnEvent(tick=12, channel=0, data=[56, 29]),
   midi.NoteOnEvent(tick=0, channel=0, data=[66, 29]),
   midi.NoteOnEvent(tick=228, channel=0, data=[66, 0]),
   midi.NoteOnEvent(tick=0, channel=0, data=[56, 0]),
   midi.NoteOnEvent(tick=12, channel=0, data=[56, 29]),
   midi.NoteOnEvent(tick=0, channel=0, data=[66, 29]),
   midi.NoteOnEvent(tick=228, channel=0, data=[66, 0]),
   midi.NoteOnEvent(tick=0, channel=0, data=[56, 0]),
   midi.NoteOnEvent(tick=12, channel=0, data=[68, 0]),
   midi.NoteOnEvent(tick=0, channel=0, data=[68, 60]),
   midi.NoteOnEvent(tick=240, channel=0, data=[56, 26]),
   midi.NoteOnEvent(tick=0, channel=0, data=[64, 26]),
   midi.NoteOnEvent(tick=228, channel=0, data=[64, 0]),
   midi.NoteOnEvent(tick=0, channel=0, data=[56, 0]),
   midi.NoteOnEvent(tick=12, channel=0, data=[56, 26]),
   midi.NoteOnEvent(tick=0, channel=0, data=[64, 26]),
   midi.NoteOnEvent(tick=228, channel=0, data=[64, 0]),
   midi.NoteOnEvent(tick=0, channel=0, data=[56, 0]),
   midi.NoteOnEvent(tick=12, channel=0, data=[56, 26]),
   midi.NoteOnEvent(tick=0, channel=0, data=[64, 26]),
   midi.NoteOnEvent(tick=228, channel=0, data=[64, 0]),
   midi.NoteOnEvent(tick=0, channel=0, data=[56, 0]),
   midi.NoteOnEvent(tick=12, channel=0, data=[56, 26]),
   midi.NoteOnEvent(tick=0, channel=0, data=[64, 26]),
   midi.NoteOnEvent(tick=228, channel=0, data=[64, 0]),
   midi.NoteOnEvent(tick=0, channel=0, data=[56, 0]),
   midi.NoteOnEvent(tick=12, channel=0, data=[56, 27]),
   midi.NoteOnEvent(tick=0, channel=0, data=[64, 27]),
   midi.NoteOnEvent(tick=228, channel=0, data=[64, 0]),
   midi.NoteOnEvent(tick=0, channel=0, data=[56, 0]),
   midi.NoteOnEvent(tick=12, channel=0, data=[68, 0]),
   midi.NoteOnEvent(tick=0, channel=0, data=[76, 68]),
   midi.NoteOnEvent(tick=240, channel=0, data=[64, 28]),
   midi.NoteOnEvent(tick=0, channel=0, data=[68, 28]),
   midi.NoteOnEvent(tick=228, channel=0, data=[68, 0]),
   midi.NoteOnEvent(tick=0, channel=0, data=[64, 0]),
   midi.NoteOnEvent(tick=12, channel=0, data=[76, 0]),
   midi.NoteOnEvent(tick=0, channel=0, data=[75, 63]),
   midi.NoteOnEvent(tick=240, channel=0, data=[63, 27]),
   midi.NoteOnEvent(tick=0, channel=0, data=[68, 27]),
   midi.NoteOnEvent(tick=228, channel=0, data=[68, 0]),
   midi.NoteOnEvent(tick=0, channel=0, data=[63, 0]),
   midi.NoteOnEvent(tick=12, channel=0, data=[75, 0]),
   midi.NoteOnEvent(tick=0, channel=0, data=[73, 60]),
   midi.NoteOnEvent(tick=240, channel=0, data=[61, 27]),
   midi.NoteOnEvent(tick=0, channel=0, data=[68, 27]),
   midi.NoteOnEvent(tick=228, channel=0, data=[68, 0]),
   midi.NoteOnEvent(tick=0, channel=0, data=[61, 0]),
   midi.NoteOnEvent(tick=12, channel=0, data=[73, 0]),
   midi.NoteOnEvent(tick=0, channel=0, data=[73, 60]),
   midi.NoteOnEvent(tick=240, channel=0, data=[61, 27]),
   midi.NoteOnEvent(tick=0, channel=0, data=[68, 27]),
   midi.NoteOnEvent(tick=228, channel=0, data=[68, 0]),
   midi.NoteOnEvent(tick=0, channel=0, data=[61, 0]),
   midi.NoteOnEvent(tick=12, channel=0, data=[61, 27]),
   midi.NoteOnEvent(tick=0, channel=0, data=[68, 27]),
   midi.NoteOnEvent(tick=228, channel=0, data=[68, 0]),
   midi.NoteOnEvent(tick=0, channel=0, data=[61, 0]),
   midi.NoteOnEvent(tick=12, channel=0, data=[61, 27]),
   midi.NoteOnEvent(tick=0, channel=0, data=[68, 27]),
   midi.NoteOnEvent(tick=228, channel=0, data=[68, 0]),
   midi.NoteOnEvent(tick=0, channel=0, data=[61, 0]),
   midi.NoteOnEvent(tick=12, channel=0, data=[61, 27]),
   midi.NoteOnEvent(tick=0, channel=0, data=[68, 27]),
   midi.NoteOnEvent(tick=228, channel=0, data=[68, 0]),
   midi.NoteOnEvent(tick=0, channel=0, data=[61, 0]),
   midi.NoteOnEvent(tick=12, channel=0, data=[61, 27]),
   midi.NoteOnEvent(tick=0, channel=0, data=[68, 27]),
   midi.NoteOnEvent(tick=228, channel=0, data=[68, 0]),
   midi.NoteOnEvent(tick=0, channel=0, data=[61, 0]),
   midi.NoteOnEvent(tick=12, channel=0, data=[73, 0]),
   midi.NoteOnEvent(tick=0, channel=0, data=[72, 61]),
   midi.NoteOnEvent(tick=240, channel=0, data=[60, 27]),
   midi.NoteOnEvent(tick=0, channel=0, data=[68, 27]),
   midi.NoteOnEvent(tick=228, channel=0, data=[68, 0]),
   midi.NoteOnEvent(tick=0, channel=0, data=[60, 0]),
   midi.NoteOnEvent(tick=12, channel=0, data=[60, 27]),
   midi.NoteOnEvent(tick=0, channel=0, data=[68, 27]),
   midi.NoteOnEvent(tick=228, channel=0, data=[68, 0]),
   midi.NoteOnEvent(tick=0, channel=0, data=[60, 0]),
   midi.NoteOnEvent(tick=12, channel=0, data=[60, 27]),
   midi.NoteOnEvent(tick=0, channel=0, data=[68, 27]),
   midi.NoteOnEvent(tick=228, channel=0, data=[68, 0]),
   midi.NoteOnEvent(tick=0, channel=0, data=[60, 0]),
   midi.NoteOnEvent(tick=12, channel=0, data=[60, 27]),
   midi.NoteOnEvent(tick=0, channel=0, data=[68, 27]),
   midi.NoteOnEvent(tick=228, channel=0, data=[68, 0]),
   midi.NoteOnEvent(tick=0, channel=0, data=[60, 0]),
   midi.NoteOnEvent(tick=12, channel=0, data=[60, 27]),
   midi.NoteOnEvent(tick=0, channel=0, data=[68, 27]),
   midi.NoteOnEvent(tick=228, channel=0, data=[68, 0]),
   midi.NoteOnEvent(tick=0, channel=0, data=[60, 0]),
   midi.NoteOnEvent(tick=12, channel=0, data=[72, 0]),
   midi.NoteOnEvent(tick=0, channel=0, data=[72, 58]),
   midi.NoteOnEvent(tick=240, channel=0, data=[60, 35]),
   midi.NoteOnEvent(tick=0, channel=0, data=[69, 35]),
   midi.NoteOnEvent(tick=228, channel=0, data=[69, 0]),
   midi.NoteOnEvent(tick=0, channel=0, data=[60, 0]),
   midi.NoteOnEvent(tick=12, channel=0, data=[72, 0]),
   midi.NoteOnEvent(tick=0, channel=0, data=[73, 68]),
   midi.NoteOnEvent(tick=240, channel=0, data=[61, 35]),
   midi.NoteOnEvent(tick=0, channel=0, data=[69, 35]),
   midi.NoteOnEvent(tick=228, channel=0, data=[69, 0]),
   midi.NoteOnEvent(tick=0, channel=0, data=[61, 0]),
   midi.NoteOnEvent(tick=12, channel=0, data=[61, 35]),
   midi.NoteOnEvent(tick=0, channel=0, data=[69, 35]),
   midi.NoteOnEvent(tick=228, channel=0, data=[69, 0]),
   midi.NoteOnEvent(tick=0, channel=0, data=[61, 0]),
   midi.NoteOnEvent(tick=12, channel=0, data=[61, 35]),
   midi.NoteOnEvent(tick=0, channel=0, data=[69, 35]),
   midi.NoteOnEvent(tick=228, channel=0, data=[69, 0]),
   midi.NoteOnEvent(tick=0, channel=0, data=[61, 0]),
   midi.NoteOnEvent(tick=12, channel=0, data=[61, 35]),
   midi.NoteOnEvent(tick=0, channel=0, data=[69, 35]),
   midi.NoteOnEvent(tick=228, channel=0, data=[69, 0]),
   midi.NoteOnEvent(tick=0, channel=0, data=[61, 0]),
   midi.NoteOnEvent(tick=12, channel=0, data=[61, 35]),
   midi.NoteOnEvent(tick=0, channel=0, data=[69, 35]),
   midi.NoteOnEvent(tick=228, channel=0, data=[69, 0]),
   midi.NoteOnEvent(tick=0, channel=0, data=[61, 0]),
   midi.NoteOnEvent(tick=12, channel=0, data=[73, 0]),
   midi.NoteOnEvent(tick=0, channel=0, data=[73, 70]),
   midi.NoteOnEvent(tick=240, channel=0, data=[61, 35]),
   midi.NoteOnEvent(tick=0, channel=0, data=[69, 35]),
   midi.NoteOnEvent(tick=228, channel=0, data=[69, 0]),
   midi.NoteOnEvent(tick=0, channel=0, data=[61, 0]),
   midi.NoteOnEvent(tick=12, channel=0, data=[73, 0]),
   midi.NoteOnEvent(tick=0, channel=0, data=[73, 69]),
   midi.NoteOnEvent(tick=240, channel=0, data=[61, 35]),
   midi.NoteOnEvent(tick=0, channel=0, data=[69, 35]),
   midi.NoteOnEvent(tick=228, channel=0, data=[69, 0]),
   midi.NoteOnEvent(tick=0, channel=0, data=[61, 0]),
   midi.NoteOnEvent(tick=12, channel=0, data=[73, 0]),
   midi.NoteOnEvent(tick=0, channel=0, data=[73, 70]),
   midi.NoteOnEvent(tick=240, channel=0, data=[61, 44]),
   midi.NoteOnEvent(tick=0, channel=0, data=[68, 44]),
   midi.NoteOnEvent(tick=228, channel=0, data=[68, 0]),
   midi.NoteOnEvent(tick=0, channel=0, data=[61, 0]),
   midi.NoteOnEvent(tick=12, channel=0, data=[73, 0]),
   midi.NoteOnEvent(tick=0, channel=0, data=[74, 78]),
   midi.NoteOnEvent(tick=240, channel=0, data=[62, 44]),
   midi.NoteOnEvent(tick=0, channel=0, data=[68, 44]),
   midi.NoteOnEvent(tick=228, channel=0, data=[68, 0]),
   midi.NoteOnEvent(tick=0, channel=0, data=[62, 0]),
   midi.NoteOnEvent(tick=12, channel=0, data=[62, 44]),
   midi.NoteOnEvent(tick=0, channel=0, data=[68, 44]),
   midi.NoteOnEvent(tick=228, channel=0, data=[68, 0]),
   midi.NoteOnEvent(tick=0, channel=0, data=[62, 0]),
   midi.NoteOnEvent(tick=12, channel=0, data=[62, 44]),
   midi.NoteOnEvent(tick=0, channel=0, data=[68, 44]),
   midi.NoteOnEvent(tick=228, channel=0, data=[68, 0]),
   midi.NoteOnEvent(tick=0, channel=0, data=[62, 0]),
   midi.NoteOnEvent(tick=12, channel=0, data=[62, 44]),
   midi.NoteOnEvent(tick=0, channel=0, data=[68, 44]),
   midi.NoteOnEvent(tick=228, channel=0, data=[68, 0]),
   midi.NoteOnEvent(tick=0, channel=0, data=[62, 0]),
   midi.NoteOnEvent(tick=12, channel=0, data=[62, 44]),
   midi.NoteOnEvent(tick=0, channel=0, data=[68, 44]),
   midi.NoteOnEvent(tick=228, channel=0, data=[68, 0]),
   midi.NoteOnEvent(tick=0, channel=0, data=[62, 0]),
   midi.NoteOnEvent(tick=12, channel=0, data=[74, 0]),
   midi.NoteOnEvent(tick=0, channel=0, data=[74, 81]),
   midi.NoteOnEvent(tick=240, channel=0, data=[62, 44]),
   midi.NoteOnEvent(tick=0, channel=0, data=[68, 44]),
   midi.NoteOnEvent(tick=240, channel=0, data=[68, 0]),
   midi.NoteOnEvent(tick=0, channel=0, data=[62, 0]),
   midi.NoteOnEvent(tick=0, channel=0, data=[74, 0]),
   midi.NoteOnEvent(tick=0, channel=0, data=[74, 80]),
   midi.NoteOnEvent(tick=240, channel=0, data=[62, 44]),
   midi.NoteOnEvent(tick=0, channel=0, data=[68, 44]),
   midi.NoteOnEvent(tick=240, channel=0, data=[68, 0]),
   midi.NoteOnEvent(tick=0, channel=0, data=[62, 0]),
   midi.NoteOnEvent(tick=0, channel=0, data=[74, 0]),
   midi.NoteOnEvent(tick=0, channel=0, data=[76, 88]),
   midi.NoteOnEvent(tick=240, channel=0, data=[64, 51]),
   midi.NoteOnEvent(tick=0, channel=0, data=[68, 51]),
   midi.NoteOnEvent(tick=228, channel=0, data=[68, 0]),
   midi.NoteOnEvent(tick=0, channel=0, data=[64, 0]),
   midi.NoteOnEvent(tick=12, channel=0, data=[76, 0]),
   midi.NoteOnEvent(tick=0, channel=0, data=[75, 84]),
   midi.NoteOnEvent(tick=240, channel=0, data=[63, 51]),
   midi.NoteOnEvent(tick=0, channel=0, data=[68, 51]),
   midi.NoteOnEvent(tick=228, channel=0, data=[68, 0]),
   midi.NoteOnEvent(tick=0, channel=0, data=[63, 0]),
   midi.NoteOnEvent(tick=12, channel=0, data=[63, 44]),
   midi.NoteOnEvent(tick=0, channel=0, data=[68, 44]),
   midi.NoteOnEvent(tick=228, channel=0, data=[68, 0]),
   midi.NoteOnEvent(tick=0, channel=0, data=[63, 0]),
   midi.NoteOnEvent(tick=12, channel=0, data=[63, 51]),
   midi.NoteOnEvent(tick=0, channel=0, data=[68, 51]),
   midi.NoteOnEvent(tick=228, channel=0, data=[68, 0]),
   midi.NoteOnEvent(tick=0, channel=0, data=[63, 0]),
   midi.NoteOnEvent(tick=12, channel=0, data=[75, 0]),
   midi.NoteOnEvent(tick=0, channel=0, data=[76, 88]),
   midi.NoteOnEvent(tick=240, channel=0, data=[64, 52]),
   midi.NoteOnEvent(tick=0, channel=0, data=[67, 52]),
   midi.NoteOnEvent(tick=228, channel=0, data=[67, 0]),
   midi.NoteOnEvent(tick=0, channel=0, data=[64, 0]),
   midi.NoteOnEvent(tick=12, channel=0, data=[76, 0]),
   midi.NoteOnEvent(tick=0, channel=0, data=[75, 84]),
   midi.NoteOnEvent(tick=240, channel=0, data=[63, 52]),
   midi.NoteOnEvent(tick=0, channel=0, data=[67, 52]),
   midi.NoteOnEvent(tick=228, channel=0, data=[67, 0]),
   midi.NoteOnEvent(tick=0, channel=0, data=[63, 0]),
   midi.NoteOnEvent(tick=12, channel=0, data=[63, 52]),
   midi.NoteOnEvent(tick=0, channel=0, data=[67, 52]),
   midi.NoteOnEvent(tick=228, channel=0, data=[67, 0]),
   midi.NoteOnEvent(tick=0, channel=0, data=[63, 0]),
   midi.NoteOnEvent(tick=12, channel=0, data=[63, 52]),
   midi.NoteOnEvent(tick=0, channel=0, data=[67, 52]),
   midi.NoteOnEvent(tick=228, channel=0, data=[67, 0]),
   midi.NoteOnEvent(tick=0, channel=0, data=[63, 0]),
   midi.NoteOnEvent(tick=12, channel=0, data=[75, 0]),
   midi.NoteOnEvent(tick=0, channel=0, data=[68, 73]),
   midi.NoteOnEvent(tick=240, channel=0, data=[59, 26]),
   midi.NoteOnEvent(tick=0, channel=0, data=[63, 26]),
   midi.NoteOnEvent(tick=228, channel=0, data=[63, 0]),
   midi.NoteOnEvent(tick=0, channel=0, data=[59, 0]),
   midi.NoteOnEvent(tick=12, channel=0, data=[59, 26]),
   midi.NoteOnEvent(tick=0, channel=0, data=[63, 26]),
   midi.NoteOnEvent(tick=228, channel=0, data=[63, 0]),
   midi.NoteOnEvent(tick=0, channel=0, data=[59, 0]),
   midi.NoteOnEvent(tick=12, channel=0, data=[59, 26]),
   midi.NoteOnEvent(tick=0, channel=0, data=[63, 26]),
   midi.NoteOnEvent(tick=228, channel=0, data=[63, 0]),
   midi.NoteOnEvent(tick=0, channel=0, data=[59, 0]),
   midi.NoteOnEvent(tick=12, channel=0, data=[59, 26]),
   midi.NoteOnEvent(tick=0, channel=0, data=[63, 26]),
   midi.NoteOnEvent(tick=228, channel=0, data=[63, 0]),
   midi.NoteOnEvent(tick=0, channel=0, data=[59, 0]),
   midi.NoteOnEvent(tick=12, channel=0, data=[59, 26]),
   midi.NoteOnEvent(tick=0, channel=0, data=[63, 26]),
   midi.NoteOnEvent(tick=228, channel=0, data=[63, 0]),
   midi.NoteOnEvent(tick=0, channel=0, data=[59, 0]),
   midi.NoteOnEvent(tick=12, channel=0, data=[68, 0]),
   midi.NoteOnEvent(tick=0, channel=0, data=[68, 52]),
   midi.NoteOnEvent(tick=240, channel=0, data=[60, 24]),
   midi.NoteOnEvent(tick=0, channel=0, data=[66, 24]),
   midi.NoteOnEvent(tick=0, channel=0, data=[63, 24]),
   midi.NoteOnEvent(tick=228, channel=0, data=[63, 0]),
   midi.NoteOnEvent(tick=0, channel=0, data=[66, 0]),
   midi.NoteOnEvent(tick=0, channel=0, data=[60, 0]),
   midi.NoteOnEvent(tick=12, channel=0, data=[60, 28]),
   midi.NoteOnEvent(tick=0, channel=0, data=[63, 28]),
   midi.NoteOnEvent(tick=0, channel=0, data=[66, 28]),
   midi.NoteOnEvent(tick=228, channel=0, data=[66, 0]),
   midi.NoteOnEvent(tick=0, channel=0, data=[63, 0]),
   midi.NoteOnEvent(tick=0, channel=0, data=[60, 0]),
   midi.NoteOnEvent(tick=12, channel=0, data=[60, 35]),
   midi.NoteOnEvent(tick=0, channel=0, data=[63, 35]),
   midi.NoteOnEvent(tick=0, channel=0, data=[66, 35]),
   midi.NoteOnEvent(tick=228, channel=0, data=[66, 0]),
   midi.NoteOnEvent(tick=0, channel=0, data=[63, 0]),
   midi.NoteOnEvent(tick=0, channel=0, data=[60, 0]),
   midi.NoteOnEvent(tick=12, channel=0, data=[60, 30]),
   midi.NoteOnEvent(tick=0, channel=0, data=[63, 30]),
   midi.NoteOnEvent(tick=0, channel=0, data=[66, 30]),
   midi.NoteOnEvent(tick=228, channel=0, data=[66, 0]),
   midi.NoteOnEvent(tick=0, channel=0, data=[63, 0]),
   midi.NoteOnEvent(tick=0, channel=0, data=[60, 0]),
   midi.NoteOnEvent(tick=12, channel=0, data=[60, 26]),
   midi.NoteOnEvent(tick=0, channel=0, data=[63, 26]),
   midi.NoteOnEvent(tick=0, channel=0, data=[66, 26]),
   midi.NoteOnEvent(tick=228, channel=0, data=[66, 0]),
   midi.NoteOnEvent(tick=0, channel=0, data=[63, 0]),
   midi.NoteOnEvent(tick=0, channel=0, data=[60, 0]),
   midi.NoteOnEvent(tick=12, channel=0, data=[68, 0]),
   midi.NoteOnEvent(tick=0, channel=0, data=[68, 61]),
   midi.NoteOnEvent(tick=224, channel=0, data=[56, 27]),
   midi.NoteOnEvent(tick=0, channel=0, data=[64, 27]),
   midi.NoteOnEvent(tick=228, channel=0, data=[64, 0]),
   midi.NoteOnEvent(tick=0, channel=0, data=[56, 0]),
   midi.NoteOnEvent(tick=12, channel=0, data=[56, 26]),
   midi.NoteOnEvent(tick=0, channel=0, data=[64, 26]),
   midi.NoteOnEvent(tick=228, channel=0, data=[64, 0]),
   midi.NoteOnEvent(tick=0, channel=0, data=[56, 0]),
   midi.NoteOnEvent(tick=12, channel=0, data=[56, 26]),
   midi.NoteOnEvent(tick=0, channel=0, data=[64, 26]),
   midi.NoteOnEvent(tick=228, channel=0, data=[64, 0]),
   midi.NoteOnEvent(tick=0, channel=0, data=[56, 0]),
   midi.NoteOnEvent(tick=12, channel=0, data=[56, 26]),
   midi.NoteOnEvent(tick=0, channel=0, data=[64, 26]),
   midi.NoteOnEvent(tick=228, channel=0, data=[64, 0]),
   midi.NoteOnEvent(tick=0, channel=0, data=[56, 0]),
   midi.NoteOnEvent(tick=12, channel=0, data=[56, 26]),
   midi.NoteOnEvent(tick=0, channel=0, data=[64, 26]),
   midi.NoteOnEvent(tick=228, channel=0, data=[64, 0]),
   midi.NoteOnEvent(tick=0, channel=0, data=[56, 0]),
   midi.NoteOnEvent(tick=12, channel=0, data=[68, 0]),
   midi.NoteOnEvent(tick=0, channel=0, data=[68, 61]),
   midi.NoteOnEvent(tick=240, channel=0, data=[56, 26]),
   midi.NoteOnEvent(tick=0, channel=0, data=[64, 26]),
   midi.NoteOnEvent(tick=228, channel=0, data=[64, 0]),
   midi.NoteOnEvent(tick=0, channel=0, data=[56, 0]),
   midi.NoteOnEvent(tick=12, channel=0, data=[68, 0]),
   midi.NoteOnEvent(tick=0, channel=0, data=[69, 59]),
   midi.NoteOnEvent(tick=240, channel=0, data=[57, 27]),
   midi.NoteOnEvent(tick=0, channel=0, data=[64, 27]),
   midi.NoteOnEvent(tick=228, channel=0, data=[64, 0]),
   midi.NoteOnEvent(tick=0, channel=0, data=[57, 0]),
   midi.NoteOnEvent(tick=12, channel=0, data=[69, 0]),
   midi.NoteOnEvent(tick=0, channel=0, data=[68, 59]),
   midi.NoteOnEvent(tick=240, channel=0, data=[56, 26]),
   midi.NoteOnEvent(tick=0, channel=0, data=[64, 26]),
   midi.NoteOnEvent(tick=228, channel=0, data=[64, 0]),
   midi.NoteOnEvent(tick=0, channel=0, data=[56, 0]),
   midi.NoteOnEvent(tick=12, channel=0, data=[68, 0]),
   midi.NoteOnEvent(tick=0, channel=0, data=[69, 60]),
   midi.NoteOnEvent(tick=240, channel=0, data=[57, 26]),
   midi.NoteOnEvent(tick=0, channel=0, data=[66, 26]),
   midi.NoteOnEvent(tick=228, channel=0, data=[66, 0]),
   midi.NoteOnEvent(tick=0, channel=0, data=[57, 0]),
   midi.NoteOnEvent(tick=12, channel=0, data=[57, 26]),
   midi.NoteOnEvent(tick=0, channel=0, data=[66, 26]),
   midi.NoteOnEvent(tick=228, channel=0, data=[66, 0]),
   midi.NoteOnEvent(tick=0, channel=0, data=[57, 0]),
   midi.NoteOnEvent(tick=12, channel=0, data=[57, 26]),
   midi.NoteOnEvent(tick=0, channel=0, data=[66, 26]),
   midi.NoteOnEvent(tick=228, channel=0, data=[66, 0]),
   midi.NoteOnEvent(tick=0, channel=0, data=[57, 0]),
   midi.NoteOnEvent(tick=12, channel=0, data=[57, 26]),
   midi.NoteOnEvent(tick=0, channel=0, data=[66, 26]),
   midi.NoteOnEvent(tick=228, channel=0, data=[66, 0]),
   midi.NoteOnEvent(tick=0, channel=0, data=[57, 0]),
   midi.NoteOnEvent(tick=12, channel=0, data=[57, 26]),
   midi.NoteOnEvent(tick=0, channel=0, data=[66, 26]),
   midi.NoteOnEvent(tick=228, channel=0, data=[66, 0]),
   midi.NoteOnEvent(tick=0, channel=0, data=[57, 0]),
   midi.NoteOnEvent(tick=12, channel=0, data=[69, 0]),
   midi.NoteOnEvent(tick=0, channel=0, data=[68, 59]),
   midi.NoteOnEvent(tick=240, channel=0, data=[56, 28]),
   midi.NoteOnEvent(tick=0, channel=0, data=[66, 28]),
   midi.NoteOnEvent(tick=228, channel=0, data=[66, 0]),
   midi.NoteOnEvent(tick=0, channel=0, data=[56, 0]),
   midi.NoteOnEvent(tick=12, channel=0, data=[56, 29]),
   midi.NoteOnEvent(tick=0, channel=0, data=[66, 29]),
   midi.NoteOnEvent(tick=228, channel=0, data=[66, 0]),
   midi.NoteOnEvent(tick=0, channel=0, data=[56, 0]),
   midi.NoteOnEvent(tick=12, channel=0, data=[56, 29]),
   midi.NoteOnEvent(tick=0, channel=0, data=[66, 29]),
   midi.NoteOnEvent(tick=228, channel=0, data=[66, 0]),
   midi.NoteOnEvent(tick=0, channel=0, data=[56, 0]),
   midi.NoteOnEvent(tick=12, channel=0, data=[56, 29]),
   midi.NoteOnEvent(tick=0, channel=0, data=[66, 29]),
   midi.NoteOnEvent(tick=228, channel=0, data=[66, 0]),
   midi.NoteOnEvent(tick=0, channel=0, data=[56, 0]),
   midi.NoteOnEvent(tick=12, channel=0, data=[56, 29]),
   midi.NoteOnEvent(tick=0, channel=0, data=[66, 29]),
   midi.NoteOnEvent(tick=228, channel=0, data=[66, 0]),
   midi.NoteOnEvent(tick=0, channel=0, data=[56, 0]),
   midi.NoteOnEvent(tick=12, channel=0, data=[68, 0]),
   midi.NoteOnEvent(tick=0, channel=0, data=[68, 60]),
   midi.NoteOnEvent(tick=240, channel=0, data=[56, 26]),
   midi.NoteOnEvent(tick=0, channel=0, data=[64, 26]),
   midi.NoteOnEvent(tick=228, channel=0, data=[64, 0]),
   midi.NoteOnEvent(tick=0, channel=0, data=[56, 0]),
   midi.NoteOnEvent(tick=12, channel=0, data=[56, 26]),
   midi.NoteOnEvent(tick=0, channel=0, data=[64, 26]),
   midi.NoteOnEvent(tick=228, channel=0, data=[64, 0]),
   midi.NoteOnEvent(tick=0, channel=0, data=[56, 0]),
   midi.NoteOnEvent(tick=12, channel=0, data=[56, 26]),
   midi.NoteOnEvent(tick=0, channel=0, data=[64, 26]),
   midi.NoteOnEvent(tick=228, channel=0, data=[64, 0]),
   midi.NoteOnEvent(tick=0, channel=0, data=[56, 0]),
   midi.NoteOnEvent(tick=12, channel=0, data=[56, 26]),
   midi.NoteOnEvent(tick=0, channel=0, data=[64, 26]),
   midi.NoteOnEvent(tick=228, channel=0, data=[64, 0]),
   midi.NoteOnEvent(tick=0, channel=0, data=[56, 0]),
   midi.NoteOnEvent(tick=12, channel=0, data=[56, 27]),
   midi.NoteOnEvent(tick=0, channel=0, data=[64, 27]),
   midi.NoteOnEvent(tick=228, channel=0, data=[64, 0]),
   midi.NoteOnEvent(tick=0, channel=0, data=[56, 0]),
   midi.NoteOnEvent(tick=12, channel=0, data=[68, 0]),
   midi.NoteOnEvent(tick=0, channel=0, data=[76, 70]),
   midi.NoteOnEvent(tick=240, channel=0, data=[64, 28]),
   midi.NoteOnEvent(tick=0, channel=0, data=[68, 28]),
   midi.NoteOnEvent(tick=228, channel=0, data=[68, 0]),
   midi.NoteOnEvent(tick=0, channel=0, data=[64, 0]),
   midi.NoteOnEvent(tick=12, channel=0, data=[76, 0]),
   midi.NoteOnEvent(tick=0, channel=0, data=[75, 64]),
   midi.NoteOnEvent(tick=240, channel=0, data=[63, 27]),
   midi.NoteOnEvent(tick=0, channel=0, data=[68, 27]),
   midi.NoteOnEvent(tick=228, channel=0, data=[68, 0]),
   midi.NoteOnEvent(tick=0, channel=0, data=[63, 0]),
   midi.NoteOnEvent(tick=12, channel=0, data=[75, 0]),
   midi.NoteOnEvent(tick=0, channel=0, data=[73, 60]),
   midi.NoteOnEvent(tick=240, channel=0, data=[61, 27]),
   midi.NoteOnEvent(tick=0, channel=0, data=[68, 27]),
   midi.NoteOnEvent(tick=228, channel=0, data=[68, 0]),
   midi.NoteOnEvent(tick=0, channel=0, data=[61, 0]),
   midi.NoteOnEvent(tick=12, channel=0, data=[73, 0]),
   midi.NoteOnEvent(tick=0, channel=0, data=[73, 60]),
   midi.NoteOnEvent(tick=240, channel=0, data=[61, 27]),
   midi.NoteOnEvent(tick=0, channel=0, data=[68, 27]),
   midi.NoteOnEvent(tick=228, channel=0, data=[68, 0]),
   midi.NoteOnEvent(tick=0, channel=0, data=[61, 0]),
   midi.NoteOnEvent(tick=12, channel=0, data=[61, 27]),
   midi.NoteOnEvent(tick=0, channel=0, data=[68, 27]),
   midi.NoteOnEvent(tick=228, channel=0, data=[68, 0]),
   midi.NoteOnEvent(tick=0, channel=0, data=[61, 0]),
   midi.NoteOnEvent(tick=12, channel=0, data=[61, 27]),
   midi.NoteOnEvent(tick=0, channel=0, data=[68, 27]),
   midi.NoteOnEvent(tick=228, channel=0, data=[68, 0]),
   midi.NoteOnEvent(tick=0, channel=0, data=[61, 0]),
   midi.NoteOnEvent(tick=12, channel=0, data=[61, 27]),
   midi.NoteOnEvent(tick=0, channel=0, data=[68, 27]),
   midi.NoteOnEvent(tick=228, channel=0, data=[68, 0]),
   midi.NoteOnEvent(tick=0, channel=0, data=[61, 0]),
   midi.NoteOnEvent(tick=12, channel=0, data=[61, 27]),
   midi.NoteOnEvent(tick=0, channel=0, data=[68, 27]),
   midi.NoteOnEvent(tick=228, channel=0, data=[68, 0]),
   midi.NoteOnEvent(tick=0, channel=0, data=[61, 0]),
   midi.NoteOnEvent(tick=12, channel=0, data=[73, 0]),
   midi.NoteOnEvent(tick=0, channel=0, data=[72, 61]),
   midi.NoteOnEvent(tick=240, channel=0, data=[60, 27]),
   midi.NoteOnEvent(tick=0, channel=0, data=[68, 27]),
   midi.NoteOnEvent(tick=228, channel=0, data=[68, 0]),
   midi.NoteOnEvent(tick=0, channel=0, data=[60, 0]),
   midi.NoteOnEvent(tick=12, channel=0, data=[60, 27]),
   midi.NoteOnEvent(tick=0, channel=0, data=[68, 27]),
   midi.NoteOnEvent(tick=228, channel=0, data=[68, 0]),
   midi.NoteOnEvent(tick=0, channel=0, data=[60, 0]),
   midi.NoteOnEvent(tick=12, channel=0, data=[60, 27]),
   midi.NoteOnEvent(tick=0, channel=0, data=[68, 27]),
   midi.NoteOnEvent(tick=228, channel=0, data=[68, 0]),
   midi.NoteOnEvent(tick=0, channel=0, data=[60, 0]),
   midi.NoteOnEvent(tick=12, channel=0, data=[60, 27]),
   midi.NoteOnEvent(tick=0, channel=0, data=[68, 27]),
   midi.NoteOnEvent(tick=228, channel=0, data=[68, 0]),
   midi.NoteOnEvent(tick=0, channel=0, data=[60, 0]),
   midi.NoteOnEvent(tick=12, channel=0, data=[60, 27]),
   midi.NoteOnEvent(tick=0, channel=0, data=[68, 27]),
   midi.NoteOnEvent(tick=228, channel=0, data=[68, 0]),
   midi.NoteOnEvent(tick=0, channel=0, data=[60, 0]),
   midi.NoteOnEvent(tick=12, channel=0, data=[72, 0]),
   midi.NoteOnEvent(tick=0, channel=0, data=[72, 58]),
   midi.NoteOnEvent(tick=240, channel=0, data=[60, 35]),
   midi.NoteOnEvent(tick=0, channel=0, data=[69, 35]),
   midi.NoteOnEvent(tick=240, channel=0, data=[69, 0]),
   midi.NoteOnEvent(tick=0, channel=0, data=[60, 0]),
   midi.NoteOnEvent(tick=0, channel=0, data=[72, 0]),
   midi.NoteOnEvent(tick=0, channel=0, data=[73, 68]),
   midi.NoteOnEvent(tick=240, channel=0, data=[61, 35]),
   midi.NoteOnEvent(tick=0, channel=0, data=[69, 35]),
   midi.NoteOnEvent(tick=228, channel=0, data=[69, 0]),
   midi.NoteOnEvent(tick=0, channel=0, data=[61, 0]),
   midi.NoteOnEvent(tick=12, channel=0, data=[61, 35]),
   midi.NoteOnEvent(tick=0, channel=0, data=[69, 35]),
   midi.NoteOnEvent(tick=228, channel=0, data=[69, 0]),
   midi.NoteOnEvent(tick=0, channel=0, data=[61, 0]),
   midi.NoteOnEvent(tick=12, channel=0, data=[61, 35]),
   midi.NoteOnEvent(tick=0, channel=0, data=[69, 35]),
   midi.NoteOnEvent(tick=228, channel=0, data=[69, 0]),
   midi.NoteOnEvent(tick=0, channel=0, data=[61, 0]),
   midi.NoteOnEvent(tick=12, channel=0, data=[61, 35]),
   midi.NoteOnEvent(tick=0, channel=0, data=[69, 35]),
   midi.NoteOnEvent(tick=240, channel=0, data=[69, 0]),
   midi.NoteOnEvent(tick=0, channel=0, data=[61, 0]),
   midi.NoteOnEvent(tick=0, channel=0, data=[61, 35]),
   midi.NoteOnEvent(tick=0, channel=0, data=[69, 35]),
   midi.NoteOnEvent(tick=240, channel=0, data=[69, 0]),
   midi.NoteOnEvent(tick=0, channel=0, data=[61, 0]),
   midi.NoteOnEvent(tick=0, channel=0, data=[73, 0]),
   midi.NoteOnEvent(tick=0, channel=0, data=[73, 70]),
   midi.NoteOnEvent(tick=240, channel=0, data=[61, 35]),
   midi.NoteOnEvent(tick=0, channel=0, data=[69, 35]),
   midi.NoteOnEvent(tick=240, channel=0, data=[69, 0]),
   midi.NoteOnEvent(tick=0, channel=0, data=[61, 0]),
   midi.NoteOnEvent(tick=0, channel=0, data=[73, 0]),
   midi.NoteOnEvent(tick=0, channel=0, data=[73, 69]),
   midi.NoteOnEvent(tick=240, channel=0, data=[61, 35]),
   midi.NoteOnEvent(tick=0, channel=0, data=[69, 35]),
   midi.NoteOnEvent(tick=240, channel=0, data=[69, 0]),
   midi.NoteOnEvent(tick=0, channel=0, data=[61, 0]),
   midi.NoteOnEvent(tick=0, channel=0, data=[73, 0]),
   midi.NoteOnEvent(tick=0, channel=0, data=[73, 70]),
   midi.NoteOnEvent(tick=240, channel=0, data=[61, 44]),
   midi.NoteOnEvent(tick=0, channel=0, data=[68, 44]),
   midi.NoteOnEvent(tick=228, channel=0, data=[68, 0]),
   midi.NoteOnEvent(tick=0, channel=0, data=[61, 0]),
   midi.NoteOnEvent(tick=12, channel=0, data=[73, 0]),
   midi.NoteOnEvent(tick=0, channel=0, data=[74, 78]),
   midi.NoteOnEvent(tick=240, channel=0, data=[62, 44]),
   midi.NoteOnEvent(tick=0, channel=0, data=[68, 44]),
   midi.NoteOnEvent(tick=228, channel=0, data=[68, 0]),
   midi.NoteOnEvent(tick=0, channel=0, data=[62, 0]),
   midi.NoteOnEvent(tick=12, channel=0, data=[62, 44]),
   midi.NoteOnEvent(tick=0, channel=0, data=[68, 44]),
   midi.NoteOnEvent(tick=228, channel=0, data=[68, 0]),
   midi.NoteOnEvent(tick=0, channel=0, data=[62, 0]),
   midi.NoteOnEvent(tick=12, channel=0, data=[62, 44]),
   midi.NoteOnEvent(tick=0, channel=0, data=[68, 44]),
   midi.NoteOnEvent(tick=228, channel=0, data=[68, 0]),
   midi.NoteOnEvent(tick=0, channel=0, data=[62, 0]),
   midi.NoteOnEvent(tick=12, channel=0, data=[62, 44]),
   midi.NoteOnEvent(tick=0, channel=0, data=[68, 44]),
   midi.NoteOnEvent(tick=228, channel=0, data=[68, 0]),
   midi.NoteOnEvent(tick=0, channel=0, data=[62, 0]),
   midi.NoteOnEvent(tick=12, channel=0, data=[62, 44]),
   midi.NoteOnEvent(tick=0, channel=0, data=[68, 44]),
   midi.NoteOnEvent(tick=228, channel=0, data=[68, 0]),
   midi.NoteOnEvent(tick=0, channel=0, data=[62, 0]),
   midi.NoteOnEvent(tick=12, channel=0, data=[74, 0]),
   midi.NoteOnEvent(tick=0, channel=0, data=[74, 80]),
   midi.NoteOnEvent(tick=240, channel=0, data=[62, 44]),
   midi.NoteOnEvent(tick=0, channel=0, data=[68, 44]),
   midi.NoteOnEvent(tick=240, channel=0, data=[68, 0]),
   midi.NoteOnEvent(tick=0, channel=0, data=[62, 0]),
   midi.NoteOnEvent(tick=0, channel=0, data=[74, 0]),
   midi.NoteOnEvent(tick=0, channel=0, data=[74, 75]),
   midi.NoteOnEvent(tick=240, channel=0, data=[62, 44]),
   midi.NoteOnEvent(tick=0, channel=0, data=[68, 44]),
   midi.NoteOnEvent(tick=240, channel=0, data=[68, 0]),
   midi.NoteOnEvent(tick=0, channel=0, data=[62, 0]),
   midi.NoteOnEvent(tick=0, channel=0, data=[74, 0]),
   midi.NoteOnEvent(tick=0, channel=0, data=[76, 88]),
   midi.NoteOnEvent(tick=240, channel=0, data=[64, 51]),
   midi.NoteOnEvent(tick=0, channel=0, data=[68, 51]),
   midi.NoteOnEvent(tick=228, channel=0, data=[68, 0]),
   midi.NoteOnEvent(tick=0, channel=0, data=[64, 0]),
   midi.NoteOnEvent(tick=12, channel=0, data=[76, 0]),
   midi.NoteOnEvent(tick=0, channel=0, data=[75, 83]),
   midi.NoteOnEvent(tick=240, channel=0, data=[63, 51]),
   midi.NoteOnEvent(tick=0, channel=0, data=[68, 51]),
   midi.NoteOnEvent(tick=228, channel=0, data=[68, 0]),
   midi.NoteOnEvent(tick=0, channel=0, data=[63, 0]),
   midi.NoteOnEvent(tick=12, channel=0, data=[63, 44]),
   midi.NoteOnEvent(tick=0, channel=0, data=[68, 44]),
   midi.NoteOnEvent(tick=228, channel=0, data=[68, 0]),
   midi.NoteOnEvent(tick=0, channel=0, data=[63, 0]),
   midi.NoteOnEvent(tick=12, channel=0, data=[63, 51]),
   midi.NoteOnEvent(tick=0, channel=0, data=[68, 51]),
   midi.NoteOnEvent(tick=228, channel=0, data=[68, 0]),
   midi.NoteOnEvent(tick=0, channel=0, data=[63, 0]),
   midi.NoteOnEvent(tick=12, channel=0, data=[75, 0]),
   midi.NoteOnEvent(tick=0, channel=0, data=[76, 88]),
   midi.NoteOnEvent(tick=240, channel=0, data=[64, 52]),
   midi.NoteOnEvent(tick=0, channel=0, data=[67, 52]),
   midi.NoteOnEvent(tick=228, channel=0, data=[67, 0]),
   midi.NoteOnEvent(tick=0, channel=0, data=[64, 0]),
   midi.NoteOnEvent(tick=12, channel=0, data=[76, 0]),
   midi.NoteOnEvent(tick=0, channel=0, data=[75, 83]),
   midi.NoteOnEvent(tick=240, channel=0, data=[63, 52]),
   midi.NoteOnEvent(tick=0, channel=0, data=[67, 52]),
   midi.NoteOnEvent(tick=228, channel=0, data=[67, 0]),
   midi.NoteOnEvent(tick=0, channel=0, data=[63, 0]),
   midi.NoteOnEvent(tick=12, channel=0, data=[63, 52]),
   midi.NoteOnEvent(tick=0, channel=0, data=[67, 52]),
   midi.NoteOnEvent(tick=228, channel=0, data=[67, 0]),
   midi.NoteOnEvent(tick=0, channel=0, data=[63, 0]),
   midi.NoteOnEvent(tick=12, channel=0, data=[63, 52]),
   midi.NoteOnEvent(tick=0, channel=0, data=[67, 52]),
   midi.NoteOnEvent(tick=228, channel=0, data=[67, 0]),
   midi.NoteOnEvent(tick=0, channel=0, data=[63, 0]),
   midi.NoteOnEvent(tick=12, channel=0, data=[75, 0]),
   midi.NoteOnEvent(tick=0, channel=0, data=[68, 70]),
   midi.NoteOnEvent(tick=240, channel=0, data=[59, 26]),
   midi.NoteOnEvent(tick=0, channel=0, data=[63, 26]),
   midi.NoteOnEvent(tick=228, channel=0, data=[63, 0]),
   midi.NoteOnEvent(tick=0, channel=0, data=[59, 0]),
   midi.NoteOnEvent(tick=12, channel=0, data=[59, 26]),
   midi.NoteOnEvent(tick=0, channel=0, data=[63, 26]),
   midi.NoteOnEvent(tick=228, channel=0, data=[63, 0]),
   midi.NoteOnEvent(tick=0, channel=0, data=[59, 0]),
   midi.NoteOnEvent(tick=12, channel=0, data=[59, 26]),
   midi.NoteOnEvent(tick=0, channel=0, data=[63, 26]),
   midi.NoteOnEvent(tick=228, channel=0, data=[63, 0]),
   midi.NoteOnEvent(tick=0, channel=0, data=[59, 0]),
   midi.NoteOnEvent(tick=12, channel=0, data=[59, 26]),
   midi.NoteOnEvent(tick=0, channel=0, data=[63, 26]),
   midi.NoteOnEvent(tick=228, channel=0, data=[63, 0]),
   midi.NoteOnEvent(tick=0, channel=0, data=[59, 0]),
   midi.NoteOnEvent(tick=12, channel=0, data=[59, 26]),
   midi.NoteOnEvent(tick=0, channel=0, data=[63, 26]),
   midi.NoteOnEvent(tick=228, channel=0, data=[63, 0]),
   midi.NoteOnEvent(tick=0, channel=0, data=[59, 0]),
   midi.NoteOnEvent(tick=12, channel=0, data=[59, 26]),
   midi.NoteOnEvent(tick=0, channel=0, data=[63, 26]),
   midi.NoteOnEvent(tick=228, channel=0, data=[63, 0]),
   midi.NoteOnEvent(tick=0, channel=0, data=[59, 0]),
   midi.NoteOnEvent(tick=12, channel=0, data=[59, 26]),
   midi.NoteOnEvent(tick=0, channel=0, data=[63, 26]),
   midi.NoteOnEvent(tick=228, channel=0, data=[63, 0]),
   midi.NoteOnEvent(tick=0, channel=0, data=[59, 0]),
   midi.NoteOnEvent(tick=12, channel=0, data=[68, 0]),
   midi.NoteOnEvent(tick=0, channel=0, data=[68, 48]),
   midi.NoteOnEvent(tick=240, channel=0, data=[59, 26]),
   midi.NoteOnEvent(tick=0, channel=0, data=[63, 26]),
   midi.NoteOnEvent(tick=240, channel=0, data=[63, 0]),
   midi.NoteOnEvent(tick=0, channel=0, data=[59, 0]),
   midi.NoteOnEvent(tick=0, channel=0, data=[68, 0]),
   midi.NoteOnEvent(tick=0, channel=0, data=[68, 42]),
   midi.NoteOnEvent(tick=240, channel=0, data=[59, 26]),
   midi.NoteOnEvent(tick=0, channel=0, data=[63, 26]),
   midi.NoteOnEvent(tick=240, channel=0, data=[63, 0]),
   midi.NoteOnEvent(tick=0, channel=0, data=[59, 0]),
   midi.NoteOnEvent(tick=0, channel=0, data=[68, 0]),
   midi.NoteOnEvent(tick=0, channel=0, data=[68, 59]),
   midi.NoteOnEvent(tick=240, channel=0, data=[63, 26]),
   midi.NoteOnEvent(tick=0, channel=0, data=[60, 26]),
   midi.NoteOnEvent(tick=228, channel=0, data=[60, 0]),
   midi.NoteOnEvent(tick=0, channel=0, data=[63, 0]),
   midi.NoteOnEvent(tick=12, channel=0, data=[68, 0]),
   midi.NoteOnEvent(tick=0, channel=0, data=[69, 61]),
   midi.NoteOnEvent(tick=240, channel=0, data=[60, 26]),
   midi.NoteOnEvent(tick=0, channel=0, data=[63, 26]),
   midi.NoteOnEvent(tick=228, channel=0, data=[63, 0]),
   midi.NoteOnEvent(tick=0, channel=0, data=[60, 0]),
   midi.NoteOnEvent(tick=12, channel=0, data=[60, 26]),
   midi.NoteOnEvent(tick=0, channel=0, data=[63, 26]),
   midi.NoteOnEvent(tick=228, channel=0, data=[63, 0]),
   midi.NoteOnEvent(tick=0, channel=0, data=[60, 0]),
   midi.NoteOnEvent(tick=12, channel=0, data=[60, 26]),
   midi.NoteOnEvent(tick=0, channel=0, data=[63, 26]),
   midi.NoteOnEvent(tick=228, channel=0, data=[63, 0]),
   midi.NoteOnEvent(tick=0, channel=0, data=[60, 0]),
   midi.NoteOnEvent(tick=12, channel=0, data=[60, 26]),
   midi.NoteOnEvent(tick=0, channel=0, data=[63, 26]),
   midi.NoteOnEvent(tick=228, channel=0, data=[63, 0]),
   midi.NoteOnEvent(tick=0, channel=0, data=[60, 0]),
   midi.NoteOnEvent(tick=12, channel=0, data=[60, 26]),
   midi.NoteOnEvent(tick=0, channel=0, data=[63, 26]),
   midi.NoteOnEvent(tick=228, channel=0, data=[63, 0]),
   midi.NoteOnEvent(tick=0, channel=0, data=[60, 0]),
   midi.NoteOnEvent(tick=12, channel=0, data=[69, 0]),
   midi.NoteOnEvent(tick=0, channel=0, data=[68, 60]),
   midi.NoteOnEvent(tick=240, channel=0, data=[60, 26]),
   midi.NoteOnEvent(tick=0, channel=0, data=[63, 26]),
   midi.NoteOnEvent(tick=228, channel=0, data=[63, 0]),
   midi.NoteOnEvent(tick=0, channel=0, data=[60, 0]),
   midi.NoteOnEvent(tick=12, channel=0, data=[68, 0]),
   midi.NoteOnEvent(tick=0, channel=0, data=[66, 56]),
   midi.NoteOnEvent(tick=240, channel=0, data=[60, 34]),
   midi.NoteOnEvent(tick=0, channel=0, data=[63, 26]),
   midi.NoteOnEvent(tick=228, channel=0, data=[63, 0]),
   midi.NoteOnEvent(tick=0, channel=0, data=[60, 0]),
   midi.NoteOnEvent(tick=12, channel=0, data=[66, 0]),
   midi.NoteOnEvent(tick=0, channel=0, data=[64, 70]),
   midi.NoteOnEvent(tick=240, channel=0, data=[56, 26]),
   midi.NoteOnEvent(tick=0, channel=0, data=[61, 26]),
   midi.NoteOnEvent(tick=228, channel=0, data=[61, 0]),
   midi.NoteOnEvent(tick=0, channel=0, data=[56, 0]),
   midi.NoteOnEvent(tick=12, channel=0, data=[64, 0]),
   midi.NoteOnEvent(tick=0, channel=0, data=[68, 64]),
   midi.NoteOnEvent(tick=240, channel=0, data=[64, 29]),
   midi.NoteOnEvent(tick=0, channel=0, data=[61, 29]),
   midi.NoteOnEvent(tick=228, channel=0, data=[61, 0]),
   midi.NoteOnEvent(tick=0, channel=0, data=[64, 0]),
   midi.NoteOnEvent(tick=12, channel=0, data=[68, 0]),
   midi.NoteOnEvent(tick=0, channel=0, data=[73, 68]),
   midi.NoteOnEvent(tick=240, channel=0, data=[64, 31]),
   midi.NoteOnEvent(tick=0, channel=0, data=[68, 31]),
   midi.NoteOnEvent(tick=228, channel=0, data=[68, 0]),
   midi.NoteOnEvent(tick=0, channel=0, data=[64, 0]),
   midi.NoteOnEvent(tick=12, channel=0, data=[73, 0]),
   midi.NoteOnEvent(tick=0, channel=0, data=[76, 77]),
   midi.NoteOnEvent(tick=240, channel=0, data=[68, 34]),
   midi.NoteOnEvent(tick=0, channel=0, data=[73, 34]),
   midi.NoteOnEvent(tick=228, channel=0, data=[73, 0]),
   midi.NoteOnEvent(tick=0, channel=0, data=[68, 0]),
   midi.NoteOnEvent(tick=12, channel=0, data=[76, 0]),
   midi.NoteOnEvent(tick=0, channel=0, data=[80, 75]),
   midi.NoteOnEvent(tick=240, channel=0, data=[73, 37]),
   midi.NoteOnEvent(tick=0, channel=0, data=[76, 37]),
   midi.NoteOnEvent(tick=228, channel=0, data=[76, 0]),
   midi.NoteOnEvent(tick=0, channel=0, data=[73, 0]),
   midi.NoteOnEvent(tick=12, channel=0, data=[80, 0]),
   midi.NoteOnEvent(tick=0, channel=0, data=[85, 79]),
   midi.NoteOnEvent(tick=240, channel=0, data=[76, 39]),
   midi.NoteOnEvent(tick=0, channel=0, data=[80, 39]),
   midi.NoteOnEvent(tick=228, channel=0, data=[80, 0]),
   midi.NoteOnEvent(tick=0, channel=0, data=[76, 0]),
   midi.NoteOnEvent(tick=12, channel=0, data=[85, 0]),
   midi.NoteOnEvent(tick=0, channel=0, data=[87, 99]),
   midi.NoteOnEvent(tick=240, channel=0, data=[75, 51]),
   midi.NoteOnEvent(tick=0, channel=0, data=[79, 51]),
   midi.NoteOnEvent(tick=228, channel=0, data=[79, 0]),
   midi.NoteOnEvent(tick=0, channel=0, data=[75, 0]),
   midi.NoteOnEvent(tick=12, channel=0, data=[87, 0]),
   midi.NoteOnEvent(tick=0, channel=0, data=[88, 96]),
   midi.NoteOnEvent(tick=240, channel=0, data=[79, 45]),
   midi.NoteOnEvent(tick=0, channel=0, data=[76, 45]),
   midi.NoteOnEvent(tick=228, channel=0, data=[76, 0]),
   midi.NoteOnEvent(tick=0, channel=0, data=[79, 0]),
   midi.NoteOnEvent(tick=12, channel=0, data=[79, 40]),
   midi.NoteOnEvent(tick=0, channel=0, data=[76, 40]),
   midi.NoteOnEvent(tick=228, channel=0, data=[76, 0]),
   midi.NoteOnEvent(tick=0, channel=0, data=[79, 0]),
   midi.NoteOnEvent(tick=12, channel=0, data=[79, 39]),
   midi.NoteOnEvent(tick=0, channel=0, data=[76, 39]),
   midi.NoteOnEvent(tick=228, channel=0, data=[76, 0]),
   midi.NoteOnEvent(tick=0, channel=0, data=[79, 0]),
   midi.NoteOnEvent(tick=12, channel=0, data=[79, 37]),
   midi.NoteOnEvent(tick=0, channel=0, data=[76, 37]),
   midi.NoteOnEvent(tick=228, channel=0, data=[76, 0]),
   midi.NoteOnEvent(tick=0, channel=0, data=[79, 0]),
   midi.NoteOnEvent(tick=12, channel=0, data=[76, 37]),
   midi.NoteOnEvent(tick=0, channel=0, data=[79, 37]),
   midi.NoteOnEvent(tick=228, channel=0, data=[79, 0]),
   midi.NoteOnEvent(tick=0, channel=0, data=[76, 0]),
   midi.NoteOnEvent(tick=12, channel=0, data=[88, 0]),
   midi.NoteOnEvent(tick=0, channel=0, data=[87, 88]),
   midi.NoteOnEvent(tick=240, channel=0, data=[75, 31]),
   midi.NoteOnEvent(tick=0, channel=0, data=[79, 31]),
   midi.NoteOnEvent(tick=228, channel=0, data=[79, 0]),
   midi.NoteOnEvent(tick=0, channel=0, data=[75, 0]),
   midi.NoteOnEvent(tick=12, channel=0, data=[87, 0]),
   midi.NoteOnEvent(tick=0, channel=0, data=[85, 81]),
   midi.NoteOnEvent(tick=240, channel=0, data=[73, 28]),
   midi.NoteOnEvent(tick=0, channel=0, data=[79, 28]),
   midi.NoteOnEvent(tick=228, channel=0, data=[79, 0]),
   midi.NoteOnEvent(tick=0, channel=0, data=[73, 0]),
   midi.NoteOnEvent(tick=12, channel=0, data=[85, 0]),
   midi.NoteOnEvent(tick=0, channel=0, data=[85, 68]),
   midi.NoteOnEvent(tick=240, channel=0, data=[75, 26]),
   midi.NoteOnEvent(tick=0, channel=0, data=[80, 26]),
   midi.NoteOnEvent(tick=228, channel=0, data=[80, 0]),
   midi.NoteOnEvent(tick=0, channel=0, data=[75, 0]),
   midi.NoteOnEvent(tick=12, channel=0, data=[85, 0]),
   midi.NoteOnEvent(tick=0, channel=0, data=[84, 59]),
   midi.NoteOnEvent(tick=240, channel=0, data=[75, 26]),
   midi.NoteOnEvent(tick=0, channel=0, data=[80, 26]),
   midi.NoteOnEvent(tick=228, channel=0, data=[80, 0]),
   midi.NoteOnEvent(tick=0, channel=0, data=[75, 0]),
   midi.NoteOnEvent(tick=12, channel=0, data=[84, 0]),
   midi.NoteOnEvent(tick=0, channel=0, data=[80, 58]),
   midi.NoteOnEvent(tick=240, channel=0, data=[72, 26]),
   midi.NoteOnEvent(tick=0, channel=0, data=[75, 26]),
   midi.NoteOnEvent(tick=228, channel=0, data=[75, 0]),
   midi.NoteOnEvent(tick=0, channel=0, data=[72, 0]),
   midi.NoteOnEvent(tick=12, channel=0, data=[80, 0]),
   midi.NoteOnEvent(tick=0, channel=0, data=[75, 58]),
   midi.NoteOnEvent(tick=240, channel=0, data=[68, 26]),
   midi.NoteOnEvent(tick=0, channel=0, data=[72, 26]),
   midi.NoteOnEvent(tick=228, channel=0, data=[72, 0]),
   midi.NoteOnEvent(tick=0, channel=0, data=[68, 0]),
   midi.NoteOnEvent(tick=12, channel=0, data=[75, 0]),
   midi.NoteOnEvent(tick=0, channel=0, data=[72, 58]),
   midi.NoteOnEvent(tick=240, channel=0, data=[63, 26]),
   midi.NoteOnEvent(tick=0, channel=0, data=[68, 26]),
   midi.NoteOnEvent(tick=228, channel=0, data=[68, 0]),
   midi.NoteOnEvent(tick=0, channel=0, data=[63, 0]),
   midi.NoteOnEvent(tick=12, channel=0, data=[72, 0]),
   midi.NoteOnEvent(tick=0, channel=0, data=[68, 58]),
   midi.NoteOnEvent(tick=240, channel=0, data=[60, 26]),
   midi.NoteOnEvent(tick=0, channel=0, data=[63, 26]),
   midi.NoteOnEvent(tick=228, channel=0, data=[63, 0]),
   midi.NoteOnEvent(tick=0, channel=0, data=[60, 0]),
   midi.NoteOnEvent(tick=12, channel=0, data=[68, 0]),
   midi.NoteOnEvent(tick=0, channel=0, data=[68, 59]),
   midi.NoteOnEvent(tick=240, channel=0, data=[63, 26]),
   midi.NoteOnEvent(tick=0, channel=0, data=[60, 26]),
   midi.NoteOnEvent(tick=228, channel=0, data=[60, 0]),
   midi.NoteOnEvent(tick=0, channel=0, data=[63, 0]),
   midi.NoteOnEvent(tick=12, channel=0, data=[68, 0]),
   midi.NoteOnEvent(tick=0, channel=0, data=[69, 61]),
   midi.NoteOnEvent(tick=240, channel=0, data=[60, 26]),
   midi.NoteOnEvent(tick=0, channel=0, data=[63, 26]),
   midi.NoteOnEvent(tick=228, channel=0, data=[63, 0]),
   midi.NoteOnEvent(tick=0, channel=0, data=[60, 0]),
   midi.NoteOnEvent(tick=12, channel=0, data=[60, 26]),
   midi.NoteOnEvent(tick=0, channel=0, data=[63, 26]),
   midi.NoteOnEvent(tick=228, channel=0, data=[63, 0]),
   midi.NoteOnEvent(tick=0, channel=0, data=[60, 0]),
   midi.NoteOnEvent(tick=12, channel=0, data=[60, 26]),
   midi.NoteOnEvent(tick=0, channel=0, data=[63, 26]),
   midi.NoteOnEvent(tick=228, channel=0, data=[63, 0]),
   midi.NoteOnEvent(tick=0, channel=0, data=[60, 0]),
   midi.NoteOnEvent(tick=12, channel=0, data=[60, 26]),
   midi.NoteOnEvent(tick=0, channel=0, data=[63, 26]),
   midi.NoteOnEvent(tick=228, channel=0, data=[63, 0]),
   midi.NoteOnEvent(tick=0, channel=0, data=[60, 0]),
   midi.NoteOnEvent(tick=12, channel=0, data=[60, 26]),
   midi.NoteOnEvent(tick=0, channel=0, data=[63, 26]),
   midi.NoteOnEvent(tick=228, channel=0, data=[63, 0]),
   midi.NoteOnEvent(tick=0, channel=0, data=[60, 0]),
   midi.NoteOnEvent(tick=12, channel=0, data=[69, 0]),
   midi.NoteOnEvent(tick=0, channel=0, data=[68, 60]),
   midi.NoteOnEvent(tick=240, channel=0, data=[60, 26]),
   midi.NoteOnEvent(tick=0, channel=0, data=[63, 26]),
   midi.NoteOnEvent(tick=228, channel=0, data=[63, 0]),
   midi.NoteOnEvent(tick=0, channel=0, data=[60, 0]),
   midi.NoteOnEvent(tick=12, channel=0, data=[68, 0]),
   midi.NoteOnEvent(tick=0, channel=0, data=[66, 56]),
   midi.NoteOnEvent(tick=240, channel=0, data=[60, 34]),
   midi.NoteOnEvent(tick=0, channel=0, data=[63, 26]),
   midi.NoteOnEvent(tick=240, channel=0, data=[63, 0]),
   midi.NoteOnEvent(tick=0, channel=0, data=[60, 0]),
   midi.NoteOnEvent(tick=0, channel=0, data=[66, 0]),
   midi.NoteOnEvent(tick=0, channel=0, data=[64, 70]),
   midi.NoteOnEvent(tick=240, channel=0, data=[56, 26]),
   midi.NoteOnEvent(tick=0, channel=0, data=[61, 26]),
   midi.NoteOnEvent(tick=228, channel=0, data=[61, 0]),
   midi.NoteOnEvent(tick=0, channel=0, data=[56, 0]),
   midi.NoteOnEvent(tick=12, channel=0, data=[64, 0]),
   midi.NoteOnEvent(tick=0, channel=0, data=[68, 64]),
   midi.NoteOnEvent(tick=240, channel=0, data=[64, 29]),
   midi.NoteOnEvent(tick=0, channel=0, data=[61, 29]),
   midi.NoteOnEvent(tick=228, channel=0, data=[61, 0]),
   midi.NoteOnEvent(tick=0, channel=0, data=[64, 0]),
   midi.NoteOnEvent(tick=12, channel=0, data=[68, 0]),
   midi.NoteOnEvent(tick=0, channel=0, data=[73, 68]),
   midi.NoteOnEvent(tick=240, channel=0, data=[64, 31]),
   midi.NoteOnEvent(tick=0, channel=0, data=[68, 31]),
   midi.NoteOnEvent(tick=228, channel=0, data=[68, 0]),
   midi.NoteOnEvent(tick=0, channel=0, data=[64, 0]),
   midi.NoteOnEvent(tick=12, channel=0, data=[73, 0]),
   midi.NoteOnEvent(tick=0, channel=0, data=[76, 77]),
   midi.NoteOnEvent(tick=240, channel=0, data=[68, 34]),
   midi.NoteOnEvent(tick=0, channel=0, data=[73, 34]),
   midi.NoteOnEvent(tick=228, channel=0, data=[73, 0]),
   midi.NoteOnEvent(tick=0, channel=0, data=[68, 0]),
   midi.NoteOnEvent(tick=12, channel=0, data=[76, 0]),
   midi.NoteOnEvent(tick=0, channel=0, data=[80, 75]),
   midi.NoteOnEvent(tick=240, channel=0, data=[73, 37]),
   midi.NoteOnEvent(tick=0, channel=0, data=[76, 37]),
   midi.NoteOnEvent(tick=228, channel=0, data=[76, 0]),
   midi.NoteOnEvent(tick=0, channel=0, data=[73, 0]),
   midi.NoteOnEvent(tick=12, channel=0, data=[80, 0]),
   midi.NoteOnEvent(tick=0, channel=0, data=[85, 79]),
   midi.NoteOnEvent(tick=240, channel=0, data=[76, 39]),
   midi.NoteOnEvent(tick=0, channel=0, data=[80, 39]),
   midi.NoteOnEvent(tick=228, channel=0, data=[80, 0]),
   midi.NoteOnEvent(tick=0, channel=0, data=[76, 0]),
   midi.NoteOnEvent(tick=12, channel=0, data=[85, 0]),
   midi.NoteOnEvent(tick=0, channel=0, data=[87, 99]),
   midi.NoteOnEvent(tick=240, channel=0, data=[75, 51]),
   midi.NoteOnEvent(tick=0, channel=0, data=[79, 51]),
   midi.NoteOnEvent(tick=228, channel=0, data=[79, 0]),
   midi.NoteOnEvent(tick=0, channel=0, data=[75, 0]),
   midi.NoteOnEvent(tick=12, channel=0, data=[87, 0]),
   midi.NoteOnEvent(tick=0, channel=0, data=[88, 96]),
   midi.NoteOnEvent(tick=240, channel=0, data=[79, 45]),
   midi.NoteOnEvent(tick=0, channel=0, data=[76, 45]),
   midi.NoteOnEvent(tick=228, channel=0, data=[76, 0]),
   midi.NoteOnEvent(tick=0, channel=0, data=[79, 0]),
   midi.NoteOnEvent(tick=12, channel=0, data=[79, 40]),
   midi.NoteOnEvent(tick=0, channel=0, data=[76, 40]),
   midi.NoteOnEvent(tick=228, channel=0, data=[76, 0]),
   midi.NoteOnEvent(tick=0, channel=0, data=[79, 0]),
   midi.NoteOnEvent(tick=12, channel=0, data=[79, 39]),
   midi.NoteOnEvent(tick=0, channel=0, data=[76, 39]),
   midi.NoteOnEvent(tick=228, channel=0, data=[76, 0]),
   midi.NoteOnEvent(tick=0, channel=0, data=[79, 0]),
   midi.NoteOnEvent(tick=12, channel=0, data=[79, 37]),
   midi.NoteOnEvent(tick=0, channel=0, data=[76, 37]),
   midi.NoteOnEvent(tick=228, channel=0, data=[76, 0]),
   midi.NoteOnEvent(tick=0, channel=0, data=[79, 0]),
   midi.NoteOnEvent(tick=12, channel=0, data=[76, 37]),
   midi.NoteOnEvent(tick=0, channel=0, data=[79, 37]),
   midi.NoteOnEvent(tick=228, channel=0, data=[79, 0]),
   midi.NoteOnEvent(tick=0, channel=0, data=[76, 0]),
   midi.NoteOnEvent(tick=12, channel=0, data=[88, 0]),
   midi.NoteOnEvent(tick=0, channel=0, data=[87, 88]),
   midi.NoteOnEvent(tick=240, channel=0, data=[75, 31]),
   midi.NoteOnEvent(tick=0, channel=0, data=[79, 31]),
   midi.NoteOnEvent(tick=228, channel=0, data=[79, 0]),
   midi.NoteOnEvent(tick=0, channel=0, data=[75, 0]),
   midi.NoteOnEvent(tick=12, channel=0, data=[87, 0]),
   midi.NoteOnEvent(tick=0, channel=0, data=[85, 81]),
   midi.NoteOnEvent(tick=240, channel=0, data=[73, 28]),
   midi.NoteOnEvent(tick=0, channel=0, data=[79, 28]),
   midi.NoteOnEvent(tick=240, channel=0, data=[79, 0]),
   midi.NoteOnEvent(tick=0, channel=0, data=[73, 0]),
   midi.NoteOnEvent(tick=0, channel=0, data=[85, 0]),
   midi.NoteOnEvent(tick=0, channel=0, data=[85, 71]),
   midi.NoteOnEvent(tick=240, channel=0, data=[73, 23]),
   midi.NoteOnEvent(tick=0, channel=0, data=[76, 23]),
   midi.NoteOnEvent(tick=0, channel=0, data=[80, 27]),
   midi.NoteOnEvent(tick=228, channel=0, data=[80, 0]),
   midi.NoteOnEvent(tick=0, channel=0, data=[76, 0]),
   midi.NoteOnEvent(tick=0, channel=0, data=[73, 0]),
   midi.NoteOnEvent(tick=12, channel=0, data=[73, 23]),
   midi.NoteOnEvent(tick=0, channel=0, data=[76, 23]),
   midi.NoteOnEvent(tick=0, channel=0, data=[80, 27]),
   midi.NoteOnEvent(tick=228, channel=0, data=[80, 0]),
   midi.NoteOnEvent(tick=0, channel=0, data=[76, 0]),
   midi.NoteOnEvent(tick=0, channel=0, data=[73, 0]),
   midi.NoteOnEvent(tick=12, channel=0, data=[73, 23]),
   midi.NoteOnEvent(tick=0, channel=0, data=[76, 23]),
   midi.NoteOnEvent(tick=0, channel=0, data=[80, 27]),
   midi.NoteOnEvent(tick=228, channel=0, data=[80, 0]),
   midi.NoteOnEvent(tick=0, channel=0, data=[76, 0]),
   midi.NoteOnEvent(tick=0, channel=0, data=[73, 0]),
   midi.NoteOnEvent(tick=12, channel=0, data=[73, 23]),
   midi.NoteOnEvent(tick=0, channel=0, data=[76, 23]),
   midi.NoteOnEvent(tick=0, channel=0, data=[80, 27]),
   midi.NoteOnEvent(tick=228, channel=0, data=[80, 0]),
   midi.NoteOnEvent(tick=0, channel=0, data=[76, 0]),
   midi.NoteOnEvent(tick=0, channel=0, data=[73, 0]),
   midi.NoteOnEvent(tick=12, channel=0, data=[73, 20]),
   midi.NoteOnEvent(tick=0, channel=0, data=[76, 20]),
   midi.NoteOnEvent(tick=0, channel=0, data=[80, 25]),
   midi.NoteOnEvent(tick=228, channel=0, data=[80, 0]),
   midi.NoteOnEvent(tick=0, channel=0, data=[76, 0]),
   midi.NoteOnEvent(tick=0, channel=0, data=[73, 0]),
   midi.NoteOnEvent(tick=12, channel=0, data=[85, 0]),
   midi.NoteOnEvent(tick=0, channel=0, data=[80, 60]),
   midi.NoteOnEvent(tick=240, channel=0, data=[72, 22]),
   midi.NoteOnEvent(tick=0, channel=0, data=[75, 22]),
   midi.NoteOnEvent(tick=228, channel=0, data=[75, 0]),
   midi.NoteOnEvent(tick=0, channel=0, data=[72, 0]),
   midi.NoteOnEvent(tick=12, channel=0, data=[72, 20]),
   midi.NoteOnEvent(tick=0, channel=0, data=[75, 20]),
   midi.NoteOnEvent(tick=228, channel=0, data=[75, 0]),
   midi.NoteOnEvent(tick=0, channel=0, data=[72, 0]),
   midi.NoteOnEvent(tick=12, channel=0, data=[72, 20]),
   midi.NoteOnEvent(tick=0, channel=0, data=[75, 20]),
   midi.NoteOnEvent(tick=228, channel=0, data=[75, 0]),
   midi.NoteOnEvent(tick=0, channel=0, data=[72, 0]),
   midi.NoteOnEvent(tick=12, channel=0, data=[72, 20]),
   midi.NoteOnEvent(tick=0, channel=0, data=[75, 20]),
   midi.NoteOnEvent(tick=228, channel=0, data=[75, 0]),
   midi.NoteOnEvent(tick=0, channel=0, data=[72, 0]),
   midi.NoteOnEvent(tick=12, channel=0, data=[72, 20]),
   midi.NoteOnEvent(tick=0, channel=0, data=[75, 20]),
   midi.NoteOnEvent(tick=228, channel=0, data=[75, 0]),
   midi.NoteOnEvent(tick=0, channel=0, data=[72, 0]),
   midi.NoteOnEvent(tick=12, channel=0, data=[80, 0]),
   midi.NoteOnEvent(tick=0, channel=0, data=[68, 48]),
   midi.NoteOnEvent(tick=224, channel=0, data=[65, 27]),
   midi.NoteOnEvent(tick=0, channel=0, data=[56, 27]),
   midi.NoteOnEvent(tick=228, channel=0, data=[56, 0]),
   midi.NoteOnEvent(tick=0, channel=0, data=[65, 0]),
   midi.NoteOnEvent(tick=12, channel=0, data=[65, 26]),
   midi.NoteOnEvent(tick=0, channel=0, data=[56, 26]),
   midi.NoteOnEvent(tick=228, channel=0, data=[56, 0]),
   midi.NoteOnEvent(tick=0, channel=0, data=[65, 0]),
   midi.NoteOnEvent(tick=12, channel=0, data=[65, 26]),
   midi.NoteOnEvent(tick=0, channel=0, data=[56, 26]),
   midi.NoteOnEvent(tick=228, channel=0, data=[56, 0]),
   midi.NoteOnEvent(tick=0, channel=0, data=[65, 0]),
   midi.NoteOnEvent(tick=12, channel=0, data=[65, 26]),
   midi.NoteOnEvent(tick=0, channel=0, data=[56, 26]),
   midi.NoteOnEvent(tick=228, channel=0, data=[56, 0]),
   midi.NoteOnEvent(tick=0, channel=0, data=[65, 0]),
   midi.NoteOnEvent(tick=12, channel=0, data=[65, 26]),
   midi.NoteOnEvent(tick=0, channel=0, data=[56, 26]),
   midi.NoteOnEvent(tick=240, channel=0, data=[56, 0]),
   midi.NoteOnEvent(tick=0, channel=0, data=[65, 0]),
   midi.NoteOnEvent(tick=0, channel=0, data=[68, 0]),
   midi.NoteOnEvent(tick=0, channel=0, data=[68, 45]),
   midi.NoteOnEvent(tick=240, channel=0, data=[65, 26]),
   midi.NoteOnEvent(tick=0, channel=0, data=[56, 26]),
   midi.NoteOnEvent(tick=228, channel=0, data=[56, 0]),
   midi.NoteOnEvent(tick=0, channel=0, data=[65, 0]),
   midi.NoteOnEvent(tick=12, channel=0, data=[68, 0]),
   midi.NoteOnEvent(tick=0, channel=0, data=[70, 52]),
   midi.NoteOnEvent(tick=240, channel=0, data=[58, 27]),
   midi.NoteOnEvent(tick=0, channel=0, data=[65, 27]),
   midi.NoteOnEvent(tick=228, channel=0, data=[65, 0]),
   midi.NoteOnEvent(tick=0, channel=0, data=[58, 0]),
   midi.NoteOnEvent(tick=12, channel=0, data=[70, 0]),
   midi.NoteOnEvent(tick=0, channel=0, data=[68, 45]),
   midi.NoteOnEvent(tick=240, channel=0, data=[65, 26]),
   midi.NoteOnEvent(tick=0, channel=0, data=[56, 26]),
   midi.NoteOnEvent(tick=228, channel=0, data=[56, 0]),
   midi.NoteOnEvent(tick=12, channel=0, data=[65, 0]),
   midi.NoteOnEvent(tick=0, channel=0, data=[68, 0]),
   midi.NoteOnEvent(tick=0, channel=0, data=[70, 57]),
   midi.NoteOnEvent(tick=240, channel=0, data=[56, 26]),
   midi.NoteOnEvent(tick=0, channel=0, data=[66, 26]),
   midi.NoteOnEvent(tick=228, channel=0, data=[66, 0]),
   midi.NoteOnEvent(tick=0, channel=0, data=[56, 0]),
   midi.NoteOnEvent(tick=12, channel=0, data=[56, 26]),
   midi.NoteOnEvent(tick=0, channel=0, data=[66, 26]),
   midi.NoteOnEvent(tick=228, channel=0, data=[66, 0]),
   midi.NoteOnEvent(tick=0, channel=0, data=[56, 0]),
   midi.NoteOnEvent(tick=12, channel=0, data=[56, 26]),
   midi.NoteOnEvent(tick=0, channel=0, data=[66, 26]),
   midi.NoteOnEvent(tick=228, channel=0, data=[66, 0]),
   midi.NoteOnEvent(tick=0, channel=0, data=[56, 0]),
   midi.NoteOnEvent(tick=12, channel=0, data=[56, 26]),
   midi.NoteOnEvent(tick=0, channel=0, data=[66, 26]),
   midi.NoteOnEvent(tick=228, channel=0, data=[66, 0]),
   midi.NoteOnEvent(tick=0, channel=0, data=[56, 0]),
   midi.NoteOnEvent(tick=12, channel=0, data=[56, 26]),
   midi.NoteOnEvent(tick=0, channel=0, data=[66, 26]),
   midi.NoteOnEvent(tick=228, channel=0, data=[66, 0]),
   midi.NoteOnEvent(tick=0, channel=0, data=[56, 0]),
   midi.NoteOnEvent(tick=12, channel=0, data=[70, 0]),
   midi.NoteOnEvent(tick=0, channel=0, data=[68, 50]),
   midi.NoteOnEvent(tick=240, channel=0, data=[56, 28]),
   midi.NoteOnEvent(tick=0, channel=0, data=[66, 28]),
   midi.NoteOnEvent(tick=228, channel=0, data=[66, 0]),
   midi.NoteOnEvent(tick=0, channel=0, data=[56, 0]),
   midi.NoteOnEvent(tick=12, channel=0, data=[56, 29]),
   midi.NoteOnEvent(tick=0, channel=0, data=[66, 29]),
   midi.NoteOnEvent(tick=228, channel=0, data=[66, 0]),
   midi.NoteOnEvent(tick=0, channel=0, data=[56, 0]),
   midi.NoteOnEvent(tick=12, channel=0, data=[56, 29]),
   midi.NoteOnEvent(tick=0, channel=0, data=[66, 29]),
   midi.NoteOnEvent(tick=228, channel=0, data=[66, 0]),
   midi.NoteOnEvent(tick=0, channel=0, data=[56, 0]),
   midi.NoteOnEvent(tick=12, channel=0, data=[56, 29]),
   midi.NoteOnEvent(tick=0, channel=0, data=[66, 29]),
   midi.NoteOnEvent(tick=228, channel=0, data=[66, 0]),
   midi.NoteOnEvent(tick=0, channel=0, data=[56, 0]),
   midi.NoteOnEvent(tick=12, channel=0, data=[56, 29]),
   midi.NoteOnEvent(tick=0, channel=0, data=[66, 29]),
   midi.NoteOnEvent(tick=228, channel=0, data=[66, 0]),
   midi.NoteOnEvent(tick=0, channel=0, data=[56, 0]),
   midi.NoteOnEvent(tick=12, channel=0, data=[68, 0]),
   midi.NoteOnEvent(tick=0, channel=0, data=[68, 52]),
   midi.NoteOnEvent(tick=240, channel=0, data=[65, 26]),
   midi.NoteOnEvent(tick=0, channel=0, data=[56, 26]),
   midi.NoteOnEvent(tick=228, channel=0, data=[56, 0]),
   midi.NoteOnEvent(tick=0, channel=0, data=[65, 0]),
   midi.NoteOnEvent(tick=12, channel=0, data=[65, 26]),
   midi.NoteOnEvent(tick=0, channel=0, data=[56, 26]),
   midi.NoteOnEvent(tick=228, channel=0, data=[56, 0]),
   midi.NoteOnEvent(tick=0, channel=0, data=[65, 0]),
   midi.NoteOnEvent(tick=12, channel=0, data=[65, 26]),
   midi.NoteOnEvent(tick=0, channel=0, data=[56, 26]),
   midi.NoteOnEvent(tick=228, channel=0, data=[56, 0]),
   midi.NoteOnEvent(tick=0, channel=0, data=[65, 0]),
   midi.NoteOnEvent(tick=12, channel=0, data=[65, 26]),
   midi.NoteOnEvent(tick=0, channel=0, data=[56, 26]),
   midi.NoteOnEvent(tick=228, channel=0, data=[56, 0]),
   midi.NoteOnEvent(tick=0, channel=0, data=[65, 0]),
   midi.NoteOnEvent(tick=12, channel=0, data=[65, 27]),
   midi.NoteOnEvent(tick=0, channel=0, data=[56, 27]),
   midi.NoteOnEvent(tick=228, channel=0, data=[56, 0]),
   midi.NoteOnEvent(tick=0, channel=0, data=[65, 0]),
   midi.NoteOnEvent(tick=12, channel=0, data=[68, 0]),
   midi.NoteOnEvent(tick=0, channel=0, data=[77, 64]),
   midi.NoteOnEvent(tick=240, channel=0, data=[65, 28]),
   midi.NoteOnEvent(tick=0, channel=0, data=[68, 28]),
   midi.NoteOnEvent(tick=228, channel=0, data=[68, 0]),
   midi.NoteOnEvent(tick=0, channel=0, data=[65, 0]),
   midi.NoteOnEvent(tick=12, channel=0, data=[77, 0]),
   midi.NoteOnEvent(tick=0, channel=0, data=[75, 59]),
   midi.NoteOnEvent(tick=240, channel=0, data=[63, 27]),
   midi.NoteOnEvent(tick=0, channel=0, data=[68, 27]),
   midi.NoteOnEvent(tick=228, channel=0, data=[68, 0]),
   midi.NoteOnEvent(tick=0, channel=0, data=[63, 0]),
   midi.NoteOnEvent(tick=12, channel=0, data=[75, 0]),
   midi.NoteOnEvent(tick=0, channel=0, data=[73, 60]),
   midi.NoteOnEvent(tick=240, channel=0, data=[61, 27]),
   midi.NoteOnEvent(tick=0, channel=0, data=[68, 27]),
   midi.NoteOnEvent(tick=228, channel=0, data=[68, 0]),
   midi.NoteOnEvent(tick=0, channel=0, data=[61, 0]),
   midi.NoteOnEvent(tick=12, channel=0, data=[73, 0]),
   midi.NoteOnEvent(tick=0, channel=0, data=[73, 60]),
   midi.NoteOnEvent(tick=240, channel=0, data=[61, 27]),
   midi.NoteOnEvent(tick=0, channel=0, data=[68, 27]),
   midi.NoteOnEvent(tick=228, channel=0, data=[68, 0]),
   midi.NoteOnEvent(tick=0, channel=0, data=[61, 0]),
   midi.NoteOnEvent(tick=12, channel=0, data=[61, 27]),
   midi.NoteOnEvent(tick=0, channel=0, data=[68, 27]),
   midi.NoteOnEvent(tick=228, channel=0, data=[68, 0]),
   midi.NoteOnEvent(tick=0, channel=0, data=[61, 0]),
   midi.NoteOnEvent(tick=12, channel=0, data=[61, 27]),
   midi.NoteOnEvent(tick=0, channel=0, data=[68, 27]),
   midi.NoteOnEvent(tick=228, channel=0, data=[68, 0]),
   midi.NoteOnEvent(tick=0, channel=0, data=[61, 0]),
   midi.NoteOnEvent(tick=12, channel=0, data=[61, 27]),
   midi.NoteOnEvent(tick=0, channel=0, data=[68, 27]),
   midi.NoteOnEvent(tick=228, channel=0, data=[68, 0]),
   midi.NoteOnEvent(tick=0, channel=0, data=[61, 0]),
   midi.NoteOnEvent(tick=12, channel=0, data=[61, 27]),
   midi.NoteOnEvent(tick=0, channel=0, data=[68, 27]),
   midi.NoteOnEvent(tick=228, channel=0, data=[68, 0]),
   midi.NoteOnEvent(tick=0, channel=0, data=[61, 0]),
   midi.NoteOnEvent(tick=12, channel=0, data=[73, 0]),
   midi.NoteOnEvent(tick=0, channel=0, data=[72, 61]),
   midi.NoteOnEvent(tick=240, channel=0, data=[60, 27]),
   midi.NoteOnEvent(tick=0, channel=0, data=[68, 27]),
   midi.NoteOnEvent(tick=228, channel=0, data=[68, 0]),
   midi.NoteOnEvent(tick=0, channel=0, data=[60, 0]),
   midi.NoteOnEvent(tick=12, channel=0, data=[60, 27]),
   midi.NoteOnEvent(tick=0, channel=0, data=[68, 27]),
   midi.NoteOnEvent(tick=228, channel=0, data=[68, 0]),
   midi.NoteOnEvent(tick=0, channel=0, data=[60, 0]),
   midi.NoteOnEvent(tick=12, channel=0, data=[60, 27]),
   midi.NoteOnEvent(tick=0, channel=0, data=[68, 27]),
   midi.NoteOnEvent(tick=228, channel=0, data=[68, 0]),
   midi.NoteOnEvent(tick=0, channel=0, data=[60, 0]),
   midi.NoteOnEvent(tick=12, channel=0, data=[60, 27]),
   midi.NoteOnEvent(tick=0, channel=0, data=[68, 27]),
   midi.NoteOnEvent(tick=228, channel=0, data=[68, 0]),
   midi.NoteOnEvent(tick=0, channel=0, data=[60, 0]),
   midi.NoteOnEvent(tick=12, channel=0, data=[60, 27]),
   midi.NoteOnEvent(tick=0, channel=0, data=[68, 27]),
   midi.NoteOnEvent(tick=228, channel=0, data=[68, 0]),
   midi.NoteOnEvent(tick=0, channel=0, data=[60, 0]),
   midi.NoteOnEvent(tick=12, channel=0, data=[72, 0]),
   midi.NoteOnEvent(tick=0, channel=0, data=[72, 58]),
   midi.NoteOnEvent(tick=240, channel=0, data=[60, 35]),
   midi.NoteOnEvent(tick=0, channel=0, data=[69, 35]),
   midi.NoteOnEvent(tick=228, channel=0, data=[69, 0]),
   midi.NoteOnEvent(tick=0, channel=0, data=[60, 0]),
   midi.NoteOnEvent(tick=12, channel=0, data=[72, 0]),
   midi.NoteOnEvent(tick=0, channel=0, data=[73, 68]),
   midi.NoteOnEvent(tick=240, channel=0, data=[61, 35]),
   midi.NoteOnEvent(tick=0, channel=0, data=[69, 35]),
   midi.NoteOnEvent(tick=228, channel=0, data=[69, 0]),
   midi.NoteOnEvent(tick=0, channel=0, data=[61, 0]),
   midi.NoteOnEvent(tick=12, channel=0, data=[61, 35]),
   midi.NoteOnEvent(tick=0, channel=0, data=[69, 35]),
   midi.NoteOnEvent(tick=228, channel=0, data=[69, 0]),
   midi.NoteOnEvent(tick=0, channel=0, data=[61, 0]),
   midi.NoteOnEvent(tick=12, channel=0, data=[61, 35]),
   midi.NoteOnEvent(tick=0, channel=0, data=[69, 35]),
   midi.NoteOnEvent(tick=228, channel=0, data=[69, 0]),
   midi.NoteOnEvent(tick=0, channel=0, data=[61, 0]),
   midi.NoteOnEvent(tick=12, channel=0, data=[61, 35]),
   midi.NoteOnEvent(tick=0, channel=0, data=[69, 35]),
   midi.NoteOnEvent(tick=228, channel=0, data=[69, 0]),
   midi.NoteOnEvent(tick=0, channel=0, data=[61, 0]),
   midi.NoteOnEvent(tick=12, channel=0, data=[61, 35]),
   midi.NoteOnEvent(tick=0, channel=0, data=[69, 35]),
   midi.NoteOnEvent(tick=228, channel=0, data=[69, 0]),
   midi.NoteOnEvent(tick=0, channel=0, data=[61, 0]),
   midi.NoteOnEvent(tick=12, channel=0, data=[73, 0]),
   midi.NoteOnEvent(tick=0, channel=0, data=[73, 70]),
   midi.NoteOnEvent(tick=240, channel=0, data=[61, 35]),
   midi.NoteOnEvent(tick=0, channel=0, data=[69, 35]),
   midi.NoteOnEvent(tick=240, channel=0, data=[69, 0]),
   midi.NoteOnEvent(tick=0, channel=0, data=[61, 0]),
   midi.NoteOnEvent(tick=0, channel=0, data=[73, 0]),
   midi.NoteOnEvent(tick=0, channel=0, data=[73, 69]),
   midi.NoteOnEvent(tick=240, channel=0, data=[61, 35]),
   midi.NoteOnEvent(tick=0, channel=0, data=[69, 35]),
   midi.NoteOnEvent(tick=240, channel=0, data=[69, 0]),
   midi.NoteOnEvent(tick=0, channel=0, data=[61, 0]),
   midi.NoteOnEvent(tick=0, channel=0, data=[73, 0]),
   midi.NoteOnEvent(tick=0, channel=0, data=[73, 70]),
   midi.NoteOnEvent(tick=240, channel=0, data=[61, 44]),
   midi.NoteOnEvent(tick=0, channel=0, data=[68, 44]),
   midi.NoteOnEvent(tick=228, channel=0, data=[68, 0]),
   midi.NoteOnEvent(tick=0, channel=0, data=[61, 0]),
   midi.NoteOnEvent(tick=12, channel=0, data=[73, 0]),
   midi.NoteOnEvent(tick=0, channel=0, data=[74, 78]),
   midi.NoteOnEvent(tick=240, channel=0, data=[62, 44]),
   midi.NoteOnEvent(tick=0, channel=0, data=[68, 44]),
   midi.NoteOnEvent(tick=228, channel=0, data=[68, 0]),
   midi.NoteOnEvent(tick=0, channel=0, data=[62, 0]),
   midi.NoteOnEvent(tick=12, channel=0, data=[62, 44]),
   midi.NoteOnEvent(tick=0, channel=0, data=[68, 44]),
   midi.NoteOnEvent(tick=228, channel=0, data=[68, 0]),
   midi.NoteOnEvent(tick=0, channel=0, data=[62, 0]),
   midi.NoteOnEvent(tick=12, channel=0, data=[62, 44]),
   midi.NoteOnEvent(tick=0, channel=0, data=[68, 44]),
   midi.NoteOnEvent(tick=228, channel=0, data=[68, 0]),
   midi.NoteOnEvent(tick=0, channel=0, data=[62, 0]),
   midi.NoteOnEvent(tick=12, channel=0, data=[62, 44]),
   midi.NoteOnEvent(tick=0, channel=0, data=[68, 44]),
   midi.NoteOnEvent(tick=228, channel=0, data=[68, 0]),
   midi.NoteOnEvent(tick=0, channel=0, data=[62, 0]),
   midi.NoteOnEvent(tick=12, channel=0, data=[62, 44]),
   midi.NoteOnEvent(tick=0, channel=0, data=[68, 44]),
   midi.NoteOnEvent(tick=228, channel=0, data=[68, 0]),
   midi.NoteOnEvent(tick=0, channel=0, data=[62, 0]),
   midi.NoteOnEvent(tick=12, channel=0, data=[74, 0]),
   midi.NoteOnEvent(tick=0, channel=0, data=[74, 75]),
   midi.NoteOnEvent(tick=240, channel=0, data=[62, 44]),
   midi.NoteOnEvent(tick=0, channel=0, data=[68, 44]),
   midi.NoteOnEvent(tick=240, channel=0, data=[68, 0]),
   midi.NoteOnEvent(tick=0, channel=0, data=[62, 0]),
   midi.NoteOnEvent(tick=0, channel=0, data=[74, 0]),
   midi.NoteOnEvent(tick=0, channel=0, data=[74, 75]),
   midi.NoteOnEvent(tick=240, channel=0, data=[62, 44]),
   midi.NoteOnEvent(tick=0, channel=0, data=[68, 44]),
   midi.NoteOnEvent(tick=240, channel=0, data=[68, 0]),
   midi.NoteOnEvent(tick=0, channel=0, data=[62, 0]),
   midi.NoteOnEvent(tick=0, channel=0, data=[74, 0]),
   midi.NoteOnEvent(tick=0, channel=0, data=[77, 84]),
   midi.NoteOnEvent(tick=240, channel=0, data=[65, 46]),
   midi.NoteOnEvent(tick=0, channel=0, data=[74, 46]),
   midi.NoteOnEvent(tick=228, channel=0, data=[74, 0]),
   midi.NoteOnEvent(tick=0, channel=0, data=[65, 0]),
   midi.NoteOnEvent(tick=12, channel=0, data=[77, 0]),
   midi.NoteOnEvent(tick=0, channel=0, data=[78, 88]),
   midi.NoteOnEvent(tick=240, channel=0, data=[66, 48]),
   midi.NoteOnEvent(tick=0, channel=0, data=[74, 48]),
   midi.NoteOnEvent(tick=228, channel=0, data=[74, 0]),
   midi.NoteOnEvent(tick=0, channel=0, data=[66, 0]),
   midi.NoteOnEvent(tick=12, channel=0, data=[66, 47]),
   midi.NoteOnEvent(tick=0, channel=0, data=[74, 47]),
   midi.NoteOnEvent(tick=228, channel=0, data=[74, 0]),
   midi.NoteOnEvent(tick=0, channel=0, data=[66, 0]),
   midi.NoteOnEvent(tick=12, channel=0, data=[66, 47]),
   midi.NoteOnEvent(tick=0, channel=0, data=[74, 47]),
   midi.NoteOnEvent(tick=228, channel=0, data=[74, 0]),
   midi.NoteOnEvent(tick=0, channel=0, data=[66, 0]),
   midi.NoteOnEvent(tick=12, channel=0, data=[66, 47]),
   midi.NoteOnEvent(tick=0, channel=0, data=[74, 47]),
   midi.NoteOnEvent(tick=228, channel=0, data=[74, 0]),
   midi.NoteOnEvent(tick=0, channel=0, data=[66, 0]),
   midi.NoteOnEvent(tick=12, channel=0, data=[66, 47]),
   midi.NoteOnEvent(tick=0, channel=0, data=[74, 47]),
   midi.NoteOnEvent(tick=228, channel=0, data=[74, 0]),
   midi.NoteOnEvent(tick=0, channel=0, data=[66, 0]),
   midi.NoteOnEvent(tick=12, channel=0, data=[78, 0]),
   midi.NoteOnEvent(tick=0, channel=0, data=[78, 86]),
   midi.NoteOnEvent(tick=240, channel=0, data=[66, 48]),
   midi.NoteOnEvent(tick=0, channel=0, data=[74, 48]),
   midi.NoteOnEvent(tick=240, channel=0, data=[74, 0]),
   midi.NoteOnEvent(tick=0, channel=0, data=[66, 0]),
   midi.NoteOnEvent(tick=0, channel=0, data=[78, 0]),
   midi.NoteOnEvent(tick=0, channel=0, data=[78, 86]),
   midi.NoteOnEvent(tick=240, channel=0, data=[66, 47]),
   midi.NoteOnEvent(tick=0, channel=0, data=[74, 47]),
   midi.NoteOnEvent(tick=240, channel=0, data=[74, 0]),
   midi.NoteOnEvent(tick=0, channel=0, data=[66, 0]),
   midi.NoteOnEvent(tick=0, channel=0, data=[78, 0]),
   midi.NoteOnEvent(tick=0, channel=0, data=[78, 86]),
   midi.NoteOnEvent(tick=240, channel=0, data=[66, 47]),
   midi.NoteOnEvent(tick=0, channel=0, data=[73, 47]),
   midi.NoteOnEvent(tick=240, channel=0, data=[73, 0]),
   midi.NoteOnEvent(tick=0, channel=0, data=[66, 0]),
   midi.NoteOnEvent(tick=0, channel=0, data=[78, 0]),
   midi.NoteOnEvent(tick=0, channel=0, data=[79, 96]),
   midi.NoteOnEvent(tick=240, channel=0, data=[67, 49]),
   midi.NoteOnEvent(tick=0, channel=0, data=[73, 49]),
   midi.NoteOnEvent(tick=228, channel=0, data=[73, 0]),
   midi.NoteOnEvent(tick=0, channel=0, data=[67, 0]),
   midi.NoteOnEvent(tick=12, channel=0, data=[67, 49]),
   midi.NoteOnEvent(tick=0, channel=0, data=[73, 49]),
   midi.NoteOnEvent(tick=228, channel=0, data=[73, 0]),
   midi.NoteOnEvent(tick=0, channel=0, data=[67, 0]),
   midi.NoteOnEvent(tick=12, channel=0, data=[67, 49]),
   midi.NoteOnEvent(tick=0, channel=0, data=[73, 49]),
   midi.NoteOnEvent(tick=228, channel=0, data=[73, 0]),
   midi.NoteOnEvent(tick=0, channel=0, data=[67, 0]),
   midi.NoteOnEvent(tick=12, channel=0, data=[67, 49]),
   midi.NoteOnEvent(tick=0, channel=0, data=[73, 49]),
   midi.NoteOnEvent(tick=228, channel=0, data=[73, 0]),
   midi.NoteOnEvent(tick=0, channel=0, data=[67, 0]),
   midi.NoteOnEvent(tick=12, channel=0, data=[67, 49]),
   midi.NoteOnEvent(tick=0, channel=0, data=[73, 49]),
   midi.NoteOnEvent(tick=228, channel=0, data=[73, 0]),
   midi.NoteOnEvent(tick=0, channel=0, data=[67, 0]),
   midi.NoteOnEvent(tick=12, channel=0, data=[79, 0]),
   midi.NoteOnEvent(tick=0, channel=0, data=[79, 93]),
   midi.NoteOnEvent(tick=240, channel=0, data=[67, 48]),
   midi.NoteOnEvent(tick=0, channel=0, data=[73, 48]),
   midi.NoteOnEvent(tick=240, channel=0, data=[73, 0]),
   midi.NoteOnEvent(tick=0, channel=0, data=[67, 0]),
   midi.NoteOnEvent(tick=0, channel=0, data=[79, 0]),
   midi.NoteOnEvent(tick=0, channel=0, data=[79, 96]),
   midi.NoteOnEvent(tick=240, channel=0, data=[67, 50]),
   midi.NoteOnEvent(tick=0, channel=0, data=[73, 50]),
   midi.NoteOnEvent(tick=240, channel=0, data=[73, 0]),
   midi.NoteOnEvent(tick=0, channel=0, data=[67, 0]),
   midi.NoteOnEvent(tick=0, channel=0, data=[79, 0]),
   midi.NoteOnEvent(tick=0, channel=0, data=[81, 98]),
   midi.NoteOnEvent(tick=240, channel=0, data=[73, 51]),
   midi.NoteOnEvent(tick=0, channel=0, data=[69, 51]),
   midi.NoteOnEvent(tick=228, channel=0, data=[69, 0]),
   midi.NoteOnEvent(tick=0, channel=0, data=[73, 0]),
   midi.NoteOnEvent(tick=12, channel=0, data=[81, 0]),
   midi.NoteOnEvent(tick=0, channel=0, data=[80, 95]),
   midi.NoteOnEvent(tick=240, channel=0, data=[68, 51]),
   midi.NoteOnEvent(tick=0, channel=0, data=[73, 51]),
   midi.NoteOnEvent(tick=228, channel=0, data=[73, 0]),
   midi.NoteOnEvent(tick=0, channel=0, data=[68, 0]),
   midi.NoteOnEvent(tick=12, channel=0, data=[68, 44]),
   midi.NoteOnEvent(tick=0, channel=0, data=[73, 44]),
   midi.NoteOnEvent(tick=228, channel=0, data=[73, 0]),
   midi.NoteOnEvent(tick=0, channel=0, data=[68, 0]),
   midi.NoteOnEvent(tick=12, channel=0, data=[68, 51]),
   midi.NoteOnEvent(tick=0, channel=0, data=[73, 51]),
   midi.NoteOnEvent(tick=228, channel=0, data=[73, 0]),
   midi.NoteOnEvent(tick=0, channel=0, data=[68, 0]),
   midi.NoteOnEvent(tick=12, channel=0, data=[80, 0]),
   midi.NoteOnEvent(tick=0, channel=0, data=[81, 97]),
   midi.NoteOnEvent(tick=240, channel=0, data=[69, 52]),
   midi.NoteOnEvent(tick=0, channel=0, data=[72, 52]),
   midi.NoteOnEvent(tick=228, channel=0, data=[72, 0]),
   midi.NoteOnEvent(tick=0, channel=0, data=[69, 0]),
   midi.NoteOnEvent(tick=12, channel=0, data=[81, 0]),
   midi.NoteOnEvent(tick=0, channel=0, data=[80, 93]),
   midi.NoteOnEvent(tick=240, channel=0, data=[68, 52]),
   midi.NoteOnEvent(tick=0, channel=0, data=[72, 52]),
   midi.NoteOnEvent(tick=228, channel=0, data=[72, 0]),
   midi.NoteOnEvent(tick=0, channel=0, data=[68, 0]),
   midi.NoteOnEvent(tick=12, channel=0, data=[68, 52]),
   midi.NoteOnEvent(tick=0, channel=0, data=[72, 52]),
   midi.NoteOnEvent(tick=228, channel=0, data=[72, 0]),
   midi.NoteOnEvent(tick=0, channel=0, data=[68, 0]),
   midi.NoteOnEvent(tick=12, channel=0, data=[68, 52]),
   midi.NoteOnEvent(tick=0, channel=0, data=[72, 52]),
   midi.NoteOnEvent(tick=228, channel=0, data=[72, 0]),
   midi.NoteOnEvent(tick=0, channel=0, data=[68, 0]),
   midi.NoteOnEvent(tick=12, channel=0, data=[80, 0]),
   midi.NoteOnEvent(tick=0, channel=0, data=[73, 86]),
   midi.NoteOnEvent(tick=240, channel=0, data=[68, 44]),
   midi.NoteOnEvent(tick=0, channel=0, data=[61, 44]),
   midi.NoteOnEvent(tick=0, channel=0, data=[64, 44]),
   midi.NoteOnEvent(tick=228, channel=0, data=[64, 0]),
   midi.NoteOnEvent(tick=0, channel=0, data=[61, 0]),
   midi.NoteOnEvent(tick=0, channel=0, data=[68, 0]),
   midi.NoteOnEvent(tick=12, channel=0, data=[68, 44]),
   midi.NoteOnEvent(tick=0, channel=0, data=[61, 44]),
   midi.NoteOnEvent(tick=0, channel=0, data=[64, 44]),
   midi.NoteOnEvent(tick=228, channel=0, data=[64, 0]),
   midi.NoteOnEvent(tick=0, channel=0, data=[61, 0]),
   midi.NoteOnEvent(tick=0, channel=0, data=[68, 0]),
   midi.NoteOnEvent(tick=12, channel=0, data=[68, 44]),
   midi.NoteOnEvent(tick=0, channel=0, data=[61, 44]),
   midi.NoteOnEvent(tick=0, channel=0, data=[64, 44]),
   midi.NoteOnEvent(tick=228, channel=0, data=[64, 0]),
   midi.NoteOnEvent(tick=0, channel=0, data=[61, 0]),
   midi.NoteOnEvent(tick=0, channel=0, data=[68, 0]),
   midi.NoteOnEvent(tick=12, channel=0, data=[68, 44]),
   midi.NoteOnEvent(tick=0, channel=0, data=[61, 44]),
   midi.NoteOnEvent(tick=0, channel=0, data=[64, 44]),
   midi.NoteOnEvent(tick=228, channel=0, data=[64, 0]),
   midi.NoteOnEvent(tick=0, channel=0, data=[61, 0]),
   midi.NoteOnEvent(tick=0, channel=0, data=[68, 0]),
   midi.NoteOnEvent(tick=12, channel=0, data=[68, 44]),
   midi.NoteOnEvent(tick=0, channel=0, data=[61, 44]),
   midi.NoteOnEvent(tick=0, channel=0, data=[64, 44]),
   midi.NoteOnEvent(tick=228, channel=0, data=[64, 0]),
   midi.NoteOnEvent(tick=0, channel=0, data=[61, 0]),
   midi.NoteOnEvent(tick=0, channel=0, data=[68, 0]),
   midi.NoteOnEvent(tick=12, channel=0, data=[68, 44]),
   midi.NoteOnEvent(tick=0, channel=0, data=[61, 44]),
   midi.NoteOnEvent(tick=0, channel=0, data=[64, 44]),
   midi.NoteOnEvent(tick=228, channel=0, data=[64, 0]),
   midi.NoteOnEvent(tick=0, channel=0, data=[61, 0]),
   midi.NoteOnEvent(tick=0, channel=0, data=[68, 0]),
   midi.NoteOnEvent(tick=12, channel=0, data=[68, 44]),
   midi.NoteOnEvent(tick=0, channel=0, data=[61, 44]),
   midi.NoteOnEvent(tick=0, channel=0, data=[64, 44]),
   midi.NoteOnEvent(tick=228, channel=0, data=[64, 0]),
   midi.NoteOnEvent(tick=0, channel=0, data=[61, 0]),
   midi.NoteOnEvent(tick=0, channel=0, data=[68, 0]),
   midi.NoteOnEvent(tick=12, channel=0, data=[73, 0]),
   midi.NoteOnEvent(tick=0, channel=0, data=[68, 48]),
   midi.NoteOnEvent(tick=240, channel=0, data=[61, 26]),
   midi.NoteOnEvent(tick=0, channel=0, data=[64, 26]),
   midi.NoteOnEvent(tick=228, channel=0, data=[64, 0]),
   midi.NoteOnEvent(tick=0, channel=0, data=[61, 0]),
   midi.NoteOnEvent(tick=12, channel=0, data=[68, 0]),
   midi.NoteOnEvent(tick=0, channel=0, data=[68, 42]),
   midi.NoteOnEvent(tick=240, channel=0, data=[61, 26]),
   midi.NoteOnEvent(tick=0, channel=0, data=[64, 26]),
   midi.NoteOnEvent(tick=228, channel=0, data=[64, 0]),
   midi.NoteOnEvent(tick=0, channel=0, data=[61, 0]),
   midi.NoteOnEvent(tick=12, channel=0, data=[68, 0]),
   midi.NoteOnEvent(tick=0, channel=0, data=[68, 59]),
   midi.NoteOnEvent(tick=240, channel=0, data=[63, 26]),
   midi.NoteOnEvent(tick=0, channel=0, data=[60, 26]),
   midi.NoteOnEvent(tick=228, channel=0, data=[60, 0]),
   midi.NoteOnEvent(tick=0, channel=0, data=[63, 0]),
   midi.NoteOnEvent(tick=12, channel=0, data=[68, 0]),
   midi.NoteOnEvent(tick=0, channel=0, data=[69, 61]),
   midi.NoteOnEvent(tick=240, channel=0, data=[60, 26]),
   midi.NoteOnEvent(tick=0, channel=0, data=[63, 26]),
   midi.NoteOnEvent(tick=228, channel=0, data=[63, 0]),
   midi.NoteOnEvent(tick=0, channel=0, data=[60, 0]),
   midi.NoteOnEvent(tick=12, channel=0, data=[60, 26]),
   midi.NoteOnEvent(tick=0, channel=0, data=[63, 26]),
   midi.NoteOnEvent(tick=228, channel=0, data=[63, 0]),
   midi.NoteOnEvent(tick=0, channel=0, data=[60, 0]),
   midi.NoteOnEvent(tick=12, channel=0, data=[60, 26]),
   midi.NoteOnEvent(tick=0, channel=0, data=[63, 26]),
   midi.NoteOnEvent(tick=228, channel=0, data=[63, 0]),
   midi.NoteOnEvent(tick=0, channel=0, data=[60, 0]),
   midi.NoteOnEvent(tick=12, channel=0, data=[60, 26]),
   midi.NoteOnEvent(tick=0, channel=0, data=[63, 26]),
   midi.NoteOnEvent(tick=228, channel=0, data=[63, 0]),
   midi.NoteOnEvent(tick=0, channel=0, data=[60, 0]),
   midi.NoteOnEvent(tick=12, channel=0, data=[60, 26]),
   midi.NoteOnEvent(tick=0, channel=0, data=[63, 26]),
   midi.NoteOnEvent(tick=228, channel=0, data=[63, 0]),
   midi.NoteOnEvent(tick=0, channel=0, data=[60, 0]),
   midi.NoteOnEvent(tick=12, channel=0, data=[69, 0]),
   midi.NoteOnEvent(tick=0, channel=0, data=[68, 60]),
   midi.NoteOnEvent(tick=240, channel=0, data=[60, 26]),
   midi.NoteOnEvent(tick=0, channel=0, data=[63, 26]),
   midi.NoteOnEvent(tick=228, channel=0, data=[63, 0]),
   midi.NoteOnEvent(tick=0, channel=0, data=[60, 0]),
   midi.NoteOnEvent(tick=12, channel=0, data=[68, 0]),
   midi.NoteOnEvent(tick=0, channel=0, data=[66, 56]),
   midi.NoteOnEvent(tick=240, channel=0, data=[60, 34]),
   midi.NoteOnEvent(tick=0, channel=0, data=[63, 26]),
   midi.NoteOnEvent(tick=228, channel=0, data=[63, 0]),
   midi.NoteOnEvent(tick=0, channel=0, data=[60, 0]),
   midi.NoteOnEvent(tick=12, channel=0, data=[66, 0]),
   midi.NoteOnEvent(tick=0, channel=0, data=[64, 69]),
   midi.NoteOnEvent(tick=240, channel=0, data=[56, 26]),
   midi.NoteOnEvent(tick=0, channel=0, data=[61, 26]),
   midi.NoteOnEvent(tick=228, channel=0, data=[61, 0]),
   midi.NoteOnEvent(tick=0, channel=0, data=[56, 0]),
   midi.NoteOnEvent(tick=12, channel=0, data=[64, 0]),
   midi.NoteOnEvent(tick=0, channel=0, data=[68, 64]),
   midi.NoteOnEvent(tick=240, channel=0, data=[64, 29]),
   midi.NoteOnEvent(tick=0, channel=0, data=[61, 29]),
   midi.NoteOnEvent(tick=228, channel=0, data=[61, 0]),
   midi.NoteOnEvent(tick=0, channel=0, data=[64, 0]),
   midi.NoteOnEvent(tick=12, channel=0, data=[68, 0]),
   midi.NoteOnEvent(tick=0, channel=0, data=[73, 68]),
   midi.NoteOnEvent(tick=240, channel=0, data=[64, 31]),
   midi.NoteOnEvent(tick=0, channel=0, data=[68, 31]),
   midi.NoteOnEvent(tick=228, channel=0, data=[68, 0]),
   midi.NoteOnEvent(tick=0, channel=0, data=[64, 0]),
   midi.NoteOnEvent(tick=12, channel=0, data=[73, 0]),
   midi.NoteOnEvent(tick=0, channel=0, data=[76, 77]),
   midi.NoteOnEvent(tick=240, channel=0, data=[68, 34]),
   midi.NoteOnEvent(tick=0, channel=0, data=[73, 34]),
   midi.NoteOnEvent(tick=228, channel=0, data=[73, 0]),
   midi.NoteOnEvent(tick=0, channel=0, data=[68, 0]),
   midi.NoteOnEvent(tick=12, channel=0, data=[76, 0]),
   midi.NoteOnEvent(tick=0, channel=0, data=[80, 75]),
   midi.NoteOnEvent(tick=240, channel=0, data=[73, 37]),
   midi.NoteOnEvent(tick=0, channel=0, data=[76, 37]),
   midi.NoteOnEvent(tick=228, channel=0, data=[76, 0]),
   midi.NoteOnEvent(tick=0, channel=0, data=[73, 0]),
   midi.NoteOnEvent(tick=12, channel=0, data=[80, 0]),
   midi.NoteOnEvent(tick=0, channel=0, data=[85, 79]),
   midi.NoteOnEvent(tick=240, channel=0, data=[76, 39]),
   midi.NoteOnEvent(tick=0, channel=0, data=[80, 39]),
   midi.NoteOnEvent(tick=228, channel=0, data=[80, 0]),
   midi.NoteOnEvent(tick=0, channel=0, data=[76, 0]),
   midi.NoteOnEvent(tick=12, channel=0, data=[85, 0]),
   midi.NoteOnEvent(tick=0, channel=0, data=[87, 99]),
   midi.NoteOnEvent(tick=240, channel=0, data=[75, 51]),
   midi.NoteOnEvent(tick=0, channel=0, data=[79, 51]),
   midi.NoteOnEvent(tick=228, channel=0, data=[79, 0]),
   midi.NoteOnEvent(tick=0, channel=0, data=[75, 0]),
   midi.NoteOnEvent(tick=12, channel=0, data=[87, 0]),
   midi.NoteOnEvent(tick=0, channel=0, data=[88, 96]),
   midi.NoteOnEvent(tick=240, channel=0, data=[79, 45]),
   midi.NoteOnEvent(tick=0, channel=0, data=[76, 45]),
   midi.NoteOnEvent(tick=228, channel=0, data=[76, 0]),
   midi.NoteOnEvent(tick=0, channel=0, data=[79, 0]),
   midi.NoteOnEvent(tick=12, channel=0, data=[79, 40]),
   midi.NoteOnEvent(tick=0, channel=0, data=[76, 40]),
   midi.NoteOnEvent(tick=228, channel=0, data=[76, 0]),
   midi.NoteOnEvent(tick=0, channel=0, data=[79, 0]),
   midi.NoteOnEvent(tick=12, channel=0, data=[79, 39]),
   midi.NoteOnEvent(tick=0, channel=0, data=[76, 39]),
   midi.NoteOnEvent(tick=228, channel=0, data=[76, 0]),
   midi.NoteOnEvent(tick=0, channel=0, data=[79, 0]),
   midi.NoteOnEvent(tick=12, channel=0, data=[79, 37]),
   midi.NoteOnEvent(tick=0, channel=0, data=[76, 37]),
   midi.NoteOnEvent(tick=228, channel=0, data=[76, 0]),
   midi.NoteOnEvent(tick=0, channel=0, data=[79, 0]),
   midi.NoteOnEvent(tick=12, channel=0, data=[76, 37]),
   midi.NoteOnEvent(tick=0, channel=0, data=[79, 37]),
   midi.NoteOnEvent(tick=228, channel=0, data=[79, 0]),
   midi.NoteOnEvent(tick=0, channel=0, data=[76, 0]),
   midi.NoteOnEvent(tick=12, channel=0, data=[88, 0]),
   midi.NoteOnEvent(tick=0, channel=0, data=[87, 88]),
   midi.NoteOnEvent(tick=240, channel=0, data=[75, 31]),
   midi.NoteOnEvent(tick=0, channel=0, data=[79, 31]),
   midi.NoteOnEvent(tick=228, channel=0, data=[79, 0]),
   midi.NoteOnEvent(tick=0, channel=0, data=[75, 0]),
   midi.NoteOnEvent(tick=12, channel=0, data=[87, 0]),
   midi.NoteOnEvent(tick=0, channel=0, data=[85, 81]),
   midi.NoteOnEvent(tick=240, channel=0, data=[73, 28]),
   midi.NoteOnEvent(tick=0, channel=0, data=[79, 28]),
   midi.NoteOnEvent(tick=228, channel=0, data=[79, 0]),
   midi.NoteOnEvent(tick=0, channel=0, data=[73, 0]),
   midi.NoteOnEvent(tick=12, channel=0, data=[85, 0]),
   midi.NoteOnEvent(tick=0, channel=0, data=[85, 68]),
   midi.NoteOnEvent(tick=240, channel=0, data=[75, 26]),
   midi.NoteOnEvent(tick=0, channel=0, data=[80, 26]),
   midi.NoteOnEvent(tick=240, channel=0, data=[80, 0]),
   midi.NoteOnEvent(tick=0, channel=0, data=[75, 0]),
   midi.NoteOnEvent(tick=0, channel=0, data=[85, 0]),
   midi.NoteOnEvent(tick=0, channel=0, data=[84, 59]),
   midi.NoteOnEvent(tick=240, channel=0, data=[75, 26]),
   midi.NoteOnEvent(tick=0, channel=0, data=[80, 26]),
   midi.NoteOnEvent(tick=240, channel=0, data=[80, 0]),
   midi.NoteOnEvent(tick=0, channel=0, data=[75, 0]),
   midi.NoteOnEvent(tick=0, channel=0, data=[84, 0]),
   midi.NoteOnEvent(tick=0, channel=0, data=[80, 58]),
   midi.NoteOnEvent(tick=240, channel=0, data=[72, 26]),
   midi.NoteOnEvent(tick=0, channel=0, data=[75, 26]),
   midi.NoteOnEvent(tick=228, channel=0, data=[75, 0]),
   midi.NoteOnEvent(tick=0, channel=0, data=[72, 0]),
   midi.NoteOnEvent(tick=12, channel=0, data=[80, 0]),
   midi.NoteOnEvent(tick=0, channel=0, data=[75, 58]),
   midi.NoteOnEvent(tick=240, channel=0, data=[68, 26]),
   midi.NoteOnEvent(tick=0, channel=0, data=[72, 26]),
   midi.NoteOnEvent(tick=228, channel=0, data=[72, 0]),
   midi.NoteOnEvent(tick=0, channel=0, data=[68, 0]),
   midi.NoteOnEvent(tick=12, channel=0, data=[75, 0]),
   midi.NoteOnEvent(tick=0, channel=0, data=[72, 58]),
   midi.NoteOnEvent(tick=240, channel=0, data=[63, 26]),
   midi.NoteOnEvent(tick=0, channel=0, data=[68, 26]),
   midi.NoteOnEvent(tick=228, channel=0, data=[68, 0]),
   midi.NoteOnEvent(tick=0, channel=0, data=[63, 0]),
   midi.NoteOnEvent(tick=12, channel=0, data=[72, 0]),
   midi.NoteOnEvent(tick=0, channel=0, data=[68, 58]),
   midi.NoteOnEvent(tick=240, channel=0, data=[60, 26]),
   midi.NoteOnEvent(tick=0, channel=0, data=[63, 26]),
   midi.NoteOnEvent(tick=228, channel=0, data=[63, 0]),
   midi.NoteOnEvent(tick=0, channel=0, data=[60, 0]),
   midi.NoteOnEvent(tick=12, channel=0, data=[68, 0]),
   midi.NoteOnEvent(tick=0, channel=0, data=[68, 59]),
   midi.NoteOnEvent(tick=240, channel=0, data=[63, 26]),
   midi.NoteOnEvent(tick=0, channel=0, data=[60, 26]),
   midi.NoteOnEvent(tick=228, channel=0, data=[60, 0]),
   midi.NoteOnEvent(tick=0, channel=0, data=[63, 0]),
   midi.NoteOnEvent(tick=12, channel=0, data=[68, 0]),
   midi.NoteOnEvent(tick=0, channel=0, data=[69, 61]),
   midi.NoteOnEvent(tick=240, channel=0, data=[60, 26]),
   midi.NoteOnEvent(tick=0, channel=0, data=[63, 26]),
   midi.NoteOnEvent(tick=228, channel=0, data=[63, 0]),
   midi.NoteOnEvent(tick=0, channel=0, data=[60, 0]),
   midi.NoteOnEvent(tick=12, channel=0, data=[60, 26]),
   midi.NoteOnEvent(tick=0, channel=0, data=[63, 26]),
   midi.NoteOnEvent(tick=228, channel=0, data=[63, 0]),
   midi.NoteOnEvent(tick=0, channel=0, data=[60, 0]),
   midi.NoteOnEvent(tick=12, channel=0, data=[60, 26]),
   midi.NoteOnEvent(tick=0, channel=0, data=[63, 26]),
   midi.NoteOnEvent(tick=228, channel=0, data=[63, 0]),
   midi.NoteOnEvent(tick=0, channel=0, data=[60, 0]),
   midi.NoteOnEvent(tick=12, channel=0, data=[60, 26]),
   midi.NoteOnEvent(tick=0, channel=0, data=[63, 26]),
   midi.NoteOnEvent(tick=228, channel=0, data=[63, 0]),
   midi.NoteOnEvent(tick=0, channel=0, data=[60, 0]),
   midi.NoteOnEvent(tick=12, channel=0, data=[60, 26]),
   midi.NoteOnEvent(tick=0, channel=0, data=[63, 26]),
   midi.NoteOnEvent(tick=228, channel=0, data=[63, 0]),
   midi.NoteOnEvent(tick=0, channel=0, data=[60, 0]),
   midi.NoteOnEvent(tick=12, channel=0, data=[69, 0]),
   midi.NoteOnEvent(tick=0, channel=0, data=[68, 60]),
   midi.NoteOnEvent(tick=240, channel=0, data=[60, 26]),
   midi.NoteOnEvent(tick=0, channel=0, data=[63, 26]),
   midi.NoteOnEvent(tick=228, channel=0, data=[63, 0]),
   midi.NoteOnEvent(tick=0, channel=0, data=[60, 0]),
   midi.NoteOnEvent(tick=12, channel=0, data=[68, 0]),
   midi.NoteOnEvent(tick=0, channel=0, data=[66, 56]),
   midi.NoteOnEvent(tick=240, channel=0, data=[60, 34]),
   midi.NoteOnEvent(tick=0, channel=0, data=[63, 26]),
   midi.NoteOnEvent(tick=228, channel=0, data=[63, 0]),
   midi.NoteOnEvent(tick=0, channel=0, data=[60, 0]),
   midi.NoteOnEvent(tick=12, channel=0, data=[66, 0]),
   midi.NoteOnEvent(tick=0, channel=0, data=[64, 68]),
   midi.NoteOnEvent(tick=240, channel=0, data=[56, 26]),
   midi.NoteOnEvent(tick=0, channel=0, data=[61, 26]),
   midi.NoteOnEvent(tick=228, channel=0, data=[61, 0]),
   midi.NoteOnEvent(tick=0, channel=0, data=[56, 0]),
   midi.NoteOnEvent(tick=12, channel=0, data=[64, 0]),
   midi.NoteOnEvent(tick=0, channel=0, data=[68, 64]),
   midi.NoteOnEvent(tick=240, channel=0, data=[64, 29]),
   midi.NoteOnEvent(tick=0, channel=0, data=[61, 29]),
   midi.NoteOnEvent(tick=228, channel=0, data=[61, 0]),
   midi.NoteOnEvent(tick=0, channel=0, data=[64, 0]),
   midi.NoteOnEvent(tick=12, channel=0, data=[68, 0]),
   midi.NoteOnEvent(tick=0, channel=0, data=[73, 68]),
   midi.NoteOnEvent(tick=240, channel=0, data=[64, 31]),
   midi.NoteOnEvent(tick=0, channel=0, data=[68, 31]),
   midi.NoteOnEvent(tick=228, channel=0, data=[68, 0]),
   midi.NoteOnEvent(tick=0, channel=0, data=[64, 0]),
   midi.NoteOnEvent(tick=12, channel=0, data=[73, 0]),
   midi.NoteOnEvent(tick=0, channel=0, data=[76, 71]),
   midi.NoteOnEvent(tick=240, channel=0, data=[68, 34]),
   midi.NoteOnEvent(tick=0, channel=0, data=[73, 34]),
   midi.NoteOnEvent(tick=228, channel=0, data=[73, 0]),
   midi.NoteOnEvent(tick=0, channel=0, data=[68, 0]),
   midi.NoteOnEvent(tick=12, channel=0, data=[76, 0]),
   midi.NoteOnEvent(tick=0, channel=0, data=[80, 75]),
   midi.NoteOnEvent(tick=240, channel=0, data=[73, 37]),
   midi.NoteOnEvent(tick=0, channel=0, data=[76, 37]),
   midi.NoteOnEvent(tick=228, channel=0, data=[76, 0]),
   midi.NoteOnEvent(tick=0, channel=0, data=[73, 0]),
   midi.NoteOnEvent(tick=12, channel=0, data=[80, 0]),
   midi.NoteOnEvent(tick=0, channel=0, data=[85, 79]),
   midi.NoteOnEvent(tick=240, channel=0, data=[76, 39]),
   midi.NoteOnEvent(tick=0, channel=0, data=[80, 39]),
   midi.NoteOnEvent(tick=228, channel=0, data=[80, 0]),
   midi.NoteOnEvent(tick=0, channel=0, data=[76, 0]),
   midi.NoteOnEvent(tick=12, channel=0, data=[85, 0]),
   midi.NoteOnEvent(tick=0, channel=0, data=[87, 99]),
   midi.NoteOnEvent(tick=240, channel=0, data=[75, 51]),
   midi.NoteOnEvent(tick=0, channel=0, data=[79, 51]),
   midi.NoteOnEvent(tick=228, channel=0, data=[79, 0]),
   midi.NoteOnEvent(tick=0, channel=0, data=[75, 0]),
   midi.NoteOnEvent(tick=12, channel=0, data=[87, 0]),
   midi.NoteOnEvent(tick=0, channel=0, data=[88, 96]),
   midi.NoteOnEvent(tick=240, channel=0, data=[79, 45]),
   midi.NoteOnEvent(tick=0, channel=0, data=[76, 45]),
   midi.NoteOnEvent(tick=228, channel=0, data=[76, 0]),
   midi.NoteOnEvent(tick=0, channel=0, data=[79, 0]),
   midi.NoteOnEvent(tick=12, channel=0, data=[79, 40]),
   midi.NoteOnEvent(tick=0, channel=0, data=[76, 40]),
   midi.NoteOnEvent(tick=228, channel=0, data=[76, 0]),
   midi.NoteOnEvent(tick=0, channel=0, data=[79, 0]),
   midi.NoteOnEvent(tick=12, channel=0, data=[79, 39]),
   midi.NoteOnEvent(tick=0, channel=0, data=[76, 39]),
   midi.NoteOnEvent(tick=228, channel=0, data=[76, 0]),
   midi.NoteOnEvent(tick=0, channel=0, data=[79, 0]),
   midi.NoteOnEvent(tick=12, channel=0, data=[79, 37]),
   midi.NoteOnEvent(tick=0, channel=0, data=[76, 37]),
   midi.NoteOnEvent(tick=228, channel=0, data=[76, 0]),
   midi.NoteOnEvent(tick=0, channel=0, data=[79, 0]),
   midi.NoteOnEvent(tick=12, channel=0, data=[76, 37]),
   midi.NoteOnEvent(tick=0, channel=0, data=[79, 37]),
   midi.NoteOnEvent(tick=228, channel=0, data=[79, 0]),
   midi.NoteOnEvent(tick=0, channel=0, data=[76, 0]),
   midi.NoteOnEvent(tick=12, channel=0, data=[88, 0]),
   midi.NoteOnEvent(tick=0, channel=0, data=[87, 88]),
   midi.NoteOnEvent(tick=240, channel=0, data=[75, 31]),
   midi.NoteOnEvent(tick=0, channel=0, data=[79, 31]),
   midi.NoteOnEvent(tick=228, channel=0, data=[79, 0]),
   midi.NoteOnEvent(tick=0, channel=0, data=[75, 0]),
   midi.NoteOnEvent(tick=12, channel=0, data=[87, 0]),
   midi.NoteOnEvent(tick=0, channel=0, data=[85, 81]),
   midi.NoteOnEvent(tick=240, channel=0, data=[73, 28]),
   midi.NoteOnEvent(tick=0, channel=0, data=[79, 28]),
   midi.NoteOnEvent(tick=228, channel=0, data=[79, 0]),
   midi.NoteOnEvent(tick=0, channel=0, data=[73, 0]),
   midi.NoteOnEvent(tick=12, channel=0, data=[85, 0]),
   midi.NoteOnEvent(tick=0, channel=0, data=[85, 71]),
   midi.NoteOnEvent(tick=240, channel=0, data=[73, 27]),
   midi.NoteOnEvent(tick=0, channel=0, data=[76, 27]),
   midi.NoteOnEvent(tick=0, channel=0, data=[80, 27]),
   midi.NoteOnEvent(tick=228, channel=0, data=[80, 0]),
   midi.NoteOnEvent(tick=0, channel=0, data=[76, 0]),
   midi.NoteOnEvent(tick=0, channel=0, data=[73, 0]),
   midi.NoteOnEvent(tick=12, channel=0, data=[73, 27]),
   midi.NoteOnEvent(tick=0, channel=0, data=[76, 27]),
   midi.NoteOnEvent(tick=0, channel=0, data=[80, 27]),
   midi.NoteOnEvent(tick=228, channel=0, data=[80, 0]),
   midi.NoteOnEvent(tick=0, channel=0, data=[76, 0]),
   midi.NoteOnEvent(tick=0, channel=0, data=[73, 0]),
   midi.NoteOnEvent(tick=12, channel=0, data=[73, 27]),
   midi.NoteOnEvent(tick=0, channel=0, data=[76, 27]),
   midi.NoteOnEvent(tick=0, channel=0, data=[80, 27]),
   midi.NoteOnEvent(tick=228, channel=0, data=[80, 0]),
   midi.NoteOnEvent(tick=0, channel=0, data=[76, 0]),
   midi.NoteOnEvent(tick=0, channel=0, data=[73, 0]),
   midi.NoteOnEvent(tick=12, channel=0, data=[73, 27]),
   midi.NoteOnEvent(tick=0, channel=0, data=[76, 27]),
   midi.NoteOnEvent(tick=0, channel=0, data=[80, 27]),
   midi.NoteOnEvent(tick=228, channel=0, data=[80, 0]),
   midi.NoteOnEvent(tick=0, channel=0, data=[76, 0]),
   midi.NoteOnEvent(tick=0, channel=0, data=[73, 0]),
   midi.NoteOnEvent(tick=12, channel=0, data=[73, 25]),
   midi.NoteOnEvent(tick=0, channel=0, data=[76, 25]),
   midi.NoteOnEvent(tick=0, channel=0, data=[80, 25]),
   midi.NoteOnEvent(tick=228, channel=0, data=[80, 0]),
   midi.NoteOnEvent(tick=0, channel=0, data=[76, 0]),
   midi.NoteOnEvent(tick=0, channel=0, data=[73, 0]),
   midi.NoteOnEvent(tick=12, channel=0, data=[85, 0]),
   midi.NoteOnEvent(tick=0, channel=0, data=[80, 62]),
   midi.NoteOnEvent(tick=240, channel=0, data=[72, 22]),
   midi.NoteOnEvent(tick=0, channel=0, data=[75, 22]),
   midi.NoteOnEvent(tick=228, channel=0, data=[75, 0]),
   midi.NoteOnEvent(tick=0, channel=0, data=[72, 0]),
   midi.NoteOnEvent(tick=12, channel=0, data=[72, 20]),
   midi.NoteOnEvent(tick=0, channel=0, data=[75, 20]),
   midi.NoteOnEvent(tick=228, channel=0, data=[75, 0]),
   midi.NoteOnEvent(tick=0, channel=0, data=[72, 0]),
   midi.NoteOnEvent(tick=12, channel=0, data=[72, 20]),
   midi.NoteOnEvent(tick=0, channel=0, data=[75, 20]),
   midi.NoteOnEvent(tick=228, channel=0, data=[75, 0]),
   midi.NoteOnEvent(tick=0, channel=0, data=[72, 0]),
   midi.NoteOnEvent(tick=12, channel=0, data=[72, 20]),
   midi.NoteOnEvent(tick=0, channel=0, data=[75, 20]),
   midi.NoteOnEvent(tick=228, channel=0, data=[75, 0]),
   midi.NoteOnEvent(tick=0, channel=0, data=[72, 0]),
   midi.NoteOnEvent(tick=12, channel=0, data=[72, 20]),
   midi.NoteOnEvent(tick=0, channel=0, data=[75, 20]),
   midi.NoteOnEvent(tick=228, channel=0, data=[75, 0]),
   midi.NoteOnEvent(tick=0, channel=0, data=[72, 0]),
   midi.NoteOnEvent(tick=12, channel=0, data=[80, 0]),
   midi.NoteOnEvent(tick=0, channel=0, data=[68, 48]),
   midi.NoteOnEvent(tick=224, channel=0, data=[65, 27]),
   midi.NoteOnEvent(tick=0, channel=0, data=[56, 27]),
   midi.NoteOnEvent(tick=228, channel=0, data=[56, 0]),
   midi.NoteOnEvent(tick=0, channel=0, data=[65, 0]),
   midi.NoteOnEvent(tick=12, channel=0, data=[65, 26]),
   midi.NoteOnEvent(tick=0, channel=0, data=[56, 26]),
   midi.NoteOnEvent(tick=228, channel=0, data=[56, 0]),
   midi.NoteOnEvent(tick=0, channel=0, data=[65, 0]),
   midi.NoteOnEvent(tick=12, channel=0, data=[65, 26]),
   midi.NoteOnEvent(tick=0, channel=0, data=[56, 26]),
   midi.NoteOnEvent(tick=228, channel=0, data=[56, 0]),
   midi.NoteOnEvent(tick=0, channel=0, data=[65, 0]),
   midi.NoteOnEvent(tick=12, channel=0, data=[65, 26]),
   midi.NoteOnEvent(tick=0, channel=0, data=[56, 26]),
   midi.NoteOnEvent(tick=228, channel=0, data=[56, 0]),
   midi.NoteOnEvent(tick=0, channel=0, data=[65, 0]),
   midi.NoteOnEvent(tick=12, channel=0, data=[65, 26]),
   midi.NoteOnEvent(tick=0, channel=0, data=[56, 26]),
   midi.NoteOnEvent(tick=228, channel=0, data=[56, 0]),
   midi.NoteOnEvent(tick=0, channel=0, data=[65, 0]),
   midi.NoteOnEvent(tick=12, channel=0, data=[68, 0]),
   midi.NoteOnEvent(tick=0, channel=0, data=[68, 50]),
   midi.NoteOnEvent(tick=240, channel=0, data=[65, 26]),
   midi.NoteOnEvent(tick=0, channel=0, data=[56, 26]),
   midi.NoteOnEvent(tick=228, channel=0, data=[56, 0]),
   midi.NoteOnEvent(tick=0, channel=0, data=[65, 0]),
   midi.NoteOnEvent(tick=12, channel=0, data=[68, 0]),
   midi.NoteOnEvent(tick=0, channel=0, data=[70, 52]),
   midi.NoteOnEvent(tick=240, channel=0, data=[58, 27]),
   midi.NoteOnEvent(tick=0, channel=0, data=[65, 27]),
   midi.NoteOnEvent(tick=228, channel=0, data=[65, 0]),
   midi.NoteOnEvent(tick=0, channel=0, data=[58, 0]),
   midi.NoteOnEvent(tick=12, channel=0, data=[70, 0]),
   midi.NoteOnEvent(tick=0, channel=0, data=[68, 45]),
   midi.NoteOnEvent(tick=240, channel=0, data=[65, 26]),
   midi.NoteOnEvent(tick=0, channel=0, data=[56, 26]),
   midi.NoteOnEvent(tick=228, channel=0, data=[56, 0]),
   midi.NoteOnEvent(tick=0, channel=0, data=[65, 0]),
   midi.NoteOnEvent(tick=12, channel=0, data=[68, 0]),
   midi.NoteOnEvent(tick=0, channel=0, data=[70, 57]),
   midi.NoteOnEvent(tick=240, channel=0, data=[56, 26]),
   midi.NoteOnEvent(tick=0, channel=0, data=[66, 26]),
   midi.NoteOnEvent(tick=228, channel=0, data=[66, 0]),
   midi.NoteOnEvent(tick=0, channel=0, data=[56, 0]),
   midi.NoteOnEvent(tick=12, channel=0, data=[56, 26]),
   midi.NoteOnEvent(tick=0, channel=0, data=[66, 26]),
   midi.NoteOnEvent(tick=228, channel=0, data=[66, 0]),
   midi.NoteOnEvent(tick=0, channel=0, data=[56, 0]),
   midi.NoteOnEvent(tick=12, channel=0, data=[56, 26]),
   midi.NoteOnEvent(tick=0, channel=0, data=[66, 26]),
   midi.NoteOnEvent(tick=228, channel=0, data=[66, 0]),
   midi.NoteOnEvent(tick=0, channel=0, data=[56, 0]),
   midi.NoteOnEvent(tick=12, channel=0, data=[56, 26]),
   midi.NoteOnEvent(tick=0, channel=0, data=[66, 26]),
   midi.NoteOnEvent(tick=228, channel=0, data=[66, 0]),
   midi.NoteOnEvent(tick=0, channel=0, data=[56, 0]),
   midi.NoteOnEvent(tick=12, channel=0, data=[56, 26]),
   midi.NoteOnEvent(tick=0, channel=0, data=[66, 26]),
   midi.NoteOnEvent(tick=240, channel=0, data=[66, 0]),
   midi.NoteOnEvent(tick=0, channel=0, data=[56, 0]),
   midi.NoteOnEvent(tick=0, channel=0, data=[70, 0]),
   midi.NoteOnEvent(tick=0, channel=0, data=[68, 50]),
   midi.NoteOnEvent(tick=240, channel=0, data=[56, 28]),
   midi.NoteOnEvent(tick=0, channel=0, data=[66, 28]),
   midi.NoteOnEvent(tick=228, channel=0, data=[66, 0]),
   midi.NoteOnEvent(tick=0, channel=0, data=[56, 0]),
   midi.NoteOnEvent(tick=12, channel=0, data=[56, 29]),
   midi.NoteOnEvent(tick=0, channel=0, data=[66, 29]),
   midi.NoteOnEvent(tick=228, channel=0, data=[66, 0]),
   midi.NoteOnEvent(tick=0, channel=0, data=[56, 0]),
   midi.NoteOnEvent(tick=12, channel=0, data=[56, 29]),
   midi.NoteOnEvent(tick=0, channel=0, data=[66, 29]),
   midi.NoteOnEvent(tick=228, channel=0, data=[66, 0]),
   midi.NoteOnEvent(tick=0, channel=0, data=[56, 0]),
   midi.NoteOnEvent(tick=12, channel=0, data=[56, 29]),
   midi.NoteOnEvent(tick=0, channel=0, data=[66, 29]),
   midi.NoteOnEvent(tick=228, channel=0, data=[66, 0]),
   midi.NoteOnEvent(tick=0, channel=0, data=[56, 0]),
   midi.NoteOnEvent(tick=12, channel=0, data=[56, 29]),
   midi.NoteOnEvent(tick=0, channel=0, data=[66, 29]),
   midi.NoteOnEvent(tick=228, channel=0, data=[66, 0]),
   midi.NoteOnEvent(tick=0, channel=0, data=[56, 0]),
   midi.NoteOnEvent(tick=12, channel=0, data=[68, 0]),
   midi.NoteOnEvent(tick=0, channel=0, data=[68, 52]),
   midi.NoteOnEvent(tick=240, channel=0, data=[65, 26]),
   midi.NoteOnEvent(tick=0, channel=0, data=[56, 26]),
   midi.NoteOnEvent(tick=228, channel=0, data=[56, 0]),
   midi.NoteOnEvent(tick=0, channel=0, data=[65, 0]),
   midi.NoteOnEvent(tick=12, channel=0, data=[65, 26]),
   midi.NoteOnEvent(tick=0, channel=0, data=[56, 26]),
   midi.NoteOnEvent(tick=228, channel=0, data=[56, 0]),
   midi.NoteOnEvent(tick=0, channel=0, data=[65, 0]),
   midi.NoteOnEvent(tick=12, channel=0, data=[65, 26]),
   midi.NoteOnEvent(tick=0, channel=0, data=[56, 26]),
   midi.NoteOnEvent(tick=228, channel=0, data=[56, 0]),
   midi.NoteOnEvent(tick=0, channel=0, data=[65, 0]),
   midi.NoteOnEvent(tick=12, channel=0, data=[65, 26]),
   midi.NoteOnEvent(tick=0, channel=0, data=[56, 26]),
   midi.NoteOnEvent(tick=228, channel=0, data=[56, 0]),
   midi.NoteOnEvent(tick=0, channel=0, data=[65, 0]),
   midi.NoteOnEvent(tick=12, channel=0, data=[65, 27]),
   midi.NoteOnEvent(tick=0, channel=0, data=[56, 27]),
   midi.NoteOnEvent(tick=240, channel=0, data=[56, 0]),
   midi.NoteOnEvent(tick=0, channel=0, data=[65, 0]),
   midi.NoteOnEvent(tick=0, channel=0, data=[68, 0]),
   midi.NoteOnEvent(tick=0, channel=0, data=[77, 66]),
   midi.NoteOnEvent(tick=240, channel=0, data=[65, 28]),
   midi.NoteOnEvent(tick=0, channel=0, data=[68, 28]),
   midi.NoteOnEvent(tick=228, channel=0, data=[68, 0]),
   midi.NoteOnEvent(tick=0, channel=0, data=[65, 0]),
   midi.NoteOnEvent(tick=12, channel=0, data=[77, 0]),
   midi.NoteOnEvent(tick=0, channel=0, data=[75, 62]),
   midi.NoteOnEvent(tick=240, channel=0, data=[63, 27]),
   midi.NoteOnEvent(tick=0, channel=0, data=[68, 27]),
   midi.NoteOnEvent(tick=228, channel=0, data=[68, 0]),
   midi.NoteOnEvent(tick=0, channel=0, data=[63, 0]),
   midi.NoteOnEvent(tick=12, channel=0, data=[75, 0]),
   midi.NoteOnEvent(tick=0, channel=0, data=[73, 60]),
   midi.NoteOnEvent(tick=240, channel=0, data=[61, 27]),
   midi.NoteOnEvent(tick=0, channel=0, data=[68, 27]),
   midi.NoteOnEvent(tick=228, channel=0, data=[68, 0]),
   midi.NoteOnEvent(tick=0, channel=0, data=[61, 0]),
   midi.NoteOnEvent(tick=12, channel=0, data=[73, 0]),
   midi.NoteOnEvent(tick=0, channel=0, data=[73, 60]),
   midi.NoteOnEvent(tick=240, channel=0, data=[61, 27]),
   midi.NoteOnEvent(tick=0, channel=0, data=[68, 27]),
   midi.NoteOnEvent(tick=228, channel=0, data=[68, 0]),
   midi.NoteOnEvent(tick=0, channel=0, data=[61, 0]),
   midi.NoteOnEvent(tick=12, channel=0, data=[61, 27]),
   midi.NoteOnEvent(tick=0, channel=0, data=[68, 27]),
   midi.NoteOnEvent(tick=228, channel=0, data=[68, 0]),
   midi.NoteOnEvent(tick=0, channel=0, data=[61, 0]),
   midi.NoteOnEvent(tick=12, channel=0, data=[61, 27]),
   midi.NoteOnEvent(tick=0, channel=0, data=[68, 27]),
   midi.NoteOnEvent(tick=228, channel=0, data=[68, 0]),
   midi.NoteOnEvent(tick=0, channel=0, data=[61, 0]),
   midi.NoteOnEvent(tick=12, channel=0, data=[61, 27]),
   midi.NoteOnEvent(tick=0, channel=0, data=[68, 27]),
   midi.NoteOnEvent(tick=228, channel=0, data=[68, 0]),
   midi.NoteOnEvent(tick=0, channel=0, data=[61, 0]),
   midi.NoteOnEvent(tick=12, channel=0, data=[61, 27]),
   midi.NoteOnEvent(tick=0, channel=0, data=[68, 27]),
   midi.NoteOnEvent(tick=228, channel=0, data=[68, 0]),
   midi.NoteOnEvent(tick=0, channel=0, data=[61, 0]),
   midi.NoteOnEvent(tick=12, channel=0, data=[73, 0]),
   midi.NoteOnEvent(tick=0, channel=0, data=[72, 61]),
   midi.NoteOnEvent(tick=240, channel=0, data=[60, 27]),
   midi.NoteOnEvent(tick=0, channel=0, data=[68, 27]),
   midi.NoteOnEvent(tick=228, channel=0, data=[68, 0]),
   midi.NoteOnEvent(tick=0, channel=0, data=[60, 0]),
   midi.NoteOnEvent(tick=12, channel=0, data=[60, 27]),
   midi.NoteOnEvent(tick=0, channel=0, data=[68, 27]),
   midi.NoteOnEvent(tick=228, channel=0, data=[68, 0]),
   midi.NoteOnEvent(tick=0, channel=0, data=[60, 0]),
   midi.NoteOnEvent(tick=12, channel=0, data=[60, 27]),
   midi.NoteOnEvent(tick=0, channel=0, data=[68, 27]),
   midi.NoteOnEvent(tick=228, channel=0, data=[68, 0]),
   midi.NoteOnEvent(tick=0, channel=0, data=[60, 0]),
   midi.NoteOnEvent(tick=12, channel=0, data=[60, 27]),
   midi.NoteOnEvent(tick=0, channel=0, data=[68, 27]),
   midi.NoteOnEvent(tick=228, channel=0, data=[68, 0]),
   midi.NoteOnEvent(tick=0, channel=0, data=[60, 0]),
   midi.NoteOnEvent(tick=12, channel=0, data=[60, 27]),
   midi.NoteOnEvent(tick=0, channel=0, data=[68, 27]),
   midi.NoteOnEvent(tick=228, channel=0, data=[68, 0]),
   midi.NoteOnEvent(tick=0, channel=0, data=[60, 0]),
   midi.NoteOnEvent(tick=12, channel=0, data=[72, 0]),
   midi.NoteOnEvent(tick=0, channel=0, data=[72, 58]),
   midi.NoteOnEvent(tick=240, channel=0, data=[60, 35]),
   midi.NoteOnEvent(tick=0, channel=0, data=[69, 35]),
   midi.NoteOnEvent(tick=228, channel=0, data=[69, 0]),
   midi.NoteOnEvent(tick=0, channel=0, data=[60, 0]),
   midi.NoteOnEvent(tick=12, channel=0, data=[72, 0]),
   midi.NoteOnEvent(tick=0, channel=0, data=[73, 68]),
   midi.NoteOnEvent(tick=240, channel=0, data=[61, 35]),
   midi.NoteOnEvent(tick=0, channel=0, data=[69, 35]),
   midi.NoteOnEvent(tick=228, channel=0, data=[69, 0]),
   midi.NoteOnEvent(tick=0, channel=0, data=[61, 0]),
   midi.NoteOnEvent(tick=12, channel=0, data=[61, 35]),
   midi.NoteOnEvent(tick=0, channel=0, data=[69, 35]),
   midi.NoteOnEvent(tick=228, channel=0, data=[69, 0]),
   midi.NoteOnEvent(tick=0, channel=0, data=[61, 0]),
   midi.NoteOnEvent(tick=12, channel=0, data=[61, 35]),
   midi.NoteOnEvent(tick=0, channel=0, data=[69, 35]),
   midi.NoteOnEvent(tick=228, channel=0, data=[69, 0]),
   midi.NoteOnEvent(tick=0, channel=0, data=[61, 0]),
   midi.NoteOnEvent(tick=12, channel=0, data=[61, 35]),
   midi.NoteOnEvent(tick=0, channel=0, data=[69, 35]),
   midi.NoteOnEvent(tick=228, channel=0, data=[69, 0]),
   midi.NoteOnEvent(tick=0, channel=0, data=[61, 0]),
   midi.NoteOnEvent(tick=12, channel=0, data=[61, 35]),
   midi.NoteOnEvent(tick=0, channel=0, data=[69, 35]),
   midi.NoteOnEvent(tick=228, channel=0, data=[69, 0]),
   midi.NoteOnEvent(tick=0, channel=0, data=[61, 0]),
   midi.NoteOnEvent(tick=12, channel=0, data=[73, 0]),
   midi.NoteOnEvent(tick=0, channel=0, data=[73, 70]),
   midi.NoteOnEvent(tick=240, channel=0, data=[61, 35]),
   midi.NoteOnEvent(tick=0, channel=0, data=[69, 35]),
   midi.NoteOnEvent(tick=240, channel=0, data=[69, 0]),
   midi.NoteOnEvent(tick=0, channel=0, data=[61, 0]),
   midi.NoteOnEvent(tick=0, channel=0, data=[73, 0]),
   midi.NoteOnEvent(tick=0, channel=0, data=[73, 69]),
   midi.NoteOnEvent(tick=240, channel=0, data=[61, 35]),
   midi.NoteOnEvent(tick=0, channel=0, data=[69, 35]),
   midi.NoteOnEvent(tick=240, channel=0, data=[69, 0]),
   midi.NoteOnEvent(tick=0, channel=0, data=[61, 0]),
   midi.NoteOnEvent(tick=0, channel=0, data=[73, 0]),
   midi.NoteOnEvent(tick=0, channel=0, data=[73, 70]),
   midi.NoteOnEvent(tick=240, channel=0, data=[61, 44]),
   midi.NoteOnEvent(tick=0, channel=0, data=[68, 44]),
   midi.NoteOnEvent(tick=228, channel=0, data=[68, 0]),
   midi.NoteOnEvent(tick=0, channel=0, data=[61, 0]),
   midi.NoteOnEvent(tick=12, channel=0, data=[73, 0]),
   midi.NoteOnEvent(tick=0, channel=0, data=[74, 78]),
   midi.NoteOnEvent(tick=240, channel=0, data=[62, 44]),
   midi.NoteOnEvent(tick=0, channel=0, data=[68, 44]),
   midi.NoteOnEvent(tick=228, channel=0, data=[68, 0]),
   midi.NoteOnEvent(tick=0, channel=0, data=[62, 0]),
   midi.NoteOnEvent(tick=12, channel=0, data=[62, 44]),
   midi.NoteOnEvent(tick=0, channel=0, data=[68, 44]),
   midi.NoteOnEvent(tick=228, channel=0, data=[68, 0]),
   midi.NoteOnEvent(tick=0, channel=0, data=[62, 0]),
   midi.NoteOnEvent(tick=12, channel=0, data=[62, 44]),
   midi.NoteOnEvent(tick=0, channel=0, data=[68, 44]),
   midi.NoteOnEvent(tick=228, channel=0, data=[68, 0]),
   midi.NoteOnEvent(tick=0, channel=0, data=[62, 0]),
   midi.NoteOnEvent(tick=12, channel=0, data=[62, 44]),
   midi.NoteOnEvent(tick=0, channel=0, data=[68, 44]),
   midi.NoteOnEvent(tick=228, channel=0, data=[68, 0]),
   midi.NoteOnEvent(tick=0, channel=0, data=[62, 0]),
   midi.NoteOnEvent(tick=12, channel=0, data=[62, 44]),
   midi.NoteOnEvent(tick=0, channel=0, data=[68, 44]),
   midi.NoteOnEvent(tick=228, channel=0, data=[68, 0]),
   midi.NoteOnEvent(tick=0, channel=0, data=[62, 0]),
   midi.NoteOnEvent(tick=12, channel=0, data=[74, 0]),
   midi.NoteOnEvent(tick=0, channel=0, data=[74, 75]),
   midi.NoteOnEvent(tick=240, channel=0, data=[62, 44]),
   midi.NoteOnEvent(tick=0, channel=0, data=[68, 44]),
   midi.NoteOnEvent(tick=240, channel=0, data=[68, 0]),
   midi.NoteOnEvent(tick=0, channel=0, data=[62, 0]),
   midi.NoteOnEvent(tick=0, channel=0, data=[74, 0]),
   midi.NoteOnEvent(tick=0, channel=0, data=[74, 75]),
   midi.NoteOnEvent(tick=240, channel=0, data=[62, 44]),
   midi.NoteOnEvent(tick=0, channel=0, data=[68, 44]),
   midi.NoteOnEvent(tick=240, channel=0, data=[68, 0]),
   midi.NoteOnEvent(tick=0, channel=0, data=[62, 0]),
   midi.NoteOnEvent(tick=0, channel=0, data=[74, 0]),
   midi.NoteOnEvent(tick=0, channel=0, data=[77, 84]),
   midi.NoteOnEvent(tick=240, channel=0, data=[65, 46]),
   midi.NoteOnEvent(tick=0, channel=0, data=[74, 46]),
   midi.NoteOnEvent(tick=228, channel=0, data=[74, 0]),
   midi.NoteOnEvent(tick=0, channel=0, data=[65, 0]),
   midi.NoteOnEvent(tick=12, channel=0, data=[77, 0]),
   midi.NoteOnEvent(tick=0, channel=0, data=[78, 88]),
   midi.NoteOnEvent(tick=240, channel=0, data=[66, 48]),
   midi.NoteOnEvent(tick=0, channel=0, data=[74, 48]),
   midi.NoteOnEvent(tick=228, channel=0, data=[74, 0]),
   midi.NoteOnEvent(tick=0, channel=0, data=[66, 0]),
   midi.NoteOnEvent(tick=12, channel=0, data=[66, 47]),
   midi.NoteOnEvent(tick=0, channel=0, data=[74, 47]),
   midi.NoteOnEvent(tick=228, channel=0, data=[74, 0]),
   midi.NoteOnEvent(tick=0, channel=0, data=[66, 0]),
   midi.NoteOnEvent(tick=12, channel=0, data=[66, 47]),
   midi.NoteOnEvent(tick=0, channel=0, data=[74, 47]),
   midi.NoteOnEvent(tick=228, channel=0, data=[74, 0]),
   midi.NoteOnEvent(tick=0, channel=0, data=[66, 0]),
   midi.NoteOnEvent(tick=12, channel=0, data=[66, 47]),
   midi.NoteOnEvent(tick=0, channel=0, data=[74, 47]),
   midi.NoteOnEvent(tick=228, channel=0, data=[74, 0]),
   midi.NoteOnEvent(tick=0, channel=0, data=[66, 0]),
   midi.NoteOnEvent(tick=12, channel=0, data=[66, 47]),
   midi.NoteOnEvent(tick=0, channel=0, data=[74, 47]),
   midi.NoteOnEvent(tick=228, channel=0, data=[74, 0]),
   midi.NoteOnEvent(tick=0, channel=0, data=[66, 0]),
   midi.NoteOnEvent(tick=12, channel=0, data=[78, 0]),
   midi.NoteOnEvent(tick=0, channel=0, data=[78, 86]),
   midi.NoteOnEvent(tick=240, channel=0, data=[66, 48]),
   midi.NoteOnEvent(tick=0, channel=0, data=[74, 48]),
   midi.NoteOnEvent(tick=240, channel=0, data=[74, 0]),
   midi.NoteOnEvent(tick=0, channel=0, data=[66, 0]),
   midi.NoteOnEvent(tick=0, channel=0, data=[78, 0]),
   midi.NoteOnEvent(tick=0, channel=0, data=[78, 86]),
   midi.NoteOnEvent(tick=240, channel=0, data=[66, 47]),
   midi.NoteOnEvent(tick=0, channel=0, data=[74, 47]),
   midi.NoteOnEvent(tick=240, channel=0, data=[74, 0]),
   midi.NoteOnEvent(tick=0, channel=0, data=[66, 0]),
   midi.NoteOnEvent(tick=0, channel=0, data=[78, 0]),
   midi.NoteOnEvent(tick=0, channel=0, data=[78, 86]),
   midi.NoteOnEvent(tick=240, channel=0, data=[66, 47]),
   midi.NoteOnEvent(tick=0, channel=0, data=[73, 47]),
   midi.NoteOnEvent(tick=240, channel=0, data=[73, 0]),
   midi.NoteOnEvent(tick=0, channel=0, data=[66, 0]),
   midi.NoteOnEvent(tick=0, channel=0, data=[78, 0]),
   midi.NoteOnEvent(tick=0, channel=0, data=[79, 96]),
   midi.NoteOnEvent(tick=240, channel=0, data=[67, 49]),
   midi.NoteOnEvent(tick=0, channel=0, data=[73, 49]),
   midi.NoteOnEvent(tick=228, channel=0, data=[73, 0]),
   midi.NoteOnEvent(tick=0, channel=0, data=[67, 0]),
   midi.NoteOnEvent(tick=12, channel=0, data=[67, 49]),
   midi.NoteOnEvent(tick=0, channel=0, data=[73, 49]),
   midi.NoteOnEvent(tick=228, channel=0, data=[73, 0]),
   midi.NoteOnEvent(tick=0, channel=0, data=[67, 0]),
   midi.NoteOnEvent(tick=12, channel=0, data=[67, 49]),
   midi.NoteOnEvent(tick=0, channel=0, data=[73, 49]),
   midi.NoteOnEvent(tick=228, channel=0, data=[73, 0]),
   midi.NoteOnEvent(tick=0, channel=0, data=[67, 0]),
   midi.NoteOnEvent(tick=12, channel=0, data=[67, 49]),
   midi.NoteOnEvent(tick=0, channel=0, data=[73, 49]),
   midi.NoteOnEvent(tick=228, channel=0, data=[73, 0]),
   midi.NoteOnEvent(tick=0, channel=0, data=[67, 0]),
   midi.NoteOnEvent(tick=12, channel=0, data=[67, 49]),
   midi.NoteOnEvent(tick=0, channel=0, data=[73, 49]),
   midi.NoteOnEvent(tick=228, channel=0, data=[73, 0]),
   midi.NoteOnEvent(tick=0, channel=0, data=[67, 0]),
   midi.NoteOnEvent(tick=12, channel=0, data=[79, 0]),
   midi.NoteOnEvent(tick=0, channel=0, data=[79, 94]),
   midi.NoteOnEvent(tick=240, channel=0, data=[67, 48]),
   midi.NoteOnEvent(tick=0, channel=0, data=[73, 48]),
   midi.NoteOnEvent(tick=240, channel=0, data=[73, 0]),
   midi.NoteOnEvent(tick=0, channel=0, data=[67, 0]),
   midi.NoteOnEvent(tick=0, channel=0, data=[79, 0]),
   midi.NoteOnEvent(tick=0, channel=0, data=[79, 97]),
   midi.NoteOnEvent(tick=240, channel=0, data=[67, 50]),
   midi.NoteOnEvent(tick=0, channel=0, data=[73, 50]),
   midi.NoteOnEvent(tick=240, channel=0, data=[73, 0]),
   midi.NoteOnEvent(tick=0, channel=0, data=[67, 0]),
   midi.NoteOnEvent(tick=0, channel=0, data=[79, 0]),
   midi.NoteOnEvent(tick=0, channel=0, data=[81, 99]),
   midi.NoteOnEvent(tick=240, channel=0, data=[73, 51]),
   midi.NoteOnEvent(tick=0, channel=0, data=[69, 51]),
   midi.NoteOnEvent(tick=228, channel=0, data=[69, 0]),
   midi.NoteOnEvent(tick=0, channel=0, data=[73, 0]),
   midi.NoteOnEvent(tick=12, channel=0, data=[81, 0]),
   midi.NoteOnEvent(tick=0, channel=0, data=[80, 96]),
   midi.NoteOnEvent(tick=240, channel=0, data=[68, 51]),
   midi.NoteOnEvent(tick=0, channel=0, data=[73, 51]),
   midi.NoteOnEvent(tick=228, channel=0, data=[73, 0]),
   midi.NoteOnEvent(tick=0, channel=0, data=[68, 0]),
   midi.NoteOnEvent(tick=12, channel=0, data=[68, 44]),
   midi.NoteOnEvent(tick=0, channel=0, data=[73, 44]),
   midi.NoteOnEvent(tick=228, channel=0, data=[73, 0]),
   midi.NoteOnEvent(tick=0, channel=0, data=[68, 0]),
   midi.NoteOnEvent(tick=12, channel=0, data=[68, 51]),
   midi.NoteOnEvent(tick=0, channel=0, data=[73, 51]),
   midi.NoteOnEvent(tick=228, channel=0, data=[73, 0]),
   midi.NoteOnEvent(tick=0, channel=0, data=[68, 0]),
   midi.NoteOnEvent(tick=12, channel=0, data=[80, 0]),
   midi.NoteOnEvent(tick=0, channel=0, data=[81, 99]),
   midi.NoteOnEvent(tick=240, channel=0, data=[69, 52]),
   midi.NoteOnEvent(tick=0, channel=0, data=[72, 52]),
   midi.NoteOnEvent(tick=228, channel=0, data=[72, 0]),
   midi.NoteOnEvent(tick=0, channel=0, data=[69, 0]),
   midi.NoteOnEvent(tick=12, channel=0, data=[81, 0]),
   midi.NoteOnEvent(tick=0, channel=0, data=[80, 95]),
   midi.NoteOnEvent(tick=240, channel=0, data=[68, 52]),
   midi.NoteOnEvent(tick=0, channel=0, data=[72, 52]),
   midi.NoteOnEvent(tick=228, channel=0, data=[72, 0]),
   midi.NoteOnEvent(tick=0, channel=0, data=[68, 0]),
   midi.NoteOnEvent(tick=12, channel=0, data=[68, 52]),
   midi.NoteOnEvent(tick=0, channel=0, data=[72, 52]),
   midi.NoteOnEvent(tick=228, channel=0, data=[72, 0]),
   midi.NoteOnEvent(tick=0, channel=0, data=[68, 0]),
   midi.NoteOnEvent(tick=12, channel=0, data=[68, 52]),
   midi.NoteOnEvent(tick=0, channel=0, data=[72, 52]),
   midi.NoteOnEvent(tick=228, channel=0, data=[72, 0]),
   midi.NoteOnEvent(tick=0, channel=0, data=[68, 0]),
   midi.NoteOnEvent(tick=12, channel=0, data=[80, 0]),
   midi.NoteOnEvent(tick=0, channel=0, data=[73, 86]),
   midi.NoteOnEvent(tick=240, channel=0, data=[68, 44]),
   midi.NoteOnEvent(tick=0, channel=0, data=[61, 44]),
   midi.NoteOnEvent(tick=0, channel=0, data=[64, 44]),
   midi.NoteOnEvent(tick=228, channel=0, data=[64, 0]),
   midi.NoteOnEvent(tick=0, channel=0, data=[61, 0]),
   midi.NoteOnEvent(tick=0, channel=0, data=[68, 0]),
   midi.NoteOnEvent(tick=12, channel=0, data=[68, 44]),
   midi.NoteOnEvent(tick=0, channel=0, data=[61, 44]),
   midi.NoteOnEvent(tick=0, channel=0, data=[64, 44]),
   midi.NoteOnEvent(tick=228, channel=0, data=[64, 0]),
   midi.NoteOnEvent(tick=0, channel=0, data=[61, 0]),
   midi.NoteOnEvent(tick=0, channel=0, data=[68, 0]),
   midi.NoteOnEvent(tick=12, channel=0, data=[68, 44]),
   midi.NoteOnEvent(tick=0, channel=0, data=[61, 44]),
   midi.NoteOnEvent(tick=0, channel=0, data=[64, 44]),
   midi.NoteOnEvent(tick=228, channel=0, data=[64, 0]),
   midi.NoteOnEvent(tick=0, channel=0, data=[61, 0]),
   midi.NoteOnEvent(tick=0, channel=0, data=[68, 0]),
   midi.NoteOnEvent(tick=12, channel=0, data=[68, 44]),
   midi.NoteOnEvent(tick=0, channel=0, data=[61, 44]),
   midi.NoteOnEvent(tick=0, channel=0, data=[64, 44]),
   midi.NoteOnEvent(tick=228, channel=0, data=[64, 0]),
   midi.NoteOnEvent(tick=0, channel=0, data=[61, 0]),
   midi.NoteOnEvent(tick=0, channel=0, data=[68, 0]),
   midi.NoteOnEvent(tick=12, channel=0, data=[68, 44]),
   midi.NoteOnEvent(tick=0, channel=0, data=[61, 44]),
   midi.NoteOnEvent(tick=0, channel=0, data=[64, 44]),
   midi.NoteOnEvent(tick=228, channel=0, data=[64, 0]),
   midi.NoteOnEvent(tick=0, channel=0, data=[61, 0]),
   midi.NoteOnEvent(tick=0, channel=0, data=[68, 0]),
   midi.NoteOnEvent(tick=12, channel=0, data=[68, 44]),
   midi.NoteOnEvent(tick=0, channel=0, data=[61, 44]),
   midi.NoteOnEvent(tick=0, channel=0, data=[64, 44]),
   midi.NoteOnEvent(tick=228, channel=0, data=[64, 0]),
   midi.NoteOnEvent(tick=0, channel=0, data=[61, 0]),
   midi.NoteOnEvent(tick=0, channel=0, data=[68, 0]),
   midi.NoteOnEvent(tick=12, channel=0, data=[68, 44]),
   midi.NoteOnEvent(tick=0, channel=0, data=[61, 44]),
   midi.NoteOnEvent(tick=0, channel=0, data=[64, 44]),
   midi.NoteOnEvent(tick=228, channel=0, data=[64, 0]),
   midi.NoteOnEvent(tick=0, channel=0, data=[61, 0]),
   midi.NoteOnEvent(tick=0, channel=0, data=[68, 0]),
   midi.NoteOnEvent(tick=12, channel=0, data=[73, 0]),
   midi.NoteOnEvent(tick=0, channel=0, data=[68, 48]),
   midi.NoteOnEvent(tick=240, channel=0, data=[61, 26]),
   midi.NoteOnEvent(tick=0, channel=0, data=[64, 26]),
   midi.NoteOnEvent(tick=228, channel=0, data=[64, 0]),
   midi.NoteOnEvent(tick=0, channel=0, data=[61, 0]),
   midi.NoteOnEvent(tick=12, channel=0, data=[68, 0]),
   midi.NoteOnEvent(tick=0, channel=0, data=[68, 42]),
   midi.NoteOnEvent(tick=240, channel=0, data=[61, 26]),
   midi.NoteOnEvent(tick=0, channel=0, data=[64, 26]),
   midi.NoteOnEvent(tick=228, channel=0, data=[64, 0]),
   midi.NoteOnEvent(tick=0, channel=0, data=[61, 0]),
   midi.NoteOnEvent(tick=12, channel=0, data=[68, 0]),
   midi.NoteOnEvent(tick=0, channel=0, data=[68, 42]),
   midi.NoteOnEvent(tick=240, channel=0, data=[61, 26]),
   midi.NoteOnEvent(tick=0, channel=0, data=[64, 26]),
   midi.NoteOnEvent(tick=228, channel=0, data=[64, 0]),
   midi.NoteOnEvent(tick=0, channel=0, data=[61, 0]),
   midi.NoteOnEvent(tick=12, channel=0, data=[61, 26]),
   midi.NoteOnEvent(tick=0, channel=0, data=[64, 26]),
   midi.NoteOnEvent(tick=228, channel=0, data=[64, 0]),
   midi.NoteOnEvent(tick=0, channel=0, data=[61, 0]),
   midi.NoteOnEvent(tick=12, channel=0, data=[61, 26]),
   midi.NoteOnEvent(tick=0, channel=0, data=[64, 26]),
   midi.NoteOnEvent(tick=228, channel=0, data=[64, 0]),
   midi.NoteOnEvent(tick=0, channel=0, data=[61, 0]),
   midi.NoteOnEvent(tick=12, channel=0, data=[61, 26]),
   midi.NoteOnEvent(tick=0, channel=0, data=[64, 26]),
   midi.NoteOnEvent(tick=228, channel=0, data=[64, 0]),
   midi.NoteOnEvent(tick=0, channel=0, data=[61, 0]),
   midi.NoteOnEvent(tick=12, channel=0, data=[61, 26]),
   midi.NoteOnEvent(tick=0, channel=0, data=[64, 26]),
   midi.NoteOnEvent(tick=228, channel=0, data=[64, 0]),
   midi.NoteOnEvent(tick=0, channel=0, data=[61, 0]),
   midi.NoteOnEvent(tick=12, channel=0, data=[61, 26]),
   midi.NoteOnEvent(tick=0, channel=0, data=[64, 26]),
   midi.NoteOnEvent(tick=228, channel=0, data=[64, 0]),
   midi.NoteOnEvent(tick=0, channel=0, data=[61, 0]),
   midi.NoteOnEvent(tick=12, channel=0, data=[61, 26]),
   midi.NoteOnEvent(tick=0, channel=0, data=[64, 26]),
   midi.NoteOnEvent(tick=228, channel=0, data=[64, 0]),
   midi.NoteOnEvent(tick=0, channel=0, data=[61, 0]),
   midi.NoteOnEvent(tick=12, channel=0, data=[68, 0]),
   midi.NoteOnEvent(tick=0, channel=0, data=[68, 42]),
   midi.NoteOnEvent(tick=240, channel=0, data=[61, 26]),
   midi.NoteOnEvent(tick=0, channel=0, data=[64, 26]),
   midi.NoteOnEvent(tick=228, channel=0, data=[64, 0]),
   midi.NoteOnEvent(tick=0, channel=0, data=[61, 0]),
   midi.NoteOnEvent(tick=12, channel=0, data=[68, 0]),
   midi.NoteOnEvent(tick=0, channel=0, data=[70, 42]),
   midi.NoteOnEvent(tick=240, channel=0, data=[61, 26]),
   midi.NoteOnEvent(tick=0, channel=0, data=[64, 26]),
   midi.NoteOnEvent(tick=228, channel=0, data=[64, 0]),
   midi.NoteOnEvent(tick=0, channel=0, data=[61, 0]),
   midi.NoteOnEvent(tick=12, channel=0, data=[70, 0]),
   midi.NoteOnEvent(tick=0, channel=0, data=[68, 37]),
   midi.NoteOnEvent(tick=240, channel=0, data=[58, 26]),
   midi.NoteOnEvent(tick=0, channel=0, data=[61, 26]),
   midi.NoteOnEvent(tick=228, channel=0, data=[61, 0]),
   midi.NoteOnEvent(tick=0, channel=0, data=[58, 0]),
   midi.NoteOnEvent(tick=12, channel=0, data=[58, 26]),
   midi.NoteOnEvent(tick=0, channel=0, data=[61, 26]),
   midi.NoteOnEvent(tick=228, channel=0, data=[61, 0]),
   midi.NoteOnEvent(tick=0, channel=0, data=[58, 0]),
   midi.NoteOnEvent(tick=12, channel=0, data=[58, 25]),
   midi.NoteOnEvent(tick=0, channel=0, data=[61, 25]),
   midi.NoteOnEvent(tick=228, channel=0, data=[61, 0]),
   midi.NoteOnEvent(tick=0, channel=0, data=[58, 0]),
   midi.NoteOnEvent(tick=12, channel=0, data=[58, 25]),
   midi.NoteOnEvent(tick=0, channel=0, data=[61, 25]),
   midi.NoteOnEvent(tick=228, channel=0, data=[61, 0]),
   midi.NoteOnEvent(tick=0, channel=0, data=[58, 0]),
   midi.NoteOnEvent(tick=12, channel=0, data=[58, 24]),
   midi.NoteOnEvent(tick=0, channel=0, data=[61, 24]),
   midi.NoteOnEvent(tick=228, channel=0, data=[61, 0]),
   midi.NoteOnEvent(tick=0, channel=0, data=[58, 0]),
   midi.NoteOnEvent(tick=12, channel=0, data=[58, 24]),
   midi.NoteOnEvent(tick=0, channel=0, data=[61, 24]),
   midi.NoteOnEvent(tick=228, channel=0, data=[61, 0]),
   midi.NoteOnEvent(tick=0, channel=0, data=[58, 0]),
   midi.NoteOnEvent(tick=12, channel=0, data=[58, 24]),
   midi.NoteOnEvent(tick=0, channel=0, data=[61, 24]),
   midi.NoteOnEvent(tick=228, channel=0, data=[61, 0]),
   midi.NoteOnEvent(tick=0, channel=0, data=[58, 0]),
   midi.NoteOnEvent(tick=12, channel=0, data=[58, 23]),
   midi.NoteOnEvent(tick=0, channel=0, data=[61, 23]),
   midi.NoteOnEvent(tick=228, channel=0, data=[61, 0]),
   midi.NoteOnEvent(tick=0, channel=0, data=[58, 0]),
   midi.NoteOnEvent(tick=12, channel=0, data=[58, 23]),
   midi.NoteOnEvent(tick=0, channel=0, data=[61, 23]),
   midi.NoteOnEvent(tick=228, channel=0, data=[61, 0]),
   midi.NoteOnEvent(tick=0, channel=0, data=[58, 0]),
   midi.NoteOnEvent(tick=12, channel=0, data=[58, 22]),
   midi.NoteOnEvent(tick=0, channel=0, data=[61, 22]),
   midi.NoteOnEvent(tick=228, channel=0, data=[61, 0]),
   midi.NoteOnEvent(tick=0, channel=0, data=[58, 0]),
   midi.NoteOnEvent(tick=12, channel=0, data=[58, 22]),
   midi.NoteOnEvent(tick=0, channel=0, data=[61, 22]),
   midi.NoteOnEvent(tick=228, channel=0, data=[61, 0]),
   midi.NoteOnEvent(tick=0, channel=0, data=[58, 0]),
   midi.NoteOnEvent(tick=12, channel=0, data=[68, 0]),
   midi.NoteOnEvent(tick=0, channel=0, data=[67, 31]),
   midi.NoteOnEvent(tick=240, channel=0, data=[58, 22]),
   midi.NoteOnEvent(tick=0, channel=0, data=[61, 22]),
   midi.NoteOnEvent(tick=228, channel=0, data=[61, 0]),
   midi.NoteOnEvent(tick=0, channel=0, data=[58, 0]),
   midi.NoteOnEvent(tick=12, channel=0, data=[58, 22]),
   midi.NoteOnEvent(tick=0, channel=0, data=[61, 22]),
   midi.NoteOnEvent(tick=228, channel=0, data=[61, 0]),
   midi.NoteOnEvent(tick=0, channel=0, data=[58, 0]),
   midi.NoteOnEvent(tick=12, channel=0, data=[58, 20]),
   midi.NoteOnEvent(tick=0, channel=0, data=[61, 20]),
   midi.NoteOnEvent(tick=228, channel=0, data=[61, 0]),
   midi.NoteOnEvent(tick=0, channel=0, data=[58, 0]),
   midi.NoteOnEvent(tick=12, channel=0, data=[58, 20]),
   midi.NoteOnEvent(tick=0, channel=0, data=[61, 20]),
   midi.NoteOnEvent(tick=228, channel=0, data=[61, 0]),
   midi.NoteOnEvent(tick=0, channel=0, data=[58, 0]),
   midi.NoteOnEvent(tick=12, channel=0, data=[58, 19]),
   midi.NoteOnEvent(tick=0, channel=0, data=[61, 19]),
   midi.NoteOnEvent(tick=228, channel=0, data=[61, 0]),
   midi.NoteOnEvent(tick=0, channel=0, data=[58, 0]),
   midi.NoteOnEvent(tick=12, channel=0, data=[58, 19]),
   midi.NoteOnEvent(tick=0, channel=0, data=[61, 19]),
   midi.NoteOnEvent(tick=228, channel=0, data=[61, 0]),
   midi.NoteOnEvent(tick=0, channel=0, data=[58, 0]),
   midi.NoteOnEvent(tick=12, channel=0, data=[58, 19]),
   midi.NoteOnEvent(tick=0, channel=0, data=[61, 19]),
   midi.NoteOnEvent(tick=228, channel=0, data=[61, 0]),
   midi.NoteOnEvent(tick=0, channel=0, data=[58, 0]),
   midi.NoteOnEvent(tick=12, channel=0, data=[58, 18]),
   midi.NoteOnEvent(tick=0, channel=0, data=[61, 18]),
   midi.NoteOnEvent(tick=228, channel=0, data=[61, 0]),
   midi.NoteOnEvent(tick=0, channel=0, data=[58, 0]),
   midi.NoteOnEvent(tick=12, channel=0, data=[58, 18]),
   midi.NoteOnEvent(tick=0, channel=0, data=[61, 18]),
   midi.NoteOnEvent(tick=228, channel=0, data=[61, 0]),
   midi.NoteOnEvent(tick=0, channel=0, data=[58, 0]),
   midi.NoteOnEvent(tick=12, channel=0, data=[58, 17]),
   midi.NoteOnEvent(tick=0, channel=0, data=[61, 17]),
   midi.NoteOnEvent(tick=228, channel=0, data=[61, 0]),
   midi.NoteOnEvent(tick=0, channel=0, data=[58, 0]),
   midi.NoteOnEvent(tick=12, channel=0, data=[58, 17]),
   midi.NoteOnEvent(tick=0, channel=0, data=[61, 17]),
   midi.NoteOnEvent(tick=228, channel=0, data=[61, 0]),
   midi.NoteOnEvent(tick=0, channel=0, data=[58, 0]),
   midi.NoteOnEvent(tick=12, channel=0, data=[67, 0]),
   midi.NoteOnEvent(tick=0, channel=0, data=[67, 41]),
   midi.NoteOnEvent(tick=112, channel=0, data=[67, 0]),
   midi.NoteOnEvent(tick=0, channel=0, data=[70, 34]),
   midi.NoteOnEvent(tick=120, channel=0, data=[70, 0]),
   midi.NoteOnEvent(tick=0, channel=0, data=[67, 41]),
   midi.NoteOnEvent(tick=120, channel=0, data=[67, 0]),
   midi.NoteOnEvent(tick=0, channel=0, data=[64, 34]),
   midi.NoteOnEvent(tick=120, channel=0, data=[64, 0]),
   midi.NoteOnEvent(tick=0, channel=0, data=[70, 41]),
   midi.NoteOnEvent(tick=120, channel=0, data=[70, 0]),
   midi.NoteOnEvent(tick=0, channel=0, data=[73, 34]),
   midi.NoteOnEvent(tick=120, channel=0, data=[73, 0]),
   midi.NoteOnEvent(tick=0, channel=0, data=[70, 41]),
   midi.NoteOnEvent(tick=120, channel=0, data=[70, 0]),
   midi.NoteOnEvent(tick=0, channel=0, data=[67, 34]),
   midi.NoteOnEvent(tick=120, channel=0, data=[67, 0]),
   midi.NoteOnEvent(tick=0, channel=0, data=[73, 41]),
   midi.NoteOnEvent(tick=120, channel=0, data=[73, 0]),
   midi.NoteOnEvent(tick=0, channel=0, data=[76, 34]),
   midi.NoteOnEvent(tick=120, channel=0, data=[76, 0]),
   midi.NoteOnEvent(tick=0, channel=0, data=[73, 41]),
   midi.NoteOnEvent(tick=120, channel=0, data=[73, 0]),
   midi.NoteOnEvent(tick=0, channel=0, data=[70, 34]),
   midi.NoteOnEvent(tick=120, channel=0, data=[70, 0]),
   midi.NoteOnEvent(tick=0, channel=0, data=[76, 40]),
   midi.NoteOnEvent(tick=120, channel=0, data=[76, 0]),
   midi.NoteOnEvent(tick=0, channel=0, data=[79, 36]),
   midi.NoteOnEvent(tick=120, channel=0, data=[79, 0]),
   midi.NoteOnEvent(tick=0, channel=0, data=[76, 46]),
   midi.NoteOnEvent(tick=120, channel=0, data=[76, 0]),
   midi.NoteOnEvent(tick=0, channel=0, data=[73, 42]),
   midi.NoteOnEvent(tick=120, channel=0, data=[73, 0]),
   midi.NoteOnEvent(tick=0, channel=0, data=[79, 53]),
   midi.NoteOnEvent(tick=120, channel=0, data=[79, 0]),
   midi.NoteOnEvent(tick=0, channel=0, data=[82, 47]),
   midi.NoteOnEvent(tick=120, channel=0, data=[82, 0]),
   midi.NoteOnEvent(tick=0, channel=0, data=[79, 60]),
   midi.NoteOnEvent(tick=120, channel=0, data=[79, 0]),
   midi.NoteOnEvent(tick=0, channel=0, data=[76, 53]),
   midi.NoteOnEvent(tick=120, channel=0, data=[76, 0]),
   midi.NoteOnEvent(tick=0, channel=0, data=[82, 66]),
   midi.NoteOnEvent(tick=120, channel=0, data=[82, 0]),
   midi.NoteOnEvent(tick=0, channel=0, data=[85, 59]),
   midi.NoteOnEvent(tick=120, channel=0, data=[85, 0]),
   midi.NoteOnEvent(tick=0, channel=0, data=[82, 73]),
   midi.NoteOnEvent(tick=120, channel=0, data=[82, 0]),
   midi.NoteOnEvent(tick=0, channel=0, data=[79, 64]),
   midi.NoteOnEvent(tick=120, channel=0, data=[79, 0]),
   midi.NoteOnEvent(tick=0, channel=0, data=[85, 80]),
   midi.NoteOnEvent(tick=120, channel=0, data=[85, 0]),
   midi.NoteOnEvent(tick=0, channel=0, data=[88, 68]),
   midi.NoteOnEvent(tick=120, channel=0, data=[88, 0]),
   midi.NoteOnEvent(tick=0, channel=0, data=[85, 79]),
   midi.NoteOnEvent(tick=120, channel=0, data=[85, 0]),
   midi.NoteOnEvent(tick=0, channel=0, data=[82, 66]),
   midi.NoteOnEvent(tick=120, channel=0, data=[82, 0]),
   midi.NoteOnEvent(tick=0, channel=0, data=[85, 77]),
   midi.NoteOnEvent(tick=120, channel=0, data=[85, 0]),
   midi.NoteOnEvent(tick=0, channel=0, data=[88, 64]),
   midi.NoteOnEvent(tick=120, channel=0, data=[88, 0]),
   midi.NoteOnEvent(tick=0, channel=0, data=[85, 75]),
   midi.NoteOnEvent(tick=120, channel=0, data=[85, 0]),
   midi.NoteOnEvent(tick=0, channel=0, data=[82, 63]),
   midi.NoteOnEvent(tick=120, channel=0, data=[82, 0]),
   midi.NoteOnEvent(tick=0, channel=0, data=[85, 74]),
   midi.NoteOnEvent(tick=120, channel=0, data=[85, 0]),
   midi.NoteOnEvent(tick=0, channel=0, data=[88, 62]),
   midi.NoteOnEvent(tick=120, channel=0, data=[88, 0]),
   midi.NoteOnEvent(tick=0, channel=0, data=[85, 72]),
   midi.NoteOnEvent(tick=120, channel=0, data=[85, 0]),
   midi.NoteOnEvent(tick=0, channel=0, data=[82, 60]),
   midi.NoteOnEvent(tick=120, channel=0, data=[82, 0]),
   midi.NoteOnEvent(tick=0, channel=0, data=[85, 70]),
   midi.NoteOnEvent(tick=120, channel=0, data=[85, 0]),
   midi.NoteOnEvent(tick=0, channel=0, data=[88, 59]),
   midi.NoteOnEvent(tick=120, channel=0, data=[88, 0]),
   midi.NoteOnEvent(tick=0, channel=0, data=[85, 69]),
   midi.NoteOnEvent(tick=120, channel=0, data=[85, 0]),
   midi.NoteOnEvent(tick=0, channel=0, data=[82, 57]),
   midi.NoteOnEvent(tick=120, channel=0, data=[82, 0]),
   midi.NoteOnEvent(tick=0, channel=0, data=[85, 67]),
   midi.NoteOnEvent(tick=120, channel=0, data=[85, 0]),
   midi.NoteOnEvent(tick=0, channel=0, data=[88, 56]),
   midi.NoteOnEvent(tick=120, channel=0, data=[88, 0]),
   midi.NoteOnEvent(tick=0, channel=0, data=[85, 65]),
   midi.NoteOnEvent(tick=120, channel=0, data=[85, 0]),
   midi.NoteOnEvent(tick=0, channel=0, data=[82, 55]),
   midi.NoteOnEvent(tick=120, channel=0, data=[82, 0]),
   midi.NoteOnEvent(tick=0, channel=0, data=[85, 64]),
   midi.NoteOnEvent(tick=120, channel=0, data=[85, 0]),
   midi.NoteOnEvent(tick=0, channel=0, data=[88, 53]),
   midi.NoteOnEvent(tick=120, channel=0, data=[88, 0]),
   midi.NoteOnEvent(tick=0, channel=0, data=[85, 62]),
   midi.NoteOnEvent(tick=120, channel=0, data=[85, 0]),
   midi.NoteOnEvent(tick=0, channel=0, data=[82, 51]),
   midi.NoteOnEvent(tick=120, channel=0, data=[82, 0]),
   midi.NoteOnEvent(tick=0, channel=0, data=[85, 60]),
   midi.NoteOnEvent(tick=120, channel=0, data=[85, 0]),
   midi.NoteOnEvent(tick=0, channel=0, data=[87, 51]),
   midi.NoteOnEvent(tick=120, channel=0, data=[87, 0]),
   midi.NoteOnEvent(tick=0, channel=0, data=[85, 59]),
   midi.NoteOnEvent(tick=120, channel=0, data=[85, 0]),
   midi.NoteOnEvent(tick=0, channel=0, data=[82, 49]),
   midi.NoteOnEvent(tick=120, channel=0, data=[82, 0]),
   midi.NoteOnEvent(tick=0, channel=0, data=[85, 57]),
   midi.NoteOnEvent(tick=120, channel=0, data=[85, 0]),
   midi.NoteOnEvent(tick=0, channel=0, data=[87, 47]),
   midi.NoteOnEvent(tick=120, channel=0, data=[87, 0]),
   midi.NoteOnEvent(tick=0, channel=0, data=[85, 55]),
   midi.NoteOnEvent(tick=120, channel=0, data=[85, 0]),
   midi.NoteOnEvent(tick=0, channel=0, data=[82, 46]),
   midi.NoteOnEvent(tick=120, channel=0, data=[82, 0]),
   midi.NoteOnEvent(tick=0, channel=0, data=[85, 54]),
   midi.NoteOnEvent(tick=120, channel=0, data=[85, 0]),
   midi.NoteOnEvent(tick=0, channel=0, data=[87, 45]),
   midi.NoteOnEvent(tick=120, channel=0, data=[87, 0]),
   midi.NoteOnEvent(tick=0, channel=0, data=[85, 52]),
   midi.NoteOnEvent(tick=120, channel=0, data=[85, 0]),
   midi.NoteOnEvent(tick=0, channel=0, data=[82, 43]),
   midi.NoteOnEvent(tick=120, channel=0, data=[82, 0]),
   midi.NoteOnEvent(tick=0, channel=0, data=[85, 50]),
   midi.NoteOnEvent(tick=120, channel=0, data=[85, 0]),
   midi.NoteOnEvent(tick=0, channel=0, data=[87, 42]),
   midi.NoteOnEvent(tick=120, channel=0, data=[87, 0]),
   midi.NoteOnEvent(tick=0, channel=0, data=[85, 49]),
   midi.NoteOnEvent(tick=120, channel=0, data=[85, 0]),
   midi.NoteOnEvent(tick=0, channel=0, data=[82, 40]),
   midi.NoteOnEvent(tick=120, channel=0, data=[82, 0]),
   midi.NoteOnEvent(tick=0, channel=0, data=[85, 47]),
   midi.NoteOnEvent(tick=120, channel=0, data=[85, 0]),
   midi.NoteOnEvent(tick=0, channel=0, data=[87, 39]),
   midi.NoteOnEvent(tick=120, channel=0, data=[87, 0]),
   midi.NoteOnEvent(tick=0, channel=0, data=[85, 45]),
   midi.NoteOnEvent(tick=120, channel=0, data=[85, 0]),
   midi.NoteOnEvent(tick=0, channel=0, data=[82, 38]),
   midi.NoteOnEvent(tick=120, channel=0, data=[82, 0]),
   midi.NoteOnEvent(tick=0, channel=0, data=[85, 44]),
   midi.NoteOnEvent(tick=120, channel=0, data=[85, 0]),
   midi.NoteOnEvent(tick=0, channel=0, data=[87, 36]),
   midi.NoteOnEvent(tick=120, channel=0, data=[87, 0]),
   midi.NoteOnEvent(tick=0, channel=0, data=[85, 42]),
   midi.NoteOnEvent(tick=120, channel=0, data=[85, 0]),
   midi.NoteOnEvent(tick=0, channel=0, data=[82, 34]),
   midi.NoteOnEvent(tick=120, channel=0, data=[82, 0]),
   midi.NoteOnEvent(tick=0, channel=0, data=[83, 40]),
   midi.NoteOnEvent(tick=120, channel=0, data=[83, 0]),
   midi.NoteOnEvent(tick=0, channel=0, data=[87, 34]),
   midi.NoteOnEvent(tick=120, channel=0, data=[87, 0]),
   midi.NoteOnEvent(tick=0, channel=0, data=[83, 40]),
   midi.NoteOnEvent(tick=120, channel=0, data=[83, 0]),
   midi.NoteOnEvent(tick=0, channel=0, data=[80, 34]),
   midi.NoteOnEvent(tick=90, channel=0, data=[80, 0]),
   midi.NoteOnEvent(tick=30, channel=0, data=[80, 40]),
   midi.NoteOnEvent(tick=120, channel=0, data=[80, 0]),
   midi.NoteOnEvent(tick=0, channel=0, data=[83, 34]),
   midi.NoteOnEvent(tick=120, channel=0, data=[83, 0]),
   midi.NoteOnEvent(tick=0, channel=0, data=[80, 40]),
   midi.NoteOnEvent(tick=120, channel=0, data=[80, 0]),
   midi.NoteOnEvent(tick=0, channel=0, data=[75, 34]),
   midi.NoteOnEvent(tick=90, channel=0, data=[75, 0]),
   midi.NoteOnEvent(tick=30, channel=0, data=[75, 40]),
   midi.NoteOnEvent(tick=120, channel=0, data=[75, 0]),
   midi.NoteOnEvent(tick=0, channel=0, data=[80, 34]),
   midi.NoteOnEvent(tick=120, channel=0, data=[80, 0]),
   midi.NoteOnEvent(tick=0, channel=0, data=[75, 40]),
   midi.NoteOnEvent(tick=120, channel=0, data=[75, 0]),
   midi.NoteOnEvent(tick=0, channel=0, data=[71, 34]),
   midi.NoteOnEvent(tick=90, channel=0, data=[71, 0]),
   midi.NoteOnEvent(tick=30, channel=0, data=[71, 40]),
   midi.NoteOnEvent(tick=120, channel=0, data=[71, 0]),
   midi.NoteOnEvent(tick=0, channel=0, data=[75, 34]),
   midi.NoteOnEvent(tick=120, channel=0, data=[75, 0]),
   midi.NoteOnEvent(tick=0, channel=0, data=[71, 40]),
   midi.NoteOnEvent(tick=120, channel=0, data=[71, 0]),
   midi.NoteOnEvent(tick=0, channel=0, data=[68, 34]),
   midi.NoteOnEvent(tick=90, channel=0, data=[68, 0]),
   midi.NoteOnEvent(tick=30, channel=0, data=[68, 40]),
   midi.NoteOnEvent(tick=120, channel=0, data=[68, 0]),
   midi.NoteOnEvent(tick=0, channel=0, data=[71, 34]),
   midi.NoteOnEvent(tick=120, channel=0, data=[71, 0]),
   midi.NoteOnEvent(tick=0, channel=0, data=[68, 40]),
   midi.NoteOnEvent(tick=120, channel=0, data=[68, 0]),
   midi.NoteOnEvent(tick=0, channel=0, data=[63, 34]),
   midi.NoteOnEvent(tick=120, channel=0, data=[63, 0]),
   midi.NoteOnEvent(tick=0, channel=0, data=[67, 30]),
   midi.NoteOnEvent(tick=0, channel=0, data=[70, 36]),
   midi.NoteOnEvent(tick=240, channel=0, data=[70, 0]),
   midi.NoteOnEvent(tick=0, channel=0, data=[67, 0]),
   midi.NoteOnEvent(tick=240, channel=0, data=[83, 40]),
   midi.NoteOnEvent(tick=120, channel=0, data=[83, 0]),
   midi.NoteOnEvent(tick=0, channel=0, data=[87, 34]),
   midi.NoteOnEvent(tick=120, channel=0, data=[87, 0]),
   midi.NoteOnEvent(tick=0, channel=0, data=[83, 40]),
   midi.NoteOnEvent(tick=120, channel=0, data=[83, 0]),
   midi.NoteOnEvent(tick=0, channel=0, data=[80, 34]),
   midi.NoteOnEvent(tick=90, channel=0, data=[80, 0]),
   midi.NoteOnEvent(tick=30, channel=0, data=[80, 40]),
   midi.NoteOnEvent(tick=120, channel=0, data=[80, 0]),
   midi.NoteOnEvent(tick=0, channel=0, data=[83, 34]),
   midi.NoteOnEvent(tick=120, channel=0, data=[83, 0]),
   midi.NoteOnEvent(tick=0, channel=0, data=[80, 40]),
   midi.NoteOnEvent(tick=120, channel=0, data=[80, 0]),
   midi.NoteOnEvent(tick=0, channel=0, data=[75, 34]),
   midi.NoteOnEvent(tick=90, channel=0, data=[75, 0]),
   midi.NoteOnEvent(tick=30, channel=0, data=[75, 40]),
   midi.NoteOnEvent(tick=120, channel=0, data=[75, 0]),
   midi.NoteOnEvent(tick=0, channel=0, data=[80, 34]),
   midi.NoteOnEvent(tick=120, channel=0, data=[80, 0]),
   midi.NoteOnEvent(tick=0, channel=0, data=[75, 40]),
   midi.NoteOnEvent(tick=120, channel=0, data=[75, 0]),
   midi.NoteOnEvent(tick=0, channel=0, data=[71, 34]),
   midi.NoteOnEvent(tick=90, channel=0, data=[71, 0]),
   midi.NoteOnEvent(tick=30, channel=0, data=[71, 40]),
   midi.NoteOnEvent(tick=120, channel=0, data=[71, 0]),
   midi.NoteOnEvent(tick=0, channel=0, data=[75, 34]),
   midi.NoteOnEvent(tick=120, channel=0, data=[75, 0]),
   midi.NoteOnEvent(tick=0, channel=0, data=[71, 40]),
   midi.NoteOnEvent(tick=120, channel=0, data=[71, 0]),
   midi.NoteOnEvent(tick=0, channel=0, data=[68, 34]),
   midi.NoteOnEvent(tick=90, channel=0, data=[68, 0]),
   midi.NoteOnEvent(tick=30, channel=0, data=[68, 40]),
   midi.NoteOnEvent(tick=120, channel=0, data=[68, 0]),
   midi.NoteOnEvent(tick=0, channel=0, data=[71, 34]),
   midi.NoteOnEvent(tick=120, channel=0, data=[71, 0]),
   midi.NoteOnEvent(tick=0, channel=0, data=[68, 40]),
   midi.NoteOnEvent(tick=120, channel=0, data=[68, 0]),
   midi.NoteOnEvent(tick=0, channel=0, data=[63, 34]),
   midi.NoteOnEvent(tick=120, channel=0, data=[63, 0]),
   midi.NoteOnEvent(tick=0, channel=0, data=[67, 30]),
   midi.NoteOnEvent(tick=0, channel=0, data=[70, 36]),
   midi.NoteOnEvent(tick=240, channel=0, data=[70, 0]),
   midi.NoteOnEvent(tick=0, channel=0, data=[67, 0]),
   midi.NoteOnEvent(tick=240, channel=0, data=[68, 31]),
   midi.NoteOnEvent(tick=0, channel=0, data=[71, 31]),
   midi.NoteOnEvent(tick=456, channel=0, data=[71, 0]),
   midi.NoteOnEvent(tick=0, channel=0, data=[68, 0]),
   midi.NoteOnEvent(tick=24, channel=0, data=[67, 31]),
   midi.NoteOnEvent(tick=0, channel=0, data=[70, 31]),
   midi.NoteOnEvent(tick=0, channel=0, data=[76, 31]),
   midi.NoteOnEvent(tick=456, channel=0, data=[76, 0]),
   midi.NoteOnEvent(tick=0, channel=0, data=[70, 0]),
   midi.NoteOnEvent(tick=0, channel=0, data=[67, 0]),
   midi.NoteOnEvent(tick=24, channel=0, data=[67, 36]),
   midi.NoteOnEvent(tick=0, channel=0, data=[70, 36]),
   midi.NoteOnEvent(tick=0, channel=0, data=[76, 36]),
   midi.NoteOnEvent(tick=456, channel=0, data=[76, 0]),
   midi.NoteOnEvent(tick=0, channel=0, data=[70, 0]),
   midi.NoteOnEvent(tick=0, channel=0, data=[67, 0]),
   midi.NoteOnEvent(tick=24, channel=0, data=[70, 37]),
   midi.NoteOnEvent(tick=0, channel=0, data=[67, 37]),
   midi.NoteOnEvent(tick=0, channel=0, data=[76, 37]),
   midi.NoteOnEvent(tick=456, channel=0, data=[76, 0]),
   midi.NoteOnEvent(tick=0, channel=0, data=[67, 0]),
   midi.NoteOnEvent(tick=0, channel=0, data=[70, 0]),
   midi.NoteOnEvent(tick=24, channel=0, data=[67, 31]),
   midi.NoteOnEvent(tick=0, channel=0, data=[70, 31]),
   midi.NoteOnEvent(tick=0, channel=0, data=[75, 31]),
   midi.NoteOnEvent(tick=456, channel=0, data=[75, 0]),
   midi.NoteOnEvent(tick=0, channel=0, data=[70, 0]),
   midi.NoteOnEvent(tick=0, channel=0, data=[67, 0]),
   midi.NoteOnEvent(tick=24, channel=0, data=[67, 31]),
   midi.NoteOnEvent(tick=0, channel=0, data=[70, 31]),
   midi.NoteOnEvent(tick=0, channel=0, data=[73, 31]),
   midi.NoteOnEvent(tick=456, channel=0, data=[73, 0]),
   midi.NoteOnEvent(tick=0, channel=0, data=[70, 0]),
   midi.NoteOnEvent(tick=0, channel=0, data=[67, 0]),
   midi.NoteOnEvent(tick=24, channel=0, data=[83, 40]),
   midi.NoteOnEvent(tick=120, channel=0, data=[83, 0]),
   midi.NoteOnEvent(tick=0, channel=0, data=[87, 34]),
   midi.NoteOnEvent(tick=120, channel=0, data=[87, 0]),
   midi.NoteOnEvent(tick=0, channel=0, data=[83, 40]),
   midi.NoteOnEvent(tick=120, channel=0, data=[83, 0]),
   midi.NoteOnEvent(tick=0, channel=0, data=[80, 34]),
   midi.NoteOnEvent(tick=90, channel=0, data=[80, 0]),
   midi.NoteOnEvent(tick=30, channel=0, data=[80, 40]),
   midi.NoteOnEvent(tick=120, channel=0, data=[80, 0]),
   midi.NoteOnEvent(tick=0, channel=0, data=[83, 34]),
   midi.NoteOnEvent(tick=120, channel=0, data=[83, 0]),
   midi.NoteOnEvent(tick=0, channel=0, data=[80, 40]),
   midi.NoteOnEvent(tick=120, channel=0, data=[80, 0]),
   midi.NoteOnEvent(tick=0, channel=0, data=[75, 34]),
   midi.NoteOnEvent(tick=90, channel=0, data=[75, 0]),
   midi.NoteOnEvent(tick=30, channel=0, data=[75, 40]),
   midi.NoteOnEvent(tick=120, channel=0, data=[75, 0]),
   midi.NoteOnEvent(tick=0, channel=0, data=[80, 34]),
   midi.NoteOnEvent(tick=120, channel=0, data=[80, 0]),
   midi.NoteOnEvent(tick=0, channel=0, data=[75, 40]),
   midi.NoteOnEvent(tick=120, channel=0, data=[75, 0]),
   midi.NoteOnEvent(tick=0, channel=0, data=[71, 34]),
   midi.NoteOnEvent(tick=90, channel=0, data=[71, 0]),
   midi.NoteOnEvent(tick=30, channel=0, data=[71, 40]),
   midi.NoteOnEvent(tick=120, channel=0, data=[71, 0]),
   midi.NoteOnEvent(tick=0, channel=0, data=[75, 34]),
   midi.NoteOnEvent(tick=120, channel=0, data=[75, 0]),
   midi.NoteOnEvent(tick=0, channel=0, data=[71, 40]),
   midi.NoteOnEvent(tick=120, channel=0, data=[71, 0]),
   midi.NoteOnEvent(tick=0, channel=0, data=[68, 34]),
   midi.NoteOnEvent(tick=90, channel=0, data=[68, 0]),
   midi.NoteOnEvent(tick=30, channel=0, data=[68, 40]),
   midi.NoteOnEvent(tick=120, channel=0, data=[68, 0]),
   midi.NoteOnEvent(tick=0, channel=0, data=[71, 34]),
   midi.NoteOnEvent(tick=120, channel=0, data=[71, 0]),
   midi.NoteOnEvent(tick=0, channel=0, data=[68, 40]),
   midi.NoteOnEvent(tick=120, channel=0, data=[68, 0]),
   midi.NoteOnEvent(tick=0, channel=0, data=[63, 34]),
   midi.NoteOnEvent(tick=120, channel=0, data=[63, 0]),
   midi.NoteOnEvent(tick=0, channel=0, data=[67, 30]),
   midi.NoteOnEvent(tick=0, channel=0, data=[70, 36]),
   midi.NoteOnEvent(tick=240, channel=0, data=[70, 0]),
   midi.NoteOnEvent(tick=0, channel=0, data=[67, 0]),
   midi.NoteOnEvent(tick=240, channel=0, data=[83, 40]),
   midi.NoteOnEvent(tick=120, channel=0, data=[83, 0]),
   midi.NoteOnEvent(tick=0, channel=0, data=[87, 34]),
   midi.NoteOnEvent(tick=120, channel=0, data=[87, 0]),
   midi.NoteOnEvent(tick=0, channel=0, data=[83, 40]),
   midi.NoteOnEvent(tick=120, channel=0, data=[83, 0]),
   midi.NoteOnEvent(tick=0, channel=0, data=[80, 34]),
   midi.NoteOnEvent(tick=90, channel=0, data=[80, 0]),
   midi.NoteOnEvent(tick=30, channel=0, data=[80, 40]),
   midi.NoteOnEvent(tick=120, channel=0, data=[80, 0]),
   midi.NoteOnEvent(tick=0, channel=0, data=[83, 34]),
   midi.NoteOnEvent(tick=120, channel=0, data=[83, 0]),
   midi.NoteOnEvent(tick=0, channel=0, data=[80, 40]),
   midi.NoteOnEvent(tick=120, channel=0, data=[80, 0]),
   midi.NoteOnEvent(tick=0, channel=0, data=[75, 34]),
   midi.NoteOnEvent(tick=90, channel=0, data=[75, 0]),
   midi.NoteOnEvent(tick=30, channel=0, data=[75, 40]),
   midi.NoteOnEvent(tick=120, channel=0, data=[75, 0]),
   midi.NoteOnEvent(tick=0, channel=0, data=[80, 34]),
   midi.NoteOnEvent(tick=120, channel=0, data=[80, 0]),
   midi.NoteOnEvent(tick=0, channel=0, data=[75, 40]),
   midi.NoteOnEvent(tick=120, channel=0, data=[75, 0]),
   midi.NoteOnEvent(tick=0, channel=0, data=[71, 34]),
   midi.NoteOnEvent(tick=90, channel=0, data=[71, 0]),
   midi.NoteOnEvent(tick=30, channel=0, data=[71, 40]),
   midi.NoteOnEvent(tick=120, channel=0, data=[71, 0]),
   midi.NoteOnEvent(tick=0, channel=0, data=[75, 34]),
   midi.NoteOnEvent(tick=120, channel=0, data=[75, 0]),
   midi.NoteOnEvent(tick=0, channel=0, data=[71, 40]),
   midi.NoteOnEvent(tick=120, channel=0, data=[71, 0]),
   midi.NoteOnEvent(tick=0, channel=0, data=[68, 34]),
   midi.NoteOnEvent(tick=90, channel=0, data=[68, 0]),
   midi.NoteOnEvent(tick=30, channel=0, data=[68, 40]),
   midi.NoteOnEvent(tick=120, channel=0, data=[68, 0]),
   midi.NoteOnEvent(tick=0, channel=0, data=[71, 34]),
   midi.NoteOnEvent(tick=120, channel=0, data=[71, 0]),
   midi.NoteOnEvent(tick=0, channel=0, data=[68, 40]),
   midi.NoteOnEvent(tick=120, channel=0, data=[68, 0]),
   midi.NoteOnEvent(tick=0, channel=0, data=[63, 34]),
   midi.NoteOnEvent(tick=120, channel=0, data=[63, 0]),
   midi.NoteOnEvent(tick=0, channel=0, data=[67, 30]),
   midi.NoteOnEvent(tick=0, channel=0, data=[70, 36]),
   midi.NoteOnEvent(tick=240, channel=0, data=[70, 0]),
   midi.NoteOnEvent(tick=0, channel=0, data=[67, 0]),
   midi.NoteOnEvent(tick=240, channel=0, data=[68, 31]),
   midi.NoteOnEvent(tick=0, channel=0, data=[71, 31]),
   midi.NoteOnEvent(tick=456, channel=0, data=[71, 0]),
   midi.NoteOnEvent(tick=0, channel=0, data=[68, 0]),
   midi.NoteOnEvent(tick=24, channel=0, data=[66, 31]),
   midi.NoteOnEvent(tick=0, channel=0, data=[70, 31]),
   midi.NoteOnEvent(tick=0, channel=0, data=[76, 31]),
   midi.NoteOnEvent(tick=456, channel=0, data=[76, 0]),
   midi.NoteOnEvent(tick=0, channel=0, data=[70, 0]),
   midi.NoteOnEvent(tick=0, channel=0, data=[66, 0]),
   midi.NoteOnEvent(tick=24, channel=0, data=[66, 36]),
   midi.NoteOnEvent(tick=0, channel=0, data=[70, 36]),
   midi.NoteOnEvent(tick=0, channel=0, data=[76, 36]),
   midi.NoteOnEvent(tick=456, channel=0, data=[76, 0]),
   midi.NoteOnEvent(tick=0, channel=0, data=[70, 0]),
   midi.NoteOnEvent(tick=0, channel=0, data=[66, 0]),
   midi.NoteOnEvent(tick=24, channel=0, data=[66, 37]),
   midi.NoteOnEvent(tick=0, channel=0, data=[70, 37]),
   midi.NoteOnEvent(tick=0, channel=0, data=[76, 37]),
   midi.NoteOnEvent(tick=456, channel=0, data=[76, 0]),
   midi.NoteOnEvent(tick=0, channel=0, data=[70, 0]),
   midi.NoteOnEvent(tick=0, channel=0, data=[66, 0]),
   midi.NoteOnEvent(tick=24, channel=0, data=[66, 31]),
   midi.NoteOnEvent(tick=0, channel=0, data=[70, 31]),
   midi.NoteOnEvent(tick=0, channel=0, data=[75, 31]),
   midi.NoteOnEvent(tick=456, channel=0, data=[75, 0]),
   midi.NoteOnEvent(tick=0, channel=0, data=[70, 0]),
   midi.NoteOnEvent(tick=0, channel=0, data=[66, 0]),
   midi.NoteOnEvent(tick=24, channel=0, data=[66, 31]),
   midi.NoteOnEvent(tick=0, channel=0, data=[74, 31]),
   midi.NoteOnEvent(tick=0, channel=0, data=[70, 31]),
   midi.NoteOnEvent(tick=456, channel=0, data=[70, 0]),
   midi.NoteOnEvent(tick=0, channel=0, data=[74, 0]),
   midi.NoteOnEvent(tick=0, channel=0, data=[66, 0]),
   midi.NoteOnEvent(tick=24, channel=0, data=[87, 50]),
   midi.NoteOnEvent(tick=120, channel=0, data=[87, 0]),
   midi.NoteOnEvent(tick=0, channel=0, data=[90, 42]),
   midi.NoteOnEvent(tick=120, channel=0, data=[90, 0]),
   midi.NoteOnEvent(tick=0, channel=0, data=[87, 50]),
   midi.NoteOnEvent(tick=120, channel=0, data=[87, 0]),
   midi.NoteOnEvent(tick=0, channel=0, data=[83, 42]),
   midi.NoteOnEvent(tick=90, channel=0, data=[83, 0]),
   midi.NoteOnEvent(tick=30, channel=0, data=[83, 50]),
   midi.NoteOnEvent(tick=120, channel=0, data=[83, 0]),
   midi.NoteOnEvent(tick=0, channel=0, data=[87, 42]),
   midi.NoteOnEvent(tick=120, channel=0, data=[87, 0]),
   midi.NoteOnEvent(tick=0, channel=0, data=[83, 50]),
   midi.NoteOnEvent(tick=120, channel=0, data=[83, 0]),
   midi.NoteOnEvent(tick=0, channel=0, data=[78, 42]),
   midi.NoteOnEvent(tick=90, channel=0, data=[78, 0]),
   midi.NoteOnEvent(tick=30, channel=0, data=[78, 50]),
   midi.NoteOnEvent(tick=120, channel=0, data=[78, 0]),
   midi.NoteOnEvent(tick=0, channel=0, data=[83, 42]),
   midi.NoteOnEvent(tick=120, channel=0, data=[83, 0]),
   midi.NoteOnEvent(tick=0, channel=0, data=[78, 50]),
   midi.NoteOnEvent(tick=120, channel=0, data=[78, 0]),
   midi.NoteOnEvent(tick=0, channel=0, data=[75, 42]),
   midi.NoteOnEvent(tick=90, channel=0, data=[75, 0]),
   midi.NoteOnEvent(tick=30, channel=0, data=[75, 50]),
   midi.NoteOnEvent(tick=120, channel=0, data=[75, 0]),
   midi.NoteOnEvent(tick=0, channel=0, data=[78, 42]),
   midi.NoteOnEvent(tick=120, channel=0, data=[78, 0]),
   midi.NoteOnEvent(tick=0, channel=0, data=[75, 50]),
   midi.NoteOnEvent(tick=120, channel=0, data=[75, 0]),
   midi.NoteOnEvent(tick=0, channel=0, data=[71, 42]),
   midi.NoteOnEvent(tick=90, channel=0, data=[71, 0]),
   midi.NoteOnEvent(tick=30, channel=0, data=[71, 50]),
   midi.NoteOnEvent(tick=120, channel=0, data=[71, 0]),
   midi.NoteOnEvent(tick=0, channel=0, data=[75, 42]),
   midi.NoteOnEvent(tick=120, channel=0, data=[75, 0]),
   midi.NoteOnEvent(tick=0, channel=0, data=[71, 50]),
   midi.NoteOnEvent(tick=120, channel=0, data=[71, 0]),
   midi.NoteOnEvent(tick=0, channel=0, data=[66, 42]),
   midi.NoteOnEvent(tick=120, channel=0, data=[66, 0]),
   midi.NoteOnEvent(tick=0, channel=0, data=[70, 37]),
   midi.NoteOnEvent(tick=0, channel=0, data=[73, 45]),
   midi.NoteOnEvent(tick=240, channel=0, data=[73, 0]),
   midi.NoteOnEvent(tick=0, channel=0, data=[70, 0]),
   midi.NoteOnEvent(tick=240, channel=0, data=[87, 50]),
   midi.NoteOnEvent(tick=120, channel=0, data=[87, 0]),
   midi.NoteOnEvent(tick=0, channel=0, data=[90, 42]),
   midi.NoteOnEvent(tick=120, channel=0, data=[90, 0]),
   midi.NoteOnEvent(tick=0, channel=0, data=[87, 50]),
   midi.NoteOnEvent(tick=120, channel=0, data=[87, 0]),
   midi.NoteOnEvent(tick=0, channel=0, data=[83, 42]),
   midi.NoteOnEvent(tick=90, channel=0, data=[83, 0]),
   midi.NoteOnEvent(tick=30, channel=0, data=[83, 50]),
   midi.NoteOnEvent(tick=120, channel=0, data=[83, 0]),
   midi.NoteOnEvent(tick=0, channel=0, data=[87, 42]),
   midi.NoteOnEvent(tick=120, channel=0, data=[87, 0]),
   midi.NoteOnEvent(tick=0, channel=0, data=[83, 50]),
   midi.NoteOnEvent(tick=120, channel=0, data=[83, 0]),
   midi.NoteOnEvent(tick=0, channel=0, data=[78, 42]),
   midi.NoteOnEvent(tick=90, channel=0, data=[78, 0]),
   midi.NoteOnEvent(tick=30, channel=0, data=[78, 50]),
   midi.NoteOnEvent(tick=120, channel=0, data=[78, 0]),
   midi.NoteOnEvent(tick=0, channel=0, data=[83, 42]),
   midi.NoteOnEvent(tick=120, channel=0, data=[83, 0]),
   midi.NoteOnEvent(tick=0, channel=0, data=[78, 50]),
   midi.NoteOnEvent(tick=120, channel=0, data=[78, 0]),
   midi.NoteOnEvent(tick=0, channel=0, data=[75, 42]),
   midi.NoteOnEvent(tick=90, channel=0, data=[75, 0]),
   midi.NoteOnEvent(tick=30, channel=0, data=[75, 50]),
   midi.NoteOnEvent(tick=120, channel=0, data=[75, 0]),
   midi.NoteOnEvent(tick=0, channel=0, data=[78, 42]),
   midi.NoteOnEvent(tick=120, channel=0, data=[78, 0]),
   midi.NoteOnEvent(tick=0, channel=0, data=[75, 50]),
   midi.NoteOnEvent(tick=120, channel=0, data=[75, 0]),
   midi.NoteOnEvent(tick=0, channel=0, data=[71, 42]),
   midi.NoteOnEvent(tick=90, channel=0, data=[71, 0]),
   midi.NoteOnEvent(tick=30, channel=0, data=[71, 50]),
   midi.NoteOnEvent(tick=120, channel=0, data=[71, 0]),
   midi.NoteOnEvent(tick=0, channel=0, data=[75, 42]),
   midi.NoteOnEvent(tick=120, channel=0, data=[75, 0]),
   midi.NoteOnEvent(tick=0, channel=0, data=[71, 50]),
   midi.NoteOnEvent(tick=120, channel=0, data=[71, 0]),
   midi.NoteOnEvent(tick=0, channel=0, data=[66, 42]),
   midi.NoteOnEvent(tick=120, channel=0, data=[66, 0]),
   midi.NoteOnEvent(tick=0, channel=0, data=[70, 37]),
   midi.NoteOnEvent(tick=0, channel=0, data=[73, 45]),
   midi.NoteOnEvent(tick=240, channel=0, data=[73, 0]),
   midi.NoteOnEvent(tick=0, channel=0, data=[70, 0]),
   midi.NoteOnEvent(tick=240, channel=0, data=[71, 41]),
   midi.NoteOnEvent(tick=0, channel=0, data=[75, 41]),
   midi.NoteOnEvent(tick=456, channel=0, data=[75, 0]),
   midi.NoteOnEvent(tick=0, channel=0, data=[71, 0]),
   midi.NoteOnEvent(tick=24, channel=0, data=[70, 47]),
   midi.NoteOnEvent(tick=0, channel=0, data=[73, 47]),
   midi.NoteOnEvent(tick=0, channel=0, data=[80, 47]),
   midi.NoteOnEvent(tick=456, channel=0, data=[80, 0]),
   midi.NoteOnEvent(tick=0, channel=0, data=[73, 0]),
   midi.NoteOnEvent(tick=0, channel=0, data=[70, 0]),
   midi.NoteOnEvent(tick=24, channel=0, data=[70, 48]),
   midi.NoteOnEvent(tick=0, channel=0, data=[73, 48]),
   midi.NoteOnEvent(tick=0, channel=0, data=[80, 48]),
   midi.NoteOnEvent(tick=456, channel=0, data=[80, 0]),
   midi.NoteOnEvent(tick=0, channel=0, data=[73, 0]),
   midi.NoteOnEvent(tick=0, channel=0, data=[70, 0]),
   midi.NoteOnEvent(tick=24, channel=0, data=[70, 49]),
   midi.NoteOnEvent(tick=0, channel=0, data=[73, 49]),
   midi.NoteOnEvent(tick=0, channel=0, data=[80, 49]),
   midi.NoteOnEvent(tick=456, channel=0, data=[80, 0]),
   midi.NoteOnEvent(tick=0, channel=0, data=[73, 0]),
   midi.NoteOnEvent(tick=0, channel=0, data=[70, 0]),
   midi.NoteOnEvent(tick=24, channel=0, data=[78, 39]),
   midi.NoteOnEvent(tick=0, channel=0, data=[70, 39]),
   midi.NoteOnEvent(tick=0, channel=0, data=[75, 39]),
   midi.NoteOnEvent(tick=456, channel=0, data=[75, 0]),
   midi.NoteOnEvent(tick=0, channel=0, data=[70, 0]),
   midi.NoteOnEvent(tick=0, channel=0, data=[78, 0]),
   midi.NoteOnEvent(tick=24, channel=0, data=[76, 39]),
   midi.NoteOnEvent(tick=0, channel=0, data=[70, 39]),
   midi.NoteOnEvent(tick=456, channel=0, data=[70, 0]),
   midi.NoteOnEvent(tick=0, channel=0, data=[76, 0]),
   midi.NoteOnEvent(tick=24, channel=0, data=[86, 50]),
   midi.NoteOnEvent(tick=120, channel=0, data=[86, 0]),
   midi.NoteOnEvent(tick=0, channel=0, data=[90, 42]),
   midi.NoteOnEvent(tick=120, channel=0, data=[90, 0]),
   midi.NoteOnEvent(tick=0, channel=0, data=[86, 50]),
   midi.NoteOnEvent(tick=120, channel=0, data=[86, 0]),
   midi.NoteOnEvent(tick=0, channel=0, data=[83, 42]),
   midi.NoteOnEvent(tick=90, channel=0, data=[83, 0]),
   midi.NoteOnEvent(tick=30, channel=0, data=[83, 50]),
   midi.NoteOnEvent(tick=120, channel=0, data=[83, 0]),
   midi.NoteOnEvent(tick=0, channel=0, data=[86, 42]),
   midi.NoteOnEvent(tick=120, channel=0, data=[86, 0]),
   midi.NoteOnEvent(tick=0, channel=0, data=[83, 50]),
   midi.NoteOnEvent(tick=120, channel=0, data=[83, 0]),
   midi.NoteOnEvent(tick=0, channel=0, data=[78, 42]),
   midi.NoteOnEvent(tick=90, channel=0, data=[78, 0]),
   midi.NoteOnEvent(tick=30, channel=0, data=[78, 50]),
   midi.NoteOnEvent(tick=120, channel=0, data=[78, 0]),
   midi.NoteOnEvent(tick=0, channel=0, data=[83, 42]),
   midi.NoteOnEvent(tick=120, channel=0, data=[83, 0]),
   midi.NoteOnEvent(tick=0, channel=0, data=[78, 50]),
   midi.NoteOnEvent(tick=120, channel=0, data=[78, 0]),
   midi.NoteOnEvent(tick=0, channel=0, data=[74, 42]),
   midi.NoteOnEvent(tick=90, channel=0, data=[74, 0]),
   midi.NoteOnEvent(tick=30, channel=0, data=[74, 50]),
   midi.NoteOnEvent(tick=120, channel=0, data=[74, 0]),
   midi.NoteOnEvent(tick=0, channel=0, data=[78, 42]),
   midi.NoteOnEvent(tick=120, channel=0, data=[78, 0]),
   midi.NoteOnEvent(tick=0, channel=0, data=[74, 50]),
   midi.NoteOnEvent(tick=120, channel=0, data=[74, 0]),
   midi.NoteOnEvent(tick=0, channel=0, data=[71, 42]),
   midi.NoteOnEvent(tick=90, channel=0, data=[71, 0]),
   midi.NoteOnEvent(tick=30, channel=0, data=[71, 50]),
   midi.NoteOnEvent(tick=120, channel=0, data=[71, 0]),
   midi.NoteOnEvent(tick=0, channel=0, data=[74, 42]),
   midi.NoteOnEvent(tick=120, channel=0, data=[74, 0]),
   midi.NoteOnEvent(tick=0, channel=0, data=[71, 50]),
   midi.NoteOnEvent(tick=120, channel=0, data=[71, 0]),
   midi.NoteOnEvent(tick=0, channel=0, data=[66, 42]),
   midi.NoteOnEvent(tick=120, channel=0, data=[66, 0]),
   midi.NoteOnEvent(tick=0, channel=0, data=[70, 37]),
   midi.NoteOnEvent(tick=0, channel=0, data=[73, 45]),
   midi.NoteOnEvent(tick=240, channel=0, data=[73, 0]),
   midi.NoteOnEvent(tick=0, channel=0, data=[70, 0]),
   midi.NoteOnEvent(tick=240, channel=0, data=[86, 50]),
   midi.NoteOnEvent(tick=120, channel=0, data=[86, 0]),
   midi.NoteOnEvent(tick=0, channel=0, data=[90, 42]),
   midi.NoteOnEvent(tick=120, channel=0, data=[90, 0]),
   midi.NoteOnEvent(tick=0, channel=0, data=[86, 50]),
   midi.NoteOnEvent(tick=120, channel=0, data=[86, 0]),
   midi.NoteOnEvent(tick=0, channel=0, data=[83, 42]),
   midi.NoteOnEvent(tick=90, channel=0, data=[83, 0]),
   midi.NoteOnEvent(tick=30, channel=0, data=[83, 50]),
   midi.NoteOnEvent(tick=120, channel=0, data=[83, 0]),
   midi.NoteOnEvent(tick=0, channel=0, data=[86, 42]),
   midi.NoteOnEvent(tick=120, channel=0, data=[86, 0]),
   midi.NoteOnEvent(tick=0, channel=0, data=[83, 50]),
   midi.NoteOnEvent(tick=120, channel=0, data=[83, 0]),
   midi.NoteOnEvent(tick=0, channel=0, data=[78, 42]),
   midi.NoteOnEvent(tick=90, channel=0, data=[78, 0]),
   midi.NoteOnEvent(tick=30, channel=0, data=[78, 50]),
   midi.NoteOnEvent(tick=120, channel=0, data=[78, 0]),
   midi.NoteOnEvent(tick=0, channel=0, data=[83, 42]),
   midi.NoteOnEvent(tick=120, channel=0, data=[83, 0]),
   midi.NoteOnEvent(tick=0, channel=0, data=[78, 50]),
   midi.NoteOnEvent(tick=120, channel=0, data=[78, 0]),
   midi.NoteOnEvent(tick=0, channel=0, data=[74, 42]),
   midi.NoteOnEvent(tick=90, channel=0, data=[74, 0]),
   midi.NoteOnEvent(tick=30, channel=0, data=[74, 50]),
   midi.NoteOnEvent(tick=120, channel=0, data=[74, 0]),
   midi.NoteOnEvent(tick=0, channel=0, data=[78, 42]),
   midi.NoteOnEvent(tick=120, channel=0, data=[78, 0]),
   midi.NoteOnEvent(tick=0, channel=0, data=[74, 50]),
   midi.NoteOnEvent(tick=120, channel=0, data=[74, 0]),
   midi.NoteOnEvent(tick=0, channel=0, data=[71, 42]),
   midi.NoteOnEvent(tick=90, channel=0, data=[71, 0]),
   midi.NoteOnEvent(tick=30, channel=0, data=[71, 50]),
   midi.NoteOnEvent(tick=120, channel=0, data=[71, 0]),
   midi.NoteOnEvent(tick=0, channel=0, data=[74, 42]),
   midi.NoteOnEvent(tick=120, channel=0, data=[74, 0]),
   midi.NoteOnEvent(tick=0, channel=0, data=[71, 50]),
   midi.NoteOnEvent(tick=120, channel=0, data=[71, 0]),
   midi.NoteOnEvent(tick=0, channel=0, data=[66, 42]),
   midi.NoteOnEvent(tick=120, channel=0, data=[66, 0]),
   midi.NoteOnEvent(tick=0, channel=0, data=[70, 37]),
   midi.NoteOnEvent(tick=0, channel=0, data=[73, 45]),
   midi.NoteOnEvent(tick=240, channel=0, data=[73, 0]),
   midi.NoteOnEvent(tick=0, channel=0, data=[70, 0]),
   midi.NoteOnEvent(tick=240, channel=0, data=[74, 41]),
   midi.NoteOnEvent(tick=0, channel=0, data=[66, 41]),
   midi.NoteOnEvent(tick=0, channel=0, data=[71, 41]),
   midi.NoteOnEvent(tick=456, channel=0, data=[71, 0]),
   midi.NoteOnEvent(tick=0, channel=0, data=[66, 0]),
   midi.NoteOnEvent(tick=0, channel=0, data=[74, 0]),
   midi.NoteOnEvent(tick=24, channel=0, data=[73, 50]),
   midi.NoteOnEvent(tick=0, channel=0, data=[76, 50]),
   midi.NoteOnEvent(tick=0, channel=0, data=[83, 50]),
   midi.NoteOnEvent(tick=456, channel=0, data=[83, 0]),
   midi.NoteOnEvent(tick=0, channel=0, data=[76, 0]),
   midi.NoteOnEvent(tick=0, channel=0, data=[73, 0]),
   midi.NoteOnEvent(tick=24, channel=0, data=[73, 48]),
   midi.NoteOnEvent(tick=0, channel=0, data=[76, 48]),
   midi.NoteOnEvent(tick=0, channel=0, data=[83, 48]),
   midi.NoteOnEvent(tick=456, channel=0, data=[83, 0]),
   midi.NoteOnEvent(tick=0, channel=0, data=[76, 0]),
   midi.NoteOnEvent(tick=0, channel=0, data=[73, 0]),
   midi.NoteOnEvent(tick=24, channel=0, data=[73, 46]),
   midi.NoteOnEvent(tick=0, channel=0, data=[76, 46]),
   midi.NoteOnEvent(tick=0, channel=0, data=[83, 46]),
   midi.NoteOnEvent(tick=456, channel=0, data=[83, 0]),
   midi.NoteOnEvent(tick=0, channel=0, data=[76, 0]),
   midi.NoteOnEvent(tick=0, channel=0, data=[73, 0]),
   midi.NoteOnEvent(tick=24, channel=0, data=[73, 44]),
   midi.NoteOnEvent(tick=0, channel=0, data=[78, 44]),
   midi.NoteOnEvent(tick=0, channel=0, data=[81, 44]),
   midi.NoteOnEvent(tick=456, channel=0, data=[81, 0]),
   midi.NoteOnEvent(tick=0, channel=0, data=[78, 0]),
   midi.NoteOnEvent(tick=0, channel=0, data=[73, 0]),
   midi.NoteOnEvent(tick=24, channel=0, data=[73, 42]),
   midi.NoteOnEvent(tick=0, channel=0, data=[79, 42]),
   midi.NoteOnEvent(tick=456, channel=0, data=[79, 0]),
   midi.NoteOnEvent(tick=0, channel=0, data=[73, 0]),
   midi.NoteOnEvent(tick=24, channel=0, data=[74, 38]),
   midi.NoteOnEvent(tick=0, channel=0, data=[78, 38]),
   midi.NoteOnEvent(tick=456, channel=0, data=[78, 0]),
   midi.NoteOnEvent(tick=0, channel=0, data=[74, 0]),
   midi.NoteOnEvent(tick=24, channel=0, data=[70, 46]),
   midi.NoteOnEvent(tick=0, channel=0, data=[73, 46]),
   midi.NoteOnEvent(tick=0, channel=0, data=[79, 46]),
   midi.NoteOnEvent(tick=456, channel=0, data=[79, 0]),
   midi.NoteOnEvent(tick=0, channel=0, data=[73, 0]),
   midi.NoteOnEvent(tick=0, channel=0, data=[70, 0]),
   midi.NoteOnEvent(tick=24, channel=0, data=[70, 46]),
   midi.NoteOnEvent(tick=0, channel=0, data=[73, 46]),
   midi.NoteOnEvent(tick=0, channel=0, data=[79, 46]),
   midi.NoteOnEvent(tick=456, channel=0, data=[79, 0]),
   midi.NoteOnEvent(tick=0, channel=0, data=[73, 0]),
   midi.NoteOnEvent(tick=0, channel=0, data=[70, 0]),
   midi.NoteOnEvent(tick=24, channel=0, data=[73, 46]),
   midi.NoteOnEvent(tick=0, channel=0, data=[79, 46]),
   midi.NoteOnEvent(tick=0, channel=0, data=[70, 46]),
   midi.NoteOnEvent(tick=456, channel=0, data=[70, 0]),
   midi.NoteOnEvent(tick=0, channel=0, data=[79, 0]),
   midi.NoteOnEvent(tick=0, channel=0, data=[73, 0]),
   midi.NoteOnEvent(tick=24, channel=0, data=[78, 44]),
   midi.NoteOnEvent(tick=0, channel=0, data=[73, 44]),
   midi.NoteOnEvent(tick=0, channel=0, data=[70, 44]),
   midi.NoteOnEvent(tick=456, channel=0, data=[70, 0]),
   midi.NoteOnEvent(tick=0, channel=0, data=[73, 0]),
   midi.NoteOnEvent(tick=0, channel=0, data=[78, 0]),
   midi.NoteOnEvent(tick=24, channel=0, data=[76, 42]),
   midi.NoteOnEvent(tick=0, channel=0, data=[73, 42]),
   midi.NoteOnEvent(tick=456, channel=0, data=[73, 0]),
   midi.NoteOnEvent(tick=0, channel=0, data=[76, 0]),
   midi.NoteOnEvent(tick=24, channel=0, data=[75, 41]),
   midi.NoteOnEvent(tick=0, channel=0, data=[71, 41]),
   midi.NoteOnEvent(tick=456, channel=0, data=[71, 0]),
   midi.NoteOnEvent(tick=0, channel=0, data=[75, 0]),
   midi.NoteOnEvent(tick=24, channel=0, data=[68, 49]),
   midi.NoteOnEvent(tick=0, channel=0, data=[64, 49]),
   midi.NoteOnEvent(tick=0, channel=0, data=[76, 49]),
   midi.NoteOnEvent(tick=456, channel=0, data=[76, 0]),
   midi.NoteOnEvent(tick=0, channel=0, data=[64, 0]),
   midi.NoteOnEvent(tick=0, channel=0, data=[68, 0]),
   midi.NoteOnEvent(tick=24, channel=0, data=[76, 49]),
   midi.NoteOnEvent(tick=0, channel=0, data=[68, 49]),
   midi.NoteOnEvent(tick=0, channel=0, data=[64, 49]),
   midi.NoteOnEvent(tick=456, channel=0, data=[64, 0]),
   midi.NoteOnEvent(tick=0, channel=0, data=[68, 0]),
   midi.NoteOnEvent(tick=0, channel=0, data=[76, 0]),
   midi.NoteOnEvent(tick=24, channel=0, data=[68, 49]),
   midi.NoteOnEvent(tick=0, channel=0, data=[64, 49]),
   midi.NoteOnEvent(tick=0, channel=0, data=[76, 49]),
   midi.NoteOnEvent(tick=456, channel=0, data=[76, 0]),
   midi.NoteOnEvent(tick=0, channel=0, data=[64, 0]),
   midi.NoteOnEvent(tick=0, channel=0, data=[68, 0]),
   midi.NoteOnEvent(tick=24, channel=0, data=[75, 49]),
   midi.NoteOnEvent(tick=0, channel=0, data=[68, 49]),
   midi.NoteOnEvent(tick=0, channel=0, data=[63, 49]),
   midi.NoteOnEvent(tick=456, channel=0, data=[63, 0]),
   midi.NoteOnEvent(tick=0, channel=0, data=[68, 0]),
   midi.NoteOnEvent(tick=0, channel=0, data=[75, 0]),
   midi.NoteOnEvent(tick=24, channel=0, data=[61, 47]),
   midi.NoteOnEvent(tick=0, channel=0, data=[73, 47]),
   midi.NoteOnEvent(tick=0, channel=0, data=[68, 47]),
   midi.NoteOnEvent(tick=456, channel=0, data=[68, 0]),
   midi.NoteOnEvent(tick=0, channel=0, data=[73, 0]),
   midi.NoteOnEvent(tick=0, channel=0, data=[61, 0]),
   midi.NoteOnEvent(tick=24, channel=0, data=[63, 48]),
   midi.NoteOnEvent(tick=0, channel=0, data=[68, 48]),
   midi.NoteOnEvent(tick=0, channel=0, data=[71, 48]),
   midi.NoteOnEvent(tick=456, channel=0, data=[71, 0]),
   midi.NoteOnEvent(tick=0, channel=0, data=[68, 0]),
   midi.NoteOnEvent(tick=0, channel=0, data=[63, 0]),
   midi.NoteOnEvent(tick=24, channel=0, data=[63, 48]),
   midi.NoteOnEvent(tick=0, channel=0, data=[68, 48]),
   midi.NoteOnEvent(tick=0, channel=0, data=[71, 48]),
   midi.NoteOnEvent(tick=456, channel=0, data=[71, 0]),
   midi.NoteOnEvent(tick=0, channel=0, data=[68, 0]),
   midi.NoteOnEvent(tick=0, channel=0, data=[63, 0]),
   midi.NoteOnEvent(tick=24, channel=0, data=[63, 48]),
   midi.NoteOnEvent(tick=0, channel=0, data=[68, 48]),
   midi.NoteOnEvent(tick=0, channel=0, data=[71, 48]),
   midi.NoteOnEvent(tick=456, channel=0, data=[71, 0]),
   midi.NoteOnEvent(tick=0, channel=0, data=[68, 0]),
   midi.NoteOnEvent(tick=0, channel=0, data=[63, 0]),
   midi.NoteOnEvent(tick=24, channel=0, data=[63, 33]),
   midi.NoteOnEvent(tick=0, channel=0, data=[67, 33]),
   midi.NoteOnEvent(tick=0, channel=0, data=[70, 33]),
   midi.NoteOnEvent(tick=456, channel=0, data=[70, 0]),
   midi.NoteOnEvent(tick=0, channel=0, data=[67, 0]),
   midi.NoteOnEvent(tick=0, channel=0, data=[63, 0]),
   midi.NoteOnEvent(tick=24, channel=0, data=[63, 34]),
   midi.NoteOnEvent(tick=0, channel=0, data=[67, 34]),
   midi.NoteOnEvent(tick=0, channel=0, data=[70, 34]),
   midi.NoteOnEvent(tick=456, channel=0, data=[70, 0]),
   midi.NoteOnEvent(tick=0, channel=0, data=[67, 0]),
   midi.NoteOnEvent(tick=0, channel=0, data=[63, 0]),
   midi.NoteOnEvent(tick=24, channel=0, data=[63, 34]),
   midi.NoteOnEvent(tick=0, channel=0, data=[67, 34]),
   midi.NoteOnEvent(tick=0, channel=0, data=[70, 34]),
   midi.NoteOnEvent(tick=456, channel=0, data=[70, 0]),
   midi.NoteOnEvent(tick=0, channel=0, data=[67, 0]),
   midi.NoteOnEvent(tick=0, channel=0, data=[63, 0]),
   midi.NoteOnEvent(tick=24, channel=0, data=[84, 40]),
   midi.NoteOnEvent(tick=120, channel=0, data=[84, 0]),
   midi.NoteOnEvent(tick=0, channel=0, data=[87, 34]),
   midi.NoteOnEvent(tick=120, channel=0, data=[87, 0]),
   midi.NoteOnEvent(tick=0, channel=0, data=[84, 40]),
   midi.NoteOnEvent(tick=120, channel=0, data=[84, 0]),
   midi.NoteOnEvent(tick=0, channel=0, data=[80, 34]),
   midi.NoteOnEvent(tick=90, channel=0, data=[80, 0]),
   midi.NoteOnEvent(tick=30, channel=0, data=[80, 40]),
   midi.NoteOnEvent(tick=120, channel=0, data=[80, 0]),
   midi.NoteOnEvent(tick=0, channel=0, data=[84, 34]),
   midi.NoteOnEvent(tick=120, channel=0, data=[84, 0]),
   midi.NoteOnEvent(tick=0, channel=0, data=[80, 40]),
   midi.NoteOnEvent(tick=120, channel=0, data=[80, 0]),
   midi.NoteOnEvent(tick=0, channel=0, data=[75, 34]),
   midi.NoteOnEvent(tick=90, channel=0, data=[75, 0]),
   midi.NoteOnEvent(tick=30, channel=0, data=[75, 40]),
   midi.NoteOnEvent(tick=120, channel=0, data=[75, 0]),
   midi.NoteOnEvent(tick=0, channel=0, data=[80, 34]),
   midi.NoteOnEvent(tick=120, channel=0, data=[80, 0]),
   midi.NoteOnEvent(tick=0, channel=0, data=[75, 40]),
   midi.NoteOnEvent(tick=120, channel=0, data=[75, 0]),
   midi.NoteOnEvent(tick=0, channel=0, data=[72, 34]),
   midi.NoteOnEvent(tick=90, channel=0, data=[72, 0]),
   midi.NoteOnEvent(tick=30, channel=0, data=[72, 40]),
   midi.NoteOnEvent(tick=120, channel=0, data=[72, 0]),
   midi.NoteOnEvent(tick=0, channel=0, data=[75, 34]),
   midi.NoteOnEvent(tick=120, channel=0, data=[75, 0]),
   midi.NoteOnEvent(tick=0, channel=0, data=[72, 40]),
   midi.NoteOnEvent(tick=120, channel=0, data=[72, 0]),
   midi.NoteOnEvent(tick=0, channel=0, data=[68, 34]),
   midi.NoteOnEvent(tick=90, channel=0, data=[68, 0]),
   midi.NoteOnEvent(tick=30, channel=0, data=[68, 40]),
   midi.NoteOnEvent(tick=120, channel=0, data=[68, 0]),
   midi.NoteOnEvent(tick=0, channel=0, data=[72, 34]),
   midi.NoteOnEvent(tick=120, channel=0, data=[72, 0]),
   midi.NoteOnEvent(tick=0, channel=0, data=[68, 40]),
   midi.NoteOnEvent(tick=120, channel=0, data=[68, 0]),
   midi.NoteOnEvent(tick=0, channel=0, data=[63, 34]),
   midi.NoteOnEvent(tick=120, channel=0, data=[63, 0]),
   midi.NoteOnEvent(tick=0, channel=0, data=[67, 30]),
   midi.NoteOnEvent(tick=0, channel=0, data=[70, 36]),
   midi.NoteOnEvent(tick=240, channel=0, data=[70, 0]),
   midi.NoteOnEvent(tick=0, channel=0, data=[67, 0]),
   midi.NoteOnEvent(tick=240, channel=0, data=[84, 40]),
   midi.NoteOnEvent(tick=120, channel=0, data=[84, 0]),
   midi.NoteOnEvent(tick=0, channel=0, data=[87, 34]),
   midi.NoteOnEvent(tick=120, channel=0, data=[87, 0]),
   midi.NoteOnEvent(tick=0, channel=0, data=[84, 40]),
   midi.NoteOnEvent(tick=120, channel=0, data=[84, 0]),
   midi.NoteOnEvent(tick=0, channel=0, data=[80, 34]),
   midi.NoteOnEvent(tick=90, channel=0, data=[80, 0]),
   midi.NoteOnEvent(tick=30, channel=0, data=[80, 40]),
   midi.NoteOnEvent(tick=120, channel=0, data=[80, 0]),
   midi.NoteOnEvent(tick=0, channel=0, data=[84, 34]),
   midi.NoteOnEvent(tick=120, channel=0, data=[84, 0]),
   midi.NoteOnEvent(tick=0, channel=0, data=[80, 40]),
   midi.NoteOnEvent(tick=120, channel=0, data=[80, 0]),
   midi.NoteOnEvent(tick=0, channel=0, data=[75, 34]),
   midi.NoteOnEvent(tick=90, channel=0, data=[75, 0]),
   midi.NoteOnEvent(tick=30, channel=0, data=[75, 40]),
   midi.NoteOnEvent(tick=120, channel=0, data=[75, 0]),
   midi.NoteOnEvent(tick=0, channel=0, data=[80, 34]),
   midi.NoteOnEvent(tick=120, channel=0, data=[80, 0]),
   midi.NoteOnEvent(tick=0, channel=0, data=[75, 40]),
   midi.NoteOnEvent(tick=120, channel=0, data=[75, 0]),
   midi.NoteOnEvent(tick=0, channel=0, data=[72, 34]),
   midi.NoteOnEvent(tick=90, channel=0, data=[72, 0]),
   midi.NoteOnEvent(tick=30, channel=0, data=[72, 40]),
   midi.NoteOnEvent(tick=120, channel=0, data=[72, 0]),
   midi.NoteOnEvent(tick=0, channel=0, data=[75, 34]),
   midi.NoteOnEvent(tick=120, channel=0, data=[75, 0]),
   midi.NoteOnEvent(tick=0, channel=0, data=[72, 40]),
   midi.NoteOnEvent(tick=120, channel=0, data=[72, 0]),
   midi.NoteOnEvent(tick=0, channel=0, data=[68, 34]),
   midi.NoteOnEvent(tick=90, channel=0, data=[68, 0]),
   midi.NoteOnEvent(tick=30, channel=0, data=[68, 40]),
   midi.NoteOnEvent(tick=120, channel=0, data=[68, 0]),
   midi.NoteOnEvent(tick=0, channel=0, data=[72, 34]),
   midi.NoteOnEvent(tick=120, channel=0, data=[72, 0]),
   midi.NoteOnEvent(tick=0, channel=0, data=[68, 40]),
   midi.NoteOnEvent(tick=120, channel=0, data=[68, 0]),
   midi.NoteOnEvent(tick=0, channel=0, data=[63, 34]),
   midi.NoteOnEvent(tick=120, channel=0, data=[63, 0]),
   midi.NoteOnEvent(tick=0, channel=0, data=[67, 30]),
   midi.NoteOnEvent(tick=0, channel=0, data=[70, 36]),
   midi.NoteOnEvent(tick=240, channel=0, data=[70, 0]),
   midi.NoteOnEvent(tick=0, channel=0, data=[67, 0]),
   midi.NoteOnEvent(tick=240, channel=0, data=[87, 45]),
   midi.NoteOnEvent(tick=120, channel=0, data=[87, 0]),
   midi.NoteOnEvent(tick=0, channel=0, data=[92, 38]),
   midi.NoteOnEvent(tick=120, channel=0, data=[92, 0]),
   midi.NoteOnEvent(tick=0, channel=0, data=[87, 45]),
   midi.NoteOnEvent(tick=120, channel=0, data=[87, 0]),
   midi.NoteOnEvent(tick=0, channel=0, data=[84, 38]),
   midi.NoteOnEvent(tick=90, channel=0, data=[84, 0]),
   midi.NoteOnEvent(tick=30, channel=0, data=[84, 45]),
   midi.NoteOnEvent(tick=120, channel=0, data=[84, 0]),
   midi.NoteOnEvent(tick=0, channel=0, data=[87, 38]),
   midi.NoteOnEvent(tick=120, channel=0, data=[87, 0]),
   midi.NoteOnEvent(tick=0, channel=0, data=[84, 45]),
   midi.NoteOnEvent(tick=120, channel=0, data=[84, 0]),
   midi.NoteOnEvent(tick=0, channel=0, data=[80, 38]),
   midi.NoteOnEvent(tick=90, channel=0, data=[80, 0]),
   midi.NoteOnEvent(tick=30, channel=0, data=[80, 45]),
   midi.NoteOnEvent(tick=120, channel=0, data=[80, 0]),
   midi.NoteOnEvent(tick=0, channel=0, data=[84, 38]),
   midi.NoteOnEvent(tick=120, channel=0, data=[84, 0]),
   midi.NoteOnEvent(tick=0, channel=0, data=[80, 45]),
   midi.NoteOnEvent(tick=120, channel=0, data=[80, 0]),
   midi.NoteOnEvent(tick=0, channel=0, data=[75, 38]),
   midi.NoteOnEvent(tick=90, channel=0, data=[75, 0]),
   midi.NoteOnEvent(tick=30, channel=0, data=[75, 45]),
   midi.NoteOnEvent(tick=120, channel=0, data=[75, 0]),
   midi.NoteOnEvent(tick=0, channel=0, data=[80, 38]),
   midi.NoteOnEvent(tick=120, channel=0, data=[80, 0]),
   midi.NoteOnEvent(tick=0, channel=0, data=[75, 45]),
   midi.NoteOnEvent(tick=120, channel=0, data=[75, 0]),
   midi.NoteOnEvent(tick=0, channel=0, data=[72, 38]),
   midi.NoteOnEvent(tick=90, channel=0, data=[72, 0]),
   midi.NoteOnEvent(tick=30, channel=0, data=[72, 45]),
   midi.NoteOnEvent(tick=120, channel=0, data=[72, 0]),
   midi.NoteOnEvent(tick=0, channel=0, data=[75, 38]),
   midi.NoteOnEvent(tick=120, channel=0, data=[75, 0]),
   midi.NoteOnEvent(tick=0, channel=0, data=[72, 45]),
   midi.NoteOnEvent(tick=120, channel=0, data=[72, 0]),
   midi.NoteOnEvent(tick=0, channel=0, data=[68, 38]),
   midi.NoteOnEvent(tick=120, channel=0, data=[68, 0]),
   midi.NoteOnEvent(tick=0, channel=0, data=[67, 40]),
   midi.NoteOnEvent(tick=0, channel=0, data=[70, 40]),
   midi.NoteOnEvent(tick=240, channel=0, data=[70, 0]),
   midi.NoteOnEvent(tick=0, channel=0, data=[67, 0]),
   midi.NoteOnEvent(tick=240, channel=0, data=[87, 50]),
   midi.NoteOnEvent(tick=120, channel=0, data=[87, 0]),
   midi.NoteOnEvent(tick=0, channel=0, data=[92, 42]),
   midi.NoteOnEvent(tick=120, channel=0, data=[92, 0]),
   midi.NoteOnEvent(tick=0, channel=0, data=[87, 50]),
   midi.NoteOnEvent(tick=120, channel=0, data=[87, 0]),
   midi.NoteOnEvent(tick=0, channel=0, data=[84, 42]),
   midi.NoteOnEvent(tick=90, channel=0, data=[84, 0]),
   midi.NoteOnEvent(tick=30, channel=0, data=[84, 50]),
   midi.NoteOnEvent(tick=120, channel=0, data=[84, 0]),
   midi.NoteOnEvent(tick=0, channel=0, data=[87, 42]),
   midi.NoteOnEvent(tick=120, channel=0, data=[87, 0]),
   midi.NoteOnEvent(tick=0, channel=0, data=[84, 50]),
   midi.NoteOnEvent(tick=120, channel=0, data=[84, 0]),
   midi.NoteOnEvent(tick=0, channel=0, data=[80, 42]),
   midi.NoteOnEvent(tick=90, channel=0, data=[80, 0]),
   midi.NoteOnEvent(tick=30, channel=0, data=[80, 50]),
   midi.NoteOnEvent(tick=120, channel=0, data=[80, 0]),
   midi.NoteOnEvent(tick=0, channel=0, data=[84, 42]),
   midi.NoteOnEvent(tick=120, channel=0, data=[84, 0]),
   midi.NoteOnEvent(tick=0, channel=0, data=[80, 50]),
   midi.NoteOnEvent(tick=120, channel=0, data=[80, 0]),
   midi.NoteOnEvent(tick=0, channel=0, data=[75, 42]),
   midi.NoteOnEvent(tick=90, channel=0, data=[75, 0]),
   midi.NoteOnEvent(tick=30, channel=0, data=[75, 50]),
   midi.NoteOnEvent(tick=120, channel=0, data=[75, 0]),
   midi.NoteOnEvent(tick=0, channel=0, data=[80, 42]),
   midi.NoteOnEvent(tick=120, channel=0, data=[80, 0]),
   midi.NoteOnEvent(tick=0, channel=0, data=[75, 50]),
   midi.NoteOnEvent(tick=120, channel=0, data=[75, 0]),
   midi.NoteOnEvent(tick=0, channel=0, data=[72, 42]),
   midi.NoteOnEvent(tick=90, channel=0, data=[72, 0]),
   midi.NoteOnEvent(tick=30, channel=0, data=[72, 50]),
   midi.NoteOnEvent(tick=120, channel=0, data=[72, 0]),
   midi.NoteOnEvent(tick=0, channel=0, data=[75, 42]),
   midi.NoteOnEvent(tick=120, channel=0, data=[75, 0]),
   midi.NoteOnEvent(tick=0, channel=0, data=[72, 50]),
   midi.NoteOnEvent(tick=120, channel=0, data=[72, 0]),
   midi.NoteOnEvent(tick=0, channel=0, data=[68, 42]),
   midi.NoteOnEvent(tick=120, channel=0, data=[68, 0]),
   midi.NoteOnEvent(tick=0, channel=0, data=[67, 45]),
   midi.NoteOnEvent(tick=0, channel=0, data=[70, 45]),
   midi.NoteOnEvent(tick=240, channel=0, data=[70, 0]),
   midi.NoteOnEvent(tick=0, channel=0, data=[67, 0]),
   midi.NoteOnEvent(tick=240, channel=0, data=[72, 40]),
   midi.NoteOnEvent(tick=120, channel=0, data=[72, 0]),
   midi.NoteOnEvent(tick=0, channel=0, data=[75, 34]),
   midi.NoteOnEvent(tick=120, channel=0, data=[75, 0]),
   midi.NoteOnEvent(tick=0, channel=0, data=[72, 40]),
   midi.NoteOnEvent(tick=120, channel=0, data=[72, 0]),
   midi.NoteOnEvent(tick=0, channel=0, data=[68, 34]),
   midi.NoteOnEvent(tick=90, channel=0, data=[68, 0]),
   midi.NoteOnEvent(tick=30, channel=0, data=[68, 40]),
   midi.NoteOnEvent(tick=120, channel=0, data=[68, 0]),
   midi.NoteOnEvent(tick=0, channel=0, data=[72, 34]),
   midi.NoteOnEvent(tick=120, channel=0, data=[72, 0]),
   midi.NoteOnEvent(tick=0, channel=0, data=[68, 40]),
   midi.NoteOnEvent(tick=120, channel=0, data=[68, 0]),
   midi.NoteOnEvent(tick=0, channel=0, data=[63, 34]),
   midi.NoteOnEvent(tick=120, channel=0, data=[63, 0]),
   midi.NoteOnEvent(tick=0, channel=0, data=[68, 40]),
   midi.NoteOnEvent(tick=120, channel=0, data=[68, 0]),
   midi.NoteOnEvent(tick=360, channel=0, data=[73, 40]),
   midi.NoteOnEvent(tick=120, channel=0, data=[73, 0]),
   midi.NoteOnEvent(tick=0, channel=0, data=[77, 34]),
   midi.NoteOnEvent(tick=120, channel=0, data=[77, 0]),
   midi.NoteOnEvent(tick=0, channel=0, data=[73, 40]),
   midi.NoteOnEvent(tick=120, channel=0, data=[73, 0]),
   midi.NoteOnEvent(tick=0, channel=0, data=[68, 34]),
   midi.NoteOnEvent(tick=90, channel=0, data=[68, 0]),
   midi.NoteOnEvent(tick=30, channel=0, data=[68, 40]),
   midi.NoteOnEvent(tick=120, channel=0, data=[68, 0]),
   midi.NoteOnEvent(tick=0, channel=0, data=[73, 34]),
   midi.NoteOnEvent(tick=120, channel=0, data=[73, 0]),
   midi.NoteOnEvent(tick=0, channel=0, data=[68, 40]),
   midi.NoteOnEvent(tick=120, channel=0, data=[68, 0]),
   midi.NoteOnEvent(tick=0, channel=0, data=[65, 34]),
   midi.NoteOnEvent(tick=120, channel=0, data=[65, 0]),
   midi.NoteOnEvent(tick=0, channel=0, data=[68, 40]),
   midi.NoteOnEvent(tick=120, channel=0, data=[68, 0]),
   midi.NoteOnEvent(tick=360, channel=0, data=[75, 40]),
   midi.NoteOnEvent(tick=120, channel=0, data=[75, 0]),
   midi.NoteOnEvent(tick=0, channel=0, data=[79, 34]),
   midi.NoteOnEvent(tick=120, channel=0, data=[79, 0]),
   midi.NoteOnEvent(tick=0, channel=0, data=[75, 40]),
   midi.NoteOnEvent(tick=120, channel=0, data=[75, 0]),
   midi.NoteOnEvent(tick=0, channel=0, data=[70, 34]),
   midi.NoteOnEvent(tick=90, channel=0, data=[70, 0]),
   midi.NoteOnEvent(tick=30, channel=0, data=[70, 40]),
   midi.NoteOnEvent(tick=120, channel=0, data=[70, 0]),
   midi.NoteOnEvent(tick=0, channel=0, data=[75, 34]),
   midi.NoteOnEvent(tick=120, channel=0, data=[75, 0]),
   midi.NoteOnEvent(tick=0, channel=0, data=[70, 40]),
   midi.NoteOnEvent(tick=120, channel=0, data=[70, 0]),
   midi.NoteOnEvent(tick=0, channel=0, data=[67, 34]),
   midi.NoteOnEvent(tick=120, channel=0, data=[67, 0]),
   midi.NoteOnEvent(tick=0, channel=0, data=[70, 40]),
   midi.NoteOnEvent(tick=120, channel=0, data=[70, 0]),
   midi.NoteOnEvent(tick=360, channel=0, data=[75, 40]),
   midi.NoteOnEvent(tick=120, channel=0, data=[75, 0]),
   midi.NoteOnEvent(tick=0, channel=0, data=[80, 34]),
   midi.NoteOnEvent(tick=120, channel=0, data=[80, 0]),
   midi.NoteOnEvent(tick=0, channel=0, data=[75, 40]),
   midi.NoteOnEvent(tick=120, channel=0, data=[75, 0]),
   midi.NoteOnEvent(tick=0, channel=0, data=[72, 34]),
   midi.NoteOnEvent(tick=90, channel=0, data=[72, 0]),
   midi.NoteOnEvent(tick=30, channel=0, data=[72, 40]),
   midi.NoteOnEvent(tick=120, channel=0, data=[72, 0]),
   midi.NoteOnEvent(tick=0, channel=0, data=[75, 34]),
   midi.NoteOnEvent(tick=120, channel=0, data=[75, 0]),
   midi.NoteOnEvent(tick=0, channel=0, data=[72, 40]),
   midi.NoteOnEvent(tick=120, channel=0, data=[72, 0]),
   midi.NoteOnEvent(tick=0, channel=0, data=[68, 34]),
   midi.NoteOnEvent(tick=120, channel=0, data=[68, 0]),
   midi.NoteOnEvent(tick=0, channel=0, data=[72, 40]),
   midi.NoteOnEvent(tick=120, channel=0, data=[72, 0]),
   midi.NoteOnEvent(tick=360, channel=0, data=[84, 53]),
   midi.NoteOnEvent(tick=120, channel=0, data=[84, 0]),
   midi.NoteOnEvent(tick=0, channel=0, data=[87, 45]),
   midi.NoteOnEvent(tick=120, channel=0, data=[87, 0]),
   midi.NoteOnEvent(tick=0, channel=0, data=[84, 53]),
   midi.NoteOnEvent(tick=120, channel=0, data=[84, 0]),
   midi.NoteOnEvent(tick=0, channel=0, data=[80, 45]),
   midi.NoteOnEvent(tick=90, channel=0, data=[80, 0]),
   midi.NoteOnEvent(tick=30, channel=0, data=[80, 53]),
   midi.NoteOnEvent(tick=120, channel=0, data=[80, 0]),
   midi.NoteOnEvent(tick=0, channel=0, data=[84, 45]),
   midi.NoteOnEvent(tick=120, channel=0, data=[84, 0]),
   midi.NoteOnEvent(tick=0, channel=0, data=[80, 53]),
   midi.NoteOnEvent(tick=120, channel=0, data=[80, 0]),
   midi.NoteOnEvent(tick=0, channel=0, data=[75, 45]),
   midi.NoteOnEvent(tick=120, channel=0, data=[75, 0]),
   midi.NoteOnEvent(tick=0, channel=0, data=[80, 53]),
   midi.NoteOnEvent(tick=120, channel=0, data=[80, 0]),
   midi.NoteOnEvent(tick=360, channel=0, data=[85, 60]),
   midi.NoteOnEvent(tick=120, channel=0, data=[85, 0]),
   midi.NoteOnEvent(tick=0, channel=0, data=[89, 51]),
   midi.NoteOnEvent(tick=120, channel=0, data=[89, 0]),
   midi.NoteOnEvent(tick=0, channel=0, data=[85, 60]),
   midi.NoteOnEvent(tick=120, channel=0, data=[85, 0]),
   midi.NoteOnEvent(tick=0, channel=0, data=[80, 51]),
   midi.NoteOnEvent(tick=90, channel=0, data=[80, 0]),
   midi.NoteOnEvent(tick=30, channel=0, data=[80, 60]),
   midi.NoteOnEvent(tick=120, channel=0, data=[80, 0]),
   midi.NoteOnEvent(tick=0, channel=0, data=[85, 51]),
   midi.NoteOnEvent(tick=120, channel=0, data=[85, 0]),
   midi.NoteOnEvent(tick=0, channel=0, data=[80, 60]),
   midi.NoteOnEvent(tick=120, channel=0, data=[80, 0]),
   midi.NoteOnEvent(tick=0, channel=0, data=[77, 51]),
   midi.NoteOnEvent(tick=120, channel=0, data=[77, 0]),
   midi.NoteOnEvent(tick=0, channel=0, data=[80, 60]),
   midi.NoteOnEvent(tick=120, channel=0, data=[80, 0]),
   midi.NoteOnEvent(tick=360, channel=0, data=[87, 70]),
   midi.NoteOnEvent(tick=120, channel=0, data=[87, 0]),
   midi.NoteOnEvent(tick=0, channel=0, data=[91, 59]),
   midi.NoteOnEvent(tick=120, channel=0, data=[91, 0]),
   midi.NoteOnEvent(tick=0, channel=0, data=[87, 70]),
   midi.NoteOnEvent(tick=120, channel=0, data=[87, 0]),
   midi.NoteOnEvent(tick=0, channel=0, data=[82, 59]),
   midi.NoteOnEvent(tick=90, channel=0, data=[82, 0]),
   midi.NoteOnEvent(tick=30, channel=0, data=[82, 70]),
   midi.NoteOnEvent(tick=120, channel=0, data=[82, 0]),
   midi.NoteOnEvent(tick=0, channel=0, data=[87, 59]),
   midi.NoteOnEvent(tick=120, channel=0, data=[87, 0]),
   midi.NoteOnEvent(tick=0, channel=0, data=[82, 70]),
   midi.NoteOnEvent(tick=120, channel=0, data=[82, 0]),
   midi.NoteOnEvent(tick=0, channel=0, data=[79, 59]),
   midi.NoteOnEvent(tick=120, channel=0, data=[79, 0]),
   midi.NoteOnEvent(tick=0, channel=0, data=[82, 70]),
   midi.NoteOnEvent(tick=240, channel=0, data=[82, 0]),
   midi.NoteOnEvent(tick=240, channel=0, data=[87, 80]),
   midi.NoteOnEvent(tick=120, channel=0, data=[87, 0]),
   midi.NoteOnEvent(tick=0, channel=0, data=[92, 68]),
   midi.NoteOnEvent(tick=120, channel=0, data=[92, 0]),
   midi.NoteOnEvent(tick=0, channel=0, data=[87, 80]),
   midi.NoteOnEvent(tick=120, channel=0, data=[87, 0]),
   midi.NoteOnEvent(tick=0, channel=0, data=[84, 68]),
   midi.NoteOnEvent(tick=90, channel=0, data=[84, 0]),
   midi.NoteOnEvent(tick=30, channel=0, data=[84, 80]),
   midi.NoteOnEvent(tick=120, channel=0, data=[84, 0]),
   midi.NoteOnEvent(tick=0, channel=0, data=[87, 68]),
   midi.NoteOnEvent(tick=120, channel=0, data=[87, 0]),
   midi.NoteOnEvent(tick=0, channel=0, data=[84, 80]),
   midi.NoteOnEvent(tick=120, channel=0, data=[84, 0]),
   midi.NoteOnEvent(tick=0, channel=0, data=[80, 68]),
   midi.NoteOnEvent(tick=120, channel=0, data=[80, 0]),
   midi.NoteOnEvent(tick=0, channel=0, data=[84, 80]),
   midi.NoteOnEvent(tick=240, channel=0, data=[84, 0]),
   midi.NoteOnEvent(tick=240, channel=0, data=[72, 40]),
   midi.NoteOnEvent(tick=120, channel=0, data=[72, 0]),
   midi.NoteOnEvent(tick=0, channel=0, data=[75, 34]),
   midi.NoteOnEvent(tick=120, channel=0, data=[75, 0]),
   midi.NoteOnEvent(tick=0, channel=0, data=[72, 40]),
   midi.NoteOnEvent(tick=120, channel=0, data=[72, 0]),
   midi.NoteOnEvent(tick=0, channel=0, data=[68, 34]),
   midi.NoteOnEvent(tick=90, channel=0, data=[68, 0]),
   midi.NoteOnEvent(tick=30, channel=0, data=[68, 40]),
   midi.NoteOnEvent(tick=120, channel=0, data=[68, 0]),
   midi.NoteOnEvent(tick=0, channel=0, data=[72, 34]),
   midi.NoteOnEvent(tick=120, channel=0, data=[72, 0]),
   midi.NoteOnEvent(tick=0, channel=0, data=[68, 40]),
   midi.NoteOnEvent(tick=120, channel=0, data=[68, 0]),
   midi.NoteOnEvent(tick=0, channel=0, data=[63, 34]),
   midi.NoteOnEvent(tick=120, channel=0, data=[63, 0]),
   midi.NoteOnEvent(tick=0, channel=0, data=[68, 40]),
   midi.NoteOnEvent(tick=240, channel=0, data=[68, 0]),
   midi.NoteOnEvent(tick=240, channel=0, data=[73, 40]),
   midi.NoteOnEvent(tick=120, channel=0, data=[73, 0]),
   midi.NoteOnEvent(tick=0, channel=0, data=[77, 34]),
   midi.NoteOnEvent(tick=120, channel=0, data=[77, 0]),
   midi.NoteOnEvent(tick=0, channel=0, data=[73, 40]),
   midi.NoteOnEvent(tick=120, channel=0, data=[73, 0]),
   midi.NoteOnEvent(tick=0, channel=0, data=[68, 34]),
   midi.NoteOnEvent(tick=90, channel=0, data=[68, 0]),
   midi.NoteOnEvent(tick=30, channel=0, data=[68, 40]),
   midi.NoteOnEvent(tick=120, channel=0, data=[68, 0]),
   midi.NoteOnEvent(tick=0, channel=0, data=[73, 34]),
   midi.NoteOnEvent(tick=120, channel=0, data=[73, 0]),
   midi.NoteOnEvent(tick=0, channel=0, data=[68, 40]),
   midi.NoteOnEvent(tick=120, channel=0, data=[68, 0]),
   midi.NoteOnEvent(tick=0, channel=0, data=[65, 34]),
   midi.NoteOnEvent(tick=120, channel=0, data=[65, 0]),
   midi.NoteOnEvent(tick=0, channel=0, data=[68, 40]),
   midi.NoteOnEvent(tick=240, channel=0, data=[68, 0]),
   midi.NoteOnEvent(tick=240, channel=0, data=[75, 40]),
   midi.NoteOnEvent(tick=120, channel=0, data=[75, 0]),
   midi.NoteOnEvent(tick=0, channel=0, data=[79, 34]),
   midi.NoteOnEvent(tick=120, channel=0, data=[79, 0]),
   midi.NoteOnEvent(tick=0, channel=0, data=[75, 40]),
   midi.NoteOnEvent(tick=120, channel=0, data=[75, 0]),
   midi.NoteOnEvent(tick=0, channel=0, data=[70, 34]),
   midi.NoteOnEvent(tick=90, channel=0, data=[70, 0]),
   midi.NoteOnEvent(tick=30, channel=0, data=[70, 40]),
   midi.NoteOnEvent(tick=120, channel=0, data=[70, 0]),
   midi.NoteOnEvent(tick=0, channel=0, data=[75, 34]),
   midi.NoteOnEvent(tick=120, channel=0, data=[75, 0]),
   midi.NoteOnEvent(tick=0, channel=0, data=[70, 40]),
   midi.NoteOnEvent(tick=120, channel=0, data=[70, 0]),
   midi.NoteOnEvent(tick=0, channel=0, data=[67, 34]),
   midi.NoteOnEvent(tick=120, channel=0, data=[67, 0]),
   midi.NoteOnEvent(tick=0, channel=0, data=[70, 40]),
   midi.NoteOnEvent(tick=240, channel=0, data=[70, 0]),
   midi.NoteOnEvent(tick=240, channel=0, data=[75, 40]),
   midi.NoteOnEvent(tick=120, channel=0, data=[75, 0]),
   midi.NoteOnEvent(tick=0, channel=0, data=[80, 34]),
   midi.NoteOnEvent(tick=120, channel=0, data=[80, 0]),
   midi.NoteOnEvent(tick=0, channel=0, data=[75, 40]),
   midi.NoteOnEvent(tick=120, channel=0, data=[75, 0]),
   midi.NoteOnEvent(tick=0, channel=0, data=[72, 34]),
   midi.NoteOnEvent(tick=90, channel=0, data=[72, 0]),
   midi.NoteOnEvent(tick=30, channel=0, data=[72, 40]),
   midi.NoteOnEvent(tick=120, channel=0, data=[72, 0]),
   midi.NoteOnEvent(tick=0, channel=0, data=[75, 34]),
   midi.NoteOnEvent(tick=120, channel=0, data=[75, 0]),
   midi.NoteOnEvent(tick=0, channel=0, data=[72, 40]),
   midi.NoteOnEvent(tick=120, channel=0, data=[72, 0]),
   midi.NoteOnEvent(tick=0, channel=0, data=[68, 34]),
   midi.NoteOnEvent(tick=120, channel=0, data=[68, 0]),
   midi.NoteOnEvent(tick=0, channel=0, data=[72, 40]),
   midi.NoteOnEvent(tick=240, channel=0, data=[72, 0]),
   midi.NoteOnEvent(tick=240, channel=0, data=[84, 50]),
   midi.NoteOnEvent(tick=120, channel=0, data=[84, 0]),
   midi.NoteOnEvent(tick=0, channel=0, data=[87, 42]),
   midi.NoteOnEvent(tick=120, channel=0, data=[87, 0]),
   midi.NoteOnEvent(tick=0, channel=0, data=[84, 50]),
   midi.NoteOnEvent(tick=120, channel=0, data=[84, 0]),
   midi.NoteOnEvent(tick=0, channel=0, data=[80, 42]),
   midi.NoteOnEvent(tick=90, channel=0, data=[80, 0]),
   midi.NoteOnEvent(tick=30, channel=0, data=[80, 50]),
   midi.NoteOnEvent(tick=120, channel=0, data=[80, 0]),
   midi.NoteOnEvent(tick=0, channel=0, data=[84, 42]),
   midi.NoteOnEvent(tick=120, channel=0, data=[84, 0]),
   midi.NoteOnEvent(tick=0, channel=0, data=[80, 50]),
   midi.NoteOnEvent(tick=120, channel=0, data=[80, 0]),
   midi.NoteOnEvent(tick=0, channel=0, data=[75, 42]),
   midi.NoteOnEvent(tick=120, channel=0, data=[75, 0]),
   midi.NoteOnEvent(tick=0, channel=0, data=[80, 50]),
   midi.NoteOnEvent(tick=240, channel=0, data=[80, 0]),
   midi.NoteOnEvent(tick=240, channel=0, data=[85, 56]),
   midi.NoteOnEvent(tick=120, channel=0, data=[85, 0]),
   midi.NoteOnEvent(tick=0, channel=0, data=[89, 47]),
   midi.NoteOnEvent(tick=120, channel=0, data=[89, 0]),
   midi.NoteOnEvent(tick=0, channel=0, data=[85, 56]),
   midi.NoteOnEvent(tick=120, channel=0, data=[85, 0]),
   midi.NoteOnEvent(tick=0, channel=0, data=[80, 47]),
   midi.NoteOnEvent(tick=90, channel=0, data=[80, 0]),
   midi.NoteOnEvent(tick=30, channel=0, data=[80, 56]),
   midi.NoteOnEvent(tick=120, channel=0, data=[80, 0]),
   midi.NoteOnEvent(tick=0, channel=0, data=[85, 47]),
   midi.NoteOnEvent(tick=120, channel=0, data=[85, 0]),
   midi.NoteOnEvent(tick=0, channel=0, data=[80, 56]),
   midi.NoteOnEvent(tick=120, channel=0, data=[80, 0]),
   midi.NoteOnEvent(tick=0, channel=0, data=[77, 47]),
   midi.NoteOnEvent(tick=120, channel=0, data=[77, 0]),
   midi.NoteOnEvent(tick=0, channel=0, data=[80, 56]),
   midi.NoteOnEvent(tick=240, channel=0, data=[80, 0]),
   midi.NoteOnEvent(tick=240, channel=0, data=[87, 60]),
   midi.NoteOnEvent(tick=120, channel=0, data=[87, 0]),
   midi.NoteOnEvent(tick=0, channel=0, data=[91, 51]),
   midi.NoteOnEvent(tick=120, channel=0, data=[91, 0]),
   midi.NoteOnEvent(tick=0, channel=0, data=[87, 60]),
   midi.NoteOnEvent(tick=120, channel=0, data=[87, 0]),
   midi.NoteOnEvent(tick=0, channel=0, data=[82, 51]),
   midi.NoteOnEvent(tick=90, channel=0, data=[82, 0]),
   midi.NoteOnEvent(tick=30, channel=0, data=[82, 60]),
   midi.NoteOnEvent(tick=120, channel=0, data=[82, 0]),
   midi.NoteOnEvent(tick=0, channel=0, data=[87, 51]),
   midi.NoteOnEvent(tick=120, channel=0, data=[87, 0]),
   midi.NoteOnEvent(tick=0, channel=0, data=[82, 60]),
   midi.NoteOnEvent(tick=120, channel=0, data=[82, 0]),
   midi.NoteOnEvent(tick=0, channel=0, data=[79, 51]),
   midi.NoteOnEvent(tick=120, channel=0, data=[79, 0]),
   midi.NoteOnEvent(tick=0, channel=0, data=[82, 60]),
   midi.NoteOnEvent(tick=240, channel=0, data=[82, 0]),
   midi.NoteOnEvent(tick=240, channel=0, data=[87, 70]),
   midi.NoteOnEvent(tick=120, channel=0, data=[87, 0]),
   midi.NoteOnEvent(tick=0, channel=0, data=[92, 59]),
   midi.NoteOnEvent(tick=120, channel=0, data=[92, 0]),
   midi.NoteOnEvent(tick=0, channel=0, data=[87, 70]),
   midi.NoteOnEvent(tick=120, channel=0, data=[87, 0]),
   midi.NoteOnEvent(tick=0, channel=0, data=[84, 59]),
   midi.NoteOnEvent(tick=90, channel=0, data=[84, 0]),
   midi.NoteOnEvent(tick=30, channel=0, data=[84, 70]),
   midi.NoteOnEvent(tick=120, channel=0, data=[84, 0]),
   midi.NoteOnEvent(tick=0, channel=0, data=[87, 59]),
   midi.NoteOnEvent(tick=120, channel=0, data=[87, 0]),
   midi.NoteOnEvent(tick=0, channel=0, data=[84, 70]),
   midi.NoteOnEvent(tick=120, channel=0, data=[84, 0]),
   midi.NoteOnEvent(tick=0, channel=0, data=[80, 59]),
   midi.NoteOnEvent(tick=120, channel=0, data=[80, 0]),
   midi.NoteOnEvent(tick=0, channel=0, data=[84, 70]),
   midi.NoteOnEvent(tick=240, channel=0, data=[84, 0]),
   midi.NoteOnEvent(tick=240, channel=0, data=[87, 76]),
   midi.NoteOnEvent(tick=120, channel=0, data=[87, 0]),
   midi.NoteOnEvent(tick=0, channel=0, data=[91, 64]),
   midi.NoteOnEvent(tick=120, channel=0, data=[91, 0]),
   midi.NoteOnEvent(tick=0, channel=0, data=[87, 76]),
   midi.NoteOnEvent(tick=120, channel=0, data=[87, 0]),
   midi.NoteOnEvent(tick=0, channel=0, data=[82, 64]),
   midi.NoteOnEvent(tick=90, channel=0, data=[82, 0]),
   midi.NoteOnEvent(tick=30, channel=0, data=[82, 76]),
   midi.NoteOnEvent(tick=120, channel=0, data=[82, 0]),
   midi.NoteOnEvent(tick=0, channel=0, data=[87, 64]),
   midi.NoteOnEvent(tick=120, channel=0, data=[87, 0]),
   midi.NoteOnEvent(tick=0, channel=0, data=[82, 76]),
   midi.NoteOnEvent(tick=120, channel=0, data=[82, 0]),
   midi.NoteOnEvent(tick=0, channel=0, data=[79, 64]),
   midi.NoteOnEvent(tick=120, channel=0, data=[79, 0]),
   midi.NoteOnEvent(tick=0, channel=0, data=[82, 76]),
   midi.NoteOnEvent(tick=240, channel=0, data=[82, 0]),
   midi.NoteOnEvent(tick=240, channel=0, data=[87, 80]),
   midi.NoteOnEvent(tick=120, channel=0, data=[87, 0]),
   midi.NoteOnEvent(tick=0, channel=0, data=[92, 67]),
   midi.NoteOnEvent(tick=120, channel=0, data=[92, 0]),
   midi.NoteOnEvent(tick=0, channel=0, data=[87, 80]),
   midi.NoteOnEvent(tick=120, channel=0, data=[87, 0]),
   midi.NoteOnEvent(tick=0, channel=0, data=[84, 67]),
   midi.NoteOnEvent(tick=90, channel=0, data=[84, 0]),
   midi.NoteOnEvent(tick=30, channel=0, data=[84, 80]),
   midi.NoteOnEvent(tick=120, channel=0, data=[84, 0]),
   midi.NoteOnEvent(tick=0, channel=0, data=[87, 67]),
   midi.NoteOnEvent(tick=120, channel=0, data=[87, 0]),
   midi.NoteOnEvent(tick=0, channel=0, data=[84, 80]),
   midi.NoteOnEvent(tick=120, channel=0, data=[84, 0]),
   midi.NoteOnEvent(tick=0, channel=0, data=[80, 67]),
   midi.NoteOnEvent(tick=120, channel=0, data=[80, 0]),
   midi.NoteOnEvent(tick=0, channel=0, data=[84, 80]),
   midi.NoteOnEvent(tick=240, channel=0, data=[84, 0]),
   midi.NoteOnEvent(tick=240, channel=0, data=[89, 79]),
   midi.NoteOnEvent(tick=120, channel=0, data=[89, 0]),
   midi.NoteOnEvent(tick=0, channel=0, data=[93, 67]),
   midi.NoteOnEvent(tick=120, channel=0, data=[93, 0]),
   midi.NoteOnEvent(tick=0, channel=0, data=[89, 79]),
   midi.NoteOnEvent(tick=120, channel=0, data=[89, 0]),
   midi.NoteOnEvent(tick=0, channel=0, data=[84, 67]),
   midi.NoteOnEvent(tick=90, channel=0, data=[84, 0]),
   midi.NoteOnEvent(tick=30, channel=0, data=[84, 79]),
   midi.NoteOnEvent(tick=120, channel=0, data=[84, 0]),
   midi.NoteOnEvent(tick=0, channel=0, data=[89, 67]),
   midi.NoteOnEvent(tick=120, channel=0, data=[89, 0]),
   midi.NoteOnEvent(tick=0, channel=0, data=[84, 79]),
   midi.NoteOnEvent(tick=120, channel=0, data=[84, 0]),
   midi.NoteOnEvent(tick=0, channel=0, data=[81, 67]),
   midi.NoteOnEvent(tick=120, channel=0, data=[81, 0]),
   midi.NoteOnEvent(tick=0, channel=0, data=[84, 79]),
   midi.NoteOnEvent(tick=240, channel=0, data=[84, 0]),
   midi.NoteOnEvent(tick=240, channel=0, data=[89, 80]),
   midi.NoteOnEvent(tick=120, channel=0, data=[89, 0]),
   midi.NoteOnEvent(tick=0, channel=0, data=[94, 68]),
   midi.NoteOnEvent(tick=120, channel=0, data=[94, 0]),
   midi.NoteOnEvent(tick=0, channel=0, data=[89, 80]),
   midi.NoteOnEvent(tick=120, channel=0, data=[89, 0]),
   midi.NoteOnEvent(tick=0, channel=0, data=[85, 68]),
   midi.NoteOnEvent(tick=90, channel=0, data=[85, 0]),
   midi.NoteOnEvent(tick=30, channel=0, data=[85, 80]),
   midi.NoteOnEvent(tick=120, channel=0, data=[85, 0]),
   midi.NoteOnEvent(tick=0, channel=0, data=[89, 68]),
   midi.NoteOnEvent(tick=120, channel=0, data=[89, 0]),
   midi.NoteOnEvent(tick=0, channel=0, data=[85, 80]),
   midi.NoteOnEvent(tick=120, channel=0, data=[85, 0]),
   midi.NoteOnEvent(tick=0, channel=0, data=[82, 68]),
   midi.NoteOnEvent(tick=120, channel=0, data=[82, 0]),
   midi.NoteOnEvent(tick=0, channel=0, data=[85, 80]),
   midi.NoteOnEvent(tick=240, channel=0, data=[85, 0]),
   midi.NoteOnEvent(tick=240, channel=0, data=[89, 80]),
   midi.NoteOnEvent(tick=120, channel=0, data=[89, 0]),
   midi.NoteOnEvent(tick=0, channel=0, data=[93, 68]),
   midi.NoteOnEvent(tick=120, channel=0, data=[93, 0]),
   midi.NoteOnEvent(tick=0, channel=0, data=[89, 80]),
   midi.NoteOnEvent(tick=120, channel=0, data=[89, 0]),
   midi.NoteOnEvent(tick=0, channel=0, data=[84, 68]),
   midi.NoteOnEvent(tick=90, channel=0, data=[84, 0]),
   midi.NoteOnEvent(tick=30, channel=0, data=[84, 80]),
   midi.NoteOnEvent(tick=120, channel=0, data=[84, 0]),
   midi.NoteOnEvent(tick=0, channel=0, data=[89, 68]),
   midi.NoteOnEvent(tick=120, channel=0, data=[89, 0]),
   midi.NoteOnEvent(tick=0, channel=0, data=[84, 80]),
   midi.NoteOnEvent(tick=120, channel=0, data=[84, 0]),
   midi.NoteOnEvent(tick=0, channel=0, data=[81, 68]),
   midi.NoteOnEvent(tick=120, channel=0, data=[81, 0]),
   midi.NoteOnEvent(tick=0, channel=0, data=[84, 80]),
   midi.NoteOnEvent(tick=240, channel=0, data=[84, 0]),
   midi.NoteOnEvent(tick=240, channel=0, data=[89, 80]),
   midi.NoteOnEvent(tick=120, channel=0, data=[89, 0]),
   midi.NoteOnEvent(tick=0, channel=0, data=[94, 68]),
   midi.NoteOnEvent(tick=120, channel=0, data=[94, 0]),
   midi.NoteOnEvent(tick=0, channel=0, data=[89, 80]),
   midi.NoteOnEvent(tick=120, channel=0, data=[89, 0]),
   midi.NoteOnEvent(tick=0, channel=0, data=[85, 68]),
   midi.NoteOnEvent(tick=90, channel=0, data=[85, 0]),
   midi.NoteOnEvent(tick=30, channel=0, data=[85, 80]),
   midi.NoteOnEvent(tick=120, channel=0, data=[85, 0]),
   midi.NoteOnEvent(tick=0, channel=0, data=[89, 68]),
   midi.NoteOnEvent(tick=120, channel=0, data=[89, 0]),
   midi.NoteOnEvent(tick=0, channel=0, data=[85, 80]),
   midi.NoteOnEvent(tick=120, channel=0, data=[85, 0]),
   midi.NoteOnEvent(tick=0, channel=0, data=[82, 68]),
   midi.NoteOnEvent(tick=120, channel=0, data=[82, 0]),
   midi.NoteOnEvent(tick=0, channel=0, data=[85, 80]),
   midi.NoteOnEvent(tick=240, channel=0, data=[85, 0]),
   midi.NoteOnEvent(tick=240, channel=0, data=[92, 80]),
   midi.NoteOnEvent(tick=120, channel=0, data=[92, 0]),
   midi.NoteOnEvent(tick=0, channel=0, data=[96, 68]),
   midi.NoteOnEvent(tick=120, channel=0, data=[96, 0]),
   midi.NoteOnEvent(tick=0, channel=0, data=[92, 80]),
   midi.NoteOnEvent(tick=120, channel=0, data=[92, 0]),
   midi.NoteOnEvent(tick=0, channel=0, data=[87, 68]),
   midi.NoteOnEvent(tick=90, channel=0, data=[87, 0]),
   midi.NoteOnEvent(tick=30, channel=0, data=[87, 80]),
   midi.NoteOnEvent(tick=120, channel=0, data=[87, 0]),
   midi.NoteOnEvent(tick=0, channel=0, data=[92, 68]),
   midi.NoteOnEvent(tick=120, channel=0, data=[92, 0]),
   midi.NoteOnEvent(tick=0, channel=0, data=[87, 80]),
   midi.NoteOnEvent(tick=120, channel=0, data=[87, 0]),
   midi.NoteOnEvent(tick=0, channel=0, data=[84, 68]),
   midi.NoteOnEvent(tick=120, channel=0, data=[84, 0]),
   midi.NoteOnEvent(tick=0, channel=0, data=[87, 80]),
   midi.NoteOnEvent(tick=240, channel=0, data=[87, 0]),
   midi.NoteOnEvent(tick=240, channel=0, data=[92, 80]),
   midi.NoteOnEvent(tick=120, channel=0, data=[92, 0]),
   midi.NoteOnEvent(tick=0, channel=0, data=[97, 68]),
   midi.NoteOnEvent(tick=120, channel=0, data=[97, 0]),
   midi.NoteOnEvent(tick=0, channel=0, data=[92, 80]),
   midi.NoteOnEvent(tick=120, channel=0, data=[92, 0]),
   midi.NoteOnEvent(tick=0, channel=0, data=[89, 68]),
   midi.NoteOnEvent(tick=90, channel=0, data=[89, 0]),
   midi.NoteOnEvent(tick=30, channel=0, data=[89, 81]),
   midi.NoteOnEvent(tick=120, channel=0, data=[89, 0]),
   midi.NoteOnEvent(tick=0, channel=0, data=[92, 69]),
   midi.NoteOnEvent(tick=120, channel=0, data=[92, 0]),
   midi.NoteOnEvent(tick=0, channel=0, data=[89, 82]),
   midi.NoteOnEvent(tick=120, channel=0, data=[89, 0]),
   midi.NoteOnEvent(tick=0, channel=0, data=[85, 69]),
   midi.NoteOnEvent(tick=120, channel=0, data=[85, 0]),
   midi.NoteOnEvent(tick=0, channel=0, data=[89, 83]),
   midi.NoteOnEvent(tick=240, channel=0, data=[89, 0]),
   midi.NoteOnEvent(tick=240, channel=0, data=[92, 84]),
   midi.NoteOnEvent(tick=120, channel=0, data=[92, 0]),
   midi.NoteOnEvent(tick=0, channel=0, data=[96, 71]),
   midi.NoteOnEvent(tick=120, channel=0, data=[96, 0]),
   midi.NoteOnEvent(tick=0, channel=0, data=[92, 85]),
   midi.NoteOnEvent(tick=120, channel=0, data=[92, 0]),
   midi.NoteOnEvent(tick=0, channel=0, data=[87, 72]),
   midi.NoteOnEvent(tick=90, channel=0, data=[87, 0]),
   midi.NoteOnEvent(tick=30, channel=0, data=[87, 86]),
   midi.NoteOnEvent(tick=120, channel=0, data=[87, 0]),
   midi.NoteOnEvent(tick=0, channel=0, data=[92, 73]),
   midi.NoteOnEvent(tick=120, channel=0, data=[92, 0]),
   midi.NoteOnEvent(tick=0, channel=0, data=[87, 87]),
   midi.NoteOnEvent(tick=120, channel=0, data=[87, 0]),
   midi.NoteOnEvent(tick=0, channel=0, data=[84, 73]),
   midi.NoteOnEvent(tick=120, channel=0, data=[84, 0]),
   midi.NoteOnEvent(tick=0, channel=0, data=[87, 87]),
   midi.NoteOnEvent(tick=240, channel=0, data=[87, 0]),
   midi.NoteOnEvent(tick=240, channel=0, data=[92, 88]),
   midi.NoteOnEvent(tick=120, channel=0, data=[92, 0]),
   midi.NoteOnEvent(tick=0, channel=0, data=[97, 74]),
   midi.NoteOnEvent(tick=120, channel=0, data=[97, 0]),
   midi.NoteOnEvent(tick=0, channel=0, data=[92, 88]),
   midi.NoteOnEvent(tick=120, channel=0, data=[92, 0]),
   midi.NoteOnEvent(tick=0, channel=0, data=[89, 74]),
   midi.NoteOnEvent(tick=90, channel=0, data=[89, 0]),
   midi.NoteOnEvent(tick=30, channel=0, data=[89, 88]),
   midi.NoteOnEvent(tick=120, channel=0, data=[89, 0]),
   midi.NoteOnEvent(tick=0, channel=0, data=[92, 74]),
   midi.NoteOnEvent(tick=120, channel=0, data=[92, 0]),
   midi.NoteOnEvent(tick=0, channel=0, data=[89, 88]),
   midi.NoteOnEvent(tick=120, channel=0, data=[89, 0]),
   midi.NoteOnEvent(tick=0, channel=0, data=[85, 74]),
   midi.NoteOnEvent(tick=90, channel=0, data=[85, 0]),
   midi.NoteOnEvent(tick=30, channel=0, data=[85, 88]),
   midi.NoteOnEvent(tick=120, channel=0, data=[85, 0]),
   midi.NoteOnEvent(tick=0, channel=0, data=[89, 74]),
   midi.NoteOnEvent(tick=120, channel=0, data=[89, 0]),
   midi.NoteOnEvent(tick=0, channel=0, data=[85, 88]),
   midi.NoteOnEvent(tick=120, channel=0, data=[85, 0]),
   midi.NoteOnEvent(tick=0, channel=0, data=[80, 74]),
   midi.NoteOnEvent(tick=90, channel=0, data=[80, 0]),
   midi.NoteOnEvent(tick=30, channel=0, data=[80, 88]),
   midi.NoteOnEvent(tick=120, channel=0, data=[80, 0]),
   midi.NoteOnEvent(tick=0, channel=0, data=[85, 74]),
   midi.NoteOnEvent(tick=120, channel=0, data=[85, 0]),
   midi.NoteOnEvent(tick=0, channel=0, data=[80, 88]),
   midi.NoteOnEvent(tick=120, channel=0, data=[80, 0]),
   midi.NoteOnEvent(tick=0, channel=0, data=[77, 74]),
   midi.NoteOnEvent(tick=90, channel=0, data=[77, 0]),
   midi.NoteOnEvent(tick=30, channel=0, data=[77, 88]),
   midi.NoteOnEvent(tick=120, channel=0, data=[77, 0]),
   midi.NoteOnEvent(tick=0, channel=0, data=[80, 74]),
   midi.NoteOnEvent(tick=120, channel=0, data=[80, 0]),
   midi.NoteOnEvent(tick=0, channel=0, data=[77, 88]),
   midi.NoteOnEvent(tick=120, channel=0, data=[77, 0]),
   midi.NoteOnEvent(tick=0, channel=0, data=[73, 74]),
   midi.NoteOnEvent(tick=90, channel=0, data=[73, 0]),
   midi.NoteOnEvent(tick=30, channel=0, data=[73, 88]),
   midi.NoteOnEvent(tick=120, channel=0, data=[73, 0]),
   midi.NoteOnEvent(tick=0, channel=0, data=[77, 74]),
   midi.NoteOnEvent(tick=120, channel=0, data=[77, 0]),
   midi.NoteOnEvent(tick=0, channel=0, data=[73, 88]),
   midi.NoteOnEvent(tick=120, channel=0, data=[73, 0]),
   midi.NoteOnEvent(tick=0, channel=0, data=[68, 74]),
   midi.NoteOnEvent(tick=90, channel=0, data=[68, 0]),
   midi.NoteOnEvent(tick=30, channel=0, data=[80, 88]),
   midi.NoteOnEvent(tick=120, channel=0, data=[80, 0]),
   midi.NoteOnEvent(tick=0, channel=0, data=[85, 74]),
   midi.NoteOnEvent(tick=120, channel=0, data=[85, 0]),
   midi.NoteOnEvent(tick=0, channel=0, data=[80, 88]),
   midi.NoteOnEvent(tick=120, channel=0, data=[80, 0]),
   midi.NoteOnEvent(tick=0, channel=0, data=[77, 74]),
   midi.NoteOnEvent(tick=90, channel=0, data=[77, 0]),
   midi.NoteOnEvent(tick=30, channel=0, data=[77, 88]),
   midi.NoteOnEvent(tick=120, channel=0, data=[77, 0]),
   midi.NoteOnEvent(tick=0, channel=0, data=[80, 74]),
   midi.NoteOnEvent(tick=120, channel=0, data=[80, 0]),
   midi.NoteOnEvent(tick=0, channel=0, data=[77, 88]),
   midi.NoteOnEvent(tick=120, channel=0, data=[77, 0]),
   midi.NoteOnEvent(tick=0, channel=0, data=[73, 74]),
   midi.NoteOnEvent(tick=90, channel=0, data=[73, 0]),
   midi.NoteOnEvent(tick=30, channel=0, data=[73, 88]),
   midi.NoteOnEvent(tick=120, channel=0, data=[73, 0]),
   midi.NoteOnEvent(tick=0, channel=0, data=[77, 74]),
   midi.NoteOnEvent(tick=120, channel=0, data=[77, 0]),
   midi.NoteOnEvent(tick=0, channel=0, data=[73, 88]),
   midi.NoteOnEvent(tick=120, channel=0, data=[73, 0]),
   midi.NoteOnEvent(tick=0, channel=0, data=[68, 74]),
   midi.NoteOnEvent(tick=90, channel=0, data=[68, 0]),
   midi.NoteOnEvent(tick=30, channel=0, data=[68, 88]),
   midi.NoteOnEvent(tick=120, channel=0, data=[68, 0]),
   midi.NoteOnEvent(tick=0, channel=0, data=[73, 74]),
   midi.NoteOnEvent(tick=120, channel=0, data=[73, 0]),
   midi.NoteOnEvent(tick=0, channel=0, data=[68, 88]),
   midi.NoteOnEvent(tick=120, channel=0, data=[68, 0]),
   midi.NoteOnEvent(tick=0, channel=0, data=[65, 74]),
   midi.NoteOnEvent(tick=90, channel=0, data=[65, 0]),
   midi.NoteOnEvent(tick=30, channel=0, data=[65, 88]),
   midi.NoteOnEvent(tick=120, channel=0, data=[65, 0]),
   midi.NoteOnEvent(tick=0, channel=0, data=[68, 74]),
   midi.NoteOnEvent(tick=120, channel=0, data=[68, 0]),
   midi.NoteOnEvent(tick=0, channel=0, data=[65, 88]),
   midi.NoteOnEvent(tick=120, channel=0, data=[65, 0]),
   midi.NoteOnEvent(tick=0, channel=0, data=[61, 74]),
   midi.NoteOnEvent(tick=90, channel=0, data=[61, 0]),
   midi.NoteOnEvent(tick=30, channel=0, data=[61, 88]),
   midi.NoteOnEvent(tick=120, channel=0, data=[61, 0]),
   midi.NoteOnEvent(tick=0, channel=0, data=[65, 74]),
   midi.NoteOnEvent(tick=120, channel=0, data=[65, 0]),
   midi.NoteOnEvent(tick=0, channel=0, data=[61, 88]),
   midi.NoteOnEvent(tick=120, channel=0, data=[61, 0]),
   midi.NoteOnEvent(tick=0, channel=0, data=[56, 74]),
   midi.NoteOnEvent(tick=120, channel=0, data=[56, 0]),
   midi.NoteOnEvent(tick=0, channel=0, data=[61, 90]),
   midi.NoteOnEvent(tick=120, channel=0, data=[61, 0]),
   midi.NoteOnEvent(tick=0, channel=0, data=[64, 69]),
   midi.NoteOnEvent(tick=120, channel=0, data=[64, 0]),
   midi.NoteOnEvent(tick=0, channel=0, data=[61, 82]),
   midi.NoteOnEvent(tick=120, channel=0, data=[61, 0]),
   midi.NoteOnEvent(tick=0, channel=0, data=[58, 69]),
   midi.NoteOnEvent(tick=90, channel=0, data=[58, 0]),
   midi.NoteOnEvent(tick=30, channel=0, data=[58, 82]),
   midi.NoteOnEvent(tick=120, channel=0, data=[58, 0]),
   midi.NoteOnEvent(tick=0, channel=0, data=[61, 69]),
   midi.NoteOnEvent(tick=120, channel=0, data=[61, 0]),
   midi.NoteOnEvent(tick=0, channel=0, data=[58, 82]),
   midi.NoteOnEvent(tick=120, channel=0, data=[58, 0]),
   midi.NoteOnEvent(tick=0, channel=0, data=[55, 69]),
   midi.NoteOnEvent(tick=120, channel=0, data=[55, 0]),
   midi.NoteOnEvent(tick=0, channel=0, data=[61, 91]),
   midi.NoteOnEvent(tick=120, channel=0, data=[61, 0]),
   midi.NoteOnEvent(tick=0, channel=0, data=[64, 69]),
   midi.NoteOnEvent(tick=120, channel=0, data=[64, 0]),
   midi.NoteOnEvent(tick=0, channel=0, data=[61, 82]),
   midi.NoteOnEvent(tick=120, channel=0, data=[61, 0]),
   midi.NoteOnEvent(tick=0, channel=0, data=[58, 69]),
   midi.NoteOnEvent(tick=90, channel=0, data=[58, 0]),
   midi.NoteOnEvent(tick=30, channel=0, data=[58, 82]),
   midi.NoteOnEvent(tick=120, channel=0, data=[58, 0]),
   midi.NoteOnEvent(tick=0, channel=0, data=[61, 69]),
   midi.NoteOnEvent(tick=120, channel=0, data=[61, 0]),
   midi.NoteOnEvent(tick=0, channel=0, data=[58, 82]),
   midi.NoteOnEvent(tick=120, channel=0, data=[58, 0]),
   midi.NoteOnEvent(tick=0, channel=0, data=[55, 69]),
   midi.NoteOnEvent(tick=120, channel=0, data=[55, 0]),
   midi.NoteOnEvent(tick=0, channel=0, data=[61, 90]),
   midi.NoteOnEvent(tick=120, channel=0, data=[61, 0]),
   midi.NoteOnEvent(tick=0, channel=0, data=[64, 69]),
   midi.NoteOnEvent(tick=120, channel=0, data=[64, 0]),
   midi.NoteOnEvent(tick=0, channel=0, data=[61, 82]),
   midi.NoteOnEvent(tick=120, channel=0, data=[61, 0]),
   midi.NoteOnEvent(tick=0, channel=0, data=[58, 69]),
   midi.NoteOnEvent(tick=120, channel=0, data=[58, 0]),
   midi.NoteOnEvent(tick=0, channel=0, data=[58, 82]),
   midi.NoteOnEvent(tick=120, channel=0, data=[58, 0]),
   midi.NoteOnEvent(tick=0, channel=0, data=[61, 69]),
   midi.NoteOnEvent(tick=120, channel=0, data=[61, 0]),
   midi.NoteOnEvent(tick=0, channel=0, data=[58, 82]),
   midi.NoteOnEvent(tick=120, channel=0, data=[58, 0]),
   midi.NoteOnEvent(tick=0, channel=0, data=[55, 69]),
   midi.NoteOnEvent(tick=120, channel=0, data=[55, 0]),
   midi.NoteOnEvent(tick=0, channel=0, data=[61, 81]),
   midi.NoteOnEvent(tick=120, channel=0, data=[61, 0]),
   midi.NoteOnEvent(tick=0, channel=0, data=[63, 68]),
   midi.NoteOnEvent(tick=120, channel=0, data=[63, 0]),
   midi.NoteOnEvent(tick=0, channel=0, data=[61, 81]),
   midi.NoteOnEvent(tick=120, channel=0, data=[61, 0]),
   midi.NoteOnEvent(tick=0, channel=0, data=[58, 67]),
   midi.NoteOnEvent(tick=90, channel=0, data=[58, 0]),
   midi.NoteOnEvent(tick=30, channel=0, data=[58, 80]),
   midi.NoteOnEvent(tick=120, channel=0, data=[58, 0]),
   midi.NoteOnEvent(tick=0, channel=0, data=[61, 66]),
   midi.NoteOnEvent(tick=120, channel=0, data=[61, 0]),
   midi.NoteOnEvent(tick=0, channel=0, data=[58, 79]),
   midi.NoteOnEvent(tick=120, channel=0, data=[58, 0]),
   midi.NoteOnEvent(tick=0, channel=0, data=[55, 66]),
   midi.NoteOnEvent(tick=120, channel=0, data=[55, 0]),
   midi.NoteOnEvent(tick=0, channel=0, data=[61, 84]),
   midi.NoteOnEvent(tick=120, channel=0, data=[61, 0]),
   midi.NoteOnEvent(tick=0, channel=0, data=[63, 65]),
   midi.NoteOnEvent(tick=120, channel=0, data=[63, 0]),
   midi.NoteOnEvent(tick=0, channel=0, data=[61, 76]),
   midi.NoteOnEvent(tick=120, channel=0, data=[61, 0]),
   midi.NoteOnEvent(tick=0, channel=0, data=[58, 62]),
   midi.NoteOnEvent(tick=90, channel=0, data=[58, 0]),
   midi.NoteOnEvent(tick=30, channel=0, data=[58, 76]),
   midi.NoteOnEvent(tick=120, channel=0, data=[58, 0]),
   midi.NoteOnEvent(tick=0, channel=0, data=[61, 63]),
   midi.NoteOnEvent(tick=120, channel=0, data=[61, 0]),
   midi.NoteOnEvent(tick=0, channel=0, data=[58, 73]),
   midi.NoteOnEvent(tick=120, channel=0, data=[58, 0]),
   midi.NoteOnEvent(tick=0, channel=0, data=[55, 59]),
   midi.NoteOnEvent(tick=120, channel=0, data=[55, 0]),
   midi.NoteOnEvent(tick=0, channel=0, data=[61, 76]),
   midi.NoteOnEvent(tick=120, channel=0, data=[61, 0]),
   midi.NoteOnEvent(tick=0, channel=0, data=[63, 57]),
   midi.NoteOnEvent(tick=120, channel=0, data=[63, 0]),
   midi.NoteOnEvent(tick=0, channel=0, data=[61, 66]),
   midi.NoteOnEvent(tick=120, channel=0, data=[61, 0]),
   midi.NoteOnEvent(tick=0, channel=0, data=[58, 55]),
   midi.NoteOnEvent(tick=90, channel=0, data=[58, 0]),
   midi.NoteOnEvent(tick=30, channel=0, data=[58, 63]),
   midi.NoteOnEvent(tick=120, channel=0, data=[58, 0]),
   midi.NoteOnEvent(tick=0, channel=0, data=[61, 52]),
   midi.NoteOnEvent(tick=120, channel=0, data=[61, 0]),
   midi.NoteOnEvent(tick=0, channel=0, data=[58, 60]),
   midi.NoteOnEvent(tick=120, channel=0, data=[58, 0]),
   midi.NoteOnEvent(tick=0, channel=0, data=[55, 49]),
   midi.NoteOnEvent(tick=120, channel=0, data=[55, 0]),
   midi.NoteOnEvent(tick=0, channel=0, data=[63, 50]),
   midi.NoteOnEvent(tick=160, channel=0, data=[60, 40]),
   midi.NoteOnEvent(tick=160, channel=0, data=[60, 0]),
   midi.NoteOnEvent(tick=0, channel=0, data=[56, 40]),
   midi.NoteOnEvent(tick=160, channel=0, data=[56, 0]),
   midi.NoteOnEvent(tick=0, channel=0, data=[63, 0]),
   midi.NoteOnEvent(tick=0, channel=0, data=[68, 50]),
   midi.NoteOnEvent(tick=160, channel=0, data=[63, 40]),
   midi.NoteOnEvent(tick=160, channel=0, data=[63, 0]),
   midi.NoteOnEvent(tick=0, channel=0, data=[60, 40]),
   midi.NoteOnEvent(tick=160, channel=0, data=[60, 0]),
   midi.NoteOnEvent(tick=0, channel=0, data=[68, 0]),
   midi.NoteOnEvent(tick=0, channel=0, data=[67, 50]),
   midi.NoteOnEvent(tick=160, channel=0, data=[63, 40]),
   midi.NoteOnEvent(tick=160, channel=0, data=[63, 0]),
   midi.NoteOnEvent(tick=0, channel=0, data=[60, 40]),
   midi.NoteOnEvent(tick=160, channel=0, data=[60, 0]),
   midi.NoteOnEvent(tick=0, channel=0, data=[67, 0]),
   midi.NoteOnEvent(tick=0, channel=0, data=[65, 50]),
   midi.NoteOnEvent(tick=160, channel=0, data=[61, 40]),
   midi.NoteOnEvent(tick=160, channel=0, data=[61, 0]),
   midi.NoteOnEvent(tick=0, channel=0, data=[56, 40]),
   midi.NoteOnEvent(tick=160, channel=0, data=[56, 0]),
   midi.NoteOnEvent(tick=0, channel=0, data=[65, 0]),
   midi.NoteOnEvent(tick=0, channel=0, data=[73, 50]),
   midi.NoteOnEvent(tick=160, channel=0, data=[65, 40]),
   midi.NoteOnEvent(tick=160, channel=0, data=[65, 0]),
   midi.NoteOnEvent(tick=0, channel=0, data=[61, 40]),
   midi.NoteOnEvent(tick=160, channel=0, data=[61, 0]),
   midi.NoteOnEvent(tick=0, channel=0, data=[73, 0]),
   midi.NoteOnEvent(tick=0, channel=0, data=[70, 50]),
   midi.NoteOnEvent(tick=160, channel=0, data=[65, 40]),
   midi.NoteOnEvent(tick=160, channel=0, data=[65, 0]),
   midi.NoteOnEvent(tick=0, channel=0, data=[61, 40]),
   midi.NoteOnEvent(tick=160, channel=0, data=[61, 0]),
   midi.NoteOnEvent(tick=0, channel=0, data=[70, 0]),
   midi.NoteOnEvent(tick=0, channel=0, data=[70, 50]),
   midi.NoteOnEvent(tick=160, channel=0, data=[63, 40]),
   midi.NoteOnEvent(tick=160, channel=0, data=[63, 0]),
   midi.NoteOnEvent(tick=0, channel=0, data=[61, 40]),
   midi.NoteOnEvent(tick=160, channel=0, data=[61, 0]),
   midi.NoteOnEvent(tick=0, channel=0, data=[70, 0]),
   midi.NoteOnEvent(tick=0, channel=0, data=[68, 50]),
   midi.NoteOnEvent(tick=160, channel=0, data=[63, 40]),
   midi.NoteOnEvent(tick=160, channel=0, data=[63, 0]),
   midi.NoteOnEvent(tick=0, channel=0, data=[60, 40]),
   midi.NoteOnEvent(tick=160, channel=0, data=[60, 0]),
   midi.NoteOnEvent(tick=0, channel=0, data=[68, 0]),
   midi.NoteOnEvent(tick=0, channel=0, data=[68, 50]),
   midi.NoteOnEvent(tick=160, channel=0, data=[63, 40]),
   midi.NoteOnEvent(tick=160, channel=0, data=[63, 0]),
   midi.NoteOnEvent(tick=0, channel=0, data=[60, 40]),
   midi.NoteOnEvent(tick=160, channel=0, data=[60, 0]),
   midi.NoteOnEvent(tick=0, channel=0, data=[68, 0]),
   midi.NoteOnEvent(tick=0, channel=0, data=[68, 50]),
   midi.NoteOnEvent(tick=160, channel=0, data=[63, 40]),
   midi.NoteOnEvent(tick=160, channel=0, data=[63, 0]),
   midi.NoteOnEvent(tick=0, channel=0, data=[60, 40]),
   midi.NoteOnEvent(tick=160, channel=0, data=[60, 0]),
   midi.NoteOnEvent(tick=0, channel=0, data=[68, 0]),
   midi.NoteOnEvent(tick=0, channel=0, data=[67, 50]),
   midi.NoteOnEvent(tick=160, channel=0, data=[63, 40]),
   midi.NoteOnEvent(tick=160, channel=0, data=[63, 0]),
   midi.NoteOnEvent(tick=0, channel=0, data=[58, 40]),
   midi.NoteOnEvent(tick=160, channel=0, data=[58, 0]),
   midi.NoteOnEvent(tick=0, channel=0, data=[67, 0]),
   midi.NoteOnEvent(tick=0, channel=0, data=[67, 50]),
   midi.NoteOnEvent(tick=160, channel=0, data=[63, 40]),
   midi.NoteOnEvent(tick=160, channel=0, data=[63, 0]),
   midi.NoteOnEvent(tick=0, channel=0, data=[58, 40]),
   midi.NoteOnEvent(tick=160, channel=0, data=[58, 0]),
   midi.NoteOnEvent(tick=0, channel=0, data=[67, 0]),
   midi.NoteOnEvent(tick=0, channel=0, data=[63, 50]),
   midi.NoteOnEvent(tick=160, channel=0, data=[60, 40]),
   midi.NoteOnEvent(tick=160, channel=0, data=[60, 0]),
   midi.NoteOnEvent(tick=0, channel=0, data=[56, 40]),
   midi.NoteOnEvent(tick=160, channel=0, data=[56, 0]),
   midi.NoteOnEvent(tick=0, channel=0, data=[63, 0]),
   midi.NoteOnEvent(tick=0, channel=0, data=[68, 50]),
   midi.NoteOnEvent(tick=160, channel=0, data=[63, 40]),
   midi.NoteOnEvent(tick=160, channel=0, data=[63, 0]),
   midi.NoteOnEvent(tick=0, channel=0, data=[60, 40]),
   midi.NoteOnEvent(tick=160, channel=0, data=[60, 0]),
   midi.NoteOnEvent(tick=0, channel=0, data=[68, 0]),
   midi.NoteOnEvent(tick=0, channel=0, data=[67, 50]),
   midi.NoteOnEvent(tick=160, channel=0, data=[63, 40]),
   midi.NoteOnEvent(tick=160, channel=0, data=[63, 0]),
   midi.NoteOnEvent(tick=0, channel=0, data=[60, 40]),
   midi.NoteOnEvent(tick=160, channel=0, data=[60, 0]),
   midi.NoteOnEvent(tick=0, channel=0, data=[67, 0]),
   midi.NoteOnEvent(tick=0, channel=0, data=[65, 50]),
   midi.NoteOnEvent(tick=160, channel=0, data=[61, 40]),
   midi.NoteOnEvent(tick=160, channel=0, data=[61, 0]),
   midi.NoteOnEvent(tick=0, channel=0, data=[56, 40]),
   midi.NoteOnEvent(tick=160, channel=0, data=[56, 0]),
   midi.NoteOnEvent(tick=0, channel=0, data=[65, 0]),
   midi.NoteOnEvent(tick=0, channel=0, data=[77, 50]),
   midi.NoteOnEvent(tick=160, channel=0, data=[68, 40]),
   midi.NoteOnEvent(tick=160, channel=0, data=[68, 0]),
   midi.NoteOnEvent(tick=0, channel=0, data=[65, 40]),
   midi.NoteOnEvent(tick=160, channel=0, data=[65, 0]),
   midi.NoteOnEvent(tick=0, channel=0, data=[77, 0]),
   midi.NoteOnEvent(tick=0, channel=0, data=[73, 50]),
   midi.NoteOnEvent(tick=160, channel=0, data=[65, 40]),
   midi.NoteOnEvent(tick=160, channel=0, data=[65, 0]),
   midi.NoteOnEvent(tick=0, channel=0, data=[61, 40]),
   midi.NoteOnEvent(tick=160, channel=0, data=[61, 0]),
   midi.NoteOnEvent(tick=0, channel=0, data=[73, 0]),
   midi.NoteOnEvent(tick=0, channel=0, data=[73, 50]),
   midi.NoteOnEvent(tick=160, channel=0, data=[68, 40]),
   midi.NoteOnEvent(tick=160, channel=0, data=[68, 0]),
   midi.NoteOnEvent(tick=0, channel=0, data=[63, 40]),
   midi.NoteOnEvent(tick=160, channel=0, data=[63, 0]),
   midi.NoteOnEvent(tick=0, channel=0, data=[73, 0]),
   midi.NoteOnEvent(tick=0, channel=0, data=[72, 50]),
   midi.NoteOnEvent(tick=160, channel=0, data=[68, 40]),
   midi.NoteOnEvent(tick=160, channel=0, data=[68, 0]),
   midi.NoteOnEvent(tick=0, channel=0, data=[63, 40]),
   midi.NoteOnEvent(tick=160, channel=0, data=[63, 0]),
   midi.NoteOnEvent(tick=0, channel=0, data=[72, 0]),
   midi.NoteOnEvent(tick=0, channel=0, data=[72, 50]),
   midi.NoteOnEvent(tick=160, channel=0, data=[68, 40]),
   midi.NoteOnEvent(tick=160, channel=0, data=[68, 0]),
   midi.NoteOnEvent(tick=0, channel=0, data=[63, 40]),
   midi.NoteOnEvent(tick=160, channel=0, data=[63, 0]),
   midi.NoteOnEvent(tick=0, channel=0, data=[72, 0]),
   midi.NoteOnEvent(tick=0, channel=0, data=[72, 50]),
   midi.NoteOnEvent(tick=160, channel=0, data=[63, 40]),
   midi.NoteOnEvent(tick=160, channel=0, data=[63, 0]),
   midi.NoteOnEvent(tick=0, channel=0, data=[61, 40]),
   midi.NoteOnEvent(tick=160, channel=0, data=[61, 0]),
   midi.NoteOnEvent(tick=0, channel=0, data=[72, 0]),
   midi.NoteOnEvent(tick=0, channel=0, data=[70, 50]),
   midi.NoteOnEvent(tick=160, channel=0, data=[63, 40]),
   midi.NoteOnEvent(tick=160, channel=0, data=[63, 0]),
   midi.NoteOnEvent(tick=0, channel=0, data=[61, 40]),
   midi.NoteOnEvent(tick=160, channel=0, data=[61, 0]),
   midi.NoteOnEvent(tick=0, channel=0, data=[70, 0]),
   midi.NoteOnEvent(tick=0, channel=0, data=[70, 50]),
   midi.NoteOnEvent(tick=160, channel=0, data=[63, 40]),
   midi.NoteOnEvent(tick=160, channel=0, data=[63, 0]),
   midi.NoteOnEvent(tick=0, channel=0, data=[61, 40]),
   midi.NoteOnEvent(tick=160, channel=0, data=[61, 0]),
   midi.NoteOnEvent(tick=0, channel=0, data=[70, 0]),
   midi.NoteOnEvent(tick=0, channel=0, data=[72, 48]),
   midi.NoteOnEvent(tick=112, channel=0, data=[72, 0]),
   midi.NoteOnEvent(tick=0, channel=0, data=[75, 40]),
   midi.NoteOnEvent(tick=120, channel=0, data=[75, 0]),
   midi.NoteOnEvent(tick=0, channel=0, data=[72, 48]),
   midi.NoteOnEvent(tick=120, channel=0, data=[72, 0]),
   midi.NoteOnEvent(tick=0, channel=0, data=[68, 40]),
   midi.NoteOnEvent(tick=90, channel=0, data=[68, 0]),
   midi.NoteOnEvent(tick=30, channel=0, data=[68, 48]),
   midi.NoteOnEvent(tick=120, channel=0, data=[68, 0]),
   midi.NoteOnEvent(tick=0, channel=0, data=[72, 40]),
   midi.NoteOnEvent(tick=120, channel=0, data=[72, 0]),
   midi.NoteOnEvent(tick=0, channel=0, data=[68, 48]),
   midi.NoteOnEvent(tick=120, channel=0, data=[68, 0]),
   midi.NoteOnEvent(tick=0, channel=0, data=[63, 40]),
   midi.NoteOnEvent(tick=120, channel=0, data=[63, 0]),
   midi.NoteOnEvent(tick=0, channel=0, data=[68, 48]),
   midi.NoteOnEvent(tick=240, channel=0, data=[68, 0]),
   midi.NoteOnEvent(tick=240, channel=0, data=[73, 48]),
   midi.NoteOnEvent(tick=120, channel=0, data=[73, 0]),
   midi.NoteOnEvent(tick=0, channel=0, data=[77, 40]),
   midi.NoteOnEvent(tick=120, channel=0, data=[77, 0]),
   midi.NoteOnEvent(tick=0, channel=0, data=[73, 48]),
   midi.NoteOnEvent(tick=120, channel=0, data=[73, 0]),
   midi.NoteOnEvent(tick=0, channel=0, data=[68, 40]),
   midi.NoteOnEvent(tick=90, channel=0, data=[68, 0]),
   midi.NoteOnEvent(tick=30, channel=0, data=[68, 48]),
   midi.NoteOnEvent(tick=120, channel=0, data=[68, 0]),
   midi.NoteOnEvent(tick=0, channel=0, data=[73, 40]),
   midi.NoteOnEvent(tick=120, channel=0, data=[73, 0]),
   midi.NoteOnEvent(tick=0, channel=0, data=[68, 48]),
   midi.NoteOnEvent(tick=120, channel=0, data=[68, 0]),
   midi.NoteOnEvent(tick=0, channel=0, data=[65, 40]),
   midi.NoteOnEvent(tick=120, channel=0, data=[65, 0]),
   midi.NoteOnEvent(tick=0, channel=0, data=[68, 48]),
   midi.NoteOnEvent(tick=240, channel=0, data=[68, 0]),
   midi.NoteOnEvent(tick=240, channel=0, data=[75, 48]),
   midi.NoteOnEvent(tick=120, channel=0, data=[75, 0]),
   midi.NoteOnEvent(tick=0, channel=0, data=[79, 40]),
   midi.NoteOnEvent(tick=120, channel=0, data=[79, 0]),
   midi.NoteOnEvent(tick=0, channel=0, data=[75, 48]),
   midi.NoteOnEvent(tick=120, channel=0, data=[75, 0]),
   midi.NoteOnEvent(tick=0, channel=0, data=[70, 40]),
   midi.NoteOnEvent(tick=90, channel=0, data=[70, 0]),
   midi.NoteOnEvent(tick=30, channel=0, data=[70, 48]),
   midi.NoteOnEvent(tick=120, channel=0, data=[70, 0]),
   midi.NoteOnEvent(tick=0, channel=0, data=[75, 40]),
   midi.NoteOnEvent(tick=120, channel=0, data=[75, 0]),
   midi.NoteOnEvent(tick=0, channel=0, data=[70, 48]),
   midi.NoteOnEvent(tick=120, channel=0, data=[70, 0]),
   midi.NoteOnEvent(tick=0, channel=0, data=[67, 40]),
   midi.NoteOnEvent(tick=120, channel=0, data=[67, 0]),
   midi.NoteOnEvent(tick=0, channel=0, data=[70, 48]),
   midi.NoteOnEvent(tick=240, channel=0, data=[70, 0]),
   midi.NoteOnEvent(tick=240, channel=0, data=[75, 48]),
   midi.NoteOnEvent(tick=120, channel=0, data=[75, 0]),
   midi.NoteOnEvent(tick=0, channel=0, data=[80, 40]),
   midi.NoteOnEvent(tick=120, channel=0, data=[80, 0]),
   midi.NoteOnEvent(tick=0, channel=0, data=[75, 48]),
   midi.NoteOnEvent(tick=120, channel=0, data=[75, 0]),
   midi.NoteOnEvent(tick=0, channel=0, data=[72, 40]),
   midi.NoteOnEvent(tick=90, channel=0, data=[72, 0]),
   midi.NoteOnEvent(tick=30, channel=0, data=[72, 48]),
   midi.NoteOnEvent(tick=120, channel=0, data=[72, 0]),
   midi.NoteOnEvent(tick=0, channel=0, data=[75, 40]),
   midi.NoteOnEvent(tick=120, channel=0, data=[75, 0]),
   midi.NoteOnEvent(tick=0, channel=0, data=[72, 48]),
   midi.NoteOnEvent(tick=120, channel=0, data=[72, 0]),
   midi.NoteOnEvent(tick=0, channel=0, data=[68, 40]),
   midi.NoteOnEvent(tick=120, channel=0, data=[68, 0]),
   midi.NoteOnEvent(tick=0, channel=0, data=[72, 48]),
   midi.NoteOnEvent(tick=240, channel=0, data=[72, 0]),
   midi.NoteOnEvent(tick=240, channel=0, data=[84, 60]),
   midi.NoteOnEvent(tick=120, channel=0, data=[84, 0]),
   midi.NoteOnEvent(tick=0, channel=0, data=[87, 51]),
   midi.NoteOnEvent(tick=120, channel=0, data=[87, 0]),
   midi.NoteOnEvent(tick=0, channel=0, data=[84, 60]),
   midi.NoteOnEvent(tick=120, channel=0, data=[84, 0]),
   midi.NoteOnEvent(tick=0, channel=0, data=[80, 51]),
   midi.NoteOnEvent(tick=90, channel=0, data=[80, 0]),
   midi.NoteOnEvent(tick=30, channel=0, data=[80, 60]),
   midi.NoteOnEvent(tick=120, channel=0, data=[80, 0]),
   midi.NoteOnEvent(tick=0, channel=0, data=[84, 51]),
   midi.NoteOnEvent(tick=120, channel=0, data=[84, 0]),
   midi.NoteOnEvent(tick=0, channel=0, data=[80, 60]),
   midi.NoteOnEvent(tick=120, channel=0, data=[80, 0]),
   midi.NoteOnEvent(tick=0, channel=0, data=[75, 51]),
   midi.NoteOnEvent(tick=120, channel=0, data=[75, 0]),
   midi.NoteOnEvent(tick=0, channel=0, data=[80, 60]),
   midi.NoteOnEvent(tick=240, channel=0, data=[80, 0]),
   midi.NoteOnEvent(tick=240, channel=0, data=[85, 72]),
   midi.NoteOnEvent(tick=120, channel=0, data=[85, 0]),
   midi.NoteOnEvent(tick=0, channel=0, data=[89, 61]),
   midi.NoteOnEvent(tick=120, channel=0, data=[89, 0]),
   midi.NoteOnEvent(tick=0, channel=0, data=[85, 72]),
   midi.NoteOnEvent(tick=120, channel=0, data=[85, 0]),
   midi.NoteOnEvent(tick=0, channel=0, data=[80, 61]),
   midi.NoteOnEvent(tick=90, channel=0, data=[80, 0]),
   midi.NoteOnEvent(tick=30, channel=0, data=[80, 72]),
   midi.NoteOnEvent(tick=120, channel=0, data=[80, 0]),
   midi.NoteOnEvent(tick=0, channel=0, data=[85, 61]),
   midi.NoteOnEvent(tick=120, channel=0, data=[85, 0]),
   midi.NoteOnEvent(tick=0, channel=0, data=[80, 72]),
   midi.NoteOnEvent(tick=120, channel=0, data=[80, 0]),
   midi.NoteOnEvent(tick=0, channel=0, data=[77, 61]),
   midi.NoteOnEvent(tick=120, channel=0, data=[77, 0]),
   midi.NoteOnEvent(tick=0, channel=0, data=[80, 72]),
   midi.NoteOnEvent(tick=240, channel=0, data=[80, 0]),
   midi.NoteOnEvent(tick=240, channel=0, data=[87, 84]),
   midi.NoteOnEvent(tick=120, channel=0, data=[87, 0]),
   midi.NoteOnEvent(tick=0, channel=0, data=[91, 71]),
   midi.NoteOnEvent(tick=120, channel=0, data=[91, 0]),
   midi.NoteOnEvent(tick=0, channel=0, data=[87, 84]),
   midi.NoteOnEvent(tick=120, channel=0, data=[87, 0]),
   midi.NoteOnEvent(tick=0, channel=0, data=[82, 71]),
   midi.NoteOnEvent(tick=90, channel=0, data=[82, 0]),
   midi.NoteOnEvent(tick=30, channel=0, data=[82, 84]),
   midi.NoteOnEvent(tick=120, channel=0, data=[82, 0]),
   midi.NoteOnEvent(tick=0, channel=0, data=[87, 71]),
   midi.NoteOnEvent(tick=120, channel=0, data=[87, 0]),
   midi.NoteOnEvent(tick=0, channel=0, data=[82, 84]),
   midi.NoteOnEvent(tick=120, channel=0, data=[82, 0]),
   midi.NoteOnEvent(tick=0, channel=0, data=[79, 71]),
   midi.NoteOnEvent(tick=120, channel=0, data=[79, 0]),
   midi.NoteOnEvent(tick=0, channel=0, data=[82, 84]),
   midi.NoteOnEvent(tick=240, channel=0, data=[82, 0]),
   midi.NoteOnEvent(tick=240, channel=0, data=[87, 93]),
   midi.NoteOnEvent(tick=120, channel=0, data=[87, 0]),
   midi.NoteOnEvent(tick=0, channel=0, data=[92, 79]),
   midi.NoteOnEvent(tick=120, channel=0, data=[92, 0]),
   midi.NoteOnEvent(tick=0, channel=0, data=[87, 93]),
   midi.NoteOnEvent(tick=120, channel=0, data=[87, 0]),
   midi.NoteOnEvent(tick=0, channel=0, data=[84, 79]),
   midi.NoteOnEvent(tick=90, channel=0, data=[84, 0]),
   midi.NoteOnEvent(tick=30, channel=0, data=[84, 93]),
   midi.NoteOnEvent(tick=120, channel=0, data=[84, 0]),
   midi.NoteOnEvent(tick=0, channel=0, data=[87, 79]),
   midi.NoteOnEvent(tick=120, channel=0, data=[87, 0]),
   midi.NoteOnEvent(tick=0, channel=0, data=[84, 93]),
   midi.NoteOnEvent(tick=120, channel=0, data=[84, 0]),
   midi.NoteOnEvent(tick=0, channel=0, data=[80, 79]),
   midi.NoteOnEvent(tick=120, channel=0, data=[80, 0]),
   midi.NoteOnEvent(tick=0, channel=0, data=[84, 93]),
   midi.NoteOnEvent(tick=240, channel=0, data=[84, 0]),
   midi.NoteOnEvent(tick=240, channel=0, data=[72, 48]),
   midi.NoteOnEvent(tick=120, channel=0, data=[72, 0]),
   midi.NoteOnEvent(tick=0, channel=0, data=[75, 40]),
   midi.NoteOnEvent(tick=120, channel=0, data=[75, 0]),
   midi.NoteOnEvent(tick=0, channel=0, data=[72, 48]),
   midi.NoteOnEvent(tick=120, channel=0, data=[72, 0]),
   midi.NoteOnEvent(tick=0, channel=0, data=[68, 40]),
   midi.NoteOnEvent(tick=90, channel=0, data=[68, 0]),
   midi.NoteOnEvent(tick=30, channel=0, data=[68, 48]),
   midi.NoteOnEvent(tick=120, channel=0, data=[68, 0]),
   midi.NoteOnEvent(tick=0, channel=0, data=[72, 40]),
   midi.NoteOnEvent(tick=120, channel=0, data=[72, 0]),
   midi.NoteOnEvent(tick=0, channel=0, data=[68, 48]),
   midi.NoteOnEvent(tick=120, channel=0, data=[68, 0]),
   midi.NoteOnEvent(tick=0, channel=0, data=[63, 40]),
   midi.NoteOnEvent(tick=120, channel=0, data=[63, 0]),
   midi.NoteOnEvent(tick=0, channel=0, data=[68, 48]),
   midi.NoteOnEvent(tick=240, channel=0, data=[68, 0]),
   midi.NoteOnEvent(tick=240, channel=0, data=[73, 48]),
   midi.NoteOnEvent(tick=120, channel=0, data=[73, 0]),
   midi.NoteOnEvent(tick=0, channel=0, data=[77, 40]),
   midi.NoteOnEvent(tick=120, channel=0, data=[77, 0]),
   midi.NoteOnEvent(tick=0, channel=0, data=[73, 48]),
   midi.NoteOnEvent(tick=120, channel=0, data=[73, 0]),
   midi.NoteOnEvent(tick=0, channel=0, data=[68, 40]),
   midi.NoteOnEvent(tick=90, channel=0, data=[68, 0]),
   midi.NoteOnEvent(tick=30, channel=0, data=[68, 48]),
   midi.NoteOnEvent(tick=120, channel=0, data=[68, 0]),
   midi.NoteOnEvent(tick=0, channel=0, data=[73, 40]),
   midi.NoteOnEvent(tick=120, channel=0, data=[73, 0]),
   midi.NoteOnEvent(tick=0, channel=0, data=[68, 48]),
   midi.NoteOnEvent(tick=120, channel=0, data=[68, 0]),
   midi.NoteOnEvent(tick=0, channel=0, data=[65, 40]),
   midi.NoteOnEvent(tick=120, channel=0, data=[65, 0]),
   midi.NoteOnEvent(tick=0, channel=0, data=[68, 48]),
   midi.NoteOnEvent(tick=240, channel=0, data=[68, 0]),
   midi.NoteOnEvent(tick=240, channel=0, data=[75, 48]),
   midi.NoteOnEvent(tick=120, channel=0, data=[75, 0]),
   midi.NoteOnEvent(tick=0, channel=0, data=[79, 40]),
   midi.NoteOnEvent(tick=120, channel=0, data=[79, 0]),
   midi.NoteOnEvent(tick=0, channel=0, data=[75, 48]),
   midi.NoteOnEvent(tick=120, channel=0, data=[75, 0]),
   midi.NoteOnEvent(tick=0, channel=0, data=[70, 40]),
   midi.NoteOnEvent(tick=90, channel=0, data=[70, 0]),
   midi.NoteOnEvent(tick=30, channel=0, data=[70, 48]),
   midi.NoteOnEvent(tick=120, channel=0, data=[70, 0]),
   midi.NoteOnEvent(tick=0, channel=0, data=[75, 40]),
   midi.NoteOnEvent(tick=120, channel=0, data=[75, 0]),
   midi.NoteOnEvent(tick=0, channel=0, data=[70, 48]),
   midi.NoteOnEvent(tick=120, channel=0, data=[70, 0]),
   midi.NoteOnEvent(tick=0, channel=0, data=[67, 40]),
   midi.NoteOnEvent(tick=120, channel=0, data=[67, 0]),
   midi.NoteOnEvent(tick=0, channel=0, data=[70, 48]),
   midi.NoteOnEvent(tick=240, channel=0, data=[70, 0]),
   midi.NoteOnEvent(tick=240, channel=0, data=[75, 48]),
   midi.NoteOnEvent(tick=120, channel=0, data=[75, 0]),
   midi.NoteOnEvent(tick=0, channel=0, data=[80, 40]),
   midi.NoteOnEvent(tick=120, channel=0, data=[80, 0]),
   midi.NoteOnEvent(tick=0, channel=0, data=[75, 48]),
   midi.NoteOnEvent(tick=120, channel=0, data=[75, 0]),
   midi.NoteOnEvent(tick=0, channel=0, data=[72, 40]),
   midi.NoteOnEvent(tick=90, channel=0, data=[72, 0]),
   midi.NoteOnEvent(tick=30, channel=0, data=[72, 48]),
   midi.NoteOnEvent(tick=120, channel=0, data=[72, 0]),
   midi.NoteOnEvent(tick=0, channel=0, data=[75, 40]),
   midi.NoteOnEvent(tick=120, channel=0, data=[75, 0]),
   midi.NoteOnEvent(tick=0, channel=0, data=[72, 48]),
   midi.NoteOnEvent(tick=120, channel=0, data=[72, 0]),
   midi.NoteOnEvent(tick=0, channel=0, data=[68, 40]),
   midi.NoteOnEvent(tick=120, channel=0, data=[68, 0]),
   midi.NoteOnEvent(tick=0, channel=0, data=[72, 48]),
   midi.NoteOnEvent(tick=240, channel=0, data=[72, 0]),
   midi.NoteOnEvent(tick=240, channel=0, data=[84, 68]),
   midi.NoteOnEvent(tick=120, channel=0, data=[84, 0]),
   midi.NoteOnEvent(tick=0, channel=0, data=[87, 57]),
   midi.NoteOnEvent(tick=120, channel=0, data=[87, 0]),
   midi.NoteOnEvent(tick=0, channel=0, data=[84, 68]),
   midi.NoteOnEvent(tick=120, channel=0, data=[84, 0]),
   midi.NoteOnEvent(tick=0, channel=0, data=[80, 57]),
   midi.NoteOnEvent(tick=90, channel=0, data=[80, 0]),
   midi.NoteOnEvent(tick=30, channel=0, data=[80, 68]),
   midi.NoteOnEvent(tick=120, channel=0, data=[80, 0]),
   midi.NoteOnEvent(tick=0, channel=0, data=[84, 57]),
   midi.NoteOnEvent(tick=120, channel=0, data=[84, 0]),
   midi.NoteOnEvent(tick=0, channel=0, data=[80, 68]),
   midi.NoteOnEvent(tick=120, channel=0, data=[80, 0]),
   midi.NoteOnEvent(tick=0, channel=0, data=[75, 57]),
   midi.NoteOnEvent(tick=120, channel=0, data=[75, 0]),
   midi.NoteOnEvent(tick=0, channel=0, data=[80, 68]),
   midi.NoteOnEvent(tick=240, channel=0, data=[80, 0]),
   midi.NoteOnEvent(tick=240, channel=0, data=[85, 68]),
   midi.NoteOnEvent(tick=120, channel=0, data=[85, 0]),
   midi.NoteOnEvent(tick=0, channel=0, data=[89, 57]),
   midi.NoteOnEvent(tick=120, channel=0, data=[89, 0]),
   midi.NoteOnEvent(tick=0, channel=0, data=[85, 68]),
   midi.NoteOnEvent(tick=120, channel=0, data=[85, 0]),
   midi.NoteOnEvent(tick=0, channel=0, data=[80, 57]),
   midi.NoteOnEvent(tick=90, channel=0, data=[80, 0]),
   midi.NoteOnEvent(tick=30, channel=0, data=[80, 68]),
   midi.NoteOnEvent(tick=120, channel=0, data=[80, 0]),
   midi.NoteOnEvent(tick=0, channel=0, data=[85, 57]),
   midi.NoteOnEvent(tick=120, channel=0, data=[85, 0]),
   midi.NoteOnEvent(tick=0, channel=0, data=[80, 68]),
   midi.NoteOnEvent(tick=120, channel=0, data=[80, 0]),
   midi.NoteOnEvent(tick=0, channel=0, data=[77, 57]),
   midi.NoteOnEvent(tick=120, channel=0, data=[77, 0]),
   midi.NoteOnEvent(tick=0, channel=0, data=[80, 68]),
   midi.NoteOnEvent(tick=240, channel=0, data=[80, 0]),
   midi.NoteOnEvent(tick=240, channel=0, data=[87, 68]),
   midi.NoteOnEvent(tick=120, channel=0, data=[87, 0]),
   midi.NoteOnEvent(tick=0, channel=0, data=[91, 57]),
   midi.NoteOnEvent(tick=120, channel=0, data=[91, 0]),
   midi.NoteOnEvent(tick=0, channel=0, data=[87, 68]),
   midi.NoteOnEvent(tick=120, channel=0, data=[87, 0]),
   midi.NoteOnEvent(tick=0, channel=0, data=[82, 57]),
   midi.NoteOnEvent(tick=90, channel=0, data=[82, 0]),
   midi.NoteOnEvent(tick=30, channel=0, data=[82, 68]),
   midi.NoteOnEvent(tick=120, channel=0, data=[82, 0]),
   midi.NoteOnEvent(tick=0, channel=0, data=[87, 57]),
   midi.NoteOnEvent(tick=120, channel=0, data=[87, 0]),
   midi.NoteOnEvent(tick=0, channel=0, data=[82, 68]),
   midi.NoteOnEvent(tick=120, channel=0, data=[82, 0]),
   midi.NoteOnEvent(tick=0, channel=0, data=[79, 57]),
   midi.NoteOnEvent(tick=120, channel=0, data=[79, 0]),
   midi.NoteOnEvent(tick=0, channel=0, data=[82, 68]),
   midi.NoteOnEvent(tick=240, channel=0, data=[82, 0]),
   midi.NoteOnEvent(tick=240, channel=0, data=[87, 82]),
   midi.NoteOnEvent(tick=120, channel=0, data=[87, 0]),
   midi.NoteOnEvent(tick=0, channel=0, data=[92, 69]),
   midi.NoteOnEvent(tick=120, channel=0, data=[92, 0]),
   midi.NoteOnEvent(tick=0, channel=0, data=[87, 82]),
   midi.NoteOnEvent(tick=120, channel=0, data=[87, 0]),
   midi.NoteOnEvent(tick=0, channel=0, data=[84, 69]),
   midi.NoteOnEvent(tick=90, channel=0, data=[84, 0]),
   midi.NoteOnEvent(tick=30, channel=0, data=[84, 82]),
   midi.NoteOnEvent(tick=120, channel=0, data=[84, 0]),
   midi.NoteOnEvent(tick=0, channel=0, data=[87, 69]),
   midi.NoteOnEvent(tick=120, channel=0, data=[87, 0]),
   midi.NoteOnEvent(tick=0, channel=0, data=[84, 82]),
   midi.NoteOnEvent(tick=120, channel=0, data=[84, 0]),
   midi.NoteOnEvent(tick=0, channel=0, data=[80, 69]),
   midi.NoteOnEvent(tick=120, channel=0, data=[80, 0]),
   midi.NoteOnEvent(tick=0, channel=0, data=[84, 82]),
   midi.NoteOnEvent(tick=240, channel=0, data=[84, 0]),
   midi.NoteOnEvent(tick=240, channel=0, data=[87, 86]),
   midi.NoteOnEvent(tick=120, channel=0, data=[87, 0]),
   midi.NoteOnEvent(tick=0, channel=0, data=[91, 72]),
   midi.NoteOnEvent(tick=120, channel=0, data=[91, 0]),
   midi.NoteOnEvent(tick=0, channel=0, data=[87, 86]),
   midi.NoteOnEvent(tick=120, channel=0, data=[87, 0]),
   midi.NoteOnEvent(tick=0, channel=0, data=[82, 72]),
   midi.NoteOnEvent(tick=90, channel=0, data=[82, 0]),
   midi.NoteOnEvent(tick=30, channel=0, data=[82, 86]),
   midi.NoteOnEvent(tick=120, channel=0, data=[82, 0]),
   midi.NoteOnEvent(tick=0, channel=0, data=[87, 72]),
   midi.NoteOnEvent(tick=120, channel=0, data=[87, 0]),
   midi.NoteOnEvent(tick=0, channel=0, data=[82, 86]),
   midi.NoteOnEvent(tick=120, channel=0, data=[82, 0]),
   midi.NoteOnEvent(tick=0, channel=0, data=[79, 72]),
   midi.NoteOnEvent(tick=120, channel=0, data=[79, 0]),
   midi.NoteOnEvent(tick=0, channel=0, data=[82, 86]),
   midi.NoteOnEvent(tick=240, channel=0, data=[82, 0]),
   midi.NoteOnEvent(tick=240, channel=0, data=[87, 92]),
   midi.NoteOnEvent(tick=120, channel=0, data=[87, 0]),
   midi.NoteOnEvent(tick=0, channel=0, data=[92, 77]),
   midi.NoteOnEvent(tick=120, channel=0, data=[92, 0]),
   midi.NoteOnEvent(tick=0, channel=0, data=[87, 92]),
   midi.NoteOnEvent(tick=120, channel=0, data=[87, 0]),
   midi.NoteOnEvent(tick=0, channel=0, data=[84, 77]),
   midi.NoteOnEvent(tick=90, channel=0, data=[84, 0]),
   midi.NoteOnEvent(tick=30, channel=0, data=[84, 92]),
   midi.NoteOnEvent(tick=120, channel=0, data=[84, 0]),
   midi.NoteOnEvent(tick=0, channel=0, data=[87, 77]),
   midi.NoteOnEvent(tick=120, channel=0, data=[87, 0]),
   midi.NoteOnEvent(tick=0, channel=0, data=[84, 92]),
   midi.NoteOnEvent(tick=120, channel=0, data=[84, 0]),
   midi.NoteOnEvent(tick=0, channel=0, data=[80, 77]),
   midi.NoteOnEvent(tick=120, channel=0, data=[80, 0]),
   midi.NoteOnEvent(tick=0, channel=0, data=[84, 92]),
   midi.NoteOnEvent(tick=240, channel=0, data=[84, 0]),
   midi.NoteOnEvent(tick=240, channel=0, data=[87, 98]),
   midi.NoteOnEvent(tick=120, channel=0, data=[87, 0]),
   midi.NoteOnEvent(tick=0, channel=0, data=[91, 83]),
   midi.NoteOnEvent(tick=120, channel=0, data=[91, 0]),
   midi.NoteOnEvent(tick=0, channel=0, data=[87, 98]),
   midi.NoteOnEvent(tick=120, channel=0, data=[87, 0]),
   midi.NoteOnEvent(tick=0, channel=0, data=[82, 83]),
   midi.NoteOnEvent(tick=90, channel=0, data=[82, 0]),
   midi.NoteOnEvent(tick=30, channel=0, data=[82, 98]),
   midi.NoteOnEvent(tick=120, channel=0, data=[82, 0]),
   midi.NoteOnEvent(tick=0, channel=0, data=[87, 83]),
   midi.NoteOnEvent(tick=120, channel=0, data=[87, 0]),
   midi.NoteOnEvent(tick=0, channel=0, data=[82, 98]),
   midi.NoteOnEvent(tick=120, channel=0, data=[82, 0]),
   midi.NoteOnEvent(tick=0, channel=0, data=[79, 83]),
   midi.NoteOnEvent(tick=120, channel=0, data=[79, 0]),
   midi.NoteOnEvent(tick=0, channel=0, data=[82, 98]),
   midi.NoteOnEvent(tick=240, channel=0, data=[82, 0]),
   midi.NoteOnEvent(tick=240, channel=0, data=[87, 98]),
   midi.NoteOnEvent(tick=120, channel=0, data=[87, 0]),
   midi.NoteOnEvent(tick=0, channel=0, data=[92, 83]),
   midi.NoteOnEvent(tick=120, channel=0, data=[92, 0]),
   midi.NoteOnEvent(tick=0, channel=0, data=[87, 98]),
   midi.NoteOnEvent(tick=120, channel=0, data=[87, 0]),
   midi.NoteOnEvent(tick=0, channel=0, data=[84, 83]),
   midi.NoteOnEvent(tick=90, channel=0, data=[84, 0]),
   midi.NoteOnEvent(tick=30, channel=0, data=[84, 98]),
   midi.NoteOnEvent(tick=120, channel=0, data=[84, 0]),
   midi.NoteOnEvent(tick=0, channel=0, data=[87, 83]),
   midi.NoteOnEvent(tick=120, channel=0, data=[87, 0]),
   midi.NoteOnEvent(tick=0, channel=0, data=[84, 98]),
   midi.NoteOnEvent(tick=120, channel=0, data=[84, 0]),
   midi.NoteOnEvent(tick=0, channel=0, data=[80, 83]),
   midi.NoteOnEvent(tick=90, channel=0, data=[80, 0]),
   midi.NoteOnEvent(tick=30, channel=0, data=[80, 98]),
   midi.NoteOnEvent(tick=120, channel=0, data=[80, 0]),
   midi.NoteOnEvent(tick=0, channel=0, data=[84, 83]),
   midi.NoteOnEvent(tick=120, channel=0, data=[84, 0]),
   midi.NoteOnEvent(tick=0, channel=0, data=[80, 98]),
   midi.NoteOnEvent(tick=120, channel=0, data=[80, 0]),
   midi.NoteOnEvent(tick=0, channel=0, data=[75, 83]),
   midi.NoteOnEvent(tick=90, channel=0, data=[75, 0]),
   midi.NoteOnEvent(tick=30, channel=0, data=[75, 98]),
   midi.NoteOnEvent(tick=120, channel=0, data=[75, 0]),
   midi.NoteOnEvent(tick=0, channel=0, data=[80, 83]),
   midi.NoteOnEvent(tick=120, channel=0, data=[80, 0]),
   midi.NoteOnEvent(tick=0, channel=0, data=[75, 98]),
   midi.NoteOnEvent(tick=120, channel=0, data=[75, 0]),
   midi.NoteOnEvent(tick=0, channel=0, data=[72, 83]),
   midi.NoteOnEvent(tick=90, channel=0, data=[72, 0]),
   midi.NoteOnEvent(tick=30, channel=0, data=[72, 98]),
   midi.NoteOnEvent(tick=120, channel=0, data=[72, 0]),
   midi.NoteOnEvent(tick=0, channel=0, data=[75, 83]),
   midi.NoteOnEvent(tick=120, channel=0, data=[75, 0]),
   midi.NoteOnEvent(tick=0, channel=0, data=[72, 98]),
   midi.NoteOnEvent(tick=120, channel=0, data=[72, 0]),
   midi.NoteOnEvent(tick=0, channel=0, data=[68, 83]),
   midi.NoteOnEvent(tick=90, channel=0, data=[68, 0]),
   midi.NoteOnEvent(tick=30, channel=0, data=[68, 98]),
   midi.NoteOnEvent(tick=120, channel=0, data=[68, 0]),
   midi.NoteOnEvent(tick=0, channel=0, data=[72, 83]),
   midi.NoteOnEvent(tick=120, channel=0, data=[72, 0]),
   midi.NoteOnEvent(tick=0, channel=0, data=[68, 98]),
   midi.NoteOnEvent(tick=120, channel=0, data=[68, 0]),
   midi.NoteOnEvent(tick=0, channel=0, data=[63, 83]),
   midi.NoteOnEvent(tick=90, channel=0, data=[63, 0]),
   midi.NoteOnEvent(tick=30, channel=0, data=[75, 98]),
   midi.NoteOnEvent(tick=120, channel=0, data=[75, 0]),
   midi.NoteOnEvent(tick=0, channel=0, data=[80, 83]),
   midi.NoteOnEvent(tick=120, channel=0, data=[80, 0]),
   midi.NoteOnEvent(tick=0, channel=0, data=[75, 97]),
   midi.NoteOnEvent(tick=120, channel=0, data=[75, 0]),
   midi.NoteOnEvent(tick=0, channel=0, data=[72, 82]),
   midi.NoteOnEvent(tick=90, channel=0, data=[72, 0]),
   midi.NoteOnEvent(tick=30, channel=0, data=[72, 96]),
   midi.NoteOnEvent(tick=120, channel=0, data=[72, 0]),
   midi.NoteOnEvent(tick=0, channel=0, data=[75, 80]),
   midi.NoteOnEvent(tick=120, channel=0, data=[75, 0]),
   midi.NoteOnEvent(tick=0, channel=0, data=[72, 94]),
   midi.NoteOnEvent(tick=120, channel=0, data=[72, 0]),
   midi.NoteOnEvent(tick=0, channel=0, data=[68, 79]),
   midi.NoteOnEvent(tick=90, channel=0, data=[68, 0]),
   midi.NoteOnEvent(tick=30, channel=0, data=[68, 93]),
   midi.NoteOnEvent(tick=120, channel=0, data=[68, 0]),
   midi.NoteOnEvent(tick=0, channel=0, data=[72, 78]),
   midi.NoteOnEvent(tick=120, channel=0, data=[72, 0]),
   midi.NoteOnEvent(tick=0, channel=0, data=[68, 92]),
   midi.NoteOnEvent(tick=120, channel=0, data=[68, 0]),
   midi.NoteOnEvent(tick=0, channel=0, data=[63, 76]),
   midi.NoteOnEvent(tick=90, channel=0, data=[63, 0]),
   midi.NoteOnEvent(tick=30, channel=0, data=[63, 90]),
   midi.NoteOnEvent(tick=120, channel=0, data=[63, 0]),
   midi.NoteOnEvent(tick=0, channel=0, data=[68, 76]),
   midi.NoteOnEvent(tick=120, channel=0, data=[68, 0]),
   midi.NoteOnEvent(tick=0, channel=0, data=[63, 89]),
   midi.NoteOnEvent(tick=120, channel=0, data=[63, 0]),
   midi.NoteOnEvent(tick=0, channel=0, data=[60, 74]),
   midi.NoteOnEvent(tick=90, channel=0, data=[60, 0]),
   midi.NoteOnEvent(tick=30, channel=0, data=[60, 87]),
   midi.NoteOnEvent(tick=120, channel=0, data=[60, 0]),
   midi.NoteOnEvent(tick=0, channel=0, data=[63, 73]),
   midi.NoteOnEvent(tick=120, channel=0, data=[63, 0]),
   midi.NoteOnEvent(tick=0, channel=0, data=[60, 86]),
   midi.NoteOnEvent(tick=120, channel=0, data=[60, 0]),
   midi.NoteOnEvent(tick=0, channel=0, data=[56, 72]),
   midi.NoteOnEvent(tick=120, channel=0, data=[56, 0]),
   midi.NoteOnEvent(tick=0, channel=0, data=[63, 85]),
   midi.NoteOnEvent(tick=120, channel=0, data=[63, 0]),
   midi.NoteOnEvent(tick=0, channel=0, data=[68, 70]),
   midi.NoteOnEvent(tick=120, channel=0, data=[68, 0]),
   midi.NoteOnEvent(tick=0, channel=0, data=[63, 83]),
   midi.NoteOnEvent(tick=120, channel=0, data=[63, 0]),
   midi.NoteOnEvent(tick=0, channel=0, data=[60, 69]),
   midi.NoteOnEvent(tick=120, channel=0, data=[60, 0]),
   midi.NoteOnEvent(tick=0, channel=0, data=[56, 81]),
   midi.NoteOnEvent(tick=480, channel=0, data=[56, 0]),
   midi.NoteOnEvent(tick=960, channel=0, data=[87, 112]),
   midi.NoteOnEvent(tick=0, channel=0, data=[82, 102]),
   midi.NoteOnEvent(tick=0, channel=0, data=[79, 102]),
   midi.NoteOnEvent(tick=0, channel=0, data=[75, 102]),
   midi.NoteOnEvent(tick=480, channel=0, data=[75, 0]),
   midi.NoteOnEvent(tick=0, channel=0, data=[87, 0]),
   midi.NoteOnEvent(tick=0, channel=0, data=[82, 0]),
   midi.NoteOnEvent(tick=0, channel=0, data=[79, 0]),
   midi.NoteOnEvent(tick=960, channel=0, data=[84, 108]),
   midi.NoteOnEvent(tick=0, channel=0, data=[80, 98]),
   midi.NoteOnEvent(tick=0, channel=0, data=[72, 98]),
   midi.NoteOnEvent(tick=0, channel=0, data=[75, 98]),
   midi.NoteOnEvent(tick=480, channel=0, data=[75, 0]),
   midi.NoteOnEvent(tick=0, channel=0, data=[84, 0]),
   midi.NoteOnEvent(tick=0, channel=0, data=[80, 0]),
   midi.NoteOnEvent(tick=0, channel=0, data=[72, 0]),
   midi.EndOfTrackEvent(tick=0, data=[])]),
 midi.Track(\
[    midi.NoteOnEvent(tick=4, channel=0, data=[44, 40]),
   midi.NoteOnEvent(tick=228, channel=0, data=[44, 0]),
   midi.NoteOnEvent(tick=236, channel=0, data=[56, 34]),
   midi.NoteOnEvent(tick=0, channel=0, data=[63, 40]),
   midi.NoteOnEvent(tick=0, channel=0, data=[59, 34]),
   midi.NoteOnEvent(tick=1920, channel=0, data=[59, 0]),
   midi.NoteOnEvent(tick=0, channel=0, data=[63, 0]),
   midi.NoteOnEvent(tick=0, channel=0, data=[56, 0]),
   midi.NoteOnEvent(tick=0, channel=0, data=[58, 28]),
   midi.NoteOnEvent(tick=0, channel=0, data=[51, 28]),
   midi.NoteOnEvent(tick=0, channel=0, data=[63, 34]),
   midi.NoteOnEvent(tick=188, channel=0, data=[63, 0]),
   midi.NoteOnEvent(tick=0, channel=0, data=[51, 0]),
   midi.NoteOnEvent(tick=0, channel=0, data=[58, 0]),
   midi.NoteOnEvent(tick=240, channel=0, data=[44, 40]),
   midi.NoteOnEvent(tick=224, channel=0, data=[44, 0]),
   midi.NoteOnEvent(tick=240, channel=0, data=[56, 34]),
   midi.NoteOnEvent(tick=0, channel=0, data=[63, 40]),
   midi.NoteOnEvent(tick=0, channel=0, data=[59, 34]),
   midi.NoteOnEvent(tick=1920, channel=0, data=[59, 0]),
   midi.NoteOnEvent(tick=0, channel=0, data=[63, 0]),
   midi.NoteOnEvent(tick=0, channel=0, data=[56, 0]),
   midi.NoteOnEvent(tick=0, channel=0, data=[51, 28]),
   midi.NoteOnEvent(tick=0, channel=0, data=[63, 34]),
   midi.NoteOnEvent(tick=0, channel=0, data=[58, 28]),
   midi.NoteOnEvent(tick=204, channel=0, data=[58, 0]),
   midi.NoteOnEvent(tick=0, channel=0, data=[63, 0]),
   midi.NoteOnEvent(tick=0, channel=0, data=[51, 0]),
   midi.NoteOnEvent(tick=240, channel=0, data=[63, 27]),
   midi.NoteOnEvent(tick=0, channel=0, data=[56, 27]),
   midi.NoteOnEvent(tick=0, channel=0, data=[59, 27]),
   midi.NoteOnEvent(tick=456, channel=0, data=[59, 0]),
   midi.NoteOnEvent(tick=0, channel=0, data=[56, 0]),
   midi.NoteOnEvent(tick=0, channel=0, data=[63, 0]),
   midi.NoteOnEvent(tick=24, channel=0, data=[51, 27]),
   midi.NoteOnEvent(tick=0, channel=0, data=[58, 27]),
   midi.NoteOnEvent(tick=0, channel=0, data=[64, 27]),
   midi.NoteOnEvent(tick=456, channel=0, data=[64, 0]),
   midi.NoteOnEvent(tick=0, channel=0, data=[58, 0]),
   midi.NoteOnEvent(tick=0, channel=0, data=[51, 0]),
   midi.NoteOnEvent(tick=24, channel=0, data=[58, 31]),
   midi.NoteOnEvent(tick=0, channel=0, data=[64, 31]),
   midi.NoteOnEvent(tick=0, channel=0, data=[51, 31]),
   midi.NoteOnEvent(tick=456, channel=0, data=[51, 0]),
   midi.NoteOnEvent(tick=0, channel=0, data=[64, 0]),
   midi.NoteOnEvent(tick=0, channel=0, data=[58, 0]),
   midi.NoteOnEvent(tick=24, channel=0, data=[51, 31]),
   midi.NoteOnEvent(tick=0, channel=0, data=[64, 31]),
   midi.NoteOnEvent(tick=0, channel=0, data=[58, 31]),
   midi.NoteOnEvent(tick=456, channel=0, data=[58, 0]),
   midi.NoteOnEvent(tick=0, channel=0, data=[64, 0]),
   midi.NoteOnEvent(tick=0, channel=0, data=[51, 0]),
   midi.NoteOnEvent(tick=24, channel=0, data=[58, 25]),
   midi.NoteOnEvent(tick=0, channel=0, data=[51, 25]),
   midi.NoteOnEvent(tick=0, channel=0, data=[63, 25]),
   midi.NoteOnEvent(tick=456, channel=0, data=[63, 0]),
   midi.NoteOnEvent(tick=0, channel=0, data=[51, 0]),
   midi.NoteOnEvent(tick=0, channel=0, data=[58, 0]),
   midi.NoteOnEvent(tick=24, channel=0, data=[61, 25]),
   midi.NoteOnEvent(tick=0, channel=0, data=[58, 25]),
   midi.NoteOnEvent(tick=0, channel=0, data=[51, 25]),
   midi.NoteOnEvent(tick=456, channel=0, data=[51, 0]),
   midi.NoteOnEvent(tick=0, channel=0, data=[58, 0]),
   midi.NoteOnEvent(tick=0, channel=0, data=[61, 0]),
   midi.NoteOnEvent(tick=24, channel=0, data=[44, 40]),
   midi.NoteOnEvent(tick=171, channel=0, data=[44, 0]),
   midi.NoteOnEvent(tick=240, channel=0, data=[56, 34]),
   midi.NoteOnEvent(tick=0, channel=0, data=[63, 40]),
   midi.NoteOnEvent(tick=0, channel=0, data=[59, 34]),
   midi.NoteOnEvent(tick=1920, channel=0, data=[59, 0]),
   midi.NoteOnEvent(tick=0, channel=0, data=[63, 0]),
   midi.NoteOnEvent(tick=0, channel=0, data=[56, 0]),
   midi.NoteOnEvent(tick=0, channel=0, data=[51, 26]),
   midi.NoteOnEvent(tick=0, channel=0, data=[63, 31]),
   midi.NoteOnEvent(tick=0, channel=0, data=[58, 26]),
   midi.NoteOnEvent(tick=210, channel=0, data=[58, 0]),
   midi.NoteOnEvent(tick=0, channel=0, data=[63, 0]),
   midi.NoteOnEvent(tick=0, channel=0, data=[51, 0]),
   midi.NoteOnEvent(tick=240, channel=0, data=[44, 40]),
   midi.NoteOnEvent(tick=212, channel=0, data=[44, 0]),
   midi.NoteOnEvent(tick=240, channel=0, data=[59, 34]),
   midi.NoteOnEvent(tick=0, channel=0, data=[63, 40]),
   midi.NoteOnEvent(tick=0, channel=0, data=[56, 34]),
   midi.NoteOnEvent(tick=1920, channel=0, data=[56, 0]),
   midi.NoteOnEvent(tick=0, channel=0, data=[63, 0]),
   midi.NoteOnEvent(tick=0, channel=0, data=[59, 0]),
   midi.NoteOnEvent(tick=0, channel=0, data=[58, 27]),
   midi.NoteOnEvent(tick=0, channel=0, data=[63, 32]),
   midi.NoteOnEvent(tick=0, channel=0, data=[51, 27]),
   midi.NoteOnEvent(tick=224, channel=0, data=[51, 0]),
   midi.NoteOnEvent(tick=0, channel=0, data=[63, 0]),
   midi.NoteOnEvent(tick=0, channel=0, data=[58, 0]),
   midi.NoteOnEvent(tick=240, channel=0, data=[59, 27]),
   midi.NoteOnEvent(tick=0, channel=0, data=[56, 27]),
   midi.NoteOnEvent(tick=0, channel=0, data=[63, 27]),
   midi.NoteOnEvent(tick=456, channel=0, data=[63, 0]),
   midi.NoteOnEvent(tick=0, channel=0, data=[56, 0]),
   midi.NoteOnEvent(tick=0, channel=0, data=[59, 0]),
   midi.NoteOnEvent(tick=24, channel=0, data=[64, 27]),
   midi.NoteOnEvent(tick=0, channel=0, data=[54, 27]),
   midi.NoteOnEvent(tick=0, channel=0, data=[58, 27]),
   midi.NoteOnEvent(tick=456, channel=0, data=[58, 0]),
   midi.NoteOnEvent(tick=0, channel=0, data=[54, 0]),
   midi.NoteOnEvent(tick=0, channel=0, data=[64, 0]),
   midi.NoteOnEvent(tick=24, channel=0, data=[54, 31]),
   midi.NoteOnEvent(tick=0, channel=0, data=[64, 31]),
   midi.NoteOnEvent(tick=0, channel=0, data=[58, 31]),
   midi.NoteOnEvent(tick=456, channel=0, data=[58, 0]),
   midi.NoteOnEvent(tick=0, channel=0, data=[64, 0]),
   midi.NoteOnEvent(tick=0, channel=0, data=[54, 0]),
   midi.NoteOnEvent(tick=24, channel=0, data=[58, 31]),
   midi.NoteOnEvent(tick=0, channel=0, data=[64, 31]),
   midi.NoteOnEvent(tick=0, channel=0, data=[54, 31]),
   midi.NoteOnEvent(tick=456, channel=0, data=[54, 0]),
   midi.NoteOnEvent(tick=0, channel=0, data=[64, 0]),
   midi.NoteOnEvent(tick=0, channel=0, data=[58, 0]),
   midi.NoteOnEvent(tick=24, channel=0, data=[54, 25]),
   midi.NoteOnEvent(tick=0, channel=0, data=[63, 25]),
   midi.NoteOnEvent(tick=0, channel=0, data=[58, 25]),
   midi.NoteOnEvent(tick=456, channel=0, data=[58, 0]),
   midi.NoteOnEvent(tick=0, channel=0, data=[63, 0]),
   midi.NoteOnEvent(tick=0, channel=0, data=[54, 0]),
   midi.NoteOnEvent(tick=24, channel=0, data=[62, 25]),
   midi.NoteOnEvent(tick=0, channel=0, data=[54, 25]),
   midi.NoteOnEvent(tick=0, channel=0, data=[58, 25]),
   midi.NoteOnEvent(tick=456, channel=0, data=[58, 0]),
   midi.NoteOnEvent(tick=0, channel=0, data=[54, 0]),
   midi.NoteOnEvent(tick=0, channel=0, data=[62, 0]),
   midi.NoteOnEvent(tick=24, channel=0, data=[47, 50]),
   midi.NoteOnEvent(tick=232, channel=0, data=[47, 0]),
   midi.NoteOnEvent(tick=240, channel=0, data=[63, 50]),
   midi.NoteOnEvent(tick=0, channel=0, data=[54, 42]),
   midi.NoteOnEvent(tick=0, channel=0, data=[59, 42]),
   midi.NoteOnEvent(tick=1920, channel=0, data=[59, 0]),
   midi.NoteOnEvent(tick=0, channel=0, data=[54, 0]),
   midi.NoteOnEvent(tick=0, channel=0, data=[63, 0]),
   midi.NoteOnEvent(tick=0, channel=0, data=[54, 35]),
   midi.NoteOnEvent(tick=0, channel=0, data=[64, 41]),
   midi.NoteOnEvent(tick=229, channel=0, data=[64, 0]),
   midi.NoteOnEvent(tick=0, channel=0, data=[54, 0]),
   midi.NoteOnEvent(tick=240, channel=0, data=[47, 50]),
   midi.NoteOnEvent(tick=204, channel=0, data=[47, 0]),
   midi.NoteOnEvent(tick=240, channel=0, data=[59, 42]),
   midi.NoteOnEvent(tick=0, channel=0, data=[63, 50]),
   midi.NoteOnEvent(tick=0, channel=0, data=[54, 42]),
   midi.NoteOnEvent(tick=1920, channel=0, data=[54, 0]),
   midi.NoteOnEvent(tick=0, channel=0, data=[63, 0]),
   midi.NoteOnEvent(tick=0, channel=0, data=[59, 0]),
   midi.NoteOnEvent(tick=0, channel=0, data=[64, 41]),
   midi.NoteOnEvent(tick=0, channel=0, data=[54, 35]),
   midi.NoteOnEvent(tick=232, channel=0, data=[54, 0]),
   midi.NoteOnEvent(tick=0, channel=0, data=[64, 0]),
   midi.NoteOnEvent(tick=240, channel=0, data=[59, 36]),
   midi.NoteOnEvent(tick=0, channel=0, data=[63, 36]),
   midi.NoteOnEvent(tick=456, channel=0, data=[63, 0]),
   midi.NoteOnEvent(tick=0, channel=0, data=[59, 0]),
   midi.NoteOnEvent(tick=24, channel=0, data=[54, 41]),
   midi.NoteOnEvent(tick=0, channel=0, data=[64, 41]),
   midi.NoteOnEvent(tick=456, channel=0, data=[64, 0]),
   midi.NoteOnEvent(tick=0, channel=0, data=[54, 0]),
   midi.NoteOnEvent(tick=24, channel=0, data=[54, 45]),
   midi.NoteOnEvent(tick=0, channel=0, data=[64, 45]),
   midi.NoteOnEvent(tick=456, channel=0, data=[64, 0]),
   midi.NoteOnEvent(tick=0, channel=0, data=[54, 0]),
   midi.NoteOnEvent(tick=24, channel=0, data=[54, 45]),
   midi.NoteOnEvent(tick=0, channel=0, data=[64, 45]),
   midi.NoteOnEvent(tick=456, channel=0, data=[64, 0]),
   midi.NoteOnEvent(tick=0, channel=0, data=[54, 0]),
   midi.NoteOnEvent(tick=24, channel=0, data=[63, 36]),
   midi.NoteOnEvent(tick=0, channel=0, data=[54, 36]),
   midi.NoteOnEvent(tick=456, channel=0, data=[54, 0]),
   midi.NoteOnEvent(tick=0, channel=0, data=[63, 0]),
   midi.NoteOnEvent(tick=24, channel=0, data=[61, 36]),
   midi.NoteOnEvent(tick=0, channel=0, data=[54, 36]),
   midi.NoteOnEvent(tick=456, channel=0, data=[54, 0]),
   midi.NoteOnEvent(tick=0, channel=0, data=[61, 0]),
   midi.NoteOnEvent(tick=24, channel=0, data=[47, 50]),
   midi.NoteOnEvent(tick=160, channel=0, data=[47, 0]),
   midi.NoteOnEvent(tick=240, channel=0, data=[59, 42]),
   midi.NoteOnEvent(tick=0, channel=0, data=[62, 50]),
   midi.NoteOnEvent(tick=0, channel=0, data=[54, 42]),
   midi.NoteOnEvent(tick=1920, channel=0, data=[54, 0]),
   midi.NoteOnEvent(tick=0, channel=0, data=[62, 0]),
   midi.NoteOnEvent(tick=0, channel=0, data=[59, 0]),
   midi.NoteOnEvent(tick=0, channel=0, data=[54, 34]),
   midi.NoteOnEvent(tick=0, channel=0, data=[64, 40]),
   midi.NoteOnEvent(tick=229, channel=0, data=[64, 0]),
   midi.NoteOnEvent(tick=0, channel=0, data=[54, 0]),
   midi.NoteOnEvent(tick=240, channel=0, data=[47, 50]),
   midi.NoteOnEvent(tick=204, channel=0, data=[47, 0]),
   midi.NoteOnEvent(tick=240, channel=0, data=[62, 50]),
   midi.NoteOnEvent(tick=0, channel=0, data=[54, 42]),
   midi.NoteOnEvent(tick=0, channel=0, data=[59, 42]),
   midi.NoteOnEvent(tick=1920, channel=0, data=[59, 0]),
   midi.NoteOnEvent(tick=0, channel=0, data=[54, 0]),
   midi.NoteOnEvent(tick=0, channel=0, data=[62, 0]),
   midi.NoteOnEvent(tick=0, channel=0, data=[54, 35]),
   midi.NoteOnEvent(tick=0, channel=0, data=[64, 41]),
   midi.NoteOnEvent(tick=229, channel=0, data=[64, 0]),
   midi.NoteOnEvent(tick=0, channel=0, data=[54, 0]),
   midi.NoteOnEvent(tick=240, channel=0, data=[62, 40]),
   midi.NoteOnEvent(tick=0, channel=0, data=[59, 40]),
   midi.NoteOnEvent(tick=456, channel=0, data=[59, 0]),
   midi.NoteOnEvent(tick=0, channel=0, data=[62, 0]),
   midi.NoteOnEvent(tick=24, channel=0, data=[57, 45]),
   midi.NoteOnEvent(tick=0, channel=0, data=[67, 45]),
   midi.NoteOnEvent(tick=456, channel=0, data=[67, 0]),
   midi.NoteOnEvent(tick=0, channel=0, data=[57, 0]),
   midi.NoteOnEvent(tick=24, channel=0, data=[57, 43]),
   midi.NoteOnEvent(tick=0, channel=0, data=[67, 43]),
   midi.NoteOnEvent(tick=456, channel=0, data=[67, 0]),
   midi.NoteOnEvent(tick=0, channel=0, data=[57, 0]),
   midi.NoteOnEvent(tick=24, channel=0, data=[67, 41]),
   midi.NoteOnEvent(tick=0, channel=0, data=[57, 41]),
   midi.NoteOnEvent(tick=456, channel=0, data=[57, 0]),
   midi.NoteOnEvent(tick=0, channel=0, data=[67, 0]),
   midi.NoteOnEvent(tick=24, channel=0, data=[66, 39]),
   midi.NoteOnEvent(tick=0, channel=0, data=[57, 39]),
   midi.NoteOnEvent(tick=456, channel=0, data=[57, 0]),
   midi.NoteOnEvent(tick=0, channel=0, data=[66, 0]),
   midi.NoteOnEvent(tick=24, channel=0, data=[64, 37]),
   midi.NoteOnEvent(tick=0, channel=0, data=[57, 37]),
   midi.NoteOnEvent(tick=456, channel=0, data=[57, 0]),
   midi.NoteOnEvent(tick=0, channel=0, data=[64, 0]),
   midi.NoteOnEvent(tick=24, channel=0, data=[59, 36]),
   midi.NoteOnEvent(tick=0, channel=0, data=[62, 36]),
   midi.NoteOnEvent(tick=456, channel=0, data=[62, 0]),
   midi.NoteOnEvent(tick=0, channel=0, data=[59, 0]),
   midi.NoteOnEvent(tick=24, channel=0, data=[64, 42]),
   midi.NoteOnEvent(tick=0, channel=0, data=[54, 42]),
   midi.NoteOnEvent(tick=456, channel=0, data=[54, 0]),
   midi.NoteOnEvent(tick=0, channel=0, data=[64, 0]),
   midi.NoteOnEvent(tick=24, channel=0, data=[64, 41]),
   midi.NoteOnEvent(tick=0, channel=0, data=[54, 41]),
   midi.NoteOnEvent(tick=456, channel=0, data=[54, 0]),
   midi.NoteOnEvent(tick=0, channel=0, data=[64, 0]),
   midi.NoteOnEvent(tick=24, channel=0, data=[64, 41]),
   midi.NoteOnEvent(tick=0, channel=0, data=[54, 41]),
   midi.NoteOnEvent(tick=456, channel=0, data=[54, 0]),
   midi.NoteOnEvent(tick=0, channel=0, data=[64, 0]),
   midi.NoteOnEvent(tick=24, channel=0, data=[54, 39]),
   midi.NoteOnEvent(tick=0, channel=0, data=[61, 39]),
   midi.NoteOnEvent(tick=456, channel=0, data=[61, 0]),
   midi.NoteOnEvent(tick=0, channel=0, data=[54, 0]),
   midi.NoteOnEvent(tick=24, channel=0, data=[54, 37]),
   midi.NoteOnEvent(tick=0, channel=0, data=[58, 37]),
   midi.NoteOnEvent(tick=456, channel=0, data=[58, 0]),
   midi.NoteOnEvent(tick=0, channel=0, data=[54, 0]),
   midi.NoteOnEvent(tick=24, channel=0, data=[56, 36]),
   midi.NoteOnEvent(tick=0, channel=0, data=[59, 36]),
   midi.NoteOnEvent(tick=456, channel=0, data=[59, 0]),
   midi.NoteOnEvent(tick=0, channel=0, data=[56, 0]),
   midi.NoteOnEvent(tick=24, channel=0, data=[56, 44]),
   midi.NoteOnEvent(tick=0, channel=0, data=[61, 44]),
   midi.NoteOnEvent(tick=0, channel=0, data=[49, 44]),
   midi.NoteOnEvent(tick=456, channel=0, data=[49, 0]),
   midi.NoteOnEvent(tick=0, channel=0, data=[61, 0]),
   midi.NoteOnEvent(tick=0, channel=0, data=[56, 0]),
   midi.NoteOnEvent(tick=24, channel=0, data=[49, 42]),
   midi.NoteOnEvent(tick=0, channel=0, data=[61, 42]),
   midi.NoteOnEvent(tick=0, channel=0, data=[56, 42]),
   midi.NoteOnEvent(tick=456, channel=0, data=[56, 0]),
   midi.NoteOnEvent(tick=0, channel=0, data=[61, 0]),
   midi.NoteOnEvent(tick=0, channel=0, data=[49, 0]),
   midi.NoteOnEvent(tick=24, channel=0, data=[61, 44]),
   midi.NoteOnEvent(tick=0, channel=0, data=[49, 44]),
   midi.NoteOnEvent(tick=0, channel=0, data=[56, 44]),
   midi.NoteOnEvent(tick=456, channel=0, data=[56, 0]),
   midi.NoteOnEvent(tick=0, channel=0, data=[49, 0]),
   midi.NoteOnEvent(tick=0, channel=0, data=[61, 0]),
   midi.NoteOnEvent(tick=24, channel=0, data=[51, 43]),
   midi.NoteOnEvent(tick=0, channel=0, data=[56, 43]),
   midi.NoteOnEvent(tick=0, channel=0, data=[59, 43]),
   midi.NoteOnEvent(tick=456, channel=0, data=[59, 0]),
   midi.NoteOnEvent(tick=0, channel=0, data=[56, 0]),
   midi.NoteOnEvent(tick=0, channel=0, data=[51, 0]),
   midi.NoteOnEvent(tick=24, channel=0, data=[52, 42]),
   midi.NoteOnEvent(tick=0, channel=0, data=[56, 42]),
   midi.NoteOnEvent(tick=456, channel=0, data=[56, 0]),
   midi.NoteOnEvent(tick=0, channel=0, data=[52, 0]),
   midi.NoteOnEvent(tick=24, channel=0, data=[56, 41]),
   midi.NoteOnEvent(tick=0, channel=0, data=[51, 41]),
   midi.NoteOnEvent(tick=0, channel=0, data=[59, 41]),
   midi.NoteOnEvent(tick=456, channel=0, data=[59, 0]),
   midi.NoteOnEvent(tick=0, channel=0, data=[51, 0]),
   midi.NoteOnEvent(tick=0, channel=0, data=[56, 0]),
   midi.NoteOnEvent(tick=24, channel=0, data=[56, 40]),
   midi.NoteOnEvent(tick=0, channel=0, data=[59, 40]),
   midi.NoteOnEvent(tick=0, channel=0, data=[51, 40]),
   midi.NoteOnEvent(tick=456, channel=0, data=[51, 0]),
   midi.NoteOnEvent(tick=0, channel=0, data=[59, 0]),
   midi.NoteOnEvent(tick=0, channel=0, data=[56, 0]),
   midi.NoteOnEvent(tick=24, channel=0, data=[51, 40]),
   midi.NoteOnEvent(tick=0, channel=0, data=[59, 40]),
   midi.NoteOnEvent(tick=0, channel=0, data=[56, 40]),
   midi.NoteOnEvent(tick=456, channel=0, data=[56, 0]),
   midi.NoteOnEvent(tick=0, channel=0, data=[59, 0]),
   midi.NoteOnEvent(tick=0, channel=0, data=[51, 0]),
   midi.NoteOnEvent(tick=24, channel=0, data=[55, 31]),
   midi.NoteOnEvent(tick=0, channel=0, data=[51, 31]),
   midi.NoteOnEvent(tick=0, channel=0, data=[58, 31]),
   midi.NoteOnEvent(tick=456, channel=0, data=[58, 0]),
   midi.NoteOnEvent(tick=0, channel=0, data=[51, 0]),
   midi.NoteOnEvent(tick=0, channel=0, data=[55, 0]),
   midi.NoteOnEvent(tick=24, channel=0, data=[51, 30]),
   midi.NoteOnEvent(tick=0, channel=0, data=[58, 30]),
   midi.NoteOnEvent(tick=0, channel=0, data=[55, 30]),
   midi.NoteOnEvent(tick=456, channel=0, data=[55, 0]),
   midi.NoteOnEvent(tick=0, channel=0, data=[58, 0]),
   midi.NoteOnEvent(tick=0, channel=0, data=[51, 0]),
   midi.NoteOnEvent(tick=24, channel=0, data=[55, 29]),
   midi.NoteOnEvent(tick=0, channel=0, data=[58, 29]),
   midi.NoteOnEvent(tick=0, channel=0, data=[51, 29]),
   midi.NoteOnEvent(tick=456, channel=0, data=[51, 0]),
   midi.NoteOnEvent(tick=0, channel=0, data=[58, 0]),
   midi.NoteOnEvent(tick=0, channel=0, data=[55, 0]),
   midi.NoteOnEvent(tick=24, channel=0, data=[44, 40]),
   midi.NoteOnEvent(tick=395, channel=0, data=[44, 0]),
   midi.NoteOnEvent(tick=0, channel=0, data=[60, 40]),
   midi.NoteOnEvent(tick=0, channel=0, data=[56, 34]),
   midi.NoteOnEvent(tick=0, channel=0, data=[51, 34]),
   midi.NoteOnEvent(tick=1920, channel=0, data=[51, 0]),
   midi.NoteOnEvent(tick=0, channel=0, data=[56, 0]),
   midi.NoteOnEvent(tick=0, channel=0, data=[60, 0]),
   midi.NoteOnEvent(tick=0, channel=0, data=[61, 32]),
   midi.NoteOnEvent(tick=0, channel=0, data=[51, 27]),
   midi.NoteOnEvent(tick=233, channel=0, data=[51, 0]),
   midi.NoteOnEvent(tick=0, channel=0, data=[61, 0]),
   midi.NoteOnEvent(tick=240, channel=0, data=[44, 40]),
   midi.NoteOnEvent(tick=460, channel=0, data=[44, 0]),
   midi.NoteOnEvent(tick=0, channel=0, data=[51, 34]),
   midi.NoteOnEvent(tick=0, channel=0, data=[56, 34]),
   midi.NoteOnEvent(tick=0, channel=0, data=[60, 40]),
   midi.NoteOnEvent(tick=1920, channel=0, data=[60, 0]),
   midi.NoteOnEvent(tick=0, channel=0, data=[56, 0]),
   midi.NoteOnEvent(tick=0, channel=0, data=[51, 0]),
   midi.NoteOnEvent(tick=0, channel=0, data=[51, 28]),
   midi.NoteOnEvent(tick=0, channel=0, data=[61, 34]),
   midi.NoteOnEvent(tick=232, channel=0, data=[61, 0]),
   midi.NoteOnEvent(tick=0, channel=0, data=[51, 0]),
   midi.NoteOnEvent(tick=240, channel=0, data=[44, 45]),
   midi.NoteOnEvent(tick=460, channel=0, data=[44, 0]),
   midi.NoteOnEvent(tick=0, channel=0, data=[51, 41]),
   midi.NoteOnEvent(tick=0, channel=0, data=[56, 41]),
   midi.NoteOnEvent(tick=0, channel=0, data=[60, 49]),
   midi.NoteOnEvent(tick=1920, channel=0, data=[60, 0]),
   midi.NoteOnEvent(tick=0, channel=0, data=[56, 0]),
   midi.NoteOnEvent(tick=0, channel=0, data=[51, 0]),
   midi.NoteOnEvent(tick=0, channel=0, data=[51, 33]),
   midi.NoteOnEvent(tick=0, channel=0, data=[61, 39]),
   midi.NoteOnEvent(tick=228, channel=0, data=[61, 0]),
   midi.NoteOnEvent(tick=0, channel=0, data=[51, 0]),
   midi.NoteOnEvent(tick=240, channel=0, data=[44, 50]),
   midi.NoteOnEvent(tick=452, channel=0, data=[44, 0]),
   midi.NoteOnEvent(tick=0, channel=0, data=[60, 48]),
   midi.NoteOnEvent(tick=0, channel=0, data=[51, 40]),
   midi.NoteOnEvent(tick=0, channel=0, data=[56, 40]),
   midi.NoteOnEvent(tick=1920, channel=0, data=[56, 0]),
   midi.NoteOnEvent(tick=0, channel=0, data=[51, 0]),
   midi.NoteOnEvent(tick=0, channel=0, data=[60, 0]),
   midi.NoteOnEvent(tick=0, channel=0, data=[61, 38]),
   midi.NoteOnEvent(tick=0, channel=0, data=[51, 32]),
   midi.NoteOnEvent(tick=230, channel=0, data=[51, 0]),
   midi.NoteOnEvent(tick=0, channel=0, data=[61, 0]),
   midi.NoteOnEvent(tick=240, channel=0, data=[44, 40]),
   midi.NoteOnEvent(tick=460, channel=0, data=[44, 0]),
   midi.NoteOnEvent(tick=0, channel=0, data=[60, 33]),
   midi.NoteOnEvent(tick=0, channel=0, data=[56, 27]),
   midi.NoteOnEvent(tick=0, channel=0, data=[54, 27]),
   midi.NoteOnEvent(tick=388, channel=0, data=[54, 0]),
   midi.NoteOnEvent(tick=0, channel=0, data=[56, 0]),
   midi.NoteOnEvent(tick=0, channel=0, data=[60, 0]),
   midi.NoteOnEvent(tick=0, channel=0, data=[49, 40]),
   midi.NoteOnEvent(tick=480, channel=0, data=[49, 0]),
   midi.NoteOnEvent(tick=0, channel=0, data=[61, 29]),
   midi.NoteOnEvent(tick=0, channel=0, data=[53, 25]),
   midi.NoteOnEvent(tick=0, channel=0, data=[56, 25]),
   midi.NoteOnEvent(tick=396, channel=0, data=[56, 0]),
   midi.NoteOnEvent(tick=0, channel=0, data=[53, 0]),
   midi.NoteOnEvent(tick=0, channel=0, data=[61, 0]),
   midi.NoteOnEvent(tick=0, channel=0, data=[39, 40]),
   midi.NoteOnEvent(tick=436, channel=0, data=[39, 0]),
   midi.NoteOnEvent(tick=0, channel=0, data=[51, 29]),
   midi.NoteOnEvent(tick=0, channel=0, data=[58, 29]),
   midi.NoteOnEvent(tick=0, channel=0, data=[61, 35]),
   midi.NoteOnEvent(tick=376, channel=0, data=[61, 0]),
   midi.NoteOnEvent(tick=0, channel=0, data=[58, 0]),
   midi.NoteOnEvent(tick=0, channel=0, data=[51, 0]),
   midi.NoteOnEvent(tick=0, channel=0, data=[44, 40]),
   midi.NoteOnEvent(tick=444, channel=0, data=[44, 0]),
   midi.NoteOnEvent(tick=0, channel=0, data=[56, 31]),
   midi.NoteOnEvent(tick=0, channel=0, data=[51, 31]),
   midi.NoteOnEvent(tick=0, channel=0, data=[60, 37]),
   midi.NoteOnEvent(tick=404, channel=0, data=[60, 0]),
   midi.NoteOnEvent(tick=0, channel=0, data=[51, 0]),
   midi.NoteOnEvent(tick=0, channel=0, data=[56, 0]),
   midi.NoteOnEvent(tick=0, channel=0, data=[44, 52]),
   midi.NoteOnEvent(tick=452, channel=0, data=[44, 0]),
   midi.NoteOnEvent(tick=0, channel=0, data=[60, 43]),
   midi.NoteOnEvent(tick=0, channel=0, data=[54, 35]),
   midi.NoteOnEvent(tick=0, channel=0, data=[56, 35]),
   midi.NoteOnEvent(tick=396, channel=0, data=[56, 0]),
   midi.NoteOnEvent(tick=0, channel=0, data=[54, 0]),
   midi.NoteOnEvent(tick=0, channel=0, data=[60, 0]),
   midi.NoteOnEvent(tick=0, channel=0, data=[49, 60]),
   midi.NoteOnEvent(tick=480, channel=0, data=[49, 0]),
   midi.NoteOnEvent(tick=0, channel=0, data=[61, 52]),
   midi.NoteOnEvent(tick=0, channel=0, data=[53, 44]),
   midi.NoteOnEvent(tick=0, channel=0, data=[56, 44]),
   midi.NoteOnEvent(tick=404, channel=0, data=[56, 0]),
   midi.NoteOnEvent(tick=0, channel=0, data=[53, 0]),
   midi.NoteOnEvent(tick=0, channel=0, data=[61, 0]),
   midi.NoteOnEvent(tick=0, channel=0, data=[39, 70]),
   midi.NoteOnEvent(tick=464, channel=0, data=[39, 0]),
   midi.NoteOnEvent(tick=0, channel=0, data=[58, 51]),
   midi.NoteOnEvent(tick=0, channel=0, data=[51, 51]),
   midi.NoteOnEvent(tick=0, channel=0, data=[61, 61]),
   midi.NoteOnEvent(tick=464, channel=0, data=[61, 0]),
   midi.NoteOnEvent(tick=0, channel=0, data=[51, 0]),
   midi.NoteOnEvent(tick=0, channel=0, data=[58, 0]),
   midi.NoteOnEvent(tick=0, channel=0, data=[44, 76]),
   midi.NoteOnEvent(tick=452, channel=0, data=[44, 0]),
   midi.NoteOnEvent(tick=0, channel=0, data=[56, 53]),
   midi.NoteOnEvent(tick=0, channel=0, data=[60, 63]),
   midi.NoteOnEvent(tick=0, channel=0, data=[51, 53]),
   midi.NoteOnEvent(tick=376, channel=0, data=[51, 0]),
   midi.NoteOnEvent(tick=0, channel=0, data=[60, 0]),
   midi.NoteOnEvent(tick=0, channel=0, data=[56, 0]),
   midi.NoteOnEvent(tick=0, channel=0, data=[44, 34]),
   midi.NoteOnEvent(tick=0, channel=0, data=[51, 50]),
   midi.NoteOnEvent(tick=460, channel=0, data=[51, 0]),
   midi.NoteOnEvent(tick=0, channel=0, data=[56, 60]),
   midi.NoteOnEvent(tick=720, channel=0, data=[56, 0]),
   midi.NoteOnEvent(tick=0, channel=0, data=[55, 50]),
   midi.NoteOnEvent(tick=240, channel=0, data=[55, 0]),
   midi.NoteOnEvent(tick=0, channel=0, data=[44, 0]),
   midi.NoteOnEvent(tick=0, channel=0, data=[53, 50]),
   midi.NoteOnEvent(tick=0, channel=0, data=[49, 34]),
   midi.NoteOnEvent(tick=332, channel=0, data=[53, 0]),
   midi.NoteOnEvent(tick=0, channel=0, data=[61, 60]),
   midi.NoteOnEvent(tick=720, channel=0, data=[61, 0]),
   midi.NoteOnEvent(tick=0, channel=0, data=[60, 50]),
   midi.NoteOnEvent(tick=240, channel=0, data=[60, 0]),
   midi.NoteOnEvent(tick=0, channel=0, data=[49, 0]),
   midi.NoteOnEvent(tick=0, channel=0, data=[58, 50]),
   midi.NoteOnEvent(tick=0, channel=0, data=[51, 34]),
   midi.NoteOnEvent(tick=339, channel=0, data=[58, 0]),
   midi.NoteOnEvent(tick=0, channel=0, data=[63, 60]),
   midi.NoteOnEvent(tick=720, channel=0, data=[63, 0]),
   midi.NoteOnEvent(tick=0, channel=0, data=[61, 50]),
   midi.NoteOnEvent(tick=240, channel=0, data=[61, 0]),
   midi.NoteOnEvent(tick=0, channel=0, data=[51, 0]),
   midi.NoteOnEvent(tick=0, channel=0, data=[56, 34]),
   midi.NoteOnEvent(tick=0, channel=0, data=[60, 50]),
   midi.NoteOnEvent(tick=388, channel=0, data=[60, 0]),
   midi.NoteOnEvent(tick=0, channel=0, data=[63, 60]),
   midi.NoteOnEvent(tick=396, channel=0, data=[63, 0]),
   midi.NoteOnEvent(tick=0, channel=0, data=[56, 0]),
   midi.NoteOnEvent(tick=0, channel=0, data=[44, 55]),
   midi.NoteOnEvent(tick=0, channel=0, data=[51, 65]),
   midi.NoteOnEvent(tick=464, channel=0, data=[51, 0]),
   midi.NoteOnEvent(tick=0, channel=0, data=[56, 73]),
   midi.NoteOnEvent(tick=720, channel=0, data=[56, 0]),
   midi.NoteOnEvent(tick=0, channel=0, data=[55, 60]),
   midi.NoteOnEvent(tick=240, channel=0, data=[55, 0]),
   midi.NoteOnEvent(tick=0, channel=0, data=[44, 0]),
   midi.NoteOnEvent(tick=0, channel=0, data=[53, 67]),
   midi.NoteOnEvent(tick=0, channel=0, data=[49, 56]),
   midi.NoteOnEvent(tick=324, channel=0, data=[53, 0]),
   midi.NoteOnEvent(tick=0, channel=0, data=[61, 76]),
   midi.NoteOnEvent(tick=720, channel=0, data=[61, 0]),
   midi.NoteOnEvent(tick=0, channel=0, data=[60, 66]),
   midi.NoteOnEvent(tick=240, channel=0, data=[60, 0]),
   midi.NoteOnEvent(tick=0, channel=0, data=[49, 0]),
   midi.NoteOnEvent(tick=0, channel=0, data=[58, 71]),
   midi.NoteOnEvent(tick=0, channel=0, data=[51, 60]),
   midi.NoteOnEvent(tick=346, channel=0, data=[58, 0]),
   midi.NoteOnEvent(tick=0, channel=0, data=[63, 79]),
   midi.NoteOnEvent(tick=720, channel=0, data=[63, 0]),
   midi.NoteOnEvent(tick=0, channel=0, data=[61, 69]),
   midi.NoteOnEvent(tick=240, channel=0, data=[61, 0]),
   midi.NoteOnEvent(tick=0, channel=0, data=[51, 0]),
   midi.NoteOnEvent(tick=0, channel=0, data=[56, 61]),
   midi.NoteOnEvent(tick=0, channel=0, data=[60, 73]),
   midi.NoteOnEvent(tick=353, channel=0, data=[60, 0]),
   midi.NoteOnEvent(tick=0, channel=0, data=[63, 82]),
   midi.NoteOnEvent(tick=720, channel=0, data=[63, 0]),
   midi.NoteOnEvent(tick=0, channel=0, data=[60, 72]),
   midi.NoteOnEvent(tick=240, channel=0, data=[60, 0]),
   midi.NoteOnEvent(tick=0, channel=0, data=[56, 0]),
   midi.NoteOnEvent(tick=0, channel=0, data=[58, 77]),
   midi.NoteOnEvent(tick=0, channel=0, data=[51, 66]),
   midi.NoteOnEvent(tick=353, channel=0, data=[58, 0]),
   midi.NoteOnEvent(tick=0, channel=0, data=[63, 84]),
   midi.NoteOnEvent(tick=720, channel=0, data=[63, 0]),
   midi.NoteOnEvent(tick=0, channel=0, data=[61, 79]),
   midi.NoteOnEvent(tick=240, channel=0, data=[61, 0]),
   midi.NoteOnEvent(tick=0, channel=0, data=[51, 0]),
   midi.NoteOnEvent(tick=0, channel=0, data=[56, 66]),
   midi.NoteOnEvent(tick=0, channel=0, data=[60, 78]),
   midi.NoteOnEvent(tick=353, channel=0, data=[60, 0]),
   midi.NoteOnEvent(tick=0, channel=0, data=[63, 83]),
   midi.NoteOnEvent(tick=720, channel=0, data=[63, 0]),
   midi.NoteOnEvent(tick=0, channel=0, data=[60, 76]),
   midi.NoteOnEvent(tick=240, channel=0, data=[60, 0]),
   midi.NoteOnEvent(tick=0, channel=0, data=[56, 0]),
   midi.NoteOnEvent(tick=0, channel=0, data=[60, 76]),
   midi.NoteOnEvent(tick=0, channel=0, data=[53, 63]),
   midi.NoteOnEvent(tick=343, channel=0, data=[60, 0]),
   midi.NoteOnEvent(tick=0, channel=0, data=[65, 82]),
   midi.NoteOnEvent(tick=720, channel=0, data=[65, 0]),
   midi.NoteOnEvent(tick=0, channel=0, data=[63, 72]),
   midi.NoteOnEvent(tick=240, channel=0, data=[63, 0]),
   midi.NoteOnEvent(tick=0, channel=0, data=[53, 0]),
   midi.NoteOnEvent(tick=0, channel=0, data=[58, 64]),
   midi.NoteOnEvent(tick=0, channel=0, data=[61, 76]),
   midi.NoteOnEvent(tick=360, channel=0, data=[61, 0]),
   midi.NoteOnEvent(tick=0, channel=0, data=[65, 82]),
   midi.NoteOnEvent(tick=720, channel=0, data=[65, 0]),
   midi.NoteOnEvent(tick=0, channel=0, data=[61, 72]),
   midi.NoteOnEvent(tick=240, channel=0, data=[61, 0]),
   midi.NoteOnEvent(tick=0, channel=0, data=[58, 0]),
   midi.NoteOnEvent(tick=0, channel=0, data=[53, 62]),
   midi.NoteOnEvent(tick=0, channel=0, data=[60, 75]),
   midi.NoteOnEvent(tick=377, channel=0, data=[60, 0]),
   midi.NoteOnEvent(tick=0, channel=0, data=[65, 81]),
   midi.NoteOnEvent(tick=720, channel=0, data=[65, 0]),
   midi.NoteOnEvent(tick=0, channel=0, data=[63, 72]),
   midi.NoteOnEvent(tick=240, channel=0, data=[63, 0]),
   midi.NoteOnEvent(tick=0, channel=0, data=[53, 0]),
   midi.NoteOnEvent(tick=0, channel=0, data=[58, 59]),
   midi.NoteOnEvent(tick=0, channel=0, data=[61, 77]),
   midi.NoteOnEvent(tick=367, channel=0, data=[61, 0]),
   midi.NoteOnEvent(tick=0, channel=0, data=[65, 81]),
   midi.NoteOnEvent(tick=720, channel=0, data=[65, 0]),
   midi.NoteOnEvent(tick=0, channel=0, data=[61, 73]),
   midi.NoteOnEvent(tick=240, channel=0, data=[61, 0]),
   midi.NoteOnEvent(tick=0, channel=0, data=[58, 0]),
   midi.NoteOnEvent(tick=0, channel=0, data=[63, 77]),
   midi.NoteOnEvent(tick=0, channel=0, data=[56, 59]),
   midi.NoteOnEvent(tick=324, channel=0, data=[63, 0]),
   midi.NoteOnEvent(tick=0, channel=0, data=[68, 81]),
   midi.NoteOnEvent(tick=720, channel=0, data=[68, 0]),
   midi.NoteOnEvent(tick=0, channel=0, data=[66, 73]),
   midi.NoteOnEvent(tick=240, channel=0, data=[66, 0]),
   midi.NoteOnEvent(tick=0, channel=0, data=[56, 0]),
   midi.NoteOnEvent(tick=0, channel=0, data=[61, 67]),
   midi.NoteOnEvent(tick=0, channel=0, data=[65, 80]),
   midi.NoteOnEvent(tick=339, channel=0, data=[65, 0]),
   midi.NoteOnEvent(tick=0, channel=0, data=[68, 83]),
   midi.NoteOnEvent(tick=720, channel=0, data=[68, 0]),
   midi.NoteOnEvent(tick=0, channel=0, data=[65, 75]),
   midi.NoteOnEvent(tick=240, channel=0, data=[65, 0]),
   midi.NoteOnEvent(tick=0, channel=0, data=[61, 0]),
   midi.NoteOnEvent(tick=0, channel=0, data=[63, 78]),
   midi.NoteOnEvent(tick=0, channel=0, data=[56, 66]),
   midi.NoteOnEvent(tick=346, channel=0, data=[63, 0]),
   midi.NoteOnEvent(tick=0, channel=0, data=[68, 84]),
   midi.NoteOnEvent(tick=720, channel=0, data=[68, 0]),
   midi.NoteOnEvent(tick=0, channel=0, data=[66, 76]),
   midi.NoteOnEvent(tick=240, channel=0, data=[66, 0]),
   midi.NoteOnEvent(tick=0, channel=0, data=[56, 0]),
   midi.NoteOnEvent(tick=0, channel=0, data=[61, 85]),
   midi.NoteOnEvent(tick=0, channel=0, data=[65, 85]),
   midi.NoteOnEvent(tick=310, channel=0, data=[65, 0]),
   midi.NoteOnEvent(tick=0, channel=0, data=[61, 0]),
   midi.NoteOnEvent(tick=2400, channel=0, data=[68, 84]),
   midi.NoteOnEvent(tick=106, channel=0, data=[68, 0]),
   midi.NoteOnEvent(tick=240, channel=0, data=[65, 79]),
   midi.NoteOnEvent(tick=240, channel=0, data=[65, 0]),
   midi.NoteOnEvent(tick=240, channel=0, data=[61, 79]),
   midi.NoteOnEvent(tick=240, channel=0, data=[61, 0]),
   midi.NoteOnEvent(tick=240, channel=0, data=[56, 82]),
   midi.NoteOnEvent(tick=240, channel=0, data=[56, 0]),
   midi.NoteOnEvent(tick=240, channel=0, data=[53, 79]),
   midi.NoteOnEvent(tick=240, channel=0, data=[53, 0]),
   midi.NoteOnEvent(tick=240, channel=0, data=[49, 79]),
   midi.NoteOnEvent(tick=240, channel=0, data=[49, 0]),
   midi.NoteOnEvent(tick=240, channel=0, data=[52, 68]),
   midi.NoteOnEvent(tick=0, channel=0, data=[46, 58]),
   midi.NoteOnEvent(tick=0, channel=0, data=[49, 58]),
   midi.NoteOnEvent(tick=0, channel=0, data=[43, 58]),
   midi.NoteOnEvent(tick=808, channel=0, data=[43, 0]),
   midi.NoteOnEvent(tick=0, channel=0, data=[52, 0]),
   midi.NoteOnEvent(tick=0, channel=0, data=[46, 0]),
   midi.NoteOnEvent(tick=0, channel=0, data=[49, 0]),
   midi.NoteOnEvent(tick=9, channel=0, data=[52, 68]),
   midi.NoteOnEvent(tick=0, channel=0, data=[46, 58]),
   midi.NoteOnEvent(tick=0, channel=0, data=[43, 58]),
   midi.NoteOnEvent(tick=0, channel=0, data=[49, 58]),
   midi.NoteOnEvent(tick=848, channel=0, data=[49, 0]),
   midi.NoteOnEvent(tick=0, channel=0, data=[52, 0]),
   midi.NoteOnEvent(tick=0, channel=0, data=[46, 0]),
   midi.NoteOnEvent(tick=0, channel=0, data=[43, 0]),
   midi.NoteOnEvent(tick=9, channel=0, data=[52, 68]),
   midi.NoteOnEvent(tick=0, channel=0, data=[46, 58]),
   midi.NoteOnEvent(tick=0, channel=0, data=[49, 58]),
   midi.NoteOnEvent(tick=0, channel=0, data=[43, 58]),
   midi.NoteOnEvent(tick=842, channel=0, data=[43, 0]),
   midi.NoteOnEvent(tick=0, channel=0, data=[52, 0]),
   midi.NoteOnEvent(tick=0, channel=0, data=[46, 0]),
   midi.NoteOnEvent(tick=0, channel=0, data=[49, 0]),
   midi.NoteOnEvent(tick=9, channel=0, data=[51, 61]),
   midi.NoteOnEvent(tick=0, channel=0, data=[46, 51]),
   midi.NoteOnEvent(tick=0, channel=0, data=[49, 51]),
   midi.NoteOnEvent(tick=0, channel=0, data=[43, 51]),
   midi.NoteOnEvent(tick=845, channel=0, data=[43, 0]),
   midi.NoteOnEvent(tick=0, channel=0, data=[51, 0]),
   midi.NoteOnEvent(tick=0, channel=0, data=[46, 0]),
   midi.NoteOnEvent(tick=0, channel=0, data=[49, 0]),
   midi.NoteOnEvent(tick=9, channel=0, data=[51, 50]),
   midi.NoteOnEvent(tick=0, channel=0, data=[46, 42]),
   midi.NoteOnEvent(tick=0, channel=0, data=[43, 42]),
   midi.NoteOnEvent(tick=0, channel=0, data=[49, 42]),
   midi.NoteOnEvent(tick=831, channel=0, data=[49, 0]),
   midi.NoteOnEvent(tick=0, channel=0, data=[51, 0]),
   midi.NoteOnEvent(tick=0, channel=0, data=[46, 0]),
   midi.NoteOnEvent(tick=0, channel=0, data=[43, 0]),
   midi.NoteOnEvent(tick=9, channel=0, data=[51, 45]),
   midi.NoteOnEvent(tick=0, channel=0, data=[46, 38]),
   midi.NoteOnEvent(tick=0, channel=0, data=[49, 38]),
   midi.NoteOnEvent(tick=0, channel=0, data=[43, 38]),
   midi.NoteOnEvent(tick=840, channel=0, data=[43, 0]),
   midi.NoteOnEvent(tick=0, channel=0, data=[51, 0]),
   midi.NoteOnEvent(tick=0, channel=0, data=[46, 0]),
   midi.NoteOnEvent(tick=0, channel=0, data=[49, 0]),
   midi.NoteOnEvent(tick=0, channel=0, data=[44, 40]),
   midi.NoteOnEvent(tick=360, channel=0, data=[44, 0]),
   midi.NoteOnEvent(tick=0, channel=0, data=[48, 40]),
   midi.NoteOnEvent(tick=367, channel=0, data=[48, 0]),
   midi.NoteOnEvent(tick=0, channel=0, data=[49, 40]),
   midi.NoteOnEvent(tick=395, channel=0, data=[49, 0]),
   midi.NoteOnEvent(tick=0, channel=0, data=[46, 40]),
   midi.NoteOnEvent(tick=367, channel=0, data=[46, 0]),
   midi.NoteOnEvent(tick=0, channel=0, data=[49, 40]),
   midi.NoteOnEvent(tick=388, channel=0, data=[49, 0]),
   midi.NoteOnEvent(tick=0, channel=0, data=[51, 40]),
   midi.NoteOnEvent(tick=388, channel=0, data=[51, 0]),
   midi.NoteOnEvent(tick=0, channel=0, data=[39, 40]),
   midi.NoteOnEvent(tick=388, channel=0, data=[39, 0]),
   midi.NoteOnEvent(tick=0, channel=0, data=[44, 40]),
   midi.NoteOnEvent(tick=374, channel=0, data=[44, 0]),
   midi.NoteOnEvent(tick=0, channel=0, data=[48, 40]),
   midi.NoteOnEvent(tick=367, channel=0, data=[48, 0]),
   midi.NoteOnEvent(tick=0, channel=0, data=[49, 40]),
   midi.NoteOnEvent(tick=381, channel=0, data=[49, 0]),
   midi.NoteOnEvent(tick=0, channel=0, data=[46, 40]),
   midi.NoteOnEvent(tick=388, channel=0, data=[46, 0]),
   midi.NoteOnEvent(tick=0, channel=0, data=[58, 40]),
   midi.NoteOnEvent(tick=0, channel=0, data=[49, 40]),
   midi.NoteOnEvent(tick=374, channel=0, data=[49, 0]),
   midi.NoteOnEvent(tick=0, channel=0, data=[51, 40]),
   midi.NoteOnEvent(tick=381, channel=0, data=[58, 0]),
   midi.NoteOnEvent(tick=0, channel=0, data=[56, 40]),
   midi.NoteOnEvent(tick=381, channel=0, data=[56, 0]),
   midi.NoteOnEvent(tick=0, channel=0, data=[56, 40]),
   midi.NoteOnEvent(tick=374, channel=0, data=[51, 0]),
   midi.NoteOnEvent(tick=0, channel=0, data=[51, 40]),
   midi.NoteOnEvent(tick=381, channel=0, data=[56, 0]),
   midi.NoteOnEvent(tick=0, channel=0, data=[55, 40]),
   midi.NoteOnEvent(tick=367, channel=0, data=[55, 0]),
   midi.NoteOnEvent(tick=0, channel=0, data=[55, 40]),
   midi.NoteOnEvent(tick=353, channel=0, data=[55, 0]),
   midi.NoteOnEvent(tick=0, channel=0, data=[51, 0]),
   midi.NoteOnEvent(tick=0, channel=0, data=[44, 48]),
   midi.NoteOnEvent(tick=212, channel=0, data=[44, 0]),
   midi.NoteOnEvent(tick=120, channel=0, data=[60, 39]),
   midi.NoteOnEvent(tick=0, channel=0, data=[56, 33]),
   midi.NoteOnEvent(tick=0, channel=0, data=[54, 33]),
   midi.NoteOnEvent(tick=296, channel=0, data=[54, 0]),
   midi.NoteOnEvent(tick=0, channel=0, data=[56, 0]),
   midi.NoteOnEvent(tick=0, channel=0, data=[60, 0]),
   midi.NoteOnEvent(tick=0, channel=0, data=[49, 48]),
   midi.NoteOnEvent(tick=352, channel=0, data=[49, 0]),
   midi.NoteOnEvent(tick=120, channel=0, data=[56, 29]),
   midi.NoteOnEvent(tick=0, channel=0, data=[61, 35]),
   midi.NoteOnEvent(tick=0, channel=0, data=[53, 29]),
   midi.NoteOnEvent(tick=332, channel=0, data=[53, 0]),
   midi.NoteOnEvent(tick=0, channel=0, data=[61, 0]),
   midi.NoteOnEvent(tick=0, channel=0, data=[56, 0]),
   midi.NoteOnEvent(tick=0, channel=0, data=[39, 48]),
   midi.NoteOnEvent(tick=344, channel=0, data=[39, 0]),
   midi.NoteOnEvent(tick=120, channel=0, data=[61, 42]),
   midi.NoteOnEvent(tick=0, channel=0, data=[58, 35]),
   midi.NoteOnEvent(tick=0, channel=0, data=[51, 35]),
   midi.NoteOnEvent(tick=381, channel=0, data=[51, 0]),
   midi.NoteOnEvent(tick=0, channel=0, data=[58, 0]),
   midi.NoteOnEvent(tick=0, channel=0, data=[61, 0]),
   midi.NoteOnEvent(tick=0, channel=0, data=[44, 48]),
   midi.NoteOnEvent(tick=340, channel=0, data=[44, 0]),
   midi.NoteOnEvent(tick=120, channel=0, data=[60, 44]),
   midi.NoteOnEvent(tick=0, channel=0, data=[51, 37]),
   midi.NoteOnEvent(tick=0, channel=0, data=[56, 37]),
   midi.NoteOnEvent(tick=381, channel=0, data=[56, 0]),
   midi.NoteOnEvent(tick=0, channel=0, data=[51, 0]),
   midi.NoteOnEvent(tick=0, channel=0, data=[60, 0]),
   midi.NoteOnEvent(tick=0, channel=0, data=[44, 60]),
   midi.NoteOnEvent(tick=340, channel=0, data=[44, 0]),
   midi.NoteOnEvent(tick=120, channel=0, data=[54, 41]),
   midi.NoteOnEvent(tick=0, channel=0, data=[56, 41]),
   midi.NoteOnEvent(tick=0, channel=0, data=[60, 49]),
   midi.NoteOnEvent(tick=289, channel=0, data=[60, 0]),
   midi.NoteOnEvent(tick=0, channel=0, data=[56, 0]),
   midi.NoteOnEvent(tick=0, channel=0, data=[54, 0]),
   midi.NoteOnEvent(tick=0, channel=0, data=[49, 72]),
   midi.NoteOnEvent(tick=344, channel=0, data=[49, 0]),
   midi.NoteOnEvent(tick=120, channel=0, data=[61, 62]),
   midi.NoteOnEvent(tick=0, channel=0, data=[53, 52]),
   midi.NoteOnEvent(tick=0, channel=0, data=[56, 52]),
   midi.NoteOnEvent(tick=282, channel=0, data=[56, 0]),
   midi.NoteOnEvent(tick=0, channel=0, data=[53, 0]),
   midi.NoteOnEvent(tick=0, channel=0, data=[61, 0]),
   midi.NoteOnEvent(tick=0, channel=0, data=[39, 84]),
   midi.NoteOnEvent(tick=332, channel=0, data=[39, 0]),
   midi.NoteOnEvent(tick=120, channel=0, data=[61, 73]),
   midi.NoteOnEvent(tick=0, channel=0, data=[51, 62]),
   midi.NoteOnEvent(tick=0, channel=0, data=[58, 62]),
   midi.NoteOnEvent(tick=275, channel=0, data=[58, 0]),
   midi.NoteOnEvent(tick=0, channel=0, data=[51, 0]),
   midi.NoteOnEvent(tick=0, channel=0, data=[61, 0]),
   midi.NoteOnEvent(tick=0, channel=0, data=[44, 88]),
   midi.NoteOnEvent(tick=340, channel=0, data=[44, 0]),
   midi.NoteOnEvent(tick=120, channel=0, data=[60, 76]),
   midi.NoteOnEvent(tick=0, channel=0, data=[51, 64]),
   midi.NoteOnEvent(tick=0, channel=0, data=[56, 64]),
   midi.NoteOnEvent(tick=339, channel=0, data=[56, 0]),
   midi.NoteOnEvent(tick=0, channel=0, data=[51, 0]),
   midi.NoteOnEvent(tick=0, channel=0, data=[60, 0]),
   midi.NoteOnEvent(tick=0, channel=0, data=[51, 60]),
   midi.NoteOnEvent(tick=0, channel=0, data=[44, 40]),
   midi.NoteOnEvent(tick=452, channel=0, data=[51, 0]),
   midi.NoteOnEvent(tick=0, channel=0, data=[56, 72]),
   midi.NoteOnEvent(tick=720, channel=0, data=[56, 0]),
   midi.NoteOnEvent(tick=0, channel=0, data=[55, 60]),
   midi.NoteOnEvent(tick=240, channel=0, data=[55, 0]),
   midi.NoteOnEvent(tick=0, channel=0, data=[44, 0]),
   midi.NoteOnEvent(tick=0, channel=0, data=[49, 40]),
   midi.NoteOnEvent(tick=0, channel=0, data=[53, 60]),
   midi.NoteOnEvent(tick=332, channel=0, data=[53, 0]),
   midi.NoteOnEvent(tick=0, channel=0, data=[61, 72]),
   midi.NoteOnEvent(tick=720, channel=0, data=[61, 0]),
   midi.NoteOnEvent(tick=0, channel=0, data=[60, 60]),
   midi.NoteOnEvent(tick=240, channel=0, data=[60, 0]),
   midi.NoteOnEvent(tick=0, channel=0, data=[49, 0]),
   midi.NoteOnEvent(tick=0, channel=0, data=[51, 40]),
   midi.NoteOnEvent(tick=0, channel=0, data=[58, 60]),
   midi.NoteOnEvent(tick=324, channel=0, data=[58, 0]),
   midi.NoteOnEvent(tick=0, channel=0, data=[63, 72]),
   midi.NoteOnEvent(tick=720, channel=0, data=[63, 0]),
   midi.NoteOnEvent(tick=0, channel=0, data=[61, 60]),
   midi.NoteOnEvent(tick=240, channel=0, data=[61, 0]),
   midi.NoteOnEvent(tick=0, channel=0, data=[51, 0]),
   midi.NoteOnEvent(tick=0, channel=0, data=[56, 40]),
   midi.NoteOnEvent(tick=0, channel=0, data=[60, 60]),
   midi.NoteOnEvent(tick=332, channel=0, data=[60, 0]),
   midi.NoteOnEvent(tick=0, channel=0, data=[63, 72]),
   midi.NoteOnEvent(tick=268, channel=0, data=[63, 0]),
   midi.NoteOnEvent(tick=0, channel=0, data=[56, 0]),
   midi.NoteOnEvent(tick=0, channel=0, data=[44, 57]),
   midi.NoteOnEvent(tick=0, channel=0, data=[51, 68]),
   midi.NoteOnEvent(tick=460, channel=0, data=[51, 0]),
   midi.NoteOnEvent(tick=0, channel=0, data=[56, 78]),
   midi.NoteOnEvent(tick=720, channel=0, data=[56, 0]),
   midi.NoteOnEvent(tick=0, channel=0, data=[55, 68]),
   midi.NoteOnEvent(tick=240, channel=0, data=[55, 0]),
   midi.NoteOnEvent(tick=0, channel=0, data=[44, 0]),
   midi.NoteOnEvent(tick=0, channel=0, data=[49, 57]),
   midi.NoteOnEvent(tick=0, channel=0, data=[53, 68]),
   midi.NoteOnEvent(tick=332, channel=0, data=[53, 0]),
   midi.NoteOnEvent(tick=0, channel=0, data=[61, 79]),
   midi.NoteOnEvent(tick=720, channel=0, data=[61, 0]),
   midi.NoteOnEvent(tick=0, channel=0, data=[60, 68]),
   midi.NoteOnEvent(tick=240, channel=0, data=[60, 0]),
   midi.NoteOnEvent(tick=0, channel=0, data=[49, 0]),
   midi.NoteOnEvent(tick=0, channel=0, data=[51, 59]),
   midi.NoteOnEvent(tick=0, channel=0, data=[58, 71]),
   midi.NoteOnEvent(tick=339, channel=0, data=[58, 0]),
   midi.NoteOnEvent(tick=0, channel=0, data=[63, 81]),
   midi.NoteOnEvent(tick=720, channel=0, data=[63, 0]),
   midi.NoteOnEvent(tick=0, channel=0, data=[61, 68]),
   midi.NoteOnEvent(tick=240, channel=0, data=[61, 0]),
   midi.NoteOnEvent(tick=0, channel=0, data=[51, 0]),
   midi.NoteOnEvent(tick=0, channel=0, data=[60, 76]),
   midi.NoteOnEvent(tick=0, channel=0, data=[56, 64]),
   midi.NoteOnEvent(tick=332, channel=0, data=[60, 0]),
   midi.NoteOnEvent(tick=0, channel=0, data=[63, 86]),
   midi.NoteOnEvent(tick=720, channel=0, data=[63, 0]),
   midi.NoteOnEvent(tick=0, channel=0, data=[60, 80]),
   midi.NoteOnEvent(tick=240, channel=0, data=[60, 0]),
   midi.NoteOnEvent(tick=0, channel=0, data=[56, 0]),
   midi.NoteOnEvent(tick=0, channel=0, data=[58, 80]),
   midi.NoteOnEvent(tick=0, channel=0, data=[51, 60]),
   midi.NoteOnEvent(tick=367, channel=0, data=[58, 0]),
   midi.NoteOnEvent(tick=0, channel=0, data=[63, 88]),
   midi.NoteOnEvent(tick=720, channel=0, data=[63, 0]),
   midi.NoteOnEvent(tick=0, channel=0, data=[61, 80]),
   midi.NoteOnEvent(tick=240, channel=0, data=[61, 0]),
   midi.NoteOnEvent(tick=0, channel=0, data=[51, 0]),
   midi.NoteOnEvent(tick=0, channel=0, data=[56, 73]),
   midi.NoteOnEvent(tick=0, channel=0, data=[60, 86]),
   midi.NoteOnEvent(tick=310, channel=0, data=[60, 0]),
   midi.NoteOnEvent(tick=0, channel=0, data=[63, 93]),
   midi.NoteOnEvent(tick=720, channel=0, data=[63, 0]),
   midi.NoteOnEvent(tick=0, channel=0, data=[60, 85]),
   midi.NoteOnEvent(tick=240, channel=0, data=[60, 0]),
   midi.NoteOnEvent(tick=0, channel=0, data=[56, 0]),
   midi.NoteOnEvent(tick=0, channel=0, data=[58, 89]),
   midi.NoteOnEvent(tick=0, channel=0, data=[51, 75]),
   midi.NoteOnEvent(tick=324, channel=0, data=[58, 0]),
   midi.NoteOnEvent(tick=0, channel=0, data=[63, 95]),
   midi.NoteOnEvent(tick=720, channel=0, data=[63, 0]),
   midi.NoteOnEvent(tick=0, channel=0, data=[61, 87]),
   midi.NoteOnEvent(tick=240, channel=0, data=[61, 0]),
   midi.NoteOnEvent(tick=0, channel=0, data=[51, 0]),
   midi.NoteOnEvent(tick=0, channel=0, data=[56, 81]),
   midi.NoteOnEvent(tick=0, channel=0, data=[60, 96]),
   midi.NoteOnEvent(tick=360, channel=0, data=[60, 0]),
   midi.NoteOnEvent(tick=0, channel=0, data=[56, 0]),
   midi.NoteOnEvent(tick=0, channel=0, data=[63, 99]),
   midi.NoteOnEvent(tick=92, channel=0, data=[63, 0]),
   midi.NoteOnEvent(tick=240, channel=0, data=[60, 99]),
   midi.NoteOnEvent(tick=240, channel=0, data=[60, 0]),
   midi.NoteOnEvent(tick=240, channel=0, data=[56, 93]),
   midi.NoteOnEvent(tick=240, channel=0, data=[56, 0]),
   midi.NoteOnEvent(tick=240, channel=0, data=[51, 88]),
   midi.NoteOnEvent(tick=240, channel=0, data=[51, 0]),
   midi.NoteOnEvent(tick=240, channel=0, data=[48, 84]),
   midi.NoteOnEvent(tick=240, channel=0, data=[48, 0]),
   midi.NoteOnEvent(tick=240, channel=0, data=[51, 80]),
   midi.NoteOnEvent(tick=240, channel=0, data=[51, 0]),
   midi.NoteOnEvent(tick=240, channel=0, data=[44, 72]),
   midi.NoteOnEvent(tick=374, channel=0, data=[44, 0]),
   midi.NoteOnEvent(tick=2400, channel=0, data=[36, 60]),
   midi.NoteOnEvent(tick=0, channel=0, data=[48, 60]),
   midi.NoteOnEvent(tick=0, channel=0, data=[44, 60]),
   midi.NoteOnEvent(tick=2760, channel=0, data=[44, 0]),
   midi.NoteOnEvent(tick=0, channel=0, data=[48, 0]),
   midi.NoteOnEvent(tick=0, channel=0, data=[36, 0]),
   midi.NoteOnEvent(tick=0, channel=0, data=[37, 42]),
   midi.NoteOnEvent(tick=14, channel=0, data=[37, 0]),
   midi.NoteOnEvent(tick=0, channel=0, data=[52, 26]),
   midi.NoteOnEvent(tick=0, channel=0, data=[49, 22]),
   midi.NoteOnEvent(tick=0, channel=0, data=[44, 22]),
   midi.NoteOnEvent(tick=228, channel=0, data=[44, 0]),
   midi.NoteOnEvent(tick=0, channel=0, data=[49, 0]),
   midi.NoteOnEvent(tick=0, channel=0, data=[52, 0]),
   midi.NoteOnEvent(tick=12, channel=0, data=[44, 22]),
   midi.NoteOnEvent(tick=0, channel=0, data=[49, 22]),
   midi.NoteOnEvent(tick=0, channel=0, data=[52, 26]),
   midi.NoteOnEvent(tick=228, channel=0, data=[52, 0]),
   midi.NoteOnEvent(tick=0, channel=0, data=[49, 0]),
   midi.NoteOnEvent(tick=0, channel=0, data=[44, 0]),
   midi.NoteOnEvent(tick=12, channel=0, data=[44, 22]),
   midi.NoteOnEvent(tick=0, channel=0, data=[49, 22]),
   midi.NoteOnEvent(tick=0, channel=0, data=[52, 26]),
   midi.NoteOnEvent(tick=228, channel=0, data=[52, 0]),
   midi.NoteOnEvent(tick=0, channel=0, data=[49, 0]),
   midi.NoteOnEvent(tick=0, channel=0, data=[44, 0]),
   midi.NoteOnEvent(tick=12, channel=0, data=[44, 22]),
   midi.NoteOnEvent(tick=0, channel=0, data=[49, 22]),
   midi.NoteOnEvent(tick=0, channel=0, data=[52, 26]),
   midi.NoteOnEvent(tick=228, channel=0, data=[52, 0]),
   midi.NoteOnEvent(tick=0, channel=0, data=[49, 0]),
   midi.NoteOnEvent(tick=0, channel=0, data=[44, 0]),
   midi.NoteOnEvent(tick=12, channel=0, data=[44, 22]),
   midi.NoteOnEvent(tick=0, channel=0, data=[49, 22]),
   midi.NoteOnEvent(tick=0, channel=0, data=[52, 26]),
   midi.NoteOnEvent(tick=228, channel=0, data=[52, 0]),
   midi.NoteOnEvent(tick=0, channel=0, data=[49, 0]),
   midi.NoteOnEvent(tick=0, channel=0, data=[44, 0]),
   midi.NoteOnEvent(tick=12, channel=0, data=[44, 22]),
   midi.NoteOnEvent(tick=0, channel=0, data=[49, 22]),
   midi.NoteOnEvent(tick=0, channel=0, data=[52, 26]),
   midi.NoteOnEvent(tick=101, channel=0, data=[52, 0]),
   midi.NoteOnEvent(tick=0, channel=0, data=[49, 0]),
   midi.NoteOnEvent(tick=0, channel=0, data=[44, 0]),
   midi.NoteOnEvent(tick=12, channel=0, data=[44, 22]),
   midi.NoteOnEvent(tick=0, channel=0, data=[49, 22]),
   midi.NoteOnEvent(tick=0, channel=0, data=[52, 26]),
   midi.NoteOnEvent(tick=228, channel=0, data=[52, 0]),
   midi.NoteOnEvent(tick=0, channel=0, data=[49, 0]),
   midi.NoteOnEvent(tick=0, channel=0, data=[44, 0]),
   midi.NoteOnEvent(tick=12, channel=0, data=[44, 22]),
   midi.NoteOnEvent(tick=0, channel=0, data=[49, 22]),
   midi.NoteOnEvent(tick=0, channel=0, data=[52, 26]),
   midi.NoteOnEvent(tick=228, channel=0, data=[52, 0]),
   midi.NoteOnEvent(tick=0, channel=0, data=[49, 0]),
   midi.NoteOnEvent(tick=0, channel=0, data=[44, 0]),
   midi.NoteOnEvent(tick=12, channel=0, data=[44, 22]),
   midi.NoteOnEvent(tick=0, channel=0, data=[49, 22]),
   midi.NoteOnEvent(tick=0, channel=0, data=[52, 26]),
   midi.NoteOnEvent(tick=228, channel=0, data=[52, 0]),
   midi.NoteOnEvent(tick=0, channel=0, data=[49, 0]),
   midi.NoteOnEvent(tick=0, channel=0, data=[44, 0]),
   midi.NoteOnEvent(tick=12, channel=0, data=[44, 22]),
   midi.NoteOnEvent(tick=0, channel=0, data=[49, 22]),
   midi.NoteOnEvent(tick=0, channel=0, data=[52, 26]),
   midi.NoteOnEvent(tick=228, channel=0, data=[52, 0]),
   midi.NoteOnEvent(tick=0, channel=0, data=[49, 0]),
   midi.NoteOnEvent(tick=0, channel=0, data=[44, 0]),
   midi.NoteOnEvent(tick=12, channel=0, data=[49, 22]),
   midi.NoteOnEvent(tick=0, channel=0, data=[44, 22]),
   midi.NoteOnEvent(tick=0, channel=0, data=[52, 26]),
   midi.NoteOnEvent(tick=228, channel=0, data=[52, 0]),
   midi.NoteOnEvent(tick=0, channel=0, data=[44, 0]),
   midi.NoteOnEvent(tick=0, channel=0, data=[49, 0]),
   midi.NoteOnEvent(tick=12, channel=0, data=[36, 41]),
   midi.NoteOnEvent(tick=125, channel=0, data=[36, 0]),
   midi.NoteOnEvent(tick=12, channel=0, data=[51, 22]),
   midi.NoteOnEvent(tick=0, channel=0, data=[54, 26]),
   midi.NoteOnEvent(tick=0, channel=0, data=[44, 22]),
   midi.NoteOnEvent(tick=228, channel=0, data=[44, 0]),
   midi.NoteOnEvent(tick=0, channel=0, data=[54, 0]),
   midi.NoteOnEvent(tick=0, channel=0, data=[51, 0]),
   midi.NoteOnEvent(tick=12, channel=0, data=[44, 22]),
   midi.NoteOnEvent(tick=0, channel=0, data=[51, 22]),
   midi.NoteOnEvent(tick=0, channel=0, data=[54, 26]),
   midi.NoteOnEvent(tick=228, channel=0, data=[54, 0]),
   midi.NoteOnEvent(tick=0, channel=0, data=[51, 0]),
   midi.NoteOnEvent(tick=0, channel=0, data=[44, 0]),
   midi.NoteOnEvent(tick=12, channel=0, data=[44, 22]),
   midi.NoteOnEvent(tick=0, channel=0, data=[51, 22]),
   midi.NoteOnEvent(tick=0, channel=0, data=[54, 26]),
   midi.NoteOnEvent(tick=228, channel=0, data=[54, 0]),
   midi.NoteOnEvent(tick=0, channel=0, data=[51, 0]),
   midi.NoteOnEvent(tick=0, channel=0, data=[44, 0]),
   midi.NoteOnEvent(tick=12, channel=0, data=[44, 22]),
   midi.NoteOnEvent(tick=0, channel=0, data=[51, 22]),
   midi.NoteOnEvent(tick=0, channel=0, data=[54, 26]),
   midi.NoteOnEvent(tick=228, channel=0, data=[54, 0]),
   midi.NoteOnEvent(tick=0, channel=0, data=[51, 0]),
   midi.NoteOnEvent(tick=0, channel=0, data=[44, 0]),
   midi.NoteOnEvent(tick=12, channel=0, data=[44, 22]),
   midi.NoteOnEvent(tick=0, channel=0, data=[51, 22]),
   midi.NoteOnEvent(tick=0, channel=0, data=[54, 26]),
   midi.NoteOnEvent(tick=228, channel=0, data=[54, 0]),
   midi.NoteOnEvent(tick=0, channel=0, data=[51, 0]),
   midi.NoteOnEvent(tick=0, channel=0, data=[44, 0]),
   midi.NoteOnEvent(tick=12, channel=0, data=[44, 22]),
   midi.NoteOnEvent(tick=0, channel=0, data=[51, 22]),
   midi.NoteOnEvent(tick=0, channel=0, data=[54, 26]),
   midi.NoteOnEvent(tick=101, channel=0, data=[54, 0]),
   midi.NoteOnEvent(tick=0, channel=0, data=[51, 0]),
   midi.NoteOnEvent(tick=0, channel=0, data=[44, 0]),
   midi.NoteOnEvent(tick=12, channel=0, data=[44, 22]),
   midi.NoteOnEvent(tick=0, channel=0, data=[51, 22]),
   midi.NoteOnEvent(tick=0, channel=0, data=[54, 26]),
   midi.NoteOnEvent(tick=228, channel=0, data=[54, 0]),
   midi.NoteOnEvent(tick=0, channel=0, data=[51, 0]),
   midi.NoteOnEvent(tick=0, channel=0, data=[44, 0]),
   midi.NoteOnEvent(tick=12, channel=0, data=[44, 22]),
   midi.NoteOnEvent(tick=0, channel=0, data=[51, 22]),
   midi.NoteOnEvent(tick=0, channel=0, data=[54, 26]),
   midi.NoteOnEvent(tick=228, channel=0, data=[54, 0]),
   midi.NoteOnEvent(tick=0, channel=0, data=[51, 0]),
   midi.NoteOnEvent(tick=0, channel=0, data=[44, 0]),
   midi.NoteOnEvent(tick=12, channel=0, data=[44, 22]),
   midi.NoteOnEvent(tick=0, channel=0, data=[51, 22]),
   midi.NoteOnEvent(tick=0, channel=0, data=[54, 26]),
   midi.NoteOnEvent(tick=228, channel=0, data=[54, 0]),
   midi.NoteOnEvent(tick=0, channel=0, data=[51, 0]),
   midi.NoteOnEvent(tick=0, channel=0, data=[44, 0]),
   midi.NoteOnEvent(tick=12, channel=0, data=[51, 22]),
   midi.NoteOnEvent(tick=0, channel=0, data=[44, 22]),
   midi.NoteOnEvent(tick=0, channel=0, data=[54, 26]),
   midi.NoteOnEvent(tick=228, channel=0, data=[54, 0]),
   midi.NoteOnEvent(tick=0, channel=0, data=[44, 0]),
   midi.NoteOnEvent(tick=0, channel=0, data=[51, 0]),
   midi.NoteOnEvent(tick=12, channel=0, data=[44, 22]),
   midi.NoteOnEvent(tick=0, channel=0, data=[51, 22]),
   midi.NoteOnEvent(tick=0, channel=0, data=[54, 26]),
   midi.NoteOnEvent(tick=228, channel=0, data=[54, 0]),
   midi.NoteOnEvent(tick=0, channel=0, data=[51, 0]),
   midi.NoteOnEvent(tick=0, channel=0, data=[44, 0]),
   midi.NoteOnEvent(tick=12, channel=0, data=[37, 40]),
   midi.NoteOnEvent(tick=72, channel=0, data=[37, 0]),
   midi.NoteOnEvent(tick=12, channel=0, data=[52, 26]),
   midi.NoteOnEvent(tick=0, channel=0, data=[49, 22]),
   midi.NoteOnEvent(tick=0, channel=0, data=[44, 22]),
   midi.NoteOnEvent(tick=228, channel=0, data=[44, 0]),
   midi.NoteOnEvent(tick=0, channel=0, data=[49, 0]),
   midi.NoteOnEvent(tick=0, channel=0, data=[52, 0]),
   midi.NoteOnEvent(tick=12, channel=0, data=[44, 22]),
   midi.NoteOnEvent(tick=0, channel=0, data=[49, 22]),
   midi.NoteOnEvent(tick=0, channel=0, data=[52, 26]),
   midi.NoteOnEvent(tick=228, channel=0, data=[52, 0]),
   midi.NoteOnEvent(tick=0, channel=0, data=[49, 0]),
   midi.NoteOnEvent(tick=0, channel=0, data=[44, 0]),
   midi.NoteOnEvent(tick=12, channel=0, data=[44, 22]),
   midi.NoteOnEvent(tick=0, channel=0, data=[49, 22]),
   midi.NoteOnEvent(tick=0, channel=0, data=[52, 26]),
   midi.NoteOnEvent(tick=228, channel=0, data=[52, 0]),
   midi.NoteOnEvent(tick=0, channel=0, data=[49, 0]),
   midi.NoteOnEvent(tick=0, channel=0, data=[44, 0]),
   midi.NoteOnEvent(tick=12, channel=0, data=[44, 22]),
   midi.NoteOnEvent(tick=0, channel=0, data=[49, 22]),
   midi.NoteOnEvent(tick=0, channel=0, data=[52, 26]),
   midi.NoteOnEvent(tick=228, channel=0, data=[52, 0]),
   midi.NoteOnEvent(tick=0, channel=0, data=[49, 0]),
   midi.NoteOnEvent(tick=0, channel=0, data=[44, 0]),
   midi.NoteOnEvent(tick=12, channel=0, data=[44, 22]),
   midi.NoteOnEvent(tick=0, channel=0, data=[49, 22]),
   midi.NoteOnEvent(tick=0, channel=0, data=[52, 26]),
   midi.NoteOnEvent(tick=228, channel=0, data=[52, 0]),
   midi.NoteOnEvent(tick=0, channel=0, data=[49, 0]),
   midi.NoteOnEvent(tick=0, channel=0, data=[44, 0]),
   midi.NoteOnEvent(tick=0, channel=0, data=[44, 22]),
   midi.NoteOnEvent(tick=0, channel=0, data=[49, 22]),
   midi.NoteOnEvent(tick=0, channel=0, data=[52, 26]),
   midi.NoteOnEvent(tick=101, channel=0, data=[52, 0]),
   midi.NoteOnEvent(tick=0, channel=0, data=[49, 0]),
   midi.NoteOnEvent(tick=0, channel=0, data=[44, 0]),
   midi.NoteOnEvent(tick=12, channel=0, data=[44, 22]),
   midi.NoteOnEvent(tick=0, channel=0, data=[49, 22]),
   midi.NoteOnEvent(tick=0, channel=0, data=[52, 26]),
   midi.NoteOnEvent(tick=228, channel=0, data=[52, 0]),
   midi.NoteOnEvent(tick=0, channel=0, data=[49, 0]),
   midi.NoteOnEvent(tick=0, channel=0, data=[44, 0]),
   midi.NoteOnEvent(tick=12, channel=0, data=[44, 22]),
   midi.NoteOnEvent(tick=0, channel=0, data=[49, 22]),
   midi.NoteOnEvent(tick=0, channel=0, data=[52, 26]),
   midi.NoteOnEvent(tick=228, channel=0, data=[52, 0]),
   midi.NoteOnEvent(tick=0, channel=0, data=[49, 0]),
   midi.NoteOnEvent(tick=0, channel=0, data=[44, 0]),
   midi.NoteOnEvent(tick=12, channel=0, data=[44, 22]),
   midi.NoteOnEvent(tick=0, channel=0, data=[49, 22]),
   midi.NoteOnEvent(tick=0, channel=0, data=[52, 26]),
   midi.NoteOnEvent(tick=228, channel=0, data=[52, 0]),
   midi.NoteOnEvent(tick=0, channel=0, data=[49, 0]),
   midi.NoteOnEvent(tick=0, channel=0, data=[44, 0]),
   midi.NoteOnEvent(tick=12, channel=0, data=[44, 22]),
   midi.NoteOnEvent(tick=0, channel=0, data=[49, 22]),
   midi.NoteOnEvent(tick=0, channel=0, data=[52, 26]),
   midi.NoteOnEvent(tick=228, channel=0, data=[52, 0]),
   midi.NoteOnEvent(tick=0, channel=0, data=[49, 0]),
   midi.NoteOnEvent(tick=0, channel=0, data=[44, 0]),
   midi.NoteOnEvent(tick=12, channel=0, data=[49, 22]),
   midi.NoteOnEvent(tick=0, channel=0, data=[44, 22]),
   midi.NoteOnEvent(tick=0, channel=0, data=[52, 26]),
   midi.NoteOnEvent(tick=228, channel=0, data=[52, 0]),
   midi.NoteOnEvent(tick=0, channel=0, data=[44, 0]),
   midi.NoteOnEvent(tick=0, channel=0, data=[49, 0]),
   midi.NoteOnEvent(tick=0, channel=0, data=[39, 39]),
   midi.NoteOnEvent(tick=228, channel=0, data=[39, 0]),
   midi.NoteOnEvent(tick=0, channel=0, data=[51, 22]),
   midi.NoteOnEvent(tick=0, channel=0, data=[54, 26]),
   midi.NoteOnEvent(tick=0, channel=0, data=[44, 22]),
   midi.NoteOnEvent(tick=228, channel=0, data=[44, 0]),
   midi.NoteOnEvent(tick=0, channel=0, data=[54, 0]),
   midi.NoteOnEvent(tick=0, channel=0, data=[51, 0]),
   midi.NoteOnEvent(tick=12, channel=0, data=[44, 22]),
   midi.NoteOnEvent(tick=0, channel=0, data=[51, 22]),
   midi.NoteOnEvent(tick=0, channel=0, data=[54, 26]),
   midi.NoteOnEvent(tick=228, channel=0, data=[54, 0]),
   midi.NoteOnEvent(tick=0, channel=0, data=[51, 0]),
   midi.NoteOnEvent(tick=0, channel=0, data=[44, 0]),
   midi.NoteOnEvent(tick=12, channel=0, data=[44, 22]),
   midi.NoteOnEvent(tick=0, channel=0, data=[51, 22]),
   midi.NoteOnEvent(tick=0, channel=0, data=[54, 26]),
   midi.NoteOnEvent(tick=228, channel=0, data=[54, 0]),
   midi.NoteOnEvent(tick=0, channel=0, data=[51, 0]),
   midi.NoteOnEvent(tick=0, channel=0, data=[44, 0]),
   midi.NoteOnEvent(tick=12, channel=0, data=[44, 22]),
   midi.NoteOnEvent(tick=0, channel=0, data=[51, 22]),
   midi.NoteOnEvent(tick=0, channel=0, data=[54, 26]),
   midi.NoteOnEvent(tick=228, channel=0, data=[54, 0]),
   midi.NoteOnEvent(tick=0, channel=0, data=[51, 0]),
   midi.NoteOnEvent(tick=0, channel=0, data=[44, 0]),
   midi.NoteOnEvent(tick=12, channel=0, data=[44, 22]),
   midi.NoteOnEvent(tick=0, channel=0, data=[51, 22]),
   midi.NoteOnEvent(tick=0, channel=0, data=[54, 26]),
   midi.NoteOnEvent(tick=228, channel=0, data=[54, 0]),
   midi.NoteOnEvent(tick=0, channel=0, data=[51, 0]),
   midi.NoteOnEvent(tick=0, channel=0, data=[44, 0]),
   midi.NoteOnEvent(tick=12, channel=0, data=[44, 22]),
   midi.NoteOnEvent(tick=0, channel=0, data=[51, 22]),
   midi.NoteOnEvent(tick=0, channel=0, data=[54, 26]),
   midi.NoteOnEvent(tick=125, channel=0, data=[54, 0]),
   midi.NoteOnEvent(tick=0, channel=0, data=[51, 0]),
   midi.NoteOnEvent(tick=0, channel=0, data=[44, 0]),
   midi.NoteOnEvent(tick=12, channel=0, data=[44, 22]),
   midi.NoteOnEvent(tick=0, channel=0, data=[51, 22]),
   midi.NoteOnEvent(tick=0, channel=0, data=[54, 26]),
   midi.NoteOnEvent(tick=228, channel=0, data=[54, 0]),
   midi.NoteOnEvent(tick=0, channel=0, data=[51, 0]),
   midi.NoteOnEvent(tick=0, channel=0, data=[44, 0]),
   midi.NoteOnEvent(tick=12, channel=0, data=[44, 22]),
   midi.NoteOnEvent(tick=0, channel=0, data=[51, 22]),
   midi.NoteOnEvent(tick=0, channel=0, data=[54, 26]),
   midi.NoteOnEvent(tick=228, channel=0, data=[54, 0]),
   midi.NoteOnEvent(tick=0, channel=0, data=[51, 0]),
   midi.NoteOnEvent(tick=0, channel=0, data=[44, 0]),
   midi.NoteOnEvent(tick=12, channel=0, data=[44, 22]),
   midi.NoteOnEvent(tick=0, channel=0, data=[51, 22]),
   midi.NoteOnEvent(tick=0, channel=0, data=[54, 26]),
   midi.NoteOnEvent(tick=228, channel=0, data=[54, 0]),
   midi.NoteOnEvent(tick=0, channel=0, data=[51, 0]),
   midi.NoteOnEvent(tick=0, channel=0, data=[44, 0]),
   midi.NoteOnEvent(tick=12, channel=0, data=[51, 22]),
   midi.NoteOnEvent(tick=0, channel=0, data=[44, 22]),
   midi.NoteOnEvent(tick=0, channel=0, data=[54, 26]),
   midi.NoteOnEvent(tick=228, channel=0, data=[54, 0]),
   midi.NoteOnEvent(tick=0, channel=0, data=[44, 0]),
   midi.NoteOnEvent(tick=0, channel=0, data=[51, 0]),
   midi.NoteOnEvent(tick=12, channel=0, data=[44, 22]),
   midi.NoteOnEvent(tick=0, channel=0, data=[51, 22]),
   midi.NoteOnEvent(tick=0, channel=0, data=[54, 26]),
   midi.NoteOnEvent(tick=228, channel=0, data=[54, 0]),
   midi.NoteOnEvent(tick=0, channel=0, data=[51, 0]),
   midi.NoteOnEvent(tick=0, channel=0, data=[44, 0]),
   midi.NoteOnEvent(tick=12, channel=0, data=[40, 42]),
   midi.NoteOnEvent(tick=125, channel=0, data=[40, 0]),
   midi.NoteOnEvent(tick=12, channel=0, data=[52, 35]),
   midi.NoteOnEvent(tick=0, channel=0, data=[45, 29]),
   midi.NoteOnEvent(tick=228, channel=0, data=[45, 0]),
   midi.NoteOnEvent(tick=0, channel=0, data=[52, 0]),
   midi.NoteOnEvent(tick=12, channel=0, data=[45, 29]),
   midi.NoteOnEvent(tick=0, channel=0, data=[52, 35]),
   midi.NoteOnEvent(tick=33, channel=0, data=[52, 0]),
   midi.NoteOnEvent(tick=0, channel=0, data=[45, 0]),
   midi.NoteOnEvent(tick=12, channel=0, data=[45, 29]),
   midi.NoteOnEvent(tick=0, channel=0, data=[52, 35]),
   midi.NoteOnEvent(tick=228, channel=0, data=[52, 0]),
   midi.NoteOnEvent(tick=0, channel=0, data=[45, 0]),
   midi.NoteOnEvent(tick=12, channel=0, data=[45, 29]),
   midi.NoteOnEvent(tick=0, channel=0, data=[52, 35]),
   midi.NoteOnEvent(tick=228, channel=0, data=[52, 0]),
   midi.NoteOnEvent(tick=0, channel=0, data=[45, 0]),
   midi.NoteOnEvent(tick=12, channel=0, data=[45, 29]),
   midi.NoteOnEvent(tick=0, channel=0, data=[52, 35]),
   midi.NoteOnEvent(tick=228, channel=0, data=[52, 0]),
   midi.NoteOnEvent(tick=0, channel=0, data=[45, 0]),
   midi.NoteOnEvent(tick=12, channel=0, data=[52, 35]),
   midi.NoteOnEvent(tick=0, channel=0, data=[45, 29]),
   midi.NoteOnEvent(tick=228, channel=0, data=[45, 0]),
   midi.NoteOnEvent(tick=0, channel=0, data=[52, 0]),
   midi.NoteOnEvent(tick=12, channel=0, data=[45, 29]),
   midi.NoteOnEvent(tick=0, channel=0, data=[52, 35]),
   midi.NoteOnEvent(tick=228, channel=0, data=[52, 0]),
   midi.NoteOnEvent(tick=0, channel=0, data=[45, 0]),
   midi.NoteOnEvent(tick=12, channel=0, data=[40, 35]),
   midi.NoteOnEvent(tick=240, channel=0, data=[52, 35]),
   midi.NoteOnEvent(tick=0, channel=0, data=[45, 29]),
   midi.NoteOnEvent(tick=228, channel=0, data=[45, 0]),
   midi.NoteOnEvent(tick=0, channel=0, data=[52, 0]),
   midi.NoteOnEvent(tick=12, channel=0, data=[40, 0]),
   midi.NoteOnEvent(tick=0, channel=0, data=[40, 35]),
   midi.NoteOnEvent(tick=240, channel=0, data=[52, 35]),
   midi.NoteOnEvent(tick=0, channel=0, data=[45, 29]),
   midi.NoteOnEvent(tick=228, channel=0, data=[45, 0]),
   midi.NoteOnEvent(tick=0, channel=0, data=[52, 0]),
   midi.NoteOnEvent(tick=12, channel=0, data=[40, 0]),
   midi.NoteOnEvent(tick=0, channel=0, data=[35, 52]),
   midi.NoteOnEvent(tick=102, channel=0, data=[35, 0]),
   midi.NoteOnEvent(tick=12, channel=0, data=[47, 44]),
   midi.NoteOnEvent(tick=0, channel=0, data=[40, 37]),
   midi.NoteOnEvent(tick=228, channel=0, data=[40, 0]),
   midi.NoteOnEvent(tick=0, channel=0, data=[47, 0]),
   midi.NoteOnEvent(tick=12, channel=0, data=[40, 37]),
   midi.NoteOnEvent(tick=0, channel=0, data=[47, 44]),
   midi.NoteOnEvent(tick=33, channel=0, data=[47, 0]),
   midi.NoteOnEvent(tick=0, channel=0, data=[40, 0]),
   midi.NoteOnEvent(tick=12, channel=0, data=[40, 37]),
   midi.NoteOnEvent(tick=0, channel=0, data=[47, 44]),
   midi.NoteOnEvent(tick=228, channel=0, data=[47, 0]),
   midi.NoteOnEvent(tick=0, channel=0, data=[40, 0]),
   midi.NoteOnEvent(tick=12, channel=0, data=[47, 44]),
   midi.NoteOnEvent(tick=0, channel=0, data=[40, 37]),
   midi.NoteOnEvent(tick=228, channel=0, data=[40, 0]),
   midi.NoteOnEvent(tick=0, channel=0, data=[47, 0]),
   midi.NoteOnEvent(tick=12, channel=0, data=[40, 37]),
   midi.NoteOnEvent(tick=0, channel=0, data=[47, 44]),
   midi.NoteOnEvent(tick=228, channel=0, data=[47, 0]),
   midi.NoteOnEvent(tick=0, channel=0, data=[40, 0]),
   midi.NoteOnEvent(tick=12, channel=0, data=[40, 37]),
   midi.NoteOnEvent(tick=0, channel=0, data=[47, 44]),
   midi.NoteOnEvent(tick=228, channel=0, data=[47, 0]),
   midi.NoteOnEvent(tick=0, channel=0, data=[40, 0]),
   midi.NoteOnEvent(tick=12, channel=0, data=[40, 37]),
   midi.NoteOnEvent(tick=0, channel=0, data=[47, 44]),
   midi.NoteOnEvent(tick=228, channel=0, data=[47, 0]),
   midi.NoteOnEvent(tick=0, channel=0, data=[40, 0]),
   midi.NoteOnEvent(tick=12, channel=0, data=[35, 44]),
   midi.NoteOnEvent(tick=125, channel=0, data=[40, 37]),
   midi.NoteOnEvent(tick=0, channel=0, data=[47, 44]),
   midi.NoteOnEvent(tick=240, channel=0, data=[47, 0]),
   midi.NoteOnEvent(tick=0, channel=0, data=[40, 0]),
   midi.NoteOnEvent(tick=0, channel=0, data=[35, 0]),
   midi.NoteOnEvent(tick=0, channel=0, data=[40, 44]),
   midi.NoteOnEvent(tick=240, channel=0, data=[52, 44]),
   midi.NoteOnEvent(tick=0, channel=0, data=[47, 37]),
   midi.NoteOnEvent(tick=240, channel=0, data=[47, 0]),
   midi.NoteOnEvent(tick=0, channel=0, data=[52, 0]),
   midi.NoteOnEvent(tick=0, channel=0, data=[40, 0]),
   midi.NoteOnEvent(tick=0, channel=0, data=[39, 61]),
   midi.NoteOnEvent(tick=141, channel=0, data=[51, 45]),
   midi.NoteOnEvent(tick=0, channel=0, data=[47, 39]),
   midi.NoteOnEvent(tick=228, channel=0, data=[47, 0]),
   midi.NoteOnEvent(tick=0, channel=0, data=[51, 0]),
   midi.NoteOnEvent(tick=12, channel=0, data=[47, 39]),
   midi.NoteOnEvent(tick=0, channel=0, data=[51, 45]),
   midi.NoteOnEvent(tick=44, channel=0, data=[51, 0]),
   midi.NoteOnEvent(tick=0, channel=0, data=[47, 0]),
   midi.NoteOnEvent(tick=12, channel=0, data=[47, 39]),
   midi.NoteOnEvent(tick=0, channel=0, data=[51, 46]),
   midi.NoteOnEvent(tick=228, channel=0, data=[51, 0]),
   midi.NoteOnEvent(tick=0, channel=0, data=[47, 0]),
   midi.NoteOnEvent(tick=12, channel=0, data=[47, 46]),
   midi.NoteOnEvent(tick=0, channel=0, data=[51, 46]),
   midi.NoteOnEvent(tick=228, channel=0, data=[51, 0]),
   midi.NoteOnEvent(tick=0, channel=0, data=[47, 0]),
   midi.NoteOnEvent(tick=12, channel=0, data=[47, 39]),
   midi.NoteOnEvent(tick=0, channel=0, data=[51, 46]),
   midi.NoteOnEvent(tick=228, channel=0, data=[51, 0]),
   midi.NoteOnEvent(tick=0, channel=0, data=[47, 0]),
   midi.NoteOnEvent(tick=12, channel=0, data=[39, 0]),
   midi.NoteOnEvent(tick=0, channel=0, data=[39, 61]),
   midi.NoteOnEvent(tick=149, channel=0, data=[49, 39]),
   midi.NoteOnEvent(tick=0, channel=0, data=[51, 46]),
   midi.NoteOnEvent(tick=0, channel=0, data=[46, 39]),
   midi.NoteOnEvent(tick=228, channel=0, data=[46, 0]),
   midi.NoteOnEvent(tick=0, channel=0, data=[51, 0]),
   midi.NoteOnEvent(tick=0, channel=0, data=[49, 0]),
   midi.NoteOnEvent(tick=12, channel=0, data=[51, 46]),
   midi.NoteOnEvent(tick=0, channel=0, data=[49, 39]),
   midi.NoteOnEvent(tick=0, channel=0, data=[46, 39]),
   midi.NoteOnEvent(tick=112, channel=0, data=[46, 0]),
   midi.NoteOnEvent(tick=0, channel=0, data=[49, 0]),
   midi.NoteOnEvent(tick=0, channel=0, data=[51, 0]),
   midi.NoteOnEvent(tick=12, channel=0, data=[51, 46]),
   midi.NoteOnEvent(tick=0, channel=0, data=[49, 39]),
   midi.NoteOnEvent(tick=0, channel=0, data=[46, 39]),
   midi.NoteOnEvent(tick=228, channel=0, data=[46, 0]),
   midi.NoteOnEvent(tick=0, channel=0, data=[49, 0]),
   midi.NoteOnEvent(tick=0, channel=0, data=[51, 0]),
   midi.NoteOnEvent(tick=12, channel=0, data=[51, 45]),
   midi.NoteOnEvent(tick=0, channel=0, data=[49, 45]),
   midi.NoteOnEvent(tick=0, channel=0, data=[46, 39]),
   midi.NoteOnEvent(tick=228, channel=0, data=[46, 0]),
   midi.NoteOnEvent(tick=0, channel=0, data=[49, 0]),
   midi.NoteOnEvent(tick=0, channel=0, data=[51, 0]),
   midi.NoteOnEvent(tick=12, channel=0, data=[51, 45]),
   midi.NoteOnEvent(tick=0, channel=0, data=[49, 45]),
   midi.NoteOnEvent(tick=0, channel=0, data=[46, 45]),
   midi.NoteOnEvent(tick=228, channel=0, data=[46, 0]),
   midi.NoteOnEvent(tick=0, channel=0, data=[49, 0]),
   midi.NoteOnEvent(tick=0, channel=0, data=[51, 0]),
   midi.NoteOnEvent(tick=12, channel=0, data=[39, 0]),
   midi.NoteOnEvent(tick=0, channel=0, data=[44, 52]),
   midi.NoteOnEvent(tick=84, channel=0, data=[51, 26]),
   midi.NoteOnEvent(tick=0, channel=0, data=[47, 22]),
   midi.NoteOnEvent(tick=228, channel=0, data=[47, 0]),
   midi.NoteOnEvent(tick=0, channel=0, data=[51, 0]),
   midi.NoteOnEvent(tick=12, channel=0, data=[51, 26]),
   midi.NoteOnEvent(tick=0, channel=0, data=[47, 22]),
   midi.NoteOnEvent(tick=228, channel=0, data=[47, 0]),
   midi.NoteOnEvent(tick=0, channel=0, data=[51, 0]),
   midi.NoteOnEvent(tick=12, channel=0, data=[51, 26]),
   midi.NoteOnEvent(tick=0, channel=0, data=[47, 22]),
   midi.NoteOnEvent(tick=228, channel=0, data=[47, 0]),
   midi.NoteOnEvent(tick=0, channel=0, data=[51, 0]),
   midi.NoteOnEvent(tick=12, channel=0, data=[51, 26]),
   midi.NoteOnEvent(tick=0, channel=0, data=[47, 26]),
   midi.NoteOnEvent(tick=228, channel=0, data=[47, 0]),
   midi.NoteOnEvent(tick=0, channel=0, data=[51, 0]),
   midi.NoteOnEvent(tick=12, channel=0, data=[51, 26]),
   midi.NoteOnEvent(tick=0, channel=0, data=[47, 22]),
   midi.NoteOnEvent(tick=228, channel=0, data=[47, 0]),
   midi.NoteOnEvent(tick=0, channel=0, data=[51, 0]),
   midi.NoteOnEvent(tick=12, channel=0, data=[44, 0]),
   midi.NoteOnEvent(tick=0, channel=0, data=[44, 52]),
   midi.NoteOnEvent(tick=114, channel=0, data=[51, 22]),
   midi.NoteOnEvent(tick=0, channel=0, data=[54, 26]),
   midi.NoteOnEvent(tick=228, channel=0, data=[54, 0]),
   midi.NoteOnEvent(tick=0, channel=0, data=[51, 0]),
   midi.NoteOnEvent(tick=12, channel=0, data=[54, 29]),
   midi.NoteOnEvent(tick=0, channel=0, data=[51, 24]),
   midi.NoteOnEvent(tick=228, channel=0, data=[51, 0]),
   midi.NoteOnEvent(tick=0, channel=0, data=[54, 0]),
   midi.NoteOnEvent(tick=12, channel=0, data=[54, 35]),
   midi.NoteOnEvent(tick=0, channel=0, data=[51, 29]),
   midi.NoteOnEvent(tick=228, channel=0, data=[51, 0]),
   midi.NoteOnEvent(tick=0, channel=0, data=[54, 0]),
   midi.NoteOnEvent(tick=12, channel=0, data=[54, 35]),
   midi.NoteOnEvent(tick=0, channel=0, data=[51, 29]),
   midi.NoteOnEvent(tick=228, channel=0, data=[51, 0]),
   midi.NoteOnEvent(tick=0, channel=0, data=[54, 0]),
   midi.NoteOnEvent(tick=12, channel=0, data=[54, 29]),
   midi.NoteOnEvent(tick=0, channel=0, data=[51, 24]),
   midi.NoteOnEvent(tick=228, channel=0, data=[51, 0]),
   midi.NoteOnEvent(tick=0, channel=0, data=[54, 0]),
   midi.NoteOnEvent(tick=12, channel=0, data=[44, 0]),
   midi.NoteOnEvent(tick=0, channel=0, data=[37, 42]),
   midi.NoteOnEvent(tick=44, channel=0, data=[37, 0]),
   midi.NoteOnEvent(tick=12, channel=0, data=[52, 26]),
   midi.NoteOnEvent(tick=0, channel=0, data=[49, 22]),
   midi.NoteOnEvent(tick=0, channel=0, data=[44, 22]),
   midi.NoteOnEvent(tick=228, channel=0, data=[44, 0]),
   midi.NoteOnEvent(tick=0, channel=0, data=[49, 0]),
   midi.NoteOnEvent(tick=0, channel=0, data=[52, 0]),
   midi.NoteOnEvent(tick=12, channel=0, data=[44, 22]),
   midi.NoteOnEvent(tick=0, channel=0, data=[49, 22]),
   midi.NoteOnEvent(tick=0, channel=0, data=[52, 26]),
   midi.NoteOnEvent(tick=228, channel=0, data=[52, 0]),
   midi.NoteOnEvent(tick=0, channel=0, data=[49, 0]),
   midi.NoteOnEvent(tick=0, channel=0, data=[44, 0]),
   midi.NoteOnEvent(tick=12, channel=0, data=[44, 22]),
   midi.NoteOnEvent(tick=0, channel=0, data=[49, 22]),
   midi.NoteOnEvent(tick=0, channel=0, data=[52, 26]),
   midi.NoteOnEvent(tick=228, channel=0, data=[52, 0]),
   midi.NoteOnEvent(tick=0, channel=0, data=[49, 0]),
   midi.NoteOnEvent(tick=0, channel=0, data=[44, 0]),
   midi.NoteOnEvent(tick=12, channel=0, data=[44, 22]),
   midi.NoteOnEvent(tick=0, channel=0, data=[49, 22]),
   midi.NoteOnEvent(tick=0, channel=0, data=[52, 26]),
   midi.NoteOnEvent(tick=228, channel=0, data=[52, 0]),
   midi.NoteOnEvent(tick=0, channel=0, data=[49, 0]),
   midi.NoteOnEvent(tick=0, channel=0, data=[44, 0]),
   midi.NoteOnEvent(tick=12, channel=0, data=[44, 22]),
   midi.NoteOnEvent(tick=0, channel=0, data=[49, 22]),
   midi.NoteOnEvent(tick=0, channel=0, data=[52, 26]),
   midi.NoteOnEvent(tick=228, channel=0, data=[52, 0]),
   midi.NoteOnEvent(tick=0, channel=0, data=[49, 0]),
   midi.NoteOnEvent(tick=0, channel=0, data=[44, 0]),
   midi.NoteOnEvent(tick=12, channel=0, data=[44, 22]),
   midi.NoteOnEvent(tick=0, channel=0, data=[49, 22]),
   midi.NoteOnEvent(tick=0, channel=0, data=[52, 26]),
   midi.NoteOnEvent(tick=72, channel=0, data=[52, 0]),
   midi.NoteOnEvent(tick=0, channel=0, data=[49, 0]),
   midi.NoteOnEvent(tick=0, channel=0, data=[44, 0]),
   midi.NoteOnEvent(tick=12, channel=0, data=[44, 22]),
   midi.NoteOnEvent(tick=0, channel=0, data=[49, 22]),
   midi.NoteOnEvent(tick=0, channel=0, data=[52, 26]),
   midi.NoteOnEvent(tick=228, channel=0, data=[52, 0]),
   midi.NoteOnEvent(tick=0, channel=0, data=[49, 0]),
   midi.NoteOnEvent(tick=0, channel=0, data=[44, 0]),
   midi.NoteOnEvent(tick=12, channel=0, data=[44, 22]),
   midi.NoteOnEvent(tick=0, channel=0, data=[49, 22]),
   midi.NoteOnEvent(tick=0, channel=0, data=[52, 26]),
   midi.NoteOnEvent(tick=228, channel=0, data=[52, 0]),
   midi.NoteOnEvent(tick=0, channel=0, data=[49, 0]),
   midi.NoteOnEvent(tick=0, channel=0, data=[44, 0]),
   midi.NoteOnEvent(tick=12, channel=0, data=[44, 22]),
   midi.NoteOnEvent(tick=0, channel=0, data=[49, 22]),
   midi.NoteOnEvent(tick=0, channel=0, data=[52, 26]),
   midi.NoteOnEvent(tick=228, channel=0, data=[52, 0]),
   midi.NoteOnEvent(tick=0, channel=0, data=[49, 0]),
   midi.NoteOnEvent(tick=0, channel=0, data=[44, 0]),
   midi.NoteOnEvent(tick=12, channel=0, data=[44, 22]),
   midi.NoteOnEvent(tick=0, channel=0, data=[49, 22]),
   midi.NoteOnEvent(tick=0, channel=0, data=[52, 26]),
   midi.NoteOnEvent(tick=228, channel=0, data=[52, 0]),
   midi.NoteOnEvent(tick=0, channel=0, data=[49, 0]),
   midi.NoteOnEvent(tick=0, channel=0, data=[44, 0]),
   midi.NoteOnEvent(tick=12, channel=0, data=[49, 22]),
   midi.NoteOnEvent(tick=0, channel=0, data=[44, 22]),
   midi.NoteOnEvent(tick=0, channel=0, data=[52, 26]),
   midi.NoteOnEvent(tick=228, channel=0, data=[52, 0]),
   midi.NoteOnEvent(tick=0, channel=0, data=[44, 0]),
   midi.NoteOnEvent(tick=0, channel=0, data=[49, 0]),
   midi.NoteOnEvent(tick=12, channel=0, data=[36, 41]),
   midi.NoteOnEvent(tick=22, channel=0, data=[36, 0]),
   midi.NoteOnEvent(tick=12, channel=0, data=[51, 22]),
   midi.NoteOnEvent(tick=0, channel=0, data=[54, 26]),
   midi.NoteOnEvent(tick=0, channel=0, data=[44, 22]),
   midi.NoteOnEvent(tick=228, channel=0, data=[44, 0]),
   midi.NoteOnEvent(tick=0, channel=0, data=[54, 0]),
   midi.NoteOnEvent(tick=0, channel=0, data=[51, 0]),
   midi.NoteOnEvent(tick=12, channel=0, data=[44, 22]),
   midi.NoteOnEvent(tick=0, channel=0, data=[51, 22]),
   midi.NoteOnEvent(tick=0, channel=0, data=[54, 26]),
   midi.NoteOnEvent(tick=228, channel=0, data=[54, 0]),
   midi.NoteOnEvent(tick=0, channel=0, data=[51, 0]),
   midi.NoteOnEvent(tick=0, channel=0, data=[44, 0]),
   midi.NoteOnEvent(tick=12, channel=0, data=[44, 22]),
   midi.NoteOnEvent(tick=0, channel=0, data=[51, 22]),
   midi.NoteOnEvent(tick=0, channel=0, data=[54, 26]),
   midi.NoteOnEvent(tick=228, channel=0, data=[54, 0]),
   midi.NoteOnEvent(tick=0, channel=0, data=[51, 0]),
   midi.NoteOnEvent(tick=0, channel=0, data=[44, 0]),
   midi.NoteOnEvent(tick=12, channel=0, data=[44, 22]),
   midi.NoteOnEvent(tick=0, channel=0, data=[51, 22]),
   midi.NoteOnEvent(tick=0, channel=0, data=[54, 26]),
   midi.NoteOnEvent(tick=228, channel=0, data=[54, 0]),
   midi.NoteOnEvent(tick=0, channel=0, data=[51, 0]),
   midi.NoteOnEvent(tick=0, channel=0, data=[44, 0]),
   midi.NoteOnEvent(tick=12, channel=0, data=[44, 22]),
   midi.NoteOnEvent(tick=0, channel=0, data=[51, 22]),
   midi.NoteOnEvent(tick=0, channel=0, data=[54, 26]),
   midi.NoteOnEvent(tick=228, channel=0, data=[54, 0]),
   midi.NoteOnEvent(tick=0, channel=0, data=[51, 0]),
   midi.NoteOnEvent(tick=0, channel=0, data=[44, 0]),
   midi.NoteOnEvent(tick=12, channel=0, data=[44, 22]),
   midi.NoteOnEvent(tick=0, channel=0, data=[51, 22]),
   midi.NoteOnEvent(tick=0, channel=0, data=[54, 26]),
   midi.NoteOnEvent(tick=44, channel=0, data=[54, 0]),
   midi.NoteOnEvent(tick=0, channel=0, data=[51, 0]),
   midi.NoteOnEvent(tick=0, channel=0, data=[44, 0]),
   midi.NoteOnEvent(tick=12, channel=0, data=[44, 22]),
   midi.NoteOnEvent(tick=0, channel=0, data=[51, 22]),
   midi.NoteOnEvent(tick=0, channel=0, data=[54, 26]),
   midi.NoteOnEvent(tick=228, channel=0, data=[54, 0]),
   midi.NoteOnEvent(tick=0, channel=0, data=[51, 0]),
   midi.NoteOnEvent(tick=0, channel=0, data=[44, 0]),
   midi.NoteOnEvent(tick=12, channel=0, data=[44, 22]),
   midi.NoteOnEvent(tick=0, channel=0, data=[51, 22]),
   midi.NoteOnEvent(tick=0, channel=0, data=[54, 26]),
   midi.NoteOnEvent(tick=228, channel=0, data=[54, 0]),
   midi.NoteOnEvent(tick=0, channel=0, data=[51, 0]),
   midi.NoteOnEvent(tick=0, channel=0, data=[44, 0]),
   midi.NoteOnEvent(tick=12, channel=0, data=[44, 22]),
   midi.NoteOnEvent(tick=0, channel=0, data=[51, 22]),
   midi.NoteOnEvent(tick=0, channel=0, data=[54, 26]),
   midi.NoteOnEvent(tick=228, channel=0, data=[54, 0]),
   midi.NoteOnEvent(tick=0, channel=0, data=[51, 0]),
   midi.NoteOnEvent(tick=0, channel=0, data=[44, 0]),
   midi.NoteOnEvent(tick=12, channel=0, data=[51, 22]),
   midi.NoteOnEvent(tick=0, channel=0, data=[44, 22]),
   midi.NoteOnEvent(tick=0, channel=0, data=[54, 26]),
   midi.NoteOnEvent(tick=228, channel=0, data=[54, 0]),
   midi.NoteOnEvent(tick=0, channel=0, data=[44, 0]),
   midi.NoteOnEvent(tick=0, channel=0, data=[51, 0]),
   midi.NoteOnEvent(tick=12, channel=0, data=[44, 22]),
   midi.NoteOnEvent(tick=0, channel=0, data=[51, 22]),
   midi.NoteOnEvent(tick=0, channel=0, data=[54, 26]),
   midi.NoteOnEvent(tick=228, channel=0, data=[54, 0]),
   midi.NoteOnEvent(tick=0, channel=0, data=[51, 0]),
   midi.NoteOnEvent(tick=0, channel=0, data=[44, 0]),
   midi.NoteOnEvent(tick=12, channel=0, data=[37, 40]),
   midi.NoteOnEvent(tick=16, channel=0, data=[37, 0]),
   midi.NoteOnEvent(tick=12, channel=0, data=[52, 26]),
   midi.NoteOnEvent(tick=0, channel=0, data=[49, 22]),
   midi.NoteOnEvent(tick=0, channel=0, data=[44, 22]),
   midi.NoteOnEvent(tick=228, channel=0, data=[44, 0]),
   midi.NoteOnEvent(tick=0, channel=0, data=[49, 0]),
   midi.NoteOnEvent(tick=0, channel=0, data=[52, 0]),
   midi.NoteOnEvent(tick=12, channel=0, data=[44, 22]),
   midi.NoteOnEvent(tick=0, channel=0, data=[49, 22]),
   midi.NoteOnEvent(tick=0, channel=0, data=[52, 26]),
   midi.NoteOnEvent(tick=228, channel=0, data=[52, 0]),
   midi.NoteOnEvent(tick=0, channel=0, data=[49, 0]),
   midi.NoteOnEvent(tick=0, channel=0, data=[44, 0]),
   midi.NoteOnEvent(tick=12, channel=0, data=[44, 22]),
   midi.NoteOnEvent(tick=0, channel=0, data=[49, 22]),
   midi.NoteOnEvent(tick=0, channel=0, data=[52, 26]),
   midi.NoteOnEvent(tick=228, channel=0, data=[52, 0]),
   midi.NoteOnEvent(tick=0, channel=0, data=[49, 0]),
   midi.NoteOnEvent(tick=0, channel=0, data=[44, 0]),
   midi.NoteOnEvent(tick=12, channel=0, data=[44, 22]),
   midi.NoteOnEvent(tick=0, channel=0, data=[49, 22]),
   midi.NoteOnEvent(tick=0, channel=0, data=[52, 26]),
   midi.NoteOnEvent(tick=228, channel=0, data=[52, 0]),
   midi.NoteOnEvent(tick=0, channel=0, data=[49, 0]),
   midi.NoteOnEvent(tick=0, channel=0, data=[44, 0]),
   midi.NoteOnEvent(tick=12, channel=0, data=[44, 22]),
   midi.NoteOnEvent(tick=0, channel=0, data=[49, 22]),
   midi.NoteOnEvent(tick=0, channel=0, data=[52, 26]),
   midi.NoteOnEvent(tick=228, channel=0, data=[52, 0]),
   midi.NoteOnEvent(tick=0, channel=0, data=[49, 0]),
   midi.NoteOnEvent(tick=0, channel=0, data=[44, 0]),
   midi.NoteOnEvent(tick=12, channel=0, data=[44, 22]),
   midi.NoteOnEvent(tick=0, channel=0, data=[49, 22]),
   midi.NoteOnEvent(tick=0, channel=0, data=[52, 26]),
   midi.NoteOnEvent(tick=101, channel=0, data=[52, 0]),
   midi.NoteOnEvent(tick=0, channel=0, data=[49, 0]),
   midi.NoteOnEvent(tick=0, channel=0, data=[44, 0]),
   midi.NoteOnEvent(tick=12, channel=0, data=[44, 22]),
   midi.NoteOnEvent(tick=0, channel=0, data=[49, 22]),
   midi.NoteOnEvent(tick=0, channel=0, data=[52, 26]),
   midi.NoteOnEvent(tick=228, channel=0, data=[52, 0]),
   midi.NoteOnEvent(tick=0, channel=0, data=[49, 0]),
   midi.NoteOnEvent(tick=0, channel=0, data=[44, 0]),
   midi.NoteOnEvent(tick=12, channel=0, data=[44, 22]),
   midi.NoteOnEvent(tick=0, channel=0, data=[49, 22]),
   midi.NoteOnEvent(tick=0, channel=0, data=[52, 26]),
   midi.NoteOnEvent(tick=228, channel=0, data=[52, 0]),
   midi.NoteOnEvent(tick=0, channel=0, data=[49, 0]),
   midi.NoteOnEvent(tick=0, channel=0, data=[44, 0]),
   midi.NoteOnEvent(tick=12, channel=0, data=[44, 22]),
   midi.NoteOnEvent(tick=0, channel=0, data=[49, 22]),
   midi.NoteOnEvent(tick=0, channel=0, data=[52, 26]),
   midi.NoteOnEvent(tick=228, channel=0, data=[52, 0]),
   midi.NoteOnEvent(tick=0, channel=0, data=[49, 0]),
   midi.NoteOnEvent(tick=0, channel=0, data=[44, 0]),
   midi.NoteOnEvent(tick=12, channel=0, data=[44, 22]),
   midi.NoteOnEvent(tick=0, channel=0, data=[49, 22]),
   midi.NoteOnEvent(tick=0, channel=0, data=[52, 26]),
   midi.NoteOnEvent(tick=228, channel=0, data=[52, 0]),
   midi.NoteOnEvent(tick=0, channel=0, data=[49, 0]),
   midi.NoteOnEvent(tick=0, channel=0, data=[44, 0]),
   midi.NoteOnEvent(tick=12, channel=0, data=[49, 22]),
   midi.NoteOnEvent(tick=0, channel=0, data=[44, 22]),
   midi.NoteOnEvent(tick=0, channel=0, data=[52, 26]),
   midi.NoteOnEvent(tick=228, channel=0, data=[52, 0]),
   midi.NoteOnEvent(tick=0, channel=0, data=[44, 0]),
   midi.NoteOnEvent(tick=0, channel=0, data=[49, 0]),
   midi.NoteOnEvent(tick=12, channel=0, data=[39, 39]),
   midi.NoteOnEvent(tick=30, channel=0, data=[39, 0]),
   midi.NoteOnEvent(tick=12, channel=0, data=[51, 22]),
   midi.NoteOnEvent(tick=0, channel=0, data=[54, 26]),
   midi.NoteOnEvent(tick=0, channel=0, data=[44, 22]),
   midi.NoteOnEvent(tick=228, channel=0, data=[44, 0]),
   midi.NoteOnEvent(tick=0, channel=0, data=[54, 0]),
   midi.NoteOnEvent(tick=0, channel=0, data=[51, 0]),
   midi.NoteOnEvent(tick=12, channel=0, data=[44, 22]),
   midi.NoteOnEvent(tick=0, channel=0, data=[51, 22]),
   midi.NoteOnEvent(tick=0, channel=0, data=[54, 26]),
   midi.NoteOnEvent(tick=228, channel=0, data=[54, 0]),
   midi.NoteOnEvent(tick=0, channel=0, data=[51, 0]),
   midi.NoteOnEvent(tick=0, channel=0, data=[44, 0]),
   midi.NoteOnEvent(tick=12, channel=0, data=[44, 22]),
   midi.NoteOnEvent(tick=0, channel=0, data=[51, 22]),
   midi.NoteOnEvent(tick=0, channel=0, data=[54, 26]),
   midi.NoteOnEvent(tick=228, channel=0, data=[54, 0]),
   midi.NoteOnEvent(tick=0, channel=0, data=[51, 0]),
   midi.NoteOnEvent(tick=0, channel=0, data=[44, 0]),
   midi.NoteOnEvent(tick=12, channel=0, data=[44, 22]),
   midi.NoteOnEvent(tick=0, channel=0, data=[51, 22]),
   midi.NoteOnEvent(tick=0, channel=0, data=[54, 26]),
   midi.NoteOnEvent(tick=228, channel=0, data=[54, 0]),
   midi.NoteOnEvent(tick=0, channel=0, data=[51, 0]),
   midi.NoteOnEvent(tick=0, channel=0, data=[44, 0]),
   midi.NoteOnEvent(tick=12, channel=0, data=[44, 22]),
   midi.NoteOnEvent(tick=0, channel=0, data=[51, 22]),
   midi.NoteOnEvent(tick=0, channel=0, data=[54, 26]),
   midi.NoteOnEvent(tick=228, channel=0, data=[54, 0]),
   midi.NoteOnEvent(tick=0, channel=0, data=[51, 0]),
   midi.NoteOnEvent(tick=0, channel=0, data=[44, 0]),
   midi.NoteOnEvent(tick=12, channel=0, data=[44, 22]),
   midi.NoteOnEvent(tick=0, channel=0, data=[51, 22]),
   midi.NoteOnEvent(tick=0, channel=0, data=[54, 26]),
   midi.NoteOnEvent(tick=68, channel=0, data=[54, 0]),
   midi.NoteOnEvent(tick=0, channel=0, data=[51, 0]),
   midi.NoteOnEvent(tick=0, channel=0, data=[44, 0]),
   midi.NoteOnEvent(tick=12, channel=0, data=[44, 22]),
   midi.NoteOnEvent(tick=0, channel=0, data=[51, 22]),
   midi.NoteOnEvent(tick=0, channel=0, data=[54, 26]),
   midi.NoteOnEvent(tick=228, channel=0, data=[54, 0]),
   midi.NoteOnEvent(tick=0, channel=0, data=[51, 0]),
   midi.NoteOnEvent(tick=0, channel=0, data=[44, 0]),
   midi.NoteOnEvent(tick=12, channel=0, data=[44, 22]),
   midi.NoteOnEvent(tick=0, channel=0, data=[51, 22]),
   midi.NoteOnEvent(tick=0, channel=0, data=[54, 26]),
   midi.NoteOnEvent(tick=228, channel=0, data=[54, 0]),
   midi.NoteOnEvent(tick=0, channel=0, data=[51, 0]),
   midi.NoteOnEvent(tick=0, channel=0, data=[44, 0]),
   midi.NoteOnEvent(tick=12, channel=0, data=[44, 22]),
   midi.NoteOnEvent(tick=0, channel=0, data=[51, 22]),
   midi.NoteOnEvent(tick=0, channel=0, data=[54, 26]),
   midi.NoteOnEvent(tick=228, channel=0, data=[54, 0]),
   midi.NoteOnEvent(tick=0, channel=0, data=[51, 0]),
   midi.NoteOnEvent(tick=0, channel=0, data=[44, 0]),
   midi.NoteOnEvent(tick=12, channel=0, data=[51, 22]),
   midi.NoteOnEvent(tick=0, channel=0, data=[44, 22]),
   midi.NoteOnEvent(tick=0, channel=0, data=[54, 26]),
   midi.NoteOnEvent(tick=228, channel=0, data=[54, 0]),
   midi.NoteOnEvent(tick=0, channel=0, data=[44, 0]),
   midi.NoteOnEvent(tick=0, channel=0, data=[51, 0]),
   midi.NoteOnEvent(tick=12, channel=0, data=[44, 22]),
   midi.NoteOnEvent(tick=0, channel=0, data=[51, 22]),
   midi.NoteOnEvent(tick=0, channel=0, data=[54, 26]),
   midi.NoteOnEvent(tick=228, channel=0, data=[54, 0]),
   midi.NoteOnEvent(tick=0, channel=0, data=[51, 0]),
   midi.NoteOnEvent(tick=0, channel=0, data=[44, 0]),
   midi.NoteOnEvent(tick=12, channel=0, data=[40, 42]),
   midi.NoteOnEvent(tick=113, channel=0, data=[40, 0]),
   midi.NoteOnEvent(tick=12, channel=0, data=[52, 35]),
   midi.NoteOnEvent(tick=0, channel=0, data=[45, 29]),
   midi.NoteOnEvent(tick=228, channel=0, data=[45, 0]),
   midi.NoteOnEvent(tick=0, channel=0, data=[52, 0]),
   midi.NoteOnEvent(tick=12, channel=0, data=[45, 29]),
   midi.NoteOnEvent(tick=0, channel=0, data=[52, 35]),
   midi.NoteOnEvent(tick=33, channel=0, data=[52, 0]),
   midi.NoteOnEvent(tick=0, channel=0, data=[45, 0]),
   midi.NoteOnEvent(tick=12, channel=0, data=[45, 29]),
   midi.NoteOnEvent(tick=0, channel=0, data=[52, 35]),
   midi.NoteOnEvent(tick=228, channel=0, data=[52, 0]),
   midi.NoteOnEvent(tick=0, channel=0, data=[45, 0]),
   midi.NoteOnEvent(tick=12, channel=0, data=[45, 29]),
   midi.NoteOnEvent(tick=0, channel=0, data=[52, 35]),
   midi.NoteOnEvent(tick=228, channel=0, data=[52, 0]),
   midi.NoteOnEvent(tick=0, channel=0, data=[45, 0]),
   midi.NoteOnEvent(tick=12, channel=0, data=[45, 29]),
   midi.NoteOnEvent(tick=0, channel=0, data=[52, 35]),
   midi.NoteOnEvent(tick=228, channel=0, data=[52, 0]),
   midi.NoteOnEvent(tick=0, channel=0, data=[45, 0]),
   midi.NoteOnEvent(tick=12, channel=0, data=[52, 35]),
   midi.NoteOnEvent(tick=0, channel=0, data=[45, 29]),
   midi.NoteOnEvent(tick=240, channel=0, data=[45, 0]),
   midi.NoteOnEvent(tick=0, channel=0, data=[52, 0]),
   midi.NoteOnEvent(tick=0, channel=0, data=[45, 29]),
   midi.NoteOnEvent(tick=0, channel=0, data=[52, 35]),
   midi.NoteOnEvent(tick=240, channel=0, data=[52, 0]),
   midi.NoteOnEvent(tick=0, channel=0, data=[45, 0]),
   midi.NoteOnEvent(tick=0, channel=0, data=[40, 35]),
   midi.NoteOnEvent(tick=240, channel=0, data=[52, 35]),
   midi.NoteOnEvent(tick=0, channel=0, data=[45, 29]),
   midi.NoteOnEvent(tick=240, channel=0, data=[45, 0]),
   midi.NoteOnEvent(tick=0, channel=0, data=[52, 0]),
   midi.NoteOnEvent(tick=0, channel=0, data=[40, 0]),
   midi.NoteOnEvent(tick=0, channel=0, data=[40, 35]),
   midi.NoteOnEvent(tick=240, channel=0, data=[52, 35]),
   midi.NoteOnEvent(tick=0, channel=0, data=[45, 29]),
   midi.NoteOnEvent(tick=240, channel=0, data=[45, 0]),
   midi.NoteOnEvent(tick=0, channel=0, data=[52, 0]),
   midi.NoteOnEvent(tick=0, channel=0, data=[40, 0]),
   midi.NoteOnEvent(tick=0, channel=0, data=[35, 52]),
   midi.NoteOnEvent(tick=79, channel=0, data=[35, 0]),
   midi.NoteOnEvent(tick=12, channel=0, data=[47, 44]),
   midi.NoteOnEvent(tick=0, channel=0, data=[40, 37]),
   midi.NoteOnEvent(tick=228, channel=0, data=[40, 0]),
   midi.NoteOnEvent(tick=0, channel=0, data=[47, 0]),
   midi.NoteOnEvent(tick=12, channel=0, data=[40, 37]),
   midi.NoteOnEvent(tick=0, channel=0, data=[47, 44]),
   midi.NoteOnEvent(tick=68, channel=0, data=[47, 0]),
   midi.NoteOnEvent(tick=0, channel=0, data=[40, 0]),
   midi.NoteOnEvent(tick=12, channel=0, data=[40, 37]),
   midi.NoteOnEvent(tick=0, channel=0, data=[47, 44]),
   midi.NoteOnEvent(tick=228, channel=0, data=[47, 0]),
   midi.NoteOnEvent(tick=0, channel=0, data=[40, 0]),
   midi.NoteOnEvent(tick=12, channel=0, data=[47, 44]),
   midi.NoteOnEvent(tick=0, channel=0, data=[40, 37]),
   midi.NoteOnEvent(tick=228, channel=0, data=[40, 0]),
   midi.NoteOnEvent(tick=0, channel=0, data=[47, 0]),
   midi.NoteOnEvent(tick=12, channel=0, data=[40, 37]),
   midi.NoteOnEvent(tick=0, channel=0, data=[47, 44]),
   midi.NoteOnEvent(tick=228, channel=0, data=[47, 0]),
   midi.NoteOnEvent(tick=0, channel=0, data=[40, 0]),
   midi.NoteOnEvent(tick=12, channel=0, data=[40, 37]),
   midi.NoteOnEvent(tick=0, channel=0, data=[47, 44]),
   midi.NoteOnEvent(tick=228, channel=0, data=[47, 0]),
   midi.NoteOnEvent(tick=0, channel=0, data=[40, 0]),
   midi.NoteOnEvent(tick=12, channel=0, data=[40, 37]),
   midi.NoteOnEvent(tick=0, channel=0, data=[47, 44]),
   midi.NoteOnEvent(tick=228, channel=0, data=[47, 0]),
   midi.NoteOnEvent(tick=0, channel=0, data=[40, 0]),
   midi.NoteOnEvent(tick=12, channel=0, data=[35, 44]),
   midi.NoteOnEvent(tick=34, channel=0, data=[40, 37]),
   midi.NoteOnEvent(tick=0, channel=0, data=[47, 44]),
   midi.NoteOnEvent(tick=240, channel=0, data=[47, 0]),
   midi.NoteOnEvent(tick=0, channel=0, data=[40, 0]),
   midi.NoteOnEvent(tick=0, channel=0, data=[35, 0]),
   midi.NoteOnEvent(tick=0, channel=0, data=[40, 44]),
   midi.NoteOnEvent(tick=240, channel=0, data=[52, 44]),
   midi.NoteOnEvent(tick=0, channel=0, data=[47, 44]),
   midi.NoteOnEvent(tick=240, channel=0, data=[47, 0]),
   midi.NoteOnEvent(tick=0, channel=0, data=[52, 0]),
   midi.NoteOnEvent(tick=0, channel=0, data=[40, 0]),
   midi.NoteOnEvent(tick=0, channel=0, data=[39, 61]),
   midi.NoteOnEvent(tick=70, channel=0, data=[51, 45]),
   midi.NoteOnEvent(tick=0, channel=0, data=[47, 39]),
   midi.NoteOnEvent(tick=228, channel=0, data=[47, 0]),
   midi.NoteOnEvent(tick=0, channel=0, data=[51, 0]),
   midi.NoteOnEvent(tick=12, channel=0, data=[47, 39]),
   midi.NoteOnEvent(tick=0, channel=0, data=[51, 45]),
   midi.NoteOnEvent(tick=228, channel=0, data=[51, 0]),
   midi.NoteOnEvent(tick=0, channel=0, data=[47, 0]),
   midi.NoteOnEvent(tick=12, channel=0, data=[47, 39]),
   midi.NoteOnEvent(tick=0, channel=0, data=[51, 46]),
   midi.NoteOnEvent(tick=228, channel=0, data=[51, 0]),
   midi.NoteOnEvent(tick=0, channel=0, data=[47, 0]),
   midi.NoteOnEvent(tick=12, channel=0, data=[47, 39]),
   midi.NoteOnEvent(tick=0, channel=0, data=[51, 46]),
   midi.NoteOnEvent(tick=228, channel=0, data=[51, 0]),
   midi.NoteOnEvent(tick=0, channel=0, data=[47, 0]),
   midi.NoteOnEvent(tick=12, channel=0, data=[47, 39]),
   midi.NoteOnEvent(tick=0, channel=0, data=[51, 46]),
   midi.NoteOnEvent(tick=240, channel=0, data=[51, 0]),
   midi.NoteOnEvent(tick=0, channel=0, data=[47, 0]),
   midi.NoteOnEvent(tick=0, channel=0, data=[39, 0]),
   midi.NoteOnEvent(tick=0, channel=0, data=[39, 61]),
   midi.NoteOnEvent(tick=124, channel=0, data=[49, 39]),
   midi.NoteOnEvent(tick=0, channel=0, data=[51, 46]),
   midi.NoteOnEvent(tick=0, channel=0, data=[46, 39]),
   midi.NoteOnEvent(tick=228, channel=0, data=[46, 0]),
   midi.NoteOnEvent(tick=0, channel=0, data=[51, 0]),
   midi.NoteOnEvent(tick=0, channel=0, data=[49, 0]),
   midi.NoteOnEvent(tick=12, channel=0, data=[51, 46]),
   midi.NoteOnEvent(tick=0, channel=0, data=[49, 39]),
   midi.NoteOnEvent(tick=0, channel=0, data=[46, 39]),
   midi.NoteOnEvent(tick=112, channel=0, data=[46, 0]),
   midi.NoteOnEvent(tick=0, channel=0, data=[49, 0]),
   midi.NoteOnEvent(tick=0, channel=0, data=[51, 0]),
   midi.NoteOnEvent(tick=12, channel=0, data=[51, 46]),
   midi.NoteOnEvent(tick=0, channel=0, data=[49, 39]),
   midi.NoteOnEvent(tick=0, channel=0, data=[46, 39]),
   midi.NoteOnEvent(tick=228, channel=0, data=[46, 0]),
   midi.NoteOnEvent(tick=0, channel=0, data=[49, 0]),
   midi.NoteOnEvent(tick=0, channel=0, data=[51, 0]),
   midi.NoteOnEvent(tick=12, channel=0, data=[51, 45]),
   midi.NoteOnEvent(tick=0, channel=0, data=[49, 39]),
   midi.NoteOnEvent(tick=0, channel=0, data=[46, 39]),
   midi.NoteOnEvent(tick=228, channel=0, data=[46, 0]),
   midi.NoteOnEvent(tick=0, channel=0, data=[49, 0]),
   midi.NoteOnEvent(tick=0, channel=0, data=[51, 0]),
   midi.NoteOnEvent(tick=12, channel=0, data=[51, 45]),
   midi.NoteOnEvent(tick=0, channel=0, data=[49, 39]),
   midi.NoteOnEvent(tick=0, channel=0, data=[46, 39]),
   midi.NoteOnEvent(tick=228, channel=0, data=[46, 0]),
   midi.NoteOnEvent(tick=0, channel=0, data=[49, 0]),
   midi.NoteOnEvent(tick=0, channel=0, data=[51, 0]),
   midi.NoteOnEvent(tick=12, channel=0, data=[39, 0]),
   midi.NoteOnEvent(tick=0, channel=0, data=[44, 52]),
   midi.NoteOnEvent(tick=14, channel=0, data=[56, 26]),
   midi.NoteOnEvent(tick=0, channel=0, data=[51, 22]),
   midi.NoteOnEvent(tick=228, channel=0, data=[51, 0]),
   midi.NoteOnEvent(tick=0, channel=0, data=[56, 0]),
   midi.NoteOnEvent(tick=12, channel=0, data=[56, 26]),
   midi.NoteOnEvent(tick=0, channel=0, data=[51, 22]),
   midi.NoteOnEvent(tick=228, channel=0, data=[51, 0]),
   midi.NoteOnEvent(tick=0, channel=0, data=[56, 0]),
   midi.NoteOnEvent(tick=12, channel=0, data=[56, 26]),
   midi.NoteOnEvent(tick=0, channel=0, data=[51, 22]),
   midi.NoteOnEvent(tick=228, channel=0, data=[51, 0]),
   midi.NoteOnEvent(tick=0, channel=0, data=[56, 0]),
   midi.NoteOnEvent(tick=12, channel=0, data=[56, 26]),
   midi.NoteOnEvent(tick=0, channel=0, data=[51, 22]),
   midi.NoteOnEvent(tick=228, channel=0, data=[51, 0]),
   midi.NoteOnEvent(tick=0, channel=0, data=[56, 0]),
   midi.NoteOnEvent(tick=12, channel=0, data=[56, 26]),
   midi.NoteOnEvent(tick=0, channel=0, data=[51, 22]),
   midi.NoteOnEvent(tick=228, channel=0, data=[51, 0]),
   midi.NoteOnEvent(tick=0, channel=0, data=[56, 0]),
   midi.NoteOnEvent(tick=12, channel=0, data=[51, 22]),
   midi.NoteOnEvent(tick=0, channel=0, data=[56, 26]),
   midi.NoteOnEvent(tick=228, channel=0, data=[56, 0]),
   midi.NoteOnEvent(tick=0, channel=0, data=[51, 0]),
   midi.NoteOnEvent(tick=12, channel=0, data=[51, 22]),
   midi.NoteOnEvent(tick=0, channel=0, data=[56, 26]),
   midi.NoteOnEvent(tick=228, channel=0, data=[56, 0]),
   midi.NoteOnEvent(tick=0, channel=0, data=[51, 0]),
   midi.NoteOnEvent(tick=12, channel=0, data=[44, 0]),
   midi.NoteOnEvent(tick=0, channel=0, data=[44, 26]),
   midi.NoteOnEvent(tick=240, channel=0, data=[51, 22]),
   midi.NoteOnEvent(tick=0, channel=0, data=[56, 26]),
   midi.NoteOnEvent(tick=240, channel=0, data=[56, 0]),
   midi.NoteOnEvent(tick=0, channel=0, data=[51, 0]),
   midi.NoteOnEvent(tick=0, channel=0, data=[44, 0]),
   midi.NoteOnEvent(tick=0, channel=0, data=[44, 26]),
   midi.NoteOnEvent(tick=240, channel=0, data=[51, 22]),
   midi.NoteOnEvent(tick=0, channel=0, data=[56, 26]),
   midi.NoteOnEvent(tick=240, channel=0, data=[56, 0]),
   midi.NoteOnEvent(tick=0, channel=0, data=[51, 0]),
   midi.NoteOnEvent(tick=0, channel=0, data=[44, 0]),
   midi.NoteOnEvent(tick=0, channel=0, data=[32, 26]),
   midi.NoteOnEvent(tick=79, channel=0, data=[32, 0]),
   midi.NoteOnEvent(tick=12, channel=0, data=[54, 26]),
   midi.NoteOnEvent(tick=0, channel=0, data=[51, 22]),
   midi.NoteOnEvent(tick=0, channel=0, data=[44, 22]),
   midi.NoteOnEvent(tick=228, channel=0, data=[44, 0]),
   midi.NoteOnEvent(tick=0, channel=0, data=[51, 0]),
   midi.NoteOnEvent(tick=0, channel=0, data=[54, 0]),
   midi.NoteOnEvent(tick=12, channel=0, data=[54, 26]),
   midi.NoteOnEvent(tick=0, channel=0, data=[51, 22]),
   midi.NoteOnEvent(tick=0, channel=0, data=[44, 22]),
   midi.NoteOnEvent(tick=79, channel=0, data=[44, 0]),
   midi.NoteOnEvent(tick=0, channel=0, data=[51, 0]),
   midi.NoteOnEvent(tick=0, channel=0, data=[54, 0]),
   midi.NoteOnEvent(tick=12, channel=0, data=[54, 26]),
   midi.NoteOnEvent(tick=0, channel=0, data=[51, 22]),
   midi.NoteOnEvent(tick=0, channel=0, data=[44, 22]),
   midi.NoteOnEvent(tick=228, channel=0, data=[44, 0]),
   midi.NoteOnEvent(tick=0, channel=0, data=[51, 0]),
   midi.NoteOnEvent(tick=0, channel=0, data=[54, 0]),
   midi.NoteOnEvent(tick=12, channel=0, data=[44, 22]),
   midi.NoteOnEvent(tick=0, channel=0, data=[51, 22]),
   midi.NoteOnEvent(tick=0, channel=0, data=[54, 26]),
   midi.NoteOnEvent(tick=228, channel=0, data=[54, 0]),
   midi.NoteOnEvent(tick=0, channel=0, data=[51, 0]),
   midi.NoteOnEvent(tick=0, channel=0, data=[44, 0]),
   midi.NoteOnEvent(tick=12, channel=0, data=[51, 22]),
   midi.NoteOnEvent(tick=0, channel=0, data=[44, 22]),
   midi.NoteOnEvent(tick=0, channel=0, data=[54, 26]),
   midi.NoteOnEvent(tick=228, channel=0, data=[54, 0]),
   midi.NoteOnEvent(tick=0, channel=0, data=[44, 0]),
   midi.NoteOnEvent(tick=0, channel=0, data=[51, 0]),
   midi.NoteOnEvent(tick=12, channel=0, data=[44, 22]),
   midi.NoteOnEvent(tick=0, channel=0, data=[51, 22]),
   midi.NoteOnEvent(tick=0, channel=0, data=[54, 26]),
   midi.NoteOnEvent(tick=228, channel=0, data=[54, 0]),
   midi.NoteOnEvent(tick=0, channel=0, data=[51, 0]),
   midi.NoteOnEvent(tick=0, channel=0, data=[44, 0]),
   midi.NoteOnEvent(tick=12, channel=0, data=[54, 26]),
   midi.NoteOnEvent(tick=0, channel=0, data=[51, 22]),
   midi.NoteOnEvent(tick=0, channel=0, data=[44, 22]),
   midi.NoteOnEvent(tick=228, channel=0, data=[44, 0]),
   midi.NoteOnEvent(tick=0, channel=0, data=[51, 0]),
   midi.NoteOnEvent(tick=0, channel=0, data=[54, 0]),
   midi.NoteOnEvent(tick=12, channel=0, data=[54, 26]),
   midi.NoteOnEvent(tick=0, channel=0, data=[51, 22]),
   midi.NoteOnEvent(tick=0, channel=0, data=[44, 22]),
   midi.NoteOnEvent(tick=228, channel=0, data=[44, 0]),
   midi.NoteOnEvent(tick=0, channel=0, data=[51, 0]),
   midi.NoteOnEvent(tick=0, channel=0, data=[54, 0]),
   midi.NoteOnEvent(tick=12, channel=0, data=[54, 26]),
   midi.NoteOnEvent(tick=0, channel=0, data=[51, 22]),
   midi.NoteOnEvent(tick=0, channel=0, data=[44, 22]),
   midi.NoteOnEvent(tick=228, channel=0, data=[44, 0]),
   midi.NoteOnEvent(tick=0, channel=0, data=[51, 0]),
   midi.NoteOnEvent(tick=0, channel=0, data=[54, 0]),
   midi.NoteOnEvent(tick=12, channel=0, data=[44, 22]),
   midi.NoteOnEvent(tick=0, channel=0, data=[51, 22]),
   midi.NoteOnEvent(tick=0, channel=0, data=[54, 26]),
   midi.NoteOnEvent(tick=228, channel=0, data=[54, 0]),
   midi.NoteOnEvent(tick=0, channel=0, data=[51, 0]),
   midi.NoteOnEvent(tick=0, channel=0, data=[44, 0]),
   midi.NoteOnEvent(tick=12, channel=0, data=[51, 22]),
   midi.NoteOnEvent(tick=0, channel=0, data=[44, 22]),
   midi.NoteOnEvent(tick=0, channel=0, data=[54, 26]),
   midi.NoteOnEvent(tick=228, channel=0, data=[54, 0]),
   midi.NoteOnEvent(tick=0, channel=0, data=[44, 0]),
   midi.NoteOnEvent(tick=0, channel=0, data=[51, 0]),
   midi.NoteOnEvent(tick=12, channel=0, data=[32, 26]),
   midi.NoteOnEvent(tick=225, channel=0, data=[32, 0]),
   midi.NoteOnEvent(tick=12, channel=0, data=[52, 26]),
   midi.NoteOnEvent(tick=0, channel=0, data=[49, 22]),
   midi.NoteOnEvent(tick=0, channel=0, data=[44, 22]),
   midi.NoteOnEvent(tick=214, channel=0, data=[44, 0]),
   midi.NoteOnEvent(tick=0, channel=0, data=[49, 0]),
   midi.NoteOnEvent(tick=0, channel=0, data=[52, 0]),
   midi.NoteOnEvent(tick=12, channel=0, data=[44, 24]),
   midi.NoteOnEvent(tick=0, channel=0, data=[49, 24]),
   midi.NoteOnEvent(tick=0, channel=0, data=[52, 28]),
   midi.NoteOnEvent(tick=228, channel=0, data=[52, 0]),
   midi.NoteOnEvent(tick=0, channel=0, data=[49, 0]),
   midi.NoteOnEvent(tick=0, channel=0, data=[44, 0]),
   midi.NoteOnEvent(tick=12, channel=0, data=[44, 24]),
   midi.NoteOnEvent(tick=0, channel=0, data=[49, 24]),
   midi.NoteOnEvent(tick=0, channel=0, data=[52, 29]),
   midi.NoteOnEvent(tick=228, channel=0, data=[52, 0]),
   midi.NoteOnEvent(tick=0, channel=0, data=[49, 0]),
   midi.NoteOnEvent(tick=0, channel=0, data=[44, 0]),
   midi.NoteOnEvent(tick=12, channel=0, data=[44, 26]),
   midi.NoteOnEvent(tick=0, channel=0, data=[49, 26]),
   midi.NoteOnEvent(tick=0, channel=0, data=[52, 30]),
   midi.NoteOnEvent(tick=228, channel=0, data=[52, 0]),
   midi.NoteOnEvent(tick=0, channel=0, data=[49, 0]),
   midi.NoteOnEvent(tick=0, channel=0, data=[44, 0]),
   midi.NoteOnEvent(tick=12, channel=0, data=[52, 31]),
   midi.NoteOnEvent(tick=0, channel=0, data=[44, 26]),
   midi.NoteOnEvent(tick=0, channel=0, data=[49, 26]),
   midi.NoteOnEvent(tick=228, channel=0, data=[49, 0]),
   midi.NoteOnEvent(tick=0, channel=0, data=[44, 0]),
   midi.NoteOnEvent(tick=0, channel=0, data=[52, 0]),
   midi.NoteOnEvent(tick=12, channel=0, data=[44, 28]),
   midi.NoteOnEvent(tick=0, channel=0, data=[49, 28]),
   midi.NoteOnEvent(tick=0, channel=0, data=[52, 34]),
   midi.NoteOnEvent(tick=228, channel=0, data=[52, 0]),
   midi.NoteOnEvent(tick=0, channel=0, data=[49, 0]),
   midi.NoteOnEvent(tick=0, channel=0, data=[44, 0]),
   midi.NoteOnEvent(tick=12, channel=0, data=[49, 29]),
   midi.NoteOnEvent(tick=0, channel=0, data=[44, 29]),
   midi.NoteOnEvent(tick=0, channel=0, data=[52, 35]),
   midi.NoteOnEvent(tick=228, channel=0, data=[52, 0]),
   midi.NoteOnEvent(tick=0, channel=0, data=[44, 0]),
   midi.NoteOnEvent(tick=0, channel=0, data=[49, 0]),
   midi.NoteOnEvent(tick=12, channel=0, data=[44, 30]),
   midi.NoteOnEvent(tick=0, channel=0, data=[49, 30]),
   midi.NoteOnEvent(tick=0, channel=0, data=[52, 36]),
   midi.NoteOnEvent(tick=228, channel=0, data=[52, 0]),
   midi.NoteOnEvent(tick=0, channel=0, data=[49, 0]),
   midi.NoteOnEvent(tick=0, channel=0, data=[44, 0]),
   midi.NoteOnEvent(tick=12, channel=0, data=[52, 37]),
   midi.NoteOnEvent(tick=0, channel=0, data=[44, 30]),
   midi.NoteOnEvent(tick=0, channel=0, data=[49, 30]),
   midi.NoteOnEvent(tick=228, channel=0, data=[49, 0]),
   midi.NoteOnEvent(tick=0, channel=0, data=[44, 0]),
   midi.NoteOnEvent(tick=0, channel=0, data=[52, 0]),
   midi.NoteOnEvent(tick=12, channel=0, data=[44, 33]),
   midi.NoteOnEvent(tick=0, channel=0, data=[49, 33]),
   midi.NoteOnEvent(tick=0, channel=0, data=[52, 39]),
   midi.NoteOnEvent(tick=228, channel=0, data=[52, 0]),
   midi.NoteOnEvent(tick=0, channel=0, data=[49, 0]),
   midi.NoteOnEvent(tick=0, channel=0, data=[44, 0]),
   midi.NoteOnEvent(tick=12, channel=0, data=[52, 39]),
   midi.NoteOnEvent(tick=0, channel=0, data=[44, 34]),
   midi.NoteOnEvent(tick=0, channel=0, data=[49, 34]),
   midi.NoteOnEvent(tick=228, channel=0, data=[49, 0]),
   midi.NoteOnEvent(tick=0, channel=0, data=[44, 0]),
   midi.NoteOnEvent(tick=0, channel=0, data=[52, 0]),
   midi.NoteOnEvent(tick=12, channel=0, data=[33, 47]),
   midi.NoteOnEvent(tick=68, channel=0, data=[33, 0]),
   midi.NoteOnEvent(tick=12, channel=0, data=[52, 42]),
   midi.NoteOnEvent(tick=0, channel=0, data=[49, 35]),
   midi.NoteOnEvent(tick=0, channel=0, data=[45, 35]),
   midi.NoteOnEvent(tick=228, channel=0, data=[45, 0]),
   midi.NoteOnEvent(tick=0, channel=0, data=[49, 0]),
   midi.NoteOnEvent(tick=0, channel=0, data=[52, 0]),
   midi.NoteOnEvent(tick=12, channel=0, data=[45, 38]),
   midi.NoteOnEvent(tick=0, channel=0, data=[49, 38]),
   midi.NoteOnEvent(tick=0, channel=0, data=[52, 45]),
   midi.NoteOnEvent(tick=22, channel=0, data=[52, 0]),
   midi.NoteOnEvent(tick=0, channel=0, data=[49, 0]),
   midi.NoteOnEvent(tick=0, channel=0, data=[45, 0]),
   midi.NoteOnEvent(tick=12, channel=0, data=[52, 44]),
   midi.NoteOnEvent(tick=0, channel=0, data=[45, 36]),
   midi.NoteOnEvent(tick=0, channel=0, data=[49, 36]),
   midi.NoteOnEvent(tick=228, channel=0, data=[49, 0]),
   midi.NoteOnEvent(tick=0, channel=0, data=[45, 0]),
   midi.NoteOnEvent(tick=0, channel=0, data=[52, 0]),
   midi.NoteOnEvent(tick=12, channel=0, data=[52, 40]),
   midi.NoteOnEvent(tick=0, channel=0, data=[45, 34]),
   midi.NoteOnEvent(tick=0, channel=0, data=[49, 34]),
   midi.NoteOnEvent(tick=228, channel=0, data=[49, 0]),
   midi.NoteOnEvent(tick=0, channel=0, data=[45, 0]),
   midi.NoteOnEvent(tick=0, channel=0, data=[52, 0]),
   midi.NoteOnEvent(tick=12, channel=0, data=[52, 39]),
   midi.NoteOnEvent(tick=0, channel=0, data=[45, 33]),
   midi.NoteOnEvent(tick=0, channel=0, data=[49, 33]),
   midi.NoteOnEvent(tick=228, channel=0, data=[49, 0]),
   midi.NoteOnEvent(tick=0, channel=0, data=[45, 0]),
   midi.NoteOnEvent(tick=0, channel=0, data=[52, 0]),
   midi.NoteOnEvent(tick=12, channel=0, data=[52, 37]),
   midi.NoteOnEvent(tick=0, channel=0, data=[45, 30]),
   midi.NoteOnEvent(tick=0, channel=0, data=[49, 30]),
   midi.NoteOnEvent(tick=228, channel=0, data=[49, 0]),
   midi.NoteOnEvent(tick=0, channel=0, data=[45, 0]),
   midi.NoteOnEvent(tick=0, channel=0, data=[52, 0]),
   midi.NoteOnEvent(tick=12, channel=0, data=[45, 29]),
   midi.NoteOnEvent(tick=0, channel=0, data=[49, 29]),
   midi.NoteOnEvent(tick=0, channel=0, data=[52, 35]),
   midi.NoteOnEvent(tick=228, channel=0, data=[52, 0]),
   midi.NoteOnEvent(tick=0, channel=0, data=[49, 0]),
   midi.NoteOnEvent(tick=0, channel=0, data=[45, 0]),
   midi.NoteOnEvent(tick=12, channel=0, data=[51, 34]),
   midi.NoteOnEvent(tick=0, channel=0, data=[45, 28]),
   midi.NoteOnEvent(tick=87, channel=0, data=[45, 0]),
   midi.NoteOnEvent(tick=0, channel=0, data=[51, 0]),
   midi.NoteOnEvent(tick=12, channel=0, data=[51, 31]),
   midi.NoteOnEvent(tick=0, channel=0, data=[45, 26]),
   midi.NoteOnEvent(tick=228, channel=0, data=[45, 0]),
   midi.NoteOnEvent(tick=0, channel=0, data=[51, 0]),
   midi.NoteOnEvent(tick=12, channel=0, data=[51, 30]),
   midi.NoteOnEvent(tick=0, channel=0, data=[45, 25]),
   midi.NoteOnEvent(tick=228, channel=0, data=[45, 0]),
   midi.NoteOnEvent(tick=0, channel=0, data=[51, 0]),
   midi.NoteOnEvent(tick=12, channel=0, data=[51, 28]),
   midi.NoteOnEvent(tick=0, channel=0, data=[45, 24]),
   midi.NoteOnEvent(tick=228, channel=0, data=[45, 0]),
   midi.NoteOnEvent(tick=0, channel=0, data=[51, 0]),
   midi.NoteOnEvent(tick=12, channel=0, data=[32, 26]),
   midi.NoteOnEvent(tick=222, channel=0, data=[32, 0]),
   midi.NoteOnEvent(tick=0, channel=0, data=[44, 26]),
   midi.NoteOnEvent(tick=228, channel=0, data=[44, 0]),
   midi.NoteOnEvent(tick=12, channel=0, data=[48, 22]),
   midi.NoteOnEvent(tick=0, channel=0, data=[51, 26]),
   midi.NoteOnEvent(tick=0, channel=0, data=[44, 22]),
   midi.NoteOnEvent(tick=228, channel=0, data=[44, 0]),
   midi.NoteOnEvent(tick=0, channel=0, data=[51, 0]),
   midi.NoteOnEvent(tick=0, channel=0, data=[48, 0]),
   midi.NoteOnEvent(tick=12, channel=0, data=[48, 22]),
   midi.NoteOnEvent(tick=0, channel=0, data=[51, 26]),
   midi.NoteOnEvent(tick=0, channel=0, data=[44, 22]),
   midi.NoteOnEvent(tick=228, channel=0, data=[44, 0]),
   midi.NoteOnEvent(tick=0, channel=0, data=[51, 0]),
   midi.NoteOnEvent(tick=0, channel=0, data=[48, 0]),
   midi.NoteOnEvent(tick=12, channel=0, data=[48, 22]),
   midi.NoteOnEvent(tick=0, channel=0, data=[51, 26]),
   midi.NoteOnEvent(tick=0, channel=0, data=[44, 22]),
   midi.NoteOnEvent(tick=228, channel=0, data=[44, 0]),
   midi.NoteOnEvent(tick=0, channel=0, data=[51, 0]),
   midi.NoteOnEvent(tick=0, channel=0, data=[48, 0]),
   midi.NoteOnEvent(tick=12, channel=0, data=[48, 22]),
   midi.NoteOnEvent(tick=0, channel=0, data=[51, 26]),
   midi.NoteOnEvent(tick=0, channel=0, data=[44, 22]),
   midi.NoteOnEvent(tick=228, channel=0, data=[44, 0]),
   midi.NoteOnEvent(tick=0, channel=0, data=[51, 0]),
   midi.NoteOnEvent(tick=0, channel=0, data=[48, 0]),
   midi.NoteOnEvent(tick=12, channel=0, data=[48, 22]),
   midi.NoteOnEvent(tick=0, channel=0, data=[51, 26]),
   midi.NoteOnEvent(tick=0, channel=0, data=[44, 22]),
   midi.NoteOnEvent(tick=228, channel=0, data=[44, 0]),
   midi.NoteOnEvent(tick=0, channel=0, data=[51, 0]),
   midi.NoteOnEvent(tick=0, channel=0, data=[48, 0]),
   midi.NoteOnEvent(tick=12, channel=0, data=[48, 22]),
   midi.NoteOnEvent(tick=0, channel=0, data=[51, 26]),
   midi.NoteOnEvent(tick=0, channel=0, data=[44, 22]),
   midi.NoteOnEvent(tick=228, channel=0, data=[44, 0]),
   midi.NoteOnEvent(tick=0, channel=0, data=[51, 0]),
   midi.NoteOnEvent(tick=0, channel=0, data=[48, 0]),
   midi.NoteOnEvent(tick=12, channel=0, data=[48, 22]),
   midi.NoteOnEvent(tick=0, channel=0, data=[51, 26]),
   midi.NoteOnEvent(tick=0, channel=0, data=[44, 22]),
   midi.NoteOnEvent(tick=228, channel=0, data=[44, 0]),
   midi.NoteOnEvent(tick=0, channel=0, data=[51, 0]),
   midi.NoteOnEvent(tick=0, channel=0, data=[48, 0]),
   midi.NoteOnEvent(tick=12, channel=0, data=[48, 22]),
   midi.NoteOnEvent(tick=0, channel=0, data=[51, 26]),
   midi.NoteOnEvent(tick=0, channel=0, data=[44, 22]),
   midi.NoteOnEvent(tick=228, channel=0, data=[44, 0]),
   midi.NoteOnEvent(tick=0, channel=0, data=[51, 0]),
   midi.NoteOnEvent(tick=0, channel=0, data=[48, 0]),
   midi.NoteOnEvent(tick=12, channel=0, data=[48, 22]),
   midi.NoteOnEvent(tick=0, channel=0, data=[51, 26]),
   midi.NoteOnEvent(tick=0, channel=0, data=[44, 22]),
   midi.NoteOnEvent(tick=228, channel=0, data=[44, 0]),
   midi.NoteOnEvent(tick=0, channel=0, data=[51, 0]),
   midi.NoteOnEvent(tick=0, channel=0, data=[48, 0]),
   midi.NoteOnEvent(tick=12, channel=0, data=[48, 22]),
   midi.NoteOnEvent(tick=0, channel=0, data=[51, 26]),
   midi.NoteOnEvent(tick=0, channel=0, data=[44, 22]),
   midi.NoteOnEvent(tick=228, channel=0, data=[44, 0]),
   midi.NoteOnEvent(tick=0, channel=0, data=[51, 0]),
   midi.NoteOnEvent(tick=0, channel=0, data=[48, 0]),
   midi.NoteOnEvent(tick=12, channel=0, data=[32, 26]),
   midi.NoteOnEvent(tick=91, channel=0, data=[32, 0]),
   midi.NoteOnEvent(tick=12, channel=0, data=[54, 26]),
   midi.NoteOnEvent(tick=0, channel=0, data=[51, 22]),
   midi.NoteOnEvent(tick=0, channel=0, data=[44, 22]),
   midi.NoteOnEvent(tick=228, channel=0, data=[44, 0]),
   midi.NoteOnEvent(tick=0, channel=0, data=[51, 0]),
   midi.NoteOnEvent(tick=0, channel=0, data=[54, 0]),
   midi.NoteOnEvent(tick=12, channel=0, data=[54, 26]),
   midi.NoteOnEvent(tick=0, channel=0, data=[51, 22]),
   midi.NoteOnEvent(tick=0, channel=0, data=[44, 22]),
   midi.NoteOnEvent(tick=11, channel=0, data=[44, 0]),
   midi.NoteOnEvent(tick=0, channel=0, data=[51, 0]),
   midi.NoteOnEvent(tick=0, channel=0, data=[54, 0]),
   midi.NoteOnEvent(tick=12, channel=0, data=[54, 26]),
   midi.NoteOnEvent(tick=0, channel=0, data=[51, 22]),
   midi.NoteOnEvent(tick=0, channel=0, data=[44, 22]),
   midi.NoteOnEvent(tick=228, channel=0, data=[44, 0]),
   midi.NoteOnEvent(tick=0, channel=0, data=[51, 0]),
   midi.NoteOnEvent(tick=0, channel=0, data=[54, 0]),
   midi.NoteOnEvent(tick=12, channel=0, data=[44, 22]),
   midi.NoteOnEvent(tick=0, channel=0, data=[51, 22]),
   midi.NoteOnEvent(tick=0, channel=0, data=[54, 26]),
   midi.NoteOnEvent(tick=228, channel=0, data=[54, 0]),
   midi.NoteOnEvent(tick=0, channel=0, data=[51, 0]),
   midi.NoteOnEvent(tick=0, channel=0, data=[44, 0]),
   midi.NoteOnEvent(tick=12, channel=0, data=[51, 22]),
   midi.NoteOnEvent(tick=0, channel=0, data=[44, 22]),
   midi.NoteOnEvent(tick=0, channel=0, data=[54, 26]),
   midi.NoteOnEvent(tick=228, channel=0, data=[54, 0]),
   midi.NoteOnEvent(tick=0, channel=0, data=[44, 0]),
   midi.NoteOnEvent(tick=0, channel=0, data=[51, 0]),
   midi.NoteOnEvent(tick=12, channel=0, data=[44, 22]),
   midi.NoteOnEvent(tick=0, channel=0, data=[51, 22]),
   midi.NoteOnEvent(tick=0, channel=0, data=[54, 26]),
   midi.NoteOnEvent(tick=228, channel=0, data=[54, 0]),
   midi.NoteOnEvent(tick=0, channel=0, data=[51, 0]),
   midi.NoteOnEvent(tick=0, channel=0, data=[44, 0]),
   midi.NoteOnEvent(tick=12, channel=0, data=[54, 26]),
   midi.NoteOnEvent(tick=0, channel=0, data=[51, 22]),
   midi.NoteOnEvent(tick=0, channel=0, data=[44, 22]),
   midi.NoteOnEvent(tick=228, channel=0, data=[44, 0]),
   midi.NoteOnEvent(tick=0, channel=0, data=[51, 0]),
   midi.NoteOnEvent(tick=0, channel=0, data=[54, 0]),
   midi.NoteOnEvent(tick=12, channel=0, data=[54, 26]),
   midi.NoteOnEvent(tick=0, channel=0, data=[51, 22]),
   midi.NoteOnEvent(tick=0, channel=0, data=[44, 22]),
   midi.NoteOnEvent(tick=45, channel=0, data=[44, 0]),
   midi.NoteOnEvent(tick=0, channel=0, data=[51, 0]),
   midi.NoteOnEvent(tick=0, channel=0, data=[54, 0]),
   midi.NoteOnEvent(tick=12, channel=0, data=[54, 26]),
   midi.NoteOnEvent(tick=0, channel=0, data=[51, 22]),
   midi.NoteOnEvent(tick=0, channel=0, data=[44, 22]),
   midi.NoteOnEvent(tick=228, channel=0, data=[44, 0]),
   midi.NoteOnEvent(tick=0, channel=0, data=[51, 0]),
   midi.NoteOnEvent(tick=0, channel=0, data=[54, 0]),
   midi.NoteOnEvent(tick=12, channel=0, data=[44, 22]),
   midi.NoteOnEvent(tick=0, channel=0, data=[51, 22]),
   midi.NoteOnEvent(tick=0, channel=0, data=[54, 26]),
   midi.NoteOnEvent(tick=228, channel=0, data=[54, 0]),
   midi.NoteOnEvent(tick=0, channel=0, data=[51, 0]),
   midi.NoteOnEvent(tick=0, channel=0, data=[44, 0]),
   midi.NoteOnEvent(tick=12, channel=0, data=[51, 22]),
   midi.NoteOnEvent(tick=0, channel=0, data=[44, 22]),
   midi.NoteOnEvent(tick=0, channel=0, data=[54, 26]),
   midi.NoteOnEvent(tick=228, channel=0, data=[54, 0]),
   midi.NoteOnEvent(tick=0, channel=0, data=[44, 0]),
   midi.NoteOnEvent(tick=0, channel=0, data=[51, 0]),
   midi.NoteOnEvent(tick=12, channel=0, data=[32, 26]),
   midi.NoteOnEvent(tick=225, channel=0, data=[32, 0]),
   midi.NoteOnEvent(tick=12, channel=0, data=[52, 26]),
   midi.NoteOnEvent(tick=0, channel=0, data=[49, 22]),
   midi.NoteOnEvent(tick=0, channel=0, data=[44, 22]),
   midi.NoteOnEvent(tick=171, channel=0, data=[44, 0]),
   midi.NoteOnEvent(tick=0, channel=0, data=[49, 0]),
   midi.NoteOnEvent(tick=0, channel=0, data=[52, 0]),
   midi.NoteOnEvent(tick=12, channel=0, data=[44, 22]),
   midi.NoteOnEvent(tick=0, channel=0, data=[49, 22]),
   midi.NoteOnEvent(tick=0, channel=0, data=[52, 26]),
   midi.NoteOnEvent(tick=228, channel=0, data=[52, 0]),
   midi.NoteOnEvent(tick=0, channel=0, data=[49, 0]),
   midi.NoteOnEvent(tick=0, channel=0, data=[44, 0]),
   midi.NoteOnEvent(tick=12, channel=0, data=[44, 22]),
   midi.NoteOnEvent(tick=0, channel=0, data=[49, 22]),
   midi.NoteOnEvent(tick=0, channel=0, data=[52, 26]),
   midi.NoteOnEvent(tick=228, channel=0, data=[52, 0]),
   midi.NoteOnEvent(tick=0, channel=0, data=[49, 0]),
   midi.NoteOnEvent(tick=0, channel=0, data=[44, 0]),
   midi.NoteOnEvent(tick=12, channel=0, data=[44, 22]),
   midi.NoteOnEvent(tick=0, channel=0, data=[49, 22]),
   midi.NoteOnEvent(tick=0, channel=0, data=[52, 26]),
   midi.NoteOnEvent(tick=228, channel=0, data=[52, 0]),
   midi.NoteOnEvent(tick=0, channel=0, data=[49, 0]),
   midi.NoteOnEvent(tick=0, channel=0, data=[44, 0]),
   midi.NoteOnEvent(tick=12, channel=0, data=[44, 22]),
   midi.NoteOnEvent(tick=0, channel=0, data=[49, 22]),
   midi.NoteOnEvent(tick=0, channel=0, data=[52, 26]),
   midi.NoteOnEvent(tick=228, channel=0, data=[52, 0]),
   midi.NoteOnEvent(tick=0, channel=0, data=[49, 0]),
   midi.NoteOnEvent(tick=0, channel=0, data=[44, 0]),
   midi.NoteOnEvent(tick=12, channel=0, data=[44, 22]),
   midi.NoteOnEvent(tick=0, channel=0, data=[49, 22]),
   midi.NoteOnEvent(tick=0, channel=0, data=[52, 26]),
   midi.NoteOnEvent(tick=228, channel=0, data=[52, 0]),
   midi.NoteOnEvent(tick=0, channel=0, data=[49, 0]),
   midi.NoteOnEvent(tick=0, channel=0, data=[44, 0]),
   midi.NoteOnEvent(tick=12, channel=0, data=[49, 24]),
   midi.NoteOnEvent(tick=0, channel=0, data=[44, 24]),
   midi.NoteOnEvent(tick=0, channel=0, data=[52, 28]),
   midi.NoteOnEvent(tick=228, channel=0, data=[52, 0]),
   midi.NoteOnEvent(tick=0, channel=0, data=[44, 0]),
   midi.NoteOnEvent(tick=0, channel=0, data=[49, 0]),
   midi.NoteOnEvent(tick=12, channel=0, data=[44, 26]),
   midi.NoteOnEvent(tick=0, channel=0, data=[49, 26]),
   midi.NoteOnEvent(tick=0, channel=0, data=[52, 30]),
   midi.NoteOnEvent(tick=228, channel=0, data=[52, 0]),
   midi.NoteOnEvent(tick=0, channel=0, data=[49, 0]),
   midi.NoteOnEvent(tick=0, channel=0, data=[44, 0]),
   midi.NoteOnEvent(tick=12, channel=0, data=[44, 29]),
   midi.NoteOnEvent(tick=0, channel=0, data=[49, 29]),
   midi.NoteOnEvent(tick=0, channel=0, data=[52, 35]),
   midi.NoteOnEvent(tick=228, channel=0, data=[52, 0]),
   midi.NoteOnEvent(tick=0, channel=0, data=[49, 0]),
   midi.NoteOnEvent(tick=0, channel=0, data=[44, 0]),
   midi.NoteOnEvent(tick=12, channel=0, data=[44, 30]),
   midi.NoteOnEvent(tick=0, channel=0, data=[49, 30]),
   midi.NoteOnEvent(tick=0, channel=0, data=[52, 37]),
   midi.NoteOnEvent(tick=228, channel=0, data=[52, 0]),
   midi.NoteOnEvent(tick=0, channel=0, data=[49, 0]),
   midi.NoteOnEvent(tick=0, channel=0, data=[44, 0]),
   midi.NoteOnEvent(tick=12, channel=0, data=[44, 34]),
   midi.NoteOnEvent(tick=0, channel=0, data=[49, 34]),
   midi.NoteOnEvent(tick=0, channel=0, data=[52, 39]),
   midi.NoteOnEvent(tick=228, channel=0, data=[52, 0]),
   midi.NoteOnEvent(tick=0, channel=0, data=[49, 0]),
   midi.NoteOnEvent(tick=0, channel=0, data=[44, 0]),
   midi.NoteOnEvent(tick=12, channel=0, data=[33, 41]),
   midi.NoteOnEvent(tick=91, channel=0, data=[33, 0]),
   midi.NoteOnEvent(tick=12, channel=0, data=[52, 41]),
   midi.NoteOnEvent(tick=0, channel=0, data=[49, 35]),
   midi.NoteOnEvent(tick=0, channel=0, data=[45, 35]),
   midi.NoteOnEvent(tick=228, channel=0, data=[45, 0]),
   midi.NoteOnEvent(tick=0, channel=0, data=[49, 0]),
   midi.NoteOnEvent(tick=0, channel=0, data=[52, 0]),
   midi.NoteOnEvent(tick=12, channel=0, data=[45, 36]),
   midi.NoteOnEvent(tick=0, channel=0, data=[49, 36]),
   midi.NoteOnEvent(tick=0, channel=0, data=[52, 44]),
   midi.NoteOnEvent(tick=79, channel=0, data=[52, 0]),
   midi.NoteOnEvent(tick=0, channel=0, data=[49, 0]),
   midi.NoteOnEvent(tick=0, channel=0, data=[45, 0]),
   midi.NoteOnEvent(tick=12, channel=0, data=[45, 35]),
   midi.NoteOnEvent(tick=0, channel=0, data=[49, 35]),
   midi.NoteOnEvent(tick=0, channel=0, data=[52, 42]),
   midi.NoteOnEvent(tick=228, channel=0, data=[52, 0]),
   midi.NoteOnEvent(tick=0, channel=0, data=[49, 0]),
   midi.NoteOnEvent(tick=0, channel=0, data=[45, 0]),
   midi.NoteOnEvent(tick=12, channel=0, data=[45, 34]),
   midi.NoteOnEvent(tick=0, channel=0, data=[49, 34]),
   midi.NoteOnEvent(tick=0, channel=0, data=[52, 40]),
   midi.NoteOnEvent(tick=228, channel=0, data=[52, 0]),
   midi.NoteOnEvent(tick=0, channel=0, data=[49, 0]),
   midi.NoteOnEvent(tick=0, channel=0, data=[45, 0]),
   midi.NoteOnEvent(tick=12, channel=0, data=[45, 33]),
   midi.NoteOnEvent(tick=0, channel=0, data=[49, 33]),
   midi.NoteOnEvent(tick=0, channel=0, data=[52, 39]),
   midi.NoteOnEvent(tick=228, channel=0, data=[52, 0]),
   midi.NoteOnEvent(tick=0, channel=0, data=[49, 0]),
   midi.NoteOnEvent(tick=0, channel=0, data=[45, 0]),
   midi.NoteOnEvent(tick=12, channel=0, data=[45, 30]),
   midi.NoteOnEvent(tick=0, channel=0, data=[49, 30]),
   midi.NoteOnEvent(tick=0, channel=0, data=[52, 37]),
   midi.NoteOnEvent(tick=228, channel=0, data=[52, 0]),
   midi.NoteOnEvent(tick=0, channel=0, data=[49, 0]),
   midi.NoteOnEvent(tick=0, channel=0, data=[45, 0]),
   midi.NoteOnEvent(tick=12, channel=0, data=[45, 29]),
   midi.NoteOnEvent(tick=0, channel=0, data=[49, 29]),
   midi.NoteOnEvent(tick=0, channel=0, data=[52, 35]),
   midi.NoteOnEvent(tick=228, channel=0, data=[52, 0]),
   midi.NoteOnEvent(tick=0, channel=0, data=[49, 0]),
   midi.NoteOnEvent(tick=0, channel=0, data=[45, 0]),
   midi.NoteOnEvent(tick=12, channel=0, data=[45, 28]),
   midi.NoteOnEvent(tick=0, channel=0, data=[49, 28]),
   midi.NoteOnEvent(tick=0, channel=0, data=[52, 34]),
   midi.NoteOnEvent(tick=79, channel=0, data=[52, 0]),
   midi.NoteOnEvent(tick=0, channel=0, data=[49, 0]),
   midi.NoteOnEvent(tick=0, channel=0, data=[45, 0]),
   midi.NoteOnEvent(tick=12, channel=0, data=[45, 26]),
   midi.NoteOnEvent(tick=0, channel=0, data=[49, 26]),
   midi.NoteOnEvent(tick=0, channel=0, data=[52, 31]),
   midi.NoteOnEvent(tick=228, channel=0, data=[52, 0]),
   midi.NoteOnEvent(tick=0, channel=0, data=[49, 0]),
   midi.NoteOnEvent(tick=0, channel=0, data=[45, 0]),
   midi.NoteOnEvent(tick=12, channel=0, data=[45, 25]),
   midi.NoteOnEvent(tick=0, channel=0, data=[49, 25]),
   midi.NoteOnEvent(tick=0, channel=0, data=[52, 30]),
   midi.NoteOnEvent(tick=228, channel=0, data=[52, 0]),
   midi.NoteOnEvent(tick=0, channel=0, data=[49, 0]),
   midi.NoteOnEvent(tick=0, channel=0, data=[45, 0]),
   midi.NoteOnEvent(tick=12, channel=0, data=[45, 24]),
   midi.NoteOnEvent(tick=0, channel=0, data=[49, 24]),
   midi.NoteOnEvent(tick=0, channel=0, data=[52, 28]),
   midi.NoteOnEvent(tick=228, channel=0, data=[52, 0]),
   midi.NoteOnEvent(tick=0, channel=0, data=[49, 0]),
   midi.NoteOnEvent(tick=0, channel=0, data=[45, 0]),
   midi.NoteOnEvent(tick=12, channel=0, data=[32, 27]),
   midi.NoteOnEvent(tick=223, channel=0, data=[32, 0]),
   midi.NoteOnEvent(tick=12, channel=0, data=[52, 26]),
   midi.NoteOnEvent(tick=0, channel=0, data=[49, 22]),
   midi.NoteOnEvent(tick=0, channel=0, data=[44, 22]),
   midi.NoteOnEvent(tick=200, channel=0, data=[44, 0]),
   midi.NoteOnEvent(tick=0, channel=0, data=[49, 0]),
   midi.NoteOnEvent(tick=0, channel=0, data=[52, 0]),
   midi.NoteOnEvent(tick=12, channel=0, data=[52, 26]),
   midi.NoteOnEvent(tick=0, channel=0, data=[49, 22]),
   midi.NoteOnEvent(tick=0, channel=0, data=[44, 22]),
   midi.NoteOnEvent(tick=228, channel=0, data=[44, 0]),
   midi.NoteOnEvent(tick=0, channel=0, data=[49, 0]),
   midi.NoteOnEvent(tick=0, channel=0, data=[52, 0]),
   midi.NoteOnEvent(tick=12, channel=0, data=[52, 26]),
   midi.NoteOnEvent(tick=0, channel=0, data=[49, 22]),
   midi.NoteOnEvent(tick=0, channel=0, data=[44, 22]),
   midi.NoteOnEvent(tick=228, channel=0, data=[44, 0]),
   midi.NoteOnEvent(tick=0, channel=0, data=[49, 0]),
   midi.NoteOnEvent(tick=0, channel=0, data=[52, 0]),
   midi.NoteOnEvent(tick=12, channel=0, data=[52, 26]),
   midi.NoteOnEvent(tick=0, channel=0, data=[49, 22]),
   midi.NoteOnEvent(tick=0, channel=0, data=[44, 22]),
   midi.NoteOnEvent(tick=228, channel=0, data=[44, 0]),
   midi.NoteOnEvent(tick=0, channel=0, data=[49, 0]),
   midi.NoteOnEvent(tick=0, channel=0, data=[52, 0]),
   midi.NoteOnEvent(tick=12, channel=0, data=[52, 26]),
   midi.NoteOnEvent(tick=0, channel=0, data=[49, 22]),
   midi.NoteOnEvent(tick=0, channel=0, data=[44, 22]),
   midi.NoteOnEvent(tick=228, channel=0, data=[44, 0]),
   midi.NoteOnEvent(tick=0, channel=0, data=[49, 0]),
   midi.NoteOnEvent(tick=0, channel=0, data=[52, 0]),
   midi.NoteOnEvent(tick=12, channel=0, data=[32, 26]),
   midi.NoteOnEvent(tick=33, channel=0, data=[32, 0]),
   midi.NoteOnEvent(tick=12, channel=0, data=[51, 24]),
   midi.NoteOnEvent(tick=0, channel=0, data=[48, 19]),
   midi.NoteOnEvent(tick=0, channel=0, data=[44, 19]),
   midi.NoteOnEvent(tick=228, channel=0, data=[44, 0]),
   midi.NoteOnEvent(tick=0, channel=0, data=[48, 0]),
   midi.NoteOnEvent(tick=0, channel=0, data=[51, 0]),
   midi.NoteOnEvent(tick=12, channel=0, data=[51, 24]),
   midi.NoteOnEvent(tick=0, channel=0, data=[48, 19]),
   midi.NoteOnEvent(tick=0, channel=0, data=[44, 19]),
   midi.NoteOnEvent(tick=228, channel=0, data=[44, 0]),
   midi.NoteOnEvent(tick=0, channel=0, data=[48, 0]),
   midi.NoteOnEvent(tick=0, channel=0, data=[51, 0]),
   midi.NoteOnEvent(tick=12, channel=0, data=[51, 22]),
   midi.NoteOnEvent(tick=0, channel=0, data=[48, 18]),
   midi.NoteOnEvent(tick=0, channel=0, data=[44, 18]),
   midi.NoteOnEvent(tick=228, channel=0, data=[44, 0]),
   midi.NoteOnEvent(tick=0, channel=0, data=[48, 0]),
   midi.NoteOnEvent(tick=0, channel=0, data=[51, 0]),
   midi.NoteOnEvent(tick=12, channel=0, data=[51, 22]),
   midi.NoteOnEvent(tick=0, channel=0, data=[48, 17]),
   midi.NoteOnEvent(tick=0, channel=0, data=[44, 17]),
   midi.NoteOnEvent(tick=228, channel=0, data=[44, 0]),
   midi.NoteOnEvent(tick=0, channel=0, data=[48, 0]),
   midi.NoteOnEvent(tick=0, channel=0, data=[51, 0]),
   midi.NoteOnEvent(tick=12, channel=0, data=[51, 22]),
   midi.NoteOnEvent(tick=0, channel=0, data=[48, 17]),
   midi.NoteOnEvent(tick=0, channel=0, data=[44, 17]),
   midi.NoteOnEvent(tick=228, channel=0, data=[44, 0]),
   midi.NoteOnEvent(tick=0, channel=0, data=[48, 0]),
   midi.NoteOnEvent(tick=0, channel=0, data=[51, 0]),
   midi.NoteOnEvent(tick=12, channel=0, data=[37, 42]),
   midi.NoteOnEvent(tick=68, channel=0, data=[37, 0]),
   midi.NoteOnEvent(tick=12, channel=0, data=[53, 26]),
   midi.NoteOnEvent(tick=0, channel=0, data=[49, 22]),
   midi.NoteOnEvent(tick=0, channel=0, data=[44, 22]),
   midi.NoteOnEvent(tick=228, channel=0, data=[44, 0]),
   midi.NoteOnEvent(tick=0, channel=0, data=[49, 0]),
   midi.NoteOnEvent(tick=0, channel=0, data=[53, 0]),
   midi.NoteOnEvent(tick=12, channel=0, data=[53, 26]),
   midi.NoteOnEvent(tick=0, channel=0, data=[44, 22]),
   midi.NoteOnEvent(tick=0, channel=0, data=[49, 22]),
   midi.NoteOnEvent(tick=228, channel=0, data=[49, 0]),
   midi.NoteOnEvent(tick=0, channel=0, data=[44, 0]),
   midi.NoteOnEvent(tick=0, channel=0, data=[53, 0]),
   midi.NoteOnEvent(tick=12, channel=0, data=[53, 26]),
   midi.NoteOnEvent(tick=0, channel=0, data=[44, 22]),
   midi.NoteOnEvent(tick=0, channel=0, data=[49, 22]),
   midi.NoteOnEvent(tick=228, channel=0, data=[49, 0]),
   midi.NoteOnEvent(tick=0, channel=0, data=[44, 0]),
   midi.NoteOnEvent(tick=0, channel=0, data=[53, 0]),
   midi.NoteOnEvent(tick=12, channel=0, data=[53, 26]),
   midi.NoteOnEvent(tick=0, channel=0, data=[44, 22]),
   midi.NoteOnEvent(tick=0, channel=0, data=[49, 22]),
   midi.NoteOnEvent(tick=228, channel=0, data=[49, 0]),
   midi.NoteOnEvent(tick=0, channel=0, data=[44, 0]),
   midi.NoteOnEvent(tick=0, channel=0, data=[53, 0]),
   midi.NoteOnEvent(tick=12, channel=0, data=[53, 26]),
   midi.NoteOnEvent(tick=0, channel=0, data=[44, 22]),
   midi.NoteOnEvent(tick=0, channel=0, data=[49, 22]),
   midi.NoteOnEvent(tick=228, channel=0, data=[49, 0]),
   midi.NoteOnEvent(tick=0, channel=0, data=[44, 0]),
   midi.NoteOnEvent(tick=0, channel=0, data=[53, 0]),
   midi.NoteOnEvent(tick=12, channel=0, data=[53, 26]),
   midi.NoteOnEvent(tick=0, channel=0, data=[44, 22]),
   midi.NoteOnEvent(tick=0, channel=0, data=[49, 22]),
   midi.NoteOnEvent(tick=79, channel=0, data=[49, 0]),
   midi.NoteOnEvent(tick=0, channel=0, data=[44, 0]),
   midi.NoteOnEvent(tick=0, channel=0, data=[53, 0]),
   midi.NoteOnEvent(tick=12, channel=0, data=[53, 26]),
   midi.NoteOnEvent(tick=0, channel=0, data=[44, 22]),
   midi.NoteOnEvent(tick=0, channel=0, data=[49, 22]),
   midi.NoteOnEvent(tick=228, channel=0, data=[49, 0]),
   midi.NoteOnEvent(tick=0, channel=0, data=[44, 0]),
   midi.NoteOnEvent(tick=0, channel=0, data=[53, 0]),
   midi.NoteOnEvent(tick=12, channel=0, data=[53, 26]),
   midi.NoteOnEvent(tick=0, channel=0, data=[44, 22]),
   midi.NoteOnEvent(tick=0, channel=0, data=[49, 22]),
   midi.NoteOnEvent(tick=228, channel=0, data=[49, 0]),
   midi.NoteOnEvent(tick=0, channel=0, data=[44, 0]),
   midi.NoteOnEvent(tick=0, channel=0, data=[53, 0]),
   midi.NoteOnEvent(tick=12, channel=0, data=[53, 26]),
   midi.NoteOnEvent(tick=0, channel=0, data=[44, 22]),
   midi.NoteOnEvent(tick=0, channel=0, data=[49, 22]),
   midi.NoteOnEvent(tick=228, channel=0, data=[49, 0]),
   midi.NoteOnEvent(tick=0, channel=0, data=[44, 0]),
   midi.NoteOnEvent(tick=0, channel=0, data=[53, 0]),
   midi.NoteOnEvent(tick=12, channel=0, data=[53, 26]),
   midi.NoteOnEvent(tick=0, channel=0, data=[44, 22]),
   midi.NoteOnEvent(tick=0, channel=0, data=[49, 22]),
   midi.NoteOnEvent(tick=228, channel=0, data=[49, 0]),
   midi.NoteOnEvent(tick=0, channel=0, data=[44, 0]),
   midi.NoteOnEvent(tick=0, channel=0, data=[53, 0]),
   midi.NoteOnEvent(tick=12, channel=0, data=[53, 26]),
   midi.NoteOnEvent(tick=0, channel=0, data=[49, 22]),
   midi.NoteOnEvent(tick=0, channel=0, data=[44, 22]),
   midi.NoteOnEvent(tick=228, channel=0, data=[44, 0]),
   midi.NoteOnEvent(tick=0, channel=0, data=[49, 0]),
   midi.NoteOnEvent(tick=0, channel=0, data=[53, 0]),
   midi.NoteOnEvent(tick=12, channel=0, data=[36, 41]),
   midi.NoteOnEvent(tick=22, channel=0, data=[36, 0]),
   midi.NoteOnEvent(tick=12, channel=0, data=[51, 22]),
   midi.NoteOnEvent(tick=0, channel=0, data=[54, 26]),
   midi.NoteOnEvent(tick=0, channel=0, data=[44, 22]),
   midi.NoteOnEvent(tick=228, channel=0, data=[44, 0]),
   midi.NoteOnEvent(tick=0, channel=0, data=[54, 0]),
   midi.NoteOnEvent(tick=0, channel=0, data=[51, 0]),
   midi.NoteOnEvent(tick=12, channel=0, data=[44, 22]),
   midi.NoteOnEvent(tick=0, channel=0, data=[51, 22]),
   midi.NoteOnEvent(tick=0, channel=0, data=[54, 26]),
   midi.NoteOnEvent(tick=228, channel=0, data=[54, 0]),
   midi.NoteOnEvent(tick=0, channel=0, data=[51, 0]),
   midi.NoteOnEvent(tick=0, channel=0, data=[44, 0]),
   midi.NoteOnEvent(tick=12, channel=0, data=[44, 22]),
   midi.NoteOnEvent(tick=0, channel=0, data=[51, 22]),
   midi.NoteOnEvent(tick=0, channel=0, data=[54, 26]),
   midi.NoteOnEvent(tick=228, channel=0, data=[54, 0]),
   midi.NoteOnEvent(tick=0, channel=0, data=[51, 0]),
   midi.NoteOnEvent(tick=0, channel=0, data=[44, 0]),
   midi.NoteOnEvent(tick=12, channel=0, data=[44, 22]),
   midi.NoteOnEvent(tick=0, channel=0, data=[51, 22]),
   midi.NoteOnEvent(tick=0, channel=0, data=[54, 26]),
   midi.NoteOnEvent(tick=228, channel=0, data=[54, 0]),
   midi.NoteOnEvent(tick=0, channel=0, data=[51, 0]),
   midi.NoteOnEvent(tick=0, channel=0, data=[44, 0]),
   midi.NoteOnEvent(tick=12, channel=0, data=[44, 22]),
   midi.NoteOnEvent(tick=0, channel=0, data=[51, 22]),
   midi.NoteOnEvent(tick=0, channel=0, data=[54, 26]),
   midi.NoteOnEvent(tick=228, channel=0, data=[54, 0]),
   midi.NoteOnEvent(tick=0, channel=0, data=[51, 0]),
   midi.NoteOnEvent(tick=0, channel=0, data=[44, 0]),
   midi.NoteOnEvent(tick=12, channel=0, data=[44, 22]),
   midi.NoteOnEvent(tick=0, channel=0, data=[51, 22]),
   midi.NoteOnEvent(tick=0, channel=0, data=[54, 26]),
   midi.NoteOnEvent(tick=72, channel=0, data=[54, 0]),
   midi.NoteOnEvent(tick=0, channel=0, data=[51, 0]),
   midi.NoteOnEvent(tick=0, channel=0, data=[44, 0]),
   midi.NoteOnEvent(tick=12, channel=0, data=[44, 22]),
   midi.NoteOnEvent(tick=0, channel=0, data=[51, 22]),
   midi.NoteOnEvent(tick=0, channel=0, data=[54, 26]),
   midi.NoteOnEvent(tick=228, channel=0, data=[54, 0]),
   midi.NoteOnEvent(tick=0, channel=0, data=[51, 0]),
   midi.NoteOnEvent(tick=0, channel=0, data=[44, 0]),
   midi.NoteOnEvent(tick=12, channel=0, data=[44, 22]),
   midi.NoteOnEvent(tick=0, channel=0, data=[51, 22]),
   midi.NoteOnEvent(tick=0, channel=0, data=[54, 26]),
   midi.NoteOnEvent(tick=228, channel=0, data=[54, 0]),
   midi.NoteOnEvent(tick=0, channel=0, data=[51, 0]),
   midi.NoteOnEvent(tick=0, channel=0, data=[44, 0]),
   midi.NoteOnEvent(tick=12, channel=0, data=[44, 22]),
   midi.NoteOnEvent(tick=0, channel=0, data=[51, 22]),
   midi.NoteOnEvent(tick=0, channel=0, data=[54, 26]),
   midi.NoteOnEvent(tick=228, channel=0, data=[54, 0]),
   midi.NoteOnEvent(tick=0, channel=0, data=[51, 0]),
   midi.NoteOnEvent(tick=0, channel=0, data=[44, 0]),
   midi.NoteOnEvent(tick=12, channel=0, data=[51, 22]),
   midi.NoteOnEvent(tick=0, channel=0, data=[44, 22]),
   midi.NoteOnEvent(tick=0, channel=0, data=[54, 26]),
   midi.NoteOnEvent(tick=228, channel=0, data=[54, 0]),
   midi.NoteOnEvent(tick=0, channel=0, data=[44, 0]),
   midi.NoteOnEvent(tick=0, channel=0, data=[51, 0]),
   midi.NoteOnEvent(tick=12, channel=0, data=[44, 22]),
   midi.NoteOnEvent(tick=0, channel=0, data=[51, 22]),
   midi.NoteOnEvent(tick=0, channel=0, data=[54, 26]),
   midi.NoteOnEvent(tick=228, channel=0, data=[54, 0]),
   midi.NoteOnEvent(tick=0, channel=0, data=[51, 0]),
   midi.NoteOnEvent(tick=0, channel=0, data=[44, 0]),
   midi.NoteOnEvent(tick=12, channel=0, data=[37, 40]),
   midi.NoteOnEvent(tick=33, channel=0, data=[37, 0]),
   midi.NoteOnEvent(tick=12, channel=0, data=[53, 26]),
   midi.NoteOnEvent(tick=0, channel=0, data=[49, 22]),
   midi.NoteOnEvent(tick=0, channel=0, data=[44, 22]),
   midi.NoteOnEvent(tick=228, channel=0, data=[44, 0]),
   midi.NoteOnEvent(tick=0, channel=0, data=[49, 0]),
   midi.NoteOnEvent(tick=0, channel=0, data=[53, 0]),
   midi.NoteOnEvent(tick=12, channel=0, data=[53, 26]),
   midi.NoteOnEvent(tick=0, channel=0, data=[44, 22]),
   midi.NoteOnEvent(tick=0, channel=0, data=[49, 22]),
   midi.NoteOnEvent(tick=228, channel=0, data=[49, 0]),
   midi.NoteOnEvent(tick=0, channel=0, data=[44, 0]),
   midi.NoteOnEvent(tick=0, channel=0, data=[53, 0]),
   midi.NoteOnEvent(tick=12, channel=0, data=[53, 26]),
   midi.NoteOnEvent(tick=0, channel=0, data=[44, 22]),
   midi.NoteOnEvent(tick=0, channel=0, data=[49, 22]),
   midi.NoteOnEvent(tick=228, channel=0, data=[49, 0]),
   midi.NoteOnEvent(tick=0, channel=0, data=[44, 0]),
   midi.NoteOnEvent(tick=0, channel=0, data=[53, 0]),
   midi.NoteOnEvent(tick=12, channel=0, data=[53, 26]),
   midi.NoteOnEvent(tick=0, channel=0, data=[44, 22]),
   midi.NoteOnEvent(tick=0, channel=0, data=[49, 22]),
   midi.NoteOnEvent(tick=228, channel=0, data=[49, 0]),
   midi.NoteOnEvent(tick=0, channel=0, data=[44, 0]),
   midi.NoteOnEvent(tick=0, channel=0, data=[53, 0]),
   midi.NoteOnEvent(tick=12, channel=0, data=[53, 26]),
   midi.NoteOnEvent(tick=0, channel=0, data=[44, 22]),
   midi.NoteOnEvent(tick=0, channel=0, data=[49, 22]),
   midi.NoteOnEvent(tick=228, channel=0, data=[49, 0]),
   midi.NoteOnEvent(tick=0, channel=0, data=[44, 0]),
   midi.NoteOnEvent(tick=0, channel=0, data=[53, 0]),
   midi.NoteOnEvent(tick=12, channel=0, data=[53, 26]),
   midi.NoteOnEvent(tick=0, channel=0, data=[44, 22]),
   midi.NoteOnEvent(tick=0, channel=0, data=[49, 22]),
   midi.NoteOnEvent(tick=56, channel=0, data=[49, 0]),
   midi.NoteOnEvent(tick=0, channel=0, data=[44, 0]),
   midi.NoteOnEvent(tick=0, channel=0, data=[53, 0]),
   midi.NoteOnEvent(tick=12, channel=0, data=[53, 26]),
   midi.NoteOnEvent(tick=0, channel=0, data=[44, 22]),
   midi.NoteOnEvent(tick=0, channel=0, data=[49, 22]),
   midi.NoteOnEvent(tick=228, channel=0, data=[49, 0]),
   midi.NoteOnEvent(tick=0, channel=0, data=[44, 0]),
   midi.NoteOnEvent(tick=0, channel=0, data=[53, 0]),
   midi.NoteOnEvent(tick=12, channel=0, data=[53, 26]),
   midi.NoteOnEvent(tick=0, channel=0, data=[44, 22]),
   midi.NoteOnEvent(tick=0, channel=0, data=[49, 22]),
   midi.NoteOnEvent(tick=228, channel=0, data=[49, 0]),
   midi.NoteOnEvent(tick=0, channel=0, data=[44, 0]),
   midi.NoteOnEvent(tick=0, channel=0, data=[53, 0]),
   midi.NoteOnEvent(tick=12, channel=0, data=[53, 26]),
   midi.NoteOnEvent(tick=0, channel=0, data=[44, 22]),
   midi.NoteOnEvent(tick=0, channel=0, data=[49, 22]),
   midi.NoteOnEvent(tick=228, channel=0, data=[49, 0]),
   midi.NoteOnEvent(tick=0, channel=0, data=[44, 0]),
   midi.NoteOnEvent(tick=0, channel=0, data=[53, 0]),
   midi.NoteOnEvent(tick=12, channel=0, data=[53, 26]),
   midi.NoteOnEvent(tick=0, channel=0, data=[44, 22]),
   midi.NoteOnEvent(tick=0, channel=0, data=[49, 22]),
   midi.NoteOnEvent(tick=228, channel=0, data=[49, 0]),
   midi.NoteOnEvent(tick=0, channel=0, data=[44, 0]),
   midi.NoteOnEvent(tick=0, channel=0, data=[53, 0]),
   midi.NoteOnEvent(tick=12, channel=0, data=[53, 26]),
   midi.NoteOnEvent(tick=0, channel=0, data=[49, 22]),
   midi.NoteOnEvent(tick=0, channel=0, data=[44, 22]),
   midi.NoteOnEvent(tick=228, channel=0, data=[44, 0]),
   midi.NoteOnEvent(tick=0, channel=0, data=[49, 0]),
   midi.NoteOnEvent(tick=0, channel=0, data=[53, 0]),
   midi.NoteOnEvent(tick=12, channel=0, data=[39, 39]),
   midi.NoteOnEvent(tick=221, channel=0, data=[39, 0]),
   midi.NoteOnEvent(tick=12, channel=0, data=[51, 22]),
   midi.NoteOnEvent(tick=0, channel=0, data=[54, 26]),
   midi.NoteOnEvent(tick=0, channel=0, data=[44, 22]),
   midi.NoteOnEvent(tick=200, channel=0, data=[44, 0]),
   midi.NoteOnEvent(tick=0, channel=0, data=[54, 0]),
   midi.NoteOnEvent(tick=0, channel=0, data=[51, 0]),
   midi.NoteOnEvent(tick=12, channel=0, data=[44, 22]),
   midi.NoteOnEvent(tick=0, channel=0, data=[51, 22]),
   midi.NoteOnEvent(tick=0, channel=0, data=[54, 26]),
   midi.NoteOnEvent(tick=228, channel=0, data=[54, 0]),
   midi.NoteOnEvent(tick=0, channel=0, data=[51, 0]),
   midi.NoteOnEvent(tick=0, channel=0, data=[44, 0]),
   midi.NoteOnEvent(tick=12, channel=0, data=[44, 22]),
   midi.NoteOnEvent(tick=0, channel=0, data=[51, 22]),
   midi.NoteOnEvent(tick=0, channel=0, data=[54, 26]),
   midi.NoteOnEvent(tick=228, channel=0, data=[54, 0]),
   midi.NoteOnEvent(tick=0, channel=0, data=[51, 0]),
   midi.NoteOnEvent(tick=0, channel=0, data=[44, 0]),
   midi.NoteOnEvent(tick=12, channel=0, data=[44, 22]),
   midi.NoteOnEvent(tick=0, channel=0, data=[51, 22]),
   midi.NoteOnEvent(tick=0, channel=0, data=[54, 26]),
   midi.NoteOnEvent(tick=228, channel=0, data=[54, 0]),
   midi.NoteOnEvent(tick=0, channel=0, data=[51, 0]),
   midi.NoteOnEvent(tick=0, channel=0, data=[44, 0]),
   midi.NoteOnEvent(tick=12, channel=0, data=[44, 22]),
   midi.NoteOnEvent(tick=0, channel=0, data=[51, 22]),
   midi.NoteOnEvent(tick=0, channel=0, data=[54, 26]),
   midi.NoteOnEvent(tick=228, channel=0, data=[54, 0]),
   midi.NoteOnEvent(tick=0, channel=0, data=[51, 0]),
   midi.NoteOnEvent(tick=0, channel=0, data=[44, 0]),
   midi.NoteOnEvent(tick=12, channel=0, data=[44, 22]),
   midi.NoteOnEvent(tick=0, channel=0, data=[51, 22]),
   midi.NoteOnEvent(tick=0, channel=0, data=[54, 26]),
   midi.NoteOnEvent(tick=79, channel=0, data=[54, 0]),
   midi.NoteOnEvent(tick=0, channel=0, data=[51, 0]),
   midi.NoteOnEvent(tick=0, channel=0, data=[44, 0]),
   midi.NoteOnEvent(tick=12, channel=0, data=[44, 22]),
   midi.NoteOnEvent(tick=0, channel=0, data=[51, 22]),
   midi.NoteOnEvent(tick=0, channel=0, data=[54, 26]),
   midi.NoteOnEvent(tick=228, channel=0, data=[54, 0]),
   midi.NoteOnEvent(tick=0, channel=0, data=[51, 0]),
   midi.NoteOnEvent(tick=0, channel=0, data=[44, 0]),
   midi.NoteOnEvent(tick=12, channel=0, data=[44, 22]),
   midi.NoteOnEvent(tick=0, channel=0, data=[51, 22]),
   midi.NoteOnEvent(tick=0, channel=0, data=[54, 26]),
   midi.NoteOnEvent(tick=228, channel=0, data=[54, 0]),
   midi.NoteOnEvent(tick=0, channel=0, data=[51, 0]),
   midi.NoteOnEvent(tick=0, channel=0, data=[44, 0]),
   midi.NoteOnEvent(tick=12, channel=0, data=[44, 22]),
   midi.NoteOnEvent(tick=0, channel=0, data=[51, 22]),
   midi.NoteOnEvent(tick=0, channel=0, data=[54, 26]),
   midi.NoteOnEvent(tick=228, channel=0, data=[54, 0]),
   midi.NoteOnEvent(tick=0, channel=0, data=[51, 0]),
   midi.NoteOnEvent(tick=0, channel=0, data=[44, 0]),
   midi.NoteOnEvent(tick=12, channel=0, data=[51, 22]),
   midi.NoteOnEvent(tick=0, channel=0, data=[44, 22]),
   midi.NoteOnEvent(tick=0, channel=0, data=[54, 26]),
   midi.NoteOnEvent(tick=228, channel=0, data=[54, 0]),
   midi.NoteOnEvent(tick=0, channel=0, data=[44, 0]),
   midi.NoteOnEvent(tick=0, channel=0, data=[51, 0]),
   midi.NoteOnEvent(tick=12, channel=0, data=[44, 22]),
   midi.NoteOnEvent(tick=0, channel=0, data=[51, 22]),
   midi.NoteOnEvent(tick=0, channel=0, data=[54, 26]),
   midi.NoteOnEvent(tick=228, channel=0, data=[54, 0]),
   midi.NoteOnEvent(tick=0, channel=0, data=[51, 0]),
   midi.NoteOnEvent(tick=0, channel=0, data=[44, 0]),
   midi.NoteOnEvent(tick=12, channel=0, data=[40, 42]),
   midi.NoteOnEvent(tick=45, channel=0, data=[40, 0]),
   midi.NoteOnEvent(tick=12, channel=0, data=[52, 35]),
   midi.NoteOnEvent(tick=0, channel=0, data=[45, 29]),
   midi.NoteOnEvent(tick=228, channel=0, data=[45, 0]),
   midi.NoteOnEvent(tick=0, channel=0, data=[52, 0]),
   midi.NoteOnEvent(tick=12, channel=0, data=[45, 29]),
   midi.NoteOnEvent(tick=0, channel=0, data=[52, 35]),
   midi.NoteOnEvent(tick=45, channel=0, data=[52, 0]),
   midi.NoteOnEvent(tick=0, channel=0, data=[45, 0]),
   midi.NoteOnEvent(tick=12, channel=0, data=[45, 29]),
   midi.NoteOnEvent(tick=0, channel=0, data=[52, 35]),
   midi.NoteOnEvent(tick=228, channel=0, data=[52, 0]),
   midi.NoteOnEvent(tick=0, channel=0, data=[45, 0]),
   midi.NoteOnEvent(tick=12, channel=0, data=[45, 29]),
   midi.NoteOnEvent(tick=0, channel=0, data=[52, 35]),
   midi.NoteOnEvent(tick=228, channel=0, data=[52, 0]),
   midi.NoteOnEvent(tick=0, channel=0, data=[45, 0]),
   midi.NoteOnEvent(tick=12, channel=0, data=[45, 29]),
   midi.NoteOnEvent(tick=0, channel=0, data=[52, 35]),
   midi.NoteOnEvent(tick=228, channel=0, data=[52, 0]),
   midi.NoteOnEvent(tick=0, channel=0, data=[45, 0]),
   midi.NoteOnEvent(tick=12, channel=0, data=[52, 35]),
   midi.NoteOnEvent(tick=0, channel=0, data=[45, 29]),
   midi.NoteOnEvent(tick=228, channel=0, data=[45, 0]),
   midi.NoteOnEvent(tick=0, channel=0, data=[52, 0]),
   midi.NoteOnEvent(tick=12, channel=0, data=[45, 29]),
   midi.NoteOnEvent(tick=0, channel=0, data=[52, 35]),
   midi.NoteOnEvent(tick=228, channel=0, data=[52, 0]),
   midi.NoteOnEvent(tick=0, channel=0, data=[45, 0]),
   midi.NoteOnEvent(tick=12, channel=0, data=[40, 35]),
   midi.NoteOnEvent(tick=240, channel=0, data=[52, 35]),
   midi.NoteOnEvent(tick=0, channel=0, data=[45, 29]),
   midi.NoteOnEvent(tick=240, channel=0, data=[45, 0]),
   midi.NoteOnEvent(tick=0, channel=0, data=[52, 0]),
   midi.NoteOnEvent(tick=0, channel=0, data=[40, 0]),
   midi.NoteOnEvent(tick=0, channel=0, data=[40, 35]),
   midi.NoteOnEvent(tick=240, channel=0, data=[52, 35]),
   midi.NoteOnEvent(tick=0, channel=0, data=[45, 29]),
   midi.NoteOnEvent(tick=240, channel=0, data=[45, 0]),
   midi.NoteOnEvent(tick=0, channel=0, data=[52, 0]),
   midi.NoteOnEvent(tick=0, channel=0, data=[40, 0]),
   midi.NoteOnEvent(tick=0, channel=0, data=[35, 42]),
   midi.NoteOnEvent(tick=113, channel=0, data=[35, 0]),
   midi.NoteOnEvent(tick=12, channel=0, data=[47, 38]),
   midi.NoteOnEvent(tick=0, channel=0, data=[40, 31]),
   midi.NoteOnEvent(tick=32, channel=0, data=[40, 0]),
   midi.NoteOnEvent(tick=0, channel=0, data=[47, 0]),
   midi.NoteOnEvent(tick=12, channel=0, data=[40, 31]),
   midi.NoteOnEvent(tick=0, channel=0, data=[47, 38]),
   midi.NoteOnEvent(tick=160, channel=0, data=[47, 0]),
   midi.NoteOnEvent(tick=0, channel=0, data=[40, 0]),
   midi.NoteOnEvent(tick=12, channel=0, data=[40, 31]),
   midi.NoteOnEvent(tick=0, channel=0, data=[47, 38]),
   midi.NoteOnEvent(tick=228, channel=0, data=[47, 0]),
   midi.NoteOnEvent(tick=0, channel=0, data=[40, 0]),
   midi.NoteOnEvent(tick=12, channel=0, data=[47, 38]),
   midi.NoteOnEvent(tick=0, channel=0, data=[40, 31]),
   midi.NoteOnEvent(tick=228, channel=0, data=[40, 0]),
   midi.NoteOnEvent(tick=0, channel=0, data=[47, 0]),
   midi.NoteOnEvent(tick=12, channel=0, data=[40, 31]),
   midi.NoteOnEvent(tick=0, channel=0, data=[47, 38]),
   midi.NoteOnEvent(tick=228, channel=0, data=[47, 0]),
   midi.NoteOnEvent(tick=0, channel=0, data=[40, 0]),
   midi.NoteOnEvent(tick=12, channel=0, data=[40, 34]),
   midi.NoteOnEvent(tick=0, channel=0, data=[47, 39]),
   midi.NoteOnEvent(tick=228, channel=0, data=[47, 0]),
   midi.NoteOnEvent(tick=0, channel=0, data=[40, 0]),
   midi.NoteOnEvent(tick=12, channel=0, data=[40, 34]),
   midi.NoteOnEvent(tick=0, channel=0, data=[47, 39]),
   midi.NoteOnEvent(tick=228, channel=0, data=[47, 0]),
   midi.NoteOnEvent(tick=0, channel=0, data=[40, 0]),
   midi.NoteOnEvent(tick=12, channel=0, data=[35, 39]),
   midi.NoteOnEvent(tick=91, channel=0, data=[40, 34]),
   midi.NoteOnEvent(tick=0, channel=0, data=[47, 39]),
   midi.NoteOnEvent(tick=240, channel=0, data=[47, 0]),
   midi.NoteOnEvent(tick=0, channel=0, data=[40, 0]),
   midi.NoteOnEvent(tick=0, channel=0, data=[35, 0]),
   midi.NoteOnEvent(tick=0, channel=0, data=[35, 39]),
   midi.NoteOnEvent(tick=240, channel=0, data=[47, 39]),
   midi.NoteOnEvent(tick=0, channel=0, data=[40, 34]),
   midi.NoteOnEvent(tick=240, channel=0, data=[40, 0]),
   midi.NoteOnEvent(tick=0, channel=0, data=[47, 0]),
   midi.NoteOnEvent(tick=0, channel=0, data=[35, 0]),
   midi.NoteOnEvent(tick=0, channel=0, data=[38, 49]),
   midi.NoteOnEvent(tick=114, channel=0, data=[38, 0]),
   midi.NoteOnEvent(tick=0, channel=0, data=[45, 35]),
   midi.NoteOnEvent(tick=0, channel=0, data=[50, 42]),
   midi.NoteOnEvent(tick=228, channel=0, data=[50, 0]),
   midi.NoteOnEvent(tick=0, channel=0, data=[45, 0]),
   midi.NoteOnEvent(tick=12, channel=0, data=[45, 35]),
   midi.NoteOnEvent(tick=0, channel=0, data=[50, 42]),
   midi.NoteOnEvent(tick=45, channel=0, data=[50, 0]),
   midi.NoteOnEvent(tick=0, channel=0, data=[45, 0]),
   midi.NoteOnEvent(tick=12, channel=0, data=[45, 35]),
   midi.NoteOnEvent(tick=0, channel=0, data=[50, 42]),
   midi.NoteOnEvent(tick=228, channel=0, data=[50, 0]),
   midi.NoteOnEvent(tick=0, channel=0, data=[45, 0]),
   midi.NoteOnEvent(tick=12, channel=0, data=[45, 35]),
   midi.NoteOnEvent(tick=0, channel=0, data=[50, 42]),
   midi.NoteOnEvent(tick=228, channel=0, data=[50, 0]),
   midi.NoteOnEvent(tick=0, channel=0, data=[45, 0]),
   midi.NoteOnEvent(tick=12, channel=0, data=[45, 35]),
   midi.NoteOnEvent(tick=0, channel=0, data=[50, 42]),
   midi.NoteOnEvent(tick=228, channel=0, data=[50, 0]),
   midi.NoteOnEvent(tick=0, channel=0, data=[45, 0]),
   midi.NoteOnEvent(tick=12, channel=0, data=[50, 46]),
   midi.NoteOnEvent(tick=0, channel=0, data=[45, 39]),
   midi.NoteOnEvent(tick=228, channel=0, data=[45, 0]),
   midi.NoteOnEvent(tick=0, channel=0, data=[50, 0]),
   midi.NoteOnEvent(tick=12, channel=0, data=[50, 45]),
   midi.NoteOnEvent(tick=0, channel=0, data=[45, 38]),
   midi.NoteOnEvent(tick=228, channel=0, data=[45, 0]),
   midi.NoteOnEvent(tick=0, channel=0, data=[50, 0]),
   midi.NoteOnEvent(tick=12, channel=0, data=[38, 45]),
   midi.NoteOnEvent(tick=125, channel=0, data=[50, 45]),
   midi.NoteOnEvent(tick=0, channel=0, data=[45, 38]),
   midi.NoteOnEvent(tick=240, channel=0, data=[45, 0]),
   midi.NoteOnEvent(tick=0, channel=0, data=[50, 0]),
   midi.NoteOnEvent(tick=0, channel=0, data=[38, 0]),
   midi.NoteOnEvent(tick=0, channel=0, data=[38, 45]),
   midi.NoteOnEvent(tick=240, channel=0, data=[50, 45]),
   midi.NoteOnEvent(tick=0, channel=0, data=[45, 38]),
   midi.NoteOnEvent(tick=240, channel=0, data=[45, 0]),
   midi.NoteOnEvent(tick=0, channel=0, data=[50, 0]),
   midi.NoteOnEvent(tick=0, channel=0, data=[38, 0]),
   midi.NoteOnEvent(tick=0, channel=0, data=[33, 45]),
   midi.NoteOnEvent(tick=137, channel=0, data=[45, 45]),
   midi.NoteOnEvent(tick=0, channel=0, data=[40, 38]),
   midi.NoteOnEvent(tick=240, channel=0, data=[40, 0]),
   midi.NoteOnEvent(tick=0, channel=0, data=[45, 0]),
   midi.NoteOnEvent(tick=0, channel=0, data=[33, 0]),
   midi.NoteOnEvent(tick=0, channel=0, data=[33, 45]),
   midi.NoteOnEvent(tick=45, channel=0, data=[33, 0]),
   midi.NoteOnEvent(tick=0, channel=0, data=[45, 45]),
   midi.NoteOnEvent(tick=0, channel=0, data=[40, 38]),
   midi.NoteOnEvent(tick=228, channel=0, data=[40, 0]),
   midi.NoteOnEvent(tick=0, channel=0, data=[45, 0]),
   midi.NoteOnEvent(tick=12, channel=0, data=[45, 45]),
   midi.NoteOnEvent(tick=0, channel=0, data=[40, 38]),
   midi.NoteOnEvent(tick=228, channel=0, data=[40, 0]),
   midi.NoteOnEvent(tick=0, channel=0, data=[45, 0]),
   midi.NoteOnEvent(tick=12, channel=0, data=[45, 45]),
   midi.NoteOnEvent(tick=0, channel=0, data=[40, 38]),
   midi.NoteOnEvent(tick=228, channel=0, data=[40, 0]),
   midi.NoteOnEvent(tick=0, channel=0, data=[45, 0]),
   midi.NoteOnEvent(tick=12, channel=0, data=[45, 49]),
   midi.NoteOnEvent(tick=0, channel=0, data=[40, 41]),
   midi.NoteOnEvent(tick=228, channel=0, data=[40, 0]),
   midi.NoteOnEvent(tick=0, channel=0, data=[45, 0]),
   midi.NoteOnEvent(tick=12, channel=0, data=[45, 49]),
   midi.NoteOnEvent(tick=0, channel=0, data=[40, 41]),
   midi.NoteOnEvent(tick=228, channel=0, data=[40, 0]),
   midi.NoteOnEvent(tick=0, channel=0, data=[45, 0]),
   midi.NoteOnEvent(tick=12, channel=0, data=[33, 49]),
   midi.NoteOnEvent(tick=114, channel=0, data=[45, 49]),
   midi.NoteOnEvent(tick=0, channel=0, data=[40, 41]),
   midi.NoteOnEvent(tick=240, channel=0, data=[40, 0]),
   midi.NoteOnEvent(tick=0, channel=0, data=[45, 0]),
   midi.NoteOnEvent(tick=0, channel=0, data=[33, 0]),
   midi.NoteOnEvent(tick=0, channel=0, data=[33, 49]),
   midi.NoteOnEvent(tick=240, channel=0, data=[45, 49]),
   midi.NoteOnEvent(tick=0, channel=0, data=[40, 41]),
   midi.NoteOnEvent(tick=240, channel=0, data=[40, 0]),
   midi.NoteOnEvent(tick=0, channel=0, data=[45, 0]),
   midi.NoteOnEvent(tick=0, channel=0, data=[33, 0]),
   midi.NoteOnEvent(tick=0, channel=0, data=[32, 61]),
   midi.NoteOnEvent(tick=222, channel=0, data=[32, 0]),
   midi.NoteOnEvent(tick=12, channel=0, data=[44, 44]),
   midi.NoteOnEvent(tick=0, channel=0, data=[49, 44]),
   midi.NoteOnEvent(tick=0, channel=0, data=[52, 51]),
   midi.NoteOnEvent(tick=185, channel=0, data=[52, 0]),
   midi.NoteOnEvent(tick=0, channel=0, data=[49, 0]),
   midi.NoteOnEvent(tick=0, channel=0, data=[44, 0]),
   midi.NoteOnEvent(tick=12, channel=0, data=[44, 44]),
   midi.NoteOnEvent(tick=0, channel=0, data=[49, 44]),
   midi.NoteOnEvent(tick=0, channel=0, data=[52, 51]),
   midi.NoteOnEvent(tick=228, channel=0, data=[52, 0]),
   midi.NoteOnEvent(tick=0, channel=0, data=[49, 0]),
   midi.NoteOnEvent(tick=0, channel=0, data=[44, 0]),
   midi.NoteOnEvent(tick=12, channel=0, data=[44, 44]),
   midi.NoteOnEvent(tick=0, channel=0, data=[49, 44]),
   midi.NoteOnEvent(tick=0, channel=0, data=[52, 52]),
   midi.NoteOnEvent(tick=228, channel=0, data=[52, 0]),
   midi.NoteOnEvent(tick=0, channel=0, data=[49, 0]),
   midi.NoteOnEvent(tick=0, channel=0, data=[44, 0]),
   midi.NoteOnEvent(tick=12, channel=0, data=[44, 44]),
   midi.NoteOnEvent(tick=0, channel=0, data=[49, 44]),
   midi.NoteOnEvent(tick=0, channel=0, data=[52, 52]),
   midi.NoteOnEvent(tick=228, channel=0, data=[52, 0]),
   midi.NoteOnEvent(tick=0, channel=0, data=[49, 0]),
   midi.NoteOnEvent(tick=0, channel=0, data=[44, 0]),
   midi.NoteOnEvent(tick=12, channel=0, data=[44, 44]),
   midi.NoteOnEvent(tick=0, channel=0, data=[49, 44]),
   midi.NoteOnEvent(tick=0, channel=0, data=[52, 52]),
   midi.NoteOnEvent(tick=228, channel=0, data=[52, 0]),
   midi.NoteOnEvent(tick=0, channel=0, data=[49, 0]),
   midi.NoteOnEvent(tick=0, channel=0, data=[44, 0]),
   midi.NoteOnEvent(tick=12, channel=0, data=[32, 61]),
   midi.NoteOnEvent(tick=95, channel=0, data=[32, 0]),
   midi.NoteOnEvent(tick=12, channel=0, data=[44, 44]),
   midi.NoteOnEvent(tick=0, channel=0, data=[51, 44]),
   midi.NoteOnEvent(tick=0, channel=0, data=[54, 52]),
   midi.NoteOnEvent(tick=228, channel=0, data=[54, 0]),
   midi.NoteOnEvent(tick=0, channel=0, data=[51, 0]),
   midi.NoteOnEvent(tick=0, channel=0, data=[44, 0]),
   midi.NoteOnEvent(tick=12, channel=0, data=[44, 44]),
   midi.NoteOnEvent(tick=0, channel=0, data=[51, 44]),
   midi.NoteOnEvent(tick=0, channel=0, data=[54, 52]),
   midi.NoteOnEvent(tick=54, channel=0, data=[54, 0]),
   midi.NoteOnEvent(tick=0, channel=0, data=[51, 0]),
   midi.NoteOnEvent(tick=0, channel=0, data=[44, 0]),
   midi.NoteOnEvent(tick=12, channel=0, data=[44, 44]),
   midi.NoteOnEvent(tick=0, channel=0, data=[51, 44]),
   midi.NoteOnEvent(tick=0, channel=0, data=[54, 52]),
   midi.NoteOnEvent(tick=228, channel=0, data=[54, 0]),
   midi.NoteOnEvent(tick=0, channel=0, data=[51, 0]),
   midi.NoteOnEvent(tick=0, channel=0, data=[44, 0]),
   midi.NoteOnEvent(tick=12, channel=0, data=[44, 44]),
   midi.NoteOnEvent(tick=0, channel=0, data=[51, 44]),
   midi.NoteOnEvent(tick=0, channel=0, data=[54, 51]),
   midi.NoteOnEvent(tick=228, channel=0, data=[54, 0]),
   midi.NoteOnEvent(tick=0, channel=0, data=[51, 0]),
   midi.NoteOnEvent(tick=0, channel=0, data=[44, 0]),
   midi.NoteOnEvent(tick=12, channel=0, data=[44, 44]),
   midi.NoteOnEvent(tick=0, channel=0, data=[51, 44]),
   midi.NoteOnEvent(tick=0, channel=0, data=[54, 51]),
   midi.NoteOnEvent(tick=228, channel=0, data=[54, 0]),
   midi.NoteOnEvent(tick=0, channel=0, data=[51, 0]),
   midi.NoteOnEvent(tick=0, channel=0, data=[44, 0]),
   midi.NoteOnEvent(tick=12, channel=0, data=[37, 52]),
   midi.NoteOnEvent(tick=225, channel=0, data=[37, 0]),
   midi.NoteOnEvent(tick=0, channel=0, data=[44, 34]),
   midi.NoteOnEvent(tick=0, channel=0, data=[49, 34]),
   midi.NoteOnEvent(tick=0, channel=0, data=[52, 40]),
   midi.NoteOnEvent(tick=228, channel=0, data=[52, 0]),
   midi.NoteOnEvent(tick=0, channel=0, data=[49, 0]),
   midi.NoteOnEvent(tick=0, channel=0, data=[44, 0]),
   midi.NoteOnEvent(tick=12, channel=0, data=[44, 34]),
   midi.NoteOnEvent(tick=0, channel=0, data=[49, 34]),
   midi.NoteOnEvent(tick=0, channel=0, data=[52, 40]),
   midi.NoteOnEvent(tick=228, channel=0, data=[52, 0]),
   midi.NoteOnEvent(tick=0, channel=0, data=[49, 0]),
   midi.NoteOnEvent(tick=0, channel=0, data=[44, 0]),
   midi.NoteOnEvent(tick=12, channel=0, data=[44, 34]),
   midi.NoteOnEvent(tick=0, channel=0, data=[49, 34]),
   midi.NoteOnEvent(tick=0, channel=0, data=[52, 40]),
   midi.NoteOnEvent(tick=228, channel=0, data=[52, 0]),
   midi.NoteOnEvent(tick=0, channel=0, data=[49, 0]),
   midi.NoteOnEvent(tick=0, channel=0, data=[44, 0]),
   midi.NoteOnEvent(tick=12, channel=0, data=[44, 34]),
   midi.NoteOnEvent(tick=0, channel=0, data=[49, 34]),
   midi.NoteOnEvent(tick=0, channel=0, data=[52, 40]),
   midi.NoteOnEvent(tick=228, channel=0, data=[52, 0]),
   midi.NoteOnEvent(tick=0, channel=0, data=[49, 0]),
   midi.NoteOnEvent(tick=0, channel=0, data=[44, 0]),
   midi.NoteOnEvent(tick=12, channel=0, data=[44, 34]),
   midi.NoteOnEvent(tick=0, channel=0, data=[49, 34]),
   midi.NoteOnEvent(tick=0, channel=0, data=[52, 40]),
   midi.NoteOnEvent(tick=228, channel=0, data=[52, 0]),
   midi.NoteOnEvent(tick=0, channel=0, data=[49, 0]),
   midi.NoteOnEvent(tick=0, channel=0, data=[44, 0]),
   midi.NoteOnEvent(tick=12, channel=0, data=[49, 34]),
   midi.NoteOnEvent(tick=0, channel=0, data=[44, 34]),
   midi.NoteOnEvent(tick=0, channel=0, data=[52, 39]),
   midi.NoteOnEvent(tick=228, channel=0, data=[52, 0]),
   midi.NoteOnEvent(tick=0, channel=0, data=[44, 0]),
   midi.NoteOnEvent(tick=0, channel=0, data=[49, 0]),
   midi.NoteOnEvent(tick=12, channel=0, data=[44, 34]),
   midi.NoteOnEvent(tick=0, channel=0, data=[49, 34]),
   midi.NoteOnEvent(tick=0, channel=0, data=[52, 39]),
   midi.NoteOnEvent(tick=228, channel=0, data=[52, 0]),
   midi.NoteOnEvent(tick=0, channel=0, data=[49, 0]),
   midi.NoteOnEvent(tick=0, channel=0, data=[44, 0]),
   midi.NoteOnEvent(tick=12, channel=0, data=[44, 30]),
   midi.NoteOnEvent(tick=0, channel=0, data=[49, 30]),
   midi.NoteOnEvent(tick=0, channel=0, data=[52, 37]),
   midi.NoteOnEvent(tick=228, channel=0, data=[52, 0]),
   midi.NoteOnEvent(tick=0, channel=0, data=[49, 0]),
   midi.NoteOnEvent(tick=0, channel=0, data=[44, 0]),
   midi.NoteOnEvent(tick=12, channel=0, data=[44, 30]),
   midi.NoteOnEvent(tick=0, channel=0, data=[49, 30]),
   midi.NoteOnEvent(tick=0, channel=0, data=[52, 36]),
   midi.NoteOnEvent(tick=228, channel=0, data=[52, 0]),
   midi.NoteOnEvent(tick=0, channel=0, data=[49, 0]),
   midi.NoteOnEvent(tick=0, channel=0, data=[44, 0]),
   midi.NoteOnEvent(tick=12, channel=0, data=[44, 28]),
   midi.NoteOnEvent(tick=0, channel=0, data=[49, 28]),
   midi.NoteOnEvent(tick=0, channel=0, data=[52, 34]),
   midi.NoteOnEvent(tick=228, channel=0, data=[52, 0]),
   midi.NoteOnEvent(tick=0, channel=0, data=[49, 0]),
   midi.NoteOnEvent(tick=0, channel=0, data=[44, 0]),
   midi.NoteOnEvent(tick=12, channel=0, data=[44, 25]),
   midi.NoteOnEvent(tick=0, channel=0, data=[49, 25]),
   midi.NoteOnEvent(tick=0, channel=0, data=[52, 30]),
   midi.NoteOnEvent(tick=228, channel=0, data=[52, 0]),
   midi.NoteOnEvent(tick=0, channel=0, data=[49, 0]),
   midi.NoteOnEvent(tick=0, channel=0, data=[44, 0]),
   midi.NoteOnEvent(tick=12, channel=0, data=[32, 26]),
   midi.NoteOnEvent(tick=79, channel=0, data=[32, 0]),
   midi.NoteOnEvent(tick=12, channel=0, data=[54, 26]),
   midi.NoteOnEvent(tick=0, channel=0, data=[51, 22]),
   midi.NoteOnEvent(tick=0, channel=0, data=[44, 22]),
   midi.NoteOnEvent(tick=228, channel=0, data=[44, 0]),
   midi.NoteOnEvent(tick=0, channel=0, data=[51, 0]),
   midi.NoteOnEvent(tick=0, channel=0, data=[54, 0]),
   midi.NoteOnEvent(tick=12, channel=0, data=[54, 26]),
   midi.NoteOnEvent(tick=0, channel=0, data=[51, 22]),
   midi.NoteOnEvent(tick=0, channel=0, data=[44, 22]),
   midi.NoteOnEvent(tick=209, channel=0, data=[44, 0]),
   midi.NoteOnEvent(tick=0, channel=0, data=[51, 0]),
   midi.NoteOnEvent(tick=0, channel=0, data=[54, 0]),
   midi.NoteOnEvent(tick=11, channel=0, data=[54, 26]),
   midi.NoteOnEvent(tick=0, channel=0, data=[51, 22]),
   midi.NoteOnEvent(tick=0, channel=0, data=[44, 22]),
   midi.NoteOnEvent(tick=228, channel=0, data=[44, 0]),
   midi.NoteOnEvent(tick=0, channel=0, data=[51, 0]),
   midi.NoteOnEvent(tick=0, channel=0, data=[54, 0]),
   midi.NoteOnEvent(tick=12, channel=0, data=[44, 22]),
   midi.NoteOnEvent(tick=0, channel=0, data=[51, 22]),
   midi.NoteOnEvent(tick=0, channel=0, data=[54, 26]),
   midi.NoteOnEvent(tick=228, channel=0, data=[54, 0]),
   midi.NoteOnEvent(tick=0, channel=0, data=[51, 0]),
   midi.NoteOnEvent(tick=0, channel=0, data=[44, 0]),
   midi.NoteOnEvent(tick=12, channel=0, data=[51, 22]),
   midi.NoteOnEvent(tick=0, channel=0, data=[44, 22]),
   midi.NoteOnEvent(tick=0, channel=0, data=[54, 26]),
   midi.NoteOnEvent(tick=228, channel=0, data=[54, 0]),
   midi.NoteOnEvent(tick=0, channel=0, data=[44, 0]),
   midi.NoteOnEvent(tick=0, channel=0, data=[51, 0]),
   midi.NoteOnEvent(tick=12, channel=0, data=[44, 22]),
   midi.NoteOnEvent(tick=0, channel=0, data=[51, 22]),
   midi.NoteOnEvent(tick=0, channel=0, data=[54, 26]),
   midi.NoteOnEvent(tick=228, channel=0, data=[54, 0]),
   midi.NoteOnEvent(tick=0, channel=0, data=[51, 0]),
   midi.NoteOnEvent(tick=0, channel=0, data=[44, 0]),
   midi.NoteOnEvent(tick=12, channel=0, data=[54, 26]),
   midi.NoteOnEvent(tick=0, channel=0, data=[51, 22]),
   midi.NoteOnEvent(tick=0, channel=0, data=[44, 22]),
   midi.NoteOnEvent(tick=228, channel=0, data=[44, 0]),
   midi.NoteOnEvent(tick=0, channel=0, data=[51, 0]),
   midi.NoteOnEvent(tick=0, channel=0, data=[54, 0]),
   midi.NoteOnEvent(tick=12, channel=0, data=[54, 26]),
   midi.NoteOnEvent(tick=0, channel=0, data=[51, 22]),
   midi.NoteOnEvent(tick=0, channel=0, data=[44, 22]),
   midi.NoteOnEvent(tick=228, channel=0, data=[44, 0]),
   midi.NoteOnEvent(tick=0, channel=0, data=[51, 0]),
   midi.NoteOnEvent(tick=0, channel=0, data=[54, 0]),
   midi.NoteOnEvent(tick=12, channel=0, data=[54, 26]),
   midi.NoteOnEvent(tick=0, channel=0, data=[51, 22]),
   midi.NoteOnEvent(tick=0, channel=0, data=[44, 22]),
   midi.NoteOnEvent(tick=228, channel=0, data=[44, 0]),
   midi.NoteOnEvent(tick=0, channel=0, data=[51, 0]),
   midi.NoteOnEvent(tick=0, channel=0, data=[54, 0]),
   midi.NoteOnEvent(tick=12, channel=0, data=[44, 22]),
   midi.NoteOnEvent(tick=0, channel=0, data=[51, 22]),
   midi.NoteOnEvent(tick=0, channel=0, data=[54, 26]),
   midi.NoteOnEvent(tick=228, channel=0, data=[54, 0]),
   midi.NoteOnEvent(tick=0, channel=0, data=[51, 0]),
   midi.NoteOnEvent(tick=0, channel=0, data=[44, 0]),
   midi.NoteOnEvent(tick=12, channel=0, data=[51, 22]),
   midi.NoteOnEvent(tick=0, channel=0, data=[44, 22]),
   midi.NoteOnEvent(tick=0, channel=0, data=[54, 26]),
   midi.NoteOnEvent(tick=228, channel=0, data=[54, 0]),
   midi.NoteOnEvent(tick=0, channel=0, data=[44, 0]),
   midi.NoteOnEvent(tick=0, channel=0, data=[51, 0]),
   midi.NoteOnEvent(tick=12, channel=0, data=[32, 26]),
   midi.NoteOnEvent(tick=223, channel=0, data=[32, 0]),
   midi.NoteOnEvent(tick=12, channel=0, data=[52, 26]),
   midi.NoteOnEvent(tick=0, channel=0, data=[49, 22]),
   midi.NoteOnEvent(tick=0, channel=0, data=[44, 22]),
   midi.NoteOnEvent(tick=157, channel=0, data=[44, 0]),
   midi.NoteOnEvent(tick=0, channel=0, data=[49, 0]),
   midi.NoteOnEvent(tick=0, channel=0, data=[52, 0]),
   midi.NoteOnEvent(tick=12, channel=0, data=[44, 24]),
   midi.NoteOnEvent(tick=0, channel=0, data=[49, 24]),
   midi.NoteOnEvent(tick=0, channel=0, data=[52, 28]),
   midi.NoteOnEvent(tick=228, channel=0, data=[52, 0]),
   midi.NoteOnEvent(tick=0, channel=0, data=[49, 0]),
   midi.NoteOnEvent(tick=0, channel=0, data=[44, 0]),
   midi.NoteOnEvent(tick=12, channel=0, data=[44, 24]),
   midi.NoteOnEvent(tick=0, channel=0, data=[49, 24]),
   midi.NoteOnEvent(tick=0, channel=0, data=[52, 29]),
   midi.NoteOnEvent(tick=228, channel=0, data=[52, 0]),
   midi.NoteOnEvent(tick=0, channel=0, data=[49, 0]),
   midi.NoteOnEvent(tick=0, channel=0, data=[44, 0]),
   midi.NoteOnEvent(tick=12, channel=0, data=[44, 26]),
   midi.NoteOnEvent(tick=0, channel=0, data=[49, 26]),
   midi.NoteOnEvent(tick=0, channel=0, data=[52, 30]),
   midi.NoteOnEvent(tick=228, channel=0, data=[52, 0]),
   midi.NoteOnEvent(tick=0, channel=0, data=[49, 0]),
   midi.NoteOnEvent(tick=0, channel=0, data=[44, 0]),
   midi.NoteOnEvent(tick=12, channel=0, data=[52, 31]),
   midi.NoteOnEvent(tick=0, channel=0, data=[44, 26]),
   midi.NoteOnEvent(tick=0, channel=0, data=[49, 26]),
   midi.NoteOnEvent(tick=228, channel=0, data=[49, 0]),
   midi.NoteOnEvent(tick=0, channel=0, data=[44, 0]),
   midi.NoteOnEvent(tick=0, channel=0, data=[52, 0]),
   midi.NoteOnEvent(tick=12, channel=0, data=[44, 28]),
   midi.NoteOnEvent(tick=0, channel=0, data=[49, 28]),
   midi.NoteOnEvent(tick=0, channel=0, data=[52, 34]),
   midi.NoteOnEvent(tick=228, channel=0, data=[52, 0]),
   midi.NoteOnEvent(tick=0, channel=0, data=[49, 0]),
   midi.NoteOnEvent(tick=0, channel=0, data=[44, 0]),
   midi.NoteOnEvent(tick=12, channel=0, data=[49, 29]),
   midi.NoteOnEvent(tick=0, channel=0, data=[44, 29]),
   midi.NoteOnEvent(tick=0, channel=0, data=[52, 35]),
   midi.NoteOnEvent(tick=228, channel=0, data=[52, 0]),
   midi.NoteOnEvent(tick=0, channel=0, data=[44, 0]),
   midi.NoteOnEvent(tick=0, channel=0, data=[49, 0]),
   midi.NoteOnEvent(tick=12, channel=0, data=[44, 30]),
   midi.NoteOnEvent(tick=0, channel=0, data=[49, 30]),
   midi.NoteOnEvent(tick=0, channel=0, data=[52, 36]),
   midi.NoteOnEvent(tick=228, channel=0, data=[52, 0]),
   midi.NoteOnEvent(tick=0, channel=0, data=[49, 0]),
   midi.NoteOnEvent(tick=0, channel=0, data=[44, 0]),
   midi.NoteOnEvent(tick=12, channel=0, data=[52, 37]),
   midi.NoteOnEvent(tick=0, channel=0, data=[44, 30]),
   midi.NoteOnEvent(tick=0, channel=0, data=[49, 30]),
   midi.NoteOnEvent(tick=228, channel=0, data=[49, 0]),
   midi.NoteOnEvent(tick=0, channel=0, data=[44, 0]),
   midi.NoteOnEvent(tick=0, channel=0, data=[52, 0]),
   midi.NoteOnEvent(tick=12, channel=0, data=[44, 33]),
   midi.NoteOnEvent(tick=0, channel=0, data=[49, 33]),
   midi.NoteOnEvent(tick=0, channel=0, data=[52, 39]),
   midi.NoteOnEvent(tick=228, channel=0, data=[52, 0]),
   midi.NoteOnEvent(tick=0, channel=0, data=[49, 0]),
   midi.NoteOnEvent(tick=0, channel=0, data=[44, 0]),
   midi.NoteOnEvent(tick=12, channel=0, data=[52, 39]),
   midi.NoteOnEvent(tick=0, channel=0, data=[44, 34]),
   midi.NoteOnEvent(tick=0, channel=0, data=[49, 34]),
   midi.NoteOnEvent(tick=228, channel=0, data=[49, 0]),
   midi.NoteOnEvent(tick=0, channel=0, data=[44, 0]),
   midi.NoteOnEvent(tick=0, channel=0, data=[52, 0]),
   midi.NoteOnEvent(tick=12, channel=0, data=[33, 47]),
   midi.NoteOnEvent(tick=79, channel=0, data=[33, 0]),
   midi.NoteOnEvent(tick=12, channel=0, data=[52, 42]),
   midi.NoteOnEvent(tick=0, channel=0, data=[49, 35]),
   midi.NoteOnEvent(tick=0, channel=0, data=[45, 35]),
   midi.NoteOnEvent(tick=228, channel=0, data=[45, 0]),
   midi.NoteOnEvent(tick=0, channel=0, data=[49, 0]),
   midi.NoteOnEvent(tick=0, channel=0, data=[52, 0]),
   midi.NoteOnEvent(tick=12, channel=0, data=[45, 38]),
   midi.NoteOnEvent(tick=0, channel=0, data=[49, 38]),
   midi.NoteOnEvent(tick=0, channel=0, data=[52, 45]),
   midi.NoteOnEvent(tick=45, channel=0, data=[52, 0]),
   midi.NoteOnEvent(tick=0, channel=0, data=[49, 0]),
   midi.NoteOnEvent(tick=0, channel=0, data=[45, 0]),
   midi.NoteOnEvent(tick=12, channel=0, data=[52, 44]),
   midi.NoteOnEvent(tick=0, channel=0, data=[45, 36]),
   midi.NoteOnEvent(tick=0, channel=0, data=[49, 36]),
   midi.NoteOnEvent(tick=228, channel=0, data=[49, 0]),
   midi.NoteOnEvent(tick=0, channel=0, data=[45, 0]),
   midi.NoteOnEvent(tick=0, channel=0, data=[52, 0]),
   midi.NoteOnEvent(tick=12, channel=0, data=[52, 40]),
   midi.NoteOnEvent(tick=0, channel=0, data=[45, 34]),
   midi.NoteOnEvent(tick=0, channel=0, data=[49, 34]),
   midi.NoteOnEvent(tick=228, channel=0, data=[49, 0]),
   midi.NoteOnEvent(tick=0, channel=0, data=[45, 0]),
   midi.NoteOnEvent(tick=0, channel=0, data=[52, 0]),
   midi.NoteOnEvent(tick=12, channel=0, data=[52, 39]),
   midi.NoteOnEvent(tick=0, channel=0, data=[45, 33]),
   midi.NoteOnEvent(tick=0, channel=0, data=[49, 33]),
   midi.NoteOnEvent(tick=228, channel=0, data=[49, 0]),
   midi.NoteOnEvent(tick=0, channel=0, data=[45, 0]),
   midi.NoteOnEvent(tick=0, channel=0, data=[52, 0]),
   midi.NoteOnEvent(tick=12, channel=0, data=[52, 37]),
   midi.NoteOnEvent(tick=0, channel=0, data=[45, 30]),
   midi.NoteOnEvent(tick=0, channel=0, data=[49, 30]),
   midi.NoteOnEvent(tick=228, channel=0, data=[49, 0]),
   midi.NoteOnEvent(tick=0, channel=0, data=[45, 0]),
   midi.NoteOnEvent(tick=0, channel=0, data=[52, 0]),
   midi.NoteOnEvent(tick=12, channel=0, data=[45, 29]),
   midi.NoteOnEvent(tick=0, channel=0, data=[49, 29]),
   midi.NoteOnEvent(tick=0, channel=0, data=[52, 35]),
   midi.NoteOnEvent(tick=228, channel=0, data=[52, 0]),
   midi.NoteOnEvent(tick=0, channel=0, data=[49, 0]),
   midi.NoteOnEvent(tick=0, channel=0, data=[45, 0]),
   midi.NoteOnEvent(tick=12, channel=0, data=[51, 34]),
   midi.NoteOnEvent(tick=0, channel=0, data=[45, 28]),
   midi.NoteOnEvent(tick=79, channel=0, data=[45, 0]),
   midi.NoteOnEvent(tick=0, channel=0, data=[51, 0]),
   midi.NoteOnEvent(tick=12, channel=0, data=[51, 31]),
   midi.NoteOnEvent(tick=0, channel=0, data=[45, 26]),
   midi.NoteOnEvent(tick=228, channel=0, data=[45, 0]),
   midi.NoteOnEvent(tick=0, channel=0, data=[51, 0]),
   midi.NoteOnEvent(tick=12, channel=0, data=[51, 30]),
   midi.NoteOnEvent(tick=0, channel=0, data=[45, 25]),
   midi.NoteOnEvent(tick=228, channel=0, data=[45, 0]),
   midi.NoteOnEvent(tick=0, channel=0, data=[51, 0]),
   midi.NoteOnEvent(tick=12, channel=0, data=[51, 28]),
   midi.NoteOnEvent(tick=0, channel=0, data=[45, 24]),
   midi.NoteOnEvent(tick=228, channel=0, data=[45, 0]),
   midi.NoteOnEvent(tick=0, channel=0, data=[51, 0]),
   midi.NoteOnEvent(tick=12, channel=0, data=[32, 26]),
   midi.NoteOnEvent(tick=222, channel=0, data=[32, 0]),
   midi.NoteOnEvent(tick=0, channel=0, data=[44, 26]),
   midi.NoteOnEvent(tick=228, channel=0, data=[44, 0]),
   midi.NoteOnEvent(tick=12, channel=0, data=[48, 26]),
   midi.NoteOnEvent(tick=0, channel=0, data=[51, 26]),
   midi.NoteOnEvent(tick=0, channel=0, data=[44, 26]),
   midi.NoteOnEvent(tick=228, channel=0, data=[44, 0]),
   midi.NoteOnEvent(tick=0, channel=0, data=[51, 0]),
   midi.NoteOnEvent(tick=0, channel=0, data=[48, 0]),
   midi.NoteOnEvent(tick=12, channel=0, data=[48, 22]),
   midi.NoteOnEvent(tick=0, channel=0, data=[51, 26]),
   midi.NoteOnEvent(tick=0, channel=0, data=[44, 22]),
   midi.NoteOnEvent(tick=228, channel=0, data=[44, 0]),
   midi.NoteOnEvent(tick=0, channel=0, data=[51, 0]),
   midi.NoteOnEvent(tick=0, channel=0, data=[48, 0]),
   midi.NoteOnEvent(tick=12, channel=0, data=[48, 22]),
   midi.NoteOnEvent(tick=0, channel=0, data=[51, 26]),
   midi.NoteOnEvent(tick=0, channel=0, data=[44, 22]),
   midi.NoteOnEvent(tick=228, channel=0, data=[44, 0]),
   midi.NoteOnEvent(tick=0, channel=0, data=[51, 0]),
   midi.NoteOnEvent(tick=0, channel=0, data=[48, 0]),
   midi.NoteOnEvent(tick=12, channel=0, data=[48, 22]),
   midi.NoteOnEvent(tick=0, channel=0, data=[51, 26]),
   midi.NoteOnEvent(tick=0, channel=0, data=[44, 22]),
   midi.NoteOnEvent(tick=228, channel=0, data=[44, 0]),
   midi.NoteOnEvent(tick=0, channel=0, data=[51, 0]),
   midi.NoteOnEvent(tick=0, channel=0, data=[48, 0]),
   midi.NoteOnEvent(tick=12, channel=0, data=[48, 22]),
   midi.NoteOnEvent(tick=0, channel=0, data=[51, 26]),
   midi.NoteOnEvent(tick=0, channel=0, data=[44, 22]),
   midi.NoteOnEvent(tick=228, channel=0, data=[44, 0]),
   midi.NoteOnEvent(tick=0, channel=0, data=[51, 0]),
   midi.NoteOnEvent(tick=0, channel=0, data=[48, 0]),
   midi.NoteOnEvent(tick=12, channel=0, data=[48, 22]),
   midi.NoteOnEvent(tick=0, channel=0, data=[51, 26]),
   midi.NoteOnEvent(tick=0, channel=0, data=[44, 22]),
   midi.NoteOnEvent(tick=228, channel=0, data=[44, 0]),
   midi.NoteOnEvent(tick=0, channel=0, data=[51, 0]),
   midi.NoteOnEvent(tick=0, channel=0, data=[48, 0]),
   midi.NoteOnEvent(tick=12, channel=0, data=[48, 22]),
   midi.NoteOnEvent(tick=0, channel=0, data=[51, 26]),
   midi.NoteOnEvent(tick=0, channel=0, data=[44, 22]),
   midi.NoteOnEvent(tick=228, channel=0, data=[44, 0]),
   midi.NoteOnEvent(tick=0, channel=0, data=[51, 0]),
   midi.NoteOnEvent(tick=0, channel=0, data=[48, 0]),
   midi.NoteOnEvent(tick=12, channel=0, data=[48, 22]),
   midi.NoteOnEvent(tick=0, channel=0, data=[51, 26]),
   midi.NoteOnEvent(tick=0, channel=0, data=[44, 22]),
   midi.NoteOnEvent(tick=228, channel=0, data=[44, 0]),
   midi.NoteOnEvent(tick=0, channel=0, data=[51, 0]),
   midi.NoteOnEvent(tick=0, channel=0, data=[48, 0]),
   midi.NoteOnEvent(tick=12, channel=0, data=[48, 22]),
   midi.NoteOnEvent(tick=0, channel=0, data=[51, 26]),
   midi.NoteOnEvent(tick=0, channel=0, data=[44, 22]),
   midi.NoteOnEvent(tick=228, channel=0, data=[44, 0]),
   midi.NoteOnEvent(tick=0, channel=0, data=[51, 0]),
   midi.NoteOnEvent(tick=0, channel=0, data=[48, 0]),
   midi.NoteOnEvent(tick=12, channel=0, data=[48, 22]),
   midi.NoteOnEvent(tick=0, channel=0, data=[51, 26]),
   midi.NoteOnEvent(tick=0, channel=0, data=[44, 22]),
   midi.NoteOnEvent(tick=228, channel=0, data=[44, 0]),
   midi.NoteOnEvent(tick=0, channel=0, data=[51, 0]),
   midi.NoteOnEvent(tick=0, channel=0, data=[48, 0]),
   midi.NoteOnEvent(tick=12, channel=0, data=[32, 26]),
   midi.NoteOnEvent(tick=45, channel=0, data=[32, 0]),
   midi.NoteOnEvent(tick=12, channel=0, data=[54, 26]),
   midi.NoteOnEvent(tick=0, channel=0, data=[51, 22]),
   midi.NoteOnEvent(tick=0, channel=0, data=[44, 22]),
   midi.NoteOnEvent(tick=228, channel=0, data=[44, 0]),
   midi.NoteOnEvent(tick=0, channel=0, data=[51, 0]),
   midi.NoteOnEvent(tick=0, channel=0, data=[54, 0]),
   midi.NoteOnEvent(tick=12, channel=0, data=[54, 26]),
   midi.NoteOnEvent(tick=0, channel=0, data=[51, 22]),
   midi.NoteOnEvent(tick=0, channel=0, data=[44, 22]),
   midi.NoteOnEvent(tick=102, channel=0, data=[44, 0]),
   midi.NoteOnEvent(tick=0, channel=0, data=[51, 0]),
   midi.NoteOnEvent(tick=0, channel=0, data=[54, 0]),
   midi.NoteOnEvent(tick=12, channel=0, data=[54, 26]),
   midi.NoteOnEvent(tick=0, channel=0, data=[51, 22]),
   midi.NoteOnEvent(tick=0, channel=0, data=[44, 22]),
   midi.NoteOnEvent(tick=228, channel=0, data=[44, 0]),
   midi.NoteOnEvent(tick=0, channel=0, data=[51, 0]),
   midi.NoteOnEvent(tick=0, channel=0, data=[54, 0]),
   midi.NoteOnEvent(tick=12, channel=0, data=[44, 22]),
   midi.NoteOnEvent(tick=0, channel=0, data=[51, 22]),
   midi.NoteOnEvent(tick=0, channel=0, data=[54, 26]),
   midi.NoteOnEvent(tick=228, channel=0, data=[54, 0]),
   midi.NoteOnEvent(tick=0, channel=0, data=[51, 0]),
   midi.NoteOnEvent(tick=0, channel=0, data=[44, 0]),
   midi.NoteOnEvent(tick=12, channel=0, data=[51, 22]),
   midi.NoteOnEvent(tick=0, channel=0, data=[44, 22]),
   midi.NoteOnEvent(tick=0, channel=0, data=[54, 26]),
   midi.NoteOnEvent(tick=228, channel=0, data=[54, 0]),
   midi.NoteOnEvent(tick=0, channel=0, data=[44, 0]),
   midi.NoteOnEvent(tick=0, channel=0, data=[51, 0]),
   midi.NoteOnEvent(tick=12, channel=0, data=[44, 22]),
   midi.NoteOnEvent(tick=0, channel=0, data=[51, 22]),
   midi.NoteOnEvent(tick=0, channel=0, data=[54, 26]),
   midi.NoteOnEvent(tick=228, channel=0, data=[54, 0]),
   midi.NoteOnEvent(tick=0, channel=0, data=[51, 0]),
   midi.NoteOnEvent(tick=0, channel=0, data=[44, 0]),
   midi.NoteOnEvent(tick=12, channel=0, data=[54, 26]),
   midi.NoteOnEvent(tick=0, channel=0, data=[51, 22]),
   midi.NoteOnEvent(tick=0, channel=0, data=[44, 22]),
   midi.NoteOnEvent(tick=228, channel=0, data=[44, 0]),
   midi.NoteOnEvent(tick=0, channel=0, data=[51, 0]),
   midi.NoteOnEvent(tick=0, channel=0, data=[54, 0]),
   midi.NoteOnEvent(tick=12, channel=0, data=[54, 26]),
   midi.NoteOnEvent(tick=0, channel=0, data=[51, 22]),
   midi.NoteOnEvent(tick=0, channel=0, data=[44, 22]),
   midi.NoteOnEvent(tick=228, channel=0, data=[44, 0]),
   midi.NoteOnEvent(tick=0, channel=0, data=[51, 0]),
   midi.NoteOnEvent(tick=0, channel=0, data=[54, 0]),
   midi.NoteOnEvent(tick=12, channel=0, data=[54, 26]),
   midi.NoteOnEvent(tick=0, channel=0, data=[51, 22]),
   midi.NoteOnEvent(tick=0, channel=0, data=[44, 22]),
   midi.NoteOnEvent(tick=228, channel=0, data=[44, 0]),
   midi.NoteOnEvent(tick=0, channel=0, data=[51, 0]),
   midi.NoteOnEvent(tick=0, channel=0, data=[54, 0]),
   midi.NoteOnEvent(tick=12, channel=0, data=[44, 22]),
   midi.NoteOnEvent(tick=0, channel=0, data=[51, 22]),
   midi.NoteOnEvent(tick=0, channel=0, data=[54, 26]),
   midi.NoteOnEvent(tick=228, channel=0, data=[54, 0]),
   midi.NoteOnEvent(tick=0, channel=0, data=[51, 0]),
   midi.NoteOnEvent(tick=0, channel=0, data=[44, 0]),
   midi.NoteOnEvent(tick=12, channel=0, data=[51, 22]),
   midi.NoteOnEvent(tick=0, channel=0, data=[44, 22]),
   midi.NoteOnEvent(tick=0, channel=0, data=[54, 26]),
   midi.NoteOnEvent(tick=228, channel=0, data=[54, 0]),
   midi.NoteOnEvent(tick=0, channel=0, data=[44, 0]),
   midi.NoteOnEvent(tick=0, channel=0, data=[51, 0]),
   midi.NoteOnEvent(tick=12, channel=0, data=[32, 26]),
   midi.NoteOnEvent(tick=225, channel=0, data=[32, 0]),
   midi.NoteOnEvent(tick=12, channel=0, data=[52, 26]),
   midi.NoteOnEvent(tick=0, channel=0, data=[49, 22]),
   midi.NoteOnEvent(tick=0, channel=0, data=[44, 22]),
   midi.NoteOnEvent(tick=171, channel=0, data=[44, 0]),
   midi.NoteOnEvent(tick=0, channel=0, data=[49, 0]),
   midi.NoteOnEvent(tick=0, channel=0, data=[52, 0]),
   midi.NoteOnEvent(tick=12, channel=0, data=[44, 22]),
   midi.NoteOnEvent(tick=0, channel=0, data=[49, 22]),
   midi.NoteOnEvent(tick=0, channel=0, data=[52, 26]),
   midi.NoteOnEvent(tick=228, channel=0, data=[52, 0]),
   midi.NoteOnEvent(tick=0, channel=0, data=[49, 0]),
   midi.NoteOnEvent(tick=0, channel=0, data=[44, 0]),
   midi.NoteOnEvent(tick=12, channel=0, data=[44, 22]),
   midi.NoteOnEvent(tick=0, channel=0, data=[49, 22]),
   midi.NoteOnEvent(tick=0, channel=0, data=[52, 26]),
   midi.NoteOnEvent(tick=228, channel=0, data=[52, 0]),
   midi.NoteOnEvent(tick=0, channel=0, data=[49, 0]),
   midi.NoteOnEvent(tick=0, channel=0, data=[44, 0]),
   midi.NoteOnEvent(tick=12, channel=0, data=[44, 22]),
   midi.NoteOnEvent(tick=0, channel=0, data=[49, 22]),
   midi.NoteOnEvent(tick=0, channel=0, data=[52, 26]),
   midi.NoteOnEvent(tick=228, channel=0, data=[52, 0]),
   midi.NoteOnEvent(tick=0, channel=0, data=[49, 0]),
   midi.NoteOnEvent(tick=0, channel=0, data=[44, 0]),
   midi.NoteOnEvent(tick=12, channel=0, data=[44, 22]),
   midi.NoteOnEvent(tick=0, channel=0, data=[49, 22]),
   midi.NoteOnEvent(tick=0, channel=0, data=[52, 26]),
   midi.NoteOnEvent(tick=228, channel=0, data=[52, 0]),
   midi.NoteOnEvent(tick=0, channel=0, data=[49, 0]),
   midi.NoteOnEvent(tick=0, channel=0, data=[44, 0]),
   midi.NoteOnEvent(tick=12, channel=0, data=[44, 22]),
   midi.NoteOnEvent(tick=0, channel=0, data=[49, 22]),
   midi.NoteOnEvent(tick=0, channel=0, data=[52, 26]),
   midi.NoteOnEvent(tick=228, channel=0, data=[52, 0]),
   midi.NoteOnEvent(tick=0, channel=0, data=[49, 0]),
   midi.NoteOnEvent(tick=0, channel=0, data=[44, 0]),
   midi.NoteOnEvent(tick=12, channel=0, data=[49, 24]),
   midi.NoteOnEvent(tick=0, channel=0, data=[44, 24]),
   midi.NoteOnEvent(tick=0, channel=0, data=[52, 28]),
   midi.NoteOnEvent(tick=228, channel=0, data=[52, 0]),
   midi.NoteOnEvent(tick=0, channel=0, data=[44, 0]),
   midi.NoteOnEvent(tick=0, channel=0, data=[49, 0]),
   midi.NoteOnEvent(tick=12, channel=0, data=[44, 26]),
   midi.NoteOnEvent(tick=0, channel=0, data=[49, 26]),
   midi.NoteOnEvent(tick=0, channel=0, data=[52, 30]),
   midi.NoteOnEvent(tick=228, channel=0, data=[52, 0]),
   midi.NoteOnEvent(tick=0, channel=0, data=[49, 0]),
   midi.NoteOnEvent(tick=0, channel=0, data=[44, 0]),
   midi.NoteOnEvent(tick=12, channel=0, data=[44, 29]),
   midi.NoteOnEvent(tick=0, channel=0, data=[49, 29]),
   midi.NoteOnEvent(tick=0, channel=0, data=[52, 35]),
   midi.NoteOnEvent(tick=228, channel=0, data=[52, 0]),
   midi.NoteOnEvent(tick=0, channel=0, data=[49, 0]),
   midi.NoteOnEvent(tick=0, channel=0, data=[44, 0]),
   midi.NoteOnEvent(tick=12, channel=0, data=[44, 30]),
   midi.NoteOnEvent(tick=0, channel=0, data=[49, 30]),
   midi.NoteOnEvent(tick=0, channel=0, data=[52, 37]),
   midi.NoteOnEvent(tick=228, channel=0, data=[52, 0]),
   midi.NoteOnEvent(tick=0, channel=0, data=[49, 0]),
   midi.NoteOnEvent(tick=0, channel=0, data=[44, 0]),
   midi.NoteOnEvent(tick=12, channel=0, data=[44, 34]),
   midi.NoteOnEvent(tick=0, channel=0, data=[49, 34]),
   midi.NoteOnEvent(tick=0, channel=0, data=[52, 39]),
   midi.NoteOnEvent(tick=228, channel=0, data=[52, 0]),
   midi.NoteOnEvent(tick=0, channel=0, data=[49, 0]),
   midi.NoteOnEvent(tick=0, channel=0, data=[44, 0]),
   midi.NoteOnEvent(tick=12, channel=0, data=[33, 41]),
   midi.NoteOnEvent(tick=56, channel=0, data=[33, 0]),
   midi.NoteOnEvent(tick=12, channel=0, data=[52, 41]),
   midi.NoteOnEvent(tick=0, channel=0, data=[49, 35]),
   midi.NoteOnEvent(tick=0, channel=0, data=[45, 35]),
   midi.NoteOnEvent(tick=228, channel=0, data=[45, 0]),
   midi.NoteOnEvent(tick=0, channel=0, data=[49, 0]),
   midi.NoteOnEvent(tick=0, channel=0, data=[52, 0]),
   midi.NoteOnEvent(tick=12, channel=0, data=[45, 36]),
   midi.NoteOnEvent(tick=0, channel=0, data=[49, 36]),
   midi.NoteOnEvent(tick=0, channel=0, data=[52, 44]),
   midi.NoteOnEvent(tick=91, channel=0, data=[52, 0]),
   midi.NoteOnEvent(tick=0, channel=0, data=[49, 0]),
   midi.NoteOnEvent(tick=0, channel=0, data=[45, 0]),
   midi.NoteOnEvent(tick=12, channel=0, data=[45, 35]),
   midi.NoteOnEvent(tick=0, channel=0, data=[49, 35]),
   midi.NoteOnEvent(tick=0, channel=0, data=[52, 42]),
   midi.NoteOnEvent(tick=228, channel=0, data=[52, 0]),
   midi.NoteOnEvent(tick=0, channel=0, data=[49, 0]),
   midi.NoteOnEvent(tick=0, channel=0, data=[45, 0]),
   midi.NoteOnEvent(tick=12, channel=0, data=[45, 34]),
   midi.NoteOnEvent(tick=0, channel=0, data=[49, 34]),
   midi.NoteOnEvent(tick=0, channel=0, data=[52, 40]),
   midi.NoteOnEvent(tick=228, channel=0, data=[52, 0]),
   midi.NoteOnEvent(tick=0, channel=0, data=[49, 0]),
   midi.NoteOnEvent(tick=0, channel=0, data=[45, 0]),
   midi.NoteOnEvent(tick=12, channel=0, data=[45, 33]),
   midi.NoteOnEvent(tick=0, channel=0, data=[49, 33]),
   midi.NoteOnEvent(tick=0, channel=0, data=[52, 39]),
   midi.NoteOnEvent(tick=228, channel=0, data=[52, 0]),
   midi.NoteOnEvent(tick=0, channel=0, data=[49, 0]),
   midi.NoteOnEvent(tick=0, channel=0, data=[45, 0]),
   midi.NoteOnEvent(tick=12, channel=0, data=[45, 30]),
   midi.NoteOnEvent(tick=0, channel=0, data=[49, 30]),
   midi.NoteOnEvent(tick=0, channel=0, data=[52, 37]),
   midi.NoteOnEvent(tick=228, channel=0, data=[52, 0]),
   midi.NoteOnEvent(tick=0, channel=0, data=[49, 0]),
   midi.NoteOnEvent(tick=0, channel=0, data=[45, 0]),
   midi.NoteOnEvent(tick=12, channel=0, data=[45, 29]),
   midi.NoteOnEvent(tick=0, channel=0, data=[49, 29]),
   midi.NoteOnEvent(tick=0, channel=0, data=[52, 35]),
   midi.NoteOnEvent(tick=228, channel=0, data=[52, 0]),
   midi.NoteOnEvent(tick=0, channel=0, data=[49, 0]),
   midi.NoteOnEvent(tick=0, channel=0, data=[45, 0]),
   midi.NoteOnEvent(tick=12, channel=0, data=[45, 28]),
   midi.NoteOnEvent(tick=0, channel=0, data=[49, 28]),
   midi.NoteOnEvent(tick=0, channel=0, data=[52, 34]),
   midi.NoteOnEvent(tick=104, channel=0, data=[52, 0]),
   midi.NoteOnEvent(tick=0, channel=0, data=[49, 0]),
   midi.NoteOnEvent(tick=0, channel=0, data=[45, 0]),
   midi.NoteOnEvent(tick=12, channel=0, data=[45, 26]),
   midi.NoteOnEvent(tick=0, channel=0, data=[49, 26]),
   midi.NoteOnEvent(tick=0, channel=0, data=[52, 31]),
   midi.NoteOnEvent(tick=228, channel=0, data=[52, 0]),
   midi.NoteOnEvent(tick=0, channel=0, data=[49, 0]),
   midi.NoteOnEvent(tick=0, channel=0, data=[45, 0]),
   midi.NoteOnEvent(tick=12, channel=0, data=[45, 25]),
   midi.NoteOnEvent(tick=0, channel=0, data=[49, 25]),
   midi.NoteOnEvent(tick=0, channel=0, data=[52, 30]),
   midi.NoteOnEvent(tick=228, channel=0, data=[52, 0]),
   midi.NoteOnEvent(tick=0, channel=0, data=[49, 0]),
   midi.NoteOnEvent(tick=0, channel=0, data=[45, 0]),
   midi.NoteOnEvent(tick=12, channel=0, data=[45, 24]),
   midi.NoteOnEvent(tick=0, channel=0, data=[49, 24]),
   midi.NoteOnEvent(tick=0, channel=0, data=[52, 28]),
   midi.NoteOnEvent(tick=228, channel=0, data=[52, 0]),
   midi.NoteOnEvent(tick=0, channel=0, data=[49, 0]),
   midi.NoteOnEvent(tick=0, channel=0, data=[45, 0]),
   midi.NoteOnEvent(tick=12, channel=0, data=[32, 27]),
   midi.NoteOnEvent(tick=16, channel=0, data=[32, 0]),
   midi.NoteOnEvent(tick=12, channel=0, data=[52, 26]),
   midi.NoteOnEvent(tick=0, channel=0, data=[49, 22]),
   midi.NoteOnEvent(tick=0, channel=0, data=[44, 22]),
   midi.NoteOnEvent(tick=228, channel=0, data=[44, 0]),
   midi.NoteOnEvent(tick=0, channel=0, data=[49, 0]),
   midi.NoteOnEvent(tick=0, channel=0, data=[52, 0]),
   midi.NoteOnEvent(tick=12, channel=0, data=[52, 26]),
   midi.NoteOnEvent(tick=0, channel=0, data=[49, 22]),
   midi.NoteOnEvent(tick=0, channel=0, data=[44, 22]),
   midi.NoteOnEvent(tick=228, channel=0, data=[44, 0]),
   midi.NoteOnEvent(tick=0, channel=0, data=[49, 0]),
   midi.NoteOnEvent(tick=0, channel=0, data=[52, 0]),
   midi.NoteOnEvent(tick=12, channel=0, data=[52, 26]),
   midi.NoteOnEvent(tick=0, channel=0, data=[49, 22]),
   midi.NoteOnEvent(tick=0, channel=0, data=[44, 22]),
   midi.NoteOnEvent(tick=228, channel=0, data=[44, 0]),
   midi.NoteOnEvent(tick=0, channel=0, data=[49, 0]),
   midi.NoteOnEvent(tick=0, channel=0, data=[52, 0]),
   midi.NoteOnEvent(tick=12, channel=0, data=[52, 26]),
   midi.NoteOnEvent(tick=0, channel=0, data=[49, 22]),
   midi.NoteOnEvent(tick=0, channel=0, data=[44, 22]),
   midi.NoteOnEvent(tick=228, channel=0, data=[44, 0]),
   midi.NoteOnEvent(tick=0, channel=0, data=[49, 0]),
   midi.NoteOnEvent(tick=0, channel=0, data=[52, 0]),
   midi.NoteOnEvent(tick=12, channel=0, data=[52, 26]),
   midi.NoteOnEvent(tick=0, channel=0, data=[49, 22]),
   midi.NoteOnEvent(tick=0, channel=0, data=[44, 22]),
   midi.NoteOnEvent(tick=228, channel=0, data=[44, 0]),
   midi.NoteOnEvent(tick=0, channel=0, data=[49, 0]),
   midi.NoteOnEvent(tick=0, channel=0, data=[52, 0]),
   midi.NoteOnEvent(tick=12, channel=0, data=[32, 26]),
   midi.NoteOnEvent(tick=225, channel=0, data=[32, 0]),
   midi.NoteOnEvent(tick=11, channel=0, data=[51, 24]),
   midi.NoteOnEvent(tick=0, channel=0, data=[48, 19]),
   midi.NoteOnEvent(tick=0, channel=0, data=[44, 19]),
   midi.NoteOnEvent(tick=228, channel=0, data=[44, 0]),
   midi.NoteOnEvent(tick=0, channel=0, data=[48, 0]),
   midi.NoteOnEvent(tick=0, channel=0, data=[51, 0]),
   midi.NoteOnEvent(tick=12, channel=0, data=[51, 24]),
   midi.NoteOnEvent(tick=0, channel=0, data=[48, 19]),
   midi.NoteOnEvent(tick=0, channel=0, data=[44, 19]),
   midi.NoteOnEvent(tick=228, channel=0, data=[44, 0]),
   midi.NoteOnEvent(tick=0, channel=0, data=[48, 0]),
   midi.NoteOnEvent(tick=0, channel=0, data=[51, 0]),
   midi.NoteOnEvent(tick=12, channel=0, data=[51, 22]),
   midi.NoteOnEvent(tick=0, channel=0, data=[48, 18]),
   midi.NoteOnEvent(tick=0, channel=0, data=[44, 18]),
   midi.NoteOnEvent(tick=228, channel=0, data=[44, 0]),
   midi.NoteOnEvent(tick=0, channel=0, data=[48, 0]),
   midi.NoteOnEvent(tick=0, channel=0, data=[51, 0]),
   midi.NoteOnEvent(tick=12, channel=0, data=[51, 22]),
   midi.NoteOnEvent(tick=0, channel=0, data=[48, 17]),
   midi.NoteOnEvent(tick=0, channel=0, data=[44, 17]),
   midi.NoteOnEvent(tick=228, channel=0, data=[44, 0]),
   midi.NoteOnEvent(tick=0, channel=0, data=[48, 0]),
   midi.NoteOnEvent(tick=0, channel=0, data=[51, 0]),
   midi.NoteOnEvent(tick=12, channel=0, data=[51, 22]),
   midi.NoteOnEvent(tick=0, channel=0, data=[48, 17]),
   midi.NoteOnEvent(tick=0, channel=0, data=[44, 17]),
   midi.NoteOnEvent(tick=228, channel=0, data=[44, 0]),
   midi.NoteOnEvent(tick=0, channel=0, data=[48, 0]),
   midi.NoteOnEvent(tick=0, channel=0, data=[51, 0]),
   midi.NoteOnEvent(tick=12, channel=0, data=[37, 42]),
   midi.NoteOnEvent(tick=22, channel=0, data=[37, 0]),
   midi.NoteOnEvent(tick=12, channel=0, data=[53, 26]),
   midi.NoteOnEvent(tick=0, channel=0, data=[49, 22]),
   midi.NoteOnEvent(tick=0, channel=0, data=[44, 22]),
   midi.NoteOnEvent(tick=228, channel=0, data=[44, 0]),
   midi.NoteOnEvent(tick=0, channel=0, data=[49, 0]),
   midi.NoteOnEvent(tick=0, channel=0, data=[53, 0]),
   midi.NoteOnEvent(tick=12, channel=0, data=[53, 26]),
   midi.NoteOnEvent(tick=0, channel=0, data=[44, 22]),
   midi.NoteOnEvent(tick=0, channel=0, data=[49, 22]),
   midi.NoteOnEvent(tick=228, channel=0, data=[49, 0]),
   midi.NoteOnEvent(tick=0, channel=0, data=[44, 0]),
   midi.NoteOnEvent(tick=0, channel=0, data=[53, 0]),
   midi.NoteOnEvent(tick=12, channel=0, data=[53, 26]),
   midi.NoteOnEvent(tick=0, channel=0, data=[44, 22]),
   midi.NoteOnEvent(tick=0, channel=0, data=[49, 22]),
   midi.NoteOnEvent(tick=228, channel=0, data=[49, 0]),
   midi.NoteOnEvent(tick=0, channel=0, data=[44, 0]),
   midi.NoteOnEvent(tick=0, channel=0, data=[53, 0]),
   midi.NoteOnEvent(tick=12, channel=0, data=[53, 26]),
   midi.NoteOnEvent(tick=0, channel=0, data=[44, 22]),
   midi.NoteOnEvent(tick=0, channel=0, data=[49, 22]),
   midi.NoteOnEvent(tick=228, channel=0, data=[49, 0]),
   midi.NoteOnEvent(tick=0, channel=0, data=[44, 0]),
   midi.NoteOnEvent(tick=0, channel=0, data=[53, 0]),
   midi.NoteOnEvent(tick=12, channel=0, data=[53, 26]),
   midi.NoteOnEvent(tick=0, channel=0, data=[44, 22]),
   midi.NoteOnEvent(tick=0, channel=0, data=[49, 22]),
   midi.NoteOnEvent(tick=228, channel=0, data=[49, 0]),
   midi.NoteOnEvent(tick=0, channel=0, data=[44, 0]),
   midi.NoteOnEvent(tick=0, channel=0, data=[53, 0]),
   midi.NoteOnEvent(tick=12, channel=0, data=[53, 26]),
   midi.NoteOnEvent(tick=0, channel=0, data=[44, 22]),
   midi.NoteOnEvent(tick=0, channel=0, data=[49, 22]),
   midi.NoteOnEvent(tick=79, channel=0, data=[49, 0]),
   midi.NoteOnEvent(tick=0, channel=0, data=[44, 0]),
   midi.NoteOnEvent(tick=0, channel=0, data=[53, 0]),
   midi.NoteOnEvent(tick=12, channel=0, data=[53, 26]),
   midi.NoteOnEvent(tick=0, channel=0, data=[44, 22]),
   midi.NoteOnEvent(tick=0, channel=0, data=[49, 22]),
   midi.NoteOnEvent(tick=228, channel=0, data=[49, 0]),
   midi.NoteOnEvent(tick=0, channel=0, data=[44, 0]),
   midi.NoteOnEvent(tick=0, channel=0, data=[53, 0]),
   midi.NoteOnEvent(tick=12, channel=0, data=[53, 26]),
   midi.NoteOnEvent(tick=0, channel=0, data=[44, 22]),
   midi.NoteOnEvent(tick=0, channel=0, data=[49, 22]),
   midi.NoteOnEvent(tick=228, channel=0, data=[49, 0]),
   midi.NoteOnEvent(tick=0, channel=0, data=[44, 0]),
   midi.NoteOnEvent(tick=0, channel=0, data=[53, 0]),
   midi.NoteOnEvent(tick=12, channel=0, data=[53, 26]),
   midi.NoteOnEvent(tick=0, channel=0, data=[44, 22]),
   midi.NoteOnEvent(tick=0, channel=0, data=[49, 22]),
   midi.NoteOnEvent(tick=228, channel=0, data=[49, 0]),
   midi.NoteOnEvent(tick=0, channel=0, data=[44, 0]),
   midi.NoteOnEvent(tick=0, channel=0, data=[53, 0]),
   midi.NoteOnEvent(tick=12, channel=0, data=[53, 26]),
   midi.NoteOnEvent(tick=0, channel=0, data=[44, 22]),
   midi.NoteOnEvent(tick=0, channel=0, data=[49, 22]),
   midi.NoteOnEvent(tick=228, channel=0, data=[49, 0]),
   midi.NoteOnEvent(tick=0, channel=0, data=[44, 0]),
   midi.NoteOnEvent(tick=0, channel=0, data=[53, 0]),
   midi.NoteOnEvent(tick=12, channel=0, data=[53, 26]),
   midi.NoteOnEvent(tick=0, channel=0, data=[49, 22]),
   midi.NoteOnEvent(tick=0, channel=0, data=[44, 22]),
   midi.NoteOnEvent(tick=228, channel=0, data=[44, 0]),
   midi.NoteOnEvent(tick=0, channel=0, data=[49, 0]),
   midi.NoteOnEvent(tick=0, channel=0, data=[53, 0]),
   midi.NoteOnEvent(tick=12, channel=0, data=[36, 41]),
   midi.NoteOnEvent(tick=11, channel=0, data=[36, 0]),
   midi.NoteOnEvent(tick=12, channel=0, data=[51, 22]),
   midi.NoteOnEvent(tick=0, channel=0, data=[54, 26]),
   midi.NoteOnEvent(tick=0, channel=0, data=[44, 22]),
   midi.NoteOnEvent(tick=228, channel=0, data=[44, 0]),
   midi.NoteOnEvent(tick=0, channel=0, data=[54, 0]),
   midi.NoteOnEvent(tick=0, channel=0, data=[51, 0]),
   midi.NoteOnEvent(tick=12, channel=0, data=[44, 22]),
   midi.NoteOnEvent(tick=0, channel=0, data=[51, 22]),
   midi.NoteOnEvent(tick=0, channel=0, data=[54, 26]),
   midi.NoteOnEvent(tick=228, channel=0, data=[54, 0]),
   midi.NoteOnEvent(tick=0, channel=0, data=[51, 0]),
   midi.NoteOnEvent(tick=0, channel=0, data=[44, 0]),
   midi.NoteOnEvent(tick=12, channel=0, data=[44, 22]),
   midi.NoteOnEvent(tick=0, channel=0, data=[51, 22]),
   midi.NoteOnEvent(tick=0, channel=0, data=[54, 26]),
   midi.NoteOnEvent(tick=228, channel=0, data=[54, 0]),
   midi.NoteOnEvent(tick=0, channel=0, data=[51, 0]),
   midi.NoteOnEvent(tick=0, channel=0, data=[44, 0]),
   midi.NoteOnEvent(tick=12, channel=0, data=[44, 22]),
   midi.NoteOnEvent(tick=0, channel=0, data=[51, 22]),
   midi.NoteOnEvent(tick=0, channel=0, data=[54, 26]),
   midi.NoteOnEvent(tick=228, channel=0, data=[54, 0]),
   midi.NoteOnEvent(tick=0, channel=0, data=[51, 0]),
   midi.NoteOnEvent(tick=0, channel=0, data=[44, 0]),
   midi.NoteOnEvent(tick=12, channel=0, data=[44, 22]),
   midi.NoteOnEvent(tick=0, channel=0, data=[51, 22]),
   midi.NoteOnEvent(tick=0, channel=0, data=[54, 26]),
   midi.NoteOnEvent(tick=228, channel=0, data=[54, 0]),
   midi.NoteOnEvent(tick=0, channel=0, data=[51, 0]),
   midi.NoteOnEvent(tick=0, channel=0, data=[44, 0]),
   midi.NoteOnEvent(tick=12, channel=0, data=[44, 22]),
   midi.NoteOnEvent(tick=0, channel=0, data=[51, 22]),
   midi.NoteOnEvent(tick=0, channel=0, data=[54, 26]),
   midi.NoteOnEvent(tick=222, channel=0, data=[54, 0]),
   midi.NoteOnEvent(tick=0, channel=0, data=[51, 0]),
   midi.NoteOnEvent(tick=0, channel=0, data=[44, 0]),
   midi.NoteOnEvent(tick=12, channel=0, data=[44, 22]),
   midi.NoteOnEvent(tick=0, channel=0, data=[51, 22]),
   midi.NoteOnEvent(tick=0, channel=0, data=[54, 26]),
   midi.NoteOnEvent(tick=200, channel=0, data=[54, 0]),
   midi.NoteOnEvent(tick=0, channel=0, data=[51, 0]),
   midi.NoteOnEvent(tick=0, channel=0, data=[44, 0]),
   midi.NoteOnEvent(tick=12, channel=0, data=[44, 22]),
   midi.NoteOnEvent(tick=0, channel=0, data=[51, 22]),
   midi.NoteOnEvent(tick=0, channel=0, data=[54, 26]),
   midi.NoteOnEvent(tick=228, channel=0, data=[54, 0]),
   midi.NoteOnEvent(tick=0, channel=0, data=[51, 0]),
   midi.NoteOnEvent(tick=0, channel=0, data=[44, 0]),
   midi.NoteOnEvent(tick=12, channel=0, data=[44, 22]),
   midi.NoteOnEvent(tick=0, channel=0, data=[51, 22]),
   midi.NoteOnEvent(tick=0, channel=0, data=[54, 26]),
   midi.NoteOnEvent(tick=228, channel=0, data=[54, 0]),
   midi.NoteOnEvent(tick=0, channel=0, data=[51, 0]),
   midi.NoteOnEvent(tick=0, channel=0, data=[44, 0]),
   midi.NoteOnEvent(tick=12, channel=0, data=[51, 22]),
   midi.NoteOnEvent(tick=0, channel=0, data=[44, 22]),
   midi.NoteOnEvent(tick=0, channel=0, data=[54, 26]),
   midi.NoteOnEvent(tick=228, channel=0, data=[54, 0]),
   midi.NoteOnEvent(tick=0, channel=0, data=[44, 0]),
   midi.NoteOnEvent(tick=0, channel=0, data=[51, 0]),
   midi.NoteOnEvent(tick=12, channel=0, data=[44, 22]),
   midi.NoteOnEvent(tick=0, channel=0, data=[51, 22]),
   midi.NoteOnEvent(tick=0, channel=0, data=[54, 26]),
   midi.NoteOnEvent(tick=228, channel=0, data=[54, 0]),
   midi.NoteOnEvent(tick=0, channel=0, data=[51, 0]),
   midi.NoteOnEvent(tick=0, channel=0, data=[44, 0]),
   midi.NoteOnEvent(tick=12, channel=0, data=[37, 40]),
   midi.NoteOnEvent(tick=45, channel=0, data=[37, 0]),
   midi.NoteOnEvent(tick=12, channel=0, data=[53, 26]),
   midi.NoteOnEvent(tick=0, channel=0, data=[49, 22]),
   midi.NoteOnEvent(tick=0, channel=0, data=[44, 22]),
   midi.NoteOnEvent(tick=228, channel=0, data=[44, 0]),
   midi.NoteOnEvent(tick=0, channel=0, data=[49, 0]),
   midi.NoteOnEvent(tick=0, channel=0, data=[53, 0]),
   midi.NoteOnEvent(tick=12, channel=0, data=[53, 26]),
   midi.NoteOnEvent(tick=0, channel=0, data=[44, 22]),
   midi.NoteOnEvent(tick=0, channel=0, data=[49, 22]),
   midi.NoteOnEvent(tick=228, channel=0, data=[49, 0]),
   midi.NoteOnEvent(tick=0, channel=0, data=[44, 0]),
   midi.NoteOnEvent(tick=0, channel=0, data=[53, 0]),
   midi.NoteOnEvent(tick=12, channel=0, data=[53, 26]),
   midi.NoteOnEvent(tick=0, channel=0, data=[44, 22]),
   midi.NoteOnEvent(tick=0, channel=0, data=[49, 22]),
   midi.NoteOnEvent(tick=228, channel=0, data=[49, 0]),
   midi.NoteOnEvent(tick=0, channel=0, data=[44, 0]),
   midi.NoteOnEvent(tick=0, channel=0, data=[53, 0]),
   midi.NoteOnEvent(tick=12, channel=0, data=[53, 26]),
   midi.NoteOnEvent(tick=0, channel=0, data=[44, 22]),
   midi.NoteOnEvent(tick=0, channel=0, data=[49, 22]),
   midi.NoteOnEvent(tick=228, channel=0, data=[49, 0]),
   midi.NoteOnEvent(tick=0, channel=0, data=[44, 0]),
   midi.NoteOnEvent(tick=0, channel=0, data=[53, 0]),
   midi.NoteOnEvent(tick=12, channel=0, data=[53, 26]),
   midi.NoteOnEvent(tick=0, channel=0, data=[44, 22]),
   midi.NoteOnEvent(tick=0, channel=0, data=[49, 22]),
   midi.NoteOnEvent(tick=228, channel=0, data=[49, 0]),
   midi.NoteOnEvent(tick=0, channel=0, data=[44, 0]),
   midi.NoteOnEvent(tick=0, channel=0, data=[53, 0]),
   midi.NoteOnEvent(tick=12, channel=0, data=[53, 26]),
   midi.NoteOnEvent(tick=0, channel=0, data=[44, 22]),
   midi.NoteOnEvent(tick=0, channel=0, data=[49, 22]),
   midi.NoteOnEvent(tick=33, channel=0, data=[49, 0]),
   midi.NoteOnEvent(tick=0, channel=0, data=[44, 0]),
   midi.NoteOnEvent(tick=0, channel=0, data=[53, 0]),
   midi.NoteOnEvent(tick=12, channel=0, data=[53, 26]),
   midi.NoteOnEvent(tick=0, channel=0, data=[44, 22]),
   midi.NoteOnEvent(tick=0, channel=0, data=[49, 22]),
   midi.NoteOnEvent(tick=228, channel=0, data=[49, 0]),
   midi.NoteOnEvent(tick=0, channel=0, data=[44, 0]),
   midi.NoteOnEvent(tick=0, channel=0, data=[53, 0]),
   midi.NoteOnEvent(tick=12, channel=0, data=[53, 26]),
   midi.NoteOnEvent(tick=0, channel=0, data=[44, 22]),
   midi.NoteOnEvent(tick=0, channel=0, data=[49, 22]),
   midi.NoteOnEvent(tick=228, channel=0, data=[49, 0]),
   midi.NoteOnEvent(tick=0, channel=0, data=[44, 0]),
   midi.NoteOnEvent(tick=0, channel=0, data=[53, 0]),
   midi.NoteOnEvent(tick=12, channel=0, data=[53, 26]),
   midi.NoteOnEvent(tick=0, channel=0, data=[44, 22]),
   midi.NoteOnEvent(tick=0, channel=0, data=[49, 22]),
   midi.NoteOnEvent(tick=228, channel=0, data=[49, 0]),
   midi.NoteOnEvent(tick=0, channel=0, data=[44, 0]),
   midi.NoteOnEvent(tick=0, channel=0, data=[53, 0]),
   midi.NoteOnEvent(tick=12, channel=0, data=[53, 26]),
   midi.NoteOnEvent(tick=0, channel=0, data=[44, 22]),
   midi.NoteOnEvent(tick=0, channel=0, data=[49, 22]),
   midi.NoteOnEvent(tick=228, channel=0, data=[49, 0]),
   midi.NoteOnEvent(tick=0, channel=0, data=[44, 0]),
   midi.NoteOnEvent(tick=0, channel=0, data=[53, 0]),
   midi.NoteOnEvent(tick=12, channel=0, data=[53, 26]),
   midi.NoteOnEvent(tick=0, channel=0, data=[49, 22]),
   midi.NoteOnEvent(tick=0, channel=0, data=[44, 22]),
   midi.NoteOnEvent(tick=228, channel=0, data=[44, 0]),
   midi.NoteOnEvent(tick=0, channel=0, data=[49, 0]),
   midi.NoteOnEvent(tick=0, channel=0, data=[53, 0]),
   midi.NoteOnEvent(tick=12, channel=0, data=[39, 39]),
   midi.NoteOnEvent(tick=224, channel=0, data=[39, 0]),
   midi.NoteOnEvent(tick=12, channel=0, data=[51, 22]),
   midi.NoteOnEvent(tick=0, channel=0, data=[54, 26]),
   midi.NoteOnEvent(tick=0, channel=0, data=[44, 22]),
   midi.NoteOnEvent(tick=214, channel=0, data=[44, 0]),
   midi.NoteOnEvent(tick=0, channel=0, data=[54, 0]),
   midi.NoteOnEvent(tick=0, channel=0, data=[51, 0]),
   midi.NoteOnEvent(tick=12, channel=0, data=[44, 22]),
   midi.NoteOnEvent(tick=0, channel=0, data=[51, 22]),
   midi.NoteOnEvent(tick=0, channel=0, data=[54, 26]),
   midi.NoteOnEvent(tick=228, channel=0, data=[54, 0]),
   midi.NoteOnEvent(tick=0, channel=0, data=[51, 0]),
   midi.NoteOnEvent(tick=0, channel=0, data=[44, 0]),
   midi.NoteOnEvent(tick=12, channel=0, data=[44, 22]),
   midi.NoteOnEvent(tick=0, channel=0, data=[51, 22]),
   midi.NoteOnEvent(tick=0, channel=0, data=[54, 26]),
   midi.NoteOnEvent(tick=228, channel=0, data=[54, 0]),
   midi.NoteOnEvent(tick=0, channel=0, data=[51, 0]),
   midi.NoteOnEvent(tick=0, channel=0, data=[44, 0]),
   midi.NoteOnEvent(tick=12, channel=0, data=[44, 22]),
   midi.NoteOnEvent(tick=0, channel=0, data=[51, 22]),
   midi.NoteOnEvent(tick=0, channel=0, data=[54, 26]),
   midi.NoteOnEvent(tick=228, channel=0, data=[54, 0]),
   midi.NoteOnEvent(tick=0, channel=0, data=[51, 0]),
   midi.NoteOnEvent(tick=0, channel=0, data=[44, 0]),
   midi.NoteOnEvent(tick=12, channel=0, data=[44, 22]),
   midi.NoteOnEvent(tick=0, channel=0, data=[51, 22]),
   midi.NoteOnEvent(tick=0, channel=0, data=[54, 26]),
   midi.NoteOnEvent(tick=228, channel=0, data=[54, 0]),
   midi.NoteOnEvent(tick=0, channel=0, data=[51, 0]),
   midi.NoteOnEvent(tick=0, channel=0, data=[44, 0]),
   midi.NoteOnEvent(tick=12, channel=0, data=[44, 22]),
   midi.NoteOnEvent(tick=0, channel=0, data=[51, 22]),
   midi.NoteOnEvent(tick=0, channel=0, data=[54, 26]),
   midi.NoteOnEvent(tick=56, channel=0, data=[54, 0]),
   midi.NoteOnEvent(tick=0, channel=0, data=[51, 0]),
   midi.NoteOnEvent(tick=0, channel=0, data=[44, 0]),
   midi.NoteOnEvent(tick=12, channel=0, data=[44, 22]),
   midi.NoteOnEvent(tick=0, channel=0, data=[51, 22]),
   midi.NoteOnEvent(tick=0, channel=0, data=[54, 26]),
   midi.NoteOnEvent(tick=228, channel=0, data=[54, 0]),
   midi.NoteOnEvent(tick=0, channel=0, data=[51, 0]),
   midi.NoteOnEvent(tick=0, channel=0, data=[44, 0]),
   midi.NoteOnEvent(tick=12, channel=0, data=[44, 22]),
   midi.NoteOnEvent(tick=0, channel=0, data=[51, 22]),
   midi.NoteOnEvent(tick=0, channel=0, data=[54, 26]),
   midi.NoteOnEvent(tick=228, channel=0, data=[54, 0]),
   midi.NoteOnEvent(tick=0, channel=0, data=[51, 0]),
   midi.NoteOnEvent(tick=0, channel=0, data=[44, 0]),
   midi.NoteOnEvent(tick=12, channel=0, data=[44, 22]),
   midi.NoteOnEvent(tick=0, channel=0, data=[51, 22]),
   midi.NoteOnEvent(tick=0, channel=0, data=[54, 26]),
   midi.NoteOnEvent(tick=228, channel=0, data=[54, 0]),
   midi.NoteOnEvent(tick=0, channel=0, data=[51, 0]),
   midi.NoteOnEvent(tick=0, channel=0, data=[44, 0]),
   midi.NoteOnEvent(tick=12, channel=0, data=[51, 22]),
   midi.NoteOnEvent(tick=0, channel=0, data=[44, 22]),
   midi.NoteOnEvent(tick=0, channel=0, data=[54, 26]),
   midi.NoteOnEvent(tick=228, channel=0, data=[54, 0]),
   midi.NoteOnEvent(tick=0, channel=0, data=[44, 0]),
   midi.NoteOnEvent(tick=0, channel=0, data=[51, 0]),
   midi.NoteOnEvent(tick=12, channel=0, data=[44, 22]),
   midi.NoteOnEvent(tick=0, channel=0, data=[51, 22]),
   midi.NoteOnEvent(tick=0, channel=0, data=[54, 26]),
   midi.NoteOnEvent(tick=228, channel=0, data=[54, 0]),
   midi.NoteOnEvent(tick=0, channel=0, data=[51, 0]),
   midi.NoteOnEvent(tick=0, channel=0, data=[44, 0]),
   midi.NoteOnEvent(tick=12, channel=0, data=[40, 42]),
   midi.NoteOnEvent(tick=113, channel=0, data=[40, 0]),
   midi.NoteOnEvent(tick=12, channel=0, data=[52, 35]),
   midi.NoteOnEvent(tick=0, channel=0, data=[45, 29]),
   midi.NoteOnEvent(tick=228, channel=0, data=[45, 0]),
   midi.NoteOnEvent(tick=0, channel=0, data=[52, 0]),
   midi.NoteOnEvent(tick=12, channel=0, data=[45, 29]),
   midi.NoteOnEvent(tick=0, channel=0, data=[52, 35]),
   midi.NoteOnEvent(tick=33, channel=0, data=[52, 0]),
   midi.NoteOnEvent(tick=0, channel=0, data=[45, 0]),
   midi.NoteOnEvent(tick=12, channel=0, data=[45, 29]),
   midi.NoteOnEvent(tick=0, channel=0, data=[52, 35]),
   midi.NoteOnEvent(tick=228, channel=0, data=[52, 0]),
   midi.NoteOnEvent(tick=0, channel=0, data=[45, 0]),
   midi.NoteOnEvent(tick=12, channel=0, data=[45, 29]),
   midi.NoteOnEvent(tick=0, channel=0, data=[52, 35]),
   midi.NoteOnEvent(tick=228, channel=0, data=[52, 0]),
   midi.NoteOnEvent(tick=0, channel=0, data=[45, 0]),
   midi.NoteOnEvent(tick=12, channel=0, data=[45, 29]),
   midi.NoteOnEvent(tick=0, channel=0, data=[52, 35]),
   midi.NoteOnEvent(tick=228, channel=0, data=[52, 0]),
   midi.NoteOnEvent(tick=0, channel=0, data=[45, 0]),
   midi.NoteOnEvent(tick=12, channel=0, data=[52, 35]),
   midi.NoteOnEvent(tick=0, channel=0, data=[45, 29]),
   midi.NoteOnEvent(tick=228, channel=0, data=[45, 0]),
   midi.NoteOnEvent(tick=0, channel=0, data=[52, 0]),
   midi.NoteOnEvent(tick=12, channel=0, data=[45, 29]),
   midi.NoteOnEvent(tick=0, channel=0, data=[52, 35]),
   midi.NoteOnEvent(tick=228, channel=0, data=[52, 0]),
   midi.NoteOnEvent(tick=0, channel=0, data=[45, 0]),
   midi.NoteOnEvent(tick=12, channel=0, data=[40, 35]),
   midi.NoteOnEvent(tick=240, channel=0, data=[52, 35]),
   midi.NoteOnEvent(tick=0, channel=0, data=[45, 29]),
   midi.NoteOnEvent(tick=240, channel=0, data=[45, 0]),
   midi.NoteOnEvent(tick=0, channel=0, data=[52, 0]),
   midi.NoteOnEvent(tick=0, channel=0, data=[40, 0]),
   midi.NoteOnEvent(tick=0, channel=0, data=[40, 35]),
   midi.NoteOnEvent(tick=240, channel=0, data=[52, 35]),
   midi.NoteOnEvent(tick=0, channel=0, data=[45, 29]),
   midi.NoteOnEvent(tick=240, channel=0, data=[45, 0]),
   midi.NoteOnEvent(tick=0, channel=0, data=[52, 0]),
   midi.NoteOnEvent(tick=0, channel=0, data=[40, 0]),
   midi.NoteOnEvent(tick=0, channel=0, data=[35, 42]),
   midi.NoteOnEvent(tick=113, channel=0, data=[35, 0]),
   midi.NoteOnEvent(tick=12, channel=0, data=[47, 38]),
   midi.NoteOnEvent(tick=0, channel=0, data=[40, 31]),
   midi.NoteOnEvent(tick=228, channel=0, data=[40, 0]),
   midi.NoteOnEvent(tick=0, channel=0, data=[47, 0]),
   midi.NoteOnEvent(tick=12, channel=0, data=[40, 31]),
   midi.NoteOnEvent(tick=0, channel=0, data=[47, 38]),
   midi.NoteOnEvent(tick=45, channel=0, data=[47, 0]),
   midi.NoteOnEvent(tick=0, channel=0, data=[40, 0]),
   midi.NoteOnEvent(tick=12, channel=0, data=[40, 31]),
   midi.NoteOnEvent(tick=0, channel=0, data=[47, 38]),
   midi.NoteOnEvent(tick=228, channel=0, data=[47, 0]),
   midi.NoteOnEvent(tick=0, channel=0, data=[40, 0]),
   midi.NoteOnEvent(tick=12, channel=0, data=[47, 38]),
   midi.NoteOnEvent(tick=0, channel=0, data=[40, 31]),
   midi.NoteOnEvent(tick=228, channel=0, data=[40, 0]),
   midi.NoteOnEvent(tick=0, channel=0, data=[47, 0]),
   midi.NoteOnEvent(tick=12, channel=0, data=[40, 31]),
   midi.NoteOnEvent(tick=0, channel=0, data=[47, 38]),
   midi.NoteOnEvent(tick=228, channel=0, data=[47, 0]),
   midi.NoteOnEvent(tick=0, channel=0, data=[40, 0]),
   midi.NoteOnEvent(tick=12, channel=0, data=[40, 34]),
   midi.NoteOnEvent(tick=0, channel=0, data=[47, 39]),
   midi.NoteOnEvent(tick=228, channel=0, data=[47, 0]),
   midi.NoteOnEvent(tick=0, channel=0, data=[40, 0]),
   midi.NoteOnEvent(tick=12, channel=0, data=[40, 34]),
   midi.NoteOnEvent(tick=0, channel=0, data=[47, 39]),
   midi.NoteOnEvent(tick=228, channel=0, data=[47, 0]),
   midi.NoteOnEvent(tick=0, channel=0, data=[40, 0]),
   midi.NoteOnEvent(tick=12, channel=0, data=[35, 39]),
   midi.NoteOnEvent(tick=240, channel=0, data=[40, 34]),
   midi.NoteOnEvent(tick=0, channel=0, data=[47, 39]),
   midi.NoteOnEvent(tick=240, channel=0, data=[47, 0]),
   midi.NoteOnEvent(tick=0, channel=0, data=[40, 0]),
   midi.NoteOnEvent(tick=0, channel=0, data=[35, 0]),
   midi.NoteOnEvent(tick=0, channel=0, data=[35, 39]),
   midi.NoteOnEvent(tick=240, channel=0, data=[47, 39]),
   midi.NoteOnEvent(tick=0, channel=0, data=[40, 34]),
   midi.NoteOnEvent(tick=240, channel=0, data=[40, 0]),
   midi.NoteOnEvent(tick=0, channel=0, data=[47, 0]),
   midi.NoteOnEvent(tick=0, channel=0, data=[35, 0]),
   midi.NoteOnEvent(tick=0, channel=0, data=[38, 49]),
   midi.NoteOnEvent(tick=102, channel=0, data=[38, 0]),
   midi.NoteOnEvent(tick=12, channel=0, data=[45, 35]),
   midi.NoteOnEvent(tick=0, channel=0, data=[50, 42]),
   midi.NoteOnEvent(tick=228, channel=0, data=[50, 0]),
   midi.NoteOnEvent(tick=0, channel=0, data=[45, 0]),
   midi.NoteOnEvent(tick=12, channel=0, data=[45, 35]),
   midi.NoteOnEvent(tick=0, channel=0, data=[50, 42]),
   midi.NoteOnEvent(tick=22, channel=0, data=[50, 0]),
   midi.NoteOnEvent(tick=0, channel=0, data=[45, 0]),
   midi.NoteOnEvent(tick=12, channel=0, data=[45, 35]),
   midi.NoteOnEvent(tick=0, channel=0, data=[50, 42]),
   midi.NoteOnEvent(tick=228, channel=0, data=[50, 0]),
   midi.NoteOnEvent(tick=0, channel=0, data=[45, 0]),
   midi.NoteOnEvent(tick=12, channel=0, data=[45, 35]),
   midi.NoteOnEvent(tick=0, channel=0, data=[50, 42]),
   midi.NoteOnEvent(tick=228, channel=0, data=[50, 0]),
   midi.NoteOnEvent(tick=0, channel=0, data=[45, 0]),
   midi.NoteOnEvent(tick=12, channel=0, data=[45, 35]),
   midi.NoteOnEvent(tick=0, channel=0, data=[50, 42]),
   midi.NoteOnEvent(tick=228, channel=0, data=[50, 0]),
   midi.NoteOnEvent(tick=0, channel=0, data=[45, 0]),
   midi.NoteOnEvent(tick=12, channel=0, data=[50, 46]),
   midi.NoteOnEvent(tick=0, channel=0, data=[45, 39]),
   midi.NoteOnEvent(tick=228, channel=0, data=[45, 0]),
   midi.NoteOnEvent(tick=0, channel=0, data=[50, 0]),
   midi.NoteOnEvent(tick=12, channel=0, data=[50, 45]),
   midi.NoteOnEvent(tick=0, channel=0, data=[45, 38]),
   midi.NoteOnEvent(tick=228, channel=0, data=[45, 0]),
   midi.NoteOnEvent(tick=0, channel=0, data=[50, 0]),
   midi.NoteOnEvent(tick=12, channel=0, data=[38, 45]),
   midi.NoteOnEvent(tick=103, channel=0, data=[50, 45]),
   midi.NoteOnEvent(tick=0, channel=0, data=[45, 38]),
   midi.NoteOnEvent(tick=240, channel=0, data=[45, 0]),
   midi.NoteOnEvent(tick=0, channel=0, data=[50, 0]),
   midi.NoteOnEvent(tick=0, channel=0, data=[38, 0]),
   midi.NoteOnEvent(tick=0, channel=0, data=[38, 45]),
   midi.NoteOnEvent(tick=240, channel=0, data=[50, 45]),
   midi.NoteOnEvent(tick=0, channel=0, data=[45, 38]),
   midi.NoteOnEvent(tick=240, channel=0, data=[45, 0]),
   midi.NoteOnEvent(tick=0, channel=0, data=[50, 0]),
   midi.NoteOnEvent(tick=0, channel=0, data=[38, 0]),
   midi.NoteOnEvent(tick=0, channel=0, data=[33, 45]),
   midi.NoteOnEvent(tick=137, channel=0, data=[45, 45]),
   midi.NoteOnEvent(tick=0, channel=0, data=[40, 38]),
   midi.NoteOnEvent(tick=240, channel=0, data=[40, 0]),
   midi.NoteOnEvent(tick=0, channel=0, data=[45, 0]),
   midi.NoteOnEvent(tick=0, channel=0, data=[33, 0]),
   midi.NoteOnEvent(tick=0, channel=0, data=[33, 45]),
   midi.NoteOnEvent(tick=103, channel=0, data=[33, 0]),
   midi.NoteOnEvent(tick=0, channel=0, data=[45, 45]),
   midi.NoteOnEvent(tick=0, channel=0, data=[40, 38]),
   midi.NoteOnEvent(tick=228, channel=0, data=[40, 0]),
   midi.NoteOnEvent(tick=0, channel=0, data=[45, 0]),
   midi.NoteOnEvent(tick=12, channel=0, data=[45, 45]),
   midi.NoteOnEvent(tick=0, channel=0, data=[40, 38]),
   midi.NoteOnEvent(tick=228, channel=0, data=[40, 0]),
   midi.NoteOnEvent(tick=0, channel=0, data=[45, 0]),
   midi.NoteOnEvent(tick=12, channel=0, data=[45, 45]),
   midi.NoteOnEvent(tick=0, channel=0, data=[40, 38]),
   midi.NoteOnEvent(tick=228, channel=0, data=[40, 0]),
   midi.NoteOnEvent(tick=0, channel=0, data=[45, 0]),
   midi.NoteOnEvent(tick=12, channel=0, data=[45, 49]),
   midi.NoteOnEvent(tick=0, channel=0, data=[40, 41]),
   midi.NoteOnEvent(tick=228, channel=0, data=[40, 0]),
   midi.NoteOnEvent(tick=0, channel=0, data=[45, 0]),
   midi.NoteOnEvent(tick=12, channel=0, data=[45, 49]),
   midi.NoteOnEvent(tick=0, channel=0, data=[40, 41]),
   midi.NoteOnEvent(tick=228, channel=0, data=[40, 0]),
   midi.NoteOnEvent(tick=0, channel=0, data=[45, 0]),
   midi.NoteOnEvent(tick=12, channel=0, data=[33, 49]),
   midi.NoteOnEvent(tick=80, channel=0, data=[45, 49]),
   midi.NoteOnEvent(tick=0, channel=0, data=[40, 41]),
   midi.NoteOnEvent(tick=240, channel=0, data=[40, 0]),
   midi.NoteOnEvent(tick=0, channel=0, data=[45, 0]),
   midi.NoteOnEvent(tick=0, channel=0, data=[33, 0]),
   midi.NoteOnEvent(tick=0, channel=0, data=[33, 49]),
   midi.NoteOnEvent(tick=240, channel=0, data=[45, 49]),
   midi.NoteOnEvent(tick=0, channel=0, data=[40, 41]),
   midi.NoteOnEvent(tick=240, channel=0, data=[40, 0]),
   midi.NoteOnEvent(tick=0, channel=0, data=[45, 0]),
   midi.NoteOnEvent(tick=0, channel=0, data=[33, 0]),
   midi.NoteOnEvent(tick=0, channel=0, data=[32, 61]),
   midi.NoteOnEvent(tick=30, channel=0, data=[32, 0]),
   midi.NoteOnEvent(tick=12, channel=0, data=[44, 44]),
   midi.NoteOnEvent(tick=0, channel=0, data=[49, 44]),
   midi.NoteOnEvent(tick=0, channel=0, data=[52, 51]),
   midi.NoteOnEvent(tick=228, channel=0, data=[52, 0]),
   midi.NoteOnEvent(tick=0, channel=0, data=[49, 0]),
   midi.NoteOnEvent(tick=0, channel=0, data=[44, 0]),
   midi.NoteOnEvent(tick=12, channel=0, data=[44, 44]),
   midi.NoteOnEvent(tick=0, channel=0, data=[49, 44]),
   midi.NoteOnEvent(tick=0, channel=0, data=[52, 51]),
   midi.NoteOnEvent(tick=30, channel=0, data=[52, 0]),
   midi.NoteOnEvent(tick=0, channel=0, data=[49, 0]),
   midi.NoteOnEvent(tick=0, channel=0, data=[44, 0]),
   midi.NoteOnEvent(tick=12, channel=0, data=[44, 44]),
   midi.NoteOnEvent(tick=0, channel=0, data=[49, 44]),
   midi.NoteOnEvent(tick=0, channel=0, data=[52, 52]),
   midi.NoteOnEvent(tick=228, channel=0, data=[52, 0]),
   midi.NoteOnEvent(tick=0, channel=0, data=[49, 0]),
   midi.NoteOnEvent(tick=0, channel=0, data=[44, 0]),
   midi.NoteOnEvent(tick=12, channel=0, data=[44, 44]),
   midi.NoteOnEvent(tick=0, channel=0, data=[49, 44]),
   midi.NoteOnEvent(tick=0, channel=0, data=[52, 52]),
   midi.NoteOnEvent(tick=228, channel=0, data=[52, 0]),
   midi.NoteOnEvent(tick=0, channel=0, data=[49, 0]),
   midi.NoteOnEvent(tick=0, channel=0, data=[44, 0]),
   midi.NoteOnEvent(tick=12, channel=0, data=[44, 44]),
   midi.NoteOnEvent(tick=0, channel=0, data=[49, 44]),
   midi.NoteOnEvent(tick=0, channel=0, data=[52, 52]),
   midi.NoteOnEvent(tick=228, channel=0, data=[52, 0]),
   midi.NoteOnEvent(tick=0, channel=0, data=[49, 0]),
   midi.NoteOnEvent(tick=0, channel=0, data=[44, 0]),
   midi.NoteOnEvent(tick=12, channel=0, data=[32, 61]),
   midi.NoteOnEvent(tick=112, channel=0, data=[32, 0]),
   midi.NoteOnEvent(tick=12, channel=0, data=[44, 44]),
   midi.NoteOnEvent(tick=0, channel=0, data=[51, 44]),
   midi.NoteOnEvent(tick=0, channel=0, data=[54, 52]),
   midi.NoteOnEvent(tick=228, channel=0, data=[54, 0]),
   midi.NoteOnEvent(tick=0, channel=0, data=[51, 0]),
   midi.NoteOnEvent(tick=0, channel=0, data=[44, 0]),
   midi.NoteOnEvent(tick=12, channel=0, data=[44, 44]),
   midi.NoteOnEvent(tick=0, channel=0, data=[51, 44]),
   midi.NoteOnEvent(tick=0, channel=0, data=[54, 52]),
   midi.NoteOnEvent(tick=54, channel=0, data=[54, 0]),
   midi.NoteOnEvent(tick=0, channel=0, data=[51, 0]),
   midi.NoteOnEvent(tick=0, channel=0, data=[44, 0]),
   midi.NoteOnEvent(tick=12, channel=0, data=[44, 44]),
   midi.NoteOnEvent(tick=0, channel=0, data=[51, 44]),
   midi.NoteOnEvent(tick=0, channel=0, data=[54, 52]),
   midi.NoteOnEvent(tick=228, channel=0, data=[54, 0]),
   midi.NoteOnEvent(tick=0, channel=0, data=[51, 0]),
   midi.NoteOnEvent(tick=0, channel=0, data=[44, 0]),
   midi.NoteOnEvent(tick=12, channel=0, data=[44, 44]),
   midi.NoteOnEvent(tick=0, channel=0, data=[51, 44]),
   midi.NoteOnEvent(tick=0, channel=0, data=[54, 51]),
   midi.NoteOnEvent(tick=228, channel=0, data=[54, 0]),
   midi.NoteOnEvent(tick=0, channel=0, data=[51, 0]),
   midi.NoteOnEvent(tick=0, channel=0, data=[44, 0]),
   midi.NoteOnEvent(tick=12, channel=0, data=[44, 44]),
   midi.NoteOnEvent(tick=0, channel=0, data=[51, 44]),
   midi.NoteOnEvent(tick=0, channel=0, data=[54, 51]),
   midi.NoteOnEvent(tick=228, channel=0, data=[54, 0]),
   midi.NoteOnEvent(tick=0, channel=0, data=[51, 0]),
   midi.NoteOnEvent(tick=0, channel=0, data=[44, 0]),
   midi.NoteOnEvent(tick=12, channel=0, data=[37, 52]),
   midi.NoteOnEvent(tick=221, channel=0, data=[37, 0]),
   midi.NoteOnEvent(tick=12, channel=0, data=[44, 34]),
   midi.NoteOnEvent(tick=0, channel=0, data=[49, 34]),
   midi.NoteOnEvent(tick=0, channel=0, data=[52, 40]),
   midi.NoteOnEvent(tick=171, channel=0, data=[52, 0]),
   midi.NoteOnEvent(tick=0, channel=0, data=[49, 0]),
   midi.NoteOnEvent(tick=0, channel=0, data=[44, 0]),
   midi.NoteOnEvent(tick=12, channel=0, data=[44, 34]),
   midi.NoteOnEvent(tick=0, channel=0, data=[49, 34]),
   midi.NoteOnEvent(tick=0, channel=0, data=[52, 40]),
   midi.NoteOnEvent(tick=228, channel=0, data=[52, 0]),
   midi.NoteOnEvent(tick=0, channel=0, data=[49, 0]),
   midi.NoteOnEvent(tick=0, channel=0, data=[44, 0]),
   midi.NoteOnEvent(tick=12, channel=0, data=[44, 34]),
   midi.NoteOnEvent(tick=0, channel=0, data=[49, 34]),
   midi.NoteOnEvent(tick=0, channel=0, data=[52, 40]),
   midi.NoteOnEvent(tick=228, channel=0, data=[52, 0]),
   midi.NoteOnEvent(tick=0, channel=0, data=[49, 0]),
   midi.NoteOnEvent(tick=0, channel=0, data=[44, 0]),
   midi.NoteOnEvent(tick=12, channel=0, data=[44, 34]),
   midi.NoteOnEvent(tick=0, channel=0, data=[49, 34]),
   midi.NoteOnEvent(tick=0, channel=0, data=[52, 40]),
   midi.NoteOnEvent(tick=228, channel=0, data=[52, 0]),
   midi.NoteOnEvent(tick=0, channel=0, data=[49, 0]),
   midi.NoteOnEvent(tick=0, channel=0, data=[44, 0]),
   midi.NoteOnEvent(tick=12, channel=0, data=[44, 34]),
   midi.NoteOnEvent(tick=0, channel=0, data=[49, 34]),
   midi.NoteOnEvent(tick=0, channel=0, data=[52, 40]),
   midi.NoteOnEvent(tick=228, channel=0, data=[52, 0]),
   midi.NoteOnEvent(tick=0, channel=0, data=[49, 0]),
   midi.NoteOnEvent(tick=0, channel=0, data=[44, 0]),
   midi.NoteOnEvent(tick=12, channel=0, data=[49, 34]),
   midi.NoteOnEvent(tick=0, channel=0, data=[44, 34]),
   midi.NoteOnEvent(tick=0, channel=0, data=[52, 39]),
   midi.NoteOnEvent(tick=228, channel=0, data=[52, 0]),
   midi.NoteOnEvent(tick=0, channel=0, data=[44, 0]),
   midi.NoteOnEvent(tick=0, channel=0, data=[49, 0]),
   midi.NoteOnEvent(tick=12, channel=0, data=[44, 34]),
   midi.NoteOnEvent(tick=0, channel=0, data=[49, 34]),
   midi.NoteOnEvent(tick=0, channel=0, data=[52, 39]),
   midi.NoteOnEvent(tick=228, channel=0, data=[52, 0]),
   midi.NoteOnEvent(tick=0, channel=0, data=[49, 0]),
   midi.NoteOnEvent(tick=0, channel=0, data=[44, 0]),
   midi.NoteOnEvent(tick=12, channel=0, data=[44, 30]),
   midi.NoteOnEvent(tick=0, channel=0, data=[49, 30]),
   midi.NoteOnEvent(tick=0, channel=0, data=[52, 37]),
   midi.NoteOnEvent(tick=228, channel=0, data=[52, 0]),
   midi.NoteOnEvent(tick=0, channel=0, data=[49, 0]),
   midi.NoteOnEvent(tick=0, channel=0, data=[44, 0]),
   midi.NoteOnEvent(tick=12, channel=0, data=[44, 30]),
   midi.NoteOnEvent(tick=0, channel=0, data=[49, 30]),
   midi.NoteOnEvent(tick=0, channel=0, data=[52, 36]),
   midi.NoteOnEvent(tick=228, channel=0, data=[52, 0]),
   midi.NoteOnEvent(tick=0, channel=0, data=[49, 0]),
   midi.NoteOnEvent(tick=0, channel=0, data=[44, 0]),
   midi.NoteOnEvent(tick=12, channel=0, data=[44, 28]),
   midi.NoteOnEvent(tick=0, channel=0, data=[49, 28]),
   midi.NoteOnEvent(tick=0, channel=0, data=[52, 34]),
   midi.NoteOnEvent(tick=228, channel=0, data=[52, 0]),
   midi.NoteOnEvent(tick=0, channel=0, data=[49, 0]),
   midi.NoteOnEvent(tick=0, channel=0, data=[44, 0]),
   midi.NoteOnEvent(tick=12, channel=0, data=[44, 25]),
   midi.NoteOnEvent(tick=0, channel=0, data=[49, 25]),
   midi.NoteOnEvent(tick=0, channel=0, data=[52, 30]),
   midi.NoteOnEvent(tick=228, channel=0, data=[52, 0]),
   midi.NoteOnEvent(tick=0, channel=0, data=[49, 0]),
   midi.NoteOnEvent(tick=0, channel=0, data=[44, 0]),
   midi.NoteOnEvent(tick=12, channel=0, data=[37, 26]),
   midi.NoteOnEvent(tick=214, channel=0, data=[37, 0]),
   midi.NoteOnEvent(tick=12, channel=0, data=[52, 26]),
   midi.NoteOnEvent(tick=0, channel=0, data=[49, 22]),
   midi.NoteOnEvent(tick=129, channel=0, data=[49, 0]),
   midi.NoteOnEvent(tick=0, channel=0, data=[52, 0]),
   midi.NoteOnEvent(tick=12, channel=0, data=[52, 26]),
   midi.NoteOnEvent(tick=0, channel=0, data=[49, 22]),
   midi.NoteOnEvent(tick=228, channel=0, data=[49, 0]),
   midi.NoteOnEvent(tick=0, channel=0, data=[52, 0]),
   midi.NoteOnEvent(tick=12, channel=0, data=[52, 26]),
   midi.NoteOnEvent(tick=0, channel=0, data=[49, 22]),
   midi.NoteOnEvent(tick=228, channel=0, data=[49, 0]),
   midi.NoteOnEvent(tick=0, channel=0, data=[52, 0]),
   midi.NoteOnEvent(tick=12, channel=0, data=[52, 26]),
   midi.NoteOnEvent(tick=0, channel=0, data=[49, 22]),
   midi.NoteOnEvent(tick=228, channel=0, data=[49, 0]),
   midi.NoteOnEvent(tick=0, channel=0, data=[52, 0]),
   midi.NoteOnEvent(tick=12, channel=0, data=[52, 26]),
   midi.NoteOnEvent(tick=0, channel=0, data=[49, 22]),
   midi.NoteOnEvent(tick=228, channel=0, data=[49, 0]),
   midi.NoteOnEvent(tick=0, channel=0, data=[52, 0]),
   midi.NoteOnEvent(tick=12, channel=0, data=[49, 22]),
   midi.NoteOnEvent(tick=0, channel=0, data=[52, 26]),
   midi.NoteOnEvent(tick=228, channel=0, data=[52, 0]),
   midi.NoteOnEvent(tick=0, channel=0, data=[49, 0]),
   midi.NoteOnEvent(tick=12, channel=0, data=[49, 22]),
   midi.NoteOnEvent(tick=0, channel=0, data=[52, 26]),
   midi.NoteOnEvent(tick=228, channel=0, data=[52, 0]),
   midi.NoteOnEvent(tick=0, channel=0, data=[49, 0]),
   midi.NoteOnEvent(tick=12, channel=0, data=[49, 22]),
   midi.NoteOnEvent(tick=0, channel=0, data=[52, 26]),
   midi.NoteOnEvent(tick=228, channel=0, data=[52, 0]),
   midi.NoteOnEvent(tick=0, channel=0, data=[49, 0]),
   midi.NoteOnEvent(tick=12, channel=0, data=[49, 22]),
   midi.NoteOnEvent(tick=0, channel=0, data=[52, 26]),
   midi.NoteOnEvent(tick=228, channel=0, data=[52, 0]),
   midi.NoteOnEvent(tick=0, channel=0, data=[49, 0]),
   midi.NoteOnEvent(tick=12, channel=0, data=[49, 22]),
   midi.NoteOnEvent(tick=0, channel=0, data=[52, 26]),
   midi.NoteOnEvent(tick=228, channel=0, data=[52, 0]),
   midi.NoteOnEvent(tick=0, channel=0, data=[49, 0]),
   midi.NoteOnEvent(tick=12, channel=0, data=[49, 22]),
   midi.NoteOnEvent(tick=0, channel=0, data=[52, 26]),
   midi.NoteOnEvent(tick=228, channel=0, data=[52, 0]),
   midi.NoteOnEvent(tick=0, channel=0, data=[49, 0]),
   midi.NoteOnEvent(tick=12, channel=0, data=[39, 26]),
   midi.NoteOnEvent(tick=22, channel=0, data=[39, 0]),
   midi.NoteOnEvent(tick=12, channel=0, data=[51, 26]),
   midi.NoteOnEvent(tick=228, channel=0, data=[51, 0]),
   midi.NoteOnEvent(tick=12, channel=0, data=[51, 26]),
   midi.NoteOnEvent(tick=228, channel=0, data=[51, 0]),
   midi.NoteOnEvent(tick=12, channel=0, data=[51, 25]),
   midi.NoteOnEvent(tick=228, channel=0, data=[51, 0]),
   midi.NoteOnEvent(tick=12, channel=0, data=[51, 25]),
   midi.NoteOnEvent(tick=228, channel=0, data=[51, 0]),
   midi.NoteOnEvent(tick=12, channel=0, data=[51, 24]),
   midi.NoteOnEvent(tick=228, channel=0, data=[51, 0]),
   midi.NoteOnEvent(tick=12, channel=0, data=[51, 24]),
   midi.NoteOnEvent(tick=228, channel=0, data=[51, 0]),
   midi.NoteOnEvent(tick=12, channel=0, data=[51, 24]),
   midi.NoteOnEvent(tick=228, channel=0, data=[51, 0]),
   midi.NoteOnEvent(tick=12, channel=0, data=[51, 23]),
   midi.NoteOnEvent(tick=228, channel=0, data=[51, 0]),
   midi.NoteOnEvent(tick=12, channel=0, data=[51, 23]),
   midi.NoteOnEvent(tick=228, channel=0, data=[51, 0]),
   midi.NoteOnEvent(tick=12, channel=0, data=[51, 22]),
   midi.NoteOnEvent(tick=228, channel=0, data=[51, 0]),
   midi.NoteOnEvent(tick=12, channel=0, data=[51, 22]),
   midi.NoteOnEvent(tick=228, channel=0, data=[51, 0]),
   midi.NoteOnEvent(tick=12, channel=0, data=[39, 22]),
   midi.NoteOnEvent(tick=56, channel=0, data=[39, 0]),
   midi.NoteOnEvent(tick=12, channel=0, data=[51, 22]),
   midi.NoteOnEvent(tick=228, channel=0, data=[51, 0]),
   midi.NoteOnEvent(tick=12, channel=0, data=[51, 22]),
   midi.NoteOnEvent(tick=228, channel=0, data=[51, 0]),
   midi.NoteOnEvent(tick=12, channel=0, data=[51, 20]),
   midi.NoteOnEvent(tick=228, channel=0, data=[51, 0]),
   midi.NoteOnEvent(tick=12, channel=0, data=[51, 20]),
   midi.NoteOnEvent(tick=228, channel=0, data=[51, 0]),
   midi.NoteOnEvent(tick=12, channel=0, data=[51, 19]),
   midi.NoteOnEvent(tick=228, channel=0, data=[51, 0]),
   midi.NoteOnEvent(tick=12, channel=0, data=[51, 19]),
   midi.NoteOnEvent(tick=228, channel=0, data=[51, 0]),
   midi.NoteOnEvent(tick=12, channel=0, data=[51, 19]),
   midi.NoteOnEvent(tick=228, channel=0, data=[51, 0]),
   midi.NoteOnEvent(tick=12, channel=0, data=[51, 18]),
   midi.NoteOnEvent(tick=228, channel=0, data=[51, 0]),
   midi.NoteOnEvent(tick=12, channel=0, data=[51, 18]),
   midi.NoteOnEvent(tick=228, channel=0, data=[51, 0]),
   midi.NoteOnEvent(tick=12, channel=0, data=[51, 17]),
   midi.NoteOnEvent(tick=228, channel=0, data=[51, 0]),
   midi.NoteOnEvent(tick=12, channel=0, data=[51, 17]),
   midi.NoteOnEvent(tick=228, channel=0, data=[51, 0]),
   midi.NoteOnEvent(tick=0, channel=0, data=[39, 46]),
   midi.NoteOnEvent(tick=240, channel=0, data=[39, 0]),
   midi.NoteOnEvent(tick=120, channel=0, data=[61, 42]),
   midi.NoteOnEvent(tick=0, channel=0, data=[58, 35]),
   midi.NoteOnEvent(tick=0, channel=0, data=[51, 35]),
   midi.NoteOnEvent(tick=2400, channel=0, data=[51, 0]),
   midi.NoteOnEvent(tick=0, channel=0, data=[58, 0]),
   midi.NoteOnEvent(tick=0, channel=0, data=[61, 0]),
   midi.NoteOnEvent(tick=0, channel=0, data=[55, 51]),
   midi.NoteOnEvent(tick=0, channel=0, data=[51, 51]),
   midi.NoteOnEvent(tick=0, channel=0, data=[58, 51]),
   midi.NoteOnEvent(tick=0, channel=0, data=[61, 60]),
   midi.NoteOnEvent(tick=2777, channel=0, data=[61, 0]),
   midi.NoteOnEvent(tick=0, channel=0, data=[55, 0]),
   midi.NoteOnEvent(tick=0, channel=0, data=[51, 0]),
   midi.NoteOnEvent(tick=0, channel=0, data=[58, 0]),
   midi.NoteOnEvent(tick=0, channel=0, data=[51, 42]),
   midi.NoteOnEvent(tick=0, channel=0, data=[61, 50]),
   midi.NoteOnEvent(tick=0, channel=0, data=[58, 42]),
   midi.NoteOnEvent(tick=0, channel=0, data=[55, 42]),
   midi.NoteOnEvent(tick=2710, channel=0, data=[55, 0]),
   midi.NoteOnEvent(tick=0, channel=0, data=[51, 0]),
   midi.NoteOnEvent(tick=0, channel=0, data=[61, 0]),
   midi.NoteOnEvent(tick=0, channel=0, data=[58, 0]),
   midi.NoteOnEvent(tick=0, channel=0, data=[44, 40]),
   midi.NoteOnEvent(tick=148, channel=0, data=[44, 0]),
   midi.NoteOnEvent(tick=240, channel=0, data=[59, 34]),
   midi.NoteOnEvent(tick=0, channel=0, data=[56, 34]),
   midi.NoteOnEvent(tick=0, channel=0, data=[63, 40]),
   midi.NoteOnEvent(tick=1920, channel=0, data=[63, 0]),
   midi.NoteOnEvent(tick=0, channel=0, data=[56, 0]),
   midi.NoteOnEvent(tick=0, channel=0, data=[59, 0]),
   midi.NoteOnEvent(tick=0, channel=0, data=[51, 27]),
   midi.NoteOnEvent(tick=0, channel=0, data=[58, 27]),
   midi.NoteOnEvent(tick=0, channel=0, data=[63, 33]),
   midi.NoteOnEvent(tick=223, channel=0, data=[63, 0]),
   midi.NoteOnEvent(tick=0, channel=0, data=[58, 0]),
   midi.NoteOnEvent(tick=0, channel=0, data=[51, 0]),
   midi.NoteOnEvent(tick=240, channel=0, data=[44, 40]),
   midi.NoteOnEvent(tick=224, channel=0, data=[44, 0]),
   midi.NoteOnEvent(tick=240, channel=0, data=[59, 34]),
   midi.NoteOnEvent(tick=0, channel=0, data=[56, 34]),
   midi.NoteOnEvent(tick=0, channel=0, data=[63, 40]),
   midi.NoteOnEvent(tick=1920, channel=0, data=[63, 0]),
   midi.NoteOnEvent(tick=0, channel=0, data=[56, 0]),
   midi.NoteOnEvent(tick=0, channel=0, data=[59, 0]),
   midi.NoteOnEvent(tick=0, channel=0, data=[51, 27]),
   midi.NoteOnEvent(tick=0, channel=0, data=[58, 27]),
   midi.NoteOnEvent(tick=0, channel=0, data=[63, 33]),
   midi.NoteOnEvent(tick=229, channel=0, data=[63, 0]),
   midi.NoteOnEvent(tick=0, channel=0, data=[58, 0]),
   midi.NoteOnEvent(tick=0, channel=0, data=[51, 0]),
   midi.NoteOnEvent(tick=240, channel=0, data=[63, 27]),
   midi.NoteOnEvent(tick=0, channel=0, data=[59, 27]),
   midi.NoteOnEvent(tick=0, channel=0, data=[56, 27]),
   midi.NoteOnEvent(tick=456, channel=0, data=[56, 0]),
   midi.NoteOnEvent(tick=0, channel=0, data=[59, 0]),
   midi.NoteOnEvent(tick=0, channel=0, data=[63, 0]),
   midi.NoteOnEvent(tick=24, channel=0, data=[51, 27]),
   midi.NoteOnEvent(tick=0, channel=0, data=[64, 27]),
   midi.NoteOnEvent(tick=0, channel=0, data=[58, 27]),
   midi.NoteOnEvent(tick=456, channel=0, data=[58, 0]),
   midi.NoteOnEvent(tick=0, channel=0, data=[64, 0]),
   midi.NoteOnEvent(tick=0, channel=0, data=[51, 0]),
   midi.NoteOnEvent(tick=24, channel=0, data=[51, 31]),
   midi.NoteOnEvent(tick=0, channel=0, data=[58, 31]),
   midi.NoteOnEvent(tick=0, channel=0, data=[64, 31]),
   midi.NoteOnEvent(tick=456, channel=0, data=[64, 0]),
   midi.NoteOnEvent(tick=0, channel=0, data=[58, 0]),
   midi.NoteOnEvent(tick=0, channel=0, data=[51, 0]),
   midi.NoteOnEvent(tick=24, channel=0, data=[51, 31]),
   midi.NoteOnEvent(tick=0, channel=0, data=[58, 31]),
   midi.NoteOnEvent(tick=0, channel=0, data=[64, 31]),
   midi.NoteOnEvent(tick=456, channel=0, data=[64, 0]),
   midi.NoteOnEvent(tick=0, channel=0, data=[58, 0]),
   midi.NoteOnEvent(tick=0, channel=0, data=[51, 0]),
   midi.NoteOnEvent(tick=24, channel=0, data=[51, 25]),
   midi.NoteOnEvent(tick=0, channel=0, data=[58, 25]),
   midi.NoteOnEvent(tick=0, channel=0, data=[63, 25]),
   midi.NoteOnEvent(tick=456, channel=0, data=[63, 0]),
   midi.NoteOnEvent(tick=0, channel=0, data=[58, 0]),
   midi.NoteOnEvent(tick=0, channel=0, data=[51, 0]),
   midi.NoteOnEvent(tick=24, channel=0, data=[61, 25]),
   midi.NoteOnEvent(tick=0, channel=0, data=[51, 25]),
   midi.NoteOnEvent(tick=0, channel=0, data=[58, 25]),
   midi.NoteOnEvent(tick=456, channel=0, data=[58, 0]),
   midi.NoteOnEvent(tick=0, channel=0, data=[51, 0]),
   midi.NoteOnEvent(tick=0, channel=0, data=[61, 0]),
   midi.NoteOnEvent(tick=24, channel=0, data=[44, 40]),
   midi.NoteOnEvent(tick=200, channel=0, data=[44, 0]),
   midi.NoteOnEvent(tick=240, channel=0, data=[59, 34]),
   midi.NoteOnEvent(tick=0, channel=0, data=[56, 34]),
   midi.NoteOnEvent(tick=0, channel=0, data=[63, 40]),
   midi.NoteOnEvent(tick=1920, channel=0, data=[63, 0]),
   midi.NoteOnEvent(tick=0, channel=0, data=[56, 0]),
   midi.NoteOnEvent(tick=0, channel=0, data=[59, 0]),
   midi.NoteOnEvent(tick=0, channel=0, data=[51, 27]),
   midi.NoteOnEvent(tick=0, channel=0, data=[58, 27]),
   midi.NoteOnEvent(tick=0, channel=0, data=[63, 32]),
   midi.NoteOnEvent(tick=229, channel=0, data=[63, 0]),
   midi.NoteOnEvent(tick=0, channel=0, data=[58, 0]),
   midi.NoteOnEvent(tick=0, channel=0, data=[51, 0]),
   midi.NoteOnEvent(tick=240, channel=0, data=[44, 40]),
   midi.NoteOnEvent(tick=196, channel=0, data=[44, 0]),
   midi.NoteOnEvent(tick=240, channel=0, data=[59, 34]),
   midi.NoteOnEvent(tick=0, channel=0, data=[56, 34]),
   midi.NoteOnEvent(tick=0, channel=0, data=[63, 40]),
   midi.NoteOnEvent(tick=1920, channel=0, data=[63, 0]),
   midi.NoteOnEvent(tick=0, channel=0, data=[56, 0]),
   midi.NoteOnEvent(tick=0, channel=0, data=[59, 0]),
   midi.NoteOnEvent(tick=0, channel=0, data=[51, 27]),
   midi.NoteOnEvent(tick=0, channel=0, data=[58, 27]),
   midi.NoteOnEvent(tick=0, channel=0, data=[63, 32]),
   midi.NoteOnEvent(tick=229, channel=0, data=[63, 0]),
   midi.NoteOnEvent(tick=0, channel=0, data=[58, 0]),
   midi.NoteOnEvent(tick=0, channel=0, data=[51, 0]),
   midi.NoteOnEvent(tick=240, channel=0, data=[63, 27]),
   midi.NoteOnEvent(tick=0, channel=0, data=[59, 27]),
   midi.NoteOnEvent(tick=0, channel=0, data=[56, 27]),
   midi.NoteOnEvent(tick=456, channel=0, data=[56, 0]),
   midi.NoteOnEvent(tick=0, channel=0, data=[59, 0]),
   midi.NoteOnEvent(tick=0, channel=0, data=[63, 0]),
   midi.NoteOnEvent(tick=24, channel=0, data=[54, 27]),
   midi.NoteOnEvent(tick=0, channel=0, data=[64, 27]),
   midi.NoteOnEvent(tick=0, channel=0, data=[58, 27]),
   midi.NoteOnEvent(tick=456, channel=0, data=[58, 0]),
   midi.NoteOnEvent(tick=0, channel=0, data=[64, 0]),
   midi.NoteOnEvent(tick=0, channel=0, data=[54, 0]),
   midi.NoteOnEvent(tick=24, channel=0, data=[54, 31]),
   midi.NoteOnEvent(tick=0, channel=0, data=[58, 31]),
   midi.NoteOnEvent(tick=0, channel=0, data=[64, 31]),
   midi.NoteOnEvent(tick=456, channel=0, data=[64, 0]),
   midi.NoteOnEvent(tick=0, channel=0, data=[58, 0]),
   midi.NoteOnEvent(tick=0, channel=0, data=[54, 0]),
   midi.NoteOnEvent(tick=24, channel=0, data=[54, 31]),
   midi.NoteOnEvent(tick=0, channel=0, data=[58, 31]),
   midi.NoteOnEvent(tick=0, channel=0, data=[64, 31]),
   midi.NoteOnEvent(tick=456, channel=0, data=[64, 0]),
   midi.NoteOnEvent(tick=0, channel=0, data=[58, 0]),
   midi.NoteOnEvent(tick=0, channel=0, data=[54, 0]),
   midi.NoteOnEvent(tick=24, channel=0, data=[54, 25]),
   midi.NoteOnEvent(tick=0, channel=0, data=[58, 25]),
   midi.NoteOnEvent(tick=0, channel=0, data=[63, 25]),
   midi.NoteOnEvent(tick=456, channel=0, data=[63, 0]),
   midi.NoteOnEvent(tick=0, channel=0, data=[58, 0]),
   midi.NoteOnEvent(tick=0, channel=0, data=[54, 0]),
   midi.NoteOnEvent(tick=24, channel=0, data=[54, 25]),
   midi.NoteOnEvent(tick=0, channel=0, data=[62, 25]),
   midi.NoteOnEvent(tick=0, channel=0, data=[58, 25]),
   midi.NoteOnEvent(tick=456, channel=0, data=[58, 0]),
   midi.NoteOnEvent(tick=0, channel=0, data=[62, 0]),
   midi.NoteOnEvent(tick=0, channel=0, data=[54, 0]),
   midi.NoteOnEvent(tick=24, channel=0, data=[47, 50]),
   midi.NoteOnEvent(tick=177, channel=0, data=[47, 0]),
   midi.NoteOnEvent(tick=240, channel=0, data=[63, 50]),
   midi.NoteOnEvent(tick=0, channel=0, data=[59, 42]),
   midi.NoteOnEvent(tick=0, channel=0, data=[54, 42]),
   midi.NoteOnEvent(tick=1920, channel=0, data=[54, 0]),
   midi.NoteOnEvent(tick=0, channel=0, data=[59, 0]),
   midi.NoteOnEvent(tick=0, channel=0, data=[63, 0]),
   midi.NoteOnEvent(tick=0, channel=0, data=[64, 41]),
   midi.NoteOnEvent(tick=0, channel=0, data=[54, 35]),
   midi.NoteOnEvent(tick=225, channel=0, data=[54, 0]),
   midi.NoteOnEvent(tick=0, channel=0, data=[64, 0]),
   midi.NoteOnEvent(tick=240, channel=0, data=[47, 50]),
   midi.NoteOnEvent(tick=224, channel=0, data=[47, 0]),
   midi.NoteOnEvent(tick=240, channel=0, data=[63, 50]),
   midi.NoteOnEvent(tick=0, channel=0, data=[59, 42]),
   midi.NoteOnEvent(tick=0, channel=0, data=[54, 42]),
   midi.NoteOnEvent(tick=1920, channel=0, data=[54, 0]),
   midi.NoteOnEvent(tick=0, channel=0, data=[59, 0]),
   midi.NoteOnEvent(tick=0, channel=0, data=[63, 0]),
   midi.NoteOnEvent(tick=0, channel=0, data=[64, 41]),
   midi.NoteOnEvent(tick=0, channel=0, data=[54, 35]),
   midi.NoteOnEvent(tick=227, channel=0, data=[54, 0]),
   midi.NoteOnEvent(tick=0, channel=0, data=[64, 0]),
   midi.NoteOnEvent(tick=240, channel=0, data=[63, 36]),
   midi.NoteOnEvent(tick=0, channel=0, data=[59, 36]),
   midi.NoteOnEvent(tick=456, channel=0, data=[59, 0]),
   midi.NoteOnEvent(tick=0, channel=0, data=[63, 0]),
   midi.NoteOnEvent(tick=24, channel=0, data=[54, 41]),
   midi.NoteOnEvent(tick=0, channel=0, data=[64, 41]),
   midi.NoteOnEvent(tick=456, channel=0, data=[64, 0]),
   midi.NoteOnEvent(tick=0, channel=0, data=[54, 0]),
   midi.NoteOnEvent(tick=24, channel=0, data=[54, 45]),
   midi.NoteOnEvent(tick=0, channel=0, data=[64, 45]),
   midi.NoteOnEvent(tick=456, channel=0, data=[64, 0]),
   midi.NoteOnEvent(tick=0, channel=0, data=[54, 0]),
   midi.NoteOnEvent(tick=24, channel=0, data=[54, 45]),
   midi.NoteOnEvent(tick=0, channel=0, data=[64, 45]),
   midi.NoteOnEvent(tick=456, channel=0, data=[64, 0]),
   midi.NoteOnEvent(tick=0, channel=0, data=[54, 0]),
   midi.NoteOnEvent(tick=24, channel=0, data=[63, 36]),
   midi.NoteOnEvent(tick=0, channel=0, data=[54, 36]),
   midi.NoteOnEvent(tick=456, channel=0, data=[54, 0]),
   midi.NoteOnEvent(tick=0, channel=0, data=[63, 0]),
   midi.NoteOnEvent(tick=24, channel=0, data=[61, 36]),
   midi.NoteOnEvent(tick=0, channel=0, data=[54, 36]),
   midi.NoteOnEvent(tick=456, channel=0, data=[54, 0]),
   midi.NoteOnEvent(tick=0, channel=0, data=[61, 0]),
   midi.NoteOnEvent(tick=24, channel=0, data=[47, 50]),
   midi.NoteOnEvent(tick=204, channel=0, data=[47, 0]),
   midi.NoteOnEvent(tick=240, channel=0, data=[62, 50]),
   midi.NoteOnEvent(tick=0, channel=0, data=[59, 42]),
   midi.NoteOnEvent(tick=0, channel=0, data=[54, 42]),
   midi.NoteOnEvent(tick=1920, channel=0, data=[54, 0]),
   midi.NoteOnEvent(tick=0, channel=0, data=[59, 0]),
   midi.NoteOnEvent(tick=0, channel=0, data=[62, 0]),
   midi.NoteOnEvent(tick=0, channel=0, data=[64, 42]),
   midi.NoteOnEvent(tick=0, channel=0, data=[54, 35]),
   midi.NoteOnEvent(tick=233, channel=0, data=[54, 0]),
   midi.NoteOnEvent(tick=0, channel=0, data=[64, 0]),
   midi.NoteOnEvent(tick=240, channel=0, data=[47, 50]),
   midi.NoteOnEvent(tick=216, channel=0, data=[47, 0]),
   midi.NoteOnEvent(tick=240, channel=0, data=[62, 50]),
   midi.NoteOnEvent(tick=0, channel=0, data=[59, 42]),
   midi.NoteOnEvent(tick=0, channel=0, data=[54, 42]),
   midi.NoteOnEvent(tick=1920, channel=0, data=[54, 0]),
   midi.NoteOnEvent(tick=0, channel=0, data=[59, 0]),
   midi.NoteOnEvent(tick=0, channel=0, data=[62, 0]),
   midi.NoteOnEvent(tick=0, channel=0, data=[64, 41]),
   midi.NoteOnEvent(tick=0, channel=0, data=[54, 35]),
   midi.NoteOnEvent(tick=229, channel=0, data=[54, 0]),
   midi.NoteOnEvent(tick=0, channel=0, data=[64, 0]),
   midi.NoteOnEvent(tick=240, channel=0, data=[62, 40]),
   midi.NoteOnEvent(tick=0, channel=0, data=[59, 40]),
   midi.NoteOnEvent(tick=456, channel=0, data=[59, 0]),
   midi.NoteOnEvent(tick=0, channel=0, data=[62, 0]),
   midi.NoteOnEvent(tick=24, channel=0, data=[57, 45]),
   midi.NoteOnEvent(tick=0, channel=0, data=[67, 45]),
   midi.NoteOnEvent(tick=456, channel=0, data=[67, 0]),
   midi.NoteOnEvent(tick=0, channel=0, data=[57, 0]),
   midi.NoteOnEvent(tick=24, channel=0, data=[57, 43]),
   midi.NoteOnEvent(tick=0, channel=0, data=[67, 43]),
   midi.NoteOnEvent(tick=456, channel=0, data=[67, 0]),
   midi.NoteOnEvent(tick=0, channel=0, data=[57, 0]),
   midi.NoteOnEvent(tick=24, channel=0, data=[57, 41]),
   midi.NoteOnEvent(tick=0, channel=0, data=[67, 41]),
   midi.NoteOnEvent(tick=456, channel=0, data=[67, 0]),
   midi.NoteOnEvent(tick=0, channel=0, data=[57, 0]),
   midi.NoteOnEvent(tick=24, channel=0, data=[57, 39]),
   midi.NoteOnEvent(tick=0, channel=0, data=[66, 39]),
   midi.NoteOnEvent(tick=456, channel=0, data=[66, 0]),
   midi.NoteOnEvent(tick=0, channel=0, data=[57, 0]),
   midi.NoteOnEvent(tick=24, channel=0, data=[57, 37]),
   midi.NoteOnEvent(tick=0, channel=0, data=[64, 37]),
   midi.NoteOnEvent(tick=456, channel=0, data=[64, 0]),
   midi.NoteOnEvent(tick=0, channel=0, data=[57, 0]),
   midi.NoteOnEvent(tick=24, channel=0, data=[62, 36]),
   midi.NoteOnEvent(tick=0, channel=0, data=[59, 36]),
   midi.NoteOnEvent(tick=456, channel=0, data=[59, 0]),
   midi.NoteOnEvent(tick=0, channel=0, data=[62, 0]),
   midi.NoteOnEvent(tick=24, channel=0, data=[54, 42]),
   midi.NoteOnEvent(tick=0, channel=0, data=[64, 42]),
   midi.NoteOnEvent(tick=456, channel=0, data=[64, 0]),
   midi.NoteOnEvent(tick=0, channel=0, data=[54, 0]),
   midi.NoteOnEvent(tick=24, channel=0, data=[54, 41]),
   midi.NoteOnEvent(tick=0, channel=0, data=[64, 41]),
   midi.NoteOnEvent(tick=456, channel=0, data=[64, 0]),
   midi.NoteOnEvent(tick=0, channel=0, data=[54, 0]),
   midi.NoteOnEvent(tick=24, channel=0, data=[54, 41]),
   midi.NoteOnEvent(tick=0, channel=0, data=[64, 41]),
   midi.NoteOnEvent(tick=456, channel=0, data=[64, 0]),
   midi.NoteOnEvent(tick=0, channel=0, data=[54, 0]),
   midi.NoteOnEvent(tick=24, channel=0, data=[61, 39]),
   midi.NoteOnEvent(tick=0, channel=0, data=[54, 39]),
   midi.NoteOnEvent(tick=456, channel=0, data=[54, 0]),
   midi.NoteOnEvent(tick=0, channel=0, data=[61, 0]),
   midi.NoteOnEvent(tick=24, channel=0, data=[58, 37]),
   midi.NoteOnEvent(tick=0, channel=0, data=[54, 37]),
   midi.NoteOnEvent(tick=456, channel=0, data=[54, 0]),
   midi.NoteOnEvent(tick=0, channel=0, data=[58, 0]),
   midi.NoteOnEvent(tick=24, channel=0, data=[59, 36]),
   midi.NoteOnEvent(tick=0, channel=0, data=[56, 36]),
   midi.NoteOnEvent(tick=456, channel=0, data=[56, 0]),
   midi.NoteOnEvent(tick=0, channel=0, data=[59, 0]),
   midi.NoteOnEvent(tick=24, channel=0, data=[49, 44]),
   midi.NoteOnEvent(tick=0, channel=0, data=[56, 44]),
   midi.NoteOnEvent(tick=0, channel=0, data=[61, 44]),
   midi.NoteOnEvent(tick=456, channel=0, data=[61, 0]),
   midi.NoteOnEvent(tick=0, channel=0, data=[56, 0]),
   midi.NoteOnEvent(tick=0, channel=0, data=[49, 0]),
   midi.NoteOnEvent(tick=24, channel=0, data=[49, 42]),
   midi.NoteOnEvent(tick=0, channel=0, data=[56, 42]),
   midi.NoteOnEvent(tick=0, channel=0, data=[61, 42]),
   midi.NoteOnEvent(tick=456, channel=0, data=[61, 0]),
   midi.NoteOnEvent(tick=0, channel=0, data=[56, 0]),
   midi.NoteOnEvent(tick=0, channel=0, data=[49, 0]),
   midi.NoteOnEvent(tick=24, channel=0, data=[49, 44]),
   midi.NoteOnEvent(tick=0, channel=0, data=[61, 44]),
   midi.NoteOnEvent(tick=0, channel=0, data=[56, 44]),
   midi.NoteOnEvent(tick=456, channel=0, data=[56, 0]),
   midi.NoteOnEvent(tick=0, channel=0, data=[61, 0]),
   midi.NoteOnEvent(tick=0, channel=0, data=[49, 0]),
   midi.NoteOnEvent(tick=24, channel=0, data=[51, 43]),
   midi.NoteOnEvent(tick=0, channel=0, data=[59, 43]),
   midi.NoteOnEvent(tick=0, channel=0, data=[56, 43]),
   midi.NoteOnEvent(tick=456, channel=0, data=[56, 0]),
   midi.NoteOnEvent(tick=0, channel=0, data=[59, 0]),
   midi.NoteOnEvent(tick=0, channel=0, data=[51, 0]),
   midi.NoteOnEvent(tick=24, channel=0, data=[56, 42]),
   midi.NoteOnEvent(tick=0, channel=0, data=[52, 42]),
   midi.NoteOnEvent(tick=456, channel=0, data=[52, 0]),
   midi.NoteOnEvent(tick=0, channel=0, data=[56, 0]),
   midi.NoteOnEvent(tick=24, channel=0, data=[51, 41]),
   midi.NoteOnEvent(tick=0, channel=0, data=[56, 41]),
   midi.NoteOnEvent(tick=0, channel=0, data=[59, 41]),
   midi.NoteOnEvent(tick=456, channel=0, data=[59, 0]),
   midi.NoteOnEvent(tick=0, channel=0, data=[56, 0]),
   midi.NoteOnEvent(tick=0, channel=0, data=[51, 0]),
   midi.NoteOnEvent(tick=24, channel=0, data=[51, 40]),
   midi.NoteOnEvent(tick=0, channel=0, data=[56, 40]),
   midi.NoteOnEvent(tick=0, channel=0, data=[59, 40]),
   midi.NoteOnEvent(tick=456, channel=0, data=[59, 0]),
   midi.NoteOnEvent(tick=0, channel=0, data=[56, 0]),
   midi.NoteOnEvent(tick=0, channel=0, data=[51, 0]),
   midi.NoteOnEvent(tick=24, channel=0, data=[51, 40]),
   midi.NoteOnEvent(tick=0, channel=0, data=[56, 40]),
   midi.NoteOnEvent(tick=0, channel=0, data=[59, 40]),
   midi.NoteOnEvent(tick=456, channel=0, data=[59, 0]),
   midi.NoteOnEvent(tick=0, channel=0, data=[56, 0]),
   midi.NoteOnEvent(tick=0, channel=0, data=[51, 0]),
   midi.NoteOnEvent(tick=24, channel=0, data=[51, 31]),
   midi.NoteOnEvent(tick=0, channel=0, data=[55, 31]),
   midi.NoteOnEvent(tick=0, channel=0, data=[58, 31]),
   midi.NoteOnEvent(tick=456, channel=0, data=[58, 0]),
   midi.NoteOnEvent(tick=0, channel=0, data=[55, 0]),
   midi.NoteOnEvent(tick=0, channel=0, data=[51, 0]),
   midi.NoteOnEvent(tick=24, channel=0, data=[51, 30]),
   midi.NoteOnEvent(tick=0, channel=0, data=[55, 30]),
   midi.NoteOnEvent(tick=0, channel=0, data=[58, 30]),
   midi.NoteOnEvent(tick=456, channel=0, data=[58, 0]),
   midi.NoteOnEvent(tick=0, channel=0, data=[55, 0]),
   midi.NoteOnEvent(tick=0, channel=0, data=[51, 0]),
   midi.NoteOnEvent(tick=24, channel=0, data=[51, 29]),
   midi.NoteOnEvent(tick=0, channel=0, data=[55, 29]),
   midi.NoteOnEvent(tick=0, channel=0, data=[58, 29]),
   midi.NoteOnEvent(tick=456, channel=0, data=[58, 0]),
   midi.NoteOnEvent(tick=0, channel=0, data=[55, 0]),
   midi.NoteOnEvent(tick=0, channel=0, data=[51, 0]),
   midi.NoteOnEvent(tick=24, channel=0, data=[44, 40]),
   midi.NoteOnEvent(tick=436, channel=0, data=[44, 0]),
   midi.NoteOnEvent(tick=0, channel=0, data=[51, 34]),
   midi.NoteOnEvent(tick=0, channel=0, data=[60, 40]),
   midi.NoteOnEvent(tick=0, channel=0, data=[56, 34]),
   midi.NoteOnEvent(tick=1920, channel=0, data=[56, 0]),
   midi.NoteOnEvent(tick=0, channel=0, data=[60, 0]),
   midi.NoteOnEvent(tick=0, channel=0, data=[51, 0]),
   midi.NoteOnEvent(tick=0, channel=0, data=[61, 32]),
   midi.NoteOnEvent(tick=0, channel=0, data=[51, 27]),
   midi.NoteOnEvent(tick=223, channel=0, data=[51, 0]),
   midi.NoteOnEvent(tick=0, channel=0, data=[61, 0]),
   midi.NoteOnEvent(tick=240, channel=0, data=[44, 40]),
   midi.NoteOnEvent(tick=432, channel=0, data=[44, 0]),
   midi.NoteOnEvent(tick=0, channel=0, data=[51, 34]),
   midi.NoteOnEvent(tick=0, channel=0, data=[60, 40]),
   midi.NoteOnEvent(tick=0, channel=0, data=[56, 34]),
   midi.NoteOnEvent(tick=1920, channel=0, data=[56, 0]),
   midi.NoteOnEvent(tick=0, channel=0, data=[60, 0]),
   midi.NoteOnEvent(tick=0, channel=0, data=[51, 0]),
   midi.NoteOnEvent(tick=0, channel=0, data=[61, 32]),
   midi.NoteOnEvent(tick=0, channel=0, data=[51, 27]),
   midi.NoteOnEvent(tick=219, channel=0, data=[51, 0]),
   midi.NoteOnEvent(tick=0, channel=0, data=[61, 0]),
   midi.NoteOnEvent(tick=240, channel=0, data=[44, 45]),
   midi.NoteOnEvent(tick=444, channel=0, data=[44, 0]),
   midi.NoteOnEvent(tick=0, channel=0, data=[51, 41]),
   midi.NoteOnEvent(tick=0, channel=0, data=[60, 49]),
   midi.NoteOnEvent(tick=0, channel=0, data=[56, 41]),
   midi.NoteOnEvent(tick=1920, channel=0, data=[56, 0]),
   midi.NoteOnEvent(tick=0, channel=0, data=[60, 0]),
   midi.NoteOnEvent(tick=0, channel=0, data=[51, 0]),
   midi.NoteOnEvent(tick=0, channel=0, data=[61, 36]),
   midi.NoteOnEvent(tick=0, channel=0, data=[51, 30]),
   midi.NoteOnEvent(tick=221, channel=0, data=[51, 0]),
   midi.NoteOnEvent(tick=0, channel=0, data=[61, 0]),
   midi.NoteOnEvent(tick=240, channel=0, data=[44, 50]),
   midi.NoteOnEvent(tick=424, channel=0, data=[44, 0]),
   midi.NoteOnEvent(tick=0, channel=0, data=[51, 40]),
   midi.NoteOnEvent(tick=0, channel=0, data=[60, 48]),
   midi.NoteOnEvent(tick=0, channel=0, data=[56, 40]),
   midi.NoteOnEvent(tick=1920, channel=0, data=[56, 0]),
   midi.NoteOnEvent(tick=0, channel=0, data=[60, 0]),
   midi.NoteOnEvent(tick=0, channel=0, data=[51, 0]),
   midi.NoteOnEvent(tick=0, channel=0, data=[61, 40]),
   midi.NoteOnEvent(tick=0, channel=0, data=[51, 34]),
   midi.NoteOnEvent(tick=233, channel=0, data=[51, 0]),
   midi.NoteOnEvent(tick=0, channel=0, data=[61, 0]),
   midi.NoteOnEvent(tick=240, channel=0, data=[44, 40]),
   midi.NoteOnEvent(tick=472, channel=0, data=[44, 0]),
   midi.NoteOnEvent(tick=0, channel=0, data=[54, 27]),
   midi.NoteOnEvent(tick=0, channel=0, data=[60, 33]),
   midi.NoteOnEvent(tick=0, channel=0, data=[56, 27]),
   midi.NoteOnEvent(tick=472, channel=0, data=[56, 0]),
   midi.NoteOnEvent(tick=0, channel=0, data=[60, 0]),
   midi.NoteOnEvent(tick=0, channel=0, data=[54, 0]),
   midi.NoteOnEvent(tick=0, channel=0, data=[49, 40]),
   midi.NoteOnEvent(tick=464, channel=0, data=[49, 0]),
   midi.NoteOnEvent(tick=0, channel=0, data=[61, 29]),
   midi.NoteOnEvent(tick=0, channel=0, data=[56, 25]),
   midi.NoteOnEvent(tick=0, channel=0, data=[53, 25]),
   midi.NoteOnEvent(tick=464, channel=0, data=[53, 0]),
   midi.NoteOnEvent(tick=0, channel=0, data=[56, 0]),
   midi.NoteOnEvent(tick=0, channel=0, data=[61, 0]),
   midi.NoteOnEvent(tick=0, channel=0, data=[39, 40]),
   midi.NoteOnEvent(tick=460, channel=0, data=[39, 0]),
   midi.NoteOnEvent(tick=0, channel=0, data=[51, 29]),
   midi.NoteOnEvent(tick=0, channel=0, data=[61, 35]),
   midi.NoteOnEvent(tick=0, channel=0, data=[58, 29]),
   midi.NoteOnEvent(tick=460, channel=0, data=[58, 0]),
   midi.NoteOnEvent(tick=0, channel=0, data=[61, 0]),
   midi.NoteOnEvent(tick=0, channel=0, data=[51, 0]),
   midi.NoteOnEvent(tick=0, channel=0, data=[44, 40]),
   midi.NoteOnEvent(tick=444, channel=0, data=[44, 0]),
   midi.NoteOnEvent(tick=0, channel=0, data=[60, 37]),
   midi.NoteOnEvent(tick=0, channel=0, data=[56, 31]),
   midi.NoteOnEvent(tick=0, channel=0, data=[51, 31]),
   midi.NoteOnEvent(tick=444, channel=0, data=[51, 0]),
   midi.NoteOnEvent(tick=0, channel=0, data=[56, 0]),
   midi.NoteOnEvent(tick=0, channel=0, data=[60, 0]),
   midi.NoteOnEvent(tick=0, channel=0, data=[44, 50]),
   midi.NoteOnEvent(tick=444, channel=0, data=[44, 0]),
   midi.NoteOnEvent(tick=0, channel=0, data=[54, 34]),
   midi.NoteOnEvent(tick=0, channel=0, data=[60, 41]),
   midi.NoteOnEvent(tick=0, channel=0, data=[56, 34]),
   midi.NoteOnEvent(tick=444, channel=0, data=[56, 0]),
   midi.NoteOnEvent(tick=0, channel=0, data=[60, 0]),
   midi.NoteOnEvent(tick=0, channel=0, data=[54, 0]),
   midi.NoteOnEvent(tick=0, channel=0, data=[49, 60]),
   midi.NoteOnEvent(tick=460, channel=0, data=[49, 0]),
   midi.NoteOnEvent(tick=0, channel=0, data=[56, 44]),
   midi.NoteOnEvent(tick=0, channel=0, data=[61, 52]),
   midi.NoteOnEvent(tick=0, channel=0, data=[53, 44]),
   midi.NoteOnEvent(tick=460, channel=0, data=[53, 0]),
   midi.NoteOnEvent(tick=0, channel=0, data=[61, 0]),
   midi.NoteOnEvent(tick=0, channel=0, data=[56, 0]),
   midi.NoteOnEvent(tick=0, channel=0, data=[39, 70]),
   midi.NoteOnEvent(tick=444, channel=0, data=[39, 0]),
   midi.NoteOnEvent(tick=0, channel=0, data=[61, 61]),
   midi.NoteOnEvent(tick=0, channel=0, data=[58, 51]),
   midi.NoteOnEvent(tick=0, channel=0, data=[51, 51]),
   midi.NoteOnEvent(tick=444, channel=0, data=[51, 0]),
   midi.NoteOnEvent(tick=0, channel=0, data=[58, 0]),
   midi.NoteOnEvent(tick=0, channel=0, data=[61, 0]),
   midi.NoteOnEvent(tick=0, channel=0, data=[44, 76]),
   midi.NoteOnEvent(tick=436, channel=0, data=[44, 0]),
   midi.NoteOnEvent(tick=0, channel=0, data=[60, 63]),
   midi.NoteOnEvent(tick=0, channel=0, data=[56, 53]),
   midi.NoteOnEvent(tick=0, channel=0, data=[51, 53]),
   midi.NoteOnEvent(tick=436, channel=0, data=[51, 0]),
   midi.NoteOnEvent(tick=0, channel=0, data=[56, 0]),
   midi.NoteOnEvent(tick=0, channel=0, data=[60, 0]),
   midi.NoteOnEvent(tick=0, channel=0, data=[51, 50]),
   midi.NoteOnEvent(tick=0, channel=0, data=[44, 34]),
   midi.NoteOnEvent(tick=452, channel=0, data=[51, 0]),
   midi.NoteOnEvent(tick=0, channel=0, data=[56, 60]),
   midi.NoteOnEvent(tick=720, channel=0, data=[56, 0]),
   midi.NoteOnEvent(tick=0, channel=0, data=[55, 50]),
   midi.NoteOnEvent(tick=240, channel=0, data=[55, 0]),
   midi.NoteOnEvent(tick=0, channel=0, data=[44, 0]),
   midi.NoteOnEvent(tick=0, channel=0, data=[53, 50]),
   midi.NoteOnEvent(tick=0, channel=0, data=[49, 34]),
   midi.NoteOnEvent(tick=346, channel=0, data=[53, 0]),
   midi.NoteOnEvent(tick=0, channel=0, data=[61, 60]),
   midi.NoteOnEvent(tick=720, channel=0, data=[61, 0]),
   midi.NoteOnEvent(tick=0, channel=0, data=[60, 50]),
   midi.NoteOnEvent(tick=240, channel=0, data=[60, 0]),
   midi.NoteOnEvent(tick=0, channel=0, data=[49, 0]),
   midi.NoteOnEvent(tick=0, channel=0, data=[58, 50]),
   midi.NoteOnEvent(tick=0, channel=0, data=[51, 34]),
   midi.NoteOnEvent(tick=332, channel=0, data=[58, 0]),
   midi.NoteOnEvent(tick=0, channel=0, data=[63, 60]),
   midi.NoteOnEvent(tick=720, channel=0, data=[63, 0]),
   midi.NoteOnEvent(tick=0, channel=0, data=[61, 50]),
   midi.NoteOnEvent(tick=240, channel=0, data=[61, 0]),
   midi.NoteOnEvent(tick=0, channel=0, data=[51, 0]),
   midi.NoteOnEvent(tick=0, channel=0, data=[60, 50]),
   midi.NoteOnEvent(tick=0, channel=0, data=[56, 34]),
   midi.NoteOnEvent(tick=388, channel=0, data=[60, 0]),
   midi.NoteOnEvent(tick=0, channel=0, data=[63, 60]),
   midi.NoteOnEvent(tick=960, channel=0, data=[63, 0]),
   midi.NoteOnEvent(tick=0, channel=0, data=[56, 0]),
   midi.NoteOnEvent(tick=0, channel=0, data=[51, 66]),
   midi.NoteOnEvent(tick=0, channel=0, data=[44, 56]),
   midi.NoteOnEvent(tick=353, channel=0, data=[51, 0]),
   midi.NoteOnEvent(tick=0, channel=0, data=[56, 73]),
   midi.NoteOnEvent(tick=720, channel=0, data=[56, 0]),
   midi.NoteOnEvent(tick=0, channel=0, data=[55, 60]),
   midi.NoteOnEvent(tick=240, channel=0, data=[55, 0]),
   midi.NoteOnEvent(tick=0, channel=0, data=[44, 0]),
   midi.NoteOnEvent(tick=0, channel=0, data=[53, 68]),
   midi.NoteOnEvent(tick=0, channel=0, data=[49, 57]),
   midi.NoteOnEvent(tick=367, channel=0, data=[53, 0]),
   midi.NoteOnEvent(tick=0, channel=0, data=[61, 76]),
   midi.NoteOnEvent(tick=720, channel=0, data=[61, 0]),
   midi.NoteOnEvent(tick=0, channel=0, data=[60, 70]),
   midi.NoteOnEvent(tick=240, channel=0, data=[60, 0]),
   midi.NoteOnEvent(tick=0, channel=0, data=[49, 0]),
   midi.NoteOnEvent(tick=0, channel=0, data=[58, 72]),
   midi.NoteOnEvent(tick=0, channel=0, data=[51, 61]),
   midi.NoteOnEvent(tick=353, channel=0, data=[58, 0]),
   midi.NoteOnEvent(tick=0, channel=0, data=[63, 78]),
   midi.NoteOnEvent(tick=720, channel=0, data=[63, 0]),
   midi.NoteOnEvent(tick=0, channel=0, data=[61, 71]),
   midi.NoteOnEvent(tick=240, channel=0, data=[61, 0]),
   midi.NoteOnEvent(tick=0, channel=0, data=[51, 0]),
   midi.NoteOnEvent(tick=0, channel=0, data=[60, 72]),
   midi.NoteOnEvent(tick=0, channel=0, data=[56, 60]),
   midi.NoteOnEvent(tick=360, channel=0, data=[60, 0]),
   midi.NoteOnEvent(tick=0, channel=0, data=[63, 79]),
   midi.NoteOnEvent(tick=720, channel=0, data=[63, 0]),
   midi.NoteOnEvent(tick=0, channel=0, data=[60, 69]),
   midi.NoteOnEvent(tick=240, channel=0, data=[60, 0]),
   midi.NoteOnEvent(tick=0, channel=0, data=[56, 0]),
   midi.NoteOnEvent(tick=0, channel=0, data=[58, 78]),
   midi.NoteOnEvent(tick=0, channel=0, data=[51, 66]),
   midi.NoteOnEvent(tick=353, channel=0, data=[58, 0]),
   midi.NoteOnEvent(tick=0, channel=0, data=[63, 86]),
   midi.NoteOnEvent(tick=720, channel=0, data=[63, 0]),
   midi.NoteOnEvent(tick=0, channel=0, data=[61, 79]),
   midi.NoteOnEvent(tick=240, channel=0, data=[61, 0]),
   midi.NoteOnEvent(tick=0, channel=0, data=[51, 0]),
   midi.NoteOnEvent(tick=0, channel=0, data=[60, 80]),
   midi.NoteOnEvent(tick=0, channel=0, data=[56, 67]),
   midi.NoteOnEvent(tick=339, channel=0, data=[60, 0]),
   midi.NoteOnEvent(tick=0, channel=0, data=[63, 87]),
   midi.NoteOnEvent(tick=720, channel=0, data=[63, 0]),
   midi.NoteOnEvent(tick=0, channel=0, data=[60, 78]),
   midi.NoteOnEvent(tick=240, channel=0, data=[60, 0]),
   midi.NoteOnEvent(tick=0, channel=0, data=[56, 0]),
   midi.NoteOnEvent(tick=0, channel=0, data=[53, 61]),
   midi.NoteOnEvent(tick=0, channel=0, data=[60, 74]),
   midi.NoteOnEvent(tick=343, channel=0, data=[60, 0]),
   midi.NoteOnEvent(tick=0, channel=0, data=[65, 79]),
   midi.NoteOnEvent(tick=720, channel=0, data=[65, 0]),
   midi.NoteOnEvent(tick=0, channel=0, data=[63, 71]),
   midi.NoteOnEvent(tick=240, channel=0, data=[63, 0]),
   midi.NoteOnEvent(tick=0, channel=0, data=[53, 0]),
   midi.NoteOnEvent(tick=0, channel=0, data=[61, 76]),
   midi.NoteOnEvent(tick=0, channel=0, data=[58, 58]),
   midi.NoteOnEvent(tick=367, channel=0, data=[61, 0]),
   midi.NoteOnEvent(tick=0, channel=0, data=[65, 80]),
   midi.NoteOnEvent(tick=720, channel=0, data=[65, 0]),
   midi.NoteOnEvent(tick=0, channel=0, data=[61, 71]),
   midi.NoteOnEvent(tick=240, channel=0, data=[61, 0]),
   midi.NoteOnEvent(tick=0, channel=0, data=[58, 0]),
   midi.NoteOnEvent(tick=0, channel=0, data=[60, 76]),
   midi.NoteOnEvent(tick=0, channel=0, data=[53, 58]),
   midi.NoteOnEvent(tick=371, channel=0, data=[60, 0]),
   midi.NoteOnEvent(tick=0, channel=0, data=[65, 80]),
   midi.NoteOnEvent(tick=720, channel=0, data=[65, 0]),
   midi.NoteOnEvent(tick=0, channel=0, data=[63, 71]),
   midi.NoteOnEvent(tick=240, channel=0, data=[63, 0]),
   midi.NoteOnEvent(tick=0, channel=0, data=[53, 0]),
   midi.NoteOnEvent(tick=0, channel=0, data=[61, 76]),
   midi.NoteOnEvent(tick=0, channel=0, data=[58, 58]),
   midi.NoteOnEvent(tick=353, channel=0, data=[61, 0]),
   midi.NoteOnEvent(tick=0, channel=0, data=[65, 79]),
   midi.NoteOnEvent(tick=720, channel=0, data=[65, 0]),
   midi.NoteOnEvent(tick=0, channel=0, data=[61, 71]),
   midi.NoteOnEvent(tick=240, channel=0, data=[61, 0]),
   midi.NoteOnEvent(tick=0, channel=0, data=[58, 0]),
   midi.NoteOnEvent(tick=0, channel=0, data=[63, 76]),
   midi.NoteOnEvent(tick=0, channel=0, data=[56, 58]),
   midi.NoteOnEvent(tick=346, channel=0, data=[63, 0]),
   midi.NoteOnEvent(tick=0, channel=0, data=[68, 80]),
   midi.NoteOnEvent(tick=720, channel=0, data=[68, 0]),
   midi.NoteOnEvent(tick=0, channel=0, data=[66, 73]),
   midi.NoteOnEvent(tick=240, channel=0, data=[66, 0]),
   midi.NoteOnEvent(tick=0, channel=0, data=[56, 0]),
   midi.NoteOnEvent(tick=0, channel=0, data=[61, 65]),
   midi.NoteOnEvent(tick=0, channel=0, data=[65, 78]),
   midi.NoteOnEvent(tick=346, channel=0, data=[65, 0]),
   midi.NoteOnEvent(tick=0, channel=0, data=[68, 81]),
   midi.NoteOnEvent(tick=720, channel=0, data=[68, 0]),
   midi.NoteOnEvent(tick=0, channel=0, data=[65, 72]),
   midi.NoteOnEvent(tick=240, channel=0, data=[65, 0]),
   midi.NoteOnEvent(tick=0, channel=0, data=[61, 0]),
   midi.NoteOnEvent(tick=0, channel=0, data=[63, 76]),
   midi.NoteOnEvent(tick=0, channel=0, data=[56, 64]),
   midi.NoteOnEvent(tick=353, channel=0, data=[63, 0]),
   midi.NoteOnEvent(tick=0, channel=0, data=[68, 82]),
   midi.NoteOnEvent(tick=720, channel=0, data=[68, 0]),
   midi.NoteOnEvent(tick=0, channel=0, data=[66, 71]),
   midi.NoteOnEvent(tick=240, channel=0, data=[66, 0]),
   midi.NoteOnEvent(tick=0, channel=0, data=[56, 0]),
   midi.NoteOnEvent(tick=0, channel=0, data=[65, 80]),
   midi.NoteOnEvent(tick=0, channel=0, data=[61, 67]),
   midi.NoteOnEvent(tick=402, channel=0, data=[61, 0]),
   midi.NoteOnEvent(tick=0, channel=0, data=[65, 0]),
   midi.NoteOnEvent(tick=2400, channel=0, data=[68, 88]),
   midi.NoteOnEvent(tick=120, channel=0, data=[68, 0]),
   midi.NoteOnEvent(tick=240, channel=0, data=[65, 84]),
   midi.NoteOnEvent(tick=240, channel=0, data=[65, 0]),
   midi.NoteOnEvent(tick=240, channel=0, data=[61, 84]),
   midi.NoteOnEvent(tick=240, channel=0, data=[61, 0]),
   midi.NoteOnEvent(tick=240, channel=0, data=[56, 88]),
   midi.NoteOnEvent(tick=240, channel=0, data=[56, 0]),
   midi.NoteOnEvent(tick=240, channel=0, data=[53, 84]),
   midi.NoteOnEvent(tick=240, channel=0, data=[53, 0]),
   midi.NoteOnEvent(tick=240, channel=0, data=[49, 84]),
   midi.NoteOnEvent(tick=240, channel=0, data=[49, 0]),
   midi.NoteOnEvent(tick=240, channel=0, data=[52, 70]),
   midi.NoteOnEvent(tick=0, channel=0, data=[49, 59]),
   midi.NoteOnEvent(tick=0, channel=0, data=[46, 59]),
   midi.NoteOnEvent(tick=0, channel=0, data=[43, 59]),
   midi.NoteOnEvent(tick=801, channel=0, data=[52, 0]),
   midi.NoteOnEvent(tick=1, channel=0, data=[49, 0]),
   midi.NoteOnEvent(tick=0, channel=0, data=[46, 0]),
   midi.NoteOnEvent(tick=0, channel=0, data=[43, 0]),
   midi.NoteOnEvent(tick=9, channel=0, data=[52, 70]),
   midi.NoteOnEvent(tick=0, channel=0, data=[49, 59]),
   midi.NoteOnEvent(tick=0, channel=0, data=[46, 59]),
   midi.NoteOnEvent(tick=0, channel=0, data=[43, 59]),
   midi.NoteOnEvent(tick=825, channel=0, data=[43, 0]),
   midi.NoteOnEvent(tick=0, channel=0, data=[52, 0]),
   midi.NoteOnEvent(tick=0, channel=0, data=[49, 0]),
   midi.NoteOnEvent(tick=0, channel=0, data=[46, 0]),
   midi.NoteOnEvent(tick=9, channel=0, data=[52, 70]),
   midi.NoteOnEvent(tick=0, channel=0, data=[49, 59]),
   midi.NoteOnEvent(tick=0, channel=0, data=[46, 59]),
   midi.NoteOnEvent(tick=0, channel=0, data=[43, 59]),
   midi.NoteOnEvent(tick=836, channel=0, data=[43, 0]),
   midi.NoteOnEvent(tick=0, channel=0, data=[52, 0]),
   midi.NoteOnEvent(tick=0, channel=0, data=[49, 0]),
   midi.NoteOnEvent(tick=0, channel=0, data=[46, 0]),
   midi.NoteOnEvent(tick=9, channel=0, data=[51, 65]),
   midi.NoteOnEvent(tick=0, channel=0, data=[49, 55]),
   midi.NoteOnEvent(tick=0, channel=0, data=[46, 55]),
   midi.NoteOnEvent(tick=0, channel=0, data=[43, 55]),
   midi.NoteOnEvent(tick=795, channel=0, data=[43, 0]),
   midi.NoteOnEvent(tick=0, channel=0, data=[51, 0]),
   midi.NoteOnEvent(tick=0, channel=0, data=[49, 0]),
   midi.NoteOnEvent(tick=0, channel=0, data=[46, 0]),
   midi.NoteOnEvent(tick=9, channel=0, data=[51, 51]),
   midi.NoteOnEvent(tick=0, channel=0, data=[49, 43]),
   midi.NoteOnEvent(tick=0, channel=0, data=[46, 43]),
   midi.NoteOnEvent(tick=0, channel=0, data=[43, 43]),
   midi.NoteOnEvent(tick=838, channel=0, data=[43, 0]),
   midi.NoteOnEvent(tick=0, channel=0, data=[51, 0]),
   midi.NoteOnEvent(tick=0, channel=0, data=[49, 0]),
   midi.NoteOnEvent(tick=0, channel=0, data=[46, 0]),
   midi.NoteOnEvent(tick=9, channel=0, data=[51, 45]),
   midi.NoteOnEvent(tick=0, channel=0, data=[49, 38]),
   midi.NoteOnEvent(tick=0, channel=0, data=[46, 38]),
   midi.NoteOnEvent(tick=0, channel=0, data=[43, 38]),
   midi.NoteOnEvent(tick=774, channel=0, data=[43, 0]),
   midi.NoteOnEvent(tick=0, channel=0, data=[51, 0]),
   midi.NoteOnEvent(tick=0, channel=0, data=[49, 0]),
   midi.NoteOnEvent(tick=0, channel=0, data=[46, 0]),
   midi.NoteOnEvent(tick=0, channel=0, data=[44, 40]),
   midi.NoteOnEvent(tick=388, channel=0, data=[44, 0]),
   midi.NoteOnEvent(tick=0, channel=0, data=[48, 40]),
   midi.NoteOnEvent(tick=367, channel=0, data=[48, 0]),
   midi.NoteOnEvent(tick=0, channel=0, data=[49, 40]),
   midi.NoteOnEvent(tick=381, channel=0, data=[49, 0]),
   midi.NoteOnEvent(tick=0, channel=0, data=[46, 40]),
   midi.NoteOnEvent(tick=360, channel=0, data=[46, 0]),
   midi.NoteOnEvent(tick=0, channel=0, data=[49, 40]),
   midi.NoteOnEvent(tick=374, channel=0, data=[49, 0]),
   midi.NoteOnEvent(tick=0, channel=0, data=[51, 40]),
   midi.NoteOnEvent(tick=381, channel=0, data=[51, 0]),
   midi.NoteOnEvent(tick=0, channel=0, data=[39, 40]),
   midi.NoteOnEvent(tick=374, channel=0, data=[39, 0]),
   midi.NoteOnEvent(tick=0, channel=0, data=[44, 40]),
   midi.NoteOnEvent(tick=353, channel=0, data=[44, 0]),
   midi.NoteOnEvent(tick=0, channel=0, data=[48, 40]),
   midi.NoteOnEvent(tick=360, channel=0, data=[48, 0]),
   midi.NoteOnEvent(tick=0, channel=0, data=[49, 40]),
   midi.NoteOnEvent(tick=381, channel=0, data=[49, 0]),
   midi.NoteOnEvent(tick=0, channel=0, data=[46, 40]),
   midi.NoteOnEvent(tick=346, channel=0, data=[46, 0]),
   midi.NoteOnEvent(tick=0, channel=0, data=[58, 40]),
   midi.NoteOnEvent(tick=0, channel=0, data=[49, 40]),
   midi.NoteOnEvent(tick=388, channel=0, data=[49, 0]),
   midi.NoteOnEvent(tick=0, channel=0, data=[51, 40]),
   midi.NoteOnEvent(tick=388, channel=0, data=[58, 0]),
   midi.NoteOnEvent(tick=0, channel=0, data=[56, 40]),
   midi.NoteOnEvent(tick=402, channel=0, data=[56, 0]),
   midi.NoteOnEvent(tick=0, channel=0, data=[56, 40]),
   midi.NoteOnEvent(tick=409, channel=0, data=[51, 0]),
   midi.NoteOnEvent(tick=0, channel=0, data=[51, 40]),
   midi.NoteOnEvent(tick=402, channel=0, data=[56, 0]),
   midi.NoteOnEvent(tick=0, channel=0, data=[55, 40]),
   midi.NoteOnEvent(tick=367, channel=0, data=[55, 0]),
   midi.NoteOnEvent(tick=0, channel=0, data=[55, 40]),
   midi.NoteOnEvent(tick=388, channel=0, data=[55, 0]),
   midi.NoteOnEvent(tick=0, channel=0, data=[51, 0]),
   midi.NoteOnEvent(tick=0, channel=0, data=[44, 48]),
   midi.NoteOnEvent(tick=233, channel=0, data=[44, 0]),
   midi.NoteOnEvent(tick=120, channel=0, data=[54, 36]),
   midi.NoteOnEvent(tick=0, channel=0, data=[60, 39]),
   midi.NoteOnEvent(tick=0, channel=0, data=[56, 36]),
   midi.NoteOnEvent(tick=254, channel=0, data=[56, 0]),
   midi.NoteOnEvent(tick=0, channel=0, data=[60, 0]),
   midi.NoteOnEvent(tick=0, channel=0, data=[54, 0]),
   midi.NoteOnEvent(tick=0, channel=0, data=[49, 48]),
   midi.NoteOnEvent(tick=340, channel=0, data=[49, 0]),
   midi.NoteOnEvent(tick=120, channel=0, data=[61, 35]),
   midi.NoteOnEvent(tick=0, channel=0, data=[56, 32]),
   midi.NoteOnEvent(tick=0, channel=0, data=[53, 32]),
   midi.NoteOnEvent(tick=275, channel=0, data=[53, 0]),
   midi.NoteOnEvent(tick=0, channel=0, data=[56, 0]),
   midi.NoteOnEvent(tick=0, channel=0, data=[61, 0]),
   midi.NoteOnEvent(tick=0, channel=0, data=[39, 48]),
   midi.NoteOnEvent(tick=324, channel=0, data=[39, 0]),
   midi.NoteOnEvent(tick=120, channel=0, data=[51, 34]),
   midi.NoteOnEvent(tick=0, channel=0, data=[61, 37]),
   midi.NoteOnEvent(tick=0, channel=0, data=[58, 34]),
   midi.NoteOnEvent(tick=353, channel=0, data=[58, 0]),
   midi.NoteOnEvent(tick=0, channel=0, data=[61, 0]),
   midi.NoteOnEvent(tick=0, channel=0, data=[51, 0]),
   midi.NoteOnEvent(tick=0, channel=0, data=[44, 48]),
   midi.NoteOnEvent(tick=344, channel=0, data=[44, 0]),
   midi.NoteOnEvent(tick=120, channel=0, data=[60, 39]),
   midi.NoteOnEvent(tick=0, channel=0, data=[56, 36]),
   midi.NoteOnEvent(tick=0, channel=0, data=[51, 36]),
   midi.NoteOnEvent(tick=296, channel=0, data=[51, 0]),
   midi.NoteOnEvent(tick=0, channel=0, data=[56, 0]),
   midi.NoteOnEvent(tick=0, channel=0, data=[60, 0]),
   midi.NoteOnEvent(tick=0, channel=0, data=[44, 60]),
   midi.NoteOnEvent(tick=340, channel=0, data=[44, 0]),
   midi.NoteOnEvent(tick=120, channel=0, data=[54, 45]),
   midi.NoteOnEvent(tick=0, channel=0, data=[60, 49]),
   midi.NoteOnEvent(tick=0, channel=0, data=[56, 45]),
   midi.NoteOnEvent(tick=332, channel=0, data=[56, 0]),
   midi.NoteOnEvent(tick=0, channel=0, data=[60, 0]),
   midi.NoteOnEvent(tick=0, channel=0, data=[54, 0]),
   midi.NoteOnEvent(tick=0, channel=0, data=[49, 72]),
   midi.NoteOnEvent(tick=316, channel=0, data=[49, 0]),
   midi.NoteOnEvent(tick=120, channel=0, data=[56, 57]),
   midi.NoteOnEvent(tick=0, channel=0, data=[61, 62]),
   midi.NoteOnEvent(tick=0, channel=0, data=[53, 57]),
   midi.NoteOnEvent(tick=310, channel=0, data=[53, 0]),
   midi.NoteOnEvent(tick=0, channel=0, data=[61, 0]),
   midi.NoteOnEvent(tick=0, channel=0, data=[56, 0]),
   midi.NoteOnEvent(tick=0, channel=0, data=[39, 84]),
   midi.NoteOnEvent(tick=316, channel=0, data=[39, 0]),
   midi.NoteOnEvent(tick=120, channel=0, data=[61, 73]),
   midi.NoteOnEvent(tick=0, channel=0, data=[58, 68]),
   midi.NoteOnEvent(tick=0, channel=0, data=[51, 68]),
   midi.NoteOnEvent(tick=332, channel=0, data=[51, 0]),
   midi.NoteOnEvent(tick=0, channel=0, data=[58, 0]),
   midi.NoteOnEvent(tick=0, channel=0, data=[61, 0]),
   midi.NoteOnEvent(tick=0, channel=0, data=[44, 88]),
   midi.NoteOnEvent(tick=312, channel=0, data=[44, 0]),
   midi.NoteOnEvent(tick=120, channel=0, data=[60, 76]),
   midi.NoteOnEvent(tick=0, channel=0, data=[56, 70]),
   midi.NoteOnEvent(tick=0, channel=0, data=[51, 70]),
   midi.NoteOnEvent(tick=296, channel=0, data=[51, 0]),
   midi.NoteOnEvent(tick=0, channel=0, data=[56, 0]),
   midi.NoteOnEvent(tick=0, channel=0, data=[60, 0]),
   midi.NoteOnEvent(tick=0, channel=0, data=[51, 60]),
   midi.NoteOnEvent(tick=0, channel=0, data=[44, 48]),
   midi.NoteOnEvent(tick=452, channel=0, data=[51, 0]),
   midi.NoteOnEvent(tick=0, channel=0, data=[56, 72]),
   midi.NoteOnEvent(tick=720, channel=0, data=[56, 0]),
   midi.NoteOnEvent(tick=0, channel=0, data=[55, 60]),
   midi.NoteOnEvent(tick=240, channel=0, data=[55, 0]),
   midi.NoteOnEvent(tick=0, channel=0, data=[44, 0]),
   midi.NoteOnEvent(tick=0, channel=0, data=[53, 60]),
   midi.NoteOnEvent(tick=0, channel=0, data=[49, 48]),
   midi.NoteOnEvent(tick=324, channel=0, data=[53, 0]),
   midi.NoteOnEvent(tick=0, channel=0, data=[61, 72]),
   midi.NoteOnEvent(tick=720, channel=0, data=[61, 0]),
   midi.NoteOnEvent(tick=0, channel=0, data=[60, 60]),
   midi.NoteOnEvent(tick=240, channel=0, data=[60, 0]),
   midi.NoteOnEvent(tick=0, channel=0, data=[49, 0]),
   midi.NoteOnEvent(tick=0, channel=0, data=[58, 60]),
   midi.NoteOnEvent(tick=0, channel=0, data=[51, 48]),
   midi.NoteOnEvent(tick=346, channel=0, data=[58, 0]),
   midi.NoteOnEvent(tick=0, channel=0, data=[63, 72]),
   midi.NoteOnEvent(tick=720, channel=0, data=[63, 0]),
   midi.NoteOnEvent(tick=0, channel=0, data=[61, 60]),
   midi.NoteOnEvent(tick=240, channel=0, data=[61, 0]),
   midi.NoteOnEvent(tick=0, channel=0, data=[51, 0]),
   midi.NoteOnEvent(tick=0, channel=0, data=[60, 60]),
   midi.NoteOnEvent(tick=0, channel=0, data=[56, 48]),
   midi.NoteOnEvent(tick=346, channel=0, data=[60, 0]),
   midi.NoteOnEvent(tick=0, channel=0, data=[63, 72]),
   midi.NoteOnEvent(tick=233, channel=0, data=[63, 0]),
   midi.NoteOnEvent(tick=0, channel=0, data=[56, 0]),
   midi.NoteOnEvent(tick=0, channel=0, data=[51, 80]),
   midi.NoteOnEvent(tick=0, channel=0, data=[44, 68]),
   midi.NoteOnEvent(tick=480, channel=0, data=[51, 0]),
   midi.NoteOnEvent(tick=0, channel=0, data=[56, 79]),
   midi.NoteOnEvent(tick=720, channel=0, data=[56, 0]),
   midi.NoteOnEvent(tick=0, channel=0, data=[55, 68]),
   midi.NoteOnEvent(tick=240, channel=0, data=[55, 0]),
   midi.NoteOnEvent(tick=0, channel=0, data=[44, 0]),
   midi.NoteOnEvent(tick=0, channel=0, data=[53, 75]),
   midi.NoteOnEvent(tick=0, channel=0, data=[49, 63]),
   midi.NoteOnEvent(tick=374, channel=0, data=[53, 0]),
   midi.NoteOnEvent(tick=0, channel=0, data=[61, 79]),
   midi.NoteOnEvent(tick=720, channel=0, data=[61, 0]),
   midi.NoteOnEvent(tick=0, channel=0, data=[60, 68]),
   midi.NoteOnEvent(tick=240, channel=0, data=[60, 0]),
   midi.NoteOnEvent(tick=0, channel=0, data=[49, 0]),
   midi.NoteOnEvent(tick=0, channel=0, data=[58, 78]),
   midi.NoteOnEvent(tick=0, channel=0, data=[51, 66]),
   midi.NoteOnEvent(tick=275, channel=0, data=[58, 0]),
   midi.NoteOnEvent(tick=0, channel=0, data=[63, 85]),
   midi.NoteOnEvent(tick=720, channel=0, data=[63, 0]),
   midi.NoteOnEvent(tick=0, channel=0, data=[61, 68]),
   midi.NoteOnEvent(tick=240, channel=0, data=[61, 0]),
   midi.NoteOnEvent(tick=0, channel=0, data=[51, 0]),
   midi.NoteOnEvent(tick=0, channel=0, data=[60, 77]),
   midi.NoteOnEvent(tick=0, channel=0, data=[56, 65]),
   midi.NoteOnEvent(tick=353, channel=0, data=[60, 0]),
   midi.NoteOnEvent(tick=0, channel=0, data=[63, 85]),
   midi.NoteOnEvent(tick=720, channel=0, data=[63, 0]),
   midi.NoteOnEvent(tick=0, channel=0, data=[60, 77]),
   midi.NoteOnEvent(tick=240, channel=0, data=[60, 0]),
   midi.NoteOnEvent(tick=0, channel=0, data=[56, 0]),
   midi.NoteOnEvent(tick=0, channel=0, data=[58, 82]),
   midi.NoteOnEvent(tick=0, channel=0, data=[51, 62]),
   midi.NoteOnEvent(tick=310, channel=0, data=[58, 0]),
   midi.NoteOnEvent(tick=0, channel=0, data=[63, 90]),
   midi.NoteOnEvent(tick=720, channel=0, data=[63, 0]),
   midi.NoteOnEvent(tick=0, channel=0, data=[61, 82]),
   midi.NoteOnEvent(tick=240, channel=0, data=[61, 0]),
   midi.NoteOnEvent(tick=0, channel=0, data=[51, 0]),
   midi.NoteOnEvent(tick=0, channel=0, data=[60, 90]),
   midi.NoteOnEvent(tick=0, channel=0, data=[56, 69]),
   midi.NoteOnEvent(tick=395, channel=0, data=[60, 0]),
   midi.NoteOnEvent(tick=0, channel=0, data=[63, 94]),
   midi.NoteOnEvent(tick=720, channel=0, data=[63, 0]),
   midi.NoteOnEvent(tick=0, channel=0, data=[60, 90]),
   midi.NoteOnEvent(tick=240, channel=0, data=[60, 0]),
   midi.NoteOnEvent(tick=0, channel=0, data=[56, 0]),
   midi.NoteOnEvent(tick=0, channel=0, data=[58, 94]),
   midi.NoteOnEvent(tick=0, channel=0, data=[51, 79]),
   midi.NoteOnEvent(tick=332, channel=0, data=[58, 0]),
   midi.NoteOnEvent(tick=0, channel=0, data=[63, 96]),
   midi.NoteOnEvent(tick=720, channel=0, data=[63, 0]),
   midi.NoteOnEvent(tick=0, channel=0, data=[61, 91]),
   midi.NoteOnEvent(tick=240, channel=0, data=[61, 0]),
   midi.NoteOnEvent(tick=0, channel=0, data=[51, 0]),
   midi.NoteOnEvent(tick=0, channel=0, data=[56, 83]),
   midi.NoteOnEvent(tick=0, channel=0, data=[60, 98]),
   midi.NoteOnEvent(tick=353, channel=0, data=[60, 0]),
   midi.NoteOnEvent(tick=0, channel=0, data=[56, 0]),
   midi.NoteOnEvent(tick=2400, channel=0, data=[63, 98]),
   midi.NoteOnEvent(tick=113, channel=0, data=[63, 0]),
   midi.NoteOnEvent(tick=240, channel=0, data=[60, 96]),
   midi.NoteOnEvent(tick=240, channel=0, data=[60, 0]),
   midi.NoteOnEvent(tick=240, channel=0, data=[56, 93]),
   midi.NoteOnEvent(tick=240, channel=0, data=[56, 0]),
   midi.NoteOnEvent(tick=240, channel=0, data=[51, 91]),
   midi.NoteOnEvent(tick=240, channel=0, data=[51, 0]),
   midi.NoteOnEvent(tick=240, channel=0, data=[48, 88]),
   midi.NoteOnEvent(tick=240, channel=0, data=[48, 0]),
   midi.NoteOnEvent(tick=240, channel=0, data=[51, 85]),
   midi.NoteOnEvent(tick=240, channel=0, data=[51, 0]),
   midi.NoteOnEvent(tick=240, channel=0, data=[44, 82]),
   midi.NoteOnEvent(tick=266, channel=0, data=[44, 0]),
   midi.NoteOnEvent(tick=852, channel=0, data=[39, 91]),
   midi.NoteOnEvent(tick=0, channel=0, data=[51, 91]),
   midi.NoteOnEvent(tick=348, channel=0, data=[51, 0]),
   midi.NoteOnEvent(tick=0, channel=0, data=[39, 0]),
   midi.NoteOnEvent(tick=932, channel=0, data=[32, 88]),
   midi.NoteOnEvent(tick=0, channel=0, data=[44, 88]),
   midi.NoteOnEvent(tick=400, channel=0, data=[44, 0]),
   midi.NoteOnEvent(tick=0, channel=0, data=[32, 0]),
   midi.EndOfTrackEvent(tick=0, data=[])])])
midi.write_midifile("creationMidi.mid", pattern)