import midi
pattern=midi.Pattern(format=1, resolution=480, tracks=\
[midi.Track(\
[   midi.NoteOnEvent(tick=119, channel=0, data=[73,57]),
   midi.NoteOnEvent(tick=119, channel=0, data=[76,57]),
   midi.NoteOnEvent(tick=19, channel=0, data=[73,0]),
   midi.NoteOnEvent(tick=99, channel=0, data=[78,57]),
   midi.NoteOnEvent(tick=19, channel=0, data=[76,0]),
   midi.NoteOnEvent(tick=99, channel=0, data=[69,59]),
   midi.NoteOnEvent(tick=19, channel=0, data=[78,0]),
   midi.NoteOnEvent(tick=99, channel=0, data=[69,0]),
   midi.NoteOnEvent(tick=0, channel=0, data=[78,57]),
   midi.NoteOnEvent(tick=119, channel=0, data=[76,57]),
   midi.NoteOnEvent(tick=16597, channel=0, data=[168,1769]),
   midi.NoteOnEvent(tick=16589, channel=0, data=[167,1771]),
   midi.NoteOnEvent(tick=16588, channel=0, data=[165,1777]),
   midi.NoteOnEvent(tick=16573, channel=0, data=[163,1782]),
   midi.NoteOnEvent(tick=16544, channel=0, data=[161,1787]),
   midi.NoteOnEvent(tick=16504, channel=0, data=[160,1790]),
   midi.NoteOnEvent(tick=16456, channel=0, data=[159,1792]),
   midi.NoteOnEvent(tick=16403, channel=0, data=[158,1792]),
   midi.NoteOnEvent(tick=16347, channel=0, data=[157,1791]),
   midi.NoteOnEvent(tick=16291, channel=0, data=[156,1788]),
   midi.NoteOnEvent(tick=16236, channel=0, data=[156,1785]),
   midi.NoteOnEvent(tick=16236, channel=0, data=[156,1785]),
   midi.NoteOnEvent(tick=16236, channel=0, data=[156,1785]),
   midi.NoteOnEvent(tick=16236, channel=0, data=[156,1785]),
   midi.NoteOnEvent(tick=16236, channel=0, data=[156,1785]),
   midi.NoteOnEvent(tick=16236, channel=0, data=[156,1785]),
   midi.NoteOnEvent(tick=16236, channel=0, data=[156,1785]),
   midi.NoteOnEvent(tick=16236, channel=0, data=[156,1785]),
   midi.NoteOnEvent(tick=16236, channel=0, data=[156,1785]),
   midi.NoteOnEvent(tick=16236, channel=0, data=[156,1785]),
   midi.EndOfTrackEvent(tick=0, channel=0, data=[0,0])])])

midi.write_midifile("newMusic.mid", pattern)