import midi
pattern=midi.Pattern(format=1, resolution=480, tracks=\
[midi.Track(\
[   midi.NoteOnEvent(tick=0, channel=0, data=[79,69]),
   midi.NoteOnEvent(tick=720, channel=0, data=[79,0]),
   midi.NoteOnEvent(tick=0, channel=0, data=[75,0]),
   midi.NoteOnEvent(tick=0, channel=0, data=[74,66]),
   midi.NoteOnEvent(tick=0, channel=0, data=[77,78]),
   midi.NoteOnEvent(tick=240, channel=0, data=[77,0]),
   midi.NoteOnEvent(tick=0, channel=0, data=[74,68]),
   midi.NoteOnEvent(tick=0, channel=0, data=[77,80]),
   midi.NoteOnEvent(tick=0, channel=0, data=[77,78]),
   midi.NoteOnEvent(tick=240, channel=0, data=[77,0]),
   midi.NoteOnEvent(tick=656, channel=0, data=[61,56]),
   midi.NoteOnEvent(tick=656, channel=0, data=[61,56]),
   midi.NoteOnEvent(tick=656, channel=0, data=[61,56]),
   midi.NoteOnEvent(tick=656, channel=0, data=[61,56]),
   midi.NoteOnEvent(tick=656, channel=0, data=[61,56]),
   midi.NoteOnEvent(tick=656, channel=0, data=[61,56]),
   midi.NoteOnEvent(tick=656, channel=0, data=[61,56]),
   midi.NoteOnEvent(tick=656, channel=0, data=[61,56]),
   midi.NoteOnEvent(tick=656, channel=0, data=[61,56]),
   midi.NoteOnEvent(tick=656, channel=0, data=[61,56]),
   midi.NoteOnEvent(tick=656, channel=0, data=[61,56]),
   midi.NoteOnEvent(tick=570, channel=0, data=[61,54]),
   midi.NoteOnEvent(tick=490, channel=0, data=[60,52]),
   midi.NoteOnEvent(tick=433, channel=0, data=[60,50]),
   midi.NoteOnEvent(tick=397, channel=0, data=[60,49]),
   midi.NoteOnEvent(tick=375, channel=0, data=[60,49]),
   midi.NoteOnEvent(tick=360, channel=0, data=[60,48]),
   midi.NoteOnEvent(tick=350, channel=0, data=[60,48]),
   midi.NoteOnEvent(tick=342, channel=0, data=[60,47]),
   midi.NoteOnEvent(tick=336, channel=0, data=[60,47]),
   midi.NoteOnEvent(tick=331, channel=0, data=[60,46]),
   midi.NoteOnEvent(tick=327, channel=0, data=[60,46]),
   midi.NoteOnEvent(tick=323, channel=0, data=[61,46]),
   midi.NoteOnEvent(tick=319, channel=0, data=[61,45]),
   midi.NoteOnEvent(tick=316, channel=0, data=[61,45]),
   midi.NoteOnEvent(tick=313, channel=0, data=[61,45]),
   midi.NoteOnEvent(tick=310, channel=0, data=[61,45]),
   midi.NoteOnEvent(tick=307, channel=0, data=[61,45]),
   midi.NoteOnEvent(tick=305, channel=0, data=[61,44]),
   midi.NoteOnEvent(tick=303, channel=0, data=[61,44]),
   midi.NoteOnEvent(tick=303, channel=0, data=[61,44]),
   midi.NoteOnEvent(tick=303, channel=0, data=[61,44]),
   midi.NoteOnEvent(tick=303, channel=0, data=[61,44]),
   midi.NoteOnEvent(tick=303, channel=0, data=[61,44]),
   midi.NoteOnEvent(tick=303, channel=0, data=[61,44]),
   midi.NoteOnEvent(tick=303, channel=0, data=[61,44]),
   midi.NoteOnEvent(tick=303, channel=0, data=[61,44]),
   midi.NoteOnEvent(tick=303, channel=0, data=[61,44]),
   midi.NoteOnEvent(tick=303, channel=0, data=[61,44]),
   midi.NoteOnEvent(tick=303, channel=0, data=[61,44]),
   midi.NoteOnEvent(tick=303, channel=0, data=[61,44]),
   midi.NoteOnEvent(tick=303, channel=0, data=[61,44]),
   midi.NoteOnEvent(tick=303, channel=0, data=[61,44]),
   midi.NoteOnEvent(tick=303, channel=0, data=[61,44]),
   midi.NoteOnEvent(tick=303, channel=0, data=[61,44]),
   midi.NoteOnEvent(tick=303, channel=0, data=[61,44]),
   midi.NoteOnEvent(tick=303, channel=0, data=[61,44]),
   midi.NoteOnEvent(tick=303, channel=0, data=[61,44]),
   midi.NoteOnEvent(tick=303, channel=0, data=[61,44]),
   midi.NoteOnEvent(tick=303, channel=0, data=[61,44]),
   midi.NoteOnEvent(tick=303, channel=0, data=[61,44]),
   midi.NoteOnEvent(tick=303, channel=0, data=[61,44]),
   midi.NoteOnEvent(tick=303, channel=0, data=[61,44]),
   midi.NoteOnEvent(tick=303, channel=0, data=[61,44]),
   midi.NoteOnEvent(tick=303, channel=0, data=[61,44]),
   midi.NoteOnEvent(tick=303, channel=0, data=[61,44]),
   midi.NoteOnEvent(tick=303, channel=0, data=[61,44]),
   midi.NoteOnEvent(tick=303, channel=0, data=[61,44]),
   midi.NoteOnEvent(tick=303, channel=0, data=[61,44]),
   midi.NoteOnEvent(tick=303, channel=0, data=[61,44]),
   midi.NoteOnEvent(tick=303, channel=0, data=[61,44]),
   midi.NoteOnEvent(tick=303, channel=0, data=[61,44]),
   midi.NoteOnEvent(tick=303, channel=0, data=[61,44]),
   midi.NoteOnEvent(tick=303, channel=0, data=[61,44]),
   midi.NoteOnEvent(tick=303, channel=0, data=[61,44]),
   midi.NoteOnEvent(tick=303, channel=0, data=[61,44]),
   midi.NoteOnEvent(tick=303, channel=0, data=[61,44]),
   midi.NoteOnEvent(tick=303, channel=0, data=[61,44]),
   midi.NoteOnEvent(tick=303, channel=0, data=[61,44]),
   midi.NoteOnEvent(tick=303, channel=0, data=[61,44]),
   midi.NoteOnEvent(tick=303, channel=0, data=[61,44]),
   midi.NoteOnEvent(tick=303, channel=0, data=[61,44]),
   midi.NoteOnEvent(tick=303, channel=0, data=[61,44]),
   midi.NoteOnEvent(tick=303, channel=0, data=[61,44]),
   midi.NoteOnEvent(tick=303, channel=0, data=[61,44]),
   midi.NoteOnEvent(tick=303, channel=0, data=[61,44]),
   midi.NoteOnEvent(tick=303, channel=0, data=[61,44]),
   midi.NoteOnEvent(tick=303, channel=0, data=[61,44]),
   midi.NoteOnEvent(tick=303, channel=0, data=[61,44]),
   midi.NoteOnEvent(tick=303, channel=0, data=[61,44]),
   midi.NoteOnEvent(tick=303, channel=0, data=[61,44]),
   midi.NoteOnEvent(tick=303, channel=0, data=[61,44]),
   midi.NoteOnEvent(tick=303, channel=0, data=[61,44]),
   midi.NoteOnEvent(tick=303, channel=0, data=[61,44]),
   midi.NoteOnEvent(tick=303, channel=0, data=[61,44]),
   midi.NoteOnEvent(tick=303, channel=0, data=[61,44]),
   midi.NoteOnEvent(tick=303, channel=0, data=[61,44]),
   midi.NoteOnEvent(tick=303, channel=0, data=[61,44]),
   midi.NoteOnEvent(tick=303, channel=0, data=[61,44]),
   midi.NoteOnEvent(tick=303, channel=0, data=[61,44]),
   midi.NoteOnEvent(tick=303, channel=0, data=[61,44]),
   midi.NoteOnEvent(tick=303, channel=0, data=[61,44]),
   midi.NoteOnEvent(tick=303, channel=0, data=[61,44]),
   midi.NoteOnEvent(tick=303, channel=0, data=[61,44]),
   midi.NoteOnEvent(tick=303, channel=0, data=[61,44]),
   midi.NoteOnEvent(tick=303, channel=0, data=[61,44]),
   midi.NoteOnEvent(tick=303, channel=0, data=[61,44]),
   midi.NoteOnEvent(tick=303, channel=0, data=[61,44]),
   midi.NoteOnEvent(tick=303, channel=0, data=[61,44]),
   midi.NoteOnEvent(tick=303, channel=0, data=[61,44]),
   midi.NoteOnEvent(tick=303, channel=0, data=[61,44]),
   midi.NoteOnEvent(tick=303, channel=0, data=[61,44]),
   midi.EndOfTrackEvent(tick=0, channel=0, data=[0,0])])])

midi.write_midifile("newMusic.mid", pattern)