import midi
pattern=midi.Pattern(format=1, resolution=480, tracks=\
[midi.Track(\
[   midi.ControlChangeEvent(tick=0, channel=0, data=[7,100]),
   midi.ControlChangeEvent(tick=0, channel=0, data=[10,64]),
   midi.ControlChangeEvent(tick=0, channel=0, data=[91,127]),
   midi.NoteOnEvent(tick=960, channel=0, data=[67,49]),
   midi.NoteOnEvent(tick=0, channel=0, data=[59,41]),
   midi.NoteOnEvent(tick=0, channel=0, data=[65,41]),
   midi.NoteOnEvent(tick=480, channel=0, data=[65,0]),
   midi.NoteOnEvent(tick=0, channel=0, data=[59,0]),
   midi.NoteOnEvent(tick=0, channel=0, data=[67,0]),
   midi.NoteOnEvent(tick=0, channel=0, data=[59,43]),
   midi.NoteOnEvent(tick=0, channel=0, data=[67,51]),
   midi.NoteOnEvent(tick=0, channel=0, data=[65,43]),
   midi.NoteOnEvent(tick=360, channel=0, data=[65,0]),
   midi.NoteOnEvent(tick=0, channel=0, data=[67,0]),
   midi.NoteOnEvent(tick=0, channel=0, data=[59,0]),
   midi.NoteOnEvent(tick=0, channel=0, data=[67,46]),
   midi.NoteOnEvent(tick=0, channel=0, data=[59,39]),
   midi.NoteOnEvent(tick=0, channel=0, data=[65,39]),
   midi.NoteOnEvent(tick=120, channel=0, data=[65,0]),
   midi.NoteOnEvent(tick=0, channel=0, data=[59,0]),
   midi.NoteOnEvent(tick=0, channel=0, data=[67,0]),
   midi.NoteOnEvent(tick=0, channel=0, data=[60,46]),
   midi.NoteOnEvent(tick=0, channel=0, data=[65,46]),
   midi.NoteOnEvent(tick=0, channel=0, data=[69,55]),
   midi.NoteOnEvent(tick=960, channel=0, data=[69,0]),
   midi.NoteOnEvent(tick=0, channel=0, data=[65,0]),
   midi.NoteOnEvent(tick=0, channel=0, data=[60,0]),
   midi.NoteOnEvent(tick=0, channel=0, data=[71,58]),
   midi.NoteOnEvent(tick=0, channel=0, data=[65,49]),
   midi.NoteOnEvent(tick=0, channel=0, data=[62,49]),
   midi.NoteOnEvent(tick=480, channel=0, data=[62,0]),
   midi.NoteOnEvent(tick=0, channel=0, data=[65,0]),
   midi.NoteOnEvent(tick=0, channel=0, data=[71,0]),
   midi.NoteOnEvent(tick=0, channel=0, data=[62,48]),
   midi.NoteOnEvent(tick=0, channel=0, data=[65,48]),
   midi.NoteOnEvent(tick=0, channel=0, data=[71,57]),
   midi.NoteOnEvent(tick=360, channel=0, data=[71,0]),
   midi.NoteOnEvent(tick=0, channel=0, data=[65,0]),
   midi.NoteOnEvent(tick=0, channel=0, data=[62,0]),
   midi.NoteOnEvent(tick=0, channel=0, data=[65,52]),
   midi.NoteOnEvent(tick=0, channel=0, data=[62,52]),
   midi.NoteOnEvent(tick=0, channel=0, data=[71,62]),
   midi.NoteOnEvent(tick=120, channel=0, data=[71,0]),
   midi.NoteOnEvent(tick=0, channel=0, data=[62,0]),
   midi.NoteOnEvent(tick=0, channel=0, data=[65,0]),
   midi.NoteOnEvent(tick=0, channel=0, data=[64,57]),
   midi.NoteOnEvent(tick=0, channel=0, data=[72,68]),
   midi.NoteOnEvent(tick=0, channel=0, data=[67,57]),
   midi.NoteOnEvent(tick=960, channel=0, data=[67,0]),
   midi.NoteOnEvent(tick=0, channel=0, data=[72,0]),
   midi.NoteOnEvent(tick=0, channel=0, data=[64,0]),
   midi.NoteOnEvent(tick=0, channel=0, data=[74,77]),
   midi.NoteOnEvent(tick=0, channel=0, data=[71,65]),
   midi.NoteOnEvent(tick=0, channel=0, data=[65,65]),
   midi.NoteOnEvent(tick=480, channel=0, data=[65,0]),
   midi.NoteOnEvent(tick=0, channel=0, data=[71,0]),
   midi.NoteOnEvent(tick=0, channel=0, data=[74,0]),
   midi.NoteOnEvent(tick=0, channel=0, data=[64,68]),
   midi.NoteOnEvent(tick=0, channel=0, data=[70,68]),
   midi.NoteOnEvent(tick=0, channel=0, data=[73,81]),
   midi.NoteOnEvent(tick=480, channel=0, data=[73,0]),
   midi.NoteOnEvent(tick=0, channel=0, data=[70,0]),
   midi.NoteOnEvent(tick=0, channel=0, data=[64,0]),
   midi.NoteOnEvent(tick=0, channel=0, data=[71,68]),
   midi.NoteOnEvent(tick=0, channel=0, data=[65,68]),
   midi.NoteOnEvent(tick=0, channel=0, data=[74,81]),
   midi.NoteOnEvent(tick=480, channel=0, data=[74,0]),
   midi.NoteOnEvent(tick=0, channel=0, data=[65,0]),
   midi.NoteOnEvent(tick=0, channel=0, data=[71,0]),
   midi.NoteOnEvent(tick=0, channel=0, data=[67,68]),
   midi.NoteOnEvent(tick=0, channel=0, data=[76,81]),
   midi.NoteOnEvent(tick=0, channel=0, data=[73,68]),
   midi.NoteOnEvent(tick=0, channel=0, data=[70,68]),
   midi.NoteOnEvent(tick=480, channel=0, data=[70,0]),
   midi.NoteOnEvent(tick=0, channel=0, data=[67,0]),
   midi.NoteOnEvent(tick=0, channel=0, data=[76,0]),
   midi.NoteOnEvent(tick=0, channel=0, data=[73,0]),
   midi.NoteOnEvent(tick=0, channel=0, data=[77,86]),
   midi.NoteOnEvent(tick=0, channel=0, data=[74,73]),
   midi.NoteOnEvent(tick=0, channel=0, data=[71,73]),
   midi.NoteOnEvent(tick=0, channel=0, data=[67,73]),
   midi.NoteOnEvent(tick=480, channel=0, data=[67,0]),
   midi.NoteOnEvent(tick=0, channel=0, data=[77,0]),
   midi.NoteOnEvent(tick=0, channel=0, data=[74,0]),
   midi.NoteOnEvent(tick=0, channel=0, data=[71,0]),
   midi.NoteOnEvent(tick=0, channel=0, data=[91,82]),
   midi.NoteOnEvent(tick=120, channel=0, data=[91,0]),
   midi.NoteOnEvent(tick=0, channel=0, data=[79,72]),
   midi.NoteOnEvent(tick=120, channel=0, data=[79,0]),
   midi.NoteOnEvent(tick=0, channel=0, data=[91,74]),
   midi.NoteOnEvent(tick=120, channel=0, data=[91,0]),
   midi.NoteOnEvent(tick=0, channel=0, data=[79,62]),
   midi.NoteOnEvent(tick=120, channel=0, data=[79,0]),
   midi.NoteOnEvent(tick=0, channel=0, data=[91,77]),
   midi.NoteOnEvent(tick=960, channel=0, data=[91,0]),
   midi.NoteOnEvent(tick=480, channel=0, data=[91,64]),
   midi.NoteOnEvent(tick=120, channel=0, data=[91,0]),
   midi.NoteOnEvent(tick=0, channel=0, data=[79,52]),
   midi.NoteOnEvent(tick=120, channel=0, data=[79,0]),
   midi.NoteOnEvent(tick=0, channel=0, data=[91,58]),
   midi.NoteOnEvent(tick=120, channel=0, data=[91,0]),
   midi.NoteOnEvent(tick=0, channel=0, data=[79,47]),
   midi.NoteOnEvent(tick=120, channel=0, data=[79,0]),
   midi.NoteOnEvent(tick=0, channel=0, data=[91,64]),
   midi.NoteOnEvent(tick=960, channel=0, data=[91,0]),
   midi.NoteOnEvent(tick=0, channel=0, data=[91,52]),
   midi.NoteOnEvent(tick=120, channel=0, data=[91,0]),
   midi.NoteOnEvent(tick=0, channel=0, data=[79,41]),
   midi.NoteOnEvent(tick=120, channel=0, data=[79,0]),
   midi.NoteOnEvent(tick=0, channel=0, data=[91,53]),
   midi.NoteOnEvent(tick=120, channel=0, data=[91,0]),
   midi.NoteOnEvent(tick=0, channel=0, data=[79,41]),
   midi.NoteOnEvent(tick=120, channel=0, data=[79,0]),
   midi.NoteOnEvent(tick=0, channel=0, data=[91,47]),
   midi.NoteOnEvent(tick=120, channel=0, data=[91,0]),
   midi.NoteOnEvent(tick=0, channel=0, data=[79,41]),
   midi.NoteOnEvent(tick=120, channel=0, data=[79,0]),
   midi.NoteOnEvent(tick=0, channel=0, data=[91,47]),
   midi.NoteOnEvent(tick=120, channel=0, data=[91,0]),
   midi.NoteOnEvent(tick=0, channel=0, data=[79,41]),
   midi.NoteOnEvent(tick=120, channel=0, data=[79,0]),
   midi.NoteOnEvent(tick=0, channel=0, data=[91,52]),
   midi.NoteOnEvent(tick=120, channel=0, data=[91,0]),
   midi.NoteOnEvent(tick=0, channel=0, data=[79,47]),
   midi.NoteOnEvent(tick=120, channel=0, data=[79,0]),
   midi.NoteOnEvent(tick=0, channel=0, data=[91,58]),
   midi.NoteOnEvent(tick=120, channel=0, data=[91,0]),
   midi.NoteOnEvent(tick=0, channel=0, data=[79,51]),
   midi.NoteOnEvent(tick=120, channel=0, data=[79,0]),
   midi.NoteOnEvent(tick=0, channel=0, data=[91,62]),
   midi.NoteOnEvent(tick=120, channel=0, data=[91,0]),
   midi.NoteOnEvent(tick=0, channel=0, data=[79,56]),
   midi.NoteOnEvent(tick=120, channel=0, data=[79,0]),
   midi.NoteOnEvent(tick=0, channel=0, data=[91,64]),
   midi.NoteOnEvent(tick=120, channel=0, data=[91,0]),
   midi.NoteOnEvent(tick=0, channel=0, data=[79,58]),
   midi.NoteOnEvent(tick=120, channel=0, data=[79,0]),
   midi.NoteOnEvent(tick=0, channel=0, data=[79,64]),
   midi.NoteOnEvent(tick=0, channel=0, data=[91,64]),
   midi.NoteOnEvent(tick=2880, channel=0, data=[91,0]),
   midi.NoteOnEvent(tick=0, channel=0, data=[79,0]),
   midi.NoteOnEvent(tick=960, channel=0, data=[67,76]),
   midi.NoteOnEvent(tick=0, channel=0, data=[72,90]),
   midi.NoteOnEvent(tick=0, channel=0, data=[64,68]),
   midi.NoteOnEvent(tick=0, channel=0, data=[60,68]),
   midi.NoteOnEvent(tick=960, channel=0, data=[67,0]),
   midi.NoteOnEvent(tick=0, channel=0, data=[62,68]),
   midi.NoteOnEvent(tick=0, channel=0, data=[67,76]),
   midi.NoteOnEvent(tick=0, channel=0, data=[71,90]),
   midi.NoteOnEvent(tick=20, channel=0, data=[72,0]),
   midi.NoteOnEvent(tick=0, channel=0, data=[60,0]),
   midi.NoteOnEvent(tick=0, channel=0, data=[64,0]),
   midi.NoteOnEvent(tick=940, channel=0, data=[62,0]),
   midi.NoteOnEvent(tick=0, channel=0, data=[66,72]),
   midi.NoteOnEvent(tick=0, channel=0, data=[62,65]),
   midi.NoteOnEvent(tick=0, channel=0, data=[69,85]),
   midi.NoteOnEvent(tick=20, channel=0, data=[67,0]),
   midi.NoteOnEvent(tick=0, channel=0, data=[71,0]),
   midi.NoteOnEvent(tick=940, channel=0, data=[62,0]),
   midi.NoteOnEvent(tick=0, channel=0, data=[62,68]),
   midi.NoteOnEvent(tick=0, channel=0, data=[71,90]),
   midi.NoteOnEvent(tick=0, channel=0, data=[67,76]),
   midi.NoteOnEvent(tick=20, channel=0, data=[66,0]),
   midi.NoteOnEvent(tick=0, channel=0, data=[69,0]),
   midi.NoteOnEvent(tick=940, channel=0, data=[71,0]),
   midi.NoteOnEvent(tick=0, channel=0, data=[62,0]),
   midi.NoteOnEvent(tick=0, channel=0, data=[67,0]),
   midi.NoteOnEvent(tick=0, channel=0, data=[67,90]),
   midi.NoteOnEvent(tick=0, channel=0, data=[60,68]),
   midi.NoteOnEvent(tick=960, channel=0, data=[60,0]),
   midi.NoteOnEvent(tick=0, channel=0, data=[60,68]),
   midi.NoteOnEvent(tick=0, channel=0, data=[65,76]),
   midi.NoteOnEvent(tick=0, channel=0, data=[69,90]),
   midi.NoteOnEvent(tick=20, channel=0, data=[67,0]),
   midi.NoteOnEvent(tick=940, channel=0, data=[65,0]),
   midi.NoteOnEvent(tick=0, channel=0, data=[65,73]),
   midi.NoteOnEvent(tick=0, channel=0, data=[62,66]),
   midi.NoteOnEvent(tick=0, channel=0, data=[71,86]),
   midi.NoteOnEvent(tick=20, channel=0, data=[60,0]),
   midi.NoteOnEvent(tick=0, channel=0, data=[69,0]),
   midi.NoteOnEvent(tick=940, channel=0, data=[60,68]),
   midi.NoteOnEvent(tick=0, channel=0, data=[72,90]),
   midi.NoteOnEvent(tick=0, channel=0, data=[67,76]),
   midi.NoteOnEvent(tick=0, channel=0, data=[64,68]),
   midi.NoteOnEvent(tick=20, channel=0, data=[62,0]),
   midi.NoteOnEvent(tick=0, channel=0, data=[71,0]),
   midi.NoteOnEvent(tick=0, channel=0, data=[65,0]),
   midi.NoteOnEvent(tick=700, channel=0, data=[72,0]),
   midi.NoteOnEvent(tick=0, channel=0, data=[60,0]),
   midi.NoteOnEvent(tick=0, channel=0, data=[67,0]),
   midi.NoteOnEvent(tick=0, channel=0, data=[64,0]),
   midi.NoteOnEvent(tick=240, channel=0, data=[79,38]),
   midi.NoteOnEvent(tick=0, channel=0, data=[84,45]),
   midi.NoteOnEvent(tick=0, channel=0, data=[76,38]),
   midi.NoteOnEvent(tick=960, channel=0, data=[76,0]),
   midi.NoteOnEvent(tick=0, channel=0, data=[84,0]),
   midi.NoteOnEvent(tick=0, channel=0, data=[79,0]),
   midi.NoteOnEvent(tick=0, channel=0, data=[76,31]),
   midi.NoteOnEvent(tick=0, channel=0, data=[84,37]),
   midi.NoteOnEvent(tick=0, channel=0, data=[81,31]),
   midi.NoteOnEvent(tick=960, channel=0, data=[81,0]),
   midi.NoteOnEvent(tick=0, channel=0, data=[84,0]),
   midi.NoteOnEvent(tick=0, channel=0, data=[76,0]),
   midi.NoteOnEvent(tick=0, channel=0, data=[74,40]),
   midi.NoteOnEvent(tick=0, channel=0, data=[79,48]),
   midi.NoteOnEvent(tick=960, channel=0, data=[79,0]),
   midi.NoteOnEvent(tick=0, channel=0, data=[74,0]),
   midi.NoteOnEvent(tick=0, channel=0, data=[76,47]),
   midi.NoteOnEvent(tick=0, channel=0, data=[79,56]),
   midi.NoteOnEvent(tick=960, channel=0, data=[79,0]),
   midi.NoteOnEvent(tick=0, channel=0, data=[76,0]),
   midi.NoteOnEvent(tick=0, channel=0, data=[76,46]),
   midi.NoteOnEvent(tick=0, channel=0, data=[72,46]),
   midi.NoteOnEvent(tick=480, channel=0, data=[76,0]),
   midi.NoteOnEvent(tick=0, channel=0, data=[77,41]),
   midi.NoteOnEvent(tick=480, channel=0, data=[77,0]),
   midi.NoteOnEvent(tick=0, channel=0, data=[72,0]),
   midi.NoteOnEvent(tick=0, channel=0, data=[72,42]),
   midi.NoteOnEvent(tick=0, channel=0, data=[79,50]),
   midi.NoteOnEvent(tick=960, channel=0, data=[79,0]),
   midi.NoteOnEvent(tick=0, channel=0, data=[72,0]),
   midi.NoteOnEvent(tick=0, channel=0, data=[72,40]),
   midi.NoteOnEvent(tick=0, channel=0, data=[77,48]),
   midi.NoteOnEvent(tick=960, channel=0, data=[77,0]),
   midi.NoteOnEvent(tick=0, channel=0, data=[72,0]),
   midi.NoteOnEvent(tick=0, channel=0, data=[71,42]),
   midi.NoteOnEvent(tick=0, channel=0, data=[76,50]),
   midi.NoteOnEvent(tick=720, channel=0, data=[76,0]),
   midi.NoteOnEvent(tick=0, channel=0, data=[71,0]),
   midi.NoteOnEvent(tick=240, channel=0, data=[72,51]),
   midi.NoteOnEvent(tick=0, channel=0, data=[76,61]),
   midi.NoteOnEvent(tick=960, channel=0, data=[76,0]),
   midi.NoteOnEvent(tick=0, channel=0, data=[72,0]),
   midi.NoteOnEvent(tick=0, channel=0, data=[81,58]),
   midi.NoteOnEvent(tick=0, channel=0, data=[72,49]),
   midi.NoteOnEvent(tick=0, channel=0, data=[77,49]),
   midi.NoteOnEvent(tick=960, channel=0, data=[77,0]),
   midi.NoteOnEvent(tick=0, channel=0, data=[72,0]),
   midi.NoteOnEvent(tick=0, channel=0, data=[81,0]),
   midi.NoteOnEvent(tick=0, channel=0, data=[72,57]),
   midi.NoteOnEvent(tick=0, channel=0, data=[74,57]),
   midi.NoteOnEvent(tick=0, channel=0, data=[81,68]),
   midi.NoteOnEvent(tick=960, channel=0, data=[81,0]),
   midi.NoteOnEvent(tick=0, channel=0, data=[74,0]),
   midi.NoteOnEvent(tick=0, channel=0, data=[72,0]),
   midi.NoteOnEvent(tick=0, channel=0, data=[79,72]),
   midi.NoteOnEvent(tick=0, channel=0, data=[71,61]),
   midi.NoteOnEvent(tick=0, channel=0, data=[74,61]),
   midi.NoteOnEvent(tick=960, channel=0, data=[74,0]),
   midi.NoteOnEvent(tick=0, channel=0, data=[71,0]),
   midi.NoteOnEvent(tick=0, channel=0, data=[79,0]),
   midi.NoteOnEvent(tick=0, channel=0, data=[83,73]),
   midi.NoteOnEvent(tick=0, channel=0, data=[74,62]),
   midi.NoteOnEvent(tick=0, channel=0, data=[76,62]),
   midi.NoteOnEvent(tick=960, channel=0, data=[76,0]),
   midi.NoteOnEvent(tick=0, channel=0, data=[74,0]),
   midi.NoteOnEvent(tick=0, channel=0, data=[83,0]),
   midi.NoteOnEvent(tick=0, channel=0, data=[72,62]),
   midi.NoteOnEvent(tick=0, channel=0, data=[81,73]),
   midi.NoteOnEvent(tick=0, channel=0, data=[84,73]),
   midi.NoteOnEvent(tick=0, channel=0, data=[76,62]),
   midi.NoteOnEvent(tick=960, channel=0, data=[76,0]),
   midi.NoteOnEvent(tick=0, channel=0, data=[72,0]),
   midi.NoteOnEvent(tick=0, channel=0, data=[81,0]),
   midi.NoteOnEvent(tick=0, channel=0, data=[84,0]),
   midi.NoteOnEvent(tick=0, channel=0, data=[81,72]),
   midi.NoteOnEvent(tick=0, channel=0, data=[78,61]),
   midi.NoteOnEvent(tick=960, channel=0, data=[78,0]),
   midi.NoteOnEvent(tick=0, channel=0, data=[81,0]),
   midi.NoteOnEvent(tick=0, channel=0, data=[79,77]),
   midi.NoteOnEvent(tick=0, channel=0, data=[74,65]),
   midi.NoteOnEvent(tick=720, channel=0, data=[74,0]),
   midi.NoteOnEvent(tick=0, channel=0, data=[79,0]),
   midi.NoteOnEvent(tick=330, channel=0, data=[60,65]),
   midi.NoteOnEvent(tick=30, channel=0, data=[64,65]),
   midi.NoteOnEvent(tick=30, channel=0, data=[69,69]),
   midi.NoteOnEvent(tick=30, channel=0, data=[72,70]),
   midi.NoteOnEvent(tick=780, channel=0, data=[72,0]),
   midi.NoteOnEvent(tick=0, channel=0, data=[60,0]),
   midi.NoteOnEvent(tick=0, channel=0, data=[64,0]),
   midi.NoteOnEvent(tick=0, channel=0, data=[69,0]),
   midi.NoteOnEvent(tick=0, channel=0, data=[67,71]),
   midi.NoteOnEvent(tick=0, channel=0, data=[64,62]),
   midi.NoteOnEvent(tick=0, channel=0, data=[59,62]),
   midi.NoteOnEvent(tick=0, channel=0, data=[71,84]),
   midi.NoteOnEvent(tick=960, channel=0, data=[71,0]),
   midi.NoteOnEvent(tick=0, channel=0, data=[67,0]),
   midi.NoteOnEvent(tick=0, channel=0, data=[64,0]),
   midi.NoteOnEvent(tick=0, channel=0, data=[59,0]),
   midi.NoteOnEvent(tick=90, channel=0, data=[57,71]),
   midi.NoteOnEvent(tick=30, channel=0, data=[60,62]),
   midi.NoteOnEvent(tick=30, channel=0, data=[65,81]),
   midi.NoteOnEvent(tick=30, channel=0, data=[69,70]),
   midi.NoteOnEvent(tick=780, channel=0, data=[69,0]),
   midi.NoteOnEvent(tick=0, channel=0, data=[57,0]),
   midi.NoteOnEvent(tick=0, channel=0, data=[60,0]),
   midi.NoteOnEvent(tick=0, channel=0, data=[65,0]),
   midi.NoteOnEvent(tick=0, channel=0, data=[55,66]),
   midi.NoteOnEvent(tick=0, channel=0, data=[60,74]),
   midi.NoteOnEvent(tick=0, channel=0, data=[67,88]),
   midi.NoteOnEvent(tick=0, channel=0, data=[64,74]),
   midi.NoteOnEvent(tick=960, channel=0, data=[64,0]),
   midi.NoteOnEvent(tick=0, channel=0, data=[55,0]),
   midi.NoteOnEvent(tick=0, channel=0, data=[60,0]),
   midi.NoteOnEvent(tick=0, channel=0, data=[67,0]),
   midi.NoteOnEvent(tick=0, channel=0, data=[64,74]),
   midi.NoteOnEvent(tick=0, channel=0, data=[57,66]),
   midi.NoteOnEvent(tick=0, channel=0, data=[69,88]),
   midi.NoteOnEvent(tick=960, channel=0, data=[69,0]),
   midi.NoteOnEvent(tick=0, channel=0, data=[57,0]),
   midi.NoteOnEvent(tick=0, channel=0, data=[64,0]),
   midi.NoteOnEvent(tick=0, channel=0, data=[65,91]),
   midi.NoteOnEvent(tick=0, channel=0, data=[62,77]),
   midi.NoteOnEvent(tick=0, channel=0, data=[57,68]),
   midi.NoteOnEvent(tick=480, channel=0, data=[65,0]),
   midi.NoteOnEvent(tick=0, channel=0, data=[64,78]),
   midi.NoteOnEvent(tick=480, channel=0, data=[64,0]),
   midi.NoteOnEvent(tick=0, channel=0, data=[57,0]),
   midi.NoteOnEvent(tick=0, channel=0, data=[62,0]),
   midi.NoteOnEvent(tick=0, channel=0, data=[59,77]),
   midi.NoteOnEvent(tick=0, channel=0, data=[62,91]),
   midi.NoteOnEvent(tick=960, channel=0, data=[62,0]),
   midi.NoteOnEvent(tick=0, channel=0, data=[59,0]),
   midi.NoteOnEvent(tick=0, channel=0, data=[60,93]),
   midi.NoteOnEvent(tick=240, channel=0, data=[64,64]),
   midi.NoteOnEvent(tick=40, channel=0, data=[64,0]),
   midi.NoteOnEvent(tick=0, channel=0, data=[67,58]),
   midi.NoteOnEvent(tick=40, channel=0, data=[67,0]),
   midi.NoteOnEvent(tick=0, channel=0, data=[72,58]),
   midi.NoteOnEvent(tick=40, channel=0, data=[72,0]),
   midi.NoteOnEvent(tick=0, channel=0, data=[76,64]),
   midi.NoteOnEvent(tick=40, channel=0, data=[76,0]),
   midi.NoteOnEvent(tick=0, channel=0, data=[72,58]),
   midi.NoteOnEvent(tick=40, channel=0, data=[72,0]),
   midi.NoteOnEvent(tick=0, channel=0, data=[67,58]),
   midi.NoteOnEvent(tick=40, channel=0, data=[67,0]),
   midi.NoteOnEvent(tick=0, channel=0, data=[60,0]),
   midi.NoteOnEvent(tick=240, channel=0, data=[76,72]),
   midi.NoteOnEvent(tick=40, channel=0, data=[76,0]),
   midi.NoteOnEvent(tick=0, channel=0, data=[79,68]),
   midi.NoteOnEvent(tick=40, channel=0, data=[79,0]),
   midi.NoteOnEvent(tick=0, channel=0, data=[84,69]),
   midi.NoteOnEvent(tick=40, channel=0, data=[84,0]),
   midi.NoteOnEvent(tick=0, channel=0, data=[88,78]),
   midi.NoteOnEvent(tick=40, channel=0, data=[88,0]),
   midi.NoteOnEvent(tick=0, channel=0, data=[84,74]),
   midi.NoteOnEvent(tick=40, channel=0, data=[84,0]),
   midi.NoteOnEvent(tick=0, channel=0, data=[79,74]),
   midi.NoteOnEvent(tick=40, channel=0, data=[79,0]),
   midi.NoteOnEvent(tick=240, channel=0, data=[88,78]),
   midi.NoteOnEvent(tick=40, channel=0, data=[88,0]),
   midi.NoteOnEvent(tick=0, channel=0, data=[91,72]),
   midi.NoteOnEvent(tick=40, channel=0, data=[91,0]),
   midi.NoteOnEvent(tick=0, channel=0, data=[96,72]),
   midi.NoteOnEvent(tick=40, channel=0, data=[96,0]),
   midi.NoteOnEvent(tick=0, channel=0, data=[100,78]),
   midi.NoteOnEvent(tick=40, channel=0, data=[100,0]),
   midi.NoteOnEvent(tick=0, channel=0, data=[96,72]),
   midi.NoteOnEvent(tick=40, channel=0, data=[96,0]),
   midi.NoteOnEvent(tick=0, channel=0, data=[91,72]),
   midi.NoteOnEvent(tick=40, channel=0, data=[91,0]),
   midi.NoteOnEvent(tick=240, channel=0, data=[88,72]),
   midi.NoteOnEvent(tick=40, channel=0, data=[88,0]),
   midi.NoteOnEvent(tick=0, channel=0, data=[91,66]),
   midi.NoteOnEvent(tick=40, channel=0, data=[91,0]),
   midi.NoteOnEvent(tick=0, channel=0, data=[96,66]),
   midi.NoteOnEvent(tick=40, channel=0, data=[96,0]),
   midi.NoteOnEvent(tick=0, channel=0, data=[100,58]),
   midi.NoteOnEvent(tick=40, channel=0, data=[100,0]),
   midi.NoteOnEvent(tick=0, channel=0, data=[96,53]),
   midi.NoteOnEvent(tick=40, channel=0, data=[96,0]),
   midi.NoteOnEvent(tick=0, channel=0, data=[91,48]),
   midi.NoteOnEvent(tick=40, channel=0, data=[91,0]),
   midi.NoteOnEvent(tick=0, channel=0, data=[96,62]),
   midi.NoteOnEvent(tick=0, channel=0, data=[88,52]),
   midi.NoteOnEvent(tick=1440, channel=0, data=[88,0]),
   midi.NoteOnEvent(tick=0, channel=0, data=[96,0]),
   midi.NoteOnEvent(tick=480, channel=0, data=[60,61]),
   midi.NoteOnEvent(tick=240, channel=0, data=[60,0]),
   midi.NoteOnEvent(tick=240, channel=0, data=[60,58]),
   midi.NoteOnEvent(tick=180, channel=0, data=[60,0]),
   midi.NoteOnEvent(tick=180, channel=0, data=[60,52]),
   midi.NoteOnEvent(tick=60, channel=0, data=[60,0]),
   midi.NoteOnEvent(tick=60, channel=0, data=[60,60]),
   midi.NoteOnEvent(tick=240, channel=0, data=[60,0]),
   midi.NoteOnEvent(tick=240, channel=0, data=[60,58]),
   midi.NoteOnEvent(tick=240, channel=0, data=[60,0]),
   midi.NoteOnEvent(tick=240, channel=0, data=[60,58]),
   midi.NoteOnEvent(tick=0, channel=0, data=[64,69]),
   midi.NoteOnEvent(tick=240, channel=0, data=[64,0]),
   midi.NoteOnEvent(tick=0, channel=0, data=[60,0]),
   midi.NoteOnEvent(tick=240, channel=0, data=[60,53]),
   midi.NoteOnEvent(tick=0, channel=0, data=[64,63]),
   midi.NoteOnEvent(tick=180, channel=0, data=[64,0]),
   midi.NoteOnEvent(tick=0, channel=0, data=[60,0]),
   midi.NoteOnEvent(tick=180, channel=0, data=[60,49]),
   midi.NoteOnEvent(tick=0, channel=0, data=[64,58]),
   midi.NoteOnEvent(tick=60, channel=0, data=[64,0]),
   midi.NoteOnEvent(tick=0, channel=0, data=[60,0]),
   midi.NoteOnEvent(tick=60, channel=0, data=[60,58]),
   midi.NoteOnEvent(tick=0, channel=0, data=[64,69]),
   midi.NoteOnEvent(tick=240, channel=0, data=[64,0]),
   midi.NoteOnEvent(tick=0, channel=0, data=[60,0]),
   midi.NoteOnEvent(tick=240, channel=0, data=[60,53]),
   midi.NoteOnEvent(tick=0, channel=0, data=[64,63]),
   midi.NoteOnEvent(tick=240, channel=0, data=[64,0]),
   midi.NoteOnEvent(tick=0, channel=0, data=[60,0]),
   midi.NoteOnEvent(tick=240, channel=0, data=[67,72]),
   midi.NoteOnEvent(tick=0, channel=0, data=[60,61]),
   midi.NoteOnEvent(tick=0, channel=0, data=[64,61]),
   midi.NoteOnEvent(tick=240, channel=0, data=[64,0]),
   midi.NoteOnEvent(tick=0, channel=0, data=[60,0]),
   midi.NoteOnEvent(tick=0, channel=0, data=[67,0]),
   midi.NoteOnEvent(tick=240, channel=0, data=[60,58]),
   midi.NoteOnEvent(tick=0, channel=0, data=[67,69]),
   midi.NoteOnEvent(tick=0, channel=0, data=[64,58]),
   midi.NoteOnEvent(tick=240, channel=0, data=[64,0]),
   midi.NoteOnEvent(tick=0, channel=0, data=[67,0]),
   midi.NoteOnEvent(tick=0, channel=0, data=[60,0]),
   midi.NoteOnEvent(tick=240, channel=0, data=[66,72]),
   midi.NoteOnEvent(tick=0, channel=0, data=[63,61]),
   midi.NoteOnEvent(tick=0, channel=0, data=[60,61]),
   midi.NoteOnEvent(tick=0, channel=0, data=[69,72]),
   midi.NoteOnEvent(tick=240, channel=0, data=[69,0]),
   midi.NoteOnEvent(tick=0, channel=0, data=[66,0]),
   midi.NoteOnEvent(tick=0, channel=0, data=[63,0]),
   midi.NoteOnEvent(tick=0, channel=0, data=[60,0]),
   midi.NoteOnEvent(tick=240, channel=0, data=[60,58]),
   midi.NoteOnEvent(tick=0, channel=0, data=[69,69]),
   midi.NoteOnEvent(tick=0, channel=0, data=[63,58]),
   midi.NoteOnEvent(tick=0, channel=0, data=[66,69]),
   midi.NoteOnEvent(tick=240, channel=0, data=[66,0]),
   midi.NoteOnEvent(tick=0, channel=0, data=[60,0]),
   midi.NoteOnEvent(tick=0, channel=0, data=[69,0]),
   midi.NoteOnEvent(tick=0, channel=0, data=[63,0]),
   midi.NoteOnEvent(tick=240, channel=0, data=[60,61]),
   midi.NoteOnEvent(tick=0, channel=0, data=[64,61]),
   midi.NoteOnEvent(tick=0, channel=0, data=[70,72]),
   midi.NoteOnEvent(tick=0, channel=0, data=[67,61]),
   midi.NoteOnEvent(tick=1440, channel=0, data=[67,0]),
   midi.NoteOnEvent(tick=0, channel=0, data=[60,0]),
   midi.NoteOnEvent(tick=0, channel=0, data=[64,0]),
   midi.NoteOnEvent(tick=0, channel=0, data=[70,0]),
   midi.NoteOnEvent(tick=480, channel=0, data=[60,59]),
   midi.NoteOnEvent(tick=0, channel=0, data=[57,59]),
   midi.NoteOnEvent(tick=0, channel=0, data=[65,70]),
   midi.NoteOnEvent(tick=240, channel=0, data=[65,0]),
   midi.NoteOnEvent(tick=0, channel=0, data=[57,0]),
   midi.NoteOnEvent(tick=0, channel=0, data=[60,0]),
   midi.NoteOnEvent(tick=0, channel=0, data=[57,46]),
   midi.NoteOnEvent(tick=0, channel=0, data=[65,55]),
   midi.NoteOnEvent(tick=0, channel=0, data=[60,46]),
   midi.NoteOnEvent(tick=240, channel=0, data=[60,0]),
   midi.NoteOnEvent(tick=0, channel=0, data=[65,0]),
   midi.NoteOnEvent(tick=0, channel=0, data=[57,0]),
   midi.NoteOnEvent(tick=0, channel=0, data=[57,51]),
   midi.NoteOnEvent(tick=0, channel=0, data=[60,51]),
   midi.NoteOnEvent(tick=0, channel=0, data=[65,61]),
   midi.NoteOnEvent(tick=240, channel=0, data=[65,0]),
   midi.NoteOnEvent(tick=0, channel=0, data=[60,0]),
   midi.NoteOnEvent(tick=0, channel=0, data=[57,0]),
   midi.NoteOnEvent(tick=0, channel=0, data=[60,57]),
   midi.NoteOnEvent(tick=0, channel=0, data=[57,48]),
   midi.NoteOnEvent(tick=180, channel=0, data=[57,0]),
   midi.NoteOnEvent(tick=0, channel=0, data=[60,0]),
   midi.NoteOnEvent(tick=60, channel=0, data=[69,70]),
   midi.NoteOnEvent(tick=0, channel=0, data=[65,59]),
   midi.NoteOnEvent(tick=0, channel=0, data=[60,59]),
   midi.NoteOnEvent(tick=240, channel=0, data=[60,0]),
   midi.NoteOnEvent(tick=0, channel=0, data=[65,0]),
   midi.NoteOnEvent(tick=0, channel=0, data=[69,0]),
   midi.NoteOnEvent(tick=0, channel=0, data=[60,47]),
   midi.NoteOnEvent(tick=0, channel=0, data=[65,47]),
   midi.NoteOnEvent(tick=0, channel=0, data=[69,56]),
   midi.NoteOnEvent(tick=240, channel=0, data=[69,0]),
   midi.NoteOnEvent(tick=0, channel=0, data=[65,0]),
   midi.NoteOnEvent(tick=0, channel=0, data=[60,0]),
   midi.NoteOnEvent(tick=0, channel=0, data=[65,52]),
   midi.NoteOnEvent(tick=0, channel=0, data=[60,52]),
   midi.NoteOnEvent(tick=0, channel=0, data=[69,62]),
   midi.NoteOnEvent(tick=240, channel=0, data=[69,0]),
   midi.NoteOnEvent(tick=0, channel=0, data=[60,0]),
   midi.NoteOnEvent(tick=0, channel=0, data=[65,0]),
   midi.NoteOnEvent(tick=0, channel=0, data=[60,48]),
   midi.NoteOnEvent(tick=0, channel=0, data=[65,57]),
   midi.NoteOnEvent(tick=180, channel=0, data=[65,0]),
   midi.NoteOnEvent(tick=0, channel=0, data=[60,0]),
   midi.NoteOnEvent(tick=60, channel=0, data=[69,58]),
   midi.NoteOnEvent(tick=0, channel=0, data=[72,69]),
   midi.NoteOnEvent(tick=180, channel=0, data=[72,0]),
   midi.NoteOnEvent(tick=0, channel=0, data=[69,0]),
   midi.NoteOnEvent(tick=60, channel=0, data=[69,50]),
   midi.NoteOnEvent(tick=0, channel=0, data=[72,59]),
   midi.NoteOnEvent(tick=180, channel=0, data=[72,0]),
   midi.NoteOnEvent(tick=0, channel=0, data=[69,0]),
   midi.NoteOnEvent(tick=60, channel=0, data=[67,56]),
   midi.NoteOnEvent(tick=0, channel=0, data=[70,66]),
   midi.NoteOnEvent(tick=180, channel=0, data=[70,0]),
   midi.NoteOnEvent(tick=0, channel=0, data=[67,0]),
   midi.NoteOnEvent(tick=60, channel=0, data=[70,57]),
   midi.NoteOnEvent(tick=0, channel=0, data=[67,48]),
   midi.NoteOnEvent(tick=180, channel=0, data=[67,0]),
   midi.NoteOnEvent(tick=0, channel=0, data=[70,0]),
   midi.NoteOnEvent(tick=60, channel=0, data=[65,53]),
   midi.NoteOnEvent(tick=0, channel=0, data=[69,63]),
   midi.NoteOnEvent(tick=180, channel=0, data=[69,0]),
   midi.NoteOnEvent(tick=0, channel=0, data=[65,0]),
   midi.NoteOnEvent(tick=60, channel=0, data=[69,53]),
   midi.NoteOnEvent(tick=0, channel=0, data=[65,45]),
   midi.NoteOnEvent(tick=220, channel=0, data=[65,0]),
   midi.NoteOnEvent(tick=0, channel=0, data=[69,0]),
   midi.NoteOnEvent(tick=20, channel=0, data=[64,52]),
   midi.NoteOnEvent(tick=0, channel=0, data=[67,62]),
   midi.NoteOnEvent(tick=460, channel=0, data=[67,0]),
   midi.NoteOnEvent(tick=0, channel=0, data=[64,0]),
   midi.NoteOnEvent(tick=20, channel=0, data=[57,59]),
   midi.NoteOnEvent(tick=0, channel=0, data=[60,59]),
   midi.NoteOnEvent(tick=0, channel=0, data=[65,70]),
   midi.NoteOnEvent(tick=240, channel=0, data=[65,0]),
   midi.NoteOnEvent(tick=0, channel=0, data=[60,0]),
   midi.NoteOnEvent(tick=0, channel=0, data=[57,0]),
   midi.NoteOnEvent(tick=0, channel=0, data=[65,55]),
   midi.NoteOnEvent(tick=0, channel=0, data=[57,46]),
   midi.NoteOnEvent(tick=0, channel=0, data=[60,46]),
   midi.NoteOnEvent(tick=240, channel=0, data=[60,0]),
   midi.NoteOnEvent(tick=0, channel=0, data=[57,0]),
   midi.NoteOnEvent(tick=0, channel=0, data=[65,0]),
   midi.NoteOnEvent(tick=0, channel=0, data=[57,51]),
   midi.NoteOnEvent(tick=0, channel=0, data=[60,51]),
   midi.NoteOnEvent(tick=0, channel=0, data=[65,61]),
   midi.NoteOnEvent(tick=240, channel=0, data=[65,0]),
   midi.NoteOnEvent(tick=0, channel=0, data=[60,0]),
   midi.NoteOnEvent(tick=0, channel=0, data=[57,0]),
   midi.NoteOnEvent(tick=0, channel=0, data=[57,48]),
   midi.NoteOnEvent(tick=0, channel=0, data=[60,57]),
   midi.NoteOnEvent(tick=180, channel=0, data=[60,0]),
   midi.NoteOnEvent(tick=0, channel=0, data=[57,0]),
   midi.NoteOnEvent(tick=60, channel=0, data=[60,58]),
   midi.NoteOnEvent(tick=0, channel=0, data=[65,58]),
   midi.NoteOnEvent(tick=0, channel=0, data=[69,69]),
   midi.NoteOnEvent(tick=240, channel=0, data=[69,0]),
   midi.NoteOnEvent(tick=0, channel=0, data=[65,0]),
   midi.NoteOnEvent(tick=0, channel=0, data=[60,0]),
   midi.NoteOnEvent(tick=0, channel=0, data=[69,56]),
   midi.NoteOnEvent(tick=0, channel=0, data=[60,47]),
   midi.NoteOnEvent(tick=0, channel=0, data=[65,47]),
   midi.NoteOnEvent(tick=240, channel=0, data=[65,0]),
   midi.NoteOnEvent(tick=0, channel=0, data=[60,0]),
   midi.NoteOnEvent(tick=0, channel=0, data=[69,0]),
   midi.NoteOnEvent(tick=0, channel=0, data=[60,52]),
   midi.NoteOnEvent(tick=0, channel=0, data=[65,52]),
   midi.NoteOnEvent(tick=0, channel=0, data=[69,62]),
   midi.NoteOnEvent(tick=240, channel=0, data=[69,0]),
   midi.NoteOnEvent(tick=0, channel=0, data=[65,0]),
   midi.NoteOnEvent(tick=0, channel=0, data=[60,0]),
   midi.NoteOnEvent(tick=0, channel=0, data=[60,48]),
   midi.NoteOnEvent(tick=0, channel=0, data=[65,57]),
   midi.NoteOnEvent(tick=180, channel=0, data=[65,0]),
   midi.NoteOnEvent(tick=0, channel=0, data=[60,0]),
   midi.NoteOnEvent(tick=60, channel=0, data=[72,69]),
   midi.NoteOnEvent(tick=0, channel=0, data=[69,58]),
   midi.NoteOnEvent(tick=180, channel=0, data=[69,0]),
   midi.NoteOnEvent(tick=0, channel=0, data=[72,0]),
   midi.NoteOnEvent(tick=60, channel=0, data=[69,50]),
   midi.NoteOnEvent(tick=0, channel=0, data=[72,59]),
   midi.NoteOnEvent(tick=180, channel=0, data=[72,0]),
   midi.NoteOnEvent(tick=0, channel=0, data=[69,0]),
   midi.NoteOnEvent(tick=60, channel=0, data=[70,66]),
   midi.NoteOnEvent(tick=0, channel=0, data=[67,56]),
   midi.NoteOnEvent(tick=180, channel=0, data=[67,0]),
   midi.NoteOnEvent(tick=0, channel=0, data=[70,0]),
   midi.NoteOnEvent(tick=60, channel=0, data=[67,48]),
   midi.NoteOnEvent(tick=0, channel=0, data=[70,57]),
   midi.NoteOnEvent(tick=180, channel=0, data=[70,0]),
   midi.NoteOnEvent(tick=0, channel=0, data=[67,0]),
   midi.NoteOnEvent(tick=60, channel=0, data=[65,53]),
   midi.NoteOnEvent(tick=0, channel=0, data=[69,63]),
   midi.NoteOnEvent(tick=180, channel=0, data=[69,0]),
   midi.NoteOnEvent(tick=0, channel=0, data=[65,0]),
   midi.NoteOnEvent(tick=60, channel=0, data=[65,45]),
   midi.NoteOnEvent(tick=0, channel=0, data=[69,53]),
   midi.NoteOnEvent(tick=180, channel=0, data=[69,0]),
   midi.NoteOnEvent(tick=0, channel=0, data=[65,0]),
   midi.NoteOnEvent(tick=60, channel=0, data=[64,52]),
   midi.NoteOnEvent(tick=0, channel=0, data=[67,62]),
   midi.NoteOnEvent(tick=460, channel=0, data=[67,0]),
   midi.NoteOnEvent(tick=0, channel=0, data=[64,0]),
   midi.NoteOnEvent(tick=20, channel=0, data=[69,61]),
   midi.NoteOnEvent(tick=0, channel=0, data=[72,72]),
   midi.NoteOnEvent(tick=120, channel=0, data=[72,0]),
   midi.NoteOnEvent(tick=0, channel=0, data=[69,0]),
   midi.NoteOnEvent(tick=120, channel=0, data=[72,64]),
   midi.NoteOnEvent(tick=0, channel=0, data=[69,54]),
   midi.NoteOnEvent(tick=120, channel=0, data=[69,0]),
   midi.NoteOnEvent(tick=0, channel=0, data=[72,0]),
   midi.NoteOnEvent(tick=120, channel=0, data=[65,61]),
   midi.NoteOnEvent(tick=0, channel=0, data=[69,72]),
   midi.NoteOnEvent(tick=240, channel=0, data=[69,0]),
   midi.NoteOnEvent(tick=0, channel=0, data=[65,0]),
   midi.NoteOnEvent(tick=0, channel=0, data=[65,66]),
   midi.NoteOnEvent(tick=240, channel=0, data=[65,0]),
   midi.NoteOnEvent(tick=0, channel=0, data=[74,78]),
   midi.NoteOnEvent(tick=0, channel=0, data=[65,66]),
   midi.NoteOnEvent(tick=0, channel=0, data=[70,66]),
   midi.NoteOnEvent(tick=120, channel=0, data=[70,0]),
   midi.NoteOnEvent(tick=0, channel=0, data=[65,0]),
   midi.NoteOnEvent(tick=0, channel=0, data=[74,0]),
   midi.NoteOnEvent(tick=120, channel=0, data=[65,60]),
   midi.NoteOnEvent(tick=0, channel=0, data=[70,60]),
   midi.NoteOnEvent(tick=0, channel=0, data=[74,71]),
   midi.NoteOnEvent(tick=120, channel=0, data=[74,0]),
   midi.NoteOnEvent(tick=0, channel=0, data=[70,0]),
   midi.NoteOnEvent(tick=0, channel=0, data=[65,0]),
   midi.NoteOnEvent(tick=120, channel=0, data=[72,70]),
   midi.NoteOnEvent(tick=0, channel=0, data=[65,65]),
   midi.NoteOnEvent(tick=0, channel=0, data=[69,65]),
   midi.NoteOnEvent(tick=460, channel=0, data=[69,0]),
   midi.NoteOnEvent(tick=0, channel=0, data=[65,0]),
   midi.NoteOnEvent(tick=0, channel=0, data=[72,0]),
   midi.NoteOnEvent(tick=20, channel=0, data=[65,68]),
   midi.NoteOnEvent(tick=0, channel=0, data=[69,68]),
   midi.NoteOnEvent(tick=0, channel=0, data=[77,81]),
   midi.NoteOnEvent(tick=0, channel=0, data=[72,68]),
   midi.NoteOnEvent(tick=360, channel=0, data=[72,0]),
   midi.NoteOnEvent(tick=0, channel=0, data=[65,0]),
   midi.NoteOnEvent(tick=0, channel=0, data=[69,0]),
   midi.NoteOnEvent(tick=0, channel=0, data=[77,0]),
   midi.NoteOnEvent(tick=0, channel=0, data=[72,77]),
   midi.NoteOnEvent(tick=120, channel=0, data=[72,0]),
   midi.NoteOnEvent(tick=0, channel=0, data=[69,83]),
   midi.NoteOnEvent(tick=240, channel=0, data=[69,0]),
   midi.NoteOnEvent(tick=0, channel=0, data=[65,71]),
   midi.NoteOnEvent(tick=240, channel=0, data=[65,0]),
   midi.NoteOnEvent(tick=0, channel=0, data=[64,62]),
   midi.NoteOnEvent(tick=0, channel=0, data=[72,74]),
   midi.NoteOnEvent(tick=0, channel=0, data=[67,62]),
   midi.NoteOnEvent(tick=120, channel=0, data=[67,0]),
   midi.NoteOnEvent(tick=0, channel=0, data=[72,0]),
   midi.NoteOnEvent(tick=0, channel=0, data=[64,0]),
   midi.NoteOnEvent(tick=120, channel=0, data=[64,54]),
   midi.NoteOnEvent(tick=0, channel=0, data=[67,54]),
   midi.NoteOnEvent(tick=0, channel=0, data=[72,64]),
   midi.NoteOnEvent(tick=120, channel=0, data=[72,0]),
   midi.NoteOnEvent(tick=0, channel=0, data=[67,0]),
   midi.NoteOnEvent(tick=0, channel=0, data=[64,0]),
   midi.NoteOnEvent(tick=120, channel=0, data=[65,72]),
   midi.NoteOnEvent(tick=360, channel=0, data=[65,0]),
   midi.NoteOnEvent(tick=120, channel=0, data=[72,58]),
   midi.NoteOnEvent(tick=120, channel=0, data=[72,0]),
   midi.NoteOnEvent(tick=0, channel=0, data=[74,60]),
   midi.NoteOnEvent(tick=120, channel=0, data=[74,0]),
   midi.NoteOnEvent(tick=0, channel=0, data=[76,62]),
   midi.NoteOnEvent(tick=120, channel=0, data=[76,0]),
   midi.NoteOnEvent(tick=0, channel=0, data=[77,64]),
   midi.NoteOnEvent(tick=120, channel=0, data=[77,0]),
   midi.NoteOnEvent(tick=0, channel=0, data=[79,66]),
   midi.NoteOnEvent(tick=120, channel=0, data=[79,0]),
   midi.NoteOnEvent(tick=0, channel=0, data=[77,64]),
   midi.NoteOnEvent(tick=120, channel=0, data=[77,0]),
   midi.NoteOnEvent(tick=0, channel=0, data=[76,62]),
   midi.NoteOnEvent(tick=120, channel=0, data=[76,0]),
   midi.NoteOnEvent(tick=0, channel=0, data=[74,61]),
   midi.NoteOnEvent(tick=120, channel=0, data=[74,0]),
   midi.NoteOnEvent(tick=0, channel=0, data=[72,66]),
   midi.NoteOnEvent(tick=120, channel=0, data=[72,0]),
   midi.NoteOnEvent(tick=0, channel=0, data=[77,59]),
   midi.NoteOnEvent(tick=120, channel=0, data=[77,0]),
   midi.NoteOnEvent(tick=0, channel=0, data=[81,66]),
   midi.NoteOnEvent(tick=120, channel=0, data=[81,0]),
   midi.NoteOnEvent(tick=0, channel=0, data=[77,61]),
   midi.NoteOnEvent(tick=120, channel=0, data=[77,0]),
   midi.NoteOnEvent(tick=0, channel=0, data=[84,66]),
   midi.NoteOnEvent(tick=240, channel=0, data=[84,0]),
   midi.NoteOnEvent(tick=240, channel=0, data=[84,61]),
   midi.NoteOnEvent(tick=120, channel=0, data=[84,0]),
   midi.NoteOnEvent(tick=0, channel=0, data=[86,62]),
   midi.NoteOnEvent(tick=120, channel=0, data=[86,0]),
   midi.NoteOnEvent(tick=0, channel=0, data=[88,63]),
   midi.NoteOnEvent(tick=120, channel=0, data=[88,0]),
   midi.NoteOnEvent(tick=0, channel=0, data=[89,66]),
   midi.NoteOnEvent(tick=120, channel=0, data=[89,0]),
   midi.NoteOnEvent(tick=0, channel=0, data=[91,68]),
   midi.NoteOnEvent(tick=240, channel=0, data=[91,0]),
   midi.NoteOnEvent(tick=240, channel=0, data=[89,59]),
   midi.NoteOnEvent(tick=120, channel=0, data=[89,0]),
   midi.NoteOnEvent(tick=0, channel=0, data=[91,62]),
   midi.NoteOnEvent(tick=120, channel=0, data=[91,0]),
   midi.NoteOnEvent(tick=0, channel=0, data=[93,63]),
   midi.NoteOnEvent(tick=120, channel=0, data=[93,0]),
   midi.NoteOnEvent(tick=0, channel=0, data=[94,67]),
   midi.NoteOnEvent(tick=120, channel=0, data=[94,0]),
   midi.NoteOnEvent(tick=0, channel=0, data=[96,70]),
   midi.NoteOnEvent(tick=240, channel=0, data=[96,0]),
   midi.NoteOnEvent(tick=240, channel=0, data=[72,58]),
   midi.NoteOnEvent(tick=120, channel=0, data=[72,0]),
   midi.NoteOnEvent(tick=0, channel=0, data=[74,60]),
   midi.NoteOnEvent(tick=120, channel=0, data=[74,0]),
   midi.NoteOnEvent(tick=0, channel=0, data=[76,62]),
   midi.NoteOnEvent(tick=120, channel=0, data=[76,0]),
   midi.NoteOnEvent(tick=0, channel=0, data=[77,64]),
   midi.NoteOnEvent(tick=120, channel=0, data=[77,0]),
   midi.NoteOnEvent(tick=0, channel=0, data=[79,66]),
   midi.NoteOnEvent(tick=120, channel=0, data=[79,0]),
   midi.NoteOnEvent(tick=0, channel=0, data=[77,64]),
   midi.NoteOnEvent(tick=120, channel=0, data=[77,0]),
   midi.NoteOnEvent(tick=0, channel=0, data=[76,62]),
   midi.NoteOnEvent(tick=120, channel=0, data=[76,0]),
   midi.NoteOnEvent(tick=0, channel=0, data=[74,61]),
   midi.NoteOnEvent(tick=120, channel=0, data=[74,0]),
   midi.NoteOnEvent(tick=0, channel=0, data=[72,66]),
   midi.NoteOnEvent(tick=120, channel=0, data=[72,0]),
   midi.NoteOnEvent(tick=0, channel=0, data=[77,59]),
   midi.NoteOnEvent(tick=120, channel=0, data=[77,0]),
   midi.NoteOnEvent(tick=0, channel=0, data=[81,66]),
   midi.NoteOnEvent(tick=120, channel=0, data=[81,0]),
   midi.NoteOnEvent(tick=0, channel=0, data=[77,61]),
   midi.NoteOnEvent(tick=120, channel=0, data=[77,0]),
   midi.NoteOnEvent(tick=0, channel=0, data=[84,66]),
   midi.NoteOnEvent(tick=240, channel=0, data=[84,0]),
   midi.NoteOnEvent(tick=240, channel=0, data=[84,58]),
   midi.NoteOnEvent(tick=120, channel=0, data=[84,0]),
   midi.NoteOnEvent(tick=0, channel=0, data=[86,60]),
   midi.NoteOnEvent(tick=120, channel=0, data=[86,0]),
   midi.NoteOnEvent(tick=0, channel=0, data=[88,62]),
   midi.NoteOnEvent(tick=120, channel=0, data=[88,0]),
   midi.NoteOnEvent(tick=0, channel=0, data=[89,64]),
   midi.NoteOnEvent(tick=120, channel=0, data=[89,0]),
   midi.NoteOnEvent(tick=0, channel=0, data=[91,66]),
   midi.NoteOnEvent(tick=120, channel=0, data=[91,0]),
   midi.NoteOnEvent(tick=0, channel=0, data=[88,64]),
   midi.NoteOnEvent(tick=120, channel=0, data=[88,0]),
   midi.NoteOnEvent(tick=0, channel=0, data=[86,62]),
   midi.NoteOnEvent(tick=120, channel=0, data=[86,0]),
   midi.NoteOnEvent(tick=0, channel=0, data=[84,61]),
   midi.NoteOnEvent(tick=120, channel=0, data=[84,0]),
   midi.NoteOnEvent(tick=0, channel=0, data=[89,68]),
   midi.NoteOnEvent(tick=120, channel=0, data=[89,0]),
   midi.NoteOnEvent(tick=120, channel=0, data=[87,67]),
   midi.NoteOnEvent(tick=120, channel=0, data=[87,0]),
   midi.NoteOnEvent(tick=0, channel=0, data=[89,63]),
   midi.NoteOnEvent(tick=120, channel=0, data=[89,0]),
   midi.NoteOnEvent(tick=0, channel=0, data=[91,67]),
   midi.NoteOnEvent(tick=120, channel=0, data=[91,0]),
   midi.NoteOnEvent(tick=0, channel=0, data=[89,63]),
   midi.NoteOnEvent(tick=120, channel=0, data=[89,0]),
   midi.NoteOnEvent(tick=0, channel=0, data=[87,67]),
   midi.NoteOnEvent(tick=120, channel=0, data=[87,0]),
   midi.NoteOnEvent(tick=0, channel=0, data=[86,63]),
   midi.NoteOnEvent(tick=120, channel=0, data=[86,0]),
   midi.NoteOnEvent(tick=0, channel=0, data=[84,69]),
   midi.NoteOnEvent(tick=120, channel=0, data=[84,0]),
   midi.NoteOnEvent(tick=120, channel=0, data=[84,67]),
   midi.NoteOnEvent(tick=120, channel=0, data=[84,0]),
   midi.NoteOnEvent(tick=0, channel=0, data=[86,63]),
   midi.NoteOnEvent(tick=120, channel=0, data=[86,0]),
   midi.NoteOnEvent(tick=0, channel=0, data=[87,67]),
   midi.NoteOnEvent(tick=120, channel=0, data=[87,0]),
   midi.NoteOnEvent(tick=0, channel=0, data=[86,63]),
   midi.NoteOnEvent(tick=120, channel=0, data=[86,0]),
   midi.NoteOnEvent(tick=0, channel=0, data=[84,67]),
   midi.NoteOnEvent(tick=120, channel=0, data=[84,0]),
   midi.NoteOnEvent(tick=0, channel=0, data=[82,63]),
   midi.NoteOnEvent(tick=120, channel=0, data=[82,0]),
   midi.NoteOnEvent(tick=0, channel=0, data=[81,69]),
   midi.NoteOnEvent(tick=120, channel=0, data=[81,0]),
   midi.NoteOnEvent(tick=120, channel=0, data=[81,67]),
   midi.NoteOnEvent(tick=120, channel=0, data=[81,0]),
   midi.NoteOnEvent(tick=0, channel=0, data=[82,63]),
   midi.NoteOnEvent(tick=120, channel=0, data=[82,0]),
   midi.NoteOnEvent(tick=0, channel=0, data=[84,67]),
   midi.NoteOnEvent(tick=120, channel=0, data=[84,0]),
   midi.NoteOnEvent(tick=0, channel=0, data=[82,63]),
   midi.NoteOnEvent(tick=120, channel=0, data=[82,0]),
   midi.NoteOnEvent(tick=0, channel=0, data=[81,67]),
   midi.NoteOnEvent(tick=120, channel=0, data=[81,0]),
   midi.NoteOnEvent(tick=0, channel=0, data=[79,63]),
   midi.NoteOnEvent(tick=120, channel=0, data=[79,0]),
   midi.NoteOnEvent(tick=0, channel=0, data=[77,69]),
   midi.NoteOnEvent(tick=120, channel=0, data=[77,0]),
   midi.NoteOnEvent(tick=360, channel=0, data=[65,70]),
   midi.NoteOnEvent(tick=360, channel=0, data=[65,0]),
   midi.NoteOnEvent(tick=0, channel=0, data=[64,61]),
   midi.NoteOnEvent(tick=120, channel=0, data=[64,0]),
   midi.NoteOnEvent(tick=0, channel=0, data=[65,64]),
   midi.NoteOnEvent(tick=240, channel=0, data=[65,0]),
   midi.NoteOnEvent(tick=0, channel=0, data=[63,71]),
   midi.NoteOnEvent(tick=240, channel=0, data=[63,0]),
   midi.NoteOnEvent(tick=0, channel=0, data=[62,77]),
   midi.NoteOnEvent(tick=210, channel=0, data=[62,0]),
   midi.NoteOnEvent(tick=30, channel=0, data=[63,68]),
   midi.NoteOnEvent(tick=0, channel=0, data=[65,80]),
   midi.NoteOnEvent(tick=0, channel=0, data=[57,68]),
   midi.NoteOnEvent(tick=240, channel=0, data=[57,0]),
   midi.NoteOnEvent(tick=0, channel=0, data=[65,0]),
   midi.NoteOnEvent(tick=0, channel=0, data=[63,0]),
   midi.NoteOnEvent(tick=0, channel=0, data=[58,73]),
   midi.NoteOnEvent(tick=0, channel=0, data=[62,73]),
   midi.NoteOnEvent(tick=0, channel=0, data=[70,82]),
   midi.NoteOnEvent(tick=0, channel=0, data=[65,82]),
   midi.NoteOnEvent(tick=360, channel=0, data=[65,0]),
   midi.NoteOnEvent(tick=0, channel=0, data=[58,0]),
   midi.NoteOnEvent(tick=0, channel=0, data=[62,0]),
   midi.NoteOnEvent(tick=0, channel=0, data=[70,0]),
   midi.NoteOnEvent(tick=0, channel=0, data=[62,66]),
   midi.NoteOnEvent(tick=0, channel=0, data=[65,74]),
   midi.NoteOnEvent(tick=0, channel=0, data=[70,74]),
   midi.NoteOnEvent(tick=120, channel=0, data=[70,0]),
   midi.NoteOnEvent(tick=0, channel=0, data=[65,0]),
   midi.NoteOnEvent(tick=0, channel=0, data=[62,0]),
   midi.NoteOnEvent(tick=0, channel=0, data=[70,81]),
   midi.NoteOnEvent(tick=0, channel=0, data=[65,81]),
   midi.NoteOnEvent(tick=0, channel=0, data=[62,72]),
   midi.NoteOnEvent(tick=420, channel=0, data=[62,0]),
   midi.NoteOnEvent(tick=0, channel=0, data=[65,0]),
   midi.NoteOnEvent(tick=0, channel=0, data=[70,0]),
   midi.NoteOnEvent(tick=60, channel=0, data=[65,73]),
   midi.NoteOnEvent(tick=0, channel=0, data=[69,82]),
   midi.NoteOnEvent(tick=0, channel=0, data=[72,82]),
   midi.NoteOnEvent(tick=480, channel=0, data=[72,0]),
   midi.NoteOnEvent(tick=0, channel=0, data=[69,0]),
   midi.NoteOnEvent(tick=0, channel=0, data=[65,0]),
   midi.NoteOnEvent(tick=0, channel=0, data=[74,84]),
   midi.NoteOnEvent(tick=0, channel=0, data=[65,75]),
   midi.NoteOnEvent(tick=0, channel=0, data=[70,84]),
   midi.NoteOnEvent(tick=360, channel=0, data=[70,0]),
   midi.NoteOnEvent(tick=0, channel=0, data=[65,0]),
   midi.NoteOnEvent(tick=0, channel=0, data=[74,0]),
   midi.NoteOnEvent(tick=0, channel=0, data=[65,72]),
   midi.NoteOnEvent(tick=0, channel=0, data=[70,81]),
   midi.NoteOnEvent(tick=0, channel=0, data=[74,81]),
   midi.NoteOnEvent(tick=120, channel=0, data=[74,0]),
   midi.NoteOnEvent(tick=0, channel=0, data=[70,0]),
   midi.NoteOnEvent(tick=0, channel=0, data=[65,0]),
   midi.NoteOnEvent(tick=0, channel=0, data=[74,85]),
   midi.NoteOnEvent(tick=0, channel=0, data=[65,77]),
   midi.NoteOnEvent(tick=0, channel=0, data=[70,85]),
   midi.NoteOnEvent(tick=440, channel=0, data=[70,0]),
   midi.NoteOnEvent(tick=0, channel=0, data=[65,0]),
   midi.NoteOnEvent(tick=0, channel=0, data=[74,0]),
   midi.NoteOnEvent(tick=40, channel=0, data=[67,62]),
   midi.NoteOnEvent(tick=0, channel=0, data=[70,69]),
   midi.NoteOnEvent(tick=0, channel=0, data=[74,69]),
   midi.NoteOnEvent(tick=480, channel=0, data=[74,0]),
   midi.NoteOnEvent(tick=0, channel=0, data=[70,0]),
   midi.NoteOnEvent(tick=0, channel=0, data=[67,0]),
   midi.NoteOnEvent(tick=0, channel=0, data=[72,74]),
   midi.NoteOnEvent(tick=0, channel=0, data=[67,62]),
   midi.NoteOnEvent(tick=240, channel=0, data=[67,0]),
   midi.NoteOnEvent(tick=0, channel=0, data=[72,0]),
   midi.NoteOnEvent(tick=0, channel=0, data=[67,56]),
   midi.NoteOnEvent(tick=0, channel=0, data=[71,56]),
   midi.NoteOnEvent(tick=0, channel=0, data=[74,66]),
   midi.NoteOnEvent(tick=240, channel=0, data=[74,0]),
   midi.NoteOnEvent(tick=0, channel=0, data=[71,0]),
   midi.NoteOnEvent(tick=0, channel=0, data=[67,0]),
   midi.NoteOnEvent(tick=0, channel=0, data=[75,69]),
   midi.NoteOnEvent(tick=0, channel=0, data=[72,58]),
   midi.NoteOnEvent(tick=0, channel=0, data=[67,58]),
   midi.NoteOnEvent(tick=460, channel=0, data=[67,0]),
   midi.NoteOnEvent(tick=0, channel=0, data=[72,0]),
   midi.NoteOnEvent(tick=0, channel=0, data=[75,0]),
   midi.NoteOnEvent(tick=20, channel=0, data=[63,51]),
   midi.NoteOnEvent(tick=0, channel=0, data=[69,61]),
   midi.NoteOnEvent(tick=480, channel=0, data=[69,0]),
   midi.NoteOnEvent(tick=0, channel=0, data=[63,0]),
   midi.NoteOnEvent(tick=0, channel=0, data=[63,54]),
   midi.NoteOnEvent(tick=0, channel=0, data=[72,64]),
   midi.NoteOnEvent(tick=0, channel=0, data=[69,54]),
   midi.NoteOnEvent(tick=480, channel=0, data=[69,0]),
   midi.NoteOnEvent(tick=0, channel=0, data=[72,0]),
   midi.NoteOnEvent(tick=0, channel=0, data=[63,0]),
   midi.NoteOnEvent(tick=0, channel=0, data=[62,51]),
   midi.NoteOnEvent(tick=0, channel=0, data=[70,61]),
   midi.NoteOnEvent(tick=420, channel=0, data=[70,0]),
   midi.NoteOnEvent(tick=0, channel=0, data=[62,0]),
   midi.NoteOnEvent(tick=60, channel=0, data=[75,39]),
   midi.NoteOnEvent(tick=0, channel=0, data=[69,39]),
   midi.NoteOnEvent(tick=0, channel=0, data=[77,47]),
   midi.NoteOnEvent(tick=480, channel=0, data=[77,0]),
   midi.NoteOnEvent(tick=0, channel=0, data=[69,0]),
   midi.NoteOnEvent(tick=0, channel=0, data=[75,0]),
   midi.NoteOnEvent(tick=0, channel=0, data=[77,41]),
   midi.NoteOnEvent(tick=0, channel=0, data=[74,41]),
   midi.NoteOnEvent(tick=0, channel=0, data=[70,41]),
   midi.NoteOnEvent(tick=0, channel=0, data=[82,49]),
   midi.NoteOnEvent(tick=360, channel=0, data=[82,0]),
   midi.NoteOnEvent(tick=0, channel=0, data=[77,0]),
   midi.NoteOnEvent(tick=0, channel=0, data=[74,0]),
   midi.NoteOnEvent(tick=0, channel=0, data=[70,0]),
   midi.NoteOnEvent(tick=0, channel=0, data=[74,38]),
   midi.NoteOnEvent(tick=0, channel=0, data=[82,45]),
   midi.NoteOnEvent(tick=0, channel=0, data=[77,38]),
   midi.NoteOnEvent(tick=120, channel=0, data=[77,0]),
   midi.NoteOnEvent(tick=0, channel=0, data=[82,0]),
   midi.NoteOnEvent(tick=0, channel=0, data=[74,0]),
   midi.NoteOnEvent(tick=0, channel=0, data=[74,40]),
   midi.NoteOnEvent(tick=0, channel=0, data=[77,40]),
   midi.NoteOnEvent(tick=0, channel=0, data=[82,48]),
   midi.NoteOnEvent(tick=420, channel=0, data=[82,0]),
   midi.NoteOnEvent(tick=0, channel=0, data=[77,0]),
   midi.NoteOnEvent(tick=0, channel=0, data=[74,0]),
   midi.NoteOnEvent(tick=60, channel=0, data=[84,49]),
   midi.NoteOnEvent(tick=0, channel=0, data=[81,41]),
   midi.NoteOnEvent(tick=0, channel=0, data=[77,41]),
   midi.NoteOnEvent(tick=480, channel=0, data=[77,0]),
   midi.NoteOnEvent(tick=0, channel=0, data=[81,0]),
   midi.NoteOnEvent(tick=0, channel=0, data=[84,0]),
   midi.NoteOnEvent(tick=0, channel=0, data=[77,43]),
   midi.NoteOnEvent(tick=0, channel=0, data=[82,43]),
   midi.NoteOnEvent(tick=0, channel=0, data=[86,51]),
   midi.NoteOnEvent(tick=360, channel=0, data=[86,0]),
   midi.NoteOnEvent(tick=0, channel=0, data=[82,0]),
   midi.NoteOnEvent(tick=0, channel=0, data=[77,0]),
   midi.NoteOnEvent(tick=0, channel=0, data=[86,48]),
   midi.NoteOnEvent(tick=0, channel=0, data=[77,40]),
   midi.NoteOnEvent(tick=0, channel=0, data=[82,40]),
   midi.NoteOnEvent(tick=120, channel=0, data=[82,0]),
   midi.NoteOnEvent(tick=0, channel=0, data=[77,0]),
   midi.NoteOnEvent(tick=0, channel=0, data=[86,0]),
   midi.NoteOnEvent(tick=0, channel=0, data=[77,44]),
   midi.NoteOnEvent(tick=0, channel=0, data=[82,44]),
   midi.NoteOnEvent(tick=0, channel=0, data=[86,52]),
   midi.NoteOnEvent(tick=460, channel=0, data=[86,0]),
   midi.NoteOnEvent(tick=0, channel=0, data=[82,0]),
   midi.NoteOnEvent(tick=0, channel=0, data=[77,0]),
   midi.NoteOnEvent(tick=20, channel=0, data=[86,41]),
   midi.NoteOnEvent(tick=0, channel=0, data=[79,34]),
   midi.NoteOnEvent(tick=0, channel=0, data=[82,34]),
   midi.NoteOnEvent(tick=480, channel=0, data=[82,0]),
   midi.NoteOnEvent(tick=0, channel=0, data=[79,0]),
   midi.NoteOnEvent(tick=0, channel=0, data=[86,0]),
   midi.NoteOnEvent(tick=0, channel=0, data=[79,45]),
   midi.NoteOnEvent(tick=0, channel=0, data=[84,45]),
   midi.NoteOnEvent(tick=240, channel=0, data=[84,0]),
   midi.NoteOnEvent(tick=0, channel=0, data=[79,0]),
   midi.NoteOnEvent(tick=0, channel=0, data=[79,39]),
   midi.NoteOnEvent(tick=0, channel=0, data=[86,39]),
   midi.NoteOnEvent(tick=0, channel=0, data=[83,39]),
   midi.NoteOnEvent(tick=240, channel=0, data=[83,0]),
   midi.NoteOnEvent(tick=0, channel=0, data=[86,0]),
   midi.NoteOnEvent(tick=0, channel=0, data=[79,0]),
   midi.NoteOnEvent(tick=0, channel=0, data=[79,41]),
   midi.NoteOnEvent(tick=0, channel=0, data=[84,41]),
   midi.NoteOnEvent(tick=0, channel=0, data=[87,41]),
   midi.NoteOnEvent(tick=460, channel=0, data=[87,0]),
   midi.NoteOnEvent(tick=0, channel=0, data=[84,0]),
   midi.NoteOnEvent(tick=0, channel=0, data=[79,0]),
   midi.NoteOnEvent(tick=20, channel=0, data=[81,37]),
   midi.NoteOnEvent(tick=0, channel=0, data=[75,37]),
   midi.NoteOnEvent(tick=480, channel=0, data=[75,0]),
   midi.NoteOnEvent(tick=0, channel=0, data=[81,0]),
   midi.NoteOnEvent(tick=0, channel=0, data=[81,39]),
   midi.NoteOnEvent(tick=0, channel=0, data=[75,39]),
   midi.NoteOnEvent(tick=0, channel=0, data=[84,39]),
   midi.NoteOnEvent(tick=480, channel=0, data=[84,0]),
   midi.NoteOnEvent(tick=0, channel=0, data=[75,0]),
   midi.NoteOnEvent(tick=0, channel=0, data=[81,0]),
   midi.NoteOnEvent(tick=0, channel=0, data=[74,37]),
   midi.NoteOnEvent(tick=0, channel=0, data=[82,37]),
   midi.NoteOnEvent(tick=450, channel=0, data=[82,0]),
   midi.NoteOnEvent(tick=0, channel=0, data=[74,0]),
   midi.NoteOnEvent(tick=270, channel=0, data=[74,62]),
   midi.NoteOnEvent(tick=0, channel=0, data=[77,73]),
   midi.NoteOnEvent(tick=240, channel=0, data=[77,0]),
   midi.NoteOnEvent(tick=0, channel=0, data=[74,0]),
   midi.NoteOnEvent(tick=0, channel=0, data=[74,63]),
   midi.NoteOnEvent(tick=0, channel=0, data=[77,75]),
   midi.NoteOnEvent(tick=240, channel=0, data=[77,0]),
   midi.NoteOnEvent(tick=0, channel=0, data=[74,0]),
   midi.NoteOnEvent(tick=0, channel=0, data=[74,73]),
   midi.NoteOnEvent(tick=0, channel=0, data=[70,62]),
   midi.NoteOnEvent(tick=240, channel=0, data=[70,0]),
   midi.NoteOnEvent(tick=0, channel=0, data=[74,0]),
   midi.NoteOnEvent(tick=0, channel=0, data=[75,82]),
   midi.NoteOnEvent(tick=0, channel=0, data=[79,69]),
   midi.NoteOnEvent(tick=720, channel=0, data=[79,0]),
   midi.NoteOnEvent(tick=0, channel=0, data=[75,0]),
   midi.NoteOnEvent(tick=0, channel=0, data=[74,66]),
   midi.NoteOnEvent(tick=0, channel=0, data=[77,78]),
   midi.NoteOnEvent(tick=240, channel=0, data=[77,0]),
   midi.NoteOnEvent(tick=0, channel=0, data=[74,0]),
   midi.NoteOnEvent(tick=0, channel=0, data=[74,68]),
   midi.NoteOnEvent(tick=0, channel=0, data=[77,80]),
   midi.NoteOnEvent(tick=240, channel=0, data=[77,0]),
   midi.NoteOnEvent(tick=0, channel=0, data=[74,0]),
   midi.NoteOnEvent(tick=0, channel=0, data=[75,73]),
   midi.NoteOnEvent(tick=0, channel=0, data=[72,62]),
   midi.NoteOnEvent(tick=240, channel=0, data=[72,0]),
   midi.NoteOnEvent(tick=0, channel=0, data=[75,0]),
   midi.NoteOnEvent(tick=0, channel=0, data=[72,62]),
   midi.NoteOnEvent(tick=0, channel=0, data=[75,73]),
   midi.NoteOnEvent(tick=720, channel=0, data=[75,0]),
   midi.NoteOnEvent(tick=0, channel=0, data=[72,0]),
   midi.NoteOnEvent(tick=0, channel=0, data=[75,73]),
   midi.NoteOnEvent(tick=0, channel=0, data=[72,62]),
   midi.NoteOnEvent(tick=240, channel=0, data=[72,0]),
   midi.NoteOnEvent(tick=0, channel=0, data=[75,0]),
   midi.NoteOnEvent(tick=0, channel=0, data=[75,75]),
   midi.NoteOnEvent(tick=0, channel=0, data=[72,63]),
   midi.NoteOnEvent(tick=240, channel=0, data=[72,0]),
   midi.NoteOnEvent(tick=0, channel=0, data=[75,0]),
   midi.NoteOnEvent(tick=0, channel=0, data=[69,62]),
   midi.NoteOnEvent(tick=0, channel=0, data=[72,73]),
   midi.NoteOnEvent(tick=240, channel=0, data=[72,0]),
   midi.NoteOnEvent(tick=0, channel=0, data=[69,0]),
   midi.NoteOnEvent(tick=0, channel=0, data=[77,81]),
   midi.NoteOnEvent(tick=0, channel=0, data=[74,68]),
   midi.NoteOnEvent(tick=720, channel=0, data=[74,0]),
   midi.NoteOnEvent(tick=0, channel=0, data=[77,0]),
   midi.NoteOnEvent(tick=0, channel=0, data=[72,63]),
   midi.NoteOnEvent(tick=0, channel=0, data=[75,75]),
   midi.NoteOnEvent(tick=240, channel=0, data=[75,0]),
   midi.NoteOnEvent(tick=0, channel=0, data=[72,0]),
   midi.NoteOnEvent(tick=0, channel=0, data=[72,68]),
   midi.NoteOnEvent(tick=0, channel=0, data=[75,80]),
   midi.NoteOnEvent(tick=240, channel=0, data=[75,0]),
   midi.NoteOnEvent(tick=0, channel=0, data=[72,0]),
   midi.NoteOnEvent(tick=0, channel=0, data=[70,62]),
   midi.NoteOnEvent(tick=0, channel=0, data=[74,73]),
   midi.NoteOnEvent(tick=240, channel=0, data=[74,0]),
   midi.NoteOnEvent(tick=0, channel=0, data=[70,0]),
   midi.NoteOnEvent(tick=0, channel=0, data=[74,73]),
   midi.NoteOnEvent(tick=0, channel=0, data=[70,62]),
   midi.NoteOnEvent(tick=450, channel=0, data=[70,0]),
   midi.NoteOnEvent(tick=0, channel=0, data=[74,0]),
   midi.NoteOnEvent(tick=30, channel=0, data=[57,63]),
   midi.NoteOnEvent(tick=0, channel=0, data=[65,80]),
   midi.NoteOnEvent(tick=0, channel=0, data=[63,80]),
   midi.NoteOnEvent(tick=480, channel=0, data=[63,0]),
   midi.NoteOnEvent(tick=0, channel=0, data=[65,0]),
   midi.NoteOnEvent(tick=0, channel=0, data=[57,0]),
   midi.NoteOnEvent(tick=0, channel=0, data=[62,64]),
   midi.NoteOnEvent(tick=0, channel=0, data=[70,82]),
   midi.NoteOnEvent(tick=0, channel=0, data=[65,82]),
   midi.NoteOnEvent(tick=0, channel=0, data=[58,64]),
   midi.NoteOnEvent(tick=360, channel=0, data=[58,0]),
   midi.NoteOnEvent(tick=0, channel=0, data=[62,0]),
   midi.NoteOnEvent(tick=0, channel=0, data=[70,0]),
   midi.NoteOnEvent(tick=0, channel=0, data=[65,0]),
   midi.NoteOnEvent(tick=0, channel=0, data=[70,74]),
   midi.NoteOnEvent(tick=0, channel=0, data=[65,74]),
   midi.NoteOnEvent(tick=0, channel=0, data=[62,59]),
   midi.NoteOnEvent(tick=120, channel=0, data=[62,0]),
   midi.NoteOnEvent(tick=0, channel=0, data=[65,0]),
   midi.NoteOnEvent(tick=0, channel=0, data=[70,0]),
   midi.NoteOnEvent(tick=0, channel=0, data=[62,64]),
   midi.NoteOnEvent(tick=0, channel=0, data=[65,81]),
   midi.NoteOnEvent(tick=0, channel=0, data=[70,81]),
   midi.NoteOnEvent(tick=420, channel=0, data=[70,0]),
   midi.NoteOnEvent(tick=0, channel=0, data=[65,0]),
   midi.NoteOnEvent(tick=0, channel=0, data=[62,0]),
   midi.NoteOnEvent(tick=60, channel=0, data=[72,82]),
   midi.NoteOnEvent(tick=0, channel=0, data=[65,64]),
   midi.NoteOnEvent(tick=0, channel=0, data=[69,82]),
   midi.NoteOnEvent(tick=480, channel=0, data=[69,0]),
   midi.NoteOnEvent(tick=0, channel=0, data=[65,0]),
   midi.NoteOnEvent(tick=0, channel=0, data=[72,0]),
   midi.NoteOnEvent(tick=0, channel=0, data=[65,67]),
   midi.NoteOnEvent(tick=0, channel=0, data=[70,84]),
   midi.NoteOnEvent(tick=0, channel=0, data=[74,84]),
   midi.NoteOnEvent(tick=360, channel=0, data=[74,0]),
   midi.NoteOnEvent(tick=0, channel=0, data=[70,0]),
   midi.NoteOnEvent(tick=0, channel=0, data=[65,0]),
   midi.NoteOnEvent(tick=0, channel=0, data=[74,81]),
   midi.NoteOnEvent(tick=0, channel=0, data=[65,64]),
   midi.NoteOnEvent(tick=0, channel=0, data=[70,81]),
   midi.NoteOnEvent(tick=120, channel=0, data=[70,0]),
   midi.NoteOnEvent(tick=0, channel=0, data=[65,0]),
   midi.NoteOnEvent(tick=0, channel=0, data=[74,0]),
   midi.NoteOnEvent(tick=0, channel=0, data=[65,68]),
   midi.NoteOnEvent(tick=0, channel=0, data=[70,85]),
   midi.NoteOnEvent(tick=0, channel=0, data=[74,85]),
   midi.NoteOnEvent(tick=460, channel=0, data=[74,0]),
   midi.NoteOnEvent(tick=0, channel=0, data=[70,0]),
   midi.NoteOnEvent(tick=0, channel=0, data=[65,0]),
   midi.NoteOnEvent(tick=20, channel=0, data=[74,63]),
   midi.NoteOnEvent(tick=0, channel=0, data=[67,50]),
   midi.NoteOnEvent(tick=0, channel=0, data=[70,63]),
   midi.NoteOnEvent(tick=480, channel=0, data=[70,0]),
   midi.NoteOnEvent(tick=0, channel=0, data=[67,0]),
   midi.NoteOnEvent(tick=0, channel=0, data=[74,0]),
   midi.NoteOnEvent(tick=0, channel=0, data=[67,46]),
   midi.NoteOnEvent(tick=0, channel=0, data=[72,68]),
   midi.NoteOnEvent(tick=240, channel=0, data=[72,0]),
   midi.NoteOnEvent(tick=0, channel=0, data=[67,0]),
   midi.NoteOnEvent(tick=0, channel=0, data=[74,60]),
   midi.NoteOnEvent(tick=0, channel=0, data=[71,60]),
   midi.NoteOnEvent(tick=0, channel=0, data=[67,39]),
   midi.NoteOnEvent(tick=240, channel=0, data=[67,0]),
   midi.NoteOnEvent(tick=0, channel=0, data=[71,0]),
   midi.NoteOnEvent(tick=0, channel=0, data=[74,0]),
   midi.NoteOnEvent(tick=0, channel=0, data=[67,42]),
   midi.NoteOnEvent(tick=0, channel=0, data=[72,53]),
   midi.NoteOnEvent(tick=0, channel=0, data=[75,63]),
   midi.NoteOnEvent(tick=460, channel=0, data=[75,0]),
   midi.NoteOnEvent(tick=0, channel=0, data=[72,0]),
   midi.NoteOnEvent(tick=0, channel=0, data=[67,0]),
   midi.NoteOnEvent(tick=20, channel=0, data=[69,57]),
   midi.NoteOnEvent(tick=0, channel=0, data=[63,38]),
   midi.NoteOnEvent(tick=480, channel=0, data=[63,0]),
   midi.NoteOnEvent(tick=0, channel=0, data=[69,0]),
   midi.NoteOnEvent(tick=0, channel=0, data=[63,39]),
   midi.NoteOnEvent(tick=0, channel=0, data=[69,59]),
   midi.NoteOnEvent(tick=0, channel=0, data=[72,59]),
   midi.NoteOnEvent(tick=480, channel=0, data=[72,0]),
   midi.NoteOnEvent(tick=0, channel=0, data=[69,0]),
   midi.NoteOnEvent(tick=0, channel=0, data=[63,0]),
   midi.NoteOnEvent(tick=0, channel=0, data=[70,57]),
   midi.NoteOnEvent(tick=0, channel=0, data=[62,38]),
   midi.NoteOnEvent(tick=450, channel=0, data=[62,0]),
   midi.NoteOnEvent(tick=0, channel=0, data=[70,0]),
   midi.NoteOnEvent(tick=30, channel=0, data=[86,38]),
   midi.NoteOnEvent(tick=0, channel=0, data=[82,38]),
   midi.NoteOnEvent(tick=0, channel=0, data=[79,38]),
   midi.NoteOnEvent(tick=480, channel=0, data=[79,0]),
   midi.NoteOnEvent(tick=0, channel=0, data=[82,0]),
   midi.NoteOnEvent(tick=0, channel=0, data=[86,0]),
   midi.NoteOnEvent(tick=0, channel=0, data=[79,41]),
   midi.NoteOnEvent(tick=0, channel=0, data=[84,41]),
   midi.NoteOnEvent(tick=240, channel=0, data=[84,0]),
   midi.NoteOnEvent(tick=0, channel=0, data=[79,0]),
   midi.NoteOnEvent(tick=0, channel=0, data=[86,36]),
   midi.NoteOnEvent(tick=0, channel=0, data=[79,36]),
   midi.NoteOnEvent(tick=0, channel=0, data=[83,36]),
   midi.NoteOnEvent(tick=240, channel=0, data=[83,0]),
   midi.NoteOnEvent(tick=0, channel=0, data=[79,0]),
   midi.NoteOnEvent(tick=0, channel=0, data=[86,0]),
   midi.NoteOnEvent(tick=0, channel=0, data=[79,38]),
   midi.NoteOnEvent(tick=0, channel=0, data=[84,38]),
   midi.NoteOnEvent(tick=0, channel=0, data=[87,38]),
   midi.NoteOnEvent(tick=460, channel=0, data=[87,0]),
   midi.NoteOnEvent(tick=0, channel=0, data=[84,0]),
   midi.NoteOnEvent(tick=0, channel=0, data=[79,0]),
   midi.NoteOnEvent(tick=20, channel=0, data=[75,34]),
   midi.NoteOnEvent(tick=0, channel=0, data=[81,34]),
   midi.NoteOnEvent(tick=480, channel=0, data=[81,0]),
   midi.NoteOnEvent(tick=0, channel=0, data=[75,0]),
   midi.NoteOnEvent(tick=0, channel=0, data=[75,36]),
   midi.NoteOnEvent(tick=0, channel=0, data=[81,36]),
   midi.NoteOnEvent(tick=0, channel=0, data=[84,36]),
   midi.NoteOnEvent(tick=480, channel=0, data=[84,0]),
   midi.NoteOnEvent(tick=0, channel=0, data=[81,0]),
   midi.NoteOnEvent(tick=0, channel=0, data=[75,0]),
   midi.NoteOnEvent(tick=0, channel=0, data=[82,34]),
   midi.NoteOnEvent(tick=0, channel=0, data=[74,34]),
   midi.NoteOnEvent(tick=450, channel=0, data=[74,0]),
   midi.NoteOnEvent(tick=0, channel=0, data=[82,0]),
   midi.NoteOnEvent(tick=30, channel=0, data=[77,64]),
   midi.NoteOnEvent(tick=120, channel=0, data=[77,0]),
   midi.NoteOnEvent(tick=0, channel=0, data=[82,67]),
   midi.NoteOnEvent(tick=120, channel=0, data=[82,0]),
   midi.NoteOnEvent(tick=0, channel=0, data=[86,69]),
   midi.NoteOnEvent(tick=120, channel=0, data=[86,0]),
   midi.NoteOnEvent(tick=0, channel=0, data=[89,74]),
   midi.NoteOnEvent(tick=120, channel=0, data=[89,0]),
   midi.NoteOnEvent(tick=0, channel=0, data=[89,88]),
   midi.NoteOnEvent(tick=120, channel=0, data=[89,0]),
   midi.NoteOnEvent(tick=0, channel=0, data=[87,70]),
   midi.NoteOnEvent(tick=120, channel=0, data=[87,0]),
   midi.NoteOnEvent(tick=0, channel=0, data=[84,68]),
   midi.NoteOnEvent(tick=120, channel=0, data=[84,0]),
   midi.NoteOnEvent(tick=0, channel=0, data=[77,68]),
   midi.NoteOnEvent(tick=120, channel=0, data=[77,0]),
   midi.NoteOnEvent(tick=0, channel=0, data=[89,88]),
   midi.NoteOnEvent(tick=120, channel=0, data=[89,0]),
   midi.NoteOnEvent(tick=0, channel=0, data=[87,69]),
   midi.NoteOnEvent(tick=120, channel=0, data=[87,0]),
   midi.NoteOnEvent(tick=0, channel=0, data=[84,68]),
   midi.NoteOnEvent(tick=120, channel=0, data=[84,0]),
   midi.NoteOnEvent(tick=0, channel=0, data=[77,68]),
   midi.NoteOnEvent(tick=120, channel=0, data=[77,0]),
   midi.NoteOnEvent(tick=0, channel=0, data=[76,68]),
   midi.NoteOnEvent(tick=120, channel=0, data=[76,0]),
   midi.NoteOnEvent(tick=0, channel=0, data=[77,64]),
   midi.NoteOnEvent(tick=120, channel=0, data=[77,0]),
   midi.NoteOnEvent(tick=0, channel=0, data=[81,68]),
   midi.NoteOnEvent(tick=120, channel=0, data=[81,0]),
   midi.NoteOnEvent(tick=0, channel=0, data=[84,64]),
   midi.NoteOnEvent(tick=120, channel=0, data=[84,0]),
   midi.NoteOnEvent(tick=0, channel=0, data=[87,88]),
   midi.NoteOnEvent(tick=120, channel=0, data=[87,0]),
   midi.NoteOnEvent(tick=0, channel=0, data=[86,69]),
   midi.NoteOnEvent(tick=120, channel=0, data=[86,0]),
   midi.NoteOnEvent(tick=0, channel=0, data=[82,66]),
   midi.NoteOnEvent(tick=120, channel=0, data=[82,0]),
   midi.NoteOnEvent(tick=0, channel=0, data=[77,66]),
   midi.NoteOnEvent(tick=120, channel=0, data=[77,0]),
   midi.NoteOnEvent(tick=0, channel=0, data=[87,85]),
   midi.NoteOnEvent(tick=120, channel=0, data=[87,0]),
   midi.NoteOnEvent(tick=0, channel=0, data=[86,68]),
   midi.NoteOnEvent(tick=120, channel=0, data=[86,0]),
   midi.NoteOnEvent(tick=0, channel=0, data=[82,64]),
   midi.NoteOnEvent(tick=120, channel=0, data=[82,0]),
   midi.NoteOnEvent(tick=0, channel=0, data=[77,64]),
   midi.NoteOnEvent(tick=120, channel=0, data=[77,0]),
   midi.NoteOnEvent(tick=0, channel=0, data=[76,64]),
   midi.NoteOnEvent(tick=120, channel=0, data=[76,0]),
   midi.NoteOnEvent(tick=0, channel=0, data=[77,62]),
   midi.NoteOnEvent(tick=120, channel=0, data=[77,0]),
   midi.NoteOnEvent(tick=0, channel=0, data=[76,64]),
   midi.NoteOnEvent(tick=120, channel=0, data=[76,0]),
   midi.NoteOnEvent(tick=0, channel=0, data=[77,62]),
   midi.NoteOnEvent(tick=120, channel=0, data=[77,0]),
   midi.NoteOnEvent(tick=0, channel=0, data=[81,81]),
   midi.NoteOnEvent(tick=120, channel=0, data=[81,0]),
   midi.NoteOnEvent(tick=0, channel=0, data=[69,50]),
   midi.NoteOnEvent(tick=120, channel=0, data=[69,0]),
   midi.NoteOnEvent(tick=0, channel=0, data=[79,78]),
   midi.NoteOnEvent(tick=120, channel=0, data=[79,0]),
   midi.NoteOnEvent(tick=0, channel=0, data=[69,52]),
   midi.NoteOnEvent(tick=120, channel=0, data=[69,0]),
   midi.NoteOnEvent(tick=0, channel=0, data=[77,80]),
   midi.NoteOnEvent(tick=120, channel=0, data=[77,0]),
   midi.NoteOnEvent(tick=0, channel=0, data=[69,52]),
   midi.NoteOnEvent(tick=120, channel=0, data=[69,0]),
   midi.NoteOnEvent(tick=0, channel=0, data=[75,80]),
   midi.NoteOnEvent(tick=120, channel=0, data=[75,0]),
   midi.NoteOnEvent(tick=0, channel=0, data=[69,53]),
   midi.NoteOnEvent(tick=120, channel=0, data=[69,0]),
   midi.NoteOnEvent(tick=0, channel=0, data=[74,82]),
   midi.NoteOnEvent(tick=120, channel=0, data=[74,0]),
   midi.NoteOnEvent(tick=0, channel=0, data=[69,55]),
   midi.NoteOnEvent(tick=120, channel=0, data=[69,0]),
   midi.NoteOnEvent(tick=0, channel=0, data=[72,84]),
   midi.NoteOnEvent(tick=120, channel=0, data=[72,0]),
   midi.NoteOnEvent(tick=0, channel=0, data=[69,57]),
   midi.NoteOnEvent(tick=120, channel=0, data=[69,0]),
   midi.NoteOnEvent(tick=0, channel=0, data=[79,89]),
   midi.NoteOnEvent(tick=0, channel=0, data=[75,89]),
   midi.NoteOnEvent(tick=360, channel=0, data=[75,0]),
   midi.NoteOnEvent(tick=0, channel=0, data=[79,0]),
   midi.NoteOnEvent(tick=120, channel=0, data=[74,74]),
   midi.NoteOnEvent(tick=0, channel=0, data=[77,74]),
   midi.NoteOnEvent(tick=360, channel=0, data=[77,0]),
   midi.NoteOnEvent(tick=0, channel=0, data=[74,0]),
   midi.NoteOnEvent(tick=120, channel=0, data=[77,69]),
   midi.NoteOnEvent(tick=120, channel=0, data=[77,0]),
   midi.NoteOnEvent(tick=0, channel=0, data=[82,72]),
   midi.NoteOnEvent(tick=120, channel=0, data=[82,0]),
   midi.NoteOnEvent(tick=0, channel=0, data=[86,77]),
   midi.NoteOnEvent(tick=120, channel=0, data=[86,0]),
   midi.NoteOnEvent(tick=0, channel=0, data=[89,81]),
   midi.NoteOnEvent(tick=120, channel=0, data=[89,0]),
   midi.NoteOnEvent(tick=0, channel=0, data=[89,94]),
   midi.NoteOnEvent(tick=120, channel=0, data=[89,0]),
   midi.NoteOnEvent(tick=0, channel=0, data=[87,78]),
   midi.NoteOnEvent(tick=120, channel=0, data=[87,0]),
   midi.NoteOnEvent(tick=0, channel=0, data=[84,74]),
   midi.NoteOnEvent(tick=120, channel=0, data=[84,0]),
   midi.NoteOnEvent(tick=0, channel=0, data=[77,74]),
   midi.NoteOnEvent(tick=120, channel=0, data=[77,0]),
   midi.NoteOnEvent(tick=0, channel=0, data=[89,94]),
   midi.NoteOnEvent(tick=120, channel=0, data=[89,0]),
   midi.NoteOnEvent(tick=0, channel=0, data=[87,77]),
   midi.NoteOnEvent(tick=120, channel=0, data=[87,0]),
   midi.NoteOnEvent(tick=0, channel=0, data=[84,74]),
   midi.NoteOnEvent(tick=120, channel=0, data=[84,0]),
   midi.NoteOnEvent(tick=0, channel=0, data=[77,74]),
   midi.NoteOnEvent(tick=120, channel=0, data=[77,0]),
   midi.NoteOnEvent(tick=0, channel=0, data=[76,74]),
   midi.NoteOnEvent(tick=120, channel=0, data=[76,0]),
   midi.NoteOnEvent(tick=0, channel=0, data=[77,69]),
   midi.NoteOnEvent(tick=120, channel=0, data=[77,0]),
   midi.NoteOnEvent(tick=0, channel=0, data=[81,74]),
   midi.NoteOnEvent(tick=120, channel=0, data=[81,0]),
   midi.NoteOnEvent(tick=0, channel=0, data=[84,69]),
   midi.NoteOnEvent(tick=120, channel=0, data=[84,0]),
   midi.NoteOnEvent(tick=0, channel=0, data=[87,96]),
   midi.NoteOnEvent(tick=120, channel=0, data=[87,0]),
   midi.NoteOnEvent(tick=0, channel=0, data=[86,77]),
   midi.NoteOnEvent(tick=120, channel=0, data=[86,0]),
   midi.NoteOnEvent(tick=0, channel=0, data=[82,70]),
   midi.NoteOnEvent(tick=120, channel=0, data=[82,0]),
   midi.NoteOnEvent(tick=0, channel=0, data=[77,70]),
   midi.NoteOnEvent(tick=120, channel=0, data=[77,0]),
   midi.NoteOnEvent(tick=0, channel=0, data=[87,96]),
   midi.NoteOnEvent(tick=120, channel=0, data=[87,0]),
   midi.NoteOnEvent(tick=0, channel=0, data=[86,75]),
   midi.NoteOnEvent(tick=120, channel=0, data=[86,0]),
   midi.NoteOnEvent(tick=0, channel=0, data=[82,69]),
   midi.NoteOnEvent(tick=120, channel=0, data=[82,0]),
   midi.NoteOnEvent(tick=0, channel=0, data=[77,69]),
   midi.NoteOnEvent(tick=120, channel=0, data=[77,0]),
   midi.NoteOnEvent(tick=0, channel=0, data=[76,75]),
   midi.NoteOnEvent(tick=120, channel=0, data=[76,0]),
   midi.NoteOnEvent(tick=0, channel=0, data=[77,73]),
   midi.NoteOnEvent(tick=120, channel=0, data=[77,0]),
   midi.NoteOnEvent(tick=0, channel=0, data=[76,80]),
   midi.NoteOnEvent(tick=120, channel=0, data=[76,0]),
   midi.NoteOnEvent(tick=0, channel=0, data=[77,75]),
   midi.NoteOnEvent(tick=120, channel=0, data=[77,0]),
   midi.NoteOnEvent(tick=0, channel=0, data=[79,82]),
   midi.NoteOnEvent(tick=120, channel=0, data=[79,0]),
   midi.NoteOnEvent(tick=0, channel=0, data=[77,79]),
   midi.NoteOnEvent(tick=120, channel=0, data=[77,0]),
   midi.NoteOnEvent(tick=0, channel=0, data=[75,79]),
   midi.NoteOnEvent(tick=120, channel=0, data=[75,0]),
   midi.NoteOnEvent(tick=0, channel=0, data=[74,79]),
   midi.NoteOnEvent(tick=120, channel=0, data=[74,0]),
   midi.NoteOnEvent(tick=0, channel=0, data=[72,79]),
   midi.NoteOnEvent(tick=120, channel=0, data=[72,0]),
   midi.NoteOnEvent(tick=0, channel=0, data=[74,79]),
   midi.NoteOnEvent(tick=120, channel=0, data=[74,0]),
   midi.NoteOnEvent(tick=0, channel=0, data=[75,78]),
   midi.NoteOnEvent(tick=120, channel=0, data=[75,0]),
   midi.NoteOnEvent(tick=0, channel=0, data=[77,79]),
   midi.NoteOnEvent(tick=120, channel=0, data=[77,0]),
   midi.NoteOnEvent(tick=0, channel=0, data=[79,81]),
   midi.NoteOnEvent(tick=120, channel=0, data=[79,0]),
   midi.NoteOnEvent(tick=0, channel=0, data=[81,84]),
   midi.NoteOnEvent(tick=120, channel=0, data=[81,0]),
   midi.NoteOnEvent(tick=0, channel=0, data=[82,85]),
   midi.NoteOnEvent(tick=120, channel=0, data=[82,0]),
   midi.NoteOnEvent(tick=0, channel=0, data=[83,90]),
   midi.NoteOnEvent(tick=120, channel=0, data=[83,0]),
   midi.NoteOnEvent(tick=0, channel=0, data=[84,94]),
   midi.NoteOnEvent(tick=120, channel=0, data=[84,0]),
   midi.NoteOnEvent(tick=300, channel=0, data=[101,70]),
   midi.NoteOnEvent(tick=60, channel=0, data=[101,0]),
   midi.NoteOnEvent(tick=0, channel=0, data=[89,93]),
   midi.NoteOnEvent(tick=120, channel=0, data=[89,0]),
   midi.NoteOnEvent(tick=600, channel=0, data=[74,58]),
   midi.NoteOnEvent(tick=0, channel=0, data=[77,69]),
   midi.NoteOnEvent(tick=120, channel=0, data=[77,0]),
   midi.NoteOnEvent(tick=0, channel=0, data=[74,0]),
   midi.NoteOnEvent(tick=120, channel=0, data=[74,63]),
   midi.NoteOnEvent(tick=0, channel=0, data=[77,75]),
   midi.NoteOnEvent(tick=480, channel=0, data=[77,0]),
   midi.NoteOnEvent(tick=0, channel=0, data=[74,0]),
   midi.NoteOnEvent(tick=0, channel=0, data=[74,69]),
   midi.NoteOnEvent(tick=0, channel=0, data=[70,58]),
   midi.NoteOnEvent(tick=210, channel=0, data=[70,0]),
   midi.NoteOnEvent(tick=0, channel=0, data=[74,0]),
   midi.NoteOnEvent(tick=30, channel=0, data=[74,53]),
   midi.NoteOnEvent(tick=0, channel=0, data=[77,63]),
   midi.NoteOnEvent(tick=180, channel=0, data=[77,0]),
   midi.NoteOnEvent(tick=0, channel=0, data=[74,0]),
   midi.NoteOnEvent(tick=60, channel=0, data=[77,74]),
   midi.NoteOnEvent(tick=0, channel=0, data=[74,62]),
   midi.NoteOnEvent(tick=480, channel=0, data=[74,0]),
   midi.NoteOnEvent(tick=0, channel=0, data=[77,0]),
   midi.NoteOnEvent(tick=0, channel=0, data=[70,58]),
   midi.NoteOnEvent(tick=0, channel=0, data=[74,69]),
   midi.NoteOnEvent(tick=210, channel=0, data=[74,0]),
   midi.NoteOnEvent(tick=0, channel=0, data=[70,0]),
   midi.NoteOnEvent(tick=30, channel=0, data=[74,53]),
   midi.NoteOnEvent(tick=0, channel=0, data=[77,63]),
   midi.NoteOnEvent(tick=240, channel=0, data=[77,0]),
   midi.NoteOnEvent(tick=0, channel=0, data=[74,0]),
   midi.NoteOnEvent(tick=0, channel=0, data=[72,56]),
   midi.NoteOnEvent(tick=0, channel=0, data=[75,67]),
   midi.NoteOnEvent(tick=480, channel=0, data=[75,0]),
   midi.NoteOnEvent(tick=0, channel=0, data=[72,0]),
   midi.NoteOnEvent(tick=0, channel=0, data=[72,61]),
   midi.NoteOnEvent(tick=0, channel=0, data=[69,51]),
   midi.NoteOnEvent(tick=240, channel=0, data=[69,0]),
   midi.NoteOnEvent(tick=0, channel=0, data=[72,0]),
   midi.NoteOnEvent(tick=0, channel=0, data=[72,50]),
   midi.NoteOnEvent(tick=0, channel=0, data=[75,59]),
   midi.NoteOnEvent(tick=240, channel=0, data=[75,0]),
   midi.NoteOnEvent(tick=0, channel=0, data=[72,0]),
   midi.NoteOnEvent(tick=0, channel=0, data=[74,62]),
   midi.NoteOnEvent(tick=0, channel=0, data=[70,52]),
   midi.NoteOnEvent(tick=480, channel=0, data=[70,0]),
   midi.NoteOnEvent(tick=0, channel=0, data=[74,0]),
   midi.NoteOnEvent(tick=240, channel=0, data=[77,69]),
   midi.NoteOnEvent(tick=0, channel=0, data=[74,58]),
   midi.NoteOnEvent(tick=120, channel=0, data=[74,0]),
   midi.NoteOnEvent(tick=0, channel=0, data=[77,0]),
   midi.NoteOnEvent(tick=120, channel=0, data=[74,63]),
   midi.NoteOnEvent(tick=0, channel=0, data=[77,75]),
   midi.NoteOnEvent(tick=480, channel=0, data=[77,0]),
   midi.NoteOnEvent(tick=0, channel=0, data=[74,0]),
   midi.NoteOnEvent(tick=0, channel=0, data=[74,69]),
   midi.NoteOnEvent(tick=0, channel=0, data=[70,58]),
   midi.NoteOnEvent(tick=210, channel=0, data=[70,0]),
   midi.NoteOnEvent(tick=0, channel=0, data=[74,0]),
   midi.NoteOnEvent(tick=30, channel=0, data=[74,53]),
   midi.NoteOnEvent(tick=0, channel=0, data=[77,63]),
   midi.NoteOnEvent(tick=120, channel=0, data=[77,0]),
   midi.NoteOnEvent(tick=0, channel=0, data=[74,0]),
   midi.NoteOnEvent(tick=120, channel=0, data=[74,62]),
   midi.NoteOnEvent(tick=0, channel=0, data=[77,74]),
   midi.NoteOnEvent(tick=480, channel=0, data=[77,0]),
   midi.NoteOnEvent(tick=0, channel=0, data=[74,0]),
   midi.NoteOnEvent(tick=0, channel=0, data=[70,58]),
   midi.NoteOnEvent(tick=0, channel=0, data=[74,69]),
   midi.NoteOnEvent(tick=210, channel=0, data=[74,0]),
   midi.NoteOnEvent(tick=0, channel=0, data=[70,0]),
   midi.NoteOnEvent(tick=30, channel=0, data=[77,63]),
   midi.NoteOnEvent(tick=0, channel=0, data=[74,53]),
   midi.NoteOnEvent(tick=240, channel=0, data=[74,0]),
   midi.NoteOnEvent(tick=0, channel=0, data=[77,0]),
   midi.NoteOnEvent(tick=0, channel=0, data=[72,56]),
   midi.NoteOnEvent(tick=0, channel=0, data=[75,67]),
   midi.NoteOnEvent(tick=480, channel=0, data=[75,0]),
   midi.NoteOnEvent(tick=0, channel=0, data=[72,0]),
   midi.NoteOnEvent(tick=0, channel=0, data=[72,61]),
   midi.NoteOnEvent(tick=0, channel=0, data=[69,51]),
   midi.NoteOnEvent(tick=240, channel=0, data=[69,0]),
   midi.NoteOnEvent(tick=0, channel=0, data=[72,0]),
   midi.NoteOnEvent(tick=0, channel=0, data=[72,50]),
   midi.NoteOnEvent(tick=0, channel=0, data=[75,59]),
   midi.NoteOnEvent(tick=240, channel=0, data=[75,0]),
   midi.NoteOnEvent(tick=0, channel=0, data=[72,0]),
   midi.NoteOnEvent(tick=0, channel=0, data=[70,52]),
   midi.NoteOnEvent(tick=0, channel=0, data=[74,62]),
   midi.NoteOnEvent(tick=480, channel=0, data=[74,0]),
   midi.NoteOnEvent(tick=0, channel=0, data=[70,0]),
   midi.NoteOnEvent(tick=240, channel=0, data=[70,52]),
   midi.NoteOnEvent(tick=0, channel=0, data=[74,62]),
   midi.NoteOnEvent(tick=240, channel=0, data=[74,0]),
   midi.NoteOnEvent(tick=0, channel=0, data=[70,0]),
   midi.NoteOnEvent(tick=0, channel=0, data=[69,56]),
   midi.NoteOnEvent(tick=0, channel=0, data=[72,67]),
   midi.NoteOnEvent(tick=480, channel=0, data=[72,0]),
   midi.NoteOnEvent(tick=0, channel=0, data=[69,0]),
   midi.NoteOnEvent(tick=0, channel=0, data=[69,52]),
   midi.NoteOnEvent(tick=0, channel=0, data=[72,62]),
   midi.NoteOnEvent(tick=240, channel=0, data=[72,0]),
   midi.NoteOnEvent(tick=0, channel=0, data=[69,0]),
   midi.NoteOnEvent(tick=0, channel=0, data=[72,62]),
   midi.NoteOnEvent(tick=0, channel=0, data=[69,52]),
   midi.NoteOnEvent(tick=240, channel=0, data=[69,0]),
   midi.NoteOnEvent(tick=0, channel=0, data=[72,0]),
   midi.NoteOnEvent(tick=0, channel=0, data=[72,57]),
   midi.NoteOnEvent(tick=0, channel=0, data=[75,68]),
   midi.NoteOnEvent(tick=480, channel=0, data=[75,0]),
   midi.NoteOnEvent(tick=0, channel=0, data=[72,0]),
   midi.NoteOnEvent(tick=0, channel=0, data=[75,64]),
   midi.NoteOnEvent(tick=0, channel=0, data=[72,54]),
   midi.NoteOnEvent(tick=240, channel=0, data=[72,0]),
   midi.NoteOnEvent(tick=0, channel=0, data=[75,0]),
   midi.NoteOnEvent(tick=0, channel=0, data=[72,61]),
   midi.NoteOnEvent(tick=0, channel=0, data=[75,72]),
   midi.NoteOnEvent(tick=240, channel=0, data=[75,0]),
   midi.NoteOnEvent(tick=0, channel=0, data=[72,0]),
   midi.NoteOnEvent(tick=0, channel=0, data=[70,68]),
   midi.NoteOnEvent(tick=0, channel=0, data=[74,80]),
   midi.NoteOnEvent(tick=480, channel=0, data=[74,0]),
   midi.NoteOnEvent(tick=0, channel=0, data=[70,0]),
   midi.NoteOnEvent(tick=0, channel=0, data=[70,67]),
   midi.NoteOnEvent(tick=0, channel=0, data=[74,79]),
   midi.NoteOnEvent(tick=240, channel=0, data=[74,0]),
   midi.NoteOnEvent(tick=0, channel=0, data=[70,0]),
   midi.NoteOnEvent(tick=0, channel=0, data=[74,82]),
   midi.NoteOnEvent(tick=0, channel=0, data=[70,69]),
   midi.NoteOnEvent(tick=240, channel=0, data=[70,0]),
   midi.NoteOnEvent(tick=0, channel=0, data=[74,0]),
   midi.NoteOnEvent(tick=0, channel=0, data=[70,78]),
   midi.NoteOnEvent(tick=0, channel=0, data=[79,86]),
   midi.NoteOnEvent(tick=0, channel=0, data=[75,86]),
   midi.NoteOnEvent(tick=720, channel=0, data=[75,0]),
   midi.NoteOnEvent(tick=0, channel=0, data=[79,0]),
   midi.NoteOnEvent(tick=0, channel=0, data=[70,0]),
   midi.NoteOnEvent(tick=0, channel=0, data=[79,81]),
   midi.NoteOnEvent(tick=0, channel=0, data=[75,81]),
   midi.NoteOnEvent(tick=0, channel=0, data=[70,72]),
   midi.NoteOnEvent(tick=240, channel=0, data=[70,0]),
   midi.NoteOnEvent(tick=0, channel=0, data=[75,0]),
   midi.NoteOnEvent(tick=0, channel=0, data=[79,0]),
   midi.NoteOnEvent(tick=0, channel=0, data=[70,78]),
   midi.NoteOnEvent(tick=0, channel=0, data=[74,86]),
   midi.NoteOnEvent(tick=0, channel=0, data=[77,86]),
   midi.NoteOnEvent(tick=480, channel=0, data=[77,0]),
   midi.NoteOnEvent(tick=0, channel=0, data=[74,0]),
   midi.NoteOnEvent(tick=0, channel=0, data=[70,0]),
   midi.NoteOnEvent(tick=0, channel=0, data=[74,82]),
   midi.NoteOnEvent(tick=0, channel=0, data=[70,73]),
   midi.NoteOnEvent(tick=0, channel=0, data=[77,82]),
   midi.NoteOnEvent(tick=240, channel=0, data=[77,0]),
   midi.NoteOnEvent(tick=0, channel=0, data=[70,0]),
   midi.NoteOnEvent(tick=0, channel=0, data=[74,0]),
   midi.NoteOnEvent(tick=0, channel=0, data=[70,70]),
   midi.NoteOnEvent(tick=0, channel=0, data=[77,79]),
   midi.NoteOnEvent(tick=0, channel=0, data=[74,79]),
   midi.NoteOnEvent(tick=240, channel=0, data=[74,0]),
   midi.NoteOnEvent(tick=0, channel=0, data=[77,0]),
   midi.NoteOnEvent(tick=0, channel=0, data=[70,0]),
   midi.NoteOnEvent(tick=0, channel=0, data=[77,92]),
   midi.NoteOnEvent(tick=0, channel=0, data=[82,92]),
   midi.NoteOnEvent(tick=0, channel=0, data=[74,83]),
   midi.NoteOnEvent(tick=0, channel=0, data=[70,83]),
   midi.NoteOnEvent(tick=480, channel=0, data=[70,0]),
   midi.NoteOnEvent(tick=0, channel=0, data=[77,0]),
   midi.NoteOnEvent(tick=0, channel=0, data=[82,0]),
   midi.NoteOnEvent(tick=0, channel=0, data=[74,0]),
   midi.NoteOnEvent(tick=0, channel=0, data=[70,74]),
   midi.NoteOnEvent(tick=0, channel=0, data=[74,83]),
   midi.NoteOnEvent(tick=0, channel=0, data=[77,83]),
   midi.NoteOnEvent(tick=240, channel=0, data=[77,0]),
   midi.NoteOnEvent(tick=0, channel=0, data=[74,0]),
   midi.NoteOnEvent(tick=0, channel=0, data=[70,0]),
   midi.NoteOnEvent(tick=0, channel=0, data=[70,79]),
   midi.NoteOnEvent(tick=0, channel=0, data=[65,70]),
   midi.NoteOnEvent(tick=0, channel=0, data=[74,79]),
   midi.NoteOnEvent(tick=240, channel=0, data=[74,0]),
   midi.NoteOnEvent(tick=0, channel=0, data=[65,0]),
   midi.NoteOnEvent(tick=0, channel=0, data=[70,0]),
   midi.NoteOnEvent(tick=0, channel=0, data=[67,77]),
   midi.NoteOnEvent(tick=0, channel=0, data=[75,85]),
   midi.NoteOnEvent(tick=0, channel=0, data=[72,85]),
   midi.NoteOnEvent(tick=480, channel=0, data=[72,0]),
   midi.NoteOnEvent(tick=0, channel=0, data=[75,0]),
   midi.NoteOnEvent(tick=0, channel=0, data=[67,0]),
   midi.NoteOnEvent(tick=0, channel=0, data=[69,80]),
   midi.NoteOnEvent(tick=0, channel=0, data=[63,71]),
   midi.NoteOnEvent(tick=0, channel=0, data=[72,80]),
   midi.NoteOnEvent(tick=240, channel=0, data=[72,0]),
   midi.NoteOnEvent(tick=0, channel=0, data=[63,0]),
   midi.NoteOnEvent(tick=0, channel=0, data=[69,0]),
   midi.NoteOnEvent(tick=0, channel=0, data=[60,63]),
   midi.NoteOnEvent(tick=0, channel=0, data=[69,71]),
   midi.NoteOnEvent(tick=0, channel=0, data=[63,71]),
   midi.NoteOnEvent(tick=240, channel=0, data=[63,0]),
   midi.NoteOnEvent(tick=0, channel=0, data=[69,0]),
   midi.NoteOnEvent(tick=0, channel=0, data=[60,0]),
   midi.NoteOnEvent(tick=0, channel=0, data=[62,62]),
   midi.NoteOnEvent(tick=0, channel=0, data=[65,69]),
   midi.NoteOnEvent(tick=0, channel=0, data=[70,69]),
   midi.NoteOnEvent(tick=480, channel=0, data=[70,0]),
   midi.NoteOnEvent(tick=0, channel=0, data=[65,0]),
   midi.NoteOnEvent(tick=0, channel=0, data=[62,0]),
   midi.NoteOnEvent(tick=480, channel=0, data=[63,49]),
   midi.NoteOnEvent(tick=0, channel=0, data=[60,49]),
   midi.NoteOnEvent(tick=0, channel=0, data=[55,49]),
   midi.NoteOnEvent(tick=480, channel=0, data=[55,0]),
   midi.NoteOnEvent(tick=0, channel=0, data=[60,0]),
   midi.NoteOnEvent(tick=0, channel=0, data=[63,0]),
   midi.NoteOnEvent(tick=0, channel=0, data=[60,42]),
   midi.NoteOnEvent(tick=0, channel=0, data=[57,42]),
   midi.NoteOnEvent(tick=240, channel=0, data=[57,0]),
   midi.NoteOnEvent(tick=0, channel=0, data=[60,0]),
   midi.NoteOnEvent(tick=0, channel=0, data=[53,42]),
   midi.NoteOnEvent(tick=0, channel=0, data=[57,42]),
   midi.NoteOnEvent(tick=240, channel=0, data=[57,0]),
   midi.NoteOnEvent(tick=0, channel=0, data=[53,0]),
   midi.NoteOnEvent(tick=0, channel=0, data=[58,49]),
   midi.NoteOnEvent(tick=0, channel=0, data=[53,49]),
   midi.NoteOnEvent(tick=480, channel=0, data=[53,0]),
   midi.NoteOnEvent(tick=0, channel=0, data=[58,0]),
   midi.NoteOnEvent(tick=480, channel=0, data=[77,56]),
   midi.NoteOnEvent(tick=0, channel=0, data=[70,47]),
   midi.NoteOnEvent(tick=480, channel=0, data=[70,0]),
   midi.NoteOnEvent(tick=0, channel=0, data=[77,0]),
   midi.NoteOnEvent(tick=0, channel=0, data=[70,43]),
   midi.NoteOnEvent(tick=0, channel=0, data=[74,51]),
   midi.NoteOnEvent(tick=240, channel=0, data=[74,0]),
   midi.NoteOnEvent(tick=0, channel=0, data=[70,0]),
   midi.NoteOnEvent(tick=0, channel=0, data=[70,45]),
   midi.NoteOnEvent(tick=0, channel=0, data=[77,53]),
   midi.NoteOnEvent(tick=240, channel=0, data=[77,0]),
   midi.NoteOnEvent(tick=0, channel=0, data=[70,0]),
   midi.NoteOnEvent(tick=0, channel=0, data=[70,50]),
   midi.NoteOnEvent(tick=0, channel=0, data=[80,59]),
   midi.NoteOnEvent(tick=480, channel=0, data=[80,0]),
   midi.NoteOnEvent(tick=0, channel=0, data=[70,0]),
   midi.NoteOnEvent(tick=0, channel=0, data=[74,57]),
   midi.NoteOnEvent(tick=0, channel=0, data=[77,60]),
   midi.NoteOnEvent(tick=240, channel=0, data=[77,0]),
   midi.NoteOnEvent(tick=0, channel=0, data=[74,0]),
   midi.NoteOnEvent(tick=0, channel=0, data=[80,63]),
   midi.NoteOnEvent(tick=0, channel=0, data=[74,53]),
   midi.NoteOnEvent(tick=240, channel=0, data=[74,0]),
   midi.NoteOnEvent(tick=0, channel=0, data=[80,0]),
   midi.NoteOnEvent(tick=0, channel=0, data=[84,68]),
   midi.NoteOnEvent(tick=0, channel=0, data=[74,57]),
   midi.NoteOnEvent(tick=480, channel=0, data=[74,0]),
   midi.NoteOnEvent(tick=0, channel=0, data=[84,0]),
   midi.NoteOnEvent(tick=0, channel=0, data=[83,67]),
   midi.NoteOnEvent(tick=0, channel=0, data=[74,56]),
   midi.NoteOnEvent(tick=480, channel=0, data=[74,0]),
   midi.NoteOnEvent(tick=0, channel=0, data=[83,0]),
   midi.NoteOnEvent(tick=0, channel=0, data=[82,67]),
   midi.NoteOnEvent(tick=60, channel=0, data=[82,0]),
   midi.NoteOnEvent(tick=0, channel=0, data=[86,56]),
   midi.NoteOnEvent(tick=60, channel=0, data=[86,0]),
   midi.NoteOnEvent(tick=0, channel=0, data=[89,62]),
   midi.NoteOnEvent(tick=60, channel=0, data=[89,0]),
   midi.NoteOnEvent(tick=0, channel=0, data=[92,61]),
   midi.NoteOnEvent(tick=60, channel=0, data=[92,0]),
   midi.NoteOnEvent(tick=0, channel=0, data=[94,67]),
   midi.NoteOnEvent(tick=60, channel=0, data=[94,0]),
   midi.NoteOnEvent(tick=0, channel=0, data=[92,62]),
   midi.NoteOnEvent(tick=60, channel=0, data=[92,0]),
   midi.NoteOnEvent(tick=0, channel=0, data=[89,66]),
   midi.NoteOnEvent(tick=60, channel=0, data=[89,0]),
   midi.NoteOnEvent(tick=0, channel=0, data=[86,61]),
   midi.NoteOnEvent(tick=60, channel=0, data=[86,0]),
   midi.NoteOnEvent(tick=0, channel=0, data=[82,63]),
   midi.NoteOnEvent(tick=60, channel=0, data=[82,0]),
   midi.NoteOnEvent(tick=0, channel=0, data=[80,60]),
   midi.NoteOnEvent(tick=60, channel=0, data=[80,0]),
   midi.NoteOnEvent(tick=0, channel=0, data=[77,62]),
   midi.NoteOnEvent(tick=60, channel=0, data=[77,0]),
   midi.NoteOnEvent(tick=0, channel=0, data=[74,57]),
   midi.NoteOnEvent(tick=60, channel=0, data=[74,0]),
   midi.NoteOnEvent(tick=0, channel=0, data=[70,60]),
   midi.NoteOnEvent(tick=34, channel=0, data=[70,0]),
   midi.NoteOnEvent(tick=0, channel=0, data=[68,59]),
   midi.NoteOnEvent(tick=34, channel=0, data=[68,0]),
   midi.NoteOnEvent(tick=0, channel=0, data=[65,58]),
   midi.NoteOnEvent(tick=34, channel=0, data=[65,0]),
   midi.NoteOnEvent(tick=0, channel=0, data=[62,58]),
   midi.NoteOnEvent(tick=34, channel=0, data=[62,0]),
   midi.NoteOnEvent(tick=0, channel=0, data=[58,57]),
   midi.NoteOnEvent(tick=34, channel=0, data=[58,0]),
   midi.NoteOnEvent(tick=0, channel=0, data=[56,56]),
   midi.NoteOnEvent(tick=34, channel=0, data=[56,0]),
   midi.NoteOnEvent(tick=0, channel=0, data=[53,56]),
   midi.NoteOnEvent(tick=46, channel=0, data=[53,0]),
   midi.NoteOnEvent(tick=3830, channel=0, data=[63,48]),
   midi.NoteOnEvent(tick=0, channel=0, data=[67,48]),
   midi.NoteOnEvent(tick=0, channel=0, data=[70,48]),
   midi.NoteOnEvent(tick=960, channel=0, data=[70,0]),
   midi.NoteOnEvent(tick=0, channel=0, data=[67,0]),
   midi.NoteOnEvent(tick=0, channel=0, data=[63,0]),
   midi.NoteOnEvent(tick=0, channel=0, data=[72,47]),
   midi.NoteOnEvent(tick=0, channel=0, data=[63,47]),
   midi.NoteOnEvent(tick=0, channel=0, data=[68,47]),
   midi.NoteOnEvent(tick=960, channel=0, data=[68,0]),
   midi.NoteOnEvent(tick=0, channel=0, data=[63,0]),
   midi.NoteOnEvent(tick=0, channel=0, data=[72,0]),
   midi.NoteOnEvent(tick=0, channel=0, data=[63,48]),
   midi.NoteOnEvent(tick=0, channel=0, data=[67,48]),
   midi.NoteOnEvent(tick=0, channel=0, data=[70,48]),
   midi.NoteOnEvent(tick=720, channel=0, data=[70,0]),
   midi.NoteOnEvent(tick=0, channel=0, data=[67,0]),
   midi.NoteOnEvent(tick=0, channel=0, data=[63,0]),
   midi.NoteOnEvent(tick=0, channel=0, data=[68,38]),
   midi.NoteOnEvent(tick=0, channel=0, data=[65,38]),
   midi.NoteOnEvent(tick=240, channel=0, data=[65,0]),
   midi.NoteOnEvent(tick=0, channel=0, data=[68,0]),
   midi.NoteOnEvent(tick=0, channel=0, data=[63,48]),
   midi.NoteOnEvent(tick=0, channel=0, data=[67,48]),
   midi.NoteOnEvent(tick=480, channel=0, data=[67,0]),
   midi.NoteOnEvent(tick=0, channel=0, data=[63,0]),
   midi.NoteOnEvent(tick=0, channel=0, data=[65,51]),
   midi.NoteOnEvent(tick=0, channel=0, data=[68,51]),
   midi.NoteOnEvent(tick=480, channel=0, data=[68,0]),
   midi.NoteOnEvent(tick=0, channel=0, data=[65,0]),
   midi.NoteOnEvent(tick=0, channel=0, data=[70,57]),
   midi.NoteOnEvent(tick=0, channel=0, data=[67,57]),
   midi.NoteOnEvent(tick=0, channel=0, data=[63,57]),
   midi.NoteOnEvent(tick=960, channel=0, data=[63,0]),
   midi.NoteOnEvent(tick=0, channel=0, data=[67,0]),
   midi.NoteOnEvent(tick=0, channel=0, data=[70,0]),
   midi.NoteOnEvent(tick=0, channel=0, data=[63,45]),
   midi.NoteOnEvent(tick=0, channel=0, data=[68,45]),
   midi.NoteOnEvent(tick=0, channel=0, data=[72,45]),
   midi.NoteOnEvent(tick=960, channel=0, data=[72,0]),
   midi.NoteOnEvent(tick=0, channel=0, data=[68,0]),
   midi.NoteOnEvent(tick=0, channel=0, data=[63,0]),
   midi.NoteOnEvent(tick=0, channel=0, data=[67,50]),
   midi.NoteOnEvent(tick=0, channel=0, data=[63,50]),
   midi.NoteOnEvent(tick=0, channel=0, data=[70,50]),
   midi.NoteOnEvent(tick=720, channel=0, data=[70,0]),
   midi.NoteOnEvent(tick=0, channel=0, data=[63,0]),
   midi.NoteOnEvent(tick=0, channel=0, data=[67,0]),
   midi.NoteOnEvent(tick=0, channel=0, data=[65,40]),
   midi.NoteOnEvent(tick=0, channel=0, data=[68,40]),
   midi.NoteOnEvent(tick=240, channel=0, data=[68,0]),
   midi.NoteOnEvent(tick=0, channel=0, data=[65,0]),
   midi.NoteOnEvent(tick=0, channel=0, data=[63,50]),
   midi.NoteOnEvent(tick=0, channel=0, data=[67,50]),
   midi.NoteOnEvent(tick=480, channel=0, data=[67,0]),
   midi.NoteOnEvent(tick=0, channel=0, data=[63,0]),
   midi.NoteOnEvent(tick=0, channel=0, data=[68,55]),
   midi.NoteOnEvent(tick=0, channel=0, data=[65,55]),
   midi.NoteOnEvent(tick=480, channel=0, data=[65,0]),
   midi.NoteOnEvent(tick=0, channel=0, data=[68,0]),
   midi.NoteOnEvent(tick=0, channel=0, data=[63,51]),
   midi.NoteOnEvent(tick=0, channel=0, data=[67,51]),
   midi.NoteOnEvent(tick=0, channel=0, data=[70,51]),
   midi.NoteOnEvent(tick=960, channel=0, data=[70,0]),
   midi.NoteOnEvent(tick=0, channel=0, data=[67,0]),
   midi.NoteOnEvent(tick=0, channel=0, data=[63,0]),
   midi.NoteOnEvent(tick=0, channel=0, data=[65,62]),
   midi.NoteOnEvent(tick=0, channel=0, data=[58,62]),
   midi.NoteOnEvent(tick=0, channel=0, data=[70,62]),
   midi.NoteOnEvent(tick=960, channel=0, data=[70,0]),
   midi.NoteOnEvent(tick=0, channel=0, data=[58,0]),
   midi.NoteOnEvent(tick=0, channel=0, data=[65,0]),
   midi.NoteOnEvent(tick=0, channel=0, data=[65,68]),
   midi.NoteOnEvent(tick=0, channel=0, data=[72,68]),
   midi.NoteOnEvent(tick=0, channel=0, data=[69,68]),
   midi.NoteOnEvent(tick=960, channel=0, data=[69,0]),
   midi.NoteOnEvent(tick=0, channel=0, data=[72,0]),
   midi.NoteOnEvent(tick=0, channel=0, data=[65,0]),
   midi.NoteOnEvent(tick=0, channel=0, data=[70,71]),
   midi.NoteOnEvent(tick=0, channel=0, data=[65,71]),
   midi.NoteOnEvent(tick=0, channel=0, data=[74,71]),
   midi.NoteOnEvent(tick=480, channel=0, data=[74,0]),
   midi.NoteOnEvent(tick=0, channel=0, data=[65,0]),
   midi.NoteOnEvent(tick=0, channel=0, data=[70,0]),
   midi.NoteOnEvent(tick=0, channel=0, data=[67,75]),
   midi.NoteOnEvent(tick=0, channel=0, data=[75,75]),
   midi.NoteOnEvent(tick=0, channel=0, data=[72,75]),
   midi.NoteOnEvent(tick=480, channel=0, data=[72,0]),
   midi.NoteOnEvent(tick=0, channel=0, data=[75,0]),
   midi.NoteOnEvent(tick=0, channel=0, data=[67,0]),
   midi.NoteOnEvent(tick=0, channel=0, data=[65,80]),
   midi.NoteOnEvent(tick=0, channel=0, data=[70,80]),
   midi.NoteOnEvent(tick=0, channel=0, data=[74,80]),
   midi.NoteOnEvent(tick=960, channel=0, data=[74,0]),
   midi.NoteOnEvent(tick=0, channel=0, data=[70,0]),
   midi.NoteOnEvent(tick=0, channel=0, data=[65,0]),
   midi.NoteOnEvent(tick=0, channel=0, data=[72,73]),
   midi.NoteOnEvent(tick=0, channel=0, data=[69,73]),
   midi.NoteOnEvent(tick=0, channel=0, data=[63,73]),
   midi.NoteOnEvent(tick=960, channel=0, data=[63,0]),
   midi.NoteOnEvent(tick=0, channel=0, data=[69,0]),
   midi.NoteOnEvent(tick=0, channel=0, data=[72,0]),
   midi.NoteOnEvent(tick=0, channel=0, data=[65,71]),
   midi.NoteOnEvent(tick=0, channel=0, data=[62,71]),
   midi.NoteOnEvent(tick=0, channel=0, data=[70,71]),
   midi.NoteOnEvent(tick=1920, channel=0, data=[70,0]),
   midi.NoteOnEvent(tick=0, channel=0, data=[62,0]),
   midi.NoteOnEvent(tick=0, channel=0, data=[65,0]),
   midi.NoteOnEvent(tick=0, channel=0, data=[58,41]),
   midi.NoteOnEvent(tick=0, channel=0, data=[65,41]),
   midi.NoteOnEvent(tick=0, channel=0, data=[62,41]),
   midi.NoteOnEvent(tick=720, channel=0, data=[58,0]),
   midi.NoteOnEvent(tick=0, channel=0, data=[58,37]),
   midi.NoteOnEvent(tick=0, channel=0, data=[63,37]),
   midi.NoteOnEvent(tick=0, channel=0, data=[67,37]),
   midi.NoteOnEvent(tick=20, channel=0, data=[62,0]),
   midi.NoteOnEvent(tick=0, channel=0, data=[65,0]),
   midi.NoteOnEvent(tick=220, channel=0, data=[58,0]),
   midi.NoteOnEvent(tick=0, channel=0, data=[65,41]),
   midi.NoteOnEvent(tick=0, channel=0, data=[62,41]),
   midi.NoteOnEvent(tick=0, channel=0, data=[58,41]),
   midi.NoteOnEvent(tick=20, channel=0, data=[63,0]),
   midi.NoteOnEvent(tick=0, channel=0, data=[67,0]),
   midi.NoteOnEvent(tick=460, channel=0, data=[58,0]),
   midi.NoteOnEvent(tick=0, channel=0, data=[58,41]),
   midi.NoteOnEvent(tick=0, channel=0, data=[63,41]),
   midi.NoteOnEvent(tick=0, channel=0, data=[67,41]),
   midi.NoteOnEvent(tick=20, channel=0, data=[65,0]),
   midi.NoteOnEvent(tick=0, channel=0, data=[62,0]),
   midi.NoteOnEvent(tick=460, channel=0, data=[63,0]),
   midi.NoteOnEvent(tick=0, channel=0, data=[58,0]),
   midi.NoteOnEvent(tick=0, channel=0, data=[67,0]),
   midi.NoteOnEvent(tick=0, channel=0, data=[68,41]),
   midi.NoteOnEvent(tick=0, channel=0, data=[58,41]),
   midi.NoteOnEvent(tick=0, channel=0, data=[65,41]),
   midi.NoteOnEvent(tick=720, channel=0, data=[58,0]),
   midi.NoteOnEvent(tick=0, channel=0, data=[58,35]),
   midi.NoteOnEvent(tick=0, channel=0, data=[67,35]),
   midi.NoteOnEvent(tick=0, channel=0, data=[70,35]),
   midi.NoteOnEvent(tick=20, channel=0, data=[65,0]),
   midi.NoteOnEvent(tick=0, channel=0, data=[68,0]),
   midi.NoteOnEvent(tick=220, channel=0, data=[58,0]),
   midi.NoteOnEvent(tick=0, channel=0, data=[68,41]),
   midi.NoteOnEvent(tick=0, channel=0, data=[58,41]),
   midi.NoteOnEvent(tick=0, channel=0, data=[65,41]),
   midi.NoteOnEvent(tick=20, channel=0, data=[67,0]),
   midi.NoteOnEvent(tick=0, channel=0, data=[70,0]),
   midi.NoteOnEvent(tick=940, channel=0, data=[58,0]),
   midi.NoteOnEvent(tick=0, channel=0, data=[68,0]),
   midi.NoteOnEvent(tick=0, channel=0, data=[65,0]),
   midi.NoteOnEvent(tick=0, channel=0, data=[58,48]),
   midi.NoteOnEvent(tick=0, channel=0, data=[63,48]),
   midi.NoteOnEvent(tick=0, channel=0, data=[67,48]),
   midi.NoteOnEvent(tick=720, channel=0, data=[58,0]),
   midi.NoteOnEvent(tick=0, channel=0, data=[68,40]),
   midi.NoteOnEvent(tick=0, channel=0, data=[58,40]),
   midi.NoteOnEvent(tick=0, channel=0, data=[65,40]),
   midi.NoteOnEvent(tick=20, channel=0, data=[67,0]),
   midi.NoteOnEvent(tick=0, channel=0, data=[63,0]),
   midi.NoteOnEvent(tick=220, channel=0, data=[58,0]),
   midi.NoteOnEvent(tick=0, channel=0, data=[58,52]),
   midi.NoteOnEvent(tick=0, channel=0, data=[67,52]),
   midi.NoteOnEvent(tick=4, channel=0, data=[63,52]),
   midi.NoteOnEvent(tick=16, channel=0, data=[68,0]),
   midi.NoteOnEvent(tick=0, channel=0, data=[65,0]),
   midi.NoteOnEvent(tick=460, channel=0, data=[58,0]),
   midi.NoteOnEvent(tick=0, channel=0, data=[68,52]),
   midi.NoteOnEvent(tick=0, channel=0, data=[65,52]),
   midi.NoteOnEvent(tick=0, channel=0, data=[58,52]),
   midi.NoteOnEvent(tick=20, channel=0, data=[67,0]),
   midi.NoteOnEvent(tick=4, channel=0, data=[63,0]),
   midi.NoteOnEvent(tick=456, channel=0, data=[65,0]),
   midi.NoteOnEvent(tick=0, channel=0, data=[68,0]),
   midi.NoteOnEvent(tick=0, channel=0, data=[58,0]),
   midi.NoteOnEvent(tick=0, channel=0, data=[63,57]),
   midi.NoteOnEvent(tick=0, channel=0, data=[67,57]),
   midi.NoteOnEvent(tick=0, channel=0, data=[70,57]),
   midi.NoteOnEvent(tick=720, channel=0, data=[63,0]),
   midi.NoteOnEvent(tick=0, channel=0, data=[68,45]),
   midi.NoteOnEvent(tick=0, channel=0, data=[63,45]),
   midi.NoteOnEvent(tick=0, channel=0, data=[72,45]),
   midi.NoteOnEvent(tick=20, channel=0, data=[70,0]),
   midi.NoteOnEvent(tick=0, channel=0, data=[67,0]),
   midi.NoteOnEvent(tick=220, channel=0, data=[63,0]),
   midi.NoteOnEvent(tick=0, channel=0, data=[63,57]),
   midi.NoteOnEvent(tick=0, channel=0, data=[70,57]),
   midi.NoteOnEvent(tick=0, channel=0, data=[67,57]),
   midi.NoteOnEvent(tick=20, channel=0, data=[68,0]),
   midi.NoteOnEvent(tick=0, channel=0, data=[72,0]),
   midi.NoteOnEvent(tick=940, channel=0, data=[70,0]),
   midi.NoteOnEvent(tick=0, channel=0, data=[63,0]),
   midi.NoteOnEvent(tick=0, channel=0, data=[67,0]),
   midi.NoteOnEvent(tick=0, channel=0, data=[70,79]),
   midi.NoteOnEvent(tick=0, channel=0, data=[67,79]),
   midi.NoteOnEvent(tick=0, channel=0, data=[63,79]),
   midi.NoteOnEvent(tick=0, channel=0, data=[75,89]),
   midi.NoteOnEvent(tick=480, channel=0, data=[75,0]),
   midi.NoteOnEvent(tick=0, channel=0, data=[70,0]),
   midi.NoteOnEvent(tick=0, channel=0, data=[67,0]),
   midi.NoteOnEvent(tick=0, channel=0, data=[63,0]),
   midi.NoteOnEvent(tick=0, channel=0, data=[63,78]),
   midi.NoteOnEvent(tick=0, channel=0, data=[74,86]),
   midi.NoteOnEvent(tick=0, channel=0, data=[70,78]),
   midi.NoteOnEvent(tick=480, channel=0, data=[70,0]),
   midi.NoteOnEvent(tick=0, channel=0, data=[74,0]),
   midi.NoteOnEvent(tick=0, channel=0, data=[63,0]),
   midi.NoteOnEvent(tick=0, channel=0, data=[63,74]),
   midi.NoteOnEvent(tick=0, channel=0, data=[68,83]),
   midi.NoteOnEvent(tick=0, channel=0, data=[72,74]),
   midi.NoteOnEvent(tick=480, channel=0, data=[72,0]),
   midi.NoteOnEvent(tick=0, channel=0, data=[68,0]),
   midi.NoteOnEvent(tick=0, channel=0, data=[63,0]),
   midi.NoteOnEvent(tick=0, channel=0, data=[70,82]),
   midi.NoteOnEvent(tick=0, channel=0, data=[67,73]),
   midi.NoteOnEvent(tick=0, channel=0, data=[63,73]),
   midi.NoteOnEvent(tick=480, channel=0, data=[63,0]),
   midi.NoteOnEvent(tick=0, channel=0, data=[67,0]),
   midi.NoteOnEvent(tick=0, channel=0, data=[70,0]),
   midi.NoteOnEvent(tick=0, channel=0, data=[63,83]),
   midi.NoteOnEvent(tick=0, channel=0, data=[72,83]),
   midi.NoteOnEvent(tick=0, channel=0, data=[75,93]),
   midi.NoteOnEvent(tick=480, channel=0, data=[75,0]),
   midi.NoteOnEvent(tick=0, channel=0, data=[72,0]),
   midi.NoteOnEvent(tick=0, channel=0, data=[63,0]),
   midi.NoteOnEvent(tick=0, channel=0, data=[72,80]),
   midi.NoteOnEvent(tick=0, channel=0, data=[63,71]),
   midi.NoteOnEvent(tick=0, channel=0, data=[68,71]),
   midi.NoteOnEvent(tick=480, channel=0, data=[68,0]),
   midi.NoteOnEvent(tick=0, channel=0, data=[63,0]),
   midi.NoteOnEvent(tick=0, channel=0, data=[72,0]),
   midi.NoteOnEvent(tick=0, channel=0, data=[60,72]),
   midi.NoteOnEvent(tick=0, channel=0, data=[67,72]),
   midi.NoteOnEvent(tick=0, channel=0, data=[70,81]),
   midi.NoteOnEvent(tick=480, channel=0, data=[70,0]),
   midi.NoteOnEvent(tick=0, channel=0, data=[67,0]),
   midi.NoteOnEvent(tick=0, channel=0, data=[60,0]),
   midi.NoteOnEvent(tick=0, channel=0, data=[68,74]),
   midi.NoteOnEvent(tick=0, channel=0, data=[60,67]),
   midi.NoteOnEvent(tick=0, channel=0, data=[65,67]),
   midi.NoteOnEvent(tick=480, channel=0, data=[65,0]),
   midi.NoteOnEvent(tick=0, channel=0, data=[60,0]),
   midi.NoteOnEvent(tick=0, channel=0, data=[68,0]),
   midi.NoteOnEvent(tick=0, channel=0, data=[58,79]),
   midi.NoteOnEvent(tick=0, channel=0, data=[63,79]),
   midi.NoteOnEvent(tick=0, channel=0, data=[67,89]),
   midi.NoteOnEvent(tick=960, channel=0, data=[67,0]),
   midi.NoteOnEvent(tick=0, channel=0, data=[63,0]),
   midi.NoteOnEvent(tick=0, channel=0, data=[58,0]),
   midi.NoteOnEvent(tick=0, channel=0, data=[62,59]),
   midi.NoteOnEvent(tick=0, channel=0, data=[65,66]),
   midi.NoteOnEvent(tick=0, channel=0, data=[58,66]),
   midi.NoteOnEvent(tick=0, channel=0, data=[56,58]),
   midi.NoteOnEvent(tick=960, channel=0, data=[56,0]),
   midi.NoteOnEvent(tick=0, channel=0, data=[62,0]),
   midi.NoteOnEvent(tick=0, channel=0, data=[65,0]),
   midi.NoteOnEvent(tick=0, channel=0, data=[58,0]),
   midi.NoteOnEvent(tick=0, channel=0, data=[55,59]),
   midi.NoteOnEvent(tick=0, channel=0, data=[63,67]),
   midi.NoteOnEvent(tick=0, channel=0, data=[58,59]),
   midi.NoteOnEvent(tick=480, channel=0, data=[58,0]),
   midi.NoteOnEvent(tick=0, channel=0, data=[63,0]),
   midi.NoteOnEvent(tick=0, channel=0, data=[55,0]),
   midi.NoteOnEvent(tick=0, channel=0, data=[82,61]),
   midi.NoteOnEvent(tick=120, channel=0, data=[82,0]),
   midi.NoteOnEvent(tick=0, channel=0, data=[70,50]),
   midi.NoteOnEvent(tick=120, channel=0, data=[70,0]),
   midi.NoteOnEvent(tick=0, channel=0, data=[82,66]),
   midi.NoteOnEvent(tick=120, channel=0, data=[82,0]),
   midi.NoteOnEvent(tick=0, channel=0, data=[70,53]),
   midi.NoteOnEvent(tick=120, channel=0, data=[70,0]),
   midi.NoteOnEvent(tick=0, channel=0, data=[82,67]),
   midi.NoteOnEvent(tick=120, channel=0, data=[82,0]),
   midi.NoteOnEvent(tick=0, channel=0, data=[70,53]),
   midi.NoteOnEvent(tick=120, channel=0, data=[70,0]),
   midi.NoteOnEvent(tick=0, channel=0, data=[82,70]),
   midi.NoteOnEvent(tick=120, channel=0, data=[82,0]),
   midi.NoteOnEvent(tick=0, channel=0, data=[70,57]),
   midi.NoteOnEvent(tick=120, channel=0, data=[70,0]),
   midi.NoteOnEvent(tick=0, channel=0, data=[82,71]),
   midi.NoteOnEvent(tick=120, channel=0, data=[82,0]),
   midi.NoteOnEvent(tick=0, channel=0, data=[70,60]),
   midi.NoteOnEvent(tick=120, channel=0, data=[70,0]),
   midi.NoteOnEvent(tick=0, channel=0, data=[82,74]),
   midi.NoteOnEvent(tick=120, channel=0, data=[82,0]),
   midi.NoteOnEvent(tick=0, channel=0, data=[70,62]),
   midi.NoteOnEvent(tick=120, channel=0, data=[70,0]),
   midi.NoteOnEvent(tick=0, channel=0, data=[75,75]),
   midi.NoteOnEvent(tick=0, channel=0, data=[82,84]),
   midi.NoteOnEvent(tick=0, channel=0, data=[79,75]),
   midi.NoteOnEvent(tick=0, channel=0, data=[70,75]),
   midi.NoteOnEvent(tick=960, channel=0, data=[70,0]),
   midi.NoteOnEvent(tick=0, channel=0, data=[75,0]),
   midi.NoteOnEvent(tick=0, channel=0, data=[82,0]),
   midi.NoteOnEvent(tick=0, channel=0, data=[79,0]),
   midi.NoteOnEvent(tick=0, channel=0, data=[80,74]),
   midi.NoteOnEvent(tick=0, channel=0, data=[84,83]),
   midi.NoteOnEvent(tick=0, channel=0, data=[75,74]),
   midi.NoteOnEvent(tick=0, channel=0, data=[72,74]),
   midi.NoteOnEvent(tick=960, channel=0, data=[72,0]),
   midi.NoteOnEvent(tick=0, channel=0, data=[80,0]),
   midi.NoteOnEvent(tick=0, channel=0, data=[84,0]),
   midi.NoteOnEvent(tick=0, channel=0, data=[75,0]),
   midi.NoteOnEvent(tick=0, channel=0, data=[70,75]),
   midi.NoteOnEvent(tick=0, channel=0, data=[82,84]),
   midi.NoteOnEvent(tick=0, channel=0, data=[79,75]),
   midi.NoteOnEvent(tick=0, channel=0, data=[75,84]),
   midi.NoteOnEvent(tick=720, channel=0, data=[75,0]),
   midi.NoteOnEvent(tick=0, channel=0, data=[70,0]),
   midi.NoteOnEvent(tick=0, channel=0, data=[82,0]),
   midi.NoteOnEvent(tick=0, channel=0, data=[79,0]),
   midi.NoteOnEvent(tick=0, channel=0, data=[68,61]),
   midi.NoteOnEvent(tick=0, channel=0, data=[77,60]),
   midi.NoteOnEvent(tick=0, channel=0, data=[80,68]),
   midi.NoteOnEvent(tick=240, channel=0, data=[80,0]),
   midi.NoteOnEvent(tick=0, channel=0, data=[77,0]),
   midi.NoteOnEvent(tick=0, channel=0, data=[68,0]),
   midi.NoteOnEvent(tick=0, channel=0, data=[79,84]),
   midi.NoteOnEvent(tick=0, channel=0, data=[67,75]),
   midi.NoteOnEvent(tick=0, channel=0, data=[75,75]),
   midi.NoteOnEvent(tick=480, channel=0, data=[75,0]),
   midi.NoteOnEvent(tick=0, channel=0, data=[67,0]),
   midi.NoteOnEvent(tick=0, channel=0, data=[79,0]),
   midi.NoteOnEvent(tick=0, channel=0, data=[68,83]),
   midi.NoteOnEvent(tick=0, channel=0, data=[77,82]),
   midi.NoteOnEvent(tick=0, channel=0, data=[80,92]),
   midi.NoteOnEvent(tick=480, channel=0, data=[80,0]),
   midi.NoteOnEvent(tick=0, channel=0, data=[77,0]),
   midi.NoteOnEvent(tick=0, channel=0, data=[68,0]),
   midi.NoteOnEvent(tick=0, channel=0, data=[79,89]),
   midi.NoteOnEvent(tick=0, channel=0, data=[82,100]),
   midi.NoteOnEvent(tick=0, channel=0, data=[75,89]),
   midi.NoteOnEvent(tick=0, channel=0, data=[70,89]),
   midi.NoteOnEvent(tick=960, channel=0, data=[70,0]),
   midi.NoteOnEvent(tick=0, channel=0, data=[79,0]),
   midi.NoteOnEvent(tick=0, channel=0, data=[82,0]),
   midi.NoteOnEvent(tick=0, channel=0, data=[75,0]),
   midi.NoteOnEvent(tick=0, channel=0, data=[72,82]),
   midi.NoteOnEvent(tick=0, channel=0, data=[75,82]),
   midi.NoteOnEvent(tick=0, channel=0, data=[84,91]),
   midi.NoteOnEvent(tick=0, channel=0, data=[80,81]),
   midi.NoteOnEvent(tick=960, channel=0, data=[80,0]),
   midi.NoteOnEvent(tick=0, channel=0, data=[72,0]),
   midi.NoteOnEvent(tick=0, channel=0, data=[75,0]),
   midi.NoteOnEvent(tick=0, channel=0, data=[84,0]),
   midi.NoteOnEvent(tick=0, channel=0, data=[70,85]),
   midi.NoteOnEvent(tick=0, channel=0, data=[75,85]),
   midi.NoteOnEvent(tick=0, channel=0, data=[79,86]),
   midi.NoteOnEvent(tick=0, channel=0, data=[82,96]),
   midi.NoteOnEvent(tick=720, channel=0, data=[82,0]),
   midi.NoteOnEvent(tick=0, channel=0, data=[70,0]),
   midi.NoteOnEvent(tick=0, channel=0, data=[75,0]),
   midi.NoteOnEvent(tick=0, channel=0, data=[79,0]),
   midi.NoteOnEvent(tick=0, channel=0, data=[80,72]),
   midi.NoteOnEvent(tick=0, channel=0, data=[77,64]),
   midi.NoteOnEvent(tick=0, channel=0, data=[68,64]),
   midi.NoteOnEvent(tick=240, channel=0, data=[68,0]),
   midi.NoteOnEvent(tick=0, channel=0, data=[77,0]),
   midi.NoteOnEvent(tick=0, channel=0, data=[80,0]),
   midi.NoteOnEvent(tick=0, channel=0, data=[67,80]),
   midi.NoteOnEvent(tick=0, channel=0, data=[75,79]),
   midi.NoteOnEvent(tick=0, channel=0, data=[79,89]),
   midi.NoteOnEvent(tick=480, channel=0, data=[79,0]),
   midi.NoteOnEvent(tick=0, channel=0, data=[75,0]),
   midi.NoteOnEvent(tick=0, channel=0, data=[67,0]),
   midi.NoteOnEvent(tick=0, channel=0, data=[77,86]),
   midi.NoteOnEvent(tick=0, channel=0, data=[68,85]),
   midi.NoteOnEvent(tick=0, channel=0, data=[80,96]),
   midi.NoteOnEvent(tick=480, channel=0, data=[80,0]),
   midi.NoteOnEvent(tick=0, channel=0, data=[68,0]),
   midi.NoteOnEvent(tick=0, channel=0, data=[77,0]),
   midi.NoteOnEvent(tick=0, channel=0, data=[70,88]),
   midi.NoteOnEvent(tick=0, channel=0, data=[82,99]),
   midi.NoteOnEvent(tick=0, channel=0, data=[79,89]),
   midi.NoteOnEvent(tick=0, channel=0, data=[75,88]),
   midi.NoteOnEvent(tick=960, channel=0, data=[75,0]),
   midi.NoteOnEvent(tick=0, channel=0, data=[70,0]),
   midi.NoteOnEvent(tick=0, channel=0, data=[82,0]),
   midi.NoteOnEvent(tick=0, channel=0, data=[79,0]),
   midi.NoteOnEvent(tick=0, channel=0, data=[74,89]),
   midi.NoteOnEvent(tick=0, channel=0, data=[82,100]),
   midi.NoteOnEvent(tick=0, channel=0, data=[77,89]),
   midi.NoteOnEvent(tick=0, channel=0, data=[70,89]),
   midi.NoteOnEvent(tick=960, channel=0, data=[70,0]),
   midi.NoteOnEvent(tick=0, channel=0, data=[74,0]),
   midi.NoteOnEvent(tick=0, channel=0, data=[82,0]),
   midi.NoteOnEvent(tick=0, channel=0, data=[77,0]),
   midi.NoteOnEvent(tick=0, channel=0, data=[81,90]),
   midi.NoteOnEvent(tick=0, channel=0, data=[84,101]),
   midi.NoteOnEvent(tick=0, channel=0, data=[77,90]),
   midi.NoteOnEvent(tick=0, channel=0, data=[72,90]),
   midi.NoteOnEvent(tick=960, channel=0, data=[72,0]),
   midi.NoteOnEvent(tick=0, channel=0, data=[81,0]),
   midi.NoteOnEvent(tick=0, channel=0, data=[84,0]),
   midi.NoteOnEvent(tick=0, channel=0, data=[77,0]),
   midi.NoteOnEvent(tick=0, channel=0, data=[77,93]),
   midi.NoteOnEvent(tick=0, channel=0, data=[86,104]),
   midi.NoteOnEvent(tick=0, channel=0, data=[82,93]),
   midi.NoteOnEvent(tick=0, channel=0, data=[74,93]),
   midi.NoteOnEvent(tick=480, channel=0, data=[74,0]),
   midi.NoteOnEvent(tick=0, channel=0, data=[77,0]),
   midi.NoteOnEvent(tick=0, channel=0, data=[86,0]),
   midi.NoteOnEvent(tick=0, channel=0, data=[82,0]),
   midi.NoteOnEvent(tick=0, channel=0, data=[75,97]),
   midi.NoteOnEvent(tick=0, channel=0, data=[79,97]),
   midi.NoteOnEvent(tick=0, channel=0, data=[84,97]),
   midi.NoteOnEvent(tick=0, channel=0, data=[87,108]),
   midi.NoteOnEvent(tick=480, channel=0, data=[87,0]),
   midi.NoteOnEvent(tick=0, channel=0, data=[75,0]),
   midi.NoteOnEvent(tick=0, channel=0, data=[79,0]),
   midi.NoteOnEvent(tick=0, channel=0, data=[84,0]),
   midi.NoteOnEvent(tick=0, channel=0, data=[77,101]),
   midi.NoteOnEvent(tick=0, channel=0, data=[86,112]),
   midi.NoteOnEvent(tick=0, channel=0, data=[82,100]),
   midi.NoteOnEvent(tick=0, channel=0, data=[74,101]),
   midi.NoteOnEvent(tick=960, channel=0, data=[74,0]),
   midi.NoteOnEvent(tick=0, channel=0, data=[77,0]),
   midi.NoteOnEvent(tick=0, channel=0, data=[86,0]),
   midi.NoteOnEvent(tick=0, channel=0, data=[82,0]),
   midi.NoteOnEvent(tick=0, channel=0, data=[81,91]),
   midi.NoteOnEvent(tick=0, channel=0, data=[84,102]),
   midi.NoteOnEvent(tick=0, channel=0, data=[75,91]),
   midi.NoteOnEvent(tick=0, channel=0, data=[72,91]),
   midi.NoteOnEvent(tick=960, channel=0, data=[72,0]),
   midi.NoteOnEvent(tick=0, channel=0, data=[81,0]),
   midi.NoteOnEvent(tick=0, channel=0, data=[84,0]),
   midi.NoteOnEvent(tick=0, channel=0, data=[75,0]),
   midi.NoteOnEvent(tick=0, channel=0, data=[70,88]),
   midi.NoteOnEvent(tick=0, channel=0, data=[74,88]),
   midi.NoteOnEvent(tick=0, channel=0, data=[77,89]),
   midi.NoteOnEvent(tick=0, channel=0, data=[82,99]),
   midi.NoteOnEvent(tick=1440, channel=0, data=[82,0]),
   midi.NoteOnEvent(tick=0, channel=0, data=[70,0]),
   midi.NoteOnEvent(tick=0, channel=0, data=[74,0]),
   midi.NoteOnEvent(tick=0, channel=0, data=[77,0]),
   midi.NoteOnEvent(tick=480, channel=0, data=[65,41]),
   midi.NoteOnEvent(tick=0, channel=0, data=[62,41]),
   midi.NoteOnEvent(tick=120, channel=0, data=[62,0]),
   midi.NoteOnEvent(tick=0, channel=0, data=[65,0]),
   midi.NoteOnEvent(tick=0, channel=0, data=[58,28]),
   midi.NoteOnEvent(tick=120, channel=0, data=[58,0]),
   midi.NoteOnEvent(tick=0, channel=0, data=[62,34]),
   midi.NoteOnEvent(tick=0, channel=0, data=[65,34]),
   midi.NoteOnEvent(tick=120, channel=0, data=[65,0]),
   midi.NoteOnEvent(tick=0, channel=0, data=[62,0]),
   midi.NoteOnEvent(tick=0, channel=0, data=[58,27]),
   midi.NoteOnEvent(tick=120, channel=0, data=[58,0]),
   midi.NoteOnEvent(tick=0, channel=0, data=[65,34]),
   midi.NoteOnEvent(tick=0, channel=0, data=[62,34]),
   midi.NoteOnEvent(tick=120, channel=0, data=[62,0]),
   midi.NoteOnEvent(tick=0, channel=0, data=[65,0]),
   midi.NoteOnEvent(tick=0, channel=0, data=[58,28]),
   midi.NoteOnEvent(tick=120, channel=0, data=[58,0]),
   midi.NoteOnEvent(tick=0, channel=0, data=[63,37]),
   midi.NoteOnEvent(tick=0, channel=0, data=[67,37]),
   midi.NoteOnEvent(tick=120, channel=0, data=[67,0]),
   midi.NoteOnEvent(tick=0, channel=0, data=[63,0]),
   midi.NoteOnEvent(tick=0, channel=0, data=[58,31]),
   midi.NoteOnEvent(tick=120, channel=0, data=[58,0]),
   midi.NoteOnEvent(tick=0, channel=0, data=[62,41]),
   midi.NoteOnEvent(tick=0, channel=0, data=[65,41]),
   midi.NoteOnEvent(tick=120, channel=0, data=[65,0]),
   midi.NoteOnEvent(tick=0, channel=0, data=[62,0]),
   midi.NoteOnEvent(tick=0, channel=0, data=[58,33]),
   midi.NoteOnEvent(tick=120, channel=0, data=[58,0]),
   midi.NoteOnEvent(tick=0, channel=0, data=[65,36]),
   midi.NoteOnEvent(tick=0, channel=0, data=[62,36]),
   midi.NoteOnEvent(tick=120, channel=0, data=[62,0]),
   midi.NoteOnEvent(tick=0, channel=0, data=[65,0]),
   midi.NoteOnEvent(tick=0, channel=0, data=[58,30]),
   midi.NoteOnEvent(tick=120, channel=0, data=[58,0]),
   midi.NoteOnEvent(tick=0, channel=0, data=[67,41]),
   midi.NoteOnEvent(tick=0, channel=0, data=[63,41]),
   midi.NoteOnEvent(tick=120, channel=0, data=[63,0]),
   midi.NoteOnEvent(tick=0, channel=0, data=[67,0]),
   midi.NoteOnEvent(tick=0, channel=0, data=[58,33]),
   midi.NoteOnEvent(tick=120, channel=0, data=[58,0]),
   midi.NoteOnEvent(tick=0, channel=0, data=[63,36]),
   midi.NoteOnEvent(tick=0, channel=0, data=[67,36]),
   midi.NoteOnEvent(tick=120, channel=0, data=[67,0]),
   midi.NoteOnEvent(tick=0, channel=0, data=[63,0]),
   midi.NoteOnEvent(tick=0, channel=0, data=[58,33]),
   midi.NoteOnEvent(tick=120, channel=0, data=[58,0]),
   midi.NoteOnEvent(tick=0, channel=0, data=[65,41]),
   midi.NoteOnEvent(tick=0, channel=0, data=[68,41]),
   midi.NoteOnEvent(tick=120, channel=0, data=[68,0]),
   midi.NoteOnEvent(tick=0, channel=0, data=[65,0]),
   midi.NoteOnEvent(tick=0, channel=0, data=[58,27]),
   midi.NoteOnEvent(tick=120, channel=0, data=[58,0]),
   midi.NoteOnEvent(tick=0, channel=0, data=[65,31]),
   midi.NoteOnEvent(tick=0, channel=0, data=[68,31]),
   midi.NoteOnEvent(tick=120, channel=0, data=[68,0]),
   midi.NoteOnEvent(tick=0, channel=0, data=[65,0]),
   midi.NoteOnEvent(tick=0, channel=0, data=[58,27]),
   midi.NoteOnEvent(tick=120, channel=0, data=[58,0]),
   midi.NoteOnEvent(tick=0, channel=0, data=[65,31]),
   midi.NoteOnEvent(tick=0, channel=0, data=[68,31]),
   midi.NoteOnEvent(tick=120, channel=0, data=[68,0]),
   midi.NoteOnEvent(tick=0, channel=0, data=[65,0]),
   midi.NoteOnEvent(tick=0, channel=0, data=[58,27]),
   midi.NoteOnEvent(tick=120, channel=0, data=[58,0]),
   midi.NoteOnEvent(tick=0, channel=0, data=[70,35]),
   midi.NoteOnEvent(tick=0, channel=0, data=[67,35]),
   midi.NoteOnEvent(tick=120, channel=0, data=[67,0]),
   midi.NoteOnEvent(tick=0, channel=0, data=[70,0]),
   midi.NoteOnEvent(tick=0, channel=0, data=[58,30]),
   midi.NoteOnEvent(tick=120, channel=0, data=[58,0]),
   midi.NoteOnEvent(tick=0, channel=0, data=[65,41]),
   midi.NoteOnEvent(tick=0, channel=0, data=[68,41]),
   midi.NoteOnEvent(tick=120, channel=0, data=[68,0]),
   midi.NoteOnEvent(tick=0, channel=0, data=[65,0]),
   midi.NoteOnEvent(tick=0, channel=0, data=[58,33]),
   midi.NoteOnEvent(tick=120, channel=0, data=[58,0]),
   midi.NoteOnEvent(tick=0, channel=0, data=[65,36]),
   midi.NoteOnEvent(tick=0, channel=0, data=[68,36]),
   midi.NoteOnEvent(tick=120, channel=0, data=[68,0]),
   midi.NoteOnEvent(tick=0, channel=0, data=[65,0]),
   midi.NoteOnEvent(tick=0, channel=0, data=[58,34]),
   midi.NoteOnEvent(tick=120, channel=0, data=[58,0]),
   midi.NoteOnEvent(tick=0, channel=0, data=[65,36]),
   midi.NoteOnEvent(tick=0, channel=0, data=[68,36]),
   midi.NoteOnEvent(tick=120, channel=0, data=[68,0]),
   midi.NoteOnEvent(tick=0, channel=0, data=[65,0]),
   midi.NoteOnEvent(tick=0, channel=0, data=[58,31]),
   midi.NoteOnEvent(tick=120, channel=0, data=[58,0]),
   midi.NoteOnEvent(tick=0, channel=0, data=[68,36]),
   midi.NoteOnEvent(tick=0, channel=0, data=[65,36]),
   midi.NoteOnEvent(tick=120, channel=0, data=[65,0]),
   midi.NoteOnEvent(tick=0, channel=0, data=[68,0]),
   midi.NoteOnEvent(tick=0, channel=0, data=[58,31]),
   midi.NoteOnEvent(tick=120, channel=0, data=[58,0]),
   midi.NoteOnEvent(tick=0, channel=0, data=[63,48]),
   midi.NoteOnEvent(tick=0, channel=0, data=[67,48]),
   midi.NoteOnEvent(tick=120, channel=0, data=[67,0]),
   midi.NoteOnEvent(tick=0, channel=0, data=[63,0]),
   midi.NoteOnEvent(tick=0, channel=0, data=[58,27]),
   midi.NoteOnEvent(tick=120, channel=0, data=[58,0]),
   midi.NoteOnEvent(tick=0, channel=0, data=[63,33]),
   midi.NoteOnEvent(tick=0, channel=0, data=[67,33]),
   midi.NoteOnEvent(tick=120, channel=0, data=[67,0]),
   midi.NoteOnEvent(tick=0, channel=0, data=[63,0]),
   midi.NoteOnEvent(tick=0, channel=0, data=[58,26]),
   midi.NoteOnEvent(tick=120, channel=0, data=[58,0]),
   midi.NoteOnEvent(tick=0, channel=0, data=[63,34]),
   midi.NoteOnEvent(tick=0, channel=0, data=[67,34]),
   midi.NoteOnEvent(tick=120, channel=0, data=[67,0]),
   midi.NoteOnEvent(tick=0, channel=0, data=[63,0]),
   midi.NoteOnEvent(tick=0, channel=0, data=[58,29]),
   midi.NoteOnEvent(tick=120, channel=0, data=[58,0]),
   midi.NoteOnEvent(tick=0, channel=0, data=[68,40]),
   midi.NoteOnEvent(tick=0, channel=0, data=[65,40]),
   midi.NoteOnEvent(tick=120, channel=0, data=[65,0]),
   midi.NoteOnEvent(tick=0, channel=0, data=[68,0]),
   midi.NoteOnEvent(tick=0, channel=0, data=[58,35]),
   midi.NoteOnEvent(tick=120, channel=0, data=[58,0]),
   midi.NoteOnEvent(tick=0, channel=0, data=[67,52]),
   midi.NoteOnEvent(tick=4, channel=0, data=[63,52]),
   midi.NoteOnEvent(tick=116, channel=0, data=[67,0]),
   midi.NoteOnEvent(tick=0, channel=0, data=[58,38]),
   midi.NoteOnEvent(tick=4, channel=0, data=[63,0]),
   midi.NoteOnEvent(tick=116, channel=0, data=[58,0]),
   midi.NoteOnEvent(tick=0, channel=0, data=[63,38]),
   midi.NoteOnEvent(tick=0, channel=0, data=[67,38]),
   midi.NoteOnEvent(tick=120, channel=0, data=[67,0]),
   midi.NoteOnEvent(tick=0, channel=0, data=[63,0]),
   midi.NoteOnEvent(tick=0, channel=0, data=[58,36]),
   midi.NoteOnEvent(tick=120, channel=0, data=[58,0]),
   midi.NoteOnEvent(tick=0, channel=0, data=[65,52]),
   midi.NoteOnEvent(tick=0, channel=0, data=[68,52]),
   midi.NoteOnEvent(tick=120, channel=0, data=[68,0]),
   midi.NoteOnEvent(tick=0, channel=0, data=[65,0]),
   midi.NoteOnEvent(tick=0, channel=0, data=[58,38]),
   midi.NoteOnEvent(tick=120, channel=0, data=[58,0]),
   midi.NoteOnEvent(tick=0, channel=0, data=[68,42]),
   midi.NoteOnEvent(tick=0, channel=0, data=[65,42]),
   midi.NoteOnEvent(tick=120, channel=0, data=[65,0]),
   midi.NoteOnEvent(tick=0, channel=0, data=[68,0]),
   midi.NoteOnEvent(tick=0, channel=0, data=[58,38]),
   midi.NoteOnEvent(tick=120, channel=0, data=[58,0]),
   midi.NoteOnEvent(tick=0, channel=0, data=[67,57]),
   midi.NoteOnEvent(tick=0, channel=0, data=[70,57]),
   midi.NoteOnEvent(tick=120, channel=0, data=[70,0]),
   midi.NoteOnEvent(tick=0, channel=0, data=[67,0]),
   midi.NoteOnEvent(tick=0, channel=0, data=[63,41]),
   midi.NoteOnEvent(tick=120, channel=0, data=[63,0]),
   midi.NoteOnEvent(tick=0, channel=0, data=[70,47]),
   midi.NoteOnEvent(tick=0, channel=0, data=[67,47]),
   midi.NoteOnEvent(tick=120, channel=0, data=[67,0]),
   midi.NoteOnEvent(tick=0, channel=0, data=[70,0]),
   midi.NoteOnEvent(tick=0, channel=0, data=[63,41]),
   midi.NoteOnEvent(tick=120, channel=0, data=[63,0]),
   midi.NoteOnEvent(tick=0, channel=0, data=[67,37]),
   midi.NoteOnEvent(tick=0, channel=0, data=[70,37]),
   midi.NoteOnEvent(tick=120, channel=0, data=[70,0]),
   midi.NoteOnEvent(tick=0, channel=0, data=[67,0]),
   midi.NoteOnEvent(tick=0, channel=0, data=[63,37]),
   midi.NoteOnEvent(tick=120, channel=0, data=[63,0]),
   midi.NoteOnEvent(tick=0, channel=0, data=[68,45]),
   midi.NoteOnEvent(tick=0, channel=0, data=[72,45]),
   midi.NoteOnEvent(tick=120, channel=0, data=[72,0]),
   midi.NoteOnEvent(tick=0, channel=0, data=[68,0]),
   midi.NoteOnEvent(tick=0, channel=0, data=[63,41]),
   midi.NoteOnEvent(tick=120, channel=0, data=[63,0]),
   midi.NoteOnEvent(tick=0, channel=0, data=[70,57]),
   midi.NoteOnEvent(tick=0, channel=0, data=[67,57]),
   midi.NoteOnEvent(tick=120, channel=0, data=[67,0]),
   midi.NoteOnEvent(tick=0, channel=0, data=[70,0]),
   midi.NoteOnEvent(tick=0, channel=0, data=[63,35]),
   midi.NoteOnEvent(tick=120, channel=0, data=[63,0]),
   midi.NoteOnEvent(tick=0, channel=0, data=[67,41]),
   midi.NoteOnEvent(tick=0, channel=0, data=[70,41]),
   midi.NoteOnEvent(tick=120, channel=0, data=[70,0]),
   midi.NoteOnEvent(tick=0, channel=0, data=[67,0]),
   midi.NoteOnEvent(tick=0, channel=0, data=[63,37]),
   midi.NoteOnEvent(tick=120, channel=0, data=[63,0]),
   midi.NoteOnEvent(tick=0, channel=0, data=[67,41]),
   midi.NoteOnEvent(tick=0, channel=0, data=[70,41]),
   midi.NoteOnEvent(tick=120, channel=0, data=[70,0]),
   midi.NoteOnEvent(tick=0, channel=0, data=[67,0]),
   midi.NoteOnEvent(tick=0, channel=0, data=[63,38]),
   midi.NoteOnEvent(tick=120, channel=0, data=[63,0]),
   midi.NoteOnEvent(tick=0, channel=0, data=[70,46]),
   midi.NoteOnEvent(tick=0, channel=0, data=[67,46]),
   midi.NoteOnEvent(tick=120, channel=0, data=[67,0]),
   midi.NoteOnEvent(tick=0, channel=0, data=[70,0]),
   midi.NoteOnEvent(tick=0, channel=0, data=[63,41]),
   midi.NoteOnEvent(tick=120, channel=0, data=[63,0]),
   midi.NoteOnEvent(tick=0, channel=0, data=[63,87]),
   midi.NoteOnEvent(tick=0, channel=0, data=[75,97]),
   midi.NoteOnEvent(tick=0, channel=0, data=[70,87]),
   midi.NoteOnEvent(tick=0, channel=0, data=[67,87]),
   midi.NoteOnEvent(tick=480, channel=0, data=[67,0]),
   midi.NoteOnEvent(tick=0, channel=0, data=[63,0]),
   midi.NoteOnEvent(tick=0, channel=0, data=[75,0]),
   midi.NoteOnEvent(tick=0, channel=0, data=[70,0]),
   midi.NoteOnEvent(tick=0, channel=0, data=[63,86]),
   midi.NoteOnEvent(tick=0, channel=0, data=[70,85]),
   midi.NoteOnEvent(tick=0, channel=0, data=[74,95]),
   midi.NoteOnEvent(tick=390, channel=0, data=[74,0]),
   midi.NoteOnEvent(tick=0, channel=0, data=[70,0]),
   midi.NoteOnEvent(tick=0, channel=0, data=[63,0]),
   midi.NoteOnEvent(tick=0, channel=0, data=[60,77]),
   midi.NoteOnEvent(tick=30, channel=0, data=[63,84]),
   midi.NoteOnEvent(tick=30, channel=0, data=[68,78]),
   midi.NoteOnEvent(tick=30, channel=0, data=[72,92]),
   midi.NoteOnEvent(tick=480, channel=0, data=[72,0]),
   midi.NoteOnEvent(tick=0, channel=0, data=[60,0]),
   midi.NoteOnEvent(tick=0, channel=0, data=[63,0]),
   midi.NoteOnEvent(tick=0, channel=0, data=[68,0]),
   midi.NoteOnEvent(tick=0, channel=0, data=[58,82]),
   midi.NoteOnEvent(tick=0, channel=0, data=[70,94]),
   midi.NoteOnEvent(tick=0, channel=0, data=[67,84]),
   midi.NoteOnEvent(tick=0, channel=0, data=[63,82]),
   midi.NoteOnEvent(tick=480, channel=0, data=[63,0]),
   midi.NoteOnEvent(tick=0, channel=0, data=[58,0]),
   midi.NoteOnEvent(tick=0, channel=0, data=[70,0]),
   midi.NoteOnEvent(tick=0, channel=0, data=[67,0]),
   midi.NoteOnEvent(tick=0, channel=0, data=[75,97]),
   midi.NoteOnEvent(tick=0, channel=0, data=[87,110]),
   midi.NoteOnEvent(tick=0, channel=0, data=[84,97]),
   midi.NoteOnEvent(tick=0, channel=0, data=[80,97]),
   midi.NoteOnEvent(tick=480, channel=0, data=[80,0]),
   midi.NoteOnEvent(tick=0, channel=0, data=[75,0]),
   midi.NoteOnEvent(tick=0, channel=0, data=[87,0]),
   midi.NoteOnEvent(tick=0, channel=0, data=[84,0]),
   midi.NoteOnEvent(tick=0, channel=0, data=[80,88]),
   midi.NoteOnEvent(tick=0, channel=0, data=[84,98]),
   midi.NoteOnEvent(tick=0, channel=0, data=[75,98]),
   midi.NoteOnEvent(tick=0, channel=0, data=[72,98]),
   midi.NoteOnEvent(tick=390, channel=0, data=[72,0]),
   midi.NoteOnEvent(tick=0, channel=0, data=[80,0]),
   midi.NoteOnEvent(tick=0, channel=0, data=[84,0]),
   midi.NoteOnEvent(tick=0, channel=0, data=[75,0]),
   midi.NoteOnEvent(tick=0, channel=0, data=[70,90]),
   midi.NoteOnEvent(tick=30, channel=0, data=[76,95]),
   midi.NoteOnEvent(tick=30, channel=0, data=[79,89]),
   midi.NoteOnEvent(tick=30, channel=0, data=[82,105]),
   midi.NoteOnEvent(tick=480, channel=0, data=[82,0]),
   midi.NoteOnEvent(tick=0, channel=0, data=[70,0]),
   midi.NoteOnEvent(tick=0, channel=0, data=[76,0]),
   midi.NoteOnEvent(tick=0, channel=0, data=[79,0]),
   midi.NoteOnEvent(tick=0, channel=0, data=[68,86]),
   midi.NoteOnEvent(tick=0, channel=0, data=[72,86]),
   midi.NoteOnEvent(tick=0, channel=0, data=[77,85]),
   midi.NoteOnEvent(tick=0, channel=0, data=[80,95]),
   midi.NoteOnEvent(tick=480, channel=0, data=[80,0]),
   midi.NoteOnEvent(tick=0, channel=0, data=[68,0]),
   midi.NoteOnEvent(tick=0, channel=0, data=[72,0]),
   midi.NoteOnEvent(tick=0, channel=0, data=[77,0]),
   midi.NoteOnEvent(tick=0, channel=0, data=[70,90]),
   midi.NoteOnEvent(tick=0, channel=0, data=[79,101]),
   midi.NoteOnEvent(tick=0, channel=0, data=[75,92]),
   midi.NoteOnEvent(tick=0, channel=0, data=[67,90]),
   midi.NoteOnEvent(tick=870, channel=0, data=[67,0]),
   midi.NoteOnEvent(tick=0, channel=0, data=[70,0]),
   midi.NoteOnEvent(tick=0, channel=0, data=[79,0]),
   midi.NoteOnEvent(tick=0, channel=0, data=[75,0]),
   midi.NoteOnEvent(tick=0, channel=0, data=[65,74]),
   midi.NoteOnEvent(tick=30, channel=0, data=[68,80]),
   midi.NoteOnEvent(tick=30, channel=0, data=[74,75]),
   midi.NoteOnEvent(tick=30, channel=0, data=[77,96]),
   midi.NoteOnEvent(tick=960, channel=0, data=[77,0]),
   midi.NoteOnEvent(tick=0, channel=0, data=[65,0]),
   midi.NoteOnEvent(tick=0, channel=0, data=[68,0]),
   midi.NoteOnEvent(tick=0, channel=0, data=[74,0]),
   midi.NoteOnEvent(tick=0, channel=0, data=[63,79]),
   midi.NoteOnEvent(tick=0, channel=0, data=[67,79]),
   midi.NoteOnEvent(tick=0, channel=0, data=[70,72]),
   midi.NoteOnEvent(tick=0, channel=0, data=[75,79]),
   midi.NoteOnEvent(tick=480, channel=0, data=[75,0]),
   midi.NoteOnEvent(tick=0, channel=0, data=[63,0]),
   midi.NoteOnEvent(tick=0, channel=0, data=[67,0]),
   midi.NoteOnEvent(tick=0, channel=0, data=[70,0]),
   midi.NoteOnEvent(tick=0, channel=0, data=[63,82]),
   midi.NoteOnEvent(tick=160, channel=0, data=[63,0]),
   midi.NoteOnEvent(tick=0, channel=0, data=[67,82]),
   midi.NoteOnEvent(tick=160, channel=0, data=[67,0]),
   midi.NoteOnEvent(tick=0, channel=0, data=[70,82]),
   midi.NoteOnEvent(tick=160, channel=0, data=[70,0]),
   midi.NoteOnEvent(tick=0, channel=0, data=[63,75]),
   midi.NoteOnEvent(tick=0, channel=0, data=[75,82]),
   midi.NoteOnEvent(tick=0, channel=0, data=[71,75]),
   midi.NoteOnEvent(tick=0, channel=0, data=[68,75]),
   midi.NoteOnEvent(tick=480, channel=0, data=[68,0]),
   midi.NoteOnEvent(tick=0, channel=0, data=[63,0]),
   midi.NoteOnEvent(tick=0, channel=0, data=[75,0]),
   midi.NoteOnEvent(tick=0, channel=0, data=[71,0]),
   midi.NoteOnEvent(tick=0, channel=0, data=[68,75]),
   midi.NoteOnEvent(tick=0, channel=0, data=[71,75]),
   midi.NoteOnEvent(tick=0, channel=0, data=[75,75]),
   midi.NoteOnEvent(tick=0, channel=0, data=[80,82]),
   midi.NoteOnEvent(tick=480, channel=0, data=[80,0]),
   midi.NoteOnEvent(tick=0, channel=0, data=[68,0]),
   midi.NoteOnEvent(tick=0, channel=0, data=[71,0]),
   midi.NoteOnEvent(tick=0, channel=0, data=[75,0]),
   midi.NoteOnEvent(tick=0, channel=0, data=[70,75]),
   midi.NoteOnEvent(tick=0, channel=0, data=[79,82]),
   midi.NoteOnEvent(tick=0, channel=0, data=[75,75]),
   midi.NoteOnEvent(tick=0, channel=0, data=[67,75]),
   midi.NoteOnEvent(tick=480, channel=0, data=[67,0]),
   midi.NoteOnEvent(tick=0, channel=0, data=[70,0]),
   midi.NoteOnEvent(tick=0, channel=0, data=[79,0]),
   midi.NoteOnEvent(tick=0, channel=0, data=[75,0]),
   midi.NoteOnEvent(tick=0, channel=0, data=[75,84]),
   midi.NoteOnEvent(tick=160, channel=0, data=[75,0]),
   midi.NoteOnEvent(tick=0, channel=0, data=[79,84]),
   midi.NoteOnEvent(tick=160, channel=0, data=[79,0]),
   midi.NoteOnEvent(tick=0, channel=0, data=[82,85]),
   midi.NoteOnEvent(tick=160, channel=0, data=[82,0]),
   midi.NoteOnEvent(tick=0, channel=0, data=[83,80]),
   midi.NoteOnEvent(tick=0, channel=0, data=[75,80]),
   midi.NoteOnEvent(tick=0, channel=0, data=[80,80]),
   midi.NoteOnEvent(tick=0, channel=0, data=[87,91]),
   midi.NoteOnEvent(tick=480, channel=0, data=[87,0]),
   midi.NoteOnEvent(tick=0, channel=0, data=[83,0]),
   midi.NoteOnEvent(tick=0, channel=0, data=[75,0]),
   midi.NoteOnEvent(tick=0, channel=0, data=[80,0]),
   midi.NoteOnEvent(tick=0, channel=0, data=[83,86]),
   midi.NoteOnEvent(tick=0, channel=0, data=[80,86]),
   midi.NoteOnEvent(tick=0, channel=0, data=[87,86]),
   midi.NoteOnEvent(tick=0, channel=0, data=[92,97]),
   midi.NoteOnEvent(tick=480, channel=0, data=[92,0]),
   midi.NoteOnEvent(tick=0, channel=0, data=[83,0]),
   midi.NoteOnEvent(tick=0, channel=0, data=[80,0]),
   midi.NoteOnEvent(tick=0, channel=0, data=[87,0]),
   midi.NoteOnEvent(tick=0, channel=0, data=[91,96]),
   midi.NoteOnEvent(tick=0, channel=0, data=[79,86]),
   midi.NoteOnEvent(tick=0, channel=0, data=[82,86]),
   midi.NoteOnEvent(tick=0, channel=0, data=[87,86]),
   midi.NoteOnEvent(tick=480, channel=0, data=[87,0]),
   midi.NoteOnEvent(tick=0, channel=0, data=[91,0]),
   midi.NoteOnEvent(tick=0, channel=0, data=[79,0]),
   midi.NoteOnEvent(tick=0, channel=0, data=[82,0]),
   midi.NoteOnEvent(tick=0, channel=0, data=[63,78]),
   midi.NoteOnEvent(tick=0, channel=0, data=[75,78]),
   midi.NoteOnEvent(tick=360, channel=0, data=[75,0]),
   midi.NoteOnEvent(tick=0, channel=0, data=[63,0]),
   midi.NoteOnEvent(tick=0, channel=0, data=[63,72]),
   midi.NoteOnEvent(tick=0, channel=0, data=[75,72]),
   midi.NoteOnEvent(tick=120, channel=0, data=[75,0]),
   midi.NoteOnEvent(tick=0, channel=0, data=[63,0]),
   midi.NoteOnEvent(tick=0, channel=0, data=[75,79]),
   midi.NoteOnEvent(tick=0, channel=0, data=[63,79]),
   midi.NoteOnEvent(tick=960, channel=0, data=[63,0]),
   midi.NoteOnEvent(tick=0, channel=0, data=[75,0]),
   midi.NoteOnEvent(tick=960, channel=0, data=[51,39]),
   midi.NoteOnEvent(tick=0, channel=0, data=[55,39]),
   midi.NoteOnEvent(tick=0, channel=0, data=[60,45]),
   midi.NoteOnEvent(tick=480, channel=0, data=[60,0]),
   midi.NoteOnEvent(tick=0, channel=0, data=[55,0]),
   midi.NoteOnEvent(tick=0, channel=0, data=[51,0]),
   midi.NoteOnEvent(tick=0, channel=0, data=[57,41]),
   midi.NoteOnEvent(tick=0, channel=0, data=[60,41]),
   midi.NoteOnEvent(tick=0, channel=0, data=[51,37]),
   midi.NoteOnEvent(tick=0, channel=0, data=[54,37]),
   midi.NoteOnEvent(tick=480, channel=0, data=[54,0]),
   midi.NoteOnEvent(tick=0, channel=0, data=[57,0]),
   midi.NoteOnEvent(tick=0, channel=0, data=[60,0]),
   midi.NoteOnEvent(tick=0, channel=0, data=[51,0]),
   midi.NoteOnEvent(tick=0, channel=0, data=[50,40]),
   midi.NoteOnEvent(tick=0, channel=0, data=[55,40]),
   midi.NoteOnEvent(tick=0, channel=0, data=[59,46]),
   midi.NoteOnEvent(tick=720, channel=0, data=[59,0]),
   midi.NoteOnEvent(tick=0, channel=0, data=[55,0]),
   midi.NoteOnEvent(tick=0, channel=0, data=[50,0]),
   midi.NoteOnEvent(tick=0, channel=0, data=[57,41]),
   midi.NoteOnEvent(tick=0, channel=0, data=[48,37]),
   midi.NoteOnEvent(tick=240, channel=0, data=[48,0]),
   midi.NoteOnEvent(tick=0, channel=0, data=[57,0]),
   midi.NoteOnEvent(tick=0, channel=0, data=[47,35]),
   midi.NoteOnEvent(tick=0, channel=0, data=[55,39]),
   midi.NoteOnEvent(tick=480, channel=0, data=[55,0]),
   midi.NoteOnEvent(tick=0, channel=0, data=[47,0]),
   midi.NoteOnEvent(tick=1440, channel=0, data=[55,49]),
   midi.NoteOnEvent(tick=0, channel=0, data=[60,49]),
   midi.NoteOnEvent(tick=0, channel=0, data=[63,56]),
   midi.NoteOnEvent(tick=0, channel=0, data=[51,49]),
   midi.NoteOnEvent(tick=480, channel=0, data=[51,0]),
   midi.NoteOnEvent(tick=0, channel=0, data=[55,0]),
   midi.NoteOnEvent(tick=0, channel=0, data=[60,0]),
   midi.NoteOnEvent(tick=0, channel=0, data=[63,0]),
   midi.NoteOnEvent(tick=0, channel=0, data=[63,55]),
   midi.NoteOnEvent(tick=0, channel=0, data=[54,49]),
   midi.NoteOnEvent(tick=0, channel=0, data=[60,49]),
   midi.NoteOnEvent(tick=0, channel=0, data=[57,49]),
   midi.NoteOnEvent(tick=480, channel=0, data=[57,0]),
   midi.NoteOnEvent(tick=0, channel=0, data=[63,0]),
   midi.NoteOnEvent(tick=0, channel=0, data=[54,0]),
   midi.NoteOnEvent(tick=0, channel=0, data=[60,0]),
   midi.NoteOnEvent(tick=0, channel=0, data=[55,51]),
   midi.NoteOnEvent(tick=0, channel=0, data=[59,51]),
   midi.NoteOnEvent(tick=0, channel=0, data=[62,58]),
   midi.NoteOnEvent(tick=1920, channel=0, data=[62,0]),
   midi.NoteOnEvent(tick=0, channel=0, data=[59,0]),
   midi.NoteOnEvent(tick=0, channel=0, data=[55,0]),
   midi.NoteOnEvent(tick=1440, channel=0, data=[83,39]),
   midi.NoteOnEvent(tick=160, channel=0, data=[83,0]),
   midi.NoteOnEvent(tick=0, channel=0, data=[86,31]),
   midi.NoteOnEvent(tick=160, channel=0, data=[86,0]),
   midi.NoteOnEvent(tick=0, channel=0, data=[91,31]),
   midi.NoteOnEvent(tick=160, channel=0, data=[91,0]),
   midi.NoteOnEvent(tick=0, channel=0, data=[103,38]),
   midi.NoteOnEvent(tick=1440, channel=0, data=[103,0]),
   midi.NoteOnEvent(tick=390, channel=0, data=[67,47]),
   midi.NoteOnEvent(tick=30, channel=0, data=[72,47]),
   midi.NoteOnEvent(tick=30, channel=0, data=[76,47]),
   midi.NoteOnEvent(tick=30, channel=0, data=[79,47]),
   midi.NoteOnEvent(tick=360, channel=0, data=[81,39]),
   midi.NoteOnEvent(tick=0, channel=0, data=[69,39]),
   midi.NoteOnEvent(tick=0, channel=0, data=[77,39]),
   midi.NoteOnEvent(tick=20, channel=0, data=[79,0]),
   midi.NoteOnEvent(tick=0, channel=0, data=[76,0]),
   midi.NoteOnEvent(tick=0, channel=0, data=[67,0]),
   midi.NoteOnEvent(tick=0, channel=0, data=[72,0]),
   midi.NoteOnEvent(tick=100, channel=0, data=[67,41]),
   midi.NoteOnEvent(tick=0, channel=0, data=[76,41]),
   midi.NoteOnEvent(tick=0, channel=0, data=[79,41]),
   midi.NoteOnEvent(tick=20, channel=0, data=[77,0]),
   midi.NoteOnEvent(tick=0, channel=0, data=[69,0]),
   midi.NoteOnEvent(tick=0, channel=0, data=[81,0]),
   midi.NoteOnEvent(tick=220, channel=0, data=[67,0]),
   midi.NoteOnEvent(tick=0, channel=0, data=[76,0]),
   midi.NoteOnEvent(tick=0, channel=0, data=[72,42]),
   midi.NoteOnEvent(tick=0, channel=0, data=[64,42]),
   midi.NoteOnEvent(tick=0, channel=0, data=[76,42]),
   midi.NoteOnEvent(tick=20, channel=0, data=[79,0]),
   midi.NoteOnEvent(tick=590, channel=0, data=[72,0]),
   midi.NoteOnEvent(tick=0, channel=0, data=[64,0]),
   midi.NoteOnEvent(tick=0, channel=0, data=[76,0]),
   midi.NoteOnEvent(tick=20, channel=0, data=[67,47]),
   midi.NoteOnEvent(tick=30, channel=0, data=[72,47]),
   midi.NoteOnEvent(tick=30, channel=0, data=[79,47]),
   midi.NoteOnEvent(tick=30, channel=0, data=[76,47]),
   midi.NoteOnEvent(tick=360, channel=0, data=[69,39]),
   midi.NoteOnEvent(tick=0, channel=0, data=[77,39]),
   midi.NoteOnEvent(tick=0, channel=0, data=[81,39]),
   midi.NoteOnEvent(tick=20, channel=0, data=[76,0]),
   midi.NoteOnEvent(tick=0, channel=0, data=[79,0]),
   midi.NoteOnEvent(tick=0, channel=0, data=[67,0]),
   midi.NoteOnEvent(tick=0, channel=0, data=[72,0]),
   midi.NoteOnEvent(tick=100, channel=0, data=[76,41]),
   midi.NoteOnEvent(tick=0, channel=0, data=[67,41]),
   midi.NoteOnEvent(tick=0, channel=0, data=[79,41]),
   midi.NoteOnEvent(tick=20, channel=0, data=[81,0]),
   midi.NoteOnEvent(tick=0, channel=0, data=[77,0]),
   midi.NoteOnEvent(tick=0, channel=0, data=[69,0]),
   midi.NoteOnEvent(tick=220, channel=0, data=[76,0]),
   midi.NoteOnEvent(tick=0, channel=0, data=[67,0]),
   midi.NoteOnEvent(tick=0, channel=0, data=[64,41]),
   midi.NoteOnEvent(tick=0, channel=0, data=[72,41]),
   midi.NoteOnEvent(tick=0, channel=0, data=[76,41]),
   midi.NoteOnEvent(tick=20, channel=0, data=[79,0]),
   midi.NoteOnEvent(tick=590, channel=0, data=[64,0]),
   midi.NoteOnEvent(tick=0, channel=0, data=[72,0]),
   midi.NoteOnEvent(tick=0, channel=0, data=[76,0]),
   midi.NoteOnEvent(tick=20, channel=0, data=[74,62]),
   midi.NoteOnEvent(tick=30, channel=0, data=[77,62]),
   midi.NoteOnEvent(tick=30, channel=0, data=[79,62]),
   midi.NoteOnEvent(tick=30, channel=0, data=[86,62]),
   midi.NoteOnEvent(tick=480, channel=0, data=[86,0]),
   midi.NoteOnEvent(tick=0, channel=0, data=[74,0]),
   midi.NoteOnEvent(tick=0, channel=0, data=[77,0]),
   midi.NoteOnEvent(tick=0, channel=0, data=[79,0]),
   midi.NoteOnEvent(tick=0, channel=0, data=[74,49]),
   midi.NoteOnEvent(tick=0, channel=0, data=[77,49]),
   midi.NoteOnEvent(tick=0, channel=0, data=[86,60]),
   midi.NoteOnEvent(tick=240, channel=0, data=[86,0]),
   midi.NoteOnEvent(tick=0, channel=0, data=[77,0]),
   midi.NoteOnEvent(tick=0, channel=0, data=[74,0]),
   midi.NoteOnEvent(tick=0, channel=0, data=[77,49]),
   midi.NoteOnEvent(tick=0, channel=0, data=[71,49]),
   midi.NoteOnEvent(tick=0, channel=0, data=[83,49]),
   midi.NoteOnEvent(tick=610, channel=0, data=[83,0]),
   midi.NoteOnEvent(tick=0, channel=0, data=[71,0]),
   midi.NoteOnEvent(tick=0, channel=0, data=[77,0]),
   midi.NoteOnEvent(tick=20, channel=0, data=[72,56]),
   midi.NoteOnEvent(tick=30, channel=0, data=[76,56]),
   midi.NoteOnEvent(tick=30, channel=0, data=[79,56]),
   midi.NoteOnEvent(tick=30, channel=0, data=[84,56]),
   midi.NoteOnEvent(tick=480, channel=0, data=[84,0]),
   midi.NoteOnEvent(tick=0, channel=0, data=[72,0]),
   midi.NoteOnEvent(tick=0, channel=0, data=[76,0]),
   midi.NoteOnEvent(tick=0, channel=0, data=[79,0]),
   midi.NoteOnEvent(tick=0, channel=0, data=[72,49]),
   midi.NoteOnEvent(tick=0, channel=0, data=[76,49]),
   midi.NoteOnEvent(tick=0, channel=0, data=[84,49]),
   midi.NoteOnEvent(tick=240, channel=0, data=[84,0]),
   midi.NoteOnEvent(tick=0, channel=0, data=[76,0]),
   midi.NoteOnEvent(tick=0, channel=0, data=[72,0]),
   midi.NoteOnEvent(tick=0, channel=0, data=[76,45]),
   midi.NoteOnEvent(tick=0, channel=0, data=[67,45]),
   midi.NoteOnEvent(tick=0, channel=0, data=[79,45]),
   midi.NoteOnEvent(tick=610, channel=0, data=[79,0]),
   midi.NoteOnEvent(tick=0, channel=0, data=[67,0]),
   midi.NoteOnEvent(tick=0, channel=0, data=[76,0]),
   midi.NoteOnEvent(tick=20, channel=0, data=[69,56]),
   midi.NoteOnEvent(tick=30, channel=0, data=[72,56]),
   midi.NoteOnEvent(tick=30, channel=0, data=[77,56]),
   midi.NoteOnEvent(tick=30, channel=0, data=[81,56]),
   midi.NoteOnEvent(tick=480, channel=0, data=[81,0]),
   midi.NoteOnEvent(tick=0, channel=0, data=[69,0]),
   midi.NoteOnEvent(tick=0, channel=0, data=[72,0]),
   midi.NoteOnEvent(tick=0, channel=0, data=[77,0]),
   midi.NoteOnEvent(tick=0, channel=0, data=[81,61]),
   midi.NoteOnEvent(tick=0, channel=0, data=[69,61]),
   midi.NoteOnEvent(tick=0, channel=0, data=[77,61]),
   midi.NoteOnEvent(tick=240, channel=0, data=[77,0]),
   midi.NoteOnEvent(tick=0, channel=0, data=[69,0]),
   midi.NoteOnEvent(tick=0, channel=0, data=[81,0]),
   midi.NoteOnEvent(tick=0, channel=0, data=[72,63]),
   midi.NoteOnEvent(tick=0, channel=0, data=[84,63]),
   midi.NoteOnEvent(tick=0, channel=0, data=[81,63]),
   midi.NoteOnEvent(tick=360, channel=0, data=[79,57]),
   midi.NoteOnEvent(tick=0, channel=0, data=[71,57]),
   midi.NoteOnEvent(tick=0, channel=0, data=[83,57]),
   midi.NoteOnEvent(tick=20, channel=0, data=[81,0]),
   midi.NoteOnEvent(tick=0, channel=0, data=[72,0]),
   midi.NoteOnEvent(tick=0, channel=0, data=[84,0]),
   midi.NoteOnEvent(tick=100, channel=0, data=[69,63]),
   midi.NoteOnEvent(tick=0, channel=0, data=[77,63]),
   midi.NoteOnEvent(tick=0, channel=0, data=[81,63]),
   midi.NoteOnEvent(tick=20, channel=0, data=[79,0]),
   midi.NoteOnEvent(tick=0, channel=0, data=[83,0]),
   midi.NoteOnEvent(tick=0, channel=0, data=[71,0]),
   midi.NoteOnEvent(tick=130, channel=0, data=[69,0]),
   midi.NoteOnEvent(tick=0, channel=0, data=[77,0]),
   midi.NoteOnEvent(tick=0, channel=0, data=[81,0]),
   midi.NoteOnEvent(tick=0, channel=0, data=[67,62]),
   midi.NoteOnEvent(tick=30, channel=0, data=[72,62]),
   midi.NoteOnEvent(tick=30, channel=0, data=[76,62]),
   midi.NoteOnEvent(tick=30, channel=0, data=[79,62]),
   midi.NoteOnEvent(tick=360, channel=0, data=[81,50]),
   midi.NoteOnEvent(tick=0, channel=0, data=[69,50]),
   midi.NoteOnEvent(tick=0, channel=0, data=[77,50]),
   midi.NoteOnEvent(tick=20, channel=0, data=[79,0]),
   midi.NoteOnEvent(tick=0, channel=0, data=[76,0]),
   midi.NoteOnEvent(tick=0, channel=0, data=[67,0]),
   midi.NoteOnEvent(tick=0, channel=0, data=[72,0]),
   midi.NoteOnEvent(tick=100, channel=0, data=[67,53]),
   midi.NoteOnEvent(tick=0, channel=0, data=[76,53]),
   midi.NoteOnEvent(tick=0, channel=0, data=[79,53]),
   midi.NoteOnEvent(tick=20, channel=0, data=[77,0]),
   midi.NoteOnEvent(tick=0, channel=0, data=[69,0]),
   midi.NoteOnEvent(tick=0, channel=0, data=[81,0]),
   midi.NoteOnEvent(tick=220, channel=0, data=[67,0]),
   midi.NoteOnEvent(tick=0, channel=0, data=[76,0]),
   midi.NoteOnEvent(tick=0, channel=0, data=[76,50]),
   midi.NoteOnEvent(tick=0, channel=0, data=[64,50]),
   midi.NoteOnEvent(tick=0, channel=0, data=[72,50]),
   midi.NoteOnEvent(tick=20, channel=0, data=[79,0]),
   midi.NoteOnEvent(tick=590, channel=0, data=[76,0]),
   midi.NoteOnEvent(tick=0, channel=0, data=[64,0]),
   midi.NoteOnEvent(tick=0, channel=0, data=[72,0]),
   midi.NoteOnEvent(tick=20, channel=0, data=[69,56]),
   midi.NoteOnEvent(tick=30, channel=0, data=[72,56]),
   midi.NoteOnEvent(tick=30, channel=0, data=[77,56]),
   midi.NoteOnEvent(tick=30, channel=0, data=[81,56]),
   midi.NoteOnEvent(tick=480, channel=0, data=[81,0]),
   midi.NoteOnEvent(tick=0, channel=0, data=[69,0]),
   midi.NoteOnEvent(tick=0, channel=0, data=[72,0]),
   midi.NoteOnEvent(tick=0, channel=0, data=[77,0]),
   midi.NoteOnEvent(tick=0, channel=0, data=[77,61]),
   midi.NoteOnEvent(tick=0, channel=0, data=[69,61]),
   midi.NoteOnEvent(tick=0, channel=0, data=[81,61]),
   midi.NoteOnEvent(tick=240, channel=0, data=[81,0]),
   midi.NoteOnEvent(tick=0, channel=0, data=[69,0]),
   midi.NoteOnEvent(tick=0, channel=0, data=[77,0]),
   midi.NoteOnEvent(tick=0, channel=0, data=[72,63]),
   midi.NoteOnEvent(tick=0, channel=0, data=[84,63]),
   midi.NoteOnEvent(tick=0, channel=0, data=[81,63]),
   midi.NoteOnEvent(tick=360, channel=0, data=[71,57]),
   midi.NoteOnEvent(tick=0, channel=0, data=[83,57]),
   midi.NoteOnEvent(tick=0, channel=0, data=[79,57]),
   midi.NoteOnEvent(tick=20, channel=0, data=[81,0]),
   midi.NoteOnEvent(tick=0, channel=0, data=[72,0]),
   midi.NoteOnEvent(tick=0, channel=0, data=[84,0]),
   midi.NoteOnEvent(tick=100, channel=0, data=[77,63]),
   midi.NoteOnEvent(tick=0, channel=0, data=[81,63]),
   midi.NoteOnEvent(tick=0, channel=0, data=[69,63]),
   midi.NoteOnEvent(tick=20, channel=0, data=[71,0]),
   midi.NoteOnEvent(tick=0, channel=0, data=[79,0]),
   midi.NoteOnEvent(tick=0, channel=0, data=[83,0]),
   midi.NoteOnEvent(tick=130, channel=0, data=[77,0]),
   midi.NoteOnEvent(tick=0, channel=0, data=[81,0]),
   midi.NoteOnEvent(tick=0, channel=0, data=[69,0]),
   midi.NoteOnEvent(tick=0, channel=0, data=[67,62]),
   midi.NoteOnEvent(tick=30, channel=0, data=[72,62]),
   midi.NoteOnEvent(tick=30, channel=0, data=[76,62]),
   midi.NoteOnEvent(tick=30, channel=0, data=[79,62]),
   midi.NoteOnEvent(tick=360, channel=0, data=[81,50]),
   midi.NoteOnEvent(tick=0, channel=0, data=[69,50]),
   midi.NoteOnEvent(tick=0, channel=0, data=[77,50]),
   midi.NoteOnEvent(tick=20, channel=0, data=[79,0]),
   midi.NoteOnEvent(tick=0, channel=0, data=[76,0]),
   midi.NoteOnEvent(tick=0, channel=0, data=[67,0]),
   midi.NoteOnEvent(tick=0, channel=0, data=[72,0]),
   midi.NoteOnEvent(tick=100, channel=0, data=[67,53]),
   midi.NoteOnEvent(tick=0, channel=0, data=[76,53]),
   midi.NoteOnEvent(tick=0, channel=0, data=[79,53]),
   midi.NoteOnEvent(tick=20, channel=0, data=[77,0]),
   midi.NoteOnEvent(tick=0, channel=0, data=[69,0]),
   midi.NoteOnEvent(tick=0, channel=0, data=[81,0]),
   midi.NoteOnEvent(tick=220, channel=0, data=[67,0]),
   midi.NoteOnEvent(tick=0, channel=0, data=[76,0]),
   midi.NoteOnEvent(tick=0, channel=0, data=[72,50]),
   midi.NoteOnEvent(tick=0, channel=0, data=[76,50]),
   midi.NoteOnEvent(tick=0, channel=0, data=[64,50]),
   midi.NoteOnEvent(tick=20, channel=0, data=[79,0]),
   midi.NoteOnEvent(tick=590, channel=0, data=[72,0]),
   midi.NoteOnEvent(tick=0, channel=0, data=[76,0]),
   midi.NoteOnEvent(tick=0, channel=0, data=[64,0]),
   midi.NoteOnEvent(tick=20, channel=0, data=[74,63]),
   midi.NoteOnEvent(tick=30, channel=0, data=[77,63]),
   midi.NoteOnEvent(tick=30, channel=0, data=[79,63]),
   midi.NoteOnEvent(tick=30, channel=0, data=[86,63]),
   midi.NoteOnEvent(tick=480, channel=0, data=[86,0]),
   midi.NoteOnEvent(tick=0, channel=0, data=[74,0]),
   midi.NoteOnEvent(tick=0, channel=0, data=[77,0]),
   midi.NoteOnEvent(tick=0, channel=0, data=[79,0]),
   midi.NoteOnEvent(tick=0, channel=0, data=[74,63]),
   midi.NoteOnEvent(tick=0, channel=0, data=[86,63]),
   midi.NoteOnEvent(tick=0, channel=0, data=[77,63]),
   midi.NoteOnEvent(tick=180, channel=0, data=[77,70]),
   midi.NoteOnEvent(tick=30, channel=0, data=[83,70]),
   midi.NoteOnEvent(tick=30, channel=0, data=[77,0]),
   midi.NoteOnEvent(tick=0, channel=0, data=[74,0]),
   midi.NoteOnEvent(tick=0, channel=0, data=[86,0]),
   midi.NoteOnEvent(tick=0, channel=0, data=[89,70]),
   midi.NoteOnEvent(tick=360, channel=0, data=[77,64]),
   midi.NoteOnEvent(tick=0, channel=0, data=[74,64]),
   midi.NoteOnEvent(tick=0, channel=0, data=[86,64]),
   midi.NoteOnEvent(tick=20, channel=0, data=[89,0]),
   midi.NoteOnEvent(tick=100, channel=0, data=[83,0]),
   midi.NoteOnEvent(tick=0, channel=0, data=[77,0]),
   midi.NoteOnEvent(tick=0, channel=0, data=[71,64]),
   midi.NoteOnEvent(tick=0, channel=0, data=[77,64]),
   midi.NoteOnEvent(tick=0, channel=0, data=[83,64]),
   midi.NoteOnEvent(tick=20, channel=0, data=[77,0]),
   midi.NoteOnEvent(tick=0, channel=0, data=[86,0]),
   midi.NoteOnEvent(tick=0, channel=0, data=[74,0]),
   midi.NoteOnEvent(tick=130, channel=0, data=[71,0]),
   midi.NoteOnEvent(tick=0, channel=0, data=[77,0]),
   midi.NoteOnEvent(tick=0, channel=0, data=[83,0]),
   midi.NoteOnEvent(tick=0, channel=0, data=[72,61]),
   midi.NoteOnEvent(tick=30, channel=0, data=[76,61]),
   midi.NoteOnEvent(tick=30, channel=0, data=[79,61]),
   midi.NoteOnEvent(tick=30, channel=0, data=[84,61]),
   midi.NoteOnEvent(tick=720, channel=0, data=[79,50]),
   midi.NoteOnEvent(tick=0, channel=0, data=[88,50]),
   midi.NoteOnEvent(tick=0, channel=0, data=[76,50]),
   midi.NoteOnEvent(tick=20, channel=0, data=[84,0]),
   midi.NoteOnEvent(tick=0, channel=0, data=[79,0]),
   midi.NoteOnEvent(tick=0, channel=0, data=[72,0]),
   midi.NoteOnEvent(tick=0, channel=0, data=[76,0]),
   midi.NoteOnEvent(tick=610, channel=0, data=[76,0]),
   midi.NoteOnEvent(tick=0, channel=0, data=[79,0]),
   midi.NoteOnEvent(tick=0, channel=0, data=[88,0]),
   midi.NoteOnEvent(tick=0, channel=0, data=[72,50]),
   midi.NoteOnEvent(tick=30, channel=0, data=[76,50]),
   midi.NoteOnEvent(tick=30, channel=0, data=[79,50]),
   midi.NoteOnEvent(tick=30, channel=0, data=[84,50]),
   midi.NoteOnEvent(tick=360, channel=0, data=[67,47]),
   midi.NoteOnEvent(tick=0, channel=0, data=[76,47]),
   midi.NoteOnEvent(tick=0, channel=0, data=[79,47]),
   midi.NoteOnEvent(tick=20, channel=0, data=[84,0]),
   midi.NoteOnEvent(tick=0, channel=0, data=[79,0]),
   midi.NoteOnEvent(tick=0, channel=0, data=[72,0]),
   midi.NoteOnEvent(tick=0, channel=0, data=[76,0]),
   midi.NoteOnEvent(tick=100, channel=0, data=[76,47]),
   midi.NoteOnEvent(tick=0, channel=0, data=[72,47]),
   midi.NoteOnEvent(tick=0, channel=0, data=[64,47]),
   midi.NoteOnEvent(tick=20, channel=0, data=[79,0]),
   midi.NoteOnEvent(tick=0, channel=0, data=[76,0]),
   midi.NoteOnEvent(tick=0, channel=0, data=[67,0]),
   midi.NoteOnEvent(tick=130, channel=0, data=[76,0]),
   midi.NoteOnEvent(tick=0, channel=0, data=[72,0]),
   midi.NoteOnEvent(tick=0, channel=0, data=[64,0]),
   midi.NoteOnEvent(tick=0, channel=0, data=[67,51]),
   midi.NoteOnEvent(tick=30, channel=0, data=[71,51]),
   midi.NoteOnEvent(tick=30, channel=0, data=[74,51]),
   midi.NoteOnEvent(tick=30, channel=0, data=[79,51]),
   midi.NoteOnEvent(tick=360, channel=0, data=[74,0]),
   midi.NoteOnEvent(tick=0, channel=0, data=[77,46]),
   midi.NoteOnEvent(tick=0, channel=0, data=[65,46]),
   midi.NoteOnEvent(tick=20, channel=0, data=[79,0]),
   midi.NoteOnEvent(tick=100, channel=0, data=[67,0]),
   midi.NoteOnEvent(tick=0, channel=0, data=[65,0]),
   midi.NoteOnEvent(tick=0, channel=0, data=[71,0]),
   midi.NoteOnEvent(tick=0, channel=0, data=[62,42]),
   midi.NoteOnEvent(tick=0, channel=0, data=[71,42]),
   midi.NoteOnEvent(tick=0, channel=0, data=[74,42]),
   midi.NoteOnEvent(tick=20, channel=0, data=[77,0]),
   midi.NoteOnEvent(tick=190, channel=0, data=[62,0]),
   midi.NoteOnEvent(tick=0, channel=0, data=[71,0]),
   midi.NoteOnEvent(tick=0, channel=0, data=[74,0]),
   midi.NoteOnEvent(tick=30, channel=0, data=[67,42]),
   midi.NoteOnEvent(tick=0, channel=0, data=[72,42]),
   midi.NoteOnEvent(tick=0, channel=0, data=[60,42]),
   midi.NoteOnEvent(tick=0, channel=0, data=[64,42]),
   midi.NoteOnEvent(tick=720, channel=0, data=[64,0]),
   midi.NoteOnEvent(tick=0, channel=0, data=[67,0]),
   midi.NoteOnEvent(tick=0, channel=0, data=[72,0]),
   midi.NoteOnEvent(tick=0, channel=0, data=[60,0]),
   midi.NoteOnEvent(tick=630, channel=0, data=[68,71]),
   midi.NoteOnEvent(tick=30, channel=0, data=[72,71]),
   midi.NoteOnEvent(tick=30, channel=0, data=[77,71]),
   midi.NoteOnEvent(tick=30, channel=0, data=[80,71]),
   midi.NoteOnEvent(tick=720, channel=0, data=[80,0]),
   midi.NoteOnEvent(tick=0, channel=0, data=[68,0]),
   midi.NoteOnEvent(tick=0, channel=0, data=[72,0]),
   midi.NoteOnEvent(tick=0, channel=0, data=[77,0]),
   midi.NoteOnEvent(tick=0, channel=0, data=[68,67]),
   midi.NoteOnEvent(tick=0, channel=0, data=[72,67]),
   midi.NoteOnEvent(tick=0, channel=0, data=[77,67]),
   midi.NoteOnEvent(tick=0, channel=0, data=[80,67]),
   midi.NoteOnEvent(tick=480, channel=0, data=[80,0]),
   midi.NoteOnEvent(tick=0, channel=0, data=[68,0]),
   midi.NoteOnEvent(tick=0, channel=0, data=[72,0]),
   midi.NoteOnEvent(tick=0, channel=0, data=[77,0]),
   midi.NoteOnEvent(tick=0, channel=0, data=[77,67]),
   midi.NoteOnEvent(tick=0, channel=0, data=[80,67]),
   midi.NoteOnEvent(tick=0, channel=0, data=[72,67]),
   midi.NoteOnEvent(tick=0, channel=0, data=[68,67]),
   midi.NoteOnEvent(tick=240, channel=0, data=[68,0]),
   midi.NoteOnEvent(tick=0, channel=0, data=[77,0]),
   midi.NoteOnEvent(tick=0, channel=0, data=[80,0]),
   midi.NoteOnEvent(tick=0, channel=0, data=[72,0]),
   midi.NoteOnEvent(tick=0, channel=0, data=[67,69]),
   midi.NoteOnEvent(tick=0, channel=0, data=[72,69]),
   midi.NoteOnEvent(tick=0, channel=0, data=[79,69]),
   midi.NoteOnEvent(tick=0, channel=0, data=[76,69]),
   midi.NoteOnEvent(tick=1350, channel=0, data=[76,0]),
   midi.NoteOnEvent(tick=0, channel=0, data=[67,0]),
   midi.NoteOnEvent(tick=0, channel=0, data=[72,0]),
   midi.NoteOnEvent(tick=0, channel=0, data=[79,0]),
   midi.NoteOnEvent(tick=0, channel=0, data=[72,73]),
   midi.NoteOnEvent(tick=30, channel=0, data=[77,73]),
   midi.NoteOnEvent(tick=30, channel=0, data=[80,73]),
   midi.NoteOnEvent(tick=30, channel=0, data=[84,73]),
   midi.NoteOnEvent(tick=720, channel=0, data=[84,0]),
   midi.NoteOnEvent(tick=0, channel=0, data=[72,0]),
   midi.NoteOnEvent(tick=0, channel=0, data=[77,0]),
   midi.NoteOnEvent(tick=0, channel=0, data=[80,0]),
   midi.NoteOnEvent(tick=0, channel=0, data=[80,75]),
   midi.NoteOnEvent(tick=0, channel=0, data=[77,75]),
   midi.NoteOnEvent(tick=0, channel=0, data=[72,75]),
   midi.NoteOnEvent(tick=0, channel=0, data=[84,75]),
   midi.NoteOnEvent(tick=480, channel=0, data=[84,0]),
   midi.NoteOnEvent(tick=0, channel=0, data=[80,0]),
   midi.NoteOnEvent(tick=0, channel=0, data=[77,0]),
   midi.NoteOnEvent(tick=0, channel=0, data=[72,0]),
   midi.NoteOnEvent(tick=0, channel=0, data=[84,81]),
   midi.NoteOnEvent(tick=0, channel=0, data=[80,72]),
   midi.NoteOnEvent(tick=0, channel=0, data=[72,81]),
   midi.NoteOnEvent(tick=0, channel=0, data=[77,81]),
   midi.NoteOnEvent(tick=240, channel=0, data=[77,0]),
   midi.NoteOnEvent(tick=0, channel=0, data=[84,0]),
   midi.NoteOnEvent(tick=0, channel=0, data=[80,0]),
   midi.NoteOnEvent(tick=0, channel=0, data=[72,0]),
   midi.NoteOnEvent(tick=0, channel=0, data=[84,91]),
   midi.NoteOnEvent(tick=0, channel=0, data=[72,82]),
   midi.NoteOnEvent(tick=0, channel=0, data=[79,81]),
   midi.NoteOnEvent(tick=0, channel=0, data=[76,82]),
   midi.NoteOnEvent(tick=720, channel=0, data=[76,0]),
   midi.NoteOnEvent(tick=0, channel=0, data=[84,0]),
   midi.NoteOnEvent(tick=0, channel=0, data=[72,0]),
   midi.NoteOnEvent(tick=0, channel=0, data=[79,0]),
   midi.NoteOnEvent(tick=0, channel=0, data=[84,83]),
   midi.NoteOnEvent(tick=0, channel=0, data=[79,83]),
   midi.NoteOnEvent(tick=0, channel=0, data=[91,92]),
   midi.NoteOnEvent(tick=0, channel=0, data=[88,82]),
   midi.NoteOnEvent(tick=720, channel=0, data=[88,0]),
   midi.NoteOnEvent(tick=0, channel=0, data=[84,0]),
   midi.NoteOnEvent(tick=0, channel=0, data=[79,0]),
   midi.NoteOnEvent(tick=0, channel=0, data=[91,0]),
   midi.NoteOnEvent(tick=0, channel=0, data=[96,96]),
   midi.NoteOnEvent(tick=0, channel=0, data=[84,89]),
   midi.NoteOnEvent(tick=0, channel=0, data=[91,89]),
   midi.NoteOnEvent(tick=0, channel=0, data=[88,89]),
   midi.NoteOnEvent(tick=930, channel=0, data=[88,0]),
   midi.NoteOnEvent(tick=0, channel=0, data=[96,0]),
   midi.NoteOnEvent(tick=0, channel=0, data=[84,0]),
   midi.NoteOnEvent(tick=0, channel=0, data=[91,0]),
   midi.NoteOnEvent(tick=30, channel=0, data=[84,45]),
   midi.NoteOnEvent(tick=0, channel=0, data=[81,38]),
   midi.NoteOnEvent(tick=0, channel=0, data=[76,38]),
   midi.NoteOnEvent(tick=960, channel=0, data=[76,0]),
   midi.NoteOnEvent(tick=0, channel=0, data=[81,0]),
   midi.NoteOnEvent(tick=0, channel=0, data=[84,0]),
   midi.NoteOnEvent(tick=0, channel=0, data=[83,37]),
   midi.NoteOnEvent(tick=0, channel=0, data=[79,31]),
   midi.NoteOnEvent(tick=0, channel=0, data=[76,31]),
   midi.NoteOnEvent(tick=960, channel=0, data=[76,0]),
   midi.NoteOnEvent(tick=0, channel=0, data=[79,0]),
   midi.NoteOnEvent(tick=0, channel=0, data=[83,0]),
   midi.NoteOnEvent(tick=0, channel=0, data=[77,41]),
   midi.NoteOnEvent(tick=0, channel=0, data=[72,41]),
   midi.NoteOnEvent(tick=0, channel=0, data=[81,49]),
   midi.NoteOnEvent(tick=960, channel=0, data=[81,0]),
   midi.NoteOnEvent(tick=0, channel=0, data=[72,0]),
   midi.NoteOnEvent(tick=0, channel=0, data=[77,0]),
   midi.NoteOnEvent(tick=0, channel=0, data=[76,53]),
   midi.NoteOnEvent(tick=0, channel=0, data=[72,53]),
   midi.NoteOnEvent(tick=0, channel=0, data=[79,63]),
   midi.NoteOnEvent(tick=960, channel=0, data=[79,0]),
   midi.NoteOnEvent(tick=0, channel=0, data=[72,0]),
   midi.NoteOnEvent(tick=0, channel=0, data=[76,0]),
   midi.NoteOnEvent(tick=0, channel=0, data=[81,74]),
   midi.NoteOnEvent(tick=0, channel=0, data=[73,62]),
   midi.NoteOnEvent(tick=0, channel=0, data=[76,62]),
   midi.NoteOnEvent(tick=960, channel=0, data=[76,0]),
   midi.NoteOnEvent(tick=0, channel=0, data=[73,0]),
   midi.NoteOnEvent(tick=0, channel=0, data=[81,0]),
   midi.NoteOnEvent(tick=0, channel=0, data=[74,70]),
   midi.NoteOnEvent(tick=0, channel=0, data=[77,83]),
   midi.NoteOnEvent(tick=960, channel=0, data=[77,0]),
   midi.NoteOnEvent(tick=0, channel=0, data=[74,0]),
   midi.NoteOnEvent(tick=0, channel=0, data=[74,91]),
   midi.NoteOnEvent(tick=0, channel=0, data=[71,77]),
   midi.NoteOnEvent(tick=960, channel=0, data=[71,0]),
   midi.NoteOnEvent(tick=0, channel=0, data=[74,0]),
   midi.NoteOnEvent(tick=0, channel=0, data=[72,82]),
   midi.NoteOnEvent(tick=0, channel=0, data=[60,73]),
   midi.NoteOnEvent(tick=0, channel=0, data=[67,73]),
   midi.NoteOnEvent(tick=0, channel=0, data=[64,73]),
   midi.NoteOnEvent(tick=240, channel=0, data=[64,67]),
   midi.NoteOnEvent(tick=40, channel=0, data=[64,0]),
   midi.NoteOnEvent(tick=0, channel=0, data=[67,61]),
   midi.NoteOnEvent(tick=40, channel=0, data=[67,0]),
   midi.NoteOnEvent(tick=0, channel=0, data=[72,61]),
   midi.NoteOnEvent(tick=40, channel=0, data=[72,0]),
   midi.NoteOnEvent(tick=0, channel=0, data=[76,67]),
   midi.NoteOnEvent(tick=40, channel=0, data=[76,0]),
   midi.NoteOnEvent(tick=0, channel=0, data=[72,61]),
   midi.NoteOnEvent(tick=40, channel=0, data=[72,0]),
   midi.NoteOnEvent(tick=0, channel=0, data=[67,61]),
   midi.NoteOnEvent(tick=40, channel=0, data=[67,0]),
   midi.NoteOnEvent(tick=0, channel=0, data=[64,0]),
   midi.NoteOnEvent(tick=0, channel=0, data=[72,0]),
   midi.NoteOnEvent(tick=0, channel=0, data=[60,0]),
   midi.NoteOnEvent(tick=0, channel=0, data=[67,0]),
   midi.NoteOnEvent(tick=240, channel=0, data=[76,75]),
   midi.NoteOnEvent(tick=40, channel=0, data=[76,0]),
   midi.NoteOnEvent(tick=0, channel=0, data=[79,69]),
   midi.NoteOnEvent(tick=40, channel=0, data=[79,0]),
   midi.NoteOnEvent(tick=0, channel=0, data=[84,70]),
   midi.NoteOnEvent(tick=40, channel=0, data=[84,0]),
   midi.NoteOnEvent(tick=0, channel=0, data=[88,82]),
   midi.NoteOnEvent(tick=40, channel=0, data=[88,0]),
   midi.NoteOnEvent(tick=0, channel=0, data=[84,73]),
   midi.NoteOnEvent(tick=40, channel=0, data=[84,0]),
   midi.NoteOnEvent(tick=0, channel=0, data=[79,73]),
   midi.NoteOnEvent(tick=40, channel=0, data=[79,0]),
   midi.NoteOnEvent(tick=240, channel=0, data=[88,82]),
   midi.NoteOnEvent(tick=40, channel=0, data=[88,0]),
   midi.NoteOnEvent(tick=0, channel=0, data=[91,75]),
   midi.NoteOnEvent(tick=40, channel=0, data=[91,0]),
   midi.NoteOnEvent(tick=0, channel=0, data=[96,75]),
   midi.NoteOnEvent(tick=40, channel=0, data=[96,0]),
   midi.NoteOnEvent(tick=0, channel=0, data=[100,82]),
   midi.NoteOnEvent(tick=40, channel=0, data=[100,0]),
   midi.NoteOnEvent(tick=0, channel=0, data=[96,75]),
   midi.NoteOnEvent(tick=40, channel=0, data=[96,0]),
   midi.NoteOnEvent(tick=0, channel=0, data=[91,75]),
   midi.NoteOnEvent(tick=40, channel=0, data=[91,0]),
   midi.NoteOnEvent(tick=240, channel=0, data=[88,83]),
   midi.NoteOnEvent(tick=40, channel=0, data=[88,0]),
   midi.NoteOnEvent(tick=0, channel=0, data=[91,79]),
   midi.NoteOnEvent(tick=40, channel=0, data=[91,0]),
   midi.NoteOnEvent(tick=0, channel=0, data=[96,79]),
   midi.NoteOnEvent(tick=40, channel=0, data=[96,0]),
   midi.NoteOnEvent(tick=0, channel=0, data=[100,86]),
   midi.NoteOnEvent(tick=40, channel=0, data=[100,0]),
   midi.NoteOnEvent(tick=0, channel=0, data=[96,82]),
   midi.NoteOnEvent(tick=40, channel=0, data=[96,0]),
   midi.NoteOnEvent(tick=0, channel=0, data=[91,82]),
   midi.NoteOnEvent(tick=40, channel=0, data=[91,0]),
   midi.NoteOnEvent(tick=0, channel=0, data=[96,102]),
   midi.NoteOnEvent(tick=0, channel=0, data=[88,91]),
   midi.NoteOnEvent(tick=960, channel=0, data=[88,0]),
   midi.NoteOnEvent(tick=0, channel=0, data=[96,0]),
   midi.NoteOnEvent(tick=0, channel=0, data=[84,99]),
   midi.NoteOnEvent(tick=0, channel=0, data=[76,88]),
   midi.NoteOnEvent(tick=0, channel=0, data=[79,89]),
   midi.NoteOnEvent(tick=960, channel=0, data=[79,0]),
   midi.NoteOnEvent(tick=0, channel=0, data=[76,0]),
   midi.NoteOnEvent(tick=0, channel=0, data=[84,0]),
   midi.NoteOnEvent(tick=0, channel=0, data=[64,88]),
   midi.NoteOnEvent(tick=0, channel=0, data=[67,89]),
   midi.NoteOnEvent(tick=0, channel=0, data=[72,99]),
   midi.NoteOnEvent(tick=960, channel=0, data=[72,0]),
   midi.NoteOnEvent(tick=0, channel=0, data=[67,0]),
   midi.NoteOnEvent(tick=0, channel=0, data=[64,0]),
   midi.NoteOnEvent(tick=0, channel=0, data=[55,85]),
   midi.NoteOnEvent(tick=0, channel=0, data=[52,84]),
   midi.NoteOnEvent(tick=0, channel=0, data=[60,95]),
   midi.NoteOnEvent(tick=960, channel=0, data=[60,0]),
   midi.NoteOnEvent(tick=0, channel=0, data=[52,0]),
   midi.NoteOnEvent(tick=0, channel=0, data=[55,0]),
   midi.NoteOnEvent(tick=0, channel=0, data=[48,104]),
   midi.NoteOnEvent(tick=1920, channel=0, data=[48,0]),
   midi.EndOfTrackEvent(tick=0, channel=0, data=[0,0])]),
 midi.Track(\
[   midi.ControlChangeEvent(tick=0, channel=0, data=[7,100]),
   midi.ControlChangeEvent(tick=0, channel=0, data=[10,64]),
   midi.ControlChangeEvent(tick=0, channel=0, data=[64,127]),
   midi.NoteOnEvent(tick=0, channel=0, data=[31,33]),
   midi.NoteOnEvent(tick=60, channel=0, data=[43,24]),
   midi.NoteOnEvent(tick=10, channel=0, data=[31,0]),
   midi.NoteOnEvent(tick=50, channel=0, data=[43,0]),
   midi.NoteOnEvent(tick=0, channel=0, data=[31,33]),
   midi.NoteOnEvent(tick=60, channel=0, data=[43,24]),
   midi.NoteOnEvent(tick=10, channel=0, data=[31,0]),
   midi.NoteOnEvent(tick=50, channel=0, data=[43,0]),
   midi.NoteOnEvent(tick=0, channel=0, data=[31,33]),
   midi.NoteOnEvent(tick=60, channel=0, data=[43,24]),
   midi.NoteOnEvent(tick=10, channel=0, data=[31,0]),
   midi.NoteOnEvent(tick=50, channel=0, data=[43,0]),
   midi.NoteOnEvent(tick=0, channel=0, data=[31,33]),
   midi.NoteOnEvent(tick=60, channel=0, data=[43,24]),
   midi.NoteOnEvent(tick=10, channel=0, data=[31,0]),
   midi.NoteOnEvent(tick=50, channel=0, data=[43,0]),
   midi.NoteOnEvent(tick=0, channel=0, data=[31,33]),
   midi.NoteOnEvent(tick=60, channel=0, data=[43,24]),
   midi.NoteOnEvent(tick=10, channel=0, data=[31,0]),
   midi.NoteOnEvent(tick=50, channel=0, data=[43,0]),
   midi.NoteOnEvent(tick=0, channel=0, data=[31,33]),
   midi.NoteOnEvent(tick=60, channel=0, data=[43,24]),
   midi.NoteOnEvent(tick=10, channel=0, data=[31,0]),
   midi.NoteOnEvent(tick=50, channel=0, data=[43,0]),
   midi.NoteOnEvent(tick=0, channel=0, data=[31,33]),
   midi.NoteOnEvent(tick=60, channel=0, data=[43,24]),
   midi.NoteOnEvent(tick=10, channel=0, data=[31,0]),
   midi.NoteOnEvent(tick=50, channel=0, data=[43,0]),
   midi.NoteOnEvent(tick=0, channel=0, data=[31,33]),
   midi.NoteOnEvent(tick=60, channel=0, data=[43,24]),
   midi.NoteOnEvent(tick=10, channel=0, data=[31,0]),
   midi.NoteOnEvent(tick=50, channel=0, data=[43,0]),
   midi.NoteOnEvent(tick=0, channel=0, data=[31,33]),
   midi.NoteOnEvent(tick=60, channel=0, data=[43,24]),
   midi.NoteOnEvent(tick=10, channel=0, data=[31,0]),
   midi.NoteOnEvent(tick=50, channel=0, data=[43,0]),
   midi.NoteOnEvent(tick=0, channel=0, data=[31,33]),
   midi.NoteOnEvent(tick=60, channel=0, data=[43,24]),
   midi.NoteOnEvent(tick=10, channel=0, data=[31,0]),
   midi.NoteOnEvent(tick=50, channel=0, data=[43,0]),
   midi.NoteOnEvent(tick=0, channel=0, data=[31,33]),
   midi.NoteOnEvent(tick=60, channel=0, data=[43,24]),
   midi.NoteOnEvent(tick=10, channel=0, data=[31,0]),
   midi.NoteOnEvent(tick=50, channel=0, data=[43,0]),
   midi.NoteOnEvent(tick=0, channel=0, data=[31,33]),
   midi.NoteOnEvent(tick=60, channel=0, data=[43,24]),
   midi.NoteOnEvent(tick=10, channel=0, data=[31,0]),
   midi.NoteOnEvent(tick=50, channel=0, data=[43,0]),
   midi.NoteOnEvent(tick=0, channel=0, data=[31,33]),
   midi.NoteOnEvent(tick=60, channel=0, data=[43,24]),
   midi.NoteOnEvent(tick=10, channel=0, data=[31,0]),
   midi.NoteOnEvent(tick=50, channel=0, data=[43,0]),
   midi.NoteOnEvent(tick=0, channel=0, data=[31,33]),
   midi.NoteOnEvent(tick=60, channel=0, data=[43,24]),
   midi.NoteOnEvent(tick=10, channel=0, data=[31,0]),
   midi.NoteOnEvent(tick=50, channel=0, data=[43,0]),
   midi.NoteOnEvent(tick=0, channel=0, data=[31,33]),
   midi.NoteOnEvent(tick=60, channel=0, data=[43,24]),
   midi.NoteOnEvent(tick=10, channel=0, data=[31,0]),
   midi.NoteOnEvent(tick=50, channel=0, data=[43,0]),
   midi.NoteOnEvent(tick=0, channel=0, data=[31,33]),
   midi.NoteOnEvent(tick=60, channel=0, data=[43,24]),
   midi.NoteOnEvent(tick=10, channel=0, data=[31,0]),
   midi.NoteOnEvent(tick=50, channel=0, data=[43,0]),
   midi.NoteOnEvent(tick=0, channel=0, data=[31,33]),
   midi.ControlChangeEvent(tick=3, channel=0, data=[64,0]),
   midi.ControlChangeEvent(tick=53, channel=0, data=[64,127]),
   midi.NoteOnEvent(tick=4, channel=0, data=[43,24]),
   midi.NoteOnEvent(tick=10, channel=0, data=[31,0]),
   midi.NoteOnEvent(tick=50, channel=0, data=[43,0]),
   midi.NoteOnEvent(tick=0, channel=0, data=[31,33]),
   midi.NoteOnEvent(tick=60, channel=0, data=[43,24]),
   midi.NoteOnEvent(tick=10, channel=0, data=[31,0]),
   midi.NoteOnEvent(tick=50, channel=0, data=[43,0]),
   midi.NoteOnEvent(tick=0, channel=0, data=[31,33]),
   midi.NoteOnEvent(tick=60, channel=0, data=[43,24]),
   midi.NoteOnEvent(tick=10, channel=0, data=[31,0]),
   midi.NoteOnEvent(tick=50, channel=0, data=[43,0]),
   midi.NoteOnEvent(tick=0, channel=0, data=[31,33]),
   midi.NoteOnEvent(tick=60, channel=0, data=[43,24]),
   midi.NoteOnEvent(tick=10, channel=0, data=[31,0]),
   midi.NoteOnEvent(tick=50, channel=0, data=[43,0]),
   midi.NoteOnEvent(tick=0, channel=0, data=[31,33]),
   midi.NoteOnEvent(tick=60, channel=0, data=[43,24]),
   midi.NoteOnEvent(tick=10, channel=0, data=[31,0]),
   midi.NoteOnEvent(tick=50, channel=0, data=[43,0]),
   midi.NoteOnEvent(tick=0, channel=0, data=[31,33]),
   midi.NoteOnEvent(tick=60, channel=0, data=[43,24]),
   midi.NoteOnEvent(tick=10, channel=0, data=[31,0]),
   midi.NoteOnEvent(tick=50, channel=0, data=[43,0]),
   midi.NoteOnEvent(tick=0, channel=0, data=[31,33]),
   midi.NoteOnEvent(tick=60, channel=0, data=[43,24]),
   midi.NoteOnEvent(tick=10, channel=0, data=[31,0]),
   midi.NoteOnEvent(tick=50, channel=0, data=[43,0]),
   midi.NoteOnEvent(tick=0, channel=0, data=[31,33]),
   midi.NoteOnEvent(tick=60, channel=0, data=[43,24]),
   midi.NoteOnEvent(tick=10, channel=0, data=[31,0]),
   midi.NoteOnEvent(tick=50, channel=0, data=[43,0]),
   midi.NoteOnEvent(tick=0, channel=0, data=[31,33]),
   midi.ControlChangeEvent(tick=5, channel=0, data=[64,0]),
   midi.NoteOnEvent(tick=55, channel=0, data=[43,24]),
   midi.ControlChangeEvent(tick=7, channel=0, data=[64,127]),
   midi.NoteOnEvent(tick=3, channel=0, data=[31,0]),
   midi.NoteOnEvent(tick=50, channel=0, data=[43,0]),
   midi.NoteOnEvent(tick=0, channel=0, data=[31,33]),
   midi.NoteOnEvent(tick=60, channel=0, data=[43,24]),
   midi.NoteOnEvent(tick=10, channel=0, data=[31,0]),
   midi.NoteOnEvent(tick=50, channel=0, data=[43,0]),
   midi.NoteOnEvent(tick=0, channel=0, data=[31,33]),
   midi.NoteOnEvent(tick=60, channel=0, data=[43,24]),
   midi.NoteOnEvent(tick=10, channel=0, data=[31,0]),
   midi.NoteOnEvent(tick=50, channel=0, data=[43,0]),
   midi.NoteOnEvent(tick=0, channel=0, data=[31,34]),
   midi.NoteOnEvent(tick=60, channel=0, data=[43,25]),
   midi.NoteOnEvent(tick=10, channel=0, data=[31,0]),
   midi.NoteOnEvent(tick=50, channel=0, data=[43,0]),
   midi.NoteOnEvent(tick=0, channel=0, data=[31,34]),
   midi.NoteOnEvent(tick=60, channel=0, data=[43,25]),
   midi.NoteOnEvent(tick=10, channel=0, data=[31,0]),
   midi.NoteOnEvent(tick=50, channel=0, data=[43,0]),
   midi.NoteOnEvent(tick=0, channel=0, data=[31,34]),
   midi.NoteOnEvent(tick=60, channel=0, data=[43,25]),
   midi.NoteOnEvent(tick=10, channel=0, data=[31,0]),
   midi.NoteOnEvent(tick=50, channel=0, data=[43,0]),
   midi.NoteOnEvent(tick=0, channel=0, data=[31,35]),
   midi.NoteOnEvent(tick=60, channel=0, data=[43,26]),
   midi.NoteOnEvent(tick=10, channel=0, data=[31,0]),
   midi.NoteOnEvent(tick=50, channel=0, data=[43,0]),
   midi.NoteOnEvent(tick=0, channel=0, data=[31,35]),
   midi.NoteOnEvent(tick=60, channel=0, data=[43,27]),
   midi.NoteOnEvent(tick=10, channel=0, data=[31,0]),
   midi.NoteOnEvent(tick=50, channel=0, data=[43,0]),
   midi.NoteOnEvent(tick=0, channel=0, data=[31,37]),
   midi.ControlChangeEvent(tick=0, channel=0, data=[64,0]),
   midi.ControlChangeEvent(tick=56, channel=0, data=[64,127]),
   midi.NoteOnEvent(tick=4, channel=0, data=[43,27]),
   midi.NoteOnEvent(tick=10, channel=0, data=[31,0]),
   midi.NoteOnEvent(tick=50, channel=0, data=[43,0]),
   midi.NoteOnEvent(tick=0, channel=0, data=[31,37]),
   midi.NoteOnEvent(tick=60, channel=0, data=[43,27]),
   midi.NoteOnEvent(tick=10, channel=0, data=[31,0]),
   midi.NoteOnEvent(tick=50, channel=0, data=[43,0]),
   midi.NoteOnEvent(tick=0, channel=0, data=[31,37]),
   midi.NoteOnEvent(tick=60, channel=0, data=[43,27]),
   midi.NoteOnEvent(tick=10, channel=0, data=[31,0]),
   midi.NoteOnEvent(tick=50, channel=0, data=[43,0]),
   midi.NoteOnEvent(tick=0, channel=0, data=[31,38]),
   midi.NoteOnEvent(tick=60, channel=0, data=[43,27]),
   midi.NoteOnEvent(tick=10, channel=0, data=[31,0]),
   midi.NoteOnEvent(tick=50, channel=0, data=[43,0]),
   midi.NoteOnEvent(tick=0, channel=0, data=[31,38]),
   midi.NoteOnEvent(tick=60, channel=0, data=[43,27]),
   midi.NoteOnEvent(tick=10, channel=0, data=[31,0]),
   midi.NoteOnEvent(tick=50, channel=0, data=[43,0]),
   midi.NoteOnEvent(tick=0, channel=0, data=[31,38]),
   midi.NoteOnEvent(tick=60, channel=0, data=[43,27]),
   midi.NoteOnEvent(tick=10, channel=0, data=[31,0]),
   midi.NoteOnEvent(tick=50, channel=0, data=[43,0]),
   midi.NoteOnEvent(tick=0, channel=0, data=[31,38]),
   midi.NoteOnEvent(tick=60, channel=0, data=[43,28]),
   midi.NoteOnEvent(tick=10, channel=0, data=[31,0]),
   midi.NoteOnEvent(tick=50, channel=0, data=[43,0]),
   midi.NoteOnEvent(tick=0, channel=0, data=[31,38]),
   midi.NoteOnEvent(tick=60, channel=0, data=[43,28]),
   midi.NoteOnEvent(tick=10, channel=0, data=[31,0]),
   midi.NoteOnEvent(tick=50, channel=0, data=[43,0]),
   midi.NoteOnEvent(tick=0, channel=0, data=[31,46]),
   midi.ControlChangeEvent(tick=7, channel=0, data=[64,0]),
   midi.ControlChangeEvent(tick=53, channel=0, data=[64,127]),
   midi.NoteOnEvent(tick=0, channel=0, data=[43,34]),
   midi.NoteOnEvent(tick=10, channel=0, data=[31,0]),
   midi.NoteOnEvent(tick=50, channel=0, data=[43,0]),
   midi.NoteOnEvent(tick=0, channel=0, data=[31,46]),
   midi.NoteOnEvent(tick=60, channel=0, data=[43,35]),
   midi.NoteOnEvent(tick=10, channel=0, data=[31,0]),
   midi.NoteOnEvent(tick=50, channel=0, data=[43,0]),
   midi.NoteOnEvent(tick=0, channel=0, data=[31,49]),
   midi.NoteOnEvent(tick=60, channel=0, data=[43,37]),
   midi.NoteOnEvent(tick=10, channel=0, data=[31,0]),
   midi.NoteOnEvent(tick=50, channel=0, data=[43,0]),
   midi.NoteOnEvent(tick=0, channel=0, data=[31,49]),
   midi.NoteOnEvent(tick=60, channel=0, data=[43,37]),
   midi.NoteOnEvent(tick=10, channel=0, data=[31,0]),
   midi.NoteOnEvent(tick=50, channel=0, data=[43,0]),
   midi.NoteOnEvent(tick=0, channel=0, data=[31,49]),
   midi.ControlChangeEvent(tick=7, channel=0, data=[64,0]),
   midi.NoteOnEvent(tick=53, channel=0, data=[43,37]),
   midi.ControlChangeEvent(tick=7, channel=0, data=[64,127]),
   midi.NoteOnEvent(tick=3, channel=0, data=[31,0]),
   midi.NoteOnEvent(tick=50, channel=0, data=[43,0]),
   midi.NoteOnEvent(tick=0, channel=0, data=[31,50]),
   midi.NoteOnEvent(tick=60, channel=0, data=[43,38]),
   midi.NoteOnEvent(tick=10, channel=0, data=[31,0]),
   midi.NoteOnEvent(tick=50, channel=0, data=[43,0]),
   midi.NoteOnEvent(tick=0, channel=0, data=[31,50]),
   midi.NoteOnEvent(tick=60, channel=0, data=[43,39]),
   midi.NoteOnEvent(tick=10, channel=0, data=[31,0]),
   midi.NoteOnEvent(tick=50, channel=0, data=[43,0]),
   midi.NoteOnEvent(tick=0, channel=0, data=[31,51]),
   midi.NoteOnEvent(tick=60, channel=0, data=[43,39]),
   midi.NoteOnEvent(tick=10, channel=0, data=[31,0]),
   midi.NoteOnEvent(tick=50, channel=0, data=[43,0]),
   midi.ControlChangeEvent(tick=0, channel=0, data=[64,0]),
   midi.NoteOnEvent(tick=0, channel=0, data=[31,51]),
   midi.ControlChangeEvent(tick=49, channel=0, data=[64,127]),
   midi.NoteOnEvent(tick=11, channel=0, data=[43,39]),
   midi.NoteOnEvent(tick=10, channel=0, data=[31,0]),
   midi.NoteOnEvent(tick=50, channel=0, data=[43,0]),
   midi.NoteOnEvent(tick=0, channel=0, data=[31,53]),
   midi.NoteOnEvent(tick=60, channel=0, data=[43,39]),
   midi.NoteOnEvent(tick=10, channel=0, data=[31,0]),
   midi.NoteOnEvent(tick=50, channel=0, data=[43,0]),
   midi.NoteOnEvent(tick=0, channel=0, data=[31,53]),
   midi.NoteOnEvent(tick=60, channel=0, data=[43,41]),
   midi.NoteOnEvent(tick=10, channel=0, data=[31,0]),
   midi.NoteOnEvent(tick=50, channel=0, data=[43,0]),
   midi.NoteOnEvent(tick=0, channel=0, data=[31,53]),
   midi.NoteOnEvent(tick=60, channel=0, data=[43,41]),
   midi.NoteOnEvent(tick=10, channel=0, data=[31,0]),
   midi.NoteOnEvent(tick=50, channel=0, data=[43,0]),
   midi.NoteOnEvent(tick=0, channel=0, data=[31,58]),
   midi.ControlChangeEvent(tick=7, channel=0, data=[64,0]),
   midi.ControlChangeEvent(tick=39, channel=0, data=[64,127]),
   midi.NoteOnEvent(tick=14, channel=0, data=[43,41]),
   midi.NoteOnEvent(tick=10, channel=0, data=[31,0]),
   midi.NoteOnEvent(tick=50, channel=0, data=[43,0]),
   midi.NoteOnEvent(tick=0, channel=0, data=[31,59]),
   midi.NoteOnEvent(tick=60, channel=0, data=[43,41]),
   midi.NoteOnEvent(tick=10, channel=0, data=[31,0]),
   midi.NoteOnEvent(tick=50, channel=0, data=[43,0]),
   midi.NoteOnEvent(tick=0, channel=0, data=[31,59]),
   midi.NoteOnEvent(tick=60, channel=0, data=[43,44]),
   midi.NoteOnEvent(tick=10, channel=0, data=[31,0]),
   midi.NoteOnEvent(tick=50, channel=0, data=[43,0]),
   midi.NoteOnEvent(tick=0, channel=0, data=[31,59]),
   midi.NoteOnEvent(tick=60, channel=0, data=[43,45]),
   midi.NoteOnEvent(tick=10, channel=0, data=[31,0]),
   midi.NoteOnEvent(tick=50, channel=0, data=[31,44]),
   midi.ControlChangeEvent(tick=12, channel=0, data=[64,0]),
   midi.ControlChangeEvent(tick=87, channel=0, data=[64,127]),
   midi.NoteOnEvent(tick=861, channel=0, data=[31,0]),
   midi.NoteOnEvent(tick=0, channel=0, data=[43,0]),
   midi.ControlChangeEvent(tick=381, channel=0, data=[64,0]),
   midi.NoteOnEvent(tick=99, channel=0, data=[74,68]),
   midi.NoteOnEvent(tick=0, channel=0, data=[77,80]),
   midi.NoteOnEvent(tick=360, channel=0, data=[77,0]),
   midi.NoteOnEvent(tick=0, channel=0, data=[74,0]),
   midi.NoteOnEvent(tick=0, channel=0, data=[76,71]),
   midi.NoteOnEvent(tick=0, channel=0, data=[72,60]),
   midi.NoteOnEvent(tick=120, channel=0, data=[72,0]),
   midi.NoteOnEvent(tick=0, channel=0, data=[76,0]),
   midi.NoteOnEvent(tick=0, channel=0, data=[67,56]),
   midi.NoteOnEvent(tick=0, channel=0, data=[74,67]),
   midi.ControlChangeEvent(tick=487, channel=0, data=[64,127]),
   midi.NoteOnEvent(tick=473, channel=0, data=[74,0]),
   midi.NoteOnEvent(tick=0, channel=0, data=[67,0]),
   midi.NoteOnEvent(tick=480, channel=0, data=[77,61]),
   midi.NoteOnEvent(tick=0, channel=0, data=[74,51]),
   midi.ControlChangeEvent(tick=7, channel=0, data=[64,0]),
   midi.NoteOnEvent(tick=353, channel=0, data=[74,0]),
   midi.NoteOnEvent(tick=0, channel=0, data=[77,0]),
   midi.NoteOnEvent(tick=0, channel=0, data=[76,57]),
   midi.NoteOnEvent(tick=0, channel=0, data=[72,48]),
   midi.NoteOnEvent(tick=120, channel=0, data=[72,0]),
   midi.NoteOnEvent(tick=0, channel=0, data=[76,0]),
   midi.NoteOnEvent(tick=0, channel=0, data=[67,45]),
   midi.NoteOnEvent(tick=0, channel=0, data=[74,53]),
   midi.ControlChangeEvent(tick=85, channel=0, data=[64,127]),
   midi.NoteOnEvent(tick=395, channel=0, data=[74,0]),
   midi.NoteOnEvent(tick=0, channel=0, data=[67,0]),
   midi.NoteOnEvent(tick=0, channel=0, data=[76,62]),
   midi.NoteOnEvent(tick=0, channel=0, data=[72,52]),
   midi.ControlChangeEvent(tick=15, channel=0, data=[64,0]),
   midi.ControlChangeEvent(tick=91, channel=0, data=[64,127]),
   midi.NoteOnEvent(tick=374, channel=0, data=[72,0]),
   midi.NoteOnEvent(tick=0, channel=0, data=[76,0]),
   midi.NoteOnEvent(tick=0, channel=0, data=[67,56]),
   midi.NoteOnEvent(tick=0, channel=0, data=[74,67]),
   midi.ControlChangeEvent(tick=6, channel=0, data=[64,0]),
   midi.ControlChangeEvent(tick=86, channel=0, data=[64,127]),
   midi.NoteOnEvent(tick=388, channel=0, data=[74,0]),
   midi.NoteOnEvent(tick=0, channel=0, data=[67,0]),
   midi.NoteOnEvent(tick=0, channel=0, data=[72,56]),
   midi.NoteOnEvent(tick=0, channel=0, data=[76,66]),
   midi.ControlChangeEvent(tick=7, channel=0, data=[64,0]),
   midi.ControlChangeEvent(tick=113, channel=0, data=[64,127]),
   midi.NoteOnEvent(tick=360, channel=0, data=[76,0]),
   midi.NoteOnEvent(tick=0, channel=0, data=[72,0]),
   midi.NoteOnEvent(tick=0, channel=0, data=[67,62]),
   midi.NoteOnEvent(tick=0, channel=0, data=[74,74]),
   midi.ControlChangeEvent(tick=13, channel=0, data=[64,0]),
   midi.NoteOnEvent(tick=467, channel=0, data=[74,0]),
   midi.NoteOnEvent(tick=0, channel=0, data=[67,0]),
   midi.NoteOnEvent(tick=0, channel=0, data=[45,70]),
   midi.NoteOnEvent(tick=0, channel=0, data=[57,83]),
   midi.NoteOnEvent(tick=480, channel=0, data=[57,0]),
   midi.NoteOnEvent(tick=0, channel=0, data=[45,0]),
   midi.NoteOnEvent(tick=0, channel=0, data=[55,93]),
   midi.NoteOnEvent(tick=0, channel=0, data=[43,62]),
   midi.NoteOnEvent(tick=480, channel=0, data=[43,0]),
   midi.NoteOnEvent(tick=0, channel=0, data=[55,0]),
   midi.NoteOnEvent(tick=0, channel=0, data=[54,82]),
   midi.NoteOnEvent(tick=0, channel=0, data=[42,56]),
   midi.NoteOnEvent(tick=480, channel=0, data=[42,0]),
   midi.NoteOnEvent(tick=0, channel=0, data=[54,0]),
   midi.NoteOnEvent(tick=0, channel=0, data=[43,56]),
   midi.NoteOnEvent(tick=0, channel=0, data=[55,83]),
   midi.ControlChangeEvent(tick=160, channel=0, data=[64,127]),
   midi.NoteOnEvent(tick=320, channel=0, data=[55,0]),
   midi.NoteOnEvent(tick=0, channel=0, data=[43,0]),
   midi.NoteOnEvent(tick=0, channel=0, data=[41,57]),
   midi.NoteOnEvent(tick=0, channel=0, data=[53,84]),
   midi.NoteOnEvent(tick=480, channel=0, data=[53,0]),
   midi.NoteOnEvent(tick=0, channel=0, data=[41,0]),
   midi.NoteOnEvent(tick=0, channel=0, data=[40,59]),
   midi.NoteOnEvent(tick=0, channel=0, data=[52,89]),
   midi.ControlChangeEvent(tick=2, channel=0, data=[64,0]),
   midi.ControlChangeEvent(tick=318, channel=0, data=[64,127]),
   midi.NoteOnEvent(tick=160, channel=0, data=[52,0]),
   midi.NoteOnEvent(tick=0, channel=0, data=[40,0]),
   midi.NoteOnEvent(tick=0, channel=0, data=[38,62]),
   midi.NoteOnEvent(tick=0, channel=0, data=[50,92]),
   midi.NoteOnEvent(tick=480, channel=0, data=[50,0]),
   midi.NoteOnEvent(tick=0, channel=0, data=[38,0]),
   midi.NoteOnEvent(tick=0, channel=0, data=[36,49]),
   midi.NoteOnEvent(tick=0, channel=0, data=[48,73]),
   midi.ControlChangeEvent(tick=13, channel=0, data=[64,0]),
   midi.ControlChangeEvent(tick=387, channel=0, data=[64,127]),
   midi.NoteOnEvent(tick=560, channel=0, data=[43,49]),
   midi.NoteOnEvent(tick=0, channel=0, data=[55,73]),
   midi.ControlChangeEvent(tick=9, channel=0, data=[64,0]),
   midi.NoteOnEvent(tick=11, channel=0, data=[48,0]),
   midi.NoteOnEvent(tick=0, channel=0, data=[36,0]),
   midi.ControlChangeEvent(tick=300, channel=0, data=[64,127]),
   midi.NoteOnEvent(tick=640, channel=0, data=[50,69]),
   midi.NoteOnEvent(tick=0, channel=0, data=[38,46]),
   midi.ControlChangeEvent(tick=8, channel=0, data=[64,0]),
   midi.NoteOnEvent(tick=12, channel=0, data=[43,0]),
   midi.NoteOnEvent(tick=0, channel=0, data=[55,0]),
   midi.ControlChangeEvent(tick=300, channel=0, data=[64,127]),
   midi.NoteOnEvent(tick=640, channel=0, data=[43,49]),
   midi.NoteOnEvent(tick=0, channel=0, data=[55,73]),
   midi.ControlChangeEvent(tick=3, channel=0, data=[64,0]),
   midi.NoteOnEvent(tick=17, channel=0, data=[50,0]),
   midi.NoteOnEvent(tick=0, channel=0, data=[38,0]),
   midi.ControlChangeEvent(tick=300, channel=0, data=[64,127]),
   midi.NoteOnEvent(tick=640, channel=0, data=[43,0]),
   midi.NoteOnEvent(tick=0, channel=0, data=[55,0]),
   midi.NoteOnEvent(tick=0, channel=0, data=[40,49]),
   midi.NoteOnEvent(tick=0, channel=0, data=[52,73]),
   midi.ControlChangeEvent(tick=17, channel=0, data=[64,0]),
   midi.ControlChangeEvent(tick=329, channel=0, data=[64,127]),
   midi.NoteOnEvent(tick=614, channel=0, data=[41,49]),
   midi.NoteOnEvent(tick=0, channel=0, data=[53,73]),
   midi.ControlChangeEvent(tick=0, channel=0, data=[64,0]),
   midi.NoteOnEvent(tick=20, channel=0, data=[52,0]),
   midi.NoteOnEvent(tick=0, channel=0, data=[40,0]),
   midi.ControlChangeEvent(tick=220, channel=0, data=[64,127]),
   midi.NoteOnEvent(tick=240, channel=0, data=[40,46]),
   midi.NoteOnEvent(tick=0, channel=0, data=[52,69]),
   midi.NoteOnEvent(tick=20, channel=0, data=[41,0]),
   midi.NoteOnEvent(tick=0, channel=0, data=[53,0]),
   midi.NoteOnEvent(tick=460, channel=0, data=[50,69]),
   midi.NoteOnEvent(tick=0, channel=0, data=[38,46]),
   midi.ControlChangeEvent(tick=13, channel=0, data=[64,0]),
   midi.NoteOnEvent(tick=7, channel=0, data=[40,0]),
   midi.NoteOnEvent(tick=0, channel=0, data=[52,0]),
   midi.ControlChangeEvent(tick=327, channel=0, data=[64,127]),
   midi.NoteOnEvent(tick=613, channel=0, data=[36,49]),
   midi.NoteOnEvent(tick=0, channel=0, data=[48,73]),
   midi.ControlChangeEvent(tick=0, channel=0, data=[64,0]),
   midi.NoteOnEvent(tick=20, channel=0, data=[50,0]),
   midi.NoteOnEvent(tick=0, channel=0, data=[38,0]),
   midi.ControlChangeEvent(tick=101, channel=0, data=[64,127]),
   midi.ControlChangeEvent(tick=458, channel=0, data=[64,0]),
   midi.NoteOnEvent(tick=141, channel=0, data=[36,0]),
   midi.NoteOnEvent(tick=0, channel=0, data=[48,0]),
   midi.NoteOnEvent(tick=240, channel=0, data=[60,34]),
   midi.NoteOnEvent(tick=0, channel=0, data=[67,40]),
   midi.ControlChangeEvent(tick=42, channel=0, data=[64,127]),
   midi.NoteOnEvent(tick=918, channel=0, data=[67,0]),
   midi.NoteOnEvent(tick=0, channel=0, data=[60,0]),
   midi.ControlChangeEvent(tick=0, channel=0, data=[64,0]),
   midi.NoteOnEvent(tick=0, channel=0, data=[69,33]),
   midi.NoteOnEvent(tick=0, channel=0, data=[57,28]),
   midi.ControlChangeEvent(tick=347, channel=0, data=[64,127]),
   midi.NoteOnEvent(tick=613, channel=0, data=[57,0]),
   midi.NoteOnEvent(tick=0, channel=0, data=[69,0]),
   midi.NoteOnEvent(tick=0, channel=0, data=[59,34]),
   midi.NoteOnEvent(tick=0, channel=0, data=[67,41]),
   midi.ControlChangeEvent(tick=7, channel=0, data=[64,0]),
   midi.ControlChangeEvent(tick=206, channel=0, data=[64,127]),
   midi.NoteOnEvent(tick=747, channel=0, data=[67,0]),
   midi.NoteOnEvent(tick=0, channel=0, data=[59,0]),
   midi.NoteOnEvent(tick=0, channel=0, data=[60,41]),
   midi.NoteOnEvent(tick=0, channel=0, data=[67,49]),
   midi.ControlChangeEvent(tick=2, channel=0, data=[64,0]),
   midi.ControlChangeEvent(tick=264, channel=0, data=[64,127]),
   midi.NoteOnEvent(tick=694, channel=0, data=[67,0]),
   midi.NoteOnEvent(tick=0, channel=0, data=[60,0]),
   midi.NoteOnEvent(tick=0, channel=0, data=[60,50]),
   midi.NoteOnEvent(tick=0, channel=0, data=[67,50]),
   midi.ControlChangeEvent(tick=6, channel=0, data=[64,0]),
   midi.ControlChangeEvent(tick=287, channel=0, data=[64,127]),
   midi.NoteOnEvent(tick=187, channel=0, data=[60,0]),
   midi.NoteOnEvent(tick=0, channel=0, data=[62,53]),
   midi.NoteOnEvent(tick=480, channel=0, data=[62,0]),
   midi.NoteOnEvent(tick=0, channel=0, data=[67,0]),
   midi.NoteOnEvent(tick=0, channel=0, data=[64,39]),
   midi.NoteOnEvent(tick=0, channel=0, data=[67,46]),
   midi.ControlChangeEvent(tick=8, channel=0, data=[64,0]),
   midi.ControlChangeEvent(tick=258, channel=0, data=[64,127]),
   midi.NoteOnEvent(tick=694, channel=0, data=[67,0]),
   midi.NoteOnEvent(tick=0, channel=0, data=[64,0]),
   midi.NoteOnEvent(tick=0, channel=0, data=[62,37]),
   midi.NoteOnEvent(tick=0, channel=0, data=[69,44]),
   midi.ControlChangeEvent(tick=14, channel=0, data=[64,0]),
   midi.ControlChangeEvent(tick=306, channel=0, data=[64,127]),
   midi.NoteOnEvent(tick=640, channel=0, data=[69,0]),
   midi.NoteOnEvent(tick=0, channel=0, data=[62,0]),
   midi.NoteOnEvent(tick=0, channel=0, data=[64,32]),
   midi.NoteOnEvent(tick=0, channel=0, data=[68,38]),
   midi.ControlChangeEvent(tick=3, channel=0, data=[64,0]),
   midi.ControlChangeEvent(tick=180, channel=0, data=[64,127]),
   midi.ControlChangeEvent(tick=410, channel=0, data=[64,0]),
   midi.NoteOnEvent(tick=127, channel=0, data=[68,0]),
   midi.NoteOnEvent(tick=0, channel=0, data=[64,0]),
   midi.NoteOnEvent(tick=240, channel=0, data=[69,56]),
   midi.NoteOnEvent(tick=0, channel=0, data=[57,47]),
   midi.ControlChangeEvent(tick=113, channel=0, data=[64,127]),
   midi.NoteOnEvent(tick=367, channel=0, data=[57,0]),
   midi.NoteOnEvent(tick=0, channel=0, data=[69,0]),
   midi.NoteOnEvent(tick=0, channel=0, data=[55,45]),
   midi.NoteOnEvent(tick=0, channel=0, data=[67,53]),
   midi.NoteOnEvent(tick=480, channel=0, data=[67,0]),
   midi.NoteOnEvent(tick=0, channel=0, data=[55,0]),
   midi.NoteOnEvent(tick=0, channel=0, data=[53,52]),
   midi.NoteOnEvent(tick=0, channel=0, data=[65,62]),
   midi.ControlChangeEvent(tick=13, channel=0, data=[64,0]),
   midi.ControlChangeEvent(tick=227, channel=0, data=[64,127]),
   midi.NoteOnEvent(tick=720, channel=0, data=[65,0]),
   midi.NoteOnEvent(tick=0, channel=0, data=[53,0]),
   midi.NoteOnEvent(tick=0, channel=0, data=[66,66]),
   midi.NoteOnEvent(tick=0, channel=0, data=[54,56]),
   midi.ControlChangeEvent(tick=8, channel=0, data=[64,0]),
   midi.ControlChangeEvent(tick=285, channel=0, data=[64,127]),
   midi.NoteOnEvent(tick=667, channel=0, data=[54,0]),
   midi.NoteOnEvent(tick=0, channel=0, data=[66,0]),
   midi.NoteOnEvent(tick=0, channel=0, data=[55,56]),
   midi.NoteOnEvent(tick=0, channel=0, data=[67,66]),
   midi.ControlChangeEvent(tick=5, channel=0, data=[64,0]),
   midi.ControlChangeEvent(tick=341, channel=0, data=[64,127]),
   midi.NoteOnEvent(tick=614, channel=0, data=[67,0]),
   midi.NoteOnEvent(tick=0, channel=0, data=[55,0]),
   midi.NoteOnEvent(tick=0, channel=0, data=[68,72]),
   midi.NoteOnEvent(tick=0, channel=0, data=[56,61]),
   midi.ControlChangeEvent(tick=13, channel=0, data=[64,0]),
   midi.ControlChangeEvent(tick=280, channel=0, data=[64,127]),
   midi.NoteOnEvent(tick=667, channel=0, data=[56,0]),
   midi.NoteOnEvent(tick=0, channel=0, data=[68,0]),
   midi.ControlChangeEvent(tick=0, channel=0, data=[64,0]),
   midi.NoteOnEvent(tick=0, channel=0, data=[57,56]),
   midi.NoteOnEvent(tick=0, channel=0, data=[69,67]),
   midi.ControlChangeEvent(tick=213, channel=0, data=[64,127]),
   midi.NoteOnEvent(tick=747, channel=0, data=[69,0]),
   midi.NoteOnEvent(tick=0, channel=0, data=[57,0]),
   midi.NoteOnEvent(tick=0, channel=0, data=[62,51]),
   midi.NoteOnEvent(tick=0, channel=0, data=[74,61]),
   midi.ControlChangeEvent(tick=7, channel=0, data=[64,0]),
   midi.ControlChangeEvent(tick=419, channel=0, data=[64,127]),
   midi.NoteOnEvent(tick=54, channel=0, data=[74,0]),
   midi.NoteOnEvent(tick=0, channel=0, data=[72,58]),
   midi.NoteOnEvent(tick=480, channel=0, data=[72,0]),
   midi.NoteOnEvent(tick=0, channel=0, data=[62,0]),
   midi.ControlChangeEvent(tick=0, channel=0, data=[64,0]),
   midi.NoteOnEvent(tick=0, channel=0, data=[71,58]),
   midi.NoteOnEvent(tick=0, channel=0, data=[67,49]),
   midi.ControlChangeEvent(tick=53, channel=0, data=[64,127]),
   midi.ControlChangeEvent(tick=487, channel=0, data=[64,0]),
   midi.NoteOnEvent(tick=180, channel=0, data=[67,0]),
   midi.NoteOnEvent(tick=0, channel=0, data=[71,0]),
   midi.ControlChangeEvent(tick=240, channel=0, data=[64,127]),
   midi.NoteOnEvent(tick=0, channel=0, data=[45,73]),
   midi.NoteOnEvent(tick=30, channel=0, data=[52,57]),
   midi.NoteOnEvent(tick=30, channel=0, data=[57,68]),
   midi.NoteOnEvent(tick=900, channel=0, data=[57,0]),
   midi.NoteOnEvent(tick=0, channel=0, data=[52,0]),
   midi.NoteOnEvent(tick=0, channel=0, data=[45,0]),
   midi.NoteOnEvent(tick=0, channel=0, data=[52,75]),
   midi.NoteOnEvent(tick=0, channel=0, data=[40,56]),
   midi.ControlChangeEvent(tick=2, channel=0, data=[64,0]),
   midi.ControlChangeEvent(tick=90, channel=0, data=[64,127]),
   midi.ControlChangeEvent(tick=822, channel=0, data=[64,0]),
   midi.NoteOnEvent(tick=46, channel=0, data=[40,0]),
   midi.NoteOnEvent(tick=0, channel=0, data=[52,0]),
   midi.NoteOnEvent(tick=0, channel=0, data=[41,69]),
   midi.NoteOnEvent(tick=30, channel=0, data=[48,54]),
   midi.NoteOnEvent(tick=30, channel=0, data=[53,74]),
   midi.ControlChangeEvent(tick=14, channel=0, data=[64,127]),
   midi.NoteOnEvent(tick=886, channel=0, data=[53,0]),
   midi.NoteOnEvent(tick=0, channel=0, data=[48,0]),
   midi.NoteOnEvent(tick=0, channel=0, data=[41,0]),
   midi.ControlChangeEvent(tick=0, channel=0, data=[64,0]),
   midi.NoteOnEvent(tick=0, channel=0, data=[36,53]),
   midi.NoteOnEvent(tick=0, channel=0, data=[48,70]),
   midi.ControlChangeEvent(tick=187, channel=0, data=[64,127]),
   midi.NoteOnEvent(tick=773, channel=0, data=[48,0]),
   midi.NoteOnEvent(tick=0, channel=0, data=[36,0]),
   midi.NoteOnEvent(tick=0, channel=0, data=[37,51]),
   midi.NoteOnEvent(tick=0, channel=0, data=[49,69]),
   midi.ControlChangeEvent(tick=15, channel=0, data=[64,0]),
   midi.ControlChangeEvent(tick=385, channel=0, data=[64,127]),
   midi.NoteOnEvent(tick=560, channel=0, data=[49,0]),
   midi.NoteOnEvent(tick=0, channel=0, data=[37,0]),
   midi.NoteOnEvent(tick=0, channel=0, data=[38,56]),
   midi.NoteOnEvent(tick=0, channel=0, data=[50,74]),
   midi.ControlChangeEvent(tick=7, channel=0, data=[64,0]),
   midi.ControlChangeEvent(tick=233, channel=0, data=[64,127]),
   midi.NoteOnEvent(tick=720, channel=0, data=[50,0]),
   midi.NoteOnEvent(tick=0, channel=0, data=[38,0]),
   midi.NoteOnEvent(tick=0, channel=0, data=[31,56]),
   midi.NoteOnEvent(tick=0, channel=0, data=[43,62]),
   midi.NoteOnEvent(tick=0, channel=0, data=[55,74]),
   midi.ControlChangeEvent(tick=8, channel=0, data=[64,0]),
   midi.ControlChangeEvent(tick=365, channel=0, data=[64,127]),
   midi.NoteOnEvent(tick=107, channel=0, data=[55,0]),
   midi.NoteOnEvent(tick=0, channel=0, data=[53,74]),
   midi.NoteOnEvent(tick=480, channel=0, data=[53,0]),
   midi.NoteOnEvent(tick=0, channel=0, data=[43,0]),
   midi.NoteOnEvent(tick=0, channel=0, data=[31,0]),
   midi.NoteOnEvent(tick=0, channel=0, data=[52,72]),
   midi.NoteOnEvent(tick=0, channel=0, data=[55,85]),
   midi.NoteOnEvent(tick=0, channel=0, data=[36,85]),
   midi.ControlChangeEvent(tick=9, channel=0, data=[64,0]),
   midi.NoteOnEvent(tick=31, channel=0, data=[36,0]),
   midi.NoteOnEvent(tick=0, channel=0, data=[43,57]),
   midi.ControlChangeEvent(tick=13, channel=0, data=[64,127]),
   midi.NoteOnEvent(tick=27, channel=0, data=[43,0]),
   midi.NoteOnEvent(tick=0, channel=0, data=[48,57]),
   midi.NoteOnEvent(tick=40, channel=0, data=[48,0]),
   midi.NoteOnEvent(tick=0, channel=0, data=[52,64]),
   midi.NoteOnEvent(tick=40, channel=0, data=[52,0]),
   midi.NoteOnEvent(tick=0, channel=0, data=[55,57]),
   midi.NoteOnEvent(tick=40, channel=0, data=[55,0]),
   midi.NoteOnEvent(tick=0, channel=0, data=[60,57]),
   midi.NoteOnEvent(tick=40, channel=0, data=[60,0]),
   midi.NoteOnEvent(tick=240, channel=0, data=[55,0]),
   midi.NoteOnEvent(tick=0, channel=0, data=[52,0]),
   midi.NoteOnEvent(tick=0, channel=0, data=[48,64]),
   midi.NoteOnEvent(tick=40, channel=0, data=[48,0]),
   midi.NoteOnEvent(tick=0, channel=0, data=[55,57]),
   midi.NoteOnEvent(tick=40, channel=0, data=[55,0]),
   midi.NoteOnEvent(tick=0, channel=0, data=[60,60]),
   midi.NoteOnEvent(tick=40, channel=0, data=[60,0]),
   midi.NoteOnEvent(tick=0, channel=0, data=[64,68]),
   midi.NoteOnEvent(tick=40, channel=0, data=[64,0]),
   midi.NoteOnEvent(tick=0, channel=0, data=[67,63]),
   midi.NoteOnEvent(tick=40, channel=0, data=[67,0]),
   midi.NoteOnEvent(tick=0, channel=0, data=[72,64]),
   midi.NoteOnEvent(tick=40, channel=0, data=[72,0]),
   midi.NoteOnEvent(tick=240, channel=0, data=[60,78]),
   midi.NoteOnEvent(tick=40, channel=0, data=[60,0]),
   midi.NoteOnEvent(tick=0, channel=0, data=[67,70]),
   midi.NoteOnEvent(tick=40, channel=0, data=[67,0]),
   midi.NoteOnEvent(tick=0, channel=0, data=[72,70]),
   midi.NoteOnEvent(tick=40, channel=0, data=[72,0]),
   midi.NoteOnEvent(tick=0, channel=0, data=[76,78]),
   midi.NoteOnEvent(tick=40, channel=0, data=[76,0]),
   midi.NoteOnEvent(tick=0, channel=0, data=[79,70]),
   midi.NoteOnEvent(tick=40, channel=0, data=[79,0]),
   midi.NoteOnEvent(tick=0, channel=0, data=[84,70]),
   midi.NoteOnEvent(tick=40, channel=0, data=[84,0]),
   midi.NoteOnEvent(tick=240, channel=0, data=[60,78]),
   midi.NoteOnEvent(tick=40, channel=0, data=[60,0]),
   midi.NoteOnEvent(tick=0, channel=0, data=[67,69]),
   midi.NoteOnEvent(tick=40, channel=0, data=[67,0]),
   midi.NoteOnEvent(tick=0, channel=0, data=[72,68]),
   midi.NoteOnEvent(tick=40, channel=0, data=[72,0]),
   midi.NoteOnEvent(tick=0, channel=0, data=[76,74]),
   midi.NoteOnEvent(tick=40, channel=0, data=[76,0]),
   midi.NoteOnEvent(tick=0, channel=0, data=[79,67]),
   midi.NoteOnEvent(tick=40, channel=0, data=[79,0]),
   midi.NoteOnEvent(tick=0, channel=0, data=[84,66]),
   midi.NoteOnEvent(tick=40, channel=0, data=[84,0]),
   midi.NoteOnEvent(tick=240, channel=0, data=[76,52]),
   midi.NoteOnEvent(tick=0, channel=0, data=[79,62]),
   midi.NoteOnEvent(tick=0, channel=0, data=[72,52]),
   midi.ControlChangeEvent(tick=1413, channel=0, data=[64,0]),
   midi.NoteOnEvent(tick=27, channel=0, data=[72,0]),
   midi.NoteOnEvent(tick=0, channel=0, data=[79,0]),
   midi.NoteOnEvent(tick=0, channel=0, data=[76,0]),
   midi.ControlChangeEvent(tick=6395, channel=0, data=[64,127]),
   midi.ControlChangeEvent(tick=269, channel=0, data=[64,0]),
   midi.NoteOnEvent(tick=56, channel=0, data=[48,57]),
   midi.NoteOnEvent(tick=120, channel=0, data=[48,0]),
   midi.NoteOnEvent(tick=0, channel=0, data=[50,59]),
   midi.NoteOnEvent(tick=120, channel=0, data=[50,0]),
   midi.NoteOnEvent(tick=0, channel=0, data=[52,62]),
   midi.NoteOnEvent(tick=120, channel=0, data=[52,0]),
   midi.NoteOnEvent(tick=0, channel=0, data=[53,63]),
   midi.NoteOnEvent(tick=120, channel=0, data=[53,0]),
   midi.NoteOnEvent(tick=0, channel=0, data=[55,66]),
   midi.NoteOnEvent(tick=120, channel=0, data=[55,0]),
   midi.NoteOnEvent(tick=0, channel=0, data=[53,64]),
   midi.NoteOnEvent(tick=120, channel=0, data=[53,0]),
   midi.NoteOnEvent(tick=0, channel=0, data=[52,63]),
   midi.NoteOnEvent(tick=120, channel=0, data=[52,0]),
   midi.NoteOnEvent(tick=0, channel=0, data=[50,62]),
   midi.NoteOnEvent(tick=120, channel=0, data=[50,0]),
   midi.NoteOnEvent(tick=0, channel=0, data=[48,61]),
   midi.NoteOnEvent(tick=120, channel=0, data=[48,0]),
   midi.NoteOnEvent(tick=0, channel=0, data=[46,60]),
   midi.NoteOnEvent(tick=120, channel=0, data=[46,0]),
   midi.NoteOnEvent(tick=0, channel=0, data=[45,59]),
   midi.NoteOnEvent(tick=120, channel=0, data=[45,0]),
   midi.NoteOnEvent(tick=0, channel=0, data=[43,58]),
   midi.NoteOnEvent(tick=120, channel=0, data=[43,0]),
   midi.NoteOnEvent(tick=0, channel=0, data=[41,56]),
   midi.ControlChangeEvent(tick=35, channel=0, data=[64,127]),
   midi.NoteOnEvent(tick=205, channel=0, data=[41,0]),
   midi.NoteOnEvent(tick=0, channel=0, data=[53,41]),
   midi.NoteOnEvent(tick=240, channel=0, data=[53,0]),
   midi.NoteOnEvent(tick=0, channel=0, data=[41,46]),
   midi.NoteOnEvent(tick=240, channel=0, data=[41,0]),
   midi.NoteOnEvent(tick=0, channel=0, data=[53,40]),
   midi.NoteOnEvent(tick=180, channel=0, data=[53,0]),
   midi.ControlChangeEvent(tick=60, channel=0, data=[64,0]),
   midi.NoteOnEvent(tick=0, channel=0, data=[41,57]),
   midi.ControlChangeEvent(tick=39, channel=0, data=[64,127]),
   midi.NoteOnEvent(tick=201, channel=0, data=[41,0]),
   midi.NoteOnEvent(tick=0, channel=0, data=[53,50]),
   midi.NoteOnEvent(tick=240, channel=0, data=[53,0]),
   midi.NoteOnEvent(tick=0, channel=0, data=[41,55]),
   midi.NoteOnEvent(tick=240, channel=0, data=[41,0]),
   midi.NoteOnEvent(tick=0, channel=0, data=[53,49]),
   midi.NoteOnEvent(tick=180, channel=0, data=[53,0]),
   midi.ControlChangeEvent(tick=60, channel=0, data=[64,0]),
   midi.NoteOnEvent(tick=0, channel=0, data=[41,58]),
   midi.ControlChangeEvent(tick=99, channel=0, data=[64,127]),
   midi.NoteOnEvent(tick=81, channel=0, data=[41,0]),
   midi.NoteOnEvent(tick=60, channel=0, data=[53,50]),
   midi.NoteOnEvent(tick=180, channel=0, data=[53,0]),
   midi.NoteOnEvent(tick=60, channel=0, data=[52,56]),
   midi.ControlChangeEvent(tick=10, channel=0, data=[64,0]),
   midi.ControlChangeEvent(tick=50, channel=0, data=[64,127]),
   midi.NoteOnEvent(tick=120, channel=0, data=[52,0]),
   midi.NoteOnEvent(tick=60, channel=0, data=[60,49]),
   midi.NoteOnEvent(tick=180, channel=0, data=[60,0]),
   midi.NoteOnEvent(tick=60, channel=0, data=[53,56]),
   midi.ControlChangeEvent(tick=6, channel=0, data=[64,0]),
   midi.ControlChangeEvent(tick=65, channel=0, data=[64,127]),
   midi.NoteOnEvent(tick=109, channel=0, data=[53,0]),
   midi.NoteOnEvent(tick=60, channel=0, data=[60,41]),
   midi.NoteOnEvent(tick=220, channel=0, data=[60,0]),
   midi.NoteOnEvent(tick=20, channel=0, data=[48,48]),
   midi.ControlChangeEvent(tick=5, channel=0, data=[64,0]),
   midi.ControlChangeEvent(tick=132, channel=0, data=[64,127]),
   midi.NoteOnEvent(tick=103, channel=0, data=[48,0]),
   midi.NoteOnEvent(tick=0, channel=0, data=[60,38]),
   midi.NoteOnEvent(tick=220, channel=0, data=[60,0]),
   midi.NoteOnEvent(tick=20, channel=0, data=[41,56]),
   midi.ControlChangeEvent(tick=5, channel=0, data=[64,0]),
   midi.ControlChangeEvent(tick=72, channel=0, data=[64,127]),
   midi.NoteOnEvent(tick=163, channel=0, data=[41,0]),
   midi.NoteOnEvent(tick=0, channel=0, data=[53,41]),
   midi.NoteOnEvent(tick=240, channel=0, data=[53,0]),
   midi.NoteOnEvent(tick=0, channel=0, data=[41,46]),
   midi.NoteOnEvent(tick=240, channel=0, data=[41,0]),
   midi.NoteOnEvent(tick=0, channel=0, data=[53,40]),
   midi.NoteOnEvent(tick=180, channel=0, data=[53,0]),
   midi.NoteOnEvent(tick=60, channel=0, data=[41,57]),
   midi.ControlChangeEvent(tick=3, channel=0, data=[64,0]),
   midi.ControlChangeEvent(tick=85, channel=0, data=[64,127]),
   midi.NoteOnEvent(tick=152, channel=0, data=[41,0]),
   midi.NoteOnEvent(tick=0, channel=0, data=[53,50]),
   midi.NoteOnEvent(tick=240, channel=0, data=[53,0]),
   midi.NoteOnEvent(tick=0, channel=0, data=[41,55]),
   midi.NoteOnEvent(tick=240, channel=0, data=[41,0]),
   midi.NoteOnEvent(tick=0, channel=0, data=[53,49]),
   midi.NoteOnEvent(tick=180, channel=0, data=[53,0]),
   midi.ControlChangeEvent(tick=60, channel=0, data=[64,0]),
   midi.NoteOnEvent(tick=0, channel=0, data=[41,58]),
   midi.ControlChangeEvent(tick=141, channel=0, data=[64,127]),
   midi.NoteOnEvent(tick=39, channel=0, data=[41,0]),
   midi.NoteOnEvent(tick=60, channel=0, data=[53,50]),
   midi.NoteOnEvent(tick=180, channel=0, data=[53,0]),
   midi.NoteOnEvent(tick=60, channel=0, data=[52,56]),
   midi.ControlChangeEvent(tick=7, channel=0, data=[64,0]),
   midi.ControlChangeEvent(tick=78, channel=0, data=[64,127]),
   midi.NoteOnEvent(tick=95, channel=0, data=[52,0]),
   midi.NoteOnEvent(tick=60, channel=0, data=[60,49]),
   midi.NoteOnEvent(tick=180, channel=0, data=[60,0]),
   midi.NoteOnEvent(tick=60, channel=0, data=[53,56]),
   midi.ControlChangeEvent(tick=6, channel=0, data=[64,0]),
   midi.ControlChangeEvent(tick=68, channel=0, data=[64,127]),
   midi.NoteOnEvent(tick=106, channel=0, data=[53,0]),
   midi.NoteOnEvent(tick=60, channel=0, data=[60,41]),
   midi.NoteOnEvent(tick=180, channel=0, data=[60,0]),
   midi.NoteOnEvent(tick=60, channel=0, data=[48,48]),
   midi.ControlChangeEvent(tick=7, channel=0, data=[64,0]),
   midi.ControlChangeEvent(tick=130, channel=0, data=[64,127]),
   midi.NoteOnEvent(tick=103, channel=0, data=[48,0]),
   midi.NoteOnEvent(tick=0, channel=0, data=[60,38]),
   midi.NoteOnEvent(tick=220, channel=0, data=[60,0]),
   midi.ControlChangeEvent(tick=20, channel=0, data=[64,0]),
   midi.NoteOnEvent(tick=0, channel=0, data=[41,48]),
   midi.NoteOnEvent(tick=0, channel=0, data=[53,57]),
   midi.NoteOnEvent(tick=480, channel=0, data=[53,0]),
   midi.NoteOnEvent(tick=0, channel=0, data=[41,0]),
   midi.NoteOnEvent(tick=480, channel=0, data=[34,52]),
   midi.NoteOnEvent(tick=0, channel=0, data=[46,62]),
   midi.NoteOnEvent(tick=120, channel=0, data=[46,0]),
   midi.NoteOnEvent(tick=0, channel=0, data=[34,0]),
   midi.NoteOnEvent(tick=120, channel=0, data=[50,57]),
   midi.NoteOnEvent(tick=0, channel=0, data=[38,48]),
   midi.NoteOnEvent(tick=120, channel=0, data=[38,0]),
   midi.NoteOnEvent(tick=0, channel=0, data=[50,0]),
   midi.NoteOnEvent(tick=120, channel=0, data=[41,58]),
   midi.NoteOnEvent(tick=0, channel=0, data=[53,69]),
   midi.NoteOnEvent(tick=460, channel=0, data=[53,0]),
   midi.NoteOnEvent(tick=0, channel=0, data=[41,0]),
   midi.NoteOnEvent(tick=20, channel=0, data=[48,69]),
   midi.NoteOnEvent(tick=0, channel=0, data=[36,58]),
   midi.ControlChangeEvent(tick=64, channel=0, data=[64,127]),
   midi.NoteOnEvent(tick=896, channel=0, data=[36,0]),
   midi.NoteOnEvent(tick=0, channel=0, data=[48,0]),
   midi.NoteOnEvent(tick=0, channel=0, data=[48,50]),
   midi.NoteOnEvent(tick=0, channel=0, data=[58,59]),
   midi.ControlChangeEvent(tick=0, channel=0, data=[64,0]),
   midi.NoteOnEvent(tick=120, channel=0, data=[58,0]),
   midi.NoteOnEvent(tick=0, channel=0, data=[48,0]),
   midi.NoteOnEvent(tick=120, channel=0, data=[58,57]),
   midi.NoteOnEvent(tick=0, channel=0, data=[48,48]),
   midi.NoteOnEvent(tick=120, channel=0, data=[48,0]),
   midi.NoteOnEvent(tick=0, channel=0, data=[58,0]),
   midi.NoteOnEvent(tick=120, channel=0, data=[53,51]),
   midi.NoteOnEvent(tick=0, channel=0, data=[57,60]),
   midi.NoteOnEvent(tick=360, channel=0, data=[57,0]),
   midi.NoteOnEvent(tick=0, channel=0, data=[53,0]),
   midi.NoteOnEvent(tick=120, channel=0, data=[52,49]),
   midi.NoteOnEvent(tick=0, channel=0, data=[58,58]),
   midi.ControlChangeEvent(tick=49, channel=0, data=[64,127]),
   midi.NoteOnEvent(tick=191, channel=0, data=[58,0]),
   midi.NoteOnEvent(tick=0, channel=0, data=[52,0]),
   midi.NoteOnEvent(tick=0, channel=0, data=[60,51]),
   midi.NoteOnEvent(tick=240, channel=0, data=[60,0]),
   midi.NoteOnEvent(tick=0, channel=0, data=[48,58]),
   midi.NoteOnEvent(tick=240, channel=0, data=[48,0]),
   midi.NoteOnEvent(tick=0, channel=0, data=[60,52]),
   midi.NoteOnEvent(tick=240, channel=0, data=[60,0]),
   midi.NoteOnEvent(tick=0, channel=0, data=[53,49]),
   midi.NoteOnEvent(tick=0, channel=0, data=[57,58]),
   midi.ControlChangeEvent(tick=3, channel=0, data=[64,0]),
   midi.ControlChangeEvent(tick=103, channel=0, data=[64,127]),
   midi.NoteOnEvent(tick=134, channel=0, data=[57,0]),
   midi.NoteOnEvent(tick=0, channel=0, data=[53,0]),
   midi.NoteOnEvent(tick=0, channel=0, data=[60,52]),
   midi.NoteOnEvent(tick=240, channel=0, data=[60,0]),
   midi.NoteOnEvent(tick=0, channel=0, data=[48,58]),
   midi.NoteOnEvent(tick=240, channel=0, data=[48,0]),
   midi.NoteOnEvent(tick=0, channel=0, data=[60,52]),
   midi.NoteOnEvent(tick=240, channel=0, data=[60,0]),
   midi.NoteOnEvent(tick=0, channel=0, data=[58,58]),
   midi.NoteOnEvent(tick=0, channel=0, data=[52,49]),
   midi.ControlChangeEvent(tick=6, channel=0, data=[64,0]),
   midi.ControlChangeEvent(tick=100, channel=0, data=[64,127]),
   midi.NoteOnEvent(tick=134, channel=0, data=[52,0]),
   midi.NoteOnEvent(tick=0, channel=0, data=[58,0]),
   midi.NoteOnEvent(tick=0, channel=0, data=[60,52]),
   midi.NoteOnEvent(tick=240, channel=0, data=[60,0]),
   midi.NoteOnEvent(tick=0, channel=0, data=[48,58]),
   midi.NoteOnEvent(tick=240, channel=0, data=[48,0]),
   midi.NoteOnEvent(tick=0, channel=0, data=[60,52]),
   midi.NoteOnEvent(tick=240, channel=0, data=[60,0]),
   midi.NoteOnEvent(tick=0, channel=0, data=[57,58]),
   midi.NoteOnEvent(tick=0, channel=0, data=[53,49]),
   midi.ControlChangeEvent(tick=6, channel=0, data=[64,0]),
   midi.ControlChangeEvent(tick=128, channel=0, data=[64,127]),
   midi.NoteOnEvent(tick=106, channel=0, data=[53,0]),
   midi.NoteOnEvent(tick=0, channel=0, data=[57,0]),
   midi.NoteOnEvent(tick=0, channel=0, data=[60,53]),
   midi.NoteOnEvent(tick=240, channel=0, data=[60,0]),
   midi.NoteOnEvent(tick=0, channel=0, data=[48,58]),
   midi.NoteOnEvent(tick=240, channel=0, data=[48,0]),
   midi.NoteOnEvent(tick=0, channel=0, data=[60,53]),
   midi.NoteOnEvent(tick=240, channel=0, data=[60,0]),
   midi.NoteOnEvent(tick=0, channel=0, data=[52,49]),
   midi.NoteOnEvent(tick=0, channel=0, data=[58,58]),
   midi.ControlChangeEvent(tick=7, channel=0, data=[64,0]),
   midi.ControlChangeEvent(tick=99, channel=0, data=[64,127]),
   midi.NoteOnEvent(tick=134, channel=0, data=[58,0]),
   midi.NoteOnEvent(tick=0, channel=0, data=[52,0]),
   midi.NoteOnEvent(tick=0, channel=0, data=[60,51]),
   midi.NoteOnEvent(tick=240, channel=0, data=[60,0]),
   midi.NoteOnEvent(tick=0, channel=0, data=[48,58]),
   midi.NoteOnEvent(tick=240, channel=0, data=[48,0]),
   midi.NoteOnEvent(tick=0, channel=0, data=[60,52]),
   midi.NoteOnEvent(tick=240, channel=0, data=[60,0]),
   midi.NoteOnEvent(tick=0, channel=0, data=[53,49]),
   midi.NoteOnEvent(tick=0, channel=0, data=[57,58]),
   midi.ControlChangeEvent(tick=6, channel=0, data=[64,0]),
   midi.ControlChangeEvent(tick=93, channel=0, data=[64,127]),
   midi.NoteOnEvent(tick=141, channel=0, data=[57,0]),
   midi.NoteOnEvent(tick=0, channel=0, data=[53,0]),
   midi.NoteOnEvent(tick=0, channel=0, data=[60,52]),
   midi.NoteOnEvent(tick=240, channel=0, data=[60,0]),
   midi.NoteOnEvent(tick=0, channel=0, data=[48,58]),
   midi.NoteOnEvent(tick=240, channel=0, data=[48,0]),
   midi.NoteOnEvent(tick=0, channel=0, data=[60,52]),
   midi.NoteOnEvent(tick=240, channel=0, data=[60,0]),
   midi.NoteOnEvent(tick=0, channel=0, data=[52,49]),
   midi.NoteOnEvent(tick=0, channel=0, data=[58,58]),
   midi.ControlChangeEvent(tick=6, channel=0, data=[64,0]),
   midi.ControlChangeEvent(tick=128, channel=0, data=[64,127]),
   midi.NoteOnEvent(tick=106, channel=0, data=[58,0]),
   midi.NoteOnEvent(tick=0, channel=0, data=[52,0]),
   midi.NoteOnEvent(tick=0, channel=0, data=[60,51]),
   midi.NoteOnEvent(tick=240, channel=0, data=[60,0]),
   midi.NoteOnEvent(tick=0, channel=0, data=[48,58]),
   midi.NoteOnEvent(tick=240, channel=0, data=[48,0]),
   midi.NoteOnEvent(tick=0, channel=0, data=[60,52]),
   midi.NoteOnEvent(tick=240, channel=0, data=[60,0]),
   midi.ControlChangeEvent(tick=0, channel=0, data=[64,0]),
   midi.NoteOnEvent(tick=0, channel=0, data=[57,56]),
   midi.NoteOnEvent(tick=0, channel=0, data=[53,47]),
   midi.NoteOnEvent(tick=120, channel=0, data=[53,0]),
   midi.NoteOnEvent(tick=0, channel=0, data=[57,0]),
   midi.NoteOnEvent(tick=840, channel=0, data=[63,53]),
   midi.NoteOnEvent(tick=0, channel=0, data=[57,45]),
   midi.NoteOnEvent(tick=0, channel=0, data=[53,45]),
   midi.NoteOnEvent(tick=0, channel=0, data=[60,45]),
   midi.NoteOnEvent(tick=120, channel=0, data=[60,0]),
   midi.NoteOnEvent(tick=0, channel=0, data=[63,0]),
   midi.NoteOnEvent(tick=0, channel=0, data=[57,0]),
   midi.NoteOnEvent(tick=0, channel=0, data=[53,0]),
   midi.NoteOnEvent(tick=840, channel=0, data=[72,45]),
   midi.NoteOnEvent(tick=0, channel=0, data=[69,45]),
   midi.NoteOnEvent(tick=0, channel=0, data=[75,53]),
   midi.NoteOnEvent(tick=0, channel=0, data=[65,45]),
   midi.NoteOnEvent(tick=120, channel=0, data=[65,0]),
   midi.NoteOnEvent(tick=0, channel=0, data=[72,0]),
   midi.NoteOnEvent(tick=0, channel=0, data=[69,0]),
   midi.NoteOnEvent(tick=0, channel=0, data=[75,0]),
   midi.NoteOnEvent(tick=840, channel=0, data=[60,45]),
   midi.NoteOnEvent(tick=0, channel=0, data=[57,45]),
   midi.NoteOnEvent(tick=0, channel=0, data=[53,45]),
   midi.NoteOnEvent(tick=0, channel=0, data=[63,53]),
   midi.NoteOnEvent(tick=120, channel=0, data=[63,0]),
   midi.NoteOnEvent(tick=0, channel=0, data=[60,0]),
   midi.NoteOnEvent(tick=0, channel=0, data=[57,0]),
   midi.NoteOnEvent(tick=0, channel=0, data=[53,0]),
   midi.NoteOnEvent(tick=360, channel=0, data=[53,69]),
   midi.NoteOnEvent(tick=0, channel=0, data=[41,58]),
   midi.NoteOnEvent(tick=360, channel=0, data=[41,0]),
   midi.NoteOnEvent(tick=0, channel=0, data=[53,0]),
   midi.NoteOnEvent(tick=0, channel=0, data=[40,51]),
   midi.NoteOnEvent(tick=0, channel=0, data=[52,60]),
   midi.NoteOnEvent(tick=120, channel=0, data=[52,0]),
   midi.NoteOnEvent(tick=0, channel=0, data=[40,0]),
   midi.NoteOnEvent(tick=0, channel=0, data=[41,56]),
   midi.NoteOnEvent(tick=0, channel=0, data=[53,66]),
   midi.NoteOnEvent(tick=240, channel=0, data=[53,0]),
   midi.NoteOnEvent(tick=0, channel=0, data=[41,0]),
   midi.NoteOnEvent(tick=0, channel=0, data=[51,71]),
   midi.NoteOnEvent(tick=0, channel=0, data=[39,60]),
   midi.NoteOnEvent(tick=240, channel=0, data=[39,0]),
   midi.NoteOnEvent(tick=0, channel=0, data=[51,0]),
   midi.NoteOnEvent(tick=0, channel=0, data=[38,63]),
   midi.NoteOnEvent(tick=0, channel=0, data=[50,75]),
   midi.NoteOnEvent(tick=210, channel=0, data=[50,0]),
   midi.NoteOnEvent(tick=0, channel=0, data=[38,0]),
   midi.NoteOnEvent(tick=30, channel=0, data=[48,71]),
   midi.NoteOnEvent(tick=0, channel=0, data=[36,60]),
   midi.NoteOnEvent(tick=240, channel=0, data=[36,0]),
   midi.NoteOnEvent(tick=0, channel=0, data=[48,0]),
   midi.NoteOnEvent(tick=0, channel=0, data=[34,60]),
   midi.NoteOnEvent(tick=0, channel=0, data=[46,69]),
   midi.ControlChangeEvent(tick=85, channel=0, data=[64,127]),
   midi.NoteOnEvent(tick=275, channel=0, data=[46,0]),
   midi.NoteOnEvent(tick=0, channel=0, data=[34,0]),
   midi.NoteOnEvent(tick=0, channel=0, data=[46,57]),
   midi.NoteOnEvent(tick=0, channel=0, data=[58,63]),
   midi.NoteOnEvent(tick=120, channel=0, data=[58,0]),
   midi.NoteOnEvent(tick=0, channel=0, data=[46,0]),
   midi.NoteOnEvent(tick=0, channel=0, data=[46,71]),
   midi.NoteOnEvent(tick=0, channel=0, data=[58,71]),
   midi.NoteOnEvent(tick=420, channel=0, data=[58,0]),
   midi.NoteOnEvent(tick=0, channel=0, data=[46,0]),
   midi.NoteOnEvent(tick=60, channel=0, data=[41,63]),
   midi.NoteOnEvent(tick=0, channel=0, data=[53,71]),
   midi.ControlChangeEvent(tick=0, channel=0, data=[64,0]),
   midi.NoteOnEvent(tick=480, channel=0, data=[53,0]),
   midi.NoteOnEvent(tick=0, channel=0, data=[41,0]),
   midi.NoteOnEvent(tick=0, channel=0, data=[46,74]),
   midi.NoteOnEvent(tick=0, channel=0, data=[34,67]),
   midi.ControlChangeEvent(tick=78, channel=0, data=[64,127]),
   midi.NoteOnEvent(tick=282, channel=0, data=[34,0]),
   midi.NoteOnEvent(tick=0, channel=0, data=[46,0]),
   midi.NoteOnEvent(tick=0, channel=0, data=[46,59]),
   midi.NoteOnEvent(tick=0, channel=0, data=[58,68]),
   midi.NoteOnEvent(tick=120, channel=0, data=[58,0]),
   midi.NoteOnEvent(tick=0, channel=0, data=[46,0]),
   midi.NoteOnEvent(tick=0, channel=0, data=[58,73]),
   midi.NoteOnEvent(tick=0, channel=0, data=[46,66]),
   midi.NoteOnEvent(tick=440, channel=0, data=[46,0]),
   midi.NoteOnEvent(tick=0, channel=0, data=[58,0]),
   midi.ControlChangeEvent(tick=8, channel=0, data=[64,0]),
   midi.NoteOnEvent(tick=32, channel=0, data=[55,64]),
   midi.NoteOnEvent(tick=0, channel=0, data=[43,58]),
   midi.ControlChangeEvent(tick=77, channel=0, data=[64,127]),
   midi.NoteOnEvent(tick=403, channel=0, data=[43,0]),
   midi.NoteOnEvent(tick=0, channel=0, data=[55,0]),
   midi.NoteOnEvent(tick=0, channel=0, data=[39,59]),
   midi.NoteOnEvent(tick=0, channel=0, data=[51,67]),
   midi.ControlChangeEvent(tick=0, channel=0, data=[64,0]),
   midi.ControlChangeEvent(tick=125, channel=0, data=[64,127]),
   midi.NoteOnEvent(tick=115, channel=0, data=[51,0]),
   midi.NoteOnEvent(tick=0, channel=0, data=[39,0]),
   midi.NoteOnEvent(tick=0, channel=0, data=[50,60]),
   midi.NoteOnEvent(tick=0, channel=0, data=[38,55]),
   midi.NoteOnEvent(tick=240, channel=0, data=[38,0]),
   midi.NoteOnEvent(tick=0, channel=0, data=[50,0]),
   midi.NoteOnEvent(tick=0, channel=0, data=[36,58]),
   midi.NoteOnEvent(tick=0, channel=0, data=[48,64]),
   midi.ControlChangeEvent(tick=11, channel=0, data=[64,0]),
   midi.ControlChangeEvent(tick=149, channel=0, data=[64,127]),
   midi.NoteOnEvent(tick=300, channel=0, data=[48,0]),
   midi.NoteOnEvent(tick=0, channel=0, data=[36,0]),
   midi.NoteOnEvent(tick=20, channel=0, data=[41,49]),
   midi.NoteOnEvent(tick=0, channel=0, data=[53,56]),
   midi.ControlChangeEvent(tick=15, channel=0, data=[64,0]),
   midi.ControlChangeEvent(tick=145, channel=0, data=[64,127]),
   midi.NoteOnEvent(tick=320, channel=0, data=[53,0]),
   midi.NoteOnEvent(tick=0, channel=0, data=[41,0]),
   midi.NoteOnEvent(tick=0, channel=0, data=[46,53]),
   midi.NoteOnEvent(tick=0, channel=0, data=[53,59]),
   midi.ControlChangeEvent(tick=11, channel=0, data=[64,0]),
   midi.ControlChangeEvent(tick=53, channel=0, data=[64,127]),
   midi.NoteOnEvent(tick=416, channel=0, data=[53,0]),
   midi.NoteOnEvent(tick=0, channel=0, data=[46,0]),
   midi.NoteOnEvent(tick=0, channel=0, data=[58,59]),
   midi.ControlChangeEvent(tick=15, channel=0, data=[64,0]),
   midi.ControlChangeEvent(tick=56, channel=0, data=[64,127]),
   midi.ControlChangeEvent(tick=307, channel=0, data=[64,0]),
   midi.NoteOnEvent(tick=42, channel=0, data=[58,0]),
   midi.NoteOnEvent(tick=60, channel=0, data=[53,38]),
   midi.NoteOnEvent(tick=0, channel=0, data=[65,38]),
   midi.ControlChangeEvent(tick=35, channel=0, data=[64,127]),
   midi.NoteOnEvent(tick=445, channel=0, data=[65,0]),
   midi.NoteOnEvent(tick=0, channel=0, data=[53,0]),
   midi.ControlChangeEvent(tick=0, channel=0, data=[64,0]),
   midi.NoteOnEvent(tick=0, channel=0, data=[46,34]),
   midi.NoteOnEvent(tick=0, channel=0, data=[58,40]),
   midi.ControlChangeEvent(tick=46, channel=0, data=[64,127]),
   midi.NoteOnEvent(tick=314, channel=0, data=[58,0]),
   midi.NoteOnEvent(tick=0, channel=0, data=[46,0]),
   midi.NoteOnEvent(tick=0, channel=0, data=[70,38]),
   midi.NoteOnEvent(tick=120, channel=0, data=[70,0]),
   midi.NoteOnEvent(tick=0, channel=0, data=[70,41]),
   midi.NoteOnEvent(tick=420, channel=0, data=[70,0]),
   midi.ControlChangeEvent(tick=14, channel=0, data=[64,0]),
   midi.NoteOnEvent(tick=46, channel=0, data=[53,34]),
   midi.NoteOnEvent(tick=0, channel=0, data=[65,41]),
   midi.ControlChangeEvent(tick=42, channel=0, data=[64,127]),
   midi.NoteOnEvent(tick=438, channel=0, data=[65,0]),
   midi.NoteOnEvent(tick=0, channel=0, data=[53,0]),
   midi.NoteOnEvent(tick=0, channel=0, data=[58,45]),
   midi.NoteOnEvent(tick=0, channel=0, data=[46,38]),
   midi.ControlChangeEvent(tick=9, channel=0, data=[64,0]),
   midi.ControlChangeEvent(tick=83, channel=0, data=[64,127]),
   midi.NoteOnEvent(tick=268, channel=0, data=[46,0]),
   midi.NoteOnEvent(tick=0, channel=0, data=[58,0]),
   midi.NoteOnEvent(tick=0, channel=0, data=[70,39]),
   midi.NoteOnEvent(tick=120, channel=0, data=[70,0]),
   midi.NoteOnEvent(tick=0, channel=0, data=[70,44]),
   midi.ControlChangeEvent(tick=311, channel=0, data=[64,0]),
   midi.NoteOnEvent(tick=149, channel=0, data=[70,0]),
   midi.NoteOnEvent(tick=20, channel=0, data=[67,38]),
   midi.NoteOnEvent(tick=480, channel=0, data=[67,0]),
   midi.NoteOnEvent(tick=0, channel=0, data=[63,39]),
   midi.NoteOnEvent(tick=240, channel=0, data=[63,0]),
   midi.NoteOnEvent(tick=0, channel=0, data=[62,37]),
   midi.NoteOnEvent(tick=240, channel=0, data=[62,0]),
   midi.NoteOnEvent(tick=0, channel=0, data=[60,38]),
   midi.NoteOnEvent(tick=460, channel=0, data=[60,0]),
   midi.NoteOnEvent(tick=20, channel=0, data=[53,34]),
   midi.NoteOnEvent(tick=0, channel=0, data=[65,34]),
   midi.NoteOnEvent(tick=480, channel=0, data=[65,0]),
   midi.NoteOnEvent(tick=0, channel=0, data=[53,0]),
   midi.NoteOnEvent(tick=0, channel=0, data=[65,36]),
   midi.NoteOnEvent(tick=0, channel=0, data=[58,36]),
   midi.NoteOnEvent(tick=480, channel=0, data=[58,0]),
   midi.NoteOnEvent(tick=0, channel=0, data=[65,0]),
   midi.NoteOnEvent(tick=0, channel=0, data=[70,35]),
   midi.NoteOnEvent(tick=450, channel=0, data=[70,0]),
   midi.NoteOnEvent(tick=510, channel=0, data=[34,48]),
   midi.NoteOnEvent(tick=0, channel=0, data=[46,57]),
   midi.ControlChangeEvent(tick=141, channel=0, data=[64,127]),
   midi.NoteOnEvent(tick=339, channel=0, data=[46,0]),
   midi.NoteOnEvent(tick=0, channel=0, data=[34,0]),
   midi.NoteOnEvent(tick=0, channel=0, data=[62,41]),
   midi.NoteOnEvent(tick=0, channel=0, data=[58,41]),
   midi.NoteOnEvent(tick=0, channel=0, data=[65,49]),
   midi.NoteOnEvent(tick=480, channel=0, data=[65,0]),
   midi.NoteOnEvent(tick=0, channel=0, data=[58,0]),
   midi.NoteOnEvent(tick=0, channel=0, data=[62,0]),
   midi.NoteOnEvent(tick=0, channel=0, data=[62,41]),
   midi.NoteOnEvent(tick=0, channel=0, data=[58,41]),
   midi.NoteOnEvent(tick=0, channel=0, data=[65,49]),
   midi.NoteOnEvent(tick=480, channel=0, data=[65,0]),
   midi.NoteOnEvent(tick=0, channel=0, data=[58,0]),
   midi.NoteOnEvent(tick=0, channel=0, data=[62,0]),
   midi.NoteOnEvent(tick=0, channel=0, data=[53,63]),
   midi.NoteOnEvent(tick=0, channel=0, data=[41,53]),
   midi.ControlChangeEvent(tick=7, channel=0, data=[64,0]),
   midi.ControlChangeEvent(tick=261, channel=0, data=[64,127]),
   midi.NoteOnEvent(tick=212, channel=0, data=[41,0]),
   midi.NoteOnEvent(tick=0, channel=0, data=[53,0]),
   midi.NoteOnEvent(tick=0, channel=0, data=[63,41]),
   midi.NoteOnEvent(tick=0, channel=0, data=[57,41]),
   midi.NoteOnEvent(tick=0, channel=0, data=[65,49]),
   midi.NoteOnEvent(tick=480, channel=0, data=[65,0]),
   midi.NoteOnEvent(tick=0, channel=0, data=[57,0]),
   midi.NoteOnEvent(tick=0, channel=0, data=[63,0]),
   midi.NoteOnEvent(tick=0, channel=0, data=[63,41]),
   midi.NoteOnEvent(tick=0, channel=0, data=[57,41]),
   midi.NoteOnEvent(tick=0, channel=0, data=[65,49]),
   midi.NoteOnEvent(tick=480, channel=0, data=[65,0]),
   midi.NoteOnEvent(tick=0, channel=0, data=[57,0]),
   midi.NoteOnEvent(tick=0, channel=0, data=[63,0]),
   midi.NoteOnEvent(tick=0, channel=0, data=[29,51]),
   midi.NoteOnEvent(tick=0, channel=0, data=[41,61]),
   midi.ControlChangeEvent(tick=5, channel=0, data=[64,0]),
   midi.ControlChangeEvent(tick=263, channel=0, data=[64,127]),
   midi.NoteOnEvent(tick=212, channel=0, data=[41,0]),
   midi.NoteOnEvent(tick=0, channel=0, data=[29,0]),
   midi.NoteOnEvent(tick=0, channel=0, data=[65,49]),
   midi.NoteOnEvent(tick=0, channel=0, data=[57,41]),
   midi.NoteOnEvent(tick=0, channel=0, data=[63,41]),
   midi.NoteOnEvent(tick=480, channel=0, data=[63,0]),
   midi.NoteOnEvent(tick=0, channel=0, data=[57,0]),
   midi.NoteOnEvent(tick=0, channel=0, data=[65,0]),
   midi.NoteOnEvent(tick=0, channel=0, data=[65,49]),
   midi.NoteOnEvent(tick=0, channel=0, data=[57,41]),
   midi.NoteOnEvent(tick=0, channel=0, data=[63,41]),
   midi.NoteOnEvent(tick=480, channel=0, data=[63,0]),
   midi.NoteOnEvent(tick=0, channel=0, data=[57,0]),
   midi.NoteOnEvent(tick=0, channel=0, data=[65,0]),
   midi.NoteOnEvent(tick=0, channel=0, data=[46,57]),
   midi.NoteOnEvent(tick=0, channel=0, data=[34,48]),
   midi.ControlChangeEvent(tick=6, channel=0, data=[64,0]),
   midi.ControlChangeEvent(tick=121, channel=0, data=[64,127]),
   midi.NoteOnEvent(tick=353, channel=0, data=[34,0]),
   midi.NoteOnEvent(tick=0, channel=0, data=[46,0]),
   midi.NoteOnEvent(tick=0, channel=0, data=[62,41]),
   midi.NoteOnEvent(tick=0, channel=0, data=[58,41]),
   midi.NoteOnEvent(tick=0, channel=0, data=[65,49]),
   midi.ControlChangeEvent(tick=254, channel=0, data=[64,0]),
   midi.NoteOnEvent(tick=196, channel=0, data=[65,0]),
   midi.NoteOnEvent(tick=0, channel=0, data=[58,0]),
   midi.NoteOnEvent(tick=0, channel=0, data=[62,0]),
   midi.NoteOnEvent(tick=30, channel=0, data=[53,63]),
   midi.NoteOnEvent(tick=0, channel=0, data=[41,50]),
   midi.NoteOnEvent(tick=480, channel=0, data=[41,0]),
   midi.NoteOnEvent(tick=0, channel=0, data=[53,0]),
   midi.NoteOnEvent(tick=0, channel=0, data=[34,55]),
   midi.NoteOnEvent(tick=0, channel=0, data=[46,69]),
   midi.ControlChangeEvent(tick=46, channel=0, data=[64,127]),
   midi.NoteOnEvent(tick=314, channel=0, data=[46,0]),
   midi.NoteOnEvent(tick=0, channel=0, data=[34,0]),
   midi.NoteOnEvent(tick=0, channel=0, data=[46,50]),
   midi.NoteOnEvent(tick=0, channel=0, data=[58,63]),
   midi.NoteOnEvent(tick=120, channel=0, data=[58,0]),
   midi.NoteOnEvent(tick=0, channel=0, data=[46,0]),
   midi.NoteOnEvent(tick=0, channel=0, data=[46,57]),
   midi.NoteOnEvent(tick=0, channel=0, data=[58,71]),
   midi.NoteOnEvent(tick=420, channel=0, data=[58,0]),
   midi.NoteOnEvent(tick=0, channel=0, data=[46,0]),
   midi.ControlChangeEvent(tick=28, channel=0, data=[64,0]),
   midi.NoteOnEvent(tick=32, channel=0, data=[53,71]),
   midi.NoteOnEvent(tick=0, channel=0, data=[41,57]),
   midi.NoteOnEvent(tick=480, channel=0, data=[41,0]),
   midi.NoteOnEvent(tick=0, channel=0, data=[53,0]),
   midi.NoteOnEvent(tick=0, channel=0, data=[34,59]),
   midi.NoteOnEvent(tick=0, channel=0, data=[46,74]),
   midi.ControlChangeEvent(tick=70, channel=0, data=[64,127]),
   midi.NoteOnEvent(tick=290, channel=0, data=[46,0]),
   midi.NoteOnEvent(tick=0, channel=0, data=[34,0]),
   midi.NoteOnEvent(tick=0, channel=0, data=[46,53]),
   midi.NoteOnEvent(tick=0, channel=0, data=[58,68]),
   midi.NoteOnEvent(tick=120, channel=0, data=[58,0]),
   midi.NoteOnEvent(tick=0, channel=0, data=[46,0]),
   midi.NoteOnEvent(tick=0, channel=0, data=[58,73]),
   midi.NoteOnEvent(tick=0, channel=0, data=[46,58]),
   midi.NoteOnEvent(tick=460, channel=0, data=[46,0]),
   midi.NoteOnEvent(tick=0, channel=0, data=[58,0]),
   midi.NoteOnEvent(tick=20, channel=0, data=[55,59]),
   midi.NoteOnEvent(tick=0, channel=0, data=[43,47]),
   midi.ControlChangeEvent(tick=14, channel=0, data=[64,0]),
   midi.NoteOnEvent(tick=466, channel=0, data=[43,0]),
   midi.NoteOnEvent(tick=0, channel=0, data=[55,0]),
   midi.NoteOnEvent(tick=0, channel=0, data=[39,41]),
   midi.NoteOnEvent(tick=0, channel=0, data=[51,60]),
   midi.NoteOnEvent(tick=240, channel=0, data=[51,0]),
   midi.NoteOnEvent(tick=0, channel=0, data=[39,0]),
   midi.NoteOnEvent(tick=0, channel=0, data=[50,56]),
   midi.NoteOnEvent(tick=0, channel=0, data=[38,37]),
   midi.NoteOnEvent(tick=240, channel=0, data=[38,0]),
   midi.NoteOnEvent(tick=0, channel=0, data=[50,0]),
   midi.NoteOnEvent(tick=0, channel=0, data=[36,39]),
   midi.NoteOnEvent(tick=0, channel=0, data=[48,59]),
   midi.NoteOnEvent(tick=460, channel=0, data=[48,0]),
   midi.NoteOnEvent(tick=0, channel=0, data=[36,0]),
   midi.NoteOnEvent(tick=20, channel=0, data=[41,34]),
   midi.NoteOnEvent(tick=0, channel=0, data=[53,51]),
   midi.NoteOnEvent(tick=480, channel=0, data=[53,0]),
   midi.NoteOnEvent(tick=0, channel=0, data=[41,0]),
   midi.NoteOnEvent(tick=0, channel=0, data=[53,55]),
   midi.NoteOnEvent(tick=0, channel=0, data=[46,35]),
   midi.NoteOnEvent(tick=480, channel=0, data=[46,0]),
   midi.NoteOnEvent(tick=0, channel=0, data=[53,0]),
   midi.NoteOnEvent(tick=0, channel=0, data=[58,53]),
   midi.NoteOnEvent(tick=450, channel=0, data=[58,0]),
   midi.NoteOnEvent(tick=30, channel=0, data=[67,36]),
   midi.NoteOnEvent(tick=480, channel=0, data=[67,0]),
   midi.NoteOnEvent(tick=0, channel=0, data=[63,37]),
   midi.NoteOnEvent(tick=240, channel=0, data=[63,0]),
   midi.NoteOnEvent(tick=0, channel=0, data=[62,34]),
   midi.NoteOnEvent(tick=240, channel=0, data=[62,0]),
   midi.NoteOnEvent(tick=0, channel=0, data=[60,36]),
   midi.NoteOnEvent(tick=460, channel=0, data=[60,0]),
   midi.NoteOnEvent(tick=20, channel=0, data=[65,30]),
   midi.NoteOnEvent(tick=480, channel=0, data=[65,0]),
   midi.NoteOnEvent(tick=0, channel=0, data=[65,33]),
   midi.NoteOnEvent(tick=0, channel=0, data=[58,33]),
   midi.NoteOnEvent(tick=480, channel=0, data=[58,0]),
   midi.NoteOnEvent(tick=0, channel=0, data=[65,0]),
   midi.NoteOnEvent(tick=0, channel=0, data=[70,31]),
   midi.NoteOnEvent(tick=450, channel=0, data=[70,0]),
   midi.NoteOnEvent(tick=510, channel=0, data=[53,49]),
   midi.NoteOnEvent(tick=0, channel=0, data=[41,41]),
   midi.ControlChangeEvent(tick=40, channel=0, data=[64,127]),
   midi.NoteOnEvent(tick=440, channel=0, data=[41,0]),
   midi.NoteOnEvent(tick=0, channel=0, data=[53,0]),
   midi.NoteOnEvent(tick=0, channel=0, data=[65,42]),
   midi.NoteOnEvent(tick=0, channel=0, data=[57,35]),
   midi.NoteOnEvent(tick=0, channel=0, data=[63,35]),
   midi.NoteOnEvent(tick=480, channel=0, data=[63,0]),
   midi.NoteOnEvent(tick=0, channel=0, data=[57,0]),
   midi.NoteOnEvent(tick=0, channel=0, data=[65,0]),
   midi.ControlChangeEvent(tick=0, channel=0, data=[64,0]),
   midi.NoteOnEvent(tick=0, channel=0, data=[63,35]),
   midi.NoteOnEvent(tick=0, channel=0, data=[57,35]),
   midi.NoteOnEvent(tick=0, channel=0, data=[65,42]),
   midi.NoteOnEvent(tick=480, channel=0, data=[65,0]),
   midi.NoteOnEvent(tick=0, channel=0, data=[57,0]),
   midi.NoteOnEvent(tick=0, channel=0, data=[63,0]),
   midi.NoteOnEvent(tick=0, channel=0, data=[34,46]),
   midi.NoteOnEvent(tick=0, channel=0, data=[46,55]),
   midi.ControlChangeEvent(tick=63, channel=0, data=[64,127]),
   midi.NoteOnEvent(tick=417, channel=0, data=[46,0]),
   midi.NoteOnEvent(tick=0, channel=0, data=[34,0]),
   midi.NoteOnEvent(tick=0, channel=0, data=[62,41]),
   midi.NoteOnEvent(tick=0, channel=0, data=[53,34]),
   midi.NoteOnEvent(tick=0, channel=0, data=[58,34]),
   midi.NoteOnEvent(tick=480, channel=0, data=[58,0]),
   midi.NoteOnEvent(tick=0, channel=0, data=[53,0]),
   midi.NoteOnEvent(tick=0, channel=0, data=[62,0]),
   midi.NoteOnEvent(tick=0, channel=0, data=[58,34]),
   midi.NoteOnEvent(tick=0, channel=0, data=[53,34]),
   midi.NoteOnEvent(tick=0, channel=0, data=[62,41]),
   midi.ControlChangeEvent(tick=4, channel=0, data=[64,0]),
   midi.NoteOnEvent(tick=476, channel=0, data=[62,0]),
   midi.NoteOnEvent(tick=0, channel=0, data=[53,0]),
   midi.NoteOnEvent(tick=0, channel=0, data=[58,0]),
   midi.NoteOnEvent(tick=0, channel=0, data=[41,47]),
   midi.NoteOnEvent(tick=0, channel=0, data=[53,56]),
   midi.ControlChangeEvent(tick=49, channel=0, data=[64,127]),
   midi.NoteOnEvent(tick=431, channel=0, data=[53,0]),
   midi.NoteOnEvent(tick=0, channel=0, data=[41,0]),
   midi.NoteOnEvent(tick=0, channel=0, data=[60,37]),
   midi.NoteOnEvent(tick=0, channel=0, data=[53,37]),
   midi.NoteOnEvent(tick=0, channel=0, data=[63,44]),
   midi.NoteOnEvent(tick=480, channel=0, data=[63,0]),
   midi.NoteOnEvent(tick=0, channel=0, data=[53,0]),
   midi.NoteOnEvent(tick=0, channel=0, data=[60,0]),
   midi.NoteOnEvent(tick=0, channel=0, data=[63,44]),
   midi.NoteOnEvent(tick=0, channel=0, data=[60,37]),
   midi.NoteOnEvent(tick=0, channel=0, data=[53,37]),
   midi.NoteOnEvent(tick=480, channel=0, data=[53,0]),
   midi.NoteOnEvent(tick=0, channel=0, data=[60,0]),
   midi.NoteOnEvent(tick=0, channel=0, data=[63,0]),
   midi.ControlChangeEvent(tick=0, channel=0, data=[64,0]),
   midi.NoteOnEvent(tick=0, channel=0, data=[34,46]),
   midi.NoteOnEvent(tick=0, channel=0, data=[46,55]),
   midi.NoteOnEvent(tick=480, channel=0, data=[46,0]),
   midi.NoteOnEvent(tick=0, channel=0, data=[34,0]),
   midi.NoteOnEvent(tick=0, channel=0, data=[62,40]),
   midi.NoteOnEvent(tick=0, channel=0, data=[58,34]),
   midi.NoteOnEvent(tick=0, channel=0, data=[53,34]),
   midi.NoteOnEvent(tick=480, channel=0, data=[53,0]),
   midi.NoteOnEvent(tick=0, channel=0, data=[58,0]),
   midi.NoteOnEvent(tick=0, channel=0, data=[62,0]),
   midi.NoteOnEvent(tick=0, channel=0, data=[62,44]),
   midi.NoteOnEvent(tick=0, channel=0, data=[58,37]),
   midi.NoteOnEvent(tick=0, channel=0, data=[53,37]),
   midi.NoteOnEvent(tick=480, channel=0, data=[53,0]),
   midi.NoteOnEvent(tick=0, channel=0, data=[58,0]),
   midi.NoteOnEvent(tick=0, channel=0, data=[62,0]),
   midi.NoteOnEvent(tick=0, channel=0, data=[41,45]),
   midi.NoteOnEvent(tick=0, channel=0, data=[53,53]),
   midi.ControlChangeEvent(tick=51, channel=0, data=[64,127]),
   midi.NoteOnEvent(tick=429, channel=0, data=[53,0]),
   midi.NoteOnEvent(tick=0, channel=0, data=[41,0]),
   midi.NoteOnEvent(tick=0, channel=0, data=[63,38]),
   midi.NoteOnEvent(tick=0, channel=0, data=[57,38]),
   midi.NoteOnEvent(tick=0, channel=0, data=[65,45]),
   midi.NoteOnEvent(tick=480, channel=0, data=[65,0]),
   midi.NoteOnEvent(tick=0, channel=0, data=[57,0]),
   midi.NoteOnEvent(tick=0, channel=0, data=[63,0]),
   midi.NoteOnEvent(tick=0, channel=0, data=[65,45]),
   midi.NoteOnEvent(tick=0, channel=0, data=[63,38]),
   midi.NoteOnEvent(tick=0, channel=0, data=[57,38]),
   midi.ControlChangeEvent(tick=3, channel=0, data=[64,0]),
   midi.NoteOnEvent(tick=477, channel=0, data=[57,0]),
   midi.NoteOnEvent(tick=0, channel=0, data=[63,0]),
   midi.NoteOnEvent(tick=0, channel=0, data=[65,0]),
   midi.NoteOnEvent(tick=0, channel=0, data=[34,51]),
   midi.NoteOnEvent(tick=0, channel=0, data=[46,60]),
   midi.ControlChangeEvent(tick=63, channel=0, data=[64,127]),
   midi.NoteOnEvent(tick=417, channel=0, data=[46,0]),
   midi.NoteOnEvent(tick=0, channel=0, data=[34,0]),
   midi.NoteOnEvent(tick=0, channel=0, data=[58,38]),
   midi.NoteOnEvent(tick=0, channel=0, data=[53,38]),
   midi.NoteOnEvent(tick=0, channel=0, data=[62,45]),
   midi.NoteOnEvent(tick=480, channel=0, data=[62,0]),
   midi.NoteOnEvent(tick=0, channel=0, data=[53,0]),
   midi.NoteOnEvent(tick=0, channel=0, data=[58,0]),
   midi.ControlChangeEvent(tick=0, channel=0, data=[64,0]),
   midi.NoteOnEvent(tick=0, channel=0, data=[58,38]),
   midi.NoteOnEvent(tick=0, channel=0, data=[53,38]),
   midi.NoteOnEvent(tick=0, channel=0, data=[62,45]),
   midi.NoteOnEvent(tick=480, channel=0, data=[62,0]),
   midi.NoteOnEvent(tick=0, channel=0, data=[53,0]),
   midi.NoteOnEvent(tick=0, channel=0, data=[58,0]),
   midi.NoteOnEvent(tick=0, channel=0, data=[55,53]),
   midi.NoteOnEvent(tick=0, channel=0, data=[60,63]),
   midi.NoteOnEvent(tick=0, channel=0, data=[51,53]),
   midi.NoteOnEvent(tick=1440, channel=0, data=[51,0]),
   midi.NoteOnEvent(tick=0, channel=0, data=[60,0]),
   midi.NoteOnEvent(tick=0, channel=0, data=[55,0]),
   midi.NoteOnEvent(tick=0, channel=0, data=[63,63]),
   midi.NoteOnEvent(tick=0, channel=0, data=[53,53]),
   midi.NoteOnEvent(tick=0, channel=0, data=[57,53]),
   midi.ControlChangeEvent(tick=32, channel=0, data=[64,127]),
   midi.NoteOnEvent(tick=88, channel=0, data=[57,0]),
   midi.NoteOnEvent(tick=0, channel=0, data=[53,0]),
   midi.NoteOnEvent(tick=0, channel=0, data=[63,0]),
   midi.NoteOnEvent(tick=840, channel=0, data=[29,66]),
   midi.NoteOnEvent(tick=0, channel=0, data=[41,78]),
   midi.ControlChangeEvent(tick=0, channel=0, data=[64,0]),
   midi.NoteOnEvent(tick=180, channel=0, data=[41,0]),
   midi.NoteOnEvent(tick=0, channel=0, data=[29,0]),
   midi.NoteOnEvent(tick=300, channel=0, data=[34,60]),
   midi.NoteOnEvent(tick=0, channel=0, data=[46,71]),
   midi.ControlChangeEvent(tick=46, channel=0, data=[64,127]),
   midi.NoteOnEvent(tick=194, channel=0, data=[46,0]),
   midi.NoteOnEvent(tick=0, channel=0, data=[34,0]),
   midi.NoteOnEvent(tick=0, channel=0, data=[53,45]),
   midi.NoteOnEvent(tick=240, channel=0, data=[53,0]),
   midi.NoteOnEvent(tick=0, channel=0, data=[62,49]),
   midi.NoteOnEvent(tick=0, channel=0, data=[58,41]),
   midi.NoteOnEvent(tick=210, channel=0, data=[58,0]),
   midi.NoteOnEvent(tick=0, channel=0, data=[62,0]),
   midi.NoteOnEvent(tick=30, channel=0, data=[53,45]),
   midi.ControlChangeEvent(tick=32, channel=0, data=[64,0]),
   midi.NoteOnEvent(tick=148, channel=0, data=[53,0]),
   midi.NoteOnEvent(tick=60, channel=0, data=[46,72]),
   midi.ControlChangeEvent(tick=56, channel=0, data=[64,127]),
   midi.NoteOnEvent(tick=184, channel=0, data=[46,0]),
   midi.NoteOnEvent(tick=0, channel=0, data=[53,44]),
   midi.NoteOnEvent(tick=240, channel=0, data=[53,0]),
   midi.NoteOnEvent(tick=0, channel=0, data=[58,40]),
   midi.NoteOnEvent(tick=0, channel=0, data=[62,48]),
   midi.NoteOnEvent(tick=210, channel=0, data=[62,0]),
   midi.NoteOnEvent(tick=0, channel=0, data=[58,0]),
   midi.NoteOnEvent(tick=30, channel=0, data=[53,44]),
   midi.NoteOnEvent(tick=240, channel=0, data=[53,0]),
   midi.NoteOnEvent(tick=0, channel=0, data=[41,48]),
   midi.NoteOnEvent(tick=0, channel=0, data=[53,57]),
   midi.ControlChangeEvent(tick=5, channel=0, data=[64,0]),
   midi.ControlChangeEvent(tick=178, channel=0, data=[64,127]),
   midi.NoteOnEvent(tick=57, channel=0, data=[53,0]),
   midi.NoteOnEvent(tick=0, channel=0, data=[41,0]),
   midi.NoteOnEvent(tick=0, channel=0, data=[53,44]),
   midi.NoteOnEvent(tick=240, channel=0, data=[53,0]),
   midi.NoteOnEvent(tick=0, channel=0, data=[63,49]),
   midi.NoteOnEvent(tick=0, channel=0, data=[57,41]),
   midi.NoteOnEvent(tick=240, channel=0, data=[57,0]),
   midi.NoteOnEvent(tick=0, channel=0, data=[63,0]),
   midi.NoteOnEvent(tick=0, channel=0, data=[53,45]),
   midi.NoteOnEvent(tick=240, channel=0, data=[53,0]),
   midi.ControlChangeEvent(tick=0, channel=0, data=[64,0]),
   midi.NoteOnEvent(tick=0, channel=0, data=[46,68]),
   midi.ControlChangeEvent(tick=99, channel=0, data=[64,127]),
   midi.NoteOnEvent(tick=141, channel=0, data=[46,0]),
   midi.NoteOnEvent(tick=0, channel=0, data=[53,44]),
   midi.NoteOnEvent(tick=240, channel=0, data=[53,0]),
   midi.NoteOnEvent(tick=0, channel=0, data=[62,51]),
   midi.NoteOnEvent(tick=0, channel=0, data=[58,43]),
   midi.NoteOnEvent(tick=240, channel=0, data=[58,0]),
   midi.NoteOnEvent(tick=0, channel=0, data=[62,0]),
   midi.ControlChangeEvent(tick=14, channel=0, data=[64,0]),
   midi.NoteOnEvent(tick=226, channel=0, data=[46,71]),
   midi.NoteOnEvent(tick=0, channel=0, data=[34,60]),
   midi.ControlChangeEvent(tick=56, channel=0, data=[64,127]),
   midi.NoteOnEvent(tick=184, channel=0, data=[34,0]),
   midi.NoteOnEvent(tick=0, channel=0, data=[46,0]),
   midi.NoteOnEvent(tick=0, channel=0, data=[53,45]),
   midi.NoteOnEvent(tick=240, channel=0, data=[53,0]),
   midi.NoteOnEvent(tick=0, channel=0, data=[58,41]),
   midi.NoteOnEvent(tick=0, channel=0, data=[62,49]),
   midi.NoteOnEvent(tick=210, channel=0, data=[62,0]),
   midi.NoteOnEvent(tick=0, channel=0, data=[58,0]),
   midi.NoteOnEvent(tick=30, channel=0, data=[53,45]),
   midi.ControlChangeEvent(tick=7, channel=0, data=[64,0]),
   midi.NoteOnEvent(tick=113, channel=0, data=[53,0]),
   midi.NoteOnEvent(tick=120, channel=0, data=[46,72]),
   midi.ControlChangeEvent(tick=113, channel=0, data=[64,127]),
   midi.NoteOnEvent(tick=127, channel=0, data=[46,0]),
   midi.NoteOnEvent(tick=0, channel=0, data=[53,44]),
   midi.NoteOnEvent(tick=240, channel=0, data=[53,0]),
   midi.NoteOnEvent(tick=0, channel=0, data=[62,48]),
   midi.NoteOnEvent(tick=0, channel=0, data=[58,40]),
   midi.NoteOnEvent(tick=210, channel=0, data=[58,0]),
   midi.NoteOnEvent(tick=0, channel=0, data=[62,0]),
   midi.NoteOnEvent(tick=30, channel=0, data=[53,44]),
   midi.NoteOnEvent(tick=240, channel=0, data=[53,0]),
   midi.NoteOnEvent(tick=0, channel=0, data=[53,57]),
   midi.NoteOnEvent(tick=0, channel=0, data=[41,48]),
   midi.ControlChangeEvent(tick=6, channel=0, data=[64,0]),
   midi.ControlChangeEvent(tick=206, channel=0, data=[64,127]),
   midi.NoteOnEvent(tick=28, channel=0, data=[41,0]),
   midi.NoteOnEvent(tick=0, channel=0, data=[53,0]),
   midi.NoteOnEvent(tick=0, channel=0, data=[53,44]),
   midi.NoteOnEvent(tick=240, channel=0, data=[53,0]),
   midi.NoteOnEvent(tick=0, channel=0, data=[63,49]),
   midi.NoteOnEvent(tick=0, channel=0, data=[57,41]),
   midi.NoteOnEvent(tick=240, channel=0, data=[57,0]),
   midi.NoteOnEvent(tick=0, channel=0, data=[63,0]),
   midi.NoteOnEvent(tick=0, channel=0, data=[53,45]),
   midi.NoteOnEvent(tick=240, channel=0, data=[53,0]),
   midi.NoteOnEvent(tick=0, channel=0, data=[46,68]),
   midi.ControlChangeEvent(tick=3, channel=0, data=[64,0]),
   midi.ControlChangeEvent(tick=166, channel=0, data=[64,127]),
   midi.NoteOnEvent(tick=71, channel=0, data=[46,0]),
   midi.NoteOnEvent(tick=0, channel=0, data=[53,44]),
   midi.NoteOnEvent(tick=240, channel=0, data=[53,0]),
   midi.NoteOnEvent(tick=0, channel=0, data=[62,51]),
   midi.NoteOnEvent(tick=0, channel=0, data=[58,43]),
   midi.ControlChangeEvent(tick=198, channel=0, data=[64,0]),
   midi.NoteOnEvent(tick=42, channel=0, data=[58,0]),
   midi.NoteOnEvent(tick=0, channel=0, data=[62,0]),
   midi.NoteOnEvent(tick=240, channel=0, data=[41,49]),
   midi.ControlChangeEvent(tick=49, channel=0, data=[64,127]),
   midi.NoteOnEvent(tick=71, channel=0, data=[41,0]),
   midi.NoteOnEvent(tick=0, channel=0, data=[53,41]),
   midi.NoteOnEvent(tick=120, channel=0, data=[53,0]),
   midi.NoteOnEvent(tick=0, channel=0, data=[41,49]),
   midi.NoteOnEvent(tick=120, channel=0, data=[41,0]),
   midi.NoteOnEvent(tick=0, channel=0, data=[53,41]),
   midi.NoteOnEvent(tick=120, channel=0, data=[53,0]),
   midi.NoteOnEvent(tick=0, channel=0, data=[41,49]),
   midi.NoteOnEvent(tick=120, channel=0, data=[41,0]),
   midi.NoteOnEvent(tick=0, channel=0, data=[53,41]),
   midi.NoteOnEvent(tick=120, channel=0, data=[53,0]),
   midi.NoteOnEvent(tick=0, channel=0, data=[41,49]),
   midi.NoteOnEvent(tick=120, channel=0, data=[41,0]),
   midi.NoteOnEvent(tick=0, channel=0, data=[53,41]),
   midi.NoteOnEvent(tick=120, channel=0, data=[53,0]),
   midi.NoteOnEvent(tick=0, channel=0, data=[41,49]),
   midi.NoteOnEvent(tick=120, channel=0, data=[41,0]),
   midi.NoteOnEvent(tick=0, channel=0, data=[53,41]),
   midi.NoteOnEvent(tick=120, channel=0, data=[53,0]),
   midi.NoteOnEvent(tick=0, channel=0, data=[41,51]),
   midi.NoteOnEvent(tick=120, channel=0, data=[41,0]),
   midi.NoteOnEvent(tick=0, channel=0, data=[53,44]),
   midi.NoteOnEvent(tick=120, channel=0, data=[53,0]),
   midi.NoteOnEvent(tick=0, channel=0, data=[41,52]),
   midi.NoteOnEvent(tick=120, channel=0, data=[41,0]),
   midi.NoteOnEvent(tick=0, channel=0, data=[53,45]),
   midi.NoteOnEvent(tick=120, channel=0, data=[53,0]),
   midi.NoteOnEvent(tick=0, channel=0, data=[41,53]),
   midi.NoteOnEvent(tick=120, channel=0, data=[41,0]),
   midi.NoteOnEvent(tick=0, channel=0, data=[53,47]),
   midi.NoteOnEvent(tick=120, channel=0, data=[53,0]),
   midi.NoteOnEvent(tick=0, channel=0, data=[46,59]),
   midi.ControlChangeEvent(tick=6, channel=0, data=[64,0]),
   midi.ControlChangeEvent(tick=100, channel=0, data=[64,127]),
   midi.NoteOnEvent(tick=14, channel=0, data=[46,0]),
   midi.NoteOnEvent(tick=0, channel=0, data=[58,48]),
   midi.NoteOnEvent(tick=120, channel=0, data=[58,0]),
   midi.NoteOnEvent(tick=0, channel=0, data=[46,62]),
   midi.NoteOnEvent(tick=120, channel=0, data=[46,0]),
   midi.NoteOnEvent(tick=0, channel=0, data=[58,50]),
   midi.NoteOnEvent(tick=120, channel=0, data=[58,0]),
   midi.NoteOnEvent(tick=0, channel=0, data=[46,64]),
   midi.NoteOnEvent(tick=120, channel=0, data=[46,0]),
   midi.NoteOnEvent(tick=0, channel=0, data=[58,52]),
   midi.NoteOnEvent(tick=120, channel=0, data=[58,0]),
   midi.NoteOnEvent(tick=0, channel=0, data=[46,66]),
   midi.NoteOnEvent(tick=120, channel=0, data=[46,0]),
   midi.NoteOnEvent(tick=0, channel=0, data=[58,55]),
   midi.NoteOnEvent(tick=120, channel=0, data=[58,0]),
   midi.NoteOnEvent(tick=0, channel=0, data=[39,52]),
   midi.NoteOnEvent(tick=0, channel=0, data=[51,59]),
   midi.ControlChangeEvent(tick=8, channel=0, data=[64,0]),
   midi.ControlChangeEvent(tick=204, channel=0, data=[64,127]),
   midi.NoteOnEvent(tick=508, channel=0, data=[51,0]),
   midi.NoteOnEvent(tick=0, channel=0, data=[39,0]),
   midi.NoteOnEvent(tick=0, channel=0, data=[39,55]),
   midi.NoteOnEvent(tick=0, channel=0, data=[51,60]),
   midi.NoteOnEvent(tick=240, channel=0, data=[51,0]),
   midi.NoteOnEvent(tick=0, channel=0, data=[39,0]),
   midi.NoteOnEvent(tick=0, channel=0, data=[41,58]),
   midi.NoteOnEvent(tick=0, channel=0, data=[53,66]),
   midi.ControlChangeEvent(tick=9, channel=0, data=[64,0]),
   midi.ControlChangeEvent(tick=245, channel=0, data=[64,127]),
   midi.NoteOnEvent(tick=226, channel=0, data=[53,0]),
   midi.NoteOnEvent(tick=0, channel=0, data=[41,0]),
   midi.NoteOnEvent(tick=0, channel=0, data=[53,61]),
   midi.NoteOnEvent(tick=0, channel=0, data=[41,56]),
   midi.NoteOnEvent(tick=240, channel=0, data=[41,0]),
   midi.NoteOnEvent(tick=0, channel=0, data=[53,0]),
   midi.NoteOnEvent(tick=0, channel=0, data=[41,56]),
   midi.NoteOnEvent(tick=0, channel=0, data=[53,61]),
   midi.NoteOnEvent(tick=240, channel=0, data=[53,0]),
   midi.NoteOnEvent(tick=0, channel=0, data=[41,0]),
   midi.NoteOnEvent(tick=0, channel=0, data=[29,61]),
   midi.NoteOnEvent(tick=0, channel=0, data=[41,69]),
   midi.ControlChangeEvent(tick=7, channel=0, data=[64,0]),
   midi.ControlChangeEvent(tick=176, channel=0, data=[64,127]),
   midi.NoteOnEvent(tick=297, channel=0, data=[41,0]),
   midi.NoteOnEvent(tick=0, channel=0, data=[29,0]),
   midi.NoteOnEvent(tick=0, channel=0, data=[41,58]),
   midi.NoteOnEvent(tick=0, channel=0, data=[53,64]),
   midi.NoteOnEvent(tick=240, channel=0, data=[53,0]),
   midi.NoteOnEvent(tick=0, channel=0, data=[41,0]),
   midi.NoteOnEvent(tick=0, channel=0, data=[53,59]),
   midi.NoteOnEvent(tick=0, channel=0, data=[41,53]),
   midi.NoteOnEvent(tick=240, channel=0, data=[41,0]),
   midi.NoteOnEvent(tick=0, channel=0, data=[53,0]),
   midi.NoteOnEvent(tick=0, channel=0, data=[53,64]),
   midi.NoteOnEvent(tick=0, channel=0, data=[41,58]),
   midi.ControlChangeEvent(tick=7, channel=0, data=[64,0]),
   midi.ControlChangeEvent(tick=205, channel=0, data=[64,127]),
   midi.NoteOnEvent(tick=268, channel=0, data=[41,0]),
   midi.NoteOnEvent(tick=0, channel=0, data=[53,0]),
   midi.NoteOnEvent(tick=0, channel=0, data=[53,59]),
   midi.NoteOnEvent(tick=0, channel=0, data=[41,53]),
   midi.NoteOnEvent(tick=240, channel=0, data=[41,0]),
   midi.NoteOnEvent(tick=0, channel=0, data=[53,0]),
   midi.NoteOnEvent(tick=0, channel=0, data=[41,53]),
   midi.NoteOnEvent(tick=0, channel=0, data=[53,59]),
   midi.NoteOnEvent(tick=240, channel=0, data=[53,0]),
   midi.NoteOnEvent(tick=0, channel=0, data=[41,0]),
   midi.ControlChangeEvent(tick=0, channel=0, data=[64,0]),
   midi.NoteOnEvent(tick=0, channel=0, data=[46,46]),
   midi.NoteOnEvent(tick=0, channel=0, data=[53,51]),
   midi.NoteOnEvent(tick=480, channel=0, data=[53,0]),
   midi.NoteOnEvent(tick=0, channel=0, data=[46,0]),
   midi.NoteOnEvent(tick=480, channel=0, data=[48,42]),
   midi.NoteOnEvent(tick=0, channel=0, data=[36,38]),
   midi.ControlChangeEvent(tick=113, channel=0, data=[64,127]),
   midi.NoteOnEvent(tick=367, channel=0, data=[36,0]),
   midi.NoteOnEvent(tick=0, channel=0, data=[48,0]),
   midi.NoteOnEvent(tick=0, channel=0, data=[41,34]),
   midi.NoteOnEvent(tick=0, channel=0, data=[51,38]),
   midi.ControlChangeEvent(tick=14, channel=0, data=[64,0]),
   midi.ControlChangeEvent(tick=141, channel=0, data=[64,127]),
   midi.NoteOnEvent(tick=85, channel=0, data=[51,0]),
   midi.NoteOnEvent(tick=0, channel=0, data=[41,0]),
   midi.NoteOnEvent(tick=0, channel=0, data=[51,38]),
   midi.NoteOnEvent(tick=0, channel=0, data=[41,34]),
   midi.NoteOnEvent(tick=240, channel=0, data=[41,0]),
   midi.NoteOnEvent(tick=0, channel=0, data=[51,0]),
   midi.NoteOnEvent(tick=0, channel=0, data=[50,42]),
   midi.NoteOnEvent(tick=0, channel=0, data=[46,38]),
   midi.ControlChangeEvent(tick=5, channel=0, data=[64,0]),
   midi.ControlChangeEvent(tick=235, channel=0, data=[64,127]),
   midi.NoteOnEvent(tick=240, channel=0, data=[46,0]),
   midi.NoteOnEvent(tick=0, channel=0, data=[50,0]),
   midi.ControlChangeEvent(tick=53, channel=0, data=[64,0]),
   midi.NoteOnEvent(tick=427, channel=0, data=[62,34]),
   midi.NoteOnEvent(tick=0, channel=0, data=[58,34]),
   midi.NoteOnEvent(tick=0, channel=0, data=[68,40]),
   midi.ControlChangeEvent(tick=99, channel=0, data=[64,127]),
   midi.NoteOnEvent(tick=381, channel=0, data=[68,0]),
   midi.NoteOnEvent(tick=0, channel=0, data=[58,0]),
   midi.NoteOnEvent(tick=0, channel=0, data=[62,0]),
   midi.NoteOnEvent(tick=0, channel=0, data=[68,38]),
   midi.NoteOnEvent(tick=0, channel=0, data=[62,32]),
   midi.NoteOnEvent(tick=0, channel=0, data=[58,32]),
   midi.NoteOnEvent(tick=240, channel=0, data=[58,0]),
   midi.NoteOnEvent(tick=0, channel=0, data=[62,0]),
   midi.NoteOnEvent(tick=0, channel=0, data=[68,0]),
   midi.NoteOnEvent(tick=0, channel=0, data=[68,38]),
   midi.NoteOnEvent(tick=0, channel=0, data=[62,32]),
   midi.NoteOnEvent(tick=0, channel=0, data=[58,32]),
   midi.NoteOnEvent(tick=240, channel=0, data=[58,0]),
   midi.NoteOnEvent(tick=0, channel=0, data=[62,0]),
   midi.NoteOnEvent(tick=0, channel=0, data=[68,0]),
   midi.NoteOnEvent(tick=0, channel=0, data=[68,41]),
   midi.NoteOnEvent(tick=0, channel=0, data=[58,34]),
   midi.NoteOnEvent(tick=0, channel=0, data=[62,34]),
   midi.ControlChangeEvent(tick=4, channel=0, data=[64,0]),
   midi.ControlChangeEvent(tick=208, channel=0, data=[64,127]),
   midi.NoteOnEvent(tick=268, channel=0, data=[62,0]),
   midi.NoteOnEvent(tick=0, channel=0, data=[58,0]),
   midi.NoteOnEvent(tick=0, channel=0, data=[68,0]),
   midi.NoteOnEvent(tick=0, channel=0, data=[62,37]),
   midi.NoteOnEvent(tick=0, channel=0, data=[58,37]),
   midi.NoteOnEvent(tick=0, channel=0, data=[68,44]),
   midi.NoteOnEvent(tick=240, channel=0, data=[68,0]),
   midi.NoteOnEvent(tick=0, channel=0, data=[58,0]),
   midi.NoteOnEvent(tick=0, channel=0, data=[62,0]),
   midi.NoteOnEvent(tick=0, channel=0, data=[68,44]),
   midi.NoteOnEvent(tick=0, channel=0, data=[58,37]),
   midi.NoteOnEvent(tick=0, channel=0, data=[62,37]),
   midi.NoteOnEvent(tick=240, channel=0, data=[62,0]),
   midi.NoteOnEvent(tick=0, channel=0, data=[58,0]),
   midi.NoteOnEvent(tick=0, channel=0, data=[68,0]),
   midi.ControlChangeEvent(tick=0, channel=0, data=[64,0]),
   midi.NoteOnEvent(tick=0, channel=0, data=[62,41]),
   midi.NoteOnEvent(tick=0, channel=0, data=[58,41]),
   midi.NoteOnEvent(tick=0, channel=0, data=[68,49]),
   midi.ControlChangeEvent(tick=297, channel=0, data=[64,127]),
   midi.NoteOnEvent(tick=183, channel=0, data=[68,0]),
   midi.NoteOnEvent(tick=0, channel=0, data=[58,0]),
   midi.NoteOnEvent(tick=0, channel=0, data=[62,0]),
   midi.NoteOnEvent(tick=0, channel=0, data=[68,46]),
   midi.NoteOnEvent(tick=0, channel=0, data=[65,39]),
   midi.NoteOnEvent(tick=0, channel=0, data=[58,39]),
   midi.NoteOnEvent(tick=480, channel=0, data=[58,0]),
   midi.NoteOnEvent(tick=0, channel=0, data=[65,0]),
   midi.NoteOnEvent(tick=0, channel=0, data=[68,0]),
   midi.NoteOnEvent(tick=0, channel=0, data=[46,41]),
   midi.ControlChangeEvent(tick=2, channel=0, data=[64,0]),
   midi.NoteOnEvent(tick=28, channel=0, data=[53,41]),
   midi.ControlChangeEvent(tick=20, channel=0, data=[64,127]),
   midi.NoteOnEvent(tick=10, channel=0, data=[56,41]),
   midi.NoteOnEvent(tick=30, channel=0, data=[62,49]),
   midi.NoteOnEvent(tick=870, channel=0, data=[62,0]),
   midi.NoteOnEvent(tick=0, channel=0, data=[46,0]),
   midi.NoteOnEvent(tick=0, channel=0, data=[53,0]),
   midi.NoteOnEvent(tick=0, channel=0, data=[56,0]),
   midi.NoteOnEvent(tick=0, channel=0, data=[39,44]),
   midi.NoteOnEvent(tick=0, channel=0, data=[51,55]),
   midi.ControlChangeEvent(tick=6, channel=0, data=[64,0]),
   midi.ControlChangeEvent(tick=340, channel=0, data=[64,127]),
   midi.NoteOnEvent(tick=134, channel=0, data=[51,0]),
   midi.NoteOnEvent(tick=0, channel=0, data=[39,0]),
   midi.NoteOnEvent(tick=0, channel=0, data=[34,39]),
   midi.NoteOnEvent(tick=0, channel=0, data=[46,49]),
   midi.NoteOnEvent(tick=480, channel=0, data=[46,0]),
   midi.NoteOnEvent(tick=0, channel=0, data=[34,0]),
   midi.NoteOnEvent(tick=0, channel=0, data=[51,55]),
   midi.NoteOnEvent(tick=0, channel=0, data=[39,44]),
   midi.NoteOnEvent(tick=480, channel=0, data=[39,0]),
   midi.NoteOnEvent(tick=0, channel=0, data=[51,0]),
   midi.NoteOnEvent(tick=0, channel=0, data=[46,49]),
   midi.NoteOnEvent(tick=0, channel=0, data=[34,39]),
   midi.NoteOnEvent(tick=480, channel=0, data=[34,0]),
   midi.NoteOnEvent(tick=0, channel=0, data=[46,0]),
   midi.NoteOnEvent(tick=0, channel=0, data=[51,55]),
   midi.NoteOnEvent(tick=0, channel=0, data=[39,44]),
   midi.NoteOnEvent(tick=480, channel=0, data=[39,0]),
   midi.NoteOnEvent(tick=0, channel=0, data=[51,0]),
   midi.NoteOnEvent(tick=0, channel=0, data=[46,50]),
   midi.NoteOnEvent(tick=0, channel=0, data=[34,39]),
   midi.NoteOnEvent(tick=480, channel=0, data=[34,0]),
   midi.NoteOnEvent(tick=0, channel=0, data=[46,0]),
   midi.NoteOnEvent(tick=0, channel=0, data=[39,44]),
   midi.NoteOnEvent(tick=0, channel=0, data=[51,55]),
   midi.NoteOnEvent(tick=480, channel=0, data=[51,0]),
   midi.NoteOnEvent(tick=0, channel=0, data=[39,0]),
   midi.NoteOnEvent(tick=0, channel=0, data=[34,39]),
   midi.NoteOnEvent(tick=0, channel=0, data=[46,49]),
   midi.NoteOnEvent(tick=480, channel=0, data=[46,0]),
   midi.NoteOnEvent(tick=0, channel=0, data=[34,0]),
   midi.NoteOnEvent(tick=0, channel=0, data=[39,44]),
   midi.NoteOnEvent(tick=0, channel=0, data=[51,55]),
   midi.ControlChangeEvent(tick=7, channel=0, data=[64,0]),
   midi.ControlChangeEvent(tick=259, channel=0, data=[64,127]),
   midi.NoteOnEvent(tick=214, channel=0, data=[51,0]),
   midi.NoteOnEvent(tick=0, channel=0, data=[39,0]),
   midi.NoteOnEvent(tick=0, channel=0, data=[46,49]),
   midi.NoteOnEvent(tick=0, channel=0, data=[34,39]),
   midi.NoteOnEvent(tick=480, channel=0, data=[34,0]),
   midi.NoteOnEvent(tick=0, channel=0, data=[46,0]),
   midi.NoteOnEvent(tick=0, channel=0, data=[51,55]),
   midi.NoteOnEvent(tick=0, channel=0, data=[39,44]),
   midi.ControlChangeEvent(tick=6, channel=0, data=[64,0]),
   midi.ControlChangeEvent(tick=314, channel=0, data=[64,127]),
   midi.NoteOnEvent(tick=160, channel=0, data=[39,0]),
   midi.NoteOnEvent(tick=0, channel=0, data=[51,0]),
   midi.NoteOnEvent(tick=0, channel=0, data=[46,49]),
   midi.NoteOnEvent(tick=0, channel=0, data=[34,39]),
   midi.NoteOnEvent(tick=480, channel=0, data=[34,0]),
   midi.NoteOnEvent(tick=0, channel=0, data=[46,0]),
   midi.NoteOnEvent(tick=0, channel=0, data=[51,56]),
   midi.NoteOnEvent(tick=0, channel=0, data=[39,44]),
   midi.ControlChangeEvent(tick=3, channel=0, data=[64,0]),
   midi.ControlChangeEvent(tick=152, channel=0, data=[64,127]),
   midi.NoteOnEvent(tick=325, channel=0, data=[39,0]),
   midi.NoteOnEvent(tick=0, channel=0, data=[51,0]),
   midi.NoteOnEvent(tick=0, channel=0, data=[34,39]),
   midi.NoteOnEvent(tick=0, channel=0, data=[46,50]),
   midi.NoteOnEvent(tick=480, channel=0, data=[46,0]),
   midi.NoteOnEvent(tick=0, channel=0, data=[34,0]),
   midi.NoteOnEvent(tick=0, channel=0, data=[39,44]),
   midi.NoteOnEvent(tick=0, channel=0, data=[51,55]),
   midi.ControlChangeEvent(tick=10, channel=0, data=[64,0]),
   midi.ControlChangeEvent(tick=117, channel=0, data=[64,127]),
   midi.NoteOnEvent(tick=353, channel=0, data=[51,0]),
   midi.NoteOnEvent(tick=0, channel=0, data=[39,0]),
   midi.NoteOnEvent(tick=0, channel=0, data=[34,39]),
   midi.NoteOnEvent(tick=0, channel=0, data=[46,49]),
   midi.NoteOnEvent(tick=480, channel=0, data=[46,0]),
   midi.NoteOnEvent(tick=0, channel=0, data=[34,0]),
   midi.NoteOnEvent(tick=0, channel=0, data=[39,44]),
   midi.NoteOnEvent(tick=0, channel=0, data=[51,55]),
   midi.ControlChangeEvent(tick=12, channel=0, data=[64,0]),
   midi.ControlChangeEvent(tick=308, channel=0, data=[64,127]),
   midi.NoteOnEvent(tick=160, channel=0, data=[51,0]),
   midi.NoteOnEvent(tick=0, channel=0, data=[39,0]),
   midi.NoteOnEvent(tick=0, channel=0, data=[46,48]),
   midi.NoteOnEvent(tick=0, channel=0, data=[34,38]),
   midi.NoteOnEvent(tick=480, channel=0, data=[34,0]),
   midi.NoteOnEvent(tick=0, channel=0, data=[46,0]),
   midi.NoteOnEvent(tick=0, channel=0, data=[44,61]),
   midi.NoteOnEvent(tick=0, channel=0, data=[32,49]),
   midi.ControlChangeEvent(tick=4, channel=0, data=[64,0]),
   midi.ControlChangeEvent(tick=316, channel=0, data=[64,127]),
   midi.NoteOnEvent(tick=160, channel=0, data=[32,0]),
   midi.NoteOnEvent(tick=0, channel=0, data=[44,0]),
   midi.NoteOnEvent(tick=0, channel=0, data=[48,50]),
   midi.NoteOnEvent(tick=0, channel=0, data=[36,39]),
   midi.NoteOnEvent(tick=480, channel=0, data=[36,0]),
   midi.NoteOnEvent(tick=0, channel=0, data=[48,0]),
   midi.NoteOnEvent(tick=0, channel=0, data=[51,56]),
   midi.NoteOnEvent(tick=0, channel=0, data=[39,44]),
   midi.ControlChangeEvent(tick=2, channel=0, data=[64,0]),
   midi.ControlChangeEvent(tick=195, channel=0, data=[64,127]),
   midi.NoteOnEvent(tick=283, channel=0, data=[39,0]),
   midi.NoteOnEvent(tick=0, channel=0, data=[51,0]),
   midi.NoteOnEvent(tick=0, channel=0, data=[46,49]),
   midi.NoteOnEvent(tick=0, channel=0, data=[34,39]),
   midi.NoteOnEvent(tick=480, channel=0, data=[34,0]),
   midi.NoteOnEvent(tick=0, channel=0, data=[46,0]),
   midi.NoteOnEvent(tick=0, channel=0, data=[39,44]),
   midi.NoteOnEvent(tick=0, channel=0, data=[51,56]),
   midi.ControlChangeEvent(tick=12, channel=0, data=[64,0]),
   midi.ControlChangeEvent(tick=256, channel=0, data=[64,127]),
   midi.NoteOnEvent(tick=212, channel=0, data=[51,0]),
   midi.NoteOnEvent(tick=0, channel=0, data=[39,0]),
   midi.NoteOnEvent(tick=0, channel=0, data=[34,39]),
   midi.NoteOnEvent(tick=0, channel=0, data=[46,50]),
   midi.NoteOnEvent(tick=480, channel=0, data=[46,0]),
   midi.NoteOnEvent(tick=0, channel=0, data=[34,0]),
   midi.NoteOnEvent(tick=0, channel=0, data=[51,58]),
   midi.NoteOnEvent(tick=0, channel=0, data=[39,46]),
   midi.ControlChangeEvent(tick=13, channel=0, data=[64,0]),
   midi.ControlChangeEvent(tick=307, channel=0, data=[64,127]),
   midi.NoteOnEvent(tick=160, channel=0, data=[39,0]),
   midi.NoteOnEvent(tick=0, channel=0, data=[51,0]),
   midi.NoteOnEvent(tick=0, channel=0, data=[34,40]),
   midi.NoteOnEvent(tick=0, channel=0, data=[46,51]),
   midi.NoteOnEvent(tick=480, channel=0, data=[46,0]),
   midi.NoteOnEvent(tick=0, channel=0, data=[34,0]),
   midi.NoteOnEvent(tick=0, channel=0, data=[50,62]),
   midi.NoteOnEvent(tick=0, channel=0, data=[38,49]),
   midi.ControlChangeEvent(tick=13, channel=0, data=[64,0]),
   midi.ControlChangeEvent(tick=307, channel=0, data=[64,127]),
   midi.NoteOnEvent(tick=160, channel=0, data=[38,0]),
   midi.NoteOnEvent(tick=0, channel=0, data=[50,0]),
   midi.NoteOnEvent(tick=0, channel=0, data=[46,56]),
   midi.NoteOnEvent(tick=0, channel=0, data=[34,44]),
   midi.NoteOnEvent(tick=480, channel=0, data=[34,0]),
   midi.NoteOnEvent(tick=0, channel=0, data=[46,0]),
   midi.NoteOnEvent(tick=0, channel=0, data=[53,67]),
   midi.NoteOnEvent(tick=0, channel=0, data=[41,52]),
   midi.ControlChangeEvent(tick=2, channel=0, data=[64,0]),
   midi.ControlChangeEvent(tick=264, channel=0, data=[64,127]),
   midi.NoteOnEvent(tick=214, channel=0, data=[41,0]),
   midi.NoteOnEvent(tick=0, channel=0, data=[53,0]),
   midi.NoteOnEvent(tick=0, channel=0, data=[48,58]),
   midi.NoteOnEvent(tick=0, channel=0, data=[36,46]),
   midi.NoteOnEvent(tick=480, channel=0, data=[36,0]),
   midi.NoteOnEvent(tick=0, channel=0, data=[48,0]),
   midi.NoteOnEvent(tick=0, channel=0, data=[46,77]),
   midi.NoteOnEvent(tick=0, channel=0, data=[34,61]),
   midi.ControlChangeEvent(tick=14, channel=0, data=[64,0]),
   midi.ControlChangeEvent(tick=332, channel=0, data=[64,127]),
   midi.NoteOnEvent(tick=134, channel=0, data=[34,0]),
   midi.NoteOnEvent(tick=0, channel=0, data=[46,0]),
   midi.NoteOnEvent(tick=0, channel=0, data=[39,56]),
   midi.NoteOnEvent(tick=0, channel=0, data=[51,70]),
   midi.NoteOnEvent(tick=480, channel=0, data=[51,0]),
   midi.NoteOnEvent(tick=0, channel=0, data=[39,0]),
   midi.NoteOnEvent(tick=0, channel=0, data=[29,66]),
   midi.NoteOnEvent(tick=0, channel=0, data=[41,82]),
   midi.ControlChangeEvent(tick=3, channel=0, data=[64,0]),
   midi.ControlChangeEvent(tick=237, channel=0, data=[64,127]),
   midi.NoteOnEvent(tick=240, channel=0, data=[41,0]),
   midi.NoteOnEvent(tick=0, channel=0, data=[29,0]),
   midi.NoteOnEvent(tick=0, channel=0, data=[53,70]),
   midi.NoteOnEvent(tick=480, channel=0, data=[53,0]),
   midi.NoteOnEvent(tick=0, channel=0, data=[29,61]),
   midi.NoteOnEvent(tick=0, channel=0, data=[41,78]),
   midi.ControlChangeEvent(tick=20, channel=0, data=[64,0]),
   midi.ControlChangeEvent(tick=326, channel=0, data=[64,127]),
   midi.NoteOnEvent(tick=134, channel=0, data=[41,0]),
   midi.NoteOnEvent(tick=0, channel=0, data=[29,0]),
   midi.NoteOnEvent(tick=0, channel=0, data=[53,66]),
   midi.NoteOnEvent(tick=480, channel=0, data=[53,0]),
   midi.NoteOnEvent(tick=0, channel=0, data=[34,60]),
   midi.NoteOnEvent(tick=0, channel=0, data=[46,75]),
   midi.ControlChangeEvent(tick=6, channel=0, data=[64,0]),
   midi.ControlChangeEvent(tick=394, channel=0, data=[64,127]),
   midi.NoteOnEvent(tick=80, channel=0, data=[46,0]),
   midi.NoteOnEvent(tick=0, channel=0, data=[34,0]),
   midi.NoteOnEvent(tick=0, channel=0, data=[46,64]),
   midi.NoteOnEvent(tick=0, channel=0, data=[58,81]),
   midi.NoteOnEvent(tick=480, channel=0, data=[58,0]),
   midi.NoteOnEvent(tick=0, channel=0, data=[46,0]),
   midi.NoteOnEvent(tick=0, channel=0, data=[53,73]),
   midi.NoteOnEvent(tick=0, channel=0, data=[41,59]),
   midi.NoteOnEvent(tick=480, channel=0, data=[41,0]),
   midi.NoteOnEvent(tick=0, channel=0, data=[53,0]),
   midi.NoteOnEvent(tick=0, channel=0, data=[38,52]),
   midi.NoteOnEvent(tick=0, channel=0, data=[50,66]),
   midi.NoteOnEvent(tick=480, channel=0, data=[50,0]),
   midi.NoteOnEvent(tick=0, channel=0, data=[38,0]),
   midi.NoteOnEvent(tick=0, channel=0, data=[34,33]),
   midi.NoteOnEvent(tick=0, channel=0, data=[46,41]),
   midi.ControlChangeEvent(tick=2, channel=0, data=[64,0]),
   midi.ControlChangeEvent(tick=65, channel=0, data=[64,127]),
   midi.NoteOnEvent(tick=413, channel=0, data=[46,0]),
   midi.NoteOnEvent(tick=0, channel=0, data=[34,0]),
   midi.NoteOnEvent(tick=0, channel=0, data=[70,36]),
   midi.NoteOnEvent(tick=180, channel=0, data=[70,0]),
   midi.NoteOnEvent(tick=300, channel=0, data=[70,39]),
   midi.ControlChangeEvent(tick=20, channel=0, data=[64,0]),
   midi.ControlChangeEvent(tick=68, channel=0, data=[64,127]),
   midi.NoteOnEvent(tick=92, channel=0, data=[70,0]),
   midi.NoteOnEvent(tick=300, channel=0, data=[70,41]),
   midi.NoteOnEvent(tick=180, channel=0, data=[70,0]),
   midi.ControlChangeEvent(tick=300, channel=0, data=[64,0]),
   midi.NoteOnEvent(tick=0, channel=0, data=[46,48]),
   midi.NoteOnEvent(tick=0, channel=0, data=[34,48]),
   midi.ControlChangeEvent(tick=77, channel=0, data=[64,127]),
   midi.NoteOnEvent(tick=403, channel=0, data=[34,0]),
   midi.NoteOnEvent(tick=0, channel=0, data=[46,0]),
   midi.NoteOnEvent(tick=0, channel=0, data=[82,49]),
   midi.NoteOnEvent(tick=180, channel=0, data=[82,0]),
   midi.NoteOnEvent(tick=300, channel=0, data=[82,49]),
   midi.ControlChangeEvent(tick=14, channel=0, data=[64,0]),
   midi.ControlChangeEvent(tick=74, channel=0, data=[64,127]),
   midi.NoteOnEvent(tick=92, channel=0, data=[82,0]),
   midi.NoteOnEvent(tick=300, channel=0, data=[82,50]),
   midi.NoteOnEvent(tick=180, channel=0, data=[82,0]),
   midi.ControlChangeEvent(tick=300, channel=0, data=[64,0]),
   midi.NoteOnEvent(tick=0, channel=0, data=[51,49]),
   midi.NoteOnEvent(tick=11, channel=0, data=[39,49]),
   midi.ControlChangeEvent(tick=52, channel=0, data=[64,127]),
   midi.NoteOnEvent(tick=417, channel=0, data=[51,0]),
   midi.NoteOnEvent(tick=0, channel=0, data=[75,52]),
   midi.NoteOnEvent(tick=11, channel=0, data=[39,0]),
   midi.NoteOnEvent(tick=169, channel=0, data=[75,0]),
   midi.NoteOnEvent(tick=300, channel=0, data=[75,52]),
   midi.ControlChangeEvent(tick=10, channel=0, data=[64,0]),
   midi.ControlChangeEvent(tick=46, channel=0, data=[64,127]),
   midi.NoteOnEvent(tick=124, channel=0, data=[75,0]),
   midi.NoteOnEvent(tick=300, channel=0, data=[75,56]),
   midi.NoteOnEvent(tick=180, channel=0, data=[75,0]),
   midi.NoteOnEvent(tick=300, channel=0, data=[39,59]),
   midi.NoteOnEvent(tick=0, channel=0, data=[51,59]),
   midi.ControlChangeEvent(tick=7, channel=0, data=[64,0]),
   midi.ControlChangeEvent(tick=70, channel=0, data=[64,127]),
   midi.NoteOnEvent(tick=403, channel=0, data=[51,0]),
   midi.NoteOnEvent(tick=0, channel=0, data=[39,0]),
   midi.NoteOnEvent(tick=0, channel=0, data=[87,66]),
   midi.NoteOnEvent(tick=180, channel=0, data=[87,0]),
   midi.NoteOnEvent(tick=300, channel=0, data=[87,66]),
   midi.ControlChangeEvent(tick=15, channel=0, data=[64,0]),
   midi.ControlChangeEvent(tick=91, channel=0, data=[64,127]),
   midi.NoteOnEvent(tick=74, channel=0, data=[87,0]),
   midi.NoteOnEvent(tick=300, channel=0, data=[87,66]),
   midi.NoteOnEvent(tick=180, channel=0, data=[87,0]),
   midi.ControlChangeEvent(tick=251, channel=0, data=[64,0]),
   midi.NoteOnEvent(tick=49, channel=0, data=[51,72]),
   midi.NoteOnEvent(tick=0, channel=0, data=[39,64]),
   midi.ControlChangeEvent(tick=186, channel=0, data=[64,127]),
   midi.NoteOnEvent(tick=774, channel=0, data=[39,0]),
   midi.NoteOnEvent(tick=0, channel=0, data=[51,0]),
   midi.NoteOnEvent(tick=0, channel=0, data=[44,55]),
   midi.NoteOnEvent(tick=0, channel=0, data=[56,61]),
   midi.ControlChangeEvent(tick=11, channel=0, data=[64,0]),
   midi.ControlChangeEvent(tick=175, channel=0, data=[64,127]),
   midi.NoteOnEvent(tick=294, channel=0, data=[56,0]),
   midi.NoteOnEvent(tick=0, channel=0, data=[44,0]),
   midi.NoteOnEvent(tick=0, channel=0, data=[39,53]),
   midi.NoteOnEvent(tick=0, channel=0, data=[51,60]),
   midi.ControlChangeEvent(tick=13, channel=0, data=[64,0]),
   midi.ControlChangeEvent(tick=253, channel=0, data=[64,127]),
   midi.NoteOnEvent(tick=214, channel=0, data=[51,0]),
   midi.NoteOnEvent(tick=0, channel=0, data=[39,0]),
   midi.NoteOnEvent(tick=0, channel=0, data=[32,71]),
   midi.NoteOnEvent(tick=0, channel=0, data=[44,80]),
   midi.ControlChangeEvent(tick=8, channel=0, data=[64,0]),
   midi.ControlChangeEvent(tick=285, channel=0, data=[64,127]),
   midi.NoteOnEvent(tick=667, channel=0, data=[44,0]),
   midi.NoteOnEvent(tick=0, channel=0, data=[32,0]),
   midi.NoteOnEvent(tick=0, channel=0, data=[48,71]),
   midi.NoteOnEvent(tick=0, channel=0, data=[36,62]),
   midi.ControlChangeEvent(tick=13, channel=0, data=[64,0]),
   midi.ControlChangeEvent(tick=200, channel=0, data=[64,127]),
   midi.NoteOnEvent(tick=267, channel=0, data=[36,0]),
   midi.NoteOnEvent(tick=0, channel=0, data=[48,0]),
   midi.NoteOnEvent(tick=0, channel=0, data=[53,61]),
   midi.NoteOnEvent(tick=0, channel=0, data=[41,55]),
   midi.ControlChangeEvent(tick=13, channel=0, data=[64,0]),
   midi.ControlChangeEvent(tick=253, channel=0, data=[64,127]),
   midi.NoteOnEvent(tick=214, channel=0, data=[41,0]),
   midi.NoteOnEvent(tick=0, channel=0, data=[53,0]),
   midi.NoteOnEvent(tick=0, channel=0, data=[46,77]),
   midi.NoteOnEvent(tick=0, channel=0, data=[34,68]),
   midi.ControlChangeEvent(tick=3, channel=0, data=[64,0]),
   midi.ControlChangeEvent(tick=152, channel=0, data=[64,127]),
   midi.NoteOnEvent(tick=325, channel=0, data=[34,0]),
   midi.NoteOnEvent(tick=0, channel=0, data=[46,0]),
   midi.NoteOnEvent(tick=0, channel=0, data=[70,62]),
   midi.NoteOnEvent(tick=240, channel=0, data=[70,0]),
   midi.NoteOnEvent(tick=240, channel=0, data=[34,67]),
   midi.NoteOnEvent(tick=0, channel=0, data=[46,74]),
   midi.ControlChangeEvent(tick=12, channel=0, data=[64,0]),
   midi.ControlChangeEvent(tick=256, channel=0, data=[64,127]),
   midi.NoteOnEvent(tick=212, channel=0, data=[46,0]),
   midi.NoteOnEvent(tick=0, channel=0, data=[34,0]),
   midi.NoteOnEvent(tick=0, channel=0, data=[82,68]),
   midi.NoteOnEvent(tick=240, channel=0, data=[82,0]),
   midi.NoteOnEvent(tick=240, channel=0, data=[39,51]),
   midi.NoteOnEvent(tick=0, channel=0, data=[51,58]),
   midi.ControlChangeEvent(tick=0, channel=0, data=[64,0]),
   midi.ControlChangeEvent(tick=106, channel=0, data=[64,127]),
   midi.NoteOnEvent(tick=374, channel=0, data=[51,0]),
   midi.NoteOnEvent(tick=0, channel=0, data=[39,0]),
   midi.NoteOnEvent(tick=0, channel=0, data=[63,58]),
   midi.NoteOnEvent(tick=0, channel=0, data=[58,58]),
   midi.NoteOnEvent(tick=0, channel=0, data=[67,58]),
   midi.ControlChangeEvent(tick=15, channel=0, data=[64,0]),
   midi.ControlChangeEvent(tick=112, channel=0, data=[64,127]),
   midi.NoteOnEvent(tick=353, channel=0, data=[67,0]),
   midi.NoteOnEvent(tick=0, channel=0, data=[58,0]),
   midi.NoteOnEvent(tick=0, channel=0, data=[63,0]),
   midi.NoteOnEvent(tick=0, channel=0, data=[58,61]),
   midi.NoteOnEvent(tick=0, channel=0, data=[56,61]),
   midi.NoteOnEvent(tick=0, channel=0, data=[65,61]),
   midi.ControlChangeEvent(tick=9, channel=0, data=[64,0]),
   midi.ControlChangeEvent(tick=118, channel=0, data=[64,127]),
   midi.NoteOnEvent(tick=353, channel=0, data=[65,0]),
   midi.NoteOnEvent(tick=0, channel=0, data=[56,0]),
   midi.NoteOnEvent(tick=0, channel=0, data=[58,0]),
   midi.NoteOnEvent(tick=0, channel=0, data=[58,62]),
   midi.NoteOnEvent(tick=0, channel=0, data=[53,62]),
   midi.NoteOnEvent(tick=0, channel=0, data=[62,62]),
   midi.ControlChangeEvent(tick=12, channel=0, data=[64,0]),
   midi.ControlChangeEvent(tick=115, channel=0, data=[64,127]),
   midi.NoteOnEvent(tick=353, channel=0, data=[62,0]),
   midi.NoteOnEvent(tick=0, channel=0, data=[53,0]),
   midi.NoteOnEvent(tick=0, channel=0, data=[58,0]),
   midi.NoteOnEvent(tick=0, channel=0, data=[39,75]),
   midi.ControlChangeEvent(tick=0, channel=0, data=[64,0]),
   midi.NoteOnEvent(tick=120, channel=0, data=[39,0]),
   midi.NoteOnEvent(tick=0, channel=0, data=[46,62]),
   midi.ControlChangeEvent(tick=7, channel=0, data=[64,127]),
   midi.NoteOnEvent(tick=113, channel=0, data=[46,0]),
   midi.NoteOnEvent(tick=0, channel=0, data=[51,70]),
   midi.NoteOnEvent(tick=120, channel=0, data=[51,0]),
   midi.NoteOnEvent(tick=0, channel=0, data=[55,61]),
   midi.NoteOnEvent(tick=120, channel=0, data=[55,0]),
   midi.NoteOnEvent(tick=0, channel=0, data=[58,75]),
   midi.NoteOnEvent(tick=120, channel=0, data=[58,0]),
   midi.NoteOnEvent(tick=0, channel=0, data=[63,63]),
   midi.NoteOnEvent(tick=120, channel=0, data=[63,0]),
   midi.NoteOnEvent(tick=0, channel=0, data=[67,70]),
   midi.NoteOnEvent(tick=120, channel=0, data=[67,0]),
   midi.NoteOnEvent(tick=0, channel=0, data=[63,62]),
   midi.NoteOnEvent(tick=120, channel=0, data=[63,0]),
   midi.NoteOnEvent(tick=0, channel=0, data=[68,81]),
   midi.ControlChangeEvent(tick=14, channel=0, data=[64,0]),
   midi.ControlChangeEvent(tick=120, channel=0, data=[64,127]),
   midi.NoteOnEvent(tick=106, channel=0, data=[68,0]),
   midi.NoteOnEvent(tick=0, channel=0, data=[63,72]),
   midi.NoteOnEvent(tick=240, channel=0, data=[63,0]),
   midi.NoteOnEvent(tick=0, channel=0, data=[60,78]),
   midi.NoteOnEvent(tick=240, channel=0, data=[60,0]),
   midi.NoteOnEvent(tick=0, channel=0, data=[56,72]),
   midi.NoteOnEvent(tick=240, channel=0, data=[56,0]),
   midi.NoteOnEvent(tick=0, channel=0, data=[39,75]),
   midi.ControlChangeEvent(tick=0, channel=0, data=[64,0]),
   midi.ControlChangeEvent(tick=92, channel=0, data=[64,127]),
   midi.NoteOnEvent(tick=28, channel=0, data=[39,0]),
   midi.NoteOnEvent(tick=0, channel=0, data=[46,68]),
   midi.NoteOnEvent(tick=120, channel=0, data=[46,0]),
   midi.NoteOnEvent(tick=0, channel=0, data=[51,68]),
   midi.NoteOnEvent(tick=120, channel=0, data=[51,0]),
   midi.NoteOnEvent(tick=0, channel=0, data=[55,68]),
   midi.NoteOnEvent(tick=120, channel=0, data=[55,0]),
   midi.NoteOnEvent(tick=0, channel=0, data=[58,78]),
   midi.NoteOnEvent(tick=240, channel=0, data=[58,0]),
   midi.NoteOnEvent(tick=0, channel=0, data=[63,68]),
   midi.NoteOnEvent(tick=240, channel=0, data=[63,0]),
   midi.NoteOnEvent(tick=0, channel=0, data=[51,83]),
   midi.ControlChangeEvent(tick=7, channel=0, data=[64,0]),
   midi.ControlChangeEvent(tick=64, channel=0, data=[64,127]),
   midi.NoteOnEvent(tick=169, channel=0, data=[51,0]),
   midi.NoteOnEvent(tick=0, channel=0, data=[63,75]),
   midi.NoteOnEvent(tick=240, channel=0, data=[63,0]),
   midi.NoteOnEvent(tick=0, channel=0, data=[46,83]),
   midi.ControlChangeEvent(tick=14, channel=0, data=[64,0]),
   midi.ControlChangeEvent(tick=106, channel=0, data=[64,127]),
   midi.NoteOnEvent(tick=120, channel=0, data=[46,0]),
   midi.NoteOnEvent(tick=0, channel=0, data=[58,68]),
   midi.NoteOnEvent(tick=240, channel=0, data=[58,0]),
   midi.ControlChangeEvent(tick=0, channel=0, data=[64,0]),
   midi.NoteOnEvent(tick=0, channel=0, data=[39,81]),
   midi.ControlChangeEvent(tick=113, channel=0, data=[64,127]),
   midi.NoteOnEvent(tick=7, channel=0, data=[39,0]),
   midi.NoteOnEvent(tick=0, channel=0, data=[46,64]),
   midi.NoteOnEvent(tick=120, channel=0, data=[46,0]),
   midi.NoteOnEvent(tick=0, channel=0, data=[51,64]),
   midi.NoteOnEvent(tick=120, channel=0, data=[51,0]),
   midi.NoteOnEvent(tick=0, channel=0, data=[55,64]),
   midi.NoteOnEvent(tick=120, channel=0, data=[55,0]),
   midi.NoteOnEvent(tick=0, channel=0, data=[58,75]),
   midi.NoteOnEvent(tick=120, channel=0, data=[58,0]),
   midi.NoteOnEvent(tick=0, channel=0, data=[63,63]),
   midi.NoteOnEvent(tick=120, channel=0, data=[63,0]),
   midi.NoteOnEvent(tick=0, channel=0, data=[67,63]),
   midi.NoteOnEvent(tick=120, channel=0, data=[67,0]),
   midi.NoteOnEvent(tick=0, channel=0, data=[63,63]),
   midi.NoteOnEvent(tick=120, channel=0, data=[63,0]),
   midi.NoteOnEvent(tick=0, channel=0, data=[68,81]),
   midi.ControlChangeEvent(tick=7, channel=0, data=[64,0]),
   midi.ControlChangeEvent(tick=78, channel=0, data=[64,127]),
   midi.NoteOnEvent(tick=155, channel=0, data=[68,0]),
   midi.NoteOnEvent(tick=0, channel=0, data=[63,68]),
   midi.NoteOnEvent(tick=240, channel=0, data=[63,0]),
   midi.NoteOnEvent(tick=0, channel=0, data=[60,75]),
   midi.NoteOnEvent(tick=240, channel=0, data=[60,0]),
   midi.NoteOnEvent(tick=0, channel=0, data=[56,68]),
   midi.NoteOnEvent(tick=240, channel=0, data=[56,0]),
   midi.ControlChangeEvent(tick=0, channel=0, data=[64,0]),
   midi.NoteOnEvent(tick=0, channel=0, data=[39,77]),
   midi.ControlChangeEvent(tick=64, channel=0, data=[64,127]),
   midi.NoteOnEvent(tick=56, channel=0, data=[39,0]),
   midi.NoteOnEvent(tick=0, channel=0, data=[46,62]),
   midi.NoteOnEvent(tick=120, channel=0, data=[46,0]),
   midi.NoteOnEvent(tick=0, channel=0, data=[51,62]),
   midi.NoteOnEvent(tick=120, channel=0, data=[51,0]),
   midi.NoteOnEvent(tick=0, channel=0, data=[55,62]),
   midi.NoteOnEvent(tick=120, channel=0, data=[55,0]),
   midi.NoteOnEvent(tick=0, channel=0, data=[58,68]),
   midi.NoteOnEvent(tick=240, channel=0, data=[58,0]),
   midi.NoteOnEvent(tick=0, channel=0, data=[63,62]),
   midi.NoteOnEvent(tick=240, channel=0, data=[63,0]),
   midi.NoteOnEvent(tick=0, channel=0, data=[51,68]),
   midi.ControlChangeEvent(tick=11, channel=0, data=[64,0]),
   midi.ControlChangeEvent(tick=73, channel=0, data=[64,127]),
   midi.NoteOnEvent(tick=156, channel=0, data=[51,0]),
   midi.NoteOnEvent(tick=0, channel=0, data=[63,62]),
   midi.NoteOnEvent(tick=240, channel=0, data=[63,0]),
   midi.NoteOnEvent(tick=0, channel=0, data=[46,68]),
   midi.ControlChangeEvent(tick=7, channel=0, data=[64,0]),
   midi.ControlChangeEvent(tick=92, channel=0, data=[64,127]),
   midi.NoteOnEvent(tick=141, channel=0, data=[46,0]),
   midi.NoteOnEvent(tick=0, channel=0, data=[58,62]),
   midi.NoteOnEvent(tick=240, channel=0, data=[58,0]),
   midi.NoteOnEvent(tick=0, channel=0, data=[39,77]),
   midi.ControlChangeEvent(tick=0, channel=0, data=[64,0]),
   midi.ControlChangeEvent(tick=64, channel=0, data=[64,127]),
   midi.NoteOnEvent(tick=56, channel=0, data=[39,0]),
   midi.NoteOnEvent(tick=0, channel=0, data=[46,63]),
   midi.NoteOnEvent(tick=120, channel=0, data=[46,0]),
   midi.NoteOnEvent(tick=0, channel=0, data=[51,63]),
   midi.NoteOnEvent(tick=120, channel=0, data=[51,0]),
   midi.NoteOnEvent(tick=0, channel=0, data=[55,63]),
   midi.NoteOnEvent(tick=120, channel=0, data=[55,0]),
   midi.NoteOnEvent(tick=0, channel=0, data=[46,73]),
   midi.NoteOnEvent(tick=120, channel=0, data=[46,0]),
   midi.NoteOnEvent(tick=0, channel=0, data=[51,63]),
   midi.NoteOnEvent(tick=120, channel=0, data=[51,0]),
   midi.NoteOnEvent(tick=0, channel=0, data=[55,63]),
   midi.NoteOnEvent(tick=120, channel=0, data=[55,0]),
   midi.NoteOnEvent(tick=0, channel=0, data=[58,64]),
   midi.NoteOnEvent(tick=120, channel=0, data=[58,0]),
   midi.NoteOnEvent(tick=0, channel=0, data=[50,82]),
   midi.ControlChangeEvent(tick=12, channel=0, data=[64,0]),
   midi.ControlChangeEvent(tick=94, channel=0, data=[64,127]),
   midi.NoteOnEvent(tick=14, channel=0, data=[50,0]),
   midi.NoteOnEvent(tick=0, channel=0, data=[53,66]),
   midi.NoteOnEvent(tick=120, channel=0, data=[53,0]),
   midi.NoteOnEvent(tick=0, channel=0, data=[58,66]),
   midi.NoteOnEvent(tick=120, channel=0, data=[58,0]),
   midi.NoteOnEvent(tick=0, channel=0, data=[62,66]),
   midi.NoteOnEvent(tick=120, channel=0, data=[62,0]),
   midi.NoteOnEvent(tick=0, channel=0, data=[58,82]),
   midi.NoteOnEvent(tick=120, channel=0, data=[58,0]),
   midi.NoteOnEvent(tick=0, channel=0, data=[62,68]),
   midi.NoteOnEvent(tick=120, channel=0, data=[62,0]),
   midi.NoteOnEvent(tick=0, channel=0, data=[58,68]),
   midi.NoteOnEvent(tick=120, channel=0, data=[58,0]),
   midi.NoteOnEvent(tick=0, channel=0, data=[53,68]),
   midi.NoteOnEvent(tick=120, channel=0, data=[53,0]),
   midi.NoteOnEvent(tick=0, channel=0, data=[41,82]),
   midi.ControlChangeEvent(tick=2, channel=0, data=[64,0]),
   midi.ControlChangeEvent(tick=55, channel=0, data=[64,127]),
   midi.NoteOnEvent(tick=183, channel=0, data=[41,0]),
   midi.NoteOnEvent(tick=0, channel=0, data=[45,68]),
   midi.NoteOnEvent(tick=120, channel=0, data=[45,0]),
   midi.NoteOnEvent(tick=0, channel=0, data=[48,68]),
   midi.NoteOnEvent(tick=120, channel=0, data=[48,0]),
   midi.NoteOnEvent(tick=0, channel=0, data=[53,74]),
   midi.NoteOnEvent(tick=120, channel=0, data=[53,0]),
   midi.NoteOnEvent(tick=0, channel=0, data=[57,68]),
   midi.NoteOnEvent(tick=120, channel=0, data=[57,0]),
   midi.NoteOnEvent(tick=0, channel=0, data=[60,68]),
   midi.NoteOnEvent(tick=120, channel=0, data=[60,0]),
   midi.NoteOnEvent(tick=0, channel=0, data=[65,68]),
   midi.NoteOnEvent(tick=120, channel=0, data=[65,0]),
   midi.NoteOnEvent(tick=0, channel=0, data=[58,81]),
   midi.NoteOnEvent(tick=0, channel=0, data=[46,81]),
   midi.ControlChangeEvent(tick=6, channel=0, data=[64,0]),
   midi.ControlChangeEvent(tick=131, channel=0, data=[64,127]),
   midi.NoteOnEvent(tick=343, channel=0, data=[46,0]),
   midi.NoteOnEvent(tick=0, channel=0, data=[58,0]),
   midi.NoteOnEvent(tick=0, channel=0, data=[51,83]),
   midi.NoteOnEvent(tick=0, channel=0, data=[39,83]),
   midi.ControlChangeEvent(tick=13, channel=0, data=[64,0]),
   midi.ControlChangeEvent(tick=107, channel=0, data=[64,127]),
   midi.NoteOnEvent(tick=360, channel=0, data=[39,0]),
   midi.NoteOnEvent(tick=0, channel=0, data=[51,0]),
   midi.ControlChangeEvent(tick=0, channel=0, data=[64,0]),
   midi.NoteOnEvent(tick=0, channel=0, data=[41,85]),
   midi.NoteOnEvent(tick=0, channel=0, data=[53,85]),
   midi.ControlChangeEvent(tick=108, channel=0, data=[64,127]),
   midi.NoteOnEvent(tick=132, channel=0, data=[53,0]),
   midi.NoteOnEvent(tick=0, channel=0, data=[41,0]),
   midi.NoteOnEvent(tick=0, channel=0, data=[70,81]),
   midi.NoteOnEvent(tick=120, channel=0, data=[70,0]),
   midi.NoteOnEvent(tick=0, channel=0, data=[69,81]),
   midi.NoteOnEvent(tick=120, channel=0, data=[69,0]),
   midi.NoteOnEvent(tick=0, channel=0, data=[67,80]),
   midi.NoteOnEvent(tick=120, channel=0, data=[67,0]),
   midi.NoteOnEvent(tick=0, channel=0, data=[65,80]),
   midi.NoteOnEvent(tick=120, channel=0, data=[65,0]),
   midi.NoteOnEvent(tick=0, channel=0, data=[63,78]),
   midi.NoteOnEvent(tick=120, channel=0, data=[63,0]),
   midi.NoteOnEvent(tick=0, channel=0, data=[62,78]),
   midi.NoteOnEvent(tick=120, channel=0, data=[62,0]),
   midi.NoteOnEvent(tick=0, channel=0, data=[60,74]),
   midi.ControlChangeEvent(tick=14, channel=0, data=[64,0]),
   midi.ControlChangeEvent(tick=89, channel=0, data=[64,127]),
   midi.NoteOnEvent(tick=17, channel=0, data=[60,0]),
   midi.NoteOnEvent(tick=0, channel=0, data=[58,74]),
   midi.NoteOnEvent(tick=120, channel=0, data=[58,0]),
   midi.NoteOnEvent(tick=0, channel=0, data=[57,73]),
   midi.NoteOnEvent(tick=120, channel=0, data=[57,0]),
   midi.NoteOnEvent(tick=0, channel=0, data=[55,72]),
   midi.NoteOnEvent(tick=120, channel=0, data=[55,0]),
   midi.NoteOnEvent(tick=0, channel=0, data=[53,71]),
   midi.NoteOnEvent(tick=120, channel=0, data=[53,0]),
   midi.NoteOnEvent(tick=0, channel=0, data=[51,71]),
   midi.NoteOnEvent(tick=120, channel=0, data=[51,0]),
   midi.NoteOnEvent(tick=0, channel=0, data=[50,70]),
   midi.NoteOnEvent(tick=120, channel=0, data=[50,0]),
   midi.NoteOnEvent(tick=0, channel=0, data=[48,69]),
   midi.NoteOnEvent(tick=120, channel=0, data=[48,0]),
   midi.NoteOnEvent(tick=0, channel=0, data=[46,82]),
   midi.ControlChangeEvent(tick=4, channel=0, data=[64,0]),
   midi.ControlChangeEvent(tick=316, channel=0, data=[64,127]),
   midi.NoteOnEvent(tick=160, channel=0, data=[46,0]),
   midi.NoteOnEvent(tick=0, channel=0, data=[58,84]),
   midi.NoteOnEvent(tick=0, channel=0, data=[46,75]),
   midi.NoteOnEvent(tick=480, channel=0, data=[46,0]),
   midi.NoteOnEvent(tick=0, channel=0, data=[58,0]),
   midi.NoteOnEvent(tick=0, channel=0, data=[41,70]),
   midi.NoteOnEvent(tick=0, channel=0, data=[53,79]),
   midi.NoteOnEvent(tick=480, channel=0, data=[53,0]),
   midi.NoteOnEvent(tick=0, channel=0, data=[41,0]),
   midi.NoteOnEvent(tick=0, channel=0, data=[38,69]),
   midi.NoteOnEvent(tick=0, channel=0, data=[50,77]),
   midi.NoteOnEvent(tick=480, channel=0, data=[50,0]),
   midi.NoteOnEvent(tick=0, channel=0, data=[38,0]),
   midi.NoteOnEvent(tick=0, channel=0, data=[34,37]),
   midi.NoteOnEvent(tick=0, channel=0, data=[46,41]),
   midi.ControlChangeEvent(tick=9, channel=0, data=[64,0]),
   midi.ControlChangeEvent(tick=118, channel=0, data=[64,127]),
   midi.NoteOnEvent(tick=353, channel=0, data=[46,0]),
   midi.NoteOnEvent(tick=0, channel=0, data=[34,0]),
   midi.NoteOnEvent(tick=240, channel=0, data=[70,49]),
   midi.NoteOnEvent(tick=240, channel=0, data=[70,0]),
   midi.NoteOnEvent(tick=0, channel=0, data=[70,53]),
   midi.ControlChangeEvent(tick=14, channel=0, data=[64,0]),
   midi.ControlChangeEvent(tick=85, channel=0, data=[64,127]),
   midi.NoteOnEvent(tick=381, channel=0, data=[70,0]),
   midi.NoteOnEvent(tick=0, channel=0, data=[70,52]),
   midi.NoteOnEvent(tick=480, channel=0, data=[70,0]),
   midi.ControlChangeEvent(tick=0, channel=0, data=[64,0]),
   midi.NoteOnEvent(tick=0, channel=0, data=[34,48]),
   midi.NoteOnEvent(tick=0, channel=0, data=[46,48]),
   midi.ControlChangeEvent(tick=169, channel=0, data=[64,127]),
   midi.NoteOnEvent(tick=311, channel=0, data=[46,0]),
   midi.NoteOnEvent(tick=0, channel=0, data=[34,0]),
   midi.NoteOnEvent(tick=240, channel=0, data=[82,56]),
   midi.NoteOnEvent(tick=240, channel=0, data=[82,0]),
   midi.NoteOnEvent(tick=0, channel=0, data=[82,55]),
   midi.ControlChangeEvent(tick=9, channel=0, data=[64,0]),
   midi.ControlChangeEvent(tick=83, channel=0, data=[64,127]),
   midi.NoteOnEvent(tick=868, channel=0, data=[82,0]),
   midi.ControlChangeEvent(tick=0, channel=0, data=[64,0]),
   midi.NoteOnEvent(tick=0, channel=0, data=[51,49]),
   midi.NoteOnEvent(tick=11, channel=0, data=[39,49]),
   midi.ControlChangeEvent(tick=67, channel=0, data=[64,127]),
   midi.NoteOnEvent(tick=402, channel=0, data=[51,0]),
   midi.NoteOnEvent(tick=11, channel=0, data=[39,0]),
   midi.NoteOnEvent(tick=229, channel=0, data=[75,57]),
   midi.NoteOnEvent(tick=240, channel=0, data=[75,0]),
   midi.NoteOnEvent(tick=0, channel=0, data=[75,58]),
   midi.ControlChangeEvent(tick=14, channel=0, data=[64,0]),
   midi.ControlChangeEvent(tick=92, channel=0, data=[64,127]),
   midi.NoteOnEvent(tick=374, channel=0, data=[75,0]),
   midi.NoteOnEvent(tick=0, channel=0, data=[75,56]),
   midi.NoteOnEvent(tick=480, channel=0, data=[75,0]),
   midi.NoteOnEvent(tick=0, channel=0, data=[51,59]),
   midi.NoteOnEvent(tick=0, channel=0, data=[39,59]),
   midi.ControlChangeEvent(tick=3, channel=0, data=[64,0]),
   midi.ControlChangeEvent(tick=81, channel=0, data=[64,127]),
   midi.NoteOnEvent(tick=396, channel=0, data=[39,0]),
   midi.NoteOnEvent(tick=0, channel=0, data=[51,0]),
   midi.NoteOnEvent(tick=240, channel=0, data=[87,72]),
   midi.NoteOnEvent(tick=240, channel=0, data=[87,0]),
   midi.NoteOnEvent(tick=0, channel=0, data=[87,75]),
   midi.ControlChangeEvent(tick=12, channel=0, data=[64,0]),
   midi.ControlChangeEvent(tick=94, channel=0, data=[64,127]),
   midi.NoteOnEvent(tick=854, channel=0, data=[87,0]),
   midi.ControlChangeEvent(tick=0, channel=0, data=[64,0]),
   midi.NoteOnEvent(tick=0, channel=0, data=[51,71]),
   midi.NoteOnEvent(tick=0, channel=0, data=[39,63]),
   midi.ControlChangeEvent(tick=133, channel=0, data=[64,127]),
   midi.NoteOnEvent(tick=347, channel=0, data=[39,0]),
   midi.NoteOnEvent(tick=0, channel=0, data=[51,0]),
   midi.NoteOnEvent(tick=0, channel=0, data=[55,71]),
   midi.NoteOnEvent(tick=0, channel=0, data=[43,71]),
   midi.ControlChangeEvent(tick=160, channel=0, data=[64,0]),
   midi.NoteOnEvent(tick=230, channel=0, data=[43,0]),
   midi.NoteOnEvent(tick=0, channel=0, data=[55,0]),
   midi.ControlChangeEvent(tick=26, channel=0, data=[64,127]),
   midi.NoteOnEvent(tick=4, channel=0, data=[44,58]),
   midi.NoteOnEvent(tick=30, channel=0, data=[51,61]),
   midi.NoteOnEvent(tick=30, channel=0, data=[56,70]),
   midi.NoteOnEvent(tick=480, channel=0, data=[56,0]),
   midi.NoteOnEvent(tick=0, channel=0, data=[51,0]),
   midi.NoteOnEvent(tick=0, channel=0, data=[44,0]),
   midi.NoteOnEvent(tick=0, channel=0, data=[51,65]),
   midi.NoteOnEvent(tick=0, channel=0, data=[39,58]),
   midi.ControlChangeEvent(tick=14, channel=0, data=[64,0]),
   midi.ControlChangeEvent(tick=66, channel=0, data=[64,127]),
   midi.NoteOnEvent(tick=400, channel=0, data=[39,0]),
   midi.NoteOnEvent(tick=0, channel=0, data=[51,0]),
   midi.ControlChangeEvent(tick=0, channel=0, data=[64,0]),
   midi.NoteOnEvent(tick=0, channel=0, data=[32,74]),
   midi.NoteOnEvent(tick=0, channel=0, data=[44,81]),
   midi.ControlChangeEvent(tick=160, channel=0, data=[64,127]),
   midi.NoteOnEvent(tick=320, channel=0, data=[44,0]),
   midi.NoteOnEvent(tick=0, channel=0, data=[32,0]),
   midi.NoteOnEvent(tick=0, channel=0, data=[44,74]),
   midi.NoteOnEvent(tick=0, channel=0, data=[56,74]),
   midi.ControlChangeEvent(tick=320, channel=0, data=[64,0]),
   midi.NoteOnEvent(tick=70, channel=0, data=[56,0]),
   midi.NoteOnEvent(tick=0, channel=0, data=[44,0]),
   midi.NoteOnEvent(tick=0, channel=0, data=[48,58]),
   midi.NoteOnEvent(tick=30, channel=0, data=[52,59]),
   midi.NoteOnEvent(tick=30, channel=0, data=[55,60]),
   midi.NoteOnEvent(tick=30, channel=0, data=[60,70]),
   midi.ControlChangeEvent(tick=160, channel=0, data=[64,127]),
   midi.NoteOnEvent(tick=320, channel=0, data=[60,0]),
   midi.NoteOnEvent(tick=0, channel=0, data=[48,0]),
   midi.NoteOnEvent(tick=0, channel=0, data=[52,0]),
   midi.NoteOnEvent(tick=0, channel=0, data=[55,0]),
   midi.NoteOnEvent(tick=0, channel=0, data=[41,63]),
   midi.NoteOnEvent(tick=0, channel=0, data=[53,72]),
   midi.ControlChangeEvent(tick=14, channel=0, data=[64,0]),
   midi.ControlChangeEvent(tick=173, channel=0, data=[64,127]),
   midi.NoteOnEvent(tick=293, channel=0, data=[53,0]),
   midi.NoteOnEvent(tick=0, channel=0, data=[41,0]),
   midi.NoteOnEvent(tick=0, channel=0, data=[58,73]),
   midi.NoteOnEvent(tick=0, channel=0, data=[46,65]),
   midi.ControlChangeEvent(tick=4, channel=0, data=[64,0]),
   midi.ControlChangeEvent(tick=151, channel=0, data=[64,127]),
   midi.NoteOnEvent(tick=325, channel=0, data=[46,0]),
   midi.NoteOnEvent(tick=0, channel=0, data=[58,0]),
   midi.NoteOnEvent(tick=0, channel=0, data=[46,74]),
   midi.NoteOnEvent(tick=0, channel=0, data=[34,74]),
   midi.ControlChangeEvent(tick=381, channel=0, data=[64,0]),
   midi.NoteOnEvent(tick=9, channel=0, data=[34,0]),
   midi.NoteOnEvent(tick=0, channel=0, data=[46,0]),
   midi.NoteOnEvent(tick=0, channel=0, data=[53,57]),
   midi.NoteOnEvent(tick=30, channel=0, data=[56,61]),
   midi.NoteOnEvent(tick=30, channel=0, data=[58,64]),
   midi.NoteOnEvent(tick=30, channel=0, data=[62,70]),
   midi.ControlChangeEvent(tick=198, channel=0, data=[64,127]),
   midi.NoteOnEvent(tick=282, channel=0, data=[62,0]),
   midi.NoteOnEvent(tick=0, channel=0, data=[53,0]),
   midi.NoteOnEvent(tick=0, channel=0, data=[56,0]),
   midi.NoteOnEvent(tick=0, channel=0, data=[58,0]),
   midi.NoteOnEvent(tick=0, channel=0, data=[34,73]),
   midi.NoteOnEvent(tick=0, channel=0, data=[46,73]),
   midi.NoteOnEvent(tick=480, channel=0, data=[46,0]),
   midi.NoteOnEvent(tick=0, channel=0, data=[34,0]),
   midi.NoteOnEvent(tick=0, channel=0, data=[39,66]),
   midi.ControlChangeEvent(tick=2, channel=0, data=[64,0]),
   midi.ControlChangeEvent(tick=58, channel=0, data=[64,127]),
   midi.NoteOnEvent(tick=20, channel=0, data=[39,0]),
   midi.NoteOnEvent(tick=0, channel=0, data=[51,55]),
   midi.NoteOnEvent(tick=80, channel=0, data=[51,0]),
   midi.NoteOnEvent(tick=0, channel=0, data=[39,61]),
   midi.NoteOnEvent(tick=80, channel=0, data=[39,0]),
   midi.NoteOnEvent(tick=0, channel=0, data=[51,54]),
   midi.NoteOnEvent(tick=80, channel=0, data=[51,0]),
   midi.NoteOnEvent(tick=0, channel=0, data=[39,61]),
   midi.NoteOnEvent(tick=80, channel=0, data=[39,0]),
   midi.NoteOnEvent(tick=0, channel=0, data=[51,54]),
   midi.NoteOnEvent(tick=80, channel=0, data=[51,0]),
   midi.NoteOnEvent(tick=0, channel=0, data=[39,66]),
   midi.NoteOnEvent(tick=80, channel=0, data=[39,0]),
   midi.NoteOnEvent(tick=0, channel=0, data=[51,55]),
   midi.NoteOnEvent(tick=80, channel=0, data=[51,0]),
   midi.NoteOnEvent(tick=0, channel=0, data=[39,61]),
   midi.NoteOnEvent(tick=80, channel=0, data=[39,0]),
   midi.NoteOnEvent(tick=0, channel=0, data=[51,54]),
   midi.NoteOnEvent(tick=80, channel=0, data=[51,0]),
   midi.NoteOnEvent(tick=0, channel=0, data=[39,61]),
   midi.NoteOnEvent(tick=80, channel=0, data=[39,0]),
   midi.NoteOnEvent(tick=0, channel=0, data=[51,54]),
   midi.NoteOnEvent(tick=80, channel=0, data=[51,0]),
   midi.NoteOnEvent(tick=0, channel=0, data=[39,71]),
   midi.ControlChangeEvent(tick=10, channel=0, data=[64,0]),
   midi.ControlChangeEvent(tick=50, channel=0, data=[64,127]),
   midi.NoteOnEvent(tick=20, channel=0, data=[39,0]),
   midi.NoteOnEvent(tick=0, channel=0, data=[51,55]),
   midi.NoteOnEvent(tick=80, channel=0, data=[51,0]),
   midi.NoteOnEvent(tick=0, channel=0, data=[39,61]),
   midi.NoteOnEvent(tick=80, channel=0, data=[39,0]),
   midi.NoteOnEvent(tick=0, channel=0, data=[51,54]),
   midi.NoteOnEvent(tick=80, channel=0, data=[51,0]),
   midi.NoteOnEvent(tick=0, channel=0, data=[39,61]),
   midi.NoteOnEvent(tick=80, channel=0, data=[39,0]),
   midi.NoteOnEvent(tick=0, channel=0, data=[51,54]),
   midi.NoteOnEvent(tick=80, channel=0, data=[51,0]),
   midi.NoteOnEvent(tick=0, channel=0, data=[39,74]),
   midi.ControlChangeEvent(tick=9, channel=0, data=[64,0]),
   midi.ControlChangeEvent(tick=44, channel=0, data=[64,127]),
   midi.NoteOnEvent(tick=27, channel=0, data=[39,0]),
   midi.NoteOnEvent(tick=0, channel=0, data=[51,55]),
   midi.NoteOnEvent(tick=80, channel=0, data=[51,0]),
   midi.NoteOnEvent(tick=0, channel=0, data=[39,64]),
   midi.NoteOnEvent(tick=80, channel=0, data=[39,0]),
   midi.NoteOnEvent(tick=0, channel=0, data=[51,54]),
   midi.NoteOnEvent(tick=80, channel=0, data=[51,0]),
   midi.NoteOnEvent(tick=0, channel=0, data=[39,65]),
   midi.NoteOnEvent(tick=80, channel=0, data=[39,0]),
   midi.NoteOnEvent(tick=0, channel=0, data=[51,54]),
   midi.NoteOnEvent(tick=80, channel=0, data=[51,0]),
   midi.NoteOnEvent(tick=0, channel=0, data=[39,74]),
   midi.ControlChangeEvent(tick=2, channel=0, data=[64,0]),
   midi.ControlChangeEvent(tick=58, channel=0, data=[64,127]),
   midi.NoteOnEvent(tick=20, channel=0, data=[39,0]),
   midi.NoteOnEvent(tick=0, channel=0, data=[51,55]),
   midi.NoteOnEvent(tick=80, channel=0, data=[51,0]),
   midi.NoteOnEvent(tick=0, channel=0, data=[39,64]),
   midi.NoteOnEvent(tick=80, channel=0, data=[39,0]),
   midi.NoteOnEvent(tick=0, channel=0, data=[51,54]),
   midi.NoteOnEvent(tick=80, channel=0, data=[51,0]),
   midi.NoteOnEvent(tick=0, channel=0, data=[39,64]),
   midi.NoteOnEvent(tick=80, channel=0, data=[39,0]),
   midi.NoteOnEvent(tick=0, channel=0, data=[51,54]),
   midi.NoteOnEvent(tick=80, channel=0, data=[51,0]),
   midi.NoteOnEvent(tick=0, channel=0, data=[39,66]),
   midi.NoteOnEvent(tick=80, channel=0, data=[39,0]),
   midi.NoteOnEvent(tick=0, channel=0, data=[51,55]),
   midi.NoteOnEvent(tick=80, channel=0, data=[51,0]),
   midi.NoteOnEvent(tick=0, channel=0, data=[39,63]),
   midi.NoteOnEvent(tick=80, channel=0, data=[39,0]),
   midi.NoteOnEvent(tick=0, channel=0, data=[51,54]),
   midi.NoteOnEvent(tick=80, channel=0, data=[51,0]),
   midi.NoteOnEvent(tick=0, channel=0, data=[39,63]),
   midi.NoteOnEvent(tick=80, channel=0, data=[39,0]),
   midi.NoteOnEvent(tick=0, channel=0, data=[51,54]),
   midi.NoteOnEvent(tick=80, channel=0, data=[51,0]),
   midi.NoteOnEvent(tick=0, channel=0, data=[39,73]),
   midi.ControlChangeEvent(tick=11, channel=0, data=[64,0]),
   midi.ControlChangeEvent(tick=35, channel=0, data=[64,127]),
   midi.NoteOnEvent(tick=34, channel=0, data=[39,0]),
   midi.NoteOnEvent(tick=0, channel=0, data=[51,55]),
   midi.NoteOnEvent(tick=80, channel=0, data=[51,0]),
   midi.NoteOnEvent(tick=0, channel=0, data=[39,65]),
   midi.NoteOnEvent(tick=80, channel=0, data=[39,0]),
   midi.NoteOnEvent(tick=0, channel=0, data=[51,54]),
   midi.NoteOnEvent(tick=80, channel=0, data=[51,0]),
   midi.NoteOnEvent(tick=0, channel=0, data=[39,64]),
   midi.NoteOnEvent(tick=80, channel=0, data=[39,0]),
   midi.NoteOnEvent(tick=0, channel=0, data=[51,54]),
   midi.NoteOnEvent(tick=80, channel=0, data=[51,0]),
   midi.NoteOnEvent(tick=0, channel=0, data=[39,72]),
   midi.ControlChangeEvent(tick=7, channel=0, data=[64,0]),
   midi.ControlChangeEvent(tick=67, channel=0, data=[64,127]),
   midi.NoteOnEvent(tick=6, channel=0, data=[39,0]),
   midi.NoteOnEvent(tick=0, channel=0, data=[51,55]),
   midi.NoteOnEvent(tick=80, channel=0, data=[51,0]),
   midi.NoteOnEvent(tick=0, channel=0, data=[39,64]),
   midi.NoteOnEvent(tick=80, channel=0, data=[39,0]),
   midi.NoteOnEvent(tick=0, channel=0, data=[51,54]),
   midi.NoteOnEvent(tick=80, channel=0, data=[51,0]),
   midi.NoteOnEvent(tick=0, channel=0, data=[39,63]),
   midi.NoteOnEvent(tick=80, channel=0, data=[39,0]),
   midi.NoteOnEvent(tick=0, channel=0, data=[51,54]),
   midi.NoteOnEvent(tick=80, channel=0, data=[51,0]),
   midi.NoteOnEvent(tick=0, channel=0, data=[39,63]),
   midi.ControlChangeEvent(tick=2, channel=0, data=[64,0]),
   midi.NoteOnEvent(tick=25, channel=0, data=[27,63]),
   midi.NoteOnEvent(tick=933, channel=0, data=[39,0]),
   midi.NoteOnEvent(tick=27, channel=0, data=[27,0]),
   midi.NoteOnEvent(tick=453, channel=0, data=[39,45]),
   midi.NoteOnEvent(tick=0, channel=0, data=[27,39]),
   midi.NoteOnEvent(tick=360, channel=0, data=[27,0]),
   midi.NoteOnEvent(tick=0, channel=0, data=[39,0]),
   midi.NoteOnEvent(tick=0, channel=0, data=[29,37]),
   midi.NoteOnEvent(tick=0, channel=0, data=[41,41]),
   midi.NoteOnEvent(tick=120, channel=0, data=[41,0]),
   midi.NoteOnEvent(tick=0, channel=0, data=[29,0]),
   midi.NoteOnEvent(tick=0, channel=0, data=[31,41]),
   midi.NoteOnEvent(tick=0, channel=0, data=[43,47]),
   midi.NoteOnEvent(tick=480, channel=0, data=[43,0]),
   midi.NoteOnEvent(tick=0, channel=0, data=[31,0]),
   midi.NoteOnEvent(tick=0, channel=0, data=[43,41]),
   midi.NoteOnEvent(tick=0, channel=0, data=[31,37]),
   midi.NoteOnEvent(tick=480, channel=0, data=[31,0]),
   midi.NoteOnEvent(tick=0, channel=0, data=[43,0]),
   midi.NoteOnEvent(tick=0, channel=0, data=[31,39]),
   midi.NoteOnEvent(tick=0, channel=0, data=[43,44]),
   midi.NoteOnEvent(tick=480, channel=0, data=[43,0]),
   midi.NoteOnEvent(tick=0, channel=0, data=[31,0]),
   midi.NoteOnEvent(tick=0, channel=0, data=[43,41]),
   midi.NoteOnEvent(tick=0, channel=0, data=[31,37]),
   midi.NoteOnEvent(tick=480, channel=0, data=[31,0]),
   midi.NoteOnEvent(tick=0, channel=0, data=[43,0]),
   midi.NoteOnEvent(tick=0, channel=0, data=[31,39]),
   midi.NoteOnEvent(tick=0, channel=0, data=[43,44]),
   midi.ControlChangeEvent(tick=56, channel=0, data=[64,127]),
   midi.ControlChangeEvent(tick=919, channel=0, data=[64,0]),
   midi.ControlChangeEvent(tick=168, channel=0, data=[64,127]),
   midi.ControlChangeEvent(tick=198, channel=0, data=[64,0]),
   midi.NoteOnEvent(tick=99, channel=0, data=[43,0]),
   midi.NoteOnEvent(tick=0, channel=0, data=[31,0]),
   midi.NoteOnEvent(tick=0, channel=0, data=[27,39]),
   midi.NoteOnEvent(tick=0, channel=0, data=[39,45]),
   midi.NoteOnEvent(tick=360, channel=0, data=[39,0]),
   midi.NoteOnEvent(tick=0, channel=0, data=[27,0]),
   midi.NoteOnEvent(tick=0, channel=0, data=[29,37]),
   midi.NoteOnEvent(tick=0, channel=0, data=[41,41]),
   midi.NoteOnEvent(tick=120, channel=0, data=[41,0]),
   midi.NoteOnEvent(tick=0, channel=0, data=[29,0]),
   midi.NoteOnEvent(tick=0, channel=0, data=[43,47]),
   midi.NoteOnEvent(tick=0, channel=0, data=[31,41]),
   midi.NoteOnEvent(tick=480, channel=0, data=[31,0]),
   midi.NoteOnEvent(tick=0, channel=0, data=[43,0]),
   midi.NoteOnEvent(tick=0, channel=0, data=[43,41]),
   midi.NoteOnEvent(tick=0, channel=0, data=[31,37]),
   midi.NoteOnEvent(tick=480, channel=0, data=[31,0]),
   midi.NoteOnEvent(tick=0, channel=0, data=[43,0]),
   midi.NoteOnEvent(tick=0, channel=0, data=[31,47]),
   midi.NoteOnEvent(tick=0, channel=0, data=[43,52]),
   midi.NoteOnEvent(tick=480, channel=0, data=[43,0]),
   midi.NoteOnEvent(tick=0, channel=0, data=[31,0]),
   midi.NoteOnEvent(tick=0, channel=0, data=[31,46]),
   midi.NoteOnEvent(tick=0, channel=0, data=[43,51]),
   midi.NoteOnEvent(tick=480, channel=0, data=[43,0]),
   midi.NoteOnEvent(tick=0, channel=0, data=[31,0]),
   midi.NoteOnEvent(tick=0, channel=0, data=[31,45]),
   midi.ControlChangeEvent(tick=51, channel=0, data=[64,127]),
   midi.NoteOnEvent(tick=109, channel=0, data=[31,0]),
   midi.NoteOnEvent(tick=0, channel=0, data=[38,38]),
   midi.NoteOnEvent(tick=160, channel=0, data=[38,0]),
   midi.NoteOnEvent(tick=0, channel=0, data=[43,38]),
   midi.NoteOnEvent(tick=160, channel=0, data=[43,0]),
   midi.NoteOnEvent(tick=0, channel=0, data=[47,45]),
   midi.NoteOnEvent(tick=160, channel=0, data=[47,0]),
   midi.NoteOnEvent(tick=0, channel=0, data=[50,38]),
   midi.NoteOnEvent(tick=160, channel=0, data=[50,0]),
   midi.NoteOnEvent(tick=0, channel=0, data=[55,38]),
   midi.NoteOnEvent(tick=160, channel=0, data=[55,0]),
   midi.NoteOnEvent(tick=0, channel=0, data=[43,47]),
   midi.NoteOnEvent(tick=160, channel=0, data=[43,0]),
   midi.NoteOnEvent(tick=0, channel=0, data=[50,38]),
   midi.NoteOnEvent(tick=160, channel=0, data=[50,0]),
   midi.NoteOnEvent(tick=0, channel=0, data=[55,40]),
   midi.NoteOnEvent(tick=160, channel=0, data=[55,0]),
   midi.NoteOnEvent(tick=0, channel=0, data=[59,44]),
   midi.NoteOnEvent(tick=160, channel=0, data=[59,0]),
   midi.NoteOnEvent(tick=0, channel=0, data=[62,36]),
   midi.NoteOnEvent(tick=160, channel=0, data=[62,0]),
   midi.NoteOnEvent(tick=0, channel=0, data=[67,36]),
   midi.NoteOnEvent(tick=160, channel=0, data=[67,0]),
   midi.NoteOnEvent(tick=0, channel=0, data=[55,41]),
   midi.NoteOnEvent(tick=160, channel=0, data=[55,0]),
   midi.NoteOnEvent(tick=0, channel=0, data=[62,34]),
   midi.NoteOnEvent(tick=160, channel=0, data=[62,0]),
   midi.NoteOnEvent(tick=0, channel=0, data=[67,34]),
   midi.NoteOnEvent(tick=160, channel=0, data=[67,0]),
   midi.NoteOnEvent(tick=0, channel=0, data=[71,40]),
   midi.NoteOnEvent(tick=160, channel=0, data=[71,0]),
   midi.NoteOnEvent(tick=0, channel=0, data=[74,35]),
   midi.NoteOnEvent(tick=160, channel=0, data=[74,0]),
   midi.NoteOnEvent(tick=0, channel=0, data=[79,34]),
   midi.NoteOnEvent(tick=160, channel=0, data=[79,0]),
   midi.NoteOnEvent(tick=0, channel=0, data=[67,37]),
   midi.NoteOnEvent(tick=160, channel=0, data=[67,0]),
   midi.NoteOnEvent(tick=0, channel=0, data=[74,30]),
   midi.NoteOnEvent(tick=160, channel=0, data=[74,0]),
   midi.NoteOnEvent(tick=0, channel=0, data=[79,35]),
   midi.NoteOnEvent(tick=160, channel=0, data=[79,0]),
   midi.ControlChangeEvent(tick=1360, channel=0, data=[64,0]),
   midi.ControlChangeEvent(tick=966, channel=0, data=[64,127]),
   midi.NoteOnEvent(tick=74, channel=0, data=[48,28]),
   midi.NoteOnEvent(tick=0, channel=0, data=[36,28]),
   midi.NoteOnEvent(tick=120, channel=0, data=[36,0]),
   midi.NoteOnEvent(tick=0, channel=0, data=[48,0]),
   midi.NoteOnEvent(tick=0, channel=0, data=[52,31]),
   midi.NoteOnEvent(tick=120, channel=0, data=[52,0]),
   midi.NoteOnEvent(tick=0, channel=0, data=[55,36]),
   midi.NoteOnEvent(tick=120, channel=0, data=[55,0]),
   midi.NoteOnEvent(tick=0, channel=0, data=[60,39]),
   midi.NoteOnEvent(tick=120, channel=0, data=[60,0]),
   midi.NoteOnEvent(tick=0, channel=0, data=[55,37]),
   midi.NoteOnEvent(tick=120, channel=0, data=[55,0]),
   midi.NoteOnEvent(tick=0, channel=0, data=[52,30]),
   midi.NoteOnEvent(tick=120, channel=0, data=[52,0]),
   midi.NoteOnEvent(tick=0, channel=0, data=[48,30]),
   midi.ControlChangeEvent(tick=19, channel=0, data=[64,0]),
   midi.ControlChangeEvent(tick=41, channel=0, data=[64,127]),
   midi.NoteOnEvent(tick=60, channel=0, data=[48,0]),
   midi.NoteOnEvent(tick=0, channel=0, data=[52,33]),
   midi.NoteOnEvent(tick=120, channel=0, data=[52,0]),
   midi.NoteOnEvent(tick=0, channel=0, data=[55,36]),
   midi.NoteOnEvent(tick=120, channel=0, data=[55,0]),
   midi.NoteOnEvent(tick=0, channel=0, data=[60,31]),
   midi.NoteOnEvent(tick=120, channel=0, data=[60,0]),
   midi.NoteOnEvent(tick=0, channel=0, data=[55,31]),
   midi.NoteOnEvent(tick=120, channel=0, data=[55,0]),
   midi.NoteOnEvent(tick=0, channel=0, data=[52,29]),
   midi.NoteOnEvent(tick=30, channel=0, data=[52,0]),
   midi.ControlChangeEvent(tick=12, channel=0, data=[64,0]),
   midi.ControlChangeEvent(tick=39, channel=0, data=[64,127]),
   midi.NoteOnEvent(tick=39, channel=0, data=[36,30]),
   midi.NoteOnEvent(tick=0, channel=0, data=[48,30]),
   midi.NoteOnEvent(tick=120, channel=0, data=[48,0]),
   midi.NoteOnEvent(tick=0, channel=0, data=[36,0]),
   midi.NoteOnEvent(tick=0, channel=0, data=[52,33]),
   midi.NoteOnEvent(tick=120, channel=0, data=[52,0]),
   midi.NoteOnEvent(tick=0, channel=0, data=[55,35]),
   midi.NoteOnEvent(tick=120, channel=0, data=[55,0]),
   midi.NoteOnEvent(tick=0, channel=0, data=[60,36]),
   midi.NoteOnEvent(tick=120, channel=0, data=[60,0]),
   midi.NoteOnEvent(tick=0, channel=0, data=[55,35]),
   midi.NoteOnEvent(tick=120, channel=0, data=[55,0]),
   midi.NoteOnEvent(tick=0, channel=0, data=[52,33]),
   midi.NoteOnEvent(tick=120, channel=0, data=[52,0]),
   midi.NoteOnEvent(tick=0, channel=0, data=[48,33]),
   midi.ControlChangeEvent(tick=4, channel=0, data=[64,0]),
   midi.ControlChangeEvent(tick=38, channel=0, data=[64,127]),
   midi.NoteOnEvent(tick=78, channel=0, data=[48,0]),
   midi.NoteOnEvent(tick=0, channel=0, data=[52,35]),
   midi.NoteOnEvent(tick=120, channel=0, data=[52,0]),
   midi.NoteOnEvent(tick=0, channel=0, data=[55,37]),
   midi.NoteOnEvent(tick=120, channel=0, data=[55,0]),
   midi.NoteOnEvent(tick=0, channel=0, data=[60,36]),
   midi.NoteOnEvent(tick=120, channel=0, data=[60,0]),
   midi.NoteOnEvent(tick=0, channel=0, data=[55,34]),
   midi.NoteOnEvent(tick=120, channel=0, data=[55,0]),
   midi.NoteOnEvent(tick=0, channel=0, data=[52,33]),
   midi.ControlChangeEvent(tick=25, channel=0, data=[64,0]),
   midi.NoteOnEvent(tick=5, channel=0, data=[52,0]),
   midi.ControlChangeEvent(tick=37, channel=0, data=[64,127]),
   midi.NoteOnEvent(tick=53, channel=0, data=[31,31]),
   midi.NoteOnEvent(tick=0, channel=0, data=[43,31]),
   midi.NoteOnEvent(tick=120, channel=0, data=[43,0]),
   midi.NoteOnEvent(tick=0, channel=0, data=[31,0]),
   midi.NoteOnEvent(tick=0, channel=0, data=[53,34]),
   midi.NoteOnEvent(tick=120, channel=0, data=[53,0]),
   midi.NoteOnEvent(tick=0, channel=0, data=[55,35]),
   midi.NoteOnEvent(tick=120, channel=0, data=[55,0]),
   midi.NoteOnEvent(tick=0, channel=0, data=[59,34]),
   midi.NoteOnEvent(tick=120, channel=0, data=[59,0]),
   midi.NoteOnEvent(tick=0, channel=0, data=[55,33]),
   midi.NoteOnEvent(tick=120, channel=0, data=[55,0]),
   midi.NoteOnEvent(tick=0, channel=0, data=[53,33]),
   midi.NoteOnEvent(tick=120, channel=0, data=[53,0]),
   midi.NoteOnEvent(tick=0, channel=0, data=[43,29]),
   midi.NoteOnEvent(tick=120, channel=0, data=[43,0]),
   midi.NoteOnEvent(tick=0, channel=0, data=[53,31]),
   midi.NoteOnEvent(tick=120, channel=0, data=[53,0]),
   midi.NoteOnEvent(tick=0, channel=0, data=[55,34]),
   midi.NoteOnEvent(tick=120, channel=0, data=[55,0]),
   midi.NoteOnEvent(tick=0, channel=0, data=[59,34]),
   midi.NoteOnEvent(tick=120, channel=0, data=[59,0]),
   midi.NoteOnEvent(tick=0, channel=0, data=[55,33]),
   midi.NoteOnEvent(tick=120, channel=0, data=[55,0]),
   midi.NoteOnEvent(tick=0, channel=0, data=[53,29]),
   midi.ControlChangeEvent(tick=28, channel=0, data=[64,0]),
   midi.NoteOnEvent(tick=2, channel=0, data=[53,0]),
   midi.ControlChangeEvent(tick=23, channel=0, data=[64,127]),
   midi.NoteOnEvent(tick=67, channel=0, data=[48,33]),
   midi.NoteOnEvent(tick=0, channel=0, data=[36,33]),
   midi.NoteOnEvent(tick=120, channel=0, data=[36,0]),
   midi.NoteOnEvent(tick=0, channel=0, data=[48,0]),
   midi.NoteOnEvent(tick=0, channel=0, data=[52,34]),
   midi.NoteOnEvent(tick=120, channel=0, data=[52,0]),
   midi.NoteOnEvent(tick=0, channel=0, data=[55,35]),
   midi.NoteOnEvent(tick=120, channel=0, data=[55,0]),
   midi.NoteOnEvent(tick=0, channel=0, data=[60,36]),
   midi.NoteOnEvent(tick=120, channel=0, data=[60,0]),
   midi.NoteOnEvent(tick=0, channel=0, data=[55,37]),
   midi.NoteOnEvent(tick=120, channel=0, data=[55,0]),
   midi.NoteOnEvent(tick=0, channel=0, data=[52,34]),
   midi.NoteOnEvent(tick=120, channel=0, data=[52,0]),
   midi.NoteOnEvent(tick=0, channel=0, data=[48,37]),
   midi.NoteOnEvent(tick=120, channel=0, data=[48,0]),
   midi.NoteOnEvent(tick=0, channel=0, data=[52,31]),
   midi.NoteOnEvent(tick=120, channel=0, data=[52,0]),
   midi.NoteOnEvent(tick=0, channel=0, data=[55,34]),
   midi.NoteOnEvent(tick=120, channel=0, data=[55,0]),
   midi.NoteOnEvent(tick=0, channel=0, data=[60,31]),
   midi.NoteOnEvent(tick=120, channel=0, data=[60,0]),
   midi.NoteOnEvent(tick=0, channel=0, data=[55,31]),
   midi.NoteOnEvent(tick=120, channel=0, data=[55,0]),
   midi.NoteOnEvent(tick=0, channel=0, data=[52,34]),
   midi.ControlChangeEvent(tick=11, channel=0, data=[64,0]),
   midi.NoteOnEvent(tick=19, channel=0, data=[52,0]),
   midi.ControlChangeEvent(tick=62, channel=0, data=[64,127]),
   midi.NoteOnEvent(tick=28, channel=0, data=[53,33]),
   midi.NoteOnEvent(tick=0, channel=0, data=[41,33]),
   midi.NoteOnEvent(tick=120, channel=0, data=[41,0]),
   midi.NoteOnEvent(tick=0, channel=0, data=[53,0]),
   midi.NoteOnEvent(tick=0, channel=0, data=[57,34]),
   midi.NoteOnEvent(tick=120, channel=0, data=[57,0]),
   midi.NoteOnEvent(tick=0, channel=0, data=[60,35]),
   midi.NoteOnEvent(tick=120, channel=0, data=[60,0]),
   midi.NoteOnEvent(tick=0, channel=0, data=[65,36]),
   midi.NoteOnEvent(tick=120, channel=0, data=[65,0]),
   midi.NoteOnEvent(tick=0, channel=0, data=[60,40]),
   midi.NoteOnEvent(tick=120, channel=0, data=[60,0]),
   midi.NoteOnEvent(tick=0, channel=0, data=[57,34]),
   midi.NoteOnEvent(tick=120, channel=0, data=[57,0]),
   midi.NoteOnEvent(tick=0, channel=0, data=[53,37]),
   midi.NoteOnEvent(tick=120, channel=0, data=[53,0]),
   midi.NoteOnEvent(tick=0, channel=0, data=[57,31]),
   midi.NoteOnEvent(tick=120, channel=0, data=[57,0]),
   midi.NoteOnEvent(tick=0, channel=0, data=[60,35]),
   midi.NoteOnEvent(tick=120, channel=0, data=[60,0]),
   midi.NoteOnEvent(tick=0, channel=0, data=[65,34]),
   midi.NoteOnEvent(tick=120, channel=0, data=[65,0]),
   midi.NoteOnEvent(tick=0, channel=0, data=[60,33]),
   midi.ControlChangeEvent(tick=109, channel=0, data=[64,0]),
   midi.NoteOnEvent(tick=11, channel=0, data=[60,0]),
   midi.NoteOnEvent(tick=0, channel=0, data=[57,34]),
   midi.NoteOnEvent(tick=30, channel=0, data=[57,0]),
   midi.ControlChangeEvent(tick=23, channel=0, data=[64,127]),
   midi.NoteOnEvent(tick=67, channel=0, data=[36,33]),
   midi.NoteOnEvent(tick=0, channel=0, data=[48,33]),
   midi.NoteOnEvent(tick=120, channel=0, data=[48,0]),
   midi.NoteOnEvent(tick=0, channel=0, data=[36,0]),
   midi.NoteOnEvent(tick=0, channel=0, data=[52,34]),
   midi.NoteOnEvent(tick=120, channel=0, data=[52,0]),
   midi.NoteOnEvent(tick=0, channel=0, data=[55,35]),
   midi.NoteOnEvent(tick=120, channel=0, data=[55,0]),
   midi.NoteOnEvent(tick=0, channel=0, data=[60,36]),
   midi.NoteOnEvent(tick=120, channel=0, data=[60,0]),
   midi.NoteOnEvent(tick=0, channel=0, data=[55,37]),
   midi.NoteOnEvent(tick=120, channel=0, data=[55,0]),
   midi.NoteOnEvent(tick=0, channel=0, data=[52,34]),
   midi.NoteOnEvent(tick=120, channel=0, data=[52,0]),
   midi.NoteOnEvent(tick=0, channel=0, data=[48,37]),
   midi.NoteOnEvent(tick=120, channel=0, data=[48,0]),
   midi.NoteOnEvent(tick=0, channel=0, data=[52,31]),
   midi.NoteOnEvent(tick=120, channel=0, data=[52,0]),
   midi.NoteOnEvent(tick=0, channel=0, data=[55,33]),
   midi.NoteOnEvent(tick=120, channel=0, data=[55,0]),
   midi.NoteOnEvent(tick=0, channel=0, data=[60,30]),
   midi.NoteOnEvent(tick=120, channel=0, data=[60,0]),
   midi.NoteOnEvent(tick=0, channel=0, data=[55,30]),
   midi.NoteOnEvent(tick=120, channel=0, data=[55,0]),
   midi.NoteOnEvent(tick=0, channel=0, data=[52,29]),
   midi.ControlChangeEvent(tick=0, channel=0, data=[64,0]),
   midi.NoteOnEvent(tick=30, channel=0, data=[52,0]),
   midi.ControlChangeEvent(tick=40, channel=0, data=[64,127]),
   midi.NoteOnEvent(tick=50, channel=0, data=[53,33]),
   midi.NoteOnEvent(tick=0, channel=0, data=[41,33]),
   midi.NoteOnEvent(tick=120, channel=0, data=[41,0]),
   midi.NoteOnEvent(tick=0, channel=0, data=[53,0]),
   midi.NoteOnEvent(tick=0, channel=0, data=[57,34]),
   midi.NoteOnEvent(tick=120, channel=0, data=[57,0]),
   midi.NoteOnEvent(tick=0, channel=0, data=[60,35]),
   midi.NoteOnEvent(tick=120, channel=0, data=[60,0]),
   midi.NoteOnEvent(tick=0, channel=0, data=[65,36]),
   midi.NoteOnEvent(tick=120, channel=0, data=[65,0]),
   midi.NoteOnEvent(tick=0, channel=0, data=[60,40]),
   midi.NoteOnEvent(tick=120, channel=0, data=[60,0]),
   midi.NoteOnEvent(tick=0, channel=0, data=[57,34]),
   midi.NoteOnEvent(tick=120, channel=0, data=[57,0]),
   midi.NoteOnEvent(tick=0, channel=0, data=[53,37]),
   midi.NoteOnEvent(tick=120, channel=0, data=[53,0]),
   midi.NoteOnEvent(tick=0, channel=0, data=[57,31]),
   midi.NoteOnEvent(tick=120, channel=0, data=[57,0]),
   midi.NoteOnEvent(tick=0, channel=0, data=[60,35]),
   midi.NoteOnEvent(tick=120, channel=0, data=[60,0]),
   midi.NoteOnEvent(tick=0, channel=0, data=[65,34]),
   midi.NoteOnEvent(tick=120, channel=0, data=[65,0]),
   midi.NoteOnEvent(tick=0, channel=0, data=[60,33]),
   midi.NoteOnEvent(tick=120, channel=0, data=[60,0]),
   midi.NoteOnEvent(tick=0, channel=0, data=[57,34]),
   midi.ControlChangeEvent(tick=25, channel=0, data=[64,0]),
   midi.NoteOnEvent(tick=5, channel=0, data=[57,0]),
   midi.ControlChangeEvent(tick=37, channel=0, data=[64,127]),
   midi.NoteOnEvent(tick=53, channel=0, data=[48,33]),
   midi.NoteOnEvent(tick=0, channel=0, data=[36,33]),
   midi.NoteOnEvent(tick=120, channel=0, data=[36,0]),
   midi.NoteOnEvent(tick=0, channel=0, data=[48,0]),
   midi.NoteOnEvent(tick=0, channel=0, data=[52,34]),
   midi.NoteOnEvent(tick=120, channel=0, data=[52,0]),
   midi.NoteOnEvent(tick=0, channel=0, data=[55,35]),
   midi.NoteOnEvent(tick=120, channel=0, data=[55,0]),
   midi.NoteOnEvent(tick=0, channel=0, data=[60,36]),
   midi.NoteOnEvent(tick=120, channel=0, data=[60,0]),
   midi.NoteOnEvent(tick=0, channel=0, data=[55,37]),
   midi.NoteOnEvent(tick=120, channel=0, data=[55,0]),
   midi.NoteOnEvent(tick=0, channel=0, data=[52,34]),
   midi.NoteOnEvent(tick=120, channel=0, data=[52,0]),
   midi.NoteOnEvent(tick=0, channel=0, data=[48,37]),
   midi.NoteOnEvent(tick=120, channel=0, data=[48,0]),
   midi.NoteOnEvent(tick=0, channel=0, data=[52,31]),
   midi.NoteOnEvent(tick=120, channel=0, data=[52,0]),
   midi.NoteOnEvent(tick=0, channel=0, data=[55,33]),
   midi.NoteOnEvent(tick=120, channel=0, data=[55,0]),
   midi.NoteOnEvent(tick=0, channel=0, data=[60,30]),
   midi.NoteOnEvent(tick=120, channel=0, data=[60,0]),
   midi.NoteOnEvent(tick=0, channel=0, data=[55,30]),
   midi.NoteOnEvent(tick=120, channel=0, data=[55,0]),
   midi.NoteOnEvent(tick=0, channel=0, data=[52,29]),
   midi.NoteOnEvent(tick=30, channel=0, data=[52,0]),
   midi.ControlChangeEvent(tick=9, channel=0, data=[64,0]),
   midi.ControlChangeEvent(tick=42, channel=0, data=[64,127]),
   midi.NoteOnEvent(tick=39, channel=0, data=[31,31]),
   midi.NoteOnEvent(tick=0, channel=0, data=[43,31]),
   midi.NoteOnEvent(tick=120, channel=0, data=[43,0]),
   midi.NoteOnEvent(tick=0, channel=0, data=[31,0]),
   midi.NoteOnEvent(tick=0, channel=0, data=[53,34]),
   midi.NoteOnEvent(tick=120, channel=0, data=[53,0]),
   midi.NoteOnEvent(tick=0, channel=0, data=[55,35]),
   midi.NoteOnEvent(tick=120, channel=0, data=[55,0]),
   midi.NoteOnEvent(tick=0, channel=0, data=[59,34]),
   midi.NoteOnEvent(tick=120, channel=0, data=[59,0]),
   midi.NoteOnEvent(tick=0, channel=0, data=[55,33]),
   midi.NoteOnEvent(tick=120, channel=0, data=[55,0]),
   midi.NoteOnEvent(tick=0, channel=0, data=[53,33]),
   midi.NoteOnEvent(tick=120, channel=0, data=[53,0]),
   midi.NoteOnEvent(tick=0, channel=0, data=[43,29]),
   midi.NoteOnEvent(tick=120, channel=0, data=[43,0]),
   midi.NoteOnEvent(tick=0, channel=0, data=[53,31]),
   midi.NoteOnEvent(tick=120, channel=0, data=[53,0]),
   midi.NoteOnEvent(tick=0, channel=0, data=[55,34]),
   midi.NoteOnEvent(tick=120, channel=0, data=[55,0]),
   midi.NoteOnEvent(tick=0, channel=0, data=[59,37]),
   midi.NoteOnEvent(tick=120, channel=0, data=[59,0]),
   midi.NoteOnEvent(tick=0, channel=0, data=[55,34]),
   midi.NoteOnEvent(tick=120, channel=0, data=[55,0]),
   midi.NoteOnEvent(tick=0, channel=0, data=[53,33]),
   midi.NoteOnEvent(tick=30, channel=0, data=[53,0]),
   midi.ControlChangeEvent(tick=5, channel=0, data=[64,0]),
   midi.ControlChangeEvent(tick=36, channel=0, data=[64,127]),
   midi.NoteOnEvent(tick=49, channel=0, data=[48,33]),
   midi.NoteOnEvent(tick=0, channel=0, data=[36,33]),
   midi.NoteOnEvent(tick=120, channel=0, data=[36,0]),
   midi.NoteOnEvent(tick=0, channel=0, data=[48,0]),
   midi.NoteOnEvent(tick=0, channel=0, data=[52,34]),
   midi.NoteOnEvent(tick=120, channel=0, data=[52,0]),
   midi.NoteOnEvent(tick=0, channel=0, data=[55,35]),
   midi.NoteOnEvent(tick=120, channel=0, data=[55,0]),
   midi.NoteOnEvent(tick=0, channel=0, data=[60,36]),
   midi.NoteOnEvent(tick=120, channel=0, data=[60,0]),
   midi.NoteOnEvent(tick=0, channel=0, data=[55,37]),
   midi.NoteOnEvent(tick=120, channel=0, data=[55,0]),
   midi.NoteOnEvent(tick=0, channel=0, data=[52,34]),
   midi.NoteOnEvent(tick=120, channel=0, data=[52,0]),
   midi.NoteOnEvent(tick=0, channel=0, data=[48,30]),
   midi.NoteOnEvent(tick=120, channel=0, data=[48,0]),
   midi.NoteOnEvent(tick=0, channel=0, data=[52,25]),
   midi.NoteOnEvent(tick=120, channel=0, data=[52,0]),
   midi.NoteOnEvent(tick=0, channel=0, data=[55,29]),
   midi.NoteOnEvent(tick=120, channel=0, data=[55,0]),
   midi.NoteOnEvent(tick=0, channel=0, data=[60,25]),
   midi.NoteOnEvent(tick=120, channel=0, data=[60,0]),
   midi.NoteOnEvent(tick=0, channel=0, data=[64,24]),
   midi.ControlChangeEvent(tick=137, channel=0, data=[64,0]),
   midi.ControlChangeEvent(tick=33, channel=0, data=[64,127]),
   midi.NoteOnEvent(tick=70, channel=0, data=[64,0]),
   midi.NoteOnEvent(tick=0, channel=0, data=[31,36]),
   midi.NoteOnEvent(tick=0, channel=0, data=[43,36]),
   midi.NoteOnEvent(tick=120, channel=0, data=[43,0]),
   midi.NoteOnEvent(tick=0, channel=0, data=[31,0]),
   midi.NoteOnEvent(tick=0, channel=0, data=[52,33]),
   midi.NoteOnEvent(tick=120, channel=0, data=[52,0]),
   midi.NoteOnEvent(tick=0, channel=0, data=[55,33]),
   midi.NoteOnEvent(tick=120, channel=0, data=[55,0]),
   midi.NoteOnEvent(tick=0, channel=0, data=[60,33]),
   midi.NoteOnEvent(tick=120, channel=0, data=[60,0]),
   midi.NoteOnEvent(tick=0, channel=0, data=[55,29]),
   midi.ControlChangeEvent(tick=108, channel=0, data=[64,0]),
   midi.NoteOnEvent(tick=12, channel=0, data=[55,0]),
   midi.NoteOnEvent(tick=0, channel=0, data=[52,29]),
   midi.NoteOnEvent(tick=30, channel=0, data=[52,0]),
   midi.ControlChangeEvent(tick=10, channel=0, data=[64,127]),
   midi.NoteOnEvent(tick=80, channel=0, data=[31,36]),
   midi.NoteOnEvent(tick=0, channel=0, data=[43,36]),
   midi.NoteOnEvent(tick=120, channel=0, data=[43,0]),
   midi.NoteOnEvent(tick=0, channel=0, data=[31,0]),
   midi.NoteOnEvent(tick=0, channel=0, data=[53,33]),
   midi.NoteOnEvent(tick=120, channel=0, data=[53,0]),
   midi.NoteOnEvent(tick=0, channel=0, data=[55,28]),
   midi.NoteOnEvent(tick=120, channel=0, data=[55,0]),
   midi.NoteOnEvent(tick=0, channel=0, data=[59,30]),
   midi.NoteOnEvent(tick=120, channel=0, data=[59,0]),
   midi.NoteOnEvent(tick=0, channel=0, data=[55,29]),
   midi.NoteOnEvent(tick=120, channel=0, data=[55,0]),
   midi.NoteOnEvent(tick=0, channel=0, data=[53,30]),
   midi.NoteOnEvent(tick=120, channel=0, data=[53,0]),
   midi.NoteOnEvent(tick=0, channel=0, data=[48,33]),
   midi.NoteOnEvent(tick=0, channel=0, data=[36,33]),
   midi.ControlChangeEvent(tick=26, channel=0, data=[64,0]),
   midi.ControlChangeEvent(tick=70, channel=0, data=[64,127]),
   midi.NoteOnEvent(tick=24, channel=0, data=[36,0]),
   midi.NoteOnEvent(tick=0, channel=0, data=[48,0]),
   midi.NoteOnEvent(tick=0, channel=0, data=[52,34]),
   midi.NoteOnEvent(tick=120, channel=0, data=[52,0]),
   midi.NoteOnEvent(tick=0, channel=0, data=[55,35]),
   midi.NoteOnEvent(tick=120, channel=0, data=[55,0]),
   midi.NoteOnEvent(tick=0, channel=0, data=[60,36]),
   midi.NoteOnEvent(tick=120, channel=0, data=[60,0]),
   midi.NoteOnEvent(tick=0, channel=0, data=[55,37]),
   midi.NoteOnEvent(tick=120, channel=0, data=[55,0]),
   midi.NoteOnEvent(tick=0, channel=0, data=[52,34]),
   midi.NoteOnEvent(tick=120, channel=0, data=[52,0]),
   midi.NoteOnEvent(tick=0, channel=0, data=[48,37]),
   midi.NoteOnEvent(tick=120, channel=0, data=[48,0]),
   midi.NoteOnEvent(tick=0, channel=0, data=[52,35]),
   midi.NoteOnEvent(tick=120, channel=0, data=[52,0]),
   midi.NoteOnEvent(tick=0, channel=0, data=[55,37]),
   midi.NoteOnEvent(tick=120, channel=0, data=[55,0]),
   midi.NoteOnEvent(tick=0, channel=0, data=[60,40]),
   midi.NoteOnEvent(tick=120, channel=0, data=[60,0]),
   midi.NoteOnEvent(tick=0, channel=0, data=[55,39]),
   midi.NoteOnEvent(tick=120, channel=0, data=[55,0]),
   midi.NoteOnEvent(tick=0, channel=0, data=[52,37]),
   midi.NoteOnEvent(tick=30, channel=0, data=[52,0]),
   midi.ControlChangeEvent(tick=10, channel=0, data=[64,0]),
   midi.ControlChangeEvent(tick=34, channel=0, data=[64,127]),
   midi.NoteOnEvent(tick=46, channel=0, data=[36,41]),
   midi.NoteOnEvent(tick=0, channel=0, data=[48,41]),
   midi.NoteOnEvent(tick=120, channel=0, data=[48,0]),
   midi.NoteOnEvent(tick=0, channel=0, data=[36,0]),
   midi.NoteOnEvent(tick=0, channel=0, data=[53,42]),
   midi.NoteOnEvent(tick=120, channel=0, data=[53,0]),
   midi.NoteOnEvent(tick=0, channel=0, data=[56,45]),
   midi.NoteOnEvent(tick=120, channel=0, data=[56,0]),
   midi.NoteOnEvent(tick=0, channel=0, data=[60,46]),
   midi.NoteOnEvent(tick=120, channel=0, data=[60,0]),
   midi.NoteOnEvent(tick=0, channel=0, data=[56,47]),
   midi.NoteOnEvent(tick=120, channel=0, data=[56,0]),
   midi.NoteOnEvent(tick=0, channel=0, data=[53,42]),
   midi.NoteOnEvent(tick=120, channel=0, data=[53,0]),
   midi.NoteOnEvent(tick=0, channel=0, data=[48,47]),
   midi.NoteOnEvent(tick=120, channel=0, data=[48,0]),
   midi.NoteOnEvent(tick=0, channel=0, data=[53,45]),
   midi.NoteOnEvent(tick=120, channel=0, data=[53,0]),
   midi.NoteOnEvent(tick=0, channel=0, data=[56,47]),
   midi.NoteOnEvent(tick=120, channel=0, data=[56,0]),
   midi.NoteOnEvent(tick=0, channel=0, data=[60,51]),
   midi.NoteOnEvent(tick=120, channel=0, data=[60,0]),
   midi.NoteOnEvent(tick=0, channel=0, data=[56,50]),
   midi.NoteOnEvent(tick=120, channel=0, data=[56,0]),
   midi.NoteOnEvent(tick=0, channel=0, data=[53,47]),
   midi.NoteOnEvent(tick=120, channel=0, data=[53,0]),
   midi.NoteOnEvent(tick=0, channel=0, data=[36,41]),
   midi.NoteOnEvent(tick=0, channel=0, data=[48,41]),
   midi.ControlChangeEvent(tick=2, channel=0, data=[64,0]),
   midi.ControlChangeEvent(tick=62, channel=0, data=[64,127]),
   midi.NoteOnEvent(tick=56, channel=0, data=[48,0]),
   midi.NoteOnEvent(tick=0, channel=0, data=[36,0]),
   midi.NoteOnEvent(tick=0, channel=0, data=[52,42]),
   midi.NoteOnEvent(tick=120, channel=0, data=[52,0]),
   midi.NoteOnEvent(tick=0, channel=0, data=[55,45]),
   midi.NoteOnEvent(tick=120, channel=0, data=[55,0]),
   midi.NoteOnEvent(tick=0, channel=0, data=[60,46]),
   midi.NoteOnEvent(tick=120, channel=0, data=[60,0]),
   midi.NoteOnEvent(tick=0, channel=0, data=[55,47]),
   midi.NoteOnEvent(tick=120, channel=0, data=[55,0]),
   midi.NoteOnEvent(tick=0, channel=0, data=[52,42]),
   midi.NoteOnEvent(tick=120, channel=0, data=[52,0]),
   midi.NoteOnEvent(tick=0, channel=0, data=[48,47]),
   midi.NoteOnEvent(tick=120, channel=0, data=[48,0]),
   midi.NoteOnEvent(tick=0, channel=0, data=[52,45]),
   midi.NoteOnEvent(tick=120, channel=0, data=[52,0]),
   midi.NoteOnEvent(tick=0, channel=0, data=[55,47]),
   midi.NoteOnEvent(tick=120, channel=0, data=[55,0]),
   midi.NoteOnEvent(tick=0, channel=0, data=[60,51]),
   midi.NoteOnEvent(tick=120, channel=0, data=[60,0]),
   midi.NoteOnEvent(tick=0, channel=0, data=[55,50]),
   midi.NoteOnEvent(tick=120, channel=0, data=[55,0]),
   midi.NoteOnEvent(tick=0, channel=0, data=[52,47]),
   midi.ControlChangeEvent(tick=21, channel=0, data=[64,0]),
   midi.NoteOnEvent(tick=9, channel=0, data=[52,0]),
   midi.ControlChangeEvent(tick=27, channel=0, data=[64,127]),
   midi.NoteOnEvent(tick=63, channel=0, data=[36,41]),
   midi.NoteOnEvent(tick=0, channel=0, data=[48,41]),
   midi.NoteOnEvent(tick=120, channel=0, data=[48,0]),
   midi.NoteOnEvent(tick=0, channel=0, data=[36,0]),
   midi.NoteOnEvent(tick=0, channel=0, data=[53,42]),
   midi.NoteOnEvent(tick=120, channel=0, data=[53,0]),
   midi.NoteOnEvent(tick=0, channel=0, data=[56,45]),
   midi.NoteOnEvent(tick=120, channel=0, data=[56,0]),
   midi.NoteOnEvent(tick=0, channel=0, data=[60,46]),
   midi.NoteOnEvent(tick=120, channel=0, data=[60,0]),
   midi.NoteOnEvent(tick=0, channel=0, data=[56,47]),
   midi.NoteOnEvent(tick=120, channel=0, data=[56,0]),
   midi.NoteOnEvent(tick=0, channel=0, data=[53,42]),
   midi.NoteOnEvent(tick=120, channel=0, data=[53,0]),
   midi.NoteOnEvent(tick=0, channel=0, data=[48,47]),
   midi.NoteOnEvent(tick=120, channel=0, data=[48,0]),
   midi.NoteOnEvent(tick=0, channel=0, data=[53,45]),
   midi.NoteOnEvent(tick=120, channel=0, data=[53,0]),
   midi.NoteOnEvent(tick=0, channel=0, data=[56,47]),
   midi.NoteOnEvent(tick=120, channel=0, data=[56,0]),
   midi.NoteOnEvent(tick=0, channel=0, data=[60,51]),
   midi.NoteOnEvent(tick=120, channel=0, data=[60,0]),
   midi.NoteOnEvent(tick=0, channel=0, data=[56,50]),
   midi.NoteOnEvent(tick=120, channel=0, data=[56,0]),
   midi.NoteOnEvent(tick=0, channel=0, data=[53,47]),
   midi.NoteOnEvent(tick=120, channel=0, data=[53,0]),
   midi.NoteOnEvent(tick=0, channel=0, data=[36,50]),
   midi.NoteOnEvent(tick=0, channel=0, data=[48,50]),
   midi.ControlChangeEvent(tick=4, channel=0, data=[64,0]),
   midi.ControlChangeEvent(tick=73, channel=0, data=[64,127]),
   midi.NoteOnEvent(tick=43, channel=0, data=[48,0]),
   midi.NoteOnEvent(tick=0, channel=0, data=[36,0]),
   midi.NoteOnEvent(tick=0, channel=0, data=[52,51]),
   midi.NoteOnEvent(tick=120, channel=0, data=[52,0]),
   midi.NoteOnEvent(tick=0, channel=0, data=[55,53]),
   midi.NoteOnEvent(tick=120, channel=0, data=[55,0]),
   midi.NoteOnEvent(tick=0, channel=0, data=[60,56]),
   midi.NoteOnEvent(tick=120, channel=0, data=[60,0]),
   midi.NoteOnEvent(tick=0, channel=0, data=[55,57]),
   midi.NoteOnEvent(tick=120, channel=0, data=[55,0]),
   midi.NoteOnEvent(tick=0, channel=0, data=[52,51]),
   midi.NoteOnEvent(tick=120, channel=0, data=[52,0]),
   midi.NoteOnEvent(tick=0, channel=0, data=[48,57]),
   midi.NoteOnEvent(tick=120, channel=0, data=[48,0]),
   midi.NoteOnEvent(tick=0, channel=0, data=[52,53]),
   midi.NoteOnEvent(tick=120, channel=0, data=[52,0]),
   midi.NoteOnEvent(tick=0, channel=0, data=[55,57]),
   midi.NoteOnEvent(tick=120, channel=0, data=[55,0]),
   midi.NoteOnEvent(tick=0, channel=0, data=[60,62]),
   midi.NoteOnEvent(tick=120, channel=0, data=[60,0]),
   midi.NoteOnEvent(tick=0, channel=0, data=[55,60]),
   midi.NoteOnEvent(tick=120, channel=0, data=[55,0]),
   midi.NoteOnEvent(tick=0, channel=0, data=[52,57]),
   midi.NoteOnEvent(tick=120, channel=0, data=[52,0]),
   midi.ControlChangeEvent(tick=0, channel=0, data=[64,0]),
   midi.NoteOnEvent(tick=0, channel=0, data=[48,69]),
   midi.NoteOnEvent(tick=0, channel=0, data=[36,69]),
   midi.ControlChangeEvent(tick=266, channel=0, data=[64,127]),
   midi.NoteOnEvent(tick=664, channel=0, data=[36,0]),
   midi.NoteOnEvent(tick=0, channel=0, data=[48,0]),
   midi.NoteOnEvent(tick=30, channel=0, data=[69,34]),
   midi.NoteOnEvent(tick=0, channel=0, data=[72,40]),
   midi.ControlChangeEvent(tick=7, channel=0, data=[64,0]),
   midi.ControlChangeEvent(tick=419, channel=0, data=[64,127]),
   midi.NoteOnEvent(tick=534, channel=0, data=[72,0]),
   midi.NoteOnEvent(tick=0, channel=0, data=[69,0]),
   midi.NoteOnEvent(tick=0, channel=0, data=[64,28]),
   midi.NoteOnEvent(tick=0, channel=0, data=[71,33]),
   midi.ControlChangeEvent(tick=9, channel=0, data=[64,0]),
   midi.ControlChangeEvent(tick=338, channel=0, data=[64,127]),
   midi.NoteOnEvent(tick=613, channel=0, data=[71,0]),
   midi.NoteOnEvent(tick=0, channel=0, data=[64,0]),
   midi.NoteOnEvent(tick=0, channel=0, data=[65,35]),
   midi.NoteOnEvent(tick=0, channel=0, data=[69,42]),
   midi.ControlChangeEvent(tick=13, channel=0, data=[64,0]),
   midi.ControlChangeEvent(tick=413, channel=0, data=[64,127]),
   midi.NoteOnEvent(tick=534, channel=0, data=[69,0]),
   midi.NoteOnEvent(tick=0, channel=0, data=[65,0]),
   midi.NoteOnEvent(tick=0, channel=0, data=[67,51]),
   midi.NoteOnEvent(tick=0, channel=0, data=[60,43]),
   midi.ControlChangeEvent(tick=5, channel=0, data=[64,0]),
   midi.ControlChangeEvent(tick=261, channel=0, data=[64,127]),
   midi.NoteOnEvent(tick=694, channel=0, data=[60,0]),
   midi.NoteOnEvent(tick=0, channel=0, data=[67,0]),
   midi.NoteOnEvent(tick=0, channel=0, data=[69,62]),
   midi.NoteOnEvent(tick=0, channel=0, data=[57,52]),
   midi.ControlChangeEvent(tick=13, channel=0, data=[64,0]),
   midi.ControlChangeEvent(tick=307, channel=0, data=[64,127]),
   midi.NoteOnEvent(tick=640, channel=0, data=[57,0]),
   midi.NoteOnEvent(tick=0, channel=0, data=[69,0]),
   midi.NoteOnEvent(tick=0, channel=0, data=[69,68]),
   midi.NoteOnEvent(tick=0, channel=0, data=[62,57]),
   midi.ControlChangeEvent(tick=9, channel=0, data=[64,0]),
   midi.ControlChangeEvent(tick=311, channel=0, data=[64,127]),
   midi.NoteOnEvent(tick=640, channel=0, data=[62,0]),
   midi.NoteOnEvent(tick=0, channel=0, data=[69,0]),
   midi.NoteOnEvent(tick=0, channel=0, data=[67,74]),
   midi.NoteOnEvent(tick=0, channel=0, data=[55,62]),
   midi.ControlChangeEvent(tick=13, channel=0, data=[64,0]),
   midi.ControlChangeEvent(tick=254, channel=0, data=[64,127]),
   midi.NoteOnEvent(tick=213, channel=0, data=[67,0]),
   midi.NoteOnEvent(tick=0, channel=0, data=[65,83]),
   midi.NoteOnEvent(tick=480, channel=0, data=[65,0]),
   midi.NoteOnEvent(tick=0, channel=0, data=[55,0]),
   midi.NoteOnEvent(tick=0, channel=0, data=[36,85]),
   midi.ControlChangeEvent(tick=7, channel=0, data=[64,0]),
   midi.ControlChangeEvent(tick=32, channel=0, data=[64,127]),
   midi.NoteOnEvent(tick=1, channel=0, data=[36,0]),
   midi.NoteOnEvent(tick=0, channel=0, data=[43,60]),
   midi.NoteOnEvent(tick=40, channel=0, data=[43,0]),
   midi.NoteOnEvent(tick=0, channel=0, data=[48,60]),
   midi.NoteOnEvent(tick=40, channel=0, data=[48,0]),
   midi.NoteOnEvent(tick=0, channel=0, data=[52,67]),
   midi.NoteOnEvent(tick=40, channel=0, data=[52,0]),
   midi.NoteOnEvent(tick=0, channel=0, data=[55,60]),
   midi.NoteOnEvent(tick=40, channel=0, data=[55,0]),
   midi.NoteOnEvent(tick=0, channel=0, data=[60,60]),
   midi.NoteOnEvent(tick=40, channel=0, data=[60,0]),
   midi.NoteOnEvent(tick=240, channel=0, data=[48,67]),
   midi.NoteOnEvent(tick=40, channel=0, data=[48,0]),
   midi.NoteOnEvent(tick=0, channel=0, data=[55,60]),
   midi.NoteOnEvent(tick=40, channel=0, data=[55,0]),
   midi.NoteOnEvent(tick=0, channel=0, data=[60,62]),
   midi.NoteOnEvent(tick=40, channel=0, data=[60,0]),
   midi.NoteOnEvent(tick=0, channel=0, data=[64,71]),
   midi.NoteOnEvent(tick=40, channel=0, data=[64,0]),
   midi.NoteOnEvent(tick=0, channel=0, data=[67,66]),
   midi.NoteOnEvent(tick=40, channel=0, data=[67,0]),
   midi.NoteOnEvent(tick=0, channel=0, data=[72,67]),
   midi.NoteOnEvent(tick=40, channel=0, data=[72,0]),
   midi.NoteOnEvent(tick=240, channel=0, data=[60,77]),
   midi.NoteOnEvent(tick=40, channel=0, data=[60,0]),
   midi.NoteOnEvent(tick=0, channel=0, data=[67,70]),
   midi.NoteOnEvent(tick=40, channel=0, data=[67,0]),
   midi.NoteOnEvent(tick=0, channel=0, data=[72,71]),
   midi.NoteOnEvent(tick=40, channel=0, data=[72,0]),
   midi.NoteOnEvent(tick=0, channel=0, data=[76,77]),
   midi.NoteOnEvent(tick=40, channel=0, data=[76,0]),
   midi.NoteOnEvent(tick=0, channel=0, data=[79,71]),
   midi.NoteOnEvent(tick=40, channel=0, data=[79,0]),
   midi.NoteOnEvent(tick=0, channel=0, data=[84,71]),
   midi.NoteOnEvent(tick=40, channel=0, data=[84,0]),
   midi.NoteOnEvent(tick=240, channel=0, data=[60,79]),
   midi.NoteOnEvent(tick=40, channel=0, data=[60,0]),
   midi.NoteOnEvent(tick=0, channel=0, data=[67,74]),
   midi.NoteOnEvent(tick=40, channel=0, data=[67,0]),
   midi.NoteOnEvent(tick=0, channel=0, data=[72,74]),
   midi.NoteOnEvent(tick=40, channel=0, data=[72,0]),
   midi.NoteOnEvent(tick=0, channel=0, data=[76,83]),
   midi.NoteOnEvent(tick=40, channel=0, data=[76,0]),
   midi.NoteOnEvent(tick=0, channel=0, data=[79,77]),
   midi.NoteOnEvent(tick=40, channel=0, data=[79,0]),
   midi.NoteOnEvent(tick=0, channel=0, data=[84,77]),
   midi.NoteOnEvent(tick=40, channel=0, data=[84,0]),
   midi.NoteOnEvent(tick=240, channel=0, data=[72,79]),
   midi.NoteOnEvent(tick=0, channel=0, data=[76,79]),
   midi.NoteOnEvent(tick=0, channel=0, data=[79,88]),
   midi.NoteOnEvent(tick=960, channel=0, data=[79,0]),
   midi.NoteOnEvent(tick=0, channel=0, data=[76,0]),
   midi.NoteOnEvent(tick=0, channel=0, data=[72,0]),
   midi.NoteOnEvent(tick=0, channel=0, data=[67,72]),
   midi.NoteOnEvent(tick=0, channel=0, data=[72,81]),
   midi.NoteOnEvent(tick=0, channel=0, data=[60,72]),
   midi.NoteOnEvent(tick=960, channel=0, data=[60,0]),
   midi.NoteOnEvent(tick=0, channel=0, data=[72,0]),
   midi.NoteOnEvent(tick=0, channel=0, data=[67,0]),
   midi.NoteOnEvent(tick=0, channel=0, data=[55,72]),
   midi.NoteOnEvent(tick=0, channel=0, data=[60,81]),
   midi.NoteOnEvent(tick=0, channel=0, data=[48,72]),
   midi.NoteOnEvent(tick=960, channel=0, data=[48,0]),
   midi.NoteOnEvent(tick=0, channel=0, data=[60,0]),
   midi.NoteOnEvent(tick=0, channel=0, data=[55,0]),
   midi.NoteOnEvent(tick=0, channel=0, data=[43,72]),
   midi.NoteOnEvent(tick=0, channel=0, data=[48,81]),
   midi.NoteOnEvent(tick=0, channel=0, data=[36,72]),
   midi.NoteOnEvent(tick=960, channel=0, data=[36,0]),
   midi.NoteOnEvent(tick=0, channel=0, data=[48,0]),
   midi.NoteOnEvent(tick=0, channel=0, data=[43,0]),
   midi.NoteOnEvent(tick=0, channel=0, data=[36,86]),
   midi.NoteOnEvent(tick=0, channel=0, data=[24,78]),
   midi.NoteOnEvent(tick=1920, channel=0, data=[24,0]),
   midi.NoteOnEvent(tick=0, channel=0, data=[36,0]),
   midi.ControlChangeEvent(tick=1280, channel=0, data=[64,0]),
   midi.EndOfTrackEvent(tick=0, channel=0, data=[0,0])])])

midi.write_midifile("newMusic.mid", pattern)