import midi
pattern=midi.Pattern(format=1, resolution=480, tracks=\
[midi.Track(\
[   midi.ControlChangeEvent(tick=0, channel=0, data=[7, 100]),
   midi.ControlChangeEvent(tick=0, channel=0, data=[10, 64]),
   midi.NoteOnEvent(tick=0, channel=0, data=[69, 46]),
   midi.NoteOnEvent(tick=0, channel=0, data=[77, 56]),
   midi.ControlChangeEvent(tick=0, channel=0, data=[91, 127]),
   midi.NoteOnEvent(tick=240, channel=0, data=[77, 0]),
   midi.NoteOnEvent(tick=0, channel=0, data=[69, 0]),
   midi.NoteOnEvent(tick=0, channel=0, data=[69, 46]),
   midi.NoteOnEvent(tick=0, channel=0, data=[76, 50]),
   midi.NoteOnEvent(tick=80, channel=0, data=[76, 0]),
   midi.NoteOnEvent(tick=0, channel=0, data=[77, 47]),
   midi.NoteOnEvent(tick=80, channel=0, data=[77, 0]),
   midi.NoteOnEvent(tick=0, channel=0, data=[76, 47]),
   midi.NoteOnEvent(tick=80, channel=0, data=[76, 0]),
   midi.NoteOnEvent(tick=0, channel=0, data=[69, 0]),
   midi.NoteOnEvent(tick=0, channel=0, data=[74, 50]),
   midi.NoteOnEvent(tick=0, channel=0, data=[69, 33]),
   midi.NoteOnEvent(tick=120, channel=0, data=[74, 0]),
   midi.NoteOnEvent(tick=0, channel=0, data=[76, 47]),
   midi.NoteOnEvent(tick=120, channel=0, data=[76, 0]),
   midi.NoteOnEvent(tick=0, channel=0, data=[69, 0]),
   midi.NoteOnEvent(tick=0, channel=0, data=[69, 34]),
   midi.NoteOnEvent(tick=0, channel=0, data=[77, 53]),
   midi.NoteOnEvent(tick=120, channel=0, data=[77, 0]),
   midi.NoteOnEvent(tick=0, channel=0, data=[74, 49]),
   midi.NoteOnEvent(tick=120, channel=0, data=[74, 0]),
   midi.NoteOnEvent(tick=0, channel=0, data=[69, 0]),
   midi.NoteOnEvent(tick=0, channel=0, data=[69, 43]),
   midi.NoteOnEvent(tick=0, channel=0, data=[76, 51]),
   midi.NoteOnEvent(tick=90, channel=0, data=[76, 0]),
   midi.NoteOnEvent(tick=0, channel=0, data=[69, 0]),
   midi.NoteOnEvent(tick=150, channel=0, data=[69, 38]),
   midi.NoteOnEvent(tick=0, channel=0, data=[72, 44]),
   midi.NoteOnEvent(tick=90, channel=0, data=[72, 0]),
   midi.NoteOnEvent(tick=0, channel=0, data=[69, 0]),
   midi.NoteOnEvent(tick=150, channel=0, data=[77, 56]),
   midi.NoteOnEvent(tick=0, channel=0, data=[69, 46]),
   midi.NoteOnEvent(tick=240, channel=0, data=[69, 0]),
   midi.NoteOnEvent(tick=0, channel=0, data=[77, 0]),
   midi.NoteOnEvent(tick=0, channel=0, data=[69, 46]),
   midi.NoteOnEvent(tick=0, channel=0, data=[76, 50]),
   midi.NoteOnEvent(tick=80, channel=0, data=[76, 0]),
   midi.NoteOnEvent(tick=0, channel=0, data=[77, 47]),
   midi.NoteOnEvent(tick=80, channel=0, data=[77, 0]),
   midi.NoteOnEvent(tick=0, channel=0, data=[76, 47]),
   midi.NoteOnEvent(tick=80, channel=0, data=[76, 0]),
   midi.NoteOnEvent(tick=0, channel=0, data=[69, 0]),
   midi.NoteOnEvent(tick=0, channel=0, data=[69, 32]),
   midi.NoteOnEvent(tick=0, channel=0, data=[74, 50]),
   midi.NoteOnEvent(tick=120, channel=0, data=[74, 0]),
   midi.NoteOnEvent(tick=0, channel=0, data=[76, 47]),
   midi.NoteOnEvent(tick=120, channel=0, data=[76, 0]),
   midi.NoteOnEvent(tick=0, channel=0, data=[69, 0]),
   midi.NoteOnEvent(tick=0, channel=0, data=[77, 53]),
   midi.NoteOnEvent(tick=0, channel=0, data=[69, 33]),
   midi.NoteOnEvent(tick=120, channel=0, data=[77, 0]),
   midi.NoteOnEvent(tick=0, channel=0, data=[74, 49]),
   midi.NoteOnEvent(tick=120, channel=0, data=[74, 0]),
   midi.NoteOnEvent(tick=0, channel=0, data=[69, 0]),
   midi.NoteOnEvent(tick=0, channel=0, data=[69, 43]),
   midi.NoteOnEvent(tick=0, channel=0, data=[76, 51]),
   midi.NoteOnEvent(tick=90, channel=0, data=[76, 0]),
   midi.NoteOnEvent(tick=0, channel=0, data=[69, 0]),
   midi.NoteOnEvent(tick=150, channel=0, data=[72, 44]),
   midi.NoteOnEvent(tick=0, channel=0, data=[69, 38]),
   midi.NoteOnEvent(tick=90, channel=0, data=[69, 0]),
   midi.NoteOnEvent(tick=0, channel=0, data=[72, 0]),
   midi.NoteOnEvent(tick=150, channel=0, data=[69, 43]),
   midi.NoteOnEvent(tick=0, channel=0, data=[74, 58]),
   midi.NoteOnEvent(tick=120, channel=0, data=[74, 0]),
   midi.NoteOnEvent(tick=0, channel=0, data=[76, 52]),
   midi.NoteOnEvent(tick=120, channel=0, data=[76, 0]),
   midi.NoteOnEvent(tick=0, channel=0, data=[69, 0]),
   midi.NoteOnEvent(tick=0, channel=0, data=[72, 54]),
   midi.NoteOnEvent(tick=0, channel=0, data=[69, 38]),
   midi.NoteOnEvent(tick=210, channel=0, data=[69, 0]),
   midi.NoteOnEvent(tick=0, channel=0, data=[72, 0]),
   midi.NoteOnEvent(tick=30, channel=0, data=[69, 43]),
   midi.NoteOnEvent(tick=0, channel=0, data=[74, 58]),
   midi.NoteOnEvent(tick=120, channel=0, data=[74, 0]),
   midi.NoteOnEvent(tick=0, channel=0, data=[76, 60]),
   midi.NoteOnEvent(tick=120, channel=0, data=[76, 0]),
   midi.NoteOnEvent(tick=0, channel=0, data=[69, 0]),
   midi.NoteOnEvent(tick=0, channel=0, data=[77, 64]),
   midi.NoteOnEvent(tick=0, channel=0, data=[69, 45]),
   midi.NoteOnEvent(tick=210, channel=0, data=[69, 0]),
   midi.NoteOnEvent(tick=0, channel=0, data=[77, 0]),
   midi.NoteOnEvent(tick=30, channel=0, data=[69, 43]),
   midi.NoteOnEvent(tick=0, channel=0, data=[74, 58]),
   midi.NoteOnEvent(tick=120, channel=0, data=[74, 0]),
   midi.NoteOnEvent(tick=0, channel=0, data=[76, 52]),
   midi.NoteOnEvent(tick=120, channel=0, data=[76, 0]),
   midi.NoteOnEvent(tick=0, channel=0, data=[69, 0]),
   midi.NoteOnEvent(tick=0, channel=0, data=[72, 48]),
   midi.NoteOnEvent(tick=0, channel=0, data=[69, 34]),
   midi.NoteOnEvent(tick=210, channel=0, data=[69, 0]),
   midi.NoteOnEvent(tick=0, channel=0, data=[72, 0]),
   midi.NoteOnEvent(tick=30, channel=0, data=[69, 41]),
   midi.NoteOnEvent(tick=0, channel=0, data=[74, 56]),
   midi.NoteOnEvent(tick=120, channel=0, data=[74, 0]),
   midi.NoteOnEvent(tick=0, channel=0, data=[76, 51]),
   midi.NoteOnEvent(tick=120, channel=0, data=[76, 0]),
   midi.NoteOnEvent(tick=0, channel=0, data=[69, 0]),
   midi.NoteOnEvent(tick=0, channel=0, data=[72, 47]),
   midi.NoteOnEvent(tick=0, channel=0, data=[69, 32]),
   midi.NoteOnEvent(tick=210, channel=0, data=[69, 0]),
   midi.NoteOnEvent(tick=0, channel=0, data=[72, 0]),
   midi.NoteOnEvent(tick=30, channel=0, data=[69, 46]),
   midi.NoteOnEvent(tick=0, channel=0, data=[74, 52]),
   midi.NoteOnEvent(tick=120, channel=0, data=[74, 0]),
   midi.NoteOnEvent(tick=0, channel=0, data=[76, 54]),
   midi.NoteOnEvent(tick=120, channel=0, data=[76, 0]),
   midi.NoteOnEvent(tick=0, channel=0, data=[69, 0]),
   midi.NoteOnEvent(tick=0, channel=0, data=[79, 57]),
   midi.NoteOnEvent(tick=0, channel=0, data=[69, 43]),
   midi.NoteOnEvent(tick=120, channel=0, data=[79, 0]),
   midi.NoteOnEvent(tick=0, channel=0, data=[77, 51]),
   midi.NoteOnEvent(tick=120, channel=0, data=[77, 0]),
   midi.NoteOnEvent(tick=0, channel=0, data=[69, 0]),
   midi.NoteOnEvent(tick=0, channel=0, data=[69, 43]),
   midi.NoteOnEvent(tick=0, channel=0, data=[74, 55]),
   midi.NoteOnEvent(tick=120, channel=0, data=[74, 0]),
   midi.NoteOnEvent(tick=0, channel=0, data=[76, 54]),
   midi.NoteOnEvent(tick=120, channel=0, data=[76, 0]),
   midi.NoteOnEvent(tick=0, channel=0, data=[69, 0]),
   midi.NoteOnEvent(tick=0, channel=0, data=[72, 49]),
   midi.NoteOnEvent(tick=0, channel=0, data=[69, 40]),
   midi.NoteOnEvent(tick=240, channel=0, data=[69, 0]),
   midi.NoteOnEvent(tick=0, channel=0, data=[72, 0]),
   midi.NoteOnEvent(tick=0, channel=0, data=[73, 43]),
   midi.NoteOnEvent(tick=0, channel=0, data=[81, 52]),
   midi.NoteOnEvent(tick=240, channel=0, data=[81, 0]),
   midi.NoteOnEvent(tick=0, channel=0, data=[73, 0]),
   midi.NoteOnEvent(tick=0, channel=0, data=[80, 47]),
   midi.NoteOnEvent(tick=0, channel=0, data=[73, 43]),
   midi.NoteOnEvent(tick=80, channel=0, data=[80, 0]),
   midi.NoteOnEvent(tick=0, channel=0, data=[81, 44]),
   midi.NoteOnEvent(tick=80, channel=0, data=[81, 0]),
   midi.NoteOnEvent(tick=0, channel=0, data=[80, 44]),
   midi.NoteOnEvent(tick=80, channel=0, data=[80, 0]),
   midi.NoteOnEvent(tick=0, channel=0, data=[73, 0]),
   midi.NoteOnEvent(tick=0, channel=0, data=[73, 37]),
   midi.NoteOnEvent(tick=0, channel=0, data=[78, 47]),
   midi.NoteOnEvent(tick=120, channel=0, data=[78, 0]),
   midi.NoteOnEvent(tick=0, channel=0, data=[80, 44]),
   midi.NoteOnEvent(tick=120, channel=0, data=[80, 0]),
   midi.NoteOnEvent(tick=0, channel=0, data=[73, 0]),
   midi.NoteOnEvent(tick=0, channel=0, data=[73, 36]),
   midi.NoteOnEvent(tick=0, channel=0, data=[81, 49]),
   midi.NoteOnEvent(tick=120, channel=0, data=[81, 0]),
   midi.NoteOnEvent(tick=0, channel=0, data=[78, 46]),
   midi.NoteOnEvent(tick=120, channel=0, data=[78, 0]),
   midi.NoteOnEvent(tick=0, channel=0, data=[73, 0]),
   midi.NoteOnEvent(tick=0, channel=0, data=[80, 47]),
   midi.NoteOnEvent(tick=0, channel=0, data=[73, 39]),
   midi.NoteOnEvent(tick=90, channel=0, data=[73, 0]),
   midi.NoteOnEvent(tick=0, channel=0, data=[80, 0]),
   midi.NoteOnEvent(tick=150, channel=0, data=[73, 39]),
   midi.NoteOnEvent(tick=0, channel=0, data=[76, 46]),
   midi.NoteOnEvent(tick=90, channel=0, data=[76, 0]),
   midi.NoteOnEvent(tick=0, channel=0, data=[73, 0]),
   midi.NoteOnEvent(tick=150, channel=0, data=[73, 43]),
   midi.NoteOnEvent(tick=0, channel=0, data=[81, 52]),
   midi.NoteOnEvent(tick=240, channel=0, data=[81, 0]),
   midi.NoteOnEvent(tick=0, channel=0, data=[73, 0]),
   midi.NoteOnEvent(tick=0, channel=0, data=[73, 43]),
   midi.NoteOnEvent(tick=0, channel=0, data=[80, 47]),
   midi.NoteOnEvent(tick=80, channel=0, data=[80, 0]),
   midi.NoteOnEvent(tick=0, channel=0, data=[81, 44]),
   midi.NoteOnEvent(tick=80, channel=0, data=[81, 0]),
   midi.NoteOnEvent(tick=0, channel=0, data=[80, 44]),
   midi.NoteOnEvent(tick=80, channel=0, data=[80, 0]),
   midi.NoteOnEvent(tick=0, channel=0, data=[73, 0]),
   midi.NoteOnEvent(tick=0, channel=0, data=[73, 37]),
   midi.NoteOnEvent(tick=0, channel=0, data=[78, 47]),
   midi.NoteOnEvent(tick=120, channel=0, data=[78, 0]),
   midi.NoteOnEvent(tick=0, channel=0, data=[80, 44]),
   midi.NoteOnEvent(tick=120, channel=0, data=[80, 0]),
   midi.NoteOnEvent(tick=0, channel=0, data=[73, 0]),
   midi.NoteOnEvent(tick=0, channel=0, data=[73, 36]),
   midi.NoteOnEvent(tick=0, channel=0, data=[81, 49]),
   midi.NoteOnEvent(tick=120, channel=0, data=[81, 0]),
   midi.NoteOnEvent(tick=0, channel=0, data=[78, 46]),
   midi.NoteOnEvent(tick=120, channel=0, data=[78, 0]),
   midi.NoteOnEvent(tick=0, channel=0, data=[73, 0]),
   midi.NoteOnEvent(tick=0, channel=0, data=[80, 47]),
   midi.NoteOnEvent(tick=0, channel=0, data=[73, 39]),
   midi.NoteOnEvent(tick=90, channel=0, data=[73, 0]),
   midi.NoteOnEvent(tick=0, channel=0, data=[80, 0]),
   midi.NoteOnEvent(tick=150, channel=0, data=[73, 39]),
   midi.NoteOnEvent(tick=0, channel=0, data=[76, 46]),
   midi.NoteOnEvent(tick=90, channel=0, data=[76, 0]),
   midi.NoteOnEvent(tick=0, channel=0, data=[73, 0]),
   midi.NoteOnEvent(tick=150, channel=0, data=[73, 45]),
   midi.NoteOnEvent(tick=0, channel=0, data=[78, 54]),
   midi.NoteOnEvent(tick=120, channel=0, data=[78, 0]),
   midi.NoteOnEvent(tick=0, channel=0, data=[80, 48]),
   midi.NoteOnEvent(tick=120, channel=0, data=[80, 0]),
   midi.NoteOnEvent(tick=0, channel=0, data=[73, 0]),
   midi.NoteOnEvent(tick=0, channel=0, data=[73, 40]),
   midi.NoteOnEvent(tick=0, channel=0, data=[76, 50]),
   midi.NoteOnEvent(tick=210, channel=0, data=[76, 0]),
   midi.NoteOnEvent(tick=0, channel=0, data=[73, 0]),
   midi.NoteOnEvent(tick=30, channel=0, data=[73, 45]),
   midi.NoteOnEvent(tick=0, channel=0, data=[78, 54]),
   midi.NoteOnEvent(tick=120, channel=0, data=[78, 0]),
   midi.NoteOnEvent(tick=0, channel=0, data=[80, 56]),
   midi.NoteOnEvent(tick=120, channel=0, data=[80, 0]),
   midi.NoteOnEvent(tick=0, channel=0, data=[73, 0]),
   midi.NoteOnEvent(tick=0, channel=0, data=[73, 47]),
   midi.NoteOnEvent(tick=0, channel=0, data=[81, 59]),
   midi.NoteOnEvent(tick=210, channel=0, data=[81, 0]),
   midi.NoteOnEvent(tick=0, channel=0, data=[73, 0]),
   midi.NoteOnEvent(tick=30, channel=0, data=[73, 45]),
   midi.NoteOnEvent(tick=0, channel=0, data=[78, 54]),
   midi.NoteOnEvent(tick=120, channel=0, data=[78, 0]),
   midi.NoteOnEvent(tick=0, channel=0, data=[80, 48]),
   midi.NoteOnEvent(tick=120, channel=0, data=[80, 0]),
   midi.NoteOnEvent(tick=0, channel=0, data=[73, 0]),
   midi.NoteOnEvent(tick=0, channel=0, data=[73, 36]),
   midi.NoteOnEvent(tick=0, channel=0, data=[76, 45]),
   midi.NoteOnEvent(tick=210, channel=0, data=[76, 0]),
   midi.NoteOnEvent(tick=0, channel=0, data=[73, 0]),
   midi.NoteOnEvent(tick=30, channel=0, data=[73, 43]),
   midi.NoteOnEvent(tick=0, channel=0, data=[78, 52]),
   midi.NoteOnEvent(tick=120, channel=0, data=[78, 0]),
   midi.NoteOnEvent(tick=0, channel=0, data=[80, 47]),
   midi.NoteOnEvent(tick=120, channel=0, data=[80, 0]),
   midi.NoteOnEvent(tick=0, channel=0, data=[73, 0]),
   midi.NoteOnEvent(tick=0, channel=0, data=[73, 34]),
   midi.NoteOnEvent(tick=0, channel=0, data=[76, 44]),
   midi.NoteOnEvent(tick=210, channel=0, data=[76, 0]),
   midi.NoteOnEvent(tick=0, channel=0, data=[73, 0]),
   midi.NoteOnEvent(tick=30, channel=0, data=[73, 48]),
   midi.NoteOnEvent(tick=0, channel=0, data=[78, 48]),
   midi.NoteOnEvent(tick=120, channel=0, data=[78, 0]),
   midi.NoteOnEvent(tick=0, channel=0, data=[80, 50]),
   midi.NoteOnEvent(tick=120, channel=0, data=[80, 0]),
   midi.NoteOnEvent(tick=0, channel=0, data=[73, 0]),
   midi.NoteOnEvent(tick=0, channel=0, data=[73, 45]),
   midi.NoteOnEvent(tick=0, channel=0, data=[83, 53]),
   midi.NoteOnEvent(tick=120, channel=0, data=[83, 0]),
   midi.NoteOnEvent(tick=0, channel=0, data=[81, 47]),
   midi.NoteOnEvent(tick=120, channel=0, data=[81, 0]),
   midi.NoteOnEvent(tick=0, channel=0, data=[73, 0]),
   midi.NoteOnEvent(tick=0, channel=0, data=[78, 51]),
   midi.NoteOnEvent(tick=0, channel=0, data=[73, 45]),
   midi.NoteOnEvent(tick=120, channel=0, data=[78, 0]),
   midi.NoteOnEvent(tick=0, channel=0, data=[80, 50]),
   midi.NoteOnEvent(tick=120, channel=0, data=[80, 0]),
   midi.NoteOnEvent(tick=0, channel=0, data=[73, 0]),
   midi.NoteOnEvent(tick=0, channel=0, data=[73, 42]),
   midi.NoteOnEvent(tick=0, channel=0, data=[76, 46]),
   midi.NoteOnEvent(tick=240, channel=0, data=[76, 0]),
   midi.NoteOnEvent(tick=0, channel=0, data=[73, 0]),
   midi.NoteOnEvent(tick=0, channel=0, data=[84, 84]),
   midi.NoteOnEvent(tick=0, channel=0, data=[76, 56]),
   midi.NoteOnEvent(tick=240, channel=0, data=[76, 0]),
   midi.NoteOnEvent(tick=0, channel=0, data=[84, 0]),
   midi.NoteOnEvent(tick=0, channel=0, data=[76, 56]),
   midi.NoteOnEvent(tick=0, channel=0, data=[83, 76]),
   midi.NoteOnEvent(tick=80, channel=0, data=[83, 0]),
   midi.NoteOnEvent(tick=0, channel=0, data=[84, 66]),
   midi.NoteOnEvent(tick=80, channel=0, data=[84, 0]),
   midi.NoteOnEvent(tick=0, channel=0, data=[83, 66]),
   midi.NoteOnEvent(tick=80, channel=0, data=[83, 0]),
   midi.NoteOnEvent(tick=0, channel=0, data=[76, 0]),
   midi.NoteOnEvent(tick=0, channel=0, data=[81, 72]),
   midi.NoteOnEvent(tick=0, channel=0, data=[76, 41]),
   midi.NoteOnEvent(tick=120, channel=0, data=[81, 0]),
   midi.NoteOnEvent(tick=0, channel=0, data=[83, 66]),
   midi.NoteOnEvent(tick=120, channel=0, data=[83, 0]),
   midi.NoteOnEvent(tick=0, channel=0, data=[76, 0]),
   midi.NoteOnEvent(tick=0, channel=0, data=[77, 42]),
   midi.NoteOnEvent(tick=0, channel=0, data=[84, 76]),
   midi.NoteOnEvent(tick=120, channel=0, data=[84, 0]),
   midi.NoteOnEvent(tick=0, channel=0, data=[81, 67]),
   midi.NoteOnEvent(tick=120, channel=0, data=[81, 0]),
   midi.NoteOnEvent(tick=0, channel=0, data=[77, 0]),
   midi.NoteOnEvent(tick=0, channel=0, data=[77, 51]),
   midi.NoteOnEvent(tick=0, channel=0, data=[83, 77]),
   midi.NoteOnEvent(tick=90, channel=0, data=[83, 0]),
   midi.NoteOnEvent(tick=0, channel=0, data=[77, 0]),
   midi.NoteOnEvent(tick=150, channel=0, data=[77, 51]),
   midi.NoteOnEvent(tick=0, channel=0, data=[79, 73]),
   midi.NoteOnEvent(tick=90, channel=0, data=[79, 0]),
   midi.NoteOnEvent(tick=0, channel=0, data=[77, 0]),
   midi.NoteOnEvent(tick=150, channel=0, data=[84, 84]),
   midi.NoteOnEvent(tick=0, channel=0, data=[76, 56]),
   midi.NoteOnEvent(tick=240, channel=0, data=[76, 0]),
   midi.NoteOnEvent(tick=0, channel=0, data=[84, 0]),
   midi.NoteOnEvent(tick=0, channel=0, data=[76, 56]),
   midi.NoteOnEvent(tick=0, channel=0, data=[83, 76]),
   midi.NoteOnEvent(tick=80, channel=0, data=[83, 0]),
   midi.NoteOnEvent(tick=0, channel=0, data=[84, 67]),
   midi.NoteOnEvent(tick=80, channel=0, data=[84, 0]),
   midi.NoteOnEvent(tick=0, channel=0, data=[83, 67]),
   midi.NoteOnEvent(tick=80, channel=0, data=[83, 0]),
   midi.NoteOnEvent(tick=0, channel=0, data=[76, 0]),
   midi.NoteOnEvent(tick=0, channel=0, data=[76, 41]),
   midi.NoteOnEvent(tick=0, channel=0, data=[81, 73]),
   midi.NoteOnEvent(tick=120, channel=0, data=[81, 0]),
   midi.NoteOnEvent(tick=0, channel=0, data=[83, 68]),
   midi.NoteOnEvent(tick=120, channel=0, data=[83, 0]),
   midi.NoteOnEvent(tick=0, channel=0, data=[76, 0]),
   midi.NoteOnEvent(tick=0, channel=0, data=[84, 77]),
   midi.NoteOnEvent(tick=0, channel=0, data=[77, 40]),
   midi.NoteOnEvent(tick=120, channel=0, data=[84, 0]),
   midi.NoteOnEvent(tick=0, channel=0, data=[81, 67]),
   midi.NoteOnEvent(tick=120, channel=0, data=[81, 0]),
   midi.NoteOnEvent(tick=0, channel=0, data=[77, 0]),
   midi.NoteOnEvent(tick=0, channel=0, data=[77, 51]),
   midi.NoteOnEvent(tick=0, channel=0, data=[83, 77]),
   midi.NoteOnEvent(tick=90, channel=0, data=[83, 0]),
   midi.NoteOnEvent(tick=0, channel=0, data=[77, 0]),
   midi.NoteOnEvent(tick=150, channel=0, data=[79, 73]),
   midi.NoteOnEvent(tick=0, channel=0, data=[77, 51]),
   midi.NoteOnEvent(tick=90, channel=0, data=[77, 0]),
   midi.NoteOnEvent(tick=0, channel=0, data=[79, 0]),
   midi.NoteOnEvent(tick=150, channel=0, data=[60, 54]),
   midi.NoteOnEvent(tick=0, channel=0, data=[64, 61]),
   midi.NoteOnEvent(tick=120, channel=0, data=[64, 0]),
   midi.NoteOnEvent(tick=0, channel=0, data=[60, 0]),
   midi.NoteOnEvent(tick=0, channel=0, data=[62, 51]),
   midi.NoteOnEvent(tick=0, channel=0, data=[65, 57]),
   midi.NoteOnEvent(tick=120, channel=0, data=[65, 0]),
   midi.NoteOnEvent(tick=0, channel=0, data=[62, 0]),
   midi.NoteOnEvent(tick=0, channel=0, data=[64, 55]),
   midi.NoteOnEvent(tick=0, channel=0, data=[67, 62]),
   midi.NoteOnEvent(tick=240, channel=0, data=[67, 0]),
   midi.NoteOnEvent(tick=0, channel=0, data=[64, 0]),
   midi.NoteOnEvent(tick=0, channel=0, data=[64, 51]),
   midi.NoteOnEvent(tick=0, channel=0, data=[67, 57]),
   midi.NoteOnEvent(tick=120, channel=0, data=[67, 0]),
   midi.NoteOnEvent(tick=0, channel=0, data=[64, 0]),
   midi.NoteOnEvent(tick=0, channel=0, data=[62, 51]),
   midi.NoteOnEvent(tick=0, channel=0, data=[65, 57]),
   midi.NoteOnEvent(tick=120, channel=0, data=[65, 0]),
   midi.NoteOnEvent(tick=0, channel=0, data=[62, 0]),
   midi.NoteOnEvent(tick=0, channel=0, data=[64, 54]),
   midi.NoteOnEvent(tick=0, channel=0, data=[60, 48]),
   midi.NoteOnEvent(tick=120, channel=0, data=[60, 0]),
   midi.NoteOnEvent(tick=0, channel=0, data=[64, 0]),
   midi.NoteOnEvent(tick=0, channel=0, data=[62, 48]),
   midi.NoteOnEvent(tick=0, channel=0, data=[65, 54]),
   midi.NoteOnEvent(tick=120, channel=0, data=[65, 0]),
   midi.NoteOnEvent(tick=0, channel=0, data=[62, 0]),
   midi.NoteOnEvent(tick=0, channel=0, data=[67, 55]),
   midi.NoteOnEvent(tick=0, channel=0, data=[64, 49]),
   midi.NoteOnEvent(tick=120, channel=0, data=[64, 0]),
   midi.NoteOnEvent(tick=0, channel=0, data=[67, 0]),
   midi.NoteOnEvent(tick=0, channel=0, data=[65, 51]),
   midi.NoteOnEvent(tick=0, channel=0, data=[68, 57]),
   midi.NoteOnEvent(tick=120, channel=0, data=[68, 0]),
   midi.NoteOnEvent(tick=0, channel=0, data=[65, 0]),
   midi.NoteOnEvent(tick=0, channel=0, data=[67, 52]),
   midi.NoteOnEvent(tick=0, channel=0, data=[70, 58]),
   midi.NoteOnEvent(tick=120, channel=0, data=[70, 0]),
   midi.NoteOnEvent(tick=0, channel=0, data=[67, 0]),
   midi.NoteOnEvent(tick=0, channel=0, data=[72, 60]),
   midi.NoteOnEvent(tick=0, channel=0, data=[68, 54]),
   midi.NoteOnEvent(tick=120, channel=0, data=[68, 0]),
   midi.NoteOnEvent(tick=0, channel=0, data=[72, 0]),
   midi.NoteOnEvent(tick=0, channel=0, data=[67, 53]),
   midi.NoteOnEvent(tick=0, channel=0, data=[70, 59]),
   midi.NoteOnEvent(tick=120, channel=0, data=[70, 0]),
   midi.NoteOnEvent(tick=0, channel=0, data=[67, 0]),
   midi.NoteOnEvent(tick=0, channel=0, data=[73, 62]),
   midi.NoteOnEvent(tick=0, channel=0, data=[70, 55]),
   midi.NoteOnEvent(tick=120, channel=0, data=[70, 0]),
   midi.NoteOnEvent(tick=0, channel=0, data=[73, 0]),
   midi.NoteOnEvent(tick=0, channel=0, data=[68, 55]),
   midi.NoteOnEvent(tick=0, channel=0, data=[72, 62]),
   midi.NoteOnEvent(tick=120, channel=0, data=[72, 0]),
   midi.NoteOnEvent(tick=0, channel=0, data=[68, 0]),
   midi.NoteOnEvent(tick=0, channel=0, data=[65, 51]),
   midi.NoteOnEvent(tick=0, channel=0, data=[68, 57]),
   midi.NoteOnEvent(tick=120, channel=0, data=[68, 0]),
   midi.NoteOnEvent(tick=0, channel=0, data=[65, 0]),
   midi.NoteOnEvent(tick=0, channel=0, data=[70, 60]),
   midi.NoteOnEvent(tick=0, channel=0, data=[67, 54]),
   midi.NoteOnEvent(tick=120, channel=0, data=[67, 0]),
   midi.NoteOnEvent(tick=0, channel=0, data=[70, 0]),
   midi.NoteOnEvent(tick=0, channel=0, data=[64, 51]),
   midi.NoteOnEvent(tick=0, channel=0, data=[67, 57]),
   midi.NoteOnEvent(tick=120, channel=0, data=[67, 0]),
   midi.NoteOnEvent(tick=0, channel=0, data=[64, 0]),
   midi.NoteOnEvent(tick=0, channel=0, data=[65, 57]),
   midi.NoteOnEvent(tick=0, channel=0, data=[60, 51]),
   midi.NoteOnEvent(tick=120, channel=0, data=[60, 0]),
   midi.NoteOnEvent(tick=0, channel=0, data=[65, 0]),
   midi.NoteOnEvent(tick=0, channel=0, data=[61, 45]),
   midi.NoteOnEvent(tick=0, channel=0, data=[67, 51]),
   midi.NoteOnEvent(tick=120, channel=0, data=[67, 0]),
   midi.NoteOnEvent(tick=0, channel=0, data=[61, 0]),
   midi.NoteOnEvent(tick=0, channel=0, data=[58, 49]),
   midi.NoteOnEvent(tick=0, channel=0, data=[64, 55]),
   midi.NoteOnEvent(tick=120, channel=0, data=[64, 0]),
   midi.NoteOnEvent(tick=0, channel=0, data=[58, 0]),
   midi.NoteOnEvent(tick=0, channel=0, data=[65, 50]),
   midi.NoteOnEvent(tick=0, channel=0, data=[60, 45]),
   midi.NoteOnEvent(tick=120, channel=0, data=[60, 0]),
   midi.NoteOnEvent(tick=0, channel=0, data=[65, 0]),
   midi.NoteOnEvent(tick=0, channel=0, data=[56, 47]),
   midi.NoteOnEvent(tick=0, channel=0, data=[61, 53]),
   midi.NoteOnEvent(tick=120, channel=0, data=[61, 0]),
   midi.NoteOnEvent(tick=0, channel=0, data=[56, 0]),
   midi.NoteOnEvent(tick=0, channel=0, data=[63, 50]),
   midi.NoteOnEvent(tick=0, channel=0, data=[58, 45]),
   midi.NoteOnEvent(tick=120, channel=0, data=[58, 0]),
   midi.NoteOnEvent(tick=0, channel=0, data=[63, 0]),
   midi.NoteOnEvent(tick=0, channel=0, data=[76, 56]),
   midi.NoteOnEvent(tick=0, channel=0, data=[84, 84]),
   midi.NoteOnEvent(tick=240, channel=0, data=[84, 0]),
   midi.NoteOnEvent(tick=0, channel=0, data=[76, 0]),
   midi.NoteOnEvent(tick=0, channel=0, data=[76, 56]),
   midi.NoteOnEvent(tick=0, channel=0, data=[83, 76]),
   midi.NoteOnEvent(tick=80, channel=0, data=[83, 0]),
   midi.NoteOnEvent(tick=0, channel=0, data=[84, 66]),
   midi.NoteOnEvent(tick=80, channel=0, data=[84, 0]),
   midi.NoteOnEvent(tick=0, channel=0, data=[83, 66]),
   midi.NoteOnEvent(tick=80, channel=0, data=[83, 0]),
   midi.NoteOnEvent(tick=0, channel=0, data=[76, 0]),
   midi.NoteOnEvent(tick=0, channel=0, data=[76, 42]),
   midi.NoteOnEvent(tick=0, channel=0, data=[81, 73]),
   midi.NoteOnEvent(tick=120, channel=0, data=[81, 0]),
   midi.NoteOnEvent(tick=0, channel=0, data=[83, 69]),
   midi.NoteOnEvent(tick=120, channel=0, data=[83, 0]),
   midi.NoteOnEvent(tick=0, channel=0, data=[76, 0]),
   midi.NoteOnEvent(tick=0, channel=0, data=[84, 75]),
   midi.NoteOnEvent(tick=0, channel=0, data=[77, 41]),
   midi.NoteOnEvent(tick=120, channel=0, data=[84, 0]),
   midi.NoteOnEvent(tick=0, channel=0, data=[81, 66]),
   midi.NoteOnEvent(tick=120, channel=0, data=[81, 0]),
   midi.NoteOnEvent(tick=0, channel=0, data=[77, 0]),
   midi.NoteOnEvent(tick=0, channel=0, data=[77, 51]),
   midi.NoteOnEvent(tick=0, channel=0, data=[83, 77]),
   midi.NoteOnEvent(tick=90, channel=0, data=[83, 0]),
   midi.NoteOnEvent(tick=0, channel=0, data=[77, 0]),
   midi.NoteOnEvent(tick=150, channel=0, data=[79, 73]),
   midi.NoteOnEvent(tick=0, channel=0, data=[77, 51]),
   midi.NoteOnEvent(tick=90, channel=0, data=[77, 0]),
   midi.NoteOnEvent(tick=0, channel=0, data=[79, 0]),
   midi.NoteOnEvent(tick=150, channel=0, data=[76, 56]),
   midi.NoteOnEvent(tick=0, channel=0, data=[84, 84]),
   midi.NoteOnEvent(tick=240, channel=0, data=[84, 0]),
   midi.NoteOnEvent(tick=0, channel=0, data=[76, 0]),
   midi.NoteOnEvent(tick=0, channel=0, data=[83, 76]),
   midi.NoteOnEvent(tick=0, channel=0, data=[76, 56]),
   midi.NoteOnEvent(tick=80, channel=0, data=[83, 0]),
   midi.NoteOnEvent(tick=0, channel=0, data=[84, 67]),
   midi.NoteOnEvent(tick=80, channel=0, data=[84, 0]),
   midi.NoteOnEvent(tick=0, channel=0, data=[83, 67]),
   midi.NoteOnEvent(tick=80, channel=0, data=[83, 0]),
   midi.NoteOnEvent(tick=0, channel=0, data=[76, 0]),
   midi.NoteOnEvent(tick=0, channel=0, data=[76, 39]),
   midi.NoteOnEvent(tick=0, channel=0, data=[81, 72]),
   midi.NoteOnEvent(tick=120, channel=0, data=[81, 0]),
   midi.NoteOnEvent(tick=0, channel=0, data=[83, 68]),
   midi.NoteOnEvent(tick=120, channel=0, data=[83, 0]),
   midi.NoteOnEvent(tick=0, channel=0, data=[76, 0]),
   midi.NoteOnEvent(tick=0, channel=0, data=[77, 41]),
   midi.NoteOnEvent(tick=0, channel=0, data=[84, 75]),
   midi.NoteOnEvent(tick=120, channel=0, data=[84, 0]),
   midi.NoteOnEvent(tick=0, channel=0, data=[81, 65]),
   midi.NoteOnEvent(tick=120, channel=0, data=[81, 0]),
   midi.NoteOnEvent(tick=0, channel=0, data=[77, 0]),
   midi.NoteOnEvent(tick=0, channel=0, data=[83, 77]),
   midi.NoteOnEvent(tick=0, channel=0, data=[77, 51]),
   midi.NoteOnEvent(tick=90, channel=0, data=[77, 0]),
   midi.NoteOnEvent(tick=0, channel=0, data=[83, 0]),
   midi.NoteOnEvent(tick=150, channel=0, data=[77, 51]),
   midi.NoteOnEvent(tick=0, channel=0, data=[79, 73]),
   midi.NoteOnEvent(tick=90, channel=0, data=[79, 0]),
   midi.NoteOnEvent(tick=0, channel=0, data=[77, 0]),
   midi.NoteOnEvent(tick=150, channel=0, data=[72, 48]),
   midi.NoteOnEvent(tick=0, channel=0, data=[76, 54]),
   midi.NoteOnEvent(tick=120, channel=0, data=[76, 0]),
   midi.NoteOnEvent(tick=0, channel=0, data=[72, 0]),
   midi.NoteOnEvent(tick=0, channel=0, data=[77, 51]),
   midi.NoteOnEvent(tick=0, channel=0, data=[74, 45]),
   midi.NoteOnEvent(tick=120, channel=0, data=[74, 0]),
   midi.NoteOnEvent(tick=0, channel=0, data=[77, 0]),
   midi.NoteOnEvent(tick=0, channel=0, data=[76, 49]),
   midi.NoteOnEvent(tick=0, channel=0, data=[79, 55]),
   midi.NoteOnEvent(tick=240, channel=0, data=[79, 0]),
   midi.NoteOnEvent(tick=0, channel=0, data=[76, 0]),
   midi.NoteOnEvent(tick=0, channel=0, data=[79, 51]),
   midi.NoteOnEvent(tick=0, channel=0, data=[76, 45]),
   midi.NoteOnEvent(tick=120, channel=0, data=[76, 0]),
   midi.NoteOnEvent(tick=0, channel=0, data=[79, 0]),
   midi.NoteOnEvent(tick=0, channel=0, data=[77, 51]),
   midi.NoteOnEvent(tick=0, channel=0, data=[74, 45]),
   midi.NoteOnEvent(tick=120, channel=0, data=[74, 0]),
   midi.NoteOnEvent(tick=0, channel=0, data=[77, 0]),
   midi.NoteOnEvent(tick=0, channel=0, data=[72, 43]),
   midi.NoteOnEvent(tick=0, channel=0, data=[76, 48]),
   midi.NoteOnEvent(tick=120, channel=0, data=[76, 0]),
   midi.NoteOnEvent(tick=0, channel=0, data=[72, 0]),
   midi.NoteOnEvent(tick=0, channel=0, data=[77, 48]),
   midi.NoteOnEvent(tick=0, channel=0, data=[74, 43]),
   midi.NoteOnEvent(tick=120, channel=0, data=[74, 0]),
   midi.NoteOnEvent(tick=0, channel=0, data=[77, 0]),
   midi.NoteOnEvent(tick=0, channel=0, data=[76, 44]),
   midi.NoteOnEvent(tick=0, channel=0, data=[79, 49]),
   midi.NoteOnEvent(tick=120, channel=0, data=[79, 0]),
   midi.NoteOnEvent(tick=0, channel=0, data=[76, 0]),
   midi.NoteOnEvent(tick=0, channel=0, data=[77, 45]),
   midi.NoteOnEvent(tick=0, channel=0, data=[80, 51]),
   midi.NoteOnEvent(tick=120, channel=0, data=[80, 0]),
   midi.NoteOnEvent(tick=0, channel=0, data=[77, 0]),
   midi.NoteOnEvent(tick=0, channel=0, data=[82, 52]),
   midi.NoteOnEvent(tick=0, channel=0, data=[79, 46]),
   midi.NoteOnEvent(tick=120, channel=0, data=[79, 0]),
   midi.NoteOnEvent(tick=0, channel=0, data=[82, 0]),
   midi.NoteOnEvent(tick=0, channel=0, data=[80, 48]),
   midi.NoteOnEvent(tick=0, channel=0, data=[84, 53]),
   midi.NoteOnEvent(tick=120, channel=0, data=[84, 0]),
   midi.NoteOnEvent(tick=0, channel=0, data=[80, 0]),
   midi.NoteOnEvent(tick=0, channel=0, data=[82, 52]),
   midi.NoteOnEvent(tick=0, channel=0, data=[79, 47]),
   midi.NoteOnEvent(tick=120, channel=0, data=[79, 0]),
   midi.NoteOnEvent(tick=0, channel=0, data=[82, 0]),
   midi.NoteOnEvent(tick=0, channel=0, data=[82, 49]),
   midi.NoteOnEvent(tick=0, channel=0, data=[85, 55]),
   midi.NoteOnEvent(tick=120, channel=0, data=[85, 0]),
   midi.NoteOnEvent(tick=0, channel=0, data=[82, 0]),
   midi.NoteOnEvent(tick=0, channel=0, data=[80, 49]),
   midi.NoteOnEvent(tick=0, channel=0, data=[84, 55]),
   midi.NoteOnEvent(tick=120, channel=0, data=[84, 0]),
   midi.NoteOnEvent(tick=0, channel=0, data=[80, 0]),
   midi.NoteOnEvent(tick=0, channel=0, data=[80, 51]),
   midi.NoteOnEvent(tick=0, channel=0, data=[77, 45]),
   midi.NoteOnEvent(tick=120, channel=0, data=[77, 0]),
   midi.NoteOnEvent(tick=0, channel=0, data=[80, 0]),
   midi.NoteOnEvent(tick=0, channel=0, data=[79, 48]),
   midi.NoteOnEvent(tick=0, channel=0, data=[82, 53]),
   midi.NoteOnEvent(tick=120, channel=0, data=[82, 0]),
   midi.NoteOnEvent(tick=0, channel=0, data=[79, 0]),
   midi.NoteOnEvent(tick=0, channel=0, data=[79, 51]),
   midi.NoteOnEvent(tick=0, channel=0, data=[76, 45]),
   midi.NoteOnEvent(tick=120, channel=0, data=[76, 0]),
   midi.NoteOnEvent(tick=0, channel=0, data=[79, 0]),
   midi.NoteOnEvent(tick=0, channel=0, data=[72, 45]),
   midi.NoteOnEvent(tick=0, channel=0, data=[77, 51]),
   midi.NoteOnEvent(tick=120, channel=0, data=[77, 0]),
   midi.NoteOnEvent(tick=0, channel=0, data=[72, 0]),
   midi.NoteOnEvent(tick=0, channel=0, data=[73, 40]),
   midi.NoteOnEvent(tick=0, channel=0, data=[79, 45]),
   midi.NoteOnEvent(tick=120, channel=0, data=[79, 0]),
   midi.NoteOnEvent(tick=0, channel=0, data=[73, 0]),
   midi.NoteOnEvent(tick=0, channel=0, data=[76, 49]),
   midi.NoteOnEvent(tick=0, channel=0, data=[70, 44]),
   midi.NoteOnEvent(tick=120, channel=0, data=[70, 0]),
   midi.NoteOnEvent(tick=0, channel=0, data=[76, 0]),
   midi.NoteOnEvent(tick=0, channel=0, data=[72, 40]),
   midi.NoteOnEvent(tick=0, channel=0, data=[77, 44]),
   midi.NoteOnEvent(tick=120, channel=0, data=[77, 0]),
   midi.NoteOnEvent(tick=0, channel=0, data=[72, 0]),
   midi.NoteOnEvent(tick=0, channel=0, data=[73, 47]),
   midi.NoteOnEvent(tick=0, channel=0, data=[68, 42]),
   midi.NoteOnEvent(tick=120, channel=0, data=[68, 0]),
   midi.NoteOnEvent(tick=0, channel=0, data=[73, 0]),
   midi.NoteOnEvent(tick=0, channel=0, data=[70, 40]),
   midi.NoteOnEvent(tick=0, channel=0, data=[75, 44]),
   midi.NoteOnEvent(tick=120, channel=0, data=[75, 0]),
   midi.NoteOnEvent(tick=0, channel=0, data=[70, 0]),
   midi.NoteOnEvent(tick=0, channel=0, data=[64, 45]),
   midi.NoteOnEvent(tick=0, channel=0, data=[72, 67]),
   midi.NoteOnEvent(tick=240, channel=0, data=[72, 0]),
   midi.NoteOnEvent(tick=0, channel=0, data=[64, 0]),
   midi.NoteOnEvent(tick=0, channel=0, data=[71, 60]),
   midi.NoteOnEvent(tick=0, channel=0, data=[64, 45]),
   midi.NoteOnEvent(tick=80, channel=0, data=[71, 0]),
   midi.NoteOnEvent(tick=0, channel=0, data=[72, 54]),
   midi.NoteOnEvent(tick=80, channel=0, data=[72, 0]),
   midi.NoteOnEvent(tick=0, channel=0, data=[71, 54]),
   midi.NoteOnEvent(tick=80, channel=0, data=[71, 0]),
   midi.NoteOnEvent(tick=0, channel=0, data=[64, 0]),
   midi.NoteOnEvent(tick=0, channel=0, data=[69, 60]),
   midi.NoteOnEvent(tick=0, channel=0, data=[64, 33]),
   midi.NoteOnEvent(tick=120, channel=0, data=[69, 0]),
   midi.NoteOnEvent(tick=0, channel=0, data=[71, 56]),
   midi.NoteOnEvent(tick=120, channel=0, data=[71, 0]),
   midi.NoteOnEvent(tick=0, channel=0, data=[64, 0]),
   midi.NoteOnEvent(tick=0, channel=0, data=[65, 33]),
   midi.NoteOnEvent(tick=0, channel=0, data=[72, 59]),
   midi.NoteOnEvent(tick=120, channel=0, data=[72, 0]),
   midi.NoteOnEvent(tick=0, channel=0, data=[69, 58]),
   midi.NoteOnEvent(tick=120, channel=0, data=[69, 0]),
   midi.NoteOnEvent(tick=0, channel=0, data=[65, 0]),
   midi.NoteOnEvent(tick=0, channel=0, data=[71, 61]),
   midi.NoteOnEvent(tick=0, channel=0, data=[65, 41]),
   midi.NoteOnEvent(tick=90, channel=0, data=[65, 0]),
   midi.NoteOnEvent(tick=0, channel=0, data=[71, 0]),
   midi.NoteOnEvent(tick=150, channel=0, data=[65, 41]),
   midi.NoteOnEvent(tick=0, channel=0, data=[67, 58]),
   midi.NoteOnEvent(tick=90, channel=0, data=[67, 0]),
   midi.NoteOnEvent(tick=0, channel=0, data=[65, 0]),
   midi.NoteOnEvent(tick=150, channel=0, data=[72, 67]),
   midi.NoteOnEvent(tick=0, channel=0, data=[64, 45]),
   midi.NoteOnEvent(tick=240, channel=0, data=[64, 0]),
   midi.NoteOnEvent(tick=0, channel=0, data=[72, 0]),
   midi.NoteOnEvent(tick=0, channel=0, data=[64, 45]),
   midi.NoteOnEvent(tick=0, channel=0, data=[71, 60]),
   midi.NoteOnEvent(tick=80, channel=0, data=[71, 0]),
   midi.NoteOnEvent(tick=0, channel=0, data=[72, 56]),
   midi.NoteOnEvent(tick=80, channel=0, data=[72, 0]),
   midi.NoteOnEvent(tick=0, channel=0, data=[71, 52]),
   midi.NoteOnEvent(tick=80, channel=0, data=[71, 0]),
   midi.NoteOnEvent(tick=0, channel=0, data=[64, 0]),
   midi.NoteOnEvent(tick=0, channel=0, data=[69, 60]),
   midi.NoteOnEvent(tick=0, channel=0, data=[64, 30]),
   midi.NoteOnEvent(tick=120, channel=0, data=[69, 0]),
   midi.NoteOnEvent(tick=0, channel=0, data=[71, 56]),
   midi.NoteOnEvent(tick=120, channel=0, data=[71, 0]),
   midi.NoteOnEvent(tick=0, channel=0, data=[64, 0]),
   midi.NoteOnEvent(tick=0, channel=0, data=[65, 32]),
   midi.NoteOnEvent(tick=0, channel=0, data=[72, 59]),
   midi.NoteOnEvent(tick=120, channel=0, data=[72, 0]),
   midi.NoteOnEvent(tick=0, channel=0, data=[69, 58]),
   midi.NoteOnEvent(tick=120, channel=0, data=[69, 0]),
   midi.NoteOnEvent(tick=0, channel=0, data=[65, 0]),
   midi.NoteOnEvent(tick=0, channel=0, data=[65, 41]),
   midi.NoteOnEvent(tick=0, channel=0, data=[71, 61]),
   midi.NoteOnEvent(tick=90, channel=0, data=[71, 0]),
   midi.NoteOnEvent(tick=0, channel=0, data=[65, 0]),
   midi.NoteOnEvent(tick=150, channel=0, data=[65, 41]),
   midi.NoteOnEvent(tick=0, channel=0, data=[67, 58]),
   midi.NoteOnEvent(tick=90, channel=0, data=[67, 0]),
   midi.NoteOnEvent(tick=0, channel=0, data=[65, 0]),
   midi.NoteOnEvent(tick=150, channel=0, data=[72, 67]),
   midi.NoteOnEvent(tick=0, channel=0, data=[67, 45]),
   midi.NoteOnEvent(tick=90, channel=0, data=[67, 0]),
   midi.NoteOnEvent(tick=0, channel=0, data=[72, 0]),
   midi.NoteOnEvent(tick=150, channel=0, data=[67, 43]),
   midi.NoteOnEvent(tick=0, channel=0, data=[70, 45]),
   midi.NoteOnEvent(tick=0, channel=0, data=[74, 60]),
   midi.NoteOnEvent(tick=80, channel=0, data=[74, 0]),
   midi.NoteOnEvent(tick=0, channel=0, data=[76, 53]),
   midi.NoteOnEvent(tick=80, channel=0, data=[76, 0]),
   midi.NoteOnEvent(tick=0, channel=0, data=[74, 53]),
   midi.NoteOnEvent(tick=80, channel=0, data=[74, 0]),
   midi.NoteOnEvent(tick=0, channel=0, data=[70, 0]),
   midi.NoteOnEvent(tick=0, channel=0, data=[67, 0]),
   midi.NoteOnEvent(tick=0, channel=0, data=[67, 57]),
   midi.NoteOnEvent(tick=0, channel=0, data=[72, 57]),
   midi.NoteOnEvent(tick=90, channel=0, data=[72, 0]),
   midi.NoteOnEvent(tick=0, channel=0, data=[67, 0]),
   midi.NoteOnEvent(tick=150, channel=0, data=[86, 66]),
   midi.NoteOnEvent(tick=0, channel=0, data=[82, 49]),
   midi.NoteOnEvent(tick=0, channel=0, data=[79, 47]),
   midi.NoteOnEvent(tick=80, channel=0, data=[86, 0]),
   midi.NoteOnEvent(tick=0, channel=0, data=[88, 58]),
   midi.NoteOnEvent(tick=80, channel=0, data=[88, 0]),
   midi.NoteOnEvent(tick=0, channel=0, data=[86, 58]),
   midi.NoteOnEvent(tick=80, channel=0, data=[86, 0]),
   midi.NoteOnEvent(tick=0, channel=0, data=[79, 0]),
   midi.NoteOnEvent(tick=0, channel=0, data=[82, 0]),
   midi.NoteOnEvent(tick=0, channel=0, data=[79, 62]),
   midi.NoteOnEvent(tick=0, channel=0, data=[84, 62]),
   midi.NoteOnEvent(tick=90, channel=0, data=[84, 0]),
   midi.NoteOnEvent(tick=0, channel=0, data=[79, 0]),
   midi.NoteOnEvent(tick=150, channel=0, data=[98, 66]),
   midi.NoteOnEvent(tick=0, channel=0, data=[91, 47]),
   midi.NoteOnEvent(tick=0, channel=0, data=[94, 49]),
   midi.NoteOnEvent(tick=80, channel=0, data=[98, 0]),
   midi.NoteOnEvent(tick=0, channel=0, data=[100, 58]),
   midi.NoteOnEvent(tick=80, channel=0, data=[100, 0]),
   midi.NoteOnEvent(tick=0, channel=0, data=[98, 58]),
   midi.NoteOnEvent(tick=80, channel=0, data=[98, 0]),
   midi.NoteOnEvent(tick=0, channel=0, data=[94, 0]),
   midi.NoteOnEvent(tick=0, channel=0, data=[91, 0]),
   midi.NoteOnEvent(tick=0, channel=0, data=[96, 65]),
   midi.NoteOnEvent(tick=0, channel=0, data=[91, 65]),
   midi.NoteOnEvent(tick=90, channel=0, data=[91, 0]),
   midi.NoteOnEvent(tick=0, channel=0, data=[96, 0]),
   midi.NoteOnEvent(tick=150, channel=0, data=[79, 53]),
   midi.NoteOnEvent(tick=0, channel=0, data=[82, 55]),
   midi.NoteOnEvent(tick=0, channel=0, data=[86, 75]),
   midi.NoteOnEvent(tick=80, channel=0, data=[86, 0]),
   midi.NoteOnEvent(tick=0, channel=0, data=[88, 66]),
   midi.NoteOnEvent(tick=80, channel=0, data=[88, 0]),
   midi.NoteOnEvent(tick=0, channel=0, data=[86, 66]),
   midi.NoteOnEvent(tick=80, channel=0, data=[86, 0]),
   midi.NoteOnEvent(tick=0, channel=0, data=[82, 0]),
   midi.NoteOnEvent(tick=0, channel=0, data=[79, 0]),
   midi.NoteOnEvent(tick=0, channel=0, data=[79, 71]),
   midi.NoteOnEvent(tick=0, channel=0, data=[84, 71]),
   midi.NoteOnEvent(tick=90, channel=0, data=[84, 0]),
   midi.NoteOnEvent(tick=0, channel=0, data=[79, 0]),
   midi.NoteOnEvent(tick=150, channel=0, data=[67, 60]),
   midi.NoteOnEvent(tick=0, channel=0, data=[74, 85]),
   midi.NoteOnEvent(tick=0, channel=0, data=[70, 62]),
   midi.NoteOnEvent(tick=80, channel=0, data=[74, 0]),
   midi.NoteOnEvent(tick=0, channel=0, data=[76, 73]),
   midi.NoteOnEvent(tick=80, channel=0, data=[76, 0]),
   midi.NoteOnEvent(tick=0, channel=0, data=[74, 69]),
   midi.NoteOnEvent(tick=80, channel=0, data=[74, 0]),
   midi.NoteOnEvent(tick=0, channel=0, data=[70, 0]),
   midi.NoteOnEvent(tick=0, channel=0, data=[67, 0]),
   midi.NoteOnEvent(tick=0, channel=0, data=[67, 81]),
   midi.NoteOnEvent(tick=0, channel=0, data=[72, 81]),
   midi.NoteOnEvent(tick=90, channel=0, data=[72, 0]),
   midi.NoteOnEvent(tick=0, channel=0, data=[67, 0]),
   midi.NoteOnEvent(tick=150, channel=0, data=[76, 88]),
   midi.NoteOnEvent(tick=0, channel=0, data=[82, 88]),
   midi.NoteOnEvent(tick=0, channel=0, data=[84, 88]),
   midi.NoteOnEvent(tick=0, channel=0, data=[72, 88]),
   midi.NoteOnEvent(tick=240, channel=0, data=[72, 0]),
   midi.NoteOnEvent(tick=0, channel=0, data=[76, 0]),
   midi.NoteOnEvent(tick=0, channel=0, data=[82, 0]),
   midi.NoteOnEvent(tick=0, channel=0, data=[84, 0]),
   midi.NoteOnEvent(tick=0, channel=0, data=[77, 87]),
   midi.NoteOnEvent(tick=0, channel=0, data=[69, 71]),
   midi.NoteOnEvent(tick=240, channel=0, data=[69, 0]),
   midi.NoteOnEvent(tick=0, channel=0, data=[77, 0]),
   midi.NoteOnEvent(tick=0, channel=0, data=[69, 71]),
   midi.NoteOnEvent(tick=0, channel=0, data=[76, 78]),
   midi.NoteOnEvent(tick=80, channel=0, data=[76, 0]),
   midi.NoteOnEvent(tick=0, channel=0, data=[77, 69]),
   midi.NoteOnEvent(tick=80, channel=0, data=[77, 0]),
   midi.NoteOnEvent(tick=0, channel=0, data=[76, 69]),
   midi.NoteOnEvent(tick=80, channel=0, data=[76, 0]),
   midi.NoteOnEvent(tick=0, channel=0, data=[69, 0]),
   midi.NoteOnEvent(tick=0, channel=0, data=[74, 74]),
   midi.NoteOnEvent(tick=0, channel=0, data=[69, 54]),
   midi.NoteOnEvent(tick=120, channel=0, data=[74, 0]),
   midi.NoteOnEvent(tick=0, channel=0, data=[76, 71]),
   midi.NoteOnEvent(tick=120, channel=0, data=[76, 0]),
   midi.NoteOnEvent(tick=0, channel=0, data=[69, 0]),
   midi.NoteOnEvent(tick=0, channel=0, data=[69, 55]),
   midi.NoteOnEvent(tick=0, channel=0, data=[77, 76]),
   midi.NoteOnEvent(tick=120, channel=0, data=[77, 0]),
   midi.NoteOnEvent(tick=0, channel=0, data=[74, 72]),
   midi.NoteOnEvent(tick=120, channel=0, data=[74, 0]),
   midi.NoteOnEvent(tick=0, channel=0, data=[69, 0]),
   midi.NoteOnEvent(tick=0, channel=0, data=[69, 67]),
   midi.NoteOnEvent(tick=0, channel=0, data=[76, 79]),
   midi.NoteOnEvent(tick=90, channel=0, data=[76, 0]),
   midi.NoteOnEvent(tick=0, channel=0, data=[69, 0]),
   midi.NoteOnEvent(tick=150, channel=0, data=[69, 60]),
   midi.NoteOnEvent(tick=0, channel=0, data=[72, 68]),
   midi.NoteOnEvent(tick=90, channel=0, data=[72, 0]),
   midi.NoteOnEvent(tick=0, channel=0, data=[69, 0]),
   midi.NoteOnEvent(tick=150, channel=0, data=[77, 83]),
   midi.NoteOnEvent(tick=0, channel=0, data=[69, 68]),
   midi.NoteOnEvent(tick=240, channel=0, data=[69, 0]),
   midi.NoteOnEvent(tick=0, channel=0, data=[77, 0]),
   midi.NoteOnEvent(tick=0, channel=0, data=[69, 68]),
   midi.NoteOnEvent(tick=0, channel=0, data=[76, 75]),
   midi.NoteOnEvent(tick=80, channel=0, data=[76, 0]),
   midi.NoteOnEvent(tick=0, channel=0, data=[77, 69]),
   midi.NoteOnEvent(tick=80, channel=0, data=[77, 0]),
   midi.NoteOnEvent(tick=0, channel=0, data=[76, 69]),
   midi.NoteOnEvent(tick=80, channel=0, data=[76, 0]),
   midi.NoteOnEvent(tick=0, channel=0, data=[69, 0]),
   midi.NoteOnEvent(tick=0, channel=0, data=[69, 54]),
   midi.NoteOnEvent(tick=0, channel=0, data=[74, 75]),
   midi.NoteOnEvent(tick=120, channel=0, data=[74, 0]),
   midi.NoteOnEvent(tick=0, channel=0, data=[76, 69]),
   midi.NoteOnEvent(tick=120, channel=0, data=[76, 0]),
   midi.NoteOnEvent(tick=0, channel=0, data=[69, 0]),
   midi.NoteOnEvent(tick=0, channel=0, data=[77, 77]),
   midi.NoteOnEvent(tick=0, channel=0, data=[69, 51]),
   midi.NoteOnEvent(tick=120, channel=0, data=[77, 0]),
   midi.NoteOnEvent(tick=0, channel=0, data=[74, 70]),
   midi.NoteOnEvent(tick=120, channel=0, data=[74, 0]),
   midi.NoteOnEvent(tick=0, channel=0, data=[69, 0]),
   midi.NoteOnEvent(tick=0, channel=0, data=[69, 64]),
   midi.NoteOnEvent(tick=0, channel=0, data=[76, 76]),
   midi.NoteOnEvent(tick=90, channel=0, data=[76, 0]),
   midi.NoteOnEvent(tick=0, channel=0, data=[69, 0]),
   midi.NoteOnEvent(tick=150, channel=0, data=[72, 64]),
   midi.NoteOnEvent(tick=0, channel=0, data=[69, 57]),
   midi.NoteOnEvent(tick=90, channel=0, data=[69, 0]),
   midi.NoteOnEvent(tick=0, channel=0, data=[72, 0]),
   midi.NoteOnEvent(tick=150, channel=0, data=[69, 53]),
   midi.NoteOnEvent(tick=0, channel=0, data=[74, 78]),
   midi.NoteOnEvent(tick=120, channel=0, data=[74, 0]),
   midi.NoteOnEvent(tick=0, channel=0, data=[76, 72]),
   midi.NoteOnEvent(tick=120, channel=0, data=[76, 0]),
   midi.NoteOnEvent(tick=0, channel=0, data=[69, 0]),
   midi.NoteOnEvent(tick=0, channel=0, data=[72, 76]),
   midi.NoteOnEvent(tick=0, channel=0, data=[69, 43]),
   midi.NoteOnEvent(tick=210, channel=0, data=[69, 0]),
   midi.NoteOnEvent(tick=0, channel=0, data=[72, 0]),
   midi.NoteOnEvent(tick=30, channel=0, data=[69, 51]),
   midi.NoteOnEvent(tick=0, channel=0, data=[74, 72]),
   midi.NoteOnEvent(tick=120, channel=0, data=[74, 0]),
   midi.NoteOnEvent(tick=0, channel=0, data=[76, 73]),
   midi.NoteOnEvent(tick=120, channel=0, data=[76, 0]),
   midi.NoteOnEvent(tick=0, channel=0, data=[69, 0]),
   midi.NoteOnEvent(tick=0, channel=0, data=[77, 77]),
   midi.NoteOnEvent(tick=0, channel=0, data=[69, 53]),
   midi.NoteOnEvent(tick=210, channel=0, data=[69, 0]),
   midi.NoteOnEvent(tick=0, channel=0, data=[77, 0]),
   midi.NoteOnEvent(tick=30, channel=0, data=[69, 53]),
   midi.NoteOnEvent(tick=0, channel=0, data=[74, 78]),
   midi.NoteOnEvent(tick=120, channel=0, data=[74, 0]),
   midi.NoteOnEvent(tick=0, channel=0, data=[76, 72]),
   midi.NoteOnEvent(tick=120, channel=0, data=[76, 0]),
   midi.NoteOnEvent(tick=0, channel=0, data=[69, 0]),
   midi.NoteOnEvent(tick=0, channel=0, data=[72, 73]),
   midi.NoteOnEvent(tick=0, channel=0, data=[69, 43]),
   midi.NoteOnEvent(tick=210, channel=0, data=[69, 0]),
   midi.NoteOnEvent(tick=0, channel=0, data=[72, 0]),
   midi.NoteOnEvent(tick=30, channel=0, data=[69, 45]),
   midi.NoteOnEvent(tick=0, channel=0, data=[74, 79]),
   midi.NoteOnEvent(tick=120, channel=0, data=[74, 0]),
   midi.NoteOnEvent(tick=0, channel=0, data=[76, 71]),
   midi.NoteOnEvent(tick=120, channel=0, data=[76, 0]),
   midi.NoteOnEvent(tick=0, channel=0, data=[69, 0]),
   midi.NoteOnEvent(tick=0, channel=0, data=[72, 72]),
   midi.NoteOnEvent(tick=0, channel=0, data=[69, 40]),
   midi.NoteOnEvent(tick=210, channel=0, data=[69, 0]),
   midi.NoteOnEvent(tick=0, channel=0, data=[72, 0]),
   midi.NoteOnEvent(tick=30, channel=0, data=[74, 71]),
   midi.NoteOnEvent(tick=0, channel=0, data=[69, 50]),
   midi.NoteOnEvent(tick=120, channel=0, data=[74, 0]),
   midi.NoteOnEvent(tick=0, channel=0, data=[76, 73]),
   midi.NoteOnEvent(tick=120, channel=0, data=[76, 0]),
   midi.NoteOnEvent(tick=0, channel=0, data=[69, 0]),
   midi.NoteOnEvent(tick=0, channel=0, data=[69, 53]),
   midi.NoteOnEvent(tick=0, channel=0, data=[79, 78]),
   midi.NoteOnEvent(tick=120, channel=0, data=[79, 0]),
   midi.NoteOnEvent(tick=0, channel=0, data=[77, 71]),
   midi.NoteOnEvent(tick=120, channel=0, data=[77, 0]),
   midi.NoteOnEvent(tick=0, channel=0, data=[74, 77]),
   midi.NoteOnEvent(tick=120, channel=0, data=[74, 0]),
   midi.NoteOnEvent(tick=0, channel=0, data=[76, 72]),
   midi.NoteOnEvent(tick=120, channel=0, data=[76, 0]),
   midi.NoteOnEvent(tick=0, channel=0, data=[69, 0]),
   midi.NoteOnEvent(tick=0, channel=0, data=[72, 68]),
   midi.NoteOnEvent(tick=240, channel=0, data=[72, 0]),
   midi.NoteOnEvent(tick=0, channel=0, data=[80, 83]),
   midi.NoteOnEvent(tick=0, channel=0, data=[72, 68]),
   midi.NoteOnEvent(tick=240, channel=0, data=[72, 0]),
   midi.NoteOnEvent(tick=0, channel=0, data=[80, 0]),
   midi.NoteOnEvent(tick=0, channel=0, data=[72, 68]),
   midi.NoteOnEvent(tick=0, channel=0, data=[79, 75]),
   midi.NoteOnEvent(tick=80, channel=0, data=[79, 0]),
   midi.NoteOnEvent(tick=0, channel=0, data=[80, 67]),
   midi.NoteOnEvent(tick=80, channel=0, data=[80, 0]),
   midi.NoteOnEvent(tick=0, channel=0, data=[79, 67]),
   midi.NoteOnEvent(tick=80, channel=0, data=[79, 0]),
   midi.NoteOnEvent(tick=0, channel=0, data=[72, 0]),
   midi.NoteOnEvent(tick=0, channel=0, data=[77, 75]),
   midi.NoteOnEvent(tick=0, channel=0, data=[72, 57]),
   midi.NoteOnEvent(tick=120, channel=0, data=[77, 0]),
   midi.NoteOnEvent(tick=0, channel=0, data=[79, 69]),
   midi.NoteOnEvent(tick=120, channel=0, data=[79, 0]),
   midi.NoteOnEvent(tick=0, channel=0, data=[72, 0]),
   midi.NoteOnEvent(tick=0, channel=0, data=[72, 54]),
   midi.NoteOnEvent(tick=0, channel=0, data=[80, 79]),
   midi.NoteOnEvent(tick=120, channel=0, data=[80, 0]),
   midi.NoteOnEvent(tick=0, channel=0, data=[77, 72]),
   midi.NoteOnEvent(tick=120, channel=0, data=[77, 0]),
   midi.NoteOnEvent(tick=0, channel=0, data=[72, 0]),
   midi.NoteOnEvent(tick=0, channel=0, data=[73, 64]),
   midi.NoteOnEvent(tick=0, channel=0, data=[79, 76]),
   midi.NoteOnEvent(tick=90, channel=0, data=[79, 0]),
   midi.NoteOnEvent(tick=0, channel=0, data=[73, 0]),
   midi.NoteOnEvent(tick=150, channel=0, data=[73, 64]),
   midi.NoteOnEvent(tick=0, channel=0, data=[75, 72]),
   midi.NoteOnEvent(tick=90, channel=0, data=[75, 0]),
   midi.NoteOnEvent(tick=0, channel=0, data=[73, 0]),
   midi.NoteOnEvent(tick=150, channel=0, data=[80, 83]),
   midi.NoteOnEvent(tick=0, channel=0, data=[72, 68]),
   midi.NoteOnEvent(tick=240, channel=0, data=[72, 0]),
   midi.NoteOnEvent(tick=0, channel=0, data=[80, 0]),
   midi.NoteOnEvent(tick=0, channel=0, data=[72, 68]),
   midi.NoteOnEvent(tick=0, channel=0, data=[79, 75]),
   midi.NoteOnEvent(tick=80, channel=0, data=[79, 0]),
   midi.NoteOnEvent(tick=0, channel=0, data=[80, 67]),
   midi.NoteOnEvent(tick=80, channel=0, data=[80, 0]),
   midi.NoteOnEvent(tick=0, channel=0, data=[79, 69]),
   midi.NoteOnEvent(tick=80, channel=0, data=[79, 0]),
   midi.NoteOnEvent(tick=0, channel=0, data=[72, 0]),
   midi.NoteOnEvent(tick=0, channel=0, data=[72, 58]),
   midi.NoteOnEvent(tick=0, channel=0, data=[77, 75]),
   midi.NoteOnEvent(tick=120, channel=0, data=[77, 0]),
   midi.NoteOnEvent(tick=0, channel=0, data=[79, 69]),
   midi.NoteOnEvent(tick=120, channel=0, data=[79, 0]),
   midi.NoteOnEvent(tick=0, channel=0, data=[72, 0]),
   midi.NoteOnEvent(tick=0, channel=0, data=[80, 79]),
   midi.NoteOnEvent(tick=0, channel=0, data=[72, 53]),
   midi.NoteOnEvent(tick=120, channel=0, data=[80, 0]),
   midi.NoteOnEvent(tick=0, channel=0, data=[77, 72]),
   midi.NoteOnEvent(tick=120, channel=0, data=[77, 0]),
   midi.NoteOnEvent(tick=0, channel=0, data=[72, 0]),
   midi.NoteOnEvent(tick=0, channel=0, data=[73, 64]),
   midi.NoteOnEvent(tick=0, channel=0, data=[79, 76]),
   midi.NoteOnEvent(tick=90, channel=0, data=[79, 0]),
   midi.NoteOnEvent(tick=0, channel=0, data=[73, 0]),
   midi.NoteOnEvent(tick=150, channel=0, data=[75, 72]),
   midi.NoteOnEvent(tick=0, channel=0, data=[73, 64]),
   midi.NoteOnEvent(tick=90, channel=0, data=[73, 0]),
   midi.NoteOnEvent(tick=0, channel=0, data=[75, 0]),
   midi.NoteOnEvent(tick=150, channel=0, data=[72, 53]),
   midi.NoteOnEvent(tick=0, channel=0, data=[77, 78]),
   midi.NoteOnEvent(tick=120, channel=0, data=[77, 0]),
   midi.NoteOnEvent(tick=0, channel=0, data=[79, 72]),
   midi.NoteOnEvent(tick=120, channel=0, data=[79, 0]),
   midi.NoteOnEvent(tick=0, channel=0, data=[72, 0]),
   midi.NoteOnEvent(tick=0, channel=0, data=[75, 76]),
   midi.NoteOnEvent(tick=0, channel=0, data=[72, 43]),
   midi.NoteOnEvent(tick=210, channel=0, data=[72, 0]),
   midi.NoteOnEvent(tick=0, channel=0, data=[75, 0]),
   midi.NoteOnEvent(tick=30, channel=0, data=[72, 51]),
   midi.NoteOnEvent(tick=0, channel=0, data=[77, 72]),
   midi.NoteOnEvent(tick=120, channel=0, data=[77, 0]),
   midi.NoteOnEvent(tick=0, channel=0, data=[79, 73]),
   midi.NoteOnEvent(tick=120, channel=0, data=[79, 0]),
   midi.NoteOnEvent(tick=0, channel=0, data=[72, 0]),
   midi.NoteOnEvent(tick=0, channel=0, data=[80, 77]),
   midi.NoteOnEvent(tick=0, channel=0, data=[72, 53]),
   midi.NoteOnEvent(tick=210, channel=0, data=[72, 0]),
   midi.NoteOnEvent(tick=0, channel=0, data=[80, 0]),
   midi.NoteOnEvent(tick=30, channel=0, data=[72, 53]),
   midi.NoteOnEvent(tick=0, channel=0, data=[77, 78]),
   midi.NoteOnEvent(tick=120, channel=0, data=[77, 0]),
   midi.NoteOnEvent(tick=0, channel=0, data=[79, 72]),
   midi.NoteOnEvent(tick=120, channel=0, data=[79, 0]),
   midi.NoteOnEvent(tick=0, channel=0, data=[72, 0]),
   midi.NoteOnEvent(tick=0, channel=0, data=[75, 72]),
   midi.NoteOnEvent(tick=0, channel=0, data=[72, 40]),
   midi.NoteOnEvent(tick=210, channel=0, data=[72, 0]),
   midi.NoteOnEvent(tick=0, channel=0, data=[75, 0]),
   midi.NoteOnEvent(tick=30, channel=0, data=[72, 45]),
   midi.NoteOnEvent(tick=0, channel=0, data=[77, 79]),
   midi.NoteOnEvent(tick=120, channel=0, data=[77, 0]),
   midi.NoteOnEvent(tick=0, channel=0, data=[79, 71]),
   midi.NoteOnEvent(tick=120, channel=0, data=[79, 0]),
   midi.NoteOnEvent(tick=0, channel=0, data=[72, 0]),
   midi.NoteOnEvent(tick=0, channel=0, data=[75, 71]),
   midi.NoteOnEvent(tick=0, channel=0, data=[72, 37]),
   midi.NoteOnEvent(tick=210, channel=0, data=[72, 0]),
   midi.NoteOnEvent(tick=0, channel=0, data=[75, 0]),
   midi.NoteOnEvent(tick=30, channel=0, data=[72, 50]),
   midi.NoteOnEvent(tick=0, channel=0, data=[77, 71]),
   midi.NoteOnEvent(tick=120, channel=0, data=[77, 0]),
   midi.NoteOnEvent(tick=0, channel=0, data=[79, 73]),
   midi.NoteOnEvent(tick=120, channel=0, data=[79, 0]),
   midi.NoteOnEvent(tick=0, channel=0, data=[72, 0]),
   midi.NoteOnEvent(tick=0, channel=0, data=[82, 78]),
   midi.NoteOnEvent(tick=0, channel=0, data=[72, 53]),
   midi.NoteOnEvent(tick=120, channel=0, data=[82, 0]),
   midi.NoteOnEvent(tick=0, channel=0, data=[80, 71]),
   midi.NoteOnEvent(tick=120, channel=0, data=[80, 0]),
   midi.NoteOnEvent(tick=0, channel=0, data=[72, 0]),
   midi.NoteOnEvent(tick=0, channel=0, data=[72, 49]),
   midi.NoteOnEvent(tick=0, channel=0, data=[77, 77]),
   midi.NoteOnEvent(tick=120, channel=0, data=[77, 0]),
   midi.NoteOnEvent(tick=0, channel=0, data=[79, 72]),
   midi.NoteOnEvent(tick=120, channel=0, data=[79, 0]),
   midi.NoteOnEvent(tick=0, channel=0, data=[72, 0]),
   midi.NoteOnEvent(tick=0, channel=0, data=[75, 68]),
   midi.NoteOnEvent(tick=0, channel=0, data=[72, 44]),
   midi.NoteOnEvent(tick=240, channel=0, data=[72, 0]),
   midi.NoteOnEvent(tick=0, channel=0, data=[75, 0]),
   midi.NoteOnEvent(tick=240, channel=0, data=[58, 53]),
   midi.NoteOnEvent(tick=0, channel=0, data=[61, 60]),
   midi.NoteOnEvent(tick=0, channel=0, data=[65, 68]),
   midi.NoteOnEvent(tick=120, channel=0, data=[65, 0]),
   midi.NoteOnEvent(tick=0, channel=0, data=[61, 0]),
   midi.NoteOnEvent(tick=0, channel=0, data=[58, 0]),
   midi.NoteOnEvent(tick=0, channel=0, data=[53, 58]),
   midi.NoteOnEvent(tick=120, channel=0, data=[53, 0]),
   midi.NoteOnEvent(tick=240, channel=0, data=[70, 60]),
   midi.NoteOnEvent(tick=0, channel=0, data=[73, 60]),
   midi.NoteOnEvent(tick=0, channel=0, data=[77, 68]),
   midi.NoteOnEvent(tick=120, channel=0, data=[77, 0]),
   midi.NoteOnEvent(tick=0, channel=0, data=[73, 0]),
   midi.NoteOnEvent(tick=0, channel=0, data=[70, 0]),
   midi.NoteOnEvent(tick=0, channel=0, data=[65, 57]),
   midi.NoteOnEvent(tick=120, channel=0, data=[65, 0]),
   midi.NoteOnEvent(tick=240, channel=0, data=[79, 60]),
   midi.NoteOnEvent(tick=0, channel=0, data=[82, 60]),
   midi.NoteOnEvent(tick=0, channel=0, data=[85, 68]),
   midi.NoteOnEvent(tick=120, channel=0, data=[85, 0]),
   midi.NoteOnEvent(tick=0, channel=0, data=[82, 0]),
   midi.NoteOnEvent(tick=0, channel=0, data=[79, 0]),
   midi.NoteOnEvent(tick=0, channel=0, data=[77, 61]),
   midi.NoteOnEvent(tick=120, channel=0, data=[77, 0]),
   midi.NoteOnEvent(tick=240, channel=0, data=[82, 75]),
   midi.NoteOnEvent(tick=0, channel=0, data=[77, 67]),
   midi.NoteOnEvent(tick=60, channel=0, data=[77, 0]),
   midi.NoteOnEvent(tick=0, channel=0, data=[82, 0]),
   midi.NoteOnEvent(tick=60, channel=0, data=[77, 67]),
   midi.NoteOnEvent(tick=0, channel=0, data=[82, 75]),
   midi.NoteOnEvent(tick=60, channel=0, data=[82, 0]),
   midi.NoteOnEvent(tick=0, channel=0, data=[77, 0]),
   midi.NoteOnEvent(tick=60, channel=0, data=[89, 80]),
   midi.NoteOnEvent(tick=0, channel=0, data=[82, 72]),
   midi.NoteOnEvent(tick=120, channel=0, data=[82, 0]),
   midi.NoteOnEvent(tick=0, channel=0, data=[89, 0]),
   midi.NoteOnEvent(tick=120, channel=0, data=[77, 69]),
   midi.NoteOnEvent(tick=0, channel=0, data=[82, 77]),
   midi.NoteOnEvent(tick=120, channel=0, data=[82, 0]),
   midi.NoteOnEvent(tick=0, channel=0, data=[77, 0]),
   midi.NoteOnEvent(tick=120, channel=0, data=[89, 81]),
   midi.NoteOnEvent(tick=0, channel=0, data=[82, 72]),
   midi.NoteOnEvent(tick=120, channel=0, data=[82, 0]),
   midi.NoteOnEvent(tick=0, channel=0, data=[89, 0]),
   midi.NoteOnEvent(tick=120, channel=0, data=[82, 78]),
   midi.NoteOnEvent(tick=0, channel=0, data=[77, 70]),
   midi.NoteOnEvent(tick=120, channel=0, data=[77, 0]),
   midi.NoteOnEvent(tick=0, channel=0, data=[82, 0]),
   midi.NoteOnEvent(tick=360, channel=0, data=[61, 60]),
   midi.NoteOnEvent(tick=0, channel=0, data=[58, 60]),
   midi.NoteOnEvent(tick=0, channel=0, data=[65, 68]),
   midi.NoteOnEvent(tick=120, channel=0, data=[65, 0]),
   midi.NoteOnEvent(tick=0, channel=0, data=[58, 0]),
   midi.NoteOnEvent(tick=0, channel=0, data=[61, 0]),
   midi.NoteOnEvent(tick=0, channel=0, data=[53, 56]),
   midi.NoteOnEvent(tick=120, channel=0, data=[53, 0]),
   midi.NoteOnEvent(tick=240, channel=0, data=[77, 68]),
   midi.NoteOnEvent(tick=0, channel=0, data=[70, 60]),
   midi.NoteOnEvent(tick=0, channel=0, data=[73, 60]),
   midi.NoteOnEvent(tick=120, channel=0, data=[73, 0]),
   midi.NoteOnEvent(tick=0, channel=0, data=[70, 0]),
   midi.NoteOnEvent(tick=0, channel=0, data=[77, 0]),
   midi.NoteOnEvent(tick=0, channel=0, data=[65, 57]),
   midi.NoteOnEvent(tick=120, channel=0, data=[65, 0]),
   midi.NoteOnEvent(tick=240, channel=0, data=[85, 68]),
   midi.NoteOnEvent(tick=0, channel=0, data=[79, 60]),
   midi.NoteOnEvent(tick=0, channel=0, data=[82, 60]),
   midi.NoteOnEvent(tick=120, channel=0, data=[82, 0]),
   midi.NoteOnEvent(tick=0, channel=0, data=[79, 0]),
   midi.NoteOnEvent(tick=0, channel=0, data=[85, 0]),
   midi.NoteOnEvent(tick=0, channel=0, data=[77, 57]),
   midi.NoteOnEvent(tick=120, channel=0, data=[77, 0]),
   midi.NoteOnEvent(tick=240, channel=0, data=[82, 75]),
   midi.NoteOnEvent(tick=0, channel=0, data=[77, 67]),
   midi.NoteOnEvent(tick=60, channel=0, data=[77, 0]),
   midi.NoteOnEvent(tick=0, channel=0, data=[82, 0]),
   midi.NoteOnEvent(tick=60, channel=0, data=[77, 67]),
   midi.NoteOnEvent(tick=0, channel=0, data=[82, 75]),
   midi.NoteOnEvent(tick=60, channel=0, data=[82, 0]),
   midi.NoteOnEvent(tick=0, channel=0, data=[77, 0]),
   midi.NoteOnEvent(tick=60, channel=0, data=[89, 80]),
   midi.NoteOnEvent(tick=0, channel=0, data=[82, 72]),
   midi.NoteOnEvent(tick=120, channel=0, data=[82, 0]),
   midi.NoteOnEvent(tick=0, channel=0, data=[89, 0]),
   midi.NoteOnEvent(tick=120, channel=0, data=[82, 77]),
   midi.NoteOnEvent(tick=0, channel=0, data=[77, 69]),
   midi.NoteOnEvent(tick=120, channel=0, data=[77, 0]),
   midi.NoteOnEvent(tick=0, channel=0, data=[82, 0]),
   midi.NoteOnEvent(tick=120, channel=0, data=[82, 72]),
   midi.NoteOnEvent(tick=0, channel=0, data=[89, 81]),
   midi.NoteOnEvent(tick=120, channel=0, data=[89, 0]),
   midi.NoteOnEvent(tick=0, channel=0, data=[82, 0]),
   midi.NoteOnEvent(tick=120, channel=0, data=[82, 78]),
   midi.NoteOnEvent(tick=0, channel=0, data=[77, 70]),
   midi.NoteOnEvent(tick=120, channel=0, data=[77, 0]),
   midi.NoteOnEvent(tick=0, channel=0, data=[82, 0]),
   midi.NoteOnEvent(tick=120, channel=0, data=[88, 75]),
   midi.NoteOnEvent(tick=0, channel=0, data=[84, 63]),
   midi.NoteOnEvent(tick=240, channel=0, data=[88, 0]),
   midi.NoteOnEvent(tick=0, channel=0, data=[86, 70]),
   midi.NoteOnEvent(tick=80, channel=0, data=[86, 0]),
   midi.NoteOnEvent(tick=0, channel=0, data=[88, 65]),
   midi.NoteOnEvent(tick=80, channel=0, data=[88, 0]),
   midi.NoteOnEvent(tick=0, channel=0, data=[86, 65]),
   midi.NoteOnEvent(tick=80, channel=0, data=[86, 0]),
   midi.NoteOnEvent(tick=0, channel=0, data=[84, 0]),
   midi.NoteOnEvent(tick=0, channel=0, data=[84, 70]),
   midi.NoteOnEvent(tick=120, channel=0, data=[86, 65]),
   midi.NoteOnEvent(tick=120, channel=0, data=[86, 0]),
   midi.NoteOnEvent(tick=0, channel=0, data=[88, 74]),
   midi.NoteOnEvent(tick=120, channel=0, data=[88, 0]),
   midi.NoteOnEvent(tick=0, channel=0, data=[84, 64]),
   midi.NoteOnEvent(tick=120, channel=0, data=[84, 0]),
   midi.NoteOnEvent(tick=0, channel=0, data=[84, 0]),
   midi.NoteOnEvent(tick=0, channel=0, data=[80, 48]),
   midi.NoteOnEvent(tick=0, channel=0, data=[85, 68]),
   midi.NoteOnEvent(tick=90, channel=0, data=[85, 0]),
   midi.NoteOnEvent(tick=30, channel=0, data=[84, 62]),
   midi.NoteOnEvent(tick=90, channel=0, data=[84, 0]),
   midi.NoteOnEvent(tick=30, channel=0, data=[80, 0]),
   midi.NoteOnEvent(tick=0, channel=0, data=[80, 52]),
   midi.NoteOnEvent(tick=0, channel=0, data=[85, 67]),
   midi.NoteOnEvent(tick=90, channel=0, data=[85, 0]),
   midi.NoteOnEvent(tick=30, channel=0, data=[89, 62]),
   midi.NoteOnEvent(tick=90, channel=0, data=[89, 0]),
   midi.NoteOnEvent(tick=30, channel=0, data=[80, 0]),
   midi.NoteOnEvent(tick=0, channel=0, data=[88, 75]),
   midi.NoteOnEvent(tick=0, channel=0, data=[84, 63]),
   midi.NoteOnEvent(tick=240, channel=0, data=[88, 0]),
   midi.NoteOnEvent(tick=0, channel=0, data=[86, 70]),
   midi.NoteOnEvent(tick=80, channel=0, data=[86, 0]),
   midi.NoteOnEvent(tick=0, channel=0, data=[88, 65]),
   midi.NoteOnEvent(tick=80, channel=0, data=[88, 0]),
   midi.NoteOnEvent(tick=0, channel=0, data=[86, 65]),
   midi.NoteOnEvent(tick=80, channel=0, data=[86, 0]),
   midi.NoteOnEvent(tick=0, channel=0, data=[84, 0]),
   midi.NoteOnEvent(tick=0, channel=0, data=[84, 70]),
   midi.NoteOnEvent(tick=120, channel=0, data=[86, 65]),
   midi.NoteOnEvent(tick=120, channel=0, data=[86, 0]),
   midi.NoteOnEvent(tick=0, channel=0, data=[88, 74]),
   midi.NoteOnEvent(tick=120, channel=0, data=[88, 0]),
   midi.NoteOnEvent(tick=0, channel=0, data=[84, 64]),
   midi.NoteOnEvent(tick=120, channel=0, data=[84, 0]),
   midi.NoteOnEvent(tick=0, channel=0, data=[84, 0]),
   midi.NoteOnEvent(tick=0, channel=0, data=[80, 51]),
   midi.NoteOnEvent(tick=0, channel=0, data=[85, 68]),
   midi.NoteOnEvent(tick=90, channel=0, data=[85, 0]),
   midi.NoteOnEvent(tick=30, channel=0, data=[84, 62]),
   midi.NoteOnEvent(tick=90, channel=0, data=[84, 0]),
   midi.NoteOnEvent(tick=30, channel=0, data=[80, 0]),
   midi.NoteOnEvent(tick=0, channel=0, data=[80, 49]),
   midi.NoteOnEvent(tick=0, channel=0, data=[85, 67]),
   midi.NoteOnEvent(tick=90, channel=0, data=[85, 0]),
   midi.NoteOnEvent(tick=30, channel=0, data=[89, 62]),
   midi.NoteOnEvent(tick=90, channel=0, data=[89, 0]),
   midi.NoteOnEvent(tick=30, channel=0, data=[80, 0]),
   midi.NoteOnEvent(tick=0, channel=0, data=[76, 75]),
   midi.NoteOnEvent(tick=0, channel=0, data=[72, 63]),
   midi.NoteOnEvent(tick=240, channel=0, data=[76, 0]),
   midi.NoteOnEvent(tick=0, channel=0, data=[74, 70]),
   midi.NoteOnEvent(tick=80, channel=0, data=[74, 0]),
   midi.NoteOnEvent(tick=0, channel=0, data=[76, 65]),
   midi.NoteOnEvent(tick=80, channel=0, data=[76, 0]),
   midi.NoteOnEvent(tick=0, channel=0, data=[74, 65]),
   midi.NoteOnEvent(tick=80, channel=0, data=[74, 0]),
   midi.NoteOnEvent(tick=0, channel=0, data=[72, 0]),
   midi.NoteOnEvent(tick=0, channel=0, data=[72, 70]),
   midi.NoteOnEvent(tick=60, channel=0, data=[72, 0]),
   midi.NoteOnEvent(tick=60, channel=0, data=[74, 65]),
   midi.NoteOnEvent(tick=60, channel=0, data=[74, 0]),
   midi.NoteOnEvent(tick=60, channel=0, data=[76, 66]),
   midi.NoteOnEvent(tick=60, channel=0, data=[76, 0]),
   midi.NoteOnEvent(tick=60, channel=0, data=[77, 67]),
   midi.NoteOnEvent(tick=60, channel=0, data=[77, 0]),
   midi.NoteOnEvent(tick=60, channel=0, data=[79, 69]),
   midi.NoteOnEvent(tick=60, channel=0, data=[79, 0]),
   midi.NoteOnEvent(tick=60, channel=0, data=[80, 71]),
   midi.NoteOnEvent(tick=60, channel=0, data=[80, 0]),
   midi.NoteOnEvent(tick=60, channel=0, data=[82, 73]),
   midi.NoteOnEvent(tick=60, channel=0, data=[82, 0]),
   midi.NoteOnEvent(tick=60, channel=0, data=[84, 74]),
   midi.NoteOnEvent(tick=60, channel=0, data=[84, 0]),
   midi.NoteOnEvent(tick=60, channel=0, data=[82, 72]),
   midi.NoteOnEvent(tick=80, channel=0, data=[82, 0]),
   midi.NoteOnEvent(tick=0, channel=0, data=[84, 68]),
   midi.NoteOnEvent(tick=80, channel=0, data=[84, 0]),
   midi.NoteOnEvent(tick=0, channel=0, data=[82, 68]),
   midi.NoteOnEvent(tick=80, channel=0, data=[82, 0]),
   midi.NoteOnEvent(tick=0, channel=0, data=[80, 70]),
   midi.NoteOnEvent(tick=80, channel=0, data=[80, 0]),
   midi.NoteOnEvent(tick=0, channel=0, data=[82, 65]),
   midi.NoteOnEvent(tick=80, channel=0, data=[82, 0]),
   midi.NoteOnEvent(tick=0, channel=0, data=[80, 69]),
   midi.NoteOnEvent(tick=80, channel=0, data=[80, 0]),
   midi.NoteOnEvent(tick=0, channel=0, data=[79, 68]),
   midi.NoteOnEvent(tick=80, channel=0, data=[79, 0]),
   midi.NoteOnEvent(tick=0, channel=0, data=[80, 65]),
   midi.NoteOnEvent(tick=80, channel=0, data=[80, 0]),
   midi.NoteOnEvent(tick=0, channel=0, data=[79, 64]),
   midi.NoteOnEvent(tick=80, channel=0, data=[79, 0]),
   midi.NoteOnEvent(tick=0, channel=0, data=[77, 66]),
   midi.NoteOnEvent(tick=80, channel=0, data=[77, 0]),
   midi.NoteOnEvent(tick=0, channel=0, data=[79, 61]),
   midi.NoteOnEvent(tick=80, channel=0, data=[79, 0]),
   midi.NoteOnEvent(tick=0, channel=0, data=[77, 61]),
   midi.NoteOnEvent(tick=80, channel=0, data=[77, 0]),
   midi.NoteOnEvent(tick=0, channel=0, data=[75, 64]),
   midi.NoteOnEvent(tick=80, channel=0, data=[75, 0]),
   midi.NoteOnEvent(tick=0, channel=0, data=[77, 60]),
   midi.NoteOnEvent(tick=80, channel=0, data=[77, 0]),
   midi.NoteOnEvent(tick=0, channel=0, data=[75, 60]),
   midi.NoteOnEvent(tick=80, channel=0, data=[75, 0]),
   midi.NoteOnEvent(tick=0, channel=0, data=[73, 62]),
   midi.NoteOnEvent(tick=80, channel=0, data=[73, 0]),
   midi.NoteOnEvent(tick=0, channel=0, data=[75, 57]),
   midi.NoteOnEvent(tick=80, channel=0, data=[75, 0]),
   midi.NoteOnEvent(tick=0, channel=0, data=[73, 57]),
   midi.NoteOnEvent(tick=80, channel=0, data=[73, 0]),
   midi.NoteOnEvent(tick=240, channel=0, data=[77, 57]),
   midi.NoteOnEvent(tick=0, channel=0, data=[70, 51]),
   midi.NoteOnEvent(tick=0, channel=0, data=[73, 51]),
   midi.NoteOnEvent(tick=120, channel=0, data=[73, 0]),
   midi.NoteOnEvent(tick=0, channel=0, data=[70, 0]),
   midi.NoteOnEvent(tick=0, channel=0, data=[77, 0]),
   midi.NoteOnEvent(tick=0, channel=0, data=[67, 53]),
   midi.NoteOnEvent(tick=120, channel=0, data=[67, 0]),
   midi.NoteOnEvent(tick=240, channel=0, data=[82, 51]),
   midi.NoteOnEvent(tick=0, channel=0, data=[89, 57]),
   midi.NoteOnEvent(tick=0, channel=0, data=[85, 51]),
   midi.NoteOnEvent(tick=120, channel=0, data=[85, 0]),
   midi.NoteOnEvent(tick=0, channel=0, data=[89, 0]),
   midi.NoteOnEvent(tick=0, channel=0, data=[82, 0]),
   midi.NoteOnEvent(tick=0, channel=0, data=[79, 52]),
   midi.NoteOnEvent(tick=120, channel=0, data=[79, 0]),
   midi.NoteOnEvent(tick=240, channel=0, data=[77, 57]),
   midi.NoteOnEvent(tick=0, channel=0, data=[73, 51]),
   midi.NoteOnEvent(tick=0, channel=0, data=[70, 51]),
   midi.NoteOnEvent(tick=120, channel=0, data=[70, 0]),
   midi.NoteOnEvent(tick=0, channel=0, data=[73, 0]),
   midi.NoteOnEvent(tick=0, channel=0, data=[77, 0]),
   midi.NoteOnEvent(tick=0, channel=0, data=[67, 53]),
   midi.NoteOnEvent(tick=120, channel=0, data=[67, 0]),
   midi.NoteOnEvent(tick=240, channel=0, data=[82, 69]),
   midi.NoteOnEvent(tick=0, channel=0, data=[77, 61]),
   midi.NoteOnEvent(tick=60, channel=0, data=[77, 0]),
   midi.NoteOnEvent(tick=0, channel=0, data=[82, 0]),
   midi.NoteOnEvent(tick=60, channel=0, data=[82, 69]),
   midi.NoteOnEvent(tick=0, channel=0, data=[77, 61]),
   midi.NoteOnEvent(tick=60, channel=0, data=[77, 0]),
   midi.NoteOnEvent(tick=0, channel=0, data=[82, 0]),
   midi.NoteOnEvent(tick=60, channel=0, data=[82, 66]),
   midi.NoteOnEvent(tick=0, channel=0, data=[89, 73]),
   midi.NoteOnEvent(tick=120, channel=0, data=[89, 0]),
   midi.NoteOnEvent(tick=0, channel=0, data=[82, 0]),
   midi.NoteOnEvent(tick=120, channel=0, data=[82, 70]),
   midi.NoteOnEvent(tick=0, channel=0, data=[77, 63]),
   midi.NoteOnEvent(tick=120, channel=0, data=[77, 0]),
   midi.NoteOnEvent(tick=0, channel=0, data=[82, 0]),
   midi.NoteOnEvent(tick=120, channel=0, data=[82, 66]),
   midi.NoteOnEvent(tick=0, channel=0, data=[89, 74]),
   midi.NoteOnEvent(tick=120, channel=0, data=[89, 0]),
   midi.NoteOnEvent(tick=0, channel=0, data=[82, 0]),
   midi.NoteOnEvent(tick=120, channel=0, data=[82, 71]),
   midi.NoteOnEvent(tick=0, channel=0, data=[77, 64]),
   midi.NoteOnEvent(tick=120, channel=0, data=[77, 0]),
   midi.NoteOnEvent(tick=0, channel=0, data=[82, 0]),
   midi.NoteOnEvent(tick=360, channel=0, data=[70, 48]),
   midi.NoteOnEvent(tick=0, channel=0, data=[77, 53]),
   midi.NoteOnEvent(tick=0, channel=0, data=[73, 48]),
   midi.NoteOnEvent(tick=120, channel=0, data=[73, 0]),
   midi.NoteOnEvent(tick=0, channel=0, data=[77, 0]),
   midi.NoteOnEvent(tick=0, channel=0, data=[70, 0]),
   midi.NoteOnEvent(tick=0, channel=0, data=[67, 51]),
   midi.NoteOnEvent(tick=120, channel=0, data=[67, 0]),
   midi.NoteOnEvent(tick=240, channel=0, data=[82, 46]),
   midi.NoteOnEvent(tick=0, channel=0, data=[85, 46]),
   midi.NoteOnEvent(tick=0, channel=0, data=[89, 52]),
   midi.NoteOnEvent(tick=120, channel=0, data=[89, 0]),
   midi.NoteOnEvent(tick=0, channel=0, data=[85, 0]),
   midi.NoteOnEvent(tick=0, channel=0, data=[82, 0]),
   midi.NoteOnEvent(tick=0, channel=0, data=[79, 49]),
   midi.NoteOnEvent(tick=120, channel=0, data=[79, 0]),
   midi.NoteOnEvent(tick=240, channel=0, data=[77, 51]),
   midi.NoteOnEvent(tick=0, channel=0, data=[73, 45]),
   midi.NoteOnEvent(tick=0, channel=0, data=[70, 45]),
   midi.NoteOnEvent(tick=120, channel=0, data=[70, 0]),
   midi.NoteOnEvent(tick=0, channel=0, data=[73, 0]),
   midi.NoteOnEvent(tick=0, channel=0, data=[77, 0]),
   midi.NoteOnEvent(tick=0, channel=0, data=[67, 46]),
   midi.NoteOnEvent(tick=120, channel=0, data=[67, 0]),
   midi.NoteOnEvent(tick=240, channel=0, data=[65, 54]),
   midi.NoteOnEvent(tick=0, channel=0, data=[70, 62]),
   midi.NoteOnEvent(tick=60, channel=0, data=[70, 0]),
   midi.NoteOnEvent(tick=0, channel=0, data=[65, 0]),
   midi.NoteOnEvent(tick=60, channel=0, data=[70, 61]),
   midi.NoteOnEvent(tick=0, channel=0, data=[65, 54]),
   midi.NoteOnEvent(tick=60, channel=0, data=[65, 0]),
   midi.NoteOnEvent(tick=0, channel=0, data=[70, 0]),
   midi.NoteOnEvent(tick=60, channel=0, data=[70, 58]),
   midi.NoteOnEvent(tick=0, channel=0, data=[77, 64]),
   midi.NoteOnEvent(tick=120, channel=0, data=[77, 0]),
   midi.NoteOnEvent(tick=0, channel=0, data=[70, 0]),
   midi.NoteOnEvent(tick=120, channel=0, data=[70, 61]),
   midi.NoteOnEvent(tick=0, channel=0, data=[65, 55]),
   midi.NoteOnEvent(tick=120, channel=0, data=[65, 0]),
   midi.NoteOnEvent(tick=0, channel=0, data=[70, 0]),
   midi.NoteOnEvent(tick=120, channel=0, data=[77, 64]),
   midi.NoteOnEvent(tick=0, channel=0, data=[70, 57]),
   midi.NoteOnEvent(tick=120, channel=0, data=[70, 0]),
   midi.NoteOnEvent(tick=0, channel=0, data=[77, 0]),
   midi.NoteOnEvent(tick=120, channel=0, data=[65, 55]),
   midi.NoteOnEvent(tick=0, channel=0, data=[70, 61]),
   midi.NoteOnEvent(tick=120, channel=0, data=[70, 0]),
   midi.NoteOnEvent(tick=0, channel=0, data=[65, 0]),
   midi.NoteOnEvent(tick=360, channel=0, data=[70, 45]),
   midi.NoteOnEvent(tick=0, channel=0, data=[73, 45]),
   midi.NoteOnEvent(tick=0, channel=0, data=[77, 50]),
   midi.NoteOnEvent(tick=120, channel=0, data=[77, 0]),
   midi.NoteOnEvent(tick=0, channel=0, data=[73, 0]),
   midi.NoteOnEvent(tick=0, channel=0, data=[70, 0]),
   midi.NoteOnEvent(tick=0, channel=0, data=[67, 50]),
   midi.NoteOnEvent(tick=120, channel=0, data=[67, 0]),
   midi.NoteOnEvent(tick=240, channel=0, data=[70, 41]),
   midi.NoteOnEvent(tick=0, channel=0, data=[73, 41]),
   midi.NoteOnEvent(tick=0, channel=0, data=[77, 44]),
   midi.NoteOnEvent(tick=120, channel=0, data=[77, 0]),
   midi.NoteOnEvent(tick=0, channel=0, data=[73, 0]),
   midi.NoteOnEvent(tick=0, channel=0, data=[70, 0]),
   midi.NoteOnEvent(tick=0, channel=0, data=[67, 44]),
   midi.NoteOnEvent(tick=120, channel=0, data=[67, 0]),
   midi.NoteOnEvent(tick=240, channel=0, data=[73, 36]),
   midi.NoteOnEvent(tick=0, channel=0, data=[70, 36]),
   midi.NoteOnEvent(tick=0, channel=0, data=[77, 40]),
   midi.NoteOnEvent(tick=120, channel=0, data=[77, 0]),
   midi.NoteOnEvent(tick=0, channel=0, data=[70, 0]),
   midi.NoteOnEvent(tick=0, channel=0, data=[73, 0]),
   midi.NoteOnEvent(tick=0, channel=0, data=[67, 39]),
   midi.NoteOnEvent(tick=120, channel=0, data=[67, 0]),
   midi.NoteOnEvent(tick=2160, channel=0, data=[70, 59]),
   midi.NoteOnEvent(tick=0, channel=0, data=[74, 59]),
   midi.NoteOnEvent(tick=240, channel=0, data=[74, 0]),
   midi.NoteOnEvent(tick=0, channel=0, data=[70, 0]),
   midi.NoteOnEvent(tick=0, channel=0, data=[70, 56]),
   midi.NoteOnEvent(tick=0, channel=0, data=[74, 56]),
   midi.NoteOnEvent(tick=120, channel=0, data=[74, 0]),
   midi.NoteOnEvent(tick=0, channel=0, data=[70, 0]),
   midi.NoteOnEvent(tick=0, channel=0, data=[70, 56]),
   midi.NoteOnEvent(tick=0, channel=0, data=[74, 56]),
   midi.NoteOnEvent(tick=120, channel=0, data=[74, 0]),
   midi.NoteOnEvent(tick=0, channel=0, data=[70, 0]),
   midi.NoteOnEvent(tick=0, channel=0, data=[79, 59]),
   midi.NoteOnEvent(tick=0, channel=0, data=[76, 59]),
   midi.NoteOnEvent(tick=840, channel=0, data=[76, 0]),
   midi.NoteOnEvent(tick=0, channel=0, data=[79, 0]),
   midi.NoteOnEvent(tick=0, channel=0, data=[74, 54]),
   midi.NoteOnEvent(tick=0, channel=0, data=[77, 54]),
   midi.NoteOnEvent(tick=120, channel=0, data=[77, 0]),
   midi.NoteOnEvent(tick=0, channel=0, data=[74, 0]),
   midi.NoteOnEvent(tick=0, channel=0, data=[72, 45]),
   midi.NoteOnEvent(tick=0, channel=0, data=[76, 45]),
   midi.NoteOnEvent(tick=80, channel=0, data=[76, 0]),
   midi.NoteOnEvent(tick=0, channel=0, data=[77, 45]),
   midi.NoteOnEvent(tick=80, channel=0, data=[77, 0]),
   midi.NoteOnEvent(tick=0, channel=0, data=[76, 45]),
   midi.NoteOnEvent(tick=80, channel=0, data=[76, 0]),
   midi.NoteOnEvent(tick=0, channel=0, data=[72, 0]),
   midi.NoteOnEvent(tick=0, channel=0, data=[69, 45]),
   midi.NoteOnEvent(tick=0, channel=0, data=[72, 51]),
   midi.NoteOnEvent(tick=240, channel=0, data=[72, 0]),
   midi.NoteOnEvent(tick=0, channel=0, data=[69, 0]),
   midi.NoteOnEvent(tick=120, channel=0, data=[65, 27]),
   midi.NoteOnEvent(tick=0, channel=0, data=[69, 27]),
   midi.NoteOnEvent(tick=0, channel=0, data=[72, 33]),
   midi.NoteOnEvent(tick=60, channel=0, data=[72, 0]),
   midi.NoteOnEvent(tick=0, channel=0, data=[69, 0]),
   midi.NoteOnEvent(tick=0, channel=0, data=[65, 0]),
   midi.NoteOnEvent(tick=180, channel=0, data=[72, 29]),
   midi.NoteOnEvent(tick=0, channel=0, data=[69, 25]),
   midi.NoteOnEvent(tick=0, channel=0, data=[65, 25]),
   midi.NoteOnEvent(tick=60, channel=0, data=[65, 0]),
   midi.NoteOnEvent(tick=0, channel=0, data=[69, 0]),
   midi.NoteOnEvent(tick=0, channel=0, data=[72, 0]),
   midi.NoteOnEvent(tick=180, channel=0, data=[72, 33]),
   midi.NoteOnEvent(tick=0, channel=0, data=[69, 27]),
   midi.NoteOnEvent(tick=0, channel=0, data=[65, 27]),
   midi.NoteOnEvent(tick=60, channel=0, data=[65, 0]),
   midi.NoteOnEvent(tick=0, channel=0, data=[69, 0]),
   midi.NoteOnEvent(tick=0, channel=0, data=[72, 0]),
   midi.NoteOnEvent(tick=180, channel=0, data=[72, 27]),
   midi.NoteOnEvent(tick=0, channel=0, data=[69, 22]),
   midi.NoteOnEvent(tick=0, channel=0, data=[65, 22]),
   midi.NoteOnEvent(tick=60, channel=0, data=[65, 0]),
   midi.NoteOnEvent(tick=0, channel=0, data=[69, 0]),
   midi.NoteOnEvent(tick=0, channel=0, data=[72, 0]),
   midi.NoteOnEvent(tick=60, channel=0, data=[77, 59]),
   midi.NoteOnEvent(tick=0, channel=0, data=[81, 59]),
   midi.NoteOnEvent(tick=240, channel=0, data=[81, 0]),
   midi.NoteOnEvent(tick=0, channel=0, data=[77, 0]),
   midi.NoteOnEvent(tick=0, channel=0, data=[76, 53]),
   midi.NoteOnEvent(tick=0, channel=0, data=[79, 53]),
   midi.NoteOnEvent(tick=120, channel=0, data=[79, 0]),
   midi.NoteOnEvent(tick=0, channel=0, data=[76, 0]),
   midi.NoteOnEvent(tick=0, channel=0, data=[74, 53]),
   midi.NoteOnEvent(tick=0, channel=0, data=[77, 53]),
   midi.NoteOnEvent(tick=120, channel=0, data=[77, 0]),
   midi.NoteOnEvent(tick=0, channel=0, data=[74, 0]),
   midi.NoteOnEvent(tick=0, channel=0, data=[77, 57]),
   midi.NoteOnEvent(tick=0, channel=0, data=[74, 57]),
   midi.NoteOnEvent(tick=480, channel=0, data=[74, 0]),
   midi.NoteOnEvent(tick=0, channel=0, data=[77, 0]),
   midi.NoteOnEvent(tick=0, channel=0, data=[75, 50]),
   midi.NoteOnEvent(tick=0, channel=0, data=[72, 45]),
   midi.NoteOnEvent(tick=120, channel=0, data=[72, 0]),
   midi.NoteOnEvent(tick=0, channel=0, data=[75, 0]),
   midi.NoteOnEvent(tick=0, channel=0, data=[78, 39]),
   midi.NoteOnEvent(tick=0, channel=0, data=[74, 35]),
   midi.NoteOnEvent(tick=120, channel=0, data=[74, 0]),
   midi.NoteOnEvent(tick=0, channel=0, data=[78, 0]),
   midi.NoteOnEvent(tick=0, channel=0, data=[70, 45]),
   midi.NoteOnEvent(tick=0, channel=0, data=[74, 50]),
   midi.NoteOnEvent(tick=120, channel=0, data=[74, 0]),
   midi.NoteOnEvent(tick=0, channel=0, data=[70, 0]),
   midi.NoteOnEvent(tick=0, channel=0, data=[72, 37]),
   midi.NoteOnEvent(tick=0, channel=0, data=[75, 42]),
   midi.NoteOnEvent(tick=120, channel=0, data=[75, 0]),
   midi.NoteOnEvent(tick=0, channel=0, data=[72, 0]),
   midi.NoteOnEvent(tick=0, channel=0, data=[69, 45]),
   midi.NoteOnEvent(tick=0, channel=0, data=[72, 45]),
   midi.NoteOnEvent(tick=80, channel=0, data=[72, 0]),
   midi.NoteOnEvent(tick=0, channel=0, data=[74, 45]),
   midi.NoteOnEvent(tick=80, channel=0, data=[74, 0]),
   midi.NoteOnEvent(tick=0, channel=0, data=[72, 45]),
   midi.NoteOnEvent(tick=80, channel=0, data=[72, 0]),
   midi.NoteOnEvent(tick=0, channel=0, data=[69, 0]),
   midi.NoteOnEvent(tick=0, channel=0, data=[67, 46]),
   midi.NoteOnEvent(tick=0, channel=0, data=[70, 51]),
   midi.NoteOnEvent(tick=240, channel=0, data=[70, 0]),
   midi.NoteOnEvent(tick=0, channel=0, data=[67, 0]),
   midi.NoteOnEvent(tick=120, channel=0, data=[62, 27]),
   midi.NoteOnEvent(tick=0, channel=0, data=[67, 27]),
   midi.NoteOnEvent(tick=0, channel=0, data=[70, 33]),
   midi.NoteOnEvent(tick=60, channel=0, data=[70, 0]),
   midi.NoteOnEvent(tick=0, channel=0, data=[67, 0]),
   midi.NoteOnEvent(tick=0, channel=0, data=[62, 0]),
   midi.NoteOnEvent(tick=180, channel=0, data=[70, 29]),
   midi.NoteOnEvent(tick=0, channel=0, data=[67, 25]),
   midi.NoteOnEvent(tick=0, channel=0, data=[62, 25]),
   midi.NoteOnEvent(tick=60, channel=0, data=[62, 0]),
   midi.NoteOnEvent(tick=0, channel=0, data=[67, 0]),
   midi.NoteOnEvent(tick=0, channel=0, data=[70, 0]),
   midi.NoteOnEvent(tick=180, channel=0, data=[70, 33]),
   midi.NoteOnEvent(tick=0, channel=0, data=[67, 27]),
   midi.NoteOnEvent(tick=0, channel=0, data=[62, 27]),
   midi.NoteOnEvent(tick=60, channel=0, data=[62, 0]),
   midi.NoteOnEvent(tick=0, channel=0, data=[67, 0]),
   midi.NoteOnEvent(tick=0, channel=0, data=[70, 0]),
   midi.NoteOnEvent(tick=180, channel=0, data=[70, 27]),
   midi.NoteOnEvent(tick=0, channel=0, data=[67, 22]),
   midi.NoteOnEvent(tick=0, channel=0, data=[62, 22]),
   midi.NoteOnEvent(tick=60, channel=0, data=[62, 0]),
   midi.NoteOnEvent(tick=0, channel=0, data=[67, 0]),
   midi.NoteOnEvent(tick=0, channel=0, data=[70, 0]),
   midi.NoteOnEvent(tick=60, channel=0, data=[70, 64]),
   midi.NoteOnEvent(tick=0, channel=0, data=[74, 64]),
   midi.NoteOnEvent(tick=240, channel=0, data=[74, 0]),
   midi.NoteOnEvent(tick=0, channel=0, data=[70, 0]),
   midi.NoteOnEvent(tick=0, channel=0, data=[70, 61]),
   midi.NoteOnEvent(tick=0, channel=0, data=[74, 61]),
   midi.NoteOnEvent(tick=120, channel=0, data=[74, 0]),
   midi.NoteOnEvent(tick=0, channel=0, data=[70, 0]),
   midi.NoteOnEvent(tick=0, channel=0, data=[70, 61]),
   midi.NoteOnEvent(tick=0, channel=0, data=[74, 61]),
   midi.NoteOnEvent(tick=120, channel=0, data=[74, 0]),
   midi.NoteOnEvent(tick=0, channel=0, data=[70, 0]),
   midi.NoteOnEvent(tick=0, channel=0, data=[79, 64]),
   midi.NoteOnEvent(tick=0, channel=0, data=[76, 64]),
   midi.NoteOnEvent(tick=840, channel=0, data=[76, 0]),
   midi.NoteOnEvent(tick=0, channel=0, data=[79, 0]),
   midi.NoteOnEvent(tick=0, channel=0, data=[74, 54]),
   midi.NoteOnEvent(tick=0, channel=0, data=[77, 54]),
   midi.NoteOnEvent(tick=120, channel=0, data=[77, 0]),
   midi.NoteOnEvent(tick=0, channel=0, data=[74, 0]),
   midi.NoteOnEvent(tick=0, channel=0, data=[72, 45]),
   midi.NoteOnEvent(tick=0, channel=0, data=[76, 45]),
   midi.NoteOnEvent(tick=80, channel=0, data=[76, 0]),
   midi.NoteOnEvent(tick=0, channel=0, data=[77, 45]),
   midi.NoteOnEvent(tick=80, channel=0, data=[77, 0]),
   midi.NoteOnEvent(tick=0, channel=0, data=[76, 45]),
   midi.NoteOnEvent(tick=80, channel=0, data=[76, 0]),
   midi.NoteOnEvent(tick=0, channel=0, data=[72, 0]),
   midi.NoteOnEvent(tick=0, channel=0, data=[69, 41]),
   midi.NoteOnEvent(tick=0, channel=0, data=[72, 46]),
   midi.NoteOnEvent(tick=240, channel=0, data=[72, 0]),
   midi.NoteOnEvent(tick=0, channel=0, data=[69, 0]),
   midi.NoteOnEvent(tick=120, channel=0, data=[65, 27]),
   midi.NoteOnEvent(tick=0, channel=0, data=[69, 27]),
   midi.NoteOnEvent(tick=0, channel=0, data=[72, 33]),
   midi.NoteOnEvent(tick=60, channel=0, data=[72, 0]),
   midi.NoteOnEvent(tick=0, channel=0, data=[69, 0]),
   midi.NoteOnEvent(tick=0, channel=0, data=[65, 0]),
   midi.NoteOnEvent(tick=180, channel=0, data=[72, 29]),
   midi.NoteOnEvent(tick=0, channel=0, data=[69, 25]),
   midi.NoteOnEvent(tick=0, channel=0, data=[65, 25]),
   midi.NoteOnEvent(tick=60, channel=0, data=[65, 0]),
   midi.NoteOnEvent(tick=0, channel=0, data=[69, 0]),
   midi.NoteOnEvent(tick=0, channel=0, data=[72, 0]),
   midi.NoteOnEvent(tick=180, channel=0, data=[72, 33]),
   midi.NoteOnEvent(tick=0, channel=0, data=[69, 27]),
   midi.NoteOnEvent(tick=0, channel=0, data=[65, 27]),
   midi.NoteOnEvent(tick=60, channel=0, data=[65, 0]),
   midi.NoteOnEvent(tick=0, channel=0, data=[69, 0]),
   midi.NoteOnEvent(tick=0, channel=0, data=[72, 0]),
   midi.NoteOnEvent(tick=180, channel=0, data=[72, 27]),
   midi.NoteOnEvent(tick=0, channel=0, data=[69, 22]),
   midi.NoteOnEvent(tick=0, channel=0, data=[65, 22]),
   midi.NoteOnEvent(tick=60, channel=0, data=[65, 0]),
   midi.NoteOnEvent(tick=0, channel=0, data=[69, 0]),
   midi.NoteOnEvent(tick=0, channel=0, data=[72, 0]),
   midi.NoteOnEvent(tick=0, channel=0, data=[72, 52]),
   midi.NoteOnEvent(tick=60, channel=0, data=[72, 0]),
   midi.NoteOnEvent(tick=0, channel=0, data=[81, 64]),
   midi.NoteOnEvent(tick=0, channel=0, data=[84, 64]),
   midi.NoteOnEvent(tick=240, channel=0, data=[84, 0]),
   midi.NoteOnEvent(tick=0, channel=0, data=[81, 0]),
   midi.NoteOnEvent(tick=0, channel=0, data=[79, 58]),
   midi.NoteOnEvent(tick=0, channel=0, data=[82, 58]),
   midi.NoteOnEvent(tick=120, channel=0, data=[82, 0]),
   midi.NoteOnEvent(tick=0, channel=0, data=[79, 0]),
   midi.NoteOnEvent(tick=0, channel=0, data=[77, 58]),
   midi.NoteOnEvent(tick=0, channel=0, data=[81, 58]),
   midi.NoteOnEvent(tick=120, channel=0, data=[81, 0]),
   midi.NoteOnEvent(tick=0, channel=0, data=[77, 0]),
   midi.NoteOnEvent(tick=0, channel=0, data=[81, 62]),
   midi.NoteOnEvent(tick=0, channel=0, data=[77, 62]),
   midi.NoteOnEvent(tick=240, channel=0, data=[77, 0]),
   midi.NoteOnEvent(tick=0, channel=0, data=[81, 0]),
   midi.NoteOnEvent(tick=0, channel=0, data=[76, 58]),
   midi.NoteOnEvent(tick=0, channel=0, data=[79, 58]),
   midi.NoteOnEvent(tick=120, channel=0, data=[79, 0]),
   midi.NoteOnEvent(tick=0, channel=0, data=[76, 0]),
   midi.NoteOnEvent(tick=0, channel=0, data=[74, 58]),
   midi.NoteOnEvent(tick=0, channel=0, data=[77, 58]),
   midi.NoteOnEvent(tick=120, channel=0, data=[77, 0]),
   midi.NoteOnEvent(tick=0, channel=0, data=[74, 0]),
   midi.NoteOnEvent(tick=0, channel=0, data=[77, 58]),
   midi.NoteOnEvent(tick=0, channel=0, data=[81, 58]),
   midi.NoteOnEvent(tick=120, channel=0, data=[81, 0]),
   midi.NoteOnEvent(tick=0, channel=0, data=[77, 0]),
   midi.NoteOnEvent(tick=120, channel=0, data=[76, 50]),
   midi.NoteOnEvent(tick=0, channel=0, data=[79, 50]),
   midi.NoteOnEvent(tick=120, channel=0, data=[79, 0]),
   midi.NoteOnEvent(tick=0, channel=0, data=[76, 0]),
   midi.NoteOnEvent(tick=0, channel=0, data=[72, 45]),
   midi.NoteOnEvent(tick=0, channel=0, data=[76, 45]),
   midi.NoteOnEvent(tick=120, channel=0, data=[76, 0]),
   midi.NoteOnEvent(tick=0, channel=0, data=[72, 0]),
   midi.NoteOnEvent(tick=0, channel=0, data=[70, 45]),
   midi.NoteOnEvent(tick=0, channel=0, data=[74, 45]),
   midi.NoteOnEvent(tick=240, channel=0, data=[74, 0]),
   midi.NoteOnEvent(tick=0, channel=0, data=[70, 0]),
   midi.NoteOnEvent(tick=0, channel=0, data=[70, 40]),
   midi.NoteOnEvent(tick=0, channel=0, data=[67, 40]),
   midi.NoteOnEvent(tick=80, channel=0, data=[70, 0]),
   midi.NoteOnEvent(tick=0, channel=0, data=[72, 40]),
   midi.NoteOnEvent(tick=80, channel=0, data=[72, 0]),
   midi.NoteOnEvent(tick=0, channel=0, data=[70, 40]),
   midi.NoteOnEvent(tick=80, channel=0, data=[70, 0]),
   midi.NoteOnEvent(tick=0, channel=0, data=[67, 0]),
   midi.NoteOnEvent(tick=0, channel=0, data=[67, 43]),
   midi.NoteOnEvent(tick=0, channel=0, data=[64, 38]),
   midi.NoteOnEvent(tick=240, channel=0, data=[64, 0]),
   midi.NoteOnEvent(tick=0, channel=0, data=[67, 0]),
   midi.NoteOnEvent(tick=120, channel=0, data=[70, 27]),
   midi.NoteOnEvent(tick=0, channel=0, data=[72, 27]),
   midi.NoteOnEvent(tick=0, channel=0, data=[64, 27]),
   midi.NoteOnEvent(tick=60, channel=0, data=[64, 0]),
   midi.NoteOnEvent(tick=0, channel=0, data=[72, 0]),
   midi.NoteOnEvent(tick=0, channel=0, data=[70, 0]),
   midi.NoteOnEvent(tick=180, channel=0, data=[70, 31]),
   midi.NoteOnEvent(tick=0, channel=0, data=[72, 31]),
   midi.NoteOnEvent(tick=0, channel=0, data=[64, 31]),
   midi.NoteOnEvent(tick=60, channel=0, data=[64, 0]),
   midi.NoteOnEvent(tick=0, channel=0, data=[72, 0]),
   midi.NoteOnEvent(tick=0, channel=0, data=[70, 0]),
   midi.NoteOnEvent(tick=180, channel=0, data=[64, 25]),
   midi.NoteOnEvent(tick=0, channel=0, data=[72, 25]),
   midi.NoteOnEvent(tick=0, channel=0, data=[70, 25]),
   midi.NoteOnEvent(tick=60, channel=0, data=[70, 0]),
   midi.NoteOnEvent(tick=0, channel=0, data=[72, 0]),
   midi.NoteOnEvent(tick=0, channel=0, data=[64, 0]),
   midi.NoteOnEvent(tick=60, channel=0, data=[67, 59]),
   midi.NoteOnEvent(tick=0, channel=0, data=[70, 59]),
   midi.NoteOnEvent(tick=240, channel=0, data=[70, 0]),
   midi.NoteOnEvent(tick=0, channel=0, data=[67, 0]),
   midi.NoteOnEvent(tick=0, channel=0, data=[69, 56]),
   midi.NoteOnEvent(tick=0, channel=0, data=[72, 56]),
   midi.NoteOnEvent(tick=120, channel=0, data=[72, 0]),
   midi.NoteOnEvent(tick=0, channel=0, data=[69, 0]),
   midi.NoteOnEvent(tick=0, channel=0, data=[70, 56]),
   midi.NoteOnEvent(tick=0, channel=0, data=[74, 56]),
   midi.NoteOnEvent(tick=120, channel=0, data=[74, 0]),
   midi.NoteOnEvent(tick=0, channel=0, data=[70, 0]),
   midi.NoteOnEvent(tick=0, channel=0, data=[79, 59]),
   midi.NoteOnEvent(tick=0, channel=0, data=[76, 59]),
   midi.NoteOnEvent(tick=840, channel=0, data=[76, 0]),
   midi.NoteOnEvent(tick=0, channel=0, data=[79, 0]),
   midi.NoteOnEvent(tick=0, channel=0, data=[74, 54]),
   midi.NoteOnEvent(tick=0, channel=0, data=[77, 54]),
   midi.NoteOnEvent(tick=120, channel=0, data=[77, 0]),
   midi.NoteOnEvent(tick=0, channel=0, data=[74, 0]),
   midi.NoteOnEvent(tick=0, channel=0, data=[72, 45]),
   midi.NoteOnEvent(tick=0, channel=0, data=[76, 45]),
   midi.NoteOnEvent(tick=80, channel=0, data=[76, 0]),
   midi.NoteOnEvent(tick=0, channel=0, data=[77, 45]),
   midi.NoteOnEvent(tick=80, channel=0, data=[77, 0]),
   midi.NoteOnEvent(tick=0, channel=0, data=[76, 45]),
   midi.NoteOnEvent(tick=80, channel=0, data=[76, 0]),
   midi.NoteOnEvent(tick=0, channel=0, data=[72, 0]),
   midi.NoteOnEvent(tick=0, channel=0, data=[69, 41]),
   midi.NoteOnEvent(tick=0, channel=0, data=[72, 46]),
   midi.NoteOnEvent(tick=240, channel=0, data=[72, 0]),
   midi.NoteOnEvent(tick=0, channel=0, data=[69, 0]),
   midi.NoteOnEvent(tick=120, channel=0, data=[65, 27]),
   midi.NoteOnEvent(tick=0, channel=0, data=[69, 27]),
   midi.NoteOnEvent(tick=0, channel=0, data=[72, 33]),
   midi.NoteOnEvent(tick=60, channel=0, data=[72, 0]),
   midi.NoteOnEvent(tick=0, channel=0, data=[69, 0]),
   midi.NoteOnEvent(tick=0, channel=0, data=[65, 0]),
   midi.NoteOnEvent(tick=180, channel=0, data=[72, 29]),
   midi.NoteOnEvent(tick=0, channel=0, data=[69, 25]),
   midi.NoteOnEvent(tick=0, channel=0, data=[65, 25]),
   midi.NoteOnEvent(tick=60, channel=0, data=[65, 0]),
   midi.NoteOnEvent(tick=0, channel=0, data=[69, 0]),
   midi.NoteOnEvent(tick=0, channel=0, data=[72, 0]),
   midi.NoteOnEvent(tick=180, channel=0, data=[72, 33]),
   midi.NoteOnEvent(tick=0, channel=0, data=[69, 27]),
   midi.NoteOnEvent(tick=0, channel=0, data=[65, 27]),
   midi.NoteOnEvent(tick=60, channel=0, data=[65, 0]),
   midi.NoteOnEvent(tick=0, channel=0, data=[69, 0]),
   midi.NoteOnEvent(tick=0, channel=0, data=[72, 0]),
   midi.NoteOnEvent(tick=180, channel=0, data=[72, 27]),
   midi.NoteOnEvent(tick=0, channel=0, data=[69, 22]),
   midi.NoteOnEvent(tick=0, channel=0, data=[65, 22]),
   midi.NoteOnEvent(tick=60, channel=0, data=[65, 0]),
   midi.NoteOnEvent(tick=0, channel=0, data=[69, 0]),
   midi.NoteOnEvent(tick=0, channel=0, data=[72, 0]),
   midi.NoteOnEvent(tick=60, channel=0, data=[77, 59]),
   midi.NoteOnEvent(tick=0, channel=0, data=[81, 59]),
   midi.NoteOnEvent(tick=240, channel=0, data=[81, 0]),
   midi.NoteOnEvent(tick=0, channel=0, data=[77, 0]),
   midi.NoteOnEvent(tick=0, channel=0, data=[76, 53]),
   midi.NoteOnEvent(tick=0, channel=0, data=[79, 53]),
   midi.NoteOnEvent(tick=120, channel=0, data=[79, 0]),
   midi.NoteOnEvent(tick=0, channel=0, data=[76, 0]),
   midi.NoteOnEvent(tick=0, channel=0, data=[74, 53]),
   midi.NoteOnEvent(tick=0, channel=0, data=[77, 53]),
   midi.NoteOnEvent(tick=120, channel=0, data=[77, 0]),
   midi.NoteOnEvent(tick=0, channel=0, data=[74, 0]),
   midi.NoteOnEvent(tick=0, channel=0, data=[77, 57]),
   midi.NoteOnEvent(tick=0, channel=0, data=[74, 57]),
   midi.NoteOnEvent(tick=480, channel=0, data=[74, 0]),
   midi.NoteOnEvent(tick=0, channel=0, data=[77, 0]),
   midi.NoteOnEvent(tick=0, channel=0, data=[75, 51]),
   midi.NoteOnEvent(tick=0, channel=0, data=[72, 45]),
   midi.NoteOnEvent(tick=120, channel=0, data=[72, 0]),
   midi.NoteOnEvent(tick=0, channel=0, data=[75, 0]),
   midi.NoteOnEvent(tick=0, channel=0, data=[78, 40]),
   midi.NoteOnEvent(tick=0, channel=0, data=[74, 36]),
   midi.NoteOnEvent(tick=120, channel=0, data=[74, 0]),
   midi.NoteOnEvent(tick=0, channel=0, data=[78, 0]),
   midi.NoteOnEvent(tick=0, channel=0, data=[70, 45]),
   midi.NoteOnEvent(tick=0, channel=0, data=[74, 51]),
   midi.NoteOnEvent(tick=120, channel=0, data=[74, 0]),
   midi.NoteOnEvent(tick=0, channel=0, data=[70, 0]),
   midi.NoteOnEvent(tick=0, channel=0, data=[72, 36]),
   midi.NoteOnEvent(tick=0, channel=0, data=[75, 41]),
   midi.NoteOnEvent(tick=120, channel=0, data=[75, 0]),
   midi.NoteOnEvent(tick=0, channel=0, data=[72, 0]),
   midi.NoteOnEvent(tick=0, channel=0, data=[69, 45]),
   midi.NoteOnEvent(tick=0, channel=0, data=[72, 45]),
   midi.NoteOnEvent(tick=80, channel=0, data=[72, 0]),
   midi.NoteOnEvent(tick=0, channel=0, data=[74, 45]),
   midi.NoteOnEvent(tick=80, channel=0, data=[74, 0]),
   midi.NoteOnEvent(tick=0, channel=0, data=[72, 45]),
   midi.NoteOnEvent(tick=80, channel=0, data=[72, 0]),
   midi.NoteOnEvent(tick=0, channel=0, data=[69, 0]),
   midi.NoteOnEvent(tick=0, channel=0, data=[67, 44]),
   midi.NoteOnEvent(tick=0, channel=0, data=[70, 51]),
   midi.NoteOnEvent(tick=240, channel=0, data=[70, 0]),
   midi.NoteOnEvent(tick=0, channel=0, data=[67, 0]),
   midi.NoteOnEvent(tick=120, channel=0, data=[62, 27]),
   midi.NoteOnEvent(tick=0, channel=0, data=[67, 27]),
   midi.NoteOnEvent(tick=0, channel=0, data=[70, 33]),
   midi.NoteOnEvent(tick=60, channel=0, data=[70, 0]),
   midi.NoteOnEvent(tick=0, channel=0, data=[67, 0]),
   midi.NoteOnEvent(tick=0, channel=0, data=[62, 0]),
   midi.NoteOnEvent(tick=180, channel=0, data=[70, 29]),
   midi.NoteOnEvent(tick=0, channel=0, data=[67, 25]),
   midi.NoteOnEvent(tick=0, channel=0, data=[62, 25]),
   midi.NoteOnEvent(tick=60, channel=0, data=[62, 0]),
   midi.NoteOnEvent(tick=0, channel=0, data=[67, 0]),
   midi.NoteOnEvent(tick=0, channel=0, data=[70, 0]),
   midi.NoteOnEvent(tick=180, channel=0, data=[70, 33]),
   midi.NoteOnEvent(tick=0, channel=0, data=[67, 27]),
   midi.NoteOnEvent(tick=0, channel=0, data=[62, 27]),
   midi.NoteOnEvent(tick=60, channel=0, data=[62, 0]),
   midi.NoteOnEvent(tick=0, channel=0, data=[67, 0]),
   midi.NoteOnEvent(tick=0, channel=0, data=[70, 0]),
   midi.NoteOnEvent(tick=180, channel=0, data=[70, 27]),
   midi.NoteOnEvent(tick=0, channel=0, data=[67, 22]),
   midi.NoteOnEvent(tick=0, channel=0, data=[62, 22]),
   midi.NoteOnEvent(tick=60, channel=0, data=[62, 0]),
   midi.NoteOnEvent(tick=0, channel=0, data=[67, 0]),
   midi.NoteOnEvent(tick=0, channel=0, data=[70, 0]),
   midi.NoteOnEvent(tick=60, channel=0, data=[79, 59]),
   midi.NoteOnEvent(tick=0, channel=0, data=[82, 59]),
   midi.NoteOnEvent(tick=120, channel=0, data=[82, 0]),
   midi.NoteOnEvent(tick=0, channel=0, data=[79, 0]),
   midi.NoteOnEvent(tick=120, channel=0, data=[76, 56]),
   midi.NoteOnEvent(tick=0, channel=0, data=[79, 56]),
   midi.NoteOnEvent(tick=120, channel=0, data=[79, 0]),
   midi.NoteOnEvent(tick=0, channel=0, data=[76, 0]),
   midi.NoteOnEvent(tick=0, channel=0, data=[72, 56]),
   midi.NoteOnEvent(tick=0, channel=0, data=[76, 56]),
   midi.NoteOnEvent(tick=120, channel=0, data=[76, 0]),
   midi.NoteOnEvent(tick=0, channel=0, data=[72, 0]),
   midi.NoteOnEvent(tick=0, channel=0, data=[72, 59]),
   midi.NoteOnEvent(tick=0, channel=0, data=[69, 59]),
   midi.NoteOnEvent(tick=720, channel=0, data=[69, 0]),
   midi.NoteOnEvent(tick=0, channel=0, data=[72, 0]),
   midi.NoteOnEvent(tick=0, channel=0, data=[70, 46]),
   midi.NoteOnEvent(tick=0, channel=0, data=[74, 51]),
   midi.NoteOnEvent(tick=240, channel=0, data=[74, 0]),
   midi.NoteOnEvent(tick=0, channel=0, data=[70, 0]),
   midi.NoteOnEvent(tick=0, channel=0, data=[67, 45]),
   midi.NoteOnEvent(tick=0, channel=0, data=[70, 45]),
   midi.NoteOnEvent(tick=80, channel=0, data=[70, 0]),
   midi.NoteOnEvent(tick=0, channel=0, data=[72, 45]),
   midi.NoteOnEvent(tick=80, channel=0, data=[72, 0]),
   midi.NoteOnEvent(tick=0, channel=0, data=[70, 45]),
   midi.NoteOnEvent(tick=80, channel=0, data=[70, 0]),
   midi.NoteOnEvent(tick=0, channel=0, data=[67, 0]),
   midi.NoteOnEvent(tick=0, channel=0, data=[65, 43]),
   midi.NoteOnEvent(tick=0, channel=0, data=[69, 45]),
   midi.NoteOnEvent(tick=240, channel=0, data=[69, 0]),
   midi.NoteOnEvent(tick=0, channel=0, data=[65, 0]),
   midi.NoteOnEvent(tick=480, channel=0, data=[57, 46]),
   midi.NoteOnEvent(tick=0, channel=0, data=[65, 50]),
   midi.NoteOnEvent(tick=80, channel=0, data=[65, 0]),
   midi.NoteOnEvent(tick=0, channel=0, data=[67, 47]),
   midi.NoteOnEvent(tick=80, channel=0, data=[67, 0]),
   midi.NoteOnEvent(tick=0, channel=0, data=[65, 47]),
   midi.NoteOnEvent(tick=80, channel=0, data=[65, 0]),
   midi.NoteOnEvent(tick=0, channel=0, data=[57, 0]),
   midi.NoteOnEvent(tick=0, channel=0, data=[57, 43]),
   midi.NoteOnEvent(tick=0, channel=0, data=[64, 50]),
   midi.NoteOnEvent(tick=120, channel=0, data=[64, 0]),
   midi.NoteOnEvent(tick=0, channel=0, data=[62, 47]),
   midi.NoteOnEvent(tick=120, channel=0, data=[62, 0]),
   midi.NoteOnEvent(tick=0, channel=0, data=[57, 0]),
   midi.NoteOnEvent(tick=0, channel=0, data=[57, 39]),
   midi.NoteOnEvent(tick=0, channel=0, data=[65, 53]),
   midi.NoteOnEvent(tick=240, channel=0, data=[65, 0]),
   midi.NoteOnEvent(tick=0, channel=0, data=[57, 0]),
   midi.NoteOnEvent(tick=0, channel=0, data=[57, 43]),
   midi.NoteOnEvent(tick=0, channel=0, data=[64, 51]),
   midi.NoteOnEvent(tick=90, channel=0, data=[64, 0]),
   midi.NoteOnEvent(tick=0, channel=0, data=[57, 0]),
   midi.NoteOnEvent(tick=30, channel=0, data=[62, 48]),
   midi.NoteOnEvent(tick=90, channel=0, data=[62, 0]),
   midi.NoteOnEvent(tick=30, channel=0, data=[57, 43]),
   midi.NoteOnEvent(tick=0, channel=0, data=[60, 49]),
   midi.NoteOnEvent(tick=90, channel=0, data=[60, 0]),
   midi.NoteOnEvent(tick=0, channel=0, data=[57, 0]),
   midi.NoteOnEvent(tick=30, channel=0, data=[64, 46]),
   midi.NoteOnEvent(tick=90, channel=0, data=[64, 0]),
   midi.NoteOnEvent(tick=30, channel=0, data=[57, 39]),
   midi.NoteOnEvent(tick=0, channel=0, data=[62, 51]),
   midi.NoteOnEvent(tick=90, channel=0, data=[62, 0]),
   midi.NoteOnEvent(tick=30, channel=0, data=[64, 48]),
   midi.NoteOnEvent(tick=90, channel=0, data=[64, 0]),
   midi.NoteOnEvent(tick=30, channel=0, data=[57, 0]),
   midi.NoteOnEvent(tick=0, channel=0, data=[57, 46]),
   midi.NoteOnEvent(tick=0, channel=0, data=[65, 50]),
   midi.NoteOnEvent(tick=80, channel=0, data=[65, 0]),
   midi.NoteOnEvent(tick=0, channel=0, data=[67, 47]),
   midi.NoteOnEvent(tick=80, channel=0, data=[67, 0]),
   midi.NoteOnEvent(tick=0, channel=0, data=[65, 47]),
   midi.NoteOnEvent(tick=80, channel=0, data=[65, 0]),
   midi.NoteOnEvent(tick=0, channel=0, data=[57, 0]),
   midi.NoteOnEvent(tick=0, channel=0, data=[57, 43]),
   midi.NoteOnEvent(tick=0, channel=0, data=[64, 50]),
   midi.NoteOnEvent(tick=120, channel=0, data=[64, 0]),
   midi.NoteOnEvent(tick=0, channel=0, data=[62, 47]),
   midi.NoteOnEvent(tick=120, channel=0, data=[62, 0]),
   midi.NoteOnEvent(tick=0, channel=0, data=[57, 0]),
   midi.NoteOnEvent(tick=0, channel=0, data=[57, 39]),
   midi.NoteOnEvent(tick=0, channel=0, data=[65, 53]),
   midi.NoteOnEvent(tick=240, channel=0, data=[65, 0]),
   midi.NoteOnEvent(tick=0, channel=0, data=[57, 0]),
   midi.NoteOnEvent(tick=0, channel=0, data=[57, 43]),
   midi.NoteOnEvent(tick=0, channel=0, data=[64, 51]),
   midi.NoteOnEvent(tick=90, channel=0, data=[64, 0]),
   midi.NoteOnEvent(tick=0, channel=0, data=[57, 0]),
   midi.NoteOnEvent(tick=30, channel=0, data=[62, 48]),
   midi.NoteOnEvent(tick=90, channel=0, data=[62, 0]),
   midi.NoteOnEvent(tick=30, channel=0, data=[57, 43]),
   midi.NoteOnEvent(tick=0, channel=0, data=[60, 49]),
   midi.NoteOnEvent(tick=90, channel=0, data=[60, 0]),
   midi.NoteOnEvent(tick=0, channel=0, data=[57, 0]),
   midi.NoteOnEvent(tick=30, channel=0, data=[64, 46]),
   midi.NoteOnEvent(tick=90, channel=0, data=[64, 0]),
   midi.NoteOnEvent(tick=30, channel=0, data=[57, 39]),
   midi.NoteOnEvent(tick=0, channel=0, data=[62, 51]),
   midi.NoteOnEvent(tick=90, channel=0, data=[62, 0]),
   midi.NoteOnEvent(tick=30, channel=0, data=[64, 48]),
   midi.NoteOnEvent(tick=90, channel=0, data=[64, 0]),
   midi.NoteOnEvent(tick=30, channel=0, data=[57, 0]),
   midi.NoteOnEvent(tick=0, channel=0, data=[57, 46]),
   midi.NoteOnEvent(tick=0, channel=0, data=[65, 50]),
   midi.NoteOnEvent(tick=80, channel=0, data=[65, 0]),
   midi.NoteOnEvent(tick=0, channel=0, data=[67, 47]),
   midi.NoteOnEvent(tick=80, channel=0, data=[67, 0]),
   midi.NoteOnEvent(tick=0, channel=0, data=[65, 47]),
   midi.NoteOnEvent(tick=80, channel=0, data=[65, 0]),
   midi.NoteOnEvent(tick=0, channel=0, data=[57, 0]),
   midi.NoteOnEvent(tick=0, channel=0, data=[57, 43]),
   midi.NoteOnEvent(tick=0, channel=0, data=[64, 50]),
   midi.NoteOnEvent(tick=120, channel=0, data=[64, 0]),
   midi.NoteOnEvent(tick=0, channel=0, data=[62, 47]),
   midi.NoteOnEvent(tick=120, channel=0, data=[62, 0]),
   midi.NoteOnEvent(tick=0, channel=0, data=[57, 0]),
   midi.NoteOnEvent(tick=0, channel=0, data=[57, 51]),
   midi.NoteOnEvent(tick=0, channel=0, data=[65, 60]),
   midi.NoteOnEvent(tick=120, channel=0, data=[65, 0]),
   midi.NoteOnEvent(tick=0, channel=0, data=[64, 48]),
   midi.NoteOnEvent(tick=90, channel=0, data=[64, 0]),
   midi.NoteOnEvent(tick=30, channel=0, data=[57, 0]),
   midi.NoteOnEvent(tick=0, channel=0, data=[57, 48]),
   midi.NoteOnEvent(tick=0, channel=0, data=[62, 57]),
   midi.NoteOnEvent(tick=90, channel=0, data=[62, 0]),
   midi.NoteOnEvent(tick=0, channel=0, data=[57, 0]),
   midi.NoteOnEvent(tick=30, channel=0, data=[64, 48]),
   midi.NoteOnEvent(tick=90, channel=0, data=[64, 0]),
   midi.NoteOnEvent(tick=30, channel=0, data=[57, 45]),
   midi.NoteOnEvent(tick=0, channel=0, data=[60, 54]),
   midi.NoteOnEvent(tick=90, channel=0, data=[60, 0]),
   midi.NoteOnEvent(tick=0, channel=0, data=[57, 0]),
   midi.NoteOnEvent(tick=30, channel=0, data=[64, 46]),
   midi.NoteOnEvent(tick=90, channel=0, data=[64, 0]),
   midi.NoteOnEvent(tick=30, channel=0, data=[57, 39]),
   midi.NoteOnEvent(tick=0, channel=0, data=[62, 51]),
   midi.NoteOnEvent(tick=90, channel=0, data=[62, 0]),
   midi.NoteOnEvent(tick=30, channel=0, data=[64, 48]),
   midi.NoteOnEvent(tick=90, channel=0, data=[64, 0]),
   midi.NoteOnEvent(tick=30, channel=0, data=[57, 0]),
   midi.NoteOnEvent(tick=0, channel=0, data=[57, 46]),
   midi.NoteOnEvent(tick=0, channel=0, data=[65, 50]),
   midi.NoteOnEvent(tick=80, channel=0, data=[65, 0]),
   midi.NoteOnEvent(tick=0, channel=0, data=[67, 47]),
   midi.NoteOnEvent(tick=80, channel=0, data=[67, 0]),
   midi.NoteOnEvent(tick=0, channel=0, data=[65, 47]),
   midi.NoteOnEvent(tick=80, channel=0, data=[65, 0]),
   midi.NoteOnEvent(tick=0, channel=0, data=[57, 0]),
   midi.NoteOnEvent(tick=0, channel=0, data=[57, 43]),
   midi.NoteOnEvent(tick=0, channel=0, data=[64, 50]),
   midi.NoteOnEvent(tick=120, channel=0, data=[64, 0]),
   midi.NoteOnEvent(tick=0, channel=0, data=[62, 47]),
   midi.NoteOnEvent(tick=120, channel=0, data=[62, 0]),
   midi.NoteOnEvent(tick=0, channel=0, data=[57, 0]),
   midi.NoteOnEvent(tick=0, channel=0, data=[58, 51]),
   midi.NoteOnEvent(tick=0, channel=0, data=[65, 57]),
   midi.NoteOnEvent(tick=120, channel=0, data=[65, 0]),
   midi.NoteOnEvent(tick=0, channel=0, data=[64, 48]),
   midi.NoteOnEvent(tick=90, channel=0, data=[64, 0]),
   midi.NoteOnEvent(tick=30, channel=0, data=[58, 0]),
   midi.NoteOnEvent(tick=0, channel=0, data=[58, 48]),
   midi.NoteOnEvent(tick=0, channel=0, data=[62, 53]),
   midi.NoteOnEvent(tick=90, channel=0, data=[62, 0]),
   midi.NoteOnEvent(tick=0, channel=0, data=[58, 0]),
   midi.NoteOnEvent(tick=30, channel=0, data=[65, 48]),
   midi.NoteOnEvent(tick=90, channel=0, data=[65, 0]),
   midi.NoteOnEvent(tick=30, channel=0, data=[58, 45]),
   midi.NoteOnEvent(tick=0, channel=0, data=[64, 54]),
   midi.NoteOnEvent(tick=240, channel=0, data=[64, 0]),
   midi.NoteOnEvent(tick=0, channel=0, data=[58, 0]),
   midi.NoteOnEvent(tick=240, channel=0, data=[79, 67]),
   midi.NoteOnEvent(tick=0, channel=0, data=[82, 67]),
   midi.NoteOnEvent(tick=80, channel=0, data=[82, 0]),
   midi.NoteOnEvent(tick=0, channel=0, data=[84, 57]),
   midi.NoteOnEvent(tick=80, channel=0, data=[84, 0]),
   midi.NoteOnEvent(tick=0, channel=0, data=[82, 57]),
   midi.NoteOnEvent(tick=80, channel=0, data=[82, 0]),
   midi.NoteOnEvent(tick=0, channel=0, data=[79, 0]),
   midi.NoteOnEvent(tick=0, channel=0, data=[78, 65]),
   midi.NoteOnEvent(tick=0, channel=0, data=[81, 65]),
   midi.NoteOnEvent(tick=80, channel=0, data=[81, 0]),
   midi.NoteOnEvent(tick=0, channel=0, data=[82, 57]),
   midi.NoteOnEvent(tick=80, channel=0, data=[82, 0]),
   midi.NoteOnEvent(tick=0, channel=0, data=[81, 57]),
   midi.NoteOnEvent(tick=80, channel=0, data=[81, 0]),
   midi.NoteOnEvent(tick=0, channel=0, data=[78, 0]),
   midi.NoteOnEvent(tick=0, channel=0, data=[77, 66]),
   midi.NoteOnEvent(tick=0, channel=0, data=[80, 66]),
   midi.NoteOnEvent(tick=240, channel=0, data=[80, 0]),
   midi.NoteOnEvent(tick=0, channel=0, data=[77, 0]),
   midi.NoteOnEvent(tick=0, channel=0, data=[89, 78]),
   midi.NoteOnEvent(tick=60, channel=0, data=[89, 0]),
   midi.NoteOnEvent(tick=60, channel=0, data=[77, 70]),
   midi.NoteOnEvent(tick=0, channel=0, data=[80, 70]),
   midi.NoteOnEvent(tick=60, channel=0, data=[80, 0]),
   midi.NoteOnEvent(tick=0, channel=0, data=[77, 0]),
   midi.NoteOnEvent(tick=60, channel=0, data=[95, 76]),
   midi.NoteOnEvent(tick=120, channel=0, data=[95, 0]),
   midi.NoteOnEvent(tick=360, channel=0, data=[77, 67]),
   midi.NoteOnEvent(tick=0, channel=0, data=[80, 67]),
   midi.NoteOnEvent(tick=80, channel=0, data=[80, 0]),
   midi.NoteOnEvent(tick=0, channel=0, data=[82, 57]),
   midi.NoteOnEvent(tick=80, channel=0, data=[82, 0]),
   midi.NoteOnEvent(tick=0, channel=0, data=[80, 57]),
   midi.NoteOnEvent(tick=80, channel=0, data=[80, 0]),
   midi.NoteOnEvent(tick=0, channel=0, data=[77, 0]),
   midi.NoteOnEvent(tick=0, channel=0, data=[76, 65]),
   midi.NoteOnEvent(tick=0, channel=0, data=[79, 65]),
   midi.NoteOnEvent(tick=80, channel=0, data=[79, 0]),
   midi.NoteOnEvent(tick=0, channel=0, data=[80, 57]),
   midi.NoteOnEvent(tick=80, channel=0, data=[80, 0]),
   midi.NoteOnEvent(tick=0, channel=0, data=[79, 57]),
   midi.NoteOnEvent(tick=80, channel=0, data=[79, 0]),
   midi.NoteOnEvent(tick=0, channel=0, data=[76, 0]),
   midi.NoteOnEvent(tick=0, channel=0, data=[75, 66]),
   midi.NoteOnEvent(tick=0, channel=0, data=[78, 66]),
   midi.NoteOnEvent(tick=240, channel=0, data=[78, 0]),
   midi.NoteOnEvent(tick=0, channel=0, data=[75, 0]),
   midi.NoteOnEvent(tick=0, channel=0, data=[87, 78]),
   midi.NoteOnEvent(tick=60, channel=0, data=[87, 0]),
   midi.NoteOnEvent(tick=60, channel=0, data=[75, 70]),
   midi.NoteOnEvent(tick=0, channel=0, data=[78, 70]),
   midi.NoteOnEvent(tick=60, channel=0, data=[78, 0]),
   midi.NoteOnEvent(tick=0, channel=0, data=[75, 0]),
   midi.NoteOnEvent(tick=60, channel=0, data=[93, 76]),
   midi.NoteOnEvent(tick=120, channel=0, data=[93, 0]),
   midi.NoteOnEvent(tick=360, channel=0, data=[75, 58]),
   midi.NoteOnEvent(tick=0, channel=0, data=[78, 74]),
   midi.NoteOnEvent(tick=80, channel=0, data=[78, 0]),
   midi.NoteOnEvent(tick=0, channel=0, data=[80, 63]),
   midi.NoteOnEvent(tick=40, channel=0, data=[75, 0]),
   midi.NoteOnEvent(tick=40, channel=0, data=[80, 0]),
   midi.NoteOnEvent(tick=0, channel=0, data=[78, 63]),
   midi.NoteOnEvent(tick=80, channel=0, data=[78, 0]),
   midi.NoteOnEvent(tick=0, channel=0, data=[74, 56]),
   midi.NoteOnEvent(tick=0, channel=0, data=[77, 72]),
   midi.NoteOnEvent(tick=80, channel=0, data=[77, 0]),
   midi.NoteOnEvent(tick=0, channel=0, data=[78, 63]),
   midi.NoteOnEvent(tick=40, channel=0, data=[74, 0]),
   midi.NoteOnEvent(tick=40, channel=0, data=[78, 0]),
   midi.NoteOnEvent(tick=0, channel=0, data=[77, 63]),
   midi.NoteOnEvent(tick=80, channel=0, data=[77, 0]),
   midi.NoteOnEvent(tick=0, channel=0, data=[73, 54]),
   midi.NoteOnEvent(tick=0, channel=0, data=[76, 71]),
   midi.NoteOnEvent(tick=80, channel=0, data=[76, 0]),
   midi.NoteOnEvent(tick=0, channel=0, data=[78, 61]),
   midi.NoteOnEvent(tick=40, channel=0, data=[73, 0]),
   midi.NoteOnEvent(tick=40, channel=0, data=[78, 0]),
   midi.NoteOnEvent(tick=0, channel=0, data=[76, 60]),
   midi.NoteOnEvent(tick=80, channel=0, data=[76, 0]),
   midi.NoteOnEvent(tick=0, channel=0, data=[72, 54]),
   midi.NoteOnEvent(tick=0, channel=0, data=[75, 69]),
   midi.NoteOnEvent(tick=80, channel=0, data=[75, 0]),
   midi.NoteOnEvent(tick=0, channel=0, data=[77, 59]),
   midi.NoteOnEvent(tick=40, channel=0, data=[72, 0]),
   midi.NoteOnEvent(tick=40, channel=0, data=[77, 0]),
   midi.NoteOnEvent(tick=0, channel=0, data=[75, 59]),
   midi.NoteOnEvent(tick=80, channel=0, data=[75, 0]),
   midi.NoteOnEvent(tick=0, channel=0, data=[71, 52]),
   midi.NoteOnEvent(tick=0, channel=0, data=[74, 67]),
   midi.NoteOnEvent(tick=80, channel=0, data=[74, 0]),
   midi.NoteOnEvent(tick=0, channel=0, data=[75, 55]),
   midi.NoteOnEvent(tick=40, channel=0, data=[71, 0]),
   midi.NoteOnEvent(tick=40, channel=0, data=[75, 0]),
   midi.NoteOnEvent(tick=0, channel=0, data=[74, 55]),
   midi.NoteOnEvent(tick=80, channel=0, data=[74, 0]),
   midi.NoteOnEvent(tick=0, channel=0, data=[70, 51]),
   midi.NoteOnEvent(tick=0, channel=0, data=[73, 65]),
   midi.NoteOnEvent(tick=80, channel=0, data=[73, 0]),
   midi.NoteOnEvent(tick=0, channel=0, data=[75, 56]),
   midi.NoteOnEvent(tick=40, channel=0, data=[70, 0]),
   midi.NoteOnEvent(tick=40, channel=0, data=[75, 0]),
   midi.NoteOnEvent(tick=0, channel=0, data=[73, 55]),
   midi.NoteOnEvent(tick=80, channel=0, data=[73, 0]),
   midi.NoteOnEvent(tick=0, channel=0, data=[70, 49]),
   midi.NoteOnEvent(tick=0, channel=0, data=[72, 63]),
   midi.NoteOnEvent(tick=80, channel=0, data=[72, 0]),
   midi.NoteOnEvent(tick=0, channel=0, data=[74, 54]),
   midi.NoteOnEvent(tick=40, channel=0, data=[70, 0]),
   midi.NoteOnEvent(tick=40, channel=0, data=[74, 0]),
   midi.NoteOnEvent(tick=0, channel=0, data=[72, 54]),
   midi.NoteOnEvent(tick=80, channel=0, data=[72, 0]),
   midi.NoteOnEvent(tick=0, channel=0, data=[82, 68]),
   midi.NoteOnEvent(tick=0, channel=0, data=[74, 68]),
   midi.NoteOnEvent(tick=80, channel=0, data=[74, 0]),
   midi.NoteOnEvent(tick=0, channel=0, data=[72, 56]),
   midi.NoteOnEvent(tick=80, channel=0, data=[72, 0]),
   midi.NoteOnEvent(tick=0, channel=0, data=[74, 56]),
   midi.NoteOnEvent(tick=80, channel=0, data=[74, 0]),
   midi.NoteOnEvent(tick=0, channel=0, data=[82, 0]),
   midi.NoteOnEvent(tick=0, channel=0, data=[72, 61]),
   midi.NoteOnEvent(tick=0, channel=0, data=[81, 69]),
   midi.NoteOnEvent(tick=120, channel=0, data=[81, 0]),
   midi.NoteOnEvent(tick=0, channel=0, data=[72, 0]),
   midi.NoteOnEvent(tick=0, channel=0, data=[77, 48]),
   midi.NoteOnEvent(tick=60, channel=0, data=[77, 0]),
   midi.NoteOnEvent(tick=0, channel=0, data=[79, 48]),
   midi.NoteOnEvent(tick=60, channel=0, data=[79, 0]),
   midi.NoteOnEvent(tick=0, channel=0, data=[69, 57]),
   midi.NoteOnEvent(tick=0, channel=0, data=[77, 57]),
   midi.NoteOnEvent(tick=120, channel=0, data=[77, 0]),
   midi.NoteOnEvent(tick=0, channel=0, data=[74, 57]),
   midi.NoteOnEvent(tick=120, channel=0, data=[74, 0]),
   midi.NoteOnEvent(tick=0, channel=0, data=[69, 0]),
   midi.NoteOnEvent(tick=0, channel=0, data=[72, 63]),
   midi.NoteOnEvent(tick=240, channel=0, data=[72, 0]),
   midi.NoteOnEvent(tick=240, channel=0, data=[57, 46]),
   midi.NoteOnEvent(tick=0, channel=0, data=[65, 50]),
   midi.NoteOnEvent(tick=80, channel=0, data=[65, 0]),
   midi.NoteOnEvent(tick=0, channel=0, data=[67, 47]),
   midi.NoteOnEvent(tick=80, channel=0, data=[67, 0]),
   midi.NoteOnEvent(tick=0, channel=0, data=[65, 47]),
   midi.NoteOnEvent(tick=80, channel=0, data=[65, 0]),
   midi.NoteOnEvent(tick=0, channel=0, data=[57, 0]),
   midi.NoteOnEvent(tick=0, channel=0, data=[57, 43]),
   midi.NoteOnEvent(tick=0, channel=0, data=[64, 50]),
   midi.NoteOnEvent(tick=120, channel=0, data=[64, 0]),
   midi.NoteOnEvent(tick=0, channel=0, data=[62, 47]),
   midi.NoteOnEvent(tick=120, channel=0, data=[62, 0]),
   midi.NoteOnEvent(tick=0, channel=0, data=[57, 0]),
   midi.NoteOnEvent(tick=0, channel=0, data=[57, 39]),
   midi.NoteOnEvent(tick=0, channel=0, data=[65, 53]),
   midi.NoteOnEvent(tick=240, channel=0, data=[65, 0]),
   midi.NoteOnEvent(tick=0, channel=0, data=[57, 0]),
   midi.NoteOnEvent(tick=0, channel=0, data=[57, 43]),
   midi.NoteOnEvent(tick=0, channel=0, data=[64, 51]),
   midi.NoteOnEvent(tick=90, channel=0, data=[64, 0]),
   midi.NoteOnEvent(tick=0, channel=0, data=[57, 0]),
   midi.NoteOnEvent(tick=30, channel=0, data=[62, 48]),
   midi.NoteOnEvent(tick=90, channel=0, data=[62, 0]),
   midi.NoteOnEvent(tick=30, channel=0, data=[57, 43]),
   midi.NoteOnEvent(tick=0, channel=0, data=[60, 49]),
   midi.NoteOnEvent(tick=90, channel=0, data=[60, 0]),
   midi.NoteOnEvent(tick=0, channel=0, data=[57, 0]),
   midi.NoteOnEvent(tick=30, channel=0, data=[64, 46]),
   midi.NoteOnEvent(tick=90, channel=0, data=[64, 0]),
   midi.NoteOnEvent(tick=30, channel=0, data=[57, 39]),
   midi.NoteOnEvent(tick=0, channel=0, data=[62, 51]),
   midi.NoteOnEvent(tick=90, channel=0, data=[62, 0]),
   midi.NoteOnEvent(tick=30, channel=0, data=[64, 48]),
   midi.NoteOnEvent(tick=90, channel=0, data=[64, 0]),
   midi.NoteOnEvent(tick=30, channel=0, data=[57, 0]),
   midi.NoteOnEvent(tick=0, channel=0, data=[57, 46]),
   midi.NoteOnEvent(tick=0, channel=0, data=[65, 50]),
   midi.NoteOnEvent(tick=80, channel=0, data=[65, 0]),
   midi.NoteOnEvent(tick=0, channel=0, data=[67, 47]),
   midi.NoteOnEvent(tick=80, channel=0, data=[67, 0]),
   midi.NoteOnEvent(tick=0, channel=0, data=[65, 47]),
   midi.NoteOnEvent(tick=80, channel=0, data=[65, 0]),
   midi.NoteOnEvent(tick=0, channel=0, data=[57, 0]),
   midi.NoteOnEvent(tick=0, channel=0, data=[57, 43]),
   midi.NoteOnEvent(tick=0, channel=0, data=[64, 50]),
   midi.NoteOnEvent(tick=120, channel=0, data=[64, 0]),
   midi.NoteOnEvent(tick=0, channel=0, data=[62, 47]),
   midi.NoteOnEvent(tick=120, channel=0, data=[62, 0]),
   midi.NoteOnEvent(tick=0, channel=0, data=[57, 0]),
   midi.NoteOnEvent(tick=0, channel=0, data=[57, 39]),
   midi.NoteOnEvent(tick=0, channel=0, data=[65, 53]),
   midi.NoteOnEvent(tick=240, channel=0, data=[65, 0]),
   midi.NoteOnEvent(tick=0, channel=0, data=[57, 0]),
   midi.NoteOnEvent(tick=0, channel=0, data=[57, 43]),
   midi.NoteOnEvent(tick=0, channel=0, data=[64, 51]),
   midi.NoteOnEvent(tick=90, channel=0, data=[64, 0]),
   midi.NoteOnEvent(tick=0, channel=0, data=[57, 0]),
   midi.NoteOnEvent(tick=30, channel=0, data=[62, 48]),
   midi.NoteOnEvent(tick=90, channel=0, data=[62, 0]),
   midi.NoteOnEvent(tick=30, channel=0, data=[57, 43]),
   midi.NoteOnEvent(tick=0, channel=0, data=[60, 49]),
   midi.NoteOnEvent(tick=90, channel=0, data=[60, 0]),
   midi.NoteOnEvent(tick=0, channel=0, data=[57, 0]),
   midi.NoteOnEvent(tick=30, channel=0, data=[64, 46]),
   midi.NoteOnEvent(tick=90, channel=0, data=[64, 0]),
   midi.NoteOnEvent(tick=30, channel=0, data=[57, 39]),
   midi.NoteOnEvent(tick=0, channel=0, data=[62, 51]),
   midi.NoteOnEvent(tick=90, channel=0, data=[62, 0]),
   midi.NoteOnEvent(tick=30, channel=0, data=[64, 48]),
   midi.NoteOnEvent(tick=90, channel=0, data=[64, 0]),
   midi.NoteOnEvent(tick=30, channel=0, data=[57, 0]),
   midi.NoteOnEvent(tick=0, channel=0, data=[57, 46]),
   midi.NoteOnEvent(tick=0, channel=0, data=[65, 50]),
   midi.NoteOnEvent(tick=80, channel=0, data=[65, 0]),
   midi.NoteOnEvent(tick=0, channel=0, data=[67, 47]),
   midi.NoteOnEvent(tick=80, channel=0, data=[67, 0]),
   midi.NoteOnEvent(tick=0, channel=0, data=[65, 47]),
   midi.NoteOnEvent(tick=80, channel=0, data=[65, 0]),
   midi.NoteOnEvent(tick=0, channel=0, data=[57, 0]),
   midi.NoteOnEvent(tick=0, channel=0, data=[57, 43]),
   midi.NoteOnEvent(tick=0, channel=0, data=[64, 50]),
   midi.NoteOnEvent(tick=120, channel=0, data=[64, 0]),
   midi.NoteOnEvent(tick=0, channel=0, data=[62, 47]),
   midi.NoteOnEvent(tick=120, channel=0, data=[62, 0]),
   midi.NoteOnEvent(tick=0, channel=0, data=[57, 0]),
   midi.NoteOnEvent(tick=0, channel=0, data=[57, 51]),
   midi.NoteOnEvent(tick=0, channel=0, data=[65, 60]),
   midi.NoteOnEvent(tick=120, channel=0, data=[65, 0]),
   midi.NoteOnEvent(tick=0, channel=0, data=[64, 48]),
   midi.NoteOnEvent(tick=90, channel=0, data=[64, 0]),
   midi.NoteOnEvent(tick=30, channel=0, data=[57, 0]),
   midi.NoteOnEvent(tick=0, channel=0, data=[57, 48]),
   midi.NoteOnEvent(tick=0, channel=0, data=[62, 57]),
   midi.NoteOnEvent(tick=90, channel=0, data=[62, 0]),
   midi.NoteOnEvent(tick=0, channel=0, data=[57, 0]),
   midi.NoteOnEvent(tick=30, channel=0, data=[64, 48]),
   midi.NoteOnEvent(tick=90, channel=0, data=[64, 0]),
   midi.NoteOnEvent(tick=30, channel=0, data=[57, 45]),
   midi.NoteOnEvent(tick=0, channel=0, data=[60, 54]),
   midi.NoteOnEvent(tick=90, channel=0, data=[60, 0]),
   midi.NoteOnEvent(tick=0, channel=0, data=[57, 0]),
   midi.NoteOnEvent(tick=30, channel=0, data=[64, 46]),
   midi.NoteOnEvent(tick=90, channel=0, data=[64, 0]),
   midi.NoteOnEvent(tick=30, channel=0, data=[57, 39]),
   midi.NoteOnEvent(tick=0, channel=0, data=[62, 51]),
   midi.NoteOnEvent(tick=90, channel=0, data=[62, 0]),
   midi.NoteOnEvent(tick=30, channel=0, data=[64, 48]),
   midi.NoteOnEvent(tick=90, channel=0, data=[64, 0]),
   midi.NoteOnEvent(tick=30, channel=0, data=[57, 0]),
   midi.NoteOnEvent(tick=0, channel=0, data=[57, 46]),
   midi.NoteOnEvent(tick=0, channel=0, data=[65, 50]),
   midi.NoteOnEvent(tick=80, channel=0, data=[65, 0]),
   midi.NoteOnEvent(tick=0, channel=0, data=[67, 47]),
   midi.NoteOnEvent(tick=80, channel=0, data=[67, 0]),
   midi.NoteOnEvent(tick=0, channel=0, data=[65, 47]),
   midi.NoteOnEvent(tick=80, channel=0, data=[65, 0]),
   midi.NoteOnEvent(tick=0, channel=0, data=[57, 0]),
   midi.NoteOnEvent(tick=0, channel=0, data=[57, 43]),
   midi.NoteOnEvent(tick=0, channel=0, data=[64, 50]),
   midi.NoteOnEvent(tick=120, channel=0, data=[64, 0]),
   midi.NoteOnEvent(tick=0, channel=0, data=[62, 47]),
   midi.NoteOnEvent(tick=120, channel=0, data=[62, 0]),
   midi.NoteOnEvent(tick=0, channel=0, data=[57, 0]),
   midi.NoteOnEvent(tick=0, channel=0, data=[58, 51]),
   midi.NoteOnEvent(tick=0, channel=0, data=[65, 57]),
   midi.NoteOnEvent(tick=120, channel=0, data=[65, 0]),
   midi.NoteOnEvent(tick=0, channel=0, data=[64, 48]),
   midi.NoteOnEvent(tick=90, channel=0, data=[64, 0]),
   midi.NoteOnEvent(tick=30, channel=0, data=[58, 0]),
   midi.NoteOnEvent(tick=0, channel=0, data=[58, 48]),
   midi.NoteOnEvent(tick=0, channel=0, data=[62, 53]),
   midi.NoteOnEvent(tick=90, channel=0, data=[62, 0]),
   midi.NoteOnEvent(tick=0, channel=0, data=[58, 0]),
   midi.NoteOnEvent(tick=30, channel=0, data=[65, 48]),
   midi.NoteOnEvent(tick=90, channel=0, data=[65, 0]),
   midi.NoteOnEvent(tick=30, channel=0, data=[58, 45]),
   midi.NoteOnEvent(tick=0, channel=0, data=[64, 54]),
   midi.NoteOnEvent(tick=240, channel=0, data=[64, 0]),
   midi.NoteOnEvent(tick=0, channel=0, data=[58, 0]),
   midi.NoteOnEvent(tick=240, channel=0, data=[79, 69]),
   midi.NoteOnEvent(tick=0, channel=0, data=[82, 69]),
   midi.NoteOnEvent(tick=80, channel=0, data=[82, 0]),
   midi.NoteOnEvent(tick=0, channel=0, data=[84, 58]),
   midi.NoteOnEvent(tick=80, channel=0, data=[84, 0]),
   midi.NoteOnEvent(tick=0, channel=0, data=[82, 58]),
   midi.NoteOnEvent(tick=80, channel=0, data=[82, 0]),
   midi.NoteOnEvent(tick=0, channel=0, data=[79, 0]),
   midi.NoteOnEvent(tick=0, channel=0, data=[79, 67]),
   midi.NoteOnEvent(tick=80, channel=0, data=[79, 0]),
   midi.NoteOnEvent(tick=0, channel=0, data=[81, 58]),
   midi.NoteOnEvent(tick=80, channel=0, data=[81, 0]),
   midi.NoteOnEvent(tick=0, channel=0, data=[79, 58]),
   midi.NoteOnEvent(tick=80, channel=0, data=[79, 0]),
   midi.NoteOnEvent(tick=0, channel=0, data=[76, 68]),
   midi.NoteOnEvent(tick=240, channel=0, data=[76, 0]),
   midi.NoteOnEvent(tick=0, channel=0, data=[86, 71]),
   midi.NoteOnEvent(tick=0, channel=0, data=[88, 76]),
   midi.NoteOnEvent(tick=120, channel=0, data=[88, 0]),
   midi.NoteOnEvent(tick=0, channel=0, data=[86, 0]),
   midi.NoteOnEvent(tick=0, channel=0, data=[79, 68]),
   midi.NoteOnEvent(tick=120, channel=0, data=[79, 0]),
   midi.NoteOnEvent(tick=0, channel=0, data=[91, 74]),
   midi.NoteOnEvent(tick=240, channel=0, data=[91, 0]),
   midi.NoteOnEvent(tick=240, channel=0, data=[76, 69]),
   midi.NoteOnEvent(tick=0, channel=0, data=[79, 69]),
   midi.NoteOnEvent(tick=80, channel=0, data=[79, 0]),
   midi.NoteOnEvent(tick=0, channel=0, data=[81, 58]),
   midi.NoteOnEvent(tick=80, channel=0, data=[81, 0]),
   midi.NoteOnEvent(tick=0, channel=0, data=[79, 58]),
   midi.NoteOnEvent(tick=80, channel=0, data=[79, 0]),
   midi.NoteOnEvent(tick=0, channel=0, data=[76, 0]),
   midi.NoteOnEvent(tick=0, channel=0, data=[76, 67]),
   midi.NoteOnEvent(tick=80, channel=0, data=[76, 0]),
   midi.NoteOnEvent(tick=0, channel=0, data=[77, 58]),
   midi.NoteOnEvent(tick=80, channel=0, data=[77, 0]),
   midi.NoteOnEvent(tick=0, channel=0, data=[76, 58]),
   midi.NoteOnEvent(tick=80, channel=0, data=[76, 0]),
   midi.NoteOnEvent(tick=0, channel=0, data=[73, 68]),
   midi.NoteOnEvent(tick=240, channel=0, data=[73, 0]),
   midi.NoteOnEvent(tick=0, channel=0, data=[81, 69]),
   midi.NoteOnEvent(tick=0, channel=0, data=[88, 73]),
   midi.NoteOnEvent(tick=120, channel=0, data=[88, 0]),
   midi.NoteOnEvent(tick=0, channel=0, data=[81, 0]),
   midi.NoteOnEvent(tick=0, channel=0, data=[79, 65]),
   midi.NoteOnEvent(tick=120, channel=0, data=[79, 0]),
   midi.NoteOnEvent(tick=0, channel=0, data=[85, 48]),
   midi.NoteOnEvent(tick=0, channel=0, data=[93, 70]),
   midi.NoteOnEvent(tick=240, channel=0, data=[93, 0]),
   midi.NoteOnEvent(tick=0, channel=0, data=[85, 0]),
   midi.NoteOnEvent(tick=240, channel=0, data=[70, 59]),
   midi.NoteOnEvent(tick=0, channel=0, data=[76, 76]),
   midi.NoteOnEvent(tick=80, channel=0, data=[76, 0]),
   midi.NoteOnEvent(tick=0, channel=0, data=[77, 65]),
   midi.NoteOnEvent(tick=40, channel=0, data=[70, 0]),
   midi.NoteOnEvent(tick=40, channel=0, data=[77, 0]),
   midi.NoteOnEvent(tick=0, channel=0, data=[76, 65]),
   midi.NoteOnEvent(tick=80, channel=0, data=[76, 0]),
   midi.NoteOnEvent(tick=0, channel=0, data=[69, 57]),
   midi.NoteOnEvent(tick=0, channel=0, data=[74, 75]),
   midi.NoteOnEvent(tick=80, channel=0, data=[74, 0]),
   midi.NoteOnEvent(tick=0, channel=0, data=[76, 65]),
   midi.NoteOnEvent(tick=40, channel=0, data=[69, 0]),
   midi.NoteOnEvent(tick=40, channel=0, data=[76, 0]),
   midi.NoteOnEvent(tick=0, channel=0, data=[74, 65]),
   midi.NoteOnEvent(tick=80, channel=0, data=[74, 0]),
   midi.NoteOnEvent(tick=0, channel=0, data=[67, 56]),
   midi.NoteOnEvent(tick=0, channel=0, data=[73, 74]),
   midi.NoteOnEvent(tick=80, channel=0, data=[73, 0]),
   midi.NoteOnEvent(tick=0, channel=0, data=[74, 63]),
   midi.NoteOnEvent(tick=40, channel=0, data=[67, 0]),
   midi.NoteOnEvent(tick=40, channel=0, data=[74, 0]),
   midi.NoteOnEvent(tick=0, channel=0, data=[73, 62]),
   midi.NoteOnEvent(tick=80, channel=0, data=[73, 0]),
   midi.NoteOnEvent(tick=0, channel=0, data=[65, 56]),
   midi.NoteOnEvent(tick=0, channel=0, data=[70, 71]),
   midi.NoteOnEvent(tick=80, channel=0, data=[70, 0]),
   midi.NoteOnEvent(tick=0, channel=0, data=[72, 60]),
   midi.NoteOnEvent(tick=40, channel=0, data=[65, 0]),
   midi.NoteOnEvent(tick=40, channel=0, data=[72, 0]),
   midi.NoteOnEvent(tick=0, channel=0, data=[70, 60]),
   midi.NoteOnEvent(tick=80, channel=0, data=[70, 0]),
   midi.NoteOnEvent(tick=0, channel=0, data=[64, 54]),
   midi.NoteOnEvent(tick=0, channel=0, data=[69, 69]),
   midi.NoteOnEvent(tick=80, channel=0, data=[69, 0]),
   midi.NoteOnEvent(tick=0, channel=0, data=[70, 57]),
   midi.NoteOnEvent(tick=40, channel=0, data=[64, 0]),
   midi.NoteOnEvent(tick=40, channel=0, data=[70, 0]),
   midi.NoteOnEvent(tick=0, channel=0, data=[69, 57]),
   midi.NoteOnEvent(tick=80, channel=0, data=[69, 0]),
   midi.NoteOnEvent(tick=0, channel=0, data=[61, 53]),
   midi.NoteOnEvent(tick=0, channel=0, data=[67, 67]),
   midi.NoteOnEvent(tick=80, channel=0, data=[67, 0]),
   midi.NoteOnEvent(tick=0, channel=0, data=[69, 57]),
   midi.NoteOnEvent(tick=80, channel=0, data=[69, 0]),
   midi.NoteOnEvent(tick=0, channel=0, data=[67, 57]),
   midi.NoteOnEvent(tick=80, channel=0, data=[67, 0]),
   midi.NoteOnEvent(tick=0, channel=0, data=[65, 65]),
   midi.NoteOnEvent(tick=80, channel=0, data=[65, 0]),
   midi.NoteOnEvent(tick=0, channel=0, data=[67, 56]),
   midi.NoteOnEvent(tick=80, channel=0, data=[67, 0]),
   midi.NoteOnEvent(tick=0, channel=0, data=[65, 56]),
   midi.NoteOnEvent(tick=80, channel=0, data=[65, 0]),
   midi.NoteOnEvent(tick=0, channel=0, data=[64, 63]),
   midi.NoteOnEvent(tick=80, channel=0, data=[64, 0]),
   midi.NoteOnEvent(tick=0, channel=0, data=[65, 54]),
   midi.NoteOnEvent(tick=80, channel=0, data=[65, 0]),
   midi.NoteOnEvent(tick=0, channel=0, data=[64, 54]),
   midi.NoteOnEvent(tick=80, channel=0, data=[64, 0]),
   midi.NoteOnEvent(tick=0, channel=0, data=[61, 0]),
   midi.NoteOnEvent(tick=240, channel=0, data=[74, 68]),
   midi.NoteOnEvent(tick=0, channel=0, data=[77, 68]),
   midi.NoteOnEvent(tick=0, channel=0, data=[81, 68]),
   midi.NoteOnEvent(tick=120, channel=0, data=[81, 0]),
   midi.NoteOnEvent(tick=0, channel=0, data=[77, 0]),
   midi.NoteOnEvent(tick=0, channel=0, data=[74, 0]),
   midi.NoteOnEvent(tick=0, channel=0, data=[69, 60]),
   midi.NoteOnEvent(tick=120, channel=0, data=[69, 0]),
   midi.NoteOnEvent(tick=480, channel=0, data=[75, 39]),
   midi.NoteOnEvent(tick=0, channel=0, data=[81, 50]),
   midi.NoteOnEvent(tick=80, channel=0, data=[81, 0]),
   midi.NoteOnEvent(tick=0, channel=0, data=[82, 47]),
   midi.NoteOnEvent(tick=80, channel=0, data=[82, 0]),
   midi.NoteOnEvent(tick=0, channel=0, data=[81, 47]),
   midi.NoteOnEvent(tick=80, channel=0, data=[81, 0]),
   midi.NoteOnEvent(tick=0, channel=0, data=[79, 50]),
   midi.NoteOnEvent(tick=120, channel=0, data=[79, 0]),
   midi.NoteOnEvent(tick=0, channel=0, data=[78, 47]),
   midi.NoteOnEvent(tick=120, channel=0, data=[78, 0]),
   midi.NoteOnEvent(tick=0, channel=0, data=[75, 0]),
   midi.NoteOnEvent(tick=0, channel=0, data=[74, 39]),
   midi.NoteOnEvent(tick=0, channel=0, data=[81, 53]),
   midi.NoteOnEvent(tick=240, channel=0, data=[81, 0]),
   midi.NoteOnEvent(tick=0, channel=0, data=[74, 0]),
   midi.NoteOnEvent(tick=0, channel=0, data=[74, 39]),
   midi.NoteOnEvent(tick=0, channel=0, data=[79, 51]),
   midi.NoteOnEvent(tick=90, channel=0, data=[79, 0]),
   midi.NoteOnEvent(tick=30, channel=0, data=[77, 48]),
   midi.NoteOnEvent(tick=90, channel=0, data=[77, 0]),
   midi.NoteOnEvent(tick=30, channel=0, data=[76, 49]),
   midi.NoteOnEvent(tick=90, channel=0, data=[76, 0]),
   midi.NoteOnEvent(tick=30, channel=0, data=[77, 46]),
   midi.NoteOnEvent(tick=90, channel=0, data=[77, 0]),
   midi.NoteOnEvent(tick=30, channel=0, data=[74, 0]),
   midi.NoteOnEvent(tick=0, channel=0, data=[73, 39]),
   midi.NoteOnEvent(tick=0, channel=0, data=[76, 51]),
   midi.NoteOnEvent(tick=90, channel=0, data=[76, 0]),
   midi.NoteOnEvent(tick=30, channel=0, data=[77, 48]),
   midi.NoteOnEvent(tick=90, channel=0, data=[77, 0]),
   midi.NoteOnEvent(tick=30, channel=0, data=[73, 0]),
   midi.NoteOnEvent(tick=0, channel=0, data=[73, 46]),
   midi.NoteOnEvent(tick=0, channel=0, data=[79, 50]),
   midi.NoteOnEvent(tick=80, channel=0, data=[79, 0]),
   midi.NoteOnEvent(tick=0, channel=0, data=[81, 47]),
   midi.NoteOnEvent(tick=80, channel=0, data=[81, 0]),
   midi.NoteOnEvent(tick=0, channel=0, data=[79, 47]),
   midi.NoteOnEvent(tick=80, channel=0, data=[79, 0]),
   midi.NoteOnEvent(tick=0, channel=0, data=[73, 0]),
   midi.NoteOnEvent(tick=0, channel=0, data=[73, 43]),
   midi.NoteOnEvent(tick=0, channel=0, data=[77, 50]),
   midi.NoteOnEvent(tick=120, channel=0, data=[77, 0]),
   midi.NoteOnEvent(tick=0, channel=0, data=[76, 47]),
   midi.NoteOnEvent(tick=120, channel=0, data=[76, 0]),
   midi.NoteOnEvent(tick=0, channel=0, data=[73, 0]),
   midi.NoteOnEvent(tick=0, channel=0, data=[73, 39]),
   midi.NoteOnEvent(tick=0, channel=0, data=[79, 53]),
   midi.NoteOnEvent(tick=240, channel=0, data=[79, 0]),
   midi.NoteOnEvent(tick=0, channel=0, data=[76, 51]),
   midi.NoteOnEvent(tick=90, channel=0, data=[76, 0]),
   midi.NoteOnEvent(tick=30, channel=0, data=[77, 48]),
   midi.NoteOnEvent(tick=90, channel=0, data=[77, 0]),
   midi.NoteOnEvent(tick=30, channel=0, data=[73, 0]),
   midi.NoteOnEvent(tick=0, channel=0, data=[69, 43]),
   midi.NoteOnEvent(tick=0, channel=0, data=[74, 49]),
   midi.NoteOnEvent(tick=240, channel=0, data=[74, 0]),
   midi.NoteOnEvent(tick=0, channel=0, data=[69, 0]),
   midi.NoteOnEvent(tick=240, channel=0, data=[75, 39]),
   midi.NoteOnEvent(tick=0, channel=0, data=[81, 50]),
   midi.NoteOnEvent(tick=80, channel=0, data=[81, 0]),
   midi.NoteOnEvent(tick=0, channel=0, data=[82, 47]),
   midi.NoteOnEvent(tick=80, channel=0, data=[82, 0]),
   midi.NoteOnEvent(tick=0, channel=0, data=[81, 47]),
   midi.NoteOnEvent(tick=80, channel=0, data=[81, 0]),
   midi.NoteOnEvent(tick=0, channel=0, data=[79, 50]),
   midi.NoteOnEvent(tick=120, channel=0, data=[79, 0]),
   midi.NoteOnEvent(tick=0, channel=0, data=[78, 47]),
   midi.NoteOnEvent(tick=120, channel=0, data=[78, 0]),
   midi.NoteOnEvent(tick=0, channel=0, data=[75, 0]),
   midi.NoteOnEvent(tick=0, channel=0, data=[74, 39]),
   midi.NoteOnEvent(tick=0, channel=0, data=[81, 53]),
   midi.NoteOnEvent(tick=240, channel=0, data=[81, 0]),
   midi.NoteOnEvent(tick=0, channel=0, data=[74, 0]),
   midi.NoteOnEvent(tick=0, channel=0, data=[74, 39]),
   midi.NoteOnEvent(tick=0, channel=0, data=[79, 51]),
   midi.NoteOnEvent(tick=90, channel=0, data=[79, 0]),
   midi.NoteOnEvent(tick=30, channel=0, data=[77, 48]),
   midi.NoteOnEvent(tick=90, channel=0, data=[77, 0]),
   midi.NoteOnEvent(tick=30, channel=0, data=[76, 49]),
   midi.NoteOnEvent(tick=90, channel=0, data=[76, 0]),
   midi.NoteOnEvent(tick=30, channel=0, data=[77, 46]),
   midi.NoteOnEvent(tick=90, channel=0, data=[77, 0]),
   midi.NoteOnEvent(tick=30, channel=0, data=[74, 0]),
   midi.NoteOnEvent(tick=0, channel=0, data=[73, 39]),
   midi.NoteOnEvent(tick=0, channel=0, data=[76, 51]),
   midi.NoteOnEvent(tick=90, channel=0, data=[76, 0]),
   midi.NoteOnEvent(tick=30, channel=0, data=[77, 48]),
   midi.NoteOnEvent(tick=90, channel=0, data=[77, 0]),
   midi.NoteOnEvent(tick=30, channel=0, data=[73, 0]),
   midi.NoteOnEvent(tick=0, channel=0, data=[73, 46]),
   midi.NoteOnEvent(tick=0, channel=0, data=[79, 50]),
   midi.NoteOnEvent(tick=80, channel=0, data=[79, 0]),
   midi.NoteOnEvent(tick=0, channel=0, data=[81, 47]),
   midi.NoteOnEvent(tick=80, channel=0, data=[81, 0]),
   midi.NoteOnEvent(tick=0, channel=0, data=[79, 47]),
   midi.NoteOnEvent(tick=80, channel=0, data=[79, 0]),
   midi.NoteOnEvent(tick=0, channel=0, data=[73, 0]),
   midi.NoteOnEvent(tick=0, channel=0, data=[73, 43]),
   midi.NoteOnEvent(tick=0, channel=0, data=[77, 50]),
   midi.NoteOnEvent(tick=120, channel=0, data=[77, 0]),
   midi.NoteOnEvent(tick=0, channel=0, data=[76, 47]),
   midi.NoteOnEvent(tick=120, channel=0, data=[76, 0]),
   midi.NoteOnEvent(tick=0, channel=0, data=[73, 0]),
   midi.NoteOnEvent(tick=0, channel=0, data=[73, 39]),
   midi.NoteOnEvent(tick=0, channel=0, data=[79, 53]),
   midi.NoteOnEvent(tick=240, channel=0, data=[79, 0]),
   midi.NoteOnEvent(tick=0, channel=0, data=[76, 51]),
   midi.NoteOnEvent(tick=90, channel=0, data=[76, 0]),
   midi.NoteOnEvent(tick=30, channel=0, data=[77, 48]),
   midi.NoteOnEvent(tick=90, channel=0, data=[77, 0]),
   midi.NoteOnEvent(tick=30, channel=0, data=[73, 0]),
   midi.NoteOnEvent(tick=0, channel=0, data=[69, 43]),
   midi.NoteOnEvent(tick=0, channel=0, data=[74, 49]),
   midi.NoteOnEvent(tick=240, channel=0, data=[74, 0]),
   midi.NoteOnEvent(tick=0, channel=0, data=[69, 0]),
   midi.NoteOnEvent(tick=240, channel=0, data=[75, 57]),
   midi.NoteOnEvent(tick=0, channel=0, data=[81, 57]),
   midi.NoteOnEvent(tick=80, channel=0, data=[81, 0]),
   midi.NoteOnEvent(tick=0, channel=0, data=[82, 48]),
   midi.NoteOnEvent(tick=80, channel=0, data=[82, 0]),
   midi.NoteOnEvent(tick=0, channel=0, data=[81, 48]),
   midi.NoteOnEvent(tick=80, channel=0, data=[81, 0]),
   midi.NoteOnEvent(tick=0, channel=0, data=[75, 0]),
   midi.NoteOnEvent(tick=0, channel=0, data=[79, 55]),
   midi.NoteOnEvent(tick=120, channel=0, data=[79, 0]),
   midi.NoteOnEvent(tick=0, channel=0, data=[78, 48]),
   midi.NoteOnEvent(tick=120, channel=0, data=[78, 0]),
   midi.NoteOnEvent(tick=0, channel=0, data=[75, 56]),
   midi.NoteOnEvent(tick=0, channel=0, data=[81, 56]),
   midi.NoteOnEvent(tick=120, channel=0, data=[81, 0]),
   midi.NoteOnEvent(tick=0, channel=0, data=[75, 0]),
   midi.NoteOnEvent(tick=120, channel=0, data=[81, 59]),
   midi.NoteOnEvent(tick=0, channel=0, data=[87, 59]),
   midi.NoteOnEvent(tick=120, channel=0, data=[87, 0]),
   midi.NoteOnEvent(tick=0, channel=0, data=[81, 0]),
   midi.NoteOnEvent(tick=0, channel=0, data=[75, 57]),
   midi.NoteOnEvent(tick=120, channel=0, data=[75, 0]),
   midi.NoteOnEvent(tick=0, channel=0, data=[93, 63]),
   midi.NoteOnEvent(tick=120, channel=0, data=[93, 0]),
   midi.NoteOnEvent(tick=360, channel=0, data=[75, 60]),
   midi.NoteOnEvent(tick=0, channel=0, data=[81, 60]),
   midi.NoteOnEvent(tick=80, channel=0, data=[81, 0]),
   midi.NoteOnEvent(tick=0, channel=0, data=[82, 51]),
   midi.NoteOnEvent(tick=80, channel=0, data=[82, 0]),
   midi.NoteOnEvent(tick=0, channel=0, data=[81, 51]),
   midi.NoteOnEvent(tick=80, channel=0, data=[81, 0]),
   midi.NoteOnEvent(tick=0, channel=0, data=[75, 0]),
   midi.NoteOnEvent(tick=0, channel=0, data=[79, 58]),
   midi.NoteOnEvent(tick=120, channel=0, data=[79, 0]),
   midi.NoteOnEvent(tick=0, channel=0, data=[78, 51]),
   midi.NoteOnEvent(tick=120, channel=0, data=[78, 0]),
   midi.NoteOnEvent(tick=0, channel=0, data=[75, 59]),
   midi.NoteOnEvent(tick=0, channel=0, data=[81, 59]),
   midi.NoteOnEvent(tick=120, channel=0, data=[81, 0]),
   midi.NoteOnEvent(tick=0, channel=0, data=[75, 0]),
   midi.NoteOnEvent(tick=120, channel=0, data=[81, 63]),
   midi.NoteOnEvent(tick=0, channel=0, data=[87, 63]),
   midi.NoteOnEvent(tick=120, channel=0, data=[87, 0]),
   midi.NoteOnEvent(tick=0, channel=0, data=[81, 0]),
   midi.NoteOnEvent(tick=0, channel=0, data=[75, 57]),
   midi.NoteOnEvent(tick=120, channel=0, data=[75, 0]),
   midi.NoteOnEvent(tick=0, channel=0, data=[93, 65]),
   midi.NoteOnEvent(tick=120, channel=0, data=[93, 0]),
   midi.NoteOnEvent(tick=360, channel=0, data=[75, 63]),
   midi.NoteOnEvent(tick=0, channel=0, data=[81, 63]),
   midi.NoteOnEvent(tick=80, channel=0, data=[81, 0]),
   midi.NoteOnEvent(tick=0, channel=0, data=[82, 53]),
   midi.NoteOnEvent(tick=80, channel=0, data=[82, 0]),
   midi.NoteOnEvent(tick=0, channel=0, data=[81, 53]),
   midi.NoteOnEvent(tick=80, channel=0, data=[81, 0]),
   midi.NoteOnEvent(tick=0, channel=0, data=[75, 0]),
   midi.NoteOnEvent(tick=0, channel=0, data=[79, 60]),
   midi.NoteOnEvent(tick=120, channel=0, data=[79, 0]),
   midi.NoteOnEvent(tick=0, channel=0, data=[78, 53]),
   midi.NoteOnEvent(tick=120, channel=0, data=[78, 0]),
   midi.NoteOnEvent(tick=0, channel=0, data=[75, 60]),
   midi.NoteOnEvent(tick=0, channel=0, data=[81, 60]),
   midi.NoteOnEvent(tick=120, channel=0, data=[81, 0]),
   midi.NoteOnEvent(tick=0, channel=0, data=[75, 0]),
   midi.NoteOnEvent(tick=120, channel=0, data=[75, 64]),
   midi.NoteOnEvent(tick=0, channel=0, data=[81, 64]),
   midi.NoteOnEvent(tick=80, channel=0, data=[81, 0]),
   midi.NoteOnEvent(tick=0, channel=0, data=[82, 54]),
   midi.NoteOnEvent(tick=80, channel=0, data=[82, 0]),
   midi.NoteOnEvent(tick=0, channel=0, data=[81, 53]),
   midi.NoteOnEvent(tick=80, channel=0, data=[81, 0]),
   midi.NoteOnEvent(tick=0, channel=0, data=[75, 0]),
   midi.NoteOnEvent(tick=0, channel=0, data=[79, 60]),
   midi.NoteOnEvent(tick=120, channel=0, data=[79, 0]),
   midi.NoteOnEvent(tick=0, channel=0, data=[78, 52]),
   midi.NoteOnEvent(tick=120, channel=0, data=[78, 0]),
   midi.NoteOnEvent(tick=0, channel=0, data=[75, 60]),
   midi.NoteOnEvent(tick=0, channel=0, data=[81, 60]),
   midi.NoteOnEvent(tick=120, channel=0, data=[81, 0]),
   midi.NoteOnEvent(tick=0, channel=0, data=[75, 0]),
   midi.NoteOnEvent(tick=120, channel=0, data=[75, 74]),
   midi.NoteOnEvent(tick=0, channel=0, data=[81, 74]),
   midi.NoteOnEvent(tick=80, channel=0, data=[81, 0]),
   midi.NoteOnEvent(tick=0, channel=0, data=[83, 65]),
   midi.NoteOnEvent(tick=80, channel=0, data=[83, 0]),
   midi.NoteOnEvent(tick=0, channel=0, data=[81, 66]),
   midi.NoteOnEvent(tick=80, channel=0, data=[81, 0]),
   midi.NoteOnEvent(tick=0, channel=0, data=[75, 0]),
   midi.NoteOnEvent(tick=0, channel=0, data=[80, 72]),
   midi.NoteOnEvent(tick=120, channel=0, data=[80, 0]),
   midi.NoteOnEvent(tick=0, channel=0, data=[81, 67]),
   midi.NoteOnEvent(tick=120, channel=0, data=[81, 0]),
   midi.NoteOnEvent(tick=0, channel=0, data=[75, 83]),
   midi.NoteOnEvent(tick=0, channel=0, data=[81, 83]),
   midi.NoteOnEvent(tick=0, channel=0, data=[87, 83]),
   midi.NoteOnEvent(tick=120, channel=0, data=[87, 0]),
   midi.NoteOnEvent(tick=0, channel=0, data=[81, 0]),
   midi.NoteOnEvent(tick=0, channel=0, data=[75, 0]),
   midi.NoteOnEvent(tick=120, channel=0, data=[87, 81]),
   midi.NoteOnEvent(tick=0, channel=0, data=[93, 81]),
   midi.NoteOnEvent(tick=80, channel=0, data=[93, 0]),
   midi.NoteOnEvent(tick=0, channel=0, data=[95, 71]),
   midi.NoteOnEvent(tick=80, channel=0, data=[95, 0]),
   midi.NoteOnEvent(tick=0, channel=0, data=[93, 72]),
   midi.NoteOnEvent(tick=80, channel=0, data=[93, 0]),
   midi.NoteOnEvent(tick=0, channel=0, data=[87, 0]),
   midi.NoteOnEvent(tick=0, channel=0, data=[92, 79]),
   midi.NoteOnEvent(tick=120, channel=0, data=[92, 0]),
   midi.NoteOnEvent(tick=0, channel=0, data=[93, 73]),
   midi.NoteOnEvent(tick=90, channel=0, data=[93, 0]),
   midi.NoteOnEvent(tick=0, channel=0, data=[93, 74]),
   midi.NoteOnEvent(tick=15, channel=0, data=[97, 78]),
   midi.NoteOnEvent(tick=15, channel=0, data=[100, 95]),
   midi.NoteOnEvent(tick=210, channel=0, data=[100, 0]),
   midi.NoteOnEvent(tick=0, channel=0, data=[97, 0]),
   midi.NoteOnEvent(tick=0, channel=0, data=[93, 0]),
   midi.NoteOnEvent(tick=0, channel=0, data=[81, 38]),
   midi.NoteOnEvent(tick=15, channel=0, data=[85, 39]),
   midi.NoteOnEvent(tick=15, channel=0, data=[88, 45]),
   midi.NoteOnEvent(tick=210, channel=0, data=[88, 0]),
   midi.NoteOnEvent(tick=0, channel=0, data=[85, 0]),
   midi.NoteOnEvent(tick=0, channel=0, data=[81, 0]),
   midi.NoteOnEvent(tick=0, channel=0, data=[81, 40]),
   midi.NoteOnEvent(tick=15, channel=0, data=[85, 41]),
   midi.NoteOnEvent(tick=15, channel=0, data=[88, 45]),
   midi.NoteOnEvent(tick=210, channel=0, data=[88, 0]),
   midi.NoteOnEvent(tick=0, channel=0, data=[85, 0]),
   midi.NoteOnEvent(tick=0, channel=0, data=[81, 0]),
   midi.NoteOnEvent(tick=0, channel=0, data=[81, 41]),
   midi.NoteOnEvent(tick=15, channel=0, data=[85, 41]),
   midi.NoteOnEvent(tick=15, channel=0, data=[88, 45]),
   midi.NoteOnEvent(tick=210, channel=0, data=[88, 0]),
   midi.NoteOnEvent(tick=0, channel=0, data=[85, 0]),
   midi.NoteOnEvent(tick=0, channel=0, data=[81, 0]),
   midi.NoteOnEvent(tick=0, channel=0, data=[81, 40]),
   midi.NoteOnEvent(tick=15, channel=0, data=[85, 40]),
   midi.NoteOnEvent(tick=15, channel=0, data=[88, 45]),
   midi.NoteOnEvent(tick=210, channel=0, data=[88, 0]),
   midi.NoteOnEvent(tick=0, channel=0, data=[85, 0]),
   midi.NoteOnEvent(tick=0, channel=0, data=[81, 0]),
   midi.NoteOnEvent(tick=0, channel=0, data=[81, 39]),
   midi.NoteOnEvent(tick=15, channel=0, data=[85, 40]),
   midi.NoteOnEvent(tick=15, channel=0, data=[88, 45]),
   midi.NoteOnEvent(tick=195, channel=0, data=[76, 34]),
   midi.NoteOnEvent(tick=15, channel=0, data=[88, 0]),
   midi.NoteOnEvent(tick=0, channel=0, data=[81, 0]),
   midi.NoteOnEvent(tick=0, channel=0, data=[85, 0]),
   midi.NoteOnEvent(tick=0, channel=0, data=[80, 34]),
   midi.NoteOnEvent(tick=15, channel=0, data=[86, 39]),
   midi.NoteOnEvent(tick=15, channel=0, data=[88, 45]),
   midi.NoteOnEvent(tick=195, channel=0, data=[88, 0]),
   midi.NoteOnEvent(tick=0, channel=0, data=[76, 0]),
   midi.NoteOnEvent(tick=0, channel=0, data=[80, 0]),
   midi.NoteOnEvent(tick=0, channel=0, data=[86, 0]),
   midi.NoteOnEvent(tick=0, channel=0, data=[76, 34]),
   midi.NoteOnEvent(tick=15, channel=0, data=[80, 34]),
   midi.NoteOnEvent(tick=15, channel=0, data=[86, 39]),
   midi.NoteOnEvent(tick=15, channel=0, data=[88, 45]),
   midi.NoteOnEvent(tick=195, channel=0, data=[88, 0]),
   midi.NoteOnEvent(tick=0, channel=0, data=[76, 0]),
   midi.NoteOnEvent(tick=0, channel=0, data=[80, 0]),
   midi.NoteOnEvent(tick=0, channel=0, data=[86, 0]),
   midi.NoteOnEvent(tick=0, channel=0, data=[76, 34]),
   midi.NoteOnEvent(tick=15, channel=0, data=[80, 34]),
   midi.NoteOnEvent(tick=15, channel=0, data=[86, 39]),
   midi.NoteOnEvent(tick=15, channel=0, data=[88, 45]),
   midi.NoteOnEvent(tick=195, channel=0, data=[88, 0]),
   midi.NoteOnEvent(tick=0, channel=0, data=[76, 0]),
   midi.NoteOnEvent(tick=0, channel=0, data=[80, 0]),
   midi.NoteOnEvent(tick=0, channel=0, data=[86, 0]),
   midi.NoteOnEvent(tick=0, channel=0, data=[76, 34]),
   midi.NoteOnEvent(tick=15, channel=0, data=[80, 34]),
   midi.NoteOnEvent(tick=15, channel=0, data=[86, 39]),
   midi.NoteOnEvent(tick=15, channel=0, data=[88, 45]),
   midi.NoteOnEvent(tick=195, channel=0, data=[88, 0]),
   midi.NoteOnEvent(tick=0, channel=0, data=[76, 0]),
   midi.NoteOnEvent(tick=0, channel=0, data=[80, 0]),
   midi.NoteOnEvent(tick=0, channel=0, data=[86, 0]),
   midi.NoteOnEvent(tick=0, channel=0, data=[76, 34]),
   midi.NoteOnEvent(tick=15, channel=0, data=[80, 34]),
   midi.NoteOnEvent(tick=15, channel=0, data=[86, 39]),
   midi.NoteOnEvent(tick=15, channel=0, data=[88, 45]),
   midi.NoteOnEvent(tick=195, channel=0, data=[88, 0]),
   midi.NoteOnEvent(tick=0, channel=0, data=[76, 0]),
   midi.NoteOnEvent(tick=0, channel=0, data=[80, 0]),
   midi.NoteOnEvent(tick=0, channel=0, data=[86, 0]),
   midi.NoteOnEvent(tick=0, channel=0, data=[76, 34]),
   midi.NoteOnEvent(tick=15, channel=0, data=[80, 34]),
   midi.NoteOnEvent(tick=15, channel=0, data=[86, 39]),
   midi.NoteOnEvent(tick=15, channel=0, data=[88, 45]),
   midi.NoteOnEvent(tick=210, channel=0, data=[88, 0]),
   midi.NoteOnEvent(tick=0, channel=0, data=[76, 0]),
   midi.NoteOnEvent(tick=0, channel=0, data=[80, 0]),
   midi.NoteOnEvent(tick=0, channel=0, data=[86, 0]),
   midi.NoteOnEvent(tick=0, channel=0, data=[80, 34]),
   midi.NoteOnEvent(tick=15, channel=0, data=[86, 39]),
   midi.NoteOnEvent(tick=15, channel=0, data=[88, 45]),
   midi.NoteOnEvent(tick=210, channel=0, data=[88, 0]),
   midi.NoteOnEvent(tick=0, channel=0, data=[86, 0]),
   midi.NoteOnEvent(tick=0, channel=0, data=[80, 0]),
   midi.NoteOnEvent(tick=0, channel=0, data=[80, 34]),
   midi.NoteOnEvent(tick=15, channel=0, data=[86, 39]),
   midi.NoteOnEvent(tick=15, channel=0, data=[88, 45]),
   midi.NoteOnEvent(tick=210, channel=0, data=[88, 0]),
   midi.NoteOnEvent(tick=0, channel=0, data=[86, 0]),
   midi.NoteOnEvent(tick=0, channel=0, data=[80, 0]),
   midi.NoteOnEvent(tick=0, channel=0, data=[80, 34]),
   midi.NoteOnEvent(tick=15, channel=0, data=[86, 39]),
   midi.NoteOnEvent(tick=15, channel=0, data=[88, 45]),
   midi.NoteOnEvent(tick=210, channel=0, data=[88, 0]),
   midi.NoteOnEvent(tick=0, channel=0, data=[86, 0]),
   midi.NoteOnEvent(tick=0, channel=0, data=[80, 0]),
   midi.NoteOnEvent(tick=0, channel=0, data=[80, 34]),
   midi.NoteOnEvent(tick=15, channel=0, data=[86, 39]),
   midi.NoteOnEvent(tick=15, channel=0, data=[88, 45]),
   midi.NoteOnEvent(tick=210, channel=0, data=[88, 0]),
   midi.NoteOnEvent(tick=0, channel=0, data=[86, 0]),
   midi.NoteOnEvent(tick=0, channel=0, data=[80, 0]),
   midi.NoteOnEvent(tick=0, channel=0, data=[80, 34]),
   midi.NoteOnEvent(tick=15, channel=0, data=[86, 39]),
   midi.NoteOnEvent(tick=15, channel=0, data=[88, 45]),
   midi.NoteOnEvent(tick=210, channel=0, data=[88, 0]),
   midi.NoteOnEvent(tick=0, channel=0, data=[86, 0]),
   midi.NoteOnEvent(tick=0, channel=0, data=[80, 0]),
   midi.NoteOnEvent(tick=0, channel=0, data=[80, 34]),
   midi.NoteOnEvent(tick=15, channel=0, data=[86, 39]),
   midi.NoteOnEvent(tick=15, channel=0, data=[88, 45]),
   midi.NoteOnEvent(tick=210, channel=0, data=[88, 0]),
   midi.NoteOnEvent(tick=0, channel=0, data=[86, 0]),
   midi.NoteOnEvent(tick=0, channel=0, data=[80, 0]),
   midi.NoteOnEvent(tick=0, channel=0, data=[81, 41]),
   midi.NoteOnEvent(tick=15, channel=0, data=[85, 41]),
   midi.NoteOnEvent(tick=15, channel=0, data=[88, 45]),
   midi.NoteOnEvent(tick=210, channel=0, data=[88, 0]),
   midi.NoteOnEvent(tick=0, channel=0, data=[85, 0]),
   midi.NoteOnEvent(tick=0, channel=0, data=[81, 0]),
   midi.NoteOnEvent(tick=0, channel=0, data=[81, 40]),
   midi.NoteOnEvent(tick=15, channel=0, data=[85, 40]),
   midi.NoteOnEvent(tick=15, channel=0, data=[88, 45]),
   midi.NoteOnEvent(tick=210, channel=0, data=[88, 0]),
   midi.NoteOnEvent(tick=0, channel=0, data=[85, 0]),
   midi.NoteOnEvent(tick=0, channel=0, data=[81, 0]),
   midi.NoteOnEvent(tick=0, channel=0, data=[81, 39]),
   midi.NoteOnEvent(tick=15, channel=0, data=[85, 40]),
   midi.NoteOnEvent(tick=15, channel=0, data=[88, 45]),
   midi.NoteOnEvent(tick=210, channel=0, data=[88, 0]),
   midi.NoteOnEvent(tick=0, channel=0, data=[85, 0]),
   midi.NoteOnEvent(tick=0, channel=0, data=[81, 0]),
   midi.NoteOnEvent(tick=0, channel=0, data=[81, 41]),
   midi.NoteOnEvent(tick=15, channel=0, data=[85, 41]),
   midi.NoteOnEvent(tick=15, channel=0, data=[88, 45]),
   midi.NoteOnEvent(tick=210, channel=0, data=[88, 0]),
   midi.NoteOnEvent(tick=0, channel=0, data=[85, 0]),
   midi.NoteOnEvent(tick=0, channel=0, data=[81, 0]),
   midi.NoteOnEvent(tick=0, channel=0, data=[81, 40]),
   midi.NoteOnEvent(tick=15, channel=0, data=[85, 40]),
   midi.NoteOnEvent(tick=15, channel=0, data=[88, 45]),
   midi.NoteOnEvent(tick=210, channel=0, data=[88, 0]),
   midi.NoteOnEvent(tick=0, channel=0, data=[85, 0]),
   midi.NoteOnEvent(tick=0, channel=0, data=[81, 0]),
   midi.NoteOnEvent(tick=0, channel=0, data=[81, 39]),
   midi.NoteOnEvent(tick=15, channel=0, data=[85, 40]),
   midi.NoteOnEvent(tick=15, channel=0, data=[88, 45]),
   midi.NoteOnEvent(tick=210, channel=0, data=[88, 0]),
   midi.NoteOnEvent(tick=0, channel=0, data=[85, 0]),
   midi.NoteOnEvent(tick=0, channel=0, data=[81, 0]),
   midi.NoteOnEvent(tick=0, channel=0, data=[80, 41]),
   midi.NoteOnEvent(tick=15, channel=0, data=[86, 41]),
   midi.NoteOnEvent(tick=15, channel=0, data=[88, 45]),
   midi.NoteOnEvent(tick=210, channel=0, data=[88, 0]),
   midi.NoteOnEvent(tick=0, channel=0, data=[86, 0]),
   midi.NoteOnEvent(tick=0, channel=0, data=[80, 0]),
   midi.NoteOnEvent(tick=0, channel=0, data=[80, 40]),
   midi.NoteOnEvent(tick=15, channel=0, data=[86, 40]),
   midi.NoteOnEvent(tick=15, channel=0, data=[88, 45]),
   midi.NoteOnEvent(tick=210, channel=0, data=[88, 0]),
   midi.NoteOnEvent(tick=0, channel=0, data=[86, 0]),
   midi.NoteOnEvent(tick=0, channel=0, data=[80, 0]),
   midi.NoteOnEvent(tick=0, channel=0, data=[80, 39]),
   midi.NoteOnEvent(tick=15, channel=0, data=[86, 40]),
   midi.NoteOnEvent(tick=15, channel=0, data=[88, 45]),
   midi.NoteOnEvent(tick=210, channel=0, data=[88, 0]),
   midi.NoteOnEvent(tick=0, channel=0, data=[86, 0]),
   midi.NoteOnEvent(tick=0, channel=0, data=[80, 0]),
   midi.NoteOnEvent(tick=0, channel=0, data=[80, 34]),
   midi.NoteOnEvent(tick=15, channel=0, data=[86, 39]),
   midi.NoteOnEvent(tick=15, channel=0, data=[88, 45]),
   midi.NoteOnEvent(tick=210, channel=0, data=[88, 0]),
   midi.NoteOnEvent(tick=0, channel=0, data=[86, 0]),
   midi.NoteOnEvent(tick=0, channel=0, data=[80, 0]),
   midi.NoteOnEvent(tick=0, channel=0, data=[80, 34]),
   midi.NoteOnEvent(tick=15, channel=0, data=[86, 39]),
   midi.NoteOnEvent(tick=15, channel=0, data=[88, 45]),
   midi.NoteOnEvent(tick=210, channel=0, data=[88, 0]),
   midi.NoteOnEvent(tick=0, channel=0, data=[86, 0]),
   midi.NoteOnEvent(tick=0, channel=0, data=[80, 0]),
   midi.NoteOnEvent(tick=0, channel=0, data=[80, 34]),
   midi.NoteOnEvent(tick=15, channel=0, data=[86, 39]),
   midi.NoteOnEvent(tick=15, channel=0, data=[88, 45]),
   midi.NoteOnEvent(tick=210, channel=0, data=[88, 0]),
   midi.NoteOnEvent(tick=0, channel=0, data=[86, 0]),
   midi.NoteOnEvent(tick=0, channel=0, data=[80, 0]),
   midi.NoteOnEvent(tick=0, channel=0, data=[80, 34]),
   midi.NoteOnEvent(tick=15, channel=0, data=[86, 39]),
   midi.NoteOnEvent(tick=15, channel=0, data=[88, 45]),
   midi.NoteOnEvent(tick=210, channel=0, data=[88, 0]),
   midi.NoteOnEvent(tick=0, channel=0, data=[86, 0]),
   midi.NoteOnEvent(tick=0, channel=0, data=[80, 0]),
   midi.NoteOnEvent(tick=0, channel=0, data=[80, 34]),
   midi.NoteOnEvent(tick=15, channel=0, data=[86, 39]),
   midi.NoteOnEvent(tick=15, channel=0, data=[88, 45]),
   midi.NoteOnEvent(tick=210, channel=0, data=[88, 0]),
   midi.NoteOnEvent(tick=0, channel=0, data=[86, 0]),
   midi.NoteOnEvent(tick=0, channel=0, data=[80, 0]),
   midi.NoteOnEvent(tick=0, channel=0, data=[80, 34]),
   midi.NoteOnEvent(tick=15, channel=0, data=[86, 39]),
   midi.NoteOnEvent(tick=15, channel=0, data=[88, 45]),
   midi.NoteOnEvent(tick=210, channel=0, data=[88, 0]),
   midi.NoteOnEvent(tick=0, channel=0, data=[86, 0]),
   midi.NoteOnEvent(tick=0, channel=0, data=[80, 0]),
   midi.NoteOnEvent(tick=0, channel=0, data=[80, 34]),
   midi.NoteOnEvent(tick=15, channel=0, data=[86, 39]),
   midi.NoteOnEvent(tick=15, channel=0, data=[88, 45]),
   midi.NoteOnEvent(tick=210, channel=0, data=[88, 0]),
   midi.NoteOnEvent(tick=0, channel=0, data=[86, 0]),
   midi.NoteOnEvent(tick=0, channel=0, data=[80, 0]),
   midi.NoteOnEvent(tick=0, channel=0, data=[80, 34]),
   midi.NoteOnEvent(tick=15, channel=0, data=[86, 39]),
   midi.NoteOnEvent(tick=15, channel=0, data=[88, 45]),
   midi.NoteOnEvent(tick=210, channel=0, data=[88, 0]),
   midi.NoteOnEvent(tick=0, channel=0, data=[86, 0]),
   midi.NoteOnEvent(tick=0, channel=0, data=[80, 0]),
   midi.NoteOnEvent(tick=0, channel=0, data=[80, 34]),
   midi.NoteOnEvent(tick=15, channel=0, data=[86, 39]),
   midi.NoteOnEvent(tick=15, channel=0, data=[88, 45]),
   midi.NoteOnEvent(tick=210, channel=0, data=[88, 0]),
   midi.NoteOnEvent(tick=0, channel=0, data=[86, 0]),
   midi.NoteOnEvent(tick=0, channel=0, data=[80, 0]),
   midi.NoteOnEvent(tick=0, channel=0, data=[81, 34]),
   midi.NoteOnEvent(tick=15, channel=0, data=[85, 39]),
   midi.NoteOnEvent(tick=15, channel=0, data=[88, 45]),
   midi.NoteOnEvent(tick=210, channel=0, data=[88, 0]),
   midi.NoteOnEvent(tick=0, channel=0, data=[85, 0]),
   midi.NoteOnEvent(tick=0, channel=0, data=[81, 0]),
   midi.NoteOnEvent(tick=0, channel=0, data=[81, 34]),
   midi.NoteOnEvent(tick=15, channel=0, data=[85, 39]),
   midi.NoteOnEvent(tick=15, channel=0, data=[88, 45]),
   midi.NoteOnEvent(tick=210, channel=0, data=[88, 0]),
   midi.NoteOnEvent(tick=0, channel=0, data=[85, 0]),
   midi.NoteOnEvent(tick=0, channel=0, data=[81, 0]),
   midi.NoteOnEvent(tick=0, channel=0, data=[81, 34]),
   midi.NoteOnEvent(tick=15, channel=0, data=[85, 39]),
   midi.NoteOnEvent(tick=15, channel=0, data=[88, 45]),
   midi.NoteOnEvent(tick=210, channel=0, data=[88, 0]),
   midi.NoteOnEvent(tick=0, channel=0, data=[85, 0]),
   midi.NoteOnEvent(tick=0, channel=0, data=[81, 0]),
   midi.NoteOnEvent(tick=0, channel=0, data=[81, 34]),
   midi.NoteOnEvent(tick=15, channel=0, data=[85, 39]),
   midi.NoteOnEvent(tick=15, channel=0, data=[88, 45]),
   midi.NoteOnEvent(tick=210, channel=0, data=[88, 0]),
   midi.NoteOnEvent(tick=0, channel=0, data=[85, 0]),
   midi.NoteOnEvent(tick=0, channel=0, data=[81, 0]),
   midi.NoteOnEvent(tick=0, channel=0, data=[81, 34]),
   midi.NoteOnEvent(tick=15, channel=0, data=[85, 39]),
   midi.NoteOnEvent(tick=15, channel=0, data=[88, 45]),
   midi.NoteOnEvent(tick=210, channel=0, data=[88, 0]),
   midi.NoteOnEvent(tick=0, channel=0, data=[85, 0]),
   midi.NoteOnEvent(tick=0, channel=0, data=[81, 0]),
   midi.NoteOnEvent(tick=0, channel=0, data=[81, 34]),
   midi.NoteOnEvent(tick=15, channel=0, data=[85, 39]),
   midi.NoteOnEvent(tick=15, channel=0, data=[88, 45]),
   midi.NoteOnEvent(tick=210, channel=0, data=[88, 0]),
   midi.NoteOnEvent(tick=0, channel=0, data=[85, 0]),
   midi.NoteOnEvent(tick=0, channel=0, data=[81, 0]),
   midi.NoteOnEvent(tick=0, channel=0, data=[81, 41]),
   midi.NoteOnEvent(tick=15, channel=0, data=[85, 41]),
   midi.NoteOnEvent(tick=15, channel=0, data=[88, 45]),
   midi.NoteOnEvent(tick=210, channel=0, data=[88, 0]),
   midi.NoteOnEvent(tick=0, channel=0, data=[85, 0]),
   midi.NoteOnEvent(tick=0, channel=0, data=[81, 0]),
   midi.NoteOnEvent(tick=0, channel=0, data=[81, 41]),
   midi.NoteOnEvent(tick=15, channel=0, data=[85, 41]),
   midi.NoteOnEvent(tick=15, channel=0, data=[88, 46]),
   midi.NoteOnEvent(tick=210, channel=0, data=[88, 0]),
   midi.NoteOnEvent(tick=0, channel=0, data=[85, 0]),
   midi.NoteOnEvent(tick=0, channel=0, data=[81, 0]),
   midi.NoteOnEvent(tick=0, channel=0, data=[81, 41]),
   midi.NoteOnEvent(tick=15, channel=0, data=[85, 42]),
   midi.NoteOnEvent(tick=15, channel=0, data=[88, 48]),
   midi.NoteOnEvent(tick=210, channel=0, data=[88, 0]),
   midi.NoteOnEvent(tick=0, channel=0, data=[85, 0]),
   midi.NoteOnEvent(tick=0, channel=0, data=[81, 0]),
   midi.NoteOnEvent(tick=0, channel=0, data=[81, 41]),
   midi.NoteOnEvent(tick=15, channel=0, data=[85, 41]),
   midi.NoteOnEvent(tick=15, channel=0, data=[88, 45]),
   midi.NoteOnEvent(tick=210, channel=0, data=[88, 0]),
   midi.NoteOnEvent(tick=0, channel=0, data=[85, 0]),
   midi.NoteOnEvent(tick=0, channel=0, data=[81, 0]),
   midi.NoteOnEvent(tick=0, channel=0, data=[81, 40]),
   midi.NoteOnEvent(tick=15, channel=0, data=[85, 40]),
   midi.NoteOnEvent(tick=15, channel=0, data=[88, 45]),
   midi.NoteOnEvent(tick=210, channel=0, data=[88, 0]),
   midi.NoteOnEvent(tick=0, channel=0, data=[85, 0]),
   midi.NoteOnEvent(tick=0, channel=0, data=[81, 0]),
   midi.NoteOnEvent(tick=0, channel=0, data=[81, 39]),
   midi.NoteOnEvent(tick=15, channel=0, data=[85, 40]),
   midi.NoteOnEvent(tick=15, channel=0, data=[88, 45]),
   midi.NoteOnEvent(tick=195, channel=0, data=[88, 0]),
   midi.NoteOnEvent(tick=0, channel=0, data=[85, 0]),
   midi.NoteOnEvent(tick=0, channel=0, data=[81, 0]),
   midi.NoteOnEvent(tick=0, channel=0, data=[76, 34]),
   midi.NoteOnEvent(tick=15, channel=0, data=[80, 34]),
   midi.NoteOnEvent(tick=15, channel=0, data=[86, 39]),
   midi.NoteOnEvent(tick=15, channel=0, data=[88, 45]),
   midi.NoteOnEvent(tick=195, channel=0, data=[88, 0]),
   midi.NoteOnEvent(tick=0, channel=0, data=[76, 0]),
   midi.NoteOnEvent(tick=0, channel=0, data=[80, 0]),
   midi.NoteOnEvent(tick=0, channel=0, data=[86, 0]),
   midi.NoteOnEvent(tick=0, channel=0, data=[76, 34]),
   midi.NoteOnEvent(tick=15, channel=0, data=[80, 34]),
   midi.NoteOnEvent(tick=15, channel=0, data=[86, 39]),
   midi.NoteOnEvent(tick=15, channel=0, data=[88, 45]),
   midi.NoteOnEvent(tick=195, channel=0, data=[88, 0]),
   midi.NoteOnEvent(tick=0, channel=0, data=[76, 0]),
   midi.NoteOnEvent(tick=0, channel=0, data=[80, 0]),
   midi.NoteOnEvent(tick=0, channel=0, data=[86, 0]),
   midi.NoteOnEvent(tick=0, channel=0, data=[76, 34]),
   midi.NoteOnEvent(tick=15, channel=0, data=[80, 34]),
   midi.NoteOnEvent(tick=15, channel=0, data=[86, 39]),
   midi.NoteOnEvent(tick=15, channel=0, data=[88, 45]),
   midi.NoteOnEvent(tick=195, channel=0, data=[88, 0]),
   midi.NoteOnEvent(tick=0, channel=0, data=[76, 0]),
   midi.NoteOnEvent(tick=0, channel=0, data=[80, 0]),
   midi.NoteOnEvent(tick=0, channel=0, data=[86, 0]),
   midi.NoteOnEvent(tick=0, channel=0, data=[76, 34]),
   midi.NoteOnEvent(tick=15, channel=0, data=[80, 34]),
   midi.NoteOnEvent(tick=15, channel=0, data=[86, 39]),
   midi.NoteOnEvent(tick=15, channel=0, data=[88, 45]),
   midi.NoteOnEvent(tick=195, channel=0, data=[88, 0]),
   midi.NoteOnEvent(tick=0, channel=0, data=[76, 0]),
   midi.NoteOnEvent(tick=0, channel=0, data=[80, 0]),
   midi.NoteOnEvent(tick=0, channel=0, data=[86, 0]),
   midi.NoteOnEvent(tick=0, channel=0, data=[76, 34]),
   midi.NoteOnEvent(tick=15, channel=0, data=[80, 34]),
   midi.NoteOnEvent(tick=15, channel=0, data=[86, 39]),
   midi.NoteOnEvent(tick=15, channel=0, data=[88, 45]),
   midi.NoteOnEvent(tick=195, channel=0, data=[88, 0]),
   midi.NoteOnEvent(tick=0, channel=0, data=[76, 0]),
   midi.NoteOnEvent(tick=0, channel=0, data=[80, 0]),
   midi.NoteOnEvent(tick=0, channel=0, data=[86, 0]),
   midi.NoteOnEvent(tick=0, channel=0, data=[76, 34]),
   midi.NoteOnEvent(tick=15, channel=0, data=[80, 34]),
   midi.NoteOnEvent(tick=15, channel=0, data=[86, 39]),
   midi.NoteOnEvent(tick=15, channel=0, data=[88, 45]),
   midi.NoteOnEvent(tick=195, channel=0, data=[88, 0]),
   midi.NoteOnEvent(tick=0, channel=0, data=[76, 0]),
   midi.NoteOnEvent(tick=0, channel=0, data=[80, 0]),
   midi.NoteOnEvent(tick=0, channel=0, data=[86, 0]),
   midi.NoteOnEvent(tick=0, channel=0, data=[76, 34]),
   midi.NoteOnEvent(tick=15, channel=0, data=[80, 34]),
   midi.NoteOnEvent(tick=15, channel=0, data=[86, 39]),
   midi.NoteOnEvent(tick=15, channel=0, data=[88, 45]),
   midi.NoteOnEvent(tick=195, channel=0, data=[88, 0]),
   midi.NoteOnEvent(tick=0, channel=0, data=[76, 0]),
   midi.NoteOnEvent(tick=0, channel=0, data=[80, 0]),
   midi.NoteOnEvent(tick=0, channel=0, data=[86, 0]),
   midi.NoteOnEvent(tick=0, channel=0, data=[76, 34]),
   midi.NoteOnEvent(tick=15, channel=0, data=[80, 34]),
   midi.NoteOnEvent(tick=15, channel=0, data=[86, 39]),
   midi.NoteOnEvent(tick=15, channel=0, data=[88, 45]),
   midi.NoteOnEvent(tick=195, channel=0, data=[88, 0]),
   midi.NoteOnEvent(tick=0, channel=0, data=[76, 0]),
   midi.NoteOnEvent(tick=0, channel=0, data=[80, 0]),
   midi.NoteOnEvent(tick=0, channel=0, data=[86, 0]),
   midi.NoteOnEvent(tick=0, channel=0, data=[76, 34]),
   midi.NoteOnEvent(tick=15, channel=0, data=[80, 34]),
   midi.NoteOnEvent(tick=15, channel=0, data=[86, 39]),
   midi.NoteOnEvent(tick=15, channel=0, data=[88, 45]),
   midi.NoteOnEvent(tick=195, channel=0, data=[88, 0]),
   midi.NoteOnEvent(tick=0, channel=0, data=[76, 0]),
   midi.NoteOnEvent(tick=0, channel=0, data=[80, 0]),
   midi.NoteOnEvent(tick=0, channel=0, data=[86, 0]),
   midi.NoteOnEvent(tick=0, channel=0, data=[76, 34]),
   midi.NoteOnEvent(tick=15, channel=0, data=[80, 34]),
   midi.NoteOnEvent(tick=15, channel=0, data=[86, 39]),
   midi.NoteOnEvent(tick=15, channel=0, data=[88, 45]),
   midi.NoteOnEvent(tick=195, channel=0, data=[88, 0]),
   midi.NoteOnEvent(tick=0, channel=0, data=[76, 0]),
   midi.NoteOnEvent(tick=0, channel=0, data=[80, 0]),
   midi.NoteOnEvent(tick=0, channel=0, data=[86, 0]),
   midi.NoteOnEvent(tick=0, channel=0, data=[76, 34]),
   midi.NoteOnEvent(tick=15, channel=0, data=[80, 34]),
   midi.NoteOnEvent(tick=15, channel=0, data=[86, 39]),
   midi.NoteOnEvent(tick=15, channel=0, data=[88, 45]),
   midi.NoteOnEvent(tick=195, channel=0, data=[88, 0]),
   midi.NoteOnEvent(tick=0, channel=0, data=[76, 0]),
   midi.NoteOnEvent(tick=0, channel=0, data=[80, 0]),
   midi.NoteOnEvent(tick=0, channel=0, data=[86, 0]),
   midi.NoteOnEvent(tick=0, channel=0, data=[76, 34]),
   midi.NoteOnEvent(tick=15, channel=0, data=[80, 34]),
   midi.NoteOnEvent(tick=15, channel=0, data=[86, 39]),
   midi.NoteOnEvent(tick=15, channel=0, data=[88, 45]),
   midi.NoteOnEvent(tick=195, channel=0, data=[88, 0]),
   midi.NoteOnEvent(tick=0, channel=0, data=[76, 0]),
   midi.NoteOnEvent(tick=0, channel=0, data=[80, 0]),
   midi.NoteOnEvent(tick=0, channel=0, data=[86, 0]),
   midi.NoteOnEvent(tick=0, channel=0, data=[76, 34]),
   midi.NoteOnEvent(tick=15, channel=0, data=[81, 34]),
   midi.NoteOnEvent(tick=15, channel=0, data=[85, 39]),
   midi.NoteOnEvent(tick=15, channel=0, data=[88, 45]),
   midi.NoteOnEvent(tick=195, channel=0, data=[88, 0]),
   midi.NoteOnEvent(tick=0, channel=0, data=[76, 0]),
   midi.NoteOnEvent(tick=0, channel=0, data=[81, 0]),
   midi.NoteOnEvent(tick=0, channel=0, data=[85, 0]),
   midi.NoteOnEvent(tick=0, channel=0, data=[76, 34]),
   midi.NoteOnEvent(tick=15, channel=0, data=[81, 34]),
   midi.NoteOnEvent(tick=15, channel=0, data=[85, 39]),
   midi.NoteOnEvent(tick=15, channel=0, data=[88, 45]),
   midi.NoteOnEvent(tick=195, channel=0, data=[88, 0]),
   midi.NoteOnEvent(tick=0, channel=0, data=[76, 0]),
   midi.NoteOnEvent(tick=0, channel=0, data=[81, 0]),
   midi.NoteOnEvent(tick=0, channel=0, data=[85, 0]),
   midi.NoteOnEvent(tick=0, channel=0, data=[76, 34]),
   midi.NoteOnEvent(tick=15, channel=0, data=[81, 34]),
   midi.NoteOnEvent(tick=15, channel=0, data=[85, 39]),
   midi.NoteOnEvent(tick=15, channel=0, data=[88, 45]),
   midi.NoteOnEvent(tick=195, channel=0, data=[88, 0]),
   midi.NoteOnEvent(tick=0, channel=0, data=[76, 0]),
   midi.NoteOnEvent(tick=0, channel=0, data=[81, 0]),
   midi.NoteOnEvent(tick=0, channel=0, data=[85, 0]),
   midi.NoteOnEvent(tick=0, channel=0, data=[76, 34]),
   midi.NoteOnEvent(tick=15, channel=0, data=[81, 34]),
   midi.NoteOnEvent(tick=15, channel=0, data=[85, 39]),
   midi.NoteOnEvent(tick=15, channel=0, data=[88, 44]),
   midi.NoteOnEvent(tick=195, channel=0, data=[88, 0]),
   midi.NoteOnEvent(tick=0, channel=0, data=[76, 0]),
   midi.NoteOnEvent(tick=0, channel=0, data=[81, 0]),
   midi.NoteOnEvent(tick=0, channel=0, data=[85, 0]),
   midi.NoteOnEvent(tick=0, channel=0, data=[76, 31]),
   midi.NoteOnEvent(tick=15, channel=0, data=[81, 31]),
   midi.NoteOnEvent(tick=15, channel=0, data=[85, 36]),
   midi.NoteOnEvent(tick=15, channel=0, data=[88, 41]),
   midi.NoteOnEvent(tick=195, channel=0, data=[88, 0]),
   midi.NoteOnEvent(tick=0, channel=0, data=[76, 0]),
   midi.NoteOnEvent(tick=0, channel=0, data=[81, 0]),
   midi.NoteOnEvent(tick=0, channel=0, data=[85, 0]),
   midi.NoteOnEvent(tick=0, channel=0, data=[76, 29]),
   midi.NoteOnEvent(tick=15, channel=0, data=[81, 29]),
   midi.NoteOnEvent(tick=15, channel=0, data=[85, 33]),
   midi.NoteOnEvent(tick=15, channel=0, data=[88, 38]),
   midi.NoteOnEvent(tick=195, channel=0, data=[88, 0]),
   midi.NoteOnEvent(tick=0, channel=0, data=[76, 0]),
   midi.NoteOnEvent(tick=0, channel=0, data=[81, 0]),
   midi.NoteOnEvent(tick=0, channel=0, data=[85, 0]),
   midi.NoteOnEvent(tick=0, channel=0, data=[76, 27]),
   midi.NoteOnEvent(tick=15, channel=0, data=[81, 27]),
   midi.NoteOnEvent(tick=15, channel=0, data=[84, 31]),
   midi.NoteOnEvent(tick=15, channel=0, data=[88, 36]),
   midi.NoteOnEvent(tick=195, channel=0, data=[88, 0]),
   midi.NoteOnEvent(tick=0, channel=0, data=[76, 0]),
   midi.NoteOnEvent(tick=0, channel=0, data=[81, 0]),
   midi.NoteOnEvent(tick=0, channel=0, data=[84, 0]),
   midi.NoteOnEvent(tick=0, channel=0, data=[76, 27]),
   midi.NoteOnEvent(tick=15, channel=0, data=[81, 27]),
   midi.NoteOnEvent(tick=15, channel=0, data=[84, 31]),
   midi.NoteOnEvent(tick=15, channel=0, data=[88, 36]),
   midi.NoteOnEvent(tick=195, channel=0, data=[88, 0]),
   midi.NoteOnEvent(tick=0, channel=0, data=[76, 0]),
   midi.NoteOnEvent(tick=0, channel=0, data=[81, 0]),
   midi.NoteOnEvent(tick=0, channel=0, data=[84, 0]),
   midi.NoteOnEvent(tick=0, channel=0, data=[76, 27]),
   midi.NoteOnEvent(tick=15, channel=0, data=[81, 27]),
   midi.NoteOnEvent(tick=15, channel=0, data=[84, 31]),
   midi.NoteOnEvent(tick=15, channel=0, data=[88, 36]),
   midi.NoteOnEvent(tick=195, channel=0, data=[88, 0]),
   midi.NoteOnEvent(tick=0, channel=0, data=[76, 0]),
   midi.NoteOnEvent(tick=0, channel=0, data=[81, 0]),
   midi.NoteOnEvent(tick=0, channel=0, data=[84, 0]),
   midi.NoteOnEvent(tick=0, channel=0, data=[76, 27]),
   midi.NoteOnEvent(tick=15, channel=0, data=[81, 27]),
   midi.NoteOnEvent(tick=15, channel=0, data=[84, 31]),
   midi.NoteOnEvent(tick=15, channel=0, data=[88, 36]),
   midi.NoteOnEvent(tick=195, channel=0, data=[88, 0]),
   midi.NoteOnEvent(tick=0, channel=0, data=[76, 0]),
   midi.NoteOnEvent(tick=0, channel=0, data=[81, 0]),
   midi.NoteOnEvent(tick=0, channel=0, data=[84, 0]),
   midi.NoteOnEvent(tick=0, channel=0, data=[76, 27]),
   midi.NoteOnEvent(tick=15, channel=0, data=[81, 27]),
   midi.NoteOnEvent(tick=15, channel=0, data=[84, 31]),
   midi.NoteOnEvent(tick=15, channel=0, data=[88, 36]),
   midi.NoteOnEvent(tick=195, channel=0, data=[88, 0]),
   midi.NoteOnEvent(tick=0, channel=0, data=[76, 0]),
   midi.NoteOnEvent(tick=0, channel=0, data=[81, 0]),
   midi.NoteOnEvent(tick=0, channel=0, data=[84, 0]),
   midi.NoteOnEvent(tick=0, channel=0, data=[76, 27]),
   midi.NoteOnEvent(tick=15, channel=0, data=[81, 27]),
   midi.NoteOnEvent(tick=15, channel=0, data=[84, 31]),
   midi.NoteOnEvent(tick=15, channel=0, data=[88, 36]),
   midi.NoteOnEvent(tick=195, channel=0, data=[88, 0]),
   midi.NoteOnEvent(tick=0, channel=0, data=[76, 0]),
   midi.NoteOnEvent(tick=0, channel=0, data=[81, 0]),
   midi.NoteOnEvent(tick=0, channel=0, data=[84, 0]),
   midi.NoteOnEvent(tick=285, channel=0, data=[68, 51]),
   midi.NoteOnEvent(tick=0, channel=0, data=[71, 54]),
   midi.NoteOnEvent(tick=0, channel=0, data=[74, 72]),
   midi.NoteOnEvent(tick=80, channel=0, data=[74, 0]),
   midi.NoteOnEvent(tick=0, channel=0, data=[76, 60]),
   midi.NoteOnEvent(tick=80, channel=0, data=[76, 0]),
   midi.NoteOnEvent(tick=0, channel=0, data=[74, 59]),
   midi.NoteOnEvent(tick=80, channel=0, data=[74, 0]),
   midi.NoteOnEvent(tick=0, channel=0, data=[71, 0]),
   midi.NoteOnEvent(tick=0, channel=0, data=[68, 0]),
   midi.NoteOnEvent(tick=0, channel=0, data=[71, 54]),
   midi.NoteOnEvent(tick=0, channel=0, data=[68, 68]),
   midi.NoteOnEvent(tick=0, channel=0, data=[73, 68]),
   midi.NoteOnEvent(tick=90, channel=0, data=[73, 0]),
   midi.NoteOnEvent(tick=0, channel=0, data=[68, 0]),
   midi.NoteOnEvent(tick=30, channel=0, data=[71, 0]),
   midi.NoteOnEvent(tick=120, channel=0, data=[80, 51]),
   midi.NoteOnEvent(tick=0, channel=0, data=[83, 53]),
   midi.NoteOnEvent(tick=0, channel=0, data=[86, 72]),
   midi.NoteOnEvent(tick=80, channel=0, data=[86, 0]),
   midi.NoteOnEvent(tick=0, channel=0, data=[88, 61]),
   midi.NoteOnEvent(tick=80, channel=0, data=[88, 0]),
   midi.NoteOnEvent(tick=0, channel=0, data=[86, 61]),
   midi.NoteOnEvent(tick=80, channel=0, data=[86, 0]),
   midi.NoteOnEvent(tick=0, channel=0, data=[83, 0]),
   midi.NoteOnEvent(tick=0, channel=0, data=[80, 0]),
   midi.NoteOnEvent(tick=0, channel=0, data=[83, 61]),
   midi.NoteOnEvent(tick=0, channel=0, data=[80, 62]),
   midi.NoteOnEvent(tick=0, channel=0, data=[85, 68]),
   midi.NoteOnEvent(tick=90, channel=0, data=[85, 0]),
   midi.NoteOnEvent(tick=0, channel=0, data=[80, 0]),
   midi.NoteOnEvent(tick=0, channel=0, data=[83, 0]),
   midi.NoteOnEvent(tick=150, channel=0, data=[92, 51]),
   midi.NoteOnEvent(tick=0, channel=0, data=[95, 53]),
   midi.NoteOnEvent(tick=0, channel=0, data=[98, 72]),
   midi.NoteOnEvent(tick=80, channel=0, data=[98, 0]),
   midi.NoteOnEvent(tick=0, channel=0, data=[100, 60]),
   midi.NoteOnEvent(tick=80, channel=0, data=[100, 0]),
   midi.NoteOnEvent(tick=0, channel=0, data=[98, 61]),
   midi.NoteOnEvent(tick=80, channel=0, data=[98, 0]),
   midi.NoteOnEvent(tick=0, channel=0, data=[95, 0]),
   midi.NoteOnEvent(tick=0, channel=0, data=[92, 0]),
   midi.NoteOnEvent(tick=0, channel=0, data=[95, 62]),
   midi.NoteOnEvent(tick=0, channel=0, data=[92, 64]),
   midi.NoteOnEvent(tick=0, channel=0, data=[97, 71]),
   midi.NoteOnEvent(tick=90, channel=0, data=[97, 0]),
   midi.NoteOnEvent(tick=0, channel=0, data=[92, 0]),
   midi.NoteOnEvent(tick=0, channel=0, data=[95, 0]),
   midi.NoteOnEvent(tick=150, channel=0, data=[80, 53]),
   midi.NoteOnEvent(tick=0, channel=0, data=[83, 55]),
   midi.NoteOnEvent(tick=0, channel=0, data=[86, 75]),
   midi.NoteOnEvent(tick=80, channel=0, data=[86, 0]),
   midi.NoteOnEvent(tick=0, channel=0, data=[88, 65]),
   midi.NoteOnEvent(tick=80, channel=0, data=[88, 0]),
   midi.NoteOnEvent(tick=0, channel=0, data=[86, 67]),
   midi.NoteOnEvent(tick=80, channel=0, data=[86, 0]),
   midi.NoteOnEvent(tick=0, channel=0, data=[83, 0]),
   midi.NoteOnEvent(tick=0, channel=0, data=[80, 0]),
   midi.NoteOnEvent(tick=0, channel=0, data=[83, 59]),
   midi.NoteOnEvent(tick=0, channel=0, data=[80, 59]),
   midi.NoteOnEvent(tick=0, channel=0, data=[85, 71]),
   midi.NoteOnEvent(tick=90, channel=0, data=[85, 0]),
   midi.NoteOnEvent(tick=0, channel=0, data=[80, 0]),
   midi.NoteOnEvent(tick=0, channel=0, data=[83, 0]),
   midi.NoteOnEvent(tick=150, channel=0, data=[67, 57]),
   midi.NoteOnEvent(tick=0, channel=0, data=[70, 59]),
   midi.NoteOnEvent(tick=0, channel=0, data=[74, 81]),
   midi.NoteOnEvent(tick=80, channel=0, data=[74, 0]),
   midi.NoteOnEvent(tick=0, channel=0, data=[76, 72]),
   midi.NoteOnEvent(tick=80, channel=0, data=[76, 0]),
   midi.NoteOnEvent(tick=0, channel=0, data=[74, 72]),
   midi.NoteOnEvent(tick=80, channel=0, data=[74, 0]),
   midi.NoteOnEvent(tick=0, channel=0, data=[70, 0]),
   midi.NoteOnEvent(tick=0, channel=0, data=[67, 0]),
   midi.NoteOnEvent(tick=0, channel=0, data=[70, 70]),
   midi.NoteOnEvent(tick=0, channel=0, data=[67, 70]),
   midi.NoteOnEvent(tick=0, channel=0, data=[72, 77]),
   midi.NoteOnEvent(tick=90, channel=0, data=[72, 0]),
   midi.NoteOnEvent(tick=0, channel=0, data=[67, 0]),
   midi.NoteOnEvent(tick=0, channel=0, data=[70, 0]),
   midi.NoteOnEvent(tick=150, channel=0, data=[84, 84]),
   midi.NoteOnEvent(tick=0, channel=0, data=[88, 84]),
   midi.NoteOnEvent(tick=0, channel=0, data=[96, 84]),
   midi.NoteOnEvent(tick=0, channel=0, data=[94, 84]),
   midi.NoteOnEvent(tick=240, channel=0, data=[94, 0]),
   midi.NoteOnEvent(tick=0, channel=0, data=[84, 0]),
   midi.NoteOnEvent(tick=0, channel=0, data=[88, 0]),
   midi.NoteOnEvent(tick=0, channel=0, data=[96, 0]),
   midi.NoteOnEvent(tick=0, channel=0, data=[69, 71]),
   midi.NoteOnEvent(tick=0, channel=0, data=[77, 87]),
   midi.NoteOnEvent(tick=240, channel=0, data=[77, 0]),
   midi.NoteOnEvent(tick=0, channel=0, data=[69, 0]),
   midi.NoteOnEvent(tick=0, channel=0, data=[69, 71]),
   midi.NoteOnEvent(tick=0, channel=0, data=[76, 77]),
   midi.NoteOnEvent(tick=80, channel=0, data=[76, 0]),
   midi.NoteOnEvent(tick=0, channel=0, data=[77, 66]),
   midi.NoteOnEvent(tick=80, channel=0, data=[77, 0]),
   midi.NoteOnEvent(tick=0, channel=0, data=[76, 67]),
   midi.NoteOnEvent(tick=80, channel=0, data=[76, 0]),
   midi.NoteOnEvent(tick=0, channel=0, data=[69, 0]),
   midi.NoteOnEvent(tick=0, channel=0, data=[69, 67]),
   midi.NoteOnEvent(tick=0, channel=0, data=[74, 77]),
   midi.NoteOnEvent(tick=120, channel=0, data=[74, 0]),
   midi.NoteOnEvent(tick=0, channel=0, data=[76, 70]),
   midi.NoteOnEvent(tick=120, channel=0, data=[76, 0]),
   midi.NoteOnEvent(tick=0, channel=0, data=[69, 0]),
   midi.NoteOnEvent(tick=0, channel=0, data=[69, 58]),
   midi.NoteOnEvent(tick=0, channel=0, data=[77, 79]),
   midi.NoteOnEvent(tick=120, channel=0, data=[77, 0]),
   midi.NoteOnEvent(tick=0, channel=0, data=[74, 71]),
   midi.NoteOnEvent(tick=120, channel=0, data=[74, 0]),
   midi.NoteOnEvent(tick=0, channel=0, data=[69, 0]),
   midi.NoteOnEvent(tick=0, channel=0, data=[69, 67]),
   midi.NoteOnEvent(tick=0, channel=0, data=[76, 78]),
   midi.NoteOnEvent(tick=90, channel=0, data=[76, 0]),
   midi.NoteOnEvent(tick=0, channel=0, data=[69, 0]),
   midi.NoteOnEvent(tick=150, channel=0, data=[69, 67]),
   midi.NoteOnEvent(tick=0, channel=0, data=[72, 75]),
   midi.NoteOnEvent(tick=90, channel=0, data=[72, 0]),
   midi.NoteOnEvent(tick=0, channel=0, data=[69, 0]),
   midi.NoteOnEvent(tick=150, channel=0, data=[69, 68]),
   midi.NoteOnEvent(tick=0, channel=0, data=[77, 83]),
   midi.NoteOnEvent(tick=240, channel=0, data=[77, 0]),
   midi.NoteOnEvent(tick=0, channel=0, data=[69, 0]),
   midi.NoteOnEvent(tick=0, channel=0, data=[69, 68]),
   midi.NoteOnEvent(tick=0, channel=0, data=[76, 74]),
   midi.NoteOnEvent(tick=80, channel=0, data=[76, 0]),
   midi.NoteOnEvent(tick=0, channel=0, data=[77, 67]),
   midi.NoteOnEvent(tick=80, channel=0, data=[77, 0]),
   midi.NoteOnEvent(tick=0, channel=0, data=[76, 67]),
   midi.NoteOnEvent(tick=80, channel=0, data=[76, 0]),
   midi.NoteOnEvent(tick=0, channel=0, data=[69, 0]),
   midi.NoteOnEvent(tick=0, channel=0, data=[69, 64]),
   midi.NoteOnEvent(tick=0, channel=0, data=[74, 74]),
   midi.NoteOnEvent(tick=120, channel=0, data=[74, 0]),
   midi.NoteOnEvent(tick=0, channel=0, data=[76, 69]),
   midi.NoteOnEvent(tick=120, channel=0, data=[76, 0]),
   midi.NoteOnEvent(tick=0, channel=0, data=[69, 0]),
   midi.NoteOnEvent(tick=0, channel=0, data=[69, 56]),
   midi.NoteOnEvent(tick=0, channel=0, data=[77, 76]),
   midi.NoteOnEvent(tick=120, channel=0, data=[77, 0]),
   midi.NoteOnEvent(tick=0, channel=0, data=[74, 67]),
   midi.NoteOnEvent(tick=120, channel=0, data=[74, 0]),
   midi.NoteOnEvent(tick=0, channel=0, data=[69, 0]),
   midi.NoteOnEvent(tick=0, channel=0, data=[69, 64]),
   midi.NoteOnEvent(tick=0, channel=0, data=[76, 75]),
   midi.NoteOnEvent(tick=90, channel=0, data=[76, 0]),
   midi.NoteOnEvent(tick=0, channel=0, data=[69, 0]),
   midi.NoteOnEvent(tick=150, channel=0, data=[69, 64]),
   midi.NoteOnEvent(tick=0, channel=0, data=[72, 72]),
   midi.NoteOnEvent(tick=90, channel=0, data=[72, 0]),
   midi.NoteOnEvent(tick=0, channel=0, data=[69, 0]),
   midi.NoteOnEvent(tick=150, channel=0, data=[69, 59]),
   midi.NoteOnEvent(tick=0, channel=0, data=[74, 77]),
   midi.NoteOnEvent(tick=120, channel=0, data=[74, 0]),
   midi.NoteOnEvent(tick=0, channel=0, data=[76, 72]),
   midi.NoteOnEvent(tick=120, channel=0, data=[76, 0]),
   midi.NoteOnEvent(tick=0, channel=0, data=[69, 0]),
   midi.NoteOnEvent(tick=0, channel=0, data=[69, 48]),
   midi.NoteOnEvent(tick=0, channel=0, data=[72, 75]),
   midi.NoteOnEvent(tick=210, channel=0, data=[72, 0]),
   midi.NoteOnEvent(tick=0, channel=0, data=[69, 0]),
   midi.NoteOnEvent(tick=30, channel=0, data=[69, 56]),
   midi.NoteOnEvent(tick=0, channel=0, data=[74, 72]),
   midi.NoteOnEvent(tick=120, channel=0, data=[74, 0]),
   midi.NoteOnEvent(tick=0, channel=0, data=[76, 73]),
   midi.NoteOnEvent(tick=120, channel=0, data=[76, 0]),
   midi.NoteOnEvent(tick=0, channel=0, data=[69, 0]),
   midi.NoteOnEvent(tick=0, channel=0, data=[69, 59]),
   midi.NoteOnEvent(tick=0, channel=0, data=[77, 76]),
   midi.NoteOnEvent(tick=210, channel=0, data=[77, 0]),
   midi.NoteOnEvent(tick=0, channel=0, data=[69, 0]),
   midi.NoteOnEvent(tick=30, channel=0, data=[69, 59]),
   midi.NoteOnEvent(tick=0, channel=0, data=[74, 77]),
   midi.NoteOnEvent(tick=120, channel=0, data=[74, 0]),
   midi.NoteOnEvent(tick=0, channel=0, data=[76, 72]),
   midi.NoteOnEvent(tick=120, channel=0, data=[76, 0]),
   midi.NoteOnEvent(tick=0, channel=0, data=[69, 0]),
   midi.NoteOnEvent(tick=0, channel=0, data=[69, 48]),
   midi.NoteOnEvent(tick=0, channel=0, data=[72, 68]),
   midi.NoteOnEvent(tick=210, channel=0, data=[72, 0]),
   midi.NoteOnEvent(tick=0, channel=0, data=[69, 0]),
   midi.NoteOnEvent(tick=30, channel=0, data=[69, 50]),
   midi.NoteOnEvent(tick=0, channel=0, data=[74, 78]),
   midi.NoteOnEvent(tick=120, channel=0, data=[74, 0]),
   midi.NoteOnEvent(tick=0, channel=0, data=[76, 71]),
   midi.NoteOnEvent(tick=120, channel=0, data=[76, 0]),
   midi.NoteOnEvent(tick=0, channel=0, data=[69, 0]),
   midi.NoteOnEvent(tick=0, channel=0, data=[69, 45]),
   midi.NoteOnEvent(tick=0, channel=0, data=[72, 74]),
   midi.NoteOnEvent(tick=210, channel=0, data=[72, 0]),
   midi.NoteOnEvent(tick=0, channel=0, data=[69, 0]),
   midi.NoteOnEvent(tick=30, channel=0, data=[69, 55]),
   midi.NoteOnEvent(tick=0, channel=0, data=[74, 71]),
   midi.NoteOnEvent(tick=120, channel=0, data=[74, 0]),
   midi.NoteOnEvent(tick=0, channel=0, data=[76, 73]),
   midi.NoteOnEvent(tick=120, channel=0, data=[76, 0]),
   midi.NoteOnEvent(tick=0, channel=0, data=[69, 0]),
   midi.NoteOnEvent(tick=0, channel=0, data=[69, 59]),
   midi.NoteOnEvent(tick=0, channel=0, data=[79, 77]),
   midi.NoteOnEvent(tick=120, channel=0, data=[79, 0]),
   midi.NoteOnEvent(tick=0, channel=0, data=[77, 71]),
   midi.NoteOnEvent(tick=120, channel=0, data=[77, 0]),
   midi.NoteOnEvent(tick=0, channel=0, data=[69, 0]),
   midi.NoteOnEvent(tick=0, channel=0, data=[69, 59]),
   midi.NoteOnEvent(tick=0, channel=0, data=[74, 76]),
   midi.NoteOnEvent(tick=120, channel=0, data=[74, 0]),
   midi.NoteOnEvent(tick=0, channel=0, data=[76, 72]),
   midi.NoteOnEvent(tick=120, channel=0, data=[76, 0]),
   midi.NoteOnEvent(tick=0, channel=0, data=[69, 0]),
   midi.NoteOnEvent(tick=0, channel=0, data=[69, 49]),
   midi.NoteOnEvent(tick=0, channel=0, data=[72, 68]),
   midi.NoteOnEvent(tick=240, channel=0, data=[72, 0]),
   midi.NoteOnEvent(tick=0, channel=0, data=[69, 0]),
   midi.NoteOnEvent(tick=240, channel=0, data=[58, 35]),
   midi.NoteOnEvent(tick=0, channel=0, data=[62, 41]),
   midi.NoteOnEvent(tick=0, channel=0, data=[65, 46]),
   midi.NoteOnEvent(tick=120, channel=0, data=[65, 0]),
   midi.NoteOnEvent(tick=0, channel=0, data=[62, 0]),
   midi.NoteOnEvent(tick=0, channel=0, data=[58, 0]),
   midi.NoteOnEvent(tick=0, channel=0, data=[55, 40]),
   midi.NoteOnEvent(tick=120, channel=0, data=[55, 0]),
   midi.NoteOnEvent(tick=240, channel=0, data=[70, 41]),
   midi.NoteOnEvent(tick=0, channel=0, data=[74, 41]),
   midi.NoteOnEvent(tick=0, channel=0, data=[77, 46]),
   midi.NoteOnEvent(tick=120, channel=0, data=[77, 0]),
   midi.NoteOnEvent(tick=0, channel=0, data=[74, 0]),
   midi.NoteOnEvent(tick=0, channel=0, data=[70, 0]),
   midi.NoteOnEvent(tick=0, channel=0, data=[67, 38]),
   midi.NoteOnEvent(tick=120, channel=0, data=[67, 0]),
   midi.NoteOnEvent(tick=240, channel=0, data=[89, 46]),
   midi.NoteOnEvent(tick=0, channel=0, data=[86, 41]),
   midi.NoteOnEvent(tick=0, channel=0, data=[82, 41]),
   midi.NoteOnEvent(tick=120, channel=0, data=[82, 0]),
   midi.NoteOnEvent(tick=0, channel=0, data=[86, 0]),
   midi.NoteOnEvent(tick=0, channel=0, data=[89, 0]),
   midi.NoteOnEvent(tick=0, channel=0, data=[79, 43]),
   midi.NoteOnEvent(tick=120, channel=0, data=[79, 0]),
   midi.NoteOnEvent(tick=240, channel=0, data=[82, 48]),
   midi.NoteOnEvent(tick=0, channel=0, data=[77, 42]),
   midi.NoteOnEvent(tick=60, channel=0, data=[77, 0]),
   midi.NoteOnEvent(tick=0, channel=0, data=[82, 0]),
   midi.NoteOnEvent(tick=60, channel=0, data=[82, 48]),
   midi.NoteOnEvent(tick=0, channel=0, data=[77, 42]),
   midi.NoteOnEvent(tick=60, channel=0, data=[77, 0]),
   midi.NoteOnEvent(tick=0, channel=0, data=[82, 0]),
   midi.NoteOnEvent(tick=60, channel=0, data=[89, 51]),
   midi.NoteOnEvent(tick=0, channel=0, data=[82, 46]),
   midi.NoteOnEvent(tick=120, channel=0, data=[82, 0]),
   midi.NoteOnEvent(tick=0, channel=0, data=[89, 0]),
   midi.NoteOnEvent(tick=120, channel=0, data=[82, 49]),
   midi.NoteOnEvent(tick=0, channel=0, data=[77, 44]),
   midi.NoteOnEvent(tick=120, channel=0, data=[77, 0]),
   midi.NoteOnEvent(tick=0, channel=0, data=[82, 0]),
   midi.NoteOnEvent(tick=120, channel=0, data=[89, 51]),
   midi.NoteOnEvent(tick=0, channel=0, data=[82, 46]),
   midi.NoteOnEvent(tick=120, channel=0, data=[82, 0]),
   midi.NoteOnEvent(tick=0, channel=0, data=[89, 0]),
   midi.NoteOnEvent(tick=120, channel=0, data=[82, 49]),
   midi.NoteOnEvent(tick=0, channel=0, data=[77, 44]),
   midi.NoteOnEvent(tick=120, channel=0, data=[77, 0]),
   midi.NoteOnEvent(tick=0, channel=0, data=[82, 0]),
   midi.NoteOnEvent(tick=360, channel=0, data=[58, 41]),
   midi.NoteOnEvent(tick=0, channel=0, data=[62, 41]),
   midi.NoteOnEvent(tick=0, channel=0, data=[65, 46]),
   midi.NoteOnEvent(tick=120, channel=0, data=[65, 0]),
   midi.NoteOnEvent(tick=0, channel=0, data=[62, 0]),
   midi.NoteOnEvent(tick=0, channel=0, data=[58, 0]),
   midi.NoteOnEvent(tick=0, channel=0, data=[55, 38]),
   midi.NoteOnEvent(tick=120, channel=0, data=[55, 0]),
   midi.NoteOnEvent(tick=240, channel=0, data=[70, 41]),
   midi.NoteOnEvent(tick=0, channel=0, data=[74, 41]),
   midi.NoteOnEvent(tick=0, channel=0, data=[77, 46]),
   midi.NoteOnEvent(tick=120, channel=0, data=[77, 0]),
   midi.NoteOnEvent(tick=0, channel=0, data=[74, 0]),
   midi.NoteOnEvent(tick=0, channel=0, data=[70, 0]),
   midi.NoteOnEvent(tick=0, channel=0, data=[67, 39]),
   midi.NoteOnEvent(tick=120, channel=0, data=[67, 0]),
   midi.NoteOnEvent(tick=240, channel=0, data=[89, 46]),
   midi.NoteOnEvent(tick=0, channel=0, data=[86, 41]),
   midi.NoteOnEvent(tick=0, channel=0, data=[82, 41]),
   midi.NoteOnEvent(tick=120, channel=0, data=[82, 0]),
   midi.NoteOnEvent(tick=0, channel=0, data=[86, 0]),
   midi.NoteOnEvent(tick=0, channel=0, data=[89, 0]),
   midi.NoteOnEvent(tick=0, channel=0, data=[79, 38]),
   midi.NoteOnEvent(tick=120, channel=0, data=[79, 0]),
   midi.NoteOnEvent(tick=240, channel=0, data=[79, 42]),
   midi.NoteOnEvent(tick=0, channel=0, data=[86, 48]),
   midi.NoteOnEvent(tick=0, channel=0, data=[82, 42]),
   midi.NoteOnEvent(tick=60, channel=0, data=[82, 0]),
   midi.NoteOnEvent(tick=0, channel=0, data=[86, 0]),
   midi.NoteOnEvent(tick=0, channel=0, data=[79, 0]),
   midi.NoteOnEvent(tick=60, channel=0, data=[79, 42]),
   midi.NoteOnEvent(tick=0, channel=0, data=[86, 48]),
   midi.NoteOnEvent(tick=0, channel=0, data=[82, 42]),
   midi.NoteOnEvent(tick=60, channel=0, data=[82, 0]),
   midi.NoteOnEvent(tick=0, channel=0, data=[86, 0]),
   midi.NoteOnEvent(tick=0, channel=0, data=[79, 0]),
   midi.NoteOnEvent(tick=60, channel=0, data=[79, 46]),
   midi.NoteOnEvent(tick=0, channel=0, data=[91, 51]),
   midi.NoteOnEvent(tick=0, channel=0, data=[82, 46]),
   midi.NoteOnEvent(tick=120, channel=0, data=[82, 0]),
   midi.NoteOnEvent(tick=0, channel=0, data=[91, 0]),
   midi.NoteOnEvent(tick=0, channel=0, data=[79, 0]),
   midi.NoteOnEvent(tick=120, channel=0, data=[86, 48]),
   midi.NoteOnEvent(tick=0, channel=0, data=[82, 42]),
   midi.NoteOnEvent(tick=0, channel=0, data=[79, 42]),
   midi.NoteOnEvent(tick=60, channel=0, data=[79, 0]),
   midi.NoteOnEvent(tick=0, channel=0, data=[82, 0]),
   midi.NoteOnEvent(tick=0, channel=0, data=[86, 0]),
   midi.NoteOnEvent(tick=60, channel=0, data=[82, 42]),
   midi.NoteOnEvent(tick=0, channel=0, data=[79, 42]),
   midi.NoteOnEvent(tick=0, channel=0, data=[86, 48]),
   midi.NoteOnEvent(tick=60, channel=0, data=[86, 0]),
   midi.NoteOnEvent(tick=0, channel=0, data=[79, 0]),
   midi.NoteOnEvent(tick=0, channel=0, data=[82, 0]),
   midi.NoteOnEvent(tick=60, channel=0, data=[79, 46]),
   midi.NoteOnEvent(tick=0, channel=0, data=[82, 46]),
   midi.NoteOnEvent(tick=0, channel=0, data=[91, 51]),
   midi.NoteOnEvent(tick=120, channel=0, data=[91, 0]),
   midi.NoteOnEvent(tick=0, channel=0, data=[82, 0]),
   midi.NoteOnEvent(tick=0, channel=0, data=[79, 0]),
   midi.NoteOnEvent(tick=120, channel=0, data=[79, 44]),
   midi.NoteOnEvent(tick=0, channel=0, data=[82, 44]),
   midi.NoteOnEvent(tick=0, channel=0, data=[84, 49]),
   midi.NoteOnEvent(tick=120, channel=0, data=[84, 0]),
   midi.NoteOnEvent(tick=0, channel=0, data=[82, 0]),
   midi.NoteOnEvent(tick=0, channel=0, data=[79, 0]),
   midi.NoteOnEvent(tick=120, channel=0, data=[69, 73]),
   midi.NoteOnEvent(tick=0, channel=0, data=[77, 89]),
   midi.NoteOnEvent(tick=240, channel=0, data=[77, 0]),
   midi.NoteOnEvent(tick=0, channel=0, data=[69, 0]),
   midi.NoteOnEvent(tick=0, channel=0, data=[69, 73]),
   midi.NoteOnEvent(tick=0, channel=0, data=[76, 79]),
   midi.NoteOnEvent(tick=80, channel=0, data=[76, 0]),
   midi.NoteOnEvent(tick=0, channel=0, data=[77, 69]),
   midi.NoteOnEvent(tick=80, channel=0, data=[77, 0]),
   midi.NoteOnEvent(tick=0, channel=0, data=[76, 69]),
   midi.NoteOnEvent(tick=80, channel=0, data=[76, 0]),
   midi.NoteOnEvent(tick=0, channel=0, data=[69, 0]),
   midi.NoteOnEvent(tick=0, channel=0, data=[69, 69]),
   midi.NoteOnEvent(tick=0, channel=0, data=[74, 79]),
   midi.NoteOnEvent(tick=120, channel=0, data=[74, 0]),
   midi.NoteOnEvent(tick=0, channel=0, data=[76, 69]),
   midi.NoteOnEvent(tick=120, channel=0, data=[76, 0]),
   midi.NoteOnEvent(tick=0, channel=0, data=[69, 0]),
   midi.NoteOnEvent(tick=0, channel=0, data=[69, 60]),
   midi.NoteOnEvent(tick=0, channel=0, data=[77, 81]),
   midi.NoteOnEvent(tick=120, channel=0, data=[77, 0]),
   midi.NoteOnEvent(tick=0, channel=0, data=[74, 72]),
   midi.NoteOnEvent(tick=120, channel=0, data=[74, 0]),
   midi.NoteOnEvent(tick=0, channel=0, data=[69, 0]),
   midi.NoteOnEvent(tick=0, channel=0, data=[69, 69]),
   midi.NoteOnEvent(tick=0, channel=0, data=[76, 80]),
   midi.NoteOnEvent(tick=90, channel=0, data=[76, 0]),
   midi.NoteOnEvent(tick=0, channel=0, data=[69, 0]),
   midi.NoteOnEvent(tick=150, channel=0, data=[69, 69]),
   midi.NoteOnEvent(tick=0, channel=0, data=[72, 77]),
   midi.NoteOnEvent(tick=90, channel=0, data=[72, 0]),
   midi.NoteOnEvent(tick=0, channel=0, data=[69, 0]),
   midi.NoteOnEvent(tick=150, channel=0, data=[69, 70]),
   midi.NoteOnEvent(tick=0, channel=0, data=[77, 85]),
   midi.NoteOnEvent(tick=240, channel=0, data=[77, 0]),
   midi.NoteOnEvent(tick=0, channel=0, data=[69, 0]),
   midi.NoteOnEvent(tick=0, channel=0, data=[69, 70]),
   midi.NoteOnEvent(tick=0, channel=0, data=[76, 76]),
   midi.NoteOnEvent(tick=80, channel=0, data=[76, 0]),
   midi.NoteOnEvent(tick=0, channel=0, data=[77, 68]),
   midi.NoteOnEvent(tick=80, channel=0, data=[77, 0]),
   midi.NoteOnEvent(tick=0, channel=0, data=[76, 68]),
   midi.NoteOnEvent(tick=80, channel=0, data=[76, 0]),
   midi.NoteOnEvent(tick=0, channel=0, data=[69, 0]),
   midi.NoteOnEvent(tick=0, channel=0, data=[69, 66]),
   midi.NoteOnEvent(tick=0, channel=0, data=[74, 76]),
   midi.NoteOnEvent(tick=120, channel=0, data=[74, 0]),
   midi.NoteOnEvent(tick=0, channel=0, data=[76, 69]),
   midi.NoteOnEvent(tick=120, channel=0, data=[76, 0]),
   midi.NoteOnEvent(tick=0, channel=0, data=[69, 0]),
   midi.NoteOnEvent(tick=0, channel=0, data=[69, 58]),
   midi.NoteOnEvent(tick=0, channel=0, data=[77, 78]),
   midi.NoteOnEvent(tick=120, channel=0, data=[77, 0]),
   midi.NoteOnEvent(tick=0, channel=0, data=[74, 71]),
   midi.NoteOnEvent(tick=120, channel=0, data=[74, 0]),
   midi.NoteOnEvent(tick=0, channel=0, data=[69, 0]),
   midi.NoteOnEvent(tick=0, channel=0, data=[69, 66]),
   midi.NoteOnEvent(tick=0, channel=0, data=[76, 77]),
   midi.NoteOnEvent(tick=90, channel=0, data=[76, 0]),
   midi.NoteOnEvent(tick=0, channel=0, data=[69, 0]),
   midi.NoteOnEvent(tick=150, channel=0, data=[69, 66]),
   midi.NoteOnEvent(tick=0, channel=0, data=[72, 74]),
   midi.NoteOnEvent(tick=90, channel=0, data=[72, 0]),
   midi.NoteOnEvent(tick=0, channel=0, data=[69, 0]),
   midi.NoteOnEvent(tick=150, channel=0, data=[69, 61]),
   midi.NoteOnEvent(tick=0, channel=0, data=[74, 79]),
   midi.NoteOnEvent(tick=120, channel=0, data=[74, 0]),
   midi.NoteOnEvent(tick=0, channel=0, data=[76, 74]),
   midi.NoteOnEvent(tick=120, channel=0, data=[76, 0]),
   midi.NoteOnEvent(tick=0, channel=0, data=[69, 0]),
   midi.NoteOnEvent(tick=0, channel=0, data=[69, 49]),
   midi.NoteOnEvent(tick=0, channel=0, data=[72, 77]),
   midi.NoteOnEvent(tick=210, channel=0, data=[72, 0]),
   midi.NoteOnEvent(tick=0, channel=0, data=[69, 0]),
   midi.NoteOnEvent(tick=30, channel=0, data=[69, 58]),
   midi.NoteOnEvent(tick=0, channel=0, data=[74, 74]),
   midi.NoteOnEvent(tick=120, channel=0, data=[74, 0]),
   midi.NoteOnEvent(tick=0, channel=0, data=[76, 75]),
   midi.NoteOnEvent(tick=120, channel=0, data=[76, 0]),
   midi.NoteOnEvent(tick=0, channel=0, data=[69, 0]),
   midi.NoteOnEvent(tick=0, channel=0, data=[69, 61]),
   midi.NoteOnEvent(tick=0, channel=0, data=[77, 78]),
   midi.NoteOnEvent(tick=210, channel=0, data=[77, 0]),
   midi.NoteOnEvent(tick=0, channel=0, data=[69, 0]),
   midi.NoteOnEvent(tick=30, channel=0, data=[69, 61]),
   midi.NoteOnEvent(tick=0, channel=0, data=[74, 79]),
   midi.NoteOnEvent(tick=120, channel=0, data=[74, 0]),
   midi.NoteOnEvent(tick=0, channel=0, data=[76, 74]),
   midi.NoteOnEvent(tick=120, channel=0, data=[76, 0]),
   midi.NoteOnEvent(tick=0, channel=0, data=[69, 0]),
   midi.NoteOnEvent(tick=0, channel=0, data=[69, 49]),
   midi.NoteOnEvent(tick=0, channel=0, data=[72, 77]),
   midi.NoteOnEvent(tick=210, channel=0, data=[72, 0]),
   midi.NoteOnEvent(tick=0, channel=0, data=[69, 0]),
   midi.NoteOnEvent(tick=30, channel=0, data=[69, 52]),
   midi.NoteOnEvent(tick=0, channel=0, data=[74, 80]),
   midi.NoteOnEvent(tick=120, channel=0, data=[74, 0]),
   midi.NoteOnEvent(tick=0, channel=0, data=[76, 73]),
   midi.NoteOnEvent(tick=120, channel=0, data=[76, 0]),
   midi.NoteOnEvent(tick=0, channel=0, data=[69, 0]),
   midi.NoteOnEvent(tick=0, channel=0, data=[69, 46]),
   midi.NoteOnEvent(tick=0, channel=0, data=[72, 76]),
   midi.NoteOnEvent(tick=210, channel=0, data=[72, 0]),
   midi.NoteOnEvent(tick=0, channel=0, data=[69, 0]),
   midi.NoteOnEvent(tick=30, channel=0, data=[69, 57]),
   midi.NoteOnEvent(tick=0, channel=0, data=[74, 73]),
   midi.NoteOnEvent(tick=120, channel=0, data=[74, 0]),
   midi.NoteOnEvent(tick=0, channel=0, data=[76, 75]),
   midi.NoteOnEvent(tick=120, channel=0, data=[76, 0]),
   midi.NoteOnEvent(tick=0, channel=0, data=[69, 0]),
   midi.NoteOnEvent(tick=0, channel=0, data=[69, 61]),
   midi.NoteOnEvent(tick=0, channel=0, data=[79, 79]),
   midi.NoteOnEvent(tick=120, channel=0, data=[79, 0]),
   midi.NoteOnEvent(tick=0, channel=0, data=[77, 73]),
   midi.NoteOnEvent(tick=120, channel=0, data=[77, 0]),
   midi.NoteOnEvent(tick=0, channel=0, data=[69, 0]),
   midi.NoteOnEvent(tick=0, channel=0, data=[69, 61]),
   midi.NoteOnEvent(tick=0, channel=0, data=[74, 78]),
   midi.NoteOnEvent(tick=120, channel=0, data=[74, 0]),
   midi.NoteOnEvent(tick=0, channel=0, data=[76, 74]),
   midi.NoteOnEvent(tick=120, channel=0, data=[76, 0]),
   midi.NoteOnEvent(tick=0, channel=0, data=[69, 0]),
   midi.NoteOnEvent(tick=0, channel=0, data=[69, 51]),
   midi.NoteOnEvent(tick=0, channel=0, data=[72, 70]),
   midi.NoteOnEvent(tick=240, channel=0, data=[72, 0]),
   midi.NoteOnEvent(tick=0, channel=0, data=[69, 0]),
   midi.NoteOnEvent(tick=240, channel=0, data=[58, 56]),
   midi.NoteOnEvent(tick=0, channel=0, data=[62, 66]),
   midi.NoteOnEvent(tick=0, channel=0, data=[65, 74]),
   midi.NoteOnEvent(tick=120, channel=0, data=[65, 0]),
   midi.NoteOnEvent(tick=0, channel=0, data=[62, 0]),
   midi.NoteOnEvent(tick=0, channel=0, data=[58, 0]),
   midi.NoteOnEvent(tick=0, channel=0, data=[55, 69]),
   midi.NoteOnEvent(tick=120, channel=0, data=[55, 0]),
   midi.NoteOnEvent(tick=240, channel=0, data=[70, 66]),
   midi.NoteOnEvent(tick=0, channel=0, data=[74, 66]),
   midi.NoteOnEvent(tick=0, channel=0, data=[77, 74]),
   midi.NoteOnEvent(tick=120, channel=0, data=[77, 0]),
   midi.NoteOnEvent(tick=0, channel=0, data=[74, 0]),
   midi.NoteOnEvent(tick=0, channel=0, data=[70, 0]),
   midi.NoteOnEvent(tick=0, channel=0, data=[67, 65]),
   midi.NoteOnEvent(tick=120, channel=0, data=[67, 0]),
   midi.NoteOnEvent(tick=240, channel=0, data=[89, 74]),
   midi.NoteOnEvent(tick=0, channel=0, data=[86, 66]),
   midi.NoteOnEvent(tick=0, channel=0, data=[82, 66]),
   midi.NoteOnEvent(tick=120, channel=0, data=[82, 0]),
   midi.NoteOnEvent(tick=0, channel=0, data=[86, 0]),
   midi.NoteOnEvent(tick=0, channel=0, data=[89, 0]),
   midi.NoteOnEvent(tick=0, channel=0, data=[79, 67]),
   midi.NoteOnEvent(tick=120, channel=0, data=[79, 0]),
   midi.NoteOnEvent(tick=240, channel=0, data=[82, 82]),
   midi.NoteOnEvent(tick=0, channel=0, data=[77, 72]),
   midi.NoteOnEvent(tick=60, channel=0, data=[77, 0]),
   midi.NoteOnEvent(tick=0, channel=0, data=[82, 0]),
   midi.NoteOnEvent(tick=60, channel=0, data=[82, 82]),
   midi.NoteOnEvent(tick=0, channel=0, data=[77, 72]),
   midi.NoteOnEvent(tick=60, channel=0, data=[77, 0]),
   midi.NoteOnEvent(tick=0, channel=0, data=[82, 0]),
   midi.NoteOnEvent(tick=60, channel=0, data=[89, 87]),
   midi.NoteOnEvent(tick=0, channel=0, data=[82, 78]),
   midi.NoteOnEvent(tick=120, channel=0, data=[82, 0]),
   midi.NoteOnEvent(tick=0, channel=0, data=[89, 0]),
   midi.NoteOnEvent(tick=120, channel=0, data=[82, 84]),
   midi.NoteOnEvent(tick=0, channel=0, data=[77, 75]),
   midi.NoteOnEvent(tick=120, channel=0, data=[77, 0]),
   midi.NoteOnEvent(tick=0, channel=0, data=[82, 0]),
   midi.NoteOnEvent(tick=120, channel=0, data=[89, 87]),
   midi.NoteOnEvent(tick=0, channel=0, data=[82, 78]),
   midi.NoteOnEvent(tick=120, channel=0, data=[82, 0]),
   midi.NoteOnEvent(tick=0, channel=0, data=[89, 0]),
   midi.NoteOnEvent(tick=120, channel=0, data=[82, 84]),
   midi.NoteOnEvent(tick=0, channel=0, data=[77, 75]),
   midi.NoteOnEvent(tick=120, channel=0, data=[77, 0]),
   midi.NoteOnEvent(tick=0, channel=0, data=[82, 0]),
   midi.NoteOnEvent(tick=360, channel=0, data=[58, 66]),
   midi.NoteOnEvent(tick=0, channel=0, data=[62, 66]),
   midi.NoteOnEvent(tick=0, channel=0, data=[65, 74]),
   midi.NoteOnEvent(tick=120, channel=0, data=[65, 0]),
   midi.NoteOnEvent(tick=0, channel=0, data=[62, 0]),
   midi.NoteOnEvent(tick=0, channel=0, data=[58, 0]),
   midi.NoteOnEvent(tick=0, channel=0, data=[55, 67]),
   midi.NoteOnEvent(tick=120, channel=0, data=[55, 0]),
   midi.NoteOnEvent(tick=240, channel=0, data=[70, 66]),
   midi.NoteOnEvent(tick=0, channel=0, data=[74, 66]),
   midi.NoteOnEvent(tick=0, channel=0, data=[77, 74]),
   midi.NoteOnEvent(tick=120, channel=0, data=[77, 0]),
   midi.NoteOnEvent(tick=0, channel=0, data=[74, 0]),
   midi.NoteOnEvent(tick=0, channel=0, data=[70, 0]),
   midi.NoteOnEvent(tick=0, channel=0, data=[67, 69]),
   midi.NoteOnEvent(tick=120, channel=0, data=[67, 0]),
   midi.NoteOnEvent(tick=240, channel=0, data=[89, 72]),
   midi.NoteOnEvent(tick=0, channel=0, data=[86, 66]),
   midi.NoteOnEvent(tick=0, channel=0, data=[82, 66]),
   midi.NoteOnEvent(tick=120, channel=0, data=[82, 0]),
   midi.NoteOnEvent(tick=0, channel=0, data=[86, 0]),
   midi.NoteOnEvent(tick=0, channel=0, data=[89, 0]),
   midi.NoteOnEvent(tick=0, channel=0, data=[79, 68]),
   midi.NoteOnEvent(tick=120, channel=0, data=[79, 0]),
   midi.NoteOnEvent(tick=240, channel=0, data=[79, 72]),
   midi.NoteOnEvent(tick=0, channel=0, data=[86, 82]),
   midi.NoteOnEvent(tick=0, channel=0, data=[82, 72]),
   midi.NoteOnEvent(tick=60, channel=0, data=[82, 0]),
   midi.NoteOnEvent(tick=0, channel=0, data=[86, 0]),
   midi.NoteOnEvent(tick=0, channel=0, data=[79, 0]),
   midi.NoteOnEvent(tick=60, channel=0, data=[79, 72]),
   midi.NoteOnEvent(tick=0, channel=0, data=[86, 82]),
   midi.NoteOnEvent(tick=0, channel=0, data=[82, 72]),
   midi.NoteOnEvent(tick=60, channel=0, data=[82, 0]),
   midi.NoteOnEvent(tick=0, channel=0, data=[86, 0]),
   midi.NoteOnEvent(tick=0, channel=0, data=[79, 0]),
   midi.NoteOnEvent(tick=60, channel=0, data=[79, 78]),
   midi.NoteOnEvent(tick=0, channel=0, data=[91, 87]),
   midi.NoteOnEvent(tick=0, channel=0, data=[82, 78]),
   midi.NoteOnEvent(tick=120, channel=0, data=[82, 0]),
   midi.NoteOnEvent(tick=0, channel=0, data=[91, 0]),
   midi.NoteOnEvent(tick=0, channel=0, data=[79, 0]),
   midi.NoteOnEvent(tick=120, channel=0, data=[86, 82]),
   midi.NoteOnEvent(tick=0, channel=0, data=[82, 72]),
   midi.NoteOnEvent(tick=0, channel=0, data=[79, 72]),
   midi.NoteOnEvent(tick=60, channel=0, data=[79, 0]),
   midi.NoteOnEvent(tick=0, channel=0, data=[82, 0]),
   midi.NoteOnEvent(tick=0, channel=0, data=[86, 0]),
   midi.NoteOnEvent(tick=60, channel=0, data=[82, 72]),
   midi.NoteOnEvent(tick=0, channel=0, data=[79, 72]),
   midi.NoteOnEvent(tick=0, channel=0, data=[86, 82]),
   midi.NoteOnEvent(tick=60, channel=0, data=[86, 0]),
   midi.NoteOnEvent(tick=0, channel=0, data=[79, 0]),
   midi.NoteOnEvent(tick=0, channel=0, data=[82, 0]),
   midi.NoteOnEvent(tick=60, channel=0, data=[79, 78]),
   midi.NoteOnEvent(tick=0, channel=0, data=[82, 78]),
   midi.NoteOnEvent(tick=0, channel=0, data=[91, 87]),
   midi.NoteOnEvent(tick=120, channel=0, data=[91, 0]),
   midi.NoteOnEvent(tick=0, channel=0, data=[82, 0]),
   midi.NoteOnEvent(tick=0, channel=0, data=[79, 0]),
   midi.NoteOnEvent(tick=120, channel=0, data=[79, 75]),
   midi.NoteOnEvent(tick=0, channel=0, data=[82, 75]),
   midi.NoteOnEvent(tick=0, channel=0, data=[84, 84]),
   midi.NoteOnEvent(tick=120, channel=0, data=[84, 0]),
   midi.NoteOnEvent(tick=0, channel=0, data=[82, 0]),
   midi.NoteOnEvent(tick=0, channel=0, data=[79, 0]),
   midi.NoteOnEvent(tick=120, channel=0, data=[69, 54]),
   midi.NoteOnEvent(tick=0, channel=0, data=[77, 54]),
   midi.NoteOnEvent(tick=0, channel=0, data=[81, 54]),
   midi.NoteOnEvent(tick=120, channel=0, data=[79, 45]),
   midi.NoteOnEvent(tick=60, channel=0, data=[79, 0]),
   midi.NoteOnEvent(tick=0, channel=0, data=[69, 0]),
   midi.NoteOnEvent(tick=0, channel=0, data=[77, 0]),
   midi.NoteOnEvent(tick=0, channel=0, data=[81, 0]),
   midi.NoteOnEvent(tick=0, channel=0, data=[81, 45]),
   midi.NoteOnEvent(tick=60, channel=0, data=[81, 0]),
   midi.NoteOnEvent(tick=0, channel=0, data=[79, 53]),
   midi.NoteOnEvent(tick=120, channel=0, data=[79, 0]),
   midi.NoteOnEvent(tick=0, channel=0, data=[77, 49]),
   midi.NoteOnEvent(tick=120, channel=0, data=[77, 0]),
   midi.NoteOnEvent(tick=0, channel=0, data=[69, 46]),
   midi.NoteOnEvent(tick=120, channel=0, data=[69, 0]),
   midi.NoteOnEvent(tick=0, channel=0, data=[77, 46]),
   midi.NoteOnEvent(tick=120, channel=0, data=[77, 0]),
   midi.NoteOnEvent(tick=0, channel=0, data=[81, 51]),
   midi.NoteOnEvent(tick=120, channel=0, data=[81, 0]),
   midi.NoteOnEvent(tick=0, channel=0, data=[79, 47]),
   midi.NoteOnEvent(tick=120, channel=0, data=[79, 0]),
   midi.NoteOnEvent(tick=0, channel=0, data=[77, 53]),
   midi.NoteOnEvent(tick=120, channel=0, data=[77, 0]),
   midi.NoteOnEvent(tick=0, channel=0, data=[69, 45]),
   midi.NoteOnEvent(tick=120, channel=0, data=[69, 0]),
   midi.NoteOnEvent(tick=0, channel=0, data=[65, 48]),
   midi.NoteOnEvent(tick=120, channel=0, data=[65, 0]),
   midi.NoteOnEvent(tick=0, channel=0, data=[69, 44]),
   midi.NoteOnEvent(tick=120, channel=0, data=[69, 0]),
   midi.NoteOnEvent(tick=0, channel=0, data=[77, 57]),
   midi.NoteOnEvent(tick=0, channel=0, data=[81, 57]),
   midi.NoteOnEvent(tick=120, channel=0, data=[79, 51]),
   midi.NoteOnEvent(tick=60, channel=0, data=[79, 0]),
   midi.NoteOnEvent(tick=0, channel=0, data=[81, 0]),
   midi.NoteOnEvent(tick=0, channel=0, data=[77, 0]),
   midi.NoteOnEvent(tick=0, channel=0, data=[81, 51]),
   midi.NoteOnEvent(tick=60, channel=0, data=[81, 0]),
   midi.NoteOnEvent(tick=0, channel=0, data=[79, 57]),
   midi.NoteOnEvent(tick=120, channel=0, data=[79, 0]),
   midi.NoteOnEvent(tick=0, channel=0, data=[77, 55]),
   midi.NoteOnEvent(tick=120, channel=0, data=[77, 0]),
   midi.NoteOnEvent(tick=0, channel=0, data=[69, 51]),
   midi.NoteOnEvent(tick=120, channel=0, data=[69, 0]),
   midi.NoteOnEvent(tick=0, channel=0, data=[77, 53]),
   midi.NoteOnEvent(tick=120, channel=0, data=[77, 0]),
   midi.NoteOnEvent(tick=0, channel=0, data=[81, 60]),
   midi.NoteOnEvent(tick=120, channel=0, data=[81, 0]),
   midi.NoteOnEvent(tick=0, channel=0, data=[79, 56]),
   midi.NoteOnEvent(tick=120, channel=0, data=[79, 0]),
   midi.NoteOnEvent(tick=0, channel=0, data=[77, 62]),
   midi.NoteOnEvent(tick=120, channel=0, data=[77, 0]),
   midi.NoteOnEvent(tick=0, channel=0, data=[69, 49]),
   midi.NoteOnEvent(tick=120, channel=0, data=[69, 0]),
   midi.NoteOnEvent(tick=0, channel=0, data=[65, 57]),
   midi.NoteOnEvent(tick=120, channel=0, data=[65, 0]),
   midi.NoteOnEvent(tick=0, channel=0, data=[69, 51]),
   midi.NoteOnEvent(tick=120, channel=0, data=[69, 0]),
   midi.NoteOnEvent(tick=0, channel=0, data=[69, 66]),
   midi.NoteOnEvent(tick=0, channel=0, data=[77, 66]),
   midi.NoteOnEvent(tick=0, channel=0, data=[81, 66]),
   midi.NoteOnEvent(tick=120, channel=0, data=[79, 58]),
   midi.NoteOnEvent(tick=60, channel=0, data=[79, 0]),
   midi.NoteOnEvent(tick=0, channel=0, data=[69, 0]),
   midi.NoteOnEvent(tick=0, channel=0, data=[77, 0]),
   midi.NoteOnEvent(tick=0, channel=0, data=[81, 0]),
   midi.NoteOnEvent(tick=0, channel=0, data=[81, 59]),
   midi.NoteOnEvent(tick=60, channel=0, data=[81, 0]),
   midi.NoteOnEvent(tick=0, channel=0, data=[79, 67]),
   midi.NoteOnEvent(tick=120, channel=0, data=[79, 0]),
   midi.NoteOnEvent(tick=0, channel=0, data=[77, 64]),
   midi.NoteOnEvent(tick=120, channel=0, data=[77, 0]),
   midi.NoteOnEvent(tick=0, channel=0, data=[69, 59]),
   midi.NoteOnEvent(tick=120, channel=0, data=[69, 0]),
   midi.NoteOnEvent(tick=0, channel=0, data=[77, 61]),
   midi.NoteOnEvent(tick=120, channel=0, data=[77, 0]),
   midi.NoteOnEvent(tick=0, channel=0, data=[74, 70]),
   midi.NoteOnEvent(tick=0, channel=0, data=[77, 70]),
   midi.NoteOnEvent(tick=0, channel=0, data=[81, 70]),
   midi.NoteOnEvent(tick=120, channel=0, data=[79, 61]),
   midi.NoteOnEvent(tick=60, channel=0, data=[79, 0]),
   midi.NoteOnEvent(tick=0, channel=0, data=[74, 0]),
   midi.NoteOnEvent(tick=0, channel=0, data=[77, 0]),
   midi.NoteOnEvent(tick=0, channel=0, data=[81, 0]),
   midi.NoteOnEvent(tick=0, channel=0, data=[81, 61]),
   midi.NoteOnEvent(tick=60, channel=0, data=[81, 0]),
   midi.NoteOnEvent(tick=0, channel=0, data=[79, 71]),
   midi.NoteOnEvent(tick=120, channel=0, data=[79, 0]),
   midi.NoteOnEvent(tick=0, channel=0, data=[77, 60]),
   midi.NoteOnEvent(tick=120, channel=0, data=[77, 0]),
   midi.NoteOnEvent(tick=0, channel=0, data=[69, 63]),
   midi.NoteOnEvent(tick=120, channel=0, data=[69, 0]),
   midi.NoteOnEvent(tick=0, channel=0, data=[67, 58]),
   midi.NoteOnEvent(tick=120, channel=0, data=[67, 0]),
   midi.NoteOnEvent(tick=0, channel=0, data=[65, 57]),
   midi.NoteOnEvent(tick=0, channel=0, data=[69, 57]),
   midi.NoteOnEvent(tick=0, channel=0, data=[74, 78]),
   midi.NoteOnEvent(tick=120, channel=0, data=[74, 0]),
   midi.NoteOnEvent(tick=0, channel=0, data=[72, 70]),
   midi.NoteOnEvent(tick=120, channel=0, data=[72, 0]),
   midi.NoteOnEvent(tick=0, channel=0, data=[69, 0]),
   midi.NoteOnEvent(tick=0, channel=0, data=[65, 0]),
   midi.NoteOnEvent(tick=0, channel=0, data=[69, 61]),
   midi.NoteOnEvent(tick=0, channel=0, data=[72, 61]),
   midi.NoteOnEvent(tick=0, channel=0, data=[79, 82]),
   midi.NoteOnEvent(tick=120, channel=0, data=[79, 0]),
   midi.NoteOnEvent(tick=0, channel=0, data=[77, 75]),
   midi.NoteOnEvent(tick=120, channel=0, data=[77, 0]),
   midi.NoteOnEvent(tick=0, channel=0, data=[72, 0]),
   midi.NoteOnEvent(tick=0, channel=0, data=[69, 0]),
   midi.NoteOnEvent(tick=0, channel=0, data=[77, 63]),
   midi.NoteOnEvent(tick=0, channel=0, data=[81, 63]),
   midi.NoteOnEvent(tick=0, channel=0, data=[86, 85]),
   midi.NoteOnEvent(tick=120, channel=0, data=[86, 0]),
   midi.NoteOnEvent(tick=0, channel=0, data=[84, 75]),
   midi.NoteOnEvent(tick=120, channel=0, data=[84, 0]),
   midi.NoteOnEvent(tick=0, channel=0, data=[81, 0]),
   midi.NoteOnEvent(tick=0, channel=0, data=[77, 0]),
   midi.NoteOnEvent(tick=0, channel=0, data=[76, 75]),
   midi.NoteOnEvent(tick=0, channel=0, data=[82, 75]),
   midi.NoteOnEvent(tick=0, channel=0, data=[86, 100]),
   midi.NoteOnEvent(tick=120, channel=0, data=[86, 0]),
   midi.NoteOnEvent(tick=0, channel=0, data=[84, 83]),
   midi.NoteOnEvent(tick=120, channel=0, data=[84, 0]),
   midi.NoteOnEvent(tick=0, channel=0, data=[82, 0]),
   midi.NoteOnEvent(tick=0, channel=0, data=[76, 0]),
   midi.NoteOnEvent(tick=0, channel=0, data=[94, 74]),
   midi.NoteOnEvent(tick=0, channel=0, data=[88, 74]),
   midi.NoteOnEvent(tick=0, channel=0, data=[98, 99]),
   midi.NoteOnEvent(tick=120, channel=0, data=[98, 0]),
   midi.NoteOnEvent(tick=0, channel=0, data=[96, 80]),
   midi.NoteOnEvent(tick=120, channel=0, data=[96, 0]),
   midi.NoteOnEvent(tick=0, channel=0, data=[88, 0]),
   midi.NoteOnEvent(tick=0, channel=0, data=[94, 0]),
   midi.NoteOnEvent(tick=0, channel=0, data=[82, 74]),
   midi.NoteOnEvent(tick=0, channel=0, data=[76, 74]),
   midi.NoteOnEvent(tick=0, channel=0, data=[86, 99]),
   midi.NoteOnEvent(tick=120, channel=0, data=[86, 0]),
   midi.NoteOnEvent(tick=0, channel=0, data=[84, 79]),
   midi.NoteOnEvent(tick=120, channel=0, data=[84, 0]),
   midi.NoteOnEvent(tick=0, channel=0, data=[76, 0]),
   midi.NoteOnEvent(tick=0, channel=0, data=[82, 0]),
   midi.NoteOnEvent(tick=0, channel=0, data=[69, 54]),
   midi.NoteOnEvent(tick=0, channel=0, data=[77, 54]),
   midi.NoteOnEvent(tick=0, channel=0, data=[81, 54]),
   midi.NoteOnEvent(tick=120, channel=0, data=[79, 48]),
   midi.NoteOnEvent(tick=60, channel=0, data=[79, 0]),
   midi.NoteOnEvent(tick=0, channel=0, data=[69, 0]),
   midi.NoteOnEvent(tick=0, channel=0, data=[77, 0]),
   midi.NoteOnEvent(tick=0, channel=0, data=[81, 0]),
   midi.NoteOnEvent(tick=0, channel=0, data=[81, 48]),
   midi.NoteOnEvent(tick=60, channel=0, data=[81, 0]),
   midi.NoteOnEvent(tick=0, channel=0, data=[79, 53]),
   midi.NoteOnEvent(tick=120, channel=0, data=[79, 0]),
   midi.NoteOnEvent(tick=0, channel=0, data=[77, 49]),
   midi.NoteOnEvent(tick=120, channel=0, data=[77, 0]),
   midi.NoteOnEvent(tick=0, channel=0, data=[69, 46]),
   midi.NoteOnEvent(tick=120, channel=0, data=[69, 0]),
   midi.NoteOnEvent(tick=0, channel=0, data=[77, 46]),
   midi.NoteOnEvent(tick=120, channel=0, data=[77, 0]),
   midi.NoteOnEvent(tick=0, channel=0, data=[81, 51]),
   midi.NoteOnEvent(tick=120, channel=0, data=[81, 0]),
   midi.NoteOnEvent(tick=0, channel=0, data=[79, 47]),
   midi.NoteOnEvent(tick=120, channel=0, data=[79, 0]),
   midi.NoteOnEvent(tick=0, channel=0, data=[77, 53]),
   midi.NoteOnEvent(tick=120, channel=0, data=[77, 0]),
   midi.NoteOnEvent(tick=0, channel=0, data=[69, 45]),
   midi.NoteOnEvent(tick=120, channel=0, data=[69, 0]),
   midi.NoteOnEvent(tick=0, channel=0, data=[65, 48]),
   midi.NoteOnEvent(tick=120, channel=0, data=[65, 0]),
   midi.NoteOnEvent(tick=0, channel=0, data=[69, 43]),
   midi.NoteOnEvent(tick=120, channel=0, data=[69, 0]),
   midi.NoteOnEvent(tick=0, channel=0, data=[77, 57]),
   midi.NoteOnEvent(tick=0, channel=0, data=[81, 57]),
   midi.NoteOnEvent(tick=120, channel=0, data=[79, 51]),
   midi.NoteOnEvent(tick=60, channel=0, data=[79, 0]),
   midi.NoteOnEvent(tick=0, channel=0, data=[81, 0]),
   midi.NoteOnEvent(tick=0, channel=0, data=[77, 0]),
   midi.NoteOnEvent(tick=0, channel=0, data=[81, 51]),
   midi.NoteOnEvent(tick=60, channel=0, data=[81, 0]),
   midi.NoteOnEvent(tick=0, channel=0, data=[79, 57]),
   midi.NoteOnEvent(tick=120, channel=0, data=[79, 0]),
   midi.NoteOnEvent(tick=0, channel=0, data=[77, 55]),
   midi.NoteOnEvent(tick=120, channel=0, data=[77, 0]),
   midi.NoteOnEvent(tick=0, channel=0, data=[69, 51]),
   midi.NoteOnEvent(tick=120, channel=0, data=[69, 0]),
   midi.NoteOnEvent(tick=0, channel=0, data=[77, 53]),
   midi.NoteOnEvent(tick=120, channel=0, data=[77, 0]),
   midi.NoteOnEvent(tick=0, channel=0, data=[81, 60]),
   midi.NoteOnEvent(tick=120, channel=0, data=[81, 0]),
   midi.NoteOnEvent(tick=0, channel=0, data=[79, 56]),
   midi.NoteOnEvent(tick=120, channel=0, data=[79, 0]),
   midi.NoteOnEvent(tick=0, channel=0, data=[77, 62]),
   midi.NoteOnEvent(tick=120, channel=0, data=[77, 0]),
   midi.NoteOnEvent(tick=0, channel=0, data=[69, 52]),
   midi.NoteOnEvent(tick=120, channel=0, data=[69, 0]),
   midi.NoteOnEvent(tick=0, channel=0, data=[65, 57]),
   midi.NoteOnEvent(tick=120, channel=0, data=[65, 0]),
   midi.NoteOnEvent(tick=0, channel=0, data=[69, 50]),
   midi.NoteOnEvent(tick=120, channel=0, data=[69, 0]),
   midi.NoteOnEvent(tick=0, channel=0, data=[69, 66]),
   midi.NoteOnEvent(tick=0, channel=0, data=[77, 66]),
   midi.NoteOnEvent(tick=0, channel=0, data=[81, 66]),
   midi.NoteOnEvent(tick=120, channel=0, data=[79, 58]),
   midi.NoteOnEvent(tick=60, channel=0, data=[79, 0]),
   midi.NoteOnEvent(tick=0, channel=0, data=[69, 0]),
   midi.NoteOnEvent(tick=0, channel=0, data=[77, 0]),
   midi.NoteOnEvent(tick=0, channel=0, data=[81, 0]),
   midi.NoteOnEvent(tick=0, channel=0, data=[81, 56]),
   midi.NoteOnEvent(tick=60, channel=0, data=[81, 0]),
   midi.NoteOnEvent(tick=0, channel=0, data=[79, 67]),
   midi.NoteOnEvent(tick=120, channel=0, data=[79, 0]),
   midi.NoteOnEvent(tick=0, channel=0, data=[77, 64]),
   midi.NoteOnEvent(tick=120, channel=0, data=[77, 0]),
   midi.NoteOnEvent(tick=0, channel=0, data=[69, 59]),
   midi.NoteOnEvent(tick=120, channel=0, data=[69, 0]),
   midi.NoteOnEvent(tick=0, channel=0, data=[77, 61]),
   midi.NoteOnEvent(tick=120, channel=0, data=[77, 0]),
   midi.NoteOnEvent(tick=0, channel=0, data=[74, 70]),
   midi.NoteOnEvent(tick=0, channel=0, data=[77, 70]),
   midi.NoteOnEvent(tick=0, channel=0, data=[81, 70]),
   midi.NoteOnEvent(tick=120, channel=0, data=[79, 63]),
   midi.NoteOnEvent(tick=60, channel=0, data=[79, 0]),
   midi.NoteOnEvent(tick=0, channel=0, data=[74, 0]),
   midi.NoteOnEvent(tick=0, channel=0, data=[77, 0]),
   midi.NoteOnEvent(tick=0, channel=0, data=[81, 0]),
   midi.NoteOnEvent(tick=0, channel=0, data=[81, 63]),
   midi.NoteOnEvent(tick=60, channel=0, data=[81, 0]),
   midi.NoteOnEvent(tick=0, channel=0, data=[79, 71]),
   midi.NoteOnEvent(tick=120, channel=0, data=[79, 0]),
   midi.NoteOnEvent(tick=0, channel=0, data=[77, 63]),
   midi.NoteOnEvent(tick=120, channel=0, data=[77, 0]),
   midi.NoteOnEvent(tick=0, channel=0, data=[69, 63]),
   midi.NoteOnEvent(tick=120, channel=0, data=[69, 0]),
   midi.NoteOnEvent(tick=0, channel=0, data=[67, 57]),
   midi.NoteOnEvent(tick=120, channel=0, data=[67, 0]),
   midi.NoteOnEvent(tick=0, channel=0, data=[65, 57]),
   midi.NoteOnEvent(tick=0, channel=0, data=[69, 57]),
   midi.NoteOnEvent(tick=0, channel=0, data=[74, 78]),
   midi.NoteOnEvent(tick=120, channel=0, data=[74, 0]),
   midi.NoteOnEvent(tick=0, channel=0, data=[72, 69]),
   midi.NoteOnEvent(tick=120, channel=0, data=[72, 0]),
   midi.NoteOnEvent(tick=0, channel=0, data=[69, 0]),
   midi.NoteOnEvent(tick=0, channel=0, data=[65, 0]),
   midi.NoteOnEvent(tick=0, channel=0, data=[69, 61]),
   midi.NoteOnEvent(tick=0, channel=0, data=[72, 61]),
   midi.NoteOnEvent(tick=0, channel=0, data=[79, 82]),
   midi.NoteOnEvent(tick=120, channel=0, data=[79, 0]),
   midi.NoteOnEvent(tick=0, channel=0, data=[77, 73]),
   midi.NoteOnEvent(tick=120, channel=0, data=[77, 0]),
   midi.NoteOnEvent(tick=0, channel=0, data=[72, 0]),
   midi.NoteOnEvent(tick=0, channel=0, data=[69, 0]),
   midi.NoteOnEvent(tick=0, channel=0, data=[77, 63]),
   midi.NoteOnEvent(tick=0, channel=0, data=[81, 63]),
   midi.NoteOnEvent(tick=0, channel=0, data=[86, 85]),
   midi.NoteOnEvent(tick=120, channel=0, data=[86, 0]),
   midi.NoteOnEvent(tick=0, channel=0, data=[84, 76]),
   midi.NoteOnEvent(tick=120, channel=0, data=[84, 0]),
   midi.NoteOnEvent(tick=0, channel=0, data=[81, 0]),
   midi.NoteOnEvent(tick=0, channel=0, data=[77, 0]),
   midi.NoteOnEvent(tick=0, channel=0, data=[76, 75]),
   midi.NoteOnEvent(tick=0, channel=0, data=[82, 75]),
   midi.NoteOnEvent(tick=0, channel=0, data=[86, 100]),
   midi.NoteOnEvent(tick=120, channel=0, data=[86, 0]),
   midi.NoteOnEvent(tick=0, channel=0, data=[84, 77]),
   midi.NoteOnEvent(tick=120, channel=0, data=[84, 0]),
   midi.NoteOnEvent(tick=0, channel=0, data=[82, 0]),
   midi.NoteOnEvent(tick=0, channel=0, data=[76, 0]),
   midi.NoteOnEvent(tick=0, channel=0, data=[94, 74]),
   midi.NoteOnEvent(tick=0, channel=0, data=[88, 74]),
   midi.NoteOnEvent(tick=0, channel=0, data=[98, 99]),
   midi.NoteOnEvent(tick=120, channel=0, data=[98, 0]),
   midi.NoteOnEvent(tick=0, channel=0, data=[96, 80]),
   midi.NoteOnEvent(tick=120, channel=0, data=[96, 0]),
   midi.NoteOnEvent(tick=0, channel=0, data=[88, 0]),
   midi.NoteOnEvent(tick=0, channel=0, data=[94, 0]),
   midi.NoteOnEvent(tick=0, channel=0, data=[82, 74]),
   midi.NoteOnEvent(tick=0, channel=0, data=[76, 74]),
   midi.NoteOnEvent(tick=0, channel=0, data=[86, 99]),
   midi.NoteOnEvent(tick=120, channel=0, data=[86, 0]),
   midi.NoteOnEvent(tick=0, channel=0, data=[84, 76]),
   midi.NoteOnEvent(tick=120, channel=0, data=[84, 0]),
   midi.NoteOnEvent(tick=0, channel=0, data=[76, 0]),
   midi.NoteOnEvent(tick=0, channel=0, data=[82, 0]),
   midi.NoteOnEvent(tick=240, channel=0, data=[56, 60]),
   midi.NoteOnEvent(tick=0, channel=0, data=[61, 73]),
   midi.NoteOnEvent(tick=0, channel=0, data=[65, 80]),
   midi.NoteOnEvent(tick=120, channel=0, data=[65, 0]),
   midi.NoteOnEvent(tick=0, channel=0, data=[61, 0]),
   midi.NoteOnEvent(tick=0, channel=0, data=[56, 0]),
   midi.NoteOnEvent(tick=0, channel=0, data=[53, 71]),
   midi.NoteOnEvent(tick=120, channel=0, data=[53, 0]),
   midi.NoteOnEvent(tick=240, channel=0, data=[68, 73]),
   midi.NoteOnEvent(tick=0, channel=0, data=[73, 73]),
   midi.NoteOnEvent(tick=0, channel=0, data=[77, 80]),
   midi.NoteOnEvent(tick=120, channel=0, data=[77, 0]),
   midi.NoteOnEvent(tick=0, channel=0, data=[73, 0]),
   midi.NoteOnEvent(tick=0, channel=0, data=[68, 0]),
   midi.NoteOnEvent(tick=0, channel=0, data=[65, 71]),
   midi.NoteOnEvent(tick=120, channel=0, data=[65, 0]),
   midi.NoteOnEvent(tick=240, channel=0, data=[89, 79]),
   midi.NoteOnEvent(tick=0, channel=0, data=[85, 72]),
   midi.NoteOnEvent(tick=0, channel=0, data=[80, 72]),
   midi.NoteOnEvent(tick=120, channel=0, data=[80, 0]),
   midi.NoteOnEvent(tick=0, channel=0, data=[85, 0]),
   midi.NoteOnEvent(tick=0, channel=0, data=[89, 0]),
   midi.NoteOnEvent(tick=0, channel=0, data=[77, 72]),
   midi.NoteOnEvent(tick=120, channel=0, data=[77, 0]),
   midi.NoteOnEvent(tick=240, channel=0, data=[89, 81]),
   midi.NoteOnEvent(tick=0, channel=0, data=[83, 71]),
   midi.NoteOnEvent(tick=60, channel=0, data=[83, 0]),
   midi.NoteOnEvent(tick=0, channel=0, data=[89, 0]),
   midi.NoteOnEvent(tick=60, channel=0, data=[89, 81]),
   midi.NoteOnEvent(tick=0, channel=0, data=[83, 71]),
   midi.NoteOnEvent(tick=60, channel=0, data=[83, 0]),
   midi.NoteOnEvent(tick=0, channel=0, data=[89, 0]),
   midi.NoteOnEvent(tick=60, channel=0, data=[95, 85]),
   midi.NoteOnEvent(tick=0, channel=0, data=[89, 76]),
   midi.NoteOnEvent(tick=120, channel=0, data=[89, 0]),
   midi.NoteOnEvent(tick=0, channel=0, data=[95, 0]),
   midi.NoteOnEvent(tick=120, channel=0, data=[89, 82]),
   midi.NoteOnEvent(tick=0, channel=0, data=[83, 73]),
   midi.NoteOnEvent(tick=120, channel=0, data=[83, 0]),
   midi.NoteOnEvent(tick=0, channel=0, data=[89, 0]),
   midi.NoteOnEvent(tick=120, channel=0, data=[95, 85]),
   midi.NoteOnEvent(tick=0, channel=0, data=[89, 76]),
   midi.NoteOnEvent(tick=120, channel=0, data=[89, 0]),
   midi.NoteOnEvent(tick=0, channel=0, data=[95, 0]),
   midi.NoteOnEvent(tick=120, channel=0, data=[89, 82]),
   midi.NoteOnEvent(tick=0, channel=0, data=[83, 73]),
   midi.NoteOnEvent(tick=120, channel=0, data=[83, 0]),
   midi.NoteOnEvent(tick=0, channel=0, data=[89, 0]),
   midi.NoteOnEvent(tick=360, channel=0, data=[56, 60]),
   midi.NoteOnEvent(tick=0, channel=0, data=[61, 73]),
   midi.NoteOnEvent(tick=0, channel=0, data=[65, 80]),
   midi.NoteOnEvent(tick=120, channel=0, data=[65, 0]),
   midi.NoteOnEvent(tick=0, channel=0, data=[61, 0]),
   midi.NoteOnEvent(tick=0, channel=0, data=[56, 0]),
   midi.NoteOnEvent(tick=0, channel=0, data=[53, 71]),
   midi.NoteOnEvent(tick=120, channel=0, data=[53, 0]),
   midi.NoteOnEvent(tick=240, channel=0, data=[68, 73]),
   midi.NoteOnEvent(tick=0, channel=0, data=[73, 73]),
   midi.NoteOnEvent(tick=0, channel=0, data=[77, 80]),
   midi.NoteOnEvent(tick=120, channel=0, data=[77, 0]),
   midi.NoteOnEvent(tick=0, channel=0, data=[73, 0]),
   midi.NoteOnEvent(tick=0, channel=0, data=[68, 0]),
   midi.NoteOnEvent(tick=0, channel=0, data=[65, 71]),
   midi.NoteOnEvent(tick=120, channel=0, data=[65, 0]),
   midi.NoteOnEvent(tick=240, channel=0, data=[89, 80]),
   midi.NoteOnEvent(tick=0, channel=0, data=[85, 73]),
   midi.NoteOnEvent(tick=0, channel=0, data=[80, 73]),
   midi.NoteOnEvent(tick=120, channel=0, data=[80, 0]),
   midi.NoteOnEvent(tick=0, channel=0, data=[85, 0]),
   midi.NoteOnEvent(tick=0, channel=0, data=[89, 0]),
   midi.NoteOnEvent(tick=0, channel=0, data=[77, 73]),
   midi.NoteOnEvent(tick=120, channel=0, data=[77, 0]),
   midi.NoteOnEvent(tick=240, channel=0, data=[89, 90]),
   midi.NoteOnEvent(tick=0, channel=0, data=[83, 79]),
   midi.NoteOnEvent(tick=60, channel=0, data=[83, 0]),
   midi.NoteOnEvent(tick=0, channel=0, data=[89, 0]),
   midi.NoteOnEvent(tick=60, channel=0, data=[89, 81]),
   midi.NoteOnEvent(tick=0, channel=0, data=[83, 71]),
   midi.NoteOnEvent(tick=60, channel=0, data=[83, 0]),
   midi.NoteOnEvent(tick=0, channel=0, data=[89, 0]),
   midi.NoteOnEvent(tick=60, channel=0, data=[95, 85]),
   midi.NoteOnEvent(tick=0, channel=0, data=[89, 76]),
   midi.NoteOnEvent(tick=120, channel=0, data=[89, 0]),
   midi.NoteOnEvent(tick=0, channel=0, data=[95, 0]),
   midi.NoteOnEvent(tick=120, channel=0, data=[89, 82]),
   midi.NoteOnEvent(tick=0, channel=0, data=[83, 73]),
   midi.NoteOnEvent(tick=120, channel=0, data=[83, 0]),
   midi.NoteOnEvent(tick=0, channel=0, data=[89, 0]),
   midi.NoteOnEvent(tick=120, channel=0, data=[95, 85]),
   midi.NoteOnEvent(tick=0, channel=0, data=[89, 76]),
   midi.NoteOnEvent(tick=120, channel=0, data=[89, 0]),
   midi.NoteOnEvent(tick=0, channel=0, data=[95, 0]),
   midi.NoteOnEvent(tick=120, channel=0, data=[89, 82]),
   midi.NoteOnEvent(tick=0, channel=0, data=[83, 73]),
   midi.NoteOnEvent(tick=120, channel=0, data=[83, 0]),
   midi.NoteOnEvent(tick=0, channel=0, data=[89, 0]),
   midi.NoteOnEvent(tick=120, channel=0, data=[89, 76]),
   midi.NoteOnEvent(tick=0, channel=0, data=[96, 78]),
   midi.NoteOnEvent(tick=0, channel=0, data=[101, 90]),
   midi.NoteOnEvent(tick=60, channel=0, data=[101, 0]),
   midi.NoteOnEvent(tick=0, channel=0, data=[96, 0]),
   midi.NoteOnEvent(tick=0, channel=0, data=[89, 0]),
   midi.NoteOnEvent(tick=60, channel=0, data=[91, 69]),
   midi.NoteOnEvent(tick=60, channel=0, data=[91, 0]),
   midi.NoteOnEvent(tick=0, channel=0, data=[93, 70]),
   midi.NoteOnEvent(tick=60, channel=0, data=[93, 0]),
   midi.NoteOnEvent(tick=0, channel=0, data=[91, 75]),
   midi.NoteOnEvent(tick=120, channel=0, data=[91, 0]),
   midi.NoteOnEvent(tick=0, channel=0, data=[89, 68]),
   midi.NoteOnEvent(tick=120, channel=0, data=[89, 0]),
   midi.NoteOnEvent(tick=0, channel=0, data=[86, 72]),
   midi.NoteOnEvent(tick=120, channel=0, data=[86, 0]),
   midi.NoteOnEvent(tick=240, channel=0, data=[79, 62]),
   midi.NoteOnEvent(tick=60, channel=0, data=[79, 0]),
   midi.NoteOnEvent(tick=0, channel=0, data=[81, 63]),
   midi.NoteOnEvent(tick=60, channel=0, data=[81, 0]),
   midi.NoteOnEvent(tick=0, channel=0, data=[79, 69]),
   midi.NoteOnEvent(tick=120, channel=0, data=[79, 0]),
   midi.NoteOnEvent(tick=0, channel=0, data=[77, 68]),
   midi.NoteOnEvent(tick=120, channel=0, data=[77, 0]),
   midi.NoteOnEvent(tick=0, channel=0, data=[74, 72]),
   midi.NoteOnEvent(tick=120, channel=0, data=[74, 0]),
   midi.NoteOnEvent(tick=240, channel=0, data=[67, 62]),
   midi.NoteOnEvent(tick=60, channel=0, data=[67, 0]),
   midi.NoteOnEvent(tick=0, channel=0, data=[69, 63]),
   midi.NoteOnEvent(tick=60, channel=0, data=[69, 0]),
   midi.NoteOnEvent(tick=0, channel=0, data=[67, 69]),
   midi.NoteOnEvent(tick=120, channel=0, data=[67, 0]),
   midi.NoteOnEvent(tick=0, channel=0, data=[65, 68]),
   midi.NoteOnEvent(tick=120, channel=0, data=[65, 0]),
   midi.NoteOnEvent(tick=0, channel=0, data=[62, 72]),
   midi.NoteOnEvent(tick=120, channel=0, data=[62, 0]),
   midi.NoteOnEvent(tick=240, channel=0, data=[55, 63]),
   midi.NoteOnEvent(tick=60, channel=0, data=[55, 0]),
   midi.NoteOnEvent(tick=0, channel=0, data=[57, 63]),
   midi.NoteOnEvent(tick=60, channel=0, data=[57, 0]),
   midi.NoteOnEvent(tick=0, channel=0, data=[55, 70]),
   midi.NoteOnEvent(tick=120, channel=0, data=[55, 0]),
   midi.NoteOnEvent(tick=0, channel=0, data=[53, 67]),
   midi.NoteOnEvent(tick=120, channel=0, data=[53, 0]),
   midi.NoteOnEvent(tick=0, channel=0, data=[48, 73]),
   midi.NoteOnEvent(tick=120, channel=0, data=[48, 0]),
   midi.NoteOnEvent(tick=795, channel=0, data=[65, 68]),
   midi.NoteOnEvent(tick=15, channel=0, data=[70, 74]),
   midi.NoteOnEvent(tick=15, channel=0, data=[73, 79]),
   midi.NoteOnEvent(tick=15, channel=0, data=[77, 87]),
   midi.NoteOnEvent(tick=720, channel=0, data=[77, 0]),
   midi.NoteOnEvent(tick=0, channel=0, data=[65, 0]),
   midi.NoteOnEvent(tick=0, channel=0, data=[70, 0]),
   midi.NoteOnEvent(tick=0, channel=0, data=[73, 0]),
   midi.NoteOnEvent(tick=0, channel=0, data=[89, 101]),
   midi.NoteOnEvent(tick=0, channel=0, data=[84, 85]),
   midi.NoteOnEvent(tick=0, channel=0, data=[81, 85]),
   midi.NoteOnEvent(tick=0, channel=0, data=[77, 85]),
   midi.NoteOnEvent(tick=720, channel=0, data=[77, 0]),
   midi.NoteOnEvent(tick=0, channel=0, data=[89, 0]),
   midi.NoteOnEvent(tick=0, channel=0, data=[84, 0]),
   midi.NoteOnEvent(tick=0, channel=0, data=[81, 0]),
   midi.NoteOnEvent(tick=240, channel=0, data=[93, 107]),
   midi.NoteOnEvent(tick=0, channel=0, data=[89, 107]),
   midi.NoteOnEvent(tick=0, channel=0, data=[84, 91]),
   midi.NoteOnEvent(tick=0, channel=0, data=[81, 91]),
   midi.NoteOnEvent(tick=120, channel=0, data=[81, 0]),
   midi.NoteOnEvent(tick=0, channel=0, data=[93, 0]),
   midi.NoteOnEvent(tick=0, channel=0, data=[89, 0]),
   midi.NoteOnEvent(tick=0, channel=0, data=[84, 0]),
   midi.NoteOnEvent(tick=120, channel=0, data=[53, 107]),
   midi.NoteOnEvent(tick=240, channel=0, data=[53, 0]),
   midi.EndOfTrackEvent(tick=0, data=[])]),
 midi.Track(\
[    midi.ControlChangeEvent(tick=0, channel=0, data=[7, 100]),
   midi.ControlChangeEvent(tick=0, channel=0, data=[10, 64]),
   midi.NoteOnEvent(tick=0, channel=0, data=[53, 42]),
   midi.NoteOnEvent(tick=0, channel=0, data=[60, 42]),
   midi.NoteOnEvent(tick=0, channel=0, data=[65, 42]),
   midi.ControlChangeEvent(tick=0, channel=0, data=[64, 0]),
   midi.ControlChangeEvent(tick=7, channel=0, data=[64, 127]),
   midi.NoteOnEvent(tick=233, channel=0, data=[65, 0]),
   midi.NoteOnEvent(tick=0, channel=0, data=[60, 0]),
   midi.NoteOnEvent(tick=0, channel=0, data=[53, 0]),
   midi.NoteOnEvent(tick=0, channel=0, data=[64, 37]),
   midi.ControlChangeEvent(tick=21, channel=0, data=[64, 0]),
   midi.ControlChangeEvent(tick=25, channel=0, data=[64, 127]),
   midi.NoteOnEvent(tick=34, channel=0, data=[64, 0]),
   midi.NoteOnEvent(tick=0, channel=0, data=[65, 35]),
   midi.NoteOnEvent(tick=80, channel=0, data=[65, 0]),
   midi.NoteOnEvent(tick=0, channel=0, data=[64, 35]),
   midi.NoteOnEvent(tick=80, channel=0, data=[64, 0]),
   midi.NoteOnEvent(tick=0, channel=0, data=[62, 37]),
   midi.ControlChangeEvent(tick=14, channel=0, data=[64, 0]),
   midi.ControlChangeEvent(tick=25, channel=0, data=[64, 127]),
   midi.NoteOnEvent(tick=81, channel=0, data=[62, 0]),
   midi.NoteOnEvent(tick=0, channel=0, data=[64, 35]),
   midi.NoteOnEvent(tick=120, channel=0, data=[64, 0]),
   midi.NoteOnEvent(tick=0, channel=0, data=[65, 40]),
   midi.ControlChangeEvent(tick=12, channel=0, data=[64, 0]),
   midi.ControlChangeEvent(tick=73, channel=0, data=[64, 127]),
   midi.NoteOnEvent(tick=35, channel=0, data=[65, 0]),
   midi.NoteOnEvent(tick=0, channel=0, data=[62, 36]),
   midi.NoteOnEvent(tick=120, channel=0, data=[62, 0]),
   midi.NoteOnEvent(tick=0, channel=0, data=[64, 38]),
   midi.ControlChangeEvent(tick=9, channel=0, data=[64, 0]),
   midi.NoteOnEvent(tick=81, channel=0, data=[64, 0]),
   midi.NoteOnEvent(tick=150, channel=0, data=[60, 32]),
   midi.NoteOnEvent(tick=90, channel=0, data=[60, 0]),
   midi.NoteOnEvent(tick=150, channel=0, data=[60, 42]),
   midi.NoteOnEvent(tick=0, channel=0, data=[53, 42]),
   midi.NoteOnEvent(tick=0, channel=0, data=[65, 42]),
   midi.ControlChangeEvent(tick=53, channel=0, data=[64, 127]),
   midi.NoteOnEvent(tick=187, channel=0, data=[65, 0]),
   midi.NoteOnEvent(tick=0, channel=0, data=[53, 0]),
   midi.NoteOnEvent(tick=0, channel=0, data=[60, 0]),
   midi.NoteOnEvent(tick=0, channel=0, data=[64, 37]),
   midi.ControlChangeEvent(tick=17, channel=0, data=[64, 0]),
   midi.ControlChangeEvent(tick=29, channel=0, data=[64, 127]),
   midi.NoteOnEvent(tick=34, channel=0, data=[64, 0]),
   midi.NoteOnEvent(tick=0, channel=0, data=[65, 35]),
   midi.NoteOnEvent(tick=80, channel=0, data=[65, 0]),
   midi.NoteOnEvent(tick=0, channel=0, data=[64, 35]),
   midi.NoteOnEvent(tick=80, channel=0, data=[64, 0]),
   midi.NoteOnEvent(tick=0, channel=0, data=[62, 37]),
   midi.ControlChangeEvent(tick=14, channel=0, data=[64, 0]),
   midi.ControlChangeEvent(tick=25, channel=0, data=[64, 127]),
   midi.NoteOnEvent(tick=81, channel=0, data=[62, 0]),
   midi.NoteOnEvent(tick=0, channel=0, data=[64, 35]),
   midi.NoteOnEvent(tick=120, channel=0, data=[64, 0]),
   midi.NoteOnEvent(tick=0, channel=0, data=[65, 40]),
   midi.ControlChangeEvent(tick=12, channel=0, data=[64, 0]),
   midi.ControlChangeEvent(tick=73, channel=0, data=[64, 127]),
   midi.NoteOnEvent(tick=35, channel=0, data=[65, 0]),
   midi.NoteOnEvent(tick=0, channel=0, data=[62, 36]),
   midi.NoteOnEvent(tick=120, channel=0, data=[62, 0]),
   midi.NoteOnEvent(tick=0, channel=0, data=[64, 38]),
   midi.ControlChangeEvent(tick=21, channel=0, data=[64, 0]),
   midi.NoteOnEvent(tick=69, channel=0, data=[64, 0]),
   midi.NoteOnEvent(tick=150, channel=0, data=[60, 32]),
   midi.NoteOnEvent(tick=90, channel=0, data=[60, 0]),
   midi.NoteOnEvent(tick=150, channel=0, data=[62, 44]),
   midi.ControlChangeEvent(tick=64, channel=0, data=[64, 127]),
   midi.NoteOnEvent(tick=56, channel=0, data=[62, 0]),
   midi.NoteOnEvent(tick=0, channel=0, data=[64, 39]),
   midi.NoteOnEvent(tick=120, channel=0, data=[64, 0]),
   midi.NoteOnEvent(tick=0, channel=0, data=[60, 36]),
   midi.ControlChangeEvent(tick=5, channel=0, data=[64, 0]),
   midi.NoteOnEvent(tick=205, channel=0, data=[60, 0]),
   midi.NoteOnEvent(tick=30, channel=0, data=[62, 44]),
   midi.ControlChangeEvent(tick=71, channel=0, data=[64, 127]),
   midi.NoteOnEvent(tick=49, channel=0, data=[62, 0]),
   midi.NoteOnEvent(tick=0, channel=0, data=[64, 45]),
   midi.NoteOnEvent(tick=120, channel=0, data=[64, 0]),
   midi.NoteOnEvent(tick=0, channel=0, data=[65, 48]),
   midi.ControlChangeEvent(tick=6, channel=0, data=[64, 0]),
   midi.NoteOnEvent(tick=204, channel=0, data=[65, 0]),
   midi.NoteOnEvent(tick=30, channel=0, data=[62, 44]),
   midi.ControlChangeEvent(tick=71, channel=0, data=[64, 127]),
   midi.NoteOnEvent(tick=49, channel=0, data=[62, 0]),
   midi.NoteOnEvent(tick=0, channel=0, data=[64, 39]),
   midi.NoteOnEvent(tick=120, channel=0, data=[64, 0]),
   midi.NoteOnEvent(tick=0, channel=0, data=[60, 32]),
   midi.ControlChangeEvent(tick=25, channel=0, data=[64, 0]),
   midi.NoteOnEvent(tick=185, channel=0, data=[60, 0]),
   midi.NoteOnEvent(tick=30, channel=0, data=[62, 42]),
   midi.ControlChangeEvent(tick=64, channel=0, data=[64, 127]),
   midi.NoteOnEvent(tick=56, channel=0, data=[62, 0]),
   midi.NoteOnEvent(tick=0, channel=0, data=[64, 38]),
   midi.NoteOnEvent(tick=120, channel=0, data=[64, 0]),
   midi.NoteOnEvent(tick=0, channel=0, data=[60, 31]),
   midi.ControlChangeEvent(tick=9, channel=0, data=[64, 0]),
   midi.NoteOnEvent(tick=201, channel=0, data=[60, 0]),
   midi.NoteOnEvent(tick=30, channel=0, data=[62, 36]),
   midi.ControlChangeEvent(tick=71, channel=0, data=[64, 127]),
   midi.NoteOnEvent(tick=49, channel=0, data=[62, 0]),
   midi.NoteOnEvent(tick=0, channel=0, data=[64, 38]),
   midi.NoteOnEvent(tick=120, channel=0, data=[64, 0]),
   midi.NoteOnEvent(tick=0, channel=0, data=[67, 43]),
   midi.ControlChangeEvent(tick=8, channel=0, data=[64, 0]),
   midi.ControlChangeEvent(tick=56, channel=0, data=[64, 127]),
   midi.NoteOnEvent(tick=56, channel=0, data=[67, 0]),
   midi.NoteOnEvent(tick=0, channel=0, data=[65, 38]),
   midi.NoteOnEvent(tick=120, channel=0, data=[65, 0]),
   midi.NoteOnEvent(tick=0, channel=0, data=[62, 42]),
   midi.ControlChangeEvent(tick=10, channel=0, data=[64, 0]),
   midi.ControlChangeEvent(tick=82, channel=0, data=[64, 127]),
   midi.NoteOnEvent(tick=28, channel=0, data=[62, 0]),
   midi.NoteOnEvent(tick=0, channel=0, data=[64, 40]),
   midi.NoteOnEvent(tick=120, channel=0, data=[64, 0]),
   midi.NoteOnEvent(tick=0, channel=0, data=[60, 36]),
   midi.ControlChangeEvent(tick=19, channel=0, data=[64, 0]),
   midi.ControlChangeEvent(tick=108, channel=0, data=[64, 127]),
   midi.NoteOnEvent(tick=113, channel=0, data=[60, 0]),
   midi.NoteOnEvent(tick=0, channel=0, data=[64, 38]),
   midi.NoteOnEvent(tick=0, channel=0, data=[57, 38]),
   midi.NoteOnEvent(tick=0, channel=0, data=[69, 44]),
   midi.ControlChangeEvent(tick=5, channel=0, data=[64, 0]),
   midi.ControlChangeEvent(tick=59, channel=0, data=[64, 127]),
   midi.NoteOnEvent(tick=176, channel=0, data=[69, 0]),
   midi.NoteOnEvent(tick=0, channel=0, data=[57, 0]),
   midi.NoteOnEvent(tick=0, channel=0, data=[64, 0]),
   midi.NoteOnEvent(tick=0, channel=0, data=[68, 38]),
   midi.ControlChangeEvent(tick=18, channel=0, data=[64, 0]),
   midi.ControlChangeEvent(tick=28, channel=0, data=[64, 127]),
   midi.NoteOnEvent(tick=34, channel=0, data=[68, 0]),
   midi.NoteOnEvent(tick=0, channel=0, data=[69, 36]),
   midi.NoteOnEvent(tick=80, channel=0, data=[69, 0]),
   midi.NoteOnEvent(tick=0, channel=0, data=[68, 36]),
   midi.NoteOnEvent(tick=80, channel=0, data=[68, 0]),
   midi.NoteOnEvent(tick=0, channel=0, data=[66, 38]),
   midi.ControlChangeEvent(tick=14, channel=0, data=[64, 0]),
   midi.ControlChangeEvent(tick=25, channel=0, data=[64, 127]),
   midi.NoteOnEvent(tick=81, channel=0, data=[66, 0]),
   midi.NoteOnEvent(tick=0, channel=0, data=[68, 36]),
   midi.NoteOnEvent(tick=120, channel=0, data=[68, 0]),
   midi.NoteOnEvent(tick=0, channel=0, data=[69, 42]),
   midi.ControlChangeEvent(tick=12, channel=0, data=[64, 0]),
   midi.ControlChangeEvent(tick=73, channel=0, data=[64, 127]),
   midi.NoteOnEvent(tick=35, channel=0, data=[69, 0]),
   midi.NoteOnEvent(tick=0, channel=0, data=[66, 37]),
   midi.NoteOnEvent(tick=120, channel=0, data=[66, 0]),
   midi.NoteOnEvent(tick=0, channel=0, data=[68, 39]),
   midi.ControlChangeEvent(tick=14, channel=0, data=[64, 0]),
   midi.NoteOnEvent(tick=76, channel=0, data=[68, 0]),
   midi.NoteOnEvent(tick=150, channel=0, data=[64, 37]),
   midi.NoteOnEvent(tick=90, channel=0, data=[64, 0]),
   midi.NoteOnEvent(tick=150, channel=0, data=[64, 38]),
   midi.NoteOnEvent(tick=0, channel=0, data=[57, 38]),
   midi.NoteOnEvent(tick=0, channel=0, data=[69, 44]),
   midi.ControlChangeEvent(tick=46, channel=0, data=[64, 127]),
   midi.NoteOnEvent(tick=194, channel=0, data=[69, 0]),
   midi.NoteOnEvent(tick=0, channel=0, data=[57, 0]),
   midi.NoteOnEvent(tick=0, channel=0, data=[64, 0]),
   midi.NoteOnEvent(tick=0, channel=0, data=[68, 38]),
   midi.ControlChangeEvent(tick=18, channel=0, data=[64, 0]),
   midi.ControlChangeEvent(tick=28, channel=0, data=[64, 127]),
   midi.NoteOnEvent(tick=34, channel=0, data=[68, 0]),
   midi.NoteOnEvent(tick=0, channel=0, data=[69, 36]),
   midi.NoteOnEvent(tick=80, channel=0, data=[69, 0]),
   midi.NoteOnEvent(tick=0, channel=0, data=[68, 36]),
   midi.NoteOnEvent(tick=80, channel=0, data=[68, 0]),
   midi.NoteOnEvent(tick=0, channel=0, data=[66, 38]),
   midi.ControlChangeEvent(tick=14, channel=0, data=[64, 0]),
   midi.ControlChangeEvent(tick=25, channel=0, data=[64, 127]),
   midi.NoteOnEvent(tick=81, channel=0, data=[66, 0]),
   midi.NoteOnEvent(tick=0, channel=0, data=[68, 36]),
   midi.NoteOnEvent(tick=120, channel=0, data=[68, 0]),
   midi.NoteOnEvent(tick=0, channel=0, data=[69, 42]),
   midi.ControlChangeEvent(tick=42, channel=0, data=[64, 0]),
   midi.ControlChangeEvent(tick=43, channel=0, data=[64, 127]),
   midi.NoteOnEvent(tick=35, channel=0, data=[69, 0]),
   midi.NoteOnEvent(tick=0, channel=0, data=[66, 37]),
   midi.NoteOnEvent(tick=120, channel=0, data=[66, 0]),
   midi.NoteOnEvent(tick=0, channel=0, data=[68, 39]),
   midi.ControlChangeEvent(tick=16, channel=0, data=[64, 0]),
   midi.NoteOnEvent(tick=74, channel=0, data=[68, 0]),
   midi.NoteOnEvent(tick=150, channel=0, data=[64, 37]),
   midi.NoteOnEvent(tick=90, channel=0, data=[64, 0]),
   midi.NoteOnEvent(tick=150, channel=0, data=[66, 46]),
   midi.ControlChangeEvent(tick=43, channel=0, data=[64, 127]),
   midi.NoteOnEvent(tick=77, channel=0, data=[66, 0]),
   midi.NoteOnEvent(tick=0, channel=0, data=[68, 40]),
   midi.NoteOnEvent(tick=120, channel=0, data=[68, 0]),
   midi.NoteOnEvent(tick=0, channel=0, data=[64, 37]),
   midi.ControlChangeEvent(tick=11, channel=0, data=[64, 0]),
   midi.NoteOnEvent(tick=199, channel=0, data=[64, 0]),
   midi.NoteOnEvent(tick=30, channel=0, data=[66, 46]),
   midi.ControlChangeEvent(tick=71, channel=0, data=[64, 127]),
   midi.NoteOnEvent(tick=49, channel=0, data=[66, 0]),
   midi.NoteOnEvent(tick=0, channel=0, data=[68, 47]),
   midi.NoteOnEvent(tick=120, channel=0, data=[68, 0]),
   midi.NoteOnEvent(tick=0, channel=0, data=[69, 50]),
   midi.ControlChangeEvent(tick=7, channel=0, data=[64, 0]),
   midi.ControlChangeEvent(tick=85, channel=0, data=[64, 127]),
   midi.NoteOnEvent(tick=118, channel=0, data=[69, 0]),
   midi.NoteOnEvent(tick=30, channel=0, data=[66, 46]),
   midi.ControlChangeEvent(tick=16, channel=0, data=[64, 0]),
   midi.ControlChangeEvent(tick=83, channel=0, data=[64, 127]),
   midi.NoteOnEvent(tick=21, channel=0, data=[66, 0]),
   midi.NoteOnEvent(tick=0, channel=0, data=[68, 40]),
   midi.NoteOnEvent(tick=120, channel=0, data=[68, 0]),
   midi.NoteOnEvent(tick=0, channel=0, data=[64, 33]),
   midi.ControlChangeEvent(tick=14, channel=0, data=[64, 0]),
   midi.NoteOnEvent(tick=196, channel=0, data=[64, 0]),
   midi.NoteOnEvent(tick=30, channel=0, data=[66, 44]),
   midi.ControlChangeEvent(tick=50, channel=0, data=[64, 127]),
   midi.NoteOnEvent(tick=70, channel=0, data=[66, 0]),
   midi.NoteOnEvent(tick=0, channel=0, data=[68, 39]),
   midi.NoteOnEvent(tick=120, channel=0, data=[68, 0]),
   midi.NoteOnEvent(tick=0, channel=0, data=[64, 32]),
   midi.ControlChangeEvent(tick=10, channel=0, data=[64, 0]),
   midi.ControlChangeEvent(tick=110, channel=0, data=[64, 127]),
   midi.NoteOnEvent(tick=90, channel=0, data=[64, 0]),
   midi.NoteOnEvent(tick=30, channel=0, data=[66, 37]),
   midi.ControlChangeEvent(tick=11, channel=0, data=[64, 0]),
   midi.ControlChangeEvent(tick=95, channel=0, data=[64, 127]),
   midi.NoteOnEvent(tick=14, channel=0, data=[66, 0]),
   midi.NoteOnEvent(tick=0, channel=0, data=[68, 39]),
   midi.NoteOnEvent(tick=120, channel=0, data=[68, 0]),
   midi.NoteOnEvent(tick=0, channel=0, data=[71, 45]),
   midi.ControlChangeEvent(tick=10, channel=0, data=[64, 0]),
   midi.ControlChangeEvent(tick=61, channel=0, data=[64, 127]),
   midi.NoteOnEvent(tick=49, channel=0, data=[71, 0]),
   midi.NoteOnEvent(tick=0, channel=0, data=[69, 39]),
   midi.NoteOnEvent(tick=120, channel=0, data=[69, 0]),
   midi.NoteOnEvent(tick=0, channel=0, data=[66, 44]),
   midi.ControlChangeEvent(tick=14, channel=0, data=[64, 0]),
   midi.ControlChangeEvent(tick=99, channel=0, data=[64, 127]),
   midi.NoteOnEvent(tick=7, channel=0, data=[66, 0]),
   midi.NoteOnEvent(tick=0, channel=0, data=[68, 42]),
   midi.NoteOnEvent(tick=120, channel=0, data=[68, 0]),
   midi.NoteOnEvent(tick=0, channel=0, data=[64, 37]),
   midi.ControlChangeEvent(tick=16, channel=0, data=[64, 0]),
   midi.ControlChangeEvent(tick=118, channel=0, data=[64, 127]),
   midi.NoteOnEvent(tick=106, channel=0, data=[64, 0]),
   midi.NoteOnEvent(tick=0, channel=0, data=[48, 55]),
   midi.NoteOnEvent(tick=0, channel=0, data=[55, 62]),
   midi.ControlChangeEvent(tick=8, channel=0, data=[64, 0]),
   midi.ControlChangeEvent(tick=49, channel=0, data=[64, 127]),
   midi.NoteOnEvent(tick=63, channel=0, data=[55, 0]),
   midi.NoteOnEvent(tick=0, channel=0, data=[48, 0]),
   midi.NoteOnEvent(tick=120, channel=0, data=[55, 56]),
   midi.NoteOnEvent(tick=0, channel=0, data=[43, 50]),
   midi.ControlChangeEvent(tick=19, channel=0, data=[64, 0]),
   midi.ControlChangeEvent(tick=27, channel=0, data=[64, 127]),
   midi.NoteOnEvent(tick=74, channel=0, data=[43, 0]),
   midi.NoteOnEvent(tick=0, channel=0, data=[55, 0]),
   midi.NoteOnEvent(tick=120, channel=0, data=[55, 49]),
   midi.NoteOnEvent(tick=0, channel=0, data=[48, 43]),
   midi.ControlChangeEvent(tick=14, channel=0, data=[64, 0]),
   midi.ControlChangeEvent(tick=57, channel=0, data=[64, 127]),
   midi.NoteOnEvent(tick=49, channel=0, data=[48, 0]),
   midi.NoteOnEvent(tick=0, channel=0, data=[55, 0]),
   midi.NoteOnEvent(tick=120, channel=0, data=[50, 55]),
   midi.NoteOnEvent(tick=0, channel=0, data=[55, 62]),
   midi.ControlChangeEvent(tick=12, channel=0, data=[64, 0]),
   midi.ControlChangeEvent(tick=73, channel=0, data=[64, 127]),
   midi.NoteOnEvent(tick=35, channel=0, data=[55, 0]),
   midi.NoteOnEvent(tick=0, channel=0, data=[50, 0]),
   midi.NoteOnEvent(tick=120, channel=0, data=[55, 56]),
   midi.NoteOnEvent(tick=0, channel=0, data=[43, 50]),
   midi.ControlChangeEvent(tick=18, channel=0, data=[64, 0]),
   midi.NoteOnEvent(tick=72, channel=0, data=[43, 0]),
   midi.NoteOnEvent(tick=0, channel=0, data=[55, 0]),
   midi.NoteOnEvent(tick=150, channel=0, data=[55, 56]),
   midi.NoteOnEvent(tick=0, channel=0, data=[50, 50]),
   midi.NoteOnEvent(tick=90, channel=0, data=[50, 0]),
   midi.NoteOnEvent(tick=0, channel=0, data=[55, 0]),
   midi.NoteOnEvent(tick=150, channel=0, data=[55, 62]),
   midi.NoteOnEvent(tick=0, channel=0, data=[48, 55]),
   midi.ControlChangeEvent(tick=46, channel=0, data=[64, 127]),
   midi.NoteOnEvent(tick=74, channel=0, data=[48, 0]),
   midi.NoteOnEvent(tick=0, channel=0, data=[55, 0]),
   midi.NoteOnEvent(tick=120, channel=0, data=[55, 56]),
   midi.NoteOnEvent(tick=0, channel=0, data=[43, 50]),
   midi.ControlChangeEvent(tick=18, channel=0, data=[64, 0]),
   midi.ControlChangeEvent(tick=28, channel=0, data=[64, 127]),
   midi.NoteOnEvent(tick=74, channel=0, data=[43, 0]),
   midi.NoteOnEvent(tick=0, channel=0, data=[55, 0]),
   midi.NoteOnEvent(tick=120, channel=0, data=[55, 49]),
   midi.NoteOnEvent(tick=0, channel=0, data=[48, 42]),
   midi.ControlChangeEvent(tick=14, channel=0, data=[64, 0]),
   midi.ControlChangeEvent(tick=36, channel=0, data=[64, 127]),
   midi.NoteOnEvent(tick=70, channel=0, data=[48, 0]),
   midi.NoteOnEvent(tick=0, channel=0, data=[55, 0]),
   midi.NoteOnEvent(tick=120, channel=0, data=[50, 55]),
   midi.NoteOnEvent(tick=0, channel=0, data=[55, 62]),
   midi.ControlChangeEvent(tick=20, channel=0, data=[64, 0]),
   midi.ControlChangeEvent(tick=65, channel=0, data=[64, 127]),
   midi.NoteOnEvent(tick=35, channel=0, data=[55, 0]),
   midi.NoteOnEvent(tick=0, channel=0, data=[50, 0]),
   midi.NoteOnEvent(tick=120, channel=0, data=[43, 50]),
   midi.NoteOnEvent(tick=0, channel=0, data=[55, 56]),
   midi.ControlChangeEvent(tick=20, channel=0, data=[64, 0]),
   midi.NoteOnEvent(tick=70, channel=0, data=[55, 0]),
   midi.NoteOnEvent(tick=0, channel=0, data=[43, 0]),
   midi.NoteOnEvent(tick=150, channel=0, data=[55, 56]),
   midi.NoteOnEvent(tick=0, channel=0, data=[50, 50]),
   midi.NoteOnEvent(tick=90, channel=0, data=[50, 0]),
   midi.NoteOnEvent(tick=0, channel=0, data=[55, 0]),
   midi.NoteOnEvent(tick=150, channel=0, data=[48, 45]),
   midi.NoteOnEvent(tick=0, channel=0, data=[55, 48]),
   midi.NoteOnEvent(tick=120, channel=0, data=[55, 0]),
   midi.NoteOnEvent(tick=0, channel=0, data=[56, 45]),
   midi.NoteOnEvent(tick=120, channel=0, data=[56, 0]),
   midi.NoteOnEvent(tick=0, channel=0, data=[48, 0]),
   midi.NoteOnEvent(tick=0, channel=0, data=[58, 49]),
   midi.NoteOnEvent(tick=240, channel=0, data=[58, 0]),
   midi.NoteOnEvent(tick=0, channel=0, data=[58, 45]),
   midi.NoteOnEvent(tick=120, channel=0, data=[58, 0]),
   midi.NoteOnEvent(tick=0, channel=0, data=[56, 45]),
   midi.NoteOnEvent(tick=120, channel=0, data=[56, 0]),
   midi.NoteOnEvent(tick=0, channel=0, data=[55, 43]),
   midi.NoteOnEvent(tick=120, channel=0, data=[55, 0]),
   midi.NoteOnEvent(tick=0, channel=0, data=[56, 43]),
   midi.NoteOnEvent(tick=120, channel=0, data=[56, 0]),
   midi.NoteOnEvent(tick=0, channel=0, data=[58, 44]),
   midi.NoteOnEvent(tick=120, channel=0, data=[58, 0]),
   midi.NoteOnEvent(tick=0, channel=0, data=[60, 45]),
   midi.NoteOnEvent(tick=120, channel=0, data=[60, 0]),
   midi.NoteOnEvent(tick=0, channel=0, data=[61, 46]),
   midi.NoteOnEvent(tick=120, channel=0, data=[61, 0]),
   midi.NoteOnEvent(tick=0, channel=0, data=[63, 48]),
   midi.NoteOnEvent(tick=120, channel=0, data=[63, 0]),
   midi.NoteOnEvent(tick=0, channel=0, data=[61, 47]),
   midi.NoteOnEvent(tick=120, channel=0, data=[61, 0]),
   midi.NoteOnEvent(tick=0, channel=0, data=[65, 49]),
   midi.NoteOnEvent(tick=120, channel=0, data=[65, 0]),
   midi.NoteOnEvent(tick=0, channel=0, data=[64, 49]),
   midi.NoteOnEvent(tick=120, channel=0, data=[64, 0]),
   midi.NoteOnEvent(tick=0, channel=0, data=[60, 45]),
   midi.NoteOnEvent(tick=120, channel=0, data=[60, 0]),
   midi.NoteOnEvent(tick=0, channel=0, data=[61, 48]),
   midi.NoteOnEvent(tick=120, channel=0, data=[61, 0]),
   midi.NoteOnEvent(tick=0, channel=0, data=[58, 45]),
   midi.NoteOnEvent(tick=120, channel=0, data=[58, 0]),
   midi.NoteOnEvent(tick=0, channel=0, data=[56, 45]),
   midi.NoteOnEvent(tick=120, channel=0, data=[56, 0]),
   midi.NoteOnEvent(tick=0, channel=0, data=[58, 40]),
   midi.NoteOnEvent(tick=120, channel=0, data=[58, 0]),
   midi.NoteOnEvent(tick=0, channel=0, data=[55, 44]),
   midi.NoteOnEvent(tick=120, channel=0, data=[55, 0]),
   midi.NoteOnEvent(tick=0, channel=0, data=[56, 40]),
   midi.NoteOnEvent(tick=120, channel=0, data=[56, 0]),
   midi.NoteOnEvent(tick=0, channel=0, data=[53, 42]),
   midi.NoteOnEvent(tick=120, channel=0, data=[53, 0]),
   midi.NoteOnEvent(tick=0, channel=0, data=[55, 40]),
   midi.NoteOnEvent(tick=120, channel=0, data=[55, 0]),
   midi.NoteOnEvent(tick=0, channel=0, data=[55, 62]),
   midi.NoteOnEvent(tick=0, channel=0, data=[48, 55]),
   midi.ControlChangeEvent(tick=60, channel=0, data=[64, 127]),
   midi.NoteOnEvent(tick=60, channel=0, data=[48, 0]),
   midi.NoteOnEvent(tick=0, channel=0, data=[55, 0]),
   midi.NoteOnEvent(tick=120, channel=0, data=[55, 56]),
   midi.NoteOnEvent(tick=0, channel=0, data=[43, 50]),
   midi.ControlChangeEvent(tick=18, channel=0, data=[64, 0]),
   midi.ControlChangeEvent(tick=28, channel=0, data=[64, 127]),
   midi.NoteOnEvent(tick=74, channel=0, data=[43, 0]),
   midi.NoteOnEvent(tick=0, channel=0, data=[55, 0]),
   midi.NoteOnEvent(tick=120, channel=0, data=[55, 48]),
   midi.NoteOnEvent(tick=0, channel=0, data=[48, 43]),
   midi.ControlChangeEvent(tick=14, channel=0, data=[64, 0]),
   midi.ControlChangeEvent(tick=25, channel=0, data=[64, 127]),
   midi.NoteOnEvent(tick=81, channel=0, data=[48, 0]),
   midi.NoteOnEvent(tick=0, channel=0, data=[55, 0]),
   midi.NoteOnEvent(tick=120, channel=0, data=[55, 62]),
   midi.NoteOnEvent(tick=0, channel=0, data=[50, 55]),
   midi.ControlChangeEvent(tick=12, channel=0, data=[64, 0]),
   midi.ControlChangeEvent(tick=73, channel=0, data=[64, 127]),
   midi.NoteOnEvent(tick=35, channel=0, data=[50, 0]),
   midi.NoteOnEvent(tick=0, channel=0, data=[55, 0]),
   midi.NoteOnEvent(tick=120, channel=0, data=[55, 56]),
   midi.NoteOnEvent(tick=0, channel=0, data=[43, 50]),
   midi.ControlChangeEvent(tick=19, channel=0, data=[64, 0]),
   midi.NoteOnEvent(tick=71, channel=0, data=[43, 0]),
   midi.NoteOnEvent(tick=0, channel=0, data=[55, 0]),
   midi.NoteOnEvent(tick=150, channel=0, data=[55, 56]),
   midi.NoteOnEvent(tick=0, channel=0, data=[50, 50]),
   midi.NoteOnEvent(tick=90, channel=0, data=[50, 0]),
   midi.NoteOnEvent(tick=0, channel=0, data=[55, 0]),
   midi.NoteOnEvent(tick=150, channel=0, data=[55, 62]),
   midi.NoteOnEvent(tick=0, channel=0, data=[48, 55]),
   midi.ControlChangeEvent(tick=32, channel=0, data=[64, 127]),
   midi.NoteOnEvent(tick=88, channel=0, data=[48, 0]),
   midi.NoteOnEvent(tick=0, channel=0, data=[55, 0]),
   midi.NoteOnEvent(tick=120, channel=0, data=[55, 56]),
   midi.NoteOnEvent(tick=0, channel=0, data=[43, 50]),
   midi.ControlChangeEvent(tick=18, channel=0, data=[64, 0]),
   midi.ControlChangeEvent(tick=28, channel=0, data=[64, 127]),
   midi.NoteOnEvent(tick=74, channel=0, data=[43, 0]),
   midi.NoteOnEvent(tick=0, channel=0, data=[55, 0]),
   midi.NoteOnEvent(tick=120, channel=0, data=[55, 49]),
   midi.NoteOnEvent(tick=0, channel=0, data=[48, 41]),
   midi.ControlChangeEvent(tick=14, channel=0, data=[64, 0]),
   midi.ControlChangeEvent(tick=25, channel=0, data=[64, 127]),
   midi.NoteOnEvent(tick=81, channel=0, data=[48, 0]),
   midi.NoteOnEvent(tick=0, channel=0, data=[55, 0]),
   midi.NoteOnEvent(tick=120, channel=0, data=[55, 62]),
   midi.NoteOnEvent(tick=0, channel=0, data=[50, 55]),
   midi.ControlChangeEvent(tick=12, channel=0, data=[64, 0]),
   midi.ControlChangeEvent(tick=73, channel=0, data=[64, 127]),
   midi.NoteOnEvent(tick=35, channel=0, data=[50, 0]),
   midi.NoteOnEvent(tick=0, channel=0, data=[55, 0]),
   midi.NoteOnEvent(tick=120, channel=0, data=[55, 56]),
   midi.NoteOnEvent(tick=0, channel=0, data=[43, 50]),
   midi.ControlChangeEvent(tick=19, channel=0, data=[64, 0]),
   midi.NoteOnEvent(tick=71, channel=0, data=[43, 0]),
   midi.NoteOnEvent(tick=0, channel=0, data=[55, 0]),
   midi.NoteOnEvent(tick=150, channel=0, data=[55, 56]),
   midi.NoteOnEvent(tick=0, channel=0, data=[50, 50]),
   midi.NoteOnEvent(tick=90, channel=0, data=[50, 0]),
   midi.NoteOnEvent(tick=0, channel=0, data=[55, 0]),
   midi.NoteOnEvent(tick=150, channel=0, data=[67, 43]),
   midi.NoteOnEvent(tick=0, channel=0, data=[60, 40]),
   midi.NoteOnEvent(tick=120, channel=0, data=[67, 0]),
   midi.NoteOnEvent(tick=0, channel=0, data=[68, 40]),
   midi.NoteOnEvent(tick=120, channel=0, data=[68, 0]),
   midi.NoteOnEvent(tick=0, channel=0, data=[60, 0]),
   midi.NoteOnEvent(tick=0, channel=0, data=[70, 44]),
   midi.NoteOnEvent(tick=240, channel=0, data=[70, 0]),
   midi.NoteOnEvent(tick=0, channel=0, data=[70, 40]),
   midi.NoteOnEvent(tick=120, channel=0, data=[70, 0]),
   midi.NoteOnEvent(tick=0, channel=0, data=[68, 40]),
   midi.NoteOnEvent(tick=120, channel=0, data=[68, 0]),
   midi.NoteOnEvent(tick=0, channel=0, data=[67, 38]),
   midi.NoteOnEvent(tick=120, channel=0, data=[67, 0]),
   midi.NoteOnEvent(tick=0, channel=0, data=[68, 38]),
   midi.NoteOnEvent(tick=120, channel=0, data=[68, 0]),
   midi.NoteOnEvent(tick=0, channel=0, data=[70, 39]),
   midi.NoteOnEvent(tick=120, channel=0, data=[70, 0]),
   midi.NoteOnEvent(tick=0, channel=0, data=[72, 40]),
   midi.NoteOnEvent(tick=120, channel=0, data=[72, 0]),
   midi.NoteOnEvent(tick=0, channel=0, data=[73, 41]),
   midi.NoteOnEvent(tick=120, channel=0, data=[73, 0]),
   midi.NoteOnEvent(tick=0, channel=0, data=[75, 43]),
   midi.NoteOnEvent(tick=120, channel=0, data=[75, 0]),
   midi.NoteOnEvent(tick=0, channel=0, data=[73, 42]),
   midi.NoteOnEvent(tick=120, channel=0, data=[73, 0]),
   midi.NoteOnEvent(tick=0, channel=0, data=[77, 44]),
   midi.NoteOnEvent(tick=120, channel=0, data=[77, 0]),
   midi.NoteOnEvent(tick=0, channel=0, data=[76, 44]),
   midi.NoteOnEvent(tick=120, channel=0, data=[76, 0]),
   midi.NoteOnEvent(tick=0, channel=0, data=[72, 40]),
   midi.NoteOnEvent(tick=120, channel=0, data=[72, 0]),
   midi.NoteOnEvent(tick=0, channel=0, data=[73, 43]),
   midi.NoteOnEvent(tick=120, channel=0, data=[73, 0]),
   midi.NoteOnEvent(tick=0, channel=0, data=[70, 40]),
   midi.NoteOnEvent(tick=120, channel=0, data=[70, 0]),
   midi.NoteOnEvent(tick=0, channel=0, data=[68, 40]),
   midi.NoteOnEvent(tick=120, channel=0, data=[68, 0]),
   midi.NoteOnEvent(tick=0, channel=0, data=[70, 36]),
   midi.NoteOnEvent(tick=120, channel=0, data=[70, 0]),
   midi.NoteOnEvent(tick=0, channel=0, data=[67, 39]),
   midi.NoteOnEvent(tick=120, channel=0, data=[67, 0]),
   midi.NoteOnEvent(tick=0, channel=0, data=[68, 36]),
   midi.NoteOnEvent(tick=120, channel=0, data=[68, 0]),
   midi.NoteOnEvent(tick=0, channel=0, data=[65, 37]),
   midi.NoteOnEvent(tick=120, channel=0, data=[65, 0]),
   midi.NoteOnEvent(tick=0, channel=0, data=[67, 36]),
   midi.NoteOnEvent(tick=120, channel=0, data=[67, 0]),
   midi.NoteOnEvent(tick=0, channel=0, data=[60, 45]),
   midi.ControlChangeEvent(tick=60, channel=0, data=[64, 127]),
   midi.NoteOnEvent(tick=60, channel=0, data=[60, 0]),
   midi.NoteOnEvent(tick=120, channel=0, data=[79, 65]),
   midi.ControlChangeEvent(tick=19, channel=0, data=[64, 0]),
   midi.ControlChangeEvent(tick=27, channel=0, data=[64, 127]),
   midi.NoteOnEvent(tick=74, channel=0, data=[79, 0]),
   midi.NoteOnEvent(tick=120, channel=0, data=[55, 41]),
   midi.ControlChangeEvent(tick=14, channel=0, data=[64, 0]),
   midi.ControlChangeEvent(tick=25, channel=0, data=[64, 127]),
   midi.NoteOnEvent(tick=81, channel=0, data=[55, 0]),
   midi.NoteOnEvent(tick=120, channel=0, data=[62, 45]),
   midi.ControlChangeEvent(tick=17, channel=0, data=[64, 0]),
   midi.ControlChangeEvent(tick=68, channel=0, data=[64, 127]),
   midi.NoteOnEvent(tick=35, channel=0, data=[62, 0]),
   midi.NoteOnEvent(tick=120, channel=0, data=[79, 65]),
   midi.ControlChangeEvent(tick=19, channel=0, data=[64, 0]),
   midi.NoteOnEvent(tick=71, channel=0, data=[79, 0]),
   midi.NoteOnEvent(tick=150, channel=0, data=[55, 41]),
   midi.NoteOnEvent(tick=90, channel=0, data=[55, 0]),
   midi.NoteOnEvent(tick=150, channel=0, data=[60, 45]),
   midi.ControlChangeEvent(tick=60, channel=0, data=[64, 127]),
   midi.NoteOnEvent(tick=60, channel=0, data=[60, 0]),
   midi.NoteOnEvent(tick=120, channel=0, data=[79, 64]),
   midi.ControlChangeEvent(tick=18, channel=0, data=[64, 0]),
   midi.ControlChangeEvent(tick=28, channel=0, data=[64, 127]),
   midi.NoteOnEvent(tick=74, channel=0, data=[79, 0]),
   midi.NoteOnEvent(tick=120, channel=0, data=[55, 41]),
   midi.ControlChangeEvent(tick=14, channel=0, data=[64, 0]),
   midi.ControlChangeEvent(tick=25, channel=0, data=[64, 127]),
   midi.NoteOnEvent(tick=81, channel=0, data=[55, 0]),
   midi.NoteOnEvent(tick=120, channel=0, data=[62, 45]),
   midi.ControlChangeEvent(tick=12, channel=0, data=[64, 0]),
   midi.ControlChangeEvent(tick=73, channel=0, data=[64, 127]),
   midi.NoteOnEvent(tick=35, channel=0, data=[62, 0]),
   midi.NoteOnEvent(tick=120, channel=0, data=[79, 65]),
   midi.ControlChangeEvent(tick=13, channel=0, data=[64, 0]),
   midi.NoteOnEvent(tick=77, channel=0, data=[79, 0]),
   midi.NoteOnEvent(tick=150, channel=0, data=[55, 41]),
   midi.NoteOnEvent(tick=90, channel=0, data=[55, 0]),
   midi.NoteOnEvent(tick=150, channel=0, data=[64, 45]),
   midi.NoteOnEvent(tick=0, channel=0, data=[60, 43]),
   midi.ControlChangeEvent(tick=60, channel=0, data=[64, 127]),
   midi.NoteOnEvent(tick=180, channel=0, data=[60, 0]),
   midi.NoteOnEvent(tick=0, channel=0, data=[64, 0]),
   midi.NoteOnEvent(tick=0, channel=0, data=[65, 50]),
   midi.NoteOnEvent(tick=0, channel=0, data=[60, 41]),
   midi.ControlChangeEvent(tick=18, channel=0, data=[64, 0]),
   midi.ControlChangeEvent(tick=28, channel=0, data=[64, 127]),
   midi.NoteOnEvent(tick=194, channel=0, data=[60, 0]),
   midi.NoteOnEvent(tick=0, channel=0, data=[65, 0]),
   midi.NoteOnEvent(tick=0, channel=0, data=[64, 38]),
   midi.NoteOnEvent(tick=0, channel=0, data=[60, 36]),
   midi.ControlChangeEvent(tick=14, channel=0, data=[64, 0]),
   midi.NoteOnEvent(tick=106, channel=0, data=[60, 0]),
   midi.NoteOnEvent(tick=0, channel=0, data=[64, 0]),
   midi.NoteOnEvent(tick=120, channel=0, data=[77, 55]),
   midi.NoteOnEvent(tick=0, channel=0, data=[72, 45]),
   midi.ControlChangeEvent(tick=46, channel=0, data=[64, 127]),
   midi.NoteOnEvent(tick=194, channel=0, data=[72, 0]),
   midi.NoteOnEvent(tick=0, channel=0, data=[77, 0]),
   midi.NoteOnEvent(tick=0, channel=0, data=[76, 41]),
   midi.NoteOnEvent(tick=0, channel=0, data=[72, 39]),
   midi.ControlChangeEvent(tick=14, channel=0, data=[64, 0]),
   midi.NoteOnEvent(tick=106, channel=0, data=[72, 0]),
   midi.NoteOnEvent(tick=0, channel=0, data=[76, 0]),
   midi.NoteOnEvent(tick=120, channel=0, data=[84, 45]),
   midi.NoteOnEvent(tick=0, channel=0, data=[89, 55]),
   midi.ControlChangeEvent(tick=46, channel=0, data=[64, 127]),
   midi.NoteOnEvent(tick=194, channel=0, data=[89, 0]),
   midi.NoteOnEvent(tick=0, channel=0, data=[84, 0]),
   midi.NoteOnEvent(tick=0, channel=0, data=[88, 43]),
   midi.NoteOnEvent(tick=0, channel=0, data=[84, 40]),
   midi.ControlChangeEvent(tick=14, channel=0, data=[64, 0]),
   midi.NoteOnEvent(tick=106, channel=0, data=[84, 0]),
   midi.NoteOnEvent(tick=0, channel=0, data=[88, 0]),
   midi.NoteOnEvent(tick=120, channel=0, data=[77, 63]),
   midi.NoteOnEvent(tick=0, channel=0, data=[72, 51]),
   midi.ControlChangeEvent(tick=46, channel=0, data=[64, 127]),
   midi.NoteOnEvent(tick=194, channel=0, data=[72, 0]),
   midi.NoteOnEvent(tick=0, channel=0, data=[77, 0]),
   midi.NoteOnEvent(tick=0, channel=0, data=[72, 44]),
   midi.NoteOnEvent(tick=0, channel=0, data=[76, 47]),
   midi.ControlChangeEvent(tick=14, channel=0, data=[64, 0]),
   midi.NoteOnEvent(tick=106, channel=0, data=[76, 0]),
   midi.NoteOnEvent(tick=0, channel=0, data=[72, 0]),
   midi.NoteOnEvent(tick=120, channel=0, data=[60, 58]),
   midi.NoteOnEvent(tick=0, channel=0, data=[65, 72]),
   midi.ControlChangeEvent(tick=46, channel=0, data=[64, 127]),
   midi.NoteOnEvent(tick=194, channel=0, data=[65, 0]),
   midi.NoteOnEvent(tick=0, channel=0, data=[60, 0]),
   midi.NoteOnEvent(tick=0, channel=0, data=[64, 53]),
   midi.NoteOnEvent(tick=0, channel=0, data=[60, 50]),
   midi.ControlChangeEvent(tick=14, channel=0, data=[64, 0]),
   midi.NoteOnEvent(tick=106, channel=0, data=[60, 0]),
   midi.NoteOnEvent(tick=0, channel=0, data=[64, 0]),
   midi.NoteOnEvent(tick=120, channel=0, data=[48, 61]),
   midi.NoteOnEvent(tick=0, channel=0, data=[36, 61]),
   midi.ControlChangeEvent(tick=25, channel=0, data=[64, 127]),
   midi.NoteOnEvent(tick=95, channel=0, data=[36, 0]),
   midi.NoteOnEvent(tick=0, channel=0, data=[48, 0]),
   midi.NoteOnEvent(tick=120, channel=0, data=[53, 64]),
   midi.NoteOnEvent(tick=0, channel=0, data=[65, 64]),
   midi.NoteOnEvent(tick=0, channel=0, data=[60, 64]),
   midi.ControlChangeEvent(tick=3, channel=0, data=[64, 0]),
   midi.ControlChangeEvent(tick=68, channel=0, data=[64, 127]),
   midi.NoteOnEvent(tick=169, channel=0, data=[60, 0]),
   midi.NoteOnEvent(tick=0, channel=0, data=[65, 0]),
   midi.NoteOnEvent(tick=0, channel=0, data=[53, 0]),
   midi.NoteOnEvent(tick=0, channel=0, data=[64, 57]),
   midi.ControlChangeEvent(tick=18, channel=0, data=[64, 0]),
   midi.ControlChangeEvent(tick=28, channel=0, data=[64, 127]),
   midi.NoteOnEvent(tick=34, channel=0, data=[64, 0]),
   midi.NoteOnEvent(tick=0, channel=0, data=[65, 50]),
   midi.NoteOnEvent(tick=80, channel=0, data=[65, 0]),
   midi.NoteOnEvent(tick=0, channel=0, data=[64, 50]),
   midi.NoteOnEvent(tick=80, channel=0, data=[64, 0]),
   midi.NoteOnEvent(tick=0, channel=0, data=[62, 57]),
   midi.ControlChangeEvent(tick=14, channel=0, data=[64, 0]),
   midi.ControlChangeEvent(tick=25, channel=0, data=[64, 127]),
   midi.NoteOnEvent(tick=81, channel=0, data=[62, 0]),
   midi.NoteOnEvent(tick=0, channel=0, data=[64, 53]),
   midi.NoteOnEvent(tick=120, channel=0, data=[64, 0]),
   midi.NoteOnEvent(tick=0, channel=0, data=[65, 61]),
   midi.ControlChangeEvent(tick=12, channel=0, data=[64, 0]),
   midi.ControlChangeEvent(tick=73, channel=0, data=[64, 127]),
   midi.NoteOnEvent(tick=35, channel=0, data=[65, 0]),
   midi.NoteOnEvent(tick=0, channel=0, data=[62, 56]),
   midi.NoteOnEvent(tick=120, channel=0, data=[62, 0]),
   midi.NoteOnEvent(tick=0, channel=0, data=[64, 59]),
   midi.ControlChangeEvent(tick=14, channel=0, data=[64, 0]),
   midi.NoteOnEvent(tick=76, channel=0, data=[64, 0]),
   midi.NoteOnEvent(tick=150, channel=0, data=[60, 50]),
   midi.NoteOnEvent(tick=90, channel=0, data=[60, 0]),
   midi.NoteOnEvent(tick=150, channel=0, data=[60, 61]),
   midi.NoteOnEvent(tick=0, channel=0, data=[53, 61]),
   midi.NoteOnEvent(tick=0, channel=0, data=[65, 61]),
   midi.ControlChangeEvent(tick=43, channel=0, data=[64, 127]),
   midi.NoteOnEvent(tick=197, channel=0, data=[65, 0]),
   midi.NoteOnEvent(tick=0, channel=0, data=[53, 0]),
   midi.NoteOnEvent(tick=0, channel=0, data=[60, 0]),
   midi.NoteOnEvent(tick=0, channel=0, data=[64, 55]),
   midi.ControlChangeEvent(tick=18, channel=0, data=[64, 0]),
   midi.ControlChangeEvent(tick=28, channel=0, data=[64, 127]),
   midi.NoteOnEvent(tick=34, channel=0, data=[64, 0]),
   midi.NoteOnEvent(tick=0, channel=0, data=[65, 50]),
   midi.NoteOnEvent(tick=80, channel=0, data=[65, 0]),
   midi.NoteOnEvent(tick=0, channel=0, data=[64, 50]),
   midi.NoteOnEvent(tick=80, channel=0, data=[64, 0]),
   midi.NoteOnEvent(tick=0, channel=0, data=[62, 55]),
   midi.ControlChangeEvent(tick=14, channel=0, data=[64, 0]),
   midi.ControlChangeEvent(tick=25, channel=0, data=[64, 127]),
   midi.NoteOnEvent(tick=81, channel=0, data=[62, 0]),
   midi.NoteOnEvent(tick=0, channel=0, data=[64, 50]),
   midi.NoteOnEvent(tick=120, channel=0, data=[64, 0]),
   midi.NoteOnEvent(tick=0, channel=0, data=[65, 56]),
   midi.ControlChangeEvent(tick=12, channel=0, data=[64, 0]),
   midi.ControlChangeEvent(tick=73, channel=0, data=[64, 127]),
   midi.NoteOnEvent(tick=35, channel=0, data=[65, 0]),
   midi.NoteOnEvent(tick=0, channel=0, data=[62, 54]),
   midi.NoteOnEvent(tick=120, channel=0, data=[62, 0]),
   midi.NoteOnEvent(tick=0, channel=0, data=[64, 57]),
   midi.ControlChangeEvent(tick=16, channel=0, data=[64, 0]),
   midi.NoteOnEvent(tick=74, channel=0, data=[64, 0]),
   midi.NoteOnEvent(tick=150, channel=0, data=[60, 49]),
   midi.NoteOnEvent(tick=90, channel=0, data=[60, 0]),
   midi.NoteOnEvent(tick=150, channel=0, data=[62, 54]),
   midi.ControlChangeEvent(tick=36, channel=0, data=[64, 127]),
   midi.NoteOnEvent(tick=84, channel=0, data=[62, 0]),
   midi.NoteOnEvent(tick=0, channel=0, data=[64, 48]),
   midi.NoteOnEvent(tick=120, channel=0, data=[64, 0]),
   midi.NoteOnEvent(tick=0, channel=0, data=[60, 45]),
   midi.ControlChangeEvent(tick=10, channel=0, data=[64, 0]),
   midi.NoteOnEvent(tick=200, channel=0, data=[60, 0]),
   midi.NoteOnEvent(tick=30, channel=0, data=[62, 48]),
   midi.ControlChangeEvent(tick=71, channel=0, data=[64, 127]),
   midi.NoteOnEvent(tick=49, channel=0, data=[62, 0]),
   midi.NoteOnEvent(tick=0, channel=0, data=[64, 51]),
   midi.NoteOnEvent(tick=120, channel=0, data=[64, 0]),
   midi.NoteOnEvent(tick=0, channel=0, data=[65, 55]),
   midi.ControlChangeEvent(tick=12, channel=0, data=[64, 0]),
   midi.ControlChangeEvent(tick=44, channel=0, data=[64, 127]),
   midi.NoteOnEvent(tick=154, channel=0, data=[65, 0]),
   midi.NoteOnEvent(tick=30, channel=0, data=[62, 54]),
   midi.ControlChangeEvent(tick=14, channel=0, data=[64, 0]),
   midi.ControlChangeEvent(tick=71, channel=0, data=[64, 127]),
   midi.NoteOnEvent(tick=35, channel=0, data=[62, 0]),
   midi.NoteOnEvent(tick=0, channel=0, data=[64, 48]),
   midi.NoteOnEvent(tick=120, channel=0, data=[64, 0]),
   midi.NoteOnEvent(tick=0, channel=0, data=[60, 42]),
   midi.ControlChangeEvent(tick=19, channel=0, data=[64, 0]),
   midi.ControlChangeEvent(tick=80, channel=0, data=[64, 127]),
   midi.NoteOnEvent(tick=111, channel=0, data=[60, 0]),
   midi.NoteOnEvent(tick=30, channel=0, data=[62, 51]),
   midi.ControlChangeEvent(tick=9, channel=0, data=[64, 0]),
   midi.ControlChangeEvent(tick=47, channel=0, data=[64, 127]),
   midi.NoteOnEvent(tick=64, channel=0, data=[62, 0]),
   midi.NoteOnEvent(tick=0, channel=0, data=[64, 48]),
   midi.NoteOnEvent(tick=120, channel=0, data=[64, 0]),
   midi.NoteOnEvent(tick=0, channel=0, data=[60, 39]),
   midi.ControlChangeEvent(tick=11, channel=0, data=[64, 0]),
   midi.ControlChangeEvent(tick=102, channel=0, data=[64, 127]),
   midi.NoteOnEvent(tick=97, channel=0, data=[60, 0]),
   midi.NoteOnEvent(tick=30, channel=0, data=[62, 43]),
   midi.ControlChangeEvent(tick=21, channel=0, data=[64, 0]),
   midi.ControlChangeEvent(tick=50, channel=0, data=[64, 127]),
   midi.NoteOnEvent(tick=49, channel=0, data=[62, 0]),
   midi.NoteOnEvent(tick=0, channel=0, data=[64, 44]),
   midi.NoteOnEvent(tick=120, channel=0, data=[64, 0]),
   midi.NoteOnEvent(tick=0, channel=0, data=[67, 48]),
   midi.ControlChangeEvent(tick=15, channel=0, data=[64, 0]),
   midi.ControlChangeEvent(tick=49, channel=0, data=[64, 127]),
   midi.NoteOnEvent(tick=56, channel=0, data=[67, 0]),
   midi.NoteOnEvent(tick=0, channel=0, data=[65, 44]),
   midi.NoteOnEvent(tick=120, channel=0, data=[65, 0]),
   midi.NoteOnEvent(tick=0, channel=0, data=[62, 49]),
   midi.ControlChangeEvent(tick=18, channel=0, data=[64, 0]),
   midi.ControlChangeEvent(tick=74, channel=0, data=[64, 127]),
   midi.NoteOnEvent(tick=28, channel=0, data=[62, 0]),
   midi.NoteOnEvent(tick=0, channel=0, data=[64, 46]),
   midi.NoteOnEvent(tick=120, channel=0, data=[64, 0]),
   midi.NoteOnEvent(tick=0, channel=0, data=[60, 46]),
   midi.ControlChangeEvent(tick=21, channel=0, data=[64, 0]),
   midi.ControlChangeEvent(tick=85, channel=0, data=[64, 127]),
   midi.NoteOnEvent(tick=134, channel=0, data=[60, 0]),
   midi.NoteOnEvent(tick=0, channel=0, data=[56, 61]),
   midi.NoteOnEvent(tick=0, channel=0, data=[68, 61]),
   midi.NoteOnEvent(tick=0, channel=0, data=[63, 61]),
   midi.ControlChangeEvent(tick=10, channel=0, data=[64, 0]),
   midi.ControlChangeEvent(tick=54, channel=0, data=[64, 127]),
   midi.NoteOnEvent(tick=176, channel=0, data=[63, 0]),
   midi.NoteOnEvent(tick=0, channel=0, data=[68, 0]),
   midi.NoteOnEvent(tick=0, channel=0, data=[56, 0]),
   midi.NoteOnEvent(tick=0, channel=0, data=[67, 55]),
   midi.ControlChangeEvent(tick=18, channel=0, data=[64, 0]),
   midi.ControlChangeEvent(tick=28, channel=0, data=[64, 127]),
   midi.NoteOnEvent(tick=34, channel=0, data=[67, 0]),
   midi.NoteOnEvent(tick=0, channel=0, data=[68, 50]),
   midi.NoteOnEvent(tick=80, channel=0, data=[68, 0]),
   midi.NoteOnEvent(tick=0, channel=0, data=[67, 50]),
   midi.NoteOnEvent(tick=80, channel=0, data=[67, 0]),
   midi.NoteOnEvent(tick=0, channel=0, data=[65, 55]),
   midi.ControlChangeEvent(tick=14, channel=0, data=[64, 0]),
   midi.ControlChangeEvent(tick=25, channel=0, data=[64, 127]),
   midi.NoteOnEvent(tick=81, channel=0, data=[65, 0]),
   midi.NoteOnEvent(tick=0, channel=0, data=[67, 50]),
   midi.NoteOnEvent(tick=120, channel=0, data=[67, 0]),
   midi.NoteOnEvent(tick=0, channel=0, data=[68, 59]),
   midi.ControlChangeEvent(tick=12, channel=0, data=[64, 0]),
   midi.ControlChangeEvent(tick=73, channel=0, data=[64, 127]),
   midi.NoteOnEvent(tick=35, channel=0, data=[68, 0]),
   midi.NoteOnEvent(tick=0, channel=0, data=[65, 54]),
   midi.NoteOnEvent(tick=120, channel=0, data=[65, 0]),
   midi.NoteOnEvent(tick=0, channel=0, data=[67, 57]),
   midi.ControlChangeEvent(tick=18, channel=0, data=[64, 0]),
   midi.NoteOnEvent(tick=72, channel=0, data=[67, 0]),
   midi.NoteOnEvent(tick=150, channel=0, data=[63, 54]),
   midi.NoteOnEvent(tick=90, channel=0, data=[63, 0]),
   midi.NoteOnEvent(tick=150, channel=0, data=[63, 61]),
   midi.NoteOnEvent(tick=0, channel=0, data=[56, 61]),
   midi.NoteOnEvent(tick=0, channel=0, data=[68, 61]),
   midi.ControlChangeEvent(tick=57, channel=0, data=[64, 127]),
   midi.NoteOnEvent(tick=183, channel=0, data=[68, 0]),
   midi.NoteOnEvent(tick=0, channel=0, data=[56, 0]),
   midi.NoteOnEvent(tick=0, channel=0, data=[63, 0]),
   midi.NoteOnEvent(tick=0, channel=0, data=[67, 55]),
   midi.ControlChangeEvent(tick=18, channel=0, data=[64, 0]),
   midi.ControlChangeEvent(tick=28, channel=0, data=[64, 127]),
   midi.NoteOnEvent(tick=34, channel=0, data=[67, 0]),
   midi.NoteOnEvent(tick=0, channel=0, data=[68, 50]),
   midi.NoteOnEvent(tick=80, channel=0, data=[68, 0]),
   midi.NoteOnEvent(tick=0, channel=0, data=[67, 50]),
   midi.NoteOnEvent(tick=80, channel=0, data=[67, 0]),
   midi.NoteOnEvent(tick=0, channel=0, data=[65, 55]),
   midi.ControlChangeEvent(tick=14, channel=0, data=[64, 0]),
   midi.ControlChangeEvent(tick=57, channel=0, data=[64, 127]),
   midi.NoteOnEvent(tick=49, channel=0, data=[65, 0]),
   midi.NoteOnEvent(tick=0, channel=0, data=[67, 50]),
   midi.NoteOnEvent(tick=120, channel=0, data=[67, 0]),
   midi.NoteOnEvent(tick=0, channel=0, data=[68, 59]),
   midi.ControlChangeEvent(tick=12, channel=0, data=[64, 0]),
   midi.ControlChangeEvent(tick=73, channel=0, data=[64, 127]),
   midi.NoteOnEvent(tick=35, channel=0, data=[68, 0]),
   midi.NoteOnEvent(tick=0, channel=0, data=[65, 54]),
   midi.NoteOnEvent(tick=120, channel=0, data=[65, 0]),
   midi.NoteOnEvent(tick=0, channel=0, data=[67, 57]),
   midi.ControlChangeEvent(tick=14, channel=0, data=[64, 0]),
   midi.NoteOnEvent(tick=76, channel=0, data=[67, 0]),
   midi.NoteOnEvent(tick=150, channel=0, data=[63, 54]),
   midi.NoteOnEvent(tick=90, channel=0, data=[63, 0]),
   midi.NoteOnEvent(tick=150, channel=0, data=[56, 44]),
   midi.NoteOnEvent(tick=0, channel=0, data=[65, 54]),
   midi.ControlChangeEvent(tick=28, channel=0, data=[64, 127]),
   midi.NoteOnEvent(tick=92, channel=0, data=[65, 0]),
   midi.NoteOnEvent(tick=0, channel=0, data=[67, 48]),
   midi.NoteOnEvent(tick=120, channel=0, data=[67, 0]),
   midi.NoteOnEvent(tick=0, channel=0, data=[56, 0]),
   midi.NoteOnEvent(tick=0, channel=0, data=[63, 45]),
   midi.ControlChangeEvent(tick=12, channel=0, data=[64, 0]),
   midi.ControlChangeEvent(tick=80, channel=0, data=[64, 127]),
   midi.NoteOnEvent(tick=118, channel=0, data=[63, 0]),
   midi.NoteOnEvent(tick=30, channel=0, data=[65, 48]),
   midi.ControlChangeEvent(tick=15, channel=0, data=[64, 0]),
   midi.ControlChangeEvent(tick=91, channel=0, data=[64, 127]),
   midi.NoteOnEvent(tick=14, channel=0, data=[65, 0]),
   midi.NoteOnEvent(tick=0, channel=0, data=[67, 51]),
   midi.NoteOnEvent(tick=120, channel=0, data=[67, 0]),
   midi.NoteOnEvent(tick=0, channel=0, data=[68, 55]),
   midi.ControlChangeEvent(tick=11, channel=0, data=[64, 0]),
   midi.ControlChangeEvent(tick=67, channel=0, data=[64, 127]),
   midi.NoteOnEvent(tick=132, channel=0, data=[68, 0]),
   midi.NoteOnEvent(tick=30, channel=0, data=[65, 54]),
   midi.ControlChangeEvent(tick=14, channel=0, data=[64, 0]),
   midi.ControlChangeEvent(tick=85, channel=0, data=[64, 127]),
   midi.NoteOnEvent(tick=21, channel=0, data=[65, 0]),
   midi.NoteOnEvent(tick=0, channel=0, data=[67, 48]),
   midi.NoteOnEvent(tick=120, channel=0, data=[67, 0]),
   midi.NoteOnEvent(tick=0, channel=0, data=[63, 42]),
   midi.ControlChangeEvent(tick=16, channel=0, data=[64, 0]),
   midi.NoteOnEvent(tick=194, channel=0, data=[63, 0]),
   midi.NoteOnEvent(tick=30, channel=0, data=[56, 41]),
   midi.NoteOnEvent(tick=0, channel=0, data=[65, 51]),
   midi.ControlChangeEvent(tick=50, channel=0, data=[64, 127]),
   midi.NoteOnEvent(tick=70, channel=0, data=[65, 0]),
   midi.NoteOnEvent(tick=0, channel=0, data=[67, 48]),
   midi.NoteOnEvent(tick=120, channel=0, data=[67, 0]),
   midi.NoteOnEvent(tick=0, channel=0, data=[56, 0]),
   midi.NoteOnEvent(tick=0, channel=0, data=[63, 40]),
   midi.ControlChangeEvent(tick=7, channel=0, data=[64, 0]),
   midi.ControlChangeEvent(tick=106, channel=0, data=[64, 127]),
   midi.NoteOnEvent(tick=97, channel=0, data=[63, 0]),
   midi.NoteOnEvent(tick=30, channel=0, data=[65, 43]),
   midi.ControlChangeEvent(tick=14, channel=0, data=[64, 0]),
   midi.ControlChangeEvent(tick=57, channel=0, data=[64, 127]),
   midi.NoteOnEvent(tick=49, channel=0, data=[65, 0]),
   midi.NoteOnEvent(tick=0, channel=0, data=[67, 44]),
   midi.NoteOnEvent(tick=120, channel=0, data=[67, 0]),
   midi.NoteOnEvent(tick=0, channel=0, data=[70, 48]),
   midi.ControlChangeEvent(tick=7, channel=0, data=[64, 0]),
   midi.ControlChangeEvent(tick=57, channel=0, data=[64, 127]),
   midi.NoteOnEvent(tick=56, channel=0, data=[70, 0]),
   midi.NoteOnEvent(tick=0, channel=0, data=[68, 44]),
   midi.NoteOnEvent(tick=120, channel=0, data=[68, 0]),
   midi.NoteOnEvent(tick=0, channel=0, data=[65, 49]),
   midi.ControlChangeEvent(tick=11, channel=0, data=[64, 0]),
   midi.ControlChangeEvent(tick=81, channel=0, data=[64, 127]),
   midi.NoteOnEvent(tick=28, channel=0, data=[65, 0]),
   midi.NoteOnEvent(tick=0, channel=0, data=[67, 46]),
   midi.NoteOnEvent(tick=120, channel=0, data=[67, 0]),
   midi.NoteOnEvent(tick=0, channel=0, data=[63, 46]),
   midi.ControlChangeEvent(tick=17, channel=0, data=[64, 0]),
   midi.ControlChangeEvent(tick=82, channel=0, data=[64, 127]),
   midi.NoteOnEvent(tick=141, channel=0, data=[63, 0]),
   midi.ControlChangeEvent(tick=0, channel=0, data=[64, 0]),
   midi.NoteOnEvent(tick=0, channel=0, data=[36, 92]),
   midi.NoteOnEvent(tick=120, channel=0, data=[36, 0]),
   midi.ControlChangeEvent(tick=21, channel=0, data=[64, 127]),
   midi.NoteOnEvent(tick=339, channel=0, data=[60, 53]),
   midi.NoteOnEvent(tick=120, channel=0, data=[60, 0]),
   midi.NoteOnEvent(tick=360, channel=0, data=[72, 54]),
   midi.NoteOnEvent(tick=120, channel=0, data=[72, 0]),
   midi.NoteOnEvent(tick=360, channel=0, data=[84, 55]),
   midi.ControlChangeEvent(tick=60, channel=0, data=[64, 0]),
   midi.NoteOnEvent(tick=60, channel=0, data=[84, 0]),
   midi.NoteOnEvent(tick=120, channel=0, data=[67, 51]),
   midi.NoteOnEvent(tick=0, channel=0, data=[73, 56]),
   midi.NoteOnEvent(tick=60, channel=0, data=[73, 0]),
   midi.NoteOnEvent(tick=0, channel=0, data=[67, 0]),
   midi.NoteOnEvent(tick=60, channel=0, data=[67, 51]),
   midi.NoteOnEvent(tick=0, channel=0, data=[73, 56]),
   midi.NoteOnEvent(tick=60, channel=0, data=[73, 0]),
   midi.NoteOnEvent(tick=0, channel=0, data=[67, 0]),
   midi.NoteOnEvent(tick=60, channel=0, data=[79, 63]),
   midi.NoteOnEvent(tick=120, channel=0, data=[79, 0]),
   midi.NoteOnEvent(tick=120, channel=0, data=[67, 45]),
   midi.NoteOnEvent(tick=0, channel=0, data=[73, 52]),
   midi.NoteOnEvent(tick=120, channel=0, data=[73, 0]),
   midi.NoteOnEvent(tick=0, channel=0, data=[67, 0]),
   midi.NoteOnEvent(tick=120, channel=0, data=[79, 54]),
   midi.NoteOnEvent(tick=120, channel=0, data=[79, 0]),
   midi.NoteOnEvent(tick=120, channel=0, data=[73, 52]),
   midi.NoteOnEvent(tick=0, channel=0, data=[67, 45]),
   midi.NoteOnEvent(tick=120, channel=0, data=[67, 0]),
   midi.NoteOnEvent(tick=0, channel=0, data=[73, 0]),
   midi.NoteOnEvent(tick=120, channel=0, data=[36, 92]),
   midi.ControlChangeEvent(tick=49, channel=0, data=[64, 127]),
   midi.NoteOnEvent(tick=71, channel=0, data=[36, 0]),
   midi.NoteOnEvent(tick=360, channel=0, data=[60, 54]),
   midi.NoteOnEvent(tick=120, channel=0, data=[60, 0]),
   midi.NoteOnEvent(tick=360, channel=0, data=[72, 54]),
   midi.NoteOnEvent(tick=120, channel=0, data=[72, 0]),
   midi.NoteOnEvent(tick=360, channel=0, data=[84, 54]),
   midi.ControlChangeEvent(tick=42, channel=0, data=[64, 0]),
   midi.NoteOnEvent(tick=78, channel=0, data=[84, 0]),
   midi.NoteOnEvent(tick=120, channel=0, data=[73, 56]),
   midi.NoteOnEvent(tick=0, channel=0, data=[67, 51]),
   midi.NoteOnEvent(tick=60, channel=0, data=[67, 0]),
   midi.NoteOnEvent(tick=0, channel=0, data=[73, 0]),
   midi.NoteOnEvent(tick=60, channel=0, data=[73, 56]),
   midi.NoteOnEvent(tick=0, channel=0, data=[67, 51]),
   midi.NoteOnEvent(tick=60, channel=0, data=[67, 0]),
   midi.NoteOnEvent(tick=0, channel=0, data=[73, 0]),
   midi.NoteOnEvent(tick=60, channel=0, data=[79, 63]),
   midi.NoteOnEvent(tick=120, channel=0, data=[79, 0]),
   midi.NoteOnEvent(tick=120, channel=0, data=[67, 45]),
   midi.NoteOnEvent(tick=0, channel=0, data=[73, 52]),
   midi.NoteOnEvent(tick=120, channel=0, data=[73, 0]),
   midi.NoteOnEvent(tick=0, channel=0, data=[67, 0]),
   midi.NoteOnEvent(tick=120, channel=0, data=[79, 54]),
   midi.NoteOnEvent(tick=120, channel=0, data=[79, 0]),
   midi.NoteOnEvent(tick=120, channel=0, data=[67, 45]),
   midi.NoteOnEvent(tick=0, channel=0, data=[73, 52]),
   midi.NoteOnEvent(tick=120, channel=0, data=[73, 0]),
   midi.NoteOnEvent(tick=0, channel=0, data=[67, 0]),
   midi.NoteOnEvent(tick=120, channel=0, data=[72, 44]),
   midi.NoteOnEvent(tick=0, channel=0, data=[79, 58]),
   midi.ControlChangeEvent(tick=64, channel=0, data=[64, 127]),
   midi.NoteOnEvent(tick=176, channel=0, data=[79, 0]),
   midi.NoteOnEvent(tick=0, channel=0, data=[77, 52]),
   midi.ControlChangeEvent(tick=18, channel=0, data=[64, 0]),
   midi.ControlChangeEvent(tick=28, channel=0, data=[64, 127]),
   midi.NoteOnEvent(tick=34, channel=0, data=[77, 0]),
   midi.NoteOnEvent(tick=0, channel=0, data=[79, 48]),
   midi.NoteOnEvent(tick=80, channel=0, data=[79, 0]),
   midi.NoteOnEvent(tick=0, channel=0, data=[77, 48]),
   midi.NoteOnEvent(tick=80, channel=0, data=[77, 0]),
   midi.NoteOnEvent(tick=0, channel=0, data=[76, 52]),
   midi.ControlChangeEvent(tick=14, channel=0, data=[64, 0]),
   midi.ControlChangeEvent(tick=25, channel=0, data=[64, 127]),
   midi.NoteOnEvent(tick=81, channel=0, data=[76, 0]),
   midi.NoteOnEvent(tick=0, channel=0, data=[77, 48]),
   midi.NoteOnEvent(tick=120, channel=0, data=[77, 0]),
   midi.NoteOnEvent(tick=0, channel=0, data=[79, 56]),
   midi.ControlChangeEvent(tick=12, channel=0, data=[64, 0]),
   midi.ControlChangeEvent(tick=73, channel=0, data=[64, 127]),
   midi.NoteOnEvent(tick=35, channel=0, data=[79, 0]),
   midi.NoteOnEvent(tick=0, channel=0, data=[76, 46]),
   midi.NoteOnEvent(tick=120, channel=0, data=[76, 0]),
   midi.NoteOnEvent(tick=0, channel=0, data=[77, 50]),
   midi.ControlChangeEvent(tick=19, channel=0, data=[64, 0]),
   midi.ControlChangeEvent(tick=44, channel=0, data=[64, 127]),
   midi.NoteOnEvent(tick=27, channel=0, data=[77, 0]),
   midi.NoteOnEvent(tick=30, channel=0, data=[76, 45]),
   midi.NoteOnEvent(tick=90, channel=0, data=[76, 0]),
   midi.NoteOnEvent(tick=30, channel=0, data=[77, 49]),
   midi.ControlChangeEvent(tick=17, channel=0, data=[64, 0]),
   midi.ControlChangeEvent(tick=46, channel=0, data=[64, 127]),
   midi.NoteOnEvent(tick=27, channel=0, data=[77, 0]),
   midi.NoteOnEvent(tick=30, channel=0, data=[80, 45]),
   midi.NoteOnEvent(tick=90, channel=0, data=[80, 0]),
   midi.NoteOnEvent(tick=30, channel=0, data=[72, 0]),
   midi.NoteOnEvent(tick=0, channel=0, data=[72, 44]),
   midi.NoteOnEvent(tick=0, channel=0, data=[79, 58]),
   midi.ControlChangeEvent(tick=9, channel=0, data=[64, 0]),
   midi.ControlChangeEvent(tick=55, channel=0, data=[64, 127]),
   midi.NoteOnEvent(tick=176, channel=0, data=[79, 0]),
   midi.NoteOnEvent(tick=0, channel=0, data=[77, 52]),
   midi.ControlChangeEvent(tick=18, channel=0, data=[64, 0]),
   midi.ControlChangeEvent(tick=28, channel=0, data=[64, 127]),
   midi.NoteOnEvent(tick=34, channel=0, data=[77, 0]),
   midi.NoteOnEvent(tick=0, channel=0, data=[79, 48]),
   midi.NoteOnEvent(tick=80, channel=0, data=[79, 0]),
   midi.NoteOnEvent(tick=0, channel=0, data=[77, 48]),
   midi.NoteOnEvent(tick=80, channel=0, data=[77, 0]),
   midi.NoteOnEvent(tick=0, channel=0, data=[76, 52]),
   midi.ControlChangeEvent(tick=14, channel=0, data=[64, 0]),
   midi.ControlChangeEvent(tick=25, channel=0, data=[64, 127]),
   midi.NoteOnEvent(tick=81, channel=0, data=[76, 0]),
   midi.NoteOnEvent(tick=0, channel=0, data=[77, 48]),
   midi.NoteOnEvent(tick=120, channel=0, data=[77, 0]),
   midi.NoteOnEvent(tick=0, channel=0, data=[79, 56]),
   midi.ControlChangeEvent(tick=12, channel=0, data=[64, 0]),
   midi.ControlChangeEvent(tick=73, channel=0, data=[64, 127]),
   midi.NoteOnEvent(tick=35, channel=0, data=[79, 0]),
   midi.NoteOnEvent(tick=0, channel=0, data=[76, 46]),
   midi.NoteOnEvent(tick=120, channel=0, data=[76, 0]),
   midi.NoteOnEvent(tick=0, channel=0, data=[77, 50]),
   midi.ControlChangeEvent(tick=17, channel=0, data=[64, 0]),
   midi.ControlChangeEvent(tick=46, channel=0, data=[64, 127]),
   midi.NoteOnEvent(tick=27, channel=0, data=[77, 0]),
   midi.NoteOnEvent(tick=30, channel=0, data=[76, 45]),
   midi.NoteOnEvent(tick=90, channel=0, data=[76, 0]),
   midi.NoteOnEvent(tick=30, channel=0, data=[77, 49]),
   midi.ControlChangeEvent(tick=20, channel=0, data=[64, 0]),
   midi.ControlChangeEvent(tick=43, channel=0, data=[64, 127]),
   midi.NoteOnEvent(tick=27, channel=0, data=[77, 0]),
   midi.NoteOnEvent(tick=30, channel=0, data=[80, 45]),
   midi.NoteOnEvent(tick=90, channel=0, data=[80, 0]),
   midi.NoteOnEvent(tick=30, channel=0, data=[72, 0]),
   midi.NoteOnEvent(tick=0, channel=0, data=[67, 58]),
   midi.NoteOnEvent(tick=0, channel=0, data=[60, 44]),
   midi.ControlChangeEvent(tick=14, channel=0, data=[64, 0]),
   midi.ControlChangeEvent(tick=50, channel=0, data=[64, 127]),
   midi.NoteOnEvent(tick=176, channel=0, data=[67, 0]),
   midi.NoteOnEvent(tick=0, channel=0, data=[65, 52]),
   midi.ControlChangeEvent(tick=18, channel=0, data=[64, 0]),
   midi.ControlChangeEvent(tick=28, channel=0, data=[64, 127]),
   midi.NoteOnEvent(tick=34, channel=0, data=[65, 0]),
   midi.NoteOnEvent(tick=0, channel=0, data=[67, 48]),
   midi.NoteOnEvent(tick=80, channel=0, data=[67, 0]),
   midi.NoteOnEvent(tick=0, channel=0, data=[65, 48]),
   midi.NoteOnEvent(tick=80, channel=0, data=[65, 0]),
   midi.NoteOnEvent(tick=0, channel=0, data=[64, 52]),
   midi.ControlChangeEvent(tick=14, channel=0, data=[64, 0]),
   midi.NoteOnEvent(tick=46, channel=0, data=[64, 0]),
   midi.NoteOnEvent(tick=60, channel=0, data=[65, 48]),
   midi.NoteOnEvent(tick=60, channel=0, data=[65, 0]),
   midi.NoteOnEvent(tick=60, channel=0, data=[60, 0]),
   midi.NoteOnEvent(tick=0, channel=0, data=[67, 46]),
   midi.NoteOnEvent(tick=60, channel=0, data=[67, 0]),
   midi.NoteOnEvent(tick=60, channel=0, data=[68, 48]),
   midi.NoteOnEvent(tick=60, channel=0, data=[68, 0]),
   midi.NoteOnEvent(tick=60, channel=0, data=[70, 50]),
   midi.NoteOnEvent(tick=60, channel=0, data=[70, 0]),
   midi.NoteOnEvent(tick=60, channel=0, data=[72, 52]),
   midi.NoteOnEvent(tick=60, channel=0, data=[72, 0]),
   midi.NoteOnEvent(tick=60, channel=0, data=[73, 54]),
   midi.NoteOnEvent(tick=60, channel=0, data=[73, 0]),
   midi.NoteOnEvent(tick=60, channel=0, data=[75, 55]),
   midi.NoteOnEvent(tick=60, channel=0, data=[75, 0]),
   midi.NoteOnEvent(tick=60, channel=0, data=[73, 54]),
   midi.ControlChangeEvent(tick=18, channel=0, data=[64, 127]),
   midi.NoteOnEvent(tick=62, channel=0, data=[73, 0]),
   midi.NoteOnEvent(tick=0, channel=0, data=[75, 51]),
   midi.NoteOnEvent(tick=80, channel=0, data=[75, 0]),
   midi.NoteOnEvent(tick=0, channel=0, data=[73, 51]),
   midi.NoteOnEvent(tick=80, channel=0, data=[73, 0]),
   midi.NoteOnEvent(tick=0, channel=0, data=[72, 53]),
   midi.ControlChangeEvent(tick=9, channel=0, data=[64, 0]),
   midi.ControlChangeEvent(tick=19, channel=0, data=[64, 127]),
   midi.NoteOnEvent(tick=52, channel=0, data=[72, 0]),
   midi.NoteOnEvent(tick=0, channel=0, data=[73, 49]),
   midi.NoteOnEvent(tick=80, channel=0, data=[73, 0]),
   midi.NoteOnEvent(tick=0, channel=0, data=[72, 52]),
   midi.NoteOnEvent(tick=80, channel=0, data=[72, 0]),
   midi.NoteOnEvent(tick=0, channel=0, data=[70, 51]),
   midi.ControlChangeEvent(tick=17, channel=0, data=[64, 0]),
   midi.ControlChangeEvent(tick=33, channel=0, data=[64, 127]),
   midi.NoteOnEvent(tick=30, channel=0, data=[70, 0]),
   midi.NoteOnEvent(tick=0, channel=0, data=[72, 49]),
   midi.NoteOnEvent(tick=80, channel=0, data=[72, 0]),
   midi.NoteOnEvent(tick=0, channel=0, data=[70, 48]),
   midi.NoteOnEvent(tick=80, channel=0, data=[70, 0]),
   midi.NoteOnEvent(tick=0, channel=0, data=[68, 50]),
   midi.ControlChangeEvent(tick=10, channel=0, data=[64, 0]),
   midi.ControlChangeEvent(tick=40, channel=0, data=[64, 127]),
   midi.NoteOnEvent(tick=30, channel=0, data=[68, 0]),
   midi.NoteOnEvent(tick=0, channel=0, data=[70, 45]),
   midi.NoteOnEvent(tick=80, channel=0, data=[70, 0]),
   midi.NoteOnEvent(tick=0, channel=0, data=[68, 45]),
   midi.NoteOnEvent(tick=80, channel=0, data=[68, 0]),
   midi.NoteOnEvent(tick=0, channel=0, data=[67, 48]),
   midi.ControlChangeEvent(tick=12, channel=0, data=[64, 0]),
   midi.ControlChangeEvent(tick=23, channel=0, data=[64, 127]),
   midi.NoteOnEvent(tick=45, channel=0, data=[67, 0]),
   midi.NoteOnEvent(tick=0, channel=0, data=[68, 45]),
   midi.NoteOnEvent(tick=80, channel=0, data=[68, 0]),
   midi.NoteOnEvent(tick=0, channel=0, data=[67, 45]),
   midi.NoteOnEvent(tick=80, channel=0, data=[67, 0]),
   midi.NoteOnEvent(tick=0, channel=0, data=[65, 46]),
   midi.ControlChangeEvent(tick=11, channel=0, data=[64, 0]),
   midi.ControlChangeEvent(tick=32, channel=0, data=[64, 127]),
   midi.NoteOnEvent(tick=37, channel=0, data=[65, 0]),
   midi.NoteOnEvent(tick=0, channel=0, data=[67, 43]),
   midi.NoteOnEvent(tick=80, channel=0, data=[67, 0]),
   midi.NoteOnEvent(tick=0, channel=0, data=[65, 43]),
   midi.NoteOnEvent(tick=80, channel=0, data=[65, 0]),
   midi.ControlChangeEvent(tick=0, channel=0, data=[64, 0]),
   midi.NoteOnEvent(tick=0, channel=0, data=[36, 77]),
   midi.NoteOnEvent(tick=120, channel=0, data=[36, 0]),
   midi.ControlChangeEvent(tick=36, channel=0, data=[64, 127]),
   midi.NoteOnEvent(tick=324, channel=0, data=[72, 50]),
   midi.NoteOnEvent(tick=120, channel=0, data=[72, 0]),
   midi.NoteOnEvent(tick=360, channel=0, data=[84, 52]),
   midi.NoteOnEvent(tick=120, channel=0, data=[84, 0]),
   midi.NoteOnEvent(tick=360, channel=0, data=[72, 51]),
   midi.ControlChangeEvent(tick=67, channel=0, data=[64, 0]),
   midi.NoteOnEvent(tick=53, channel=0, data=[72, 0]),
   midi.NoteOnEvent(tick=120, channel=0, data=[73, 52]),
   midi.NoteOnEvent(tick=0, channel=0, data=[67, 46]),
   midi.NoteOnEvent(tick=60, channel=0, data=[67, 0]),
   midi.NoteOnEvent(tick=0, channel=0, data=[73, 0]),
   midi.NoteOnEvent(tick=60, channel=0, data=[67, 46]),
   midi.NoteOnEvent(tick=0, channel=0, data=[73, 52]),
   midi.NoteOnEvent(tick=60, channel=0, data=[73, 0]),
   midi.NoteOnEvent(tick=0, channel=0, data=[67, 0]),
   midi.NoteOnEvent(tick=60, channel=0, data=[79, 57]),
   midi.NoteOnEvent(tick=120, channel=0, data=[79, 0]),
   midi.NoteOnEvent(tick=120, channel=0, data=[73, 47]),
   midi.NoteOnEvent(tick=0, channel=0, data=[67, 42]),
   midi.NoteOnEvent(tick=120, channel=0, data=[67, 0]),
   midi.NoteOnEvent(tick=0, channel=0, data=[73, 0]),
   midi.NoteOnEvent(tick=120, channel=0, data=[79, 49]),
   midi.NoteOnEvent(tick=120, channel=0, data=[79, 0]),
   midi.NoteOnEvent(tick=120, channel=0, data=[67, 42]),
   midi.NoteOnEvent(tick=0, channel=0, data=[73, 47]),
   midi.NoteOnEvent(tick=120, channel=0, data=[73, 0]),
   midi.NoteOnEvent(tick=0, channel=0, data=[67, 0]),
   midi.NoteOnEvent(tick=120, channel=0, data=[36, 73]),
   midi.ControlChangeEvent(tick=49, channel=0, data=[64, 127]),
   midi.NoteOnEvent(tick=71, channel=0, data=[36, 0]),
   midi.NoteOnEvent(tick=360, channel=0, data=[72, 45]),
   midi.NoteOnEvent(tick=120, channel=0, data=[72, 0]),
   midi.NoteOnEvent(tick=360, channel=0, data=[84, 46]),
   midi.NoteOnEvent(tick=120, channel=0, data=[84, 0]),
   midi.NoteOnEvent(tick=360, channel=0, data=[72, 44]),
   midi.NoteOnEvent(tick=120, channel=0, data=[72, 0]),
   midi.ControlChangeEvent(tick=0, channel=0, data=[64, 0]),
   midi.NoteOnEvent(tick=120, channel=0, data=[61, 46]),
   midi.NoteOnEvent(tick=0, channel=0, data=[55, 41]),
   midi.NoteOnEvent(tick=60, channel=0, data=[55, 0]),
   midi.NoteOnEvent(tick=0, channel=0, data=[61, 0]),
   midi.NoteOnEvent(tick=60, channel=0, data=[61, 45]),
   midi.NoteOnEvent(tick=0, channel=0, data=[55, 41]),
   midi.NoteOnEvent(tick=60, channel=0, data=[55, 0]),
   midi.NoteOnEvent(tick=0, channel=0, data=[61, 0]),
   midi.NoteOnEvent(tick=60, channel=0, data=[67, 50]),
   midi.NoteOnEvent(tick=120, channel=0, data=[67, 0]),
   midi.NoteOnEvent(tick=120, channel=0, data=[61, 41]),
   midi.NoteOnEvent(tick=0, channel=0, data=[55, 36]),
   midi.NoteOnEvent(tick=120, channel=0, data=[55, 0]),
   midi.NoteOnEvent(tick=0, channel=0, data=[61, 0]),
   midi.NoteOnEvent(tick=120, channel=0, data=[67, 42]),
   midi.NoteOnEvent(tick=120, channel=0, data=[67, 0]),
   midi.NoteOnEvent(tick=120, channel=0, data=[61, 40]),
   midi.NoteOnEvent(tick=0, channel=0, data=[55, 36]),
   midi.NoteOnEvent(tick=120, channel=0, data=[55, 0]),
   midi.NoteOnEvent(tick=0, channel=0, data=[61, 0]),
   midi.NoteOnEvent(tick=120, channel=0, data=[48, 56]),
   midi.ControlChangeEvent(tick=49, channel=0, data=[64, 127]),
   midi.NoteOnEvent(tick=71, channel=0, data=[48, 0]),
   midi.NoteOnEvent(tick=360, channel=0, data=[72, 38]),
   midi.NoteOnEvent(tick=120, channel=0, data=[72, 0]),
   midi.NoteOnEvent(tick=360, channel=0, data=[72, 34]),
   midi.NoteOnEvent(tick=120, channel=0, data=[72, 0]),
   midi.NoteOnEvent(tick=360, channel=0, data=[72, 32]),
   midi.ControlChangeEvent(tick=35, channel=0, data=[64, 0]),
   midi.NoteOnEvent(tick=85, channel=0, data=[72, 0]),
   midi.NoteOnEvent(tick=120, channel=0, data=[48, 38]),
   midi.ControlChangeEvent(tick=7, channel=0, data=[64, 127]),
   midi.NoteOnEvent(tick=113, channel=0, data=[48, 0]),
   midi.NoteOnEvent(tick=0, channel=0, data=[48, 38]),
   midi.NoteOnEvent(tick=120, channel=0, data=[48, 0]),
   midi.NoteOnEvent(tick=0, channel=0, data=[48, 38]),
   midi.NoteOnEvent(tick=120, channel=0, data=[48, 0]),
   midi.NoteOnEvent(tick=0, channel=0, data=[48, 38]),
   midi.NoteOnEvent(tick=120, channel=0, data=[48, 0]),
   midi.NoteOnEvent(tick=0, channel=0, data=[48, 37]),
   midi.NoteOnEvent(tick=120, channel=0, data=[48, 0]),
   midi.NoteOnEvent(tick=0, channel=0, data=[48, 37]),
   midi.NoteOnEvent(tick=120, channel=0, data=[48, 0]),
   midi.NoteOnEvent(tick=0, channel=0, data=[48, 37]),
   midi.NoteOnEvent(tick=120, channel=0, data=[48, 0]),
   midi.NoteOnEvent(tick=0, channel=0, data=[48, 36]),
   midi.NoteOnEvent(tick=120, channel=0, data=[48, 0]),
   midi.NoteOnEvent(tick=0, channel=0, data=[48, 36]),
   midi.NoteOnEvent(tick=120, channel=0, data=[48, 0]),
   midi.NoteOnEvent(tick=0, channel=0, data=[48, 36]),
   midi.NoteOnEvent(tick=120, channel=0, data=[48, 0]),
   midi.NoteOnEvent(tick=0, channel=0, data=[48, 36]),
   midi.NoteOnEvent(tick=720, channel=0, data=[48, 0]),
   midi.ControlChangeEvent(tick=0, channel=0, data=[64, 0]),
   midi.NoteOnEvent(tick=0, channel=0, data=[36, 49]),
   midi.ControlChangeEvent(tick=141, channel=0, data=[64, 127]),
   midi.NoteOnEvent(tick=579, channel=0, data=[36, 0]),
   midi.NoteOnEvent(tick=0, channel=0, data=[48, 47]),
   midi.ControlChangeEvent(tick=7, channel=0, data=[64, 0]),
   midi.NoteOnEvent(tick=113, channel=0, data=[48, 0]),
   midi.ControlChangeEvent(tick=0, channel=0, data=[64, 127]),
   midi.NoteOnEvent(tick=120, channel=0, data=[72, 37]),
   midi.NoteOnEvent(tick=120, channel=0, data=[72, 0]),
   midi.NoteOnEvent(tick=120, channel=0, data=[60, 37]),
   midi.NoteOnEvent(tick=120, channel=0, data=[60, 0]),
   midi.ControlChangeEvent(tick=120, channel=0, data=[64, 0]),
   midi.NoteOnEvent(tick=0, channel=0, data=[41, 46]),
   midi.ControlChangeEvent(tick=42, channel=0, data=[64, 127]),
   midi.ControlChangeEvent(tick=212, channel=0, data=[64, 0]),
   midi.ControlChangeEvent(tick=64, channel=0, data=[64, 127]),
   midi.NoteOnEvent(tick=162, channel=0, data=[69, 43]),
   midi.ControlChangeEvent(tick=18, channel=0, data=[64, 0]),
   midi.NoteOnEvent(tick=42, channel=0, data=[69, 0]),
   midi.NoteOnEvent(tick=180, channel=0, data=[41, 0]),
   midi.NoteOnEvent(tick=0, channel=0, data=[64, 41]),
   midi.NoteOnEvent(tick=60, channel=0, data=[64, 0]),
   midi.NoteOnEvent(tick=180, channel=0, data=[65, 44]),
   midi.NoteOnEvent(tick=60, channel=0, data=[65, 0]),
   midi.NoteOnEvent(tick=180, channel=0, data=[60, 41]),
   midi.NoteOnEvent(tick=60, channel=0, data=[60, 0]),
   midi.NoteOnEvent(tick=180, channel=0, data=[37, 51]),
   midi.ControlChangeEvent(tick=80, channel=0, data=[64, 127]),
   midi.NoteOnEvent(tick=40, channel=0, data=[37, 0]),
   midi.NoteOnEvent(tick=120, channel=0, data=[69, 45]),
   midi.NoteOnEvent(tick=120, channel=0, data=[69, 0]),
   midi.NoteOnEvent(tick=120, channel=0, data=[57, 47]),
   midi.NoteOnEvent(tick=120, channel=0, data=[57, 0]),
   midi.NoteOnEvent(tick=120, channel=0, data=[38, 47]),
   midi.ControlChangeEvent(tick=2, channel=0, data=[64, 0]),
   midi.ControlChangeEvent(tick=76, channel=0, data=[64, 127]),
   midi.NoteOnEvent(tick=42, channel=0, data=[38, 0]),
   midi.NoteOnEvent(tick=120, channel=0, data=[50, 37]),
   midi.NoteOnEvent(tick=120, channel=0, data=[50, 0]),
   midi.NoteOnEvent(tick=120, channel=0, data=[66, 38]),
   midi.NoteOnEvent(tick=120, channel=0, data=[66, 0]),
   midi.NoteOnEvent(tick=120, channel=0, data=[43, 46]),
   midi.ControlChangeEvent(tick=2, channel=0, data=[64, 0]),
   midi.ControlChangeEvent(tick=40, channel=0, data=[64, 127]),
   midi.ControlChangeEvent(tick=213, channel=0, data=[64, 0]),
   midi.ControlChangeEvent(tick=24, channel=0, data=[64, 127]),
   midi.NoteOnEvent(tick=201, channel=0, data=[43, 0]),
   midi.NoteOnEvent(tick=0, channel=0, data=[66, 43]),
   midi.ControlChangeEvent(tick=6, channel=0, data=[64, 0]),
   midi.NoteOnEvent(tick=54, channel=0, data=[66, 0]),
   midi.NoteOnEvent(tick=180, channel=0, data=[61, 41]),
   midi.NoteOnEvent(tick=60, channel=0, data=[61, 0]),
   midi.NoteOnEvent(tick=180, channel=0, data=[63, 44]),
   midi.NoteOnEvent(tick=60, channel=0, data=[63, 0]),
   midi.NoteOnEvent(tick=180, channel=0, data=[62, 41]),
   midi.NoteOnEvent(tick=60, channel=0, data=[62, 0]),
   midi.NoteOnEvent(tick=180, channel=0, data=[36, 52]),
   midi.ControlChangeEvent(tick=92, channel=0, data=[64, 127]),
   midi.NoteOnEvent(tick=628, channel=0, data=[36, 0]),
   midi.NoteOnEvent(tick=0, channel=0, data=[48, 51]),
   midi.ControlChangeEvent(tick=4, channel=0, data=[64, 0]),
   midi.ControlChangeEvent(tick=74, channel=0, data=[64, 127]),
   midi.NoteOnEvent(tick=42, channel=0, data=[48, 0]),
   midi.NoteOnEvent(tick=120, channel=0, data=[72, 40]),
   midi.NoteOnEvent(tick=120, channel=0, data=[72, 0]),
   midi.NoteOnEvent(tick=120, channel=0, data=[60, 38]),
   midi.NoteOnEvent(tick=120, channel=0, data=[60, 0]),
   midi.ControlChangeEvent(tick=120, channel=0, data=[64, 0]),
   midi.NoteOnEvent(tick=0, channel=0, data=[41, 46]),
   midi.ControlChangeEvent(tick=42, channel=0, data=[64, 127]),
   midi.ControlChangeEvent(tick=212, channel=0, data=[64, 0]),
   midi.ControlChangeEvent(tick=71, channel=0, data=[64, 127]),
   midi.NoteOnEvent(tick=155, channel=0, data=[69, 43]),
   midi.ControlChangeEvent(tick=11, channel=0, data=[64, 0]),
   midi.NoteOnEvent(tick=49, channel=0, data=[69, 0]),
   midi.NoteOnEvent(tick=180, channel=0, data=[41, 0]),
   midi.NoteOnEvent(tick=0, channel=0, data=[64, 41]),
   midi.NoteOnEvent(tick=60, channel=0, data=[64, 0]),
   midi.NoteOnEvent(tick=180, channel=0, data=[65, 44]),
   midi.NoteOnEvent(tick=60, channel=0, data=[65, 0]),
   midi.NoteOnEvent(tick=180, channel=0, data=[60, 41]),
   midi.NoteOnEvent(tick=60, channel=0, data=[60, 0]),
   midi.NoteOnEvent(tick=120, channel=0, data=[48, 44]),
   midi.NoteOnEvent(tick=60, channel=0, data=[48, 0]),
   midi.NoteOnEvent(tick=0, channel=0, data=[33, 56]),
   midi.ControlChangeEvent(tick=35, channel=0, data=[64, 127]),
   midi.NoteOnEvent(tick=205, channel=0, data=[33, 0]),
   midi.NoteOnEvent(tick=0, channel=0, data=[40, 49]),
   midi.NoteOnEvent(tick=480, channel=0, data=[40, 0]),
   midi.NoteOnEvent(tick=0, channel=0, data=[48, 51]),
   midi.ControlChangeEvent(tick=5, channel=0, data=[64, 0]),
   midi.ControlChangeEvent(tick=115, channel=0, data=[64, 127]),
   midi.NoteOnEvent(tick=120, channel=0, data=[48, 0]),
   midi.NoteOnEvent(tick=0, channel=0, data=[60, 40]),
   midi.ControlChangeEvent(tick=254, channel=0, data=[64, 0]),
   midi.ControlChangeEvent(tick=71, channel=0, data=[64, 127]),
   midi.NoteOnEvent(tick=155, channel=0, data=[60, 0]),
   midi.NoteOnEvent(tick=0, channel=0, data=[51, 35]),
   midi.ControlChangeEvent(tick=9, channel=0, data=[64, 0]),
   midi.ControlChangeEvent(tick=30, channel=0, data=[64, 127]),
   midi.NoteOnEvent(tick=81, channel=0, data=[51, 0]),
   midi.NoteOnEvent(tick=0, channel=0, data=[52, 31]),
   midi.NoteOnEvent(tick=120, channel=0, data=[52, 0]),
   midi.NoteOnEvent(tick=0, channel=0, data=[60, 41]),
   midi.ControlChangeEvent(tick=11, channel=0, data=[64, 0]),
   midi.ControlChangeEvent(tick=31, channel=0, data=[64, 127]),
   midi.NoteOnEvent(tick=78, channel=0, data=[60, 0]),
   midi.NoteOnEvent(tick=120, channel=0, data=[60, 41]),
   midi.ControlChangeEvent(tick=11, channel=0, data=[64, 0]),
   midi.ControlChangeEvent(tick=67, channel=0, data=[64, 127]),
   midi.NoteOnEvent(tick=42, channel=0, data=[60, 0]),
   midi.ControlChangeEvent(tick=120, channel=0, data=[64, 0]),
   midi.NoteOnEvent(tick=0, channel=0, data=[65, 38]),
   midi.NoteOnEvent(tick=60, channel=0, data=[65, 0]),
   midi.NoteOnEvent(tick=180, channel=0, data=[64, 41]),
   midi.NoteOnEvent(tick=60, channel=0, data=[64, 0]),
   midi.NoteOnEvent(tick=180, channel=0, data=[62, 38]),
   midi.NoteOnEvent(tick=60, channel=0, data=[62, 0]),
   midi.NoteOnEvent(tick=180, channel=0, data=[36, 49]),
   midi.ControlChangeEvent(tick=113, channel=0, data=[64, 127]),
   midi.NoteOnEvent(tick=607, channel=0, data=[36, 0]),
   midi.NoteOnEvent(tick=0, channel=0, data=[48, 47]),
   midi.ControlChangeEvent(tick=9, channel=0, data=[64, 0]),
   midi.ControlChangeEvent(tick=104, channel=0, data=[64, 127]),
   midi.NoteOnEvent(tick=7, channel=0, data=[48, 0]),
   midi.NoteOnEvent(tick=120, channel=0, data=[72, 37]),
   midi.NoteOnEvent(tick=120, channel=0, data=[72, 0]),
   midi.NoteOnEvent(tick=120, channel=0, data=[60, 37]),
   midi.NoteOnEvent(tick=120, channel=0, data=[60, 0]),
   midi.NoteOnEvent(tick=120, channel=0, data=[41, 46]),
   midi.ControlChangeEvent(tick=9, channel=0, data=[64, 0]),
   midi.ControlChangeEvent(tick=33, channel=0, data=[64, 127]),
   midi.ControlChangeEvent(tick=208, channel=0, data=[64, 0]),
   midi.ControlChangeEvent(tick=61, channel=0, data=[64, 127]),
   midi.NoteOnEvent(tick=169, channel=0, data=[41, 0]),
   midi.NoteOnEvent(tick=0, channel=0, data=[69, 43]),
   midi.ControlChangeEvent(tick=10, channel=0, data=[64, 0]),
   midi.NoteOnEvent(tick=50, channel=0, data=[69, 0]),
   midi.NoteOnEvent(tick=180, channel=0, data=[64, 41]),
   midi.NoteOnEvent(tick=60, channel=0, data=[64, 0]),
   midi.NoteOnEvent(tick=180, channel=0, data=[65, 44]),
   midi.NoteOnEvent(tick=60, channel=0, data=[65, 0]),
   midi.NoteOnEvent(tick=180, channel=0, data=[60, 41]),
   midi.NoteOnEvent(tick=60, channel=0, data=[60, 0]),
   midi.NoteOnEvent(tick=180, channel=0, data=[37, 51]),
   midi.ControlChangeEvent(tick=35, channel=0, data=[64, 127]),
   midi.NoteOnEvent(tick=85, channel=0, data=[37, 0]),
   midi.NoteOnEvent(tick=120, channel=0, data=[69, 45]),
   midi.NoteOnEvent(tick=120, channel=0, data=[69, 0]),
   midi.NoteOnEvent(tick=120, channel=0, data=[57, 47]),
   midi.NoteOnEvent(tick=120, channel=0, data=[57, 0]),
   midi.NoteOnEvent(tick=120, channel=0, data=[38, 47]),
   midi.ControlChangeEvent(tick=4, channel=0, data=[64, 0]),
   midi.ControlChangeEvent(tick=74, channel=0, data=[64, 127]),
   midi.NoteOnEvent(tick=42, channel=0, data=[38, 0]),
   midi.NoteOnEvent(tick=120, channel=0, data=[50, 37]),
   midi.NoteOnEvent(tick=120, channel=0, data=[50, 0]),
   midi.NoteOnEvent(tick=120, channel=0, data=[66, 38]),
   midi.NoteOnEvent(tick=120, channel=0, data=[66, 0]),
   midi.NoteOnEvent(tick=120, channel=0, data=[43, 46]),
   midi.ControlChangeEvent(tick=6, channel=0, data=[64, 0]),
   midi.ControlChangeEvent(tick=36, channel=0, data=[64, 127]),
   midi.ControlChangeEvent(tick=207, channel=0, data=[64, 0]),
   midi.ControlChangeEvent(tick=30, channel=0, data=[64, 127]),
   midi.NoteOnEvent(tick=201, channel=0, data=[43, 0]),
   midi.NoteOnEvent(tick=0, channel=0, data=[66, 43]),
   midi.ControlChangeEvent(tick=9, channel=0, data=[64, 0]),
   midi.NoteOnEvent(tick=51, channel=0, data=[66, 0]),
   midi.NoteOnEvent(tick=180, channel=0, data=[61, 41]),
   midi.NoteOnEvent(tick=60, channel=0, data=[61, 0]),
   midi.NoteOnEvent(tick=180, channel=0, data=[63, 44]),
   midi.NoteOnEvent(tick=60, channel=0, data=[63, 0]),
   midi.NoteOnEvent(tick=180, channel=0, data=[62, 41]),
   midi.NoteOnEvent(tick=60, channel=0, data=[62, 0]),
   midi.NoteOnEvent(tick=180, channel=0, data=[36, 51]),
   midi.ControlChangeEvent(tick=99, channel=0, data=[64, 127]),
   midi.NoteOnEvent(tick=621, channel=0, data=[36, 0]),
   midi.NoteOnEvent(tick=0, channel=0, data=[60, 47]),
   midi.ControlChangeEvent(tick=10, channel=0, data=[64, 0]),
   midi.ControlChangeEvent(tick=89, channel=0, data=[64, 127]),
   midi.NoteOnEvent(tick=21, channel=0, data=[60, 0]),
   midi.NoteOnEvent(tick=120, channel=0, data=[72, 37]),
   midi.NoteOnEvent(tick=120, channel=0, data=[72, 0]),
   midi.NoteOnEvent(tick=120, channel=0, data=[48, 39]),
   midi.NoteOnEvent(tick=120, channel=0, data=[48, 0]),
   midi.NoteOnEvent(tick=120, channel=0, data=[41, 46]),
   midi.ControlChangeEvent(tick=8, channel=0, data=[64, 0]),
   midi.ControlChangeEvent(tick=34, channel=0, data=[64, 127]),
   midi.NoteOnEvent(tick=198, channel=0, data=[41, 0]),
   midi.NoteOnEvent(tick=0, channel=0, data=[47, 31]),
   midi.ControlChangeEvent(tick=11, channel=0, data=[64, 0]),
   midi.ControlChangeEvent(tick=24, channel=0, data=[64, 127]),
   midi.NoteOnEvent(tick=85, channel=0, data=[47, 0]),
   midi.NoteOnEvent(tick=0, channel=0, data=[48, 29]),
   midi.NoteOnEvent(tick=120, channel=0, data=[48, 0]),
   midi.NoteOnEvent(tick=0, channel=0, data=[57, 30]),
   midi.ControlChangeEvent(tick=15, channel=0, data=[64, 0]),
   midi.ControlChangeEvent(tick=73, channel=0, data=[64, 127]),
   midi.NoteOnEvent(tick=152, channel=0, data=[57, 0]),
   midi.NoteOnEvent(tick=0, channel=0, data=[36, 42]),
   midi.ControlChangeEvent(tick=8, channel=0, data=[64, 0]),
   midi.ControlChangeEvent(tick=80, channel=0, data=[64, 127]),
   midi.NoteOnEvent(tick=32, channel=0, data=[36, 0]),
   midi.NoteOnEvent(tick=120, channel=0, data=[53, 37]),
   midi.ControlChangeEvent(tick=15, channel=0, data=[64, 0]),
   midi.ControlChangeEvent(tick=49, channel=0, data=[64, 127]),
   midi.NoteOnEvent(tick=16, channel=0, data=[53, 0]),
   midi.NoteOnEvent(tick=0, channel=0, data=[55, 35]),
   midi.NoteOnEvent(tick=80, channel=0, data=[55, 0]),
   midi.NoteOnEvent(tick=0, channel=0, data=[53, 35]),
   midi.NoteOnEvent(tick=80, channel=0, data=[53, 0]),
   midi.NoteOnEvent(tick=0, channel=0, data=[52, 37]),
   midi.ControlChangeEvent(tick=5, channel=0, data=[64, 0]),
   midi.ControlChangeEvent(tick=34, channel=0, data=[64, 127]),
   midi.NoteOnEvent(tick=81, channel=0, data=[52, 0]),
   midi.NoteOnEvent(tick=0, channel=0, data=[50, 35]),
   midi.NoteOnEvent(tick=120, channel=0, data=[50, 0]),
   midi.NoteOnEvent(tick=0, channel=0, data=[41, 40]),
   midi.NoteOnEvent(tick=0, channel=0, data=[53, 40]),
   midi.ControlChangeEvent(tick=42, channel=0, data=[64, 0]),
   midi.ControlChangeEvent(tick=43, channel=0, data=[64, 127]),
   midi.NoteOnEvent(tick=155, channel=0, data=[53, 0]),
   midi.NoteOnEvent(tick=0, channel=0, data=[41, 0]),
   midi.NoteOnEvent(tick=0, channel=0, data=[52, 43]),
   midi.ControlChangeEvent(tick=21, channel=0, data=[64, 0]),
   midi.NoteOnEvent(tick=69, channel=0, data=[52, 0]),
   midi.ControlChangeEvent(tick=16, channel=0, data=[64, 127]),
   midi.NoteOnEvent(tick=14, channel=0, data=[50, 40]),
   midi.NoteOnEvent(tick=90, channel=0, data=[50, 0]),
   midi.NoteOnEvent(tick=30, channel=0, data=[48, 41]),
   midi.ControlChangeEvent(tick=14, channel=0, data=[64, 0]),
   midi.ControlChangeEvent(tick=50, channel=0, data=[64, 127]),
   midi.NoteOnEvent(tick=26, channel=0, data=[48, 0]),
   midi.NoteOnEvent(tick=30, channel=0, data=[52, 39]),
   midi.NoteOnEvent(tick=90, channel=0, data=[52, 0]),
   midi.ControlChangeEvent(tick=30, channel=0, data=[64, 0]),
   midi.NoteOnEvent(tick=0, channel=0, data=[50, 43]),
   midi.ControlChangeEvent(tick=39, channel=0, data=[64, 127]),
   midi.NoteOnEvent(tick=51, channel=0, data=[50, 0]),
   midi.NoteOnEvent(tick=30, channel=0, data=[52, 40]),
   midi.NoteOnEvent(tick=90, channel=0, data=[52, 0]),
   midi.NoteOnEvent(tick=30, channel=0, data=[53, 37]),
   midi.ControlChangeEvent(tick=11, channel=0, data=[64, 0]),
   midi.ControlChangeEvent(tick=35, channel=0, data=[64, 127]),
   midi.NoteOnEvent(tick=34, channel=0, data=[53, 0]),
   midi.NoteOnEvent(tick=0, channel=0, data=[55, 35]),
   midi.NoteOnEvent(tick=80, channel=0, data=[55, 0]),
   midi.NoteOnEvent(tick=0, channel=0, data=[53, 35]),
   midi.NoteOnEvent(tick=80, channel=0, data=[53, 0]),
   midi.NoteOnEvent(tick=0, channel=0, data=[52, 37]),
   midi.ControlChangeEvent(tick=14, channel=0, data=[64, 0]),
   midi.ControlChangeEvent(tick=25, channel=0, data=[64, 127]),
   midi.NoteOnEvent(tick=81, channel=0, data=[52, 0]),
   midi.NoteOnEvent(tick=0, channel=0, data=[50, 35]),
   midi.NoteOnEvent(tick=120, channel=0, data=[50, 0]),
   midi.NoteOnEvent(tick=0, channel=0, data=[41, 40]),
   midi.NoteOnEvent(tick=0, channel=0, data=[53, 40]),
   midi.ControlChangeEvent(tick=20, channel=0, data=[64, 0]),
   midi.ControlChangeEvent(tick=65, channel=0, data=[64, 127]),
   midi.NoteOnEvent(tick=155, channel=0, data=[53, 0]),
   midi.NoteOnEvent(tick=0, channel=0, data=[41, 0]),
   midi.NoteOnEvent(tick=0, channel=0, data=[52, 43]),
   midi.ControlChangeEvent(tick=21, channel=0, data=[64, 0]),
   midi.NoteOnEvent(tick=69, channel=0, data=[52, 0]),
   midi.ControlChangeEvent(tick=9, channel=0, data=[64, 127]),
   midi.NoteOnEvent(tick=21, channel=0, data=[50, 40]),
   midi.NoteOnEvent(tick=90, channel=0, data=[50, 0]),
   midi.NoteOnEvent(tick=30, channel=0, data=[48, 41]),
   midi.ControlChangeEvent(tick=13, channel=0, data=[64, 0]),
   midi.NoteOnEvent(tick=77, channel=0, data=[48, 0]),
   midi.ControlChangeEvent(tick=30, channel=0, data=[64, 127]),
   midi.NoteOnEvent(tick=0, channel=0, data=[52, 39]),
   midi.NoteOnEvent(tick=90, channel=0, data=[52, 0]),
   midi.ControlChangeEvent(tick=30, channel=0, data=[64, 0]),
   midi.NoteOnEvent(tick=0, channel=0, data=[50, 43]),
   midi.ControlChangeEvent(tick=39, channel=0, data=[64, 127]),
   midi.NoteOnEvent(tick=51, channel=0, data=[50, 0]),
   midi.NoteOnEvent(tick=30, channel=0, data=[52, 40]),
   midi.NoteOnEvent(tick=90, channel=0, data=[52, 0]),
   midi.NoteOnEvent(tick=30, channel=0, data=[53, 37]),
   midi.ControlChangeEvent(tick=11, channel=0, data=[64, 0]),
   midi.ControlChangeEvent(tick=35, channel=0, data=[64, 127]),
   midi.NoteOnEvent(tick=34, channel=0, data=[53, 0]),
   midi.NoteOnEvent(tick=0, channel=0, data=[55, 35]),
   midi.NoteOnEvent(tick=80, channel=0, data=[55, 0]),
   midi.NoteOnEvent(tick=0, channel=0, data=[53, 35]),
   midi.NoteOnEvent(tick=80, channel=0, data=[53, 0]),
   midi.NoteOnEvent(tick=0, channel=0, data=[52, 37]),
   midi.ControlChangeEvent(tick=14, channel=0, data=[64, 0]),
   midi.ControlChangeEvent(tick=25, channel=0, data=[64, 127]),
   midi.NoteOnEvent(tick=81, channel=0, data=[52, 0]),
   midi.NoteOnEvent(tick=0, channel=0, data=[50, 35]),
   midi.NoteOnEvent(tick=120, channel=0, data=[50, 0]),
   midi.NoteOnEvent(tick=0, channel=0, data=[53, 40]),
   midi.ControlChangeEvent(tick=42, channel=0, data=[64, 0]),
   midi.ControlChangeEvent(tick=43, channel=0, data=[64, 127]),
   midi.NoteOnEvent(tick=35, channel=0, data=[53, 0]),
   midi.NoteOnEvent(tick=0, channel=0, data=[52, 40]),
   midi.NoteOnEvent(tick=90, channel=0, data=[52, 0]),
   midi.NoteOnEvent(tick=30, channel=0, data=[50, 43]),
   midi.ControlChangeEvent(tick=21, channel=0, data=[64, 0]),
   midi.NoteOnEvent(tick=69, channel=0, data=[50, 0]),
   midi.ControlChangeEvent(tick=9, channel=0, data=[64, 127]),
   midi.NoteOnEvent(tick=21, channel=0, data=[52, 40]),
   midi.NoteOnEvent(tick=90, channel=0, data=[52, 0]),
   midi.NoteOnEvent(tick=30, channel=0, data=[48, 41]),
   midi.ControlChangeEvent(tick=3, channel=0, data=[64, 0]),
   midi.ControlChangeEvent(tick=75, channel=0, data=[64, 127]),
   midi.NoteOnEvent(tick=12, channel=0, data=[48, 0]),
   midi.NoteOnEvent(tick=30, channel=0, data=[52, 39]),
   midi.NoteOnEvent(tick=90, channel=0, data=[52, 0]),
   midi.ControlChangeEvent(tick=30, channel=0, data=[64, 0]),
   midi.NoteOnEvent(tick=0, channel=0, data=[50, 43]),
   midi.ControlChangeEvent(tick=39, channel=0, data=[64, 127]),
   midi.NoteOnEvent(tick=51, channel=0, data=[50, 0]),
   midi.NoteOnEvent(tick=30, channel=0, data=[52, 40]),
   midi.NoteOnEvent(tick=90, channel=0, data=[52, 0]),
   midi.NoteOnEvent(tick=30, channel=0, data=[53, 37]),
   midi.ControlChangeEvent(tick=14, channel=0, data=[64, 0]),
   midi.ControlChangeEvent(tick=32, channel=0, data=[64, 127]),
   midi.NoteOnEvent(tick=34, channel=0, data=[53, 0]),
   midi.NoteOnEvent(tick=0, channel=0, data=[55, 35]),
   midi.NoteOnEvent(tick=80, channel=0, data=[55, 0]),
   midi.NoteOnEvent(tick=0, channel=0, data=[53, 35]),
   midi.NoteOnEvent(tick=80, channel=0, data=[53, 0]),
   midi.NoteOnEvent(tick=0, channel=0, data=[52, 37]),
   midi.ControlChangeEvent(tick=14, channel=0, data=[64, 0]),
   midi.ControlChangeEvent(tick=25, channel=0, data=[64, 127]),
   midi.NoteOnEvent(tick=81, channel=0, data=[52, 0]),
   midi.NoteOnEvent(tick=0, channel=0, data=[50, 35]),
   midi.NoteOnEvent(tick=120, channel=0, data=[50, 0]),
   midi.NoteOnEvent(tick=0, channel=0, data=[43, 40]),
   midi.NoteOnEvent(tick=0, channel=0, data=[53, 40]),
   midi.ControlChangeEvent(tick=13, channel=0, data=[64, 0]),
   midi.ControlChangeEvent(tick=72, channel=0, data=[64, 127]),
   midi.NoteOnEvent(tick=35, channel=0, data=[53, 0]),
   midi.NoteOnEvent(tick=0, channel=0, data=[52, 40]),
   midi.NoteOnEvent(tick=90, channel=0, data=[52, 0]),
   midi.NoteOnEvent(tick=30, channel=0, data=[50, 43]),
   midi.ControlChangeEvent(tick=21, channel=0, data=[64, 0]),
   midi.NoteOnEvent(tick=69, channel=0, data=[50, 0]),
   midi.ControlChangeEvent(tick=9, channel=0, data=[64, 127]),
   midi.NoteOnEvent(tick=21, channel=0, data=[53, 40]),
   midi.NoteOnEvent(tick=90, channel=0, data=[53, 0]),
   midi.NoteOnEvent(tick=30, channel=0, data=[52, 41]),
   midi.ControlChangeEvent(tick=14, channel=0, data=[64, 0]),
   midi.ControlChangeEvent(tick=78, channel=0, data=[64, 127]),
   midi.NoteOnEvent(tick=148, channel=0, data=[52, 0]),
   midi.NoteOnEvent(tick=0, channel=0, data=[43, 0]),
   midi.NoteOnEvent(tick=0, channel=0, data=[36, 54]),
   midi.ControlChangeEvent(tick=2, channel=0, data=[64, 0]),
   midi.ControlChangeEvent(tick=90, channel=0, data=[64, 127]),
   midi.NoteOnEvent(tick=148, channel=0, data=[36, 0]),
   midi.ControlChangeEvent(tick=0, channel=0, data=[64, 0]),
   midi.NoteOnEvent(tick=0, channel=0, data=[73, 57]),
   midi.ControlChangeEvent(tick=32, channel=0, data=[64, 127]),
   midi.NoteOnEvent(tick=88, channel=0, data=[73, 0]),
   midi.NoteOnEvent(tick=0, channel=0, data=[76, 52]),
   midi.NoteOnEvent(tick=120, channel=0, data=[76, 0]),
   midi.NoteOnEvent(tick=0, channel=0, data=[72, 57]),
   midi.ControlChangeEvent(tick=11, channel=0, data=[64, 0]),
   midi.ControlChangeEvent(tick=70, channel=0, data=[64, 127]),
   midi.NoteOnEvent(tick=39, channel=0, data=[72, 0]),
   midi.NoteOnEvent(tick=0, channel=0, data=[75, 52]),
   midi.ControlChangeEvent(tick=92, channel=0, data=[64, 0]),
   midi.NoteOnEvent(tick=28, channel=0, data=[75, 0]),
   midi.NoteOnEvent(tick=0, channel=0, data=[71, 57]),
   midi.NoteOnEvent(tick=120, channel=0, data=[71, 0]),
   midi.NoteOnEvent(tick=120, channel=0, data=[71, 65]),
   midi.NoteOnEvent(tick=60, channel=0, data=[71, 0]),
   midi.NoteOnEvent(tick=60, channel=0, data=[74, 56]),
   midi.NoteOnEvent(tick=60, channel=0, data=[74, 0]),
   midi.NoteOnEvent(tick=60, channel=0, data=[68, 65]),
   midi.NoteOnEvent(tick=120, channel=0, data=[68, 0]),
   midi.NoteOnEvent(tick=120, channel=0, data=[35, 54]),
   midi.ControlChangeEvent(tick=14, channel=0, data=[64, 127]),
   midi.NoteOnEvent(tick=226, channel=0, data=[35, 0]),
   midi.NoteOnEvent(tick=0, channel=0, data=[71, 57]),
   midi.ControlChangeEvent(tick=4, channel=0, data=[64, 0]),
   midi.ControlChangeEvent(tick=28, channel=0, data=[64, 127]),
   midi.NoteOnEvent(tick=88, channel=0, data=[71, 0]),
   midi.NoteOnEvent(tick=0, channel=0, data=[74, 52]),
   midi.NoteOnEvent(tick=120, channel=0, data=[74, 0]),
   midi.NoteOnEvent(tick=0, channel=0, data=[70, 57]),
   midi.ControlChangeEvent(tick=6, channel=0, data=[64, 0]),
   midi.ControlChangeEvent(tick=37, channel=0, data=[64, 127]),
   midi.NoteOnEvent(tick=77, channel=0, data=[70, 0]),
   midi.NoteOnEvent(tick=0, channel=0, data=[73, 52]),
   midi.ControlChangeEvent(tick=92, channel=0, data=[64, 0]),
   midi.NoteOnEvent(tick=28, channel=0, data=[73, 0]),
   midi.NoteOnEvent(tick=0, channel=0, data=[69, 57]),
   midi.NoteOnEvent(tick=120, channel=0, data=[69, 0]),
   midi.NoteOnEvent(tick=120, channel=0, data=[71, 65]),
   midi.NoteOnEvent(tick=60, channel=0, data=[71, 0]),
   midi.NoteOnEvent(tick=60, channel=0, data=[72, 56]),
   midi.NoteOnEvent(tick=60, channel=0, data=[72, 0]),
   midi.NoteOnEvent(tick=60, channel=0, data=[66, 65]),
   midi.NoteOnEvent(tick=120, channel=0, data=[66, 0]),
   midi.NoteOnEvent(tick=120, channel=0, data=[54, 54]),
   midi.ControlChangeEvent(tick=26, channel=0, data=[64, 127]),
   midi.NoteOnEvent(tick=94, channel=0, data=[54, 0]),
   midi.NoteOnEvent(tick=120, channel=0, data=[69, 63]),
   midi.ControlChangeEvent(tick=17, channel=0, data=[64, 0]),
   midi.ControlChangeEvent(tick=49, channel=0, data=[64, 127]),
   midi.NoteOnEvent(tick=54, channel=0, data=[69, 0]),
   midi.NoteOnEvent(tick=0, channel=0, data=[72, 58]),
   midi.NoteOnEvent(tick=120, channel=0, data=[72, 0]),
   midi.NoteOnEvent(tick=0, channel=0, data=[68, 61]),
   midi.ControlChangeEvent(tick=11, channel=0, data=[64, 0]),
   midi.ControlChangeEvent(tick=44, channel=0, data=[64, 127]),
   midi.NoteOnEvent(tick=65, channel=0, data=[68, 0]),
   midi.NoteOnEvent(tick=0, channel=0, data=[71, 57]),
   midi.NoteOnEvent(tick=120, channel=0, data=[71, 0]),
   midi.NoteOnEvent(tick=0, channel=0, data=[67, 59]),
   midi.ControlChangeEvent(tick=8, channel=0, data=[64, 0]),
   midi.ControlChangeEvent(tick=35, channel=0, data=[64, 127]),
   midi.NoteOnEvent(tick=77, channel=0, data=[67, 0]),
   midi.NoteOnEvent(tick=0, channel=0, data=[70, 53]),
   midi.NoteOnEvent(tick=120, channel=0, data=[70, 0]),
   midi.NoteOnEvent(tick=0, channel=0, data=[66, 59]),
   midi.ControlChangeEvent(tick=9, channel=0, data=[64, 0]),
   midi.ControlChangeEvent(tick=40, channel=0, data=[64, 127]),
   midi.NoteOnEvent(tick=71, channel=0, data=[66, 0]),
   midi.NoteOnEvent(tick=0, channel=0, data=[69, 52]),
   midi.NoteOnEvent(tick=120, channel=0, data=[69, 0]),
   midi.NoteOnEvent(tick=0, channel=0, data=[65, 57]),
   midi.ControlChangeEvent(tick=20, channel=0, data=[64, 0]),
   midi.ControlChangeEvent(tick=49, channel=0, data=[64, 127]),
   midi.NoteOnEvent(tick=51, channel=0, data=[65, 0]),
   midi.NoteOnEvent(tick=0, channel=0, data=[68, 50]),
   midi.NoteOnEvent(tick=120, channel=0, data=[68, 0]),
   midi.NoteOnEvent(tick=0, channel=0, data=[65, 56]),
   midi.ControlChangeEvent(tick=9, channel=0, data=[64, 0]),
   midi.ControlChangeEvent(tick=34, channel=0, data=[64, 127]),
   midi.NoteOnEvent(tick=77, channel=0, data=[65, 0]),
   midi.NoteOnEvent(tick=0, channel=0, data=[67, 49]),
   midi.NoteOnEvent(tick=120, channel=0, data=[67, 0]),
   midi.NoteOnEvent(tick=0, channel=0, data=[64, 53]),
   midi.ControlChangeEvent(tick=9, channel=0, data=[64, 0]),
   midi.ControlChangeEvent(tick=31, channel=0, data=[64, 127]),
   midi.NoteOnEvent(tick=80, channel=0, data=[64, 0]),
   midi.NoteOnEvent(tick=0, channel=0, data=[67, 48]),
   midi.NoteOnEvent(tick=120, channel=0, data=[67, 0]),
   midi.NoteOnEvent(tick=0, channel=0, data=[48, 52]),
   midi.ControlChangeEvent(tick=14, channel=0, data=[64, 0]),
   midi.ControlChangeEvent(tick=49, channel=0, data=[64, 127]),
   midi.NoteOnEvent(tick=177, channel=0, data=[48, 0]),
   midi.NoteOnEvent(tick=0, channel=0, data=[41, 56]),
   midi.ControlChangeEvent(tick=5, channel=0, data=[64, 0]),
   midi.ControlChangeEvent(tick=41, channel=0, data=[64, 127]),
   midi.NoteOnEvent(tick=194, channel=0, data=[41, 0]),
   midi.NoteOnEvent(tick=0, channel=0, data=[59, 49]),
   midi.ControlChangeEvent(tick=8, channel=0, data=[64, 0]),
   midi.ControlChangeEvent(tick=56, channel=0, data=[64, 127]),
   midi.NoteOnEvent(tick=56, channel=0, data=[59, 0]),
   midi.NoteOnEvent(tick=0, channel=0, data=[60, 49]),
   midi.NoteOnEvent(tick=120, channel=0, data=[60, 0]),
   midi.NoteOnEvent(tick=0, channel=0, data=[69, 54]),
   midi.ControlChangeEvent(tick=5, channel=0, data=[64, 0]),
   midi.ControlChangeEvent(tick=69, channel=0, data=[64, 127]),
   midi.NoteOnEvent(tick=166, channel=0, data=[69, 0]),
   midi.ControlChangeEvent(tick=0, channel=0, data=[64, 0]),
   midi.NoteOnEvent(tick=0, channel=0, data=[36, 42]),
   midi.ControlChangeEvent(tick=88, channel=0, data=[64, 127]),
   midi.NoteOnEvent(tick=32, channel=0, data=[36, 0]),
   midi.NoteOnEvent(tick=120, channel=0, data=[53, 37]),
   midi.ControlChangeEvent(tick=15, channel=0, data=[64, 0]),
   midi.ControlChangeEvent(tick=49, channel=0, data=[64, 127]),
   midi.NoteOnEvent(tick=16, channel=0, data=[53, 0]),
   midi.NoteOnEvent(tick=0, channel=0, data=[55, 35]),
   midi.NoteOnEvent(tick=80, channel=0, data=[55, 0]),
   midi.NoteOnEvent(tick=0, channel=0, data=[53, 35]),
   midi.NoteOnEvent(tick=80, channel=0, data=[53, 0]),
   midi.NoteOnEvent(tick=0, channel=0, data=[52, 37]),
   midi.ControlChangeEvent(tick=5, channel=0, data=[64, 0]),
   midi.ControlChangeEvent(tick=34, channel=0, data=[64, 127]),
   midi.NoteOnEvent(tick=81, channel=0, data=[52, 0]),
   midi.NoteOnEvent(tick=0, channel=0, data=[50, 35]),
   midi.NoteOnEvent(tick=120, channel=0, data=[50, 0]),
   midi.NoteOnEvent(tick=0, channel=0, data=[53, 40]),
   midi.NoteOnEvent(tick=0, channel=0, data=[41, 40]),
   midi.ControlChangeEvent(tick=42, channel=0, data=[64, 0]),
   midi.ControlChangeEvent(tick=43, channel=0, data=[64, 127]),
   midi.NoteOnEvent(tick=155, channel=0, data=[41, 0]),
   midi.NoteOnEvent(tick=0, channel=0, data=[53, 0]),
   midi.NoteOnEvent(tick=0, channel=0, data=[52, 43]),
   midi.ControlChangeEvent(tick=21, channel=0, data=[64, 0]),
   midi.NoteOnEvent(tick=69, channel=0, data=[52, 0]),
   midi.ControlChangeEvent(tick=16, channel=0, data=[64, 127]),
   midi.NoteOnEvent(tick=14, channel=0, data=[50, 40]),
   midi.NoteOnEvent(tick=90, channel=0, data=[50, 0]),
   midi.NoteOnEvent(tick=30, channel=0, data=[48, 41]),
   midi.ControlChangeEvent(tick=14, channel=0, data=[64, 0]),
   midi.ControlChangeEvent(tick=50, channel=0, data=[64, 127]),
   midi.NoteOnEvent(tick=26, channel=0, data=[48, 0]),
   midi.NoteOnEvent(tick=30, channel=0, data=[52, 39]),
   midi.NoteOnEvent(tick=90, channel=0, data=[52, 0]),
   midi.NoteOnEvent(tick=30, channel=0, data=[50, 43]),
   midi.ControlChangeEvent(tick=0, channel=0, data=[64, 0]),
   midi.ControlChangeEvent(tick=39, channel=0, data=[64, 127]),
   midi.NoteOnEvent(tick=51, channel=0, data=[50, 0]),
   midi.NoteOnEvent(tick=30, channel=0, data=[52, 40]),
   midi.NoteOnEvent(tick=90, channel=0, data=[52, 0]),
   midi.NoteOnEvent(tick=30, channel=0, data=[53, 37]),
   midi.ControlChangeEvent(tick=11, channel=0, data=[64, 0]),
   midi.ControlChangeEvent(tick=35, channel=0, data=[64, 127]),
   midi.NoteOnEvent(tick=34, channel=0, data=[53, 0]),
   midi.NoteOnEvent(tick=0, channel=0, data=[55, 35]),
   midi.NoteOnEvent(tick=80, channel=0, data=[55, 0]),
   midi.NoteOnEvent(tick=0, channel=0, data=[53, 35]),
   midi.NoteOnEvent(tick=80, channel=0, data=[53, 0]),
   midi.NoteOnEvent(tick=0, channel=0, data=[52, 37]),
   midi.ControlChangeEvent(tick=14, channel=0, data=[64, 0]),
   midi.ControlChangeEvent(tick=25, channel=0, data=[64, 127]),
   midi.NoteOnEvent(tick=81, channel=0, data=[52, 0]),
   midi.NoteOnEvent(tick=0, channel=0, data=[50, 35]),
   midi.NoteOnEvent(tick=120, channel=0, data=[50, 0]),
   midi.NoteOnEvent(tick=0, channel=0, data=[41, 40]),
   midi.NoteOnEvent(tick=0, channel=0, data=[53, 40]),
   midi.ControlChangeEvent(tick=20, channel=0, data=[64, 0]),
   midi.ControlChangeEvent(tick=65, channel=0, data=[64, 127]),
   midi.NoteOnEvent(tick=155, channel=0, data=[53, 0]),
   midi.NoteOnEvent(tick=0, channel=0, data=[41, 0]),
   midi.NoteOnEvent(tick=0, channel=0, data=[52, 43]),
   midi.ControlChangeEvent(tick=21, channel=0, data=[64, 0]),
   midi.NoteOnEvent(tick=69, channel=0, data=[52, 0]),
   midi.ControlChangeEvent(tick=9, channel=0, data=[64, 127]),
   midi.NoteOnEvent(tick=21, channel=0, data=[50, 40]),
   midi.NoteOnEvent(tick=90, channel=0, data=[50, 0]),
   midi.NoteOnEvent(tick=30, channel=0, data=[48, 41]),
   midi.ControlChangeEvent(tick=13, channel=0, data=[64, 0]),
   midi.NoteOnEvent(tick=77, channel=0, data=[48, 0]),
   midi.ControlChangeEvent(tick=30, channel=0, data=[64, 127]),
   midi.NoteOnEvent(tick=0, channel=0, data=[52, 39]),
   midi.NoteOnEvent(tick=90, channel=0, data=[52, 0]),
   midi.NoteOnEvent(tick=30, channel=0, data=[50, 43]),
   midi.ControlChangeEvent(tick=0, channel=0, data=[64, 0]),
   midi.ControlChangeEvent(tick=39, channel=0, data=[64, 127]),
   midi.NoteOnEvent(tick=51, channel=0, data=[50, 0]),
   midi.NoteOnEvent(tick=30, channel=0, data=[52, 40]),
   midi.NoteOnEvent(tick=90, channel=0, data=[52, 0]),
   midi.NoteOnEvent(tick=30, channel=0, data=[53, 37]),
   midi.ControlChangeEvent(tick=11, channel=0, data=[64, 0]),
   midi.ControlChangeEvent(tick=35, channel=0, data=[64, 127]),
   midi.NoteOnEvent(tick=34, channel=0, data=[53, 0]),
   midi.NoteOnEvent(tick=0, channel=0, data=[55, 35]),
   midi.NoteOnEvent(tick=80, channel=0, data=[55, 0]),
   midi.NoteOnEvent(tick=0, channel=0, data=[53, 35]),
   midi.NoteOnEvent(tick=80, channel=0, data=[53, 0]),
   midi.NoteOnEvent(tick=0, channel=0, data=[52, 37]),
   midi.ControlChangeEvent(tick=14, channel=0, data=[64, 0]),
   midi.ControlChangeEvent(tick=25, channel=0, data=[64, 127]),
   midi.NoteOnEvent(tick=81, channel=0, data=[52, 0]),
   midi.NoteOnEvent(tick=0, channel=0, data=[50, 35]),
   midi.NoteOnEvent(tick=120, channel=0, data=[50, 0]),
   midi.NoteOnEvent(tick=0, channel=0, data=[53, 40]),
   midi.ControlChangeEvent(tick=42, channel=0, data=[64, 0]),
   midi.ControlChangeEvent(tick=43, channel=0, data=[64, 127]),
   midi.NoteOnEvent(tick=35, channel=0, data=[53, 0]),
   midi.NoteOnEvent(tick=0, channel=0, data=[52, 40]),
   midi.NoteOnEvent(tick=90, channel=0, data=[52, 0]),
   midi.NoteOnEvent(tick=30, channel=0, data=[50, 43]),
   midi.ControlChangeEvent(tick=21, channel=0, data=[64, 0]),
   midi.NoteOnEvent(tick=69, channel=0, data=[50, 0]),
   midi.ControlChangeEvent(tick=9, channel=0, data=[64, 127]),
   midi.NoteOnEvent(tick=21, channel=0, data=[52, 40]),
   midi.NoteOnEvent(tick=90, channel=0, data=[52, 0]),
   midi.NoteOnEvent(tick=30, channel=0, data=[48, 41]),
   midi.ControlChangeEvent(tick=3, channel=0, data=[64, 0]),
   midi.ControlChangeEvent(tick=75, channel=0, data=[64, 127]),
   midi.NoteOnEvent(tick=12, channel=0, data=[48, 0]),
   midi.NoteOnEvent(tick=30, channel=0, data=[52, 39]),
   midi.NoteOnEvent(tick=90, channel=0, data=[52, 0]),
   midi.ControlChangeEvent(tick=30, channel=0, data=[64, 0]),
   midi.NoteOnEvent(tick=0, channel=0, data=[50, 43]),
   midi.ControlChangeEvent(tick=39, channel=0, data=[64, 127]),
   midi.NoteOnEvent(tick=51, channel=0, data=[50, 0]),
   midi.NoteOnEvent(tick=30, channel=0, data=[52, 40]),
   midi.NoteOnEvent(tick=90, channel=0, data=[52, 0]),
   midi.NoteOnEvent(tick=30, channel=0, data=[53, 37]),
   midi.ControlChangeEvent(tick=14, channel=0, data=[64, 0]),
   midi.ControlChangeEvent(tick=32, channel=0, data=[64, 127]),
   midi.NoteOnEvent(tick=34, channel=0, data=[53, 0]),
   midi.NoteOnEvent(tick=0, channel=0, data=[55, 35]),
   midi.NoteOnEvent(tick=80, channel=0, data=[55, 0]),
   midi.NoteOnEvent(tick=0, channel=0, data=[53, 35]),
   midi.NoteOnEvent(tick=80, channel=0, data=[53, 0]),
   midi.NoteOnEvent(tick=0, channel=0, data=[52, 37]),
   midi.ControlChangeEvent(tick=14, channel=0, data=[64, 0]),
   midi.ControlChangeEvent(tick=25, channel=0, data=[64, 127]),
   midi.NoteOnEvent(tick=81, channel=0, data=[52, 0]),
   midi.NoteOnEvent(tick=0, channel=0, data=[50, 35]),
   midi.NoteOnEvent(tick=120, channel=0, data=[50, 0]),
   midi.NoteOnEvent(tick=0, channel=0, data=[53, 40]),
   midi.NoteOnEvent(tick=0, channel=0, data=[43, 40]),
   midi.ControlChangeEvent(tick=13, channel=0, data=[64, 0]),
   midi.ControlChangeEvent(tick=72, channel=0, data=[64, 127]),
   midi.NoteOnEvent(tick=35, channel=0, data=[53, 0]),
   midi.NoteOnEvent(tick=0, channel=0, data=[52, 40]),
   midi.NoteOnEvent(tick=90, channel=0, data=[52, 0]),
   midi.NoteOnEvent(tick=30, channel=0, data=[50, 43]),
   midi.ControlChangeEvent(tick=21, channel=0, data=[64, 0]),
   midi.NoteOnEvent(tick=69, channel=0, data=[50, 0]),
   midi.ControlChangeEvent(tick=9, channel=0, data=[64, 127]),
   midi.NoteOnEvent(tick=21, channel=0, data=[53, 40]),
   midi.NoteOnEvent(tick=90, channel=0, data=[53, 0]),
   midi.NoteOnEvent(tick=30, channel=0, data=[52, 41]),
   midi.ControlChangeEvent(tick=14, channel=0, data=[64, 0]),
   midi.ControlChangeEvent(tick=78, channel=0, data=[64, 127]),
   midi.NoteOnEvent(tick=148, channel=0, data=[52, 0]),
   midi.NoteOnEvent(tick=0, channel=0, data=[43, 0]),
   midi.NoteOnEvent(tick=0, channel=0, data=[31, 56]),
   midi.ControlChangeEvent(tick=6, channel=0, data=[64, 0]),
   midi.ControlChangeEvent(tick=65, channel=0, data=[64, 127]),
   midi.NoteOnEvent(tick=169, channel=0, data=[31, 0]),
   midi.NoteOnEvent(tick=0, channel=0, data=[74, 59]),
   midi.ControlChangeEvent(tick=4, channel=0, data=[64, 0]),
   midi.ControlChangeEvent(tick=53, channel=0, data=[64, 127]),
   midi.NoteOnEvent(tick=63, channel=0, data=[74, 0]),
   midi.NoteOnEvent(tick=0, channel=0, data=[76, 53]),
   midi.NoteOnEvent(tick=120, channel=0, data=[76, 0]),
   midi.NoteOnEvent(tick=0, channel=0, data=[70, 59]),
   midi.ControlChangeEvent(tick=10, channel=0, data=[64, 0]),
   midi.ControlChangeEvent(tick=57, channel=0, data=[64, 127]),
   midi.NoteOnEvent(tick=53, channel=0, data=[70, 0]),
   midi.NoteOnEvent(tick=0, channel=0, data=[74, 53]),
   midi.NoteOnEvent(tick=120, channel=0, data=[74, 0]),
   midi.NoteOnEvent(tick=0, channel=0, data=[67, 59]),
   midi.ControlChangeEvent(tick=14, channel=0, data=[64, 0]),
   midi.ControlChangeEvent(tick=68, channel=0, data=[64, 127]),
   midi.NoteOnEvent(tick=158, channel=0, data=[67, 0]),
   midi.NoteOnEvent(tick=0, channel=0, data=[70, 62]),
   midi.NoteOnEvent(tick=120, channel=0, data=[70, 0]),
   midi.NoteOnEvent(tick=0, channel=0, data=[74, 54]),
   midi.NoteOnEvent(tick=120, channel=0, data=[74, 0]),
   midi.NoteOnEvent(tick=0, channel=0, data=[64, 62]),
   midi.NoteOnEvent(tick=240, channel=0, data=[64, 0]),
   midi.NoteOnEvent(tick=0, channel=0, data=[52, 56]),
   midi.ControlChangeEvent(tick=9, channel=0, data=[64, 0]),
   midi.ControlChangeEvent(tick=97, channel=0, data=[64, 127]),
   midi.NoteOnEvent(tick=134, channel=0, data=[52, 0]),
   midi.NoteOnEvent(tick=0, channel=0, data=[70, 59]),
   midi.ControlChangeEvent(tick=11, channel=0, data=[64, 0]),
   midi.ControlChangeEvent(tick=49, channel=0, data=[64, 127]),
   midi.NoteOnEvent(tick=60, channel=0, data=[70, 0]),
   midi.NoteOnEvent(tick=0, channel=0, data=[74, 53]),
   midi.NoteOnEvent(tick=120, channel=0, data=[74, 0]),
   midi.NoteOnEvent(tick=0, channel=0, data=[67, 59]),
   midi.ControlChangeEvent(tick=11, channel=0, data=[64, 0]),
   midi.ControlChangeEvent(tick=53, channel=0, data=[64, 127]),
   midi.NoteOnEvent(tick=56, channel=0, data=[67, 0]),
   midi.NoteOnEvent(tick=0, channel=0, data=[70, 53]),
   midi.NoteOnEvent(tick=120, channel=0, data=[70, 0]),
   midi.NoteOnEvent(tick=0, channel=0, data=[64, 59]),
   midi.ControlChangeEvent(tick=9, channel=0, data=[64, 0]),
   midi.ControlChangeEvent(tick=111, channel=0, data=[64, 127]),
   midi.NoteOnEvent(tick=120, channel=0, data=[64, 0]),
   midi.NoteOnEvent(tick=0, channel=0, data=[61, 59]),
   midi.NoteOnEvent(tick=120, channel=0, data=[61, 0]),
   midi.NoteOnEvent(tick=0, channel=0, data=[69, 52]),
   midi.NoteOnEvent(tick=120, channel=0, data=[69, 0]),
   midi.NoteOnEvent(tick=0, channel=0, data=[57, 59]),
   midi.NoteOnEvent(tick=240, channel=0, data=[57, 0]),
   midi.NoteOnEvent(tick=0, channel=0, data=[45, 56]),
   midi.ControlChangeEvent(tick=9, channel=0, data=[64, 0]),
   midi.ControlChangeEvent(tick=62, channel=0, data=[64, 127]),
   midi.NoteOnEvent(tick=169, channel=0, data=[45, 0]),
   midi.NoteOnEvent(tick=0, channel=0, data=[55, 45]),
   midi.ControlChangeEvent(tick=8, channel=0, data=[64, 0]),
   midi.ControlChangeEvent(tick=24, channel=0, data=[64, 127]),
   midi.NoteOnEvent(tick=48, channel=0, data=[55, 0]),
   midi.NoteOnEvent(tick=0, channel=0, data=[57, 38]),
   midi.NoteOnEvent(tick=80, channel=0, data=[57, 0]),
   midi.NoteOnEvent(tick=0, channel=0, data=[55, 38]),
   midi.NoteOnEvent(tick=80, channel=0, data=[55, 0]),
   midi.NoteOnEvent(tick=0, channel=0, data=[53, 44]),
   midi.ControlChangeEvent(tick=12, channel=0, data=[64, 0]),
   midi.ControlChangeEvent(tick=25, channel=0, data=[64, 127]),
   midi.NoteOnEvent(tick=43, channel=0, data=[53, 0]),
   midi.NoteOnEvent(tick=0, channel=0, data=[55, 38]),
   midi.NoteOnEvent(tick=80, channel=0, data=[55, 0]),
   midi.NoteOnEvent(tick=0, channel=0, data=[53, 38]),
   midi.NoteOnEvent(tick=80, channel=0, data=[53, 0]),
   midi.NoteOnEvent(tick=0, channel=0, data=[52, 43]),
   midi.ControlChangeEvent(tick=9, channel=0, data=[64, 0]),
   midi.ControlChangeEvent(tick=34, channel=0, data=[64, 127]),
   midi.NoteOnEvent(tick=37, channel=0, data=[52, 0]),
   midi.NoteOnEvent(tick=0, channel=0, data=[53, 37]),
   midi.NoteOnEvent(tick=80, channel=0, data=[53, 0]),
   midi.NoteOnEvent(tick=0, channel=0, data=[52, 37]),
   midi.NoteOnEvent(tick=80, channel=0, data=[52, 0]),
   midi.NoteOnEvent(tick=0, channel=0, data=[50, 42]),
   midi.ControlChangeEvent(tick=11, channel=0, data=[64, 0]),
   midi.ControlChangeEvent(tick=38, channel=0, data=[64, 127]),
   midi.NoteOnEvent(tick=31, channel=0, data=[50, 0]),
   midi.NoteOnEvent(tick=0, channel=0, data=[52, 36]),
   midi.NoteOnEvent(tick=80, channel=0, data=[52, 0]),
   midi.NoteOnEvent(tick=0, channel=0, data=[50, 36]),
   midi.NoteOnEvent(tick=80, channel=0, data=[50, 0]),
   midi.NoteOnEvent(tick=0, channel=0, data=[49, 41]),
   midi.ControlChangeEvent(tick=11, channel=0, data=[64, 0]),
   midi.ControlChangeEvent(tick=29, channel=0, data=[64, 127]),
   midi.NoteOnEvent(tick=40, channel=0, data=[49, 0]),
   midi.NoteOnEvent(tick=0, channel=0, data=[50, 34]),
   midi.NoteOnEvent(tick=80, channel=0, data=[50, 0]),
   midi.NoteOnEvent(tick=0, channel=0, data=[49, 34]),
   midi.NoteOnEvent(tick=80, channel=0, data=[49, 0]),
   midi.NoteOnEvent(tick=0, channel=0, data=[58, 41]),
   midi.NoteOnEvent(tick=0, channel=0, data=[45, 41]),
   midi.ControlChangeEvent(tick=10, channel=0, data=[64, 0]),
   midi.ControlChangeEvent(tick=33, channel=0, data=[64, 127]),
   midi.NoteOnEvent(tick=197, channel=0, data=[58, 0]),
   midi.NoteOnEvent(tick=0, channel=0, data=[57, 41]),
   midi.ControlChangeEvent(tick=12, channel=0, data=[64, 0]),
   midi.ControlChangeEvent(tick=34, channel=0, data=[64, 127]),
   midi.NoteOnEvent(tick=194, channel=0, data=[57, 0]),
   midi.NoteOnEvent(tick=0, channel=0, data=[55, 41]),
   midi.ControlChangeEvent(tick=14, channel=0, data=[64, 0]),
   midi.ControlChangeEvent(tick=64, channel=0, data=[64, 127]),
   midi.NoteOnEvent(tick=162, channel=0, data=[55, 0]),
   midi.NoteOnEvent(tick=0, channel=0, data=[45, 0]),
   midi.NoteOnEvent(tick=0, channel=0, data=[38, 64]),
   midi.ControlChangeEvent(tick=5, channel=0, data=[64, 0]),
   midi.ControlChangeEvent(tick=108, channel=0, data=[64, 127]),
   midi.NoteOnEvent(tick=7, channel=0, data=[38, 0]),
   midi.NoteOnEvent(tick=360, channel=0, data=[74, 71]),
   midi.NoteOnEvent(tick=120, channel=0, data=[74, 0]),
   midi.NoteOnEvent(tick=120, channel=0, data=[38, 42]),
   midi.NoteOnEvent(tick=240, channel=0, data=[38, 0]),
   midi.NoteOnEvent(tick=0, channel=0, data=[62, 37]),
   midi.NoteOnEvent(tick=0, channel=0, data=[72, 37]),
   midi.ControlChangeEvent(tick=15, channel=0, data=[64, 0]),
   midi.ControlChangeEvent(tick=45, channel=0, data=[64, 127]),
   midi.NoteOnEvent(tick=180, channel=0, data=[72, 0]),
   midi.NoteOnEvent(tick=0, channel=0, data=[70, 37]),
   midi.ControlChangeEvent(tick=14, channel=0, data=[64, 0]),
   midi.ControlChangeEvent(tick=25, channel=0, data=[64, 127]),
   midi.NoteOnEvent(tick=81, channel=0, data=[70, 0]),
   midi.NoteOnEvent(tick=0, channel=0, data=[69, 35]),
   midi.NoteOnEvent(tick=120, channel=0, data=[69, 0]),
   midi.NoteOnEvent(tick=0, channel=0, data=[62, 0]),
   midi.NoteOnEvent(tick=0, channel=0, data=[72, 40]),
   midi.NoteOnEvent(tick=0, channel=0, data=[62, 38]),
   midi.ControlChangeEvent(tick=12, channel=0, data=[64, 0]),
   midi.ControlChangeEvent(tick=73, channel=0, data=[64, 127]),
   midi.NoteOnEvent(tick=155, channel=0, data=[72, 0]),
   midi.NoteOnEvent(tick=0, channel=0, data=[70, 43]),
   midi.ControlChangeEvent(tick=8, channel=0, data=[64, 0]),
   midi.ControlChangeEvent(tick=56, channel=0, data=[64, 127]),
   midi.NoteOnEvent(tick=26, channel=0, data=[70, 0]),
   midi.NoteOnEvent(tick=30, channel=0, data=[69, 40]),
   midi.NoteOnEvent(tick=90, channel=0, data=[69, 0]),
   midi.NoteOnEvent(tick=30, channel=0, data=[67, 41]),
   midi.NoteOnEvent(tick=90, channel=0, data=[67, 0]),
   midi.NoteOnEvent(tick=30, channel=0, data=[69, 39]),
   midi.NoteOnEvent(tick=90, channel=0, data=[69, 0]),
   midi.NoteOnEvent(tick=30, channel=0, data=[67, 43]),
   midi.ControlChangeEvent(tick=9, channel=0, data=[64, 0]),
   midi.ControlChangeEvent(tick=30, channel=0, data=[64, 127]),
   midi.NoteOnEvent(tick=51, channel=0, data=[67, 0]),
   midi.NoteOnEvent(tick=30, channel=0, data=[69, 40]),
   midi.NoteOnEvent(tick=90, channel=0, data=[69, 0]),
   midi.NoteOnEvent(tick=30, channel=0, data=[70, 37]),
   midi.ControlChangeEvent(tick=15, channel=0, data=[64, 0]),
   midi.ControlChangeEvent(tick=38, channel=0, data=[64, 127]),
   midi.NoteOnEvent(tick=187, channel=0, data=[70, 0]),
   midi.NoteOnEvent(tick=0, channel=0, data=[69, 37]),
   midi.ControlChangeEvent(tick=14, channel=0, data=[64, 0]),
   midi.ControlChangeEvent(tick=57, channel=0, data=[64, 127]),
   midi.NoteOnEvent(tick=49, channel=0, data=[69, 0]),
   midi.NoteOnEvent(tick=0, channel=0, data=[67, 35]),
   midi.NoteOnEvent(tick=120, channel=0, data=[67, 0]),
   midi.NoteOnEvent(tick=0, channel=0, data=[62, 0]),
   midi.NoteOnEvent(tick=0, channel=0, data=[70, 40]),
   midi.NoteOnEvent(tick=0, channel=0, data=[62, 40]),
   midi.ControlChangeEvent(tick=12, channel=0, data=[64, 0]),
   midi.ControlChangeEvent(tick=73, channel=0, data=[64, 127]),
   midi.NoteOnEvent(tick=155, channel=0, data=[70, 0]),
   midi.NoteOnEvent(tick=0, channel=0, data=[67, 43]),
   midi.NoteOnEvent(tick=90, channel=0, data=[67, 0]),
   midi.NoteOnEvent(tick=30, channel=0, data=[69, 40]),
   midi.NoteOnEvent(tick=90, channel=0, data=[69, 0]),
   midi.NoteOnEvent(tick=30, channel=0, data=[62, 0]),
   midi.NoteOnEvent(tick=0, channel=0, data=[65, 41]),
   midi.ControlChangeEvent(tick=21, channel=0, data=[64, 0]),
   midi.ControlChangeEvent(tick=85, channel=0, data=[64, 127]),
   midi.NoteOnEvent(tick=134, channel=0, data=[65, 0]),
   midi.NoteOnEvent(tick=0, channel=0, data=[38, 42]),
   midi.ControlChangeEvent(tick=0, channel=0, data=[64, 0]),
   midi.ControlChangeEvent(tick=56, channel=0, data=[64, 127]),
   midi.NoteOnEvent(tick=184, channel=0, data=[38, 0]),
   midi.NoteOnEvent(tick=0, channel=0, data=[72, 37]),
   midi.NoteOnEvent(tick=0, channel=0, data=[62, 37]),
   midi.ControlChangeEvent(tick=7, channel=0, data=[64, 0]),
   midi.ControlChangeEvent(tick=39, channel=0, data=[64, 127]),
   midi.NoteOnEvent(tick=194, channel=0, data=[72, 0]),
   midi.NoteOnEvent(tick=0, channel=0, data=[70, 37]),
   midi.ControlChangeEvent(tick=14, channel=0, data=[64, 0]),
   midi.ControlChangeEvent(tick=60, channel=0, data=[64, 127]),
   midi.NoteOnEvent(tick=46, channel=0, data=[70, 0]),
   midi.NoteOnEvent(tick=0, channel=0, data=[69, 35]),
   midi.NoteOnEvent(tick=120, channel=0, data=[69, 0]),
   midi.NoteOnEvent(tick=0, channel=0, data=[62, 0]),
   midi.NoteOnEvent(tick=0, channel=0, data=[72, 40]),
   midi.NoteOnEvent(tick=0, channel=0, data=[62, 38]),
   midi.ControlChangeEvent(tick=12, channel=0, data=[64, 0]),
   midi.ControlChangeEvent(tick=73, channel=0, data=[64, 127]),
   midi.NoteOnEvent(tick=155, channel=0, data=[72, 0]),
   midi.NoteOnEvent(tick=0, channel=0, data=[70, 43]),
   midi.ControlChangeEvent(tick=19, channel=0, data=[64, 0]),
   midi.ControlChangeEvent(tick=59, channel=0, data=[64, 127]),
   midi.NoteOnEvent(tick=12, channel=0, data=[70, 0]),
   midi.NoteOnEvent(tick=30, channel=0, data=[69, 40]),
   midi.NoteOnEvent(tick=90, channel=0, data=[69, 0]),
   midi.NoteOnEvent(tick=30, channel=0, data=[67, 41]),
   midi.NoteOnEvent(tick=90, channel=0, data=[67, 0]),
   midi.NoteOnEvent(tick=30, channel=0, data=[69, 39]),
   midi.NoteOnEvent(tick=90, channel=0, data=[69, 0]),
   midi.NoteOnEvent(tick=30, channel=0, data=[67, 43]),
   midi.ControlChangeEvent(tick=7, channel=0, data=[64, 0]),
   midi.ControlChangeEvent(tick=32, channel=0, data=[64, 127]),
   midi.NoteOnEvent(tick=51, channel=0, data=[67, 0]),
   midi.NoteOnEvent(tick=30, channel=0, data=[69, 40]),
   midi.NoteOnEvent(tick=90, channel=0, data=[69, 0]),
   midi.NoteOnEvent(tick=30, channel=0, data=[70, 37]),
   midi.ControlChangeEvent(tick=17, channel=0, data=[64, 0]),
   midi.ControlChangeEvent(tick=29, channel=0, data=[64, 127]),
   midi.NoteOnEvent(tick=194, channel=0, data=[70, 0]),
   midi.NoteOnEvent(tick=0, channel=0, data=[69, 37]),
   midi.ControlChangeEvent(tick=14, channel=0, data=[64, 0]),
   midi.ControlChangeEvent(tick=50, channel=0, data=[64, 127]),
   midi.NoteOnEvent(tick=56, channel=0, data=[69, 0]),
   midi.NoteOnEvent(tick=0, channel=0, data=[67, 35]),
   midi.NoteOnEvent(tick=120, channel=0, data=[67, 0]),
   midi.NoteOnEvent(tick=0, channel=0, data=[62, 0]),
   midi.NoteOnEvent(tick=0, channel=0, data=[70, 40]),
   midi.NoteOnEvent(tick=0, channel=0, data=[62, 40]),
   midi.ControlChangeEvent(tick=12, channel=0, data=[64, 0]),
   midi.ControlChangeEvent(tick=73, channel=0, data=[64, 127]),
   midi.NoteOnEvent(tick=155, channel=0, data=[70, 0]),
   midi.NoteOnEvent(tick=0, channel=0, data=[67, 43]),
   midi.NoteOnEvent(tick=90, channel=0, data=[67, 0]),
   midi.NoteOnEvent(tick=30, channel=0, data=[69, 40]),
   midi.NoteOnEvent(tick=90, channel=0, data=[69, 0]),
   midi.NoteOnEvent(tick=30, channel=0, data=[62, 0]),
   midi.NoteOnEvent(tick=0, channel=0, data=[65, 41]),
   midi.ControlChangeEvent(tick=6, channel=0, data=[64, 0]),
   midi.ControlChangeEvent(tick=114, channel=0, data=[64, 127]),
   midi.NoteOnEvent(tick=120, channel=0, data=[65, 0]),
   midi.ControlChangeEvent(tick=0, channel=0, data=[64, 0]),
   midi.NoteOnEvent(tick=0, channel=0, data=[38, 45]),
   midi.ControlChangeEvent(tick=67, channel=0, data=[64, 127]),
   midi.NoteOnEvent(tick=173, channel=0, data=[38, 0]),
   midi.NoteOnEvent(tick=0, channel=0, data=[72, 43]),
   midi.ControlChangeEvent(tick=8, channel=0, data=[64, 0]),
   midi.ControlChangeEvent(tick=56, channel=0, data=[64, 127]),
   midi.NoteOnEvent(tick=176, channel=0, data=[72, 0]),
   midi.NoteOnEvent(tick=0, channel=0, data=[70, 43]),
   midi.ControlChangeEvent(tick=11, channel=0, data=[64, 0]),
   midi.ControlChangeEvent(tick=56, channel=0, data=[64, 127]),
   midi.NoteOnEvent(tick=53, channel=0, data=[70, 0]),
   midi.NoteOnEvent(tick=0, channel=0, data=[69, 40]),
   midi.NoteOnEvent(tick=120, channel=0, data=[69, 0]),
   midi.NoteOnEvent(tick=0, channel=0, data=[72, 43]),
   midi.ControlChangeEvent(tick=17, channel=0, data=[64, 0]),
   midi.NoteOnEvent(tick=103, channel=0, data=[72, 0]),
   midi.ControlChangeEvent(tick=17, channel=0, data=[64, 127]),
   midi.NoteOnEvent(tick=103, channel=0, data=[66, 49]),
   midi.NoteOnEvent(tick=120, channel=0, data=[66, 0]),
   midi.NoteOnEvent(tick=0, channel=0, data=[72, 42]),
   midi.NoteOnEvent(tick=120, channel=0, data=[72, 0]),
   midi.NoteOnEvent(tick=0, channel=0, data=[63, 49]),
   midi.NoteOnEvent(tick=120, channel=0, data=[63, 0]),
   midi.ControlChangeEvent(tick=29, channel=0, data=[64, 0]),
   midi.NoteOnEvent(tick=91, channel=0, data=[54, 48]),
   midi.ControlChangeEvent(tick=57, channel=0, data=[64, 127]),
   midi.NoteOnEvent(tick=183, channel=0, data=[54, 0]),
   midi.NoteOnEvent(tick=0, channel=0, data=[72, 46]),
   midi.ControlChangeEvent(tick=10, channel=0, data=[64, 0]),
   midi.ControlChangeEvent(tick=22, channel=0, data=[64, 127]),
   midi.NoteOnEvent(tick=208, channel=0, data=[72, 0]),
   midi.NoteOnEvent(tick=0, channel=0, data=[70, 46]),
   midi.ControlChangeEvent(tick=14, channel=0, data=[64, 0]),
   midi.ControlChangeEvent(tick=43, channel=0, data=[64, 127]),
   midi.NoteOnEvent(tick=63, channel=0, data=[70, 0]),
   midi.NoteOnEvent(tick=0, channel=0, data=[69, 43]),
   midi.NoteOnEvent(tick=120, channel=0, data=[69, 0]),
   midi.NoteOnEvent(tick=0, channel=0, data=[72, 46]),
   midi.ControlChangeEvent(tick=17, channel=0, data=[64, 0]),
   midi.NoteOnEvent(tick=103, channel=0, data=[72, 0]),
   midi.ControlChangeEvent(tick=17, channel=0, data=[64, 127]),
   midi.NoteOnEvent(tick=103, channel=0, data=[66, 52]),
   midi.NoteOnEvent(tick=120, channel=0, data=[66, 0]),
   midi.NoteOnEvent(tick=0, channel=0, data=[72, 45]),
   midi.NoteOnEvent(tick=120, channel=0, data=[72, 0]),
   midi.NoteOnEvent(tick=0, channel=0, data=[63, 52]),
   midi.NoteOnEvent(tick=120, channel=0, data=[63, 0]),
   midi.ControlChangeEvent(tick=29, channel=0, data=[64, 0]),
   midi.NoteOnEvent(tick=91, channel=0, data=[54, 48]),
   midi.ControlChangeEvent(tick=32, channel=0, data=[64, 127]),
   midi.NoteOnEvent(tick=208, channel=0, data=[54, 0]),
   midi.NoteOnEvent(tick=0, channel=0, data=[72, 48]),
   midi.ControlChangeEvent(tick=8, channel=0, data=[64, 0]),
   midi.ControlChangeEvent(tick=24, channel=0, data=[64, 127]),
   midi.NoteOnEvent(tick=208, channel=0, data=[72, 0]),
   midi.NoteOnEvent(tick=0, channel=0, data=[70, 47]),
   midi.ControlChangeEvent(tick=11, channel=0, data=[64, 0]),
   midi.ControlChangeEvent(tick=49, channel=0, data=[64, 127]),
   midi.NoteOnEvent(tick=60, channel=0, data=[70, 0]),
   midi.NoteOnEvent(tick=0, channel=0, data=[69, 44]),
   midi.NoteOnEvent(tick=120, channel=0, data=[69, 0]),
   midi.NoteOnEvent(tick=0, channel=0, data=[72, 47]),
   midi.ControlChangeEvent(tick=20, channel=0, data=[64, 0]),
   midi.NoteOnEvent(tick=100, channel=0, data=[72, 0]),
   midi.NoteOnEvent(tick=120, channel=0, data=[72, 48]),
   midi.ControlChangeEvent(tick=32, channel=0, data=[64, 127]),
   midi.ControlChangeEvent(tick=201, channel=0, data=[64, 0]),
   midi.NoteOnEvent(tick=7, channel=0, data=[72, 0]),
   midi.NoteOnEvent(tick=0, channel=0, data=[70, 47]),
   midi.ControlChangeEvent(tick=28, channel=0, data=[64, 127]),
   midi.NoteOnEvent(tick=92, channel=0, data=[70, 0]),
   midi.NoteOnEvent(tick=0, channel=0, data=[69, 44]),
   midi.NoteOnEvent(tick=120, channel=0, data=[69, 0]),
   midi.NoteOnEvent(tick=0, channel=0, data=[72, 46]),
   midi.ControlChangeEvent(tick=20, channel=0, data=[64, 0]),
   midi.NoteOnEvent(tick=100, channel=0, data=[72, 0]),
   midi.NoteOnEvent(tick=120, channel=0, data=[53, 61]),
   midi.NoteOnEvent(tick=0, channel=0, data=[41, 61]),
   midi.ControlChangeEvent(tick=63, channel=0, data=[64, 127]),
   midi.ControlChangeEvent(tick=170, channel=0, data=[64, 0]),
   midi.ControlChangeEvent(tick=35, channel=0, data=[64, 127]),
   midi.ControlChangeEvent(tick=232, channel=0, data=[64, 0]),
   midi.NoteOnEvent(tick=220, channel=0, data=[41, 0]),
   midi.NoteOnEvent(tick=0, channel=0, data=[53, 0]),
   midi.NoteOnEvent(tick=0, channel=0, data=[29, 61]),
   midi.ControlChangeEvent(tick=0, channel=0, data=[64, 0]),
   midi.NoteOnEvent(tick=0, channel=0, data=[41, 61]),
   midi.ControlChangeEvent(tick=32, channel=0, data=[64, 127]),
   midi.ControlChangeEvent(tick=201, channel=0, data=[64, 0]),
   midi.ControlChangeEvent(tick=35, channel=0, data=[64, 127]),
   midi.NoteOnEvent(tick=212, channel=0, data=[41, 0]),
   midi.NoteOnEvent(tick=0, channel=0, data=[29, 0]),
   midi.NoteOnEvent(tick=0, channel=0, data=[28, 53]),
   midi.NoteOnEvent(tick=0, channel=0, data=[40, 61]),
   midi.ControlChangeEvent(tick=3, channel=0, data=[64, 0]),
   midi.ControlChangeEvent(tick=170, channel=0, data=[64, 127]),
   midi.NoteOnEvent(tick=1267, channel=0, data=[40, 0]),
   midi.NoteOnEvent(tick=0, channel=0, data=[28, 0]),
   midi.ControlChangeEvent(tick=2, channel=0, data=[64, 0]),
   midi.ControlChangeEvent(tick=40, channel=0, data=[64, 127]),
   midi.NoteOnEvent(tick=198, channel=0, data=[59, 53]),
   midi.NoteOnEvent(tick=120, channel=0, data=[59, 0]),
   midi.NoteOnEvent(tick=0, channel=0, data=[61, 49]),
   midi.NoteOnEvent(tick=120, channel=0, data=[61, 0]),
   midi.NoteOnEvent(tick=0, channel=0, data=[62, 54]),
   midi.ControlChangeEvent(tick=20, channel=0, data=[64, 0]),
   midi.ControlChangeEvent(tick=61, channel=0, data=[64, 127]),
   midi.NoteOnEvent(tick=279, channel=0, data=[62, 0]),
   midi.NoteOnEvent(tick=0, channel=0, data=[64, 51]),
   midi.NoteOnEvent(tick=120, channel=0, data=[64, 0]),
   midi.NoteOnEvent(tick=0, channel=0, data=[66, 54]),
   midi.ControlChangeEvent(tick=9, channel=0, data=[64, 0]),
   midi.ControlChangeEvent(tick=51, channel=0, data=[64, 127]),
   midi.NoteOnEvent(tick=300, channel=0, data=[66, 0]),
   midi.NoteOnEvent(tick=0, channel=0, data=[69, 50]),
   midi.NoteOnEvent(tick=120, channel=0, data=[69, 0]),
   midi.NoteOnEvent(tick=0, channel=0, data=[66, 54]),
   midi.ControlChangeEvent(tick=9, channel=0, data=[64, 0]),
   midi.ControlChangeEvent(tick=33, channel=0, data=[64, 127]),
   midi.NoteOnEvent(tick=38, channel=0, data=[66, 0]),
   midi.NoteOnEvent(tick=0, channel=0, data=[68, 49]),
   midi.NoteOnEvent(tick=80, channel=0, data=[68, 0]),
   midi.NoteOnEvent(tick=0, channel=0, data=[66, 50]),
   midi.NoteOnEvent(tick=80, channel=0, data=[66, 0]),
   midi.NoteOnEvent(tick=0, channel=0, data=[64, 50]),
   midi.ControlChangeEvent(tick=19, channel=0, data=[64, 0]),
   midi.ControlChangeEvent(tick=66, channel=0, data=[64, 127]),
   midi.NoteOnEvent(tick=155, channel=0, data=[64, 0]),
   midi.NoteOnEvent(tick=120, channel=0, data=[59, 42]),
   midi.ControlChangeEvent(tick=14, channel=0, data=[64, 0]),
   midi.ControlChangeEvent(tick=28, channel=0, data=[64, 127]),
   midi.NoteOnEvent(tick=78, channel=0, data=[59, 0]),
   midi.NoteOnEvent(tick=0, channel=0, data=[56, 45]),
   midi.NoteOnEvent(tick=360, channel=0, data=[56, 0]),
   midi.NoteOnEvent(tick=0, channel=0, data=[47, 42]),
   midi.NoteOnEvent(tick=120, channel=0, data=[47, 0]),
   midi.NoteOnEvent(tick=0, channel=0, data=[40, 46]),
   midi.NoteOnEvent(tick=240, channel=0, data=[40, 0]),
   midi.ControlChangeEvent(tick=3, channel=0, data=[64, 0]),
   midi.ControlChangeEvent(tick=144, channel=0, data=[64, 127]),
   midi.NoteOnEvent(tick=93, channel=0, data=[64, 52]),
   midi.NoteOnEvent(tick=240, channel=0, data=[64, 0]),
   midi.NoteOnEvent(tick=0, channel=0, data=[69, 50]),
   midi.ControlChangeEvent(tick=247, channel=0, data=[64, 0]),
   midi.ControlChangeEvent(tick=42, channel=0, data=[64, 127]),
   midi.NoteOnEvent(tick=71, channel=0, data=[69, 0]),
   midi.NoteOnEvent(tick=0, channel=0, data=[71, 50]),
   midi.NoteOnEvent(tick=120, channel=0, data=[71, 0]),
   midi.NoteOnEvent(tick=0, channel=0, data=[68, 53]),
   midi.ControlChangeEvent(tick=21, channel=0, data=[64, 0]),
   midi.ControlChangeEvent(tick=64, channel=0, data=[64, 127]),
   midi.NoteOnEvent(tick=35, channel=0, data=[68, 0]),
   midi.NoteOnEvent(tick=0, channel=0, data=[69, 50]),
   midi.NoteOnEvent(tick=120, channel=0, data=[69, 0]),
   midi.NoteOnEvent(tick=0, channel=0, data=[66, 53]),
   midi.ControlChangeEvent(tick=11, channel=0, data=[64, 0]),
   midi.ControlChangeEvent(tick=81, channel=0, data=[64, 127]),
   midi.NoteOnEvent(tick=28, channel=0, data=[66, 0]),
   midi.NoteOnEvent(tick=0, channel=0, data=[68, 50]),
   midi.NoteOnEvent(tick=120, channel=0, data=[68, 0]),
   midi.NoteOnEvent(tick=0, channel=0, data=[64, 50]),
   midi.ControlChangeEvent(tick=12, channel=0, data=[64, 0]),
   midi.NoteOnEvent(tick=48, channel=0, data=[64, 0]),
   midi.NoteOnEvent(tick=0, channel=0, data=[66, 46]),
   midi.ControlChangeEvent(tick=4, channel=0, data=[64, 127]),
   midi.NoteOnEvent(tick=56, channel=0, data=[66, 0]),
   midi.NoteOnEvent(tick=0, channel=0, data=[64, 49]),
   midi.NoteOnEvent(tick=60, channel=0, data=[64, 0]),
   midi.NoteOnEvent(tick=0, channel=0, data=[62, 43]),
   midi.NoteOnEvent(tick=60, channel=0, data=[62, 0]),
   midi.NoteOnEvent(tick=0, channel=0, data=[59, 47]),
   midi.ControlChangeEvent(tick=19, channel=0, data=[64, 0]),
   midi.ControlChangeEvent(tick=27, channel=0, data=[64, 127]),
   midi.NoteOnEvent(tick=314, channel=0, data=[59, 0]),
   midi.NoteOnEvent(tick=0, channel=0, data=[59, 42]),
   midi.ControlChangeEvent(tick=14, channel=0, data=[64, 0]),
   midi.ControlChangeEvent(tick=28, channel=0, data=[64, 127]),
   midi.NoteOnEvent(tick=78, channel=0, data=[59, 0]),
   midi.NoteOnEvent(tick=0, channel=0, data=[52, 45]),
   midi.NoteOnEvent(tick=360, channel=0, data=[52, 0]),
   midi.NoteOnEvent(tick=0, channel=0, data=[47, 42]),
   midi.NoteOnEvent(tick=120, channel=0, data=[47, 0]),
   midi.NoteOnEvent(tick=0, channel=0, data=[40, 46]),
   midi.NoteOnEvent(tick=240, channel=0, data=[40, 0]),
   midi.ControlChangeEvent(tick=16, channel=0, data=[64, 0]),
   midi.ControlChangeEvent(tick=90, channel=0, data=[64, 127]),
   midi.NoteOnEvent(tick=134, channel=0, data=[59, 53]),
   midi.NoteOnEvent(tick=120, channel=0, data=[59, 0]),
   midi.NoteOnEvent(tick=0, channel=0, data=[61, 49]),
   midi.NoteOnEvent(tick=120, channel=0, data=[61, 0]),
   midi.NoteOnEvent(tick=0, channel=0, data=[62, 54]),
   midi.ControlChangeEvent(tick=18, channel=0, data=[64, 0]),
   midi.ControlChangeEvent(tick=63, channel=0, data=[64, 127]),
   midi.NoteOnEvent(tick=279, channel=0, data=[62, 0]),
   midi.NoteOnEvent(tick=0, channel=0, data=[64, 51]),
   midi.NoteOnEvent(tick=120, channel=0, data=[64, 0]),
   midi.NoteOnEvent(tick=0, channel=0, data=[66, 54]),
   midi.ControlChangeEvent(tick=11, channel=0, data=[64, 0]),
   midi.ControlChangeEvent(tick=102, channel=0, data=[64, 127]),
   midi.NoteOnEvent(tick=247, channel=0, data=[66, 0]),
   midi.NoteOnEvent(tick=0, channel=0, data=[69, 50]),
   midi.NoteOnEvent(tick=120, channel=0, data=[69, 0]),
   midi.NoteOnEvent(tick=0, channel=0, data=[66, 54]),
   midi.ControlChangeEvent(tick=10, channel=0, data=[64, 0]),
   midi.ControlChangeEvent(tick=32, channel=0, data=[64, 127]),
   midi.NoteOnEvent(tick=38, channel=0, data=[66, 0]),
   midi.NoteOnEvent(tick=0, channel=0, data=[68, 48]),
   midi.NoteOnEvent(tick=80, channel=0, data=[68, 0]),
   midi.NoteOnEvent(tick=0, channel=0, data=[66, 50]),
   midi.NoteOnEvent(tick=80, channel=0, data=[66, 0]),
   midi.NoteOnEvent(tick=0, channel=0, data=[64, 50]),
   midi.ControlChangeEvent(tick=19, channel=0, data=[64, 0]),
   midi.ControlChangeEvent(tick=66, channel=0, data=[64, 127]),
   midi.NoteOnEvent(tick=155, channel=0, data=[64, 0]),
   midi.NoteOnEvent(tick=120, channel=0, data=[52, 42]),
   midi.ControlChangeEvent(tick=14, channel=0, data=[64, 0]),
   midi.ControlChangeEvent(tick=28, channel=0, data=[64, 127]),
   midi.NoteOnEvent(tick=78, channel=0, data=[52, 0]),
   midi.NoteOnEvent(tick=0, channel=0, data=[45, 45]),
   midi.NoteOnEvent(tick=360, channel=0, data=[45, 0]),
   midi.NoteOnEvent(tick=0, channel=0, data=[40, 42]),
   midi.NoteOnEvent(tick=120, channel=0, data=[40, 0]),
   midi.NoteOnEvent(tick=0, channel=0, data=[33, 46]),
   midi.ControlChangeEvent(tick=244, channel=0, data=[64, 0]),
   midi.ControlChangeEvent(tick=76, channel=0, data=[64, 127]),
   midi.NoteOnEvent(tick=40, channel=0, data=[33, 0]),
   midi.NoteOnEvent(tick=0, channel=0, data=[64, 48]),
   midi.NoteOnEvent(tick=120, channel=0, data=[64, 0]),
   midi.NoteOnEvent(tick=0, channel=0, data=[69, 51]),
   midi.NoteOnEvent(tick=120, channel=0, data=[69, 0]),
   midi.NoteOnEvent(tick=0, channel=0, data=[71, 54]),
   midi.NoteOnEvent(tick=120, channel=0, data=[71, 0]),
   midi.NoteOnEvent(tick=0, channel=0, data=[74, 59]),
   midi.ControlChangeEvent(tick=249, channel=0, data=[64, 0]),
   midi.ControlChangeEvent(tick=40, channel=0, data=[64, 127]),
   midi.NoteOnEvent(tick=71, channel=0, data=[74, 0]),
   midi.NoteOnEvent(tick=0, channel=0, data=[73, 52]),
   midi.NoteOnEvent(tick=120, channel=0, data=[73, 0]),
   midi.NoteOnEvent(tick=0, channel=0, data=[71, 55]),
   midi.ControlChangeEvent(tick=19, channel=0, data=[64, 0]),
   midi.ControlChangeEvent(tick=66, channel=0, data=[64, 127]),
   midi.NoteOnEvent(tick=35, channel=0, data=[71, 0]),
   midi.NoteOnEvent(tick=0, channel=0, data=[69, 52]),
   midi.NoteOnEvent(tick=120, channel=0, data=[69, 0]),
   midi.NoteOnEvent(tick=0, channel=0, data=[66, 55]),
   midi.ControlChangeEvent(tick=10, channel=0, data=[64, 0]),
   midi.ControlChangeEvent(tick=39, channel=0, data=[64, 127]),
   midi.NoteOnEvent(tick=71, channel=0, data=[66, 0]),
   midi.NoteOnEvent(tick=0, channel=0, data=[68, 52]),
   midi.NoteOnEvent(tick=120, channel=0, data=[68, 0]),
   midi.NoteOnEvent(tick=0, channel=0, data=[64, 52]),
   midi.ControlChangeEvent(tick=16, channel=0, data=[64, 0]),
   midi.NoteOnEvent(tick=44, channel=0, data=[64, 0]),
   midi.NoteOnEvent(tick=0, channel=0, data=[66, 48]),
   midi.ControlChangeEvent(tick=4, channel=0, data=[64, 127]),
   midi.NoteOnEvent(tick=56, channel=0, data=[66, 0]),
   midi.NoteOnEvent(tick=0, channel=0, data=[64, 52]),
   midi.NoteOnEvent(tick=60, channel=0, data=[64, 0]),
   midi.NoteOnEvent(tick=0, channel=0, data=[62, 48]),
   midi.NoteOnEvent(tick=60, channel=0, data=[62, 0]),
   midi.NoteOnEvent(tick=0, channel=0, data=[59, 52]),
   midi.ControlChangeEvent(tick=16, channel=0, data=[64, 0]),
   midi.ControlChangeEvent(tick=30, channel=0, data=[64, 127]),
   midi.NoteOnEvent(tick=314, channel=0, data=[59, 0]),
   midi.NoteOnEvent(tick=0, channel=0, data=[59, 42]),
   midi.ControlChangeEvent(tick=12, channel=0, data=[64, 0]),
   midi.ControlChangeEvent(tick=30, channel=0, data=[64, 127]),
   midi.NoteOnEvent(tick=78, channel=0, data=[59, 0]),
   midi.NoteOnEvent(tick=0, channel=0, data=[52, 45]),
   midi.NoteOnEvent(tick=360, channel=0, data=[52, 0]),
   midi.NoteOnEvent(tick=0, channel=0, data=[47, 42]),
   midi.NoteOnEvent(tick=120, channel=0, data=[47, 0]),
   midi.NoteOnEvent(tick=0, channel=0, data=[40, 46]),
   midi.NoteOnEvent(tick=240, channel=0, data=[40, 0]),
   midi.ControlChangeEvent(tick=8, channel=0, data=[64, 0]),
   midi.ControlChangeEvent(tick=88, channel=0, data=[64, 127]),
   midi.NoteOnEvent(tick=144, channel=0, data=[59, 53]),
   midi.NoteOnEvent(tick=120, channel=0, data=[59, 0]),
   midi.NoteOnEvent(tick=0, channel=0, data=[61, 49]),
   midi.NoteOnEvent(tick=120, channel=0, data=[61, 0]),
   midi.NoteOnEvent(tick=0, channel=0, data=[62, 54]),
   midi.ControlChangeEvent(tick=16, channel=0, data=[64, 0]),
   midi.ControlChangeEvent(tick=65, channel=0, data=[64, 127]),
   midi.NoteOnEvent(tick=279, channel=0, data=[62, 0]),
   midi.NoteOnEvent(tick=0, channel=0, data=[64, 51]),
   midi.NoteOnEvent(tick=120, channel=0, data=[64, 0]),
   midi.NoteOnEvent(tick=0, channel=0, data=[66, 54]),
   midi.ControlChangeEvent(tick=9, channel=0, data=[64, 0]),
   midi.ControlChangeEvent(tick=51, channel=0, data=[64, 127]),
   midi.NoteOnEvent(tick=300, channel=0, data=[66, 0]),
   midi.NoteOnEvent(tick=0, channel=0, data=[69, 50]),
   midi.NoteOnEvent(tick=120, channel=0, data=[69, 0]),
   midi.NoteOnEvent(tick=0, channel=0, data=[66, 54]),
   midi.ControlChangeEvent(tick=9, channel=0, data=[64, 0]),
   midi.ControlChangeEvent(tick=33, channel=0, data=[64, 127]),
   midi.NoteOnEvent(tick=38, channel=0, data=[66, 0]),
   midi.NoteOnEvent(tick=0, channel=0, data=[68, 46]),
   midi.NoteOnEvent(tick=80, channel=0, data=[68, 0]),
   midi.NoteOnEvent(tick=0, channel=0, data=[66, 50]),
   midi.NoteOnEvent(tick=80, channel=0, data=[66, 0]),
   midi.NoteOnEvent(tick=0, channel=0, data=[64, 50]),
   midi.ControlChangeEvent(tick=19, channel=0, data=[64, 0]),
   midi.ControlChangeEvent(tick=83, channel=0, data=[64, 127]),
   midi.NoteOnEvent(tick=1098, channel=0, data=[64, 0]),
   midi.NoteOnEvent(tick=0, channel=0, data=[65, 44]),
   midi.ControlChangeEvent(tick=8, channel=0, data=[64, 0]),
   midi.ControlChangeEvent(tick=34, channel=0, data=[64, 127]),
   midi.NoteOnEvent(tick=38, channel=0, data=[65, 0]),
   midi.NoteOnEvent(tick=0, channel=0, data=[67, 37]),
   midi.NoteOnEvent(tick=80, channel=0, data=[67, 0]),
   midi.NoteOnEvent(tick=0, channel=0, data=[65, 37]),
   midi.NoteOnEvent(tick=80, channel=0, data=[65, 0]),
   midi.NoteOnEvent(tick=0, channel=0, data=[64, 38]),
   midi.ControlChangeEvent(tick=13, channel=0, data=[64, 0]),
   midi.ControlChangeEvent(tick=89, channel=0, data=[64, 127]),
   midi.ControlChangeEvent(tick=1045, channel=0, data=[64, 0]),
   midi.NoteOnEvent(tick=53, channel=0, data=[64, 0]),
   midi.NoteOnEvent(tick=0, channel=0, data=[37, 69]),
   midi.ControlChangeEvent(tick=110, channel=0, data=[64, 127]),
   midi.NoteOnEvent(tick=130, channel=0, data=[37, 0]),
   midi.NoteOnEvent(tick=0, channel=0, data=[66, 60]),
   midi.NoteOnEvent(tick=0, channel=0, data=[61, 49]),
   midi.ControlChangeEvent(tick=18, channel=0, data=[64, 0]),
   midi.ControlChangeEvent(tick=35, channel=0, data=[64, 127]),
   midi.NoteOnEvent(tick=187, channel=0, data=[61, 0]),
   midi.NoteOnEvent(tick=0, channel=0, data=[66, 0]),
   midi.NoteOnEvent(tick=0, channel=0, data=[65, 45]),
   midi.NoteOnEvent(tick=0, channel=0, data=[61, 43]),
   midi.ControlChangeEvent(tick=14, channel=0, data=[64, 0]),
   midi.NoteOnEvent(tick=106, channel=0, data=[61, 0]),
   midi.NoteOnEvent(tick=0, channel=0, data=[65, 0]),
   midi.NoteOnEvent(tick=120, channel=0, data=[73, 49]),
   midi.NoteOnEvent(tick=0, channel=0, data=[78, 60]),
   midi.ControlChangeEvent(tick=20, channel=0, data=[64, 0]),
   midi.ControlChangeEvent(tick=26, channel=0, data=[64, 127]),
   midi.NoteOnEvent(tick=194, channel=0, data=[78, 0]),
   midi.NoteOnEvent(tick=0, channel=0, data=[73, 0]),
   midi.NoteOnEvent(tick=0, channel=0, data=[77, 45]),
   midi.NoteOnEvent(tick=0, channel=0, data=[73, 42]),
   midi.ControlChangeEvent(tick=14, channel=0, data=[64, 0]),
   midi.NoteOnEvent(tick=106, channel=0, data=[73, 0]),
   midi.NoteOnEvent(tick=0, channel=0, data=[77, 0]),
   midi.NoteOnEvent(tick=120, channel=0, data=[90, 60]),
   midi.NoteOnEvent(tick=0, channel=0, data=[85, 49]),
   midi.ControlChangeEvent(tick=46, channel=0, data=[64, 127]),
   midi.NoteOnEvent(tick=194, channel=0, data=[85, 0]),
   midi.NoteOnEvent(tick=0, channel=0, data=[90, 0]),
   midi.NoteOnEvent(tick=0, channel=0, data=[85, 44]),
   midi.NoteOnEvent(tick=0, channel=0, data=[89, 47]),
   midi.ControlChangeEvent(tick=14, channel=0, data=[64, 0]),
   midi.NoteOnEvent(tick=106, channel=0, data=[89, 0]),
   midi.NoteOnEvent(tick=0, channel=0, data=[85, 0]),
   midi.NoteOnEvent(tick=120, channel=0, data=[78, 63]),
   midi.NoteOnEvent(tick=0, channel=0, data=[73, 51]),
   midi.ControlChangeEvent(tick=46, channel=0, data=[64, 127]),
   midi.NoteOnEvent(tick=194, channel=0, data=[73, 0]),
   midi.NoteOnEvent(tick=0, channel=0, data=[78, 0]),
   midi.NoteOnEvent(tick=0, channel=0, data=[73, 44]),
   midi.NoteOnEvent(tick=0, channel=0, data=[77, 47]),
   midi.ControlChangeEvent(tick=14, channel=0, data=[64, 0]),
   midi.NoteOnEvent(tick=106, channel=0, data=[77, 0]),
   midi.NoteOnEvent(tick=0, channel=0, data=[73, 0]),
   midi.NoteOnEvent(tick=120, channel=0, data=[60, 55]),
   midi.NoteOnEvent(tick=0, channel=0, data=[65, 69]),
   midi.ControlChangeEvent(tick=46, channel=0, data=[64, 127]),
   midi.NoteOnEvent(tick=194, channel=0, data=[65, 0]),
   midi.NoteOnEvent(tick=0, channel=0, data=[60, 0]),
   midi.NoteOnEvent(tick=0, channel=0, data=[64, 51]),
   midi.NoteOnEvent(tick=0, channel=0, data=[60, 48]),
   midi.ControlChangeEvent(tick=14, channel=0, data=[64, 0]),
   midi.NoteOnEvent(tick=106, channel=0, data=[60, 0]),
   midi.NoteOnEvent(tick=0, channel=0, data=[64, 0]),
   midi.NoteOnEvent(tick=120, channel=0, data=[36, 58]),
   midi.NoteOnEvent(tick=0, channel=0, data=[48, 58]),
   midi.ControlChangeEvent(tick=25, channel=0, data=[64, 127]),
   midi.NoteOnEvent(tick=95, channel=0, data=[48, 0]),
   midi.NoteOnEvent(tick=0, channel=0, data=[36, 0]),
   midi.ControlChangeEvent(tick=78, channel=0, data=[64, 0]),
   midi.NoteOnEvent(tick=42, channel=0, data=[41, 64]),
   midi.NoteOnEvent(tick=0, channel=0, data=[53, 64]),
   midi.ControlChangeEvent(tick=7, channel=0, data=[64, 127]),
   midi.NoteOnEvent(tick=233, channel=0, data=[53, 0]),
   midi.NoteOnEvent(tick=0, channel=0, data=[41, 0]),
   midi.NoteOnEvent(tick=0, channel=0, data=[57, 58]),
   midi.NoteOnEvent(tick=0, channel=0, data=[60, 58]),
   midi.NoteOnEvent(tick=0, channel=0, data=[65, 58]),
   midi.ControlChangeEvent(tick=19, channel=0, data=[64, 0]),
   midi.ControlChangeEvent(tick=27, channel=0, data=[64, 127]),
   midi.NoteOnEvent(tick=194, channel=0, data=[65, 0]),
   midi.NoteOnEvent(tick=0, channel=0, data=[60, 0]),
   midi.NoteOnEvent(tick=0, channel=0, data=[57, 0]),
   midi.NoteOnEvent(tick=0, channel=0, data=[57, 58]),
   midi.NoteOnEvent(tick=0, channel=0, data=[60, 58]),
   midi.NoteOnEvent(tick=0, channel=0, data=[65, 58]),
   midi.ControlChangeEvent(tick=14, channel=0, data=[64, 0]),
   midi.ControlChangeEvent(tick=25, channel=0, data=[64, 127]),
   midi.NoteOnEvent(tick=201, channel=0, data=[65, 0]),
   midi.NoteOnEvent(tick=0, channel=0, data=[60, 0]),
   midi.NoteOnEvent(tick=0, channel=0, data=[57, 0]),
   midi.NoteOnEvent(tick=0, channel=0, data=[36, 64]),
   midi.NoteOnEvent(tick=0, channel=0, data=[48, 64]),
   midi.ControlChangeEvent(tick=42, channel=0, data=[64, 0]),
   midi.ControlChangeEvent(tick=43, channel=0, data=[64, 127]),
   midi.NoteOnEvent(tick=155, channel=0, data=[48, 0]),
   midi.NoteOnEvent(tick=0, channel=0, data=[36, 0]),
   midi.NoteOnEvent(tick=0, channel=0, data=[57, 58]),
   midi.NoteOnEvent(tick=0, channel=0, data=[60, 58]),
   midi.NoteOnEvent(tick=0, channel=0, data=[65, 58]),
   midi.ControlChangeEvent(tick=6, channel=0, data=[64, 0]),
   midi.NoteOnEvent(tick=114, channel=0, data=[65, 0]),
   midi.NoteOnEvent(tick=0, channel=0, data=[60, 0]),
   midi.NoteOnEvent(tick=0, channel=0, data=[57, 0]),
   midi.NoteOnEvent(tick=120, channel=0, data=[57, 58]),
   midi.NoteOnEvent(tick=0, channel=0, data=[60, 58]),
   midi.NoteOnEvent(tick=0, channel=0, data=[65, 58]),
   midi.NoteOnEvent(tick=120, channel=0, data=[65, 0]),
   midi.NoteOnEvent(tick=0, channel=0, data=[60, 0]),
   midi.NoteOnEvent(tick=0, channel=0, data=[57, 0]),
   midi.NoteOnEvent(tick=120, channel=0, data=[41, 64]),
   midi.NoteOnEvent(tick=0, channel=0, data=[53, 64]),
   midi.ControlChangeEvent(tick=53, channel=0, data=[64, 127]),
   midi.NoteOnEvent(tick=187, channel=0, data=[53, 0]),
   midi.NoteOnEvent(tick=0, channel=0, data=[41, 0]),
   midi.NoteOnEvent(tick=0, channel=0, data=[65, 58]),
   midi.NoteOnEvent(tick=0, channel=0, data=[57, 58]),
   midi.NoteOnEvent(tick=0, channel=0, data=[60, 58]),
   midi.ControlChangeEvent(tick=16, channel=0, data=[64, 0]),
   midi.ControlChangeEvent(tick=30, channel=0, data=[64, 127]),
   midi.NoteOnEvent(tick=194, channel=0, data=[60, 0]),
   midi.NoteOnEvent(tick=0, channel=0, data=[57, 0]),
   midi.NoteOnEvent(tick=0, channel=0, data=[65, 0]),
   midi.NoteOnEvent(tick=0, channel=0, data=[57, 58]),
   midi.NoteOnEvent(tick=0, channel=0, data=[65, 58]),
   midi.NoteOnEvent(tick=0, channel=0, data=[60, 58]),
   midi.ControlChangeEvent(tick=14, channel=0, data=[64, 0]),
   midi.ControlChangeEvent(tick=25, channel=0, data=[64, 127]),
   midi.NoteOnEvent(tick=201, channel=0, data=[60, 0]),
   midi.NoteOnEvent(tick=0, channel=0, data=[65, 0]),
   midi.NoteOnEvent(tick=0, channel=0, data=[57, 0]),
   midi.NoteOnEvent(tick=0, channel=0, data=[48, 64]),
   midi.NoteOnEvent(tick=0, channel=0, data=[36, 64]),
   midi.ControlChangeEvent(tick=42, channel=0, data=[64, 0]),
   midi.ControlChangeEvent(tick=43, channel=0, data=[64, 127]),
   midi.NoteOnEvent(tick=155, channel=0, data=[36, 0]),
   midi.NoteOnEvent(tick=0, channel=0, data=[48, 0]),
   midi.NoteOnEvent(tick=0, channel=0, data=[57, 58]),
   midi.NoteOnEvent(tick=0, channel=0, data=[65, 58]),
   midi.NoteOnEvent(tick=0, channel=0, data=[60, 58]),
   midi.ControlChangeEvent(tick=3, channel=0, data=[64, 0]),
   midi.NoteOnEvent(tick=117, channel=0, data=[60, 0]),
   midi.NoteOnEvent(tick=0, channel=0, data=[65, 0]),
   midi.NoteOnEvent(tick=0, channel=0, data=[57, 0]),
   midi.NoteOnEvent(tick=120, channel=0, data=[57, 58]),
   midi.NoteOnEvent(tick=0, channel=0, data=[65, 58]),
   midi.NoteOnEvent(tick=0, channel=0, data=[60, 58]),
   midi.NoteOnEvent(tick=120, channel=0, data=[60, 0]),
   midi.NoteOnEvent(tick=0, channel=0, data=[65, 0]),
   midi.NoteOnEvent(tick=0, channel=0, data=[57, 0]),
   midi.NoteOnEvent(tick=120, channel=0, data=[53, 58]),
   midi.ControlChangeEvent(tick=28, channel=0, data=[64, 127]),
   midi.NoteOnEvent(tick=212, channel=0, data=[53, 0]),
   midi.NoteOnEvent(tick=0, channel=0, data=[59, 59]),
   midi.ControlChangeEvent(tick=3, channel=0, data=[64, 0]),
   midi.ControlChangeEvent(tick=36, channel=0, data=[64, 127]),
   midi.NoteOnEvent(tick=81, channel=0, data=[59, 0]),
   midi.NoteOnEvent(tick=0, channel=0, data=[60, 52]),
   midi.NoteOnEvent(tick=120, channel=0, data=[60, 0]),
   midi.NoteOnEvent(tick=0, channel=0, data=[48, 51]),
   midi.ControlChangeEvent(tick=9, channel=0, data=[64, 0]),
   midi.ControlChangeEvent(tick=62, channel=0, data=[64, 127]),
   midi.NoteOnEvent(tick=109, channel=0, data=[48, 0]),
   midi.NoteOnEvent(tick=0, channel=0, data=[62, 52]),
   midi.NoteOnEvent(tick=60, channel=0, data=[62, 0]),
   midi.NoteOnEvent(tick=0, channel=0, data=[60, 59]),
   midi.ControlChangeEvent(tick=3, channel=0, data=[64, 0]),
   midi.ControlChangeEvent(tick=54, channel=0, data=[64, 127]),
   midi.NoteOnEvent(tick=63, channel=0, data=[60, 0]),
   midi.NoteOnEvent(tick=0, channel=0, data=[59, 50]),
   midi.NoteOnEvent(tick=120, channel=0, data=[59, 0]),
   midi.NoteOnEvent(tick=0, channel=0, data=[60, 58]),
   midi.ControlChangeEvent(tick=17, channel=0, data=[64, 0]),
   midi.ControlChangeEvent(tick=46, channel=0, data=[64, 127]),
   midi.NoteOnEvent(tick=57, channel=0, data=[60, 0]),
   midi.NoteOnEvent(tick=0, channel=0, data=[62, 51]),
   midi.NoteOnEvent(tick=120, channel=0, data=[62, 0]),
   midi.NoteOnEvent(tick=0, channel=0, data=[60, 49]),
   midi.ControlChangeEvent(tick=10, channel=0, data=[64, 0]),
   midi.NoteOnEvent(tick=200, channel=0, data=[60, 0]),
   midi.NoteOnEvent(tick=30, channel=0, data=[53, 58]),
   midi.ControlChangeEvent(tick=43, channel=0, data=[64, 127]),
   midi.NoteOnEvent(tick=197, channel=0, data=[53, 0]),
   midi.NoteOnEvent(tick=0, channel=0, data=[59, 58]),
   midi.ControlChangeEvent(tick=9, channel=0, data=[64, 0]),
   midi.ControlChangeEvent(tick=30, channel=0, data=[64, 127]),
   midi.NoteOnEvent(tick=81, channel=0, data=[59, 0]),
   midi.NoteOnEvent(tick=0, channel=0, data=[60, 53]),
   midi.NoteOnEvent(tick=120, channel=0, data=[60, 0]),
   midi.NoteOnEvent(tick=0, channel=0, data=[48, 51]),
   midi.ControlChangeEvent(tick=16, channel=0, data=[64, 0]),
   midi.ControlChangeEvent(tick=55, channel=0, data=[64, 127]),
   midi.NoteOnEvent(tick=109, channel=0, data=[48, 0]),
   midi.NoteOnEvent(tick=0, channel=0, data=[62, 52]),
   midi.NoteOnEvent(tick=60, channel=0, data=[62, 0]),
   midi.NoteOnEvent(tick=0, channel=0, data=[60, 59]),
   midi.ControlChangeEvent(tick=8, channel=0, data=[64, 0]),
   midi.ControlChangeEvent(tick=56, channel=0, data=[64, 127]),
   midi.NoteOnEvent(tick=56, channel=0, data=[60, 0]),
   midi.NoteOnEvent(tick=0, channel=0, data=[59, 49]),
   midi.NoteOnEvent(tick=120, channel=0, data=[59, 0]),
   midi.NoteOnEvent(tick=0, channel=0, data=[60, 58]),
   midi.ControlChangeEvent(tick=8, channel=0, data=[64, 0]),
   midi.ControlChangeEvent(tick=48, channel=0, data=[64, 127]),
   midi.NoteOnEvent(tick=64, channel=0, data=[60, 0]),
   midi.NoteOnEvent(tick=0, channel=0, data=[62, 49]),
   midi.NoteOnEvent(tick=120, channel=0, data=[62, 0]),
   midi.NoteOnEvent(tick=0, channel=0, data=[60, 49]),
   midi.ControlChangeEvent(tick=10, channel=0, data=[64, 0]),
   midi.ControlChangeEvent(tick=76, channel=0, data=[64, 127]),
   midi.NoteOnEvent(tick=124, channel=0, data=[60, 0]),
   midi.ControlChangeEvent(tick=30, channel=0, data=[64, 0]),
   midi.NoteOnEvent(tick=0, channel=0, data=[36, 55]),
   midi.NoteOnEvent(tick=120, channel=0, data=[36, 0]),
   midi.ControlChangeEvent(tick=21, channel=0, data=[64, 127]),
   midi.NoteOnEvent(tick=339, channel=0, data=[60, 36]),
   midi.NoteOnEvent(tick=120, channel=0, data=[60, 0]),
   midi.ControlChangeEvent(tick=120, channel=0, data=[64, 0]),
   midi.ControlChangeEvent(tick=35, channel=0, data=[64, 127]),
   midi.NoteOnEvent(tick=205, channel=0, data=[72, 36]),
   midi.NoteOnEvent(tick=120, channel=0, data=[72, 0]),
   midi.ControlChangeEvent(tick=125, channel=0, data=[64, 0]),
   midi.ControlChangeEvent(tick=66, channel=0, data=[64, 127]),
   midi.NoteOnEvent(tick=169, channel=0, data=[84, 36]),
   midi.NoteOnEvent(tick=120, channel=0, data=[84, 0]),
   midi.ControlChangeEvent(tick=7, channel=0, data=[64, 0]),
   midi.NoteOnEvent(tick=113, channel=0, data=[67, 36]),
   midi.NoteOnEvent(tick=0, channel=0, data=[74, 40]),
   midi.NoteOnEvent(tick=60, channel=0, data=[74, 0]),
   midi.NoteOnEvent(tick=0, channel=0, data=[67, 0]),
   midi.NoteOnEvent(tick=60, channel=0, data=[67, 36]),
   midi.NoteOnEvent(tick=0, channel=0, data=[74, 40]),
   midi.NoteOnEvent(tick=60, channel=0, data=[74, 0]),
   midi.NoteOnEvent(tick=0, channel=0, data=[67, 0]),
   midi.NoteOnEvent(tick=60, channel=0, data=[79, 44]),
   midi.NoteOnEvent(tick=120, channel=0, data=[79, 0]),
   midi.NoteOnEvent(tick=120, channel=0, data=[67, 32]),
   midi.NoteOnEvent(tick=0, channel=0, data=[74, 37]),
   midi.NoteOnEvent(tick=120, channel=0, data=[74, 0]),
   midi.NoteOnEvent(tick=0, channel=0, data=[67, 0]),
   midi.NoteOnEvent(tick=120, channel=0, data=[79, 38]),
   midi.NoteOnEvent(tick=120, channel=0, data=[79, 0]),
   midi.NoteOnEvent(tick=120, channel=0, data=[67, 32]),
   midi.NoteOnEvent(tick=0, channel=0, data=[74, 37]),
   midi.NoteOnEvent(tick=120, channel=0, data=[74, 0]),
   midi.NoteOnEvent(tick=0, channel=0, data=[67, 0]),
   midi.NoteOnEvent(tick=120, channel=0, data=[36, 52]),
   midi.ControlChangeEvent(tick=49, channel=0, data=[64, 127]),
   midi.NoteOnEvent(tick=71, channel=0, data=[36, 0]),
   midi.NoteOnEvent(tick=360, channel=0, data=[60, 37]),
   midi.NoteOnEvent(tick=120, channel=0, data=[60, 0]),
   midi.ControlChangeEvent(tick=120, channel=0, data=[64, 0]),
   midi.ControlChangeEvent(tick=71, channel=0, data=[64, 127]),
   midi.NoteOnEvent(tick=169, channel=0, data=[72, 38]),
   midi.NoteOnEvent(tick=120, channel=0, data=[72, 0]),
   midi.ControlChangeEvent(tick=132, channel=0, data=[64, 0]),
   midi.ControlChangeEvent(tick=66, channel=0, data=[64, 127]),
   midi.NoteOnEvent(tick=162, channel=0, data=[84, 38]),
   midi.ControlChangeEvent(tick=88, channel=0, data=[64, 0]),
   midi.NoteOnEvent(tick=32, channel=0, data=[84, 0]),
   midi.NoteOnEvent(tick=120, channel=0, data=[72, 36]),
   midi.NoteOnEvent(tick=0, channel=0, data=[77, 40]),
   midi.NoteOnEvent(tick=60, channel=0, data=[77, 0]),
   midi.NoteOnEvent(tick=0, channel=0, data=[72, 0]),
   midi.NoteOnEvent(tick=60, channel=0, data=[72, 36]),
   midi.NoteOnEvent(tick=0, channel=0, data=[77, 40]),
   midi.NoteOnEvent(tick=60, channel=0, data=[77, 0]),
   midi.NoteOnEvent(tick=0, channel=0, data=[72, 0]),
   midi.NoteOnEvent(tick=60, channel=0, data=[72, 44]),
   midi.NoteOnEvent(tick=0, channel=0, data=[77, 44]),
   midi.NoteOnEvent(tick=120, channel=0, data=[77, 0]),
   midi.NoteOnEvent(tick=0, channel=0, data=[72, 0]),
   midi.NoteOnEvent(tick=120, channel=0, data=[72, 36]),
   midi.NoteOnEvent(tick=0, channel=0, data=[77, 40]),
   midi.NoteOnEvent(tick=60, channel=0, data=[77, 0]),
   midi.NoteOnEvent(tick=0, channel=0, data=[72, 0]),
   midi.NoteOnEvent(tick=60, channel=0, data=[72, 36]),
   midi.NoteOnEvent(tick=0, channel=0, data=[77, 40]),
   midi.NoteOnEvent(tick=60, channel=0, data=[77, 0]),
   midi.NoteOnEvent(tick=0, channel=0, data=[72, 0]),
   midi.NoteOnEvent(tick=60, channel=0, data=[72, 44]),
   midi.NoteOnEvent(tick=0, channel=0, data=[77, 44]),
   midi.NoteOnEvent(tick=120, channel=0, data=[77, 0]),
   midi.NoteOnEvent(tick=0, channel=0, data=[72, 0]),
   midi.NoteOnEvent(tick=120, channel=0, data=[72, 32]),
   midi.NoteOnEvent(tick=0, channel=0, data=[76, 37]),
   midi.NoteOnEvent(tick=120, channel=0, data=[76, 0]),
   midi.NoteOnEvent(tick=0, channel=0, data=[72, 0]),
   midi.NoteOnEvent(tick=120, channel=0, data=[41, 66]),
   midi.NoteOnEvent(tick=0, channel=0, data=[53, 66]),
   midi.ControlChangeEvent(tick=43, channel=0, data=[64, 127]),
   midi.NoteOnEvent(tick=197, channel=0, data=[53, 0]),
   midi.NoteOnEvent(tick=0, channel=0, data=[41, 0]),
   midi.NoteOnEvent(tick=0, channel=0, data=[57, 60]),
   midi.NoteOnEvent(tick=0, channel=0, data=[60, 60]),
   midi.NoteOnEvent(tick=0, channel=0, data=[65, 60]),
   midi.ControlChangeEvent(tick=18, channel=0, data=[64, 0]),
   midi.ControlChangeEvent(tick=28, channel=0, data=[64, 127]),
   midi.NoteOnEvent(tick=194, channel=0, data=[65, 0]),
   midi.NoteOnEvent(tick=0, channel=0, data=[60, 0]),
   midi.NoteOnEvent(tick=0, channel=0, data=[57, 0]),
   midi.NoteOnEvent(tick=0, channel=0, data=[57, 60]),
   midi.NoteOnEvent(tick=0, channel=0, data=[60, 60]),
   midi.NoteOnEvent(tick=0, channel=0, data=[65, 60]),
   midi.ControlChangeEvent(tick=14, channel=0, data=[64, 0]),
   midi.ControlChangeEvent(tick=25, channel=0, data=[64, 127]),
   midi.NoteOnEvent(tick=201, channel=0, data=[65, 0]),
   midi.NoteOnEvent(tick=0, channel=0, data=[60, 0]),
   midi.NoteOnEvent(tick=0, channel=0, data=[57, 0]),
   midi.NoteOnEvent(tick=0, channel=0, data=[36, 66]),
   midi.NoteOnEvent(tick=0, channel=0, data=[48, 66]),
   midi.ControlChangeEvent(tick=42, channel=0, data=[64, 0]),
   midi.ControlChangeEvent(tick=43, channel=0, data=[64, 127]),
   midi.NoteOnEvent(tick=155, channel=0, data=[48, 0]),
   midi.NoteOnEvent(tick=0, channel=0, data=[36, 0]),
   midi.NoteOnEvent(tick=0, channel=0, data=[57, 60]),
   midi.NoteOnEvent(tick=0, channel=0, data=[60, 60]),
   midi.NoteOnEvent(tick=0, channel=0, data=[65, 60]),
   midi.ControlChangeEvent(tick=8, channel=0, data=[64, 0]),
   midi.NoteOnEvent(tick=112, channel=0, data=[65, 0]),
   midi.NoteOnEvent(tick=0, channel=0, data=[60, 0]),
   midi.NoteOnEvent(tick=0, channel=0, data=[57, 0]),
   midi.NoteOnEvent(tick=120, channel=0, data=[57, 60]),
   midi.NoteOnEvent(tick=0, channel=0, data=[60, 60]),
   midi.NoteOnEvent(tick=0, channel=0, data=[65, 60]),
   midi.NoteOnEvent(tick=120, channel=0, data=[65, 0]),
   midi.NoteOnEvent(tick=0, channel=0, data=[60, 0]),
   midi.NoteOnEvent(tick=0, channel=0, data=[57, 0]),
   midi.NoteOnEvent(tick=120, channel=0, data=[41, 66]),
   midi.NoteOnEvent(tick=0, channel=0, data=[53, 66]),
   midi.ControlChangeEvent(tick=25, channel=0, data=[64, 127]),
   midi.NoteOnEvent(tick=215, channel=0, data=[53, 0]),
   midi.NoteOnEvent(tick=0, channel=0, data=[41, 0]),
   midi.NoteOnEvent(tick=0, channel=0, data=[65, 60]),
   midi.NoteOnEvent(tick=0, channel=0, data=[57, 60]),
   midi.NoteOnEvent(tick=0, channel=0, data=[60, 60]),
   midi.ControlChangeEvent(tick=21, channel=0, data=[64, 0]),
   midi.ControlChangeEvent(tick=25, channel=0, data=[64, 127]),
   midi.NoteOnEvent(tick=194, channel=0, data=[60, 0]),
   midi.NoteOnEvent(tick=0, channel=0, data=[57, 0]),
   midi.NoteOnEvent(tick=0, channel=0, data=[65, 0]),
   midi.NoteOnEvent(tick=0, channel=0, data=[57, 60]),
   midi.NoteOnEvent(tick=0, channel=0, data=[65, 60]),
   midi.NoteOnEvent(tick=0, channel=0, data=[60, 60]),
   midi.ControlChangeEvent(tick=14, channel=0, data=[64, 0]),
   midi.ControlChangeEvent(tick=25, channel=0, data=[64, 127]),
   midi.NoteOnEvent(tick=201, channel=0, data=[60, 0]),
   midi.NoteOnEvent(tick=0, channel=0, data=[65, 0]),
   midi.NoteOnEvent(tick=0, channel=0, data=[57, 0]),
   midi.NoteOnEvent(tick=0, channel=0, data=[48, 66]),
   midi.NoteOnEvent(tick=0, channel=0, data=[36, 66]),
   midi.ControlChangeEvent(tick=12, channel=0, data=[64, 0]),
   midi.ControlChangeEvent(tick=73, channel=0, data=[64, 127]),
   midi.NoteOnEvent(tick=155, channel=0, data=[36, 0]),
   midi.NoteOnEvent(tick=0, channel=0, data=[48, 0]),
   midi.NoteOnEvent(tick=0, channel=0, data=[57, 60]),
   midi.NoteOnEvent(tick=0, channel=0, data=[65, 60]),
   midi.NoteOnEvent(tick=0, channel=0, data=[60, 60]),
   midi.ControlChangeEvent(tick=8, channel=0, data=[64, 0]),
   midi.NoteOnEvent(tick=112, channel=0, data=[60, 0]),
   midi.NoteOnEvent(tick=0, channel=0, data=[65, 0]),
   midi.NoteOnEvent(tick=0, channel=0, data=[57, 0]),
   midi.NoteOnEvent(tick=120, channel=0, data=[57, 60]),
   midi.NoteOnEvent(tick=0, channel=0, data=[65, 60]),
   midi.NoteOnEvent(tick=0, channel=0, data=[60, 60]),
   midi.NoteOnEvent(tick=120, channel=0, data=[60, 0]),
   midi.NoteOnEvent(tick=0, channel=0, data=[65, 0]),
   midi.NoteOnEvent(tick=0, channel=0, data=[57, 0]),
   midi.NoteOnEvent(tick=120, channel=0, data=[53, 60]),
   midi.ControlChangeEvent(tick=36, channel=0, data=[64, 127]),
   midi.NoteOnEvent(tick=204, channel=0, data=[53, 0]),
   midi.NoteOnEvent(tick=0, channel=0, data=[59, 61]),
   midi.ControlChangeEvent(tick=11, channel=0, data=[64, 0]),
   midi.ControlChangeEvent(tick=56, channel=0, data=[64, 127]),
   midi.NoteOnEvent(tick=53, channel=0, data=[59, 0]),
   midi.NoteOnEvent(tick=0, channel=0, data=[60, 54]),
   midi.NoteOnEvent(tick=120, channel=0, data=[60, 0]),
   midi.NoteOnEvent(tick=0, channel=0, data=[48, 53]),
   midi.ControlChangeEvent(tick=11, channel=0, data=[64, 0]),
   midi.ControlChangeEvent(tick=60, channel=0, data=[64, 127]),
   midi.NoteOnEvent(tick=109, channel=0, data=[48, 0]),
   midi.NoteOnEvent(tick=0, channel=0, data=[62, 54]),
   midi.NoteOnEvent(tick=60, channel=0, data=[62, 0]),
   midi.ControlChangeEvent(tick=0, channel=0, data=[64, 0]),
   midi.NoteOnEvent(tick=0, channel=0, data=[60, 61]),
   midi.ControlChangeEvent(tick=69, channel=0, data=[64, 127]),
   midi.NoteOnEvent(tick=51, channel=0, data=[60, 0]),
   midi.NoteOnEvent(tick=0, channel=0, data=[59, 51]),
   midi.NoteOnEvent(tick=120, channel=0, data=[59, 0]),
   midi.NoteOnEvent(tick=0, channel=0, data=[60, 60]),
   midi.ControlChangeEvent(tick=3, channel=0, data=[64, 0]),
   midi.ControlChangeEvent(tick=72, channel=0, data=[64, 127]),
   midi.NoteOnEvent(tick=45, channel=0, data=[60, 0]),
   midi.NoteOnEvent(tick=0, channel=0, data=[62, 53]),
   midi.NoteOnEvent(tick=120, channel=0, data=[62, 0]),
   midi.NoteOnEvent(tick=0, channel=0, data=[60, 50]),
   midi.ControlChangeEvent(tick=9, channel=0, data=[64, 0]),
   midi.NoteOnEvent(tick=201, channel=0, data=[60, 0]),
   midi.NoteOnEvent(tick=30, channel=0, data=[53, 60]),
   midi.ControlChangeEvent(tick=28, channel=0, data=[64, 127]),
   midi.NoteOnEvent(tick=212, channel=0, data=[53, 0]),
   midi.NoteOnEvent(tick=0, channel=0, data=[59, 64]),
   midi.ControlChangeEvent(tick=9, channel=0, data=[64, 0]),
   midi.ControlChangeEvent(tick=76, channel=0, data=[64, 127]),
   midi.NoteOnEvent(tick=35, channel=0, data=[59, 0]),
   midi.NoteOnEvent(tick=0, channel=0, data=[60, 55]),
   midi.NoteOnEvent(tick=120, channel=0, data=[60, 0]),
   midi.NoteOnEvent(tick=0, channel=0, data=[48, 53]),
   midi.ControlChangeEvent(tick=4, channel=0, data=[64, 0]),
   midi.ControlChangeEvent(tick=67, channel=0, data=[64, 127]),
   midi.NoteOnEvent(tick=109, channel=0, data=[48, 0]),
   midi.NoteOnEvent(tick=0, channel=0, data=[62, 54]),
   midi.NoteOnEvent(tick=60, channel=0, data=[62, 0]),
   midi.NoteOnEvent(tick=0, channel=0, data=[60, 61]),
   midi.ControlChangeEvent(tick=4, channel=0, data=[64, 0]),
   midi.ControlChangeEvent(tick=60, channel=0, data=[64, 127]),
   midi.NoteOnEvent(tick=56, channel=0, data=[60, 0]),
   midi.NoteOnEvent(tick=0, channel=0, data=[59, 49]),
   midi.NoteOnEvent(tick=120, channel=0, data=[59, 0]),
   midi.NoteOnEvent(tick=0, channel=0, data=[60, 60]),
   midi.ControlChangeEvent(tick=4, channel=0, data=[64, 0]),
   midi.ControlChangeEvent(tick=52, channel=0, data=[64, 127]),
   midi.NoteOnEvent(tick=64, channel=0, data=[60, 0]),
   midi.NoteOnEvent(tick=0, channel=0, data=[62, 53]),
   midi.NoteOnEvent(tick=120, channel=0, data=[62, 0]),
   midi.NoteOnEvent(tick=0, channel=0, data=[60, 50]),
   midi.ControlChangeEvent(tick=12, channel=0, data=[64, 0]),
   midi.ControlChangeEvent(tick=80, channel=0, data=[64, 127]),
   midi.NoteOnEvent(tick=118, channel=0, data=[60, 0]),
   midi.ControlChangeEvent(tick=30, channel=0, data=[64, 0]),
   midi.NoteOnEvent(tick=0, channel=0, data=[36, 98]),
   midi.ControlChangeEvent(tick=113, channel=0, data=[64, 127]),
   midi.NoteOnEvent(tick=7, channel=0, data=[36, 0]),
   midi.NoteOnEvent(tick=360, channel=0, data=[60, 62]),
   midi.NoteOnEvent(tick=120, channel=0, data=[60, 0]),
   midi.ControlChangeEvent(tick=120, channel=0, data=[64, 0]),
   midi.ControlChangeEvent(tick=56, channel=0, data=[64, 127]),
   midi.NoteOnEvent(tick=184, channel=0, data=[72, 60]),
   midi.NoteOnEvent(tick=120, channel=0, data=[72, 0]),
   midi.ControlChangeEvent(tick=134, channel=0, data=[64, 0]),
   midi.ControlChangeEvent(tick=64, channel=0, data=[64, 127]),
   midi.NoteOnEvent(tick=162, channel=0, data=[84, 61]),
   midi.ControlChangeEvent(tick=60, channel=0, data=[64, 0]),
   midi.NoteOnEvent(tick=60, channel=0, data=[84, 0]),
   midi.NoteOnEvent(tick=120, channel=0, data=[67, 54]),
   midi.NoteOnEvent(tick=0, channel=0, data=[74, 62]),
   midi.NoteOnEvent(tick=60, channel=0, data=[74, 0]),
   midi.NoteOnEvent(tick=0, channel=0, data=[67, 0]),
   midi.NoteOnEvent(tick=60, channel=0, data=[67, 54]),
   midi.NoteOnEvent(tick=0, channel=0, data=[74, 62]),
   midi.NoteOnEvent(tick=60, channel=0, data=[74, 0]),
   midi.NoteOnEvent(tick=0, channel=0, data=[67, 0]),
   midi.NoteOnEvent(tick=60, channel=0, data=[79, 67]),
   midi.NoteOnEvent(tick=120, channel=0, data=[79, 0]),
   midi.NoteOnEvent(tick=120, channel=0, data=[67, 48]),
   midi.NoteOnEvent(tick=0, channel=0, data=[74, 56]),
   midi.NoteOnEvent(tick=120, channel=0, data=[74, 0]),
   midi.NoteOnEvent(tick=0, channel=0, data=[67, 0]),
   midi.NoteOnEvent(tick=120, channel=0, data=[79, 58]),
   midi.NoteOnEvent(tick=120, channel=0, data=[79, 0]),
   midi.NoteOnEvent(tick=120, channel=0, data=[67, 48]),
   midi.NoteOnEvent(tick=0, channel=0, data=[74, 56]),
   midi.NoteOnEvent(tick=120, channel=0, data=[74, 0]),
   midi.NoteOnEvent(tick=0, channel=0, data=[67, 0]),
   midi.NoteOnEvent(tick=120, channel=0, data=[36, 98]),
   midi.ControlChangeEvent(tick=49, channel=0, data=[64, 127]),
   midi.NoteOnEvent(tick=71, channel=0, data=[36, 0]),
   midi.NoteOnEvent(tick=360, channel=0, data=[60, 59]),
   midi.NoteOnEvent(tick=120, channel=0, data=[60, 0]),
   midi.ControlChangeEvent(tick=126, channel=0, data=[64, 0]),
   midi.ControlChangeEvent(tick=86, channel=0, data=[64, 127]),
   midi.NoteOnEvent(tick=148, channel=0, data=[72, 60]),
   midi.NoteOnEvent(tick=120, channel=0, data=[72, 0]),
   midi.ControlChangeEvent(tick=132, channel=0, data=[64, 0]),
   midi.ControlChangeEvent(tick=87, channel=0, data=[64, 127]),
   midi.NoteOnEvent(tick=141, channel=0, data=[84, 59]),
   midi.ControlChangeEvent(tick=42, channel=0, data=[64, 0]),
   midi.NoteOnEvent(tick=78, channel=0, data=[84, 0]),
   midi.NoteOnEvent(tick=120, channel=0, data=[72, 54]),
   midi.NoteOnEvent(tick=0, channel=0, data=[77, 62]),
   midi.NoteOnEvent(tick=60, channel=0, data=[77, 0]),
   midi.NoteOnEvent(tick=0, channel=0, data=[72, 0]),
   midi.NoteOnEvent(tick=60, channel=0, data=[72, 54]),
   midi.NoteOnEvent(tick=0, channel=0, data=[77, 62]),
   midi.NoteOnEvent(tick=60, channel=0, data=[77, 0]),
   midi.NoteOnEvent(tick=0, channel=0, data=[72, 0]),
   midi.NoteOnEvent(tick=60, channel=0, data=[72, 67]),
   midi.NoteOnEvent(tick=0, channel=0, data=[77, 67]),
   midi.NoteOnEvent(tick=120, channel=0, data=[77, 0]),
   midi.NoteOnEvent(tick=0, channel=0, data=[72, 0]),
   midi.NoteOnEvent(tick=120, channel=0, data=[72, 54]),
   midi.NoteOnEvent(tick=0, channel=0, data=[77, 62]),
   midi.NoteOnEvent(tick=60, channel=0, data=[77, 0]),
   midi.NoteOnEvent(tick=0, channel=0, data=[72, 0]),
   midi.NoteOnEvent(tick=60, channel=0, data=[72, 54]),
   midi.NoteOnEvent(tick=0, channel=0, data=[77, 62]),
   midi.NoteOnEvent(tick=60, channel=0, data=[77, 0]),
   midi.NoteOnEvent(tick=0, channel=0, data=[72, 0]),
   midi.NoteOnEvent(tick=60, channel=0, data=[72, 67]),
   midi.NoteOnEvent(tick=0, channel=0, data=[77, 67]),
   midi.NoteOnEvent(tick=120, channel=0, data=[77, 0]),
   midi.NoteOnEvent(tick=0, channel=0, data=[72, 0]),
   midi.NoteOnEvent(tick=120, channel=0, data=[72, 48]),
   midi.NoteOnEvent(tick=0, channel=0, data=[76, 56]),
   midi.NoteOnEvent(tick=120, channel=0, data=[76, 0]),
   midi.NoteOnEvent(tick=0, channel=0, data=[72, 0]),
   midi.ControlChangeEvent(tick=120, channel=0, data=[64, 127]),
   midi.NoteOnEvent(tick=0, channel=0, data=[53, 35]),
   midi.NoteOnEvent(tick=0, channel=0, data=[60, 35]),
   midi.NoteOnEvent(tick=0, channel=0, data=[65, 35]),
   midi.NoteOnEvent(tick=240, channel=0, data=[65, 0]),
   midi.NoteOnEvent(tick=0, channel=0, data=[60, 0]),
   midi.NoteOnEvent(tick=0, channel=0, data=[53, 0]),
   midi.NoteOnEvent(tick=0, channel=0, data=[53, 32]),
   midi.NoteOnEvent(tick=0, channel=0, data=[60, 32]),
   midi.NoteOnEvent(tick=0, channel=0, data=[65, 32]),
   midi.ControlChangeEvent(tick=4, channel=0, data=[64, 0]),
   midi.ControlChangeEvent(tick=53, channel=0, data=[64, 127]),
   midi.NoteOnEvent(tick=183, channel=0, data=[65, 0]),
   midi.NoteOnEvent(tick=0, channel=0, data=[60, 0]),
   midi.NoteOnEvent(tick=0, channel=0, data=[53, 0]),
   midi.NoteOnEvent(tick=0, channel=0, data=[53, 27]),
   midi.NoteOnEvent(tick=0, channel=0, data=[60, 27]),
   midi.NoteOnEvent(tick=0, channel=0, data=[65, 27]),
   midi.NoteOnEvent(tick=240, channel=0, data=[65, 0]),
   midi.NoteOnEvent(tick=0, channel=0, data=[60, 0]),
   midi.NoteOnEvent(tick=0, channel=0, data=[53, 0]),
   midi.ControlChangeEvent(tick=0, channel=0, data=[64, 0]),
   midi.NoteOnEvent(tick=0, channel=0, data=[53, 35]),
   midi.NoteOnEvent(tick=0, channel=0, data=[61, 35]),
   midi.NoteOnEvent(tick=0, channel=0, data=[65, 35]),
   midi.ControlChangeEvent(tick=51, channel=0, data=[64, 127]),
   midi.NoteOnEvent(tick=69, channel=0, data=[65, 0]),
   midi.NoteOnEvent(tick=0, channel=0, data=[61, 0]),
   midi.NoteOnEvent(tick=0, channel=0, data=[53, 0]),
   midi.NoteOnEvent(tick=120, channel=0, data=[53, 31]),
   midi.NoteOnEvent(tick=0, channel=0, data=[61, 31]),
   midi.NoteOnEvent(tick=0, channel=0, data=[65, 31]),
   midi.ControlChangeEvent(tick=11, channel=0, data=[64, 0]),
   midi.ControlChangeEvent(tick=75, channel=0, data=[64, 127]),
   midi.NoteOnEvent(tick=34, channel=0, data=[65, 0]),
   midi.NoteOnEvent(tick=0, channel=0, data=[61, 0]),
   midi.NoteOnEvent(tick=0, channel=0, data=[53, 0]),
   midi.NoteOnEvent(tick=120, channel=0, data=[53, 28]),
   midi.NoteOnEvent(tick=0, channel=0, data=[61, 28]),
   midi.NoteOnEvent(tick=120, channel=0, data=[61, 0]),
   midi.NoteOnEvent(tick=0, channel=0, data=[53, 0]),
   midi.ControlChangeEvent(tick=120, channel=0, data=[64, 0]),
   midi.NoteOnEvent(tick=0, channel=0, data=[53, 37]),
   midi.NoteOnEvent(tick=0, channel=0, data=[62, 37]),
   midi.NoteOnEvent(tick=0, channel=0, data=[65, 37]),
   midi.ControlChangeEvent(tick=49, channel=0, data=[64, 127]),
   midi.NoteOnEvent(tick=191, channel=0, data=[65, 0]),
   midi.NoteOnEvent(tick=0, channel=0, data=[62, 0]),
   midi.NoteOnEvent(tick=0, channel=0, data=[53, 0]),
   midi.NoteOnEvent(tick=0, channel=0, data=[53, 34]),
   midi.NoteOnEvent(tick=0, channel=0, data=[62, 34]),
   midi.NoteOnEvent(tick=0, channel=0, data=[65, 34]),
   midi.ControlChangeEvent(tick=6, channel=0, data=[64, 0]),
   midi.ControlChangeEvent(tick=75, channel=0, data=[64, 127]),
   midi.NoteOnEvent(tick=159, channel=0, data=[65, 0]),
   midi.NoteOnEvent(tick=0, channel=0, data=[62, 0]),
   midi.NoteOnEvent(tick=0, channel=0, data=[53, 0]),
   midi.NoteOnEvent(tick=0, channel=0, data=[53, 30]),
   midi.NoteOnEvent(tick=0, channel=0, data=[62, 30]),
   midi.NoteOnEvent(tick=0, channel=0, data=[65, 30]),
   midi.NoteOnEvent(tick=240, channel=0, data=[65, 0]),
   midi.NoteOnEvent(tick=0, channel=0, data=[62, 0]),
   midi.NoteOnEvent(tick=0, channel=0, data=[53, 0]),
   midi.ControlChangeEvent(tick=0, channel=0, data=[64, 0]),
   midi.NoteOnEvent(tick=0, channel=0, data=[53, 40]),
   midi.NoteOnEvent(tick=0, channel=0, data=[61, 40]),
   midi.NoteOnEvent(tick=0, channel=0, data=[65, 40]),
   midi.ControlChangeEvent(tick=51, channel=0, data=[64, 127]),
   midi.NoteOnEvent(tick=69, channel=0, data=[65, 0]),
   midi.NoteOnEvent(tick=0, channel=0, data=[61, 0]),
   midi.NoteOnEvent(tick=0, channel=0, data=[53, 0]),
   midi.NoteOnEvent(tick=120, channel=0, data=[53, 36]),
   midi.NoteOnEvent(tick=0, channel=0, data=[61, 36]),
   midi.NoteOnEvent(tick=0, channel=0, data=[65, 36]),
   midi.ControlChangeEvent(tick=11, channel=0, data=[64, 0]),
   midi.ControlChangeEvent(tick=75, channel=0, data=[64, 127]),
   midi.NoteOnEvent(tick=34, channel=0, data=[65, 0]),
   midi.NoteOnEvent(tick=0, channel=0, data=[61, 0]),
   midi.NoteOnEvent(tick=0, channel=0, data=[53, 0]),
   midi.NoteOnEvent(tick=120, channel=0, data=[53, 33]),
   midi.NoteOnEvent(tick=0, channel=0, data=[61, 33]),
   midi.NoteOnEvent(tick=120, channel=0, data=[61, 0]),
   midi.NoteOnEvent(tick=0, channel=0, data=[53, 0]),
   midi.ControlChangeEvent(tick=120, channel=0, data=[64, 0]),
   midi.NoteOnEvent(tick=0, channel=0, data=[53, 42]),
   midi.NoteOnEvent(tick=0, channel=0, data=[60, 42]),
   midi.NoteOnEvent(tick=0, channel=0, data=[65, 42]),
   midi.ControlChangeEvent(tick=49, channel=0, data=[64, 127]),
   midi.NoteOnEvent(tick=191, channel=0, data=[65, 0]),
   midi.NoteOnEvent(tick=0, channel=0, data=[60, 0]),
   midi.NoteOnEvent(tick=0, channel=0, data=[53, 0]),
   midi.NoteOnEvent(tick=0, channel=0, data=[53, 39]),
   midi.NoteOnEvent(tick=0, channel=0, data=[60, 39]),
   midi.NoteOnEvent(tick=0, channel=0, data=[65, 39]),
   midi.ControlChangeEvent(tick=11, channel=0, data=[64, 0]),
   midi.ControlChangeEvent(tick=56, channel=0, data=[64, 127]),
   midi.NoteOnEvent(tick=173, channel=0, data=[65, 0]),
   midi.NoteOnEvent(tick=0, channel=0, data=[60, 0]),
   midi.NoteOnEvent(tick=0, channel=0, data=[53, 0]),
   midi.NoteOnEvent(tick=0, channel=0, data=[53, 34]),
   midi.NoteOnEvent(tick=0, channel=0, data=[60, 34]),
   midi.NoteOnEvent(tick=0, channel=0, data=[65, 34]),
   midi.NoteOnEvent(tick=240, channel=0, data=[65, 0]),
   midi.NoteOnEvent(tick=0, channel=0, data=[60, 0]),
   midi.NoteOnEvent(tick=0, channel=0, data=[53, 0]),
   midi.NoteOnEvent(tick=0, channel=0, data=[47, 45]),
   midi.ControlChangeEvent(tick=3, channel=0, data=[64, 0]),
   midi.ControlChangeEvent(tick=46, channel=0, data=[64, 127]),
   midi.NoteOnEvent(tick=191, channel=0, data=[47, 0]),
   midi.NoteOnEvent(tick=0, channel=0, data=[55, 42]),
   midi.NoteOnEvent(tick=0, channel=0, data=[59, 42]),
   midi.ControlChangeEvent(tick=10, channel=0, data=[64, 0]),
   midi.ControlChangeEvent(tick=68, channel=0, data=[64, 127]),
   midi.NoteOnEvent(tick=162, channel=0, data=[59, 0]),
   midi.NoteOnEvent(tick=0, channel=0, data=[65, 36]),
   midi.NoteOnEvent(tick=240, channel=0, data=[65, 0]),
   midi.NoteOnEvent(tick=0, channel=0, data=[55, 0]),
   midi.NoteOnEvent(tick=0, channel=0, data=[36, 63]),
   midi.ControlChangeEvent(tick=7, channel=0, data=[64, 0]),
   midi.ControlChangeEvent(tick=90, channel=0, data=[64, 127]),
   midi.NoteOnEvent(tick=143, channel=0, data=[36, 0]),
   midi.NoteOnEvent(tick=0, channel=0, data=[59, 62]),
   midi.ControlChangeEvent(tick=19, channel=0, data=[64, 0]),
   midi.ControlChangeEvent(tick=67, channel=0, data=[64, 127]),
   midi.NoteOnEvent(tick=34, channel=0, data=[59, 0]),
   midi.NoteOnEvent(tick=0, channel=0, data=[60, 57]),
   midi.NoteOnEvent(tick=120, channel=0, data=[60, 0]),
   midi.NoteOnEvent(tick=0, channel=0, data=[57, 64]),
   midi.ControlChangeEvent(tick=22, channel=0, data=[64, 0]),
   midi.ControlChangeEvent(tick=58, channel=0, data=[64, 127]),
   midi.NoteOnEvent(tick=40, channel=0, data=[57, 0]),
   midi.NoteOnEvent(tick=0, channel=0, data=[53, 57]),
   midi.NoteOnEvent(tick=120, channel=0, data=[53, 0]),
   midi.ControlChangeEvent(tick=0, channel=0, data=[64, 0]),
   midi.NoteOnEvent(tick=0, channel=0, data=[36, 82]),
   midi.ControlChangeEvent(tick=92, channel=0, data=[64, 127]),
   midi.NoteOnEvent(tick=28, channel=0, data=[36, 0]),
   midi.NoteOnEvent(tick=120, channel=0, data=[72, 78]),
   midi.ControlChangeEvent(tick=18, channel=0, data=[64, 0]),
   midi.ControlChangeEvent(tick=88, channel=0, data=[64, 127]),
   midi.NoteOnEvent(tick=14, channel=0, data=[72, 0]),
   midi.NoteOnEvent(tick=120, channel=0, data=[60, 79]),
   midi.ControlChangeEvent(tick=14, channel=0, data=[64, 0]),
   midi.ControlChangeEvent(tick=57, channel=0, data=[64, 127]),
   midi.NoteOnEvent(tick=49, channel=0, data=[60, 0]),
   midi.NoteOnEvent(tick=120, channel=0, data=[53, 35]),
   midi.NoteOnEvent(tick=0, channel=0, data=[60, 35]),
   midi.NoteOnEvent(tick=0, channel=0, data=[65, 35]),
   midi.ControlChangeEvent(tick=4, channel=0, data=[64, 0]),
   midi.ControlChangeEvent(tick=70, channel=0, data=[64, 127]),
   midi.NoteOnEvent(tick=166, channel=0, data=[65, 0]),
   midi.NoteOnEvent(tick=0, channel=0, data=[60, 0]),
   midi.NoteOnEvent(tick=0, channel=0, data=[53, 0]),
   midi.NoteOnEvent(tick=0, channel=0, data=[53, 32]),
   midi.NoteOnEvent(tick=0, channel=0, data=[60, 32]),
   midi.NoteOnEvent(tick=0, channel=0, data=[65, 32]),
   midi.ControlChangeEvent(tick=21, channel=0, data=[64, 0]),
   midi.ControlChangeEvent(tick=46, channel=0, data=[64, 127]),
   midi.NoteOnEvent(tick=173, channel=0, data=[65, 0]),
   midi.NoteOnEvent(tick=0, channel=0, data=[60, 0]),
   midi.NoteOnEvent(tick=0, channel=0, data=[53, 0]),
   midi.NoteOnEvent(tick=0, channel=0, data=[53, 27]),
   midi.NoteOnEvent(tick=0, channel=0, data=[60, 27]),
   midi.NoteOnEvent(tick=0, channel=0, data=[65, 27]),
   midi.NoteOnEvent(tick=240, channel=0, data=[65, 0]),
   midi.NoteOnEvent(tick=0, channel=0, data=[60, 0]),
   midi.NoteOnEvent(tick=0, channel=0, data=[53, 0]),
   midi.ControlChangeEvent(tick=0, channel=0, data=[64, 0]),
   midi.NoteOnEvent(tick=0, channel=0, data=[53, 35]),
   midi.NoteOnEvent(tick=0, channel=0, data=[61, 35]),
   midi.NoteOnEvent(tick=0, channel=0, data=[65, 35]),
   midi.ControlChangeEvent(tick=51, channel=0, data=[64, 127]),
   midi.NoteOnEvent(tick=69, channel=0, data=[65, 0]),
   midi.NoteOnEvent(tick=0, channel=0, data=[61, 0]),
   midi.NoteOnEvent(tick=0, channel=0, data=[53, 0]),
   midi.NoteOnEvent(tick=120, channel=0, data=[53, 31]),
   midi.NoteOnEvent(tick=0, channel=0, data=[61, 31]),
   midi.NoteOnEvent(tick=0, channel=0, data=[65, 31]),
   midi.ControlChangeEvent(tick=11, channel=0, data=[64, 0]),
   midi.ControlChangeEvent(tick=75, channel=0, data=[64, 127]),
   midi.NoteOnEvent(tick=34, channel=0, data=[65, 0]),
   midi.NoteOnEvent(tick=0, channel=0, data=[61, 0]),
   midi.NoteOnEvent(tick=0, channel=0, data=[53, 0]),
   midi.NoteOnEvent(tick=120, channel=0, data=[53, 28]),
   midi.NoteOnEvent(tick=0, channel=0, data=[61, 28]),
   midi.NoteOnEvent(tick=120, channel=0, data=[61, 0]),
   midi.NoteOnEvent(tick=0, channel=0, data=[53, 0]),
   midi.NoteOnEvent(tick=120, channel=0, data=[53, 37]),
   midi.NoteOnEvent(tick=0, channel=0, data=[62, 37]),
   midi.NoteOnEvent(tick=0, channel=0, data=[65, 37]),
   midi.ControlChangeEvent(tick=5, channel=0, data=[64, 0]),
   midi.ControlChangeEvent(tick=44, channel=0, data=[64, 127]),
   midi.NoteOnEvent(tick=191, channel=0, data=[65, 0]),
   midi.NoteOnEvent(tick=0, channel=0, data=[62, 0]),
   midi.NoteOnEvent(tick=0, channel=0, data=[53, 0]),
   midi.NoteOnEvent(tick=0, channel=0, data=[53, 34]),
   midi.NoteOnEvent(tick=0, channel=0, data=[62, 34]),
   midi.NoteOnEvent(tick=0, channel=0, data=[65, 34]),
   midi.ControlChangeEvent(tick=6, channel=0, data=[64, 0]),
   midi.ControlChangeEvent(tick=58, channel=0, data=[64, 127]),
   midi.NoteOnEvent(tick=176, channel=0, data=[65, 0]),
   midi.NoteOnEvent(tick=0, channel=0, data=[62, 0]),
   midi.NoteOnEvent(tick=0, channel=0, data=[53, 0]),
   midi.NoteOnEvent(tick=0, channel=0, data=[53, 30]),
   midi.NoteOnEvent(tick=0, channel=0, data=[62, 30]),
   midi.NoteOnEvent(tick=0, channel=0, data=[65, 30]),
   midi.NoteOnEvent(tick=240, channel=0, data=[65, 0]),
   midi.NoteOnEvent(tick=0, channel=0, data=[62, 0]),
   midi.NoteOnEvent(tick=0, channel=0, data=[53, 0]),
   midi.NoteOnEvent(tick=0, channel=0, data=[53, 40]),
   midi.NoteOnEvent(tick=0, channel=0, data=[61, 40]),
   midi.NoteOnEvent(tick=0, channel=0, data=[65, 40]),
   midi.ControlChangeEvent(tick=3, channel=0, data=[64, 0]),
   midi.ControlChangeEvent(tick=48, channel=0, data=[64, 127]),
   midi.NoteOnEvent(tick=69, channel=0, data=[65, 0]),
   midi.NoteOnEvent(tick=0, channel=0, data=[61, 0]),
   midi.NoteOnEvent(tick=0, channel=0, data=[53, 0]),
   midi.NoteOnEvent(tick=120, channel=0, data=[53, 36]),
   midi.NoteOnEvent(tick=0, channel=0, data=[61, 36]),
   midi.NoteOnEvent(tick=0, channel=0, data=[65, 36]),
   midi.ControlChangeEvent(tick=11, channel=0, data=[64, 0]),
   midi.ControlChangeEvent(tick=75, channel=0, data=[64, 127]),
   midi.NoteOnEvent(tick=34, channel=0, data=[65, 0]),
   midi.NoteOnEvent(tick=0, channel=0, data=[61, 0]),
   midi.NoteOnEvent(tick=0, channel=0, data=[53, 0]),
   midi.NoteOnEvent(tick=120, channel=0, data=[53, 33]),
   midi.NoteOnEvent(tick=0, channel=0, data=[61, 33]),
   midi.NoteOnEvent(tick=120, channel=0, data=[61, 0]),
   midi.NoteOnEvent(tick=0, channel=0, data=[53, 0]),
   midi.NoteOnEvent(tick=120, channel=0, data=[53, 42]),
   midi.NoteOnEvent(tick=0, channel=0, data=[60, 42]),
   midi.NoteOnEvent(tick=0, channel=0, data=[65, 42]),
   midi.ControlChangeEvent(tick=6, channel=0, data=[64, 0]),
   midi.ControlChangeEvent(tick=43, channel=0, data=[64, 127]),
   midi.NoteOnEvent(tick=191, channel=0, data=[65, 0]),
   midi.NoteOnEvent(tick=0, channel=0, data=[60, 0]),
   midi.NoteOnEvent(tick=0, channel=0, data=[53, 0]),
   midi.NoteOnEvent(tick=0, channel=0, data=[53, 39]),
   midi.NoteOnEvent(tick=0, channel=0, data=[60, 39]),
   midi.NoteOnEvent(tick=0, channel=0, data=[65, 39]),
   midi.ControlChangeEvent(tick=7, channel=0, data=[64, 0]),
   midi.ControlChangeEvent(tick=67, channel=0, data=[64, 127]),
   midi.NoteOnEvent(tick=166, channel=0, data=[65, 0]),
   midi.NoteOnEvent(tick=0, channel=0, data=[60, 0]),
   midi.NoteOnEvent(tick=0, channel=0, data=[53, 0]),
   midi.NoteOnEvent(tick=0, channel=0, data=[53, 34]),
   midi.NoteOnEvent(tick=0, channel=0, data=[60, 34]),
   midi.NoteOnEvent(tick=0, channel=0, data=[65, 34]),
   midi.NoteOnEvent(tick=240, channel=0, data=[65, 0]),
   midi.NoteOnEvent(tick=0, channel=0, data=[60, 0]),
   midi.NoteOnEvent(tick=0, channel=0, data=[53, 0]),
   midi.NoteOnEvent(tick=0, channel=0, data=[47, 45]),
   midi.ControlChangeEvent(tick=9, channel=0, data=[64, 0]),
   midi.ControlChangeEvent(tick=40, channel=0, data=[64, 127]),
   midi.NoteOnEvent(tick=191, channel=0, data=[47, 0]),
   midi.NoteOnEvent(tick=0, channel=0, data=[55, 42]),
   midi.NoteOnEvent(tick=0, channel=0, data=[59, 42]),
   midi.ControlChangeEvent(tick=20, channel=0, data=[64, 0]),
   midi.ControlChangeEvent(tick=93, channel=0, data=[64, 127]),
   midi.NoteOnEvent(tick=127, channel=0, data=[59, 0]),
   midi.NoteOnEvent(tick=0, channel=0, data=[65, 36]),
   midi.NoteOnEvent(tick=240, channel=0, data=[65, 0]),
   midi.NoteOnEvent(tick=0, channel=0, data=[55, 0]),
   midi.NoteOnEvent(tick=0, channel=0, data=[36, 63]),
   midi.ControlChangeEvent(tick=8, channel=0, data=[64, 0]),
   midi.ControlChangeEvent(tick=72, channel=0, data=[64, 127]),
   midi.NoteOnEvent(tick=160, channel=0, data=[36, 0]),
   midi.NoteOnEvent(tick=0, channel=0, data=[59, 62]),
   midi.ControlChangeEvent(tick=18, channel=0, data=[64, 0]),
   midi.ControlChangeEvent(tick=45, channel=0, data=[64, 127]),
   midi.NoteOnEvent(tick=57, channel=0, data=[59, 0]),
   midi.NoteOnEvent(tick=0, channel=0, data=[60, 57]),
   midi.NoteOnEvent(tick=120, channel=0, data=[60, 0]),
   midi.NoteOnEvent(tick=0, channel=0, data=[57, 64]),
   midi.ControlChangeEvent(tick=20, channel=0, data=[64, 0]),
   midi.ControlChangeEvent(tick=60, channel=0, data=[64, 127]),
   midi.NoteOnEvent(tick=40, channel=0, data=[57, 0]),
   midi.NoteOnEvent(tick=0, channel=0, data=[53, 57]),
   midi.NoteOnEvent(tick=120, channel=0, data=[53, 0]),
   midi.NoteOnEvent(tick=0, channel=0, data=[36, 82]),
   midi.ControlChangeEvent(tick=2, channel=0, data=[64, 0]),
   midi.ControlChangeEvent(tick=90, channel=0, data=[64, 127]),
   midi.NoteOnEvent(tick=28, channel=0, data=[36, 0]),
   midi.NoteOnEvent(tick=120, channel=0, data=[72, 78]),
   midi.ControlChangeEvent(tick=21, channel=0, data=[64, 0]),
   midi.ControlChangeEvent(tick=85, channel=0, data=[64, 127]),
   midi.NoteOnEvent(tick=14, channel=0, data=[72, 0]),
   midi.NoteOnEvent(tick=120, channel=0, data=[60, 79]),
   midi.ControlChangeEvent(tick=14, channel=0, data=[64, 0]),
   midi.NoteOnEvent(tick=106, channel=0, data=[60, 0]),
   midi.ControlChangeEvent(tick=21, channel=0, data=[64, 127]),
   midi.ControlChangeEvent(tick=99, channel=0, data=[64, 0]),
   midi.NoteOnEvent(tick=0, channel=0, data=[41, 107]),
   midi.NoteOnEvent(tick=120, channel=0, data=[41, 0]),
   midi.ControlChangeEvent(tick=0, channel=0, data=[64, 127]),
   midi.NoteOnEvent(tick=360, channel=0, data=[59, 70]),
   midi.NoteOnEvent(tick=120, channel=0, data=[59, 0]),
   midi.ControlChangeEvent(tick=143, channel=0, data=[64, 0]),
   midi.ControlChangeEvent(tick=34, channel=0, data=[64, 127]),
   midi.NoteOnEvent(tick=183, channel=0, data=[71, 70]),
   midi.NoteOnEvent(tick=120, channel=0, data=[71, 0]),
   midi.ControlChangeEvent(tick=130, channel=0, data=[64, 0]),
   midi.ControlChangeEvent(tick=65, channel=0, data=[64, 127]),
   midi.NoteOnEvent(tick=165, channel=0, data=[83, 69]),
   midi.ControlChangeEvent(tick=109, channel=0, data=[64, 0]),
   midi.NoteOnEvent(tick=11, channel=0, data=[83, 0]),
   midi.NoteOnEvent(tick=120, channel=0, data=[65, 54]),
   midi.NoteOnEvent(tick=0, channel=0, data=[73, 60]),
   midi.ControlChangeEvent(tick=40, channel=0, data=[64, 127]),
   midi.NoteOnEvent(tick=20, channel=0, data=[73, 0]),
   midi.NoteOnEvent(tick=0, channel=0, data=[65, 0]),
   midi.NoteOnEvent(tick=60, channel=0, data=[65, 54]),
   midi.NoteOnEvent(tick=0, channel=0, data=[73, 60]),
   midi.NoteOnEvent(tick=60, channel=0, data=[73, 0]),
   midi.NoteOnEvent(tick=0, channel=0, data=[65, 0]),
   midi.NoteOnEvent(tick=60, channel=0, data=[73, 65]),
   midi.NoteOnEvent(tick=0, channel=0, data=[79, 65]),
   midi.NoteOnEvent(tick=120, channel=0, data=[79, 0]),
   midi.NoteOnEvent(tick=0, channel=0, data=[73, 0]),
   midi.NoteOnEvent(tick=120, channel=0, data=[65, 47]),
   midi.NoteOnEvent(tick=0, channel=0, data=[73, 55]),
   midi.NoteOnEvent(tick=120, channel=0, data=[73, 0]),
   midi.NoteOnEvent(tick=0, channel=0, data=[65, 0]),
   midi.NoteOnEvent(tick=120, channel=0, data=[73, 56]),
   midi.NoteOnEvent(tick=0, channel=0, data=[79, 56]),
   midi.NoteOnEvent(tick=120, channel=0, data=[79, 0]),
   midi.NoteOnEvent(tick=0, channel=0, data=[73, 0]),
   midi.NoteOnEvent(tick=120, channel=0, data=[65, 47]),
   midi.NoteOnEvent(tick=0, channel=0, data=[73, 55]),
   midi.ControlChangeEvent(tick=109, channel=0, data=[64, 0]),
   midi.NoteOnEvent(tick=11, channel=0, data=[73, 0]),
   midi.NoteOnEvent(tick=0, channel=0, data=[65, 0]),
   midi.NoteOnEvent(tick=120, channel=0, data=[41, 107]),
   midi.ControlChangeEvent(tick=49, channel=0, data=[64, 127]),
   midi.NoteOnEvent(tick=71, channel=0, data=[41, 0]),
   midi.NoteOnEvent(tick=360, channel=0, data=[59, 68]),
   midi.NoteOnEvent(tick=120, channel=0, data=[59, 0]),
   midi.ControlChangeEvent(tick=124, channel=0, data=[64, 0]),
   midi.ControlChangeEvent(tick=36, channel=0, data=[64, 127]),
   midi.NoteOnEvent(tick=200, channel=0, data=[71, 68]),
   midi.NoteOnEvent(tick=120, channel=0, data=[71, 0]),
   midi.ControlChangeEvent(tick=129, channel=0, data=[64, 0]),
   midi.ControlChangeEvent(tick=77, channel=0, data=[64, 127]),
   midi.NoteOnEvent(tick=154, channel=0, data=[83, 69]),
   midi.ControlChangeEvent(tick=80, channel=0, data=[64, 0]),
   midi.NoteOnEvent(tick=40, channel=0, data=[83, 0]),
   midi.NoteOnEvent(tick=120, channel=0, data=[65, 60]),
   midi.NoteOnEvent(tick=0, channel=0, data=[73, 67]),
   midi.ControlChangeEvent(tick=32, channel=0, data=[64, 127]),
   midi.NoteOnEvent(tick=28, channel=0, data=[73, 0]),
   midi.NoteOnEvent(tick=0, channel=0, data=[65, 0]),
   midi.NoteOnEvent(tick=60, channel=0, data=[65, 54]),
   midi.NoteOnEvent(tick=0, channel=0, data=[73, 60]),
   midi.NoteOnEvent(tick=60, channel=0, data=[73, 0]),
   midi.NoteOnEvent(tick=0, channel=0, data=[65, 0]),
   midi.NoteOnEvent(tick=60, channel=0, data=[73, 65]),
   midi.NoteOnEvent(tick=0, channel=0, data=[79, 65]),
   midi.NoteOnEvent(tick=120, channel=0, data=[79, 0]),
   midi.NoteOnEvent(tick=0, channel=0, data=[73, 0]),
   midi.NoteOnEvent(tick=120, channel=0, data=[65, 47]),
   midi.NoteOnEvent(tick=0, channel=0, data=[73, 55]),
   midi.NoteOnEvent(tick=120, channel=0, data=[73, 0]),
   midi.NoteOnEvent(tick=0, channel=0, data=[65, 0]),
   midi.NoteOnEvent(tick=120, channel=0, data=[73, 56]),
   midi.NoteOnEvent(tick=0, channel=0, data=[79, 56]),
   midi.NoteOnEvent(tick=120, channel=0, data=[79, 0]),
   midi.NoteOnEvent(tick=0, channel=0, data=[73, 0]),
   midi.NoteOnEvent(tick=120, channel=0, data=[65, 47]),
   midi.NoteOnEvent(tick=0, channel=0, data=[73, 55]),
   midi.NoteOnEvent(tick=120, channel=0, data=[73, 0]),
   midi.NoteOnEvent(tick=0, channel=0, data=[65, 0]),
   midi.ControlChangeEvent(tick=120, channel=0, data=[64, 0]),
   midi.NoteOnEvent(tick=0, channel=0, data=[41, 69]),
   midi.NoteOnEvent(tick=0, channel=0, data=[48, 69]),
   midi.NoteOnEvent(tick=0, channel=0, data=[57, 69]),
   midi.ControlChangeEvent(tick=32, channel=0, data=[64, 127]),
   midi.ControlChangeEvent(tick=74, channel=0, data=[64, 0]),
   midi.NoteOnEvent(tick=14, channel=0, data=[57, 0]),
   midi.NoteOnEvent(tick=0, channel=0, data=[48, 0]),
   midi.NoteOnEvent(tick=0, channel=0, data=[41, 0]),
   midi.ControlChangeEvent(tick=50, channel=0, data=[64, 127]),
   midi.NoteOnEvent(tick=430, channel=0, data=[84, 63]),
   midi.NoteOnEvent(tick=120, channel=0, data=[84, 0]),
   midi.ControlChangeEvent(tick=0, channel=0, data=[64, 0]),
   midi.NoteOnEvent(tick=0, channel=0, data=[81, 68]),
   midi.ControlChangeEvent(tick=32, channel=0, data=[64, 127]),
   midi.ControlChangeEvent(tick=46, channel=0, data=[64, 0]),
   midi.ControlChangeEvent(tick=88, channel=0, data=[64, 127]),
   midi.NoteOnEvent(tick=74, channel=0, data=[81, 0]),
   midi.NoteOnEvent(tick=360, channel=0, data=[72, 63]),
   midi.NoteOnEvent(tick=120, channel=0, data=[72, 0]),
   midi.NoteOnEvent(tick=0, channel=0, data=[69, 68]),
   midi.ControlChangeEvent(tick=13, channel=0, data=[64, 0]),
   midi.ControlChangeEvent(tick=33, channel=0, data=[64, 127]),
   midi.ControlChangeEvent(tick=70, channel=0, data=[64, 0]),
   midi.ControlChangeEvent(tick=40, channel=0, data=[64, 127]),
   midi.NoteOnEvent(tick=84, channel=0, data=[69, 0]),
   midi.NoteOnEvent(tick=360, channel=0, data=[60, 63]),
   midi.NoteOnEvent(tick=120, channel=0, data=[60, 0]),
   midi.ControlChangeEvent(tick=0, channel=0, data=[64, 0]),
   midi.NoteOnEvent(tick=0, channel=0, data=[57, 68]),
   midi.ControlChangeEvent(tick=46, channel=0, data=[64, 127]),
   midi.ControlChangeEvent(tick=49, channel=0, data=[64, 0]),
   midi.NoteOnEvent(tick=25, channel=0, data=[57, 0]),
   midi.ControlChangeEvent(tick=50, channel=0, data=[64, 127]),
   midi.NoteOnEvent(tick=430, channel=0, data=[45, 63]),
   midi.NoteOnEvent(tick=120, channel=0, data=[45, 0]),
   midi.NoteOnEvent(tick=0, channel=0, data=[41, 76]),
   midi.ControlChangeEvent(tick=4, channel=0, data=[64, 0]),
   midi.ControlChangeEvent(tick=63, channel=0, data=[64, 127]),
   midi.ControlChangeEvent(tick=530, channel=0, data=[64, 0]),
   midi.NoteOnEvent(tick=33, channel=0, data=[46, 57]),
   midi.NoteOnEvent(tick=15, channel=0, data=[53, 57]),
   midi.ControlChangeEvent(tick=15, channel=0, data=[64, 127]),
   midi.NoteOnEvent(tick=0, channel=0, data=[61, 57]),
   midi.NoteOnEvent(tick=60, channel=0, data=[41, 0]),
   midi.NoteOnEvent(tick=720, channel=0, data=[46, 0]),
   midi.NoteOnEvent(tick=0, channel=0, data=[53, 0]),
   midi.NoteOnEvent(tick=0, channel=0, data=[61, 0]),
   midi.ControlChangeEvent(tick=0, channel=0, data=[64, 0]),
   midi.NoteOnEvent(tick=0, channel=0, data=[41, 71]),
   midi.NoteOnEvent(tick=0, channel=0, data=[48, 71]),
   midi.NoteOnEvent(tick=0, channel=0, data=[57, 84]),
   midi.ControlChangeEvent(tick=147, channel=0, data=[64, 127]),
   midi.NoteOnEvent(tick=573, channel=0, data=[57, 0]),
   midi.NoteOnEvent(tick=0, channel=0, data=[48, 0]),
   midi.NoteOnEvent(tick=0, channel=0, data=[41, 0]),
   midi.ControlChangeEvent(tick=0, channel=0, data=[64, 0]),
   midi.NoteOnEvent(tick=240, channel=0, data=[65, 74]),
   midi.NoteOnEvent(tick=0, channel=0, data=[72, 74]),
   midi.NoteOnEvent(tick=0, channel=0, data=[77, 74]),
   midi.NoteOnEvent(tick=120, channel=0, data=[77, 0]),
   midi.NoteOnEvent(tick=0, channel=0, data=[72, 0]),
   midi.NoteOnEvent(tick=0, channel=0, data=[65, 0]),
   midi.ControlChangeEvent(tick=106, channel=0, data=[64, 127]),
   midi.NoteOnEvent(tick=14, channel=0, data=[29, 74]),
   midi.NoteOnEvent(tick=0, channel=0, data=[41, 88]),
   midi.NoteOnEvent(tick=240, channel=0, data=[41, 0]),
   midi.NoteOnEvent(tick=0, channel=0, data=[29, 0]),
   midi.ControlChangeEvent(tick=1334, channel=0, data=[64, 0]),
   midi.EndOfTrackEvent(tick=0, data=[])])])
midi.write_midifile("creationMidi.mid", pattern)