import midi
pattern=midi.Pattern(format=1, resolution=480, tracks=\
[midi.Track(\
[   midi.ControlChangeEvent(tick=0, channel=0, data=[7, 100]),
   midi.ControlChangeEvent(tick=0, channel=0, data=[10, 64]),
   midi.ControlChangeEvent(tick=0, channel=0, data=[91, 127]),
   midi.ControlChangeEvent(tick=0, channel=0, data=[91, 127]),
   midi.NoteOnEvent(tick=2, channel=0, data=[72, 96]),
   midi.NoteOnEvent(tick=118, channel=0, data=[63, 80]),
   midi.NoteOnEvent(tick=22, channel=0, data=[72, 0]),
   midi.NoteOnEvent(tick=97, channel=0, data=[62, 77]),
   midi.NoteOnEvent(tick=21, channel=0, data=[63, 0]),
   midi.NoteOnEvent(tick=99, channel=0, data=[63, 77]),
   midi.NoteOnEvent(tick=20, channel=0, data=[62, 0]),
   midi.NoteOnEvent(tick=103, channel=0, data=[60, 80]),
   midi.NoteOnEvent(tick=17, channel=0, data=[63, 0]),
   midi.NoteOnEvent(tick=102, channel=0, data=[63, 76]),
   midi.NoteOnEvent(tick=21, channel=0, data=[60, 0]),
   midi.NoteOnEvent(tick=99, channel=0, data=[62, 76]),
   midi.NoteOnEvent(tick=20, channel=0, data=[63, 0]),
   midi.NoteOnEvent(tick=97, channel=0, data=[63, 76]),
   midi.NoteOnEvent(tick=23, channel=0, data=[62, 0]),
   midi.NoteOnEvent(tick=97, channel=0, data=[63, 0]),
   midi.NoteOnEvent(tick=4, channel=0, data=[72, 96]),
   midi.NoteOnEvent(tick=119, channel=0, data=[63, 80]),
   midi.NoteOnEvent(tick=21, channel=0, data=[72, 0]),
   midi.NoteOnEvent(tick=98, channel=0, data=[62, 78]),
   midi.NoteOnEvent(tick=21, channel=0, data=[63, 0]),
   midi.NoteOnEvent(tick=97, channel=0, data=[63, 78]),
   midi.NoteOnEvent(tick=22, channel=0, data=[62, 0]),
   midi.NoteOnEvent(tick=97, channel=0, data=[60, 80]),
   midi.NoteOnEvent(tick=21, channel=0, data=[63, 0]),
   midi.NoteOnEvent(tick=99, channel=0, data=[63, 78]),
   midi.NoteOnEvent(tick=20, channel=0, data=[60, 0]),
   midi.NoteOnEvent(tick=102, channel=0, data=[62, 77]),
   midi.NoteOnEvent(tick=18, channel=0, data=[63, 0]),
   midi.NoteOnEvent(tick=100, channel=0, data=[63, 77]),
   midi.NoteOnEvent(tick=22, channel=0, data=[62, 0]),
   midi.NoteOnEvent(tick=98, channel=0, data=[63, 0]),
   midi.NoteOnEvent(tick=0, channel=0, data=[68, 96]),
   midi.NoteOnEvent(tick=125, channel=0, data=[65, 80]),
   midi.NoteOnEvent(tick=15, channel=0, data=[68, 0]),
   midi.NoteOnEvent(tick=102, channel=0, data=[64, 76]),
   midi.NoteOnEvent(tick=23, channel=0, data=[65, 0]),
   midi.NoteOnEvent(tick=95, channel=0, data=[65, 76]),
   midi.NoteOnEvent(tick=22, channel=0, data=[64, 0]),
   midi.NoteOnEvent(tick=98, channel=0, data=[60, 80]),
   midi.NoteOnEvent(tick=20, channel=0, data=[65, 0]),
   midi.NoteOnEvent(tick=100, channel=0, data=[65, 76]),
   midi.NoteOnEvent(tick=20, channel=0, data=[60, 0]),
   midi.NoteOnEvent(tick=102, channel=0, data=[64, 76]),
   midi.NoteOnEvent(tick=18, channel=0, data=[65, 0]),
   midi.NoteOnEvent(tick=103, channel=0, data=[65, 76]),
   midi.NoteOnEvent(tick=19, channel=0, data=[64, 0]),
   midi.NoteOnEvent(tick=101, channel=0, data=[65, 0]),
   midi.NoteOnEvent(tick=0, channel=0, data=[68, 96]),
   midi.NoteOnEvent(tick=120, channel=0, data=[65, 80]),
   midi.NoteOnEvent(tick=20, channel=0, data=[68, 0]),
   midi.NoteOnEvent(tick=100, channel=0, data=[64, 77]),
   midi.NoteOnEvent(tick=20, channel=0, data=[65, 0]),
   midi.NoteOnEvent(tick=97, channel=0, data=[65, 77]),
   midi.NoteOnEvent(tick=23, channel=0, data=[64, 0]),
   midi.NoteOnEvent(tick=100, channel=0, data=[60, 80]),
   midi.NoteOnEvent(tick=17, channel=0, data=[65, 0]),
   midi.NoteOnEvent(tick=102, channel=0, data=[65, 76]),
   midi.NoteOnEvent(tick=21, channel=0, data=[60, 0]),
   midi.NoteOnEvent(tick=99, channel=0, data=[64, 76]),
   midi.NoteOnEvent(tick=20, channel=0, data=[65, 0]),
   midi.NoteOnEvent(tick=98, channel=0, data=[65, 76]),
   midi.NoteOnEvent(tick=22, channel=0, data=[64, 0]),
   midi.NoteOnEvent(tick=98, channel=0, data=[65, 0]),
   midi.NoteOnEvent(tick=3, channel=0, data=[71, 96]),
   midi.NoteOnEvent(tick=121, channel=0, data=[65, 80]),
   midi.NoteOnEvent(tick=19, channel=0, data=[71, 0]),
   midi.NoteOnEvent(tick=101, channel=0, data=[63, 76]),
   midi.NoteOnEvent(tick=20, channel=0, data=[65, 0]),
   midi.NoteOnEvent(tick=99, channel=0, data=[65, 75]),
   midi.NoteOnEvent(tick=21, channel=0, data=[63, 0]),
   midi.NoteOnEvent(tick=97, channel=0, data=[62, 80]),
   midi.NoteOnEvent(tick=22, channel=0, data=[65, 0]),
   midi.NoteOnEvent(tick=102, channel=0, data=[65, 76]),
   midi.NoteOnEvent(tick=16, channel=0, data=[62, 0]),
   midi.NoteOnEvent(tick=103, channel=0, data=[63, 76]),
   midi.NoteOnEvent(tick=21, channel=0, data=[65, 0]),
   midi.NoteOnEvent(tick=100, channel=0, data=[65, 76]),
   midi.NoteOnEvent(tick=19, channel=0, data=[63, 0]),
   midi.NoteOnEvent(tick=101, channel=0, data=[65, 0]),
   midi.NoteOnEvent(tick=0, channel=0, data=[71, 96]),
   midi.NoteOnEvent(tick=118, channel=0, data=[65, 80]),
   midi.NoteOnEvent(tick=22, channel=0, data=[71, 0]),
   midi.NoteOnEvent(tick=95, channel=0, data=[63, 76]),
   midi.NoteOnEvent(tick=23, channel=0, data=[65, 0]),
   midi.NoteOnEvent(tick=99, channel=0, data=[65, 80]),
   midi.NoteOnEvent(tick=18, channel=0, data=[63, 0]),
   midi.NoteOnEvent(tick=101, channel=0, data=[62, 80]),
   midi.NoteOnEvent(tick=21, channel=0, data=[65, 0]),
   midi.NoteOnEvent(tick=103, channel=0, data=[65, 77]),
   midi.NoteOnEvent(tick=16, channel=0, data=[62, 0]),
   midi.NoteOnEvent(tick=100, channel=0, data=[63, 77]),
   midi.NoteOnEvent(tick=24, channel=0, data=[65, 0]),
   midi.NoteOnEvent(tick=99, channel=0, data=[65, 77]),
   midi.NoteOnEvent(tick=17, channel=0, data=[63, 0]),
   midi.NoteOnEvent(tick=103, channel=0, data=[65, 0]),
   midi.NoteOnEvent(tick=1, channel=0, data=[72, 96]),
   midi.NoteOnEvent(tick=120, channel=0, data=[67, 80]),
   midi.NoteOnEvent(tick=20, channel=0, data=[72, 0]),
   midi.NoteOnEvent(tick=100, channel=0, data=[65, 75]),
   midi.NoteOnEvent(tick=20, channel=0, data=[67, 0]),
   midi.NoteOnEvent(tick=98, channel=0, data=[67, 75]),
   midi.NoteOnEvent(tick=22, channel=0, data=[65, 0]),
   midi.NoteOnEvent(tick=97, channel=0, data=[63, 80]),
   midi.NoteOnEvent(tick=21, channel=0, data=[67, 0]),
   midi.NoteOnEvent(tick=98, channel=0, data=[67, 76]),
   midi.NoteOnEvent(tick=21, channel=0, data=[63, 0]),
   midi.NoteOnEvent(tick=99, channel=0, data=[65, 76]),
   midi.NoteOnEvent(tick=20, channel=0, data=[67, 0]),
   midi.NoteOnEvent(tick=104, channel=0, data=[67, 76]),
   midi.NoteOnEvent(tick=16, channel=0, data=[65, 0]),
   midi.NoteOnEvent(tick=99, channel=0, data=[72, 96]),
   midi.NoteOnEvent(tick=5, channel=0, data=[67, 0]),
   midi.NoteOnEvent(tick=117, channel=0, data=[67, 80]),
   midi.NoteOnEvent(tick=18, channel=0, data=[72, 0]),
   midi.NoteOnEvent(tick=100, channel=0, data=[65, 75]),
   midi.NoteOnEvent(tick=22, channel=0, data=[67, 0]),
   midi.NoteOnEvent(tick=102, channel=0, data=[67, 75]),
   midi.NoteOnEvent(tick=16, channel=0, data=[65, 0]),
   midi.NoteOnEvent(tick=100, channel=0, data=[63, 80]),
   midi.NoteOnEvent(tick=24, channel=0, data=[67, 0]),
   midi.NoteOnEvent(tick=96, channel=0, data=[67, 76]),
   midi.NoteOnEvent(tick=20, channel=0, data=[63, 0]),
   midi.NoteOnEvent(tick=105, channel=0, data=[65, 76]),
   midi.NoteOnEvent(tick=15, channel=0, data=[67, 0]),
   midi.NoteOnEvent(tick=101, channel=0, data=[67, 76]),
   midi.NoteOnEvent(tick=24, channel=0, data=[65, 0]),
   midi.NoteOnEvent(tick=96, channel=0, data=[67, 0]),
   midi.NoteOnEvent(tick=0, channel=0, data=[75, 96]),
   midi.NoteOnEvent(tick=122, channel=0, data=[68, 80]),
   midi.NoteOnEvent(tick=18, channel=0, data=[75, 0]),
   midi.NoteOnEvent(tick=103, channel=0, data=[67, 76]),
   midi.NoteOnEvent(tick=19, channel=0, data=[68, 0]),
   midi.NoteOnEvent(tick=102, channel=0, data=[68, 76]),
   midi.NoteOnEvent(tick=19, channel=0, data=[67, 0]),
   midi.NoteOnEvent(tick=100, channel=0, data=[63, 80]),
   midi.NoteOnEvent(tick=21, channel=0, data=[68, 0]),
   midi.NoteOnEvent(tick=97, channel=0, data=[68, 75]),
   midi.NoteOnEvent(tick=22, channel=0, data=[63, 0]),
   midi.NoteOnEvent(tick=97, channel=0, data=[67, 75]),
   midi.NoteOnEvent(tick=21, channel=0, data=[68, 0]),
   midi.NoteOnEvent(tick=102, channel=0, data=[68, 76]),
   midi.NoteOnEvent(tick=17, channel=0, data=[67, 0]),
   midi.NoteOnEvent(tick=101, channel=0, data=[75, 96]),
   midi.NoteOnEvent(tick=2, channel=0, data=[68, 0]),
   midi.NoteOnEvent(tick=118, channel=0, data=[68, 80]),
   midi.NoteOnEvent(tick=20, channel=0, data=[75, 0]),
   midi.NoteOnEvent(tick=103, channel=0, data=[67, 75]),
   midi.NoteOnEvent(tick=17, channel=0, data=[68, 0]),
   midi.NoteOnEvent(tick=102, channel=0, data=[68, 75]),
   midi.NoteOnEvent(tick=21, channel=0, data=[67, 0]),
   midi.NoteOnEvent(tick=95, channel=0, data=[63, 80]),
   midi.NoteOnEvent(tick=24, channel=0, data=[68, 0]),
   midi.NoteOnEvent(tick=99, channel=0, data=[68, 75]),
   midi.NoteOnEvent(tick=17, channel=0, data=[63, 0]),
   midi.NoteOnEvent(tick=102, channel=0, data=[67, 76]),
   midi.NoteOnEvent(tick=21, channel=0, data=[68, 0]),
   midi.NoteOnEvent(tick=101, channel=0, data=[68, 76]),
   midi.NoteOnEvent(tick=18, channel=0, data=[67, 0]),
   midi.NoteOnEvent(tick=101, channel=0, data=[74, 96]),
   midi.NoteOnEvent(tick=1, channel=0, data=[68, 0]),
   midi.NoteOnEvent(tick=119, channel=0, data=[66, 80]),
   midi.NoteOnEvent(tick=20, channel=0, data=[74, 0]),
   midi.NoteOnEvent(tick=99, channel=0, data=[64, 76]),
   midi.NoteOnEvent(tick=21, channel=0, data=[66, 0]),
   midi.NoteOnEvent(tick=97, channel=0, data=[66, 76]),
   midi.NoteOnEvent(tick=22, channel=0, data=[64, 0]),
   midi.NoteOnEvent(tick=99, channel=0, data=[62, 80]),
   midi.NoteOnEvent(tick=19, channel=0, data=[66, 0]),
   midi.NoteOnEvent(tick=102, channel=0, data=[66, 76]),
   midi.NoteOnEvent(tick=19, channel=0, data=[62, 0]),
   midi.NoteOnEvent(tick=103, channel=0, data=[64, 76]),
   midi.NoteOnEvent(tick=18, channel=0, data=[66, 0]),
   midi.NoteOnEvent(tick=101, channel=0, data=[66, 76]),
   midi.NoteOnEvent(tick=21, channel=0, data=[64, 0]),
   midi.NoteOnEvent(tick=99, channel=0, data=[66, 0]),
   midi.NoteOnEvent(tick=2, channel=0, data=[74, 96]),
   midi.NoteOnEvent(tick=119, channel=0, data=[66, 80]),
   midi.NoteOnEvent(tick=21, channel=0, data=[74, 0]),
   midi.NoteOnEvent(tick=97, channel=0, data=[64, 75]),
   midi.NoteOnEvent(tick=22, channel=0, data=[66, 0]),
   midi.NoteOnEvent(tick=97, channel=0, data=[66, 75]),
   midi.NoteOnEvent(tick=21, channel=0, data=[64, 0]),
   midi.NoteOnEvent(tick=101, channel=0, data=[62, 80]),
   midi.NoteOnEvent(tick=18, channel=0, data=[66, 0]),
   midi.NoteOnEvent(tick=101, channel=0, data=[66, 76]),
   midi.NoteOnEvent(tick=21, channel=0, data=[62, 0]),
   midi.NoteOnEvent(tick=97, channel=0, data=[64, 77]),
   midi.NoteOnEvent(tick=22, channel=0, data=[66, 0]),
   midi.NoteOnEvent(tick=102, channel=0, data=[66, 77]),
   midi.NoteOnEvent(tick=16, channel=0, data=[64, 0]),
   midi.NoteOnEvent(tick=103, channel=0, data=[74, 96]),
   midi.NoteOnEvent(tick=1, channel=0, data=[66, 0]),
   midi.NoteOnEvent(tick=116, channel=0, data=[67, 80]),
   midi.NoteOnEvent(tick=23, channel=0, data=[74, 0]),
   midi.NoteOnEvent(tick=102, channel=0, data=[66, 75]),
   midi.NoteOnEvent(tick=15, channel=0, data=[67, 0]),
   midi.NoteOnEvent(tick=100, channel=0, data=[67, 75]),
   midi.NoteOnEvent(tick=25, channel=0, data=[66, 0]),
   midi.NoteOnEvent(tick=100, channel=0, data=[62, 80]),
   midi.NoteOnEvent(tick=15, channel=0, data=[67, 0]),
   midi.NoteOnEvent(tick=104, channel=0, data=[67, 75]),
   midi.NoteOnEvent(tick=21, channel=0, data=[62, 0]),
   midi.NoteOnEvent(tick=96, channel=0, data=[66, 75]),
   midi.NoteOnEvent(tick=23, channel=0, data=[67, 0]),
   midi.NoteOnEvent(tick=98, channel=0, data=[67, 75]),
   midi.NoteOnEvent(tick=19, channel=0, data=[66, 0]),
   midi.NoteOnEvent(tick=99, channel=0, data=[74, 96]),
   midi.NoteOnEvent(tick=2, channel=0, data=[67, 0]),
   midi.NoteOnEvent(tick=123, channel=0, data=[67, 80]),
   midi.NoteOnEvent(tick=15, channel=0, data=[74, 0]),
   midi.NoteOnEvent(tick=104, channel=0, data=[66, 76]),
   midi.NoteOnEvent(tick=21, channel=0, data=[67, 0]),
   midi.NoteOnEvent(tick=95, channel=0, data=[67, 77]),
   midi.NoteOnEvent(tick=24, channel=0, data=[66, 0]),
   midi.NoteOnEvent(tick=101, channel=0, data=[62, 80]),
   midi.NoteOnEvent(tick=15, channel=0, data=[67, 0]),
   midi.NoteOnEvent(tick=104, channel=0, data=[67, 75]),
   midi.NoteOnEvent(tick=21, channel=0, data=[62, 0]),
   midi.NoteOnEvent(tick=98, channel=0, data=[66, 75]),
   midi.NoteOnEvent(tick=21, channel=0, data=[67, 0]),
   midi.NoteOnEvent(tick=97, channel=0, data=[67, 74]),
   midi.NoteOnEvent(tick=22, channel=0, data=[66, 0]),
   midi.NoteOnEvent(tick=98, channel=0, data=[67, 0]),
   midi.NoteOnEvent(tick=0, channel=0, data=[72, 96]),
   midi.NoteOnEvent(tick=123, channel=0, data=[64, 80]),
   midi.NoteOnEvent(tick=17, channel=0, data=[72, 0]),
   midi.NoteOnEvent(tick=101, channel=0, data=[62, 76]),
   midi.NoteOnEvent(tick=22, channel=0, data=[64, 0]),
   midi.NoteOnEvent(tick=96, channel=0, data=[64, 76]),
   midi.NoteOnEvent(tick=22, channel=0, data=[62, 0]),
   midi.NoteOnEvent(tick=101, channel=0, data=[60, 80]),
   midi.NoteOnEvent(tick=17, channel=0, data=[64, 0]),
   midi.NoteOnEvent(tick=104, channel=0, data=[64, 76]),
   midi.NoteOnEvent(tick=19, channel=0, data=[60, 0]),
   midi.NoteOnEvent(tick=99, channel=0, data=[62, 76]),
   midi.NoteOnEvent(tick=22, channel=0, data=[64, 0]),
   midi.NoteOnEvent(tick=97, channel=0, data=[64, 75]),
   midi.NoteOnEvent(tick=21, channel=0, data=[62, 0]),
   midi.NoteOnEvent(tick=99, channel=0, data=[64, 0]),
   midi.NoteOnEvent(tick=2, channel=0, data=[72, 96]),
   midi.NoteOnEvent(tick=121, channel=0, data=[64, 80]),
   midi.NoteOnEvent(tick=19, channel=0, data=[72, 0]),
   midi.NoteOnEvent(tick=101, channel=0, data=[62, 76]),
   midi.NoteOnEvent(tick=20, channel=0, data=[64, 0]),
   midi.NoteOnEvent(tick=100, channel=0, data=[64, 76]),
   midi.NoteOnEvent(tick=20, channel=0, data=[62, 0]),
   midi.NoteOnEvent(tick=98, channel=0, data=[60, 80]),
   midi.NoteOnEvent(tick=22, channel=0, data=[64, 0]),
   midi.NoteOnEvent(tick=96, channel=0, data=[64, 75]),
   midi.NoteOnEvent(tick=22, channel=0, data=[60, 0]),
   midi.NoteOnEvent(tick=100, channel=0, data=[62, 75]),
   midi.NoteOnEvent(tick=18, channel=0, data=[64, 0]),
   midi.NoteOnEvent(tick=105, channel=0, data=[64, 75]),
   midi.NoteOnEvent(tick=17, channel=0, data=[62, 0]),
   midi.NoteOnEvent(tick=98, channel=0, data=[72, 96]),
   midi.NoteOnEvent(tick=5, channel=0, data=[64, 0]),
   midi.NoteOnEvent(tick=118, channel=0, data=[65, 80]),
   midi.NoteOnEvent(tick=17, channel=0, data=[72, 0]),
   midi.NoteOnEvent(tick=103, channel=0, data=[64, 76]),
   midi.NoteOnEvent(tick=20, channel=0, data=[65, 0]),
   midi.NoteOnEvent(tick=99, channel=0, data=[65, 76]),
   midi.NoteOnEvent(tick=21, channel=0, data=[64, 0]),
   midi.NoteOnEvent(tick=97, channel=0, data=[60, 80]),
   midi.NoteOnEvent(tick=22, channel=0, data=[65, 0]),
   midi.NoteOnEvent(tick=103, channel=0, data=[65, 74]),
   midi.NoteOnEvent(tick=15, channel=0, data=[60, 0]),
   midi.NoteOnEvent(tick=105, channel=0, data=[64, 74]),
   midi.NoteOnEvent(tick=20, channel=0, data=[65, 0]),
   midi.NoteOnEvent(tick=98, channel=0, data=[65, 74]),
   midi.NoteOnEvent(tick=22, channel=0, data=[64, 0]),
   midi.NoteOnEvent(tick=97, channel=0, data=[72, 96]),
   midi.NoteOnEvent(tick=1, channel=0, data=[65, 0]),
   midi.NoteOnEvent(tick=119, channel=0, data=[65, 80]),
   midi.NoteOnEvent(tick=20, channel=0, data=[72, 0]),
   midi.NoteOnEvent(tick=100, channel=0, data=[64, 75]),
   midi.NoteOnEvent(tick=20, channel=0, data=[65, 0]),
   midi.NoteOnEvent(tick=103, channel=0, data=[65, 75]),
   midi.NoteOnEvent(tick=17, channel=0, data=[64, 0]),
   midi.NoteOnEvent(tick=99, channel=0, data=[60, 80]),
   midi.NoteOnEvent(tick=24, channel=0, data=[65, 0]),
   midi.NoteOnEvent(tick=97, channel=0, data=[65, 75]),
   midi.NoteOnEvent(tick=19, channel=0, data=[60, 0]),
   midi.NoteOnEvent(tick=100, channel=0, data=[64, 75]),
   midi.NoteOnEvent(tick=21, channel=0, data=[65, 0]),
   midi.NoteOnEvent(tick=103, channel=0, data=[65, 75]),
   midi.NoteOnEvent(tick=16, channel=0, data=[64, 0]),
   midi.NoteOnEvent(tick=100, channel=0, data=[70, 96]),
   midi.NoteOnEvent(tick=4, channel=0, data=[65, 0]),
   midi.NoteOnEvent(tick=119, channel=0, data=[65, 80]),
   midi.NoteOnEvent(tick=17, channel=0, data=[70, 0]),
   midi.NoteOnEvent(tick=102, channel=0, data=[63, 76]),
   midi.NoteOnEvent(tick=21, channel=0, data=[65, 0]),
   midi.NoteOnEvent(tick=97, channel=0, data=[65, 76]),
   midi.NoteOnEvent(tick=22, channel=0, data=[63, 0]),
   midi.NoteOnEvent(tick=101, channel=0, data=[62, 79]),
   midi.NoteOnEvent(tick=17, channel=0, data=[65, 0]),
   midi.NoteOnEvent(tick=104, channel=0, data=[65, 75]),
   midi.NoteOnEvent(tick=19, channel=0, data=[62, 0]),
   midi.NoteOnEvent(tick=98, channel=0, data=[63, 74]),
   midi.NoteOnEvent(tick=23, channel=0, data=[65, 0]),
   midi.NoteOnEvent(tick=98, channel=0, data=[65, 74]),
   midi.NoteOnEvent(tick=19, channel=0, data=[63, 0]),
   midi.NoteOnEvent(tick=101, channel=0, data=[65, 0]),
   midi.NoteOnEvent(tick=2, channel=0, data=[70, 94]),
   midi.NoteOnEvent(tick=115, channel=0, data=[65, 78]),
   midi.NoteOnEvent(tick=25, channel=0, data=[70, 0]),
   midi.NoteOnEvent(tick=100, channel=0, data=[63, 74]),
   midi.NoteOnEvent(tick=15, channel=0, data=[65, 0]),
   midi.NoteOnEvent(tick=103, channel=0, data=[65, 74]),
   midi.NoteOnEvent(tick=22, channel=0, data=[63, 0]),
   midi.NoteOnEvent(tick=95, channel=0, data=[62, 77]),
   midi.NoteOnEvent(tick=23, channel=0, data=[65, 0]),
   midi.NoteOnEvent(tick=100, channel=0, data=[65, 76]),
   midi.NoteOnEvent(tick=17, channel=0, data=[62, 0]),
   midi.NoteOnEvent(tick=101, channel=0, data=[63, 73]),
   midi.NoteOnEvent(tick=22, channel=0, data=[65, 0]),
   midi.NoteOnEvent(tick=102, channel=0, data=[65, 72]),
   midi.NoteOnEvent(tick=16, channel=0, data=[63, 0]),
   midi.NoteOnEvent(tick=102, channel=0, data=[70, 91]),
   midi.NoteOnEvent(tick=2, channel=0, data=[65, 0]),
   midi.NoteOnEvent(tick=118, channel=0, data=[67, 76]),
   midi.NoteOnEvent(tick=20, channel=0, data=[70, 0]),
   midi.NoteOnEvent(tick=98, channel=0, data=[65, 72]),
   midi.NoteOnEvent(tick=22, channel=0, data=[67, 0]),
   midi.NoteOnEvent(tick=102, channel=0, data=[67, 72]),
   midi.NoteOnEvent(tick=16, channel=0, data=[65, 0]),
   midi.NoteOnEvent(tick=99, channel=0, data=[63, 75]),
   midi.NoteOnEvent(tick=25, channel=0, data=[67, 0]),
   midi.NoteOnEvent(tick=95, channel=0, data=[67, 72]),
   midi.NoteOnEvent(tick=20, channel=0, data=[63, 0]),
   midi.NoteOnEvent(tick=104, channel=0, data=[65, 72]),
   midi.NoteOnEvent(tick=16, channel=0, data=[67, 0]),
   midi.NoteOnEvent(tick=101, channel=0, data=[67, 71]),
   midi.NoteOnEvent(tick=23, channel=0, data=[65, 0]),
   midi.NoteOnEvent(tick=97, channel=0, data=[67, 0]),
   midi.NoteOnEvent(tick=4, channel=0, data=[70, 89]),
   midi.NoteOnEvent(tick=116, channel=0, data=[67, 74]),
   midi.NoteOnEvent(tick=24, channel=0, data=[70, 0]),
   midi.NoteOnEvent(tick=97, channel=0, data=[65, 69]),
   midi.NoteOnEvent(tick=19, channel=0, data=[67, 0]),
   midi.NoteOnEvent(tick=99, channel=0, data=[67, 69]),
   midi.NoteOnEvent(tick=22, channel=0, data=[65, 0]),
   midi.NoteOnEvent(tick=102, channel=0, data=[63, 73]),
   midi.NoteOnEvent(tick=16, channel=0, data=[67, 0]),
   midi.NoteOnEvent(tick=105, channel=0, data=[67, 68]),
   midi.NoteOnEvent(tick=19, channel=0, data=[63, 0]),
   midi.NoteOnEvent(tick=100, channel=0, data=[65, 68]),
   midi.NoteOnEvent(tick=21, channel=0, data=[67, 0]),
   midi.NoteOnEvent(tick=98, channel=0, data=[67, 68]),
   midi.NoteOnEvent(tick=21, channel=0, data=[65, 0]),
   midi.NoteOnEvent(tick=99, channel=0, data=[67, 0]),
   midi.NoteOnEvent(tick=1, channel=0, data=[68, 86]),
   midi.NoteOnEvent(tick=117, channel=0, data=[67, 72]),
   midi.NoteOnEvent(tick=23, channel=0, data=[68, 0]),
   midi.NoteOnEvent(tick=96, channel=0, data=[65, 68]),
   midi.NoteOnEvent(tick=21, channel=0, data=[67, 0]),
   midi.NoteOnEvent(tick=99, channel=0, data=[67, 68]),
   midi.NoteOnEvent(tick=20, channel=0, data=[65, 0]),
   midi.NoteOnEvent(tick=100, channel=0, data=[63, 71]),
   midi.NoteOnEvent(tick=20, channel=0, data=[67, 0]),
   midi.NoteOnEvent(tick=104, channel=0, data=[67, 67]),
   midi.NoteOnEvent(tick=16, channel=0, data=[63, 0]),
   midi.NoteOnEvent(tick=105, channel=0, data=[65, 67]),
   midi.NoteOnEvent(tick=19, channel=0, data=[67, 0]),
   midi.NoteOnEvent(tick=97, channel=0, data=[67, 66]),
   midi.NoteOnEvent(tick=24, channel=0, data=[65, 0]),
   midi.NoteOnEvent(tick=95, channel=0, data=[68, 84]),
   midi.NoteOnEvent(tick=1, channel=0, data=[67, 0]),
   midi.NoteOnEvent(tick=122, channel=0, data=[67, 70]),
   midi.NoteOnEvent(tick=17, channel=0, data=[68, 0]),
   midi.NoteOnEvent(tick=100, channel=0, data=[65, 65]),
   midi.NoteOnEvent(tick=23, channel=0, data=[67, 0]),
   midi.NoteOnEvent(tick=97, channel=0, data=[67, 65]),
   midi.NoteOnEvent(tick=20, channel=0, data=[65, 0]),
   midi.NoteOnEvent(tick=102, channel=0, data=[63, 69]),
   midi.NoteOnEvent(tick=18, channel=0, data=[67, 0]),
   midi.NoteOnEvent(tick=104, channel=0, data=[67, 63]),
   midi.NoteOnEvent(tick=18, channel=0, data=[63, 0]),
   midi.NoteOnEvent(tick=102, channel=0, data=[65, 63]),
   midi.NoteOnEvent(tick=20, channel=0, data=[67, 0]),
   midi.NoteOnEvent(tick=99, channel=0, data=[67, 63]),
   midi.NoteOnEvent(tick=21, channel=0, data=[65, 0]),
   midi.NoteOnEvent(tick=96, channel=0, data=[68, 81]),
   midi.NoteOnEvent(tick=3, channel=0, data=[67, 0]),
   midi.NoteOnEvent(tick=119, channel=0, data=[62, 68]),
   midi.NoteOnEvent(tick=18, channel=0, data=[68, 0]),
   midi.NoteOnEvent(tick=101, channel=0, data=[60, 64]),
   midi.NoteOnEvent(tick=21, channel=0, data=[62, 0]),
   midi.NoteOnEvent(tick=102, channel=0, data=[62, 64]),
   midi.NoteOnEvent(tick=17, channel=0, data=[60, 0]),
   midi.NoteOnEvent(tick=100, channel=0, data=[58, 67]),
   midi.NoteOnEvent(tick=23, channel=0, data=[62, 0]),
   midi.NoteOnEvent(tick=98, channel=0, data=[62, 61]),
   midi.NoteOnEvent(tick=19, channel=0, data=[58, 0]),
   midi.NoteOnEvent(tick=100, channel=0, data=[60, 61]),
   midi.NoteOnEvent(tick=21, channel=0, data=[62, 0]),
   midi.NoteOnEvent(tick=101, channel=0, data=[62, 61]),
   midi.NoteOnEvent(tick=18, channel=0, data=[60, 0]),
   midi.NoteOnEvent(tick=102, channel=0, data=[62, 0]),
   midi.NoteOnEvent(tick=0, channel=0, data=[68, 79]),
   midi.NoteOnEvent(tick=120, channel=0, data=[62, 60]),
   midi.NoteOnEvent(tick=20, channel=0, data=[68, 0]),
   midi.NoteOnEvent(tick=97, channel=0, data=[60, 57]),
   midi.NoteOnEvent(tick=23, channel=0, data=[62, 0]),
   midi.NoteOnEvent(tick=100, channel=0, data=[62, 57]),
   midi.NoteOnEvent(tick=17, channel=0, data=[60, 0]),
   midi.NoteOnEvent(tick=105, channel=0, data=[58, 60]),
   midi.NoteOnEvent(tick=18, channel=0, data=[62, 0]),
   midi.NoteOnEvent(tick=101, channel=0, data=[62, 54]),
   midi.NoteOnEvent(tick=21, channel=0, data=[58, 0]),
   midi.NoteOnEvent(tick=100, channel=0, data=[60, 54]),
   midi.NoteOnEvent(tick=19, channel=0, data=[62, 0]),
   midi.NoteOnEvent(tick=97, channel=0, data=[62, 55]),
   midi.NoteOnEvent(tick=24, channel=0, data=[60, 0]),
   midi.NoteOnEvent(tick=96, channel=0, data=[62, 0]),
   midi.NoteOnEvent(tick=1, channel=0, data=[67, 76]),
   midi.NoteOnEvent(tick=119, channel=0, data=[58, 58]),
   midi.NoteOnEvent(tick=21, channel=0, data=[67, 0]),
   midi.NoteOnEvent(tick=103, channel=0, data=[56, 54]),
   midi.NoteOnEvent(tick=16, channel=0, data=[58, 0]),
   midi.NoteOnEvent(tick=101, channel=0, data=[58, 54]),
   midi.NoteOnEvent(tick=23, channel=0, data=[56, 0]),
   midi.NoteOnEvent(tick=100, channel=0, data=[63, 64]),
   midi.NoteOnEvent(tick=17, channel=0, data=[58, 0]),
   midi.NoteOnEvent(tick=98, channel=0, data=[58, 54]),
   midi.NoteOnEvent(tick=25, channel=0, data=[63, 0]),
   midi.NoteOnEvent(tick=98, channel=0, data=[56, 54]),
   midi.NoteOnEvent(tick=17, channel=0, data=[58, 0]),
   midi.NoteOnEvent(tick=100, channel=0, data=[58, 54]),
   midi.NoteOnEvent(tick=23, channel=0, data=[56, 0]),
   midi.NoteOnEvent(tick=97, channel=0, data=[58, 0]),
   midi.NoteOnEvent(tick=2, channel=0, data=[67, 76]),
   midi.NoteOnEvent(tick=123, channel=0, data=[58, 57]),
   midi.NoteOnEvent(tick=17, channel=0, data=[67, 0]),
   midi.NoteOnEvent(tick=98, channel=0, data=[56, 53]),
   midi.NoteOnEvent(tick=25, channel=0, data=[58, 0]),
   midi.NoteOnEvent(tick=100, channel=0, data=[58, 53]),
   midi.NoteOnEvent(tick=15, channel=0, data=[56, 0]),
   midi.NoteOnEvent(tick=101, channel=0, data=[63, 57]),
   midi.NoteOnEvent(tick=24, channel=0, data=[58, 0]),
   midi.NoteOnEvent(tick=96, channel=0, data=[58, 53]),
   midi.NoteOnEvent(tick=20, channel=0, data=[63, 0]),
   midi.NoteOnEvent(tick=103, channel=0, data=[56, 53]),
   midi.NoteOnEvent(tick=17, channel=0, data=[58, 0]),
   midi.NoteOnEvent(tick=101, channel=0, data=[58, 53]),
   midi.NoteOnEvent(tick=22, channel=0, data=[56, 0]),
   midi.NoteOnEvent(tick=97, channel=0, data=[65, 76]),
   midi.NoteOnEvent(tick=1, channel=0, data=[58, 0]),
   midi.NoteOnEvent(tick=121, channel=0, data=[60, 58]),
   midi.NoteOnEvent(tick=18, channel=0, data=[65, 0]),
   midi.NoteOnEvent(tick=102, channel=0, data=[58, 53]),
   midi.NoteOnEvent(tick=20, channel=0, data=[60, 0]),
   midi.NoteOnEvent(tick=99, channel=0, data=[60, 53]),
   midi.NoteOnEvent(tick=21, channel=0, data=[58, 0]),
   midi.NoteOnEvent(tick=99, channel=0, data=[57, 58]),
   midi.NoteOnEvent(tick=20, channel=0, data=[60, 0]),
   midi.NoteOnEvent(tick=101, channel=0, data=[60, 53]),
   midi.NoteOnEvent(tick=19, channel=0, data=[57, 0]),
   midi.NoteOnEvent(tick=101, channel=0, data=[58, 53]),
   midi.NoteOnEvent(tick=20, channel=0, data=[60, 0]),
   midi.NoteOnEvent(tick=102, channel=0, data=[60, 53]),
   midi.NoteOnEvent(tick=18, channel=0, data=[58, 0]),
   midi.NoteOnEvent(tick=101, channel=0, data=[65, 76]),
   midi.NoteOnEvent(tick=1, channel=0, data=[60, 0]),
   midi.NoteOnEvent(tick=118, channel=0, data=[60, 59]),
   midi.NoteOnEvent(tick=21, channel=0, data=[65, 0]),
   midi.NoteOnEvent(tick=100, channel=0, data=[58, 54]),
   midi.NoteOnEvent(tick=19, channel=0, data=[60, 0]),
   midi.NoteOnEvent(tick=100, channel=0, data=[60, 54]),
   midi.NoteOnEvent(tick=21, channel=0, data=[58, 0]),
   midi.NoteOnEvent(tick=98, channel=0, data=[57, 59]),
   midi.NoteOnEvent(tick=21, channel=0, data=[60, 0]),
   midi.NoteOnEvent(tick=98, channel=0, data=[60, 54]),
   midi.NoteOnEvent(tick=21, channel=0, data=[57, 0]),
   midi.NoteOnEvent(tick=102, channel=0, data=[58, 54]),
   midi.NoteOnEvent(tick=17, channel=0, data=[60, 0]),
   midi.NoteOnEvent(tick=102, channel=0, data=[60, 53]),
   midi.NoteOnEvent(tick=21, channel=0, data=[58, 0]),
   midi.NoteOnEvent(tick=99, channel=0, data=[60, 0]),
   midi.NoteOnEvent(tick=2, channel=0, data=[65, 76]),
   midi.NoteOnEvent(tick=116, channel=0, data=[62, 60]),
   midi.NoteOnEvent(tick=24, channel=0, data=[65, 0]),
   midi.NoteOnEvent(tick=96, channel=0, data=[60, 55]),
   midi.NoteOnEvent(tick=20, channel=0, data=[62, 0]),
   midi.NoteOnEvent(tick=102, channel=0, data=[62, 55]),
   midi.NoteOnEvent(tick=18, channel=0, data=[60, 0]),
   midi.NoteOnEvent(tick=103, channel=0, data=[59, 60]),
   midi.NoteOnEvent(tick=19, channel=0, data=[62, 0]),
   midi.NoteOnEvent(tick=100, channel=0, data=[62, 55]),
   midi.NoteOnEvent(tick=21, channel=0, data=[59, 0]),
   midi.NoteOnEvent(tick=98, channel=0, data=[60, 55]),
   midi.NoteOnEvent(tick=21, channel=0, data=[62, 0]),
   midi.NoteOnEvent(tick=99, channel=0, data=[62, 55]),
   midi.NoteOnEvent(tick=20, channel=0, data=[60, 0]),
   midi.NoteOnEvent(tick=98, channel=0, data=[65, 76]),
   midi.NoteOnEvent(tick=2, channel=0, data=[62, 0]),
   midi.NoteOnEvent(tick=122, channel=0, data=[62, 60]),
   midi.NoteOnEvent(tick=16, channel=0, data=[65, 0]),
   midi.NoteOnEvent(tick=103, channel=0, data=[60, 56]),
   midi.NoteOnEvent(tick=21, channel=0, data=[62, 0]),
   midi.NoteOnEvent(tick=99, channel=0, data=[62, 56]),
   midi.NoteOnEvent(tick=20, channel=0, data=[60, 0]),
   midi.NoteOnEvent(tick=101, channel=0, data=[59, 60]),
   midi.NoteOnEvent(tick=19, channel=0, data=[62, 0]),
   midi.NoteOnEvent(tick=101, channel=0, data=[62, 55]),
   midi.NoteOnEvent(tick=20, channel=0, data=[59, 0]),
   midi.NoteOnEvent(tick=96, channel=0, data=[60, 55]),
   midi.NoteOnEvent(tick=24, channel=0, data=[62, 0]),
   midi.NoteOnEvent(tick=99, channel=0, data=[62, 55]),
   midi.NoteOnEvent(tick=17, channel=0, data=[60, 0]),
   midi.NoteOnEvent(tick=103, channel=0, data=[62, 0]),
   midi.NoteOnEvent(tick=2, channel=0, data=[65, 76]),
   midi.NoteOnEvent(tick=120, channel=0, data=[62, 61]),
   midi.NoteOnEvent(tick=20, channel=0, data=[65, 0]),
   midi.NoteOnEvent(tick=98, channel=0, data=[60, 52]),
   midi.NoteOnEvent(tick=22, channel=0, data=[62, 0]),
   midi.NoteOnEvent(tick=99, channel=0, data=[62, 54]),
   midi.NoteOnEvent(tick=19, channel=0, data=[60, 0]),
   midi.NoteOnEvent(tick=97, channel=0, data=[59, 61]),
   midi.NoteOnEvent(tick=24, channel=0, data=[62, 0]),
   midi.NoteOnEvent(tick=100, channel=0, data=[62, 55]),
   midi.NoteOnEvent(tick=16, channel=0, data=[59, 0]),
   midi.NoteOnEvent(tick=105, channel=0, data=[60, 55]),
   midi.NoteOnEvent(tick=19, channel=0, data=[62, 0]),
   midi.NoteOnEvent(tick=97, channel=0, data=[62, 55]),
   midi.NoteOnEvent(tick=24, channel=0, data=[60, 0]),
   midi.NoteOnEvent(tick=96, channel=0, data=[62, 0]),
   midi.NoteOnEvent(tick=2, channel=0, data=[65, 76]),
   midi.NoteOnEvent(tick=118, channel=0, data=[62, 61]),
   midi.NoteOnEvent(tick=22, channel=0, data=[65, 0]),
   midi.NoteOnEvent(tick=98, channel=0, data=[60, 55]),
   midi.NoteOnEvent(tick=20, channel=0, data=[62, 0]),
   midi.NoteOnEvent(tick=99, channel=0, data=[62, 55]),
   midi.NoteOnEvent(tick=21, channel=0, data=[60, 0]),
   midi.NoteOnEvent(tick=104, channel=0, data=[59, 61]),
   midi.NoteOnEvent(tick=15, channel=0, data=[62, 0]),
   midi.NoteOnEvent(tick=105, channel=0, data=[62, 54]),
   midi.NoteOnEvent(tick=20, channel=0, data=[59, 0]),
   midi.NoteOnEvent(tick=99, channel=0, data=[60, 54]),
   midi.NoteOnEvent(tick=21, channel=0, data=[62, 0]),
   midi.NoteOnEvent(tick=95, channel=0, data=[62, 54]),
   midi.NoteOnEvent(tick=24, channel=0, data=[60, 0]),
   midi.NoteOnEvent(tick=96, channel=0, data=[62, 0]),
   midi.NoteOnEvent(tick=1, channel=0, data=[63, 76]),
   midi.NoteOnEvent(tick=119, channel=0, data=[60, 61]),
   midi.NoteOnEvent(tick=21, channel=0, data=[63, 0]),
   midi.NoteOnEvent(tick=99, channel=0, data=[59, 61]),
   midi.NoteOnEvent(tick=20, channel=0, data=[60, 0]),
   midi.NoteOnEvent(tick=103, channel=0, data=[60, 55]),
   midi.NoteOnEvent(tick=17, channel=0, data=[59, 0]),
   midi.NoteOnEvent(tick=104, channel=0, data=[55, 61]),
   midi.NoteOnEvent(tick=19, channel=0, data=[60, 0]),
   midi.NoteOnEvent(tick=100, channel=0, data=[60, 55]),
   midi.NoteOnEvent(tick=21, channel=0, data=[55, 0]),
   midi.NoteOnEvent(tick=98, channel=0, data=[59, 55]),
   midi.NoteOnEvent(tick=21, channel=0, data=[60, 0]),
   midi.NoteOnEvent(tick=99, channel=0, data=[60, 55]),
   midi.NoteOnEvent(tick=20, channel=0, data=[59, 0]),
   midi.NoteOnEvent(tick=99, channel=0, data=[63, 76]),
   midi.NoteOnEvent(tick=1, channel=0, data=[60, 0]),
   midi.NoteOnEvent(tick=120, channel=0, data=[60, 61]),
   midi.NoteOnEvent(tick=19, channel=0, data=[63, 0]),
   midi.NoteOnEvent(tick=102, channel=0, data=[59, 55]),
   midi.NoteOnEvent(tick=19, channel=0, data=[60, 0]),
   midi.NoteOnEvent(tick=98, channel=0, data=[60, 55]),
   midi.NoteOnEvent(tick=23, channel=0, data=[59, 0]),
   midi.NoteOnEvent(tick=98, channel=0, data=[55, 61]),
   midi.NoteOnEvent(tick=19, channel=0, data=[60, 0]),
   midi.NoteOnEvent(tick=104, channel=0, data=[60, 55]),
   midi.NoteOnEvent(tick=17, channel=0, data=[55, 0]),
   midi.NoteOnEvent(tick=100, channel=0, data=[59, 55]),
   midi.NoteOnEvent(tick=23, channel=0, data=[60, 0]),
   midi.NoteOnEvent(tick=100, channel=0, data=[60, 56]),
   midi.NoteOnEvent(tick=17, channel=0, data=[59, 0]),
   midi.NoteOnEvent(tick=103, channel=0, data=[60, 0]),
   midi.NoteOnEvent(tick=1, channel=0, data=[53, 76]),
   midi.NoteOnEvent(tick=120, channel=0, data=[63, 64]),
   midi.NoteOnEvent(tick=20, channel=0, data=[53, 0]),
   midi.NoteOnEvent(tick=99, channel=0, data=[62, 57]),
   midi.NoteOnEvent(tick=21, channel=0, data=[63, 0]),
   midi.NoteOnEvent(tick=96, channel=0, data=[63, 57]),
   midi.NoteOnEvent(tick=23, channel=0, data=[62, 0]),
   midi.NoteOnEvent(tick=101, channel=0, data=[65, 64]),
   midi.NoteOnEvent(tick=16, channel=0, data=[63, 0]),
   midi.NoteOnEvent(tick=99, channel=0, data=[63, 58]),
   midi.NoteOnEvent(tick=25, channel=0, data=[65, 0]),
   midi.NoteOnEvent(tick=95, channel=0, data=[62, 58]),
   midi.NoteOnEvent(tick=20, channel=0, data=[63, 0]),
   midi.NoteOnEvent(tick=104, channel=0, data=[63, 58]),
   midi.NoteOnEvent(tick=16, channel=0, data=[62, 0]),
   midi.NoteOnEvent(tick=103, channel=0, data=[53, 76]),
   midi.NoteOnEvent(tick=1, channel=0, data=[63, 0]),
   midi.NoteOnEvent(tick=119, channel=0, data=[63, 64]),
   midi.NoteOnEvent(tick=20, channel=0, data=[53, 0]),
   midi.NoteOnEvent(tick=102, channel=0, data=[62, 57]),
   midi.NoteOnEvent(tick=18, channel=0, data=[63, 0]),
   midi.NoteOnEvent(tick=97, channel=0, data=[63, 59]),
   midi.NoteOnEvent(tick=25, channel=0, data=[62, 0]),
   midi.NoteOnEvent(tick=100, channel=0, data=[65, 64]),
   midi.NoteOnEvent(tick=15, channel=0, data=[63, 0]),
   midi.NoteOnEvent(tick=103, channel=0, data=[63, 57]),
   midi.NoteOnEvent(tick=22, channel=0, data=[65, 0]),
   midi.NoteOnEvent(tick=96, channel=0, data=[62, 57]),
   midi.NoteOnEvent(tick=22, channel=0, data=[63, 0]),
   midi.NoteOnEvent(tick=97, channel=0, data=[63, 57]),
   midi.NoteOnEvent(tick=21, channel=0, data=[62, 0]),
   midi.NoteOnEvent(tick=99, channel=0, data=[63, 0]),
   midi.NoteOnEvent(tick=3, channel=0, data=[54, 76]),
   midi.NoteOnEvent(tick=118, channel=0, data=[60, 64]),
   midi.NoteOnEvent(tick=22, channel=0, data=[54, 0]),
   midi.NoteOnEvent(tick=98, channel=0, data=[59, 57]),
   midi.NoteOnEvent(tick=20, channel=0, data=[60, 0]),
   midi.NoteOnEvent(tick=104, channel=0, data=[60, 58]),
   midi.NoteOnEvent(tick=16, channel=0, data=[59, 0]),
   midi.NoteOnEvent(tick=102, channel=0, data=[63, 64]),
   midi.NoteOnEvent(tick=22, channel=0, data=[60, 0]),
   midi.NoteOnEvent(tick=98, channel=0, data=[60, 58]),
   midi.NoteOnEvent(tick=20, channel=0, data=[63, 0]),
   midi.NoteOnEvent(tick=97, channel=0, data=[59, 58]),
   midi.NoteOnEvent(tick=23, channel=0, data=[60, 0]),
   midi.NoteOnEvent(tick=99, channel=0, data=[60, 58]),
   midi.NoteOnEvent(tick=18, channel=0, data=[59, 0]),
   midi.NoteOnEvent(tick=102, channel=0, data=[60, 0]),
   midi.NoteOnEvent(tick=0, channel=0, data=[54, 76]),
   midi.NoteOnEvent(tick=120, channel=0, data=[60, 64]),
   midi.NoteOnEvent(tick=20, channel=0, data=[54, 0]),
   midi.NoteOnEvent(tick=102, channel=0, data=[59, 58]),
   midi.NoteOnEvent(tick=18, channel=0, data=[60, 0]),
   midi.NoteOnEvent(tick=101, channel=0, data=[60, 58]),
   midi.NoteOnEvent(tick=21, channel=0, data=[59, 0]),
   midi.NoteOnEvent(tick=98, channel=0, data=[63, 64]),
   midi.NoteOnEvent(tick=21, channel=0, data=[60, 0]),
   midi.NoteOnEvent(tick=101, channel=0, data=[60, 58]),
   midi.NoteOnEvent(tick=18, channel=0, data=[63, 0]),
   midi.NoteOnEvent(tick=101, channel=0, data=[59, 58]),
   midi.NoteOnEvent(tick=21, channel=0, data=[60, 0]),
   midi.NoteOnEvent(tick=99, channel=0, data=[60, 58]),
   midi.NoteOnEvent(tick=20, channel=0, data=[59, 0]),
   midi.NoteOnEvent(tick=99, channel=0, data=[63, 76]),
   midi.NoteOnEvent(tick=1, channel=0, data=[60, 0]),
   midi.NoteOnEvent(tick=117, channel=0, data=[60, 64]),
   midi.NoteOnEvent(tick=22, channel=0, data=[63, 0]),
   midi.NoteOnEvent(tick=102, channel=0, data=[59, 58]),
   midi.NoteOnEvent(tick=16, channel=0, data=[60, 0]),
   midi.NoteOnEvent(tick=100, channel=0, data=[60, 58]),
   midi.NoteOnEvent(tick=24, channel=0, data=[59, 0]),
   midi.NoteOnEvent(tick=99, channel=0, data=[55, 63]),
   midi.NoteOnEvent(tick=17, channel=0, data=[60, 0]),
   midi.NoteOnEvent(tick=105, channel=0, data=[60, 57]),
   midi.NoteOnEvent(tick=18, channel=0, data=[55, 0]),
   midi.NoteOnEvent(tick=99, channel=0, data=[59, 57]),
   midi.NoteOnEvent(tick=23, channel=0, data=[60, 0]),
   midi.NoteOnEvent(tick=99, channel=0, data=[60, 57]),
   midi.NoteOnEvent(tick=18, channel=0, data=[59, 0]),
   midi.NoteOnEvent(tick=100, channel=0, data=[63, 76]),
   midi.NoteOnEvent(tick=2, channel=0, data=[60, 0]),
   midi.NoteOnEvent(tick=118, channel=0, data=[60, 58]),
   midi.NoteOnEvent(tick=20, channel=0, data=[63, 0]),
   midi.NoteOnEvent(tick=102, channel=0, data=[59, 58]),
   midi.NoteOnEvent(tick=18, channel=0, data=[60, 0]),
   midi.NoteOnEvent(tick=101, channel=0, data=[60, 58]),
   midi.NoteOnEvent(tick=21, channel=0, data=[59, 0]),
   midi.NoteOnEvent(tick=98, channel=0, data=[55, 63]),
   midi.NoteOnEvent(tick=21, channel=0, data=[60, 0]),
   midi.NoteOnEvent(tick=102, channel=0, data=[60, 57]),
   midi.NoteOnEvent(tick=17, channel=0, data=[55, 0]),
   midi.NoteOnEvent(tick=101, channel=0, data=[59, 58]),
   midi.NoteOnEvent(tick=22, channel=0, data=[60, 0]),
   midi.NoteOnEvent(tick=96, channel=0, data=[60, 58]),
   midi.NoteOnEvent(tick=22, channel=0, data=[59, 0]),
   midi.NoteOnEvent(tick=98, channel=0, data=[60, 0]),
   midi.NoteOnEvent(tick=1, channel=0, data=[66, 76]),
   midi.NoteOnEvent(tick=118, channel=0, data=[60, 64]),
   midi.NoteOnEvent(tick=22, channel=0, data=[66, 0]),
   midi.NoteOnEvent(tick=102, channel=0, data=[59, 57]),
   midi.NoteOnEvent(tick=16, channel=0, data=[60, 0]),
   midi.NoteOnEvent(tick=105, channel=0, data=[60, 58]),
   midi.NoteOnEvent(tick=19, channel=0, data=[59, 0]),
   midi.NoteOnEvent(tick=99, channel=0, data=[57, 63]),
   midi.NoteOnEvent(tick=22, channel=0, data=[60, 0]),
   midi.NoteOnEvent(tick=95, channel=0, data=[60, 57]),
   midi.NoteOnEvent(tick=23, channel=0, data=[57, 0]),
   midi.NoteOnEvent(tick=98, channel=0, data=[59, 57]),
   midi.NoteOnEvent(tick=19, channel=0, data=[60, 0]),
   midi.NoteOnEvent(tick=100, channel=0, data=[60, 57]),
   midi.NoteOnEvent(tick=21, channel=0, data=[59, 0]),
   midi.NoteOnEvent(tick=99, channel=0, data=[60, 0]),
   midi.NoteOnEvent(tick=3, channel=0, data=[66, 76]),
   midi.NoteOnEvent(tick=117, channel=0, data=[60, 64]),
   midi.NoteOnEvent(tick=23, channel=0, data=[66, 0]),
   midi.NoteOnEvent(tick=102, channel=0, data=[59, 57]),
   midi.NoteOnEvent(tick=15, channel=0, data=[60, 0]),
   midi.NoteOnEvent(tick=105, channel=0, data=[60, 57]),
   midi.NoteOnEvent(tick=20, channel=0, data=[59, 0]),
   midi.NoteOnEvent(tick=98, channel=0, data=[57, 64]),
   midi.NoteOnEvent(tick=22, channel=0, data=[60, 0]),
   midi.NoteOnEvent(tick=99, channel=0, data=[60, 58]),
   midi.NoteOnEvent(tick=19, channel=0, data=[57, 0]),
   midi.NoteOnEvent(tick=102, channel=0, data=[59, 58]),
   midi.NoteOnEvent(tick=19, channel=0, data=[60, 0]),
   midi.NoteOnEvent(tick=96, channel=0, data=[60, 58]),
   midi.NoteOnEvent(tick=25, channel=0, data=[59, 0]),
   midi.NoteOnEvent(tick=95, channel=0, data=[60, 0]),
   midi.NoteOnEvent(tick=0, channel=0, data=[67, 79]),
   midi.NoteOnEvent(tick=124, channel=0, data=[60, 65]),
   midi.NoteOnEvent(tick=16, channel=0, data=[67, 0]),
   midi.NoteOnEvent(tick=103, channel=0, data=[59, 57]),
   midi.NoteOnEvent(tick=21, channel=0, data=[60, 0]),
   midi.NoteOnEvent(tick=97, channel=0, data=[60, 58]),
   midi.NoteOnEvent(tick=22, channel=0, data=[59, 0]),
   midi.NoteOnEvent(tick=97, channel=0, data=[62, 66]),
   midi.NoteOnEvent(tick=21, channel=0, data=[60, 0]),
   midi.NoteOnEvent(tick=100, channel=0, data=[60, 58]),
   midi.NoteOnEvent(tick=19, channel=0, data=[62, 0]),
   midi.NoteOnEvent(tick=103, channel=0, data=[59, 58]),
   midi.NoteOnEvent(tick=18, channel=0, data=[60, 0]),
   midi.NoteOnEvent(tick=101, channel=0, data=[60, 58]),
   midi.NoteOnEvent(tick=21, channel=0, data=[59, 0]),
   midi.NoteOnEvent(tick=98, channel=0, data=[67, 79]),
   midi.NoteOnEvent(tick=1, channel=0, data=[60, 0]),
   midi.NoteOnEvent(tick=120, channel=0, data=[60, 67]),
   midi.NoteOnEvent(tick=19, channel=0, data=[67, 0]),
   midi.NoteOnEvent(tick=102, channel=0, data=[59, 58]),
   midi.NoteOnEvent(tick=19, channel=0, data=[60, 0]),
   midi.NoteOnEvent(tick=102, channel=0, data=[60, 58]),
   midi.NoteOnEvent(tick=19, channel=0, data=[59, 0]),
   midi.NoteOnEvent(tick=101, channel=0, data=[62, 67]),
   midi.NoteOnEvent(tick=20, channel=0, data=[60, 0]),
   midi.NoteOnEvent(tick=99, channel=0, data=[60, 59]),
   midi.NoteOnEvent(tick=21, channel=0, data=[62, 0]),
   midi.NoteOnEvent(tick=99, channel=0, data=[59, 59]),
   midi.NoteOnEvent(tick=20, channel=0, data=[60, 0]),
   midi.NoteOnEvent(tick=101, channel=0, data=[60, 59]),
   midi.NoteOnEvent(tick=19, channel=0, data=[59, 0]),
   midi.NoteOnEvent(tick=101, channel=0, data=[60, 0]),
   midi.NoteOnEvent(tick=1, channel=0, data=[68, 80]),
   midi.NoteOnEvent(tick=115, channel=0, data=[60, 67]),
   midi.NoteOnEvent(tick=25, channel=0, data=[68, 0]),
   midi.NoteOnEvent(tick=98, channel=0, data=[59, 61]),
   midi.NoteOnEvent(tick=17, channel=0, data=[60, 0]),
   midi.NoteOnEvent(tick=102, channel=0, data=[60, 61]),
   midi.NoteOnEvent(tick=21, channel=0, data=[59, 0]),
   midi.NoteOnEvent(tick=98, channel=0, data=[62, 68]),
   midi.NoteOnEvent(tick=21, channel=0, data=[60, 0]),
   midi.NoteOnEvent(tick=98, channel=0, data=[60, 60]),
   midi.NoteOnEvent(tick=21, channel=0, data=[62, 0]),
   midi.NoteOnEvent(tick=104, channel=0, data=[59, 60]),
   midi.NoteOnEvent(tick=15, channel=0, data=[60, 0]),
   midi.NoteOnEvent(tick=100, channel=0, data=[60, 60]),
   midi.NoteOnEvent(tick=25, channel=0, data=[59, 0]),
   midi.NoteOnEvent(tick=95, channel=0, data=[60, 0]),
   midi.NoteOnEvent(tick=2, channel=0, data=[68, 83]),
   midi.NoteOnEvent(tick=121, channel=0, data=[60, 69]),
   midi.NoteOnEvent(tick=19, channel=0, data=[68, 0]),
   midi.NoteOnEvent(tick=99, channel=0, data=[59, 62]),
   midi.NoteOnEvent(tick=22, channel=0, data=[60, 0]),
   midi.NoteOnEvent(tick=100, channel=0, data=[60, 62]),
   midi.NoteOnEvent(tick=18, channel=0, data=[59, 0]),
   midi.NoteOnEvent(tick=100, channel=0, data=[62, 69]),
   midi.NoteOnEvent(tick=22, channel=0, data=[60, 0]),
   midi.NoteOnEvent(tick=98, channel=0, data=[60, 61]),
   midi.NoteOnEvent(tick=20, channel=0, data=[62, 0]),
   midi.NoteOnEvent(tick=99, channel=0, data=[59, 61]),
   midi.NoteOnEvent(tick=21, channel=0, data=[60, 0]),
   midi.NoteOnEvent(tick=103, channel=0, data=[60, 61]),
   midi.NoteOnEvent(tick=16, channel=0, data=[59, 0]),
   midi.NoteOnEvent(tick=104, channel=0, data=[60, 0]),
   midi.NoteOnEvent(tick=358, channel=0, data=[53, 74]),
   midi.NoteOnEvent(tick=120, channel=0, data=[56, 74]),
   midi.NoteOnEvent(tick=20, channel=0, data=[53, 0]),
   midi.NoteOnEvent(tick=100, channel=0, data=[53, 70]),
   midi.NoteOnEvent(tick=20, channel=0, data=[56, 0]),
   midi.NoteOnEvent(tick=100, channel=0, data=[52, 70]),
   midi.NoteOnEvent(tick=20, channel=0, data=[53, 0]),
   midi.NoteOnEvent(tick=100, channel=0, data=[53, 70]),
   midi.NoteOnEvent(tick=20, channel=0, data=[52, 0]),
   midi.NoteOnEvent(tick=100, channel=0, data=[59, 74]),
   midi.NoteOnEvent(tick=20, channel=0, data=[53, 0]),
   midi.NoteOnEvent(tick=100, channel=0, data=[53, 70]),
   midi.NoteOnEvent(tick=20, channel=0, data=[59, 0]),
   midi.NoteOnEvent(tick=100, channel=0, data=[62, 74]),
   midi.NoteOnEvent(tick=20, channel=0, data=[53, 0]),
   midi.NoteOnEvent(tick=100, channel=0, data=[59, 70]),
   midi.NoteOnEvent(tick=20, channel=0, data=[62, 0]),
   midi.NoteOnEvent(tick=100, channel=0, data=[56, 72]),
   midi.NoteOnEvent(tick=20, channel=0, data=[59, 0]),
   midi.NoteOnEvent(tick=100, channel=0, data=[53, 71]),
   midi.NoteOnEvent(tick=20, channel=0, data=[56, 0]),
   midi.NoteOnEvent(tick=100, channel=0, data=[52, 70]),
   midi.NoteOnEvent(tick=20, channel=0, data=[53, 0]),
   midi.NoteOnEvent(tick=100, channel=0, data=[53, 69]),
   midi.NoteOnEvent(tick=20, channel=0, data=[52, 0]),
   midi.NoteOnEvent(tick=100, channel=0, data=[53, 0]),
   midi.NoteOnEvent(tick=360, channel=0, data=[55, 72]),
   midi.NoteOnEvent(tick=120, channel=0, data=[60, 75]),
   midi.NoteOnEvent(tick=20, channel=0, data=[55, 0]),
   midi.NoteOnEvent(tick=100, channel=0, data=[55, 70]),
   midi.NoteOnEvent(tick=20, channel=0, data=[60, 0]),
   midi.NoteOnEvent(tick=100, channel=0, data=[54, 70]),
   midi.NoteOnEvent(tick=20, channel=0, data=[55, 0]),
   midi.NoteOnEvent(tick=100, channel=0, data=[55, 70]),
   midi.NoteOnEvent(tick=20, channel=0, data=[54, 0]),
   midi.NoteOnEvent(tick=100, channel=0, data=[63, 74]),
   midi.NoteOnEvent(tick=20, channel=0, data=[55, 0]),
   midi.NoteOnEvent(tick=100, channel=0, data=[60, 70]),
   midi.NoteOnEvent(tick=20, channel=0, data=[63, 0]),
   midi.NoteOnEvent(tick=100, channel=0, data=[67, 74]),
   midi.NoteOnEvent(tick=20, channel=0, data=[60, 0]),
   midi.NoteOnEvent(tick=100, channel=0, data=[63, 70]),
   midi.NoteOnEvent(tick=20, channel=0, data=[67, 0]),
   midi.NoteOnEvent(tick=100, channel=0, data=[60, 74]),
   midi.NoteOnEvent(tick=20, channel=0, data=[63, 0]),
   midi.NoteOnEvent(tick=100, channel=0, data=[56, 70]),
   midi.NoteOnEvent(tick=20, channel=0, data=[60, 0]),
   midi.NoteOnEvent(tick=100, channel=0, data=[55, 72]),
   midi.NoteOnEvent(tick=20, channel=0, data=[56, 0]),
   midi.NoteOnEvent(tick=100, channel=0, data=[56, 70]),
   midi.NoteOnEvent(tick=20, channel=0, data=[55, 0]),
   midi.NoteOnEvent(tick=100, channel=0, data=[56, 0]),
   midi.NoteOnEvent(tick=360, channel=0, data=[60, 71]),
   midi.NoteOnEvent(tick=120, channel=0, data=[63, 75]),
   midi.NoteOnEvent(tick=20, channel=0, data=[60, 0]),
   midi.NoteOnEvent(tick=100, channel=0, data=[60, 70]),
   midi.NoteOnEvent(tick=20, channel=0, data=[63, 0]),
   midi.NoteOnEvent(tick=100, channel=0, data=[59, 70]),
   midi.NoteOnEvent(tick=20, channel=0, data=[60, 0]),
   midi.NoteOnEvent(tick=100, channel=0, data=[60, 70]),
   midi.NoteOnEvent(tick=20, channel=0, data=[59, 0]),
   midi.NoteOnEvent(tick=100, channel=0, data=[66, 74]),
   midi.NoteOnEvent(tick=20, channel=0, data=[60, 0]),
   midi.NoteOnEvent(tick=100, channel=0, data=[60, 70]),
   midi.NoteOnEvent(tick=20, channel=0, data=[66, 0]),
   midi.NoteOnEvent(tick=100, channel=0, data=[69, 74]),
   midi.NoteOnEvent(tick=20, channel=0, data=[60, 0]),
   midi.NoteOnEvent(tick=100, channel=0, data=[66, 70]),
   midi.NoteOnEvent(tick=20, channel=0, data=[69, 0]),
   midi.NoteOnEvent(tick=100, channel=0, data=[63, 73]),
   midi.NoteOnEvent(tick=20, channel=0, data=[66, 0]),
   midi.NoteOnEvent(tick=100, channel=0, data=[60, 70]),
   midi.NoteOnEvent(tick=20, channel=0, data=[63, 0]),
   midi.NoteOnEvent(tick=100, channel=0, data=[59, 70]),
   midi.NoteOnEvent(tick=20, channel=0, data=[60, 0]),
   midi.NoteOnEvent(tick=100, channel=0, data=[60, 70]),
   midi.NoteOnEvent(tick=20, channel=0, data=[59, 0]),
   midi.NoteOnEvent(tick=100, channel=0, data=[60, 0]),
   midi.NoteOnEvent(tick=120, channel=0, data=[74, 67]),
   midi.NoteOnEvent(tick=120, channel=0, data=[72, 65]),
   midi.NoteOnEvent(tick=20, channel=0, data=[74, 0]),
   midi.NoteOnEvent(tick=100, channel=0, data=[74, 65]),
   midi.NoteOnEvent(tick=20, channel=0, data=[72, 0]),
   midi.NoteOnEvent(tick=100, channel=0, data=[75, 72]),
   midi.NoteOnEvent(tick=20, channel=0, data=[74, 0]),
   midi.NoteOnEvent(tick=100, channel=0, data=[72, 67]),
   midi.NoteOnEvent(tick=20, channel=0, data=[75, 0]),
   midi.NoteOnEvent(tick=100, channel=0, data=[71, 63]),
   midi.NoteOnEvent(tick=20, channel=0, data=[72, 0]),
   midi.NoteOnEvent(tick=100, channel=0, data=[72, 63]),
   midi.NoteOnEvent(tick=20, channel=0, data=[71, 0]),
   midi.NoteOnEvent(tick=100, channel=0, data=[69, 73]),
   midi.NoteOnEvent(tick=20, channel=0, data=[72, 0]),
   midi.NoteOnEvent(tick=100, channel=0, data=[72, 67]),
   midi.NoteOnEvent(tick=20, channel=0, data=[69, 0]),
   midi.NoteOnEvent(tick=100, channel=0, data=[71, 64]),
   midi.NoteOnEvent(tick=20, channel=0, data=[72, 0]),
   midi.NoteOnEvent(tick=100, channel=0, data=[72, 64]),
   midi.NoteOnEvent(tick=20, channel=0, data=[71, 0]),
   midi.NoteOnEvent(tick=100, channel=0, data=[74, 67]),
   midi.NoteOnEvent(tick=20, channel=0, data=[72, 0]),
   midi.NoteOnEvent(tick=100, channel=0, data=[71, 64]),
   midi.NoteOnEvent(tick=20, channel=0, data=[74, 0]),
   midi.NoteOnEvent(tick=100, channel=0, data=[69, 64]),
   midi.NoteOnEvent(tick=20, channel=0, data=[71, 0]),
   midi.NoteOnEvent(tick=100, channel=0, data=[71, 64]),
   midi.NoteOnEvent(tick=20, channel=0, data=[69, 0]),
   midi.NoteOnEvent(tick=100, channel=0, data=[71, 0]),
   midi.NoteOnEvent(tick=0, channel=0, data=[67, 75]),
   midi.NoteOnEvent(tick=120, channel=0, data=[71, 67]),
   midi.NoteOnEvent(tick=20, channel=0, data=[67, 0]),
   midi.NoteOnEvent(tick=100, channel=0, data=[69, 64]),
   midi.NoteOnEvent(tick=20, channel=0, data=[71, 0]),
   midi.NoteOnEvent(tick=100, channel=0, data=[71, 64]),
   midi.NoteOnEvent(tick=20, channel=0, data=[69, 0]),
   midi.NoteOnEvent(tick=100, channel=0, data=[72, 70]),
   midi.NoteOnEvent(tick=20, channel=0, data=[71, 0]),
   midi.NoteOnEvent(tick=100, channel=0, data=[69, 64]),
   midi.NoteOnEvent(tick=20, channel=0, data=[72, 0]),
   midi.NoteOnEvent(tick=100, channel=0, data=[67, 64]),
   midi.NoteOnEvent(tick=20, channel=0, data=[69, 0]),
   midi.NoteOnEvent(tick=100, channel=0, data=[69, 65]),
   midi.NoteOnEvent(tick=20, channel=0, data=[67, 0]),
   midi.NoteOnEvent(tick=100, channel=0, data=[69, 0]),
   midi.NoteOnEvent(tick=0, channel=0, data=[66, 75]),
   midi.NoteOnEvent(tick=120, channel=0, data=[69, 67]),
   midi.NoteOnEvent(tick=20, channel=0, data=[66, 0]),
   midi.NoteOnEvent(tick=100, channel=0, data=[67, 64]),
   midi.NoteOnEvent(tick=20, channel=0, data=[69, 0]),
   midi.NoteOnEvent(tick=100, channel=0, data=[69, 64]),
   midi.NoteOnEvent(tick=20, channel=0, data=[67, 0]),
   midi.NoteOnEvent(tick=100, channel=0, data=[71, 70]),
   midi.NoteOnEvent(tick=20, channel=0, data=[69, 0]),
   midi.NoteOnEvent(tick=100, channel=0, data=[67, 65]),
   midi.NoteOnEvent(tick=20, channel=0, data=[71, 0]),
   midi.NoteOnEvent(tick=100, channel=0, data=[66, 65]),
   midi.NoteOnEvent(tick=20, channel=0, data=[67, 0]),
   midi.NoteOnEvent(tick=100, channel=0, data=[67, 65]),
   midi.NoteOnEvent(tick=20, channel=0, data=[66, 0]),
   midi.NoteOnEvent(tick=100, channel=0, data=[67, 0]),
   midi.NoteOnEvent(tick=0, channel=0, data=[62, 75]),
   midi.NoteOnEvent(tick=120, channel=0, data=[79, 70]),
   midi.NoteOnEvent(tick=20, channel=0, data=[62, 0]),
   midi.NoteOnEvent(tick=100, channel=0, data=[77, 67]),
   midi.NoteOnEvent(tick=20, channel=0, data=[79, 0]),
   midi.NoteOnEvent(tick=100, channel=0, data=[79, 67]),
   midi.NoteOnEvent(tick=20, channel=0, data=[77, 0]),
   midi.NoteOnEvent(tick=100, channel=0, data=[80, 73]),
   midi.NoteOnEvent(tick=20, channel=0, data=[79, 0]),
   midi.NoteOnEvent(tick=100, channel=0, data=[77, 68]),
   midi.NoteOnEvent(tick=20, channel=0, data=[80, 0]),
   midi.NoteOnEvent(tick=100, channel=0, data=[75, 68]),
   midi.NoteOnEvent(tick=20, channel=0, data=[77, 0]),
   midi.NoteOnEvent(tick=100, channel=0, data=[77, 68]),
   midi.NoteOnEvent(tick=20, channel=0, data=[75, 0]),
   midi.NoteOnEvent(tick=100, channel=0, data=[77, 0]),
   midi.NoteOnEvent(tick=0, channel=0, data=[74, 77]),
   midi.NoteOnEvent(tick=120, channel=0, data=[77, 70]),
   midi.NoteOnEvent(tick=20, channel=0, data=[74, 0]),
   midi.NoteOnEvent(tick=100, channel=0, data=[75, 66]),
   midi.NoteOnEvent(tick=20, channel=0, data=[77, 0]),
   midi.NoteOnEvent(tick=100, channel=0, data=[77, 66]),
   midi.NoteOnEvent(tick=20, channel=0, data=[75, 0]),
   midi.NoteOnEvent(tick=100, channel=0, data=[79, 73]),
   midi.NoteOnEvent(tick=20, channel=0, data=[77, 0]),
   midi.NoteOnEvent(tick=100, channel=0, data=[75, 67]),
   midi.NoteOnEvent(tick=20, channel=0, data=[79, 0]),
   midi.NoteOnEvent(tick=100, channel=0, data=[74, 67]),
   midi.NoteOnEvent(tick=20, channel=0, data=[75, 0]),
   midi.NoteOnEvent(tick=100, channel=0, data=[75, 68]),
   midi.NoteOnEvent(tick=20, channel=0, data=[74, 0]),
   midi.NoteOnEvent(tick=100, channel=0, data=[75, 0]),
   midi.NoteOnEvent(tick=0, channel=0, data=[72, 75]),
   midi.NoteOnEvent(tick=120, channel=0, data=[75, 67]),
   midi.NoteOnEvent(tick=20, channel=0, data=[72, 0]),
   midi.NoteOnEvent(tick=100, channel=0, data=[74, 65]),
   midi.NoteOnEvent(tick=20, channel=0, data=[75, 0]),
   midi.NoteOnEvent(tick=100, channel=0, data=[75, 67]),
   midi.NoteOnEvent(tick=20, channel=0, data=[74, 0]),
   midi.NoteOnEvent(tick=100, channel=0, data=[77, 71]),
   midi.NoteOnEvent(tick=20, channel=0, data=[75, 0]),
   midi.NoteOnEvent(tick=100, channel=0, data=[74, 65]),
   midi.NoteOnEvent(tick=20, channel=0, data=[77, 0]),
   midi.NoteOnEvent(tick=100, channel=0, data=[72, 65]),
   midi.NoteOnEvent(tick=20, channel=0, data=[74, 0]),
   midi.NoteOnEvent(tick=100, channel=0, data=[74, 65]),
   midi.NoteOnEvent(tick=20, channel=0, data=[72, 0]),
   midi.NoteOnEvent(tick=100, channel=0, data=[74, 0]),
   midi.NoteOnEvent(tick=0, channel=0, data=[71, 75]),
   midi.NoteOnEvent(tick=120, channel=0, data=[74, 67]),
   midi.NoteOnEvent(tick=20, channel=0, data=[71, 0]),
   midi.NoteOnEvent(tick=100, channel=0, data=[72, 65]),
   midi.NoteOnEvent(tick=20, channel=0, data=[74, 0]),
   midi.NoteOnEvent(tick=100, channel=0, data=[74, 67]),
   midi.NoteOnEvent(tick=20, channel=0, data=[72, 0]),
   midi.NoteOnEvent(tick=100, channel=0, data=[75, 71]),
   midi.NoteOnEvent(tick=20, channel=0, data=[74, 0]),
   midi.NoteOnEvent(tick=100, channel=0, data=[72, 65]),
   midi.NoteOnEvent(tick=20, channel=0, data=[75, 0]),
   midi.NoteOnEvent(tick=100, channel=0, data=[71, 65]),
   midi.NoteOnEvent(tick=20, channel=0, data=[72, 0]),
   midi.NoteOnEvent(tick=100, channel=0, data=[72, 65]),
   midi.NoteOnEvent(tick=20, channel=0, data=[71, 0]),
   midi.NoteOnEvent(tick=100, channel=0, data=[72, 0]),
   midi.NoteOnEvent(tick=0, channel=0, data=[67, 75]),
   midi.NoteOnEvent(tick=120, channel=0, data=[72, 67]),
   midi.NoteOnEvent(tick=20, channel=0, data=[67, 0]),
   midi.NoteOnEvent(tick=100, channel=0, data=[71, 64]),
   midi.NoteOnEvent(tick=20, channel=0, data=[72, 0]),
   midi.NoteOnEvent(tick=100, channel=0, data=[72, 65]),
   midi.NoteOnEvent(tick=20, channel=0, data=[71, 0]),
   midi.NoteOnEvent(tick=100, channel=0, data=[68, 80]),
   midi.NoteOnEvent(tick=20, channel=0, data=[72, 0]),
   midi.NoteOnEvent(tick=100, channel=0, data=[77, 65]),
   midi.NoteOnEvent(tick=20, channel=0, data=[68, 0]),
   midi.NoteOnEvent(tick=100, channel=0, data=[75, 65]),
   midi.NoteOnEvent(tick=20, channel=0, data=[77, 0]),
   midi.NoteOnEvent(tick=100, channel=0, data=[77, 64]),
   midi.NoteOnEvent(tick=20, channel=0, data=[75, 0]),
   midi.NoteOnEvent(tick=100, channel=0, data=[77, 0]),
   midi.NoteOnEvent(tick=0, channel=0, data=[67, 80]),
   midi.NoteOnEvent(tick=120, channel=0, data=[75, 67]),
   midi.NoteOnEvent(tick=20, channel=0, data=[67, 0]),
   midi.NoteOnEvent(tick=100, channel=0, data=[74, 65]),
   midi.NoteOnEvent(tick=20, channel=0, data=[75, 0]),
   midi.NoteOnEvent(tick=100, channel=0, data=[75, 67]),
   midi.NoteOnEvent(tick=20, channel=0, data=[74, 0]),
   midi.NoteOnEvent(tick=100, channel=0, data=[65, 81]),
   midi.NoteOnEvent(tick=20, channel=0, data=[75, 0]),
   midi.NoteOnEvent(tick=100, channel=0, data=[74, 65]),
   midi.NoteOnEvent(tick=20, channel=0, data=[65, 0]),
   midi.NoteOnEvent(tick=100, channel=0, data=[72, 65]),
   midi.NoteOnEvent(tick=20, channel=0, data=[74, 0]),
   midi.NoteOnEvent(tick=100, channel=0, data=[74, 65]),
   midi.NoteOnEvent(tick=20, channel=0, data=[72, 0]),
   midi.NoteOnEvent(tick=100, channel=0, data=[74, 0]),
   midi.NoteOnEvent(tick=0, channel=0, data=[63, 81]),
   midi.NoteOnEvent(tick=120, channel=0, data=[72, 67]),
   midi.NoteOnEvent(tick=20, channel=0, data=[63, 0]),
   midi.NoteOnEvent(tick=100, channel=0, data=[71, 65]),
   midi.NoteOnEvent(tick=20, channel=0, data=[72, 0]),
   midi.NoteOnEvent(tick=100, channel=0, data=[72, 67]),
   midi.NoteOnEvent(tick=20, channel=0, data=[71, 0]),
   midi.NoteOnEvent(tick=100, channel=0, data=[68, 81]),
   midi.NoteOnEvent(tick=20, channel=0, data=[72, 0]),
   midi.NoteOnEvent(tick=100, channel=0, data=[65, 66]),
   midi.NoteOnEvent(tick=20, channel=0, data=[68, 0]),
   midi.NoteOnEvent(tick=100, channel=0, data=[63, 66]),
   midi.NoteOnEvent(tick=20, channel=0, data=[65, 0]),
   midi.NoteOnEvent(tick=100, channel=0, data=[65, 66]),
   midi.NoteOnEvent(tick=20, channel=0, data=[63, 0]),
   midi.NoteOnEvent(tick=100, channel=0, data=[65, 0]),
   midi.NoteOnEvent(tick=0, channel=0, data=[67, 81]),
   midi.NoteOnEvent(tick=120, channel=0, data=[63, 67]),
   midi.NoteOnEvent(tick=20, channel=0, data=[67, 0]),
   midi.NoteOnEvent(tick=100, channel=0, data=[62, 65]),
   midi.NoteOnEvent(tick=20, channel=0, data=[63, 0]),
   midi.NoteOnEvent(tick=100, channel=0, data=[63, 65]),
   midi.NoteOnEvent(tick=20, channel=0, data=[62, 0]),
   midi.NoteOnEvent(tick=100, channel=0, data=[65, 81]),
   midi.NoteOnEvent(tick=20, channel=0, data=[63, 0]),
   midi.NoteOnEvent(tick=100, channel=0, data=[62, 66]),
   midi.NoteOnEvent(tick=20, channel=0, data=[65, 0]),
   midi.NoteOnEvent(tick=100, channel=0, data=[60, 66]),
   midi.NoteOnEvent(tick=20, channel=0, data=[62, 0]),
   midi.NoteOnEvent(tick=100, channel=0, data=[62, 67]),
   midi.NoteOnEvent(tick=20, channel=0, data=[60, 0]),
   midi.NoteOnEvent(tick=100, channel=0, data=[62, 0]),
   midi.NoteOnEvent(tick=45, channel=0, data=[60, 67]),
   midi.NoteOnEvent(tick=15, channel=0, data=[64, 67]),
   midi.NoteOnEvent(tick=240, channel=0, data=[64, 0]),
   midi.NoteOnEvent(tick=0, channel=0, data=[60, 58]),
   midi.NoteOnEvent(tick=60, channel=0, data=[60, 0]),
   midi.NoteOnEvent(tick=0, channel=0, data=[62, 60]),
   midi.NoteOnEvent(tick=60, channel=0, data=[62, 0]),
   midi.NoteOnEvent(tick=0, channel=0, data=[64, 63]),
   midi.NoteOnEvent(tick=60, channel=0, data=[64, 0]),
   midi.NoteOnEvent(tick=0, channel=0, data=[60, 0]),
   midi.NoteOnEvent(tick=0, channel=0, data=[65, 66]),
   midi.NoteOnEvent(tick=30, channel=0, data=[65, 0]),
   midi.NoteOnEvent(tick=0, channel=0, data=[67, 67]),
   midi.NoteOnEvent(tick=30, channel=0, data=[67, 0]),
   midi.NoteOnEvent(tick=0, channel=0, data=[68, 68]),
   midi.NoteOnEvent(tick=30, channel=0, data=[68, 0]),
   midi.NoteOnEvent(tick=0, channel=0, data=[70, 68]),
   midi.NoteOnEvent(tick=30, channel=0, data=[70, 0]),
   midi.NoteOnEvent(tick=0, channel=0, data=[72, 66]),
   midi.NoteOnEvent(tick=30, channel=0, data=[72, 0]),
   midi.NoteOnEvent(tick=0, channel=0, data=[70, 65]),
   midi.NoteOnEvent(tick=30, channel=0, data=[70, 0]),
   midi.NoteOnEvent(tick=0, channel=0, data=[68, 64]),
   midi.NoteOnEvent(tick=30, channel=0, data=[68, 0]),
   midi.NoteOnEvent(tick=0, channel=0, data=[67, 63]),
   midi.NoteOnEvent(tick=30, channel=0, data=[67, 0]),
   midi.NoteOnEvent(tick=0, channel=0, data=[65, 62]),
   midi.NoteOnEvent(tick=120, channel=0, data=[65, 0]),
   midi.NoteOnEvent(tick=0, channel=0, data=[67, 67]),
   midi.NoteOnEvent(tick=60, channel=0, data=[67, 0]),
   midi.NoteOnEvent(tick=0, channel=0, data=[64, 67]),
   midi.NoteOnEvent(tick=60, channel=0, data=[64, 0]),
   midi.NoteOnEvent(tick=45, channel=0, data=[60, 67]),
   midi.NoteOnEvent(tick=15, channel=0, data=[65, 80]),
   midi.NoteOnEvent(tick=20, channel=0, data=[65, 0]),
   midi.NoteOnEvent(tick=0, channel=0, data=[64, 70]),
   midi.NoteOnEvent(tick=20, channel=0, data=[64, 0]),
   midi.NoteOnEvent(tick=0, channel=0, data=[65, 78]),
   midi.NoteOnEvent(tick=200, channel=0, data=[65, 0]),
   midi.NoteOnEvent(tick=0, channel=0, data=[67, 67]),
   midi.NoteOnEvent(tick=60, channel=0, data=[67, 0]),
   midi.NoteOnEvent(tick=0, channel=0, data=[65, 64]),
   midi.NoteOnEvent(tick=60, channel=0, data=[65, 0]),
   midi.NoteOnEvent(tick=0, channel=0, data=[64, 64]),
   midi.NoteOnEvent(tick=60, channel=0, data=[64, 0]),
   midi.NoteOnEvent(tick=0, channel=0, data=[60, 0]),
   midi.NoteOnEvent(tick=0, channel=0, data=[65, 65]),
   midi.NoteOnEvent(tick=60, channel=0, data=[65, 0]),
   midi.NoteOnEvent(tick=0, channel=0, data=[67, 65]),
   midi.NoteOnEvent(tick=60, channel=0, data=[67, 0]),
   midi.NoteOnEvent(tick=0, channel=0, data=[68, 67]),
   midi.NoteOnEvent(tick=60, channel=0, data=[68, 0]),
   midi.NoteOnEvent(tick=0, channel=0, data=[67, 67]),
   midi.NoteOnEvent(tick=60, channel=0, data=[67, 0]),
   midi.NoteOnEvent(tick=0, channel=0, data=[65, 66]),
   midi.NoteOnEvent(tick=30, channel=0, data=[65, 0]),
   midi.NoteOnEvent(tick=0, channel=0, data=[63, 65]),
   midi.NoteOnEvent(tick=30, channel=0, data=[63, 0]),
   midi.NoteOnEvent(tick=0, channel=0, data=[62, 64]),
   midi.NoteOnEvent(tick=30, channel=0, data=[62, 0]),
   midi.NoteOnEvent(tick=0, channel=0, data=[63, 65]),
   midi.NoteOnEvent(tick=30, channel=0, data=[63, 0]),
   midi.NoteOnEvent(tick=0, channel=0, data=[65, 68]),
   midi.NoteOnEvent(tick=30, channel=0, data=[65, 0]),
   midi.NoteOnEvent(tick=0, channel=0, data=[62, 63]),
   midi.NoteOnEvent(tick=30, channel=0, data=[62, 0]),
   midi.NoteOnEvent(tick=0, channel=0, data=[63, 65]),
   midi.NoteOnEvent(tick=30, channel=0, data=[63, 0]),
   midi.NoteOnEvent(tick=0, channel=0, data=[65, 67]),
   midi.NoteOnEvent(tick=30, channel=0, data=[65, 0]),
   midi.NoteOnEvent(tick=0, channel=0, data=[59, 67]),
   midi.NoteOnEvent(tick=360, channel=0, data=[59, 0]),
   midi.NoteOnEvent(tick=0, channel=0, data=[50, 69]),
   midi.NoteOnEvent(tick=120, channel=0, data=[53, 69]),
   midi.NoteOnEvent(tick=20, channel=0, data=[50, 0]),
   midi.NoteOnEvent(tick=100, channel=0, data=[56, 72]),
   midi.NoteOnEvent(tick=20, channel=0, data=[53, 0]),
   midi.NoteOnEvent(tick=100, channel=0, data=[55, 71]),
   midi.NoteOnEvent(tick=20, channel=0, data=[56, 0]),
   midi.NoteOnEvent(tick=100, channel=0, data=[53, 69]),
   midi.NoteOnEvent(tick=20, channel=0, data=[55, 0]),
   midi.NoteOnEvent(tick=100, channel=0, data=[59, 72]),
   midi.NoteOnEvent(tick=20, channel=0, data=[53, 0]),
   midi.NoteOnEvent(tick=100, channel=0, data=[53, 67]),
   midi.NoteOnEvent(tick=20, channel=0, data=[59, 0]),
   midi.NoteOnEvent(tick=100, channel=0, data=[62, 74]),
   midi.NoteOnEvent(tick=20, channel=0, data=[53, 0]),
   midi.NoteOnEvent(tick=100, channel=0, data=[53, 67]),
   midi.NoteOnEvent(tick=20, channel=0, data=[62, 0]),
   midi.NoteOnEvent(tick=100, channel=0, data=[59, 70]),
   midi.NoteOnEvent(tick=20, channel=0, data=[53, 0]),
   midi.NoteOnEvent(tick=100, channel=0, data=[56, 69]),
   midi.NoteOnEvent(tick=20, channel=0, data=[59, 0]),
   midi.NoteOnEvent(tick=100, channel=0, data=[55, 68]),
   midi.NoteOnEvent(tick=20, channel=0, data=[56, 0]),
   midi.NoteOnEvent(tick=100, channel=0, data=[53, 67]),
   midi.NoteOnEvent(tick=20, channel=0, data=[55, 0]),
   midi.NoteOnEvent(tick=100, channel=0, data=[53, 0]),
   midi.NoteOnEvent(tick=0, channel=0, data=[52, 72]),
   midi.NoteOnEvent(tick=120, channel=0, data=[61, 67]),
   midi.NoteOnEvent(tick=20, channel=0, data=[52, 0]),
   midi.NoteOnEvent(tick=100, channel=0, data=[58, 67]),
   midi.NoteOnEvent(tick=20, channel=0, data=[61, 0]),
   midi.NoteOnEvent(tick=100, channel=0, data=[55, 67]),
   midi.NoteOnEvent(tick=20, channel=0, data=[58, 0]),
   midi.NoteOnEvent(tick=100, channel=0, data=[60, 72]),
   midi.NoteOnEvent(tick=20, channel=0, data=[55, 0]),
   midi.NoteOnEvent(tick=100, channel=0, data=[56, 67]),
   midi.NoteOnEvent(tick=20, channel=0, data=[60, 0]),
   midi.NoteOnEvent(tick=100, channel=0, data=[53, 67]),
   midi.NoteOnEvent(tick=20, channel=0, data=[56, 0]),
   midi.NoteOnEvent(tick=100, channel=0, data=[56, 67]),
   midi.NoteOnEvent(tick=20, channel=0, data=[53, 0]),
   midi.NoteOnEvent(tick=100, channel=0, data=[55, 72]),
   midi.NoteOnEvent(tick=20, channel=0, data=[56, 0]),
   midi.NoteOnEvent(tick=100, channel=0, data=[58, 67]),
   midi.NoteOnEvent(tick=20, channel=0, data=[55, 0]),
   midi.NoteOnEvent(tick=100, channel=0, data=[55, 67]),
   midi.NoteOnEvent(tick=20, channel=0, data=[58, 0]),
   midi.NoteOnEvent(tick=100, channel=0, data=[52, 67]),
   midi.NoteOnEvent(tick=20, channel=0, data=[55, 0]),
   midi.NoteOnEvent(tick=100, channel=0, data=[56, 72]),
   midi.NoteOnEvent(tick=20, channel=0, data=[52, 0]),
   midi.NoteOnEvent(tick=100, channel=0, data=[53, 67]),
   midi.NoteOnEvent(tick=20, channel=0, data=[56, 0]),
   midi.NoteOnEvent(tick=100, channel=0, data=[50, 67]),
   midi.NoteOnEvent(tick=20, channel=0, data=[53, 0]),
   midi.NoteOnEvent(tick=100, channel=0, data=[53, 67]),
   midi.NoteOnEvent(tick=20, channel=0, data=[50, 0]),
   midi.NoteOnEvent(tick=100, channel=0, data=[52, 71]),
   midi.NoteOnEvent(tick=20, channel=0, data=[53, 0]),
   midi.NoteOnEvent(tick=100, channel=0, data=[55, 67]),
   midi.NoteOnEvent(tick=20, channel=0, data=[52, 0]),
   midi.NoteOnEvent(tick=100, channel=0, data=[52, 67]),
   midi.NoteOnEvent(tick=20, channel=0, data=[55, 0]),
   midi.NoteOnEvent(tick=100, channel=0, data=[48, 67]),
   midi.NoteOnEvent(tick=20, channel=0, data=[52, 0]),
   midi.NoteOnEvent(tick=100, channel=0, data=[53, 73]),
   midi.NoteOnEvent(tick=20, channel=0, data=[48, 0]),
   midi.NoteOnEvent(tick=100, channel=0, data=[50, 67]),
   midi.NoteOnEvent(tick=20, channel=0, data=[53, 0]),
   midi.NoteOnEvent(tick=100, channel=0, data=[47, 67]),
   midi.NoteOnEvent(tick=20, channel=0, data=[50, 0]),
   midi.NoteOnEvent(tick=100, channel=0, data=[50, 67]),
   midi.NoteOnEvent(tick=20, channel=0, data=[47, 0]),
   midi.NoteOnEvent(tick=100, channel=0, data=[50, 0]),
   midi.NoteOnEvent(tick=360, channel=0, data=[50, 67]),
   midi.NoteOnEvent(tick=120, channel=0, data=[52, 68]),
   midi.NoteOnEvent(tick=20, channel=0, data=[50, 0]),
   midi.NoteOnEvent(tick=100, channel=0, data=[55, 67]),
   midi.NoteOnEvent(tick=20, channel=0, data=[52, 0]),
   midi.NoteOnEvent(tick=100, channel=0, data=[58, 71]),
   midi.NoteOnEvent(tick=20, channel=0, data=[55, 0]),
   midi.NoteOnEvent(tick=100, channel=0, data=[55, 67]),
   midi.NoteOnEvent(tick=20, channel=0, data=[58, 0]),
   midi.NoteOnEvent(tick=100, channel=0, data=[56, 68]),
   midi.NoteOnEvent(tick=20, channel=0, data=[55, 0]),
   midi.NoteOnEvent(tick=100, channel=0, data=[60, 65]),
   midi.NoteOnEvent(tick=20, channel=0, data=[56, 0]),
   midi.NoteOnEvent(tick=100, channel=0, data=[65, 68]),
   midi.NoteOnEvent(tick=20, channel=0, data=[60, 0]),
   midi.NoteOnEvent(tick=100, channel=0, data=[62, 67]),
   midi.NoteOnEvent(tick=20, channel=0, data=[65, 0]),
   midi.NoteOnEvent(tick=100, channel=0, data=[65, 64]),
   midi.NoteOnEvent(tick=20, channel=0, data=[62, 0]),
   midi.NoteOnEvent(tick=100, channel=0, data=[68, 59]),
   midi.NoteOnEvent(tick=20, channel=0, data=[65, 0]),
   midi.NoteOnEvent(tick=100, channel=0, data=[72, 62]),
   midi.NoteOnEvent(tick=20, channel=0, data=[68, 0]),
   midi.NoteOnEvent(tick=100, channel=0, data=[71, 57]),
   midi.NoteOnEvent(tick=20, channel=0, data=[72, 0]),
   midi.NoteOnEvent(tick=100, channel=0, data=[72, 59]),
   midi.NoteOnEvent(tick=20, channel=0, data=[71, 0]),
   midi.NoteOnEvent(tick=100, channel=0, data=[67, 54]),
   midi.NoteOnEvent(tick=20, channel=0, data=[72, 0]),
   midi.NoteOnEvent(tick=100, channel=0, data=[65, 52]),
   midi.NoteOnEvent(tick=20, channel=0, data=[67, 0]),
   midi.NoteOnEvent(tick=100, channel=0, data=[62, 49]),
   midi.NoteOnEvent(tick=20, channel=0, data=[65, 0]),
   midi.NoteOnEvent(tick=100, channel=0, data=[64, 42]),
   midi.NoteOnEvent(tick=20, channel=0, data=[62, 0]),
   midi.NoteOnEvent(tick=340, channel=0, data=[64, 0]),
   midi.EndOfTrackEvent(tick=0, data=[])]),
 midi.Track(\
[    midi.ControlChangeEvent(tick=0, channel=0, data=[7, 100]),
   midi.ControlChangeEvent(tick=0, channel=0, data=[10, 64]),
   midi.ControlChangeEvent(tick=0, channel=0, data=[91, 127]),
   midi.ControlChangeEvent(tick=0, channel=0, data=[64, 0]),
   midi.NoteOnEvent(tick=3, channel=0, data=[48, 88]),
   midi.NoteOnEvent(tick=120, channel=0, data=[55, 73]),
   midi.NoteOnEvent(tick=20, channel=0, data=[48, 0]),
   midi.NoteOnEvent(tick=99, channel=0, data=[53, 72]),
   midi.NoteOnEvent(tick=21, channel=0, data=[55, 0]),
   midi.NoteOnEvent(tick=99, channel=0, data=[55, 72]),
   midi.NoteOnEvent(tick=20, channel=0, data=[53, 0]),
   midi.NoteOnEvent(tick=99, channel=0, data=[51, 80]),
   midi.NoteOnEvent(tick=21, channel=0, data=[55, 0]),
   midi.NoteOnEvent(tick=98, channel=0, data=[55, 72]),
   midi.NoteOnEvent(tick=21, channel=0, data=[51, 0]),
   midi.NoteOnEvent(tick=102, channel=0, data=[53, 73]),
   midi.NoteOnEvent(tick=17, channel=0, data=[55, 0]),
   midi.NoteOnEvent(tick=99, channel=0, data=[55, 73]),
   midi.NoteOnEvent(tick=24, channel=0, data=[53, 0]),
   midi.NoteOnEvent(tick=96, channel=0, data=[55, 0]),
   midi.NoteOnEvent(tick=4, channel=0, data=[48, 88]),
   midi.NoteOnEvent(tick=116, channel=0, data=[55, 74]),
   midi.NoteOnEvent(tick=24, channel=0, data=[48, 0]),
   midi.NoteOnEvent(tick=96, channel=0, data=[53, 74]),
   midi.NoteOnEvent(tick=20, channel=0, data=[55, 0]),
   midi.NoteOnEvent(tick=102, channel=0, data=[55, 72]),
   midi.NoteOnEvent(tick=18, channel=0, data=[53, 0]),
   midi.NoteOnEvent(tick=104, channel=0, data=[51, 80]),
   midi.NoteOnEvent(tick=18, channel=0, data=[55, 0]),
   midi.NoteOnEvent(tick=97, channel=0, data=[55, 73]),
   midi.NoteOnEvent(tick=25, channel=0, data=[51, 0]),
   midi.NoteOnEvent(tick=95, channel=0, data=[53, 73]),
   midi.NoteOnEvent(tick=20, channel=0, data=[55, 0]),
   midi.NoteOnEvent(tick=103, channel=0, data=[55, 73]),
   midi.NoteOnEvent(tick=17, channel=0, data=[53, 0]),
   midi.NoteOnEvent(tick=102, channel=0, data=[48, 88]),
   midi.NoteOnEvent(tick=1, channel=0, data=[55, 0]),
   midi.NoteOnEvent(tick=117, channel=0, data=[56, 73]),
   midi.NoteOnEvent(tick=22, channel=0, data=[48, 0]),
   midi.NoteOnEvent(tick=99, channel=0, data=[55, 73]),
   midi.NoteOnEvent(tick=19, channel=0, data=[56, 0]),
   midi.NoteOnEvent(tick=105, channel=0, data=[56, 73]),
   midi.NoteOnEvent(tick=16, channel=0, data=[55, 0]),
   midi.NoteOnEvent(tick=100, channel=0, data=[53, 80]),
   midi.NoteOnEvent(tick=24, channel=0, data=[56, 0]),
   midi.NoteOnEvent(tick=95, channel=0, data=[56, 73]),
   midi.NoteOnEvent(tick=21, channel=0, data=[53, 0]),
   midi.NoteOnEvent(tick=99, channel=0, data=[55, 73]),
   midi.NoteOnEvent(tick=20, channel=0, data=[56, 0]),
   midi.NoteOnEvent(tick=105, channel=0, data=[56, 73]),
   midi.NoteOnEvent(tick=15, channel=0, data=[55, 0]),
   midi.NoteOnEvent(tick=100, channel=0, data=[48, 88]),
   midi.NoteOnEvent(tick=5, channel=0, data=[56, 0]),
   midi.NoteOnEvent(tick=115, channel=0, data=[56, 74]),
   midi.NoteOnEvent(tick=20, channel=0, data=[48, 0]),
   midi.NoteOnEvent(tick=100, channel=0, data=[55, 72]),
   midi.NoteOnEvent(tick=20, channel=0, data=[56, 0]),
   midi.NoteOnEvent(tick=102, channel=0, data=[56, 72]),
   midi.NoteOnEvent(tick=18, channel=0, data=[55, 0]),
   midi.NoteOnEvent(tick=105, channel=0, data=[53, 80]),
   midi.NoteOnEvent(tick=17, channel=0, data=[56, 0]),
   midi.NoteOnEvent(tick=100, channel=0, data=[56, 74]),
   midi.NoteOnEvent(tick=23, channel=0, data=[53, 0]),
   midi.NoteOnEvent(tick=97, channel=0, data=[55, 74]),
   midi.NoteOnEvent(tick=20, channel=0, data=[56, 0]),
   midi.NoteOnEvent(tick=103, channel=0, data=[56, 74]),
   midi.NoteOnEvent(tick=17, channel=0, data=[55, 0]),
   midi.NoteOnEvent(tick=103, channel=0, data=[56, 0]),
   midi.NoteOnEvent(tick=0, channel=0, data=[48, 88]),
   midi.NoteOnEvent(tick=118, channel=0, data=[56, 74]),
   midi.NoteOnEvent(tick=22, channel=0, data=[48, 0]),
   midi.NoteOnEvent(tick=100, channel=0, data=[55, 74]),
   midi.NoteOnEvent(tick=18, channel=0, data=[56, 0]),
   midi.NoteOnEvent(tick=101, channel=0, data=[56, 74]),
   midi.NoteOnEvent(tick=21, channel=0, data=[55, 0]),
   midi.NoteOnEvent(tick=97, channel=0, data=[53, 80]),
   midi.NoteOnEvent(tick=22, channel=0, data=[56, 0]),
   midi.NoteOnEvent(tick=97, channel=0, data=[56, 74]),
   midi.NoteOnEvent(tick=21, channel=0, data=[53, 0]),
   midi.NoteOnEvent(tick=98, channel=0, data=[55, 74]),
   midi.NoteOnEvent(tick=21, channel=0, data=[56, 0]),
   midi.NoteOnEvent(tick=102, channel=0, data=[56, 73]),
   midi.NoteOnEvent(tick=17, channel=0, data=[55, 0]),
   midi.NoteOnEvent(tick=103, channel=0, data=[56, 0]),
   midi.NoteOnEvent(tick=2, channel=0, data=[48, 88]),
   midi.NoteOnEvent(tick=117, channel=0, data=[56, 75]),
   midi.NoteOnEvent(tick=23, channel=0, data=[48, 0]),
   midi.NoteOnEvent(tick=96, channel=0, data=[55, 75]),
   midi.NoteOnEvent(tick=21, channel=0, data=[56, 0]),
   midi.NoteOnEvent(tick=101, channel=0, data=[56, 75]),
   midi.NoteOnEvent(tick=18, channel=0, data=[55, 0]),
   midi.NoteOnEvent(tick=100, channel=0, data=[53, 80]),
   midi.NoteOnEvent(tick=22, channel=0, data=[56, 0]),
   midi.NoteOnEvent(tick=101, channel=0, data=[56, 74]),
   midi.NoteOnEvent(tick=17, channel=0, data=[53, 0]),
   midi.NoteOnEvent(tick=104, channel=0, data=[55, 74]),
   midi.NoteOnEvent(tick=19, channel=0, data=[56, 0]),
   midi.NoteOnEvent(tick=98, channel=0, data=[56, 74]),
   midi.NoteOnEvent(tick=23, channel=0, data=[55, 0]),
   midi.NoteOnEvent(tick=97, channel=0, data=[56, 0]),
   midi.NoteOnEvent(tick=3, channel=0, data=[48, 88]),
   midi.NoteOnEvent(tick=115, channel=0, data=[51, 75]),
   midi.NoteOnEvent(tick=25, channel=0, data=[48, 0]),
   midi.NoteOnEvent(tick=100, channel=0, data=[50, 75]),
   midi.NoteOnEvent(tick=15, channel=0, data=[51, 0]),
   midi.NoteOnEvent(tick=103, channel=0, data=[51, 75]),
   midi.NoteOnEvent(tick=22, channel=0, data=[50, 0]),
   midi.NoteOnEvent(tick=99, channel=0, data=[55, 80]),
   midi.NoteOnEvent(tick=19, channel=0, data=[51, 0]),
   midi.NoteOnEvent(tick=100, channel=0, data=[51, 75]),
   midi.NoteOnEvent(tick=21, channel=0, data=[55, 0]),
   midi.NoteOnEvent(tick=96, channel=0, data=[50, 75]),
   midi.NoteOnEvent(tick=23, channel=0, data=[51, 0]),
   midi.NoteOnEvent(tick=98, channel=0, data=[51, 75]),
   midi.NoteOnEvent(tick=19, channel=0, data=[50, 0]),
   midi.NoteOnEvent(tick=101, channel=0, data=[51, 0]),
   midi.NoteOnEvent(tick=1, channel=0, data=[48, 88]),
   midi.NoteOnEvent(tick=118, channel=0, data=[51, 75]),
   midi.NoteOnEvent(tick=22, channel=0, data=[48, 0]),
   midi.NoteOnEvent(tick=100, channel=0, data=[50, 75]),
   midi.NoteOnEvent(tick=18, channel=0, data=[51, 0]),
   midi.NoteOnEvent(tick=100, channel=0, data=[51, 75]),
   midi.NoteOnEvent(tick=22, channel=0, data=[50, 0]),
   midi.NoteOnEvent(tick=101, channel=0, data=[55, 80]),
   midi.NoteOnEvent(tick=17, channel=0, data=[51, 0]),
   midi.NoteOnEvent(tick=105, channel=0, data=[51, 75]),
   midi.NoteOnEvent(tick=18, channel=0, data=[55, 0]),
   midi.NoteOnEvent(tick=97, channel=0, data=[50, 75]),
   midi.NoteOnEvent(tick=25, channel=0, data=[51, 0]),
   midi.NoteOnEvent(tick=99, channel=0, data=[51, 75]),
   midi.NoteOnEvent(tick=16, channel=0, data=[50, 0]),
   midi.NoteOnEvent(tick=103, channel=0, data=[48, 88]),
   midi.NoteOnEvent(tick=1, channel=0, data=[51, 0]),
   midi.NoteOnEvent(tick=120, channel=0, data=[60, 75]),
   midi.NoteOnEvent(tick=19, channel=0, data=[48, 0]),
   midi.NoteOnEvent(tick=101, channel=0, data=[58, 75]),
   midi.NoteOnEvent(tick=20, channel=0, data=[60, 0]),
   midi.NoteOnEvent(tick=99, channel=0, data=[60, 75]),
   midi.NoteOnEvent(tick=21, channel=0, data=[58, 0]),
   midi.NoteOnEvent(tick=100, channel=0, data=[56, 80]),
   midi.NoteOnEvent(tick=19, channel=0, data=[60, 0]),
   midi.NoteOnEvent(tick=97, channel=0, data=[60, 75]),
   midi.NoteOnEvent(tick=24, channel=0, data=[56, 0]),
   midi.NoteOnEvent(tick=100, channel=0, data=[58, 75]),
   midi.NoteOnEvent(tick=16, channel=0, data=[60, 0]),
   midi.NoteOnEvent(tick=104, channel=0, data=[60, 74]),
   midi.NoteOnEvent(tick=20, channel=0, data=[58, 0]),
   midi.NoteOnEvent(tick=100, channel=0, data=[60, 0]),
   midi.NoteOnEvent(tick=0, channel=0, data=[48, 88]),
   midi.NoteOnEvent(tick=116, channel=0, data=[60, 76]),
   midi.NoteOnEvent(tick=24, channel=0, data=[48, 0]),
   midi.NoteOnEvent(tick=101, channel=0, data=[58, 76]),
   midi.NoteOnEvent(tick=15, channel=0, data=[60, 0]),
   midi.NoteOnEvent(tick=103, channel=0, data=[60, 76]),
   midi.NoteOnEvent(tick=22, channel=0, data=[58, 0]),
   midi.NoteOnEvent(tick=99, channel=0, data=[56, 80]),
   midi.NoteOnEvent(tick=19, channel=0, data=[60, 0]),
   midi.NoteOnEvent(tick=97, channel=0, data=[60, 75]),
   midi.NoteOnEvent(tick=24, channel=0, data=[56, 0]),
   midi.NoteOnEvent(tick=99, channel=0, data=[58, 75]),
   midi.NoteOnEvent(tick=17, channel=0, data=[60, 0]),
   midi.NoteOnEvent(tick=105, channel=0, data=[60, 75]),
   midi.NoteOnEvent(tick=18, channel=0, data=[58, 0]),
   midi.NoteOnEvent(tick=97, channel=0, data=[48, 88]),
   midi.NoteOnEvent(tick=5, channel=0, data=[60, 0]),
   midi.NoteOnEvent(tick=116, channel=0, data=[57, 76]),
   midi.NoteOnEvent(tick=19, channel=0, data=[48, 0]),
   midi.NoteOnEvent(tick=100, channel=0, data=[55, 76]),
   midi.NoteOnEvent(tick=21, channel=0, data=[57, 0]),
   midi.NoteOnEvent(tick=104, channel=0, data=[57, 76]),
   midi.NoteOnEvent(tick=15, channel=0, data=[55, 0]),
   midi.NoteOnEvent(tick=103, channel=0, data=[54, 80]),
   midi.NoteOnEvent(tick=22, channel=0, data=[57, 0]),
   midi.NoteOnEvent(tick=96, channel=0, data=[57, 75]),
   midi.NoteOnEvent(tick=22, channel=0, data=[54, 0]),
   midi.NoteOnEvent(tick=102, channel=0, data=[55, 75]),
   midi.NoteOnEvent(tick=16, channel=0, data=[57, 0]),
   midi.NoteOnEvent(tick=101, channel=0, data=[57, 75]),
   midi.NoteOnEvent(tick=23, channel=0, data=[55, 0]),
   midi.NoteOnEvent(tick=97, channel=0, data=[57, 0]),
   midi.NoteOnEvent(tick=2, channel=0, data=[48, 88]),
   midi.NoteOnEvent(tick=117, channel=0, data=[57, 75]),
   midi.NoteOnEvent(tick=23, channel=0, data=[48, 0]),
   midi.NoteOnEvent(tick=96, channel=0, data=[55, 75]),
   midi.NoteOnEvent(tick=21, channel=0, data=[57, 0]),
   midi.NoteOnEvent(tick=100, channel=0, data=[57, 75]),
   midi.NoteOnEvent(tick=19, channel=0, data=[55, 0]),
   midi.NoteOnEvent(tick=103, channel=0, data=[54, 80]),
   midi.NoteOnEvent(tick=18, channel=0, data=[57, 0]),
   midi.NoteOnEvent(tick=104, channel=0, data=[57, 74]),
   midi.NoteOnEvent(tick=18, channel=0, data=[54, 0]),
   midi.NoteOnEvent(tick=97, channel=0, data=[55, 74]),
   midi.NoteOnEvent(tick=25, channel=0, data=[57, 0]),
   midi.NoteOnEvent(tick=100, channel=0, data=[57, 74]),
   midi.NoteOnEvent(tick=15, channel=0, data=[55, 0]),
   midi.NoteOnEvent(tick=102, channel=0, data=[46, 88]),
   midi.NoteOnEvent(tick=3, channel=0, data=[57, 0]),
   midi.NoteOnEvent(tick=115, channel=0, data=[58, 75]),
   midi.NoteOnEvent(tick=22, channel=0, data=[46, 0]),
   midi.NoteOnEvent(tick=102, channel=0, data=[57, 75]),
   midi.NoteOnEvent(tick=16, channel=0, data=[58, 0]),
   midi.NoteOnEvent(tick=101, channel=0, data=[58, 75]),
   midi.NoteOnEvent(tick=23, channel=0, data=[57, 0]),
   midi.NoteOnEvent(tick=101, channel=0, data=[55, 80]),
   midi.NoteOnEvent(tick=16, channel=0, data=[58, 0]),
   midi.NoteOnEvent(tick=103, channel=0, data=[58, 74]),
   midi.NoteOnEvent(tick=21, channel=0, data=[55, 0]),
   midi.NoteOnEvent(tick=100, channel=0, data=[57, 74]),
   midi.NoteOnEvent(tick=19, channel=0, data=[58, 0]),
   midi.NoteOnEvent(tick=97, channel=0, data=[58, 74]),
   midi.NoteOnEvent(tick=24, channel=0, data=[57, 0]),
   midi.NoteOnEvent(tick=96, channel=0, data=[58, 0]),
   midi.NoteOnEvent(tick=1, channel=0, data=[46, 88]),
   midi.NoteOnEvent(tick=118, channel=0, data=[58, 74]),
   midi.NoteOnEvent(tick=22, channel=0, data=[46, 0]),
   midi.NoteOnEvent(tick=102, channel=0, data=[57, 74]),
   midi.NoteOnEvent(tick=16, channel=0, data=[58, 0]),
   midi.NoteOnEvent(tick=100, channel=0, data=[58, 74]),
   midi.NoteOnEvent(tick=24, channel=0, data=[57, 0]),
   midi.NoteOnEvent(tick=98, channel=0, data=[55, 80]),
   midi.NoteOnEvent(tick=18, channel=0, data=[58, 0]),
   midi.NoteOnEvent(tick=101, channel=0, data=[58, 74]),
   midi.NoteOnEvent(tick=21, channel=0, data=[55, 0]),
   midi.NoteOnEvent(tick=103, channel=0, data=[57, 74]),
   midi.NoteOnEvent(tick=16, channel=0, data=[58, 0]),
   midi.NoteOnEvent(tick=99, channel=0, data=[58, 74]),
   midi.NoteOnEvent(tick=25, channel=0, data=[57, 0]),
   midi.NoteOnEvent(tick=95, channel=0, data=[58, 0]),
   midi.NoteOnEvent(tick=1, channel=0, data=[46, 88]),
   midi.NoteOnEvent(tick=120, channel=0, data=[55, 75]),
   midi.NoteOnEvent(tick=20, channel=0, data=[46, 0]),
   midi.NoteOnEvent(tick=100, channel=0, data=[53, 75]),
   midi.NoteOnEvent(tick=20, channel=0, data=[55, 0]),
   midi.NoteOnEvent(tick=99, channel=0, data=[55, 75]),
   midi.NoteOnEvent(tick=21, channel=0, data=[53, 0]),
   midi.NoteOnEvent(tick=102, channel=0, data=[52, 80]),
   midi.NoteOnEvent(tick=17, channel=0, data=[55, 0]),
   midi.NoteOnEvent(tick=105, channel=0, data=[55, 74]),
   midi.NoteOnEvent(tick=18, channel=0, data=[52, 0]),
   midi.NoteOnEvent(tick=102, channel=0, data=[53, 74]),
   midi.NoteOnEvent(tick=20, channel=0, data=[55, 0]),
   midi.NoteOnEvent(tick=96, channel=0, data=[55, 74]),
   midi.NoteOnEvent(tick=24, channel=0, data=[53, 0]),
   midi.NoteOnEvent(tick=96, channel=0, data=[55, 0]),
   midi.NoteOnEvent(tick=3, channel=0, data=[46, 88]),
   midi.NoteOnEvent(tick=119, channel=0, data=[55, 73]),
   midi.NoteOnEvent(tick=21, channel=0, data=[46, 0]),
   midi.NoteOnEvent(tick=99, channel=0, data=[53, 73]),
   midi.NoteOnEvent(tick=20, channel=0, data=[55, 0]),
   midi.NoteOnEvent(tick=102, channel=0, data=[55, 73]),
   midi.NoteOnEvent(tick=18, channel=0, data=[53, 0]),
   midi.NoteOnEvent(tick=99, channel=0, data=[52, 80]),
   midi.NoteOnEvent(tick=23, channel=0, data=[55, 0]),
   midi.NoteOnEvent(tick=100, channel=0, data=[55, 73]),
   midi.NoteOnEvent(tick=17, channel=0, data=[52, 0]),
   midi.NoteOnEvent(tick=101, channel=0, data=[53, 73]),
   midi.NoteOnEvent(tick=22, channel=0, data=[55, 0]),
   midi.NoteOnEvent(tick=95, channel=0, data=[55, 73]),
   midi.NoteOnEvent(tick=23, channel=0, data=[53, 0]),
   midi.NoteOnEvent(tick=97, channel=0, data=[55, 0]),
   midi.NoteOnEvent(tick=3, channel=0, data=[44, 88]),
   midi.NoteOnEvent(tick=120, channel=0, data=[56, 73]),
   midi.NoteOnEvent(tick=20, channel=0, data=[44, 0]),
   midi.NoteOnEvent(tick=99, channel=0, data=[55, 73]),
   midi.NoteOnEvent(tick=21, channel=0, data=[56, 0]),
   midi.NoteOnEvent(tick=102, channel=0, data=[56, 73]),
   midi.NoteOnEvent(tick=17, channel=0, data=[55, 0]),
   midi.NoteOnEvent(tick=101, channel=0, data=[53, 80]),
   midi.NoteOnEvent(tick=22, channel=0, data=[56, 0]),
   midi.NoteOnEvent(tick=98, channel=0, data=[56, 73]),
   midi.NoteOnEvent(tick=20, channel=0, data=[53, 0]),
   midi.NoteOnEvent(tick=100, channel=0, data=[55, 73]),
   midi.NoteOnEvent(tick=20, channel=0, data=[56, 0]),
   midi.NoteOnEvent(tick=98, channel=0, data=[56, 74]),
   midi.NoteOnEvent(tick=22, channel=0, data=[55, 0]),
   midi.NoteOnEvent(tick=98, channel=0, data=[56, 0]),
   midi.NoteOnEvent(tick=1, channel=0, data=[44, 88]),
   midi.NoteOnEvent(tick=120, channel=0, data=[56, 75]),
   midi.NoteOnEvent(tick=20, channel=0, data=[44, 0]),
   midi.NoteOnEvent(tick=98, channel=0, data=[55, 76]),
   midi.NoteOnEvent(tick=22, channel=0, data=[56, 0]),
   midi.NoteOnEvent(tick=102, channel=0, data=[56, 74]),
   midi.NoteOnEvent(tick=16, channel=0, data=[55, 0]),
   midi.NoteOnEvent(tick=101, channel=0, data=[53, 80]),
   midi.NoteOnEvent(tick=23, channel=0, data=[56, 0]),
   midi.NoteOnEvent(tick=96, channel=0, data=[56, 74]),
   midi.NoteOnEvent(tick=21, channel=0, data=[53, 0]),
   midi.NoteOnEvent(tick=101, channel=0, data=[55, 74]),
   midi.NoteOnEvent(tick=18, channel=0, data=[56, 0]),
   midi.NoteOnEvent(tick=103, channel=0, data=[56, 74]),
   midi.NoteOnEvent(tick=19, channel=0, data=[55, 0]),
   midi.NoteOnEvent(tick=98, channel=0, data=[44, 88]),
   midi.NoteOnEvent(tick=3, channel=0, data=[56, 0]),
   midi.NoteOnEvent(tick=118, channel=0, data=[50, 75]),
   midi.NoteOnEvent(tick=19, channel=0, data=[44, 0]),
   midi.NoteOnEvent(tick=100, channel=0, data=[48, 75]),
   midi.NoteOnEvent(tick=21, channel=0, data=[50, 0]),
   midi.NoteOnEvent(tick=102, channel=0, data=[50, 75]),
   midi.NoteOnEvent(tick=17, channel=0, data=[48, 0]),
   midi.NoteOnEvent(tick=102, channel=0, data=[53, 79]),
   midi.NoteOnEvent(tick=21, channel=0, data=[50, 0]),
   midi.NoteOnEvent(tick=100, channel=0, data=[50, 74]),
   midi.NoteOnEvent(tick=19, channel=0, data=[53, 0]),
   midi.NoteOnEvent(tick=102, channel=0, data=[48, 74]),
   midi.NoteOnEvent(tick=19, channel=0, data=[50, 0]),
   midi.NoteOnEvent(tick=99, channel=0, data=[50, 74]),
   midi.NoteOnEvent(tick=22, channel=0, data=[48, 0]),
   midi.NoteOnEvent(tick=98, channel=0, data=[50, 0]),
   midi.NoteOnEvent(tick=2, channel=0, data=[44, 86]),
   midi.NoteOnEvent(tick=118, channel=0, data=[50, 73]),
   midi.NoteOnEvent(tick=22, channel=0, data=[44, 0]),
   midi.NoteOnEvent(tick=101, channel=0, data=[48, 72]),
   midi.NoteOnEvent(tick=17, channel=0, data=[50, 0]),
   midi.NoteOnEvent(tick=101, channel=0, data=[50, 77]),
   midi.NoteOnEvent(tick=22, channel=0, data=[48, 0]),
   midi.NoteOnEvent(tick=96, channel=0, data=[53, 77]),
   midi.NoteOnEvent(tick=22, channel=0, data=[50, 0]),
   midi.NoteOnEvent(tick=102, channel=0, data=[50, 72]),
   midi.NoteOnEvent(tick=16, channel=0, data=[53, 0]),
   midi.NoteOnEvent(tick=104, channel=0, data=[48, 72]),
   midi.NoteOnEvent(tick=20, channel=0, data=[50, 0]),
   midi.NoteOnEvent(tick=97, channel=0, data=[50, 72]),
   midi.NoteOnEvent(tick=23, channel=0, data=[48, 0]),
   midi.NoteOnEvent(tick=97, channel=0, data=[50, 0]),
   midi.NoteOnEvent(tick=3, channel=0, data=[43, 83]),
   midi.NoteOnEvent(tick=116, channel=0, data=[51, 72]),
   midi.NoteOnEvent(tick=24, channel=0, data=[43, 0]),
   midi.NoteOnEvent(tick=100, channel=0, data=[50, 72]),
   midi.NoteOnEvent(tick=16, channel=0, data=[51, 0]),
   midi.NoteOnEvent(tick=102, channel=0, data=[51, 72]),
   midi.NoteOnEvent(tick=22, channel=0, data=[50, 0]),
   midi.NoteOnEvent(tick=97, channel=0, data=[55, 75]),
   midi.NoteOnEvent(tick=21, channel=0, data=[51, 0]),
   midi.NoteOnEvent(tick=100, channel=0, data=[51, 70]),
   midi.NoteOnEvent(tick=19, channel=0, data=[55, 0]),
   midi.NoteOnEvent(tick=102, channel=0, data=[50, 70]),
   midi.NoteOnEvent(tick=19, channel=0, data=[51, 0]),
   midi.NoteOnEvent(tick=97, channel=0, data=[51, 70]),
   midi.NoteOnEvent(tick=24, channel=0, data=[50, 0]),
   midi.NoteOnEvent(tick=96, channel=0, data=[51, 0]),
   midi.NoteOnEvent(tick=1, channel=0, data=[43, 81]),
   midi.NoteOnEvent(tick=120, channel=0, data=[51, 69]),
   midi.NoteOnEvent(tick=20, channel=0, data=[43, 0]),
   midi.NoteOnEvent(tick=101, channel=0, data=[50, 69]),
   midi.NoteOnEvent(tick=19, channel=0, data=[51, 0]),
   midi.NoteOnEvent(tick=104, channel=0, data=[51, 69]),
   midi.NoteOnEvent(tick=17, channel=0, data=[50, 0]),
   midi.NoteOnEvent(tick=102, channel=0, data=[55, 73]),
   midi.NoteOnEvent(tick=21, channel=0, data=[51, 0]),
   midi.NoteOnEvent(tick=99, channel=0, data=[51, 67]),
   midi.NoteOnEvent(tick=20, channel=0, data=[55, 0]),
   midi.NoteOnEvent(tick=101, channel=0, data=[50, 66]),
   midi.NoteOnEvent(tick=19, channel=0, data=[51, 0]),
   midi.NoteOnEvent(tick=98, channel=0, data=[51, 66]),
   midi.NoteOnEvent(tick=23, channel=0, data=[50, 0]),
   midi.NoteOnEvent(tick=97, channel=0, data=[51, 0]),
   midi.NoteOnEvent(tick=0, channel=0, data=[48, 79]),
   midi.NoteOnEvent(tick=123, channel=0, data=[51, 69]),
   midi.NoteOnEvent(tick=17, channel=0, data=[48, 0]),
   midi.NoteOnEvent(tick=99, channel=0, data=[50, 69]),
   midi.NoteOnEvent(tick=24, channel=0, data=[51, 0]),
   midi.NoteOnEvent(tick=97, channel=0, data=[51, 65]),
   midi.NoteOnEvent(tick=19, channel=0, data=[50, 0]),
   midi.NoteOnEvent(tick=102, channel=0, data=[56, 71]),
   midi.NoteOnEvent(tick=19, channel=0, data=[51, 0]),
   midi.NoteOnEvent(tick=100, channel=0, data=[51, 65]),
   midi.NoteOnEvent(tick=21, channel=0, data=[56, 0]),
   midi.NoteOnEvent(tick=101, channel=0, data=[50, 63]),
   midi.NoteOnEvent(tick=18, channel=0, data=[51, 0]),
   midi.NoteOnEvent(tick=102, channel=0, data=[51, 63]),
   midi.NoteOnEvent(tick=20, channel=0, data=[50, 0]),
   midi.NoteOnEvent(tick=100, channel=0, data=[51, 0]),
   midi.NoteOnEvent(tick=0, channel=0, data=[48, 77]),
   midi.NoteOnEvent(tick=120, channel=0, data=[51, 64]),
   midi.NoteOnEvent(tick=20, channel=0, data=[48, 0]),
   midi.NoteOnEvent(tick=96, channel=0, data=[50, 64]),
   midi.NoteOnEvent(tick=24, channel=0, data=[51, 0]),
   midi.NoteOnEvent(tick=97, channel=0, data=[51, 64]),
   midi.NoteOnEvent(tick=19, channel=0, data=[50, 0]),
   midi.NoteOnEvent(tick=101, channel=0, data=[56, 69]),
   midi.NoteOnEvent(tick=20, channel=0, data=[51, 0]),
   midi.NoteOnEvent(tick=103, channel=0, data=[51, 61]),
   midi.NoteOnEvent(tick=17, channel=0, data=[56, 0]),
   midi.NoteOnEvent(tick=104, channel=0, data=[50, 61]),
   midi.NoteOnEvent(tick=19, channel=0, data=[51, 0]),
   midi.NoteOnEvent(tick=98, channel=0, data=[51, 61]),
   midi.NoteOnEvent(tick=23, channel=0, data=[50, 0]),
   midi.NoteOnEvent(tick=97, channel=0, data=[51, 0]),
   midi.NoteOnEvent(tick=1, channel=0, data=[50, 74]),
   midi.NoteOnEvent(tick=117, channel=0, data=[53, 59]),
   midi.NoteOnEvent(tick=23, channel=0, data=[50, 0]),
   midi.NoteOnEvent(tick=102, channel=0, data=[51, 60]),
   midi.NoteOnEvent(tick=15, channel=0, data=[53, 0]),
   midi.NoteOnEvent(tick=101, channel=0, data=[53, 59]),
   midi.NoteOnEvent(tick=24, channel=0, data=[51, 0]),
   midi.NoteOnEvent(tick=98, channel=0, data=[56, 66]),
   midi.NoteOnEvent(tick=18, channel=0, data=[53, 0]),
   midi.NoteOnEvent(tick=102, channel=0, data=[53, 59]),
   midi.NoteOnEvent(tick=20, channel=0, data=[56, 0]),
   midi.NoteOnEvent(tick=99, channel=0, data=[51, 59]),
   midi.NoteOnEvent(tick=21, channel=0, data=[53, 0]),
   midi.NoteOnEvent(tick=101, channel=0, data=[53, 59]),
   midi.NoteOnEvent(tick=18, channel=0, data=[51, 0]),
   midi.NoteOnEvent(tick=98, channel=0, data=[50, 73]),
   midi.NoteOnEvent(tick=4, channel=0, data=[53, 0]),
   midi.NoteOnEvent(tick=116, channel=0, data=[53, 56]),
   midi.NoteOnEvent(tick=20, channel=0, data=[50, 0]),
   midi.NoteOnEvent(tick=100, channel=0, data=[51, 55]),
   midi.NoteOnEvent(tick=20, channel=0, data=[53, 0]),
   midi.NoteOnEvent(tick=100, channel=0, data=[53, 55]),
   midi.NoteOnEvent(tick=20, channel=0, data=[51, 0]),
   midi.NoteOnEvent(tick=102, channel=0, data=[56, 61]),
   midi.NoteOnEvent(tick=18, channel=0, data=[53, 0]),
   midi.NoteOnEvent(tick=101, channel=0, data=[53, 56]),
   midi.NoteOnEvent(tick=21, channel=0, data=[56, 0]),
   midi.NoteOnEvent(tick=102, channel=0, data=[51, 56]),
   midi.NoteOnEvent(tick=17, channel=0, data=[53, 0]),
   midi.NoteOnEvent(tick=99, channel=0, data=[53, 56]),
   midi.NoteOnEvent(tick=24, channel=0, data=[51, 0]),
   midi.NoteOnEvent(tick=96, channel=0, data=[53, 0]),
   midi.NoteOnEvent(tick=2, channel=0, data=[51, 70]),
   midi.NoteOnEvent(tick=118, channel=0, data=[55, 53]),
   midi.NoteOnEvent(tick=22, channel=0, data=[51, 0]),
   midi.NoteOnEvent(tick=102, channel=0, data=[53, 53]),
   midi.NoteOnEvent(tick=16, channel=0, data=[55, 0]),
   midi.NoteOnEvent(tick=104, channel=0, data=[55, 53]),
   midi.NoteOnEvent(tick=20, channel=0, data=[53, 0]),
   midi.NoteOnEvent(tick=97, channel=0, data=[56, 57]),
   midi.NoteOnEvent(tick=23, channel=0, data=[55, 0]),
   midi.NoteOnEvent(tick=100, channel=0, data=[55, 53]),
   midi.NoteOnEvent(tick=17, channel=0, data=[56, 0]),
   midi.NoteOnEvent(tick=102, channel=0, data=[53, 53]),
   midi.NoteOnEvent(tick=21, channel=0, data=[55, 0]),
   midi.NoteOnEvent(tick=99, channel=0, data=[55, 53]),
   midi.NoteOnEvent(tick=20, channel=0, data=[53, 0]),
   midi.NoteOnEvent(tick=100, channel=0, data=[55, 0]),
   midi.NoteOnEvent(tick=0, channel=0, data=[51, 70]),
   midi.NoteOnEvent(tick=117, channel=0, data=[55, 53]),
   midi.NoteOnEvent(tick=23, channel=0, data=[51, 0]),
   midi.NoteOnEvent(tick=100, channel=0, data=[53, 53]),
   midi.NoteOnEvent(tick=17, channel=0, data=[55, 0]),
   midi.NoteOnEvent(tick=100, channel=0, data=[55, 53]),
   midi.NoteOnEvent(tick=23, channel=0, data=[53, 0]),
   midi.NoteOnEvent(tick=102, channel=0, data=[56, 56]),
   midi.NoteOnEvent(tick=15, channel=0, data=[55, 0]),
   midi.NoteOnEvent(tick=102, channel=0, data=[55, 52]),
   midi.NoteOnEvent(tick=23, channel=0, data=[56, 0]),
   midi.NoteOnEvent(tick=100, channel=0, data=[53, 52]),
   midi.NoteOnEvent(tick=17, channel=0, data=[55, 0]),
   midi.NoteOnEvent(tick=102, channel=0, data=[55, 52]),
   midi.NoteOnEvent(tick=21, channel=0, data=[53, 0]),
   midi.NoteOnEvent(tick=98, channel=0, data=[51, 70]),
   midi.NoteOnEvent(tick=1, channel=0, data=[55, 0]),
   midi.NoteOnEvent(tick=120, channel=0, data=[57, 52]),
   midi.NoteOnEvent(tick=19, channel=0, data=[51, 0]),
   midi.NoteOnEvent(tick=101, channel=0, data=[55, 52]),
   midi.NoteOnEvent(tick=20, channel=0, data=[57, 0]),
   midi.NoteOnEvent(tick=98, channel=0, data=[57, 52]),
   midi.NoteOnEvent(tick=22, channel=0, data=[55, 0]),
   midi.NoteOnEvent(tick=96, channel=0, data=[57, 0]),
   midi.NoteOnEvent(tick=2, channel=0, data=[53, 55]),
   midi.NoteOnEvent(tick=118, channel=0, data=[57, 52]),
   midi.NoteOnEvent(tick=22, channel=0, data=[53, 0]),
   midi.NoteOnEvent(tick=102, channel=0, data=[55, 52]),
   midi.NoteOnEvent(tick=16, channel=0, data=[57, 0]),
   midi.NoteOnEvent(tick=101, channel=0, data=[57, 52]),
   midi.NoteOnEvent(tick=23, channel=0, data=[55, 0]),
   midi.NoteOnEvent(tick=96, channel=0, data=[51, 70]),
   midi.NoteOnEvent(tick=1, channel=0, data=[57, 0]),
   midi.NoteOnEvent(tick=120, channel=0, data=[57, 51]),
   midi.NoteOnEvent(tick=19, channel=0, data=[51, 0]),
   midi.NoteOnEvent(tick=104, channel=0, data=[55, 51]),
   midi.NoteOnEvent(tick=17, channel=0, data=[57, 0]),
   midi.NoteOnEvent(tick=100, channel=0, data=[57, 51]),
   midi.NoteOnEvent(tick=23, channel=0, data=[55, 0]),
   midi.NoteOnEvent(tick=95, channel=0, data=[57, 0]),
   midi.NoteOnEvent(tick=2, channel=0, data=[53, 56]),
   midi.NoteOnEvent(tick=121, channel=0, data=[57, 51]),
   midi.NoteOnEvent(tick=19, channel=0, data=[53, 0]),
   midi.NoteOnEvent(tick=99, channel=0, data=[55, 51]),
   midi.NoteOnEvent(tick=22, channel=0, data=[57, 0]),
   midi.NoteOnEvent(tick=100, channel=0, data=[57, 51]),
   midi.NoteOnEvent(tick=18, channel=0, data=[55, 0]),
   midi.NoteOnEvent(tick=102, channel=0, data=[57, 0]),
   midi.NoteOnEvent(tick=1, channel=0, data=[50, 70]),
   midi.NoteOnEvent(tick=120, channel=0, data=[53, 52]),
   midi.NoteOnEvent(tick=20, channel=0, data=[50, 0]),
   midi.NoteOnEvent(tick=101, channel=0, data=[51, 52]),
   midi.NoteOnEvent(tick=19, channel=0, data=[53, 0]),
   midi.NoteOnEvent(tick=99, channel=0, data=[53, 52]),
   midi.NoteOnEvent(tick=22, channel=0, data=[51, 0]),
   midi.NoteOnEvent(tick=98, channel=0, data=[56, 58]),
   midi.NoteOnEvent(tick=20, channel=0, data=[53, 0]),
   midi.NoteOnEvent(tick=103, channel=0, data=[53, 52]),
   midi.NoteOnEvent(tick=17, channel=0, data=[56, 0]),
   midi.NoteOnEvent(tick=103, channel=0, data=[51, 52]),
   midi.NoteOnEvent(tick=20, channel=0, data=[53, 0]),
   midi.NoteOnEvent(tick=98, channel=0, data=[53, 52]),
   midi.NoteOnEvent(tick=22, channel=0, data=[51, 0]),
   midi.NoteOnEvent(tick=98, channel=0, data=[53, 0]),
   midi.NoteOnEvent(tick=2, channel=0, data=[50, 70]),
   midi.NoteOnEvent(tick=115, channel=0, data=[53, 54]),
   midi.NoteOnEvent(tick=25, channel=0, data=[50, 0]),
   midi.NoteOnEvent(tick=98, channel=0, data=[51, 54]),
   midi.NoteOnEvent(tick=17, channel=0, data=[53, 0]),
   midi.NoteOnEvent(tick=105, channel=0, data=[53, 54]),
   midi.NoteOnEvent(tick=18, channel=0, data=[51, 0]),
   midi.NoteOnEvent(tick=99, channel=0, data=[56, 60]),
   midi.NoteOnEvent(tick=23, channel=0, data=[53, 0]),
   midi.NoteOnEvent(tick=96, channel=0, data=[53, 53]),
   midi.NoteOnEvent(tick=21, channel=0, data=[56, 0]),
   midi.NoteOnEvent(tick=99, channel=0, data=[51, 54]),
   midi.NoteOnEvent(tick=20, channel=0, data=[53, 0]),
   midi.NoteOnEvent(tick=99, channel=0, data=[53, 54]),
   midi.NoteOnEvent(tick=21, channel=0, data=[51, 0]),
   midi.NoteOnEvent(tick=99, channel=0, data=[53, 0]),
   midi.NoteOnEvent(tick=3, channel=0, data=[48, 70]),
   midi.NoteOnEvent(tick=119, channel=0, data=[53, 52]),
   midi.NoteOnEvent(tick=21, channel=0, data=[48, 0]),
   midi.NoteOnEvent(tick=97, channel=0, data=[52, 52]),
   midi.NoteOnEvent(tick=22, channel=0, data=[53, 0]),
   midi.NoteOnEvent(tick=98, channel=0, data=[53, 52]),
   midi.NoteOnEvent(tick=20, channel=0, data=[52, 0]),
   midi.NoteOnEvent(tick=102, channel=0, data=[56, 60]),
   midi.NoteOnEvent(tick=18, channel=0, data=[53, 0]),
   midi.NoteOnEvent(tick=105, channel=0, data=[53, 53]),
   midi.NoteOnEvent(tick=17, channel=0, data=[56, 0]),
   midi.NoteOnEvent(tick=103, channel=0, data=[52, 53]),
   midi.NoteOnEvent(tick=20, channel=0, data=[53, 0]),
   midi.NoteOnEvent(tick=97, channel=0, data=[53, 53]),
   midi.NoteOnEvent(tick=23, channel=0, data=[52, 0]),
   midi.NoteOnEvent(tick=97, channel=0, data=[53, 0]),
   midi.NoteOnEvent(tick=2, channel=0, data=[48, 70]),
   midi.NoteOnEvent(tick=119, channel=0, data=[53, 53]),
   midi.NoteOnEvent(tick=21, channel=0, data=[48, 0]),
   midi.NoteOnEvent(tick=100, channel=0, data=[52, 53]),
   midi.NoteOnEvent(tick=19, channel=0, data=[53, 0]),
   midi.NoteOnEvent(tick=102, channel=0, data=[53, 53]),
   midi.NoteOnEvent(tick=19, channel=0, data=[52, 0]),
   midi.NoteOnEvent(tick=99, channel=0, data=[56, 60]),
   midi.NoteOnEvent(tick=22, channel=0, data=[53, 0]),
   midi.NoteOnEvent(tick=98, channel=0, data=[53, 53]),
   midi.NoteOnEvent(tick=20, channel=0, data=[56, 0]),
   midi.NoteOnEvent(tick=97, channel=0, data=[52, 53]),
   midi.NoteOnEvent(tick=23, channel=0, data=[53, 0]),
   midi.NoteOnEvent(tick=101, channel=0, data=[53, 53]),
   midi.NoteOnEvent(tick=16, channel=0, data=[52, 0]),
   midi.NoteOnEvent(tick=102, channel=0, data=[48, 70]),
   midi.NoteOnEvent(tick=2, channel=0, data=[53, 0]),
   midi.NoteOnEvent(tick=119, channel=0, data=[51, 54]),
   midi.NoteOnEvent(tick=19, channel=0, data=[48, 0]),
   midi.NoteOnEvent(tick=101, channel=0, data=[50, 54]),
   midi.NoteOnEvent(tick=20, channel=0, data=[51, 0]),
   midi.NoteOnEvent(tick=100, channel=0, data=[51, 54]),
   midi.NoteOnEvent(tick=20, channel=0, data=[50, 0]),
   midi.NoteOnEvent(tick=101, channel=0, data=[53, 60]),
   midi.NoteOnEvent(tick=19, channel=0, data=[51, 0]),
   midi.NoteOnEvent(tick=101, channel=0, data=[51, 54]),
   midi.NoteOnEvent(tick=20, channel=0, data=[53, 0]),
   midi.NoteOnEvent(tick=98, channel=0, data=[50, 54]),
   midi.NoteOnEvent(tick=22, channel=0, data=[51, 0]),
   midi.NoteOnEvent(tick=96, channel=0, data=[51, 54]),
   midi.NoteOnEvent(tick=22, channel=0, data=[50, 0]),
   midi.NoteOnEvent(tick=98, channel=0, data=[51, 0]),
   midi.NoteOnEvent(tick=1, channel=0, data=[46, 70]),
   midi.NoteOnEvent(tick=121, channel=0, data=[51, 54]),
   midi.NoteOnEvent(tick=19, channel=0, data=[46, 0]),
   midi.NoteOnEvent(tick=100, channel=0, data=[50, 54]),
   midi.NoteOnEvent(tick=21, channel=0, data=[51, 0]),
   midi.NoteOnEvent(tick=102, channel=0, data=[51, 54]),
   midi.NoteOnEvent(tick=17, channel=0, data=[50, 0]),
   midi.NoteOnEvent(tick=101, channel=0, data=[53, 61]),
   midi.NoteOnEvent(tick=22, channel=0, data=[51, 0]),
   midi.NoteOnEvent(tick=101, channel=0, data=[51, 53]),
   midi.NoteOnEvent(tick=17, channel=0, data=[53, 0]),
   midi.NoteOnEvent(tick=98, channel=0, data=[50, 53]),
   midi.NoteOnEvent(tick=25, channel=0, data=[51, 0]),
   midi.NoteOnEvent(tick=99, channel=0, data=[51, 53]),
   midi.NoteOnEvent(tick=16, channel=0, data=[50, 0]),
   midi.NoteOnEvent(tick=103, channel=0, data=[44, 70]),
   midi.NoteOnEvent(tick=1, channel=0, data=[51, 0]),
   midi.NoteOnEvent(tick=121, channel=0, data=[48, 54]),
   midi.NoteOnEvent(tick=18, channel=0, data=[44, 0]),
   midi.NoteOnEvent(tick=98, channel=0, data=[47, 53]),
   midi.NoteOnEvent(tick=24, channel=0, data=[48, 0]),
   midi.NoteOnEvent(tick=98, channel=0, data=[48, 53]),
   midi.NoteOnEvent(tick=18, channel=0, data=[47, 0]),
   midi.NoteOnEvent(tick=104, channel=0, data=[50, 64]),
   midi.NoteOnEvent(tick=18, channel=0, data=[48, 0]),
   midi.NoteOnEvent(tick=101, channel=0, data=[48, 54]),
   midi.NoteOnEvent(tick=21, channel=0, data=[50, 0]),
   midi.NoteOnEvent(tick=100, channel=0, data=[47, 54]),
   midi.NoteOnEvent(tick=19, channel=0, data=[48, 0]),
   midi.NoteOnEvent(tick=97, channel=0, data=[48, 54]),
   midi.NoteOnEvent(tick=24, channel=0, data=[47, 0]),
   midi.NoteOnEvent(tick=96, channel=0, data=[48, 0]),
   midi.NoteOnEvent(tick=4, channel=0, data=[44, 70]),
   midi.NoteOnEvent(tick=119, channel=0, data=[48, 55]),
   midi.NoteOnEvent(tick=21, channel=0, data=[44, 0]),
   midi.NoteOnEvent(tick=100, channel=0, data=[47, 55]),
   midi.NoteOnEvent(tick=19, channel=0, data=[48, 0]),
   midi.NoteOnEvent(tick=101, channel=0, data=[48, 55]),
   midi.NoteOnEvent(tick=20, channel=0, data=[47, 0]),
   midi.NoteOnEvent(tick=100, channel=0, data=[50, 64]),
   midi.NoteOnEvent(tick=20, channel=0, data=[48, 0]),
   midi.NoteOnEvent(tick=98, channel=0, data=[48, 56]),
   midi.NoteOnEvent(tick=22, channel=0, data=[50, 0]),
   midi.NoteOnEvent(tick=96, channel=0, data=[47, 56]),
   midi.NoteOnEvent(tick=22, channel=0, data=[48, 0]),
   midi.NoteOnEvent(tick=100, channel=0, data=[48, 56]),
   midi.NoteOnEvent(tick=18, channel=0, data=[47, 0]),
   midi.NoteOnEvent(tick=100, channel=0, data=[45, 70]),
   midi.NoteOnEvent(tick=2, channel=0, data=[48, 0]),
   midi.NoteOnEvent(tick=118, channel=0, data=[51, 56]),
   midi.NoteOnEvent(tick=20, channel=0, data=[45, 0]),
   midi.NoteOnEvent(tick=103, channel=0, data=[50, 56]),
   midi.NoteOnEvent(tick=17, channel=0, data=[51, 0]),
   midi.NoteOnEvent(tick=103, channel=0, data=[51, 56]),
   midi.NoteOnEvent(tick=20, channel=0, data=[50, 0]),
   midi.NoteOnEvent(tick=97, channel=0, data=[48, 64]),
   midi.NoteOnEvent(tick=23, channel=0, data=[51, 0]),
   midi.NoteOnEvent(tick=100, channel=0, data=[51, 56]),
   midi.NoteOnEvent(tick=17, channel=0, data=[48, 0]),
   midi.NoteOnEvent(tick=101, channel=0, data=[50, 56]),
   midi.NoteOnEvent(tick=22, channel=0, data=[51, 0]),
   midi.NoteOnEvent(tick=96, channel=0, data=[51, 56]),
   midi.NoteOnEvent(tick=22, channel=0, data=[50, 0]),
   midi.NoteOnEvent(tick=98, channel=0, data=[51, 0]),
   midi.NoteOnEvent(tick=4, channel=0, data=[45, 70]),
   midi.NoteOnEvent(tick=121, channel=0, data=[51, 57]),
   midi.NoteOnEvent(tick=19, channel=0, data=[45, 0]),
   midi.NoteOnEvent(tick=96, channel=0, data=[50, 58]),
   midi.NoteOnEvent(tick=25, channel=0, data=[51, 0]),
   midi.NoteOnEvent(tick=96, channel=0, data=[51, 58]),
   midi.NoteOnEvent(tick=19, channel=0, data=[50, 0]),
   midi.NoteOnEvent(tick=103, channel=0, data=[48, 64]),
   midi.NoteOnEvent(tick=18, channel=0, data=[51, 0]),
   midi.NoteOnEvent(tick=101, channel=0, data=[51, 56]),
   midi.NoteOnEvent(tick=21, channel=0, data=[48, 0]),
   midi.NoteOnEvent(tick=101, channel=0, data=[50, 56]),
   midi.NoteOnEvent(tick=18, channel=0, data=[51, 0]),
   midi.NoteOnEvent(tick=99, channel=0, data=[51, 56]),
   midi.NoteOnEvent(tick=23, channel=0, data=[50, 0]),
   midi.NoteOnEvent(tick=97, channel=0, data=[51, 0]),
   midi.NoteOnEvent(tick=3, channel=0, data=[43, 70]),
   midi.NoteOnEvent(tick=121, channel=0, data=[51, 56]),
   midi.NoteOnEvent(tick=19, channel=0, data=[43, 0]),
   midi.NoteOnEvent(tick=96, channel=0, data=[50, 56]),
   midi.NoteOnEvent(tick=25, channel=0, data=[51, 0]),
   midi.NoteOnEvent(tick=98, channel=0, data=[51, 56]),
   midi.NoteOnEvent(tick=17, channel=0, data=[50, 0]),
   midi.NoteOnEvent(tick=104, channel=0, data=[53, 64]),
   midi.NoteOnEvent(tick=19, channel=0, data=[51, 0]),
   midi.NoteOnEvent(tick=98, channel=0, data=[51, 56]),
   midi.NoteOnEvent(tick=23, channel=0, data=[53, 0]),
   midi.NoteOnEvent(tick=96, channel=0, data=[50, 56]),
   midi.NoteOnEvent(tick=21, channel=0, data=[51, 0]),
   midi.NoteOnEvent(tick=100, channel=0, data=[51, 56]),
   midi.NoteOnEvent(tick=19, channel=0, data=[50, 0]),
   midi.NoteOnEvent(tick=101, channel=0, data=[51, 0]),
   midi.NoteOnEvent(tick=3, channel=0, data=[43, 70]),
   midi.NoteOnEvent(tick=121, channel=0, data=[51, 57]),
   midi.NoteOnEvent(tick=19, channel=0, data=[43, 0]),
   midi.NoteOnEvent(tick=99, channel=0, data=[50, 57]),
   midi.NoteOnEvent(tick=22, channel=0, data=[51, 0]),
   midi.NoteOnEvent(tick=97, channel=0, data=[51, 57]),
   midi.NoteOnEvent(tick=21, channel=0, data=[50, 0]),
   midi.NoteOnEvent(tick=101, channel=0, data=[53, 64]),
   midi.NoteOnEvent(tick=18, channel=0, data=[51, 0]),
   midi.NoteOnEvent(tick=99, channel=0, data=[51, 57]),
   midi.NoteOnEvent(tick=23, channel=0, data=[53, 0]),
   midi.NoteOnEvent(tick=99, channel=0, data=[50, 57]),
   midi.NoteOnEvent(tick=18, channel=0, data=[51, 0]),
   midi.NoteOnEvent(tick=100, channel=0, data=[51, 57]),
   midi.NoteOnEvent(tick=22, channel=0, data=[50, 0]),
   midi.NoteOnEvent(tick=98, channel=0, data=[51, 0]),
   midi.NoteOnEvent(tick=0, channel=0, data=[43, 70]),
   midi.NoteOnEvent(tick=124, channel=0, data=[51, 56]),
   midi.NoteOnEvent(tick=16, channel=0, data=[43, 0]),
   midi.NoteOnEvent(tick=100, channel=0, data=[50, 56]),
   midi.NoteOnEvent(tick=24, channel=0, data=[51, 0]),
   midi.NoteOnEvent(tick=95, channel=0, data=[51, 56]),
   midi.NoteOnEvent(tick=21, channel=0, data=[50, 0]),
   midi.NoteOnEvent(tick=103, channel=0, data=[48, 64]),
   midi.NoteOnEvent(tick=16, channel=0, data=[51, 0]),
   midi.NoteOnEvent(tick=100, channel=0, data=[51, 56]),
   midi.NoteOnEvent(tick=24, channel=0, data=[48, 0]),
   midi.NoteOnEvent(tick=96, channel=0, data=[50, 56]),
   midi.NoteOnEvent(tick=20, channel=0, data=[51, 0]),
   midi.NoteOnEvent(tick=100, channel=0, data=[51, 56]),
   midi.NoteOnEvent(tick=20, channel=0, data=[50, 0]),
   midi.NoteOnEvent(tick=100, channel=0, data=[51, 0]),
   midi.NoteOnEvent(tick=2, channel=0, data=[43, 71]),
   midi.NoteOnEvent(tick=121, channel=0, data=[51, 56]),
   midi.NoteOnEvent(tick=19, channel=0, data=[43, 0]),
   midi.NoteOnEvent(tick=100, channel=0, data=[50, 56]),
   midi.NoteOnEvent(tick=21, channel=0, data=[51, 0]),
   midi.NoteOnEvent(tick=99, channel=0, data=[51, 56]),
   midi.NoteOnEvent(tick=20, channel=0, data=[50, 0]),
   midi.NoteOnEvent(tick=100, channel=0, data=[48, 65]),
   midi.NoteOnEvent(tick=20, channel=0, data=[51, 0]),
   midi.NoteOnEvent(tick=98, channel=0, data=[51, 56]),
   midi.NoteOnEvent(tick=22, channel=0, data=[48, 0]),
   midi.NoteOnEvent(tick=101, channel=0, data=[50, 57]),
   midi.NoteOnEvent(tick=17, channel=0, data=[51, 0]),
   midi.NoteOnEvent(tick=104, channel=0, data=[51, 57]),
   midi.NoteOnEvent(tick=19, channel=0, data=[50, 0]),
   midi.NoteOnEvent(tick=99, channel=0, data=[43, 73]),
   midi.NoteOnEvent(tick=2, channel=0, data=[51, 0]),
   midi.NoteOnEvent(tick=119, channel=0, data=[51, 58]),
   midi.NoteOnEvent(tick=19, channel=0, data=[43, 0]),
   midi.NoteOnEvent(tick=103, channel=0, data=[50, 58]),
   midi.NoteOnEvent(tick=18, channel=0, data=[51, 0]),
   midi.NoteOnEvent(tick=100, channel=0, data=[51, 58]),
   midi.NoteOnEvent(tick=22, channel=0, data=[50, 0]),
   midi.NoteOnEvent(tick=98, channel=0, data=[53, 66]),
   midi.NoteOnEvent(tick=20, channel=0, data=[51, 0]),
   midi.NoteOnEvent(tick=97, channel=0, data=[51, 58]),
   midi.NoteOnEvent(tick=23, channel=0, data=[53, 0]),
   midi.NoteOnEvent(tick=99, channel=0, data=[50, 58]),
   midi.NoteOnEvent(tick=18, channel=0, data=[51, 0]),
   midi.NoteOnEvent(tick=101, channel=0, data=[51, 58]),
   midi.NoteOnEvent(tick=21, channel=0, data=[50, 0]),
   midi.NoteOnEvent(tick=99, channel=0, data=[51, 0]),
   midi.NoteOnEvent(tick=1, channel=0, data=[43, 73]),
   midi.NoteOnEvent(tick=123, channel=0, data=[51, 58]),
   midi.NoteOnEvent(tick=17, channel=0, data=[43, 0]),
   midi.NoteOnEvent(tick=100, channel=0, data=[50, 58]),
   midi.NoteOnEvent(tick=23, channel=0, data=[51, 0]),
   midi.NoteOnEvent(tick=95, channel=0, data=[51, 58]),
   midi.NoteOnEvent(tick=22, channel=0, data=[50, 0]),
   midi.NoteOnEvent(tick=101, channel=0, data=[53, 67]),
   midi.NoteOnEvent(tick=17, channel=0, data=[51, 0]),
   midi.NoteOnEvent(tick=104, channel=0, data=[51, 58]),
   midi.NoteOnEvent(tick=19, channel=0, data=[53, 0]),
   midi.NoteOnEvent(tick=101, channel=0, data=[50, 58]),
   midi.NoteOnEvent(tick=20, channel=0, data=[51, 0]),
   midi.NoteOnEvent(tick=101, channel=0, data=[51, 58]),
   midi.NoteOnEvent(tick=19, channel=0, data=[50, 0]),
   midi.NoteOnEvent(tick=101, channel=0, data=[51, 0]),
   midi.NoteOnEvent(tick=0, channel=0, data=[43, 75]),
   midi.NoteOnEvent(tick=116, channel=0, data=[51, 59]),
   midi.NoteOnEvent(tick=24, channel=0, data=[43, 0]),
   midi.NoteOnEvent(tick=100, channel=0, data=[50, 59]),
   midi.NoteOnEvent(tick=16, channel=0, data=[51, 0]),
   midi.NoteOnEvent(tick=102, channel=0, data=[51, 59]),
   midi.NoteOnEvent(tick=22, channel=0, data=[50, 0]),
   midi.NoteOnEvent(tick=99, channel=0, data=[53, 68]),
   midi.NoteOnEvent(tick=19, channel=0, data=[51, 0]),
   midi.NoteOnEvent(tick=101, channel=0, data=[51, 58]),
   midi.NoteOnEvent(tick=20, channel=0, data=[53, 0]),
   midi.NoteOnEvent(tick=100, channel=0, data=[50, 58]),
   midi.NoteOnEvent(tick=20, channel=0, data=[51, 0]),
   midi.NoteOnEvent(tick=101, channel=0, data=[51, 59]),
   midi.NoteOnEvent(tick=19, channel=0, data=[50, 0]),
   midi.NoteOnEvent(tick=101, channel=0, data=[51, 0]),
   midi.NoteOnEvent(tick=0, channel=0, data=[43, 75]),
   midi.NoteOnEvent(tick=120, channel=0, data=[51, 60]),
   midi.NoteOnEvent(tick=20, channel=0, data=[43, 0]),
   midi.NoteOnEvent(tick=98, channel=0, data=[50, 60]),
   midi.NoteOnEvent(tick=22, channel=0, data=[51, 0]),
   midi.NoteOnEvent(tick=97, channel=0, data=[51, 60]),
   midi.NoteOnEvent(tick=21, channel=0, data=[50, 0]),
   midi.NoteOnEvent(tick=97, channel=0, data=[53, 69]),
   midi.NoteOnEvent(tick=22, channel=0, data=[51, 0]),
   midi.NoteOnEvent(tick=100, channel=0, data=[51, 61]),
   midi.NoteOnEvent(tick=18, channel=0, data=[53, 0]),
   midi.NoteOnEvent(tick=104, channel=0, data=[50, 61]),
   midi.NoteOnEvent(tick=18, channel=0, data=[51, 0]),
   midi.NoteOnEvent(tick=100, channel=0, data=[51, 61]),
   midi.NoteOnEvent(tick=22, channel=0, data=[50, 0]),
   midi.NoteOnEvent(tick=98, channel=0, data=[51, 0]),
   midi.NoteOnEvent(tick=0, channel=0, data=[43, 65]),
   midi.NoteOnEvent(tick=120, channel=0, data=[47, 68]),
   midi.NoteOnEvent(tick=20, channel=0, data=[43, 0]),
   midi.NoteOnEvent(tick=100, channel=0, data=[50, 71]),
   midi.NoteOnEvent(tick=20, channel=0, data=[47, 0]),
   midi.NoteOnEvent(tick=120, channel=0, data=[50, 0]),
   midi.NoteOnEvent(tick=1540, channel=0, data=[43, 64]),
   midi.NoteOnEvent(tick=120, channel=0, data=[48, 66]),
   midi.NoteOnEvent(tick=20, channel=0, data=[43, 0]),
   midi.NoteOnEvent(tick=100, channel=0, data=[51, 68]),
   midi.NoteOnEvent(tick=20, channel=0, data=[48, 0]),
   midi.NoteOnEvent(tick=120, channel=0, data=[51, 0]),
   midi.NoteOnEvent(tick=1540, channel=0, data=[43, 67]),
   midi.NoteOnEvent(tick=120, channel=0, data=[45, 70]),
   midi.NoteOnEvent(tick=20, channel=0, data=[43, 0]),
   midi.NoteOnEvent(tick=100, channel=0, data=[54, 70]),
   midi.NoteOnEvent(tick=20, channel=0, data=[45, 0]),
   midi.NoteOnEvent(tick=120, channel=0, data=[54, 0]),
   midi.NoteOnEvent(tick=1540, channel=0, data=[43, 67]),
   midi.NoteOnEvent(tick=2040, channel=0, data=[43, 0]),
   midi.NoteOnEvent(tick=0, channel=0, data=[62, 60]),
   midi.NoteOnEvent(tick=120, channel=0, data=[60, 60]),
   midi.NoteOnEvent(tick=20, channel=0, data=[62, 0]),
   midi.NoteOnEvent(tick=100, channel=0, data=[62, 61]),
   midi.NoteOnEvent(tick=20, channel=0, data=[60, 0]),
   midi.NoteOnEvent(tick=100, channel=0, data=[63, 70]),
   midi.NoteOnEvent(tick=20, channel=0, data=[62, 0]),
   midi.NoteOnEvent(tick=100, channel=0, data=[60, 67]),
   midi.NoteOnEvent(tick=20, channel=0, data=[63, 0]),
   midi.NoteOnEvent(tick=100, channel=0, data=[59, 60]),
   midi.NoteOnEvent(tick=20, channel=0, data=[60, 0]),
   midi.NoteOnEvent(tick=100, channel=0, data=[60, 60]),
   midi.NoteOnEvent(tick=20, channel=0, data=[59, 0]),
   midi.NoteOnEvent(tick=100, channel=0, data=[60, 0]),
   midi.NoteOnEvent(tick=0, channel=0, data=[57, 75]),
   midi.NoteOnEvent(tick=120, channel=0, data=[60, 61]),
   midi.NoteOnEvent(tick=20, channel=0, data=[57, 0]),
   midi.NoteOnEvent(tick=100, channel=0, data=[59, 61]),
   midi.NoteOnEvent(tick=20, channel=0, data=[60, 0]),
   midi.NoteOnEvent(tick=100, channel=0, data=[60, 61]),
   midi.NoteOnEvent(tick=20, channel=0, data=[59, 0]),
   midi.NoteOnEvent(tick=100, channel=0, data=[62, 70]),
   midi.NoteOnEvent(tick=20, channel=0, data=[60, 0]),
   midi.NoteOnEvent(tick=100, channel=0, data=[59, 61]),
   midi.NoteOnEvent(tick=20, channel=0, data=[62, 0]),
   midi.NoteOnEvent(tick=100, channel=0, data=[57, 61]),
   midi.NoteOnEvent(tick=20, channel=0, data=[59, 0]),
   midi.NoteOnEvent(tick=100, channel=0, data=[59, 61]),
   midi.NoteOnEvent(tick=20, channel=0, data=[57, 0]),
   midi.NoteOnEvent(tick=100, channel=0, data=[59, 0]),
   midi.NoteOnEvent(tick=0, channel=0, data=[55, 74]),
   midi.NoteOnEvent(tick=120, channel=0, data=[59, 61]),
   midi.NoteOnEvent(tick=20, channel=0, data=[55, 0]),
   midi.NoteOnEvent(tick=100, channel=0, data=[57, 61]),
   midi.NoteOnEvent(tick=20, channel=0, data=[59, 0]),
   midi.NoteOnEvent(tick=100, channel=0, data=[59, 61]),
   midi.NoteOnEvent(tick=20, channel=0, data=[57, 0]),
   midi.NoteOnEvent(tick=100, channel=0, data=[60, 71]),
   midi.NoteOnEvent(tick=20, channel=0, data=[59, 0]),
   midi.NoteOnEvent(tick=100, channel=0, data=[56, 61]),
   midi.NoteOnEvent(tick=20, channel=0, data=[60, 0]),
   midi.NoteOnEvent(tick=100, channel=0, data=[55, 61]),
   midi.NoteOnEvent(tick=20, channel=0, data=[56, 0]),
   midi.NoteOnEvent(tick=100, channel=0, data=[56, 61]),
   midi.NoteOnEvent(tick=20, channel=0, data=[55, 0]),
   midi.NoteOnEvent(tick=100, channel=0, data=[56, 0]),
   midi.NoteOnEvent(tick=0, channel=0, data=[53, 74]),
   midi.NoteOnEvent(tick=120, channel=0, data=[57, 63]),
   midi.NoteOnEvent(tick=20, channel=0, data=[53, 0]),
   midi.NoteOnEvent(tick=100, channel=0, data=[55, 63]),
   midi.NoteOnEvent(tick=20, channel=0, data=[57, 0]),
   midi.NoteOnEvent(tick=100, channel=0, data=[57, 63]),
   midi.NoteOnEvent(tick=20, channel=0, data=[55, 0]),
   midi.NoteOnEvent(tick=100, channel=0, data=[59, 71]),
   midi.NoteOnEvent(tick=20, channel=0, data=[57, 0]),
   midi.NoteOnEvent(tick=100, channel=0, data=[55, 62]),
   midi.NoteOnEvent(tick=20, channel=0, data=[59, 0]),
   midi.NoteOnEvent(tick=100, channel=0, data=[53, 62]),
   midi.NoteOnEvent(tick=20, channel=0, data=[55, 0]),
   midi.NoteOnEvent(tick=100, channel=0, data=[55, 62]),
   midi.NoteOnEvent(tick=20, channel=0, data=[53, 0]),
   midi.NoteOnEvent(tick=100, channel=0, data=[55, 0]),
   midi.NoteOnEvent(tick=0, channel=0, data=[51, 76]),
   midi.NoteOnEvent(tick=120, channel=0, data=[67, 63]),
   midi.NoteOnEvent(tick=20, channel=0, data=[51, 0]),
   midi.NoteOnEvent(tick=100, channel=0, data=[65, 63]),
   midi.NoteOnEvent(tick=20, channel=0, data=[67, 0]),
   midi.NoteOnEvent(tick=100, channel=0, data=[67, 63]),
   midi.NoteOnEvent(tick=20, channel=0, data=[65, 0]),
   midi.NoteOnEvent(tick=100, channel=0, data=[68, 71]),
   midi.NoteOnEvent(tick=20, channel=0, data=[67, 0]),
   midi.NoteOnEvent(tick=100, channel=0, data=[65, 63]),
   midi.NoteOnEvent(tick=20, channel=0, data=[68, 0]),
   midi.NoteOnEvent(tick=100, channel=0, data=[63, 63]),
   midi.NoteOnEvent(tick=20, channel=0, data=[65, 0]),
   midi.NoteOnEvent(tick=100, channel=0, data=[65, 63]),
   midi.NoteOnEvent(tick=20, channel=0, data=[63, 0]),
   midi.NoteOnEvent(tick=100, channel=0, data=[65, 0]),
   midi.NoteOnEvent(tick=0, channel=0, data=[62, 76]),
   midi.NoteOnEvent(tick=120, channel=0, data=[65, 64]),
   midi.NoteOnEvent(tick=20, channel=0, data=[62, 0]),
   midi.NoteOnEvent(tick=100, channel=0, data=[63, 65]),
   midi.NoteOnEvent(tick=20, channel=0, data=[65, 0]),
   midi.NoteOnEvent(tick=100, channel=0, data=[65, 63]),
   midi.NoteOnEvent(tick=20, channel=0, data=[63, 0]),
   midi.NoteOnEvent(tick=100, channel=0, data=[67, 71]),
   midi.NoteOnEvent(tick=20, channel=0, data=[65, 0]),
   midi.NoteOnEvent(tick=100, channel=0, data=[63, 63]),
   midi.NoteOnEvent(tick=20, channel=0, data=[67, 0]),
   midi.NoteOnEvent(tick=100, channel=0, data=[62, 62]),
   midi.NoteOnEvent(tick=20, channel=0, data=[63, 0]),
   midi.NoteOnEvent(tick=100, channel=0, data=[63, 62]),
   midi.NoteOnEvent(tick=20, channel=0, data=[62, 0]),
   midi.NoteOnEvent(tick=100, channel=0, data=[63, 0]),
   midi.NoteOnEvent(tick=0, channel=0, data=[60, 74]),
   midi.NoteOnEvent(tick=120, channel=0, data=[63, 63]),
   midi.NoteOnEvent(tick=20, channel=0, data=[60, 0]),
   midi.NoteOnEvent(tick=100, channel=0, data=[62, 63]),
   midi.NoteOnEvent(tick=20, channel=0, data=[63, 0]),
   midi.NoteOnEvent(tick=100, channel=0, data=[63, 63]),
   midi.NoteOnEvent(tick=20, channel=0, data=[62, 0]),
   midi.NoteOnEvent(tick=100, channel=0, data=[65, 77]),
   midi.NoteOnEvent(tick=20, channel=0, data=[63, 0]),
   midi.NoteOnEvent(tick=100, channel=0, data=[62, 60]),
   midi.NoteOnEvent(tick=20, channel=0, data=[65, 0]),
   midi.NoteOnEvent(tick=100, channel=0, data=[60, 60]),
   midi.NoteOnEvent(tick=20, channel=0, data=[62, 0]),
   midi.NoteOnEvent(tick=100, channel=0, data=[62, 61]),
   midi.NoteOnEvent(tick=20, channel=0, data=[60, 0]),
   midi.NoteOnEvent(tick=100, channel=0, data=[62, 0]),
   midi.NoteOnEvent(tick=0, channel=0, data=[63, 77]),
   midi.NoteOnEvent(tick=120, channel=0, data=[60, 62]),
   midi.NoteOnEvent(tick=20, channel=0, data=[63, 0]),
   midi.NoteOnEvent(tick=100, channel=0, data=[59, 63]),
   midi.NoteOnEvent(tick=20, channel=0, data=[60, 0]),
   midi.NoteOnEvent(tick=100, channel=0, data=[60, 63]),
   midi.NoteOnEvent(tick=20, channel=0, data=[59, 0]),
   midi.NoteOnEvent(tick=100, channel=0, data=[62, 77]),
   midi.NoteOnEvent(tick=20, channel=0, data=[60, 0]),
   midi.NoteOnEvent(tick=100, channel=0, data=[59, 63]),
   midi.NoteOnEvent(tick=20, channel=0, data=[62, 0]),
   midi.NoteOnEvent(tick=100, channel=0, data=[57, 63]),
   midi.NoteOnEvent(tick=20, channel=0, data=[59, 0]),
   midi.NoteOnEvent(tick=100, channel=0, data=[59, 62]),
   midi.NoteOnEvent(tick=20, channel=0, data=[57, 0]),
   midi.NoteOnEvent(tick=100, channel=0, data=[59, 0]),
   midi.NoteOnEvent(tick=0, channel=0, data=[60, 77]),
   midi.NoteOnEvent(tick=120, channel=0, data=[63, 60]),
   midi.NoteOnEvent(tick=20, channel=0, data=[60, 0]),
   midi.NoteOnEvent(tick=100, channel=0, data=[62, 60]),
   midi.NoteOnEvent(tick=20, channel=0, data=[63, 0]),
   midi.NoteOnEvent(tick=100, channel=0, data=[63, 61]),
   midi.NoteOnEvent(tick=20, channel=0, data=[62, 0]),
   midi.NoteOnEvent(tick=100, channel=0, data=[53, 77]),
   midi.NoteOnEvent(tick=20, channel=0, data=[63, 0]),
   midi.NoteOnEvent(tick=100, channel=0, data=[62, 62]),
   midi.NoteOnEvent(tick=20, channel=0, data=[53, 0]),
   midi.NoteOnEvent(tick=100, channel=0, data=[60, 62]),
   midi.NoteOnEvent(tick=20, channel=0, data=[62, 0]),
   midi.NoteOnEvent(tick=100, channel=0, data=[62, 62]),
   midi.NoteOnEvent(tick=20, channel=0, data=[60, 0]),
   midi.NoteOnEvent(tick=100, channel=0, data=[62, 0]),
   midi.NoteOnEvent(tick=0, channel=0, data=[51, 77]),
   midi.NoteOnEvent(tick=120, channel=0, data=[60, 62]),
   midi.NoteOnEvent(tick=20, channel=0, data=[51, 0]),
   midi.NoteOnEvent(tick=100, channel=0, data=[59, 62]),
   midi.NoteOnEvent(tick=20, channel=0, data=[60, 0]),
   midi.NoteOnEvent(tick=100, channel=0, data=[60, 62]),
   midi.NoteOnEvent(tick=20, channel=0, data=[59, 0]),
   midi.NoteOnEvent(tick=100, channel=0, data=[50, 77]),
   midi.NoteOnEvent(tick=20, channel=0, data=[60, 0]),
   midi.NoteOnEvent(tick=100, channel=0, data=[59, 61]),
   midi.NoteOnEvent(tick=20, channel=0, data=[50, 0]),
   midi.NoteOnEvent(tick=100, channel=0, data=[57, 61]),
   midi.NoteOnEvent(tick=20, channel=0, data=[59, 0]),
   midi.NoteOnEvent(tick=100, channel=0, data=[59, 61]),
   midi.NoteOnEvent(tick=20, channel=0, data=[57, 0]),
   midi.NoteOnEvent(tick=100, channel=0, data=[59, 0]),
   midi.NoteOnEvent(tick=0, channel=0, data=[48, 67]),
   midi.NoteOnEvent(tick=15, channel=0, data=[55, 67]),
   midi.NoteOnEvent(tick=15, channel=0, data=[58, 67]),
   midi.NoteOnEvent(tick=450, channel=0, data=[58, 0]),
   midi.NoteOnEvent(tick=0, channel=0, data=[55, 0]),
   midi.NoteOnEvent(tick=0, channel=0, data=[48, 0]),
   midi.NoteOnEvent(tick=480, channel=0, data=[48, 67]),
   midi.NoteOnEvent(tick=15, channel=0, data=[53, 67]),
   midi.NoteOnEvent(tick=15, channel=0, data=[56, 67]),
   midi.NoteOnEvent(tick=450, channel=0, data=[56, 0]),
   midi.NoteOnEvent(tick=0, channel=0, data=[53, 0]),
   midi.NoteOnEvent(tick=0, channel=0, data=[48, 0]),
   midi.NoteOnEvent(tick=600, channel=0, data=[36, 60]),
   midi.NoteOnEvent(tick=120, channel=0, data=[47, 65]),
   midi.NoteOnEvent(tick=20, channel=0, data=[36, 0]),
   midi.NoteOnEvent(tick=1660, channel=0, data=[47, 0]),
   midi.NoteOnEvent(tick=2880, channel=0, data=[36, 72]),
   midi.NoteOnEvent(tick=120, channel=0, data=[43, 67]),
   midi.NoteOnEvent(tick=120, channel=0, data=[48, 67]),
   midi.NoteOnEvent(tick=20, channel=0, data=[43, 0]),
   midi.NoteOnEvent(tick=2500, channel=0, data=[48, 0]),
   midi.NoteOnEvent(tick=0, channel=0, data=[36, 0]),
   midi.ControlChangeEvent(tick=0, channel=0, data=[7, 100]),
   midi.ControlChangeEvent(tick=0, channel=0, data=[10, 64]),
   midi.ControlChangeEvent(tick=72960, channel=0, data=[91, 127]),
   midi.ControlChangeEvent(tick=3840, channel=0, data=[91, 127]),
   midi.NoteOnEvent(tick=240, channel=0, data=[79, 81]),
   midi.NoteOnEvent(tick=120, channel=0, data=[79, 0]),
   midi.NoteOnEvent(tick=0, channel=0, data=[78, 81]),
   midi.NoteOnEvent(tick=120, channel=0, data=[78, 0]),
   midi.NoteOnEvent(tick=0, channel=0, data=[79, 86]),
   midi.NoteOnEvent(tick=120, channel=0, data=[79, 0]),
   midi.NoteOnEvent(tick=120, channel=0, data=[72, 71]),
   midi.NoteOnEvent(tick=240, channel=0, data=[72, 0]),
   midi.NoteOnEvent(tick=0, channel=0, data=[75, 72]),
   midi.NoteOnEvent(tick=120, channel=0, data=[75, 0]),
   midi.NoteOnEvent(tick=120, channel=0, data=[79, 81]),
   midi.NoteOnEvent(tick=120, channel=0, data=[79, 0]),
   midi.NoteOnEvent(tick=0, channel=0, data=[78, 81]),
   midi.NoteOnEvent(tick=120, channel=0, data=[78, 0]),
   midi.NoteOnEvent(tick=0, channel=0, data=[79, 86]),
   midi.NoteOnEvent(tick=120, channel=0, data=[79, 0]),
   midi.NoteOnEvent(tick=120, channel=0, data=[81, 76]),
   midi.NoteOnEvent(tick=240, channel=0, data=[81, 0]),
   midi.NoteOnEvent(tick=0, channel=0, data=[74, 73]),
   midi.NoteOnEvent(tick=120, channel=0, data=[74, 0]),
   midi.NoteOnEvent(tick=120, channel=0, data=[79, 81]),
   midi.NoteOnEvent(tick=120, channel=0, data=[79, 0]),
   midi.NoteOnEvent(tick=0, channel=0, data=[78, 81]),
   midi.NoteOnEvent(tick=120, channel=0, data=[78, 0]),
   midi.NoteOnEvent(tick=0, channel=0, data=[79, 86]),
   midi.NoteOnEvent(tick=120, channel=0, data=[79, 0]),
   midi.NoteOnEvent(tick=120, channel=0, data=[81, 77]),
   midi.NoteOnEvent(tick=240, channel=0, data=[81, 0]),
   midi.NoteOnEvent(tick=0, channel=0, data=[72, 75]),
   midi.NoteOnEvent(tick=120, channel=0, data=[72, 0]),
   midi.NoteOnEvent(tick=0, channel=0, data=[74, 75]),
   midi.NoteOnEvent(tick=120, channel=0, data=[74, 0]),
   midi.NoteOnEvent(tick=0, channel=0, data=[75, 81]),
   midi.NoteOnEvent(tick=480, channel=0, data=[75, 0]),
   midi.NoteOnEvent(tick=0, channel=0, data=[74, 73]),
   midi.NoteOnEvent(tick=120, channel=0, data=[74, 0]),
   midi.NoteOnEvent(tick=0, channel=0, data=[72, 73]),
   midi.NoteOnEvent(tick=120, channel=0, data=[72, 0]),
   midi.NoteOnEvent(tick=0, channel=0, data=[70, 78]),
   midi.ControlChangeEvent(tick=0, channel=0, data=[91, 127]),
   midi.NoteOnEvent(tick=120, channel=0, data=[70, 0]),
   midi.NoteOnEvent(tick=120, channel=0, data=[75, 81]),
   midi.NoteOnEvent(tick=120, channel=0, data=[75, 0]),
   midi.NoteOnEvent(tick=0, channel=0, data=[74, 81]),
   midi.NoteOnEvent(tick=120, channel=0, data=[74, 0]),
   midi.NoteOnEvent(tick=0, channel=0, data=[75, 86]),
   midi.NoteOnEvent(tick=120, channel=0, data=[75, 0]),
   midi.NoteOnEvent(tick=120, channel=0, data=[67, 71]),
   midi.NoteOnEvent(tick=240, channel=0, data=[67, 0]),
   midi.NoteOnEvent(tick=0, channel=0, data=[68, 72]),
   midi.NoteOnEvent(tick=120, channel=0, data=[68, 0]),
   midi.NoteOnEvent(tick=120, channel=0, data=[77, 81]),
   midi.NoteOnEvent(tick=120, channel=0, data=[77, 0]),
   midi.NoteOnEvent(tick=0, channel=0, data=[75, 81]),
   midi.NoteOnEvent(tick=120, channel=0, data=[75, 0]),
   midi.NoteOnEvent(tick=0, channel=0, data=[77, 86]),
   midi.NoteOnEvent(tick=120, channel=0, data=[77, 0]),
   midi.NoteOnEvent(tick=120, channel=0, data=[69, 76]),
   midi.NoteOnEvent(tick=240, channel=0, data=[69, 0]),
   midi.NoteOnEvent(tick=0, channel=0, data=[70, 78]),
   midi.ControlChangeEvent(tick=0, channel=0, data=[91, 127]),
   midi.NoteOnEvent(tick=120, channel=0, data=[70, 0]),
   midi.NoteOnEvent(tick=120, channel=0, data=[79, 81]),
   midi.NoteOnEvent(tick=120, channel=0, data=[79, 0]),
   midi.NoteOnEvent(tick=0, channel=0, data=[77, 81]),
   midi.NoteOnEvent(tick=120, channel=0, data=[77, 0]),
   midi.NoteOnEvent(tick=0, channel=0, data=[79, 86]),
   midi.NoteOnEvent(tick=120, channel=0, data=[79, 0]),
   midi.NoteOnEvent(tick=120, channel=0, data=[71, 71]),
   midi.NoteOnEvent(tick=240, channel=0, data=[71, 0]),
   midi.NoteOnEvent(tick=0, channel=0, data=[72, 72]),
   midi.NoteOnEvent(tick=120, channel=0, data=[72, 0]),
   midi.NoteOnEvent(tick=120, channel=0, data=[74, 81]),
   midi.NoteOnEvent(tick=120, channel=0, data=[74, 0]),
   midi.NoteOnEvent(tick=0, channel=0, data=[75, 81]),
   midi.NoteOnEvent(tick=120, channel=0, data=[75, 0]),
   midi.NoteOnEvent(tick=0, channel=0, data=[77, 86]),
   midi.NoteOnEvent(tick=720, channel=0, data=[77, 0]),
   midi.NoteOnEvent(tick=0, channel=0, data=[75, 71]),
   midi.NoteOnEvent(tick=120, channel=0, data=[75, 0]),
   midi.NoteOnEvent(tick=0, channel=0, data=[74, 71]),
   midi.NoteOnEvent(tick=120, channel=0, data=[74, 0]),
   midi.NoteOnEvent(tick=0, channel=0, data=[72, 70]),
   midi.NoteOnEvent(tick=120, channel=0, data=[72, 0]),
   midi.NoteOnEvent(tick=0, channel=0, data=[70, 69]),
   midi.NoteOnEvent(tick=120, channel=0, data=[70, 0]),
   midi.NoteOnEvent(tick=0, channel=0, data=[68, 69]),
   midi.NoteOnEvent(tick=120, channel=0, data=[68, 0]),
   midi.NoteOnEvent(tick=0, channel=0, data=[67, 68]),
   midi.NoteOnEvent(tick=120, channel=0, data=[67, 0]),
   midi.NoteOnEvent(tick=0, channel=0, data=[65, 68]),
   midi.NoteOnEvent(tick=120, channel=0, data=[65, 0]),
   midi.NoteOnEvent(tick=120, channel=0, data=[80, 74]),
   midi.NoteOnEvent(tick=240, channel=0, data=[80, 0]),
   midi.NoteOnEvent(tick=0, channel=0, data=[79, 73]),
   midi.NoteOnEvent(tick=240, channel=0, data=[79, 0]),
   midi.NoteOnEvent(tick=0, channel=0, data=[77, 73]),
   midi.NoteOnEvent(tick=240, channel=0, data=[77, 0]),
   midi.NoteOnEvent(tick=0, channel=0, data=[75, 72]),
   midi.NoteOnEvent(tick=120, channel=0, data=[75, 0]),
   midi.NoteOnEvent(tick=120, channel=0, data=[74, 74]),
   midi.NoteOnEvent(tick=240, channel=0, data=[74, 0]),
   midi.NoteOnEvent(tick=0, channel=0, data=[75, 74]),
   midi.NoteOnEvent(tick=240, channel=0, data=[75, 0]),
   midi.NoteOnEvent(tick=0, channel=0, data=[77, 74]),
   midi.NoteOnEvent(tick=240, channel=0, data=[77, 0]),
   midi.NoteOnEvent(tick=0, channel=0, data=[71, 81]),
   midi.NoteOnEvent(tick=120, channel=0, data=[71, 0]),
   midi.NoteOnEvent(tick=120, channel=0, data=[72, 77]),
   midi.NoteOnEvent(tick=240, channel=0, data=[72, 0]),
   midi.NoteOnEvent(tick=0, channel=0, data=[74, 77]),
   midi.NoteOnEvent(tick=240, channel=0, data=[74, 0]),
   midi.NoteOnEvent(tick=0, channel=0, data=[71, 77]),
   midi.NoteOnEvent(tick=240, channel=0, data=[71, 0]),
   midi.NoteOnEvent(tick=0, channel=0, data=[72, 81]),
   midi.ControlChangeEvent(tick=0, channel=0, data=[91, 127]),
   midi.NoteOnEvent(tick=240, channel=0, data=[72, 0]),
   midi.NoteOnEvent(tick=0, channel=0, data=[79, 81]),
   midi.NoteOnEvent(tick=120, channel=0, data=[79, 0]),
   midi.NoteOnEvent(tick=0, channel=0, data=[78, 81]),
   midi.NoteOnEvent(tick=120, channel=0, data=[78, 0]),
   midi.NoteOnEvent(tick=0, channel=0, data=[79, 86]),
   midi.NoteOnEvent(tick=120, channel=0, data=[79, 0]),
   midi.NoteOnEvent(tick=120, channel=0, data=[74, 71]),
   midi.NoteOnEvent(tick=240, channel=0, data=[74, 0]),
   midi.NoteOnEvent(tick=0, channel=0, data=[75, 72]),
   midi.NoteOnEvent(tick=480, channel=0, data=[75, 0]),
   midi.NoteOnEvent(tick=240, channel=0, data=[76, 72]),
   midi.NoteOnEvent(tick=240, channel=0, data=[76, 0]),
   midi.NoteOnEvent(tick=0, channel=0, data=[77, 81]),
   midi.ControlChangeEvent(tick=0, channel=0, data=[91, 127]),
   midi.NoteOnEvent(tick=120, channel=0, data=[77, 0]),
   midi.NoteOnEvent(tick=120, channel=0, data=[77, 81]),
   midi.NoteOnEvent(tick=120, channel=0, data=[77, 0]),
   midi.NoteOnEvent(tick=0, channel=0, data=[76, 81]),
   midi.NoteOnEvent(tick=120, channel=0, data=[76, 0]),
   midi.NoteOnEvent(tick=0, channel=0, data=[77, 86]),
   midi.NoteOnEvent(tick=120, channel=0, data=[77, 0]),
   midi.NoteOnEvent(tick=120, channel=0, data=[72, 71]),
   midi.NoteOnEvent(tick=240, channel=0, data=[72, 0]),
   midi.NoteOnEvent(tick=0, channel=0, data=[74, 72]),
   midi.NoteOnEvent(tick=480, channel=0, data=[74, 0]),
   midi.NoteOnEvent(tick=240, channel=0, data=[74, 72]),
   midi.NoteOnEvent(tick=240, channel=0, data=[74, 0]),
   midi.NoteOnEvent(tick=0, channel=0, data=[75, 81]),
   midi.ControlChangeEvent(tick=0, channel=0, data=[91, 127]),
   midi.NoteOnEvent(tick=120, channel=0, data=[75, 0]),
   midi.NoteOnEvent(tick=120, channel=0, data=[75, 81]),
   midi.NoteOnEvent(tick=120, channel=0, data=[75, 0]),
   midi.NoteOnEvent(tick=0, channel=0, data=[74, 81]),
   midi.NoteOnEvent(tick=120, channel=0, data=[74, 0]),
   midi.NoteOnEvent(tick=0, channel=0, data=[75, 86]),
   midi.NoteOnEvent(tick=120, channel=0, data=[75, 0]),
   midi.NoteOnEvent(tick=120, channel=0, data=[70, 71]),
   midi.NoteOnEvent(tick=240, channel=0, data=[70, 0]),
   midi.NoteOnEvent(tick=0, channel=0, data=[72, 76]),
   midi.ControlChangeEvent(tick=0, channel=0, data=[91, 127]),
   midi.NoteOnEvent(tick=120, channel=0, data=[72, 0]),
   midi.NoteOnEvent(tick=120, channel=0, data=[75, 81]),
   midi.NoteOnEvent(tick=120, channel=0, data=[75, 0]),
   midi.NoteOnEvent(tick=0, channel=0, data=[74, 81]),
   midi.NoteOnEvent(tick=120, channel=0, data=[74, 0]),
   midi.NoteOnEvent(tick=0, channel=0, data=[75, 86]),
   midi.NoteOnEvent(tick=120, channel=0, data=[75, 0]),
   midi.NoteOnEvent(tick=120, channel=0, data=[77, 81]),
   midi.NoteOnEvent(tick=240, channel=0, data=[77, 0]),
   midi.NoteOnEvent(tick=0, channel=0, data=[70, 81]),
   midi.ControlChangeEvent(tick=0, channel=0, data=[91, 127]),
   midi.NoteOnEvent(tick=120, channel=0, data=[70, 0]),
   midi.NoteOnEvent(tick=120, channel=0, data=[75, 81]),
   midi.NoteOnEvent(tick=120, channel=0, data=[75, 0]),
   midi.NoteOnEvent(tick=0, channel=0, data=[74, 81]),
   midi.NoteOnEvent(tick=120, channel=0, data=[74, 0]),
   midi.NoteOnEvent(tick=0, channel=0, data=[75, 86]),
   midi.NoteOnEvent(tick=240, channel=0, data=[75, 0]),
   midi.NoteOnEvent(tick=0, channel=0, data=[77, 81]),
   midi.NoteOnEvent(tick=180, channel=0, data=[77, 0]),
   midi.NoteOnEvent(tick=60, channel=0, data=[68, 75]),
   midi.NoteOnEvent(tick=120, channel=0, data=[68, 0]),
   midi.NoteOnEvent(tick=0, channel=0, data=[70, 75]),
   midi.NoteOnEvent(tick=120, channel=0, data=[70, 0]),
   midi.NoteOnEvent(tick=0, channel=0, data=[72, 81]),
   midi.NoteOnEvent(tick=480, channel=0, data=[72, 0]),
   midi.NoteOnEvent(tick=0, channel=0, data=[70, 76]),
   midi.NoteOnEvent(tick=120, channel=0, data=[70, 0]),
   midi.NoteOnEvent(tick=0, channel=0, data=[68, 76]),
   midi.NoteOnEvent(tick=120, channel=0, data=[68, 0]),
   midi.NoteOnEvent(tick=0, channel=0, data=[67, 72]),
   midi.NoteOnEvent(tick=60, channel=0, data=[67, 0]),
   midi.NoteOnEvent(tick=60, channel=0, data=[63, 69]),
   midi.NoteOnEvent(tick=120, channel=0, data=[63, 0]),
   midi.NoteOnEvent(tick=0, channel=0, data=[65, 70]),
   midi.NoteOnEvent(tick=120, channel=0, data=[65, 0]),
   midi.NoteOnEvent(tick=0, channel=0, data=[67, 71]),
   midi.NoteOnEvent(tick=120, channel=0, data=[67, 0]),
   midi.NoteOnEvent(tick=0, channel=0, data=[68, 72]),
   midi.NoteOnEvent(tick=120, channel=0, data=[68, 0]),
   midi.NoteOnEvent(tick=0, channel=0, data=[70, 74]),
   midi.NoteOnEvent(tick=120, channel=0, data=[70, 0]),
   midi.NoteOnEvent(tick=0, channel=0, data=[72, 75]),
   midi.NoteOnEvent(tick=120, channel=0, data=[72, 0]),
   midi.NoteOnEvent(tick=0, channel=0, data=[74, 76]),
   midi.NoteOnEvent(tick=120, channel=0, data=[74, 0]),
   midi.NoteOnEvent(tick=0, channel=0, data=[75, 77]),
   midi.NoteOnEvent(tick=120, channel=0, data=[75, 0]),
   midi.NoteOnEvent(tick=0, channel=0, data=[74, 76]),
   midi.NoteOnEvent(tick=120, channel=0, data=[74, 0]),
   midi.NoteOnEvent(tick=0, channel=0, data=[72, 75]),
   midi.NoteOnEvent(tick=120, channel=0, data=[72, 0]),
   midi.NoteOnEvent(tick=0, channel=0, data=[74, 75]),
   midi.NoteOnEvent(tick=120, channel=0, data=[74, 0]),
   midi.NoteOnEvent(tick=0, channel=0, data=[75, 77]),
   midi.NoteOnEvent(tick=120, channel=0, data=[75, 0]),
   midi.NoteOnEvent(tick=0, channel=0, data=[77, 80]),
   midi.NoteOnEvent(tick=120, channel=0, data=[77, 0]),
   midi.NoteOnEvent(tick=0, channel=0, data=[79, 82]),
   midi.NoteOnEvent(tick=120, channel=0, data=[79, 0]),
   midi.NoteOnEvent(tick=0, channel=0, data=[81, 85]),
   midi.NoteOnEvent(tick=120, channel=0, data=[81, 0]),
   midi.NoteOnEvent(tick=0, channel=0, data=[82, 88]),
   midi.NoteOnEvent(tick=60, channel=0, data=[82, 0]),
   midi.NoteOnEvent(tick=60, channel=0, data=[65, 67]),
   midi.NoteOnEvent(tick=120, channel=0, data=[65, 0]),
   midi.NoteOnEvent(tick=0, channel=0, data=[67, 68]),
   midi.NoteOnEvent(tick=120, channel=0, data=[67, 0]),
   midi.NoteOnEvent(tick=0, channel=0, data=[68, 69]),
   midi.NoteOnEvent(tick=120, channel=0, data=[68, 0]),
   midi.NoteOnEvent(tick=0, channel=0, data=[70, 71]),
   midi.NoteOnEvent(tick=120, channel=0, data=[70, 0]),
   midi.NoteOnEvent(tick=0, channel=0, data=[72, 72]),
   midi.NoteOnEvent(tick=120, channel=0, data=[72, 0]),
   midi.NoteOnEvent(tick=0, channel=0, data=[74, 73]),
   midi.NoteOnEvent(tick=120, channel=0, data=[74, 0]),
   midi.NoteOnEvent(tick=0, channel=0, data=[76, 74]),
   midi.NoteOnEvent(tick=120, channel=0, data=[76, 0]),
   midi.NoteOnEvent(tick=0, channel=0, data=[77, 76]),
   midi.NoteOnEvent(tick=120, channel=0, data=[77, 0]),
   midi.NoteOnEvent(tick=0, channel=0, data=[75, 75]),
   midi.NoteOnEvent(tick=120, channel=0, data=[75, 0]),
   midi.NoteOnEvent(tick=0, channel=0, data=[74, 73]),
   midi.NoteOnEvent(tick=120, channel=0, data=[74, 0]),
   midi.NoteOnEvent(tick=0, channel=0, data=[75, 76]),
   midi.NoteOnEvent(tick=120, channel=0, data=[75, 0]),
   midi.NoteOnEvent(tick=0, channel=0, data=[77, 75]),
   midi.NoteOnEvent(tick=120, channel=0, data=[77, 0]),
   midi.NoteOnEvent(tick=0, channel=0, data=[79, 78]),
   midi.NoteOnEvent(tick=120, channel=0, data=[79, 0]),
   midi.NoteOnEvent(tick=0, channel=0, data=[81, 81]),
   midi.NoteOnEvent(tick=120, channel=0, data=[81, 0]),
   midi.NoteOnEvent(tick=0, channel=0, data=[83, 84]),
   midi.NoteOnEvent(tick=120, channel=0, data=[83, 0]),
   midi.NoteOnEvent(tick=0, channel=0, data=[84, 87]),
   midi.NoteOnEvent(tick=120, channel=0, data=[84, 0]),
   midi.NoteOnEvent(tick=120, channel=0, data=[83, 82]),
   midi.NoteOnEvent(tick=120, channel=0, data=[83, 0]),
   midi.NoteOnEvent(tick=0, channel=0, data=[81, 80]),
   midi.NoteOnEvent(tick=120, channel=0, data=[81, 0]),
   midi.NoteOnEvent(tick=0, channel=0, data=[79, 79]),
   midi.NoteOnEvent(tick=120, channel=0, data=[79, 0]),
   midi.NoteOnEvent(tick=0, channel=0, data=[77, 78]),
   midi.NoteOnEvent(tick=120, channel=0, data=[77, 0]),
   midi.NoteOnEvent(tick=0, channel=0, data=[75, 77]),
   midi.NoteOnEvent(tick=120, channel=0, data=[75, 0]),
   midi.NoteOnEvent(tick=0, channel=0, data=[74, 76]),
   midi.NoteOnEvent(tick=120, channel=0, data=[74, 0]),
   midi.NoteOnEvent(tick=0, channel=0, data=[72, 75]),
   midi.NoteOnEvent(tick=120, channel=0, data=[72, 0]),
   midi.NoteOnEvent(tick=120, channel=0, data=[75, 73]),
   midi.NoteOnEvent(tick=240, channel=0, data=[75, 0]),
   midi.NoteOnEvent(tick=0, channel=0, data=[74, 71]),
   midi.NoteOnEvent(tick=240, channel=0, data=[74, 0]),
   midi.NoteOnEvent(tick=0, channel=0, data=[72, 70]),
   midi.NoteOnEvent(tick=240, channel=0, data=[72, 0]),
   midi.NoteOnEvent(tick=0, channel=0, data=[70, 68]),
   midi.NoteOnEvent(tick=120, channel=0, data=[70, 0]),
   midi.NoteOnEvent(tick=120, channel=0, data=[69, 67]),
   midi.NoteOnEvent(tick=240, channel=0, data=[69, 0]),
   midi.NoteOnEvent(tick=0, channel=0, data=[70, 68]),
   midi.NoteOnEvent(tick=240, channel=0, data=[70, 0]),
   midi.NoteOnEvent(tick=0, channel=0, data=[72, 72]),
   midi.NoteOnEvent(tick=180, channel=0, data=[72, 0]),
   midi.NoteOnEvent(tick=60, channel=0, data=[66, 67]),
   midi.NoteOnEvent(tick=240, channel=0, data=[66, 0]),
   midi.NoteOnEvent(tick=0, channel=0, data=[67, 67]),
   midi.NoteOnEvent(tick=240, channel=0, data=[67, 0]),
   midi.NoteOnEvent(tick=0, channel=0, data=[69, 70]),
   midi.NoteOnEvent(tick=240, channel=0, data=[69, 0]),
   midi.NoteOnEvent(tick=0, channel=0, data=[66, 65]),
   midi.NoteOnEvent(tick=240, channel=0, data=[66, 0]),
   midi.NoteOnEvent(tick=0, channel=0, data=[67, 71]),
   midi.NoteOnEvent(tick=120, channel=0, data=[67, 0]),
   midi.NoteOnEvent(tick=120, channel=0, data=[74, 72]),
   midi.NoteOnEvent(tick=120, channel=0, data=[74, 0]),
   midi.NoteOnEvent(tick=0, channel=0, data=[72, 72]),
   midi.NoteOnEvent(tick=120, channel=0, data=[72, 0]),
   midi.NoteOnEvent(tick=0, channel=0, data=[74, 76]),
   midi.NoteOnEvent(tick=240, channel=0, data=[74, 0]),
   midi.NoteOnEvent(tick=480, channel=0, data=[76, 77]),
   midi.NoteOnEvent(tick=120, channel=0, data=[76, 0]),
   midi.NoteOnEvent(tick=0, channel=0, data=[74, 77]),
   midi.NoteOnEvent(tick=120, channel=0, data=[74, 0]),
   midi.NoteOnEvent(tick=0, channel=0, data=[76, 81]),
   midi.NoteOnEvent(tick=240, channel=0, data=[76, 0]),
   midi.NoteOnEvent(tick=480, channel=0, data=[78, 84]),
   midi.NoteOnEvent(tick=120, channel=0, data=[78, 0]),
   midi.NoteOnEvent(tick=0, channel=0, data=[76, 84]),
   midi.NoteOnEvent(tick=120, channel=0, data=[76, 0]),
   midi.NoteOnEvent(tick=0, channel=0, data=[78, 89]),
   midi.NoteOnEvent(tick=240, channel=0, data=[78, 0]),
   midi.NoteOnEvent(tick=480, channel=0, data=[67, 72]),
   midi.NoteOnEvent(tick=120, channel=0, data=[67, 0]),
   midi.NoteOnEvent(tick=0, channel=0, data=[65, 72]),
   midi.NoteOnEvent(tick=120, channel=0, data=[65, 0]),
   midi.NoteOnEvent(tick=0, channel=0, data=[67, 77]),
   midi.NoteOnEvent(tick=120, channel=0, data=[67, 0]),
   midi.NoteOnEvent(tick=600, channel=0, data=[69, 71]),
   midi.NoteOnEvent(tick=120, channel=0, data=[69, 0]),
   midi.NoteOnEvent(tick=0, channel=0, data=[67, 71]),
   midi.NoteOnEvent(tick=120, channel=0, data=[67, 0]),
   midi.NoteOnEvent(tick=0, channel=0, data=[69, 76]),
   midi.NoteOnEvent(tick=120, channel=0, data=[69, 0]),
   midi.NoteOnEvent(tick=600, channel=0, data=[71, 71]),
   midi.NoteOnEvent(tick=120, channel=0, data=[71, 0]),
   midi.NoteOnEvent(tick=0, channel=0, data=[69, 71]),
   midi.NoteOnEvent(tick=120, channel=0, data=[69, 0]),
   midi.NoteOnEvent(tick=0, channel=0, data=[71, 76]),
   midi.NoteOnEvent(tick=120, channel=0, data=[71, 0]),
   midi.ControlChangeEvent(tick=360, channel=0, data=[91, 127]),
   midi.NoteOnEvent(tick=240, channel=0, data=[72, 81]),
   midi.NoteOnEvent(tick=120, channel=0, data=[72, 0]),
   midi.NoteOnEvent(tick=0, channel=0, data=[71, 81]),
   midi.NoteOnEvent(tick=120, channel=0, data=[71, 0]),
   midi.NoteOnEvent(tick=0, channel=0, data=[72, 86]),
   midi.NoteOnEvent(tick=120, channel=0, data=[72, 0]),
   midi.NoteOnEvent(tick=120, channel=0, data=[67, 71]),
   midi.NoteOnEvent(tick=240, channel=0, data=[67, 0]),
   midi.NoteOnEvent(tick=0, channel=0, data=[68, 72]),
   midi.NoteOnEvent(tick=120, channel=0, data=[68, 0]),
   midi.NoteOnEvent(tick=120, channel=0, data=[72, 81]),
   midi.NoteOnEvent(tick=120, channel=0, data=[72, 0]),
   midi.NoteOnEvent(tick=0, channel=0, data=[71, 81]),
   midi.NoteOnEvent(tick=120, channel=0, data=[71, 0]),
   midi.NoteOnEvent(tick=0, channel=0, data=[72, 86]),
   midi.NoteOnEvent(tick=120, channel=0, data=[72, 0]),
   midi.NoteOnEvent(tick=120, channel=0, data=[74, 76]),
   midi.NoteOnEvent(tick=240, channel=0, data=[74, 0]),
   midi.NoteOnEvent(tick=0, channel=0, data=[67, 73]),
   midi.NoteOnEvent(tick=120, channel=0, data=[67, 0]),
   midi.NoteOnEvent(tick=120, channel=0, data=[72, 81]),
   midi.NoteOnEvent(tick=120, channel=0, data=[72, 0]),
   midi.NoteOnEvent(tick=0, channel=0, data=[71, 81]),
   midi.NoteOnEvent(tick=120, channel=0, data=[71, 0]),
   midi.NoteOnEvent(tick=0, channel=0, data=[72, 86]),
   midi.NoteOnEvent(tick=120, channel=0, data=[72, 0]),
   midi.NoteOnEvent(tick=120, channel=0, data=[74, 77]),
   midi.NoteOnEvent(tick=120, channel=0, data=[74, 0]),
   midi.NoteOnEvent(tick=120, channel=0, data=[65, 75]),
   midi.NoteOnEvent(tick=120, channel=0, data=[65, 0]),
   midi.NoteOnEvent(tick=0, channel=0, data=[67, 75]),
   midi.NoteOnEvent(tick=120, channel=0, data=[67, 0]),
   midi.NoteOnEvent(tick=0, channel=0, data=[68, 81]),
   midi.NoteOnEvent(tick=480, channel=0, data=[68, 0]),
   midi.NoteOnEvent(tick=0, channel=0, data=[67, 73]),
   midi.NoteOnEvent(tick=120, channel=0, data=[67, 0]),
   midi.NoteOnEvent(tick=0, channel=0, data=[65, 73]),
   midi.NoteOnEvent(tick=120, channel=0, data=[65, 0]),
   midi.NoteOnEvent(tick=0, channel=0, data=[63, 73]),
   midi.ControlChangeEvent(tick=0, channel=0, data=[91, 127]),
   midi.NoteOnEvent(tick=120, channel=0, data=[63, 0]),
   midi.NoteOnEvent(tick=120, channel=0, data=[72, 81]),
   midi.NoteOnEvent(tick=120, channel=0, data=[72, 0]),
   midi.NoteOnEvent(tick=0, channel=0, data=[71, 81]),
   midi.NoteOnEvent(tick=120, channel=0, data=[71, 0]),
   midi.NoteOnEvent(tick=0, channel=0, data=[72, 86]),
   midi.NoteOnEvent(tick=120, channel=0, data=[72, 0]),
   midi.NoteOnEvent(tick=120, channel=0, data=[67, 71]),
   midi.NoteOnEvent(tick=240, channel=0, data=[67, 0]),
   midi.NoteOnEvent(tick=0, channel=0, data=[68, 72]),
   midi.NoteOnEvent(tick=480, channel=0, data=[68, 0]),
   midi.NoteOnEvent(tick=240, channel=0, data=[69, 72]),
   midi.NoteOnEvent(tick=240, channel=0, data=[69, 0]),
   midi.NoteOnEvent(tick=0, channel=0, data=[70, 73]),
   midi.ControlChangeEvent(tick=0, channel=0, data=[91, 127]),
   midi.NoteOnEvent(tick=120, channel=0, data=[70, 0]),
   midi.NoteOnEvent(tick=120, channel=0, data=[70, 81]),
   midi.NoteOnEvent(tick=120, channel=0, data=[70, 0]),
   midi.NoteOnEvent(tick=0, channel=0, data=[69, 81]),
   midi.NoteOnEvent(tick=120, channel=0, data=[69, 0]),
   midi.NoteOnEvent(tick=0, channel=0, data=[70, 86]),
   midi.NoteOnEvent(tick=120, channel=0, data=[70, 0]),
   midi.NoteOnEvent(tick=120, channel=0, data=[65, 71]),
   midi.NoteOnEvent(tick=240, channel=0, data=[65, 0]),
   midi.NoteOnEvent(tick=0, channel=0, data=[67, 72]),
   midi.NoteOnEvent(tick=480, channel=0, data=[67, 0]),
   midi.NoteOnEvent(tick=240, channel=0, data=[67, 72]),
   midi.NoteOnEvent(tick=480, channel=0, data=[67, 0]),
   midi.NoteOnEvent(tick=0, channel=0, data=[68, 71]),
   midi.NoteOnEvent(tick=120, channel=0, data=[68, 0]),
   midi.NoteOnEvent(tick=0, channel=0, data=[70, 72]),
   midi.NoteOnEvent(tick=120, channel=0, data=[70, 0]),
   midi.NoteOnEvent(tick=0, channel=0, data=[72, 74]),
   midi.NoteOnEvent(tick=120, channel=0, data=[72, 0]),
   midi.NoteOnEvent(tick=0, channel=0, data=[71, 72]),
   midi.NoteOnEvent(tick=120, channel=0, data=[71, 0]),
   midi.NoteOnEvent(tick=0, channel=0, data=[72, 76]),
   midi.NoteOnEvent(tick=120, channel=0, data=[72, 0]),
   midi.NoteOnEvent(tick=0, channel=0, data=[68, 72]),
   midi.NoteOnEvent(tick=120, channel=0, data=[68, 0]),
   midi.NoteOnEvent(tick=0, channel=0, data=[65, 76]),
   midi.NoteOnEvent(tick=1200, channel=0, data=[65, 0]),
   midi.NoteOnEvent(tick=0, channel=0, data=[74, 80]),
   midi.NoteOnEvent(tick=120, channel=0, data=[74, 0]),
   midi.NoteOnEvent(tick=0, channel=0, data=[72, 80]),
   midi.NoteOnEvent(tick=120, channel=0, data=[72, 0]),
   midi.NoteOnEvent(tick=0, channel=0, data=[74, 86]),
   midi.NoteOnEvent(tick=120, channel=0, data=[74, 0]),
   midi.NoteOnEvent(tick=120, channel=0, data=[65, 73]),
   midi.NoteOnEvent(tick=240, channel=0, data=[65, 0]),
   midi.NoteOnEvent(tick=0, channel=0, data=[63, 73]),
   midi.NoteOnEvent(tick=120, channel=0, data=[63, 0]),
   midi.NoteOnEvent(tick=120, channel=0, data=[75, 80]),
   midi.NoteOnEvent(tick=120, channel=0, data=[75, 0]),
   midi.NoteOnEvent(tick=0, channel=0, data=[74, 80]),
   midi.NoteOnEvent(tick=120, channel=0, data=[74, 0]),
   midi.NoteOnEvent(tick=0, channel=0, data=[75, 84]),
   midi.NoteOnEvent(tick=120, channel=0, data=[75, 0]),
   midi.NoteOnEvent(tick=120, channel=0, data=[67, 73]),
   midi.NoteOnEvent(tick=240, channel=0, data=[67, 0]),
   midi.NoteOnEvent(tick=0, channel=0, data=[65, 73]),
   midi.NoteOnEvent(tick=120, channel=0, data=[65, 0]),
   midi.NoteOnEvent(tick=120, channel=0, data=[77, 82]),
   midi.NoteOnEvent(tick=120, channel=0, data=[77, 0]),
   midi.NoteOnEvent(tick=0, channel=0, data=[75, 82]),
   midi.NoteOnEvent(tick=120, channel=0, data=[75, 0]),
   midi.NoteOnEvent(tick=0, channel=0, data=[77, 88]),
   midi.NoteOnEvent(tick=120, channel=0, data=[77, 0]),
   midi.NoteOnEvent(tick=120, channel=0, data=[68, 77]),
   midi.NoteOnEvent(tick=240, channel=0, data=[68, 0]),
   midi.NoteOnEvent(tick=0, channel=0, data=[67, 77]),
   midi.NoteOnEvent(tick=60, channel=0, data=[67, 0]),
   midi.NoteOnEvent(tick=60, channel=0, data=[77, 81]),
   midi.NoteOnEvent(tick=120, channel=0, data=[77, 0]),
   midi.NoteOnEvent(tick=0, channel=0, data=[75, 80]),
   midi.NoteOnEvent(tick=120, channel=0, data=[75, 0]),
   midi.NoteOnEvent(tick=0, channel=0, data=[74, 79]),
   midi.NoteOnEvent(tick=120, channel=0, data=[74, 0]),
   midi.NoteOnEvent(tick=0, channel=0, data=[72, 78]),
   midi.NoteOnEvent(tick=120, channel=0, data=[72, 0]),
   midi.NoteOnEvent(tick=0, channel=0, data=[71, 77]),
   midi.NoteOnEvent(tick=120, channel=0, data=[71, 0]),
   midi.NoteOnEvent(tick=0, channel=0, data=[69, 76]),
   midi.NoteOnEvent(tick=120, channel=0, data=[69, 0]),
   midi.NoteOnEvent(tick=0, channel=0, data=[67, 75]),
   midi.NoteOnEvent(tick=120, channel=0, data=[67, 0]),
   midi.NoteOnEvent(tick=0, channel=0, data=[72, 73]),
   midi.NoteOnEvent(tick=120, channel=0, data=[72, 0]),
   midi.NoteOnEvent(tick=120, channel=0, data=[77, 78]),
   midi.NoteOnEvent(tick=240, channel=0, data=[77, 0]),
   midi.NoteOnEvent(tick=0, channel=0, data=[75, 76]),
   midi.NoteOnEvent(tick=240, channel=0, data=[75, 0]),
   midi.NoteOnEvent(tick=0, channel=0, data=[74, 73]),
   midi.NoteOnEvent(tick=240, channel=0, data=[74, 0]),
   midi.NoteOnEvent(tick=240, channel=0, data=[68, 76]),
   midi.NoteOnEvent(tick=240, channel=0, data=[68, 0]),
   midi.NoteOnEvent(tick=0, channel=0, data=[67, 74]),
   midi.NoteOnEvent(tick=240, channel=0, data=[67, 0]),
   midi.NoteOnEvent(tick=0, channel=0, data=[65, 71]),
   midi.NoteOnEvent(tick=240, channel=0, data=[65, 0]),
   midi.NoteOnEvent(tick=0, channel=0, data=[67, 73]),
   midi.NoteOnEvent(tick=120, channel=0, data=[67, 0]),
   midi.NoteOnEvent(tick=120, channel=0, data=[65, 76]),
   midi.NoteOnEvent(tick=120, channel=0, data=[65, 0]),
   midi.NoteOnEvent(tick=0, channel=0, data=[63, 76]),
   midi.NoteOnEvent(tick=120, channel=0, data=[63, 0]),
   midi.NoteOnEvent(tick=0, channel=0, data=[65, 81]),
   midi.NoteOnEvent(tick=120, channel=0, data=[65, 0]),
   midi.NoteOnEvent(tick=120, channel=0, data=[62, 73]),
   midi.NoteOnEvent(tick=240, channel=0, data=[62, 0]),
   midi.NoteOnEvent(tick=0, channel=0, data=[68, 89]),
   midi.NoteOnEvent(tick=240, channel=0, data=[68, 0]),
   midi.NoteOnEvent(tick=0, channel=0, data=[67, 76]),
   midi.NoteOnEvent(tick=240, channel=0, data=[67, 0]),
   midi.NoteOnEvent(tick=240, channel=0, data=[69, 78]),
   midi.NoteOnEvent(tick=240, channel=0, data=[69, 0]),
   midi.NoteOnEvent(tick=0, channel=0, data=[71, 82]),
   midi.NoteOnEvent(tick=240, channel=0, data=[71, 0]),
   midi.NoteOnEvent(tick=0, channel=0, data=[72, 80]),
   midi.NoteOnEvent(tick=240, channel=0, data=[72, 0]),
   midi.NoteOnEvent(tick=0, channel=0, data=[65, 76]),
   midi.NoteOnEvent(tick=120, channel=0, data=[65, 0]),
   midi.NoteOnEvent(tick=0, channel=0, data=[63, 75]),
   midi.NoteOnEvent(tick=120, channel=0, data=[63, 0]),
   midi.NoteOnEvent(tick=0, channel=0, data=[62, 75]),
   midi.NoteOnEvent(tick=120, channel=0, data=[62, 0]),
   midi.NoteOnEvent(tick=0, channel=0, data=[60, 74]),
   midi.NoteOnEvent(tick=120, channel=0, data=[60, 0]),
   midi.NoteOnEvent(tick=240, channel=0, data=[72, 81]),
   midi.NoteOnEvent(tick=120, channel=0, data=[72, 0]),
   midi.NoteOnEvent(tick=0, channel=0, data=[71, 81]),
   midi.NoteOnEvent(tick=120, channel=0, data=[71, 0]),
   midi.NoteOnEvent(tick=0, channel=0, data=[72, 87]),
   midi.NoteOnEvent(tick=120, channel=0, data=[72, 0]),
   midi.NoteOnEvent(tick=120, channel=0, data=[67, 77]),
   midi.NoteOnEvent(tick=240, channel=0, data=[67, 0]),
   midi.NoteOnEvent(tick=0, channel=0, data=[68, 77]),
   midi.NoteOnEvent(tick=120, channel=0, data=[68, 0]),
   midi.NoteOnEvent(tick=120, channel=0, data=[72, 80]),
   midi.NoteOnEvent(tick=120, channel=0, data=[72, 0]),
   midi.NoteOnEvent(tick=0, channel=0, data=[71, 80]),
   midi.NoteOnEvent(tick=120, channel=0, data=[71, 0]),
   midi.NoteOnEvent(tick=0, channel=0, data=[72, 86]),
   midi.NoteOnEvent(tick=240, channel=0, data=[72, 0]),
   midi.NoteOnEvent(tick=0, channel=0, data=[74, 74]),
   midi.NoteOnEvent(tick=240, channel=0, data=[74, 0]),
   midi.NoteOnEvent(tick=0, channel=0, data=[67, 76]),
   midi.NoteOnEvent(tick=120, channel=0, data=[67, 0]),
   midi.NoteOnEvent(tick=120, channel=0, data=[72, 79]),
   midi.NoteOnEvent(tick=120, channel=0, data=[72, 0]),
   midi.NoteOnEvent(tick=0, channel=0, data=[71, 79]),
   midi.NoteOnEvent(tick=120, channel=0, data=[71, 0]),
   midi.NoteOnEvent(tick=0, channel=0, data=[72, 86]),
   midi.NoteOnEvent(tick=240, channel=0, data=[72, 0]),
   midi.NoteOnEvent(tick=0, channel=0, data=[74, 78]),
   midi.NoteOnEvent(tick=220, channel=0, data=[74, 0]),
   midi.NoteOnEvent(tick=20, channel=0, data=[65, 56]),
   midi.NoteOnEvent(tick=120, channel=0, data=[65, 0]),
   midi.NoteOnEvent(tick=0, channel=0, data=[67, 56]),
   midi.NoteOnEvent(tick=120, channel=0, data=[67, 0]),
   midi.NoteOnEvent(tick=0, channel=0, data=[68, 60]),
   midi.NoteOnEvent(tick=480, channel=0, data=[68, 0]),
   midi.NoteOnEvent(tick=0, channel=0, data=[67, 47]),
   midi.NoteOnEvent(tick=120, channel=0, data=[67, 0]),
   midi.NoteOnEvent(tick=0, channel=0, data=[65, 45]),
   midi.NoteOnEvent(tick=120, channel=0, data=[65, 0]),
   midi.NoteOnEvent(tick=0, channel=0, data=[64, 43]),
   midi.NoteOnEvent(tick=960, channel=0, data=[64, 0]),
   midi.ControlChangeEvent(tick=0, channel=0, data=[7, 100]),
   midi.ControlChangeEvent(tick=0, channel=0, data=[10, 64]),
   midi.ControlChangeEvent(tick=72960, channel=0, data=[91, 127]),
   midi.NoteOnEvent(tick=240, channel=0, data=[72, 81]),
   midi.NoteOnEvent(tick=120, channel=0, data=[72, 0]),
   midi.NoteOnEvent(tick=0, channel=0, data=[71, 81]),
   midi.NoteOnEvent(tick=120, channel=0, data=[71, 0]),
   midi.NoteOnEvent(tick=0, channel=0, data=[72, 86]),
   midi.NoteOnEvent(tick=120, channel=0, data=[72, 0]),
   midi.NoteOnEvent(tick=120, channel=0, data=[67, 71]),
   midi.NoteOnEvent(tick=240, channel=0, data=[67, 0]),
   midi.NoteOnEvent(tick=0, channel=0, data=[68, 72]),
   midi.NoteOnEvent(tick=120, channel=0, data=[68, 0]),
   midi.NoteOnEvent(tick=120, channel=0, data=[72, 81]),
   midi.NoteOnEvent(tick=120, channel=0, data=[72, 0]),
   midi.NoteOnEvent(tick=0, channel=0, data=[71, 81]),
   midi.NoteOnEvent(tick=120, channel=0, data=[71, 0]),
   midi.NoteOnEvent(tick=0, channel=0, data=[72, 86]),
   midi.NoteOnEvent(tick=120, channel=0, data=[72, 0]),
   midi.NoteOnEvent(tick=120, channel=0, data=[74, 76]),
   midi.NoteOnEvent(tick=240, channel=0, data=[74, 0]),
   midi.NoteOnEvent(tick=0, channel=0, data=[67, 73]),
   midi.NoteOnEvent(tick=120, channel=0, data=[67, 0]),
   midi.NoteOnEvent(tick=120, channel=0, data=[72, 81]),
   midi.NoteOnEvent(tick=120, channel=0, data=[72, 0]),
   midi.NoteOnEvent(tick=0, channel=0, data=[71, 81]),
   midi.NoteOnEvent(tick=120, channel=0, data=[71, 0]),
   midi.NoteOnEvent(tick=0, channel=0, data=[72, 86]),
   midi.NoteOnEvent(tick=120, channel=0, data=[72, 0]),
   midi.NoteOnEvent(tick=120, channel=0, data=[74, 77]),
   midi.NoteOnEvent(tick=120, channel=0, data=[74, 0]),
   midi.NoteOnEvent(tick=120, channel=0, data=[65, 75]),
   midi.NoteOnEvent(tick=120, channel=0, data=[65, 0]),
   midi.NoteOnEvent(tick=0, channel=0, data=[67, 75]),
   midi.NoteOnEvent(tick=120, channel=0, data=[67, 0]),
   midi.NoteOnEvent(tick=0, channel=0, data=[68, 81]),
   midi.NoteOnEvent(tick=480, channel=0, data=[68, 0]),
   midi.NoteOnEvent(tick=0, channel=0, data=[67, 73]),
   midi.NoteOnEvent(tick=120, channel=0, data=[67, 0]),
   midi.NoteOnEvent(tick=0, channel=0, data=[65, 71]),
   midi.NoteOnEvent(tick=120, channel=0, data=[65, 0]),
   midi.NoteOnEvent(tick=0, channel=0, data=[63, 75]),
   midi.NoteOnEvent(tick=60, channel=0, data=[63, 0]),
   midi.NoteOnEvent(tick=60, channel=0, data=[72, 71]),
   midi.NoteOnEvent(tick=120, channel=0, data=[72, 0]),
   midi.NoteOnEvent(tick=0, channel=0, data=[71, 62]),
   midi.NoteOnEvent(tick=120, channel=0, data=[71, 0]),
   midi.NoteOnEvent(tick=0, channel=0, data=[68, 62]),
   midi.NoteOnEvent(tick=120, channel=0, data=[68, 0]),
   midi.NoteOnEvent(tick=0, channel=0, data=[67, 62]),
   midi.NoteOnEvent(tick=120, channel=0, data=[67, 0]),
   midi.NoteOnEvent(tick=0, channel=0, data=[65, 62]),
   midi.NoteOnEvent(tick=120, channel=0, data=[65, 0]),
   midi.NoteOnEvent(tick=0, channel=0, data=[63, 62]),
   midi.NoteOnEvent(tick=120, channel=0, data=[63, 0]),
   midi.NoteOnEvent(tick=0, channel=0, data=[62, 62]),
   midi.NoteOnEvent(tick=120, channel=0, data=[62, 0]),
   midi.NoteOnEvent(tick=0, channel=0, data=[60, 67]),
   midi.NoteOnEvent(tick=120, channel=0, data=[60, 0]),
   midi.NoteOnEvent(tick=120, channel=0, data=[75, 65]),
   midi.NoteOnEvent(tick=240, channel=0, data=[75, 0]),
   midi.NoteOnEvent(tick=0, channel=0, data=[74, 65]),
   midi.NoteOnEvent(tick=240, channel=0, data=[74, 0]),
   midi.NoteOnEvent(tick=0, channel=0, data=[72, 65]),
   midi.NoteOnEvent(tick=240, channel=0, data=[72, 0]),
   midi.NoteOnEvent(tick=0, channel=0, data=[70, 68]),
   midi.NoteOnEvent(tick=120, channel=0, data=[70, 0]),
   midi.NoteOnEvent(tick=120, channel=0, data=[69, 63]),
   midi.NoteOnEvent(tick=240, channel=0, data=[69, 0]),
   midi.NoteOnEvent(tick=0, channel=0, data=[70, 67]),
   midi.NoteOnEvent(tick=240, channel=0, data=[70, 0]),
   midi.NoteOnEvent(tick=0, channel=0, data=[72, 62]),
   midi.NoteOnEvent(tick=238, channel=0, data=[72, 0]),
   midi.NoteOnEvent(tick=2, channel=0, data=[66, 67]),
   midi.NoteOnEvent(tick=240, channel=0, data=[66, 0]),
   midi.NoteOnEvent(tick=0, channel=0, data=[67, 62]),
   midi.NoteOnEvent(tick=240, channel=0, data=[67, 0]),
   midi.NoteOnEvent(tick=0, channel=0, data=[69, 66]),
   midi.NoteOnEvent(tick=240, channel=0, data=[69, 0]),
   midi.NoteOnEvent(tick=0, channel=0, data=[66, 63]),
   midi.NoteOnEvent(tick=240, channel=0, data=[66, 0]),
   midi.NoteOnEvent(tick=0, channel=0, data=[67, 69]),
   midi.NoteOnEvent(tick=480, channel=0, data=[67, 0]),
   midi.NoteOnEvent(tick=120, channel=0, data=[60, 70]),
   midi.NoteOnEvent(tick=120, channel=0, data=[60, 0]),
   midi.NoteOnEvent(tick=0, channel=0, data=[62, 72]),
   midi.NoteOnEvent(tick=120, channel=0, data=[62, 0]),
   midi.NoteOnEvent(tick=0, channel=0, data=[63, 74]),
   midi.NoteOnEvent(tick=120, channel=0, data=[63, 0]),
   midi.NoteOnEvent(tick=0, channel=0, data=[65, 75]),
   midi.NoteOnEvent(tick=120, channel=0, data=[65, 0]),
   midi.NoteOnEvent(tick=0, channel=0, data=[67, 75]),
   midi.NoteOnEvent(tick=120, channel=0, data=[67, 0]),
   midi.NoteOnEvent(tick=0, channel=0, data=[68, 79]),
   midi.NoteOnEvent(tick=360, channel=0, data=[68, 0]),
   midi.NoteOnEvent(tick=0, channel=0, data=[62, 71]),
   midi.NoteOnEvent(tick=120, channel=0, data=[62, 0]),
   midi.NoteOnEvent(tick=0, channel=0, data=[63, 73]),
   midi.NoteOnEvent(tick=120, channel=0, data=[63, 0]),
   midi.NoteOnEvent(tick=0, channel=0, data=[65, 74]),
   midi.NoteOnEvent(tick=120, channel=0, data=[65, 0]),
   midi.NoteOnEvent(tick=0, channel=0, data=[67, 76]),
   midi.NoteOnEvent(tick=120, channel=0, data=[67, 0]),
   midi.NoteOnEvent(tick=0, channel=0, data=[69, 77]),
   midi.NoteOnEvent(tick=120, channel=0, data=[69, 0]),
   midi.NoteOnEvent(tick=0, channel=0, data=[70, 79]),
   midi.NoteOnEvent(tick=360, channel=0, data=[70, 0]),
   midi.NoteOnEvent(tick=0, channel=0, data=[63, 69]),
   midi.NoteOnEvent(tick=120, channel=0, data=[63, 0]),
   midi.NoteOnEvent(tick=0, channel=0, data=[65, 71]),
   midi.NoteOnEvent(tick=120, channel=0, data=[65, 0]),
   midi.NoteOnEvent(tick=0, channel=0, data=[67, 73]),
   midi.NoteOnEvent(tick=120, channel=0, data=[67, 0]),
   midi.NoteOnEvent(tick=0, channel=0, data=[68, 74]),
   midi.NoteOnEvent(tick=120, channel=0, data=[68, 0]),
   midi.NoteOnEvent(tick=0, channel=0, data=[67, 73]),
   midi.NoteOnEvent(tick=120, channel=0, data=[67, 0]),
   midi.NoteOnEvent(tick=0, channel=0, data=[65, 72]),
   midi.NoteOnEvent(tick=120, channel=0, data=[65, 0]),
   midi.NoteOnEvent(tick=0, channel=0, data=[63, 71]),
   midi.NoteOnEvent(tick=120, channel=0, data=[63, 0]),
   midi.NoteOnEvent(tick=0, channel=0, data=[62, 70]),
   midi.NoteOnEvent(tick=120, channel=0, data=[62, 0]),
   midi.NoteOnEvent(tick=120, channel=0, data=[72, 78]),
   midi.NoteOnEvent(tick=120, channel=0, data=[72, 0]),
   midi.NoteOnEvent(tick=0, channel=0, data=[71, 78]),
   midi.NoteOnEvent(tick=120, channel=0, data=[71, 0]),
   midi.NoteOnEvent(tick=0, channel=0, data=[72, 83]),
   midi.NoteOnEvent(tick=120, channel=0, data=[72, 0]),
   midi.NoteOnEvent(tick=1080, channel=0, data=[77, 74]),
   midi.NoteOnEvent(tick=240, channel=0, data=[77, 0]),
   midi.NoteOnEvent(tick=0, channel=0, data=[75, 73]),
   midi.NoteOnEvent(tick=240, channel=0, data=[75, 0]),
   midi.NoteOnEvent(tick=0, channel=0, data=[74, 72]),
   midi.NoteOnEvent(tick=240, channel=0, data=[74, 0]),
   midi.NoteOnEvent(tick=240, channel=0, data=[68, 73]),
   midi.NoteOnEvent(tick=240, channel=0, data=[68, 0]),
   midi.NoteOnEvent(tick=0, channel=0, data=[67, 73]),
   midi.NoteOnEvent(tick=240, channel=0, data=[67, 0]),
   midi.NoteOnEvent(tick=0, channel=0, data=[65, 73]),
   midi.NoteOnEvent(tick=240, channel=0, data=[65, 0]),
   midi.NoteOnEvent(tick=0, channel=0, data=[67, 75]),
   midi.NoteOnEvent(tick=120, channel=0, data=[67, 0]),
   midi.NoteOnEvent(tick=120, channel=0, data=[65, 78]),
   midi.NoteOnEvent(tick=120, channel=0, data=[65, 0]),
   midi.NoteOnEvent(tick=0, channel=0, data=[63, 78]),
   midi.NoteOnEvent(tick=120, channel=0, data=[63, 0]),
   midi.NoteOnEvent(tick=0, channel=0, data=[65, 84]),
   midi.NoteOnEvent(tick=120, channel=0, data=[65, 0]),
   midi.NoteOnEvent(tick=120, channel=0, data=[62, 76]),
   midi.NoteOnEvent(tick=240, channel=0, data=[62, 0]),
   midi.NoteOnEvent(tick=0, channel=0, data=[67, 82]),
   midi.NoteOnEvent(tick=480, channel=0, data=[67, 0]),
   midi.NoteOnEvent(tick=240, channel=0, data=[71, 72]),
   midi.NoteOnEvent(tick=240, channel=0, data=[71, 0]),
   midi.NoteOnEvent(tick=0, channel=0, data=[72, 72]),
   midi.NoteOnEvent(tick=120, channel=0, data=[72, 0]),
   midi.NoteOnEvent(tick=120, channel=0, data=[72, 82]),
   midi.NoteOnEvent(tick=120, channel=0, data=[72, 0]),
   midi.NoteOnEvent(tick=0, channel=0, data=[71, 82]),
   midi.NoteOnEvent(tick=120, channel=0, data=[71, 0]),
   midi.NoteOnEvent(tick=0, channel=0, data=[72, 87]),
   midi.NoteOnEvent(tick=120, channel=0, data=[72, 0]),
   midi.NoteOnEvent(tick=120, channel=0, data=[67, 73]),
   midi.NoteOnEvent(tick=240, channel=0, data=[67, 0]),
   midi.NoteOnEvent(tick=0, channel=0, data=[68, 73]),
   midi.NoteOnEvent(tick=480, channel=0, data=[68, 0]),
   midi.NoteOnEvent(tick=240, channel=0, data=[69, 71]),
   midi.NoteOnEvent(tick=240, channel=0, data=[69, 0]),
   midi.NoteOnEvent(tick=0, channel=0, data=[70, 71]),
   midi.NoteOnEvent(tick=120, channel=0, data=[70, 0]),
   midi.NoteOnEvent(tick=120, channel=0, data=[70, 82]),
   midi.NoteOnEvent(tick=120, channel=0, data=[70, 0]),
   midi.NoteOnEvent(tick=0, channel=0, data=[69, 82]),
   midi.NoteOnEvent(tick=120, channel=0, data=[69, 0]),
   midi.NoteOnEvent(tick=0, channel=0, data=[70, 86]),
   midi.NoteOnEvent(tick=120, channel=0, data=[70, 0]),
   midi.NoteOnEvent(tick=120, channel=0, data=[65, 75]),
   midi.NoteOnEvent(tick=240, channel=0, data=[65, 0]),
   midi.NoteOnEvent(tick=0, channel=0, data=[67, 75]),
   midi.NoteOnEvent(tick=480, channel=0, data=[67, 0]),
   midi.NoteOnEvent(tick=240, channel=0, data=[67, 74]),
   midi.NoteOnEvent(tick=240, channel=0, data=[67, 0]),
   midi.NoteOnEvent(tick=0, channel=0, data=[68, 74]),
   midi.NoteOnEvent(tick=120, channel=0, data=[68, 0]),
   midi.NoteOnEvent(tick=120, channel=0, data=[68, 75]),
   midi.NoteOnEvent(tick=240, channel=0, data=[68, 0]),
   midi.NoteOnEvent(tick=0, channel=0, data=[67, 74]),
   midi.NoteOnEvent(tick=240, channel=0, data=[67, 0]),
   midi.NoteOnEvent(tick=0, channel=0, data=[65, 72]),
   midi.NoteOnEvent(tick=240, channel=0, data=[65, 0]),
   midi.NoteOnEvent(tick=240, channel=0, data=[56, 66]),
   midi.NoteOnEvent(tick=240, channel=0, data=[56, 0]),
   midi.NoteOnEvent(tick=0, channel=0, data=[58, 69]),
   midi.NoteOnEvent(tick=240, channel=0, data=[58, 0]),
   midi.NoteOnEvent(tick=0, channel=0, data=[60, 71]),
   midi.NoteOnEvent(tick=180, channel=0, data=[60, 0]),
   midi.NoteOnEvent(tick=300, channel=0, data=[56, 73]),
   midi.NoteOnEvent(tick=120, channel=0, data=[56, 0]),
   midi.NoteOnEvent(tick=0, channel=0, data=[55, 73]),
   midi.NoteOnEvent(tick=120, channel=0, data=[55, 0]),
   midi.NoteOnEvent(tick=0, channel=0, data=[56, 78]),
   midi.NoteOnEvent(tick=120, channel=0, data=[56, 0]),
   midi.NoteOnEvent(tick=120, channel=0, data=[53, 72]),
   midi.NoteOnEvent(tick=240, channel=0, data=[53, 0]),
   midi.NoteOnEvent(tick=0, channel=0, data=[58, 71]),
   midi.NoteOnEvent(tick=120, channel=0, data=[58, 0]),
   midi.NoteOnEvent(tick=120, channel=0, data=[60, 65]),
   midi.NoteOnEvent(tick=240, channel=0, data=[60, 0]),
   midi.NoteOnEvent(tick=0, channel=0, data=[58, 63]),
   midi.NoteOnEvent(tick=240, channel=0, data=[58, 0]),
   midi.NoteOnEvent(tick=0, channel=0, data=[56, 61]),
   midi.NoteOnEvent(tick=240, channel=0, data=[56, 0]),
   midi.NoteOnEvent(tick=0, channel=0, data=[58, 57]),
   midi.NoteOnEvent(tick=120, channel=0, data=[58, 0]),
   midi.NoteOnEvent(tick=120, channel=0, data=[55, 68]),
   midi.NoteOnEvent(tick=240, channel=0, data=[55, 0]),
   midi.NoteOnEvent(tick=0, channel=0, data=[53, 66]),
   midi.NoteOnEvent(tick=240, channel=0, data=[53, 0]),
   midi.NoteOnEvent(tick=0, channel=0, data=[51, 65]),
   midi.NoteOnEvent(tick=240, channel=0, data=[51, 0]),
   midi.NoteOnEvent(tick=0, channel=0, data=[53, 63]),
   midi.NoteOnEvent(tick=120, channel=0, data=[53, 0]),
   midi.NoteOnEvent(tick=120, channel=0, data=[61, 71]),
   midi.NoteOnEvent(tick=240, channel=0, data=[61, 0]),
   midi.NoteOnEvent(tick=0, channel=0, data=[60, 69]),
   midi.NoteOnEvent(tick=240, channel=0, data=[60, 0]),
   midi.NoteOnEvent(tick=0, channel=0, data=[58, 67]),
   midi.NoteOnEvent(tick=240, channel=0, data=[58, 0]),
   midi.NoteOnEvent(tick=0, channel=0, data=[60, 65]),
   midi.NoteOnEvent(tick=120, channel=0, data=[60, 0]),
   midi.NoteOnEvent(tick=120, channel=0, data=[56, 68]),
   midi.NoteOnEvent(tick=240, channel=0, data=[56, 0]),
   midi.NoteOnEvent(tick=0, channel=0, data=[55, 67]),
   midi.NoteOnEvent(tick=240, channel=0, data=[55, 0]),
   midi.NoteOnEvent(tick=0, channel=0, data=[53, 65]),
   midi.NoteOnEvent(tick=240, channel=0, data=[53, 0]),
   midi.NoteOnEvent(tick=0, channel=0, data=[55, 64]),
   midi.NoteOnEvent(tick=120, channel=0, data=[55, 0]),
   midi.NoteOnEvent(tick=120, channel=0, data=[67, 80]),
   midi.NoteOnEvent(tick=120, channel=0, data=[67, 0]),
   midi.NoteOnEvent(tick=0, channel=0, data=[66, 80]),
   midi.NoteOnEvent(tick=120, channel=0, data=[66, 0]),
   midi.NoteOnEvent(tick=0, channel=0, data=[67, 88]),
   midi.NoteOnEvent(tick=120, channel=0, data=[67, 0]),
   midi.NoteOnEvent(tick=120, channel=0, data=[60, 74]),
   midi.NoteOnEvent(tick=240, channel=0, data=[60, 0]),
   midi.NoteOnEvent(tick=0, channel=0, data=[63, 74]),
   midi.NoteOnEvent(tick=120, channel=0, data=[63, 0]),
   midi.NoteOnEvent(tick=120, channel=0, data=[67, 80]),
   midi.NoteOnEvent(tick=120, channel=0, data=[67, 0]),
   midi.NoteOnEvent(tick=0, channel=0, data=[66, 80]),
   midi.NoteOnEvent(tick=120, channel=0, data=[66, 0]),
   midi.NoteOnEvent(tick=0, channel=0, data=[67, 87]),
   midi.NoteOnEvent(tick=240, channel=0, data=[67, 0]),
   midi.NoteOnEvent(tick=0, channel=0, data=[69, 77]),
   midi.NoteOnEvent(tick=240, channel=0, data=[69, 0]),
   midi.NoteOnEvent(tick=0, channel=0, data=[62, 76]),
   midi.NoteOnEvent(tick=120, channel=0, data=[62, 0]),
   midi.NoteOnEvent(tick=120, channel=0, data=[67, 80]),
   midi.NoteOnEvent(tick=120, channel=0, data=[67, 0]),
   midi.NoteOnEvent(tick=0, channel=0, data=[66, 80]),
   midi.NoteOnEvent(tick=120, channel=0, data=[66, 0]),
   midi.NoteOnEvent(tick=0, channel=0, data=[67, 86]),
   midi.NoteOnEvent(tick=240, channel=0, data=[67, 0]),
   midi.NoteOnEvent(tick=0, channel=0, data=[69, 79]),
   midi.NoteOnEvent(tick=180, channel=0, data=[69, 0]),
   midi.NoteOnEvent(tick=60, channel=0, data=[60, 73]),
   midi.NoteOnEvent(tick=120, channel=0, data=[60, 0]),
   midi.NoteOnEvent(tick=0, channel=0, data=[62, 73]),
   midi.NoteOnEvent(tick=120, channel=0, data=[62, 0]),
   midi.NoteOnEvent(tick=0, channel=0, data=[63, 80]),
   midi.NoteOnEvent(tick=480, channel=0, data=[63, 0]),
   midi.NoteOnEvent(tick=0, channel=0, data=[62, 77]),
   midi.NoteOnEvent(tick=120, channel=0, data=[62, 0]),
   midi.NoteOnEvent(tick=0, channel=0, data=[60, 77]),
   midi.NoteOnEvent(tick=120, channel=0, data=[60, 0]),
   midi.NoteOnEvent(tick=0, channel=0, data=[58, 75]),
   midi.NoteOnEvent(tick=120, channel=0, data=[58, 0]),
   midi.NoteOnEvent(tick=480, channel=0, data=[62, 67]),
   midi.NoteOnEvent(tick=120, channel=0, data=[62, 0]),
   midi.NoteOnEvent(tick=0, channel=0, data=[64, 69]),
   midi.NoteOnEvent(tick=120, channel=0, data=[64, 0]),
   midi.NoteOnEvent(tick=0, channel=0, data=[66, 71]),
   midi.NoteOnEvent(tick=120, channel=0, data=[66, 0]),
   midi.NoteOnEvent(tick=0, channel=0, data=[67, 73]),
   midi.NoteOnEvent(tick=120, channel=0, data=[67, 0]),
   midi.NoteOnEvent(tick=0, channel=0, data=[69, 75]),
   midi.NoteOnEvent(tick=120, channel=0, data=[69, 0]),
   midi.NoteOnEvent(tick=0, channel=0, data=[70, 77]),
   midi.NoteOnEvent(tick=360, channel=0, data=[70, 0]),
   midi.NoteOnEvent(tick=0, channel=0, data=[64, 73]),
   midi.NoteOnEvent(tick=120, channel=0, data=[64, 0]),
   midi.NoteOnEvent(tick=0, channel=0, data=[65, 75]),
   midi.NoteOnEvent(tick=120, channel=0, data=[65, 0]),
   midi.NoteOnEvent(tick=0, channel=0, data=[67, 77]),
   midi.NoteOnEvent(tick=120, channel=0, data=[67, 0]),
   midi.NoteOnEvent(tick=0, channel=0, data=[69, 79]),
   midi.NoteOnEvent(tick=120, channel=0, data=[69, 0]),
   midi.NoteOnEvent(tick=0, channel=0, data=[70, 79]),
   midi.NoteOnEvent(tick=120, channel=0, data=[70, 0]),
   midi.NoteOnEvent(tick=0, channel=0, data=[72, 83]),
   midi.NoteOnEvent(tick=360, channel=0, data=[72, 0]),
   midi.NoteOnEvent(tick=0, channel=0, data=[66, 75]),
   midi.NoteOnEvent(tick=120, channel=0, data=[66, 0]),
   midi.NoteOnEvent(tick=0, channel=0, data=[67, 78]),
   midi.NoteOnEvent(tick=120, channel=0, data=[67, 0]),
   midi.NoteOnEvent(tick=0, channel=0, data=[69, 80]),
   midi.NoteOnEvent(tick=120, channel=0, data=[69, 0]),
   midi.NoteOnEvent(tick=0, channel=0, data=[70, 83]),
   midi.NoteOnEvent(tick=240, channel=0, data=[70, 0]),
   midi.NoteOnEvent(tick=0, channel=0, data=[63, 71]),
   midi.NoteOnEvent(tick=120, channel=0, data=[63, 0]),
   midi.NoteOnEvent(tick=0, channel=0, data=[62, 71]),
   midi.NoteOnEvent(tick=120, channel=0, data=[62, 0]),
   midi.NoteOnEvent(tick=0, channel=0, data=[63, 74]),
   midi.NoteOnEvent(tick=120, channel=0, data=[63, 0]),
   midi.NoteOnEvent(tick=120, channel=0, data=[55, 64]),
   midi.NoteOnEvent(tick=120, channel=0, data=[55, 0]),
   midi.NoteOnEvent(tick=120, channel=0, data=[56, 64]),
   midi.NoteOnEvent(tick=120, channel=0, data=[56, 0]),
   midi.NoteOnEvent(tick=120, channel=0, data=[65, 72]),
   midi.NoteOnEvent(tick=120, channel=0, data=[65, 0]),
   midi.NoteOnEvent(tick=0, channel=0, data=[63, 72]),
   midi.NoteOnEvent(tick=120, channel=0, data=[63, 0]),
   midi.NoteOnEvent(tick=0, channel=0, data=[65, 76]),
   midi.NoteOnEvent(tick=120, channel=0, data=[65, 0]),
   midi.NoteOnEvent(tick=120, channel=0, data=[57, 64]),
   midi.NoteOnEvent(tick=120, channel=0, data=[57, 0]),
   midi.NoteOnEvent(tick=120, channel=0, data=[58, 64]),
   midi.NoteOnEvent(tick=120, channel=0, data=[58, 0]),
   midi.NoteOnEvent(tick=120, channel=0, data=[67, 72]),
   midi.NoteOnEvent(tick=120, channel=0, data=[67, 0]),
   midi.NoteOnEvent(tick=0, channel=0, data=[65, 72]),
   midi.NoteOnEvent(tick=120, channel=0, data=[65, 0]),
   midi.NoteOnEvent(tick=0, channel=0, data=[67, 75]),
   midi.NoteOnEvent(tick=120, channel=0, data=[67, 0]),
   midi.NoteOnEvent(tick=120, channel=0, data=[59, 64]),
   midi.NoteOnEvent(tick=120, channel=0, data=[59, 0]),
   midi.NoteOnEvent(tick=120, channel=0, data=[60, 69]),
   midi.NoteOnEvent(tick=60, channel=0, data=[60, 0]),
   midi.NoteOnEvent(tick=60, channel=0, data=[65, 68]),
   midi.NoteOnEvent(tick=120, channel=0, data=[65, 0]),
   midi.NoteOnEvent(tick=0, channel=0, data=[63, 67]),
   midi.NoteOnEvent(tick=120, channel=0, data=[63, 0]),
   midi.NoteOnEvent(tick=0, channel=0, data=[62, 66]),
   midi.NoteOnEvent(tick=120, channel=0, data=[62, 0]),
   midi.NoteOnEvent(tick=0, channel=0, data=[60, 66]),
   midi.NoteOnEvent(tick=120, channel=0, data=[60, 0]),
   midi.NoteOnEvent(tick=0, channel=0, data=[58, 65]),
   midi.NoteOnEvent(tick=120, channel=0, data=[58, 0]),
   midi.NoteOnEvent(tick=0, channel=0, data=[56, 64]),
   midi.NoteOnEvent(tick=120, channel=0, data=[56, 0]),
   midi.NoteOnEvent(tick=0, channel=0, data=[55, 63]),
   midi.NoteOnEvent(tick=120, channel=0, data=[55, 0]),
   midi.NoteOnEvent(tick=0, channel=0, data=[53, 62]),
   midi.NoteOnEvent(tick=120, channel=0, data=[53, 0]),
   midi.NoteOnEvent(tick=120, channel=0, data=[68, 64]),
   midi.NoteOnEvent(tick=240, channel=0, data=[68, 0]),
   midi.NoteOnEvent(tick=0, channel=0, data=[67, 68]),
   midi.NoteOnEvent(tick=240, channel=0, data=[67, 0]),
   midi.NoteOnEvent(tick=0, channel=0, data=[65, 68]),
   midi.NoteOnEvent(tick=240, channel=0, data=[65, 0]),
   midi.NoteOnEvent(tick=0, channel=0, data=[63, 66]),
   midi.NoteOnEvent(tick=120, channel=0, data=[63, 0]),
   midi.NoteOnEvent(tick=120, channel=0, data=[62, 64]),
   midi.NoteOnEvent(tick=240, channel=0, data=[62, 0]),
   midi.NoteOnEvent(tick=0, channel=0, data=[63, 64]),
   midi.NoteOnEvent(tick=240, channel=0, data=[63, 0]),
   midi.NoteOnEvent(tick=0, channel=0, data=[65, 64]),
   midi.NoteOnEvent(tick=238, channel=0, data=[65, 0]),
   midi.NoteOnEvent(tick=2, channel=0, data=[59, 69]),
   midi.NoteOnEvent(tick=120, channel=0, data=[59, 0]),
   midi.NoteOnEvent(tick=120, channel=0, data=[60, 64]),
   midi.NoteOnEvent(tick=240, channel=0, data=[60, 0]),
   midi.NoteOnEvent(tick=0, channel=0, data=[62, 67]),
   midi.NoteOnEvent(tick=240, channel=0, data=[62, 0]),
   midi.NoteOnEvent(tick=0, channel=0, data=[59, 59]),
   midi.NoteOnEvent(tick=240, channel=0, data=[59, 0]),
   midi.NoteOnEvent(tick=0, channel=0, data=[60, 66]),
   midi.NoteOnEvent(tick=480, channel=0, data=[60, 0]),
   midi.NoteOnEvent(tick=240, channel=0, data=[64, 64]),
   midi.NoteOnEvent(tick=240, channel=0, data=[64, 0]),
   midi.NoteOnEvent(tick=0, channel=0, data=[65, 64]),
   midi.NoteOnEvent(tick=120, channel=0, data=[65, 0]),
   midi.NoteOnEvent(tick=120, channel=0, data=[65, 82]),
   midi.NoteOnEvent(tick=120, channel=0, data=[65, 0]),
   midi.NoteOnEvent(tick=0, channel=0, data=[64, 82]),
   midi.NoteOnEvent(tick=120, channel=0, data=[64, 0]),
   midi.NoteOnEvent(tick=0, channel=0, data=[65, 84]),
   midi.NoteOnEvent(tick=120, channel=0, data=[65, 0]),
   midi.NoteOnEvent(tick=120, channel=0, data=[60, 72]),
   midi.NoteOnEvent(tick=240, channel=0, data=[60, 0]),
   midi.NoteOnEvent(tick=0, channel=0, data=[62, 72]),
   midi.NoteOnEvent(tick=480, channel=0, data=[62, 0]),
   midi.NoteOnEvent(tick=240, channel=0, data=[62, 69]),
   midi.NoteOnEvent(tick=240, channel=0, data=[62, 0]),
   midi.NoteOnEvent(tick=0, channel=0, data=[63, 69]),
   midi.NoteOnEvent(tick=120, channel=0, data=[63, 0]),
   midi.NoteOnEvent(tick=120, channel=0, data=[63, 79]),
   midi.NoteOnEvent(tick=120, channel=0, data=[63, 0]),
   midi.NoteOnEvent(tick=0, channel=0, data=[62, 79]),
   midi.NoteOnEvent(tick=120, channel=0, data=[62, 0]),
   midi.NoteOnEvent(tick=0, channel=0, data=[63, 84]),
   midi.NoteOnEvent(tick=120, channel=0, data=[63, 0]),
   midi.NoteOnEvent(tick=120, channel=0, data=[58, 73]),
   midi.NoteOnEvent(tick=240, channel=0, data=[58, 0]),
   midi.NoteOnEvent(tick=0, channel=0, data=[60, 73]),
   midi.NoteOnEvent(tick=1200, channel=0, data=[60, 0]),
   midi.NoteOnEvent(tick=0, channel=0, data=[62, 72]),
   midi.NoteOnEvent(tick=120, channel=0, data=[62, 0]),
   midi.NoteOnEvent(tick=0, channel=0, data=[63, 73]),
   midi.NoteOnEvent(tick=120, channel=0, data=[63, 0]),
   midi.NoteOnEvent(tick=0, channel=0, data=[65, 75]),
   midi.NoteOnEvent(tick=120, channel=0, data=[65, 0]),
   midi.NoteOnEvent(tick=0, channel=0, data=[63, 73]),
   midi.NoteOnEvent(tick=120, channel=0, data=[63, 0]),
   midi.NoteOnEvent(tick=0, channel=0, data=[65, 75]),
   midi.NoteOnEvent(tick=120, channel=0, data=[65, 0]),
   midi.NoteOnEvent(tick=0, channel=0, data=[62, 73]),
   midi.NoteOnEvent(tick=120, channel=0, data=[62, 0]),
   midi.NoteOnEvent(tick=0, channel=0, data=[59, 75]),
   midi.NoteOnEvent(tick=120, channel=0, data=[59, 0]),
   midi.NoteOnEvent(tick=600, channel=0, data=[59, 63]),
   midi.NoteOnEvent(tick=240, channel=0, data=[59, 0]),
   midi.NoteOnEvent(tick=0, channel=0, data=[60, 63]),
   midi.NoteOnEvent(tick=120, channel=0, data=[60, 0]),
   midi.NoteOnEvent(tick=600, channel=0, data=[63, 65]),
   midi.NoteOnEvent(tick=240, channel=0, data=[63, 0]),
   midi.NoteOnEvent(tick=0, channel=0, data=[62, 65]),
   midi.NoteOnEvent(tick=120, channel=0, data=[62, 0]),
   midi.NoteOnEvent(tick=600, channel=0, data=[65, 70]),
   midi.NoteOnEvent(tick=480, channel=0, data=[65, 0]),
   midi.NoteOnEvent(tick=480, channel=0, data=[65, 67]),
   midi.NoteOnEvent(tick=240, channel=0, data=[65, 0]),
   midi.NoteOnEvent(tick=0, channel=0, data=[63, 65]),
   midi.NoteOnEvent(tick=120, channel=0, data=[63, 0]),
   midi.NoteOnEvent(tick=120, channel=0, data=[68, 66]),
   midi.NoteOnEvent(tick=240, channel=0, data=[68, 0]),
   midi.NoteOnEvent(tick=0, channel=0, data=[67, 65]),
   midi.NoteOnEvent(tick=240, channel=0, data=[67, 0]),
   midi.NoteOnEvent(tick=0, channel=0, data=[65, 64]),
   midi.NoteOnEvent(tick=240, channel=0, data=[65, 0]),
   midi.NoteOnEvent(tick=0, channel=0, data=[63, 71]),
   midi.NoteOnEvent(tick=120, channel=0, data=[63, 0]),
   midi.NoteOnEvent(tick=120, channel=0, data=[62, 69]),
   midi.NoteOnEvent(tick=240, channel=0, data=[62, 0]),
   midi.NoteOnEvent(tick=0, channel=0, data=[63, 67]),
   midi.NoteOnEvent(tick=240, channel=0, data=[63, 0]),
   midi.NoteOnEvent(tick=240, channel=0, data=[59, 69]),
   midi.NoteOnEvent(tick=120, channel=0, data=[59, 0]),
   midi.NoteOnEvent(tick=120, channel=0, data=[60, 65]),
   midi.NoteOnEvent(tick=240, channel=0, data=[60, 0]),
   midi.NoteOnEvent(tick=0, channel=0, data=[62, 69]),
   midi.NoteOnEvent(tick=120, channel=0, data=[62, 0]),
   midi.NoteOnEvent(tick=120, channel=0, data=[59, 65]),
   midi.NoteOnEvent(tick=240, channel=0, data=[59, 0]),
   midi.NoteOnEvent(tick=0, channel=0, data=[59, 88]),
   midi.NoteOnEvent(tick=240, channel=0, data=[59, 0]),
   midi.NoteOnEvent(tick=0, channel=0, data=[60, 62]),
   midi.NoteOnEvent(tick=240, channel=0, data=[60, 0]),
   midi.NoteOnEvent(tick=240, channel=0, data=[60, 68]),
   midi.NoteOnEvent(tick=240, channel=0, data=[60, 0]),
   midi.NoteOnEvent(tick=0, channel=0, data=[65, 75]),
   midi.NoteOnEvent(tick=120, channel=0, data=[65, 0]),
   midi.NoteOnEvent(tick=0, channel=0, data=[62, 72]),
   midi.NoteOnEvent(tick=120, channel=0, data=[62, 0]),
   midi.NoteOnEvent(tick=0, channel=0, data=[63, 77]),
   midi.NoteOnEvent(tick=120, channel=0, data=[63, 0]),
   midi.NoteOnEvent(tick=0, channel=0, data=[60, 71]),
   midi.NoteOnEvent(tick=360, channel=0, data=[60, 0]),
   midi.NoteOnEvent(tick=0, channel=0, data=[59, 74]),
   midi.NoteOnEvent(tick=240, channel=0, data=[59, 0]),
   midi.NoteOnEvent(tick=0, channel=0, data=[60, 81]),
   midi.NoteOnEvent(tick=240, channel=0, data=[60, 0]),
   midi.NoteOnEvent(tick=480, channel=0, data=[64, 65]),
   midi.NoteOnEvent(tick=240, channel=0, data=[64, 0]),
   midi.NoteOnEvent(tick=0, channel=0, data=[65, 66]),
   midi.NoteOnEvent(tick=120, channel=0, data=[65, 0]),
   midi.NoteOnEvent(tick=600, channel=0, data=[71, 45]),
   midi.NoteOnEvent(tick=0, channel=0, data=[68, 45]),
   midi.NoteOnEvent(tick=0, channel=0, data=[65, 45]),
   midi.NoteOnEvent(tick=240, channel=0, data=[65, 0]),
   midi.NoteOnEvent(tick=0, channel=0, data=[68, 0]),
   midi.NoteOnEvent(tick=0, channel=0, data=[71, 0]),
   midi.NoteOnEvent(tick=0, channel=0, data=[65, 60]),
   midi.NoteOnEvent(tick=120, channel=0, data=[65, 0]),
   midi.NoteOnEvent(tick=120, channel=0, data=[63, 64]),
   midi.NoteOnEvent(tick=120, channel=0, data=[63, 0]),
   midi.NoteOnEvent(tick=0, channel=0, data=[62, 64]),
   midi.NoteOnEvent(tick=120, channel=0, data=[62, 0]),
   midi.NoteOnEvent(tick=0, channel=0, data=[63, 69]),
   midi.NoteOnEvent(tick=240, channel=0, data=[63, 0]),
   midi.NoteOnEvent(tick=0, channel=0, data=[68, 57]),
   midi.NoteOnEvent(tick=0, channel=0, data=[65, 57]),
   midi.NoteOnEvent(tick=220, channel=0, data=[65, 0]),
   midi.NoteOnEvent(tick=0, channel=0, data=[68, 0]),
   midi.NoteOnEvent(tick=20, channel=0, data=[59, 53]),
   midi.NoteOnEvent(tick=0, channel=0, data=[62, 53]),
   midi.NoteOnEvent(tick=240, channel=0, data=[62, 0]),
   midi.NoteOnEvent(tick=0, channel=0, data=[59, 0]),
   midi.NoteOnEvent(tick=240, channel=0, data=[59, 46]),
   midi.NoteOnEvent(tick=0, channel=0, data=[62, 46]),
   midi.NoteOnEvent(tick=240, channel=0, data=[62, 0]),
   midi.NoteOnEvent(tick=0, channel=0, data=[59, 0]),
   midi.NoteOnEvent(tick=240, channel=0, data=[55, 36]),
   midi.NoteOnEvent(tick=0, channel=0, data=[60, 36]),
   midi.NoteOnEvent(tick=960, channel=0, data=[60, 0]),
   midi.NoteOnEvent(tick=0, channel=0, data=[55, 0]),
   midi.ControlChangeEvent(tick=0, channel=0, data=[7, 100]),
   midi.ControlChangeEvent(tick=0, channel=0, data=[10, 64]),
   midi.ControlChangeEvent(tick=72960, channel=0, data=[91, 127]),
   midi.ControlChangeEvent(tick=11520, channel=0, data=[91, 127]),
   midi.NoteOnEvent(tick=240, channel=0, data=[60, 81]),
   midi.NoteOnEvent(tick=120, channel=0, data=[60, 0]),
   midi.NoteOnEvent(tick=0, channel=0, data=[59, 81]),
   midi.NoteOnEvent(tick=120, channel=0, data=[59, 0]),
   midi.NoteOnEvent(tick=0, channel=0, data=[60, 86]),
   midi.NoteOnEvent(tick=120, channel=0, data=[60, 0]),
   midi.NoteOnEvent(tick=120, channel=0, data=[55, 71]),
   midi.NoteOnEvent(tick=240, channel=0, data=[55, 0]),
   midi.NoteOnEvent(tick=0, channel=0, data=[56, 72]),
   midi.NoteOnEvent(tick=120, channel=0, data=[56, 0]),
   midi.NoteOnEvent(tick=120, channel=0, data=[60, 81]),
   midi.NoteOnEvent(tick=120, channel=0, data=[60, 0]),
   midi.NoteOnEvent(tick=0, channel=0, data=[59, 81]),
   midi.NoteOnEvent(tick=120, channel=0, data=[59, 0]),
   midi.NoteOnEvent(tick=0, channel=0, data=[60, 86]),
   midi.NoteOnEvent(tick=120, channel=0, data=[60, 0]),
   midi.NoteOnEvent(tick=120, channel=0, data=[62, 76]),
   midi.NoteOnEvent(tick=240, channel=0, data=[62, 0]),
   midi.NoteOnEvent(tick=0, channel=0, data=[55, 73]),
   midi.NoteOnEvent(tick=120, channel=0, data=[55, 0]),
   midi.NoteOnEvent(tick=120, channel=0, data=[60, 81]),
   midi.NoteOnEvent(tick=120, channel=0, data=[60, 0]),
   midi.NoteOnEvent(tick=0, channel=0, data=[59, 81]),
   midi.NoteOnEvent(tick=120, channel=0, data=[59, 0]),
   midi.NoteOnEvent(tick=0, channel=0, data=[60, 86]),
   midi.NoteOnEvent(tick=120, channel=0, data=[60, 0]),
   midi.NoteOnEvent(tick=120, channel=0, data=[62, 77]),
   midi.NoteOnEvent(tick=120, channel=0, data=[62, 0]),
   midi.NoteOnEvent(tick=120, channel=0, data=[53, 72]),
   midi.NoteOnEvent(tick=120, channel=0, data=[53, 0]),
   midi.NoteOnEvent(tick=0, channel=0, data=[55, 72]),
   midi.NoteOnEvent(tick=120, channel=0, data=[55, 0]),
   midi.NoteOnEvent(tick=0, channel=0, data=[56, 74]),
   midi.NoteOnEvent(tick=480, channel=0, data=[56, 0]),
   midi.NoteOnEvent(tick=0, channel=0, data=[55, 73]),
   midi.NoteOnEvent(tick=120, channel=0, data=[55, 0]),
   midi.NoteOnEvent(tick=0, channel=0, data=[53, 73]),
   midi.NoteOnEvent(tick=120, channel=0, data=[53, 0]),
   midi.NoteOnEvent(tick=0, channel=0, data=[51, 72]),
   midi.NoteOnEvent(tick=60, channel=0, data=[51, 0]),
   midi.NoteOnEvent(tick=60, channel=0, data=[60, 75]),
   midi.NoteOnEvent(tick=120, channel=0, data=[60, 0]),
   midi.NoteOnEvent(tick=0, channel=0, data=[59, 74]),
   midi.NoteOnEvent(tick=120, channel=0, data=[59, 0]),
   midi.NoteOnEvent(tick=0, channel=0, data=[57, 73]),
   midi.NoteOnEvent(tick=120, channel=0, data=[57, 0]),
   midi.NoteOnEvent(tick=0, channel=0, data=[55, 72]),
   midi.NoteOnEvent(tick=120, channel=0, data=[55, 0]),
   midi.NoteOnEvent(tick=0, channel=0, data=[53, 70]),
   midi.NoteOnEvent(tick=120, channel=0, data=[53, 0]),
   midi.NoteOnEvent(tick=0, channel=0, data=[51, 69]),
   midi.NoteOnEvent(tick=120, channel=0, data=[51, 0]),
   midi.NoteOnEvent(tick=0, channel=0, data=[50, 68]),
   midi.NoteOnEvent(tick=120, channel=0, data=[50, 0]),
   midi.NoteOnEvent(tick=0, channel=0, data=[48, 67]),
   midi.NoteOnEvent(tick=120, channel=0, data=[48, 0]),
   midi.NoteOnEvent(tick=0, channel=0, data=[50, 70]),
   midi.NoteOnEvent(tick=120, channel=0, data=[50, 0]),
   midi.NoteOnEvent(tick=0, channel=0, data=[51, 71]),
   midi.NoteOnEvent(tick=120, channel=0, data=[51, 0]),
   midi.NoteOnEvent(tick=0, channel=0, data=[50, 70]),
   midi.NoteOnEvent(tick=120, channel=0, data=[50, 0]),
   midi.NoteOnEvent(tick=0, channel=0, data=[48, 67]),
   midi.NoteOnEvent(tick=120, channel=0, data=[48, 0]),
   midi.NoteOnEvent(tick=0, channel=0, data=[46, 71]),
   midi.NoteOnEvent(tick=120, channel=0, data=[46, 0]),
   midi.NoteOnEvent(tick=0, channel=0, data=[44, 70]),
   midi.NoteOnEvent(tick=120, channel=0, data=[44, 0]),
   midi.NoteOnEvent(tick=0, channel=0, data=[43, 68]),
   midi.NoteOnEvent(tick=120, channel=0, data=[43, 0]),
   midi.NoteOnEvent(tick=0, channel=0, data=[41, 67]),
   midi.NoteOnEvent(tick=60, channel=0, data=[41, 0]),
   midi.NoteOnEvent(tick=60, channel=0, data=[58, 74]),
   midi.NoteOnEvent(tick=120, channel=0, data=[58, 0]),
   midi.NoteOnEvent(tick=0, channel=0, data=[56, 74]),
   midi.NoteOnEvent(tick=120, channel=0, data=[56, 0]),
   midi.NoteOnEvent(tick=0, channel=0, data=[55, 73]),
   midi.NoteOnEvent(tick=120, channel=0, data=[55, 0]),
   midi.NoteOnEvent(tick=0, channel=0, data=[53, 72]),
   midi.NoteOnEvent(tick=120, channel=0, data=[53, 0]),
   midi.NoteOnEvent(tick=0, channel=0, data=[51, 72]),
   midi.NoteOnEvent(tick=120, channel=0, data=[51, 0]),
   midi.NoteOnEvent(tick=0, channel=0, data=[50, 71]),
   midi.NoteOnEvent(tick=120, channel=0, data=[50, 0]),
   midi.NoteOnEvent(tick=0, channel=0, data=[48, 70]),
   midi.NoteOnEvent(tick=120, channel=0, data=[48, 0]),
   midi.NoteOnEvent(tick=0, channel=0, data=[46, 70]),
   midi.NoteOnEvent(tick=120, channel=0, data=[46, 0]),
   midi.NoteOnEvent(tick=0, channel=0, data=[48, 71]),
   midi.NoteOnEvent(tick=120, channel=0, data=[48, 0]),
   midi.NoteOnEvent(tick=0, channel=0, data=[50, 71]),
   midi.NoteOnEvent(tick=120, channel=0, data=[50, 0]),
   midi.NoteOnEvent(tick=0, channel=0, data=[48, 73]),
   midi.NoteOnEvent(tick=120, channel=0, data=[48, 0]),
   midi.NoteOnEvent(tick=0, channel=0, data=[46, 71]),
   midi.NoteOnEvent(tick=120, channel=0, data=[46, 0]),
   midi.NoteOnEvent(tick=0, channel=0, data=[44, 70]),
   midi.NoteOnEvent(tick=120, channel=0, data=[44, 0]),
   midi.NoteOnEvent(tick=0, channel=0, data=[43, 68]),
   midi.NoteOnEvent(tick=120, channel=0, data=[43, 0]),
   midi.NoteOnEvent(tick=0, channel=0, data=[41, 66]),
   midi.NoteOnEvent(tick=120, channel=0, data=[41, 0]),
   midi.NoteOnEvent(tick=0, channel=0, data=[39, 65]),
   midi.NoteOnEvent(tick=60, channel=0, data=[39, 0]),
   midi.NoteOnEvent(tick=60, channel=0, data=[56, 75]),
   midi.NoteOnEvent(tick=120, channel=0, data=[56, 0]),
   midi.NoteOnEvent(tick=0, channel=0, data=[55, 74]),
   midi.NoteOnEvent(tick=120, channel=0, data=[55, 0]),
   midi.NoteOnEvent(tick=0, channel=0, data=[53, 73]),
   midi.NoteOnEvent(tick=120, channel=0, data=[53, 0]),
   midi.NoteOnEvent(tick=0, channel=0, data=[51, 72]),
   midi.NoteOnEvent(tick=120, channel=0, data=[51, 0]),
   midi.NoteOnEvent(tick=0, channel=0, data=[49, 71]),
   midi.NoteOnEvent(tick=120, channel=0, data=[49, 0]),
   midi.NoteOnEvent(tick=0, channel=0, data=[48, 70]),
   midi.NoteOnEvent(tick=120, channel=0, data=[48, 0]),
   midi.NoteOnEvent(tick=0, channel=0, data=[46, 69]),
   midi.NoteOnEvent(tick=120, channel=0, data=[46, 0]),
   midi.NoteOnEvent(tick=0, channel=0, data=[44, 68]),
   midi.NoteOnEvent(tick=120, channel=0, data=[44, 0]),
   midi.NoteOnEvent(tick=120, channel=0, data=[60, 75]),
   midi.NoteOnEvent(tick=240, channel=0, data=[60, 0]),
   midi.NoteOnEvent(tick=0, channel=0, data=[58, 74]),
   midi.NoteOnEvent(tick=240, channel=0, data=[58, 0]),
   midi.NoteOnEvent(tick=0, channel=0, data=[56, 72]),
   midi.NoteOnEvent(tick=240, channel=0, data=[56, 0]),
   midi.NoteOnEvent(tick=0, channel=0, data=[55, 72]),
   midi.NoteOnEvent(tick=120, channel=0, data=[55, 0]),
   midi.NoteOnEvent(tick=120, channel=0, data=[53, 66]),
   midi.NoteOnEvent(tick=240, channel=0, data=[53, 0]),
   midi.NoteOnEvent(tick=0, channel=0, data=[55, 69]),
   midi.NoteOnEvent(tick=240, channel=0, data=[55, 0]),
   midi.NoteOnEvent(tick=0, channel=0, data=[56, 71]),
   midi.NoteOnEvent(tick=180, channel=0, data=[56, 0]),
   midi.NoteOnEvent(tick=60, channel=0, data=[50, 65]),
   midi.NoteOnEvent(tick=240, channel=0, data=[50, 0]),
   midi.NoteOnEvent(tick=0, channel=0, data=[51, 69]),
   midi.NoteOnEvent(tick=240, channel=0, data=[51, 0]),
   midi.NoteOnEvent(tick=0, channel=0, data=[53, 72]),
   midi.NoteOnEvent(tick=240, channel=0, data=[53, 0]),
   midi.NoteOnEvent(tick=0, channel=0, data=[50, 68]),
   midi.NoteOnEvent(tick=240, channel=0, data=[50, 0]),
   midi.NoteOnEvent(tick=0, channel=0, data=[51, 67]),
   midi.NoteOnEvent(tick=120, channel=0, data=[51, 0]),
   midi.NoteOnEvent(tick=120, channel=0, data=[56, 56]),
   midi.NoteOnEvent(tick=240, channel=0, data=[56, 0]),
   midi.NoteOnEvent(tick=0, channel=0, data=[55, 55]),
   midi.NoteOnEvent(tick=240, channel=0, data=[55, 0]),
   midi.NoteOnEvent(tick=0, channel=0, data=[53, 53]),
   midi.NoteOnEvent(tick=240, channel=0, data=[53, 0]),
   midi.NoteOnEvent(tick=0, channel=0, data=[55, 55]),
   midi.NoteOnEvent(tick=120, channel=0, data=[55, 0]),
   midi.NoteOnEvent(tick=120, channel=0, data=[53, 56]),
   midi.NoteOnEvent(tick=240, channel=0, data=[53, 0]),
   midi.NoteOnEvent(tick=0, channel=0, data=[50, 55]),
   midi.NoteOnEvent(tick=240, channel=0, data=[50, 0]),
   midi.NoteOnEvent(tick=0, channel=0, data=[48, 52]),
   midi.NoteOnEvent(tick=240, channel=0, data=[48, 0]),
   midi.NoteOnEvent(tick=0, channel=0, data=[50, 50]),
   midi.NoteOnEvent(tick=120, channel=0, data=[50, 0]),
   midi.NoteOnEvent(tick=120, channel=0, data=[58, 54]),
   midi.NoteOnEvent(tick=240, channel=0, data=[58, 0]),
   midi.NoteOnEvent(tick=0, channel=0, data=[56, 52]),
   midi.NoteOnEvent(tick=240, channel=0, data=[56, 0]),
   midi.NoteOnEvent(tick=0, channel=0, data=[55, 51]),
   midi.NoteOnEvent(tick=240, channel=0, data=[55, 0]),
   midi.NoteOnEvent(tick=0, channel=0, data=[56, 54]),
   midi.NoteOnEvent(tick=120, channel=0, data=[56, 0]),
   midi.NoteOnEvent(tick=120, channel=0, data=[53, 55]),
   midi.NoteOnEvent(tick=240, channel=0, data=[53, 0]),
   midi.NoteOnEvent(tick=0, channel=0, data=[51, 52]),
   midi.NoteOnEvent(tick=240, channel=0, data=[51, 0]),
   midi.NoteOnEvent(tick=0, channel=0, data=[50, 48]),
   midi.NoteOnEvent(tick=240, channel=0, data=[50, 0]),
   midi.NoteOnEvent(tick=0, channel=0, data=[51, 63]),
   midi.NoteOnEvent(tick=120, channel=0, data=[51, 0]),
   midi.NoteOnEvent(tick=1080, channel=0, data=[48, 59]),
   midi.NoteOnEvent(tick=240, channel=0, data=[48, 0]),
   midi.NoteOnEvent(tick=0, channel=0, data=[46, 58]),
   midi.NoteOnEvent(tick=240, channel=0, data=[46, 0]),
   midi.NoteOnEvent(tick=0, channel=0, data=[45, 56]),
   midi.NoteOnEvent(tick=240, channel=0, data=[45, 0]),
   midi.NoteOnEvent(tick=240, channel=0, data=[51, 57]),
   midi.NoteOnEvent(tick=240, channel=0, data=[51, 0]),
   midi.NoteOnEvent(tick=0, channel=0, data=[50, 56]),
   midi.NoteOnEvent(tick=240, channel=0, data=[50, 0]),
   midi.NoteOnEvent(tick=0, channel=0, data=[48, 55]),
   midi.NoteOnEvent(tick=180, channel=0, data=[48, 0]),
   midi.NoteOnEvent(tick=60, channel=0, data=[50, 59]),
   midi.NoteOnEvent(tick=240, channel=0, data=[50, 0]),
   midi.NoteOnEvent(tick=0, channel=0, data=[48, 58]),
   midi.NoteOnEvent(tick=120, channel=0, data=[48, 0]),
   midi.NoteOnEvent(tick=0, channel=0, data=[46, 58]),
   midi.NoteOnEvent(tick=120, channel=0, data=[46, 0]),
   midi.NoteOnEvent(tick=0, channel=0, data=[48, 58]),
   midi.NoteOnEvent(tick=240, channel=0, data=[48, 0]),
   midi.NoteOnEvent(tick=0, channel=0, data=[50, 56]),
   midi.NoteOnEvent(tick=240, channel=0, data=[50, 0]),
   midi.NoteOnEvent(tick=0, channel=0, data=[43, 63]),
   midi.NoteOnEvent(tick=120, channel=0, data=[43, 0]),
   midi.NoteOnEvent(tick=120, channel=0, data=[58, 70]),
   midi.NoteOnEvent(tick=120, channel=0, data=[58, 0]),
   midi.NoteOnEvent(tick=0, channel=0, data=[57, 70]),
   midi.NoteOnEvent(tick=120, channel=0, data=[57, 0]),
   midi.NoteOnEvent(tick=0, channel=0, data=[58, 73]),
   midi.NoteOnEvent(tick=120, channel=0, data=[58, 0]),
   midi.NoteOnEvent(tick=120, channel=0, data=[50, 58]),
   midi.NoteOnEvent(tick=120, channel=0, data=[50, 0]),
   midi.NoteOnEvent(tick=120, channel=0, data=[51, 63]),
   midi.NoteOnEvent(tick=120, channel=0, data=[51, 0]),
   midi.NoteOnEvent(tick=120, channel=0, data=[60, 69]),
   midi.NoteOnEvent(tick=120, channel=0, data=[60, 0]),
   midi.NoteOnEvent(tick=0, channel=0, data=[59, 69]),
   midi.NoteOnEvent(tick=120, channel=0, data=[59, 0]),
   midi.NoteOnEvent(tick=0, channel=0, data=[60, 73]),
   midi.NoteOnEvent(tick=120, channel=0, data=[60, 0]),
   midi.NoteOnEvent(tick=120, channel=0, data=[52, 58]),
   midi.NoteOnEvent(tick=120, channel=0, data=[52, 0]),
   midi.NoteOnEvent(tick=120, channel=0, data=[53, 63]),
   midi.NoteOnEvent(tick=120, channel=0, data=[53, 0]),
   midi.NoteOnEvent(tick=120, channel=0, data=[62, 75]),
   midi.NoteOnEvent(tick=120, channel=0, data=[62, 0]),
   midi.NoteOnEvent(tick=0, channel=0, data=[60, 75]),
   midi.NoteOnEvent(tick=120, channel=0, data=[60, 0]),
   midi.NoteOnEvent(tick=0, channel=0, data=[62, 80]),
   midi.NoteOnEvent(tick=120, channel=0, data=[62, 0]),
   midi.NoteOnEvent(tick=120, channel=0, data=[54, 63]),
   midi.NoteOnEvent(tick=120, channel=0, data=[54, 0]),
   midi.NoteOnEvent(tick=120, channel=0, data=[55, 65]),
   midi.NoteOnEvent(tick=120, channel=0, data=[55, 0]),
   midi.NoteOnEvent(tick=480, channel=0, data=[43, 54]),
   midi.NoteOnEvent(tick=120, channel=0, data=[43, 0]),
   midi.NoteOnEvent(tick=0, channel=0, data=[45, 57]),
   midi.NoteOnEvent(tick=120, channel=0, data=[45, 0]),
   midi.NoteOnEvent(tick=0, channel=0, data=[47, 59]),
   midi.NoteOnEvent(tick=120, channel=0, data=[47, 0]),
   midi.NoteOnEvent(tick=0, channel=0, data=[48, 62]),
   midi.NoteOnEvent(tick=120, channel=0, data=[48, 0]),
   midi.NoteOnEvent(tick=0, channel=0, data=[50, 64]),
   midi.NoteOnEvent(tick=120, channel=0, data=[50, 0]),
   midi.NoteOnEvent(tick=0, channel=0, data=[51, 66]),
   midi.NoteOnEvent(tick=360, channel=0, data=[51, 0]),
   midi.NoteOnEvent(tick=0, channel=0, data=[45, 58]),
   midi.NoteOnEvent(tick=120, channel=0, data=[45, 0]),
   midi.NoteOnEvent(tick=0, channel=0, data=[46, 60]),
   midi.NoteOnEvent(tick=120, channel=0, data=[46, 0]),
   midi.NoteOnEvent(tick=0, channel=0, data=[48, 63]),
   midi.NoteOnEvent(tick=120, channel=0, data=[48, 0]),
   midi.NoteOnEvent(tick=0, channel=0, data=[50, 65]),
   midi.NoteOnEvent(tick=120, channel=0, data=[50, 0]),
   midi.NoteOnEvent(tick=0, channel=0, data=[51, 67]),
   midi.NoteOnEvent(tick=120, channel=0, data=[51, 0]),
   midi.NoteOnEvent(tick=0, channel=0, data=[53, 70]),
   midi.NoteOnEvent(tick=360, channel=0, data=[53, 0]),
   midi.NoteOnEvent(tick=0, channel=0, data=[47, 59]),
   midi.NoteOnEvent(tick=120, channel=0, data=[47, 0]),
   midi.NoteOnEvent(tick=0, channel=0, data=[48, 62]),
   midi.NoteOnEvent(tick=120, channel=0, data=[48, 0]),
   midi.NoteOnEvent(tick=0, channel=0, data=[50, 64]),
   midi.NoteOnEvent(tick=120, channel=0, data=[50, 0]),
   midi.NoteOnEvent(tick=0, channel=0, data=[51, 67]),
   midi.NoteOnEvent(tick=120, channel=0, data=[51, 0]),
   midi.NoteOnEvent(tick=600, channel=0, data=[52, 61]),
   midi.NoteOnEvent(tick=240, channel=0, data=[52, 0]),
   midi.NoteOnEvent(tick=0, channel=0, data=[56, 66]),
   midi.NoteOnEvent(tick=120, channel=0, data=[56, 0]),
   midi.NoteOnEvent(tick=120, channel=0, data=[41, 60]),
   midi.NoteOnEvent(tick=240, channel=0, data=[41, 0]),
   midi.NoteOnEvent(tick=0, channel=0, data=[39, 59]),
   midi.NoteOnEvent(tick=240, channel=0, data=[39, 0]),
   midi.NoteOnEvent(tick=0, channel=0, data=[38, 58]),
   midi.NoteOnEvent(tick=240, channel=0, data=[38, 0]),
   midi.NoteOnEvent(tick=240, channel=0, data=[44, 61]),
   midi.NoteOnEvent(tick=240, channel=0, data=[44, 0]),
   midi.NoteOnEvent(tick=0, channel=0, data=[43, 59]),
   midi.NoteOnEvent(tick=240, channel=0, data=[43, 0]),
   midi.NoteOnEvent(tick=0, channel=0, data=[41, 57]),
   midi.NoteOnEvent(tick=240, channel=0, data=[41, 0]),
   midi.NoteOnEvent(tick=0, channel=0, data=[43, 56]),
   midi.NoteOnEvent(tick=120, channel=0, data=[43, 0]),
   midi.NoteOnEvent(tick=120, channel=0, data=[41, 62]),
   midi.NoteOnEvent(tick=120, channel=0, data=[41, 0]),
   midi.NoteOnEvent(tick=0, channel=0, data=[39, 62]),
   midi.NoteOnEvent(tick=120, channel=0, data=[39, 0]),
   midi.NoteOnEvent(tick=0, channel=0, data=[41, 67]),
   midi.NoteOnEvent(tick=120, channel=0, data=[41, 0]),
   midi.NoteOnEvent(tick=120, channel=0, data=[43, 55]),
   midi.NoteOnEvent(tick=120, channel=0, data=[43, 0]),
   midi.NoteOnEvent(tick=120, channel=0, data=[48, 58]),
   midi.NoteOnEvent(tick=120, channel=0, data=[48, 0]),
   midi.NoteOnEvent(tick=0, channel=0, data=[50, 58]),
   midi.NoteOnEvent(tick=120, channel=0, data=[50, 0]),
   midi.NoteOnEvent(tick=0, channel=0, data=[51, 59]),
   midi.NoteOnEvent(tick=120, channel=0, data=[51, 0]),
   midi.NoteOnEvent(tick=0, channel=0, data=[50, 58]),
   midi.NoteOnEvent(tick=120, channel=0, data=[50, 0]),
   midi.NoteOnEvent(tick=0, channel=0, data=[48, 57]),
   midi.NoteOnEvent(tick=120, channel=0, data=[48, 0]),
   midi.NoteOnEvent(tick=0, channel=0, data=[46, 57]),
   midi.NoteOnEvent(tick=120, channel=0, data=[46, 0]),
   midi.NoteOnEvent(tick=0, channel=0, data=[44, 56]),
   midi.NoteOnEvent(tick=120, channel=0, data=[44, 0]),
   midi.NoteOnEvent(tick=0, channel=0, data=[43, 55]),
   midi.NoteOnEvent(tick=120, channel=0, data=[43, 0]),
   midi.NoteOnEvent(tick=0, channel=0, data=[41, 54]),
   midi.NoteOnEvent(tick=60, channel=0, data=[41, 0]),
   midi.NoteOnEvent(tick=60, channel=0, data=[58, 59]),
   midi.NoteOnEvent(tick=120, channel=0, data=[58, 0]),
   midi.NoteOnEvent(tick=0, channel=0, data=[56, 59]),
   midi.NoteOnEvent(tick=120, channel=0, data=[56, 0]),
   midi.NoteOnEvent(tick=0, channel=0, data=[55, 58]),
   midi.NoteOnEvent(tick=120, channel=0, data=[55, 0]),
   midi.NoteOnEvent(tick=0, channel=0, data=[53, 57]),
   midi.NoteOnEvent(tick=120, channel=0, data=[53, 0]),
   midi.NoteOnEvent(tick=0, channel=0, data=[51, 57]),
   midi.NoteOnEvent(tick=120, channel=0, data=[51, 0]),
   midi.NoteOnEvent(tick=0, channel=0, data=[50, 56]),
   midi.NoteOnEvent(tick=120, channel=0, data=[50, 0]),
   midi.NoteOnEvent(tick=0, channel=0, data=[48, 55]),
   midi.NoteOnEvent(tick=120, channel=0, data=[48, 0]),
   midi.NoteOnEvent(tick=0, channel=0, data=[46, 55]),
   midi.NoteOnEvent(tick=120, channel=0, data=[46, 0]),
   midi.NoteOnEvent(tick=0, channel=0, data=[48, 57]),
   midi.NoteOnEvent(tick=120, channel=0, data=[48, 0]),
   midi.NoteOnEvent(tick=0, channel=0, data=[50, 60]),
   midi.NoteOnEvent(tick=120, channel=0, data=[50, 0]),
   midi.NoteOnEvent(tick=0, channel=0, data=[48, 59]),
   midi.NoteOnEvent(tick=120, channel=0, data=[48, 0]),
   midi.NoteOnEvent(tick=0, channel=0, data=[46, 58]),
   midi.NoteOnEvent(tick=120, channel=0, data=[46, 0]),
   midi.NoteOnEvent(tick=0, channel=0, data=[44, 57]),
   midi.NoteOnEvent(tick=120, channel=0, data=[44, 0]),
   midi.NoteOnEvent(tick=0, channel=0, data=[43, 57]),
   midi.NoteOnEvent(tick=120, channel=0, data=[43, 0]),
   midi.NoteOnEvent(tick=0, channel=0, data=[41, 56]),
   midi.NoteOnEvent(tick=120, channel=0, data=[41, 0]),
   midi.NoteOnEvent(tick=0, channel=0, data=[39, 55]),
   midi.NoteOnEvent(tick=60, channel=0, data=[39, 0]),
   midi.NoteOnEvent(tick=60, channel=0, data=[56, 61]),
   midi.NoteOnEvent(tick=120, channel=0, data=[56, 0]),
   midi.NoteOnEvent(tick=0, channel=0, data=[55, 60]),
   midi.NoteOnEvent(tick=120, channel=0, data=[55, 0]),
   midi.NoteOnEvent(tick=0, channel=0, data=[53, 60]),
   midi.NoteOnEvent(tick=120, channel=0, data=[53, 0]),
   midi.NoteOnEvent(tick=0, channel=0, data=[51, 59]),
   midi.NoteOnEvent(tick=120, channel=0, data=[51, 0]),
   midi.NoteOnEvent(tick=0, channel=0, data=[50, 58]),
   midi.NoteOnEvent(tick=120, channel=0, data=[50, 0]),
   midi.NoteOnEvent(tick=0, channel=0, data=[48, 57]),
   midi.NoteOnEvent(tick=120, channel=0, data=[48, 0]),
   midi.NoteOnEvent(tick=0, channel=0, data=[46, 57]),
   midi.NoteOnEvent(tick=120, channel=0, data=[46, 0]),
   midi.NoteOnEvent(tick=0, channel=0, data=[44, 56]),
   midi.NoteOnEvent(tick=120, channel=0, data=[44, 0]),
   midi.NoteOnEvent(tick=0, channel=0, data=[46, 57]),
   midi.NoteOnEvent(tick=120, channel=0, data=[46, 0]),
   midi.NoteOnEvent(tick=0, channel=0, data=[48, 60]),
   midi.NoteOnEvent(tick=120, channel=0, data=[48, 0]),
   midi.NoteOnEvent(tick=0, channel=0, data=[46, 58]),
   midi.NoteOnEvent(tick=120, channel=0, data=[46, 0]),
   midi.NoteOnEvent(tick=0, channel=0, data=[44, 58]),
   midi.NoteOnEvent(tick=120, channel=0, data=[44, 0]),
   midi.NoteOnEvent(tick=0, channel=0, data=[43, 57]),
   midi.NoteOnEvent(tick=120, channel=0, data=[43, 0]),
   midi.NoteOnEvent(tick=0, channel=0, data=[41, 57]),
   midi.NoteOnEvent(tick=120, channel=0, data=[41, 0]),
   midi.NoteOnEvent(tick=0, channel=0, data=[39, 56]),
   midi.NoteOnEvent(tick=120, channel=0, data=[39, 0]),
   midi.NoteOnEvent(tick=0, channel=0, data=[38, 56]),
   midi.NoteOnEvent(tick=60, channel=0, data=[38, 0]),
   midi.NoteOnEvent(tick=60, channel=0, data=[55, 56]),
   midi.NoteOnEvent(tick=120, channel=0, data=[55, 0]),
   midi.NoteOnEvent(tick=0, channel=0, data=[53, 60]),
   midi.NoteOnEvent(tick=120, channel=0, data=[53, 0]),
   midi.NoteOnEvent(tick=0, channel=0, data=[51, 59]),
   midi.NoteOnEvent(tick=120, channel=0, data=[51, 0]),
   midi.NoteOnEvent(tick=0, channel=0, data=[50, 59]),
   midi.NoteOnEvent(tick=120, channel=0, data=[50, 0]),
   midi.NoteOnEvent(tick=0, channel=0, data=[48, 58]),
   midi.NoteOnEvent(tick=120, channel=0, data=[48, 0]),
   midi.NoteOnEvent(tick=0, channel=0, data=[47, 57]),
   midi.NoteOnEvent(tick=120, channel=0, data=[47, 0]),
   midi.NoteOnEvent(tick=0, channel=0, data=[45, 56]),
   midi.NoteOnEvent(tick=120, channel=0, data=[45, 0]),
   midi.NoteOnEvent(tick=0, channel=0, data=[43, 55]),
   midi.NoteOnEvent(tick=480, channel=0, data=[43, 0]),
   midi.NoteOnEvent(tick=600, channel=0, data=[43, 49]),
   midi.NoteOnEvent(tick=120, channel=0, data=[43, 0]),
   midi.NoteOnEvent(tick=0, channel=0, data=[45, 51]),
   midi.NoteOnEvent(tick=120, channel=0, data=[45, 0]),
   midi.NoteOnEvent(tick=0, channel=0, data=[47, 52]),
   midi.NoteOnEvent(tick=120, channel=0, data=[47, 0]),
   midi.NoteOnEvent(tick=0, channel=0, data=[48, 54]),
   midi.NoteOnEvent(tick=120, channel=0, data=[48, 0]),
   midi.NoteOnEvent(tick=0, channel=0, data=[50, 55]),
   midi.NoteOnEvent(tick=120, channel=0, data=[50, 0]),
   midi.NoteOnEvent(tick=0, channel=0, data=[51, 57]),
   midi.NoteOnEvent(tick=120, channel=0, data=[51, 0]),
   midi.NoteOnEvent(tick=0, channel=0, data=[53, 58]),
   midi.NoteOnEvent(tick=120, channel=0, data=[53, 0]),
   midi.NoteOnEvent(tick=0, channel=0, data=[55, 60]),
   midi.NoteOnEvent(tick=120, channel=0, data=[55, 0]),
   midi.NoteOnEvent(tick=0, channel=0, data=[53, 57]),
   midi.NoteOnEvent(tick=120, channel=0, data=[53, 0]),
   midi.NoteOnEvent(tick=0, channel=0, data=[56, 62]),
   midi.NoteOnEvent(tick=120, channel=0, data=[56, 0]),
   midi.NoteOnEvent(tick=0, channel=0, data=[55, 61]),
   midi.NoteOnEvent(tick=120, channel=0, data=[55, 0]),
   midi.NoteOnEvent(tick=0, channel=0, data=[53, 60]),
   midi.NoteOnEvent(tick=120, channel=0, data=[53, 0]),
   midi.NoteOnEvent(tick=0, channel=0, data=[51, 59]),
   midi.NoteOnEvent(tick=120, channel=0, data=[51, 0]),
   midi.NoteOnEvent(tick=0, channel=0, data=[50, 58]),
   midi.NoteOnEvent(tick=120, channel=0, data=[50, 0]),
   midi.NoteOnEvent(tick=0, channel=0, data=[48, 57]),
   midi.NoteOnEvent(tick=120, channel=0, data=[48, 0]),
   midi.NoteOnEvent(tick=0, channel=0, data=[47, 56]),
   midi.NoteOnEvent(tick=120, channel=0, data=[47, 0]),
   midi.NoteOnEvent(tick=120, channel=0, data=[48, 77]),
   midi.NoteOnEvent(tick=120, channel=0, data=[48, 0]),
   midi.NoteOnEvent(tick=0, channel=0, data=[47, 77]),
   midi.NoteOnEvent(tick=120, channel=0, data=[47, 0]),
   midi.NoteOnEvent(tick=0, channel=0, data=[48, 80]),
   midi.NoteOnEvent(tick=120, channel=0, data=[48, 0]),
   midi.NoteOnEvent(tick=120, channel=0, data=[43, 71]),
   midi.NoteOnEvent(tick=240, channel=0, data=[43, 0]),
   midi.NoteOnEvent(tick=0, channel=0, data=[44, 71]),
   midi.NoteOnEvent(tick=120, channel=0, data=[44, 0]),
   midi.NoteOnEvent(tick=120, channel=0, data=[48, 78]),
   midi.NoteOnEvent(tick=120, channel=0, data=[48, 0]),
   midi.NoteOnEvent(tick=0, channel=0, data=[47, 78]),
   midi.NoteOnEvent(tick=120, channel=0, data=[47, 0]),
   midi.NoteOnEvent(tick=0, channel=0, data=[48, 81]),
   midi.NoteOnEvent(tick=120, channel=0, data=[48, 0]),
   midi.NoteOnEvent(tick=120, channel=0, data=[50, 75]),
   midi.NoteOnEvent(tick=240, channel=0, data=[50, 0]),
   midi.NoteOnEvent(tick=0, channel=0, data=[43, 71]),
   midi.NoteOnEvent(tick=120, channel=0, data=[43, 0]),
   midi.NoteOnEvent(tick=120, channel=0, data=[48, 77]),
   midi.NoteOnEvent(tick=120, channel=0, data=[48, 0]),
   midi.NoteOnEvent(tick=0, channel=0, data=[47, 77]),
   midi.NoteOnEvent(tick=120, channel=0, data=[47, 0]),
   midi.NoteOnEvent(tick=0, channel=0, data=[48, 80]),
   midi.NoteOnEvent(tick=120, channel=0, data=[48, 0]),
   midi.NoteOnEvent(tick=120, channel=0, data=[50, 71]),
   midi.NoteOnEvent(tick=120, channel=0, data=[50, 0]),
   midi.NoteOnEvent(tick=120, channel=0, data=[41, 74]),
   midi.NoteOnEvent(tick=120, channel=0, data=[41, 0]),
   midi.NoteOnEvent(tick=0, channel=0, data=[43, 74]),
   midi.NoteOnEvent(tick=120, channel=0, data=[43, 0]),
   midi.NoteOnEvent(tick=0, channel=0, data=[44, 78]),
   midi.NoteOnEvent(tick=480, channel=0, data=[44, 0]),
   midi.NoteOnEvent(tick=0, channel=0, data=[43, 73]),
   midi.NoteOnEvent(tick=120, channel=0, data=[43, 0]),
   midi.NoteOnEvent(tick=0, channel=0, data=[41, 73]),
   midi.NoteOnEvent(tick=120, channel=0, data=[41, 0]),
   midi.NoteOnEvent(tick=0, channel=0, data=[39, 69]),
   midi.NoteOnEvent(tick=480, channel=0, data=[39, 0]),
   midi.NoteOnEvent(tick=240, channel=0, data=[51, 57]),
   midi.NoteOnEvent(tick=240, channel=0, data=[51, 0]),
   midi.NoteOnEvent(tick=0, channel=0, data=[50, 61]),
   midi.NoteOnEvent(tick=240, channel=0, data=[50, 0]),
   midi.NoteOnEvent(tick=0, channel=0, data=[48, 57]),
   midi.NoteOnEvent(tick=240, channel=0, data=[48, 0]),
   midi.NoteOnEvent(tick=0, channel=0, data=[55, 69]),
   midi.NoteOnEvent(tick=240, channel=0, data=[55, 0]),
   midi.NoteOnEvent(tick=0, channel=0, data=[43, 64]),
   midi.NoteOnEvent(tick=240, channel=0, data=[43, 0]),
   midi.NoteOnEvent(tick=0, channel=0, data=[48, 82]),
   midi.NoteOnEvent(tick=0, channel=0, data=[36, 82]),
   midi.NoteOnEvent(tick=4800, channel=0, data=[36, 0]),
   midi.NoteOnEvent(tick=0, channel=0, data=[48, 0]),
   midi.EndOfTrackEvent(tick=0, data=[])])])
midi.write_midifile("creationMidi.mid", pattern)