import midi
pattern=midi.Pattern(format=1, resolution=480, tracks=\
[midi.Track(\
[   midi.NoteOnEvent(tick=0, channel=0, data=[72, 70]),
   midi.NoteOnEvent(tick=480, channel=0, data=[72, 0]),
   midi.NoteOnEvent(tick=0, channel=0, data=[76, 58]),
   midi.NoteOnEvent(tick=240, channel=0, data=[76, 0]),
   midi.NoteOnEvent(tick=0, channel=0, data=[72, 52]),
   midi.NoteOnEvent(tick=240, channel=0, data=[72, 0]),
   midi.NoteOnEvent(tick=0, channel=0, data=[67, 47]),
   midi.NoteOnEvent(tick=180, channel=0, data=[67, 0]),
   midi.NoteOnEvent(tick=300, channel=0, data=[67, 43]),
   midi.NoteOnEvent(tick=180, channel=0, data=[67, 0]),
   midi.NoteOnEvent(tick=300, channel=0, data=[72, 70]),
   midi.NoteOnEvent(tick=480, channel=0, data=[72, 0]),
   midi.NoteOnEvent(tick=0, channel=0, data=[76, 57]),
   midi.NoteOnEvent(tick=240, channel=0, data=[76, 0]),
   midi.NoteOnEvent(tick=0, channel=0, data=[72, 51]),
   midi.NoteOnEvent(tick=240, channel=0, data=[72, 0]),
   midi.NoteOnEvent(tick=0, channel=0, data=[67, 47]),
   midi.NoteOnEvent(tick=180, channel=0, data=[67, 0]),
   midi.NoteOnEvent(tick=300, channel=0, data=[79, 58]),
   midi.NoteOnEvent(tick=240, channel=0, data=[79, 0]),
   midi.NoteOnEvent(tick=240, channel=0, data=[77, 65]),
   midi.NoteOnEvent(tick=240, channel=0, data=[76, 48]),
   midi.NoteOnEvent(tick=24, channel=0, data=[77, 0]),
   midi.NoteOnEvent(tick=216, channel=0, data=[74, 55]),
   midi.NoteOnEvent(tick=24, channel=0, data=[76, 0]),
   midi.NoteOnEvent(tick=216, channel=0, data=[72, 47]),
   midi.NoteOnEvent(tick=24, channel=0, data=[74, 0]),
   midi.NoteOnEvent(tick=216, channel=0, data=[71, 61]),
   midi.NoteOnEvent(tick=24, channel=0, data=[72, 0]),
   midi.NoteOnEvent(tick=216, channel=0, data=[72, 54]),
   midi.NoteOnEvent(tick=24, channel=0, data=[71, 0]),
   midi.NoteOnEvent(tick=216, channel=0, data=[71, 62]),
   midi.NoteOnEvent(tick=24, channel=0, data=[72, 0]),
   midi.NoteOnEvent(tick=216, channel=0, data=[72, 54]),
   midi.NoteOnEvent(tick=24, channel=0, data=[71, 0]),
   midi.NoteOnEvent(tick=216, channel=0, data=[74, 68]),
   midi.NoteOnEvent(tick=24, channel=0, data=[72, 0]),
   midi.NoteOnEvent(tick=216, channel=0, data=[72, 59]),
   midi.NoteOnEvent(tick=24, channel=0, data=[74, 0]),
   midi.NoteOnEvent(tick=216, channel=0, data=[71, 56]),
   midi.NoteOnEvent(tick=24, channel=0, data=[72, 0]),
   midi.NoteOnEvent(tick=216, channel=0, data=[69, 53]),
   midi.NoteOnEvent(tick=24, channel=0, data=[71, 0]),
   midi.NoteOnEvent(tick=216, channel=0, data=[67, 70]),
   midi.NoteOnEvent(tick=24, channel=0, data=[69, 0]),
   midi.NoteOnEvent(tick=456, channel=0, data=[67, 0]),
   midi.NoteOnEvent(tick=480, channel=0, data=[72, 41]),
   midi.NoteOnEvent(tick=480, channel=0, data=[72, 0]),
   midi.NoteOnEvent(tick=0, channel=0, data=[76, 34]),
   midi.NoteOnEvent(tick=240, channel=0, data=[76, 0]),
   midi.NoteOnEvent(tick=0, channel=0, data=[72, 28]),
   midi.NoteOnEvent(tick=240, channel=0, data=[72, 0]),
   midi.NoteOnEvent(tick=0, channel=0, data=[67, 28]),
   midi.NoteOnEvent(tick=180, channel=0, data=[67, 0]),
   midi.NoteOnEvent(tick=300, channel=0, data=[67, 24]),
   midi.NoteOnEvent(tick=180, channel=0, data=[67, 0]),
   midi.NoteOnEvent(tick=300, channel=0, data=[76, 41]),
   midi.NoteOnEvent(tick=480, channel=0, data=[76, 0]),
   midi.NoteOnEvent(tick=0, channel=0, data=[79, 35]),
   midi.NoteOnEvent(tick=240, channel=0, data=[79, 0]),
   midi.NoteOnEvent(tick=0, channel=0, data=[76, 30]),
   midi.NoteOnEvent(tick=240, channel=0, data=[76, 0]),
   midi.NoteOnEvent(tick=0, channel=0, data=[72, 28]),
   midi.NoteOnEvent(tick=480, channel=0, data=[72, 0]),
   midi.NoteOnEvent(tick=0, channel=0, data=[76, 39]),
   midi.NoteOnEvent(tick=240, channel=0, data=[76, 0]),
   midi.NoteOnEvent(tick=0, channel=0, data=[72, 34]),
   midi.NoteOnEvent(tick=240, channel=0, data=[72, 0]),
   midi.NoteOnEvent(tick=0, channel=0, data=[74, 38]),
   midi.NoteOnEvent(tick=240, channel=0, data=[74, 0]),
   midi.NoteOnEvent(tick=0, channel=0, data=[71, 31]),
   midi.NoteOnEvent(tick=240, channel=0, data=[71, 0]),
   midi.NoteOnEvent(tick=0, channel=0, data=[72, 34]),
   midi.NoteOnEvent(tick=240, channel=0, data=[72, 0]),
   midi.NoteOnEvent(tick=0, channel=0, data=[69, 29]),
   midi.NoteOnEvent(tick=240, channel=0, data=[69, 0]),
   midi.NoteOnEvent(tick=0, channel=0, data=[71, 35]),
   midi.NoteOnEvent(tick=240, channel=0, data=[71, 0]),
   midi.NoteOnEvent(tick=0, channel=0, data=[67, 31]),
   midi.NoteOnEvent(tick=240, channel=0, data=[67, 0]),
   midi.NoteOnEvent(tick=0, channel=0, data=[69, 36]),
   midi.NoteOnEvent(tick=240, channel=0, data=[69, 0]),
   midi.NoteOnEvent(tick=0, channel=0, data=[66, 31]),
   midi.NoteOnEvent(tick=240, channel=0, data=[66, 0]),
   midi.NoteOnEvent(tick=0, channel=0, data=[67, 68]),
   midi.NoteOnEvent(tick=240, channel=0, data=[69, 54]),
   midi.NoteOnEvent(tick=24, channel=0, data=[67, 0]),
   midi.NoteOnEvent(tick=216, channel=0, data=[71, 60]),
   midi.NoteOnEvent(tick=24, channel=0, data=[69, 0]),
   midi.NoteOnEvent(tick=216, channel=0, data=[72, 58]),
   midi.NoteOnEvent(tick=24, channel=0, data=[71, 0]),
   midi.NoteOnEvent(tick=216, channel=0, data=[74, 68]),
   midi.NoteOnEvent(tick=24, channel=0, data=[72, 0]),
   midi.NoteOnEvent(tick=216, channel=0, data=[76, 58]),
   midi.NoteOnEvent(tick=24, channel=0, data=[74, 0]),
   midi.NoteOnEvent(tick=216, channel=0, data=[78, 62]),
   midi.NoteOnEvent(tick=24, channel=0, data=[76, 0]),
   midi.NoteOnEvent(tick=216, channel=0, data=[79, 58]),
   midi.NoteOnEvent(tick=24, channel=0, data=[78, 0]),
   midi.NoteOnEvent(tick=216, channel=0, data=[79, 0]),
   midi.NoteOnEvent(tick=0, channel=0, data=[69, 66]),
   midi.NoteOnEvent(tick=480, channel=0, data=[69, 0]),
   midi.NoteOnEvent(tick=0, channel=0, data=[81, 54]),
   midi.NoteOnEvent(tick=240, channel=0, data=[81, 0]),
   midi.NoteOnEvent(tick=240, channel=0, data=[81, 57]),
   midi.NoteOnEvent(tick=240, channel=0, data=[81, 0]),
   midi.NoteOnEvent(tick=240, channel=0, data=[81, 53]),
   midi.NoteOnEvent(tick=240, channel=0, data=[81, 0]),
   midi.NoteOnEvent(tick=240, channel=0, data=[71, 68]),
   midi.NoteOnEvent(tick=240, channel=0, data=[72, 55]),
   midi.NoteOnEvent(tick=24, channel=0, data=[71, 0]),
   midi.NoteOnEvent(tick=216, channel=0, data=[74, 60]),
   midi.NoteOnEvent(tick=24, channel=0, data=[72, 0]),
   midi.NoteOnEvent(tick=216, channel=0, data=[76, 56]),
   midi.NoteOnEvent(tick=24, channel=0, data=[74, 0]),
   midi.NoteOnEvent(tick=216, channel=0, data=[78, 68]),
   midi.NoteOnEvent(tick=24, channel=0, data=[76, 0]),
   midi.NoteOnEvent(tick=216, channel=0, data=[79, 59]),
   midi.NoteOnEvent(tick=24, channel=0, data=[78, 0]),
   midi.NoteOnEvent(tick=216, channel=0, data=[81, 62]),
   midi.NoteOnEvent(tick=24, channel=0, data=[79, 0]),
   midi.NoteOnEvent(tick=216, channel=0, data=[83, 58]),
   midi.NoteOnEvent(tick=24, channel=0, data=[81, 0]),
   midi.NoteOnEvent(tick=216, channel=0, data=[83, 0]),
   midi.NoteOnEvent(tick=0, channel=0, data=[72, 66]),
   midi.NoteOnEvent(tick=480, channel=0, data=[72, 0]),
   midi.NoteOnEvent(tick=0, channel=0, data=[84, 53]),
   midi.NoteOnEvent(tick=240, channel=0, data=[84, 0]),
   midi.NoteOnEvent(tick=240, channel=0, data=[84, 57]),
   midi.NoteOnEvent(tick=240, channel=0, data=[84, 0]),
   midi.NoteOnEvent(tick=240, channel=0, data=[84, 55]),
   midi.NoteOnEvent(tick=240, channel=0, data=[84, 0]),
   midi.NoteOnEvent(tick=240, channel=0, data=[74, 68]),
   midi.NoteOnEvent(tick=240, channel=0, data=[74, 0]),
   midi.NoteOnEvent(tick=0, channel=0, data=[79, 59]),
   midi.NoteOnEvent(tick=240, channel=0, data=[79, 0]),
   midi.NoteOnEvent(tick=0, channel=0, data=[83, 63]),
   midi.NoteOnEvent(tick=240, channel=0, data=[83, 0]),
   midi.NoteOnEvent(tick=0, channel=0, data=[86, 61]),
   midi.NoteOnEvent(tick=240, channel=0, data=[86, 0]),
   midi.NoteOnEvent(tick=0, channel=0, data=[84, 68]),
   midi.NoteOnEvent(tick=240, channel=0, data=[83, 58]),
   midi.NoteOnEvent(tick=24, channel=0, data=[84, 0]),
   midi.NoteOnEvent(tick=216, channel=0, data=[81, 62]),
   midi.NoteOnEvent(tick=24, channel=0, data=[83, 0]),
   midi.NoteOnEvent(tick=216, channel=0, data=[79, 59]),
   midi.NoteOnEvent(tick=24, channel=0, data=[81, 0]),
   midi.NoteOnEvent(tick=216, channel=0, data=[78, 68]),
   midi.NoteOnEvent(tick=24, channel=0, data=[79, 0]),
   midi.NoteOnEvent(tick=216, channel=0, data=[76, 61]),
   midi.NoteOnEvent(tick=24, channel=0, data=[78, 0]),
   midi.NoteOnEvent(tick=216, channel=0, data=[79, 65]),
   midi.NoteOnEvent(tick=24, channel=0, data=[76, 0]),
   midi.NoteOnEvent(tick=216, channel=0, data=[78, 57]),
   midi.NoteOnEvent(tick=24, channel=0, data=[79, 0]),
   midi.NoteOnEvent(tick=216, channel=0, data=[81, 68]),
   midi.NoteOnEvent(tick=24, channel=0, data=[78, 0]),
   midi.NoteOnEvent(tick=216, channel=0, data=[79, 61]),
   midi.NoteOnEvent(tick=24, channel=0, data=[81, 0]),
   midi.NoteOnEvent(tick=216, channel=0, data=[78, 64]),
   midi.NoteOnEvent(tick=24, channel=0, data=[79, 0]),
   midi.NoteOnEvent(tick=216, channel=0, data=[76, 59]),
   midi.NoteOnEvent(tick=24, channel=0, data=[78, 0]),
   midi.NoteOnEvent(tick=216, channel=0, data=[76, 0]),
   midi.NoteOnEvent(tick=0, channel=0, data=[76, 65]),
   midi.NoteOnEvent(tick=240, channel=0, data=[74, 54]),
   midi.NoteOnEvent(tick=24, channel=0, data=[76, 0]),
   midi.NoteOnEvent(tick=216, channel=0, data=[72, 60]),
   midi.NoteOnEvent(tick=24, channel=0, data=[74, 0]),
   midi.NoteOnEvent(tick=216, channel=0, data=[71, 56]),
   midi.NoteOnEvent(tick=24, channel=0, data=[72, 0]),
   midi.NoteOnEvent(tick=216, channel=0, data=[71, 0]),
   midi.NoteOnEvent(tick=0, channel=0, data=[74, 66]),
   midi.NoteOnEvent(tick=240, channel=0, data=[72, 59]),
   midi.NoteOnEvent(tick=24, channel=0, data=[74, 0]),
   midi.NoteOnEvent(tick=216, channel=0, data=[71, 61]),
   midi.NoteOnEvent(tick=24, channel=0, data=[72, 0]),
   midi.NoteOnEvent(tick=216, channel=0, data=[69, 58]),
   midi.NoteOnEvent(tick=24, channel=0, data=[71, 0]),
   midi.NoteOnEvent(tick=216, channel=0, data=[67, 68]),
   midi.NoteOnEvent(tick=24, channel=0, data=[69, 0]),
   midi.NoteOnEvent(tick=936, channel=0, data=[67, 0]),
   midi.NoteOnEvent(tick=960, channel=0, data=[72, 70]),
   midi.NoteOnEvent(tick=480, channel=0, data=[72, 0]),
   midi.NoteOnEvent(tick=0, channel=0, data=[76, 58]),
   midi.NoteOnEvent(tick=240, channel=0, data=[76, 0]),
   midi.NoteOnEvent(tick=0, channel=0, data=[72, 52]),
   midi.NoteOnEvent(tick=240, channel=0, data=[72, 0]),
   midi.NoteOnEvent(tick=0, channel=0, data=[67, 48]),
   midi.NoteOnEvent(tick=180, channel=0, data=[67, 0]),
   midi.NoteOnEvent(tick=300, channel=0, data=[67, 38]),
   midi.NoteOnEvent(tick=180, channel=0, data=[67, 0]),
   midi.NoteOnEvent(tick=300, channel=0, data=[72, 70]),
   midi.NoteOnEvent(tick=480, channel=0, data=[72, 0]),
   midi.NoteOnEvent(tick=0, channel=0, data=[76, 57]),
   midi.NoteOnEvent(tick=240, channel=0, data=[76, 0]),
   midi.NoteOnEvent(tick=0, channel=0, data=[72, 51]),
   midi.NoteOnEvent(tick=240, channel=0, data=[72, 0]),
   midi.NoteOnEvent(tick=0, channel=0, data=[67, 47]),
   midi.NoteOnEvent(tick=180, channel=0, data=[67, 0]),
   midi.NoteOnEvent(tick=300, channel=0, data=[79, 58]),
   midi.NoteOnEvent(tick=240, channel=0, data=[79, 0]),
   midi.NoteOnEvent(tick=240, channel=0, data=[77, 65]),
   midi.NoteOnEvent(tick=240, channel=0, data=[76, 48]),
   midi.NoteOnEvent(tick=24, channel=0, data=[77, 0]),
   midi.NoteOnEvent(tick=216, channel=0, data=[74, 55]),
   midi.NoteOnEvent(tick=24, channel=0, data=[76, 0]),
   midi.NoteOnEvent(tick=216, channel=0, data=[72, 47]),
   midi.NoteOnEvent(tick=24, channel=0, data=[74, 0]),
   midi.NoteOnEvent(tick=216, channel=0, data=[71, 61]),
   midi.NoteOnEvent(tick=24, channel=0, data=[72, 0]),
   midi.NoteOnEvent(tick=216, channel=0, data=[72, 54]),
   midi.NoteOnEvent(tick=24, channel=0, data=[71, 0]),
   midi.NoteOnEvent(tick=216, channel=0, data=[71, 62]),
   midi.NoteOnEvent(tick=24, channel=0, data=[72, 0]),
   midi.NoteOnEvent(tick=216, channel=0, data=[72, 54]),
   midi.NoteOnEvent(tick=24, channel=0, data=[71, 0]),
   midi.NoteOnEvent(tick=216, channel=0, data=[74, 68]),
   midi.NoteOnEvent(tick=24, channel=0, data=[72, 0]),
   midi.NoteOnEvent(tick=216, channel=0, data=[72, 59]),
   midi.NoteOnEvent(tick=24, channel=0, data=[74, 0]),
   midi.NoteOnEvent(tick=216, channel=0, data=[71, 56]),
   midi.NoteOnEvent(tick=24, channel=0, data=[72, 0]),
   midi.NoteOnEvent(tick=216, channel=0, data=[69, 53]),
   midi.NoteOnEvent(tick=24, channel=0, data=[71, 0]),
   midi.NoteOnEvent(tick=216, channel=0, data=[67, 70]),
   midi.NoteOnEvent(tick=24, channel=0, data=[69, 0]),
   midi.NoteOnEvent(tick=456, channel=0, data=[67, 0]),
   midi.NoteOnEvent(tick=480, channel=0, data=[72, 41]),
   midi.NoteOnEvent(tick=480, channel=0, data=[72, 0]),
   midi.NoteOnEvent(tick=0, channel=0, data=[76, 34]),
   midi.NoteOnEvent(tick=240, channel=0, data=[76, 0]),
   midi.NoteOnEvent(tick=0, channel=0, data=[72, 28]),
   midi.NoteOnEvent(tick=240, channel=0, data=[72, 0]),
   midi.NoteOnEvent(tick=0, channel=0, data=[67, 28]),
   midi.NoteOnEvent(tick=180, channel=0, data=[67, 0]),
   midi.NoteOnEvent(tick=300, channel=0, data=[67, 25]),
   midi.NoteOnEvent(tick=180, channel=0, data=[67, 0]),
   midi.NoteOnEvent(tick=300, channel=0, data=[76, 41]),
   midi.NoteOnEvent(tick=480, channel=0, data=[76, 0]),
   midi.NoteOnEvent(tick=0, channel=0, data=[79, 35]),
   midi.NoteOnEvent(tick=240, channel=0, data=[79, 0]),
   midi.NoteOnEvent(tick=0, channel=0, data=[76, 30]),
   midi.NoteOnEvent(tick=240, channel=0, data=[76, 0]),
   midi.NoteOnEvent(tick=0, channel=0, data=[72, 28]),
   midi.NoteOnEvent(tick=480, channel=0, data=[72, 0]),
   midi.NoteOnEvent(tick=0, channel=0, data=[76, 39]),
   midi.NoteOnEvent(tick=240, channel=0, data=[76, 0]),
   midi.NoteOnEvent(tick=0, channel=0, data=[72, 34]),
   midi.NoteOnEvent(tick=240, channel=0, data=[72, 0]),
   midi.NoteOnEvent(tick=0, channel=0, data=[74, 38]),
   midi.NoteOnEvent(tick=240, channel=0, data=[74, 0]),
   midi.NoteOnEvent(tick=0, channel=0, data=[71, 31]),
   midi.NoteOnEvent(tick=240, channel=0, data=[71, 0]),
   midi.NoteOnEvent(tick=0, channel=0, data=[72, 34]),
   midi.NoteOnEvent(tick=240, channel=0, data=[72, 0]),
   midi.NoteOnEvent(tick=0, channel=0, data=[69, 29]),
   midi.NoteOnEvent(tick=240, channel=0, data=[69, 0]),
   midi.NoteOnEvent(tick=0, channel=0, data=[71, 35]),
   midi.NoteOnEvent(tick=240, channel=0, data=[71, 0]),
   midi.NoteOnEvent(tick=0, channel=0, data=[67, 31]),
   midi.NoteOnEvent(tick=240, channel=0, data=[67, 0]),
   midi.NoteOnEvent(tick=0, channel=0, data=[69, 36]),
   midi.NoteOnEvent(tick=240, channel=0, data=[69, 0]),
   midi.NoteOnEvent(tick=0, channel=0, data=[66, 31]),
   midi.NoteOnEvent(tick=240, channel=0, data=[66, 0]),
   midi.NoteOnEvent(tick=0, channel=0, data=[67, 68]),
   midi.NoteOnEvent(tick=240, channel=0, data=[69, 54]),
   midi.NoteOnEvent(tick=24, channel=0, data=[67, 0]),
   midi.NoteOnEvent(tick=216, channel=0, data=[71, 60]),
   midi.NoteOnEvent(tick=24, channel=0, data=[69, 0]),
   midi.NoteOnEvent(tick=216, channel=0, data=[72, 58]),
   midi.NoteOnEvent(tick=24, channel=0, data=[71, 0]),
   midi.NoteOnEvent(tick=216, channel=0, data=[74, 68]),
   midi.NoteOnEvent(tick=24, channel=0, data=[72, 0]),
   midi.NoteOnEvent(tick=216, channel=0, data=[76, 58]),
   midi.NoteOnEvent(tick=24, channel=0, data=[74, 0]),
   midi.NoteOnEvent(tick=216, channel=0, data=[78, 62]),
   midi.NoteOnEvent(tick=24, channel=0, data=[76, 0]),
   midi.NoteOnEvent(tick=216, channel=0, data=[79, 58]),
   midi.NoteOnEvent(tick=24, channel=0, data=[78, 0]),
   midi.NoteOnEvent(tick=216, channel=0, data=[79, 0]),
   midi.NoteOnEvent(tick=0, channel=0, data=[69, 66]),
   midi.NoteOnEvent(tick=480, channel=0, data=[69, 0]),
   midi.NoteOnEvent(tick=0, channel=0, data=[81, 54]),
   midi.NoteOnEvent(tick=240, channel=0, data=[81, 0]),
   midi.NoteOnEvent(tick=240, channel=0, data=[81, 57]),
   midi.NoteOnEvent(tick=240, channel=0, data=[81, 0]),
   midi.NoteOnEvent(tick=240, channel=0, data=[81, 53]),
   midi.NoteOnEvent(tick=240, channel=0, data=[81, 0]),
   midi.NoteOnEvent(tick=240, channel=0, data=[71, 68]),
   midi.NoteOnEvent(tick=240, channel=0, data=[72, 55]),
   midi.NoteOnEvent(tick=24, channel=0, data=[71, 0]),
   midi.NoteOnEvent(tick=216, channel=0, data=[74, 60]),
   midi.NoteOnEvent(tick=24, channel=0, data=[72, 0]),
   midi.NoteOnEvent(tick=216, channel=0, data=[76, 56]),
   midi.NoteOnEvent(tick=24, channel=0, data=[74, 0]),
   midi.NoteOnEvent(tick=216, channel=0, data=[78, 68]),
   midi.NoteOnEvent(tick=24, channel=0, data=[76, 0]),
   midi.NoteOnEvent(tick=216, channel=0, data=[79, 59]),
   midi.NoteOnEvent(tick=24, channel=0, data=[78, 0]),
   midi.NoteOnEvent(tick=216, channel=0, data=[81, 62]),
   midi.NoteOnEvent(tick=24, channel=0, data=[79, 0]),
   midi.NoteOnEvent(tick=216, channel=0, data=[83, 58]),
   midi.NoteOnEvent(tick=24, channel=0, data=[81, 0]),
   midi.NoteOnEvent(tick=216, channel=0, data=[83, 0]),
   midi.NoteOnEvent(tick=0, channel=0, data=[72, 66]),
   midi.NoteOnEvent(tick=480, channel=0, data=[72, 0]),
   midi.NoteOnEvent(tick=0, channel=0, data=[84, 53]),
   midi.NoteOnEvent(tick=240, channel=0, data=[84, 0]),
   midi.NoteOnEvent(tick=240, channel=0, data=[84, 57]),
   midi.NoteOnEvent(tick=240, channel=0, data=[84, 0]),
   midi.NoteOnEvent(tick=240, channel=0, data=[84, 55]),
   midi.NoteOnEvent(tick=240, channel=0, data=[84, 0]),
   midi.NoteOnEvent(tick=240, channel=0, data=[74, 68]),
   midi.NoteOnEvent(tick=240, channel=0, data=[74, 0]),
   midi.NoteOnEvent(tick=0, channel=0, data=[79, 59]),
   midi.NoteOnEvent(tick=240, channel=0, data=[79, 0]),
   midi.NoteOnEvent(tick=0, channel=0, data=[83, 63]),
   midi.NoteOnEvent(tick=240, channel=0, data=[83, 0]),
   midi.NoteOnEvent(tick=0, channel=0, data=[86, 61]),
   midi.NoteOnEvent(tick=240, channel=0, data=[86, 0]),
   midi.NoteOnEvent(tick=0, channel=0, data=[84, 68]),
   midi.NoteOnEvent(tick=240, channel=0, data=[83, 58]),
   midi.NoteOnEvent(tick=24, channel=0, data=[84, 0]),
   midi.NoteOnEvent(tick=216, channel=0, data=[81, 62]),
   midi.NoteOnEvent(tick=24, channel=0, data=[83, 0]),
   midi.NoteOnEvent(tick=216, channel=0, data=[79, 59]),
   midi.NoteOnEvent(tick=24, channel=0, data=[81, 0]),
   midi.NoteOnEvent(tick=216, channel=0, data=[78, 68]),
   midi.NoteOnEvent(tick=24, channel=0, data=[79, 0]),
   midi.NoteOnEvent(tick=216, channel=0, data=[76, 61]),
   midi.NoteOnEvent(tick=24, channel=0, data=[78, 0]),
   midi.NoteOnEvent(tick=216, channel=0, data=[79, 65]),
   midi.NoteOnEvent(tick=24, channel=0, data=[76, 0]),
   midi.NoteOnEvent(tick=216, channel=0, data=[78, 57]),
   midi.NoteOnEvent(tick=24, channel=0, data=[79, 0]),
   midi.NoteOnEvent(tick=216, channel=0, data=[81, 68]),
   midi.NoteOnEvent(tick=24, channel=0, data=[78, 0]),
   midi.NoteOnEvent(tick=216, channel=0, data=[79, 61]),
   midi.NoteOnEvent(tick=24, channel=0, data=[81, 0]),
   midi.NoteOnEvent(tick=216, channel=0, data=[78, 64]),
   midi.NoteOnEvent(tick=24, channel=0, data=[79, 0]),
   midi.NoteOnEvent(tick=216, channel=0, data=[76, 59]),
   midi.NoteOnEvent(tick=24, channel=0, data=[78, 0]),
   midi.NoteOnEvent(tick=216, channel=0, data=[76, 0]),
   midi.NoteOnEvent(tick=0, channel=0, data=[76, 65]),
   midi.NoteOnEvent(tick=240, channel=0, data=[74, 54]),
   midi.NoteOnEvent(tick=24, channel=0, data=[76, 0]),
   midi.NoteOnEvent(tick=216, channel=0, data=[72, 60]),
   midi.NoteOnEvent(tick=24, channel=0, data=[74, 0]),
   midi.NoteOnEvent(tick=216, channel=0, data=[71, 56]),
   midi.NoteOnEvent(tick=24, channel=0, data=[72, 0]),
   midi.NoteOnEvent(tick=216, channel=0, data=[71, 0]),
   midi.NoteOnEvent(tick=0, channel=0, data=[74, 66]),
   midi.NoteOnEvent(tick=240, channel=0, data=[72, 59]),
   midi.NoteOnEvent(tick=24, channel=0, data=[74, 0]),
   midi.NoteOnEvent(tick=216, channel=0, data=[71, 61]),
   midi.NoteOnEvent(tick=24, channel=0, data=[72, 0]),
   midi.NoteOnEvent(tick=216, channel=0, data=[69, 58]),
   midi.NoteOnEvent(tick=24, channel=0, data=[71, 0]),
   midi.NoteOnEvent(tick=216, channel=0, data=[67, 68]),
   midi.NoteOnEvent(tick=24, channel=0, data=[69, 0]),
   midi.NoteOnEvent(tick=936, channel=0, data=[67, 0]),
   midi.NoteOnEvent(tick=960, channel=0, data=[71, 41]),
   midi.NoteOnEvent(tick=480, channel=0, data=[71, 0]),
   midi.NoteOnEvent(tick=0, channel=0, data=[74, 34]),
   midi.NoteOnEvent(tick=240, channel=0, data=[74, 0]),
   midi.NoteOnEvent(tick=0, channel=0, data=[71, 28]),
   midi.NoteOnEvent(tick=240, channel=0, data=[71, 0]),
   midi.NoteOnEvent(tick=0, channel=0, data=[67, 28]),
   midi.NoteOnEvent(tick=180, channel=0, data=[67, 0]),
   midi.NoteOnEvent(tick=300, channel=0, data=[67, 27]),
   midi.NoteOnEvent(tick=180, channel=0, data=[67, 0]),
   midi.NoteOnEvent(tick=300, channel=0, data=[72, 41]),
   midi.NoteOnEvent(tick=480, channel=0, data=[72, 0]),
   midi.NoteOnEvent(tick=0, channel=0, data=[75, 34]),
   midi.NoteOnEvent(tick=240, channel=0, data=[75, 0]),
   midi.NoteOnEvent(tick=0, channel=0, data=[72, 28]),
   midi.NoteOnEvent(tick=240, channel=0, data=[72, 0]),
   midi.NoteOnEvent(tick=0, channel=0, data=[67, 26]),
   midi.NoteOnEvent(tick=180, channel=0, data=[67, 0]),
   midi.NoteOnEvent(tick=300, channel=0, data=[79, 33]),
   midi.NoteOnEvent(tick=480, channel=0, data=[79, 0]),
   midi.NoteOnEvent(tick=0, channel=0, data=[77, 37]),
   midi.NoteOnEvent(tick=480, channel=0, data=[77, 0]),
   midi.NoteOnEvent(tick=0, channel=0, data=[74, 33]),
   midi.NoteOnEvent(tick=480, channel=0, data=[74, 0]),
   midi.NoteOnEvent(tick=0, channel=0, data=[75, 38]),
   midi.NoteOnEvent(tick=480, channel=0, data=[75, 0]),
   midi.NoteOnEvent(tick=0, channel=0, data=[72, 30]),
   midi.NoteOnEvent(tick=480, channel=0, data=[72, 0]),
   midi.NoteOnEvent(tick=0, channel=0, data=[71, 35]),
   midi.NoteOnEvent(tick=240, channel=0, data=[71, 0]),
   midi.NoteOnEvent(tick=0, channel=0, data=[72, 28]),
   midi.NoteOnEvent(tick=240, channel=0, data=[72, 0]),
   midi.NoteOnEvent(tick=0, channel=0, data=[74, 33]),
   midi.NoteOnEvent(tick=240, channel=0, data=[74, 0]),
   midi.NoteOnEvent(tick=0, channel=0, data=[71, 30]),
   midi.NoteOnEvent(tick=240, channel=0, data=[71, 0]),
   midi.NoteOnEvent(tick=0, channel=0, data=[67, 36]),
   midi.NoteOnEvent(tick=180, channel=0, data=[67, 0]),
   midi.NoteOnEvent(tick=300, channel=0, data=[67, 32]),
   midi.NoteOnEvent(tick=180, channel=0, data=[67, 0]),
   midi.NoteOnEvent(tick=300, channel=0, data=[79, 56]),
   midi.NoteOnEvent(tick=240, channel=0, data=[79, 0]),
   midi.NoteOnEvent(tick=0, channel=0, data=[67, 40]),
   midi.NoteOnEvent(tick=240, channel=0, data=[67, 0]),
   midi.NoteOnEvent(tick=0, channel=0, data=[79, 51]),
   midi.NoteOnEvent(tick=240, channel=0, data=[79, 0]),
   midi.NoteOnEvent(tick=0, channel=0, data=[67, 35]),
   midi.NoteOnEvent(tick=240, channel=0, data=[67, 0]),
   midi.NoteOnEvent(tick=0, channel=0, data=[79, 50]),
   midi.NoteOnEvent(tick=240, channel=0, data=[79, 0]),
   midi.NoteOnEvent(tick=0, channel=0, data=[67, 36]),
   midi.NoteOnEvent(tick=240, channel=0, data=[67, 0]),
   midi.NoteOnEvent(tick=0, channel=0, data=[79, 50]),
   midi.NoteOnEvent(tick=240, channel=0, data=[79, 0]),
   midi.NoteOnEvent(tick=0, channel=0, data=[67, 40]),
   midi.NoteOnEvent(tick=240, channel=0, data=[67, 0]),
   midi.NoteOnEvent(tick=0, channel=0, data=[79, 59]),
   midi.NoteOnEvent(tick=240, channel=0, data=[79, 0]),
   midi.NoteOnEvent(tick=0, channel=0, data=[67, 43]),
   midi.NoteOnEvent(tick=240, channel=0, data=[67, 0]),
   midi.NoteOnEvent(tick=0, channel=0, data=[79, 51]),
   midi.NoteOnEvent(tick=240, channel=0, data=[79, 0]),
   midi.NoteOnEvent(tick=0, channel=0, data=[67, 39]),
   midi.NoteOnEvent(tick=240, channel=0, data=[67, 0]),
   midi.NoteOnEvent(tick=0, channel=0, data=[79, 49]),
   midi.NoteOnEvent(tick=240, channel=0, data=[79, 0]),
   midi.NoteOnEvent(tick=0, channel=0, data=[67, 37]),
   midi.NoteOnEvent(tick=240, channel=0, data=[67, 0]),
   midi.NoteOnEvent(tick=0, channel=0, data=[79, 47]),
   midi.NoteOnEvent(tick=240, channel=0, data=[79, 0]),
   midi.NoteOnEvent(tick=0, channel=0, data=[67, 37]),
   midi.NoteOnEvent(tick=240, channel=0, data=[67, 0]),
   midi.NoteOnEvent(tick=0, channel=0, data=[74, 51]),
   midi.NoteOnEvent(tick=240, channel=0, data=[75, 43]),
   midi.NoteOnEvent(tick=24, channel=0, data=[74, 0]),
   midi.NoteOnEvent(tick=216, channel=0, data=[77, 50]),
   midi.NoteOnEvent(tick=24, channel=0, data=[75, 0]),
   midi.NoteOnEvent(tick=216, channel=0, data=[74, 48]),
   midi.NoteOnEvent(tick=24, channel=0, data=[77, 0]),
   midi.NoteOnEvent(tick=216, channel=0, data=[77, 60]),
   midi.NoteOnEvent(tick=24, channel=0, data=[74, 0]),
   midi.NoteOnEvent(tick=216, channel=0, data=[75, 48]),
   midi.NoteOnEvent(tick=24, channel=0, data=[77, 0]),
   midi.NoteOnEvent(tick=216, channel=0, data=[74, 54]),
   midi.NoteOnEvent(tick=24, channel=0, data=[75, 0]),
   midi.NoteOnEvent(tick=216, channel=0, data=[72, 48]),
   midi.NoteOnEvent(tick=24, channel=0, data=[74, 0]),
   midi.NoteOnEvent(tick=216, channel=0, data=[79, 61]),
   midi.NoteOnEvent(tick=0, channel=0, data=[71, 61]),
   midi.NoteOnEvent(tick=24, channel=0, data=[72, 0]),
   midi.NoteOnEvent(tick=456, channel=0, data=[71, 0]),
   midi.NoteOnEvent(tick=0, channel=0, data=[79, 0]),
   midi.NoteOnEvent(tick=1440, channel=0, data=[60, 37]),
   midi.NoteOnEvent(tick=480, channel=0, data=[60, 0]),
   midi.NoteOnEvent(tick=0, channel=0, data=[64, 30]),
   midi.NoteOnEvent(tick=240, channel=0, data=[64, 0]),
   midi.NoteOnEvent(tick=0, channel=0, data=[60, 27]),
   midi.NoteOnEvent(tick=240, channel=0, data=[60, 0]),
   midi.NoteOnEvent(tick=0, channel=0, data=[55, 26]),
   midi.NoteOnEvent(tick=180, channel=0, data=[55, 0]),
   midi.NoteOnEvent(tick=300, channel=0, data=[55, 24]),
   midi.NoteOnEvent(tick=180, channel=0, data=[55, 0]),
   midi.NoteOnEvent(tick=300, channel=0, data=[60, 37]),
   midi.NoteOnEvent(tick=480, channel=0, data=[60, 0]),
   midi.NoteOnEvent(tick=0, channel=0, data=[64, 29]),
   midi.NoteOnEvent(tick=240, channel=0, data=[64, 0]),
   midi.NoteOnEvent(tick=0, channel=0, data=[60, 26]),
   midi.NoteOnEvent(tick=240, channel=0, data=[60, 0]),
   midi.NoteOnEvent(tick=0, channel=0, data=[55, 24]),
   midi.NoteOnEvent(tick=180, channel=0, data=[55, 0]),
   midi.NoteOnEvent(tick=300, channel=0, data=[67, 30]),
   midi.NoteOnEvent(tick=240, channel=0, data=[67, 0]),
   midi.NoteOnEvent(tick=240, channel=0, data=[65, 34]),
   midi.NoteOnEvent(tick=240, channel=0, data=[64, 24]),
   midi.NoteOnEvent(tick=24, channel=0, data=[65, 0]),
   midi.NoteOnEvent(tick=216, channel=0, data=[62, 28]),
   midi.NoteOnEvent(tick=24, channel=0, data=[64, 0]),
   midi.NoteOnEvent(tick=216, channel=0, data=[60, 23]),
   midi.NoteOnEvent(tick=24, channel=0, data=[62, 0]),
   midi.NoteOnEvent(tick=216, channel=0, data=[59, 31]),
   midi.NoteOnEvent(tick=24, channel=0, data=[60, 0]),
   midi.NoteOnEvent(tick=216, channel=0, data=[60, 28]),
   midi.NoteOnEvent(tick=24, channel=0, data=[59, 0]),
   midi.NoteOnEvent(tick=216, channel=0, data=[59, 32]),
   midi.NoteOnEvent(tick=24, channel=0, data=[60, 0]),
   midi.NoteOnEvent(tick=216, channel=0, data=[60, 28]),
   midi.NoteOnEvent(tick=24, channel=0, data=[59, 0]),
   midi.NoteOnEvent(tick=216, channel=0, data=[62, 35]),
   midi.NoteOnEvent(tick=24, channel=0, data=[60, 0]),
   midi.NoteOnEvent(tick=216, channel=0, data=[60, 30]),
   midi.NoteOnEvent(tick=24, channel=0, data=[62, 0]),
   midi.NoteOnEvent(tick=216, channel=0, data=[59, 29]),
   midi.NoteOnEvent(tick=24, channel=0, data=[60, 0]),
   midi.NoteOnEvent(tick=216, channel=0, data=[57, 28]),
   midi.NoteOnEvent(tick=24, channel=0, data=[59, 0]),
   midi.NoteOnEvent(tick=216, channel=0, data=[55, 37]),
   midi.NoteOnEvent(tick=24, channel=0, data=[57, 0]),
   midi.NoteOnEvent(tick=456, channel=0, data=[55, 0]),
   midi.NoteOnEvent(tick=480, channel=0, data=[60, 44]),
   midi.NoteOnEvent(tick=480, channel=0, data=[60, 0]),
   midi.NoteOnEvent(tick=0, channel=0, data=[55, 36]),
   midi.NoteOnEvent(tick=240, channel=0, data=[55, 0]),
   midi.NoteOnEvent(tick=0, channel=0, data=[60, 32]),
   midi.NoteOnEvent(tick=240, channel=0, data=[60, 0]),
   midi.NoteOnEvent(tick=0, channel=0, data=[64, 37]),
   midi.NoteOnEvent(tick=180, channel=0, data=[64, 0]),
   midi.NoteOnEvent(tick=300, channel=0, data=[64, 31]),
   midi.NoteOnEvent(tick=180, channel=0, data=[64, 0]),
   midi.NoteOnEvent(tick=300, channel=0, data=[64, 48]),
   midi.NoteOnEvent(tick=480, channel=0, data=[64, 0]),
   midi.NoteOnEvent(tick=0, channel=0, data=[60, 41]),
   midi.NoteOnEvent(tick=240, channel=0, data=[60, 0]),
   midi.NoteOnEvent(tick=0, channel=0, data=[64, 37]),
   midi.NoteOnEvent(tick=240, channel=0, data=[64, 0]),
   midi.NoteOnEvent(tick=0, channel=0, data=[67, 44]),
   midi.NoteOnEvent(tick=180, channel=0, data=[67, 0]),
   midi.NoteOnEvent(tick=300, channel=0, data=[72, 38]),
   midi.NoteOnEvent(tick=180, channel=0, data=[72, 0]),
   midi.NoteOnEvent(tick=300, channel=0, data=[64, 44]),
   midi.NoteOnEvent(tick=0, channel=0, data=[67, 52]),
   midi.NoteOnEvent(tick=180, channel=0, data=[67, 0]),
   midi.NoteOnEvent(tick=0, channel=0, data=[64, 0]),
   midi.NoteOnEvent(tick=300, channel=0, data=[65, 46]),
   midi.NoteOnEvent(tick=0, channel=0, data=[62, 39]),
   midi.NoteOnEvent(tick=180, channel=0, data=[62, 0]),
   midi.NoteOnEvent(tick=0, channel=0, data=[65, 0]),
   midi.NoteOnEvent(tick=300, channel=0, data=[60, 50]),
   midi.NoteOnEvent(tick=0, channel=0, data=[64, 59]),
   midi.NoteOnEvent(tick=180, channel=0, data=[64, 0]),
   midi.NoteOnEvent(tick=0, channel=0, data=[60, 0]),
   midi.NoteOnEvent(tick=300, channel=0, data=[62, 53]),
   midi.NoteOnEvent(tick=0, channel=0, data=[59, 44]),
   midi.NoteOnEvent(tick=180, channel=0, data=[59, 0]),
   midi.NoteOnEvent(tick=0, channel=0, data=[62, 0]),
   midi.NoteOnEvent(tick=300, channel=0, data=[60, 68]),
   midi.NoteOnEvent(tick=240, channel=0, data=[62, 54]),
   midi.NoteOnEvent(tick=24, channel=0, data=[60, 0]),
   midi.NoteOnEvent(tick=216, channel=0, data=[64, 60]),
   midi.NoteOnEvent(tick=24, channel=0, data=[62, 0]),
   midi.NoteOnEvent(tick=216, channel=0, data=[65, 58]),
   midi.NoteOnEvent(tick=24, channel=0, data=[64, 0]),
   midi.NoteOnEvent(tick=216, channel=0, data=[67, 68]),
   midi.NoteOnEvent(tick=24, channel=0, data=[65, 0]),
   midi.NoteOnEvent(tick=216, channel=0, data=[69, 58]),
   midi.NoteOnEvent(tick=24, channel=0, data=[67, 0]),
   midi.NoteOnEvent(tick=216, channel=0, data=[71, 62]),
   midi.NoteOnEvent(tick=24, channel=0, data=[69, 0]),
   midi.NoteOnEvent(tick=216, channel=0, data=[72, 58]),
   midi.NoteOnEvent(tick=24, channel=0, data=[71, 0]),
   midi.NoteOnEvent(tick=216, channel=0, data=[72, 0]),
   midi.NoteOnEvent(tick=0, channel=0, data=[62, 66]),
   midi.NoteOnEvent(tick=480, channel=0, data=[62, 0]),
   midi.NoteOnEvent(tick=0, channel=0, data=[74, 54]),
   midi.NoteOnEvent(tick=240, channel=0, data=[74, 0]),
   midi.NoteOnEvent(tick=240, channel=0, data=[74, 57]),
   midi.NoteOnEvent(tick=240, channel=0, data=[74, 0]),
   midi.NoteOnEvent(tick=240, channel=0, data=[74, 53]),
   midi.NoteOnEvent(tick=240, channel=0, data=[74, 0]),
   midi.NoteOnEvent(tick=240, channel=0, data=[64, 68]),
   midi.NoteOnEvent(tick=240, channel=0, data=[65, 55]),
   midi.NoteOnEvent(tick=24, channel=0, data=[64, 0]),
   midi.NoteOnEvent(tick=216, channel=0, data=[67, 60]),
   midi.NoteOnEvent(tick=24, channel=0, data=[65, 0]),
   midi.NoteOnEvent(tick=216, channel=0, data=[69, 56]),
   midi.NoteOnEvent(tick=24, channel=0, data=[67, 0]),
   midi.NoteOnEvent(tick=216, channel=0, data=[71, 68]),
   midi.NoteOnEvent(tick=24, channel=0, data=[69, 0]),
   midi.NoteOnEvent(tick=216, channel=0, data=[72, 59]),
   midi.NoteOnEvent(tick=24, channel=0, data=[71, 0]),
   midi.NoteOnEvent(tick=216, channel=0, data=[74, 62]),
   midi.NoteOnEvent(tick=24, channel=0, data=[72, 0]),
   midi.NoteOnEvent(tick=216, channel=0, data=[76, 58]),
   midi.NoteOnEvent(tick=24, channel=0, data=[74, 0]),
   midi.NoteOnEvent(tick=216, channel=0, data=[76, 0]),
   midi.NoteOnEvent(tick=0, channel=0, data=[65, 66]),
   midi.NoteOnEvent(tick=480, channel=0, data=[65, 0]),
   midi.NoteOnEvent(tick=0, channel=0, data=[77, 53]),
   midi.NoteOnEvent(tick=240, channel=0, data=[77, 0]),
   midi.NoteOnEvent(tick=240, channel=0, data=[77, 57]),
   midi.NoteOnEvent(tick=240, channel=0, data=[77, 0]),
   midi.NoteOnEvent(tick=240, channel=0, data=[77, 55]),
   midi.NoteOnEvent(tick=240, channel=0, data=[77, 0]),
   midi.NoteOnEvent(tick=240, channel=0, data=[67, 68]),
   midi.NoteOnEvent(tick=240, channel=0, data=[67, 0]),
   midi.NoteOnEvent(tick=0, channel=0, data=[72, 59]),
   midi.NoteOnEvent(tick=240, channel=0, data=[72, 0]),
   midi.NoteOnEvent(tick=0, channel=0, data=[76, 63]),
   midi.NoteOnEvent(tick=240, channel=0, data=[76, 0]),
   midi.NoteOnEvent(tick=0, channel=0, data=[79, 61]),
   midi.NoteOnEvent(tick=240, channel=0, data=[79, 0]),
   midi.NoteOnEvent(tick=0, channel=0, data=[77, 68]),
   midi.NoteOnEvent(tick=240, channel=0, data=[76, 58]),
   midi.NoteOnEvent(tick=24, channel=0, data=[77, 0]),
   midi.NoteOnEvent(tick=216, channel=0, data=[74, 62]),
   midi.NoteOnEvent(tick=24, channel=0, data=[76, 0]),
   midi.NoteOnEvent(tick=216, channel=0, data=[72, 59]),
   midi.NoteOnEvent(tick=24, channel=0, data=[74, 0]),
   midi.NoteOnEvent(tick=216, channel=0, data=[72, 0]),
   midi.NoteOnEvent(tick=0, channel=0, data=[81, 68]),
   midi.NoteOnEvent(tick=240, channel=0, data=[79, 61]),
   midi.NoteOnEvent(tick=24, channel=0, data=[81, 0]),
   midi.NoteOnEvent(tick=216, channel=0, data=[77, 65]),
   midi.NoteOnEvent(tick=24, channel=0, data=[79, 0]),
   midi.NoteOnEvent(tick=216, channel=0, data=[76, 57]),
   midi.NoteOnEvent(tick=24, channel=0, data=[77, 0]),
   midi.NoteOnEvent(tick=216, channel=0, data=[74, 68]),
   midi.NoteOnEvent(tick=24, channel=0, data=[76, 0]),
   midi.NoteOnEvent(tick=216, channel=0, data=[72, 61]),
   midi.NoteOnEvent(tick=24, channel=0, data=[74, 0]),
   midi.NoteOnEvent(tick=216, channel=0, data=[71, 64]),
   midi.NoteOnEvent(tick=24, channel=0, data=[72, 0]),
   midi.NoteOnEvent(tick=216, channel=0, data=[69, 59]),
   midi.NoteOnEvent(tick=24, channel=0, data=[71, 0]),
   midi.NoteOnEvent(tick=216, channel=0, data=[69, 0]),
   midi.NoteOnEvent(tick=0, channel=0, data=[67, 65]),
   midi.NoteOnEvent(tick=240, channel=0, data=[69, 54]),
   midi.NoteOnEvent(tick=24, channel=0, data=[67, 0]),
   midi.NoteOnEvent(tick=216, channel=0, data=[65, 60]),
   midi.NoteOnEvent(tick=24, channel=0, data=[69, 0]),
   midi.NoteOnEvent(tick=216, channel=0, data=[67, 56]),
   midi.NoteOnEvent(tick=24, channel=0, data=[65, 0]),
   midi.NoteOnEvent(tick=216, channel=0, data=[64, 66]),
   midi.NoteOnEvent(tick=24, channel=0, data=[67, 0]),
   midi.NoteOnEvent(tick=216, channel=0, data=[65, 59]),
   midi.NoteOnEvent(tick=24, channel=0, data=[64, 0]),
   midi.NoteOnEvent(tick=216, channel=0, data=[62, 61]),
   midi.NoteOnEvent(tick=24, channel=0, data=[65, 0]),
   midi.NoteOnEvent(tick=216, channel=0, data=[64, 58]),
   midi.NoteOnEvent(tick=24, channel=0, data=[62, 0]),
   midi.NoteOnEvent(tick=216, channel=0, data=[60, 68]),
   midi.NoteOnEvent(tick=24, channel=0, data=[64, 0]),
   midi.NoteOnEvent(tick=936, channel=0, data=[60, 0]),
   midi.NoteOnEvent(tick=960, channel=0, data=[71, 41]),
   midi.NoteOnEvent(tick=480, channel=0, data=[71, 0]),
   midi.NoteOnEvent(tick=0, channel=0, data=[74, 34]),
   midi.NoteOnEvent(tick=240, channel=0, data=[74, 0]),
   midi.NoteOnEvent(tick=0, channel=0, data=[71, 28]),
   midi.NoteOnEvent(tick=240, channel=0, data=[71, 0]),
   midi.NoteOnEvent(tick=0, channel=0, data=[67, 28]),
   midi.NoteOnEvent(tick=180, channel=0, data=[67, 0]),
   midi.NoteOnEvent(tick=300, channel=0, data=[67, 24]),
   midi.NoteOnEvent(tick=180, channel=0, data=[67, 0]),
   midi.NoteOnEvent(tick=300, channel=0, data=[72, 41]),
   midi.NoteOnEvent(tick=480, channel=0, data=[72, 0]),
   midi.NoteOnEvent(tick=0, channel=0, data=[75, 34]),
   midi.NoteOnEvent(tick=240, channel=0, data=[75, 0]),
   midi.NoteOnEvent(tick=0, channel=0, data=[72, 28]),
   midi.NoteOnEvent(tick=240, channel=0, data=[72, 0]),
   midi.NoteOnEvent(tick=0, channel=0, data=[67, 28]),
   midi.NoteOnEvent(tick=180, channel=0, data=[67, 0]),
   midi.NoteOnEvent(tick=300, channel=0, data=[79, 33]),
   midi.NoteOnEvent(tick=480, channel=0, data=[79, 0]),
   midi.NoteOnEvent(tick=0, channel=0, data=[77, 37]),
   midi.NoteOnEvent(tick=480, channel=0, data=[77, 0]),
   midi.NoteOnEvent(tick=0, channel=0, data=[74, 33]),
   midi.NoteOnEvent(tick=480, channel=0, data=[74, 0]),
   midi.NoteOnEvent(tick=0, channel=0, data=[75, 38]),
   midi.NoteOnEvent(tick=480, channel=0, data=[75, 0]),
   midi.NoteOnEvent(tick=0, channel=0, data=[72, 30]),
   midi.NoteOnEvent(tick=480, channel=0, data=[72, 0]),
   midi.NoteOnEvent(tick=0, channel=0, data=[71, 35]),
   midi.NoteOnEvent(tick=240, channel=0, data=[71, 0]),
   midi.NoteOnEvent(tick=0, channel=0, data=[72, 28]),
   midi.NoteOnEvent(tick=240, channel=0, data=[72, 0]),
   midi.NoteOnEvent(tick=0, channel=0, data=[74, 33]),
   midi.NoteOnEvent(tick=240, channel=0, data=[74, 0]),
   midi.NoteOnEvent(tick=0, channel=0, data=[71, 30]),
   midi.NoteOnEvent(tick=240, channel=0, data=[71, 0]),
   midi.NoteOnEvent(tick=0, channel=0, data=[67, 36]),
   midi.NoteOnEvent(tick=180, channel=0, data=[67, 0]),
   midi.NoteOnEvent(tick=300, channel=0, data=[67, 32]),
   midi.NoteOnEvent(tick=180, channel=0, data=[67, 0]),
   midi.NoteOnEvent(tick=300, channel=0, data=[79, 56]),
   midi.NoteOnEvent(tick=240, channel=0, data=[79, 0]),
   midi.NoteOnEvent(tick=0, channel=0, data=[67, 40]),
   midi.NoteOnEvent(tick=240, channel=0, data=[67, 0]),
   midi.NoteOnEvent(tick=0, channel=0, data=[79, 51]),
   midi.NoteOnEvent(tick=240, channel=0, data=[79, 0]),
   midi.NoteOnEvent(tick=0, channel=0, data=[67, 35]),
   midi.NoteOnEvent(tick=240, channel=0, data=[67, 0]),
   midi.NoteOnEvent(tick=0, channel=0, data=[79, 50]),
   midi.NoteOnEvent(tick=240, channel=0, data=[79, 0]),
   midi.NoteOnEvent(tick=0, channel=0, data=[67, 36]),
   midi.NoteOnEvent(tick=240, channel=0, data=[67, 0]),
   midi.NoteOnEvent(tick=0, channel=0, data=[79, 50]),
   midi.NoteOnEvent(tick=240, channel=0, data=[79, 0]),
   midi.NoteOnEvent(tick=0, channel=0, data=[67, 40]),
   midi.NoteOnEvent(tick=240, channel=0, data=[67, 0]),
   midi.NoteOnEvent(tick=0, channel=0, data=[79, 59]),
   midi.NoteOnEvent(tick=240, channel=0, data=[79, 0]),
   midi.NoteOnEvent(tick=0, channel=0, data=[67, 43]),
   midi.NoteOnEvent(tick=240, channel=0, data=[67, 0]),
   midi.NoteOnEvent(tick=0, channel=0, data=[79, 51]),
   midi.NoteOnEvent(tick=240, channel=0, data=[79, 0]),
   midi.NoteOnEvent(tick=0, channel=0, data=[67, 39]),
   midi.NoteOnEvent(tick=240, channel=0, data=[67, 0]),
   midi.NoteOnEvent(tick=0, channel=0, data=[79, 49]),
   midi.NoteOnEvent(tick=240, channel=0, data=[79, 0]),
   midi.NoteOnEvent(tick=0, channel=0, data=[67, 37]),
   midi.NoteOnEvent(tick=240, channel=0, data=[67, 0]),
   midi.NoteOnEvent(tick=0, channel=0, data=[79, 47]),
   midi.NoteOnEvent(tick=240, channel=0, data=[79, 0]),
   midi.NoteOnEvent(tick=0, channel=0, data=[67, 37]),
   midi.NoteOnEvent(tick=240, channel=0, data=[67, 0]),
   midi.NoteOnEvent(tick=0, channel=0, data=[74, 51]),
   midi.NoteOnEvent(tick=240, channel=0, data=[75, 43]),
   midi.NoteOnEvent(tick=24, channel=0, data=[74, 0]),
   midi.NoteOnEvent(tick=216, channel=0, data=[77, 50]),
   midi.NoteOnEvent(tick=24, channel=0, data=[75, 0]),
   midi.NoteOnEvent(tick=216, channel=0, data=[74, 48]),
   midi.NoteOnEvent(tick=24, channel=0, data=[77, 0]),
   midi.NoteOnEvent(tick=216, channel=0, data=[77, 60]),
   midi.NoteOnEvent(tick=24, channel=0, data=[74, 0]),
   midi.NoteOnEvent(tick=216, channel=0, data=[75, 48]),
   midi.NoteOnEvent(tick=24, channel=0, data=[77, 0]),
   midi.NoteOnEvent(tick=216, channel=0, data=[74, 54]),
   midi.NoteOnEvent(tick=24, channel=0, data=[75, 0]),
   midi.NoteOnEvent(tick=216, channel=0, data=[72, 48]),
   midi.NoteOnEvent(tick=24, channel=0, data=[74, 0]),
   midi.NoteOnEvent(tick=216, channel=0, data=[79, 61]),
   midi.NoteOnEvent(tick=0, channel=0, data=[71, 61]),
   midi.NoteOnEvent(tick=24, channel=0, data=[72, 0]),
   midi.NoteOnEvent(tick=456, channel=0, data=[71, 0]),
   midi.NoteOnEvent(tick=0, channel=0, data=[79, 0]),
   midi.NoteOnEvent(tick=1440, channel=0, data=[60, 37]),
   midi.NoteOnEvent(tick=480, channel=0, data=[60, 0]),
   midi.NoteOnEvent(tick=0, channel=0, data=[64, 30]),
   midi.NoteOnEvent(tick=240, channel=0, data=[64, 0]),
   midi.NoteOnEvent(tick=0, channel=0, data=[60, 27]),
   midi.NoteOnEvent(tick=240, channel=0, data=[60, 0]),
   midi.NoteOnEvent(tick=0, channel=0, data=[55, 25]),
   midi.NoteOnEvent(tick=180, channel=0, data=[55, 0]),
   midi.NoteOnEvent(tick=300, channel=0, data=[55, 22]),
   midi.NoteOnEvent(tick=180, channel=0, data=[55, 0]),
   midi.NoteOnEvent(tick=300, channel=0, data=[60, 37]),
   midi.NoteOnEvent(tick=480, channel=0, data=[60, 0]),
   midi.NoteOnEvent(tick=0, channel=0, data=[64, 29]),
   midi.NoteOnEvent(tick=240, channel=0, data=[64, 0]),
   midi.NoteOnEvent(tick=0, channel=0, data=[60, 26]),
   midi.NoteOnEvent(tick=240, channel=0, data=[60, 0]),
   midi.NoteOnEvent(tick=0, channel=0, data=[55, 25]),
   midi.NoteOnEvent(tick=180, channel=0, data=[55, 0]),
   midi.NoteOnEvent(tick=300, channel=0, data=[67, 30]),
   midi.NoteOnEvent(tick=240, channel=0, data=[67, 0]),
   midi.NoteOnEvent(tick=240, channel=0, data=[65, 34]),
   midi.NoteOnEvent(tick=240, channel=0, data=[64, 24]),
   midi.NoteOnEvent(tick=24, channel=0, data=[65, 0]),
   midi.NoteOnEvent(tick=216, channel=0, data=[62, 28]),
   midi.NoteOnEvent(tick=24, channel=0, data=[64, 0]),
   midi.NoteOnEvent(tick=216, channel=0, data=[60, 23]),
   midi.NoteOnEvent(tick=24, channel=0, data=[62, 0]),
   midi.NoteOnEvent(tick=216, channel=0, data=[59, 31]),
   midi.NoteOnEvent(tick=24, channel=0, data=[60, 0]),
   midi.NoteOnEvent(tick=216, channel=0, data=[60, 28]),
   midi.NoteOnEvent(tick=24, channel=0, data=[59, 0]),
   midi.NoteOnEvent(tick=216, channel=0, data=[59, 32]),
   midi.NoteOnEvent(tick=24, channel=0, data=[60, 0]),
   midi.NoteOnEvent(tick=216, channel=0, data=[60, 28]),
   midi.NoteOnEvent(tick=24, channel=0, data=[59, 0]),
   midi.NoteOnEvent(tick=216, channel=0, data=[62, 35]),
   midi.NoteOnEvent(tick=24, channel=0, data=[60, 0]),
   midi.NoteOnEvent(tick=216, channel=0, data=[60, 30]),
   midi.NoteOnEvent(tick=24, channel=0, data=[62, 0]),
   midi.NoteOnEvent(tick=216, channel=0, data=[59, 29]),
   midi.NoteOnEvent(tick=24, channel=0, data=[60, 0]),
   midi.NoteOnEvent(tick=216, channel=0, data=[57, 28]),
   midi.NoteOnEvent(tick=24, channel=0, data=[59, 0]),
   midi.NoteOnEvent(tick=216, channel=0, data=[55, 37]),
   midi.NoteOnEvent(tick=24, channel=0, data=[57, 0]),
   midi.NoteOnEvent(tick=456, channel=0, data=[55, 0]),
   midi.NoteOnEvent(tick=480, channel=0, data=[60, 44]),
   midi.NoteOnEvent(tick=480, channel=0, data=[60, 0]),
   midi.NoteOnEvent(tick=0, channel=0, data=[55, 36]),
   midi.NoteOnEvent(tick=240, channel=0, data=[55, 0]),
   midi.NoteOnEvent(tick=0, channel=0, data=[60, 32]),
   midi.NoteOnEvent(tick=240, channel=0, data=[60, 0]),
   midi.NoteOnEvent(tick=0, channel=0, data=[64, 37]),
   midi.NoteOnEvent(tick=180, channel=0, data=[64, 0]),
   midi.NoteOnEvent(tick=300, channel=0, data=[64, 31]),
   midi.NoteOnEvent(tick=180, channel=0, data=[64, 0]),
   midi.NoteOnEvent(tick=300, channel=0, data=[64, 48]),
   midi.NoteOnEvent(tick=480, channel=0, data=[64, 0]),
   midi.NoteOnEvent(tick=0, channel=0, data=[60, 41]),
   midi.NoteOnEvent(tick=240, channel=0, data=[60, 0]),
   midi.NoteOnEvent(tick=0, channel=0, data=[64, 37]),
   midi.NoteOnEvent(tick=240, channel=0, data=[64, 0]),
   midi.NoteOnEvent(tick=0, channel=0, data=[67, 44]),
   midi.NoteOnEvent(tick=180, channel=0, data=[67, 0]),
   midi.NoteOnEvent(tick=300, channel=0, data=[72, 38]),
   midi.NoteOnEvent(tick=180, channel=0, data=[72, 0]),
   midi.NoteOnEvent(tick=300, channel=0, data=[64, 44]),
   midi.NoteOnEvent(tick=0, channel=0, data=[67, 52]),
   midi.NoteOnEvent(tick=180, channel=0, data=[67, 0]),
   midi.NoteOnEvent(tick=0, channel=0, data=[64, 0]),
   midi.NoteOnEvent(tick=300, channel=0, data=[65, 46]),
   midi.NoteOnEvent(tick=0, channel=0, data=[62, 39]),
   midi.NoteOnEvent(tick=180, channel=0, data=[62, 0]),
   midi.NoteOnEvent(tick=0, channel=0, data=[65, 0]),
   midi.NoteOnEvent(tick=300, channel=0, data=[60, 50]),
   midi.NoteOnEvent(tick=0, channel=0, data=[64, 59]),
   midi.NoteOnEvent(tick=180, channel=0, data=[64, 0]),
   midi.NoteOnEvent(tick=0, channel=0, data=[60, 0]),
   midi.NoteOnEvent(tick=300, channel=0, data=[62, 53]),
   midi.NoteOnEvent(tick=0, channel=0, data=[59, 44]),
   midi.NoteOnEvent(tick=180, channel=0, data=[59, 0]),
   midi.NoteOnEvent(tick=0, channel=0, data=[62, 0]),
   midi.NoteOnEvent(tick=300, channel=0, data=[60, 68]),
   midi.NoteOnEvent(tick=240, channel=0, data=[62, 54]),
   midi.NoteOnEvent(tick=24, channel=0, data=[60, 0]),
   midi.NoteOnEvent(tick=216, channel=0, data=[64, 60]),
   midi.NoteOnEvent(tick=24, channel=0, data=[62, 0]),
   midi.NoteOnEvent(tick=216, channel=0, data=[65, 58]),
   midi.NoteOnEvent(tick=24, channel=0, data=[64, 0]),
   midi.NoteOnEvent(tick=216, channel=0, data=[67, 68]),
   midi.NoteOnEvent(tick=24, channel=0, data=[65, 0]),
   midi.NoteOnEvent(tick=216, channel=0, data=[69, 58]),
   midi.NoteOnEvent(tick=24, channel=0, data=[67, 0]),
   midi.NoteOnEvent(tick=216, channel=0, data=[71, 62]),
   midi.NoteOnEvent(tick=24, channel=0, data=[69, 0]),
   midi.NoteOnEvent(tick=216, channel=0, data=[72, 58]),
   midi.NoteOnEvent(tick=24, channel=0, data=[71, 0]),
   midi.NoteOnEvent(tick=216, channel=0, data=[72, 0]),
   midi.NoteOnEvent(tick=0, channel=0, data=[62, 66]),
   midi.NoteOnEvent(tick=480, channel=0, data=[62, 0]),
   midi.NoteOnEvent(tick=0, channel=0, data=[74, 54]),
   midi.NoteOnEvent(tick=240, channel=0, data=[74, 0]),
   midi.NoteOnEvent(tick=240, channel=0, data=[74, 57]),
   midi.NoteOnEvent(tick=240, channel=0, data=[74, 0]),
   midi.NoteOnEvent(tick=240, channel=0, data=[74, 53]),
   midi.NoteOnEvent(tick=240, channel=0, data=[74, 0]),
   midi.NoteOnEvent(tick=240, channel=0, data=[64, 68]),
   midi.NoteOnEvent(tick=240, channel=0, data=[65, 55]),
   midi.NoteOnEvent(tick=24, channel=0, data=[64, 0]),
   midi.NoteOnEvent(tick=216, channel=0, data=[67, 60]),
   midi.NoteOnEvent(tick=24, channel=0, data=[65, 0]),
   midi.NoteOnEvent(tick=216, channel=0, data=[69, 56]),
   midi.NoteOnEvent(tick=24, channel=0, data=[67, 0]),
   midi.NoteOnEvent(tick=216, channel=0, data=[71, 68]),
   midi.NoteOnEvent(tick=24, channel=0, data=[69, 0]),
   midi.NoteOnEvent(tick=216, channel=0, data=[72, 59]),
   midi.NoteOnEvent(tick=24, channel=0, data=[71, 0]),
   midi.NoteOnEvent(tick=216, channel=0, data=[74, 62]),
   midi.NoteOnEvent(tick=24, channel=0, data=[72, 0]),
   midi.NoteOnEvent(tick=216, channel=0, data=[76, 58]),
   midi.NoteOnEvent(tick=24, channel=0, data=[74, 0]),
   midi.NoteOnEvent(tick=216, channel=0, data=[76, 0]),
   midi.NoteOnEvent(tick=0, channel=0, data=[65, 66]),
   midi.NoteOnEvent(tick=480, channel=0, data=[65, 0]),
   midi.NoteOnEvent(tick=0, channel=0, data=[77, 53]),
   midi.NoteOnEvent(tick=240, channel=0, data=[77, 0]),
   midi.NoteOnEvent(tick=240, channel=0, data=[77, 57]),
   midi.NoteOnEvent(tick=240, channel=0, data=[77, 0]),
   midi.NoteOnEvent(tick=240, channel=0, data=[77, 55]),
   midi.NoteOnEvent(tick=240, channel=0, data=[77, 0]),
   midi.NoteOnEvent(tick=240, channel=0, data=[67, 68]),
   midi.NoteOnEvent(tick=240, channel=0, data=[67, 0]),
   midi.NoteOnEvent(tick=0, channel=0, data=[72, 59]),
   midi.NoteOnEvent(tick=240, channel=0, data=[72, 0]),
   midi.NoteOnEvent(tick=0, channel=0, data=[76, 63]),
   midi.NoteOnEvent(tick=240, channel=0, data=[76, 0]),
   midi.NoteOnEvent(tick=0, channel=0, data=[79, 61]),
   midi.NoteOnEvent(tick=240, channel=0, data=[79, 0]),
   midi.NoteOnEvent(tick=0, channel=0, data=[77, 68]),
   midi.NoteOnEvent(tick=240, channel=0, data=[76, 58]),
   midi.NoteOnEvent(tick=24, channel=0, data=[77, 0]),
   midi.NoteOnEvent(tick=216, channel=0, data=[74, 62]),
   midi.NoteOnEvent(tick=24, channel=0, data=[76, 0]),
   midi.NoteOnEvent(tick=216, channel=0, data=[72, 59]),
   midi.NoteOnEvent(tick=24, channel=0, data=[74, 0]),
   midi.NoteOnEvent(tick=216, channel=0, data=[72, 0]),
   midi.NoteOnEvent(tick=0, channel=0, data=[81, 68]),
   midi.NoteOnEvent(tick=240, channel=0, data=[79, 61]),
   midi.NoteOnEvent(tick=24, channel=0, data=[81, 0]),
   midi.NoteOnEvent(tick=216, channel=0, data=[77, 65]),
   midi.NoteOnEvent(tick=24, channel=0, data=[79, 0]),
   midi.NoteOnEvent(tick=216, channel=0, data=[76, 57]),
   midi.NoteOnEvent(tick=24, channel=0, data=[77, 0]),
   midi.NoteOnEvent(tick=216, channel=0, data=[74, 68]),
   midi.NoteOnEvent(tick=24, channel=0, data=[76, 0]),
   midi.NoteOnEvent(tick=216, channel=0, data=[72, 61]),
   midi.NoteOnEvent(tick=24, channel=0, data=[74, 0]),
   midi.NoteOnEvent(tick=216, channel=0, data=[71, 64]),
   midi.NoteOnEvent(tick=24, channel=0, data=[72, 0]),
   midi.NoteOnEvent(tick=216, channel=0, data=[69, 59]),
   midi.NoteOnEvent(tick=24, channel=0, data=[71, 0]),
   midi.NoteOnEvent(tick=216, channel=0, data=[69, 0]),
   midi.NoteOnEvent(tick=0, channel=0, data=[67, 65]),
   midi.NoteOnEvent(tick=240, channel=0, data=[69, 54]),
   midi.NoteOnEvent(tick=24, channel=0, data=[67, 0]),
   midi.NoteOnEvent(tick=216, channel=0, data=[65, 60]),
   midi.NoteOnEvent(tick=24, channel=0, data=[69, 0]),
   midi.NoteOnEvent(tick=216, channel=0, data=[67, 56]),
   midi.NoteOnEvent(tick=24, channel=0, data=[65, 0]),
   midi.NoteOnEvent(tick=216, channel=0, data=[64, 66]),
   midi.NoteOnEvent(tick=24, channel=0, data=[67, 0]),
   midi.NoteOnEvent(tick=216, channel=0, data=[65, 59]),
   midi.NoteOnEvent(tick=24, channel=0, data=[64, 0]),
   midi.NoteOnEvent(tick=216, channel=0, data=[62, 61]),
   midi.NoteOnEvent(tick=24, channel=0, data=[65, 0]),
   midi.NoteOnEvent(tick=216, channel=0, data=[64, 58]),
   midi.NoteOnEvent(tick=24, channel=0, data=[62, 0]),
   midi.NoteOnEvent(tick=216, channel=0, data=[60, 68]),
   midi.NoteOnEvent(tick=24, channel=0, data=[64, 0]),
   midi.NoteOnEvent(tick=936, channel=0, data=[60, 0]),
   midi.EndOfTrackEvent(tick=0, data=[])]),
 midi.Track(\
[    midi.NoteOnEvent(tick=0, channel=0, data=[48, 40]),
   midi.NoteOnEvent(tick=480, channel=0, data=[48, 0]),
   midi.NoteOnEvent(tick=1440, channel=0, data=[48, 40]),
   midi.NoteOnEvent(tick=480, channel=0, data=[48, 0]),
   midi.NoteOnEvent(tick=1440, channel=0, data=[48, 40]),
   midi.NoteOnEvent(tick=480, channel=0, data=[48, 0]),
   midi.NoteOnEvent(tick=480, channel=0, data=[48, 35]),
   midi.NoteOnEvent(tick=480, channel=0, data=[48, 0]),
   midi.NoteOnEvent(tick=480, channel=0, data=[43, 40]),
   midi.NoteOnEvent(tick=480, channel=0, data=[43, 0]),
   midi.NoteOnEvent(tick=480, channel=0, data=[55, 48]),
   midi.NoteOnEvent(tick=240, channel=0, data=[53, 38]),
   midi.NoteOnEvent(tick=24, channel=0, data=[55, 0]),
   midi.NoteOnEvent(tick=216, channel=0, data=[52, 40]),
   midi.NoteOnEvent(tick=24, channel=0, data=[53, 0]),
   midi.NoteOnEvent(tick=216, channel=0, data=[50, 38]),
   midi.NoteOnEvent(tick=24, channel=0, data=[52, 0]),
   midi.NoteOnEvent(tick=216, channel=0, data=[48, 23]),
   midi.NoteOnEvent(tick=24, channel=0, data=[50, 0]),
   midi.NoteOnEvent(tick=456, channel=0, data=[48, 0]),
   midi.NoteOnEvent(tick=1440, channel=0, data=[60, 23]),
   midi.NoteOnEvent(tick=480, channel=0, data=[60, 0]),
   midi.NoteOnEvent(tick=960, channel=0, data=[54, 23]),
   midi.NoteOnEvent(tick=480, channel=0, data=[54, 0]),
   midi.NoteOnEvent(tick=0, channel=0, data=[55, 23]),
   midi.NoteOnEvent(tick=480, channel=0, data=[55, 0]),
   midi.NoteOnEvent(tick=0, channel=0, data=[48, 21]),
   midi.NoteOnEvent(tick=480, channel=0, data=[48, 0]),
   midi.NoteOnEvent(tick=0, channel=0, data=[50, 24]),
   midi.NoteOnEvent(tick=480, channel=0, data=[50, 0]),
   midi.NoteOnEvent(tick=0, channel=0, data=[38, 20]),
   midi.NoteOnEvent(tick=480, channel=0, data=[38, 0]),
   midi.NoteOnEvent(tick=0, channel=0, data=[43, 40]),
   midi.NoteOnEvent(tick=480, channel=0, data=[43, 0]),
   midi.NoteOnEvent(tick=1440, channel=0, data=[54, 40]),
   midi.NoteOnEvent(tick=240, channel=0, data=[54, 0]),
   midi.NoteOnEvent(tick=0, channel=0, data=[62, 35]),
   midi.NoteOnEvent(tick=240, channel=0, data=[62, 0]),
   midi.NoteOnEvent(tick=0, channel=0, data=[57, 35]),
   midi.NoteOnEvent(tick=240, channel=0, data=[57, 0]),
   midi.NoteOnEvent(tick=0, channel=0, data=[62, 35]),
   midi.NoteOnEvent(tick=240, channel=0, data=[62, 0]),
   midi.NoteOnEvent(tick=0, channel=0, data=[54, 40]),
   midi.NoteOnEvent(tick=240, channel=0, data=[54, 0]),
   midi.NoteOnEvent(tick=0, channel=0, data=[62, 37]),
   midi.NoteOnEvent(tick=240, channel=0, data=[62, 0]),
   midi.NoteOnEvent(tick=0, channel=0, data=[57, 37]),
   midi.NoteOnEvent(tick=240, channel=0, data=[57, 0]),
   midi.NoteOnEvent(tick=0, channel=0, data=[62, 37]),
   midi.NoteOnEvent(tick=240, channel=0, data=[62, 0]),
   midi.NoteOnEvent(tick=0, channel=0, data=[55, 40]),
   midi.NoteOnEvent(tick=480, channel=0, data=[55, 0]),
   midi.NoteOnEvent(tick=1440, channel=0, data=[57, 40]),
   midi.NoteOnEvent(tick=240, channel=0, data=[57, 0]),
   midi.NoteOnEvent(tick=0, channel=0, data=[62, 35]),
   midi.NoteOnEvent(tick=240, channel=0, data=[62, 0]),
   midi.NoteOnEvent(tick=0, channel=0, data=[60, 35]),
   midi.NoteOnEvent(tick=240, channel=0, data=[60, 0]),
   midi.NoteOnEvent(tick=0, channel=0, data=[62, 35]),
   midi.NoteOnEvent(tick=240, channel=0, data=[62, 0]),
   midi.NoteOnEvent(tick=0, channel=0, data=[57, 40]),
   midi.NoteOnEvent(tick=240, channel=0, data=[57, 0]),
   midi.NoteOnEvent(tick=0, channel=0, data=[62, 37]),
   midi.NoteOnEvent(tick=240, channel=0, data=[62, 0]),
   midi.NoteOnEvent(tick=0, channel=0, data=[60, 37]),
   midi.NoteOnEvent(tick=240, channel=0, data=[60, 0]),
   midi.NoteOnEvent(tick=0, channel=0, data=[62, 37]),
   midi.NoteOnEvent(tick=240, channel=0, data=[62, 0]),
   midi.NoteOnEvent(tick=0, channel=0, data=[59, 40]),
   midi.NoteOnEvent(tick=480, channel=0, data=[59, 0]),
   midi.NoteOnEvent(tick=1440, channel=0, data=[60, 40]),
   midi.NoteOnEvent(tick=480, channel=0, data=[60, 0]),
   midi.NoteOnEvent(tick=480, channel=0, data=[48, 37]),
   midi.NoteOnEvent(tick=480, channel=0, data=[48, 0]),
   midi.NoteOnEvent(tick=480, channel=0, data=[50, 40]),
   midi.NoteOnEvent(tick=480, channel=0, data=[50, 0]),
   midi.NoteOnEvent(tick=480, channel=0, data=[38, 39]),
   midi.NoteOnEvent(tick=480, channel=0, data=[38, 0]),
   midi.NoteOnEvent(tick=480, channel=0, data=[43, 48]),
   midi.NoteOnEvent(tick=240, channel=0, data=[43, 0]),
   midi.NoteOnEvent(tick=0, channel=0, data=[47, 38]),
   midi.NoteOnEvent(tick=240, channel=0, data=[47, 0]),
   midi.NoteOnEvent(tick=0, channel=0, data=[50, 40]),
   midi.NoteOnEvent(tick=240, channel=0, data=[50, 0]),
   midi.NoteOnEvent(tick=0, channel=0, data=[55, 38]),
   midi.NoteOnEvent(tick=240, channel=0, data=[55, 0]),
   midi.NoteOnEvent(tick=0, channel=0, data=[43, 48]),
   midi.NoteOnEvent(tick=480, channel=0, data=[43, 0]),
   midi.NoteOnEvent(tick=480, channel=0, data=[48, 40]),
   midi.NoteOnEvent(tick=480, channel=0, data=[48, 0]),
   midi.NoteOnEvent(tick=1440, channel=0, data=[48, 40]),
   midi.NoteOnEvent(tick=480, channel=0, data=[48, 0]),
   midi.NoteOnEvent(tick=1440, channel=0, data=[48, 40]),
   midi.NoteOnEvent(tick=480, channel=0, data=[48, 0]),
   midi.NoteOnEvent(tick=480, channel=0, data=[48, 35]),
   midi.NoteOnEvent(tick=480, channel=0, data=[48, 0]),
   midi.NoteOnEvent(tick=480, channel=0, data=[43, 40]),
   midi.NoteOnEvent(tick=480, channel=0, data=[43, 0]),
   midi.NoteOnEvent(tick=480, channel=0, data=[55, 48]),
   midi.NoteOnEvent(tick=240, channel=0, data=[53, 38]),
   midi.NoteOnEvent(tick=24, channel=0, data=[55, 0]),
   midi.NoteOnEvent(tick=216, channel=0, data=[52, 40]),
   midi.NoteOnEvent(tick=24, channel=0, data=[53, 0]),
   midi.NoteOnEvent(tick=216, channel=0, data=[50, 38]),
   midi.NoteOnEvent(tick=24, channel=0, data=[52, 0]),
   midi.NoteOnEvent(tick=216, channel=0, data=[48, 23]),
   midi.NoteOnEvent(tick=24, channel=0, data=[50, 0]),
   midi.NoteOnEvent(tick=456, channel=0, data=[48, 0]),
   midi.NoteOnEvent(tick=1440, channel=0, data=[60, 23]),
   midi.NoteOnEvent(tick=480, channel=0, data=[60, 0]),
   midi.NoteOnEvent(tick=960, channel=0, data=[54, 23]),
   midi.NoteOnEvent(tick=480, channel=0, data=[54, 0]),
   midi.NoteOnEvent(tick=0, channel=0, data=[55, 23]),
   midi.NoteOnEvent(tick=480, channel=0, data=[55, 0]),
   midi.NoteOnEvent(tick=0, channel=0, data=[48, 21]),
   midi.NoteOnEvent(tick=480, channel=0, data=[48, 0]),
   midi.NoteOnEvent(tick=0, channel=0, data=[50, 24]),
   midi.NoteOnEvent(tick=480, channel=0, data=[50, 0]),
   midi.NoteOnEvent(tick=0, channel=0, data=[38, 20]),
   midi.NoteOnEvent(tick=480, channel=0, data=[38, 0]),
   midi.NoteOnEvent(tick=0, channel=0, data=[43, 40]),
   midi.NoteOnEvent(tick=480, channel=0, data=[43, 0]),
   midi.NoteOnEvent(tick=1440, channel=0, data=[54, 40]),
   midi.NoteOnEvent(tick=240, channel=0, data=[54, 0]),
   midi.NoteOnEvent(tick=0, channel=0, data=[62, 35]),
   midi.NoteOnEvent(tick=240, channel=0, data=[62, 0]),
   midi.NoteOnEvent(tick=0, channel=0, data=[57, 35]),
   midi.NoteOnEvent(tick=240, channel=0, data=[57, 0]),
   midi.NoteOnEvent(tick=0, channel=0, data=[62, 35]),
   midi.NoteOnEvent(tick=240, channel=0, data=[62, 0]),
   midi.NoteOnEvent(tick=0, channel=0, data=[54, 40]),
   midi.NoteOnEvent(tick=240, channel=0, data=[54, 0]),
   midi.NoteOnEvent(tick=0, channel=0, data=[62, 37]),
   midi.NoteOnEvent(tick=240, channel=0, data=[62, 0]),
   midi.NoteOnEvent(tick=0, channel=0, data=[57, 37]),
   midi.NoteOnEvent(tick=240, channel=0, data=[57, 0]),
   midi.NoteOnEvent(tick=0, channel=0, data=[62, 37]),
   midi.NoteOnEvent(tick=240, channel=0, data=[62, 0]),
   midi.NoteOnEvent(tick=0, channel=0, data=[55, 40]),
   midi.NoteOnEvent(tick=480, channel=0, data=[55, 0]),
   midi.NoteOnEvent(tick=1440, channel=0, data=[57, 40]),
   midi.NoteOnEvent(tick=240, channel=0, data=[57, 0]),
   midi.NoteOnEvent(tick=0, channel=0, data=[62, 35]),
   midi.NoteOnEvent(tick=240, channel=0, data=[62, 0]),
   midi.NoteOnEvent(tick=0, channel=0, data=[60, 35]),
   midi.NoteOnEvent(tick=240, channel=0, data=[60, 0]),
   midi.NoteOnEvent(tick=0, channel=0, data=[62, 35]),
   midi.NoteOnEvent(tick=240, channel=0, data=[62, 0]),
   midi.NoteOnEvent(tick=0, channel=0, data=[57, 40]),
   midi.NoteOnEvent(tick=240, channel=0, data=[57, 0]),
   midi.NoteOnEvent(tick=0, channel=0, data=[62, 37]),
   midi.NoteOnEvent(tick=240, channel=0, data=[62, 0]),
   midi.NoteOnEvent(tick=0, channel=0, data=[60, 37]),
   midi.NoteOnEvent(tick=240, channel=0, data=[60, 0]),
   midi.NoteOnEvent(tick=0, channel=0, data=[62, 37]),
   midi.NoteOnEvent(tick=240, channel=0, data=[62, 0]),
   midi.NoteOnEvent(tick=0, channel=0, data=[59, 40]),
   midi.NoteOnEvent(tick=480, channel=0, data=[59, 0]),
   midi.NoteOnEvent(tick=1440, channel=0, data=[60, 40]),
   midi.NoteOnEvent(tick=480, channel=0, data=[60, 0]),
   midi.NoteOnEvent(tick=480, channel=0, data=[48, 37]),
   midi.NoteOnEvent(tick=480, channel=0, data=[48, 0]),
   midi.NoteOnEvent(tick=480, channel=0, data=[50, 40]),
   midi.NoteOnEvent(tick=480, channel=0, data=[50, 0]),
   midi.NoteOnEvent(tick=480, channel=0, data=[38, 39]),
   midi.NoteOnEvent(tick=480, channel=0, data=[38, 0]),
   midi.NoteOnEvent(tick=480, channel=0, data=[43, 48]),
   midi.NoteOnEvent(tick=240, channel=0, data=[43, 0]),
   midi.NoteOnEvent(tick=0, channel=0, data=[47, 38]),
   midi.NoteOnEvent(tick=240, channel=0, data=[47, 0]),
   midi.NoteOnEvent(tick=0, channel=0, data=[50, 40]),
   midi.NoteOnEvent(tick=240, channel=0, data=[50, 0]),
   midi.NoteOnEvent(tick=0, channel=0, data=[55, 38]),
   midi.NoteOnEvent(tick=240, channel=0, data=[55, 0]),
   midi.NoteOnEvent(tick=0, channel=0, data=[43, 48]),
   midi.NoteOnEvent(tick=480, channel=0, data=[43, 0]),
   midi.NoteOnEvent(tick=480, channel=0, data=[65, 23]),
   midi.NoteOnEvent(tick=1920, channel=0, data=[65, 0]),
   midi.NoteOnEvent(tick=0, channel=0, data=[63, 23]),
   midi.NoteOnEvent(tick=1920, channel=0, data=[63, 0]),
   midi.NoteOnEvent(tick=0, channel=0, data=[59, 23]),
   midi.NoteOnEvent(tick=960, channel=0, data=[59, 0]),
   midi.NoteOnEvent(tick=0, channel=0, data=[60, 22]),
   midi.NoteOnEvent(tick=960, channel=0, data=[60, 0]),
   midi.NoteOnEvent(tick=0, channel=0, data=[55, 23]),
   midi.NoteOnEvent(tick=960, channel=0, data=[55, 0]),
   midi.NoteOnEvent(tick=960, channel=0, data=[65, 55]),
   midi.NoteOnEvent(tick=480, channel=0, data=[65, 0]),
   midi.NoteOnEvent(tick=0, channel=0, data=[55, 42]),
   midi.NoteOnEvent(tick=480, channel=0, data=[55, 0]),
   midi.NoteOnEvent(tick=0, channel=0, data=[62, 50]),
   midi.NoteOnEvent(tick=480, channel=0, data=[62, 0]),
   midi.NoteOnEvent(tick=0, channel=0, data=[55, 44]),
   midi.NoteOnEvent(tick=480, channel=0, data=[55, 0]),
   midi.NoteOnEvent(tick=0, channel=0, data=[63, 57]),
   midi.NoteOnEvent(tick=480, channel=0, data=[63, 0]),
   midi.NoteOnEvent(tick=0, channel=0, data=[55, 46]),
   midi.NoteOnEvent(tick=480, channel=0, data=[55, 0]),
   midi.NoteOnEvent(tick=0, channel=0, data=[60, 53]),
   midi.NoteOnEvent(tick=480, channel=0, data=[60, 0]),
   midi.NoteOnEvent(tick=0, channel=0, data=[55, 44]),
   midi.NoteOnEvent(tick=480, channel=0, data=[55, 0]),
   midi.NoteOnEvent(tick=0, channel=0, data=[59, 51]),
   midi.NoteOnEvent(tick=480, channel=0, data=[59, 0]),
   midi.NoteOnEvent(tick=480, channel=0, data=[60, 47]),
   midi.NoteOnEvent(tick=480, channel=0, data=[60, 0]),
   midi.NoteOnEvent(tick=480, channel=0, data=[55, 55]),
   midi.NoteOnEvent(tick=480, channel=0, data=[55, 0]),
   midi.NoteOnEvent(tick=0, channel=0, data=[43, 38]),
   midi.NoteOnEvent(tick=480, channel=0, data=[43, 0]),
   midi.NoteOnEvent(tick=0, channel=0, data=[55, 48]),
   midi.NoteOnEvent(tick=240, channel=0, data=[53, 38]),
   midi.NoteOnEvent(tick=24, channel=0, data=[55, 0]),
   midi.NoteOnEvent(tick=216, channel=0, data=[52, 40]),
   midi.NoteOnEvent(tick=24, channel=0, data=[53, 0]),
   midi.NoteOnEvent(tick=216, channel=0, data=[50, 38]),
   midi.NoteOnEvent(tick=24, channel=0, data=[52, 0]),
   midi.NoteOnEvent(tick=216, channel=0, data=[48, 21]),
   midi.NoteOnEvent(tick=24, channel=0, data=[50, 0]),
   midi.NoteOnEvent(tick=456, channel=0, data=[48, 0]),
   midi.NoteOnEvent(tick=1440, channel=0, data=[48, 21]),
   midi.NoteOnEvent(tick=480, channel=0, data=[48, 0]),
   midi.NoteOnEvent(tick=1440, channel=0, data=[48, 21]),
   midi.NoteOnEvent(tick=480, channel=0, data=[48, 0]),
   midi.NoteOnEvent(tick=480, channel=0, data=[48, 17]),
   midi.NoteOnEvent(tick=480, channel=0, data=[48, 0]),
   midi.NoteOnEvent(tick=480, channel=0, data=[43, 21]),
   midi.NoteOnEvent(tick=480, channel=0, data=[43, 0]),
   midi.NoteOnEvent(tick=480, channel=0, data=[43, 24]),
   midi.NoteOnEvent(tick=240, channel=0, data=[41, 19]),
   midi.NoteOnEvent(tick=24, channel=0, data=[43, 0]),
   midi.NoteOnEvent(tick=216, channel=0, data=[40, 21]),
   midi.NoteOnEvent(tick=24, channel=0, data=[41, 0]),
   midi.NoteOnEvent(tick=216, channel=0, data=[38, 19]),
   midi.NoteOnEvent(tick=24, channel=0, data=[40, 0]),
   midi.NoteOnEvent(tick=216, channel=0, data=[36, 25]),
   midi.NoteOnEvent(tick=24, channel=0, data=[38, 0]),
   midi.NoteOnEvent(tick=456, channel=0, data=[36, 0]),
   midi.NoteOnEvent(tick=1440, channel=0, data=[48, 27]),
   midi.NoteOnEvent(tick=480, channel=0, data=[48, 0]),
   midi.NoteOnEvent(tick=1440, channel=0, data=[55, 35]),
   midi.NoteOnEvent(tick=480, channel=0, data=[55, 0]),
   midi.NoteOnEvent(tick=480, channel=0, data=[43, 40]),
   midi.NoteOnEvent(tick=480, channel=0, data=[43, 0]),
   midi.NoteOnEvent(tick=480, channel=0, data=[48, 40]),
   midi.NoteOnEvent(tick=480, channel=0, data=[48, 0]),
   midi.NoteOnEvent(tick=1440, channel=0, data=[47, 40]),
   midi.NoteOnEvent(tick=240, channel=0, data=[47, 0]),
   midi.NoteOnEvent(tick=0, channel=0, data=[55, 35]),
   midi.NoteOnEvent(tick=240, channel=0, data=[55, 0]),
   midi.NoteOnEvent(tick=0, channel=0, data=[50, 35]),
   midi.NoteOnEvent(tick=240, channel=0, data=[50, 0]),
   midi.NoteOnEvent(tick=0, channel=0, data=[55, 35]),
   midi.NoteOnEvent(tick=240, channel=0, data=[55, 0]),
   midi.NoteOnEvent(tick=0, channel=0, data=[47, 40]),
   midi.NoteOnEvent(tick=240, channel=0, data=[47, 0]),
   midi.NoteOnEvent(tick=0, channel=0, data=[55, 37]),
   midi.NoteOnEvent(tick=240, channel=0, data=[55, 0]),
   midi.NoteOnEvent(tick=0, channel=0, data=[50, 37]),
   midi.NoteOnEvent(tick=240, channel=0, data=[50, 0]),
   midi.NoteOnEvent(tick=0, channel=0, data=[55, 37]),
   midi.NoteOnEvent(tick=240, channel=0, data=[55, 0]),
   midi.NoteOnEvent(tick=0, channel=0, data=[48, 40]),
   midi.NoteOnEvent(tick=480, channel=0, data=[48, 0]),
   midi.NoteOnEvent(tick=1440, channel=0, data=[50, 40]),
   midi.NoteOnEvent(tick=240, channel=0, data=[50, 0]),
   midi.NoteOnEvent(tick=0, channel=0, data=[55, 35]),
   midi.NoteOnEvent(tick=240, channel=0, data=[55, 0]),
   midi.NoteOnEvent(tick=0, channel=0, data=[53, 35]),
   midi.NoteOnEvent(tick=240, channel=0, data=[53, 0]),
   midi.NoteOnEvent(tick=0, channel=0, data=[55, 35]),
   midi.NoteOnEvent(tick=240, channel=0, data=[55, 0]),
   midi.NoteOnEvent(tick=0, channel=0, data=[50, 40]),
   midi.NoteOnEvent(tick=240, channel=0, data=[50, 0]),
   midi.NoteOnEvent(tick=0, channel=0, data=[55, 37]),
   midi.NoteOnEvent(tick=240, channel=0, data=[55, 0]),
   midi.NoteOnEvent(tick=0, channel=0, data=[53, 37]),
   midi.NoteOnEvent(tick=240, channel=0, data=[53, 0]),
   midi.NoteOnEvent(tick=0, channel=0, data=[55, 37]),
   midi.NoteOnEvent(tick=240, channel=0, data=[55, 0]),
   midi.NoteOnEvent(tick=0, channel=0, data=[52, 40]),
   midi.NoteOnEvent(tick=480, channel=0, data=[52, 0]),
   midi.NoteOnEvent(tick=1440, channel=0, data=[53, 40]),
   midi.NoteOnEvent(tick=480, channel=0, data=[53, 0]),
   midi.NoteOnEvent(tick=480, channel=0, data=[53, 37]),
   midi.NoteOnEvent(tick=480, channel=0, data=[53, 0]),
   midi.NoteOnEvent(tick=480, channel=0, data=[55, 40]),
   midi.NoteOnEvent(tick=480, channel=0, data=[55, 0]),
   midi.NoteOnEvent(tick=480, channel=0, data=[43, 39]),
   midi.NoteOnEvent(tick=480, channel=0, data=[43, 0]),
   midi.NoteOnEvent(tick=480, channel=0, data=[36, 48]),
   midi.NoteOnEvent(tick=240, channel=0, data=[36, 0]),
   midi.NoteOnEvent(tick=0, channel=0, data=[40, 38]),
   midi.NoteOnEvent(tick=240, channel=0, data=[40, 0]),
   midi.NoteOnEvent(tick=0, channel=0, data=[43, 40]),
   midi.NoteOnEvent(tick=240, channel=0, data=[43, 0]),
   midi.NoteOnEvent(tick=0, channel=0, data=[48, 38]),
   midi.NoteOnEvent(tick=240, channel=0, data=[48, 0]),
   midi.NoteOnEvent(tick=0, channel=0, data=[36, 48]),
   midi.NoteOnEvent(tick=480, channel=0, data=[36, 0]),
   midi.NoteOnEvent(tick=480, channel=0, data=[65, 23]),
   midi.NoteOnEvent(tick=1920, channel=0, data=[65, 0]),
   midi.NoteOnEvent(tick=0, channel=0, data=[63, 23]),
   midi.NoteOnEvent(tick=1920, channel=0, data=[63, 0]),
   midi.NoteOnEvent(tick=0, channel=0, data=[59, 23]),
   midi.NoteOnEvent(tick=960, channel=0, data=[59, 0]),
   midi.NoteOnEvent(tick=0, channel=0, data=[60, 22]),
   midi.NoteOnEvent(tick=960, channel=0, data=[60, 0]),
   midi.NoteOnEvent(tick=0, channel=0, data=[55, 23]),
   midi.NoteOnEvent(tick=960, channel=0, data=[55, 0]),
   midi.NoteOnEvent(tick=960, channel=0, data=[65, 55]),
   midi.NoteOnEvent(tick=480, channel=0, data=[65, 0]),
   midi.NoteOnEvent(tick=0, channel=0, data=[55, 42]),
   midi.NoteOnEvent(tick=480, channel=0, data=[55, 0]),
   midi.NoteOnEvent(tick=0, channel=0, data=[62, 50]),
   midi.NoteOnEvent(tick=480, channel=0, data=[62, 0]),
   midi.NoteOnEvent(tick=0, channel=0, data=[55, 44]),
   midi.NoteOnEvent(tick=480, channel=0, data=[55, 0]),
   midi.NoteOnEvent(tick=0, channel=0, data=[63, 57]),
   midi.NoteOnEvent(tick=480, channel=0, data=[63, 0]),
   midi.NoteOnEvent(tick=0, channel=0, data=[55, 46]),
   midi.NoteOnEvent(tick=480, channel=0, data=[55, 0]),
   midi.NoteOnEvent(tick=0, channel=0, data=[60, 53]),
   midi.NoteOnEvent(tick=480, channel=0, data=[60, 0]),
   midi.NoteOnEvent(tick=0, channel=0, data=[55, 44]),
   midi.NoteOnEvent(tick=480, channel=0, data=[55, 0]),
   midi.NoteOnEvent(tick=0, channel=0, data=[59, 51]),
   midi.NoteOnEvent(tick=480, channel=0, data=[59, 0]),
   midi.NoteOnEvent(tick=480, channel=0, data=[60, 47]),
   midi.NoteOnEvent(tick=480, channel=0, data=[60, 0]),
   midi.NoteOnEvent(tick=480, channel=0, data=[55, 55]),
   midi.NoteOnEvent(tick=480, channel=0, data=[55, 0]),
   midi.NoteOnEvent(tick=0, channel=0, data=[43, 38]),
   midi.NoteOnEvent(tick=480, channel=0, data=[43, 0]),
   midi.NoteOnEvent(tick=0, channel=0, data=[55, 48]),
   midi.NoteOnEvent(tick=240, channel=0, data=[53, 38]),
   midi.NoteOnEvent(tick=24, channel=0, data=[55, 0]),
   midi.NoteOnEvent(tick=216, channel=0, data=[52, 40]),
   midi.NoteOnEvent(tick=24, channel=0, data=[53, 0]),
   midi.NoteOnEvent(tick=216, channel=0, data=[50, 38]),
   midi.NoteOnEvent(tick=24, channel=0, data=[52, 0]),
   midi.NoteOnEvent(tick=216, channel=0, data=[48, 21]),
   midi.NoteOnEvent(tick=24, channel=0, data=[50, 0]),
   midi.NoteOnEvent(tick=456, channel=0, data=[48, 0]),
   midi.NoteOnEvent(tick=1440, channel=0, data=[48, 21]),
   midi.NoteOnEvent(tick=480, channel=0, data=[48, 0]),
   midi.NoteOnEvent(tick=1440, channel=0, data=[48, 21]),
   midi.NoteOnEvent(tick=480, channel=0, data=[48, 0]),
   midi.NoteOnEvent(tick=480, channel=0, data=[48, 17]),
   midi.NoteOnEvent(tick=480, channel=0, data=[48, 0]),
   midi.NoteOnEvent(tick=480, channel=0, data=[43, 21]),
   midi.NoteOnEvent(tick=480, channel=0, data=[43, 0]),
   midi.NoteOnEvent(tick=480, channel=0, data=[43, 24]),
   midi.NoteOnEvent(tick=240, channel=0, data=[41, 19]),
   midi.NoteOnEvent(tick=24, channel=0, data=[43, 0]),
   midi.NoteOnEvent(tick=216, channel=0, data=[40, 21]),
   midi.NoteOnEvent(tick=24, channel=0, data=[41, 0]),
   midi.NoteOnEvent(tick=216, channel=0, data=[38, 19]),
   midi.NoteOnEvent(tick=24, channel=0, data=[40, 0]),
   midi.NoteOnEvent(tick=216, channel=0, data=[36, 25]),
   midi.NoteOnEvent(tick=24, channel=0, data=[38, 0]),
   midi.NoteOnEvent(tick=456, channel=0, data=[36, 0]),
   midi.NoteOnEvent(tick=1440, channel=0, data=[48, 27]),
   midi.NoteOnEvent(tick=480, channel=0, data=[48, 0]),
   midi.NoteOnEvent(tick=1440, channel=0, data=[55, 35]),
   midi.NoteOnEvent(tick=480, channel=0, data=[55, 0]),
   midi.NoteOnEvent(tick=480, channel=0, data=[43, 40]),
   midi.NoteOnEvent(tick=480, channel=0, data=[43, 0]),
   midi.NoteOnEvent(tick=480, channel=0, data=[48, 40]),
   midi.NoteOnEvent(tick=480, channel=0, data=[48, 0]),
   midi.NoteOnEvent(tick=1440, channel=0, data=[47, 40]),
   midi.NoteOnEvent(tick=240, channel=0, data=[47, 0]),
   midi.NoteOnEvent(tick=0, channel=0, data=[55, 35]),
   midi.NoteOnEvent(tick=240, channel=0, data=[55, 0]),
   midi.NoteOnEvent(tick=0, channel=0, data=[50, 35]),
   midi.NoteOnEvent(tick=240, channel=0, data=[50, 0]),
   midi.NoteOnEvent(tick=0, channel=0, data=[55, 35]),
   midi.NoteOnEvent(tick=240, channel=0, data=[55, 0]),
   midi.NoteOnEvent(tick=0, channel=0, data=[47, 40]),
   midi.NoteOnEvent(tick=240, channel=0, data=[47, 0]),
   midi.NoteOnEvent(tick=0, channel=0, data=[55, 37]),
   midi.NoteOnEvent(tick=240, channel=0, data=[55, 0]),
   midi.NoteOnEvent(tick=0, channel=0, data=[50, 37]),
   midi.NoteOnEvent(tick=240, channel=0, data=[50, 0]),
   midi.NoteOnEvent(tick=0, channel=0, data=[55, 37]),
   midi.NoteOnEvent(tick=240, channel=0, data=[55, 0]),
   midi.NoteOnEvent(tick=0, channel=0, data=[48, 40]),
   midi.NoteOnEvent(tick=480, channel=0, data=[48, 0]),
   midi.NoteOnEvent(tick=1440, channel=0, data=[50, 40]),
   midi.NoteOnEvent(tick=240, channel=0, data=[50, 0]),
   midi.NoteOnEvent(tick=0, channel=0, data=[55, 35]),
   midi.NoteOnEvent(tick=240, channel=0, data=[55, 0]),
   midi.NoteOnEvent(tick=0, channel=0, data=[53, 35]),
   midi.NoteOnEvent(tick=240, channel=0, data=[53, 0]),
   midi.NoteOnEvent(tick=0, channel=0, data=[55, 35]),
   midi.NoteOnEvent(tick=240, channel=0, data=[55, 0]),
   midi.NoteOnEvent(tick=0, channel=0, data=[50, 40]),
   midi.NoteOnEvent(tick=240, channel=0, data=[50, 0]),
   midi.NoteOnEvent(tick=0, channel=0, data=[55, 37]),
   midi.NoteOnEvent(tick=240, channel=0, data=[55, 0]),
   midi.NoteOnEvent(tick=0, channel=0, data=[53, 37]),
   midi.NoteOnEvent(tick=240, channel=0, data=[53, 0]),
   midi.NoteOnEvent(tick=0, channel=0, data=[55, 37]),
   midi.NoteOnEvent(tick=240, channel=0, data=[55, 0]),
   midi.NoteOnEvent(tick=0, channel=0, data=[52, 40]),
   midi.NoteOnEvent(tick=480, channel=0, data=[52, 0]),
   midi.NoteOnEvent(tick=1440, channel=0, data=[53, 40]),
   midi.NoteOnEvent(tick=480, channel=0, data=[53, 0]),
   midi.NoteOnEvent(tick=480, channel=0, data=[53, 37]),
   midi.NoteOnEvent(tick=480, channel=0, data=[53, 0]),
   midi.NoteOnEvent(tick=480, channel=0, data=[55, 40]),
   midi.NoteOnEvent(tick=480, channel=0, data=[55, 0]),
   midi.NoteOnEvent(tick=480, channel=0, data=[43, 39]),
   midi.NoteOnEvent(tick=480, channel=0, data=[43, 0]),
   midi.NoteOnEvent(tick=480, channel=0, data=[36, 48]),
   midi.NoteOnEvent(tick=240, channel=0, data=[36, 0]),
   midi.NoteOnEvent(tick=0, channel=0, data=[40, 38]),
   midi.NoteOnEvent(tick=240, channel=0, data=[40, 0]),
   midi.NoteOnEvent(tick=0, channel=0, data=[43, 40]),
   midi.NoteOnEvent(tick=240, channel=0, data=[43, 0]),
   midi.NoteOnEvent(tick=0, channel=0, data=[48, 38]),
   midi.NoteOnEvent(tick=240, channel=0, data=[48, 0]),
   midi.NoteOnEvent(tick=0, channel=0, data=[36, 48]),
   midi.NoteOnEvent(tick=480, channel=0, data=[36, 0]),
   midi.ControlChangeEvent(tick=18, channel=0, data=[64, 127]),
   midi.ControlChangeEvent(tick=960, channel=0, data=[64, 0]),
   midi.ControlChangeEvent(tick=1002, channel=0, data=[64, 127]),
   midi.ControlChangeEvent(tick=920, channel=0, data=[64, 0]),
   midi.ControlChangeEvent(tick=4964, channel=0, data=[64, 127]),
   midi.ControlChangeEvent(tick=792, channel=0, data=[64, 0]),
   midi.ControlChangeEvent(tick=944, channel=0, data=[64, 127]),
   midi.ControlChangeEvent(tick=965, channel=0, data=[64, 0]),
   midi.ControlChangeEvent(tick=602, channel=0, data=[64, 127]),
   midi.ControlChangeEvent(tick=359, channel=0, data=[64, 0]),
   midi.ControlChangeEvent(tick=143, channel=0, data=[64, 127]),
   midi.ControlChangeEvent(tick=347, channel=0, data=[64, 0]),
   midi.ControlChangeEvent(tick=110, channel=0, data=[64, 127]),
   midi.ControlChangeEvent(tick=369, channel=0, data=[64, 0]),
   midi.ControlChangeEvent(tick=134, channel=0, data=[64, 127]),
   midi.ControlChangeEvent(tick=348, channel=0, data=[64, 0]),
   midi.ControlChangeEvent(tick=132, channel=0, data=[64, 127]),
   midi.ControlChangeEvent(tick=335, channel=0, data=[64, 0]),
   midi.ControlChangeEvent(tick=2076, channel=0, data=[64, 127]),
   midi.ControlChangeEvent(tick=1760, channel=0, data=[64, 0]),
   midi.ControlChangeEvent(tick=2033, channel=0, data=[64, 127]),
   midi.ControlChangeEvent(tick=1807, channel=0, data=[64, 0]),
   midi.ControlChangeEvent(tick=184, channel=0, data=[64, 127]),
   midi.ControlChangeEvent(tick=793, channel=0, data=[64, 0]),
   midi.ControlChangeEvent(tick=4896, channel=0, data=[64, 127]),
   midi.ControlChangeEvent(tick=1341, channel=0, data=[64, 0]),
   midi.ControlChangeEvent(tick=484, channel=0, data=[64, 127]),
   midi.ControlChangeEvent(tick=960, channel=0, data=[64, 0]),
   midi.ControlChangeEvent(tick=1002, channel=0, data=[64, 127]),
   midi.ControlChangeEvent(tick=920, channel=0, data=[64, 0]),
   midi.ControlChangeEvent(tick=4964, channel=0, data=[64, 127]),
   midi.ControlChangeEvent(tick=792, channel=0, data=[64, 0]),
   midi.ControlChangeEvent(tick=944, channel=0, data=[64, 127]),
   midi.ControlChangeEvent(tick=965, channel=0, data=[64, 0]),
   midi.ControlChangeEvent(tick=602, channel=0, data=[64, 127]),
   midi.ControlChangeEvent(tick=359, channel=0, data=[64, 0]),
   midi.ControlChangeEvent(tick=143, channel=0, data=[64, 127]),
   midi.ControlChangeEvent(tick=347, channel=0, data=[64, 0]),
   midi.ControlChangeEvent(tick=110, channel=0, data=[64, 127]),
   midi.ControlChangeEvent(tick=369, channel=0, data=[64, 0]),
   midi.ControlChangeEvent(tick=134, channel=0, data=[64, 127]),
   midi.ControlChangeEvent(tick=348, channel=0, data=[64, 0]),
   midi.ControlChangeEvent(tick=132, channel=0, data=[64, 127]),
   midi.ControlChangeEvent(tick=335, channel=0, data=[64, 0]),
   midi.ControlChangeEvent(tick=2076, channel=0, data=[64, 127]),
   midi.ControlChangeEvent(tick=1760, channel=0, data=[64, 0]),
   midi.ControlChangeEvent(tick=2033, channel=0, data=[64, 127]),
   midi.ControlChangeEvent(tick=1807, channel=0, data=[64, 0]),
   midi.ControlChangeEvent(tick=184, channel=0, data=[64, 127]),
   midi.ControlChangeEvent(tick=793, channel=0, data=[64, 0]),
   midi.ControlChangeEvent(tick=4896, channel=0, data=[64, 127]),
   midi.ControlChangeEvent(tick=1341, channel=0, data=[64, 0]),
   midi.ControlChangeEvent(tick=650, channel=0, data=[64, 127]),
   midi.ControlChangeEvent(tick=792, channel=0, data=[64, 0]),
   midi.ControlChangeEvent(tick=1128, channel=0, data=[64, 127]),
   midi.ControlChangeEvent(tick=792, channel=0, data=[64, 0]),
   midi.ControlChangeEvent(tick=1081, channel=0, data=[64, 127]),
   midi.ControlChangeEvent(tick=839, channel=0, data=[64, 0]),
   midi.ControlChangeEvent(tick=304, channel=0, data=[64, 127]),
   midi.ControlChangeEvent(tick=640, channel=0, data=[64, 0]),
   midi.ControlChangeEvent(tick=586, channel=0, data=[64, 127]),
   midi.ControlChangeEvent(tick=385, channel=0, data=[64, 0]),
   midi.ControlChangeEvent(tick=1076, channel=0, data=[64, 127]),
   midi.ControlChangeEvent(tick=1811, channel=0, data=[64, 0]),
   midi.ControlChangeEvent(tick=208, channel=0, data=[64, 127]),
   midi.ControlChangeEvent(tick=1707, channel=0, data=[64, 0]),
   midi.ControlChangeEvent(tick=4007, channel=0, data=[64, 127]),
   midi.ControlChangeEvent(tick=798, channel=0, data=[64, 0]),
   midi.ControlChangeEvent(tick=1002, channel=0, data=[64, 127]),
   midi.ControlChangeEvent(tick=920, channel=0, data=[64, 0]),
   midi.ControlChangeEvent(tick=4918, channel=0, data=[64, 127]),
   midi.ControlChangeEvent(tick=840, channel=0, data=[64, 0]),
   midi.ControlChangeEvent(tick=1140, channel=0, data=[64, 127]),
   midi.ControlChangeEvent(tick=780, channel=0, data=[64, 0]),
   midi.ControlChangeEvent(tick=2866, channel=0, data=[64, 0]),
   midi.ControlChangeEvent(tick=2076, channel=0, data=[64, 127]),
   midi.ControlChangeEvent(tick=1760, channel=0, data=[64, 0]),
   midi.ControlChangeEvent(tick=2033, channel=0, data=[64, 127]),
   midi.ControlChangeEvent(tick=1807, channel=0, data=[64, 0]),
   midi.ControlChangeEvent(tick=184, channel=0, data=[64, 127]),
   midi.ControlChangeEvent(tick=793, channel=0, data=[64, 0]),
   midi.ControlChangeEvent(tick=4896, channel=0, data=[64, 127]),
   midi.ControlChangeEvent(tick=1341, channel=0, data=[64, 0]),
   midi.ControlChangeEvent(tick=650, channel=0, data=[64, 127]),
   midi.ControlChangeEvent(tick=792, channel=0, data=[64, 0]),
   midi.ControlChangeEvent(tick=1128, channel=0, data=[64, 127]),
   midi.ControlChangeEvent(tick=792, channel=0, data=[64, 0]),
   midi.ControlChangeEvent(tick=1081, channel=0, data=[64, 127]),
   midi.ControlChangeEvent(tick=839, channel=0, data=[64, 0]),
   midi.ControlChangeEvent(tick=304, channel=0, data=[64, 127]),
   midi.ControlChangeEvent(tick=640, channel=0, data=[64, 0]),
   midi.ControlChangeEvent(tick=586, channel=0, data=[64, 127]),
   midi.ControlChangeEvent(tick=385, channel=0, data=[64, 0]),
   midi.ControlChangeEvent(tick=1076, channel=0, data=[64, 127]),
   midi.ControlChangeEvent(tick=1811, channel=0, data=[64, 0]),
   midi.ControlChangeEvent(tick=208, channel=0, data=[64, 127]),
   midi.ControlChangeEvent(tick=1707, channel=0, data=[64, 0]),
   midi.ControlChangeEvent(tick=4007, channel=0, data=[64, 127]),
   midi.ControlChangeEvent(tick=798, channel=0, data=[64, 0]),
   midi.ControlChangeEvent(tick=1002, channel=0, data=[64, 127]),
   midi.ControlChangeEvent(tick=920, channel=0, data=[64, 0]),
   midi.ControlChangeEvent(tick=4918, channel=0, data=[64, 127]),
   midi.ControlChangeEvent(tick=840, channel=0, data=[64, 0]),
   midi.ControlChangeEvent(tick=1140, channel=0, data=[64, 127]),
   midi.ControlChangeEvent(tick=780, channel=0, data=[64, 0]),
   midi.ControlChangeEvent(tick=2866, channel=0, data=[64, 0]),
   midi.ControlChangeEvent(tick=2076, channel=0, data=[64, 127]),
   midi.ControlChangeEvent(tick=1760, channel=0, data=[64, 0]),
   midi.ControlChangeEvent(tick=2033, channel=0, data=[64, 127]),
   midi.ControlChangeEvent(tick=1807, channel=0, data=[64, 0]),
   midi.ControlChangeEvent(tick=184, channel=0, data=[64, 127]),
   midi.ControlChangeEvent(tick=793, channel=0, data=[64, 0]),
   midi.ControlChangeEvent(tick=4896, channel=0, data=[64, 127]),
   midi.ControlChangeEvent(tick=1341, channel=0, data=[64, 0]),
   midi.EndOfTrackEvent(tick=0, data=[])])])
midi.write_midifile("creationMidi.mid", pattern)