import midi
pattern=midi.Pattern(format=1, resolution=480, tracks=\
[midi.Track(\
[   midi.NoteOnEvent(tick=0, channel=0, data=[57, 34]),
   midi.NoteOnEvent(tick=0, channel=0, data=[69, 42]),
   midi.NoteOnEvent(tick=360, channel=0, data=[69, 0]),
   midi.NoteOnEvent(tick=0, channel=0, data=[67, 31]),
   midi.NoteOnEvent(tick=120, channel=0, data=[67, 0]),
   midi.NoteOnEvent(tick=0, channel=0, data=[65, 31]),
   midi.NoteOnEvent(tick=120, channel=0, data=[65, 0]),
   midi.NoteOnEvent(tick=0, channel=0, data=[67, 31]),
   midi.NoteOnEvent(tick=120, channel=0, data=[67, 0]),
   midi.NoteOnEvent(tick=0, channel=0, data=[57, 0]),
   midi.NoteOnEvent(tick=0, channel=0, data=[58, 30]),
   midi.NoteOnEvent(tick=0, channel=0, data=[69, 36]),
   midi.NoteOnEvent(tick=480, channel=0, data=[69, 0]),
   midi.NoteOnEvent(tick=0, channel=0, data=[65, 36]),
   midi.NoteOnEvent(tick=240, channel=0, data=[65, 0]),
   midi.NoteOnEvent(tick=0, channel=0, data=[58, 0]),
   midi.NoteOnEvent(tick=0, channel=0, data=[60, 34]),
   midi.NoteOnEvent(tick=0, channel=0, data=[69, 42]),
   midi.NoteOnEvent(tick=360, channel=0, data=[69, 0]),
   midi.NoteOnEvent(tick=0, channel=0, data=[67, 32]),
   midi.NoteOnEvent(tick=120, channel=0, data=[67, 0]),
   midi.NoteOnEvent(tick=0, channel=0, data=[65, 32]),
   midi.NoteOnEvent(tick=120, channel=0, data=[65, 0]),
   midi.NoteOnEvent(tick=0, channel=0, data=[67, 32]),
   midi.NoteOnEvent(tick=120, channel=0, data=[67, 0]),
   midi.NoteOnEvent(tick=0, channel=0, data=[60, 0]),
   midi.NoteOnEvent(tick=0, channel=0, data=[58, 30]),
   midi.NoteOnEvent(tick=0, channel=0, data=[69, 36]),
   midi.NoteOnEvent(tick=660, channel=0, data=[69, 0]),
   midi.NoteOnEvent(tick=0, channel=0, data=[58, 0]),
   midi.NoteOnEvent(tick=60, channel=0, data=[65, 36]),
   midi.NoteOnEvent(tick=0, channel=0, data=[72, 45]),
   midi.NoteOnEvent(tick=360, channel=0, data=[72, 0]),
   midi.NoteOnEvent(tick=0, channel=0, data=[74, 38]),
   midi.NoteOnEvent(tick=120, channel=0, data=[74, 0]),
   midi.NoteOnEvent(tick=0, channel=0, data=[76, 42]),
   midi.NoteOnEvent(tick=120, channel=0, data=[76, 0]),
   midi.NoteOnEvent(tick=0, channel=0, data=[74, 38]),
   midi.NoteOnEvent(tick=120, channel=0, data=[74, 0]),
   midi.NoteOnEvent(tick=0, channel=0, data=[65, 0]),
   midi.NoteOnEvent(tick=0, channel=0, data=[72, 47]),
   midi.NoteOnEvent(tick=0, channel=0, data=[65, 38]),
   midi.NoteOnEvent(tick=480, channel=0, data=[65, 0]),
   midi.NoteOnEvent(tick=0, channel=0, data=[72, 0]),
   midi.NoteOnEvent(tick=0, channel=0, data=[64, 42]),
   midi.NoteOnEvent(tick=0, channel=0, data=[68, 42]),
   midi.NoteOnEvent(tick=240, channel=0, data=[68, 0]),
   midi.NoteOnEvent(tick=0, channel=0, data=[64, 0]),
   midi.NoteOnEvent(tick=0, channel=0, data=[72, 48]),
   midi.NoteOnEvent(tick=0, channel=0, data=[65, 40]),
   midi.NoteOnEvent(tick=720, channel=0, data=[72, 0]),
   midi.NoteOnEvent(tick=0, channel=0, data=[77, 52]),
   midi.NoteOnEvent(tick=480, channel=0, data=[77, 0]),
   midi.NoteOnEvent(tick=0, channel=0, data=[65, 0]),
   midi.NoteOnEvent(tick=240, channel=0, data=[60, 40]),
   midi.NoteOnEvent(tick=0, channel=0, data=[72, 50]),
   midi.NoteOnEvent(tick=360, channel=0, data=[72, 0]),
   midi.NoteOnEvent(tick=0, channel=0, data=[71, 37]),
   midi.NoteOnEvent(tick=120, channel=0, data=[71, 0]),
   midi.NoteOnEvent(tick=0, channel=0, data=[69, 37]),
   midi.NoteOnEvent(tick=120, channel=0, data=[69, 0]),
   midi.NoteOnEvent(tick=0, channel=0, data=[71, 37]),
   midi.NoteOnEvent(tick=120, channel=0, data=[71, 0]),
   midi.NoteOnEvent(tick=0, channel=0, data=[60, 0]),
   midi.NoteOnEvent(tick=0, channel=0, data=[62, 36]),
   midi.NoteOnEvent(tick=0, channel=0, data=[72, 43]),
   midi.NoteOnEvent(tick=480, channel=0, data=[72, 0]),
   midi.NoteOnEvent(tick=0, channel=0, data=[69, 43]),
   midi.NoteOnEvent(tick=240, channel=0, data=[69, 0]),
   midi.NoteOnEvent(tick=0, channel=0, data=[62, 0]),
   midi.NoteOnEvent(tick=0, channel=0, data=[64, 40]),
   midi.NoteOnEvent(tick=0, channel=0, data=[72, 50]),
   midi.NoteOnEvent(tick=360, channel=0, data=[72, 0]),
   midi.NoteOnEvent(tick=0, channel=0, data=[71, 38]),
   midi.NoteOnEvent(tick=120, channel=0, data=[71, 0]),
   midi.NoteOnEvent(tick=0, channel=0, data=[69, 38]),
   midi.NoteOnEvent(tick=120, channel=0, data=[69, 0]),
   midi.NoteOnEvent(tick=0, channel=0, data=[71, 38]),
   midi.NoteOnEvent(tick=120, channel=0, data=[71, 0]),
   midi.NoteOnEvent(tick=0, channel=0, data=[64, 0]),
   midi.NoteOnEvent(tick=0, channel=0, data=[62, 36]),
   midi.NoteOnEvent(tick=0, channel=0, data=[72, 43]),
   midi.NoteOnEvent(tick=660, channel=0, data=[72, 0]),
   midi.NoteOnEvent(tick=0, channel=0, data=[62, 0]),
   midi.NoteOnEvent(tick=60, channel=0, data=[69, 40]),
   midi.NoteOnEvent(tick=0, channel=0, data=[76, 50]),
   midi.NoteOnEvent(tick=360, channel=0, data=[76, 0]),
   midi.NoteOnEvent(tick=0, channel=0, data=[77, 42]),
   midi.NoteOnEvent(tick=120, channel=0, data=[77, 0]),
   midi.NoteOnEvent(tick=0, channel=0, data=[79, 46]),
   midi.NoteOnEvent(tick=120, channel=0, data=[79, 0]),
   midi.NoteOnEvent(tick=0, channel=0, data=[77, 42]),
   midi.NoteOnEvent(tick=120, channel=0, data=[77, 0]),
   midi.NoteOnEvent(tick=0, channel=0, data=[69, 0]),
   midi.NoteOnEvent(tick=0, channel=0, data=[76, 51]),
   midi.NoteOnEvent(tick=0, channel=0, data=[69, 41]),
   midi.NoteOnEvent(tick=480, channel=0, data=[69, 0]),
   midi.NoteOnEvent(tick=0, channel=0, data=[76, 0]),
   midi.NoteOnEvent(tick=0, channel=0, data=[68, 45]),
   midi.NoteOnEvent(tick=0, channel=0, data=[72, 45]),
   midi.NoteOnEvent(tick=240, channel=0, data=[72, 0]),
   midi.NoteOnEvent(tick=0, channel=0, data=[68, 0]),
   midi.NoteOnEvent(tick=0, channel=0, data=[76, 51]),
   midi.NoteOnEvent(tick=0, channel=0, data=[69, 42]),
   midi.NoteOnEvent(tick=720, channel=0, data=[76, 0]),
   midi.NoteOnEvent(tick=0, channel=0, data=[81, 53]),
   midi.NoteOnEvent(tick=240, channel=0, data=[69, 0]),
   midi.NoteOnEvent(tick=0, channel=0, data=[68, 57]),
   midi.NoteOnEvent(tick=240, channel=0, data=[68, 0]),
   midi.NoteOnEvent(tick=0, channel=0, data=[67, 61]),
   midi.NoteOnEvent(tick=240, channel=0, data=[67, 0]),
   midi.NoteOnEvent(tick=0, channel=0, data=[66, 70]),
   midi.NoteOnEvent(tick=480, channel=0, data=[81, 0]),
   midi.NoteOnEvent(tick=0, channel=0, data=[78, 53]),
   midi.NoteOnEvent(tick=240, channel=0, data=[78, 0]),
   midi.NoteOnEvent(tick=0, channel=0, data=[74, 53]),
   midi.NoteOnEvent(tick=240, channel=0, data=[74, 0]),
   midi.NoteOnEvent(tick=0, channel=0, data=[75, 53]),
   midi.NoteOnEvent(tick=240, channel=0, data=[75, 0]),
   midi.NoteOnEvent(tick=0, channel=0, data=[76, 53]),
   midi.NoteOnEvent(tick=240, channel=0, data=[76, 0]),
   midi.NoteOnEvent(tick=0, channel=0, data=[66, 0]),
   midi.NoteOnEvent(tick=0, channel=0, data=[65, 42]),
   midi.NoteOnEvent(tick=0, channel=0, data=[77, 53]),
   midi.NoteOnEvent(tick=480, channel=0, data=[77, 0]),
   midi.NoteOnEvent(tick=0, channel=0, data=[74, 49]),
   midi.NoteOnEvent(tick=240, channel=0, data=[74, 0]),
   midi.NoteOnEvent(tick=0, channel=0, data=[71, 41]),
   midi.NoteOnEvent(tick=480, channel=0, data=[71, 0]),
   midi.NoteOnEvent(tick=0, channel=0, data=[65, 0]),
   midi.NoteOnEvent(tick=240, channel=0, data=[66, 64]),
   midi.NoteOnEvent(tick=240, channel=0, data=[81, 53]),
   midi.NoteOnEvent(tick=240, channel=0, data=[81, 0]),
   midi.NoteOnEvent(tick=0, channel=0, data=[78, 47]),
   midi.NoteOnEvent(tick=240, channel=0, data=[78, 0]),
   midi.NoteOnEvent(tick=0, channel=0, data=[74, 49]),
   midi.NoteOnEvent(tick=240, channel=0, data=[74, 0]),
   midi.NoteOnEvent(tick=0, channel=0, data=[75, 53]),
   midi.NoteOnEvent(tick=240, channel=0, data=[75, 0]),
   midi.NoteOnEvent(tick=0, channel=0, data=[76, 54]),
   midi.NoteOnEvent(tick=240, channel=0, data=[66, 0]),
   midi.NoteOnEvent(tick=0, channel=0, data=[65, 42]),
   midi.NoteOnEvent(tick=240, channel=0, data=[76, 0]),
   midi.NoteOnEvent(tick=0, channel=0, data=[77, 62]),
   midi.NoteOnEvent(tick=240, channel=0, data=[77, 0]),
   midi.NoteOnEvent(tick=0, channel=0, data=[74, 53]),
   midi.NoteOnEvent(tick=240, channel=0, data=[74, 0]),
   midi.NoteOnEvent(tick=0, channel=0, data=[69, 56]),
   midi.NoteOnEvent(tick=240, channel=0, data=[69, 0]),
   midi.NoteOnEvent(tick=0, channel=0, data=[70, 58]),
   midi.NoteOnEvent(tick=240, channel=0, data=[70, 0]),
   midi.NoteOnEvent(tick=0, channel=0, data=[71, 63]),
   midi.NoteOnEvent(tick=150, channel=0, data=[65, 0]),
   midi.NoteOnEvent(tick=330, channel=0, data=[71, 0]),
   midi.NoteOnEvent(tick=0, channel=0, data=[72, 58]),
   midi.NoteOnEvent(tick=240, channel=0, data=[72, 0]),
   midi.NoteOnEvent(tick=0, channel=0, data=[69, 53]),
   midi.NoteOnEvent(tick=240, channel=0, data=[69, 0]),
   midi.NoteOnEvent(tick=0, channel=0, data=[61, 47]),
   midi.NoteOnEvent(tick=240, channel=0, data=[61, 0]),
   midi.NoteOnEvent(tick=0, channel=0, data=[62, 43]),
   midi.NoteOnEvent(tick=240, channel=0, data=[62, 0]),
   midi.NoteOnEvent(tick=0, channel=0, data=[64, 44]),
   midi.NoteOnEvent(tick=240, channel=0, data=[64, 0]),
   midi.NoteOnEvent(tick=0, channel=0, data=[65, 46]),
   midi.NoteOnEvent(tick=240, channel=0, data=[65, 0]),
   midi.NoteOnEvent(tick=0, channel=0, data=[68, 42]),
   midi.NoteOnEvent(tick=240, channel=0, data=[68, 0]),
   midi.NoteOnEvent(tick=0, channel=0, data=[69, 39]),
   midi.NoteOnEvent(tick=240, channel=0, data=[69, 0]),
   midi.NoteOnEvent(tick=0, channel=0, data=[73, 31]),
   midi.NoteOnEvent(tick=240, channel=0, data=[73, 0]),
   midi.NoteOnEvent(tick=0, channel=0, data=[65, 25]),
   midi.NoteOnEvent(tick=0, channel=0, data=[69, 25]),
   midi.NoteOnEvent(tick=0, channel=0, data=[74, 32]),
   midi.NoteOnEvent(tick=60, channel=0, data=[74, 0]),
   midi.NoteOnEvent(tick=0, channel=0, data=[69, 0]),
   midi.NoteOnEvent(tick=0, channel=0, data=[65, 0]),
   midi.NoteOnEvent(tick=180, channel=0, data=[69, 26]),
   midi.NoteOnEvent(tick=0, channel=0, data=[74, 26]),
   midi.NoteOnEvent(tick=0, channel=0, data=[77, 33]),
   midi.NoteOnEvent(tick=60, channel=0, data=[77, 0]),
   midi.NoteOnEvent(tick=0, channel=0, data=[74, 0]),
   midi.NoteOnEvent(tick=0, channel=0, data=[69, 0]),
   midi.NoteOnEvent(tick=180, channel=0, data=[81, 40]),
   midi.NoteOnEvent(tick=0, channel=0, data=[77, 32]),
   midi.NoteOnEvent(tick=0, channel=0, data=[74, 32]),
   midi.NoteOnEvent(tick=60, channel=0, data=[74, 0]),
   midi.NoteOnEvent(tick=0, channel=0, data=[77, 0]),
   midi.NoteOnEvent(tick=0, channel=0, data=[81, 0]),
   midi.NoteOnEvent(tick=1380, channel=0, data=[64, 40]),
   midi.NoteOnEvent(tick=1440, channel=0, data=[64, 0]),
   midi.NoteOnEvent(tick=0, channel=0, data=[60, 40]),
   midi.NoteOnEvent(tick=360, channel=0, data=[60, 0]),
   midi.NoteOnEvent(tick=0, channel=0, data=[59, 30]),
   midi.NoteOnEvent(tick=120, channel=0, data=[59, 0]),
   midi.NoteOnEvent(tick=0, channel=0, data=[60, 30]),
   midi.NoteOnEvent(tick=120, channel=0, data=[60, 0]),
   midi.NoteOnEvent(tick=0, channel=0, data=[62, 30]),
   midi.NoteOnEvent(tick=120, channel=0, data=[62, 0]),
   midi.NoteOnEvent(tick=0, channel=0, data=[64, 34]),
   midi.NoteOnEvent(tick=720, channel=0, data=[64, 0]),
   midi.NoteOnEvent(tick=0, channel=0, data=[60, 40]),
   midi.NoteOnEvent(tick=360, channel=0, data=[60, 0]),
   midi.NoteOnEvent(tick=0, channel=0, data=[59, 30]),
   midi.NoteOnEvent(tick=120, channel=0, data=[59, 0]),
   midi.NoteOnEvent(tick=0, channel=0, data=[60, 30]),
   midi.NoteOnEvent(tick=120, channel=0, data=[60, 0]),
   midi.NoteOnEvent(tick=0, channel=0, data=[62, 30]),
   midi.NoteOnEvent(tick=120, channel=0, data=[62, 0]),
   midi.NoteOnEvent(tick=0, channel=0, data=[64, 34]),
   midi.NoteOnEvent(tick=720, channel=0, data=[64, 0]),
   midi.NoteOnEvent(tick=0, channel=0, data=[60, 29]),
   midi.NoteOnEvent(tick=0, channel=0, data=[52, 24]),
   midi.NoteOnEvent(tick=240, channel=0, data=[52, 0]),
   midi.NoteOnEvent(tick=0, channel=0, data=[60, 0]),
   midi.NoteOnEvent(tick=477, channel=0, data=[64, 22]),
   midi.NoteOnEvent(tick=3, channel=0, data=[72, 27]),
   midi.NoteOnEvent(tick=240, channel=0, data=[72, 0]),
   midi.NoteOnEvent(tick=2, channel=0, data=[64, 0]),
   midi.NoteOnEvent(tick=478, channel=0, data=[84, 28]),
   midi.NoteOnEvent(tick=0, channel=0, data=[76, 23]),
   midi.NoteOnEvent(tick=1200, channel=0, data=[76, 0]),
   midi.NoteOnEvent(tick=0, channel=0, data=[84, 0]),
   midi.NoteOnEvent(tick=240, channel=0, data=[57, 34]),
   midi.NoteOnEvent(tick=0, channel=0, data=[69, 42]),
   midi.NoteOnEvent(tick=360, channel=0, data=[69, 0]),
   midi.NoteOnEvent(tick=0, channel=0, data=[67, 31]),
   midi.NoteOnEvent(tick=120, channel=0, data=[67, 0]),
   midi.NoteOnEvent(tick=0, channel=0, data=[65, 31]),
   midi.NoteOnEvent(tick=120, channel=0, data=[65, 0]),
   midi.NoteOnEvent(tick=0, channel=0, data=[67, 31]),
   midi.NoteOnEvent(tick=120, channel=0, data=[67, 0]),
   midi.NoteOnEvent(tick=0, channel=0, data=[57, 0]),
   midi.NoteOnEvent(tick=0, channel=0, data=[58, 30]),
   midi.NoteOnEvent(tick=0, channel=0, data=[69, 36]),
   midi.NoteOnEvent(tick=480, channel=0, data=[69, 0]),
   midi.NoteOnEvent(tick=0, channel=0, data=[65, 36]),
   midi.NoteOnEvent(tick=240, channel=0, data=[65, 0]),
   midi.NoteOnEvent(tick=0, channel=0, data=[58, 0]),
   midi.NoteOnEvent(tick=0, channel=0, data=[60, 34]),
   midi.NoteOnEvent(tick=0, channel=0, data=[69, 42]),
   midi.NoteOnEvent(tick=360, channel=0, data=[69, 0]),
   midi.NoteOnEvent(tick=0, channel=0, data=[67, 32]),
   midi.NoteOnEvent(tick=120, channel=0, data=[67, 0]),
   midi.NoteOnEvent(tick=0, channel=0, data=[65, 32]),
   midi.NoteOnEvent(tick=120, channel=0, data=[65, 0]),
   midi.NoteOnEvent(tick=0, channel=0, data=[67, 32]),
   midi.NoteOnEvent(tick=120, channel=0, data=[67, 0]),
   midi.NoteOnEvent(tick=0, channel=0, data=[60, 0]),
   midi.NoteOnEvent(tick=0, channel=0, data=[58, 30]),
   midi.NoteOnEvent(tick=0, channel=0, data=[69, 36]),
   midi.NoteOnEvent(tick=660, channel=0, data=[69, 0]),
   midi.NoteOnEvent(tick=0, channel=0, data=[58, 0]),
   midi.NoteOnEvent(tick=60, channel=0, data=[65, 36]),
   midi.NoteOnEvent(tick=0, channel=0, data=[72, 45]),
   midi.NoteOnEvent(tick=360, channel=0, data=[72, 0]),
   midi.NoteOnEvent(tick=0, channel=0, data=[74, 38]),
   midi.NoteOnEvent(tick=120, channel=0, data=[74, 0]),
   midi.NoteOnEvent(tick=0, channel=0, data=[76, 42]),
   midi.NoteOnEvent(tick=120, channel=0, data=[76, 0]),
   midi.NoteOnEvent(tick=0, channel=0, data=[74, 38]),
   midi.NoteOnEvent(tick=120, channel=0, data=[74, 0]),
   midi.NoteOnEvent(tick=0, channel=0, data=[65, 0]),
   midi.NoteOnEvent(tick=0, channel=0, data=[72, 47]),
   midi.NoteOnEvent(tick=0, channel=0, data=[65, 38]),
   midi.NoteOnEvent(tick=480, channel=0, data=[65, 0]),
   midi.NoteOnEvent(tick=0, channel=0, data=[72, 0]),
   midi.NoteOnEvent(tick=0, channel=0, data=[64, 42]),
   midi.NoteOnEvent(tick=0, channel=0, data=[68, 42]),
   midi.NoteOnEvent(tick=240, channel=0, data=[68, 0]),
   midi.NoteOnEvent(tick=0, channel=0, data=[64, 0]),
   midi.NoteOnEvent(tick=0, channel=0, data=[72, 48]),
   midi.NoteOnEvent(tick=0, channel=0, data=[65, 39]),
   midi.NoteOnEvent(tick=720, channel=0, data=[72, 0]),
   midi.NoteOnEvent(tick=0, channel=0, data=[77, 51]),
   midi.NoteOnEvent(tick=480, channel=0, data=[77, 0]),
   midi.NoteOnEvent(tick=0, channel=0, data=[65, 0]),
   midi.NoteOnEvent(tick=240, channel=0, data=[60, 40]),
   midi.NoteOnEvent(tick=0, channel=0, data=[72, 50]),
   midi.NoteOnEvent(tick=360, channel=0, data=[72, 0]),
   midi.NoteOnEvent(tick=0, channel=0, data=[71, 37]),
   midi.NoteOnEvent(tick=120, channel=0, data=[71, 0]),
   midi.NoteOnEvent(tick=0, channel=0, data=[69, 37]),
   midi.NoteOnEvent(tick=120, channel=0, data=[69, 0]),
   midi.NoteOnEvent(tick=0, channel=0, data=[71, 37]),
   midi.NoteOnEvent(tick=120, channel=0, data=[71, 0]),
   midi.NoteOnEvent(tick=0, channel=0, data=[60, 0]),
   midi.NoteOnEvent(tick=0, channel=0, data=[62, 36]),
   midi.NoteOnEvent(tick=0, channel=0, data=[72, 43]),
   midi.NoteOnEvent(tick=480, channel=0, data=[72, 0]),
   midi.NoteOnEvent(tick=0, channel=0, data=[69, 43]),
   midi.NoteOnEvent(tick=240, channel=0, data=[69, 0]),
   midi.NoteOnEvent(tick=0, channel=0, data=[62, 0]),
   midi.NoteOnEvent(tick=0, channel=0, data=[64, 40]),
   midi.NoteOnEvent(tick=0, channel=0, data=[72, 50]),
   midi.NoteOnEvent(tick=360, channel=0, data=[72, 0]),
   midi.NoteOnEvent(tick=0, channel=0, data=[71, 38]),
   midi.NoteOnEvent(tick=120, channel=0, data=[71, 0]),
   midi.NoteOnEvent(tick=0, channel=0, data=[69, 38]),
   midi.NoteOnEvent(tick=120, channel=0, data=[69, 0]),
   midi.NoteOnEvent(tick=0, channel=0, data=[71, 38]),
   midi.NoteOnEvent(tick=120, channel=0, data=[71, 0]),
   midi.NoteOnEvent(tick=0, channel=0, data=[64, 0]),
   midi.NoteOnEvent(tick=0, channel=0, data=[62, 36]),
   midi.NoteOnEvent(tick=0, channel=0, data=[72, 43]),
   midi.NoteOnEvent(tick=660, channel=0, data=[72, 0]),
   midi.NoteOnEvent(tick=0, channel=0, data=[62, 0]),
   midi.NoteOnEvent(tick=60, channel=0, data=[69, 40]),
   midi.NoteOnEvent(tick=0, channel=0, data=[76, 50]),
   midi.NoteOnEvent(tick=360, channel=0, data=[76, 0]),
   midi.NoteOnEvent(tick=0, channel=0, data=[77, 42]),
   midi.NoteOnEvent(tick=120, channel=0, data=[77, 0]),
   midi.NoteOnEvent(tick=0, channel=0, data=[79, 46]),
   midi.NoteOnEvent(tick=120, channel=0, data=[79, 0]),
   midi.NoteOnEvent(tick=0, channel=0, data=[77, 42]),
   midi.NoteOnEvent(tick=120, channel=0, data=[77, 0]),
   midi.NoteOnEvent(tick=0, channel=0, data=[69, 0]),
   midi.NoteOnEvent(tick=0, channel=0, data=[76, 51]),
   midi.NoteOnEvent(tick=0, channel=0, data=[69, 41]),
   midi.NoteOnEvent(tick=480, channel=0, data=[69, 0]),
   midi.NoteOnEvent(tick=0, channel=0, data=[76, 0]),
   midi.NoteOnEvent(tick=0, channel=0, data=[68, 45]),
   midi.NoteOnEvent(tick=0, channel=0, data=[72, 45]),
   midi.NoteOnEvent(tick=240, channel=0, data=[72, 0]),
   midi.NoteOnEvent(tick=0, channel=0, data=[68, 0]),
   midi.NoteOnEvent(tick=0, channel=0, data=[76, 51]),
   midi.NoteOnEvent(tick=0, channel=0, data=[69, 42]),
   midi.NoteOnEvent(tick=720, channel=0, data=[76, 0]),
   midi.NoteOnEvent(tick=0, channel=0, data=[81, 53]),
   midi.NoteOnEvent(tick=240, channel=0, data=[69, 0]),
   midi.NoteOnEvent(tick=0, channel=0, data=[68, 57]),
   midi.NoteOnEvent(tick=240, channel=0, data=[68, 0]),
   midi.NoteOnEvent(tick=0, channel=0, data=[67, 61]),
   midi.NoteOnEvent(tick=240, channel=0, data=[67, 0]),
   midi.NoteOnEvent(tick=0, channel=0, data=[66, 70]),
   midi.NoteOnEvent(tick=480, channel=0, data=[81, 0]),
   midi.NoteOnEvent(tick=0, channel=0, data=[78, 53]),
   midi.NoteOnEvent(tick=240, channel=0, data=[78, 0]),
   midi.NoteOnEvent(tick=0, channel=0, data=[74, 53]),
   midi.NoteOnEvent(tick=240, channel=0, data=[74, 0]),
   midi.NoteOnEvent(tick=0, channel=0, data=[75, 53]),
   midi.NoteOnEvent(tick=240, channel=0, data=[75, 0]),
   midi.NoteOnEvent(tick=0, channel=0, data=[76, 53]),
   midi.NoteOnEvent(tick=240, channel=0, data=[76, 0]),
   midi.NoteOnEvent(tick=0, channel=0, data=[66, 0]),
   midi.NoteOnEvent(tick=0, channel=0, data=[65, 42]),
   midi.NoteOnEvent(tick=0, channel=0, data=[77, 53]),
   midi.NoteOnEvent(tick=480, channel=0, data=[77, 0]),
   midi.NoteOnEvent(tick=0, channel=0, data=[74, 50]),
   midi.NoteOnEvent(tick=240, channel=0, data=[74, 0]),
   midi.NoteOnEvent(tick=0, channel=0, data=[71, 46]),
   midi.NoteOnEvent(tick=480, channel=0, data=[71, 0]),
   midi.NoteOnEvent(tick=0, channel=0, data=[65, 0]),
   midi.NoteOnEvent(tick=240, channel=0, data=[66, 64]),
   midi.NoteOnEvent(tick=240, channel=0, data=[81, 53]),
   midi.NoteOnEvent(tick=240, channel=0, data=[81, 0]),
   midi.NoteOnEvent(tick=0, channel=0, data=[78, 47]),
   midi.NoteOnEvent(tick=240, channel=0, data=[78, 0]),
   midi.NoteOnEvent(tick=0, channel=0, data=[74, 49]),
   midi.NoteOnEvent(tick=240, channel=0, data=[74, 0]),
   midi.NoteOnEvent(tick=0, channel=0, data=[75, 53]),
   midi.NoteOnEvent(tick=240, channel=0, data=[75, 0]),
   midi.NoteOnEvent(tick=0, channel=0, data=[76, 54]),
   midi.NoteOnEvent(tick=240, channel=0, data=[66, 0]),
   midi.NoteOnEvent(tick=0, channel=0, data=[65, 42]),
   midi.NoteOnEvent(tick=240, channel=0, data=[76, 0]),
   midi.NoteOnEvent(tick=0, channel=0, data=[77, 60]),
   midi.NoteOnEvent(tick=240, channel=0, data=[77, 0]),
   midi.NoteOnEvent(tick=0, channel=0, data=[74, 53]),
   midi.NoteOnEvent(tick=240, channel=0, data=[74, 0]),
   midi.NoteOnEvent(tick=0, channel=0, data=[69, 56]),
   midi.NoteOnEvent(tick=240, channel=0, data=[69, 0]),
   midi.NoteOnEvent(tick=0, channel=0, data=[70, 58]),
   midi.NoteOnEvent(tick=240, channel=0, data=[70, 0]),
   midi.NoteOnEvent(tick=0, channel=0, data=[71, 63]),
   midi.NoteOnEvent(tick=150, channel=0, data=[65, 0]),
   midi.NoteOnEvent(tick=330, channel=0, data=[71, 0]),
   midi.NoteOnEvent(tick=0, channel=0, data=[72, 58]),
   midi.NoteOnEvent(tick=240, channel=0, data=[72, 0]),
   midi.NoteOnEvent(tick=0, channel=0, data=[69, 53]),
   midi.NoteOnEvent(tick=240, channel=0, data=[69, 0]),
   midi.NoteOnEvent(tick=0, channel=0, data=[61, 47]),
   midi.NoteOnEvent(tick=240, channel=0, data=[61, 0]),
   midi.NoteOnEvent(tick=0, channel=0, data=[62, 43]),
   midi.NoteOnEvent(tick=240, channel=0, data=[62, 0]),
   midi.NoteOnEvent(tick=0, channel=0, data=[64, 44]),
   midi.NoteOnEvent(tick=240, channel=0, data=[64, 0]),
   midi.NoteOnEvent(tick=0, channel=0, data=[65, 46]),
   midi.NoteOnEvent(tick=240, channel=0, data=[65, 0]),
   midi.NoteOnEvent(tick=0, channel=0, data=[68, 42]),
   midi.NoteOnEvent(tick=240, channel=0, data=[68, 0]),
   midi.NoteOnEvent(tick=0, channel=0, data=[69, 39]),
   midi.NoteOnEvent(tick=240, channel=0, data=[69, 0]),
   midi.NoteOnEvent(tick=0, channel=0, data=[73, 31]),
   midi.NoteOnEvent(tick=240, channel=0, data=[73, 0]),
   midi.NoteOnEvent(tick=0, channel=0, data=[65, 25]),
   midi.NoteOnEvent(tick=0, channel=0, data=[69, 25]),
   midi.NoteOnEvent(tick=0, channel=0, data=[74, 32]),
   midi.NoteOnEvent(tick=60, channel=0, data=[74, 0]),
   midi.NoteOnEvent(tick=0, channel=0, data=[69, 0]),
   midi.NoteOnEvent(tick=0, channel=0, data=[65, 0]),
   midi.NoteOnEvent(tick=180, channel=0, data=[69, 26]),
   midi.NoteOnEvent(tick=0, channel=0, data=[74, 26]),
   midi.NoteOnEvent(tick=0, channel=0, data=[77, 33]),
   midi.NoteOnEvent(tick=60, channel=0, data=[77, 0]),
   midi.NoteOnEvent(tick=0, channel=0, data=[74, 0]),
   midi.NoteOnEvent(tick=0, channel=0, data=[69, 0]),
   midi.NoteOnEvent(tick=180, channel=0, data=[81, 40]),
   midi.NoteOnEvent(tick=0, channel=0, data=[77, 32]),
   midi.NoteOnEvent(tick=0, channel=0, data=[74, 32]),
   midi.NoteOnEvent(tick=60, channel=0, data=[74, 0]),
   midi.NoteOnEvent(tick=0, channel=0, data=[77, 0]),
   midi.NoteOnEvent(tick=0, channel=0, data=[81, 0]),
   midi.NoteOnEvent(tick=1380, channel=0, data=[64, 40]),
   midi.NoteOnEvent(tick=1440, channel=0, data=[64, 0]),
   midi.NoteOnEvent(tick=0, channel=0, data=[60, 40]),
   midi.NoteOnEvent(tick=360, channel=0, data=[60, 0]),
   midi.NoteOnEvent(tick=0, channel=0, data=[59, 30]),
   midi.NoteOnEvent(tick=120, channel=0, data=[59, 0]),
   midi.NoteOnEvent(tick=0, channel=0, data=[60, 30]),
   midi.NoteOnEvent(tick=120, channel=0, data=[60, 0]),
   midi.NoteOnEvent(tick=0, channel=0, data=[62, 30]),
   midi.NoteOnEvent(tick=120, channel=0, data=[62, 0]),
   midi.NoteOnEvent(tick=0, channel=0, data=[64, 34]),
   midi.NoteOnEvent(tick=720, channel=0, data=[64, 0]),
   midi.NoteOnEvent(tick=0, channel=0, data=[60, 40]),
   midi.NoteOnEvent(tick=360, channel=0, data=[60, 0]),
   midi.NoteOnEvent(tick=0, channel=0, data=[59, 30]),
   midi.NoteOnEvent(tick=120, channel=0, data=[59, 0]),
   midi.NoteOnEvent(tick=0, channel=0, data=[60, 30]),
   midi.NoteOnEvent(tick=120, channel=0, data=[60, 0]),
   midi.NoteOnEvent(tick=0, channel=0, data=[62, 30]),
   midi.NoteOnEvent(tick=120, channel=0, data=[62, 0]),
   midi.NoteOnEvent(tick=0, channel=0, data=[64, 34]),
   midi.NoteOnEvent(tick=720, channel=0, data=[64, 0]),
   midi.NoteOnEvent(tick=0, channel=0, data=[60, 29]),
   midi.NoteOnEvent(tick=0, channel=0, data=[52, 24]),
   midi.NoteOnEvent(tick=240, channel=0, data=[52, 0]),
   midi.NoteOnEvent(tick=0, channel=0, data=[60, 0]),
   midi.NoteOnEvent(tick=477, channel=0, data=[64, 22]),
   midi.NoteOnEvent(tick=3, channel=0, data=[72, 27]),
   midi.NoteOnEvent(tick=240, channel=0, data=[72, 0]),
   midi.NoteOnEvent(tick=2, channel=0, data=[64, 0]),
   midi.NoteOnEvent(tick=478, channel=0, data=[84, 28]),
   midi.NoteOnEvent(tick=0, channel=0, data=[76, 23]),
   midi.NoteOnEvent(tick=1200, channel=0, data=[76, 0]),
   midi.NoteOnEvent(tick=0, channel=0, data=[84, 0]),
   midi.NoteOnEvent(tick=240, channel=0, data=[62, 34]),
   midi.NoteOnEvent(tick=0, channel=0, data=[67, 42]),
   midi.NoteOnEvent(tick=360, channel=0, data=[67, 0]),
   midi.NoteOnEvent(tick=0, channel=0, data=[66, 31]),
   midi.NoteOnEvent(tick=120, channel=0, data=[66, 0]),
   midi.NoteOnEvent(tick=0, channel=0, data=[67, 31]),
   midi.NoteOnEvent(tick=120, channel=0, data=[67, 0]),
   midi.NoteOnEvent(tick=0, channel=0, data=[69, 31]),
   midi.NoteOnEvent(tick=120, channel=0, data=[69, 0]),
   midi.NoteOnEvent(tick=0, channel=0, data=[70, 36]),
   midi.NoteOnEvent(tick=480, channel=0, data=[62, 0]),
   midi.NoteOnEvent(tick=0, channel=0, data=[64, 36]),
   midi.NoteOnEvent(tick=240, channel=0, data=[64, 0]),
   midi.NoteOnEvent(tick=0, channel=0, data=[65, 34]),
   midi.NoteOnEvent(tick=360, channel=0, data=[70, 0]),
   midi.NoteOnEvent(tick=0, channel=0, data=[69, 36]),
   midi.NoteOnEvent(tick=120, channel=0, data=[69, 0]),
   midi.NoteOnEvent(tick=0, channel=0, data=[70, 38]),
   midi.NoteOnEvent(tick=120, channel=0, data=[70, 0]),
   midi.NoteOnEvent(tick=0, channel=0, data=[72, 40]),
   midi.NoteOnEvent(tick=120, channel=0, data=[72, 0]),
   midi.NoteOnEvent(tick=0, channel=0, data=[74, 44]),
   midi.NoteOnEvent(tick=480, channel=0, data=[65, 0]),
   midi.NoteOnEvent(tick=0, channel=0, data=[66, 42]),
   midi.NoteOnEvent(tick=240, channel=0, data=[66, 0]),
   midi.NoteOnEvent(tick=240, channel=0, data=[67, 48]),
   midi.NoteOnEvent(tick=120, channel=0, data=[67, 0]),
   midi.NoteOnEvent(tick=0, channel=0, data=[74, 0]),
   midi.NoteOnEvent(tick=0, channel=0, data=[73, 42]),
   midi.NoteOnEvent(tick=0, channel=0, data=[70, 42]),
   midi.NoteOnEvent(tick=120, channel=0, data=[70, 0]),
   midi.NoteOnEvent(tick=0, channel=0, data=[73, 0]),
   midi.NoteOnEvent(tick=0, channel=0, data=[67, 46]),
   midi.NoteOnEvent(tick=120, channel=0, data=[67, 0]),
   midi.NoteOnEvent(tick=0, channel=0, data=[70, 42]),
   midi.NoteOnEvent(tick=0, channel=0, data=[74, 42]),
   midi.NoteOnEvent(tick=120, channel=0, data=[74, 0]),
   midi.NoteOnEvent(tick=0, channel=0, data=[70, 0]),
   midi.NoteOnEvent(tick=0, channel=0, data=[70, 47]),
   midi.NoteOnEvent(tick=90, channel=0, data=[70, 0]),
   midi.NoteOnEvent(tick=30, channel=0, data=[74, 41]),
   midi.NoteOnEvent(tick=0, channel=0, data=[78, 41]),
   midi.NoteOnEvent(tick=90, channel=0, data=[78, 0]),
   midi.NoteOnEvent(tick=0, channel=0, data=[74, 0]),
   midi.NoteOnEvent(tick=30, channel=0, data=[70, 45]),
   midi.NoteOnEvent(tick=90, channel=0, data=[70, 0]),
   midi.NoteOnEvent(tick=30, channel=0, data=[79, 39]),
   midi.NoteOnEvent(tick=0, channel=0, data=[74, 39]),
   midi.NoteOnEvent(tick=90, channel=0, data=[74, 0]),
   midi.NoteOnEvent(tick=0, channel=0, data=[79, 0]),
   midi.NoteOnEvent(tick=30, channel=0, data=[74, 43]),
   midi.NoteOnEvent(tick=90, channel=0, data=[74, 0]),
   midi.NoteOnEvent(tick=30, channel=0, data=[81, 37]),
   midi.NoteOnEvent(tick=0, channel=0, data=[79, 37]),
   midi.NoteOnEvent(tick=90, channel=0, data=[79, 0]),
   midi.NoteOnEvent(tick=0, channel=0, data=[81, 0]),
   midi.NoteOnEvent(tick=30, channel=0, data=[74, 43]),
   midi.NoteOnEvent(tick=90, channel=0, data=[74, 0]),
   midi.NoteOnEvent(tick=30, channel=0, data=[82, 36]),
   midi.NoteOnEvent(tick=0, channel=0, data=[79, 36]),
   midi.NoteOnEvent(tick=90, channel=0, data=[79, 0]),
   midi.NoteOnEvent(tick=0, channel=0, data=[82, 0]),
   midi.NoteOnEvent(tick=30, channel=0, data=[79, 41]),
   midi.NoteOnEvent(tick=90, channel=0, data=[79, 0]),
   midi.NoteOnEvent(tick=30, channel=0, data=[85, 34]),
   midi.NoteOnEvent(tick=0, channel=0, data=[82, 34]),
   midi.NoteOnEvent(tick=90, channel=0, data=[82, 0]),
   midi.NoteOnEvent(tick=0, channel=0, data=[85, 0]),
   midi.NoteOnEvent(tick=30, channel=0, data=[79, 38]),
   midi.NoteOnEvent(tick=90, channel=0, data=[79, 0]),
   midi.NoteOnEvent(tick=30, channel=0, data=[86, 33]),
   midi.NoteOnEvent(tick=0, channel=0, data=[82, 33]),
   midi.NoteOnEvent(tick=90, channel=0, data=[82, 0]),
   midi.NoteOnEvent(tick=0, channel=0, data=[86, 0]),
   midi.NoteOnEvent(tick=30, channel=0, data=[91, 48]),
   midi.NoteOnEvent(tick=120, channel=0, data=[91, 0]),
   midi.NoteOnEvent(tick=600, channel=0, data=[67, 37]),
   midi.NoteOnEvent(tick=0, channel=0, data=[72, 46]),
   midi.NoteOnEvent(tick=360, channel=0, data=[72, 0]),
   midi.NoteOnEvent(tick=0, channel=0, data=[71, 34]),
   midi.NoteOnEvent(tick=120, channel=0, data=[71, 0]),
   midi.NoteOnEvent(tick=0, channel=0, data=[72, 35]),
   midi.NoteOnEvent(tick=120, channel=0, data=[72, 0]),
   midi.NoteOnEvent(tick=0, channel=0, data=[74, 35]),
   midi.NoteOnEvent(tick=120, channel=0, data=[74, 0]),
   midi.NoteOnEvent(tick=0, channel=0, data=[75, 41]),
   midi.NoteOnEvent(tick=480, channel=0, data=[67, 0]),
   midi.NoteOnEvent(tick=0, channel=0, data=[69, 42]),
   midi.NoteOnEvent(tick=240, channel=0, data=[69, 0]),
   midi.NoteOnEvent(tick=0, channel=0, data=[70, 41]),
   midi.NoteOnEvent(tick=360, channel=0, data=[75, 0]),
   midi.NoteOnEvent(tick=0, channel=0, data=[74, 44]),
   midi.NoteOnEvent(tick=120, channel=0, data=[74, 0]),
   midi.NoteOnEvent(tick=0, channel=0, data=[75, 47]),
   midi.NoteOnEvent(tick=120, channel=0, data=[75, 0]),
   midi.NoteOnEvent(tick=0, channel=0, data=[77, 50]),
   midi.NoteOnEvent(tick=120, channel=0, data=[77, 0]),
   midi.NoteOnEvent(tick=0, channel=0, data=[79, 55]),
   midi.NoteOnEvent(tick=480, channel=0, data=[70, 0]),
   midi.NoteOnEvent(tick=0, channel=0, data=[71, 42]),
   midi.NoteOnEvent(tick=240, channel=0, data=[71, 0]),
   midi.NoteOnEvent(tick=240, channel=0, data=[72, 48]),
   midi.NoteOnEvent(tick=120, channel=0, data=[72, 0]),
   midi.NoteOnEvent(tick=0, channel=0, data=[79, 0]),
   midi.NoteOnEvent(tick=0, channel=0, data=[78, 42]),
   midi.NoteOnEvent(tick=0, channel=0, data=[75, 42]),
   midi.NoteOnEvent(tick=120, channel=0, data=[75, 0]),
   midi.NoteOnEvent(tick=0, channel=0, data=[78, 0]),
   midi.NoteOnEvent(tick=0, channel=0, data=[72, 46]),
   midi.NoteOnEvent(tick=120, channel=0, data=[72, 0]),
   midi.NoteOnEvent(tick=0, channel=0, data=[75, 42]),
   midi.NoteOnEvent(tick=0, channel=0, data=[79, 42]),
   midi.NoteOnEvent(tick=120, channel=0, data=[79, 0]),
   midi.NoteOnEvent(tick=0, channel=0, data=[75, 0]),
   midi.NoteOnEvent(tick=0, channel=0, data=[75, 47]),
   midi.NoteOnEvent(tick=90, channel=0, data=[75, 0]),
   midi.NoteOnEvent(tick=30, channel=0, data=[79, 41]),
   midi.NoteOnEvent(tick=0, channel=0, data=[83, 41]),
   midi.NoteOnEvent(tick=90, channel=0, data=[83, 0]),
   midi.NoteOnEvent(tick=0, channel=0, data=[79, 0]),
   midi.NoteOnEvent(tick=30, channel=0, data=[75, 45]),
   midi.NoteOnEvent(tick=90, channel=0, data=[75, 0]),
   midi.NoteOnEvent(tick=30, channel=0, data=[84, 39]),
   midi.NoteOnEvent(tick=0, channel=0, data=[79, 39]),
   midi.NoteOnEvent(tick=90, channel=0, data=[79, 0]),
   midi.NoteOnEvent(tick=0, channel=0, data=[84, 0]),
   midi.NoteOnEvent(tick=30, channel=0, data=[79, 43]),
   midi.NoteOnEvent(tick=90, channel=0, data=[79, 0]),
   midi.NoteOnEvent(tick=30, channel=0, data=[86, 37]),
   midi.NoteOnEvent(tick=0, channel=0, data=[84, 37]),
   midi.NoteOnEvent(tick=90, channel=0, data=[84, 0]),
   midi.NoteOnEvent(tick=0, channel=0, data=[86, 0]),
   midi.NoteOnEvent(tick=30, channel=0, data=[79, 43]),
   midi.NoteOnEvent(tick=90, channel=0, data=[79, 0]),
   midi.NoteOnEvent(tick=30, channel=0, data=[87, 36]),
   midi.NoteOnEvent(tick=0, channel=0, data=[84, 36]),
   midi.NoteOnEvent(tick=90, channel=0, data=[84, 0]),
   midi.NoteOnEvent(tick=0, channel=0, data=[87, 0]),
   midi.NoteOnEvent(tick=30, channel=0, data=[84, 41]),
   midi.NoteOnEvent(tick=90, channel=0, data=[84, 0]),
   midi.NoteOnEvent(tick=30, channel=0, data=[90, 34]),
   midi.NoteOnEvent(tick=0, channel=0, data=[87, 34]),
   midi.NoteOnEvent(tick=90, channel=0, data=[87, 0]),
   midi.NoteOnEvent(tick=0, channel=0, data=[90, 0]),
   midi.NoteOnEvent(tick=30, channel=0, data=[84, 38]),
   midi.NoteOnEvent(tick=90, channel=0, data=[84, 0]),
   midi.NoteOnEvent(tick=30, channel=0, data=[91, 33]),
   midi.NoteOnEvent(tick=0, channel=0, data=[87, 33]),
   midi.NoteOnEvent(tick=90, channel=0, data=[87, 0]),
   midi.NoteOnEvent(tick=0, channel=0, data=[91, 0]),
   midi.NoteOnEvent(tick=30, channel=0, data=[96, 48]),
   midi.NoteOnEvent(tick=120, channel=0, data=[96, 0]),
   midi.NoteOnEvent(tick=720, channel=0, data=[82, 31]),
   midi.NoteOnEvent(tick=0, channel=0, data=[86, 31]),
   midi.NoteOnEvent(tick=120, channel=0, data=[86, 0]),
   midi.NoteOnEvent(tick=0, channel=0, data=[82, 0]),
   midi.NoteOnEvent(tick=0, channel=0, data=[88, 35]),
   midi.NoteOnEvent(tick=120, channel=0, data=[88, 0]),
   midi.NoteOnEvent(tick=0, channel=0, data=[82, 30]),
   midi.NoteOnEvent(tick=0, channel=0, data=[86, 30]),
   midi.NoteOnEvent(tick=120, channel=0, data=[86, 0]),
   midi.NoteOnEvent(tick=0, channel=0, data=[82, 0]),
   midi.NoteOnEvent(tick=0, channel=0, data=[89, 35]),
   midi.NoteOnEvent(tick=120, channel=0, data=[89, 0]),
   midi.NoteOnEvent(tick=0, channel=0, data=[86, 31]),
   midi.NoteOnEvent(tick=0, channel=0, data=[82, 31]),
   midi.NoteOnEvent(tick=120, channel=0, data=[82, 0]),
   midi.NoteOnEvent(tick=0, channel=0, data=[86, 0]),
   midi.NoteOnEvent(tick=120, channel=0, data=[86, 30]),
   midi.NoteOnEvent(tick=0, channel=0, data=[82, 30]),
   midi.NoteOnEvent(tick=120, channel=0, data=[82, 0]),
   midi.NoteOnEvent(tick=0, channel=0, data=[86, 0]),
   midi.NoteOnEvent(tick=0, channel=0, data=[88, 35]),
   midi.NoteOnEvent(tick=120, channel=0, data=[88, 0]),
   midi.NoteOnEvent(tick=0, channel=0, data=[86, 32]),
   midi.NoteOnEvent(tick=0, channel=0, data=[82, 32]),
   midi.NoteOnEvent(tick=120, channel=0, data=[82, 0]),
   midi.NoteOnEvent(tick=0, channel=0, data=[86, 0]),
   midi.NoteOnEvent(tick=0, channel=0, data=[89, 35]),
   midi.NoteOnEvent(tick=120, channel=0, data=[89, 0]),
   midi.NoteOnEvent(tick=0, channel=0, data=[82, 31]),
   midi.NoteOnEvent(tick=0, channel=0, data=[86, 31]),
   midi.NoteOnEvent(tick=120, channel=0, data=[86, 0]),
   midi.NoteOnEvent(tick=0, channel=0, data=[82, 0]),
   midi.NoteOnEvent(tick=120, channel=0, data=[82, 34]),
   midi.NoteOnEvent(tick=0, channel=0, data=[86, 34]),
   midi.NoteOnEvent(tick=120, channel=0, data=[86, 0]),
   midi.NoteOnEvent(tick=0, channel=0, data=[82, 0]),
   midi.NoteOnEvent(tick=0, channel=0, data=[88, 39]),
   midi.NoteOnEvent(tick=120, channel=0, data=[88, 0]),
   midi.NoteOnEvent(tick=0, channel=0, data=[82, 34]),
   midi.NoteOnEvent(tick=0, channel=0, data=[86, 34]),
   midi.NoteOnEvent(tick=120, channel=0, data=[86, 0]),
   midi.NoteOnEvent(tick=0, channel=0, data=[82, 0]),
   midi.NoteOnEvent(tick=0, channel=0, data=[89, 41]),
   midi.NoteOnEvent(tick=120, channel=0, data=[89, 0]),
   midi.NoteOnEvent(tick=0, channel=0, data=[86, 37]),
   midi.NoteOnEvent(tick=0, channel=0, data=[82, 37]),
   midi.NoteOnEvent(tick=120, channel=0, data=[82, 0]),
   midi.NoteOnEvent(tick=0, channel=0, data=[86, 0]),
   midi.NoteOnEvent(tick=120, channel=0, data=[86, 37]),
   midi.NoteOnEvent(tick=0, channel=0, data=[82, 37]),
   midi.NoteOnEvent(tick=120, channel=0, data=[82, 0]),
   midi.NoteOnEvent(tick=0, channel=0, data=[86, 0]),
   midi.NoteOnEvent(tick=0, channel=0, data=[88, 45]),
   midi.NoteOnEvent(tick=120, channel=0, data=[88, 0]),
   midi.NoteOnEvent(tick=0, channel=0, data=[86, 41]),
   midi.NoteOnEvent(tick=0, channel=0, data=[82, 41]),
   midi.NoteOnEvent(tick=120, channel=0, data=[82, 0]),
   midi.NoteOnEvent(tick=0, channel=0, data=[86, 0]),
   midi.NoteOnEvent(tick=0, channel=0, data=[89, 46]),
   midi.NoteOnEvent(tick=120, channel=0, data=[89, 0]),
   midi.NoteOnEvent(tick=0, channel=0, data=[82, 42]),
   midi.NoteOnEvent(tick=0, channel=0, data=[86, 42]),
   midi.NoteOnEvent(tick=120, channel=0, data=[86, 0]),
   midi.NoteOnEvent(tick=0, channel=0, data=[82, 0]),
   midi.NoteOnEvent(tick=120, channel=0, data=[83, 42]),
   midi.NoteOnEvent(tick=0, channel=0, data=[86, 42]),
   midi.NoteOnEvent(tick=120, channel=0, data=[86, 0]),
   midi.NoteOnEvent(tick=0, channel=0, data=[83, 0]),
   midi.NoteOnEvent(tick=0, channel=0, data=[88, 47]),
   midi.NoteOnEvent(tick=120, channel=0, data=[88, 0]),
   midi.NoteOnEvent(tick=0, channel=0, data=[83, 39]),
   midi.NoteOnEvent(tick=0, channel=0, data=[86, 39]),
   midi.NoteOnEvent(tick=120, channel=0, data=[86, 0]),
   midi.NoteOnEvent(tick=0, channel=0, data=[83, 0]),
   midi.NoteOnEvent(tick=0, channel=0, data=[89, 45]),
   midi.NoteOnEvent(tick=120, channel=0, data=[89, 0]),
   midi.NoteOnEvent(tick=0, channel=0, data=[86, 39]),
   midi.NoteOnEvent(tick=0, channel=0, data=[83, 39]),
   midi.NoteOnEvent(tick=120, channel=0, data=[83, 0]),
   midi.NoteOnEvent(tick=0, channel=0, data=[86, 0]),
   midi.NoteOnEvent(tick=120, channel=0, data=[86, 36]),
   midi.NoteOnEvent(tick=0, channel=0, data=[83, 36]),
   midi.NoteOnEvent(tick=120, channel=0, data=[83, 0]),
   midi.NoteOnEvent(tick=0, channel=0, data=[86, 0]),
   midi.NoteOnEvent(tick=0, channel=0, data=[88, 42]),
   midi.NoteOnEvent(tick=120, channel=0, data=[88, 0]),
   midi.NoteOnEvent(tick=0, channel=0, data=[86, 37]),
   midi.NoteOnEvent(tick=0, channel=0, data=[83, 37]),
   midi.NoteOnEvent(tick=120, channel=0, data=[83, 0]),
   midi.NoteOnEvent(tick=0, channel=0, data=[86, 0]),
   midi.NoteOnEvent(tick=0, channel=0, data=[89, 40]),
   midi.NoteOnEvent(tick=120, channel=0, data=[89, 0]),
   midi.NoteOnEvent(tick=0, channel=0, data=[83, 35]),
   midi.NoteOnEvent(tick=0, channel=0, data=[86, 35]),
   midi.NoteOnEvent(tick=120, channel=0, data=[86, 0]),
   midi.NoteOnEvent(tick=0, channel=0, data=[83, 0]),
   midi.NoteOnEvent(tick=120, channel=0, data=[83, 31]),
   midi.NoteOnEvent(tick=0, channel=0, data=[86, 31]),
   midi.NoteOnEvent(tick=120, channel=0, data=[86, 0]),
   midi.NoteOnEvent(tick=0, channel=0, data=[83, 0]),
   midi.NoteOnEvent(tick=0, channel=0, data=[88, 35]),
   midi.NoteOnEvent(tick=120, channel=0, data=[88, 0]),
   midi.NoteOnEvent(tick=0, channel=0, data=[83, 30]),
   midi.NoteOnEvent(tick=0, channel=0, data=[86, 30]),
   midi.NoteOnEvent(tick=120, channel=0, data=[86, 0]),
   midi.NoteOnEvent(tick=0, channel=0, data=[83, 0]),
   midi.NoteOnEvent(tick=0, channel=0, data=[89, 35]),
   midi.NoteOnEvent(tick=120, channel=0, data=[89, 0]),
   midi.NoteOnEvent(tick=0, channel=0, data=[86, 31]),
   midi.NoteOnEvent(tick=0, channel=0, data=[83, 31]),
   midi.NoteOnEvent(tick=120, channel=0, data=[83, 0]),
   midi.NoteOnEvent(tick=0, channel=0, data=[86, 0]),
   midi.NoteOnEvent(tick=120, channel=0, data=[86, 30]),
   midi.NoteOnEvent(tick=0, channel=0, data=[83, 30]),
   midi.NoteOnEvent(tick=120, channel=0, data=[83, 0]),
   midi.NoteOnEvent(tick=0, channel=0, data=[86, 0]),
   midi.NoteOnEvent(tick=0, channel=0, data=[88, 35]),
   midi.NoteOnEvent(tick=120, channel=0, data=[88, 0]),
   midi.NoteOnEvent(tick=0, channel=0, data=[86, 32]),
   midi.NoteOnEvent(tick=0, channel=0, data=[83, 32]),
   midi.NoteOnEvent(tick=120, channel=0, data=[83, 0]),
   midi.NoteOnEvent(tick=0, channel=0, data=[86, 0]),
   midi.NoteOnEvent(tick=0, channel=0, data=[89, 35]),
   midi.NoteOnEvent(tick=120, channel=0, data=[89, 0]),
   midi.NoteOnEvent(tick=0, channel=0, data=[83, 31]),
   midi.NoteOnEvent(tick=0, channel=0, data=[86, 31]),
   midi.NoteOnEvent(tick=120, channel=0, data=[86, 0]),
   midi.NoteOnEvent(tick=0, channel=0, data=[83, 0]),
   midi.NoteOnEvent(tick=120, channel=0, data=[82, 31]),
   midi.NoteOnEvent(tick=0, channel=0, data=[85, 31]),
   midi.NoteOnEvent(tick=120, channel=0, data=[85, 0]),
   midi.NoteOnEvent(tick=0, channel=0, data=[82, 0]),
   midi.NoteOnEvent(tick=0, channel=0, data=[88, 35]),
   midi.NoteOnEvent(tick=120, channel=0, data=[88, 0]),
   midi.NoteOnEvent(tick=0, channel=0, data=[82, 30]),
   midi.NoteOnEvent(tick=0, channel=0, data=[85, 30]),
   midi.NoteOnEvent(tick=120, channel=0, data=[85, 0]),
   midi.NoteOnEvent(tick=0, channel=0, data=[82, 0]),
   midi.NoteOnEvent(tick=0, channel=0, data=[89, 35]),
   midi.NoteOnEvent(tick=120, channel=0, data=[89, 0]),
   midi.NoteOnEvent(tick=0, channel=0, data=[85, 31]),
   midi.NoteOnEvent(tick=0, channel=0, data=[82, 31]),
   midi.NoteOnEvent(tick=120, channel=0, data=[82, 0]),
   midi.NoteOnEvent(tick=0, channel=0, data=[85, 0]),
   midi.NoteOnEvent(tick=120, channel=0, data=[85, 30]),
   midi.NoteOnEvent(tick=0, channel=0, data=[82, 30]),
   midi.NoteOnEvent(tick=120, channel=0, data=[82, 0]),
   midi.NoteOnEvent(tick=0, channel=0, data=[85, 0]),
   midi.NoteOnEvent(tick=0, channel=0, data=[88, 36]),
   midi.NoteOnEvent(tick=120, channel=0, data=[88, 0]),
   midi.NoteOnEvent(tick=0, channel=0, data=[85, 32]),
   midi.NoteOnEvent(tick=0, channel=0, data=[82, 32]),
   midi.NoteOnEvent(tick=120, channel=0, data=[82, 0]),
   midi.NoteOnEvent(tick=0, channel=0, data=[85, 0]),
   midi.NoteOnEvent(tick=0, channel=0, data=[89, 36]),
   midi.NoteOnEvent(tick=120, channel=0, data=[89, 0]),
   midi.NoteOnEvent(tick=0, channel=0, data=[82, 32]),
   midi.NoteOnEvent(tick=0, channel=0, data=[85, 32]),
   midi.NoteOnEvent(tick=120, channel=0, data=[85, 0]),
   midi.NoteOnEvent(tick=0, channel=0, data=[82, 0]),
   midi.NoteOnEvent(tick=120, channel=0, data=[82, 35]),
   midi.NoteOnEvent(tick=0, channel=0, data=[85, 35]),
   midi.NoteOnEvent(tick=120, channel=0, data=[85, 0]),
   midi.NoteOnEvent(tick=0, channel=0, data=[82, 0]),
   midi.NoteOnEvent(tick=0, channel=0, data=[88, 40]),
   midi.NoteOnEvent(tick=120, channel=0, data=[88, 0]),
   midi.NoteOnEvent(tick=0, channel=0, data=[82, 36]),
   midi.NoteOnEvent(tick=0, channel=0, data=[85, 36]),
   midi.NoteOnEvent(tick=120, channel=0, data=[85, 0]),
   midi.NoteOnEvent(tick=0, channel=0, data=[82, 0]),
   midi.NoteOnEvent(tick=0, channel=0, data=[89, 44]),
   midi.NoteOnEvent(tick=120, channel=0, data=[89, 0]),
   midi.NoteOnEvent(tick=0, channel=0, data=[85, 40]),
   midi.NoteOnEvent(tick=0, channel=0, data=[82, 40]),
   midi.NoteOnEvent(tick=120, channel=0, data=[82, 0]),
   midi.NoteOnEvent(tick=0, channel=0, data=[85, 0]),
   midi.NoteOnEvent(tick=120, channel=0, data=[85, 40]),
   midi.NoteOnEvent(tick=0, channel=0, data=[82, 40]),
   midi.NoteOnEvent(tick=120, channel=0, data=[82, 0]),
   midi.NoteOnEvent(tick=0, channel=0, data=[85, 0]),
   midi.NoteOnEvent(tick=0, channel=0, data=[88, 50]),
   midi.NoteOnEvent(tick=120, channel=0, data=[88, 0]),
   midi.NoteOnEvent(tick=0, channel=0, data=[85, 46]),
   midi.NoteOnEvent(tick=0, channel=0, data=[82, 46]),
   midi.NoteOnEvent(tick=120, channel=0, data=[82, 0]),
   midi.NoteOnEvent(tick=0, channel=0, data=[85, 0]),
   midi.NoteOnEvent(tick=0, channel=0, data=[89, 53]),
   midi.NoteOnEvent(tick=120, channel=0, data=[89, 0]),
   midi.NoteOnEvent(tick=0, channel=0, data=[82, 49]),
   midi.NoteOnEvent(tick=0, channel=0, data=[85, 49]),
   midi.NoteOnEvent(tick=120, channel=0, data=[85, 0]),
   midi.NoteOnEvent(tick=0, channel=0, data=[82, 0]),
   midi.NoteOnEvent(tick=120, channel=0, data=[82, 46]),
   midi.NoteOnEvent(tick=0, channel=0, data=[85, 46]),
   midi.NoteOnEvent(tick=120, channel=0, data=[85, 0]),
   midi.NoteOnEvent(tick=0, channel=0, data=[82, 0]),
   midi.NoteOnEvent(tick=0, channel=0, data=[88, 52]),
   midi.NoteOnEvent(tick=120, channel=0, data=[88, 0]),
   midi.NoteOnEvent(tick=0, channel=0, data=[82, 43]),
   midi.NoteOnEvent(tick=0, channel=0, data=[85, 43]),
   midi.NoteOnEvent(tick=120, channel=0, data=[85, 0]),
   midi.NoteOnEvent(tick=0, channel=0, data=[82, 0]),
   midi.NoteOnEvent(tick=0, channel=0, data=[89, 50]),
   midi.NoteOnEvent(tick=120, channel=0, data=[89, 0]),
   midi.NoteOnEvent(tick=0, channel=0, data=[85, 44]),
   midi.NoteOnEvent(tick=0, channel=0, data=[82, 44]),
   midi.NoteOnEvent(tick=120, channel=0, data=[82, 0]),
   midi.NoteOnEvent(tick=0, channel=0, data=[85, 0]),
   midi.NoteOnEvent(tick=120, channel=0, data=[82, 43]),
   midi.NoteOnEvent(tick=0, channel=0, data=[85, 43]),
   midi.NoteOnEvent(tick=120, channel=0, data=[85, 0]),
   midi.NoteOnEvent(tick=0, channel=0, data=[82, 0]),
   midi.NoteOnEvent(tick=0, channel=0, data=[88, 53]),
   midi.NoteOnEvent(tick=120, channel=0, data=[88, 0]),
   midi.NoteOnEvent(tick=0, channel=0, data=[82, 46]),
   midi.NoteOnEvent(tick=0, channel=0, data=[85, 46]),
   midi.NoteOnEvent(tick=120, channel=0, data=[85, 0]),
   midi.NoteOnEvent(tick=0, channel=0, data=[82, 0]),
   midi.NoteOnEvent(tick=0, channel=0, data=[89, 53]),
   midi.NoteOnEvent(tick=120, channel=0, data=[89, 0]),
   midi.NoteOnEvent(tick=0, channel=0, data=[85, 46]),
   midi.NoteOnEvent(tick=0, channel=0, data=[82, 46]),
   midi.NoteOnEvent(tick=120, channel=0, data=[82, 0]),
   midi.NoteOnEvent(tick=0, channel=0, data=[85, 0]),
   midi.NoteOnEvent(tick=120, channel=0, data=[82, 43]),
   midi.NoteOnEvent(tick=0, channel=0, data=[85, 43]),
   midi.NoteOnEvent(tick=120, channel=0, data=[85, 0]),
   midi.NoteOnEvent(tick=0, channel=0, data=[82, 0]),
   midi.NoteOnEvent(tick=0, channel=0, data=[88, 53]),
   midi.NoteOnEvent(tick=120, channel=0, data=[88, 0]),
   midi.NoteOnEvent(tick=0, channel=0, data=[82, 45]),
   midi.NoteOnEvent(tick=0, channel=0, data=[85, 45]),
   midi.NoteOnEvent(tick=120, channel=0, data=[85, 0]),
   midi.NoteOnEvent(tick=0, channel=0, data=[82, 0]),
   midi.NoteOnEvent(tick=0, channel=0, data=[89, 53]),
   midi.NoteOnEvent(tick=120, channel=0, data=[89, 0]),
   midi.NoteOnEvent(tick=0, channel=0, data=[85, 44]),
   midi.NoteOnEvent(tick=0, channel=0, data=[82, 44]),
   midi.NoteOnEvent(tick=120, channel=0, data=[82, 0]),
   midi.NoteOnEvent(tick=0, channel=0, data=[85, 0]),
   midi.NoteOnEvent(tick=120, channel=0, data=[85, 45]),
   midi.NoteOnEvent(tick=0, channel=0, data=[82, 45]),
   midi.NoteOnEvent(tick=120, channel=0, data=[82, 0]),
   midi.NoteOnEvent(tick=0, channel=0, data=[85, 0]),
   midi.NoteOnEvent(tick=0, channel=0, data=[89, 49]),
   midi.NoteOnEvent(tick=120, channel=0, data=[89, 0]),
   midi.NoteOnEvent(tick=0, channel=0, data=[82, 43]),
   midi.NoteOnEvent(tick=0, channel=0, data=[85, 43]),
   midi.NoteOnEvent(tick=120, channel=0, data=[85, 0]),
   midi.NoteOnEvent(tick=0, channel=0, data=[82, 0]),
   midi.NoteOnEvent(tick=0, channel=0, data=[90, 49]),
   midi.NoteOnEvent(tick=120, channel=0, data=[90, 0]),
   midi.NoteOnEvent(tick=0, channel=0, data=[85, 42]),
   midi.NoteOnEvent(tick=0, channel=0, data=[82, 42]),
   midi.NoteOnEvent(tick=120, channel=0, data=[82, 0]),
   midi.NoteOnEvent(tick=0, channel=0, data=[85, 0]),
   midi.NoteOnEvent(tick=120, channel=0, data=[85, 56]),
   midi.NoteOnEvent(tick=0, channel=0, data=[82, 56]),
   midi.NoteOnEvent(tick=120, channel=0, data=[82, 0]),
   midi.NoteOnEvent(tick=0, channel=0, data=[85, 0]),
   midi.NoteOnEvent(tick=0, channel=0, data=[90, 63]),
   midi.NoteOnEvent(tick=120, channel=0, data=[90, 0]),
   midi.NoteOnEvent(tick=0, channel=0, data=[82, 53]),
   midi.NoteOnEvent(tick=0, channel=0, data=[85, 53]),
   midi.NoteOnEvent(tick=120, channel=0, data=[85, 0]),
   midi.NoteOnEvent(tick=0, channel=0, data=[82, 0]),
   midi.NoteOnEvent(tick=0, channel=0, data=[91, 62]),
   midi.NoteOnEvent(tick=120, channel=0, data=[91, 0]),
   midi.NoteOnEvent(tick=0, channel=0, data=[85, 52]),
   midi.NoteOnEvent(tick=0, channel=0, data=[82, 52]),
   midi.NoteOnEvent(tick=120, channel=0, data=[82, 0]),
   midi.NoteOnEvent(tick=0, channel=0, data=[85, 0]),
   midi.NoteOnEvent(tick=120, channel=0, data=[85, 56]),
   midi.NoteOnEvent(tick=0, channel=0, data=[82, 56]),
   midi.NoteOnEvent(tick=120, channel=0, data=[82, 0]),
   midi.NoteOnEvent(tick=0, channel=0, data=[85, 0]),
   midi.NoteOnEvent(tick=0, channel=0, data=[90, 61]),
   midi.NoteOnEvent(tick=120, channel=0, data=[90, 0]),
   midi.NoteOnEvent(tick=0, channel=0, data=[82, 53]),
   midi.NoteOnEvent(tick=0, channel=0, data=[85, 53]),
   midi.NoteOnEvent(tick=120, channel=0, data=[85, 0]),
   midi.NoteOnEvent(tick=0, channel=0, data=[82, 0]),
   midi.NoteOnEvent(tick=0, channel=0, data=[91, 61]),
   midi.NoteOnEvent(tick=120, channel=0, data=[91, 0]),
   midi.NoteOnEvent(tick=0, channel=0, data=[85, 52]),
   midi.NoteOnEvent(tick=0, channel=0, data=[82, 52]),
   midi.NoteOnEvent(tick=120, channel=0, data=[82, 0]),
   midi.NoteOnEvent(tick=0, channel=0, data=[85, 0]),
   midi.NoteOnEvent(tick=120, channel=0, data=[85, 51]),
   midi.NoteOnEvent(tick=0, channel=0, data=[82, 51]),
   midi.NoteOnEvent(tick=120, channel=0, data=[82, 0]),
   midi.NoteOnEvent(tick=0, channel=0, data=[85, 0]),
   midi.NoteOnEvent(tick=0, channel=0, data=[90, 58]),
   midi.NoteOnEvent(tick=120, channel=0, data=[90, 0]),
   midi.NoteOnEvent(tick=0, channel=0, data=[82, 49]),
   midi.NoteOnEvent(tick=0, channel=0, data=[85, 49]),
   midi.NoteOnEvent(tick=120, channel=0, data=[85, 0]),
   midi.NoteOnEvent(tick=0, channel=0, data=[82, 0]),
   midi.NoteOnEvent(tick=0, channel=0, data=[91, 57]),
   midi.NoteOnEvent(tick=120, channel=0, data=[91, 0]),
   midi.NoteOnEvent(tick=0, channel=0, data=[85, 48]),
   midi.NoteOnEvent(tick=0, channel=0, data=[82, 48]),
   midi.NoteOnEvent(tick=120, channel=0, data=[82, 0]),
   midi.NoteOnEvent(tick=0, channel=0, data=[85, 0]),
   midi.NoteOnEvent(tick=120, channel=0, data=[82, 51]),
   midi.NoteOnEvent(tick=0, channel=0, data=[79, 51]),
   midi.NoteOnEvent(tick=120, channel=0, data=[79, 0]),
   midi.NoteOnEvent(tick=0, channel=0, data=[82, 0]),
   midi.NoteOnEvent(tick=0, channel=0, data=[87, 56]),
   midi.NoteOnEvent(tick=120, channel=0, data=[87, 0]),
   midi.NoteOnEvent(tick=0, channel=0, data=[79, 49]),
   midi.NoteOnEvent(tick=0, channel=0, data=[82, 49]),
   midi.NoteOnEvent(tick=120, channel=0, data=[82, 0]),
   midi.NoteOnEvent(tick=0, channel=0, data=[79, 0]),
   midi.NoteOnEvent(tick=0, channel=0, data=[88, 56]),
   midi.NoteOnEvent(tick=120, channel=0, data=[88, 0]),
   midi.NoteOnEvent(tick=0, channel=0, data=[82, 48]),
   midi.NoteOnEvent(tick=0, channel=0, data=[79, 48]),
   midi.NoteOnEvent(tick=120, channel=0, data=[79, 0]),
   midi.NoteOnEvent(tick=0, channel=0, data=[82, 0]),
   midi.NoteOnEvent(tick=120, channel=0, data=[79, 45]),
   midi.NoteOnEvent(tick=0, channel=0, data=[76, 45]),
   midi.NoteOnEvent(tick=120, channel=0, data=[76, 0]),
   midi.NoteOnEvent(tick=0, channel=0, data=[79, 0]),
   midi.NoteOnEvent(tick=0, channel=0, data=[84, 50]),
   midi.NoteOnEvent(tick=120, channel=0, data=[84, 0]),
   midi.NoteOnEvent(tick=0, channel=0, data=[76, 42]),
   midi.NoteOnEvent(tick=0, channel=0, data=[79, 42]),
   midi.NoteOnEvent(tick=120, channel=0, data=[79, 0]),
   midi.NoteOnEvent(tick=0, channel=0, data=[76, 0]),
   midi.NoteOnEvent(tick=0, channel=0, data=[85, 48]),
   midi.NoteOnEvent(tick=120, channel=0, data=[85, 0]),
   midi.NoteOnEvent(tick=0, channel=0, data=[79, 39]),
   midi.NoteOnEvent(tick=0, channel=0, data=[76, 39]),
   midi.NoteOnEvent(tick=120, channel=0, data=[76, 0]),
   midi.NoteOnEvent(tick=0, channel=0, data=[79, 0]),
   midi.NoteOnEvent(tick=120, channel=0, data=[76, 41]),
   midi.NoteOnEvent(tick=0, channel=0, data=[73, 41]),
   midi.NoteOnEvent(tick=120, channel=0, data=[73, 0]),
   midi.NoteOnEvent(tick=0, channel=0, data=[76, 0]),
   midi.NoteOnEvent(tick=0, channel=0, data=[81, 44]),
   midi.NoteOnEvent(tick=120, channel=0, data=[81, 0]),
   midi.NoteOnEvent(tick=0, channel=0, data=[73, 38]),
   midi.NoteOnEvent(tick=0, channel=0, data=[76, 38]),
   midi.NoteOnEvent(tick=120, channel=0, data=[76, 0]),
   midi.NoteOnEvent(tick=0, channel=0, data=[73, 0]),
   midi.NoteOnEvent(tick=0, channel=0, data=[82, 43]),
   midi.NoteOnEvent(tick=120, channel=0, data=[82, 0]),
   midi.NoteOnEvent(tick=0, channel=0, data=[76, 36]),
   midi.NoteOnEvent(tick=0, channel=0, data=[73, 36]),
   midi.NoteOnEvent(tick=120, channel=0, data=[73, 0]),
   midi.NoteOnEvent(tick=0, channel=0, data=[76, 0]),
   midi.NoteOnEvent(tick=120, channel=0, data=[73, 38]),
   midi.NoteOnEvent(tick=0, channel=0, data=[70, 38]),
   midi.NoteOnEvent(tick=120, channel=0, data=[70, 0]),
   midi.NoteOnEvent(tick=0, channel=0, data=[73, 0]),
   midi.NoteOnEvent(tick=0, channel=0, data=[78, 42]),
   midi.NoteOnEvent(tick=120, channel=0, data=[78, 0]),
   midi.NoteOnEvent(tick=0, channel=0, data=[70, 35]),
   midi.NoteOnEvent(tick=0, channel=0, data=[73, 35]),
   midi.NoteOnEvent(tick=120, channel=0, data=[73, 0]),
   midi.NoteOnEvent(tick=0, channel=0, data=[70, 0]),
   midi.NoteOnEvent(tick=0, channel=0, data=[79, 40]),
   midi.NoteOnEvent(tick=120, channel=0, data=[79, 0]),
   midi.NoteOnEvent(tick=0, channel=0, data=[73, 33]),
   midi.NoteOnEvent(tick=0, channel=0, data=[70, 33]),
   midi.NoteOnEvent(tick=120, channel=0, data=[70, 0]),
   midi.NoteOnEvent(tick=0, channel=0, data=[73, 0]),
   midi.NoteOnEvent(tick=120, channel=0, data=[70, 34]),
   midi.NoteOnEvent(tick=0, channel=0, data=[67, 34]),
   midi.NoteOnEvent(tick=120, channel=0, data=[67, 0]),
   midi.NoteOnEvent(tick=0, channel=0, data=[70, 0]),
   midi.NoteOnEvent(tick=0, channel=0, data=[75, 37]),
   midi.NoteOnEvent(tick=120, channel=0, data=[75, 0]),
   midi.NoteOnEvent(tick=0, channel=0, data=[67, 31]),
   midi.NoteOnEvent(tick=0, channel=0, data=[70, 31]),
   midi.NoteOnEvent(tick=120, channel=0, data=[70, 0]),
   midi.NoteOnEvent(tick=0, channel=0, data=[67, 0]),
   midi.NoteOnEvent(tick=0, channel=0, data=[76, 35]),
   midi.NoteOnEvent(tick=120, channel=0, data=[76, 0]),
   midi.NoteOnEvent(tick=0, channel=0, data=[70, 30]),
   midi.NoteOnEvent(tick=0, channel=0, data=[67, 30]),
   midi.NoteOnEvent(tick=120, channel=0, data=[67, 0]),
   midi.NoteOnEvent(tick=0, channel=0, data=[70, 0]),
   midi.NoteOnEvent(tick=1560, channel=0, data=[67, 29]),
   midi.NoteOnEvent(tick=0, channel=0, data=[70, 29]),
   midi.NoteOnEvent(tick=120, channel=0, data=[70, 0]),
   midi.NoteOnEvent(tick=0, channel=0, data=[67, 0]),
   midi.NoteOnEvent(tick=0, channel=0, data=[72, 35]),
   midi.NoteOnEvent(tick=120, channel=0, data=[72, 0]),
   midi.NoteOnEvent(tick=0, channel=0, data=[67, 30]),
   midi.NoteOnEvent(tick=0, channel=0, data=[70, 30]),
   midi.NoteOnEvent(tick=120, channel=0, data=[70, 0]),
   midi.NoteOnEvent(tick=0, channel=0, data=[67, 0]),
   midi.NoteOnEvent(tick=0, channel=0, data=[73, 35]),
   midi.NoteOnEvent(tick=120, channel=0, data=[73, 0]),
   midi.NoteOnEvent(tick=0, channel=0, data=[67, 31]),
   midi.NoteOnEvent(tick=0, channel=0, data=[70, 31]),
   midi.NoteOnEvent(tick=120, channel=0, data=[70, 0]),
   midi.NoteOnEvent(tick=0, channel=0, data=[67, 0]),
   midi.NoteOnEvent(tick=120, channel=0, data=[67, 29]),
   midi.NoteOnEvent(tick=0, channel=0, data=[70, 29]),
   midi.NoteOnEvent(tick=120, channel=0, data=[70, 0]),
   midi.NoteOnEvent(tick=0, channel=0, data=[67, 0]),
   midi.NoteOnEvent(tick=0, channel=0, data=[72, 35]),
   midi.NoteOnEvent(tick=120, channel=0, data=[72, 0]),
   midi.NoteOnEvent(tick=0, channel=0, data=[67, 31]),
   midi.NoteOnEvent(tick=0, channel=0, data=[70, 31]),
   midi.NoteOnEvent(tick=120, channel=0, data=[70, 0]),
   midi.NoteOnEvent(tick=0, channel=0, data=[67, 0]),
   midi.NoteOnEvent(tick=0, channel=0, data=[73, 35]),
   midi.NoteOnEvent(tick=120, channel=0, data=[73, 0]),
   midi.NoteOnEvent(tick=0, channel=0, data=[67, 30]),
   midi.NoteOnEvent(tick=0, channel=0, data=[70, 30]),
   midi.NoteOnEvent(tick=120, channel=0, data=[70, 0]),
   midi.NoteOnEvent(tick=0, channel=0, data=[67, 0]),
   midi.NoteOnEvent(tick=0, channel=0, data=[78, 47]),
   midi.NoteOnEvent(tick=1440, channel=0, data=[78, 0]),
   midi.NoteOnEvent(tick=120, channel=0, data=[64, 29]),
   midi.NoteOnEvent(tick=0, channel=0, data=[70, 29]),
   midi.NoteOnEvent(tick=120, channel=0, data=[70, 0]),
   midi.NoteOnEvent(tick=0, channel=0, data=[64, 0]),
   midi.NoteOnEvent(tick=0, channel=0, data=[73, 37]),
   midi.NoteOnEvent(tick=120, channel=0, data=[73, 0]),
   midi.NoteOnEvent(tick=0, channel=0, data=[64, 32]),
   midi.NoteOnEvent(tick=0, channel=0, data=[70, 32]),
   midi.NoteOnEvent(tick=120, channel=0, data=[70, 0]),
   midi.NoteOnEvent(tick=0, channel=0, data=[64, 0]),
   midi.NoteOnEvent(tick=0, channel=0, data=[74, 38]),
   midi.NoteOnEvent(tick=120, channel=0, data=[74, 0]),
   midi.NoteOnEvent(tick=0, channel=0, data=[64, 35]),
   midi.NoteOnEvent(tick=0, channel=0, data=[70, 35]),
   midi.NoteOnEvent(tick=120, channel=0, data=[70, 0]),
   midi.NoteOnEvent(tick=0, channel=0, data=[64, 0]),
   midi.NoteOnEvent(tick=120, channel=0, data=[64, 34]),
   midi.NoteOnEvent(tick=0, channel=0, data=[70, 34]),
   midi.NoteOnEvent(tick=120, channel=0, data=[70, 0]),
   midi.NoteOnEvent(tick=0, channel=0, data=[64, 0]),
   midi.NoteOnEvent(tick=0, channel=0, data=[73, 42]),
   midi.NoteOnEvent(tick=120, channel=0, data=[73, 0]),
   midi.NoteOnEvent(tick=0, channel=0, data=[64, 37]),
   midi.NoteOnEvent(tick=0, channel=0, data=[70, 37]),
   midi.NoteOnEvent(tick=120, channel=0, data=[70, 0]),
   midi.NoteOnEvent(tick=0, channel=0, data=[64, 0]),
   midi.NoteOnEvent(tick=0, channel=0, data=[74, 43]),
   midi.NoteOnEvent(tick=120, channel=0, data=[74, 0]),
   midi.NoteOnEvent(tick=0, channel=0, data=[64, 38]),
   midi.NoteOnEvent(tick=0, channel=0, data=[70, 38]),
   midi.NoteOnEvent(tick=120, channel=0, data=[70, 0]),
   midi.NoteOnEvent(tick=0, channel=0, data=[64, 0]),
   midi.NoteOnEvent(tick=0, channel=0, data=[79, 62]),
   midi.NoteOnEvent(tick=1920, channel=0, data=[79, 0]),
   midi.NoteOnEvent(tick=0, channel=0, data=[69, 43]),
   midi.NoteOnEvent(tick=240, channel=0, data=[69, 0]),
   midi.NoteOnEvent(tick=0, channel=0, data=[70, 50]),
   midi.NoteOnEvent(tick=480, channel=0, data=[70, 0]),
   midi.NoteOnEvent(tick=0, channel=0, data=[72, 43]),
   midi.NoteOnEvent(tick=240, channel=0, data=[72, 0]),
   midi.NoteOnEvent(tick=0, channel=0, data=[73, 52]),
   midi.NoteOnEvent(tick=480, channel=0, data=[73, 0]),
   midi.NoteOnEvent(tick=0, channel=0, data=[74, 43]),
   midi.NoteOnEvent(tick=240, channel=0, data=[74, 0]),
   midi.NoteOnEvent(tick=0, channel=0, data=[66, 51]),
   midi.NoteOnEvent(tick=480, channel=0, data=[66, 0]),
   midi.NoteOnEvent(tick=0, channel=0, data=[67, 37]),
   midi.NoteOnEvent(tick=240, channel=0, data=[67, 0]),
   midi.NoteOnEvent(tick=0, channel=0, data=[69, 48]),
   midi.NoteOnEvent(tick=480, channel=0, data=[69, 0]),
   midi.NoteOnEvent(tick=0, channel=0, data=[70, 39]),
   midi.NoteOnEvent(tick=240, channel=0, data=[70, 0]),
   midi.NoteOnEvent(tick=0, channel=0, data=[61, 35]),
   midi.NoteOnEvent(tick=480, channel=0, data=[61, 0]),
   midi.NoteOnEvent(tick=0, channel=0, data=[62, 26]),
   midi.NoteOnEvent(tick=240, channel=0, data=[62, 0]),
   midi.NoteOnEvent(tick=0, channel=0, data=[64, 39]),
   midi.NoteOnEvent(tick=480, channel=0, data=[64, 0]),
   midi.NoteOnEvent(tick=0, channel=0, data=[65, 25]),
   midi.NoteOnEvent(tick=180, channel=0, data=[65, 0]),
   midi.NoteOnEvent(tick=60, channel=0, data=[67, 34]),
   midi.NoteOnEvent(tick=480, channel=0, data=[67, 0]),
   midi.NoteOnEvent(tick=0, channel=0, data=[68, 27]),
   midi.NoteOnEvent(tick=240, channel=0, data=[68, 0]),
   midi.NoteOnEvent(tick=0, channel=0, data=[57, 30]),
   midi.NoteOnEvent(tick=0, channel=0, data=[69, 37]),
   midi.NoteOnEvent(tick=360, channel=0, data=[69, 0]),
   midi.NoteOnEvent(tick=0, channel=0, data=[67, 27]),
   midi.NoteOnEvent(tick=120, channel=0, data=[67, 0]),
   midi.NoteOnEvent(tick=0, channel=0, data=[65, 27]),
   midi.NoteOnEvent(tick=120, channel=0, data=[65, 0]),
   midi.NoteOnEvent(tick=0, channel=0, data=[67, 27]),
   midi.NoteOnEvent(tick=120, channel=0, data=[67, 0]),
   midi.NoteOnEvent(tick=0, channel=0, data=[57, 0]),
   midi.NoteOnEvent(tick=0, channel=0, data=[58, 27]),
   midi.NoteOnEvent(tick=0, channel=0, data=[69, 32]),
   midi.NoteOnEvent(tick=480, channel=0, data=[69, 0]),
   midi.NoteOnEvent(tick=0, channel=0, data=[65, 32]),
   midi.NoteOnEvent(tick=240, channel=0, data=[65, 0]),
   midi.NoteOnEvent(tick=0, channel=0, data=[58, 0]),
   midi.NoteOnEvent(tick=0, channel=0, data=[60, 30]),
   midi.NoteOnEvent(tick=0, channel=0, data=[69, 37]),
   midi.NoteOnEvent(tick=360, channel=0, data=[69, 0]),
   midi.NoteOnEvent(tick=0, channel=0, data=[67, 28]),
   midi.NoteOnEvent(tick=120, channel=0, data=[67, 0]),
   midi.NoteOnEvent(tick=0, channel=0, data=[65, 28]),
   midi.NoteOnEvent(tick=120, channel=0, data=[65, 0]),
   midi.NoteOnEvent(tick=0, channel=0, data=[67, 28]),
   midi.NoteOnEvent(tick=120, channel=0, data=[67, 0]),
   midi.NoteOnEvent(tick=0, channel=0, data=[60, 0]),
   midi.NoteOnEvent(tick=0, channel=0, data=[58, 27]),
   midi.NoteOnEvent(tick=0, channel=0, data=[69, 32]),
   midi.NoteOnEvent(tick=660, channel=0, data=[69, 0]),
   midi.NoteOnEvent(tick=0, channel=0, data=[58, 0]),
   midi.NoteOnEvent(tick=60, channel=0, data=[65, 36]),
   midi.NoteOnEvent(tick=0, channel=0, data=[72, 45]),
   midi.NoteOnEvent(tick=360, channel=0, data=[72, 0]),
   midi.NoteOnEvent(tick=0, channel=0, data=[74, 38]),
   midi.NoteOnEvent(tick=120, channel=0, data=[74, 0]),
   midi.NoteOnEvent(tick=0, channel=0, data=[76, 42]),
   midi.NoteOnEvent(tick=120, channel=0, data=[76, 0]),
   midi.NoteOnEvent(tick=0, channel=0, data=[74, 38]),
   midi.NoteOnEvent(tick=120, channel=0, data=[74, 0]),
   midi.NoteOnEvent(tick=0, channel=0, data=[65, 0]),
   midi.NoteOnEvent(tick=0, channel=0, data=[72, 47]),
   midi.NoteOnEvent(tick=0, channel=0, data=[65, 38]),
   midi.NoteOnEvent(tick=480, channel=0, data=[65, 0]),
   midi.NoteOnEvent(tick=0, channel=0, data=[72, 0]),
   midi.NoteOnEvent(tick=0, channel=0, data=[64, 42]),
   midi.NoteOnEvent(tick=0, channel=0, data=[68, 42]),
   midi.NoteOnEvent(tick=240, channel=0, data=[68, 0]),
   midi.NoteOnEvent(tick=0, channel=0, data=[64, 0]),
   midi.NoteOnEvent(tick=0, channel=0, data=[72, 48]),
   midi.NoteOnEvent(tick=0, channel=0, data=[65, 40]),
   midi.NoteOnEvent(tick=720, channel=0, data=[72, 0]),
   midi.NoteOnEvent(tick=0, channel=0, data=[77, 52]),
   midi.NoteOnEvent(tick=480, channel=0, data=[77, 0]),
   midi.NoteOnEvent(tick=0, channel=0, data=[65, 0]),
   midi.NoteOnEvent(tick=240, channel=0, data=[60, 40]),
   midi.NoteOnEvent(tick=0, channel=0, data=[72, 50]),
   midi.NoteOnEvent(tick=360, channel=0, data=[72, 0]),
   midi.NoteOnEvent(tick=0, channel=0, data=[71, 37]),
   midi.NoteOnEvent(tick=120, channel=0, data=[71, 0]),
   midi.NoteOnEvent(tick=0, channel=0, data=[69, 37]),
   midi.NoteOnEvent(tick=120, channel=0, data=[69, 0]),
   midi.NoteOnEvent(tick=0, channel=0, data=[71, 37]),
   midi.NoteOnEvent(tick=120, channel=0, data=[71, 0]),
   midi.NoteOnEvent(tick=0, channel=0, data=[60, 0]),
   midi.NoteOnEvent(tick=0, channel=0, data=[62, 36]),
   midi.NoteOnEvent(tick=0, channel=0, data=[72, 43]),
   midi.NoteOnEvent(tick=480, channel=0, data=[72, 0]),
   midi.NoteOnEvent(tick=0, channel=0, data=[69, 43]),
   midi.NoteOnEvent(tick=240, channel=0, data=[69, 0]),
   midi.NoteOnEvent(tick=0, channel=0, data=[62, 0]),
   midi.NoteOnEvent(tick=0, channel=0, data=[64, 40]),
   midi.NoteOnEvent(tick=0, channel=0, data=[72, 50]),
   midi.NoteOnEvent(tick=360, channel=0, data=[72, 0]),
   midi.NoteOnEvent(tick=0, channel=0, data=[71, 38]),
   midi.NoteOnEvent(tick=120, channel=0, data=[71, 0]),
   midi.NoteOnEvent(tick=0, channel=0, data=[69, 38]),
   midi.NoteOnEvent(tick=120, channel=0, data=[69, 0]),
   midi.NoteOnEvent(tick=0, channel=0, data=[71, 38]),
   midi.NoteOnEvent(tick=120, channel=0, data=[71, 0]),
   midi.NoteOnEvent(tick=0, channel=0, data=[64, 0]),
   midi.NoteOnEvent(tick=0, channel=0, data=[62, 36]),
   midi.NoteOnEvent(tick=0, channel=0, data=[72, 43]),
   midi.NoteOnEvent(tick=660, channel=0, data=[72, 0]),
   midi.NoteOnEvent(tick=0, channel=0, data=[62, 0]),
   midi.NoteOnEvent(tick=60, channel=0, data=[69, 40]),
   midi.NoteOnEvent(tick=0, channel=0, data=[76, 50]),
   midi.NoteOnEvent(tick=360, channel=0, data=[76, 0]),
   midi.NoteOnEvent(tick=0, channel=0, data=[77, 42]),
   midi.NoteOnEvent(tick=120, channel=0, data=[77, 0]),
   midi.NoteOnEvent(tick=0, channel=0, data=[79, 46]),
   midi.NoteOnEvent(tick=120, channel=0, data=[79, 0]),
   midi.NoteOnEvent(tick=0, channel=0, data=[77, 42]),
   midi.NoteOnEvent(tick=120, channel=0, data=[77, 0]),
   midi.NoteOnEvent(tick=0, channel=0, data=[69, 0]),
   midi.NoteOnEvent(tick=0, channel=0, data=[76, 51]),
   midi.NoteOnEvent(tick=0, channel=0, data=[69, 41]),
   midi.NoteOnEvent(tick=480, channel=0, data=[69, 0]),
   midi.NoteOnEvent(tick=0, channel=0, data=[76, 0]),
   midi.NoteOnEvent(tick=0, channel=0, data=[68, 45]),
   midi.NoteOnEvent(tick=0, channel=0, data=[72, 45]),
   midi.NoteOnEvent(tick=240, channel=0, data=[72, 0]),
   midi.NoteOnEvent(tick=0, channel=0, data=[68, 0]),
   midi.NoteOnEvent(tick=0, channel=0, data=[76, 51]),
   midi.NoteOnEvent(tick=0, channel=0, data=[69, 42]),
   midi.NoteOnEvent(tick=720, channel=0, data=[76, 0]),
   midi.NoteOnEvent(tick=0, channel=0, data=[81, 53]),
   midi.NoteOnEvent(tick=240, channel=0, data=[69, 0]),
   midi.NoteOnEvent(tick=0, channel=0, data=[68, 57]),
   midi.NoteOnEvent(tick=240, channel=0, data=[68, 0]),
   midi.NoteOnEvent(tick=0, channel=0, data=[67, 61]),
   midi.NoteOnEvent(tick=240, channel=0, data=[67, 0]),
   midi.NoteOnEvent(tick=0, channel=0, data=[66, 70]),
   midi.NoteOnEvent(tick=480, channel=0, data=[81, 0]),
   midi.NoteOnEvent(tick=0, channel=0, data=[78, 53]),
   midi.NoteOnEvent(tick=240, channel=0, data=[78, 0]),
   midi.NoteOnEvent(tick=0, channel=0, data=[74, 53]),
   midi.NoteOnEvent(tick=240, channel=0, data=[74, 0]),
   midi.NoteOnEvent(tick=0, channel=0, data=[75, 53]),
   midi.NoteOnEvent(tick=240, channel=0, data=[75, 0]),
   midi.NoteOnEvent(tick=0, channel=0, data=[76, 53]),
   midi.NoteOnEvent(tick=240, channel=0, data=[76, 0]),
   midi.NoteOnEvent(tick=0, channel=0, data=[66, 0]),
   midi.NoteOnEvent(tick=0, channel=0, data=[65, 42]),
   midi.NoteOnEvent(tick=0, channel=0, data=[77, 53]),
   midi.NoteOnEvent(tick=480, channel=0, data=[77, 0]),
   midi.NoteOnEvent(tick=0, channel=0, data=[74, 50]),
   midi.NoteOnEvent(tick=240, channel=0, data=[74, 0]),
   midi.NoteOnEvent(tick=0, channel=0, data=[71, 49]),
   midi.NoteOnEvent(tick=480, channel=0, data=[71, 0]),
   midi.NoteOnEvent(tick=0, channel=0, data=[65, 0]),
   midi.NoteOnEvent(tick=240, channel=0, data=[66, 64]),
   midi.NoteOnEvent(tick=240, channel=0, data=[81, 53]),
   midi.NoteOnEvent(tick=240, channel=0, data=[81, 0]),
   midi.NoteOnEvent(tick=0, channel=0, data=[78, 47]),
   midi.NoteOnEvent(tick=240, channel=0, data=[78, 0]),
   midi.NoteOnEvent(tick=0, channel=0, data=[74, 49]),
   midi.NoteOnEvent(tick=240, channel=0, data=[74, 0]),
   midi.NoteOnEvent(tick=0, channel=0, data=[75, 53]),
   midi.NoteOnEvent(tick=240, channel=0, data=[75, 0]),
   midi.NoteOnEvent(tick=0, channel=0, data=[76, 54]),
   midi.NoteOnEvent(tick=240, channel=0, data=[66, 0]),
   midi.NoteOnEvent(tick=0, channel=0, data=[65, 42]),
   midi.NoteOnEvent(tick=240, channel=0, data=[76, 0]),
   midi.NoteOnEvent(tick=0, channel=0, data=[77, 62]),
   midi.NoteOnEvent(tick=240, channel=0, data=[77, 0]),
   midi.NoteOnEvent(tick=0, channel=0, data=[74, 53]),
   midi.NoteOnEvent(tick=240, channel=0, data=[74, 0]),
   midi.NoteOnEvent(tick=0, channel=0, data=[71, 56]),
   midi.NoteOnEvent(tick=630, channel=0, data=[71, 0]),
   midi.NoteOnEvent(tick=0, channel=0, data=[65, 0]),
   midi.NoteOnEvent(tick=90, channel=0, data=[74, 57]),
   midi.NoteOnEvent(tick=0, channel=0, data=[86, 80]),
   midi.NoteOnEvent(tick=480, channel=0, data=[86, 0]),
   midi.NoteOnEvent(tick=0, channel=0, data=[82, 62]),
   midi.NoteOnEvent(tick=240, channel=0, data=[82, 0]),
   midi.NoteOnEvent(tick=0, channel=0, data=[78, 53]),
   midi.NoteOnEvent(tick=240, channel=0, data=[78, 0]),
   midi.NoteOnEvent(tick=0, channel=0, data=[79, 60]),
   midi.NoteOnEvent(tick=240, channel=0, data=[79, 0]),
   midi.NoteOnEvent(tick=0, channel=0, data=[81, 63]),
   midi.NoteOnEvent(tick=240, channel=0, data=[81, 0]),
   midi.NoteOnEvent(tick=0, channel=0, data=[74, 0]),
   midi.NoteOnEvent(tick=0, channel=0, data=[82, 71]),
   midi.NoteOnEvent(tick=0, channel=0, data=[70, 60]),
   midi.NoteOnEvent(tick=480, channel=0, data=[82, 0]),
   midi.NoteOnEvent(tick=0, channel=0, data=[79, 57]),
   midi.NoteOnEvent(tick=240, channel=0, data=[79, 0]),
   midi.NoteOnEvent(tick=0, channel=0, data=[76, 53]),
   midi.NoteOnEvent(tick=720, channel=0, data=[76, 0]),
   midi.NoteOnEvent(tick=0, channel=0, data=[70, 0]),
   midi.NoteOnEvent(tick=0, channel=0, data=[74, 68]),
   midi.NoteOnEvent(tick=240, channel=0, data=[86, 70]),
   midi.NoteOnEvent(tick=240, channel=0, data=[86, 0]),
   midi.NoteOnEvent(tick=0, channel=0, data=[82, 62]),
   midi.NoteOnEvent(tick=240, channel=0, data=[82, 0]),
   midi.NoteOnEvent(tick=0, channel=0, data=[78, 53]),
   midi.NoteOnEvent(tick=240, channel=0, data=[78, 0]),
   midi.NoteOnEvent(tick=0, channel=0, data=[79, 60]),
   midi.NoteOnEvent(tick=240, channel=0, data=[79, 0]),
   midi.NoteOnEvent(tick=0, channel=0, data=[81, 63]),
   midi.NoteOnEvent(tick=240, channel=0, data=[74, 0]),
   midi.NoteOnEvent(tick=0, channel=0, data=[70, 59]),
   midi.NoteOnEvent(tick=240, channel=0, data=[81, 0]),
   midi.NoteOnEvent(tick=0, channel=0, data=[82, 62]),
   midi.NoteOnEvent(tick=240, channel=0, data=[82, 0]),
   midi.NoteOnEvent(tick=0, channel=0, data=[79, 57]),
   midi.NoteOnEvent(tick=240, channel=0, data=[79, 0]),
   midi.NoteOnEvent(tick=0, channel=0, data=[73, 56]),
   midi.NoteOnEvent(tick=240, channel=0, data=[73, 0]),
   midi.NoteOnEvent(tick=0, channel=0, data=[74, 58]),
   midi.NoteOnEvent(tick=240, channel=0, data=[74, 0]),
   midi.NoteOnEvent(tick=0, channel=0, data=[76, 63]),
   midi.NoteOnEvent(tick=240, channel=0, data=[70, 0]),
   midi.NoteOnEvent(tick=240, channel=0, data=[76, 0]),
   midi.NoteOnEvent(tick=0, channel=0, data=[77, 58]),
   midi.NoteOnEvent(tick=240, channel=0, data=[77, 0]),
   midi.NoteOnEvent(tick=0, channel=0, data=[74, 53]),
   midi.NoteOnEvent(tick=240, channel=0, data=[74, 0]),
   midi.NoteOnEvent(tick=0, channel=0, data=[66, 47]),
   midi.NoteOnEvent(tick=240, channel=0, data=[66, 0]),
   midi.NoteOnEvent(tick=0, channel=0, data=[67, 43]),
   midi.NoteOnEvent(tick=240, channel=0, data=[67, 0]),
   midi.NoteOnEvent(tick=0, channel=0, data=[69, 44]),
   midi.NoteOnEvent(tick=240, channel=0, data=[69, 0]),
   midi.NoteOnEvent(tick=0, channel=0, data=[70, 46]),
   midi.NoteOnEvent(tick=240, channel=0, data=[70, 0]),
   midi.NoteOnEvent(tick=0, channel=0, data=[73, 42]),
   midi.NoteOnEvent(tick=240, channel=0, data=[73, 0]),
   midi.NoteOnEvent(tick=0, channel=0, data=[74, 39]),
   midi.NoteOnEvent(tick=240, channel=0, data=[74, 0]),
   midi.NoteOnEvent(tick=0, channel=0, data=[78, 31]),
   midi.NoteOnEvent(tick=240, channel=0, data=[78, 0]),
   midi.NoteOnEvent(tick=0, channel=0, data=[70, 25]),
   midi.NoteOnEvent(tick=0, channel=0, data=[74, 25]),
   midi.NoteOnEvent(tick=0, channel=0, data=[79, 32]),
   midi.NoteOnEvent(tick=60, channel=0, data=[79, 0]),
   midi.NoteOnEvent(tick=0, channel=0, data=[74, 0]),
   midi.NoteOnEvent(tick=0, channel=0, data=[70, 0]),
   midi.NoteOnEvent(tick=180, channel=0, data=[74, 26]),
   midi.NoteOnEvent(tick=0, channel=0, data=[79, 26]),
   midi.NoteOnEvent(tick=0, channel=0, data=[82, 33]),
   midi.NoteOnEvent(tick=60, channel=0, data=[82, 0]),
   midi.NoteOnEvent(tick=0, channel=0, data=[79, 0]),
   midi.NoteOnEvent(tick=0, channel=0, data=[74, 0]),
   midi.NoteOnEvent(tick=180, channel=0, data=[86, 40]),
   midi.NoteOnEvent(tick=0, channel=0, data=[82, 32]),
   midi.NoteOnEvent(tick=0, channel=0, data=[79, 32]),
   midi.NoteOnEvent(tick=60, channel=0, data=[79, 0]),
   midi.NoteOnEvent(tick=0, channel=0, data=[82, 0]),
   midi.NoteOnEvent(tick=0, channel=0, data=[86, 0]),
   midi.NoteOnEvent(tick=1380, channel=0, data=[58, 36]),
   midi.NoteOnEvent(tick=0, channel=0, data=[64, 36]),
   midi.NoteOnEvent(tick=0, channel=0, data=[69, 40]),
   midi.NoteOnEvent(tick=1440, channel=0, data=[69, 0]),
   midi.NoteOnEvent(tick=0, channel=0, data=[64, 0]),
   midi.NoteOnEvent(tick=0, channel=0, data=[58, 0]),
   midi.NoteOnEvent(tick=0, channel=0, data=[57, 32]),
   midi.NoteOnEvent(tick=0, channel=0, data=[65, 40]),
   midi.NoteOnEvent(tick=360, channel=0, data=[65, 0]),
   midi.NoteOnEvent(tick=0, channel=0, data=[64, 30]),
   midi.NoteOnEvent(tick=120, channel=0, data=[64, 0]),
   midi.NoteOnEvent(tick=0, channel=0, data=[65, 30]),
   midi.NoteOnEvent(tick=120, channel=0, data=[65, 0]),
   midi.NoteOnEvent(tick=0, channel=0, data=[67, 30]),
   midi.NoteOnEvent(tick=120, channel=0, data=[67, 0]),
   midi.NoteOnEvent(tick=0, channel=0, data=[57, 0]),
   midi.NoteOnEvent(tick=0, channel=0, data=[58, 30]),
   midi.NoteOnEvent(tick=0, channel=0, data=[64, 38]),
   midi.NoteOnEvent(tick=0, channel=0, data=[69, 34]),
   midi.NoteOnEvent(tick=720, channel=0, data=[69, 0]),
   midi.NoteOnEvent(tick=0, channel=0, data=[64, 0]),
   midi.NoteOnEvent(tick=0, channel=0, data=[58, 0]),
   midi.NoteOnEvent(tick=0, channel=0, data=[65, 40]),
   midi.NoteOnEvent(tick=360, channel=0, data=[65, 0]),
   midi.NoteOnEvent(tick=0, channel=0, data=[64, 30]),
   midi.NoteOnEvent(tick=120, channel=0, data=[64, 0]),
   midi.NoteOnEvent(tick=0, channel=0, data=[65, 30]),
   midi.NoteOnEvent(tick=120, channel=0, data=[65, 0]),
   midi.NoteOnEvent(tick=0, channel=0, data=[67, 30]),
   midi.NoteOnEvent(tick=120, channel=0, data=[67, 0]),
   midi.NoteOnEvent(tick=0, channel=0, data=[64, 38]),
   midi.NoteOnEvent(tick=0, channel=0, data=[58, 30]),
   midi.NoteOnEvent(tick=0, channel=0, data=[69, 34]),
   midi.NoteOnEvent(tick=720, channel=0, data=[69, 0]),
   midi.NoteOnEvent(tick=0, channel=0, data=[58, 0]),
   midi.NoteOnEvent(tick=0, channel=0, data=[64, 0]),
   midi.NoteOnEvent(tick=0, channel=0, data=[65, 29]),
   midi.NoteOnEvent(tick=0, channel=0, data=[57, 24]),
   midi.NoteOnEvent(tick=240, channel=0, data=[57, 0]),
   midi.NoteOnEvent(tick=0, channel=0, data=[65, 0]),
   midi.NoteOnEvent(tick=480, channel=0, data=[69, 22]),
   midi.NoteOnEvent(tick=0, channel=0, data=[77, 27]),
   midi.NoteOnEvent(tick=240, channel=0, data=[77, 0]),
   midi.NoteOnEvent(tick=5, channel=0, data=[69, 0]),
   midi.NoteOnEvent(tick=475, channel=0, data=[89, 28]),
   midi.NoteOnEvent(tick=0, channel=0, data=[81, 23]),
   midi.NoteOnEvent(tick=1200, channel=0, data=[81, 0]),
   midi.NoteOnEvent(tick=0, channel=0, data=[89, 0]),
   midi.NoteOnEvent(tick=240, channel=0, data=[62, 34]),
   midi.NoteOnEvent(tick=0, channel=0, data=[67, 42]),
   midi.NoteOnEvent(tick=360, channel=0, data=[67, 0]),
   midi.NoteOnEvent(tick=0, channel=0, data=[66, 31]),
   midi.NoteOnEvent(tick=120, channel=0, data=[66, 0]),
   midi.NoteOnEvent(tick=0, channel=0, data=[67, 31]),
   midi.NoteOnEvent(tick=120, channel=0, data=[67, 0]),
   midi.NoteOnEvent(tick=0, channel=0, data=[69, 31]),
   midi.NoteOnEvent(tick=120, channel=0, data=[69, 0]),
   midi.NoteOnEvent(tick=0, channel=0, data=[70, 36]),
   midi.NoteOnEvent(tick=480, channel=0, data=[62, 0]),
   midi.NoteOnEvent(tick=0, channel=0, data=[64, 36]),
   midi.NoteOnEvent(tick=240, channel=0, data=[64, 0]),
   midi.NoteOnEvent(tick=0, channel=0, data=[65, 34]),
   midi.NoteOnEvent(tick=360, channel=0, data=[70, 0]),
   midi.NoteOnEvent(tick=0, channel=0, data=[69, 36]),
   midi.NoteOnEvent(tick=120, channel=0, data=[69, 0]),
   midi.NoteOnEvent(tick=0, channel=0, data=[70, 38]),
   midi.NoteOnEvent(tick=120, channel=0, data=[70, 0]),
   midi.NoteOnEvent(tick=0, channel=0, data=[72, 40]),
   midi.NoteOnEvent(tick=120, channel=0, data=[72, 0]),
   midi.NoteOnEvent(tick=0, channel=0, data=[74, 44]),
   midi.NoteOnEvent(tick=480, channel=0, data=[65, 0]),
   midi.NoteOnEvent(tick=0, channel=0, data=[66, 42]),
   midi.NoteOnEvent(tick=240, channel=0, data=[66, 0]),
   midi.NoteOnEvent(tick=240, channel=0, data=[67, 48]),
   midi.NoteOnEvent(tick=120, channel=0, data=[67, 0]),
   midi.NoteOnEvent(tick=0, channel=0, data=[74, 0]),
   midi.NoteOnEvent(tick=0, channel=0, data=[73, 42]),
   midi.NoteOnEvent(tick=0, channel=0, data=[70, 42]),
   midi.NoteOnEvent(tick=120, channel=0, data=[70, 0]),
   midi.NoteOnEvent(tick=0, channel=0, data=[73, 0]),
   midi.NoteOnEvent(tick=0, channel=0, data=[67, 46]),
   midi.NoteOnEvent(tick=120, channel=0, data=[67, 0]),
   midi.NoteOnEvent(tick=0, channel=0, data=[70, 42]),
   midi.NoteOnEvent(tick=0, channel=0, data=[74, 42]),
   midi.NoteOnEvent(tick=120, channel=0, data=[74, 0]),
   midi.NoteOnEvent(tick=0, channel=0, data=[70, 0]),
   midi.NoteOnEvent(tick=0, channel=0, data=[70, 47]),
   midi.NoteOnEvent(tick=90, channel=0, data=[70, 0]),
   midi.NoteOnEvent(tick=30, channel=0, data=[74, 41]),
   midi.NoteOnEvent(tick=0, channel=0, data=[78, 41]),
   midi.NoteOnEvent(tick=90, channel=0, data=[78, 0]),
   midi.NoteOnEvent(tick=0, channel=0, data=[74, 0]),
   midi.NoteOnEvent(tick=30, channel=0, data=[70, 45]),
   midi.NoteOnEvent(tick=90, channel=0, data=[70, 0]),
   midi.NoteOnEvent(tick=30, channel=0, data=[79, 39]),
   midi.NoteOnEvent(tick=0, channel=0, data=[74, 39]),
   midi.NoteOnEvent(tick=90, channel=0, data=[74, 0]),
   midi.NoteOnEvent(tick=0, channel=0, data=[79, 0]),
   midi.NoteOnEvent(tick=30, channel=0, data=[74, 43]),
   midi.NoteOnEvent(tick=90, channel=0, data=[74, 0]),
   midi.NoteOnEvent(tick=30, channel=0, data=[81, 37]),
   midi.NoteOnEvent(tick=0, channel=0, data=[79, 37]),
   midi.NoteOnEvent(tick=90, channel=0, data=[79, 0]),
   midi.NoteOnEvent(tick=0, channel=0, data=[81, 0]),
   midi.NoteOnEvent(tick=30, channel=0, data=[74, 43]),
   midi.NoteOnEvent(tick=90, channel=0, data=[74, 0]),
   midi.NoteOnEvent(tick=30, channel=0, data=[82, 36]),
   midi.NoteOnEvent(tick=0, channel=0, data=[79, 36]),
   midi.NoteOnEvent(tick=90, channel=0, data=[79, 0]),
   midi.NoteOnEvent(tick=0, channel=0, data=[82, 0]),
   midi.NoteOnEvent(tick=30, channel=0, data=[79, 41]),
   midi.NoteOnEvent(tick=90, channel=0, data=[79, 0]),
   midi.NoteOnEvent(tick=30, channel=0, data=[85, 34]),
   midi.NoteOnEvent(tick=0, channel=0, data=[82, 34]),
   midi.NoteOnEvent(tick=90, channel=0, data=[82, 0]),
   midi.NoteOnEvent(tick=0, channel=0, data=[85, 0]),
   midi.NoteOnEvent(tick=30, channel=0, data=[79, 38]),
   midi.NoteOnEvent(tick=90, channel=0, data=[79, 0]),
   midi.NoteOnEvent(tick=30, channel=0, data=[86, 33]),
   midi.NoteOnEvent(tick=0, channel=0, data=[82, 33]),
   midi.NoteOnEvent(tick=90, channel=0, data=[82, 0]),
   midi.NoteOnEvent(tick=0, channel=0, data=[86, 0]),
   midi.NoteOnEvent(tick=30, channel=0, data=[91, 48]),
   midi.NoteOnEvent(tick=120, channel=0, data=[91, 0]),
   midi.NoteOnEvent(tick=600, channel=0, data=[67, 37]),
   midi.NoteOnEvent(tick=0, channel=0, data=[72, 46]),
   midi.NoteOnEvent(tick=360, channel=0, data=[72, 0]),
   midi.NoteOnEvent(tick=0, channel=0, data=[71, 34]),
   midi.NoteOnEvent(tick=120, channel=0, data=[71, 0]),
   midi.NoteOnEvent(tick=0, channel=0, data=[72, 35]),
   midi.NoteOnEvent(tick=120, channel=0, data=[72, 0]),
   midi.NoteOnEvent(tick=0, channel=0, data=[74, 35]),
   midi.NoteOnEvent(tick=120, channel=0, data=[74, 0]),
   midi.NoteOnEvent(tick=0, channel=0, data=[75, 41]),
   midi.NoteOnEvent(tick=480, channel=0, data=[67, 0]),
   midi.NoteOnEvent(tick=0, channel=0, data=[69, 42]),
   midi.NoteOnEvent(tick=240, channel=0, data=[69, 0]),
   midi.NoteOnEvent(tick=0, channel=0, data=[70, 41]),
   midi.NoteOnEvent(tick=360, channel=0, data=[75, 0]),
   midi.NoteOnEvent(tick=0, channel=0, data=[74, 44]),
   midi.NoteOnEvent(tick=120, channel=0, data=[74, 0]),
   midi.NoteOnEvent(tick=0, channel=0, data=[75, 47]),
   midi.NoteOnEvent(tick=120, channel=0, data=[75, 0]),
   midi.NoteOnEvent(tick=0, channel=0, data=[77, 50]),
   midi.NoteOnEvent(tick=120, channel=0, data=[77, 0]),
   midi.NoteOnEvent(tick=0, channel=0, data=[79, 55]),
   midi.NoteOnEvent(tick=480, channel=0, data=[70, 0]),
   midi.NoteOnEvent(tick=0, channel=0, data=[71, 42]),
   midi.NoteOnEvent(tick=240, channel=0, data=[71, 0]),
   midi.NoteOnEvent(tick=240, channel=0, data=[72, 48]),
   midi.NoteOnEvent(tick=120, channel=0, data=[72, 0]),
   midi.NoteOnEvent(tick=0, channel=0, data=[79, 0]),
   midi.NoteOnEvent(tick=0, channel=0, data=[78, 42]),
   midi.NoteOnEvent(tick=0, channel=0, data=[75, 42]),
   midi.NoteOnEvent(tick=120, channel=0, data=[75, 0]),
   midi.NoteOnEvent(tick=0, channel=0, data=[78, 0]),
   midi.NoteOnEvent(tick=0, channel=0, data=[72, 46]),
   midi.NoteOnEvent(tick=120, channel=0, data=[72, 0]),
   midi.NoteOnEvent(tick=0, channel=0, data=[75, 42]),
   midi.NoteOnEvent(tick=0, channel=0, data=[79, 42]),
   midi.NoteOnEvent(tick=120, channel=0, data=[79, 0]),
   midi.NoteOnEvent(tick=0, channel=0, data=[75, 0]),
   midi.NoteOnEvent(tick=0, channel=0, data=[75, 47]),
   midi.NoteOnEvent(tick=90, channel=0, data=[75, 0]),
   midi.NoteOnEvent(tick=30, channel=0, data=[79, 41]),
   midi.NoteOnEvent(tick=0, channel=0, data=[83, 41]),
   midi.NoteOnEvent(tick=90, channel=0, data=[83, 0]),
   midi.NoteOnEvent(tick=0, channel=0, data=[79, 0]),
   midi.NoteOnEvent(tick=30, channel=0, data=[75, 45]),
   midi.NoteOnEvent(tick=90, channel=0, data=[75, 0]),
   midi.NoteOnEvent(tick=30, channel=0, data=[84, 39]),
   midi.NoteOnEvent(tick=0, channel=0, data=[79, 39]),
   midi.NoteOnEvent(tick=90, channel=0, data=[79, 0]),
   midi.NoteOnEvent(tick=0, channel=0, data=[84, 0]),
   midi.NoteOnEvent(tick=30, channel=0, data=[79, 43]),
   midi.NoteOnEvent(tick=90, channel=0, data=[79, 0]),
   midi.NoteOnEvent(tick=30, channel=0, data=[86, 37]),
   midi.NoteOnEvent(tick=0, channel=0, data=[84, 37]),
   midi.NoteOnEvent(tick=90, channel=0, data=[84, 0]),
   midi.NoteOnEvent(tick=0, channel=0, data=[86, 0]),
   midi.NoteOnEvent(tick=30, channel=0, data=[79, 43]),
   midi.NoteOnEvent(tick=90, channel=0, data=[79, 0]),
   midi.NoteOnEvent(tick=30, channel=0, data=[87, 36]),
   midi.NoteOnEvent(tick=0, channel=0, data=[84, 36]),
   midi.NoteOnEvent(tick=90, channel=0, data=[84, 0]),
   midi.NoteOnEvent(tick=0, channel=0, data=[87, 0]),
   midi.NoteOnEvent(tick=30, channel=0, data=[84, 41]),
   midi.NoteOnEvent(tick=90, channel=0, data=[84, 0]),
   midi.NoteOnEvent(tick=30, channel=0, data=[90, 34]),
   midi.NoteOnEvent(tick=0, channel=0, data=[87, 34]),
   midi.NoteOnEvent(tick=90, channel=0, data=[87, 0]),
   midi.NoteOnEvent(tick=0, channel=0, data=[90, 0]),
   midi.NoteOnEvent(tick=30, channel=0, data=[84, 38]),
   midi.NoteOnEvent(tick=90, channel=0, data=[84, 0]),
   midi.NoteOnEvent(tick=30, channel=0, data=[91, 33]),
   midi.NoteOnEvent(tick=0, channel=0, data=[87, 33]),
   midi.NoteOnEvent(tick=90, channel=0, data=[87, 0]),
   midi.NoteOnEvent(tick=0, channel=0, data=[91, 0]),
   midi.NoteOnEvent(tick=30, channel=0, data=[96, 48]),
   midi.NoteOnEvent(tick=120, channel=0, data=[96, 0]),
   midi.NoteOnEvent(tick=720, channel=0, data=[82, 31]),
   midi.NoteOnEvent(tick=0, channel=0, data=[86, 31]),
   midi.NoteOnEvent(tick=120, channel=0, data=[86, 0]),
   midi.NoteOnEvent(tick=0, channel=0, data=[82, 0]),
   midi.NoteOnEvent(tick=0, channel=0, data=[88, 35]),
   midi.NoteOnEvent(tick=120, channel=0, data=[88, 0]),
   midi.NoteOnEvent(tick=0, channel=0, data=[82, 30]),
   midi.NoteOnEvent(tick=0, channel=0, data=[86, 30]),
   midi.NoteOnEvent(tick=120, channel=0, data=[86, 0]),
   midi.NoteOnEvent(tick=0, channel=0, data=[82, 0]),
   midi.NoteOnEvent(tick=0, channel=0, data=[89, 35]),
   midi.NoteOnEvent(tick=120, channel=0, data=[89, 0]),
   midi.NoteOnEvent(tick=0, channel=0, data=[86, 31]),
   midi.NoteOnEvent(tick=0, channel=0, data=[82, 31]),
   midi.NoteOnEvent(tick=120, channel=0, data=[82, 0]),
   midi.NoteOnEvent(tick=0, channel=0, data=[86, 0]),
   midi.NoteOnEvent(tick=120, channel=0, data=[86, 30]),
   midi.NoteOnEvent(tick=0, channel=0, data=[82, 30]),
   midi.NoteOnEvent(tick=120, channel=0, data=[82, 0]),
   midi.NoteOnEvent(tick=0, channel=0, data=[86, 0]),
   midi.NoteOnEvent(tick=0, channel=0, data=[88, 35]),
   midi.NoteOnEvent(tick=120, channel=0, data=[88, 0]),
   midi.NoteOnEvent(tick=0, channel=0, data=[86, 32]),
   midi.NoteOnEvent(tick=0, channel=0, data=[82, 32]),
   midi.NoteOnEvent(tick=120, channel=0, data=[82, 0]),
   midi.NoteOnEvent(tick=0, channel=0, data=[86, 0]),
   midi.NoteOnEvent(tick=0, channel=0, data=[89, 35]),
   midi.NoteOnEvent(tick=120, channel=0, data=[89, 0]),
   midi.NoteOnEvent(tick=0, channel=0, data=[82, 31]),
   midi.NoteOnEvent(tick=0, channel=0, data=[86, 31]),
   midi.NoteOnEvent(tick=120, channel=0, data=[86, 0]),
   midi.NoteOnEvent(tick=0, channel=0, data=[82, 0]),
   midi.NoteOnEvent(tick=120, channel=0, data=[82, 34]),
   midi.NoteOnEvent(tick=0, channel=0, data=[86, 34]),
   midi.NoteOnEvent(tick=120, channel=0, data=[86, 0]),
   midi.NoteOnEvent(tick=0, channel=0, data=[82, 0]),
   midi.NoteOnEvent(tick=0, channel=0, data=[88, 39]),
   midi.NoteOnEvent(tick=120, channel=0, data=[88, 0]),
   midi.NoteOnEvent(tick=0, channel=0, data=[82, 34]),
   midi.NoteOnEvent(tick=0, channel=0, data=[86, 34]),
   midi.NoteOnEvent(tick=120, channel=0, data=[86, 0]),
   midi.NoteOnEvent(tick=0, channel=0, data=[82, 0]),
   midi.NoteOnEvent(tick=0, channel=0, data=[89, 41]),
   midi.NoteOnEvent(tick=120, channel=0, data=[89, 0]),
   midi.NoteOnEvent(tick=0, channel=0, data=[86, 37]),
   midi.NoteOnEvent(tick=0, channel=0, data=[82, 37]),
   midi.NoteOnEvent(tick=120, channel=0, data=[82, 0]),
   midi.NoteOnEvent(tick=0, channel=0, data=[86, 0]),
   midi.NoteOnEvent(tick=120, channel=0, data=[86, 37]),
   midi.NoteOnEvent(tick=0, channel=0, data=[82, 37]),
   midi.NoteOnEvent(tick=120, channel=0, data=[82, 0]),
   midi.NoteOnEvent(tick=0, channel=0, data=[86, 0]),
   midi.NoteOnEvent(tick=0, channel=0, data=[88, 45]),
   midi.NoteOnEvent(tick=120, channel=0, data=[88, 0]),
   midi.NoteOnEvent(tick=0, channel=0, data=[86, 41]),
   midi.NoteOnEvent(tick=0, channel=0, data=[82, 41]),
   midi.NoteOnEvent(tick=120, channel=0, data=[82, 0]),
   midi.NoteOnEvent(tick=0, channel=0, data=[86, 0]),
   midi.NoteOnEvent(tick=0, channel=0, data=[89, 46]),
   midi.NoteOnEvent(tick=120, channel=0, data=[89, 0]),
   midi.NoteOnEvent(tick=0, channel=0, data=[82, 42]),
   midi.NoteOnEvent(tick=0, channel=0, data=[86, 42]),
   midi.NoteOnEvent(tick=120, channel=0, data=[86, 0]),
   midi.NoteOnEvent(tick=0, channel=0, data=[82, 0]),
   midi.NoteOnEvent(tick=120, channel=0, data=[83, 42]),
   midi.NoteOnEvent(tick=0, channel=0, data=[86, 42]),
   midi.NoteOnEvent(tick=120, channel=0, data=[86, 0]),
   midi.NoteOnEvent(tick=0, channel=0, data=[83, 0]),
   midi.NoteOnEvent(tick=0, channel=0, data=[88, 47]),
   midi.NoteOnEvent(tick=120, channel=0, data=[88, 0]),
   midi.NoteOnEvent(tick=0, channel=0, data=[83, 39]),
   midi.NoteOnEvent(tick=0, channel=0, data=[86, 39]),
   midi.NoteOnEvent(tick=120, channel=0, data=[86, 0]),
   midi.NoteOnEvent(tick=0, channel=0, data=[83, 0]),
   midi.NoteOnEvent(tick=0, channel=0, data=[89, 45]),
   midi.NoteOnEvent(tick=120, channel=0, data=[89, 0]),
   midi.NoteOnEvent(tick=0, channel=0, data=[86, 39]),
   midi.NoteOnEvent(tick=0, channel=0, data=[83, 39]),
   midi.NoteOnEvent(tick=120, channel=0, data=[83, 0]),
   midi.NoteOnEvent(tick=0, channel=0, data=[86, 0]),
   midi.NoteOnEvent(tick=120, channel=0, data=[86, 36]),
   midi.NoteOnEvent(tick=0, channel=0, data=[83, 36]),
   midi.NoteOnEvent(tick=120, channel=0, data=[83, 0]),
   midi.NoteOnEvent(tick=0, channel=0, data=[86, 0]),
   midi.NoteOnEvent(tick=0, channel=0, data=[88, 42]),
   midi.NoteOnEvent(tick=120, channel=0, data=[88, 0]),
   midi.NoteOnEvent(tick=0, channel=0, data=[86, 37]),
   midi.NoteOnEvent(tick=0, channel=0, data=[83, 37]),
   midi.NoteOnEvent(tick=120, channel=0, data=[83, 0]),
   midi.NoteOnEvent(tick=0, channel=0, data=[86, 0]),
   midi.NoteOnEvent(tick=0, channel=0, data=[89, 40]),
   midi.NoteOnEvent(tick=120, channel=0, data=[89, 0]),
   midi.NoteOnEvent(tick=0, channel=0, data=[83, 35]),
   midi.NoteOnEvent(tick=0, channel=0, data=[86, 35]),
   midi.NoteOnEvent(tick=120, channel=0, data=[86, 0]),
   midi.NoteOnEvent(tick=0, channel=0, data=[83, 0]),
   midi.NoteOnEvent(tick=120, channel=0, data=[83, 31]),
   midi.NoteOnEvent(tick=0, channel=0, data=[86, 31]),
   midi.NoteOnEvent(tick=120, channel=0, data=[86, 0]),
   midi.NoteOnEvent(tick=0, channel=0, data=[83, 0]),
   midi.NoteOnEvent(tick=0, channel=0, data=[88, 35]),
   midi.NoteOnEvent(tick=120, channel=0, data=[88, 0]),
   midi.NoteOnEvent(tick=0, channel=0, data=[83, 30]),
   midi.NoteOnEvent(tick=0, channel=0, data=[86, 30]),
   midi.NoteOnEvent(tick=120, channel=0, data=[86, 0]),
   midi.NoteOnEvent(tick=0, channel=0, data=[83, 0]),
   midi.NoteOnEvent(tick=0, channel=0, data=[89, 35]),
   midi.NoteOnEvent(tick=120, channel=0, data=[89, 0]),
   midi.NoteOnEvent(tick=0, channel=0, data=[86, 31]),
   midi.NoteOnEvent(tick=0, channel=0, data=[83, 31]),
   midi.NoteOnEvent(tick=120, channel=0, data=[83, 0]),
   midi.NoteOnEvent(tick=0, channel=0, data=[86, 0]),
   midi.NoteOnEvent(tick=120, channel=0, data=[86, 30]),
   midi.NoteOnEvent(tick=0, channel=0, data=[83, 30]),
   midi.NoteOnEvent(tick=120, channel=0, data=[83, 0]),
   midi.NoteOnEvent(tick=0, channel=0, data=[86, 0]),
   midi.NoteOnEvent(tick=0, channel=0, data=[88, 35]),
   midi.NoteOnEvent(tick=120, channel=0, data=[88, 0]),
   midi.NoteOnEvent(tick=0, channel=0, data=[86, 32]),
   midi.NoteOnEvent(tick=0, channel=0, data=[83, 32]),
   midi.NoteOnEvent(tick=120, channel=0, data=[83, 0]),
   midi.NoteOnEvent(tick=0, channel=0, data=[86, 0]),
   midi.NoteOnEvent(tick=0, channel=0, data=[89, 35]),
   midi.NoteOnEvent(tick=120, channel=0, data=[89, 0]),
   midi.NoteOnEvent(tick=0, channel=0, data=[83, 31]),
   midi.NoteOnEvent(tick=0, channel=0, data=[86, 31]),
   midi.NoteOnEvent(tick=120, channel=0, data=[86, 0]),
   midi.NoteOnEvent(tick=0, channel=0, data=[83, 0]),
   midi.NoteOnEvent(tick=120, channel=0, data=[82, 31]),
   midi.NoteOnEvent(tick=0, channel=0, data=[85, 31]),
   midi.NoteOnEvent(tick=120, channel=0, data=[85, 0]),
   midi.NoteOnEvent(tick=0, channel=0, data=[82, 0]),
   midi.NoteOnEvent(tick=0, channel=0, data=[88, 35]),
   midi.NoteOnEvent(tick=120, channel=0, data=[88, 0]),
   midi.NoteOnEvent(tick=0, channel=0, data=[82, 30]),
   midi.NoteOnEvent(tick=0, channel=0, data=[85, 30]),
   midi.NoteOnEvent(tick=120, channel=0, data=[85, 0]),
   midi.NoteOnEvent(tick=0, channel=0, data=[82, 0]),
   midi.NoteOnEvent(tick=0, channel=0, data=[89, 35]),
   midi.NoteOnEvent(tick=120, channel=0, data=[89, 0]),
   midi.NoteOnEvent(tick=0, channel=0, data=[85, 31]),
   midi.NoteOnEvent(tick=0, channel=0, data=[82, 31]),
   midi.NoteOnEvent(tick=120, channel=0, data=[82, 0]),
   midi.NoteOnEvent(tick=0, channel=0, data=[85, 0]),
   midi.NoteOnEvent(tick=120, channel=0, data=[85, 30]),
   midi.NoteOnEvent(tick=0, channel=0, data=[82, 30]),
   midi.NoteOnEvent(tick=120, channel=0, data=[82, 0]),
   midi.NoteOnEvent(tick=0, channel=0, data=[85, 0]),
   midi.NoteOnEvent(tick=0, channel=0, data=[88, 36]),
   midi.NoteOnEvent(tick=120, channel=0, data=[88, 0]),
   midi.NoteOnEvent(tick=0, channel=0, data=[85, 32]),
   midi.NoteOnEvent(tick=0, channel=0, data=[82, 32]),
   midi.NoteOnEvent(tick=120, channel=0, data=[82, 0]),
   midi.NoteOnEvent(tick=0, channel=0, data=[85, 0]),
   midi.NoteOnEvent(tick=0, channel=0, data=[89, 36]),
   midi.NoteOnEvent(tick=120, channel=0, data=[89, 0]),
   midi.NoteOnEvent(tick=0, channel=0, data=[82, 32]),
   midi.NoteOnEvent(tick=0, channel=0, data=[85, 32]),
   midi.NoteOnEvent(tick=120, channel=0, data=[85, 0]),
   midi.NoteOnEvent(tick=0, channel=0, data=[82, 0]),
   midi.NoteOnEvent(tick=120, channel=0, data=[82, 35]),
   midi.NoteOnEvent(tick=0, channel=0, data=[85, 35]),
   midi.NoteOnEvent(tick=120, channel=0, data=[85, 0]),
   midi.NoteOnEvent(tick=0, channel=0, data=[82, 0]),
   midi.NoteOnEvent(tick=0, channel=0, data=[88, 40]),
   midi.NoteOnEvent(tick=120, channel=0, data=[88, 0]),
   midi.NoteOnEvent(tick=0, channel=0, data=[82, 36]),
   midi.NoteOnEvent(tick=0, channel=0, data=[85, 36]),
   midi.NoteOnEvent(tick=120, channel=0, data=[85, 0]),
   midi.NoteOnEvent(tick=0, channel=0, data=[82, 0]),
   midi.NoteOnEvent(tick=0, channel=0, data=[89, 44]),
   midi.NoteOnEvent(tick=120, channel=0, data=[89, 0]),
   midi.NoteOnEvent(tick=0, channel=0, data=[85, 40]),
   midi.NoteOnEvent(tick=0, channel=0, data=[82, 40]),
   midi.NoteOnEvent(tick=120, channel=0, data=[82, 0]),
   midi.NoteOnEvent(tick=0, channel=0, data=[85, 0]),
   midi.NoteOnEvent(tick=120, channel=0, data=[85, 40]),
   midi.NoteOnEvent(tick=0, channel=0, data=[82, 40]),
   midi.NoteOnEvent(tick=120, channel=0, data=[82, 0]),
   midi.NoteOnEvent(tick=0, channel=0, data=[85, 0]),
   midi.NoteOnEvent(tick=0, channel=0, data=[88, 50]),
   midi.NoteOnEvent(tick=120, channel=0, data=[88, 0]),
   midi.NoteOnEvent(tick=0, channel=0, data=[85, 46]),
   midi.NoteOnEvent(tick=0, channel=0, data=[82, 46]),
   midi.NoteOnEvent(tick=120, channel=0, data=[82, 0]),
   midi.NoteOnEvent(tick=0, channel=0, data=[85, 0]),
   midi.NoteOnEvent(tick=0, channel=0, data=[89, 53]),
   midi.NoteOnEvent(tick=120, channel=0, data=[89, 0]),
   midi.NoteOnEvent(tick=0, channel=0, data=[82, 49]),
   midi.NoteOnEvent(tick=0, channel=0, data=[85, 49]),
   midi.NoteOnEvent(tick=120, channel=0, data=[85, 0]),
   midi.NoteOnEvent(tick=0, channel=0, data=[82, 0]),
   midi.NoteOnEvent(tick=120, channel=0, data=[82, 46]),
   midi.NoteOnEvent(tick=0, channel=0, data=[85, 46]),
   midi.NoteOnEvent(tick=120, channel=0, data=[85, 0]),
   midi.NoteOnEvent(tick=0, channel=0, data=[82, 0]),
   midi.NoteOnEvent(tick=0, channel=0, data=[88, 52]),
   midi.NoteOnEvent(tick=120, channel=0, data=[88, 0]),
   midi.NoteOnEvent(tick=0, channel=0, data=[82, 43]),
   midi.NoteOnEvent(tick=0, channel=0, data=[85, 43]),
   midi.NoteOnEvent(tick=120, channel=0, data=[85, 0]),
   midi.NoteOnEvent(tick=0, channel=0, data=[82, 0]),
   midi.NoteOnEvent(tick=0, channel=0, data=[89, 50]),
   midi.NoteOnEvent(tick=120, channel=0, data=[89, 0]),
   midi.NoteOnEvent(tick=0, channel=0, data=[85, 44]),
   midi.NoteOnEvent(tick=0, channel=0, data=[82, 44]),
   midi.NoteOnEvent(tick=120, channel=0, data=[82, 0]),
   midi.NoteOnEvent(tick=0, channel=0, data=[85, 0]),
   midi.NoteOnEvent(tick=120, channel=0, data=[82, 43]),
   midi.NoteOnEvent(tick=0, channel=0, data=[85, 43]),
   midi.NoteOnEvent(tick=120, channel=0, data=[85, 0]),
   midi.NoteOnEvent(tick=0, channel=0, data=[82, 0]),
   midi.NoteOnEvent(tick=0, channel=0, data=[88, 53]),
   midi.NoteOnEvent(tick=120, channel=0, data=[88, 0]),
   midi.NoteOnEvent(tick=0, channel=0, data=[82, 46]),
   midi.NoteOnEvent(tick=0, channel=0, data=[85, 46]),
   midi.NoteOnEvent(tick=120, channel=0, data=[85, 0]),
   midi.NoteOnEvent(tick=0, channel=0, data=[82, 0]),
   midi.NoteOnEvent(tick=0, channel=0, data=[89, 53]),
   midi.NoteOnEvent(tick=120, channel=0, data=[89, 0]),
   midi.NoteOnEvent(tick=0, channel=0, data=[85, 46]),
   midi.NoteOnEvent(tick=0, channel=0, data=[82, 46]),
   midi.NoteOnEvent(tick=120, channel=0, data=[82, 0]),
   midi.NoteOnEvent(tick=0, channel=0, data=[85, 0]),
   midi.NoteOnEvent(tick=120, channel=0, data=[82, 43]),
   midi.NoteOnEvent(tick=0, channel=0, data=[85, 43]),
   midi.NoteOnEvent(tick=120, channel=0, data=[85, 0]),
   midi.NoteOnEvent(tick=0, channel=0, data=[82, 0]),
   midi.NoteOnEvent(tick=0, channel=0, data=[88, 53]),
   midi.NoteOnEvent(tick=120, channel=0, data=[88, 0]),
   midi.NoteOnEvent(tick=0, channel=0, data=[82, 45]),
   midi.NoteOnEvent(tick=0, channel=0, data=[85, 45]),
   midi.NoteOnEvent(tick=120, channel=0, data=[85, 0]),
   midi.NoteOnEvent(tick=0, channel=0, data=[82, 0]),
   midi.NoteOnEvent(tick=0, channel=0, data=[89, 53]),
   midi.NoteOnEvent(tick=120, channel=0, data=[89, 0]),
   midi.NoteOnEvent(tick=0, channel=0, data=[85, 44]),
   midi.NoteOnEvent(tick=0, channel=0, data=[82, 44]),
   midi.NoteOnEvent(tick=120, channel=0, data=[82, 0]),
   midi.NoteOnEvent(tick=0, channel=0, data=[85, 0]),
   midi.NoteOnEvent(tick=120, channel=0, data=[85, 45]),
   midi.NoteOnEvent(tick=0, channel=0, data=[82, 45]),
   midi.NoteOnEvent(tick=120, channel=0, data=[82, 0]),
   midi.NoteOnEvent(tick=0, channel=0, data=[85, 0]),
   midi.NoteOnEvent(tick=0, channel=0, data=[89, 49]),
   midi.NoteOnEvent(tick=120, channel=0, data=[89, 0]),
   midi.NoteOnEvent(tick=0, channel=0, data=[82, 43]),
   midi.NoteOnEvent(tick=0, channel=0, data=[85, 43]),
   midi.NoteOnEvent(tick=120, channel=0, data=[85, 0]),
   midi.NoteOnEvent(tick=0, channel=0, data=[82, 0]),
   midi.NoteOnEvent(tick=0, channel=0, data=[90, 49]),
   midi.NoteOnEvent(tick=120, channel=0, data=[90, 0]),
   midi.NoteOnEvent(tick=0, channel=0, data=[85, 42]),
   midi.NoteOnEvent(tick=0, channel=0, data=[82, 42]),
   midi.NoteOnEvent(tick=120, channel=0, data=[82, 0]),
   midi.NoteOnEvent(tick=0, channel=0, data=[85, 0]),
   midi.NoteOnEvent(tick=120, channel=0, data=[85, 56]),
   midi.NoteOnEvent(tick=0, channel=0, data=[82, 56]),
   midi.NoteOnEvent(tick=120, channel=0, data=[82, 0]),
   midi.NoteOnEvent(tick=0, channel=0, data=[85, 0]),
   midi.NoteOnEvent(tick=0, channel=0, data=[90, 63]),
   midi.NoteOnEvent(tick=120, channel=0, data=[90, 0]),
   midi.NoteOnEvent(tick=0, channel=0, data=[82, 53]),
   midi.NoteOnEvent(tick=0, channel=0, data=[85, 53]),
   midi.NoteOnEvent(tick=120, channel=0, data=[85, 0]),
   midi.NoteOnEvent(tick=0, channel=0, data=[82, 0]),
   midi.NoteOnEvent(tick=0, channel=0, data=[91, 62]),
   midi.NoteOnEvent(tick=120, channel=0, data=[91, 0]),
   midi.NoteOnEvent(tick=0, channel=0, data=[85, 52]),
   midi.NoteOnEvent(tick=0, channel=0, data=[82, 52]),
   midi.NoteOnEvent(tick=120, channel=0, data=[82, 0]),
   midi.NoteOnEvent(tick=0, channel=0, data=[85, 0]),
   midi.NoteOnEvent(tick=120, channel=0, data=[85, 56]),
   midi.NoteOnEvent(tick=0, channel=0, data=[82, 56]),
   midi.NoteOnEvent(tick=120, channel=0, data=[82, 0]),
   midi.NoteOnEvent(tick=0, channel=0, data=[85, 0]),
   midi.NoteOnEvent(tick=0, channel=0, data=[90, 61]),
   midi.NoteOnEvent(tick=120, channel=0, data=[90, 0]),
   midi.NoteOnEvent(tick=0, channel=0, data=[82, 53]),
   midi.NoteOnEvent(tick=0, channel=0, data=[85, 53]),
   midi.NoteOnEvent(tick=120, channel=0, data=[85, 0]),
   midi.NoteOnEvent(tick=0, channel=0, data=[82, 0]),
   midi.NoteOnEvent(tick=0, channel=0, data=[91, 61]),
   midi.NoteOnEvent(tick=120, channel=0, data=[91, 0]),
   midi.NoteOnEvent(tick=0, channel=0, data=[85, 52]),
   midi.NoteOnEvent(tick=0, channel=0, data=[82, 52]),
   midi.NoteOnEvent(tick=120, channel=0, data=[82, 0]),
   midi.NoteOnEvent(tick=0, channel=0, data=[85, 0]),
   midi.NoteOnEvent(tick=120, channel=0, data=[85, 51]),
   midi.NoteOnEvent(tick=0, channel=0, data=[82, 51]),
   midi.NoteOnEvent(tick=120, channel=0, data=[82, 0]),
   midi.NoteOnEvent(tick=0, channel=0, data=[85, 0]),
   midi.NoteOnEvent(tick=0, channel=0, data=[90, 58]),
   midi.NoteOnEvent(tick=120, channel=0, data=[90, 0]),
   midi.NoteOnEvent(tick=0, channel=0, data=[82, 49]),
   midi.NoteOnEvent(tick=0, channel=0, data=[85, 49]),
   midi.NoteOnEvent(tick=120, channel=0, data=[85, 0]),
   midi.NoteOnEvent(tick=0, channel=0, data=[82, 0]),
   midi.NoteOnEvent(tick=0, channel=0, data=[91, 57]),
   midi.NoteOnEvent(tick=120, channel=0, data=[91, 0]),
   midi.NoteOnEvent(tick=0, channel=0, data=[85, 48]),
   midi.NoteOnEvent(tick=0, channel=0, data=[82, 48]),
   midi.NoteOnEvent(tick=120, channel=0, data=[82, 0]),
   midi.NoteOnEvent(tick=0, channel=0, data=[85, 0]),
   midi.NoteOnEvent(tick=120, channel=0, data=[82, 51]),
   midi.NoteOnEvent(tick=0, channel=0, data=[79, 51]),
   midi.NoteOnEvent(tick=120, channel=0, data=[79, 0]),
   midi.NoteOnEvent(tick=0, channel=0, data=[82, 0]),
   midi.NoteOnEvent(tick=0, channel=0, data=[87, 56]),
   midi.NoteOnEvent(tick=120, channel=0, data=[87, 0]),
   midi.NoteOnEvent(tick=0, channel=0, data=[79, 49]),
   midi.NoteOnEvent(tick=0, channel=0, data=[82, 49]),
   midi.NoteOnEvent(tick=120, channel=0, data=[82, 0]),
   midi.NoteOnEvent(tick=0, channel=0, data=[79, 0]),
   midi.NoteOnEvent(tick=0, channel=0, data=[88, 56]),
   midi.NoteOnEvent(tick=120, channel=0, data=[88, 0]),
   midi.NoteOnEvent(tick=0, channel=0, data=[82, 48]),
   midi.NoteOnEvent(tick=0, channel=0, data=[79, 48]),
   midi.NoteOnEvent(tick=120, channel=0, data=[79, 0]),
   midi.NoteOnEvent(tick=0, channel=0, data=[82, 0]),
   midi.NoteOnEvent(tick=120, channel=0, data=[79, 45]),
   midi.NoteOnEvent(tick=0, channel=0, data=[76, 45]),
   midi.NoteOnEvent(tick=120, channel=0, data=[76, 0]),
   midi.NoteOnEvent(tick=0, channel=0, data=[79, 0]),
   midi.NoteOnEvent(tick=0, channel=0, data=[84, 50]),
   midi.NoteOnEvent(tick=120, channel=0, data=[84, 0]),
   midi.NoteOnEvent(tick=0, channel=0, data=[76, 42]),
   midi.NoteOnEvent(tick=0, channel=0, data=[79, 42]),
   midi.NoteOnEvent(tick=120, channel=0, data=[79, 0]),
   midi.NoteOnEvent(tick=0, channel=0, data=[76, 0]),
   midi.NoteOnEvent(tick=0, channel=0, data=[85, 48]),
   midi.NoteOnEvent(tick=120, channel=0, data=[85, 0]),
   midi.NoteOnEvent(tick=0, channel=0, data=[79, 39]),
   midi.NoteOnEvent(tick=0, channel=0, data=[76, 39]),
   midi.NoteOnEvent(tick=120, channel=0, data=[76, 0]),
   midi.NoteOnEvent(tick=0, channel=0, data=[79, 0]),
   midi.NoteOnEvent(tick=120, channel=0, data=[76, 41]),
   midi.NoteOnEvent(tick=0, channel=0, data=[73, 41]),
   midi.NoteOnEvent(tick=120, channel=0, data=[73, 0]),
   midi.NoteOnEvent(tick=0, channel=0, data=[76, 0]),
   midi.NoteOnEvent(tick=0, channel=0, data=[81, 44]),
   midi.NoteOnEvent(tick=120, channel=0, data=[81, 0]),
   midi.NoteOnEvent(tick=0, channel=0, data=[73, 38]),
   midi.NoteOnEvent(tick=0, channel=0, data=[76, 38]),
   midi.NoteOnEvent(tick=120, channel=0, data=[76, 0]),
   midi.NoteOnEvent(tick=0, channel=0, data=[73, 0]),
   midi.NoteOnEvent(tick=0, channel=0, data=[82, 43]),
   midi.NoteOnEvent(tick=120, channel=0, data=[82, 0]),
   midi.NoteOnEvent(tick=0, channel=0, data=[76, 36]),
   midi.NoteOnEvent(tick=0, channel=0, data=[73, 36]),
   midi.NoteOnEvent(tick=120, channel=0, data=[73, 0]),
   midi.NoteOnEvent(tick=0, channel=0, data=[76, 0]),
   midi.NoteOnEvent(tick=120, channel=0, data=[73, 38]),
   midi.NoteOnEvent(tick=0, channel=0, data=[70, 38]),
   midi.NoteOnEvent(tick=120, channel=0, data=[70, 0]),
   midi.NoteOnEvent(tick=0, channel=0, data=[73, 0]),
   midi.NoteOnEvent(tick=0, channel=0, data=[78, 42]),
   midi.NoteOnEvent(tick=120, channel=0, data=[78, 0]),
   midi.NoteOnEvent(tick=0, channel=0, data=[70, 35]),
   midi.NoteOnEvent(tick=0, channel=0, data=[73, 35]),
   midi.NoteOnEvent(tick=120, channel=0, data=[73, 0]),
   midi.NoteOnEvent(tick=0, channel=0, data=[70, 0]),
   midi.NoteOnEvent(tick=0, channel=0, data=[79, 40]),
   midi.NoteOnEvent(tick=120, channel=0, data=[79, 0]),
   midi.NoteOnEvent(tick=0, channel=0, data=[73, 33]),
   midi.NoteOnEvent(tick=0, channel=0, data=[70, 33]),
   midi.NoteOnEvent(tick=120, channel=0, data=[70, 0]),
   midi.NoteOnEvent(tick=0, channel=0, data=[73, 0]),
   midi.NoteOnEvent(tick=120, channel=0, data=[70, 34]),
   midi.NoteOnEvent(tick=0, channel=0, data=[67, 34]),
   midi.NoteOnEvent(tick=120, channel=0, data=[67, 0]),
   midi.NoteOnEvent(tick=0, channel=0, data=[70, 0]),
   midi.NoteOnEvent(tick=0, channel=0, data=[75, 37]),
   midi.NoteOnEvent(tick=120, channel=0, data=[75, 0]),
   midi.NoteOnEvent(tick=0, channel=0, data=[67, 31]),
   midi.NoteOnEvent(tick=0, channel=0, data=[70, 31]),
   midi.NoteOnEvent(tick=120, channel=0, data=[70, 0]),
   midi.NoteOnEvent(tick=0, channel=0, data=[67, 0]),
   midi.NoteOnEvent(tick=0, channel=0, data=[76, 35]),
   midi.NoteOnEvent(tick=120, channel=0, data=[76, 0]),
   midi.NoteOnEvent(tick=0, channel=0, data=[70, 30]),
   midi.NoteOnEvent(tick=0, channel=0, data=[67, 30]),
   midi.NoteOnEvent(tick=120, channel=0, data=[67, 0]),
   midi.NoteOnEvent(tick=0, channel=0, data=[70, 0]),
   midi.NoteOnEvent(tick=1560, channel=0, data=[67, 29]),
   midi.NoteOnEvent(tick=0, channel=0, data=[70, 29]),
   midi.NoteOnEvent(tick=120, channel=0, data=[70, 0]),
   midi.NoteOnEvent(tick=0, channel=0, data=[67, 0]),
   midi.NoteOnEvent(tick=0, channel=0, data=[72, 35]),
   midi.NoteOnEvent(tick=120, channel=0, data=[72, 0]),
   midi.NoteOnEvent(tick=0, channel=0, data=[67, 30]),
   midi.NoteOnEvent(tick=0, channel=0, data=[70, 30]),
   midi.NoteOnEvent(tick=120, channel=0, data=[70, 0]),
   midi.NoteOnEvent(tick=0, channel=0, data=[67, 0]),
   midi.NoteOnEvent(tick=0, channel=0, data=[73, 35]),
   midi.NoteOnEvent(tick=120, channel=0, data=[73, 0]),
   midi.NoteOnEvent(tick=0, channel=0, data=[67, 31]),
   midi.NoteOnEvent(tick=0, channel=0, data=[70, 31]),
   midi.NoteOnEvent(tick=120, channel=0, data=[70, 0]),
   midi.NoteOnEvent(tick=0, channel=0, data=[67, 0]),
   midi.NoteOnEvent(tick=120, channel=0, data=[67, 29]),
   midi.NoteOnEvent(tick=0, channel=0, data=[70, 29]),
   midi.NoteOnEvent(tick=120, channel=0, data=[70, 0]),
   midi.NoteOnEvent(tick=0, channel=0, data=[67, 0]),
   midi.NoteOnEvent(tick=0, channel=0, data=[72, 35]),
   midi.NoteOnEvent(tick=120, channel=0, data=[72, 0]),
   midi.NoteOnEvent(tick=0, channel=0, data=[67, 31]),
   midi.NoteOnEvent(tick=0, channel=0, data=[70, 31]),
   midi.NoteOnEvent(tick=120, channel=0, data=[70, 0]),
   midi.NoteOnEvent(tick=0, channel=0, data=[67, 0]),
   midi.NoteOnEvent(tick=0, channel=0, data=[73, 35]),
   midi.NoteOnEvent(tick=120, channel=0, data=[73, 0]),
   midi.NoteOnEvent(tick=0, channel=0, data=[67, 30]),
   midi.NoteOnEvent(tick=0, channel=0, data=[70, 30]),
   midi.NoteOnEvent(tick=120, channel=0, data=[70, 0]),
   midi.NoteOnEvent(tick=0, channel=0, data=[67, 0]),
   midi.NoteOnEvent(tick=0, channel=0, data=[78, 47]),
   midi.NoteOnEvent(tick=1440, channel=0, data=[78, 0]),
   midi.NoteOnEvent(tick=120, channel=0, data=[64, 29]),
   midi.NoteOnEvent(tick=0, channel=0, data=[70, 29]),
   midi.NoteOnEvent(tick=120, channel=0, data=[70, 0]),
   midi.NoteOnEvent(tick=0, channel=0, data=[64, 0]),
   midi.NoteOnEvent(tick=0, channel=0, data=[73, 37]),
   midi.NoteOnEvent(tick=120, channel=0, data=[73, 0]),
   midi.NoteOnEvent(tick=0, channel=0, data=[64, 32]),
   midi.NoteOnEvent(tick=0, channel=0, data=[70, 32]),
   midi.NoteOnEvent(tick=120, channel=0, data=[70, 0]),
   midi.NoteOnEvent(tick=0, channel=0, data=[64, 0]),
   midi.NoteOnEvent(tick=0, channel=0, data=[74, 38]),
   midi.NoteOnEvent(tick=120, channel=0, data=[74, 0]),
   midi.NoteOnEvent(tick=0, channel=0, data=[64, 35]),
   midi.NoteOnEvent(tick=0, channel=0, data=[70, 35]),
   midi.NoteOnEvent(tick=120, channel=0, data=[70, 0]),
   midi.NoteOnEvent(tick=0, channel=0, data=[64, 0]),
   midi.NoteOnEvent(tick=120, channel=0, data=[64, 34]),
   midi.NoteOnEvent(tick=0, channel=0, data=[70, 34]),
   midi.NoteOnEvent(tick=120, channel=0, data=[70, 0]),
   midi.NoteOnEvent(tick=0, channel=0, data=[64, 0]),
   midi.NoteOnEvent(tick=0, channel=0, data=[73, 42]),
   midi.NoteOnEvent(tick=120, channel=0, data=[73, 0]),
   midi.NoteOnEvent(tick=0, channel=0, data=[64, 37]),
   midi.NoteOnEvent(tick=0, channel=0, data=[70, 37]),
   midi.NoteOnEvent(tick=120, channel=0, data=[70, 0]),
   midi.NoteOnEvent(tick=0, channel=0, data=[64, 0]),
   midi.NoteOnEvent(tick=0, channel=0, data=[74, 43]),
   midi.NoteOnEvent(tick=120, channel=0, data=[74, 0]),
   midi.NoteOnEvent(tick=0, channel=0, data=[64, 38]),
   midi.NoteOnEvent(tick=0, channel=0, data=[70, 38]),
   midi.NoteOnEvent(tick=120, channel=0, data=[70, 0]),
   midi.NoteOnEvent(tick=0, channel=0, data=[64, 0]),
   midi.NoteOnEvent(tick=0, channel=0, data=[79, 62]),
   midi.NoteOnEvent(tick=1920, channel=0, data=[79, 0]),
   midi.NoteOnEvent(tick=0, channel=0, data=[69, 43]),
   midi.NoteOnEvent(tick=240, channel=0, data=[69, 0]),
   midi.NoteOnEvent(tick=0, channel=0, data=[70, 50]),
   midi.NoteOnEvent(tick=480, channel=0, data=[70, 0]),
   midi.NoteOnEvent(tick=0, channel=0, data=[72, 43]),
   midi.NoteOnEvent(tick=240, channel=0, data=[72, 0]),
   midi.NoteOnEvent(tick=0, channel=0, data=[73, 52]),
   midi.NoteOnEvent(tick=480, channel=0, data=[73, 0]),
   midi.NoteOnEvent(tick=0, channel=0, data=[74, 43]),
   midi.NoteOnEvent(tick=240, channel=0, data=[74, 0]),
   midi.NoteOnEvent(tick=0, channel=0, data=[66, 51]),
   midi.NoteOnEvent(tick=480, channel=0, data=[66, 0]),
   midi.NoteOnEvent(tick=0, channel=0, data=[67, 37]),
   midi.NoteOnEvent(tick=240, channel=0, data=[67, 0]),
   midi.NoteOnEvent(tick=0, channel=0, data=[69, 48]),
   midi.NoteOnEvent(tick=480, channel=0, data=[69, 0]),
   midi.NoteOnEvent(tick=0, channel=0, data=[70, 39]),
   midi.NoteOnEvent(tick=240, channel=0, data=[70, 0]),
   midi.NoteOnEvent(tick=0, channel=0, data=[61, 35]),
   midi.NoteOnEvent(tick=480, channel=0, data=[61, 0]),
   midi.NoteOnEvent(tick=0, channel=0, data=[62, 26]),
   midi.NoteOnEvent(tick=240, channel=0, data=[62, 0]),
   midi.NoteOnEvent(tick=0, channel=0, data=[64, 39]),
   midi.NoteOnEvent(tick=480, channel=0, data=[64, 0]),
   midi.NoteOnEvent(tick=0, channel=0, data=[65, 25]),
   midi.NoteOnEvent(tick=180, channel=0, data=[65, 0]),
   midi.NoteOnEvent(tick=60, channel=0, data=[67, 34]),
   midi.NoteOnEvent(tick=480, channel=0, data=[67, 0]),
   midi.NoteOnEvent(tick=0, channel=0, data=[68, 27]),
   midi.NoteOnEvent(tick=240, channel=0, data=[68, 0]),
   midi.NoteOnEvent(tick=0, channel=0, data=[57, 30]),
   midi.NoteOnEvent(tick=0, channel=0, data=[69, 37]),
   midi.NoteOnEvent(tick=360, channel=0, data=[69, 0]),
   midi.NoteOnEvent(tick=0, channel=0, data=[67, 27]),
   midi.NoteOnEvent(tick=120, channel=0, data=[67, 0]),
   midi.NoteOnEvent(tick=0, channel=0, data=[65, 27]),
   midi.NoteOnEvent(tick=120, channel=0, data=[65, 0]),
   midi.NoteOnEvent(tick=0, channel=0, data=[67, 27]),
   midi.NoteOnEvent(tick=120, channel=0, data=[67, 0]),
   midi.NoteOnEvent(tick=0, channel=0, data=[57, 0]),
   midi.NoteOnEvent(tick=0, channel=0, data=[58, 27]),
   midi.NoteOnEvent(tick=0, channel=0, data=[69, 32]),
   midi.NoteOnEvent(tick=480, channel=0, data=[69, 0]),
   midi.NoteOnEvent(tick=0, channel=0, data=[65, 32]),
   midi.NoteOnEvent(tick=240, channel=0, data=[65, 0]),
   midi.NoteOnEvent(tick=0, channel=0, data=[58, 0]),
   midi.NoteOnEvent(tick=0, channel=0, data=[60, 30]),
   midi.NoteOnEvent(tick=0, channel=0, data=[69, 37]),
   midi.NoteOnEvent(tick=360, channel=0, data=[69, 0]),
   midi.NoteOnEvent(tick=0, channel=0, data=[67, 28]),
   midi.NoteOnEvent(tick=120, channel=0, data=[67, 0]),
   midi.NoteOnEvent(tick=0, channel=0, data=[65, 28]),
   midi.NoteOnEvent(tick=120, channel=0, data=[65, 0]),
   midi.NoteOnEvent(tick=0, channel=0, data=[67, 28]),
   midi.NoteOnEvent(tick=120, channel=0, data=[67, 0]),
   midi.NoteOnEvent(tick=0, channel=0, data=[60, 0]),
   midi.NoteOnEvent(tick=0, channel=0, data=[58, 27]),
   midi.NoteOnEvent(tick=0, channel=0, data=[69, 32]),
   midi.NoteOnEvent(tick=660, channel=0, data=[69, 0]),
   midi.NoteOnEvent(tick=0, channel=0, data=[58, 0]),
   midi.NoteOnEvent(tick=60, channel=0, data=[65, 36]),
   midi.NoteOnEvent(tick=0, channel=0, data=[72, 45]),
   midi.NoteOnEvent(tick=360, channel=0, data=[72, 0]),
   midi.NoteOnEvent(tick=0, channel=0, data=[74, 38]),
   midi.NoteOnEvent(tick=120, channel=0, data=[74, 0]),
   midi.NoteOnEvent(tick=0, channel=0, data=[76, 42]),
   midi.NoteOnEvent(tick=120, channel=0, data=[76, 0]),
   midi.NoteOnEvent(tick=0, channel=0, data=[74, 38]),
   midi.NoteOnEvent(tick=120, channel=0, data=[74, 0]),
   midi.NoteOnEvent(tick=0, channel=0, data=[65, 0]),
   midi.NoteOnEvent(tick=0, channel=0, data=[72, 47]),
   midi.NoteOnEvent(tick=0, channel=0, data=[65, 38]),
   midi.NoteOnEvent(tick=480, channel=0, data=[65, 0]),
   midi.NoteOnEvent(tick=0, channel=0, data=[72, 0]),
   midi.NoteOnEvent(tick=0, channel=0, data=[64, 42]),
   midi.NoteOnEvent(tick=0, channel=0, data=[68, 42]),
   midi.NoteOnEvent(tick=240, channel=0, data=[68, 0]),
   midi.NoteOnEvent(tick=0, channel=0, data=[64, 0]),
   midi.NoteOnEvent(tick=0, channel=0, data=[72, 48]),
   midi.NoteOnEvent(tick=0, channel=0, data=[65, 40]),
   midi.NoteOnEvent(tick=720, channel=0, data=[72, 0]),
   midi.NoteOnEvent(tick=0, channel=0, data=[77, 48]),
   midi.NoteOnEvent(tick=480, channel=0, data=[77, 0]),
   midi.NoteOnEvent(tick=0, channel=0, data=[65, 0]),
   midi.NoteOnEvent(tick=240, channel=0, data=[60, 40]),
   midi.NoteOnEvent(tick=0, channel=0, data=[72, 50]),
   midi.NoteOnEvent(tick=360, channel=0, data=[72, 0]),
   midi.NoteOnEvent(tick=0, channel=0, data=[71, 37]),
   midi.NoteOnEvent(tick=120, channel=0, data=[71, 0]),
   midi.NoteOnEvent(tick=0, channel=0, data=[69, 37]),
   midi.NoteOnEvent(tick=120, channel=0, data=[69, 0]),
   midi.NoteOnEvent(tick=0, channel=0, data=[71, 37]),
   midi.NoteOnEvent(tick=120, channel=0, data=[71, 0]),
   midi.NoteOnEvent(tick=0, channel=0, data=[60, 0]),
   midi.NoteOnEvent(tick=0, channel=0, data=[62, 36]),
   midi.NoteOnEvent(tick=0, channel=0, data=[72, 43]),
   midi.NoteOnEvent(tick=480, channel=0, data=[72, 0]),
   midi.NoteOnEvent(tick=0, channel=0, data=[69, 43]),
   midi.NoteOnEvent(tick=240, channel=0, data=[69, 0]),
   midi.NoteOnEvent(tick=0, channel=0, data=[62, 0]),
   midi.NoteOnEvent(tick=0, channel=0, data=[64, 40]),
   midi.NoteOnEvent(tick=0, channel=0, data=[72, 50]),
   midi.NoteOnEvent(tick=360, channel=0, data=[72, 0]),
   midi.NoteOnEvent(tick=0, channel=0, data=[71, 38]),
   midi.NoteOnEvent(tick=120, channel=0, data=[71, 0]),
   midi.NoteOnEvent(tick=0, channel=0, data=[69, 38]),
   midi.NoteOnEvent(tick=120, channel=0, data=[69, 0]),
   midi.NoteOnEvent(tick=0, channel=0, data=[71, 38]),
   midi.NoteOnEvent(tick=120, channel=0, data=[71, 0]),
   midi.NoteOnEvent(tick=0, channel=0, data=[64, 0]),
   midi.NoteOnEvent(tick=0, channel=0, data=[62, 36]),
   midi.NoteOnEvent(tick=0, channel=0, data=[72, 43]),
   midi.NoteOnEvent(tick=660, channel=0, data=[72, 0]),
   midi.NoteOnEvent(tick=0, channel=0, data=[62, 0]),
   midi.NoteOnEvent(tick=60, channel=0, data=[69, 40]),
   midi.NoteOnEvent(tick=0, channel=0, data=[76, 50]),
   midi.NoteOnEvent(tick=360, channel=0, data=[76, 0]),
   midi.NoteOnEvent(tick=0, channel=0, data=[77, 42]),
   midi.NoteOnEvent(tick=120, channel=0, data=[77, 0]),
   midi.NoteOnEvent(tick=0, channel=0, data=[79, 46]),
   midi.NoteOnEvent(tick=120, channel=0, data=[79, 0]),
   midi.NoteOnEvent(tick=0, channel=0, data=[77, 42]),
   midi.NoteOnEvent(tick=120, channel=0, data=[77, 0]),
   midi.NoteOnEvent(tick=0, channel=0, data=[69, 0]),
   midi.NoteOnEvent(tick=0, channel=0, data=[76, 51]),
   midi.NoteOnEvent(tick=0, channel=0, data=[69, 41]),
   midi.NoteOnEvent(tick=480, channel=0, data=[69, 0]),
   midi.NoteOnEvent(tick=0, channel=0, data=[76, 0]),
   midi.NoteOnEvent(tick=0, channel=0, data=[68, 45]),
   midi.NoteOnEvent(tick=0, channel=0, data=[72, 45]),
   midi.NoteOnEvent(tick=240, channel=0, data=[72, 0]),
   midi.NoteOnEvent(tick=0, channel=0, data=[68, 0]),
   midi.NoteOnEvent(tick=0, channel=0, data=[76, 51]),
   midi.NoteOnEvent(tick=0, channel=0, data=[69, 42]),
   midi.NoteOnEvent(tick=720, channel=0, data=[76, 0]),
   midi.NoteOnEvent(tick=0, channel=0, data=[81, 53]),
   midi.NoteOnEvent(tick=240, channel=0, data=[69, 0]),
   midi.NoteOnEvent(tick=0, channel=0, data=[68, 57]),
   midi.NoteOnEvent(tick=240, channel=0, data=[68, 0]),
   midi.NoteOnEvent(tick=0, channel=0, data=[67, 61]),
   midi.NoteOnEvent(tick=240, channel=0, data=[67, 0]),
   midi.NoteOnEvent(tick=0, channel=0, data=[66, 70]),
   midi.NoteOnEvent(tick=480, channel=0, data=[81, 0]),
   midi.NoteOnEvent(tick=0, channel=0, data=[78, 53]),
   midi.NoteOnEvent(tick=240, channel=0, data=[78, 0]),
   midi.NoteOnEvent(tick=0, channel=0, data=[74, 53]),
   midi.NoteOnEvent(tick=240, channel=0, data=[74, 0]),
   midi.NoteOnEvent(tick=0, channel=0, data=[75, 53]),
   midi.NoteOnEvent(tick=240, channel=0, data=[75, 0]),
   midi.NoteOnEvent(tick=0, channel=0, data=[76, 53]),
   midi.NoteOnEvent(tick=240, channel=0, data=[76, 0]),
   midi.NoteOnEvent(tick=0, channel=0, data=[66, 0]),
   midi.NoteOnEvent(tick=0, channel=0, data=[65, 44]),
   midi.NoteOnEvent(tick=0, channel=0, data=[77, 53]),
   midi.NoteOnEvent(tick=480, channel=0, data=[77, 0]),
   midi.NoteOnEvent(tick=0, channel=0, data=[74, 50]),
   midi.NoteOnEvent(tick=240, channel=0, data=[74, 0]),
   midi.NoteOnEvent(tick=0, channel=0, data=[71, 47]),
   midi.NoteOnEvent(tick=480, channel=0, data=[71, 0]),
   midi.NoteOnEvent(tick=0, channel=0, data=[65, 0]),
   midi.NoteOnEvent(tick=240, channel=0, data=[66, 64]),
   midi.NoteOnEvent(tick=240, channel=0, data=[81, 53]),
   midi.NoteOnEvent(tick=240, channel=0, data=[81, 0]),
   midi.NoteOnEvent(tick=0, channel=0, data=[78, 47]),
   midi.NoteOnEvent(tick=240, channel=0, data=[78, 0]),
   midi.NoteOnEvent(tick=0, channel=0, data=[74, 49]),
   midi.NoteOnEvent(tick=240, channel=0, data=[74, 0]),
   midi.NoteOnEvent(tick=0, channel=0, data=[75, 53]),
   midi.NoteOnEvent(tick=240, channel=0, data=[75, 0]),
   midi.NoteOnEvent(tick=0, channel=0, data=[76, 54]),
   midi.NoteOnEvent(tick=240, channel=0, data=[66, 0]),
   midi.NoteOnEvent(tick=0, channel=0, data=[65, 44]),
   midi.NoteOnEvent(tick=240, channel=0, data=[76, 0]),
   midi.NoteOnEvent(tick=0, channel=0, data=[77, 62]),
   midi.NoteOnEvent(tick=240, channel=0, data=[77, 0]),
   midi.NoteOnEvent(tick=0, channel=0, data=[74, 53]),
   midi.NoteOnEvent(tick=240, channel=0, data=[74, 0]),
   midi.NoteOnEvent(tick=0, channel=0, data=[71, 56]),
   midi.NoteOnEvent(tick=630, channel=0, data=[71, 0]),
   midi.NoteOnEvent(tick=0, channel=0, data=[65, 0]),
   midi.NoteOnEvent(tick=90, channel=0, data=[74, 57]),
   midi.NoteOnEvent(tick=0, channel=0, data=[86, 80]),
   midi.NoteOnEvent(tick=480, channel=0, data=[86, 0]),
   midi.NoteOnEvent(tick=0, channel=0, data=[82, 62]),
   midi.NoteOnEvent(tick=240, channel=0, data=[82, 0]),
   midi.NoteOnEvent(tick=0, channel=0, data=[78, 53]),
   midi.NoteOnEvent(tick=240, channel=0, data=[78, 0]),
   midi.NoteOnEvent(tick=0, channel=0, data=[79, 60]),
   midi.NoteOnEvent(tick=240, channel=0, data=[79, 0]),
   midi.NoteOnEvent(tick=0, channel=0, data=[81, 63]),
   midi.NoteOnEvent(tick=240, channel=0, data=[81, 0]),
   midi.NoteOnEvent(tick=0, channel=0, data=[74, 0]),
   midi.NoteOnEvent(tick=0, channel=0, data=[82, 71]),
   midi.NoteOnEvent(tick=0, channel=0, data=[70, 60]),
   midi.NoteOnEvent(tick=480, channel=0, data=[82, 0]),
   midi.NoteOnEvent(tick=0, channel=0, data=[79, 55]),
   midi.NoteOnEvent(tick=240, channel=0, data=[79, 0]),
   midi.NoteOnEvent(tick=0, channel=0, data=[76, 50]),
   midi.NoteOnEvent(tick=720, channel=0, data=[76, 0]),
   midi.NoteOnEvent(tick=0, channel=0, data=[70, 0]),
   midi.NoteOnEvent(tick=0, channel=0, data=[74, 68]),
   midi.NoteOnEvent(tick=240, channel=0, data=[86, 70]),
   midi.NoteOnEvent(tick=240, channel=0, data=[86, 0]),
   midi.NoteOnEvent(tick=0, channel=0, data=[82, 62]),
   midi.NoteOnEvent(tick=240, channel=0, data=[82, 0]),
   midi.NoteOnEvent(tick=0, channel=0, data=[78, 53]),
   midi.NoteOnEvent(tick=240, channel=0, data=[78, 0]),
   midi.NoteOnEvent(tick=0, channel=0, data=[79, 60]),
   midi.NoteOnEvent(tick=240, channel=0, data=[79, 0]),
   midi.NoteOnEvent(tick=0, channel=0, data=[81, 63]),
   midi.NoteOnEvent(tick=240, channel=0, data=[74, 0]),
   midi.NoteOnEvent(tick=0, channel=0, data=[70, 59]),
   midi.NoteOnEvent(tick=240, channel=0, data=[81, 0]),
   midi.NoteOnEvent(tick=0, channel=0, data=[82, 62]),
   midi.NoteOnEvent(tick=240, channel=0, data=[82, 0]),
   midi.NoteOnEvent(tick=0, channel=0, data=[79, 57]),
   midi.NoteOnEvent(tick=240, channel=0, data=[79, 0]),
   midi.NoteOnEvent(tick=0, channel=0, data=[73, 56]),
   midi.NoteOnEvent(tick=240, channel=0, data=[73, 0]),
   midi.NoteOnEvent(tick=0, channel=0, data=[74, 58]),
   midi.NoteOnEvent(tick=240, channel=0, data=[74, 0]),
   midi.NoteOnEvent(tick=0, channel=0, data=[76, 63]),
   midi.NoteOnEvent(tick=240, channel=0, data=[70, 0]),
   midi.NoteOnEvent(tick=240, channel=0, data=[76, 0]),
   midi.NoteOnEvent(tick=0, channel=0, data=[77, 58]),
   midi.NoteOnEvent(tick=240, channel=0, data=[77, 0]),
   midi.NoteOnEvent(tick=0, channel=0, data=[74, 53]),
   midi.NoteOnEvent(tick=240, channel=0, data=[74, 0]),
   midi.NoteOnEvent(tick=0, channel=0, data=[66, 47]),
   midi.NoteOnEvent(tick=240, channel=0, data=[66, 0]),
   midi.NoteOnEvent(tick=0, channel=0, data=[67, 43]),
   midi.NoteOnEvent(tick=240, channel=0, data=[67, 0]),
   midi.NoteOnEvent(tick=0, channel=0, data=[69, 44]),
   midi.NoteOnEvent(tick=240, channel=0, data=[69, 0]),
   midi.NoteOnEvent(tick=0, channel=0, data=[70, 46]),
   midi.NoteOnEvent(tick=240, channel=0, data=[70, 0]),
   midi.NoteOnEvent(tick=0, channel=0, data=[73, 42]),
   midi.NoteOnEvent(tick=240, channel=0, data=[73, 0]),
   midi.NoteOnEvent(tick=0, channel=0, data=[74, 39]),
   midi.NoteOnEvent(tick=240, channel=0, data=[74, 0]),
   midi.NoteOnEvent(tick=0, channel=0, data=[78, 31]),
   midi.NoteOnEvent(tick=240, channel=0, data=[78, 0]),
   midi.NoteOnEvent(tick=0, channel=0, data=[70, 25]),
   midi.NoteOnEvent(tick=0, channel=0, data=[74, 25]),
   midi.NoteOnEvent(tick=0, channel=0, data=[79, 32]),
   midi.NoteOnEvent(tick=60, channel=0, data=[79, 0]),
   midi.NoteOnEvent(tick=0, channel=0, data=[74, 0]),
   midi.NoteOnEvent(tick=0, channel=0, data=[70, 0]),
   midi.NoteOnEvent(tick=180, channel=0, data=[74, 26]),
   midi.NoteOnEvent(tick=0, channel=0, data=[79, 26]),
   midi.NoteOnEvent(tick=0, channel=0, data=[82, 33]),
   midi.NoteOnEvent(tick=60, channel=0, data=[82, 0]),
   midi.NoteOnEvent(tick=0, channel=0, data=[79, 0]),
   midi.NoteOnEvent(tick=0, channel=0, data=[74, 0]),
   midi.NoteOnEvent(tick=180, channel=0, data=[86, 40]),
   midi.NoteOnEvent(tick=0, channel=0, data=[82, 32]),
   midi.NoteOnEvent(tick=0, channel=0, data=[79, 32]),
   midi.NoteOnEvent(tick=60, channel=0, data=[79, 0]),
   midi.NoteOnEvent(tick=0, channel=0, data=[82, 0]),
   midi.NoteOnEvent(tick=0, channel=0, data=[86, 0]),
   midi.NoteOnEvent(tick=1380, channel=0, data=[58, 36]),
   midi.NoteOnEvent(tick=0, channel=0, data=[64, 36]),
   midi.NoteOnEvent(tick=0, channel=0, data=[69, 40]),
   midi.NoteOnEvent(tick=1440, channel=0, data=[69, 0]),
   midi.NoteOnEvent(tick=0, channel=0, data=[64, 0]),
   midi.NoteOnEvent(tick=0, channel=0, data=[58, 0]),
   midi.NoteOnEvent(tick=0, channel=0, data=[57, 32]),
   midi.NoteOnEvent(tick=0, channel=0, data=[65, 40]),
   midi.NoteOnEvent(tick=360, channel=0, data=[65, 0]),
   midi.NoteOnEvent(tick=0, channel=0, data=[64, 30]),
   midi.NoteOnEvent(tick=120, channel=0, data=[64, 0]),
   midi.NoteOnEvent(tick=0, channel=0, data=[65, 30]),
   midi.NoteOnEvent(tick=120, channel=0, data=[65, 0]),
   midi.NoteOnEvent(tick=0, channel=0, data=[67, 30]),
   midi.NoteOnEvent(tick=120, channel=0, data=[67, 0]),
   midi.NoteOnEvent(tick=0, channel=0, data=[57, 0]),
   midi.NoteOnEvent(tick=0, channel=0, data=[58, 30]),
   midi.NoteOnEvent(tick=0, channel=0, data=[64, 38]),
   midi.NoteOnEvent(tick=0, channel=0, data=[69, 34]),
   midi.NoteOnEvent(tick=720, channel=0, data=[69, 0]),
   midi.NoteOnEvent(tick=0, channel=0, data=[64, 0]),
   midi.NoteOnEvent(tick=0, channel=0, data=[58, 0]),
   midi.NoteOnEvent(tick=0, channel=0, data=[65, 40]),
   midi.NoteOnEvent(tick=360, channel=0, data=[65, 0]),
   midi.NoteOnEvent(tick=0, channel=0, data=[64, 30]),
   midi.NoteOnEvent(tick=120, channel=0, data=[64, 0]),
   midi.NoteOnEvent(tick=0, channel=0, data=[65, 30]),
   midi.NoteOnEvent(tick=120, channel=0, data=[65, 0]),
   midi.NoteOnEvent(tick=0, channel=0, data=[67, 30]),
   midi.NoteOnEvent(tick=120, channel=0, data=[67, 0]),
   midi.NoteOnEvent(tick=0, channel=0, data=[64, 38]),
   midi.NoteOnEvent(tick=0, channel=0, data=[58, 30]),
   midi.NoteOnEvent(tick=0, channel=0, data=[69, 34]),
   midi.NoteOnEvent(tick=720, channel=0, data=[69, 0]),
   midi.NoteOnEvent(tick=0, channel=0, data=[58, 0]),
   midi.NoteOnEvent(tick=0, channel=0, data=[64, 0]),
   midi.NoteOnEvent(tick=0, channel=0, data=[57, 24]),
   midi.NoteOnEvent(tick=10, channel=0, data=[65, 29]),
   midi.NoteOnEvent(tick=230, channel=0, data=[57, 0]),
   midi.NoteOnEvent(tick=10, channel=0, data=[65, 0]),
   midi.NoteOnEvent(tick=470, channel=0, data=[69, 19]),
   midi.NoteOnEvent(tick=0, channel=0, data=[77, 24]),
   midi.NoteOnEvent(tick=240, channel=0, data=[77, 0]),
   midi.NoteOnEvent(tick=5, channel=0, data=[69, 0]),
   midi.NoteOnEvent(tick=475, channel=0, data=[89, 25]),
   midi.NoteOnEvent(tick=0, channel=0, data=[81, 20]),
   midi.NoteOnEvent(tick=1200, channel=0, data=[81, 0]),
   midi.NoteOnEvent(tick=0, channel=0, data=[89, 0]),
   midi.EndOfTrackEvent(tick=0, data=[])]),
 midi.Track(\
[    midi.NoteOnEvent(tick=0, channel=0, data=[41, 24]),
   midi.NoteOnEvent(tick=0, channel=0, data=[48, 28]),
   midi.NoteOnEvent(tick=720, channel=0, data=[48, 0]),
   midi.NoteOnEvent(tick=0, channel=0, data=[50, 24]),
   midi.NoteOnEvent(tick=720, channel=0, data=[50, 0]),
   midi.NoteOnEvent(tick=0, channel=0, data=[52, 28]),
   midi.NoteOnEvent(tick=720, channel=0, data=[52, 0]),
   midi.NoteOnEvent(tick=0, channel=0, data=[50, 24]),
   midi.NoteOnEvent(tick=660, channel=0, data=[50, 0]),
   midi.NoteOnEvent(tick=0, channel=0, data=[41, 25]),
   midi.NoteOnEvent(tick=30, channel=0, data=[48, 29]),
   midi.NoteOnEvent(tick=30, channel=0, data=[41, 0]),
   midi.NoteOnEvent(tick=0, channel=0, data=[57, 30]),
   midi.NoteOnEvent(tick=720, channel=0, data=[57, 0]),
   midi.NoteOnEvent(tick=0, channel=0, data=[58, 30]),
   midi.NoteOnEvent(tick=660, channel=0, data=[41, 23]),
   midi.NoteOnEvent(tick=30, channel=0, data=[48, 0]),
   midi.NoteOnEvent(tick=0, channel=0, data=[48, 27]),
   midi.NoteOnEvent(tick=30, channel=0, data=[41, 0]),
   midi.NoteOnEvent(tick=0, channel=0, data=[58, 0]),
   midi.NoteOnEvent(tick=0, channel=0, data=[57, 32]),
   midi.NoteOnEvent(tick=720, channel=0, data=[57, 0]),
   midi.NoteOnEvent(tick=450, channel=0, data=[48, 0]),
   midi.NoteOnEvent(tick=30, channel=0, data=[41, 0]),
   midi.NoteOnEvent(tick=240, channel=0, data=[45, 29]),
   midi.NoteOnEvent(tick=0, channel=0, data=[52, 34]),
   midi.NoteOnEvent(tick=720, channel=0, data=[52, 0]),
   midi.NoteOnEvent(tick=0, channel=0, data=[53, 29]),
   midi.NoteOnEvent(tick=720, channel=0, data=[53, 0]),
   midi.NoteOnEvent(tick=0, channel=0, data=[55, 34]),
   midi.NoteOnEvent(tick=720, channel=0, data=[55, 0]),
   midi.NoteOnEvent(tick=0, channel=0, data=[53, 29]),
   midi.NoteOnEvent(tick=660, channel=0, data=[53, 0]),
   midi.NoteOnEvent(tick=0, channel=0, data=[45, 25]),
   midi.NoteOnEvent(tick=30, channel=0, data=[52, 29]),
   midi.NoteOnEvent(tick=30, channel=0, data=[45, 0]),
   midi.NoteOnEvent(tick=0, channel=0, data=[60, 34]),
   midi.NoteOnEvent(tick=720, channel=0, data=[60, 0]),
   midi.NoteOnEvent(tick=0, channel=0, data=[62, 33]),
   midi.NoteOnEvent(tick=690, channel=0, data=[52, 0]),
   midi.NoteOnEvent(tick=30, channel=0, data=[62, 0]),
   midi.NoteOnEvent(tick=0, channel=0, data=[45, 0]),
   midi.NoteOnEvent(tick=0, channel=0, data=[45, 25]),
   midi.NoteOnEvent(tick=0, channel=0, data=[52, 29]),
   midi.NoteOnEvent(tick=0, channel=0, data=[60, 34]),
   midi.NoteOnEvent(tick=1440, channel=0, data=[60, 0]),
   midi.NoteOnEvent(tick=0, channel=0, data=[52, 0]),
   midi.NoteOnEvent(tick=0, channel=0, data=[45, 0]),
   midi.NoteOnEvent(tick=0, channel=0, data=[50, 29]),
   midi.NoteOnEvent(tick=0, channel=0, data=[60, 34]),
   midi.NoteOnEvent(tick=1380, channel=0, data=[60, 0]),
   midi.NoteOnEvent(tick=0, channel=0, data=[50, 0]),
   midi.NoteOnEvent(tick=0, channel=0, data=[43, 34]),
   midi.NoteOnEvent(tick=30, channel=0, data=[50, 34]),
   midi.NoteOnEvent(tick=30, channel=0, data=[59, 34]),
   midi.NoteOnEvent(tick=1140, channel=0, data=[50, 0]),
   midi.NoteOnEvent(tick=60, channel=0, data=[59, 0]),
   midi.NoteOnEvent(tick=0, channel=0, data=[43, 0]),
   midi.NoteOnEvent(tick=240, channel=0, data=[50, 29]),
   midi.NoteOnEvent(tick=0, channel=0, data=[60, 34]),
   midi.NoteOnEvent(tick=1380, channel=0, data=[60, 0]),
   midi.NoteOnEvent(tick=0, channel=0, data=[50, 0]),
   midi.NoteOnEvent(tick=0, channel=0, data=[43, 38]),
   midi.NoteOnEvent(tick=30, channel=0, data=[50, 40]),
   midi.NoteOnEvent(tick=30, channel=0, data=[59, 43]),
   midi.NoteOnEvent(tick=1140, channel=0, data=[50, 0]),
   midi.NoteOnEvent(tick=60, channel=0, data=[59, 0]),
   midi.NoteOnEvent(tick=0, channel=0, data=[43, 0]),
   midi.NoteOnEvent(tick=150, channel=0, data=[43, 40]),
   midi.NoteOnEvent(tick=30, channel=0, data=[50, 43]),
   midi.NoteOnEvent(tick=30, channel=0, data=[57, 46]),
   midi.NoteOnEvent(tick=30, channel=0, data=[60, 48]),
   midi.NoteOnEvent(tick=1920, channel=0, data=[60, 0]),
   midi.NoteOnEvent(tick=0, channel=0, data=[43, 0]),
   midi.NoteOnEvent(tick=0, channel=0, data=[50, 0]),
   midi.NoteOnEvent(tick=0, channel=0, data=[57, 0]),
   midi.NoteOnEvent(tick=2400, channel=0, data=[59, 36]),
   midi.NoteOnEvent(tick=0, channel=0, data=[53, 36]),
   midi.NoteOnEvent(tick=0, channel=0, data=[44, 44]),
   midi.NoteOnEvent(tick=1200, channel=0, data=[44, 0]),
   midi.NoteOnEvent(tick=0, channel=0, data=[43, 32]),
   midi.NoteOnEvent(tick=240, channel=0, data=[43, 0]),
   midi.NoteOnEvent(tick=0, channel=0, data=[53, 0]),
   midi.NoteOnEvent(tick=0, channel=0, data=[59, 0]),
   midi.NoteOnEvent(tick=0, channel=0, data=[36, 21]),
   midi.NoteOnEvent(tick=0, channel=0, data=[52, 32]),
   midi.NoteOnEvent(tick=0, channel=0, data=[43, 27]),
   midi.NoteOnEvent(tick=720, channel=0, data=[43, 0]),
   midi.NoteOnEvent(tick=0, channel=0, data=[52, 0]),
   midi.NoteOnEvent(tick=0, channel=0, data=[36, 0]),
   midi.NoteOnEvent(tick=0, channel=0, data=[53, 30]),
   midi.NoteOnEvent(tick=0, channel=0, data=[59, 38]),
   midi.NoteOnEvent(tick=0, channel=0, data=[44, 38]),
   midi.NoteOnEvent(tick=0, channel=0, data=[56, 30]),
   midi.NoteOnEvent(tick=720, channel=0, data=[56, 0]),
   midi.NoteOnEvent(tick=0, channel=0, data=[53, 0]),
   midi.NoteOnEvent(tick=0, channel=0, data=[59, 0]),
   midi.NoteOnEvent(tick=0, channel=0, data=[44, 0]),
   midi.NoteOnEvent(tick=0, channel=0, data=[36, 21]),
   midi.NoteOnEvent(tick=0, channel=0, data=[52, 32]),
   midi.NoteOnEvent(tick=0, channel=0, data=[43, 27]),
   midi.NoteOnEvent(tick=720, channel=0, data=[43, 0]),
   midi.NoteOnEvent(tick=0, channel=0, data=[52, 0]),
   midi.NoteOnEvent(tick=0, channel=0, data=[36, 0]),
   midi.NoteOnEvent(tick=0, channel=0, data=[53, 30]),
   midi.NoteOnEvent(tick=0, channel=0, data=[59, 38]),
   midi.NoteOnEvent(tick=0, channel=0, data=[44, 38]),
   midi.NoteOnEvent(tick=0, channel=0, data=[56, 30]),
   midi.NoteOnEvent(tick=720, channel=0, data=[56, 0]),
   midi.NoteOnEvent(tick=0, channel=0, data=[53, 0]),
   midi.NoteOnEvent(tick=0, channel=0, data=[59, 0]),
   midi.NoteOnEvent(tick=0, channel=0, data=[44, 0]),
   midi.NoteOnEvent(tick=0, channel=0, data=[36, 22]),
   midi.NoteOnEvent(tick=0, channel=0, data=[43, 26]),
   midi.NoteOnEvent(tick=240, channel=0, data=[43, 0]),
   midi.NoteOnEvent(tick=0, channel=0, data=[36, 0]),
   midi.NoteOnEvent(tick=480, channel=0, data=[48, 22]),
   midi.NoteOnEvent(tick=0, channel=0, data=[55, 26]),
   midi.NoteOnEvent(tick=240, channel=0, data=[55, 0]),
   midi.NoteOnEvent(tick=0, channel=0, data=[48, 0]),
   midi.NoteOnEvent(tick=480, channel=0, data=[60, 23]),
   midi.NoteOnEvent(tick=0, channel=0, data=[67, 28]),
   midi.NoteOnEvent(tick=1200, channel=0, data=[67, 0]),
   midi.NoteOnEvent(tick=0, channel=0, data=[60, 0]),
   midi.NoteOnEvent(tick=240, channel=0, data=[41, 24]),
   midi.NoteOnEvent(tick=0, channel=0, data=[48, 28]),
   midi.NoteOnEvent(tick=720, channel=0, data=[48, 0]),
   midi.NoteOnEvent(tick=0, channel=0, data=[50, 24]),
   midi.NoteOnEvent(tick=720, channel=0, data=[50, 0]),
   midi.NoteOnEvent(tick=0, channel=0, data=[52, 28]),
   midi.NoteOnEvent(tick=720, channel=0, data=[52, 0]),
   midi.NoteOnEvent(tick=0, channel=0, data=[50, 24]),
   midi.NoteOnEvent(tick=660, channel=0, data=[50, 0]),
   midi.NoteOnEvent(tick=0, channel=0, data=[41, 22]),
   midi.NoteOnEvent(tick=30, channel=0, data=[48, 26]),
   midi.NoteOnEvent(tick=30, channel=0, data=[41, 0]),
   midi.NoteOnEvent(tick=0, channel=0, data=[57, 30]),
   midi.NoteOnEvent(tick=720, channel=0, data=[57, 0]),
   midi.NoteOnEvent(tick=0, channel=0, data=[58, 30]),
   midi.NoteOnEvent(tick=660, channel=0, data=[41, 23]),
   midi.NoteOnEvent(tick=30, channel=0, data=[48, 0]),
   midi.NoteOnEvent(tick=0, channel=0, data=[48, 27]),
   midi.NoteOnEvent(tick=30, channel=0, data=[41, 0]),
   midi.NoteOnEvent(tick=0, channel=0, data=[58, 0]),
   midi.NoteOnEvent(tick=0, channel=0, data=[57, 32]),
   midi.NoteOnEvent(tick=720, channel=0, data=[57, 0]),
   midi.NoteOnEvent(tick=450, channel=0, data=[48, 0]),
   midi.NoteOnEvent(tick=30, channel=0, data=[41, 0]),
   midi.NoteOnEvent(tick=240, channel=0, data=[45, 29]),
   midi.NoteOnEvent(tick=0, channel=0, data=[52, 34]),
   midi.NoteOnEvent(tick=720, channel=0, data=[52, 0]),
   midi.NoteOnEvent(tick=0, channel=0, data=[53, 29]),
   midi.NoteOnEvent(tick=720, channel=0, data=[53, 0]),
   midi.NoteOnEvent(tick=0, channel=0, data=[55, 34]),
   midi.NoteOnEvent(tick=720, channel=0, data=[55, 0]),
   midi.NoteOnEvent(tick=0, channel=0, data=[53, 29]),
   midi.NoteOnEvent(tick=660, channel=0, data=[53, 0]),
   midi.NoteOnEvent(tick=0, channel=0, data=[45, 25]),
   midi.NoteOnEvent(tick=30, channel=0, data=[52, 29]),
   midi.NoteOnEvent(tick=30, channel=0, data=[45, 0]),
   midi.NoteOnEvent(tick=0, channel=0, data=[60, 34]),
   midi.NoteOnEvent(tick=720, channel=0, data=[60, 0]),
   midi.NoteOnEvent(tick=0, channel=0, data=[62, 33]),
   midi.NoteOnEvent(tick=690, channel=0, data=[52, 0]),
   midi.NoteOnEvent(tick=30, channel=0, data=[62, 0]),
   midi.NoteOnEvent(tick=0, channel=0, data=[45, 0]),
   midi.NoteOnEvent(tick=0, channel=0, data=[45, 25]),
   midi.NoteOnEvent(tick=0, channel=0, data=[52, 29]),
   midi.NoteOnEvent(tick=0, channel=0, data=[60, 34]),
   midi.NoteOnEvent(tick=1440, channel=0, data=[60, 0]),
   midi.NoteOnEvent(tick=0, channel=0, data=[52, 0]),
   midi.NoteOnEvent(tick=0, channel=0, data=[45, 0]),
   midi.NoteOnEvent(tick=0, channel=0, data=[50, 29]),
   midi.NoteOnEvent(tick=0, channel=0, data=[60, 34]),
   midi.NoteOnEvent(tick=1380, channel=0, data=[60, 0]),
   midi.NoteOnEvent(tick=0, channel=0, data=[50, 0]),
   midi.NoteOnEvent(tick=0, channel=0, data=[43, 34]),
   midi.NoteOnEvent(tick=30, channel=0, data=[50, 34]),
   midi.NoteOnEvent(tick=30, channel=0, data=[59, 34]),
   midi.NoteOnEvent(tick=1140, channel=0, data=[50, 0]),
   midi.NoteOnEvent(tick=60, channel=0, data=[59, 0]),
   midi.NoteOnEvent(tick=0, channel=0, data=[43, 0]),
   midi.NoteOnEvent(tick=240, channel=0, data=[50, 29]),
   midi.NoteOnEvent(tick=0, channel=0, data=[60, 34]),
   midi.NoteOnEvent(tick=1380, channel=0, data=[60, 0]),
   midi.NoteOnEvent(tick=0, channel=0, data=[50, 0]),
   midi.NoteOnEvent(tick=0, channel=0, data=[43, 38]),
   midi.NoteOnEvent(tick=30, channel=0, data=[50, 40]),
   midi.NoteOnEvent(tick=30, channel=0, data=[59, 43]),
   midi.NoteOnEvent(tick=1140, channel=0, data=[50, 0]),
   midi.NoteOnEvent(tick=60, channel=0, data=[59, 0]),
   midi.NoteOnEvent(tick=0, channel=0, data=[43, 0]),
   midi.NoteOnEvent(tick=150, channel=0, data=[43, 40]),
   midi.NoteOnEvent(tick=30, channel=0, data=[50, 43]),
   midi.NoteOnEvent(tick=30, channel=0, data=[57, 46]),
   midi.NoteOnEvent(tick=30, channel=0, data=[60, 48]),
   midi.NoteOnEvent(tick=1920, channel=0, data=[60, 0]),
   midi.NoteOnEvent(tick=0, channel=0, data=[43, 0]),
   midi.NoteOnEvent(tick=0, channel=0, data=[50, 0]),
   midi.NoteOnEvent(tick=0, channel=0, data=[57, 0]),
   midi.NoteOnEvent(tick=2400, channel=0, data=[59, 36]),
   midi.NoteOnEvent(tick=0, channel=0, data=[53, 36]),
   midi.NoteOnEvent(tick=0, channel=0, data=[44, 44]),
   midi.NoteOnEvent(tick=1200, channel=0, data=[44, 0]),
   midi.NoteOnEvent(tick=0, channel=0, data=[43, 32]),
   midi.NoteOnEvent(tick=240, channel=0, data=[43, 0]),
   midi.NoteOnEvent(tick=0, channel=0, data=[53, 0]),
   midi.NoteOnEvent(tick=0, channel=0, data=[59, 0]),
   midi.NoteOnEvent(tick=0, channel=0, data=[36, 21]),
   midi.NoteOnEvent(tick=0, channel=0, data=[52, 32]),
   midi.NoteOnEvent(tick=0, channel=0, data=[43, 27]),
   midi.NoteOnEvent(tick=720, channel=0, data=[43, 0]),
   midi.NoteOnEvent(tick=0, channel=0, data=[52, 0]),
   midi.NoteOnEvent(tick=0, channel=0, data=[36, 0]),
   midi.NoteOnEvent(tick=0, channel=0, data=[53, 30]),
   midi.NoteOnEvent(tick=0, channel=0, data=[59, 38]),
   midi.NoteOnEvent(tick=0, channel=0, data=[44, 38]),
   midi.NoteOnEvent(tick=0, channel=0, data=[56, 30]),
   midi.NoteOnEvent(tick=720, channel=0, data=[56, 0]),
   midi.NoteOnEvent(tick=0, channel=0, data=[53, 0]),
   midi.NoteOnEvent(tick=0, channel=0, data=[59, 0]),
   midi.NoteOnEvent(tick=0, channel=0, data=[44, 0]),
   midi.NoteOnEvent(tick=0, channel=0, data=[36, 21]),
   midi.NoteOnEvent(tick=0, channel=0, data=[52, 32]),
   midi.NoteOnEvent(tick=0, channel=0, data=[43, 27]),
   midi.NoteOnEvent(tick=720, channel=0, data=[43, 0]),
   midi.NoteOnEvent(tick=0, channel=0, data=[52, 0]),
   midi.NoteOnEvent(tick=0, channel=0, data=[36, 0]),
   midi.NoteOnEvent(tick=0, channel=0, data=[53, 30]),
   midi.NoteOnEvent(tick=0, channel=0, data=[59, 38]),
   midi.NoteOnEvent(tick=0, channel=0, data=[44, 38]),
   midi.NoteOnEvent(tick=0, channel=0, data=[56, 30]),
   midi.NoteOnEvent(tick=720, channel=0, data=[56, 0]),
   midi.NoteOnEvent(tick=0, channel=0, data=[53, 0]),
   midi.NoteOnEvent(tick=0, channel=0, data=[59, 0]),
   midi.NoteOnEvent(tick=0, channel=0, data=[44, 0]),
   midi.NoteOnEvent(tick=0, channel=0, data=[36, 22]),
   midi.NoteOnEvent(tick=0, channel=0, data=[43, 26]),
   midi.NoteOnEvent(tick=240, channel=0, data=[43, 0]),
   midi.NoteOnEvent(tick=0, channel=0, data=[36, 0]),
   midi.NoteOnEvent(tick=480, channel=0, data=[48, 22]),
   midi.NoteOnEvent(tick=0, channel=0, data=[55, 26]),
   midi.NoteOnEvent(tick=240, channel=0, data=[55, 0]),
   midi.NoteOnEvent(tick=0, channel=0, data=[48, 0]),
   midi.NoteOnEvent(tick=480, channel=0, data=[60, 23]),
   midi.NoteOnEvent(tick=0, channel=0, data=[67, 28]),
   midi.NoteOnEvent(tick=1200, channel=0, data=[67, 0]),
   midi.NoteOnEvent(tick=0, channel=0, data=[60, 0]),
   midi.NoteOnEvent(tick=240, channel=0, data=[48, 24]),
   midi.NoteOnEvent(tick=0, channel=0, data=[58, 28]),
   midi.NoteOnEvent(tick=1200, channel=0, data=[58, 0]),
   midi.NoteOnEvent(tick=0, channel=0, data=[60, 34]),
   midi.NoteOnEvent(tick=240, channel=0, data=[60, 0]),
   midi.NoteOnEvent(tick=0, channel=0, data=[62, 37]),
   midi.NoteOnEvent(tick=1200, channel=0, data=[62, 0]),
   midi.NoteOnEvent(tick=0, channel=0, data=[63, 37]),
   midi.NoteOnEvent(tick=180, channel=0, data=[63, 0]),
   midi.NoteOnEvent(tick=0, channel=0, data=[48, 37]),
   midi.NoteOnEvent(tick=30, channel=0, data=[58, 41]),
   midi.NoteOnEvent(tick=30, channel=0, data=[48, 0]),
   midi.NoteOnEvent(tick=0, channel=0, data=[64, 47]),
   midi.NoteOnEvent(tick=240, channel=0, data=[64, 0]),
   midi.NoteOnEvent(tick=0, channel=0, data=[58, 0]),
   midi.NoteOnEvent(tick=0, channel=0, data=[48, 0]),
   midi.NoteOnEvent(tick=2640, channel=0, data=[53, 26]),
   midi.NoteOnEvent(tick=0, channel=0, data=[63, 30]),
   midi.NoteOnEvent(tick=1200, channel=0, data=[63, 0]),
   midi.NoteOnEvent(tick=0, channel=0, data=[65, 40]),
   midi.NoteOnEvent(tick=240, channel=0, data=[65, 0]),
   midi.NoteOnEvent(tick=0, channel=0, data=[67, 44]),
   midi.NoteOnEvent(tick=1200, channel=0, data=[67, 0]),
   midi.NoteOnEvent(tick=0, channel=0, data=[68, 37]),
   midi.NoteOnEvent(tick=180, channel=0, data=[68, 0]),
   midi.NoteOnEvent(tick=0, channel=0, data=[53, 37]),
   midi.NoteOnEvent(tick=30, channel=0, data=[63, 41]),
   midi.NoteOnEvent(tick=30, channel=0, data=[53, 0]),
   midi.NoteOnEvent(tick=0, channel=0, data=[69, 47]),
   midi.NoteOnEvent(tick=240, channel=0, data=[69, 0]),
   midi.NoteOnEvent(tick=0, channel=0, data=[63, 0]),
   midi.NoteOnEvent(tick=0, channel=0, data=[53, 0]),
   midi.NoteOnEvent(tick=2640, channel=0, data=[46, 58]),
   midi.NoteOnEvent(tick=480, channel=0, data=[46, 0]),
   midi.NoteOnEvent(tick=0, channel=0, data=[53, 52]),
   midi.NoteOnEvent(tick=240, channel=0, data=[53, 0]),
   midi.NoteOnEvent(tick=0, channel=0, data=[58, 58]),
   midi.NoteOnEvent(tick=480, channel=0, data=[58, 0]),
   midi.NoteOnEvent(tick=0, channel=0, data=[60, 53]),
   midi.NoteOnEvent(tick=240, channel=0, data=[60, 0]),
   midi.NoteOnEvent(tick=0, channel=0, data=[62, 63]),
   midi.NoteOnEvent(tick=480, channel=0, data=[62, 0]),
   midi.NoteOnEvent(tick=0, channel=0, data=[65, 65]),
   midi.NoteOnEvent(tick=240, channel=0, data=[65, 0]),
   midi.NoteOnEvent(tick=0, channel=0, data=[70, 74]),
   midi.NoteOnEvent(tick=480, channel=0, data=[70, 0]),
   midi.NoteOnEvent(tick=0, channel=0, data=[69, 58]),
   midi.NoteOnEvent(tick=150, channel=0, data=[69, 0]),
   midi.NoteOnEvent(tick=0, channel=0, data=[52, 41]),
   midi.NoteOnEvent(tick=30, channel=0, data=[59, 47]),
   midi.NoteOnEvent(tick=30, channel=0, data=[62, 53]),
   midi.NoteOnEvent(tick=30, channel=0, data=[69, 81]),
   midi.NoteOnEvent(tick=1440, channel=0, data=[69, 0]),
   midi.NoteOnEvent(tick=0, channel=0, data=[68, 52]),
   midi.NoteOnEvent(tick=480, channel=0, data=[68, 0]),
   midi.NoteOnEvent(tick=0, channel=0, data=[62, 0]),
   midi.NoteOnEvent(tick=0, channel=0, data=[59, 0]),
   midi.NoteOnEvent(tick=0, channel=0, data=[52, 0]),
   midi.NoteOnEvent(tick=960, channel=0, data=[46, 58]),
   midi.NoteOnEvent(tick=480, channel=0, data=[46, 0]),
   midi.NoteOnEvent(tick=0, channel=0, data=[53, 52]),
   midi.NoteOnEvent(tick=240, channel=0, data=[53, 0]),
   midi.NoteOnEvent(tick=0, channel=0, data=[58, 58]),
   midi.NoteOnEvent(tick=480, channel=0, data=[58, 0]),
   midi.NoteOnEvent(tick=0, channel=0, data=[60, 53]),
   midi.NoteOnEvent(tick=240, channel=0, data=[60, 0]),
   midi.NoteOnEvent(tick=0, channel=0, data=[61, 63]),
   midi.NoteOnEvent(tick=480, channel=0, data=[61, 0]),
   midi.NoteOnEvent(tick=0, channel=0, data=[65, 70]),
   midi.NoteOnEvent(tick=240, channel=0, data=[65, 0]),
   midi.NoteOnEvent(tick=0, channel=0, data=[70, 76]),
   midi.NoteOnEvent(tick=480, channel=0, data=[70, 0]),
   midi.NoteOnEvent(tick=0, channel=0, data=[68, 62]),
   midi.NoteOnEvent(tick=150, channel=0, data=[68, 0]),
   midi.NoteOnEvent(tick=0, channel=0, data=[51, 43]),
   midi.NoteOnEvent(tick=30, channel=0, data=[58, 51]),
   midi.NoteOnEvent(tick=30, channel=0, data=[61, 57]),
   midi.NoteOnEvent(tick=30, channel=0, data=[68, 86]),
   midi.NoteOnEvent(tick=1440, channel=0, data=[68, 0]),
   midi.NoteOnEvent(tick=0, channel=0, data=[67, 62]),
   midi.NoteOnEvent(tick=480, channel=0, data=[67, 0]),
   midi.NoteOnEvent(tick=0, channel=0, data=[61, 0]),
   midi.NoteOnEvent(tick=0, channel=0, data=[58, 0]),
   midi.NoteOnEvent(tick=0, channel=0, data=[51, 0]),
   midi.NoteOnEvent(tick=180, channel=0, data=[49, 60]),
   midi.NoteOnEvent(tick=60, channel=0, data=[49, 0]),
   midi.NoteOnEvent(tick=0, channel=0, data=[66, 80]),
   midi.NoteOnEvent(tick=480, channel=0, data=[66, 0]),
   midi.NoteOnEvent(tick=0, channel=0, data=[65, 76]),
   midi.NoteOnEvent(tick=180, channel=0, data=[48, 73]),
   midi.NoteOnEvent(tick=0, channel=0, data=[36, 73]),
   midi.NoteOnEvent(tick=60, channel=0, data=[65, 0]),
   midi.NoteOnEvent(tick=0, channel=0, data=[55, 64]),
   midi.NoteOnEvent(tick=0, channel=0, data=[58, 64]),
   midi.NoteOnEvent(tick=0, channel=0, data=[65, 69]),
   midi.NoteOnEvent(tick=1440, channel=0, data=[65, 0]),
   midi.NoteOnEvent(tick=0, channel=0, data=[64, 66]),
   midi.NoteOnEvent(tick=4080, channel=0, data=[64, 0]),
   midi.NoteOnEvent(tick=0, channel=0, data=[58, 0]),
   midi.NoteOnEvent(tick=0, channel=0, data=[48, 0]),
   midi.NoteOnEvent(tick=0, channel=0, data=[36, 0]),
   midi.NoteOnEvent(tick=0, channel=0, data=[55, 0]),
   midi.NoteOnEvent(tick=1620, channel=0, data=[49, 29]),
   midi.NoteOnEvent(tick=60, channel=0, data=[58, 37]),
   midi.NoteOnEvent(tick=240, channel=0, data=[58, 0]),
   midi.NoteOnEvent(tick=0, channel=0, data=[49, 0]),
   midi.NoteOnEvent(tick=480, channel=0, data=[37, 29]),
   midi.NoteOnEvent(tick=240, channel=0, data=[37, 0]),
   midi.NoteOnEvent(tick=1860, channel=0, data=[48, 29]),
   midi.NoteOnEvent(tick=60, channel=0, data=[58, 37]),
   midi.NoteOnEvent(tick=240, channel=0, data=[58, 0]),
   midi.NoteOnEvent(tick=0, channel=0, data=[48, 0]),
   midi.NoteOnEvent(tick=480, channel=0, data=[36, 33]),
   midi.NoteOnEvent(tick=240, channel=0, data=[36, 0]),
   midi.NoteOnEvent(tick=6900, channel=0, data=[36, 24]),
   midi.NoteOnEvent(tick=60, channel=0, data=[52, 31]),
   midi.NoteOnEvent(tick=480, channel=0, data=[52, 0]),
   midi.NoteOnEvent(tick=0, channel=0, data=[50, 27]),
   midi.NoteOnEvent(tick=240, channel=0, data=[50, 0]),
   midi.NoteOnEvent(tick=0, channel=0, data=[36, 0]),
   midi.NoteOnEvent(tick=0, channel=0, data=[41, 21]),
   midi.NoteOnEvent(tick=0, channel=0, data=[48, 25]),
   midi.NoteOnEvent(tick=720, channel=0, data=[48, 0]),
   midi.NoteOnEvent(tick=0, channel=0, data=[50, 21]),
   midi.NoteOnEvent(tick=720, channel=0, data=[50, 0]),
   midi.NoteOnEvent(tick=0, channel=0, data=[52, 25]),
   midi.NoteOnEvent(tick=720, channel=0, data=[52, 0]),
   midi.NoteOnEvent(tick=0, channel=0, data=[50, 21]),
   midi.NoteOnEvent(tick=660, channel=0, data=[50, 0]),
   midi.NoteOnEvent(tick=0, channel=0, data=[41, 25]),
   midi.NoteOnEvent(tick=30, channel=0, data=[48, 29]),
   midi.NoteOnEvent(tick=30, channel=0, data=[41, 0]),
   midi.NoteOnEvent(tick=0, channel=0, data=[57, 30]),
   midi.NoteOnEvent(tick=720, channel=0, data=[57, 0]),
   midi.NoteOnEvent(tick=0, channel=0, data=[58, 30]),
   midi.NoteOnEvent(tick=660, channel=0, data=[41, 23]),
   midi.NoteOnEvent(tick=30, channel=0, data=[48, 0]),
   midi.NoteOnEvent(tick=0, channel=0, data=[48, 27]),
   midi.NoteOnEvent(tick=30, channel=0, data=[41, 0]),
   midi.NoteOnEvent(tick=0, channel=0, data=[58, 0]),
   midi.NoteOnEvent(tick=0, channel=0, data=[57, 32]),
   midi.NoteOnEvent(tick=720, channel=0, data=[57, 0]),
   midi.NoteOnEvent(tick=450, channel=0, data=[48, 0]),
   midi.NoteOnEvent(tick=30, channel=0, data=[41, 0]),
   midi.NoteOnEvent(tick=240, channel=0, data=[45, 29]),
   midi.NoteOnEvent(tick=0, channel=0, data=[52, 34]),
   midi.NoteOnEvent(tick=720, channel=0, data=[52, 0]),
   midi.NoteOnEvent(tick=0, channel=0, data=[53, 29]),
   midi.NoteOnEvent(tick=720, channel=0, data=[53, 0]),
   midi.NoteOnEvent(tick=0, channel=0, data=[55, 34]),
   midi.NoteOnEvent(tick=720, channel=0, data=[55, 0]),
   midi.NoteOnEvent(tick=0, channel=0, data=[53, 29]),
   midi.NoteOnEvent(tick=660, channel=0, data=[53, 0]),
   midi.NoteOnEvent(tick=0, channel=0, data=[45, 25]),
   midi.NoteOnEvent(tick=30, channel=0, data=[52, 29]),
   midi.NoteOnEvent(tick=30, channel=0, data=[45, 0]),
   midi.NoteOnEvent(tick=0, channel=0, data=[60, 34]),
   midi.NoteOnEvent(tick=720, channel=0, data=[60, 0]),
   midi.NoteOnEvent(tick=0, channel=0, data=[62, 33]),
   midi.NoteOnEvent(tick=660, channel=0, data=[45, 25]),
   midi.NoteOnEvent(tick=30, channel=0, data=[52, 0]),
   midi.NoteOnEvent(tick=0, channel=0, data=[52, 29]),
   midi.NoteOnEvent(tick=30, channel=0, data=[45, 0]),
   midi.NoteOnEvent(tick=0, channel=0, data=[62, 0]),
   midi.NoteOnEvent(tick=0, channel=0, data=[60, 34]),
   midi.NoteOnEvent(tick=1410, channel=0, data=[52, 0]),
   midi.NoteOnEvent(tick=30, channel=0, data=[60, 0]),
   midi.NoteOnEvent(tick=0, channel=0, data=[45, 0]),
   midi.NoteOnEvent(tick=0, channel=0, data=[50, 29]),
   midi.NoteOnEvent(tick=0, channel=0, data=[60, 34]),
   midi.NoteOnEvent(tick=1380, channel=0, data=[60, 0]),
   midi.NoteOnEvent(tick=0, channel=0, data=[50, 0]),
   midi.NoteOnEvent(tick=0, channel=0, data=[43, 34]),
   midi.NoteOnEvent(tick=30, channel=0, data=[50, 34]),
   midi.NoteOnEvent(tick=30, channel=0, data=[59, 34]),
   midi.NoteOnEvent(tick=1140, channel=0, data=[50, 0]),
   midi.NoteOnEvent(tick=60, channel=0, data=[59, 0]),
   midi.NoteOnEvent(tick=0, channel=0, data=[43, 0]),
   midi.NoteOnEvent(tick=240, channel=0, data=[50, 29]),
   midi.NoteOnEvent(tick=0, channel=0, data=[60, 34]),
   midi.NoteOnEvent(tick=1380, channel=0, data=[60, 0]),
   midi.NoteOnEvent(tick=0, channel=0, data=[50, 0]),
   midi.NoteOnEvent(tick=0, channel=0, data=[43, 38]),
   midi.NoteOnEvent(tick=30, channel=0, data=[50, 40]),
   midi.NoteOnEvent(tick=30, channel=0, data=[59, 43]),
   midi.NoteOnEvent(tick=1350, channel=0, data=[59, 0]),
   midi.NoteOnEvent(tick=0, channel=0, data=[50, 0]),
   midi.NoteOnEvent(tick=0, channel=0, data=[43, 0]),
   midi.NoteOnEvent(tick=0, channel=0, data=[55, 38]),
   midi.NoteOnEvent(tick=30, channel=0, data=[62, 40]),
   midi.NoteOnEvent(tick=30, channel=0, data=[65, 44]),
   midi.NoteOnEvent(tick=30, channel=0, data=[70, 57]),
   midi.NoteOnEvent(tick=1350, channel=0, data=[70, 0]),
   midi.NoteOnEvent(tick=0, channel=0, data=[55, 0]),
   midi.NoteOnEvent(tick=0, channel=0, data=[62, 0]),
   midi.NoteOnEvent(tick=0, channel=0, data=[65, 0]),
   midi.NoteOnEvent(tick=0, channel=0, data=[48, 40]),
   midi.NoteOnEvent(tick=30, channel=0, data=[55, 41]),
   midi.NoteOnEvent(tick=30, channel=0, data=[58, 42]),
   midi.NoteOnEvent(tick=30, channel=0, data=[64, 54]),
   midi.NoteOnEvent(tick=1250, channel=0, data=[55, 0]),
   midi.NoteOnEvent(tick=100, channel=0, data=[48, 0]),
   midi.NoteOnEvent(tick=0, channel=0, data=[58, 0]),
   midi.NoteOnEvent(tick=0, channel=0, data=[64, 0]),
   midi.NoteOnEvent(tick=0, channel=0, data=[55, 38]),
   midi.NoteOnEvent(tick=30, channel=0, data=[62, 40]),
   midi.NoteOnEvent(tick=30, channel=0, data=[65, 44]),
   midi.NoteOnEvent(tick=30, channel=0, data=[70, 57]),
   midi.NoteOnEvent(tick=1350, channel=0, data=[70, 0]),
   midi.NoteOnEvent(tick=0, channel=0, data=[55, 0]),
   midi.NoteOnEvent(tick=0, channel=0, data=[62, 0]),
   midi.NoteOnEvent(tick=0, channel=0, data=[65, 0]),
   midi.NoteOnEvent(tick=0, channel=0, data=[48, 40]),
   midi.NoteOnEvent(tick=30, channel=0, data=[55, 41]),
   midi.NoteOnEvent(tick=30, channel=0, data=[58, 42]),
   midi.NoteOnEvent(tick=30, channel=0, data=[64, 57]),
   midi.NoteOnEvent(tick=1250, channel=0, data=[55, 0]),
   midi.NoteOnEvent(tick=100, channel=0, data=[48, 0]),
   midi.NoteOnEvent(tick=0, channel=0, data=[58, 0]),
   midi.NoteOnEvent(tick=0, channel=0, data=[64, 0]),
   midi.NoteOnEvent(tick=0, channel=0, data=[46, 40]),
   midi.NoteOnEvent(tick=30, channel=0, data=[55, 43]),
   midi.NoteOnEvent(tick=30, channel=0, data=[62, 46]),
   midi.NoteOnEvent(tick=30, channel=0, data=[65, 48]),
   midi.NoteOnEvent(tick=1920, channel=0, data=[65, 0]),
   midi.NoteOnEvent(tick=0, channel=0, data=[46, 0]),
   midi.NoteOnEvent(tick=0, channel=0, data=[55, 0]),
   midi.NoteOnEvent(tick=0, channel=0, data=[62, 0]),
   midi.NoteOnEvent(tick=2400, channel=0, data=[49, 44]),
   midi.NoteOnEvent(tick=1200, channel=0, data=[49, 0]),
   midi.NoteOnEvent(tick=0, channel=0, data=[48, 32]),
   midi.NoteOnEvent(tick=240, channel=0, data=[48, 0]),
   midi.NoteOnEvent(tick=0, channel=0, data=[41, 21]),
   midi.NoteOnEvent(tick=0, channel=0, data=[48, 27]),
   midi.NoteOnEvent(tick=720, channel=0, data=[48, 0]),
   midi.NoteOnEvent(tick=0, channel=0, data=[41, 0]),
   midi.NoteOnEvent(tick=0, channel=0, data=[49, 38]),
   midi.NoteOnEvent(tick=0, channel=0, data=[61, 30]),
   midi.NoteOnEvent(tick=720, channel=0, data=[61, 0]),
   midi.NoteOnEvent(tick=0, channel=0, data=[49, 0]),
   midi.NoteOnEvent(tick=0, channel=0, data=[41, 21]),
   midi.NoteOnEvent(tick=0, channel=0, data=[57, 32]),
   midi.NoteOnEvent(tick=0, channel=0, data=[48, 27]),
   midi.NoteOnEvent(tick=720, channel=0, data=[48, 0]),
   midi.NoteOnEvent(tick=0, channel=0, data=[57, 0]),
   midi.NoteOnEvent(tick=0, channel=0, data=[41, 0]),
   midi.NoteOnEvent(tick=0, channel=0, data=[49, 38]),
   midi.NoteOnEvent(tick=0, channel=0, data=[61, 30]),
   midi.NoteOnEvent(tick=720, channel=0, data=[61, 0]),
   midi.NoteOnEvent(tick=0, channel=0, data=[49, 0]),
   midi.NoteOnEvent(tick=0, channel=0, data=[41, 22]),
   midi.NoteOnEvent(tick=0, channel=0, data=[48, 26]),
   midi.NoteOnEvent(tick=240, channel=0, data=[48, 0]),
   midi.NoteOnEvent(tick=0, channel=0, data=[41, 0]),
   midi.NoteOnEvent(tick=480, channel=0, data=[53, 22]),
   midi.NoteOnEvent(tick=0, channel=0, data=[60, 26]),
   midi.NoteOnEvent(tick=240, channel=0, data=[60, 0]),
   midi.NoteOnEvent(tick=0, channel=0, data=[53, 0]),
   midi.NoteOnEvent(tick=480, channel=0, data=[65, 23]),
   midi.NoteOnEvent(tick=0, channel=0, data=[72, 28]),
   midi.NoteOnEvent(tick=1200, channel=0, data=[72, 0]),
   midi.NoteOnEvent(tick=0, channel=0, data=[65, 0]),
   midi.NoteOnEvent(tick=240, channel=0, data=[48, 24]),
   midi.NoteOnEvent(tick=0, channel=0, data=[58, 28]),
   midi.NoteOnEvent(tick=1200, channel=0, data=[58, 0]),
   midi.NoteOnEvent(tick=0, channel=0, data=[60, 34]),
   midi.NoteOnEvent(tick=240, channel=0, data=[60, 0]),
   midi.NoteOnEvent(tick=0, channel=0, data=[62, 37]),
   midi.NoteOnEvent(tick=1200, channel=0, data=[62, 0]),
   midi.NoteOnEvent(tick=0, channel=0, data=[63, 37]),
   midi.NoteOnEvent(tick=180, channel=0, data=[63, 0]),
   midi.NoteOnEvent(tick=0, channel=0, data=[48, 37]),
   midi.NoteOnEvent(tick=30, channel=0, data=[58, 41]),
   midi.NoteOnEvent(tick=30, channel=0, data=[48, 0]),
   midi.NoteOnEvent(tick=0, channel=0, data=[64, 47]),
   midi.NoteOnEvent(tick=240, channel=0, data=[64, 0]),
   midi.NoteOnEvent(tick=0, channel=0, data=[58, 0]),
   midi.NoteOnEvent(tick=0, channel=0, data=[48, 0]),
   midi.NoteOnEvent(tick=2640, channel=0, data=[53, 26]),
   midi.NoteOnEvent(tick=0, channel=0, data=[63, 30]),
   midi.NoteOnEvent(tick=1200, channel=0, data=[63, 0]),
   midi.NoteOnEvent(tick=0, channel=0, data=[65, 40]),
   midi.NoteOnEvent(tick=240, channel=0, data=[65, 0]),
   midi.NoteOnEvent(tick=0, channel=0, data=[67, 44]),
   midi.NoteOnEvent(tick=1200, channel=0, data=[67, 0]),
   midi.NoteOnEvent(tick=0, channel=0, data=[68, 37]),
   midi.NoteOnEvent(tick=180, channel=0, data=[68, 0]),
   midi.NoteOnEvent(tick=0, channel=0, data=[53, 37]),
   midi.NoteOnEvent(tick=30, channel=0, data=[63, 41]),
   midi.NoteOnEvent(tick=30, channel=0, data=[53, 0]),
   midi.NoteOnEvent(tick=0, channel=0, data=[69, 47]),
   midi.NoteOnEvent(tick=240, channel=0, data=[69, 0]),
   midi.NoteOnEvent(tick=0, channel=0, data=[63, 0]),
   midi.NoteOnEvent(tick=0, channel=0, data=[53, 0]),
   midi.NoteOnEvent(tick=2640, channel=0, data=[46, 58]),
   midi.NoteOnEvent(tick=480, channel=0, data=[46, 0]),
   midi.NoteOnEvent(tick=0, channel=0, data=[53, 52]),
   midi.NoteOnEvent(tick=240, channel=0, data=[53, 0]),
   midi.NoteOnEvent(tick=0, channel=0, data=[58, 58]),
   midi.NoteOnEvent(tick=480, channel=0, data=[58, 0]),
   midi.NoteOnEvent(tick=0, channel=0, data=[60, 53]),
   midi.NoteOnEvent(tick=240, channel=0, data=[60, 0]),
   midi.NoteOnEvent(tick=0, channel=0, data=[62, 63]),
   midi.NoteOnEvent(tick=480, channel=0, data=[62, 0]),
   midi.NoteOnEvent(tick=0, channel=0, data=[65, 68]),
   midi.NoteOnEvent(tick=240, channel=0, data=[65, 0]),
   midi.NoteOnEvent(tick=0, channel=0, data=[70, 73]),
   midi.NoteOnEvent(tick=480, channel=0, data=[70, 0]),
   midi.NoteOnEvent(tick=0, channel=0, data=[69, 58]),
   midi.NoteOnEvent(tick=150, channel=0, data=[69, 0]),
   midi.NoteOnEvent(tick=0, channel=0, data=[52, 41]),
   midi.NoteOnEvent(tick=30, channel=0, data=[59, 47]),
   midi.NoteOnEvent(tick=30, channel=0, data=[62, 53]),
   midi.NoteOnEvent(tick=30, channel=0, data=[69, 81]),
   midi.NoteOnEvent(tick=1440, channel=0, data=[69, 0]),
   midi.NoteOnEvent(tick=0, channel=0, data=[68, 52]),
   midi.NoteOnEvent(tick=480, channel=0, data=[68, 0]),
   midi.NoteOnEvent(tick=0, channel=0, data=[62, 0]),
   midi.NoteOnEvent(tick=0, channel=0, data=[59, 0]),
   midi.NoteOnEvent(tick=0, channel=0, data=[52, 0]),
   midi.NoteOnEvent(tick=960, channel=0, data=[46, 58]),
   midi.NoteOnEvent(tick=480, channel=0, data=[46, 0]),
   midi.NoteOnEvent(tick=0, channel=0, data=[53, 52]),
   midi.NoteOnEvent(tick=240, channel=0, data=[53, 0]),
   midi.NoteOnEvent(tick=0, channel=0, data=[58, 58]),
   midi.NoteOnEvent(tick=480, channel=0, data=[58, 0]),
   midi.NoteOnEvent(tick=0, channel=0, data=[60, 53]),
   midi.NoteOnEvent(tick=240, channel=0, data=[60, 0]),
   midi.NoteOnEvent(tick=0, channel=0, data=[61, 63]),
   midi.NoteOnEvent(tick=480, channel=0, data=[61, 0]),
   midi.NoteOnEvent(tick=0, channel=0, data=[65, 70]),
   midi.NoteOnEvent(tick=240, channel=0, data=[65, 0]),
   midi.NoteOnEvent(tick=0, channel=0, data=[70, 77]),
   midi.NoteOnEvent(tick=480, channel=0, data=[70, 0]),
   midi.NoteOnEvent(tick=0, channel=0, data=[68, 62]),
   midi.NoteOnEvent(tick=150, channel=0, data=[68, 0]),
   midi.NoteOnEvent(tick=0, channel=0, data=[51, 43]),
   midi.NoteOnEvent(tick=30, channel=0, data=[58, 51]),
   midi.NoteOnEvent(tick=30, channel=0, data=[61, 57]),
   midi.NoteOnEvent(tick=30, channel=0, data=[68, 81]),
   midi.NoteOnEvent(tick=1440, channel=0, data=[68, 0]),
   midi.NoteOnEvent(tick=0, channel=0, data=[67, 62]),
   midi.NoteOnEvent(tick=480, channel=0, data=[67, 0]),
   midi.NoteOnEvent(tick=0, channel=0, data=[61, 0]),
   midi.NoteOnEvent(tick=0, channel=0, data=[58, 0]),
   midi.NoteOnEvent(tick=0, channel=0, data=[51, 0]),
   midi.NoteOnEvent(tick=180, channel=0, data=[49, 60]),
   midi.NoteOnEvent(tick=60, channel=0, data=[49, 0]),
   midi.NoteOnEvent(tick=0, channel=0, data=[66, 80]),
   midi.NoteOnEvent(tick=480, channel=0, data=[66, 0]),
   midi.NoteOnEvent(tick=0, channel=0, data=[65, 76]),
   midi.NoteOnEvent(tick=180, channel=0, data=[48, 77]),
   midi.NoteOnEvent(tick=0, channel=0, data=[36, 77]),
   midi.NoteOnEvent(tick=60, channel=0, data=[65, 0]),
   midi.NoteOnEvent(tick=0, channel=0, data=[55, 64]),
   midi.NoteOnEvent(tick=0, channel=0, data=[58, 64]),
   midi.NoteOnEvent(tick=0, channel=0, data=[65, 69]),
   midi.NoteOnEvent(tick=1440, channel=0, data=[65, 0]),
   midi.NoteOnEvent(tick=0, channel=0, data=[64, 66]),
   midi.NoteOnEvent(tick=4080, channel=0, data=[64, 0]),
   midi.NoteOnEvent(tick=0, channel=0, data=[58, 0]),
   midi.NoteOnEvent(tick=0, channel=0, data=[48, 0]),
   midi.NoteOnEvent(tick=0, channel=0, data=[36, 0]),
   midi.NoteOnEvent(tick=0, channel=0, data=[55, 0]),
   midi.NoteOnEvent(tick=1620, channel=0, data=[49, 29]),
   midi.NoteOnEvent(tick=60, channel=0, data=[58, 37]),
   midi.NoteOnEvent(tick=240, channel=0, data=[58, 0]),
   midi.NoteOnEvent(tick=0, channel=0, data=[49, 0]),
   midi.NoteOnEvent(tick=480, channel=0, data=[37, 29]),
   midi.NoteOnEvent(tick=240, channel=0, data=[37, 0]),
   midi.NoteOnEvent(tick=1860, channel=0, data=[48, 29]),
   midi.NoteOnEvent(tick=60, channel=0, data=[58, 37]),
   midi.NoteOnEvent(tick=240, channel=0, data=[58, 0]),
   midi.NoteOnEvent(tick=0, channel=0, data=[48, 0]),
   midi.NoteOnEvent(tick=480, channel=0, data=[36, 33]),
   midi.NoteOnEvent(tick=240, channel=0, data=[36, 0]),
   midi.NoteOnEvent(tick=6900, channel=0, data=[36, 24]),
   midi.NoteOnEvent(tick=60, channel=0, data=[52, 31]),
   midi.NoteOnEvent(tick=480, channel=0, data=[52, 0]),
   midi.NoteOnEvent(tick=0, channel=0, data=[50, 27]),
   midi.NoteOnEvent(tick=240, channel=0, data=[50, 0]),
   midi.NoteOnEvent(tick=0, channel=0, data=[36, 0]),
   midi.NoteOnEvent(tick=0, channel=0, data=[41, 21]),
   midi.NoteOnEvent(tick=0, channel=0, data=[48, 25]),
   midi.NoteOnEvent(tick=720, channel=0, data=[48, 0]),
   midi.NoteOnEvent(tick=0, channel=0, data=[50, 21]),
   midi.NoteOnEvent(tick=720, channel=0, data=[50, 0]),
   midi.NoteOnEvent(tick=0, channel=0, data=[52, 25]),
   midi.NoteOnEvent(tick=720, channel=0, data=[52, 0]),
   midi.NoteOnEvent(tick=0, channel=0, data=[50, 21]),
   midi.NoteOnEvent(tick=660, channel=0, data=[50, 0]),
   midi.NoteOnEvent(tick=0, channel=0, data=[41, 25]),
   midi.NoteOnEvent(tick=30, channel=0, data=[48, 29]),
   midi.NoteOnEvent(tick=30, channel=0, data=[41, 0]),
   midi.NoteOnEvent(tick=0, channel=0, data=[57, 30]),
   midi.NoteOnEvent(tick=720, channel=0, data=[57, 0]),
   midi.NoteOnEvent(tick=0, channel=0, data=[58, 30]),
   midi.NoteOnEvent(tick=660, channel=0, data=[41, 23]),
   midi.NoteOnEvent(tick=30, channel=0, data=[48, 0]),
   midi.NoteOnEvent(tick=0, channel=0, data=[48, 27]),
   midi.NoteOnEvent(tick=30, channel=0, data=[41, 0]),
   midi.NoteOnEvent(tick=0, channel=0, data=[58, 0]),
   midi.NoteOnEvent(tick=0, channel=0, data=[57, 32]),
   midi.NoteOnEvent(tick=720, channel=0, data=[57, 0]),
   midi.NoteOnEvent(tick=450, channel=0, data=[48, 0]),
   midi.NoteOnEvent(tick=30, channel=0, data=[41, 0]),
   midi.NoteOnEvent(tick=240, channel=0, data=[45, 29]),
   midi.NoteOnEvent(tick=0, channel=0, data=[52, 34]),
   midi.NoteOnEvent(tick=720, channel=0, data=[52, 0]),
   midi.NoteOnEvent(tick=0, channel=0, data=[53, 29]),
   midi.NoteOnEvent(tick=720, channel=0, data=[53, 0]),
   midi.NoteOnEvent(tick=0, channel=0, data=[55, 34]),
   midi.NoteOnEvent(tick=720, channel=0, data=[55, 0]),
   midi.NoteOnEvent(tick=0, channel=0, data=[53, 29]),
   midi.NoteOnEvent(tick=660, channel=0, data=[53, 0]),
   midi.NoteOnEvent(tick=0, channel=0, data=[45, 25]),
   midi.NoteOnEvent(tick=30, channel=0, data=[52, 29]),
   midi.NoteOnEvent(tick=30, channel=0, data=[45, 0]),
   midi.NoteOnEvent(tick=0, channel=0, data=[60, 34]),
   midi.NoteOnEvent(tick=720, channel=0, data=[60, 0]),
   midi.NoteOnEvent(tick=0, channel=0, data=[62, 33]),
   midi.NoteOnEvent(tick=660, channel=0, data=[45, 25]),
   midi.NoteOnEvent(tick=30, channel=0, data=[52, 0]),
   midi.NoteOnEvent(tick=0, channel=0, data=[52, 29]),
   midi.NoteOnEvent(tick=30, channel=0, data=[45, 0]),
   midi.NoteOnEvent(tick=0, channel=0, data=[62, 0]),
   midi.NoteOnEvent(tick=0, channel=0, data=[60, 34]),
   midi.NoteOnEvent(tick=1410, channel=0, data=[52, 0]),
   midi.NoteOnEvent(tick=30, channel=0, data=[60, 0]),
   midi.NoteOnEvent(tick=0, channel=0, data=[45, 0]),
   midi.NoteOnEvent(tick=0, channel=0, data=[50, 29]),
   midi.NoteOnEvent(tick=0, channel=0, data=[60, 34]),
   midi.NoteOnEvent(tick=1380, channel=0, data=[60, 0]),
   midi.NoteOnEvent(tick=0, channel=0, data=[50, 0]),
   midi.NoteOnEvent(tick=0, channel=0, data=[43, 34]),
   midi.NoteOnEvent(tick=30, channel=0, data=[50, 34]),
   midi.NoteOnEvent(tick=30, channel=0, data=[59, 34]),
   midi.NoteOnEvent(tick=1140, channel=0, data=[50, 0]),
   midi.NoteOnEvent(tick=60, channel=0, data=[59, 0]),
   midi.NoteOnEvent(tick=0, channel=0, data=[43, 0]),
   midi.NoteOnEvent(tick=240, channel=0, data=[50, 29]),
   midi.NoteOnEvent(tick=0, channel=0, data=[60, 34]),
   midi.NoteOnEvent(tick=1380, channel=0, data=[60, 0]),
   midi.NoteOnEvent(tick=0, channel=0, data=[50, 0]),
   midi.NoteOnEvent(tick=0, channel=0, data=[43, 38]),
   midi.NoteOnEvent(tick=30, channel=0, data=[50, 40]),
   midi.NoteOnEvent(tick=30, channel=0, data=[59, 43]),
   midi.NoteOnEvent(tick=1350, channel=0, data=[59, 0]),
   midi.NoteOnEvent(tick=0, channel=0, data=[50, 0]),
   midi.NoteOnEvent(tick=0, channel=0, data=[43, 0]),
   midi.NoteOnEvent(tick=0, channel=0, data=[55, 38]),
   midi.NoteOnEvent(tick=30, channel=0, data=[62, 40]),
   midi.NoteOnEvent(tick=30, channel=0, data=[65, 44]),
   midi.NoteOnEvent(tick=30, channel=0, data=[70, 57]),
   midi.NoteOnEvent(tick=1350, channel=0, data=[70, 0]),
   midi.NoteOnEvent(tick=0, channel=0, data=[55, 0]),
   midi.NoteOnEvent(tick=0, channel=0, data=[62, 0]),
   midi.NoteOnEvent(tick=0, channel=0, data=[65, 0]),
   midi.NoteOnEvent(tick=0, channel=0, data=[48, 40]),
   midi.NoteOnEvent(tick=30, channel=0, data=[55, 41]),
   midi.NoteOnEvent(tick=30, channel=0, data=[58, 42]),
   midi.NoteOnEvent(tick=30, channel=0, data=[64, 57]),
   midi.NoteOnEvent(tick=1250, channel=0, data=[55, 0]),
   midi.NoteOnEvent(tick=100, channel=0, data=[48, 0]),
   midi.NoteOnEvent(tick=0, channel=0, data=[58, 0]),
   midi.NoteOnEvent(tick=0, channel=0, data=[64, 0]),
   midi.NoteOnEvent(tick=0, channel=0, data=[55, 38]),
   midi.NoteOnEvent(tick=30, channel=0, data=[62, 40]),
   midi.NoteOnEvent(tick=30, channel=0, data=[65, 44]),
   midi.NoteOnEvent(tick=30, channel=0, data=[70, 57]),
   midi.NoteOnEvent(tick=1350, channel=0, data=[70, 0]),
   midi.NoteOnEvent(tick=0, channel=0, data=[55, 0]),
   midi.NoteOnEvent(tick=0, channel=0, data=[62, 0]),
   midi.NoteOnEvent(tick=0, channel=0, data=[65, 0]),
   midi.NoteOnEvent(tick=0, channel=0, data=[48, 40]),
   midi.NoteOnEvent(tick=30, channel=0, data=[55, 41]),
   midi.NoteOnEvent(tick=30, channel=0, data=[58, 42]),
   midi.NoteOnEvent(tick=30, channel=0, data=[64, 57]),
   midi.NoteOnEvent(tick=1250, channel=0, data=[55, 0]),
   midi.NoteOnEvent(tick=100, channel=0, data=[48, 0]),
   midi.NoteOnEvent(tick=0, channel=0, data=[58, 0]),
   midi.NoteOnEvent(tick=0, channel=0, data=[64, 0]),
   midi.NoteOnEvent(tick=0, channel=0, data=[46, 40]),
   midi.NoteOnEvent(tick=30, channel=0, data=[55, 43]),
   midi.NoteOnEvent(tick=30, channel=0, data=[62, 46]),
   midi.NoteOnEvent(tick=30, channel=0, data=[65, 48]),
   midi.NoteOnEvent(tick=1920, channel=0, data=[65, 0]),
   midi.NoteOnEvent(tick=0, channel=0, data=[46, 0]),
   midi.NoteOnEvent(tick=0, channel=0, data=[55, 0]),
   midi.NoteOnEvent(tick=0, channel=0, data=[62, 0]),
   midi.NoteOnEvent(tick=2400, channel=0, data=[49, 44]),
   midi.NoteOnEvent(tick=1200, channel=0, data=[49, 0]),
   midi.NoteOnEvent(tick=0, channel=0, data=[48, 32]),
   midi.NoteOnEvent(tick=240, channel=0, data=[48, 0]),
   midi.NoteOnEvent(tick=0, channel=0, data=[41, 21]),
   midi.NoteOnEvent(tick=0, channel=0, data=[48, 27]),
   midi.NoteOnEvent(tick=720, channel=0, data=[48, 0]),
   midi.NoteOnEvent(tick=0, channel=0, data=[41, 0]),
   midi.NoteOnEvent(tick=0, channel=0, data=[49, 38]),
   midi.NoteOnEvent(tick=0, channel=0, data=[61, 30]),
   midi.NoteOnEvent(tick=720, channel=0, data=[61, 0]),
   midi.NoteOnEvent(tick=0, channel=0, data=[49, 0]),
   midi.NoteOnEvent(tick=0, channel=0, data=[41, 21]),
   midi.NoteOnEvent(tick=0, channel=0, data=[57, 32]),
   midi.NoteOnEvent(tick=0, channel=0, data=[48, 27]),
   midi.NoteOnEvent(tick=720, channel=0, data=[48, 0]),
   midi.NoteOnEvent(tick=0, channel=0, data=[57, 0]),
   midi.NoteOnEvent(tick=0, channel=0, data=[41, 0]),
   midi.NoteOnEvent(tick=0, channel=0, data=[49, 38]),
   midi.NoteOnEvent(tick=0, channel=0, data=[61, 30]),
   midi.NoteOnEvent(tick=720, channel=0, data=[61, 0]),
   midi.NoteOnEvent(tick=0, channel=0, data=[49, 0]),
   midi.NoteOnEvent(tick=0, channel=0, data=[41, 22]),
   midi.NoteOnEvent(tick=0, channel=0, data=[48, 26]),
   midi.NoteOnEvent(tick=240, channel=0, data=[48, 0]),
   midi.NoteOnEvent(tick=0, channel=0, data=[41, 0]),
   midi.NoteOnEvent(tick=480, channel=0, data=[53, 19]),
   midi.NoteOnEvent(tick=0, channel=0, data=[60, 23]),
   midi.NoteOnEvent(tick=240, channel=0, data=[60, 0]),
   midi.NoteOnEvent(tick=0, channel=0, data=[53, 0]),
   midi.NoteOnEvent(tick=480, channel=0, data=[65, 20]),
   midi.NoteOnEvent(tick=0, channel=0, data=[72, 25]),
   midi.NoteOnEvent(tick=1200, channel=0, data=[72, 0]),
   midi.NoteOnEvent(tick=0, channel=0, data=[65, 0]),
   midi.ControlChangeEvent(tick=805, channel=0, data=[64, 127]),
   midi.ControlChangeEvent(tick=642, channel=0, data=[64, 0]),
   midi.ControlChangeEvent(tick=801, channel=0, data=[64, 127]),
   midi.ControlChangeEvent(tick=632, channel=0, data=[64, 0]),
   midi.ControlChangeEvent(tick=124, channel=0, data=[64, 127]),
   midi.ControlChangeEvent(tick=613, channel=0, data=[64, 0]),
   midi.ControlChangeEvent(tick=61, channel=0, data=[64, 127]),
   midi.ControlChangeEvent(tick=419, channel=0, data=[64, 0]),
   midi.ControlChangeEvent(tick=43, channel=0, data=[64, 127]),
   midi.ControlChangeEvent(tick=195, channel=0, data=[64, 0]),
   midi.ControlChangeEvent(tick=132, channel=0, data=[64, 127]),
   midi.ControlChangeEvent(tick=1027, channel=0, data=[64, 0]),
   midi.ControlChangeEvent(tick=1071, channel=0, data=[64, 127]),
   midi.ControlChangeEvent(tick=642, channel=0, data=[64, 0]),
   midi.ControlChangeEvent(tick=837, channel=0, data=[64, 127]),
   midi.ControlChangeEvent(tick=596, channel=0, data=[64, 0]),
   midi.ControlChangeEvent(tick=124, channel=0, data=[64, 127]),
   midi.ControlChangeEvent(tick=613, channel=0, data=[64, 0]),
   midi.ControlChangeEvent(tick=61, channel=0, data=[64, 127]),
   midi.ControlChangeEvent(tick=419, channel=0, data=[64, 0]),
   midi.ControlChangeEvent(tick=43, channel=0, data=[64, 127]),
   midi.ControlChangeEvent(tick=195, channel=0, data=[64, 0]),
   midi.ControlChangeEvent(tick=132, channel=0, data=[64, 127]),
   midi.ControlChangeEvent(tick=821, channel=0, data=[64, 0]),
   midi.ControlChangeEvent(tick=529, channel=0, data=[64, 127]),
   midi.ControlChangeEvent(tick=684, channel=0, data=[64, 0]),
   midi.ControlChangeEvent(tick=819, channel=0, data=[64, 127]),
   midi.ControlChangeEvent(tick=1094, channel=0, data=[64, 0]),
   midi.ControlChangeEvent(tick=283, channel=0, data=[64, 127]),
   midi.ControlChangeEvent(tick=684, channel=0, data=[64, 0]),
   midi.ControlChangeEvent(tick=819, channel=0, data=[64, 127]),
   midi.ControlChangeEvent(tick=607, channel=0, data=[64, 0]),
   midi.ControlChangeEvent(tick=6576, channel=0, data=[64, 127]),
   midi.ControlChangeEvent(tick=634, channel=0, data=[64, 0]),
   midi.ControlChangeEvent(tick=75, channel=0, data=[64, 127]),
   midi.ControlChangeEvent(tick=634, channel=0, data=[64, 0]),
   midi.ControlChangeEvent(tick=97, channel=0, data=[64, 127]),
   midi.ControlChangeEvent(tick=634, channel=0, data=[64, 0]),
   midi.ControlChangeEvent(tick=75, channel=0, data=[64, 127]),
   midi.ControlChangeEvent(tick=628, channel=0, data=[64, 0]),
   midi.ControlChangeEvent(tick=147, channel=0, data=[64, 127]),
   midi.ControlChangeEvent(tick=2280, channel=0, data=[64, 0]),
   midi.ControlChangeEvent(tick=1258, channel=0, data=[64, 127]),
   midi.ControlChangeEvent(tick=642, channel=0, data=[64, 0]),
   midi.ControlChangeEvent(tick=801, channel=0, data=[64, 127]),
   midi.ControlChangeEvent(tick=632, channel=0, data=[64, 0]),
   midi.ControlChangeEvent(tick=124, channel=0, data=[64, 127]),
   midi.ControlChangeEvent(tick=613, channel=0, data=[64, 0]),
   midi.ControlChangeEvent(tick=61, channel=0, data=[64, 127]),
   midi.ControlChangeEvent(tick=419, channel=0, data=[64, 0]),
   midi.ControlChangeEvent(tick=43, channel=0, data=[64, 127]),
   midi.ControlChangeEvent(tick=195, channel=0, data=[64, 0]),
   midi.ControlChangeEvent(tick=132, channel=0, data=[64, 127]),
   midi.ControlChangeEvent(tick=1027, channel=0, data=[64, 0]),
   midi.ControlChangeEvent(tick=1071, channel=0, data=[64, 127]),
   midi.ControlChangeEvent(tick=642, channel=0, data=[64, 0]),
   midi.ControlChangeEvent(tick=837, channel=0, data=[64, 127]),
   midi.ControlChangeEvent(tick=596, channel=0, data=[64, 0]),
   midi.ControlChangeEvent(tick=124, channel=0, data=[64, 127]),
   midi.ControlChangeEvent(tick=613, channel=0, data=[64, 0]),
   midi.ControlChangeEvent(tick=61, channel=0, data=[64, 127]),
   midi.ControlChangeEvent(tick=419, channel=0, data=[64, 0]),
   midi.ControlChangeEvent(tick=43, channel=0, data=[64, 127]),
   midi.ControlChangeEvent(tick=195, channel=0, data=[64, 0]),
   midi.ControlChangeEvent(tick=132, channel=0, data=[64, 127]),
   midi.ControlChangeEvent(tick=821, channel=0, data=[64, 0]),
   midi.ControlChangeEvent(tick=529, channel=0, data=[64, 127]),
   midi.ControlChangeEvent(tick=684, channel=0, data=[64, 0]),
   midi.ControlChangeEvent(tick=819, channel=0, data=[64, 127]),
   midi.ControlChangeEvent(tick=1094, channel=0, data=[64, 0]),
   midi.ControlChangeEvent(tick=283, channel=0, data=[64, 127]),
   midi.ControlChangeEvent(tick=684, channel=0, data=[64, 0]),
   midi.ControlChangeEvent(tick=819, channel=0, data=[64, 127]),
   midi.ControlChangeEvent(tick=607, channel=0, data=[64, 0]),
   midi.ControlChangeEvent(tick=6576, channel=0, data=[64, 127]),
   midi.ControlChangeEvent(tick=634, channel=0, data=[64, 0]),
   midi.ControlChangeEvent(tick=75, channel=0, data=[64, 127]),
   midi.ControlChangeEvent(tick=634, channel=0, data=[64, 0]),
   midi.ControlChangeEvent(tick=97, channel=0, data=[64, 127]),
   midi.ControlChangeEvent(tick=634, channel=0, data=[64, 0]),
   midi.ControlChangeEvent(tick=75, channel=0, data=[64, 127]),
   midi.ControlChangeEvent(tick=628, channel=0, data=[64, 0]),
   midi.ControlChangeEvent(tick=160, channel=0, data=[64, 127]),
   midi.ControlChangeEvent(tick=2267, channel=0, data=[64, 0]),
   midi.ControlChangeEvent(tick=3393, channel=0, data=[64, 127]),
   midi.ControlChangeEvent(tick=2493, channel=0, data=[64, 0]),
   midi.ControlChangeEvent(tick=3267, channel=0, data=[64, 127]),
   midi.ControlChangeEvent(tick=2493, channel=0, data=[64, 0]),
   midi.ControlChangeEvent(tick=447, channel=0, data=[64, 127]),
   midi.ControlChangeEvent(tick=2690, channel=0, data=[64, 0]),
   midi.ControlChangeEvent(tick=70, channel=0, data=[64, 127]),
   midi.ControlChangeEvent(tick=2880, channel=0, data=[64, 0]),
   midi.ControlChangeEvent(tick=120, channel=0, data=[64, 127]),
   midi.ControlChangeEvent(tick=2690, channel=0, data=[64, 0]),
   midi.ControlChangeEvent(tick=70, channel=0, data=[64, 127]),
   midi.ControlChangeEvent(tick=2120, channel=0, data=[64, 0]),
   midi.ControlChangeEvent(tick=43, channel=0, data=[64, 127]),
   midi.ControlChangeEvent(tick=784, channel=0, data=[64, 0]),
   midi.ControlChangeEvent(tick=133, channel=0, data=[64, 127]),
   midi.ControlChangeEvent(tick=5560, channel=0, data=[64, 0]),
   midi.ControlChangeEvent(tick=1406, channel=0, data=[64, 127]),
   midi.ControlChangeEvent(tick=1474, channel=0, data=[64, 0]),
   midi.ControlChangeEvent(tick=187, channel=0, data=[64, 127]),
   midi.ControlChangeEvent(tick=960, channel=0, data=[64, 0]),
   midi.ControlChangeEvent(tick=259, channel=0, data=[64, 127]),
   midi.ControlChangeEvent(tick=1474, channel=0, data=[64, 0]),
   midi.ControlChangeEvent(tick=187, channel=0, data=[64, 127]),
   midi.ControlChangeEvent(tick=1253, channel=0, data=[64, 0]),
   midi.ControlChangeEvent(tick=6565, channel=0, data=[64, 127]),
   midi.ControlChangeEvent(tick=642, channel=0, data=[64, 0]),
   midi.ControlChangeEvent(tick=801, channel=0, data=[64, 127]),
   midi.ControlChangeEvent(tick=632, channel=0, data=[64, 0]),
   midi.ControlChangeEvent(tick=124, channel=0, data=[64, 127]),
   midi.ControlChangeEvent(tick=613, channel=0, data=[64, 0]),
   midi.ControlChangeEvent(tick=61, channel=0, data=[64, 127]),
   midi.ControlChangeEvent(tick=419, channel=0, data=[64, 0]),
   midi.ControlChangeEvent(tick=43, channel=0, data=[64, 127]),
   midi.ControlChangeEvent(tick=195, channel=0, data=[64, 0]),
   midi.ControlChangeEvent(tick=132, channel=0, data=[64, 127]),
   midi.ControlChangeEvent(tick=1027, channel=0, data=[64, 0]),
   midi.ControlChangeEvent(tick=1071, channel=0, data=[64, 127]),
   midi.ControlChangeEvent(tick=642, channel=0, data=[64, 0]),
   midi.ControlChangeEvent(tick=837, channel=0, data=[64, 127]),
   midi.ControlChangeEvent(tick=596, channel=0, data=[64, 0]),
   midi.ControlChangeEvent(tick=124, channel=0, data=[64, 127]),
   midi.ControlChangeEvent(tick=613, channel=0, data=[64, 0]),
   midi.ControlChangeEvent(tick=61, channel=0, data=[64, 127]),
   midi.ControlChangeEvent(tick=419, channel=0, data=[64, 0]),
   midi.ControlChangeEvent(tick=43, channel=0, data=[64, 127]),
   midi.ControlChangeEvent(tick=195, channel=0, data=[64, 0]),
   midi.ControlChangeEvent(tick=132, channel=0, data=[64, 127]),
   midi.ControlChangeEvent(tick=821, channel=0, data=[64, 0]),
   midi.ControlChangeEvent(tick=529, channel=0, data=[64, 127]),
   midi.ControlChangeEvent(tick=684, channel=0, data=[64, 0]),
   midi.ControlChangeEvent(tick=819, channel=0, data=[64, 127]),
   midi.ControlChangeEvent(tick=1094, channel=0, data=[64, 0]),
   midi.ControlChangeEvent(tick=283, channel=0, data=[64, 127]),
   midi.ControlChangeEvent(tick=684, channel=0, data=[64, 0]),
   midi.ControlChangeEvent(tick=819, channel=0, data=[64, 127]),
   midi.ControlChangeEvent(tick=607, channel=0, data=[64, 0]),
   midi.ControlChangeEvent(tick=770, channel=0, data=[64, 127]),
   midi.ControlChangeEvent(tick=684, channel=0, data=[64, 0]),
   midi.ControlChangeEvent(tick=819, channel=0, data=[64, 127]),
   midi.ControlChangeEvent(tick=1243, channel=0, data=[64, 0]),
   midi.ControlChangeEvent(tick=130, channel=0, data=[64, 127]),
   midi.ControlChangeEvent(tick=685, channel=0, data=[64, 0]),
   midi.ControlChangeEvent(tick=776, channel=0, data=[64, 127]),
   midi.ControlChangeEvent(tick=653, channel=0, data=[64, 0]),
   midi.ControlChangeEvent(tick=614, channel=0, data=[64, 0]),
   midi.ControlChangeEvent(tick=5962, channel=0, data=[64, 127]),
   midi.ControlChangeEvent(tick=634, channel=0, data=[64, 0]),
   midi.ControlChangeEvent(tick=75, channel=0, data=[64, 127]),
   midi.ControlChangeEvent(tick=634, channel=0, data=[64, 0]),
   midi.ControlChangeEvent(tick=97, channel=0, data=[64, 127]),
   midi.ControlChangeEvent(tick=634, channel=0, data=[64, 0]),
   midi.ControlChangeEvent(tick=75, channel=0, data=[64, 127]),
   midi.ControlChangeEvent(tick=628, channel=0, data=[64, 0]),
   midi.ControlChangeEvent(tick=187, channel=0, data=[64, 127]),
   midi.ControlChangeEvent(tick=2240, channel=0, data=[64, 0]),
   midi.ControlChangeEvent(tick=3393, channel=0, data=[64, 127]),
   midi.ControlChangeEvent(tick=2493, channel=0, data=[64, 0]),
   midi.ControlChangeEvent(tick=3267, channel=0, data=[64, 127]),
   midi.ControlChangeEvent(tick=2493, channel=0, data=[64, 0]),
   midi.ControlChangeEvent(tick=447, channel=0, data=[64, 127]),
   midi.ControlChangeEvent(tick=2690, channel=0, data=[64, 0]),
   midi.ControlChangeEvent(tick=70, channel=0, data=[64, 127]),
   midi.ControlChangeEvent(tick=2880, channel=0, data=[64, 0]),
   midi.ControlChangeEvent(tick=120, channel=0, data=[64, 127]),
   midi.ControlChangeEvent(tick=2690, channel=0, data=[64, 0]),
   midi.ControlChangeEvent(tick=70, channel=0, data=[64, 127]),
   midi.ControlChangeEvent(tick=2120, channel=0, data=[64, 0]),
   midi.ControlChangeEvent(tick=43, channel=0, data=[64, 127]),
   midi.ControlChangeEvent(tick=784, channel=0, data=[64, 0]),
   midi.ControlChangeEvent(tick=133, channel=0, data=[64, 127]),
   midi.ControlChangeEvent(tick=5560, channel=0, data=[64, 0]),
   midi.ControlChangeEvent(tick=1406, channel=0, data=[64, 127]),
   midi.ControlChangeEvent(tick=1474, channel=0, data=[64, 0]),
   midi.ControlChangeEvent(tick=187, channel=0, data=[64, 127]),
   midi.ControlChangeEvent(tick=960, channel=0, data=[64, 0]),
   midi.ControlChangeEvent(tick=259, channel=0, data=[64, 127]),
   midi.ControlChangeEvent(tick=1474, channel=0, data=[64, 0]),
   midi.ControlChangeEvent(tick=187, channel=0, data=[64, 127]),
   midi.ControlChangeEvent(tick=1253, channel=0, data=[64, 0]),
   midi.ControlChangeEvent(tick=6565, channel=0, data=[64, 127]),
   midi.ControlChangeEvent(tick=642, channel=0, data=[64, 0]),
   midi.ControlChangeEvent(tick=801, channel=0, data=[64, 127]),
   midi.ControlChangeEvent(tick=632, channel=0, data=[64, 0]),
   midi.ControlChangeEvent(tick=124, channel=0, data=[64, 127]),
   midi.ControlChangeEvent(tick=613, channel=0, data=[64, 0]),
   midi.ControlChangeEvent(tick=61, channel=0, data=[64, 127]),
   midi.ControlChangeEvent(tick=419, channel=0, data=[64, 0]),
   midi.ControlChangeEvent(tick=43, channel=0, data=[64, 127]),
   midi.ControlChangeEvent(tick=195, channel=0, data=[64, 0]),
   midi.ControlChangeEvent(tick=132, channel=0, data=[64, 127]),
   midi.ControlChangeEvent(tick=1027, channel=0, data=[64, 0]),
   midi.ControlChangeEvent(tick=1071, channel=0, data=[64, 127]),
   midi.ControlChangeEvent(tick=642, channel=0, data=[64, 0]),
   midi.ControlChangeEvent(tick=837, channel=0, data=[64, 127]),
   midi.ControlChangeEvent(tick=596, channel=0, data=[64, 0]),
   midi.ControlChangeEvent(tick=124, channel=0, data=[64, 127]),
   midi.ControlChangeEvent(tick=613, channel=0, data=[64, 0]),
   midi.ControlChangeEvent(tick=61, channel=0, data=[64, 127]),
   midi.ControlChangeEvent(tick=419, channel=0, data=[64, 0]),
   midi.ControlChangeEvent(tick=43, channel=0, data=[64, 127]),
   midi.ControlChangeEvent(tick=195, channel=0, data=[64, 0]),
   midi.ControlChangeEvent(tick=132, channel=0, data=[64, 127]),
   midi.ControlChangeEvent(tick=821, channel=0, data=[64, 0]),
   midi.ControlChangeEvent(tick=529, channel=0, data=[64, 127]),
   midi.ControlChangeEvent(tick=684, channel=0, data=[64, 0]),
   midi.ControlChangeEvent(tick=819, channel=0, data=[64, 127]),
   midi.ControlChangeEvent(tick=1094, channel=0, data=[64, 0]),
   midi.ControlChangeEvent(tick=283, channel=0, data=[64, 127]),
   midi.ControlChangeEvent(tick=684, channel=0, data=[64, 0]),
   midi.ControlChangeEvent(tick=819, channel=0, data=[64, 127]),
   midi.ControlChangeEvent(tick=607, channel=0, data=[64, 0]),
   midi.ControlChangeEvent(tick=770, channel=0, data=[64, 127]),
   midi.ControlChangeEvent(tick=684, channel=0, data=[64, 0]),
   midi.ControlChangeEvent(tick=819, channel=0, data=[64, 127]),
   midi.ControlChangeEvent(tick=1243, channel=0, data=[64, 0]),
   midi.ControlChangeEvent(tick=130, channel=0, data=[64, 127]),
   midi.ControlChangeEvent(tick=685, channel=0, data=[64, 0]),
   midi.ControlChangeEvent(tick=776, channel=0, data=[64, 127]),
   midi.ControlChangeEvent(tick=653, channel=0, data=[64, 0]),
   midi.ControlChangeEvent(tick=614, channel=0, data=[64, 0]),
   midi.ControlChangeEvent(tick=5962, channel=0, data=[64, 127]),
   midi.ControlChangeEvent(tick=634, channel=0, data=[64, 0]),
   midi.ControlChangeEvent(tick=75, channel=0, data=[64, 127]),
   midi.ControlChangeEvent(tick=634, channel=0, data=[64, 0]),
   midi.ControlChangeEvent(tick=97, channel=0, data=[64, 127]),
   midi.ControlChangeEvent(tick=634, channel=0, data=[64, 0]),
   midi.ControlChangeEvent(tick=75, channel=0, data=[64, 127]),
   midi.ControlChangeEvent(tick=628, channel=0, data=[64, 0]),
   midi.ControlChangeEvent(tick=254, channel=0, data=[64, 127]),
   midi.ControlChangeEvent(tick=2173, channel=0, data=[64, 0]),
   midi.EndOfTrackEvent(tick=0, data=[])])])
midi.write_midifile("creationMidi.mid", pattern)