import midi
pattern=midi.Pattern(format=1, resolution=480, tracks=\
[midi.Track(\
[   midi.NoteOnEvent(tick=0, channel=0, data=[72, 57]),
   midi.NoteOnEvent(tick=480, channel=0, data=[72, 0]),
   midi.NoteOnEvent(tick=0, channel=0, data=[84, 57]),
   midi.NoteOnEvent(tick=120, channel=0, data=[84, 0]),
   midi.NoteOnEvent(tick=360, channel=0, data=[76, 57]),
   midi.NoteOnEvent(tick=240, channel=0, data=[76, 0]),
   midi.NoteOnEvent(tick=120, channel=0, data=[79, 48]),
   midi.NoteOnEvent(tick=120, channel=0, data=[79, 0]),
   midi.NoteOnEvent(tick=0, channel=0, data=[77, 57]),
   midi.NoteOnEvent(tick=480, channel=0, data=[77, 0]),
   midi.NoteOnEvent(tick=0, channel=0, data=[74, 52]),
   midi.NoteOnEvent(tick=120, channel=0, data=[74, 0]),
   midi.NoteOnEvent(tick=360, channel=0, data=[74, 57]),
   midi.NoteOnEvent(tick=240, channel=0, data=[74, 0]),
   midi.NoteOnEvent(tick=120, channel=0, data=[77, 54]),
   midi.NoteOnEvent(tick=120, channel=0, data=[77, 0]),
   midi.NoteOnEvent(tick=0, channel=0, data=[76, 57]),
   midi.NoteOnEvent(tick=480, channel=0, data=[76, 0]),
   midi.NoteOnEvent(tick=0, channel=0, data=[72, 54]),
   midi.NoteOnEvent(tick=120, channel=0, data=[72, 0]),
   midi.NoteOnEvent(tick=360, channel=0, data=[69, 58]),
   midi.NoteOnEvent(tick=240, channel=0, data=[69, 0]),
   midi.NoteOnEvent(tick=120, channel=0, data=[74, 46]),
   midi.NoteOnEvent(tick=120, channel=0, data=[74, 0]),
   midi.NoteOnEvent(tick=0, channel=0, data=[72, 58]),
   midi.NoteOnEvent(tick=960, channel=0, data=[72, 0]),
   midi.NoteOnEvent(tick=0, channel=0, data=[71, 55]),
   midi.NoteOnEvent(tick=240, channel=0, data=[71, 0]),
   midi.NoteOnEvent(tick=240, channel=0, data=[74, 75]),
   midi.NoteOnEvent(tick=480, channel=0, data=[74, 0]),
   midi.NoteOnEvent(tick=0, channel=0, data=[79, 57]),
   midi.NoteOnEvent(tick=120, channel=0, data=[79, 0]),
   midi.NoteOnEvent(tick=0, channel=0, data=[78, 55]),
   midi.NoteOnEvent(tick=120, channel=0, data=[78, 0]),
   midi.NoteOnEvent(tick=0, channel=0, data=[79, 57]),
   midi.NoteOnEvent(tick=120, channel=0, data=[79, 0]),
   midi.NoteOnEvent(tick=0, channel=0, data=[81, 55]),
   midi.NoteOnEvent(tick=120, channel=0, data=[81, 0]),
   midi.NoteOnEvent(tick=0, channel=0, data=[83, 62]),
   midi.NoteOnEvent(tick=120, channel=0, data=[83, 0]),
   midi.NoteOnEvent(tick=0, channel=0, data=[81, 55]),
   midi.NoteOnEvent(tick=120, channel=0, data=[81, 0]),
   midi.NoteOnEvent(tick=0, channel=0, data=[83, 62]),
   midi.NoteOnEvent(tick=120, channel=0, data=[83, 0]),
   midi.NoteOnEvent(tick=0, channel=0, data=[84, 59]),
   midi.NoteOnEvent(tick=120, channel=0, data=[84, 0]),
   midi.NoteOnEvent(tick=0, channel=0, data=[86, 73]),
   midi.NoteOnEvent(tick=480, channel=0, data=[86, 0]),
   midi.NoteOnEvent(tick=0, channel=0, data=[79, 57]),
   midi.NoteOnEvent(tick=120, channel=0, data=[79, 0]),
   midi.NoteOnEvent(tick=0, channel=0, data=[78, 55]),
   midi.NoteOnEvent(tick=120, channel=0, data=[78, 0]),
   midi.NoteOnEvent(tick=0, channel=0, data=[79, 57]),
   midi.NoteOnEvent(tick=120, channel=0, data=[79, 0]),
   midi.NoteOnEvent(tick=0, channel=0, data=[81, 55]),
   midi.NoteOnEvent(tick=120, channel=0, data=[81, 0]),
   midi.NoteOnEvent(tick=0, channel=0, data=[83, 62]),
   midi.NoteOnEvent(tick=120, channel=0, data=[83, 0]),
   midi.NoteOnEvent(tick=0, channel=0, data=[81, 55]),
   midi.NoteOnEvent(tick=120, channel=0, data=[81, 0]),
   midi.NoteOnEvent(tick=0, channel=0, data=[83, 62]),
   midi.NoteOnEvent(tick=120, channel=0, data=[83, 0]),
   midi.NoteOnEvent(tick=0, channel=0, data=[84, 59]),
   midi.NoteOnEvent(tick=120, channel=0, data=[84, 0]),
   midi.NoteOnEvent(tick=0, channel=0, data=[86, 75]),
   midi.NoteOnEvent(tick=480, channel=0, data=[86, 0]),
   midi.NoteOnEvent(tick=0, channel=0, data=[71, 58]),
   midi.NoteOnEvent(tick=480, channel=0, data=[71, 0]),
   midi.NoteOnEvent(tick=0, channel=0, data=[69, 57]),
   midi.NoteOnEvent(tick=60, channel=0, data=[69, 0]),
   midi.NoteOnEvent(tick=0, channel=0, data=[71, 50]),
   midi.NoteOnEvent(tick=60, channel=0, data=[71, 0]),
   midi.NoteOnEvent(tick=0, channel=0, data=[69, 52]),
   midi.NoteOnEvent(tick=60, channel=0, data=[69, 0]),
   midi.NoteOnEvent(tick=0, channel=0, data=[71, 58]),
   midi.NoteOnEvent(tick=60, channel=0, data=[71, 0]),
   midi.NoteOnEvent(tick=0, channel=0, data=[69, 49]),
   midi.NoteOnEvent(tick=75, channel=0, data=[69, 0]),
   midi.NoteOnEvent(tick=0, channel=0, data=[71, 52]),
   midi.NoteOnEvent(tick=75, channel=0, data=[71, 0]),
   midi.NoteOnEvent(tick=0, channel=0, data=[69, 52]),
   midi.NoteOnEvent(tick=75, channel=0, data=[69, 0]),
   midi.NoteOnEvent(tick=15, channel=0, data=[67, 58]),
   midi.NoteOnEvent(tick=960, channel=0, data=[67, 0]),
   midi.NoteOnEvent(tick=480, channel=0, data=[72, 57]),
   midi.NoteOnEvent(tick=480, channel=0, data=[72, 0]),
   midi.NoteOnEvent(tick=0, channel=0, data=[84, 57]),
   midi.NoteOnEvent(tick=120, channel=0, data=[84, 0]),
   midi.NoteOnEvent(tick=360, channel=0, data=[76, 57]),
   midi.NoteOnEvent(tick=240, channel=0, data=[76, 0]),
   midi.NoteOnEvent(tick=120, channel=0, data=[79, 48]),
   midi.NoteOnEvent(tick=120, channel=0, data=[79, 0]),
   midi.NoteOnEvent(tick=0, channel=0, data=[77, 57]),
   midi.NoteOnEvent(tick=480, channel=0, data=[77, 0]),
   midi.NoteOnEvent(tick=0, channel=0, data=[74, 52]),
   midi.NoteOnEvent(tick=120, channel=0, data=[74, 0]),
   midi.NoteOnEvent(tick=360, channel=0, data=[74, 57]),
   midi.NoteOnEvent(tick=240, channel=0, data=[74, 0]),
   midi.NoteOnEvent(tick=120, channel=0, data=[77, 54]),
   midi.NoteOnEvent(tick=120, channel=0, data=[77, 0]),
   midi.NoteOnEvent(tick=0, channel=0, data=[76, 57]),
   midi.NoteOnEvent(tick=480, channel=0, data=[76, 0]),
   midi.NoteOnEvent(tick=0, channel=0, data=[72, 54]),
   midi.NoteOnEvent(tick=120, channel=0, data=[72, 0]),
   midi.NoteOnEvent(tick=360, channel=0, data=[69, 58]),
   midi.NoteOnEvent(tick=240, channel=0, data=[69, 0]),
   midi.NoteOnEvent(tick=120, channel=0, data=[74, 46]),
   midi.NoteOnEvent(tick=120, channel=0, data=[74, 0]),
   midi.NoteOnEvent(tick=0, channel=0, data=[72, 58]),
   midi.NoteOnEvent(tick=960, channel=0, data=[72, 0]),
   midi.NoteOnEvent(tick=0, channel=0, data=[71, 55]),
   midi.NoteOnEvent(tick=240, channel=0, data=[71, 0]),
   midi.NoteOnEvent(tick=240, channel=0, data=[74, 75]),
   midi.NoteOnEvent(tick=480, channel=0, data=[74, 0]),
   midi.NoteOnEvent(tick=0, channel=0, data=[79, 57]),
   midi.NoteOnEvent(tick=120, channel=0, data=[79, 0]),
   midi.NoteOnEvent(tick=0, channel=0, data=[78, 55]),
   midi.NoteOnEvent(tick=120, channel=0, data=[78, 0]),
   midi.NoteOnEvent(tick=0, channel=0, data=[79, 57]),
   midi.NoteOnEvent(tick=120, channel=0, data=[79, 0]),
   midi.NoteOnEvent(tick=0, channel=0, data=[81, 55]),
   midi.NoteOnEvent(tick=120, channel=0, data=[81, 0]),
   midi.NoteOnEvent(tick=0, channel=0, data=[83, 62]),
   midi.NoteOnEvent(tick=120, channel=0, data=[83, 0]),
   midi.NoteOnEvent(tick=0, channel=0, data=[81, 55]),
   midi.NoteOnEvent(tick=120, channel=0, data=[81, 0]),
   midi.NoteOnEvent(tick=0, channel=0, data=[83, 62]),
   midi.NoteOnEvent(tick=120, channel=0, data=[83, 0]),
   midi.NoteOnEvent(tick=0, channel=0, data=[84, 59]),
   midi.NoteOnEvent(tick=120, channel=0, data=[84, 0]),
   midi.NoteOnEvent(tick=0, channel=0, data=[86, 75]),
   midi.NoteOnEvent(tick=480, channel=0, data=[86, 0]),
   midi.NoteOnEvent(tick=0, channel=0, data=[79, 57]),
   midi.NoteOnEvent(tick=120, channel=0, data=[79, 0]),
   midi.NoteOnEvent(tick=0, channel=0, data=[78, 55]),
   midi.NoteOnEvent(tick=120, channel=0, data=[78, 0]),
   midi.NoteOnEvent(tick=0, channel=0, data=[79, 57]),
   midi.NoteOnEvent(tick=120, channel=0, data=[79, 0]),
   midi.NoteOnEvent(tick=0, channel=0, data=[81, 55]),
   midi.NoteOnEvent(tick=120, channel=0, data=[81, 0]),
   midi.NoteOnEvent(tick=0, channel=0, data=[83, 62]),
   midi.NoteOnEvent(tick=120, channel=0, data=[83, 0]),
   midi.NoteOnEvent(tick=0, channel=0, data=[81, 55]),
   midi.NoteOnEvent(tick=120, channel=0, data=[81, 0]),
   midi.NoteOnEvent(tick=0, channel=0, data=[83, 62]),
   midi.NoteOnEvent(tick=120, channel=0, data=[83, 0]),
   midi.NoteOnEvent(tick=0, channel=0, data=[84, 59]),
   midi.NoteOnEvent(tick=120, channel=0, data=[84, 0]),
   midi.NoteOnEvent(tick=0, channel=0, data=[86, 76]),
   midi.NoteOnEvent(tick=480, channel=0, data=[86, 0]),
   midi.NoteOnEvent(tick=0, channel=0, data=[71, 58]),
   midi.NoteOnEvent(tick=480, channel=0, data=[71, 0]),
   midi.NoteOnEvent(tick=0, channel=0, data=[69, 57]),
   midi.NoteOnEvent(tick=60, channel=0, data=[69, 0]),
   midi.NoteOnEvent(tick=0, channel=0, data=[71, 50]),
   midi.NoteOnEvent(tick=60, channel=0, data=[71, 0]),
   midi.NoteOnEvent(tick=0, channel=0, data=[69, 52]),
   midi.NoteOnEvent(tick=60, channel=0, data=[69, 0]),
   midi.NoteOnEvent(tick=0, channel=0, data=[71, 58]),
   midi.NoteOnEvent(tick=60, channel=0, data=[71, 0]),
   midi.NoteOnEvent(tick=0, channel=0, data=[69, 49]),
   midi.NoteOnEvent(tick=75, channel=0, data=[69, 0]),
   midi.NoteOnEvent(tick=0, channel=0, data=[71, 52]),
   midi.NoteOnEvent(tick=75, channel=0, data=[71, 0]),
   midi.NoteOnEvent(tick=0, channel=0, data=[69, 52]),
   midi.NoteOnEvent(tick=75, channel=0, data=[69, 0]),
   midi.NoteOnEvent(tick=15, channel=0, data=[67, 58]),
   midi.NoteOnEvent(tick=960, channel=0, data=[67, 0]),
   midi.NoteOnEvent(tick=480, channel=0, data=[79, 57]),
   midi.NoteOnEvent(tick=480, channel=0, data=[79, 0]),
   midi.NoteOnEvent(tick=0, channel=0, data=[84, 57]),
   midi.NoteOnEvent(tick=120, channel=0, data=[84, 0]),
   midi.NoteOnEvent(tick=360, channel=0, data=[76, 57]),
   midi.NoteOnEvent(tick=240, channel=0, data=[76, 0]),
   midi.NoteOnEvent(tick=120, channel=0, data=[79, 48]),
   midi.NoteOnEvent(tick=120, channel=0, data=[79, 0]),
   midi.NoteOnEvent(tick=0, channel=0, data=[77, 57]),
   midi.NoteOnEvent(tick=480, channel=0, data=[77, 0]),
   midi.NoteOnEvent(tick=0, channel=0, data=[86, 52]),
   midi.NoteOnEvent(tick=120, channel=0, data=[86, 0]),
   midi.NoteOnEvent(tick=360, channel=0, data=[74, 57]),
   midi.NoteOnEvent(tick=240, channel=0, data=[74, 0]),
   midi.NoteOnEvent(tick=120, channel=0, data=[77, 54]),
   midi.NoteOnEvent(tick=120, channel=0, data=[77, 0]),
   midi.NoteOnEvent(tick=0, channel=0, data=[76, 57]),
   midi.NoteOnEvent(tick=480, channel=0, data=[76, 0]),
   midi.NoteOnEvent(tick=0, channel=0, data=[79, 62]),
   midi.NoteOnEvent(tick=480, channel=0, data=[79, 0]),
   midi.NoteOnEvent(tick=0, channel=0, data=[80, 58]),
   midi.NoteOnEvent(tick=360, channel=0, data=[80, 0]),
   midi.NoteOnEvent(tick=14, channel=0, data=[81, 51]),
   midi.NoteOnEvent(tick=106, channel=0, data=[72, 58]),
   midi.NoteOnEvent(tick=14, channel=0, data=[81, 0]),
   midi.NoteOnEvent(tick=946, channel=0, data=[72, 0]),
   midi.NoteOnEvent(tick=0, channel=0, data=[71, 55]),
   midi.NoteOnEvent(tick=240, channel=0, data=[71, 0]),
   midi.NoteOnEvent(tick=240, channel=0, data=[67, 75]),
   midi.NoteOnEvent(tick=480, channel=0, data=[67, 0]),
   midi.NoteOnEvent(tick=0, channel=0, data=[72, 57]),
   midi.NoteOnEvent(tick=120, channel=0, data=[72, 0]),
   midi.NoteOnEvent(tick=0, channel=0, data=[71, 55]),
   midi.NoteOnEvent(tick=115, channel=0, data=[72, 57]),
   midi.NoteOnEvent(tick=5, channel=0, data=[71, 0]),
   midi.NoteOnEvent(tick=115, channel=0, data=[72, 0]),
   midi.NoteOnEvent(tick=5, channel=0, data=[74, 55]),
   midi.NoteOnEvent(tick=115, channel=0, data=[76, 62]),
   midi.NoteOnEvent(tick=5, channel=0, data=[74, 0]),
   midi.NoteOnEvent(tick=115, channel=0, data=[76, 0]),
   midi.NoteOnEvent(tick=5, channel=0, data=[74, 55]),
   midi.NoteOnEvent(tick=115, channel=0, data=[76, 62]),
   midi.NoteOnEvent(tick=5, channel=0, data=[74, 0]),
   midi.NoteOnEvent(tick=115, channel=0, data=[76, 0]),
   midi.NoteOnEvent(tick=5, channel=0, data=[77, 59]),
   midi.NoteOnEvent(tick=120, channel=0, data=[77, 0]),
   midi.NoteOnEvent(tick=0, channel=0, data=[79, 81]),
   midi.NoteOnEvent(tick=480, channel=0, data=[79, 0]),
   midi.NoteOnEvent(tick=0, channel=0, data=[72, 57]),
   midi.NoteOnEvent(tick=240, channel=0, data=[72, 0]),
   midi.NoteOnEvent(tick=0, channel=0, data=[74, 57]),
   midi.NoteOnEvent(tick=120, channel=0, data=[74, 0]),
   midi.NoteOnEvent(tick=0, channel=0, data=[76, 55]),
   midi.NoteOnEvent(tick=120, channel=0, data=[76, 0]),
   midi.NoteOnEvent(tick=0, channel=0, data=[77, 63]),
   midi.NoteOnEvent(tick=120, channel=0, data=[77, 0]),
   midi.NoteOnEvent(tick=0, channel=0, data=[79, 65]),
   midi.NoteOnEvent(tick=120, channel=0, data=[79, 0]),
   midi.NoteOnEvent(tick=0, channel=0, data=[81, 66]),
   midi.NoteOnEvent(tick=120, channel=0, data=[81, 0]),
   midi.NoteOnEvent(tick=0, channel=0, data=[83, 69]),
   midi.NoteOnEvent(tick=120, channel=0, data=[83, 0]),
   midi.NoteOnEvent(tick=0, channel=0, data=[84, 78]),
   midi.NoteOnEvent(tick=480, channel=0, data=[84, 0]),
   midi.NoteOnEvent(tick=0, channel=0, data=[76, 69]),
   midi.NoteOnEvent(tick=0, channel=0, data=[72, 58]),
   midi.NoteOnEvent(tick=480, channel=0, data=[72, 0]),
   midi.NoteOnEvent(tick=0, channel=0, data=[76, 0]),
   midi.NoteOnEvent(tick=0, channel=0, data=[71, 58]),
   midi.NoteOnEvent(tick=0, channel=0, data=[74, 69]),
   midi.NoteOnEvent(tick=480, channel=0, data=[74, 0]),
   midi.NoteOnEvent(tick=0, channel=0, data=[71, 0]),
   midi.NoteOnEvent(tick=0, channel=0, data=[67, 60]),
   midi.NoteOnEvent(tick=0, channel=0, data=[72, 69]),
   midi.NoteOnEvent(tick=0, channel=0, data=[64, 60]),
   midi.NoteOnEvent(tick=1200, channel=0, data=[64, 0]),
   midi.NoteOnEvent(tick=0, channel=0, data=[72, 0]),
   midi.NoteOnEvent(tick=0, channel=0, data=[67, 0]),
   midi.NoteOnEvent(tick=240, channel=0, data=[79, 57]),
   midi.NoteOnEvent(tick=480, channel=0, data=[79, 0]),
   midi.NoteOnEvent(tick=0, channel=0, data=[84, 57]),
   midi.NoteOnEvent(tick=120, channel=0, data=[84, 0]),
   midi.NoteOnEvent(tick=360, channel=0, data=[76, 57]),
   midi.NoteOnEvent(tick=240, channel=0, data=[76, 0]),
   midi.NoteOnEvent(tick=120, channel=0, data=[79, 48]),
   midi.NoteOnEvent(tick=120, channel=0, data=[79, 0]),
   midi.NoteOnEvent(tick=0, channel=0, data=[77, 57]),
   midi.NoteOnEvent(tick=480, channel=0, data=[77, 0]),
   midi.NoteOnEvent(tick=0, channel=0, data=[86, 52]),
   midi.NoteOnEvent(tick=120, channel=0, data=[86, 0]),
   midi.NoteOnEvent(tick=360, channel=0, data=[74, 57]),
   midi.NoteOnEvent(tick=240, channel=0, data=[74, 0]),
   midi.NoteOnEvent(tick=120, channel=0, data=[77, 54]),
   midi.NoteOnEvent(tick=120, channel=0, data=[77, 0]),
   midi.NoteOnEvent(tick=0, channel=0, data=[76, 57]),
   midi.NoteOnEvent(tick=480, channel=0, data=[76, 0]),
   midi.NoteOnEvent(tick=0, channel=0, data=[79, 62]),
   midi.NoteOnEvent(tick=480, channel=0, data=[79, 0]),
   midi.NoteOnEvent(tick=0, channel=0, data=[80, 58]),
   midi.NoteOnEvent(tick=360, channel=0, data=[80, 0]),
   midi.NoteOnEvent(tick=14, channel=0, data=[81, 51]),
   midi.NoteOnEvent(tick=106, channel=0, data=[72, 59]),
   midi.NoteOnEvent(tick=14, channel=0, data=[81, 0]),
   midi.NoteOnEvent(tick=946, channel=0, data=[72, 0]),
   midi.NoteOnEvent(tick=0, channel=0, data=[71, 55]),
   midi.NoteOnEvent(tick=240, channel=0, data=[71, 0]),
   midi.NoteOnEvent(tick=240, channel=0, data=[67, 75]),
   midi.NoteOnEvent(tick=480, channel=0, data=[67, 0]),
   midi.NoteOnEvent(tick=0, channel=0, data=[72, 57]),
   midi.NoteOnEvent(tick=120, channel=0, data=[72, 0]),
   midi.NoteOnEvent(tick=0, channel=0, data=[71, 55]),
   midi.NoteOnEvent(tick=115, channel=0, data=[72, 57]),
   midi.NoteOnEvent(tick=5, channel=0, data=[71, 0]),
   midi.NoteOnEvent(tick=115, channel=0, data=[72, 0]),
   midi.NoteOnEvent(tick=5, channel=0, data=[74, 55]),
   midi.NoteOnEvent(tick=115, channel=0, data=[76, 62]),
   midi.NoteOnEvent(tick=5, channel=0, data=[74, 0]),
   midi.NoteOnEvent(tick=115, channel=0, data=[76, 0]),
   midi.NoteOnEvent(tick=5, channel=0, data=[74, 55]),
   midi.NoteOnEvent(tick=115, channel=0, data=[76, 62]),
   midi.NoteOnEvent(tick=5, channel=0, data=[74, 0]),
   midi.NoteOnEvent(tick=115, channel=0, data=[76, 0]),
   midi.NoteOnEvent(tick=5, channel=0, data=[77, 59]),
   midi.NoteOnEvent(tick=120, channel=0, data=[77, 0]),
   midi.NoteOnEvent(tick=0, channel=0, data=[79, 81]),
   midi.NoteOnEvent(tick=480, channel=0, data=[79, 0]),
   midi.NoteOnEvent(tick=0, channel=0, data=[72, 57]),
   midi.NoteOnEvent(tick=240, channel=0, data=[72, 0]),
   midi.NoteOnEvent(tick=0, channel=0, data=[74, 57]),
   midi.NoteOnEvent(tick=120, channel=0, data=[74, 0]),
   midi.NoteOnEvent(tick=0, channel=0, data=[76, 55]),
   midi.NoteOnEvent(tick=120, channel=0, data=[76, 0]),
   midi.NoteOnEvent(tick=0, channel=0, data=[77, 63]),
   midi.NoteOnEvent(tick=120, channel=0, data=[77, 0]),
   midi.NoteOnEvent(tick=0, channel=0, data=[79, 65]),
   midi.NoteOnEvent(tick=120, channel=0, data=[79, 0]),
   midi.NoteOnEvent(tick=0, channel=0, data=[81, 66]),
   midi.NoteOnEvent(tick=120, channel=0, data=[81, 0]),
   midi.NoteOnEvent(tick=0, channel=0, data=[83, 69]),
   midi.NoteOnEvent(tick=120, channel=0, data=[83, 0]),
   midi.NoteOnEvent(tick=0, channel=0, data=[84, 78]),
   midi.NoteOnEvent(tick=480, channel=0, data=[84, 0]),
   midi.NoteOnEvent(tick=0, channel=0, data=[76, 69]),
   midi.NoteOnEvent(tick=0, channel=0, data=[72, 58]),
   midi.NoteOnEvent(tick=480, channel=0, data=[72, 0]),
   midi.NoteOnEvent(tick=0, channel=0, data=[76, 0]),
   midi.NoteOnEvent(tick=0, channel=0, data=[71, 58]),
   midi.NoteOnEvent(tick=0, channel=0, data=[74, 69]),
   midi.NoteOnEvent(tick=480, channel=0, data=[74, 0]),
   midi.NoteOnEvent(tick=0, channel=0, data=[71, 0]),
   midi.NoteOnEvent(tick=0, channel=0, data=[67, 60]),
   midi.NoteOnEvent(tick=0, channel=0, data=[72, 69]),
   midi.NoteOnEvent(tick=0, channel=0, data=[64, 60]),
   midi.NoteOnEvent(tick=1200, channel=0, data=[64, 0]),
   midi.NoteOnEvent(tick=0, channel=0, data=[72, 0]),
   midi.NoteOnEvent(tick=0, channel=0, data=[67, 0]),
   midi.NoteOnEvent(tick=480, channel=0, data=[67, 46]),
   midi.NoteOnEvent(tick=240, channel=0, data=[67, 0]),
   midi.NoteOnEvent(tick=240, channel=0, data=[67, 43]),
   midi.NoteOnEvent(tick=240, channel=0, data=[67, 0]),
   midi.NoteOnEvent(tick=240, channel=0, data=[67, 42]),
   midi.NoteOnEvent(tick=240, channel=0, data=[67, 0]),
   midi.NoteOnEvent(tick=240, channel=0, data=[79, 46]),
   midi.NoteOnEvent(tick=0, channel=0, data=[75, 39]),
   midi.NoteOnEvent(tick=60, channel=0, data=[75, 0]),
   midi.NoteOnEvent(tick=0, channel=0, data=[79, 0]),
   midi.NoteOnEvent(tick=180, channel=0, data=[79, 48]),
   midi.NoteOnEvent(tick=0, channel=0, data=[75, 40]),
   midi.NoteOnEvent(tick=240, channel=0, data=[75, 0]),
   midi.NoteOnEvent(tick=0, channel=0, data=[79, 0]),
   midi.NoteOnEvent(tick=0, channel=0, data=[77, 41]),
   midi.NoteOnEvent(tick=0, channel=0, data=[74, 34]),
   midi.NoteOnEvent(tick=60, channel=0, data=[74, 0]),
   midi.NoteOnEvent(tick=0, channel=0, data=[77, 0]),
   midi.NoteOnEvent(tick=180, channel=0, data=[74, 39]),
   midi.NoteOnEvent(tick=0, channel=0, data=[77, 46]),
   midi.NoteOnEvent(tick=240, channel=0, data=[77, 0]),
   midi.NoteOnEvent(tick=0, channel=0, data=[74, 0]),
   midi.NoteOnEvent(tick=0, channel=0, data=[75, 40]),
   midi.NoteOnEvent(tick=0, channel=0, data=[72, 33]),
   midi.NoteOnEvent(tick=60, channel=0, data=[72, 0]),
   midi.NoteOnEvent(tick=0, channel=0, data=[75, 0]),
   midi.NoteOnEvent(tick=420, channel=0, data=[67, 46]),
   midi.NoteOnEvent(tick=240, channel=0, data=[67, 0]),
   midi.NoteOnEvent(tick=240, channel=0, data=[67, 43]),
   midi.NoteOnEvent(tick=240, channel=0, data=[67, 0]),
   midi.NoteOnEvent(tick=240, channel=0, data=[67, 42]),
   midi.NoteOnEvent(tick=240, channel=0, data=[67, 0]),
   midi.NoteOnEvent(tick=240, channel=0, data=[77, 46]),
   midi.NoteOnEvent(tick=0, channel=0, data=[74, 39]),
   midi.NoteOnEvent(tick=60, channel=0, data=[74, 0]),
   midi.NoteOnEvent(tick=0, channel=0, data=[77, 0]),
   midi.NoteOnEvent(tick=180, channel=0, data=[77, 48]),
   midi.NoteOnEvent(tick=0, channel=0, data=[74, 40]),
   midi.NoteOnEvent(tick=240, channel=0, data=[74, 0]),
   midi.NoteOnEvent(tick=0, channel=0, data=[77, 0]),
   midi.NoteOnEvent(tick=0, channel=0, data=[75, 41]),
   midi.NoteOnEvent(tick=0, channel=0, data=[72, 34]),
   midi.NoteOnEvent(tick=60, channel=0, data=[72, 0]),
   midi.NoteOnEvent(tick=0, channel=0, data=[75, 0]),
   midi.NoteOnEvent(tick=180, channel=0, data=[72, 39]),
   midi.NoteOnEvent(tick=0, channel=0, data=[75, 46]),
   midi.NoteOnEvent(tick=240, channel=0, data=[75, 0]),
   midi.NoteOnEvent(tick=0, channel=0, data=[72, 0]),
   midi.NoteOnEvent(tick=0, channel=0, data=[74, 40]),
   midi.NoteOnEvent(tick=0, channel=0, data=[71, 33]),
   midi.NoteOnEvent(tick=60, channel=0, data=[71, 0]),
   midi.NoteOnEvent(tick=0, channel=0, data=[74, 0]),
   midi.NoteOnEvent(tick=300, channel=0, data=[72, 39]),
   midi.NoteOnEvent(tick=120, channel=0, data=[72, 0]),
   midi.NoteOnEvent(tick=0, channel=0, data=[75, 47]),
   midi.NoteOnEvent(tick=120, channel=0, data=[75, 0]),
   midi.NoteOnEvent(tick=0, channel=0, data=[72, 41]),
   midi.NoteOnEvent(tick=120, channel=0, data=[72, 0]),
   midi.NoteOnEvent(tick=120, channel=0, data=[72, 42]),
   midi.NoteOnEvent(tick=120, channel=0, data=[72, 0]),
   midi.NoteOnEvent(tick=0, channel=0, data=[75, 50]),
   midi.NoteOnEvent(tick=120, channel=0, data=[75, 0]),
   midi.NoteOnEvent(tick=0, channel=0, data=[72, 42]),
   midi.NoteOnEvent(tick=120, channel=0, data=[72, 0]),
   midi.NoteOnEvent(tick=120, channel=0, data=[72, 46]),
   midi.NoteOnEvent(tick=120, channel=0, data=[72, 0]),
   midi.NoteOnEvent(tick=0, channel=0, data=[75, 55]),
   midi.NoteOnEvent(tick=120, channel=0, data=[75, 0]),
   midi.NoteOnEvent(tick=0, channel=0, data=[72, 47]),
   midi.NoteOnEvent(tick=120, channel=0, data=[72, 0]),
   midi.NoteOnEvent(tick=240, channel=0, data=[81, 46]),
   midi.NoteOnEvent(tick=0, channel=0, data=[84, 55]),
   midi.NoteOnEvent(tick=60, channel=0, data=[84, 0]),
   midi.NoteOnEvent(tick=0, channel=0, data=[81, 0]),
   midi.NoteOnEvent(tick=180, channel=0, data=[81, 51]),
   midi.NoteOnEvent(tick=0, channel=0, data=[84, 62]),
   midi.NoteOnEvent(tick=240, channel=0, data=[84, 0]),
   midi.NoteOnEvent(tick=0, channel=0, data=[81, 0]),
   midi.NoteOnEvent(tick=0, channel=0, data=[79, 43]),
   midi.NoteOnEvent(tick=0, channel=0, data=[82, 51]),
   midi.NoteOnEvent(tick=60, channel=0, data=[82, 0]),
   midi.NoteOnEvent(tick=0, channel=0, data=[79, 0]),
   midi.NoteOnEvent(tick=180, channel=0, data=[82, 57]),
   midi.NoteOnEvent(tick=0, channel=0, data=[79, 48]),
   midi.NoteOnEvent(tick=240, channel=0, data=[79, 0]),
   midi.NoteOnEvent(tick=0, channel=0, data=[82, 0]),
   midi.NoteOnEvent(tick=0, channel=0, data=[78, 41]),
   midi.NoteOnEvent(tick=0, channel=0, data=[81, 49]),
   midi.NoteOnEvent(tick=240, channel=0, data=[81, 0]),
   midi.NoteOnEvent(tick=0, channel=0, data=[78, 0]),
   midi.NoteOnEvent(tick=0, channel=0, data=[82, 58]),
   midi.NoteOnEvent(tick=0, channel=0, data=[79, 58]),
   midi.NoteOnEvent(tick=480, channel=0, data=[79, 0]),
   midi.NoteOnEvent(tick=0, channel=0, data=[82, 0]),
   midi.NoteOnEvent(tick=0, channel=0, data=[79, 48]),
   midi.NoteOnEvent(tick=0, channel=0, data=[70, 48]),
   midi.NoteOnEvent(tick=480, channel=0, data=[70, 0]),
   midi.NoteOnEvent(tick=0, channel=0, data=[79, 0]),
   midi.NoteOnEvent(tick=0, channel=0, data=[78, 47]),
   midi.NoteOnEvent(tick=0, channel=0, data=[69, 47]),
   midi.NoteOnEvent(tick=480, channel=0, data=[69, 0]),
   midi.NoteOnEvent(tick=0, channel=0, data=[78, 0]),
   midi.NoteOnEvent(tick=0, channel=0, data=[79, 55]),
   midi.NoteOnEvent(tick=0, channel=0, data=[70, 55]),
   midi.NoteOnEvent(tick=480, channel=0, data=[70, 0]),
   midi.NoteOnEvent(tick=0, channel=0, data=[79, 0]),
   midi.NoteOnEvent(tick=1200, channel=0, data=[67, 46]),
   midi.NoteOnEvent(tick=240, channel=0, data=[67, 0]),
   midi.NoteOnEvent(tick=240, channel=0, data=[67, 43]),
   midi.NoteOnEvent(tick=240, channel=0, data=[67, 0]),
   midi.NoteOnEvent(tick=240, channel=0, data=[67, 42]),
   midi.NoteOnEvent(tick=240, channel=0, data=[67, 0]),
   midi.NoteOnEvent(tick=240, channel=0, data=[79, 46]),
   midi.NoteOnEvent(tick=0, channel=0, data=[75, 39]),
   midi.NoteOnEvent(tick=60, channel=0, data=[75, 0]),
   midi.NoteOnEvent(tick=0, channel=0, data=[79, 0]),
   midi.NoteOnEvent(tick=180, channel=0, data=[79, 48]),
   midi.NoteOnEvent(tick=0, channel=0, data=[75, 40]),
   midi.NoteOnEvent(tick=240, channel=0, data=[75, 0]),
   midi.NoteOnEvent(tick=0, channel=0, data=[79, 0]),
   midi.NoteOnEvent(tick=0, channel=0, data=[77, 41]),
   midi.NoteOnEvent(tick=0, channel=0, data=[74, 34]),
   midi.NoteOnEvent(tick=60, channel=0, data=[74, 0]),
   midi.NoteOnEvent(tick=0, channel=0, data=[77, 0]),
   midi.NoteOnEvent(tick=180, channel=0, data=[74, 39]),
   midi.NoteOnEvent(tick=0, channel=0, data=[77, 46]),
   midi.NoteOnEvent(tick=240, channel=0, data=[77, 0]),
   midi.NoteOnEvent(tick=0, channel=0, data=[74, 0]),
   midi.NoteOnEvent(tick=0, channel=0, data=[75, 40]),
   midi.NoteOnEvent(tick=0, channel=0, data=[72, 33]),
   midi.NoteOnEvent(tick=60, channel=0, data=[72, 0]),
   midi.NoteOnEvent(tick=0, channel=0, data=[75, 0]),
   midi.NoteOnEvent(tick=420, channel=0, data=[67, 46]),
   midi.NoteOnEvent(tick=240, channel=0, data=[67, 0]),
   midi.NoteOnEvent(tick=240, channel=0, data=[67, 43]),
   midi.NoteOnEvent(tick=240, channel=0, data=[67, 0]),
   midi.NoteOnEvent(tick=240, channel=0, data=[67, 42]),
   midi.NoteOnEvent(tick=240, channel=0, data=[67, 0]),
   midi.NoteOnEvent(tick=240, channel=0, data=[77, 46]),
   midi.NoteOnEvent(tick=0, channel=0, data=[74, 39]),
   midi.NoteOnEvent(tick=60, channel=0, data=[74, 0]),
   midi.NoteOnEvent(tick=0, channel=0, data=[77, 0]),
   midi.NoteOnEvent(tick=180, channel=0, data=[77, 48]),
   midi.NoteOnEvent(tick=0, channel=0, data=[74, 40]),
   midi.NoteOnEvent(tick=240, channel=0, data=[74, 0]),
   midi.NoteOnEvent(tick=0, channel=0, data=[77, 0]),
   midi.NoteOnEvent(tick=0, channel=0, data=[75, 41]),
   midi.NoteOnEvent(tick=0, channel=0, data=[72, 34]),
   midi.NoteOnEvent(tick=60, channel=0, data=[72, 0]),
   midi.NoteOnEvent(tick=0, channel=0, data=[75, 0]),
   midi.NoteOnEvent(tick=180, channel=0, data=[72, 39]),
   midi.NoteOnEvent(tick=0, channel=0, data=[75, 46]),
   midi.NoteOnEvent(tick=240, channel=0, data=[75, 0]),
   midi.NoteOnEvent(tick=0, channel=0, data=[72, 0]),
   midi.NoteOnEvent(tick=0, channel=0, data=[74, 40]),
   midi.NoteOnEvent(tick=0, channel=0, data=[71, 33]),
   midi.NoteOnEvent(tick=60, channel=0, data=[71, 0]),
   midi.NoteOnEvent(tick=0, channel=0, data=[74, 0]),
   midi.NoteOnEvent(tick=300, channel=0, data=[72, 39]),
   midi.NoteOnEvent(tick=120, channel=0, data=[72, 0]),
   midi.NoteOnEvent(tick=0, channel=0, data=[75, 47]),
   midi.NoteOnEvent(tick=120, channel=0, data=[75, 0]),
   midi.NoteOnEvent(tick=0, channel=0, data=[72, 41]),
   midi.NoteOnEvent(tick=120, channel=0, data=[72, 0]),
   midi.NoteOnEvent(tick=120, channel=0, data=[72, 42]),
   midi.NoteOnEvent(tick=120, channel=0, data=[72, 0]),
   midi.NoteOnEvent(tick=0, channel=0, data=[75, 50]),
   midi.NoteOnEvent(tick=120, channel=0, data=[75, 0]),
   midi.NoteOnEvent(tick=0, channel=0, data=[72, 42]),
   midi.NoteOnEvent(tick=120, channel=0, data=[72, 0]),
   midi.NoteOnEvent(tick=120, channel=0, data=[72, 46]),
   midi.NoteOnEvent(tick=120, channel=0, data=[72, 0]),
   midi.NoteOnEvent(tick=0, channel=0, data=[75, 55]),
   midi.NoteOnEvent(tick=120, channel=0, data=[75, 0]),
   midi.NoteOnEvent(tick=0, channel=0, data=[72, 47]),
   midi.NoteOnEvent(tick=120, channel=0, data=[72, 0]),
   midi.NoteOnEvent(tick=240, channel=0, data=[81, 46]),
   midi.NoteOnEvent(tick=0, channel=0, data=[84, 55]),
   midi.NoteOnEvent(tick=60, channel=0, data=[84, 0]),
   midi.NoteOnEvent(tick=0, channel=0, data=[81, 0]),
   midi.NoteOnEvent(tick=180, channel=0, data=[81, 51]),
   midi.NoteOnEvent(tick=0, channel=0, data=[84, 62]),
   midi.NoteOnEvent(tick=240, channel=0, data=[84, 0]),
   midi.NoteOnEvent(tick=0, channel=0, data=[81, 0]),
   midi.NoteOnEvent(tick=0, channel=0, data=[79, 43]),
   midi.NoteOnEvent(tick=0, channel=0, data=[82, 51]),
   midi.NoteOnEvent(tick=60, channel=0, data=[82, 0]),
   midi.NoteOnEvent(tick=0, channel=0, data=[79, 0]),
   midi.NoteOnEvent(tick=180, channel=0, data=[82, 57]),
   midi.NoteOnEvent(tick=0, channel=0, data=[79, 48]),
   midi.NoteOnEvent(tick=240, channel=0, data=[79, 0]),
   midi.NoteOnEvent(tick=0, channel=0, data=[82, 0]),
   midi.NoteOnEvent(tick=0, channel=0, data=[78, 41]),
   midi.NoteOnEvent(tick=0, channel=0, data=[81, 49]),
   midi.NoteOnEvent(tick=240, channel=0, data=[81, 0]),
   midi.NoteOnEvent(tick=0, channel=0, data=[78, 0]),
   midi.NoteOnEvent(tick=0, channel=0, data=[82, 58]),
   midi.NoteOnEvent(tick=0, channel=0, data=[79, 58]),
   midi.NoteOnEvent(tick=480, channel=0, data=[79, 0]),
   midi.NoteOnEvent(tick=0, channel=0, data=[82, 0]),
   midi.NoteOnEvent(tick=0, channel=0, data=[79, 48]),
   midi.NoteOnEvent(tick=0, channel=0, data=[70, 48]),
   midi.NoteOnEvent(tick=480, channel=0, data=[70, 0]),
   midi.NoteOnEvent(tick=0, channel=0, data=[79, 0]),
   midi.NoteOnEvent(tick=0, channel=0, data=[78, 47]),
   midi.NoteOnEvent(tick=0, channel=0, data=[69, 47]),
   midi.NoteOnEvent(tick=480, channel=0, data=[69, 0]),
   midi.NoteOnEvent(tick=0, channel=0, data=[78, 0]),
   midi.NoteOnEvent(tick=0, channel=0, data=[79, 55]),
   midi.NoteOnEvent(tick=0, channel=0, data=[70, 55]),
   midi.NoteOnEvent(tick=480, channel=0, data=[70, 0]),
   midi.NoteOnEvent(tick=0, channel=0, data=[79, 0]),
   midi.NoteOnEvent(tick=1200, channel=0, data=[72, 46]),
   midi.NoteOnEvent(tick=240, channel=0, data=[72, 0]),
   midi.NoteOnEvent(tick=240, channel=0, data=[72, 43]),
   midi.NoteOnEvent(tick=240, channel=0, data=[72, 0]),
   midi.NoteOnEvent(tick=240, channel=0, data=[72, 42]),
   midi.NoteOnEvent(tick=240, channel=0, data=[72, 0]),
   midi.NoteOnEvent(tick=0, channel=0, data=[72, 57]),
   midi.NoteOnEvent(tick=120, channel=0, data=[72, 0]),
   midi.NoteOnEvent(tick=0, channel=0, data=[74, 50]),
   midi.NoteOnEvent(tick=120, channel=0, data=[74, 0]),
   midi.NoteOnEvent(tick=0, channel=0, data=[76, 52]),
   midi.NoteOnEvent(tick=120, channel=0, data=[76, 0]),
   midi.NoteOnEvent(tick=0, channel=0, data=[77, 55]),
   midi.NoteOnEvent(tick=120, channel=0, data=[77, 0]),
   midi.NoteOnEvent(tick=0, channel=0, data=[79, 55]),
   midi.NoteOnEvent(tick=120, channel=0, data=[79, 0]),
   midi.NoteOnEvent(tick=0, channel=0, data=[80, 52]),
   midi.NoteOnEvent(tick=120, channel=0, data=[80, 0]),
   midi.NoteOnEvent(tick=0, channel=0, data=[82, 55]),
   midi.NoteOnEvent(tick=120, channel=0, data=[82, 0]),
   midi.NoteOnEvent(tick=0, channel=0, data=[84, 55]),
   midi.NoteOnEvent(tick=120, channel=0, data=[84, 0]),
   midi.NoteOnEvent(tick=0, channel=0, data=[80, 63]),
   midi.NoteOnEvent(tick=480, channel=0, data=[80, 0]),
   midi.NoteOnEvent(tick=240, channel=0, data=[74, 50]),
   midi.NoteOnEvent(tick=240, channel=0, data=[74, 0]),
   midi.NoteOnEvent(tick=240, channel=0, data=[74, 47]),
   midi.NoteOnEvent(tick=240, channel=0, data=[74, 0]),
   midi.NoteOnEvent(tick=240, channel=0, data=[74, 46]),
   midi.NoteOnEvent(tick=240, channel=0, data=[74, 0]),
   midi.NoteOnEvent(tick=0, channel=0, data=[74, 59]),
   midi.NoteOnEvent(tick=120, channel=0, data=[74, 0]),
   midi.NoteOnEvent(tick=0, channel=0, data=[76, 52]),
   midi.NoteOnEvent(tick=120, channel=0, data=[76, 0]),
   midi.NoteOnEvent(tick=0, channel=0, data=[78, 55]),
   midi.NoteOnEvent(tick=120, channel=0, data=[78, 0]),
   midi.NoteOnEvent(tick=0, channel=0, data=[79, 57]),
   midi.NoteOnEvent(tick=120, channel=0, data=[79, 0]),
   midi.NoteOnEvent(tick=0, channel=0, data=[81, 57]),
   midi.NoteOnEvent(tick=120, channel=0, data=[81, 0]),
   midi.NoteOnEvent(tick=0, channel=0, data=[83, 55]),
   midi.NoteOnEvent(tick=120, channel=0, data=[83, 0]),
   midi.NoteOnEvent(tick=0, channel=0, data=[84, 57]),
   midi.NoteOnEvent(tick=120, channel=0, data=[84, 0]),
   midi.NoteOnEvent(tick=0, channel=0, data=[86, 57]),
   midi.NoteOnEvent(tick=120, channel=0, data=[86, 0]),
   midi.NoteOnEvent(tick=0, channel=0, data=[83, 65]),
   midi.NoteOnEvent(tick=480, channel=0, data=[83, 0]),
   midi.NoteOnEvent(tick=240, channel=0, data=[67, 46]),
   midi.NoteOnEvent(tick=240, channel=0, data=[67, 0]),
   midi.NoteOnEvent(tick=240, channel=0, data=[67, 43]),
   midi.NoteOnEvent(tick=240, channel=0, data=[67, 0]),
   midi.NoteOnEvent(tick=240, channel=0, data=[67, 42]),
   midi.NoteOnEvent(tick=240, channel=0, data=[67, 0]),
   midi.NoteOnEvent(tick=240, channel=0, data=[79, 46]),
   midi.NoteOnEvent(tick=0, channel=0, data=[75, 39]),
   midi.NoteOnEvent(tick=60, channel=0, data=[75, 0]),
   midi.NoteOnEvent(tick=0, channel=0, data=[79, 0]),
   midi.NoteOnEvent(tick=180, channel=0, data=[79, 48]),
   midi.NoteOnEvent(tick=0, channel=0, data=[75, 40]),
   midi.NoteOnEvent(tick=240, channel=0, data=[75, 0]),
   midi.NoteOnEvent(tick=0, channel=0, data=[79, 0]),
   midi.NoteOnEvent(tick=0, channel=0, data=[77, 41]),
   midi.NoteOnEvent(tick=0, channel=0, data=[74, 34]),
   midi.NoteOnEvent(tick=60, channel=0, data=[74, 0]),
   midi.NoteOnEvent(tick=0, channel=0, data=[77, 0]),
   midi.NoteOnEvent(tick=180, channel=0, data=[74, 39]),
   midi.NoteOnEvent(tick=0, channel=0, data=[77, 46]),
   midi.NoteOnEvent(tick=240, channel=0, data=[77, 0]),
   midi.NoteOnEvent(tick=0, channel=0, data=[74, 0]),
   midi.NoteOnEvent(tick=0, channel=0, data=[75, 40]),
   midi.NoteOnEvent(tick=0, channel=0, data=[72, 33]),
   midi.NoteOnEvent(tick=60, channel=0, data=[72, 0]),
   midi.NoteOnEvent(tick=0, channel=0, data=[75, 0]),
   midi.NoteOnEvent(tick=420, channel=0, data=[67, 46]),
   midi.NoteOnEvent(tick=240, channel=0, data=[67, 0]),
   midi.NoteOnEvent(tick=240, channel=0, data=[67, 43]),
   midi.NoteOnEvent(tick=240, channel=0, data=[67, 0]),
   midi.NoteOnEvent(tick=240, channel=0, data=[67, 42]),
   midi.NoteOnEvent(tick=240, channel=0, data=[67, 0]),
   midi.NoteOnEvent(tick=240, channel=0, data=[77, 46]),
   midi.NoteOnEvent(tick=0, channel=0, data=[74, 39]),
   midi.NoteOnEvent(tick=60, channel=0, data=[74, 0]),
   midi.NoteOnEvent(tick=0, channel=0, data=[77, 0]),
   midi.NoteOnEvent(tick=180, channel=0, data=[77, 48]),
   midi.NoteOnEvent(tick=0, channel=0, data=[74, 40]),
   midi.NoteOnEvent(tick=240, channel=0, data=[74, 0]),
   midi.NoteOnEvent(tick=0, channel=0, data=[77, 0]),
   midi.NoteOnEvent(tick=0, channel=0, data=[75, 41]),
   midi.NoteOnEvent(tick=0, channel=0, data=[72, 34]),
   midi.NoteOnEvent(tick=60, channel=0, data=[72, 0]),
   midi.NoteOnEvent(tick=0, channel=0, data=[75, 0]),
   midi.NoteOnEvent(tick=180, channel=0, data=[72, 39]),
   midi.NoteOnEvent(tick=0, channel=0, data=[75, 46]),
   midi.NoteOnEvent(tick=240, channel=0, data=[75, 0]),
   midi.NoteOnEvent(tick=0, channel=0, data=[72, 0]),
   midi.NoteOnEvent(tick=0, channel=0, data=[74, 40]),
   midi.NoteOnEvent(tick=0, channel=0, data=[71, 33]),
   midi.NoteOnEvent(tick=60, channel=0, data=[71, 0]),
   midi.NoteOnEvent(tick=0, channel=0, data=[74, 0]),
   midi.NoteOnEvent(tick=300, channel=0, data=[72, 39]),
   midi.NoteOnEvent(tick=120, channel=0, data=[72, 0]),
   midi.NoteOnEvent(tick=0, channel=0, data=[75, 47]),
   midi.NoteOnEvent(tick=120, channel=0, data=[75, 0]),
   midi.NoteOnEvent(tick=0, channel=0, data=[72, 41]),
   midi.NoteOnEvent(tick=120, channel=0, data=[72, 0]),
   midi.NoteOnEvent(tick=120, channel=0, data=[72, 42]),
   midi.NoteOnEvent(tick=120, channel=0, data=[72, 0]),
   midi.NoteOnEvent(tick=0, channel=0, data=[75, 50]),
   midi.NoteOnEvent(tick=120, channel=0, data=[75, 0]),
   midi.NoteOnEvent(tick=0, channel=0, data=[72, 42]),
   midi.NoteOnEvent(tick=120, channel=0, data=[72, 0]),
   midi.NoteOnEvent(tick=120, channel=0, data=[72, 46]),
   midi.NoteOnEvent(tick=120, channel=0, data=[72, 0]),
   midi.NoteOnEvent(tick=0, channel=0, data=[75, 55]),
   midi.NoteOnEvent(tick=120, channel=0, data=[75, 0]),
   midi.NoteOnEvent(tick=0, channel=0, data=[72, 47]),
   midi.NoteOnEvent(tick=120, channel=0, data=[72, 0]),
   midi.NoteOnEvent(tick=240, channel=0, data=[77, 46]),
   midi.NoteOnEvent(tick=0, channel=0, data=[80, 55]),
   midi.NoteOnEvent(tick=60, channel=0, data=[80, 0]),
   midi.NoteOnEvent(tick=0, channel=0, data=[77, 0]),
   midi.NoteOnEvent(tick=180, channel=0, data=[77, 51]),
   midi.NoteOnEvent(tick=0, channel=0, data=[80, 62]),
   midi.NoteOnEvent(tick=240, channel=0, data=[80, 0]),
   midi.NoteOnEvent(tick=0, channel=0, data=[77, 0]),
   midi.NoteOnEvent(tick=0, channel=0, data=[75, 43]),
   midi.NoteOnEvent(tick=0, channel=0, data=[79, 51]),
   midi.NoteOnEvent(tick=60, channel=0, data=[79, 0]),
   midi.NoteOnEvent(tick=0, channel=0, data=[75, 0]),
   midi.NoteOnEvent(tick=180, channel=0, data=[79, 57]),
   midi.NoteOnEvent(tick=0, channel=0, data=[75, 48]),
   midi.NoteOnEvent(tick=240, channel=0, data=[75, 0]),
   midi.NoteOnEvent(tick=0, channel=0, data=[79, 0]),
   midi.NoteOnEvent(tick=0, channel=0, data=[74, 41]),
   midi.NoteOnEvent(tick=0, channel=0, data=[77, 49]),
   midi.NoteOnEvent(tick=240, channel=0, data=[77, 0]),
   midi.NoteOnEvent(tick=0, channel=0, data=[74, 0]),
   midi.NoteOnEvent(tick=0, channel=0, data=[75, 58]),
   midi.NoteOnEvent(tick=0, channel=0, data=[72, 58]),
   midi.NoteOnEvent(tick=480, channel=0, data=[72, 0]),
   midi.NoteOnEvent(tick=0, channel=0, data=[75, 0]),
   midi.NoteOnEvent(tick=0, channel=0, data=[72, 48]),
   midi.NoteOnEvent(tick=0, channel=0, data=[63, 48]),
   midi.NoteOnEvent(tick=480, channel=0, data=[63, 0]),
   midi.NoteOnEvent(tick=0, channel=0, data=[72, 0]),
   midi.NoteOnEvent(tick=0, channel=0, data=[71, 47]),
   midi.NoteOnEvent(tick=0, channel=0, data=[62, 47]),
   midi.NoteOnEvent(tick=480, channel=0, data=[62, 0]),
   midi.NoteOnEvent(tick=0, channel=0, data=[71, 0]),
   midi.NoteOnEvent(tick=0, channel=0, data=[72, 55]),
   midi.NoteOnEvent(tick=0, channel=0, data=[60, 55]),
   midi.NoteOnEvent(tick=480, channel=0, data=[60, 0]),
   midi.NoteOnEvent(tick=0, channel=0, data=[72, 0]),
   midi.NoteOnEvent(tick=1200, channel=0, data=[72, 46]),
   midi.NoteOnEvent(tick=240, channel=0, data=[72, 0]),
   midi.NoteOnEvent(tick=240, channel=0, data=[72, 43]),
   midi.NoteOnEvent(tick=240, channel=0, data=[72, 0]),
   midi.NoteOnEvent(tick=240, channel=0, data=[72, 42]),
   midi.NoteOnEvent(tick=240, channel=0, data=[72, 0]),
   midi.NoteOnEvent(tick=0, channel=0, data=[72, 57]),
   midi.NoteOnEvent(tick=120, channel=0, data=[72, 0]),
   midi.NoteOnEvent(tick=0, channel=0, data=[74, 50]),
   midi.NoteOnEvent(tick=120, channel=0, data=[74, 0]),
   midi.NoteOnEvent(tick=0, channel=0, data=[76, 52]),
   midi.NoteOnEvent(tick=120, channel=0, data=[76, 0]),
   midi.NoteOnEvent(tick=0, channel=0, data=[77, 55]),
   midi.NoteOnEvent(tick=120, channel=0, data=[77, 0]),
   midi.NoteOnEvent(tick=0, channel=0, data=[79, 55]),
   midi.NoteOnEvent(tick=120, channel=0, data=[79, 0]),
   midi.NoteOnEvent(tick=0, channel=0, data=[80, 52]),
   midi.NoteOnEvent(tick=120, channel=0, data=[80, 0]),
   midi.NoteOnEvent(tick=0, channel=0, data=[82, 55]),
   midi.NoteOnEvent(tick=120, channel=0, data=[82, 0]),
   midi.NoteOnEvent(tick=0, channel=0, data=[84, 55]),
   midi.NoteOnEvent(tick=120, channel=0, data=[84, 0]),
   midi.NoteOnEvent(tick=0, channel=0, data=[80, 63]),
   midi.NoteOnEvent(tick=480, channel=0, data=[80, 0]),
   midi.NoteOnEvent(tick=240, channel=0, data=[74, 50]),
   midi.NoteOnEvent(tick=240, channel=0, data=[74, 0]),
   midi.NoteOnEvent(tick=240, channel=0, data=[74, 47]),
   midi.NoteOnEvent(tick=240, channel=0, data=[74, 0]),
   midi.NoteOnEvent(tick=240, channel=0, data=[74, 46]),
   midi.NoteOnEvent(tick=240, channel=0, data=[74, 0]),
   midi.NoteOnEvent(tick=0, channel=0, data=[74, 59]),
   midi.NoteOnEvent(tick=120, channel=0, data=[74, 0]),
   midi.NoteOnEvent(tick=0, channel=0, data=[76, 52]),
   midi.NoteOnEvent(tick=120, channel=0, data=[76, 0]),
   midi.NoteOnEvent(tick=0, channel=0, data=[78, 55]),
   midi.NoteOnEvent(tick=120, channel=0, data=[78, 0]),
   midi.NoteOnEvent(tick=0, channel=0, data=[79, 57]),
   midi.NoteOnEvent(tick=120, channel=0, data=[79, 0]),
   midi.NoteOnEvent(tick=0, channel=0, data=[81, 57]),
   midi.NoteOnEvent(tick=120, channel=0, data=[81, 0]),
   midi.NoteOnEvent(tick=0, channel=0, data=[83, 55]),
   midi.NoteOnEvent(tick=120, channel=0, data=[83, 0]),
   midi.NoteOnEvent(tick=0, channel=0, data=[84, 57]),
   midi.NoteOnEvent(tick=120, channel=0, data=[84, 0]),
   midi.NoteOnEvent(tick=0, channel=0, data=[86, 57]),
   midi.NoteOnEvent(tick=120, channel=0, data=[86, 0]),
   midi.NoteOnEvent(tick=0, channel=0, data=[83, 65]),
   midi.NoteOnEvent(tick=480, channel=0, data=[83, 0]),
   midi.NoteOnEvent(tick=240, channel=0, data=[67, 46]),
   midi.NoteOnEvent(tick=240, channel=0, data=[67, 0]),
   midi.NoteOnEvent(tick=240, channel=0, data=[67, 43]),
   midi.NoteOnEvent(tick=240, channel=0, data=[67, 0]),
   midi.NoteOnEvent(tick=240, channel=0, data=[67, 42]),
   midi.NoteOnEvent(tick=240, channel=0, data=[67, 0]),
   midi.NoteOnEvent(tick=240, channel=0, data=[79, 46]),
   midi.NoteOnEvent(tick=0, channel=0, data=[75, 39]),
   midi.NoteOnEvent(tick=60, channel=0, data=[75, 0]),
   midi.NoteOnEvent(tick=0, channel=0, data=[79, 0]),
   midi.NoteOnEvent(tick=180, channel=0, data=[79, 48]),
   midi.NoteOnEvent(tick=0, channel=0, data=[75, 40]),
   midi.NoteOnEvent(tick=240, channel=0, data=[75, 0]),
   midi.NoteOnEvent(tick=0, channel=0, data=[79, 0]),
   midi.NoteOnEvent(tick=0, channel=0, data=[77, 41]),
   midi.NoteOnEvent(tick=0, channel=0, data=[74, 34]),
   midi.NoteOnEvent(tick=60, channel=0, data=[74, 0]),
   midi.NoteOnEvent(tick=0, channel=0, data=[77, 0]),
   midi.NoteOnEvent(tick=180, channel=0, data=[74, 39]),
   midi.NoteOnEvent(tick=0, channel=0, data=[77, 46]),
   midi.NoteOnEvent(tick=240, channel=0, data=[77, 0]),
   midi.NoteOnEvent(tick=0, channel=0, data=[74, 0]),
   midi.NoteOnEvent(tick=0, channel=0, data=[75, 40]),
   midi.NoteOnEvent(tick=0, channel=0, data=[72, 33]),
   midi.NoteOnEvent(tick=60, channel=0, data=[72, 0]),
   midi.NoteOnEvent(tick=0, channel=0, data=[75, 0]),
   midi.NoteOnEvent(tick=420, channel=0, data=[67, 46]),
   midi.NoteOnEvent(tick=240, channel=0, data=[67, 0]),
   midi.NoteOnEvent(tick=240, channel=0, data=[67, 43]),
   midi.NoteOnEvent(tick=240, channel=0, data=[67, 0]),
   midi.NoteOnEvent(tick=240, channel=0, data=[67, 42]),
   midi.NoteOnEvent(tick=240, channel=0, data=[67, 0]),
   midi.NoteOnEvent(tick=240, channel=0, data=[77, 46]),
   midi.NoteOnEvent(tick=0, channel=0, data=[74, 39]),
   midi.NoteOnEvent(tick=60, channel=0, data=[74, 0]),
   midi.NoteOnEvent(tick=0, channel=0, data=[77, 0]),
   midi.NoteOnEvent(tick=180, channel=0, data=[77, 48]),
   midi.NoteOnEvent(tick=0, channel=0, data=[74, 40]),
   midi.NoteOnEvent(tick=240, channel=0, data=[74, 0]),
   midi.NoteOnEvent(tick=0, channel=0, data=[77, 0]),
   midi.NoteOnEvent(tick=0, channel=0, data=[75, 41]),
   midi.NoteOnEvent(tick=0, channel=0, data=[72, 34]),
   midi.NoteOnEvent(tick=60, channel=0, data=[72, 0]),
   midi.NoteOnEvent(tick=0, channel=0, data=[75, 0]),
   midi.NoteOnEvent(tick=180, channel=0, data=[72, 39]),
   midi.NoteOnEvent(tick=0, channel=0, data=[75, 46]),
   midi.NoteOnEvent(tick=240, channel=0, data=[75, 0]),
   midi.NoteOnEvent(tick=0, channel=0, data=[72, 0]),
   midi.NoteOnEvent(tick=0, channel=0, data=[74, 40]),
   midi.NoteOnEvent(tick=0, channel=0, data=[71, 33]),
   midi.NoteOnEvent(tick=60, channel=0, data=[71, 0]),
   midi.NoteOnEvent(tick=0, channel=0, data=[74, 0]),
   midi.NoteOnEvent(tick=300, channel=0, data=[72, 39]),
   midi.NoteOnEvent(tick=120, channel=0, data=[72, 0]),
   midi.NoteOnEvent(tick=0, channel=0, data=[75, 47]),
   midi.NoteOnEvent(tick=120, channel=0, data=[75, 0]),
   midi.NoteOnEvent(tick=0, channel=0, data=[72, 41]),
   midi.NoteOnEvent(tick=120, channel=0, data=[72, 0]),
   midi.NoteOnEvent(tick=120, channel=0, data=[72, 42]),
   midi.NoteOnEvent(tick=120, channel=0, data=[72, 0]),
   midi.NoteOnEvent(tick=0, channel=0, data=[75, 50]),
   midi.NoteOnEvent(tick=120, channel=0, data=[75, 0]),
   midi.NoteOnEvent(tick=0, channel=0, data=[72, 42]),
   midi.NoteOnEvent(tick=120, channel=0, data=[72, 0]),
   midi.NoteOnEvent(tick=120, channel=0, data=[72, 46]),
   midi.NoteOnEvent(tick=120, channel=0, data=[72, 0]),
   midi.NoteOnEvent(tick=0, channel=0, data=[75, 55]),
   midi.NoteOnEvent(tick=120, channel=0, data=[75, 0]),
   midi.NoteOnEvent(tick=0, channel=0, data=[72, 47]),
   midi.NoteOnEvent(tick=120, channel=0, data=[72, 0]),
   midi.NoteOnEvent(tick=240, channel=0, data=[77, 46]),
   midi.NoteOnEvent(tick=0, channel=0, data=[80, 55]),
   midi.NoteOnEvent(tick=60, channel=0, data=[80, 0]),
   midi.NoteOnEvent(tick=0, channel=0, data=[77, 0]),
   midi.NoteOnEvent(tick=180, channel=0, data=[77, 51]),
   midi.NoteOnEvent(tick=0, channel=0, data=[80, 62]),
   midi.NoteOnEvent(tick=240, channel=0, data=[80, 0]),
   midi.NoteOnEvent(tick=0, channel=0, data=[77, 0]),
   midi.NoteOnEvent(tick=0, channel=0, data=[75, 43]),
   midi.NoteOnEvent(tick=0, channel=0, data=[79, 51]),
   midi.NoteOnEvent(tick=60, channel=0, data=[79, 0]),
   midi.NoteOnEvent(tick=0, channel=0, data=[75, 0]),
   midi.NoteOnEvent(tick=180, channel=0, data=[79, 57]),
   midi.NoteOnEvent(tick=0, channel=0, data=[75, 48]),
   midi.NoteOnEvent(tick=240, channel=0, data=[75, 0]),
   midi.NoteOnEvent(tick=0, channel=0, data=[79, 0]),
   midi.NoteOnEvent(tick=0, channel=0, data=[74, 41]),
   midi.NoteOnEvent(tick=0, channel=0, data=[77, 49]),
   midi.NoteOnEvent(tick=240, channel=0, data=[77, 0]),
   midi.NoteOnEvent(tick=0, channel=0, data=[74, 0]),
   midi.NoteOnEvent(tick=0, channel=0, data=[75, 58]),
   midi.NoteOnEvent(tick=0, channel=0, data=[72, 58]),
   midi.NoteOnEvent(tick=480, channel=0, data=[72, 0]),
   midi.NoteOnEvent(tick=0, channel=0, data=[75, 0]),
   midi.NoteOnEvent(tick=0, channel=0, data=[72, 48]),
   midi.NoteOnEvent(tick=0, channel=0, data=[63, 48]),
   midi.NoteOnEvent(tick=480, channel=0, data=[63, 0]),
   midi.NoteOnEvent(tick=0, channel=0, data=[72, 0]),
   midi.NoteOnEvent(tick=0, channel=0, data=[71, 47]),
   midi.NoteOnEvent(tick=0, channel=0, data=[62, 47]),
   midi.NoteOnEvent(tick=480, channel=0, data=[62, 0]),
   midi.NoteOnEvent(tick=0, channel=0, data=[71, 0]),
   midi.NoteOnEvent(tick=0, channel=0, data=[72, 55]),
   midi.NoteOnEvent(tick=0, channel=0, data=[60, 55]),
   midi.NoteOnEvent(tick=480, channel=0, data=[60, 0]),
   midi.NoteOnEvent(tick=0, channel=0, data=[72, 0]),
   midi.NoteOnEvent(tick=960, channel=0, data=[72, 57]),
   midi.NoteOnEvent(tick=480, channel=0, data=[72, 0]),
   midi.NoteOnEvent(tick=0, channel=0, data=[84, 57]),
   midi.NoteOnEvent(tick=120, channel=0, data=[84, 0]),
   midi.NoteOnEvent(tick=360, channel=0, data=[76, 57]),
   midi.NoteOnEvent(tick=240, channel=0, data=[76, 0]),
   midi.NoteOnEvent(tick=120, channel=0, data=[79, 48]),
   midi.NoteOnEvent(tick=120, channel=0, data=[79, 0]),
   midi.NoteOnEvent(tick=0, channel=0, data=[77, 57]),
   midi.NoteOnEvent(tick=480, channel=0, data=[77, 0]),
   midi.NoteOnEvent(tick=0, channel=0, data=[74, 52]),
   midi.NoteOnEvent(tick=120, channel=0, data=[74, 0]),
   midi.NoteOnEvent(tick=360, channel=0, data=[74, 57]),
   midi.NoteOnEvent(tick=240, channel=0, data=[74, 0]),
   midi.NoteOnEvent(tick=120, channel=0, data=[77, 54]),
   midi.NoteOnEvent(tick=120, channel=0, data=[77, 0]),
   midi.NoteOnEvent(tick=0, channel=0, data=[76, 57]),
   midi.NoteOnEvent(tick=480, channel=0, data=[76, 0]),
   midi.NoteOnEvent(tick=0, channel=0, data=[72, 54]),
   midi.NoteOnEvent(tick=120, channel=0, data=[72, 0]),
   midi.NoteOnEvent(tick=360, channel=0, data=[69, 58]),
   midi.NoteOnEvent(tick=240, channel=0, data=[69, 0]),
   midi.NoteOnEvent(tick=120, channel=0, data=[74, 46]),
   midi.NoteOnEvent(tick=120, channel=0, data=[74, 0]),
   midi.NoteOnEvent(tick=0, channel=0, data=[72, 58]),
   midi.NoteOnEvent(tick=960, channel=0, data=[72, 0]),
   midi.NoteOnEvent(tick=0, channel=0, data=[71, 55]),
   midi.NoteOnEvent(tick=240, channel=0, data=[71, 0]),
   midi.NoteOnEvent(tick=240, channel=0, data=[74, 75]),
   midi.NoteOnEvent(tick=480, channel=0, data=[74, 0]),
   midi.NoteOnEvent(tick=0, channel=0, data=[79, 57]),
   midi.NoteOnEvent(tick=120, channel=0, data=[79, 0]),
   midi.NoteOnEvent(tick=0, channel=0, data=[78, 55]),
   midi.NoteOnEvent(tick=120, channel=0, data=[78, 0]),
   midi.NoteOnEvent(tick=0, channel=0, data=[79, 57]),
   midi.NoteOnEvent(tick=120, channel=0, data=[79, 0]),
   midi.NoteOnEvent(tick=0, channel=0, data=[81, 55]),
   midi.NoteOnEvent(tick=120, channel=0, data=[81, 0]),
   midi.NoteOnEvent(tick=0, channel=0, data=[83, 62]),
   midi.NoteOnEvent(tick=120, channel=0, data=[83, 0]),
   midi.NoteOnEvent(tick=0, channel=0, data=[81, 55]),
   midi.NoteOnEvent(tick=120, channel=0, data=[81, 0]),
   midi.NoteOnEvent(tick=0, channel=0, data=[83, 62]),
   midi.NoteOnEvent(tick=120, channel=0, data=[83, 0]),
   midi.NoteOnEvent(tick=0, channel=0, data=[84, 59]),
   midi.NoteOnEvent(tick=120, channel=0, data=[84, 0]),
   midi.NoteOnEvent(tick=0, channel=0, data=[86, 75]),
   midi.NoteOnEvent(tick=480, channel=0, data=[86, 0]),
   midi.NoteOnEvent(tick=0, channel=0, data=[79, 57]),
   midi.NoteOnEvent(tick=120, channel=0, data=[79, 0]),
   midi.NoteOnEvent(tick=0, channel=0, data=[78, 55]),
   midi.NoteOnEvent(tick=120, channel=0, data=[78, 0]),
   midi.NoteOnEvent(tick=0, channel=0, data=[79, 57]),
   midi.NoteOnEvent(tick=120, channel=0, data=[79, 0]),
   midi.NoteOnEvent(tick=0, channel=0, data=[81, 55]),
   midi.NoteOnEvent(tick=120, channel=0, data=[81, 0]),
   midi.NoteOnEvent(tick=0, channel=0, data=[83, 62]),
   midi.NoteOnEvent(tick=120, channel=0, data=[83, 0]),
   midi.NoteOnEvent(tick=0, channel=0, data=[81, 55]),
   midi.NoteOnEvent(tick=120, channel=0, data=[81, 0]),
   midi.NoteOnEvent(tick=0, channel=0, data=[83, 62]),
   midi.NoteOnEvent(tick=120, channel=0, data=[83, 0]),
   midi.NoteOnEvent(tick=0, channel=0, data=[84, 59]),
   midi.NoteOnEvent(tick=120, channel=0, data=[84, 0]),
   midi.NoteOnEvent(tick=0, channel=0, data=[86, 75]),
   midi.NoteOnEvent(tick=480, channel=0, data=[86, 0]),
   midi.NoteOnEvent(tick=0, channel=0, data=[71, 58]),
   midi.NoteOnEvent(tick=480, channel=0, data=[71, 0]),
   midi.NoteOnEvent(tick=0, channel=0, data=[69, 57]),
   midi.NoteOnEvent(tick=60, channel=0, data=[69, 0]),
   midi.NoteOnEvent(tick=0, channel=0, data=[71, 50]),
   midi.NoteOnEvent(tick=60, channel=0, data=[71, 0]),
   midi.NoteOnEvent(tick=0, channel=0, data=[69, 52]),
   midi.NoteOnEvent(tick=60, channel=0, data=[69, 0]),
   midi.NoteOnEvent(tick=0, channel=0, data=[71, 58]),
   midi.NoteOnEvent(tick=60, channel=0, data=[71, 0]),
   midi.NoteOnEvent(tick=0, channel=0, data=[69, 49]),
   midi.NoteOnEvent(tick=75, channel=0, data=[69, 0]),
   midi.NoteOnEvent(tick=0, channel=0, data=[71, 52]),
   midi.NoteOnEvent(tick=75, channel=0, data=[71, 0]),
   midi.NoteOnEvent(tick=0, channel=0, data=[69, 52]),
   midi.NoteOnEvent(tick=75, channel=0, data=[69, 0]),
   midi.NoteOnEvent(tick=15, channel=0, data=[67, 58]),
   midi.NoteOnEvent(tick=960, channel=0, data=[67, 0]),
   midi.NoteOnEvent(tick=480, channel=0, data=[79, 57]),
   midi.NoteOnEvent(tick=480, channel=0, data=[79, 0]),
   midi.NoteOnEvent(tick=0, channel=0, data=[84, 57]),
   midi.NoteOnEvent(tick=120, channel=0, data=[84, 0]),
   midi.NoteOnEvent(tick=360, channel=0, data=[76, 57]),
   midi.NoteOnEvent(tick=240, channel=0, data=[76, 0]),
   midi.NoteOnEvent(tick=120, channel=0, data=[79, 48]),
   midi.NoteOnEvent(tick=120, channel=0, data=[79, 0]),
   midi.NoteOnEvent(tick=0, channel=0, data=[77, 57]),
   midi.NoteOnEvent(tick=480, channel=0, data=[77, 0]),
   midi.NoteOnEvent(tick=0, channel=0, data=[86, 52]),
   midi.NoteOnEvent(tick=120, channel=0, data=[86, 0]),
   midi.NoteOnEvent(tick=360, channel=0, data=[74, 57]),
   midi.NoteOnEvent(tick=240, channel=0, data=[74, 0]),
   midi.NoteOnEvent(tick=120, channel=0, data=[77, 54]),
   midi.NoteOnEvent(tick=120, channel=0, data=[77, 0]),
   midi.NoteOnEvent(tick=0, channel=0, data=[76, 57]),
   midi.NoteOnEvent(tick=480, channel=0, data=[76, 0]),
   midi.NoteOnEvent(tick=0, channel=0, data=[79, 62]),
   midi.NoteOnEvent(tick=480, channel=0, data=[79, 0]),
   midi.NoteOnEvent(tick=0, channel=0, data=[80, 58]),
   midi.NoteOnEvent(tick=360, channel=0, data=[80, 0]),
   midi.NoteOnEvent(tick=14, channel=0, data=[81, 51]),
   midi.NoteOnEvent(tick=106, channel=0, data=[72, 58]),
   midi.NoteOnEvent(tick=14, channel=0, data=[81, 0]),
   midi.NoteOnEvent(tick=946, channel=0, data=[72, 0]),
   midi.NoteOnEvent(tick=0, channel=0, data=[71, 55]),
   midi.NoteOnEvent(tick=240, channel=0, data=[71, 0]),
   midi.NoteOnEvent(tick=240, channel=0, data=[67, 75]),
   midi.NoteOnEvent(tick=480, channel=0, data=[67, 0]),
   midi.NoteOnEvent(tick=0, channel=0, data=[72, 57]),
   midi.NoteOnEvent(tick=120, channel=0, data=[72, 0]),
   midi.NoteOnEvent(tick=0, channel=0, data=[71, 55]),
   midi.NoteOnEvent(tick=115, channel=0, data=[72, 57]),
   midi.NoteOnEvent(tick=5, channel=0, data=[71, 0]),
   midi.NoteOnEvent(tick=115, channel=0, data=[72, 0]),
   midi.NoteOnEvent(tick=5, channel=0, data=[74, 55]),
   midi.NoteOnEvent(tick=115, channel=0, data=[76, 62]),
   midi.NoteOnEvent(tick=5, channel=0, data=[74, 0]),
   midi.NoteOnEvent(tick=115, channel=0, data=[76, 0]),
   midi.NoteOnEvent(tick=5, channel=0, data=[74, 55]),
   midi.NoteOnEvent(tick=115, channel=0, data=[76, 62]),
   midi.NoteOnEvent(tick=5, channel=0, data=[74, 0]),
   midi.NoteOnEvent(tick=115, channel=0, data=[76, 0]),
   midi.NoteOnEvent(tick=5, channel=0, data=[77, 59]),
   midi.NoteOnEvent(tick=120, channel=0, data=[77, 0]),
   midi.NoteOnEvent(tick=0, channel=0, data=[79, 81]),
   midi.NoteOnEvent(tick=480, channel=0, data=[79, 0]),
   midi.NoteOnEvent(tick=0, channel=0, data=[72, 57]),
   midi.NoteOnEvent(tick=240, channel=0, data=[72, 0]),
   midi.NoteOnEvent(tick=0, channel=0, data=[74, 57]),
   midi.NoteOnEvent(tick=120, channel=0, data=[74, 0]),
   midi.NoteOnEvent(tick=0, channel=0, data=[76, 55]),
   midi.NoteOnEvent(tick=120, channel=0, data=[76, 0]),
   midi.NoteOnEvent(tick=0, channel=0, data=[77, 63]),
   midi.NoteOnEvent(tick=120, channel=0, data=[77, 0]),
   midi.NoteOnEvent(tick=0, channel=0, data=[79, 65]),
   midi.NoteOnEvent(tick=120, channel=0, data=[79, 0]),
   midi.NoteOnEvent(tick=0, channel=0, data=[81, 66]),
   midi.NoteOnEvent(tick=120, channel=0, data=[81, 0]),
   midi.NoteOnEvent(tick=0, channel=0, data=[83, 69]),
   midi.NoteOnEvent(tick=120, channel=0, data=[83, 0]),
   midi.NoteOnEvent(tick=0, channel=0, data=[84, 78]),
   midi.NoteOnEvent(tick=480, channel=0, data=[84, 0]),
   midi.NoteOnEvent(tick=0, channel=0, data=[76, 69]),
   midi.NoteOnEvent(tick=0, channel=0, data=[72, 58]),
   midi.NoteOnEvent(tick=480, channel=0, data=[72, 0]),
   midi.NoteOnEvent(tick=0, channel=0, data=[76, 0]),
   midi.NoteOnEvent(tick=0, channel=0, data=[71, 58]),
   midi.NoteOnEvent(tick=0, channel=0, data=[74, 69]),
   midi.NoteOnEvent(tick=480, channel=0, data=[74, 0]),
   midi.NoteOnEvent(tick=0, channel=0, data=[71, 0]),
   midi.NoteOnEvent(tick=0, channel=0, data=[67, 60]),
   midi.NoteOnEvent(tick=0, channel=0, data=[72, 70]),
   midi.NoteOnEvent(tick=0, channel=0, data=[64, 60]),
   midi.NoteOnEvent(tick=1200, channel=0, data=[64, 0]),
   midi.NoteOnEvent(tick=0, channel=0, data=[72, 0]),
   midi.NoteOnEvent(tick=0, channel=0, data=[67, 0]),
   midi.EndOfTrackEvent(tick=0, data=[])]),
 midi.Track(\
[    midi.NoteOnEvent(tick=0, channel=0, data=[48, 40]),
   midi.NoteOnEvent(tick=0, channel=0, data=[60, 46]),
   midi.NoteOnEvent(tick=720, channel=0, data=[60, 0]),
   midi.NoteOnEvent(tick=0, channel=0, data=[48, 0]),
   midi.NoteOnEvent(tick=240, channel=0, data=[60, 37]),
   midi.NoteOnEvent(tick=480, channel=0, data=[60, 0]),
   midi.NoteOnEvent(tick=0, channel=0, data=[62, 46]),
   midi.NoteOnEvent(tick=480, channel=0, data=[62, 0]),
   midi.NoteOnEvent(tick=0, channel=0, data=[59, 42]),
   midi.NoteOnEvent(tick=120, channel=0, data=[59, 0]),
   midi.NoteOnEvent(tick=360, channel=0, data=[55, 40]),
   midi.NoteOnEvent(tick=480, channel=0, data=[55, 0]),
   midi.NoteOnEvent(tick=0, channel=0, data=[60, 46]),
   midi.NoteOnEvent(tick=480, channel=0, data=[60, 0]),
   midi.NoteOnEvent(tick=0, channel=0, data=[52, 39]),
   midi.NoteOnEvent(tick=120, channel=0, data=[52, 0]),
   midi.NoteOnEvent(tick=360, channel=0, data=[53, 42]),
   midi.NoteOnEvent(tick=480, channel=0, data=[53, 0]),
   midi.NoteOnEvent(tick=0, channel=0, data=[55, 46]),
   midi.NoteOnEvent(tick=480, channel=0, data=[55, 0]),
   midi.NoteOnEvent(tick=0, channel=0, data=[50, 40]),
   midi.NoteOnEvent(tick=120, channel=0, data=[50, 0]),
   midi.NoteOnEvent(tick=360, channel=0, data=[43, 42]),
   midi.NoteOnEvent(tick=240, channel=0, data=[43, 0]),
   midi.NoteOnEvent(tick=240, channel=0, data=[55, 50]),
   midi.NoteOnEvent(tick=0, channel=0, data=[59, 59]),
   midi.NoteOnEvent(tick=480, channel=0, data=[59, 0]),
   midi.NoteOnEvent(tick=0, channel=0, data=[55, 0]),
   midi.NoteOnEvent(tick=960, channel=0, data=[55, 50]),
   midi.NoteOnEvent(tick=0, channel=0, data=[59, 59]),
   midi.NoteOnEvent(tick=480, channel=0, data=[59, 0]),
   midi.NoteOnEvent(tick=0, channel=0, data=[55, 0]),
   midi.NoteOnEvent(tick=960, channel=0, data=[55, 50]),
   midi.NoteOnEvent(tick=0, channel=0, data=[59, 59]),
   midi.NoteOnEvent(tick=480, channel=0, data=[59, 0]),
   midi.NoteOnEvent(tick=0, channel=0, data=[55, 0]),
   midi.NoteOnEvent(tick=0, channel=0, data=[62, 41]),
   midi.NoteOnEvent(tick=480, channel=0, data=[62, 0]),
   midi.NoteOnEvent(tick=0, channel=0, data=[50, 35]),
   midi.NoteOnEvent(tick=480, channel=0, data=[50, 0]),
   midi.NoteOnEvent(tick=0, channel=0, data=[55, 46]),
   midi.NoteOnEvent(tick=480, channel=0, data=[55, 0]),
   midi.NoteOnEvent(tick=0, channel=0, data=[50, 40]),
   midi.NoteOnEvent(tick=120, channel=0, data=[50, 0]),
   midi.NoteOnEvent(tick=360, channel=0, data=[43, 42]),
   midi.NoteOnEvent(tick=240, channel=0, data=[43, 0]),
   midi.NoteOnEvent(tick=240, channel=0, data=[48, 40]),
   midi.NoteOnEvent(tick=0, channel=0, data=[60, 46]),
   midi.NoteOnEvent(tick=720, channel=0, data=[60, 0]),
   midi.NoteOnEvent(tick=0, channel=0, data=[48, 0]),
   midi.NoteOnEvent(tick=240, channel=0, data=[60, 37]),
   midi.NoteOnEvent(tick=480, channel=0, data=[60, 0]),
   midi.NoteOnEvent(tick=0, channel=0, data=[62, 46]),
   midi.NoteOnEvent(tick=480, channel=0, data=[62, 0]),
   midi.NoteOnEvent(tick=0, channel=0, data=[59, 42]),
   midi.NoteOnEvent(tick=120, channel=0, data=[59, 0]),
   midi.NoteOnEvent(tick=360, channel=0, data=[55, 40]),
   midi.NoteOnEvent(tick=480, channel=0, data=[55, 0]),
   midi.NoteOnEvent(tick=0, channel=0, data=[60, 46]),
   midi.NoteOnEvent(tick=480, channel=0, data=[60, 0]),
   midi.NoteOnEvent(tick=0, channel=0, data=[52, 39]),
   midi.NoteOnEvent(tick=120, channel=0, data=[52, 0]),
   midi.NoteOnEvent(tick=360, channel=0, data=[53, 42]),
   midi.NoteOnEvent(tick=480, channel=0, data=[53, 0]),
   midi.NoteOnEvent(tick=0, channel=0, data=[55, 46]),
   midi.NoteOnEvent(tick=480, channel=0, data=[55, 0]),
   midi.NoteOnEvent(tick=0, channel=0, data=[50, 40]),
   midi.NoteOnEvent(tick=120, channel=0, data=[50, 0]),
   midi.NoteOnEvent(tick=360, channel=0, data=[43, 42]),
   midi.NoteOnEvent(tick=240, channel=0, data=[43, 0]),
   midi.NoteOnEvent(tick=240, channel=0, data=[55, 50]),
   midi.NoteOnEvent(tick=0, channel=0, data=[59, 59]),
   midi.NoteOnEvent(tick=480, channel=0, data=[59, 0]),
   midi.NoteOnEvent(tick=0, channel=0, data=[55, 0]),
   midi.NoteOnEvent(tick=960, channel=0, data=[55, 50]),
   midi.NoteOnEvent(tick=0, channel=0, data=[59, 59]),
   midi.NoteOnEvent(tick=480, channel=0, data=[59, 0]),
   midi.NoteOnEvent(tick=0, channel=0, data=[55, 0]),
   midi.NoteOnEvent(tick=960, channel=0, data=[55, 50]),
   midi.NoteOnEvent(tick=0, channel=0, data=[59, 59]),
   midi.NoteOnEvent(tick=480, channel=0, data=[59, 0]),
   midi.NoteOnEvent(tick=0, channel=0, data=[55, 0]),
   midi.NoteOnEvent(tick=0, channel=0, data=[62, 41]),
   midi.NoteOnEvent(tick=480, channel=0, data=[62, 0]),
   midi.NoteOnEvent(tick=0, channel=0, data=[50, 35]),
   midi.NoteOnEvent(tick=480, channel=0, data=[50, 0]),
   midi.NoteOnEvent(tick=0, channel=0, data=[55, 46]),
   midi.NoteOnEvent(tick=480, channel=0, data=[55, 0]),
   midi.NoteOnEvent(tick=0, channel=0, data=[50, 40]),
   midi.NoteOnEvent(tick=120, channel=0, data=[50, 0]),
   midi.NoteOnEvent(tick=360, channel=0, data=[43, 42]),
   midi.NoteOnEvent(tick=240, channel=0, data=[43, 0]),
   midi.NoteOnEvent(tick=240, channel=0, data=[76, 46]),
   midi.NoteOnEvent(tick=720, channel=0, data=[76, 0]),
   midi.NoteOnEvent(tick=240, channel=0, data=[72, 37]),
   midi.NoteOnEvent(tick=480, channel=0, data=[72, 0]),
   midi.NoteOnEvent(tick=0, channel=0, data=[74, 46]),
   midi.NoteOnEvent(tick=480, channel=0, data=[74, 0]),
   midi.NoteOnEvent(tick=0, channel=0, data=[71, 42]),
   midi.NoteOnEvent(tick=120, channel=0, data=[71, 0]),
   midi.NoteOnEvent(tick=360, channel=0, data=[67, 40]),
   midi.NoteOnEvent(tick=480, channel=0, data=[67, 0]),
   midi.NoteOnEvent(tick=0, channel=0, data=[72, 46]),
   midi.NoteOnEvent(tick=480, channel=0, data=[72, 0]),
   midi.NoteOnEvent(tick=0, channel=0, data=[64, 39]),
   midi.NoteOnEvent(tick=480, channel=0, data=[64, 0]),
   midi.NoteOnEvent(tick=0, channel=0, data=[65, 46]),
   midi.NoteOnEvent(tick=480, channel=0, data=[65, 0]),
   midi.NoteOnEvent(tick=0, channel=0, data=[67, 54]),
   midi.NoteOnEvent(tick=480, channel=0, data=[67, 0]),
   midi.NoteOnEvent(tick=0, channel=0, data=[62, 40]),
   midi.NoteOnEvent(tick=120, channel=0, data=[62, 0]),
   midi.NoteOnEvent(tick=360, channel=0, data=[55, 42]),
   midi.NoteOnEvent(tick=240, channel=0, data=[55, 0]),
   midi.NoteOnEvent(tick=240, channel=0, data=[48, 50]),
   midi.NoteOnEvent(tick=0, channel=0, data=[52, 50]),
   midi.NoteOnEvent(tick=0, channel=0, data=[55, 50]),
   midi.NoteOnEvent(tick=0, channel=0, data=[60, 59]),
   midi.NoteOnEvent(tick=480, channel=0, data=[60, 0]),
   midi.NoteOnEvent(tick=0, channel=0, data=[48, 0]),
   midi.NoteOnEvent(tick=0, channel=0, data=[52, 0]),
   midi.NoteOnEvent(tick=0, channel=0, data=[55, 0]),
   midi.NoteOnEvent(tick=960, channel=0, data=[48, 50]),
   midi.NoteOnEvent(tick=0, channel=0, data=[52, 50]),
   midi.NoteOnEvent(tick=0, channel=0, data=[55, 50]),
   midi.NoteOnEvent(tick=0, channel=0, data=[60, 59]),
   midi.NoteOnEvent(tick=480, channel=0, data=[60, 0]),
   midi.NoteOnEvent(tick=0, channel=0, data=[48, 0]),
   midi.NoteOnEvent(tick=0, channel=0, data=[52, 0]),
   midi.NoteOnEvent(tick=0, channel=0, data=[55, 0]),
   midi.NoteOnEvent(tick=960, channel=0, data=[52, 59]),
   midi.NoteOnEvent(tick=480, channel=0, data=[52, 0]),
   midi.NoteOnEvent(tick=0, channel=0, data=[55, 41]),
   midi.NoteOnEvent(tick=480, channel=0, data=[55, 0]),
   midi.NoteOnEvent(tick=0, channel=0, data=[43, 41]),
   midi.NoteOnEvent(tick=480, channel=0, data=[43, 0]),
   midi.NoteOnEvent(tick=0, channel=0, data=[48, 46]),
   midi.NoteOnEvent(tick=480, channel=0, data=[48, 0]),
   midi.NoteOnEvent(tick=0, channel=0, data=[43, 40]),
   midi.NoteOnEvent(tick=120, channel=0, data=[43, 0]),
   midi.NoteOnEvent(tick=360, channel=0, data=[36, 42]),
   midi.NoteOnEvent(tick=240, channel=0, data=[36, 0]),
   midi.NoteOnEvent(tick=240, channel=0, data=[76, 46]),
   midi.NoteOnEvent(tick=720, channel=0, data=[76, 0]),
   midi.NoteOnEvent(tick=240, channel=0, data=[72, 37]),
   midi.NoteOnEvent(tick=480, channel=0, data=[72, 0]),
   midi.NoteOnEvent(tick=0, channel=0, data=[74, 46]),
   midi.NoteOnEvent(tick=480, channel=0, data=[74, 0]),
   midi.NoteOnEvent(tick=0, channel=0, data=[71, 42]),
   midi.NoteOnEvent(tick=120, channel=0, data=[71, 0]),
   midi.NoteOnEvent(tick=360, channel=0, data=[67, 40]),
   midi.NoteOnEvent(tick=480, channel=0, data=[67, 0]),
   midi.NoteOnEvent(tick=0, channel=0, data=[72, 46]),
   midi.NoteOnEvent(tick=480, channel=0, data=[72, 0]),
   midi.NoteOnEvent(tick=0, channel=0, data=[64, 39]),
   midi.NoteOnEvent(tick=480, channel=0, data=[64, 0]),
   midi.NoteOnEvent(tick=0, channel=0, data=[65, 46]),
   midi.NoteOnEvent(tick=480, channel=0, data=[65, 0]),
   midi.NoteOnEvent(tick=0, channel=0, data=[67, 54]),
   midi.NoteOnEvent(tick=480, channel=0, data=[67, 0]),
   midi.NoteOnEvent(tick=0, channel=0, data=[62, 40]),
   midi.NoteOnEvent(tick=120, channel=0, data=[62, 0]),
   midi.NoteOnEvent(tick=360, channel=0, data=[55, 42]),
   midi.NoteOnEvent(tick=240, channel=0, data=[55, 0]),
   midi.NoteOnEvent(tick=240, channel=0, data=[48, 50]),
   midi.NoteOnEvent(tick=0, channel=0, data=[52, 50]),
   midi.NoteOnEvent(tick=0, channel=0, data=[55, 50]),
   midi.NoteOnEvent(tick=0, channel=0, data=[60, 59]),
   midi.NoteOnEvent(tick=480, channel=0, data=[60, 0]),
   midi.NoteOnEvent(tick=0, channel=0, data=[48, 0]),
   midi.NoteOnEvent(tick=0, channel=0, data=[52, 0]),
   midi.NoteOnEvent(tick=0, channel=0, data=[55, 0]),
   midi.NoteOnEvent(tick=960, channel=0, data=[48, 50]),
   midi.NoteOnEvent(tick=0, channel=0, data=[52, 50]),
   midi.NoteOnEvent(tick=0, channel=0, data=[55, 50]),
   midi.NoteOnEvent(tick=0, channel=0, data=[60, 59]),
   midi.NoteOnEvent(tick=480, channel=0, data=[60, 0]),
   midi.NoteOnEvent(tick=0, channel=0, data=[48, 0]),
   midi.NoteOnEvent(tick=0, channel=0, data=[52, 0]),
   midi.NoteOnEvent(tick=0, channel=0, data=[55, 0]),
   midi.NoteOnEvent(tick=960, channel=0, data=[52, 59]),
   midi.NoteOnEvent(tick=480, channel=0, data=[52, 0]),
   midi.NoteOnEvent(tick=0, channel=0, data=[55, 41]),
   midi.NoteOnEvent(tick=480, channel=0, data=[55, 0]),
   midi.NoteOnEvent(tick=0, channel=0, data=[43, 41]),
   midi.NoteOnEvent(tick=480, channel=0, data=[43, 0]),
   midi.NoteOnEvent(tick=0, channel=0, data=[48, 46]),
   midi.NoteOnEvent(tick=480, channel=0, data=[48, 0]),
   midi.NoteOnEvent(tick=0, channel=0, data=[43, 40]),
   midi.NoteOnEvent(tick=120, channel=0, data=[43, 0]),
   midi.NoteOnEvent(tick=360, channel=0, data=[36, 42]),
   midi.NoteOnEvent(tick=240, channel=0, data=[36, 0]),
   midi.NoteOnEvent(tick=240, channel=0, data=[48, 46]),
   midi.NoteOnEvent(tick=480, channel=0, data=[48, 0]),
   midi.NoteOnEvent(tick=0, channel=0, data=[55, 40]),
   midi.NoteOnEvent(tick=0, channel=0, data=[51, 33]),
   midi.NoteOnEvent(tick=480, channel=0, data=[51, 0]),
   midi.NoteOnEvent(tick=0, channel=0, data=[55, 0]),
   midi.NoteOnEvent(tick=0, channel=0, data=[53, 40]),
   midi.NoteOnEvent(tick=0, channel=0, data=[50, 33]),
   midi.NoteOnEvent(tick=480, channel=0, data=[50, 0]),
   midi.NoteOnEvent(tick=0, channel=0, data=[53, 0]),
   midi.NoteOnEvent(tick=0, channel=0, data=[48, 39]),
   midi.NoteOnEvent(tick=0, channel=0, data=[51, 46]),
   midi.NoteOnEvent(tick=480, channel=0, data=[51, 0]),
   midi.NoteOnEvent(tick=0, channel=0, data=[48, 0]),
   midi.NoteOnEvent(tick=960, channel=0, data=[55, 46]),
   midi.NoteOnEvent(tick=480, channel=0, data=[55, 0]),
   midi.NoteOnEvent(tick=0, channel=0, data=[62, 40]),
   midi.NoteOnEvent(tick=0, channel=0, data=[59, 33]),
   midi.NoteOnEvent(tick=480, channel=0, data=[59, 0]),
   midi.NoteOnEvent(tick=0, channel=0, data=[62, 0]),
   midi.NoteOnEvent(tick=0, channel=0, data=[60, 40]),
   midi.NoteOnEvent(tick=0, channel=0, data=[57, 33]),
   midi.NoteOnEvent(tick=480, channel=0, data=[57, 0]),
   midi.NoteOnEvent(tick=0, channel=0, data=[60, 0]),
   midi.NoteOnEvent(tick=0, channel=0, data=[55, 39]),
   midi.NoteOnEvent(tick=0, channel=0, data=[59, 46]),
   midi.NoteOnEvent(tick=480, channel=0, data=[59, 0]),
   midi.NoteOnEvent(tick=0, channel=0, data=[55, 0]),
   midi.NoteOnEvent(tick=960, channel=0, data=[60, 51]),
   midi.NoteOnEvent(tick=480, channel=0, data=[60, 0]),
   midi.NoteOnEvent(tick=0, channel=0, data=[63, 49]),
   midi.NoteOnEvent(tick=480, channel=0, data=[63, 0]),
   midi.NoteOnEvent(tick=0, channel=0, data=[60, 52]),
   midi.NoteOnEvent(tick=480, channel=0, data=[60, 0]),
   midi.NoteOnEvent(tick=0, channel=0, data=[54, 56]),
   midi.NoteOnEvent(tick=960, channel=0, data=[54, 0]),
   midi.NoteOnEvent(tick=480, channel=0, data=[55, 51]),
   midi.NoteOnEvent(tick=480, channel=0, data=[55, 0]),
   midi.NoteOnEvent(tick=0, channel=0, data=[62, 48]),
   midi.NoteOnEvent(tick=480, channel=0, data=[62, 0]),
   midi.NoteOnEvent(tick=0, channel=0, data=[50, 51]),
   midi.NoteOnEvent(tick=480, channel=0, data=[50, 0]),
   midi.NoteOnEvent(tick=0, channel=0, data=[55, 51]),
   midi.NoteOnEvent(tick=240, channel=0, data=[55, 0]),
   midi.NoteOnEvent(tick=0, channel=0, data=[43, 43]),
   midi.NoteOnEvent(tick=240, channel=0, data=[43, 0]),
   midi.NoteOnEvent(tick=0, channel=0, data=[55, 51]),
   midi.NoteOnEvent(tick=240, channel=0, data=[55, 0]),
   midi.NoteOnEvent(tick=0, channel=0, data=[53, 43]),
   midi.NoteOnEvent(tick=240, channel=0, data=[53, 0]),
   midi.NoteOnEvent(tick=0, channel=0, data=[51, 48]),
   midi.NoteOnEvent(tick=240, channel=0, data=[51, 0]),
   midi.NoteOnEvent(tick=0, channel=0, data=[50, 40]),
   midi.NoteOnEvent(tick=240, channel=0, data=[50, 0]),
   midi.NoteOnEvent(tick=0, channel=0, data=[48, 43]),
   midi.NoteOnEvent(tick=480, channel=0, data=[48, 0]),
   midi.NoteOnEvent(tick=0, channel=0, data=[55, 40]),
   midi.NoteOnEvent(tick=0, channel=0, data=[51, 33]),
   midi.NoteOnEvent(tick=480, channel=0, data=[51, 0]),
   midi.NoteOnEvent(tick=0, channel=0, data=[55, 0]),
   midi.NoteOnEvent(tick=0, channel=0, data=[53, 40]),
   midi.NoteOnEvent(tick=0, channel=0, data=[50, 33]),
   midi.NoteOnEvent(tick=480, channel=0, data=[50, 0]),
   midi.NoteOnEvent(tick=0, channel=0, data=[53, 0]),
   midi.NoteOnEvent(tick=0, channel=0, data=[48, 39]),
   midi.NoteOnEvent(tick=0, channel=0, data=[51, 46]),
   midi.NoteOnEvent(tick=480, channel=0, data=[51, 0]),
   midi.NoteOnEvent(tick=0, channel=0, data=[48, 0]),
   midi.NoteOnEvent(tick=960, channel=0, data=[55, 46]),
   midi.NoteOnEvent(tick=480, channel=0, data=[55, 0]),
   midi.NoteOnEvent(tick=0, channel=0, data=[62, 40]),
   midi.NoteOnEvent(tick=0, channel=0, data=[59, 33]),
   midi.NoteOnEvent(tick=480, channel=0, data=[59, 0]),
   midi.NoteOnEvent(tick=0, channel=0, data=[62, 0]),
   midi.NoteOnEvent(tick=0, channel=0, data=[60, 40]),
   midi.NoteOnEvent(tick=0, channel=0, data=[57, 33]),
   midi.NoteOnEvent(tick=480, channel=0, data=[57, 0]),
   midi.NoteOnEvent(tick=0, channel=0, data=[60, 0]),
   midi.NoteOnEvent(tick=0, channel=0, data=[55, 39]),
   midi.NoteOnEvent(tick=0, channel=0, data=[59, 46]),
   midi.NoteOnEvent(tick=480, channel=0, data=[59, 0]),
   midi.NoteOnEvent(tick=0, channel=0, data=[55, 0]),
   midi.NoteOnEvent(tick=960, channel=0, data=[60, 51]),
   midi.NoteOnEvent(tick=480, channel=0, data=[60, 0]),
   midi.NoteOnEvent(tick=0, channel=0, data=[63, 49]),
   midi.NoteOnEvent(tick=480, channel=0, data=[63, 0]),
   midi.NoteOnEvent(tick=0, channel=0, data=[60, 52]),
   midi.NoteOnEvent(tick=480, channel=0, data=[60, 0]),
   midi.NoteOnEvent(tick=0, channel=0, data=[54, 56]),
   midi.NoteOnEvent(tick=960, channel=0, data=[54, 0]),
   midi.NoteOnEvent(tick=480, channel=0, data=[55, 51]),
   midi.NoteOnEvent(tick=480, channel=0, data=[55, 0]),
   midi.NoteOnEvent(tick=0, channel=0, data=[62, 48]),
   midi.NoteOnEvent(tick=480, channel=0, data=[62, 0]),
   midi.NoteOnEvent(tick=0, channel=0, data=[50, 51]),
   midi.NoteOnEvent(tick=480, channel=0, data=[50, 0]),
   midi.NoteOnEvent(tick=0, channel=0, data=[55, 51]),
   midi.NoteOnEvent(tick=240, channel=0, data=[55, 0]),
   midi.NoteOnEvent(tick=0, channel=0, data=[43, 43]),
   midi.NoteOnEvent(tick=240, channel=0, data=[43, 0]),
   midi.NoteOnEvent(tick=0, channel=0, data=[55, 51]),
   midi.NoteOnEvent(tick=240, channel=0, data=[55, 0]),
   midi.NoteOnEvent(tick=0, channel=0, data=[53, 43]),
   midi.NoteOnEvent(tick=240, channel=0, data=[53, 0]),
   midi.NoteOnEvent(tick=0, channel=0, data=[51, 48]),
   midi.NoteOnEvent(tick=240, channel=0, data=[51, 0]),
   midi.NoteOnEvent(tick=0, channel=0, data=[50, 40]),
   midi.NoteOnEvent(tick=240, channel=0, data=[50, 0]),
   midi.NoteOnEvent(tick=0, channel=0, data=[48, 43]),
   midi.NoteOnEvent(tick=480, channel=0, data=[48, 0]),
   midi.NoteOnEvent(tick=0, channel=0, data=[64, 40]),
   midi.NoteOnEvent(tick=0, channel=0, data=[60, 33]),
   midi.NoteOnEvent(tick=480, channel=0, data=[60, 0]),
   midi.NoteOnEvent(tick=0, channel=0, data=[64, 0]),
   midi.NoteOnEvent(tick=0, channel=0, data=[65, 40]),
   midi.NoteOnEvent(tick=0, channel=0, data=[62, 33]),
   midi.NoteOnEvent(tick=480, channel=0, data=[62, 0]),
   midi.NoteOnEvent(tick=0, channel=0, data=[65, 0]),
   midi.NoteOnEvent(tick=0, channel=0, data=[64, 39]),
   midi.NoteOnEvent(tick=0, channel=0, data=[67, 46]),
   midi.NoteOnEvent(tick=480, channel=0, data=[67, 0]),
   midi.NoteOnEvent(tick=0, channel=0, data=[64, 0]),
   midi.NoteOnEvent(tick=480, channel=0, data=[65, 46]),
   midi.NoteOnEvent(tick=480, channel=0, data=[65, 0]),
   midi.NoteOnEvent(tick=0, channel=0, data=[50, 47]),
   midi.NoteOnEvent(tick=480, channel=0, data=[50, 0]),
   midi.NoteOnEvent(tick=0, channel=0, data=[66, 43]),
   midi.NoteOnEvent(tick=0, channel=0, data=[62, 35]),
   midi.NoteOnEvent(tick=480, channel=0, data=[62, 0]),
   midi.NoteOnEvent(tick=0, channel=0, data=[66, 0]),
   midi.NoteOnEvent(tick=0, channel=0, data=[67, 43]),
   midi.NoteOnEvent(tick=0, channel=0, data=[64, 35]),
   midi.NoteOnEvent(tick=480, channel=0, data=[64, 0]),
   midi.NoteOnEvent(tick=0, channel=0, data=[67, 0]),
   midi.NoteOnEvent(tick=0, channel=0, data=[66, 39]),
   midi.NoteOnEvent(tick=0, channel=0, data=[69, 46]),
   midi.NoteOnEvent(tick=480, channel=0, data=[69, 0]),
   midi.NoteOnEvent(tick=0, channel=0, data=[66, 0]),
   midi.NoteOnEvent(tick=480, channel=0, data=[67, 46]),
   midi.NoteOnEvent(tick=480, channel=0, data=[67, 0]),
   midi.NoteOnEvent(tick=0, channel=0, data=[36, 39]),
   midi.NoteOnEvent(tick=0, channel=0, data=[48, 43]),
   midi.NoteOnEvent(tick=480, channel=0, data=[48, 0]),
   midi.NoteOnEvent(tick=0, channel=0, data=[36, 0]),
   midi.NoteOnEvent(tick=0, channel=0, data=[55, 40]),
   midi.NoteOnEvent(tick=0, channel=0, data=[51, 33]),
   midi.NoteOnEvent(tick=480, channel=0, data=[51, 0]),
   midi.NoteOnEvent(tick=0, channel=0, data=[55, 0]),
   midi.NoteOnEvent(tick=0, channel=0, data=[53, 40]),
   midi.NoteOnEvent(tick=0, channel=0, data=[50, 33]),
   midi.NoteOnEvent(tick=480, channel=0, data=[50, 0]),
   midi.NoteOnEvent(tick=0, channel=0, data=[53, 0]),
   midi.NoteOnEvent(tick=0, channel=0, data=[48, 39]),
   midi.NoteOnEvent(tick=0, channel=0, data=[51, 46]),
   midi.NoteOnEvent(tick=480, channel=0, data=[51, 0]),
   midi.NoteOnEvent(tick=0, channel=0, data=[48, 0]),
   midi.NoteOnEvent(tick=960, channel=0, data=[43, 37]),
   midi.NoteOnEvent(tick=0, channel=0, data=[55, 46]),
   midi.NoteOnEvent(tick=480, channel=0, data=[55, 0]),
   midi.NoteOnEvent(tick=0, channel=0, data=[43, 0]),
   midi.NoteOnEvent(tick=0, channel=0, data=[62, 40]),
   midi.NoteOnEvent(tick=0, channel=0, data=[59, 33]),
   midi.NoteOnEvent(tick=480, channel=0, data=[59, 0]),
   midi.NoteOnEvent(tick=0, channel=0, data=[62, 0]),
   midi.NoteOnEvent(tick=0, channel=0, data=[60, 40]),
   midi.NoteOnEvent(tick=0, channel=0, data=[57, 33]),
   midi.NoteOnEvent(tick=480, channel=0, data=[57, 0]),
   midi.NoteOnEvent(tick=0, channel=0, data=[60, 0]),
   midi.NoteOnEvent(tick=0, channel=0, data=[55, 39]),
   midi.NoteOnEvent(tick=0, channel=0, data=[59, 46]),
   midi.NoteOnEvent(tick=480, channel=0, data=[59, 0]),
   midi.NoteOnEvent(tick=0, channel=0, data=[55, 0]),
   midi.NoteOnEvent(tick=960, channel=0, data=[60, 51]),
   midi.NoteOnEvent(tick=480, channel=0, data=[60, 0]),
   midi.NoteOnEvent(tick=0, channel=0, data=[63, 49]),
   midi.NoteOnEvent(tick=480, channel=0, data=[63, 0]),
   midi.NoteOnEvent(tick=0, channel=0, data=[60, 52]),
   midi.NoteOnEvent(tick=480, channel=0, data=[60, 0]),
   midi.NoteOnEvent(tick=0, channel=0, data=[59, 56]),
   midi.NoteOnEvent(tick=960, channel=0, data=[59, 0]),
   midi.NoteOnEvent(tick=480, channel=0, data=[60, 51]),
   midi.NoteOnEvent(tick=480, channel=0, data=[60, 0]),
   midi.NoteOnEvent(tick=0, channel=0, data=[55, 48]),
   midi.NoteOnEvent(tick=480, channel=0, data=[55, 0]),
   midi.NoteOnEvent(tick=0, channel=0, data=[43, 51]),
   midi.NoteOnEvent(tick=480, channel=0, data=[43, 0]),
   midi.NoteOnEvent(tick=0, channel=0, data=[48, 51]),
   midi.NoteOnEvent(tick=480, channel=0, data=[48, 0]),
   midi.NoteOnEvent(tick=0, channel=0, data=[55, 51]),
   midi.NoteOnEvent(tick=240, channel=0, data=[55, 0]),
   midi.NoteOnEvent(tick=0, channel=0, data=[53, 43]),
   midi.NoteOnEvent(tick=240, channel=0, data=[53, 0]),
   midi.NoteOnEvent(tick=0, channel=0, data=[51, 48]),
   midi.NoteOnEvent(tick=240, channel=0, data=[51, 0]),
   midi.NoteOnEvent(tick=0, channel=0, data=[50, 40]),
   midi.NoteOnEvent(tick=240, channel=0, data=[50, 0]),
   midi.NoteOnEvent(tick=0, channel=0, data=[48, 43]),
   midi.NoteOnEvent(tick=480, channel=0, data=[48, 0]),
   midi.NoteOnEvent(tick=0, channel=0, data=[64, 40]),
   midi.NoteOnEvent(tick=0, channel=0, data=[60, 33]),
   midi.NoteOnEvent(tick=480, channel=0, data=[60, 0]),
   midi.NoteOnEvent(tick=0, channel=0, data=[64, 0]),
   midi.NoteOnEvent(tick=0, channel=0, data=[65, 40]),
   midi.NoteOnEvent(tick=0, channel=0, data=[62, 33]),
   midi.NoteOnEvent(tick=480, channel=0, data=[62, 0]),
   midi.NoteOnEvent(tick=0, channel=0, data=[65, 0]),
   midi.NoteOnEvent(tick=0, channel=0, data=[64, 42]),
   midi.NoteOnEvent(tick=0, channel=0, data=[67, 50]),
   midi.NoteOnEvent(tick=480, channel=0, data=[67, 0]),
   midi.NoteOnEvent(tick=0, channel=0, data=[64, 0]),
   midi.NoteOnEvent(tick=480, channel=0, data=[65, 50]),
   midi.NoteOnEvent(tick=480, channel=0, data=[65, 0]),
   midi.NoteOnEvent(tick=0, channel=0, data=[50, 47]),
   midi.NoteOnEvent(tick=480, channel=0, data=[50, 0]),
   midi.NoteOnEvent(tick=0, channel=0, data=[66, 43]),
   midi.NoteOnEvent(tick=0, channel=0, data=[62, 35]),
   midi.NoteOnEvent(tick=480, channel=0, data=[62, 0]),
   midi.NoteOnEvent(tick=0, channel=0, data=[66, 0]),
   midi.NoteOnEvent(tick=0, channel=0, data=[67, 43]),
   midi.NoteOnEvent(tick=0, channel=0, data=[64, 35]),
   midi.NoteOnEvent(tick=480, channel=0, data=[64, 0]),
   midi.NoteOnEvent(tick=0, channel=0, data=[67, 0]),
   midi.NoteOnEvent(tick=0, channel=0, data=[66, 39]),
   midi.NoteOnEvent(tick=0, channel=0, data=[69, 46]),
   midi.NoteOnEvent(tick=480, channel=0, data=[69, 0]),
   midi.NoteOnEvent(tick=0, channel=0, data=[66, 0]),
   midi.NoteOnEvent(tick=480, channel=0, data=[67, 46]),
   midi.NoteOnEvent(tick=480, channel=0, data=[67, 0]),
   midi.NoteOnEvent(tick=0, channel=0, data=[36, 39]),
   midi.NoteOnEvent(tick=0, channel=0, data=[48, 43]),
   midi.NoteOnEvent(tick=480, channel=0, data=[48, 0]),
   midi.NoteOnEvent(tick=0, channel=0, data=[36, 0]),
   midi.NoteOnEvent(tick=0, channel=0, data=[55, 40]),
   midi.NoteOnEvent(tick=0, channel=0, data=[51, 33]),
   midi.NoteOnEvent(tick=480, channel=0, data=[51, 0]),
   midi.NoteOnEvent(tick=0, channel=0, data=[55, 0]),
   midi.NoteOnEvent(tick=0, channel=0, data=[53, 40]),
   midi.NoteOnEvent(tick=0, channel=0, data=[50, 33]),
   midi.NoteOnEvent(tick=480, channel=0, data=[50, 0]),
   midi.NoteOnEvent(tick=0, channel=0, data=[53, 0]),
   midi.NoteOnEvent(tick=0, channel=0, data=[48, 39]),
   midi.NoteOnEvent(tick=0, channel=0, data=[51, 46]),
   midi.NoteOnEvent(tick=480, channel=0, data=[51, 0]),
   midi.NoteOnEvent(tick=0, channel=0, data=[48, 0]),
   midi.NoteOnEvent(tick=960, channel=0, data=[43, 37]),
   midi.NoteOnEvent(tick=0, channel=0, data=[55, 46]),
   midi.NoteOnEvent(tick=480, channel=0, data=[55, 0]),
   midi.NoteOnEvent(tick=0, channel=0, data=[43, 0]),
   midi.NoteOnEvent(tick=0, channel=0, data=[62, 40]),
   midi.NoteOnEvent(tick=0, channel=0, data=[59, 33]),
   midi.NoteOnEvent(tick=480, channel=0, data=[59, 0]),
   midi.NoteOnEvent(tick=0, channel=0, data=[62, 0]),
   midi.NoteOnEvent(tick=0, channel=0, data=[60, 40]),
   midi.NoteOnEvent(tick=0, channel=0, data=[57, 33]),
   midi.NoteOnEvent(tick=480, channel=0, data=[57, 0]),
   midi.NoteOnEvent(tick=0, channel=0, data=[60, 0]),
   midi.NoteOnEvent(tick=0, channel=0, data=[55, 39]),
   midi.NoteOnEvent(tick=0, channel=0, data=[59, 46]),
   midi.NoteOnEvent(tick=480, channel=0, data=[59, 0]),
   midi.NoteOnEvent(tick=0, channel=0, data=[55, 0]),
   midi.NoteOnEvent(tick=960, channel=0, data=[60, 51]),
   midi.NoteOnEvent(tick=480, channel=0, data=[60, 0]),
   midi.NoteOnEvent(tick=0, channel=0, data=[63, 49]),
   midi.NoteOnEvent(tick=480, channel=0, data=[63, 0]),
   midi.NoteOnEvent(tick=0, channel=0, data=[60, 52]),
   midi.NoteOnEvent(tick=480, channel=0, data=[60, 0]),
   midi.NoteOnEvent(tick=0, channel=0, data=[59, 56]),
   midi.NoteOnEvent(tick=960, channel=0, data=[59, 0]),
   midi.NoteOnEvent(tick=480, channel=0, data=[60, 51]),
   midi.NoteOnEvent(tick=480, channel=0, data=[60, 0]),
   midi.NoteOnEvent(tick=0, channel=0, data=[55, 48]),
   midi.NoteOnEvent(tick=480, channel=0, data=[55, 0]),
   midi.NoteOnEvent(tick=0, channel=0, data=[43, 51]),
   midi.NoteOnEvent(tick=480, channel=0, data=[43, 0]),
   midi.NoteOnEvent(tick=0, channel=0, data=[48, 51]),
   midi.NoteOnEvent(tick=480, channel=0, data=[48, 0]),
   midi.NoteOnEvent(tick=0, channel=0, data=[43, 51]),
   midi.NoteOnEvent(tick=120, channel=0, data=[43, 0]),
   midi.NoteOnEvent(tick=360, channel=0, data=[36, 48]),
   midi.NoteOnEvent(tick=240, channel=0, data=[36, 0]),
   midi.NoteOnEvent(tick=240, channel=0, data=[48, 40]),
   midi.NoteOnEvent(tick=0, channel=0, data=[60, 46]),
   midi.NoteOnEvent(tick=720, channel=0, data=[60, 0]),
   midi.NoteOnEvent(tick=0, channel=0, data=[48, 0]),
   midi.NoteOnEvent(tick=240, channel=0, data=[60, 37]),
   midi.NoteOnEvent(tick=480, channel=0, data=[60, 0]),
   midi.NoteOnEvent(tick=0, channel=0, data=[62, 46]),
   midi.NoteOnEvent(tick=480, channel=0, data=[62, 0]),
   midi.NoteOnEvent(tick=0, channel=0, data=[59, 42]),
   midi.NoteOnEvent(tick=120, channel=0, data=[59, 0]),
   midi.NoteOnEvent(tick=360, channel=0, data=[55, 40]),
   midi.NoteOnEvent(tick=480, channel=0, data=[55, 0]),
   midi.NoteOnEvent(tick=0, channel=0, data=[60, 46]),
   midi.NoteOnEvent(tick=480, channel=0, data=[60, 0]),
   midi.NoteOnEvent(tick=0, channel=0, data=[52, 39]),
   midi.NoteOnEvent(tick=120, channel=0, data=[52, 0]),
   midi.NoteOnEvent(tick=360, channel=0, data=[53, 42]),
   midi.NoteOnEvent(tick=480, channel=0, data=[53, 0]),
   midi.NoteOnEvent(tick=0, channel=0, data=[55, 46]),
   midi.NoteOnEvent(tick=480, channel=0, data=[55, 0]),
   midi.NoteOnEvent(tick=0, channel=0, data=[50, 40]),
   midi.NoteOnEvent(tick=120, channel=0, data=[50, 0]),
   midi.NoteOnEvent(tick=360, channel=0, data=[43, 42]),
   midi.NoteOnEvent(tick=240, channel=0, data=[43, 0]),
   midi.NoteOnEvent(tick=240, channel=0, data=[55, 50]),
   midi.NoteOnEvent(tick=0, channel=0, data=[59, 59]),
   midi.NoteOnEvent(tick=480, channel=0, data=[59, 0]),
   midi.NoteOnEvent(tick=0, channel=0, data=[55, 0]),
   midi.NoteOnEvent(tick=960, channel=0, data=[55, 50]),
   midi.NoteOnEvent(tick=0, channel=0, data=[59, 59]),
   midi.NoteOnEvent(tick=480, channel=0, data=[59, 0]),
   midi.NoteOnEvent(tick=0, channel=0, data=[55, 0]),
   midi.NoteOnEvent(tick=960, channel=0, data=[55, 50]),
   midi.NoteOnEvent(tick=0, channel=0, data=[59, 59]),
   midi.NoteOnEvent(tick=480, channel=0, data=[59, 0]),
   midi.NoteOnEvent(tick=0, channel=0, data=[55, 0]),
   midi.NoteOnEvent(tick=0, channel=0, data=[62, 41]),
   midi.NoteOnEvent(tick=480, channel=0, data=[62, 0]),
   midi.NoteOnEvent(tick=0, channel=0, data=[50, 35]),
   midi.NoteOnEvent(tick=480, channel=0, data=[50, 0]),
   midi.NoteOnEvent(tick=0, channel=0, data=[55, 46]),
   midi.NoteOnEvent(tick=480, channel=0, data=[55, 0]),
   midi.NoteOnEvent(tick=0, channel=0, data=[50, 40]),
   midi.NoteOnEvent(tick=120, channel=0, data=[50, 0]),
   midi.NoteOnEvent(tick=360, channel=0, data=[43, 42]),
   midi.NoteOnEvent(tick=240, channel=0, data=[43, 0]),
   midi.NoteOnEvent(tick=240, channel=0, data=[76, 46]),
   midi.NoteOnEvent(tick=720, channel=0, data=[76, 0]),
   midi.NoteOnEvent(tick=240, channel=0, data=[72, 37]),
   midi.NoteOnEvent(tick=480, channel=0, data=[72, 0]),
   midi.NoteOnEvent(tick=0, channel=0, data=[74, 46]),
   midi.NoteOnEvent(tick=480, channel=0, data=[74, 0]),
   midi.NoteOnEvent(tick=0, channel=0, data=[71, 42]),
   midi.NoteOnEvent(tick=120, channel=0, data=[71, 0]),
   midi.NoteOnEvent(tick=360, channel=0, data=[67, 40]),
   midi.NoteOnEvent(tick=480, channel=0, data=[67, 0]),
   midi.NoteOnEvent(tick=0, channel=0, data=[72, 46]),
   midi.NoteOnEvent(tick=480, channel=0, data=[72, 0]),
   midi.NoteOnEvent(tick=0, channel=0, data=[64, 39]),
   midi.NoteOnEvent(tick=480, channel=0, data=[64, 0]),
   midi.NoteOnEvent(tick=0, channel=0, data=[65, 46]),
   midi.NoteOnEvent(tick=480, channel=0, data=[65, 0]),
   midi.NoteOnEvent(tick=0, channel=0, data=[67, 54]),
   midi.NoteOnEvent(tick=480, channel=0, data=[67, 0]),
   midi.NoteOnEvent(tick=0, channel=0, data=[62, 40]),
   midi.NoteOnEvent(tick=120, channel=0, data=[62, 0]),
   midi.NoteOnEvent(tick=360, channel=0, data=[55, 42]),
   midi.NoteOnEvent(tick=240, channel=0, data=[55, 0]),
   midi.NoteOnEvent(tick=240, channel=0, data=[48, 50]),
   midi.NoteOnEvent(tick=0, channel=0, data=[52, 50]),
   midi.NoteOnEvent(tick=0, channel=0, data=[55, 50]),
   midi.NoteOnEvent(tick=0, channel=0, data=[60, 59]),
   midi.NoteOnEvent(tick=480, channel=0, data=[60, 0]),
   midi.NoteOnEvent(tick=0, channel=0, data=[48, 0]),
   midi.NoteOnEvent(tick=0, channel=0, data=[52, 0]),
   midi.NoteOnEvent(tick=0, channel=0, data=[55, 0]),
   midi.NoteOnEvent(tick=960, channel=0, data=[48, 50]),
   midi.NoteOnEvent(tick=0, channel=0, data=[52, 50]),
   midi.NoteOnEvent(tick=0, channel=0, data=[55, 50]),
   midi.NoteOnEvent(tick=0, channel=0, data=[60, 59]),
   midi.NoteOnEvent(tick=480, channel=0, data=[60, 0]),
   midi.NoteOnEvent(tick=0, channel=0, data=[48, 0]),
   midi.NoteOnEvent(tick=0, channel=0, data=[52, 0]),
   midi.NoteOnEvent(tick=0, channel=0, data=[55, 0]),
   midi.NoteOnEvent(tick=960, channel=0, data=[52, 59]),
   midi.NoteOnEvent(tick=480, channel=0, data=[52, 0]),
   midi.NoteOnEvent(tick=0, channel=0, data=[55, 41]),
   midi.NoteOnEvent(tick=480, channel=0, data=[55, 0]),
   midi.NoteOnEvent(tick=0, channel=0, data=[43, 41]),
   midi.NoteOnEvent(tick=480, channel=0, data=[43, 0]),
   midi.NoteOnEvent(tick=0, channel=0, data=[48, 46]),
   midi.NoteOnEvent(tick=480, channel=0, data=[48, 0]),
   midi.NoteOnEvent(tick=0, channel=0, data=[43, 40]),
   midi.NoteOnEvent(tick=120, channel=0, data=[43, 0]),
   midi.NoteOnEvent(tick=360, channel=0, data=[36, 42]),
   midi.NoteOnEvent(tick=240, channel=0, data=[36, 0]),
   midi.ControlChangeEvent(tick=9653, channel=0, data=[64, 127]),
   midi.ControlChangeEvent(tick=427, channel=0, data=[64, 0]),
   midi.ControlChangeEvent(tick=11093, channel=0, data=[64, 127]),
   midi.ControlChangeEvent(tick=427, channel=0, data=[64, 0]),
   midi.ControlChangeEvent(tick=11093, channel=0, data=[64, 127]),
   midi.ControlChangeEvent(tick=427, channel=0, data=[64, 0]),
   midi.ControlChangeEvent(tick=11093, channel=0, data=[64, 127]),
   midi.ControlChangeEvent(tick=427, channel=0, data=[64, 0]),
   midi.ControlChangeEvent(tick=1525, channel=0, data=[64, 127]),
   midi.ControlChangeEvent(tick=403, channel=0, data=[64, 0]),
   midi.ControlChangeEvent(tick=133, channel=0, data=[64, 127]),
   midi.ControlChangeEvent(tick=351, channel=0, data=[64, 0]),
   midi.ControlChangeEvent(tick=115, channel=0, data=[64, 127]),
   midi.ControlChangeEvent(tick=374, channel=0, data=[64, 0]),
   midi.ControlChangeEvent(tick=1504, channel=0, data=[64, 127]),
   midi.ControlChangeEvent(tick=403, channel=0, data=[64, 0]),
   midi.ControlChangeEvent(tick=133, channel=0, data=[64, 127]),
   midi.ControlChangeEvent(tick=351, channel=0, data=[64, 0]),
   midi.ControlChangeEvent(tick=115, channel=0, data=[64, 127]),
   midi.ControlChangeEvent(tick=374, channel=0, data=[64, 0]),
   midi.ControlChangeEvent(tick=1497, channel=0, data=[64, 127]),
   midi.ControlChangeEvent(tick=1378, channel=0, data=[64, 0]),
   midi.ControlChangeEvent(tick=4389, channel=0, data=[64, 127]),
   midi.ControlChangeEvent(tick=403, channel=0, data=[64, 0]),
   midi.ControlChangeEvent(tick=133, channel=0, data=[64, 127]),
   midi.ControlChangeEvent(tick=351, channel=0, data=[64, 0]),
   midi.ControlChangeEvent(tick=115, channel=0, data=[64, 127]),
   midi.ControlChangeEvent(tick=374, channel=0, data=[64, 0]),
   midi.ControlChangeEvent(tick=1504, channel=0, data=[64, 127]),
   midi.ControlChangeEvent(tick=403, channel=0, data=[64, 0]),
   midi.ControlChangeEvent(tick=133, channel=0, data=[64, 127]),
   midi.ControlChangeEvent(tick=351, channel=0, data=[64, 0]),
   midi.ControlChangeEvent(tick=115, channel=0, data=[64, 127]),
   midi.ControlChangeEvent(tick=374, channel=0, data=[64, 0]),
   midi.ControlChangeEvent(tick=1497, channel=0, data=[64, 127]),
   midi.ControlChangeEvent(tick=1378, channel=0, data=[64, 0]),
   midi.ControlChangeEvent(tick=4389, channel=0, data=[64, 127]),
   midi.ControlChangeEvent(tick=403, channel=0, data=[64, 0]),
   midi.ControlChangeEvent(tick=133, channel=0, data=[64, 127]),
   midi.ControlChangeEvent(tick=351, channel=0, data=[64, 0]),
   midi.ControlChangeEvent(tick=115, channel=0, data=[64, 127]),
   midi.ControlChangeEvent(tick=353, channel=0, data=[64, 0]),
   midi.ControlChangeEvent(tick=1525, channel=0, data=[64, 127]),
   midi.ControlChangeEvent(tick=403, channel=0, data=[64, 0]),
   midi.ControlChangeEvent(tick=133, channel=0, data=[64, 127]),
   midi.ControlChangeEvent(tick=351, channel=0, data=[64, 0]),
   midi.ControlChangeEvent(tick=115, channel=0, data=[64, 127]),
   midi.ControlChangeEvent(tick=353, channel=0, data=[64, 0]),
   midi.ControlChangeEvent(tick=1525, channel=0, data=[64, 127]),
   midi.ControlChangeEvent(tick=403, channel=0, data=[64, 0]),
   midi.ControlChangeEvent(tick=133, channel=0, data=[64, 127]),
   midi.ControlChangeEvent(tick=351, channel=0, data=[64, 0]),
   midi.ControlChangeEvent(tick=115, channel=0, data=[64, 127]),
   midi.ControlChangeEvent(tick=374, channel=0, data=[64, 0]),
   midi.ControlChangeEvent(tick=1504, channel=0, data=[64, 127]),
   midi.ControlChangeEvent(tick=403, channel=0, data=[64, 0]),
   midi.ControlChangeEvent(tick=133, channel=0, data=[64, 127]),
   midi.ControlChangeEvent(tick=351, channel=0, data=[64, 0]),
   midi.ControlChangeEvent(tick=115, channel=0, data=[64, 127]),
   midi.ControlChangeEvent(tick=374, channel=0, data=[64, 0]),
   midi.ControlChangeEvent(tick=1497, channel=0, data=[64, 127]),
   midi.ControlChangeEvent(tick=1378, channel=0, data=[64, 0]),
   midi.ControlChangeEvent(tick=4389, channel=0, data=[64, 127]),
   midi.ControlChangeEvent(tick=403, channel=0, data=[64, 0]),
   midi.ControlChangeEvent(tick=133, channel=0, data=[64, 127]),
   midi.ControlChangeEvent(tick=351, channel=0, data=[64, 0]),
   midi.ControlChangeEvent(tick=115, channel=0, data=[64, 127]),
   midi.ControlChangeEvent(tick=353, channel=0, data=[64, 0]),
   midi.ControlChangeEvent(tick=1525, channel=0, data=[64, 127]),
   midi.ControlChangeEvent(tick=403, channel=0, data=[64, 0]),
   midi.ControlChangeEvent(tick=133, channel=0, data=[64, 127]),
   midi.ControlChangeEvent(tick=351, channel=0, data=[64, 0]),
   midi.ControlChangeEvent(tick=115, channel=0, data=[64, 127]),
   midi.ControlChangeEvent(tick=353, channel=0, data=[64, 0]),
   midi.ControlChangeEvent(tick=1525, channel=0, data=[64, 127]),
   midi.ControlChangeEvent(tick=403, channel=0, data=[64, 0]),
   midi.ControlChangeEvent(tick=133, channel=0, data=[64, 127]),
   midi.ControlChangeEvent(tick=351, channel=0, data=[64, 0]),
   midi.ControlChangeEvent(tick=115, channel=0, data=[64, 127]),
   midi.ControlChangeEvent(tick=374, channel=0, data=[64, 0]),
   midi.ControlChangeEvent(tick=1504, channel=0, data=[64, 127]),
   midi.ControlChangeEvent(tick=403, channel=0, data=[64, 0]),
   midi.ControlChangeEvent(tick=133, channel=0, data=[64, 127]),
   midi.ControlChangeEvent(tick=351, channel=0, data=[64, 0]),
   midi.ControlChangeEvent(tick=115, channel=0, data=[64, 127]),
   midi.ControlChangeEvent(tick=374, channel=0, data=[64, 0]),
   midi.ControlChangeEvent(tick=1497, channel=0, data=[64, 127]),
   midi.ControlChangeEvent(tick=1378, channel=0, data=[64, 0]),
   midi.ControlChangeEvent(tick=13957, channel=0, data=[64, 127]),
   midi.ControlChangeEvent(tick=427, channel=0, data=[64, 0]),
   midi.ControlChangeEvent(tick=11093, channel=0, data=[64, 127]),
   midi.ControlChangeEvent(tick=427, channel=0, data=[64, 0]),
   midi.EndOfTrackEvent(tick=0, data=[])])])
midi.write_midifile("creationMidi.mid", pattern)