import midi
pattern=midi.Pattern(format=1, resolution=480, tracks=\
[midi.Track(\
[   midi.ControlChangeEvent(tick=0, channel=0, data=[7, 127]),
   midi.ControlChangeEvent(tick=0, channel=0, data=[10, 64]),
   midi.ControlChangeEvent(tick=0, channel=0, data=[91, 127]),
   midi.NoteOnEvent(tick=1200, channel=0, data=[59, 46]),
   midi.NoteOnEvent(tick=0, channel=0, data=[62, 55]),
   midi.NoteOnEvent(tick=240, channel=0, data=[62, 0]),
   midi.NoteOnEvent(tick=0, channel=0, data=[59, 0]),
   midi.NoteOnEvent(tick=0, channel=0, data=[59, 49]),
   midi.NoteOnEvent(tick=0, channel=0, data=[62, 59]),
   midi.NoteOnEvent(tick=240, channel=0, data=[62, 0]),
   midi.NoteOnEvent(tick=0, channel=0, data=[59, 0]),
   midi.NoteOnEvent(tick=0, channel=0, data=[55, 55]),
   midi.NoteOnEvent(tick=240, channel=0, data=[55, 0]),
   midi.NoteOnEvent(tick=0, channel=0, data=[62, 50]),
   midi.NoteOnEvent(tick=0, channel=0, data=[67, 50]),
   midi.NoteOnEvent(tick=0, channel=0, data=[71, 59]),
   midi.NoteOnEvent(tick=228, channel=0, data=[71, 0]),
   midi.NoteOnEvent(tick=0, channel=0, data=[67, 0]),
   midi.NoteOnEvent(tick=0, channel=0, data=[62, 0]),
   midi.NoteOnEvent(tick=12, channel=0, data=[62, 52]),
   midi.NoteOnEvent(tick=0, channel=0, data=[67, 52]),
   midi.NoteOnEvent(tick=0, channel=0, data=[71, 63]),
   midi.NoteOnEvent(tick=720, channel=0, data=[71, 0]),
   midi.NoteOnEvent(tick=0, channel=0, data=[67, 0]),
   midi.NoteOnEvent(tick=0, channel=0, data=[62, 0]),
   midi.NoteOnEvent(tick=0, channel=0, data=[59, 41]),
   midi.NoteOnEvent(tick=0, channel=0, data=[67, 49]),
   midi.NoteOnEvent(tick=480, channel=0, data=[67, 0]),
   midi.NoteOnEvent(tick=0, channel=0, data=[59, 0]),
   midi.NoteOnEvent(tick=0, channel=0, data=[62, 48]),
   midi.NoteOnEvent(tick=0, channel=0, data=[71, 57]),
   midi.NoteOnEvent(tick=240, channel=0, data=[71, 0]),
   midi.NoteOnEvent(tick=0, channel=0, data=[62, 0]),
   midi.NoteOnEvent(tick=0, channel=0, data=[62, 49]),
   midi.NoteOnEvent(tick=0, channel=0, data=[71, 59]),
   midi.NoteOnEvent(tick=240, channel=0, data=[71, 0]),
   midi.NoteOnEvent(tick=0, channel=0, data=[62, 0]),
   midi.NoteOnEvent(tick=0, channel=0, data=[59, 46]),
   midi.NoteOnEvent(tick=0, channel=0, data=[67, 55]),
   midi.NoteOnEvent(tick=240, channel=0, data=[67, 0]),
   midi.NoteOnEvent(tick=0, channel=0, data=[59, 0]),
   midi.NoteOnEvent(tick=0, channel=0, data=[71, 52]),
   midi.NoteOnEvent(tick=0, channel=0, data=[74, 52]),
   midi.NoteOnEvent(tick=0, channel=0, data=[79, 63]),
   midi.NoteOnEvent(tick=228, channel=0, data=[79, 0]),
   midi.NoteOnEvent(tick=0, channel=0, data=[74, 0]),
   midi.NoteOnEvent(tick=0, channel=0, data=[71, 0]),
   midi.NoteOnEvent(tick=12, channel=0, data=[71, 54]),
   midi.NoteOnEvent(tick=0, channel=0, data=[74, 54]),
   midi.NoteOnEvent(tick=0, channel=0, data=[79, 65]),
   midi.NoteOnEvent(tick=720, channel=0, data=[79, 0]),
   midi.NoteOnEvent(tick=0, channel=0, data=[74, 0]),
   midi.NoteOnEvent(tick=0, channel=0, data=[71, 0]),
   midi.NoteOnEvent(tick=0, channel=0, data=[67, 41]),
   midi.NoteOnEvent(tick=0, channel=0, data=[71, 41]),
   midi.NoteOnEvent(tick=0, channel=0, data=[74, 49]),
   midi.NoteOnEvent(tick=480, channel=0, data=[74, 0]),
   midi.NoteOnEvent(tick=0, channel=0, data=[71, 0]),
   midi.NoteOnEvent(tick=0, channel=0, data=[67, 0]),
   midi.NoteOnEvent(tick=0, channel=0, data=[79, 65]),
   midi.NoteOnEvent(tick=0, channel=0, data=[86, 77]),
   midi.NoteOnEvent(tick=240, channel=0, data=[86, 0]),
   midi.NoteOnEvent(tick=0, channel=0, data=[79, 0]),
   midi.NoteOnEvent(tick=0, channel=0, data=[79, 70]),
   midi.NoteOnEvent(tick=0, channel=0, data=[86, 82]),
   midi.NoteOnEvent(tick=240, channel=0, data=[86, 0]),
   midi.NoteOnEvent(tick=0, channel=0, data=[79, 0]),
   midi.NoteOnEvent(tick=0, channel=0, data=[74, 61]),
   midi.NoteOnEvent(tick=0, channel=0, data=[83, 73]),
   midi.NoteOnEvent(tick=240, channel=0, data=[83, 0]),
   midi.NoteOnEvent(tick=0, channel=0, data=[74, 0]),
   midi.NoteOnEvent(tick=0, channel=0, data=[71, 61]),
   midi.NoteOnEvent(tick=0, channel=0, data=[79, 73]),
   midi.NoteOnEvent(tick=228, channel=0, data=[79, 0]),
   midi.NoteOnEvent(tick=0, channel=0, data=[71, 0]),
   midi.NoteOnEvent(tick=12, channel=0, data=[71, 63]),
   midi.NoteOnEvent(tick=0, channel=0, data=[79, 76]),
   midi.NoteOnEvent(tick=240, channel=0, data=[79, 0]),
   midi.NoteOnEvent(tick=0, channel=0, data=[71, 0]),
   midi.NoteOnEvent(tick=0, channel=0, data=[67, 55]),
   midi.NoteOnEvent(tick=0, channel=0, data=[74, 66]),
   midi.NoteOnEvent(tick=240, channel=0, data=[74, 0]),
   midi.NoteOnEvent(tick=0, channel=0, data=[67, 0]),
   midi.NoteOnEvent(tick=0, channel=0, data=[62, 55]),
   midi.NoteOnEvent(tick=0, channel=0, data=[71, 66]),
   midi.NoteOnEvent(tick=240, channel=0, data=[71, 0]),
   midi.NoteOnEvent(tick=0, channel=0, data=[62, 0]),
   midi.NoteOnEvent(tick=0, channel=0, data=[67, 61]),
   midi.NoteOnEvent(tick=0, channel=0, data=[74, 73]),
   midi.NoteOnEvent(tick=720, channel=0, data=[74, 0]),
   midi.NoteOnEvent(tick=0, channel=0, data=[67, 0]),
   midi.NoteOnEvent(tick=0, channel=0, data=[60, 38]),
   midi.NoteOnEvent(tick=0, channel=0, data=[62, 38]),
   midi.NoteOnEvent(tick=0, channel=0, data=[66, 38]),
   midi.NoteOnEvent(tick=0, channel=0, data=[69, 45]),
   midi.NoteOnEvent(tick=480, channel=0, data=[69, 0]),
   midi.NoteOnEvent(tick=0, channel=0, data=[60, 0]),
   midi.NoteOnEvent(tick=0, channel=0, data=[62, 0]),
   midi.NoteOnEvent(tick=0, channel=0, data=[66, 0]),
   midi.NoteOnEvent(tick=0, channel=0, data=[71, 44]),
   midi.NoteOnEvent(tick=240, channel=0, data=[71, 0]),
   midi.NoteOnEvent(tick=0, channel=0, data=[59, 33]),
   midi.NoteOnEvent(tick=0, channel=0, data=[62, 36]),
   midi.NoteOnEvent(tick=0, channel=0, data=[67, 43]),
   midi.NoteOnEvent(tick=1200, channel=0, data=[67, 0]),
   midi.NoteOnEvent(tick=0, channel=0, data=[62, 0]),
   midi.NoteOnEvent(tick=0, channel=0, data=[59, 0]),
   midi.NoteOnEvent(tick=0, channel=0, data=[62, 54]),
   midi.NoteOnEvent(tick=240, channel=0, data=[62, 0]),
   midi.NoteOnEvent(tick=0, channel=0, data=[62, 48]),
   midi.NoteOnEvent(tick=0, channel=0, data=[67, 57]),
   midi.NoteOnEvent(tick=480, channel=0, data=[67, 0]),
   midi.NoteOnEvent(tick=0, channel=0, data=[62, 0]),
   midi.NoteOnEvent(tick=0, channel=0, data=[62, 48]),
   midi.NoteOnEvent(tick=0, channel=0, data=[66, 57]),
   midi.NoteOnEvent(tick=240, channel=0, data=[66, 0]),
   midi.NoteOnEvent(tick=0, channel=0, data=[62, 0]),
   midi.NoteOnEvent(tick=0, channel=0, data=[62, 48]),
   midi.NoteOnEvent(tick=0, channel=0, data=[69, 57]),
   midi.NoteOnEvent(tick=1200, channel=0, data=[69, 0]),
   midi.NoteOnEvent(tick=0, channel=0, data=[62, 0]),
   midi.NoteOnEvent(tick=0, channel=0, data=[67, 57]),
   midi.NoteOnEvent(tick=240, channel=0, data=[67, 0]),
   midi.NoteOnEvent(tick=0, channel=0, data=[67, 52]),
   midi.NoteOnEvent(tick=0, channel=0, data=[72, 61]),
   midi.NoteOnEvent(tick=480, channel=0, data=[72, 0]),
   midi.NoteOnEvent(tick=0, channel=0, data=[67, 0]),
   midi.NoteOnEvent(tick=0, channel=0, data=[67, 48]),
   midi.NoteOnEvent(tick=0, channel=0, data=[71, 57]),
   midi.NoteOnEvent(tick=240, channel=0, data=[71, 0]),
   midi.NoteOnEvent(tick=0, channel=0, data=[67, 0]),
   midi.NoteOnEvent(tick=0, channel=0, data=[64, 51]),
   midi.NoteOnEvent(tick=0, channel=0, data=[67, 51]),
   midi.NoteOnEvent(tick=0, channel=0, data=[76, 60]),
   midi.NoteOnEvent(tick=1200, channel=0, data=[76, 0]),
   midi.NoteOnEvent(tick=0, channel=0, data=[67, 0]),
   midi.NoteOnEvent(tick=0, channel=0, data=[64, 0]),
   midi.NoteOnEvent(tick=0, channel=0, data=[67, 54]),
   midi.NoteOnEvent(tick=0, channel=0, data=[74, 65]),
   midi.NoteOnEvent(tick=228, channel=0, data=[74, 0]),
   midi.NoteOnEvent(tick=0, channel=0, data=[67, 0]),
   midi.NoteOnEvent(tick=12, channel=0, data=[67, 58]),
   midi.NoteOnEvent(tick=0, channel=0, data=[74, 69]),
   midi.NoteOnEvent(tick=480, channel=0, data=[74, 0]),
   midi.NoteOnEvent(tick=0, channel=0, data=[67, 0]),
   midi.NoteOnEvent(tick=0, channel=0, data=[66, 54]),
   midi.NoteOnEvent(tick=0, channel=0, data=[74, 65]),
   midi.NoteOnEvent(tick=240, channel=0, data=[74, 0]),
   midi.NoteOnEvent(tick=0, channel=0, data=[66, 0]),
   midi.NoteOnEvent(tick=0, channel=0, data=[67, 59]),
   midi.NoteOnEvent(tick=0, channel=0, data=[79, 69]),
   midi.NoteOnEvent(tick=480, channel=0, data=[79, 0]),
   midi.NoteOnEvent(tick=0, channel=0, data=[74, 64]),
   midi.NoteOnEvent(tick=240, channel=0, data=[74, 0]),
   midi.NoteOnEvent(tick=0, channel=0, data=[71, 64]),
   midi.NoteOnEvent(tick=480, channel=0, data=[71, 0]),
   midi.NoteOnEvent(tick=0, channel=0, data=[67, 0]),
   midi.NoteOnEvent(tick=0, channel=0, data=[62, 45]),
   midi.NoteOnEvent(tick=0, channel=0, data=[67, 53]),
   midi.NoteOnEvent(tick=180, channel=0, data=[67, 0]),
   midi.NoteOnEvent(tick=0, channel=0, data=[62, 0]),
   midi.NoteOnEvent(tick=0, channel=0, data=[69, 51]),
   midi.NoteOnEvent(tick=60, channel=0, data=[69, 0]),
   midi.NoteOnEvent(tick=0, channel=0, data=[61, 47]),
   midi.NoteOnEvent(tick=0, channel=0, data=[67, 55]),
   midi.NoteOnEvent(tick=240, channel=0, data=[67, 0]),
   midi.NoteOnEvent(tick=0, channel=0, data=[66, 52]),
   midi.NoteOnEvent(tick=240, channel=0, data=[66, 0]),
   midi.NoteOnEvent(tick=0, channel=0, data=[61, 0]),
   midi.NoteOnEvent(tick=0, channel=0, data=[61, 37]),
   midi.NoteOnEvent(tick=0, channel=0, data=[67, 45]),
   midi.NoteOnEvent(tick=240, channel=0, data=[67, 0]),
   midi.NoteOnEvent(tick=0, channel=0, data=[61, 0]),
   midi.NoteOnEvent(tick=0, channel=0, data=[62, 42]),
   midi.NoteOnEvent(tick=0, channel=0, data=[71, 49]),
   midi.NoteOnEvent(tick=720, channel=0, data=[71, 0]),
   midi.NoteOnEvent(tick=0, channel=0, data=[69, 46]),
   midi.NoteOnEvent(tick=480, channel=0, data=[69, 0]),
   midi.NoteOnEvent(tick=0, channel=0, data=[62, 0]),
   midi.NoteOnEvent(tick=0, channel=0, data=[60, 39]),
   midi.NoteOnEvent(tick=0, channel=0, data=[62, 54]),
   midi.NoteOnEvent(tick=240, channel=0, data=[62, 0]),
   midi.NoteOnEvent(tick=0, channel=0, data=[60, 0]),
   midi.NoteOnEvent(tick=0, channel=0, data=[59, 48]),
   midi.NoteOnEvent(tick=0, channel=0, data=[62, 48]),
   midi.NoteOnEvent(tick=0, channel=0, data=[67, 57]),
   midi.NoteOnEvent(tick=480, channel=0, data=[67, 0]),
   midi.NoteOnEvent(tick=0, channel=0, data=[62, 0]),
   midi.NoteOnEvent(tick=0, channel=0, data=[59, 0]),
   midi.NoteOnEvent(tick=0, channel=0, data=[57, 48]),
   midi.NoteOnEvent(tick=0, channel=0, data=[62, 48]),
   midi.NoteOnEvent(tick=0, channel=0, data=[66, 57]),
   midi.NoteOnEvent(tick=240, channel=0, data=[66, 0]),
   midi.NoteOnEvent(tick=0, channel=0, data=[62, 0]),
   midi.NoteOnEvent(tick=0, channel=0, data=[57, 0]),
   midi.NoteOnEvent(tick=0, channel=0, data=[60, 48]),
   midi.NoteOnEvent(tick=0, channel=0, data=[62, 48]),
   midi.NoteOnEvent(tick=0, channel=0, data=[69, 57]),
   midi.NoteOnEvent(tick=1200, channel=0, data=[69, 0]),
   midi.NoteOnEvent(tick=0, channel=0, data=[62, 0]),
   midi.NoteOnEvent(tick=0, channel=0, data=[60, 0]),
   midi.NoteOnEvent(tick=0, channel=0, data=[59, 53]),
   midi.NoteOnEvent(tick=0, channel=0, data=[62, 53]),
   midi.NoteOnEvent(tick=0, channel=0, data=[67, 65]),
   midi.NoteOnEvent(tick=240, channel=0, data=[67, 0]),
   midi.NoteOnEvent(tick=0, channel=0, data=[62, 0]),
   midi.NoteOnEvent(tick=0, channel=0, data=[59, 0]),
   midi.NoteOnEvent(tick=0, channel=0, data=[60, 59]),
   midi.NoteOnEvent(tick=0, channel=0, data=[67, 59]),
   midi.NoteOnEvent(tick=0, channel=0, data=[72, 70]),
   midi.NoteOnEvent(tick=480, channel=0, data=[72, 0]),
   midi.NoteOnEvent(tick=0, channel=0, data=[67, 0]),
   midi.NoteOnEvent(tick=0, channel=0, data=[60, 0]),
   midi.NoteOnEvent(tick=0, channel=0, data=[59, 54]),
   midi.NoteOnEvent(tick=0, channel=0, data=[67, 54]),
   midi.NoteOnEvent(tick=0, channel=0, data=[71, 65]),
   midi.NoteOnEvent(tick=240, channel=0, data=[71, 0]),
   midi.NoteOnEvent(tick=0, channel=0, data=[67, 0]),
   midi.NoteOnEvent(tick=0, channel=0, data=[59, 0]),
   midi.NoteOnEvent(tick=0, channel=0, data=[64, 58]),
   midi.NoteOnEvent(tick=0, channel=0, data=[67, 58]),
   midi.NoteOnEvent(tick=0, channel=0, data=[76, 69]),
   midi.NoteOnEvent(tick=1200, channel=0, data=[76, 0]),
   midi.NoteOnEvent(tick=0, channel=0, data=[67, 0]),
   midi.NoteOnEvent(tick=0, channel=0, data=[64, 0]),
   midi.NoteOnEvent(tick=0, channel=0, data=[62, 61]),
   midi.NoteOnEvent(tick=0, channel=0, data=[67, 61]),
   midi.NoteOnEvent(tick=0, channel=0, data=[74, 74]),
   midi.NoteOnEvent(tick=240, channel=0, data=[74, 0]),
   midi.NoteOnEvent(tick=0, channel=0, data=[67, 0]),
   midi.NoteOnEvent(tick=0, channel=0, data=[62, 0]),
   midi.NoteOnEvent(tick=0, channel=0, data=[74, 66]),
   midi.NoteOnEvent(tick=0, channel=0, data=[67, 66]),
   midi.NoteOnEvent(tick=0, channel=0, data=[79, 78]),
   midi.NoteOnEvent(tick=480, channel=0, data=[79, 0]),
   midi.NoteOnEvent(tick=0, channel=0, data=[67, 0]),
   midi.NoteOnEvent(tick=0, channel=0, data=[74, 0]),
   midi.NoteOnEvent(tick=0, channel=0, data=[72, 61]),
   midi.NoteOnEvent(tick=0, channel=0, data=[67, 61]),
   midi.NoteOnEvent(tick=0, channel=0, data=[79, 74]),
   midi.NoteOnEvent(tick=240, channel=0, data=[79, 0]),
   midi.NoteOnEvent(tick=0, channel=0, data=[67, 0]),
   midi.NoteOnEvent(tick=0, channel=0, data=[72, 0]),
   midi.NoteOnEvent(tick=0, channel=0, data=[71, 67]),
   midi.NoteOnEvent(tick=0, channel=0, data=[79, 78]),
   midi.NoteOnEvent(tick=480, channel=0, data=[79, 0]),
   midi.NoteOnEvent(tick=0, channel=0, data=[71, 0]),
   midi.NoteOnEvent(tick=0, channel=0, data=[67, 57]),
   midi.NoteOnEvent(tick=0, channel=0, data=[71, 57]),
   midi.NoteOnEvent(tick=0, channel=0, data=[74, 69]),
   midi.NoteOnEvent(tick=240, channel=0, data=[74, 0]),
   midi.NoteOnEvent(tick=0, channel=0, data=[71, 0]),
   midi.NoteOnEvent(tick=0, channel=0, data=[67, 0]),
   midi.NoteOnEvent(tick=0, channel=0, data=[62, 57]),
   midi.NoteOnEvent(tick=0, channel=0, data=[67, 57]),
   midi.NoteOnEvent(tick=0, channel=0, data=[71, 69]),
   midi.NoteOnEvent(tick=480, channel=0, data=[71, 0]),
   midi.NoteOnEvent(tick=0, channel=0, data=[67, 0]),
   midi.NoteOnEvent(tick=0, channel=0, data=[62, 0]),
   midi.NoteOnEvent(tick=0, channel=0, data=[62, 40]),
   midi.NoteOnEvent(tick=0, channel=0, data=[67, 40]),
   midi.NoteOnEvent(tick=0, channel=0, data=[71, 47]),
   midi.NoteOnEvent(tick=240, channel=0, data=[71, 0]),
   midi.NoteOnEvent(tick=0, channel=0, data=[67, 0]),
   midi.NoteOnEvent(tick=0, channel=0, data=[62, 0]),
   midi.NoteOnEvent(tick=0, channel=0, data=[66, 42]),
   midi.NoteOnEvent(tick=0, channel=0, data=[62, 42]),
   midi.NoteOnEvent(tick=0, channel=0, data=[60, 42]),
   midi.NoteOnEvent(tick=0, channel=0, data=[72, 49]),
   midi.NoteOnEvent(tick=480, channel=0, data=[72, 0]),
   midi.NoteOnEvent(tick=0, channel=0, data=[69, 45]),
   midi.NoteOnEvent(tick=240, channel=0, data=[69, 0]),
   midi.NoteOnEvent(tick=0, channel=0, data=[60, 0]),
   midi.NoteOnEvent(tick=0, channel=0, data=[62, 0]),
   midi.NoteOnEvent(tick=0, channel=0, data=[66, 0]),
   midi.NoteOnEvent(tick=0, channel=0, data=[59, 38]),
   midi.NoteOnEvent(tick=0, channel=0, data=[62, 42]),
   midi.NoteOnEvent(tick=0, channel=0, data=[67, 49]),
   midi.NoteOnEvent(tick=720, channel=0, data=[67, 0]),
   midi.NoteOnEvent(tick=0, channel=0, data=[62, 0]),
   midi.NoteOnEvent(tick=0, channel=0, data=[59, 0]),
   midi.NoteOnEvent(tick=480, channel=0, data=[59, 34]),
   midi.NoteOnEvent(tick=0, channel=0, data=[62, 34]),
   midi.NoteOnEvent(tick=0, channel=0, data=[67, 41]),
   midi.NoteOnEvent(tick=240, channel=0, data=[67, 0]),
   midi.NoteOnEvent(tick=0, channel=0, data=[62, 0]),
   midi.NoteOnEvent(tick=0, channel=0, data=[59, 0]),
   midi.NoteOnEvent(tick=0, channel=0, data=[57, 39]),
   midi.NoteOnEvent(tick=0, channel=0, data=[62, 39]),
   midi.NoteOnEvent(tick=0, channel=0, data=[66, 46]),
   midi.NoteOnEvent(tick=480, channel=0, data=[66, 0]),
   midi.NoteOnEvent(tick=0, channel=0, data=[62, 0]),
   midi.NoteOnEvent(tick=0, channel=0, data=[57, 0]),
   midi.NoteOnEvent(tick=0, channel=0, data=[59, 34]),
   midi.NoteOnEvent(tick=0, channel=0, data=[62, 34]),
   midi.NoteOnEvent(tick=0, channel=0, data=[67, 41]),
   midi.NoteOnEvent(tick=240, channel=0, data=[67, 0]),
   midi.NoteOnEvent(tick=0, channel=0, data=[62, 0]),
   midi.NoteOnEvent(tick=0, channel=0, data=[59, 0]),
   midi.NoteOnEvent(tick=0, channel=0, data=[62, 39]),
   midi.NoteOnEvent(tick=0, channel=0, data=[71, 46]),
   midi.NoteOnEvent(tick=480, channel=0, data=[71, 0]),
   midi.NoteOnEvent(tick=0, channel=0, data=[60, 34]),
   midi.NoteOnEvent(tick=0, channel=0, data=[69, 41]),
   midi.NoteOnEvent(tick=240, channel=0, data=[69, 0]),
   midi.NoteOnEvent(tick=0, channel=0, data=[60, 0]),
   midi.NoteOnEvent(tick=0, channel=0, data=[57, 34]),
   midi.NoteOnEvent(tick=0, channel=0, data=[66, 41]),
   midi.NoteOnEvent(tick=1200, channel=0, data=[66, 0]),
   midi.NoteOnEvent(tick=0, channel=0, data=[57, 0]),
   midi.NoteOnEvent(tick=0, channel=0, data=[62, 0]),
   midi.NoteOnEvent(tick=0, channel=0, data=[59, 36]),
   midi.NoteOnEvent(tick=0, channel=0, data=[62, 36]),
   midi.NoteOnEvent(tick=0, channel=0, data=[67, 43]),
   midi.NoteOnEvent(tick=240, channel=0, data=[67, 0]),
   midi.NoteOnEvent(tick=0, channel=0, data=[62, 0]),
   midi.NoteOnEvent(tick=0, channel=0, data=[59, 0]),
   midi.NoteOnEvent(tick=0, channel=0, data=[62, 38]),
   midi.NoteOnEvent(tick=0, channel=0, data=[71, 45]),
   midi.NoteOnEvent(tick=480, channel=0, data=[71, 0]),
   midi.NoteOnEvent(tick=0, channel=0, data=[60, 34]),
   midi.NoteOnEvent(tick=0, channel=0, data=[69, 41]),
   midi.NoteOnEvent(tick=240, channel=0, data=[69, 0]),
   midi.NoteOnEvent(tick=0, channel=0, data=[60, 0]),
   midi.NoteOnEvent(tick=0, channel=0, data=[57, 34]),
   midi.NoteOnEvent(tick=0, channel=0, data=[66, 41]),
   midi.NoteOnEvent(tick=1200, channel=0, data=[66, 0]),
   midi.NoteOnEvent(tick=0, channel=0, data=[57, 0]),
   midi.NoteOnEvent(tick=0, channel=0, data=[62, 0]),
   midi.NoteOnEvent(tick=0, channel=0, data=[59, 48]),
   midi.NoteOnEvent(tick=0, channel=0, data=[62, 48]),
   midi.NoteOnEvent(tick=0, channel=0, data=[67, 57]),
   midi.NoteOnEvent(tick=240, channel=0, data=[67, 0]),
   midi.NoteOnEvent(tick=0, channel=0, data=[62, 0]),
   midi.NoteOnEvent(tick=0, channel=0, data=[59, 0]),
   midi.NoteOnEvent(tick=0, channel=0, data=[65, 56]),
   midi.NoteOnEvent(tick=0, channel=0, data=[74, 66]),
   midi.NoteOnEvent(tick=480, channel=0, data=[74, 0]),
   midi.NoteOnEvent(tick=0, channel=0, data=[65, 0]),
   midi.NoteOnEvent(tick=0, channel=0, data=[65, 57]),
   midi.NoteOnEvent(tick=0, channel=0, data=[74, 67]),
   midi.NoteOnEvent(tick=240, channel=0, data=[74, 0]),
   midi.NoteOnEvent(tick=0, channel=0, data=[65, 0]),
   midi.NoteOnEvent(tick=0, channel=0, data=[64, 57]),
   midi.NoteOnEvent(tick=0, channel=0, data=[65, 62]),
   midi.NoteOnEvent(tick=0, channel=0, data=[72, 69]),
   midi.NoteOnEvent(tick=480, channel=0, data=[72, 0]),
   midi.NoteOnEvent(tick=0, channel=0, data=[65, 0]),
   midi.NoteOnEvent(tick=0, channel=0, data=[64, 0]),
   midi.NoteOnEvent(tick=0, channel=0, data=[62, 54]),
   midi.NoteOnEvent(tick=0, channel=0, data=[65, 54]),
   midi.NoteOnEvent(tick=0, channel=0, data=[71, 64]),
   midi.NoteOnEvent(tick=240, channel=0, data=[71, 0]),
   midi.NoteOnEvent(tick=0, channel=0, data=[65, 0]),
   midi.NoteOnEvent(tick=0, channel=0, data=[62, 0]),
   midi.NoteOnEvent(tick=0, channel=0, data=[60, 47]),
   midi.NoteOnEvent(tick=0, channel=0, data=[64, 47]),
   midi.NoteOnEvent(tick=0, channel=0, data=[69, 56]),
   midi.NoteOnEvent(tick=480, channel=0, data=[69, 0]),
   midi.NoteOnEvent(tick=0, channel=0, data=[64, 0]),
   midi.NoteOnEvent(tick=0, channel=0, data=[60, 0]),
   midi.NoteOnEvent(tick=0, channel=0, data=[59, 38]),
   midi.NoteOnEvent(tick=0, channel=0, data=[62, 38]),
   midi.NoteOnEvent(tick=0, channel=0, data=[64, 38]),
   midi.NoteOnEvent(tick=0, channel=0, data=[68, 45]),
   midi.NoteOnEvent(tick=228, channel=0, data=[68, 0]),
   midi.NoteOnEvent(tick=0, channel=0, data=[59, 0]),
   midi.NoteOnEvent(tick=0, channel=0, data=[62, 0]),
   midi.NoteOnEvent(tick=0, channel=0, data=[64, 0]),
   midi.NoteOnEvent(tick=12, channel=0, data=[59, 39]),
   midi.NoteOnEvent(tick=0, channel=0, data=[62, 39]),
   midi.NoteOnEvent(tick=0, channel=0, data=[64, 39]),
   midi.NoteOnEvent(tick=0, channel=0, data=[68, 46]),
   midi.NoteOnEvent(tick=720, channel=0, data=[68, 0]),
   midi.NoteOnEvent(tick=0, channel=0, data=[59, 0]),
   midi.NoteOnEvent(tick=0, channel=0, data=[62, 0]),
   midi.NoteOnEvent(tick=0, channel=0, data=[60, 34]),
   midi.NoteOnEvent(tick=0, channel=0, data=[69, 41]),
   midi.NoteOnEvent(tick=480, channel=0, data=[69, 0]),
   midi.NoteOnEvent(tick=0, channel=0, data=[60, 0]),
   midi.NoteOnEvent(tick=0, channel=0, data=[64, 0]),
   midi.NoteOnEvent(tick=0, channel=0, data=[64, 34]),
   midi.NoteOnEvent(tick=0, channel=0, data=[72, 41]),
   midi.NoteOnEvent(tick=240, channel=0, data=[72, 0]),
   midi.NoteOnEvent(tick=0, channel=0, data=[64, 0]),
   midi.NoteOnEvent(tick=0, channel=0, data=[62, 39]),
   midi.NoteOnEvent(tick=0, channel=0, data=[71, 46]),
   midi.NoteOnEvent(tick=480, channel=0, data=[71, 0]),
   midi.NoteOnEvent(tick=0, channel=0, data=[62, 0]),
   midi.NoteOnEvent(tick=0, channel=0, data=[64, 34]),
   midi.NoteOnEvent(tick=0, channel=0, data=[72, 41]),
   midi.NoteOnEvent(tick=240, channel=0, data=[72, 0]),
   midi.NoteOnEvent(tick=0, channel=0, data=[64, 0]),
   midi.NoteOnEvent(tick=0, channel=0, data=[67, 39]),
   midi.NoteOnEvent(tick=0, channel=0, data=[76, 46]),
   midi.NoteOnEvent(tick=480, channel=0, data=[76, 0]),
   midi.NoteOnEvent(tick=0, channel=0, data=[65, 34]),
   midi.NoteOnEvent(tick=0, channel=0, data=[74, 41]),
   midi.NoteOnEvent(tick=240, channel=0, data=[74, 0]),
   midi.NoteOnEvent(tick=0, channel=0, data=[65, 0]),
   midi.NoteOnEvent(tick=0, channel=0, data=[62, 35]),
   midi.NoteOnEvent(tick=0, channel=0, data=[71, 42]),
   midi.NoteOnEvent(tick=480, channel=0, data=[67, 0]),
   midi.NoteOnEvent(tick=0, channel=0, data=[67, 39]),
   midi.NoteOnEvent(tick=240, channel=0, data=[67, 0]),
   midi.NoteOnEvent(tick=0, channel=0, data=[67, 44]),
   midi.NoteOnEvent(tick=480, channel=0, data=[67, 0]),
   midi.NoteOnEvent(tick=0, channel=0, data=[71, 0]),
   midi.NoteOnEvent(tick=0, channel=0, data=[62, 0]),
   midi.NoteOnEvent(tick=0, channel=0, data=[64, 40]),
   midi.NoteOnEvent(tick=0, channel=0, data=[67, 40]),
   midi.NoteOnEvent(tick=0, channel=0, data=[72, 48]),
   midi.NoteOnEvent(tick=240, channel=0, data=[72, 0]),
   midi.NoteOnEvent(tick=0, channel=0, data=[67, 0]),
   midi.NoteOnEvent(tick=0, channel=0, data=[64, 0]),
   midi.NoteOnEvent(tick=0, channel=0, data=[67, 44]),
   midi.NoteOnEvent(tick=0, channel=0, data=[76, 52]),
   midi.NoteOnEvent(tick=480, channel=0, data=[76, 0]),
   midi.NoteOnEvent(tick=0, channel=0, data=[65, 41]),
   midi.NoteOnEvent(tick=0, channel=0, data=[74, 49]),
   midi.NoteOnEvent(tick=240, channel=0, data=[74, 0]),
   midi.NoteOnEvent(tick=0, channel=0, data=[65, 0]),
   midi.NoteOnEvent(tick=0, channel=0, data=[62, 41]),
   midi.NoteOnEvent(tick=0, channel=0, data=[71, 50]),
   midi.NoteOnEvent(tick=480, channel=0, data=[67, 0]),
   midi.NoteOnEvent(tick=0, channel=0, data=[67, 48]),
   midi.NoteOnEvent(tick=240, channel=0, data=[67, 0]),
   midi.NoteOnEvent(tick=0, channel=0, data=[67, 54]),
   midi.NoteOnEvent(tick=480, channel=0, data=[67, 0]),
   midi.NoteOnEvent(tick=0, channel=0, data=[71, 0]),
   midi.NoteOnEvent(tick=0, channel=0, data=[62, 0]),
   midi.NoteOnEvent(tick=0, channel=0, data=[64, 64]),
   midi.NoteOnEvent(tick=0, channel=0, data=[67, 64]),
   midi.NoteOnEvent(tick=0, channel=0, data=[72, 76]),
   midi.NoteOnEvent(tick=240, channel=0, data=[72, 0]),
   midi.NoteOnEvent(tick=0, channel=0, data=[67, 0]),
   midi.NoteOnEvent(tick=0, channel=0, data=[64, 0]),
   midi.NoteOnEvent(tick=0, channel=0, data=[76, 66]),
   midi.NoteOnEvent(tick=0, channel=0, data=[79, 77]),
   midi.NoteOnEvent(tick=480, channel=0, data=[79, 0]),
   midi.NoteOnEvent(tick=0, channel=0, data=[76, 0]),
   midi.NoteOnEvent(tick=0, channel=0, data=[74, 67]),
   midi.NoteOnEvent(tick=0, channel=0, data=[78, 78]),
   midi.NoteOnEvent(tick=240, channel=0, data=[78, 0]),
   midi.NoteOnEvent(tick=0, channel=0, data=[74, 0]),
   midi.NoteOnEvent(tick=0, channel=0, data=[72, 69]),
   midi.NoteOnEvent(tick=0, channel=0, data=[76, 76]),
   midi.NoteOnEvent(tick=480, channel=0, data=[76, 0]),
   midi.NoteOnEvent(tick=0, channel=0, data=[72, 0]),
   midi.NoteOnEvent(tick=0, channel=0, data=[71, 61]),
   midi.NoteOnEvent(tick=0, channel=0, data=[74, 74]),
   midi.NoteOnEvent(tick=240, channel=0, data=[74, 0]),
   midi.NoteOnEvent(tick=0, channel=0, data=[71, 0]),
   midi.NoteOnEvent(tick=0, channel=0, data=[69, 58]),
   midi.NoteOnEvent(tick=0, channel=0, data=[72, 70]),
   midi.NoteOnEvent(tick=480, channel=0, data=[72, 0]),
   midi.NoteOnEvent(tick=0, channel=0, data=[69, 0]),
   midi.NoteOnEvent(tick=0, channel=0, data=[67, 39]),
   midi.NoteOnEvent(tick=0, channel=0, data=[71, 47]),
   midi.NoteOnEvent(tick=240, channel=0, data=[71, 0]),
   midi.NoteOnEvent(tick=0, channel=0, data=[67, 0]),
   midi.NoteOnEvent(tick=0, channel=0, data=[71, 39]),
   midi.NoteOnEvent(tick=0, channel=0, data=[74, 46]),
   midi.NoteOnEvent(tick=720, channel=0, data=[74, 0]),
   midi.NoteOnEvent(tick=0, channel=0, data=[71, 0]),
   midi.NoteOnEvent(tick=0, channel=0, data=[66, 34]),
   midi.NoteOnEvent(tick=0, channel=0, data=[69, 41]),
   midi.NoteOnEvent(tick=480, channel=0, data=[69, 0]),
   midi.NoteOnEvent(tick=0, channel=0, data=[66, 0]),
   midi.NoteOnEvent(tick=0, channel=0, data=[60, 39]),
   midi.NoteOnEvent(tick=0, channel=0, data=[62, 54]),
   midi.NoteOnEvent(tick=240, channel=0, data=[62, 0]),
   midi.NoteOnEvent(tick=0, channel=0, data=[60, 0]),
   midi.NoteOnEvent(tick=0, channel=0, data=[59, 48]),
   midi.NoteOnEvent(tick=0, channel=0, data=[62, 48]),
   midi.NoteOnEvent(tick=0, channel=0, data=[67, 57]),
   midi.NoteOnEvent(tick=480, channel=0, data=[67, 0]),
   midi.NoteOnEvent(tick=0, channel=0, data=[62, 0]),
   midi.NoteOnEvent(tick=0, channel=0, data=[59, 0]),
   midi.NoteOnEvent(tick=0, channel=0, data=[57, 48]),
   midi.NoteOnEvent(tick=0, channel=0, data=[62, 48]),
   midi.NoteOnEvent(tick=0, channel=0, data=[66, 57]),
   midi.NoteOnEvent(tick=240, channel=0, data=[66, 0]),
   midi.NoteOnEvent(tick=0, channel=0, data=[62, 0]),
   midi.NoteOnEvent(tick=0, channel=0, data=[57, 0]),
   midi.NoteOnEvent(tick=0, channel=0, data=[60, 48]),
   midi.NoteOnEvent(tick=0, channel=0, data=[62, 48]),
   midi.NoteOnEvent(tick=0, channel=0, data=[69, 57]),
   midi.NoteOnEvent(tick=1200, channel=0, data=[69, 0]),
   midi.NoteOnEvent(tick=0, channel=0, data=[62, 0]),
   midi.NoteOnEvent(tick=0, channel=0, data=[60, 0]),
   midi.NoteOnEvent(tick=0, channel=0, data=[59, 51]),
   midi.NoteOnEvent(tick=0, channel=0, data=[62, 51]),
   midi.NoteOnEvent(tick=0, channel=0, data=[67, 62]),
   midi.NoteOnEvent(tick=240, channel=0, data=[67, 0]),
   midi.NoteOnEvent(tick=0, channel=0, data=[62, 0]),
   midi.NoteOnEvent(tick=0, channel=0, data=[59, 0]),
   midi.NoteOnEvent(tick=0, channel=0, data=[64, 57]),
   midi.NoteOnEvent(tick=0, channel=0, data=[67, 57]),
   midi.NoteOnEvent(tick=0, channel=0, data=[72, 67]),
   midi.NoteOnEvent(tick=480, channel=0, data=[72, 0]),
   midi.NoteOnEvent(tick=0, channel=0, data=[67, 0]),
   midi.NoteOnEvent(tick=0, channel=0, data=[64, 0]),
   midi.NoteOnEvent(tick=0, channel=0, data=[62, 52]),
   midi.NoteOnEvent(tick=0, channel=0, data=[67, 52]),
   midi.NoteOnEvent(tick=0, channel=0, data=[71, 62]),
   midi.NoteOnEvent(tick=240, channel=0, data=[71, 0]),
   midi.NoteOnEvent(tick=0, channel=0, data=[67, 0]),
   midi.NoteOnEvent(tick=0, channel=0, data=[62, 0]),
   midi.NoteOnEvent(tick=0, channel=0, data=[64, 56]),
   midi.NoteOnEvent(tick=0, channel=0, data=[67, 56]),
   midi.NoteOnEvent(tick=0, channel=0, data=[76, 66]),
   midi.NoteOnEvent(tick=1200, channel=0, data=[76, 0]),
   midi.NoteOnEvent(tick=0, channel=0, data=[67, 0]),
   midi.NoteOnEvent(tick=0, channel=0, data=[64, 0]),
   midi.NoteOnEvent(tick=0, channel=0, data=[67, 54]),
   midi.NoteOnEvent(tick=0, channel=0, data=[74, 65]),
   midi.NoteOnEvent(tick=240, channel=0, data=[74, 0]),
   midi.NoteOnEvent(tick=0, channel=0, data=[67, 0]),
   midi.NoteOnEvent(tick=0, channel=0, data=[67, 58]),
   midi.NoteOnEvent(tick=0, channel=0, data=[64, 58]),
   midi.NoteOnEvent(tick=0, channel=0, data=[74, 69]),
   midi.NoteOnEvent(tick=480, channel=0, data=[74, 0]),
   midi.NoteOnEvent(tick=0, channel=0, data=[64, 0]),
   midi.NoteOnEvent(tick=0, channel=0, data=[67, 0]),
   midi.NoteOnEvent(tick=0, channel=0, data=[66, 54]),
   midi.NoteOnEvent(tick=0, channel=0, data=[74, 65]),
   midi.NoteOnEvent(tick=240, channel=0, data=[74, 0]),
   midi.NoteOnEvent(tick=0, channel=0, data=[66, 0]),
   midi.NoteOnEvent(tick=0, channel=0, data=[67, 59]),
   midi.NoteOnEvent(tick=0, channel=0, data=[79, 74]),
   midi.NoteOnEvent(tick=480, channel=0, data=[79, 0]),
   midi.NoteOnEvent(tick=0, channel=0, data=[74, 64]),
   midi.NoteOnEvent(tick=240, channel=0, data=[74, 0]),
   midi.NoteOnEvent(tick=0, channel=0, data=[71, 64]),
   midi.NoteOnEvent(tick=480, channel=0, data=[71, 0]),
   midi.NoteOnEvent(tick=0, channel=0, data=[67, 0]),
   midi.NoteOnEvent(tick=0, channel=0, data=[62, 45]),
   midi.NoteOnEvent(tick=0, channel=0, data=[67, 53]),
   midi.NoteOnEvent(tick=180, channel=0, data=[67, 0]),
   midi.NoteOnEvent(tick=0, channel=0, data=[62, 0]),
   midi.NoteOnEvent(tick=0, channel=0, data=[69, 49]),
   midi.NoteOnEvent(tick=60, channel=0, data=[69, 0]),
   midi.NoteOnEvent(tick=0, channel=0, data=[61, 44]),
   midi.NoteOnEvent(tick=0, channel=0, data=[67, 52]),
   midi.NoteOnEvent(tick=240, channel=0, data=[67, 0]),
   midi.NoteOnEvent(tick=0, channel=0, data=[66, 49]),
   midi.NoteOnEvent(tick=240, channel=0, data=[66, 0]),
   midi.NoteOnEvent(tick=0, channel=0, data=[61, 0]),
   midi.NoteOnEvent(tick=0, channel=0, data=[61, 39]),
   midi.NoteOnEvent(tick=0, channel=0, data=[67, 47]),
   midi.NoteOnEvent(tick=240, channel=0, data=[67, 0]),
   midi.NoteOnEvent(tick=0, channel=0, data=[61, 0]),
   midi.NoteOnEvent(tick=0, channel=0, data=[62, 44]),
   midi.NoteOnEvent(tick=0, channel=0, data=[71, 50]),
   midi.NoteOnEvent(tick=720, channel=0, data=[71, 0]),
   midi.NoteOnEvent(tick=0, channel=0, data=[69, 49]),
   midi.NoteOnEvent(tick=480, channel=0, data=[69, 0]),
   midi.NoteOnEvent(tick=0, channel=0, data=[62, 0]),
   midi.NoteOnEvent(tick=0, channel=0, data=[62, 44]),
   midi.NoteOnEvent(tick=0, channel=0, data=[69, 52]),
   midi.NoteOnEvent(tick=240, channel=0, data=[69, 0]),
   midi.NoteOnEvent(tick=0, channel=0, data=[62, 0]),
   midi.NoteOnEvent(tick=0, channel=0, data=[62, 47]),
   midi.NoteOnEvent(tick=0, channel=0, data=[71, 56]),
   midi.NoteOnEvent(tick=480, channel=0, data=[71, 0]),
   midi.NoteOnEvent(tick=0, channel=0, data=[62, 0]),
   midi.NoteOnEvent(tick=0, channel=0, data=[62, 45]),
   midi.NoteOnEvent(tick=0, channel=0, data=[72, 57]),
   midi.NoteOnEvent(tick=240, channel=0, data=[72, 0]),
   midi.NoteOnEvent(tick=0, channel=0, data=[62, 0]),
   midi.NoteOnEvent(tick=0, channel=0, data=[62, 49]),
   midi.NoteOnEvent(tick=0, channel=0, data=[76, 61]),
   midi.NoteOnEvent(tick=480, channel=0, data=[76, 0]),
   midi.NoteOnEvent(tick=0, channel=0, data=[74, 53]),
   midi.NoteOnEvent(tick=240, channel=0, data=[74, 0]),
   midi.NoteOnEvent(tick=0, channel=0, data=[71, 53]),
   midi.NoteOnEvent(tick=480, channel=0, data=[71, 0]),
   midi.NoteOnEvent(tick=0, channel=0, data=[62, 0]),
   midi.NoteOnEvent(tick=0, channel=0, data=[62, 46]),
   midi.NoteOnEvent(tick=0, channel=0, data=[69, 54]),
   midi.NoteOnEvent(tick=240, channel=0, data=[69, 0]),
   midi.NoteOnEvent(tick=0, channel=0, data=[62, 0]),
   midi.NoteOnEvent(tick=0, channel=0, data=[62, 49]),
   midi.NoteOnEvent(tick=0, channel=0, data=[71, 58]),
   midi.NoteOnEvent(tick=480, channel=0, data=[71, 0]),
   midi.NoteOnEvent(tick=0, channel=0, data=[62, 0]),
   midi.NoteOnEvent(tick=0, channel=0, data=[62, 47]),
   midi.NoteOnEvent(tick=0, channel=0, data=[72, 59]),
   midi.NoteOnEvent(tick=240, channel=0, data=[72, 0]),
   midi.NoteOnEvent(tick=0, channel=0, data=[62, 0]),
   midi.NoteOnEvent(tick=0, channel=0, data=[62, 51]),
   midi.NoteOnEvent(tick=0, channel=0, data=[76, 64]),
   midi.NoteOnEvent(tick=480, channel=0, data=[76, 0]),
   midi.NoteOnEvent(tick=0, channel=0, data=[74, 55]),
   midi.NoteOnEvent(tick=240, channel=0, data=[74, 0]),
   midi.NoteOnEvent(tick=0, channel=0, data=[71, 55]),
   midi.NoteOnEvent(tick=480, channel=0, data=[71, 0]),
   midi.NoteOnEvent(tick=0, channel=0, data=[62, 0]),
   midi.NoteOnEvent(tick=0, channel=0, data=[67, 71]),
   midi.NoteOnEvent(tick=240, channel=0, data=[67, 0]),
   midi.NoteOnEvent(tick=0, channel=0, data=[69, 63]),
   midi.NoteOnEvent(tick=0, channel=0, data=[76, 68]),
   midi.NoteOnEvent(tick=0, channel=0, data=[67, 63]),
   midi.NoteOnEvent(tick=0, channel=0, data=[79, 78]),
   midi.NoteOnEvent(tick=480, channel=0, data=[79, 0]),
   midi.NoteOnEvent(tick=0, channel=0, data=[69, 0]),
   midi.NoteOnEvent(tick=0, channel=0, data=[76, 0]),
   midi.NoteOnEvent(tick=0, channel=0, data=[67, 0]),
   midi.NoteOnEvent(tick=0, channel=0, data=[69, 58]),
   midi.NoteOnEvent(tick=0, channel=0, data=[76, 64]),
   midi.NoteOnEvent(tick=0, channel=0, data=[67, 58]),
   midi.NoteOnEvent(tick=0, channel=0, data=[79, 75]),
   midi.NoteOnEvent(tick=240, channel=0, data=[79, 0]),
   midi.NoteOnEvent(tick=0, channel=0, data=[69, 0]),
   midi.NoteOnEvent(tick=0, channel=0, data=[76, 0]),
   midi.NoteOnEvent(tick=0, channel=0, data=[67, 0]),
   midi.NoteOnEvent(tick=0, channel=0, data=[67, 64]),
   midi.NoteOnEvent(tick=0, channel=0, data=[74, 69]),
   midi.NoteOnEvent(tick=0, channel=0, data=[79, 80]),
   midi.NoteOnEvent(tick=720, channel=0, data=[79, 0]),
   midi.NoteOnEvent(tick=0, channel=0, data=[74, 0]),
   midi.NoteOnEvent(tick=0, channel=0, data=[67, 0]),
   midi.NoteOnEvent(tick=0, channel=0, data=[71, 55]),
   midi.NoteOnEvent(tick=0, channel=0, data=[74, 67]),
   midi.NoteOnEvent(tick=480, channel=0, data=[74, 0]),
   midi.NoteOnEvent(tick=0, channel=0, data=[71, 0]),
   midi.NoteOnEvent(tick=0, channel=0, data=[67, 45]),
   midi.NoteOnEvent(tick=0, channel=0, data=[71, 53]),
   midi.NoteOnEvent(tick=240, channel=0, data=[71, 0]),
   midi.NoteOnEvent(tick=0, channel=0, data=[67, 0]),
   midi.NoteOnEvent(tick=0, channel=0, data=[66, 47]),
   midi.NoteOnEvent(tick=0, channel=0, data=[72, 55]),
   midi.NoteOnEvent(tick=240, channel=0, data=[72, 0]),
   midi.NoteOnEvent(tick=0, channel=0, data=[76, 50]),
   midi.NoteOnEvent(tick=240, channel=0, data=[76, 0]),
   midi.NoteOnEvent(tick=0, channel=0, data=[74, 50]),
   midi.NoteOnEvent(tick=240, channel=0, data=[74, 0]),
   midi.NoteOnEvent(tick=0, channel=0, data=[66, 0]),
   midi.NoteOnEvent(tick=0, channel=0, data=[66, 47]),
   midi.NoteOnEvent(tick=0, channel=0, data=[72, 55]),
   midi.NoteOnEvent(tick=720, channel=0, data=[72, 0]),
   midi.NoteOnEvent(tick=0, channel=0, data=[66, 0]),
   midi.NoteOnEvent(tick=0, channel=0, data=[67, 46]),
   midi.NoteOnEvent(tick=0, channel=0, data=[71, 53]),
   midi.NoteOnEvent(tick=480, channel=0, data=[71, 0]),
   midi.NoteOnEvent(tick=0, channel=0, data=[67, 0]),
   midi.NoteOnEvent(tick=0, channel=0, data=[62, 44]),
   midi.NoteOnEvent(tick=0, channel=0, data=[69, 52]),
   midi.NoteOnEvent(tick=228, channel=0, data=[69, 0]),
   midi.NoteOnEvent(tick=0, channel=0, data=[62, 0]),
   midi.NoteOnEvent(tick=12, channel=0, data=[62, 47]),
   midi.NoteOnEvent(tick=0, channel=0, data=[69, 56]),
   midi.NoteOnEvent(tick=240, channel=0, data=[69, 0]),
   midi.NoteOnEvent(tick=0, channel=0, data=[62, 0]),
   midi.NoteOnEvent(tick=0, channel=0, data=[62, 47]),
   midi.NoteOnEvent(tick=0, channel=0, data=[71, 56]),
   midi.NoteOnEvent(tick=240, channel=0, data=[71, 0]),
   midi.NoteOnEvent(tick=0, channel=0, data=[62, 0]),
   midi.NoteOnEvent(tick=0, channel=0, data=[62, 45]),
   midi.NoteOnEvent(tick=0, channel=0, data=[72, 57]),
   midi.NoteOnEvent(tick=240, channel=0, data=[72, 0]),
   midi.NoteOnEvent(tick=0, channel=0, data=[62, 0]),
   midi.NoteOnEvent(tick=0, channel=0, data=[62, 51]),
   midi.NoteOnEvent(tick=0, channel=0, data=[76, 64]),
   midi.NoteOnEvent(tick=480, channel=0, data=[76, 0]),
   midi.NoteOnEvent(tick=0, channel=0, data=[74, 55]),
   midi.NoteOnEvent(tick=240, channel=0, data=[74, 0]),
   midi.NoteOnEvent(tick=0, channel=0, data=[71, 55]),
   midi.NoteOnEvent(tick=240, channel=0, data=[71, 0]),
   midi.NoteOnEvent(tick=0, channel=0, data=[62, 0]),
   midi.NoteOnEvent(tick=0, channel=0, data=[62, 44]),
   midi.NoteOnEvent(tick=0, channel=0, data=[69, 54]),
   midi.NoteOnEvent(tick=240, channel=0, data=[69, 0]),
   midi.NoteOnEvent(tick=0, channel=0, data=[62, 0]),
   midi.NoteOnEvent(tick=0, channel=0, data=[62, 45]),
   midi.NoteOnEvent(tick=0, channel=0, data=[68, 56]),
   midi.NoteOnEvent(tick=240, channel=0, data=[68, 0]),
   midi.NoteOnEvent(tick=0, channel=0, data=[62, 0]),
   midi.NoteOnEvent(tick=0, channel=0, data=[62, 51]),
   midi.NoteOnEvent(tick=0, channel=0, data=[69, 60]),
   midi.NoteOnEvent(tick=240, channel=0, data=[69, 0]),
   midi.NoteOnEvent(tick=0, channel=0, data=[62, 0]),
   midi.NoteOnEvent(tick=0, channel=0, data=[62, 51]),
   midi.NoteOnEvent(tick=0, channel=0, data=[71, 60]),
   midi.NoteOnEvent(tick=240, channel=0, data=[71, 0]),
   midi.NoteOnEvent(tick=0, channel=0, data=[62, 0]),
   midi.NoteOnEvent(tick=0, channel=0, data=[62, 49]),
   midi.NoteOnEvent(tick=0, channel=0, data=[72, 61]),
   midi.NoteOnEvent(tick=240, channel=0, data=[72, 0]),
   midi.NoteOnEvent(tick=0, channel=0, data=[62, 0]),
   midi.NoteOnEvent(tick=0, channel=0, data=[62, 53]),
   midi.NoteOnEvent(tick=0, channel=0, data=[76, 67]),
   midi.NoteOnEvent(tick=480, channel=0, data=[76, 0]),
   midi.NoteOnEvent(tick=0, channel=0, data=[74, 57]),
   midi.NoteOnEvent(tick=240, channel=0, data=[74, 0]),
   midi.NoteOnEvent(tick=0, channel=0, data=[71, 57]),
   midi.NoteOnEvent(tick=480, channel=0, data=[71, 0]),
   midi.NoteOnEvent(tick=0, channel=0, data=[62, 0]),
   midi.NoteOnEvent(tick=0, channel=0, data=[67, 71]),
   midi.NoteOnEvent(tick=240, channel=0, data=[67, 0]),
   midi.NoteOnEvent(tick=0, channel=0, data=[69, 63]),
   midi.NoteOnEvent(tick=0, channel=0, data=[76, 68]),
   midi.NoteOnEvent(tick=0, channel=0, data=[67, 63]),
   midi.NoteOnEvent(tick=0, channel=0, data=[79, 78]),
   midi.NoteOnEvent(tick=480, channel=0, data=[79, 0]),
   midi.NoteOnEvent(tick=0, channel=0, data=[69, 0]),
   midi.NoteOnEvent(tick=0, channel=0, data=[76, 0]),
   midi.NoteOnEvent(tick=0, channel=0, data=[67, 0]),
   midi.NoteOnEvent(tick=0, channel=0, data=[69, 58]),
   midi.NoteOnEvent(tick=0, channel=0, data=[76, 64]),
   midi.NoteOnEvent(tick=0, channel=0, data=[67, 58]),
   midi.NoteOnEvent(tick=0, channel=0, data=[79, 75]),
   midi.NoteOnEvent(tick=240, channel=0, data=[79, 0]),
   midi.NoteOnEvent(tick=0, channel=0, data=[69, 0]),
   midi.NoteOnEvent(tick=0, channel=0, data=[76, 0]),
   midi.NoteOnEvent(tick=0, channel=0, data=[67, 0]),
   midi.NoteOnEvent(tick=0, channel=0, data=[67, 64]),
   midi.NoteOnEvent(tick=0, channel=0, data=[71, 69]),
   midi.NoteOnEvent(tick=0, channel=0, data=[79, 80]),
   midi.NoteOnEvent(tick=720, channel=0, data=[79, 0]),
   midi.NoteOnEvent(tick=0, channel=0, data=[71, 0]),
   midi.NoteOnEvent(tick=0, channel=0, data=[67, 0]),
   midi.NoteOnEvent(tick=0, channel=0, data=[71, 57]),
   midi.NoteOnEvent(tick=0, channel=0, data=[74, 70]),
   midi.NoteOnEvent(tick=480, channel=0, data=[74, 0]),
   midi.NoteOnEvent(tick=0, channel=0, data=[71, 0]),
   midi.NoteOnEvent(tick=0, channel=0, data=[83, 72]),
   midi.NoteOnEvent(tick=240, channel=0, data=[83, 0]),
   midi.NoteOnEvent(tick=0, channel=0, data=[79, 70]),
   midi.NoteOnEvent(tick=480, channel=0, data=[79, 0]),
   midi.NoteOnEvent(tick=0, channel=0, data=[74, 68]),
   midi.NoteOnEvent(tick=0, channel=0, data=[78, 68]),
   midi.NoteOnEvent(tick=240, channel=0, data=[78, 0]),
   midi.NoteOnEvent(tick=0, channel=0, data=[74, 0]),
   midi.NoteOnEvent(tick=0, channel=0, data=[72, 66]),
   midi.NoteOnEvent(tick=0, channel=0, data=[76, 66]),
   midi.NoteOnEvent(tick=480, channel=0, data=[76, 0]),
   midi.NoteOnEvent(tick=0, channel=0, data=[72, 0]),
   midi.NoteOnEvent(tick=0, channel=0, data=[71, 64]),
   midi.NoteOnEvent(tick=0, channel=0, data=[74, 64]),
   midi.NoteOnEvent(tick=240, channel=0, data=[74, 0]),
   midi.NoteOnEvent(tick=0, channel=0, data=[71, 0]),
   midi.NoteOnEvent(tick=0, channel=0, data=[67, 60]),
   midi.NoteOnEvent(tick=0, channel=0, data=[72, 60]),
   midi.NoteOnEvent(tick=480, channel=0, data=[72, 0]),
   midi.NoteOnEvent(tick=0, channel=0, data=[67, 0]),
   midi.NoteOnEvent(tick=0, channel=0, data=[67, 61]),
   midi.NoteOnEvent(tick=0, channel=0, data=[71, 61]),
   midi.NoteOnEvent(tick=240, channel=0, data=[71, 0]),
   midi.NoteOnEvent(tick=0, channel=0, data=[67, 0]),
   midi.NoteOnEvent(tick=0, channel=0, data=[64, 58]),
   midi.NoteOnEvent(tick=0, channel=0, data=[67, 58]),
   midi.NoteOnEvent(tick=0, channel=0, data=[69, 58]),
   midi.NoteOnEvent(tick=480, channel=0, data=[69, 0]),
   midi.NoteOnEvent(tick=0, channel=0, data=[67, 0]),
   midi.NoteOnEvent(tick=0, channel=0, data=[64, 0]),
   midi.NoteOnEvent(tick=0, channel=0, data=[76, 58]),
   midi.NoteOnEvent(tick=228, channel=0, data=[76, 0]),
   midi.NoteOnEvent(tick=12, channel=0, data=[76, 58]),
   midi.NoteOnEvent(tick=720, channel=0, data=[76, 0]),
   midi.NoteOnEvent(tick=0, channel=0, data=[69, 52]),
   midi.NoteOnEvent(tick=480, channel=0, data=[69, 0]),
   midi.NoteOnEvent(tick=240, channel=0, data=[72, 52]),
   midi.NoteOnEvent(tick=0, channel=0, data=[66, 44]),
   midi.NoteOnEvent(tick=480, channel=0, data=[66, 0]),
   midi.NoteOnEvent(tick=0, channel=0, data=[72, 0]),
   midi.NoteOnEvent(tick=0, channel=0, data=[66, 41]),
   midi.NoteOnEvent(tick=0, channel=0, data=[71, 49]),
   midi.NoteOnEvent(tick=240, channel=0, data=[71, 0]),
   midi.NoteOnEvent(tick=0, channel=0, data=[66, 0]),
   midi.NoteOnEvent(tick=0, channel=0, data=[66, 41]),
   midi.NoteOnEvent(tick=0, channel=0, data=[69, 49]),
   midi.NoteOnEvent(tick=1200, channel=0, data=[66, 0]),
   midi.NoteOnEvent(tick=0, channel=0, data=[59, 46]),
   midi.NoteOnEvent(tick=0, channel=0, data=[62, 55]),
   midi.NoteOnEvent(tick=240, channel=0, data=[62, 0]),
   midi.NoteOnEvent(tick=0, channel=0, data=[59, 0]),
   midi.NoteOnEvent(tick=0, channel=0, data=[69, 0]),
   midi.NoteOnEvent(tick=0, channel=0, data=[67, 60]),
   midi.NoteOnEvent(tick=0, channel=0, data=[59, 49]),
   midi.NoteOnEvent(tick=0, channel=0, data=[62, 59]),
   midi.NoteOnEvent(tick=240, channel=0, data=[62, 0]),
   midi.NoteOnEvent(tick=0, channel=0, data=[59, 0]),
   midi.NoteOnEvent(tick=0, channel=0, data=[55, 55]),
   midi.NoteOnEvent(tick=240, channel=0, data=[55, 0]),
   midi.NoteOnEvent(tick=0, channel=0, data=[67, 0]),
   midi.NoteOnEvent(tick=0, channel=0, data=[62, 50]),
   midi.NoteOnEvent(tick=0, channel=0, data=[67, 50]),
   midi.NoteOnEvent(tick=0, channel=0, data=[71, 59]),
   midi.NoteOnEvent(tick=228, channel=0, data=[71, 0]),
   midi.NoteOnEvent(tick=0, channel=0, data=[67, 0]),
   midi.NoteOnEvent(tick=0, channel=0, data=[62, 0]),
   midi.NoteOnEvent(tick=12, channel=0, data=[62, 52]),
   midi.NoteOnEvent(tick=0, channel=0, data=[67, 52]),
   midi.NoteOnEvent(tick=0, channel=0, data=[71, 63]),
   midi.NoteOnEvent(tick=720, channel=0, data=[71, 0]),
   midi.NoteOnEvent(tick=0, channel=0, data=[67, 0]),
   midi.NoteOnEvent(tick=0, channel=0, data=[62, 0]),
   midi.NoteOnEvent(tick=0, channel=0, data=[59, 41]),
   midi.NoteOnEvent(tick=0, channel=0, data=[67, 49]),
   midi.NoteOnEvent(tick=480, channel=0, data=[67, 0]),
   midi.NoteOnEvent(tick=0, channel=0, data=[59, 0]),
   midi.NoteOnEvent(tick=0, channel=0, data=[62, 52]),
   midi.NoteOnEvent(tick=0, channel=0, data=[71, 62]),
   midi.NoteOnEvent(tick=240, channel=0, data=[71, 0]),
   midi.NoteOnEvent(tick=0, channel=0, data=[62, 0]),
   midi.NoteOnEvent(tick=0, channel=0, data=[62, 53]),
   midi.NoteOnEvent(tick=0, channel=0, data=[71, 64]),
   midi.NoteOnEvent(tick=240, channel=0, data=[71, 0]),
   midi.NoteOnEvent(tick=0, channel=0, data=[62, 0]),
   midi.NoteOnEvent(tick=0, channel=0, data=[59, 50]),
   midi.NoteOnEvent(tick=0, channel=0, data=[67, 60]),
   midi.NoteOnEvent(tick=240, channel=0, data=[67, 0]),
   midi.NoteOnEvent(tick=0, channel=0, data=[59, 0]),
   midi.NoteOnEvent(tick=0, channel=0, data=[71, 57]),
   midi.NoteOnEvent(tick=0, channel=0, data=[74, 57]),
   midi.NoteOnEvent(tick=0, channel=0, data=[79, 69]),
   midi.NoteOnEvent(tick=228, channel=0, data=[79, 0]),
   midi.NoteOnEvent(tick=0, channel=0, data=[74, 0]),
   midi.NoteOnEvent(tick=0, channel=0, data=[71, 0]),
   midi.NoteOnEvent(tick=12, channel=0, data=[71, 59]),
   midi.NoteOnEvent(tick=0, channel=0, data=[74, 59]),
   midi.NoteOnEvent(tick=0, channel=0, data=[79, 71]),
   midi.NoteOnEvent(tick=720, channel=0, data=[79, 0]),
   midi.NoteOnEvent(tick=0, channel=0, data=[74, 0]),
   midi.NoteOnEvent(tick=0, channel=0, data=[71, 0]),
   midi.NoteOnEvent(tick=0, channel=0, data=[67, 45]),
   midi.NoteOnEvent(tick=0, channel=0, data=[71, 45]),
   midi.NoteOnEvent(tick=0, channel=0, data=[74, 54]),
   midi.NoteOnEvent(tick=480, channel=0, data=[74, 0]),
   midi.NoteOnEvent(tick=0, channel=0, data=[71, 0]),
   midi.NoteOnEvent(tick=0, channel=0, data=[67, 0]),
   midi.NoteOnEvent(tick=0, channel=0, data=[79, 65]),
   midi.NoteOnEvent(tick=0, channel=0, data=[86, 77]),
   midi.NoteOnEvent(tick=240, channel=0, data=[86, 0]),
   midi.NoteOnEvent(tick=0, channel=0, data=[79, 0]),
   midi.NoteOnEvent(tick=0, channel=0, data=[79, 70]),
   midi.NoteOnEvent(tick=0, channel=0, data=[86, 82]),
   midi.NoteOnEvent(tick=240, channel=0, data=[86, 0]),
   midi.NoteOnEvent(tick=0, channel=0, data=[79, 0]),
   midi.NoteOnEvent(tick=0, channel=0, data=[74, 61]),
   midi.NoteOnEvent(tick=0, channel=0, data=[83, 73]),
   midi.NoteOnEvent(tick=240, channel=0, data=[83, 0]),
   midi.NoteOnEvent(tick=0, channel=0, data=[74, 0]),
   midi.NoteOnEvent(tick=0, channel=0, data=[71, 61]),
   midi.NoteOnEvent(tick=0, channel=0, data=[79, 73]),
   midi.NoteOnEvent(tick=228, channel=0, data=[79, 0]),
   midi.NoteOnEvent(tick=0, channel=0, data=[71, 0]),
   midi.NoteOnEvent(tick=12, channel=0, data=[71, 63]),
   midi.NoteOnEvent(tick=0, channel=0, data=[79, 76]),
   midi.NoteOnEvent(tick=240, channel=0, data=[79, 0]),
   midi.NoteOnEvent(tick=0, channel=0, data=[71, 0]),
   midi.NoteOnEvent(tick=0, channel=0, data=[67, 55]),
   midi.NoteOnEvent(tick=0, channel=0, data=[74, 66]),
   midi.NoteOnEvent(tick=240, channel=0, data=[74, 0]),
   midi.NoteOnEvent(tick=0, channel=0, data=[67, 0]),
   midi.NoteOnEvent(tick=0, channel=0, data=[62, 55]),
   midi.NoteOnEvent(tick=0, channel=0, data=[71, 66]),
   midi.NoteOnEvent(tick=240, channel=0, data=[71, 0]),
   midi.NoteOnEvent(tick=0, channel=0, data=[62, 0]),
   midi.NoteOnEvent(tick=0, channel=0, data=[67, 61]),
   midi.NoteOnEvent(tick=0, channel=0, data=[74, 73]),
   midi.NoteOnEvent(tick=720, channel=0, data=[74, 0]),
   midi.NoteOnEvent(tick=0, channel=0, data=[67, 0]),
   midi.NoteOnEvent(tick=0, channel=0, data=[60, 38]),
   midi.NoteOnEvent(tick=0, channel=0, data=[62, 38]),
   midi.NoteOnEvent(tick=0, channel=0, data=[66, 38]),
   midi.NoteOnEvent(tick=0, channel=0, data=[69, 45]),
   midi.NoteOnEvent(tick=480, channel=0, data=[69, 0]),
   midi.NoteOnEvent(tick=0, channel=0, data=[60, 0]),
   midi.NoteOnEvent(tick=0, channel=0, data=[62, 0]),
   midi.NoteOnEvent(tick=0, channel=0, data=[66, 0]),
   midi.NoteOnEvent(tick=0, channel=0, data=[71, 44]),
   midi.NoteOnEvent(tick=240, channel=0, data=[71, 0]),
   midi.NoteOnEvent(tick=0, channel=0, data=[59, 36]),
   midi.NoteOnEvent(tick=0, channel=0, data=[62, 36]),
   midi.NoteOnEvent(tick=0, channel=0, data=[67, 43]),
   midi.NoteOnEvent(tick=1200, channel=0, data=[67, 0]),
   midi.NoteOnEvent(tick=0, channel=0, data=[62, 0]),
   midi.NoteOnEvent(tick=0, channel=0, data=[59, 0]),
   midi.EndOfTrackEvent(tick=0, data=[])]),
 midi.Track(\
[    midi.ControlChangeEvent(tick=0, channel=0, data=[7, 127]),
   midi.ControlChangeEvent(tick=0, channel=0, data=[10, 64]),
   midi.ControlChangeEvent(tick=0, channel=0, data=[64, 0]),
   midi.NoteOnEvent(tick=1440, channel=0, data=[31, 34]),
   midi.NoteOnEvent(tick=0, channel=0, data=[43, 40]),
   midi.ControlChangeEvent(tick=14, channel=0, data=[64, 127]),
   midi.NoteOnEvent(tick=466, channel=0, data=[43, 0]),
   midi.NoteOnEvent(tick=0, channel=0, data=[31, 0]),
   midi.NoteOnEvent(tick=240, channel=0, data=[31, 35]),
   midi.NoteOnEvent(tick=0, channel=0, data=[43, 42]),
   midi.NoteOnEvent(tick=1200, channel=0, data=[43, 0]),
   midi.NoteOnEvent(tick=0, channel=0, data=[31, 0]),
   midi.NoteOnEvent(tick=240, channel=0, data=[31, 34]),
   midi.NoteOnEvent(tick=0, channel=0, data=[43, 40]),
   midi.NoteOnEvent(tick=480, channel=0, data=[43, 0]),
   midi.NoteOnEvent(tick=0, channel=0, data=[31, 0]),
   midi.NoteOnEvent(tick=240, channel=0, data=[31, 40]),
   midi.NoteOnEvent(tick=0, channel=0, data=[43, 48]),
   midi.NoteOnEvent(tick=1200, channel=0, data=[43, 0]),
   midi.NoteOnEvent(tick=0, channel=0, data=[31, 0]),
   midi.NoteOnEvent(tick=0, channel=0, data=[71, 53]),
   midi.NoteOnEvent(tick=240, channel=0, data=[71, 0]),
   midi.NoteOnEvent(tick=0, channel=0, data=[71, 56]),
   midi.NoteOnEvent(tick=240, channel=0, data=[71, 0]),
   midi.NoteOnEvent(tick=0, channel=0, data=[67, 52]),
   midi.NoteOnEvent(tick=240, channel=0, data=[67, 0]),
   midi.NoteOnEvent(tick=0, channel=0, data=[62, 52]),
   midi.NoteOnEvent(tick=240, channel=0, data=[62, 0]),
   midi.NoteOnEvent(tick=0, channel=0, data=[62, 57]),
   midi.NoteOnEvent(tick=240, channel=0, data=[62, 0]),
   midi.NoteOnEvent(tick=0, channel=0, data=[59, 51]),
   midi.NoteOnEvent(tick=240, channel=0, data=[59, 0]),
   midi.NoteOnEvent(tick=0, channel=0, data=[55, 51]),
   midi.NoteOnEvent(tick=240, channel=0, data=[55, 0]),
   midi.NoteOnEvent(tick=0, channel=0, data=[50, 46]),
   midi.NoteOnEvent(tick=0, channel=0, data=[59, 54]),
   midi.NoteOnEvent(tick=720, channel=0, data=[59, 0]),
   midi.NoteOnEvent(tick=0, channel=0, data=[50, 0]),
   midi.NoteOnEvent(tick=0, channel=0, data=[38, 32]),
   midi.NoteOnEvent(tick=0, channel=0, data=[50, 38]),
   midi.ControlChangeEvent(tick=10, channel=0, data=[64, 0]),
   midi.ControlChangeEvent(tick=131, channel=0, data=[64, 127]),
   midi.NoteOnEvent(tick=339, channel=0, data=[50, 0]),
   midi.NoteOnEvent(tick=0, channel=0, data=[38, 0]),
   midi.NoteOnEvent(tick=240, channel=0, data=[31, 28]),
   midi.NoteOnEvent(tick=0, channel=0, data=[43, 33]),
   midi.ControlChangeEvent(tick=8, channel=0, data=[64, 0]),
   midi.ControlChangeEvent(tick=218, channel=0, data=[64, 127]),
   midi.NoteOnEvent(tick=254, channel=0, data=[43, 0]),
   midi.NoteOnEvent(tick=0, channel=0, data=[31, 0]),
   midi.ControlChangeEvent(tick=579, channel=0, data=[64, 0]),
   midi.NoteOnEvent(tick=141, channel=0, data=[50, 39]),
   midi.NoteOnEvent(tick=240, channel=0, data=[50, 0]),
   midi.NoteOnEvent(tick=0, channel=0, data=[47, 35]),
   midi.NoteOnEvent(tick=0, channel=0, data=[50, 35]),
   midi.NoteOnEvent(tick=0, channel=0, data=[55, 43]),
   midi.ControlChangeEvent(tick=28, channel=0, data=[64, 127]),
   midi.NoteOnEvent(tick=452, channel=0, data=[55, 0]),
   midi.NoteOnEvent(tick=0, channel=0, data=[50, 0]),
   midi.NoteOnEvent(tick=0, channel=0, data=[47, 0]),
   midi.NoteOnEvent(tick=0, channel=0, data=[45, 32]),
   midi.NoteOnEvent(tick=0, channel=0, data=[50, 32]),
   midi.NoteOnEvent(tick=0, channel=0, data=[54, 38]),
   midi.ControlChangeEvent(tick=10, channel=0, data=[64, 0]),
   midi.NoteOnEvent(tick=230, channel=0, data=[54, 0]),
   midi.NoteOnEvent(tick=0, channel=0, data=[50, 0]),
   midi.NoteOnEvent(tick=0, channel=0, data=[45, 0]),
   midi.NoteOnEvent(tick=0, channel=0, data=[48, 35]),
   midi.NoteOnEvent(tick=0, channel=0, data=[50, 35]),
   midi.NoteOnEvent(tick=0, channel=0, data=[57, 43]),
   midi.NoteOnEvent(tick=1200, channel=0, data=[57, 0]),
   midi.NoteOnEvent(tick=0, channel=0, data=[50, 0]),
   midi.NoteOnEvent(tick=0, channel=0, data=[48, 0]),
   midi.NoteOnEvent(tick=0, channel=0, data=[47, 35]),
   midi.NoteOnEvent(tick=0, channel=0, data=[50, 35]),
   midi.NoteOnEvent(tick=0, channel=0, data=[55, 43]),
   midi.NoteOnEvent(tick=240, channel=0, data=[55, 0]),
   midi.NoteOnEvent(tick=0, channel=0, data=[50, 0]),
   midi.NoteOnEvent(tick=0, channel=0, data=[47, 0]),
   midi.NoteOnEvent(tick=0, channel=0, data=[52, 38]),
   midi.NoteOnEvent(tick=0, channel=0, data=[55, 38]),
   midi.NoteOnEvent(tick=0, channel=0, data=[60, 46]),
   midi.ControlChangeEvent(tick=99, channel=0, data=[64, 127]),
   midi.NoteOnEvent(tick=381, channel=0, data=[60, 0]),
   midi.NoteOnEvent(tick=0, channel=0, data=[55, 0]),
   midi.NoteOnEvent(tick=0, channel=0, data=[52, 0]),
   midi.NoteOnEvent(tick=0, channel=0, data=[50, 35]),
   midi.NoteOnEvent(tick=0, channel=0, data=[55, 35]),
   midi.NoteOnEvent(tick=0, channel=0, data=[59, 43]),
   midi.ControlChangeEvent(tick=10, channel=0, data=[64, 0]),
   midi.NoteOnEvent(tick=230, channel=0, data=[59, 0]),
   midi.NoteOnEvent(tick=0, channel=0, data=[55, 0]),
   midi.NoteOnEvent(tick=0, channel=0, data=[50, 0]),
   midi.NoteOnEvent(tick=0, channel=0, data=[60, 47]),
   midi.NoteOnEvent(tick=1200, channel=0, data=[60, 0]),
   midi.NoteOnEvent(tick=0, channel=0, data=[62, 47]),
   midi.NoteOnEvent(tick=0, channel=0, data=[59, 39]),
   midi.ControlChangeEvent(tick=152, channel=0, data=[64, 127]),
   midi.NoteOnEvent(tick=76, channel=0, data=[59, 0]),
   midi.NoteOnEvent(tick=0, channel=0, data=[62, 0]),
   midi.NoteOnEvent(tick=12, channel=0, data=[62, 49]),
   midi.NoteOnEvent(tick=0, channel=0, data=[59, 40]),
   midi.NoteOnEvent(tick=480, channel=0, data=[59, 0]),
   midi.NoteOnEvent(tick=0, channel=0, data=[62, 0]),
   midi.NoteOnEvent(tick=0, channel=0, data=[62, 48]),
   midi.NoteOnEvent(tick=0, channel=0, data=[60, 40]),
   midi.NoteOnEvent(tick=0, channel=0, data=[57, 40]),
   midi.NoteOnEvent(tick=240, channel=0, data=[57, 0]),
   midi.NoteOnEvent(tick=0, channel=0, data=[60, 0]),
   midi.NoteOnEvent(tick=0, channel=0, data=[62, 0]),
   midi.NoteOnEvent(tick=0, channel=0, data=[55, 44]),
   midi.NoteOnEvent(tick=0, channel=0, data=[62, 52]),
   midi.NoteOnEvent(tick=0, channel=0, data=[59, 44]),
   midi.ControlChangeEvent(tick=4, channel=0, data=[64, 0]),
   midi.ControlChangeEvent(tick=151, channel=0, data=[64, 127]),
   midi.NoteOnEvent(tick=1045, channel=0, data=[59, 0]),
   midi.NoteOnEvent(tick=0, channel=0, data=[62, 0]),
   midi.NoteOnEvent(tick=0, channel=0, data=[55, 0]),
   midi.NoteOnEvent(tick=0, channel=0, data=[55, 33]),
   midi.NoteOnEvent(tick=0, channel=0, data=[59, 39]),
   midi.ControlChangeEvent(tick=10, channel=0, data=[64, 0]),
   midi.NoteOnEvent(tick=230, channel=0, data=[59, 0]),
   midi.NoteOnEvent(tick=0, channel=0, data=[55, 0]),
   midi.NoteOnEvent(tick=0, channel=0, data=[52, 36]),
   midi.NoteOnEvent(tick=0, channel=0, data=[55, 44]),
   midi.NoteOnEvent(tick=480, channel=0, data=[55, 0]),
   midi.NoteOnEvent(tick=0, channel=0, data=[52, 0]),
   midi.NoteOnEvent(tick=0, channel=0, data=[52, 28]),
   midi.NoteOnEvent(tick=0, channel=0, data=[55, 34]),
   midi.NoteOnEvent(tick=240, channel=0, data=[55, 0]),
   midi.NoteOnEvent(tick=0, channel=0, data=[52, 0]),
   midi.NoteOnEvent(tick=0, channel=0, data=[50, 29]),
   midi.NoteOnEvent(tick=0, channel=0, data=[55, 32]),
   midi.NoteOnEvent(tick=0, channel=0, data=[59, 39]),
   midi.NoteOnEvent(tick=720, channel=0, data=[59, 0]),
   midi.NoteOnEvent(tick=0, channel=0, data=[55, 0]),
   midi.NoteOnEvent(tick=0, channel=0, data=[54, 27]),
   midi.NoteOnEvent(tick=0, channel=0, data=[57, 32]),
   midi.NoteOnEvent(tick=480, channel=0, data=[57, 0]),
   midi.NoteOnEvent(tick=0, channel=0, data=[54, 0]),
   midi.NoteOnEvent(tick=0, channel=0, data=[50, 0]),
   midi.NoteOnEvent(tick=240, channel=0, data=[43, 35]),
   midi.NoteOnEvent(tick=0, channel=0, data=[50, 43]),
   midi.ControlChangeEvent(tick=28, channel=0, data=[64, 127]),
   midi.ControlChangeEvent(tick=462, channel=0, data=[64, 0]),
   midi.NoteOnEvent(tick=230, channel=0, data=[50, 0]),
   midi.NoteOnEvent(tick=0, channel=0, data=[43, 0]),
   midi.NoteOnEvent(tick=0, channel=0, data=[38, 35]),
   midi.NoteOnEvent(tick=0, channel=0, data=[50, 43]),
   midi.NoteOnEvent(tick=1200, channel=0, data=[50, 0]),
   midi.NoteOnEvent(tick=0, channel=0, data=[38, 0]),
   midi.NoteOnEvent(tick=0, channel=0, data=[43, 39]),
   midi.NoteOnEvent(tick=0, channel=0, data=[50, 49]),
   midi.NoteOnEvent(tick=240, channel=0, data=[50, 0]),
   midi.NoteOnEvent(tick=0, channel=0, data=[43, 0]),
   midi.NoteOnEvent(tick=0, channel=0, data=[52, 43]),
   midi.NoteOnEvent(tick=0, channel=0, data=[55, 43]),
   midi.ControlChangeEvent(tick=99, channel=0, data=[64, 127]),
   midi.NoteOnEvent(tick=381, channel=0, data=[55, 0]),
   midi.NoteOnEvent(tick=0, channel=0, data=[52, 0]),
   midi.NoteOnEvent(tick=0, channel=0, data=[50, 39]),
   midi.NoteOnEvent(tick=0, channel=0, data=[55, 39]),
   midi.ControlChangeEvent(tick=10, channel=0, data=[64, 0]),
   midi.NoteOnEvent(tick=230, channel=0, data=[55, 0]),
   midi.NoteOnEvent(tick=0, channel=0, data=[50, 0]),
   midi.NoteOnEvent(tick=0, channel=0, data=[48, 46]),
   midi.NoteOnEvent(tick=0, channel=0, data=[55, 46]),
   midi.NoteOnEvent(tick=0, channel=0, data=[60, 53]),
   midi.NoteOnEvent(tick=1200, channel=0, data=[60, 0]),
   midi.NoteOnEvent(tick=0, channel=0, data=[55, 0]),
   midi.NoteOnEvent(tick=0, channel=0, data=[48, 0]),
   midi.NoteOnEvent(tick=0, channel=0, data=[47, 44]),
   midi.NoteOnEvent(tick=0, channel=0, data=[59, 53]),
   midi.NoteOnEvent(tick=0, channel=0, data=[55, 44]),
   midi.ControlChangeEvent(tick=152, channel=0, data=[64, 127]),
   midi.NoteOnEvent(tick=88, channel=0, data=[55, 0]),
   midi.NoteOnEvent(tick=0, channel=0, data=[59, 0]),
   midi.NoteOnEvent(tick=0, channel=0, data=[47, 0]),
   midi.NoteOnEvent(tick=0, channel=0, data=[52, 46]),
   midi.NoteOnEvent(tick=0, channel=0, data=[62, 55]),
   midi.NoteOnEvent(tick=0, channel=0, data=[55, 46]),
   midi.NoteOnEvent(tick=480, channel=0, data=[55, 0]),
   midi.NoteOnEvent(tick=0, channel=0, data=[62, 0]),
   midi.NoteOnEvent(tick=0, channel=0, data=[52, 0]),
   midi.NoteOnEvent(tick=0, channel=0, data=[60, 54]),
   midi.NoteOnEvent(tick=0, channel=0, data=[55, 46]),
   midi.NoteOnEvent(tick=0, channel=0, data=[52, 46]),
   midi.NoteOnEvent(tick=240, channel=0, data=[52, 0]),
   midi.NoteOnEvent(tick=0, channel=0, data=[55, 0]),
   midi.NoteOnEvent(tick=0, channel=0, data=[60, 0]),
   midi.NoteOnEvent(tick=0, channel=0, data=[50, 50]),
   midi.NoteOnEvent(tick=0, channel=0, data=[59, 59]),
   midi.NoteOnEvent(tick=0, channel=0, data=[55, 50]),
   midi.ControlChangeEvent(tick=4, channel=0, data=[64, 0]),
   midi.ControlChangeEvent(tick=151, channel=0, data=[64, 127]),
   midi.NoteOnEvent(tick=1045, channel=0, data=[55, 0]),
   midi.NoteOnEvent(tick=0, channel=0, data=[59, 0]),
   midi.NoteOnEvent(tick=0, channel=0, data=[50, 0]),
   midi.ControlChangeEvent(tick=10, channel=0, data=[64, 0]),
   midi.NoteOnEvent(tick=230, channel=0, data=[38, 32]),
   midi.NoteOnEvent(tick=0, channel=0, data=[50, 39]),
   midi.NoteOnEvent(tick=720, channel=0, data=[38, 0]),
   midi.NoteOnEvent(tick=0, channel=0, data=[43, 30]),
   midi.ControlChangeEvent(tick=138, channel=0, data=[64, 127]),
   midi.NoteOnEvent(tick=342, channel=0, data=[43, 0]),
   midi.NoteOnEvent(tick=0, channel=0, data=[50, 0]),
   midi.ControlChangeEvent(tick=0, channel=0, data=[64, 0]),
   midi.NoteOnEvent(tick=0, channel=0, data=[50, 32]),
   midi.NoteOnEvent(tick=180, channel=0, data=[50, 0]),
   midi.NoteOnEvent(tick=60, channel=0, data=[50, 36]),
   midi.NoteOnEvent(tick=480, channel=0, data=[50, 0]),
   midi.NoteOnEvent(tick=0, channel=0, data=[50, 33]),
   midi.NoteOnEvent(tick=240, channel=0, data=[50, 0]),
   midi.NoteOnEvent(tick=0, channel=0, data=[50, 36]),
   midi.ControlChangeEvent(tick=169, channel=0, data=[64, 127]),
   midi.NoteOnEvent(tick=311, channel=0, data=[50, 0]),
   midi.NoteOnEvent(tick=0, channel=0, data=[50, 34]),
   midi.NoteOnEvent(tick=240, channel=0, data=[50, 0]),
   midi.NoteOnEvent(tick=0, channel=0, data=[38, 30]),
   midi.NoteOnEvent(tick=0, channel=0, data=[50, 36]),
   midi.ControlChangeEvent(tick=6, channel=0, data=[64, 0]),
   midi.ControlChangeEvent(tick=135, channel=0, data=[64, 127]),
   midi.NoteOnEvent(tick=339, channel=0, data=[50, 0]),
   midi.NoteOnEvent(tick=0, channel=0, data=[50, 33]),
   midi.NoteOnEvent(tick=240, channel=0, data=[50, 0]),
   midi.NoteOnEvent(tick=0, channel=0, data=[50, 36]),
   midi.ControlChangeEvent(tick=10, channel=0, data=[64, 0]),
   midi.ControlChangeEvent(tick=131, channel=0, data=[64, 127]),
   midi.NoteOnEvent(tick=339, channel=0, data=[50, 0]),
   midi.NoteOnEvent(tick=0, channel=0, data=[38, 0]),
   midi.ControlChangeEvent(tick=0, channel=0, data=[64, 0]),
   midi.NoteOnEvent(tick=0, channel=0, data=[38, 27]),
   midi.NoteOnEvent(tick=0, channel=0, data=[50, 33]),
   midi.NoteOnEvent(tick=180, channel=0, data=[50, 0]),
   midi.NoteOnEvent(tick=0, channel=0, data=[38, 0]),
   midi.NoteOnEvent(tick=60, channel=0, data=[38, 30]),
   midi.NoteOnEvent(tick=0, channel=0, data=[50, 36]),
   midi.NoteOnEvent(tick=480, channel=0, data=[50, 0]),
   midi.NoteOnEvent(tick=0, channel=0, data=[38, 0]),
   midi.NoteOnEvent(tick=0, channel=0, data=[38, 27]),
   midi.NoteOnEvent(tick=0, channel=0, data=[50, 33]),
   midi.NoteOnEvent(tick=240, channel=0, data=[50, 0]),
   midi.NoteOnEvent(tick=0, channel=0, data=[38, 0]),
   midi.NoteOnEvent(tick=0, channel=0, data=[38, 30]),
   midi.NoteOnEvent(tick=0, channel=0, data=[50, 36]),
   midi.ControlChangeEvent(tick=103, channel=0, data=[64, 127]),
   midi.NoteOnEvent(tick=377, channel=0, data=[50, 0]),
   midi.NoteOnEvent(tick=0, channel=0, data=[50, 33]),
   midi.NoteOnEvent(tick=240, channel=0, data=[50, 0]),
   midi.NoteOnEvent(tick=0, channel=0, data=[50, 36]),
   midi.ControlChangeEvent(tick=10, channel=0, data=[64, 0]),
   midi.ControlChangeEvent(tick=145, channel=0, data=[64, 127]),
   midi.ControlChangeEvent(tick=265, channel=0, data=[64, 0]),
   midi.NoteOnEvent(tick=60, channel=0, data=[50, 0]),
   midi.NoteOnEvent(tick=0, channel=0, data=[38, 0]),
   midi.NoteOnEvent(tick=0, channel=0, data=[38, 27]),
   midi.NoteOnEvent(tick=0, channel=0, data=[50, 34]),
   midi.NoteOnEvent(tick=180, channel=0, data=[50, 0]),
   midi.NoteOnEvent(tick=0, channel=0, data=[38, 0]),
   midi.NoteOnEvent(tick=60, channel=0, data=[38, 32]),
   midi.NoteOnEvent(tick=0, channel=0, data=[50, 37]),
   midi.NoteOnEvent(tick=480, channel=0, data=[50, 0]),
   midi.NoteOnEvent(tick=0, channel=0, data=[38, 0]),
   midi.NoteOnEvent(tick=0, channel=0, data=[38, 29]),
   midi.NoteOnEvent(tick=0, channel=0, data=[50, 36]),
   midi.NoteOnEvent(tick=240, channel=0, data=[50, 0]),
   midi.NoteOnEvent(tick=0, channel=0, data=[38, 0]),
   midi.NoteOnEvent(tick=0, channel=0, data=[38, 39]),
   midi.NoteOnEvent(tick=0, channel=0, data=[50, 46]),
   midi.ControlChangeEvent(tick=50, channel=0, data=[64, 127]),
   midi.NoteOnEvent(tick=430, channel=0, data=[50, 0]),
   midi.NoteOnEvent(tick=0, channel=0, data=[50, 40]),
   midi.NoteOnEvent(tick=240, channel=0, data=[50, 0]),
   midi.NoteOnEvent(tick=0, channel=0, data=[50, 46]),
   midi.ControlChangeEvent(tick=10, channel=0, data=[64, 0]),
   midi.ControlChangeEvent(tick=164, channel=0, data=[64, 127]),
   midi.NoteOnEvent(tick=306, channel=0, data=[50, 0]),
   midi.NoteOnEvent(tick=0, channel=0, data=[38, 0]),
   midi.NoteOnEvent(tick=0, channel=0, data=[38, 34]),
   midi.NoteOnEvent(tick=0, channel=0, data=[50, 41]),
   midi.NoteOnEvent(tick=240, channel=0, data=[50, 0]),
   midi.NoteOnEvent(tick=0, channel=0, data=[38, 0]),
   midi.NoteOnEvent(tick=0, channel=0, data=[40, 34]),
   midi.NoteOnEvent(tick=0, channel=0, data=[52, 40]),
   midi.ControlChangeEvent(tick=10, channel=0, data=[64, 0]),
   midi.NoteOnEvent(tick=470, channel=0, data=[52, 0]),
   midi.NoteOnEvent(tick=0, channel=0, data=[40, 0]),
   midi.NoteOnEvent(tick=0, channel=0, data=[40, 31]),
   midi.NoteOnEvent(tick=0, channel=0, data=[52, 37]),
   midi.NoteOnEvent(tick=228, channel=0, data=[52, 0]),
   midi.NoteOnEvent(tick=0, channel=0, data=[40, 0]),
   midi.NoteOnEvent(tick=12, channel=0, data=[40, 34]),
   midi.NoteOnEvent(tick=0, channel=0, data=[52, 40]),
   midi.NoteOnEvent(tick=720, channel=0, data=[40, 0]),
   midi.NoteOnEvent(tick=0, channel=0, data=[45, 32]),
   midi.NoteOnEvent(tick=480, channel=0, data=[45, 0]),
   midi.NoteOnEvent(tick=0, channel=0, data=[52, 0]),
   midi.NoteOnEvent(tick=0, channel=0, data=[52, 37]),
   midi.NoteOnEvent(tick=240, channel=0, data=[52, 0]),
   midi.NoteOnEvent(tick=0, channel=0, data=[52, 40]),
   midi.ControlChangeEvent(tick=10, channel=0, data=[64, 0]),
   midi.ControlChangeEvent(tick=159, channel=0, data=[64, 127]),
   midi.NoteOnEvent(tick=311, channel=0, data=[52, 0]),
   midi.NoteOnEvent(tick=0, channel=0, data=[52, 38]),
   midi.NoteOnEvent(tick=240, channel=0, data=[52, 0]),
   midi.NoteOnEvent(tick=0, channel=0, data=[43, 34]),
   midi.NoteOnEvent(tick=0, channel=0, data=[55, 40]),
   midi.ControlChangeEvent(tick=6, channel=0, data=[64, 0]),
   midi.ControlChangeEvent(tick=135, channel=0, data=[64, 127]),
   midi.NoteOnEvent(tick=339, channel=0, data=[55, 0]),
   midi.NoteOnEvent(tick=0, channel=0, data=[55, 37]),
   midi.NoteOnEvent(tick=240, channel=0, data=[55, 0]),
   midi.NoteOnEvent(tick=0, channel=0, data=[55, 41]),
   midi.ControlChangeEvent(tick=10, channel=0, data=[64, 0]),
   midi.ControlChangeEvent(tick=131, channel=0, data=[64, 127]),
   midi.NoteOnEvent(tick=339, channel=0, data=[55, 0]),
   midi.NoteOnEvent(tick=0, channel=0, data=[43, 0]),
   midi.ControlChangeEvent(tick=0, channel=0, data=[64, 0]),
   midi.NoteOnEvent(tick=0, channel=0, data=[43, 32]),
   midi.NoteOnEvent(tick=0, channel=0, data=[55, 39]),
   midi.NoteOnEvent(tick=180, channel=0, data=[55, 0]),
   midi.NoteOnEvent(tick=0, channel=0, data=[43, 0]),
   midi.NoteOnEvent(tick=60, channel=0, data=[43, 37]),
   midi.NoteOnEvent(tick=0, channel=0, data=[55, 44]),
   midi.NoteOnEvent(tick=480, channel=0, data=[55, 0]),
   midi.NoteOnEvent(tick=0, channel=0, data=[43, 0]),
   midi.NoteOnEvent(tick=0, channel=0, data=[48, 35]),
   midi.NoteOnEvent(tick=0, channel=0, data=[55, 42]),
   midi.NoteOnEvent(tick=240, channel=0, data=[55, 0]),
   midi.NoteOnEvent(tick=0, channel=0, data=[48, 0]),
   midi.NoteOnEvent(tick=0, channel=0, data=[43, 39]),
   midi.NoteOnEvent(tick=0, channel=0, data=[55, 46]),
   midi.ControlChangeEvent(tick=42, channel=0, data=[64, 127]),
   midi.NoteOnEvent(tick=438, channel=0, data=[55, 0]),
   midi.NoteOnEvent(tick=0, channel=0, data=[55, 44]),
   midi.NoteOnEvent(tick=240, channel=0, data=[55, 0]),
   midi.NoteOnEvent(tick=0, channel=0, data=[55, 49]),
   midi.ControlChangeEvent(tick=10, channel=0, data=[64, 0]),
   midi.ControlChangeEvent(tick=145, channel=0, data=[64, 127]),
   midi.ControlChangeEvent(tick=311, channel=0, data=[64, 0]),
   midi.NoteOnEvent(tick=14, channel=0, data=[55, 0]),
   midi.NoteOnEvent(tick=0, channel=0, data=[43, 0]),
   midi.NoteOnEvent(tick=0, channel=0, data=[43, 38]),
   midi.NoteOnEvent(tick=0, channel=0, data=[55, 48]),
   midi.NoteOnEvent(tick=180, channel=0, data=[55, 0]),
   midi.NoteOnEvent(tick=0, channel=0, data=[43, 0]),
   midi.NoteOnEvent(tick=60, channel=0, data=[43, 46]),
   midi.NoteOnEvent(tick=0, channel=0, data=[55, 54]),
   midi.NoteOnEvent(tick=480, channel=0, data=[55, 0]),
   midi.NoteOnEvent(tick=0, channel=0, data=[43, 0]),
   midi.NoteOnEvent(tick=0, channel=0, data=[48, 44]),
   midi.NoteOnEvent(tick=0, channel=0, data=[55, 53]),
   midi.NoteOnEvent(tick=240, channel=0, data=[55, 0]),
   midi.NoteOnEvent(tick=0, channel=0, data=[48, 0]),
   midi.NoteOnEvent(tick=0, channel=0, data=[64, 50]),
   midi.NoteOnEvent(tick=0, channel=0, data=[67, 59]),
   midi.ControlChangeEvent(tick=50, channel=0, data=[64, 127]),
   midi.NoteOnEvent(tick=430, channel=0, data=[67, 0]),
   midi.NoteOnEvent(tick=0, channel=0, data=[64, 0]),
   midi.NoteOnEvent(tick=0, channel=0, data=[62, 52]),
   midi.NoteOnEvent(tick=0, channel=0, data=[66, 60]),
   midi.NoteOnEvent(tick=240, channel=0, data=[66, 0]),
   midi.NoteOnEvent(tick=0, channel=0, data=[62, 0]),
   midi.NoteOnEvent(tick=0, channel=0, data=[64, 62]),
   midi.NoteOnEvent(tick=0, channel=0, data=[60, 54]),
   midi.ControlChangeEvent(tick=10, channel=0, data=[64, 0]),
   midi.ControlChangeEvent(tick=164, channel=0, data=[64, 127]),
   midi.NoteOnEvent(tick=306, channel=0, data=[60, 0]),
   midi.NoteOnEvent(tick=0, channel=0, data=[64, 0]),
   midi.NoteOnEvent(tick=0, channel=0, data=[59, 47]),
   midi.NoteOnEvent(tick=0, channel=0, data=[62, 55]),
   midi.NoteOnEvent(tick=240, channel=0, data=[62, 0]),
   midi.NoteOnEvent(tick=0, channel=0, data=[59, 0]),
   midi.NoteOnEvent(tick=0, channel=0, data=[60, 54]),
   midi.NoteOnEvent(tick=0, channel=0, data=[57, 46]),
   midi.ControlChangeEvent(tick=10, channel=0, data=[64, 0]),
   midi.NoteOnEvent(tick=470, channel=0, data=[57, 0]),
   midi.NoteOnEvent(tick=0, channel=0, data=[60, 0]),
   midi.NoteOnEvent(tick=0, channel=0, data=[49, 31]),
   midi.NoteOnEvent(tick=0, channel=0, data=[59, 37]),
   midi.NoteOnEvent(tick=0, channel=0, data=[55, 31]),
   midi.NoteOnEvent(tick=240, channel=0, data=[55, 0]),
   midi.NoteOnEvent(tick=0, channel=0, data=[59, 0]),
   midi.NoteOnEvent(tick=0, channel=0, data=[49, 0]),
   midi.NoteOnEvent(tick=0, channel=0, data=[59, 34]),
   midi.NoteOnEvent(tick=0, channel=0, data=[62, 40]),
   midi.NoteOnEvent(tick=0, channel=0, data=[50, 34]),
   midi.NoteOnEvent(tick=720, channel=0, data=[62, 0]),
   midi.NoteOnEvent(tick=0, channel=0, data=[59, 0]),
   midi.NoteOnEvent(tick=0, channel=0, data=[57, 32]),
   midi.NoteOnEvent(tick=0, channel=0, data=[54, 32]),
   midi.NoteOnEvent(tick=480, channel=0, data=[54, 0]),
   midi.NoteOnEvent(tick=0, channel=0, data=[57, 0]),
   midi.NoteOnEvent(tick=0, channel=0, data=[50, 0]),
   midi.ControlChangeEvent(tick=392, channel=0, data=[64, 127]),
   midi.ControlChangeEvent(tick=338, channel=0, data=[64, 0]),
   midi.NoteOnEvent(tick=710, channel=0, data=[38, 35]),
   midi.NoteOnEvent(tick=0, channel=0, data=[50, 43]),
   midi.NoteOnEvent(tick=240, channel=0, data=[50, 0]),
   midi.NoteOnEvent(tick=0, channel=0, data=[38, 0]),
   midi.NoteOnEvent(tick=0, channel=0, data=[38, 35]),
   midi.NoteOnEvent(tick=0, channel=0, data=[50, 43]),
   midi.NoteOnEvent(tick=720, channel=0, data=[50, 0]),
   midi.NoteOnEvent(tick=0, channel=0, data=[38, 0]),
   midi.NoteOnEvent(tick=0, channel=0, data=[38, 41]),
   midi.NoteOnEvent(tick=0, channel=0, data=[50, 41]),
   midi.ControlChangeEvent(tick=99, channel=0, data=[64, 127]),
   midi.ControlChangeEvent(tick=391, channel=0, data=[64, 0]),
   midi.NoteOnEvent(tick=230, channel=0, data=[38, 0]),
   midi.NoteOnEvent(tick=0, channel=0, data=[60, 51]),
   midi.NoteOnEvent(tick=480, channel=0, data=[50, 0]),
   midi.NoteOnEvent(tick=0, channel=0, data=[50, 53]),
   midi.NoteOnEvent(tick=240, channel=0, data=[50, 0]),
   midi.NoteOnEvent(tick=0, channel=0, data=[50, 53]),
   midi.NoteOnEvent(tick=480, channel=0, data=[60, 0]),
   midi.NoteOnEvent(tick=0, channel=0, data=[62, 47]),
   midi.NoteOnEvent(tick=0, channel=0, data=[59, 39]),
   midi.NoteOnEvent(tick=240, channel=0, data=[59, 0]),
   midi.NoteOnEvent(tick=0, channel=0, data=[62, 0]),
   midi.NoteOnEvent(tick=0, channel=0, data=[50, 0]),
   midi.NoteOnEvent(tick=0, channel=0, data=[50, 40]),
   midi.NoteOnEvent(tick=0, channel=0, data=[61, 49]),
   midi.NoteOnEvent(tick=0, channel=0, data=[58, 40]),
   midi.ControlChangeEvent(tick=229, channel=0, data=[64, 127]),
   midi.NoteOnEvent(tick=251, channel=0, data=[58, 0]),
   midi.NoteOnEvent(tick=0, channel=0, data=[61, 0]),
   midi.NoteOnEvent(tick=0, channel=0, data=[60, 48]),
   midi.NoteOnEvent(tick=0, channel=0, data=[57, 40]),
   midi.NoteOnEvent(tick=240, channel=0, data=[57, 0]),
   midi.NoteOnEvent(tick=0, channel=0, data=[60, 0]),
   midi.NoteOnEvent(tick=0, channel=0, data=[59, 55]),
   midi.NoteOnEvent(tick=0, channel=0, data=[55, 55]),
   midi.ControlChangeEvent(tick=4, channel=0, data=[64, 0]),
   midi.ControlChangeEvent(tick=151, channel=0, data=[64, 127]),
   midi.NoteOnEvent(tick=325, channel=0, data=[50, 0]),
   midi.NoteOnEvent(tick=0, channel=0, data=[50, 55]),
   midi.NoteOnEvent(tick=240, channel=0, data=[50, 0]),
   midi.NoteOnEvent(tick=0, channel=0, data=[50, 55]),
   midi.ControlChangeEvent(tick=490, channel=0, data=[64, 0]),
   midi.NoteOnEvent(tick=230, channel=0, data=[50, 0]),
   midi.NoteOnEvent(tick=0, channel=0, data=[55, 0]),
   midi.NoteOnEvent(tick=0, channel=0, data=[59, 0]),
   midi.NoteOnEvent(tick=0, channel=0, data=[50, 34]),
   midi.NoteOnEvent(tick=0, channel=0, data=[52, 34]),
   midi.NoteOnEvent(tick=0, channel=0, data=[55, 34]),
   midi.NoteOnEvent(tick=0, channel=0, data=[57, 41]),
   midi.NoteOnEvent(tick=720, channel=0, data=[57, 0]),
   midi.NoteOnEvent(tick=0, channel=0, data=[50, 0]),
   midi.NoteOnEvent(tick=0, channel=0, data=[52, 0]),
   midi.NoteOnEvent(tick=0, channel=0, data=[55, 0]),
   midi.NoteOnEvent(tick=0, channel=0, data=[50, 31]),
   midi.NoteOnEvent(tick=0, channel=0, data=[55, 34]),
   midi.NoteOnEvent(tick=0, channel=0, data=[59, 41]),
   midi.NoteOnEvent(tick=720, channel=0, data=[59, 0]),
   midi.NoteOnEvent(tick=0, channel=0, data=[55, 0]),
   midi.NoteOnEvent(tick=0, channel=0, data=[54, 28]),
   midi.NoteOnEvent(tick=0, channel=0, data=[57, 34]),
   midi.NoteOnEvent(tick=480, channel=0, data=[57, 0]),
   midi.NoteOnEvent(tick=0, channel=0, data=[54, 0]),
   midi.NoteOnEvent(tick=0, channel=0, data=[50, 0]),
   midi.NoteOnEvent(tick=0, channel=0, data=[48, 35]),
   midi.NoteOnEvent(tick=0, channel=0, data=[54, 46]),
   midi.NoteOnEvent(tick=240, channel=0, data=[54, 0]),
   midi.NoteOnEvent(tick=0, channel=0, data=[48, 0]),
   midi.NoteOnEvent(tick=0, channel=0, data=[48, 36]),
   midi.NoteOnEvent(tick=0, channel=0, data=[55, 48]),
   midi.ControlChangeEvent(tick=10, channel=0, data=[64, 0]),
   midi.ControlChangeEvent(tick=159, channel=0, data=[64, 127]),
   midi.NoteOnEvent(tick=311, channel=0, data=[55, 0]),
   midi.NoteOnEvent(tick=0, channel=0, data=[48, 0]),
   midi.NoteOnEvent(tick=0, channel=0, data=[48, 36]),
   midi.NoteOnEvent(tick=0, channel=0, data=[57, 49]),
   midi.NoteOnEvent(tick=240, channel=0, data=[57, 0]),
   midi.NoteOnEvent(tick=0, channel=0, data=[48, 0]),
   midi.NoteOnEvent(tick=0, channel=0, data=[47, 44]),
   midi.NoteOnEvent(tick=0, channel=0, data=[60, 48]),
   midi.ControlChangeEvent(tick=6, channel=0, data=[64, 0]),
   midi.ControlChangeEvent(tick=135, channel=0, data=[64, 127]),
   midi.NoteOnEvent(tick=339, channel=0, data=[60, 0]),
   midi.NoteOnEvent(tick=0, channel=0, data=[59, 44]),
   midi.NoteOnEvent(tick=240, channel=0, data=[59, 0]),
   midi.NoteOnEvent(tick=0, channel=0, data=[55, 44]),
   midi.ControlChangeEvent(tick=10, channel=0, data=[64, 0]),
   midi.NoteOnEvent(tick=470, channel=0, data=[55, 0]),
   midi.NoteOnEvent(tick=0, channel=0, data=[47, 0]),
   midi.NoteOnEvent(tick=0, channel=0, data=[48, 36]),
   midi.NoteOnEvent(tick=0, channel=0, data=[54, 48]),
   midi.NoteOnEvent(tick=240, channel=0, data=[54, 0]),
   midi.NoteOnEvent(tick=0, channel=0, data=[48, 0]),
   midi.NoteOnEvent(tick=0, channel=0, data=[48, 37]),
   midi.NoteOnEvent(tick=0, channel=0, data=[55, 50]),
   midi.ControlChangeEvent(tick=169, channel=0, data=[64, 127]),
   midi.NoteOnEvent(tick=311, channel=0, data=[55, 0]),
   midi.NoteOnEvent(tick=0, channel=0, data=[48, 0]),
   midi.NoteOnEvent(tick=0, channel=0, data=[48, 37]),
   midi.NoteOnEvent(tick=0, channel=0, data=[57, 51]),
   midi.NoteOnEvent(tick=240, channel=0, data=[57, 0]),
   midi.NoteOnEvent(tick=0, channel=0, data=[48, 0]),
   midi.NoteOnEvent(tick=0, channel=0, data=[47, 46]),
   midi.NoteOnEvent(tick=0, channel=0, data=[60, 50]),
   midi.ControlChangeEvent(tick=10, channel=0, data=[64, 0]),
   midi.ControlChangeEvent(tick=131, channel=0, data=[64, 127]),
   midi.NoteOnEvent(tick=339, channel=0, data=[60, 0]),
   midi.NoteOnEvent(tick=0, channel=0, data=[59, 46]),
   midi.NoteOnEvent(tick=240, channel=0, data=[59, 0]),
   midi.NoteOnEvent(tick=0, channel=0, data=[55, 46]),
   midi.ControlChangeEvent(tick=10, channel=0, data=[64, 0]),
   midi.NoteOnEvent(tick=470, channel=0, data=[55, 0]),
   midi.NoteOnEvent(tick=0, channel=0, data=[47, 0]),
   midi.NoteOnEvent(tick=0, channel=0, data=[55, 51]),
   midi.NoteOnEvent(tick=240, channel=0, data=[55, 0]),
   midi.NoteOnEvent(tick=0, channel=0, data=[48, 44]),
   midi.NoteOnEvent(tick=0, channel=0, data=[57, 53]),
   midi.NoteOnEvent(tick=0, channel=0, data=[55, 44]),
   midi.ControlChangeEvent(tick=76, channel=0, data=[64, 127]),
   midi.NoteOnEvent(tick=404, channel=0, data=[55, 0]),
   midi.NoteOnEvent(tick=0, channel=0, data=[57, 0]),
   midi.NoteOnEvent(tick=0, channel=0, data=[48, 0]),
   midi.NoteOnEvent(tick=0, channel=0, data=[57, 52]),
   midi.NoteOnEvent(tick=0, channel=0, data=[55, 44]),
   midi.NoteOnEvent(tick=0, channel=0, data=[48, 44]),
   midi.NoteOnEvent(tick=240, channel=0, data=[48, 0]),
   midi.NoteOnEvent(tick=0, channel=0, data=[55, 0]),
   midi.NoteOnEvent(tick=0, channel=0, data=[57, 0]),
   midi.NoteOnEvent(tick=0, channel=0, data=[50, 48]),
   midi.NoteOnEvent(tick=0, channel=0, data=[59, 56]),
   midi.NoteOnEvent(tick=0, channel=0, data=[55, 48]),
   midi.ControlChangeEvent(tick=4, channel=0, data=[64, 0]),
   midi.ControlChangeEvent(tick=151, channel=0, data=[64, 127]),
   midi.NoteOnEvent(tick=1045, channel=0, data=[55, 0]),
   midi.NoteOnEvent(tick=0, channel=0, data=[59, 0]),
   midi.NoteOnEvent(tick=0, channel=0, data=[50, 0]),
   midi.NoteOnEvent(tick=0, channel=0, data=[55, 43]),
   midi.ControlChangeEvent(tick=10, channel=0, data=[64, 0]),
   midi.NoteOnEvent(tick=230, channel=0, data=[55, 0]),
   midi.NoteOnEvent(tick=0, channel=0, data=[57, 44]),
   midi.NoteOnEvent(tick=0, channel=0, data=[50, 36]),
   midi.NoteOnEvent(tick=240, channel=0, data=[57, 0]),
   midi.NoteOnEvent(tick=0, channel=0, data=[60, 40]),
   midi.NoteOnEvent(tick=240, channel=0, data=[60, 0]),
   midi.NoteOnEvent(tick=0, channel=0, data=[59, 40]),
   midi.NoteOnEvent(tick=240, channel=0, data=[59, 0]),
   midi.NoteOnEvent(tick=0, channel=0, data=[50, 0]),
   midi.NoteOnEvent(tick=0, channel=0, data=[50, 40]),
   midi.NoteOnEvent(tick=0, channel=0, data=[57, 36]),
   midi.NoteOnEvent(tick=720, channel=0, data=[57, 0]),
   midi.NoteOnEvent(tick=0, channel=0, data=[50, 0]),
   midi.NoteOnEvent(tick=0, channel=0, data=[55, 36]),
   midi.NoteOnEvent(tick=480, channel=0, data=[55, 0]),
   midi.NoteOnEvent(tick=0, channel=0, data=[48, 35]),
   midi.NoteOnEvent(tick=0, channel=0, data=[54, 46]),
   midi.NoteOnEvent(tick=228, channel=0, data=[54, 0]),
   midi.NoteOnEvent(tick=0, channel=0, data=[48, 0]),
   midi.NoteOnEvent(tick=12, channel=0, data=[48, 36]),
   midi.NoteOnEvent(tick=0, channel=0, data=[54, 48]),
   midi.ControlChangeEvent(tick=10, channel=0, data=[64, 0]),
   midi.ControlChangeEvent(tick=159, channel=0, data=[64, 127]),
   midi.NoteOnEvent(tick=71, channel=0, data=[54, 0]),
   midi.NoteOnEvent(tick=0, channel=0, data=[48, 0]),
   midi.NoteOnEvent(tick=0, channel=0, data=[48, 36]),
   midi.NoteOnEvent(tick=0, channel=0, data=[55, 48]),
   midi.NoteOnEvent(tick=240, channel=0, data=[55, 0]),
   midi.NoteOnEvent(tick=0, channel=0, data=[48, 0]),
   midi.NoteOnEvent(tick=0, channel=0, data=[48, 36]),
   midi.NoteOnEvent(tick=0, channel=0, data=[57, 49]),
   midi.NoteOnEvent(tick=240, channel=0, data=[57, 0]),
   midi.NoteOnEvent(tick=0, channel=0, data=[48, 0]),
   midi.NoteOnEvent(tick=0, channel=0, data=[47, 46]),
   midi.NoteOnEvent(tick=0, channel=0, data=[60, 50]),
   midi.ControlChangeEvent(tick=7, channel=0, data=[64, 0]),
   midi.ControlChangeEvent(tick=134, channel=0, data=[64, 127]),
   midi.NoteOnEvent(tick=339, channel=0, data=[60, 0]),
   midi.NoteOnEvent(tick=0, channel=0, data=[59, 46]),
   midi.NoteOnEvent(tick=240, channel=0, data=[59, 0]),
   midi.NoteOnEvent(tick=0, channel=0, data=[55, 46]),
   midi.ControlChangeEvent(tick=10, channel=0, data=[64, 0]),
   midi.NoteOnEvent(tick=230, channel=0, data=[55, 0]),
   midi.NoteOnEvent(tick=0, channel=0, data=[47, 0]),
   midi.NoteOnEvent(tick=0, channel=0, data=[48, 33]),
   midi.NoteOnEvent(tick=0, channel=0, data=[54, 48]),
   midi.NoteOnEvent(tick=240, channel=0, data=[54, 0]),
   midi.NoteOnEvent(tick=0, channel=0, data=[48, 0]),
   midi.NoteOnEvent(tick=0, channel=0, data=[48, 34]),
   midi.NoteOnEvent(tick=0, channel=0, data=[53, 50]),
   midi.NoteOnEvent(tick=240, channel=0, data=[53, 0]),
   midi.NoteOnEvent(tick=0, channel=0, data=[48, 0]),
   midi.NoteOnEvent(tick=0, channel=0, data=[48, 38]),
   midi.NoteOnEvent(tick=0, channel=0, data=[54, 52]),
   midi.ControlChangeEvent(tick=169, channel=0, data=[64, 127]),
   midi.NoteOnEvent(tick=71, channel=0, data=[54, 0]),
   midi.NoteOnEvent(tick=0, channel=0, data=[48, 0]),
   midi.NoteOnEvent(tick=0, channel=0, data=[48, 38]),
   midi.NoteOnEvent(tick=0, channel=0, data=[55, 52]),
   midi.NoteOnEvent(tick=240, channel=0, data=[55, 0]),
   midi.NoteOnEvent(tick=0, channel=0, data=[48, 0]),
   midi.NoteOnEvent(tick=0, channel=0, data=[48, 38]),
   midi.NoteOnEvent(tick=0, channel=0, data=[57, 53]),
   midi.NoteOnEvent(tick=240, channel=0, data=[57, 0]),
   midi.NoteOnEvent(tick=0, channel=0, data=[48, 0]),
   midi.NoteOnEvent(tick=0, channel=0, data=[47, 48]),
   midi.NoteOnEvent(tick=0, channel=0, data=[60, 50]),
   midi.ControlChangeEvent(tick=8, channel=0, data=[64, 0]),
   midi.ControlChangeEvent(tick=133, channel=0, data=[64, 127]),
   midi.NoteOnEvent(tick=339, channel=0, data=[60, 0]),
   midi.NoteOnEvent(tick=0, channel=0, data=[59, 48]),
   midi.NoteOnEvent(tick=240, channel=0, data=[59, 0]),
   midi.NoteOnEvent(tick=0, channel=0, data=[55, 48]),
   midi.ControlChangeEvent(tick=10, channel=0, data=[64, 0]),
   midi.NoteOnEvent(tick=470, channel=0, data=[55, 0]),
   midi.NoteOnEvent(tick=0, channel=0, data=[47, 0]),
   midi.NoteOnEvent(tick=0, channel=0, data=[49, 44]),
   midi.NoteOnEvent(tick=0, channel=0, data=[55, 44]),
   midi.NoteOnEvent(tick=0, channel=0, data=[57, 51]),
   midi.NoteOnEvent(tick=240, channel=0, data=[57, 0]),
   midi.NoteOnEvent(tick=0, channel=0, data=[55, 0]),
   midi.NoteOnEvent(tick=0, channel=0, data=[49, 0]),
   midi.NoteOnEvent(tick=0, channel=0, data=[49, 44]),
   midi.NoteOnEvent(tick=0, channel=0, data=[57, 53]),
   midi.NoteOnEvent(tick=0, channel=0, data=[55, 44]),
   midi.ControlChangeEvent(tick=76, channel=0, data=[64, 127]),
   midi.NoteOnEvent(tick=404, channel=0, data=[55, 0]),
   midi.NoteOnEvent(tick=0, channel=0, data=[57, 0]),
   midi.NoteOnEvent(tick=0, channel=0, data=[49, 0]),
   midi.NoteOnEvent(tick=0, channel=0, data=[57, 52]),
   midi.NoteOnEvent(tick=0, channel=0, data=[55, 44]),
   midi.NoteOnEvent(tick=0, channel=0, data=[49, 44]),
   midi.NoteOnEvent(tick=240, channel=0, data=[49, 0]),
   midi.NoteOnEvent(tick=0, channel=0, data=[55, 0]),
   midi.NoteOnEvent(tick=0, channel=0, data=[57, 0]),
   midi.NoteOnEvent(tick=0, channel=0, data=[50, 48]),
   midi.NoteOnEvent(tick=0, channel=0, data=[59, 56]),
   midi.NoteOnEvent(tick=0, channel=0, data=[55, 48]),
   midi.ControlChangeEvent(tick=4, channel=0, data=[64, 0]),
   midi.ControlChangeEvent(tick=151, channel=0, data=[64, 127]),
   midi.NoteOnEvent(tick=1045, channel=0, data=[55, 0]),
   midi.NoteOnEvent(tick=0, channel=0, data=[59, 0]),
   midi.NoteOnEvent(tick=0, channel=0, data=[50, 0]),
   midi.ControlChangeEvent(tick=10, channel=0, data=[64, 0]),
   midi.ControlChangeEvent(tick=159, channel=0, data=[64, 127]),
   midi.ControlChangeEvent(tick=799, channel=0, data=[64, 0]),
   midi.ControlChangeEvent(tick=133, channel=0, data=[64, 127]),
   midi.NoteOnEvent(tick=339, channel=0, data=[67, 60]),
   midi.NoteOnEvent(tick=240, channel=0, data=[67, 0]),
   midi.NoteOnEvent(tick=0, channel=0, data=[64, 60]),
   midi.ControlChangeEvent(tick=10, channel=0, data=[64, 0]),
   midi.ControlChangeEvent(tick=216, channel=0, data=[64, 127]),
   midi.NoteOnEvent(tick=254, channel=0, data=[64, 0]),
   midi.NoteOnEvent(tick=0, channel=0, data=[62, 57]),
   midi.NoteOnEvent(tick=240, channel=0, data=[62, 0]),
   midi.NoteOnEvent(tick=0, channel=0, data=[61, 57]),
   midi.ControlChangeEvent(tick=7, channel=0, data=[64, 0]),
   midi.ControlChangeEvent(tick=134, channel=0, data=[64, 127]),
   midi.NoteOnEvent(tick=339, channel=0, data=[61, 0]),
   midi.NoteOnEvent(tick=0, channel=0, data=[61, 57]),
   midi.NoteOnEvent(tick=0, channel=0, data=[64, 57]),
   midi.NoteOnEvent(tick=0, channel=0, data=[67, 57]),
   midi.NoteOnEvent(tick=228, channel=0, data=[67, 0]),
   midi.NoteOnEvent(tick=0, channel=0, data=[64, 0]),
   midi.NoteOnEvent(tick=0, channel=0, data=[61, 0]),
   midi.NoteOnEvent(tick=12, channel=0, data=[61, 53]),
   midi.NoteOnEvent(tick=0, channel=0, data=[64, 53]),
   midi.NoteOnEvent(tick=0, channel=0, data=[67, 53]),
   midi.ControlChangeEvent(tick=4, channel=0, data=[64, 0]),
   midi.ControlChangeEvent(tick=165, channel=0, data=[64, 127]),
   midi.ControlChangeEvent(tick=960, channel=0, data=[64, 0]),
   midi.NoteOnEvent(tick=71, channel=0, data=[67, 0]),
   midi.NoteOnEvent(tick=0, channel=0, data=[64, 0]),
   midi.NoteOnEvent(tick=0, channel=0, data=[61, 0]),
   midi.ControlChangeEvent(tick=226, channel=0, data=[64, 127]),
   midi.NoteOnEvent(tick=14, channel=0, data=[50, 34]),
   midi.NoteOnEvent(tick=0, channel=0, data=[57, 40]),
   midi.NoteOnEvent(tick=480, channel=0, data=[57, 0]),
   midi.NoteOnEvent(tick=0, channel=0, data=[50, 0]),
   midi.NoteOnEvent(tick=0, channel=0, data=[50, 34]),
   midi.NoteOnEvent(tick=0, channel=0, data=[62, 40]),
   midi.NoteOnEvent(tick=240, channel=0, data=[62, 0]),
   midi.NoteOnEvent(tick=0, channel=0, data=[50, 0]),
   midi.NoteOnEvent(tick=0, channel=0, data=[50, 31]),
   midi.NoteOnEvent(tick=0, channel=0, data=[60, 37]),
   midi.ControlChangeEvent(tick=10, channel=0, data=[64, 0]),
   midi.ControlChangeEvent(tick=174, channel=0, data=[64, 127]),
   midi.ControlChangeEvent(tick=917, channel=0, data=[64, 0]),
   midi.NoteOnEvent(tick=99, channel=0, data=[60, 0]),
   midi.NoteOnEvent(tick=0, channel=0, data=[50, 0]),
   midi.NoteOnEvent(tick=240, channel=0, data=[31, 34]),
   midi.NoteOnEvent(tick=0, channel=0, data=[43, 40]),
   midi.ControlChangeEvent(tick=14, channel=0, data=[64, 127]),
   midi.NoteOnEvent(tick=466, channel=0, data=[43, 0]),
   midi.NoteOnEvent(tick=0, channel=0, data=[31, 0]),
   midi.NoteOnEvent(tick=240, channel=0, data=[31, 35]),
   midi.NoteOnEvent(tick=0, channel=0, data=[43, 42]),
   midi.NoteOnEvent(tick=1200, channel=0, data=[43, 0]),
   midi.NoteOnEvent(tick=0, channel=0, data=[31, 0]),
   midi.NoteOnEvent(tick=240, channel=0, data=[31, 37]),
   midi.NoteOnEvent(tick=0, channel=0, data=[43, 44]),
   midi.NoteOnEvent(tick=480, channel=0, data=[43, 0]),
   midi.NoteOnEvent(tick=0, channel=0, data=[31, 0]),
   midi.NoteOnEvent(tick=240, channel=0, data=[38, 52]),
   midi.NoteOnEvent(tick=1200, channel=0, data=[38, 0]),
   midi.NoteOnEvent(tick=0, channel=0, data=[62, 45]),
   midi.NoteOnEvent(tick=0, channel=0, data=[71, 53]),
   midi.NoteOnEvent(tick=240, channel=0, data=[71, 0]),
   midi.NoteOnEvent(tick=0, channel=0, data=[62, 0]),
   midi.NoteOnEvent(tick=0, channel=0, data=[62, 47]),
   midi.NoteOnEvent(tick=0, channel=0, data=[71, 56]),
   midi.NoteOnEvent(tick=240, channel=0, data=[71, 0]),
   midi.NoteOnEvent(tick=0, channel=0, data=[62, 0]),
   midi.NoteOnEvent(tick=0, channel=0, data=[67, 52]),
   midi.NoteOnEvent(tick=240, channel=0, data=[67, 0]),
   midi.NoteOnEvent(tick=0, channel=0, data=[62, 52]),
   midi.NoteOnEvent(tick=228, channel=0, data=[62, 0]),
   midi.NoteOnEvent(tick=12, channel=0, data=[50, 50]),
   midi.NoteOnEvent(tick=0, channel=0, data=[62, 57]),
   midi.NoteOnEvent(tick=240, channel=0, data=[62, 0]),
   midi.NoteOnEvent(tick=0, channel=0, data=[50, 0]),
   midi.NoteOnEvent(tick=0, channel=0, data=[59, 51]),
   midi.NoteOnEvent(tick=240, channel=0, data=[59, 0]),
   midi.NoteOnEvent(tick=0, channel=0, data=[55, 51]),
   midi.NoteOnEvent(tick=240, channel=0, data=[55, 0]),
   midi.NoteOnEvent(tick=0, channel=0, data=[59, 54]),
   midi.NoteOnEvent(tick=720, channel=0, data=[59, 0]),
   midi.NoteOnEvent(tick=0, channel=0, data=[38, 32]),
   midi.NoteOnEvent(tick=0, channel=0, data=[50, 38]),
   midi.ControlChangeEvent(tick=10, channel=0, data=[64, 0]),
   midi.ControlChangeEvent(tick=131, channel=0, data=[64, 127]),
   midi.NoteOnEvent(tick=339, channel=0, data=[50, 0]),
   midi.NoteOnEvent(tick=0, channel=0, data=[38, 0]),
   midi.NoteOnEvent(tick=240, channel=0, data=[31, 30]),
   midi.NoteOnEvent(tick=0, channel=0, data=[43, 36]),
   midi.ControlChangeEvent(tick=5, channel=0, data=[64, 0]),
   midi.ControlChangeEvent(tick=334, channel=0, data=[64, 127]),
   midi.NoteOnEvent(tick=861, channel=0, data=[43, 0]),
   midi.NoteOnEvent(tick=0, channel=0, data=[31, 0]),
   midi.ControlChangeEvent(tick=960, channel=0, data=[64, 0]),
   midi.EndOfTrackEvent(tick=0, data=[])])])
midi.write_midifile("creationMidi.mid", pattern)