import midi
pattern=midi.Pattern(format=1, resolution=480, tracks=\
[midi.Track(\
[   midi.NoteOnEvent(tick=600, channel=0, data=[73, 43]),
   midi.NoteOnEvent(tick=0, channel=0, data=[77, 43]),
   midi.NoteOnEvent(tick=60, channel=0, data=[77, 0]),
   midi.NoteOnEvent(tick=0, channel=0, data=[73, 0]),
   midi.NoteOnEvent(tick=60, channel=0, data=[65, 40]),
   midi.NoteOnEvent(tick=0, channel=0, data=[73, 50]),
   midi.NoteOnEvent(tick=0, channel=0, data=[77, 50]),
   midi.NoteOnEvent(tick=120, channel=0, data=[77, 0]),
   midi.NoteOnEvent(tick=0, channel=0, data=[73, 0]),
   midi.NoteOnEvent(tick=0, channel=0, data=[73, 45]),
   midi.NoteOnEvent(tick=0, channel=0, data=[70, 45]),
   midi.NoteOnEvent(tick=120, channel=0, data=[70, 0]),
   midi.NoteOnEvent(tick=0, channel=0, data=[73, 0]),
   midi.NoteOnEvent(tick=0, channel=0, data=[65, 0]),
   midi.NoteOnEvent(tick=0, channel=0, data=[77, 45]),
   midi.NoteOnEvent(tick=0, channel=0, data=[73, 45]),
   midi.NoteOnEvent(tick=60, channel=0, data=[73, 0]),
   midi.NoteOnEvent(tick=0, channel=0, data=[77, 0]),
   midi.NoteOnEvent(tick=60, channel=0, data=[65, 40]),
   midi.NoteOnEvent(tick=0, channel=0, data=[73, 50]),
   midi.NoteOnEvent(tick=0, channel=0, data=[77, 50]),
   midi.NoteOnEvent(tick=120, channel=0, data=[77, 0]),
   midi.NoteOnEvent(tick=0, channel=0, data=[73, 0]),
   midi.NoteOnEvent(tick=0, channel=0, data=[73, 46]),
   midi.NoteOnEvent(tick=0, channel=0, data=[70, 46]),
   midi.NoteOnEvent(tick=120, channel=0, data=[70, 0]),
   midi.NoteOnEvent(tick=0, channel=0, data=[73, 0]),
   midi.NoteOnEvent(tick=0, channel=0, data=[65, 0]),
   midi.NoteOnEvent(tick=0, channel=0, data=[77, 46]),
   midi.NoteOnEvent(tick=0, channel=0, data=[73, 46]),
   midi.NoteOnEvent(tick=60, channel=0, data=[73, 0]),
   midi.NoteOnEvent(tick=0, channel=0, data=[77, 0]),
   midi.NoteOnEvent(tick=60, channel=0, data=[65, 40]),
   midi.NoteOnEvent(tick=0, channel=0, data=[73, 50]),
   midi.NoteOnEvent(tick=0, channel=0, data=[77, 50]),
   midi.NoteOnEvent(tick=120, channel=0, data=[77, 0]),
   midi.NoteOnEvent(tick=0, channel=0, data=[73, 0]),
   midi.NoteOnEvent(tick=0, channel=0, data=[73, 45]),
   midi.NoteOnEvent(tick=0, channel=0, data=[70, 45]),
   midi.NoteOnEvent(tick=120, channel=0, data=[70, 0]),
   midi.NoteOnEvent(tick=0, channel=0, data=[73, 0]),
   midi.NoteOnEvent(tick=0, channel=0, data=[65, 0]),
   midi.NoteOnEvent(tick=0, channel=0, data=[77, 45]),
   midi.NoteOnEvent(tick=0, channel=0, data=[73, 45]),
   midi.NoteOnEvent(tick=60, channel=0, data=[73, 0]),
   midi.NoteOnEvent(tick=0, channel=0, data=[77, 0]),
   midi.NoteOnEvent(tick=60, channel=0, data=[65, 40]),
   midi.NoteOnEvent(tick=0, channel=0, data=[73, 50]),
   midi.NoteOnEvent(tick=0, channel=0, data=[77, 50]),
   midi.NoteOnEvent(tick=120, channel=0, data=[77, 0]),
   midi.NoteOnEvent(tick=0, channel=0, data=[73, 0]),
   midi.NoteOnEvent(tick=0, channel=0, data=[73, 46]),
   midi.NoteOnEvent(tick=0, channel=0, data=[70, 46]),
   midi.NoteOnEvent(tick=120, channel=0, data=[70, 0]),
   midi.NoteOnEvent(tick=0, channel=0, data=[73, 0]),
   midi.NoteOnEvent(tick=0, channel=0, data=[65, 0]),
   midi.NoteOnEvent(tick=0, channel=0, data=[77, 46]),
   midi.NoteOnEvent(tick=0, channel=0, data=[73, 46]),
   midi.NoteOnEvent(tick=60, channel=0, data=[73, 0]),
   midi.NoteOnEvent(tick=0, channel=0, data=[77, 0]),
   midi.NoteOnEvent(tick=60, channel=0, data=[66, 71]),
   midi.NoteOnEvent(tick=0, channel=0, data=[73, 50]),
   midi.NoteOnEvent(tick=120, channel=0, data=[73, 0]),
   midi.NoteOnEvent(tick=0, channel=0, data=[70, 45]),
   midi.NoteOnEvent(tick=120, channel=0, data=[70, 0]),
   midi.NoteOnEvent(tick=0, channel=0, data=[73, 45]),
   midi.NoteOnEvent(tick=60, channel=0, data=[73, 0]),
   midi.NoteOnEvent(tick=60, channel=0, data=[73, 50]),
   midi.NoteOnEvent(tick=120, channel=0, data=[73, 0]),
   midi.NoteOnEvent(tick=0, channel=0, data=[70, 46]),
   midi.NoteOnEvent(tick=120, channel=0, data=[70, 0]),
   midi.NoteOnEvent(tick=0, channel=0, data=[66, 0]),
   midi.NoteOnEvent(tick=0, channel=0, data=[65, 60]),
   midi.NoteOnEvent(tick=0, channel=0, data=[73, 46]),
   midi.NoteOnEvent(tick=60, channel=0, data=[73, 0]),
   midi.NoteOnEvent(tick=60, channel=0, data=[65, 0]),
   midi.NoteOnEvent(tick=0, channel=0, data=[64, 72]),
   midi.NoteOnEvent(tick=0, channel=0, data=[73, 50]),
   midi.NoteOnEvent(tick=120, channel=0, data=[73, 0]),
   midi.NoteOnEvent(tick=0, channel=0, data=[70, 45]),
   midi.NoteOnEvent(tick=120, channel=0, data=[70, 0]),
   midi.NoteOnEvent(tick=0, channel=0, data=[73, 45]),
   midi.NoteOnEvent(tick=60, channel=0, data=[73, 0]),
   midi.NoteOnEvent(tick=60, channel=0, data=[73, 50]),
   midi.NoteOnEvent(tick=120, channel=0, data=[73, 0]),
   midi.NoteOnEvent(tick=0, channel=0, data=[70, 46]),
   midi.NoteOnEvent(tick=60, channel=0, data=[64, 0]),
   midi.NoteOnEvent(tick=60, channel=0, data=[70, 0]),
   midi.NoteOnEvent(tick=0, channel=0, data=[73, 61]),
   midi.NoteOnEvent(tick=0, channel=0, data=[64, 60]),
   midi.NoteOnEvent(tick=60, channel=0, data=[73, 0]),
   midi.NoteOnEvent(tick=60, channel=0, data=[64, 0]),
   midi.NoteOnEvent(tick=0, channel=0, data=[65, 75]),
   midi.NoteOnEvent(tick=120, channel=0, data=[60, 54]),
   midi.NoteOnEvent(tick=0, channel=0, data=[63, 54]),
   midi.NoteOnEvent(tick=60, channel=0, data=[63, 0]),
   midi.NoteOnEvent(tick=0, channel=0, data=[60, 0]),
   midi.NoteOnEvent(tick=60, channel=0, data=[60, 54]),
   midi.NoteOnEvent(tick=0, channel=0, data=[63, 54]),
   midi.NoteOnEvent(tick=60, channel=0, data=[63, 0]),
   midi.NoteOnEvent(tick=0, channel=0, data=[60, 0]),
   midi.NoteOnEvent(tick=60, channel=0, data=[60, 54]),
   midi.NoteOnEvent(tick=0, channel=0, data=[63, 54]),
   midi.NoteOnEvent(tick=60, channel=0, data=[63, 0]),
   midi.NoteOnEvent(tick=0, channel=0, data=[60, 0]),
   midi.NoteOnEvent(tick=60, channel=0, data=[65, 0]),
   midi.NoteOnEvent(tick=0, channel=0, data=[58, 54]),
   midi.NoteOnEvent(tick=0, channel=0, data=[67, 56]),
   midi.NoteOnEvent(tick=60, channel=0, data=[67, 0]),
   midi.NoteOnEvent(tick=0, channel=0, data=[58, 0]),
   midi.NoteOnEvent(tick=60, channel=0, data=[60, 54]),
   midi.NoteOnEvent(tick=0, channel=0, data=[69, 61]),
   midi.NoteOnEvent(tick=60, channel=0, data=[69, 0]),
   midi.NoteOnEvent(tick=0, channel=0, data=[60, 0]),
   midi.NoteOnEvent(tick=0, channel=0, data=[72, 64]),
   midi.NoteOnEvent(tick=60, channel=0, data=[72, 0]),
   midi.NoteOnEvent(tick=0, channel=0, data=[61, 61]),
   midi.NoteOnEvent(tick=0, channel=0, data=[70, 73]),
   midi.NoteOnEvent(tick=60, channel=0, data=[70, 0]),
   midi.NoteOnEvent(tick=0, channel=0, data=[61, 0]),
   midi.NoteOnEvent(tick=60, channel=0, data=[60, 54]),
   midi.NoteOnEvent(tick=0, channel=0, data=[69, 63]),
   midi.NoteOnEvent(tick=60, channel=0, data=[69, 0]),
   midi.NoteOnEvent(tick=0, channel=0, data=[60, 0]),
   midi.NoteOnEvent(tick=60, channel=0, data=[61, 53]),
   midi.NoteOnEvent(tick=0, channel=0, data=[70, 63]),
   midi.NoteOnEvent(tick=60, channel=0, data=[70, 0]),
   midi.NoteOnEvent(tick=0, channel=0, data=[61, 0]),
   midi.NoteOnEvent(tick=60, channel=0, data=[65, 60]),
   midi.NoteOnEvent(tick=0, channel=0, data=[73, 71]),
   midi.NoteOnEvent(tick=60, channel=0, data=[73, 0]),
   midi.NoteOnEvent(tick=0, channel=0, data=[65, 0]),
   midi.NoteOnEvent(tick=60, channel=0, data=[63, 53]),
   midi.NoteOnEvent(tick=0, channel=0, data=[72, 63]),
   midi.NoteOnEvent(tick=60, channel=0, data=[72, 0]),
   midi.NoteOnEvent(tick=0, channel=0, data=[63, 0]),
   midi.NoteOnEvent(tick=60, channel=0, data=[61, 58]),
   midi.NoteOnEvent(tick=0, channel=0, data=[70, 70]),
   midi.NoteOnEvent(tick=60, channel=0, data=[70, 0]),
   midi.NoteOnEvent(tick=0, channel=0, data=[61, 0]),
   midi.NoteOnEvent(tick=60, channel=0, data=[61, 70]),
   midi.NoteOnEvent(tick=0, channel=0, data=[70, 82]),
   midi.NoteOnEvent(tick=360, channel=0, data=[64, 66]),
   midi.NoteOnEvent(tick=360, channel=0, data=[64, 0]),
   midi.NoteOnEvent(tick=0, channel=0, data=[70, 0]),
   midi.NoteOnEvent(tick=0, channel=0, data=[61, 0]),
   midi.NoteOnEvent(tick=0, channel=0, data=[60, 67]),
   midi.NoteOnEvent(tick=0, channel=0, data=[65, 67]),
   midi.NoteOnEvent(tick=0, channel=0, data=[69, 80]),
   midi.NoteOnEvent(tick=360, channel=0, data=[69, 0]),
   midi.NoteOnEvent(tick=0, channel=0, data=[65, 0]),
   midi.NoteOnEvent(tick=0, channel=0, data=[60, 0]),
   midi.NoteOnEvent(tick=240, channel=0, data=[73, 43]),
   midi.NoteOnEvent(tick=0, channel=0, data=[77, 43]),
   midi.NoteOnEvent(tick=60, channel=0, data=[77, 0]),
   midi.NoteOnEvent(tick=0, channel=0, data=[73, 0]),
   midi.NoteOnEvent(tick=60, channel=0, data=[65, 40]),
   midi.NoteOnEvent(tick=0, channel=0, data=[73, 50]),
   midi.NoteOnEvent(tick=0, channel=0, data=[77, 50]),
   midi.NoteOnEvent(tick=120, channel=0, data=[77, 0]),
   midi.NoteOnEvent(tick=0, channel=0, data=[73, 0]),
   midi.NoteOnEvent(tick=0, channel=0, data=[73, 45]),
   midi.NoteOnEvent(tick=0, channel=0, data=[70, 45]),
   midi.NoteOnEvent(tick=120, channel=0, data=[70, 0]),
   midi.NoteOnEvent(tick=0, channel=0, data=[73, 0]),
   midi.NoteOnEvent(tick=0, channel=0, data=[65, 0]),
   midi.NoteOnEvent(tick=0, channel=0, data=[77, 45]),
   midi.NoteOnEvent(tick=0, channel=0, data=[73, 45]),
   midi.NoteOnEvent(tick=60, channel=0, data=[73, 0]),
   midi.NoteOnEvent(tick=0, channel=0, data=[77, 0]),
   midi.NoteOnEvent(tick=60, channel=0, data=[65, 41]),
   midi.NoteOnEvent(tick=0, channel=0, data=[73, 51]),
   midi.NoteOnEvent(tick=0, channel=0, data=[77, 51]),
   midi.NoteOnEvent(tick=120, channel=0, data=[77, 0]),
   midi.NoteOnEvent(tick=0, channel=0, data=[73, 0]),
   midi.NoteOnEvent(tick=0, channel=0, data=[73, 48]),
   midi.NoteOnEvent(tick=0, channel=0, data=[70, 48]),
   midi.NoteOnEvent(tick=120, channel=0, data=[70, 0]),
   midi.NoteOnEvent(tick=0, channel=0, data=[73, 0]),
   midi.NoteOnEvent(tick=0, channel=0, data=[65, 0]),
   midi.NoteOnEvent(tick=0, channel=0, data=[77, 48]),
   midi.NoteOnEvent(tick=0, channel=0, data=[73, 48]),
   midi.NoteOnEvent(tick=60, channel=0, data=[73, 0]),
   midi.NoteOnEvent(tick=0, channel=0, data=[77, 0]),
   midi.NoteOnEvent(tick=60, channel=0, data=[65, 42]),
   midi.NoteOnEvent(tick=0, channel=0, data=[73, 53]),
   midi.NoteOnEvent(tick=0, channel=0, data=[77, 53]),
   midi.NoteOnEvent(tick=120, channel=0, data=[77, 0]),
   midi.NoteOnEvent(tick=0, channel=0, data=[73, 0]),
   midi.NoteOnEvent(tick=0, channel=0, data=[73, 50]),
   midi.NoteOnEvent(tick=0, channel=0, data=[70, 50]),
   midi.NoteOnEvent(tick=120, channel=0, data=[70, 0]),
   midi.NoteOnEvent(tick=0, channel=0, data=[73, 0]),
   midi.NoteOnEvent(tick=0, channel=0, data=[65, 0]),
   midi.NoteOnEvent(tick=0, channel=0, data=[77, 55]),
   midi.NoteOnEvent(tick=0, channel=0, data=[73, 55]),
   midi.NoteOnEvent(tick=60, channel=0, data=[73, 0]),
   midi.NoteOnEvent(tick=0, channel=0, data=[77, 0]),
   midi.NoteOnEvent(tick=60, channel=0, data=[65, 53]),
   midi.NoteOnEvent(tick=0, channel=0, data=[73, 66]),
   midi.NoteOnEvent(tick=0, channel=0, data=[77, 66]),
   midi.NoteOnEvent(tick=120, channel=0, data=[77, 0]),
   midi.NoteOnEvent(tick=0, channel=0, data=[73, 0]),
   midi.NoteOnEvent(tick=0, channel=0, data=[73, 63]),
   midi.NoteOnEvent(tick=0, channel=0, data=[70, 63]),
   midi.NoteOnEvent(tick=120, channel=0, data=[70, 0]),
   midi.NoteOnEvent(tick=0, channel=0, data=[73, 0]),
   midi.NoteOnEvent(tick=0, channel=0, data=[65, 0]),
   midi.NoteOnEvent(tick=0, channel=0, data=[77, 68]),
   midi.NoteOnEvent(tick=0, channel=0, data=[73, 68]),
   midi.NoteOnEvent(tick=60, channel=0, data=[73, 0]),
   midi.NoteOnEvent(tick=0, channel=0, data=[77, 0]),
   midi.NoteOnEvent(tick=60, channel=0, data=[68, 58]),
   midi.NoteOnEvent(tick=0, channel=0, data=[77, 66]),
   midi.NoteOnEvent(tick=0, channel=0, data=[80, 82]),
   midi.NoteOnEvent(tick=360, channel=0, data=[80, 0]),
   midi.NoteOnEvent(tick=0, channel=0, data=[77, 0]),
   midi.NoteOnEvent(tick=0, channel=0, data=[68, 0]),
   midi.NoteOnEvent(tick=0, channel=0, data=[66, 56]),
   midi.NoteOnEvent(tick=0, channel=0, data=[75, 56]),
   midi.NoteOnEvent(tick=0, channel=0, data=[78, 66]),
   midi.NoteOnEvent(tick=240, channel=0, data=[78, 0]),
   midi.NoteOnEvent(tick=0, channel=0, data=[75, 0]),
   midi.NoteOnEvent(tick=0, channel=0, data=[66, 0]),
   midi.NoteOnEvent(tick=0, channel=0, data=[65, 56]),
   midi.NoteOnEvent(tick=0, channel=0, data=[73, 56]),
   midi.NoteOnEvent(tick=0, channel=0, data=[77, 66]),
   midi.NoteOnEvent(tick=60, channel=0, data=[77, 0]),
   midi.NoteOnEvent(tick=0, channel=0, data=[73, 0]),
   midi.NoteOnEvent(tick=0, channel=0, data=[65, 0]),
   midi.NoteOnEvent(tick=60, channel=0, data=[65, 58]),
   midi.NoteOnEvent(tick=0, channel=0, data=[73, 67]),
   midi.NoteOnEvent(tick=0, channel=0, data=[77, 82]),
   midi.NoteOnEvent(tick=360, channel=0, data=[77, 0]),
   midi.NoteOnEvent(tick=0, channel=0, data=[73, 0]),
   midi.NoteOnEvent(tick=0, channel=0, data=[65, 0]),
   midi.NoteOnEvent(tick=0, channel=0, data=[63, 56]),
   midi.NoteOnEvent(tick=0, channel=0, data=[72, 56]),
   midi.NoteOnEvent(tick=0, channel=0, data=[75, 66]),
   midi.NoteOnEvent(tick=240, channel=0, data=[75, 0]),
   midi.NoteOnEvent(tick=0, channel=0, data=[72, 0]),
   midi.NoteOnEvent(tick=0, channel=0, data=[63, 0]),
   midi.NoteOnEvent(tick=120, channel=0, data=[65, 58]),
   midi.NoteOnEvent(tick=0, channel=0, data=[68, 66]),
   midi.NoteOnEvent(tick=0, channel=0, data=[77, 82]),
   midi.NoteOnEvent(tick=360, channel=0, data=[77, 0]),
   midi.NoteOnEvent(tick=0, channel=0, data=[65, 0]),
   midi.NoteOnEvent(tick=0, channel=0, data=[73, 69]),
   midi.NoteOnEvent(tick=240, channel=0, data=[73, 0]),
   midi.NoteOnEvent(tick=0, channel=0, data=[72, 65]),
   midi.NoteOnEvent(tick=90, channel=0, data=[72, 0]),
   midi.NoteOnEvent(tick=30, channel=0, data=[68, 0]),
   midi.NoteOnEvent(tick=0, channel=0, data=[68, 69]),
   midi.NoteOnEvent(tick=0, channel=0, data=[72, 69]),
   midi.NoteOnEvent(tick=240, channel=0, data=[72, 0]),
   midi.NoteOnEvent(tick=0, channel=0, data=[68, 0]),
   midi.NoteOnEvent(tick=0, channel=0, data=[66, 65]),
   midi.NoteOnEvent(tick=0, channel=0, data=[70, 65]),
   midi.NoteOnEvent(tick=90, channel=0, data=[70, 0]),
   midi.NoteOnEvent(tick=0, channel=0, data=[66, 0]),
   midi.NoteOnEvent(tick=30, channel=0, data=[73, 69]),
   midi.NoteOnEvent(tick=240, channel=0, data=[73, 0]),
   midi.NoteOnEvent(tick=0, channel=0, data=[66, 65]),
   midi.NoteOnEvent(tick=0, channel=0, data=[70, 65]),
   midi.NoteOnEvent(tick=90, channel=0, data=[70, 0]),
   midi.NoteOnEvent(tick=0, channel=0, data=[66, 0]),
   midi.NoteOnEvent(tick=30, channel=0, data=[66, 69]),
   midi.NoteOnEvent(tick=0, channel=0, data=[70, 69]),
   midi.NoteOnEvent(tick=240, channel=0, data=[70, 0]),
   midi.NoteOnEvent(tick=0, channel=0, data=[66, 0]),
   midi.NoteOnEvent(tick=0, channel=0, data=[65, 65]),
   midi.NoteOnEvent(tick=0, channel=0, data=[68, 65]),
   midi.NoteOnEvent(tick=90, channel=0, data=[68, 0]),
   midi.NoteOnEvent(tick=0, channel=0, data=[65, 0]),
   midi.NoteOnEvent(tick=30, channel=0, data=[73, 69]),
   midi.NoteOnEvent(tick=240, channel=0, data=[73, 0]),
   midi.NoteOnEvent(tick=0, channel=0, data=[65, 65]),
   midi.NoteOnEvent(tick=0, channel=0, data=[68, 65]),
   midi.NoteOnEvent(tick=90, channel=0, data=[68, 0]),
   midi.NoteOnEvent(tick=0, channel=0, data=[65, 0]),
   midi.NoteOnEvent(tick=30, channel=0, data=[65, 69]),
   midi.NoteOnEvent(tick=0, channel=0, data=[68, 69]),
   midi.NoteOnEvent(tick=240, channel=0, data=[68, 0]),
   midi.NoteOnEvent(tick=0, channel=0, data=[65, 0]),
   midi.NoteOnEvent(tick=0, channel=0, data=[69, 61]),
   midi.NoteOnEvent(tick=120, channel=0, data=[69, 0]),
   midi.NoteOnEvent(tick=0, channel=0, data=[60, 49]),
   midi.NoteOnEvent(tick=0, channel=0, data=[66, 49]),
   midi.NoteOnEvent(tick=0, channel=0, data=[70, 62]),
   midi.NoteOnEvent(tick=240, channel=0, data=[70, 0]),
   midi.NoteOnEvent(tick=0, channel=0, data=[66, 0]),
   midi.NoteOnEvent(tick=0, channel=0, data=[60, 0]),
   midi.NoteOnEvent(tick=0, channel=0, data=[63, 54]),
   midi.NoteOnEvent(tick=0, channel=0, data=[66, 54]),
   midi.NoteOnEvent(tick=90, channel=0, data=[66, 0]),
   midi.NoteOnEvent(tick=0, channel=0, data=[63, 0]),
   midi.NoteOnEvent(tick=30, channel=0, data=[66, 58]),
   midi.NoteOnEvent(tick=0, channel=0, data=[63, 49]),
   midi.NoteOnEvent(tick=0, channel=0, data=[60, 49]),
   midi.NoteOnEvent(tick=360, channel=0, data=[60, 0]),
   midi.NoteOnEvent(tick=0, channel=0, data=[63, 0]),
   midi.NoteOnEvent(tick=0, channel=0, data=[66, 0]),
   midi.NoteOnEvent(tick=0, channel=0, data=[61, 41]),
   midi.NoteOnEvent(tick=0, channel=0, data=[65, 49]),
   midi.NoteOnEvent(tick=360, channel=0, data=[65, 0]),
   midi.NoteOnEvent(tick=0, channel=0, data=[61, 0]),
   midi.NoteOnEvent(tick=600, channel=0, data=[73, 43]),
   midi.NoteOnEvent(tick=0, channel=0, data=[77, 43]),
   midi.NoteOnEvent(tick=60, channel=0, data=[77, 0]),
   midi.NoteOnEvent(tick=0, channel=0, data=[73, 0]),
   midi.NoteOnEvent(tick=60, channel=0, data=[65, 40]),
   midi.NoteOnEvent(tick=0, channel=0, data=[73, 50]),
   midi.NoteOnEvent(tick=0, channel=0, data=[77, 50]),
   midi.NoteOnEvent(tick=120, channel=0, data=[77, 0]),
   midi.NoteOnEvent(tick=0, channel=0, data=[73, 0]),
   midi.NoteOnEvent(tick=0, channel=0, data=[73, 45]),
   midi.NoteOnEvent(tick=0, channel=0, data=[70, 45]),
   midi.NoteOnEvent(tick=120, channel=0, data=[70, 0]),
   midi.NoteOnEvent(tick=0, channel=0, data=[73, 0]),
   midi.NoteOnEvent(tick=0, channel=0, data=[65, 0]),
   midi.NoteOnEvent(tick=0, channel=0, data=[77, 45]),
   midi.NoteOnEvent(tick=0, channel=0, data=[73, 45]),
   midi.NoteOnEvent(tick=60, channel=0, data=[73, 0]),
   midi.NoteOnEvent(tick=0, channel=0, data=[77, 0]),
   midi.NoteOnEvent(tick=60, channel=0, data=[65, 40]),
   midi.NoteOnEvent(tick=0, channel=0, data=[73, 50]),
   midi.NoteOnEvent(tick=0, channel=0, data=[77, 50]),
   midi.NoteOnEvent(tick=120, channel=0, data=[77, 0]),
   midi.NoteOnEvent(tick=0, channel=0, data=[73, 0]),
   midi.NoteOnEvent(tick=0, channel=0, data=[73, 46]),
   midi.NoteOnEvent(tick=0, channel=0, data=[70, 46]),
   midi.NoteOnEvent(tick=120, channel=0, data=[70, 0]),
   midi.NoteOnEvent(tick=0, channel=0, data=[73, 0]),
   midi.NoteOnEvent(tick=0, channel=0, data=[65, 0]),
   midi.NoteOnEvent(tick=0, channel=0, data=[77, 46]),
   midi.NoteOnEvent(tick=0, channel=0, data=[73, 46]),
   midi.NoteOnEvent(tick=60, channel=0, data=[73, 0]),
   midi.NoteOnEvent(tick=0, channel=0, data=[77, 0]),
   midi.NoteOnEvent(tick=60, channel=0, data=[65, 40]),
   midi.NoteOnEvent(tick=0, channel=0, data=[73, 50]),
   midi.NoteOnEvent(tick=0, channel=0, data=[77, 50]),
   midi.NoteOnEvent(tick=120, channel=0, data=[77, 0]),
   midi.NoteOnEvent(tick=0, channel=0, data=[73, 0]),
   midi.NoteOnEvent(tick=0, channel=0, data=[73, 45]),
   midi.NoteOnEvent(tick=0, channel=0, data=[70, 45]),
   midi.NoteOnEvent(tick=120, channel=0, data=[70, 0]),
   midi.NoteOnEvent(tick=0, channel=0, data=[73, 0]),
   midi.NoteOnEvent(tick=0, channel=0, data=[65, 0]),
   midi.NoteOnEvent(tick=0, channel=0, data=[77, 45]),
   midi.NoteOnEvent(tick=0, channel=0, data=[73, 45]),
   midi.NoteOnEvent(tick=60, channel=0, data=[73, 0]),
   midi.NoteOnEvent(tick=0, channel=0, data=[77, 0]),
   midi.NoteOnEvent(tick=60, channel=0, data=[65, 40]),
   midi.NoteOnEvent(tick=0, channel=0, data=[73, 50]),
   midi.NoteOnEvent(tick=0, channel=0, data=[77, 50]),
   midi.NoteOnEvent(tick=120, channel=0, data=[77, 0]),
   midi.NoteOnEvent(tick=0, channel=0, data=[73, 0]),
   midi.NoteOnEvent(tick=0, channel=0, data=[73, 46]),
   midi.NoteOnEvent(tick=0, channel=0, data=[70, 46]),
   midi.NoteOnEvent(tick=120, channel=0, data=[70, 0]),
   midi.NoteOnEvent(tick=0, channel=0, data=[73, 0]),
   midi.NoteOnEvent(tick=0, channel=0, data=[65, 0]),
   midi.NoteOnEvent(tick=0, channel=0, data=[77, 46]),
   midi.NoteOnEvent(tick=0, channel=0, data=[73, 46]),
   midi.NoteOnEvent(tick=60, channel=0, data=[73, 0]),
   midi.NoteOnEvent(tick=0, channel=0, data=[77, 0]),
   midi.NoteOnEvent(tick=60, channel=0, data=[66, 71]),
   midi.NoteOnEvent(tick=0, channel=0, data=[73, 50]),
   midi.NoteOnEvent(tick=120, channel=0, data=[73, 0]),
   midi.NoteOnEvent(tick=0, channel=0, data=[70, 45]),
   midi.NoteOnEvent(tick=120, channel=0, data=[70, 0]),
   midi.NoteOnEvent(tick=0, channel=0, data=[73, 45]),
   midi.NoteOnEvent(tick=60, channel=0, data=[73, 0]),
   midi.NoteOnEvent(tick=60, channel=0, data=[73, 50]),
   midi.NoteOnEvent(tick=120, channel=0, data=[73, 0]),
   midi.NoteOnEvent(tick=0, channel=0, data=[70, 46]),
   midi.NoteOnEvent(tick=120, channel=0, data=[70, 0]),
   midi.NoteOnEvent(tick=0, channel=0, data=[66, 0]),
   midi.NoteOnEvent(tick=0, channel=0, data=[65, 60]),
   midi.NoteOnEvent(tick=0, channel=0, data=[73, 46]),
   midi.NoteOnEvent(tick=60, channel=0, data=[73, 0]),
   midi.NoteOnEvent(tick=60, channel=0, data=[65, 0]),
   midi.NoteOnEvent(tick=0, channel=0, data=[64, 72]),
   midi.NoteOnEvent(tick=0, channel=0, data=[73, 50]),
   midi.NoteOnEvent(tick=120, channel=0, data=[73, 0]),
   midi.NoteOnEvent(tick=0, channel=0, data=[70, 45]),
   midi.NoteOnEvent(tick=120, channel=0, data=[70, 0]),
   midi.NoteOnEvent(tick=0, channel=0, data=[73, 45]),
   midi.NoteOnEvent(tick=60, channel=0, data=[73, 0]),
   midi.NoteOnEvent(tick=60, channel=0, data=[73, 50]),
   midi.NoteOnEvent(tick=120, channel=0, data=[73, 0]),
   midi.NoteOnEvent(tick=0, channel=0, data=[70, 46]),
   midi.NoteOnEvent(tick=60, channel=0, data=[64, 0]),
   midi.NoteOnEvent(tick=60, channel=0, data=[70, 0]),
   midi.NoteOnEvent(tick=0, channel=0, data=[73, 61]),
   midi.NoteOnEvent(tick=0, channel=0, data=[64, 60]),
   midi.NoteOnEvent(tick=60, channel=0, data=[73, 0]),
   midi.NoteOnEvent(tick=60, channel=0, data=[64, 0]),
   midi.NoteOnEvent(tick=0, channel=0, data=[65, 75]),
   midi.NoteOnEvent(tick=120, channel=0, data=[60, 54]),
   midi.NoteOnEvent(tick=0, channel=0, data=[63, 54]),
   midi.NoteOnEvent(tick=60, channel=0, data=[63, 0]),
   midi.NoteOnEvent(tick=0, channel=0, data=[60, 0]),
   midi.NoteOnEvent(tick=60, channel=0, data=[60, 54]),
   midi.NoteOnEvent(tick=0, channel=0, data=[63, 54]),
   midi.NoteOnEvent(tick=60, channel=0, data=[63, 0]),
   midi.NoteOnEvent(tick=0, channel=0, data=[60, 0]),
   midi.NoteOnEvent(tick=60, channel=0, data=[60, 54]),
   midi.NoteOnEvent(tick=0, channel=0, data=[63, 54]),
   midi.NoteOnEvent(tick=60, channel=0, data=[63, 0]),
   midi.NoteOnEvent(tick=0, channel=0, data=[60, 0]),
   midi.NoteOnEvent(tick=60, channel=0, data=[65, 0]),
   midi.NoteOnEvent(tick=0, channel=0, data=[58, 54]),
   midi.NoteOnEvent(tick=0, channel=0, data=[67, 56]),
   midi.NoteOnEvent(tick=60, channel=0, data=[67, 0]),
   midi.NoteOnEvent(tick=0, channel=0, data=[58, 0]),
   midi.NoteOnEvent(tick=60, channel=0, data=[60, 54]),
   midi.NoteOnEvent(tick=0, channel=0, data=[69, 61]),
   midi.NoteOnEvent(tick=60, channel=0, data=[69, 0]),
   midi.NoteOnEvent(tick=0, channel=0, data=[60, 0]),
   midi.NoteOnEvent(tick=0, channel=0, data=[72, 64]),
   midi.NoteOnEvent(tick=60, channel=0, data=[72, 0]),
   midi.NoteOnEvent(tick=0, channel=0, data=[61, 61]),
   midi.NoteOnEvent(tick=0, channel=0, data=[70, 73]),
   midi.NoteOnEvent(tick=60, channel=0, data=[70, 0]),
   midi.NoteOnEvent(tick=0, channel=0, data=[61, 0]),
   midi.NoteOnEvent(tick=60, channel=0, data=[60, 54]),
   midi.NoteOnEvent(tick=0, channel=0, data=[69, 63]),
   midi.NoteOnEvent(tick=60, channel=0, data=[69, 0]),
   midi.NoteOnEvent(tick=0, channel=0, data=[60, 0]),
   midi.NoteOnEvent(tick=60, channel=0, data=[61, 53]),
   midi.NoteOnEvent(tick=0, channel=0, data=[70, 63]),
   midi.NoteOnEvent(tick=60, channel=0, data=[70, 0]),
   midi.NoteOnEvent(tick=0, channel=0, data=[61, 0]),
   midi.NoteOnEvent(tick=60, channel=0, data=[65, 60]),
   midi.NoteOnEvent(tick=0, channel=0, data=[73, 71]),
   midi.NoteOnEvent(tick=60, channel=0, data=[73, 0]),
   midi.NoteOnEvent(tick=0, channel=0, data=[65, 0]),
   midi.NoteOnEvent(tick=60, channel=0, data=[63, 53]),
   midi.NoteOnEvent(tick=0, channel=0, data=[72, 63]),
   midi.NoteOnEvent(tick=60, channel=0, data=[72, 0]),
   midi.NoteOnEvent(tick=0, channel=0, data=[63, 0]),
   midi.NoteOnEvent(tick=60, channel=0, data=[61, 58]),
   midi.NoteOnEvent(tick=0, channel=0, data=[70, 70]),
   midi.NoteOnEvent(tick=60, channel=0, data=[70, 0]),
   midi.NoteOnEvent(tick=0, channel=0, data=[61, 0]),
   midi.NoteOnEvent(tick=60, channel=0, data=[61, 70]),
   midi.NoteOnEvent(tick=0, channel=0, data=[70, 82]),
   midi.NoteOnEvent(tick=360, channel=0, data=[64, 66]),
   midi.NoteOnEvent(tick=360, channel=0, data=[64, 0]),
   midi.NoteOnEvent(tick=0, channel=0, data=[70, 0]),
   midi.NoteOnEvent(tick=0, channel=0, data=[61, 0]),
   midi.NoteOnEvent(tick=0, channel=0, data=[60, 67]),
   midi.NoteOnEvent(tick=0, channel=0, data=[65, 67]),
   midi.NoteOnEvent(tick=0, channel=0, data=[69, 80]),
   midi.NoteOnEvent(tick=360, channel=0, data=[69, 0]),
   midi.NoteOnEvent(tick=0, channel=0, data=[65, 0]),
   midi.NoteOnEvent(tick=0, channel=0, data=[60, 0]),
   midi.NoteOnEvent(tick=240, channel=0, data=[73, 43]),
   midi.NoteOnEvent(tick=0, channel=0, data=[77, 43]),
   midi.NoteOnEvent(tick=60, channel=0, data=[77, 0]),
   midi.NoteOnEvent(tick=0, channel=0, data=[73, 0]),
   midi.NoteOnEvent(tick=60, channel=0, data=[65, 40]),
   midi.NoteOnEvent(tick=0, channel=0, data=[73, 50]),
   midi.NoteOnEvent(tick=0, channel=0, data=[77, 50]),
   midi.NoteOnEvent(tick=120, channel=0, data=[77, 0]),
   midi.NoteOnEvent(tick=0, channel=0, data=[73, 0]),
   midi.NoteOnEvent(tick=0, channel=0, data=[73, 45]),
   midi.NoteOnEvent(tick=0, channel=0, data=[70, 45]),
   midi.NoteOnEvent(tick=120, channel=0, data=[70, 0]),
   midi.NoteOnEvent(tick=0, channel=0, data=[73, 0]),
   midi.NoteOnEvent(tick=0, channel=0, data=[65, 0]),
   midi.NoteOnEvent(tick=0, channel=0, data=[77, 45]),
   midi.NoteOnEvent(tick=0, channel=0, data=[73, 45]),
   midi.NoteOnEvent(tick=60, channel=0, data=[73, 0]),
   midi.NoteOnEvent(tick=0, channel=0, data=[77, 0]),
   midi.NoteOnEvent(tick=60, channel=0, data=[65, 41]),
   midi.NoteOnEvent(tick=0, channel=0, data=[73, 51]),
   midi.NoteOnEvent(tick=0, channel=0, data=[77, 51]),
   midi.NoteOnEvent(tick=120, channel=0, data=[77, 0]),
   midi.NoteOnEvent(tick=0, channel=0, data=[73, 0]),
   midi.NoteOnEvent(tick=0, channel=0, data=[73, 48]),
   midi.NoteOnEvent(tick=0, channel=0, data=[70, 48]),
   midi.NoteOnEvent(tick=120, channel=0, data=[70, 0]),
   midi.NoteOnEvent(tick=0, channel=0, data=[73, 0]),
   midi.NoteOnEvent(tick=0, channel=0, data=[65, 0]),
   midi.NoteOnEvent(tick=0, channel=0, data=[77, 48]),
   midi.NoteOnEvent(tick=0, channel=0, data=[73, 48]),
   midi.NoteOnEvent(tick=60, channel=0, data=[73, 0]),
   midi.NoteOnEvent(tick=0, channel=0, data=[77, 0]),
   midi.NoteOnEvent(tick=60, channel=0, data=[65, 42]),
   midi.NoteOnEvent(tick=0, channel=0, data=[73, 53]),
   midi.NoteOnEvent(tick=0, channel=0, data=[77, 53]),
   midi.NoteOnEvent(tick=120, channel=0, data=[77, 0]),
   midi.NoteOnEvent(tick=0, channel=0, data=[73, 0]),
   midi.NoteOnEvent(tick=0, channel=0, data=[73, 50]),
   midi.NoteOnEvent(tick=0, channel=0, data=[70, 50]),
   midi.NoteOnEvent(tick=120, channel=0, data=[70, 0]),
   midi.NoteOnEvent(tick=0, channel=0, data=[73, 0]),
   midi.NoteOnEvent(tick=0, channel=0, data=[65, 0]),
   midi.NoteOnEvent(tick=0, channel=0, data=[77, 55]),
   midi.NoteOnEvent(tick=0, channel=0, data=[73, 55]),
   midi.NoteOnEvent(tick=60, channel=0, data=[73, 0]),
   midi.NoteOnEvent(tick=0, channel=0, data=[77, 0]),
   midi.NoteOnEvent(tick=60, channel=0, data=[65, 53]),
   midi.NoteOnEvent(tick=0, channel=0, data=[73, 66]),
   midi.NoteOnEvent(tick=0, channel=0, data=[77, 66]),
   midi.NoteOnEvent(tick=120, channel=0, data=[77, 0]),
   midi.NoteOnEvent(tick=0, channel=0, data=[73, 0]),
   midi.NoteOnEvent(tick=0, channel=0, data=[73, 63]),
   midi.NoteOnEvent(tick=0, channel=0, data=[70, 63]),
   midi.NoteOnEvent(tick=120, channel=0, data=[70, 0]),
   midi.NoteOnEvent(tick=0, channel=0, data=[73, 0]),
   midi.NoteOnEvent(tick=0, channel=0, data=[65, 0]),
   midi.NoteOnEvent(tick=0, channel=0, data=[77, 68]),
   midi.NoteOnEvent(tick=0, channel=0, data=[73, 68]),
   midi.NoteOnEvent(tick=60, channel=0, data=[73, 0]),
   midi.NoteOnEvent(tick=0, channel=0, data=[77, 0]),
   midi.NoteOnEvent(tick=60, channel=0, data=[68, 58]),
   midi.NoteOnEvent(tick=0, channel=0, data=[77, 66]),
   midi.NoteOnEvent(tick=0, channel=0, data=[80, 82]),
   midi.NoteOnEvent(tick=360, channel=0, data=[80, 0]),
   midi.NoteOnEvent(tick=0, channel=0, data=[77, 0]),
   midi.NoteOnEvent(tick=0, channel=0, data=[68, 0]),
   midi.NoteOnEvent(tick=0, channel=0, data=[66, 56]),
   midi.NoteOnEvent(tick=0, channel=0, data=[75, 56]),
   midi.NoteOnEvent(tick=0, channel=0, data=[78, 66]),
   midi.NoteOnEvent(tick=240, channel=0, data=[78, 0]),
   midi.NoteOnEvent(tick=0, channel=0, data=[75, 0]),
   midi.NoteOnEvent(tick=0, channel=0, data=[66, 0]),
   midi.NoteOnEvent(tick=0, channel=0, data=[65, 56]),
   midi.NoteOnEvent(tick=0, channel=0, data=[73, 56]),
   midi.NoteOnEvent(tick=0, channel=0, data=[77, 66]),
   midi.NoteOnEvent(tick=60, channel=0, data=[77, 0]),
   midi.NoteOnEvent(tick=0, channel=0, data=[73, 0]),
   midi.NoteOnEvent(tick=0, channel=0, data=[65, 0]),
   midi.NoteOnEvent(tick=60, channel=0, data=[65, 58]),
   midi.NoteOnEvent(tick=0, channel=0, data=[73, 67]),
   midi.NoteOnEvent(tick=0, channel=0, data=[77, 82]),
   midi.NoteOnEvent(tick=360, channel=0, data=[77, 0]),
   midi.NoteOnEvent(tick=0, channel=0, data=[73, 0]),
   midi.NoteOnEvent(tick=0, channel=0, data=[65, 0]),
   midi.NoteOnEvent(tick=0, channel=0, data=[63, 56]),
   midi.NoteOnEvent(tick=0, channel=0, data=[72, 56]),
   midi.NoteOnEvent(tick=0, channel=0, data=[75, 66]),
   midi.NoteOnEvent(tick=240, channel=0, data=[75, 0]),
   midi.NoteOnEvent(tick=0, channel=0, data=[72, 0]),
   midi.NoteOnEvent(tick=0, channel=0, data=[63, 0]),
   midi.NoteOnEvent(tick=120, channel=0, data=[65, 58]),
   midi.NoteOnEvent(tick=0, channel=0, data=[68, 66]),
   midi.NoteOnEvent(tick=0, channel=0, data=[77, 82]),
   midi.NoteOnEvent(tick=360, channel=0, data=[77, 0]),
   midi.NoteOnEvent(tick=0, channel=0, data=[65, 0]),
   midi.NoteOnEvent(tick=0, channel=0, data=[73, 69]),
   midi.NoteOnEvent(tick=240, channel=0, data=[73, 0]),
   midi.NoteOnEvent(tick=0, channel=0, data=[72, 65]),
   midi.NoteOnEvent(tick=90, channel=0, data=[72, 0]),
   midi.NoteOnEvent(tick=30, channel=0, data=[68, 0]),
   midi.NoteOnEvent(tick=0, channel=0, data=[68, 69]),
   midi.NoteOnEvent(tick=0, channel=0, data=[72, 69]),
   midi.NoteOnEvent(tick=240, channel=0, data=[72, 0]),
   midi.NoteOnEvent(tick=0, channel=0, data=[68, 0]),
   midi.NoteOnEvent(tick=0, channel=0, data=[66, 65]),
   midi.NoteOnEvent(tick=0, channel=0, data=[70, 65]),
   midi.NoteOnEvent(tick=90, channel=0, data=[70, 0]),
   midi.NoteOnEvent(tick=0, channel=0, data=[66, 0]),
   midi.NoteOnEvent(tick=30, channel=0, data=[73, 69]),
   midi.NoteOnEvent(tick=240, channel=0, data=[73, 0]),
   midi.NoteOnEvent(tick=0, channel=0, data=[66, 65]),
   midi.NoteOnEvent(tick=0, channel=0, data=[70, 65]),
   midi.NoteOnEvent(tick=90, channel=0, data=[70, 0]),
   midi.NoteOnEvent(tick=0, channel=0, data=[66, 0]),
   midi.NoteOnEvent(tick=30, channel=0, data=[66, 69]),
   midi.NoteOnEvent(tick=0, channel=0, data=[70, 69]),
   midi.NoteOnEvent(tick=240, channel=0, data=[70, 0]),
   midi.NoteOnEvent(tick=0, channel=0, data=[66, 0]),
   midi.NoteOnEvent(tick=0, channel=0, data=[65, 65]),
   midi.NoteOnEvent(tick=0, channel=0, data=[68, 65]),
   midi.NoteOnEvent(tick=90, channel=0, data=[68, 0]),
   midi.NoteOnEvent(tick=0, channel=0, data=[65, 0]),
   midi.NoteOnEvent(tick=30, channel=0, data=[73, 69]),
   midi.NoteOnEvent(tick=240, channel=0, data=[73, 0]),
   midi.NoteOnEvent(tick=0, channel=0, data=[65, 65]),
   midi.NoteOnEvent(tick=0, channel=0, data=[68, 65]),
   midi.NoteOnEvent(tick=90, channel=0, data=[68, 0]),
   midi.NoteOnEvent(tick=0, channel=0, data=[65, 0]),
   midi.NoteOnEvent(tick=30, channel=0, data=[65, 69]),
   midi.NoteOnEvent(tick=0, channel=0, data=[68, 69]),
   midi.NoteOnEvent(tick=240, channel=0, data=[68, 0]),
   midi.NoteOnEvent(tick=0, channel=0, data=[65, 0]),
   midi.NoteOnEvent(tick=0, channel=0, data=[69, 61]),
   midi.NoteOnEvent(tick=120, channel=0, data=[69, 0]),
   midi.NoteOnEvent(tick=0, channel=0, data=[60, 49]),
   midi.NoteOnEvent(tick=0, channel=0, data=[66, 49]),
   midi.NoteOnEvent(tick=0, channel=0, data=[70, 62]),
   midi.NoteOnEvent(tick=240, channel=0, data=[70, 0]),
   midi.NoteOnEvent(tick=0, channel=0, data=[66, 0]),
   midi.NoteOnEvent(tick=0, channel=0, data=[60, 0]),
   midi.NoteOnEvent(tick=0, channel=0, data=[63, 54]),
   midi.NoteOnEvent(tick=0, channel=0, data=[66, 54]),
   midi.NoteOnEvent(tick=90, channel=0, data=[66, 0]),
   midi.NoteOnEvent(tick=0, channel=0, data=[63, 0]),
   midi.NoteOnEvent(tick=30, channel=0, data=[66, 58]),
   midi.NoteOnEvent(tick=0, channel=0, data=[63, 49]),
   midi.NoteOnEvent(tick=0, channel=0, data=[60, 49]),
   midi.NoteOnEvent(tick=360, channel=0, data=[60, 0]),
   midi.NoteOnEvent(tick=0, channel=0, data=[63, 0]),
   midi.NoteOnEvent(tick=0, channel=0, data=[66, 0]),
   midi.NoteOnEvent(tick=0, channel=0, data=[61, 41]),
   midi.NoteOnEvent(tick=0, channel=0, data=[65, 49]),
   midi.NoteOnEvent(tick=360, channel=0, data=[65, 0]),
   midi.NoteOnEvent(tick=0, channel=0, data=[61, 0]),
   midi.NoteOnEvent(tick=600, channel=0, data=[63, 43]),
   midi.NoteOnEvent(tick=0, channel=0, data=[65, 43]),
   midi.NoteOnEvent(tick=60, channel=0, data=[65, 0]),
   midi.NoteOnEvent(tick=0, channel=0, data=[63, 0]),
   midi.NoteOnEvent(tick=60, channel=0, data=[62, 50]),
   midi.NoteOnEvent(tick=0, channel=0, data=[65, 50]),
   midi.NoteOnEvent(tick=120, channel=0, data=[65, 0]),
   midi.NoteOnEvent(tick=0, channel=0, data=[62, 0]),
   midi.NoteOnEvent(tick=0, channel=0, data=[70, 45]),
   midi.NoteOnEvent(tick=0, channel=0, data=[58, 45]),
   midi.NoteOnEvent(tick=120, channel=0, data=[58, 0]),
   midi.NoteOnEvent(tick=0, channel=0, data=[70, 0]),
   midi.NoteOnEvent(tick=0, channel=0, data=[65, 45]),
   midi.NoteOnEvent(tick=0, channel=0, data=[62, 45]),
   midi.NoteOnEvent(tick=60, channel=0, data=[62, 0]),
   midi.NoteOnEvent(tick=0, channel=0, data=[65, 0]),
   midi.NoteOnEvent(tick=60, channel=0, data=[62, 50]),
   midi.NoteOnEvent(tick=0, channel=0, data=[65, 50]),
   midi.NoteOnEvent(tick=120, channel=0, data=[65, 0]),
   midi.NoteOnEvent(tick=0, channel=0, data=[62, 0]),
   midi.NoteOnEvent(tick=0, channel=0, data=[70, 46]),
   midi.NoteOnEvent(tick=0, channel=0, data=[58, 46]),
   midi.NoteOnEvent(tick=120, channel=0, data=[58, 0]),
   midi.NoteOnEvent(tick=0, channel=0, data=[70, 0]),
   midi.NoteOnEvent(tick=0, channel=0, data=[65, 46]),
   midi.NoteOnEvent(tick=0, channel=0, data=[62, 46]),
   midi.NoteOnEvent(tick=60, channel=0, data=[62, 0]),
   midi.NoteOnEvent(tick=0, channel=0, data=[65, 0]),
   midi.NoteOnEvent(tick=60, channel=0, data=[58, 46]),
   midi.NoteOnEvent(tick=0, channel=0, data=[65, 46]),
   midi.NoteOnEvent(tick=0, channel=0, data=[68, 46]),
   midi.NoteOnEvent(tick=360, channel=0, data=[68, 0]),
   midi.NoteOnEvent(tick=0, channel=0, data=[65, 0]),
   midi.NoteOnEvent(tick=0, channel=0, data=[58, 0]),
   midi.NoteOnEvent(tick=0, channel=0, data=[63, 46]),
   midi.NoteOnEvent(tick=0, channel=0, data=[66, 46]),
   midi.NoteOnEvent(tick=120, channel=0, data=[66, 0]),
   midi.NoteOnEvent(tick=0, channel=0, data=[63, 0]),
   midi.NoteOnEvent(tick=120, channel=0, data=[63, 43]),
   midi.NoteOnEvent(tick=0, channel=0, data=[66, 43]),
   midi.NoteOnEvent(tick=60, channel=0, data=[66, 0]),
   midi.NoteOnEvent(tick=0, channel=0, data=[63, 0]),
   midi.NoteOnEvent(tick=60, channel=0, data=[62, 50]),
   midi.NoteOnEvent(tick=0, channel=0, data=[65, 50]),
   midi.NoteOnEvent(tick=120, channel=0, data=[65, 0]),
   midi.NoteOnEvent(tick=0, channel=0, data=[62, 0]),
   midi.NoteOnEvent(tick=0, channel=0, data=[70, 45]),
   midi.NoteOnEvent(tick=0, channel=0, data=[58, 45]),
   midi.NoteOnEvent(tick=120, channel=0, data=[58, 0]),
   midi.NoteOnEvent(tick=0, channel=0, data=[70, 0]),
   midi.NoteOnEvent(tick=0, channel=0, data=[65, 45]),
   midi.NoteOnEvent(tick=0, channel=0, data=[62, 45]),
   midi.NoteOnEvent(tick=60, channel=0, data=[62, 0]),
   midi.NoteOnEvent(tick=0, channel=0, data=[65, 0]),
   midi.NoteOnEvent(tick=60, channel=0, data=[62, 50]),
   midi.NoteOnEvent(tick=0, channel=0, data=[65, 50]),
   midi.NoteOnEvent(tick=120, channel=0, data=[65, 0]),
   midi.NoteOnEvent(tick=0, channel=0, data=[62, 0]),
   midi.NoteOnEvent(tick=0, channel=0, data=[70, 46]),
   midi.NoteOnEvent(tick=0, channel=0, data=[58, 46]),
   midi.NoteOnEvent(tick=120, channel=0, data=[58, 0]),
   midi.NoteOnEvent(tick=0, channel=0, data=[70, 0]),
   midi.NoteOnEvent(tick=0, channel=0, data=[65, 46]),
   midi.NoteOnEvent(tick=0, channel=0, data=[62, 46]),
   midi.NoteOnEvent(tick=60, channel=0, data=[62, 0]),
   midi.NoteOnEvent(tick=0, channel=0, data=[65, 0]),
   midi.NoteOnEvent(tick=60, channel=0, data=[58, 46]),
   midi.NoteOnEvent(tick=0, channel=0, data=[65, 46]),
   midi.NoteOnEvent(tick=0, channel=0, data=[68, 46]),
   midi.NoteOnEvent(tick=360, channel=0, data=[68, 0]),
   midi.NoteOnEvent(tick=0, channel=0, data=[65, 0]),
   midi.NoteOnEvent(tick=0, channel=0, data=[58, 0]),
   midi.NoteOnEvent(tick=0, channel=0, data=[63, 46]),
   midi.NoteOnEvent(tick=0, channel=0, data=[66, 46]),
   midi.NoteOnEvent(tick=120, channel=0, data=[66, 0]),
   midi.NoteOnEvent(tick=0, channel=0, data=[63, 0]),
   midi.NoteOnEvent(tick=120, channel=0, data=[66, 49]),
   midi.NoteOnEvent(tick=0, channel=0, data=[63, 49]),
   midi.NoteOnEvent(tick=0, channel=0, data=[70, 49]),
   midi.NoteOnEvent(tick=60, channel=0, data=[70, 0]),
   midi.NoteOnEvent(tick=0, channel=0, data=[63, 0]),
   midi.NoteOnEvent(tick=0, channel=0, data=[66, 0]),
   midi.NoteOnEvent(tick=60, channel=0, data=[65, 57]),
   midi.NoteOnEvent(tick=0, channel=0, data=[68, 57]),
   midi.NoteOnEvent(tick=120, channel=0, data=[68, 0]),
   midi.NoteOnEvent(tick=0, channel=0, data=[65, 0]),
   midi.NoteOnEvent(tick=0, channel=0, data=[73, 51]),
   midi.NoteOnEvent(tick=0, channel=0, data=[61, 51]),
   midi.NoteOnEvent(tick=120, channel=0, data=[61, 0]),
   midi.NoteOnEvent(tick=0, channel=0, data=[73, 0]),
   midi.NoteOnEvent(tick=0, channel=0, data=[68, 51]),
   midi.NoteOnEvent(tick=0, channel=0, data=[65, 51]),
   midi.NoteOnEvent(tick=60, channel=0, data=[65, 0]),
   midi.NoteOnEvent(tick=0, channel=0, data=[68, 0]),
   midi.NoteOnEvent(tick=60, channel=0, data=[65, 58]),
   midi.NoteOnEvent(tick=0, channel=0, data=[68, 58]),
   midi.NoteOnEvent(tick=120, channel=0, data=[68, 0]),
   midi.NoteOnEvent(tick=0, channel=0, data=[65, 0]),
   midi.NoteOnEvent(tick=0, channel=0, data=[73, 53]),
   midi.NoteOnEvent(tick=0, channel=0, data=[61, 53]),
   midi.NoteOnEvent(tick=120, channel=0, data=[61, 0]),
   midi.NoteOnEvent(tick=0, channel=0, data=[73, 0]),
   midi.NoteOnEvent(tick=0, channel=0, data=[68, 53]),
   midi.NoteOnEvent(tick=0, channel=0, data=[65, 53]),
   midi.NoteOnEvent(tick=60, channel=0, data=[65, 0]),
   midi.NoteOnEvent(tick=0, channel=0, data=[68, 0]),
   midi.NoteOnEvent(tick=60, channel=0, data=[65, 54]),
   midi.NoteOnEvent(tick=0, channel=0, data=[61, 54]),
   midi.NoteOnEvent(tick=0, channel=0, data=[68, 54]),
   midi.NoteOnEvent(tick=0, channel=0, data=[71, 54]),
   midi.NoteOnEvent(tick=360, channel=0, data=[71, 0]),
   midi.NoteOnEvent(tick=0, channel=0, data=[65, 0]),
   midi.NoteOnEvent(tick=0, channel=0, data=[61, 0]),
   midi.NoteOnEvent(tick=0, channel=0, data=[68, 0]),
   midi.NoteOnEvent(tick=0, channel=0, data=[66, 54]),
   midi.NoteOnEvent(tick=0, channel=0, data=[70, 54]),
   midi.NoteOnEvent(tick=120, channel=0, data=[70, 0]),
   midi.NoteOnEvent(tick=0, channel=0, data=[66, 0]),
   midi.NoteOnEvent(tick=120, channel=0, data=[66, 59]),
   midi.NoteOnEvent(tick=0, channel=0, data=[70, 59]),
   midi.NoteOnEvent(tick=60, channel=0, data=[70, 0]),
   midi.NoteOnEvent(tick=0, channel=0, data=[66, 0]),
   midi.NoteOnEvent(tick=60, channel=0, data=[65, 69]),
   midi.NoteOnEvent(tick=0, channel=0, data=[68, 69]),
   midi.NoteOnEvent(tick=120, channel=0, data=[68, 0]),
   midi.NoteOnEvent(tick=0, channel=0, data=[65, 0]),
   midi.NoteOnEvent(tick=0, channel=0, data=[73, 62]),
   midi.NoteOnEvent(tick=0, channel=0, data=[61, 62]),
   midi.NoteOnEvent(tick=120, channel=0, data=[61, 0]),
   midi.NoteOnEvent(tick=0, channel=0, data=[73, 0]),
   midi.NoteOnEvent(tick=0, channel=0, data=[68, 63]),
   midi.NoteOnEvent(tick=0, channel=0, data=[65, 63]),
   midi.NoteOnEvent(tick=60, channel=0, data=[65, 0]),
   midi.NoteOnEvent(tick=0, channel=0, data=[68, 0]),
   midi.NoteOnEvent(tick=60, channel=0, data=[65, 74]),
   midi.NoteOnEvent(tick=0, channel=0, data=[68, 74]),
   midi.NoteOnEvent(tick=120, channel=0, data=[68, 0]),
   midi.NoteOnEvent(tick=0, channel=0, data=[65, 0]),
   midi.NoteOnEvent(tick=0, channel=0, data=[73, 68]),
   midi.NoteOnEvent(tick=0, channel=0, data=[61, 68]),
   midi.NoteOnEvent(tick=120, channel=0, data=[61, 0]),
   midi.NoteOnEvent(tick=0, channel=0, data=[73, 0]),
   midi.NoteOnEvent(tick=0, channel=0, data=[68, 69]),
   midi.NoteOnEvent(tick=0, channel=0, data=[65, 69]),
   midi.NoteOnEvent(tick=60, channel=0, data=[65, 0]),
   midi.NoteOnEvent(tick=0, channel=0, data=[68, 0]),
   midi.NoteOnEvent(tick=60, channel=0, data=[65, 71]),
   midi.NoteOnEvent(tick=0, channel=0, data=[62, 71]),
   midi.NoteOnEvent(tick=0, channel=0, data=[68, 71]),
   midi.NoteOnEvent(tick=0, channel=0, data=[71, 71]),
   midi.NoteOnEvent(tick=360, channel=0, data=[71, 0]),
   midi.NoteOnEvent(tick=0, channel=0, data=[65, 0]),
   midi.NoteOnEvent(tick=0, channel=0, data=[62, 0]),
   midi.NoteOnEvent(tick=0, channel=0, data=[68, 0]),
   midi.NoteOnEvent(tick=0, channel=0, data=[63, 75]),
   midi.NoteOnEvent(tick=0, channel=0, data=[66, 75]),
   midi.NoteOnEvent(tick=0, channel=0, data=[70, 75]),
   midi.NoteOnEvent(tick=120, channel=0, data=[70, 0]),
   midi.NoteOnEvent(tick=0, channel=0, data=[66, 0]),
   midi.NoteOnEvent(tick=0, channel=0, data=[63, 0]),
   midi.NoteOnEvent(tick=240, channel=0, data=[65, 78]),
   midi.NoteOnEvent(tick=0, channel=0, data=[72, 78]),
   midi.NoteOnEvent(tick=0, channel=0, data=[77, 92]),
   midi.NoteOnEvent(tick=357, channel=0, data=[77, 0]),
   midi.NoteOnEvent(tick=0, channel=0, data=[72, 0]),
   midi.NoteOnEvent(tick=0, channel=0, data=[65, 0]),
   midi.NoteOnEvent(tick=3, channel=0, data=[72, 81]),
   midi.NoteOnEvent(tick=0, channel=0, data=[69, 69]),
   midi.NoteOnEvent(tick=240, channel=0, data=[69, 0]),
   midi.NoteOnEvent(tick=0, channel=0, data=[72, 0]),
   midi.NoteOnEvent(tick=0, channel=0, data=[72, 77]),
   midi.NoteOnEvent(tick=0, channel=0, data=[69, 64]),
   midi.NoteOnEvent(tick=0, channel=0, data=[65, 64]),
   midi.NoteOnEvent(tick=60, channel=0, data=[65, 0]),
   midi.NoteOnEvent(tick=0, channel=0, data=[69, 0]),
   midi.NoteOnEvent(tick=0, channel=0, data=[72, 0]),
   midi.NoteOnEvent(tick=60, channel=0, data=[66, 78]),
   midi.NoteOnEvent(tick=0, channel=0, data=[72, 78]),
   midi.NoteOnEvent(tick=0, channel=0, data=[75, 92]),
   midi.NoteOnEvent(tick=240, channel=0, data=[75, 0]),
   midi.NoteOnEvent(tick=0, channel=0, data=[72, 0]),
   midi.NoteOnEvent(tick=0, channel=0, data=[66, 0]),
   midi.NoteOnEvent(tick=0, channel=0, data=[73, 80]),
   midi.NoteOnEvent(tick=0, channel=0, data=[70, 67]),
   midi.NoteOnEvent(tick=0, channel=0, data=[64, 67]),
   midi.NoteOnEvent(tick=120, channel=0, data=[64, 0]),
   midi.NoteOnEvent(tick=0, channel=0, data=[70, 0]),
   midi.NoteOnEvent(tick=0, channel=0, data=[73, 0]),
   midi.NoteOnEvent(tick=0, channel=0, data=[72, 79]),
   midi.NoteOnEvent(tick=0, channel=0, data=[69, 66]),
   midi.NoteOnEvent(tick=0, channel=0, data=[65, 66]),
   midi.NoteOnEvent(tick=360, channel=0, data=[65, 0]),
   midi.NoteOnEvent(tick=0, channel=0, data=[69, 0]),
   midi.NoteOnEvent(tick=0, channel=0, data=[72, 0]),
   midi.NoteOnEvent(tick=0, channel=0, data=[65, 78]),
   midi.NoteOnEvent(tick=0, channel=0, data=[72, 78]),
   midi.NoteOnEvent(tick=0, channel=0, data=[77, 92]),
   midi.NoteOnEvent(tick=357, channel=0, data=[77, 0]),
   midi.NoteOnEvent(tick=0, channel=0, data=[72, 0]),
   midi.NoteOnEvent(tick=0, channel=0, data=[65, 0]),
   midi.NoteOnEvent(tick=3, channel=0, data=[72, 81]),
   midi.NoteOnEvent(tick=0, channel=0, data=[69, 69]),
   midi.NoteOnEvent(tick=240, channel=0, data=[69, 0]),
   midi.NoteOnEvent(tick=0, channel=0, data=[72, 0]),
   midi.NoteOnEvent(tick=0, channel=0, data=[72, 77]),
   midi.NoteOnEvent(tick=0, channel=0, data=[69, 64]),
   midi.NoteOnEvent(tick=0, channel=0, data=[65, 64]),
   midi.NoteOnEvent(tick=60, channel=0, data=[65, 0]),
   midi.NoteOnEvent(tick=0, channel=0, data=[69, 0]),
   midi.NoteOnEvent(tick=0, channel=0, data=[72, 0]),
   midi.NoteOnEvent(tick=60, channel=0, data=[66, 78]),
   midi.NoteOnEvent(tick=0, channel=0, data=[72, 78]),
   midi.NoteOnEvent(tick=0, channel=0, data=[75, 92]),
   midi.NoteOnEvent(tick=240, channel=0, data=[75, 0]),
   midi.NoteOnEvent(tick=0, channel=0, data=[72, 0]),
   midi.NoteOnEvent(tick=0, channel=0, data=[66, 0]),
   midi.NoteOnEvent(tick=0, channel=0, data=[73, 80]),
   midi.NoteOnEvent(tick=0, channel=0, data=[70, 67]),
   midi.NoteOnEvent(tick=0, channel=0, data=[64, 67]),
   midi.NoteOnEvent(tick=120, channel=0, data=[64, 0]),
   midi.NoteOnEvent(tick=0, channel=0, data=[70, 0]),
   midi.NoteOnEvent(tick=0, channel=0, data=[73, 0]),
   midi.NoteOnEvent(tick=0, channel=0, data=[72, 79]),
   midi.NoteOnEvent(tick=0, channel=0, data=[69, 66]),
   midi.NoteOnEvent(tick=0, channel=0, data=[65, 66]),
   midi.NoteOnEvent(tick=360, channel=0, data=[65, 0]),
   midi.NoteOnEvent(tick=0, channel=0, data=[69, 0]),
   midi.NoteOnEvent(tick=0, channel=0, data=[72, 0]),
   midi.NoteOnEvent(tick=0, channel=0, data=[65, 78]),
   midi.NoteOnEvent(tick=0, channel=0, data=[72, 78]),
   midi.NoteOnEvent(tick=0, channel=0, data=[77, 92]),
   midi.NoteOnEvent(tick=357, channel=0, data=[77, 0]),
   midi.NoteOnEvent(tick=0, channel=0, data=[72, 0]),
   midi.NoteOnEvent(tick=0, channel=0, data=[65, 0]),
   midi.NoteOnEvent(tick=3, channel=0, data=[72, 76]),
   midi.NoteOnEvent(tick=0, channel=0, data=[69, 64]),
   midi.NoteOnEvent(tick=240, channel=0, data=[69, 0]),
   midi.NoteOnEvent(tick=0, channel=0, data=[72, 0]),
   midi.NoteOnEvent(tick=0, channel=0, data=[72, 69]),
   midi.NoteOnEvent(tick=0, channel=0, data=[69, 57]),
   midi.NoteOnEvent(tick=0, channel=0, data=[65, 57]),
   midi.NoteOnEvent(tick=60, channel=0, data=[65, 0]),
   midi.NoteOnEvent(tick=0, channel=0, data=[69, 0]),
   midi.NoteOnEvent(tick=0, channel=0, data=[72, 0]),
   midi.NoteOnEvent(tick=60, channel=0, data=[66, 68]),
   midi.NoteOnEvent(tick=0, channel=0, data=[75, 80]),
   midi.NoteOnEvent(tick=240, channel=0, data=[75, 0]),
   midi.NoteOnEvent(tick=0, channel=0, data=[66, 0]),
   midi.NoteOnEvent(tick=0, channel=0, data=[73, 63]),
   midi.NoteOnEvent(tick=0, channel=0, data=[65, 53]),
   midi.NoteOnEvent(tick=120, channel=0, data=[65, 0]),
   midi.NoteOnEvent(tick=0, channel=0, data=[73, 0]),
   midi.NoteOnEvent(tick=0, channel=0, data=[66, 51]),
   midi.NoteOnEvent(tick=0, channel=0, data=[72, 60]),
   midi.NoteOnEvent(tick=0, channel=0, data=[63, 51]),
   midi.NoteOnEvent(tick=240, channel=0, data=[63, 0]),
   midi.NoteOnEvent(tick=0, channel=0, data=[72, 0]),
   midi.NoteOnEvent(tick=0, channel=0, data=[66, 0]),
   midi.NoteOnEvent(tick=0, channel=0, data=[61, 49]),
   midi.NoteOnEvent(tick=0, channel=0, data=[65, 49]),
   midi.NoteOnEvent(tick=0, channel=0, data=[70, 58]),
   midi.NoteOnEvent(tick=120, channel=0, data=[70, 0]),
   midi.NoteOnEvent(tick=0, channel=0, data=[65, 0]),
   midi.NoteOnEvent(tick=0, channel=0, data=[61, 0]),
   midi.NoteOnEvent(tick=0, channel=0, data=[63, 55]),
   midi.NoteOnEvent(tick=0, channel=0, data=[60, 55]),
   midi.NoteOnEvent(tick=0, channel=0, data=[68, 65]),
   midi.NoteOnEvent(tick=240, channel=0, data=[68, 0]),
   midi.NoteOnEvent(tick=0, channel=0, data=[60, 0]),
   midi.NoteOnEvent(tick=0, channel=0, data=[63, 0]),
   midi.NoteOnEvent(tick=0, channel=0, data=[58, 46]),
   midi.NoteOnEvent(tick=0, channel=0, data=[66, 54]),
   midi.NoteOnEvent(tick=0, channel=0, data=[61, 46]),
   midi.NoteOnEvent(tick=120, channel=0, data=[61, 0]),
   midi.NoteOnEvent(tick=0, channel=0, data=[66, 0]),
   midi.NoteOnEvent(tick=0, channel=0, data=[58, 0]),
   midi.NoteOnEvent(tick=0, channel=0, data=[60, 44]),
   midi.NoteOnEvent(tick=0, channel=0, data=[65, 52]),
   midi.NoteOnEvent(tick=0, channel=0, data=[57, 44]),
   midi.NoteOnEvent(tick=240, channel=0, data=[57, 0]),
   midi.NoteOnEvent(tick=0, channel=0, data=[65, 0]),
   midi.NoteOnEvent(tick=0, channel=0, data=[60, 0]),
   midi.NoteOnEvent(tick=0, channel=0, data=[58, 42]),
   midi.NoteOnEvent(tick=0, channel=0, data=[55, 42]),
   midi.NoteOnEvent(tick=0, channel=0, data=[64, 50]),
   midi.NoteOnEvent(tick=90, channel=0, data=[64, 0]),
   midi.NoteOnEvent(tick=0, channel=0, data=[55, 0]),
   midi.NoteOnEvent(tick=0, channel=0, data=[58, 0]),
   midi.NoteOnEvent(tick=30, channel=0, data=[55, 37]),
   midi.NoteOnEvent(tick=0, channel=0, data=[58, 37]),
   midi.NoteOnEvent(tick=0, channel=0, data=[64, 45]),
   midi.NoteOnEvent(tick=360, channel=0, data=[64, 0]),
   midi.NoteOnEvent(tick=0, channel=0, data=[58, 0]),
   midi.NoteOnEvent(tick=0, channel=0, data=[55, 0]),
   midi.NoteOnEvent(tick=0, channel=0, data=[57, 37]),
   midi.NoteOnEvent(tick=0, channel=0, data=[65, 45]),
   midi.NoteOnEvent(tick=360, channel=0, data=[65, 0]),
   midi.NoteOnEvent(tick=0, channel=0, data=[57, 0]),
   midi.NoteOnEvent(tick=600, channel=0, data=[73, 43]),
   midi.NoteOnEvent(tick=0, channel=0, data=[77, 43]),
   midi.NoteOnEvent(tick=60, channel=0, data=[77, 0]),
   midi.NoteOnEvent(tick=0, channel=0, data=[73, 0]),
   midi.NoteOnEvent(tick=60, channel=0, data=[65, 40]),
   midi.NoteOnEvent(tick=0, channel=0, data=[73, 50]),
   midi.NoteOnEvent(tick=0, channel=0, data=[77, 50]),
   midi.NoteOnEvent(tick=120, channel=0, data=[77, 0]),
   midi.NoteOnEvent(tick=0, channel=0, data=[73, 0]),
   midi.NoteOnEvent(tick=0, channel=0, data=[73, 45]),
   midi.NoteOnEvent(tick=0, channel=0, data=[70, 45]),
   midi.NoteOnEvent(tick=120, channel=0, data=[70, 0]),
   midi.NoteOnEvent(tick=0, channel=0, data=[73, 0]),
   midi.NoteOnEvent(tick=0, channel=0, data=[65, 0]),
   midi.NoteOnEvent(tick=0, channel=0, data=[77, 45]),
   midi.NoteOnEvent(tick=0, channel=0, data=[73, 45]),
   midi.NoteOnEvent(tick=60, channel=0, data=[73, 0]),
   midi.NoteOnEvent(tick=0, channel=0, data=[77, 0]),
   midi.NoteOnEvent(tick=60, channel=0, data=[65, 40]),
   midi.NoteOnEvent(tick=0, channel=0, data=[73, 50]),
   midi.NoteOnEvent(tick=0, channel=0, data=[77, 50]),
   midi.NoteOnEvent(tick=120, channel=0, data=[77, 0]),
   midi.NoteOnEvent(tick=0, channel=0, data=[73, 0]),
   midi.NoteOnEvent(tick=0, channel=0, data=[73, 46]),
   midi.NoteOnEvent(tick=0, channel=0, data=[70, 46]),
   midi.NoteOnEvent(tick=120, channel=0, data=[70, 0]),
   midi.NoteOnEvent(tick=0, channel=0, data=[73, 0]),
   midi.NoteOnEvent(tick=0, channel=0, data=[65, 0]),
   midi.NoteOnEvent(tick=0, channel=0, data=[77, 46]),
   midi.NoteOnEvent(tick=0, channel=0, data=[73, 46]),
   midi.NoteOnEvent(tick=60, channel=0, data=[73, 0]),
   midi.NoteOnEvent(tick=0, channel=0, data=[77, 0]),
   midi.NoteOnEvent(tick=60, channel=0, data=[65, 40]),
   midi.NoteOnEvent(tick=0, channel=0, data=[73, 50]),
   midi.NoteOnEvent(tick=0, channel=0, data=[77, 50]),
   midi.NoteOnEvent(tick=120, channel=0, data=[77, 0]),
   midi.NoteOnEvent(tick=0, channel=0, data=[73, 0]),
   midi.NoteOnEvent(tick=0, channel=0, data=[73, 45]),
   midi.NoteOnEvent(tick=0, channel=0, data=[70, 45]),
   midi.NoteOnEvent(tick=120, channel=0, data=[70, 0]),
   midi.NoteOnEvent(tick=0, channel=0, data=[73, 0]),
   midi.NoteOnEvent(tick=0, channel=0, data=[65, 0]),
   midi.NoteOnEvent(tick=0, channel=0, data=[77, 45]),
   midi.NoteOnEvent(tick=0, channel=0, data=[73, 45]),
   midi.NoteOnEvent(tick=60, channel=0, data=[73, 0]),
   midi.NoteOnEvent(tick=0, channel=0, data=[77, 0]),
   midi.NoteOnEvent(tick=60, channel=0, data=[65, 40]),
   midi.NoteOnEvent(tick=0, channel=0, data=[73, 50]),
   midi.NoteOnEvent(tick=0, channel=0, data=[77, 50]),
   midi.NoteOnEvent(tick=120, channel=0, data=[77, 0]),
   midi.NoteOnEvent(tick=0, channel=0, data=[73, 0]),
   midi.NoteOnEvent(tick=0, channel=0, data=[73, 46]),
   midi.NoteOnEvent(tick=0, channel=0, data=[70, 46]),
   midi.NoteOnEvent(tick=120, channel=0, data=[70, 0]),
   midi.NoteOnEvent(tick=0, channel=0, data=[73, 0]),
   midi.NoteOnEvent(tick=0, channel=0, data=[65, 0]),
   midi.NoteOnEvent(tick=0, channel=0, data=[77, 46]),
   midi.NoteOnEvent(tick=0, channel=0, data=[73, 46]),
   midi.NoteOnEvent(tick=60, channel=0, data=[73, 0]),
   midi.NoteOnEvent(tick=0, channel=0, data=[77, 0]),
   midi.NoteOnEvent(tick=60, channel=0, data=[66, 71]),
   midi.NoteOnEvent(tick=0, channel=0, data=[73, 50]),
   midi.NoteOnEvent(tick=120, channel=0, data=[73, 0]),
   midi.NoteOnEvent(tick=0, channel=0, data=[70, 45]),
   midi.NoteOnEvent(tick=120, channel=0, data=[70, 0]),
   midi.NoteOnEvent(tick=0, channel=0, data=[73, 45]),
   midi.NoteOnEvent(tick=60, channel=0, data=[73, 0]),
   midi.NoteOnEvent(tick=60, channel=0, data=[73, 50]),
   midi.NoteOnEvent(tick=120, channel=0, data=[73, 0]),
   midi.NoteOnEvent(tick=0, channel=0, data=[70, 46]),
   midi.NoteOnEvent(tick=120, channel=0, data=[70, 0]),
   midi.NoteOnEvent(tick=0, channel=0, data=[66, 0]),
   midi.NoteOnEvent(tick=0, channel=0, data=[65, 60]),
   midi.NoteOnEvent(tick=0, channel=0, data=[73, 46]),
   midi.NoteOnEvent(tick=60, channel=0, data=[73, 0]),
   midi.NoteOnEvent(tick=60, channel=0, data=[65, 0]),
   midi.NoteOnEvent(tick=0, channel=0, data=[64, 72]),
   midi.NoteOnEvent(tick=0, channel=0, data=[73, 50]),
   midi.NoteOnEvent(tick=120, channel=0, data=[73, 0]),
   midi.NoteOnEvent(tick=0, channel=0, data=[70, 45]),
   midi.NoteOnEvent(tick=120, channel=0, data=[70, 0]),
   midi.NoteOnEvent(tick=0, channel=0, data=[73, 45]),
   midi.NoteOnEvent(tick=60, channel=0, data=[73, 0]),
   midi.NoteOnEvent(tick=60, channel=0, data=[73, 50]),
   midi.NoteOnEvent(tick=120, channel=0, data=[73, 0]),
   midi.NoteOnEvent(tick=0, channel=0, data=[70, 46]),
   midi.NoteOnEvent(tick=60, channel=0, data=[64, 0]),
   midi.NoteOnEvent(tick=60, channel=0, data=[70, 0]),
   midi.NoteOnEvent(tick=0, channel=0, data=[73, 61]),
   midi.NoteOnEvent(tick=0, channel=0, data=[64, 60]),
   midi.NoteOnEvent(tick=60, channel=0, data=[73, 0]),
   midi.NoteOnEvent(tick=60, channel=0, data=[64, 0]),
   midi.NoteOnEvent(tick=0, channel=0, data=[65, 75]),
   midi.NoteOnEvent(tick=120, channel=0, data=[60, 54]),
   midi.NoteOnEvent(tick=0, channel=0, data=[63, 54]),
   midi.NoteOnEvent(tick=60, channel=0, data=[63, 0]),
   midi.NoteOnEvent(tick=0, channel=0, data=[60, 0]),
   midi.NoteOnEvent(tick=60, channel=0, data=[60, 54]),
   midi.NoteOnEvent(tick=0, channel=0, data=[63, 54]),
   midi.NoteOnEvent(tick=60, channel=0, data=[63, 0]),
   midi.NoteOnEvent(tick=0, channel=0, data=[60, 0]),
   midi.NoteOnEvent(tick=60, channel=0, data=[60, 54]),
   midi.NoteOnEvent(tick=0, channel=0, data=[63, 54]),
   midi.NoteOnEvent(tick=60, channel=0, data=[63, 0]),
   midi.NoteOnEvent(tick=0, channel=0, data=[60, 0]),
   midi.NoteOnEvent(tick=60, channel=0, data=[65, 0]),
   midi.NoteOnEvent(tick=0, channel=0, data=[58, 54]),
   midi.NoteOnEvent(tick=0, channel=0, data=[67, 56]),
   midi.NoteOnEvent(tick=60, channel=0, data=[67, 0]),
   midi.NoteOnEvent(tick=0, channel=0, data=[58, 0]),
   midi.NoteOnEvent(tick=60, channel=0, data=[60, 54]),
   midi.NoteOnEvent(tick=0, channel=0, data=[69, 61]),
   midi.NoteOnEvent(tick=60, channel=0, data=[69, 0]),
   midi.NoteOnEvent(tick=0, channel=0, data=[60, 0]),
   midi.NoteOnEvent(tick=0, channel=0, data=[72, 64]),
   midi.NoteOnEvent(tick=60, channel=0, data=[72, 0]),
   midi.NoteOnEvent(tick=0, channel=0, data=[61, 61]),
   midi.NoteOnEvent(tick=0, channel=0, data=[70, 73]),
   midi.NoteOnEvent(tick=60, channel=0, data=[70, 0]),
   midi.NoteOnEvent(tick=0, channel=0, data=[61, 0]),
   midi.NoteOnEvent(tick=60, channel=0, data=[60, 54]),
   midi.NoteOnEvent(tick=0, channel=0, data=[69, 63]),
   midi.NoteOnEvent(tick=60, channel=0, data=[69, 0]),
   midi.NoteOnEvent(tick=0, channel=0, data=[60, 0]),
   midi.NoteOnEvent(tick=60, channel=0, data=[61, 53]),
   midi.NoteOnEvent(tick=0, channel=0, data=[70, 63]),
   midi.NoteOnEvent(tick=60, channel=0, data=[70, 0]),
   midi.NoteOnEvent(tick=0, channel=0, data=[61, 0]),
   midi.NoteOnEvent(tick=60, channel=0, data=[65, 60]),
   midi.NoteOnEvent(tick=0, channel=0, data=[73, 71]),
   midi.NoteOnEvent(tick=60, channel=0, data=[73, 0]),
   midi.NoteOnEvent(tick=0, channel=0, data=[65, 0]),
   midi.NoteOnEvent(tick=60, channel=0, data=[63, 53]),
   midi.NoteOnEvent(tick=0, channel=0, data=[72, 63]),
   midi.NoteOnEvent(tick=60, channel=0, data=[72, 0]),
   midi.NoteOnEvent(tick=0, channel=0, data=[63, 0]),
   midi.NoteOnEvent(tick=60, channel=0, data=[61, 58]),
   midi.NoteOnEvent(tick=0, channel=0, data=[70, 70]),
   midi.NoteOnEvent(tick=60, channel=0, data=[70, 0]),
   midi.NoteOnEvent(tick=0, channel=0, data=[61, 0]),
   midi.NoteOnEvent(tick=60, channel=0, data=[61, 70]),
   midi.NoteOnEvent(tick=0, channel=0, data=[70, 82]),
   midi.NoteOnEvent(tick=360, channel=0, data=[64, 66]),
   midi.NoteOnEvent(tick=360, channel=0, data=[64, 0]),
   midi.NoteOnEvent(tick=0, channel=0, data=[70, 0]),
   midi.NoteOnEvent(tick=0, channel=0, data=[61, 0]),
   midi.NoteOnEvent(tick=0, channel=0, data=[60, 67]),
   midi.NoteOnEvent(tick=0, channel=0, data=[65, 67]),
   midi.NoteOnEvent(tick=0, channel=0, data=[69, 80]),
   midi.NoteOnEvent(tick=360, channel=0, data=[69, 0]),
   midi.NoteOnEvent(tick=0, channel=0, data=[65, 0]),
   midi.NoteOnEvent(tick=0, channel=0, data=[60, 0]),
   midi.NoteOnEvent(tick=240, channel=0, data=[73, 43]),
   midi.NoteOnEvent(tick=0, channel=0, data=[77, 43]),
   midi.NoteOnEvent(tick=60, channel=0, data=[77, 0]),
   midi.NoteOnEvent(tick=0, channel=0, data=[73, 0]),
   midi.NoteOnEvent(tick=60, channel=0, data=[65, 40]),
   midi.NoteOnEvent(tick=0, channel=0, data=[73, 50]),
   midi.NoteOnEvent(tick=0, channel=0, data=[77, 50]),
   midi.NoteOnEvent(tick=120, channel=0, data=[77, 0]),
   midi.NoteOnEvent(tick=0, channel=0, data=[73, 0]),
   midi.NoteOnEvent(tick=0, channel=0, data=[73, 45]),
   midi.NoteOnEvent(tick=0, channel=0, data=[70, 45]),
   midi.NoteOnEvent(tick=120, channel=0, data=[70, 0]),
   midi.NoteOnEvent(tick=0, channel=0, data=[73, 0]),
   midi.NoteOnEvent(tick=0, channel=0, data=[65, 0]),
   midi.NoteOnEvent(tick=0, channel=0, data=[77, 45]),
   midi.NoteOnEvent(tick=0, channel=0, data=[73, 45]),
   midi.NoteOnEvent(tick=60, channel=0, data=[73, 0]),
   midi.NoteOnEvent(tick=0, channel=0, data=[77, 0]),
   midi.NoteOnEvent(tick=60, channel=0, data=[65, 41]),
   midi.NoteOnEvent(tick=0, channel=0, data=[73, 51]),
   midi.NoteOnEvent(tick=0, channel=0, data=[77, 51]),
   midi.NoteOnEvent(tick=120, channel=0, data=[77, 0]),
   midi.NoteOnEvent(tick=0, channel=0, data=[73, 0]),
   midi.NoteOnEvent(tick=0, channel=0, data=[73, 48]),
   midi.NoteOnEvent(tick=0, channel=0, data=[70, 48]),
   midi.NoteOnEvent(tick=120, channel=0, data=[70, 0]),
   midi.NoteOnEvent(tick=0, channel=0, data=[73, 0]),
   midi.NoteOnEvent(tick=0, channel=0, data=[65, 0]),
   midi.NoteOnEvent(tick=0, channel=0, data=[77, 48]),
   midi.NoteOnEvent(tick=0, channel=0, data=[73, 48]),
   midi.NoteOnEvent(tick=60, channel=0, data=[73, 0]),
   midi.NoteOnEvent(tick=0, channel=0, data=[77, 0]),
   midi.NoteOnEvent(tick=60, channel=0, data=[65, 42]),
   midi.NoteOnEvent(tick=0, channel=0, data=[73, 53]),
   midi.NoteOnEvent(tick=0, channel=0, data=[77, 53]),
   midi.NoteOnEvent(tick=120, channel=0, data=[77, 0]),
   midi.NoteOnEvent(tick=0, channel=0, data=[73, 0]),
   midi.NoteOnEvent(tick=0, channel=0, data=[73, 50]),
   midi.NoteOnEvent(tick=0, channel=0, data=[70, 50]),
   midi.NoteOnEvent(tick=120, channel=0, data=[70, 0]),
   midi.NoteOnEvent(tick=0, channel=0, data=[73, 0]),
   midi.NoteOnEvent(tick=0, channel=0, data=[65, 0]),
   midi.NoteOnEvent(tick=0, channel=0, data=[77, 55]),
   midi.NoteOnEvent(tick=0, channel=0, data=[73, 55]),
   midi.NoteOnEvent(tick=60, channel=0, data=[73, 0]),
   midi.NoteOnEvent(tick=0, channel=0, data=[77, 0]),
   midi.NoteOnEvent(tick=60, channel=0, data=[65, 53]),
   midi.NoteOnEvent(tick=0, channel=0, data=[73, 66]),
   midi.NoteOnEvent(tick=0, channel=0, data=[77, 66]),
   midi.NoteOnEvent(tick=120, channel=0, data=[77, 0]),
   midi.NoteOnEvent(tick=0, channel=0, data=[73, 0]),
   midi.NoteOnEvent(tick=0, channel=0, data=[73, 63]),
   midi.NoteOnEvent(tick=0, channel=0, data=[70, 63]),
   midi.NoteOnEvent(tick=120, channel=0, data=[70, 0]),
   midi.NoteOnEvent(tick=0, channel=0, data=[73, 0]),
   midi.NoteOnEvent(tick=0, channel=0, data=[65, 0]),
   midi.NoteOnEvent(tick=0, channel=0, data=[77, 68]),
   midi.NoteOnEvent(tick=0, channel=0, data=[73, 68]),
   midi.NoteOnEvent(tick=60, channel=0, data=[73, 0]),
   midi.NoteOnEvent(tick=0, channel=0, data=[77, 0]),
   midi.NoteOnEvent(tick=60, channel=0, data=[68, 58]),
   midi.NoteOnEvent(tick=0, channel=0, data=[77, 66]),
   midi.NoteOnEvent(tick=0, channel=0, data=[80, 82]),
   midi.NoteOnEvent(tick=360, channel=0, data=[80, 0]),
   midi.NoteOnEvent(tick=0, channel=0, data=[77, 0]),
   midi.NoteOnEvent(tick=0, channel=0, data=[68, 0]),
   midi.NoteOnEvent(tick=0, channel=0, data=[66, 56]),
   midi.NoteOnEvent(tick=0, channel=0, data=[75, 56]),
   midi.NoteOnEvent(tick=0, channel=0, data=[78, 66]),
   midi.NoteOnEvent(tick=240, channel=0, data=[78, 0]),
   midi.NoteOnEvent(tick=0, channel=0, data=[75, 0]),
   midi.NoteOnEvent(tick=0, channel=0, data=[66, 0]),
   midi.NoteOnEvent(tick=0, channel=0, data=[65, 56]),
   midi.NoteOnEvent(tick=0, channel=0, data=[73, 56]),
   midi.NoteOnEvent(tick=0, channel=0, data=[77, 66]),
   midi.NoteOnEvent(tick=60, channel=0, data=[77, 0]),
   midi.NoteOnEvent(tick=0, channel=0, data=[73, 0]),
   midi.NoteOnEvent(tick=0, channel=0, data=[65, 0]),
   midi.NoteOnEvent(tick=60, channel=0, data=[65, 58]),
   midi.NoteOnEvent(tick=0, channel=0, data=[68, 67]),
   midi.NoteOnEvent(tick=0, channel=0, data=[77, 82]),
   midi.NoteOnEvent(tick=360, channel=0, data=[77, 0]),
   midi.NoteOnEvent(tick=0, channel=0, data=[68, 0]),
   midi.NoteOnEvent(tick=0, channel=0, data=[65, 0]),
   midi.NoteOnEvent(tick=0, channel=0, data=[63, 56]),
   midi.NoteOnEvent(tick=0, channel=0, data=[75, 66]),
   midi.NoteOnEvent(tick=240, channel=0, data=[75, 0]),
   midi.NoteOnEvent(tick=0, channel=0, data=[63, 0]),
   midi.NoteOnEvent(tick=120, channel=0, data=[66, 58]),
   midi.NoteOnEvent(tick=0, channel=0, data=[70, 66]),
   midi.NoteOnEvent(tick=0, channel=0, data=[78, 82]),
   midi.NoteOnEvent(tick=360, channel=0, data=[78, 0]),
   midi.NoteOnEvent(tick=0, channel=0, data=[66, 0]),
   midi.NoteOnEvent(tick=0, channel=0, data=[75, 69]),
   midi.NoteOnEvent(tick=240, channel=0, data=[75, 0]),
   midi.NoteOnEvent(tick=0, channel=0, data=[73, 65]),
   midi.NoteOnEvent(tick=90, channel=0, data=[73, 0]),
   midi.NoteOnEvent(tick=30, channel=0, data=[70, 0]),
   midi.NoteOnEvent(tick=0, channel=0, data=[70, 69]),
   midi.NoteOnEvent(tick=0, channel=0, data=[73, 69]),
   midi.NoteOnEvent(tick=240, channel=0, data=[73, 0]),
   midi.NoteOnEvent(tick=0, channel=0, data=[70, 0]),
   midi.NoteOnEvent(tick=0, channel=0, data=[72, 65]),
   midi.NoteOnEvent(tick=90, channel=0, data=[72, 0]),
   midi.NoteOnEvent(tick=30, channel=0, data=[75, 69]),
   midi.NoteOnEvent(tick=240, channel=0, data=[75, 0]),
   midi.NoteOnEvent(tick=0, channel=0, data=[72, 65]),
   midi.NoteOnEvent(tick=90, channel=0, data=[72, 0]),
   midi.NoteOnEvent(tick=30, channel=0, data=[65, 69]),
   midi.NoteOnEvent(tick=0, channel=0, data=[72, 69]),
   midi.NoteOnEvent(tick=240, channel=0, data=[72, 0]),
   midi.NoteOnEvent(tick=0, channel=0, data=[70, 65]),
   midi.NoteOnEvent(tick=90, channel=0, data=[70, 0]),
   midi.NoteOnEvent(tick=30, channel=0, data=[73, 69]),
   midi.NoteOnEvent(tick=240, channel=0, data=[73, 0]),
   midi.NoteOnEvent(tick=0, channel=0, data=[70, 65]),
   midi.NoteOnEvent(tick=90, channel=0, data=[70, 0]),
   midi.NoteOnEvent(tick=30, channel=0, data=[65, 0]),
   midi.NoteOnEvent(tick=0, channel=0, data=[65, 69]),
   midi.NoteOnEvent(tick=0, channel=0, data=[70, 69]),
   midi.NoteOnEvent(tick=240, channel=0, data=[70, 0]),
   midi.NoteOnEvent(tick=0, channel=0, data=[65, 0]),
   midi.NoteOnEvent(tick=0, channel=0, data=[69, 61]),
   midi.NoteOnEvent(tick=110, channel=0, data=[69, 0]),
   midi.NoteOnEvent(tick=10, channel=0, data=[69, 69]),
   midi.NoteOnEvent(tick=0, channel=0, data=[65, 49]),
   midi.NoteOnEvent(tick=0, channel=0, data=[73, 62]),
   midi.NoteOnEvent(tick=240, channel=0, data=[73, 0]),
   midi.NoteOnEvent(tick=0, channel=0, data=[65, 0]),
   midi.NoteOnEvent(tick=0, channel=0, data=[63, 54]),
   midi.NoteOnEvent(tick=0, channel=0, data=[72, 54]),
   midi.NoteOnEvent(tick=90, channel=0, data=[72, 0]),
   midi.NoteOnEvent(tick=0, channel=0, data=[63, 0]),
   midi.NoteOnEvent(tick=30, channel=0, data=[69, 0]),
   midi.NoteOnEvent(tick=0, channel=0, data=[72, 58]),
   midi.NoteOnEvent(tick=0, channel=0, data=[69, 49]),
   midi.NoteOnEvent(tick=0, channel=0, data=[63, 49]),
   midi.NoteOnEvent(tick=360, channel=0, data=[63, 0]),
   midi.NoteOnEvent(tick=0, channel=0, data=[69, 0]),
   midi.NoteOnEvent(tick=0, channel=0, data=[72, 0]),
   midi.NoteOnEvent(tick=0, channel=0, data=[61, 41]),
   midi.NoteOnEvent(tick=0, channel=0, data=[70, 49]),
   midi.NoteOnEvent(tick=360, channel=0, data=[70, 0]),
   midi.NoteOnEvent(tick=0, channel=0, data=[61, 0]),
   midi.NoteOnEvent(tick=600, channel=0, data=[63, 43]),
   midi.NoteOnEvent(tick=0, channel=0, data=[65, 43]),
   midi.NoteOnEvent(tick=60, channel=0, data=[65, 0]),
   midi.NoteOnEvent(tick=0, channel=0, data=[63, 0]),
   midi.NoteOnEvent(tick=60, channel=0, data=[62, 50]),
   midi.NoteOnEvent(tick=0, channel=0, data=[65, 50]),
   midi.NoteOnEvent(tick=120, channel=0, data=[65, 0]),
   midi.NoteOnEvent(tick=0, channel=0, data=[62, 0]),
   midi.NoteOnEvent(tick=0, channel=0, data=[70, 45]),
   midi.NoteOnEvent(tick=0, channel=0, data=[58, 45]),
   midi.NoteOnEvent(tick=120, channel=0, data=[58, 0]),
   midi.NoteOnEvent(tick=0, channel=0, data=[70, 0]),
   midi.NoteOnEvent(tick=0, channel=0, data=[65, 45]),
   midi.NoteOnEvent(tick=0, channel=0, data=[62, 45]),
   midi.NoteOnEvent(tick=60, channel=0, data=[62, 0]),
   midi.NoteOnEvent(tick=0, channel=0, data=[65, 0]),
   midi.NoteOnEvent(tick=60, channel=0, data=[62, 50]),
   midi.NoteOnEvent(tick=0, channel=0, data=[65, 50]),
   midi.NoteOnEvent(tick=120, channel=0, data=[65, 0]),
   midi.NoteOnEvent(tick=0, channel=0, data=[62, 0]),
   midi.NoteOnEvent(tick=0, channel=0, data=[70, 46]),
   midi.NoteOnEvent(tick=0, channel=0, data=[58, 46]),
   midi.NoteOnEvent(tick=120, channel=0, data=[58, 0]),
   midi.NoteOnEvent(tick=0, channel=0, data=[70, 0]),
   midi.NoteOnEvent(tick=0, channel=0, data=[65, 46]),
   midi.NoteOnEvent(tick=0, channel=0, data=[62, 46]),
   midi.NoteOnEvent(tick=60, channel=0, data=[62, 0]),
   midi.NoteOnEvent(tick=0, channel=0, data=[65, 0]),
   midi.NoteOnEvent(tick=60, channel=0, data=[58, 46]),
   midi.NoteOnEvent(tick=0, channel=0, data=[65, 46]),
   midi.NoteOnEvent(tick=0, channel=0, data=[68, 46]),
   midi.NoteOnEvent(tick=360, channel=0, data=[68, 0]),
   midi.NoteOnEvent(tick=0, channel=0, data=[65, 0]),
   midi.NoteOnEvent(tick=0, channel=0, data=[58, 0]),
   midi.NoteOnEvent(tick=0, channel=0, data=[63, 46]),
   midi.NoteOnEvent(tick=0, channel=0, data=[66, 46]),
   midi.NoteOnEvent(tick=120, channel=0, data=[66, 0]),
   midi.NoteOnEvent(tick=0, channel=0, data=[63, 0]),
   midi.NoteOnEvent(tick=120, channel=0, data=[63, 43]),
   midi.NoteOnEvent(tick=0, channel=0, data=[66, 43]),
   midi.NoteOnEvent(tick=60, channel=0, data=[66, 0]),
   midi.NoteOnEvent(tick=0, channel=0, data=[63, 0]),
   midi.NoteOnEvent(tick=60, channel=0, data=[62, 50]),
   midi.NoteOnEvent(tick=0, channel=0, data=[65, 50]),
   midi.NoteOnEvent(tick=120, channel=0, data=[65, 0]),
   midi.NoteOnEvent(tick=0, channel=0, data=[62, 0]),
   midi.NoteOnEvent(tick=0, channel=0, data=[70, 45]),
   midi.NoteOnEvent(tick=0, channel=0, data=[58, 45]),
   midi.NoteOnEvent(tick=120, channel=0, data=[58, 0]),
   midi.NoteOnEvent(tick=0, channel=0, data=[70, 0]),
   midi.NoteOnEvent(tick=0, channel=0, data=[65, 45]),
   midi.NoteOnEvent(tick=0, channel=0, data=[62, 45]),
   midi.NoteOnEvent(tick=60, channel=0, data=[62, 0]),
   midi.NoteOnEvent(tick=0, channel=0, data=[65, 0]),
   midi.NoteOnEvent(tick=60, channel=0, data=[62, 50]),
   midi.NoteOnEvent(tick=0, channel=0, data=[65, 50]),
   midi.NoteOnEvent(tick=120, channel=0, data=[65, 0]),
   midi.NoteOnEvent(tick=0, channel=0, data=[62, 0]),
   midi.NoteOnEvent(tick=0, channel=0, data=[70, 46]),
   midi.NoteOnEvent(tick=0, channel=0, data=[58, 46]),
   midi.NoteOnEvent(tick=120, channel=0, data=[58, 0]),
   midi.NoteOnEvent(tick=0, channel=0, data=[70, 0]),
   midi.NoteOnEvent(tick=0, channel=0, data=[65, 46]),
   midi.NoteOnEvent(tick=0, channel=0, data=[62, 46]),
   midi.NoteOnEvent(tick=60, channel=0, data=[62, 0]),
   midi.NoteOnEvent(tick=0, channel=0, data=[65, 0]),
   midi.NoteOnEvent(tick=60, channel=0, data=[58, 46]),
   midi.NoteOnEvent(tick=0, channel=0, data=[65, 46]),
   midi.NoteOnEvent(tick=0, channel=0, data=[68, 46]),
   midi.NoteOnEvent(tick=360, channel=0, data=[68, 0]),
   midi.NoteOnEvent(tick=0, channel=0, data=[65, 0]),
   midi.NoteOnEvent(tick=0, channel=0, data=[58, 0]),
   midi.NoteOnEvent(tick=0, channel=0, data=[63, 46]),
   midi.NoteOnEvent(tick=0, channel=0, data=[66, 46]),
   midi.NoteOnEvent(tick=120, channel=0, data=[66, 0]),
   midi.NoteOnEvent(tick=0, channel=0, data=[63, 0]),
   midi.NoteOnEvent(tick=120, channel=0, data=[66, 49]),
   midi.NoteOnEvent(tick=0, channel=0, data=[63, 49]),
   midi.NoteOnEvent(tick=0, channel=0, data=[70, 49]),
   midi.NoteOnEvent(tick=60, channel=0, data=[70, 0]),
   midi.NoteOnEvent(tick=0, channel=0, data=[63, 0]),
   midi.NoteOnEvent(tick=0, channel=0, data=[66, 0]),
   midi.NoteOnEvent(tick=60, channel=0, data=[65, 57]),
   midi.NoteOnEvent(tick=0, channel=0, data=[68, 57]),
   midi.NoteOnEvent(tick=120, channel=0, data=[68, 0]),
   midi.NoteOnEvent(tick=0, channel=0, data=[65, 0]),
   midi.NoteOnEvent(tick=0, channel=0, data=[73, 51]),
   midi.NoteOnEvent(tick=0, channel=0, data=[61, 51]),
   midi.NoteOnEvent(tick=120, channel=0, data=[61, 0]),
   midi.NoteOnEvent(tick=0, channel=0, data=[73, 0]),
   midi.NoteOnEvent(tick=0, channel=0, data=[68, 51]),
   midi.NoteOnEvent(tick=0, channel=0, data=[65, 51]),
   midi.NoteOnEvent(tick=60, channel=0, data=[65, 0]),
   midi.NoteOnEvent(tick=0, channel=0, data=[68, 0]),
   midi.NoteOnEvent(tick=60, channel=0, data=[65, 58]),
   midi.NoteOnEvent(tick=0, channel=0, data=[68, 58]),
   midi.NoteOnEvent(tick=120, channel=0, data=[68, 0]),
   midi.NoteOnEvent(tick=0, channel=0, data=[65, 0]),
   midi.NoteOnEvent(tick=0, channel=0, data=[73, 53]),
   midi.NoteOnEvent(tick=0, channel=0, data=[61, 53]),
   midi.NoteOnEvent(tick=120, channel=0, data=[61, 0]),
   midi.NoteOnEvent(tick=0, channel=0, data=[73, 0]),
   midi.NoteOnEvent(tick=0, channel=0, data=[68, 53]),
   midi.NoteOnEvent(tick=0, channel=0, data=[65, 53]),
   midi.NoteOnEvent(tick=60, channel=0, data=[65, 0]),
   midi.NoteOnEvent(tick=0, channel=0, data=[68, 0]),
   midi.NoteOnEvent(tick=60, channel=0, data=[65, 54]),
   midi.NoteOnEvent(tick=0, channel=0, data=[61, 54]),
   midi.NoteOnEvent(tick=0, channel=0, data=[68, 54]),
   midi.NoteOnEvent(tick=0, channel=0, data=[71, 54]),
   midi.NoteOnEvent(tick=360, channel=0, data=[71, 0]),
   midi.NoteOnEvent(tick=0, channel=0, data=[65, 0]),
   midi.NoteOnEvent(tick=0, channel=0, data=[61, 0]),
   midi.NoteOnEvent(tick=0, channel=0, data=[68, 0]),
   midi.NoteOnEvent(tick=0, channel=0, data=[66, 55]),
   midi.NoteOnEvent(tick=0, channel=0, data=[70, 55]),
   midi.NoteOnEvent(tick=120, channel=0, data=[70, 0]),
   midi.NoteOnEvent(tick=0, channel=0, data=[66, 0]),
   midi.NoteOnEvent(tick=120, channel=0, data=[66, 59]),
   midi.NoteOnEvent(tick=0, channel=0, data=[70, 59]),
   midi.NoteOnEvent(tick=60, channel=0, data=[70, 0]),
   midi.NoteOnEvent(tick=0, channel=0, data=[66, 0]),
   midi.NoteOnEvent(tick=60, channel=0, data=[65, 69]),
   midi.NoteOnEvent(tick=0, channel=0, data=[68, 69]),
   midi.NoteOnEvent(tick=120, channel=0, data=[68, 0]),
   midi.NoteOnEvent(tick=0, channel=0, data=[65, 0]),
   midi.NoteOnEvent(tick=0, channel=0, data=[73, 62]),
   midi.NoteOnEvent(tick=0, channel=0, data=[61, 62]),
   midi.NoteOnEvent(tick=120, channel=0, data=[61, 0]),
   midi.NoteOnEvent(tick=0, channel=0, data=[73, 0]),
   midi.NoteOnEvent(tick=0, channel=0, data=[68, 64]),
   midi.NoteOnEvent(tick=0, channel=0, data=[65, 64]),
   midi.NoteOnEvent(tick=60, channel=0, data=[65, 0]),
   midi.NoteOnEvent(tick=0, channel=0, data=[68, 0]),
   midi.NoteOnEvent(tick=60, channel=0, data=[65, 74]),
   midi.NoteOnEvent(tick=0, channel=0, data=[68, 74]),
   midi.NoteOnEvent(tick=120, channel=0, data=[68, 0]),
   midi.NoteOnEvent(tick=0, channel=0, data=[65, 0]),
   midi.NoteOnEvent(tick=0, channel=0, data=[73, 68]),
   midi.NoteOnEvent(tick=0, channel=0, data=[61, 68]),
   midi.NoteOnEvent(tick=120, channel=0, data=[61, 0]),
   midi.NoteOnEvent(tick=0, channel=0, data=[73, 0]),
   midi.NoteOnEvent(tick=0, channel=0, data=[68, 69]),
   midi.NoteOnEvent(tick=0, channel=0, data=[65, 69]),
   midi.NoteOnEvent(tick=60, channel=0, data=[65, 0]),
   midi.NoteOnEvent(tick=0, channel=0, data=[68, 0]),
   midi.NoteOnEvent(tick=60, channel=0, data=[65, 71]),
   midi.NoteOnEvent(tick=0, channel=0, data=[62, 71]),
   midi.NoteOnEvent(tick=0, channel=0, data=[68, 71]),
   midi.NoteOnEvent(tick=0, channel=0, data=[71, 71]),
   midi.NoteOnEvent(tick=360, channel=0, data=[71, 0]),
   midi.NoteOnEvent(tick=0, channel=0, data=[65, 0]),
   midi.NoteOnEvent(tick=0, channel=0, data=[62, 0]),
   midi.NoteOnEvent(tick=0, channel=0, data=[68, 0]),
   midi.NoteOnEvent(tick=0, channel=0, data=[66, 75]),
   midi.NoteOnEvent(tick=0, channel=0, data=[70, 75]),
   midi.NoteOnEvent(tick=120, channel=0, data=[70, 0]),
   midi.NoteOnEvent(tick=0, channel=0, data=[66, 0]),
   midi.NoteOnEvent(tick=240, channel=0, data=[65, 78]),
   midi.NoteOnEvent(tick=0, channel=0, data=[72, 78]),
   midi.NoteOnEvent(tick=0, channel=0, data=[77, 92]),
   midi.NoteOnEvent(tick=357, channel=0, data=[77, 0]),
   midi.NoteOnEvent(tick=0, channel=0, data=[72, 0]),
   midi.NoteOnEvent(tick=0, channel=0, data=[65, 0]),
   midi.NoteOnEvent(tick=3, channel=0, data=[72, 81]),
   midi.NoteOnEvent(tick=0, channel=0, data=[69, 69]),
   midi.NoteOnEvent(tick=240, channel=0, data=[69, 0]),
   midi.NoteOnEvent(tick=0, channel=0, data=[72, 0]),
   midi.NoteOnEvent(tick=0, channel=0, data=[72, 77]),
   midi.NoteOnEvent(tick=0, channel=0, data=[69, 64]),
   midi.NoteOnEvent(tick=0, channel=0, data=[65, 64]),
   midi.NoteOnEvent(tick=60, channel=0, data=[65, 0]),
   midi.NoteOnEvent(tick=0, channel=0, data=[69, 0]),
   midi.NoteOnEvent(tick=0, channel=0, data=[72, 0]),
   midi.NoteOnEvent(tick=60, channel=0, data=[66, 78]),
   midi.NoteOnEvent(tick=0, channel=0, data=[72, 78]),
   midi.NoteOnEvent(tick=0, channel=0, data=[75, 92]),
   midi.NoteOnEvent(tick=240, channel=0, data=[75, 0]),
   midi.NoteOnEvent(tick=0, channel=0, data=[72, 0]),
   midi.NoteOnEvent(tick=0, channel=0, data=[66, 0]),
   midi.NoteOnEvent(tick=0, channel=0, data=[73, 80]),
   midi.NoteOnEvent(tick=0, channel=0, data=[70, 67]),
   midi.NoteOnEvent(tick=0, channel=0, data=[64, 67]),
   midi.NoteOnEvent(tick=120, channel=0, data=[64, 0]),
   midi.NoteOnEvent(tick=0, channel=0, data=[70, 0]),
   midi.NoteOnEvent(tick=0, channel=0, data=[73, 0]),
   midi.NoteOnEvent(tick=0, channel=0, data=[72, 79]),
   midi.NoteOnEvent(tick=0, channel=0, data=[69, 66]),
   midi.NoteOnEvent(tick=0, channel=0, data=[65, 66]),
   midi.NoteOnEvent(tick=360, channel=0, data=[65, 0]),
   midi.NoteOnEvent(tick=0, channel=0, data=[69, 0]),
   midi.NoteOnEvent(tick=0, channel=0, data=[72, 0]),
   midi.NoteOnEvent(tick=0, channel=0, data=[65, 78]),
   midi.NoteOnEvent(tick=0, channel=0, data=[72, 78]),
   midi.NoteOnEvent(tick=0, channel=0, data=[77, 92]),
   midi.NoteOnEvent(tick=357, channel=0, data=[72, 0]),
   midi.NoteOnEvent(tick=0, channel=0, data=[65, 0]),
   midi.NoteOnEvent(tick=0, channel=0, data=[77, 0]),
   midi.NoteOnEvent(tick=3, channel=0, data=[72, 81]),
   midi.NoteOnEvent(tick=0, channel=0, data=[69, 69]),
   midi.NoteOnEvent(tick=240, channel=0, data=[69, 0]),
   midi.NoteOnEvent(tick=0, channel=0, data=[72, 0]),
   midi.NoteOnEvent(tick=0, channel=0, data=[72, 77]),
   midi.NoteOnEvent(tick=0, channel=0, data=[69, 64]),
   midi.NoteOnEvent(tick=0, channel=0, data=[65, 64]),
   midi.NoteOnEvent(tick=60, channel=0, data=[65, 0]),
   midi.NoteOnEvent(tick=0, channel=0, data=[69, 0]),
   midi.NoteOnEvent(tick=0, channel=0, data=[72, 0]),
   midi.NoteOnEvent(tick=60, channel=0, data=[66, 78]),
   midi.NoteOnEvent(tick=0, channel=0, data=[72, 78]),
   midi.NoteOnEvent(tick=0, channel=0, data=[75, 92]),
   midi.NoteOnEvent(tick=240, channel=0, data=[75, 0]),
   midi.NoteOnEvent(tick=0, channel=0, data=[72, 0]),
   midi.NoteOnEvent(tick=0, channel=0, data=[66, 0]),
   midi.NoteOnEvent(tick=0, channel=0, data=[73, 80]),
   midi.NoteOnEvent(tick=0, channel=0, data=[70, 67]),
   midi.NoteOnEvent(tick=0, channel=0, data=[64, 67]),
   midi.NoteOnEvent(tick=120, channel=0, data=[64, 0]),
   midi.NoteOnEvent(tick=0, channel=0, data=[70, 0]),
   midi.NoteOnEvent(tick=0, channel=0, data=[73, 0]),
   midi.NoteOnEvent(tick=0, channel=0, data=[72, 79]),
   midi.NoteOnEvent(tick=0, channel=0, data=[69, 66]),
   midi.NoteOnEvent(tick=0, channel=0, data=[65, 66]),
   midi.NoteOnEvent(tick=360, channel=0, data=[65, 0]),
   midi.NoteOnEvent(tick=0, channel=0, data=[69, 0]),
   midi.NoteOnEvent(tick=0, channel=0, data=[72, 0]),
   midi.NoteOnEvent(tick=0, channel=0, data=[65, 78]),
   midi.NoteOnEvent(tick=0, channel=0, data=[72, 78]),
   midi.NoteOnEvent(tick=0, channel=0, data=[77, 92]),
   midi.NoteOnEvent(tick=357, channel=0, data=[77, 0]),
   midi.NoteOnEvent(tick=0, channel=0, data=[72, 0]),
   midi.NoteOnEvent(tick=0, channel=0, data=[65, 0]),
   midi.NoteOnEvent(tick=3, channel=0, data=[72, 76]),
   midi.NoteOnEvent(tick=0, channel=0, data=[69, 64]),
   midi.NoteOnEvent(tick=240, channel=0, data=[69, 0]),
   midi.NoteOnEvent(tick=0, channel=0, data=[72, 0]),
   midi.NoteOnEvent(tick=0, channel=0, data=[72, 69]),
   midi.NoteOnEvent(tick=0, channel=0, data=[69, 57]),
   midi.NoteOnEvent(tick=0, channel=0, data=[65, 57]),
   midi.NoteOnEvent(tick=60, channel=0, data=[65, 0]),
   midi.NoteOnEvent(tick=0, channel=0, data=[69, 0]),
   midi.NoteOnEvent(tick=0, channel=0, data=[72, 0]),
   midi.NoteOnEvent(tick=60, channel=0, data=[66, 68]),
   midi.NoteOnEvent(tick=0, channel=0, data=[75, 80]),
   midi.NoteOnEvent(tick=240, channel=0, data=[75, 0]),
   midi.NoteOnEvent(tick=0, channel=0, data=[66, 0]),
   midi.NoteOnEvent(tick=0, channel=0, data=[73, 63]),
   midi.NoteOnEvent(tick=0, channel=0, data=[65, 53]),
   midi.NoteOnEvent(tick=120, channel=0, data=[65, 0]),
   midi.NoteOnEvent(tick=0, channel=0, data=[73, 0]),
   midi.NoteOnEvent(tick=0, channel=0, data=[66, 51]),
   midi.NoteOnEvent(tick=0, channel=0, data=[72, 60]),
   midi.NoteOnEvent(tick=0, channel=0, data=[63, 51]),
   midi.NoteOnEvent(tick=240, channel=0, data=[63, 0]),
   midi.NoteOnEvent(tick=0, channel=0, data=[72, 0]),
   midi.NoteOnEvent(tick=0, channel=0, data=[66, 0]),
   midi.NoteOnEvent(tick=0, channel=0, data=[61, 49]),
   midi.NoteOnEvent(tick=0, channel=0, data=[65, 49]),
   midi.NoteOnEvent(tick=0, channel=0, data=[70, 58]),
   midi.NoteOnEvent(tick=120, channel=0, data=[70, 0]),
   midi.NoteOnEvent(tick=0, channel=0, data=[65, 0]),
   midi.NoteOnEvent(tick=0, channel=0, data=[61, 0]),
   midi.NoteOnEvent(tick=0, channel=0, data=[63, 55]),
   midi.NoteOnEvent(tick=0, channel=0, data=[60, 55]),
   midi.NoteOnEvent(tick=0, channel=0, data=[68, 65]),
   midi.NoteOnEvent(tick=240, channel=0, data=[68, 0]),
   midi.NoteOnEvent(tick=0, channel=0, data=[60, 0]),
   midi.NoteOnEvent(tick=0, channel=0, data=[63, 0]),
   midi.NoteOnEvent(tick=0, channel=0, data=[58, 46]),
   midi.NoteOnEvent(tick=0, channel=0, data=[66, 54]),
   midi.NoteOnEvent(tick=0, channel=0, data=[61, 46]),
   midi.NoteOnEvent(tick=120, channel=0, data=[61, 0]),
   midi.NoteOnEvent(tick=0, channel=0, data=[66, 0]),
   midi.NoteOnEvent(tick=0, channel=0, data=[58, 0]),
   midi.NoteOnEvent(tick=0, channel=0, data=[60, 44]),
   midi.NoteOnEvent(tick=0, channel=0, data=[65, 52]),
   midi.NoteOnEvent(tick=0, channel=0, data=[57, 44]),
   midi.NoteOnEvent(tick=240, channel=0, data=[57, 0]),
   midi.NoteOnEvent(tick=0, channel=0, data=[65, 0]),
   midi.NoteOnEvent(tick=0, channel=0, data=[60, 0]),
   midi.NoteOnEvent(tick=0, channel=0, data=[58, 42]),
   midi.NoteOnEvent(tick=0, channel=0, data=[55, 42]),
   midi.NoteOnEvent(tick=0, channel=0, data=[64, 50]),
   midi.NoteOnEvent(tick=90, channel=0, data=[64, 0]),
   midi.NoteOnEvent(tick=0, channel=0, data=[55, 0]),
   midi.NoteOnEvent(tick=0, channel=0, data=[58, 0]),
   midi.NoteOnEvent(tick=30, channel=0, data=[55, 37]),
   midi.NoteOnEvent(tick=0, channel=0, data=[58, 37]),
   midi.NoteOnEvent(tick=0, channel=0, data=[64, 45]),
   midi.NoteOnEvent(tick=360, channel=0, data=[64, 0]),
   midi.NoteOnEvent(tick=0, channel=0, data=[58, 0]),
   midi.NoteOnEvent(tick=0, channel=0, data=[55, 0]),
   midi.NoteOnEvent(tick=0, channel=0, data=[57, 37]),
   midi.NoteOnEvent(tick=0, channel=0, data=[65, 45]),
   midi.NoteOnEvent(tick=360, channel=0, data=[65, 0]),
   midi.NoteOnEvent(tick=0, channel=0, data=[57, 0]),
   midi.NoteOnEvent(tick=600, channel=0, data=[73, 43]),
   midi.NoteOnEvent(tick=0, channel=0, data=[77, 43]),
   midi.NoteOnEvent(tick=60, channel=0, data=[77, 0]),
   midi.NoteOnEvent(tick=0, channel=0, data=[73, 0]),
   midi.NoteOnEvent(tick=60, channel=0, data=[65, 40]),
   midi.NoteOnEvent(tick=0, channel=0, data=[73, 50]),
   midi.NoteOnEvent(tick=0, channel=0, data=[77, 50]),
   midi.NoteOnEvent(tick=120, channel=0, data=[77, 0]),
   midi.NoteOnEvent(tick=0, channel=0, data=[73, 0]),
   midi.NoteOnEvent(tick=0, channel=0, data=[73, 45]),
   midi.NoteOnEvent(tick=0, channel=0, data=[70, 45]),
   midi.NoteOnEvent(tick=120, channel=0, data=[70, 0]),
   midi.NoteOnEvent(tick=0, channel=0, data=[73, 0]),
   midi.NoteOnEvent(tick=0, channel=0, data=[65, 0]),
   midi.NoteOnEvent(tick=0, channel=0, data=[77, 45]),
   midi.NoteOnEvent(tick=0, channel=0, data=[73, 45]),
   midi.NoteOnEvent(tick=60, channel=0, data=[73, 0]),
   midi.NoteOnEvent(tick=0, channel=0, data=[77, 0]),
   midi.NoteOnEvent(tick=60, channel=0, data=[65, 40]),
   midi.NoteOnEvent(tick=0, channel=0, data=[73, 50]),
   midi.NoteOnEvent(tick=0, channel=0, data=[77, 50]),
   midi.NoteOnEvent(tick=120, channel=0, data=[77, 0]),
   midi.NoteOnEvent(tick=0, channel=0, data=[73, 0]),
   midi.NoteOnEvent(tick=0, channel=0, data=[73, 46]),
   midi.NoteOnEvent(tick=0, channel=0, data=[70, 46]),
   midi.NoteOnEvent(tick=120, channel=0, data=[70, 0]),
   midi.NoteOnEvent(tick=0, channel=0, data=[73, 0]),
   midi.NoteOnEvent(tick=0, channel=0, data=[65, 0]),
   midi.NoteOnEvent(tick=0, channel=0, data=[77, 46]),
   midi.NoteOnEvent(tick=0, channel=0, data=[73, 46]),
   midi.NoteOnEvent(tick=60, channel=0, data=[73, 0]),
   midi.NoteOnEvent(tick=0, channel=0, data=[77, 0]),
   midi.NoteOnEvent(tick=60, channel=0, data=[65, 40]),
   midi.NoteOnEvent(tick=0, channel=0, data=[73, 50]),
   midi.NoteOnEvent(tick=0, channel=0, data=[77, 50]),
   midi.NoteOnEvent(tick=120, channel=0, data=[77, 0]),
   midi.NoteOnEvent(tick=0, channel=0, data=[73, 0]),
   midi.NoteOnEvent(tick=0, channel=0, data=[73, 45]),
   midi.NoteOnEvent(tick=0, channel=0, data=[70, 45]),
   midi.NoteOnEvent(tick=120, channel=0, data=[70, 0]),
   midi.NoteOnEvent(tick=0, channel=0, data=[73, 0]),
   midi.NoteOnEvent(tick=0, channel=0, data=[65, 0]),
   midi.NoteOnEvent(tick=0, channel=0, data=[77, 45]),
   midi.NoteOnEvent(tick=0, channel=0, data=[73, 45]),
   midi.NoteOnEvent(tick=60, channel=0, data=[73, 0]),
   midi.NoteOnEvent(tick=0, channel=0, data=[77, 0]),
   midi.NoteOnEvent(tick=60, channel=0, data=[65, 40]),
   midi.NoteOnEvent(tick=0, channel=0, data=[73, 50]),
   midi.NoteOnEvent(tick=0, channel=0, data=[77, 50]),
   midi.NoteOnEvent(tick=120, channel=0, data=[77, 0]),
   midi.NoteOnEvent(tick=0, channel=0, data=[73, 0]),
   midi.NoteOnEvent(tick=0, channel=0, data=[73, 46]),
   midi.NoteOnEvent(tick=0, channel=0, data=[70, 46]),
   midi.NoteOnEvent(tick=120, channel=0, data=[70, 0]),
   midi.NoteOnEvent(tick=0, channel=0, data=[73, 0]),
   midi.NoteOnEvent(tick=0, channel=0, data=[65, 0]),
   midi.NoteOnEvent(tick=0, channel=0, data=[77, 46]),
   midi.NoteOnEvent(tick=0, channel=0, data=[73, 46]),
   midi.NoteOnEvent(tick=60, channel=0, data=[73, 0]),
   midi.NoteOnEvent(tick=0, channel=0, data=[77, 0]),
   midi.NoteOnEvent(tick=60, channel=0, data=[66, 71]),
   midi.NoteOnEvent(tick=0, channel=0, data=[73, 50]),
   midi.NoteOnEvent(tick=120, channel=0, data=[73, 0]),
   midi.NoteOnEvent(tick=0, channel=0, data=[70, 45]),
   midi.NoteOnEvent(tick=120, channel=0, data=[70, 0]),
   midi.NoteOnEvent(tick=0, channel=0, data=[73, 45]),
   midi.NoteOnEvent(tick=60, channel=0, data=[73, 0]),
   midi.NoteOnEvent(tick=60, channel=0, data=[73, 50]),
   midi.NoteOnEvent(tick=120, channel=0, data=[73, 0]),
   midi.NoteOnEvent(tick=0, channel=0, data=[70, 46]),
   midi.NoteOnEvent(tick=120, channel=0, data=[70, 0]),
   midi.NoteOnEvent(tick=0, channel=0, data=[66, 0]),
   midi.NoteOnEvent(tick=0, channel=0, data=[65, 60]),
   midi.NoteOnEvent(tick=0, channel=0, data=[73, 46]),
   midi.NoteOnEvent(tick=60, channel=0, data=[73, 0]),
   midi.NoteOnEvent(tick=60, channel=0, data=[65, 0]),
   midi.NoteOnEvent(tick=0, channel=0, data=[64, 72]),
   midi.NoteOnEvent(tick=0, channel=0, data=[73, 50]),
   midi.NoteOnEvent(tick=120, channel=0, data=[73, 0]),
   midi.NoteOnEvent(tick=0, channel=0, data=[70, 45]),
   midi.NoteOnEvent(tick=120, channel=0, data=[70, 0]),
   midi.NoteOnEvent(tick=0, channel=0, data=[73, 45]),
   midi.NoteOnEvent(tick=60, channel=0, data=[73, 0]),
   midi.NoteOnEvent(tick=60, channel=0, data=[73, 50]),
   midi.NoteOnEvent(tick=120, channel=0, data=[73, 0]),
   midi.NoteOnEvent(tick=0, channel=0, data=[70, 46]),
   midi.NoteOnEvent(tick=60, channel=0, data=[64, 0]),
   midi.NoteOnEvent(tick=60, channel=0, data=[70, 0]),
   midi.NoteOnEvent(tick=0, channel=0, data=[73, 61]),
   midi.NoteOnEvent(tick=0, channel=0, data=[64, 60]),
   midi.NoteOnEvent(tick=60, channel=0, data=[73, 0]),
   midi.NoteOnEvent(tick=60, channel=0, data=[64, 0]),
   midi.NoteOnEvent(tick=0, channel=0, data=[65, 75]),
   midi.NoteOnEvent(tick=120, channel=0, data=[60, 54]),
   midi.NoteOnEvent(tick=0, channel=0, data=[63, 54]),
   midi.NoteOnEvent(tick=60, channel=0, data=[63, 0]),
   midi.NoteOnEvent(tick=0, channel=0, data=[60, 0]),
   midi.NoteOnEvent(tick=60, channel=0, data=[60, 54]),
   midi.NoteOnEvent(tick=0, channel=0, data=[63, 54]),
   midi.NoteOnEvent(tick=60, channel=0, data=[63, 0]),
   midi.NoteOnEvent(tick=0, channel=0, data=[60, 0]),
   midi.NoteOnEvent(tick=60, channel=0, data=[60, 54]),
   midi.NoteOnEvent(tick=0, channel=0, data=[63, 54]),
   midi.NoteOnEvent(tick=60, channel=0, data=[63, 0]),
   midi.NoteOnEvent(tick=0, channel=0, data=[60, 0]),
   midi.NoteOnEvent(tick=60, channel=0, data=[65, 0]),
   midi.NoteOnEvent(tick=0, channel=0, data=[58, 54]),
   midi.NoteOnEvent(tick=0, channel=0, data=[67, 56]),
   midi.NoteOnEvent(tick=60, channel=0, data=[67, 0]),
   midi.NoteOnEvent(tick=0, channel=0, data=[58, 0]),
   midi.NoteOnEvent(tick=60, channel=0, data=[60, 54]),
   midi.NoteOnEvent(tick=0, channel=0, data=[69, 61]),
   midi.NoteOnEvent(tick=60, channel=0, data=[69, 0]),
   midi.NoteOnEvent(tick=0, channel=0, data=[60, 0]),
   midi.NoteOnEvent(tick=0, channel=0, data=[72, 64]),
   midi.NoteOnEvent(tick=60, channel=0, data=[72, 0]),
   midi.NoteOnEvent(tick=0, channel=0, data=[61, 61]),
   midi.NoteOnEvent(tick=0, channel=0, data=[70, 73]),
   midi.NoteOnEvent(tick=60, channel=0, data=[70, 0]),
   midi.NoteOnEvent(tick=0, channel=0, data=[61, 0]),
   midi.NoteOnEvent(tick=60, channel=0, data=[60, 54]),
   midi.NoteOnEvent(tick=0, channel=0, data=[69, 63]),
   midi.NoteOnEvent(tick=60, channel=0, data=[69, 0]),
   midi.NoteOnEvent(tick=0, channel=0, data=[60, 0]),
   midi.NoteOnEvent(tick=60, channel=0, data=[61, 53]),
   midi.NoteOnEvent(tick=0, channel=0, data=[70, 63]),
   midi.NoteOnEvent(tick=60, channel=0, data=[70, 0]),
   midi.NoteOnEvent(tick=0, channel=0, data=[61, 0]),
   midi.NoteOnEvent(tick=60, channel=0, data=[65, 60]),
   midi.NoteOnEvent(tick=0, channel=0, data=[73, 71]),
   midi.NoteOnEvent(tick=60, channel=0, data=[73, 0]),
   midi.NoteOnEvent(tick=0, channel=0, data=[65, 0]),
   midi.NoteOnEvent(tick=60, channel=0, data=[63, 53]),
   midi.NoteOnEvent(tick=0, channel=0, data=[72, 63]),
   midi.NoteOnEvent(tick=60, channel=0, data=[72, 0]),
   midi.NoteOnEvent(tick=0, channel=0, data=[63, 0]),
   midi.NoteOnEvent(tick=60, channel=0, data=[61, 58]),
   midi.NoteOnEvent(tick=0, channel=0, data=[70, 70]),
   midi.NoteOnEvent(tick=60, channel=0, data=[70, 0]),
   midi.NoteOnEvent(tick=0, channel=0, data=[61, 0]),
   midi.NoteOnEvent(tick=60, channel=0, data=[61, 70]),
   midi.NoteOnEvent(tick=0, channel=0, data=[70, 82]),
   midi.NoteOnEvent(tick=360, channel=0, data=[64, 66]),
   midi.NoteOnEvent(tick=360, channel=0, data=[64, 0]),
   midi.NoteOnEvent(tick=0, channel=0, data=[70, 0]),
   midi.NoteOnEvent(tick=0, channel=0, data=[61, 0]),
   midi.NoteOnEvent(tick=0, channel=0, data=[60, 67]),
   midi.NoteOnEvent(tick=0, channel=0, data=[65, 67]),
   midi.NoteOnEvent(tick=0, channel=0, data=[69, 80]),
   midi.NoteOnEvent(tick=360, channel=0, data=[69, 0]),
   midi.NoteOnEvent(tick=0, channel=0, data=[65, 0]),
   midi.NoteOnEvent(tick=0, channel=0, data=[60, 0]),
   midi.NoteOnEvent(tick=360, channel=0, data=[70, 62]),
   midi.NoteOnEvent(tick=0, channel=0, data=[65, 52]),
   midi.NoteOnEvent(tick=360, channel=0, data=[70, 0]),
   midi.NoteOnEvent(tick=0, channel=0, data=[68, 55]),
   midi.NoteOnEvent(tick=230, channel=0, data=[68, 0]),
   midi.NoteOnEvent(tick=10, channel=0, data=[68, 55]),
   midi.NoteOnEvent(tick=120, channel=0, data=[68, 0]),
   midi.NoteOnEvent(tick=0, channel=0, data=[65, 0]),
   midi.NoteOnEvent(tick=0, channel=0, data=[66, 62]),
   midi.NoteOnEvent(tick=0, channel=0, data=[63, 52]),
   midi.NoteOnEvent(tick=360, channel=0, data=[66, 0]),
   midi.NoteOnEvent(tick=0, channel=0, data=[67, 55]),
   midi.NoteOnEvent(tick=360, channel=0, data=[67, 0]),
   midi.NoteOnEvent(tick=0, channel=0, data=[63, 0]),
   midi.NoteOnEvent(tick=0, channel=0, data=[70, 68]),
   midi.NoteOnEvent(tick=0, channel=0, data=[82, 80]),
   midi.NoteOnEvent(tick=0, channel=0, data=[77, 68]),
   midi.NoteOnEvent(tick=360, channel=0, data=[82, 0]),
   midi.NoteOnEvent(tick=0, channel=0, data=[70, 0]),
   midi.NoteOnEvent(tick=0, channel=0, data=[68, 60]),
   midi.NoteOnEvent(tick=0, channel=0, data=[80, 71]),
   midi.NoteOnEvent(tick=230, channel=0, data=[80, 0]),
   midi.NoteOnEvent(tick=0, channel=0, data=[68, 0]),
   midi.NoteOnEvent(tick=10, channel=0, data=[68, 60]),
   midi.NoteOnEvent(tick=0, channel=0, data=[80, 71]),
   midi.NoteOnEvent(tick=120, channel=0, data=[80, 0]),
   midi.NoteOnEvent(tick=0, channel=0, data=[68, 0]),
   midi.NoteOnEvent(tick=0, channel=0, data=[77, 0]),
   midi.NoteOnEvent(tick=0, channel=0, data=[67, 68]),
   midi.NoteOnEvent(tick=0, channel=0, data=[79, 80]),
   midi.NoteOnEvent(tick=0, channel=0, data=[75, 68]),
   midi.NoteOnEvent(tick=360, channel=0, data=[79, 0]),
   midi.NoteOnEvent(tick=0, channel=0, data=[67, 0]),
   midi.NoteOnEvent(tick=0, channel=0, data=[66, 60]),
   midi.NoteOnEvent(tick=0, channel=0, data=[78, 71]),
   midi.NoteOnEvent(tick=240, channel=0, data=[78, 0]),
   midi.NoteOnEvent(tick=0, channel=0, data=[66, 0]),
   midi.NoteOnEvent(tick=0, channel=0, data=[67, 60]),
   midi.NoteOnEvent(tick=0, channel=0, data=[79, 71]),
   midi.NoteOnEvent(tick=90, channel=0, data=[79, 0]),
   midi.NoteOnEvent(tick=0, channel=0, data=[67, 0]),
   midi.NoteOnEvent(tick=30, channel=0, data=[75, 0]),
   midi.NoteOnEvent(tick=0, channel=0, data=[67, 72]),
   midi.NoteOnEvent(tick=0, channel=0, data=[70, 72]),
   midi.NoteOnEvent(tick=0, channel=0, data=[79, 85]),
   midi.NoteOnEvent(tick=60, channel=0, data=[79, 0]),
   midi.NoteOnEvent(tick=0, channel=0, data=[70, 0]),
   midi.NoteOnEvent(tick=0, channel=0, data=[67, 0]),
   midi.NoteOnEvent(tick=60, channel=0, data=[67, 61]),
   midi.NoteOnEvent(tick=0, channel=0, data=[70, 61]),
   midi.NoteOnEvent(tick=0, channel=0, data=[77, 72]),
   midi.NoteOnEvent(tick=60, channel=0, data=[77, 0]),
   midi.NoteOnEvent(tick=0, channel=0, data=[70, 0]),
   midi.NoteOnEvent(tick=0, channel=0, data=[67, 0]),
   midi.NoteOnEvent(tick=60, channel=0, data=[76, 69]),
   midi.NoteOnEvent(tick=0, channel=0, data=[70, 58]),
   midi.NoteOnEvent(tick=0, channel=0, data=[67, 58]),
   midi.NoteOnEvent(tick=60, channel=0, data=[67, 0]),
   midi.NoteOnEvent(tick=0, channel=0, data=[70, 0]),
   midi.NoteOnEvent(tick=0, channel=0, data=[76, 0]),
   midi.NoteOnEvent(tick=60, channel=0, data=[76, 78]),
   midi.NoteOnEvent(tick=0, channel=0, data=[70, 66]),
   midi.NoteOnEvent(tick=0, channel=0, data=[67, 66]),
   midi.NoteOnEvent(tick=60, channel=0, data=[67, 0]),
   midi.NoteOnEvent(tick=0, channel=0, data=[70, 0]),
   midi.NoteOnEvent(tick=0, channel=0, data=[76, 0]),
   midi.NoteOnEvent(tick=60, channel=0, data=[67, 60]),
   midi.NoteOnEvent(tick=0, channel=0, data=[70, 60]),
   midi.NoteOnEvent(tick=0, channel=0, data=[74, 71]),
   midi.NoteOnEvent(tick=60, channel=0, data=[74, 0]),
   midi.NoteOnEvent(tick=0, channel=0, data=[70, 0]),
   midi.NoteOnEvent(tick=0, channel=0, data=[67, 0]),
   midi.NoteOnEvent(tick=60, channel=0, data=[67, 60]),
   midi.NoteOnEvent(tick=0, channel=0, data=[70, 60]),
   midi.NoteOnEvent(tick=0, channel=0, data=[72, 71]),
   midi.NoteOnEvent(tick=60, channel=0, data=[72, 0]),
   midi.NoteOnEvent(tick=0, channel=0, data=[70, 0]),
   midi.NoteOnEvent(tick=0, channel=0, data=[67, 0]),
   midi.NoteOnEvent(tick=60, channel=0, data=[72, 79]),
   midi.NoteOnEvent(tick=0, channel=0, data=[69, 67]),
   midi.NoteOnEvent(tick=0, channel=0, data=[65, 67]),
   midi.NoteOnEvent(tick=358, channel=0, data=[65, 0]),
   midi.NoteOnEvent(tick=2, channel=0, data=[69, 0]),
   midi.NoteOnEvent(tick=0, channel=0, data=[72, 0]),
   midi.NoteOnEvent(tick=0, channel=0, data=[74, 67]),
   midi.NoteOnEvent(tick=0, channel=0, data=[70, 56]),
   midi.NoteOnEvent(tick=0, channel=0, data=[65, 56]),
   midi.NoteOnEvent(tick=238, channel=0, data=[65, 0]),
   midi.NoteOnEvent(tick=0, channel=0, data=[70, 0]),
   midi.NoteOnEvent(tick=0, channel=0, data=[74, 0]),
   midi.NoteOnEvent(tick=2, channel=0, data=[65, 52]),
   midi.NoteOnEvent(tick=0, channel=0, data=[70, 52]),
   midi.NoteOnEvent(tick=0, channel=0, data=[74, 62]),
   midi.NoteOnEvent(tick=120, channel=0, data=[74, 0]),
   midi.NoteOnEvent(tick=0, channel=0, data=[70, 0]),
   midi.NoteOnEvent(tick=0, channel=0, data=[65, 0]),
   midi.NoteOnEvent(tick=0, channel=0, data=[75, 79]),
   midi.NoteOnEvent(tick=0, channel=0, data=[70, 67]),
   midi.NoteOnEvent(tick=0, channel=0, data=[67, 67]),
   midi.NoteOnEvent(tick=360, channel=0, data=[67, 0]),
   midi.NoteOnEvent(tick=0, channel=0, data=[70, 0]),
   midi.NoteOnEvent(tick=0, channel=0, data=[75, 0]),
   midi.NoteOnEvent(tick=0, channel=0, data=[72, 67]),
   midi.NoteOnEvent(tick=0, channel=0, data=[69, 56]),
   midi.NoteOnEvent(tick=238, channel=0, data=[69, 0]),
   midi.NoteOnEvent(tick=0, channel=0, data=[72, 0]),
   midi.NoteOnEvent(tick=2, channel=0, data=[65, 52]),
   midi.NoteOnEvent(tick=0, channel=0, data=[69, 52]),
   midi.NoteOnEvent(tick=0, channel=0, data=[72, 62]),
   midi.NoteOnEvent(tick=120, channel=0, data=[72, 0]),
   midi.NoteOnEvent(tick=0, channel=0, data=[69, 0]),
   midi.NoteOnEvent(tick=0, channel=0, data=[65, 0]),
   midi.NoteOnEvent(tick=0, channel=0, data=[77, 82]),
   midi.NoteOnEvent(tick=120, channel=0, data=[65, 55]),
   midi.NoteOnEvent(tick=0, channel=0, data=[70, 55]),
   midi.NoteOnEvent(tick=60, channel=0, data=[70, 0]),
   midi.NoteOnEvent(tick=0, channel=0, data=[65, 0]),
   midi.NoteOnEvent(tick=60, channel=0, data=[65, 56]),
   midi.NoteOnEvent(tick=0, channel=0, data=[70, 56]),
   midi.NoteOnEvent(tick=60, channel=0, data=[70, 0]),
   midi.NoteOnEvent(tick=0, channel=0, data=[65, 0]),
   midi.NoteOnEvent(tick=60, channel=0, data=[70, 64]),
   midi.NoteOnEvent(tick=0, channel=0, data=[65, 64]),
   midi.NoteOnEvent(tick=60, channel=0, data=[65, 0]),
   midi.NoteOnEvent(tick=0, channel=0, data=[70, 0]),
   midi.NoteOnEvent(tick=60, channel=0, data=[65, 57]),
   midi.NoteOnEvent(tick=0, channel=0, data=[70, 57]),
   midi.NoteOnEvent(tick=60, channel=0, data=[70, 0]),
   midi.NoteOnEvent(tick=0, channel=0, data=[65, 0]),
   midi.NoteOnEvent(tick=60, channel=0, data=[65, 58]),
   midi.NoteOnEvent(tick=0, channel=0, data=[70, 58]),
   midi.NoteOnEvent(tick=60, channel=0, data=[70, 0]),
   midi.NoteOnEvent(tick=0, channel=0, data=[65, 0]),
   midi.NoteOnEvent(tick=60, channel=0, data=[77, 0]),
   midi.NoteOnEvent(tick=0, channel=0, data=[68, 60]),
   midi.NoteOnEvent(tick=0, channel=0, data=[70, 60]),
   midi.NoteOnEvent(tick=0, channel=0, data=[78, 90]),
   midi.NoteOnEvent(tick=60, channel=0, data=[70, 0]),
   midi.NoteOnEvent(tick=0, channel=0, data=[68, 0]),
   midi.NoteOnEvent(tick=60, channel=0, data=[68, 60]),
   midi.NoteOnEvent(tick=0, channel=0, data=[70, 60]),
   midi.NoteOnEvent(tick=60, channel=0, data=[70, 0]),
   midi.NoteOnEvent(tick=0, channel=0, data=[68, 0]),
   midi.NoteOnEvent(tick=60, channel=0, data=[68, 61]),
   midi.NoteOnEvent(tick=0, channel=0, data=[70, 61]),
   midi.NoteOnEvent(tick=60, channel=0, data=[70, 0]),
   midi.NoteOnEvent(tick=0, channel=0, data=[68, 0]),
   midi.NoteOnEvent(tick=60, channel=0, data=[70, 70]),
   midi.NoteOnEvent(tick=0, channel=0, data=[68, 70]),
   midi.NoteOnEvent(tick=60, channel=0, data=[68, 0]),
   midi.NoteOnEvent(tick=0, channel=0, data=[70, 0]),
   midi.NoteOnEvent(tick=60, channel=0, data=[68, 62]),
   midi.NoteOnEvent(tick=0, channel=0, data=[70, 62]),
   midi.NoteOnEvent(tick=60, channel=0, data=[70, 0]),
   midi.NoteOnEvent(tick=0, channel=0, data=[68, 0]),
   midi.NoteOnEvent(tick=60, channel=0, data=[68, 63]),
   midi.NoteOnEvent(tick=0, channel=0, data=[70, 63]),
   midi.NoteOnEvent(tick=60, channel=0, data=[70, 0]),
   midi.NoteOnEvent(tick=0, channel=0, data=[68, 0]),
   midi.NoteOnEvent(tick=60, channel=0, data=[78, 0]),
   midi.NoteOnEvent(tick=0, channel=0, data=[67, 65]),
   midi.NoteOnEvent(tick=0, channel=0, data=[70, 65]),
   midi.NoteOnEvent(tick=0, channel=0, data=[79, 98]),
   midi.NoteOnEvent(tick=60, channel=0, data=[70, 0]),
   midi.NoteOnEvent(tick=0, channel=0, data=[67, 0]),
   midi.NoteOnEvent(tick=60, channel=0, data=[67, 65]),
   midi.NoteOnEvent(tick=0, channel=0, data=[70, 65]),
   midi.NoteOnEvent(tick=60, channel=0, data=[70, 0]),
   midi.NoteOnEvent(tick=0, channel=0, data=[67, 0]),
   midi.NoteOnEvent(tick=60, channel=0, data=[67, 65]),
   midi.NoteOnEvent(tick=0, channel=0, data=[70, 65]),
   midi.NoteOnEvent(tick=60, channel=0, data=[70, 0]),
   midi.NoteOnEvent(tick=0, channel=0, data=[67, 0]),
   midi.NoteOnEvent(tick=60, channel=0, data=[70, 73]),
   midi.NoteOnEvent(tick=0, channel=0, data=[67, 73]),
   midi.NoteOnEvent(tick=60, channel=0, data=[67, 0]),
   midi.NoteOnEvent(tick=0, channel=0, data=[70, 0]),
   midi.NoteOnEvent(tick=60, channel=0, data=[67, 65]),
   midi.NoteOnEvent(tick=0, channel=0, data=[70, 65]),
   midi.NoteOnEvent(tick=60, channel=0, data=[70, 0]),
   midi.NoteOnEvent(tick=0, channel=0, data=[67, 0]),
   midi.NoteOnEvent(tick=60, channel=0, data=[67, 65]),
   midi.NoteOnEvent(tick=0, channel=0, data=[70, 65]),
   midi.NoteOnEvent(tick=60, channel=0, data=[70, 0]),
   midi.NoteOnEvent(tick=0, channel=0, data=[67, 0]),
   midi.NoteOnEvent(tick=60, channel=0, data=[79, 0]),
   midi.NoteOnEvent(tick=0, channel=0, data=[67, 72]),
   midi.NoteOnEvent(tick=0, channel=0, data=[70, 72]),
   midi.NoteOnEvent(tick=0, channel=0, data=[79, 85]),
   midi.NoteOnEvent(tick=60, channel=0, data=[79, 0]),
   midi.NoteOnEvent(tick=0, channel=0, data=[70, 0]),
   midi.NoteOnEvent(tick=0, channel=0, data=[67, 0]),
   midi.NoteOnEvent(tick=60, channel=0, data=[67, 61]),
   midi.NoteOnEvent(tick=0, channel=0, data=[70, 61]),
   midi.NoteOnEvent(tick=0, channel=0, data=[77, 72]),
   midi.NoteOnEvent(tick=60, channel=0, data=[77, 0]),
   midi.NoteOnEvent(tick=0, channel=0, data=[70, 0]),
   midi.NoteOnEvent(tick=0, channel=0, data=[67, 0]),
   midi.NoteOnEvent(tick=60, channel=0, data=[76, 69]),
   midi.NoteOnEvent(tick=0, channel=0, data=[70, 58]),
   midi.NoteOnEvent(tick=0, channel=0, data=[67, 58]),
   midi.NoteOnEvent(tick=60, channel=0, data=[67, 0]),
   midi.NoteOnEvent(tick=0, channel=0, data=[70, 0]),
   midi.NoteOnEvent(tick=0, channel=0, data=[76, 0]),
   midi.NoteOnEvent(tick=60, channel=0, data=[76, 78]),
   midi.NoteOnEvent(tick=0, channel=0, data=[70, 66]),
   midi.NoteOnEvent(tick=0, channel=0, data=[67, 66]),
   midi.NoteOnEvent(tick=60, channel=0, data=[67, 0]),
   midi.NoteOnEvent(tick=0, channel=0, data=[70, 0]),
   midi.NoteOnEvent(tick=0, channel=0, data=[76, 0]),
   midi.NoteOnEvent(tick=60, channel=0, data=[67, 60]),
   midi.NoteOnEvent(tick=0, channel=0, data=[70, 60]),
   midi.NoteOnEvent(tick=0, channel=0, data=[74, 71]),
   midi.NoteOnEvent(tick=60, channel=0, data=[74, 0]),
   midi.NoteOnEvent(tick=0, channel=0, data=[70, 0]),
   midi.NoteOnEvent(tick=0, channel=0, data=[67, 0]),
   midi.NoteOnEvent(tick=60, channel=0, data=[67, 60]),
   midi.NoteOnEvent(tick=0, channel=0, data=[70, 60]),
   midi.NoteOnEvent(tick=0, channel=0, data=[72, 71]),
   midi.NoteOnEvent(tick=60, channel=0, data=[72, 0]),
   midi.NoteOnEvent(tick=0, channel=0, data=[70, 0]),
   midi.NoteOnEvent(tick=0, channel=0, data=[67, 0]),
   midi.NoteOnEvent(tick=60, channel=0, data=[72, 79]),
   midi.NoteOnEvent(tick=120, channel=0, data=[65, 56]),
   midi.NoteOnEvent(tick=0, channel=0, data=[69, 56]),
   midi.NoteOnEvent(tick=60, channel=0, data=[69, 0]),
   midi.NoteOnEvent(tick=0, channel=0, data=[65, 0]),
   midi.NoteOnEvent(tick=60, channel=0, data=[65, 56]),
   midi.NoteOnEvent(tick=0, channel=0, data=[69, 56]),
   midi.NoteOnEvent(tick=60, channel=0, data=[69, 0]),
   midi.NoteOnEvent(tick=0, channel=0, data=[65, 0]),
   midi.NoteOnEvent(tick=60, channel=0, data=[72, 0]),
   midi.NoteOnEvent(tick=0, channel=0, data=[74, 67]),
   midi.NoteOnEvent(tick=120, channel=0, data=[65, 47]),
   midi.NoteOnEvent(tick=0, channel=0, data=[70, 47]),
   midi.NoteOnEvent(tick=60, channel=0, data=[70, 0]),
   midi.NoteOnEvent(tick=0, channel=0, data=[65, 0]),
   midi.NoteOnEvent(tick=60, channel=0, data=[74, 0]),
   midi.NoteOnEvent(tick=0, channel=0, data=[65, 52]),
   midi.NoteOnEvent(tick=0, channel=0, data=[70, 52]),
   midi.NoteOnEvent(tick=0, channel=0, data=[74, 62]),
   midi.NoteOnEvent(tick=120, channel=0, data=[74, 0]),
   midi.NoteOnEvent(tick=0, channel=0, data=[70, 0]),
   midi.NoteOnEvent(tick=0, channel=0, data=[65, 0]),
   midi.NoteOnEvent(tick=0, channel=0, data=[77, 79]),
   midi.NoteOnEvent(tick=120, channel=0, data=[67, 56]),
   midi.NoteOnEvent(tick=0, channel=0, data=[70, 56]),
   midi.NoteOnEvent(tick=60, channel=0, data=[70, 0]),
   midi.NoteOnEvent(tick=0, channel=0, data=[67, 0]),
   midi.NoteOnEvent(tick=60, channel=0, data=[67, 56]),
   midi.NoteOnEvent(tick=0, channel=0, data=[70, 56]),
   midi.NoteOnEvent(tick=60, channel=0, data=[70, 0]),
   midi.NoteOnEvent(tick=0, channel=0, data=[67, 0]),
   midi.NoteOnEvent(tick=60, channel=0, data=[77, 0]),
   midi.NoteOnEvent(tick=0, channel=0, data=[75, 67]),
   midi.NoteOnEvent(tick=120, channel=0, data=[65, 47]),
   midi.NoteOnEvent(tick=0, channel=0, data=[69, 47]),
   midi.NoteOnEvent(tick=60, channel=0, data=[69, 0]),
   midi.NoteOnEvent(tick=0, channel=0, data=[65, 0]),
   midi.NoteOnEvent(tick=60, channel=0, data=[75, 0]),
   midi.NoteOnEvent(tick=0, channel=0, data=[72, 49]),
   midi.NoteOnEvent(tick=0, channel=0, data=[69, 41]),
   midi.NoteOnEvent(tick=0, channel=0, data=[65, 41]),
   midi.NoteOnEvent(tick=120, channel=0, data=[65, 0]),
   midi.NoteOnEvent(tick=0, channel=0, data=[69, 0]),
   midi.NoteOnEvent(tick=0, channel=0, data=[72, 0]),
   midi.NoteOnEvent(tick=0, channel=0, data=[70, 61]),
   midi.NoteOnEvent(tick=120, channel=0, data=[65, 49]),
   midi.NoteOnEvent(tick=60, channel=0, data=[65, 0]),
   midi.NoteOnEvent(tick=60, channel=0, data=[65, 49]),
   midi.NoteOnEvent(tick=60, channel=0, data=[65, 0]),
   midi.NoteOnEvent(tick=60, channel=0, data=[70, 0]),
   midi.NoteOnEvent(tick=240, channel=0, data=[65, 47]),
   midi.NoteOnEvent(tick=60, channel=0, data=[65, 0]),
   midi.NoteOnEvent(tick=60, channel=0, data=[60, 55]),
   midi.NoteOnEvent(tick=0, channel=0, data=[65, 55]),
   midi.NoteOnEvent(tick=120, channel=0, data=[65, 0]),
   midi.NoteOnEvent(tick=0, channel=0, data=[60, 0]),
   midi.NoteOnEvent(tick=0, channel=0, data=[63, 50]),
   midi.NoteOnEvent(tick=0, channel=0, data=[53, 50]),
   midi.NoteOnEvent(tick=120, channel=0, data=[53, 0]),
   midi.NoteOnEvent(tick=0, channel=0, data=[63, 0]),
   midi.NoteOnEvent(tick=0, channel=0, data=[65, 50]),
   midi.NoteOnEvent(tick=0, channel=0, data=[60, 50]),
   midi.NoteOnEvent(tick=60, channel=0, data=[60, 0]),
   midi.NoteOnEvent(tick=0, channel=0, data=[65, 0]),
   midi.NoteOnEvent(tick=60, channel=0, data=[60, 57]),
   midi.NoteOnEvent(tick=0, channel=0, data=[65, 57]),
   midi.NoteOnEvent(tick=120, channel=0, data=[65, 0]),
   midi.NoteOnEvent(tick=0, channel=0, data=[60, 0]),
   midi.NoteOnEvent(tick=0, channel=0, data=[63, 54]),
   midi.NoteOnEvent(tick=0, channel=0, data=[53, 54]),
   midi.NoteOnEvent(tick=120, channel=0, data=[53, 0]),
   midi.NoteOnEvent(tick=0, channel=0, data=[63, 0]),
   midi.NoteOnEvent(tick=0, channel=0, data=[65, 54]),
   midi.NoteOnEvent(tick=0, channel=0, data=[60, 54]),
   midi.NoteOnEvent(tick=60, channel=0, data=[60, 0]),
   midi.NoteOnEvent(tick=0, channel=0, data=[65, 0]),
   midi.NoteOnEvent(tick=60, channel=0, data=[58, 60]),
   midi.NoteOnEvent(tick=0, channel=0, data=[65, 60]),
   midi.NoteOnEvent(tick=120, channel=0, data=[65, 0]),
   midi.NoteOnEvent(tick=0, channel=0, data=[58, 0]),
   midi.NoteOnEvent(tick=0, channel=0, data=[62, 55]),
   midi.NoteOnEvent(tick=0, channel=0, data=[53, 55]),
   midi.NoteOnEvent(tick=120, channel=0, data=[53, 0]),
   midi.NoteOnEvent(tick=0, channel=0, data=[62, 0]),
   midi.NoteOnEvent(tick=0, channel=0, data=[65, 56]),
   midi.NoteOnEvent(tick=0, channel=0, data=[58, 56]),
   midi.NoteOnEvent(tick=60, channel=0, data=[58, 0]),
   midi.NoteOnEvent(tick=0, channel=0, data=[65, 0]),
   midi.NoteOnEvent(tick=60, channel=0, data=[58, 64]),
   midi.NoteOnEvent(tick=0, channel=0, data=[65, 64]),
   midi.NoteOnEvent(tick=120, channel=0, data=[65, 0]),
   midi.NoteOnEvent(tick=0, channel=0, data=[58, 0]),
   midi.NoteOnEvent(tick=0, channel=0, data=[62, 59]),
   midi.NoteOnEvent(tick=0, channel=0, data=[53, 59]),
   midi.NoteOnEvent(tick=120, channel=0, data=[53, 0]),
   midi.NoteOnEvent(tick=0, channel=0, data=[62, 0]),
   midi.NoteOnEvent(tick=0, channel=0, data=[65, 60]),
   midi.NoteOnEvent(tick=0, channel=0, data=[58, 60]),
   midi.NoteOnEvent(tick=60, channel=0, data=[58, 0]),
   midi.NoteOnEvent(tick=0, channel=0, data=[65, 0]),
   midi.NoteOnEvent(tick=60, channel=0, data=[60, 66]),
   midi.NoteOnEvent(tick=0, channel=0, data=[65, 66]),
   midi.NoteOnEvent(tick=120, channel=0, data=[65, 0]),
   midi.NoteOnEvent(tick=0, channel=0, data=[60, 0]),
   midi.NoteOnEvent(tick=0, channel=0, data=[63, 61]),
   midi.NoteOnEvent(tick=0, channel=0, data=[53, 61]),
   midi.NoteOnEvent(tick=120, channel=0, data=[53, 0]),
   midi.NoteOnEvent(tick=0, channel=0, data=[63, 0]),
   midi.NoteOnEvent(tick=0, channel=0, data=[65, 61]),
   midi.NoteOnEvent(tick=0, channel=0, data=[60, 61]),
   midi.NoteOnEvent(tick=60, channel=0, data=[60, 0]),
   midi.NoteOnEvent(tick=0, channel=0, data=[65, 0]),
   midi.NoteOnEvent(tick=60, channel=0, data=[60, 69]),
   midi.NoteOnEvent(tick=0, channel=0, data=[65, 69]),
   midi.NoteOnEvent(tick=120, channel=0, data=[65, 0]),
   midi.NoteOnEvent(tick=0, channel=0, data=[60, 0]),
   midi.NoteOnEvent(tick=0, channel=0, data=[63, 64]),
   midi.NoteOnEvent(tick=0, channel=0, data=[53, 64]),
   midi.NoteOnEvent(tick=120, channel=0, data=[53, 0]),
   midi.NoteOnEvent(tick=0, channel=0, data=[63, 0]),
   midi.NoteOnEvent(tick=0, channel=0, data=[65, 66]),
   midi.NoteOnEvent(tick=0, channel=0, data=[60, 66]),
   midi.NoteOnEvent(tick=60, channel=0, data=[60, 0]),
   midi.NoteOnEvent(tick=0, channel=0, data=[65, 0]),
   midi.NoteOnEvent(tick=60, channel=0, data=[58, 73]),
   midi.NoteOnEvent(tick=0, channel=0, data=[65, 73]),
   midi.NoteOnEvent(tick=120, channel=0, data=[65, 0]),
   midi.NoteOnEvent(tick=0, channel=0, data=[58, 0]),
   midi.NoteOnEvent(tick=0, channel=0, data=[62, 66]),
   midi.NoteOnEvent(tick=0, channel=0, data=[53, 66]),
   midi.NoteOnEvent(tick=120, channel=0, data=[53, 0]),
   midi.NoteOnEvent(tick=0, channel=0, data=[62, 0]),
   midi.NoteOnEvent(tick=0, channel=0, data=[65, 67]),
   midi.NoteOnEvent(tick=0, channel=0, data=[58, 67]),
   midi.NoteOnEvent(tick=60, channel=0, data=[58, 0]),
   midi.NoteOnEvent(tick=0, channel=0, data=[65, 0]),
   midi.NoteOnEvent(tick=60, channel=0, data=[58, 76]),
   midi.NoteOnEvent(tick=0, channel=0, data=[65, 76]),
   midi.NoteOnEvent(tick=120, channel=0, data=[65, 0]),
   midi.NoteOnEvent(tick=0, channel=0, data=[58, 0]),
   midi.NoteOnEvent(tick=0, channel=0, data=[62, 71]),
   midi.NoteOnEvent(tick=0, channel=0, data=[53, 71]),
   midi.NoteOnEvent(tick=120, channel=0, data=[53, 0]),
   midi.NoteOnEvent(tick=0, channel=0, data=[62, 0]),
   midi.NoteOnEvent(tick=0, channel=0, data=[65, 71]),
   midi.NoteOnEvent(tick=0, channel=0, data=[58, 71]),
   midi.NoteOnEvent(tick=60, channel=0, data=[58, 0]),
   midi.NoteOnEvent(tick=0, channel=0, data=[65, 0]),
   midi.NoteOnEvent(tick=60, channel=0, data=[65, 88]),
   midi.NoteOnEvent(tick=0, channel=0, data=[60, 74]),
   midi.NoteOnEvent(tick=360, channel=0, data=[60, 0]),
   midi.NoteOnEvent(tick=0, channel=0, data=[65, 0]),
   midi.NoteOnEvent(tick=0, channel=0, data=[70, 91]),
   midi.NoteOnEvent(tick=0, channel=0, data=[58, 77]),
   midi.NoteOnEvent(tick=360, channel=0, data=[58, 0]),
   midi.NoteOnEvent(tick=0, channel=0, data=[70, 0]),
   midi.NoteOnEvent(tick=0, channel=0, data=[69, 94]),
   midi.NoteOnEvent(tick=0, channel=0, data=[57, 79]),
   midi.NoteOnEvent(tick=360, channel=0, data=[57, 0]),
   midi.NoteOnEvent(tick=0, channel=0, data=[69, 0]),
   midi.NoteOnEvent(tick=0, channel=0, data=[74, 97]),
   midi.NoteOnEvent(tick=0, channel=0, data=[62, 82]),
   midi.NoteOnEvent(tick=360, channel=0, data=[62, 0]),
   midi.NoteOnEvent(tick=0, channel=0, data=[74, 0]),
   midi.NoteOnEvent(tick=0, channel=0, data=[72, 100]),
   midi.NoteOnEvent(tick=0, channel=0, data=[60, 85]),
   midi.NoteOnEvent(tick=360, channel=0, data=[60, 0]),
   midi.NoteOnEvent(tick=0, channel=0, data=[72, 0]),
   midi.NoteOnEvent(tick=0, channel=0, data=[75, 103]),
   midi.NoteOnEvent(tick=0, channel=0, data=[63, 87]),
   midi.NoteOnEvent(tick=480, channel=0, data=[63, 0]),
   midi.NoteOnEvent(tick=0, channel=0, data=[75, 0]),
   midi.NoteOnEvent(tick=0, channel=0, data=[74, 86]),
   midi.NoteOnEvent(tick=0, channel=0, data=[63, 73]),
   midi.NoteOnEvent(tick=90, channel=0, data=[63, 0]),
   midi.NoteOnEvent(tick=0, channel=0, data=[74, 0]),
   midi.NoteOnEvent(tick=30, channel=0, data=[72, 86]),
   midi.NoteOnEvent(tick=0, channel=0, data=[63, 73]),
   midi.NoteOnEvent(tick=90, channel=0, data=[63, 0]),
   midi.NoteOnEvent(tick=0, channel=0, data=[72, 0]),
   midi.NoteOnEvent(tick=30, channel=0, data=[63, 79]),
   midi.NoteOnEvent(tick=0, channel=0, data=[72, 93]),
   midi.NoteOnEvent(tick=90, channel=0, data=[72, 0]),
   midi.NoteOnEvent(tick=0, channel=0, data=[63, 0]),
   midi.NoteOnEvent(tick=30, channel=0, data=[70, 88]),
   midi.NoteOnEvent(tick=0, channel=0, data=[63, 74]),
   midi.NoteOnEvent(tick=90, channel=0, data=[63, 0]),
   midi.NoteOnEvent(tick=0, channel=0, data=[70, 0]),
   midi.NoteOnEvent(tick=30, channel=0, data=[69, 88]),
   midi.NoteOnEvent(tick=0, channel=0, data=[63, 74]),
   midi.NoteOnEvent(tick=90, channel=0, data=[63, 0]),
   midi.NoteOnEvent(tick=0, channel=0, data=[69, 0]),
   midi.NoteOnEvent(tick=30, channel=0, data=[63, 79]),
   midi.NoteOnEvent(tick=0, channel=0, data=[69, 93]),
   midi.NoteOnEvent(tick=90, channel=0, data=[69, 0]),
   midi.NoteOnEvent(tick=0, channel=0, data=[63, 0]),
   midi.NoteOnEvent(tick=30, channel=0, data=[67, 86]),
   midi.NoteOnEvent(tick=0, channel=0, data=[63, 73]),
   midi.NoteOnEvent(tick=90, channel=0, data=[63, 0]),
   midi.NoteOnEvent(tick=0, channel=0, data=[67, 0]),
   midi.NoteOnEvent(tick=30, channel=0, data=[65, 86]),
   midi.NoteOnEvent(tick=0, channel=0, data=[63, 73]),
   midi.NoteOnEvent(tick=90, channel=0, data=[63, 0]),
   midi.NoteOnEvent(tick=0, channel=0, data=[65, 0]),
   midi.NoteOnEvent(tick=30, channel=0, data=[60, 79]),
   midi.NoteOnEvent(tick=0, channel=0, data=[65, 93]),
   midi.NoteOnEvent(tick=90, channel=0, data=[65, 0]),
   midi.NoteOnEvent(tick=0, channel=0, data=[60, 0]),
   midi.NoteOnEvent(tick=30, channel=0, data=[64, 86]),
   midi.NoteOnEvent(tick=0, channel=0, data=[60, 73]),
   midi.NoteOnEvent(tick=90, channel=0, data=[60, 0]),
   midi.NoteOnEvent(tick=0, channel=0, data=[64, 0]),
   midi.NoteOnEvent(tick=30, channel=0, data=[63, 86]),
   midi.NoteOnEvent(tick=0, channel=0, data=[60, 73]),
   midi.NoteOnEvent(tick=90, channel=0, data=[60, 0]),
   midi.NoteOnEvent(tick=0, channel=0, data=[63, 0]),
   midi.NoteOnEvent(tick=30, channel=0, data=[57, 79]),
   midi.NoteOnEvent(tick=0, channel=0, data=[63, 93]),
   midi.NoteOnEvent(tick=90, channel=0, data=[63, 0]),
   midi.NoteOnEvent(tick=0, channel=0, data=[57, 0]),
   midi.NoteOnEvent(tick=30, channel=0, data=[62, 88]),
   midi.NoteOnEvent(tick=0, channel=0, data=[57, 74]),
   midi.NoteOnEvent(tick=90, channel=0, data=[57, 0]),
   midi.NoteOnEvent(tick=0, channel=0, data=[62, 0]),
   midi.NoteOnEvent(tick=30, channel=0, data=[60, 86]),
   midi.NoteOnEvent(tick=0, channel=0, data=[57, 73]),
   midi.NoteOnEvent(tick=90, channel=0, data=[57, 0]),
   midi.NoteOnEvent(tick=0, channel=0, data=[60, 0]),
   midi.NoteOnEvent(tick=30, channel=0, data=[57, 79]),
   midi.NoteOnEvent(tick=0, channel=0, data=[60, 93]),
   midi.NoteOnEvent(tick=90, channel=0, data=[60, 0]),
   midi.NoteOnEvent(tick=0, channel=0, data=[57, 0]),
   midi.NoteOnEvent(tick=30, channel=0, data=[58, 85]),
   midi.NoteOnEvent(tick=90, channel=0, data=[58, 0]),
   midi.NoteOnEvent(tick=30, channel=0, data=[57, 85]),
   midi.NoteOnEvent(tick=90, channel=0, data=[57, 0]),
   midi.NoteOnEvent(tick=30, channel=0, data=[58, 93]),
   midi.NoteOnEvent(tick=180, channel=0, data=[58, 0]),
   midi.NoteOnEvent(tick=180, channel=0, data=[53, 79]),
   midi.NoteOnEvent(tick=0, channel=0, data=[58, 79]),
   midi.NoteOnEvent(tick=0, channel=0, data=[62, 93]),
   midi.NoteOnEvent(tick=180, channel=0, data=[62, 0]),
   midi.NoteOnEvent(tick=0, channel=0, data=[58, 0]),
   midi.NoteOnEvent(tick=0, channel=0, data=[53, 0]),
   midi.NoteOnEvent(tick=180, channel=0, data=[58, 79]),
   midi.NoteOnEvent(tick=0, channel=0, data=[62, 79]),
   midi.NoteOnEvent(tick=0, channel=0, data=[65, 93]),
   midi.NoteOnEvent(tick=180, channel=0, data=[65, 0]),
   midi.NoteOnEvent(tick=0, channel=0, data=[62, 0]),
   midi.NoteOnEvent(tick=0, channel=0, data=[58, 0]),
   midi.NoteOnEvent(tick=180, channel=0, data=[62, 79]),
   midi.NoteOnEvent(tick=0, channel=0, data=[65, 79]),
   midi.NoteOnEvent(tick=0, channel=0, data=[70, 93]),
   midi.NoteOnEvent(tick=180, channel=0, data=[70, 0]),
   midi.NoteOnEvent(tick=0, channel=0, data=[65, 0]),
   midi.NoteOnEvent(tick=0, channel=0, data=[62, 0]),
   midi.NoteOnEvent(tick=180, channel=0, data=[62, 79]),
   midi.NoteOnEvent(tick=0, channel=0, data=[65, 79]),
   midi.NoteOnEvent(tick=0, channel=0, data=[70, 79]),
   midi.NoteOnEvent(tick=0, channel=0, data=[74, 93]),
   midi.NoteOnEvent(tick=240, channel=0, data=[74, 0]),
   midi.NoteOnEvent(tick=0, channel=0, data=[62, 0]),
   midi.NoteOnEvent(tick=0, channel=0, data=[65, 0]),
   midi.NoteOnEvent(tick=0, channel=0, data=[70, 0]),
   midi.NoteOnEvent(tick=480, channel=0, data=[65, 79]),
   midi.NoteOnEvent(tick=0, channel=0, data=[70, 79]),
   midi.NoteOnEvent(tick=0, channel=0, data=[77, 93]),
   midi.NoteOnEvent(tick=240, channel=0, data=[77, 0]),
   midi.NoteOnEvent(tick=0, channel=0, data=[70, 0]),
   midi.NoteOnEvent(tick=0, channel=0, data=[65, 0]),
   midi.NoteOnEvent(tick=480, channel=0, data=[74, 99]),
   midi.NoteOnEvent(tick=0, channel=0, data=[82, 116]),
   midi.NoteOnEvent(tick=240, channel=0, data=[82, 0]),
   midi.NoteOnEvent(tick=0, channel=0, data=[74, 0]),
   midi.EndOfTrackEvent(tick=0, data=[])]),
 midi.Track(\
[    midi.NoteOnEvent(tick=660, channel=0, data=[46, 35]),
   midi.NoteOnEvent(tick=60, channel=0, data=[61, 40]),
   midi.NoteOnEvent(tick=240, channel=0, data=[61, 0]),
   midi.NoteOnEvent(tick=0, channel=0, data=[46, 0]),
   midi.NoteOnEvent(tick=60, channel=0, data=[46, 35]),
   midi.NoteOnEvent(tick=60, channel=0, data=[61, 40]),
   midi.NoteOnEvent(tick=240, channel=0, data=[61, 0]),
   midi.NoteOnEvent(tick=0, channel=0, data=[46, 0]),
   midi.NoteOnEvent(tick=60, channel=0, data=[46, 35]),
   midi.NoteOnEvent(tick=60, channel=0, data=[61, 40]),
   midi.NoteOnEvent(tick=240, channel=0, data=[61, 0]),
   midi.NoteOnEvent(tick=0, channel=0, data=[46, 0]),
   midi.NoteOnEvent(tick=60, channel=0, data=[46, 35]),
   midi.NoteOnEvent(tick=60, channel=0, data=[61, 40]),
   midi.NoteOnEvent(tick=240, channel=0, data=[61, 0]),
   midi.NoteOnEvent(tick=0, channel=0, data=[46, 0]),
   midi.NoteOnEvent(tick=60, channel=0, data=[46, 35]),
   midi.NoteOnEvent(tick=60, channel=0, data=[61, 40]),
   midi.NoteOnEvent(tick=240, channel=0, data=[61, 0]),
   midi.NoteOnEvent(tick=0, channel=0, data=[46, 0]),
   midi.NoteOnEvent(tick=60, channel=0, data=[46, 35]),
   midi.NoteOnEvent(tick=60, channel=0, data=[61, 40]),
   midi.NoteOnEvent(tick=240, channel=0, data=[61, 0]),
   midi.NoteOnEvent(tick=0, channel=0, data=[46, 0]),
   midi.NoteOnEvent(tick=60, channel=0, data=[46, 35]),
   midi.NoteOnEvent(tick=60, channel=0, data=[61, 40]),
   midi.NoteOnEvent(tick=240, channel=0, data=[61, 0]),
   midi.NoteOnEvent(tick=0, channel=0, data=[46, 0]),
   midi.NoteOnEvent(tick=60, channel=0, data=[46, 35]),
   midi.NoteOnEvent(tick=60, channel=0, data=[61, 40]),
   midi.NoteOnEvent(tick=240, channel=0, data=[61, 0]),
   midi.NoteOnEvent(tick=0, channel=0, data=[46, 0]),
   midi.NoteOnEvent(tick=120, channel=0, data=[45, 49]),
   midi.NoteOnEvent(tick=120, channel=0, data=[45, 0]),
   midi.NoteOnEvent(tick=0, channel=0, data=[53, 40]),
   midi.NoteOnEvent(tick=60, channel=0, data=[53, 0]),
   midi.NoteOnEvent(tick=60, channel=0, data=[53, 42]),
   midi.NoteOnEvent(tick=60, channel=0, data=[53, 0]),
   midi.NoteOnEvent(tick=60, channel=0, data=[41, 42]),
   midi.NoteOnEvent(tick=120, channel=0, data=[41, 0]),
   midi.NoteOnEvent(tick=0, channel=0, data=[53, 47]),
   midi.NoteOnEvent(tick=60, channel=0, data=[53, 0]),
   midi.NoteOnEvent(tick=60, channel=0, data=[53, 50]),
   midi.NoteOnEvent(tick=60, channel=0, data=[53, 0]),
   midi.NoteOnEvent(tick=60, channel=0, data=[46, 54]),
   midi.NoteOnEvent(tick=120, channel=0, data=[46, 0]),
   midi.NoteOnEvent(tick=0, channel=0, data=[53, 43]),
   midi.NoteOnEvent(tick=60, channel=0, data=[53, 0]),
   midi.NoteOnEvent(tick=60, channel=0, data=[53, 46]),
   midi.NoteOnEvent(tick=60, channel=0, data=[53, 0]),
   midi.NoteOnEvent(tick=60, channel=0, data=[39, 58]),
   midi.NoteOnEvent(tick=120, channel=0, data=[39, 0]),
   midi.NoteOnEvent(tick=0, channel=0, data=[54, 48]),
   midi.NoteOnEvent(tick=60, channel=0, data=[54, 0]),
   midi.NoteOnEvent(tick=60, channel=0, data=[54, 48]),
   midi.NoteOnEvent(tick=60, channel=0, data=[54, 0]),
   midi.NoteOnEvent(tick=60, channel=0, data=[41, 60]),
   midi.NoteOnEvent(tick=120, channel=0, data=[41, 0]),
   midi.NoteOnEvent(tick=0, channel=0, data=[53, 49]),
   midi.NoteOnEvent(tick=60, channel=0, data=[53, 0]),
   midi.NoteOnEvent(tick=60, channel=0, data=[53, 46]),
   midi.NoteOnEvent(tick=60, channel=0, data=[53, 0]),
   midi.NoteOnEvent(tick=60, channel=0, data=[53, 55]),
   midi.NoteOnEvent(tick=60, channel=0, data=[53, 0]),
   midi.NoteOnEvent(tick=60, channel=0, data=[53, 46]),
   midi.NoteOnEvent(tick=60, channel=0, data=[53, 0]),
   midi.NoteOnEvent(tick=60, channel=0, data=[53, 46]),
   midi.NoteOnEvent(tick=60, channel=0, data=[53, 0]),
   midi.NoteOnEvent(tick=60, channel=0, data=[53, 56]),
   midi.NoteOnEvent(tick=120, channel=0, data=[53, 0]),
   midi.NoteOnEvent(tick=0, channel=0, data=[54, 46]),
   midi.NoteOnEvent(tick=120, channel=0, data=[54, 0]),
   midi.NoteOnEvent(tick=0, channel=0, data=[53, 48]),
   midi.NoteOnEvent(tick=60, channel=0, data=[53, 0]),
   midi.NoteOnEvent(tick=60, channel=0, data=[53, 52]),
   midi.NoteOnEvent(tick=60, channel=0, data=[53, 0]),
   midi.NoteOnEvent(tick=60, channel=0, data=[53, 46]),
   midi.NoteOnEvent(tick=60, channel=0, data=[53, 0]),
   midi.NoteOnEvent(tick=60, channel=0, data=[53, 40]),
   midi.NoteOnEvent(tick=60, channel=0, data=[53, 0]),
   midi.NoteOnEvent(tick=0, channel=0, data=[46, 35]),
   midi.NoteOnEvent(tick=60, channel=0, data=[61, 40]),
   midi.NoteOnEvent(tick=240, channel=0, data=[61, 0]),
   midi.NoteOnEvent(tick=0, channel=0, data=[46, 0]),
   midi.NoteOnEvent(tick=60, channel=0, data=[46, 36]),
   midi.NoteOnEvent(tick=60, channel=0, data=[61, 41]),
   midi.NoteOnEvent(tick=240, channel=0, data=[61, 0]),
   midi.NoteOnEvent(tick=0, channel=0, data=[46, 0]),
   midi.NoteOnEvent(tick=60, channel=0, data=[46, 37]),
   midi.NoteOnEvent(tick=60, channel=0, data=[61, 42]),
   midi.NoteOnEvent(tick=240, channel=0, data=[61, 0]),
   midi.NoteOnEvent(tick=0, channel=0, data=[46, 0]),
   midi.NoteOnEvent(tick=60, channel=0, data=[46, 44]),
   midi.NoteOnEvent(tick=60, channel=0, data=[61, 53]),
   midi.NoteOnEvent(tick=240, channel=0, data=[61, 0]),
   midi.NoteOnEvent(tick=0, channel=0, data=[46, 0]),
   midi.NoteOnEvent(tick=120, channel=0, data=[51, 69]),
   midi.NoteOnEvent(tick=120, channel=0, data=[58, 49]),
   midi.NoteOnEvent(tick=60, channel=0, data=[58, 0]),
   midi.NoteOnEvent(tick=60, channel=0, data=[58, 46]),
   midi.NoteOnEvent(tick=60, channel=0, data=[58, 0]),
   midi.NoteOnEvent(tick=60, channel=0, data=[51, 0]),
   midi.NoteOnEvent(tick=0, channel=0, data=[53, 60]),
   midi.NoteOnEvent(tick=0, channel=0, data=[58, 55]),
   midi.NoteOnEvent(tick=60, channel=0, data=[58, 0]),
   midi.NoteOnEvent(tick=60, channel=0, data=[58, 46]),
   midi.NoteOnEvent(tick=60, channel=0, data=[58, 0]),
   midi.NoteOnEvent(tick=60, channel=0, data=[53, 0]),
   midi.NoteOnEvent(tick=0, channel=0, data=[54, 60]),
   midi.NoteOnEvent(tick=0, channel=0, data=[58, 46]),
   midi.NoteOnEvent(tick=60, channel=0, data=[58, 0]),
   midi.NoteOnEvent(tick=60, channel=0, data=[54, 0]),
   midi.NoteOnEvent(tick=0, channel=0, data=[56, 60]),
   midi.NoteOnEvent(tick=120, channel=0, data=[56, 49]),
   midi.NoteOnEvent(tick=60, channel=0, data=[56, 0]),
   midi.NoteOnEvent(tick=50, channel=0, data=[56, 0]),
   midi.NoteOnEvent(tick=10, channel=0, data=[56, 46]),
   midi.NoteOnEvent(tick=60, channel=0, data=[56, 0]),
   midi.NoteOnEvent(tick=60, channel=0, data=[54, 60]),
   midi.NoteOnEvent(tick=0, channel=0, data=[56, 55]),
   midi.NoteOnEvent(tick=60, channel=0, data=[56, 0]),
   midi.NoteOnEvent(tick=60, channel=0, data=[56, 46]),
   midi.NoteOnEvent(tick=60, channel=0, data=[56, 0]),
   midi.NoteOnEvent(tick=60, channel=0, data=[56, 46]),
   midi.NoteOnEvent(tick=20, channel=0, data=[54, 0]),
   midi.NoteOnEvent(tick=40, channel=0, data=[56, 0]),
   midi.NoteOnEvent(tick=60, channel=0, data=[53, 49]),
   midi.NoteOnEvent(tick=0, channel=0, data=[56, 56]),
   midi.NoteOnEvent(tick=360, channel=0, data=[61, 55]),
   midi.NoteOnEvent(tick=240, channel=0, data=[61, 0]),
   midi.NoteOnEvent(tick=0, channel=0, data=[60, 52]),
   midi.NoteOnEvent(tick=90, channel=0, data=[60, 0]),
   midi.NoteOnEvent(tick=30, channel=0, data=[56, 0]),
   midi.NoteOnEvent(tick=0, channel=0, data=[53, 0]),
   midi.NoteOnEvent(tick=0, channel=0, data=[54, 49]),
   midi.NoteOnEvent(tick=0, channel=0, data=[60, 55]),
   midi.NoteOnEvent(tick=240, channel=0, data=[60, 0]),
   midi.NoteOnEvent(tick=0, channel=0, data=[58, 52]),
   midi.NoteOnEvent(tick=90, channel=0, data=[58, 0]),
   midi.NoteOnEvent(tick=30, channel=0, data=[61, 55]),
   midi.NoteOnEvent(tick=240, channel=0, data=[61, 0]),
   midi.NoteOnEvent(tick=0, channel=0, data=[58, 52]),
   midi.NoteOnEvent(tick=90, channel=0, data=[58, 0]),
   midi.NoteOnEvent(tick=30, channel=0, data=[54, 0]),
   midi.NoteOnEvent(tick=0, channel=0, data=[49, 49]),
   midi.NoteOnEvent(tick=0, channel=0, data=[58, 55]),
   midi.NoteOnEvent(tick=240, channel=0, data=[58, 0]),
   midi.NoteOnEvent(tick=0, channel=0, data=[56, 52]),
   midi.NoteOnEvent(tick=90, channel=0, data=[56, 0]),
   midi.NoteOnEvent(tick=30, channel=0, data=[61, 55]),
   midi.NoteOnEvent(tick=240, channel=0, data=[61, 0]),
   midi.NoteOnEvent(tick=0, channel=0, data=[56, 52]),
   midi.NoteOnEvent(tick=90, channel=0, data=[56, 0]),
   midi.NoteOnEvent(tick=30, channel=0, data=[49, 0]),
   midi.NoteOnEvent(tick=0, channel=0, data=[44, 41]),
   midi.NoteOnEvent(tick=0, channel=0, data=[56, 49]),
   midi.NoteOnEvent(tick=720, channel=0, data=[56, 0]),
   midi.NoteOnEvent(tick=0, channel=0, data=[44, 0]),
   midi.NoteOnEvent(tick=0, channel=0, data=[37, 41]),
   midi.NoteOnEvent(tick=720, channel=0, data=[37, 0]),
   midi.NoteOnEvent(tick=0, channel=0, data=[53, 43]),
   midi.NoteOnEvent(tick=120, channel=0, data=[53, 0]),
   midi.NoteOnEvent(tick=0, channel=0, data=[54, 41]),
   midi.NoteOnEvent(tick=120, channel=0, data=[54, 0]),
   midi.NoteOnEvent(tick=0, channel=0, data=[53, 38]),
   midi.NoteOnEvent(tick=120, channel=0, data=[53, 0]),
   midi.NoteOnEvent(tick=0, channel=0, data=[51, 41]),
   midi.NoteOnEvent(tick=120, channel=0, data=[51, 0]),
   midi.NoteOnEvent(tick=0, channel=0, data=[49, 38]),
   midi.NoteOnEvent(tick=120, channel=0, data=[49, 0]),
   midi.NoteOnEvent(tick=0, channel=0, data=[48, 38]),
   midi.NoteOnEvent(tick=60, channel=0, data=[48, 0]),
   midi.NoteOnEvent(tick=0, channel=0, data=[46, 35]),
   midi.NoteOnEvent(tick=60, channel=0, data=[61, 40]),
   midi.NoteOnEvent(tick=240, channel=0, data=[61, 0]),
   midi.NoteOnEvent(tick=0, channel=0, data=[46, 0]),
   midi.NoteOnEvent(tick=60, channel=0, data=[46, 35]),
   midi.NoteOnEvent(tick=60, channel=0, data=[61, 40]),
   midi.NoteOnEvent(tick=240, channel=0, data=[61, 0]),
   midi.NoteOnEvent(tick=0, channel=0, data=[46, 0]),
   midi.NoteOnEvent(tick=60, channel=0, data=[46, 35]),
   midi.NoteOnEvent(tick=60, channel=0, data=[61, 40]),
   midi.NoteOnEvent(tick=240, channel=0, data=[61, 0]),
   midi.NoteOnEvent(tick=0, channel=0, data=[46, 0]),
   midi.NoteOnEvent(tick=60, channel=0, data=[46, 35]),
   midi.NoteOnEvent(tick=60, channel=0, data=[61, 40]),
   midi.NoteOnEvent(tick=240, channel=0, data=[61, 0]),
   midi.NoteOnEvent(tick=0, channel=0, data=[46, 0]),
   midi.NoteOnEvent(tick=60, channel=0, data=[46, 35]),
   midi.NoteOnEvent(tick=60, channel=0, data=[61, 40]),
   midi.NoteOnEvent(tick=240, channel=0, data=[61, 0]),
   midi.NoteOnEvent(tick=0, channel=0, data=[46, 0]),
   midi.NoteOnEvent(tick=60, channel=0, data=[46, 35]),
   midi.NoteOnEvent(tick=60, channel=0, data=[61, 40]),
   midi.NoteOnEvent(tick=240, channel=0, data=[61, 0]),
   midi.NoteOnEvent(tick=0, channel=0, data=[46, 0]),
   midi.NoteOnEvent(tick=60, channel=0, data=[46, 35]),
   midi.NoteOnEvent(tick=60, channel=0, data=[61, 40]),
   midi.NoteOnEvent(tick=240, channel=0, data=[61, 0]),
   midi.NoteOnEvent(tick=0, channel=0, data=[46, 0]),
   midi.NoteOnEvent(tick=60, channel=0, data=[46, 35]),
   midi.NoteOnEvent(tick=60, channel=0, data=[61, 40]),
   midi.NoteOnEvent(tick=240, channel=0, data=[61, 0]),
   midi.NoteOnEvent(tick=0, channel=0, data=[46, 0]),
   midi.NoteOnEvent(tick=120, channel=0, data=[45, 49]),
   midi.NoteOnEvent(tick=120, channel=0, data=[45, 0]),
   midi.NoteOnEvent(tick=0, channel=0, data=[53, 40]),
   midi.NoteOnEvent(tick=60, channel=0, data=[53, 0]),
   midi.NoteOnEvent(tick=60, channel=0, data=[53, 42]),
   midi.NoteOnEvent(tick=60, channel=0, data=[53, 0]),
   midi.NoteOnEvent(tick=60, channel=0, data=[41, 42]),
   midi.NoteOnEvent(tick=120, channel=0, data=[41, 0]),
   midi.NoteOnEvent(tick=0, channel=0, data=[53, 47]),
   midi.NoteOnEvent(tick=60, channel=0, data=[53, 0]),
   midi.NoteOnEvent(tick=60, channel=0, data=[53, 50]),
   midi.NoteOnEvent(tick=60, channel=0, data=[53, 0]),
   midi.NoteOnEvent(tick=60, channel=0, data=[46, 54]),
   midi.NoteOnEvent(tick=120, channel=0, data=[46, 0]),
   midi.NoteOnEvent(tick=0, channel=0, data=[53, 43]),
   midi.NoteOnEvent(tick=60, channel=0, data=[53, 0]),
   midi.NoteOnEvent(tick=60, channel=0, data=[53, 46]),
   midi.NoteOnEvent(tick=60, channel=0, data=[53, 0]),
   midi.NoteOnEvent(tick=60, channel=0, data=[39, 58]),
   midi.NoteOnEvent(tick=120, channel=0, data=[39, 0]),
   midi.NoteOnEvent(tick=0, channel=0, data=[54, 48]),
   midi.NoteOnEvent(tick=60, channel=0, data=[54, 0]),
   midi.NoteOnEvent(tick=60, channel=0, data=[54, 48]),
   midi.NoteOnEvent(tick=60, channel=0, data=[54, 0]),
   midi.NoteOnEvent(tick=60, channel=0, data=[41, 60]),
   midi.NoteOnEvent(tick=120, channel=0, data=[41, 0]),
   midi.NoteOnEvent(tick=0, channel=0, data=[53, 49]),
   midi.NoteOnEvent(tick=60, channel=0, data=[53, 0]),
   midi.NoteOnEvent(tick=60, channel=0, data=[53, 46]),
   midi.NoteOnEvent(tick=60, channel=0, data=[53, 0]),
   midi.NoteOnEvent(tick=60, channel=0, data=[53, 55]),
   midi.NoteOnEvent(tick=60, channel=0, data=[53, 0]),
   midi.NoteOnEvent(tick=60, channel=0, data=[53, 46]),
   midi.NoteOnEvent(tick=60, channel=0, data=[53, 0]),
   midi.NoteOnEvent(tick=60, channel=0, data=[53, 46]),
   midi.NoteOnEvent(tick=60, channel=0, data=[53, 0]),
   midi.NoteOnEvent(tick=60, channel=0, data=[53, 56]),
   midi.NoteOnEvent(tick=120, channel=0, data=[53, 0]),
   midi.NoteOnEvent(tick=0, channel=0, data=[54, 46]),
   midi.NoteOnEvent(tick=120, channel=0, data=[54, 0]),
   midi.NoteOnEvent(tick=0, channel=0, data=[53, 48]),
   midi.NoteOnEvent(tick=60, channel=0, data=[53, 0]),
   midi.NoteOnEvent(tick=60, channel=0, data=[53, 52]),
   midi.NoteOnEvent(tick=60, channel=0, data=[53, 0]),
   midi.NoteOnEvent(tick=60, channel=0, data=[53, 46]),
   midi.NoteOnEvent(tick=60, channel=0, data=[53, 0]),
   midi.NoteOnEvent(tick=60, channel=0, data=[53, 40]),
   midi.NoteOnEvent(tick=60, channel=0, data=[53, 0]),
   midi.NoteOnEvent(tick=0, channel=0, data=[46, 35]),
   midi.NoteOnEvent(tick=60, channel=0, data=[61, 40]),
   midi.NoteOnEvent(tick=240, channel=0, data=[61, 0]),
   midi.NoteOnEvent(tick=0, channel=0, data=[46, 0]),
   midi.NoteOnEvent(tick=60, channel=0, data=[46, 36]),
   midi.NoteOnEvent(tick=60, channel=0, data=[61, 41]),
   midi.NoteOnEvent(tick=240, channel=0, data=[61, 0]),
   midi.NoteOnEvent(tick=0, channel=0, data=[46, 0]),
   midi.NoteOnEvent(tick=60, channel=0, data=[46, 37]),
   midi.NoteOnEvent(tick=60, channel=0, data=[61, 42]),
   midi.NoteOnEvent(tick=240, channel=0, data=[61, 0]),
   midi.NoteOnEvent(tick=0, channel=0, data=[46, 0]),
   midi.NoteOnEvent(tick=60, channel=0, data=[46, 44]),
   midi.NoteOnEvent(tick=60, channel=0, data=[61, 53]),
   midi.NoteOnEvent(tick=240, channel=0, data=[61, 0]),
   midi.NoteOnEvent(tick=0, channel=0, data=[46, 0]),
   midi.NoteOnEvent(tick=120, channel=0, data=[51, 69]),
   midi.NoteOnEvent(tick=120, channel=0, data=[58, 49]),
   midi.NoteOnEvent(tick=60, channel=0, data=[58, 0]),
   midi.NoteOnEvent(tick=60, channel=0, data=[58, 46]),
   midi.NoteOnEvent(tick=60, channel=0, data=[58, 0]),
   midi.NoteOnEvent(tick=60, channel=0, data=[51, 0]),
   midi.NoteOnEvent(tick=0, channel=0, data=[53, 60]),
   midi.NoteOnEvent(tick=0, channel=0, data=[58, 55]),
   midi.NoteOnEvent(tick=60, channel=0, data=[58, 0]),
   midi.NoteOnEvent(tick=60, channel=0, data=[58, 46]),
   midi.NoteOnEvent(tick=60, channel=0, data=[58, 0]),
   midi.NoteOnEvent(tick=60, channel=0, data=[53, 0]),
   midi.NoteOnEvent(tick=0, channel=0, data=[54, 60]),
   midi.NoteOnEvent(tick=0, channel=0, data=[58, 46]),
   midi.NoteOnEvent(tick=60, channel=0, data=[58, 0]),
   midi.NoteOnEvent(tick=60, channel=0, data=[54, 0]),
   midi.NoteOnEvent(tick=0, channel=0, data=[56, 60]),
   midi.NoteOnEvent(tick=120, channel=0, data=[56, 49]),
   midi.NoteOnEvent(tick=60, channel=0, data=[56, 0]),
   midi.NoteOnEvent(tick=50, channel=0, data=[56, 0]),
   midi.NoteOnEvent(tick=10, channel=0, data=[56, 46]),
   midi.NoteOnEvent(tick=60, channel=0, data=[56, 0]),
   midi.NoteOnEvent(tick=60, channel=0, data=[54, 60]),
   midi.NoteOnEvent(tick=0, channel=0, data=[56, 55]),
   midi.NoteOnEvent(tick=60, channel=0, data=[56, 0]),
   midi.NoteOnEvent(tick=60, channel=0, data=[56, 46]),
   midi.NoteOnEvent(tick=60, channel=0, data=[56, 0]),
   midi.NoteOnEvent(tick=60, channel=0, data=[56, 46]),
   midi.NoteOnEvent(tick=20, channel=0, data=[54, 0]),
   midi.NoteOnEvent(tick=40, channel=0, data=[56, 0]),
   midi.NoteOnEvent(tick=60, channel=0, data=[53, 49]),
   midi.NoteOnEvent(tick=0, channel=0, data=[56, 56]),
   midi.NoteOnEvent(tick=360, channel=0, data=[61, 55]),
   midi.NoteOnEvent(tick=240, channel=0, data=[61, 0]),
   midi.NoteOnEvent(tick=0, channel=0, data=[60, 52]),
   midi.NoteOnEvent(tick=90, channel=0, data=[60, 0]),
   midi.NoteOnEvent(tick=30, channel=0, data=[56, 0]),
   midi.NoteOnEvent(tick=0, channel=0, data=[53, 0]),
   midi.NoteOnEvent(tick=0, channel=0, data=[54, 49]),
   midi.NoteOnEvent(tick=0, channel=0, data=[60, 55]),
   midi.NoteOnEvent(tick=240, channel=0, data=[60, 0]),
   midi.NoteOnEvent(tick=0, channel=0, data=[58, 52]),
   midi.NoteOnEvent(tick=90, channel=0, data=[58, 0]),
   midi.NoteOnEvent(tick=30, channel=0, data=[61, 55]),
   midi.NoteOnEvent(tick=240, channel=0, data=[61, 0]),
   midi.NoteOnEvent(tick=0, channel=0, data=[58, 52]),
   midi.NoteOnEvent(tick=90, channel=0, data=[58, 0]),
   midi.NoteOnEvent(tick=30, channel=0, data=[54, 0]),
   midi.NoteOnEvent(tick=0, channel=0, data=[49, 49]),
   midi.NoteOnEvent(tick=0, channel=0, data=[58, 55]),
   midi.NoteOnEvent(tick=240, channel=0, data=[58, 0]),
   midi.NoteOnEvent(tick=0, channel=0, data=[56, 52]),
   midi.NoteOnEvent(tick=90, channel=0, data=[56, 0]),
   midi.NoteOnEvent(tick=30, channel=0, data=[61, 55]),
   midi.NoteOnEvent(tick=240, channel=0, data=[61, 0]),
   midi.NoteOnEvent(tick=0, channel=0, data=[56, 52]),
   midi.NoteOnEvent(tick=90, channel=0, data=[56, 0]),
   midi.NoteOnEvent(tick=30, channel=0, data=[49, 0]),
   midi.NoteOnEvent(tick=0, channel=0, data=[44, 41]),
   midi.NoteOnEvent(tick=0, channel=0, data=[56, 49]),
   midi.NoteOnEvent(tick=720, channel=0, data=[56, 0]),
   midi.NoteOnEvent(tick=0, channel=0, data=[44, 0]),
   midi.NoteOnEvent(tick=0, channel=0, data=[37, 41]),
   midi.NoteOnEvent(tick=720, channel=0, data=[37, 0]),
   midi.NoteOnEvent(tick=0, channel=0, data=[53, 43]),
   midi.NoteOnEvent(tick=120, channel=0, data=[53, 0]),
   midi.NoteOnEvent(tick=0, channel=0, data=[54, 41]),
   midi.NoteOnEvent(tick=120, channel=0, data=[54, 0]),
   midi.NoteOnEvent(tick=0, channel=0, data=[53, 38]),
   midi.NoteOnEvent(tick=120, channel=0, data=[53, 0]),
   midi.NoteOnEvent(tick=0, channel=0, data=[51, 41]),
   midi.NoteOnEvent(tick=120, channel=0, data=[51, 0]),
   midi.NoteOnEvent(tick=0, channel=0, data=[49, 38]),
   midi.NoteOnEvent(tick=120, channel=0, data=[49, 0]),
   midi.NoteOnEvent(tick=0, channel=0, data=[47, 38]),
   midi.NoteOnEvent(tick=120, channel=0, data=[47, 0]),
   midi.NoteOnEvent(tick=0, channel=0, data=[46, 40]),
   midi.NoteOnEvent(tick=240, channel=0, data=[46, 0]),
   midi.NoteOnEvent(tick=120, channel=0, data=[46, 40]),
   midi.NoteOnEvent(tick=240, channel=0, data=[46, 0]),
   midi.NoteOnEvent(tick=120, channel=0, data=[39, 49]),
   midi.NoteOnEvent(tick=120, channel=0, data=[46, 39]),
   midi.NoteOnEvent(tick=60, channel=0, data=[46, 0]),
   midi.NoteOnEvent(tick=60, channel=0, data=[39, 0]),
   midi.NoteOnEvent(tick=0, channel=0, data=[46, 38]),
   midi.NoteOnEvent(tick=60, channel=0, data=[46, 0]),
   midi.NoteOnEvent(tick=60, channel=0, data=[42, 45]),
   midi.NoteOnEvent(tick=0, channel=0, data=[46, 45]),
   midi.NoteOnEvent(tick=60, channel=0, data=[46, 0]),
   midi.NoteOnEvent(tick=60, channel=0, data=[46, 42]),
   midi.NoteOnEvent(tick=60, channel=0, data=[46, 0]),
   midi.NoteOnEvent(tick=60, channel=0, data=[42, 0]),
   midi.NoteOnEvent(tick=0, channel=0, data=[46, 42]),
   midi.NoteOnEvent(tick=60, channel=0, data=[46, 0]),
   midi.NoteOnEvent(tick=60, channel=0, data=[46, 40]),
   midi.NoteOnEvent(tick=240, channel=0, data=[46, 0]),
   midi.NoteOnEvent(tick=120, channel=0, data=[46, 40]),
   midi.NoteOnEvent(tick=240, channel=0, data=[46, 0]),
   midi.NoteOnEvent(tick=120, channel=0, data=[39, 49]),
   midi.NoteOnEvent(tick=120, channel=0, data=[46, 39]),
   midi.NoteOnEvent(tick=60, channel=0, data=[46, 0]),
   midi.NoteOnEvent(tick=60, channel=0, data=[39, 0]),
   midi.NoteOnEvent(tick=0, channel=0, data=[46, 38]),
   midi.NoteOnEvent(tick=60, channel=0, data=[46, 0]),
   midi.NoteOnEvent(tick=60, channel=0, data=[48, 45]),
   midi.NoteOnEvent(tick=60, channel=0, data=[48, 0]),
   midi.NoteOnEvent(tick=60, channel=0, data=[48, 42]),
   midi.NoteOnEvent(tick=60, channel=0, data=[48, 0]),
   midi.NoteOnEvent(tick=60, channel=0, data=[48, 48]),
   midi.NoteOnEvent(tick=60, channel=0, data=[48, 0]),
   midi.NoteOnEvent(tick=60, channel=0, data=[41, 39]),
   midi.NoteOnEvent(tick=0, channel=0, data=[49, 46]),
   midi.NoteOnEvent(tick=240, channel=0, data=[49, 0]),
   midi.NoteOnEvent(tick=0, channel=0, data=[41, 0]),
   midi.NoteOnEvent(tick=120, channel=0, data=[37, 39]),
   midi.NoteOnEvent(tick=0, channel=0, data=[49, 46]),
   midi.NoteOnEvent(tick=240, channel=0, data=[49, 0]),
   midi.NoteOnEvent(tick=0, channel=0, data=[37, 0]),
   midi.NoteOnEvent(tick=120, channel=0, data=[42, 58]),
   midi.NoteOnEvent(tick=120, channel=0, data=[49, 45]),
   midi.NoteOnEvent(tick=60, channel=0, data=[49, 0]),
   midi.NoteOnEvent(tick=60, channel=0, data=[42, 0]),
   midi.NoteOnEvent(tick=0, channel=0, data=[49, 45]),
   midi.NoteOnEvent(tick=60, channel=0, data=[49, 0]),
   midi.NoteOnEvent(tick=60, channel=0, data=[46, 58]),
   midi.NoteOnEvent(tick=0, channel=0, data=[49, 53]),
   midi.NoteOnEvent(tick=60, channel=0, data=[49, 0]),
   midi.NoteOnEvent(tick=60, channel=0, data=[49, 50]),
   midi.NoteOnEvent(tick=60, channel=0, data=[49, 0]),
   midi.NoteOnEvent(tick=60, channel=0, data=[46, 0]),
   midi.NoteOnEvent(tick=0, channel=0, data=[49, 58]),
   midi.NoteOnEvent(tick=60, channel=0, data=[49, 0]),
   midi.NoteOnEvent(tick=60, channel=0, data=[41, 47]),
   midi.NoteOnEvent(tick=0, channel=0, data=[49, 55]),
   midi.NoteOnEvent(tick=240, channel=0, data=[49, 0]),
   midi.NoteOnEvent(tick=0, channel=0, data=[41, 0]),
   midi.NoteOnEvent(tick=120, channel=0, data=[37, 50]),
   midi.NoteOnEvent(tick=0, channel=0, data=[49, 58]),
   midi.NoteOnEvent(tick=240, channel=0, data=[49, 0]),
   midi.NoteOnEvent(tick=0, channel=0, data=[37, 0]),
   midi.NoteOnEvent(tick=120, channel=0, data=[42, 77]),
   midi.NoteOnEvent(tick=120, channel=0, data=[50, 61]),
   midi.NoteOnEvent(tick=60, channel=0, data=[50, 0]),
   midi.NoteOnEvent(tick=60, channel=0, data=[42, 0]),
   midi.NoteOnEvent(tick=0, channel=0, data=[50, 61]),
   midi.NoteOnEvent(tick=60, channel=0, data=[50, 0]),
   midi.NoteOnEvent(tick=60, channel=0, data=[51, 74]),
   midi.NoteOnEvent(tick=60, channel=0, data=[51, 0]),
   midi.NoteOnEvent(tick=60, channel=0, data=[51, 71]),
   midi.NoteOnEvent(tick=60, channel=0, data=[51, 0]),
   midi.NoteOnEvent(tick=60, channel=0, data=[51, 71]),
   midi.NoteOnEvent(tick=60, channel=0, data=[51, 0]),
   midi.NoteOnEvent(tick=60, channel=0, data=[45, 89]),
   midi.NoteOnEvent(tick=120, channel=0, data=[45, 0]),
   midi.NoteOnEvent(tick=0, channel=0, data=[53, 70]),
   midi.NoteOnEvent(tick=60, channel=0, data=[53, 0]),
   midi.NoteOnEvent(tick=60, channel=0, data=[53, 67]),
   midi.NoteOnEvent(tick=60, channel=0, data=[53, 0]),
   midi.NoteOnEvent(tick=60, channel=0, data=[41, 80]),
   midi.NoteOnEvent(tick=120, channel=0, data=[41, 0]),
   midi.NoteOnEvent(tick=0, channel=0, data=[53, 70]),
   midi.NoteOnEvent(tick=60, channel=0, data=[53, 0]),
   midi.NoteOnEvent(tick=60, channel=0, data=[53, 71]),
   midi.NoteOnEvent(tick=60, channel=0, data=[53, 0]),
   midi.NoteOnEvent(tick=60, channel=0, data=[46, 88]),
   midi.NoteOnEvent(tick=120, channel=0, data=[46, 0]),
   midi.NoteOnEvent(tick=0, channel=0, data=[53, 73]),
   midi.NoteOnEvent(tick=60, channel=0, data=[53, 0]),
   midi.NoteOnEvent(tick=60, channel=0, data=[53, 72]),
   midi.NoteOnEvent(tick=60, channel=0, data=[53, 0]),
   midi.NoteOnEvent(tick=60, channel=0, data=[41, 82]),
   midi.NoteOnEvent(tick=120, channel=0, data=[41, 0]),
   midi.NoteOnEvent(tick=0, channel=0, data=[53, 71]),
   midi.NoteOnEvent(tick=60, channel=0, data=[53, 0]),
   midi.NoteOnEvent(tick=60, channel=0, data=[53, 71]),
   midi.NoteOnEvent(tick=60, channel=0, data=[53, 0]),
   midi.NoteOnEvent(tick=60, channel=0, data=[45, 89]),
   midi.NoteOnEvent(tick=120, channel=0, data=[45, 0]),
   midi.NoteOnEvent(tick=0, channel=0, data=[53, 70]),
   midi.NoteOnEvent(tick=60, channel=0, data=[53, 0]),
   midi.NoteOnEvent(tick=60, channel=0, data=[53, 67]),
   midi.NoteOnEvent(tick=60, channel=0, data=[53, 0]),
   midi.NoteOnEvent(tick=60, channel=0, data=[41, 80]),
   midi.NoteOnEvent(tick=120, channel=0, data=[41, 0]),
   midi.NoteOnEvent(tick=0, channel=0, data=[53, 70]),
   midi.NoteOnEvent(tick=60, channel=0, data=[53, 0]),
   midi.NoteOnEvent(tick=60, channel=0, data=[53, 71]),
   midi.NoteOnEvent(tick=60, channel=0, data=[53, 0]),
   midi.NoteOnEvent(tick=60, channel=0, data=[46, 88]),
   midi.NoteOnEvent(tick=120, channel=0, data=[46, 0]),
   midi.NoteOnEvent(tick=0, channel=0, data=[53, 73]),
   midi.NoteOnEvent(tick=60, channel=0, data=[53, 0]),
   midi.NoteOnEvent(tick=60, channel=0, data=[53, 72]),
   midi.NoteOnEvent(tick=60, channel=0, data=[53, 0]),
   midi.NoteOnEvent(tick=60, channel=0, data=[41, 82]),
   midi.NoteOnEvent(tick=120, channel=0, data=[41, 0]),
   midi.NoteOnEvent(tick=0, channel=0, data=[53, 71]),
   midi.NoteOnEvent(tick=60, channel=0, data=[53, 0]),
   midi.NoteOnEvent(tick=60, channel=0, data=[53, 71]),
   midi.NoteOnEvent(tick=60, channel=0, data=[53, 0]),
   midi.NoteOnEvent(tick=60, channel=0, data=[45, 89]),
   midi.NoteOnEvent(tick=120, channel=0, data=[45, 0]),
   midi.NoteOnEvent(tick=0, channel=0, data=[53, 68]),
   midi.NoteOnEvent(tick=60, channel=0, data=[53, 0]),
   midi.NoteOnEvent(tick=60, channel=0, data=[53, 64]),
   midi.NoteOnEvent(tick=60, channel=0, data=[53, 0]),
   midi.NoteOnEvent(tick=60, channel=0, data=[41, 75]),
   midi.NoteOnEvent(tick=120, channel=0, data=[41, 0]),
   midi.NoteOnEvent(tick=0, channel=0, data=[53, 64]),
   midi.NoteOnEvent(tick=60, channel=0, data=[53, 0]),
   midi.NoteOnEvent(tick=60, channel=0, data=[53, 63]),
   midi.NoteOnEvent(tick=60, channel=0, data=[53, 0]),
   midi.NoteOnEvent(tick=60, channel=0, data=[46, 77]),
   midi.NoteOnEvent(tick=1080, channel=0, data=[46, 0]),
   midi.NoteOnEvent(tick=0, channel=0, data=[48, 58]),
   midi.NoteOnEvent(tick=360, channel=0, data=[48, 0]),
   midi.NoteOnEvent(tick=0, channel=0, data=[41, 52]),
   midi.NoteOnEvent(tick=720, channel=0, data=[41, 0]),
   midi.NoteOnEvent(tick=0, channel=0, data=[53, 43]),
   midi.NoteOnEvent(tick=120, channel=0, data=[53, 0]),
   midi.NoteOnEvent(tick=0, channel=0, data=[54, 41]),
   midi.NoteOnEvent(tick=120, channel=0, data=[54, 0]),
   midi.NoteOnEvent(tick=0, channel=0, data=[53, 38]),
   midi.NoteOnEvent(tick=120, channel=0, data=[53, 0]),
   midi.NoteOnEvent(tick=0, channel=0, data=[51, 41]),
   midi.NoteOnEvent(tick=120, channel=0, data=[51, 0]),
   midi.NoteOnEvent(tick=0, channel=0, data=[49, 38]),
   midi.NoteOnEvent(tick=120, channel=0, data=[49, 0]),
   midi.NoteOnEvent(tick=0, channel=0, data=[48, 38]),
   midi.NoteOnEvent(tick=120, channel=0, data=[48, 0]),
   midi.NoteOnEvent(tick=0, channel=0, data=[61, 40]),
   midi.NoteOnEvent(tick=240, channel=0, data=[61, 0]),
   midi.NoteOnEvent(tick=60, channel=0, data=[46, 35]),
   midi.NoteOnEvent(tick=60, channel=0, data=[61, 40]),
   midi.NoteOnEvent(tick=240, channel=0, data=[61, 0]),
   midi.NoteOnEvent(tick=0, channel=0, data=[46, 0]),
   midi.NoteOnEvent(tick=60, channel=0, data=[46, 35]),
   midi.NoteOnEvent(tick=60, channel=0, data=[61, 40]),
   midi.NoteOnEvent(tick=240, channel=0, data=[61, 0]),
   midi.NoteOnEvent(tick=0, channel=0, data=[46, 0]),
   midi.NoteOnEvent(tick=60, channel=0, data=[46, 35]),
   midi.NoteOnEvent(tick=60, channel=0, data=[61, 40]),
   midi.NoteOnEvent(tick=240, channel=0, data=[61, 0]),
   midi.NoteOnEvent(tick=0, channel=0, data=[46, 0]),
   midi.NoteOnEvent(tick=60, channel=0, data=[46, 35]),
   midi.NoteOnEvent(tick=60, channel=0, data=[61, 40]),
   midi.NoteOnEvent(tick=240, channel=0, data=[61, 0]),
   midi.NoteOnEvent(tick=0, channel=0, data=[46, 0]),
   midi.NoteOnEvent(tick=60, channel=0, data=[46, 35]),
   midi.NoteOnEvent(tick=60, channel=0, data=[61, 40]),
   midi.NoteOnEvent(tick=240, channel=0, data=[61, 0]),
   midi.NoteOnEvent(tick=0, channel=0, data=[46, 0]),
   midi.NoteOnEvent(tick=60, channel=0, data=[46, 35]),
   midi.NoteOnEvent(tick=60, channel=0, data=[61, 40]),
   midi.NoteOnEvent(tick=240, channel=0, data=[61, 0]),
   midi.NoteOnEvent(tick=0, channel=0, data=[46, 0]),
   midi.NoteOnEvent(tick=60, channel=0, data=[46, 35]),
   midi.NoteOnEvent(tick=60, channel=0, data=[61, 40]),
   midi.NoteOnEvent(tick=240, channel=0, data=[61, 0]),
   midi.NoteOnEvent(tick=0, channel=0, data=[46, 0]),
   midi.NoteOnEvent(tick=120, channel=0, data=[45, 49]),
   midi.NoteOnEvent(tick=120, channel=0, data=[45, 0]),
   midi.NoteOnEvent(tick=0, channel=0, data=[53, 40]),
   midi.NoteOnEvent(tick=60, channel=0, data=[53, 0]),
   midi.NoteOnEvent(tick=60, channel=0, data=[53, 42]),
   midi.NoteOnEvent(tick=60, channel=0, data=[53, 0]),
   midi.NoteOnEvent(tick=60, channel=0, data=[41, 42]),
   midi.NoteOnEvent(tick=120, channel=0, data=[41, 0]),
   midi.NoteOnEvent(tick=0, channel=0, data=[53, 47]),
   midi.NoteOnEvent(tick=60, channel=0, data=[53, 0]),
   midi.NoteOnEvent(tick=60, channel=0, data=[53, 50]),
   midi.NoteOnEvent(tick=60, channel=0, data=[53, 0]),
   midi.NoteOnEvent(tick=60, channel=0, data=[46, 54]),
   midi.NoteOnEvent(tick=120, channel=0, data=[46, 0]),
   midi.NoteOnEvent(tick=0, channel=0, data=[53, 43]),
   midi.NoteOnEvent(tick=60, channel=0, data=[53, 0]),
   midi.NoteOnEvent(tick=60, channel=0, data=[53, 46]),
   midi.NoteOnEvent(tick=60, channel=0, data=[53, 0]),
   midi.NoteOnEvent(tick=60, channel=0, data=[39, 58]),
   midi.NoteOnEvent(tick=120, channel=0, data=[39, 0]),
   midi.NoteOnEvent(tick=0, channel=0, data=[54, 48]),
   midi.NoteOnEvent(tick=60, channel=0, data=[54, 0]),
   midi.NoteOnEvent(tick=60, channel=0, data=[54, 48]),
   midi.NoteOnEvent(tick=60, channel=0, data=[54, 0]),
   midi.NoteOnEvent(tick=60, channel=0, data=[41, 60]),
   midi.NoteOnEvent(tick=120, channel=0, data=[41, 0]),
   midi.NoteOnEvent(tick=0, channel=0, data=[53, 49]),
   midi.NoteOnEvent(tick=60, channel=0, data=[53, 0]),
   midi.NoteOnEvent(tick=60, channel=0, data=[53, 46]),
   midi.NoteOnEvent(tick=60, channel=0, data=[53, 0]),
   midi.NoteOnEvent(tick=60, channel=0, data=[53, 55]),
   midi.NoteOnEvent(tick=60, channel=0, data=[53, 0]),
   midi.NoteOnEvent(tick=60, channel=0, data=[53, 46]),
   midi.NoteOnEvent(tick=60, channel=0, data=[53, 0]),
   midi.NoteOnEvent(tick=60, channel=0, data=[53, 46]),
   midi.NoteOnEvent(tick=60, channel=0, data=[53, 0]),
   midi.NoteOnEvent(tick=60, channel=0, data=[53, 56]),
   midi.NoteOnEvent(tick=120, channel=0, data=[53, 0]),
   midi.NoteOnEvent(tick=0, channel=0, data=[54, 46]),
   midi.NoteOnEvent(tick=120, channel=0, data=[54, 0]),
   midi.NoteOnEvent(tick=0, channel=0, data=[53, 48]),
   midi.NoteOnEvent(tick=60, channel=0, data=[53, 0]),
   midi.NoteOnEvent(tick=60, channel=0, data=[53, 52]),
   midi.NoteOnEvent(tick=60, channel=0, data=[53, 0]),
   midi.NoteOnEvent(tick=60, channel=0, data=[53, 46]),
   midi.NoteOnEvent(tick=60, channel=0, data=[53, 0]),
   midi.NoteOnEvent(tick=60, channel=0, data=[53, 40]),
   midi.NoteOnEvent(tick=60, channel=0, data=[53, 0]),
   midi.NoteOnEvent(tick=0, channel=0, data=[46, 35]),
   midi.NoteOnEvent(tick=60, channel=0, data=[61, 40]),
   midi.NoteOnEvent(tick=240, channel=0, data=[61, 0]),
   midi.NoteOnEvent(tick=0, channel=0, data=[46, 0]),
   midi.NoteOnEvent(tick=60, channel=0, data=[46, 36]),
   midi.NoteOnEvent(tick=60, channel=0, data=[61, 41]),
   midi.NoteOnEvent(tick=240, channel=0, data=[61, 0]),
   midi.NoteOnEvent(tick=0, channel=0, data=[46, 0]),
   midi.NoteOnEvent(tick=60, channel=0, data=[46, 37]),
   midi.NoteOnEvent(tick=60, channel=0, data=[61, 42]),
   midi.NoteOnEvent(tick=240, channel=0, data=[61, 0]),
   midi.NoteOnEvent(tick=0, channel=0, data=[46, 0]),
   midi.NoteOnEvent(tick=60, channel=0, data=[46, 44]),
   midi.NoteOnEvent(tick=60, channel=0, data=[61, 53]),
   midi.NoteOnEvent(tick=240, channel=0, data=[61, 0]),
   midi.NoteOnEvent(tick=0, channel=0, data=[46, 0]),
   midi.NoteOnEvent(tick=120, channel=0, data=[62, 69]),
   midi.NoteOnEvent(tick=0, channel=0, data=[51, 69]),
   midi.NoteOnEvent(tick=120, channel=0, data=[59, 49]),
   midi.NoteOnEvent(tick=60, channel=0, data=[59, 0]),
   midi.NoteOnEvent(tick=60, channel=0, data=[59, 46]),
   midi.NoteOnEvent(tick=60, channel=0, data=[59, 0]),
   midi.NoteOnEvent(tick=60, channel=0, data=[62, 0]),
   midi.NoteOnEvent(tick=0, channel=0, data=[59, 55]),
   midi.NoteOnEvent(tick=60, channel=0, data=[59, 0]),
   midi.NoteOnEvent(tick=60, channel=0, data=[59, 46]),
   midi.NoteOnEvent(tick=60, channel=0, data=[59, 0]),
   midi.NoteOnEvent(tick=60, channel=0, data=[59, 46]),
   midi.NoteOnEvent(tick=60, channel=0, data=[59, 0]),
   midi.NoteOnEvent(tick=60, channel=0, data=[62, 60]),
   midi.NoteOnEvent(tick=120, channel=0, data=[58, 49]),
   midi.NoteOnEvent(tick=60, channel=0, data=[58, 0]),
   midi.NoteOnEvent(tick=60, channel=0, data=[58, 46]),
   midi.NoteOnEvent(tick=60, channel=0, data=[58, 0]),
   midi.NoteOnEvent(tick=60, channel=0, data=[62, 0]),
   midi.NoteOnEvent(tick=0, channel=0, data=[63, 60]),
   midi.NoteOnEvent(tick=0, channel=0, data=[58, 55]),
   midi.NoteOnEvent(tick=60, channel=0, data=[58, 0]),
   midi.NoteOnEvent(tick=60, channel=0, data=[58, 46]),
   midi.NoteOnEvent(tick=60, channel=0, data=[58, 0]),
   midi.NoteOnEvent(tick=60, channel=0, data=[58, 46]),
   midi.NoteOnEvent(tick=60, channel=0, data=[58, 0]),
   midi.NoteOnEvent(tick=60, channel=0, data=[63, 0]),
   midi.NoteOnEvent(tick=0, channel=0, data=[51, 0]),
   midi.NoteOnEvent(tick=0, channel=0, data=[54, 49]),
   midi.NoteOnEvent(tick=0, channel=0, data=[58, 56]),
   midi.NoteOnEvent(tick=360, channel=0, data=[63, 55]),
   midi.NoteOnEvent(tick=240, channel=0, data=[63, 0]),
   midi.NoteOnEvent(tick=0, channel=0, data=[61, 52]),
   midi.NoteOnEvent(tick=90, channel=0, data=[61, 0]),
   midi.NoteOnEvent(tick=30, channel=0, data=[58, 0]),
   midi.NoteOnEvent(tick=0, channel=0, data=[61, 55]),
   midi.NoteOnEvent(tick=240, channel=0, data=[61, 0]),
   midi.NoteOnEvent(tick=0, channel=0, data=[60, 52]),
   midi.NoteOnEvent(tick=90, channel=0, data=[60, 0]),
   midi.NoteOnEvent(tick=30, channel=0, data=[63, 55]),
   midi.NoteOnEvent(tick=240, channel=0, data=[63, 0]),
   midi.NoteOnEvent(tick=0, channel=0, data=[60, 52]),
   midi.NoteOnEvent(tick=90, channel=0, data=[60, 0]),
   midi.NoteOnEvent(tick=30, channel=0, data=[54, 0]),
   midi.NoteOnEvent(tick=0, channel=0, data=[53, 49]),
   midi.NoteOnEvent(tick=0, channel=0, data=[60, 55]),
   midi.NoteOnEvent(tick=240, channel=0, data=[60, 0]),
   midi.NoteOnEvent(tick=0, channel=0, data=[58, 52]),
   midi.NoteOnEvent(tick=90, channel=0, data=[58, 0]),
   midi.NoteOnEvent(tick=30, channel=0, data=[61, 55]),
   midi.NoteOnEvent(tick=360, channel=0, data=[53, 0]),
   midi.NoteOnEvent(tick=0, channel=0, data=[41, 41]),
   midi.NoteOnEvent(tick=240, channel=0, data=[61, 0]),
   midi.NoteOnEvent(tick=0, channel=0, data=[60, 52]),
   midi.NoteOnEvent(tick=60, channel=0, data=[60, 0]),
   midi.NoteOnEvent(tick=420, channel=0, data=[41, 0]),
   midi.NoteOnEvent(tick=0, channel=0, data=[46, 41]),
   midi.NoteOnEvent(tick=720, channel=0, data=[46, 0]),
   midi.NoteOnEvent(tick=0, channel=0, data=[53, 43]),
   midi.NoteOnEvent(tick=120, channel=0, data=[53, 0]),
   midi.NoteOnEvent(tick=0, channel=0, data=[54, 41]),
   midi.NoteOnEvent(tick=120, channel=0, data=[54, 0]),
   midi.NoteOnEvent(tick=0, channel=0, data=[53, 38]),
   midi.NoteOnEvent(tick=120, channel=0, data=[53, 0]),
   midi.NoteOnEvent(tick=0, channel=0, data=[51, 41]),
   midi.NoteOnEvent(tick=120, channel=0, data=[51, 0]),
   midi.NoteOnEvent(tick=0, channel=0, data=[49, 38]),
   midi.NoteOnEvent(tick=120, channel=0, data=[49, 0]),
   midi.NoteOnEvent(tick=0, channel=0, data=[48, 38]),
   midi.NoteOnEvent(tick=120, channel=0, data=[48, 0]),
   midi.NoteOnEvent(tick=0, channel=0, data=[46, 40]),
   midi.NoteOnEvent(tick=240, channel=0, data=[46, 0]),
   midi.NoteOnEvent(tick=120, channel=0, data=[46, 40]),
   midi.NoteOnEvent(tick=240, channel=0, data=[46, 0]),
   midi.NoteOnEvent(tick=120, channel=0, data=[39, 49]),
   midi.NoteOnEvent(tick=120, channel=0, data=[46, 39]),
   midi.NoteOnEvent(tick=60, channel=0, data=[46, 0]),
   midi.NoteOnEvent(tick=60, channel=0, data=[39, 0]),
   midi.NoteOnEvent(tick=0, channel=0, data=[46, 38]),
   midi.NoteOnEvent(tick=60, channel=0, data=[46, 0]),
   midi.NoteOnEvent(tick=60, channel=0, data=[42, 45]),
   midi.NoteOnEvent(tick=0, channel=0, data=[46, 45]),
   midi.NoteOnEvent(tick=60, channel=0, data=[46, 0]),
   midi.NoteOnEvent(tick=60, channel=0, data=[46, 42]),
   midi.NoteOnEvent(tick=60, channel=0, data=[46, 0]),
   midi.NoteOnEvent(tick=60, channel=0, data=[42, 0]),
   midi.NoteOnEvent(tick=0, channel=0, data=[46, 42]),
   midi.NoteOnEvent(tick=60, channel=0, data=[46, 0]),
   midi.NoteOnEvent(tick=60, channel=0, data=[46, 40]),
   midi.NoteOnEvent(tick=240, channel=0, data=[46, 0]),
   midi.NoteOnEvent(tick=120, channel=0, data=[46, 40]),
   midi.NoteOnEvent(tick=240, channel=0, data=[46, 0]),
   midi.NoteOnEvent(tick=120, channel=0, data=[39, 49]),
   midi.NoteOnEvent(tick=120, channel=0, data=[46, 39]),
   midi.NoteOnEvent(tick=60, channel=0, data=[46, 0]),
   midi.NoteOnEvent(tick=60, channel=0, data=[39, 0]),
   midi.NoteOnEvent(tick=0, channel=0, data=[46, 38]),
   midi.NoteOnEvent(tick=60, channel=0, data=[46, 0]),
   midi.NoteOnEvent(tick=60, channel=0, data=[48, 45]),
   midi.NoteOnEvent(tick=60, channel=0, data=[48, 0]),
   midi.NoteOnEvent(tick=60, channel=0, data=[48, 42]),
   midi.NoteOnEvent(tick=60, channel=0, data=[48, 0]),
   midi.NoteOnEvent(tick=60, channel=0, data=[48, 48]),
   midi.NoteOnEvent(tick=60, channel=0, data=[48, 0]),
   midi.NoteOnEvent(tick=60, channel=0, data=[41, 39]),
   midi.NoteOnEvent(tick=0, channel=0, data=[49, 46]),
   midi.NoteOnEvent(tick=240, channel=0, data=[49, 0]),
   midi.NoteOnEvent(tick=0, channel=0, data=[41, 0]),
   midi.NoteOnEvent(tick=120, channel=0, data=[37, 39]),
   midi.NoteOnEvent(tick=0, channel=0, data=[49, 46]),
   midi.NoteOnEvent(tick=240, channel=0, data=[49, 0]),
   midi.NoteOnEvent(tick=0, channel=0, data=[37, 0]),
   midi.NoteOnEvent(tick=120, channel=0, data=[42, 58]),
   midi.NoteOnEvent(tick=120, channel=0, data=[49, 45]),
   midi.NoteOnEvent(tick=60, channel=0, data=[49, 0]),
   midi.NoteOnEvent(tick=60, channel=0, data=[42, 0]),
   midi.NoteOnEvent(tick=0, channel=0, data=[49, 45]),
   midi.NoteOnEvent(tick=60, channel=0, data=[49, 0]),
   midi.NoteOnEvent(tick=60, channel=0, data=[46, 59]),
   midi.NoteOnEvent(tick=0, channel=0, data=[49, 54]),
   midi.NoteOnEvent(tick=60, channel=0, data=[49, 0]),
   midi.NoteOnEvent(tick=60, channel=0, data=[49, 50]),
   midi.NoteOnEvent(tick=60, channel=0, data=[49, 0]),
   midi.NoteOnEvent(tick=60, channel=0, data=[46, 0]),
   midi.NoteOnEvent(tick=0, channel=0, data=[49, 58]),
   midi.NoteOnEvent(tick=60, channel=0, data=[49, 0]),
   midi.NoteOnEvent(tick=60, channel=0, data=[41, 47]),
   midi.NoteOnEvent(tick=0, channel=0, data=[49, 55]),
   midi.NoteOnEvent(tick=240, channel=0, data=[49, 0]),
   midi.NoteOnEvent(tick=0, channel=0, data=[41, 0]),
   midi.NoteOnEvent(tick=120, channel=0, data=[37, 50]),
   midi.NoteOnEvent(tick=0, channel=0, data=[49, 58]),
   midi.NoteOnEvent(tick=240, channel=0, data=[49, 0]),
   midi.NoteOnEvent(tick=0, channel=0, data=[37, 0]),
   midi.NoteOnEvent(tick=120, channel=0, data=[42, 77]),
   midi.NoteOnEvent(tick=120, channel=0, data=[50, 61]),
   midi.NoteOnEvent(tick=60, channel=0, data=[50, 0]),
   midi.NoteOnEvent(tick=60, channel=0, data=[42, 0]),
   midi.NoteOnEvent(tick=0, channel=0, data=[50, 61]),
   midi.NoteOnEvent(tick=60, channel=0, data=[50, 0]),
   midi.NoteOnEvent(tick=60, channel=0, data=[51, 74]),
   midi.NoteOnEvent(tick=60, channel=0, data=[51, 0]),
   midi.NoteOnEvent(tick=60, channel=0, data=[51, 71]),
   midi.NoteOnEvent(tick=60, channel=0, data=[51, 0]),
   midi.NoteOnEvent(tick=60, channel=0, data=[51, 71]),
   midi.NoteOnEvent(tick=60, channel=0, data=[51, 0]),
   midi.NoteOnEvent(tick=60, channel=0, data=[45, 89]),
   midi.NoteOnEvent(tick=120, channel=0, data=[45, 0]),
   midi.NoteOnEvent(tick=0, channel=0, data=[53, 70]),
   midi.NoteOnEvent(tick=60, channel=0, data=[53, 0]),
   midi.NoteOnEvent(tick=60, channel=0, data=[53, 67]),
   midi.NoteOnEvent(tick=60, channel=0, data=[53, 0]),
   midi.NoteOnEvent(tick=60, channel=0, data=[41, 80]),
   midi.NoteOnEvent(tick=120, channel=0, data=[41, 0]),
   midi.NoteOnEvent(tick=0, channel=0, data=[53, 70]),
   midi.NoteOnEvent(tick=60, channel=0, data=[53, 0]),
   midi.NoteOnEvent(tick=60, channel=0, data=[53, 71]),
   midi.NoteOnEvent(tick=60, channel=0, data=[53, 0]),
   midi.NoteOnEvent(tick=60, channel=0, data=[46, 88]),
   midi.NoteOnEvent(tick=120, channel=0, data=[46, 0]),
   midi.NoteOnEvent(tick=0, channel=0, data=[53, 73]),
   midi.NoteOnEvent(tick=60, channel=0, data=[53, 0]),
   midi.NoteOnEvent(tick=60, channel=0, data=[53, 72]),
   midi.NoteOnEvent(tick=60, channel=0, data=[53, 0]),
   midi.NoteOnEvent(tick=60, channel=0, data=[41, 82]),
   midi.NoteOnEvent(tick=120, channel=0, data=[41, 0]),
   midi.NoteOnEvent(tick=0, channel=0, data=[53, 71]),
   midi.NoteOnEvent(tick=60, channel=0, data=[53, 0]),
   midi.NoteOnEvent(tick=60, channel=0, data=[53, 71]),
   midi.NoteOnEvent(tick=60, channel=0, data=[53, 0]),
   midi.NoteOnEvent(tick=60, channel=0, data=[45, 89]),
   midi.NoteOnEvent(tick=120, channel=0, data=[45, 0]),
   midi.NoteOnEvent(tick=0, channel=0, data=[53, 70]),
   midi.NoteOnEvent(tick=60, channel=0, data=[53, 0]),
   midi.NoteOnEvent(tick=60, channel=0, data=[53, 67]),
   midi.NoteOnEvent(tick=60, channel=0, data=[53, 0]),
   midi.NoteOnEvent(tick=60, channel=0, data=[41, 80]),
   midi.NoteOnEvent(tick=120, channel=0, data=[41, 0]),
   midi.NoteOnEvent(tick=0, channel=0, data=[53, 70]),
   midi.NoteOnEvent(tick=60, channel=0, data=[53, 0]),
   midi.NoteOnEvent(tick=60, channel=0, data=[53, 71]),
   midi.NoteOnEvent(tick=60, channel=0, data=[53, 0]),
   midi.NoteOnEvent(tick=60, channel=0, data=[46, 88]),
   midi.NoteOnEvent(tick=120, channel=0, data=[46, 0]),
   midi.NoteOnEvent(tick=0, channel=0, data=[53, 73]),
   midi.NoteOnEvent(tick=60, channel=0, data=[53, 0]),
   midi.NoteOnEvent(tick=60, channel=0, data=[53, 72]),
   midi.NoteOnEvent(tick=60, channel=0, data=[53, 0]),
   midi.NoteOnEvent(tick=60, channel=0, data=[41, 82]),
   midi.NoteOnEvent(tick=120, channel=0, data=[41, 0]),
   midi.NoteOnEvent(tick=0, channel=0, data=[53, 71]),
   midi.NoteOnEvent(tick=60, channel=0, data=[53, 0]),
   midi.NoteOnEvent(tick=60, channel=0, data=[53, 71]),
   midi.NoteOnEvent(tick=60, channel=0, data=[53, 0]),
   midi.NoteOnEvent(tick=60, channel=0, data=[45, 89]),
   midi.NoteOnEvent(tick=120, channel=0, data=[45, 0]),
   midi.NoteOnEvent(tick=0, channel=0, data=[53, 68]),
   midi.NoteOnEvent(tick=60, channel=0, data=[53, 0]),
   midi.NoteOnEvent(tick=60, channel=0, data=[53, 64]),
   midi.NoteOnEvent(tick=60, channel=0, data=[53, 0]),
   midi.NoteOnEvent(tick=60, channel=0, data=[41, 75]),
   midi.NoteOnEvent(tick=120, channel=0, data=[41, 0]),
   midi.NoteOnEvent(tick=0, channel=0, data=[53, 64]),
   midi.NoteOnEvent(tick=60, channel=0, data=[53, 0]),
   midi.NoteOnEvent(tick=60, channel=0, data=[53, 63]),
   midi.NoteOnEvent(tick=60, channel=0, data=[53, 0]),
   midi.NoteOnEvent(tick=60, channel=0, data=[46, 77]),
   midi.NoteOnEvent(tick=1080, channel=0, data=[46, 0]),
   midi.NoteOnEvent(tick=0, channel=0, data=[48, 58]),
   midi.NoteOnEvent(tick=360, channel=0, data=[48, 0]),
   midi.NoteOnEvent(tick=0, channel=0, data=[41, 52]),
   midi.NoteOnEvent(tick=720, channel=0, data=[41, 0]),
   midi.NoteOnEvent(tick=0, channel=0, data=[53, 43]),
   midi.NoteOnEvent(tick=120, channel=0, data=[53, 0]),
   midi.NoteOnEvent(tick=0, channel=0, data=[54, 41]),
   midi.NoteOnEvent(tick=120, channel=0, data=[54, 0]),
   midi.NoteOnEvent(tick=0, channel=0, data=[53, 38]),
   midi.NoteOnEvent(tick=120, channel=0, data=[53, 0]),
   midi.NoteOnEvent(tick=0, channel=0, data=[51, 41]),
   midi.NoteOnEvent(tick=120, channel=0, data=[51, 0]),
   midi.NoteOnEvent(tick=0, channel=0, data=[49, 38]),
   midi.NoteOnEvent(tick=120, channel=0, data=[49, 0]),
   midi.NoteOnEvent(tick=0, channel=0, data=[48, 38]),
   midi.NoteOnEvent(tick=60, channel=0, data=[48, 0]),
   midi.NoteOnEvent(tick=0, channel=0, data=[46, 35]),
   midi.NoteOnEvent(tick=60, channel=0, data=[61, 40]),
   midi.NoteOnEvent(tick=240, channel=0, data=[61, 0]),
   midi.NoteOnEvent(tick=0, channel=0, data=[46, 0]),
   midi.NoteOnEvent(tick=60, channel=0, data=[46, 35]),
   midi.NoteOnEvent(tick=60, channel=0, data=[61, 40]),
   midi.NoteOnEvent(tick=240, channel=0, data=[61, 0]),
   midi.NoteOnEvent(tick=0, channel=0, data=[46, 0]),
   midi.NoteOnEvent(tick=60, channel=0, data=[46, 35]),
   midi.NoteOnEvent(tick=60, channel=0, data=[61, 40]),
   midi.NoteOnEvent(tick=240, channel=0, data=[61, 0]),
   midi.NoteOnEvent(tick=0, channel=0, data=[46, 0]),
   midi.NoteOnEvent(tick=60, channel=0, data=[46, 35]),
   midi.NoteOnEvent(tick=60, channel=0, data=[61, 40]),
   midi.NoteOnEvent(tick=240, channel=0, data=[61, 0]),
   midi.NoteOnEvent(tick=0, channel=0, data=[46, 0]),
   midi.NoteOnEvent(tick=60, channel=0, data=[46, 35]),
   midi.NoteOnEvent(tick=60, channel=0, data=[61, 40]),
   midi.NoteOnEvent(tick=240, channel=0, data=[61, 0]),
   midi.NoteOnEvent(tick=0, channel=0, data=[46, 0]),
   midi.NoteOnEvent(tick=60, channel=0, data=[46, 35]),
   midi.NoteOnEvent(tick=60, channel=0, data=[61, 40]),
   midi.NoteOnEvent(tick=240, channel=0, data=[61, 0]),
   midi.NoteOnEvent(tick=0, channel=0, data=[46, 0]),
   midi.NoteOnEvent(tick=60, channel=0, data=[46, 35]),
   midi.NoteOnEvent(tick=60, channel=0, data=[61, 40]),
   midi.NoteOnEvent(tick=240, channel=0, data=[61, 0]),
   midi.NoteOnEvent(tick=0, channel=0, data=[46, 0]),
   midi.NoteOnEvent(tick=60, channel=0, data=[46, 35]),
   midi.NoteOnEvent(tick=60, channel=0, data=[61, 40]),
   midi.NoteOnEvent(tick=240, channel=0, data=[61, 0]),
   midi.NoteOnEvent(tick=0, channel=0, data=[46, 0]),
   midi.NoteOnEvent(tick=120, channel=0, data=[45, 49]),
   midi.NoteOnEvent(tick=120, channel=0, data=[45, 0]),
   midi.NoteOnEvent(tick=0, channel=0, data=[53, 40]),
   midi.NoteOnEvent(tick=60, channel=0, data=[53, 0]),
   midi.NoteOnEvent(tick=60, channel=0, data=[53, 42]),
   midi.NoteOnEvent(tick=60, channel=0, data=[53, 0]),
   midi.NoteOnEvent(tick=60, channel=0, data=[41, 42]),
   midi.NoteOnEvent(tick=120, channel=0, data=[41, 0]),
   midi.NoteOnEvent(tick=0, channel=0, data=[53, 47]),
   midi.NoteOnEvent(tick=60, channel=0, data=[53, 0]),
   midi.NoteOnEvent(tick=60, channel=0, data=[53, 50]),
   midi.NoteOnEvent(tick=60, channel=0, data=[53, 0]),
   midi.NoteOnEvent(tick=60, channel=0, data=[46, 54]),
   midi.NoteOnEvent(tick=120, channel=0, data=[46, 0]),
   midi.NoteOnEvent(tick=0, channel=0, data=[53, 43]),
   midi.NoteOnEvent(tick=60, channel=0, data=[53, 0]),
   midi.NoteOnEvent(tick=60, channel=0, data=[53, 46]),
   midi.NoteOnEvent(tick=60, channel=0, data=[53, 0]),
   midi.NoteOnEvent(tick=60, channel=0, data=[39, 58]),
   midi.NoteOnEvent(tick=120, channel=0, data=[39, 0]),
   midi.NoteOnEvent(tick=0, channel=0, data=[54, 48]),
   midi.NoteOnEvent(tick=60, channel=0, data=[54, 0]),
   midi.NoteOnEvent(tick=60, channel=0, data=[54, 48]),
   midi.NoteOnEvent(tick=60, channel=0, data=[54, 0]),
   midi.NoteOnEvent(tick=60, channel=0, data=[41, 60]),
   midi.NoteOnEvent(tick=120, channel=0, data=[41, 0]),
   midi.NoteOnEvent(tick=0, channel=0, data=[53, 49]),
   midi.NoteOnEvent(tick=60, channel=0, data=[53, 0]),
   midi.NoteOnEvent(tick=60, channel=0, data=[53, 46]),
   midi.NoteOnEvent(tick=60, channel=0, data=[53, 0]),
   midi.NoteOnEvent(tick=60, channel=0, data=[53, 55]),
   midi.NoteOnEvent(tick=60, channel=0, data=[53, 0]),
   midi.NoteOnEvent(tick=60, channel=0, data=[53, 46]),
   midi.NoteOnEvent(tick=60, channel=0, data=[53, 0]),
   midi.NoteOnEvent(tick=60, channel=0, data=[53, 46]),
   midi.NoteOnEvent(tick=60, channel=0, data=[53, 0]),
   midi.NoteOnEvent(tick=60, channel=0, data=[53, 56]),
   midi.NoteOnEvent(tick=120, channel=0, data=[53, 0]),
   midi.NoteOnEvent(tick=0, channel=0, data=[54, 46]),
   midi.NoteOnEvent(tick=120, channel=0, data=[54, 0]),
   midi.NoteOnEvent(tick=0, channel=0, data=[53, 48]),
   midi.NoteOnEvent(tick=60, channel=0, data=[53, 0]),
   midi.NoteOnEvent(tick=60, channel=0, data=[53, 52]),
   midi.NoteOnEvent(tick=60, channel=0, data=[53, 0]),
   midi.NoteOnEvent(tick=60, channel=0, data=[53, 46]),
   midi.NoteOnEvent(tick=60, channel=0, data=[53, 0]),
   midi.NoteOnEvent(tick=60, channel=0, data=[53, 40]),
   midi.NoteOnEvent(tick=60, channel=0, data=[53, 0]),
   midi.NoteOnEvent(tick=60, channel=0, data=[50, 49]),
   midi.NoteOnEvent(tick=120, channel=0, data=[50, 0]),
   midi.NoteOnEvent(tick=0, channel=0, data=[58, 39]),
   midi.NoteOnEvent(tick=60, channel=0, data=[58, 0]),
   midi.NoteOnEvent(tick=60, channel=0, data=[58, 39]),
   midi.NoteOnEvent(tick=60, channel=0, data=[58, 0]),
   midi.NoteOnEvent(tick=60, channel=0, data=[46, 48]),
   midi.NoteOnEvent(tick=60, channel=0, data=[46, 0]),
   midi.NoteOnEvent(tick=60, channel=0, data=[58, 40]),
   midi.NoteOnEvent(tick=60, channel=0, data=[58, 0]),
   midi.NoteOnEvent(tick=60, channel=0, data=[58, 40]),
   midi.NoteOnEvent(tick=60, channel=0, data=[58, 0]),
   midi.NoteOnEvent(tick=60, channel=0, data=[51, 49]),
   midi.NoteOnEvent(tick=120, channel=0, data=[51, 0]),
   midi.NoteOnEvent(tick=0, channel=0, data=[58, 39]),
   midi.NoteOnEvent(tick=60, channel=0, data=[58, 0]),
   midi.NoteOnEvent(tick=60, channel=0, data=[58, 39]),
   midi.NoteOnEvent(tick=60, channel=0, data=[58, 0]),
   midi.NoteOnEvent(tick=60, channel=0, data=[46, 48]),
   midi.NoteOnEvent(tick=60, channel=0, data=[46, 0]),
   midi.NoteOnEvent(tick=60, channel=0, data=[58, 40]),
   midi.NoteOnEvent(tick=60, channel=0, data=[58, 0]),
   midi.NoteOnEvent(tick=60, channel=0, data=[58, 40]),
   midi.NoteOnEvent(tick=60, channel=0, data=[58, 0]),
   midi.NoteOnEvent(tick=60, channel=0, data=[50, 63]),
   midi.NoteOnEvent(tick=120, channel=0, data=[50, 0]),
   midi.NoteOnEvent(tick=0, channel=0, data=[58, 50]),
   midi.NoteOnEvent(tick=60, channel=0, data=[58, 0]),
   midi.NoteOnEvent(tick=60, channel=0, data=[58, 50]),
   midi.NoteOnEvent(tick=60, channel=0, data=[58, 0]),
   midi.NoteOnEvent(tick=60, channel=0, data=[46, 62]),
   midi.NoteOnEvent(tick=60, channel=0, data=[46, 0]),
   midi.NoteOnEvent(tick=60, channel=0, data=[58, 52]),
   midi.NoteOnEvent(tick=60, channel=0, data=[58, 0]),
   midi.NoteOnEvent(tick=60, channel=0, data=[58, 52]),
   midi.NoteOnEvent(tick=60, channel=0, data=[58, 0]),
   midi.NoteOnEvent(tick=60, channel=0, data=[51, 63]),
   midi.NoteOnEvent(tick=120, channel=0, data=[51, 0]),
   midi.NoteOnEvent(tick=0, channel=0, data=[58, 50]),
   midi.NoteOnEvent(tick=60, channel=0, data=[58, 0]),
   midi.NoteOnEvent(tick=60, channel=0, data=[58, 50]),
   midi.NoteOnEvent(tick=60, channel=0, data=[58, 0]),
   midi.NoteOnEvent(tick=60, channel=0, data=[58, 62]),
   midi.NoteOnEvent(tick=60, channel=0, data=[58, 0]),
   midi.NoteOnEvent(tick=60, channel=0, data=[58, 52]),
   midi.NoteOnEvent(tick=60, channel=0, data=[58, 0]),
   midi.NoteOnEvent(tick=60, channel=0, data=[58, 52]),
   midi.NoteOnEvent(tick=60, channel=0, data=[58, 0]),
   midi.NoteOnEvent(tick=60, channel=0, data=[60, 65]),
   midi.NoteOnEvent(tick=0, channel=0, data=[58, 55]),
   midi.NoteOnEvent(tick=0, channel=0, data=[52, 55]),
   midi.NoteOnEvent(tick=60, channel=0, data=[52, 0]),
   midi.NoteOnEvent(tick=0, channel=0, data=[58, 0]),
   midi.NoteOnEvent(tick=0, channel=0, data=[60, 0]),
   midi.NoteOnEvent(tick=60, channel=0, data=[52, 44]),
   midi.NoteOnEvent(tick=0, channel=0, data=[58, 44]),
   midi.NoteOnEvent(tick=0, channel=0, data=[60, 52]),
   midi.NoteOnEvent(tick=60, channel=0, data=[60, 0]),
   midi.NoteOnEvent(tick=0, channel=0, data=[58, 0]),
   midi.NoteOnEvent(tick=0, channel=0, data=[52, 0]),
   midi.NoteOnEvent(tick=60, channel=0, data=[52, 44]),
   midi.NoteOnEvent(tick=0, channel=0, data=[58, 44]),
   midi.NoteOnEvent(tick=0, channel=0, data=[60, 52]),
   midi.NoteOnEvent(tick=60, channel=0, data=[60, 0]),
   midi.NoteOnEvent(tick=0, channel=0, data=[58, 0]),
   midi.NoteOnEvent(tick=0, channel=0, data=[52, 0]),
   midi.NoteOnEvent(tick=60, channel=0, data=[60, 59]),
   midi.NoteOnEvent(tick=0, channel=0, data=[58, 50]),
   midi.NoteOnEvent(tick=0, channel=0, data=[52, 50]),
   midi.NoteOnEvent(tick=60, channel=0, data=[52, 0]),
   midi.NoteOnEvent(tick=0, channel=0, data=[58, 0]),
   midi.NoteOnEvent(tick=0, channel=0, data=[60, 0]),
   midi.NoteOnEvent(tick=60, channel=0, data=[52, 44]),
   midi.NoteOnEvent(tick=0, channel=0, data=[58, 44]),
   midi.NoteOnEvent(tick=0, channel=0, data=[60, 52]),
   midi.NoteOnEvent(tick=60, channel=0, data=[60, 0]),
   midi.NoteOnEvent(tick=0, channel=0, data=[58, 0]),
   midi.NoteOnEvent(tick=0, channel=0, data=[52, 0]),
   midi.NoteOnEvent(tick=60, channel=0, data=[52, 44]),
   midi.NoteOnEvent(tick=0, channel=0, data=[58, 44]),
   midi.NoteOnEvent(tick=0, channel=0, data=[60, 52]),
   midi.NoteOnEvent(tick=60, channel=0, data=[60, 0]),
   midi.NoteOnEvent(tick=0, channel=0, data=[58, 0]),
   midi.NoteOnEvent(tick=0, channel=0, data=[52, 0]),
   midi.NoteOnEvent(tick=60, channel=0, data=[51, 65]),
   midi.NoteOnEvent(tick=120, channel=0, data=[51, 0]),
   midi.NoteOnEvent(tick=0, channel=0, data=[53, 37]),
   midi.NoteOnEvent(tick=0, channel=0, data=[57, 37]),
   midi.NoteOnEvent(tick=0, channel=0, data=[60, 52]),
   midi.NoteOnEvent(tick=60, channel=0, data=[60, 0]),
   midi.NoteOnEvent(tick=0, channel=0, data=[57, 0]),
   midi.NoteOnEvent(tick=0, channel=0, data=[53, 0]),
   midi.NoteOnEvent(tick=60, channel=0, data=[53, 37]),
   midi.NoteOnEvent(tick=0, channel=0, data=[57, 37]),
   midi.NoteOnEvent(tick=0, channel=0, data=[60, 52]),
   midi.NoteOnEvent(tick=60, channel=0, data=[60, 0]),
   midi.NoteOnEvent(tick=0, channel=0, data=[57, 0]),
   midi.NoteOnEvent(tick=0, channel=0, data=[53, 0]),
   midi.NoteOnEvent(tick=60, channel=0, data=[50, 59]),
   midi.NoteOnEvent(tick=120, channel=0, data=[50, 0]),
   midi.NoteOnEvent(tick=0, channel=0, data=[53, 37]),
   midi.NoteOnEvent(tick=0, channel=0, data=[58, 52]),
   midi.NoteOnEvent(tick=60, channel=0, data=[58, 0]),
   midi.NoteOnEvent(tick=0, channel=0, data=[53, 0]),
   midi.NoteOnEvent(tick=60, channel=0, data=[53, 37]),
   midi.NoteOnEvent(tick=0, channel=0, data=[58, 52]),
   midi.NoteOnEvent(tick=60, channel=0, data=[58, 0]),
   midi.NoteOnEvent(tick=0, channel=0, data=[53, 0]),
   midi.NoteOnEvent(tick=60, channel=0, data=[48, 65]),
   midi.NoteOnEvent(tick=120, channel=0, data=[48, 0]),
   midi.NoteOnEvent(tick=0, channel=0, data=[55, 37]),
   midi.NoteOnEvent(tick=0, channel=0, data=[58, 37]),
   midi.NoteOnEvent(tick=0, channel=0, data=[60, 52]),
   midi.NoteOnEvent(tick=60, channel=0, data=[60, 0]),
   midi.NoteOnEvent(tick=0, channel=0, data=[58, 0]),
   midi.NoteOnEvent(tick=0, channel=0, data=[55, 0]),
   midi.NoteOnEvent(tick=60, channel=0, data=[55, 37]),
   midi.NoteOnEvent(tick=0, channel=0, data=[58, 37]),
   midi.NoteOnEvent(tick=0, channel=0, data=[60, 52]),
   midi.NoteOnEvent(tick=60, channel=0, data=[60, 0]),
   midi.NoteOnEvent(tick=0, channel=0, data=[58, 0]),
   midi.NoteOnEvent(tick=0, channel=0, data=[55, 0]),
   midi.NoteOnEvent(tick=60, channel=0, data=[51, 59]),
   midi.NoteOnEvent(tick=120, channel=0, data=[51, 0]),
   midi.NoteOnEvent(tick=0, channel=0, data=[57, 37]),
   midi.NoteOnEvent(tick=0, channel=0, data=[53, 37]),
   midi.NoteOnEvent(tick=0, channel=0, data=[60, 52]),
   midi.NoteOnEvent(tick=60, channel=0, data=[60, 0]),
   midi.NoteOnEvent(tick=0, channel=0, data=[53, 0]),
   midi.NoteOnEvent(tick=0, channel=0, data=[57, 0]),
   midi.NoteOnEvent(tick=60, channel=0, data=[57, 37]),
   midi.NoteOnEvent(tick=0, channel=0, data=[53, 37]),
   midi.NoteOnEvent(tick=0, channel=0, data=[60, 52]),
   midi.NoteOnEvent(tick=60, channel=0, data=[60, 0]),
   midi.NoteOnEvent(tick=0, channel=0, data=[53, 0]),
   midi.NoteOnEvent(tick=0, channel=0, data=[57, 0]),
   midi.NoteOnEvent(tick=60, channel=0, data=[50, 61]),
   midi.NoteOnEvent(tick=120, channel=0, data=[50, 0]),
   midi.NoteOnEvent(tick=0, channel=0, data=[58, 53]),
   midi.NoteOnEvent(tick=0, channel=0, data=[62, 53]),
   midi.NoteOnEvent(tick=60, channel=0, data=[62, 0]),
   midi.NoteOnEvent(tick=0, channel=0, data=[58, 0]),
   midi.NoteOnEvent(tick=60, channel=0, data=[62, 52]),
   midi.NoteOnEvent(tick=0, channel=0, data=[58, 52]),
   midi.NoteOnEvent(tick=60, channel=0, data=[58, 0]),
   midi.NoteOnEvent(tick=0, channel=0, data=[62, 0]),
   midi.NoteOnEvent(tick=60, channel=0, data=[58, 60]),
   midi.NoteOnEvent(tick=0, channel=0, data=[62, 60]),
   midi.NoteOnEvent(tick=60, channel=0, data=[62, 0]),
   midi.NoteOnEvent(tick=0, channel=0, data=[58, 0]),
   midi.NoteOnEvent(tick=60, channel=0, data=[62, 55]),
   midi.NoteOnEvent(tick=0, channel=0, data=[58, 55]),
   midi.NoteOnEvent(tick=60, channel=0, data=[58, 0]),
   midi.NoteOnEvent(tick=0, channel=0, data=[62, 0]),
   midi.NoteOnEvent(tick=60, channel=0, data=[62, 56]),
   midi.NoteOnEvent(tick=0, channel=0, data=[58, 56]),
   midi.NoteOnEvent(tick=60, channel=0, data=[58, 0]),
   midi.NoteOnEvent(tick=0, channel=0, data=[62, 0]),
   midi.NoteOnEvent(tick=60, channel=0, data=[62, 67]),
   midi.NoteOnEvent(tick=0, channel=0, data=[58, 64]),
   midi.NoteOnEvent(tick=120, channel=0, data=[58, 0]),
   midi.NoteOnEvent(tick=0, channel=0, data=[62, 0]),
   midi.NoteOnEvent(tick=0, channel=0, data=[58, 58]),
   midi.NoteOnEvent(tick=0, channel=0, data=[62, 58]),
   midi.NoteOnEvent(tick=60, channel=0, data=[62, 0]),
   midi.NoteOnEvent(tick=0, channel=0, data=[58, 0]),
   midi.NoteOnEvent(tick=60, channel=0, data=[62, 57]),
   midi.NoteOnEvent(tick=0, channel=0, data=[58, 57]),
   midi.NoteOnEvent(tick=60, channel=0, data=[58, 0]),
   midi.NoteOnEvent(tick=0, channel=0, data=[62, 0]),
   midi.NoteOnEvent(tick=60, channel=0, data=[58, 66]),
   midi.NoteOnEvent(tick=0, channel=0, data=[62, 66]),
   midi.NoteOnEvent(tick=60, channel=0, data=[62, 0]),
   midi.NoteOnEvent(tick=0, channel=0, data=[58, 0]),
   midi.NoteOnEvent(tick=60, channel=0, data=[62, 60]),
   midi.NoteOnEvent(tick=0, channel=0, data=[58, 60]),
   midi.NoteOnEvent(tick=60, channel=0, data=[58, 0]),
   midi.NoteOnEvent(tick=0, channel=0, data=[62, 0]),
   midi.NoteOnEvent(tick=60, channel=0, data=[62, 61]),
   midi.NoteOnEvent(tick=0, channel=0, data=[58, 61]),
   midi.NoteOnEvent(tick=60, channel=0, data=[58, 0]),
   midi.NoteOnEvent(tick=0, channel=0, data=[62, 0]),
   midi.NoteOnEvent(tick=60, channel=0, data=[51, 70]),
   midi.NoteOnEvent(tick=0, channel=0, data=[61, 73]),
   midi.NoteOnEvent(tick=0, channel=0, data=[58, 70]),
   midi.NoteOnEvent(tick=120, channel=0, data=[58, 0]),
   midi.NoteOnEvent(tick=0, channel=0, data=[61, 0]),
   midi.NoteOnEvent(tick=0, channel=0, data=[51, 0]),
   midi.NoteOnEvent(tick=0, channel=0, data=[51, 62]),
   midi.NoteOnEvent(tick=0, channel=0, data=[58, 62]),
   midi.NoteOnEvent(tick=0, channel=0, data=[61, 62]),
   midi.NoteOnEvent(tick=60, channel=0, data=[61, 0]),
   midi.NoteOnEvent(tick=0, channel=0, data=[58, 0]),
   midi.NoteOnEvent(tick=0, channel=0, data=[51, 0]),
   midi.NoteOnEvent(tick=60, channel=0, data=[51, 61]),
   midi.NoteOnEvent(tick=0, channel=0, data=[61, 61]),
   midi.NoteOnEvent(tick=0, channel=0, data=[58, 61]),
   midi.NoteOnEvent(tick=60, channel=0, data=[58, 0]),
   midi.NoteOnEvent(tick=0, channel=0, data=[61, 0]),
   midi.NoteOnEvent(tick=0, channel=0, data=[51, 0]),
   midi.NoteOnEvent(tick=60, channel=0, data=[51, 68]),
   midi.NoteOnEvent(tick=0, channel=0, data=[58, 68]),
   midi.NoteOnEvent(tick=0, channel=0, data=[61, 68]),
   midi.NoteOnEvent(tick=60, channel=0, data=[61, 0]),
   midi.NoteOnEvent(tick=0, channel=0, data=[58, 0]),
   midi.NoteOnEvent(tick=0, channel=0, data=[51, 0]),
   midi.NoteOnEvent(tick=60, channel=0, data=[51, 62]),
   midi.NoteOnEvent(tick=0, channel=0, data=[61, 62]),
   midi.NoteOnEvent(tick=0, channel=0, data=[58, 62]),
   midi.NoteOnEvent(tick=60, channel=0, data=[58, 0]),
   midi.NoteOnEvent(tick=0, channel=0, data=[61, 0]),
   midi.NoteOnEvent(tick=0, channel=0, data=[51, 0]),
   midi.NoteOnEvent(tick=60, channel=0, data=[51, 62]),
   midi.NoteOnEvent(tick=0, channel=0, data=[61, 62]),
   midi.NoteOnEvent(tick=0, channel=0, data=[58, 62]),
   midi.NoteOnEvent(tick=60, channel=0, data=[58, 0]),
   midi.NoteOnEvent(tick=0, channel=0, data=[61, 0]),
   midi.NoteOnEvent(tick=0, channel=0, data=[51, 0]),
   midi.NoteOnEvent(tick=60, channel=0, data=[60, 65]),
   midi.NoteOnEvent(tick=0, channel=0, data=[58, 55]),
   midi.NoteOnEvent(tick=0, channel=0, data=[52, 55]),
   midi.NoteOnEvent(tick=60, channel=0, data=[52, 0]),
   midi.NoteOnEvent(tick=0, channel=0, data=[58, 0]),
   midi.NoteOnEvent(tick=0, channel=0, data=[60, 0]),
   midi.NoteOnEvent(tick=60, channel=0, data=[52, 44]),
   midi.NoteOnEvent(tick=0, channel=0, data=[58, 44]),
   midi.NoteOnEvent(tick=0, channel=0, data=[60, 52]),
   midi.NoteOnEvent(tick=60, channel=0, data=[60, 0]),
   midi.NoteOnEvent(tick=0, channel=0, data=[58, 0]),
   midi.NoteOnEvent(tick=0, channel=0, data=[52, 0]),
   midi.NoteOnEvent(tick=60, channel=0, data=[52, 44]),
   midi.NoteOnEvent(tick=0, channel=0, data=[58, 44]),
   midi.NoteOnEvent(tick=0, channel=0, data=[60, 52]),
   midi.NoteOnEvent(tick=60, channel=0, data=[60, 0]),
   midi.NoteOnEvent(tick=0, channel=0, data=[58, 0]),
   midi.NoteOnEvent(tick=0, channel=0, data=[52, 0]),
   midi.NoteOnEvent(tick=60, channel=0, data=[60, 59]),
   midi.NoteOnEvent(tick=0, channel=0, data=[58, 50]),
   midi.NoteOnEvent(tick=0, channel=0, data=[52, 50]),
   midi.NoteOnEvent(tick=60, channel=0, data=[52, 0]),
   midi.NoteOnEvent(tick=0, channel=0, data=[58, 0]),
   midi.NoteOnEvent(tick=0, channel=0, data=[60, 0]),
   midi.NoteOnEvent(tick=60, channel=0, data=[52, 44]),
   midi.NoteOnEvent(tick=0, channel=0, data=[58, 44]),
   midi.NoteOnEvent(tick=0, channel=0, data=[60, 52]),
   midi.NoteOnEvent(tick=60, channel=0, data=[60, 0]),
   midi.NoteOnEvent(tick=0, channel=0, data=[58, 0]),
   midi.NoteOnEvent(tick=0, channel=0, data=[52, 0]),
   midi.NoteOnEvent(tick=60, channel=0, data=[52, 44]),
   midi.NoteOnEvent(tick=0, channel=0, data=[58, 44]),
   midi.NoteOnEvent(tick=0, channel=0, data=[60, 52]),
   midi.NoteOnEvent(tick=60, channel=0, data=[60, 0]),
   midi.NoteOnEvent(tick=0, channel=0, data=[58, 0]),
   midi.NoteOnEvent(tick=0, channel=0, data=[52, 0]),
   midi.NoteOnEvent(tick=60, channel=0, data=[51, 65]),
   midi.NoteOnEvent(tick=120, channel=0, data=[51, 0]),
   midi.NoteOnEvent(tick=0, channel=0, data=[53, 31]),
   midi.NoteOnEvent(tick=0, channel=0, data=[57, 31]),
   midi.NoteOnEvent(tick=0, channel=0, data=[60, 44]),
   midi.NoteOnEvent(tick=60, channel=0, data=[60, 0]),
   midi.NoteOnEvent(tick=0, channel=0, data=[57, 0]),
   midi.NoteOnEvent(tick=0, channel=0, data=[53, 0]),
   midi.NoteOnEvent(tick=60, channel=0, data=[53, 31]),
   midi.NoteOnEvent(tick=0, channel=0, data=[57, 31]),
   midi.NoteOnEvent(tick=0, channel=0, data=[60, 44]),
   midi.NoteOnEvent(tick=60, channel=0, data=[60, 0]),
   midi.NoteOnEvent(tick=0, channel=0, data=[57, 0]),
   midi.NoteOnEvent(tick=0, channel=0, data=[53, 0]),
   midi.NoteOnEvent(tick=60, channel=0, data=[50, 59]),
   midi.NoteOnEvent(tick=120, channel=0, data=[50, 0]),
   midi.NoteOnEvent(tick=0, channel=0, data=[53, 37]),
   midi.NoteOnEvent(tick=0, channel=0, data=[58, 52]),
   midi.NoteOnEvent(tick=60, channel=0, data=[58, 0]),
   midi.NoteOnEvent(tick=0, channel=0, data=[53, 0]),
   midi.NoteOnEvent(tick=60, channel=0, data=[53, 37]),
   midi.NoteOnEvent(tick=0, channel=0, data=[58, 52]),
   midi.NoteOnEvent(tick=60, channel=0, data=[58, 0]),
   midi.NoteOnEvent(tick=0, channel=0, data=[53, 0]),
   midi.NoteOnEvent(tick=60, channel=0, data=[48, 65]),
   midi.NoteOnEvent(tick=120, channel=0, data=[48, 0]),
   midi.NoteOnEvent(tick=0, channel=0, data=[55, 31]),
   midi.NoteOnEvent(tick=0, channel=0, data=[58, 31]),
   midi.NoteOnEvent(tick=0, channel=0, data=[60, 44]),
   midi.NoteOnEvent(tick=60, channel=0, data=[60, 0]),
   midi.NoteOnEvent(tick=0, channel=0, data=[58, 0]),
   midi.NoteOnEvent(tick=0, channel=0, data=[55, 0]),
   midi.NoteOnEvent(tick=60, channel=0, data=[55, 31]),
   midi.NoteOnEvent(tick=0, channel=0, data=[58, 31]),
   midi.NoteOnEvent(tick=0, channel=0, data=[60, 44]),
   midi.NoteOnEvent(tick=60, channel=0, data=[60, 0]),
   midi.NoteOnEvent(tick=0, channel=0, data=[58, 0]),
   midi.NoteOnEvent(tick=0, channel=0, data=[55, 0]),
   midi.NoteOnEvent(tick=60, channel=0, data=[53, 59]),
   midi.NoteOnEvent(tick=120, channel=0, data=[53, 0]),
   midi.NoteOnEvent(tick=0, channel=0, data=[60, 31]),
   midi.NoteOnEvent(tick=0, channel=0, data=[57, 31]),
   midi.NoteOnEvent(tick=0, channel=0, data=[63, 44]),
   midi.NoteOnEvent(tick=60, channel=0, data=[63, 0]),
   midi.NoteOnEvent(tick=0, channel=0, data=[57, 0]),
   midi.NoteOnEvent(tick=0, channel=0, data=[60, 0]),
   midi.NoteOnEvent(tick=60, channel=0, data=[63, 42]),
   midi.NoteOnEvent(tick=0, channel=0, data=[57, 35]),
   midi.NoteOnEvent(tick=0, channel=0, data=[60, 35]),
   midi.NoteOnEvent(tick=60, channel=0, data=[60, 0]),
   midi.NoteOnEvent(tick=0, channel=0, data=[57, 0]),
   midi.NoteOnEvent(tick=0, channel=0, data=[63, 0]),
   midi.NoteOnEvent(tick=60, channel=0, data=[58, 53]),
   midi.NoteOnEvent(tick=120, channel=0, data=[58, 0]),
   midi.NoteOnEvent(tick=0, channel=0, data=[62, 45]),
   midi.NoteOnEvent(tick=60, channel=0, data=[62, 0]),
   midi.NoteOnEvent(tick=60, channel=0, data=[62, 45]),
   midi.NoteOnEvent(tick=60, channel=0, data=[62, 0]),
   midi.NoteOnEvent(tick=60, channel=0, data=[50, 53]),
   midi.NoteOnEvent(tick=120, channel=0, data=[50, 0]),
   midi.NoteOnEvent(tick=0, channel=0, data=[53, 45]),
   midi.NoteOnEvent(tick=60, channel=0, data=[53, 0]),
   midi.NoteOnEvent(tick=60, channel=0, data=[53, 49]),
   midi.NoteOnEvent(tick=60, channel=0, data=[53, 0]),
   midi.NoteOnEvent(tick=60, channel=0, data=[45, 55]),
   midi.NoteOnEvent(tick=240, channel=0, data=[45, 0]),
   midi.NoteOnEvent(tick=120, channel=0, data=[29, 45]),
   midi.NoteOnEvent(tick=0, channel=0, data=[41, 45]),
   midi.NoteOnEvent(tick=240, channel=0, data=[41, 0]),
   midi.NoteOnEvent(tick=0, channel=0, data=[29, 0]),
   midi.NoteOnEvent(tick=120, channel=0, data=[34, 59]),
   midi.NoteOnEvent(tick=0, channel=0, data=[46, 59]),
   midi.NoteOnEvent(tick=240, channel=0, data=[46, 0]),
   midi.NoteOnEvent(tick=0, channel=0, data=[34, 0]),
   midi.NoteOnEvent(tick=120, channel=0, data=[38, 50]),
   midi.NoteOnEvent(tick=0, channel=0, data=[50, 50]),
   midi.NoteOnEvent(tick=240, channel=0, data=[50, 0]),
   midi.NoteOnEvent(tick=0, channel=0, data=[38, 0]),
   midi.NoteOnEvent(tick=120, channel=0, data=[33, 66]),
   midi.NoteOnEvent(tick=0, channel=0, data=[45, 66]),
   midi.NoteOnEvent(tick=240, channel=0, data=[45, 0]),
   midi.NoteOnEvent(tick=0, channel=0, data=[33, 0]),
   midi.NoteOnEvent(tick=120, channel=0, data=[29, 55]),
   midi.NoteOnEvent(tick=0, channel=0, data=[41, 55]),
   midi.NoteOnEvent(tick=240, channel=0, data=[41, 0]),
   midi.NoteOnEvent(tick=0, channel=0, data=[29, 0]),
   midi.NoteOnEvent(tick=120, channel=0, data=[34, 73]),
   midi.NoteOnEvent(tick=0, channel=0, data=[46, 73]),
   midi.NoteOnEvent(tick=240, channel=0, data=[46, 0]),
   midi.NoteOnEvent(tick=0, channel=0, data=[34, 0]),
   midi.NoteOnEvent(tick=120, channel=0, data=[38, 61]),
   midi.NoteOnEvent(tick=0, channel=0, data=[50, 61]),
   midi.NoteOnEvent(tick=240, channel=0, data=[50, 0]),
   midi.NoteOnEvent(tick=0, channel=0, data=[38, 0]),
   midi.NoteOnEvent(tick=120, channel=0, data=[45, 70]),
   midi.NoteOnEvent(tick=120, channel=0, data=[45, 0]),
   midi.NoteOnEvent(tick=0, channel=0, data=[51, 60]),
   midi.NoteOnEvent(tick=0, channel=0, data=[53, 60]),
   midi.NoteOnEvent(tick=60, channel=0, data=[53, 0]),
   midi.NoteOnEvent(tick=0, channel=0, data=[51, 0]),
   midi.NoteOnEvent(tick=60, channel=0, data=[53, 59]),
   midi.NoteOnEvent(tick=0, channel=0, data=[51, 59]),
   midi.NoteOnEvent(tick=60, channel=0, data=[51, 0]),
   midi.NoteOnEvent(tick=0, channel=0, data=[53, 0]),
   midi.NoteOnEvent(tick=60, channel=0, data=[50, 75]),
   midi.NoteOnEvent(tick=120, channel=0, data=[50, 0]),
   midi.NoteOnEvent(tick=0, channel=0, data=[53, 63]),
   midi.NoteOnEvent(tick=0, channel=0, data=[51, 63]),
   midi.NoteOnEvent(tick=60, channel=0, data=[51, 0]),
   midi.NoteOnEvent(tick=0, channel=0, data=[53, 0]),
   midi.NoteOnEvent(tick=60, channel=0, data=[53, 67]),
   midi.NoteOnEvent(tick=0, channel=0, data=[51, 67]),
   midi.NoteOnEvent(tick=60, channel=0, data=[51, 0]),
   midi.NoteOnEvent(tick=0, channel=0, data=[53, 0]),
   midi.NoteOnEvent(tick=60, channel=0, data=[48, 75]),
   midi.NoteOnEvent(tick=120, channel=0, data=[48, 0]),
   midi.NoteOnEvent(tick=0, channel=0, data=[51, 64]),
   midi.NoteOnEvent(tick=0, channel=0, data=[53, 64]),
   midi.NoteOnEvent(tick=60, channel=0, data=[53, 0]),
   midi.NoteOnEvent(tick=0, channel=0, data=[51, 0]),
   midi.NoteOnEvent(tick=60, channel=0, data=[53, 64]),
   midi.NoteOnEvent(tick=0, channel=0, data=[51, 64]),
   midi.NoteOnEvent(tick=60, channel=0, data=[51, 0]),
   midi.NoteOnEvent(tick=0, channel=0, data=[53, 0]),
   midi.NoteOnEvent(tick=60, channel=0, data=[50, 81]),
   midi.NoteOnEvent(tick=120, channel=0, data=[50, 0]),
   midi.NoteOnEvent(tick=0, channel=0, data=[53, 68]),
   midi.NoteOnEvent(tick=0, channel=0, data=[51, 68]),
   midi.NoteOnEvent(tick=60, channel=0, data=[51, 0]),
   midi.NoteOnEvent(tick=0, channel=0, data=[53, 0]),
   midi.NoteOnEvent(tick=60, channel=0, data=[53, 72]),
   midi.NoteOnEvent(tick=0, channel=0, data=[51, 72]),
   midi.NoteOnEvent(tick=60, channel=0, data=[51, 0]),
   midi.NoteOnEvent(tick=0, channel=0, data=[53, 0]),
   midi.NoteOnEvent(tick=60, channel=0, data=[45, 81]),
   midi.NoteOnEvent(tick=120, channel=0, data=[45, 0]),
   midi.NoteOnEvent(tick=0, channel=0, data=[51, 69]),
   midi.NoteOnEvent(tick=0, channel=0, data=[53, 69]),
   midi.NoteOnEvent(tick=60, channel=0, data=[53, 0]),
   midi.NoteOnEvent(tick=0, channel=0, data=[51, 0]),
   midi.NoteOnEvent(tick=60, channel=0, data=[53, 69]),
   midi.NoteOnEvent(tick=0, channel=0, data=[51, 69]),
   midi.NoteOnEvent(tick=60, channel=0, data=[51, 0]),
   midi.NoteOnEvent(tick=0, channel=0, data=[53, 0]),
   midi.NoteOnEvent(tick=60, channel=0, data=[43, 86]),
   midi.NoteOnEvent(tick=120, channel=0, data=[43, 0]),
   midi.NoteOnEvent(tick=0, channel=0, data=[55, 72]),
   midi.NoteOnEvent(tick=0, channel=0, data=[51, 72]),
   midi.NoteOnEvent(tick=60, channel=0, data=[51, 0]),
   midi.NoteOnEvent(tick=0, channel=0, data=[55, 0]),
   midi.NoteOnEvent(tick=60, channel=0, data=[55, 74]),
   midi.NoteOnEvent(tick=0, channel=0, data=[51, 74]),
   midi.NoteOnEvent(tick=60, channel=0, data=[51, 0]),
   midi.NoteOnEvent(tick=0, channel=0, data=[55, 0]),
   midi.NoteOnEvent(tick=60, channel=0, data=[41, 79]),
   midi.NoteOnEvent(tick=120, channel=0, data=[41, 0]),
   midi.NoteOnEvent(tick=0, channel=0, data=[57, 78]),
   midi.NoteOnEvent(tick=0, channel=0, data=[51, 66]),
   midi.NoteOnEvent(tick=0, channel=0, data=[48, 66]),
   midi.NoteOnEvent(tick=90, channel=0, data=[48, 0]),
   midi.NoteOnEvent(tick=0, channel=0, data=[51, 0]),
   midi.NoteOnEvent(tick=0, channel=0, data=[57, 0]),
   midi.NoteOnEvent(tick=30, channel=0, data=[57, 78]),
   midi.NoteOnEvent(tick=0, channel=0, data=[51, 66]),
   midi.NoteOnEvent(tick=0, channel=0, data=[48, 66]),
   midi.NoteOnEvent(tick=90, channel=0, data=[48, 0]),
   midi.NoteOnEvent(tick=0, channel=0, data=[51, 0]),
   midi.NoteOnEvent(tick=0, channel=0, data=[57, 0]),
   midi.NoteOnEvent(tick=30, channel=0, data=[48, 73]),
   midi.NoteOnEvent(tick=0, channel=0, data=[51, 73]),
   midi.NoteOnEvent(tick=0, channel=0, data=[57, 86]),
   midi.NoteOnEvent(tick=90, channel=0, data=[57, 0]),
   midi.NoteOnEvent(tick=0, channel=0, data=[51, 0]),
   midi.NoteOnEvent(tick=0, channel=0, data=[48, 0]),
   midi.NoteOnEvent(tick=30, channel=0, data=[57, 79]),
   midi.NoteOnEvent(tick=0, channel=0, data=[51, 67]),
   midi.NoteOnEvent(tick=0, channel=0, data=[48, 67]),
   midi.NoteOnEvent(tick=90, channel=0, data=[48, 0]),
   midi.NoteOnEvent(tick=0, channel=0, data=[51, 0]),
   midi.NoteOnEvent(tick=0, channel=0, data=[57, 0]),
   midi.NoteOnEvent(tick=30, channel=0, data=[57, 79]),
   midi.NoteOnEvent(tick=0, channel=0, data=[51, 67]),
   midi.NoteOnEvent(tick=0, channel=0, data=[48, 67]),
   midi.NoteOnEvent(tick=90, channel=0, data=[48, 0]),
   midi.NoteOnEvent(tick=0, channel=0, data=[51, 0]),
   midi.NoteOnEvent(tick=0, channel=0, data=[57, 0]),
   midi.NoteOnEvent(tick=30, channel=0, data=[48, 73]),
   midi.NoteOnEvent(tick=0, channel=0, data=[51, 73]),
   midi.NoteOnEvent(tick=0, channel=0, data=[57, 86]),
   midi.NoteOnEvent(tick=90, channel=0, data=[57, 0]),
   midi.NoteOnEvent(tick=0, channel=0, data=[51, 0]),
   midi.NoteOnEvent(tick=0, channel=0, data=[48, 0]),
   midi.NoteOnEvent(tick=30, channel=0, data=[57, 80]),
   midi.NoteOnEvent(tick=0, channel=0, data=[51, 68]),
   midi.NoteOnEvent(tick=0, channel=0, data=[48, 68]),
   midi.NoteOnEvent(tick=90, channel=0, data=[48, 0]),
   midi.NoteOnEvent(tick=0, channel=0, data=[51, 0]),
   midi.NoteOnEvent(tick=0, channel=0, data=[57, 0]),
   midi.NoteOnEvent(tick=30, channel=0, data=[57, 80]),
   midi.NoteOnEvent(tick=0, channel=0, data=[51, 68]),
   midi.NoteOnEvent(tick=0, channel=0, data=[48, 68]),
   midi.NoteOnEvent(tick=90, channel=0, data=[48, 0]),
   midi.NoteOnEvent(tick=0, channel=0, data=[51, 0]),
   midi.NoteOnEvent(tick=0, channel=0, data=[57, 0]),
   midi.NoteOnEvent(tick=30, channel=0, data=[48, 73]),
   midi.NoteOnEvent(tick=0, channel=0, data=[51, 73]),
   midi.NoteOnEvent(tick=0, channel=0, data=[57, 86]),
   midi.NoteOnEvent(tick=90, channel=0, data=[57, 0]),
   midi.NoteOnEvent(tick=0, channel=0, data=[51, 0]),
   midi.NoteOnEvent(tick=0, channel=0, data=[48, 0]),
   midi.NoteOnEvent(tick=30, channel=0, data=[57, 81]),
   midi.NoteOnEvent(tick=0, channel=0, data=[51, 68]),
   midi.NoteOnEvent(tick=0, channel=0, data=[48, 68]),
   midi.NoteOnEvent(tick=90, channel=0, data=[48, 0]),
   midi.NoteOnEvent(tick=0, channel=0, data=[51, 0]),
   midi.NoteOnEvent(tick=0, channel=0, data=[57, 0]),
   midi.NoteOnEvent(tick=30, channel=0, data=[57, 81]),
   midi.NoteOnEvent(tick=0, channel=0, data=[51, 68]),
   midi.NoteOnEvent(tick=0, channel=0, data=[48, 68]),
   midi.NoteOnEvent(tick=90, channel=0, data=[48, 0]),
   midi.NoteOnEvent(tick=0, channel=0, data=[51, 0]),
   midi.NoteOnEvent(tick=0, channel=0, data=[57, 0]),
   midi.NoteOnEvent(tick=30, channel=0, data=[41, 73]),
   midi.NoteOnEvent(tick=0, channel=0, data=[51, 86]),
   midi.NoteOnEvent(tick=90, channel=0, data=[51, 0]),
   midi.NoteOnEvent(tick=0, channel=0, data=[41, 0]),
   midi.NoteOnEvent(tick=30, channel=0, data=[51, 81]),
   midi.NoteOnEvent(tick=0, channel=0, data=[41, 68]),
   midi.NoteOnEvent(tick=90, channel=0, data=[41, 0]),
   midi.NoteOnEvent(tick=0, channel=0, data=[51, 0]),
   midi.NoteOnEvent(tick=30, channel=0, data=[51, 82]),
   midi.NoteOnEvent(tick=0, channel=0, data=[41, 69]),
   midi.NoteOnEvent(tick=90, channel=0, data=[41, 0]),
   midi.NoteOnEvent(tick=0, channel=0, data=[51, 0]),
   midi.NoteOnEvent(tick=30, channel=0, data=[41, 73]),
   midi.NoteOnEvent(tick=0, channel=0, data=[51, 86]),
   midi.NoteOnEvent(tick=90, channel=0, data=[51, 0]),
   midi.NoteOnEvent(tick=0, channel=0, data=[41, 0]),
   midi.NoteOnEvent(tick=30, channel=0, data=[51, 81]),
   midi.NoteOnEvent(tick=0, channel=0, data=[41, 68]),
   midi.NoteOnEvent(tick=90, channel=0, data=[41, 0]),
   midi.NoteOnEvent(tick=0, channel=0, data=[51, 0]),
   midi.NoteOnEvent(tick=30, channel=0, data=[51, 81]),
   midi.NoteOnEvent(tick=0, channel=0, data=[41, 68]),
   midi.NoteOnEvent(tick=90, channel=0, data=[41, 0]),
   midi.NoteOnEvent(tick=0, channel=0, data=[51, 0]),
   midi.NoteOnEvent(tick=30, channel=0, data=[46, 73]),
   midi.NoteOnEvent(tick=0, channel=0, data=[50, 86]),
   midi.NoteOnEvent(tick=180, channel=0, data=[50, 0]),
   midi.NoteOnEvent(tick=0, channel=0, data=[46, 0]),
   midi.NoteOnEvent(tick=180, channel=0, data=[46, 73]),
   midi.NoteOnEvent(tick=0, channel=0, data=[50, 86]),
   midi.NoteOnEvent(tick=180, channel=0, data=[50, 0]),
   midi.NoteOnEvent(tick=0, channel=0, data=[46, 0]),
   midi.NoteOnEvent(tick=180, channel=0, data=[46, 73]),
   midi.NoteOnEvent(tick=0, channel=0, data=[50, 86]),
   midi.NoteOnEvent(tick=180, channel=0, data=[50, 0]),
   midi.NoteOnEvent(tick=0, channel=0, data=[46, 0]),
   midi.NoteOnEvent(tick=180, channel=0, data=[46, 73]),
   midi.NoteOnEvent(tick=0, channel=0, data=[53, 73]),
   midi.NoteOnEvent(tick=0, channel=0, data=[58, 86]),
   midi.NoteOnEvent(tick=180, channel=0, data=[58, 0]),
   midi.NoteOnEvent(tick=0, channel=0, data=[53, 0]),
   midi.NoteOnEvent(tick=0, channel=0, data=[46, 0]),
   midi.NoteOnEvent(tick=180, channel=0, data=[46, 73]),
   midi.NoteOnEvent(tick=0, channel=0, data=[53, 73]),
   midi.NoteOnEvent(tick=0, channel=0, data=[58, 86]),
   midi.NoteOnEvent(tick=240, channel=0, data=[58, 0]),
   midi.NoteOnEvent(tick=0, channel=0, data=[53, 0]),
   midi.NoteOnEvent(tick=0, channel=0, data=[46, 0]),
   midi.NoteOnEvent(tick=480, channel=0, data=[53, 73]),
   midi.NoteOnEvent(tick=0, channel=0, data=[58, 73]),
   midi.NoteOnEvent(tick=0, channel=0, data=[62, 86]),
   midi.NoteOnEvent(tick=240, channel=0, data=[62, 0]),
   midi.NoteOnEvent(tick=0, channel=0, data=[58, 0]),
   midi.NoteOnEvent(tick=0, channel=0, data=[53, 0]),
   midi.NoteOnEvent(tick=480, channel=0, data=[34, 107]),
   midi.NoteOnEvent(tick=240, channel=0, data=[34, 0]),
   midi.ControlChangeEvent(tick=784, channel=0, data=[64, 127]),
   midi.ControlChangeEvent(tick=190, channel=0, data=[64, 0]),
   midi.ControlChangeEvent(tick=166, channel=0, data=[64, 127]),
   midi.ControlChangeEvent(tick=194, channel=0, data=[64, 0]),
   midi.ControlChangeEvent(tick=152, channel=0, data=[64, 127]),
   midi.ControlChangeEvent(tick=213, channel=0, data=[64, 0]),
   midi.ControlChangeEvent(tick=161, channel=0, data=[64, 127]),
   midi.ControlChangeEvent(tick=201, channel=0, data=[64, 0]),
   midi.ControlChangeEvent(tick=135, channel=0, data=[64, 127]),
   midi.ControlChangeEvent(tick=229, channel=0, data=[64, 0]),
   midi.ControlChangeEvent(tick=173, channel=0, data=[64, 127]),
   midi.ControlChangeEvent(tick=176, channel=0, data=[64, 0]),
   midi.ControlChangeEvent(tick=156, channel=0, data=[64, 127]),
   midi.ControlChangeEvent(tick=201, channel=0, data=[64, 0]),
   midi.ControlChangeEvent(tick=504, channel=0, data=[64, 127]),
   midi.ControlChangeEvent(tick=354, channel=0, data=[64, 0]),
   midi.ControlChangeEvent(tick=43, channel=0, data=[64, 127]),
   midi.ControlChangeEvent(tick=176, channel=0, data=[64, 0]),
   midi.ControlChangeEvent(tick=147, channel=0, data=[64, 127]),
   midi.ControlChangeEvent(tick=94, channel=0, data=[64, 0]),
   midi.ControlChangeEvent(tick=286, channel=0, data=[64, 127]),
   midi.ControlChangeEvent(tick=91, channel=0, data=[64, 0]),
   midi.ControlChangeEvent(tick=239, channel=0, data=[64, 127]),
   midi.ControlChangeEvent(tick=353, channel=0, data=[64, 0]),
   midi.ControlChangeEvent(tick=39, channel=0, data=[64, 127]),
   midi.ControlChangeEvent(tick=303, channel=0, data=[64, 0]),
   midi.ControlChangeEvent(tick=60, channel=0, data=[64, 127]),
   midi.ControlChangeEvent(tick=332, channel=0, data=[64, 0]),
   midi.ControlChangeEvent(tick=346, channel=0, data=[64, 127]),
   midi.ControlChangeEvent(tick=240, channel=0, data=[64, 0]),
   midi.ControlChangeEvent(tick=148, channel=0, data=[64, 127]),
   midi.ControlChangeEvent(tick=208, channel=0, data=[64, 0]),
   midi.ControlChangeEvent(tick=152, channel=0, data=[64, 127]),
   midi.ControlChangeEvent(tick=223, channel=0, data=[64, 0]),
   midi.ControlChangeEvent(tick=119, channel=0, data=[64, 127]),
   midi.ControlChangeEvent(tick=231, channel=0, data=[64, 0]),
   midi.ControlChangeEvent(tick=172, channel=0, data=[64, 127]),
   midi.ControlChangeEvent(tick=307, channel=0, data=[64, 0]),
   midi.ControlChangeEvent(tick=53, channel=0, data=[64, 127]),
   midi.ControlChangeEvent(tick=177, channel=0, data=[64, 0]),
   midi.ControlChangeEvent(tick=151, channel=0, data=[64, 127]),
   midi.ControlChangeEvent(tick=345, channel=0, data=[64, 0]),
   midi.ControlChangeEvent(tick=40, channel=0, data=[64, 127]),
   midi.ControlChangeEvent(tick=305, channel=0, data=[64, 0]),
   midi.ControlChangeEvent(tick=85, channel=0, data=[64, 127]),
   midi.ControlChangeEvent(tick=291, channel=0, data=[64, 0]),
   midi.ControlChangeEvent(tick=102, channel=0, data=[64, 127]),
   midi.ControlChangeEvent(tick=247, channel=0, data=[64, 0]),
   midi.ControlChangeEvent(tick=66, channel=0, data=[64, 127]),
   midi.ControlChangeEvent(tick=301, channel=0, data=[64, 0]),
   midi.ControlChangeEvent(tick=66, channel=0, data=[64, 127]),
   midi.ControlChangeEvent(tick=292, channel=0, data=[64, 0]),
   midi.ControlChangeEvent(tick=75, channel=0, data=[64, 127]),
   midi.ControlChangeEvent(tick=282, channel=0, data=[64, 0]),
   midi.ControlChangeEvent(tick=71, channel=0, data=[64, 127]),
   midi.ControlChangeEvent(tick=290, channel=0, data=[64, 0]),
   midi.ControlChangeEvent(tick=46, channel=0, data=[64, 127]),
   midi.ControlChangeEvent(tick=316, channel=0, data=[64, 0]),
   midi.ControlChangeEvent(tick=56, channel=0, data=[64, 127]),
   midi.ControlChangeEvent(tick=298, channel=0, data=[64, 0]),
   midi.ControlChangeEvent(tick=94, channel=0, data=[64, 127]),
   midi.ControlChangeEvent(tick=270, channel=0, data=[64, 0]),
   midi.ControlChangeEvent(tick=70, channel=0, data=[64, 127]),
   midi.ControlChangeEvent(tick=279, channel=0, data=[64, 0]),
   midi.ControlChangeEvent(tick=778, channel=0, data=[64, 127]),
   midi.ControlChangeEvent(tick=190, channel=0, data=[64, 0]),
   midi.ControlChangeEvent(tick=166, channel=0, data=[64, 127]),
   midi.ControlChangeEvent(tick=194, channel=0, data=[64, 0]),
   midi.ControlChangeEvent(tick=152, channel=0, data=[64, 127]),
   midi.ControlChangeEvent(tick=213, channel=0, data=[64, 0]),
   midi.ControlChangeEvent(tick=161, channel=0, data=[64, 127]),
   midi.ControlChangeEvent(tick=201, channel=0, data=[64, 0]),
   midi.ControlChangeEvent(tick=135, channel=0, data=[64, 127]),
   midi.ControlChangeEvent(tick=229, channel=0, data=[64, 0]),
   midi.ControlChangeEvent(tick=173, channel=0, data=[64, 127]),
   midi.ControlChangeEvent(tick=176, channel=0, data=[64, 0]),
   midi.ControlChangeEvent(tick=156, channel=0, data=[64, 127]),
   midi.ControlChangeEvent(tick=201, channel=0, data=[64, 0]),
   midi.ControlChangeEvent(tick=504, channel=0, data=[64, 127]),
   midi.ControlChangeEvent(tick=354, channel=0, data=[64, 0]),
   midi.ControlChangeEvent(tick=43, channel=0, data=[64, 127]),
   midi.ControlChangeEvent(tick=176, channel=0, data=[64, 0]),
   midi.ControlChangeEvent(tick=147, channel=0, data=[64, 127]),
   midi.ControlChangeEvent(tick=94, channel=0, data=[64, 0]),
   midi.ControlChangeEvent(tick=286, channel=0, data=[64, 127]),
   midi.ControlChangeEvent(tick=91, channel=0, data=[64, 0]),
   midi.ControlChangeEvent(tick=239, channel=0, data=[64, 127]),
   midi.ControlChangeEvent(tick=353, channel=0, data=[64, 0]),
   midi.ControlChangeEvent(tick=39, channel=0, data=[64, 127]),
   midi.ControlChangeEvent(tick=303, channel=0, data=[64, 0]),
   midi.ControlChangeEvent(tick=60, channel=0, data=[64, 127]),
   midi.ControlChangeEvent(tick=332, channel=0, data=[64, 0]),
   midi.ControlChangeEvent(tick=346, channel=0, data=[64, 127]),
   midi.ControlChangeEvent(tick=240, channel=0, data=[64, 0]),
   midi.ControlChangeEvent(tick=148, channel=0, data=[64, 127]),
   midi.ControlChangeEvent(tick=208, channel=0, data=[64, 0]),
   midi.ControlChangeEvent(tick=152, channel=0, data=[64, 127]),
   midi.ControlChangeEvent(tick=223, channel=0, data=[64, 0]),
   midi.ControlChangeEvent(tick=119, channel=0, data=[64, 127]),
   midi.ControlChangeEvent(tick=231, channel=0, data=[64, 0]),
   midi.ControlChangeEvent(tick=172, channel=0, data=[64, 127]),
   midi.ControlChangeEvent(tick=307, channel=0, data=[64, 0]),
   midi.ControlChangeEvent(tick=53, channel=0, data=[64, 127]),
   midi.ControlChangeEvent(tick=177, channel=0, data=[64, 0]),
   midi.ControlChangeEvent(tick=151, channel=0, data=[64, 127]),
   midi.ControlChangeEvent(tick=345, channel=0, data=[64, 0]),
   midi.ControlChangeEvent(tick=40, channel=0, data=[64, 127]),
   midi.ControlChangeEvent(tick=305, channel=0, data=[64, 0]),
   midi.ControlChangeEvent(tick=85, channel=0, data=[64, 127]),
   midi.ControlChangeEvent(tick=291, channel=0, data=[64, 0]),
   midi.ControlChangeEvent(tick=102, channel=0, data=[64, 127]),
   midi.ControlChangeEvent(tick=247, channel=0, data=[64, 0]),
   midi.ControlChangeEvent(tick=66, channel=0, data=[64, 127]),
   midi.ControlChangeEvent(tick=301, channel=0, data=[64, 0]),
   midi.ControlChangeEvent(tick=66, channel=0, data=[64, 127]),
   midi.ControlChangeEvent(tick=292, channel=0, data=[64, 0]),
   midi.ControlChangeEvent(tick=75, channel=0, data=[64, 127]),
   midi.ControlChangeEvent(tick=282, channel=0, data=[64, 0]),
   midi.ControlChangeEvent(tick=71, channel=0, data=[64, 127]),
   midi.ControlChangeEvent(tick=290, channel=0, data=[64, 0]),
   midi.ControlChangeEvent(tick=46, channel=0, data=[64, 127]),
   midi.ControlChangeEvent(tick=316, channel=0, data=[64, 0]),
   midi.ControlChangeEvent(tick=56, channel=0, data=[64, 127]),
   midi.ControlChangeEvent(tick=298, channel=0, data=[64, 0]),
   midi.ControlChangeEvent(tick=94, channel=0, data=[64, 127]),
   midi.ControlChangeEvent(tick=270, channel=0, data=[64, 0]),
   midi.ControlChangeEvent(tick=70, channel=0, data=[64, 127]),
   midi.ControlChangeEvent(tick=279, channel=0, data=[64, 0]),
   midi.ControlChangeEvent(tick=778, channel=0, data=[64, 127]),
   midi.ControlChangeEvent(tick=81, channel=0, data=[64, 0]),
   midi.ControlChangeEvent(tick=275, channel=0, data=[64, 127]),
   midi.ControlChangeEvent(tick=92, channel=0, data=[64, 0]),
   midi.ControlChangeEvent(tick=247, channel=0, data=[64, 127]),
   midi.ControlChangeEvent(tick=120, channel=0, data=[64, 0]),
   midi.ControlChangeEvent(tick=261, channel=0, data=[64, 127]),
   midi.ControlChangeEvent(tick=96, channel=0, data=[64, 0]),
   midi.ControlChangeEvent(tick=268, channel=0, data=[64, 127]),
   midi.ControlChangeEvent(tick=81, channel=0, data=[64, 0]),
   midi.ControlChangeEvent(tick=275, channel=0, data=[64, 127]),
   midi.ControlChangeEvent(tick=92, channel=0, data=[64, 0]),
   midi.ControlChangeEvent(tick=247, channel=0, data=[64, 127]),
   midi.ControlChangeEvent(tick=120, channel=0, data=[64, 0]),
   midi.ControlChangeEvent(tick=261, channel=0, data=[64, 127]),
   midi.ControlChangeEvent(tick=96, channel=0, data=[64, 0]),
   midi.ControlChangeEvent(tick=268, channel=0, data=[64, 127]),
   midi.ControlChangeEvent(tick=81, channel=0, data=[64, 0]),
   midi.ControlChangeEvent(tick=275, channel=0, data=[64, 127]),
   midi.ControlChangeEvent(tick=92, channel=0, data=[64, 0]),
   midi.ControlChangeEvent(tick=247, channel=0, data=[64, 127]),
   midi.ControlChangeEvent(tick=120, channel=0, data=[64, 0]),
   midi.ControlChangeEvent(tick=261, channel=0, data=[64, 127]),
   midi.ControlChangeEvent(tick=96, channel=0, data=[64, 0]),
   midi.ControlChangeEvent(tick=268, channel=0, data=[64, 127]),
   midi.ControlChangeEvent(tick=81, channel=0, data=[64, 0]),
   midi.ControlChangeEvent(tick=275, channel=0, data=[64, 127]),
   midi.ControlChangeEvent(tick=92, channel=0, data=[64, 0]),
   midi.ControlChangeEvent(tick=247, channel=0, data=[64, 127]),
   midi.ControlChangeEvent(tick=120, channel=0, data=[64, 0]),
   midi.ControlChangeEvent(tick=261, channel=0, data=[64, 127]),
   midi.ControlChangeEvent(tick=96, channel=0, data=[64, 0]),
   midi.ControlChangeEvent(tick=243, channel=0, data=[64, 127]),
   midi.ControlChangeEvent(tick=120, channel=0, data=[64, 0]),
   midi.ControlChangeEvent(tick=261, channel=0, data=[64, 127]),
   midi.ControlChangeEvent(tick=96, channel=0, data=[64, 0]),
   midi.ControlChangeEvent(tick=243, channel=0, data=[64, 127]),
   midi.ControlChangeEvent(tick=120, channel=0, data=[64, 0]),
   midi.ControlChangeEvent(tick=261, channel=0, data=[64, 127]),
   midi.ControlChangeEvent(tick=96, channel=0, data=[64, 0]),
   midi.ControlChangeEvent(tick=243, channel=0, data=[64, 127]),
   midi.ControlChangeEvent(tick=120, channel=0, data=[64, 0]),
   midi.ControlChangeEvent(tick=261, channel=0, data=[64, 127]),
   midi.ControlChangeEvent(tick=96, channel=0, data=[64, 0]),
   midi.ControlChangeEvent(tick=243, channel=0, data=[64, 127]),
   midi.ControlChangeEvent(tick=120, channel=0, data=[64, 0]),
   midi.ControlChangeEvent(tick=261, channel=0, data=[64, 127]),
   midi.ControlChangeEvent(tick=96, channel=0, data=[64, 0]),
   midi.ControlChangeEvent(tick=243, channel=0, data=[64, 127]),
   midi.ControlChangeEvent(tick=120, channel=0, data=[64, 0]),
   midi.ControlChangeEvent(tick=261, channel=0, data=[64, 127]),
   midi.ControlChangeEvent(tick=96, channel=0, data=[64, 0]),
   midi.ControlChangeEvent(tick=243, channel=0, data=[64, 127]),
   midi.ControlChangeEvent(tick=120, channel=0, data=[64, 0]),
   midi.ControlChangeEvent(tick=261, channel=0, data=[64, 127]),
   midi.ControlChangeEvent(tick=188, channel=0, data=[64, 0]),
   midi.ControlChangeEvent(tick=198, channel=0, data=[64, 127]),
   midi.ControlChangeEvent(tick=164, channel=0, data=[64, 0]),
   midi.ControlChangeEvent(tick=170, channel=0, data=[64, 127]),
   midi.ControlChangeEvent(tick=188, channel=0, data=[64, 0]),
   midi.ControlChangeEvent(tick=201, channel=0, data=[64, 127]),
   midi.ControlChangeEvent(tick=301, channel=0, data=[64, 0]),
   midi.ControlChangeEvent(tick=110, channel=0, data=[64, 127]),
   midi.ControlChangeEvent(tick=226, channel=0, data=[64, 0]),
   midi.ControlChangeEvent(tick=2, channel=0, data=[64, 0]),
   midi.ControlChangeEvent(tick=776, channel=0, data=[64, 127]),
   midi.ControlChangeEvent(tick=190, channel=0, data=[64, 0]),
   midi.ControlChangeEvent(tick=166, channel=0, data=[64, 127]),
   midi.ControlChangeEvent(tick=194, channel=0, data=[64, 0]),
   midi.ControlChangeEvent(tick=152, channel=0, data=[64, 127]),
   midi.ControlChangeEvent(tick=213, channel=0, data=[64, 0]),
   midi.ControlChangeEvent(tick=161, channel=0, data=[64, 127]),
   midi.ControlChangeEvent(tick=201, channel=0, data=[64, 0]),
   midi.ControlChangeEvent(tick=135, channel=0, data=[64, 127]),
   midi.ControlChangeEvent(tick=229, channel=0, data=[64, 0]),
   midi.ControlChangeEvent(tick=173, channel=0, data=[64, 127]),
   midi.ControlChangeEvent(tick=176, channel=0, data=[64, 0]),
   midi.ControlChangeEvent(tick=156, channel=0, data=[64, 127]),
   midi.ControlChangeEvent(tick=201, channel=0, data=[64, 0]),
   midi.ControlChangeEvent(tick=504, channel=0, data=[64, 127]),
   midi.ControlChangeEvent(tick=354, channel=0, data=[64, 0]),
   midi.ControlChangeEvent(tick=43, channel=0, data=[64, 127]),
   midi.ControlChangeEvent(tick=176, channel=0, data=[64, 0]),
   midi.ControlChangeEvent(tick=147, channel=0, data=[64, 127]),
   midi.ControlChangeEvent(tick=94, channel=0, data=[64, 0]),
   midi.ControlChangeEvent(tick=286, channel=0, data=[64, 127]),
   midi.ControlChangeEvent(tick=91, channel=0, data=[64, 0]),
   midi.ControlChangeEvent(tick=239, channel=0, data=[64, 127]),
   midi.ControlChangeEvent(tick=353, channel=0, data=[64, 0]),
   midi.ControlChangeEvent(tick=39, channel=0, data=[64, 127]),
   midi.ControlChangeEvent(tick=303, channel=0, data=[64, 0]),
   midi.ControlChangeEvent(tick=60, channel=0, data=[64, 127]),
   midi.ControlChangeEvent(tick=332, channel=0, data=[64, 0]),
   midi.ControlChangeEvent(tick=346, channel=0, data=[64, 127]),
   midi.ControlChangeEvent(tick=240, channel=0, data=[64, 0]),
   midi.ControlChangeEvent(tick=148, channel=0, data=[64, 127]),
   midi.ControlChangeEvent(tick=208, channel=0, data=[64, 0]),
   midi.ControlChangeEvent(tick=152, channel=0, data=[64, 127]),
   midi.ControlChangeEvent(tick=223, channel=0, data=[64, 0]),
   midi.ControlChangeEvent(tick=119, channel=0, data=[64, 127]),
   midi.ControlChangeEvent(tick=231, channel=0, data=[64, 0]),
   midi.ControlChangeEvent(tick=172, channel=0, data=[64, 127]),
   midi.ControlChangeEvent(tick=307, channel=0, data=[64, 0]),
   midi.ControlChangeEvent(tick=53, channel=0, data=[64, 127]),
   midi.ControlChangeEvent(tick=177, channel=0, data=[64, 0]),
   midi.ControlChangeEvent(tick=151, channel=0, data=[64, 127]),
   midi.ControlChangeEvent(tick=345, channel=0, data=[64, 0]),
   midi.ControlChangeEvent(tick=40, channel=0, data=[64, 127]),
   midi.ControlChangeEvent(tick=305, channel=0, data=[64, 0]),
   midi.ControlChangeEvent(tick=85, channel=0, data=[64, 127]),
   midi.ControlChangeEvent(tick=291, channel=0, data=[64, 0]),
   midi.ControlChangeEvent(tick=102, channel=0, data=[64, 127]),
   midi.ControlChangeEvent(tick=247, channel=0, data=[64, 0]),
   midi.ControlChangeEvent(tick=66, channel=0, data=[64, 127]),
   midi.ControlChangeEvent(tick=301, channel=0, data=[64, 0]),
   midi.ControlChangeEvent(tick=66, channel=0, data=[64, 127]),
   midi.ControlChangeEvent(tick=292, channel=0, data=[64, 0]),
   midi.ControlChangeEvent(tick=75, channel=0, data=[64, 127]),
   midi.ControlChangeEvent(tick=282, channel=0, data=[64, 0]),
   midi.ControlChangeEvent(tick=71, channel=0, data=[64, 127]),
   midi.ControlChangeEvent(tick=290, channel=0, data=[64, 0]),
   midi.ControlChangeEvent(tick=46, channel=0, data=[64, 127]),
   midi.ControlChangeEvent(tick=316, channel=0, data=[64, 0]),
   midi.ControlChangeEvent(tick=56, channel=0, data=[64, 127]),
   midi.ControlChangeEvent(tick=298, channel=0, data=[64, 0]),
   midi.ControlChangeEvent(tick=94, channel=0, data=[64, 127]),
   midi.ControlChangeEvent(tick=270, channel=0, data=[64, 0]),
   midi.ControlChangeEvent(tick=70, channel=0, data=[64, 127]),
   midi.ControlChangeEvent(tick=279, channel=0, data=[64, 0]),
   midi.ControlChangeEvent(tick=778, channel=0, data=[64, 127]),
   midi.ControlChangeEvent(tick=81, channel=0, data=[64, 0]),
   midi.ControlChangeEvent(tick=275, channel=0, data=[64, 127]),
   midi.ControlChangeEvent(tick=92, channel=0, data=[64, 0]),
   midi.ControlChangeEvent(tick=247, channel=0, data=[64, 127]),
   midi.ControlChangeEvent(tick=120, channel=0, data=[64, 0]),
   midi.ControlChangeEvent(tick=261, channel=0, data=[64, 127]),
   midi.ControlChangeEvent(tick=96, channel=0, data=[64, 0]),
   midi.ControlChangeEvent(tick=268, channel=0, data=[64, 127]),
   midi.ControlChangeEvent(tick=81, channel=0, data=[64, 0]),
   midi.ControlChangeEvent(tick=275, channel=0, data=[64, 127]),
   midi.ControlChangeEvent(tick=92, channel=0, data=[64, 0]),
   midi.ControlChangeEvent(tick=247, channel=0, data=[64, 127]),
   midi.ControlChangeEvent(tick=120, channel=0, data=[64, 0]),
   midi.ControlChangeEvent(tick=261, channel=0, data=[64, 127]),
   midi.ControlChangeEvent(tick=96, channel=0, data=[64, 0]),
   midi.ControlChangeEvent(tick=268, channel=0, data=[64, 127]),
   midi.ControlChangeEvent(tick=81, channel=0, data=[64, 0]),
   midi.ControlChangeEvent(tick=275, channel=0, data=[64, 127]),
   midi.ControlChangeEvent(tick=92, channel=0, data=[64, 0]),
   midi.ControlChangeEvent(tick=247, channel=0, data=[64, 127]),
   midi.ControlChangeEvent(tick=120, channel=0, data=[64, 0]),
   midi.ControlChangeEvent(tick=261, channel=0, data=[64, 127]),
   midi.ControlChangeEvent(tick=96, channel=0, data=[64, 0]),
   midi.ControlChangeEvent(tick=268, channel=0, data=[64, 127]),
   midi.ControlChangeEvent(tick=81, channel=0, data=[64, 0]),
   midi.ControlChangeEvent(tick=275, channel=0, data=[64, 127]),
   midi.ControlChangeEvent(tick=92, channel=0, data=[64, 0]),
   midi.ControlChangeEvent(tick=247, channel=0, data=[64, 127]),
   midi.ControlChangeEvent(tick=120, channel=0, data=[64, 0]),
   midi.ControlChangeEvent(tick=261, channel=0, data=[64, 127]),
   midi.ControlChangeEvent(tick=96, channel=0, data=[64, 0]),
   midi.ControlChangeEvent(tick=243, channel=0, data=[64, 127]),
   midi.ControlChangeEvent(tick=120, channel=0, data=[64, 0]),
   midi.ControlChangeEvent(tick=261, channel=0, data=[64, 127]),
   midi.ControlChangeEvent(tick=96, channel=0, data=[64, 0]),
   midi.ControlChangeEvent(tick=243, channel=0, data=[64, 127]),
   midi.ControlChangeEvent(tick=120, channel=0, data=[64, 0]),
   midi.ControlChangeEvent(tick=261, channel=0, data=[64, 127]),
   midi.ControlChangeEvent(tick=96, channel=0, data=[64, 0]),
   midi.ControlChangeEvent(tick=243, channel=0, data=[64, 127]),
   midi.ControlChangeEvent(tick=120, channel=0, data=[64, 0]),
   midi.ControlChangeEvent(tick=261, channel=0, data=[64, 127]),
   midi.ControlChangeEvent(tick=96, channel=0, data=[64, 0]),
   midi.ControlChangeEvent(tick=243, channel=0, data=[64, 127]),
   midi.ControlChangeEvent(tick=120, channel=0, data=[64, 0]),
   midi.ControlChangeEvent(tick=261, channel=0, data=[64, 127]),
   midi.ControlChangeEvent(tick=96, channel=0, data=[64, 0]),
   midi.ControlChangeEvent(tick=243, channel=0, data=[64, 127]),
   midi.ControlChangeEvent(tick=120, channel=0, data=[64, 0]),
   midi.ControlChangeEvent(tick=261, channel=0, data=[64, 127]),
   midi.ControlChangeEvent(tick=96, channel=0, data=[64, 0]),
   midi.ControlChangeEvent(tick=243, channel=0, data=[64, 127]),
   midi.ControlChangeEvent(tick=120, channel=0, data=[64, 0]),
   midi.ControlChangeEvent(tick=261, channel=0, data=[64, 127]),
   midi.ControlChangeEvent(tick=188, channel=0, data=[64, 0]),
   midi.ControlChangeEvent(tick=198, channel=0, data=[64, 127]),
   midi.ControlChangeEvent(tick=164, channel=0, data=[64, 0]),
   midi.ControlChangeEvent(tick=170, channel=0, data=[64, 127]),
   midi.ControlChangeEvent(tick=188, channel=0, data=[64, 0]),
   midi.ControlChangeEvent(tick=201, channel=0, data=[64, 127]),
   midi.ControlChangeEvent(tick=301, channel=0, data=[64, 0]),
   midi.ControlChangeEvent(tick=110, channel=0, data=[64, 127]),
   midi.ControlChangeEvent(tick=226, channel=0, data=[64, 0]),
   midi.ControlChangeEvent(tick=2, channel=0, data=[64, 0]),
   midi.ControlChangeEvent(tick=776, channel=0, data=[64, 127]),
   midi.ControlChangeEvent(tick=190, channel=0, data=[64, 0]),
   midi.ControlChangeEvent(tick=166, channel=0, data=[64, 127]),
   midi.ControlChangeEvent(tick=194, channel=0, data=[64, 0]),
   midi.ControlChangeEvent(tick=152, channel=0, data=[64, 127]),
   midi.ControlChangeEvent(tick=213, channel=0, data=[64, 0]),
   midi.ControlChangeEvent(tick=161, channel=0, data=[64, 127]),
   midi.ControlChangeEvent(tick=201, channel=0, data=[64, 0]),
   midi.ControlChangeEvent(tick=135, channel=0, data=[64, 127]),
   midi.ControlChangeEvent(tick=229, channel=0, data=[64, 0]),
   midi.ControlChangeEvent(tick=173, channel=0, data=[64, 127]),
   midi.ControlChangeEvent(tick=176, channel=0, data=[64, 0]),
   midi.ControlChangeEvent(tick=156, channel=0, data=[64, 127]),
   midi.ControlChangeEvent(tick=201, channel=0, data=[64, 0]),
   midi.ControlChangeEvent(tick=504, channel=0, data=[64, 127]),
   midi.ControlChangeEvent(tick=354, channel=0, data=[64, 0]),
   midi.ControlChangeEvent(tick=43, channel=0, data=[64, 127]),
   midi.ControlChangeEvent(tick=176, channel=0, data=[64, 0]),
   midi.ControlChangeEvent(tick=147, channel=0, data=[64, 127]),
   midi.ControlChangeEvent(tick=94, channel=0, data=[64, 0]),
   midi.ControlChangeEvent(tick=286, channel=0, data=[64, 127]),
   midi.ControlChangeEvent(tick=91, channel=0, data=[64, 0]),
   midi.ControlChangeEvent(tick=239, channel=0, data=[64, 127]),
   midi.ControlChangeEvent(tick=353, channel=0, data=[64, 0]),
   midi.ControlChangeEvent(tick=39, channel=0, data=[64, 127]),
   midi.ControlChangeEvent(tick=303, channel=0, data=[64, 0]),
   midi.ControlChangeEvent(tick=60, channel=0, data=[64, 127]),
   midi.ControlChangeEvent(tick=332, channel=0, data=[64, 0]),
   midi.ControlChangeEvent(tick=353, channel=0, data=[64, 127]),
   midi.ControlChangeEvent(tick=353, channel=0, data=[64, 0]),
   midi.ControlChangeEvent(tick=39, channel=0, data=[64, 127]),
   midi.ControlChangeEvent(tick=311, channel=0, data=[64, 0]),
   midi.ControlChangeEvent(tick=52, channel=0, data=[64, 127]),
   midi.ControlChangeEvent(tick=318, channel=0, data=[64, 0]),
   midi.ControlChangeEvent(tick=39, channel=0, data=[64, 127]),
   midi.ControlChangeEvent(tick=328, channel=0, data=[64, 127]),
   midi.ControlChangeEvent(tick=353, channel=0, data=[64, 0]),
   midi.ControlChangeEvent(tick=39, channel=0, data=[64, 127]),
   midi.ControlChangeEvent(tick=311, channel=0, data=[64, 0]),
   midi.ControlChangeEvent(tick=52, channel=0, data=[64, 127]),
   midi.ControlChangeEvent(tick=318, channel=0, data=[64, 0]),
   midi.ControlChangeEvent(tick=39, channel=0, data=[64, 127]),
   midi.ControlChangeEvent(tick=303, channel=0, data=[64, 0]),
   midi.ControlChangeEvent(tick=763, channel=0, data=[64, 127]),
   midi.ControlChangeEvent(tick=336, channel=0, data=[64, 0]),
   midi.ControlChangeEvent(tick=45, channel=0, data=[64, 127]),
   midi.ControlChangeEvent(tick=313, channel=0, data=[64, 0]),
   midi.ControlChangeEvent(tick=50, channel=0, data=[64, 127]),
   midi.ControlChangeEvent(tick=312, channel=0, data=[64, 0]),
   midi.ControlChangeEvent(tick=45, channel=0, data=[64, 127]),
   midi.ControlChangeEvent(tick=296, channel=0, data=[64, 0]),
   midi.ControlChangeEvent(tick=56, channel=0, data=[64, 127]),
   midi.ControlChangeEvent(tick=664, channel=0, data=[64, 0]),
   midi.ControlChangeEvent(tick=56, channel=0, data=[64, 127]),
   midi.ControlChangeEvent(tick=664, channel=0, data=[64, 0]),
   midi.ControlChangeEvent(tick=56, channel=0, data=[64, 127]),
   midi.ControlChangeEvent(tick=664, channel=0, data=[64, 0]),
   midi.ControlChangeEvent(tick=20, channel=0, data=[64, 0]),
   midi.ControlChangeEvent(tick=743, channel=0, data=[64, 127]),
   midi.ControlChangeEvent(tick=336, channel=0, data=[64, 0]),
   midi.ControlChangeEvent(tick=45, channel=0, data=[64, 127]),
   midi.ControlChangeEvent(tick=313, channel=0, data=[64, 0]),
   midi.ControlChangeEvent(tick=50, channel=0, data=[64, 127]),
   midi.ControlChangeEvent(tick=312, channel=0, data=[64, 0]),
   midi.ControlChangeEvent(tick=45, channel=0, data=[64, 127]),
   midi.ControlChangeEvent(tick=313, channel=0, data=[64, 0]),
   midi.ControlChangeEvent(tick=50, channel=0, data=[64, 127]),
   midi.ControlChangeEvent(tick=283, channel=0, data=[64, 0]),
   midi.ControlChangeEvent(tick=434, channel=0, data=[64, 127]),
   midi.ControlChangeEvent(tick=190, channel=0, data=[64, 0]),
   midi.ControlChangeEvent(tick=166, channel=0, data=[64, 127]),
   midi.ControlChangeEvent(tick=194, channel=0, data=[64, 0]),
   midi.ControlChangeEvent(tick=170, channel=0, data=[64, 127]),
   midi.ControlChangeEvent(tick=190, channel=0, data=[64, 0]),
   midi.ControlChangeEvent(tick=166, channel=0, data=[64, 127]),
   midi.ControlChangeEvent(tick=194, channel=0, data=[64, 0]),
   midi.ControlChangeEvent(tick=170, channel=0, data=[64, 127]),
   midi.ControlChangeEvent(tick=190, channel=0, data=[64, 0]),
   midi.ControlChangeEvent(tick=166, channel=0, data=[64, 127]),
   midi.ControlChangeEvent(tick=194, channel=0, data=[64, 0]),
   midi.ControlChangeEvent(tick=170, channel=0, data=[64, 127]),
   midi.ControlChangeEvent(tick=190, channel=0, data=[64, 0]),
   midi.ControlChangeEvent(tick=166, channel=0, data=[64, 127]),
   midi.ControlChangeEvent(tick=194, channel=0, data=[64, 0]),
   midi.ControlChangeEvent(tick=138, channel=0, data=[64, 127]),
   midi.ControlChangeEvent(tick=331, channel=0, data=[64, 0]),
   midi.ControlChangeEvent(tick=62, channel=0, data=[64, 127]),
   midi.ControlChangeEvent(tick=318, channel=0, data=[64, 0]),
   midi.ControlChangeEvent(tick=51, channel=0, data=[64, 127]),
   midi.ControlChangeEvent(tick=289, channel=0, data=[64, 0]),
   midi.ControlChangeEvent(tick=66, channel=0, data=[64, 127]),
   midi.ControlChangeEvent(tick=314, channel=0, data=[64, 0]),
   midi.ControlChangeEvent(tick=51, channel=0, data=[64, 127]),
   midi.ControlChangeEvent(tick=289, channel=0, data=[64, 0]),
   midi.ControlChangeEvent(tick=66, channel=0, data=[64, 127]),
   midi.ControlChangeEvent(tick=291, channel=0, data=[64, 0]),
   midi.ControlChangeEvent(tick=3640, channel=0, data=[64, 127]),
   midi.ControlChangeEvent(tick=1834, channel=0, data=[64, 0]),
   midi.EndOfTrackEvent(tick=0, data=[])])])
midi.write_midifile("creationMidi.mid", pattern)