import midi
pattern=midi.Pattern(format=1, resolution=480, tracks=\
[midi.Track(\
[   midi.NoteOnEvent(tick=2400, channel=0, data=[61, 50]),
   midi.NoteOnEvent(tick=240, channel=0, data=[57, 40]),
   midi.NoteOnEvent(tick=216, channel=0, data=[61, 0]),
   midi.NoteOnEvent(tick=24, channel=0, data=[57, 0]),
   midi.NoteOnEvent(tick=0, channel=0, data=[61, 56]),
   midi.NoteOnEvent(tick=240, channel=0, data=[56, 37]),
   midi.NoteOnEvent(tick=240, channel=0, data=[56, 0]),
   midi.NoteOnEvent(tick=0, channel=0, data=[57, 42]),
   midi.NoteOnEvent(tick=240, channel=0, data=[57, 0]),
   midi.NoteOnEvent(tick=0, channel=0, data=[54, 34]),
   midi.NoteOnEvent(tick=240, channel=0, data=[54, 0]),
   midi.NoteOnEvent(tick=0, channel=0, data=[61, 0]),
   midi.NoteOnEvent(tick=0, channel=0, data=[66, 54]),
   midi.NoteOnEvent(tick=240, channel=0, data=[61, 39]),
   midi.NoteOnEvent(tick=216, channel=0, data=[66, 0]),
   midi.NoteOnEvent(tick=24, channel=0, data=[61, 0]),
   midi.NoteOnEvent(tick=0, channel=0, data=[66, 55]),
   midi.NoteOnEvent(tick=240, channel=0, data=[60, 45]),
   midi.NoteOnEvent(tick=240, channel=0, data=[60, 0]),
   midi.NoteOnEvent(tick=0, channel=0, data=[61, 55]),
   midi.NoteOnEvent(tick=240, channel=0, data=[61, 0]),
   midi.NoteOnEvent(tick=0, channel=0, data=[57, 46]),
   midi.NoteOnEvent(tick=240, channel=0, data=[57, 0]),
   midi.NoteOnEvent(tick=0, channel=0, data=[66, 0]),
   midi.NoteOnEvent(tick=0, channel=0, data=[69, 66]),
   midi.NoteOnEvent(tick=240, channel=0, data=[66, 55]),
   midi.NoteOnEvent(tick=240, channel=0, data=[66, 0]),
   midi.NoteOnEvent(tick=0, channel=0, data=[69, 0]),
   midi.NoteOnEvent(tick=0, channel=0, data=[74, 73]),
   midi.NoteOnEvent(tick=240, channel=0, data=[68, 56]),
   midi.NoteOnEvent(tick=240, channel=0, data=[68, 0]),
   midi.NoteOnEvent(tick=0, channel=0, data=[69, 61]),
   midi.NoteOnEvent(tick=240, channel=0, data=[69, 0]),
   midi.NoteOnEvent(tick=0, channel=0, data=[66, 56]),
   midi.NoteOnEvent(tick=240, channel=0, data=[66, 0]),
   midi.NoteOnEvent(tick=0, channel=0, data=[74, 0]),
   midi.NoteOnEvent(tick=0, channel=0, data=[73, 68]),
   midi.NoteOnEvent(tick=240, channel=0, data=[69, 49]),
   midi.NoteOnEvent(tick=240, channel=0, data=[69, 0]),
   midi.NoteOnEvent(tick=0, channel=0, data=[73, 0]),
   midi.NoteOnEvent(tick=0, channel=0, data=[72, 68]),
   midi.NoteOnEvent(tick=240, channel=0, data=[68, 50]),
   midi.NoteOnEvent(tick=240, channel=0, data=[68, 0]),
   midi.NoteOnEvent(tick=0, channel=0, data=[69, 55]),
   midi.NoteOnEvent(tick=240, channel=0, data=[69, 0]),
   midi.NoteOnEvent(tick=0, channel=0, data=[66, 45]),
   midi.NoteOnEvent(tick=230, channel=0, data=[72, 0]),
   midi.NoteOnEvent(tick=10, channel=0, data=[66, 0]),
   midi.NoteOnEvent(tick=0, channel=0, data=[72, 51]),
   midi.NoteOnEvent(tick=240, channel=0, data=[69, 33]),
   midi.NoteOnEvent(tick=240, channel=0, data=[69, 0]),
   midi.NoteOnEvent(tick=0, channel=0, data=[72, 0]),
   midi.NoteOnEvent(tick=0, channel=0, data=[73, 56]),
   midi.NoteOnEvent(tick=240, channel=0, data=[68, 43]),
   midi.NoteOnEvent(tick=240, channel=0, data=[68, 0]),
   midi.NoteOnEvent(tick=0, channel=0, data=[61, 46]),
   midi.NoteOnEvent(tick=240, channel=0, data=[61, 0]),
   midi.NoteOnEvent(tick=0, channel=0, data=[63, 42]),
   midi.NoteOnEvent(tick=240, channel=0, data=[63, 0]),
   midi.NoteOnEvent(tick=0, channel=0, data=[73, 0]),
   midi.NoteOnEvent(tick=0, channel=0, data=[65, 40]),
   midi.NoteOnEvent(tick=0, channel=0, data=[71, 50]),
   midi.NoteOnEvent(tick=240, channel=0, data=[65, 0]),
   midi.NoteOnEvent(tick=0, channel=0, data=[61, 38]),
   midi.NoteOnEvent(tick=170, channel=0, data=[71, 0]),
   midi.NoteOnEvent(tick=10, channel=0, data=[71, 43]),
   midi.NoteOnEvent(tick=60, channel=0, data=[71, 0]),
   midi.NoteOnEvent(tick=0, channel=0, data=[61, 0]),
   midi.NoteOnEvent(tick=0, channel=0, data=[66, 44]),
   midi.NoteOnEvent(tick=0, channel=0, data=[69, 55]),
   midi.NoteOnEvent(tick=240, channel=0, data=[69, 0]),
   midi.NoteOnEvent(tick=0, channel=0, data=[66, 0]),
   midi.NoteOnEvent(tick=0, channel=0, data=[61, 46]),
   midi.NoteOnEvent(tick=240, channel=0, data=[61, 0]),
   midi.NoteOnEvent(tick=0, channel=0, data=[65, 50]),
   midi.NoteOnEvent(tick=0, channel=0, data=[68, 63]),
   midi.NoteOnEvent(tick=240, channel=0, data=[68, 0]),
   midi.NoteOnEvent(tick=0, channel=0, data=[65, 0]),
   midi.NoteOnEvent(tick=0, channel=0, data=[61, 54]),
   midi.NoteOnEvent(tick=240, channel=0, data=[61, 0]),
   midi.NoteOnEvent(tick=0, channel=0, data=[66, 55]),
   midi.NoteOnEvent(tick=0, channel=0, data=[69, 69]),
   midi.NoteOnEvent(tick=240, channel=0, data=[69, 0]),
   midi.NoteOnEvent(tick=0, channel=0, data=[66, 0]),
   midi.NoteOnEvent(tick=0, channel=0, data=[61, 57]),
   midi.NoteOnEvent(tick=240, channel=0, data=[61, 0]),
   midi.NoteOnEvent(tick=0, channel=0, data=[66, 55]),
   midi.NoteOnEvent(tick=0, channel=0, data=[69, 69]),
   midi.NoteOnEvent(tick=0, channel=0, data=[73, 76]),
   midi.NoteOnEvent(tick=240, channel=0, data=[66, 0]),
   midi.NoteOnEvent(tick=0, channel=0, data=[62, 54]),
   midi.NoteOnEvent(tick=240, channel=0, data=[62, 0]),
   midi.NoteOnEvent(tick=0, channel=0, data=[73, 0]),
   midi.NoteOnEvent(tick=0, channel=0, data=[69, 0]),
   midi.NoteOnEvent(tick=0, channel=0, data=[68, 48]),
   midi.NoteOnEvent(tick=0, channel=0, data=[71, 61]),
   midi.NoteOnEvent(tick=240, channel=0, data=[68, 0]),
   midi.NoteOnEvent(tick=0, channel=0, data=[62, 49]),
   midi.NoteOnEvent(tick=240, channel=0, data=[62, 0]),
   midi.NoteOnEvent(tick=0, channel=0, data=[71, 0]),
   midi.NoteOnEvent(tick=0, channel=0, data=[66, 40]),
   midi.NoteOnEvent(tick=0, channel=0, data=[69, 50]),
   midi.NoteOnEvent(tick=240, channel=0, data=[69, 0]),
   midi.NoteOnEvent(tick=0, channel=0, data=[66, 0]),
   midi.NoteOnEvent(tick=0, channel=0, data=[62, 41]),
   midi.NoteOnEvent(tick=240, channel=0, data=[62, 0]),
   midi.NoteOnEvent(tick=0, channel=0, data=[66, 44]),
   midi.NoteOnEvent(tick=0, channel=0, data=[69, 56]),
   midi.NoteOnEvent(tick=240, channel=0, data=[66, 0]),
   midi.NoteOnEvent(tick=0, channel=0, data=[61, 45]),
   midi.NoteOnEvent(tick=240, channel=0, data=[61, 0]),
   midi.NoteOnEvent(tick=0, channel=0, data=[69, 0]),
   midi.NoteOnEvent(tick=0, channel=0, data=[65, 40]),
   midi.NoteOnEvent(tick=0, channel=0, data=[68, 50]),
   midi.NoteOnEvent(tick=240, channel=0, data=[65, 0]),
   midi.NoteOnEvent(tick=0, channel=0, data=[59, 43]),
   midi.NoteOnEvent(tick=240, channel=0, data=[59, 0]),
   midi.NoteOnEvent(tick=0, channel=0, data=[68, 0]),
   midi.NoteOnEvent(tick=0, channel=0, data=[61, 50]),
   midi.NoteOnEvent(tick=240, channel=0, data=[57, 40]),
   midi.NoteOnEvent(tick=216, channel=0, data=[61, 0]),
   midi.NoteOnEvent(tick=24, channel=0, data=[57, 0]),
   midi.NoteOnEvent(tick=0, channel=0, data=[61, 56]),
   midi.NoteOnEvent(tick=240, channel=0, data=[56, 37]),
   midi.NoteOnEvent(tick=240, channel=0, data=[56, 0]),
   midi.NoteOnEvent(tick=0, channel=0, data=[57, 42]),
   midi.NoteOnEvent(tick=240, channel=0, data=[57, 0]),
   midi.NoteOnEvent(tick=0, channel=0, data=[54, 34]),
   midi.NoteOnEvent(tick=240, channel=0, data=[54, 0]),
   midi.NoteOnEvent(tick=0, channel=0, data=[61, 0]),
   midi.NoteOnEvent(tick=0, channel=0, data=[66, 54]),
   midi.NoteOnEvent(tick=240, channel=0, data=[61, 39]),
   midi.NoteOnEvent(tick=216, channel=0, data=[66, 0]),
   midi.NoteOnEvent(tick=24, channel=0, data=[61, 0]),
   midi.NoteOnEvent(tick=0, channel=0, data=[66, 55]),
   midi.NoteOnEvent(tick=240, channel=0, data=[60, 45]),
   midi.NoteOnEvent(tick=240, channel=0, data=[60, 0]),
   midi.NoteOnEvent(tick=0, channel=0, data=[61, 55]),
   midi.NoteOnEvent(tick=240, channel=0, data=[61, 0]),
   midi.NoteOnEvent(tick=0, channel=0, data=[57, 46]),
   midi.NoteOnEvent(tick=240, channel=0, data=[57, 0]),
   midi.NoteOnEvent(tick=0, channel=0, data=[66, 0]),
   midi.NoteOnEvent(tick=0, channel=0, data=[69, 66]),
   midi.NoteOnEvent(tick=240, channel=0, data=[66, 55]),
   midi.NoteOnEvent(tick=240, channel=0, data=[66, 0]),
   midi.NoteOnEvent(tick=0, channel=0, data=[69, 0]),
   midi.NoteOnEvent(tick=0, channel=0, data=[74, 73]),
   midi.NoteOnEvent(tick=240, channel=0, data=[68, 56]),
   midi.NoteOnEvent(tick=240, channel=0, data=[68, 0]),
   midi.NoteOnEvent(tick=0, channel=0, data=[69, 61]),
   midi.NoteOnEvent(tick=240, channel=0, data=[69, 0]),
   midi.NoteOnEvent(tick=0, channel=0, data=[66, 56]),
   midi.NoteOnEvent(tick=240, channel=0, data=[66, 0]),
   midi.NoteOnEvent(tick=0, channel=0, data=[74, 0]),
   midi.NoteOnEvent(tick=0, channel=0, data=[73, 68]),
   midi.NoteOnEvent(tick=240, channel=0, data=[69, 49]),
   midi.NoteOnEvent(tick=240, channel=0, data=[69, 0]),
   midi.NoteOnEvent(tick=0, channel=0, data=[73, 0]),
   midi.NoteOnEvent(tick=0, channel=0, data=[72, 68]),
   midi.NoteOnEvent(tick=240, channel=0, data=[68, 50]),
   midi.NoteOnEvent(tick=240, channel=0, data=[68, 0]),
   midi.NoteOnEvent(tick=0, channel=0, data=[69, 55]),
   midi.NoteOnEvent(tick=240, channel=0, data=[69, 0]),
   midi.NoteOnEvent(tick=0, channel=0, data=[66, 45]),
   midi.NoteOnEvent(tick=230, channel=0, data=[72, 0]),
   midi.NoteOnEvent(tick=10, channel=0, data=[66, 0]),
   midi.NoteOnEvent(tick=0, channel=0, data=[72, 51]),
   midi.NoteOnEvent(tick=240, channel=0, data=[69, 33]),
   midi.NoteOnEvent(tick=240, channel=0, data=[69, 0]),
   midi.NoteOnEvent(tick=0, channel=0, data=[72, 0]),
   midi.NoteOnEvent(tick=0, channel=0, data=[73, 56]),
   midi.NoteOnEvent(tick=240, channel=0, data=[68, 43]),
   midi.NoteOnEvent(tick=240, channel=0, data=[68, 0]),
   midi.NoteOnEvent(tick=0, channel=0, data=[61, 46]),
   midi.NoteOnEvent(tick=240, channel=0, data=[61, 0]),
   midi.NoteOnEvent(tick=0, channel=0, data=[62, 42]),
   midi.NoteOnEvent(tick=240, channel=0, data=[62, 0]),
   midi.NoteOnEvent(tick=0, channel=0, data=[73, 0]),
   midi.NoteOnEvent(tick=0, channel=0, data=[64, 40]),
   midi.NoteOnEvent(tick=0, channel=0, data=[70, 50]),
   midi.NoteOnEvent(tick=240, channel=0, data=[70, 0]),
   midi.NoteOnEvent(tick=0, channel=0, data=[64, 0]),
   midi.NoteOnEvent(tick=0, channel=0, data=[61, 38]),
   midi.NoteOnEvent(tick=240, channel=0, data=[61, 0]),
   midi.NoteOnEvent(tick=0, channel=0, data=[62, 46]),
   midi.NoteOnEvent(tick=0, channel=0, data=[71, 56]),
   midi.NoteOnEvent(tick=240, channel=0, data=[62, 0]),
   midi.NoteOnEvent(tick=0, channel=0, data=[66, 43]),
   midi.NoteOnEvent(tick=240, channel=0, data=[66, 0]),
   midi.NoteOnEvent(tick=0, channel=0, data=[71, 0]),
   midi.NoteOnEvent(tick=0, channel=0, data=[64, 46]),
   midi.NoteOnEvent(tick=240, channel=0, data=[64, 0]),
   midi.NoteOnEvent(tick=0, channel=0, data=[62, 42]),
   midi.NoteOnEvent(tick=240, channel=0, data=[62, 0]),
   midi.NoteOnEvent(tick=0, channel=0, data=[61, 40]),
   midi.NoteOnEvent(tick=0, channel=0, data=[70, 50]),
   midi.NoteOnEvent(tick=240, channel=0, data=[61, 0]),
   midi.NoteOnEvent(tick=0, channel=0, data=[64, 38]),
   midi.NoteOnEvent(tick=240, channel=0, data=[64, 0]),
   midi.NoteOnEvent(tick=0, channel=0, data=[70, 0]),
   midi.NoteOnEvent(tick=0, channel=0, data=[62, 46]),
   midi.NoteOnEvent(tick=0, channel=0, data=[71, 56]),
   midi.NoteOnEvent(tick=240, channel=0, data=[62, 0]),
   midi.NoteOnEvent(tick=0, channel=0, data=[66, 43]),
   midi.NoteOnEvent(tick=240, channel=0, data=[66, 0]),
   midi.NoteOnEvent(tick=0, channel=0, data=[71, 0]),
   midi.NoteOnEvent(tick=0, channel=0, data=[69, 50]),
   midi.NoteOnEvent(tick=0, channel=0, data=[61, 46]),
   midi.NoteOnEvent(tick=240, channel=0, data=[61, 0]),
   midi.NoteOnEvent(tick=0, channel=0, data=[69, 0]),
   midi.NoteOnEvent(tick=0, channel=0, data=[64, 42]),
   midi.NoteOnEvent(tick=240, channel=0, data=[64, 0]),
   midi.NoteOnEvent(tick=0, channel=0, data=[59, 40]),
   midi.NoteOnEvent(tick=0, channel=0, data=[68, 50]),
   midi.NoteOnEvent(tick=240, channel=0, data=[68, 0]),
   midi.NoteOnEvent(tick=0, channel=0, data=[59, 0]),
   midi.NoteOnEvent(tick=0, channel=0, data=[62, 38]),
   midi.NoteOnEvent(tick=240, channel=0, data=[62, 0]),
   midi.NoteOnEvent(tick=0, channel=0, data=[57, 46]),
   midi.NoteOnEvent(tick=0, channel=0, data=[66, 56]),
   midi.NoteOnEvent(tick=240, channel=0, data=[57, 0]),
   midi.NoteOnEvent(tick=0, channel=0, data=[61, 43]),
   midi.NoteOnEvent(tick=240, channel=0, data=[61, 0]),
   midi.NoteOnEvent(tick=0, channel=0, data=[66, 0]),
   midi.NoteOnEvent(tick=0, channel=0, data=[65, 56]),
   midi.NoteOnEvent(tick=0, channel=0, data=[56, 46]),
   midi.NoteOnEvent(tick=240, channel=0, data=[56, 0]),
   midi.NoteOnEvent(tick=0, channel=0, data=[59, 42]),
   midi.NoteOnEvent(tick=240, channel=0, data=[59, 0]),
   midi.NoteOnEvent(tick=0, channel=0, data=[65, 0]),
   midi.NoteOnEvent(tick=0, channel=0, data=[61, 40]),
   midi.NoteOnEvent(tick=0, channel=0, data=[70, 50]),
   midi.NoteOnEvent(tick=240, channel=0, data=[61, 0]),
   midi.NoteOnEvent(tick=0, channel=0, data=[64, 38]),
   midi.NoteOnEvent(tick=240, channel=0, data=[64, 0]),
   midi.NoteOnEvent(tick=0, channel=0, data=[70, 0]),
   midi.NoteOnEvent(tick=0, channel=0, data=[62, 43]),
   midi.NoteOnEvent(tick=0, channel=0, data=[71, 56]),
   midi.NoteOnEvent(tick=240, channel=0, data=[62, 0]),
   midi.NoteOnEvent(tick=0, channel=0, data=[66, 43]),
   midi.NoteOnEvent(tick=240, channel=0, data=[66, 0]),
   midi.NoteOnEvent(tick=0, channel=0, data=[71, 0]),
   midi.NoteOnEvent(tick=0, channel=0, data=[64, 46]),
   midi.NoteOnEvent(tick=240, channel=0, data=[64, 0]),
   midi.NoteOnEvent(tick=0, channel=0, data=[62, 42]),
   midi.NoteOnEvent(tick=240, channel=0, data=[62, 0]),
   midi.NoteOnEvent(tick=0, channel=0, data=[61, 40]),
   midi.NoteOnEvent(tick=0, channel=0, data=[70, 50]),
   midi.NoteOnEvent(tick=240, channel=0, data=[61, 0]),
   midi.NoteOnEvent(tick=0, channel=0, data=[64, 38]),
   midi.NoteOnEvent(tick=240, channel=0, data=[64, 0]),
   midi.NoteOnEvent(tick=0, channel=0, data=[70, 0]),
   midi.NoteOnEvent(tick=0, channel=0, data=[62, 46]),
   midi.NoteOnEvent(tick=0, channel=0, data=[71, 56]),
   midi.NoteOnEvent(tick=240, channel=0, data=[62, 0]),
   midi.NoteOnEvent(tick=0, channel=0, data=[66, 43]),
   midi.NoteOnEvent(tick=240, channel=0, data=[66, 0]),
   midi.NoteOnEvent(tick=0, channel=0, data=[71, 0]),
   midi.NoteOnEvent(tick=0, channel=0, data=[64, 46]),
   midi.NoteOnEvent(tick=240, channel=0, data=[64, 0]),
   midi.NoteOnEvent(tick=0, channel=0, data=[62, 42]),
   midi.NoteOnEvent(tick=240, channel=0, data=[62, 0]),
   midi.NoteOnEvent(tick=0, channel=0, data=[61, 40]),
   midi.NoteOnEvent(tick=0, channel=0, data=[70, 50]),
   midi.NoteOnEvent(tick=240, channel=0, data=[61, 0]),
   midi.NoteOnEvent(tick=0, channel=0, data=[64, 38]),
   midi.NoteOnEvent(tick=240, channel=0, data=[64, 0]),
   midi.NoteOnEvent(tick=0, channel=0, data=[70, 0]),
   midi.NoteOnEvent(tick=0, channel=0, data=[62, 46]),
   midi.NoteOnEvent(tick=0, channel=0, data=[71, 56]),
   midi.NoteOnEvent(tick=240, channel=0, data=[62, 0]),
   midi.NoteOnEvent(tick=0, channel=0, data=[66, 43]),
   midi.NoteOnEvent(tick=240, channel=0, data=[66, 0]),
   midi.NoteOnEvent(tick=0, channel=0, data=[71, 0]),
   midi.NoteOnEvent(tick=0, channel=0, data=[69, 50]),
   midi.NoteOnEvent(tick=0, channel=0, data=[61, 46]),
   midi.NoteOnEvent(tick=240, channel=0, data=[61, 0]),
   midi.NoteOnEvent(tick=0, channel=0, data=[69, 0]),
   midi.NoteOnEvent(tick=0, channel=0, data=[64, 42]),
   midi.NoteOnEvent(tick=240, channel=0, data=[64, 0]),
   midi.NoteOnEvent(tick=0, channel=0, data=[59, 40]),
   midi.NoteOnEvent(tick=0, channel=0, data=[68, 50]),
   midi.NoteOnEvent(tick=240, channel=0, data=[68, 0]),
   midi.NoteOnEvent(tick=0, channel=0, data=[59, 0]),
   midi.NoteOnEvent(tick=0, channel=0, data=[62, 38]),
   midi.NoteOnEvent(tick=240, channel=0, data=[62, 0]),
   midi.NoteOnEvent(tick=0, channel=0, data=[57, 46]),
   midi.NoteOnEvent(tick=0, channel=0, data=[66, 56]),
   midi.NoteOnEvent(tick=240, channel=0, data=[57, 0]),
   midi.NoteOnEvent(tick=0, channel=0, data=[61, 43]),
   midi.NoteOnEvent(tick=240, channel=0, data=[61, 0]),
   midi.NoteOnEvent(tick=0, channel=0, data=[66, 0]),
   midi.NoteOnEvent(tick=0, channel=0, data=[65, 56]),
   midi.NoteOnEvent(tick=0, channel=0, data=[56, 46]),
   midi.NoteOnEvent(tick=240, channel=0, data=[56, 0]),
   midi.NoteOnEvent(tick=0, channel=0, data=[59, 42]),
   midi.NoteOnEvent(tick=240, channel=0, data=[59, 0]),
   midi.NoteOnEvent(tick=0, channel=0, data=[65, 0]),
   midi.NoteOnEvent(tick=0, channel=0, data=[61, 40]),
   midi.NoteOnEvent(tick=0, channel=0, data=[70, 50]),
   midi.NoteOnEvent(tick=240, channel=0, data=[61, 0]),
   midi.NoteOnEvent(tick=0, channel=0, data=[64, 38]),
   midi.NoteOnEvent(tick=240, channel=0, data=[64, 0]),
   midi.NoteOnEvent(tick=0, channel=0, data=[70, 0]),
   midi.NoteOnEvent(tick=0, channel=0, data=[62, 43]),
   midi.NoteOnEvent(tick=0, channel=0, data=[71, 56]),
   midi.NoteOnEvent(tick=240, channel=0, data=[62, 0]),
   midi.NoteOnEvent(tick=0, channel=0, data=[66, 43]),
   midi.NoteOnEvent(tick=240, channel=0, data=[66, 0]),
   midi.NoteOnEvent(tick=0, channel=0, data=[71, 0]),
   midi.NoteOnEvent(tick=0, channel=0, data=[64, 46]),
   midi.NoteOnEvent(tick=240, channel=0, data=[64, 0]),
   midi.NoteOnEvent(tick=0, channel=0, data=[62, 42]),
   midi.NoteOnEvent(tick=240, channel=0, data=[62, 0]),
   midi.NoteOnEvent(tick=0, channel=0, data=[70, 40]),
   midi.NoteOnEvent(tick=0, channel=0, data=[73, 50]),
   midi.NoteOnEvent(tick=240, channel=0, data=[70, 0]),
   midi.NoteOnEvent(tick=0, channel=0, data=[66, 38]),
   midi.NoteOnEvent(tick=240, channel=0, data=[66, 0]),
   midi.NoteOnEvent(tick=0, channel=0, data=[73, 0]),
   midi.NoteOnEvent(tick=0, channel=0, data=[71, 45]),
   midi.NoteOnEvent(tick=0, channel=0, data=[74, 56]),
   midi.NoteOnEvent(tick=240, channel=0, data=[71, 0]),
   midi.NoteOnEvent(tick=0, channel=0, data=[66, 43]),
   midi.NoteOnEvent(tick=240, channel=0, data=[66, 0]),
   midi.NoteOnEvent(tick=0, channel=0, data=[74, 0]),
   midi.NoteOnEvent(tick=0, channel=0, data=[72, 48]),
   midi.NoteOnEvent(tick=0, channel=0, data=[75, 61]),
   midi.NoteOnEvent(tick=240, channel=0, data=[72, 0]),
   midi.NoteOnEvent(tick=0, channel=0, data=[66, 48]),
   midi.NoteOnEvent(tick=240, channel=0, data=[66, 0]),
   midi.NoteOnEvent(tick=0, channel=0, data=[75, 0]),
   midi.NoteOnEvent(tick=0, channel=0, data=[71, 53]),
   midi.NoteOnEvent(tick=0, channel=0, data=[76, 66]),
   midi.NoteOnEvent(tick=240, channel=0, data=[71, 0]),
   midi.NoteOnEvent(tick=0, channel=0, data=[68, 52]),
   midi.NoteOnEvent(tick=240, channel=0, data=[68, 0]),
   midi.NoteOnEvent(tick=0, channel=0, data=[76, 0]),
   midi.NoteOnEvent(tick=0, channel=0, data=[75, 58]),
   midi.NoteOnEvent(tick=0, channel=0, data=[78, 72]),
   midi.NoteOnEvent(tick=240, channel=0, data=[75, 0]),
   midi.NoteOnEvent(tick=0, channel=0, data=[69, 57]),
   midi.NoteOnEvent(tick=240, channel=0, data=[69, 0]),
   midi.NoteOnEvent(tick=0, channel=0, data=[78, 0]),
   midi.NoteOnEvent(tick=0, channel=0, data=[76, 62]),
   midi.NoteOnEvent(tick=0, channel=0, data=[79, 78]),
   midi.NoteOnEvent(tick=240, channel=0, data=[76, 0]),
   midi.NoteOnEvent(tick=0, channel=0, data=[71, 62]),
   midi.NoteOnEvent(tick=240, channel=0, data=[71, 0]),
   midi.NoteOnEvent(tick=0, channel=0, data=[79, 0]),
   midi.NoteOnEvent(tick=0, channel=0, data=[76, 67]),
   midi.NoteOnEvent(tick=0, channel=0, data=[80, 84]),
   midi.NoteOnEvent(tick=240, channel=0, data=[76, 0]),
   midi.NoteOnEvent(tick=0, channel=0, data=[71, 66]),
   midi.NoteOnEvent(tick=240, channel=0, data=[71, 0]),
   midi.NoteOnEvent(tick=0, channel=0, data=[80, 0]),
   midi.NoteOnEvent(tick=0, channel=0, data=[76, 73]),
   midi.NoteOnEvent(tick=0, channel=0, data=[81, 91]),
   midi.NoteOnEvent(tick=240, channel=0, data=[76, 0]),
   midi.NoteOnEvent(tick=0, channel=0, data=[73, 70]),
   midi.NoteOnEvent(tick=240, channel=0, data=[73, 0]),
   midi.NoteOnEvent(tick=0, channel=0, data=[81, 0]),
   midi.NoteOnEvent(tick=0, channel=0, data=[76, 75]),
   midi.NoteOnEvent(tick=0, channel=0, data=[85, 93]),
   midi.NoteOnEvent(tick=240, channel=0, data=[76, 0]),
   midi.NoteOnEvent(tick=0, channel=0, data=[73, 71]),
   midi.NoteOnEvent(tick=240, channel=0, data=[73, 0]),
   midi.NoteOnEvent(tick=0, channel=0, data=[85, 0]),
   midi.NoteOnEvent(tick=0, channel=0, data=[76, 75]),
   midi.NoteOnEvent(tick=0, channel=0, data=[83, 93]),
   midi.NoteOnEvent(tick=240, channel=0, data=[76, 0]),
   midi.NoteOnEvent(tick=0, channel=0, data=[73, 71]),
   midi.NoteOnEvent(tick=210, channel=0, data=[83, 0]),
   midi.NoteOnEvent(tick=30, channel=0, data=[73, 0]),
   midi.NoteOnEvent(tick=0, channel=0, data=[76, 75]),
   midi.NoteOnEvent(tick=0, channel=0, data=[83, 93]),
   midi.NoteOnEvent(tick=240, channel=0, data=[76, 0]),
   midi.NoteOnEvent(tick=0, channel=0, data=[73, 71]),
   midi.NoteOnEvent(tick=240, channel=0, data=[73, 0]),
   midi.NoteOnEvent(tick=0, channel=0, data=[83, 0]),
   midi.NoteOnEvent(tick=0, channel=0, data=[76, 75]),
   midi.NoteOnEvent(tick=0, channel=0, data=[82, 93]),
   midi.NoteOnEvent(tick=240, channel=0, data=[76, 0]),
   midi.NoteOnEvent(tick=0, channel=0, data=[73, 71]),
   midi.NoteOnEvent(tick=240, channel=0, data=[73, 0]),
   midi.NoteOnEvent(tick=0, channel=0, data=[82, 0]),
   midi.NoteOnEvent(tick=0, channel=0, data=[74, 75]),
   midi.NoteOnEvent(tick=0, channel=0, data=[79, 93]),
   midi.NoteOnEvent(tick=240, channel=0, data=[74, 0]),
   midi.NoteOnEvent(tick=0, channel=0, data=[71, 63]),
   midi.NoteOnEvent(tick=210, channel=0, data=[79, 0]),
   midi.NoteOnEvent(tick=30, channel=0, data=[71, 0]),
   midi.NoteOnEvent(tick=0, channel=0, data=[73, 75]),
   midi.NoteOnEvent(tick=0, channel=0, data=[79, 93]),
   midi.NoteOnEvent(tick=240, channel=0, data=[73, 0]),
   midi.NoteOnEvent(tick=0, channel=0, data=[70, 68]),
   midi.NoteOnEvent(tick=240, channel=0, data=[70, 0]),
   midi.NoteOnEvent(tick=0, channel=0, data=[79, 0]),
   midi.NoteOnEvent(tick=0, channel=0, data=[73, 71]),
   midi.NoteOnEvent(tick=0, channel=0, data=[78, 90]),
   midi.NoteOnEvent(tick=240, channel=0, data=[73, 0]),
   midi.NoteOnEvent(tick=0, channel=0, data=[70, 65]),
   midi.NoteOnEvent(tick=240, channel=0, data=[70, 0]),
   midi.NoteOnEvent(tick=0, channel=0, data=[78, 0]),
   midi.NoteOnEvent(tick=0, channel=0, data=[73, 66]),
   midi.NoteOnEvent(tick=0, channel=0, data=[76, 83]),
   midi.NoteOnEvent(tick=240, channel=0, data=[73, 0]),
   midi.NoteOnEvent(tick=0, channel=0, data=[67, 60]),
   midi.NoteOnEvent(tick=210, channel=0, data=[76, 0]),
   midi.NoteOnEvent(tick=30, channel=0, data=[67, 0]),
   midi.NoteOnEvent(tick=0, channel=0, data=[73, 61]),
   midi.NoteOnEvent(tick=0, channel=0, data=[76, 77]),
   midi.NoteOnEvent(tick=240, channel=0, data=[73, 0]),
   midi.NoteOnEvent(tick=0, channel=0, data=[66, 56]),
   midi.NoteOnEvent(tick=240, channel=0, data=[66, 0]),
   midi.NoteOnEvent(tick=0, channel=0, data=[76, 0]),
   midi.NoteOnEvent(tick=0, channel=0, data=[72, 57]),
   midi.NoteOnEvent(tick=0, channel=0, data=[75, 71]),
   midi.NoteOnEvent(tick=240, channel=0, data=[72, 0]),
   midi.NoteOnEvent(tick=0, channel=0, data=[70, 51]),
   midi.NoteOnEvent(tick=240, channel=0, data=[70, 0]),
   midi.NoteOnEvent(tick=0, channel=0, data=[75, 0]),
   midi.NoteOnEvent(tick=0, channel=0, data=[71, 52]),
   midi.NoteOnEvent(tick=0, channel=0, data=[74, 66]),
   midi.NoteOnEvent(tick=240, channel=0, data=[71, 0]),
   midi.NoteOnEvent(tick=0, channel=0, data=[65, 47]),
   midi.NoteOnEvent(tick=210, channel=0, data=[74, 0]),
   midi.NoteOnEvent(tick=30, channel=0, data=[65, 0]),
   midi.NoteOnEvent(tick=0, channel=0, data=[71, 48]),
   midi.NoteOnEvent(tick=0, channel=0, data=[74, 60]),
   midi.NoteOnEvent(tick=240, channel=0, data=[71, 0]),
   midi.NoteOnEvent(tick=0, channel=0, data=[64, 44]),
   midi.NoteOnEvent(tick=240, channel=0, data=[64, 0]),
   midi.NoteOnEvent(tick=0, channel=0, data=[74, 0]),
   midi.NoteOnEvent(tick=0, channel=0, data=[69, 44]),
   midi.NoteOnEvent(tick=0, channel=0, data=[73, 55]),
   midi.NoteOnEvent(tick=240, channel=0, data=[69, 0]),
   midi.NoteOnEvent(tick=0, channel=0, data=[68, 39]),
   midi.NoteOnEvent(tick=240, channel=0, data=[68, 0]),
   midi.NoteOnEvent(tick=0, channel=0, data=[73, 0]),
   midi.NoteOnEvent(tick=0, channel=0, data=[69, 40]),
   midi.NoteOnEvent(tick=0, channel=0, data=[72, 50]),
   midi.NoteOnEvent(tick=240, channel=0, data=[69, 0]),
   midi.NoteOnEvent(tick=0, channel=0, data=[65, 38]),
   midi.NoteOnEvent(tick=240, channel=0, data=[65, 0]),
   midi.NoteOnEvent(tick=0, channel=0, data=[72, 0]),
   midi.NoteOnEvent(tick=0, channel=0, data=[68, 40]),
   midi.NoteOnEvent(tick=0, channel=0, data=[71, 50]),
   midi.NoteOnEvent(tick=240, channel=0, data=[68, 0]),
   midi.NoteOnEvent(tick=0, channel=0, data=[64, 38]),
   midi.NoteOnEvent(tick=240, channel=0, data=[64, 0]),
   midi.NoteOnEvent(tick=0, channel=0, data=[71, 0]),
   midi.NoteOnEvent(tick=0, channel=0, data=[74, 74]),
   midi.NoteOnEvent(tick=0, channel=0, data=[71, 62]),
   midi.NoteOnEvent(tick=240, channel=0, data=[71, 0]),
   midi.NoteOnEvent(tick=0, channel=0, data=[64, 56]),
   midi.NoteOnEvent(tick=240, channel=0, data=[64, 0]),
   midi.NoteOnEvent(tick=0, channel=0, data=[74, 0]),
   midi.NoteOnEvent(tick=0, channel=0, data=[72, 62]),
   midi.NoteOnEvent(tick=0, channel=0, data=[69, 62]),
   midi.NoteOnEvent(tick=240, channel=0, data=[69, 0]),
   midi.NoteOnEvent(tick=0, channel=0, data=[64, 38]),
   midi.NoteOnEvent(tick=240, channel=0, data=[64, 0]),
   midi.NoteOnEvent(tick=0, channel=0, data=[72, 0]),
   midi.NoteOnEvent(tick=0, channel=0, data=[68, 40]),
   midi.NoteOnEvent(tick=0, channel=0, data=[71, 50]),
   midi.NoteOnEvent(tick=240, channel=0, data=[68, 0]),
   midi.NoteOnEvent(tick=0, channel=0, data=[64, 38]),
   midi.NoteOnEvent(tick=240, channel=0, data=[64, 0]),
   midi.NoteOnEvent(tick=0, channel=0, data=[71, 0]),
   midi.NoteOnEvent(tick=0, channel=0, data=[76, 74]),
   midi.NoteOnEvent(tick=0, channel=0, data=[71, 62]),
   midi.NoteOnEvent(tick=240, channel=0, data=[71, 0]),
   midi.NoteOnEvent(tick=0, channel=0, data=[64, 56]),
   midi.NoteOnEvent(tick=240, channel=0, data=[64, 0]),
   midi.NoteOnEvent(tick=0, channel=0, data=[76, 0]),
   midi.NoteOnEvent(tick=0, channel=0, data=[72, 62]),
   midi.NoteOnEvent(tick=0, channel=0, data=[69, 62]),
   midi.NoteOnEvent(tick=240, channel=0, data=[69, 0]),
   midi.NoteOnEvent(tick=0, channel=0, data=[64, 38]),
   midi.NoteOnEvent(tick=240, channel=0, data=[64, 0]),
   midi.NoteOnEvent(tick=0, channel=0, data=[72, 0]),
   midi.NoteOnEvent(tick=0, channel=0, data=[68, 40]),
   midi.NoteOnEvent(tick=0, channel=0, data=[71, 50]),
   midi.NoteOnEvent(tick=240, channel=0, data=[68, 0]),
   midi.NoteOnEvent(tick=0, channel=0, data=[64, 38]),
   midi.NoteOnEvent(tick=240, channel=0, data=[64, 0]),
   midi.NoteOnEvent(tick=0, channel=0, data=[71, 0]),
   midi.NoteOnEvent(tick=0, channel=0, data=[74, 74]),
   midi.NoteOnEvent(tick=0, channel=0, data=[71, 62]),
   midi.NoteOnEvent(tick=240, channel=0, data=[71, 0]),
   midi.NoteOnEvent(tick=0, channel=0, data=[64, 56]),
   midi.NoteOnEvent(tick=240, channel=0, data=[64, 0]),
   midi.NoteOnEvent(tick=0, channel=0, data=[74, 0]),
   midi.NoteOnEvent(tick=0, channel=0, data=[72, 62]),
   midi.NoteOnEvent(tick=0, channel=0, data=[69, 62]),
   midi.NoteOnEvent(tick=240, channel=0, data=[69, 0]),
   midi.NoteOnEvent(tick=0, channel=0, data=[64, 38]),
   midi.NoteOnEvent(tick=240, channel=0, data=[64, 0]),
   midi.NoteOnEvent(tick=0, channel=0, data=[72, 0]),
   midi.NoteOnEvent(tick=0, channel=0, data=[68, 40]),
   midi.NoteOnEvent(tick=0, channel=0, data=[71, 50]),
   midi.NoteOnEvent(tick=240, channel=0, data=[68, 0]),
   midi.NoteOnEvent(tick=0, channel=0, data=[64, 38]),
   midi.NoteOnEvent(tick=240, channel=0, data=[64, 0]),
   midi.NoteOnEvent(tick=0, channel=0, data=[71, 0]),
   midi.NoteOnEvent(tick=0, channel=0, data=[76, 74]),
   midi.NoteOnEvent(tick=0, channel=0, data=[71, 62]),
   midi.NoteOnEvent(tick=240, channel=0, data=[71, 0]),
   midi.NoteOnEvent(tick=0, channel=0, data=[64, 56]),
   midi.NoteOnEvent(tick=240, channel=0, data=[64, 0]),
   midi.NoteOnEvent(tick=0, channel=0, data=[76, 0]),
   midi.NoteOnEvent(tick=0, channel=0, data=[72, 62]),
   midi.NoteOnEvent(tick=0, channel=0, data=[69, 62]),
   midi.NoteOnEvent(tick=240, channel=0, data=[69, 0]),
   midi.NoteOnEvent(tick=0, channel=0, data=[64, 38]),
   midi.NoteOnEvent(tick=240, channel=0, data=[64, 0]),
   midi.NoteOnEvent(tick=0, channel=0, data=[72, 0]),
   midi.NoteOnEvent(tick=0, channel=0, data=[68, 40]),
   midi.NoteOnEvent(tick=0, channel=0, data=[71, 50]),
   midi.NoteOnEvent(tick=240, channel=0, data=[71, 0]),
   midi.NoteOnEvent(tick=0, channel=0, data=[68, 0]),
   midi.NoteOnEvent(tick=0, channel=0, data=[64, 38]),
   midi.NoteOnEvent(tick=240, channel=0, data=[64, 0]),
   midi.NoteOnEvent(tick=0, channel=0, data=[63, 42]),
   midi.NoteOnEvent(tick=240, channel=0, data=[63, 0]),
   midi.NoteOnEvent(tick=0, channel=0, data=[64, 38]),
   midi.NoteOnEvent(tick=240, channel=0, data=[64, 0]),
   midi.NoteOnEvent(tick=0, channel=0, data=[68, 42]),
   midi.NoteOnEvent(tick=240, channel=0, data=[68, 0]),
   midi.NoteOnEvent(tick=0, channel=0, data=[64, 38]),
   midi.NoteOnEvent(tick=240, channel=0, data=[64, 0]),
   midi.NoteOnEvent(tick=0, channel=0, data=[71, 45]),
   midi.NoteOnEvent(tick=240, channel=0, data=[71, 0]),
   midi.NoteOnEvent(tick=0, channel=0, data=[68, 45]),
   midi.NoteOnEvent(tick=240, channel=0, data=[68, 0]),
   midi.NoteOnEvent(tick=0, channel=0, data=[67, 46]),
   midi.NoteOnEvent(tick=240, channel=0, data=[67, 0]),
   midi.NoteOnEvent(tick=0, channel=0, data=[68, 49]),
   midi.NoteOnEvent(tick=240, channel=0, data=[68, 0]),
   midi.NoteOnEvent(tick=0, channel=0, data=[71, 50]),
   midi.NoteOnEvent(tick=240, channel=0, data=[71, 0]),
   midi.NoteOnEvent(tick=0, channel=0, data=[68, 52]),
   midi.NoteOnEvent(tick=240, channel=0, data=[68, 0]),
   midi.NoteOnEvent(tick=0, channel=0, data=[74, 54]),
   midi.NoteOnEvent(tick=240, channel=0, data=[74, 0]),
   midi.NoteOnEvent(tick=0, channel=0, data=[71, 54]),
   midi.NoteOnEvent(tick=240, channel=0, data=[71, 0]),
   midi.NoteOnEvent(tick=0, channel=0, data=[77, 55]),
   midi.NoteOnEvent(tick=240, channel=0, data=[77, 0]),
   midi.NoteOnEvent(tick=0, channel=0, data=[74, 56]),
   midi.NoteOnEvent(tick=240, channel=0, data=[74, 0]),
   midi.NoteOnEvent(tick=0, channel=0, data=[80, 59]),
   midi.NoteOnEvent(tick=240, channel=0, data=[80, 0]),
   midi.NoteOnEvent(tick=0, channel=0, data=[77, 63]),
   midi.NoteOnEvent(tick=240, channel=0, data=[77, 0]),
   midi.NoteOnEvent(tick=0, channel=0, data=[83, 70]),
   midi.NoteOnEvent(tick=240, channel=0, data=[83, 0]),
   midi.NoteOnEvent(tick=0, channel=0, data=[80, 62]),
   midi.NoteOnEvent(tick=240, channel=0, data=[80, 0]),
   midi.NoteOnEvent(tick=0, channel=0, data=[86, 70]),
   midi.NoteOnEvent(tick=240, channel=0, data=[86, 0]),
   midi.NoteOnEvent(tick=0, channel=0, data=[83, 59]),
   midi.NoteOnEvent(tick=240, channel=0, data=[83, 0]),
   midi.NoteOnEvent(tick=0, channel=0, data=[81, 65]),
   midi.NoteOnEvent(tick=240, channel=0, data=[81, 0]),
   midi.NoteOnEvent(tick=0, channel=0, data=[80, 61]),
   midi.NoteOnEvent(tick=240, channel=0, data=[80, 0]),
   midi.NoteOnEvent(tick=0, channel=0, data=[88, 69]),
   midi.NoteOnEvent(tick=240, channel=0, data=[88, 0]),
   midi.NoteOnEvent(tick=0, channel=0, data=[86, 63]),
   midi.NoteOnEvent(tick=240, channel=0, data=[86, 0]),
   midi.NoteOnEvent(tick=0, channel=0, data=[85, 59]),
   midi.NoteOnEvent(tick=240, channel=0, data=[85, 0]),
   midi.NoteOnEvent(tick=0, channel=0, data=[83, 58]),
   midi.NoteOnEvent(tick=240, channel=0, data=[83, 0]),
   midi.NoteOnEvent(tick=0, channel=0, data=[81, 56]),
   midi.NoteOnEvent(tick=240, channel=0, data=[81, 0]),
   midi.NoteOnEvent(tick=0, channel=0, data=[80, 49]),
   midi.NoteOnEvent(tick=240, channel=0, data=[80, 0]),
   midi.NoteOnEvent(tick=0, channel=0, data=[81, 55]),
   midi.NoteOnEvent(tick=240, channel=0, data=[81, 0]),
   midi.NoteOnEvent(tick=0, channel=0, data=[78, 53]),
   midi.NoteOnEvent(tick=240, channel=0, data=[78, 0]),
   midi.NoteOnEvent(tick=0, channel=0, data=[75, 51]),
   midi.NoteOnEvent(tick=240, channel=0, data=[75, 0]),
   midi.NoteOnEvent(tick=0, channel=0, data=[71, 51]),
   midi.NoteOnEvent(tick=240, channel=0, data=[71, 0]),
   midi.NoteOnEvent(tick=0, channel=0, data=[69, 48]),
   midi.NoteOnEvent(tick=240, channel=0, data=[69, 0]),
   midi.NoteOnEvent(tick=0, channel=0, data=[66, 46]),
   midi.NoteOnEvent(tick=240, channel=0, data=[66, 0]),
   midi.NoteOnEvent(tick=0, channel=0, data=[74, 61]),
   midi.NoteOnEvent(tick=0, channel=0, data=[68, 61]),
   midi.NoteOnEvent(tick=240, channel=0, data=[68, 0]),
   midi.NoteOnEvent(tick=0, channel=0, data=[74, 0]),
   midi.NoteOnEvent(tick=0, channel=0, data=[71, 51]),
   midi.NoteOnEvent(tick=240, channel=0, data=[71, 0]),
   midi.NoteOnEvent(tick=0, channel=0, data=[68, 48]),
   midi.NoteOnEvent(tick=240, channel=0, data=[68, 0]),
   midi.NoteOnEvent(tick=0, channel=0, data=[64, 47]),
   midi.NoteOnEvent(tick=240, channel=0, data=[64, 0]),
   midi.NoteOnEvent(tick=0, channel=0, data=[62, 46]),
   midi.NoteOnEvent(tick=240, channel=0, data=[62, 0]),
   midi.NoteOnEvent(tick=0, channel=0, data=[59, 43]),
   midi.NoteOnEvent(tick=240, channel=0, data=[59, 0]),
   midi.NoteOnEvent(tick=0, channel=0, data=[67, 49]),
   midi.NoteOnEvent(tick=240, channel=0, data=[67, 0]),
   midi.NoteOnEvent(tick=0, channel=0, data=[64, 42]),
   midi.NoteOnEvent(tick=240, channel=0, data=[64, 0]),
   midi.NoteOnEvent(tick=0, channel=0, data=[61, 45]),
   midi.NoteOnEvent(tick=240, channel=0, data=[61, 0]),
   midi.NoteOnEvent(tick=0, channel=0, data=[57, 46]),
   midi.NoteOnEvent(tick=240, channel=0, data=[57, 0]),
   midi.NoteOnEvent(tick=0, channel=0, data=[56, 48]),
   midi.NoteOnEvent(tick=240, channel=0, data=[56, 0]),
   midi.NoteOnEvent(tick=0, channel=0, data=[55, 52]),
   midi.NoteOnEvent(tick=240, channel=0, data=[55, 0]),
   midi.NoteOnEvent(tick=0, channel=0, data=[54, 54]),
   midi.NoteOnEvent(tick=240, channel=0, data=[54, 0]),
   midi.NoteOnEvent(tick=0, channel=0, data=[58, 38]),
   midi.NoteOnEvent(tick=240, channel=0, data=[58, 0]),
   midi.NoteOnEvent(tick=0, channel=0, data=[59, 45]),
   midi.NoteOnEvent(tick=240, channel=0, data=[59, 0]),
   midi.NoteOnEvent(tick=0, channel=0, data=[54, 38]),
   midi.NoteOnEvent(tick=240, channel=0, data=[54, 0]),
   midi.NoteOnEvent(tick=0, channel=0, data=[61, 43]),
   midi.NoteOnEvent(tick=240, channel=0, data=[61, 0]),
   midi.NoteOnEvent(tick=0, channel=0, data=[54, 38]),
   midi.NoteOnEvent(tick=240, channel=0, data=[54, 0]),
   midi.NoteOnEvent(tick=0, channel=0, data=[62, 50]),
   midi.NoteOnEvent(tick=240, channel=0, data=[62, 0]),
   midi.NoteOnEvent(tick=0, channel=0, data=[56, 38]),
   midi.NoteOnEvent(tick=240, channel=0, data=[56, 0]),
   midi.NoteOnEvent(tick=0, channel=0, data=[52, 43]),
   midi.NoteOnEvent(tick=240, channel=0, data=[52, 0]),
   midi.NoteOnEvent(tick=0, channel=0, data=[56, 38]),
   midi.NoteOnEvent(tick=240, channel=0, data=[56, 0]),
   midi.NoteOnEvent(tick=0, channel=0, data=[50, 45]),
   midi.NoteOnEvent(tick=240, channel=0, data=[50, 0]),
   midi.NoteOnEvent(tick=0, channel=0, data=[56, 37]),
   midi.NoteOnEvent(tick=240, channel=0, data=[56, 0]),
   midi.NoteOnEvent(tick=0, channel=0, data=[49, 45]),
   midi.NoteOnEvent(tick=240, channel=0, data=[49, 0]),
   midi.NoteOnEvent(tick=0, channel=0, data=[52, 33]),
   midi.NoteOnEvent(tick=240, channel=0, data=[52, 0]),
   midi.NoteOnEvent(tick=0, channel=0, data=[57, 33]),
   midi.NoteOnEvent(tick=240, channel=0, data=[57, 0]),
   midi.NoteOnEvent(tick=0, channel=0, data=[59, 33]),
   midi.NoteOnEvent(tick=240, channel=0, data=[59, 0]),
   midi.NoteOnEvent(tick=0, channel=0, data=[61, 33]),
   midi.NoteOnEvent(tick=240, channel=0, data=[61, 0]),
   midi.NoteOnEvent(tick=0, channel=0, data=[64, 33]),
   midi.NoteOnEvent(tick=240, channel=0, data=[64, 0]),
   midi.NoteOnEvent(tick=0, channel=0, data=[61, 36]),
   midi.NoteOnEvent(tick=240, channel=0, data=[61, 0]),
   midi.NoteOnEvent(tick=0, channel=0, data=[59, 31]),
   midi.NoteOnEvent(tick=240, channel=0, data=[59, 0]),
   midi.NoteOnEvent(tick=0, channel=0, data=[57, 33]),
   midi.NoteOnEvent(tick=240, channel=0, data=[57, 0]),
   midi.NoteOnEvent(tick=0, channel=0, data=[52, 33]),
   midi.NoteOnEvent(tick=240, channel=0, data=[64, 50]),
   midi.NoteOnEvent(tick=480, channel=0, data=[64, 0]),
   midi.NoteOnEvent(tick=0, channel=0, data=[52, 0]),
   midi.NoteOnEvent(tick=0, channel=0, data=[69, 65]),
   midi.NoteOnEvent(tick=0, channel=0, data=[57, 55]),
   midi.NoteOnEvent(tick=1920, channel=0, data=[57, 0]),
   midi.NoteOnEvent(tick=0, channel=0, data=[69, 0]),
   midi.NoteOnEvent(tick=0, channel=0, data=[68, 69]),
   midi.NoteOnEvent(tick=0, channel=0, data=[56, 58]),
   midi.NoteOnEvent(tick=480, channel=0, data=[56, 0]),
   midi.NoteOnEvent(tick=0, channel=0, data=[68, 0]),
   midi.NoteOnEvent(tick=0, channel=0, data=[57, 62]),
   midi.NoteOnEvent(tick=0, channel=0, data=[69, 74]),
   midi.NoteOnEvent(tick=480, channel=0, data=[69, 0]),
   midi.NoteOnEvent(tick=0, channel=0, data=[57, 0]),
   midi.NoteOnEvent(tick=0, channel=0, data=[71, 84]),
   midi.NoteOnEvent(tick=0, channel=0, data=[59, 71]),
   midi.NoteOnEvent(tick=1440, channel=0, data=[59, 0]),
   midi.NoteOnEvent(tick=0, channel=0, data=[71, 0]),
   midi.NoteOnEvent(tick=0, channel=0, data=[73, 77]),
   midi.NoteOnEvent(tick=0, channel=0, data=[61, 65]),
   midi.NoteOnEvent(tick=1440, channel=0, data=[61, 0]),
   midi.NoteOnEvent(tick=0, channel=0, data=[73, 0]),
   midi.NoteOnEvent(tick=0, channel=0, data=[76, 89]),
   midi.NoteOnEvent(tick=0, channel=0, data=[73, 89]),
   midi.NoteOnEvent(tick=0, channel=0, data=[64, 75]),
   midi.NoteOnEvent(tick=480, channel=0, data=[64, 0]),
   midi.NoteOnEvent(tick=0, channel=0, data=[73, 0]),
   midi.NoteOnEvent(tick=0, channel=0, data=[76, 0]),
   midi.NoteOnEvent(tick=0, channel=0, data=[74, 76]),
   midi.NoteOnEvent(tick=0, channel=0, data=[71, 76]),
   midi.NoteOnEvent(tick=0, channel=0, data=[62, 63]),
   midi.NoteOnEvent(tick=480, channel=0, data=[62, 0]),
   midi.NoteOnEvent(tick=0, channel=0, data=[71, 0]),
   midi.NoteOnEvent(tick=0, channel=0, data=[74, 0]),
   midi.NoteOnEvent(tick=0, channel=0, data=[73, 70]),
   midi.NoteOnEvent(tick=0, channel=0, data=[69, 70]),
   midi.NoteOnEvent(tick=0, channel=0, data=[61, 59]),
   midi.NoteOnEvent(tick=480, channel=0, data=[61, 0]),
   midi.NoteOnEvent(tick=0, channel=0, data=[69, 0]),
   midi.NoteOnEvent(tick=0, channel=0, data=[73, 0]),
   midi.NoteOnEvent(tick=0, channel=0, data=[71, 82]),
   midi.NoteOnEvent(tick=0, channel=0, data=[68, 82]),
   midi.NoteOnEvent(tick=0, channel=0, data=[59, 70]),
   midi.NoteOnEvent(tick=480, channel=0, data=[59, 0]),
   midi.NoteOnEvent(tick=0, channel=0, data=[68, 0]),
   midi.NoteOnEvent(tick=0, channel=0, data=[71, 0]),
   midi.NoteOnEvent(tick=0, channel=0, data=[73, 75]),
   midi.NoteOnEvent(tick=0, channel=0, data=[61, 62]),
   midi.NoteOnEvent(tick=480, channel=0, data=[61, 0]),
   midi.NoteOnEvent(tick=0, channel=0, data=[73, 0]),
   midi.NoteOnEvent(tick=0, channel=0, data=[71, 68]),
   midi.NoteOnEvent(tick=0, channel=0, data=[59, 57]),
   midi.NoteOnEvent(tick=480, channel=0, data=[59, 0]),
   midi.NoteOnEvent(tick=0, channel=0, data=[71, 0]),
   midi.NoteOnEvent(tick=0, channel=0, data=[69, 90]),
   midi.NoteOnEvent(tick=0, channel=0, data=[57, 77]),
   midi.NoteOnEvent(tick=960, channel=0, data=[57, 0]),
   midi.NoteOnEvent(tick=0, channel=0, data=[69, 0]),
   midi.NoteOnEvent(tick=0, channel=0, data=[81, 86]),
   midi.NoteOnEvent(tick=0, channel=0, data=[69, 73]),
   midi.NoteOnEvent(tick=480, channel=0, data=[69, 0]),
   midi.NoteOnEvent(tick=0, channel=0, data=[81, 0]),
   midi.NoteOnEvent(tick=0, channel=0, data=[83, 91]),
   midi.NoteOnEvent(tick=0, channel=0, data=[71, 77]),
   midi.NoteOnEvent(tick=960, channel=0, data=[71, 0]),
   midi.NoteOnEvent(tick=0, channel=0, data=[83, 0]),
   midi.NoteOnEvent(tick=0, channel=0, data=[85, 95]),
   midi.NoteOnEvent(tick=0, channel=0, data=[73, 80]),
   midi.NoteOnEvent(tick=480, channel=0, data=[73, 0]),
   midi.NoteOnEvent(tick=0, channel=0, data=[85, 0]),
   midi.NoteOnEvent(tick=0, channel=0, data=[76, 82]),
   midi.NoteOnEvent(tick=0, channel=0, data=[85, 97]),
   midi.NoteOnEvent(tick=0, channel=0, data=[88, 97]),
   midi.NoteOnEvent(tick=480, channel=0, data=[88, 0]),
   midi.NoteOnEvent(tick=0, channel=0, data=[85, 0]),
   midi.NoteOnEvent(tick=0, channel=0, data=[76, 0]),
   midi.NoteOnEvent(tick=0, channel=0, data=[74, 75]),
   midi.NoteOnEvent(tick=0, channel=0, data=[83, 89]),
   midi.NoteOnEvent(tick=0, channel=0, data=[86, 89]),
   midi.NoteOnEvent(tick=480, channel=0, data=[86, 0]),
   midi.NoteOnEvent(tick=0, channel=0, data=[83, 0]),
   midi.NoteOnEvent(tick=0, channel=0, data=[74, 0]),
   midi.NoteOnEvent(tick=0, channel=0, data=[73, 69]),
   midi.NoteOnEvent(tick=0, channel=0, data=[81, 82]),
   midi.NoteOnEvent(tick=0, channel=0, data=[85, 82]),
   midi.NoteOnEvent(tick=480, channel=0, data=[85, 0]),
   midi.NoteOnEvent(tick=0, channel=0, data=[81, 0]),
   midi.NoteOnEvent(tick=0, channel=0, data=[73, 0]),
   midi.NoteOnEvent(tick=0, channel=0, data=[71, 80]),
   midi.NoteOnEvent(tick=0, channel=0, data=[80, 95]),
   midi.NoteOnEvent(tick=0, channel=0, data=[83, 95]),
   midi.NoteOnEvent(tick=480, channel=0, data=[83, 0]),
   midi.NoteOnEvent(tick=0, channel=0, data=[80, 0]),
   midi.NoteOnEvent(tick=0, channel=0, data=[71, 0]),
   midi.NoteOnEvent(tick=0, channel=0, data=[73, 75]),
   midi.NoteOnEvent(tick=0, channel=0, data=[85, 89]),
   midi.NoteOnEvent(tick=480, channel=0, data=[85, 0]),
   midi.NoteOnEvent(tick=0, channel=0, data=[73, 0]),
   midi.NoteOnEvent(tick=0, channel=0, data=[71, 68]),
   midi.NoteOnEvent(tick=0, channel=0, data=[83, 80]),
   midi.NoteOnEvent(tick=480, channel=0, data=[83, 0]),
   midi.NoteOnEvent(tick=0, channel=0, data=[71, 0]),
   midi.NoteOnEvent(tick=0, channel=0, data=[69, 79]),
   midi.NoteOnEvent(tick=0, channel=0, data=[81, 93]),
   midi.NoteOnEvent(tick=480, channel=0, data=[81, 0]),
   midi.NoteOnEvent(tick=0, channel=0, data=[69, 0]),
   midi.NoteOnEvent(tick=0, channel=0, data=[76, 80]),
   midi.NoteOnEvent(tick=0, channel=0, data=[80, 80]),
   midi.NoteOnEvent(tick=480, channel=0, data=[80, 0]),
   midi.NoteOnEvent(tick=0, channel=0, data=[76, 0]),
   midi.NoteOnEvent(tick=0, channel=0, data=[74, 77]),
   midi.NoteOnEvent(tick=0, channel=0, data=[78, 77]),
   midi.NoteOnEvent(tick=480, channel=0, data=[78, 0]),
   midi.NoteOnEvent(tick=0, channel=0, data=[74, 0]),
   midi.NoteOnEvent(tick=0, channel=0, data=[73, 72]),
   midi.NoteOnEvent(tick=0, channel=0, data=[76, 72]),
   midi.NoteOnEvent(tick=480, channel=0, data=[76, 0]),
   midi.NoteOnEvent(tick=0, channel=0, data=[73, 0]),
   midi.NoteOnEvent(tick=0, channel=0, data=[72, 70]),
   midi.NoteOnEvent(tick=0, channel=0, data=[75, 70]),
   midi.NoteOnEvent(tick=480, channel=0, data=[75, 0]),
   midi.NoteOnEvent(tick=0, channel=0, data=[72, 0]),
   midi.NoteOnEvent(tick=0, channel=0, data=[71, 70]),
   midi.NoteOnEvent(tick=0, channel=0, data=[74, 70]),
   midi.NoteOnEvent(tick=480, channel=0, data=[74, 0]),
   midi.NoteOnEvent(tick=0, channel=0, data=[71, 0]),
   midi.NoteOnEvent(tick=0, channel=0, data=[73, 74]),
   midi.NoteOnEvent(tick=0, channel=0, data=[69, 65]),
   midi.NoteOnEvent(tick=240, channel=0, data=[69, 0]),
   midi.NoteOnEvent(tick=0, channel=0, data=[73, 0]),
   midi.NoteOnEvent(tick=240, channel=0, data=[74, 57]),
   midi.NoteOnEvent(tick=0, channel=0, data=[69, 50]),
   midi.NoteOnEvent(tick=180, channel=0, data=[69, 0]),
   midi.NoteOnEvent(tick=0, channel=0, data=[74, 0]),
   midi.NoteOnEvent(tick=300, channel=0, data=[73, 51]),
   midi.NoteOnEvent(tick=0, channel=0, data=[69, 45]),
   midi.NoteOnEvent(tick=180, channel=0, data=[69, 0]),
   midi.NoteOnEvent(tick=0, channel=0, data=[73, 0]),
   midi.NoteOnEvent(tick=300, channel=0, data=[69, 50]),
   midi.NoteOnEvent(tick=0, channel=0, data=[66, 50]),
   midi.NoteOnEvent(tick=0, channel=0, data=[71, 57]),
   midi.NoteOnEvent(tick=180, channel=0, data=[71, 0]),
   midi.NoteOnEvent(tick=0, channel=0, data=[66, 0]),
   midi.NoteOnEvent(tick=0, channel=0, data=[69, 0]),
   midi.NoteOnEvent(tick=780, channel=0, data=[68, 65]),
   midi.NoteOnEvent(tick=0, channel=0, data=[76, 74]),
   midi.NoteOnEvent(tick=240, channel=0, data=[76, 0]),
   midi.NoteOnEvent(tick=0, channel=0, data=[68, 0]),
   midi.NoteOnEvent(tick=240, channel=0, data=[69, 67]),
   midi.NoteOnEvent(tick=0, channel=0, data=[81, 79]),
   midi.NoteOnEvent(tick=480, channel=0, data=[81, 0]),
   midi.NoteOnEvent(tick=0, channel=0, data=[69, 0]),
   midi.NoteOnEvent(tick=0, channel=0, data=[76, 57]),
   midi.NoteOnEvent(tick=0, channel=0, data=[80, 68]),
   midi.NoteOnEvent(tick=480, channel=0, data=[80, 0]),
   midi.NoteOnEvent(tick=0, channel=0, data=[76, 0]),
   midi.NoteOnEvent(tick=0, channel=0, data=[74, 55]),
   midi.NoteOnEvent(tick=0, channel=0, data=[78, 65]),
   midi.NoteOnEvent(tick=480, channel=0, data=[78, 0]),
   midi.NoteOnEvent(tick=0, channel=0, data=[74, 0]),
   midi.NoteOnEvent(tick=0, channel=0, data=[73, 51]),
   midi.NoteOnEvent(tick=0, channel=0, data=[76, 61]),
   midi.NoteOnEvent(tick=480, channel=0, data=[76, 0]),
   midi.NoteOnEvent(tick=0, channel=0, data=[73, 0]),
   midi.NoteOnEvent(tick=0, channel=0, data=[72, 50]),
   midi.NoteOnEvent(tick=0, channel=0, data=[75, 59]),
   midi.NoteOnEvent(tick=480, channel=0, data=[75, 0]),
   midi.NoteOnEvent(tick=0, channel=0, data=[72, 0]),
   midi.NoteOnEvent(tick=0, channel=0, data=[71, 50]),
   midi.NoteOnEvent(tick=0, channel=0, data=[74, 59]),
   midi.NoteOnEvent(tick=480, channel=0, data=[74, 0]),
   midi.NoteOnEvent(tick=0, channel=0, data=[71, 0]),
   midi.NoteOnEvent(tick=240, channel=0, data=[73, 47]),
   midi.NoteOnEvent(tick=240, channel=0, data=[73, 0]),
   midi.NoteOnEvent(tick=0, channel=0, data=[74, 47]),
   midi.NoteOnEvent(tick=240, channel=0, data=[74, 0]),
   midi.NoteOnEvent(tick=0, channel=0, data=[76, 47]),
   midi.NoteOnEvent(tick=240, channel=0, data=[76, 0]),
   midi.NoteOnEvent(tick=0, channel=0, data=[78, 51]),
   midi.NoteOnEvent(tick=240, channel=0, data=[78, 0]),
   midi.NoteOnEvent(tick=0, channel=0, data=[74, 47]),
   midi.NoteOnEvent(tick=240, channel=0, data=[74, 0]),
   midi.NoteOnEvent(tick=0, channel=0, data=[76, 50]),
   midi.NoteOnEvent(tick=240, channel=0, data=[76, 0]),
   midi.NoteOnEvent(tick=0, channel=0, data=[78, 47]),
   midi.NoteOnEvent(tick=240, channel=0, data=[78, 0]),
   midi.NoteOnEvent(tick=0, channel=0, data=[80, 49]),
   midi.NoteOnEvent(tick=240, channel=0, data=[80, 0]),
   midi.NoteOnEvent(tick=0, channel=0, data=[76, 47]),
   midi.NoteOnEvent(tick=240, channel=0, data=[76, 0]),
   midi.NoteOnEvent(tick=0, channel=0, data=[78, 50]),
   midi.NoteOnEvent(tick=240, channel=0, data=[78, 0]),
   midi.NoteOnEvent(tick=0, channel=0, data=[80, 47]),
   midi.NoteOnEvent(tick=240, channel=0, data=[80, 0]),
   midi.NoteOnEvent(tick=0, channel=0, data=[81, 50]),
   midi.NoteOnEvent(tick=240, channel=0, data=[81, 0]),
   midi.NoteOnEvent(tick=0, channel=0, data=[85, 51]),
   midi.NoteOnEvent(tick=240, channel=0, data=[85, 0]),
   midi.NoteOnEvent(tick=0, channel=0, data=[86, 51]),
   midi.NoteOnEvent(tick=240, channel=0, data=[86, 0]),
   midi.NoteOnEvent(tick=0, channel=0, data=[88, 50]),
   midi.NoteOnEvent(tick=240, channel=0, data=[88, 0]),
   midi.NoteOnEvent(tick=0, channel=0, data=[90, 54]),
   midi.NoteOnEvent(tick=240, channel=0, data=[90, 0]),
   midi.NoteOnEvent(tick=0, channel=0, data=[86, 48]),
   midi.NoteOnEvent(tick=240, channel=0, data=[86, 0]),
   midi.NoteOnEvent(tick=0, channel=0, data=[88, 50]),
   midi.NoteOnEvent(tick=240, channel=0, data=[88, 0]),
   midi.NoteOnEvent(tick=0, channel=0, data=[90, 47]),
   midi.NoteOnEvent(tick=240, channel=0, data=[90, 0]),
   midi.NoteOnEvent(tick=0, channel=0, data=[92, 47]),
   midi.NoteOnEvent(tick=240, channel=0, data=[92, 0]),
   midi.NoteOnEvent(tick=0, channel=0, data=[88, 45]),
   midi.NoteOnEvent(tick=240, channel=0, data=[88, 0]),
   midi.NoteOnEvent(tick=0, channel=0, data=[90, 47]),
   midi.NoteOnEvent(tick=240, channel=0, data=[90, 0]),
   midi.NoteOnEvent(tick=0, channel=0, data=[92, 44]),
   midi.NoteOnEvent(tick=240, channel=0, data=[92, 0]),
   midi.NoteOnEvent(tick=0, channel=0, data=[93, 52]),
   midi.NoteOnEvent(tick=240, channel=0, data=[93, 0]),
   midi.NoteOnEvent(tick=0, channel=0, data=[88, 52]),
   midi.NoteOnEvent(tick=240, channel=0, data=[88, 0]),
   midi.NoteOnEvent(tick=0, channel=0, data=[85, 48]),
   midi.NoteOnEvent(tick=240, channel=0, data=[85, 0]),
   midi.NoteOnEvent(tick=0, channel=0, data=[81, 48]),
   midi.NoteOnEvent(tick=240, channel=0, data=[81, 0]),
   midi.NoteOnEvent(tick=0, channel=0, data=[76, 48]),
   midi.NoteOnEvent(tick=240, channel=0, data=[76, 0]),
   midi.NoteOnEvent(tick=0, channel=0, data=[73, 48]),
   midi.NoteOnEvent(tick=240, channel=0, data=[73, 0]),
   midi.NoteOnEvent(tick=0, channel=0, data=[69, 46]),
   midi.NoteOnEvent(tick=240, channel=0, data=[69, 0]),
   midi.NoteOnEvent(tick=0, channel=0, data=[64, 45]),
   midi.NoteOnEvent(tick=240, channel=0, data=[64, 0]),
   midi.NoteOnEvent(tick=0, channel=0, data=[61, 43]),
   midi.NoteOnEvent(tick=240, channel=0, data=[61, 0]),
   midi.NoteOnEvent(tick=0, channel=0, data=[57, 42]),
   midi.NoteOnEvent(tick=240, channel=0, data=[57, 0]),
   midi.NoteOnEvent(tick=0, channel=0, data=[61, 50]),
   midi.NoteOnEvent(tick=240, channel=0, data=[57, 40]),
   midi.NoteOnEvent(tick=216, channel=0, data=[61, 0]),
   midi.NoteOnEvent(tick=24, channel=0, data=[57, 0]),
   midi.NoteOnEvent(tick=0, channel=0, data=[61, 50]),
   midi.NoteOnEvent(tick=240, channel=0, data=[56, 37]),
   midi.NoteOnEvent(tick=240, channel=0, data=[56, 0]),
   midi.NoteOnEvent(tick=0, channel=0, data=[57, 42]),
   midi.NoteOnEvent(tick=240, channel=0, data=[57, 0]),
   midi.NoteOnEvent(tick=0, channel=0, data=[54, 34]),
   midi.NoteOnEvent(tick=240, channel=0, data=[54, 0]),
   midi.NoteOnEvent(tick=0, channel=0, data=[61, 0]),
   midi.NoteOnEvent(tick=0, channel=0, data=[66, 54]),
   midi.NoteOnEvent(tick=240, channel=0, data=[61, 39]),
   midi.NoteOnEvent(tick=216, channel=0, data=[66, 0]),
   midi.NoteOnEvent(tick=24, channel=0, data=[61, 0]),
   midi.NoteOnEvent(tick=0, channel=0, data=[66, 55]),
   midi.NoteOnEvent(tick=240, channel=0, data=[60, 45]),
   midi.NoteOnEvent(tick=240, channel=0, data=[60, 0]),
   midi.NoteOnEvent(tick=0, channel=0, data=[61, 55]),
   midi.NoteOnEvent(tick=240, channel=0, data=[61, 0]),
   midi.NoteOnEvent(tick=0, channel=0, data=[57, 46]),
   midi.NoteOnEvent(tick=240, channel=0, data=[57, 0]),
   midi.NoteOnEvent(tick=0, channel=0, data=[66, 0]),
   midi.NoteOnEvent(tick=0, channel=0, data=[69, 66]),
   midi.NoteOnEvent(tick=240, channel=0, data=[66, 55]),
   midi.NoteOnEvent(tick=240, channel=0, data=[66, 0]),
   midi.NoteOnEvent(tick=0, channel=0, data=[69, 0]),
   midi.NoteOnEvent(tick=0, channel=0, data=[74, 73]),
   midi.NoteOnEvent(tick=240, channel=0, data=[68, 56]),
   midi.NoteOnEvent(tick=240, channel=0, data=[68, 0]),
   midi.NoteOnEvent(tick=0, channel=0, data=[69, 61]),
   midi.NoteOnEvent(tick=240, channel=0, data=[69, 0]),
   midi.NoteOnEvent(tick=0, channel=0, data=[66, 56]),
   midi.NoteOnEvent(tick=240, channel=0, data=[66, 0]),
   midi.NoteOnEvent(tick=0, channel=0, data=[74, 0]),
   midi.NoteOnEvent(tick=0, channel=0, data=[73, 68]),
   midi.NoteOnEvent(tick=240, channel=0, data=[69, 49]),
   midi.NoteOnEvent(tick=240, channel=0, data=[69, 0]),
   midi.NoteOnEvent(tick=0, channel=0, data=[73, 0]),
   midi.NoteOnEvent(tick=0, channel=0, data=[72, 68]),
   midi.NoteOnEvent(tick=240, channel=0, data=[68, 50]),
   midi.NoteOnEvent(tick=240, channel=0, data=[68, 0]),
   midi.NoteOnEvent(tick=0, channel=0, data=[69, 55]),
   midi.NoteOnEvent(tick=240, channel=0, data=[69, 0]),
   midi.NoteOnEvent(tick=0, channel=0, data=[66, 45]),
   midi.NoteOnEvent(tick=230, channel=0, data=[72, 0]),
   midi.NoteOnEvent(tick=10, channel=0, data=[66, 0]),
   midi.NoteOnEvent(tick=0, channel=0, data=[72, 51]),
   midi.NoteOnEvent(tick=240, channel=0, data=[69, 33]),
   midi.NoteOnEvent(tick=240, channel=0, data=[69, 0]),
   midi.NoteOnEvent(tick=0, channel=0, data=[72, 0]),
   midi.NoteOnEvent(tick=0, channel=0, data=[73, 56]),
   midi.NoteOnEvent(tick=240, channel=0, data=[68, 43]),
   midi.NoteOnEvent(tick=240, channel=0, data=[68, 0]),
   midi.NoteOnEvent(tick=0, channel=0, data=[61, 46]),
   midi.NoteOnEvent(tick=240, channel=0, data=[61, 0]),
   midi.NoteOnEvent(tick=0, channel=0, data=[63, 42]),
   midi.NoteOnEvent(tick=240, channel=0, data=[63, 0]),
   midi.NoteOnEvent(tick=0, channel=0, data=[73, 0]),
   midi.NoteOnEvent(tick=0, channel=0, data=[65, 40]),
   midi.NoteOnEvent(tick=0, channel=0, data=[71, 50]),
   midi.NoteOnEvent(tick=240, channel=0, data=[65, 0]),
   midi.NoteOnEvent(tick=0, channel=0, data=[61, 38]),
   midi.NoteOnEvent(tick=170, channel=0, data=[71, 0]),
   midi.NoteOnEvent(tick=10, channel=0, data=[71, 43]),
   midi.NoteOnEvent(tick=60, channel=0, data=[71, 0]),
   midi.NoteOnEvent(tick=0, channel=0, data=[61, 0]),
   midi.NoteOnEvent(tick=0, channel=0, data=[66, 44]),
   midi.NoteOnEvent(tick=0, channel=0, data=[69, 55]),
   midi.NoteOnEvent(tick=240, channel=0, data=[69, 0]),
   midi.NoteOnEvent(tick=0, channel=0, data=[66, 0]),
   midi.NoteOnEvent(tick=0, channel=0, data=[61, 46]),
   midi.NoteOnEvent(tick=240, channel=0, data=[61, 0]),
   midi.NoteOnEvent(tick=0, channel=0, data=[65, 50]),
   midi.NoteOnEvent(tick=0, channel=0, data=[68, 63]),
   midi.NoteOnEvent(tick=240, channel=0, data=[68, 0]),
   midi.NoteOnEvent(tick=0, channel=0, data=[65, 0]),
   midi.NoteOnEvent(tick=0, channel=0, data=[61, 54]),
   midi.NoteOnEvent(tick=240, channel=0, data=[61, 0]),
   midi.NoteOnEvent(tick=0, channel=0, data=[66, 55]),
   midi.NoteOnEvent(tick=0, channel=0, data=[69, 69]),
   midi.NoteOnEvent(tick=240, channel=0, data=[69, 0]),
   midi.NoteOnEvent(tick=0, channel=0, data=[66, 0]),
   midi.NoteOnEvent(tick=0, channel=0, data=[61, 57]),
   midi.NoteOnEvent(tick=240, channel=0, data=[61, 0]),
   midi.NoteOnEvent(tick=0, channel=0, data=[66, 55]),
   midi.NoteOnEvent(tick=0, channel=0, data=[69, 69]),
   midi.NoteOnEvent(tick=0, channel=0, data=[73, 76]),
   midi.NoteOnEvent(tick=240, channel=0, data=[66, 0]),
   midi.NoteOnEvent(tick=0, channel=0, data=[62, 54]),
   midi.NoteOnEvent(tick=240, channel=0, data=[62, 0]),
   midi.NoteOnEvent(tick=0, channel=0, data=[73, 0]),
   midi.NoteOnEvent(tick=0, channel=0, data=[69, 0]),
   midi.NoteOnEvent(tick=0, channel=0, data=[68, 48]),
   midi.NoteOnEvent(tick=0, channel=0, data=[71, 61]),
   midi.NoteOnEvent(tick=240, channel=0, data=[68, 0]),
   midi.NoteOnEvent(tick=0, channel=0, data=[62, 49]),
   midi.NoteOnEvent(tick=240, channel=0, data=[62, 0]),
   midi.NoteOnEvent(tick=0, channel=0, data=[71, 0]),
   midi.NoteOnEvent(tick=0, channel=0, data=[66, 40]),
   midi.NoteOnEvent(tick=0, channel=0, data=[69, 50]),
   midi.NoteOnEvent(tick=240, channel=0, data=[69, 0]),
   midi.NoteOnEvent(tick=0, channel=0, data=[66, 0]),
   midi.NoteOnEvent(tick=0, channel=0, data=[62, 41]),
   midi.NoteOnEvent(tick=240, channel=0, data=[62, 0]),
   midi.NoteOnEvent(tick=0, channel=0, data=[66, 44]),
   midi.NoteOnEvent(tick=0, channel=0, data=[69, 56]),
   midi.NoteOnEvent(tick=240, channel=0, data=[66, 0]),
   midi.NoteOnEvent(tick=0, channel=0, data=[61, 45]),
   midi.NoteOnEvent(tick=240, channel=0, data=[61, 0]),
   midi.NoteOnEvent(tick=0, channel=0, data=[69, 0]),
   midi.NoteOnEvent(tick=0, channel=0, data=[65, 40]),
   midi.NoteOnEvent(tick=0, channel=0, data=[68, 50]),
   midi.NoteOnEvent(tick=240, channel=0, data=[65, 0]),
   midi.NoteOnEvent(tick=0, channel=0, data=[59, 43]),
   midi.NoteOnEvent(tick=240, channel=0, data=[59, 0]),
   midi.NoteOnEvent(tick=0, channel=0, data=[68, 0]),
   midi.NoteOnEvent(tick=0, channel=0, data=[61, 50]),
   midi.NoteOnEvent(tick=240, channel=0, data=[57, 40]),
   midi.NoteOnEvent(tick=216, channel=0, data=[61, 0]),
   midi.NoteOnEvent(tick=24, channel=0, data=[57, 0]),
   midi.NoteOnEvent(tick=0, channel=0, data=[61, 56]),
   midi.NoteOnEvent(tick=240, channel=0, data=[56, 37]),
   midi.NoteOnEvent(tick=240, channel=0, data=[56, 0]),
   midi.NoteOnEvent(tick=0, channel=0, data=[57, 42]),
   midi.NoteOnEvent(tick=240, channel=0, data=[57, 0]),
   midi.NoteOnEvent(tick=0, channel=0, data=[54, 34]),
   midi.NoteOnEvent(tick=240, channel=0, data=[54, 0]),
   midi.NoteOnEvent(tick=0, channel=0, data=[61, 0]),
   midi.NoteOnEvent(tick=0, channel=0, data=[66, 54]),
   midi.NoteOnEvent(tick=240, channel=0, data=[61, 39]),
   midi.NoteOnEvent(tick=216, channel=0, data=[66, 0]),
   midi.NoteOnEvent(tick=24, channel=0, data=[61, 0]),
   midi.NoteOnEvent(tick=0, channel=0, data=[66, 55]),
   midi.NoteOnEvent(tick=240, channel=0, data=[60, 45]),
   midi.NoteOnEvent(tick=240, channel=0, data=[60, 0]),
   midi.NoteOnEvent(tick=0, channel=0, data=[61, 55]),
   midi.NoteOnEvent(tick=240, channel=0, data=[61, 0]),
   midi.NoteOnEvent(tick=0, channel=0, data=[57, 46]),
   midi.NoteOnEvent(tick=240, channel=0, data=[57, 0]),
   midi.NoteOnEvent(tick=0, channel=0, data=[66, 0]),
   midi.NoteOnEvent(tick=0, channel=0, data=[69, 66]),
   midi.NoteOnEvent(tick=240, channel=0, data=[66, 55]),
   midi.NoteOnEvent(tick=240, channel=0, data=[66, 0]),
   midi.NoteOnEvent(tick=0, channel=0, data=[69, 0]),
   midi.NoteOnEvent(tick=0, channel=0, data=[74, 73]),
   midi.NoteOnEvent(tick=240, channel=0, data=[68, 56]),
   midi.NoteOnEvent(tick=240, channel=0, data=[68, 0]),
   midi.NoteOnEvent(tick=0, channel=0, data=[69, 61]),
   midi.NoteOnEvent(tick=240, channel=0, data=[69, 0]),
   midi.NoteOnEvent(tick=0, channel=0, data=[66, 56]),
   midi.NoteOnEvent(tick=240, channel=0, data=[66, 0]),
   midi.NoteOnEvent(tick=0, channel=0, data=[74, 0]),
   midi.NoteOnEvent(tick=0, channel=0, data=[73, 68]),
   midi.NoteOnEvent(tick=240, channel=0, data=[69, 49]),
   midi.NoteOnEvent(tick=240, channel=0, data=[69, 0]),
   midi.NoteOnEvent(tick=0, channel=0, data=[73, 0]),
   midi.NoteOnEvent(tick=0, channel=0, data=[72, 68]),
   midi.NoteOnEvent(tick=240, channel=0, data=[68, 50]),
   midi.NoteOnEvent(tick=240, channel=0, data=[68, 0]),
   midi.NoteOnEvent(tick=0, channel=0, data=[69, 55]),
   midi.NoteOnEvent(tick=240, channel=0, data=[69, 0]),
   midi.NoteOnEvent(tick=0, channel=0, data=[66, 45]),
   midi.NoteOnEvent(tick=230, channel=0, data=[72, 0]),
   midi.NoteOnEvent(tick=10, channel=0, data=[66, 0]),
   midi.NoteOnEvent(tick=0, channel=0, data=[72, 51]),
   midi.NoteOnEvent(tick=240, channel=0, data=[69, 33]),
   midi.NoteOnEvent(tick=240, channel=0, data=[69, 0]),
   midi.NoteOnEvent(tick=0, channel=0, data=[72, 0]),
   midi.NoteOnEvent(tick=0, channel=0, data=[73, 56]),
   midi.NoteOnEvent(tick=240, channel=0, data=[68, 43]),
   midi.NoteOnEvent(tick=240, channel=0, data=[68, 0]),
   midi.NoteOnEvent(tick=0, channel=0, data=[61, 46]),
   midi.NoteOnEvent(tick=240, channel=0, data=[61, 0]),
   midi.NoteOnEvent(tick=0, channel=0, data=[62, 42]),
   midi.NoteOnEvent(tick=240, channel=0, data=[62, 0]),
   midi.NoteOnEvent(tick=0, channel=0, data=[73, 0]),
   midi.NoteOnEvent(tick=0, channel=0, data=[64, 40]),
   midi.NoteOnEvent(tick=0, channel=0, data=[70, 50]),
   midi.NoteOnEvent(tick=240, channel=0, data=[70, 0]),
   midi.NoteOnEvent(tick=0, channel=0, data=[64, 0]),
   midi.NoteOnEvent(tick=0, channel=0, data=[61, 38]),
   midi.NoteOnEvent(tick=240, channel=0, data=[61, 0]),
   midi.NoteOnEvent(tick=0, channel=0, data=[62, 46]),
   midi.NoteOnEvent(tick=0, channel=0, data=[71, 56]),
   midi.NoteOnEvent(tick=240, channel=0, data=[62, 0]),
   midi.NoteOnEvent(tick=0, channel=0, data=[66, 43]),
   midi.NoteOnEvent(tick=240, channel=0, data=[66, 0]),
   midi.NoteOnEvent(tick=0, channel=0, data=[71, 0]),
   midi.NoteOnEvent(tick=0, channel=0, data=[64, 46]),
   midi.NoteOnEvent(tick=240, channel=0, data=[64, 0]),
   midi.NoteOnEvent(tick=0, channel=0, data=[62, 42]),
   midi.NoteOnEvent(tick=240, channel=0, data=[62, 0]),
   midi.NoteOnEvent(tick=0, channel=0, data=[61, 40]),
   midi.NoteOnEvent(tick=0, channel=0, data=[70, 50]),
   midi.NoteOnEvent(tick=240, channel=0, data=[61, 0]),
   midi.NoteOnEvent(tick=0, channel=0, data=[64, 38]),
   midi.NoteOnEvent(tick=240, channel=0, data=[64, 0]),
   midi.NoteOnEvent(tick=0, channel=0, data=[70, 0]),
   midi.NoteOnEvent(tick=0, channel=0, data=[62, 46]),
   midi.NoteOnEvent(tick=0, channel=0, data=[71, 56]),
   midi.NoteOnEvent(tick=240, channel=0, data=[62, 0]),
   midi.NoteOnEvent(tick=0, channel=0, data=[66, 43]),
   midi.NoteOnEvent(tick=240, channel=0, data=[66, 0]),
   midi.NoteOnEvent(tick=0, channel=0, data=[71, 0]),
   midi.NoteOnEvent(tick=0, channel=0, data=[69, 50]),
   midi.NoteOnEvent(tick=0, channel=0, data=[61, 46]),
   midi.NoteOnEvent(tick=240, channel=0, data=[61, 0]),
   midi.NoteOnEvent(tick=0, channel=0, data=[69, 0]),
   midi.NoteOnEvent(tick=0, channel=0, data=[64, 42]),
   midi.NoteOnEvent(tick=240, channel=0, data=[64, 0]),
   midi.NoteOnEvent(tick=0, channel=0, data=[59, 40]),
   midi.NoteOnEvent(tick=0, channel=0, data=[68, 50]),
   midi.NoteOnEvent(tick=240, channel=0, data=[68, 0]),
   midi.NoteOnEvent(tick=0, channel=0, data=[59, 0]),
   midi.NoteOnEvent(tick=0, channel=0, data=[62, 38]),
   midi.NoteOnEvent(tick=240, channel=0, data=[62, 0]),
   midi.NoteOnEvent(tick=0, channel=0, data=[57, 46]),
   midi.NoteOnEvent(tick=0, channel=0, data=[66, 56]),
   midi.NoteOnEvent(tick=240, channel=0, data=[57, 0]),
   midi.NoteOnEvent(tick=0, channel=0, data=[61, 43]),
   midi.NoteOnEvent(tick=240, channel=0, data=[61, 0]),
   midi.NoteOnEvent(tick=0, channel=0, data=[66, 0]),
   midi.NoteOnEvent(tick=0, channel=0, data=[65, 56]),
   midi.NoteOnEvent(tick=0, channel=0, data=[56, 46]),
   midi.NoteOnEvent(tick=240, channel=0, data=[56, 0]),
   midi.NoteOnEvent(tick=0, channel=0, data=[59, 42]),
   midi.NoteOnEvent(tick=240, channel=0, data=[59, 0]),
   midi.NoteOnEvent(tick=0, channel=0, data=[65, 0]),
   midi.NoteOnEvent(tick=0, channel=0, data=[61, 40]),
   midi.NoteOnEvent(tick=0, channel=0, data=[70, 50]),
   midi.NoteOnEvent(tick=240, channel=0, data=[61, 0]),
   midi.NoteOnEvent(tick=0, channel=0, data=[64, 38]),
   midi.NoteOnEvent(tick=240, channel=0, data=[64, 0]),
   midi.NoteOnEvent(tick=0, channel=0, data=[70, 0]),
   midi.NoteOnEvent(tick=0, channel=0, data=[62, 43]),
   midi.NoteOnEvent(tick=0, channel=0, data=[71, 56]),
   midi.NoteOnEvent(tick=240, channel=0, data=[62, 0]),
   midi.NoteOnEvent(tick=0, channel=0, data=[66, 43]),
   midi.NoteOnEvent(tick=240, channel=0, data=[66, 0]),
   midi.NoteOnEvent(tick=0, channel=0, data=[71, 0]),
   midi.NoteOnEvent(tick=0, channel=0, data=[64, 46]),
   midi.NoteOnEvent(tick=240, channel=0, data=[64, 0]),
   midi.NoteOnEvent(tick=0, channel=0, data=[62, 42]),
   midi.NoteOnEvent(tick=240, channel=0, data=[62, 0]),
   midi.NoteOnEvent(tick=0, channel=0, data=[61, 40]),
   midi.NoteOnEvent(tick=0, channel=0, data=[70, 50]),
   midi.NoteOnEvent(tick=240, channel=0, data=[61, 0]),
   midi.NoteOnEvent(tick=0, channel=0, data=[64, 38]),
   midi.NoteOnEvent(tick=240, channel=0, data=[64, 0]),
   midi.NoteOnEvent(tick=0, channel=0, data=[70, 0]),
   midi.NoteOnEvent(tick=0, channel=0, data=[62, 46]),
   midi.NoteOnEvent(tick=0, channel=0, data=[71, 56]),
   midi.NoteOnEvent(tick=240, channel=0, data=[62, 0]),
   midi.NoteOnEvent(tick=0, channel=0, data=[66, 43]),
   midi.NoteOnEvent(tick=240, channel=0, data=[66, 0]),
   midi.NoteOnEvent(tick=0, channel=0, data=[71, 0]),
   midi.NoteOnEvent(tick=0, channel=0, data=[64, 46]),
   midi.NoteOnEvent(tick=240, channel=0, data=[64, 0]),
   midi.NoteOnEvent(tick=0, channel=0, data=[62, 42]),
   midi.NoteOnEvent(tick=240, channel=0, data=[62, 0]),
   midi.NoteOnEvent(tick=0, channel=0, data=[61, 40]),
   midi.NoteOnEvent(tick=0, channel=0, data=[70, 50]),
   midi.NoteOnEvent(tick=240, channel=0, data=[61, 0]),
   midi.NoteOnEvent(tick=0, channel=0, data=[64, 38]),
   midi.NoteOnEvent(tick=240, channel=0, data=[64, 0]),
   midi.NoteOnEvent(tick=0, channel=0, data=[70, 0]),
   midi.NoteOnEvent(tick=0, channel=0, data=[62, 46]),
   midi.NoteOnEvent(tick=0, channel=0, data=[71, 56]),
   midi.NoteOnEvent(tick=240, channel=0, data=[62, 0]),
   midi.NoteOnEvent(tick=0, channel=0, data=[66, 43]),
   midi.NoteOnEvent(tick=240, channel=0, data=[66, 0]),
   midi.NoteOnEvent(tick=0, channel=0, data=[71, 0]),
   midi.NoteOnEvent(tick=0, channel=0, data=[69, 50]),
   midi.NoteOnEvent(tick=0, channel=0, data=[61, 46]),
   midi.NoteOnEvent(tick=240, channel=0, data=[61, 0]),
   midi.NoteOnEvent(tick=0, channel=0, data=[69, 0]),
   midi.NoteOnEvent(tick=0, channel=0, data=[64, 42]),
   midi.NoteOnEvent(tick=240, channel=0, data=[64, 0]),
   midi.NoteOnEvent(tick=0, channel=0, data=[59, 40]),
   midi.NoteOnEvent(tick=0, channel=0, data=[68, 50]),
   midi.NoteOnEvent(tick=240, channel=0, data=[68, 0]),
   midi.NoteOnEvent(tick=0, channel=0, data=[59, 0]),
   midi.NoteOnEvent(tick=0, channel=0, data=[62, 38]),
   midi.NoteOnEvent(tick=240, channel=0, data=[62, 0]),
   midi.NoteOnEvent(tick=0, channel=0, data=[57, 46]),
   midi.NoteOnEvent(tick=0, channel=0, data=[66, 56]),
   midi.NoteOnEvent(tick=240, channel=0, data=[57, 0]),
   midi.NoteOnEvent(tick=0, channel=0, data=[61, 43]),
   midi.NoteOnEvent(tick=240, channel=0, data=[61, 0]),
   midi.NoteOnEvent(tick=0, channel=0, data=[66, 0]),
   midi.NoteOnEvent(tick=0, channel=0, data=[65, 56]),
   midi.NoteOnEvent(tick=0, channel=0, data=[56, 46]),
   midi.NoteOnEvent(tick=240, channel=0, data=[56, 0]),
   midi.NoteOnEvent(tick=0, channel=0, data=[59, 42]),
   midi.NoteOnEvent(tick=240, channel=0, data=[59, 0]),
   midi.NoteOnEvent(tick=0, channel=0, data=[65, 0]),
   midi.NoteOnEvent(tick=0, channel=0, data=[61, 40]),
   midi.NoteOnEvent(tick=0, channel=0, data=[70, 50]),
   midi.NoteOnEvent(tick=240, channel=0, data=[61, 0]),
   midi.NoteOnEvent(tick=0, channel=0, data=[64, 38]),
   midi.NoteOnEvent(tick=240, channel=0, data=[64, 0]),
   midi.NoteOnEvent(tick=0, channel=0, data=[70, 0]),
   midi.NoteOnEvent(tick=0, channel=0, data=[62, 43]),
   midi.NoteOnEvent(tick=0, channel=0, data=[71, 56]),
   midi.NoteOnEvent(tick=240, channel=0, data=[62, 0]),
   midi.NoteOnEvent(tick=0, channel=0, data=[66, 43]),
   midi.NoteOnEvent(tick=240, channel=0, data=[66, 0]),
   midi.NoteOnEvent(tick=0, channel=0, data=[71, 0]),
   midi.NoteOnEvent(tick=0, channel=0, data=[64, 46]),
   midi.NoteOnEvent(tick=240, channel=0, data=[64, 0]),
   midi.NoteOnEvent(tick=0, channel=0, data=[62, 42]),
   midi.NoteOnEvent(tick=240, channel=0, data=[62, 0]),
   midi.NoteOnEvent(tick=0, channel=0, data=[70, 40]),
   midi.NoteOnEvent(tick=0, channel=0, data=[73, 50]),
   midi.NoteOnEvent(tick=240, channel=0, data=[70, 0]),
   midi.NoteOnEvent(tick=0, channel=0, data=[66, 38]),
   midi.NoteOnEvent(tick=240, channel=0, data=[66, 0]),
   midi.NoteOnEvent(tick=0, channel=0, data=[73, 0]),
   midi.NoteOnEvent(tick=0, channel=0, data=[71, 45]),
   midi.NoteOnEvent(tick=0, channel=0, data=[74, 56]),
   midi.NoteOnEvent(tick=240, channel=0, data=[71, 0]),
   midi.NoteOnEvent(tick=0, channel=0, data=[66, 43]),
   midi.NoteOnEvent(tick=240, channel=0, data=[66, 0]),
   midi.NoteOnEvent(tick=0, channel=0, data=[74, 0]),
   midi.NoteOnEvent(tick=0, channel=0, data=[72, 48]),
   midi.NoteOnEvent(tick=0, channel=0, data=[75, 61]),
   midi.NoteOnEvent(tick=240, channel=0, data=[72, 0]),
   midi.NoteOnEvent(tick=0, channel=0, data=[66, 48]),
   midi.NoteOnEvent(tick=240, channel=0, data=[66, 0]),
   midi.NoteOnEvent(tick=0, channel=0, data=[75, 0]),
   midi.NoteOnEvent(tick=0, channel=0, data=[71, 53]),
   midi.NoteOnEvent(tick=0, channel=0, data=[76, 66]),
   midi.NoteOnEvent(tick=240, channel=0, data=[71, 0]),
   midi.NoteOnEvent(tick=0, channel=0, data=[68, 52]),
   midi.NoteOnEvent(tick=240, channel=0, data=[68, 0]),
   midi.NoteOnEvent(tick=0, channel=0, data=[76, 0]),
   midi.NoteOnEvent(tick=0, channel=0, data=[75, 58]),
   midi.NoteOnEvent(tick=0, channel=0, data=[78, 72]),
   midi.NoteOnEvent(tick=240, channel=0, data=[75, 0]),
   midi.NoteOnEvent(tick=0, channel=0, data=[69, 57]),
   midi.NoteOnEvent(tick=240, channel=0, data=[69, 0]),
   midi.NoteOnEvent(tick=0, channel=0, data=[78, 0]),
   midi.NoteOnEvent(tick=0, channel=0, data=[76, 62]),
   midi.NoteOnEvent(tick=0, channel=0, data=[79, 78]),
   midi.NoteOnEvent(tick=240, channel=0, data=[76, 0]),
   midi.NoteOnEvent(tick=0, channel=0, data=[71, 62]),
   midi.NoteOnEvent(tick=240, channel=0, data=[71, 0]),
   midi.NoteOnEvent(tick=0, channel=0, data=[79, 0]),
   midi.NoteOnEvent(tick=0, channel=0, data=[76, 67]),
   midi.NoteOnEvent(tick=0, channel=0, data=[80, 84]),
   midi.NoteOnEvent(tick=240, channel=0, data=[76, 0]),
   midi.NoteOnEvent(tick=0, channel=0, data=[71, 66]),
   midi.NoteOnEvent(tick=240, channel=0, data=[71, 0]),
   midi.NoteOnEvent(tick=0, channel=0, data=[80, 0]),
   midi.NoteOnEvent(tick=0, channel=0, data=[76, 73]),
   midi.NoteOnEvent(tick=0, channel=0, data=[81, 91]),
   midi.NoteOnEvent(tick=240, channel=0, data=[76, 0]),
   midi.NoteOnEvent(tick=0, channel=0, data=[73, 70]),
   midi.NoteOnEvent(tick=240, channel=0, data=[73, 0]),
   midi.NoteOnEvent(tick=0, channel=0, data=[81, 0]),
   midi.NoteOnEvent(tick=0, channel=0, data=[76, 75]),
   midi.NoteOnEvent(tick=0, channel=0, data=[85, 93]),
   midi.NoteOnEvent(tick=240, channel=0, data=[76, 0]),
   midi.NoteOnEvent(tick=0, channel=0, data=[73, 71]),
   midi.NoteOnEvent(tick=240, channel=0, data=[73, 0]),
   midi.NoteOnEvent(tick=0, channel=0, data=[85, 0]),
   midi.NoteOnEvent(tick=0, channel=0, data=[76, 75]),
   midi.NoteOnEvent(tick=0, channel=0, data=[83, 93]),
   midi.NoteOnEvent(tick=240, channel=0, data=[76, 0]),
   midi.NoteOnEvent(tick=0, channel=0, data=[73, 71]),
   midi.NoteOnEvent(tick=210, channel=0, data=[83, 0]),
   midi.NoteOnEvent(tick=30, channel=0, data=[73, 0]),
   midi.NoteOnEvent(tick=0, channel=0, data=[76, 75]),
   midi.NoteOnEvent(tick=0, channel=0, data=[83, 93]),
   midi.NoteOnEvent(tick=240, channel=0, data=[76, 0]),
   midi.NoteOnEvent(tick=0, channel=0, data=[73, 71]),
   midi.NoteOnEvent(tick=240, channel=0, data=[73, 0]),
   midi.NoteOnEvent(tick=0, channel=0, data=[83, 0]),
   midi.NoteOnEvent(tick=0, channel=0, data=[76, 75]),
   midi.NoteOnEvent(tick=0, channel=0, data=[82, 93]),
   midi.NoteOnEvent(tick=240, channel=0, data=[76, 0]),
   midi.NoteOnEvent(tick=0, channel=0, data=[73, 71]),
   midi.NoteOnEvent(tick=240, channel=0, data=[73, 0]),
   midi.NoteOnEvent(tick=0, channel=0, data=[82, 0]),
   midi.NoteOnEvent(tick=0, channel=0, data=[74, 75]),
   midi.NoteOnEvent(tick=0, channel=0, data=[79, 93]),
   midi.NoteOnEvent(tick=240, channel=0, data=[74, 0]),
   midi.NoteOnEvent(tick=0, channel=0, data=[71, 63]),
   midi.NoteOnEvent(tick=210, channel=0, data=[79, 0]),
   midi.NoteOnEvent(tick=30, channel=0, data=[71, 0]),
   midi.NoteOnEvent(tick=0, channel=0, data=[73, 75]),
   midi.NoteOnEvent(tick=0, channel=0, data=[79, 93]),
   midi.NoteOnEvent(tick=240, channel=0, data=[73, 0]),
   midi.NoteOnEvent(tick=0, channel=0, data=[70, 68]),
   midi.NoteOnEvent(tick=240, channel=0, data=[70, 0]),
   midi.NoteOnEvent(tick=0, channel=0, data=[79, 0]),
   midi.NoteOnEvent(tick=0, channel=0, data=[73, 71]),
   midi.NoteOnEvent(tick=0, channel=0, data=[78, 90]),
   midi.NoteOnEvent(tick=240, channel=0, data=[73, 0]),
   midi.NoteOnEvent(tick=0, channel=0, data=[70, 65]),
   midi.NoteOnEvent(tick=240, channel=0, data=[70, 0]),
   midi.NoteOnEvent(tick=0, channel=0, data=[78, 0]),
   midi.NoteOnEvent(tick=0, channel=0, data=[73, 66]),
   midi.NoteOnEvent(tick=0, channel=0, data=[76, 83]),
   midi.NoteOnEvent(tick=240, channel=0, data=[73, 0]),
   midi.NoteOnEvent(tick=0, channel=0, data=[67, 60]),
   midi.NoteOnEvent(tick=210, channel=0, data=[76, 0]),
   midi.NoteOnEvent(tick=30, channel=0, data=[67, 0]),
   midi.NoteOnEvent(tick=0, channel=0, data=[73, 61]),
   midi.NoteOnEvent(tick=0, channel=0, data=[76, 77]),
   midi.NoteOnEvent(tick=240, channel=0, data=[73, 0]),
   midi.NoteOnEvent(tick=0, channel=0, data=[66, 56]),
   midi.NoteOnEvent(tick=240, channel=0, data=[66, 0]),
   midi.NoteOnEvent(tick=0, channel=0, data=[76, 0]),
   midi.NoteOnEvent(tick=0, channel=0, data=[72, 57]),
   midi.NoteOnEvent(tick=0, channel=0, data=[75, 71]),
   midi.NoteOnEvent(tick=240, channel=0, data=[72, 0]),
   midi.NoteOnEvent(tick=0, channel=0, data=[70, 51]),
   midi.NoteOnEvent(tick=240, channel=0, data=[70, 0]),
   midi.NoteOnEvent(tick=0, channel=0, data=[75, 0]),
   midi.NoteOnEvent(tick=0, channel=0, data=[71, 52]),
   midi.NoteOnEvent(tick=0, channel=0, data=[74, 66]),
   midi.NoteOnEvent(tick=240, channel=0, data=[71, 0]),
   midi.NoteOnEvent(tick=0, channel=0, data=[65, 47]),
   midi.NoteOnEvent(tick=210, channel=0, data=[74, 0]),
   midi.NoteOnEvent(tick=30, channel=0, data=[65, 0]),
   midi.NoteOnEvent(tick=0, channel=0, data=[71, 48]),
   midi.NoteOnEvent(tick=0, channel=0, data=[74, 60]),
   midi.NoteOnEvent(tick=240, channel=0, data=[71, 0]),
   midi.NoteOnEvent(tick=0, channel=0, data=[64, 44]),
   midi.NoteOnEvent(tick=240, channel=0, data=[64, 0]),
   midi.NoteOnEvent(tick=0, channel=0, data=[74, 0]),
   midi.NoteOnEvent(tick=0, channel=0, data=[69, 44]),
   midi.NoteOnEvent(tick=0, channel=0, data=[73, 55]),
   midi.NoteOnEvent(tick=240, channel=0, data=[69, 0]),
   midi.NoteOnEvent(tick=0, channel=0, data=[68, 39]),
   midi.NoteOnEvent(tick=240, channel=0, data=[68, 0]),
   midi.NoteOnEvent(tick=0, channel=0, data=[73, 0]),
   midi.NoteOnEvent(tick=0, channel=0, data=[69, 40]),
   midi.NoteOnEvent(tick=0, channel=0, data=[72, 50]),
   midi.NoteOnEvent(tick=240, channel=0, data=[69, 0]),
   midi.NoteOnEvent(tick=0, channel=0, data=[65, 38]),
   midi.NoteOnEvent(tick=240, channel=0, data=[65, 0]),
   midi.NoteOnEvent(tick=0, channel=0, data=[72, 0]),
   midi.NoteOnEvent(tick=0, channel=0, data=[68, 40]),
   midi.NoteOnEvent(tick=0, channel=0, data=[71, 50]),
   midi.NoteOnEvent(tick=240, channel=0, data=[68, 0]),
   midi.NoteOnEvent(tick=0, channel=0, data=[64, 38]),
   midi.NoteOnEvent(tick=240, channel=0, data=[64, 0]),
   midi.NoteOnEvent(tick=0, channel=0, data=[71, 0]),
   midi.NoteOnEvent(tick=0, channel=0, data=[74, 74]),
   midi.NoteOnEvent(tick=0, channel=0, data=[71, 62]),
   midi.NoteOnEvent(tick=240, channel=0, data=[71, 0]),
   midi.NoteOnEvent(tick=0, channel=0, data=[64, 56]),
   midi.NoteOnEvent(tick=240, channel=0, data=[64, 0]),
   midi.NoteOnEvent(tick=0, channel=0, data=[74, 0]),
   midi.NoteOnEvent(tick=0, channel=0, data=[72, 62]),
   midi.NoteOnEvent(tick=0, channel=0, data=[69, 62]),
   midi.NoteOnEvent(tick=240, channel=0, data=[69, 0]),
   midi.NoteOnEvent(tick=0, channel=0, data=[64, 38]),
   midi.NoteOnEvent(tick=240, channel=0, data=[64, 0]),
   midi.NoteOnEvent(tick=0, channel=0, data=[72, 0]),
   midi.NoteOnEvent(tick=0, channel=0, data=[68, 40]),
   midi.NoteOnEvent(tick=0, channel=0, data=[71, 50]),
   midi.NoteOnEvent(tick=240, channel=0, data=[68, 0]),
   midi.NoteOnEvent(tick=0, channel=0, data=[64, 38]),
   midi.NoteOnEvent(tick=240, channel=0, data=[64, 0]),
   midi.NoteOnEvent(tick=0, channel=0, data=[71, 0]),
   midi.NoteOnEvent(tick=0, channel=0, data=[76, 74]),
   midi.NoteOnEvent(tick=0, channel=0, data=[71, 62]),
   midi.NoteOnEvent(tick=240, channel=0, data=[71, 0]),
   midi.NoteOnEvent(tick=0, channel=0, data=[64, 56]),
   midi.NoteOnEvent(tick=240, channel=0, data=[64, 0]),
   midi.NoteOnEvent(tick=0, channel=0, data=[76, 0]),
   midi.NoteOnEvent(tick=0, channel=0, data=[72, 62]),
   midi.NoteOnEvent(tick=0, channel=0, data=[69, 62]),
   midi.NoteOnEvent(tick=240, channel=0, data=[69, 0]),
   midi.NoteOnEvent(tick=0, channel=0, data=[64, 38]),
   midi.NoteOnEvent(tick=240, channel=0, data=[64, 0]),
   midi.NoteOnEvent(tick=0, channel=0, data=[72, 0]),
   midi.NoteOnEvent(tick=0, channel=0, data=[68, 40]),
   midi.NoteOnEvent(tick=0, channel=0, data=[71, 50]),
   midi.NoteOnEvent(tick=240, channel=0, data=[68, 0]),
   midi.NoteOnEvent(tick=0, channel=0, data=[64, 38]),
   midi.NoteOnEvent(tick=240, channel=0, data=[64, 0]),
   midi.NoteOnEvent(tick=0, channel=0, data=[71, 0]),
   midi.NoteOnEvent(tick=0, channel=0, data=[74, 74]),
   midi.NoteOnEvent(tick=0, channel=0, data=[71, 62]),
   midi.NoteOnEvent(tick=240, channel=0, data=[71, 0]),
   midi.NoteOnEvent(tick=0, channel=0, data=[64, 56]),
   midi.NoteOnEvent(tick=240, channel=0, data=[64, 0]),
   midi.NoteOnEvent(tick=0, channel=0, data=[74, 0]),
   midi.NoteOnEvent(tick=0, channel=0, data=[72, 62]),
   midi.NoteOnEvent(tick=0, channel=0, data=[69, 62]),
   midi.NoteOnEvent(tick=240, channel=0, data=[69, 0]),
   midi.NoteOnEvent(tick=0, channel=0, data=[64, 38]),
   midi.NoteOnEvent(tick=240, channel=0, data=[64, 0]),
   midi.NoteOnEvent(tick=0, channel=0, data=[72, 0]),
   midi.NoteOnEvent(tick=0, channel=0, data=[68, 40]),
   midi.NoteOnEvent(tick=0, channel=0, data=[71, 50]),
   midi.NoteOnEvent(tick=240, channel=0, data=[68, 0]),
   midi.NoteOnEvent(tick=0, channel=0, data=[64, 38]),
   midi.NoteOnEvent(tick=240, channel=0, data=[64, 0]),
   midi.NoteOnEvent(tick=0, channel=0, data=[71, 0]),
   midi.NoteOnEvent(tick=0, channel=0, data=[76, 74]),
   midi.NoteOnEvent(tick=0, channel=0, data=[71, 62]),
   midi.NoteOnEvent(tick=240, channel=0, data=[71, 0]),
   midi.NoteOnEvent(tick=0, channel=0, data=[64, 56]),
   midi.NoteOnEvent(tick=240, channel=0, data=[64, 0]),
   midi.NoteOnEvent(tick=0, channel=0, data=[76, 0]),
   midi.NoteOnEvent(tick=0, channel=0, data=[72, 62]),
   midi.NoteOnEvent(tick=0, channel=0, data=[69, 62]),
   midi.NoteOnEvent(tick=240, channel=0, data=[69, 0]),
   midi.NoteOnEvent(tick=0, channel=0, data=[64, 38]),
   midi.NoteOnEvent(tick=240, channel=0, data=[64, 0]),
   midi.NoteOnEvent(tick=0, channel=0, data=[72, 0]),
   midi.NoteOnEvent(tick=0, channel=0, data=[68, 40]),
   midi.NoteOnEvent(tick=0, channel=0, data=[71, 50]),
   midi.NoteOnEvent(tick=240, channel=0, data=[71, 0]),
   midi.NoteOnEvent(tick=0, channel=0, data=[68, 0]),
   midi.NoteOnEvent(tick=0, channel=0, data=[64, 38]),
   midi.NoteOnEvent(tick=240, channel=0, data=[64, 0]),
   midi.NoteOnEvent(tick=0, channel=0, data=[63, 42]),
   midi.NoteOnEvent(tick=240, channel=0, data=[63, 0]),
   midi.NoteOnEvent(tick=0, channel=0, data=[64, 38]),
   midi.NoteOnEvent(tick=240, channel=0, data=[64, 0]),
   midi.NoteOnEvent(tick=0, channel=0, data=[68, 42]),
   midi.NoteOnEvent(tick=240, channel=0, data=[68, 0]),
   midi.NoteOnEvent(tick=0, channel=0, data=[64, 38]),
   midi.NoteOnEvent(tick=240, channel=0, data=[64, 0]),
   midi.NoteOnEvent(tick=0, channel=0, data=[71, 45]),
   midi.NoteOnEvent(tick=240, channel=0, data=[71, 0]),
   midi.NoteOnEvent(tick=0, channel=0, data=[68, 45]),
   midi.NoteOnEvent(tick=240, channel=0, data=[68, 0]),
   midi.NoteOnEvent(tick=0, channel=0, data=[67, 46]),
   midi.NoteOnEvent(tick=240, channel=0, data=[67, 0]),
   midi.NoteOnEvent(tick=0, channel=0, data=[68, 49]),
   midi.NoteOnEvent(tick=240, channel=0, data=[68, 0]),
   midi.NoteOnEvent(tick=0, channel=0, data=[71, 50]),
   midi.NoteOnEvent(tick=240, channel=0, data=[71, 0]),
   midi.NoteOnEvent(tick=0, channel=0, data=[68, 52]),
   midi.NoteOnEvent(tick=240, channel=0, data=[68, 0]),
   midi.NoteOnEvent(tick=0, channel=0, data=[74, 54]),
   midi.NoteOnEvent(tick=240, channel=0, data=[74, 0]),
   midi.NoteOnEvent(tick=0, channel=0, data=[71, 54]),
   midi.NoteOnEvent(tick=240, channel=0, data=[71, 0]),
   midi.NoteOnEvent(tick=0, channel=0, data=[77, 55]),
   midi.NoteOnEvent(tick=240, channel=0, data=[77, 0]),
   midi.NoteOnEvent(tick=0, channel=0, data=[74, 56]),
   midi.NoteOnEvent(tick=240, channel=0, data=[74, 0]),
   midi.NoteOnEvent(tick=0, channel=0, data=[80, 59]),
   midi.NoteOnEvent(tick=240, channel=0, data=[80, 0]),
   midi.NoteOnEvent(tick=0, channel=0, data=[77, 63]),
   midi.NoteOnEvent(tick=240, channel=0, data=[77, 0]),
   midi.NoteOnEvent(tick=0, channel=0, data=[83, 70]),
   midi.NoteOnEvent(tick=240, channel=0, data=[83, 0]),
   midi.NoteOnEvent(tick=0, channel=0, data=[80, 62]),
   midi.NoteOnEvent(tick=240, channel=0, data=[80, 0]),
   midi.NoteOnEvent(tick=0, channel=0, data=[86, 70]),
   midi.NoteOnEvent(tick=240, channel=0, data=[86, 0]),
   midi.NoteOnEvent(tick=0, channel=0, data=[83, 59]),
   midi.NoteOnEvent(tick=240, channel=0, data=[83, 0]),
   midi.NoteOnEvent(tick=0, channel=0, data=[81, 65]),
   midi.NoteOnEvent(tick=240, channel=0, data=[81, 0]),
   midi.NoteOnEvent(tick=0, channel=0, data=[80, 61]),
   midi.NoteOnEvent(tick=240, channel=0, data=[80, 0]),
   midi.NoteOnEvent(tick=0, channel=0, data=[88, 69]),
   midi.NoteOnEvent(tick=240, channel=0, data=[88, 0]),
   midi.NoteOnEvent(tick=0, channel=0, data=[86, 63]),
   midi.NoteOnEvent(tick=240, channel=0, data=[86, 0]),
   midi.NoteOnEvent(tick=0, channel=0, data=[85, 59]),
   midi.NoteOnEvent(tick=240, channel=0, data=[85, 0]),
   midi.NoteOnEvent(tick=0, channel=0, data=[83, 58]),
   midi.NoteOnEvent(tick=240, channel=0, data=[83, 0]),
   midi.NoteOnEvent(tick=0, channel=0, data=[81, 56]),
   midi.NoteOnEvent(tick=240, channel=0, data=[81, 0]),
   midi.NoteOnEvent(tick=0, channel=0, data=[80, 49]),
   midi.NoteOnEvent(tick=240, channel=0, data=[80, 0]),
   midi.NoteOnEvent(tick=0, channel=0, data=[81, 55]),
   midi.NoteOnEvent(tick=240, channel=0, data=[81, 0]),
   midi.NoteOnEvent(tick=0, channel=0, data=[78, 53]),
   midi.NoteOnEvent(tick=240, channel=0, data=[78, 0]),
   midi.NoteOnEvent(tick=0, channel=0, data=[75, 51]),
   midi.NoteOnEvent(tick=240, channel=0, data=[75, 0]),
   midi.NoteOnEvent(tick=0, channel=0, data=[71, 51]),
   midi.NoteOnEvent(tick=240, channel=0, data=[71, 0]),
   midi.NoteOnEvent(tick=0, channel=0, data=[69, 48]),
   midi.NoteOnEvent(tick=240, channel=0, data=[69, 0]),
   midi.NoteOnEvent(tick=0, channel=0, data=[66, 46]),
   midi.NoteOnEvent(tick=240, channel=0, data=[66, 0]),
   midi.NoteOnEvent(tick=0, channel=0, data=[74, 61]),
   midi.NoteOnEvent(tick=0, channel=0, data=[68, 61]),
   midi.NoteOnEvent(tick=240, channel=0, data=[68, 0]),
   midi.NoteOnEvent(tick=0, channel=0, data=[74, 0]),
   midi.NoteOnEvent(tick=0, channel=0, data=[71, 51]),
   midi.NoteOnEvent(tick=240, channel=0, data=[71, 0]),
   midi.NoteOnEvent(tick=0, channel=0, data=[68, 48]),
   midi.NoteOnEvent(tick=240, channel=0, data=[68, 0]),
   midi.NoteOnEvent(tick=0, channel=0, data=[64, 47]),
   midi.NoteOnEvent(tick=240, channel=0, data=[64, 0]),
   midi.NoteOnEvent(tick=0, channel=0, data=[62, 46]),
   midi.NoteOnEvent(tick=240, channel=0, data=[62, 0]),
   midi.NoteOnEvent(tick=0, channel=0, data=[59, 43]),
   midi.NoteOnEvent(tick=240, channel=0, data=[59, 0]),
   midi.NoteOnEvent(tick=0, channel=0, data=[67, 49]),
   midi.NoteOnEvent(tick=240, channel=0, data=[67, 0]),
   midi.NoteOnEvent(tick=0, channel=0, data=[64, 42]),
   midi.NoteOnEvent(tick=240, channel=0, data=[64, 0]),
   midi.NoteOnEvent(tick=0, channel=0, data=[61, 45]),
   midi.NoteOnEvent(tick=240, channel=0, data=[61, 0]),
   midi.NoteOnEvent(tick=0, channel=0, data=[57, 46]),
   midi.NoteOnEvent(tick=240, channel=0, data=[57, 0]),
   midi.NoteOnEvent(tick=0, channel=0, data=[56, 48]),
   midi.NoteOnEvent(tick=240, channel=0, data=[56, 0]),
   midi.NoteOnEvent(tick=0, channel=0, data=[55, 52]),
   midi.NoteOnEvent(tick=240, channel=0, data=[55, 0]),
   midi.NoteOnEvent(tick=0, channel=0, data=[54, 54]),
   midi.NoteOnEvent(tick=240, channel=0, data=[54, 0]),
   midi.NoteOnEvent(tick=0, channel=0, data=[58, 38]),
   midi.NoteOnEvent(tick=240, channel=0, data=[58, 0]),
   midi.NoteOnEvent(tick=0, channel=0, data=[59, 45]),
   midi.NoteOnEvent(tick=240, channel=0, data=[59, 0]),
   midi.NoteOnEvent(tick=0, channel=0, data=[54, 38]),
   midi.NoteOnEvent(tick=240, channel=0, data=[54, 0]),
   midi.NoteOnEvent(tick=0, channel=0, data=[61, 43]),
   midi.NoteOnEvent(tick=240, channel=0, data=[61, 0]),
   midi.NoteOnEvent(tick=0, channel=0, data=[54, 38]),
   midi.NoteOnEvent(tick=240, channel=0, data=[54, 0]),
   midi.NoteOnEvent(tick=0, channel=0, data=[62, 50]),
   midi.NoteOnEvent(tick=240, channel=0, data=[62, 0]),
   midi.NoteOnEvent(tick=0, channel=0, data=[56, 38]),
   midi.NoteOnEvent(tick=240, channel=0, data=[56, 0]),
   midi.NoteOnEvent(tick=0, channel=0, data=[52, 43]),
   midi.NoteOnEvent(tick=240, channel=0, data=[52, 0]),
   midi.NoteOnEvent(tick=0, channel=0, data=[56, 38]),
   midi.NoteOnEvent(tick=240, channel=0, data=[56, 0]),
   midi.NoteOnEvent(tick=0, channel=0, data=[50, 45]),
   midi.NoteOnEvent(tick=240, channel=0, data=[50, 0]),
   midi.NoteOnEvent(tick=0, channel=0, data=[56, 37]),
   midi.NoteOnEvent(tick=240, channel=0, data=[56, 0]),
   midi.NoteOnEvent(tick=0, channel=0, data=[49, 45]),
   midi.NoteOnEvent(tick=240, channel=0, data=[49, 0]),
   midi.NoteOnEvent(tick=0, channel=0, data=[52, 33]),
   midi.NoteOnEvent(tick=240, channel=0, data=[52, 0]),
   midi.NoteOnEvent(tick=0, channel=0, data=[57, 33]),
   midi.NoteOnEvent(tick=240, channel=0, data=[57, 0]),
   midi.NoteOnEvent(tick=0, channel=0, data=[59, 33]),
   midi.NoteOnEvent(tick=240, channel=0, data=[59, 0]),
   midi.NoteOnEvent(tick=0, channel=0, data=[61, 33]),
   midi.NoteOnEvent(tick=240, channel=0, data=[61, 0]),
   midi.NoteOnEvent(tick=0, channel=0, data=[64, 33]),
   midi.NoteOnEvent(tick=240, channel=0, data=[64, 0]),
   midi.NoteOnEvent(tick=0, channel=0, data=[61, 36]),
   midi.NoteOnEvent(tick=240, channel=0, data=[61, 0]),
   midi.NoteOnEvent(tick=0, channel=0, data=[59, 31]),
   midi.NoteOnEvent(tick=240, channel=0, data=[59, 0]),
   midi.NoteOnEvent(tick=0, channel=0, data=[57, 33]),
   midi.NoteOnEvent(tick=240, channel=0, data=[57, 0]),
   midi.NoteOnEvent(tick=0, channel=0, data=[52, 33]),
   midi.NoteOnEvent(tick=240, channel=0, data=[64, 50]),
   midi.NoteOnEvent(tick=480, channel=0, data=[64, 0]),
   midi.NoteOnEvent(tick=0, channel=0, data=[52, 0]),
   midi.NoteOnEvent(tick=0, channel=0, data=[69, 65]),
   midi.NoteOnEvent(tick=0, channel=0, data=[57, 55]),
   midi.NoteOnEvent(tick=1920, channel=0, data=[57, 0]),
   midi.NoteOnEvent(tick=0, channel=0, data=[69, 0]),
   midi.NoteOnEvent(tick=0, channel=0, data=[68, 69]),
   midi.NoteOnEvent(tick=0, channel=0, data=[56, 58]),
   midi.NoteOnEvent(tick=480, channel=0, data=[56, 0]),
   midi.NoteOnEvent(tick=0, channel=0, data=[68, 0]),
   midi.NoteOnEvent(tick=0, channel=0, data=[57, 62]),
   midi.NoteOnEvent(tick=0, channel=0, data=[69, 74]),
   midi.NoteOnEvent(tick=480, channel=0, data=[69, 0]),
   midi.NoteOnEvent(tick=0, channel=0, data=[57, 0]),
   midi.NoteOnEvent(tick=0, channel=0, data=[71, 84]),
   midi.NoteOnEvent(tick=0, channel=0, data=[59, 71]),
   midi.NoteOnEvent(tick=1440, channel=0, data=[59, 0]),
   midi.NoteOnEvent(tick=0, channel=0, data=[71, 0]),
   midi.NoteOnEvent(tick=0, channel=0, data=[73, 77]),
   midi.NoteOnEvent(tick=0, channel=0, data=[61, 65]),
   midi.NoteOnEvent(tick=1440, channel=0, data=[61, 0]),
   midi.NoteOnEvent(tick=0, channel=0, data=[73, 0]),
   midi.NoteOnEvent(tick=0, channel=0, data=[76, 89]),
   midi.NoteOnEvent(tick=0, channel=0, data=[73, 89]),
   midi.NoteOnEvent(tick=0, channel=0, data=[64, 75]),
   midi.NoteOnEvent(tick=480, channel=0, data=[64, 0]),
   midi.NoteOnEvent(tick=0, channel=0, data=[73, 0]),
   midi.NoteOnEvent(tick=0, channel=0, data=[76, 0]),
   midi.NoteOnEvent(tick=0, channel=0, data=[74, 76]),
   midi.NoteOnEvent(tick=0, channel=0, data=[71, 76]),
   midi.NoteOnEvent(tick=0, channel=0, data=[62, 63]),
   midi.NoteOnEvent(tick=480, channel=0, data=[62, 0]),
   midi.NoteOnEvent(tick=0, channel=0, data=[71, 0]),
   midi.NoteOnEvent(tick=0, channel=0, data=[74, 0]),
   midi.NoteOnEvent(tick=0, channel=0, data=[73, 70]),
   midi.NoteOnEvent(tick=0, channel=0, data=[69, 70]),
   midi.NoteOnEvent(tick=0, channel=0, data=[61, 59]),
   midi.NoteOnEvent(tick=480, channel=0, data=[61, 0]),
   midi.NoteOnEvent(tick=0, channel=0, data=[69, 0]),
   midi.NoteOnEvent(tick=0, channel=0, data=[73, 0]),
   midi.NoteOnEvent(tick=0, channel=0, data=[71, 82]),
   midi.NoteOnEvent(tick=0, channel=0, data=[68, 82]),
   midi.NoteOnEvent(tick=0, channel=0, data=[59, 70]),
   midi.NoteOnEvent(tick=480, channel=0, data=[59, 0]),
   midi.NoteOnEvent(tick=0, channel=0, data=[68, 0]),
   midi.NoteOnEvent(tick=0, channel=0, data=[71, 0]),
   midi.NoteOnEvent(tick=0, channel=0, data=[73, 75]),
   midi.NoteOnEvent(tick=0, channel=0, data=[61, 62]),
   midi.NoteOnEvent(tick=480, channel=0, data=[61, 0]),
   midi.NoteOnEvent(tick=0, channel=0, data=[73, 0]),
   midi.NoteOnEvent(tick=0, channel=0, data=[71, 68]),
   midi.NoteOnEvent(tick=0, channel=0, data=[59, 57]),
   midi.NoteOnEvent(tick=480, channel=0, data=[59, 0]),
   midi.NoteOnEvent(tick=0, channel=0, data=[71, 0]),
   midi.NoteOnEvent(tick=0, channel=0, data=[69, 90]),
   midi.NoteOnEvent(tick=0, channel=0, data=[57, 77]),
   midi.NoteOnEvent(tick=960, channel=0, data=[57, 0]),
   midi.NoteOnEvent(tick=0, channel=0, data=[69, 0]),
   midi.NoteOnEvent(tick=0, channel=0, data=[81, 86]),
   midi.NoteOnEvent(tick=0, channel=0, data=[69, 73]),
   midi.NoteOnEvent(tick=480, channel=0, data=[69, 0]),
   midi.NoteOnEvent(tick=0, channel=0, data=[81, 0]),
   midi.NoteOnEvent(tick=0, channel=0, data=[83, 91]),
   midi.NoteOnEvent(tick=0, channel=0, data=[71, 77]),
   midi.NoteOnEvent(tick=960, channel=0, data=[71, 0]),
   midi.NoteOnEvent(tick=0, channel=0, data=[83, 0]),
   midi.NoteOnEvent(tick=0, channel=0, data=[85, 95]),
   midi.NoteOnEvent(tick=0, channel=0, data=[73, 80]),
   midi.NoteOnEvent(tick=480, channel=0, data=[73, 0]),
   midi.NoteOnEvent(tick=0, channel=0, data=[85, 0]),
   midi.NoteOnEvent(tick=0, channel=0, data=[76, 82]),
   midi.NoteOnEvent(tick=0, channel=0, data=[85, 97]),
   midi.NoteOnEvent(tick=0, channel=0, data=[88, 97]),
   midi.NoteOnEvent(tick=480, channel=0, data=[88, 0]),
   midi.NoteOnEvent(tick=0, channel=0, data=[85, 0]),
   midi.NoteOnEvent(tick=0, channel=0, data=[76, 0]),
   midi.NoteOnEvent(tick=0, channel=0, data=[74, 75]),
   midi.NoteOnEvent(tick=0, channel=0, data=[83, 89]),
   midi.NoteOnEvent(tick=0, channel=0, data=[86, 89]),
   midi.NoteOnEvent(tick=480, channel=0, data=[86, 0]),
   midi.NoteOnEvent(tick=0, channel=0, data=[83, 0]),
   midi.NoteOnEvent(tick=0, channel=0, data=[74, 0]),
   midi.NoteOnEvent(tick=0, channel=0, data=[73, 69]),
   midi.NoteOnEvent(tick=0, channel=0, data=[81, 82]),
   midi.NoteOnEvent(tick=0, channel=0, data=[85, 82]),
   midi.NoteOnEvent(tick=480, channel=0, data=[85, 0]),
   midi.NoteOnEvent(tick=0, channel=0, data=[81, 0]),
   midi.NoteOnEvent(tick=0, channel=0, data=[73, 0]),
   midi.NoteOnEvent(tick=0, channel=0, data=[71, 80]),
   midi.NoteOnEvent(tick=0, channel=0, data=[80, 95]),
   midi.NoteOnEvent(tick=0, channel=0, data=[83, 95]),
   midi.NoteOnEvent(tick=480, channel=0, data=[83, 0]),
   midi.NoteOnEvent(tick=0, channel=0, data=[80, 0]),
   midi.NoteOnEvent(tick=0, channel=0, data=[71, 0]),
   midi.NoteOnEvent(tick=0, channel=0, data=[73, 75]),
   midi.NoteOnEvent(tick=0, channel=0, data=[85, 89]),
   midi.NoteOnEvent(tick=480, channel=0, data=[85, 0]),
   midi.NoteOnEvent(tick=0, channel=0, data=[73, 0]),
   midi.NoteOnEvent(tick=0, channel=0, data=[71, 68]),
   midi.NoteOnEvent(tick=0, channel=0, data=[83, 80]),
   midi.NoteOnEvent(tick=480, channel=0, data=[83, 0]),
   midi.NoteOnEvent(tick=0, channel=0, data=[71, 0]),
   midi.NoteOnEvent(tick=0, channel=0, data=[69, 79]),
   midi.NoteOnEvent(tick=0, channel=0, data=[81, 93]),
   midi.NoteOnEvent(tick=480, channel=0, data=[81, 0]),
   midi.NoteOnEvent(tick=0, channel=0, data=[69, 0]),
   midi.NoteOnEvent(tick=0, channel=0, data=[76, 80]),
   midi.NoteOnEvent(tick=0, channel=0, data=[80, 80]),
   midi.NoteOnEvent(tick=480, channel=0, data=[80, 0]),
   midi.NoteOnEvent(tick=0, channel=0, data=[76, 0]),
   midi.NoteOnEvent(tick=0, channel=0, data=[74, 77]),
   midi.NoteOnEvent(tick=0, channel=0, data=[78, 77]),
   midi.NoteOnEvent(tick=480, channel=0, data=[78, 0]),
   midi.NoteOnEvent(tick=0, channel=0, data=[74, 0]),
   midi.NoteOnEvent(tick=0, channel=0, data=[73, 72]),
   midi.NoteOnEvent(tick=0, channel=0, data=[76, 72]),
   midi.NoteOnEvent(tick=480, channel=0, data=[76, 0]),
   midi.NoteOnEvent(tick=0, channel=0, data=[73, 0]),
   midi.NoteOnEvent(tick=0, channel=0, data=[72, 70]),
   midi.NoteOnEvent(tick=0, channel=0, data=[75, 70]),
   midi.NoteOnEvent(tick=480, channel=0, data=[75, 0]),
   midi.NoteOnEvent(tick=0, channel=0, data=[72, 0]),
   midi.NoteOnEvent(tick=0, channel=0, data=[71, 70]),
   midi.NoteOnEvent(tick=0, channel=0, data=[74, 70]),
   midi.NoteOnEvent(tick=480, channel=0, data=[74, 0]),
   midi.NoteOnEvent(tick=0, channel=0, data=[71, 0]),
   midi.NoteOnEvent(tick=0, channel=0, data=[73, 74]),
   midi.NoteOnEvent(tick=0, channel=0, data=[69, 65]),
   midi.NoteOnEvent(tick=240, channel=0, data=[69, 0]),
   midi.NoteOnEvent(tick=0, channel=0, data=[73, 0]),
   midi.NoteOnEvent(tick=240, channel=0, data=[74, 57]),
   midi.NoteOnEvent(tick=0, channel=0, data=[69, 50]),
   midi.NoteOnEvent(tick=180, channel=0, data=[69, 0]),
   midi.NoteOnEvent(tick=0, channel=0, data=[74, 0]),
   midi.NoteOnEvent(tick=300, channel=0, data=[73, 51]),
   midi.NoteOnEvent(tick=0, channel=0, data=[69, 45]),
   midi.NoteOnEvent(tick=180, channel=0, data=[69, 0]),
   midi.NoteOnEvent(tick=0, channel=0, data=[73, 0]),
   midi.NoteOnEvent(tick=300, channel=0, data=[69, 50]),
   midi.NoteOnEvent(tick=0, channel=0, data=[66, 50]),
   midi.NoteOnEvent(tick=0, channel=0, data=[71, 57]),
   midi.NoteOnEvent(tick=180, channel=0, data=[71, 0]),
   midi.NoteOnEvent(tick=0, channel=0, data=[66, 0]),
   midi.NoteOnEvent(tick=0, channel=0, data=[69, 0]),
   midi.NoteOnEvent(tick=780, channel=0, data=[68, 65]),
   midi.NoteOnEvent(tick=0, channel=0, data=[76, 74]),
   midi.NoteOnEvent(tick=240, channel=0, data=[76, 0]),
   midi.NoteOnEvent(tick=0, channel=0, data=[68, 0]),
   midi.NoteOnEvent(tick=240, channel=0, data=[69, 67]),
   midi.NoteOnEvent(tick=0, channel=0, data=[81, 79]),
   midi.NoteOnEvent(tick=480, channel=0, data=[81, 0]),
   midi.NoteOnEvent(tick=0, channel=0, data=[69, 0]),
   midi.NoteOnEvent(tick=0, channel=0, data=[76, 57]),
   midi.NoteOnEvent(tick=0, channel=0, data=[80, 68]),
   midi.NoteOnEvent(tick=480, channel=0, data=[80, 0]),
   midi.NoteOnEvent(tick=0, channel=0, data=[76, 0]),
   midi.NoteOnEvent(tick=0, channel=0, data=[74, 55]),
   midi.NoteOnEvent(tick=0, channel=0, data=[78, 65]),
   midi.NoteOnEvent(tick=480, channel=0, data=[78, 0]),
   midi.NoteOnEvent(tick=0, channel=0, data=[74, 0]),
   midi.NoteOnEvent(tick=0, channel=0, data=[73, 51]),
   midi.NoteOnEvent(tick=0, channel=0, data=[76, 61]),
   midi.NoteOnEvent(tick=480, channel=0, data=[76, 0]),
   midi.NoteOnEvent(tick=0, channel=0, data=[73, 0]),
   midi.NoteOnEvent(tick=0, channel=0, data=[72, 50]),
   midi.NoteOnEvent(tick=0, channel=0, data=[75, 59]),
   midi.NoteOnEvent(tick=480, channel=0, data=[75, 0]),
   midi.NoteOnEvent(tick=0, channel=0, data=[72, 0]),
   midi.NoteOnEvent(tick=0, channel=0, data=[71, 50]),
   midi.NoteOnEvent(tick=0, channel=0, data=[74, 59]),
   midi.NoteOnEvent(tick=480, channel=0, data=[74, 0]),
   midi.NoteOnEvent(tick=0, channel=0, data=[71, 0]),
   midi.NoteOnEvent(tick=240, channel=0, data=[73, 47]),
   midi.NoteOnEvent(tick=240, channel=0, data=[73, 0]),
   midi.NoteOnEvent(tick=0, channel=0, data=[74, 47]),
   midi.NoteOnEvent(tick=240, channel=0, data=[74, 0]),
   midi.NoteOnEvent(tick=0, channel=0, data=[76, 47]),
   midi.NoteOnEvent(tick=240, channel=0, data=[76, 0]),
   midi.NoteOnEvent(tick=0, channel=0, data=[78, 51]),
   midi.NoteOnEvent(tick=240, channel=0, data=[78, 0]),
   midi.NoteOnEvent(tick=0, channel=0, data=[74, 47]),
   midi.NoteOnEvent(tick=240, channel=0, data=[74, 0]),
   midi.NoteOnEvent(tick=0, channel=0, data=[76, 50]),
   midi.NoteOnEvent(tick=240, channel=0, data=[76, 0]),
   midi.NoteOnEvent(tick=0, channel=0, data=[78, 47]),
   midi.NoteOnEvent(tick=240, channel=0, data=[78, 0]),
   midi.NoteOnEvent(tick=0, channel=0, data=[80, 49]),
   midi.NoteOnEvent(tick=240, channel=0, data=[80, 0]),
   midi.NoteOnEvent(tick=0, channel=0, data=[76, 47]),
   midi.NoteOnEvent(tick=240, channel=0, data=[76, 0]),
   midi.NoteOnEvent(tick=0, channel=0, data=[78, 50]),
   midi.NoteOnEvent(tick=240, channel=0, data=[78, 0]),
   midi.NoteOnEvent(tick=0, channel=0, data=[80, 47]),
   midi.NoteOnEvent(tick=240, channel=0, data=[80, 0]),
   midi.NoteOnEvent(tick=0, channel=0, data=[81, 50]),
   midi.NoteOnEvent(tick=240, channel=0, data=[81, 0]),
   midi.NoteOnEvent(tick=0, channel=0, data=[85, 51]),
   midi.NoteOnEvent(tick=240, channel=0, data=[85, 0]),
   midi.NoteOnEvent(tick=0, channel=0, data=[86, 51]),
   midi.NoteOnEvent(tick=240, channel=0, data=[86, 0]),
   midi.NoteOnEvent(tick=0, channel=0, data=[88, 50]),
   midi.NoteOnEvent(tick=240, channel=0, data=[88, 0]),
   midi.NoteOnEvent(tick=0, channel=0, data=[90, 54]),
   midi.NoteOnEvent(tick=240, channel=0, data=[90, 0]),
   midi.NoteOnEvent(tick=0, channel=0, data=[86, 48]),
   midi.NoteOnEvent(tick=240, channel=0, data=[86, 0]),
   midi.NoteOnEvent(tick=0, channel=0, data=[88, 50]),
   midi.NoteOnEvent(tick=240, channel=0, data=[88, 0]),
   midi.NoteOnEvent(tick=0, channel=0, data=[90, 47]),
   midi.NoteOnEvent(tick=240, channel=0, data=[90, 0]),
   midi.NoteOnEvent(tick=0, channel=0, data=[92, 47]),
   midi.NoteOnEvent(tick=240, channel=0, data=[92, 0]),
   midi.NoteOnEvent(tick=0, channel=0, data=[88, 45]),
   midi.NoteOnEvent(tick=240, channel=0, data=[88, 0]),
   midi.NoteOnEvent(tick=0, channel=0, data=[90, 47]),
   midi.NoteOnEvent(tick=240, channel=0, data=[90, 0]),
   midi.NoteOnEvent(tick=0, channel=0, data=[92, 44]),
   midi.NoteOnEvent(tick=240, channel=0, data=[92, 0]),
   midi.NoteOnEvent(tick=0, channel=0, data=[93, 52]),
   midi.NoteOnEvent(tick=240, channel=0, data=[93, 0]),
   midi.NoteOnEvent(tick=0, channel=0, data=[88, 52]),
   midi.NoteOnEvent(tick=240, channel=0, data=[88, 0]),
   midi.NoteOnEvent(tick=0, channel=0, data=[85, 48]),
   midi.NoteOnEvent(tick=240, channel=0, data=[85, 0]),
   midi.NoteOnEvent(tick=0, channel=0, data=[81, 48]),
   midi.NoteOnEvent(tick=240, channel=0, data=[81, 0]),
   midi.NoteOnEvent(tick=0, channel=0, data=[76, 48]),
   midi.NoteOnEvent(tick=240, channel=0, data=[76, 0]),
   midi.NoteOnEvent(tick=0, channel=0, data=[73, 48]),
   midi.NoteOnEvent(tick=240, channel=0, data=[73, 0]),
   midi.NoteOnEvent(tick=0, channel=0, data=[69, 46]),
   midi.NoteOnEvent(tick=240, channel=0, data=[69, 0]),
   midi.NoteOnEvent(tick=0, channel=0, data=[64, 45]),
   midi.NoteOnEvent(tick=240, channel=0, data=[64, 0]),
   midi.NoteOnEvent(tick=0, channel=0, data=[61, 43]),
   midi.NoteOnEvent(tick=240, channel=0, data=[61, 0]),
   midi.NoteOnEvent(tick=0, channel=0, data=[57, 42]),
   midi.NoteOnEvent(tick=240, channel=0, data=[57, 0]),
   midi.NoteOnEvent(tick=480, channel=0, data=[52, 56]),
   midi.NoteOnEvent(tick=240, channel=0, data=[47, 37]),
   midi.NoteOnEvent(tick=240, channel=0, data=[47, 0]),
   midi.NoteOnEvent(tick=0, channel=0, data=[48, 42]),
   midi.NoteOnEvent(tick=240, channel=0, data=[48, 0]),
   midi.NoteOnEvent(tick=0, channel=0, data=[45, 34]),
   midi.NoteOnEvent(tick=240, channel=0, data=[45, 0]),
   midi.NoteOnEvent(tick=0, channel=0, data=[52, 0]),
   midi.NoteOnEvent(tick=0, channel=0, data=[57, 54]),
   midi.NoteOnEvent(tick=240, channel=0, data=[52, 39]),
   midi.NoteOnEvent(tick=216, channel=0, data=[57, 0]),
   midi.NoteOnEvent(tick=24, channel=0, data=[52, 0]),
   midi.NoteOnEvent(tick=0, channel=0, data=[57, 55]),
   midi.NoteOnEvent(tick=240, channel=0, data=[51, 45]),
   midi.NoteOnEvent(tick=240, channel=0, data=[51, 0]),
   midi.NoteOnEvent(tick=0, channel=0, data=[52, 55]),
   midi.NoteOnEvent(tick=240, channel=0, data=[52, 0]),
   midi.NoteOnEvent(tick=0, channel=0, data=[48, 46]),
   midi.NoteOnEvent(tick=240, channel=0, data=[48, 0]),
   midi.NoteOnEvent(tick=0, channel=0, data=[57, 0]),
   midi.NoteOnEvent(tick=0, channel=0, data=[60, 66]),
   midi.NoteOnEvent(tick=240, channel=0, data=[57, 55]),
   midi.NoteOnEvent(tick=240, channel=0, data=[57, 0]),
   midi.NoteOnEvent(tick=0, channel=0, data=[60, 0]),
   midi.NoteOnEvent(tick=0, channel=0, data=[65, 73]),
   midi.NoteOnEvent(tick=240, channel=0, data=[59, 56]),
   midi.NoteOnEvent(tick=240, channel=0, data=[59, 0]),
   midi.NoteOnEvent(tick=0, channel=0, data=[60, 61]),
   midi.NoteOnEvent(tick=240, channel=0, data=[60, 0]),
   midi.NoteOnEvent(tick=0, channel=0, data=[57, 56]),
   midi.NoteOnEvent(tick=240, channel=0, data=[57, 0]),
   midi.NoteOnEvent(tick=0, channel=0, data=[65, 0]),
   midi.NoteOnEvent(tick=0, channel=0, data=[64, 68]),
   midi.NoteOnEvent(tick=240, channel=0, data=[60, 49]),
   midi.NoteOnEvent(tick=240, channel=0, data=[60, 0]),
   midi.NoteOnEvent(tick=0, channel=0, data=[64, 0]),
   midi.NoteOnEvent(tick=0, channel=0, data=[63, 68]),
   midi.NoteOnEvent(tick=240, channel=0, data=[59, 50]),
   midi.NoteOnEvent(tick=240, channel=0, data=[59, 0]),
   midi.NoteOnEvent(tick=0, channel=0, data=[60, 55]),
   midi.NoteOnEvent(tick=240, channel=0, data=[60, 0]),
   midi.NoteOnEvent(tick=0, channel=0, data=[57, 45]),
   midi.NoteOnEvent(tick=230, channel=0, data=[63, 0]),
   midi.NoteOnEvent(tick=10, channel=0, data=[57, 0]),
   midi.NoteOnEvent(tick=0, channel=0, data=[63, 51]),
   midi.NoteOnEvent(tick=240, channel=0, data=[60, 33]),
   midi.NoteOnEvent(tick=240, channel=0, data=[60, 0]),
   midi.NoteOnEvent(tick=0, channel=0, data=[63, 0]),
   midi.NoteOnEvent(tick=0, channel=0, data=[64, 45]),
   midi.NoteOnEvent(tick=480, channel=0, data=[64, 0]),
   midi.NoteOnEvent(tick=240, channel=0, data=[52, 39]),
   midi.NoteOnEvent(tick=240, channel=0, data=[52, 0]),
   midi.NoteOnEvent(tick=0, channel=0, data=[59, 40]),
   midi.NoteOnEvent(tick=240, channel=0, data=[59, 0]),
   midi.NoteOnEvent(tick=0, channel=0, data=[63, 42]),
   midi.NoteOnEvent(tick=240, channel=0, data=[63, 0]),
   midi.NoteOnEvent(tick=0, channel=0, data=[64, 44]),
   midi.NoteOnEvent(tick=480, channel=0, data=[64, 0]),
   midi.NoteOnEvent(tick=240, channel=0, data=[64, 43]),
   midi.NoteOnEvent(tick=240, channel=0, data=[64, 0]),
   midi.NoteOnEvent(tick=0, channel=0, data=[71, 48]),
   midi.NoteOnEvent(tick=240, channel=0, data=[71, 0]),
   midi.NoteOnEvent(tick=0, channel=0, data=[75, 50]),
   midi.NoteOnEvent(tick=240, channel=0, data=[75, 0]),
   midi.NoteOnEvent(tick=0, channel=0, data=[76, 52]),
   midi.NoteOnEvent(tick=480, channel=0, data=[76, 0]),
   midi.NoteOnEvent(tick=240, channel=0, data=[88, 58]),
   midi.NoteOnEvent(tick=240, channel=0, data=[88, 0]),
   midi.NoteOnEvent(tick=0, channel=0, data=[85, 57]),
   midi.NoteOnEvent(tick=240, channel=0, data=[85, 0]),
   midi.NoteOnEvent(tick=0, channel=0, data=[82, 55]),
   midi.NoteOnEvent(tick=240, channel=0, data=[82, 0]),
   midi.NoteOnEvent(tick=0, channel=0, data=[79, 54]),
   midi.NoteOnEvent(tick=240, channel=0, data=[79, 0]),
   midi.NoteOnEvent(tick=0, channel=0, data=[76, 54]),
   midi.NoteOnEvent(tick=240, channel=0, data=[76, 0]),
   midi.NoteOnEvent(tick=0, channel=0, data=[73, 54]),
   midi.NoteOnEvent(tick=240, channel=0, data=[73, 0]),
   midi.NoteOnEvent(tick=0, channel=0, data=[70, 53]),
   midi.NoteOnEvent(tick=240, channel=0, data=[70, 0]),
   midi.NoteOnEvent(tick=0, channel=0, data=[66, 50]),
   midi.NoteOnEvent(tick=240, channel=0, data=[66, 0]),
   midi.NoteOnEvent(tick=0, channel=0, data=[62, 46]),
   midi.NoteOnEvent(tick=240, channel=0, data=[62, 0]),
   midi.NoteOnEvent(tick=0, channel=0, data=[66, 56]),
   midi.NoteOnEvent(tick=240, channel=0, data=[61, 37]),
   midi.NoteOnEvent(tick=240, channel=0, data=[61, 0]),
   midi.NoteOnEvent(tick=0, channel=0, data=[62, 42]),
   midi.NoteOnEvent(tick=240, channel=0, data=[62, 0]),
   midi.NoteOnEvent(tick=0, channel=0, data=[59, 34]),
   midi.NoteOnEvent(tick=240, channel=0, data=[59, 0]),
   midi.NoteOnEvent(tick=0, channel=0, data=[66, 0]),
   midi.NoteOnEvent(tick=0, channel=0, data=[71, 54]),
   midi.NoteOnEvent(tick=240, channel=0, data=[66, 39]),
   midi.NoteOnEvent(tick=216, channel=0, data=[71, 0]),
   midi.NoteOnEvent(tick=24, channel=0, data=[66, 0]),
   midi.NoteOnEvent(tick=0, channel=0, data=[71, 55]),
   midi.NoteOnEvent(tick=240, channel=0, data=[65, 45]),
   midi.NoteOnEvent(tick=240, channel=0, data=[65, 0]),
   midi.NoteOnEvent(tick=0, channel=0, data=[66, 55]),
   midi.NoteOnEvent(tick=240, channel=0, data=[66, 0]),
   midi.NoteOnEvent(tick=0, channel=0, data=[62, 46]),
   midi.NoteOnEvent(tick=240, channel=0, data=[62, 0]),
   midi.NoteOnEvent(tick=0, channel=0, data=[71, 0]),
   midi.NoteOnEvent(tick=0, channel=0, data=[74, 66]),
   midi.NoteOnEvent(tick=240, channel=0, data=[71, 55]),
   midi.NoteOnEvent(tick=240, channel=0, data=[71, 0]),
   midi.NoteOnEvent(tick=0, channel=0, data=[74, 0]),
   midi.NoteOnEvent(tick=0, channel=0, data=[79, 73]),
   midi.NoteOnEvent(tick=240, channel=0, data=[73, 56]),
   midi.NoteOnEvent(tick=240, channel=0, data=[73, 0]),
   midi.NoteOnEvent(tick=0, channel=0, data=[74, 61]),
   midi.NoteOnEvent(tick=240, channel=0, data=[74, 0]),
   midi.NoteOnEvent(tick=0, channel=0, data=[71, 56]),
   midi.NoteOnEvent(tick=240, channel=0, data=[71, 0]),
   midi.NoteOnEvent(tick=0, channel=0, data=[79, 0]),
   midi.NoteOnEvent(tick=0, channel=0, data=[78, 68]),
   midi.NoteOnEvent(tick=240, channel=0, data=[74, 49]),
   midi.NoteOnEvent(tick=240, channel=0, data=[74, 0]),
   midi.NoteOnEvent(tick=0, channel=0, data=[78, 0]),
   midi.NoteOnEvent(tick=0, channel=0, data=[77, 68]),
   midi.NoteOnEvent(tick=240, channel=0, data=[73, 50]),
   midi.NoteOnEvent(tick=240, channel=0, data=[73, 0]),
   midi.NoteOnEvent(tick=0, channel=0, data=[74, 55]),
   midi.NoteOnEvent(tick=240, channel=0, data=[74, 0]),
   midi.NoteOnEvent(tick=0, channel=0, data=[71, 45]),
   midi.NoteOnEvent(tick=230, channel=0, data=[77, 0]),
   midi.NoteOnEvent(tick=10, channel=0, data=[71, 0]),
   midi.NoteOnEvent(tick=0, channel=0, data=[77, 51]),
   midi.NoteOnEvent(tick=240, channel=0, data=[74, 33]),
   midi.NoteOnEvent(tick=240, channel=0, data=[74, 0]),
   midi.NoteOnEvent(tick=0, channel=0, data=[77, 0]),
   midi.NoteOnEvent(tick=0, channel=0, data=[73, 45]),
   midi.NoteOnEvent(tick=0, channel=0, data=[78, 45]),
   midi.NoteOnEvent(tick=480, channel=0, data=[78, 0]),
   midi.NoteOnEvent(tick=0, channel=0, data=[73, 0]),
   midi.NoteOnEvent(tick=240, channel=0, data=[66, 39]),
   midi.NoteOnEvent(tick=240, channel=0, data=[66, 0]),
   midi.NoteOnEvent(tick=0, channel=0, data=[73, 40]),
   midi.NoteOnEvent(tick=240, channel=0, data=[73, 0]),
   midi.NoteOnEvent(tick=0, channel=0, data=[77, 42]),
   midi.NoteOnEvent(tick=240, channel=0, data=[77, 0]),
   midi.NoteOnEvent(tick=0, channel=0, data=[78, 44]),
   midi.NoteOnEvent(tick=480, channel=0, data=[78, 0]),
   midi.NoteOnEvent(tick=240, channel=0, data=[78, 43]),
   midi.NoteOnEvent(tick=240, channel=0, data=[78, 0]),
   midi.NoteOnEvent(tick=0, channel=0, data=[85, 48]),
   midi.NoteOnEvent(tick=240, channel=0, data=[85, 0]),
   midi.NoteOnEvent(tick=0, channel=0, data=[89, 50]),
   midi.NoteOnEvent(tick=240, channel=0, data=[89, 0]),
   midi.NoteOnEvent(tick=0, channel=0, data=[90, 52]),
   midi.NoteOnEvent(tick=480, channel=0, data=[90, 0]),
   midi.NoteOnEvent(tick=240, channel=0, data=[87, 58]),
   midi.NoteOnEvent(tick=240, channel=0, data=[87, 0]),
   midi.NoteOnEvent(tick=0, channel=0, data=[84, 57]),
   midi.NoteOnEvent(tick=240, channel=0, data=[84, 0]),
   midi.NoteOnEvent(tick=0, channel=0, data=[81, 55]),
   midi.NoteOnEvent(tick=240, channel=0, data=[81, 0]),
   midi.NoteOnEvent(tick=0, channel=0, data=[78, 54]),
   midi.NoteOnEvent(tick=240, channel=0, data=[78, 0]),
   midi.NoteOnEvent(tick=0, channel=0, data=[75, 54]),
   midi.NoteOnEvent(tick=240, channel=0, data=[75, 0]),
   midi.NoteOnEvent(tick=0, channel=0, data=[72, 54]),
   midi.NoteOnEvent(tick=240, channel=0, data=[72, 0]),
   midi.NoteOnEvent(tick=0, channel=0, data=[69, 53]),
   midi.NoteOnEvent(tick=240, channel=0, data=[69, 0]),
   midi.NoteOnEvent(tick=0, channel=0, data=[66, 50]),
   midi.NoteOnEvent(tick=240, channel=0, data=[66, 0]),
   midi.NoteOnEvent(tick=0, channel=0, data=[63, 46]),
   midi.NoteOnEvent(tick=240, channel=0, data=[63, 0]),
   midi.NoteOnEvent(tick=0, channel=0, data=[61, 45]),
   midi.NoteOnEvent(tick=480, channel=0, data=[61, 0]),
   midi.NoteOnEvent(tick=240, channel=0, data=[61, 42]),
   midi.NoteOnEvent(tick=240, channel=0, data=[61, 0]),
   midi.NoteOnEvent(tick=0, channel=0, data=[68, 44]),
   midi.NoteOnEvent(tick=240, channel=0, data=[68, 0]),
   midi.NoteOnEvent(tick=0, channel=0, data=[71, 46]),
   midi.NoteOnEvent(tick=240, channel=0, data=[71, 0]),
   midi.NoteOnEvent(tick=0, channel=0, data=[70, 49]),
   midi.NoteOnEvent(tick=480, channel=0, data=[70, 0]),
   midi.NoteOnEvent(tick=240, channel=0, data=[73, 49]),
   midi.NoteOnEvent(tick=240, channel=0, data=[73, 0]),
   midi.NoteOnEvent(tick=0, channel=0, data=[78, 55]),
   midi.NoteOnEvent(tick=240, channel=0, data=[78, 0]),
   midi.NoteOnEvent(tick=0, channel=0, data=[82, 57]),
   midi.NoteOnEvent(tick=240, channel=0, data=[82, 0]),
   midi.NoteOnEvent(tick=0, channel=0, data=[85, 67]),
   midi.NoteOnEvent(tick=240, channel=0, data=[85, 0]),
   midi.NoteOnEvent(tick=0, channel=0, data=[83, 58]),
   midi.NoteOnEvent(tick=240, channel=0, data=[83, 0]),
   midi.NoteOnEvent(tick=240, channel=0, data=[59, 46]),
   midi.NoteOnEvent(tick=240, channel=0, data=[59, 0]),
   midi.NoteOnEvent(tick=0, channel=0, data=[66, 47]),
   midi.NoteOnEvent(tick=240, channel=0, data=[66, 0]),
   midi.NoteOnEvent(tick=0, channel=0, data=[69, 50]),
   midi.NoteOnEvent(tick=240, channel=0, data=[69, 0]),
   midi.NoteOnEvent(tick=0, channel=0, data=[68, 52]),
   midi.NoteOnEvent(tick=480, channel=0, data=[68, 0]),
   midi.NoteOnEvent(tick=240, channel=0, data=[71, 52]),
   midi.NoteOnEvent(tick=240, channel=0, data=[71, 0]),
   midi.NoteOnEvent(tick=0, channel=0, data=[76, 59]),
   midi.NoteOnEvent(tick=240, channel=0, data=[76, 0]),
   midi.NoteOnEvent(tick=0, channel=0, data=[80, 62]),
   midi.NoteOnEvent(tick=240, channel=0, data=[80, 0]),
   midi.NoteOnEvent(tick=0, channel=0, data=[83, 70]),
   midi.NoteOnEvent(tick=240, channel=0, data=[83, 0]),
   midi.NoteOnEvent(tick=0, channel=0, data=[81, 62]),
   midi.NoteOnEvent(tick=240, channel=0, data=[81, 0]),
   midi.NoteOnEvent(tick=240, channel=0, data=[57, 49]),
   midi.NoteOnEvent(tick=240, channel=0, data=[57, 0]),
   midi.NoteOnEvent(tick=0, channel=0, data=[64, 51]),
   midi.NoteOnEvent(tick=240, channel=0, data=[64, 0]),
   midi.NoteOnEvent(tick=0, channel=0, data=[68, 53]),
   midi.NoteOnEvent(tick=240, channel=0, data=[68, 0]),
   midi.NoteOnEvent(tick=0, channel=0, data=[67, 56]),
   midi.NoteOnEvent(tick=480, channel=0, data=[67, 0]),
   midi.NoteOnEvent(tick=240, channel=0, data=[70, 56]),
   midi.NoteOnEvent(tick=240, channel=0, data=[70, 0]),
   midi.NoteOnEvent(tick=0, channel=0, data=[75, 63]),
   midi.NoteOnEvent(tick=240, channel=0, data=[75, 0]),
   midi.NoteOnEvent(tick=0, channel=0, data=[79, 66]),
   midi.NoteOnEvent(tick=240, channel=0, data=[79, 0]),
   midi.NoteOnEvent(tick=0, channel=0, data=[81, 73]),
   midi.NoteOnEvent(tick=240, channel=0, data=[81, 0]),
   midi.NoteOnEvent(tick=0, channel=0, data=[80, 67]),
   midi.NoteOnEvent(tick=240, channel=0, data=[80, 0]),
   midi.NoteOnEvent(tick=240, channel=0, data=[56, 53]),
   midi.NoteOnEvent(tick=240, channel=0, data=[56, 0]),
   midi.NoteOnEvent(tick=0, channel=0, data=[63, 54]),
   midi.NoteOnEvent(tick=240, channel=0, data=[63, 0]),
   midi.NoteOnEvent(tick=0, channel=0, data=[66, 57]),
   midi.NoteOnEvent(tick=240, channel=0, data=[66, 0]),
   midi.NoteOnEvent(tick=0, channel=0, data=[65, 60]),
   midi.NoteOnEvent(tick=480, channel=0, data=[65, 0]),
   midi.NoteOnEvent(tick=240, channel=0, data=[71, 60]),
   midi.NoteOnEvent(tick=240, channel=0, data=[71, 0]),
   midi.NoteOnEvent(tick=0, channel=0, data=[73, 67]),
   midi.NoteOnEvent(tick=240, channel=0, data=[73, 0]),
   midi.NoteOnEvent(tick=0, channel=0, data=[77, 70]),
   midi.NoteOnEvent(tick=240, channel=0, data=[77, 0]),
   midi.NoteOnEvent(tick=0, channel=0, data=[80, 77]),
   midi.NoteOnEvent(tick=240, channel=0, data=[80, 0]),
   midi.NoteOnEvent(tick=0, channel=0, data=[78, 71]),
   midi.NoteOnEvent(tick=240, channel=0, data=[78, 0]),
   midi.NoteOnEvent(tick=240, channel=0, data=[66, 56]),
   midi.NoteOnEvent(tick=240, channel=0, data=[66, 0]),
   midi.NoteOnEvent(tick=0, channel=0, data=[71, 58]),
   midi.NoteOnEvent(tick=240, channel=0, data=[71, 0]),
   midi.NoteOnEvent(tick=0, channel=0, data=[76, 61]),
   midi.NoteOnEvent(tick=240, channel=0, data=[76, 0]),
   midi.NoteOnEvent(tick=0, channel=0, data=[74, 64]),
   midi.NoteOnEvent(tick=480, channel=0, data=[74, 0]),
   midi.NoteOnEvent(tick=240, channel=0, data=[69, 64]),
   midi.NoteOnEvent(tick=240, channel=0, data=[69, 0]),
   midi.NoteOnEvent(tick=0, channel=0, data=[68, 71]),
   midi.NoteOnEvent(tick=240, channel=0, data=[68, 0]),
   midi.NoteOnEvent(tick=0, channel=0, data=[73, 75]),
   midi.NoteOnEvent(tick=240, channel=0, data=[73, 0]),
   midi.NoteOnEvent(tick=0, channel=0, data=[80, 79]),
   midi.NoteOnEvent(tick=240, channel=0, data=[80, 0]),
   midi.NoteOnEvent(tick=0, channel=0, data=[78, 76]),
   midi.NoteOnEvent(tick=240, channel=0, data=[78, 0]),
   midi.NoteOnEvent(tick=240, channel=0, data=[66, 59]),
   midi.NoteOnEvent(tick=240, channel=0, data=[66, 0]),
   midi.NoteOnEvent(tick=0, channel=0, data=[71, 61]),
   midi.NoteOnEvent(tick=240, channel=0, data=[71, 0]),
   midi.NoteOnEvent(tick=0, channel=0, data=[76, 64]),
   midi.NoteOnEvent(tick=240, channel=0, data=[76, 0]),
   midi.NoteOnEvent(tick=0, channel=0, data=[74, 68]),
   midi.NoteOnEvent(tick=480, channel=0, data=[74, 0]),
   midi.NoteOnEvent(tick=240, channel=0, data=[69, 67]),
   midi.NoteOnEvent(tick=240, channel=0, data=[69, 0]),
   midi.NoteOnEvent(tick=0, channel=0, data=[68, 75]),
   midi.NoteOnEvent(tick=240, channel=0, data=[68, 0]),
   midi.NoteOnEvent(tick=0, channel=0, data=[73, 79]),
   midi.NoteOnEvent(tick=240, channel=0, data=[73, 0]),
   midi.NoteOnEvent(tick=0, channel=0, data=[71, 90]),
   midi.NoteOnEvent(tick=480, channel=0, data=[71, 0]),
   midi.NoteOnEvent(tick=240, channel=0, data=[59, 62]),
   midi.NoteOnEvent(tick=240, channel=0, data=[59, 0]),
   midi.NoteOnEvent(tick=0, channel=0, data=[64, 64]),
   midi.NoteOnEvent(tick=240, channel=0, data=[64, 0]),
   midi.NoteOnEvent(tick=0, channel=0, data=[70, 67]),
   midi.NoteOnEvent(tick=240, channel=0, data=[70, 0]),
   midi.NoteOnEvent(tick=0, channel=0, data=[71, 70]),
   midi.NoteOnEvent(tick=480, channel=0, data=[71, 0]),
   midi.NoteOnEvent(tick=240, channel=0, data=[59, 68]),
   midi.NoteOnEvent(tick=240, channel=0, data=[59, 0]),
   midi.NoteOnEvent(tick=0, channel=0, data=[64, 76]),
   midi.NoteOnEvent(tick=240, channel=0, data=[64, 0]),
   midi.NoteOnEvent(tick=0, channel=0, data=[70, 80]),
   midi.NoteOnEvent(tick=240, channel=0, data=[70, 0]),
   midi.NoteOnEvent(tick=0, channel=0, data=[71, 90]),
   midi.NoteOnEvent(tick=240, channel=0, data=[71, 0]),
   midi.NoteOnEvent(tick=0, channel=0, data=[59, 62]),
   midi.NoteOnEvent(tick=240, channel=0, data=[59, 0]),
   midi.NoteOnEvent(tick=0, channel=0, data=[64, 66]),
   midi.NoteOnEvent(tick=240, channel=0, data=[64, 0]),
   midi.NoteOnEvent(tick=0, channel=0, data=[70, 72]),
   midi.NoteOnEvent(tick=240, channel=0, data=[70, 0]),
   midi.NoteOnEvent(tick=0, channel=0, data=[71, 84]),
   midi.NoteOnEvent(tick=240, channel=0, data=[71, 0]),
   midi.NoteOnEvent(tick=0, channel=0, data=[59, 72]),
   midi.NoteOnEvent(tick=240, channel=0, data=[59, 0]),
   midi.NoteOnEvent(tick=0, channel=0, data=[64, 75]),
   midi.NoteOnEvent(tick=240, channel=0, data=[64, 0]),
   midi.NoteOnEvent(tick=0, channel=0, data=[70, 82]),
   midi.NoteOnEvent(tick=240, channel=0, data=[70, 0]),
   midi.NoteOnEvent(tick=0, channel=0, data=[71, 89]),
   midi.NoteOnEvent(tick=240, channel=0, data=[71, 0]),
   midi.NoteOnEvent(tick=0, channel=0, data=[59, 77]),
   midi.NoteOnEvent(tick=240, channel=0, data=[59, 0]),
   midi.NoteOnEvent(tick=0, channel=0, data=[64, 81]),
   midi.NoteOnEvent(tick=240, channel=0, data=[64, 0]),
   midi.NoteOnEvent(tick=0, channel=0, data=[70, 88]),
   midi.NoteOnEvent(tick=240, channel=0, data=[70, 0]),
   midi.NoteOnEvent(tick=0, channel=0, data=[66, 81]),
   midi.NoteOnEvent(tick=0, channel=0, data=[72, 103]),
   midi.NoteOnEvent(tick=240, channel=0, data=[66, 0]),
   midi.NoteOnEvent(tick=0, channel=0, data=[65, 67]),
   midi.NoteOnEvent(tick=240, channel=0, data=[65, 0]),
   midi.NoteOnEvent(tick=0, channel=0, data=[66, 71]),
   midi.NoteOnEvent(tick=240, channel=0, data=[66, 0]),
   midi.NoteOnEvent(tick=0, channel=0, data=[68, 72]),
   midi.NoteOnEvent(tick=240, channel=0, data=[68, 0]),
   midi.NoteOnEvent(tick=0, channel=0, data=[69, 78]),
   midi.NoteOnEvent(tick=240, channel=0, data=[69, 0]),
   midi.NoteOnEvent(tick=0, channel=0, data=[68, 72]),
   midi.NoteOnEvent(tick=240, channel=0, data=[68, 0]),
   midi.NoteOnEvent(tick=0, channel=0, data=[72, 0]),
   midi.NoteOnEvent(tick=0, channel=0, data=[66, 81]),
   midi.NoteOnEvent(tick=0, channel=0, data=[73, 103]),
   midi.NoteOnEvent(tick=240, channel=0, data=[66, 0]),
   midi.NoteOnEvent(tick=0, channel=0, data=[65, 70]),
   midi.NoteOnEvent(tick=240, channel=0, data=[65, 0]),
   midi.NoteOnEvent(tick=0, channel=0, data=[73, 0]),
   midi.NoteOnEvent(tick=0, channel=0, data=[66, 72]),
   midi.NoteOnEvent(tick=240, channel=0, data=[66, 0]),
   midi.NoteOnEvent(tick=0, channel=0, data=[68, 74]),
   midi.NoteOnEvent(tick=240, channel=0, data=[68, 0]),
   midi.NoteOnEvent(tick=0, channel=0, data=[69, 76]),
   midi.NoteOnEvent(tick=240, channel=0, data=[69, 0]),
   midi.NoteOnEvent(tick=0, channel=0, data=[68, 72]),
   midi.NoteOnEvent(tick=240, channel=0, data=[68, 0]),
   midi.NoteOnEvent(tick=0, channel=0, data=[66, 81]),
   midi.NoteOnEvent(tick=0, channel=0, data=[72, 103]),
   midi.NoteOnEvent(tick=240, channel=0, data=[66, 0]),
   midi.NoteOnEvent(tick=0, channel=0, data=[65, 67]),
   midi.NoteOnEvent(tick=240, channel=0, data=[65, 0]),
   midi.NoteOnEvent(tick=0, channel=0, data=[66, 71]),
   midi.NoteOnEvent(tick=240, channel=0, data=[66, 0]),
   midi.NoteOnEvent(tick=0, channel=0, data=[68, 72]),
   midi.NoteOnEvent(tick=240, channel=0, data=[68, 0]),
   midi.NoteOnEvent(tick=0, channel=0, data=[69, 78]),
   midi.NoteOnEvent(tick=240, channel=0, data=[69, 0]),
   midi.NoteOnEvent(tick=0, channel=0, data=[68, 72]),
   midi.NoteOnEvent(tick=240, channel=0, data=[68, 0]),
   midi.NoteOnEvent(tick=0, channel=0, data=[72, 0]),
   midi.NoteOnEvent(tick=0, channel=0, data=[66, 81]),
   midi.NoteOnEvent(tick=0, channel=0, data=[73, 103]),
   midi.NoteOnEvent(tick=240, channel=0, data=[66, 0]),
   midi.NoteOnEvent(tick=0, channel=0, data=[65, 70]),
   midi.NoteOnEvent(tick=240, channel=0, data=[65, 0]),
   midi.NoteOnEvent(tick=0, channel=0, data=[73, 0]),
   midi.NoteOnEvent(tick=0, channel=0, data=[66, 72]),
   midi.NoteOnEvent(tick=240, channel=0, data=[66, 0]),
   midi.NoteOnEvent(tick=0, channel=0, data=[68, 74]),
   midi.NoteOnEvent(tick=240, channel=0, data=[68, 0]),
   midi.NoteOnEvent(tick=0, channel=0, data=[69, 76]),
   midi.NoteOnEvent(tick=240, channel=0, data=[69, 0]),
   midi.NoteOnEvent(tick=0, channel=0, data=[68, 72]),
   midi.NoteOnEvent(tick=240, channel=0, data=[68, 0]),
   midi.NoteOnEvent(tick=0, channel=0, data=[66, 81]),
   midi.NoteOnEvent(tick=0, channel=0, data=[72, 103]),
   midi.NoteOnEvent(tick=240, channel=0, data=[66, 0]),
   midi.NoteOnEvent(tick=0, channel=0, data=[65, 67]),
   midi.NoteOnEvent(tick=240, channel=0, data=[65, 0]),
   midi.NoteOnEvent(tick=0, channel=0, data=[66, 71]),
   midi.NoteOnEvent(tick=240, channel=0, data=[66, 0]),
   midi.NoteOnEvent(tick=0, channel=0, data=[68, 72]),
   midi.NoteOnEvent(tick=240, channel=0, data=[68, 0]),
   midi.NoteOnEvent(tick=0, channel=0, data=[69, 78]),
   midi.NoteOnEvent(tick=240, channel=0, data=[69, 0]),
   midi.NoteOnEvent(tick=0, channel=0, data=[68, 72]),
   midi.NoteOnEvent(tick=240, channel=0, data=[68, 0]),
   midi.NoteOnEvent(tick=0, channel=0, data=[66, 52]),
   midi.NoteOnEvent(tick=240, channel=0, data=[66, 0]),
   midi.NoteOnEvent(tick=0, channel=0, data=[65, 53]),
   midi.NoteOnEvent(tick=240, channel=0, data=[65, 0]),
   midi.NoteOnEvent(tick=0, channel=0, data=[66, 54]),
   midi.NoteOnEvent(tick=240, channel=0, data=[66, 0]),
   midi.NoteOnEvent(tick=0, channel=0, data=[67, 55]),
   midi.NoteOnEvent(tick=240, channel=0, data=[67, 0]),
   midi.NoteOnEvent(tick=0, channel=0, data=[69, 61]),
   midi.NoteOnEvent(tick=240, channel=0, data=[69, 0]),
   midi.NoteOnEvent(tick=0, channel=0, data=[66, 54]),
   midi.NoteOnEvent(tick=240, channel=0, data=[66, 0]),
   midi.NoteOnEvent(tick=0, channel=0, data=[72, 0]),
   midi.NoteOnEvent(tick=0, channel=0, data=[71, 62]),
   midi.NoteOnEvent(tick=0, channel=0, data=[69, 58]),
   midi.NoteOnEvent(tick=240, channel=0, data=[69, 0]),
   midi.NoteOnEvent(tick=0, channel=0, data=[67, 47]),
   midi.NoteOnEvent(tick=240, channel=0, data=[67, 0]),
   midi.NoteOnEvent(tick=0, channel=0, data=[66, 47]),
   midi.NoteOnEvent(tick=240, channel=0, data=[66, 0]),
   midi.NoteOnEvent(tick=0, channel=0, data=[67, 47]),
   midi.NoteOnEvent(tick=240, channel=0, data=[67, 0]),
   midi.NoteOnEvent(tick=0, channel=0, data=[69, 54]),
   midi.NoteOnEvent(tick=240, channel=0, data=[69, 0]),
   midi.NoteOnEvent(tick=0, channel=0, data=[67, 47]),
   midi.NoteOnEvent(tick=240, channel=0, data=[67, 0]),
   midi.NoteOnEvent(tick=0, channel=0, data=[71, 0]),
   midi.NoteOnEvent(tick=0, channel=0, data=[74, 60]),
   midi.NoteOnEvent(tick=0, channel=0, data=[68, 56]),
   midi.NoteOnEvent(tick=240, channel=0, data=[68, 0]),
   midi.NoteOnEvent(tick=0, channel=0, data=[66, 45]),
   midi.NoteOnEvent(tick=240, channel=0, data=[66, 0]),
   midi.NoteOnEvent(tick=0, channel=0, data=[68, 45]),
   midi.NoteOnEvent(tick=240, channel=0, data=[68, 0]),
   midi.NoteOnEvent(tick=0, channel=0, data=[69, 45]),
   midi.NoteOnEvent(tick=240, channel=0, data=[69, 0]),
   midi.NoteOnEvent(tick=0, channel=0, data=[71, 52]),
   midi.NoteOnEvent(tick=240, channel=0, data=[71, 0]),
   midi.NoteOnEvent(tick=0, channel=0, data=[68, 45]),
   midi.NoteOnEvent(tick=240, channel=0, data=[68, 0]),
   midi.NoteOnEvent(tick=0, channel=0, data=[74, 0]),
   midi.NoteOnEvent(tick=0, channel=0, data=[73, 57]),
   midi.NoteOnEvent(tick=0, channel=0, data=[71, 53]),
   midi.NoteOnEvent(tick=240, channel=0, data=[71, 0]),
   midi.NoteOnEvent(tick=0, channel=0, data=[69, 43]),
   midi.NoteOnEvent(tick=240, channel=0, data=[69, 0]),
   midi.NoteOnEvent(tick=0, channel=0, data=[68, 44]),
   midi.NoteOnEvent(tick=240, channel=0, data=[68, 0]),
   midi.NoteOnEvent(tick=0, channel=0, data=[69, 44]),
   midi.NoteOnEvent(tick=240, channel=0, data=[69, 0]),
   midi.NoteOnEvent(tick=0, channel=0, data=[71, 49]),
   midi.NoteOnEvent(tick=240, channel=0, data=[71, 0]),
   midi.NoteOnEvent(tick=0, channel=0, data=[69, 44]),
   midi.NoteOnEvent(tick=240, channel=0, data=[69, 0]),
   midi.NoteOnEvent(tick=0, channel=0, data=[73, 0]),
   midi.NoteOnEvent(tick=0, channel=0, data=[76, 55]),
   midi.NoteOnEvent(tick=0, channel=0, data=[70, 51]),
   midi.NoteOnEvent(tick=240, channel=0, data=[70, 0]),
   midi.NoteOnEvent(tick=0, channel=0, data=[68, 42]),
   midi.NoteOnEvent(tick=240, channel=0, data=[68, 0]),
   midi.NoteOnEvent(tick=0, channel=0, data=[70, 42]),
   midi.NoteOnEvent(tick=240, channel=0, data=[70, 0]),
   midi.NoteOnEvent(tick=0, channel=0, data=[71, 41]),
   midi.NoteOnEvent(tick=240, channel=0, data=[71, 0]),
   midi.NoteOnEvent(tick=0, channel=0, data=[73, 47]),
   midi.NoteOnEvent(tick=240, channel=0, data=[73, 0]),
   midi.NoteOnEvent(tick=0, channel=0, data=[70, 42]),
   midi.NoteOnEvent(tick=240, channel=0, data=[70, 0]),
   midi.NoteOnEvent(tick=0, channel=0, data=[76, 0]),
   midi.NoteOnEvent(tick=0, channel=0, data=[74, 52]),
   midi.NoteOnEvent(tick=0, channel=0, data=[73, 49]),
   midi.NoteOnEvent(tick=240, channel=0, data=[73, 0]),
   midi.NoteOnEvent(tick=0, channel=0, data=[71, 40]),
   midi.NoteOnEvent(tick=240, channel=0, data=[71, 0]),
   midi.NoteOnEvent(tick=0, channel=0, data=[70, 40]),
   midi.NoteOnEvent(tick=240, channel=0, data=[70, 0]),
   midi.NoteOnEvent(tick=0, channel=0, data=[71, 40]),
   midi.NoteOnEvent(tick=240, channel=0, data=[71, 0]),
   midi.NoteOnEvent(tick=0, channel=0, data=[73, 46]),
   midi.NoteOnEvent(tick=240, channel=0, data=[73, 0]),
   midi.NoteOnEvent(tick=0, channel=0, data=[71, 41]),
   midi.NoteOnEvent(tick=240, channel=0, data=[71, 0]),
   midi.NoteOnEvent(tick=0, channel=0, data=[74, 0]),
   midi.NoteOnEvent(tick=0, channel=0, data=[73, 52]),
   midi.NoteOnEvent(tick=0, channel=0, data=[71, 49]),
   midi.NoteOnEvent(tick=240, channel=0, data=[71, 0]),
   midi.NoteOnEvent(tick=0, channel=0, data=[69, 40]),
   midi.NoteOnEvent(tick=240, channel=0, data=[69, 0]),
   midi.NoteOnEvent(tick=0, channel=0, data=[68, 40]),
   midi.NoteOnEvent(tick=240, channel=0, data=[68, 0]),
   midi.NoteOnEvent(tick=0, channel=0, data=[69, 40]),
   midi.NoteOnEvent(tick=240, channel=0, data=[69, 0]),
   midi.NoteOnEvent(tick=0, channel=0, data=[71, 46]),
   midi.NoteOnEvent(tick=240, channel=0, data=[71, 0]),
   midi.NoteOnEvent(tick=0, channel=0, data=[69, 41]),
   midi.NoteOnEvent(tick=240, channel=0, data=[69, 0]),
   midi.NoteOnEvent(tick=0, channel=0, data=[73, 0]),
   midi.NoteOnEvent(tick=0, channel=0, data=[72, 52]),
   midi.NoteOnEvent(tick=0, channel=0, data=[69, 49]),
   midi.NoteOnEvent(tick=240, channel=0, data=[69, 0]),
   midi.NoteOnEvent(tick=0, channel=0, data=[68, 40]),
   midi.NoteOnEvent(tick=240, channel=0, data=[68, 0]),
   midi.NoteOnEvent(tick=0, channel=0, data=[67, 40]),
   midi.NoteOnEvent(tick=240, channel=0, data=[67, 0]),
   midi.NoteOnEvent(tick=0, channel=0, data=[68, 40]),
   midi.NoteOnEvent(tick=240, channel=0, data=[68, 0]),
   midi.NoteOnEvent(tick=0, channel=0, data=[69, 46]),
   midi.NoteOnEvent(tick=240, channel=0, data=[69, 0]),
   midi.NoteOnEvent(tick=0, channel=0, data=[68, 41]),
   midi.NoteOnEvent(tick=240, channel=0, data=[68, 0]),
   midi.NoteOnEvent(tick=0, channel=0, data=[72, 0]),
   midi.NoteOnEvent(tick=0, channel=0, data=[71, 52]),
   midi.NoteOnEvent(tick=0, channel=0, data=[69, 49]),
   midi.NoteOnEvent(tick=240, channel=0, data=[69, 0]),
   midi.NoteOnEvent(tick=0, channel=0, data=[68, 40]),
   midi.NoteOnEvent(tick=240, channel=0, data=[68, 0]),
   midi.NoteOnEvent(tick=0, channel=0, data=[66, 40]),
   midi.NoteOnEvent(tick=240, channel=0, data=[66, 0]),
   midi.NoteOnEvent(tick=0, channel=0, data=[68, 40]),
   midi.NoteOnEvent(tick=240, channel=0, data=[68, 0]),
   midi.NoteOnEvent(tick=0, channel=0, data=[69, 46]),
   midi.NoteOnEvent(tick=240, channel=0, data=[69, 0]),
   midi.NoteOnEvent(tick=0, channel=0, data=[68, 41]),
   midi.NoteOnEvent(tick=240, channel=0, data=[68, 0]),
   midi.NoteOnEvent(tick=0, channel=0, data=[71, 0]),
   midi.NoteOnEvent(tick=0, channel=0, data=[70, 52]),
   midi.NoteOnEvent(tick=0, channel=0, data=[68, 49]),
   midi.NoteOnEvent(tick=240, channel=0, data=[68, 0]),
   midi.NoteOnEvent(tick=0, channel=0, data=[66, 40]),
   midi.NoteOnEvent(tick=240, channel=0, data=[66, 0]),
   midi.NoteOnEvent(tick=0, channel=0, data=[65, 40]),
   midi.NoteOnEvent(tick=240, channel=0, data=[65, 0]),
   midi.NoteOnEvent(tick=0, channel=0, data=[66, 40]),
   midi.NoteOnEvent(tick=240, channel=0, data=[66, 0]),
   midi.NoteOnEvent(tick=0, channel=0, data=[68, 46]),
   midi.NoteOnEvent(tick=240, channel=0, data=[68, 0]),
   midi.NoteOnEvent(tick=0, channel=0, data=[66, 41]),
   midi.NoteOnEvent(tick=240, channel=0, data=[66, 0]),
   midi.NoteOnEvent(tick=0, channel=0, data=[70, 0]),
   midi.NoteOnEvent(tick=0, channel=0, data=[69, 52]),
   midi.NoteOnEvent(tick=0, channel=0, data=[68, 49]),
   midi.NoteOnEvent(tick=240, channel=0, data=[68, 0]),
   midi.NoteOnEvent(tick=0, channel=0, data=[66, 40]),
   midi.NoteOnEvent(tick=240, channel=0, data=[66, 0]),
   midi.NoteOnEvent(tick=0, channel=0, data=[65, 40]),
   midi.NoteOnEvent(tick=240, channel=0, data=[65, 0]),
   midi.NoteOnEvent(tick=0, channel=0, data=[66, 40]),
   midi.NoteOnEvent(tick=240, channel=0, data=[66, 0]),
   midi.NoteOnEvent(tick=0, channel=0, data=[68, 46]),
   midi.NoteOnEvent(tick=240, channel=0, data=[68, 0]),
   midi.NoteOnEvent(tick=0, channel=0, data=[66, 41]),
   midi.NoteOnEvent(tick=240, channel=0, data=[66, 0]),
   midi.NoteOnEvent(tick=0, channel=0, data=[69, 0]),
   midi.NoteOnEvent(tick=0, channel=0, data=[65, 55]),
   midi.NoteOnEvent(tick=240, channel=0, data=[65, 0]),
   midi.NoteOnEvent(tick=0, channel=0, data=[61, 45]),
   midi.NoteOnEvent(tick=240, channel=0, data=[61, 0]),
   midi.NoteOnEvent(tick=0, channel=0, data=[56, 49]),
   midi.NoteOnEvent(tick=240, channel=0, data=[56, 0]),
   midi.NoteOnEvent(tick=0, channel=0, data=[61, 47]),
   midi.NoteOnEvent(tick=240, channel=0, data=[61, 0]),
   midi.NoteOnEvent(tick=0, channel=0, data=[65, 49]),
   midi.NoteOnEvent(tick=240, channel=0, data=[65, 0]),
   midi.NoteOnEvent(tick=0, channel=0, data=[68, 49]),
   midi.NoteOnEvent(tick=240, channel=0, data=[68, 0]),
   midi.NoteOnEvent(tick=0, channel=0, data=[65, 57]),
   midi.NoteOnEvent(tick=240, channel=0, data=[65, 0]),
   midi.NoteOnEvent(tick=0, channel=0, data=[61, 45]),
   midi.NoteOnEvent(tick=240, channel=0, data=[61, 0]),
   midi.NoteOnEvent(tick=0, channel=0, data=[56, 49]),
   midi.NoteOnEvent(tick=240, channel=0, data=[56, 0]),
   midi.NoteOnEvent(tick=0, channel=0, data=[61, 47]),
   midi.NoteOnEvent(tick=240, channel=0, data=[61, 0]),
   midi.NoteOnEvent(tick=0, channel=0, data=[65, 46]),
   midi.NoteOnEvent(tick=240, channel=0, data=[65, 0]),
   midi.NoteOnEvent(tick=0, channel=0, data=[68, 43]),
   midi.NoteOnEvent(tick=240, channel=0, data=[68, 0]),
   midi.NoteOnEvent(tick=0, channel=0, data=[66, 55]),
   midi.NoteOnEvent(tick=240, channel=0, data=[66, 0]),
   midi.NoteOnEvent(tick=0, channel=0, data=[61, 45]),
   midi.NoteOnEvent(tick=240, channel=0, data=[61, 0]),
   midi.NoteOnEvent(tick=0, channel=0, data=[57, 49]),
   midi.NoteOnEvent(tick=240, channel=0, data=[57, 0]),
   midi.NoteOnEvent(tick=0, channel=0, data=[61, 47]),
   midi.NoteOnEvent(tick=240, channel=0, data=[61, 0]),
   midi.NoteOnEvent(tick=0, channel=0, data=[66, 49]),
   midi.NoteOnEvent(tick=240, channel=0, data=[66, 0]),
   midi.NoteOnEvent(tick=0, channel=0, data=[69, 49]),
   midi.NoteOnEvent(tick=240, channel=0, data=[69, 0]),
   midi.NoteOnEvent(tick=0, channel=0, data=[66, 57]),
   midi.NoteOnEvent(tick=240, channel=0, data=[66, 0]),
   midi.NoteOnEvent(tick=0, channel=0, data=[63, 45]),
   midi.NoteOnEvent(tick=240, channel=0, data=[63, 0]),
   midi.NoteOnEvent(tick=0, channel=0, data=[60, 49]),
   midi.NoteOnEvent(tick=240, channel=0, data=[60, 0]),
   midi.NoteOnEvent(tick=0, channel=0, data=[63, 47]),
   midi.NoteOnEvent(tick=240, channel=0, data=[63, 0]),
   midi.NoteOnEvent(tick=0, channel=0, data=[66, 46]),
   midi.NoteOnEvent(tick=240, channel=0, data=[66, 0]),
   midi.NoteOnEvent(tick=0, channel=0, data=[69, 43]),
   midi.NoteOnEvent(tick=240, channel=0, data=[69, 0]),
   midi.NoteOnEvent(tick=0, channel=0, data=[68, 55]),
   midi.NoteOnEvent(tick=240, channel=0, data=[68, 0]),
   midi.NoteOnEvent(tick=0, channel=0, data=[65, 45]),
   midi.NoteOnEvent(tick=240, channel=0, data=[65, 0]),
   midi.NoteOnEvent(tick=0, channel=0, data=[61, 49]),
   midi.NoteOnEvent(tick=240, channel=0, data=[61, 0]),
   midi.NoteOnEvent(tick=0, channel=0, data=[65, 47]),
   midi.NoteOnEvent(tick=240, channel=0, data=[65, 0]),
   midi.NoteOnEvent(tick=0, channel=0, data=[68, 49]),
   midi.NoteOnEvent(tick=240, channel=0, data=[68, 0]),
   midi.NoteOnEvent(tick=0, channel=0, data=[73, 49]),
   midi.NoteOnEvent(tick=240, channel=0, data=[73, 0]),
   midi.NoteOnEvent(tick=0, channel=0, data=[68, 57]),
   midi.NoteOnEvent(tick=240, channel=0, data=[68, 0]),
   midi.NoteOnEvent(tick=0, channel=0, data=[65, 45]),
   midi.NoteOnEvent(tick=240, channel=0, data=[65, 0]),
   midi.NoteOnEvent(tick=0, channel=0, data=[61, 49]),
   midi.NoteOnEvent(tick=240, channel=0, data=[61, 0]),
   midi.NoteOnEvent(tick=0, channel=0, data=[65, 47]),
   midi.NoteOnEvent(tick=240, channel=0, data=[65, 0]),
   midi.NoteOnEvent(tick=0, channel=0, data=[68, 46]),
   midi.NoteOnEvent(tick=240, channel=0, data=[68, 0]),
   midi.NoteOnEvent(tick=0, channel=0, data=[73, 43]),
   midi.NoteOnEvent(tick=240, channel=0, data=[73, 0]),
   midi.NoteOnEvent(tick=0, channel=0, data=[69, 55]),
   midi.NoteOnEvent(tick=240, channel=0, data=[69, 0]),
   midi.NoteOnEvent(tick=0, channel=0, data=[66, 45]),
   midi.NoteOnEvent(tick=240, channel=0, data=[66, 0]),
   midi.NoteOnEvent(tick=0, channel=0, data=[61, 49]),
   midi.NoteOnEvent(tick=240, channel=0, data=[61, 0]),
   midi.NoteOnEvent(tick=0, channel=0, data=[66, 47]),
   midi.NoteOnEvent(tick=240, channel=0, data=[66, 0]),
   midi.NoteOnEvent(tick=0, channel=0, data=[69, 49]),
   midi.NoteOnEvent(tick=240, channel=0, data=[69, 0]),
   midi.NoteOnEvent(tick=0, channel=0, data=[73, 49]),
   midi.NoteOnEvent(tick=240, channel=0, data=[73, 0]),
   midi.NoteOnEvent(tick=0, channel=0, data=[69, 57]),
   midi.NoteOnEvent(tick=240, channel=0, data=[69, 0]),
   midi.NoteOnEvent(tick=0, channel=0, data=[66, 45]),
   midi.NoteOnEvent(tick=240, channel=0, data=[66, 0]),
   midi.NoteOnEvent(tick=0, channel=0, data=[63, 49]),
   midi.NoteOnEvent(tick=240, channel=0, data=[63, 0]),
   midi.NoteOnEvent(tick=0, channel=0, data=[66, 47]),
   midi.NoteOnEvent(tick=240, channel=0, data=[66, 0]),
   midi.NoteOnEvent(tick=0, channel=0, data=[69, 46]),
   midi.NoteOnEvent(tick=240, channel=0, data=[69, 0]),
   midi.NoteOnEvent(tick=0, channel=0, data=[72, 43]),
   midi.NoteOnEvent(tick=240, channel=0, data=[72, 0]),
   midi.NoteOnEvent(tick=0, channel=0, data=[73, 55]),
   midi.NoteOnEvent(tick=240, channel=0, data=[73, 0]),
   midi.NoteOnEvent(tick=0, channel=0, data=[68, 45]),
   midi.NoteOnEvent(tick=240, channel=0, data=[68, 0]),
   midi.NoteOnEvent(tick=0, channel=0, data=[65, 49]),
   midi.NoteOnEvent(tick=240, channel=0, data=[65, 0]),
   midi.NoteOnEvent(tick=0, channel=0, data=[68, 47]),
   midi.NoteOnEvent(tick=240, channel=0, data=[68, 0]),
   midi.NoteOnEvent(tick=0, channel=0, data=[73, 49]),
   midi.NoteOnEvent(tick=240, channel=0, data=[73, 0]),
   midi.NoteOnEvent(tick=0, channel=0, data=[77, 49]),
   midi.NoteOnEvent(tick=240, channel=0, data=[77, 0]),
   midi.NoteOnEvent(tick=0, channel=0, data=[80, 55]),
   midi.NoteOnEvent(tick=240, channel=0, data=[80, 0]),
   midi.NoteOnEvent(tick=0, channel=0, data=[77, 45]),
   midi.NoteOnEvent(tick=240, channel=0, data=[77, 0]),
   midi.NoteOnEvent(tick=0, channel=0, data=[83, 55]),
   midi.NoteOnEvent(tick=240, channel=0, data=[83, 0]),
   midi.NoteOnEvent(tick=0, channel=0, data=[80, 53]),
   midi.NoteOnEvent(tick=240, channel=0, data=[80, 0]),
   midi.NoteOnEvent(tick=0, channel=0, data=[78, 49]),
   midi.NoteOnEvent(tick=240, channel=0, data=[78, 0]),
   midi.NoteOnEvent(tick=0, channel=0, data=[77, 49]),
   midi.NoteOnEvent(tick=240, channel=0, data=[77, 0]),
   midi.NoteOnEvent(tick=0, channel=0, data=[85, 69]),
   midi.NoteOnEvent(tick=240, channel=0, data=[85, 0]),
   midi.NoteOnEvent(tick=0, channel=0, data=[83, 63]),
   midi.NoteOnEvent(tick=240, channel=0, data=[83, 0]),
   midi.NoteOnEvent(tick=0, channel=0, data=[82, 59]),
   midi.NoteOnEvent(tick=240, channel=0, data=[82, 0]),
   midi.NoteOnEvent(tick=0, channel=0, data=[80, 58]),
   midi.NoteOnEvent(tick=240, channel=0, data=[80, 0]),
   midi.NoteOnEvent(tick=0, channel=0, data=[78, 56]),
   midi.NoteOnEvent(tick=240, channel=0, data=[78, 0]),
   midi.NoteOnEvent(tick=0, channel=0, data=[77, 49]),
   midi.NoteOnEvent(tick=240, channel=0, data=[77, 0]),
   midi.NoteOnEvent(tick=0, channel=0, data=[78, 55]),
   midi.NoteOnEvent(tick=240, channel=0, data=[78, 0]),
   midi.NoteOnEvent(tick=0, channel=0, data=[75, 53]),
   midi.NoteOnEvent(tick=240, channel=0, data=[75, 0]),
   midi.NoteOnEvent(tick=0, channel=0, data=[72, 51]),
   midi.NoteOnEvent(tick=240, channel=0, data=[72, 0]),
   midi.NoteOnEvent(tick=0, channel=0, data=[68, 51]),
   midi.NoteOnEvent(tick=240, channel=0, data=[68, 0]),
   midi.NoteOnEvent(tick=0, channel=0, data=[66, 48]),
   midi.NoteOnEvent(tick=240, channel=0, data=[66, 0]),
   midi.NoteOnEvent(tick=0, channel=0, data=[63, 46]),
   midi.NoteOnEvent(tick=240, channel=0, data=[63, 0]),
   midi.NoteOnEvent(tick=0, channel=0, data=[71, 61]),
   midi.NoteOnEvent(tick=0, channel=0, data=[65, 61]),
   midi.NoteOnEvent(tick=240, channel=0, data=[65, 0]),
   midi.NoteOnEvent(tick=0, channel=0, data=[71, 0]),
   midi.NoteOnEvent(tick=0, channel=0, data=[68, 51]),
   midi.NoteOnEvent(tick=240, channel=0, data=[68, 0]),
   midi.NoteOnEvent(tick=0, channel=0, data=[65, 48]),
   midi.NoteOnEvent(tick=240, channel=0, data=[65, 0]),
   midi.NoteOnEvent(tick=0, channel=0, data=[61, 47]),
   midi.NoteOnEvent(tick=240, channel=0, data=[61, 0]),
   midi.NoteOnEvent(tick=0, channel=0, data=[60, 46]),
   midi.NoteOnEvent(tick=240, channel=0, data=[60, 0]),
   midi.NoteOnEvent(tick=0, channel=0, data=[59, 43]),
   midi.NoteOnEvent(tick=240, channel=0, data=[59, 0]),
   midi.NoteOnEvent(tick=0, channel=0, data=[58, 49]),
   midi.NoteOnEvent(tick=240, channel=0, data=[58, 0]),
   midi.NoteOnEvent(tick=0, channel=0, data=[61, 42]),
   midi.NoteOnEvent(tick=240, channel=0, data=[61, 0]),
   midi.NoteOnEvent(tick=0, channel=0, data=[64, 45]),
   midi.NoteOnEvent(tick=240, channel=0, data=[64, 0]),
   midi.NoteOnEvent(tick=0, channel=0, data=[76, 46]),
   midi.NoteOnEvent(tick=240, channel=0, data=[76, 0]),
   midi.NoteOnEvent(tick=0, channel=0, data=[73, 48]),
   midi.NoteOnEvent(tick=240, channel=0, data=[73, 0]),
   midi.NoteOnEvent(tick=0, channel=0, data=[70, 52]),
   midi.NoteOnEvent(tick=240, channel=0, data=[70, 0]),
   midi.NoteOnEvent(tick=0, channel=0, data=[67, 54]),
   midi.NoteOnEvent(tick=217, channel=0, data=[63, 38]),
   midi.NoteOnEvent(tick=23, channel=0, data=[67, 0]),
   midi.NoteOnEvent(tick=217, channel=0, data=[63, 0]),
   midi.NoteOnEvent(tick=23, channel=0, data=[68, 45]),
   midi.NoteOnEvent(tick=240, channel=0, data=[68, 0]),
   midi.NoteOnEvent(tick=0, channel=0, data=[63, 38]),
   midi.NoteOnEvent(tick=240, channel=0, data=[63, 0]),
   midi.NoteOnEvent(tick=0, channel=0, data=[70, 43]),
   midi.NoteOnEvent(tick=240, channel=0, data=[70, 0]),
   midi.NoteOnEvent(tick=0, channel=0, data=[63, 38]),
   midi.NoteOnEvent(tick=240, channel=0, data=[63, 0]),
   midi.NoteOnEvent(tick=0, channel=0, data=[71, 50]),
   midi.NoteOnEvent(tick=240, channel=0, data=[71, 0]),
   midi.NoteOnEvent(tick=0, channel=0, data=[65, 38]),
   midi.NoteOnEvent(tick=240, channel=0, data=[65, 0]),
   midi.NoteOnEvent(tick=0, channel=0, data=[61, 43]),
   midi.NoteOnEvent(tick=240, channel=0, data=[61, 0]),
   midi.NoteOnEvent(tick=0, channel=0, data=[65, 38]),
   midi.NoteOnEvent(tick=240, channel=0, data=[65, 0]),
   midi.NoteOnEvent(tick=0, channel=0, data=[59, 45]),
   midi.NoteOnEvent(tick=240, channel=0, data=[59, 0]),
   midi.NoteOnEvent(tick=0, channel=0, data=[65, 37]),
   midi.NoteOnEvent(tick=240, channel=0, data=[65, 0]),
   midi.NoteOnEvent(tick=0, channel=0, data=[58, 45]),
   midi.NoteOnEvent(tick=240, channel=0, data=[58, 0]),
   midi.NoteOnEvent(tick=0, channel=0, data=[61, 33]),
   midi.NoteOnEvent(tick=240, channel=0, data=[61, 0]),
   midi.NoteOnEvent(tick=0, channel=0, data=[66, 33]),
   midi.NoteOnEvent(tick=240, channel=0, data=[66, 0]),
   midi.NoteOnEvent(tick=14, channel=0, data=[70, 33]),
   midi.NoteOnEvent(tick=226, channel=0, data=[66, 33]),
   midi.NoteOnEvent(tick=14, channel=0, data=[70, 0]),
   midi.NoteOnEvent(tick=226, channel=0, data=[66, 0]),
   midi.NoteOnEvent(tick=0, channel=0, data=[61, 33]),
   midi.NoteOnEvent(tick=240, channel=0, data=[61, 0]),
   midi.NoteOnEvent(tick=0, channel=0, data=[58, 36]),
   midi.NoteOnEvent(tick=240, channel=0, data=[58, 0]),
   midi.NoteOnEvent(tick=0, channel=0, data=[56, 31]),
   midi.NoteOnEvent(tick=240, channel=0, data=[56, 0]),
   midi.NoteOnEvent(tick=480, channel=0, data=[61, 59]),
   midi.NoteOnEvent(tick=480, channel=0, data=[66, 64]),
   midi.NoteOnEvent(tick=480, channel=0, data=[61, 0]),
   midi.NoteOnEvent(tick=0, channel=0, data=[63, 55]),
   midi.NoteOnEvent(tick=480, channel=0, data=[63, 0]),
   midi.NoteOnEvent(tick=0, channel=0, data=[61, 55]),
   midi.NoteOnEvent(tick=480, channel=0, data=[61, 0]),
   midi.NoteOnEvent(tick=0, channel=0, data=[60, 58]),
   midi.NoteOnEvent(tick=480, channel=0, data=[66, 0]),
   midi.NoteOnEvent(tick=0, channel=0, data=[65, 62]),
   midi.NoteOnEvent(tick=480, channel=0, data=[65, 0]),
   midi.NoteOnEvent(tick=0, channel=0, data=[66, 70]),
   midi.NoteOnEvent(tick=480, channel=0, data=[66, 0]),
   midi.NoteOnEvent(tick=0, channel=0, data=[60, 0]),
   midi.NoteOnEvent(tick=0, channel=0, data=[59, 58]),
   midi.NoteOnEvent(tick=0, channel=0, data=[68, 72]),
   midi.NoteOnEvent(tick=0, channel=0, data=[65, 60]),
   midi.NoteOnEvent(tick=1440, channel=0, data=[65, 0]),
   midi.NoteOnEvent(tick=0, channel=0, data=[68, 0]),
   midi.NoteOnEvent(tick=0, channel=0, data=[59, 0]),
   midi.NoteOnEvent(tick=0, channel=0, data=[58, 54]),
   midi.NoteOnEvent(tick=0, channel=0, data=[64, 54]),
   midi.NoteOnEvent(tick=0, channel=0, data=[70, 54]),
   midi.NoteOnEvent(tick=1440, channel=0, data=[70, 0]),
   midi.NoteOnEvent(tick=0, channel=0, data=[64, 0]),
   midi.NoteOnEvent(tick=0, channel=0, data=[58, 0]),
   midi.NoteOnEvent(tick=0, channel=0, data=[70, 62]),
   midi.NoteOnEvent(tick=0, channel=0, data=[63, 62]),
   midi.NoteOnEvent(tick=0, channel=0, data=[73, 73]),
   midi.NoteOnEvent(tick=480, channel=0, data=[73, 0]),
   midi.NoteOnEvent(tick=0, channel=0, data=[70, 0]),
   midi.NoteOnEvent(tick=0, channel=0, data=[68, 52]),
   midi.NoteOnEvent(tick=0, channel=0, data=[71, 62]),
   midi.NoteOnEvent(tick=480, channel=0, data=[71, 0]),
   midi.NoteOnEvent(tick=0, channel=0, data=[68, 0]),
   midi.NoteOnEvent(tick=0, channel=0, data=[66, 45]),
   midi.NoteOnEvent(tick=0, channel=0, data=[70, 54]),
   midi.NoteOnEvent(tick=480, channel=0, data=[70, 0]),
   midi.NoteOnEvent(tick=0, channel=0, data=[66, 0]),
   midi.NoteOnEvent(tick=0, channel=0, data=[63, 0]),
   midi.NoteOnEvent(tick=0, channel=0, data=[65, 66]),
   midi.NoteOnEvent(tick=0, channel=0, data=[68, 66]),
   midi.NoteOnEvent(tick=480, channel=0, data=[68, 0]),
   midi.NoteOnEvent(tick=0, channel=0, data=[70, 49]),
   midi.NoteOnEvent(tick=480, channel=0, data=[70, 0]),
   midi.NoteOnEvent(tick=0, channel=0, data=[68, 41]),
   midi.NoteOnEvent(tick=480, channel=0, data=[68, 0]),
   midi.NoteOnEvent(tick=0, channel=0, data=[65, 0]),
   midi.NoteOnEvent(tick=0, channel=0, data=[66, 50]),
   midi.NoteOnEvent(tick=480, channel=0, data=[66, 0]),
   midi.NoteOnEvent(tick=480, channel=0, data=[78, 58]),
   midi.NoteOnEvent(tick=0, channel=0, data=[66, 49]),
   midi.NoteOnEvent(tick=480, channel=0, data=[66, 0]),
   midi.NoteOnEvent(tick=0, channel=0, data=[78, 0]),
   midi.NoteOnEvent(tick=0, channel=0, data=[68, 58]),
   midi.NoteOnEvent(tick=0, channel=0, data=[77, 58]),
   midi.NoteOnEvent(tick=0, channel=0, data=[80, 69]),
   midi.NoteOnEvent(tick=960, channel=0, data=[80, 0]),
   midi.NoteOnEvent(tick=0, channel=0, data=[77, 0]),
   midi.NoteOnEvent(tick=0, channel=0, data=[68, 0]),
   midi.NoteOnEvent(tick=0, channel=0, data=[70, 62]),
   midi.NoteOnEvent(tick=0, channel=0, data=[76, 62]),
   midi.NoteOnEvent(tick=0, channel=0, data=[82, 73]),
   midi.NoteOnEvent(tick=470, channel=0, data=[82, 0]),
   midi.NoteOnEvent(tick=0, channel=0, data=[76, 0]),
   midi.NoteOnEvent(tick=0, channel=0, data=[70, 0]),
   midi.NoteOnEvent(tick=10, channel=0, data=[85, 89]),
   midi.NoteOnEvent(tick=0, channel=0, data=[82, 75]),
   midi.NoteOnEvent(tick=0, channel=0, data=[73, 75]),
   midi.NoteOnEvent(tick=480, channel=0, data=[73, 0]),
   midi.NoteOnEvent(tick=0, channel=0, data=[82, 0]),
   midi.NoteOnEvent(tick=0, channel=0, data=[85, 0]),
   midi.NoteOnEvent(tick=0, channel=0, data=[83, 76]),
   midi.NoteOnEvent(tick=0, channel=0, data=[80, 64]),
   midi.NoteOnEvent(tick=0, channel=0, data=[71, 63]),
   midi.NoteOnEvent(tick=480, channel=0, data=[71, 0]),
   midi.NoteOnEvent(tick=0, channel=0, data=[80, 0]),
   midi.NoteOnEvent(tick=0, channel=0, data=[83, 0]),
   midi.NoteOnEvent(tick=0, channel=0, data=[82, 70]),
   midi.NoteOnEvent(tick=0, channel=0, data=[78, 70]),
   midi.NoteOnEvent(tick=480, channel=0, data=[78, 0]),
   midi.NoteOnEvent(tick=0, channel=0, data=[82, 0]),
   midi.NoteOnEvent(tick=0, channel=0, data=[77, 82]),
   midi.NoteOnEvent(tick=0, channel=0, data=[80, 82]),
   midi.NoteOnEvent(tick=480, channel=0, data=[80, 0]),
   midi.NoteOnEvent(tick=0, channel=0, data=[82, 75]),
   midi.NoteOnEvent(tick=480, channel=0, data=[82, 0]),
   midi.NoteOnEvent(tick=0, channel=0, data=[80, 68]),
   midi.NoteOnEvent(tick=480, channel=0, data=[80, 0]),
   midi.NoteOnEvent(tick=0, channel=0, data=[77, 0]),
   midi.NoteOnEvent(tick=0, channel=0, data=[78, 90]),
   midi.NoteOnEvent(tick=480, channel=0, data=[78, 0]),
   midi.NoteOnEvent(tick=480, channel=0, data=[66, 73]),
   midi.NoteOnEvent(tick=0, channel=0, data=[78, 86]),
   midi.NoteOnEvent(tick=0, channel=0, data=[70, 73]),
   midi.NoteOnEvent(tick=480, channel=0, data=[70, 0]),
   midi.NoteOnEvent(tick=0, channel=0, data=[78, 0]),
   midi.NoteOnEvent(tick=0, channel=0, data=[66, 0]),
   midi.NoteOnEvent(tick=0, channel=0, data=[68, 77]),
   midi.NoteOnEvent(tick=0, channel=0, data=[80, 91]),
   midi.NoteOnEvent(tick=0, channel=0, data=[71, 77]),
   midi.NoteOnEvent(tick=960, channel=0, data=[71, 0]),
   midi.NoteOnEvent(tick=0, channel=0, data=[80, 0]),
   midi.NoteOnEvent(tick=0, channel=0, data=[68, 0]),
   midi.NoteOnEvent(tick=0, channel=0, data=[70, 80]),
   midi.NoteOnEvent(tick=0, channel=0, data=[82, 95]),
   midi.NoteOnEvent(tick=0, channel=0, data=[73, 80]),
   midi.NoteOnEvent(tick=480, channel=0, data=[73, 0]),
   midi.NoteOnEvent(tick=0, channel=0, data=[82, 0]),
   midi.NoteOnEvent(tick=0, channel=0, data=[70, 0]),
   midi.NoteOnEvent(tick=0, channel=0, data=[73, 82]),
   midi.NoteOnEvent(tick=0, channel=0, data=[78, 97]),
   midi.NoteOnEvent(tick=0, channel=0, data=[85, 97]),
   midi.NoteOnEvent(tick=480, channel=0, data=[85, 0]),
   midi.NoteOnEvent(tick=0, channel=0, data=[78, 0]),
   midi.NoteOnEvent(tick=0, channel=0, data=[73, 0]),
   midi.NoteOnEvent(tick=0, channel=0, data=[71, 75]),
   midi.NoteOnEvent(tick=0, channel=0, data=[83, 89]),
   midi.NoteOnEvent(tick=480, channel=0, data=[83, 0]),
   midi.NoteOnEvent(tick=0, channel=0, data=[71, 0]),
   midi.NoteOnEvent(tick=0, channel=0, data=[70, 69]),
   midi.NoteOnEvent(tick=0, channel=0, data=[82, 82]),
   midi.NoteOnEvent(tick=470, channel=0, data=[82, 0]),
   midi.NoteOnEvent(tick=0, channel=0, data=[70, 0]),
   midi.NoteOnEvent(tick=10, channel=0, data=[70, 76]),
   midi.NoteOnEvent(tick=0, channel=0, data=[75, 90]),
   midi.NoteOnEvent(tick=0, channel=0, data=[82, 90]),
   midi.NoteOnEvent(tick=480, channel=0, data=[82, 0]),
   midi.NoteOnEvent(tick=0, channel=0, data=[75, 0]),
   midi.NoteOnEvent(tick=0, channel=0, data=[70, 0]),
   midi.NoteOnEvent(tick=0, channel=0, data=[68, 69]),
   midi.NoteOnEvent(tick=0, channel=0, data=[80, 81]),
   midi.NoteOnEvent(tick=480, channel=0, data=[80, 0]),
   midi.NoteOnEvent(tick=0, channel=0, data=[68, 0]),
   midi.NoteOnEvent(tick=0, channel=0, data=[78, 71]),
   midi.NoteOnEvent(tick=0, channel=0, data=[66, 60]),
   midi.NoteOnEvent(tick=470, channel=0, data=[66, 0]),
   midi.NoteOnEvent(tick=0, channel=0, data=[78, 0]),
   midi.NoteOnEvent(tick=10, channel=0, data=[66, 69]),
   midi.NoteOnEvent(tick=0, channel=0, data=[78, 82]),
   midi.NoteOnEvent(tick=480, channel=0, data=[78, 0]),
   midi.NoteOnEvent(tick=0, channel=0, data=[66, 0]),
   midi.NoteOnEvent(tick=0, channel=0, data=[77, 72]),
   midi.NoteOnEvent(tick=0, channel=0, data=[65, 61]),
   midi.NoteOnEvent(tick=480, channel=0, data=[65, 0]),
   midi.NoteOnEvent(tick=0, channel=0, data=[77, 0]),
   midi.NoteOnEvent(tick=0, channel=0, data=[63, 54]),
   midi.NoteOnEvent(tick=0, channel=0, data=[75, 64]),
   midi.NoteOnEvent(tick=470, channel=0, data=[75, 0]),
   midi.NoteOnEvent(tick=0, channel=0, data=[63, 0]),
   midi.NoteOnEvent(tick=10, channel=0, data=[73, 71]),
   midi.NoteOnEvent(tick=0, channel=0, data=[61, 60]),
   midi.NoteOnEvent(tick=432, channel=0, data=[61, 0]),
   midi.NoteOnEvent(tick=0, channel=0, data=[73, 0]),
   midi.NoteOnEvent(tick=48, channel=0, data=[61, 56]),
   midi.NoteOnEvent(tick=0, channel=0, data=[73, 66]),
   midi.NoteOnEvent(tick=432, channel=0, data=[73, 0]),
   midi.NoteOnEvent(tick=0, channel=0, data=[61, 0]),
   midi.NoteOnEvent(tick=48, channel=0, data=[73, 60]),
   midi.NoteOnEvent(tick=0, channel=0, data=[61, 51]),
   midi.NoteOnEvent(tick=470, channel=0, data=[61, 0]),
   midi.NoteOnEvent(tick=0, channel=0, data=[73, 0]),
   midi.NoteOnEvent(tick=10, channel=0, data=[73, 62]),
   midi.NoteOnEvent(tick=0, channel=0, data=[61, 52]),
   midi.NoteOnEvent(tick=0, channel=0, data=[70, 52]),
   midi.NoteOnEvent(tick=480, channel=0, data=[70, 0]),
   midi.NoteOnEvent(tick=0, channel=0, data=[61, 0]),
   midi.NoteOnEvent(tick=0, channel=0, data=[73, 0]),
   midi.NoteOnEvent(tick=0, channel=0, data=[68, 48]),
   midi.NoteOnEvent(tick=0, channel=0, data=[71, 57]),
   midi.NoteOnEvent(tick=480, channel=0, data=[71, 0]),
   midi.NoteOnEvent(tick=0, channel=0, data=[68, 0]),
   midi.NoteOnEvent(tick=0, channel=0, data=[66, 39]),
   midi.NoteOnEvent(tick=0, channel=0, data=[70, 46]),
   midi.NoteOnEvent(tick=480, channel=0, data=[70, 0]),
   midi.NoteOnEvent(tick=0, channel=0, data=[66, 0]),
   midi.NoteOnEvent(tick=0, channel=0, data=[73, 56]),
   midi.NoteOnEvent(tick=0, channel=0, data=[63, 47]),
   midi.NoteOnEvent(tick=480, channel=0, data=[73, 0]),
   midi.NoteOnEvent(tick=0, channel=0, data=[71, 49]),
   midi.NoteOnEvent(tick=480, channel=0, data=[71, 0]),
   midi.NoteOnEvent(tick=0, channel=0, data=[68, 41]),
   midi.NoteOnEvent(tick=480, channel=0, data=[68, 0]),
   midi.NoteOnEvent(tick=0, channel=0, data=[63, 0]),
   midi.NoteOnEvent(tick=0, channel=0, data=[66, 51]),
   midi.NoteOnEvent(tick=240, channel=0, data=[61, 43]),
   midi.NoteOnEvent(tick=240, channel=0, data=[61, 0]),
   midi.NoteOnEvent(tick=0, channel=0, data=[60, 43]),
   midi.NoteOnEvent(tick=240, channel=0, data=[60, 0]),
   midi.NoteOnEvent(tick=0, channel=0, data=[61, 40]),
   midi.NoteOnEvent(tick=240, channel=0, data=[61, 0]),
   midi.NoteOnEvent(tick=0, channel=0, data=[63, 43]),
   midi.NoteOnEvent(tick=240, channel=0, data=[63, 0]),
   midi.NoteOnEvent(tick=0, channel=0, data=[61, 40]),
   midi.NoteOnEvent(tick=240, channel=0, data=[61, 0]),
   midi.NoteOnEvent(tick=0, channel=0, data=[66, 0]),
   midi.NoteOnEvent(tick=0, channel=0, data=[65, 49]),
   midi.NoteOnEvent(tick=1440, channel=0, data=[65, 0]),
   midi.NoteOnEvent(tick=0, channel=0, data=[66, 67]),
   midi.NoteOnEvent(tick=0, channel=0, data=[78, 79]),
   midi.NoteOnEvent(tick=480, channel=0, data=[78, 0]),
   midi.NoteOnEvent(tick=0, channel=0, data=[66, 0]),
   midi.NoteOnEvent(tick=0, channel=0, data=[73, 68]),
   midi.NoteOnEvent(tick=0, channel=0, data=[77, 68]),
   midi.NoteOnEvent(tick=480, channel=0, data=[77, 0]),
   midi.NoteOnEvent(tick=0, channel=0, data=[73, 0]),
   midi.NoteOnEvent(tick=0, channel=0, data=[71, 65]),
   midi.NoteOnEvent(tick=0, channel=0, data=[75, 65]),
   midi.NoteOnEvent(tick=480, channel=0, data=[75, 0]),
   midi.NoteOnEvent(tick=0, channel=0, data=[71, 0]),
   midi.NoteOnEvent(tick=0, channel=0, data=[70, 61]),
   midi.NoteOnEvent(tick=0, channel=0, data=[73, 61]),
   midi.NoteOnEvent(tick=480, channel=0, data=[73, 0]),
   midi.NoteOnEvent(tick=0, channel=0, data=[70, 0]),
   midi.NoteOnEvent(tick=0, channel=0, data=[69, 59]),
   midi.NoteOnEvent(tick=0, channel=0, data=[72, 59]),
   midi.NoteOnEvent(tick=480, channel=0, data=[72, 0]),
   midi.NoteOnEvent(tick=0, channel=0, data=[69, 0]),
   midi.NoteOnEvent(tick=0, channel=0, data=[68, 59]),
   midi.NoteOnEvent(tick=0, channel=0, data=[71, 59]),
   midi.NoteOnEvent(tick=480, channel=0, data=[71, 0]),
   midi.NoteOnEvent(tick=0, channel=0, data=[68, 0]),
   midi.NoteOnEvent(tick=0, channel=0, data=[70, 62]),
   midi.NoteOnEvent(tick=0, channel=0, data=[66, 55]),
   midi.NoteOnEvent(tick=240, channel=0, data=[66, 0]),
   midi.NoteOnEvent(tick=0, channel=0, data=[70, 0]),
   midi.NoteOnEvent(tick=240, channel=0, data=[71, 57]),
   midi.NoteOnEvent(tick=0, channel=0, data=[66, 50]),
   midi.NoteOnEvent(tick=180, channel=0, data=[66, 0]),
   midi.NoteOnEvent(tick=0, channel=0, data=[71, 0]),
   midi.NoteOnEvent(tick=300, channel=0, data=[70, 51]),
   midi.NoteOnEvent(tick=0, channel=0, data=[66, 45]),
   midi.NoteOnEvent(tick=180, channel=0, data=[66, 0]),
   midi.NoteOnEvent(tick=0, channel=0, data=[70, 0]),
   midi.NoteOnEvent(tick=300, channel=0, data=[66, 50]),
   midi.NoteOnEvent(tick=0, channel=0, data=[63, 50]),
   midi.NoteOnEvent(tick=0, channel=0, data=[68, 57]),
   midi.NoteOnEvent(tick=180, channel=0, data=[68, 0]),
   midi.NoteOnEvent(tick=0, channel=0, data=[63, 0]),
   midi.NoteOnEvent(tick=0, channel=0, data=[66, 0]),
   midi.NoteOnEvent(tick=780, channel=0, data=[65, 66]),
   midi.NoteOnEvent(tick=240, channel=0, data=[65, 0]),
   midi.NoteOnEvent(tick=240, channel=0, data=[66, 60]),
   midi.NoteOnEvent(tick=0, channel=0, data=[78, 71]),
   midi.NoteOnEvent(tick=480, channel=0, data=[78, 0]),
   midi.NoteOnEvent(tick=0, channel=0, data=[66, 0]),
   midi.NoteOnEvent(tick=0, channel=0, data=[73, 51]),
   midi.NoteOnEvent(tick=0, channel=0, data=[77, 61]),
   midi.NoteOnEvent(tick=480, channel=0, data=[77, 0]),
   midi.NoteOnEvent(tick=0, channel=0, data=[73, 0]),
   midi.NoteOnEvent(tick=0, channel=0, data=[71, 49]),
   midi.NoteOnEvent(tick=0, channel=0, data=[75, 58]),
   midi.NoteOnEvent(tick=480, channel=0, data=[75, 0]),
   midi.NoteOnEvent(tick=0, channel=0, data=[71, 0]),
   midi.NoteOnEvent(tick=0, channel=0, data=[70, 45]),
   midi.NoteOnEvent(tick=0, channel=0, data=[73, 54]),
   midi.NoteOnEvent(tick=480, channel=0, data=[73, 0]),
   midi.NoteOnEvent(tick=0, channel=0, data=[70, 0]),
   midi.NoteOnEvent(tick=0, channel=0, data=[69, 45]),
   midi.NoteOnEvent(tick=0, channel=0, data=[72, 53]),
   midi.NoteOnEvent(tick=480, channel=0, data=[72, 0]),
   midi.NoteOnEvent(tick=0, channel=0, data=[69, 0]),
   midi.NoteOnEvent(tick=0, channel=0, data=[68, 45]),
   midi.NoteOnEvent(tick=0, channel=0, data=[71, 53]),
   midi.NoteOnEvent(tick=480, channel=0, data=[71, 0]),
   midi.NoteOnEvent(tick=0, channel=0, data=[68, 0]),
   midi.NoteOnEvent(tick=0, channel=0, data=[70, 50]),
   midi.NoteOnEvent(tick=240, channel=0, data=[70, 0]),
   midi.NoteOnEvent(tick=0, channel=0, data=[65, 47]),
   midi.NoteOnEvent(tick=240, channel=0, data=[65, 0]),
   midi.NoteOnEvent(tick=0, channel=0, data=[66, 47]),
   midi.NoteOnEvent(tick=240, channel=0, data=[66, 0]),
   midi.NoteOnEvent(tick=0, channel=0, data=[68, 47]),
   midi.NoteOnEvent(tick=240, channel=0, data=[68, 0]),
   midi.NoteOnEvent(tick=0, channel=0, data=[70, 51]),
   midi.NoteOnEvent(tick=240, channel=0, data=[70, 0]),
   midi.NoteOnEvent(tick=0, channel=0, data=[71, 47]),
   midi.NoteOnEvent(tick=240, channel=0, data=[71, 0]),
   midi.NoteOnEvent(tick=0, channel=0, data=[73, 50]),
   midi.NoteOnEvent(tick=240, channel=0, data=[73, 0]),
   midi.NoteOnEvent(tick=0, channel=0, data=[72, 47]),
   midi.NoteOnEvent(tick=240, channel=0, data=[72, 0]),
   midi.NoteOnEvent(tick=0, channel=0, data=[73, 49]),
   midi.NoteOnEvent(tick=240, channel=0, data=[73, 0]),
   midi.NoteOnEvent(tick=0, channel=0, data=[75, 47]),
   midi.NoteOnEvent(tick=240, channel=0, data=[75, 0]),
   midi.NoteOnEvent(tick=0, channel=0, data=[76, 50]),
   midi.NoteOnEvent(tick=240, channel=0, data=[76, 0]),
   midi.NoteOnEvent(tick=0, channel=0, data=[77, 47]),
   midi.NoteOnEvent(tick=240, channel=0, data=[77, 0]),
   midi.NoteOnEvent(tick=0, channel=0, data=[78, 50]),
   midi.NoteOnEvent(tick=240, channel=0, data=[78, 0]),
   midi.NoteOnEvent(tick=0, channel=0, data=[77, 50]),
   midi.NoteOnEvent(tick=240, channel=0, data=[77, 0]),
   midi.NoteOnEvent(tick=0, channel=0, data=[78, 49]),
   midi.NoteOnEvent(tick=240, channel=0, data=[78, 0]),
   midi.NoteOnEvent(tick=0, channel=0, data=[80, 48]),
   midi.NoteOnEvent(tick=240, channel=0, data=[80, 0]),
   midi.NoteOnEvent(tick=0, channel=0, data=[82, 51]),
   midi.NoteOnEvent(tick=240, channel=0, data=[82, 0]),
   midi.NoteOnEvent(tick=0, channel=0, data=[83, 45]),
   midi.NoteOnEvent(tick=240, channel=0, data=[83, 0]),
   midi.NoteOnEvent(tick=0, channel=0, data=[85, 46]),
   midi.NoteOnEvent(tick=240, channel=0, data=[85, 0]),
   midi.NoteOnEvent(tick=0, channel=0, data=[84, 43]),
   midi.NoteOnEvent(tick=240, channel=0, data=[84, 0]),
   midi.NoteOnEvent(tick=0, channel=0, data=[85, 42]),
   midi.NoteOnEvent(tick=240, channel=0, data=[85, 0]),
   midi.NoteOnEvent(tick=0, channel=0, data=[87, 40]),
   midi.NoteOnEvent(tick=240, channel=0, data=[87, 0]),
   midi.NoteOnEvent(tick=0, channel=0, data=[88, 41]),
   midi.NoteOnEvent(tick=240, channel=0, data=[88, 0]),
   midi.NoteOnEvent(tick=0, channel=0, data=[89, 38]),
   midi.NoteOnEvent(tick=240, channel=0, data=[89, 0]),
   midi.NoteOnEvent(tick=0, channel=0, data=[90, 44]),
   midi.NoteOnEvent(tick=240, channel=0, data=[90, 0]),
   midi.NoteOnEvent(tick=0, channel=0, data=[85, 44]),
   midi.NoteOnEvent(tick=240, channel=0, data=[85, 0]),
   midi.NoteOnEvent(tick=0, channel=0, data=[82, 40]),
   midi.NoteOnEvent(tick=240, channel=0, data=[82, 0]),
   midi.NoteOnEvent(tick=0, channel=0, data=[80, 37]),
   midi.NoteOnEvent(tick=240, channel=0, data=[80, 0]),
   midi.NoteOnEvent(tick=0, channel=0, data=[82, 40]),
   midi.NoteOnEvent(tick=240, channel=0, data=[82, 0]),
   midi.NoteOnEvent(tick=0, channel=0, data=[78, 36]),
   midi.NoteOnEvent(tick=240, channel=0, data=[78, 0]),
   midi.NoteOnEvent(tick=0, channel=0, data=[85, 45]),
   midi.NoteOnEvent(tick=240, channel=0, data=[85, 0]),
   midi.NoteOnEvent(tick=0, channel=0, data=[82, 36]),
   midi.NoteOnEvent(tick=240, channel=0, data=[82, 0]),
   midi.NoteOnEvent(tick=0, channel=0, data=[78, 40]),
   midi.NoteOnEvent(tick=240, channel=0, data=[78, 0]),
   midi.NoteOnEvent(tick=0, channel=0, data=[77, 36]),
   midi.NoteOnEvent(tick=240, channel=0, data=[77, 0]),
   midi.NoteOnEvent(tick=0, channel=0, data=[78, 40]),
   midi.NoteOnEvent(tick=240, channel=0, data=[78, 0]),
   midi.NoteOnEvent(tick=0, channel=0, data=[73, 36]),
   midi.NoteOnEvent(tick=240, channel=0, data=[73, 0]),
   midi.NoteOnEvent(tick=0, channel=0, data=[82, 45]),
   midi.NoteOnEvent(tick=240, channel=0, data=[82, 0]),
   midi.NoteOnEvent(tick=0, channel=0, data=[78, 36]),
   midi.NoteOnEvent(tick=240, channel=0, data=[78, 0]),
   midi.NoteOnEvent(tick=0, channel=0, data=[73, 40]),
   midi.NoteOnEvent(tick=240, channel=0, data=[73, 0]),
   midi.NoteOnEvent(tick=0, channel=0, data=[71, 36]),
   midi.NoteOnEvent(tick=240, channel=0, data=[71, 0]),
   midi.NoteOnEvent(tick=0, channel=0, data=[73, 40]),
   midi.NoteOnEvent(tick=240, channel=0, data=[73, 0]),
   midi.NoteOnEvent(tick=0, channel=0, data=[70, 36]),
   midi.NoteOnEvent(tick=240, channel=0, data=[70, 0]),
   midi.NoteOnEvent(tick=0, channel=0, data=[78, 45]),
   midi.NoteOnEvent(tick=240, channel=0, data=[78, 0]),
   midi.NoteOnEvent(tick=0, channel=0, data=[73, 36]),
   midi.NoteOnEvent(tick=240, channel=0, data=[73, 0]),
   midi.NoteOnEvent(tick=0, channel=0, data=[70, 40]),
   midi.NoteOnEvent(tick=240, channel=0, data=[70, 0]),
   midi.NoteOnEvent(tick=0, channel=0, data=[68, 36]),
   midi.NoteOnEvent(tick=240, channel=0, data=[68, 0]),
   midi.NoteOnEvent(tick=0, channel=0, data=[70, 40]),
   midi.NoteOnEvent(tick=240, channel=0, data=[70, 0]),
   midi.NoteOnEvent(tick=0, channel=0, data=[66, 36]),
   midi.NoteOnEvent(tick=240, channel=0, data=[66, 0]),
   midi.NoteOnEvent(tick=0, channel=0, data=[73, 45]),
   midi.NoteOnEvent(tick=240, channel=0, data=[73, 0]),
   midi.NoteOnEvent(tick=0, channel=0, data=[70, 37]),
   midi.NoteOnEvent(tick=240, channel=0, data=[70, 0]),
   midi.NoteOnEvent(tick=0, channel=0, data=[66, 37]),
   midi.NoteOnEvent(tick=240, channel=0, data=[66, 0]),
   midi.NoteOnEvent(tick=0, channel=0, data=[61, 37]),
   midi.NoteOnEvent(tick=240, channel=0, data=[61, 0]),
   midi.NoteOnEvent(tick=720, channel=0, data=[70, 39]),
   midi.NoteOnEvent(tick=240, channel=0, data=[70, 0]),
   midi.NoteOnEvent(tick=0, channel=0, data=[73, 42]),
   midi.NoteOnEvent(tick=240, channel=0, data=[73, 0]),
   midi.NoteOnEvent(tick=0, channel=0, data=[78, 40]),
   midi.NoteOnEvent(tick=240, channel=0, data=[78, 0]),
   midi.NoteOnEvent(tick=0, channel=0, data=[82, 43]),
   midi.NoteOnEvent(tick=240, channel=0, data=[82, 0]),
   midi.NoteOnEvent(tick=0, channel=0, data=[85, 39]),
   midi.NoteOnEvent(tick=240, channel=0, data=[85, 0]),
   midi.NoteOnEvent(tick=0, channel=0, data=[90, 45]),
   midi.NoteOnEvent(tick=240, channel=0, data=[90, 0]),
   midi.NoteOnEvent(tick=1200, channel=0, data=[58, 26]),
   midi.NoteOnEvent(tick=0, channel=0, data=[66, 26]),
   midi.NoteOnEvent(tick=0, channel=0, data=[70, 31]),
   midi.NoteOnEvent(tick=480, channel=0, data=[70, 0]),
   midi.NoteOnEvent(tick=0, channel=0, data=[66, 0]),
   midi.NoteOnEvent(tick=0, channel=0, data=[58, 0]),
   midi.NoteOnEvent(tick=960, channel=0, data=[78, 38]),
   midi.NoteOnEvent(tick=0, channel=0, data=[70, 32]),
   midi.NoteOnEvent(tick=480, channel=0, data=[70, 0]),
   midi.NoteOnEvent(tick=0, channel=0, data=[78, 0]),
   midi.EndOfTrackEvent(tick=0, data=[])]),
 midi.Track(\
[    midi.NoteOnEvent(tick=2880, channel=0, data=[30, 40]),
   midi.NoteOnEvent(tick=0, channel=0, data=[42, 48]),
   midi.NoteOnEvent(tick=960, channel=0, data=[42, 0]),
   midi.NoteOnEvent(tick=0, channel=0, data=[30, 0]),
   midi.NoteOnEvent(tick=480, channel=0, data=[42, 40]),
   midi.NoteOnEvent(tick=0, channel=0, data=[54, 48]),
   midi.NoteOnEvent(tick=960, channel=0, data=[54, 0]),
   midi.NoteOnEvent(tick=0, channel=0, data=[42, 0]),
   midi.NoteOnEvent(tick=480, channel=0, data=[62, 60]),
   midi.NoteOnEvent(tick=0, channel=0, data=[57, 50]),
   midi.NoteOnEvent(tick=0, channel=0, data=[54, 50]),
   midi.NoteOnEvent(tick=960, channel=0, data=[62, 0]),
   midi.NoteOnEvent(tick=0, channel=0, data=[61, 48]),
   midi.NoteOnEvent(tick=480, channel=0, data=[61, 0]),
   midi.NoteOnEvent(tick=0, channel=0, data=[60, 54]),
   midi.NoteOnEvent(tick=720, channel=0, data=[54, 0]),
   midi.NoteOnEvent(tick=0, channel=0, data=[57, 0]),
   midi.NoteOnEvent(tick=240, channel=0, data=[60, 0]),
   midi.NoteOnEvent(tick=0, channel=0, data=[57, 39]),
   midi.NoteOnEvent(tick=0, channel=0, data=[54, 33]),
   midi.NoteOnEvent(tick=480, channel=0, data=[54, 0]),
   midi.NoteOnEvent(tick=0, channel=0, data=[57, 0]),
   midi.NoteOnEvent(tick=0, channel=0, data=[53, 40]),
   midi.NoteOnEvent(tick=0, channel=0, data=[56, 48]),
   midi.NoteOnEvent(tick=480, channel=0, data=[56, 0]),
   midi.NoteOnEvent(tick=0, channel=0, data=[53, 0]),
   midi.NoteOnEvent(tick=480, channel=0, data=[49, 38]),
   midi.NoteOnEvent(tick=0, channel=0, data=[37, 32]),
   midi.NoteOnEvent(tick=480, channel=0, data=[37, 0]),
   midi.NoteOnEvent(tick=0, channel=0, data=[49, 0]),
   midi.NoteOnEvent(tick=0, channel=0, data=[42, 40]),
   midi.NoteOnEvent(tick=0, channel=0, data=[54, 48]),
   midi.NoteOnEvent(tick=480, channel=0, data=[54, 0]),
   midi.NoteOnEvent(tick=0, channel=0, data=[42, 0]),
   midi.NoteOnEvent(tick=960, channel=0, data=[35, 40]),
   midi.NoteOnEvent(tick=0, channel=0, data=[47, 48]),
   midi.NoteOnEvent(tick=480, channel=0, data=[47, 0]),
   midi.NoteOnEvent(tick=0, channel=0, data=[35, 0]),
   midi.NoteOnEvent(tick=960, channel=0, data=[49, 41]),
   midi.NoteOnEvent(tick=0, channel=0, data=[37, 34]),
   midi.NoteOnEvent(tick=480, channel=0, data=[37, 0]),
   midi.NoteOnEvent(tick=0, channel=0, data=[49, 0]),
   midi.NoteOnEvent(tick=960, channel=0, data=[30, 40]),
   midi.NoteOnEvent(tick=0, channel=0, data=[42, 48]),
   midi.NoteOnEvent(tick=960, channel=0, data=[42, 0]),
   midi.NoteOnEvent(tick=0, channel=0, data=[30, 0]),
   midi.NoteOnEvent(tick=480, channel=0, data=[42, 40]),
   midi.NoteOnEvent(tick=0, channel=0, data=[54, 48]),
   midi.NoteOnEvent(tick=960, channel=0, data=[54, 0]),
   midi.NoteOnEvent(tick=0, channel=0, data=[42, 0]),
   midi.NoteOnEvent(tick=480, channel=0, data=[62, 55]),
   midi.NoteOnEvent(tick=0, channel=0, data=[57, 46]),
   midi.NoteOnEvent(tick=0, channel=0, data=[54, 46]),
   midi.NoteOnEvent(tick=960, channel=0, data=[62, 0]),
   midi.NoteOnEvent(tick=0, channel=0, data=[61, 48]),
   midi.NoteOnEvent(tick=480, channel=0, data=[61, 0]),
   midi.NoteOnEvent(tick=0, channel=0, data=[60, 54]),
   midi.NoteOnEvent(tick=720, channel=0, data=[54, 0]),
   midi.NoteOnEvent(tick=0, channel=0, data=[57, 0]),
   midi.NoteOnEvent(tick=240, channel=0, data=[60, 0]),
   midi.NoteOnEvent(tick=0, channel=0, data=[57, 39]),
   midi.NoteOnEvent(tick=0, channel=0, data=[54, 33]),
   midi.NoteOnEvent(tick=480, channel=0, data=[54, 0]),
   midi.NoteOnEvent(tick=0, channel=0, data=[57, 0]),
   midi.NoteOnEvent(tick=0, channel=0, data=[53, 40]),
   midi.NoteOnEvent(tick=0, channel=0, data=[56, 48]),
   midi.NoteOnEvent(tick=480, channel=0, data=[56, 0]),
   midi.NoteOnEvent(tick=0, channel=0, data=[53, 0]),
   midi.NoteOnEvent(tick=480, channel=0, data=[54, 38]),
   midi.NoteOnEvent(tick=0, channel=0, data=[42, 32]),
   midi.NoteOnEvent(tick=480, channel=0, data=[42, 0]),
   midi.NoteOnEvent(tick=0, channel=0, data=[47, 40]),
   midi.NoteOnEvent(tick=480, channel=0, data=[47, 0]),
   midi.NoteOnEvent(tick=0, channel=0, data=[54, 0]),
   midi.NoteOnEvent(tick=480, channel=0, data=[54, 38]),
   midi.NoteOnEvent(tick=0, channel=0, data=[42, 32]),
   midi.NoteOnEvent(tick=480, channel=0, data=[42, 0]),
   midi.NoteOnEvent(tick=0, channel=0, data=[54, 0]),
   midi.NoteOnEvent(tick=0, channel=0, data=[47, 48]),
   midi.NoteOnEvent(tick=1440, channel=0, data=[47, 0]),
   midi.NoteOnEvent(tick=0, channel=0, data=[49, 40]),
   midi.NoteOnEvent(tick=960, channel=0, data=[49, 0]),
   midi.NoteOnEvent(tick=0, channel=0, data=[54, 38]),
   midi.NoteOnEvent(tick=0, channel=0, data=[42, 32]),
   midi.NoteOnEvent(tick=480, channel=0, data=[42, 0]),
   midi.NoteOnEvent(tick=0, channel=0, data=[47, 40]),
   midi.NoteOnEvent(tick=480, channel=0, data=[47, 0]),
   midi.NoteOnEvent(tick=0, channel=0, data=[54, 0]),
   midi.NoteOnEvent(tick=480, channel=0, data=[54, 38]),
   midi.NoteOnEvent(tick=0, channel=0, data=[42, 32]),
   midi.NoteOnEvent(tick=480, channel=0, data=[42, 0]),
   midi.NoteOnEvent(tick=0, channel=0, data=[47, 40]),
   midi.NoteOnEvent(tick=480, channel=0, data=[47, 0]),
   midi.NoteOnEvent(tick=0, channel=0, data=[54, 0]),
   midi.NoteOnEvent(tick=480, channel=0, data=[54, 38]),
   midi.NoteOnEvent(tick=0, channel=0, data=[42, 32]),
   midi.NoteOnEvent(tick=480, channel=0, data=[42, 0]),
   midi.NoteOnEvent(tick=0, channel=0, data=[54, 0]),
   midi.NoteOnEvent(tick=0, channel=0, data=[47, 48]),
   midi.NoteOnEvent(tick=1440, channel=0, data=[47, 0]),
   midi.NoteOnEvent(tick=0, channel=0, data=[49, 40]),
   midi.NoteOnEvent(tick=960, channel=0, data=[49, 0]),
   midi.NoteOnEvent(tick=0, channel=0, data=[54, 38]),
   midi.NoteOnEvent(tick=0, channel=0, data=[42, 32]),
   midi.NoteOnEvent(tick=480, channel=0, data=[42, 0]),
   midi.NoteOnEvent(tick=0, channel=0, data=[47, 40]),
   midi.NoteOnEvent(tick=480, channel=0, data=[47, 0]),
   midi.NoteOnEvent(tick=0, channel=0, data=[54, 0]),
   midi.NoteOnEvent(tick=480, channel=0, data=[61, 38]),
   midi.NoteOnEvent(tick=480, channel=0, data=[61, 0]),
   midi.NoteOnEvent(tick=0, channel=0, data=[59, 42]),
   midi.NoteOnEvent(tick=480, channel=0, data=[59, 0]),
   midi.NoteOnEvent(tick=0, channel=0, data=[57, 46]),
   midi.NoteOnEvent(tick=480, channel=0, data=[57, 0]),
   midi.NoteOnEvent(tick=0, channel=0, data=[56, 50]),
   midi.NoteOnEvent(tick=480, channel=0, data=[56, 0]),
   midi.NoteOnEvent(tick=0, channel=0, data=[54, 54]),
   midi.NoteOnEvent(tick=480, channel=0, data=[54, 0]),
   midi.NoteOnEvent(tick=0, channel=0, data=[52, 63]),
   midi.NoteOnEvent(tick=480, channel=0, data=[52, 0]),
   midi.NoteOnEvent(tick=0, channel=0, data=[50, 72]),
   midi.NoteOnEvent(tick=480, channel=0, data=[50, 0]),
   midi.NoteOnEvent(tick=0, channel=0, data=[49, 84]),
   midi.NoteOnEvent(tick=480, channel=0, data=[49, 0]),
   midi.NoteOnEvent(tick=0, channel=0, data=[45, 82]),
   midi.NoteOnEvent(tick=480, channel=0, data=[45, 0]),
   midi.NoteOnEvent(tick=0, channel=0, data=[43, 82]),
   midi.NoteOnEvent(tick=480, channel=0, data=[43, 0]),
   midi.NoteOnEvent(tick=0, channel=0, data=[42, 86]),
   midi.NoteOnEvent(tick=2400, channel=0, data=[42, 0]),
   midi.NoteOnEvent(tick=0, channel=0, data=[46, 72]),
   midi.NoteOnEvent(tick=480, channel=0, data=[46, 0]),
   midi.NoteOnEvent(tick=0, channel=0, data=[47, 70]),
   midi.NoteOnEvent(tick=960, channel=0, data=[47, 0]),
   midi.NoteOnEvent(tick=0, channel=0, data=[44, 57]),
   midi.NoteOnEvent(tick=480, channel=0, data=[44, 0]),
   midi.NoteOnEvent(tick=0, channel=0, data=[45, 55]),
   midi.NoteOnEvent(tick=960, channel=0, data=[45, 0]),
   midi.NoteOnEvent(tick=0, channel=0, data=[39, 44]),
   midi.NoteOnEvent(tick=480, channel=0, data=[39, 0]),
   midi.NoteOnEvent(tick=0, channel=0, data=[40, 47]),
   midi.NoteOnEvent(tick=480, channel=0, data=[40, 0]),
   midi.NoteOnEvent(tick=0, channel=0, data=[52, 69]),
   midi.NoteOnEvent(tick=0, channel=0, data=[44, 58]),
   midi.NoteOnEvent(tick=480, channel=0, data=[44, 0]),
   midi.NoteOnEvent(tick=0, channel=0, data=[52, 0]),
   midi.NoteOnEvent(tick=0, channel=0, data=[45, 53]),
   midi.NoteOnEvent(tick=480, channel=0, data=[45, 0]),
   midi.NoteOnEvent(tick=0, channel=0, data=[40, 54]),
   midi.NoteOnEvent(tick=480, channel=0, data=[40, 0]),
   midi.NoteOnEvent(tick=0, channel=0, data=[52, 69]),
   midi.NoteOnEvent(tick=0, channel=0, data=[44, 58]),
   midi.NoteOnEvent(tick=480, channel=0, data=[44, 0]),
   midi.NoteOnEvent(tick=0, channel=0, data=[52, 0]),
   midi.NoteOnEvent(tick=0, channel=0, data=[45, 53]),
   midi.NoteOnEvent(tick=480, channel=0, data=[45, 0]),
   midi.NoteOnEvent(tick=0, channel=0, data=[40, 54]),
   midi.NoteOnEvent(tick=480, channel=0, data=[40, 0]),
   midi.NoteOnEvent(tick=0, channel=0, data=[52, 69]),
   midi.NoteOnEvent(tick=0, channel=0, data=[44, 58]),
   midi.NoteOnEvent(tick=480, channel=0, data=[44, 0]),
   midi.NoteOnEvent(tick=0, channel=0, data=[52, 0]),
   midi.NoteOnEvent(tick=0, channel=0, data=[45, 53]),
   midi.NoteOnEvent(tick=480, channel=0, data=[45, 0]),
   midi.NoteOnEvent(tick=0, channel=0, data=[40, 54]),
   midi.NoteOnEvent(tick=480, channel=0, data=[40, 0]),
   midi.NoteOnEvent(tick=0, channel=0, data=[52, 69]),
   midi.NoteOnEvent(tick=0, channel=0, data=[44, 58]),
   midi.NoteOnEvent(tick=480, channel=0, data=[44, 0]),
   midi.NoteOnEvent(tick=0, channel=0, data=[52, 0]),
   midi.NoteOnEvent(tick=0, channel=0, data=[45, 53]),
   midi.NoteOnEvent(tick=480, channel=0, data=[45, 0]),
   midi.NoteOnEvent(tick=0, channel=0, data=[40, 54]),
   midi.NoteOnEvent(tick=480, channel=0, data=[40, 0]),
   midi.NoteOnEvent(tick=4800, channel=0, data=[40, 54]),
   midi.NoteOnEvent(tick=480, channel=0, data=[40, 0]),
   midi.NoteOnEvent(tick=0, channel=0, data=[45, 64]),
   midi.NoteOnEvent(tick=0, channel=0, data=[37, 64]),
   midi.NoteOnEvent(tick=960, channel=0, data=[37, 0]),
   midi.NoteOnEvent(tick=480, channel=0, data=[42, 58]),
   midi.NoteOnEvent(tick=480, channel=0, data=[45, 0]),
   midi.NoteOnEvent(tick=0, channel=0, data=[44, 62]),
   midi.NoteOnEvent(tick=480, channel=0, data=[44, 0]),
   midi.NoteOnEvent(tick=0, channel=0, data=[42, 0]),
   midi.NoteOnEvent(tick=0, channel=0, data=[45, 70]),
   midi.NoteOnEvent(tick=480, channel=0, data=[45, 0]),
   midi.NoteOnEvent(tick=0, channel=0, data=[47, 72]),
   midi.NoteOnEvent(tick=0, channel=0, data=[40, 72]),
   midi.NoteOnEvent(tick=960, channel=0, data=[40, 0]),
   midi.NoteOnEvent(tick=480, channel=0, data=[47, 0]),
   midi.NoteOnEvent(tick=0, channel=0, data=[45, 54]),
   midi.NoteOnEvent(tick=0, channel=0, data=[49, 54]),
   midi.NoteOnEvent(tick=960, channel=0, data=[45, 0]),
   midi.NoteOnEvent(tick=480, channel=0, data=[49, 0]),
   midi.NoteOnEvent(tick=0, channel=0, data=[38, 73]),
   midi.NoteOnEvent(tick=0, channel=0, data=[52, 73]),
   midi.NoteOnEvent(tick=480, channel=0, data=[52, 0]),
   midi.NoteOnEvent(tick=0, channel=0, data=[50, 62]),
   midi.NoteOnEvent(tick=480, channel=0, data=[50, 0]),
   midi.NoteOnEvent(tick=0, channel=0, data=[38, 0]),
   midi.NoteOnEvent(tick=0, channel=0, data=[49, 54]),
   midi.NoteOnEvent(tick=480, channel=0, data=[49, 0]),
   midi.NoteOnEvent(tick=0, channel=0, data=[40, 66]),
   midi.NoteOnEvent(tick=0, channel=0, data=[47, 66]),
   midi.NoteOnEvent(tick=480, channel=0, data=[47, 0]),
   midi.NoteOnEvent(tick=0, channel=0, data=[49, 49]),
   midi.NoteOnEvent(tick=480, channel=0, data=[49, 0]),
   midi.NoteOnEvent(tick=0, channel=0, data=[40, 0]),
   midi.NoteOnEvent(tick=0, channel=0, data=[47, 41]),
   midi.NoteOnEvent(tick=480, channel=0, data=[47, 0]),
   midi.NoteOnEvent(tick=0, channel=0, data=[45, 50]),
   midi.NoteOnEvent(tick=2400, channel=0, data=[45, 0]),
   midi.NoteOnEvent(tick=0, channel=0, data=[49, 36]),
   midi.NoteOnEvent(tick=240, channel=0, data=[49, 0]),
   midi.NoteOnEvent(tick=0, channel=0, data=[45, 36]),
   midi.NoteOnEvent(tick=240, channel=0, data=[45, 0]),
   midi.NoteOnEvent(tick=0, channel=0, data=[42, 48]),
   midi.NoteOnEvent(tick=240, channel=0, data=[42, 0]),
   midi.NoteOnEvent(tick=0, channel=0, data=[45, 36]),
   midi.NoteOnEvent(tick=240, channel=0, data=[45, 0]),
   midi.NoteOnEvent(tick=0, channel=0, data=[47, 36]),
   midi.NoteOnEvent(tick=240, channel=0, data=[47, 0]),
   midi.NoteOnEvent(tick=0, channel=0, data=[49, 36]),
   midi.NoteOnEvent(tick=240, channel=0, data=[49, 0]),
   midi.NoteOnEvent(tick=0, channel=0, data=[47, 37]),
   midi.NoteOnEvent(tick=240, channel=0, data=[47, 0]),
   midi.NoteOnEvent(tick=0, channel=0, data=[45, 37]),
   midi.NoteOnEvent(tick=240, channel=0, data=[45, 0]),
   midi.NoteOnEvent(tick=0, channel=0, data=[51, 47]),
   midi.NoteOnEvent(tick=240, channel=0, data=[51, 0]),
   midi.NoteOnEvent(tick=0, channel=0, data=[42, 37]),
   midi.NoteOnEvent(tick=240, channel=0, data=[42, 0]),
   midi.NoteOnEvent(tick=0, channel=0, data=[44, 51]),
   midi.NoteOnEvent(tick=240, channel=0, data=[44, 0]),
   midi.NoteOnEvent(tick=0, channel=0, data=[45, 45]),
   midi.NoteOnEvent(tick=240, channel=0, data=[45, 0]),
   midi.NoteOnEvent(tick=0, channel=0, data=[44, 56]),
   midi.NoteOnEvent(tick=240, channel=0, data=[44, 0]),
   midi.NoteOnEvent(tick=0, channel=0, data=[42, 50]),
   midi.NoteOnEvent(tick=240, channel=0, data=[42, 0]),
   midi.NoteOnEvent(tick=0, channel=0, data=[40, 65]),
   midi.NoteOnEvent(tick=240, channel=0, data=[40, 0]),
   midi.NoteOnEvent(tick=0, channel=0, data=[50, 38]),
   midi.NoteOnEvent(tick=240, channel=0, data=[50, 0]),
   midi.NoteOnEvent(tick=0, channel=0, data=[52, 52]),
   midi.NoteOnEvent(tick=240, channel=0, data=[52, 0]),
   midi.NoteOnEvent(tick=0, channel=0, data=[54, 39]),
   midi.NoteOnEvent(tick=240, channel=0, data=[54, 0]),
   midi.NoteOnEvent(tick=0, channel=0, data=[52, 51]),
   midi.NoteOnEvent(tick=240, channel=0, data=[52, 0]),
   midi.NoteOnEvent(tick=0, channel=0, data=[50, 47]),
   midi.NoteOnEvent(tick=240, channel=0, data=[50, 0]),
   midi.NoteOnEvent(tick=0, channel=0, data=[55, 67]),
   midi.NoteOnEvent(tick=0, channel=0, data=[45, 67]),
   midi.NoteOnEvent(tick=240, channel=0, data=[45, 0]),
   midi.NoteOnEvent(tick=0, channel=0, data=[55, 0]),
   midi.NoteOnEvent(tick=0, channel=0, data=[52, 49]),
   midi.NoteOnEvent(tick=240, channel=0, data=[52, 0]),
   midi.NoteOnEvent(tick=0, channel=0, data=[49, 54]),
   midi.NoteOnEvent(tick=240, channel=0, data=[49, 0]),
   midi.NoteOnEvent(tick=0, channel=0, data=[47, 47]),
   midi.NoteOnEvent(tick=240, channel=0, data=[47, 0]),
   midi.NoteOnEvent(tick=0, channel=0, data=[43, 57]),
   midi.NoteOnEvent(tick=240, channel=0, data=[43, 0]),
   midi.NoteOnEvent(tick=0, channel=0, data=[40, 53]),
   midi.NoteOnEvent(tick=240, channel=0, data=[40, 0]),
   midi.NoteOnEvent(tick=0, channel=0, data=[38, 72]),
   midi.NoteOnEvent(tick=240, channel=0, data=[38, 0]),
   midi.NoteOnEvent(tick=0, channel=0, data=[42, 51]),
   midi.NoteOnEvent(tick=240, channel=0, data=[42, 0]),
   midi.NoteOnEvent(tick=0, channel=0, data=[44, 58]),
   midi.NoteOnEvent(tick=240, channel=0, data=[44, 0]),
   midi.NoteOnEvent(tick=0, channel=0, data=[45, 48]),
   midi.NoteOnEvent(tick=240, channel=0, data=[45, 0]),
   midi.NoteOnEvent(tick=0, channel=0, data=[47, 55]),
   midi.NoteOnEvent(tick=240, channel=0, data=[47, 0]),
   midi.NoteOnEvent(tick=0, channel=0, data=[49, 47]),
   midi.NoteOnEvent(tick=240, channel=0, data=[49, 0]),
   midi.NoteOnEvent(tick=0, channel=0, data=[50, 64]),
   midi.NoteOnEvent(tick=0, channel=0, data=[40, 64]),
   midi.NoteOnEvent(tick=240, channel=0, data=[40, 0]),
   midi.NoteOnEvent(tick=0, channel=0, data=[50, 0]),
   midi.NoteOnEvent(tick=0, channel=0, data=[49, 49]),
   midi.NoteOnEvent(tick=240, channel=0, data=[49, 0]),
   midi.NoteOnEvent(tick=0, channel=0, data=[50, 55]),
   midi.NoteOnEvent(tick=240, channel=0, data=[50, 0]),
   midi.NoteOnEvent(tick=0, channel=0, data=[47, 48]),
   midi.NoteOnEvent(tick=240, channel=0, data=[47, 0]),
   midi.NoteOnEvent(tick=0, channel=0, data=[52, 54]),
   midi.NoteOnEvent(tick=240, channel=0, data=[52, 0]),
   midi.NoteOnEvent(tick=0, channel=0, data=[50, 41]),
   midi.NoteOnEvent(tick=240, channel=0, data=[50, 0]),
   midi.NoteOnEvent(tick=0, channel=0, data=[49, 60]),
   midi.NoteOnEvent(tick=0, channel=0, data=[45, 60]),
   midi.NoteOnEvent(tick=240, channel=0, data=[45, 0]),
   midi.NoteOnEvent(tick=0, channel=0, data=[49, 0]),
   midi.NoteOnEvent(tick=0, channel=0, data=[52, 54]),
   midi.NoteOnEvent(tick=240, channel=0, data=[52, 0]),
   midi.NoteOnEvent(tick=0, channel=0, data=[50, 54]),
   midi.NoteOnEvent(tick=240, channel=0, data=[50, 0]),
   midi.NoteOnEvent(tick=0, channel=0, data=[49, 54]),
   midi.NoteOnEvent(tick=240, channel=0, data=[49, 0]),
   midi.NoteOnEvent(tick=0, channel=0, data=[47, 54]),
   midi.NoteOnEvent(tick=240, channel=0, data=[47, 0]),
   midi.NoteOnEvent(tick=0, channel=0, data=[45, 51]),
   midi.NoteOnEvent(tick=240, channel=0, data=[45, 0]),
   midi.NoteOnEvent(tick=0, channel=0, data=[44, 55]),
   midi.NoteOnEvent(tick=240, channel=0, data=[44, 0]),
   midi.NoteOnEvent(tick=0, channel=0, data=[45, 55]),
   midi.NoteOnEvent(tick=240, channel=0, data=[45, 0]),
   midi.NoteOnEvent(tick=0, channel=0, data=[43, 57]),
   midi.NoteOnEvent(tick=240, channel=0, data=[43, 0]),
   midi.NoteOnEvent(tick=0, channel=0, data=[45, 60]),
   midi.NoteOnEvent(tick=240, channel=0, data=[45, 0]),
   midi.NoteOnEvent(tick=0, channel=0, data=[42, 61]),
   midi.NoteOnEvent(tick=240, channel=0, data=[42, 0]),
   midi.NoteOnEvent(tick=0, channel=0, data=[46, 65]),
   midi.NoteOnEvent(tick=240, channel=0, data=[46, 0]),
   midi.NoteOnEvent(tick=0, channel=0, data=[38, 75]),
   midi.NoteOnEvent(tick=240, channel=0, data=[38, 0]),
   midi.NoteOnEvent(tick=0, channel=0, data=[42, 53]),
   midi.NoteOnEvent(tick=240, channel=0, data=[42, 0]),
   midi.NoteOnEvent(tick=0, channel=0, data=[44, 62]),
   midi.NoteOnEvent(tick=240, channel=0, data=[44, 0]),
   midi.NoteOnEvent(tick=0, channel=0, data=[45, 50]),
   midi.NoteOnEvent(tick=240, channel=0, data=[45, 0]),
   midi.NoteOnEvent(tick=0, channel=0, data=[47, 65]),
   midi.NoteOnEvent(tick=240, channel=0, data=[47, 0]),
   midi.NoteOnEvent(tick=0, channel=0, data=[49, 49]),
   midi.NoteOnEvent(tick=240, channel=0, data=[49, 0]),
   midi.NoteOnEvent(tick=0, channel=0, data=[50, 73]),
   midi.NoteOnEvent(tick=240, channel=0, data=[50, 0]),
   midi.NoteOnEvent(tick=0, channel=0, data=[40, 51]),
   midi.NoteOnEvent(tick=240, channel=0, data=[40, 0]),
   midi.NoteOnEvent(tick=0, channel=0, data=[52, 64]),
   midi.NoteOnEvent(tick=240, channel=0, data=[52, 0]),
   midi.NoteOnEvent(tick=0, channel=0, data=[40, 50]),
   midi.NoteOnEvent(tick=240, channel=0, data=[40, 0]),
   midi.NoteOnEvent(tick=0, channel=0, data=[50, 56]),
   midi.NoteOnEvent(tick=240, channel=0, data=[50, 0]),
   midi.NoteOnEvent(tick=0, channel=0, data=[40, 43]),
   midi.NoteOnEvent(tick=240, channel=0, data=[40, 0]),
   midi.NoteOnEvent(tick=0, channel=0, data=[45, 63]),
   midi.NoteOnEvent(tick=240, channel=0, data=[49, 48]),
   midi.NoteOnEvent(tick=240, channel=0, data=[49, 0]),
   midi.NoteOnEvent(tick=0, channel=0, data=[50, 50]),
   midi.NoteOnEvent(tick=240, channel=0, data=[50, 0]),
   midi.NoteOnEvent(tick=0, channel=0, data=[52, 46]),
   midi.NoteOnEvent(tick=240, channel=0, data=[52, 0]),
   midi.NoteOnEvent(tick=0, channel=0, data=[54, 47]),
   midi.NoteOnEvent(tick=240, channel=0, data=[54, 0]),
   midi.NoteOnEvent(tick=0, channel=0, data=[50, 45]),
   midi.NoteOnEvent(tick=240, channel=0, data=[50, 0]),
   midi.NoteOnEvent(tick=0, channel=0, data=[52, 45]),
   midi.NoteOnEvent(tick=240, channel=0, data=[52, 0]),
   midi.NoteOnEvent(tick=0, channel=0, data=[45, 0]),
   midi.NoteOnEvent(tick=0, channel=0, data=[54, 41]),
   midi.NoteOnEvent(tick=240, channel=0, data=[54, 0]),
   midi.NoteOnEvent(tick=0, channel=0, data=[56, 43]),
   midi.NoteOnEvent(tick=240, channel=0, data=[56, 0]),
   midi.NoteOnEvent(tick=0, channel=0, data=[52, 41]),
   midi.NoteOnEvent(tick=240, channel=0, data=[52, 0]),
   midi.NoteOnEvent(tick=0, channel=0, data=[54, 42]),
   midi.NoteOnEvent(tick=240, channel=0, data=[54, 0]),
   midi.NoteOnEvent(tick=0, channel=0, data=[56, 37]),
   midi.NoteOnEvent(tick=240, channel=0, data=[56, 0]),
   midi.NoteOnEvent(tick=0, channel=0, data=[57, 42]),
   midi.NoteOnEvent(tick=240, channel=0, data=[57, 0]),
   midi.NoteOnEvent(tick=240, channel=0, data=[66, 38]),
   midi.NoteOnEvent(tick=180, channel=0, data=[66, 0]),
   midi.NoteOnEvent(tick=300, channel=0, data=[64, 32]),
   midi.NoteOnEvent(tick=180, channel=0, data=[64, 0]),
   midi.NoteOnEvent(tick=300, channel=0, data=[63, 38]),
   midi.NoteOnEvent(tick=180, channel=0, data=[63, 0]),
   midi.NoteOnEvent(tick=780, channel=0, data=[62, 38]),
   midi.NoteOnEvent(tick=240, channel=0, data=[62, 0]),
   midi.NoteOnEvent(tick=240, channel=0, data=[57, 63]),
   midi.NoteOnEvent(tick=240, channel=0, data=[61, 48]),
   midi.NoteOnEvent(tick=240, channel=0, data=[61, 0]),
   midi.NoteOnEvent(tick=0, channel=0, data=[62, 50]),
   midi.NoteOnEvent(tick=240, channel=0, data=[62, 0]),
   midi.NoteOnEvent(tick=0, channel=0, data=[64, 46]),
   midi.NoteOnEvent(tick=240, channel=0, data=[64, 0]),
   midi.NoteOnEvent(tick=0, channel=0, data=[66, 47]),
   midi.NoteOnEvent(tick=240, channel=0, data=[66, 0]),
   midi.NoteOnEvent(tick=0, channel=0, data=[62, 45]),
   midi.NoteOnEvent(tick=240, channel=0, data=[62, 0]),
   midi.NoteOnEvent(tick=0, channel=0, data=[64, 45]),
   midi.NoteOnEvent(tick=240, channel=0, data=[64, 0]),
   midi.NoteOnEvent(tick=0, channel=0, data=[57, 0]),
   midi.NoteOnEvent(tick=0, channel=0, data=[66, 41]),
   midi.NoteOnEvent(tick=240, channel=0, data=[66, 0]),
   midi.NoteOnEvent(tick=0, channel=0, data=[68, 43]),
   midi.NoteOnEvent(tick=240, channel=0, data=[68, 0]),
   midi.NoteOnEvent(tick=0, channel=0, data=[64, 41]),
   midi.NoteOnEvent(tick=240, channel=0, data=[64, 0]),
   midi.NoteOnEvent(tick=0, channel=0, data=[66, 42]),
   midi.NoteOnEvent(tick=240, channel=0, data=[66, 0]),
   midi.NoteOnEvent(tick=0, channel=0, data=[68, 37]),
   midi.NoteOnEvent(tick=240, channel=0, data=[68, 0]),
   midi.NoteOnEvent(tick=0, channel=0, data=[69, 56]),
   midi.NoteOnEvent(tick=480, channel=0, data=[64, 54]),
   midi.NoteOnEvent(tick=0, channel=0, data=[68, 64]),
   midi.NoteOnEvent(tick=480, channel=0, data=[68, 0]),
   midi.NoteOnEvent(tick=0, channel=0, data=[64, 0]),
   midi.NoteOnEvent(tick=0, channel=0, data=[62, 51]),
   midi.NoteOnEvent(tick=0, channel=0, data=[66, 61]),
   midi.NoteOnEvent(tick=480, channel=0, data=[66, 0]),
   midi.NoteOnEvent(tick=0, channel=0, data=[62, 0]),
   midi.NoteOnEvent(tick=0, channel=0, data=[61, 48]),
   midi.NoteOnEvent(tick=0, channel=0, data=[64, 57]),
   midi.NoteOnEvent(tick=240, channel=0, data=[69, 0]),
   midi.NoteOnEvent(tick=240, channel=0, data=[64, 0]),
   midi.NoteOnEvent(tick=0, channel=0, data=[61, 0]),
   midi.NoteOnEvent(tick=0, channel=0, data=[60, 47]),
   midi.NoteOnEvent(tick=0, channel=0, data=[63, 56]),
   midi.NoteOnEvent(tick=480, channel=0, data=[63, 0]),
   midi.NoteOnEvent(tick=0, channel=0, data=[60, 0]),
   midi.NoteOnEvent(tick=0, channel=0, data=[59, 47]),
   midi.NoteOnEvent(tick=0, channel=0, data=[62, 56]),
   midi.NoteOnEvent(tick=480, channel=0, data=[62, 0]),
   midi.NoteOnEvent(tick=0, channel=0, data=[59, 0]),
   midi.NoteOnEvent(tick=0, channel=0, data=[57, 47]),
   midi.NoteOnEvent(tick=0, channel=0, data=[61, 56]),
   midi.NoteOnEvent(tick=480, channel=0, data=[61, 0]),
   midi.NoteOnEvent(tick=0, channel=0, data=[57, 0]),
   midi.NoteOnEvent(tick=0, channel=0, data=[52, 48]),
   midi.NoteOnEvent(tick=0, channel=0, data=[56, 57]),
   midi.NoteOnEvent(tick=480, channel=0, data=[56, 0]),
   midi.NoteOnEvent(tick=0, channel=0, data=[52, 0]),
   midi.NoteOnEvent(tick=0, channel=0, data=[50, 44]),
   midi.NoteOnEvent(tick=0, channel=0, data=[54, 53]),
   midi.NoteOnEvent(tick=480, channel=0, data=[54, 0]),
   midi.NoteOnEvent(tick=0, channel=0, data=[50, 0]),
   midi.NoteOnEvent(tick=0, channel=0, data=[49, 40]),
   midi.NoteOnEvent(tick=0, channel=0, data=[52, 48]),
   midi.NoteOnEvent(tick=480, channel=0, data=[52, 0]),
   midi.NoteOnEvent(tick=0, channel=0, data=[49, 0]),
   midi.NoteOnEvent(tick=0, channel=0, data=[48, 39]),
   midi.NoteOnEvent(tick=0, channel=0, data=[51, 46]),
   midi.NoteOnEvent(tick=480, channel=0, data=[51, 0]),
   midi.NoteOnEvent(tick=0, channel=0, data=[48, 0]),
   midi.NoteOnEvent(tick=0, channel=0, data=[47, 37]),
   midi.NoteOnEvent(tick=0, channel=0, data=[50, 44]),
   midi.NoteOnEvent(tick=480, channel=0, data=[50, 0]),
   midi.NoteOnEvent(tick=0, channel=0, data=[47, 0]),
   midi.NoteOnEvent(tick=0, channel=0, data=[45, 39]),
   midi.NoteOnEvent(tick=0, channel=0, data=[49, 43]),
   midi.NoteOnEvent(tick=1440, channel=0, data=[49, 0]),
   midi.NoteOnEvent(tick=0, channel=0, data=[45, 0]),
   midi.NoteOnEvent(tick=1440, channel=0, data=[30, 40]),
   midi.NoteOnEvent(tick=0, channel=0, data=[42, 48]),
   midi.NoteOnEvent(tick=960, channel=0, data=[42, 0]),
   midi.NoteOnEvent(tick=0, channel=0, data=[30, 0]),
   midi.NoteOnEvent(tick=480, channel=0, data=[42, 40]),
   midi.NoteOnEvent(tick=0, channel=0, data=[54, 48]),
   midi.NoteOnEvent(tick=960, channel=0, data=[54, 0]),
   midi.NoteOnEvent(tick=0, channel=0, data=[42, 0]),
   midi.NoteOnEvent(tick=480, channel=0, data=[62, 60]),
   midi.NoteOnEvent(tick=0, channel=0, data=[57, 50]),
   midi.NoteOnEvent(tick=0, channel=0, data=[54, 50]),
   midi.NoteOnEvent(tick=960, channel=0, data=[62, 0]),
   midi.NoteOnEvent(tick=0, channel=0, data=[61, 48]),
   midi.NoteOnEvent(tick=480, channel=0, data=[61, 0]),
   midi.NoteOnEvent(tick=0, channel=0, data=[60, 54]),
   midi.NoteOnEvent(tick=720, channel=0, data=[54, 0]),
   midi.NoteOnEvent(tick=0, channel=0, data=[57, 0]),
   midi.NoteOnEvent(tick=240, channel=0, data=[60, 0]),
   midi.NoteOnEvent(tick=0, channel=0, data=[57, 39]),
   midi.NoteOnEvent(tick=0, channel=0, data=[54, 33]),
   midi.NoteOnEvent(tick=480, channel=0, data=[54, 0]),
   midi.NoteOnEvent(tick=0, channel=0, data=[57, 0]),
   midi.NoteOnEvent(tick=0, channel=0, data=[53, 40]),
   midi.NoteOnEvent(tick=0, channel=0, data=[56, 48]),
   midi.NoteOnEvent(tick=480, channel=0, data=[56, 0]),
   midi.NoteOnEvent(tick=0, channel=0, data=[53, 0]),
   midi.NoteOnEvent(tick=480, channel=0, data=[49, 38]),
   midi.NoteOnEvent(tick=0, channel=0, data=[37, 32]),
   midi.NoteOnEvent(tick=480, channel=0, data=[37, 0]),
   midi.NoteOnEvent(tick=0, channel=0, data=[49, 0]),
   midi.NoteOnEvent(tick=0, channel=0, data=[42, 40]),
   midi.NoteOnEvent(tick=0, channel=0, data=[54, 48]),
   midi.NoteOnEvent(tick=480, channel=0, data=[54, 0]),
   midi.NoteOnEvent(tick=0, channel=0, data=[42, 0]),
   midi.NoteOnEvent(tick=960, channel=0, data=[35, 40]),
   midi.NoteOnEvent(tick=0, channel=0, data=[47, 48]),
   midi.NoteOnEvent(tick=480, channel=0, data=[47, 0]),
   midi.NoteOnEvent(tick=0, channel=0, data=[35, 0]),
   midi.NoteOnEvent(tick=960, channel=0, data=[49, 41]),
   midi.NoteOnEvent(tick=0, channel=0, data=[37, 34]),
   midi.NoteOnEvent(tick=480, channel=0, data=[37, 0]),
   midi.NoteOnEvent(tick=0, channel=0, data=[49, 0]),
   midi.NoteOnEvent(tick=960, channel=0, data=[30, 40]),
   midi.NoteOnEvent(tick=0, channel=0, data=[42, 48]),
   midi.NoteOnEvent(tick=960, channel=0, data=[42, 0]),
   midi.NoteOnEvent(tick=0, channel=0, data=[30, 0]),
   midi.NoteOnEvent(tick=480, channel=0, data=[42, 40]),
   midi.NoteOnEvent(tick=0, channel=0, data=[54, 48]),
   midi.NoteOnEvent(tick=960, channel=0, data=[54, 0]),
   midi.NoteOnEvent(tick=0, channel=0, data=[42, 0]),
   midi.NoteOnEvent(tick=480, channel=0, data=[62, 55]),
   midi.NoteOnEvent(tick=0, channel=0, data=[57, 46]),
   midi.NoteOnEvent(tick=0, channel=0, data=[54, 46]),
   midi.NoteOnEvent(tick=960, channel=0, data=[62, 0]),
   midi.NoteOnEvent(tick=0, channel=0, data=[61, 48]),
   midi.NoteOnEvent(tick=480, channel=0, data=[61, 0]),
   midi.NoteOnEvent(tick=0, channel=0, data=[60, 54]),
   midi.NoteOnEvent(tick=720, channel=0, data=[54, 0]),
   midi.NoteOnEvent(tick=0, channel=0, data=[57, 0]),
   midi.NoteOnEvent(tick=240, channel=0, data=[60, 0]),
   midi.NoteOnEvent(tick=0, channel=0, data=[57, 39]),
   midi.NoteOnEvent(tick=0, channel=0, data=[54, 33]),
   midi.NoteOnEvent(tick=480, channel=0, data=[54, 0]),
   midi.NoteOnEvent(tick=0, channel=0, data=[57, 0]),
   midi.NoteOnEvent(tick=0, channel=0, data=[53, 40]),
   midi.NoteOnEvent(tick=0, channel=0, data=[56, 48]),
   midi.NoteOnEvent(tick=480, channel=0, data=[56, 0]),
   midi.NoteOnEvent(tick=0, channel=0, data=[53, 0]),
   midi.NoteOnEvent(tick=480, channel=0, data=[54, 38]),
   midi.NoteOnEvent(tick=0, channel=0, data=[42, 32]),
   midi.NoteOnEvent(tick=480, channel=0, data=[42, 0]),
   midi.NoteOnEvent(tick=0, channel=0, data=[47, 40]),
   midi.NoteOnEvent(tick=480, channel=0, data=[47, 0]),
   midi.NoteOnEvent(tick=0, channel=0, data=[54, 0]),
   midi.NoteOnEvent(tick=480, channel=0, data=[54, 38]),
   midi.NoteOnEvent(tick=0, channel=0, data=[42, 32]),
   midi.NoteOnEvent(tick=480, channel=0, data=[42, 0]),
   midi.NoteOnEvent(tick=0, channel=0, data=[54, 0]),
   midi.NoteOnEvent(tick=0, channel=0, data=[47, 48]),
   midi.NoteOnEvent(tick=1440, channel=0, data=[47, 0]),
   midi.NoteOnEvent(tick=0, channel=0, data=[49, 40]),
   midi.NoteOnEvent(tick=960, channel=0, data=[49, 0]),
   midi.NoteOnEvent(tick=0, channel=0, data=[54, 38]),
   midi.NoteOnEvent(tick=0, channel=0, data=[42, 32]),
   midi.NoteOnEvent(tick=480, channel=0, data=[42, 0]),
   midi.NoteOnEvent(tick=0, channel=0, data=[47, 40]),
   midi.NoteOnEvent(tick=480, channel=0, data=[47, 0]),
   midi.NoteOnEvent(tick=0, channel=0, data=[54, 0]),
   midi.NoteOnEvent(tick=480, channel=0, data=[54, 38]),
   midi.NoteOnEvent(tick=0, channel=0, data=[42, 32]),
   midi.NoteOnEvent(tick=480, channel=0, data=[42, 0]),
   midi.NoteOnEvent(tick=0, channel=0, data=[47, 40]),
   midi.NoteOnEvent(tick=480, channel=0, data=[47, 0]),
   midi.NoteOnEvent(tick=0, channel=0, data=[54, 0]),
   midi.NoteOnEvent(tick=480, channel=0, data=[54, 38]),
   midi.NoteOnEvent(tick=0, channel=0, data=[42, 32]),
   midi.NoteOnEvent(tick=480, channel=0, data=[42, 0]),
   midi.NoteOnEvent(tick=0, channel=0, data=[54, 0]),
   midi.NoteOnEvent(tick=0, channel=0, data=[47, 48]),
   midi.NoteOnEvent(tick=1440, channel=0, data=[47, 0]),
   midi.NoteOnEvent(tick=0, channel=0, data=[49, 40]),
   midi.NoteOnEvent(tick=960, channel=0, data=[49, 0]),
   midi.NoteOnEvent(tick=0, channel=0, data=[54, 38]),
   midi.NoteOnEvent(tick=0, channel=0, data=[42, 32]),
   midi.NoteOnEvent(tick=480, channel=0, data=[42, 0]),
   midi.NoteOnEvent(tick=0, channel=0, data=[47, 40]),
   midi.NoteOnEvent(tick=480, channel=0, data=[47, 0]),
   midi.NoteOnEvent(tick=0, channel=0, data=[54, 0]),
   midi.NoteOnEvent(tick=480, channel=0, data=[61, 38]),
   midi.NoteOnEvent(tick=480, channel=0, data=[61, 0]),
   midi.NoteOnEvent(tick=0, channel=0, data=[59, 42]),
   midi.NoteOnEvent(tick=480, channel=0, data=[59, 0]),
   midi.NoteOnEvent(tick=0, channel=0, data=[57, 46]),
   midi.NoteOnEvent(tick=480, channel=0, data=[57, 0]),
   midi.NoteOnEvent(tick=0, channel=0, data=[56, 50]),
   midi.NoteOnEvent(tick=480, channel=0, data=[56, 0]),
   midi.NoteOnEvent(tick=0, channel=0, data=[54, 54]),
   midi.NoteOnEvent(tick=480, channel=0, data=[54, 0]),
   midi.NoteOnEvent(tick=0, channel=0, data=[52, 63]),
   midi.NoteOnEvent(tick=480, channel=0, data=[52, 0]),
   midi.NoteOnEvent(tick=0, channel=0, data=[50, 72]),
   midi.NoteOnEvent(tick=480, channel=0, data=[50, 0]),
   midi.NoteOnEvent(tick=0, channel=0, data=[49, 84]),
   midi.NoteOnEvent(tick=480, channel=0, data=[49, 0]),
   midi.NoteOnEvent(tick=0, channel=0, data=[45, 82]),
   midi.NoteOnEvent(tick=480, channel=0, data=[45, 0]),
   midi.NoteOnEvent(tick=0, channel=0, data=[43, 82]),
   midi.NoteOnEvent(tick=480, channel=0, data=[43, 0]),
   midi.NoteOnEvent(tick=0, channel=0, data=[42, 86]),
   midi.NoteOnEvent(tick=2400, channel=0, data=[42, 0]),
   midi.NoteOnEvent(tick=0, channel=0, data=[46, 72]),
   midi.NoteOnEvent(tick=480, channel=0, data=[46, 0]),
   midi.NoteOnEvent(tick=0, channel=0, data=[47, 70]),
   midi.NoteOnEvent(tick=960, channel=0, data=[47, 0]),
   midi.NoteOnEvent(tick=0, channel=0, data=[44, 57]),
   midi.NoteOnEvent(tick=480, channel=0, data=[44, 0]),
   midi.NoteOnEvent(tick=0, channel=0, data=[45, 55]),
   midi.NoteOnEvent(tick=960, channel=0, data=[45, 0]),
   midi.NoteOnEvent(tick=0, channel=0, data=[39, 44]),
   midi.NoteOnEvent(tick=480, channel=0, data=[39, 0]),
   midi.NoteOnEvent(tick=0, channel=0, data=[40, 47]),
   midi.NoteOnEvent(tick=480, channel=0, data=[40, 0]),
   midi.NoteOnEvent(tick=0, channel=0, data=[52, 69]),
   midi.NoteOnEvent(tick=0, channel=0, data=[44, 58]),
   midi.NoteOnEvent(tick=480, channel=0, data=[44, 0]),
   midi.NoteOnEvent(tick=0, channel=0, data=[52, 0]),
   midi.NoteOnEvent(tick=0, channel=0, data=[45, 53]),
   midi.NoteOnEvent(tick=480, channel=0, data=[45, 0]),
   midi.NoteOnEvent(tick=0, channel=0, data=[40, 54]),
   midi.NoteOnEvent(tick=480, channel=0, data=[40, 0]),
   midi.NoteOnEvent(tick=0, channel=0, data=[52, 69]),
   midi.NoteOnEvent(tick=0, channel=0, data=[44, 58]),
   midi.NoteOnEvent(tick=480, channel=0, data=[44, 0]),
   midi.NoteOnEvent(tick=0, channel=0, data=[52, 0]),
   midi.NoteOnEvent(tick=0, channel=0, data=[45, 53]),
   midi.NoteOnEvent(tick=480, channel=0, data=[45, 0]),
   midi.NoteOnEvent(tick=0, channel=0, data=[40, 54]),
   midi.NoteOnEvent(tick=480, channel=0, data=[40, 0]),
   midi.NoteOnEvent(tick=0, channel=0, data=[52, 69]),
   midi.NoteOnEvent(tick=0, channel=0, data=[44, 58]),
   midi.NoteOnEvent(tick=480, channel=0, data=[44, 0]),
   midi.NoteOnEvent(tick=0, channel=0, data=[52, 0]),
   midi.NoteOnEvent(tick=0, channel=0, data=[45, 53]),
   midi.NoteOnEvent(tick=480, channel=0, data=[45, 0]),
   midi.NoteOnEvent(tick=0, channel=0, data=[40, 54]),
   midi.NoteOnEvent(tick=480, channel=0, data=[40, 0]),
   midi.NoteOnEvent(tick=0, channel=0, data=[52, 69]),
   midi.NoteOnEvent(tick=0, channel=0, data=[44, 58]),
   midi.NoteOnEvent(tick=480, channel=0, data=[44, 0]),
   midi.NoteOnEvent(tick=0, channel=0, data=[52, 0]),
   midi.NoteOnEvent(tick=0, channel=0, data=[45, 53]),
   midi.NoteOnEvent(tick=480, channel=0, data=[45, 0]),
   midi.NoteOnEvent(tick=0, channel=0, data=[40, 54]),
   midi.NoteOnEvent(tick=480, channel=0, data=[40, 0]),
   midi.NoteOnEvent(tick=4800, channel=0, data=[40, 54]),
   midi.NoteOnEvent(tick=480, channel=0, data=[40, 0]),
   midi.NoteOnEvent(tick=0, channel=0, data=[37, 64]),
   midi.NoteOnEvent(tick=0, channel=0, data=[45, 64]),
   midi.NoteOnEvent(tick=960, channel=0, data=[37, 0]),
   midi.NoteOnEvent(tick=480, channel=0, data=[42, 58]),
   midi.NoteOnEvent(tick=480, channel=0, data=[45, 0]),
   midi.NoteOnEvent(tick=0, channel=0, data=[44, 62]),
   midi.NoteOnEvent(tick=480, channel=0, data=[44, 0]),
   midi.NoteOnEvent(tick=0, channel=0, data=[42, 0]),
   midi.NoteOnEvent(tick=0, channel=0, data=[45, 70]),
   midi.NoteOnEvent(tick=480, channel=0, data=[45, 0]),
   midi.NoteOnEvent(tick=0, channel=0, data=[47, 72]),
   midi.NoteOnEvent(tick=0, channel=0, data=[40, 72]),
   midi.NoteOnEvent(tick=960, channel=0, data=[40, 0]),
   midi.NoteOnEvent(tick=480, channel=0, data=[47, 0]),
   midi.NoteOnEvent(tick=0, channel=0, data=[45, 54]),
   midi.NoteOnEvent(tick=0, channel=0, data=[49, 54]),
   midi.NoteOnEvent(tick=960, channel=0, data=[45, 0]),
   midi.NoteOnEvent(tick=480, channel=0, data=[49, 0]),
   midi.NoteOnEvent(tick=0, channel=0, data=[52, 73]),
   midi.NoteOnEvent(tick=0, channel=0, data=[38, 73]),
   midi.NoteOnEvent(tick=480, channel=0, data=[52, 0]),
   midi.NoteOnEvent(tick=0, channel=0, data=[50, 62]),
   midi.NoteOnEvent(tick=480, channel=0, data=[50, 0]),
   midi.NoteOnEvent(tick=0, channel=0, data=[38, 0]),
   midi.NoteOnEvent(tick=0, channel=0, data=[49, 54]),
   midi.NoteOnEvent(tick=480, channel=0, data=[49, 0]),
   midi.NoteOnEvent(tick=0, channel=0, data=[47, 66]),
   midi.NoteOnEvent(tick=0, channel=0, data=[40, 66]),
   midi.NoteOnEvent(tick=480, channel=0, data=[47, 0]),
   midi.NoteOnEvent(tick=0, channel=0, data=[49, 49]),
   midi.NoteOnEvent(tick=480, channel=0, data=[49, 0]),
   midi.NoteOnEvent(tick=0, channel=0, data=[40, 0]),
   midi.NoteOnEvent(tick=0, channel=0, data=[47, 41]),
   midi.NoteOnEvent(tick=480, channel=0, data=[47, 0]),
   midi.NoteOnEvent(tick=0, channel=0, data=[45, 50]),
   midi.NoteOnEvent(tick=2400, channel=0, data=[45, 0]),
   midi.NoteOnEvent(tick=0, channel=0, data=[49, 36]),
   midi.NoteOnEvent(tick=240, channel=0, data=[49, 0]),
   midi.NoteOnEvent(tick=0, channel=0, data=[45, 36]),
   midi.NoteOnEvent(tick=240, channel=0, data=[45, 0]),
   midi.NoteOnEvent(tick=0, channel=0, data=[42, 48]),
   midi.NoteOnEvent(tick=240, channel=0, data=[42, 0]),
   midi.NoteOnEvent(tick=0, channel=0, data=[45, 36]),
   midi.NoteOnEvent(tick=240, channel=0, data=[45, 0]),
   midi.NoteOnEvent(tick=0, channel=0, data=[47, 36]),
   midi.NoteOnEvent(tick=240, channel=0, data=[47, 0]),
   midi.NoteOnEvent(tick=0, channel=0, data=[49, 36]),
   midi.NoteOnEvent(tick=240, channel=0, data=[49, 0]),
   midi.NoteOnEvent(tick=0, channel=0, data=[47, 37]),
   midi.NoteOnEvent(tick=240, channel=0, data=[47, 0]),
   midi.NoteOnEvent(tick=0, channel=0, data=[45, 37]),
   midi.NoteOnEvent(tick=240, channel=0, data=[45, 0]),
   midi.NoteOnEvent(tick=0, channel=0, data=[51, 47]),
   midi.NoteOnEvent(tick=240, channel=0, data=[51, 0]),
   midi.NoteOnEvent(tick=0, channel=0, data=[42, 37]),
   midi.NoteOnEvent(tick=240, channel=0, data=[42, 0]),
   midi.NoteOnEvent(tick=0, channel=0, data=[44, 51]),
   midi.NoteOnEvent(tick=240, channel=0, data=[44, 0]),
   midi.NoteOnEvent(tick=0, channel=0, data=[45, 45]),
   midi.NoteOnEvent(tick=240, channel=0, data=[45, 0]),
   midi.NoteOnEvent(tick=0, channel=0, data=[44, 56]),
   midi.NoteOnEvent(tick=240, channel=0, data=[44, 0]),
   midi.NoteOnEvent(tick=0, channel=0, data=[42, 50]),
   midi.NoteOnEvent(tick=240, channel=0, data=[42, 0]),
   midi.NoteOnEvent(tick=0, channel=0, data=[40, 65]),
   midi.NoteOnEvent(tick=240, channel=0, data=[40, 0]),
   midi.NoteOnEvent(tick=0, channel=0, data=[50, 38]),
   midi.NoteOnEvent(tick=240, channel=0, data=[50, 0]),
   midi.NoteOnEvent(tick=0, channel=0, data=[52, 52]),
   midi.NoteOnEvent(tick=240, channel=0, data=[52, 0]),
   midi.NoteOnEvent(tick=0, channel=0, data=[54, 39]),
   midi.NoteOnEvent(tick=240, channel=0, data=[54, 0]),
   midi.NoteOnEvent(tick=0, channel=0, data=[52, 51]),
   midi.NoteOnEvent(tick=240, channel=0, data=[52, 0]),
   midi.NoteOnEvent(tick=0, channel=0, data=[50, 47]),
   midi.NoteOnEvent(tick=240, channel=0, data=[50, 0]),
   midi.NoteOnEvent(tick=0, channel=0, data=[55, 67]),
   midi.NoteOnEvent(tick=0, channel=0, data=[45, 67]),
   midi.NoteOnEvent(tick=240, channel=0, data=[45, 0]),
   midi.NoteOnEvent(tick=0, channel=0, data=[55, 0]),
   midi.NoteOnEvent(tick=0, channel=0, data=[52, 49]),
   midi.NoteOnEvent(tick=240, channel=0, data=[52, 0]),
   midi.NoteOnEvent(tick=0, channel=0, data=[49, 62]),
   midi.NoteOnEvent(tick=240, channel=0, data=[49, 0]),
   midi.NoteOnEvent(tick=0, channel=0, data=[47, 56]),
   midi.NoteOnEvent(tick=240, channel=0, data=[47, 0]),
   midi.NoteOnEvent(tick=0, channel=0, data=[43, 65]),
   midi.NoteOnEvent(tick=240, channel=0, data=[43, 0]),
   midi.NoteOnEvent(tick=0, channel=0, data=[40, 62]),
   midi.NoteOnEvent(tick=240, channel=0, data=[40, 0]),
   midi.NoteOnEvent(tick=0, channel=0, data=[38, 72]),
   midi.NoteOnEvent(tick=240, channel=0, data=[38, 0]),
   midi.NoteOnEvent(tick=0, channel=0, data=[42, 51]),
   midi.NoteOnEvent(tick=240, channel=0, data=[42, 0]),
   midi.NoteOnEvent(tick=0, channel=0, data=[44, 58]),
   midi.NoteOnEvent(tick=240, channel=0, data=[44, 0]),
   midi.NoteOnEvent(tick=0, channel=0, data=[45, 48]),
   midi.NoteOnEvent(tick=240, channel=0, data=[45, 0]),
   midi.NoteOnEvent(tick=0, channel=0, data=[47, 55]),
   midi.NoteOnEvent(tick=240, channel=0, data=[47, 0]),
   midi.NoteOnEvent(tick=0, channel=0, data=[49, 47]),
   midi.NoteOnEvent(tick=240, channel=0, data=[49, 0]),
   midi.NoteOnEvent(tick=0, channel=0, data=[50, 64]),
   midi.NoteOnEvent(tick=0, channel=0, data=[40, 64]),
   midi.NoteOnEvent(tick=240, channel=0, data=[40, 0]),
   midi.NoteOnEvent(tick=0, channel=0, data=[50, 0]),
   midi.NoteOnEvent(tick=0, channel=0, data=[49, 49]),
   midi.NoteOnEvent(tick=240, channel=0, data=[49, 0]),
   midi.NoteOnEvent(tick=0, channel=0, data=[50, 55]),
   midi.NoteOnEvent(tick=240, channel=0, data=[50, 0]),
   midi.NoteOnEvent(tick=0, channel=0, data=[47, 48]),
   midi.NoteOnEvent(tick=240, channel=0, data=[47, 0]),
   midi.NoteOnEvent(tick=0, channel=0, data=[52, 54]),
   midi.NoteOnEvent(tick=240, channel=0, data=[52, 0]),
   midi.NoteOnEvent(tick=0, channel=0, data=[50, 41]),
   midi.NoteOnEvent(tick=240, channel=0, data=[50, 0]),
   midi.NoteOnEvent(tick=0, channel=0, data=[49, 60]),
   midi.NoteOnEvent(tick=0, channel=0, data=[45, 60]),
   midi.NoteOnEvent(tick=240, channel=0, data=[45, 0]),
   midi.NoteOnEvent(tick=0, channel=0, data=[49, 0]),
   midi.NoteOnEvent(tick=0, channel=0, data=[52, 54]),
   midi.NoteOnEvent(tick=240, channel=0, data=[52, 0]),
   midi.NoteOnEvent(tick=0, channel=0, data=[50, 54]),
   midi.NoteOnEvent(tick=240, channel=0, data=[50, 0]),
   midi.NoteOnEvent(tick=0, channel=0, data=[49, 54]),
   midi.NoteOnEvent(tick=240, channel=0, data=[49, 0]),
   midi.NoteOnEvent(tick=0, channel=0, data=[47, 54]),
   midi.NoteOnEvent(tick=240, channel=0, data=[47, 0]),
   midi.NoteOnEvent(tick=0, channel=0, data=[45, 51]),
   midi.NoteOnEvent(tick=240, channel=0, data=[45, 0]),
   midi.NoteOnEvent(tick=0, channel=0, data=[44, 55]),
   midi.NoteOnEvent(tick=240, channel=0, data=[44, 0]),
   midi.NoteOnEvent(tick=0, channel=0, data=[45, 55]),
   midi.NoteOnEvent(tick=240, channel=0, data=[45, 0]),
   midi.NoteOnEvent(tick=0, channel=0, data=[43, 57]),
   midi.NoteOnEvent(tick=240, channel=0, data=[43, 0]),
   midi.NoteOnEvent(tick=0, channel=0, data=[45, 60]),
   midi.NoteOnEvent(tick=240, channel=0, data=[45, 0]),
   midi.NoteOnEvent(tick=0, channel=0, data=[42, 61]),
   midi.NoteOnEvent(tick=240, channel=0, data=[42, 0]),
   midi.NoteOnEvent(tick=0, channel=0, data=[46, 65]),
   midi.NoteOnEvent(tick=240, channel=0, data=[46, 0]),
   midi.NoteOnEvent(tick=0, channel=0, data=[38, 75]),
   midi.NoteOnEvent(tick=240, channel=0, data=[38, 0]),
   midi.NoteOnEvent(tick=0, channel=0, data=[42, 53]),
   midi.NoteOnEvent(tick=240, channel=0, data=[42, 0]),
   midi.NoteOnEvent(tick=0, channel=0, data=[44, 66]),
   midi.NoteOnEvent(tick=240, channel=0, data=[44, 0]),
   midi.NoteOnEvent(tick=0, channel=0, data=[45, 50]),
   midi.NoteOnEvent(tick=240, channel=0, data=[45, 0]),
   midi.NoteOnEvent(tick=0, channel=0, data=[47, 63]),
   midi.NoteOnEvent(tick=240, channel=0, data=[47, 0]),
   midi.NoteOnEvent(tick=0, channel=0, data=[49, 49]),
   midi.NoteOnEvent(tick=240, channel=0, data=[49, 0]),
   midi.NoteOnEvent(tick=0, channel=0, data=[50, 67]),
   midi.NoteOnEvent(tick=240, channel=0, data=[50, 0]),
   midi.NoteOnEvent(tick=0, channel=0, data=[40, 51]),
   midi.NoteOnEvent(tick=240, channel=0, data=[40, 0]),
   midi.NoteOnEvent(tick=0, channel=0, data=[52, 57]),
   midi.NoteOnEvent(tick=240, channel=0, data=[52, 0]),
   midi.NoteOnEvent(tick=0, channel=0, data=[40, 50]),
   midi.NoteOnEvent(tick=240, channel=0, data=[40, 0]),
   midi.NoteOnEvent(tick=0, channel=0, data=[50, 56]),
   midi.NoteOnEvent(tick=240, channel=0, data=[50, 0]),
   midi.NoteOnEvent(tick=0, channel=0, data=[40, 43]),
   midi.NoteOnEvent(tick=240, channel=0, data=[40, 0]),
   midi.NoteOnEvent(tick=0, channel=0, data=[45, 63]),
   midi.NoteOnEvent(tick=240, channel=0, data=[49, 48]),
   midi.NoteOnEvent(tick=240, channel=0, data=[49, 0]),
   midi.NoteOnEvent(tick=0, channel=0, data=[50, 50]),
   midi.NoteOnEvent(tick=240, channel=0, data=[50, 0]),
   midi.NoteOnEvent(tick=0, channel=0, data=[52, 46]),
   midi.NoteOnEvent(tick=240, channel=0, data=[52, 0]),
   midi.NoteOnEvent(tick=0, channel=0, data=[54, 47]),
   midi.NoteOnEvent(tick=240, channel=0, data=[54, 0]),
   midi.NoteOnEvent(tick=0, channel=0, data=[50, 45]),
   midi.NoteOnEvent(tick=240, channel=0, data=[50, 0]),
   midi.NoteOnEvent(tick=0, channel=0, data=[52, 45]),
   midi.NoteOnEvent(tick=240, channel=0, data=[52, 0]),
   midi.NoteOnEvent(tick=0, channel=0, data=[45, 0]),
   midi.NoteOnEvent(tick=0, channel=0, data=[54, 41]),
   midi.NoteOnEvent(tick=240, channel=0, data=[54, 0]),
   midi.NoteOnEvent(tick=0, channel=0, data=[56, 43]),
   midi.NoteOnEvent(tick=240, channel=0, data=[56, 0]),
   midi.NoteOnEvent(tick=0, channel=0, data=[52, 41]),
   midi.NoteOnEvent(tick=240, channel=0, data=[52, 0]),
   midi.NoteOnEvent(tick=0, channel=0, data=[54, 42]),
   midi.NoteOnEvent(tick=240, channel=0, data=[54, 0]),
   midi.NoteOnEvent(tick=0, channel=0, data=[56, 37]),
   midi.NoteOnEvent(tick=240, channel=0, data=[56, 0]),
   midi.NoteOnEvent(tick=0, channel=0, data=[57, 42]),
   midi.NoteOnEvent(tick=240, channel=0, data=[57, 0]),
   midi.NoteOnEvent(tick=240, channel=0, data=[66, 38]),
   midi.NoteOnEvent(tick=180, channel=0, data=[66, 0]),
   midi.NoteOnEvent(tick=300, channel=0, data=[64, 32]),
   midi.NoteOnEvent(tick=180, channel=0, data=[64, 0]),
   midi.NoteOnEvent(tick=300, channel=0, data=[63, 38]),
   midi.NoteOnEvent(tick=180, channel=0, data=[63, 0]),
   midi.NoteOnEvent(tick=780, channel=0, data=[62, 38]),
   midi.NoteOnEvent(tick=240, channel=0, data=[62, 0]),
   midi.NoteOnEvent(tick=240, channel=0, data=[57, 63]),
   midi.NoteOnEvent(tick=240, channel=0, data=[61, 48]),
   midi.NoteOnEvent(tick=240, channel=0, data=[61, 0]),
   midi.NoteOnEvent(tick=0, channel=0, data=[62, 50]),
   midi.NoteOnEvent(tick=240, channel=0, data=[62, 0]),
   midi.NoteOnEvent(tick=0, channel=0, data=[64, 46]),
   midi.NoteOnEvent(tick=240, channel=0, data=[64, 0]),
   midi.NoteOnEvent(tick=0, channel=0, data=[66, 47]),
   midi.NoteOnEvent(tick=240, channel=0, data=[66, 0]),
   midi.NoteOnEvent(tick=0, channel=0, data=[62, 45]),
   midi.NoteOnEvent(tick=240, channel=0, data=[62, 0]),
   midi.NoteOnEvent(tick=0, channel=0, data=[64, 45]),
   midi.NoteOnEvent(tick=240, channel=0, data=[64, 0]),
   midi.NoteOnEvent(tick=0, channel=0, data=[57, 0]),
   midi.NoteOnEvent(tick=0, channel=0, data=[66, 41]),
   midi.NoteOnEvent(tick=240, channel=0, data=[66, 0]),
   midi.NoteOnEvent(tick=0, channel=0, data=[68, 43]),
   midi.NoteOnEvent(tick=240, channel=0, data=[68, 0]),
   midi.NoteOnEvent(tick=0, channel=0, data=[64, 41]),
   midi.NoteOnEvent(tick=240, channel=0, data=[64, 0]),
   midi.NoteOnEvent(tick=0, channel=0, data=[66, 42]),
   midi.NoteOnEvent(tick=240, channel=0, data=[66, 0]),
   midi.NoteOnEvent(tick=0, channel=0, data=[68, 37]),
   midi.NoteOnEvent(tick=240, channel=0, data=[68, 0]),
   midi.NoteOnEvent(tick=0, channel=0, data=[69, 56]),
   midi.NoteOnEvent(tick=480, channel=0, data=[64, 54]),
   midi.NoteOnEvent(tick=0, channel=0, data=[68, 64]),
   midi.NoteOnEvent(tick=480, channel=0, data=[68, 0]),
   midi.NoteOnEvent(tick=0, channel=0, data=[64, 0]),
   midi.NoteOnEvent(tick=0, channel=0, data=[66, 61]),
   midi.NoteOnEvent(tick=0, channel=0, data=[62, 51]),
   midi.NoteOnEvent(tick=480, channel=0, data=[62, 0]),
   midi.NoteOnEvent(tick=0, channel=0, data=[66, 0]),
   midi.NoteOnEvent(tick=0, channel=0, data=[61, 48]),
   midi.NoteOnEvent(tick=0, channel=0, data=[64, 57]),
   midi.NoteOnEvent(tick=240, channel=0, data=[69, 0]),
   midi.NoteOnEvent(tick=240, channel=0, data=[64, 0]),
   midi.NoteOnEvent(tick=0, channel=0, data=[61, 0]),
   midi.NoteOnEvent(tick=0, channel=0, data=[60, 47]),
   midi.NoteOnEvent(tick=0, channel=0, data=[63, 56]),
   midi.NoteOnEvent(tick=480, channel=0, data=[63, 0]),
   midi.NoteOnEvent(tick=0, channel=0, data=[60, 0]),
   midi.NoteOnEvent(tick=0, channel=0, data=[59, 47]),
   midi.NoteOnEvent(tick=0, channel=0, data=[62, 56]),
   midi.NoteOnEvent(tick=480, channel=0, data=[62, 0]),
   midi.NoteOnEvent(tick=0, channel=0, data=[59, 0]),
   midi.NoteOnEvent(tick=0, channel=0, data=[57, 47]),
   midi.NoteOnEvent(tick=0, channel=0, data=[61, 56]),
   midi.NoteOnEvent(tick=480, channel=0, data=[61, 0]),
   midi.NoteOnEvent(tick=0, channel=0, data=[57, 0]),
   midi.NoteOnEvent(tick=0, channel=0, data=[56, 57]),
   midi.NoteOnEvent(tick=0, channel=0, data=[52, 48]),
   midi.NoteOnEvent(tick=480, channel=0, data=[52, 0]),
   midi.NoteOnEvent(tick=0, channel=0, data=[56, 0]),
   midi.NoteOnEvent(tick=0, channel=0, data=[50, 44]),
   midi.NoteOnEvent(tick=0, channel=0, data=[54, 53]),
   midi.NoteOnEvent(tick=480, channel=0, data=[54, 0]),
   midi.NoteOnEvent(tick=0, channel=0, data=[50, 0]),
   midi.NoteOnEvent(tick=0, channel=0, data=[52, 48]),
   midi.NoteOnEvent(tick=0, channel=0, data=[49, 40]),
   midi.NoteOnEvent(tick=480, channel=0, data=[49, 0]),
   midi.NoteOnEvent(tick=0, channel=0, data=[52, 0]),
   midi.NoteOnEvent(tick=0, channel=0, data=[48, 39]),
   midi.NoteOnEvent(tick=0, channel=0, data=[51, 46]),
   midi.NoteOnEvent(tick=480, channel=0, data=[51, 0]),
   midi.NoteOnEvent(tick=0, channel=0, data=[48, 0]),
   midi.NoteOnEvent(tick=0, channel=0, data=[47, 37]),
   midi.NoteOnEvent(tick=0, channel=0, data=[50, 44]),
   midi.NoteOnEvent(tick=480, channel=0, data=[50, 0]),
   midi.NoteOnEvent(tick=0, channel=0, data=[47, 0]),
   midi.NoteOnEvent(tick=0, channel=0, data=[45, 39]),
   midi.NoteOnEvent(tick=0, channel=0, data=[49, 43]),
   midi.NoteOnEvent(tick=1440, channel=0, data=[49, 0]),
   midi.NoteOnEvent(tick=0, channel=0, data=[45, 0]),
   midi.NoteOnEvent(tick=960, channel=0, data=[52, 50]),
   midi.NoteOnEvent(tick=240, channel=0, data=[52, 0]),
   midi.NoteOnEvent(tick=0, channel=0, data=[48, 42]),
   midi.NoteOnEvent(tick=240, channel=0, data=[48, 0]),
   midi.NoteOnEvent(tick=0, channel=0, data=[33, 48]),
   midi.NoteOnEvent(tick=960, channel=0, data=[33, 0]),
   midi.NoteOnEvent(tick=480, channel=0, data=[33, 40]),
   midi.NoteOnEvent(tick=0, channel=0, data=[45, 48]),
   midi.NoteOnEvent(tick=960, channel=0, data=[45, 0]),
   midi.NoteOnEvent(tick=0, channel=0, data=[33, 0]),
   midi.NoteOnEvent(tick=480, channel=0, data=[53, 60]),
   midi.NoteOnEvent(tick=0, channel=0, data=[48, 50]),
   midi.NoteOnEvent(tick=0, channel=0, data=[45, 50]),
   midi.NoteOnEvent(tick=960, channel=0, data=[53, 0]),
   midi.NoteOnEvent(tick=0, channel=0, data=[52, 48]),
   midi.NoteOnEvent(tick=480, channel=0, data=[52, 0]),
   midi.NoteOnEvent(tick=0, channel=0, data=[51, 54]),
   midi.NoteOnEvent(tick=720, channel=0, data=[45, 0]),
   midi.NoteOnEvent(tick=0, channel=0, data=[48, 0]),
   midi.NoteOnEvent(tick=240, channel=0, data=[51, 0]),
   midi.NoteOnEvent(tick=0, channel=0, data=[48, 39]),
   midi.NoteOnEvent(tick=0, channel=0, data=[45, 33]),
   midi.NoteOnEvent(tick=480, channel=0, data=[45, 0]),
   midi.NoteOnEvent(tick=0, channel=0, data=[48, 0]),
   midi.NoteOnEvent(tick=240, channel=0, data=[32, 35]),
   midi.NoteOnEvent(tick=240, channel=0, data=[32, 0]),
   midi.NoteOnEvent(tick=0, channel=0, data=[47, 42]),
   midi.NoteOnEvent(tick=240, channel=0, data=[47, 0]),
   midi.NoteOnEvent(tick=960, channel=0, data=[43, 36]),
   midi.NoteOnEvent(tick=240, channel=0, data=[43, 0]),
   midi.NoteOnEvent(tick=0, channel=0, data=[59, 39]),
   midi.NoteOnEvent(tick=240, channel=0, data=[59, 0]),
   midi.NoteOnEvent(tick=960, channel=0, data=[54, 36]),
   midi.NoteOnEvent(tick=240, channel=0, data=[54, 0]),
   midi.NoteOnEvent(tick=0, channel=0, data=[67, 39]),
   midi.NoteOnEvent(tick=240, channel=0, data=[67, 0]),
   midi.NoteOnEvent(tick=2160, channel=0, data=[35, 44]),
   midi.NoteOnEvent(tick=0, channel=0, data=[47, 48]),
   midi.NoteOnEvent(tick=960, channel=0, data=[47, 0]),
   midi.NoteOnEvent(tick=0, channel=0, data=[35, 0]),
   midi.NoteOnEvent(tick=480, channel=0, data=[47, 40]),
   midi.NoteOnEvent(tick=0, channel=0, data=[59, 48]),
   midi.NoteOnEvent(tick=960, channel=0, data=[59, 0]),
   midi.NoteOnEvent(tick=0, channel=0, data=[47, 0]),
   midi.NoteOnEvent(tick=480, channel=0, data=[67, 60]),
   midi.NoteOnEvent(tick=0, channel=0, data=[62, 50]),
   midi.NoteOnEvent(tick=0, channel=0, data=[59, 50]),
   midi.NoteOnEvent(tick=960, channel=0, data=[67, 0]),
   midi.NoteOnEvent(tick=0, channel=0, data=[66, 48]),
   midi.NoteOnEvent(tick=480, channel=0, data=[66, 0]),
   midi.NoteOnEvent(tick=0, channel=0, data=[65, 54]),
   midi.NoteOnEvent(tick=720, channel=0, data=[59, 0]),
   midi.NoteOnEvent(tick=0, channel=0, data=[62, 0]),
   midi.NoteOnEvent(tick=240, channel=0, data=[65, 0]),
   midi.NoteOnEvent(tick=0, channel=0, data=[62, 39]),
   midi.NoteOnEvent(tick=0, channel=0, data=[59, 33]),
   midi.NoteOnEvent(tick=480, channel=0, data=[59, 0]),
   midi.NoteOnEvent(tick=0, channel=0, data=[62, 0]),
   midi.NoteOnEvent(tick=240, channel=0, data=[46, 35]),
   midi.NoteOnEvent(tick=240, channel=0, data=[46, 0]),
   midi.NoteOnEvent(tick=0, channel=0, data=[61, 42]),
   midi.NoteOnEvent(tick=240, channel=0, data=[61, 0]),
   midi.NoteOnEvent(tick=960, channel=0, data=[57, 36]),
   midi.NoteOnEvent(tick=240, channel=0, data=[57, 0]),
   midi.NoteOnEvent(tick=0, channel=0, data=[73, 39]),
   midi.NoteOnEvent(tick=240, channel=0, data=[73, 0]),
   midi.NoteOnEvent(tick=960, channel=0, data=[68, 36]),
   midi.NoteOnEvent(tick=240, channel=0, data=[68, 0]),
   midi.NoteOnEvent(tick=0, channel=0, data=[81, 39]),
   midi.NoteOnEvent(tick=240, channel=0, data=[81, 0]),
   midi.NoteOnEvent(tick=2400, channel=0, data=[41, 35]),
   midi.NoteOnEvent(tick=240, channel=0, data=[41, 0]),
   midi.NoteOnEvent(tick=0, channel=0, data=[56, 42]),
   midi.NoteOnEvent(tick=240, channel=0, data=[56, 0]),
   midi.NoteOnEvent(tick=960, channel=0, data=[52, 40]),
   midi.NoteOnEvent(tick=240, channel=0, data=[52, 0]),
   midi.NoteOnEvent(tick=0, channel=0, data=[66, 44]),
   midi.NoteOnEvent(tick=240, channel=0, data=[66, 0]),
   midi.NoteOnEvent(tick=960, channel=0, data=[39, 40]),
   midi.NoteOnEvent(tick=240, channel=0, data=[39, 0]),
   midi.NoteOnEvent(tick=0, channel=0, data=[54, 49]),
   midi.NoteOnEvent(tick=240, channel=0, data=[54, 0]),
   midi.NoteOnEvent(tick=960, channel=0, data=[50, 43]),
   midi.NoteOnEvent(tick=240, channel=0, data=[50, 0]),
   midi.NoteOnEvent(tick=0, channel=0, data=[64, 47]),
   midi.NoteOnEvent(tick=240, channel=0, data=[64, 0]),
   midi.NoteOnEvent(tick=960, channel=0, data=[37, 43]),
   midi.NoteOnEvent(tick=240, channel=0, data=[37, 0]),
   midi.NoteOnEvent(tick=0, channel=0, data=[52, 52]),
   midi.NoteOnEvent(tick=240, channel=0, data=[52, 0]),
   midi.NoteOnEvent(tick=960, channel=0, data=[49, 46]),
   midi.NoteOnEvent(tick=240, channel=0, data=[49, 0]),
   midi.NoteOnEvent(tick=0, channel=0, data=[63, 51]),
   midi.NoteOnEvent(tick=240, channel=0, data=[63, 0]),
   midi.NoteOnEvent(tick=960, channel=0, data=[36, 46]),
   midi.NoteOnEvent(tick=240, channel=0, data=[36, 0]),
   midi.NoteOnEvent(tick=0, channel=0, data=[51, 56]),
   midi.NoteOnEvent(tick=240, channel=0, data=[51, 0]),
   midi.NoteOnEvent(tick=960, channel=0, data=[47, 49]),
   midi.NoteOnEvent(tick=240, channel=0, data=[47, 0]),
   midi.NoteOnEvent(tick=0, channel=0, data=[61, 54]),
   midi.NoteOnEvent(tick=240, channel=0, data=[61, 0]),
   midi.NoteOnEvent(tick=960, channel=0, data=[57, 50]),
   midi.NoteOnEvent(tick=240, channel=0, data=[57, 0]),
   midi.NoteOnEvent(tick=0, channel=0, data=[61, 60]),
   midi.NoteOnEvent(tick=240, channel=0, data=[61, 0]),
   midi.NoteOnEvent(tick=240, channel=0, data=[56, 59]),
   midi.NoteOnEvent(tick=480, channel=0, data=[56, 0]),
   midi.NoteOnEvent(tick=240, channel=0, data=[54, 52]),
   midi.NoteOnEvent(tick=240, channel=0, data=[54, 0]),
   midi.NoteOnEvent(tick=0, channel=0, data=[61, 57]),
   midi.NoteOnEvent(tick=240, channel=0, data=[61, 0]),
   midi.NoteOnEvent(tick=240, channel=0, data=[53, 61]),
   midi.NoteOnEvent(tick=480, channel=0, data=[53, 0]),
   midi.NoteOnEvent(tick=240, channel=0, data=[57, 53]),
   midi.NoteOnEvent(tick=240, channel=0, data=[57, 0]),
   midi.NoteOnEvent(tick=0, channel=0, data=[61, 63]),
   midi.NoteOnEvent(tick=240, channel=0, data=[61, 0]),
   midi.NoteOnEvent(tick=240, channel=0, data=[56, 63]),
   midi.NoteOnEvent(tick=480, channel=0, data=[56, 0]),
   midi.NoteOnEvent(tick=240, channel=0, data=[54, 56]),
   midi.NoteOnEvent(tick=240, channel=0, data=[54, 0]),
   midi.NoteOnEvent(tick=0, channel=0, data=[61, 61]),
   midi.NoteOnEvent(tick=240, channel=0, data=[61, 0]),
   midi.NoteOnEvent(tick=240, channel=0, data=[53, 64]),
   midi.NoteOnEvent(tick=480, channel=0, data=[53, 0]),
   midi.NoteOnEvent(tick=240, channel=0, data=[50, 56]),
   midi.NoteOnEvent(tick=240, channel=0, data=[50, 0]),
   midi.NoteOnEvent(tick=0, channel=0, data=[54, 67]),
   midi.NoteOnEvent(tick=240, channel=0, data=[54, 0]),
   midi.NoteOnEvent(tick=240, channel=0, data=[49, 65]),
   midi.NoteOnEvent(tick=0, channel=0, data=[55, 65]),
   midi.NoteOnEvent(tick=480, channel=0, data=[55, 0]),
   midi.NoteOnEvent(tick=0, channel=0, data=[49, 0]),
   midi.NoteOnEvent(tick=240, channel=0, data=[50, 57]),
   midi.NoteOnEvent(tick=240, channel=0, data=[50, 0]),
   midi.NoteOnEvent(tick=0, channel=0, data=[54, 62]),
   midi.NoteOnEvent(tick=240, channel=0, data=[54, 0]),
   midi.NoteOnEvent(tick=240, channel=0, data=[49, 65]),
   midi.NoteOnEvent(tick=0, channel=0, data=[55, 65]),
   midi.NoteOnEvent(tick=480, channel=0, data=[55, 0]),
   midi.NoteOnEvent(tick=0, channel=0, data=[49, 0]),
   midi.NoteOnEvent(tick=0, channel=0, data=[54, 56]),
   midi.NoteOnEvent(tick=0, channel=0, data=[50, 56]),
   midi.NoteOnEvent(tick=240, channel=0, data=[50, 0]),
   midi.NoteOnEvent(tick=0, channel=0, data=[54, 0]),
   midi.NoteOnEvent(tick=240, channel=0, data=[49, 66]),
   midi.NoteOnEvent(tick=0, channel=0, data=[55, 66]),
   midi.NoteOnEvent(tick=480, channel=0, data=[55, 0]),
   midi.NoteOnEvent(tick=0, channel=0, data=[49, 0]),
   midi.NoteOnEvent(tick=0, channel=0, data=[50, 58]),
   midi.NoteOnEvent(tick=0, channel=0, data=[54, 58]),
   midi.NoteOnEvent(tick=240, channel=0, data=[54, 0]),
   midi.NoteOnEvent(tick=0, channel=0, data=[50, 0]),
   midi.NoteOnEvent(tick=240, channel=0, data=[49, 69]),
   midi.NoteOnEvent(tick=0, channel=0, data=[55, 69]),
   midi.NoteOnEvent(tick=480, channel=0, data=[55, 0]),
   midi.NoteOnEvent(tick=0, channel=0, data=[49, 0]),
   midi.NoteOnEvent(tick=0, channel=0, data=[50, 61]),
   midi.NoteOnEvent(tick=0, channel=0, data=[54, 61]),
   midi.NoteOnEvent(tick=240, channel=0, data=[54, 0]),
   midi.NoteOnEvent(tick=0, channel=0, data=[50, 0]),
   midi.NoteOnEvent(tick=240, channel=0, data=[49, 72]),
   midi.NoteOnEvent(tick=0, channel=0, data=[55, 72]),
   midi.NoteOnEvent(tick=480, channel=0, data=[55, 0]),
   midi.NoteOnEvent(tick=0, channel=0, data=[49, 0]),
   midi.NoteOnEvent(tick=0, channel=0, data=[50, 74]),
   midi.NoteOnEvent(tick=0, channel=0, data=[54, 74]),
   midi.NoteOnEvent(tick=1440, channel=0, data=[50, 0]),
   midi.NoteOnEvent(tick=0, channel=0, data=[49, 74]),
   midi.NoteOnEvent(tick=0, channel=0, data=[57, 74]),
   midi.NoteOnEvent(tick=480, channel=0, data=[57, 0]),
   midi.NoteOnEvent(tick=0, channel=0, data=[49, 0]),
   midi.NoteOnEvent(tick=0, channel=0, data=[54, 0]),
   midi.NoteOnEvent(tick=960, channel=0, data=[50, 74]),
   midi.NoteOnEvent(tick=0, channel=0, data=[54, 74]),
   midi.NoteOnEvent(tick=1440, channel=0, data=[50, 0]),
   midi.NoteOnEvent(tick=0, channel=0, data=[49, 74]),
   midi.NoteOnEvent(tick=0, channel=0, data=[57, 74]),
   midi.NoteOnEvent(tick=480, channel=0, data=[57, 0]),
   midi.NoteOnEvent(tick=0, channel=0, data=[49, 0]),
   midi.NoteOnEvent(tick=0, channel=0, data=[54, 0]),
   midi.NoteOnEvent(tick=960, channel=0, data=[62, 74]),
   midi.NoteOnEvent(tick=2880, channel=0, data=[62, 0]),
   midi.NoteOnEvent(tick=0, channel=0, data=[55, 40]),
   midi.NoteOnEvent(tick=1440, channel=0, data=[55, 0]),
   midi.NoteOnEvent(tick=0, channel=0, data=[52, 38]),
   midi.NoteOnEvent(tick=1440, channel=0, data=[52, 0]),
   midi.NoteOnEvent(tick=0, channel=0, data=[45, 37]),
   midi.NoteOnEvent(tick=1440, channel=0, data=[45, 0]),
   midi.NoteOnEvent(tick=0, channel=0, data=[42, 35]),
   midi.NoteOnEvent(tick=1440, channel=0, data=[42, 0]),
   midi.NoteOnEvent(tick=0, channel=0, data=[35, 34]),
   midi.NoteOnEvent(tick=1440, channel=0, data=[35, 0]),
   midi.NoteOnEvent(tick=0, channel=0, data=[37, 34]),
   midi.NoteOnEvent(tick=1440, channel=0, data=[37, 0]),
   midi.NoteOnEvent(tick=0, channel=0, data=[39, 34]),
   midi.NoteOnEvent(tick=1440, channel=0, data=[39, 0]),
   midi.NoteOnEvent(tick=0, channel=0, data=[41, 34]),
   midi.NoteOnEvent(tick=1440, channel=0, data=[41, 0]),
   midi.NoteOnEvent(tick=0, channel=0, data=[42, 34]),
   midi.NoteOnEvent(tick=1440, channel=0, data=[42, 0]),
   midi.NoteOnEvent(tick=0, channel=0, data=[36, 34]),
   midi.NoteOnEvent(tick=1440, channel=0, data=[36, 0]),
   midi.NoteOnEvent(tick=0, channel=0, data=[37, 63]),
   midi.NoteOnEvent(tick=1440, channel=0, data=[37, 0]),
   midi.NoteOnEvent(tick=0, channel=0, data=[41, 60]),
   midi.NoteOnEvent(tick=480, channel=0, data=[41, 0]),
   midi.NoteOnEvent(tick=0, channel=0, data=[44, 56]),
   midi.NoteOnEvent(tick=480, channel=0, data=[44, 0]),
   midi.NoteOnEvent(tick=0, channel=0, data=[47, 51]),
   midi.NoteOnEvent(tick=410, channel=0, data=[47, 0]),
   midi.NoteOnEvent(tick=10, channel=0, data=[47, 56]),
   midi.NoteOnEvent(tick=60, channel=0, data=[47, 0]),
   midi.NoteOnEvent(tick=0, channel=0, data=[37, 69]),
   midi.NoteOnEvent(tick=0, channel=0, data=[45, 69]),
   midi.NoteOnEvent(tick=480, channel=0, data=[45, 0]),
   midi.NoteOnEvent(tick=0, channel=0, data=[44, 64]),
   midi.NoteOnEvent(tick=480, channel=0, data=[44, 0]),
   midi.NoteOnEvent(tick=0, channel=0, data=[42, 54]),
   midi.NoteOnEvent(tick=480, channel=0, data=[42, 0]),
   midi.NoteOnEvent(tick=0, channel=0, data=[37, 0]),
   midi.NoteOnEvent(tick=0, channel=0, data=[45, 64]),
   midi.NoteOnEvent(tick=480, channel=0, data=[45, 0]),
   midi.NoteOnEvent(tick=0, channel=0, data=[44, 59]),
   midi.NoteOnEvent(tick=480, channel=0, data=[44, 0]),
   midi.NoteOnEvent(tick=0, channel=0, data=[42, 59]),
   midi.NoteOnEvent(tick=480, channel=0, data=[42, 0]),
   midi.NoteOnEvent(tick=0, channel=0, data=[37, 59]),
   midi.NoteOnEvent(tick=0, channel=0, data=[49, 63]),
   midi.NoteOnEvent(tick=960, channel=0, data=[37, 0]),
   midi.NoteOnEvent(tick=480, channel=0, data=[49, 0]),
   midi.NoteOnEvent(tick=0, channel=0, data=[50, 60]),
   midi.NoteOnEvent(tick=480, channel=0, data=[50, 0]),
   midi.NoteOnEvent(tick=0, channel=0, data=[49, 56]),
   midi.NoteOnEvent(tick=480, channel=0, data=[49, 0]),
   midi.NoteOnEvent(tick=0, channel=0, data=[47, 51]),
   midi.NoteOnEvent(tick=410, channel=0, data=[47, 0]),
   midi.NoteOnEvent(tick=10, channel=0, data=[47, 56]),
   midi.NoteOnEvent(tick=60, channel=0, data=[47, 0]),
   midi.NoteOnEvent(tick=0, channel=0, data=[45, 69]),
   midi.NoteOnEvent(tick=480, channel=0, data=[45, 0]),
   midi.NoteOnEvent(tick=0, channel=0, data=[44, 64]),
   midi.NoteOnEvent(tick=480, channel=0, data=[44, 0]),
   midi.NoteOnEvent(tick=0, channel=0, data=[42, 54]),
   midi.NoteOnEvent(tick=480, channel=0, data=[42, 0]),
   midi.NoteOnEvent(tick=0, channel=0, data=[45, 64]),
   midi.NoteOnEvent(tick=480, channel=0, data=[45, 0]),
   midi.NoteOnEvent(tick=0, channel=0, data=[44, 59]),
   midi.NoteOnEvent(tick=480, channel=0, data=[44, 0]),
   midi.NoteOnEvent(tick=0, channel=0, data=[42, 59]),
   midi.NoteOnEvent(tick=480, channel=0, data=[42, 0]),
   midi.NoteOnEvent(tick=0, channel=0, data=[37, 59]),
   midi.NoteOnEvent(tick=0, channel=0, data=[44, 63]),
   midi.NoteOnEvent(tick=1920, channel=0, data=[44, 0]),
   midi.NoteOnEvent(tick=0, channel=0, data=[37, 0]),
   midi.NoteOnEvent(tick=480, channel=0, data=[49, 59]),
   midi.NoteOnEvent(tick=480, channel=0, data=[49, 0]),
   midi.NoteOnEvent(tick=0, channel=0, data=[54, 64]),
   midi.NoteOnEvent(tick=0, channel=0, data=[46, 64]),
   midi.NoteOnEvent(tick=960, channel=0, data=[46, 0]),
   midi.NoteOnEvent(tick=480, channel=0, data=[51, 58]),
   midi.NoteOnEvent(tick=480, channel=0, data=[54, 0]),
   midi.NoteOnEvent(tick=0, channel=0, data=[53, 62]),
   midi.NoteOnEvent(tick=480, channel=0, data=[53, 0]),
   midi.NoteOnEvent(tick=0, channel=0, data=[51, 0]),
   midi.NoteOnEvent(tick=0, channel=0, data=[54, 70]),
   midi.NoteOnEvent(tick=480, channel=0, data=[54, 0]),
   midi.NoteOnEvent(tick=0, channel=0, data=[56, 72]),
   midi.NoteOnEvent(tick=0, channel=0, data=[49, 72]),
   midi.NoteOnEvent(tick=960, channel=0, data=[49, 0]),
   midi.NoteOnEvent(tick=480, channel=0, data=[56, 0]),
   midi.NoteOnEvent(tick=0, channel=0, data=[54, 54]),
   midi.NoteOnEvent(tick=0, channel=0, data=[58, 54]),
   midi.NoteOnEvent(tick=960, channel=0, data=[54, 0]),
   midi.NoteOnEvent(tick=480, channel=0, data=[58, 0]),
   midi.NoteOnEvent(tick=0, channel=0, data=[47, 73]),
   midi.NoteOnEvent(tick=0, channel=0, data=[61, 73]),
   midi.NoteOnEvent(tick=480, channel=0, data=[61, 0]),
   midi.NoteOnEvent(tick=0, channel=0, data=[59, 62]),
   midi.NoteOnEvent(tick=480, channel=0, data=[59, 0]),
   midi.NoteOnEvent(tick=0, channel=0, data=[47, 0]),
   midi.NoteOnEvent(tick=0, channel=0, data=[58, 54]),
   midi.NoteOnEvent(tick=480, channel=0, data=[58, 0]),
   midi.NoteOnEvent(tick=0, channel=0, data=[49, 66]),
   midi.NoteOnEvent(tick=0, channel=0, data=[56, 66]),
   midi.NoteOnEvent(tick=480, channel=0, data=[56, 0]),
   midi.NoteOnEvent(tick=0, channel=0, data=[58, 49]),
   midi.NoteOnEvent(tick=480, channel=0, data=[58, 0]),
   midi.NoteOnEvent(tick=0, channel=0, data=[49, 0]),
   midi.NoteOnEvent(tick=0, channel=0, data=[56, 41]),
   midi.NoteOnEvent(tick=480, channel=0, data=[56, 0]),
   midi.NoteOnEvent(tick=0, channel=0, data=[54, 50]),
   midi.NoteOnEvent(tick=1920, channel=0, data=[54, 34]),
   midi.NoteOnEvent(tick=240, channel=0, data=[54, 0]),
   midi.NoteOnEvent(tick=0, channel=0, data=[49, 31]),
   midi.NoteOnEvent(tick=240, channel=0, data=[49, 0]),
   midi.NoteOnEvent(tick=0, channel=0, data=[54, 0]),
   midi.NoteOnEvent(tick=0, channel=0, data=[46, 31]),
   midi.NoteOnEvent(tick=240, channel=0, data=[46, 0]),
   midi.NoteOnEvent(tick=0, channel=0, data=[42, 26]),
   midi.NoteOnEvent(tick=240, channel=0, data=[42, 0]),
   midi.NoteOnEvent(tick=0, channel=0, data=[39, 42]),
   midi.NoteOnEvent(tick=240, channel=0, data=[39, 0]),
   midi.NoteOnEvent(tick=0, channel=0, data=[51, 31]),
   midi.NoteOnEvent(tick=240, channel=0, data=[51, 0]),
   midi.NoteOnEvent(tick=0, channel=0, data=[54, 37]),
   midi.NoteOnEvent(tick=240, channel=0, data=[54, 0]),
   midi.NoteOnEvent(tick=0, channel=0, data=[58, 31]),
   midi.NoteOnEvent(tick=240, channel=0, data=[58, 0]),
   midi.NoteOnEvent(tick=0, channel=0, data=[54, 37]),
   midi.NoteOnEvent(tick=240, channel=0, data=[54, 0]),
   midi.NoteOnEvent(tick=0, channel=0, data=[51, 31]),
   midi.NoteOnEvent(tick=240, channel=0, data=[51, 0]),
   midi.NoteOnEvent(tick=0, channel=0, data=[39, 40]),
   midi.NoteOnEvent(tick=240, channel=0, data=[39, 0]),
   midi.NoteOnEvent(tick=0, channel=0, data=[51, 31]),
   midi.NoteOnEvent(tick=240, channel=0, data=[51, 0]),
   midi.NoteOnEvent(tick=0, channel=0, data=[54, 49]),
   midi.NoteOnEvent(tick=240, channel=0, data=[54, 0]),
   midi.NoteOnEvent(tick=0, channel=0, data=[56, 39]),
   midi.NoteOnEvent(tick=240, channel=0, data=[56, 0]),
   midi.NoteOnEvent(tick=0, channel=0, data=[54, 50]),
   midi.NoteOnEvent(tick=240, channel=0, data=[54, 0]),
   midi.NoteOnEvent(tick=0, channel=0, data=[51, 47]),
   midi.NoteOnEvent(tick=240, channel=0, data=[51, 0]),
   midi.NoteOnEvent(tick=0, channel=0, data=[37, 61]),
   midi.NoteOnEvent(tick=240, channel=0, data=[37, 0]),
   midi.NoteOnEvent(tick=0, channel=0, data=[51, 45]),
   midi.NoteOnEvent(tick=240, channel=0, data=[51, 0]),
   midi.NoteOnEvent(tick=0, channel=0, data=[49, 44]),
   midi.NoteOnEvent(tick=240, channel=0, data=[49, 0]),
   midi.NoteOnEvent(tick=0, channel=0, data=[47, 38]),
   midi.NoteOnEvent(tick=240, channel=0, data=[47, 0]),
   midi.NoteOnEvent(tick=0, channel=0, data=[46, 50]),
   midi.NoteOnEvent(tick=240, channel=0, data=[46, 0]),
   midi.NoteOnEvent(tick=0, channel=0, data=[44, 31]),
   midi.NoteOnEvent(tick=240, channel=0, data=[44, 0]),
   midi.NoteOnEvent(tick=0, channel=0, data=[42, 49]),
   midi.NoteOnEvent(tick=240, channel=0, data=[42, 0]),
   midi.NoteOnEvent(tick=0, channel=0, data=[49, 31]),
   midi.NoteOnEvent(tick=240, channel=0, data=[49, 0]),
   midi.NoteOnEvent(tick=0, channel=0, data=[52, 39]),
   midi.NoteOnEvent(tick=240, channel=0, data=[52, 0]),
   midi.NoteOnEvent(tick=0, channel=0, data=[54, 31]),
   midi.NoteOnEvent(tick=240, channel=0, data=[54, 0]),
   midi.NoteOnEvent(tick=0, channel=0, data=[52, 38]),
   midi.NoteOnEvent(tick=240, channel=0, data=[52, 0]),
   midi.NoteOnEvent(tick=0, channel=0, data=[49, 31]),
   midi.NoteOnEvent(tick=240, channel=0, data=[49, 0]),
   midi.NoteOnEvent(tick=0, channel=0, data=[47, 52]),
   midi.NoteOnEvent(tick=240, channel=0, data=[47, 0]),
   midi.NoteOnEvent(tick=0, channel=0, data=[51, 31]),
   midi.NoteOnEvent(tick=240, channel=0, data=[51, 0]),
   midi.NoteOnEvent(tick=0, channel=0, data=[56, 45]),
   midi.NoteOnEvent(tick=240, channel=0, data=[56, 0]),
   midi.NoteOnEvent(tick=0, channel=0, data=[51, 31]),
   midi.NoteOnEvent(tick=240, channel=0, data=[51, 0]),
   midi.NoteOnEvent(tick=0, channel=0, data=[58, 46]),
   midi.NoteOnEvent(tick=240, channel=0, data=[58, 0]),
   midi.NoteOnEvent(tick=0, channel=0, data=[51, 33]),
   midi.NoteOnEvent(tick=240, channel=0, data=[51, 0]),
   midi.NoteOnEvent(tick=0, channel=0, data=[59, 55]),
   midi.NoteOnEvent(tick=240, channel=0, data=[59, 0]),
   midi.NoteOnEvent(tick=0, channel=0, data=[49, 48]),
   midi.NoteOnEvent(tick=240, channel=0, data=[49, 0]),
   midi.NoteOnEvent(tick=0, channel=0, data=[61, 43]),
   midi.NoteOnEvent(tick=240, channel=0, data=[61, 0]),
   midi.NoteOnEvent(tick=0, channel=0, data=[49, 37]),
   midi.NoteOnEvent(tick=240, channel=0, data=[49, 0]),
   midi.NoteOnEvent(tick=0, channel=0, data=[59, 45]),
   midi.NoteOnEvent(tick=240, channel=0, data=[59, 0]),
   midi.NoteOnEvent(tick=0, channel=0, data=[49, 40]),
   midi.NoteOnEvent(tick=240, channel=0, data=[49, 0]),
   midi.NoteOnEvent(tick=0, channel=0, data=[42, 46]),
   midi.NoteOnEvent(tick=240, channel=0, data=[42, 0]),
   midi.NoteOnEvent(tick=0, channel=0, data=[54, 39]),
   midi.NoteOnEvent(tick=240, channel=0, data=[54, 0]),
   midi.NoteOnEvent(tick=0, channel=0, data=[58, 43]),
   midi.NoteOnEvent(tick=240, channel=0, data=[58, 0]),
   midi.NoteOnEvent(tick=0, channel=0, data=[54, 37]),
   midi.NoteOnEvent(tick=240, channel=0, data=[54, 0]),
   midi.NoteOnEvent(tick=0, channel=0, data=[58, 48]),
   midi.NoteOnEvent(tick=240, channel=0, data=[58, 0]),
   midi.NoteOnEvent(tick=0, channel=0, data=[54, 40]),
   midi.NoteOnEvent(tick=240, channel=0, data=[54, 0]),
   midi.NoteOnEvent(tick=0, channel=0, data=[59, 56]),
   midi.NoteOnEvent(tick=240, channel=0, data=[59, 0]),
   midi.NoteOnEvent(tick=0, channel=0, data=[54, 46]),
   midi.NoteOnEvent(tick=240, channel=0, data=[54, 0]),
   midi.NoteOnEvent(tick=0, channel=0, data=[59, 58]),
   midi.NoteOnEvent(tick=240, channel=0, data=[59, 0]),
   midi.NoteOnEvent(tick=0, channel=0, data=[54, 48]),
   midi.NoteOnEvent(tick=240, channel=0, data=[54, 0]),
   midi.NoteOnEvent(tick=0, channel=0, data=[61, 67]),
   midi.NoteOnEvent(tick=240, channel=0, data=[61, 0]),
   midi.NoteOnEvent(tick=0, channel=0, data=[54, 56]),
   midi.NoteOnEvent(tick=240, channel=0, data=[54, 0]),
   midi.NoteOnEvent(tick=0, channel=0, data=[47, 65]),
   midi.NoteOnEvent(tick=0, channel=0, data=[55, 72]),
   midi.NoteOnEvent(tick=240, channel=0, data=[55, 0]),
   midi.NoteOnEvent(tick=0, channel=0, data=[51, 51]),
   midi.NoteOnEvent(tick=240, channel=0, data=[51, 0]),
   midi.NoteOnEvent(tick=0, channel=0, data=[56, 58]),
   midi.NoteOnEvent(tick=240, channel=0, data=[56, 0]),
   midi.NoteOnEvent(tick=0, channel=0, data=[51, 48]),
   midi.NoteOnEvent(tick=240, channel=0, data=[51, 0]),
   midi.NoteOnEvent(tick=0, channel=0, data=[58, 55]),
   midi.NoteOnEvent(tick=240, channel=0, data=[58, 0]),
   midi.NoteOnEvent(tick=0, channel=0, data=[51, 47]),
   midi.NoteOnEvent(tick=240, channel=0, data=[51, 0]),
   midi.NoteOnEvent(tick=0, channel=0, data=[47, 0]),
   midi.NoteOnEvent(tick=0, channel=0, data=[59, 64]),
   midi.NoteOnEvent(tick=240, channel=0, data=[59, 0]),
   midi.NoteOnEvent(tick=0, channel=0, data=[49, 49]),
   midi.NoteOnEvent(tick=240, channel=0, data=[49, 0]),
   midi.NoteOnEvent(tick=0, channel=0, data=[61, 55]),
   midi.NoteOnEvent(tick=240, channel=0, data=[61, 0]),
   midi.NoteOnEvent(tick=0, channel=0, data=[49, 48]),
   midi.NoteOnEvent(tick=240, channel=0, data=[49, 0]),
   midi.NoteOnEvent(tick=0, channel=0, data=[59, 54]),
   midi.NoteOnEvent(tick=240, channel=0, data=[59, 0]),
   midi.NoteOnEvent(tick=0, channel=0, data=[49, 41]),
   midi.NoteOnEvent(tick=240, channel=0, data=[49, 0]),
   midi.NoteOnEvent(tick=240, channel=0, data=[54, 54]),
   midi.NoteOnEvent(tick=240, channel=0, data=[54, 0]),
   midi.NoteOnEvent(tick=0, channel=0, data=[53, 54]),
   midi.NoteOnEvent(tick=240, channel=0, data=[53, 0]),
   midi.NoteOnEvent(tick=0, channel=0, data=[54, 54]),
   midi.NoteOnEvent(tick=240, channel=0, data=[54, 0]),
   midi.NoteOnEvent(tick=0, channel=0, data=[58, 54]),
   midi.NoteOnEvent(tick=240, channel=0, data=[58, 0]),
   midi.NoteOnEvent(tick=0, channel=0, data=[54, 51]),
   midi.NoteOnEvent(tick=240, channel=0, data=[54, 0]),
   midi.NoteOnEvent(tick=0, channel=0, data=[53, 55]),
   midi.NoteOnEvent(tick=240, channel=0, data=[53, 0]),
   midi.NoteOnEvent(tick=0, channel=0, data=[54, 55]),
   midi.NoteOnEvent(tick=240, channel=0, data=[54, 0]),
   midi.NoteOnEvent(tick=0, channel=0, data=[53, 57]),
   midi.NoteOnEvent(tick=240, channel=0, data=[53, 0]),
   midi.NoteOnEvent(tick=0, channel=0, data=[54, 60]),
   midi.NoteOnEvent(tick=240, channel=0, data=[54, 0]),
   midi.NoteOnEvent(tick=0, channel=0, data=[52, 61]),
   midi.NoteOnEvent(tick=240, channel=0, data=[52, 0]),
   midi.NoteOnEvent(tick=0, channel=0, data=[54, 65]),
   midi.NoteOnEvent(tick=240, channel=0, data=[54, 0]),
   midi.NoteOnEvent(tick=0, channel=0, data=[51, 75]),
   midi.NoteOnEvent(tick=240, channel=0, data=[51, 0]),
   midi.NoteOnEvent(tick=0, channel=0, data=[54, 53]),
   midi.NoteOnEvent(tick=240, channel=0, data=[54, 0]),
   midi.NoteOnEvent(tick=0, channel=0, data=[59, 60]),
   midi.NoteOnEvent(tick=240, channel=0, data=[59, 0]),
   midi.NoteOnEvent(tick=0, channel=0, data=[54, 50]),
   midi.NoteOnEvent(tick=240, channel=0, data=[54, 0]),
   midi.NoteOnEvent(tick=0, channel=0, data=[49, 57]),
   midi.NoteOnEvent(tick=240, channel=0, data=[49, 0]),
   midi.NoteOnEvent(tick=0, channel=0, data=[54, 49]),
   midi.NoteOnEvent(tick=240, channel=0, data=[54, 0]),
   midi.NoteOnEvent(tick=0, channel=0, data=[48, 63]),
   midi.NoteOnEvent(tick=240, channel=0, data=[48, 0]),
   midi.NoteOnEvent(tick=0, channel=0, data=[54, 47]),
   midi.NoteOnEvent(tick=240, channel=0, data=[54, 0]),
   midi.NoteOnEvent(tick=0, channel=0, data=[56, 52]),
   midi.NoteOnEvent(tick=240, channel=0, data=[56, 0]),
   midi.NoteOnEvent(tick=0, channel=0, data=[54, 45]),
   midi.NoteOnEvent(tick=240, channel=0, data=[54, 0]),
   midi.NoteOnEvent(tick=0, channel=0, data=[48, 49]),
   midi.NoteOnEvent(tick=240, channel=0, data=[48, 0]),
   midi.NoteOnEvent(tick=0, channel=0, data=[54, 37]),
   midi.NoteOnEvent(tick=240, channel=0, data=[54, 0]),
   midi.NoteOnEvent(tick=0, channel=0, data=[49, 63]),
   midi.NoteOnEvent(tick=240, channel=0, data=[49, 0]),
   midi.NoteOnEvent(tick=0, channel=0, data=[56, 44]),
   midi.NoteOnEvent(tick=240, channel=0, data=[56, 0]),
   midi.NoteOnEvent(tick=0, channel=0, data=[59, 49]),
   midi.NoteOnEvent(tick=240, channel=0, data=[59, 0]),
   midi.NoteOnEvent(tick=0, channel=0, data=[56, 40]),
   midi.NoteOnEvent(tick=240, channel=0, data=[56, 0]),
   midi.NoteOnEvent(tick=0, channel=0, data=[51, 45]),
   midi.NoteOnEvent(tick=0, channel=0, data=[59, 45]),
   midi.NoteOnEvent(tick=240, channel=0, data=[59, 0]),
   midi.NoteOnEvent(tick=0, channel=0, data=[51, 0]),
   midi.NoteOnEvent(tick=0, channel=0, data=[56, 37]),
   midi.NoteOnEvent(tick=240, channel=0, data=[56, 0]),
   midi.NoteOnEvent(tick=0, channel=0, data=[53, 42]),
   midi.NoteOnEvent(tick=0, channel=0, data=[59, 50]),
   midi.NoteOnEvent(tick=240, channel=0, data=[59, 0]),
   midi.NoteOnEvent(tick=0, channel=0, data=[53, 0]),
   midi.NoteOnEvent(tick=0, channel=0, data=[56, 38]),
   midi.NoteOnEvent(tick=240, channel=0, data=[56, 0]),
   midi.NoteOnEvent(tick=0, channel=0, data=[51, 42]),
   midi.NoteOnEvent(tick=0, channel=0, data=[59, 42]),
   midi.NoteOnEvent(tick=240, channel=0, data=[59, 0]),
   midi.NoteOnEvent(tick=0, channel=0, data=[51, 0]),
   midi.NoteOnEvent(tick=0, channel=0, data=[56, 37]),
   midi.NoteOnEvent(tick=240, channel=0, data=[56, 0]),
   midi.NoteOnEvent(tick=0, channel=0, data=[53, 42]),
   midi.NoteOnEvent(tick=0, channel=0, data=[59, 42]),
   midi.NoteOnEvent(tick=240, channel=0, data=[59, 0]),
   midi.NoteOnEvent(tick=0, channel=0, data=[53, 0]),
   midi.NoteOnEvent(tick=0, channel=0, data=[56, 32]),
   midi.NoteOnEvent(tick=240, channel=0, data=[56, 0]),
   midi.NoteOnEvent(tick=0, channel=0, data=[58, 50]),
   midi.NoteOnEvent(tick=240, channel=0, data=[58, 0]),
   midi.NoteOnEvent(tick=0, channel=0, data=[54, 38]),
   midi.NoteOnEvent(tick=240, channel=0, data=[54, 0]),
   midi.NoteOnEvent(tick=0, channel=0, data=[59, 42]),
   midi.NoteOnEvent(tick=240, channel=0, data=[59, 0]),
   midi.NoteOnEvent(tick=0, channel=0, data=[54, 37]),
   midi.NoteOnEvent(tick=240, channel=0, data=[54, 0]),
   midi.NoteOnEvent(tick=0, channel=0, data=[61, 42]),
   midi.NoteOnEvent(tick=240, channel=0, data=[61, 0]),
   midi.NoteOnEvent(tick=0, channel=0, data=[54, 32]),
   midi.NoteOnEvent(tick=240, channel=0, data=[54, 0]),
   midi.NoteOnEvent(tick=0, channel=0, data=[47, 45]),
   midi.NoteOnEvent(tick=240, channel=0, data=[47, 0]),
   midi.NoteOnEvent(tick=0, channel=0, data=[51, 33]),
   midi.NoteOnEvent(tick=240, channel=0, data=[51, 0]),
   midi.NoteOnEvent(tick=0, channel=0, data=[56, 43]),
   midi.NoteOnEvent(tick=240, channel=0, data=[56, 0]),
   midi.NoteOnEvent(tick=0, channel=0, data=[59, 32]),
   midi.NoteOnEvent(tick=240, channel=0, data=[59, 0]),
   midi.NoteOnEvent(tick=0, channel=0, data=[56, 41]),
   midi.NoteOnEvent(tick=240, channel=0, data=[56, 0]),
   midi.NoteOnEvent(tick=0, channel=0, data=[51, 32]),
   midi.NoteOnEvent(tick=240, channel=0, data=[51, 0]),
   midi.NoteOnEvent(tick=0, channel=0, data=[49, 50]),
   midi.NoteOnEvent(tick=0, channel=0, data=[58, 50]),
   midi.NoteOnEvent(tick=240, channel=0, data=[58, 0]),
   midi.NoteOnEvent(tick=1200, channel=0, data=[49, 0]),
   midi.NoteOnEvent(tick=0, channel=0, data=[59, 41]),
   midi.NoteOnEvent(tick=240, channel=0, data=[59, 0]),
   midi.NoteOnEvent(tick=0, channel=0, data=[56, 35]),
   midi.NoteOnEvent(tick=240, channel=0, data=[56, 0]),
   midi.NoteOnEvent(tick=0, channel=0, data=[53, 41]),
   midi.NoteOnEvent(tick=240, channel=0, data=[53, 0]),
   midi.NoteOnEvent(tick=0, channel=0, data=[49, 38]),
   midi.NoteOnEvent(tick=240, channel=0, data=[49, 0]),
   midi.NoteOnEvent(tick=0, channel=0, data=[47, 41]),
   midi.NoteOnEvent(tick=240, channel=0, data=[47, 0]),
   midi.NoteOnEvent(tick=0, channel=0, data=[44, 37]),
   midi.NoteOnEvent(tick=240, channel=0, data=[44, 0]),
   midi.NoteOnEvent(tick=0, channel=0, data=[42, 53]),
   midi.NoteOnEvent(tick=240, channel=0, data=[42, 0]),
   midi.NoteOnEvent(tick=0, channel=0, data=[41, 40]),
   midi.NoteOnEvent(tick=240, channel=0, data=[41, 0]),
   midi.NoteOnEvent(tick=0, channel=0, data=[42, 42]),
   midi.NoteOnEvent(tick=240, channel=0, data=[42, 0]),
   midi.NoteOnEvent(tick=0, channel=0, data=[44, 39]),
   midi.NoteOnEvent(tick=240, channel=0, data=[44, 0]),
   midi.NoteOnEvent(tick=0, channel=0, data=[46, 39]),
   midi.NoteOnEvent(tick=240, channel=0, data=[46, 0]),
   midi.NoteOnEvent(tick=0, channel=0, data=[47, 38]),
   midi.NoteOnEvent(tick=240, channel=0, data=[47, 0]),
   midi.NoteOnEvent(tick=0, channel=0, data=[49, 38]),
   midi.NoteOnEvent(tick=240, channel=0, data=[49, 0]),
   midi.NoteOnEvent(tick=0, channel=0, data=[48, 34]),
   midi.NoteOnEvent(tick=240, channel=0, data=[48, 0]),
   midi.NoteOnEvent(tick=0, channel=0, data=[49, 36]),
   midi.NoteOnEvent(tick=240, channel=0, data=[49, 0]),
   midi.NoteOnEvent(tick=0, channel=0, data=[51, 34]),
   midi.NoteOnEvent(tick=240, channel=0, data=[51, 0]),
   midi.NoteOnEvent(tick=0, channel=0, data=[52, 35]),
   midi.NoteOnEvent(tick=240, channel=0, data=[52, 0]),
   midi.NoteOnEvent(tick=0, channel=0, data=[53, 31]),
   midi.NoteOnEvent(tick=240, channel=0, data=[53, 0]),
   midi.NoteOnEvent(tick=0, channel=0, data=[54, 35]),
   midi.NoteOnEvent(tick=480, channel=0, data=[63, 38]),
   midi.NoteOnEvent(tick=180, channel=0, data=[63, 0]),
   midi.NoteOnEvent(tick=300, channel=0, data=[61, 32]),
   midi.NoteOnEvent(tick=180, channel=0, data=[61, 0]),
   midi.NoteOnEvent(tick=300, channel=0, data=[54, 0]),
   midi.NoteOnEvent(tick=0, channel=0, data=[49, 35]),
   midi.NoteOnEvent(tick=0, channel=0, data=[60, 38]),
   midi.NoteOnEvent(tick=180, channel=0, data=[60, 0]),
   midi.NoteOnEvent(tick=780, channel=0, data=[59, 38]),
   midi.NoteOnEvent(tick=240, channel=0, data=[59, 0]),
   midi.NoteOnEvent(tick=240, channel=0, data=[49, 0]),
   midi.NoteOnEvent(tick=0, channel=0, data=[54, 51]),
   midi.NoteOnEvent(tick=0, channel=0, data=[58, 51]),
   midi.NoteOnEvent(tick=240, channel=0, data=[58, 0]),
   midi.NoteOnEvent(tick=0, channel=0, data=[54, 0]),
   midi.NoteOnEvent(tick=0, channel=0, data=[53, 43]),
   midi.NoteOnEvent(tick=240, channel=0, data=[53, 0]),
   midi.NoteOnEvent(tick=0, channel=0, data=[54, 45]),
   midi.NoteOnEvent(tick=240, channel=0, data=[54, 0]),
   midi.NoteOnEvent(tick=0, channel=0, data=[56, 41]),
   midi.NoteOnEvent(tick=240, channel=0, data=[56, 0]),
   midi.NoteOnEvent(tick=0, channel=0, data=[58, 42]),
   midi.NoteOnEvent(tick=240, channel=0, data=[58, 0]),
   midi.NoteOnEvent(tick=0, channel=0, data=[59, 40]),
   midi.NoteOnEvent(tick=240, channel=0, data=[59, 0]),
   midi.NoteOnEvent(tick=0, channel=0, data=[61, 40]),
   midi.NoteOnEvent(tick=240, channel=0, data=[61, 0]),
   midi.NoteOnEvent(tick=0, channel=0, data=[60, 36]),
   midi.NoteOnEvent(tick=240, channel=0, data=[60, 0]),
   midi.NoteOnEvent(tick=0, channel=0, data=[61, 38]),
   midi.NoteOnEvent(tick=240, channel=0, data=[61, 0]),
   midi.NoteOnEvent(tick=0, channel=0, data=[63, 36]),
   midi.NoteOnEvent(tick=240, channel=0, data=[63, 0]),
   midi.NoteOnEvent(tick=0, channel=0, data=[64, 37]),
   midi.NoteOnEvent(tick=240, channel=0, data=[64, 0]),
   midi.NoteOnEvent(tick=0, channel=0, data=[65, 33]),
   midi.NoteOnEvent(tick=240, channel=0, data=[65, 0]),
   midi.NoteOnEvent(tick=0, channel=0, data=[66, 44]),
   midi.NoteOnEvent(tick=480, channel=0, data=[66, 0]),
   midi.NoteOnEvent(tick=0, channel=0, data=[61, 43]),
   midi.NoteOnEvent(tick=0, channel=0, data=[65, 51]),
   midi.NoteOnEvent(tick=480, channel=0, data=[65, 0]),
   midi.NoteOnEvent(tick=0, channel=0, data=[61, 0]),
   midi.NoteOnEvent(tick=0, channel=0, data=[59, 40]),
   midi.NoteOnEvent(tick=0, channel=0, data=[63, 48]),
   midi.NoteOnEvent(tick=480, channel=0, data=[63, 0]),
   midi.NoteOnEvent(tick=0, channel=0, data=[59, 0]),
   midi.NoteOnEvent(tick=0, channel=0, data=[58, 38]),
   midi.NoteOnEvent(tick=0, channel=0, data=[61, 45]),
   midi.NoteOnEvent(tick=480, channel=0, data=[61, 0]),
   midi.NoteOnEvent(tick=0, channel=0, data=[58, 0]),
   midi.NoteOnEvent(tick=0, channel=0, data=[57, 37]),
   midi.NoteOnEvent(tick=0, channel=0, data=[60, 44]),
   midi.NoteOnEvent(tick=480, channel=0, data=[60, 0]),
   midi.NoteOnEvent(tick=0, channel=0, data=[57, 0]),
   midi.NoteOnEvent(tick=0, channel=0, data=[56, 37]),
   midi.NoteOnEvent(tick=0, channel=0, data=[59, 44]),
   midi.NoteOnEvent(tick=480, channel=0, data=[59, 0]),
   midi.NoteOnEvent(tick=0, channel=0, data=[56, 0]),
   midi.NoteOnEvent(tick=0, channel=0, data=[54, 37]),
   midi.NoteOnEvent(tick=0, channel=0, data=[58, 44]),
   midi.NoteOnEvent(tick=480, channel=0, data=[58, 0]),
   midi.NoteOnEvent(tick=0, channel=0, data=[54, 0]),
   midi.NoteOnEvent(tick=0, channel=0, data=[49, 37]),
   midi.NoteOnEvent(tick=0, channel=0, data=[53, 44]),
   midi.NoteOnEvent(tick=480, channel=0, data=[53, 0]),
   midi.NoteOnEvent(tick=0, channel=0, data=[49, 0]),
   midi.NoteOnEvent(tick=0, channel=0, data=[47, 33]),
   midi.NoteOnEvent(tick=0, channel=0, data=[51, 39]),
   midi.NoteOnEvent(tick=480, channel=0, data=[51, 0]),
   midi.NoteOnEvent(tick=0, channel=0, data=[47, 0]),
   midi.NoteOnEvent(tick=0, channel=0, data=[46, 29]),
   midi.NoteOnEvent(tick=0, channel=0, data=[49, 35]),
   midi.NoteOnEvent(tick=480, channel=0, data=[49, 0]),
   midi.NoteOnEvent(tick=0, channel=0, data=[46, 0]),
   midi.NoteOnEvent(tick=0, channel=0, data=[45, 27]),
   midi.NoteOnEvent(tick=0, channel=0, data=[48, 32]),
   midi.NoteOnEvent(tick=480, channel=0, data=[48, 0]),
   midi.NoteOnEvent(tick=0, channel=0, data=[45, 0]),
   midi.NoteOnEvent(tick=0, channel=0, data=[44, 25]),
   midi.NoteOnEvent(tick=0, channel=0, data=[47, 30]),
   midi.NoteOnEvent(tick=480, channel=0, data=[47, 0]),
   midi.NoteOnEvent(tick=0, channel=0, data=[44, 0]),
   midi.NoteOnEvent(tick=0, channel=0, data=[42, 26]),
   midi.NoteOnEvent(tick=0, channel=0, data=[46, 28]),
   midi.NoteOnEvent(tick=2880, channel=0, data=[49, 26]),
   midi.NoteOnEvent(tick=3360, channel=0, data=[49, 0]),
   midi.NoteOnEvent(tick=0, channel=0, data=[46, 0]),
   midi.NoteOnEvent(tick=0, channel=0, data=[42, 0]),
   midi.NoteOnEvent(tick=480, channel=0, data=[58, 33]),
   midi.NoteOnEvent(tick=240, channel=0, data=[58, 0]),
   midi.NoteOnEvent(tick=0, channel=0, data=[54, 29]),
   midi.NoteOnEvent(tick=240, channel=0, data=[54, 0]),
   midi.NoteOnEvent(tick=0, channel=0, data=[49, 33]),
   midi.NoteOnEvent(tick=240, channel=0, data=[49, 0]),
   midi.NoteOnEvent(tick=2640, channel=0, data=[42, 21]),
   midi.NoteOnEvent(tick=0, channel=0, data=[49, 25]),
   midi.NoteOnEvent(tick=480, channel=0, data=[49, 0]),
   midi.NoteOnEvent(tick=0, channel=0, data=[42, 0]),
   midi.NoteOnEvent(tick=960, channel=0, data=[54, 21]),
   midi.NoteOnEvent(tick=0, channel=0, data=[61, 25]),
   midi.NoteOnEvent(tick=480, channel=0, data=[61, 0]),
   midi.NoteOnEvent(tick=0, channel=0, data=[54, 0]),
   midi.EndOfTrackEvent(tick=0, data=[])])])
midi.write_midifile("creationMidi.mid", pattern)