import midi
pattern=midi.Pattern(format=1, resolution=480, tracks=\
[midi.Track(\
[   midi.NoteOnEvent(tick=0, channel=0, data=[70, 50]),
   midi.NoteOnEvent(tick=960, channel=0, data=[70, 0]),
   midi.NoteOnEvent(tick=0, channel=0, data=[65, 45]),
   midi.NoteOnEvent(tick=480, channel=0, data=[65, 0]),
   midi.NoteOnEvent(tick=0, channel=0, data=[62, 50]),
   midi.NoteOnEvent(tick=960, channel=0, data=[62, 0]),
   midi.NoteOnEvent(tick=0, channel=0, data=[65, 48]),
   midi.NoteOnEvent(tick=480, channel=0, data=[65, 0]),
   midi.NoteOnEvent(tick=0, channel=0, data=[70, 52]),
   midi.NoteOnEvent(tick=960, channel=0, data=[70, 0]),
   midi.NoteOnEvent(tick=0, channel=0, data=[74, 54]),
   midi.NoteOnEvent(tick=480, channel=0, data=[74, 0]),
   midi.NoteOnEvent(tick=0, channel=0, data=[77, 57]),
   midi.NoteOnEvent(tick=960, channel=0, data=[77, 0]),
   midi.NoteOnEvent(tick=0, channel=0, data=[82, 58]),
   midi.NoteOnEvent(tick=240, channel=0, data=[82, 0]),
   midi.NoteOnEvent(tick=0, channel=0, data=[74, 51]),
   midi.NoteOnEvent(tick=240, channel=0, data=[74, 0]),
   midi.NoteOnEvent(tick=0, channel=0, data=[77, 56]),
   midi.NoteOnEvent(tick=240, channel=0, data=[75, 52]),
   midi.NoteOnEvent(tick=12, channel=0, data=[77, 0]),
   midi.NoteOnEvent(tick=228, channel=0, data=[74, 51]),
   midi.NoteOnEvent(tick=12, channel=0, data=[75, 0]),
   midi.NoteOnEvent(tick=228, channel=0, data=[72, 49]),
   midi.NoteOnEvent(tick=12, channel=0, data=[74, 0]),
   midi.NoteOnEvent(tick=228, channel=0, data=[70, 48]),
   midi.NoteOnEvent(tick=12, channel=0, data=[72, 0]),
   midi.NoteOnEvent(tick=228, channel=0, data=[69, 47]),
   midi.NoteOnEvent(tick=12, channel=0, data=[70, 0]),
   midi.NoteOnEvent(tick=228, channel=0, data=[69, 0]),
   midi.NoteOnEvent(tick=0, channel=0, data=[67, 50]),
   midi.NoteOnEvent(tick=240, channel=0, data=[65, 44]),
   midi.NoteOnEvent(tick=12, channel=0, data=[67, 0]),
   midi.NoteOnEvent(tick=228, channel=0, data=[64, 44]),
   midi.NoteOnEvent(tick=12, channel=0, data=[65, 0]),
   midi.NoteOnEvent(tick=228, channel=0, data=[65, 45]),
   midi.NoteOnEvent(tick=12, channel=0, data=[64, 0]),
   midi.NoteOnEvent(tick=228, channel=0, data=[67, 47]),
   midi.NoteOnEvent(tick=12, channel=0, data=[65, 0]),
   midi.NoteOnEvent(tick=228, channel=0, data=[69, 50]),
   midi.NoteOnEvent(tick=12, channel=0, data=[67, 0]),
   midi.NoteOnEvent(tick=228, channel=0, data=[69, 0]),
   midi.NoteOnEvent(tick=0, channel=0, data=[70, 50]),
   midi.NoteOnEvent(tick=60, channel=0, data=[70, 0]),
   midi.NoteOnEvent(tick=120, channel=0, data=[72, 45]),
   midi.NoteOnEvent(tick=60, channel=0, data=[72, 0]),
   midi.NoteOnEvent(tick=0, channel=0, data=[70, 49]),
   midi.NoteOnEvent(tick=120, channel=0, data=[70, 0]),
   midi.NoteOnEvent(tick=0, channel=0, data=[69, 46]),
   midi.NoteOnEvent(tick=120, channel=0, data=[69, 0]),
   midi.NoteOnEvent(tick=0, channel=0, data=[70, 50]),
   midi.NoteOnEvent(tick=60, channel=0, data=[70, 0]),
   midi.NoteOnEvent(tick=180, channel=0, data=[72, 47]),
   midi.NoteOnEvent(tick=60, channel=0, data=[72, 0]),
   midi.NoteOnEvent(tick=180, channel=0, data=[74, 49]),
   midi.NoteOnEvent(tick=60, channel=0, data=[74, 0]),
   midi.NoteOnEvent(tick=180, channel=0, data=[75, 51]),
   midi.NoteOnEvent(tick=60, channel=0, data=[75, 0]),
   midi.NoteOnEvent(tick=180, channel=0, data=[76, 53]),
   midi.NoteOnEvent(tick=240, channel=0, data=[77, 50]),
   midi.NoteOnEvent(tick=12, channel=0, data=[76, 0]),
   midi.NoteOnEvent(tick=228, channel=0, data=[79, 55]),
   midi.NoteOnEvent(tick=12, channel=0, data=[77, 0]),
   midi.NoteOnEvent(tick=228, channel=0, data=[77, 50]),
   midi.NoteOnEvent(tick=12, channel=0, data=[79, 0]),
   midi.NoteOnEvent(tick=228, channel=0, data=[77, 0]),
   midi.NoteOnEvent(tick=0, channel=0, data=[82, 59]),
   midi.NoteOnEvent(tick=240, channel=0, data=[82, 0]),
   midi.NoteOnEvent(tick=0, channel=0, data=[74, 50]),
   midi.NoteOnEvent(tick=240, channel=0, data=[74, 0]),
   midi.NoteOnEvent(tick=0, channel=0, data=[77, 57]),
   midi.NoteOnEvent(tick=240, channel=0, data=[75, 55]),
   midi.NoteOnEvent(tick=12, channel=0, data=[77, 0]),
   midi.NoteOnEvent(tick=228, channel=0, data=[74, 53]),
   midi.NoteOnEvent(tick=12, channel=0, data=[75, 0]),
   midi.NoteOnEvent(tick=228, channel=0, data=[72, 51]),
   midi.NoteOnEvent(tick=12, channel=0, data=[74, 0]),
   midi.NoteOnEvent(tick=228, channel=0, data=[70, 49]),
   midi.NoteOnEvent(tick=12, channel=0, data=[72, 0]),
   midi.NoteOnEvent(tick=228, channel=0, data=[69, 47]),
   midi.NoteOnEvent(tick=12, channel=0, data=[70, 0]),
   midi.NoteOnEvent(tick=228, channel=0, data=[69, 0]),
   midi.NoteOnEvent(tick=0, channel=0, data=[67, 50]),
   midi.NoteOnEvent(tick=240, channel=0, data=[65, 43]),
   midi.NoteOnEvent(tick=12, channel=0, data=[67, 0]),
   midi.NoteOnEvent(tick=228, channel=0, data=[64, 50]),
   midi.NoteOnEvent(tick=12, channel=0, data=[65, 0]),
   midi.NoteOnEvent(tick=228, channel=0, data=[65, 43]),
   midi.NoteOnEvent(tick=12, channel=0, data=[64, 0]),
   midi.NoteOnEvent(tick=228, channel=0, data=[67, 50]),
   midi.NoteOnEvent(tick=12, channel=0, data=[65, 0]),
   midi.NoteOnEvent(tick=228, channel=0, data=[69, 45]),
   midi.NoteOnEvent(tick=12, channel=0, data=[67, 0]),
   midi.NoteOnEvent(tick=228, channel=0, data=[69, 0]),
   midi.NoteOnEvent(tick=0, channel=0, data=[70, 50]),
   midi.NoteOnEvent(tick=120, channel=0, data=[70, 0]),
   midi.NoteOnEvent(tick=360, channel=0, data=[70, 48]),
   midi.NoteOnEvent(tick=120, channel=0, data=[70, 0]),
   midi.NoteOnEvent(tick=360, channel=0, data=[74, 48]),
   midi.NoteOnEvent(tick=120, channel=0, data=[74, 0]),
   midi.NoteOnEvent(tick=360, channel=0, data=[70, 50]),
   midi.NoteOnEvent(tick=480, channel=0, data=[70, 0]),
   midi.NoteOnEvent(tick=360, channel=0, data=[70, 44]),
   midi.NoteOnEvent(tick=60, channel=0, data=[70, 0]),
   midi.NoteOnEvent(tick=60, channel=0, data=[72, 50]),
   midi.NoteOnEvent(tick=120, channel=0, data=[70, 43]),
   midi.NoteOnEvent(tick=12, channel=0, data=[72, 0]),
   midi.NoteOnEvent(tick=108, channel=0, data=[69, 45]),
   midi.NoteOnEvent(tick=12, channel=0, data=[70, 0]),
   midi.NoteOnEvent(tick=108, channel=0, data=[70, 42]),
   midi.NoteOnEvent(tick=12, channel=0, data=[69, 0]),
   midi.NoteOnEvent(tick=108, channel=0, data=[79, 56]),
   midi.NoteOnEvent(tick=12, channel=0, data=[70, 0]),
   midi.NoteOnEvent(tick=468, channel=0, data=[79, 0]),
   midi.NoteOnEvent(tick=360, channel=0, data=[70, 44]),
   midi.NoteOnEvent(tick=60, channel=0, data=[70, 0]),
   midi.NoteOnEvent(tick=60, channel=0, data=[72, 50]),
   midi.NoteOnEvent(tick=120, channel=0, data=[70, 43]),
   midi.NoteOnEvent(tick=12, channel=0, data=[72, 0]),
   midi.NoteOnEvent(tick=108, channel=0, data=[69, 45]),
   midi.NoteOnEvent(tick=12, channel=0, data=[70, 0]),
   midi.NoteOnEvent(tick=108, channel=0, data=[70, 42]),
   midi.NoteOnEvent(tick=12, channel=0, data=[69, 0]),
   midi.NoteOnEvent(tick=108, channel=0, data=[77, 55]),
   midi.NoteOnEvent(tick=12, channel=0, data=[70, 0]),
   midi.NoteOnEvent(tick=468, channel=0, data=[77, 0]),
   midi.NoteOnEvent(tick=360, channel=0, data=[70, 44]),
   midi.NoteOnEvent(tick=60, channel=0, data=[70, 0]),
   midi.NoteOnEvent(tick=60, channel=0, data=[72, 50]),
   midi.NoteOnEvent(tick=120, channel=0, data=[70, 43]),
   midi.NoteOnEvent(tick=12, channel=0, data=[72, 0]),
   midi.NoteOnEvent(tick=108, channel=0, data=[69, 45]),
   midi.NoteOnEvent(tick=12, channel=0, data=[70, 0]),
   midi.NoteOnEvent(tick=108, channel=0, data=[70, 42]),
   midi.NoteOnEvent(tick=12, channel=0, data=[69, 0]),
   midi.NoteOnEvent(tick=108, channel=0, data=[72, 52]),
   midi.NoteOnEvent(tick=12, channel=0, data=[70, 0]),
   midi.NoteOnEvent(tick=468, channel=0, data=[72, 0]),
   midi.NoteOnEvent(tick=0, channel=0, data=[77, 49]),
   midi.NoteOnEvent(tick=480, channel=0, data=[77, 0]),
   midi.NoteOnEvent(tick=0, channel=0, data=[75, 48]),
   midi.NoteOnEvent(tick=480, channel=0, data=[75, 0]),
   midi.NoteOnEvent(tick=0, channel=0, data=[73, 55]),
   midi.NoteOnEvent(tick=480, channel=0, data=[73, 0]),
   midi.NoteOnEvent(tick=0, channel=0, data=[74, 49]),
   midi.NoteOnEvent(tick=240, channel=0, data=[74, 0]),
   midi.NoteOnEvent(tick=120, channel=0, data=[70, 44]),
   midi.NoteOnEvent(tick=60, channel=0, data=[70, 0]),
   midi.NoteOnEvent(tick=60, channel=0, data=[72, 50]),
   midi.NoteOnEvent(tick=120, channel=0, data=[70, 43]),
   midi.NoteOnEvent(tick=12, channel=0, data=[72, 0]),
   midi.NoteOnEvent(tick=108, channel=0, data=[69, 45]),
   midi.NoteOnEvent(tick=12, channel=0, data=[70, 0]),
   midi.NoteOnEvent(tick=108, channel=0, data=[70, 42]),
   midi.NoteOnEvent(tick=12, channel=0, data=[69, 0]),
   midi.NoteOnEvent(tick=108, channel=0, data=[79, 56]),
   midi.NoteOnEvent(tick=12, channel=0, data=[70, 0]),
   midi.NoteOnEvent(tick=468, channel=0, data=[79, 0]),
   midi.NoteOnEvent(tick=360, channel=0, data=[70, 44]),
   midi.NoteOnEvent(tick=60, channel=0, data=[70, 0]),
   midi.NoteOnEvent(tick=60, channel=0, data=[72, 50]),
   midi.NoteOnEvent(tick=120, channel=0, data=[70, 43]),
   midi.NoteOnEvent(tick=12, channel=0, data=[72, 0]),
   midi.NoteOnEvent(tick=108, channel=0, data=[69, 45]),
   midi.NoteOnEvent(tick=12, channel=0, data=[70, 0]),
   midi.NoteOnEvent(tick=108, channel=0, data=[70, 42]),
   midi.NoteOnEvent(tick=12, channel=0, data=[69, 0]),
   midi.NoteOnEvent(tick=108, channel=0, data=[77, 55]),
   midi.NoteOnEvent(tick=12, channel=0, data=[70, 0]),
   midi.NoteOnEvent(tick=468, channel=0, data=[77, 0]),
   midi.NoteOnEvent(tick=360, channel=0, data=[70, 44]),
   midi.NoteOnEvent(tick=60, channel=0, data=[70, 0]),
   midi.NoteOnEvent(tick=60, channel=0, data=[72, 50]),
   midi.NoteOnEvent(tick=120, channel=0, data=[70, 43]),
   midi.NoteOnEvent(tick=12, channel=0, data=[72, 0]),
   midi.NoteOnEvent(tick=108, channel=0, data=[69, 45]),
   midi.NoteOnEvent(tick=12, channel=0, data=[70, 0]),
   midi.NoteOnEvent(tick=108, channel=0, data=[70, 42]),
   midi.NoteOnEvent(tick=12, channel=0, data=[69, 0]),
   midi.NoteOnEvent(tick=108, channel=0, data=[72, 52]),
   midi.NoteOnEvent(tick=12, channel=0, data=[70, 0]),
   midi.NoteOnEvent(tick=468, channel=0, data=[72, 0]),
   midi.NoteOnEvent(tick=0, channel=0, data=[75, 49]),
   midi.NoteOnEvent(tick=480, channel=0, data=[75, 0]),
   midi.NoteOnEvent(tick=0, channel=0, data=[69, 48]),
   midi.NoteOnEvent(tick=480, channel=0, data=[69, 0]),
   midi.NoteOnEvent(tick=0, channel=0, data=[70, 55]),
   midi.NoteOnEvent(tick=480, channel=0, data=[70, 0]),
   midi.NoteOnEvent(tick=960, channel=0, data=[74, 64]),
   midi.NoteOnEvent(tick=0, channel=0, data=[70, 64]),
   midi.NoteOnEvent(tick=0, channel=0, data=[79, 77]),
   midi.NoteOnEvent(tick=120, channel=0, data=[79, 0]),
   midi.NoteOnEvent(tick=0, channel=0, data=[70, 0]),
   midi.NoteOnEvent(tick=0, channel=0, data=[74, 0]),
   midi.NoteOnEvent(tick=360, channel=0, data=[67, 64]),
   midi.NoteOnEvent(tick=120, channel=0, data=[67, 0]),
   midi.NoteOnEvent(tick=840, channel=0, data=[69, 63]),
   midi.NoteOnEvent(tick=0, channel=0, data=[66, 63]),
   midi.NoteOnEvent(tick=0, channel=0, data=[74, 75]),
   midi.NoteOnEvent(tick=120, channel=0, data=[74, 0]),
   midi.NoteOnEvent(tick=0, channel=0, data=[66, 0]),
   midi.NoteOnEvent(tick=0, channel=0, data=[69, 0]),
   midi.NoteOnEvent(tick=360, channel=0, data=[62, 67]),
   midi.NoteOnEvent(tick=120, channel=0, data=[62, 0]),
   midi.NoteOnEvent(tick=840, channel=0, data=[63, 43]),
   midi.NoteOnEvent(tick=960, channel=0, data=[63, 0]),
   midi.NoteOnEvent(tick=0, channel=0, data=[65, 36]),
   midi.NoteOnEvent(tick=120, channel=0, data=[63, 36]),
   midi.NoteOnEvent(tick=12, channel=0, data=[65, 0]),
   midi.NoteOnEvent(tick=108, channel=0, data=[62, 36]),
   midi.NoteOnEvent(tick=12, channel=0, data=[63, 0]),
   midi.NoteOnEvent(tick=108, channel=0, data=[63, 36]),
   midi.NoteOnEvent(tick=12, channel=0, data=[62, 0]),
   midi.NoteOnEvent(tick=108, channel=0, data=[63, 0]),
   midi.NoteOnEvent(tick=0, channel=0, data=[72, 42]),
   midi.NoteOnEvent(tick=240, channel=0, data=[72, 0]),
   midi.NoteOnEvent(tick=0, channel=0, data=[70, 37]),
   midi.NoteOnEvent(tick=240, channel=0, data=[70, 0]),
   midi.NoteOnEvent(tick=0, channel=0, data=[70, 43]),
   midi.NoteOnEvent(tick=480, channel=0, data=[70, 0]),
   midi.NoteOnEvent(tick=0, channel=0, data=[70, 38]),
   midi.NoteOnEvent(tick=480, channel=0, data=[70, 0]),
   midi.NoteOnEvent(tick=0, channel=0, data=[70, 39]),
   midi.NoteOnEvent(tick=240, channel=0, data=[75, 45]),
   midi.NoteOnEvent(tick=12, channel=0, data=[70, 0]),
   midi.NoteOnEvent(tick=228, channel=0, data=[74, 44]),
   midi.NoteOnEvent(tick=12, channel=0, data=[75, 0]),
   midi.NoteOnEvent(tick=228, channel=0, data=[73, 42]),
   midi.NoteOnEvent(tick=12, channel=0, data=[74, 0]),
   midi.NoteOnEvent(tick=228, channel=0, data=[72, 40]),
   midi.NoteOnEvent(tick=12, channel=0, data=[73, 0]),
   midi.NoteOnEvent(tick=228, channel=0, data=[71, 38]),
   midi.NoteOnEvent(tick=12, channel=0, data=[72, 0]),
   midi.NoteOnEvent(tick=228, channel=0, data=[70, 41]),
   midi.NoteOnEvent(tick=12, channel=0, data=[71, 0]),
   midi.NoteOnEvent(tick=468, channel=0, data=[70, 0]),
   midi.NoteOnEvent(tick=960, channel=0, data=[63, 45]),
   midi.NoteOnEvent(tick=960, channel=0, data=[63, 0]),
   midi.NoteOnEvent(tick=0, channel=0, data=[65, 42]),
   midi.NoteOnEvent(tick=120, channel=0, data=[63, 39]),
   midi.NoteOnEvent(tick=12, channel=0, data=[65, 0]),
   midi.NoteOnEvent(tick=108, channel=0, data=[62, 42]),
   midi.NoteOnEvent(tick=12, channel=0, data=[63, 0]),
   midi.NoteOnEvent(tick=108, channel=0, data=[63, 40]),
   midi.NoteOnEvent(tick=12, channel=0, data=[62, 0]),
   midi.NoteOnEvent(tick=108, channel=0, data=[63, 0]),
   midi.NoteOnEvent(tick=0, channel=0, data=[72, 54]),
   midi.NoteOnEvent(tick=240, channel=0, data=[71, 48]),
   midi.NoteOnEvent(tick=12, channel=0, data=[72, 0]),
   midi.NoteOnEvent(tick=228, channel=0, data=[71, 0]),
   midi.NoteOnEvent(tick=0, channel=0, data=[71, 53]),
   midi.NoteOnEvent(tick=480, channel=0, data=[71, 0]),
   midi.NoteOnEvent(tick=0, channel=0, data=[71, 47]),
   midi.NoteOnEvent(tick=480, channel=0, data=[71, 0]),
   midi.NoteOnEvent(tick=0, channel=0, data=[72, 50]),
   midi.NoteOnEvent(tick=240, channel=0, data=[79, 58]),
   midi.NoteOnEvent(tick=12, channel=0, data=[72, 0]),
   midi.NoteOnEvent(tick=228, channel=0, data=[75, 56]),
   midi.NoteOnEvent(tick=12, channel=0, data=[79, 0]),
   midi.NoteOnEvent(tick=228, channel=0, data=[74, 54]),
   midi.NoteOnEvent(tick=12, channel=0, data=[75, 0]),
   midi.NoteOnEvent(tick=228, channel=0, data=[72, 51]),
   midi.NoteOnEvent(tick=12, channel=0, data=[74, 0]),
   midi.NoteOnEvent(tick=228, channel=0, data=[70, 49]),
   midi.NoteOnEvent(tick=12, channel=0, data=[72, 0]),
   midi.NoteOnEvent(tick=228, channel=0, data=[69, 50]),
   midi.NoteOnEvent(tick=12, channel=0, data=[70, 0]),
   midi.NoteOnEvent(tick=468, channel=0, data=[69, 0]),
   midi.NoteOnEvent(tick=960, channel=0, data=[70, 59]),
   midi.NoteOnEvent(tick=240, channel=0, data=[86, 62]),
   midi.NoteOnEvent(tick=12, channel=0, data=[70, 0]),
   midi.NoteOnEvent(tick=228, channel=0, data=[82, 61]),
   midi.NoteOnEvent(tick=12, channel=0, data=[86, 0]),
   midi.NoteOnEvent(tick=228, channel=0, data=[81, 60]),
   midi.NoteOnEvent(tick=12, channel=0, data=[82, 0]),
   midi.NoteOnEvent(tick=228, channel=0, data=[79, 58]),
   midi.NoteOnEvent(tick=12, channel=0, data=[81, 0]),
   midi.NoteOnEvent(tick=228, channel=0, data=[77, 57]),
   midi.NoteOnEvent(tick=12, channel=0, data=[79, 0]),
   midi.NoteOnEvent(tick=228, channel=0, data=[76, 62]),
   midi.NoteOnEvent(tick=12, channel=0, data=[77, 0]),
   midi.NoteOnEvent(tick=468, channel=0, data=[76, 0]),
   midi.NoteOnEvent(tick=960, channel=0, data=[77, 52]),
   midi.NoteOnEvent(tick=240, channel=0, data=[81, 58]),
   midi.NoteOnEvent(tick=12, channel=0, data=[77, 0]),
   midi.NoteOnEvent(tick=228, channel=0, data=[77, 56]),
   midi.NoteOnEvent(tick=12, channel=0, data=[81, 0]),
   midi.NoteOnEvent(tick=228, channel=0, data=[76, 55]),
   midi.NoteOnEvent(tick=12, channel=0, data=[77, 0]),
   midi.NoteOnEvent(tick=228, channel=0, data=[74, 53]),
   midi.NoteOnEvent(tick=12, channel=0, data=[76, 0]),
   midi.NoteOnEvent(tick=228, channel=0, data=[72, 51]),
   midi.NoteOnEvent(tick=12, channel=0, data=[74, 0]),
   midi.NoteOnEvent(tick=228, channel=0, data=[71, 56]),
   midi.NoteOnEvent(tick=12, channel=0, data=[72, 0]),
   midi.NoteOnEvent(tick=468, channel=0, data=[71, 0]),
   midi.NoteOnEvent(tick=1080, channel=0, data=[72, 46]),
   midi.NoteOnEvent(tick=120, channel=0, data=[72, 0]),
   midi.NoteOnEvent(tick=0, channel=0, data=[71, 49]),
   midi.NoteOnEvent(tick=120, channel=0, data=[71, 0]),
   midi.NoteOnEvent(tick=0, channel=0, data=[72, 44]),
   midi.NoteOnEvent(tick=120, channel=0, data=[72, 0]),
   midi.NoteOnEvent(tick=0, channel=0, data=[74, 49]),
   midi.NoteOnEvent(tick=120, channel=0, data=[74, 0]),
   midi.NoteOnEvent(tick=0, channel=0, data=[72, 44]),
   midi.NoteOnEvent(tick=120, channel=0, data=[72, 0]),
   midi.NoteOnEvent(tick=0, channel=0, data=[71, 49]),
   midi.NoteOnEvent(tick=120, channel=0, data=[71, 0]),
   midi.NoteOnEvent(tick=0, channel=0, data=[72, 44]),
   midi.NoteOnEvent(tick=120, channel=0, data=[72, 0]),
   midi.NoteOnEvent(tick=120, channel=0, data=[72, 49]),
   midi.NoteOnEvent(tick=120, channel=0, data=[72, 0]),
   midi.NoteOnEvent(tick=0, channel=0, data=[76, 54]),
   midi.NoteOnEvent(tick=120, channel=0, data=[76, 0]),
   midi.NoteOnEvent(tick=0, channel=0, data=[72, 49]),
   midi.NoteOnEvent(tick=120, channel=0, data=[72, 0]),
   midi.NoteOnEvent(tick=120, channel=0, data=[72, 53]),
   midi.NoteOnEvent(tick=120, channel=0, data=[72, 0]),
   midi.NoteOnEvent(tick=0, channel=0, data=[77, 57]),
   midi.NoteOnEvent(tick=120, channel=0, data=[77, 0]),
   midi.NoteOnEvent(tick=0, channel=0, data=[72, 52]),
   midi.NoteOnEvent(tick=120, channel=0, data=[72, 0]),
   midi.NoteOnEvent(tick=120, channel=0, data=[72, 55]),
   midi.NoteOnEvent(tick=120, channel=0, data=[72, 0]),
   midi.NoteOnEvent(tick=0, channel=0, data=[82, 61]),
   midi.NoteOnEvent(tick=120, channel=0, data=[82, 0]),
   midi.NoteOnEvent(tick=0, channel=0, data=[72, 57]),
   midi.NoteOnEvent(tick=120, channel=0, data=[72, 0]),
   midi.NoteOnEvent(tick=120, channel=0, data=[72, 57]),
   midi.NoteOnEvent(tick=120, channel=0, data=[72, 0]),
   midi.NoteOnEvent(tick=0, channel=0, data=[81, 64]),
   midi.NoteOnEvent(tick=120, channel=0, data=[81, 0]),
   midi.NoteOnEvent(tick=0, channel=0, data=[72, 57]),
   midi.NoteOnEvent(tick=120, channel=0, data=[72, 0]),
   midi.NoteOnEvent(tick=0, channel=0, data=[79, 65]),
   midi.NoteOnEvent(tick=120, channel=0, data=[79, 0]),
   midi.NoteOnEvent(tick=0, channel=0, data=[76, 60]),
   midi.NoteOnEvent(tick=120, channel=0, data=[76, 0]),
   midi.NoteOnEvent(tick=0, channel=0, data=[74, 65]),
   midi.NoteOnEvent(tick=120, channel=0, data=[74, 0]),
   midi.NoteOnEvent(tick=0, channel=0, data=[72, 60]),
   midi.NoteOnEvent(tick=120, channel=0, data=[72, 0]),
   midi.NoteOnEvent(tick=0, channel=0, data=[71, 57]),
   midi.NoteOnEvent(tick=120, channel=0, data=[71, 0]),
   midi.NoteOnEvent(tick=0, channel=0, data=[72, 59]),
   midi.NoteOnEvent(tick=120, channel=0, data=[72, 0]),
   midi.NoteOnEvent(tick=0, channel=0, data=[74, 60]),
   midi.NoteOnEvent(tick=120, channel=0, data=[74, 0]),
   midi.NoteOnEvent(tick=0, channel=0, data=[72, 56]),
   midi.NoteOnEvent(tick=120, channel=0, data=[72, 0]),
   midi.NoteOnEvent(tick=120, channel=0, data=[72, 49]),
   midi.NoteOnEvent(tick=120, channel=0, data=[72, 0]),
   midi.NoteOnEvent(tick=0, channel=0, data=[76, 53]),
   midi.NoteOnEvent(tick=120, channel=0, data=[76, 0]),
   midi.NoteOnEvent(tick=0, channel=0, data=[72, 49]),
   midi.NoteOnEvent(tick=120, channel=0, data=[72, 0]),
   midi.NoteOnEvent(tick=120, channel=0, data=[72, 52]),
   midi.NoteOnEvent(tick=120, channel=0, data=[72, 0]),
   midi.NoteOnEvent(tick=0, channel=0, data=[77, 58]),
   midi.NoteOnEvent(tick=120, channel=0, data=[77, 0]),
   midi.NoteOnEvent(tick=0, channel=0, data=[72, 54]),
   midi.NoteOnEvent(tick=120, channel=0, data=[72, 0]),
   midi.NoteOnEvent(tick=120, channel=0, data=[72, 55]),
   midi.NoteOnEvent(tick=120, channel=0, data=[72, 0]),
   midi.NoteOnEvent(tick=0, channel=0, data=[82, 61]),
   midi.NoteOnEvent(tick=120, channel=0, data=[82, 0]),
   midi.NoteOnEvent(tick=0, channel=0, data=[72, 55]),
   midi.NoteOnEvent(tick=120, channel=0, data=[72, 0]),
   midi.NoteOnEvent(tick=120, channel=0, data=[72, 49]),
   midi.NoteOnEvent(tick=120, channel=0, data=[72, 0]),
   midi.NoteOnEvent(tick=0, channel=0, data=[81, 68]),
   midi.NoteOnEvent(tick=120, channel=0, data=[81, 0]),
   midi.NoteOnEvent(tick=0, channel=0, data=[72, 62]),
   midi.NoteOnEvent(tick=120, channel=0, data=[72, 0]),
   midi.NoteOnEvent(tick=0, channel=0, data=[79, 73]),
   midi.NoteOnEvent(tick=120, channel=0, data=[79, 0]),
   midi.NoteOnEvent(tick=0, channel=0, data=[84, 62]),
   midi.NoteOnEvent(tick=120, channel=0, data=[84, 0]),
   midi.NoteOnEvent(tick=0, channel=0, data=[79, 69]),
   midi.NoteOnEvent(tick=120, channel=0, data=[79, 0]),
   midi.NoteOnEvent(tick=0, channel=0, data=[76, 57]),
   midi.NoteOnEvent(tick=120, channel=0, data=[76, 0]),
   midi.NoteOnEvent(tick=0, channel=0, data=[72, 67]),
   midi.NoteOnEvent(tick=120, channel=0, data=[72, 0]),
   midi.NoteOnEvent(tick=0, channel=0, data=[79, 55]),
   midi.NoteOnEvent(tick=120, channel=0, data=[79, 0]),
   midi.NoteOnEvent(tick=0, channel=0, data=[76, 61]),
   midi.NoteOnEvent(tick=120, channel=0, data=[76, 0]),
   midi.NoteOnEvent(tick=0, channel=0, data=[72, 54]),
   midi.NoteOnEvent(tick=120, channel=0, data=[72, 0]),
   midi.NoteOnEvent(tick=0, channel=0, data=[67, 63]),
   midi.NoteOnEvent(tick=120, channel=0, data=[67, 0]),
   midi.NoteOnEvent(tick=0, channel=0, data=[72, 55]),
   midi.NoteOnEvent(tick=120, channel=0, data=[72, 0]),
   midi.NoteOnEvent(tick=0, channel=0, data=[67, 65]),
   midi.NoteOnEvent(tick=120, channel=0, data=[67, 0]),
   midi.NoteOnEvent(tick=0, channel=0, data=[64, 59]),
   midi.NoteOnEvent(tick=120, channel=0, data=[64, 0]),
   midi.NoteOnEvent(tick=0, channel=0, data=[60, 85]),
   midi.NoteOnEvent(tick=120, channel=0, data=[60, 0]),
   midi.NoteOnEvent(tick=360, channel=0, data=[67, 62]),
   midi.NoteOnEvent(tick=0, channel=0, data=[64, 62]),
   midi.NoteOnEvent(tick=0, channel=0, data=[72, 73]),
   midi.NoteOnEvent(tick=480, channel=0, data=[72, 0]),
   midi.NoteOnEvent(tick=0, channel=0, data=[64, 0]),
   midi.NoteOnEvent(tick=0, channel=0, data=[67, 0]),
   midi.NoteOnEvent(tick=3600, channel=0, data=[84, 45]),
   midi.NoteOnEvent(tick=60, channel=0, data=[84, 0]),
   midi.NoteOnEvent(tick=180, channel=0, data=[84, 49]),
   midi.NoteOnEvent(tick=60, channel=0, data=[84, 0]),
   midi.NoteOnEvent(tick=180, channel=0, data=[84, 43]),
   midi.NoteOnEvent(tick=60, channel=0, data=[84, 0]),
   midi.NoteOnEvent(tick=180, channel=0, data=[84, 46]),
   midi.NoteOnEvent(tick=60, channel=0, data=[84, 0]),
   midi.NoteOnEvent(tick=180, channel=0, data=[84, 40]),
   midi.NoteOnEvent(tick=60, channel=0, data=[84, 0]),
   midi.NoteOnEvent(tick=180, channel=0, data=[86, 45]),
   midi.NoteOnEvent(tick=240, channel=0, data=[84, 40]),
   midi.NoteOnEvent(tick=12, channel=0, data=[86, 0]),
   midi.NoteOnEvent(tick=228, channel=0, data=[82, 43]),
   midi.NoteOnEvent(tick=12, channel=0, data=[84, 0]),
   midi.NoteOnEvent(tick=228, channel=0, data=[81, 40]),
   midi.NoteOnEvent(tick=12, channel=0, data=[82, 0]),
   midi.NoteOnEvent(tick=228, channel=0, data=[79, 45]),
   midi.NoteOnEvent(tick=12, channel=0, data=[81, 0]),
   midi.NoteOnEvent(tick=228, channel=0, data=[77, 39]),
   midi.NoteOnEvent(tick=12, channel=0, data=[79, 0]),
   midi.NoteOnEvent(tick=228, channel=0, data=[77, 0]),
   midi.NoteOnEvent(tick=0, channel=0, data=[77, 41]),
   midi.NoteOnEvent(tick=60, channel=0, data=[77, 0]),
   midi.NoteOnEvent(tick=0, channel=0, data=[79, 39]),
   midi.NoteOnEvent(tick=60, channel=0, data=[79, 0]),
   midi.NoteOnEvent(tick=0, channel=0, data=[77, 49]),
   midi.NoteOnEvent(tick=120, channel=0, data=[77, 0]),
   midi.NoteOnEvent(tick=0, channel=0, data=[76, 44]),
   midi.NoteOnEvent(tick=232, channel=0, data=[76, 0]),
   midi.NoteOnEvent(tick=8, channel=0, data=[76, 46]),
   midi.NoteOnEvent(tick=480, channel=0, data=[76, 0]),
   midi.NoteOnEvent(tick=2160, channel=0, data=[82, 45]),
   midi.NoteOnEvent(tick=60, channel=0, data=[82, 0]),
   midi.NoteOnEvent(tick=180, channel=0, data=[82, 48]),
   midi.NoteOnEvent(tick=60, channel=0, data=[82, 0]),
   midi.NoteOnEvent(tick=180, channel=0, data=[82, 42]),
   midi.NoteOnEvent(tick=60, channel=0, data=[82, 0]),
   midi.NoteOnEvent(tick=180, channel=0, data=[82, 44]),
   midi.NoteOnEvent(tick=60, channel=0, data=[82, 0]),
   midi.NoteOnEvent(tick=180, channel=0, data=[82, 40]),
   midi.NoteOnEvent(tick=60, channel=0, data=[82, 0]),
   midi.NoteOnEvent(tick=180, channel=0, data=[84, 45]),
   midi.NoteOnEvent(tick=240, channel=0, data=[82, 40]),
   midi.NoteOnEvent(tick=12, channel=0, data=[84, 0]),
   midi.NoteOnEvent(tick=228, channel=0, data=[81, 40]),
   midi.NoteOnEvent(tick=12, channel=0, data=[82, 0]),
   midi.NoteOnEvent(tick=228, channel=0, data=[79, 40]),
   midi.NoteOnEvent(tick=12, channel=0, data=[81, 0]),
   midi.NoteOnEvent(tick=228, channel=0, data=[77, 45]),
   midi.NoteOnEvent(tick=12, channel=0, data=[79, 0]),
   midi.NoteOnEvent(tick=228, channel=0, data=[76, 39]),
   midi.NoteOnEvent(tick=12, channel=0, data=[77, 0]),
   midi.NoteOnEvent(tick=228, channel=0, data=[76, 0]),
   midi.NoteOnEvent(tick=0, channel=0, data=[77, 47]),
   midi.NoteOnEvent(tick=480, channel=0, data=[77, 0]),
   midi.NoteOnEvent(tick=240, channel=0, data=[81, 47]),
   midi.NoteOnEvent(tick=240, channel=0, data=[79, 45]),
   midi.NoteOnEvent(tick=12, channel=0, data=[81, 0]),
   midi.NoteOnEvent(tick=228, channel=0, data=[77, 40]),
   midi.NoteOnEvent(tick=12, channel=0, data=[79, 0]),
   midi.NoteOnEvent(tick=228, channel=0, data=[76, 47]),
   midi.NoteOnEvent(tick=12, channel=0, data=[77, 0]),
   midi.NoteOnEvent(tick=468, channel=0, data=[76, 0]),
   midi.NoteOnEvent(tick=240, channel=0, data=[86, 52]),
   midi.NoteOnEvent(tick=240, channel=0, data=[84, 47]),
   midi.NoteOnEvent(tick=12, channel=0, data=[86, 0]),
   midi.NoteOnEvent(tick=228, channel=0, data=[76, 42]),
   midi.NoteOnEvent(tick=12, channel=0, data=[84, 0]),
   midi.NoteOnEvent(tick=228, channel=0, data=[77, 47]),
   midi.NoteOnEvent(tick=12, channel=0, data=[76, 0]),
   midi.NoteOnEvent(tick=468, channel=0, data=[77, 0]),
   midi.NoteOnEvent(tick=240, channel=0, data=[81, 47]),
   midi.NoteOnEvent(tick=240, channel=0, data=[79, 45]),
   midi.NoteOnEvent(tick=12, channel=0, data=[81, 0]),
   midi.NoteOnEvent(tick=228, channel=0, data=[77, 40]),
   midi.NoteOnEvent(tick=12, channel=0, data=[79, 0]),
   midi.NoteOnEvent(tick=228, channel=0, data=[76, 47]),
   midi.NoteOnEvent(tick=12, channel=0, data=[77, 0]),
   midi.NoteOnEvent(tick=468, channel=0, data=[76, 0]),
   midi.NoteOnEvent(tick=240, channel=0, data=[86, 52]),
   midi.NoteOnEvent(tick=240, channel=0, data=[84, 47]),
   midi.NoteOnEvent(tick=12, channel=0, data=[86, 0]),
   midi.NoteOnEvent(tick=228, channel=0, data=[76, 42]),
   midi.NoteOnEvent(tick=12, channel=0, data=[84, 0]),
   midi.NoteOnEvent(tick=228, channel=0, data=[77, 47]),
   midi.NoteOnEvent(tick=12, channel=0, data=[76, 0]),
   midi.NoteOnEvent(tick=468, channel=0, data=[77, 0]),
   midi.NoteOnEvent(tick=240, channel=0, data=[84, 55]),
   midi.NoteOnEvent(tick=240, channel=0, data=[81, 53]),
   midi.NoteOnEvent(tick=12, channel=0, data=[84, 0]),
   midi.NoteOnEvent(tick=228, channel=0, data=[79, 50]),
   midi.NoteOnEvent(tick=12, channel=0, data=[81, 0]),
   midi.NoteOnEvent(tick=228, channel=0, data=[78, 56]),
   midi.NoteOnEvent(tick=12, channel=0, data=[79, 0]),
   midi.NoteOnEvent(tick=468, channel=0, data=[78, 0]),
   midi.NoteOnEvent(tick=240, channel=0, data=[87, 58]),
   midi.NoteOnEvent(tick=240, channel=0, data=[86, 52]),
   midi.NoteOnEvent(tick=12, channel=0, data=[87, 0]),
   midi.NoteOnEvent(tick=228, channel=0, data=[78, 48]),
   midi.NoteOnEvent(tick=12, channel=0, data=[86, 0]),
   midi.NoteOnEvent(tick=228, channel=0, data=[81, 56]),
   midi.NoteOnEvent(tick=12, channel=0, data=[78, 0]),
   midi.NoteOnEvent(tick=228, channel=0, data=[79, 51]),
   midi.NoteOnEvent(tick=12, channel=0, data=[81, 0]),
   midi.NoteOnEvent(tick=228, channel=0, data=[84, 55]),
   midi.NoteOnEvent(tick=12, channel=0, data=[79, 0]),
   midi.NoteOnEvent(tick=228, channel=0, data=[83, 51]),
   midi.NoteOnEvent(tick=12, channel=0, data=[84, 0]),
   midi.NoteOnEvent(tick=228, channel=0, data=[82, 50]),
   midi.NoteOnEvent(tick=12, channel=0, data=[83, 0]),
   midi.NoteOnEvent(tick=228, channel=0, data=[81, 49]),
   midi.NoteOnEvent(tick=12, channel=0, data=[82, 0]),
   midi.NoteOnEvent(tick=228, channel=0, data=[79, 54]),
   midi.NoteOnEvent(tick=12, channel=0, data=[81, 0]),
   midi.NoteOnEvent(tick=348, channel=0, data=[79, 0]),
   midi.NoteOnEvent(tick=0, channel=0, data=[81, 48]),
   midi.NoteOnEvent(tick=120, channel=0, data=[81, 0]),
   midi.NoteOnEvent(tick=0, channel=0, data=[77, 54]),
   midi.NoteOnEvent(tick=480, channel=0, data=[77, 0]),
   midi.NoteOnEvent(tick=0, channel=0, data=[76, 50]),
   midi.NoteOnEvent(tick=80, channel=0, data=[76, 0]),
   midi.NoteOnEvent(tick=0, channel=0, data=[77, 44]),
   midi.NoteOnEvent(tick=80, channel=0, data=[77, 0]),
   midi.NoteOnEvent(tick=0, channel=0, data=[76, 50]),
   midi.NoteOnEvent(tick=80, channel=0, data=[76, 0]),
   midi.NoteOnEvent(tick=0, channel=0, data=[77, 44]),
   midi.NoteOnEvent(tick=60, channel=0, data=[77, 0]),
   midi.NoteOnEvent(tick=0, channel=0, data=[76, 50]),
   midi.NoteOnEvent(tick=60, channel=0, data=[76, 0]),
   midi.NoteOnEvent(tick=0, channel=0, data=[74, 42]),
   midi.NoteOnEvent(tick=60, channel=0, data=[74, 0]),
   midi.NoteOnEvent(tick=0, channel=0, data=[76, 45]),
   midi.NoteOnEvent(tick=60, channel=0, data=[76, 0]),
   midi.NoteOnEvent(tick=0, channel=0, data=[77, 49]),
   midi.NoteOnEvent(tick=120, channel=0, data=[77, 0]),
   midi.NoteOnEvent(tick=0, channel=0, data=[72, 46]),
   midi.NoteOnEvent(tick=120, channel=0, data=[72, 0]),
   midi.NoteOnEvent(tick=0, channel=0, data=[71, 49]),
   midi.NoteOnEvent(tick=120, channel=0, data=[71, 0]),
   midi.NoteOnEvent(tick=0, channel=0, data=[72, 44]),
   midi.NoteOnEvent(tick=120, channel=0, data=[72, 0]),
   midi.NoteOnEvent(tick=0, channel=0, data=[74, 49]),
   midi.NoteOnEvent(tick=120, channel=0, data=[74, 0]),
   midi.NoteOnEvent(tick=0, channel=0, data=[72, 44]),
   midi.NoteOnEvent(tick=120, channel=0, data=[72, 0]),
   midi.NoteOnEvent(tick=0, channel=0, data=[71, 49]),
   midi.NoteOnEvent(tick=120, channel=0, data=[71, 0]),
   midi.NoteOnEvent(tick=0, channel=0, data=[72, 44]),
   midi.NoteOnEvent(tick=120, channel=0, data=[72, 0]),
   midi.NoteOnEvent(tick=0, channel=0, data=[70, 49]),
   midi.NoteOnEvent(tick=120, channel=0, data=[70, 0]),
   midi.NoteOnEvent(tick=0, channel=0, data=[72, 49]),
   midi.NoteOnEvent(tick=120, channel=0, data=[72, 0]),
   midi.NoteOnEvent(tick=0, channel=0, data=[69, 54]),
   midi.NoteOnEvent(tick=120, channel=0, data=[69, 0]),
   midi.NoteOnEvent(tick=0, channel=0, data=[72, 49]),
   midi.NoteOnEvent(tick=120, channel=0, data=[72, 0]),
   midi.NoteOnEvent(tick=0, channel=0, data=[67, 49]),
   midi.NoteOnEvent(tick=120, channel=0, data=[67, 0]),
   midi.NoteOnEvent(tick=0, channel=0, data=[72, 46]),
   midi.NoteOnEvent(tick=120, channel=0, data=[72, 0]),
   midi.NoteOnEvent(tick=0, channel=0, data=[71, 49]),
   midi.NoteOnEvent(tick=120, channel=0, data=[71, 0]),
   midi.NoteOnEvent(tick=0, channel=0, data=[72, 44]),
   midi.NoteOnEvent(tick=120, channel=0, data=[72, 0]),
   midi.NoteOnEvent(tick=0, channel=0, data=[74, 49]),
   midi.NoteOnEvent(tick=120, channel=0, data=[74, 0]),
   midi.NoteOnEvent(tick=0, channel=0, data=[72, 44]),
   midi.NoteOnEvent(tick=120, channel=0, data=[72, 0]),
   midi.NoteOnEvent(tick=0, channel=0, data=[71, 49]),
   midi.NoteOnEvent(tick=120, channel=0, data=[71, 0]),
   midi.NoteOnEvent(tick=0, channel=0, data=[72, 44]),
   midi.NoteOnEvent(tick=120, channel=0, data=[72, 0]),
   midi.NoteOnEvent(tick=0, channel=0, data=[82, 49]),
   midi.NoteOnEvent(tick=120, channel=0, data=[82, 0]),
   midi.NoteOnEvent(tick=0, channel=0, data=[72, 49]),
   midi.NoteOnEvent(tick=120, channel=0, data=[72, 0]),
   midi.NoteOnEvent(tick=0, channel=0, data=[82, 54]),
   midi.NoteOnEvent(tick=120, channel=0, data=[82, 0]),
   midi.NoteOnEvent(tick=0, channel=0, data=[72, 49]),
   midi.NoteOnEvent(tick=120, channel=0, data=[72, 0]),
   midi.NoteOnEvent(tick=0, channel=0, data=[81, 49]),
   midi.NoteOnEvent(tick=120, channel=0, data=[81, 0]),
   midi.NoteOnEvent(tick=0, channel=0, data=[72, 46]),
   midi.NoteOnEvent(tick=120, channel=0, data=[72, 0]),
   midi.NoteOnEvent(tick=0, channel=0, data=[71, 49]),
   midi.NoteOnEvent(tick=120, channel=0, data=[71, 0]),
   midi.NoteOnEvent(tick=0, channel=0, data=[72, 44]),
   midi.NoteOnEvent(tick=120, channel=0, data=[72, 0]),
   midi.NoteOnEvent(tick=0, channel=0, data=[74, 49]),
   midi.NoteOnEvent(tick=120, channel=0, data=[74, 0]),
   midi.NoteOnEvent(tick=0, channel=0, data=[72, 44]),
   midi.NoteOnEvent(tick=120, channel=0, data=[72, 0]),
   midi.NoteOnEvent(tick=0, channel=0, data=[71, 49]),
   midi.NoteOnEvent(tick=120, channel=0, data=[71, 0]),
   midi.NoteOnEvent(tick=0, channel=0, data=[72, 44]),
   midi.NoteOnEvent(tick=120, channel=0, data=[72, 0]),
   midi.NoteOnEvent(tick=0, channel=0, data=[70, 49]),
   midi.NoteOnEvent(tick=120, channel=0, data=[70, 0]),
   midi.NoteOnEvent(tick=0, channel=0, data=[72, 49]),
   midi.NoteOnEvent(tick=120, channel=0, data=[72, 0]),
   midi.NoteOnEvent(tick=0, channel=0, data=[69, 54]),
   midi.NoteOnEvent(tick=120, channel=0, data=[69, 0]),
   midi.NoteOnEvent(tick=0, channel=0, data=[72, 49]),
   midi.NoteOnEvent(tick=120, channel=0, data=[72, 0]),
   midi.NoteOnEvent(tick=0, channel=0, data=[67, 49]),
   midi.NoteOnEvent(tick=120, channel=0, data=[67, 0]),
   midi.NoteOnEvent(tick=0, channel=0, data=[72, 46]),
   midi.NoteOnEvent(tick=120, channel=0, data=[72, 0]),
   midi.NoteOnEvent(tick=0, channel=0, data=[71, 49]),
   midi.NoteOnEvent(tick=120, channel=0, data=[71, 0]),
   midi.NoteOnEvent(tick=0, channel=0, data=[72, 44]),
   midi.NoteOnEvent(tick=120, channel=0, data=[72, 0]),
   midi.NoteOnEvent(tick=0, channel=0, data=[74, 49]),
   midi.NoteOnEvent(tick=120, channel=0, data=[74, 0]),
   midi.NoteOnEvent(tick=0, channel=0, data=[72, 44]),
   midi.NoteOnEvent(tick=120, channel=0, data=[72, 0]),
   midi.NoteOnEvent(tick=0, channel=0, data=[71, 49]),
   midi.NoteOnEvent(tick=120, channel=0, data=[71, 0]),
   midi.NoteOnEvent(tick=0, channel=0, data=[72, 44]),
   midi.NoteOnEvent(tick=120, channel=0, data=[72, 0]),
   midi.NoteOnEvent(tick=0, channel=0, data=[82, 49]),
   midi.NoteOnEvent(tick=120, channel=0, data=[82, 0]),
   midi.NoteOnEvent(tick=0, channel=0, data=[72, 49]),
   midi.NoteOnEvent(tick=120, channel=0, data=[72, 0]),
   midi.NoteOnEvent(tick=0, channel=0, data=[82, 54]),
   midi.NoteOnEvent(tick=120, channel=0, data=[82, 0]),
   midi.NoteOnEvent(tick=0, channel=0, data=[72, 49]),
   midi.NoteOnEvent(tick=120, channel=0, data=[72, 0]),
   midi.NoteOnEvent(tick=0, channel=0, data=[81, 49]),
   midi.NoteOnEvent(tick=120, channel=0, data=[81, 0]),
   midi.NoteOnEvent(tick=0, channel=0, data=[72, 46]),
   midi.NoteOnEvent(tick=120, channel=0, data=[72, 0]),
   midi.NoteOnEvent(tick=0, channel=0, data=[71, 49]),
   midi.NoteOnEvent(tick=120, channel=0, data=[71, 0]),
   midi.NoteOnEvent(tick=0, channel=0, data=[72, 44]),
   midi.NoteOnEvent(tick=120, channel=0, data=[72, 0]),
   midi.NoteOnEvent(tick=0, channel=0, data=[74, 49]),
   midi.NoteOnEvent(tick=120, channel=0, data=[74, 0]),
   midi.NoteOnEvent(tick=0, channel=0, data=[72, 44]),
   midi.NoteOnEvent(tick=120, channel=0, data=[72, 0]),
   midi.NoteOnEvent(tick=0, channel=0, data=[71, 49]),
   midi.NoteOnEvent(tick=120, channel=0, data=[71, 0]),
   midi.NoteOnEvent(tick=0, channel=0, data=[72, 44]),
   midi.NoteOnEvent(tick=120, channel=0, data=[72, 0]),
   midi.NoteOnEvent(tick=0, channel=0, data=[75, 49]),
   midi.NoteOnEvent(tick=120, channel=0, data=[75, 0]),
   midi.NoteOnEvent(tick=0, channel=0, data=[72, 49]),
   midi.NoteOnEvent(tick=120, channel=0, data=[72, 0]),
   midi.NoteOnEvent(tick=0, channel=0, data=[70, 54]),
   midi.NoteOnEvent(tick=120, channel=0, data=[70, 0]),
   midi.NoteOnEvent(tick=0, channel=0, data=[72, 49]),
   midi.NoteOnEvent(tick=120, channel=0, data=[72, 0]),
   midi.NoteOnEvent(tick=0, channel=0, data=[69, 49]),
   midi.NoteOnEvent(tick=120, channel=0, data=[69, 0]),
   midi.NoteOnEvent(tick=0, channel=0, data=[74, 46]),
   midi.NoteOnEvent(tick=120, channel=0, data=[74, 0]),
   midi.NoteOnEvent(tick=0, channel=0, data=[73, 49]),
   midi.NoteOnEvent(tick=120, channel=0, data=[73, 0]),
   midi.NoteOnEvent(tick=0, channel=0, data=[74, 44]),
   midi.NoteOnEvent(tick=120, channel=0, data=[74, 0]),
   midi.NoteOnEvent(tick=0, channel=0, data=[76, 49]),
   midi.NoteOnEvent(tick=120, channel=0, data=[76, 0]),
   midi.NoteOnEvent(tick=0, channel=0, data=[74, 44]),
   midi.NoteOnEvent(tick=120, channel=0, data=[74, 0]),
   midi.NoteOnEvent(tick=0, channel=0, data=[73, 52]),
   midi.NoteOnEvent(tick=120, channel=0, data=[73, 0]),
   midi.NoteOnEvent(tick=0, channel=0, data=[74, 44]),
   midi.NoteOnEvent(tick=120, channel=0, data=[74, 0]),
   midi.NoteOnEvent(tick=0, channel=0, data=[84, 55]),
   midi.NoteOnEvent(tick=120, channel=0, data=[84, 0]),
   midi.NoteOnEvent(tick=0, channel=0, data=[74, 49]),
   midi.NoteOnEvent(tick=120, channel=0, data=[74, 0]),
   midi.NoteOnEvent(tick=0, channel=0, data=[84, 57]),
   midi.NoteOnEvent(tick=120, channel=0, data=[84, 0]),
   midi.NoteOnEvent(tick=0, channel=0, data=[74, 49]),
   midi.NoteOnEvent(tick=120, channel=0, data=[74, 0]),
   midi.NoteOnEvent(tick=0, channel=0, data=[83, 62]),
   midi.NoteOnEvent(tick=480, channel=0, data=[83, 0]),
   midi.NoteOnEvent(tick=0, channel=0, data=[82, 60]),
   midi.NoteOnEvent(tick=480, channel=0, data=[82, 0]),
   midi.NoteOnEvent(tick=0, channel=0, data=[81, 57]),
   midi.NoteOnEvent(tick=480, channel=0, data=[81, 0]),
   midi.NoteOnEvent(tick=0, channel=0, data=[79, 60]),
   midi.NoteOnEvent(tick=120, channel=0, data=[79, 0]),
   midi.NoteOnEvent(tick=0, channel=0, data=[86, 52]),
   midi.NoteOnEvent(tick=120, channel=0, data=[86, 0]),
   midi.NoteOnEvent(tick=0, channel=0, data=[82, 52]),
   midi.NoteOnEvent(tick=120, channel=0, data=[82, 0]),
   midi.NoteOnEvent(tick=0, channel=0, data=[79, 52]),
   midi.NoteOnEvent(tick=120, channel=0, data=[79, 0]),
   midi.NoteOnEvent(tick=0, channel=0, data=[77, 62]),
   midi.NoteOnEvent(tick=120, channel=0, data=[77, 0]),
   midi.NoteOnEvent(tick=0, channel=0, data=[84, 52]),
   midi.NoteOnEvent(tick=120, channel=0, data=[84, 0]),
   midi.NoteOnEvent(tick=0, channel=0, data=[81, 52]),
   midi.NoteOnEvent(tick=120, channel=0, data=[81, 0]),
   midi.NoteOnEvent(tick=0, channel=0, data=[77, 52]),
   midi.NoteOnEvent(tick=120, channel=0, data=[77, 0]),
   midi.NoteOnEvent(tick=0, channel=0, data=[76, 62]),
   midi.NoteOnEvent(tick=120, channel=0, data=[76, 0]),
   midi.NoteOnEvent(tick=0, channel=0, data=[82, 52]),
   midi.NoteOnEvent(tick=120, channel=0, data=[82, 0]),
   midi.NoteOnEvent(tick=0, channel=0, data=[79, 52]),
   midi.NoteOnEvent(tick=120, channel=0, data=[79, 0]),
   midi.NoteOnEvent(tick=0, channel=0, data=[76, 52]),
   midi.NoteOnEvent(tick=120, channel=0, data=[76, 0]),
   midi.NoteOnEvent(tick=0, channel=0, data=[77, 54]),
   midi.NoteOnEvent(tick=120, channel=0, data=[81, 57]),
   midi.NoteOnEvent(tick=12, channel=0, data=[77, 0]),
   midi.NoteOnEvent(tick=108, channel=0, data=[84, 61]),
   midi.NoteOnEvent(tick=12, channel=0, data=[81, 0]),
   midi.NoteOnEvent(tick=108, channel=0, data=[82, 60]),
   midi.NoteOnEvent(tick=12, channel=0, data=[84, 0]),
   midi.NoteOnEvent(tick=108, channel=0, data=[81, 58]),
   midi.NoteOnEvent(tick=12, channel=0, data=[82, 0]),
   midi.NoteOnEvent(tick=108, channel=0, data=[79, 56]),
   midi.NoteOnEvent(tick=12, channel=0, data=[81, 0]),
   midi.NoteOnEvent(tick=108, channel=0, data=[77, 54]),
   midi.NoteOnEvent(tick=12, channel=0, data=[79, 0]),
   midi.NoteOnEvent(tick=108, channel=0, data=[76, 52]),
   midi.NoteOnEvent(tick=12, channel=0, data=[77, 0]),
   midi.NoteOnEvent(tick=108, channel=0, data=[74, 55]),
   midi.NoteOnEvent(tick=12, channel=0, data=[76, 0]),
   midi.NoteOnEvent(tick=108, channel=0, data=[72, 51]),
   midi.NoteOnEvent(tick=12, channel=0, data=[74, 0]),
   midi.NoteOnEvent(tick=108, channel=0, data=[70, 50]),
   midi.NoteOnEvent(tick=12, channel=0, data=[72, 0]),
   midi.NoteOnEvent(tick=108, channel=0, data=[69, 50]),
   midi.NoteOnEvent(tick=12, channel=0, data=[70, 0]),
   midi.NoteOnEvent(tick=108, channel=0, data=[69, 0]),
   midi.NoteOnEvent(tick=0, channel=0, data=[67, 50]),
   midi.NoteOnEvent(tick=120, channel=0, data=[70, 53]),
   midi.NoteOnEvent(tick=12, channel=0, data=[67, 0]),
   midi.NoteOnEvent(tick=108, channel=0, data=[74, 56]),
   midi.NoteOnEvent(tick=12, channel=0, data=[70, 0]),
   midi.NoteOnEvent(tick=108, channel=0, data=[72, 55]),
   midi.NoteOnEvent(tick=12, channel=0, data=[74, 0]),
   midi.NoteOnEvent(tick=108, channel=0, data=[70, 54]),
   midi.NoteOnEvent(tick=12, channel=0, data=[72, 0]),
   midi.NoteOnEvent(tick=108, channel=0, data=[69, 53]),
   midi.NoteOnEvent(tick=12, channel=0, data=[70, 0]),
   midi.NoteOnEvent(tick=108, channel=0, data=[67, 52]),
   midi.NoteOnEvent(tick=12, channel=0, data=[69, 0]),
   midi.NoteOnEvent(tick=108, channel=0, data=[65, 50]),
   midi.NoteOnEvent(tick=12, channel=0, data=[67, 0]),
   midi.NoteOnEvent(tick=108, channel=0, data=[64, 49]),
   midi.NoteOnEvent(tick=12, channel=0, data=[65, 0]),
   midi.NoteOnEvent(tick=108, channel=0, data=[62, 50]),
   midi.NoteOnEvent(tick=12, channel=0, data=[64, 0]),
   midi.NoteOnEvent(tick=108, channel=0, data=[60, 53]),
   midi.NoteOnEvent(tick=12, channel=0, data=[62, 0]),
   midi.NoteOnEvent(tick=108, channel=0, data=[59, 56]),
   midi.NoteOnEvent(tick=12, channel=0, data=[60, 0]),
   midi.NoteOnEvent(tick=108, channel=0, data=[60, 59]),
   midi.NoteOnEvent(tick=12, channel=0, data=[59, 0]),
   midi.NoteOnEvent(tick=108, channel=0, data=[60, 0]),
   midi.NoteOnEvent(tick=120, channel=0, data=[72, 59]),
   midi.NoteOnEvent(tick=120, channel=0, data=[72, 0]),
   midi.NoteOnEvent(tick=120, channel=0, data=[77, 61]),
   midi.NoteOnEvent(tick=120, channel=0, data=[77, 0]),
   midi.NoteOnEvent(tick=120, channel=0, data=[81, 62]),
   midi.NoteOnEvent(tick=120, channel=0, data=[81, 0]),
   midi.NoteOnEvent(tick=120, channel=0, data=[84, 64]),
   midi.NoteOnEvent(tick=120, channel=0, data=[84, 0]),
   midi.NoteOnEvent(tick=120, channel=0, data=[89, 65]),
   midi.NoteOnEvent(tick=120, channel=0, data=[89, 0]),
   midi.NoteOnEvent(tick=120, channel=0, data=[79, 37]),
   midi.NoteOnEvent(tick=60, channel=0, data=[79, 0]),
   midi.NoteOnEvent(tick=0, channel=0, data=[81, 31]),
   midi.NoteOnEvent(tick=60, channel=0, data=[81, 0]),
   midi.NoteOnEvent(tick=0, channel=0, data=[79, 37]),
   midi.NoteOnEvent(tick=60, channel=0, data=[79, 0]),
   midi.NoteOnEvent(tick=0, channel=0, data=[81, 31]),
   midi.NoteOnEvent(tick=60, channel=0, data=[81, 0]),
   midi.NoteOnEvent(tick=0, channel=0, data=[79, 37]),
   midi.NoteOnEvent(tick=60, channel=0, data=[79, 0]),
   midi.NoteOnEvent(tick=0, channel=0, data=[81, 32]),
   midi.NoteOnEvent(tick=60, channel=0, data=[81, 0]),
   midi.NoteOnEvent(tick=0, channel=0, data=[79, 37]),
   midi.NoteOnEvent(tick=60, channel=0, data=[79, 0]),
   midi.NoteOnEvent(tick=0, channel=0, data=[81, 33]),
   midi.NoteOnEvent(tick=60, channel=0, data=[81, 0]),
   midi.NoteOnEvent(tick=0, channel=0, data=[79, 37]),
   midi.NoteOnEvent(tick=60, channel=0, data=[79, 0]),
   midi.NoteOnEvent(tick=0, channel=0, data=[81, 32]),
   midi.NoteOnEvent(tick=60, channel=0, data=[81, 0]),
   midi.NoteOnEvent(tick=0, channel=0, data=[79, 37]),
   midi.NoteOnEvent(tick=60, channel=0, data=[79, 0]),
   midi.NoteOnEvent(tick=0, channel=0, data=[81, 32]),
   midi.NoteOnEvent(tick=60, channel=0, data=[81, 0]),
   midi.NoteOnEvent(tick=0, channel=0, data=[79, 37]),
   midi.NoteOnEvent(tick=60, channel=0, data=[79, 0]),
   midi.NoteOnEvent(tick=0, channel=0, data=[81, 31]),
   midi.NoteOnEvent(tick=60, channel=0, data=[81, 0]),
   midi.NoteOnEvent(tick=0, channel=0, data=[79, 37]),
   midi.NoteOnEvent(tick=60, channel=0, data=[79, 0]),
   midi.NoteOnEvent(tick=0, channel=0, data=[81, 33]),
   midi.NoteOnEvent(tick=60, channel=0, data=[81, 0]),
   midi.NoteOnEvent(tick=0, channel=0, data=[79, 37]),
   midi.NoteOnEvent(tick=60, channel=0, data=[79, 0]),
   midi.NoteOnEvent(tick=0, channel=0, data=[81, 32]),
   midi.NoteOnEvent(tick=60, channel=0, data=[81, 0]),
   midi.NoteOnEvent(tick=0, channel=0, data=[79, 37]),
   midi.NoteOnEvent(tick=80, channel=0, data=[79, 0]),
   midi.NoteOnEvent(tick=0, channel=0, data=[81, 32]),
   midi.NoteOnEvent(tick=80, channel=0, data=[81, 0]),
   midi.NoteOnEvent(tick=0, channel=0, data=[79, 37]),
   midi.NoteOnEvent(tick=80, channel=0, data=[79, 0]),
   midi.NoteOnEvent(tick=0, channel=0, data=[77, 33]),
   midi.NoteOnEvent(tick=60, channel=0, data=[77, 0]),
   midi.NoteOnEvent(tick=0, channel=0, data=[79, 33]),
   midi.NoteOnEvent(tick=60, channel=0, data=[79, 0]),
   midi.NoteOnEvent(tick=0, channel=0, data=[77, 49]),
   midi.NoteOnEvent(tick=480, channel=0, data=[77, 0]),
   midi.NoteOnEvent(tick=960, channel=0, data=[82, 46]),
   midi.NoteOnEvent(tick=480, channel=0, data=[82, 0]),
   midi.NoteOnEvent(tick=0, channel=0, data=[84, 50]),
   midi.NoteOnEvent(tick=480, channel=0, data=[84, 0]),
   midi.NoteOnEvent(tick=0, channel=0, data=[86, 51]),
   midi.NoteOnEvent(tick=480, channel=0, data=[86, 0]),
   midi.NoteOnEvent(tick=0, channel=0, data=[84, 51]),
   midi.NoteOnEvent(tick=720, channel=0, data=[84, 0]),
   midi.NoteOnEvent(tick=0, channel=0, data=[86, 48]),
   midi.NoteOnEvent(tick=120, channel=0, data=[84, 43]),
   midi.NoteOnEvent(tick=12, channel=0, data=[86, 0]),
   midi.NoteOnEvent(tick=108, channel=0, data=[82, 50]),
   midi.NoteOnEvent(tick=12, channel=0, data=[84, 0]),
   midi.NoteOnEvent(tick=108, channel=0, data=[81, 48]),
   midi.NoteOnEvent(tick=12, channel=0, data=[82, 0]),
   midi.NoteOnEvent(tick=108, channel=0, data=[79, 47]),
   midi.NoteOnEvent(tick=12, channel=0, data=[81, 0]),
   midi.NoteOnEvent(tick=108, channel=0, data=[77, 45]),
   midi.NoteOnEvent(tick=12, channel=0, data=[79, 0]),
   midi.NoteOnEvent(tick=108, channel=0, data=[77, 0]),
   midi.NoteOnEvent(tick=0, channel=0, data=[81, 48]),
   midi.NoteOnEvent(tick=720, channel=0, data=[81, 0]),
   midi.NoteOnEvent(tick=0, channel=0, data=[82, 40]),
   midi.NoteOnEvent(tick=240, channel=0, data=[82, 0]),
   midi.NoteOnEvent(tick=0, channel=0, data=[79, 44]),
   midi.NoteOnEvent(tick=480, channel=0, data=[79, 0]),
   midi.NoteOnEvent(tick=0, channel=0, data=[77, 46]),
   midi.NoteOnEvent(tick=480, channel=0, data=[77, 0]),
   midi.NoteOnEvent(tick=960, channel=0, data=[70, 52]),
   midi.NoteOnEvent(tick=240, channel=0, data=[70, 0]),
   midi.NoteOnEvent(tick=0, channel=0, data=[82, 47]),
   midi.NoteOnEvent(tick=240, channel=0, data=[82, 0]),
   midi.NoteOnEvent(tick=0, channel=0, data=[72, 54]),
   midi.NoteOnEvent(tick=240, channel=0, data=[72, 0]),
   midi.NoteOnEvent(tick=0, channel=0, data=[84, 47]),
   midi.NoteOnEvent(tick=240, channel=0, data=[84, 0]),
   midi.NoteOnEvent(tick=0, channel=0, data=[74, 58]),
   midi.NoteOnEvent(tick=240, channel=0, data=[74, 0]),
   midi.NoteOnEvent(tick=0, channel=0, data=[86, 52]),
   midi.NoteOnEvent(tick=240, channel=0, data=[86, 0]),
   midi.NoteOnEvent(tick=0, channel=0, data=[84, 61]),
   midi.NoteOnEvent(tick=240, channel=0, data=[84, 0]),
   midi.NoteOnEvent(tick=0, channel=0, data=[86, 54]),
   midi.NoteOnEvent(tick=120, channel=0, data=[88, 58]),
   midi.NoteOnEvent(tick=12, channel=0, data=[86, 0]),
   midi.NoteOnEvent(tick=108, channel=0, data=[89, 61]),
   midi.NoteOnEvent(tick=12, channel=0, data=[88, 0]),
   midi.NoteOnEvent(tick=108, channel=0, data=[88, 61]),
   midi.NoteOnEvent(tick=12, channel=0, data=[89, 0]),
   midi.NoteOnEvent(tick=108, channel=0, data=[86, 60]),
   midi.NoteOnEvent(tick=12, channel=0, data=[88, 0]),
   midi.NoteOnEvent(tick=108, channel=0, data=[84, 58]),
   midi.NoteOnEvent(tick=12, channel=0, data=[86, 0]),
   midi.NoteOnEvent(tick=108, channel=0, data=[82, 57]),
   midi.NoteOnEvent(tick=12, channel=0, data=[84, 0]),
   midi.NoteOnEvent(tick=108, channel=0, data=[81, 55]),
   midi.NoteOnEvent(tick=12, channel=0, data=[82, 0]),
   midi.NoteOnEvent(tick=108, channel=0, data=[79, 54]),
   midi.NoteOnEvent(tick=12, channel=0, data=[81, 0]),
   midi.NoteOnEvent(tick=108, channel=0, data=[77, 52]),
   midi.NoteOnEvent(tick=12, channel=0, data=[79, 0]),
   midi.NoteOnEvent(tick=108, channel=0, data=[77, 0]),
   midi.NoteOnEvent(tick=0, channel=0, data=[81, 62]),
   midi.NoteOnEvent(tick=720, channel=0, data=[81, 0]),
   midi.NoteOnEvent(tick=0, channel=0, data=[82, 56]),
   midi.NoteOnEvent(tick=240, channel=0, data=[82, 0]),
   midi.NoteOnEvent(tick=0, channel=0, data=[79, 62]),
   midi.NoteOnEvent(tick=480, channel=0, data=[79, 0]),
   midi.NoteOnEvent(tick=0, channel=0, data=[77, 67]),
   midi.NoteOnEvent(tick=480, channel=0, data=[77, 0]),
   midi.NoteOnEvent(tick=120, channel=0, data=[84, 60]),
   midi.NoteOnEvent(tick=120, channel=0, data=[84, 0]),
   midi.NoteOnEvent(tick=0, channel=0, data=[86, 65]),
   midi.NoteOnEvent(tick=120, channel=0, data=[84, 60]),
   midi.NoteOnEvent(tick=12, channel=0, data=[86, 0]),
   midi.NoteOnEvent(tick=108, channel=0, data=[82, 64]),
   midi.NoteOnEvent(tick=12, channel=0, data=[84, 0]),
   midi.NoteOnEvent(tick=108, channel=0, data=[81, 62]),
   midi.NoteOnEvent(tick=12, channel=0, data=[82, 0]),
   midi.NoteOnEvent(tick=108, channel=0, data=[82, 60]),
   midi.NoteOnEvent(tick=12, channel=0, data=[81, 0]),
   midi.NoteOnEvent(tick=108, channel=0, data=[79, 58]),
   midi.NoteOnEvent(tick=12, channel=0, data=[82, 0]),
   midi.NoteOnEvent(tick=108, channel=0, data=[77, 68]),
   midi.NoteOnEvent(tick=12, channel=0, data=[79, 0]),
   midi.NoteOnEvent(tick=468, channel=0, data=[77, 0]),
   midi.NoteOnEvent(tick=120, channel=0, data=[72, 60]),
   midi.NoteOnEvent(tick=120, channel=0, data=[74, 65]),
   midi.NoteOnEvent(tick=12, channel=0, data=[72, 0]),
   midi.NoteOnEvent(tick=108, channel=0, data=[72, 60]),
   midi.NoteOnEvent(tick=12, channel=0, data=[74, 0]),
   midi.NoteOnEvent(tick=108, channel=0, data=[70, 64]),
   midi.NoteOnEvent(tick=12, channel=0, data=[72, 0]),
   midi.NoteOnEvent(tick=108, channel=0, data=[69, 62]),
   midi.NoteOnEvent(tick=12, channel=0, data=[70, 0]),
   midi.NoteOnEvent(tick=108, channel=0, data=[70, 60]),
   midi.NoteOnEvent(tick=12, channel=0, data=[69, 0]),
   midi.NoteOnEvent(tick=108, channel=0, data=[67, 58]),
   midi.NoteOnEvent(tick=12, channel=0, data=[70, 0]),
   midi.NoteOnEvent(tick=108, channel=0, data=[65, 71]),
   midi.NoteOnEvent(tick=12, channel=0, data=[67, 0]),
   midi.NoteOnEvent(tick=108, channel=0, data=[65, 0]),
   midi.NoteOnEvent(tick=360, channel=0, data=[69, 59]),
   midi.NoteOnEvent(tick=0, channel=0, data=[72, 59]),
   midi.NoteOnEvent(tick=0, channel=0, data=[77, 77]),
   midi.NoteOnEvent(tick=480, channel=0, data=[77, 0]),
   midi.NoteOnEvent(tick=0, channel=0, data=[72, 0]),
   midi.NoteOnEvent(tick=0, channel=0, data=[69, 0]),
   midi.NoteOnEvent(tick=480, channel=0, data=[70, 50]),
   midi.NoteOnEvent(tick=960, channel=0, data=[70, 0]),
   midi.NoteOnEvent(tick=0, channel=0, data=[65, 45]),
   midi.NoteOnEvent(tick=480, channel=0, data=[65, 0]),
   midi.NoteOnEvent(tick=0, channel=0, data=[62, 50]),
   midi.NoteOnEvent(tick=960, channel=0, data=[62, 0]),
   midi.NoteOnEvent(tick=0, channel=0, data=[65, 48]),
   midi.NoteOnEvent(tick=480, channel=0, data=[65, 0]),
   midi.NoteOnEvent(tick=0, channel=0, data=[70, 52]),
   midi.NoteOnEvent(tick=960, channel=0, data=[70, 0]),
   midi.NoteOnEvent(tick=0, channel=0, data=[74, 54]),
   midi.NoteOnEvent(tick=480, channel=0, data=[74, 0]),
   midi.NoteOnEvent(tick=0, channel=0, data=[77, 57]),
   midi.NoteOnEvent(tick=960, channel=0, data=[77, 0]),
   midi.NoteOnEvent(tick=0, channel=0, data=[82, 58]),
   midi.NoteOnEvent(tick=240, channel=0, data=[82, 0]),
   midi.NoteOnEvent(tick=0, channel=0, data=[74, 51]),
   midi.NoteOnEvent(tick=240, channel=0, data=[74, 0]),
   midi.NoteOnEvent(tick=0, channel=0, data=[77, 56]),
   midi.NoteOnEvent(tick=240, channel=0, data=[75, 52]),
   midi.NoteOnEvent(tick=12, channel=0, data=[77, 0]),
   midi.NoteOnEvent(tick=228, channel=0, data=[74, 51]),
   midi.NoteOnEvent(tick=12, channel=0, data=[75, 0]),
   midi.NoteOnEvent(tick=228, channel=0, data=[72, 49]),
   midi.NoteOnEvent(tick=12, channel=0, data=[74, 0]),
   midi.NoteOnEvent(tick=228, channel=0, data=[70, 48]),
   midi.NoteOnEvent(tick=12, channel=0, data=[72, 0]),
   midi.NoteOnEvent(tick=228, channel=0, data=[69, 47]),
   midi.NoteOnEvent(tick=12, channel=0, data=[70, 0]),
   midi.NoteOnEvent(tick=228, channel=0, data=[69, 0]),
   midi.NoteOnEvent(tick=0, channel=0, data=[67, 50]),
   midi.NoteOnEvent(tick=240, channel=0, data=[65, 44]),
   midi.NoteOnEvent(tick=12, channel=0, data=[67, 0]),
   midi.NoteOnEvent(tick=228, channel=0, data=[64, 44]),
   midi.NoteOnEvent(tick=12, channel=0, data=[65, 0]),
   midi.NoteOnEvent(tick=228, channel=0, data=[65, 45]),
   midi.NoteOnEvent(tick=12, channel=0, data=[64, 0]),
   midi.NoteOnEvent(tick=228, channel=0, data=[67, 47]),
   midi.NoteOnEvent(tick=12, channel=0, data=[65, 0]),
   midi.NoteOnEvent(tick=228, channel=0, data=[69, 50]),
   midi.NoteOnEvent(tick=12, channel=0, data=[67, 0]),
   midi.NoteOnEvent(tick=228, channel=0, data=[69, 0]),
   midi.NoteOnEvent(tick=0, channel=0, data=[70, 50]),
   midi.NoteOnEvent(tick=60, channel=0, data=[70, 0]),
   midi.NoteOnEvent(tick=120, channel=0, data=[72, 45]),
   midi.NoteOnEvent(tick=60, channel=0, data=[72, 0]),
   midi.NoteOnEvent(tick=0, channel=0, data=[70, 49]),
   midi.NoteOnEvent(tick=120, channel=0, data=[70, 0]),
   midi.NoteOnEvent(tick=0, channel=0, data=[69, 46]),
   midi.NoteOnEvent(tick=120, channel=0, data=[69, 0]),
   midi.NoteOnEvent(tick=0, channel=0, data=[70, 50]),
   midi.NoteOnEvent(tick=60, channel=0, data=[70, 0]),
   midi.NoteOnEvent(tick=180, channel=0, data=[72, 47]),
   midi.NoteOnEvent(tick=60, channel=0, data=[72, 0]),
   midi.NoteOnEvent(tick=180, channel=0, data=[74, 49]),
   midi.NoteOnEvent(tick=60, channel=0, data=[74, 0]),
   midi.NoteOnEvent(tick=180, channel=0, data=[75, 51]),
   midi.NoteOnEvent(tick=60, channel=0, data=[75, 0]),
   midi.NoteOnEvent(tick=180, channel=0, data=[76, 53]),
   midi.NoteOnEvent(tick=240, channel=0, data=[77, 50]),
   midi.NoteOnEvent(tick=12, channel=0, data=[76, 0]),
   midi.NoteOnEvent(tick=228, channel=0, data=[79, 55]),
   midi.NoteOnEvent(tick=12, channel=0, data=[77, 0]),
   midi.NoteOnEvent(tick=228, channel=0, data=[77, 50]),
   midi.NoteOnEvent(tick=12, channel=0, data=[79, 0]),
   midi.NoteOnEvent(tick=228, channel=0, data=[77, 0]),
   midi.NoteOnEvent(tick=0, channel=0, data=[82, 59]),
   midi.NoteOnEvent(tick=240, channel=0, data=[82, 0]),
   midi.NoteOnEvent(tick=0, channel=0, data=[74, 50]),
   midi.NoteOnEvent(tick=240, channel=0, data=[74, 0]),
   midi.NoteOnEvent(tick=0, channel=0, data=[77, 57]),
   midi.NoteOnEvent(tick=240, channel=0, data=[75, 55]),
   midi.NoteOnEvent(tick=12, channel=0, data=[77, 0]),
   midi.NoteOnEvent(tick=228, channel=0, data=[74, 53]),
   midi.NoteOnEvent(tick=12, channel=0, data=[75, 0]),
   midi.NoteOnEvent(tick=228, channel=0, data=[72, 51]),
   midi.NoteOnEvent(tick=12, channel=0, data=[74, 0]),
   midi.NoteOnEvent(tick=228, channel=0, data=[70, 49]),
   midi.NoteOnEvent(tick=12, channel=0, data=[72, 0]),
   midi.NoteOnEvent(tick=228, channel=0, data=[69, 47]),
   midi.NoteOnEvent(tick=12, channel=0, data=[70, 0]),
   midi.NoteOnEvent(tick=228, channel=0, data=[69, 0]),
   midi.NoteOnEvent(tick=0, channel=0, data=[67, 50]),
   midi.NoteOnEvent(tick=240, channel=0, data=[65, 43]),
   midi.NoteOnEvent(tick=12, channel=0, data=[67, 0]),
   midi.NoteOnEvent(tick=228, channel=0, data=[64, 50]),
   midi.NoteOnEvent(tick=12, channel=0, data=[65, 0]),
   midi.NoteOnEvent(tick=228, channel=0, data=[65, 43]),
   midi.NoteOnEvent(tick=12, channel=0, data=[64, 0]),
   midi.NoteOnEvent(tick=228, channel=0, data=[67, 50]),
   midi.NoteOnEvent(tick=12, channel=0, data=[65, 0]),
   midi.NoteOnEvent(tick=228, channel=0, data=[69, 45]),
   midi.NoteOnEvent(tick=12, channel=0, data=[67, 0]),
   midi.NoteOnEvent(tick=228, channel=0, data=[69, 0]),
   midi.NoteOnEvent(tick=0, channel=0, data=[70, 50]),
   midi.NoteOnEvent(tick=120, channel=0, data=[70, 0]),
   midi.NoteOnEvent(tick=360, channel=0, data=[70, 48]),
   midi.NoteOnEvent(tick=120, channel=0, data=[70, 0]),
   midi.NoteOnEvent(tick=360, channel=0, data=[74, 48]),
   midi.NoteOnEvent(tick=120, channel=0, data=[74, 0]),
   midi.NoteOnEvent(tick=360, channel=0, data=[70, 50]),
   midi.NoteOnEvent(tick=480, channel=0, data=[70, 0]),
   midi.NoteOnEvent(tick=360, channel=0, data=[70, 44]),
   midi.NoteOnEvent(tick=60, channel=0, data=[70, 0]),
   midi.NoteOnEvent(tick=60, channel=0, data=[72, 50]),
   midi.NoteOnEvent(tick=120, channel=0, data=[70, 43]),
   midi.NoteOnEvent(tick=12, channel=0, data=[72, 0]),
   midi.NoteOnEvent(tick=108, channel=0, data=[69, 45]),
   midi.NoteOnEvent(tick=12, channel=0, data=[70, 0]),
   midi.NoteOnEvent(tick=108, channel=0, data=[70, 42]),
   midi.NoteOnEvent(tick=12, channel=0, data=[69, 0]),
   midi.NoteOnEvent(tick=108, channel=0, data=[79, 56]),
   midi.NoteOnEvent(tick=12, channel=0, data=[70, 0]),
   midi.NoteOnEvent(tick=468, channel=0, data=[79, 0]),
   midi.NoteOnEvent(tick=360, channel=0, data=[70, 44]),
   midi.NoteOnEvent(tick=60, channel=0, data=[70, 0]),
   midi.NoteOnEvent(tick=60, channel=0, data=[72, 50]),
   midi.NoteOnEvent(tick=120, channel=0, data=[70, 43]),
   midi.NoteOnEvent(tick=12, channel=0, data=[72, 0]),
   midi.NoteOnEvent(tick=108, channel=0, data=[69, 45]),
   midi.NoteOnEvent(tick=12, channel=0, data=[70, 0]),
   midi.NoteOnEvent(tick=108, channel=0, data=[70, 42]),
   midi.NoteOnEvent(tick=12, channel=0, data=[69, 0]),
   midi.NoteOnEvent(tick=108, channel=0, data=[77, 55]),
   midi.NoteOnEvent(tick=12, channel=0, data=[70, 0]),
   midi.NoteOnEvent(tick=468, channel=0, data=[77, 0]),
   midi.NoteOnEvent(tick=360, channel=0, data=[70, 44]),
   midi.NoteOnEvent(tick=60, channel=0, data=[70, 0]),
   midi.NoteOnEvent(tick=60, channel=0, data=[72, 50]),
   midi.NoteOnEvent(tick=120, channel=0, data=[70, 43]),
   midi.NoteOnEvent(tick=12, channel=0, data=[72, 0]),
   midi.NoteOnEvent(tick=108, channel=0, data=[69, 45]),
   midi.NoteOnEvent(tick=12, channel=0, data=[70, 0]),
   midi.NoteOnEvent(tick=108, channel=0, data=[70, 42]),
   midi.NoteOnEvent(tick=12, channel=0, data=[69, 0]),
   midi.NoteOnEvent(tick=108, channel=0, data=[72, 52]),
   midi.NoteOnEvent(tick=12, channel=0, data=[70, 0]),
   midi.NoteOnEvent(tick=468, channel=0, data=[72, 0]),
   midi.NoteOnEvent(tick=0, channel=0, data=[77, 49]),
   midi.NoteOnEvent(tick=480, channel=0, data=[77, 0]),
   midi.NoteOnEvent(tick=0, channel=0, data=[75, 48]),
   midi.NoteOnEvent(tick=480, channel=0, data=[75, 0]),
   midi.NoteOnEvent(tick=0, channel=0, data=[73, 55]),
   midi.NoteOnEvent(tick=480, channel=0, data=[73, 0]),
   midi.NoteOnEvent(tick=0, channel=0, data=[74, 49]),
   midi.NoteOnEvent(tick=240, channel=0, data=[74, 0]),
   midi.NoteOnEvent(tick=120, channel=0, data=[70, 44]),
   midi.NoteOnEvent(tick=60, channel=0, data=[70, 0]),
   midi.NoteOnEvent(tick=60, channel=0, data=[72, 50]),
   midi.NoteOnEvent(tick=120, channel=0, data=[70, 43]),
   midi.NoteOnEvent(tick=12, channel=0, data=[72, 0]),
   midi.NoteOnEvent(tick=108, channel=0, data=[69, 45]),
   midi.NoteOnEvent(tick=12, channel=0, data=[70, 0]),
   midi.NoteOnEvent(tick=108, channel=0, data=[70, 42]),
   midi.NoteOnEvent(tick=12, channel=0, data=[69, 0]),
   midi.NoteOnEvent(tick=108, channel=0, data=[79, 56]),
   midi.NoteOnEvent(tick=12, channel=0, data=[70, 0]),
   midi.NoteOnEvent(tick=468, channel=0, data=[79, 0]),
   midi.NoteOnEvent(tick=360, channel=0, data=[70, 44]),
   midi.NoteOnEvent(tick=60, channel=0, data=[70, 0]),
   midi.NoteOnEvent(tick=60, channel=0, data=[72, 50]),
   midi.NoteOnEvent(tick=120, channel=0, data=[70, 43]),
   midi.NoteOnEvent(tick=12, channel=0, data=[72, 0]),
   midi.NoteOnEvent(tick=108, channel=0, data=[69, 45]),
   midi.NoteOnEvent(tick=12, channel=0, data=[70, 0]),
   midi.NoteOnEvent(tick=108, channel=0, data=[70, 42]),
   midi.NoteOnEvent(tick=12, channel=0, data=[69, 0]),
   midi.NoteOnEvent(tick=108, channel=0, data=[77, 55]),
   midi.NoteOnEvent(tick=12, channel=0, data=[70, 0]),
   midi.NoteOnEvent(tick=468, channel=0, data=[77, 0]),
   midi.NoteOnEvent(tick=360, channel=0, data=[70, 44]),
   midi.NoteOnEvent(tick=60, channel=0, data=[70, 0]),
   midi.NoteOnEvent(tick=60, channel=0, data=[72, 50]),
   midi.NoteOnEvent(tick=120, channel=0, data=[70, 43]),
   midi.NoteOnEvent(tick=12, channel=0, data=[72, 0]),
   midi.NoteOnEvent(tick=108, channel=0, data=[69, 45]),
   midi.NoteOnEvent(tick=12, channel=0, data=[70, 0]),
   midi.NoteOnEvent(tick=108, channel=0, data=[70, 42]),
   midi.NoteOnEvent(tick=12, channel=0, data=[69, 0]),
   midi.NoteOnEvent(tick=108, channel=0, data=[72, 52]),
   midi.NoteOnEvent(tick=12, channel=0, data=[70, 0]),
   midi.NoteOnEvent(tick=468, channel=0, data=[72, 0]),
   midi.NoteOnEvent(tick=0, channel=0, data=[75, 49]),
   midi.NoteOnEvent(tick=480, channel=0, data=[75, 0]),
   midi.NoteOnEvent(tick=0, channel=0, data=[69, 48]),
   midi.NoteOnEvent(tick=480, channel=0, data=[69, 0]),
   midi.NoteOnEvent(tick=0, channel=0, data=[70, 55]),
   midi.NoteOnEvent(tick=480, channel=0, data=[70, 0]),
   midi.NoteOnEvent(tick=960, channel=0, data=[74, 64]),
   midi.NoteOnEvent(tick=0, channel=0, data=[70, 64]),
   midi.NoteOnEvent(tick=0, channel=0, data=[79, 77]),
   midi.NoteOnEvent(tick=120, channel=0, data=[79, 0]),
   midi.NoteOnEvent(tick=0, channel=0, data=[70, 0]),
   midi.NoteOnEvent(tick=0, channel=0, data=[74, 0]),
   midi.NoteOnEvent(tick=360, channel=0, data=[67, 64]),
   midi.NoteOnEvent(tick=120, channel=0, data=[67, 0]),
   midi.NoteOnEvent(tick=840, channel=0, data=[69, 63]),
   midi.NoteOnEvent(tick=0, channel=0, data=[66, 63]),
   midi.NoteOnEvent(tick=0, channel=0, data=[74, 75]),
   midi.NoteOnEvent(tick=120, channel=0, data=[74, 0]),
   midi.NoteOnEvent(tick=0, channel=0, data=[66, 0]),
   midi.NoteOnEvent(tick=0, channel=0, data=[69, 0]),
   midi.NoteOnEvent(tick=360, channel=0, data=[62, 67]),
   midi.NoteOnEvent(tick=120, channel=0, data=[62, 0]),
   midi.NoteOnEvent(tick=840, channel=0, data=[63, 43]),
   midi.NoteOnEvent(tick=960, channel=0, data=[63, 0]),
   midi.NoteOnEvent(tick=0, channel=0, data=[65, 36]),
   midi.NoteOnEvent(tick=120, channel=0, data=[63, 36]),
   midi.NoteOnEvent(tick=12, channel=0, data=[65, 0]),
   midi.NoteOnEvent(tick=108, channel=0, data=[62, 36]),
   midi.NoteOnEvent(tick=12, channel=0, data=[63, 0]),
   midi.NoteOnEvent(tick=108, channel=0, data=[63, 36]),
   midi.NoteOnEvent(tick=12, channel=0, data=[62, 0]),
   midi.NoteOnEvent(tick=108, channel=0, data=[63, 0]),
   midi.NoteOnEvent(tick=0, channel=0, data=[72, 42]),
   midi.NoteOnEvent(tick=240, channel=0, data=[72, 0]),
   midi.NoteOnEvent(tick=0, channel=0, data=[70, 37]),
   midi.NoteOnEvent(tick=240, channel=0, data=[70, 0]),
   midi.NoteOnEvent(tick=0, channel=0, data=[70, 43]),
   midi.NoteOnEvent(tick=480, channel=0, data=[70, 0]),
   midi.NoteOnEvent(tick=0, channel=0, data=[70, 38]),
   midi.NoteOnEvent(tick=480, channel=0, data=[70, 0]),
   midi.NoteOnEvent(tick=0, channel=0, data=[70, 39]),
   midi.NoteOnEvent(tick=240, channel=0, data=[75, 45]),
   midi.NoteOnEvent(tick=12, channel=0, data=[70, 0]),
   midi.NoteOnEvent(tick=228, channel=0, data=[74, 44]),
   midi.NoteOnEvent(tick=12, channel=0, data=[75, 0]),
   midi.NoteOnEvent(tick=228, channel=0, data=[73, 42]),
   midi.NoteOnEvent(tick=12, channel=0, data=[74, 0]),
   midi.NoteOnEvent(tick=228, channel=0, data=[72, 40]),
   midi.NoteOnEvent(tick=12, channel=0, data=[73, 0]),
   midi.NoteOnEvent(tick=228, channel=0, data=[71, 38]),
   midi.NoteOnEvent(tick=12, channel=0, data=[72, 0]),
   midi.NoteOnEvent(tick=228, channel=0, data=[70, 41]),
   midi.NoteOnEvent(tick=12, channel=0, data=[71, 0]),
   midi.NoteOnEvent(tick=468, channel=0, data=[70, 0]),
   midi.NoteOnEvent(tick=960, channel=0, data=[63, 45]),
   midi.NoteOnEvent(tick=960, channel=0, data=[63, 0]),
   midi.NoteOnEvent(tick=0, channel=0, data=[65, 42]),
   midi.NoteOnEvent(tick=120, channel=0, data=[63, 39]),
   midi.NoteOnEvent(tick=12, channel=0, data=[65, 0]),
   midi.NoteOnEvent(tick=108, channel=0, data=[62, 42]),
   midi.NoteOnEvent(tick=12, channel=0, data=[63, 0]),
   midi.NoteOnEvent(tick=108, channel=0, data=[63, 40]),
   midi.NoteOnEvent(tick=12, channel=0, data=[62, 0]),
   midi.NoteOnEvent(tick=108, channel=0, data=[63, 0]),
   midi.NoteOnEvent(tick=0, channel=0, data=[72, 54]),
   midi.NoteOnEvent(tick=240, channel=0, data=[71, 48]),
   midi.NoteOnEvent(tick=12, channel=0, data=[72, 0]),
   midi.NoteOnEvent(tick=228, channel=0, data=[71, 0]),
   midi.NoteOnEvent(tick=0, channel=0, data=[71, 53]),
   midi.NoteOnEvent(tick=480, channel=0, data=[71, 0]),
   midi.NoteOnEvent(tick=0, channel=0, data=[71, 47]),
   midi.NoteOnEvent(tick=480, channel=0, data=[71, 0]),
   midi.NoteOnEvent(tick=0, channel=0, data=[72, 50]),
   midi.NoteOnEvent(tick=240, channel=0, data=[79, 58]),
   midi.NoteOnEvent(tick=12, channel=0, data=[72, 0]),
   midi.NoteOnEvent(tick=228, channel=0, data=[75, 56]),
   midi.NoteOnEvent(tick=12, channel=0, data=[79, 0]),
   midi.NoteOnEvent(tick=228, channel=0, data=[74, 54]),
   midi.NoteOnEvent(tick=12, channel=0, data=[75, 0]),
   midi.NoteOnEvent(tick=228, channel=0, data=[72, 51]),
   midi.NoteOnEvent(tick=12, channel=0, data=[74, 0]),
   midi.NoteOnEvent(tick=228, channel=0, data=[70, 49]),
   midi.NoteOnEvent(tick=12, channel=0, data=[72, 0]),
   midi.NoteOnEvent(tick=228, channel=0, data=[69, 50]),
   midi.NoteOnEvent(tick=12, channel=0, data=[70, 0]),
   midi.NoteOnEvent(tick=468, channel=0, data=[69, 0]),
   midi.NoteOnEvent(tick=960, channel=0, data=[70, 59]),
   midi.NoteOnEvent(tick=240, channel=0, data=[86, 62]),
   midi.NoteOnEvent(tick=12, channel=0, data=[70, 0]),
   midi.NoteOnEvent(tick=228, channel=0, data=[82, 61]),
   midi.NoteOnEvent(tick=12, channel=0, data=[86, 0]),
   midi.NoteOnEvent(tick=228, channel=0, data=[81, 60]),
   midi.NoteOnEvent(tick=12, channel=0, data=[82, 0]),
   midi.NoteOnEvent(tick=228, channel=0, data=[79, 58]),
   midi.NoteOnEvent(tick=12, channel=0, data=[81, 0]),
   midi.NoteOnEvent(tick=228, channel=0, data=[77, 57]),
   midi.NoteOnEvent(tick=12, channel=0, data=[79, 0]),
   midi.NoteOnEvent(tick=228, channel=0, data=[76, 62]),
   midi.NoteOnEvent(tick=12, channel=0, data=[77, 0]),
   midi.NoteOnEvent(tick=468, channel=0, data=[76, 0]),
   midi.NoteOnEvent(tick=960, channel=0, data=[77, 52]),
   midi.NoteOnEvent(tick=240, channel=0, data=[81, 58]),
   midi.NoteOnEvent(tick=12, channel=0, data=[77, 0]),
   midi.NoteOnEvent(tick=228, channel=0, data=[77, 56]),
   midi.NoteOnEvent(tick=12, channel=0, data=[81, 0]),
   midi.NoteOnEvent(tick=228, channel=0, data=[76, 55]),
   midi.NoteOnEvent(tick=12, channel=0, data=[77, 0]),
   midi.NoteOnEvent(tick=228, channel=0, data=[74, 53]),
   midi.NoteOnEvent(tick=12, channel=0, data=[76, 0]),
   midi.NoteOnEvent(tick=228, channel=0, data=[72, 51]),
   midi.NoteOnEvent(tick=12, channel=0, data=[74, 0]),
   midi.NoteOnEvent(tick=228, channel=0, data=[71, 56]),
   midi.NoteOnEvent(tick=12, channel=0, data=[72, 0]),
   midi.NoteOnEvent(tick=468, channel=0, data=[71, 0]),
   midi.NoteOnEvent(tick=1080, channel=0, data=[72, 46]),
   midi.NoteOnEvent(tick=120, channel=0, data=[72, 0]),
   midi.NoteOnEvent(tick=0, channel=0, data=[71, 49]),
   midi.NoteOnEvent(tick=120, channel=0, data=[71, 0]),
   midi.NoteOnEvent(tick=0, channel=0, data=[72, 44]),
   midi.NoteOnEvent(tick=120, channel=0, data=[72, 0]),
   midi.NoteOnEvent(tick=0, channel=0, data=[74, 49]),
   midi.NoteOnEvent(tick=120, channel=0, data=[74, 0]),
   midi.NoteOnEvent(tick=0, channel=0, data=[72, 44]),
   midi.NoteOnEvent(tick=120, channel=0, data=[72, 0]),
   midi.NoteOnEvent(tick=0, channel=0, data=[71, 49]),
   midi.NoteOnEvent(tick=120, channel=0, data=[71, 0]),
   midi.NoteOnEvent(tick=0, channel=0, data=[72, 44]),
   midi.NoteOnEvent(tick=120, channel=0, data=[72, 0]),
   midi.NoteOnEvent(tick=120, channel=0, data=[72, 49]),
   midi.NoteOnEvent(tick=120, channel=0, data=[72, 0]),
   midi.NoteOnEvent(tick=0, channel=0, data=[76, 54]),
   midi.NoteOnEvent(tick=120, channel=0, data=[76, 0]),
   midi.NoteOnEvent(tick=0, channel=0, data=[72, 49]),
   midi.NoteOnEvent(tick=120, channel=0, data=[72, 0]),
   midi.NoteOnEvent(tick=120, channel=0, data=[72, 53]),
   midi.NoteOnEvent(tick=120, channel=0, data=[72, 0]),
   midi.NoteOnEvent(tick=0, channel=0, data=[77, 57]),
   midi.NoteOnEvent(tick=120, channel=0, data=[77, 0]),
   midi.NoteOnEvent(tick=0, channel=0, data=[72, 52]),
   midi.NoteOnEvent(tick=120, channel=0, data=[72, 0]),
   midi.NoteOnEvent(tick=120, channel=0, data=[72, 55]),
   midi.NoteOnEvent(tick=120, channel=0, data=[72, 0]),
   midi.NoteOnEvent(tick=0, channel=0, data=[82, 61]),
   midi.NoteOnEvent(tick=120, channel=0, data=[82, 0]),
   midi.NoteOnEvent(tick=0, channel=0, data=[72, 57]),
   midi.NoteOnEvent(tick=120, channel=0, data=[72, 0]),
   midi.NoteOnEvent(tick=120, channel=0, data=[72, 57]),
   midi.NoteOnEvent(tick=120, channel=0, data=[72, 0]),
   midi.NoteOnEvent(tick=0, channel=0, data=[81, 64]),
   midi.NoteOnEvent(tick=120, channel=0, data=[81, 0]),
   midi.NoteOnEvent(tick=0, channel=0, data=[72, 57]),
   midi.NoteOnEvent(tick=120, channel=0, data=[72, 0]),
   midi.NoteOnEvent(tick=0, channel=0, data=[79, 65]),
   midi.NoteOnEvent(tick=120, channel=0, data=[79, 0]),
   midi.NoteOnEvent(tick=0, channel=0, data=[76, 60]),
   midi.NoteOnEvent(tick=120, channel=0, data=[76, 0]),
   midi.NoteOnEvent(tick=0, channel=0, data=[74, 65]),
   midi.NoteOnEvent(tick=120, channel=0, data=[74, 0]),
   midi.NoteOnEvent(tick=0, channel=0, data=[72, 60]),
   midi.NoteOnEvent(tick=120, channel=0, data=[72, 0]),
   midi.NoteOnEvent(tick=0, channel=0, data=[71, 57]),
   midi.NoteOnEvent(tick=120, channel=0, data=[71, 0]),
   midi.NoteOnEvent(tick=0, channel=0, data=[72, 59]),
   midi.NoteOnEvent(tick=120, channel=0, data=[72, 0]),
   midi.NoteOnEvent(tick=0, channel=0, data=[74, 60]),
   midi.NoteOnEvent(tick=120, channel=0, data=[74, 0]),
   midi.NoteOnEvent(tick=0, channel=0, data=[72, 56]),
   midi.NoteOnEvent(tick=120, channel=0, data=[72, 0]),
   midi.NoteOnEvent(tick=120, channel=0, data=[72, 49]),
   midi.NoteOnEvent(tick=120, channel=0, data=[72, 0]),
   midi.NoteOnEvent(tick=0, channel=0, data=[76, 53]),
   midi.NoteOnEvent(tick=120, channel=0, data=[76, 0]),
   midi.NoteOnEvent(tick=0, channel=0, data=[72, 49]),
   midi.NoteOnEvent(tick=120, channel=0, data=[72, 0]),
   midi.NoteOnEvent(tick=120, channel=0, data=[72, 52]),
   midi.NoteOnEvent(tick=120, channel=0, data=[72, 0]),
   midi.NoteOnEvent(tick=0, channel=0, data=[77, 58]),
   midi.NoteOnEvent(tick=120, channel=0, data=[77, 0]),
   midi.NoteOnEvent(tick=0, channel=0, data=[72, 54]),
   midi.NoteOnEvent(tick=120, channel=0, data=[72, 0]),
   midi.NoteOnEvent(tick=120, channel=0, data=[72, 55]),
   midi.NoteOnEvent(tick=120, channel=0, data=[72, 0]),
   midi.NoteOnEvent(tick=0, channel=0, data=[82, 61]),
   midi.NoteOnEvent(tick=120, channel=0, data=[82, 0]),
   midi.NoteOnEvent(tick=0, channel=0, data=[72, 55]),
   midi.NoteOnEvent(tick=120, channel=0, data=[72, 0]),
   midi.NoteOnEvent(tick=120, channel=0, data=[72, 49]),
   midi.NoteOnEvent(tick=120, channel=0, data=[72, 0]),
   midi.NoteOnEvent(tick=0, channel=0, data=[81, 68]),
   midi.NoteOnEvent(tick=120, channel=0, data=[81, 0]),
   midi.NoteOnEvent(tick=0, channel=0, data=[72, 62]),
   midi.NoteOnEvent(tick=120, channel=0, data=[72, 0]),
   midi.NoteOnEvent(tick=0, channel=0, data=[79, 73]),
   midi.NoteOnEvent(tick=120, channel=0, data=[79, 0]),
   midi.NoteOnEvent(tick=0, channel=0, data=[84, 62]),
   midi.NoteOnEvent(tick=120, channel=0, data=[84, 0]),
   midi.NoteOnEvent(tick=0, channel=0, data=[79, 69]),
   midi.NoteOnEvent(tick=120, channel=0, data=[79, 0]),
   midi.NoteOnEvent(tick=0, channel=0, data=[76, 57]),
   midi.NoteOnEvent(tick=120, channel=0, data=[76, 0]),
   midi.NoteOnEvent(tick=0, channel=0, data=[72, 67]),
   midi.NoteOnEvent(tick=120, channel=0, data=[72, 0]),
   midi.NoteOnEvent(tick=0, channel=0, data=[79, 55]),
   midi.NoteOnEvent(tick=120, channel=0, data=[79, 0]),
   midi.NoteOnEvent(tick=0, channel=0, data=[76, 61]),
   midi.NoteOnEvent(tick=120, channel=0, data=[76, 0]),
   midi.NoteOnEvent(tick=0, channel=0, data=[72, 54]),
   midi.NoteOnEvent(tick=120, channel=0, data=[72, 0]),
   midi.NoteOnEvent(tick=0, channel=0, data=[67, 63]),
   midi.NoteOnEvent(tick=120, channel=0, data=[67, 0]),
   midi.NoteOnEvent(tick=0, channel=0, data=[72, 55]),
   midi.NoteOnEvent(tick=120, channel=0, data=[72, 0]),
   midi.NoteOnEvent(tick=0, channel=0, data=[67, 65]),
   midi.NoteOnEvent(tick=120, channel=0, data=[67, 0]),
   midi.NoteOnEvent(tick=0, channel=0, data=[64, 59]),
   midi.NoteOnEvent(tick=120, channel=0, data=[64, 0]),
   midi.NoteOnEvent(tick=0, channel=0, data=[60, 85]),
   midi.NoteOnEvent(tick=120, channel=0, data=[60, 0]),
   midi.NoteOnEvent(tick=360, channel=0, data=[67, 62]),
   midi.NoteOnEvent(tick=0, channel=0, data=[64, 62]),
   midi.NoteOnEvent(tick=0, channel=0, data=[72, 73]),
   midi.NoteOnEvent(tick=480, channel=0, data=[72, 0]),
   midi.NoteOnEvent(tick=0, channel=0, data=[64, 0]),
   midi.NoteOnEvent(tick=0, channel=0, data=[67, 0]),
   midi.NoteOnEvent(tick=3600, channel=0, data=[84, 45]),
   midi.NoteOnEvent(tick=60, channel=0, data=[84, 0]),
   midi.NoteOnEvent(tick=180, channel=0, data=[84, 49]),
   midi.NoteOnEvent(tick=60, channel=0, data=[84, 0]),
   midi.NoteOnEvent(tick=180, channel=0, data=[84, 43]),
   midi.NoteOnEvent(tick=60, channel=0, data=[84, 0]),
   midi.NoteOnEvent(tick=180, channel=0, data=[84, 46]),
   midi.NoteOnEvent(tick=60, channel=0, data=[84, 0]),
   midi.NoteOnEvent(tick=180, channel=0, data=[84, 40]),
   midi.NoteOnEvent(tick=60, channel=0, data=[84, 0]),
   midi.NoteOnEvent(tick=180, channel=0, data=[86, 45]),
   midi.NoteOnEvent(tick=240, channel=0, data=[84, 40]),
   midi.NoteOnEvent(tick=12, channel=0, data=[86, 0]),
   midi.NoteOnEvent(tick=228, channel=0, data=[82, 43]),
   midi.NoteOnEvent(tick=12, channel=0, data=[84, 0]),
   midi.NoteOnEvent(tick=228, channel=0, data=[81, 40]),
   midi.NoteOnEvent(tick=12, channel=0, data=[82, 0]),
   midi.NoteOnEvent(tick=228, channel=0, data=[79, 45]),
   midi.NoteOnEvent(tick=12, channel=0, data=[81, 0]),
   midi.NoteOnEvent(tick=228, channel=0, data=[77, 39]),
   midi.NoteOnEvent(tick=12, channel=0, data=[79, 0]),
   midi.NoteOnEvent(tick=228, channel=0, data=[77, 0]),
   midi.NoteOnEvent(tick=0, channel=0, data=[77, 41]),
   midi.NoteOnEvent(tick=60, channel=0, data=[77, 0]),
   midi.NoteOnEvent(tick=0, channel=0, data=[79, 39]),
   midi.NoteOnEvent(tick=60, channel=0, data=[79, 0]),
   midi.NoteOnEvent(tick=0, channel=0, data=[77, 49]),
   midi.NoteOnEvent(tick=120, channel=0, data=[77, 0]),
   midi.NoteOnEvent(tick=0, channel=0, data=[76, 44]),
   midi.NoteOnEvent(tick=232, channel=0, data=[76, 0]),
   midi.NoteOnEvent(tick=8, channel=0, data=[76, 46]),
   midi.NoteOnEvent(tick=480, channel=0, data=[76, 0]),
   midi.NoteOnEvent(tick=2160, channel=0, data=[82, 45]),
   midi.NoteOnEvent(tick=60, channel=0, data=[82, 0]),
   midi.NoteOnEvent(tick=180, channel=0, data=[82, 48]),
   midi.NoteOnEvent(tick=60, channel=0, data=[82, 0]),
   midi.NoteOnEvent(tick=180, channel=0, data=[82, 42]),
   midi.NoteOnEvent(tick=60, channel=0, data=[82, 0]),
   midi.NoteOnEvent(tick=180, channel=0, data=[82, 44]),
   midi.NoteOnEvent(tick=60, channel=0, data=[82, 0]),
   midi.NoteOnEvent(tick=180, channel=0, data=[82, 40]),
   midi.NoteOnEvent(tick=60, channel=0, data=[82, 0]),
   midi.NoteOnEvent(tick=180, channel=0, data=[84, 45]),
   midi.NoteOnEvent(tick=240, channel=0, data=[82, 40]),
   midi.NoteOnEvent(tick=12, channel=0, data=[84, 0]),
   midi.NoteOnEvent(tick=228, channel=0, data=[81, 40]),
   midi.NoteOnEvent(tick=12, channel=0, data=[82, 0]),
   midi.NoteOnEvent(tick=228, channel=0, data=[79, 40]),
   midi.NoteOnEvent(tick=12, channel=0, data=[81, 0]),
   midi.NoteOnEvent(tick=228, channel=0, data=[77, 45]),
   midi.NoteOnEvent(tick=12, channel=0, data=[79, 0]),
   midi.NoteOnEvent(tick=228, channel=0, data=[76, 39]),
   midi.NoteOnEvent(tick=12, channel=0, data=[77, 0]),
   midi.NoteOnEvent(tick=228, channel=0, data=[76, 0]),
   midi.NoteOnEvent(tick=0, channel=0, data=[77, 47]),
   midi.NoteOnEvent(tick=480, channel=0, data=[77, 0]),
   midi.NoteOnEvent(tick=240, channel=0, data=[81, 47]),
   midi.NoteOnEvent(tick=240, channel=0, data=[79, 45]),
   midi.NoteOnEvent(tick=12, channel=0, data=[81, 0]),
   midi.NoteOnEvent(tick=228, channel=0, data=[77, 40]),
   midi.NoteOnEvent(tick=12, channel=0, data=[79, 0]),
   midi.NoteOnEvent(tick=228, channel=0, data=[76, 47]),
   midi.NoteOnEvent(tick=12, channel=0, data=[77, 0]),
   midi.NoteOnEvent(tick=468, channel=0, data=[76, 0]),
   midi.NoteOnEvent(tick=240, channel=0, data=[86, 52]),
   midi.NoteOnEvent(tick=240, channel=0, data=[84, 47]),
   midi.NoteOnEvent(tick=12, channel=0, data=[86, 0]),
   midi.NoteOnEvent(tick=228, channel=0, data=[76, 42]),
   midi.NoteOnEvent(tick=12, channel=0, data=[84, 0]),
   midi.NoteOnEvent(tick=228, channel=0, data=[77, 47]),
   midi.NoteOnEvent(tick=12, channel=0, data=[76, 0]),
   midi.NoteOnEvent(tick=468, channel=0, data=[77, 0]),
   midi.NoteOnEvent(tick=240, channel=0, data=[81, 47]),
   midi.NoteOnEvent(tick=240, channel=0, data=[79, 45]),
   midi.NoteOnEvent(tick=12, channel=0, data=[81, 0]),
   midi.NoteOnEvent(tick=228, channel=0, data=[77, 40]),
   midi.NoteOnEvent(tick=12, channel=0, data=[79, 0]),
   midi.NoteOnEvent(tick=228, channel=0, data=[76, 47]),
   midi.NoteOnEvent(tick=12, channel=0, data=[77, 0]),
   midi.NoteOnEvent(tick=468, channel=0, data=[76, 0]),
   midi.NoteOnEvent(tick=240, channel=0, data=[86, 52]),
   midi.NoteOnEvent(tick=240, channel=0, data=[84, 47]),
   midi.NoteOnEvent(tick=12, channel=0, data=[86, 0]),
   midi.NoteOnEvent(tick=228, channel=0, data=[76, 42]),
   midi.NoteOnEvent(tick=12, channel=0, data=[84, 0]),
   midi.NoteOnEvent(tick=228, channel=0, data=[77, 47]),
   midi.NoteOnEvent(tick=12, channel=0, data=[76, 0]),
   midi.NoteOnEvent(tick=468, channel=0, data=[77, 0]),
   midi.NoteOnEvent(tick=240, channel=0, data=[84, 55]),
   midi.NoteOnEvent(tick=240, channel=0, data=[81, 53]),
   midi.NoteOnEvent(tick=12, channel=0, data=[84, 0]),
   midi.NoteOnEvent(tick=228, channel=0, data=[79, 50]),
   midi.NoteOnEvent(tick=12, channel=0, data=[81, 0]),
   midi.NoteOnEvent(tick=228, channel=0, data=[78, 56]),
   midi.NoteOnEvent(tick=12, channel=0, data=[79, 0]),
   midi.NoteOnEvent(tick=468, channel=0, data=[78, 0]),
   midi.NoteOnEvent(tick=240, channel=0, data=[87, 58]),
   midi.NoteOnEvent(tick=240, channel=0, data=[86, 52]),
   midi.NoteOnEvent(tick=12, channel=0, data=[87, 0]),
   midi.NoteOnEvent(tick=228, channel=0, data=[78, 48]),
   midi.NoteOnEvent(tick=12, channel=0, data=[86, 0]),
   midi.NoteOnEvent(tick=228, channel=0, data=[81, 56]),
   midi.NoteOnEvent(tick=12, channel=0, data=[78, 0]),
   midi.NoteOnEvent(tick=228, channel=0, data=[79, 51]),
   midi.NoteOnEvent(tick=12, channel=0, data=[81, 0]),
   midi.NoteOnEvent(tick=228, channel=0, data=[84, 55]),
   midi.NoteOnEvent(tick=12, channel=0, data=[79, 0]),
   midi.NoteOnEvent(tick=228, channel=0, data=[83, 51]),
   midi.NoteOnEvent(tick=12, channel=0, data=[84, 0]),
   midi.NoteOnEvent(tick=228, channel=0, data=[82, 50]),
   midi.NoteOnEvent(tick=12, channel=0, data=[83, 0]),
   midi.NoteOnEvent(tick=228, channel=0, data=[81, 49]),
   midi.NoteOnEvent(tick=12, channel=0, data=[82, 0]),
   midi.NoteOnEvent(tick=228, channel=0, data=[79, 54]),
   midi.NoteOnEvent(tick=12, channel=0, data=[81, 0]),
   midi.NoteOnEvent(tick=348, channel=0, data=[79, 0]),
   midi.NoteOnEvent(tick=0, channel=0, data=[81, 48]),
   midi.NoteOnEvent(tick=120, channel=0, data=[81, 0]),
   midi.NoteOnEvent(tick=0, channel=0, data=[77, 54]),
   midi.NoteOnEvent(tick=480, channel=0, data=[77, 0]),
   midi.NoteOnEvent(tick=0, channel=0, data=[76, 50]),
   midi.NoteOnEvent(tick=80, channel=0, data=[76, 0]),
   midi.NoteOnEvent(tick=0, channel=0, data=[77, 44]),
   midi.NoteOnEvent(tick=80, channel=0, data=[77, 0]),
   midi.NoteOnEvent(tick=0, channel=0, data=[76, 50]),
   midi.NoteOnEvent(tick=80, channel=0, data=[76, 0]),
   midi.NoteOnEvent(tick=0, channel=0, data=[77, 44]),
   midi.NoteOnEvent(tick=60, channel=0, data=[77, 0]),
   midi.NoteOnEvent(tick=0, channel=0, data=[76, 50]),
   midi.NoteOnEvent(tick=60, channel=0, data=[76, 0]),
   midi.NoteOnEvent(tick=0, channel=0, data=[74, 42]),
   midi.NoteOnEvent(tick=60, channel=0, data=[74, 0]),
   midi.NoteOnEvent(tick=0, channel=0, data=[76, 45]),
   midi.NoteOnEvent(tick=60, channel=0, data=[76, 0]),
   midi.NoteOnEvent(tick=0, channel=0, data=[77, 49]),
   midi.NoteOnEvent(tick=120, channel=0, data=[77, 0]),
   midi.NoteOnEvent(tick=0, channel=0, data=[72, 46]),
   midi.NoteOnEvent(tick=120, channel=0, data=[72, 0]),
   midi.NoteOnEvent(tick=0, channel=0, data=[71, 49]),
   midi.NoteOnEvent(tick=120, channel=0, data=[71, 0]),
   midi.NoteOnEvent(tick=0, channel=0, data=[72, 44]),
   midi.NoteOnEvent(tick=120, channel=0, data=[72, 0]),
   midi.NoteOnEvent(tick=0, channel=0, data=[74, 49]),
   midi.NoteOnEvent(tick=120, channel=0, data=[74, 0]),
   midi.NoteOnEvent(tick=0, channel=0, data=[72, 44]),
   midi.NoteOnEvent(tick=120, channel=0, data=[72, 0]),
   midi.NoteOnEvent(tick=0, channel=0, data=[71, 49]),
   midi.NoteOnEvent(tick=120, channel=0, data=[71, 0]),
   midi.NoteOnEvent(tick=0, channel=0, data=[72, 44]),
   midi.NoteOnEvent(tick=120, channel=0, data=[72, 0]),
   midi.NoteOnEvent(tick=0, channel=0, data=[70, 49]),
   midi.NoteOnEvent(tick=120, channel=0, data=[70, 0]),
   midi.NoteOnEvent(tick=0, channel=0, data=[72, 49]),
   midi.NoteOnEvent(tick=120, channel=0, data=[72, 0]),
   midi.NoteOnEvent(tick=0, channel=0, data=[69, 54]),
   midi.NoteOnEvent(tick=120, channel=0, data=[69, 0]),
   midi.NoteOnEvent(tick=0, channel=0, data=[72, 49]),
   midi.NoteOnEvent(tick=120, channel=0, data=[72, 0]),
   midi.NoteOnEvent(tick=0, channel=0, data=[67, 49]),
   midi.NoteOnEvent(tick=120, channel=0, data=[67, 0]),
   midi.NoteOnEvent(tick=0, channel=0, data=[72, 46]),
   midi.NoteOnEvent(tick=120, channel=0, data=[72, 0]),
   midi.NoteOnEvent(tick=0, channel=0, data=[71, 49]),
   midi.NoteOnEvent(tick=120, channel=0, data=[71, 0]),
   midi.NoteOnEvent(tick=0, channel=0, data=[72, 44]),
   midi.NoteOnEvent(tick=120, channel=0, data=[72, 0]),
   midi.NoteOnEvent(tick=0, channel=0, data=[74, 49]),
   midi.NoteOnEvent(tick=120, channel=0, data=[74, 0]),
   midi.NoteOnEvent(tick=0, channel=0, data=[72, 44]),
   midi.NoteOnEvent(tick=120, channel=0, data=[72, 0]),
   midi.NoteOnEvent(tick=0, channel=0, data=[71, 49]),
   midi.NoteOnEvent(tick=120, channel=0, data=[71, 0]),
   midi.NoteOnEvent(tick=0, channel=0, data=[72, 44]),
   midi.NoteOnEvent(tick=120, channel=0, data=[72, 0]),
   midi.NoteOnEvent(tick=0, channel=0, data=[82, 49]),
   midi.NoteOnEvent(tick=120, channel=0, data=[82, 0]),
   midi.NoteOnEvent(tick=0, channel=0, data=[72, 49]),
   midi.NoteOnEvent(tick=120, channel=0, data=[72, 0]),
   midi.NoteOnEvent(tick=0, channel=0, data=[82, 54]),
   midi.NoteOnEvent(tick=120, channel=0, data=[82, 0]),
   midi.NoteOnEvent(tick=0, channel=0, data=[72, 49]),
   midi.NoteOnEvent(tick=120, channel=0, data=[72, 0]),
   midi.NoteOnEvent(tick=0, channel=0, data=[81, 49]),
   midi.NoteOnEvent(tick=120, channel=0, data=[81, 0]),
   midi.NoteOnEvent(tick=0, channel=0, data=[72, 46]),
   midi.NoteOnEvent(tick=120, channel=0, data=[72, 0]),
   midi.NoteOnEvent(tick=0, channel=0, data=[71, 49]),
   midi.NoteOnEvent(tick=120, channel=0, data=[71, 0]),
   midi.NoteOnEvent(tick=0, channel=0, data=[72, 44]),
   midi.NoteOnEvent(tick=120, channel=0, data=[72, 0]),
   midi.NoteOnEvent(tick=0, channel=0, data=[74, 49]),
   midi.NoteOnEvent(tick=120, channel=0, data=[74, 0]),
   midi.NoteOnEvent(tick=0, channel=0, data=[72, 44]),
   midi.NoteOnEvent(tick=120, channel=0, data=[72, 0]),
   midi.NoteOnEvent(tick=0, channel=0, data=[71, 49]),
   midi.NoteOnEvent(tick=120, channel=0, data=[71, 0]),
   midi.NoteOnEvent(tick=0, channel=0, data=[72, 44]),
   midi.NoteOnEvent(tick=120, channel=0, data=[72, 0]),
   midi.NoteOnEvent(tick=0, channel=0, data=[70, 49]),
   midi.NoteOnEvent(tick=120, channel=0, data=[70, 0]),
   midi.NoteOnEvent(tick=0, channel=0, data=[72, 49]),
   midi.NoteOnEvent(tick=120, channel=0, data=[72, 0]),
   midi.NoteOnEvent(tick=0, channel=0, data=[69, 54]),
   midi.NoteOnEvent(tick=120, channel=0, data=[69, 0]),
   midi.NoteOnEvent(tick=0, channel=0, data=[72, 49]),
   midi.NoteOnEvent(tick=120, channel=0, data=[72, 0]),
   midi.NoteOnEvent(tick=0, channel=0, data=[67, 49]),
   midi.NoteOnEvent(tick=120, channel=0, data=[67, 0]),
   midi.NoteOnEvent(tick=0, channel=0, data=[72, 46]),
   midi.NoteOnEvent(tick=120, channel=0, data=[72, 0]),
   midi.NoteOnEvent(tick=0, channel=0, data=[71, 49]),
   midi.NoteOnEvent(tick=120, channel=0, data=[71, 0]),
   midi.NoteOnEvent(tick=0, channel=0, data=[72, 44]),
   midi.NoteOnEvent(tick=120, channel=0, data=[72, 0]),
   midi.NoteOnEvent(tick=0, channel=0, data=[74, 49]),
   midi.NoteOnEvent(tick=120, channel=0, data=[74, 0]),
   midi.NoteOnEvent(tick=0, channel=0, data=[72, 44]),
   midi.NoteOnEvent(tick=120, channel=0, data=[72, 0]),
   midi.NoteOnEvent(tick=0, channel=0, data=[71, 49]),
   midi.NoteOnEvent(tick=120, channel=0, data=[71, 0]),
   midi.NoteOnEvent(tick=0, channel=0, data=[72, 44]),
   midi.NoteOnEvent(tick=120, channel=0, data=[72, 0]),
   midi.NoteOnEvent(tick=0, channel=0, data=[82, 49]),
   midi.NoteOnEvent(tick=120, channel=0, data=[82, 0]),
   midi.NoteOnEvent(tick=0, channel=0, data=[72, 49]),
   midi.NoteOnEvent(tick=120, channel=0, data=[72, 0]),
   midi.NoteOnEvent(tick=0, channel=0, data=[82, 54]),
   midi.NoteOnEvent(tick=120, channel=0, data=[82, 0]),
   midi.NoteOnEvent(tick=0, channel=0, data=[72, 49]),
   midi.NoteOnEvent(tick=120, channel=0, data=[72, 0]),
   midi.NoteOnEvent(tick=0, channel=0, data=[81, 49]),
   midi.NoteOnEvent(tick=120, channel=0, data=[81, 0]),
   midi.NoteOnEvent(tick=0, channel=0, data=[72, 46]),
   midi.NoteOnEvent(tick=120, channel=0, data=[72, 0]),
   midi.NoteOnEvent(tick=0, channel=0, data=[71, 49]),
   midi.NoteOnEvent(tick=120, channel=0, data=[71, 0]),
   midi.NoteOnEvent(tick=0, channel=0, data=[72, 44]),
   midi.NoteOnEvent(tick=120, channel=0, data=[72, 0]),
   midi.NoteOnEvent(tick=0, channel=0, data=[74, 49]),
   midi.NoteOnEvent(tick=120, channel=0, data=[74, 0]),
   midi.NoteOnEvent(tick=0, channel=0, data=[72, 44]),
   midi.NoteOnEvent(tick=120, channel=0, data=[72, 0]),
   midi.NoteOnEvent(tick=0, channel=0, data=[71, 49]),
   midi.NoteOnEvent(tick=120, channel=0, data=[71, 0]),
   midi.NoteOnEvent(tick=0, channel=0, data=[72, 44]),
   midi.NoteOnEvent(tick=120, channel=0, data=[72, 0]),
   midi.NoteOnEvent(tick=0, channel=0, data=[75, 49]),
   midi.NoteOnEvent(tick=120, channel=0, data=[75, 0]),
   midi.NoteOnEvent(tick=0, channel=0, data=[72, 49]),
   midi.NoteOnEvent(tick=120, channel=0, data=[72, 0]),
   midi.NoteOnEvent(tick=0, channel=0, data=[70, 54]),
   midi.NoteOnEvent(tick=120, channel=0, data=[70, 0]),
   midi.NoteOnEvent(tick=0, channel=0, data=[72, 49]),
   midi.NoteOnEvent(tick=120, channel=0, data=[72, 0]),
   midi.NoteOnEvent(tick=0, channel=0, data=[69, 49]),
   midi.NoteOnEvent(tick=120, channel=0, data=[69, 0]),
   midi.NoteOnEvent(tick=0, channel=0, data=[74, 46]),
   midi.NoteOnEvent(tick=120, channel=0, data=[74, 0]),
   midi.NoteOnEvent(tick=0, channel=0, data=[73, 49]),
   midi.NoteOnEvent(tick=120, channel=0, data=[73, 0]),
   midi.NoteOnEvent(tick=0, channel=0, data=[74, 44]),
   midi.NoteOnEvent(tick=120, channel=0, data=[74, 0]),
   midi.NoteOnEvent(tick=0, channel=0, data=[76, 49]),
   midi.NoteOnEvent(tick=120, channel=0, data=[76, 0]),
   midi.NoteOnEvent(tick=0, channel=0, data=[74, 44]),
   midi.NoteOnEvent(tick=120, channel=0, data=[74, 0]),
   midi.NoteOnEvent(tick=0, channel=0, data=[73, 52]),
   midi.NoteOnEvent(tick=120, channel=0, data=[73, 0]),
   midi.NoteOnEvent(tick=0, channel=0, data=[74, 44]),
   midi.NoteOnEvent(tick=120, channel=0, data=[74, 0]),
   midi.NoteOnEvent(tick=0, channel=0, data=[84, 55]),
   midi.NoteOnEvent(tick=120, channel=0, data=[84, 0]),
   midi.NoteOnEvent(tick=0, channel=0, data=[74, 49]),
   midi.NoteOnEvent(tick=120, channel=0, data=[74, 0]),
   midi.NoteOnEvent(tick=0, channel=0, data=[84, 57]),
   midi.NoteOnEvent(tick=120, channel=0, data=[84, 0]),
   midi.NoteOnEvent(tick=0, channel=0, data=[74, 49]),
   midi.NoteOnEvent(tick=120, channel=0, data=[74, 0]),
   midi.NoteOnEvent(tick=0, channel=0, data=[83, 62]),
   midi.NoteOnEvent(tick=480, channel=0, data=[83, 0]),
   midi.NoteOnEvent(tick=0, channel=0, data=[82, 60]),
   midi.NoteOnEvent(tick=480, channel=0, data=[82, 0]),
   midi.NoteOnEvent(tick=0, channel=0, data=[81, 57]),
   midi.NoteOnEvent(tick=480, channel=0, data=[81, 0]),
   midi.NoteOnEvent(tick=0, channel=0, data=[79, 60]),
   midi.NoteOnEvent(tick=120, channel=0, data=[79, 0]),
   midi.NoteOnEvent(tick=0, channel=0, data=[86, 52]),
   midi.NoteOnEvent(tick=120, channel=0, data=[86, 0]),
   midi.NoteOnEvent(tick=0, channel=0, data=[82, 52]),
   midi.NoteOnEvent(tick=120, channel=0, data=[82, 0]),
   midi.NoteOnEvent(tick=0, channel=0, data=[79, 52]),
   midi.NoteOnEvent(tick=120, channel=0, data=[79, 0]),
   midi.NoteOnEvent(tick=0, channel=0, data=[77, 62]),
   midi.NoteOnEvent(tick=120, channel=0, data=[77, 0]),
   midi.NoteOnEvent(tick=0, channel=0, data=[84, 52]),
   midi.NoteOnEvent(tick=120, channel=0, data=[84, 0]),
   midi.NoteOnEvent(tick=0, channel=0, data=[81, 52]),
   midi.NoteOnEvent(tick=120, channel=0, data=[81, 0]),
   midi.NoteOnEvent(tick=0, channel=0, data=[77, 52]),
   midi.NoteOnEvent(tick=120, channel=0, data=[77, 0]),
   midi.NoteOnEvent(tick=0, channel=0, data=[76, 62]),
   midi.NoteOnEvent(tick=120, channel=0, data=[76, 0]),
   midi.NoteOnEvent(tick=0, channel=0, data=[82, 52]),
   midi.NoteOnEvent(tick=120, channel=0, data=[82, 0]),
   midi.NoteOnEvent(tick=0, channel=0, data=[79, 52]),
   midi.NoteOnEvent(tick=120, channel=0, data=[79, 0]),
   midi.NoteOnEvent(tick=0, channel=0, data=[76, 52]),
   midi.NoteOnEvent(tick=120, channel=0, data=[76, 0]),
   midi.NoteOnEvent(tick=0, channel=0, data=[77, 54]),
   midi.NoteOnEvent(tick=120, channel=0, data=[81, 57]),
   midi.NoteOnEvent(tick=12, channel=0, data=[77, 0]),
   midi.NoteOnEvent(tick=108, channel=0, data=[84, 61]),
   midi.NoteOnEvent(tick=12, channel=0, data=[81, 0]),
   midi.NoteOnEvent(tick=108, channel=0, data=[82, 60]),
   midi.NoteOnEvent(tick=12, channel=0, data=[84, 0]),
   midi.NoteOnEvent(tick=108, channel=0, data=[81, 58]),
   midi.NoteOnEvent(tick=12, channel=0, data=[82, 0]),
   midi.NoteOnEvent(tick=108, channel=0, data=[79, 56]),
   midi.NoteOnEvent(tick=12, channel=0, data=[81, 0]),
   midi.NoteOnEvent(tick=108, channel=0, data=[77, 54]),
   midi.NoteOnEvent(tick=12, channel=0, data=[79, 0]),
   midi.NoteOnEvent(tick=108, channel=0, data=[76, 52]),
   midi.NoteOnEvent(tick=12, channel=0, data=[77, 0]),
   midi.NoteOnEvent(tick=108, channel=0, data=[74, 55]),
   midi.NoteOnEvent(tick=12, channel=0, data=[76, 0]),
   midi.NoteOnEvent(tick=108, channel=0, data=[72, 51]),
   midi.NoteOnEvent(tick=12, channel=0, data=[74, 0]),
   midi.NoteOnEvent(tick=108, channel=0, data=[70, 50]),
   midi.NoteOnEvent(tick=12, channel=0, data=[72, 0]),
   midi.NoteOnEvent(tick=108, channel=0, data=[69, 50]),
   midi.NoteOnEvent(tick=12, channel=0, data=[70, 0]),
   midi.NoteOnEvent(tick=108, channel=0, data=[69, 0]),
   midi.NoteOnEvent(tick=0, channel=0, data=[67, 50]),
   midi.NoteOnEvent(tick=120, channel=0, data=[70, 53]),
   midi.NoteOnEvent(tick=12, channel=0, data=[67, 0]),
   midi.NoteOnEvent(tick=108, channel=0, data=[74, 56]),
   midi.NoteOnEvent(tick=12, channel=0, data=[70, 0]),
   midi.NoteOnEvent(tick=108, channel=0, data=[72, 55]),
   midi.NoteOnEvent(tick=12, channel=0, data=[74, 0]),
   midi.NoteOnEvent(tick=108, channel=0, data=[70, 54]),
   midi.NoteOnEvent(tick=12, channel=0, data=[72, 0]),
   midi.NoteOnEvent(tick=108, channel=0, data=[69, 53]),
   midi.NoteOnEvent(tick=12, channel=0, data=[70, 0]),
   midi.NoteOnEvent(tick=108, channel=0, data=[67, 52]),
   midi.NoteOnEvent(tick=12, channel=0, data=[69, 0]),
   midi.NoteOnEvent(tick=108, channel=0, data=[65, 50]),
   midi.NoteOnEvent(tick=12, channel=0, data=[67, 0]),
   midi.NoteOnEvent(tick=108, channel=0, data=[64, 49]),
   midi.NoteOnEvent(tick=12, channel=0, data=[65, 0]),
   midi.NoteOnEvent(tick=108, channel=0, data=[62, 50]),
   midi.NoteOnEvent(tick=12, channel=0, data=[64, 0]),
   midi.NoteOnEvent(tick=108, channel=0, data=[60, 53]),
   midi.NoteOnEvent(tick=12, channel=0, data=[62, 0]),
   midi.NoteOnEvent(tick=108, channel=0, data=[59, 56]),
   midi.NoteOnEvent(tick=12, channel=0, data=[60, 0]),
   midi.NoteOnEvent(tick=108, channel=0, data=[60, 59]),
   midi.NoteOnEvent(tick=12, channel=0, data=[59, 0]),
   midi.NoteOnEvent(tick=108, channel=0, data=[60, 0]),
   midi.NoteOnEvent(tick=120, channel=0, data=[72, 59]),
   midi.NoteOnEvent(tick=120, channel=0, data=[72, 0]),
   midi.NoteOnEvent(tick=120, channel=0, data=[77, 61]),
   midi.NoteOnEvent(tick=120, channel=0, data=[77, 0]),
   midi.NoteOnEvent(tick=120, channel=0, data=[81, 62]),
   midi.NoteOnEvent(tick=120, channel=0, data=[81, 0]),
   midi.NoteOnEvent(tick=120, channel=0, data=[84, 64]),
   midi.NoteOnEvent(tick=120, channel=0, data=[84, 0]),
   midi.NoteOnEvent(tick=120, channel=0, data=[89, 65]),
   midi.NoteOnEvent(tick=120, channel=0, data=[89, 0]),
   midi.NoteOnEvent(tick=120, channel=0, data=[79, 37]),
   midi.NoteOnEvent(tick=60, channel=0, data=[79, 0]),
   midi.NoteOnEvent(tick=0, channel=0, data=[81, 31]),
   midi.NoteOnEvent(tick=60, channel=0, data=[81, 0]),
   midi.NoteOnEvent(tick=0, channel=0, data=[79, 37]),
   midi.NoteOnEvent(tick=60, channel=0, data=[79, 0]),
   midi.NoteOnEvent(tick=0, channel=0, data=[81, 31]),
   midi.NoteOnEvent(tick=60, channel=0, data=[81, 0]),
   midi.NoteOnEvent(tick=0, channel=0, data=[79, 37]),
   midi.NoteOnEvent(tick=60, channel=0, data=[79, 0]),
   midi.NoteOnEvent(tick=0, channel=0, data=[81, 32]),
   midi.NoteOnEvent(tick=60, channel=0, data=[81, 0]),
   midi.NoteOnEvent(tick=0, channel=0, data=[79, 37]),
   midi.NoteOnEvent(tick=60, channel=0, data=[79, 0]),
   midi.NoteOnEvent(tick=0, channel=0, data=[81, 33]),
   midi.NoteOnEvent(tick=60, channel=0, data=[81, 0]),
   midi.NoteOnEvent(tick=0, channel=0, data=[79, 37]),
   midi.NoteOnEvent(tick=60, channel=0, data=[79, 0]),
   midi.NoteOnEvent(tick=0, channel=0, data=[81, 32]),
   midi.NoteOnEvent(tick=60, channel=0, data=[81, 0]),
   midi.NoteOnEvent(tick=0, channel=0, data=[79, 37]),
   midi.NoteOnEvent(tick=60, channel=0, data=[79, 0]),
   midi.NoteOnEvent(tick=0, channel=0, data=[81, 32]),
   midi.NoteOnEvent(tick=60, channel=0, data=[81, 0]),
   midi.NoteOnEvent(tick=0, channel=0, data=[79, 37]),
   midi.NoteOnEvent(tick=60, channel=0, data=[79, 0]),
   midi.NoteOnEvent(tick=0, channel=0, data=[81, 31]),
   midi.NoteOnEvent(tick=60, channel=0, data=[81, 0]),
   midi.NoteOnEvent(tick=0, channel=0, data=[79, 37]),
   midi.NoteOnEvent(tick=60, channel=0, data=[79, 0]),
   midi.NoteOnEvent(tick=0, channel=0, data=[81, 33]),
   midi.NoteOnEvent(tick=60, channel=0, data=[81, 0]),
   midi.NoteOnEvent(tick=0, channel=0, data=[79, 37]),
   midi.NoteOnEvent(tick=60, channel=0, data=[79, 0]),
   midi.NoteOnEvent(tick=0, channel=0, data=[81, 32]),
   midi.NoteOnEvent(tick=60, channel=0, data=[81, 0]),
   midi.NoteOnEvent(tick=0, channel=0, data=[79, 37]),
   midi.NoteOnEvent(tick=80, channel=0, data=[79, 0]),
   midi.NoteOnEvent(tick=0, channel=0, data=[81, 32]),
   midi.NoteOnEvent(tick=80, channel=0, data=[81, 0]),
   midi.NoteOnEvent(tick=0, channel=0, data=[79, 37]),
   midi.NoteOnEvent(tick=80, channel=0, data=[79, 0]),
   midi.NoteOnEvent(tick=0, channel=0, data=[77, 33]),
   midi.NoteOnEvent(tick=60, channel=0, data=[77, 0]),
   midi.NoteOnEvent(tick=0, channel=0, data=[79, 33]),
   midi.NoteOnEvent(tick=60, channel=0, data=[79, 0]),
   midi.NoteOnEvent(tick=0, channel=0, data=[77, 49]),
   midi.NoteOnEvent(tick=480, channel=0, data=[77, 0]),
   midi.NoteOnEvent(tick=960, channel=0, data=[82, 46]),
   midi.NoteOnEvent(tick=480, channel=0, data=[82, 0]),
   midi.NoteOnEvent(tick=0, channel=0, data=[84, 50]),
   midi.NoteOnEvent(tick=480, channel=0, data=[84, 0]),
   midi.NoteOnEvent(tick=0, channel=0, data=[86, 51]),
   midi.NoteOnEvent(tick=480, channel=0, data=[86, 0]),
   midi.NoteOnEvent(tick=0, channel=0, data=[84, 51]),
   midi.NoteOnEvent(tick=720, channel=0, data=[84, 0]),
   midi.NoteOnEvent(tick=0, channel=0, data=[86, 48]),
   midi.NoteOnEvent(tick=120, channel=0, data=[84, 43]),
   midi.NoteOnEvent(tick=12, channel=0, data=[86, 0]),
   midi.NoteOnEvent(tick=108, channel=0, data=[82, 50]),
   midi.NoteOnEvent(tick=12, channel=0, data=[84, 0]),
   midi.NoteOnEvent(tick=108, channel=0, data=[81, 48]),
   midi.NoteOnEvent(tick=12, channel=0, data=[82, 0]),
   midi.NoteOnEvent(tick=108, channel=0, data=[79, 47]),
   midi.NoteOnEvent(tick=12, channel=0, data=[81, 0]),
   midi.NoteOnEvent(tick=108, channel=0, data=[77, 45]),
   midi.NoteOnEvent(tick=12, channel=0, data=[79, 0]),
   midi.NoteOnEvent(tick=108, channel=0, data=[77, 0]),
   midi.NoteOnEvent(tick=0, channel=0, data=[81, 48]),
   midi.NoteOnEvent(tick=720, channel=0, data=[81, 0]),
   midi.NoteOnEvent(tick=0, channel=0, data=[82, 40]),
   midi.NoteOnEvent(tick=240, channel=0, data=[82, 0]),
   midi.NoteOnEvent(tick=0, channel=0, data=[79, 44]),
   midi.NoteOnEvent(tick=480, channel=0, data=[79, 0]),
   midi.NoteOnEvent(tick=0, channel=0, data=[77, 46]),
   midi.NoteOnEvent(tick=480, channel=0, data=[77, 0]),
   midi.NoteOnEvent(tick=960, channel=0, data=[70, 52]),
   midi.NoteOnEvent(tick=240, channel=0, data=[70, 0]),
   midi.NoteOnEvent(tick=0, channel=0, data=[82, 47]),
   midi.NoteOnEvent(tick=240, channel=0, data=[82, 0]),
   midi.NoteOnEvent(tick=0, channel=0, data=[72, 54]),
   midi.NoteOnEvent(tick=240, channel=0, data=[72, 0]),
   midi.NoteOnEvent(tick=0, channel=0, data=[84, 47]),
   midi.NoteOnEvent(tick=240, channel=0, data=[84, 0]),
   midi.NoteOnEvent(tick=0, channel=0, data=[74, 58]),
   midi.NoteOnEvent(tick=240, channel=0, data=[74, 0]),
   midi.NoteOnEvent(tick=0, channel=0, data=[86, 52]),
   midi.NoteOnEvent(tick=240, channel=0, data=[86, 0]),
   midi.NoteOnEvent(tick=0, channel=0, data=[84, 61]),
   midi.NoteOnEvent(tick=240, channel=0, data=[84, 0]),
   midi.NoteOnEvent(tick=0, channel=0, data=[86, 54]),
   midi.NoteOnEvent(tick=120, channel=0, data=[88, 58]),
   midi.NoteOnEvent(tick=12, channel=0, data=[86, 0]),
   midi.NoteOnEvent(tick=108, channel=0, data=[89, 61]),
   midi.NoteOnEvent(tick=12, channel=0, data=[88, 0]),
   midi.NoteOnEvent(tick=108, channel=0, data=[88, 61]),
   midi.NoteOnEvent(tick=12, channel=0, data=[89, 0]),
   midi.NoteOnEvent(tick=108, channel=0, data=[86, 60]),
   midi.NoteOnEvent(tick=12, channel=0, data=[88, 0]),
   midi.NoteOnEvent(tick=108, channel=0, data=[84, 58]),
   midi.NoteOnEvent(tick=12, channel=0, data=[86, 0]),
   midi.NoteOnEvent(tick=108, channel=0, data=[82, 57]),
   midi.NoteOnEvent(tick=12, channel=0, data=[84, 0]),
   midi.NoteOnEvent(tick=108, channel=0, data=[81, 55]),
   midi.NoteOnEvent(tick=12, channel=0, data=[82, 0]),
   midi.NoteOnEvent(tick=108, channel=0, data=[79, 54]),
   midi.NoteOnEvent(tick=12, channel=0, data=[81, 0]),
   midi.NoteOnEvent(tick=108, channel=0, data=[77, 52]),
   midi.NoteOnEvent(tick=12, channel=0, data=[79, 0]),
   midi.NoteOnEvent(tick=108, channel=0, data=[77, 0]),
   midi.NoteOnEvent(tick=0, channel=0, data=[81, 62]),
   midi.NoteOnEvent(tick=720, channel=0, data=[81, 0]),
   midi.NoteOnEvent(tick=0, channel=0, data=[82, 56]),
   midi.NoteOnEvent(tick=240, channel=0, data=[82, 0]),
   midi.NoteOnEvent(tick=0, channel=0, data=[79, 62]),
   midi.NoteOnEvent(tick=480, channel=0, data=[79, 0]),
   midi.NoteOnEvent(tick=0, channel=0, data=[77, 67]),
   midi.NoteOnEvent(tick=480, channel=0, data=[77, 0]),
   midi.NoteOnEvent(tick=120, channel=0, data=[84, 60]),
   midi.NoteOnEvent(tick=120, channel=0, data=[84, 0]),
   midi.NoteOnEvent(tick=0, channel=0, data=[86, 65]),
   midi.NoteOnEvent(tick=120, channel=0, data=[84, 60]),
   midi.NoteOnEvent(tick=12, channel=0, data=[86, 0]),
   midi.NoteOnEvent(tick=108, channel=0, data=[82, 64]),
   midi.NoteOnEvent(tick=12, channel=0, data=[84, 0]),
   midi.NoteOnEvent(tick=108, channel=0, data=[81, 62]),
   midi.NoteOnEvent(tick=12, channel=0, data=[82, 0]),
   midi.NoteOnEvent(tick=108, channel=0, data=[82, 60]),
   midi.NoteOnEvent(tick=12, channel=0, data=[81, 0]),
   midi.NoteOnEvent(tick=108, channel=0, data=[79, 58]),
   midi.NoteOnEvent(tick=12, channel=0, data=[82, 0]),
   midi.NoteOnEvent(tick=108, channel=0, data=[77, 68]),
   midi.NoteOnEvent(tick=12, channel=0, data=[79, 0]),
   midi.NoteOnEvent(tick=468, channel=0, data=[77, 0]),
   midi.NoteOnEvent(tick=120, channel=0, data=[72, 60]),
   midi.NoteOnEvent(tick=120, channel=0, data=[74, 65]),
   midi.NoteOnEvent(tick=12, channel=0, data=[72, 0]),
   midi.NoteOnEvent(tick=108, channel=0, data=[72, 60]),
   midi.NoteOnEvent(tick=12, channel=0, data=[74, 0]),
   midi.NoteOnEvent(tick=108, channel=0, data=[70, 64]),
   midi.NoteOnEvent(tick=12, channel=0, data=[72, 0]),
   midi.NoteOnEvent(tick=108, channel=0, data=[69, 62]),
   midi.NoteOnEvent(tick=12, channel=0, data=[70, 0]),
   midi.NoteOnEvent(tick=108, channel=0, data=[70, 60]),
   midi.NoteOnEvent(tick=12, channel=0, data=[69, 0]),
   midi.NoteOnEvent(tick=108, channel=0, data=[67, 58]),
   midi.NoteOnEvent(tick=12, channel=0, data=[70, 0]),
   midi.NoteOnEvent(tick=108, channel=0, data=[65, 71]),
   midi.NoteOnEvent(tick=12, channel=0, data=[67, 0]),
   midi.NoteOnEvent(tick=108, channel=0, data=[65, 0]),
   midi.NoteOnEvent(tick=360, channel=0, data=[69, 59]),
   midi.NoteOnEvent(tick=0, channel=0, data=[72, 59]),
   midi.NoteOnEvent(tick=0, channel=0, data=[77, 77]),
   midi.NoteOnEvent(tick=480, channel=0, data=[77, 0]),
   midi.NoteOnEvent(tick=0, channel=0, data=[72, 0]),
   midi.NoteOnEvent(tick=0, channel=0, data=[69, 0]),
   midi.NoteOnEvent(tick=480, channel=0, data=[66, 71]),
   midi.NoteOnEvent(tick=480, channel=0, data=[66, 0]),
   midi.NoteOnEvent(tick=0, channel=0, data=[68, 59]),
   midi.NoteOnEvent(tick=0, channel=0, data=[72, 59]),
   midi.NoteOnEvent(tick=0, channel=0, data=[78, 77]),
   midi.NoteOnEvent(tick=480, channel=0, data=[78, 0]),
   midi.NoteOnEvent(tick=0, channel=0, data=[72, 0]),
   midi.NoteOnEvent(tick=0, channel=0, data=[68, 0]),
   midi.NoteOnEvent(tick=480, channel=0, data=[61, 43]),
   midi.NoteOnEvent(tick=960, channel=0, data=[61, 0]),
   midi.NoteOnEvent(tick=0, channel=0, data=[63, 36]),
   midi.NoteOnEvent(tick=120, channel=0, data=[61, 36]),
   midi.NoteOnEvent(tick=12, channel=0, data=[63, 0]),
   midi.NoteOnEvent(tick=108, channel=0, data=[60, 36]),
   midi.NoteOnEvent(tick=12, channel=0, data=[61, 0]),
   midi.NoteOnEvent(tick=108, channel=0, data=[61, 36]),
   midi.NoteOnEvent(tick=12, channel=0, data=[60, 0]),
   midi.NoteOnEvent(tick=108, channel=0, data=[61, 0]),
   midi.NoteOnEvent(tick=0, channel=0, data=[70, 42]),
   midi.NoteOnEvent(tick=240, channel=0, data=[70, 0]),
   midi.NoteOnEvent(tick=0, channel=0, data=[68, 37]),
   midi.NoteOnEvent(tick=234, channel=0, data=[68, 0]),
   midi.NoteOnEvent(tick=6, channel=0, data=[68, 43]),
   midi.NoteOnEvent(tick=480, channel=0, data=[68, 0]),
   midi.NoteOnEvent(tick=0, channel=0, data=[68, 38]),
   midi.NoteOnEvent(tick=480, channel=0, data=[68, 0]),
   midi.NoteOnEvent(tick=0, channel=0, data=[68, 39]),
   midi.NoteOnEvent(tick=240, channel=0, data=[73, 45]),
   midi.NoteOnEvent(tick=12, channel=0, data=[68, 0]),
   midi.NoteOnEvent(tick=228, channel=0, data=[72, 44]),
   midi.NoteOnEvent(tick=12, channel=0, data=[73, 0]),
   midi.NoteOnEvent(tick=228, channel=0, data=[71, 41]),
   midi.NoteOnEvent(tick=12, channel=0, data=[72, 0]),
   midi.NoteOnEvent(tick=228, channel=0, data=[70, 40]),
   midi.NoteOnEvent(tick=12, channel=0, data=[71, 0]),
   midi.NoteOnEvent(tick=228, channel=0, data=[69, 38]),
   midi.NoteOnEvent(tick=12, channel=0, data=[70, 0]),
   midi.NoteOnEvent(tick=228, channel=0, data=[68, 41]),
   midi.NoteOnEvent(tick=12, channel=0, data=[69, 0]),
   midi.NoteOnEvent(tick=468, channel=0, data=[68, 0]),
   midi.NoteOnEvent(tick=960, channel=0, data=[61, 45]),
   midi.NoteOnEvent(tick=960, channel=0, data=[61, 0]),
   midi.NoteOnEvent(tick=0, channel=0, data=[63, 42]),
   midi.NoteOnEvent(tick=120, channel=0, data=[61, 39]),
   midi.NoteOnEvent(tick=12, channel=0, data=[63, 0]),
   midi.NoteOnEvent(tick=108, channel=0, data=[60, 42]),
   midi.NoteOnEvent(tick=12, channel=0, data=[61, 0]),
   midi.NoteOnEvent(tick=108, channel=0, data=[61, 40]),
   midi.NoteOnEvent(tick=12, channel=0, data=[60, 0]),
   midi.NoteOnEvent(tick=108, channel=0, data=[61, 0]),
   midi.NoteOnEvent(tick=0, channel=0, data=[70, 54]),
   midi.NoteOnEvent(tick=240, channel=0, data=[70, 0]),
   midi.NoteOnEvent(tick=0, channel=0, data=[69, 48]),
   midi.NoteOnEvent(tick=240, channel=0, data=[69, 0]),
   midi.NoteOnEvent(tick=0, channel=0, data=[69, 53]),
   midi.NoteOnEvent(tick=480, channel=0, data=[69, 0]),
   midi.NoteOnEvent(tick=0, channel=0, data=[69, 47]),
   midi.NoteOnEvent(tick=480, channel=0, data=[69, 0]),
   midi.NoteOnEvent(tick=0, channel=0, data=[70, 50]),
   midi.NoteOnEvent(tick=240, channel=0, data=[77, 54]),
   midi.NoteOnEvent(tick=12, channel=0, data=[70, 0]),
   midi.NoteOnEvent(tick=228, channel=0, data=[73, 55]),
   midi.NoteOnEvent(tick=12, channel=0, data=[77, 0]),
   midi.NoteOnEvent(tick=228, channel=0, data=[72, 53]),
   midi.NoteOnEvent(tick=12, channel=0, data=[73, 0]),
   midi.NoteOnEvent(tick=228, channel=0, data=[70, 51]),
   midi.NoteOnEvent(tick=12, channel=0, data=[72, 0]),
   midi.NoteOnEvent(tick=228, channel=0, data=[68, 50]),
   midi.NoteOnEvent(tick=12, channel=0, data=[70, 0]),
   midi.NoteOnEvent(tick=228, channel=0, data=[67, 50]),
   midi.NoteOnEvent(tick=12, channel=0, data=[68, 0]),
   midi.NoteOnEvent(tick=468, channel=0, data=[67, 0]),
   midi.NoteOnEvent(tick=960, channel=0, data=[68, 59]),
   midi.NoteOnEvent(tick=240, channel=0, data=[80, 62]),
   midi.NoteOnEvent(tick=12, channel=0, data=[68, 0]),
   midi.NoteOnEvent(tick=228, channel=0, data=[77, 61]),
   midi.NoteOnEvent(tick=12, channel=0, data=[80, 0]),
   midi.NoteOnEvent(tick=228, channel=0, data=[75, 60]),
   midi.NoteOnEvent(tick=12, channel=0, data=[77, 0]),
   midi.NoteOnEvent(tick=228, channel=0, data=[74, 58]),
   midi.NoteOnEvent(tick=12, channel=0, data=[75, 0]),
   midi.NoteOnEvent(tick=228, channel=0, data=[72, 57]),
   midi.NoteOnEvent(tick=12, channel=0, data=[74, 0]),
   midi.NoteOnEvent(tick=228, channel=0, data=[71, 62]),
   midi.NoteOnEvent(tick=12, channel=0, data=[72, 0]),
   midi.NoteOnEvent(tick=468, channel=0, data=[71, 0]),
   midi.NoteOnEvent(tick=960, channel=0, data=[72, 61]),
   midi.NoteOnEvent(tick=240, channel=0, data=[87, 64]),
   midi.NoteOnEvent(tick=12, channel=0, data=[72, 0]),
   midi.NoteOnEvent(tick=228, channel=0, data=[84, 61]),
   midi.NoteOnEvent(tick=12, channel=0, data=[87, 0]),
   midi.NoteOnEvent(tick=228, channel=0, data=[82, 60]),
   midi.NoteOnEvent(tick=12, channel=0, data=[84, 0]),
   midi.NoteOnEvent(tick=228, channel=0, data=[80, 55]),
   midi.NoteOnEvent(tick=12, channel=0, data=[82, 0]),
   midi.NoteOnEvent(tick=228, channel=0, data=[79, 56]),
   midi.NoteOnEvent(tick=12, channel=0, data=[80, 0]),
   midi.NoteOnEvent(tick=228, channel=0, data=[78, 60]),
   midi.NoteOnEvent(tick=12, channel=0, data=[79, 0]),
   midi.NoteOnEvent(tick=468, channel=0, data=[78, 0]),
   midi.NoteOnEvent(tick=960, channel=0, data=[79, 58]),
   midi.NoteOnEvent(tick=240, channel=0, data=[82, 60]),
   midi.NoteOnEvent(tick=12, channel=0, data=[79, 0]),
   midi.NoteOnEvent(tick=228, channel=0, data=[79, 58]),
   midi.NoteOnEvent(tick=12, channel=0, data=[82, 0]),
   midi.NoteOnEvent(tick=228, channel=0, data=[77, 55]),
   midi.NoteOnEvent(tick=12, channel=0, data=[79, 0]),
   midi.NoteOnEvent(tick=228, channel=0, data=[75, 53]),
   midi.NoteOnEvent(tick=12, channel=0, data=[77, 0]),
   midi.NoteOnEvent(tick=228, channel=0, data=[74, 50]),
   midi.NoteOnEvent(tick=12, channel=0, data=[75, 0]),
   midi.NoteOnEvent(tick=228, channel=0, data=[73, 57]),
   midi.NoteOnEvent(tick=12, channel=0, data=[74, 0]),
   midi.NoteOnEvent(tick=468, channel=0, data=[73, 0]),
   midi.NoteOnEvent(tick=1080, channel=0, data=[74, 46]),
   midi.NoteOnEvent(tick=120, channel=0, data=[74, 0]),
   midi.NoteOnEvent(tick=0, channel=0, data=[73, 49]),
   midi.NoteOnEvent(tick=120, channel=0, data=[73, 0]),
   midi.NoteOnEvent(tick=0, channel=0, data=[74, 44]),
   midi.NoteOnEvent(tick=120, channel=0, data=[74, 0]),
   midi.NoteOnEvent(tick=0, channel=0, data=[76, 49]),
   midi.NoteOnEvent(tick=120, channel=0, data=[76, 0]),
   midi.NoteOnEvent(tick=0, channel=0, data=[74, 44]),
   midi.NoteOnEvent(tick=120, channel=0, data=[74, 0]),
   midi.NoteOnEvent(tick=0, channel=0, data=[73, 49]),
   midi.NoteOnEvent(tick=120, channel=0, data=[73, 0]),
   midi.NoteOnEvent(tick=0, channel=0, data=[74, 44]),
   midi.NoteOnEvent(tick=120, channel=0, data=[74, 0]),
   midi.NoteOnEvent(tick=120, channel=0, data=[74, 49]),
   midi.NoteOnEvent(tick=120, channel=0, data=[74, 0]),
   midi.NoteOnEvent(tick=0, channel=0, data=[78, 54]),
   midi.NoteOnEvent(tick=120, channel=0, data=[78, 0]),
   midi.NoteOnEvent(tick=0, channel=0, data=[74, 49]),
   midi.NoteOnEvent(tick=120, channel=0, data=[74, 0]),
   midi.NoteOnEvent(tick=120, channel=0, data=[74, 53]),
   midi.NoteOnEvent(tick=120, channel=0, data=[74, 0]),
   midi.NoteOnEvent(tick=0, channel=0, data=[79, 57]),
   midi.NoteOnEvent(tick=120, channel=0, data=[79, 0]),
   midi.NoteOnEvent(tick=0, channel=0, data=[74, 52]),
   midi.NoteOnEvent(tick=120, channel=0, data=[74, 0]),
   midi.NoteOnEvent(tick=120, channel=0, data=[74, 55]),
   midi.NoteOnEvent(tick=120, channel=0, data=[74, 0]),
   midi.NoteOnEvent(tick=0, channel=0, data=[84, 61]),
   midi.NoteOnEvent(tick=120, channel=0, data=[84, 0]),
   midi.NoteOnEvent(tick=0, channel=0, data=[74, 57]),
   midi.NoteOnEvent(tick=120, channel=0, data=[74, 0]),
   midi.NoteOnEvent(tick=120, channel=0, data=[74, 57]),
   midi.NoteOnEvent(tick=120, channel=0, data=[74, 0]),
   midi.NoteOnEvent(tick=0, channel=0, data=[82, 64]),
   midi.NoteOnEvent(tick=120, channel=0, data=[82, 0]),
   midi.NoteOnEvent(tick=0, channel=0, data=[74, 57]),
   midi.NoteOnEvent(tick=120, channel=0, data=[74, 0]),
   midi.NoteOnEvent(tick=0, channel=0, data=[81, 64]),
   midi.NoteOnEvent(tick=120, channel=0, data=[81, 0]),
   midi.NoteOnEvent(tick=0, channel=0, data=[78, 57]),
   midi.NoteOnEvent(tick=120, channel=0, data=[78, 0]),
   midi.NoteOnEvent(tick=0, channel=0, data=[76, 59]),
   midi.NoteOnEvent(tick=120, channel=0, data=[76, 0]),
   midi.NoteOnEvent(tick=0, channel=0, data=[74, 57]),
   midi.NoteOnEvent(tick=120, channel=0, data=[74, 0]),
   midi.NoteOnEvent(tick=0, channel=0, data=[73, 57]),
   midi.NoteOnEvent(tick=120, channel=0, data=[73, 0]),
   midi.NoteOnEvent(tick=0, channel=0, data=[74, 59]),
   midi.NoteOnEvent(tick=120, channel=0, data=[74, 0]),
   midi.NoteOnEvent(tick=0, channel=0, data=[76, 60]),
   midi.NoteOnEvent(tick=120, channel=0, data=[76, 0]),
   midi.NoteOnEvent(tick=0, channel=0, data=[74, 56]),
   midi.NoteOnEvent(tick=120, channel=0, data=[74, 0]),
   midi.NoteOnEvent(tick=120, channel=0, data=[74, 49]),
   midi.NoteOnEvent(tick=120, channel=0, data=[74, 0]),
   midi.NoteOnEvent(tick=0, channel=0, data=[78, 53]),
   midi.NoteOnEvent(tick=120, channel=0, data=[78, 0]),
   midi.NoteOnEvent(tick=0, channel=0, data=[74, 49]),
   midi.NoteOnEvent(tick=120, channel=0, data=[74, 0]),
   midi.NoteOnEvent(tick=120, channel=0, data=[74, 52]),
   midi.NoteOnEvent(tick=120, channel=0, data=[74, 0]),
   midi.NoteOnEvent(tick=0, channel=0, data=[79, 58]),
   midi.NoteOnEvent(tick=120, channel=0, data=[79, 0]),
   midi.NoteOnEvent(tick=0, channel=0, data=[74, 54]),
   midi.NoteOnEvent(tick=120, channel=0, data=[74, 0]),
   midi.NoteOnEvent(tick=120, channel=0, data=[74, 55]),
   midi.NoteOnEvent(tick=120, channel=0, data=[74, 0]),
   midi.NoteOnEvent(tick=0, channel=0, data=[84, 61]),
   midi.NoteOnEvent(tick=120, channel=0, data=[84, 0]),
   midi.NoteOnEvent(tick=0, channel=0, data=[74, 55]),
   midi.NoteOnEvent(tick=120, channel=0, data=[74, 0]),
   midi.NoteOnEvent(tick=120, channel=0, data=[74, 49]),
   midi.NoteOnEvent(tick=120, channel=0, data=[74, 0]),
   midi.NoteOnEvent(tick=0, channel=0, data=[82, 68]),
   midi.NoteOnEvent(tick=120, channel=0, data=[82, 0]),
   midi.NoteOnEvent(tick=0, channel=0, data=[74, 62]),
   midi.NoteOnEvent(tick=120, channel=0, data=[74, 0]),
   midi.NoteOnEvent(tick=0, channel=0, data=[81, 70]),
   midi.NoteOnEvent(tick=120, channel=0, data=[81, 0]),
   midi.NoteOnEvent(tick=0, channel=0, data=[86, 60]),
   midi.NoteOnEvent(tick=120, channel=0, data=[86, 0]),
   midi.NoteOnEvent(tick=0, channel=0, data=[81, 69]),
   midi.NoteOnEvent(tick=120, channel=0, data=[81, 0]),
   midi.NoteOnEvent(tick=0, channel=0, data=[78, 57]),
   midi.NoteOnEvent(tick=120, channel=0, data=[78, 0]),
   midi.NoteOnEvent(tick=0, channel=0, data=[74, 67]),
   midi.NoteOnEvent(tick=120, channel=0, data=[74, 0]),
   midi.NoteOnEvent(tick=0, channel=0, data=[81, 55]),
   midi.NoteOnEvent(tick=120, channel=0, data=[81, 0]),
   midi.NoteOnEvent(tick=0, channel=0, data=[78, 61]),
   midi.NoteOnEvent(tick=120, channel=0, data=[78, 0]),
   midi.NoteOnEvent(tick=0, channel=0, data=[74, 54]),
   midi.NoteOnEvent(tick=120, channel=0, data=[74, 0]),
   midi.NoteOnEvent(tick=0, channel=0, data=[69, 63]),
   midi.NoteOnEvent(tick=120, channel=0, data=[69, 0]),
   midi.NoteOnEvent(tick=0, channel=0, data=[74, 55]),
   midi.NoteOnEvent(tick=120, channel=0, data=[74, 0]),
   midi.NoteOnEvent(tick=0, channel=0, data=[69, 65]),
   midi.NoteOnEvent(tick=120, channel=0, data=[69, 0]),
   midi.NoteOnEvent(tick=0, channel=0, data=[66, 59]),
   midi.NoteOnEvent(tick=120, channel=0, data=[66, 0]),
   midi.NoteOnEvent(tick=0, channel=0, data=[62, 85]),
   midi.NoteOnEvent(tick=120, channel=0, data=[62, 0]),
   midi.NoteOnEvent(tick=360, channel=0, data=[69, 62]),
   midi.NoteOnEvent(tick=0, channel=0, data=[66, 62]),
   midi.NoteOnEvent(tick=0, channel=0, data=[74, 73]),
   midi.NoteOnEvent(tick=480, channel=0, data=[74, 0]),
   midi.NoteOnEvent(tick=0, channel=0, data=[66, 0]),
   midi.NoteOnEvent(tick=0, channel=0, data=[69, 0]),
   midi.NoteOnEvent(tick=3600, channel=0, data=[86, 45]),
   midi.NoteOnEvent(tick=60, channel=0, data=[86, 0]),
   midi.NoteOnEvent(tick=180, channel=0, data=[86, 49]),
   midi.NoteOnEvent(tick=60, channel=0, data=[86, 0]),
   midi.NoteOnEvent(tick=180, channel=0, data=[86, 43]),
   midi.NoteOnEvent(tick=60, channel=0, data=[86, 0]),
   midi.NoteOnEvent(tick=180, channel=0, data=[86, 46]),
   midi.NoteOnEvent(tick=60, channel=0, data=[86, 0]),
   midi.NoteOnEvent(tick=180, channel=0, data=[86, 40]),
   midi.NoteOnEvent(tick=60, channel=0, data=[86, 0]),
   midi.NoteOnEvent(tick=180, channel=0, data=[87, 45]),
   midi.NoteOnEvent(tick=240, channel=0, data=[86, 40]),
   midi.NoteOnEvent(tick=12, channel=0, data=[87, 0]),
   midi.NoteOnEvent(tick=228, channel=0, data=[84, 43]),
   midi.NoteOnEvent(tick=12, channel=0, data=[86, 0]),
   midi.NoteOnEvent(tick=228, channel=0, data=[83, 40]),
   midi.NoteOnEvent(tick=12, channel=0, data=[84, 0]),
   midi.NoteOnEvent(tick=228, channel=0, data=[80, 45]),
   midi.NoteOnEvent(tick=12, channel=0, data=[83, 0]),
   midi.NoteOnEvent(tick=228, channel=0, data=[79, 39]),
   midi.NoteOnEvent(tick=12, channel=0, data=[80, 0]),
   midi.NoteOnEvent(tick=228, channel=0, data=[79, 0]),
   midi.NoteOnEvent(tick=0, channel=0, data=[79, 41]),
   midi.NoteOnEvent(tick=60, channel=0, data=[79, 0]),
   midi.NoteOnEvent(tick=0, channel=0, data=[80, 39]),
   midi.NoteOnEvent(tick=60, channel=0, data=[80, 0]),
   midi.NoteOnEvent(tick=0, channel=0, data=[79, 49]),
   midi.NoteOnEvent(tick=120, channel=0, data=[79, 0]),
   midi.NoteOnEvent(tick=0, channel=0, data=[77, 44]),
   midi.NoteOnEvent(tick=230, channel=0, data=[77, 0]),
   midi.NoteOnEvent(tick=10, channel=0, data=[77, 46]),
   midi.NoteOnEvent(tick=480, channel=0, data=[77, 0]),
   midi.NoteOnEvent(tick=2160, channel=0, data=[77, 45]),
   midi.NoteOnEvent(tick=60, channel=0, data=[77, 0]),
   midi.NoteOnEvent(tick=180, channel=0, data=[77, 48]),
   midi.NoteOnEvent(tick=60, channel=0, data=[77, 0]),
   midi.NoteOnEvent(tick=180, channel=0, data=[77, 42]),
   midi.NoteOnEvent(tick=60, channel=0, data=[77, 0]),
   midi.NoteOnEvent(tick=180, channel=0, data=[77, 44]),
   midi.NoteOnEvent(tick=60, channel=0, data=[77, 0]),
   midi.NoteOnEvent(tick=180, channel=0, data=[77, 40]),
   midi.NoteOnEvent(tick=60, channel=0, data=[77, 0]),
   midi.NoteOnEvent(tick=180, channel=0, data=[79, 45]),
   midi.NoteOnEvent(tick=240, channel=0, data=[77, 40]),
   midi.NoteOnEvent(tick=12, channel=0, data=[79, 0]),
   midi.NoteOnEvent(tick=228, channel=0, data=[75, 40]),
   midi.NoteOnEvent(tick=12, channel=0, data=[77, 0]),
   midi.NoteOnEvent(tick=228, channel=0, data=[74, 40]),
   midi.NoteOnEvent(tick=12, channel=0, data=[75, 0]),
   midi.NoteOnEvent(tick=228, channel=0, data=[72, 45]),
   midi.NoteOnEvent(tick=12, channel=0, data=[74, 0]),
   midi.NoteOnEvent(tick=228, channel=0, data=[71, 39]),
   midi.NoteOnEvent(tick=12, channel=0, data=[72, 0]),
   midi.NoteOnEvent(tick=228, channel=0, data=[71, 0]),
   midi.NoteOnEvent(tick=0, channel=0, data=[72, 48]),
   midi.NoteOnEvent(tick=960, channel=0, data=[67, 42]),
   midi.NoteOnEvent(tick=20, channel=0, data=[72, 0]),
   midi.NoteOnEvent(tick=460, channel=0, data=[67, 0]),
   midi.NoteOnEvent(tick=0, channel=0, data=[63, 48]),
   midi.NoteOnEvent(tick=960, channel=0, data=[67, 45]),
   midi.NoteOnEvent(tick=20, channel=0, data=[63, 0]),
   midi.NoteOnEvent(tick=460, channel=0, data=[67, 0]),
   midi.NoteOnEvent(tick=0, channel=0, data=[72, 50]),
   midi.NoteOnEvent(tick=960, channel=0, data=[75, 52]),
   midi.NoteOnEvent(tick=20, channel=0, data=[72, 0]),
   midi.NoteOnEvent(tick=460, channel=0, data=[75, 0]),
   midi.NoteOnEvent(tick=0, channel=0, data=[79, 56]),
   midi.NoteOnEvent(tick=480, channel=0, data=[79, 0]),
   midi.NoteOnEvent(tick=960, channel=0, data=[76, 58]),
   midi.NoteOnEvent(tick=960, channel=0, data=[72, 52]),
   midi.NoteOnEvent(tick=20, channel=0, data=[76, 0]),
   midi.NoteOnEvent(tick=460, channel=0, data=[72, 0]),
   midi.NoteOnEvent(tick=0, channel=0, data=[67, 55]),
   midi.NoteOnEvent(tick=960, channel=0, data=[72, 49]),
   midi.NoteOnEvent(tick=20, channel=0, data=[67, 0]),
   midi.NoteOnEvent(tick=460, channel=0, data=[72, 0]),
   midi.NoteOnEvent(tick=0, channel=0, data=[76, 53]),
   midi.NoteOnEvent(tick=960, channel=0, data=[79, 54]),
   midi.NoteOnEvent(tick=20, channel=0, data=[76, 0]),
   midi.NoteOnEvent(tick=460, channel=0, data=[79, 0]),
   midi.NoteOnEvent(tick=0, channel=0, data=[82, 58]),
   midi.NoteOnEvent(tick=480, channel=0, data=[82, 0]),
   midi.NoteOnEvent(tick=1200, channel=0, data=[80, 45]),
   midi.NoteOnEvent(tick=60, channel=0, data=[80, 0]),
   midi.NoteOnEvent(tick=180, channel=0, data=[80, 49]),
   midi.NoteOnEvent(tick=60, channel=0, data=[80, 0]),
   midi.NoteOnEvent(tick=180, channel=0, data=[80, 43]),
   midi.NoteOnEvent(tick=60, channel=0, data=[80, 0]),
   midi.NoteOnEvent(tick=180, channel=0, data=[80, 46]),
   midi.NoteOnEvent(tick=60, channel=0, data=[80, 0]),
   midi.NoteOnEvent(tick=180, channel=0, data=[80, 40]),
   midi.NoteOnEvent(tick=60, channel=0, data=[80, 0]),
   midi.NoteOnEvent(tick=180, channel=0, data=[82, 45]),
   midi.NoteOnEvent(tick=240, channel=0, data=[80, 40]),
   midi.NoteOnEvent(tick=12, channel=0, data=[82, 0]),
   midi.NoteOnEvent(tick=228, channel=0, data=[79, 43]),
   midi.NoteOnEvent(tick=12, channel=0, data=[80, 0]),
   midi.NoteOnEvent(tick=228, channel=0, data=[77, 40]),
   midi.NoteOnEvent(tick=12, channel=0, data=[79, 0]),
   midi.NoteOnEvent(tick=228, channel=0, data=[75, 45]),
   midi.NoteOnEvent(tick=12, channel=0, data=[77, 0]),
   midi.NoteOnEvent(tick=228, channel=0, data=[74, 39]),
   midi.NoteOnEvent(tick=12, channel=0, data=[75, 0]),
   midi.NoteOnEvent(tick=228, channel=0, data=[74, 0]),
   midi.NoteOnEvent(tick=240, channel=0, data=[79, 45]),
   midi.NoteOnEvent(tick=60, channel=0, data=[79, 0]),
   midi.NoteOnEvent(tick=180, channel=0, data=[79, 49]),
   midi.NoteOnEvent(tick=60, channel=0, data=[79, 0]),
   midi.NoteOnEvent(tick=180, channel=0, data=[79, 43]),
   midi.NoteOnEvent(tick=60, channel=0, data=[79, 0]),
   midi.NoteOnEvent(tick=180, channel=0, data=[79, 46]),
   midi.NoteOnEvent(tick=60, channel=0, data=[79, 0]),
   midi.NoteOnEvent(tick=180, channel=0, data=[79, 40]),
   midi.NoteOnEvent(tick=60, channel=0, data=[79, 0]),
   midi.NoteOnEvent(tick=180, channel=0, data=[80, 45]),
   midi.NoteOnEvent(tick=240, channel=0, data=[79, 40]),
   midi.NoteOnEvent(tick=12, channel=0, data=[80, 0]),
   midi.NoteOnEvent(tick=228, channel=0, data=[77, 43]),
   midi.NoteOnEvent(tick=12, channel=0, data=[79, 0]),
   midi.NoteOnEvent(tick=228, channel=0, data=[75, 40]),
   midi.NoteOnEvent(tick=12, channel=0, data=[77, 0]),
   midi.NoteOnEvent(tick=228, channel=0, data=[74, 45]),
   midi.NoteOnEvent(tick=12, channel=0, data=[75, 0]),
   midi.NoteOnEvent(tick=228, channel=0, data=[72, 39]),
   midi.NoteOnEvent(tick=12, channel=0, data=[74, 0]),
   midi.NoteOnEvent(tick=228, channel=0, data=[72, 0]),
   midi.NoteOnEvent(tick=240, channel=0, data=[77, 45]),
   midi.NoteOnEvent(tick=60, channel=0, data=[77, 0]),
   midi.NoteOnEvent(tick=180, channel=0, data=[77, 49]),
   midi.NoteOnEvent(tick=60, channel=0, data=[77, 0]),
   midi.NoteOnEvent(tick=180, channel=0, data=[77, 43]),
   midi.NoteOnEvent(tick=60, channel=0, data=[77, 0]),
   midi.NoteOnEvent(tick=180, channel=0, data=[77, 46]),
   midi.NoteOnEvent(tick=60, channel=0, data=[77, 0]),
   midi.NoteOnEvent(tick=180, channel=0, data=[77, 40]),
   midi.NoteOnEvent(tick=60, channel=0, data=[77, 0]),
   midi.NoteOnEvent(tick=180, channel=0, data=[79, 51]),
   midi.NoteOnEvent(tick=240, channel=0, data=[77, 50]),
   midi.NoteOnEvent(tick=12, channel=0, data=[79, 0]),
   midi.NoteOnEvent(tick=228, channel=0, data=[75, 49]),
   midi.NoteOnEvent(tick=12, channel=0, data=[77, 0]),
   midi.NoteOnEvent(tick=228, channel=0, data=[74, 48]),
   midi.NoteOnEvent(tick=12, channel=0, data=[75, 0]),
   midi.NoteOnEvent(tick=228, channel=0, data=[72, 47]),
   midi.NoteOnEvent(tick=12, channel=0, data=[74, 0]),
   midi.NoteOnEvent(tick=228, channel=0, data=[71, 47]),
   midi.NoteOnEvent(tick=12, channel=0, data=[72, 0]),
   midi.NoteOnEvent(tick=228, channel=0, data=[71, 0]),
   midi.NoteOnEvent(tick=0, channel=0, data=[77, 56]),
   midi.NoteOnEvent(tick=240, channel=0, data=[75, 54]),
   midi.NoteOnEvent(tick=12, channel=0, data=[77, 0]),
   midi.NoteOnEvent(tick=228, channel=0, data=[74, 52]),
   midi.NoteOnEvent(tick=12, channel=0, data=[75, 0]),
   midi.NoteOnEvent(tick=228, channel=0, data=[72, 51]),
   midi.NoteOnEvent(tick=12, channel=0, data=[74, 0]),
   midi.NoteOnEvent(tick=228, channel=0, data=[70, 49]),
   midi.NoteOnEvent(tick=12, channel=0, data=[72, 0]),
   midi.NoteOnEvent(tick=228, channel=0, data=[69, 47]),
   midi.NoteOnEvent(tick=12, channel=0, data=[70, 0]),
   midi.NoteOnEvent(tick=228, channel=0, data=[69, 0]),
   midi.NoteOnEvent(tick=0, channel=0, data=[84, 60]),
   midi.NoteOnEvent(tick=240, channel=0, data=[82, 58]),
   midi.NoteOnEvent(tick=12, channel=0, data=[84, 0]),
   midi.NoteOnEvent(tick=228, channel=0, data=[81, 56]),
   midi.NoteOnEvent(tick=12, channel=0, data=[82, 0]),
   midi.NoteOnEvent(tick=228, channel=0, data=[79, 54]),
   midi.NoteOnEvent(tick=12, channel=0, data=[81, 0]),
   midi.NoteOnEvent(tick=228, channel=0, data=[77, 54]),
   midi.NoteOnEvent(tick=12, channel=0, data=[79, 0]),
   midi.NoteOnEvent(tick=228, channel=0, data=[76, 57]),
   midi.NoteOnEvent(tick=12, channel=0, data=[77, 0]),
   midi.NoteOnEvent(tick=228, channel=0, data=[76, 0]),
   midi.NoteOnEvent(tick=0, channel=0, data=[77, 61]),
   midi.NoteOnEvent(tick=480, channel=0, data=[77, 0]),
   midi.NoteOnEvent(tick=480, channel=0, data=[69, 45]),
   midi.NoteOnEvent(tick=0, channel=0, data=[75, 55]),
   midi.NoteOnEvent(tick=480, channel=0, data=[75, 0]),
   midi.NoteOnEvent(tick=0, channel=0, data=[69, 0]),
   midi.NoteOnEvent(tick=0, channel=0, data=[70, 45]),
   midi.NoteOnEvent(tick=0, channel=0, data=[73, 60]),
   midi.NoteOnEvent(tick=480, channel=0, data=[73, 0]),
   midi.NoteOnEvent(tick=0, channel=0, data=[70, 0]),
   midi.NoteOnEvent(tick=480, channel=0, data=[73, 45]),
   midi.NoteOnEvent(tick=0, channel=0, data=[82, 55]),
   midi.NoteOnEvent(tick=480, channel=0, data=[82, 0]),
   midi.NoteOnEvent(tick=0, channel=0, data=[73, 0]),
   midi.NoteOnEvent(tick=0, channel=0, data=[72, 45]),
   midi.NoteOnEvent(tick=0, channel=0, data=[81, 61]),
   midi.NoteOnEvent(tick=480, channel=0, data=[81, 0]),
   midi.NoteOnEvent(tick=0, channel=0, data=[72, 0]),
   midi.NoteOnEvent(tick=480, channel=0, data=[63, 45]),
   midi.NoteOnEvent(tick=0, channel=0, data=[69, 55]),
   midi.NoteOnEvent(tick=480, channel=0, data=[69, 0]),
   midi.NoteOnEvent(tick=0, channel=0, data=[63, 0]),
   midi.NoteOnEvent(tick=0, channel=0, data=[61, 45]),
   midi.NoteOnEvent(tick=0, channel=0, data=[70, 60]),
   midi.NoteOnEvent(tick=480, channel=0, data=[70, 0]),
   midi.NoteOnEvent(tick=0, channel=0, data=[61, 0]),
   midi.NoteOnEvent(tick=480, channel=0, data=[58, 45]),
   midi.NoteOnEvent(tick=0, channel=0, data=[61, 55]),
   midi.NoteOnEvent(tick=480, channel=0, data=[61, 0]),
   midi.NoteOnEvent(tick=0, channel=0, data=[58, 0]),
   midi.NoteOnEvent(tick=0, channel=0, data=[57, 45]),
   midi.NoteOnEvent(tick=0, channel=0, data=[60, 60]),
   midi.NoteOnEvent(tick=240, channel=0, data=[60, 0]),
   midi.NoteOnEvent(tick=0, channel=0, data=[57, 0]),
   midi.NoteOnEvent(tick=0, channel=0, data=[65, 45]),
   midi.NoteOnEvent(tick=60, channel=0, data=[65, 0]),
   midi.NoteOnEvent(tick=180, channel=0, data=[65, 49]),
   midi.NoteOnEvent(tick=60, channel=0, data=[65, 0]),
   midi.NoteOnEvent(tick=180, channel=0, data=[65, 43]),
   midi.NoteOnEvent(tick=60, channel=0, data=[65, 0]),
   midi.NoteOnEvent(tick=180, channel=0, data=[65, 46]),
   midi.NoteOnEvent(tick=60, channel=0, data=[65, 0]),
   midi.NoteOnEvent(tick=180, channel=0, data=[65, 40]),
   midi.NoteOnEvent(tick=60, channel=0, data=[65, 0]),
   midi.NoteOnEvent(tick=180, channel=0, data=[64, 44]),
   midi.NoteOnEvent(tick=240, channel=0, data=[64, 0]),
   midi.NoteOnEvent(tick=0, channel=0, data=[65, 40]),
   midi.NoteOnEvent(tick=240, channel=0, data=[65, 0]),
   midi.NoteOnEvent(tick=0, channel=0, data=[67, 45]),
   midi.NoteOnEvent(tick=240, channel=0, data=[67, 0]),
   midi.NoteOnEvent(tick=0, channel=0, data=[65, 40]),
   midi.NoteOnEvent(tick=240, channel=0, data=[65, 0]),
   midi.NoteOnEvent(tick=0, channel=0, data=[70, 43]),
   midi.NoteOnEvent(tick=240, channel=0, data=[70, 0]),
   midi.NoteOnEvent(tick=0, channel=0, data=[69, 40]),
   midi.NoteOnEvent(tick=240, channel=0, data=[69, 0]),
   midi.NoteOnEvent(tick=0, channel=0, data=[74, 44]),
   midi.NoteOnEvent(tick=240, channel=0, data=[74, 0]),
   midi.NoteOnEvent(tick=0, channel=0, data=[72, 40]),
   midi.NoteOnEvent(tick=240, channel=0, data=[72, 0]),
   midi.NoteOnEvent(tick=0, channel=0, data=[75, 45]),
   midi.NoteOnEvent(tick=240, channel=0, data=[75, 0]),
   midi.NoteOnEvent(tick=0, channel=0, data=[74, 40]),
   midi.NoteOnEvent(tick=240, channel=0, data=[74, 0]),
   midi.NoteOnEvent(tick=0, channel=0, data=[79, 45]),
   midi.NoteOnEvent(tick=240, channel=0, data=[79, 0]),
   midi.NoteOnEvent(tick=0, channel=0, data=[77, 40]),
   midi.NoteOnEvent(tick=180, channel=0, data=[77, 0]),
   midi.NoteOnEvent(tick=60, channel=0, data=[77, 45]),
   midi.NoteOnEvent(tick=720, channel=0, data=[77, 0]),
   midi.NoteOnEvent(tick=0, channel=0, data=[76, 40]),
   midi.NoteOnEvent(tick=240, channel=0, data=[76, 0]),
   midi.NoteOnEvent(tick=0, channel=0, data=[75, 43]),
   midi.NoteOnEvent(tick=240, channel=0, data=[75, 0]),
   midi.NoteOnEvent(tick=0, channel=0, data=[72, 40]),
   midi.NoteOnEvent(tick=240, channel=0, data=[72, 0]),
   midi.NoteOnEvent(tick=0, channel=0, data=[70, 48]),
   midi.NoteOnEvent(tick=960, channel=0, data=[70, 0]),
   midi.NoteOnEvent(tick=0, channel=0, data=[65, 41]),
   midi.NoteOnEvent(tick=480, channel=0, data=[65, 0]),
   midi.NoteOnEvent(tick=0, channel=0, data=[62, 48]),
   midi.NoteOnEvent(tick=960, channel=0, data=[62, 0]),
   midi.NoteOnEvent(tick=0, channel=0, data=[65, 44]),
   midi.NoteOnEvent(tick=480, channel=0, data=[65, 0]),
   midi.NoteOnEvent(tick=0, channel=0, data=[70, 48]),
   midi.NoteOnEvent(tick=960, channel=0, data=[70, 0]),
   midi.NoteOnEvent(tick=0, channel=0, data=[74, 51]),
   midi.NoteOnEvent(tick=480, channel=0, data=[74, 0]),
   midi.NoteOnEvent(tick=0, channel=0, data=[77, 56]),
   midi.NoteOnEvent(tick=960, channel=0, data=[77, 0]),
   midi.NoteOnEvent(tick=0, channel=0, data=[82, 58]),
   midi.NoteOnEvent(tick=240, channel=0, data=[82, 0]),
   midi.NoteOnEvent(tick=0, channel=0, data=[74, 51]),
   midi.NoteOnEvent(tick=240, channel=0, data=[74, 0]),
   midi.NoteOnEvent(tick=0, channel=0, data=[77, 56]),
   midi.NoteOnEvent(tick=240, channel=0, data=[75, 52]),
   midi.NoteOnEvent(tick=12, channel=0, data=[77, 0]),
   midi.NoteOnEvent(tick=228, channel=0, data=[74, 51]),
   midi.NoteOnEvent(tick=12, channel=0, data=[75, 0]),
   midi.NoteOnEvent(tick=228, channel=0, data=[72, 49]),
   midi.NoteOnEvent(tick=12, channel=0, data=[74, 0]),
   midi.NoteOnEvent(tick=228, channel=0, data=[70, 48]),
   midi.NoteOnEvent(tick=12, channel=0, data=[72, 0]),
   midi.NoteOnEvent(tick=228, channel=0, data=[69, 47]),
   midi.NoteOnEvent(tick=12, channel=0, data=[70, 0]),
   midi.NoteOnEvent(tick=228, channel=0, data=[69, 0]),
   midi.NoteOnEvent(tick=0, channel=0, data=[67, 50]),
   midi.NoteOnEvent(tick=240, channel=0, data=[65, 44]),
   midi.NoteOnEvent(tick=12, channel=0, data=[67, 0]),
   midi.NoteOnEvent(tick=228, channel=0, data=[64, 44]),
   midi.NoteOnEvent(tick=12, channel=0, data=[65, 0]),
   midi.NoteOnEvent(tick=228, channel=0, data=[65, 45]),
   midi.NoteOnEvent(tick=12, channel=0, data=[64, 0]),
   midi.NoteOnEvent(tick=228, channel=0, data=[67, 47]),
   midi.NoteOnEvent(tick=12, channel=0, data=[65, 0]),
   midi.NoteOnEvent(tick=228, channel=0, data=[69, 50]),
   midi.NoteOnEvent(tick=12, channel=0, data=[67, 0]),
   midi.NoteOnEvent(tick=228, channel=0, data=[69, 0]),
   midi.NoteOnEvent(tick=0, channel=0, data=[70, 50]),
   midi.NoteOnEvent(tick=60, channel=0, data=[70, 0]),
   midi.NoteOnEvent(tick=120, channel=0, data=[72, 45]),
   midi.NoteOnEvent(tick=60, channel=0, data=[72, 0]),
   midi.NoteOnEvent(tick=0, channel=0, data=[70, 49]),
   midi.NoteOnEvent(tick=120, channel=0, data=[70, 0]),
   midi.NoteOnEvent(tick=0, channel=0, data=[69, 46]),
   midi.NoteOnEvent(tick=120, channel=0, data=[69, 0]),
   midi.NoteOnEvent(tick=0, channel=0, data=[70, 50]),
   midi.NoteOnEvent(tick=60, channel=0, data=[70, 0]),
   midi.NoteOnEvent(tick=180, channel=0, data=[72, 47]),
   midi.NoteOnEvent(tick=60, channel=0, data=[72, 0]),
   midi.NoteOnEvent(tick=180, channel=0, data=[74, 49]),
   midi.NoteOnEvent(tick=60, channel=0, data=[74, 0]),
   midi.NoteOnEvent(tick=180, channel=0, data=[75, 51]),
   midi.NoteOnEvent(tick=60, channel=0, data=[75, 0]),
   midi.NoteOnEvent(tick=180, channel=0, data=[76, 53]),
   midi.NoteOnEvent(tick=240, channel=0, data=[77, 50]),
   midi.NoteOnEvent(tick=12, channel=0, data=[76, 0]),
   midi.NoteOnEvent(tick=228, channel=0, data=[79, 55]),
   midi.NoteOnEvent(tick=12, channel=0, data=[77, 0]),
   midi.NoteOnEvent(tick=228, channel=0, data=[77, 50]),
   midi.NoteOnEvent(tick=12, channel=0, data=[79, 0]),
   midi.NoteOnEvent(tick=228, channel=0, data=[77, 0]),
   midi.NoteOnEvent(tick=0, channel=0, data=[82, 59]),
   midi.NoteOnEvent(tick=240, channel=0, data=[82, 0]),
   midi.NoteOnEvent(tick=0, channel=0, data=[74, 50]),
   midi.NoteOnEvent(tick=240, channel=0, data=[74, 0]),
   midi.NoteOnEvent(tick=0, channel=0, data=[77, 57]),
   midi.NoteOnEvent(tick=240, channel=0, data=[75, 55]),
   midi.NoteOnEvent(tick=12, channel=0, data=[77, 0]),
   midi.NoteOnEvent(tick=228, channel=0, data=[74, 53]),
   midi.NoteOnEvent(tick=12, channel=0, data=[75, 0]),
   midi.NoteOnEvent(tick=228, channel=0, data=[72, 51]),
   midi.NoteOnEvent(tick=12, channel=0, data=[74, 0]),
   midi.NoteOnEvent(tick=228, channel=0, data=[70, 49]),
   midi.NoteOnEvent(tick=12, channel=0, data=[72, 0]),
   midi.NoteOnEvent(tick=228, channel=0, data=[69, 47]),
   midi.NoteOnEvent(tick=12, channel=0, data=[70, 0]),
   midi.NoteOnEvent(tick=228, channel=0, data=[69, 0]),
   midi.NoteOnEvent(tick=0, channel=0, data=[67, 50]),
   midi.NoteOnEvent(tick=240, channel=0, data=[65, 43]),
   midi.NoteOnEvent(tick=12, channel=0, data=[67, 0]),
   midi.NoteOnEvent(tick=228, channel=0, data=[64, 50]),
   midi.NoteOnEvent(tick=12, channel=0, data=[65, 0]),
   midi.NoteOnEvent(tick=228, channel=0, data=[65, 43]),
   midi.NoteOnEvent(tick=12, channel=0, data=[64, 0]),
   midi.NoteOnEvent(tick=228, channel=0, data=[67, 50]),
   midi.NoteOnEvent(tick=12, channel=0, data=[65, 0]),
   midi.NoteOnEvent(tick=228, channel=0, data=[69, 45]),
   midi.NoteOnEvent(tick=12, channel=0, data=[67, 0]),
   midi.NoteOnEvent(tick=228, channel=0, data=[69, 0]),
   midi.NoteOnEvent(tick=0, channel=0, data=[70, 50]),
   midi.NoteOnEvent(tick=120, channel=0, data=[70, 0]),
   midi.NoteOnEvent(tick=360, channel=0, data=[70, 48]),
   midi.NoteOnEvent(tick=120, channel=0, data=[70, 0]),
   midi.NoteOnEvent(tick=360, channel=0, data=[74, 48]),
   midi.NoteOnEvent(tick=120, channel=0, data=[74, 0]),
   midi.NoteOnEvent(tick=360, channel=0, data=[70, 50]),
   midi.NoteOnEvent(tick=480, channel=0, data=[70, 0]),
   midi.NoteOnEvent(tick=360, channel=0, data=[70, 44]),
   midi.NoteOnEvent(tick=60, channel=0, data=[70, 0]),
   midi.NoteOnEvent(tick=60, channel=0, data=[72, 50]),
   midi.NoteOnEvent(tick=120, channel=0, data=[70, 43]),
   midi.NoteOnEvent(tick=12, channel=0, data=[72, 0]),
   midi.NoteOnEvent(tick=108, channel=0, data=[69, 45]),
   midi.NoteOnEvent(tick=12, channel=0, data=[70, 0]),
   midi.NoteOnEvent(tick=108, channel=0, data=[70, 42]),
   midi.NoteOnEvent(tick=12, channel=0, data=[69, 0]),
   midi.NoteOnEvent(tick=108, channel=0, data=[79, 56]),
   midi.NoteOnEvent(tick=12, channel=0, data=[70, 0]),
   midi.NoteOnEvent(tick=468, channel=0, data=[79, 0]),
   midi.NoteOnEvent(tick=360, channel=0, data=[70, 44]),
   midi.NoteOnEvent(tick=60, channel=0, data=[70, 0]),
   midi.NoteOnEvent(tick=60, channel=0, data=[72, 50]),
   midi.NoteOnEvent(tick=120, channel=0, data=[70, 43]),
   midi.NoteOnEvent(tick=12, channel=0, data=[72, 0]),
   midi.NoteOnEvent(tick=108, channel=0, data=[69, 45]),
   midi.NoteOnEvent(tick=12, channel=0, data=[70, 0]),
   midi.NoteOnEvent(tick=108, channel=0, data=[70, 42]),
   midi.NoteOnEvent(tick=12, channel=0, data=[69, 0]),
   midi.NoteOnEvent(tick=108, channel=0, data=[77, 55]),
   midi.NoteOnEvent(tick=12, channel=0, data=[70, 0]),
   midi.NoteOnEvent(tick=468, channel=0, data=[77, 0]),
   midi.NoteOnEvent(tick=360, channel=0, data=[70, 44]),
   midi.NoteOnEvent(tick=60, channel=0, data=[70, 0]),
   midi.NoteOnEvent(tick=60, channel=0, data=[72, 50]),
   midi.NoteOnEvent(tick=120, channel=0, data=[70, 43]),
   midi.NoteOnEvent(tick=12, channel=0, data=[72, 0]),
   midi.NoteOnEvent(tick=108, channel=0, data=[69, 45]),
   midi.NoteOnEvent(tick=12, channel=0, data=[70, 0]),
   midi.NoteOnEvent(tick=108, channel=0, data=[70, 42]),
   midi.NoteOnEvent(tick=12, channel=0, data=[69, 0]),
   midi.NoteOnEvent(tick=108, channel=0, data=[72, 52]),
   midi.NoteOnEvent(tick=12, channel=0, data=[70, 0]),
   midi.NoteOnEvent(tick=468, channel=0, data=[72, 0]),
   midi.NoteOnEvent(tick=0, channel=0, data=[77, 49]),
   midi.NoteOnEvent(tick=480, channel=0, data=[77, 0]),
   midi.NoteOnEvent(tick=0, channel=0, data=[75, 48]),
   midi.NoteOnEvent(tick=480, channel=0, data=[75, 0]),
   midi.NoteOnEvent(tick=0, channel=0, data=[73, 55]),
   midi.NoteOnEvent(tick=480, channel=0, data=[73, 0]),
   midi.NoteOnEvent(tick=0, channel=0, data=[74, 49]),
   midi.NoteOnEvent(tick=240, channel=0, data=[74, 0]),
   midi.NoteOnEvent(tick=120, channel=0, data=[70, 44]),
   midi.NoteOnEvent(tick=60, channel=0, data=[70, 0]),
   midi.NoteOnEvent(tick=60, channel=0, data=[72, 50]),
   midi.NoteOnEvent(tick=120, channel=0, data=[70, 43]),
   midi.NoteOnEvent(tick=12, channel=0, data=[72, 0]),
   midi.NoteOnEvent(tick=108, channel=0, data=[69, 45]),
   midi.NoteOnEvent(tick=12, channel=0, data=[70, 0]),
   midi.NoteOnEvent(tick=108, channel=0, data=[70, 42]),
   midi.NoteOnEvent(tick=12, channel=0, data=[69, 0]),
   midi.NoteOnEvent(tick=108, channel=0, data=[79, 56]),
   midi.NoteOnEvent(tick=12, channel=0, data=[70, 0]),
   midi.NoteOnEvent(tick=468, channel=0, data=[79, 0]),
   midi.NoteOnEvent(tick=360, channel=0, data=[70, 44]),
   midi.NoteOnEvent(tick=60, channel=0, data=[70, 0]),
   midi.NoteOnEvent(tick=60, channel=0, data=[72, 50]),
   midi.NoteOnEvent(tick=120, channel=0, data=[70, 43]),
   midi.NoteOnEvent(tick=12, channel=0, data=[72, 0]),
   midi.NoteOnEvent(tick=108, channel=0, data=[69, 45]),
   midi.NoteOnEvent(tick=12, channel=0, data=[70, 0]),
   midi.NoteOnEvent(tick=108, channel=0, data=[70, 42]),
   midi.NoteOnEvent(tick=12, channel=0, data=[69, 0]),
   midi.NoteOnEvent(tick=108, channel=0, data=[77, 55]),
   midi.NoteOnEvent(tick=12, channel=0, data=[70, 0]),
   midi.NoteOnEvent(tick=468, channel=0, data=[77, 0]),
   midi.NoteOnEvent(tick=360, channel=0, data=[70, 44]),
   midi.NoteOnEvent(tick=60, channel=0, data=[70, 0]),
   midi.NoteOnEvent(tick=60, channel=0, data=[72, 50]),
   midi.NoteOnEvent(tick=120, channel=0, data=[70, 43]),
   midi.NoteOnEvent(tick=12, channel=0, data=[72, 0]),
   midi.NoteOnEvent(tick=108, channel=0, data=[69, 45]),
   midi.NoteOnEvent(tick=12, channel=0, data=[70, 0]),
   midi.NoteOnEvent(tick=108, channel=0, data=[70, 42]),
   midi.NoteOnEvent(tick=12, channel=0, data=[69, 0]),
   midi.NoteOnEvent(tick=108, channel=0, data=[72, 52]),
   midi.NoteOnEvent(tick=12, channel=0, data=[70, 0]),
   midi.NoteOnEvent(tick=468, channel=0, data=[72, 0]),
   midi.NoteOnEvent(tick=0, channel=0, data=[75, 49]),
   midi.NoteOnEvent(tick=480, channel=0, data=[75, 0]),
   midi.NoteOnEvent(tick=0, channel=0, data=[69, 48]),
   midi.NoteOnEvent(tick=480, channel=0, data=[69, 0]),
   midi.NoteOnEvent(tick=0, channel=0, data=[70, 55]),
   midi.NoteOnEvent(tick=480, channel=0, data=[70, 0]),
   midi.NoteOnEvent(tick=960, channel=0, data=[74, 64]),
   midi.NoteOnEvent(tick=0, channel=0, data=[70, 64]),
   midi.NoteOnEvent(tick=0, channel=0, data=[79, 77]),
   midi.NoteOnEvent(tick=120, channel=0, data=[79, 0]),
   midi.NoteOnEvent(tick=0, channel=0, data=[70, 0]),
   midi.NoteOnEvent(tick=0, channel=0, data=[74, 0]),
   midi.NoteOnEvent(tick=360, channel=0, data=[67, 64]),
   midi.NoteOnEvent(tick=120, channel=0, data=[67, 0]),
   midi.NoteOnEvent(tick=840, channel=0, data=[69, 63]),
   midi.NoteOnEvent(tick=0, channel=0, data=[66, 63]),
   midi.NoteOnEvent(tick=0, channel=0, data=[74, 75]),
   midi.NoteOnEvent(tick=120, channel=0, data=[74, 0]),
   midi.NoteOnEvent(tick=0, channel=0, data=[66, 0]),
   midi.NoteOnEvent(tick=0, channel=0, data=[69, 0]),
   midi.NoteOnEvent(tick=360, channel=0, data=[62, 67]),
   midi.NoteOnEvent(tick=120, channel=0, data=[62, 0]),
   midi.NoteOnEvent(tick=840, channel=0, data=[63, 43]),
   midi.NoteOnEvent(tick=960, channel=0, data=[63, 0]),
   midi.NoteOnEvent(tick=0, channel=0, data=[65, 36]),
   midi.NoteOnEvent(tick=120, channel=0, data=[63, 36]),
   midi.NoteOnEvent(tick=12, channel=0, data=[65, 0]),
   midi.NoteOnEvent(tick=108, channel=0, data=[62, 36]),
   midi.NoteOnEvent(tick=12, channel=0, data=[63, 0]),
   midi.NoteOnEvent(tick=108, channel=0, data=[63, 36]),
   midi.NoteOnEvent(tick=12, channel=0, data=[62, 0]),
   midi.NoteOnEvent(tick=108, channel=0, data=[63, 0]),
   midi.NoteOnEvent(tick=0, channel=0, data=[72, 42]),
   midi.NoteOnEvent(tick=240, channel=0, data=[72, 0]),
   midi.NoteOnEvent(tick=0, channel=0, data=[70, 37]),
   midi.NoteOnEvent(tick=240, channel=0, data=[70, 0]),
   midi.NoteOnEvent(tick=0, channel=0, data=[70, 43]),
   midi.NoteOnEvent(tick=480, channel=0, data=[70, 0]),
   midi.NoteOnEvent(tick=0, channel=0, data=[70, 38]),
   midi.NoteOnEvent(tick=480, channel=0, data=[70, 0]),
   midi.NoteOnEvent(tick=0, channel=0, data=[70, 39]),
   midi.NoteOnEvent(tick=240, channel=0, data=[75, 45]),
   midi.NoteOnEvent(tick=12, channel=0, data=[70, 0]),
   midi.NoteOnEvent(tick=228, channel=0, data=[74, 44]),
   midi.NoteOnEvent(tick=12, channel=0, data=[75, 0]),
   midi.NoteOnEvent(tick=228, channel=0, data=[73, 42]),
   midi.NoteOnEvent(tick=12, channel=0, data=[74, 0]),
   midi.NoteOnEvent(tick=228, channel=0, data=[72, 40]),
   midi.NoteOnEvent(tick=12, channel=0, data=[73, 0]),
   midi.NoteOnEvent(tick=228, channel=0, data=[71, 38]),
   midi.NoteOnEvent(tick=12, channel=0, data=[72, 0]),
   midi.NoteOnEvent(tick=228, channel=0, data=[70, 41]),
   midi.NoteOnEvent(tick=12, channel=0, data=[71, 0]),
   midi.NoteOnEvent(tick=468, channel=0, data=[70, 0]),
   midi.NoteOnEvent(tick=960, channel=0, data=[63, 45]),
   midi.NoteOnEvent(tick=960, channel=0, data=[63, 0]),
   midi.NoteOnEvent(tick=0, channel=0, data=[65, 42]),
   midi.NoteOnEvent(tick=120, channel=0, data=[63, 39]),
   midi.NoteOnEvent(tick=12, channel=0, data=[65, 0]),
   midi.NoteOnEvent(tick=108, channel=0, data=[62, 42]),
   midi.NoteOnEvent(tick=12, channel=0, data=[63, 0]),
   midi.NoteOnEvent(tick=108, channel=0, data=[63, 40]),
   midi.NoteOnEvent(tick=12, channel=0, data=[62, 0]),
   midi.NoteOnEvent(tick=108, channel=0, data=[63, 0]),
   midi.NoteOnEvent(tick=0, channel=0, data=[72, 54]),
   midi.NoteOnEvent(tick=240, channel=0, data=[72, 0]),
   midi.NoteOnEvent(tick=0, channel=0, data=[71, 48]),
   midi.NoteOnEvent(tick=240, channel=0, data=[71, 0]),
   midi.NoteOnEvent(tick=0, channel=0, data=[71, 53]),
   midi.NoteOnEvent(tick=480, channel=0, data=[71, 0]),
   midi.NoteOnEvent(tick=0, channel=0, data=[71, 47]),
   midi.NoteOnEvent(tick=480, channel=0, data=[71, 0]),
   midi.NoteOnEvent(tick=0, channel=0, data=[72, 50]),
   midi.NoteOnEvent(tick=240, channel=0, data=[79, 58]),
   midi.NoteOnEvent(tick=12, channel=0, data=[72, 0]),
   midi.NoteOnEvent(tick=228, channel=0, data=[75, 56]),
   midi.NoteOnEvent(tick=12, channel=0, data=[79, 0]),
   midi.NoteOnEvent(tick=228, channel=0, data=[74, 54]),
   midi.NoteOnEvent(tick=12, channel=0, data=[75, 0]),
   midi.NoteOnEvent(tick=228, channel=0, data=[72, 51]),
   midi.NoteOnEvent(tick=12, channel=0, data=[74, 0]),
   midi.NoteOnEvent(tick=228, channel=0, data=[70, 49]),
   midi.NoteOnEvent(tick=12, channel=0, data=[72, 0]),
   midi.NoteOnEvent(tick=228, channel=0, data=[69, 50]),
   midi.NoteOnEvent(tick=12, channel=0, data=[70, 0]),
   midi.NoteOnEvent(tick=468, channel=0, data=[69, 0]),
   midi.NoteOnEvent(tick=960, channel=0, data=[70, 59]),
   midi.NoteOnEvent(tick=240, channel=0, data=[86, 62]),
   midi.NoteOnEvent(tick=12, channel=0, data=[70, 0]),
   midi.NoteOnEvent(tick=228, channel=0, data=[82, 61]),
   midi.NoteOnEvent(tick=12, channel=0, data=[86, 0]),
   midi.NoteOnEvent(tick=228, channel=0, data=[81, 60]),
   midi.NoteOnEvent(tick=12, channel=0, data=[82, 0]),
   midi.NoteOnEvent(tick=228, channel=0, data=[79, 58]),
   midi.NoteOnEvent(tick=12, channel=0, data=[81, 0]),
   midi.NoteOnEvent(tick=228, channel=0, data=[77, 57]),
   midi.NoteOnEvent(tick=12, channel=0, data=[79, 0]),
   midi.NoteOnEvent(tick=228, channel=0, data=[76, 62]),
   midi.NoteOnEvent(tick=12, channel=0, data=[77, 0]),
   midi.NoteOnEvent(tick=468, channel=0, data=[76, 0]),
   midi.NoteOnEvent(tick=1080, channel=0, data=[77, 46]),
   midi.NoteOnEvent(tick=120, channel=0, data=[77, 0]),
   midi.NoteOnEvent(tick=0, channel=0, data=[76, 49]),
   midi.NoteOnEvent(tick=120, channel=0, data=[76, 0]),
   midi.NoteOnEvent(tick=0, channel=0, data=[77, 44]),
   midi.NoteOnEvent(tick=120, channel=0, data=[77, 0]),
   midi.NoteOnEvent(tick=0, channel=0, data=[79, 49]),
   midi.NoteOnEvent(tick=120, channel=0, data=[79, 0]),
   midi.NoteOnEvent(tick=0, channel=0, data=[77, 44]),
   midi.NoteOnEvent(tick=120, channel=0, data=[77, 0]),
   midi.NoteOnEvent(tick=0, channel=0, data=[76, 49]),
   midi.NoteOnEvent(tick=120, channel=0, data=[76, 0]),
   midi.NoteOnEvent(tick=0, channel=0, data=[77, 44]),
   midi.NoteOnEvent(tick=120, channel=0, data=[77, 0]),
   midi.NoteOnEvent(tick=120, channel=0, data=[77, 49]),
   midi.NoteOnEvent(tick=120, channel=0, data=[77, 0]),
   midi.NoteOnEvent(tick=0, channel=0, data=[81, 54]),
   midi.NoteOnEvent(tick=120, channel=0, data=[81, 0]),
   midi.NoteOnEvent(tick=0, channel=0, data=[77, 49]),
   midi.NoteOnEvent(tick=120, channel=0, data=[77, 0]),
   midi.NoteOnEvent(tick=120, channel=0, data=[77, 53]),
   midi.NoteOnEvent(tick=120, channel=0, data=[77, 0]),
   midi.NoteOnEvent(tick=0, channel=0, data=[82, 57]),
   midi.NoteOnEvent(tick=120, channel=0, data=[82, 0]),
   midi.NoteOnEvent(tick=0, channel=0, data=[77, 52]),
   midi.NoteOnEvent(tick=120, channel=0, data=[77, 0]),
   midi.NoteOnEvent(tick=120, channel=0, data=[77, 55]),
   midi.NoteOnEvent(tick=120, channel=0, data=[77, 0]),
   midi.NoteOnEvent(tick=0, channel=0, data=[87, 61]),
   midi.NoteOnEvent(tick=120, channel=0, data=[87, 0]),
   midi.NoteOnEvent(tick=0, channel=0, data=[77, 57]),
   midi.NoteOnEvent(tick=120, channel=0, data=[77, 0]),
   midi.NoteOnEvent(tick=120, channel=0, data=[77, 57]),
   midi.NoteOnEvent(tick=120, channel=0, data=[77, 0]),
   midi.NoteOnEvent(tick=0, channel=0, data=[86, 64]),
   midi.NoteOnEvent(tick=120, channel=0, data=[86, 0]),
   midi.NoteOnEvent(tick=0, channel=0, data=[77, 57]),
   midi.NoteOnEvent(tick=120, channel=0, data=[77, 0]),
   midi.NoteOnEvent(tick=0, channel=0, data=[84, 65]),
   midi.NoteOnEvent(tick=120, channel=0, data=[84, 0]),
   midi.NoteOnEvent(tick=0, channel=0, data=[81, 60]),
   midi.NoteOnEvent(tick=120, channel=0, data=[81, 0]),
   midi.NoteOnEvent(tick=0, channel=0, data=[79, 65]),
   midi.NoteOnEvent(tick=120, channel=0, data=[79, 0]),
   midi.NoteOnEvent(tick=0, channel=0, data=[77, 60]),
   midi.NoteOnEvent(tick=120, channel=0, data=[77, 0]),
   midi.NoteOnEvent(tick=0, channel=0, data=[76, 57]),
   midi.NoteOnEvent(tick=120, channel=0, data=[76, 0]),
   midi.NoteOnEvent(tick=0, channel=0, data=[77, 59]),
   midi.NoteOnEvent(tick=120, channel=0, data=[77, 0]),
   midi.NoteOnEvent(tick=0, channel=0, data=[79, 60]),
   midi.NoteOnEvent(tick=120, channel=0, data=[79, 0]),
   midi.NoteOnEvent(tick=0, channel=0, data=[77, 56]),
   midi.NoteOnEvent(tick=120, channel=0, data=[77, 0]),
   midi.NoteOnEvent(tick=120, channel=0, data=[77, 49]),
   midi.NoteOnEvent(tick=120, channel=0, data=[77, 0]),
   midi.NoteOnEvent(tick=0, channel=0, data=[81, 53]),
   midi.NoteOnEvent(tick=120, channel=0, data=[81, 0]),
   midi.NoteOnEvent(tick=0, channel=0, data=[77, 49]),
   midi.NoteOnEvent(tick=120, channel=0, data=[77, 0]),
   midi.NoteOnEvent(tick=120, channel=0, data=[77, 52]),
   midi.NoteOnEvent(tick=120, channel=0, data=[77, 0]),
   midi.NoteOnEvent(tick=0, channel=0, data=[82, 58]),
   midi.NoteOnEvent(tick=120, channel=0, data=[82, 0]),
   midi.NoteOnEvent(tick=0, channel=0, data=[77, 54]),
   midi.NoteOnEvent(tick=120, channel=0, data=[77, 0]),
   midi.NoteOnEvent(tick=120, channel=0, data=[77, 55]),
   midi.NoteOnEvent(tick=120, channel=0, data=[77, 0]),
   midi.NoteOnEvent(tick=0, channel=0, data=[87, 61]),
   midi.NoteOnEvent(tick=120, channel=0, data=[87, 0]),
   midi.NoteOnEvent(tick=0, channel=0, data=[77, 55]),
   midi.NoteOnEvent(tick=120, channel=0, data=[77, 0]),
   midi.NoteOnEvent(tick=120, channel=0, data=[77, 49]),
   midi.NoteOnEvent(tick=120, channel=0, data=[77, 0]),
   midi.NoteOnEvent(tick=0, channel=0, data=[86, 68]),
   midi.NoteOnEvent(tick=120, channel=0, data=[86, 0]),
   midi.NoteOnEvent(tick=0, channel=0, data=[77, 62]),
   midi.NoteOnEvent(tick=120, channel=0, data=[77, 0]),
   midi.NoteOnEvent(tick=0, channel=0, data=[84, 73]),
   midi.NoteOnEvent(tick=120, channel=0, data=[84, 0]),
   midi.NoteOnEvent(tick=0, channel=0, data=[89, 62]),
   midi.NoteOnEvent(tick=120, channel=0, data=[89, 0]),
   midi.NoteOnEvent(tick=0, channel=0, data=[84, 69]),
   midi.NoteOnEvent(tick=120, channel=0, data=[84, 0]),
   midi.NoteOnEvent(tick=0, channel=0, data=[81, 57]),
   midi.NoteOnEvent(tick=120, channel=0, data=[81, 0]),
   midi.NoteOnEvent(tick=0, channel=0, data=[77, 67]),
   midi.NoteOnEvent(tick=120, channel=0, data=[77, 0]),
   midi.NoteOnEvent(tick=0, channel=0, data=[84, 55]),
   midi.NoteOnEvent(tick=120, channel=0, data=[84, 0]),
   midi.NoteOnEvent(tick=0, channel=0, data=[81, 61]),
   midi.NoteOnEvent(tick=120, channel=0, data=[81, 0]),
   midi.NoteOnEvent(tick=0, channel=0, data=[77, 54]),
   midi.NoteOnEvent(tick=120, channel=0, data=[77, 0]),
   midi.NoteOnEvent(tick=0, channel=0, data=[72, 63]),
   midi.NoteOnEvent(tick=120, channel=0, data=[72, 0]),
   midi.NoteOnEvent(tick=0, channel=0, data=[77, 55]),
   midi.NoteOnEvent(tick=120, channel=0, data=[77, 0]),
   midi.NoteOnEvent(tick=0, channel=0, data=[72, 65]),
   midi.NoteOnEvent(tick=120, channel=0, data=[72, 0]),
   midi.NoteOnEvent(tick=0, channel=0, data=[69, 59]),
   midi.NoteOnEvent(tick=120, channel=0, data=[69, 0]),
   midi.NoteOnEvent(tick=0, channel=0, data=[65, 85]),
   midi.NoteOnEvent(tick=120, channel=0, data=[65, 0]),
   midi.NoteOnEvent(tick=360, channel=0, data=[72, 62]),
   midi.NoteOnEvent(tick=0, channel=0, data=[69, 62]),
   midi.NoteOnEvent(tick=0, channel=0, data=[77, 73]),
   midi.NoteOnEvent(tick=480, channel=0, data=[77, 0]),
   midi.NoteOnEvent(tick=0, channel=0, data=[69, 0]),
   midi.NoteOnEvent(tick=0, channel=0, data=[72, 0]),
   midi.NoteOnEvent(tick=3600, channel=0, data=[77, 45]),
   midi.NoteOnEvent(tick=60, channel=0, data=[77, 0]),
   midi.NoteOnEvent(tick=180, channel=0, data=[77, 49]),
   midi.NoteOnEvent(tick=60, channel=0, data=[77, 0]),
   midi.NoteOnEvent(tick=180, channel=0, data=[77, 43]),
   midi.NoteOnEvent(tick=60, channel=0, data=[77, 0]),
   midi.NoteOnEvent(tick=180, channel=0, data=[77, 46]),
   midi.NoteOnEvent(tick=60, channel=0, data=[77, 0]),
   midi.NoteOnEvent(tick=180, channel=0, data=[77, 40]),
   midi.NoteOnEvent(tick=60, channel=0, data=[77, 0]),
   midi.NoteOnEvent(tick=180, channel=0, data=[79, 45]),
   midi.NoteOnEvent(tick=240, channel=0, data=[77, 40]),
   midi.NoteOnEvent(tick=12, channel=0, data=[79, 0]),
   midi.NoteOnEvent(tick=228, channel=0, data=[75, 43]),
   midi.NoteOnEvent(tick=12, channel=0, data=[77, 0]),
   midi.NoteOnEvent(tick=228, channel=0, data=[74, 40]),
   midi.NoteOnEvent(tick=12, channel=0, data=[75, 0]),
   midi.NoteOnEvent(tick=228, channel=0, data=[72, 45]),
   midi.NoteOnEvent(tick=12, channel=0, data=[74, 0]),
   midi.NoteOnEvent(tick=228, channel=0, data=[70, 39]),
   midi.NoteOnEvent(tick=12, channel=0, data=[72, 0]),
   midi.NoteOnEvent(tick=168, channel=0, data=[70, 0]),
   midi.NoteOnEvent(tick=60, channel=0, data=[70, 41]),
   midi.NoteOnEvent(tick=60, channel=0, data=[70, 0]),
   midi.NoteOnEvent(tick=0, channel=0, data=[72, 39]),
   midi.NoteOnEvent(tick=60, channel=0, data=[72, 0]),
   midi.NoteOnEvent(tick=0, channel=0, data=[70, 49]),
   midi.NoteOnEvent(tick=120, channel=0, data=[70, 0]),
   midi.NoteOnEvent(tick=0, channel=0, data=[69, 44]),
   midi.NoteOnEvent(tick=240, channel=0, data=[69, 0]),
   midi.NoteOnEvent(tick=0, channel=0, data=[69, 46]),
   midi.NoteOnEvent(tick=480, channel=0, data=[69, 0]),
   midi.NoteOnEvent(tick=2160, channel=0, data=[75, 45]),
   midi.NoteOnEvent(tick=60, channel=0, data=[75, 0]),
   midi.NoteOnEvent(tick=180, channel=0, data=[75, 48]),
   midi.NoteOnEvent(tick=60, channel=0, data=[75, 0]),
   midi.NoteOnEvent(tick=180, channel=0, data=[75, 42]),
   midi.NoteOnEvent(tick=60, channel=0, data=[75, 0]),
   midi.NoteOnEvent(tick=180, channel=0, data=[75, 44]),
   midi.NoteOnEvent(tick=60, channel=0, data=[75, 0]),
   midi.NoteOnEvent(tick=180, channel=0, data=[75, 40]),
   midi.NoteOnEvent(tick=60, channel=0, data=[75, 0]),
   midi.NoteOnEvent(tick=180, channel=0, data=[77, 45]),
   midi.NoteOnEvent(tick=240, channel=0, data=[75, 40]),
   midi.NoteOnEvent(tick=12, channel=0, data=[77, 0]),
   midi.NoteOnEvent(tick=228, channel=0, data=[74, 40]),
   midi.NoteOnEvent(tick=12, channel=0, data=[75, 0]),
   midi.NoteOnEvent(tick=228, channel=0, data=[72, 40]),
   midi.NoteOnEvent(tick=12, channel=0, data=[74, 0]),
   midi.NoteOnEvent(tick=228, channel=0, data=[70, 45]),
   midi.NoteOnEvent(tick=12, channel=0, data=[72, 0]),
   midi.NoteOnEvent(tick=228, channel=0, data=[69, 39]),
   midi.NoteOnEvent(tick=12, channel=0, data=[70, 0]),
   midi.NoteOnEvent(tick=228, channel=0, data=[69, 0]),
   midi.NoteOnEvent(tick=0, channel=0, data=[70, 47]),
   midi.NoteOnEvent(tick=480, channel=0, data=[70, 0]),
   midi.NoteOnEvent(tick=240, channel=0, data=[74, 47]),
   midi.NoteOnEvent(tick=240, channel=0, data=[72, 45]),
   midi.NoteOnEvent(tick=12, channel=0, data=[74, 0]),
   midi.NoteOnEvent(tick=228, channel=0, data=[70, 40]),
   midi.NoteOnEvent(tick=12, channel=0, data=[72, 0]),
   midi.NoteOnEvent(tick=228, channel=0, data=[69, 47]),
   midi.NoteOnEvent(tick=12, channel=0, data=[70, 0]),
   midi.NoteOnEvent(tick=468, channel=0, data=[69, 0]),
   midi.NoteOnEvent(tick=240, channel=0, data=[79, 52]),
   midi.NoteOnEvent(tick=240, channel=0, data=[77, 47]),
   midi.NoteOnEvent(tick=12, channel=0, data=[79, 0]),
   midi.NoteOnEvent(tick=228, channel=0, data=[69, 42]),
   midi.NoteOnEvent(tick=12, channel=0, data=[77, 0]),
   midi.NoteOnEvent(tick=228, channel=0, data=[70, 47]),
   midi.NoteOnEvent(tick=12, channel=0, data=[69, 0]),
   midi.NoteOnEvent(tick=468, channel=0, data=[70, 0]),
   midi.NoteOnEvent(tick=240, channel=0, data=[74, 47]),
   midi.NoteOnEvent(tick=240, channel=0, data=[72, 45]),
   midi.NoteOnEvent(tick=12, channel=0, data=[74, 0]),
   midi.NoteOnEvent(tick=228, channel=0, data=[70, 40]),
   midi.NoteOnEvent(tick=12, channel=0, data=[72, 0]),
   midi.NoteOnEvent(tick=228, channel=0, data=[69, 47]),
   midi.NoteOnEvent(tick=12, channel=0, data=[70, 0]),
   midi.NoteOnEvent(tick=468, channel=0, data=[69, 0]),
   midi.NoteOnEvent(tick=240, channel=0, data=[78, 52]),
   midi.NoteOnEvent(tick=240, channel=0, data=[77, 47]),
   midi.NoteOnEvent(tick=12, channel=0, data=[78, 0]),
   midi.NoteOnEvent(tick=228, channel=0, data=[69, 42]),
   midi.NoteOnEvent(tick=12, channel=0, data=[77, 0]),
   midi.NoteOnEvent(tick=228, channel=0, data=[70, 47]),
   midi.NoteOnEvent(tick=12, channel=0, data=[69, 0]),
   midi.NoteOnEvent(tick=468, channel=0, data=[70, 0]),
   midi.NoteOnEvent(tick=240, channel=0, data=[77, 55]),
   midi.NoteOnEvent(tick=240, channel=0, data=[73, 53]),
   midi.NoteOnEvent(tick=12, channel=0, data=[77, 0]),
   midi.NoteOnEvent(tick=228, channel=0, data=[72, 50]),
   midi.NoteOnEvent(tick=12, channel=0, data=[73, 0]),
   midi.NoteOnEvent(tick=228, channel=0, data=[71, 56]),
   midi.NoteOnEvent(tick=12, channel=0, data=[72, 0]),
   midi.NoteOnEvent(tick=468, channel=0, data=[71, 0]),
   midi.NoteOnEvent(tick=240, channel=0, data=[80, 58]),
   midi.NoteOnEvent(tick=240, channel=0, data=[79, 52]),
   midi.NoteOnEvent(tick=12, channel=0, data=[80, 0]),
   midi.NoteOnEvent(tick=228, channel=0, data=[71, 48]),
   midi.NoteOnEvent(tick=12, channel=0, data=[79, 0]),
   midi.NoteOnEvent(tick=228, channel=0, data=[71, 0]),
   midi.NoteOnEvent(tick=0, channel=0, data=[74, 56]),
   midi.NoteOnEvent(tick=240, channel=0, data=[72, 51]),
   midi.NoteOnEvent(tick=12, channel=0, data=[74, 0]),
   midi.NoteOnEvent(tick=228, channel=0, data=[77, 55]),
   midi.NoteOnEvent(tick=12, channel=0, data=[72, 0]),
   midi.NoteOnEvent(tick=228, channel=0, data=[76, 51]),
   midi.NoteOnEvent(tick=12, channel=0, data=[77, 0]),
   midi.NoteOnEvent(tick=228, channel=0, data=[75, 50]),
   midi.NoteOnEvent(tick=12, channel=0, data=[76, 0]),
   midi.NoteOnEvent(tick=228, channel=0, data=[74, 49]),
   midi.NoteOnEvent(tick=12, channel=0, data=[75, 0]),
   midi.NoteOnEvent(tick=228, channel=0, data=[74, 0]),
   midi.NoteOnEvent(tick=0, channel=0, data=[72, 54]),
   midi.NoteOnEvent(tick=360, channel=0, data=[72, 0]),
   midi.NoteOnEvent(tick=0, channel=0, data=[74, 48]),
   midi.NoteOnEvent(tick=120, channel=0, data=[74, 0]),
   midi.NoteOnEvent(tick=0, channel=0, data=[70, 54]),
   midi.NoteOnEvent(tick=480, channel=0, data=[70, 0]),
   midi.NoteOnEvent(tick=0, channel=0, data=[69, 50]),
   midi.NoteOnEvent(tick=80, channel=0, data=[69, 0]),
   midi.NoteOnEvent(tick=0, channel=0, data=[70, 44]),
   midi.NoteOnEvent(tick=80, channel=0, data=[70, 0]),
   midi.NoteOnEvent(tick=0, channel=0, data=[69, 50]),
   midi.NoteOnEvent(tick=80, channel=0, data=[69, 0]),
   midi.NoteOnEvent(tick=0, channel=0, data=[70, 44]),
   midi.NoteOnEvent(tick=60, channel=0, data=[70, 0]),
   midi.NoteOnEvent(tick=0, channel=0, data=[69, 50]),
   midi.NoteOnEvent(tick=60, channel=0, data=[69, 0]),
   midi.NoteOnEvent(tick=0, channel=0, data=[67, 42]),
   midi.NoteOnEvent(tick=60, channel=0, data=[67, 0]),
   midi.NoteOnEvent(tick=0, channel=0, data=[69, 45]),
   midi.NoteOnEvent(tick=60, channel=0, data=[69, 0]),
   midi.NoteOnEvent(tick=0, channel=0, data=[70, 49]),
   midi.NoteOnEvent(tick=120, channel=0, data=[70, 0]),
   midi.NoteOnEvent(tick=0, channel=0, data=[65, 46]),
   midi.NoteOnEvent(tick=120, channel=0, data=[65, 0]),
   midi.NoteOnEvent(tick=0, channel=0, data=[64, 49]),
   midi.NoteOnEvent(tick=120, channel=0, data=[64, 0]),
   midi.NoteOnEvent(tick=0, channel=0, data=[65, 44]),
   midi.NoteOnEvent(tick=120, channel=0, data=[65, 0]),
   midi.NoteOnEvent(tick=0, channel=0, data=[67, 49]),
   midi.NoteOnEvent(tick=120, channel=0, data=[67, 0]),
   midi.NoteOnEvent(tick=0, channel=0, data=[65, 44]),
   midi.NoteOnEvent(tick=120, channel=0, data=[65, 0]),
   midi.NoteOnEvent(tick=0, channel=0, data=[64, 49]),
   midi.NoteOnEvent(tick=120, channel=0, data=[64, 0]),
   midi.NoteOnEvent(tick=0, channel=0, data=[65, 44]),
   midi.NoteOnEvent(tick=120, channel=0, data=[65, 0]),
   midi.NoteOnEvent(tick=0, channel=0, data=[63, 49]),
   midi.NoteOnEvent(tick=120, channel=0, data=[63, 0]),
   midi.NoteOnEvent(tick=0, channel=0, data=[65, 49]),
   midi.NoteOnEvent(tick=120, channel=0, data=[65, 0]),
   midi.NoteOnEvent(tick=0, channel=0, data=[62, 54]),
   midi.NoteOnEvent(tick=120, channel=0, data=[62, 0]),
   midi.NoteOnEvent(tick=0, channel=0, data=[65, 49]),
   midi.NoteOnEvent(tick=120, channel=0, data=[65, 0]),
   midi.NoteOnEvent(tick=0, channel=0, data=[60, 49]),
   midi.NoteOnEvent(tick=120, channel=0, data=[60, 0]),
   midi.NoteOnEvent(tick=0, channel=0, data=[65, 46]),
   midi.NoteOnEvent(tick=120, channel=0, data=[65, 0]),
   midi.NoteOnEvent(tick=0, channel=0, data=[64, 49]),
   midi.NoteOnEvent(tick=120, channel=0, data=[64, 0]),
   midi.NoteOnEvent(tick=0, channel=0, data=[65, 44]),
   midi.NoteOnEvent(tick=120, channel=0, data=[65, 0]),
   midi.NoteOnEvent(tick=0, channel=0, data=[67, 49]),
   midi.NoteOnEvent(tick=120, channel=0, data=[67, 0]),
   midi.NoteOnEvent(tick=0, channel=0, data=[65, 44]),
   midi.NoteOnEvent(tick=120, channel=0, data=[65, 0]),
   midi.NoteOnEvent(tick=0, channel=0, data=[64, 49]),
   midi.NoteOnEvent(tick=120, channel=0, data=[64, 0]),
   midi.NoteOnEvent(tick=0, channel=0, data=[65, 44]),
   midi.NoteOnEvent(tick=120, channel=0, data=[65, 0]),
   midi.NoteOnEvent(tick=0, channel=0, data=[75, 49]),
   midi.NoteOnEvent(tick=120, channel=0, data=[75, 0]),
   midi.NoteOnEvent(tick=0, channel=0, data=[65, 49]),
   midi.NoteOnEvent(tick=120, channel=0, data=[65, 0]),
   midi.NoteOnEvent(tick=0, channel=0, data=[75, 54]),
   midi.NoteOnEvent(tick=120, channel=0, data=[75, 0]),
   midi.NoteOnEvent(tick=0, channel=0, data=[65, 49]),
   midi.NoteOnEvent(tick=120, channel=0, data=[65, 0]),
   midi.NoteOnEvent(tick=0, channel=0, data=[74, 49]),
   midi.NoteOnEvent(tick=120, channel=0, data=[74, 0]),
   midi.NoteOnEvent(tick=0, channel=0, data=[77, 46]),
   midi.NoteOnEvent(tick=120, channel=0, data=[77, 0]),
   midi.NoteOnEvent(tick=0, channel=0, data=[76, 49]),
   midi.NoteOnEvent(tick=120, channel=0, data=[76, 0]),
   midi.NoteOnEvent(tick=0, channel=0, data=[77, 44]),
   midi.NoteOnEvent(tick=120, channel=0, data=[77, 0]),
   midi.NoteOnEvent(tick=0, channel=0, data=[79, 49]),
   midi.NoteOnEvent(tick=120, channel=0, data=[79, 0]),
   midi.NoteOnEvent(tick=0, channel=0, data=[77, 44]),
   midi.NoteOnEvent(tick=120, channel=0, data=[77, 0]),
   midi.NoteOnEvent(tick=0, channel=0, data=[76, 49]),
   midi.NoteOnEvent(tick=120, channel=0, data=[76, 0]),
   midi.NoteOnEvent(tick=0, channel=0, data=[77, 44]),
   midi.NoteOnEvent(tick=120, channel=0, data=[77, 0]),
   midi.NoteOnEvent(tick=0, channel=0, data=[75, 49]),
   midi.NoteOnEvent(tick=120, channel=0, data=[75, 0]),
   midi.NoteOnEvent(tick=0, channel=0, data=[77, 49]),
   midi.NoteOnEvent(tick=120, channel=0, data=[77, 0]),
   midi.NoteOnEvent(tick=0, channel=0, data=[74, 54]),
   midi.NoteOnEvent(tick=120, channel=0, data=[74, 0]),
   midi.NoteOnEvent(tick=0, channel=0, data=[77, 49]),
   midi.NoteOnEvent(tick=120, channel=0, data=[77, 0]),
   midi.NoteOnEvent(tick=0, channel=0, data=[72, 49]),
   midi.NoteOnEvent(tick=120, channel=0, data=[72, 0]),
   midi.NoteOnEvent(tick=0, channel=0, data=[77, 46]),
   midi.NoteOnEvent(tick=120, channel=0, data=[77, 0]),
   midi.NoteOnEvent(tick=0, channel=0, data=[76, 49]),
   midi.NoteOnEvent(tick=120, channel=0, data=[76, 0]),
   midi.NoteOnEvent(tick=0, channel=0, data=[77, 44]),
   midi.NoteOnEvent(tick=120, channel=0, data=[77, 0]),
   midi.NoteOnEvent(tick=0, channel=0, data=[79, 49]),
   midi.NoteOnEvent(tick=120, channel=0, data=[79, 0]),
   midi.NoteOnEvent(tick=0, channel=0, data=[77, 44]),
   midi.NoteOnEvent(tick=120, channel=0, data=[77, 0]),
   midi.NoteOnEvent(tick=0, channel=0, data=[76, 49]),
   midi.NoteOnEvent(tick=120, channel=0, data=[76, 0]),
   midi.NoteOnEvent(tick=0, channel=0, data=[77, 44]),
   midi.NoteOnEvent(tick=120, channel=0, data=[77, 0]),
   midi.NoteOnEvent(tick=0, channel=0, data=[87, 49]),
   midi.NoteOnEvent(tick=120, channel=0, data=[87, 0]),
   midi.NoteOnEvent(tick=0, channel=0, data=[77, 49]),
   midi.NoteOnEvent(tick=120, channel=0, data=[77, 0]),
   midi.NoteOnEvent(tick=0, channel=0, data=[87, 54]),
   midi.NoteOnEvent(tick=120, channel=0, data=[87, 0]),
   midi.NoteOnEvent(tick=0, channel=0, data=[77, 49]),
   midi.NoteOnEvent(tick=120, channel=0, data=[77, 0]),
   midi.NoteOnEvent(tick=0, channel=0, data=[86, 49]),
   midi.NoteOnEvent(tick=120, channel=0, data=[86, 0]),
   midi.NoteOnEvent(tick=0, channel=0, data=[77, 46]),
   midi.NoteOnEvent(tick=120, channel=0, data=[77, 0]),
   midi.NoteOnEvent(tick=0, channel=0, data=[76, 49]),
   midi.NoteOnEvent(tick=120, channel=0, data=[76, 0]),
   midi.NoteOnEvent(tick=0, channel=0, data=[77, 44]),
   midi.NoteOnEvent(tick=120, channel=0, data=[77, 0]),
   midi.NoteOnEvent(tick=0, channel=0, data=[79, 49]),
   midi.NoteOnEvent(tick=120, channel=0, data=[79, 0]),
   midi.NoteOnEvent(tick=0, channel=0, data=[77, 44]),
   midi.NoteOnEvent(tick=120, channel=0, data=[77, 0]),
   midi.NoteOnEvent(tick=0, channel=0, data=[76, 49]),
   midi.NoteOnEvent(tick=120, channel=0, data=[76, 0]),
   midi.NoteOnEvent(tick=0, channel=0, data=[77, 44]),
   midi.NoteOnEvent(tick=120, channel=0, data=[77, 0]),
   midi.NoteOnEvent(tick=0, channel=0, data=[80, 49]),
   midi.NoteOnEvent(tick=120, channel=0, data=[80, 0]),
   midi.NoteOnEvent(tick=0, channel=0, data=[77, 49]),
   midi.NoteOnEvent(tick=120, channel=0, data=[77, 0]),
   midi.NoteOnEvent(tick=0, channel=0, data=[75, 54]),
   midi.NoteOnEvent(tick=120, channel=0, data=[75, 0]),
   midi.NoteOnEvent(tick=0, channel=0, data=[77, 49]),
   midi.NoteOnEvent(tick=120, channel=0, data=[77, 0]),
   midi.NoteOnEvent(tick=0, channel=0, data=[74, 49]),
   midi.NoteOnEvent(tick=120, channel=0, data=[74, 0]),
   midi.NoteOnEvent(tick=0, channel=0, data=[79, 46]),
   midi.NoteOnEvent(tick=120, channel=0, data=[79, 0]),
   midi.NoteOnEvent(tick=0, channel=0, data=[78, 49]),
   midi.NoteOnEvent(tick=120, channel=0, data=[78, 0]),
   midi.NoteOnEvent(tick=0, channel=0, data=[79, 44]),
   midi.NoteOnEvent(tick=120, channel=0, data=[79, 0]),
   midi.NoteOnEvent(tick=0, channel=0, data=[81, 49]),
   midi.NoteOnEvent(tick=120, channel=0, data=[81, 0]),
   midi.NoteOnEvent(tick=0, channel=0, data=[79, 44]),
   midi.NoteOnEvent(tick=120, channel=0, data=[79, 0]),
   midi.NoteOnEvent(tick=0, channel=0, data=[78, 52]),
   midi.NoteOnEvent(tick=120, channel=0, data=[78, 0]),
   midi.NoteOnEvent(tick=0, channel=0, data=[79, 44]),
   midi.NoteOnEvent(tick=120, channel=0, data=[79, 0]),
   midi.NoteOnEvent(tick=0, channel=0, data=[89, 55]),
   midi.NoteOnEvent(tick=120, channel=0, data=[89, 0]),
   midi.NoteOnEvent(tick=0, channel=0, data=[79, 49]),
   midi.NoteOnEvent(tick=120, channel=0, data=[79, 0]),
   midi.NoteOnEvent(tick=0, channel=0, data=[89, 57]),
   midi.NoteOnEvent(tick=120, channel=0, data=[89, 0]),
   midi.NoteOnEvent(tick=0, channel=0, data=[79, 49]),
   midi.NoteOnEvent(tick=120, channel=0, data=[79, 0]),
   midi.NoteOnEvent(tick=0, channel=0, data=[88, 62]),
   midi.NoteOnEvent(tick=480, channel=0, data=[88, 0]),
   midi.NoteOnEvent(tick=0, channel=0, data=[87, 60]),
   midi.NoteOnEvent(tick=480, channel=0, data=[87, 0]),
   midi.NoteOnEvent(tick=0, channel=0, data=[86, 57]),
   midi.NoteOnEvent(tick=480, channel=0, data=[86, 0]),
   midi.NoteOnEvent(tick=0, channel=0, data=[86, 60]),
   midi.NoteOnEvent(tick=120, channel=0, data=[84, 52]),
   midi.NoteOnEvent(tick=12, channel=0, data=[86, 0]),
   midi.NoteOnEvent(tick=108, channel=0, data=[87, 52]),
   midi.NoteOnEvent(tick=12, channel=0, data=[84, 0]),
   midi.NoteOnEvent(tick=108, channel=0, data=[84, 52]),
   midi.NoteOnEvent(tick=12, channel=0, data=[87, 0]),
   midi.NoteOnEvent(tick=78, channel=0, data=[84, 0]),
   midi.NoteOnEvent(tick=30, channel=0, data=[84, 62]),
   midi.NoteOnEvent(tick=120, channel=0, data=[82, 52]),
   midi.NoteOnEvent(tick=12, channel=0, data=[84, 0]),
   midi.NoteOnEvent(tick=108, channel=0, data=[86, 52]),
   midi.NoteOnEvent(tick=12, channel=0, data=[82, 0]),
   midi.NoteOnEvent(tick=108, channel=0, data=[82, 52]),
   midi.NoteOnEvent(tick=12, channel=0, data=[86, 0]),
   midi.NoteOnEvent(tick=78, channel=0, data=[82, 0]),
   midi.NoteOnEvent(tick=30, channel=0, data=[82, 62]),
   midi.NoteOnEvent(tick=120, channel=0, data=[81, 52]),
   midi.NoteOnEvent(tick=12, channel=0, data=[82, 0]),
   midi.NoteOnEvent(tick=108, channel=0, data=[84, 52]),
   midi.NoteOnEvent(tick=12, channel=0, data=[81, 0]),
   midi.NoteOnEvent(tick=108, channel=0, data=[81, 52]),
   midi.NoteOnEvent(tick=12, channel=0, data=[84, 0]),
   midi.NoteOnEvent(tick=108, channel=0, data=[81, 0]),
   midi.NoteOnEvent(tick=0, channel=0, data=[82, 54]),
   midi.NoteOnEvent(tick=120, channel=0, data=[82, 0]),
   midi.NoteOnEvent(tick=0, channel=0, data=[86, 57]),
   midi.NoteOnEvent(tick=120, channel=0, data=[86, 0]),
   midi.NoteOnEvent(tick=0, channel=0, data=[89, 58]),
   midi.NoteOnEvent(tick=120, channel=0, data=[89, 0]),
   midi.NoteOnEvent(tick=0, channel=0, data=[87, 60]),
   midi.NoteOnEvent(tick=120, channel=0, data=[87, 0]),
   midi.NoteOnEvent(tick=0, channel=0, data=[86, 58]),
   midi.NoteOnEvent(tick=120, channel=0, data=[86, 0]),
   midi.NoteOnEvent(tick=0, channel=0, data=[84, 56]),
   midi.NoteOnEvent(tick=120, channel=0, data=[84, 0]),
   midi.NoteOnEvent(tick=0, channel=0, data=[82, 54]),
   midi.NoteOnEvent(tick=120, channel=0, data=[82, 0]),
   midi.NoteOnEvent(tick=0, channel=0, data=[81, 52]),
   midi.NoteOnEvent(tick=120, channel=0, data=[81, 0]),
   midi.NoteOnEvent(tick=0, channel=0, data=[79, 55]),
   midi.NoteOnEvent(tick=120, channel=0, data=[79, 0]),
   midi.NoteOnEvent(tick=0, channel=0, data=[77, 51]),
   midi.NoteOnEvent(tick=120, channel=0, data=[77, 0]),
   midi.NoteOnEvent(tick=0, channel=0, data=[75, 50]),
   midi.NoteOnEvent(tick=120, channel=0, data=[75, 0]),
   midi.NoteOnEvent(tick=0, channel=0, data=[74, 50]),
   midi.NoteOnEvent(tick=120, channel=0, data=[74, 0]),
   midi.NoteOnEvent(tick=0, channel=0, data=[72, 50]),
   midi.NoteOnEvent(tick=120, channel=0, data=[72, 0]),
   midi.NoteOnEvent(tick=0, channel=0, data=[75, 53]),
   midi.NoteOnEvent(tick=120, channel=0, data=[75, 0]),
   midi.NoteOnEvent(tick=0, channel=0, data=[79, 56]),
   midi.NoteOnEvent(tick=120, channel=0, data=[79, 0]),
   midi.NoteOnEvent(tick=0, channel=0, data=[77, 55]),
   midi.NoteOnEvent(tick=120, channel=0, data=[77, 0]),
   midi.NoteOnEvent(tick=0, channel=0, data=[75, 54]),
   midi.NoteOnEvent(tick=120, channel=0, data=[75, 0]),
   midi.NoteOnEvent(tick=0, channel=0, data=[74, 53]),
   midi.NoteOnEvent(tick=120, channel=0, data=[74, 0]),
   midi.NoteOnEvent(tick=0, channel=0, data=[72, 52]),
   midi.NoteOnEvent(tick=120, channel=0, data=[72, 0]),
   midi.NoteOnEvent(tick=0, channel=0, data=[70, 50]),
   midi.NoteOnEvent(tick=120, channel=0, data=[70, 0]),
   midi.NoteOnEvent(tick=0, channel=0, data=[69, 49]),
   midi.NoteOnEvent(tick=120, channel=0, data=[69, 0]),
   midi.NoteOnEvent(tick=0, channel=0, data=[67, 50]),
   midi.NoteOnEvent(tick=120, channel=0, data=[67, 0]),
   midi.NoteOnEvent(tick=0, channel=0, data=[65, 53]),
   midi.NoteOnEvent(tick=120, channel=0, data=[65, 0]),
   midi.NoteOnEvent(tick=0, channel=0, data=[64, 56]),
   midi.NoteOnEvent(tick=120, channel=0, data=[64, 0]),
   midi.NoteOnEvent(tick=0, channel=0, data=[65, 59]),
   midi.NoteOnEvent(tick=120, channel=0, data=[65, 0]),
   midi.NoteOnEvent(tick=120, channel=0, data=[70, 59]),
   midi.NoteOnEvent(tick=120, channel=0, data=[70, 0]),
   midi.NoteOnEvent(tick=120, channel=0, data=[74, 61]),
   midi.NoteOnEvent(tick=120, channel=0, data=[74, 0]),
   midi.NoteOnEvent(tick=120, channel=0, data=[77, 62]),
   midi.NoteOnEvent(tick=120, channel=0, data=[77, 0]),
   midi.NoteOnEvent(tick=120, channel=0, data=[82, 64]),
   midi.NoteOnEvent(tick=120, channel=0, data=[82, 0]),
   midi.NoteOnEvent(tick=120, channel=0, data=[86, 65]),
   midi.NoteOnEvent(tick=120, channel=0, data=[86, 0]),
   midi.NoteOnEvent(tick=120, channel=0, data=[72, 37]),
   midi.NoteOnEvent(tick=60, channel=0, data=[72, 0]),
   midi.NoteOnEvent(tick=0, channel=0, data=[74, 31]),
   midi.NoteOnEvent(tick=60, channel=0, data=[74, 0]),
   midi.NoteOnEvent(tick=0, channel=0, data=[72, 37]),
   midi.NoteOnEvent(tick=60, channel=0, data=[72, 0]),
   midi.NoteOnEvent(tick=0, channel=0, data=[74, 31]),
   midi.NoteOnEvent(tick=60, channel=0, data=[74, 0]),
   midi.NoteOnEvent(tick=0, channel=0, data=[72, 37]),
   midi.NoteOnEvent(tick=60, channel=0, data=[72, 0]),
   midi.NoteOnEvent(tick=0, channel=0, data=[74, 32]),
   midi.NoteOnEvent(tick=60, channel=0, data=[74, 0]),
   midi.NoteOnEvent(tick=0, channel=0, data=[72, 37]),
   midi.NoteOnEvent(tick=60, channel=0, data=[72, 0]),
   midi.NoteOnEvent(tick=0, channel=0, data=[74, 33]),
   midi.NoteOnEvent(tick=60, channel=0, data=[74, 0]),
   midi.NoteOnEvent(tick=0, channel=0, data=[72, 37]),
   midi.NoteOnEvent(tick=60, channel=0, data=[72, 0]),
   midi.NoteOnEvent(tick=0, channel=0, data=[74, 32]),
   midi.NoteOnEvent(tick=60, channel=0, data=[74, 0]),
   midi.NoteOnEvent(tick=0, channel=0, data=[72, 37]),
   midi.NoteOnEvent(tick=60, channel=0, data=[72, 0]),
   midi.NoteOnEvent(tick=0, channel=0, data=[74, 32]),
   midi.NoteOnEvent(tick=60, channel=0, data=[74, 0]),
   midi.NoteOnEvent(tick=0, channel=0, data=[72, 37]),
   midi.NoteOnEvent(tick=60, channel=0, data=[72, 0]),
   midi.NoteOnEvent(tick=0, channel=0, data=[74, 31]),
   midi.NoteOnEvent(tick=60, channel=0, data=[74, 0]),
   midi.NoteOnEvent(tick=0, channel=0, data=[72, 37]),
   midi.NoteOnEvent(tick=60, channel=0, data=[72, 0]),
   midi.NoteOnEvent(tick=0, channel=0, data=[74, 33]),
   midi.NoteOnEvent(tick=60, channel=0, data=[74, 0]),
   midi.NoteOnEvent(tick=0, channel=0, data=[72, 37]),
   midi.NoteOnEvent(tick=60, channel=0, data=[72, 0]),
   midi.NoteOnEvent(tick=0, channel=0, data=[74, 32]),
   midi.NoteOnEvent(tick=60, channel=0, data=[74, 0]),
   midi.NoteOnEvent(tick=0, channel=0, data=[72, 37]),
   midi.NoteOnEvent(tick=80, channel=0, data=[72, 0]),
   midi.NoteOnEvent(tick=0, channel=0, data=[74, 32]),
   midi.NoteOnEvent(tick=80, channel=0, data=[74, 0]),
   midi.NoteOnEvent(tick=0, channel=0, data=[72, 37]),
   midi.NoteOnEvent(tick=80, channel=0, data=[72, 0]),
   midi.NoteOnEvent(tick=0, channel=0, data=[70, 33]),
   midi.NoteOnEvent(tick=60, channel=0, data=[70, 0]),
   midi.NoteOnEvent(tick=0, channel=0, data=[72, 33]),
   midi.NoteOnEvent(tick=60, channel=0, data=[72, 0]),
   midi.NoteOnEvent(tick=0, channel=0, data=[70, 49]),
   midi.NoteOnEvent(tick=480, channel=0, data=[70, 0]),
   midi.NoteOnEvent(tick=960, channel=0, data=[75, 46]),
   midi.NoteOnEvent(tick=480, channel=0, data=[75, 0]),
   midi.NoteOnEvent(tick=0, channel=0, data=[77, 50]),
   midi.NoteOnEvent(tick=480, channel=0, data=[77, 0]),
   midi.NoteOnEvent(tick=0, channel=0, data=[79, 51]),
   midi.NoteOnEvent(tick=480, channel=0, data=[79, 0]),
   midi.NoteOnEvent(tick=0, channel=0, data=[77, 51]),
   midi.NoteOnEvent(tick=720, channel=0, data=[77, 0]),
   midi.NoteOnEvent(tick=0, channel=0, data=[79, 48]),
   midi.NoteOnEvent(tick=120, channel=0, data=[77, 43]),
   midi.NoteOnEvent(tick=12, channel=0, data=[79, 0]),
   midi.NoteOnEvent(tick=108, channel=0, data=[75, 50]),
   midi.NoteOnEvent(tick=12, channel=0, data=[77, 0]),
   midi.NoteOnEvent(tick=108, channel=0, data=[74, 48]),
   midi.NoteOnEvent(tick=12, channel=0, data=[75, 0]),
   midi.NoteOnEvent(tick=108, channel=0, data=[72, 47]),
   midi.NoteOnEvent(tick=12, channel=0, data=[74, 0]),
   midi.NoteOnEvent(tick=108, channel=0, data=[70, 45]),
   midi.NoteOnEvent(tick=12, channel=0, data=[72, 0]),
   midi.NoteOnEvent(tick=108, channel=0, data=[70, 0]),
   midi.NoteOnEvent(tick=0, channel=0, data=[74, 48]),
   midi.NoteOnEvent(tick=720, channel=0, data=[74, 0]),
   midi.NoteOnEvent(tick=0, channel=0, data=[75, 40]),
   midi.NoteOnEvent(tick=240, channel=0, data=[75, 0]),
   midi.NoteOnEvent(tick=0, channel=0, data=[72, 44]),
   midi.NoteOnEvent(tick=480, channel=0, data=[72, 0]),
   midi.NoteOnEvent(tick=0, channel=0, data=[70, 46]),
   midi.NoteOnEvent(tick=480, channel=0, data=[70, 0]),
   midi.NoteOnEvent(tick=960, channel=0, data=[63, 52]),
   midi.NoteOnEvent(tick=240, channel=0, data=[63, 0]),
   midi.NoteOnEvent(tick=0, channel=0, data=[75, 47]),
   midi.NoteOnEvent(tick=240, channel=0, data=[75, 0]),
   midi.NoteOnEvent(tick=0, channel=0, data=[65, 54]),
   midi.NoteOnEvent(tick=240, channel=0, data=[65, 0]),
   midi.NoteOnEvent(tick=0, channel=0, data=[77, 47]),
   midi.NoteOnEvent(tick=240, channel=0, data=[77, 0]),
   midi.NoteOnEvent(tick=0, channel=0, data=[67, 58]),
   midi.NoteOnEvent(tick=240, channel=0, data=[67, 0]),
   midi.NoteOnEvent(tick=0, channel=0, data=[79, 52]),
   midi.NoteOnEvent(tick=240, channel=0, data=[79, 0]),
   midi.NoteOnEvent(tick=0, channel=0, data=[77, 61]),
   midi.NoteOnEvent(tick=240, channel=0, data=[77, 0]),
   midi.NoteOnEvent(tick=0, channel=0, data=[79, 54]),
   midi.NoteOnEvent(tick=120, channel=0, data=[79, 0]),
   midi.NoteOnEvent(tick=0, channel=0, data=[81, 58]),
   midi.NoteOnEvent(tick=120, channel=0, data=[81, 0]),
   midi.NoteOnEvent(tick=0, channel=0, data=[82, 61]),
   midi.NoteOnEvent(tick=120, channel=0, data=[82, 0]),
   midi.NoteOnEvent(tick=0, channel=0, data=[81, 61]),
   midi.NoteOnEvent(tick=120, channel=0, data=[81, 0]),
   midi.NoteOnEvent(tick=0, channel=0, data=[79, 60]),
   midi.NoteOnEvent(tick=120, channel=0, data=[79, 0]),
   midi.NoteOnEvent(tick=0, channel=0, data=[77, 58]),
   midi.NoteOnEvent(tick=120, channel=0, data=[77, 0]),
   midi.NoteOnEvent(tick=0, channel=0, data=[75, 57]),
   midi.NoteOnEvent(tick=120, channel=0, data=[75, 0]),
   midi.NoteOnEvent(tick=0, channel=0, data=[74, 55]),
   midi.NoteOnEvent(tick=120, channel=0, data=[74, 0]),
   midi.NoteOnEvent(tick=0, channel=0, data=[72, 54]),
   midi.NoteOnEvent(tick=120, channel=0, data=[72, 0]),
   midi.NoteOnEvent(tick=0, channel=0, data=[70, 52]),
   midi.NoteOnEvent(tick=120, channel=0, data=[70, 0]),
   midi.NoteOnEvent(tick=0, channel=0, data=[74, 62]),
   midi.NoteOnEvent(tick=720, channel=0, data=[74, 0]),
   midi.NoteOnEvent(tick=0, channel=0, data=[75, 56]),
   midi.NoteOnEvent(tick=240, channel=0, data=[75, 0]),
   midi.NoteOnEvent(tick=0, channel=0, data=[72, 62]),
   midi.NoteOnEvent(tick=480, channel=0, data=[72, 0]),
   midi.NoteOnEvent(tick=0, channel=0, data=[70, 67]),
   midi.NoteOnEvent(tick=480, channel=0, data=[70, 0]),
   midi.NoteOnEvent(tick=120, channel=0, data=[77, 60]),
   midi.NoteOnEvent(tick=120, channel=0, data=[77, 0]),
   midi.NoteOnEvent(tick=0, channel=0, data=[79, 65]),
   midi.NoteOnEvent(tick=120, channel=0, data=[79, 0]),
   midi.NoteOnEvent(tick=0, channel=0, data=[77, 60]),
   midi.NoteOnEvent(tick=120, channel=0, data=[77, 0]),
   midi.NoteOnEvent(tick=0, channel=0, data=[75, 64]),
   midi.NoteOnEvent(tick=120, channel=0, data=[75, 0]),
   midi.NoteOnEvent(tick=0, channel=0, data=[74, 62]),
   midi.NoteOnEvent(tick=120, channel=0, data=[74, 0]),
   midi.NoteOnEvent(tick=0, channel=0, data=[75, 60]),
   midi.NoteOnEvent(tick=120, channel=0, data=[75, 0]),
   midi.NoteOnEvent(tick=0, channel=0, data=[72, 58]),
   midi.NoteOnEvent(tick=120, channel=0, data=[72, 0]),
   midi.NoteOnEvent(tick=0, channel=0, data=[70, 68]),
   midi.NoteOnEvent(tick=480, channel=0, data=[70, 0]),
   midi.NoteOnEvent(tick=120, channel=0, data=[65, 60]),
   midi.NoteOnEvent(tick=120, channel=0, data=[65, 0]),
   midi.NoteOnEvent(tick=0, channel=0, data=[67, 65]),
   midi.NoteOnEvent(tick=120, channel=0, data=[67, 0]),
   midi.NoteOnEvent(tick=0, channel=0, data=[65, 60]),
   midi.NoteOnEvent(tick=120, channel=0, data=[65, 0]),
   midi.NoteOnEvent(tick=0, channel=0, data=[63, 64]),
   midi.NoteOnEvent(tick=120, channel=0, data=[63, 0]),
   midi.NoteOnEvent(tick=0, channel=0, data=[62, 62]),
   midi.NoteOnEvent(tick=120, channel=0, data=[62, 0]),
   midi.NoteOnEvent(tick=0, channel=0, data=[63, 60]),
   midi.NoteOnEvent(tick=120, channel=0, data=[63, 0]),
   midi.NoteOnEvent(tick=0, channel=0, data=[60, 58]),
   midi.NoteOnEvent(tick=120, channel=0, data=[60, 0]),
   midi.NoteOnEvent(tick=0, channel=0, data=[58, 71]),
   midi.NoteOnEvent(tick=168, channel=0, data=[58, 0]),
   midi.NoteOnEvent(tick=312, channel=0, data=[74, 59]),
   midi.NoteOnEvent(tick=0, channel=0, data=[77, 59]),
   midi.NoteOnEvent(tick=0, channel=0, data=[82, 77]),
   midi.NoteOnEvent(tick=480, channel=0, data=[82, 0]),
   midi.NoteOnEvent(tick=0, channel=0, data=[77, 0]),
   midi.NoteOnEvent(tick=0, channel=0, data=[74, 0]),
   midi.NoteOnEvent(tick=480, channel=0, data=[66, 71]),
   midi.NoteOnEvent(tick=480, channel=0, data=[66, 0]),
   midi.NoteOnEvent(tick=0, channel=0, data=[68, 59]),
   midi.NoteOnEvent(tick=0, channel=0, data=[72, 59]),
   midi.NoteOnEvent(tick=0, channel=0, data=[78, 77]),
   midi.NoteOnEvent(tick=480, channel=0, data=[78, 0]),
   midi.NoteOnEvent(tick=0, channel=0, data=[72, 0]),
   midi.NoteOnEvent(tick=0, channel=0, data=[68, 0]),
   midi.NoteOnEvent(tick=480, channel=0, data=[61, 43]),
   midi.NoteOnEvent(tick=960, channel=0, data=[61, 0]),
   midi.NoteOnEvent(tick=0, channel=0, data=[63, 36]),
   midi.NoteOnEvent(tick=120, channel=0, data=[61, 36]),
   midi.NoteOnEvent(tick=12, channel=0, data=[63, 0]),
   midi.NoteOnEvent(tick=108, channel=0, data=[60, 36]),
   midi.NoteOnEvent(tick=12, channel=0, data=[61, 0]),
   midi.NoteOnEvent(tick=108, channel=0, data=[61, 36]),
   midi.NoteOnEvent(tick=12, channel=0, data=[60, 0]),
   midi.NoteOnEvent(tick=108, channel=0, data=[61, 0]),
   midi.NoteOnEvent(tick=0, channel=0, data=[70, 42]),
   midi.NoteOnEvent(tick=240, channel=0, data=[70, 0]),
   midi.NoteOnEvent(tick=0, channel=0, data=[68, 37]),
   midi.NoteOnEvent(tick=234, channel=0, data=[68, 0]),
   midi.NoteOnEvent(tick=6, channel=0, data=[68, 43]),
   midi.NoteOnEvent(tick=480, channel=0, data=[68, 0]),
   midi.NoteOnEvent(tick=0, channel=0, data=[68, 38]),
   midi.NoteOnEvent(tick=480, channel=0, data=[68, 0]),
   midi.NoteOnEvent(tick=0, channel=0, data=[68, 39]),
   midi.NoteOnEvent(tick=240, channel=0, data=[73, 45]),
   midi.NoteOnEvent(tick=12, channel=0, data=[68, 0]),
   midi.NoteOnEvent(tick=228, channel=0, data=[72, 44]),
   midi.NoteOnEvent(tick=12, channel=0, data=[73, 0]),
   midi.NoteOnEvent(tick=228, channel=0, data=[71, 41]),
   midi.NoteOnEvent(tick=12, channel=0, data=[72, 0]),
   midi.NoteOnEvent(tick=228, channel=0, data=[70, 40]),
   midi.NoteOnEvent(tick=12, channel=0, data=[71, 0]),
   midi.NoteOnEvent(tick=228, channel=0, data=[69, 38]),
   midi.NoteOnEvent(tick=12, channel=0, data=[70, 0]),
   midi.NoteOnEvent(tick=228, channel=0, data=[68, 41]),
   midi.NoteOnEvent(tick=12, channel=0, data=[69, 0]),
   midi.NoteOnEvent(tick=468, channel=0, data=[68, 0]),
   midi.NoteOnEvent(tick=960, channel=0, data=[61, 45]),
   midi.NoteOnEvent(tick=960, channel=0, data=[61, 0]),
   midi.NoteOnEvent(tick=0, channel=0, data=[63, 42]),
   midi.NoteOnEvent(tick=120, channel=0, data=[61, 39]),
   midi.NoteOnEvent(tick=12, channel=0, data=[63, 0]),
   midi.NoteOnEvent(tick=108, channel=0, data=[60, 42]),
   midi.NoteOnEvent(tick=12, channel=0, data=[61, 0]),
   midi.NoteOnEvent(tick=108, channel=0, data=[61, 40]),
   midi.NoteOnEvent(tick=12, channel=0, data=[60, 0]),
   midi.NoteOnEvent(tick=108, channel=0, data=[61, 0]),
   midi.NoteOnEvent(tick=0, channel=0, data=[70, 54]),
   midi.NoteOnEvent(tick=240, channel=0, data=[70, 0]),
   midi.NoteOnEvent(tick=0, channel=0, data=[69, 48]),
   midi.NoteOnEvent(tick=240, channel=0, data=[69, 0]),
   midi.NoteOnEvent(tick=0, channel=0, data=[69, 53]),
   midi.NoteOnEvent(tick=480, channel=0, data=[69, 0]),
   midi.NoteOnEvent(tick=0, channel=0, data=[69, 47]),
   midi.NoteOnEvent(tick=480, channel=0, data=[69, 0]),
   midi.NoteOnEvent(tick=0, channel=0, data=[70, 50]),
   midi.NoteOnEvent(tick=240, channel=0, data=[77, 54]),
   midi.NoteOnEvent(tick=12, channel=0, data=[70, 0]),
   midi.NoteOnEvent(tick=228, channel=0, data=[73, 55]),
   midi.NoteOnEvent(tick=12, channel=0, data=[77, 0]),
   midi.NoteOnEvent(tick=228, channel=0, data=[72, 53]),
   midi.NoteOnEvent(tick=12, channel=0, data=[73, 0]),
   midi.NoteOnEvent(tick=228, channel=0, data=[70, 51]),
   midi.NoteOnEvent(tick=12, channel=0, data=[72, 0]),
   midi.NoteOnEvent(tick=228, channel=0, data=[68, 50]),
   midi.NoteOnEvent(tick=12, channel=0, data=[70, 0]),
   midi.NoteOnEvent(tick=228, channel=0, data=[67, 50]),
   midi.NoteOnEvent(tick=12, channel=0, data=[68, 0]),
   midi.NoteOnEvent(tick=468, channel=0, data=[67, 0]),
   midi.NoteOnEvent(tick=960, channel=0, data=[68, 59]),
   midi.NoteOnEvent(tick=240, channel=0, data=[80, 62]),
   midi.NoteOnEvent(tick=12, channel=0, data=[68, 0]),
   midi.NoteOnEvent(tick=228, channel=0, data=[77, 61]),
   midi.NoteOnEvent(tick=12, channel=0, data=[80, 0]),
   midi.NoteOnEvent(tick=228, channel=0, data=[75, 60]),
   midi.NoteOnEvent(tick=12, channel=0, data=[77, 0]),
   midi.NoteOnEvent(tick=228, channel=0, data=[74, 58]),
   midi.NoteOnEvent(tick=12, channel=0, data=[75, 0]),
   midi.NoteOnEvent(tick=228, channel=0, data=[72, 57]),
   midi.NoteOnEvent(tick=12, channel=0, data=[74, 0]),
   midi.NoteOnEvent(tick=228, channel=0, data=[71, 62]),
   midi.NoteOnEvent(tick=12, channel=0, data=[72, 0]),
   midi.NoteOnEvent(tick=468, channel=0, data=[71, 0]),
   midi.NoteOnEvent(tick=960, channel=0, data=[72, 61]),
   midi.NoteOnEvent(tick=240, channel=0, data=[87, 64]),
   midi.NoteOnEvent(tick=12, channel=0, data=[72, 0]),
   midi.NoteOnEvent(tick=228, channel=0, data=[84, 61]),
   midi.NoteOnEvent(tick=12, channel=0, data=[87, 0]),
   midi.NoteOnEvent(tick=228, channel=0, data=[82, 60]),
   midi.NoteOnEvent(tick=12, channel=0, data=[84, 0]),
   midi.NoteOnEvent(tick=228, channel=0, data=[80, 55]),
   midi.NoteOnEvent(tick=12, channel=0, data=[82, 0]),
   midi.NoteOnEvent(tick=228, channel=0, data=[79, 56]),
   midi.NoteOnEvent(tick=12, channel=0, data=[80, 0]),
   midi.NoteOnEvent(tick=228, channel=0, data=[78, 60]),
   midi.NoteOnEvent(tick=12, channel=0, data=[79, 0]),
   midi.NoteOnEvent(tick=468, channel=0, data=[78, 0]),
   midi.NoteOnEvent(tick=960, channel=0, data=[79, 58]),
   midi.NoteOnEvent(tick=240, channel=0, data=[82, 60]),
   midi.NoteOnEvent(tick=12, channel=0, data=[79, 0]),
   midi.NoteOnEvent(tick=228, channel=0, data=[79, 58]),
   midi.NoteOnEvent(tick=12, channel=0, data=[82, 0]),
   midi.NoteOnEvent(tick=228, channel=0, data=[77, 55]),
   midi.NoteOnEvent(tick=12, channel=0, data=[79, 0]),
   midi.NoteOnEvent(tick=228, channel=0, data=[75, 53]),
   midi.NoteOnEvent(tick=12, channel=0, data=[77, 0]),
   midi.NoteOnEvent(tick=228, channel=0, data=[74, 50]),
   midi.NoteOnEvent(tick=12, channel=0, data=[75, 0]),
   midi.NoteOnEvent(tick=228, channel=0, data=[73, 57]),
   midi.NoteOnEvent(tick=12, channel=0, data=[74, 0]),
   midi.NoteOnEvent(tick=468, channel=0, data=[73, 0]),
   midi.NoteOnEvent(tick=1080, channel=0, data=[74, 46]),
   midi.NoteOnEvent(tick=120, channel=0, data=[74, 0]),
   midi.NoteOnEvent(tick=0, channel=0, data=[73, 49]),
   midi.NoteOnEvent(tick=120, channel=0, data=[73, 0]),
   midi.NoteOnEvent(tick=0, channel=0, data=[74, 44]),
   midi.NoteOnEvent(tick=120, channel=0, data=[74, 0]),
   midi.NoteOnEvent(tick=0, channel=0, data=[76, 49]),
   midi.NoteOnEvent(tick=120, channel=0, data=[76, 0]),
   midi.NoteOnEvent(tick=0, channel=0, data=[74, 44]),
   midi.NoteOnEvent(tick=120, channel=0, data=[74, 0]),
   midi.NoteOnEvent(tick=0, channel=0, data=[73, 49]),
   midi.NoteOnEvent(tick=120, channel=0, data=[73, 0]),
   midi.NoteOnEvent(tick=0, channel=0, data=[74, 44]),
   midi.NoteOnEvent(tick=120, channel=0, data=[74, 0]),
   midi.NoteOnEvent(tick=120, channel=0, data=[74, 49]),
   midi.NoteOnEvent(tick=120, channel=0, data=[74, 0]),
   midi.NoteOnEvent(tick=0, channel=0, data=[78, 54]),
   midi.NoteOnEvent(tick=120, channel=0, data=[78, 0]),
   midi.NoteOnEvent(tick=0, channel=0, data=[74, 49]),
   midi.NoteOnEvent(tick=120, channel=0, data=[74, 0]),
   midi.NoteOnEvent(tick=120, channel=0, data=[74, 53]),
   midi.NoteOnEvent(tick=120, channel=0, data=[74, 0]),
   midi.NoteOnEvent(tick=0, channel=0, data=[79, 57]),
   midi.NoteOnEvent(tick=120, channel=0, data=[79, 0]),
   midi.NoteOnEvent(tick=0, channel=0, data=[74, 52]),
   midi.NoteOnEvent(tick=120, channel=0, data=[74, 0]),
   midi.NoteOnEvent(tick=120, channel=0, data=[74, 55]),
   midi.NoteOnEvent(tick=120, channel=0, data=[74, 0]),
   midi.NoteOnEvent(tick=0, channel=0, data=[84, 61]),
   midi.NoteOnEvent(tick=120, channel=0, data=[84, 0]),
   midi.NoteOnEvent(tick=0, channel=0, data=[74, 57]),
   midi.NoteOnEvent(tick=120, channel=0, data=[74, 0]),
   midi.NoteOnEvent(tick=120, channel=0, data=[74, 57]),
   midi.NoteOnEvent(tick=120, channel=0, data=[74, 0]),
   midi.NoteOnEvent(tick=0, channel=0, data=[82, 64]),
   midi.NoteOnEvent(tick=120, channel=0, data=[82, 0]),
   midi.NoteOnEvent(tick=0, channel=0, data=[74, 57]),
   midi.NoteOnEvent(tick=120, channel=0, data=[74, 0]),
   midi.NoteOnEvent(tick=0, channel=0, data=[81, 64]),
   midi.NoteOnEvent(tick=120, channel=0, data=[81, 0]),
   midi.NoteOnEvent(tick=0, channel=0, data=[78, 57]),
   midi.NoteOnEvent(tick=120, channel=0, data=[78, 0]),
   midi.NoteOnEvent(tick=0, channel=0, data=[76, 59]),
   midi.NoteOnEvent(tick=120, channel=0, data=[76, 0]),
   midi.NoteOnEvent(tick=0, channel=0, data=[74, 57]),
   midi.NoteOnEvent(tick=120, channel=0, data=[74, 0]),
   midi.NoteOnEvent(tick=0, channel=0, data=[73, 57]),
   midi.NoteOnEvent(tick=120, channel=0, data=[73, 0]),
   midi.NoteOnEvent(tick=0, channel=0, data=[74, 59]),
   midi.NoteOnEvent(tick=120, channel=0, data=[74, 0]),
   midi.NoteOnEvent(tick=0, channel=0, data=[76, 60]),
   midi.NoteOnEvent(tick=120, channel=0, data=[76, 0]),
   midi.NoteOnEvent(tick=0, channel=0, data=[74, 56]),
   midi.NoteOnEvent(tick=120, channel=0, data=[74, 0]),
   midi.NoteOnEvent(tick=120, channel=0, data=[74, 49]),
   midi.NoteOnEvent(tick=120, channel=0, data=[74, 0]),
   midi.NoteOnEvent(tick=0, channel=0, data=[78, 53]),
   midi.NoteOnEvent(tick=120, channel=0, data=[78, 0]),
   midi.NoteOnEvent(tick=0, channel=0, data=[74, 49]),
   midi.NoteOnEvent(tick=120, channel=0, data=[74, 0]),
   midi.NoteOnEvent(tick=120, channel=0, data=[74, 52]),
   midi.NoteOnEvent(tick=120, channel=0, data=[74, 0]),
   midi.NoteOnEvent(tick=0, channel=0, data=[79, 58]),
   midi.NoteOnEvent(tick=120, channel=0, data=[79, 0]),
   midi.NoteOnEvent(tick=0, channel=0, data=[74, 54]),
   midi.NoteOnEvent(tick=120, channel=0, data=[74, 0]),
   midi.NoteOnEvent(tick=120, channel=0, data=[74, 55]),
   midi.NoteOnEvent(tick=120, channel=0, data=[74, 0]),
   midi.NoteOnEvent(tick=0, channel=0, data=[84, 61]),
   midi.NoteOnEvent(tick=120, channel=0, data=[84, 0]),
   midi.NoteOnEvent(tick=0, channel=0, data=[74, 55]),
   midi.NoteOnEvent(tick=120, channel=0, data=[74, 0]),
   midi.NoteOnEvent(tick=120, channel=0, data=[74, 49]),
   midi.NoteOnEvent(tick=120, channel=0, data=[74, 0]),
   midi.NoteOnEvent(tick=0, channel=0, data=[82, 68]),
   midi.NoteOnEvent(tick=120, channel=0, data=[82, 0]),
   midi.NoteOnEvent(tick=0, channel=0, data=[74, 62]),
   midi.NoteOnEvent(tick=120, channel=0, data=[74, 0]),
   midi.NoteOnEvent(tick=0, channel=0, data=[81, 70]),
   midi.NoteOnEvent(tick=120, channel=0, data=[81, 0]),
   midi.NoteOnEvent(tick=0, channel=0, data=[86, 60]),
   midi.NoteOnEvent(tick=120, channel=0, data=[86, 0]),
   midi.NoteOnEvent(tick=0, channel=0, data=[81, 69]),
   midi.NoteOnEvent(tick=120, channel=0, data=[81, 0]),
   midi.NoteOnEvent(tick=0, channel=0, data=[78, 57]),
   midi.NoteOnEvent(tick=120, channel=0, data=[78, 0]),
   midi.NoteOnEvent(tick=0, channel=0, data=[74, 67]),
   midi.NoteOnEvent(tick=120, channel=0, data=[74, 0]),
   midi.NoteOnEvent(tick=0, channel=0, data=[81, 55]),
   midi.NoteOnEvent(tick=120, channel=0, data=[81, 0]),
   midi.NoteOnEvent(tick=0, channel=0, data=[78, 61]),
   midi.NoteOnEvent(tick=120, channel=0, data=[78, 0]),
   midi.NoteOnEvent(tick=0, channel=0, data=[74, 54]),
   midi.NoteOnEvent(tick=120, channel=0, data=[74, 0]),
   midi.NoteOnEvent(tick=0, channel=0, data=[69, 63]),
   midi.NoteOnEvent(tick=120, channel=0, data=[69, 0]),
   midi.NoteOnEvent(tick=0, channel=0, data=[74, 55]),
   midi.NoteOnEvent(tick=120, channel=0, data=[74, 0]),
   midi.NoteOnEvent(tick=0, channel=0, data=[69, 65]),
   midi.NoteOnEvent(tick=120, channel=0, data=[69, 0]),
   midi.NoteOnEvent(tick=0, channel=0, data=[66, 59]),
   midi.NoteOnEvent(tick=120, channel=0, data=[66, 0]),
   midi.NoteOnEvent(tick=0, channel=0, data=[62, 85]),
   midi.NoteOnEvent(tick=120, channel=0, data=[62, 0]),
   midi.NoteOnEvent(tick=360, channel=0, data=[69, 62]),
   midi.NoteOnEvent(tick=0, channel=0, data=[66, 62]),
   midi.NoteOnEvent(tick=0, channel=0, data=[74, 73]),
   midi.NoteOnEvent(tick=480, channel=0, data=[74, 0]),
   midi.NoteOnEvent(tick=0, channel=0, data=[66, 0]),
   midi.NoteOnEvent(tick=0, channel=0, data=[69, 0]),
   midi.NoteOnEvent(tick=3600, channel=0, data=[86, 45]),
   midi.NoteOnEvent(tick=60, channel=0, data=[86, 0]),
   midi.NoteOnEvent(tick=180, channel=0, data=[86, 49]),
   midi.NoteOnEvent(tick=60, channel=0, data=[86, 0]),
   midi.NoteOnEvent(tick=180, channel=0, data=[86, 43]),
   midi.NoteOnEvent(tick=60, channel=0, data=[86, 0]),
   midi.NoteOnEvent(tick=180, channel=0, data=[86, 46]),
   midi.NoteOnEvent(tick=60, channel=0, data=[86, 0]),
   midi.NoteOnEvent(tick=180, channel=0, data=[86, 40]),
   midi.NoteOnEvent(tick=60, channel=0, data=[86, 0]),
   midi.NoteOnEvent(tick=180, channel=0, data=[87, 45]),
   midi.NoteOnEvent(tick=240, channel=0, data=[86, 40]),
   midi.NoteOnEvent(tick=12, channel=0, data=[87, 0]),
   midi.NoteOnEvent(tick=228, channel=0, data=[84, 43]),
   midi.NoteOnEvent(tick=12, channel=0, data=[86, 0]),
   midi.NoteOnEvent(tick=228, channel=0, data=[83, 40]),
   midi.NoteOnEvent(tick=12, channel=0, data=[84, 0]),
   midi.NoteOnEvent(tick=228, channel=0, data=[80, 45]),
   midi.NoteOnEvent(tick=12, channel=0, data=[83, 0]),
   midi.NoteOnEvent(tick=228, channel=0, data=[79, 39]),
   midi.NoteOnEvent(tick=12, channel=0, data=[80, 0]),
   midi.NoteOnEvent(tick=228, channel=0, data=[79, 0]),
   midi.NoteOnEvent(tick=0, channel=0, data=[79, 41]),
   midi.NoteOnEvent(tick=60, channel=0, data=[79, 0]),
   midi.NoteOnEvent(tick=0, channel=0, data=[80, 39]),
   midi.NoteOnEvent(tick=60, channel=0, data=[80, 0]),
   midi.NoteOnEvent(tick=0, channel=0, data=[79, 49]),
   midi.NoteOnEvent(tick=120, channel=0, data=[79, 0]),
   midi.NoteOnEvent(tick=0, channel=0, data=[77, 44]),
   midi.NoteOnEvent(tick=230, channel=0, data=[77, 0]),
   midi.NoteOnEvent(tick=10, channel=0, data=[77, 46]),
   midi.NoteOnEvent(tick=480, channel=0, data=[77, 0]),
   midi.NoteOnEvent(tick=2160, channel=0, data=[77, 45]),
   midi.NoteOnEvent(tick=60, channel=0, data=[77, 0]),
   midi.NoteOnEvent(tick=180, channel=0, data=[77, 48]),
   midi.NoteOnEvent(tick=60, channel=0, data=[77, 0]),
   midi.NoteOnEvent(tick=180, channel=0, data=[77, 42]),
   midi.NoteOnEvent(tick=60, channel=0, data=[77, 0]),
   midi.NoteOnEvent(tick=180, channel=0, data=[77, 44]),
   midi.NoteOnEvent(tick=60, channel=0, data=[77, 0]),
   midi.NoteOnEvent(tick=180, channel=0, data=[77, 40]),
   midi.NoteOnEvent(tick=60, channel=0, data=[77, 0]),
   midi.NoteOnEvent(tick=180, channel=0, data=[79, 45]),
   midi.NoteOnEvent(tick=240, channel=0, data=[77, 40]),
   midi.NoteOnEvent(tick=12, channel=0, data=[79, 0]),
   midi.NoteOnEvent(tick=228, channel=0, data=[75, 40]),
   midi.NoteOnEvent(tick=12, channel=0, data=[77, 0]),
   midi.NoteOnEvent(tick=228, channel=0, data=[74, 40]),
   midi.NoteOnEvent(tick=12, channel=0, data=[75, 0]),
   midi.NoteOnEvent(tick=228, channel=0, data=[72, 45]),
   midi.NoteOnEvent(tick=12, channel=0, data=[74, 0]),
   midi.NoteOnEvent(tick=228, channel=0, data=[71, 39]),
   midi.NoteOnEvent(tick=12, channel=0, data=[72, 0]),
   midi.NoteOnEvent(tick=228, channel=0, data=[71, 0]),
   midi.NoteOnEvent(tick=0, channel=0, data=[72, 48]),
   midi.NoteOnEvent(tick=960, channel=0, data=[67, 42]),
   midi.NoteOnEvent(tick=20, channel=0, data=[72, 0]),
   midi.NoteOnEvent(tick=460, channel=0, data=[67, 0]),
   midi.NoteOnEvent(tick=0, channel=0, data=[63, 48]),
   midi.NoteOnEvent(tick=960, channel=0, data=[67, 45]),
   midi.NoteOnEvent(tick=20, channel=0, data=[63, 0]),
   midi.NoteOnEvent(tick=460, channel=0, data=[67, 0]),
   midi.NoteOnEvent(tick=0, channel=0, data=[72, 50]),
   midi.NoteOnEvent(tick=960, channel=0, data=[75, 52]),
   midi.NoteOnEvent(tick=20, channel=0, data=[72, 0]),
   midi.NoteOnEvent(tick=460, channel=0, data=[75, 0]),
   midi.NoteOnEvent(tick=0, channel=0, data=[79, 56]),
   midi.NoteOnEvent(tick=480, channel=0, data=[79, 0]),
   midi.NoteOnEvent(tick=960, channel=0, data=[76, 58]),
   midi.NoteOnEvent(tick=960, channel=0, data=[72, 52]),
   midi.NoteOnEvent(tick=20, channel=0, data=[76, 0]),
   midi.NoteOnEvent(tick=460, channel=0, data=[72, 0]),
   midi.NoteOnEvent(tick=0, channel=0, data=[67, 55]),
   midi.NoteOnEvent(tick=960, channel=0, data=[72, 49]),
   midi.NoteOnEvent(tick=20, channel=0, data=[67, 0]),
   midi.NoteOnEvent(tick=460, channel=0, data=[72, 0]),
   midi.NoteOnEvent(tick=0, channel=0, data=[76, 53]),
   midi.NoteOnEvent(tick=960, channel=0, data=[79, 54]),
   midi.NoteOnEvent(tick=20, channel=0, data=[76, 0]),
   midi.NoteOnEvent(tick=460, channel=0, data=[79, 0]),
   midi.NoteOnEvent(tick=0, channel=0, data=[82, 58]),
   midi.NoteOnEvent(tick=480, channel=0, data=[82, 0]),
   midi.NoteOnEvent(tick=1200, channel=0, data=[80, 45]),
   midi.NoteOnEvent(tick=60, channel=0, data=[80, 0]),
   midi.NoteOnEvent(tick=180, channel=0, data=[80, 49]),
   midi.NoteOnEvent(tick=60, channel=0, data=[80, 0]),
   midi.NoteOnEvent(tick=180, channel=0, data=[80, 43]),
   midi.NoteOnEvent(tick=60, channel=0, data=[80, 0]),
   midi.NoteOnEvent(tick=180, channel=0, data=[80, 46]),
   midi.NoteOnEvent(tick=60, channel=0, data=[80, 0]),
   midi.NoteOnEvent(tick=180, channel=0, data=[80, 40]),
   midi.NoteOnEvent(tick=60, channel=0, data=[80, 0]),
   midi.NoteOnEvent(tick=180, channel=0, data=[82, 45]),
   midi.NoteOnEvent(tick=240, channel=0, data=[80, 40]),
   midi.NoteOnEvent(tick=12, channel=0, data=[82, 0]),
   midi.NoteOnEvent(tick=228, channel=0, data=[79, 43]),
   midi.NoteOnEvent(tick=12, channel=0, data=[80, 0]),
   midi.NoteOnEvent(tick=228, channel=0, data=[77, 40]),
   midi.NoteOnEvent(tick=12, channel=0, data=[79, 0]),
   midi.NoteOnEvent(tick=228, channel=0, data=[75, 45]),
   midi.NoteOnEvent(tick=12, channel=0, data=[77, 0]),
   midi.NoteOnEvent(tick=228, channel=0, data=[74, 39]),
   midi.NoteOnEvent(tick=12, channel=0, data=[75, 0]),
   midi.NoteOnEvent(tick=228, channel=0, data=[74, 0]),
   midi.NoteOnEvent(tick=240, channel=0, data=[79, 45]),
   midi.NoteOnEvent(tick=60, channel=0, data=[79, 0]),
   midi.NoteOnEvent(tick=180, channel=0, data=[79, 49]),
   midi.NoteOnEvent(tick=60, channel=0, data=[79, 0]),
   midi.NoteOnEvent(tick=180, channel=0, data=[79, 43]),
   midi.NoteOnEvent(tick=60, channel=0, data=[79, 0]),
   midi.NoteOnEvent(tick=180, channel=0, data=[79, 46]),
   midi.NoteOnEvent(tick=60, channel=0, data=[79, 0]),
   midi.NoteOnEvent(tick=180, channel=0, data=[79, 40]),
   midi.NoteOnEvent(tick=60, channel=0, data=[79, 0]),
   midi.NoteOnEvent(tick=180, channel=0, data=[80, 45]),
   midi.NoteOnEvent(tick=240, channel=0, data=[79, 40]),
   midi.NoteOnEvent(tick=12, channel=0, data=[80, 0]),
   midi.NoteOnEvent(tick=228, channel=0, data=[77, 43]),
   midi.NoteOnEvent(tick=12, channel=0, data=[79, 0]),
   midi.NoteOnEvent(tick=228, channel=0, data=[75, 40]),
   midi.NoteOnEvent(tick=12, channel=0, data=[77, 0]),
   midi.NoteOnEvent(tick=228, channel=0, data=[74, 45]),
   midi.NoteOnEvent(tick=12, channel=0, data=[75, 0]),
   midi.NoteOnEvent(tick=228, channel=0, data=[72, 39]),
   midi.NoteOnEvent(tick=12, channel=0, data=[74, 0]),
   midi.NoteOnEvent(tick=228, channel=0, data=[72, 0]),
   midi.NoteOnEvent(tick=240, channel=0, data=[77, 45]),
   midi.NoteOnEvent(tick=60, channel=0, data=[77, 0]),
   midi.NoteOnEvent(tick=180, channel=0, data=[77, 49]),
   midi.NoteOnEvent(tick=60, channel=0, data=[77, 0]),
   midi.NoteOnEvent(tick=180, channel=0, data=[77, 43]),
   midi.NoteOnEvent(tick=60, channel=0, data=[77, 0]),
   midi.NoteOnEvent(tick=180, channel=0, data=[77, 46]),
   midi.NoteOnEvent(tick=60, channel=0, data=[77, 0]),
   midi.NoteOnEvent(tick=180, channel=0, data=[77, 40]),
   midi.NoteOnEvent(tick=60, channel=0, data=[77, 0]),
   midi.NoteOnEvent(tick=180, channel=0, data=[79, 51]),
   midi.NoteOnEvent(tick=240, channel=0, data=[77, 50]),
   midi.NoteOnEvent(tick=12, channel=0, data=[79, 0]),
   midi.NoteOnEvent(tick=228, channel=0, data=[75, 49]),
   midi.NoteOnEvent(tick=12, channel=0, data=[77, 0]),
   midi.NoteOnEvent(tick=228, channel=0, data=[74, 48]),
   midi.NoteOnEvent(tick=12, channel=0, data=[75, 0]),
   midi.NoteOnEvent(tick=228, channel=0, data=[72, 47]),
   midi.NoteOnEvent(tick=12, channel=0, data=[74, 0]),
   midi.NoteOnEvent(tick=228, channel=0, data=[71, 47]),
   midi.NoteOnEvent(tick=12, channel=0, data=[72, 0]),
   midi.NoteOnEvent(tick=228, channel=0, data=[71, 0]),
   midi.NoteOnEvent(tick=0, channel=0, data=[77, 56]),
   midi.NoteOnEvent(tick=240, channel=0, data=[75, 54]),
   midi.NoteOnEvent(tick=12, channel=0, data=[77, 0]),
   midi.NoteOnEvent(tick=228, channel=0, data=[74, 52]),
   midi.NoteOnEvent(tick=12, channel=0, data=[75, 0]),
   midi.NoteOnEvent(tick=228, channel=0, data=[72, 51]),
   midi.NoteOnEvent(tick=12, channel=0, data=[74, 0]),
   midi.NoteOnEvent(tick=228, channel=0, data=[70, 49]),
   midi.NoteOnEvent(tick=12, channel=0, data=[72, 0]),
   midi.NoteOnEvent(tick=228, channel=0, data=[69, 47]),
   midi.NoteOnEvent(tick=12, channel=0, data=[70, 0]),
   midi.NoteOnEvent(tick=228, channel=0, data=[69, 0]),
   midi.NoteOnEvent(tick=0, channel=0, data=[84, 60]),
   midi.NoteOnEvent(tick=240, channel=0, data=[82, 58]),
   midi.NoteOnEvent(tick=12, channel=0, data=[84, 0]),
   midi.NoteOnEvent(tick=228, channel=0, data=[81, 56]),
   midi.NoteOnEvent(tick=12, channel=0, data=[82, 0]),
   midi.NoteOnEvent(tick=228, channel=0, data=[79, 54]),
   midi.NoteOnEvent(tick=12, channel=0, data=[81, 0]),
   midi.NoteOnEvent(tick=228, channel=0, data=[77, 54]),
   midi.NoteOnEvent(tick=12, channel=0, data=[79, 0]),
   midi.NoteOnEvent(tick=228, channel=0, data=[76, 57]),
   midi.NoteOnEvent(tick=12, channel=0, data=[77, 0]),
   midi.NoteOnEvent(tick=228, channel=0, data=[76, 0]),
   midi.NoteOnEvent(tick=0, channel=0, data=[77, 61]),
   midi.NoteOnEvent(tick=480, channel=0, data=[77, 0]),
   midi.NoteOnEvent(tick=480, channel=0, data=[69, 45]),
   midi.NoteOnEvent(tick=0, channel=0, data=[75, 55]),
   midi.NoteOnEvent(tick=480, channel=0, data=[75, 0]),
   midi.NoteOnEvent(tick=0, channel=0, data=[69, 0]),
   midi.NoteOnEvent(tick=0, channel=0, data=[70, 45]),
   midi.NoteOnEvent(tick=0, channel=0, data=[73, 60]),
   midi.NoteOnEvent(tick=480, channel=0, data=[73, 0]),
   midi.NoteOnEvent(tick=0, channel=0, data=[70, 0]),
   midi.NoteOnEvent(tick=480, channel=0, data=[73, 45]),
   midi.NoteOnEvent(tick=0, channel=0, data=[82, 55]),
   midi.NoteOnEvent(tick=480, channel=0, data=[82, 0]),
   midi.NoteOnEvent(tick=0, channel=0, data=[73, 0]),
   midi.NoteOnEvent(tick=0, channel=0, data=[72, 45]),
   midi.NoteOnEvent(tick=0, channel=0, data=[81, 61]),
   midi.NoteOnEvent(tick=480, channel=0, data=[81, 0]),
   midi.NoteOnEvent(tick=0, channel=0, data=[72, 0]),
   midi.NoteOnEvent(tick=480, channel=0, data=[63, 45]),
   midi.NoteOnEvent(tick=0, channel=0, data=[69, 55]),
   midi.NoteOnEvent(tick=480, channel=0, data=[69, 0]),
   midi.NoteOnEvent(tick=0, channel=0, data=[63, 0]),
   midi.NoteOnEvent(tick=0, channel=0, data=[61, 45]),
   midi.NoteOnEvent(tick=0, channel=0, data=[70, 60]),
   midi.NoteOnEvent(tick=480, channel=0, data=[70, 0]),
   midi.NoteOnEvent(tick=0, channel=0, data=[61, 0]),
   midi.NoteOnEvent(tick=480, channel=0, data=[58, 45]),
   midi.NoteOnEvent(tick=0, channel=0, data=[61, 55]),
   midi.NoteOnEvent(tick=480, channel=0, data=[61, 0]),
   midi.NoteOnEvent(tick=0, channel=0, data=[58, 0]),
   midi.NoteOnEvent(tick=0, channel=0, data=[57, 45]),
   midi.NoteOnEvent(tick=0, channel=0, data=[60, 60]),
   midi.NoteOnEvent(tick=240, channel=0, data=[60, 0]),
   midi.NoteOnEvent(tick=0, channel=0, data=[57, 0]),
   midi.NoteOnEvent(tick=0, channel=0, data=[65, 45]),
   midi.NoteOnEvent(tick=60, channel=0, data=[65, 0]),
   midi.NoteOnEvent(tick=180, channel=0, data=[65, 49]),
   midi.NoteOnEvent(tick=60, channel=0, data=[65, 0]),
   midi.NoteOnEvent(tick=180, channel=0, data=[65, 43]),
   midi.NoteOnEvent(tick=60, channel=0, data=[65, 0]),
   midi.NoteOnEvent(tick=180, channel=0, data=[65, 46]),
   midi.NoteOnEvent(tick=60, channel=0, data=[65, 0]),
   midi.NoteOnEvent(tick=180, channel=0, data=[65, 40]),
   midi.NoteOnEvent(tick=60, channel=0, data=[65, 0]),
   midi.NoteOnEvent(tick=180, channel=0, data=[64, 44]),
   midi.NoteOnEvent(tick=240, channel=0, data=[64, 0]),
   midi.NoteOnEvent(tick=0, channel=0, data=[65, 40]),
   midi.NoteOnEvent(tick=240, channel=0, data=[65, 0]),
   midi.NoteOnEvent(tick=0, channel=0, data=[67, 45]),
   midi.NoteOnEvent(tick=240, channel=0, data=[67, 0]),
   midi.NoteOnEvent(tick=0, channel=0, data=[65, 40]),
   midi.NoteOnEvent(tick=240, channel=0, data=[65, 0]),
   midi.NoteOnEvent(tick=0, channel=0, data=[70, 43]),
   midi.NoteOnEvent(tick=240, channel=0, data=[70, 0]),
   midi.NoteOnEvent(tick=0, channel=0, data=[69, 40]),
   midi.NoteOnEvent(tick=240, channel=0, data=[69, 0]),
   midi.NoteOnEvent(tick=0, channel=0, data=[74, 44]),
   midi.NoteOnEvent(tick=240, channel=0, data=[74, 0]),
   midi.NoteOnEvent(tick=0, channel=0, data=[72, 40]),
   midi.NoteOnEvent(tick=240, channel=0, data=[72, 0]),
   midi.NoteOnEvent(tick=0, channel=0, data=[75, 45]),
   midi.NoteOnEvent(tick=240, channel=0, data=[75, 0]),
   midi.NoteOnEvent(tick=0, channel=0, data=[74, 40]),
   midi.NoteOnEvent(tick=240, channel=0, data=[74, 0]),
   midi.NoteOnEvent(tick=0, channel=0, data=[79, 45]),
   midi.NoteOnEvent(tick=240, channel=0, data=[79, 0]),
   midi.NoteOnEvent(tick=0, channel=0, data=[77, 40]),
   midi.NoteOnEvent(tick=180, channel=0, data=[77, 0]),
   midi.NoteOnEvent(tick=60, channel=0, data=[77, 45]),
   midi.NoteOnEvent(tick=720, channel=0, data=[77, 0]),
   midi.NoteOnEvent(tick=0, channel=0, data=[76, 40]),
   midi.NoteOnEvent(tick=240, channel=0, data=[76, 0]),
   midi.NoteOnEvent(tick=0, channel=0, data=[75, 43]),
   midi.NoteOnEvent(tick=240, channel=0, data=[75, 0]),
   midi.NoteOnEvent(tick=0, channel=0, data=[72, 40]),
   midi.NoteOnEvent(tick=240, channel=0, data=[72, 0]),
   midi.NoteOnEvent(tick=0, channel=0, data=[70, 48]),
   midi.NoteOnEvent(tick=960, channel=0, data=[70, 0]),
   midi.NoteOnEvent(tick=0, channel=0, data=[65, 41]),
   midi.NoteOnEvent(tick=480, channel=0, data=[65, 0]),
   midi.NoteOnEvent(tick=0, channel=0, data=[62, 48]),
   midi.NoteOnEvent(tick=960, channel=0, data=[62, 0]),
   midi.NoteOnEvent(tick=0, channel=0, data=[65, 44]),
   midi.NoteOnEvent(tick=480, channel=0, data=[65, 0]),
   midi.NoteOnEvent(tick=0, channel=0, data=[70, 48]),
   midi.NoteOnEvent(tick=960, channel=0, data=[70, 0]),
   midi.NoteOnEvent(tick=0, channel=0, data=[74, 51]),
   midi.NoteOnEvent(tick=480, channel=0, data=[74, 0]),
   midi.NoteOnEvent(tick=0, channel=0, data=[77, 56]),
   midi.NoteOnEvent(tick=960, channel=0, data=[77, 0]),
   midi.NoteOnEvent(tick=0, channel=0, data=[82, 58]),
   midi.NoteOnEvent(tick=240, channel=0, data=[82, 0]),
   midi.NoteOnEvent(tick=0, channel=0, data=[74, 51]),
   midi.NoteOnEvent(tick=240, channel=0, data=[74, 0]),
   midi.NoteOnEvent(tick=0, channel=0, data=[77, 56]),
   midi.NoteOnEvent(tick=240, channel=0, data=[75, 52]),
   midi.NoteOnEvent(tick=12, channel=0, data=[77, 0]),
   midi.NoteOnEvent(tick=228, channel=0, data=[74, 51]),
   midi.NoteOnEvent(tick=12, channel=0, data=[75, 0]),
   midi.NoteOnEvent(tick=228, channel=0, data=[72, 49]),
   midi.NoteOnEvent(tick=12, channel=0, data=[74, 0]),
   midi.NoteOnEvent(tick=228, channel=0, data=[70, 48]),
   midi.NoteOnEvent(tick=12, channel=0, data=[72, 0]),
   midi.NoteOnEvent(tick=228, channel=0, data=[69, 47]),
   midi.NoteOnEvent(tick=12, channel=0, data=[70, 0]),
   midi.NoteOnEvent(tick=228, channel=0, data=[69, 0]),
   midi.NoteOnEvent(tick=0, channel=0, data=[67, 50]),
   midi.NoteOnEvent(tick=240, channel=0, data=[65, 44]),
   midi.NoteOnEvent(tick=12, channel=0, data=[67, 0]),
   midi.NoteOnEvent(tick=228, channel=0, data=[64, 44]),
   midi.NoteOnEvent(tick=12, channel=0, data=[65, 0]),
   midi.NoteOnEvent(tick=228, channel=0, data=[65, 45]),
   midi.NoteOnEvent(tick=12, channel=0, data=[64, 0]),
   midi.NoteOnEvent(tick=228, channel=0, data=[67, 47]),
   midi.NoteOnEvent(tick=12, channel=0, data=[65, 0]),
   midi.NoteOnEvent(tick=228, channel=0, data=[69, 50]),
   midi.NoteOnEvent(tick=12, channel=0, data=[67, 0]),
   midi.NoteOnEvent(tick=228, channel=0, data=[69, 0]),
   midi.NoteOnEvent(tick=0, channel=0, data=[70, 50]),
   midi.NoteOnEvent(tick=60, channel=0, data=[70, 0]),
   midi.NoteOnEvent(tick=120, channel=0, data=[72, 45]),
   midi.NoteOnEvent(tick=60, channel=0, data=[72, 0]),
   midi.NoteOnEvent(tick=0, channel=0, data=[70, 49]),
   midi.NoteOnEvent(tick=120, channel=0, data=[70, 0]),
   midi.NoteOnEvent(tick=0, channel=0, data=[69, 46]),
   midi.NoteOnEvent(tick=120, channel=0, data=[69, 0]),
   midi.NoteOnEvent(tick=0, channel=0, data=[70, 50]),
   midi.NoteOnEvent(tick=60, channel=0, data=[70, 0]),
   midi.NoteOnEvent(tick=180, channel=0, data=[72, 47]),
   midi.NoteOnEvent(tick=60, channel=0, data=[72, 0]),
   midi.NoteOnEvent(tick=180, channel=0, data=[74, 49]),
   midi.NoteOnEvent(tick=60, channel=0, data=[74, 0]),
   midi.NoteOnEvent(tick=180, channel=0, data=[75, 51]),
   midi.NoteOnEvent(tick=60, channel=0, data=[75, 0]),
   midi.NoteOnEvent(tick=180, channel=0, data=[76, 53]),
   midi.NoteOnEvent(tick=240, channel=0, data=[77, 50]),
   midi.NoteOnEvent(tick=12, channel=0, data=[76, 0]),
   midi.NoteOnEvent(tick=228, channel=0, data=[79, 55]),
   midi.NoteOnEvent(tick=12, channel=0, data=[77, 0]),
   midi.NoteOnEvent(tick=228, channel=0, data=[77, 50]),
   midi.NoteOnEvent(tick=12, channel=0, data=[79, 0]),
   midi.NoteOnEvent(tick=228, channel=0, data=[77, 0]),
   midi.NoteOnEvent(tick=0, channel=0, data=[82, 59]),
   midi.NoteOnEvent(tick=240, channel=0, data=[82, 0]),
   midi.NoteOnEvent(tick=0, channel=0, data=[74, 50]),
   midi.NoteOnEvent(tick=240, channel=0, data=[74, 0]),
   midi.NoteOnEvent(tick=0, channel=0, data=[77, 57]),
   midi.NoteOnEvent(tick=240, channel=0, data=[75, 55]),
   midi.NoteOnEvent(tick=12, channel=0, data=[77, 0]),
   midi.NoteOnEvent(tick=228, channel=0, data=[74, 53]),
   midi.NoteOnEvent(tick=12, channel=0, data=[75, 0]),
   midi.NoteOnEvent(tick=228, channel=0, data=[72, 51]),
   midi.NoteOnEvent(tick=12, channel=0, data=[74, 0]),
   midi.NoteOnEvent(tick=228, channel=0, data=[70, 49]),
   midi.NoteOnEvent(tick=12, channel=0, data=[72, 0]),
   midi.NoteOnEvent(tick=228, channel=0, data=[69, 47]),
   midi.NoteOnEvent(tick=12, channel=0, data=[70, 0]),
   midi.NoteOnEvent(tick=228, channel=0, data=[69, 0]),
   midi.NoteOnEvent(tick=0, channel=0, data=[67, 50]),
   midi.NoteOnEvent(tick=240, channel=0, data=[65, 43]),
   midi.NoteOnEvent(tick=12, channel=0, data=[67, 0]),
   midi.NoteOnEvent(tick=228, channel=0, data=[64, 50]),
   midi.NoteOnEvent(tick=12, channel=0, data=[65, 0]),
   midi.NoteOnEvent(tick=228, channel=0, data=[65, 43]),
   midi.NoteOnEvent(tick=12, channel=0, data=[64, 0]),
   midi.NoteOnEvent(tick=228, channel=0, data=[67, 50]),
   midi.NoteOnEvent(tick=12, channel=0, data=[65, 0]),
   midi.NoteOnEvent(tick=228, channel=0, data=[69, 45]),
   midi.NoteOnEvent(tick=12, channel=0, data=[67, 0]),
   midi.NoteOnEvent(tick=228, channel=0, data=[69, 0]),
   midi.NoteOnEvent(tick=0, channel=0, data=[70, 50]),
   midi.NoteOnEvent(tick=120, channel=0, data=[70, 0]),
   midi.NoteOnEvent(tick=360, channel=0, data=[70, 48]),
   midi.NoteOnEvent(tick=120, channel=0, data=[70, 0]),
   midi.NoteOnEvent(tick=360, channel=0, data=[74, 48]),
   midi.NoteOnEvent(tick=120, channel=0, data=[74, 0]),
   midi.NoteOnEvent(tick=360, channel=0, data=[70, 50]),
   midi.NoteOnEvent(tick=480, channel=0, data=[70, 0]),
   midi.NoteOnEvent(tick=360, channel=0, data=[70, 44]),
   midi.NoteOnEvent(tick=60, channel=0, data=[70, 0]),
   midi.NoteOnEvent(tick=60, channel=0, data=[72, 50]),
   midi.NoteOnEvent(tick=120, channel=0, data=[70, 43]),
   midi.NoteOnEvent(tick=12, channel=0, data=[72, 0]),
   midi.NoteOnEvent(tick=108, channel=0, data=[69, 45]),
   midi.NoteOnEvent(tick=12, channel=0, data=[70, 0]),
   midi.NoteOnEvent(tick=108, channel=0, data=[70, 42]),
   midi.NoteOnEvent(tick=12, channel=0, data=[69, 0]),
   midi.NoteOnEvent(tick=108, channel=0, data=[79, 56]),
   midi.NoteOnEvent(tick=12, channel=0, data=[70, 0]),
   midi.NoteOnEvent(tick=468, channel=0, data=[79, 0]),
   midi.NoteOnEvent(tick=360, channel=0, data=[70, 44]),
   midi.NoteOnEvent(tick=60, channel=0, data=[70, 0]),
   midi.NoteOnEvent(tick=60, channel=0, data=[72, 50]),
   midi.NoteOnEvent(tick=120, channel=0, data=[70, 43]),
   midi.NoteOnEvent(tick=12, channel=0, data=[72, 0]),
   midi.NoteOnEvent(tick=108, channel=0, data=[69, 45]),
   midi.NoteOnEvent(tick=12, channel=0, data=[70, 0]),
   midi.NoteOnEvent(tick=108, channel=0, data=[70, 42]),
   midi.NoteOnEvent(tick=12, channel=0, data=[69, 0]),
   midi.NoteOnEvent(tick=108, channel=0, data=[77, 55]),
   midi.NoteOnEvent(tick=12, channel=0, data=[70, 0]),
   midi.NoteOnEvent(tick=468, channel=0, data=[77, 0]),
   midi.NoteOnEvent(tick=360, channel=0, data=[70, 44]),
   midi.NoteOnEvent(tick=60, channel=0, data=[70, 0]),
   midi.NoteOnEvent(tick=60, channel=0, data=[72, 50]),
   midi.NoteOnEvent(tick=120, channel=0, data=[70, 43]),
   midi.NoteOnEvent(tick=12, channel=0, data=[72, 0]),
   midi.NoteOnEvent(tick=108, channel=0, data=[69, 45]),
   midi.NoteOnEvent(tick=12, channel=0, data=[70, 0]),
   midi.NoteOnEvent(tick=108, channel=0, data=[70, 42]),
   midi.NoteOnEvent(tick=12, channel=0, data=[69, 0]),
   midi.NoteOnEvent(tick=108, channel=0, data=[72, 52]),
   midi.NoteOnEvent(tick=12, channel=0, data=[70, 0]),
   midi.NoteOnEvent(tick=468, channel=0, data=[72, 0]),
   midi.NoteOnEvent(tick=0, channel=0, data=[77, 49]),
   midi.NoteOnEvent(tick=480, channel=0, data=[77, 0]),
   midi.NoteOnEvent(tick=0, channel=0, data=[75, 48]),
   midi.NoteOnEvent(tick=480, channel=0, data=[75, 0]),
   midi.NoteOnEvent(tick=0, channel=0, data=[73, 55]),
   midi.NoteOnEvent(tick=480, channel=0, data=[73, 0]),
   midi.NoteOnEvent(tick=0, channel=0, data=[74, 49]),
   midi.NoteOnEvent(tick=240, channel=0, data=[74, 0]),
   midi.NoteOnEvent(tick=120, channel=0, data=[70, 44]),
   midi.NoteOnEvent(tick=60, channel=0, data=[70, 0]),
   midi.NoteOnEvent(tick=60, channel=0, data=[72, 50]),
   midi.NoteOnEvent(tick=120, channel=0, data=[70, 43]),
   midi.NoteOnEvent(tick=12, channel=0, data=[72, 0]),
   midi.NoteOnEvent(tick=108, channel=0, data=[69, 45]),
   midi.NoteOnEvent(tick=12, channel=0, data=[70, 0]),
   midi.NoteOnEvent(tick=108, channel=0, data=[70, 42]),
   midi.NoteOnEvent(tick=12, channel=0, data=[69, 0]),
   midi.NoteOnEvent(tick=108, channel=0, data=[79, 56]),
   midi.NoteOnEvent(tick=12, channel=0, data=[70, 0]),
   midi.NoteOnEvent(tick=468, channel=0, data=[79, 0]),
   midi.NoteOnEvent(tick=360, channel=0, data=[70, 44]),
   midi.NoteOnEvent(tick=60, channel=0, data=[70, 0]),
   midi.NoteOnEvent(tick=60, channel=0, data=[72, 50]),
   midi.NoteOnEvent(tick=120, channel=0, data=[70, 43]),
   midi.NoteOnEvent(tick=12, channel=0, data=[72, 0]),
   midi.NoteOnEvent(tick=108, channel=0, data=[69, 45]),
   midi.NoteOnEvent(tick=12, channel=0, data=[70, 0]),
   midi.NoteOnEvent(tick=108, channel=0, data=[70, 42]),
   midi.NoteOnEvent(tick=12, channel=0, data=[69, 0]),
   midi.NoteOnEvent(tick=108, channel=0, data=[77, 55]),
   midi.NoteOnEvent(tick=12, channel=0, data=[70, 0]),
   midi.NoteOnEvent(tick=468, channel=0, data=[77, 0]),
   midi.NoteOnEvent(tick=360, channel=0, data=[70, 44]),
   midi.NoteOnEvent(tick=60, channel=0, data=[70, 0]),
   midi.NoteOnEvent(tick=60, channel=0, data=[72, 50]),
   midi.NoteOnEvent(tick=120, channel=0, data=[70, 43]),
   midi.NoteOnEvent(tick=12, channel=0, data=[72, 0]),
   midi.NoteOnEvent(tick=108, channel=0, data=[69, 45]),
   midi.NoteOnEvent(tick=12, channel=0, data=[70, 0]),
   midi.NoteOnEvent(tick=108, channel=0, data=[70, 42]),
   midi.NoteOnEvent(tick=12, channel=0, data=[69, 0]),
   midi.NoteOnEvent(tick=108, channel=0, data=[72, 52]),
   midi.NoteOnEvent(tick=12, channel=0, data=[70, 0]),
   midi.NoteOnEvent(tick=468, channel=0, data=[72, 0]),
   midi.NoteOnEvent(tick=0, channel=0, data=[75, 49]),
   midi.NoteOnEvent(tick=480, channel=0, data=[75, 0]),
   midi.NoteOnEvent(tick=0, channel=0, data=[69, 48]),
   midi.NoteOnEvent(tick=480, channel=0, data=[69, 0]),
   midi.NoteOnEvent(tick=0, channel=0, data=[70, 55]),
   midi.NoteOnEvent(tick=480, channel=0, data=[70, 0]),
   midi.NoteOnEvent(tick=960, channel=0, data=[74, 64]),
   midi.NoteOnEvent(tick=0, channel=0, data=[70, 64]),
   midi.NoteOnEvent(tick=0, channel=0, data=[79, 77]),
   midi.NoteOnEvent(tick=120, channel=0, data=[79, 0]),
   midi.NoteOnEvent(tick=0, channel=0, data=[70, 0]),
   midi.NoteOnEvent(tick=0, channel=0, data=[74, 0]),
   midi.NoteOnEvent(tick=360, channel=0, data=[67, 64]),
   midi.NoteOnEvent(tick=120, channel=0, data=[67, 0]),
   midi.NoteOnEvent(tick=840, channel=0, data=[69, 63]),
   midi.NoteOnEvent(tick=0, channel=0, data=[66, 63]),
   midi.NoteOnEvent(tick=0, channel=0, data=[74, 75]),
   midi.NoteOnEvent(tick=120, channel=0, data=[74, 0]),
   midi.NoteOnEvent(tick=0, channel=0, data=[66, 0]),
   midi.NoteOnEvent(tick=0, channel=0, data=[69, 0]),
   midi.NoteOnEvent(tick=360, channel=0, data=[62, 67]),
   midi.NoteOnEvent(tick=120, channel=0, data=[62, 0]),
   midi.NoteOnEvent(tick=840, channel=0, data=[63, 43]),
   midi.NoteOnEvent(tick=960, channel=0, data=[63, 0]),
   midi.NoteOnEvent(tick=0, channel=0, data=[65, 36]),
   midi.NoteOnEvent(tick=120, channel=0, data=[63, 36]),
   midi.NoteOnEvent(tick=12, channel=0, data=[65, 0]),
   midi.NoteOnEvent(tick=108, channel=0, data=[62, 36]),
   midi.NoteOnEvent(tick=12, channel=0, data=[63, 0]),
   midi.NoteOnEvent(tick=108, channel=0, data=[63, 36]),
   midi.NoteOnEvent(tick=12, channel=0, data=[62, 0]),
   midi.NoteOnEvent(tick=108, channel=0, data=[63, 0]),
   midi.NoteOnEvent(tick=0, channel=0, data=[72, 42]),
   midi.NoteOnEvent(tick=240, channel=0, data=[72, 0]),
   midi.NoteOnEvent(tick=0, channel=0, data=[70, 37]),
   midi.NoteOnEvent(tick=240, channel=0, data=[70, 0]),
   midi.NoteOnEvent(tick=0, channel=0, data=[70, 43]),
   midi.NoteOnEvent(tick=480, channel=0, data=[70, 0]),
   midi.NoteOnEvent(tick=0, channel=0, data=[70, 38]),
   midi.NoteOnEvent(tick=480, channel=0, data=[70, 0]),
   midi.NoteOnEvent(tick=0, channel=0, data=[70, 39]),
   midi.NoteOnEvent(tick=240, channel=0, data=[75, 45]),
   midi.NoteOnEvent(tick=12, channel=0, data=[70, 0]),
   midi.NoteOnEvent(tick=228, channel=0, data=[74, 44]),
   midi.NoteOnEvent(tick=12, channel=0, data=[75, 0]),
   midi.NoteOnEvent(tick=228, channel=0, data=[73, 42]),
   midi.NoteOnEvent(tick=12, channel=0, data=[74, 0]),
   midi.NoteOnEvent(tick=228, channel=0, data=[72, 40]),
   midi.NoteOnEvent(tick=12, channel=0, data=[73, 0]),
   midi.NoteOnEvent(tick=228, channel=0, data=[71, 38]),
   midi.NoteOnEvent(tick=12, channel=0, data=[72, 0]),
   midi.NoteOnEvent(tick=228, channel=0, data=[70, 41]),
   midi.NoteOnEvent(tick=12, channel=0, data=[71, 0]),
   midi.NoteOnEvent(tick=468, channel=0, data=[70, 0]),
   midi.NoteOnEvent(tick=960, channel=0, data=[63, 45]),
   midi.NoteOnEvent(tick=960, channel=0, data=[63, 0]),
   midi.NoteOnEvent(tick=0, channel=0, data=[65, 42]),
   midi.NoteOnEvent(tick=120, channel=0, data=[63, 39]),
   midi.NoteOnEvent(tick=12, channel=0, data=[65, 0]),
   midi.NoteOnEvent(tick=108, channel=0, data=[62, 42]),
   midi.NoteOnEvent(tick=12, channel=0, data=[63, 0]),
   midi.NoteOnEvent(tick=108, channel=0, data=[63, 40]),
   midi.NoteOnEvent(tick=12, channel=0, data=[62, 0]),
   midi.NoteOnEvent(tick=108, channel=0, data=[63, 0]),
   midi.NoteOnEvent(tick=0, channel=0, data=[72, 54]),
   midi.NoteOnEvent(tick=240, channel=0, data=[72, 0]),
   midi.NoteOnEvent(tick=0, channel=0, data=[71, 48]),
   midi.NoteOnEvent(tick=240, channel=0, data=[71, 0]),
   midi.NoteOnEvent(tick=0, channel=0, data=[71, 53]),
   midi.NoteOnEvent(tick=480, channel=0, data=[71, 0]),
   midi.NoteOnEvent(tick=0, channel=0, data=[71, 47]),
   midi.NoteOnEvent(tick=480, channel=0, data=[71, 0]),
   midi.NoteOnEvent(tick=0, channel=0, data=[72, 50]),
   midi.NoteOnEvent(tick=240, channel=0, data=[79, 58]),
   midi.NoteOnEvent(tick=12, channel=0, data=[72, 0]),
   midi.NoteOnEvent(tick=228, channel=0, data=[75, 56]),
   midi.NoteOnEvent(tick=12, channel=0, data=[79, 0]),
   midi.NoteOnEvent(tick=228, channel=0, data=[74, 54]),
   midi.NoteOnEvent(tick=12, channel=0, data=[75, 0]),
   midi.NoteOnEvent(tick=228, channel=0, data=[72, 51]),
   midi.NoteOnEvent(tick=12, channel=0, data=[74, 0]),
   midi.NoteOnEvent(tick=228, channel=0, data=[70, 49]),
   midi.NoteOnEvent(tick=12, channel=0, data=[72, 0]),
   midi.NoteOnEvent(tick=228, channel=0, data=[69, 50]),
   midi.NoteOnEvent(tick=12, channel=0, data=[70, 0]),
   midi.NoteOnEvent(tick=468, channel=0, data=[69, 0]),
   midi.NoteOnEvent(tick=960, channel=0, data=[70, 59]),
   midi.NoteOnEvent(tick=240, channel=0, data=[86, 62]),
   midi.NoteOnEvent(tick=12, channel=0, data=[70, 0]),
   midi.NoteOnEvent(tick=228, channel=0, data=[82, 61]),
   midi.NoteOnEvent(tick=12, channel=0, data=[86, 0]),
   midi.NoteOnEvent(tick=228, channel=0, data=[81, 60]),
   midi.NoteOnEvent(tick=12, channel=0, data=[82, 0]),
   midi.NoteOnEvent(tick=228, channel=0, data=[79, 58]),
   midi.NoteOnEvent(tick=12, channel=0, data=[81, 0]),
   midi.NoteOnEvent(tick=228, channel=0, data=[77, 57]),
   midi.NoteOnEvent(tick=12, channel=0, data=[79, 0]),
   midi.NoteOnEvent(tick=228, channel=0, data=[76, 62]),
   midi.NoteOnEvent(tick=12, channel=0, data=[77, 0]),
   midi.NoteOnEvent(tick=468, channel=0, data=[76, 0]),
   midi.NoteOnEvent(tick=1080, channel=0, data=[77, 46]),
   midi.NoteOnEvent(tick=120, channel=0, data=[77, 0]),
   midi.NoteOnEvent(tick=0, channel=0, data=[76, 49]),
   midi.NoteOnEvent(tick=120, channel=0, data=[76, 0]),
   midi.NoteOnEvent(tick=0, channel=0, data=[77, 44]),
   midi.NoteOnEvent(tick=120, channel=0, data=[77, 0]),
   midi.NoteOnEvent(tick=0, channel=0, data=[79, 49]),
   midi.NoteOnEvent(tick=120, channel=0, data=[79, 0]),
   midi.NoteOnEvent(tick=0, channel=0, data=[77, 44]),
   midi.NoteOnEvent(tick=120, channel=0, data=[77, 0]),
   midi.NoteOnEvent(tick=0, channel=0, data=[76, 49]),
   midi.NoteOnEvent(tick=120, channel=0, data=[76, 0]),
   midi.NoteOnEvent(tick=0, channel=0, data=[77, 44]),
   midi.NoteOnEvent(tick=120, channel=0, data=[77, 0]),
   midi.NoteOnEvent(tick=120, channel=0, data=[77, 49]),
   midi.NoteOnEvent(tick=120, channel=0, data=[77, 0]),
   midi.NoteOnEvent(tick=0, channel=0, data=[81, 54]),
   midi.NoteOnEvent(tick=120, channel=0, data=[81, 0]),
   midi.NoteOnEvent(tick=0, channel=0, data=[77, 49]),
   midi.NoteOnEvent(tick=120, channel=0, data=[77, 0]),
   midi.NoteOnEvent(tick=120, channel=0, data=[77, 53]),
   midi.NoteOnEvent(tick=120, channel=0, data=[77, 0]),
   midi.NoteOnEvent(tick=0, channel=0, data=[82, 57]),
   midi.NoteOnEvent(tick=120, channel=0, data=[82, 0]),
   midi.NoteOnEvent(tick=0, channel=0, data=[77, 52]),
   midi.NoteOnEvent(tick=120, channel=0, data=[77, 0]),
   midi.NoteOnEvent(tick=120, channel=0, data=[77, 55]),
   midi.NoteOnEvent(tick=120, channel=0, data=[77, 0]),
   midi.NoteOnEvent(tick=0, channel=0, data=[87, 61]),
   midi.NoteOnEvent(tick=120, channel=0, data=[87, 0]),
   midi.NoteOnEvent(tick=0, channel=0, data=[77, 57]),
   midi.NoteOnEvent(tick=120, channel=0, data=[77, 0]),
   midi.NoteOnEvent(tick=120, channel=0, data=[77, 57]),
   midi.NoteOnEvent(tick=120, channel=0, data=[77, 0]),
   midi.NoteOnEvent(tick=0, channel=0, data=[86, 64]),
   midi.NoteOnEvent(tick=120, channel=0, data=[86, 0]),
   midi.NoteOnEvent(tick=0, channel=0, data=[77, 57]),
   midi.NoteOnEvent(tick=120, channel=0, data=[77, 0]),
   midi.NoteOnEvent(tick=0, channel=0, data=[84, 65]),
   midi.NoteOnEvent(tick=120, channel=0, data=[84, 0]),
   midi.NoteOnEvent(tick=0, channel=0, data=[81, 60]),
   midi.NoteOnEvent(tick=120, channel=0, data=[81, 0]),
   midi.NoteOnEvent(tick=0, channel=0, data=[79, 65]),
   midi.NoteOnEvent(tick=120, channel=0, data=[79, 0]),
   midi.NoteOnEvent(tick=0, channel=0, data=[77, 60]),
   midi.NoteOnEvent(tick=120, channel=0, data=[77, 0]),
   midi.NoteOnEvent(tick=0, channel=0, data=[76, 57]),
   midi.NoteOnEvent(tick=120, channel=0, data=[76, 0]),
   midi.NoteOnEvent(tick=0, channel=0, data=[77, 59]),
   midi.NoteOnEvent(tick=120, channel=0, data=[77, 0]),
   midi.NoteOnEvent(tick=0, channel=0, data=[79, 60]),
   midi.NoteOnEvent(tick=120, channel=0, data=[79, 0]),
   midi.NoteOnEvent(tick=0, channel=0, data=[77, 56]),
   midi.NoteOnEvent(tick=120, channel=0, data=[77, 0]),
   midi.NoteOnEvent(tick=120, channel=0, data=[77, 49]),
   midi.NoteOnEvent(tick=120, channel=0, data=[77, 0]),
   midi.NoteOnEvent(tick=0, channel=0, data=[81, 53]),
   midi.NoteOnEvent(tick=120, channel=0, data=[81, 0]),
   midi.NoteOnEvent(tick=0, channel=0, data=[77, 49]),
   midi.NoteOnEvent(tick=120, channel=0, data=[77, 0]),
   midi.NoteOnEvent(tick=120, channel=0, data=[77, 52]),
   midi.NoteOnEvent(tick=120, channel=0, data=[77, 0]),
   midi.NoteOnEvent(tick=0, channel=0, data=[82, 58]),
   midi.NoteOnEvent(tick=120, channel=0, data=[82, 0]),
   midi.NoteOnEvent(tick=0, channel=0, data=[77, 54]),
   midi.NoteOnEvent(tick=120, channel=0, data=[77, 0]),
   midi.NoteOnEvent(tick=120, channel=0, data=[77, 55]),
   midi.NoteOnEvent(tick=120, channel=0, data=[77, 0]),
   midi.NoteOnEvent(tick=0, channel=0, data=[87, 61]),
   midi.NoteOnEvent(tick=120, channel=0, data=[87, 0]),
   midi.NoteOnEvent(tick=0, channel=0, data=[77, 55]),
   midi.NoteOnEvent(tick=120, channel=0, data=[77, 0]),
   midi.NoteOnEvent(tick=120, channel=0, data=[77, 49]),
   midi.NoteOnEvent(tick=120, channel=0, data=[77, 0]),
   midi.NoteOnEvent(tick=0, channel=0, data=[86, 68]),
   midi.NoteOnEvent(tick=120, channel=0, data=[86, 0]),
   midi.NoteOnEvent(tick=0, channel=0, data=[77, 62]),
   midi.NoteOnEvent(tick=120, channel=0, data=[77, 0]),
   midi.NoteOnEvent(tick=0, channel=0, data=[84, 73]),
   midi.NoteOnEvent(tick=120, channel=0, data=[84, 0]),
   midi.NoteOnEvent(tick=0, channel=0, data=[89, 62]),
   midi.NoteOnEvent(tick=120, channel=0, data=[89, 0]),
   midi.NoteOnEvent(tick=0, channel=0, data=[84, 69]),
   midi.NoteOnEvent(tick=120, channel=0, data=[84, 0]),
   midi.NoteOnEvent(tick=0, channel=0, data=[81, 57]),
   midi.NoteOnEvent(tick=120, channel=0, data=[81, 0]),
   midi.NoteOnEvent(tick=0, channel=0, data=[77, 67]),
   midi.NoteOnEvent(tick=120, channel=0, data=[77, 0]),
   midi.NoteOnEvent(tick=0, channel=0, data=[84, 55]),
   midi.NoteOnEvent(tick=120, channel=0, data=[84, 0]),
   midi.NoteOnEvent(tick=0, channel=0, data=[81, 61]),
   midi.NoteOnEvent(tick=120, channel=0, data=[81, 0]),
   midi.NoteOnEvent(tick=0, channel=0, data=[77, 54]),
   midi.NoteOnEvent(tick=120, channel=0, data=[77, 0]),
   midi.NoteOnEvent(tick=0, channel=0, data=[72, 63]),
   midi.NoteOnEvent(tick=120, channel=0, data=[72, 0]),
   midi.NoteOnEvent(tick=0, channel=0, data=[77, 55]),
   midi.NoteOnEvent(tick=120, channel=0, data=[77, 0]),
   midi.NoteOnEvent(tick=0, channel=0, data=[72, 65]),
   midi.NoteOnEvent(tick=120, channel=0, data=[72, 0]),
   midi.NoteOnEvent(tick=0, channel=0, data=[69, 59]),
   midi.NoteOnEvent(tick=120, channel=0, data=[69, 0]),
   midi.NoteOnEvent(tick=0, channel=0, data=[65, 85]),
   midi.NoteOnEvent(tick=120, channel=0, data=[65, 0]),
   midi.NoteOnEvent(tick=360, channel=0, data=[72, 62]),
   midi.NoteOnEvent(tick=0, channel=0, data=[69, 62]),
   midi.NoteOnEvent(tick=0, channel=0, data=[77, 73]),
   midi.NoteOnEvent(tick=480, channel=0, data=[77, 0]),
   midi.NoteOnEvent(tick=0, channel=0, data=[69, 0]),
   midi.NoteOnEvent(tick=0, channel=0, data=[72, 0]),
   midi.NoteOnEvent(tick=3600, channel=0, data=[77, 45]),
   midi.NoteOnEvent(tick=60, channel=0, data=[77, 0]),
   midi.NoteOnEvent(tick=180, channel=0, data=[77, 49]),
   midi.NoteOnEvent(tick=60, channel=0, data=[77, 0]),
   midi.NoteOnEvent(tick=180, channel=0, data=[77, 43]),
   midi.NoteOnEvent(tick=60, channel=0, data=[77, 0]),
   midi.NoteOnEvent(tick=180, channel=0, data=[77, 46]),
   midi.NoteOnEvent(tick=60, channel=0, data=[77, 0]),
   midi.NoteOnEvent(tick=180, channel=0, data=[77, 40]),
   midi.NoteOnEvent(tick=60, channel=0, data=[77, 0]),
   midi.NoteOnEvent(tick=180, channel=0, data=[79, 45]),
   midi.NoteOnEvent(tick=240, channel=0, data=[77, 40]),
   midi.NoteOnEvent(tick=12, channel=0, data=[79, 0]),
   midi.NoteOnEvent(tick=228, channel=0, data=[75, 43]),
   midi.NoteOnEvent(tick=12, channel=0, data=[77, 0]),
   midi.NoteOnEvent(tick=228, channel=0, data=[74, 40]),
   midi.NoteOnEvent(tick=12, channel=0, data=[75, 0]),
   midi.NoteOnEvent(tick=228, channel=0, data=[72, 45]),
   midi.NoteOnEvent(tick=12, channel=0, data=[74, 0]),
   midi.NoteOnEvent(tick=228, channel=0, data=[70, 39]),
   midi.NoteOnEvent(tick=12, channel=0, data=[72, 0]),
   midi.NoteOnEvent(tick=168, channel=0, data=[70, 0]),
   midi.NoteOnEvent(tick=60, channel=0, data=[70, 41]),
   midi.NoteOnEvent(tick=60, channel=0, data=[70, 0]),
   midi.NoteOnEvent(tick=0, channel=0, data=[72, 39]),
   midi.NoteOnEvent(tick=60, channel=0, data=[72, 0]),
   midi.NoteOnEvent(tick=0, channel=0, data=[70, 49]),
   midi.NoteOnEvent(tick=120, channel=0, data=[70, 0]),
   midi.NoteOnEvent(tick=0, channel=0, data=[69, 44]),
   midi.NoteOnEvent(tick=240, channel=0, data=[69, 0]),
   midi.NoteOnEvent(tick=0, channel=0, data=[69, 46]),
   midi.NoteOnEvent(tick=480, channel=0, data=[69, 0]),
   midi.NoteOnEvent(tick=2160, channel=0, data=[75, 45]),
   midi.NoteOnEvent(tick=60, channel=0, data=[75, 0]),
   midi.NoteOnEvent(tick=180, channel=0, data=[75, 48]),
   midi.NoteOnEvent(tick=60, channel=0, data=[75, 0]),
   midi.NoteOnEvent(tick=180, channel=0, data=[75, 42]),
   midi.NoteOnEvent(tick=60, channel=0, data=[75, 0]),
   midi.NoteOnEvent(tick=180, channel=0, data=[75, 44]),
   midi.NoteOnEvent(tick=60, channel=0, data=[75, 0]),
   midi.NoteOnEvent(tick=180, channel=0, data=[75, 40]),
   midi.NoteOnEvent(tick=60, channel=0, data=[75, 0]),
   midi.NoteOnEvent(tick=180, channel=0, data=[77, 45]),
   midi.NoteOnEvent(tick=240, channel=0, data=[75, 40]),
   midi.NoteOnEvent(tick=12, channel=0, data=[77, 0]),
   midi.NoteOnEvent(tick=228, channel=0, data=[74, 40]),
   midi.NoteOnEvent(tick=12, channel=0, data=[75, 0]),
   midi.NoteOnEvent(tick=228, channel=0, data=[72, 40]),
   midi.NoteOnEvent(tick=12, channel=0, data=[74, 0]),
   midi.NoteOnEvent(tick=228, channel=0, data=[70, 45]),
   midi.NoteOnEvent(tick=12, channel=0, data=[72, 0]),
   midi.NoteOnEvent(tick=228, channel=0, data=[69, 39]),
   midi.NoteOnEvent(tick=12, channel=0, data=[70, 0]),
   midi.NoteOnEvent(tick=228, channel=0, data=[69, 0]),
   midi.NoteOnEvent(tick=0, channel=0, data=[70, 47]),
   midi.NoteOnEvent(tick=480, channel=0, data=[70, 0]),
   midi.NoteOnEvent(tick=240, channel=0, data=[74, 47]),
   midi.NoteOnEvent(tick=240, channel=0, data=[72, 45]),
   midi.NoteOnEvent(tick=12, channel=0, data=[74, 0]),
   midi.NoteOnEvent(tick=228, channel=0, data=[70, 40]),
   midi.NoteOnEvent(tick=12, channel=0, data=[72, 0]),
   midi.NoteOnEvent(tick=228, channel=0, data=[69, 47]),
   midi.NoteOnEvent(tick=12, channel=0, data=[70, 0]),
   midi.NoteOnEvent(tick=468, channel=0, data=[69, 0]),
   midi.NoteOnEvent(tick=240, channel=0, data=[79, 52]),
   midi.NoteOnEvent(tick=240, channel=0, data=[77, 47]),
   midi.NoteOnEvent(tick=12, channel=0, data=[79, 0]),
   midi.NoteOnEvent(tick=228, channel=0, data=[69, 42]),
   midi.NoteOnEvent(tick=12, channel=0, data=[77, 0]),
   midi.NoteOnEvent(tick=228, channel=0, data=[70, 47]),
   midi.NoteOnEvent(tick=12, channel=0, data=[69, 0]),
   midi.NoteOnEvent(tick=468, channel=0, data=[70, 0]),
   midi.NoteOnEvent(tick=240, channel=0, data=[74, 47]),
   midi.NoteOnEvent(tick=240, channel=0, data=[72, 45]),
   midi.NoteOnEvent(tick=12, channel=0, data=[74, 0]),
   midi.NoteOnEvent(tick=228, channel=0, data=[70, 40]),
   midi.NoteOnEvent(tick=12, channel=0, data=[72, 0]),
   midi.NoteOnEvent(tick=228, channel=0, data=[69, 47]),
   midi.NoteOnEvent(tick=12, channel=0, data=[70, 0]),
   midi.NoteOnEvent(tick=468, channel=0, data=[69, 0]),
   midi.NoteOnEvent(tick=240, channel=0, data=[78, 52]),
   midi.NoteOnEvent(tick=240, channel=0, data=[77, 47]),
   midi.NoteOnEvent(tick=12, channel=0, data=[78, 0]),
   midi.NoteOnEvent(tick=228, channel=0, data=[69, 42]),
   midi.NoteOnEvent(tick=12, channel=0, data=[77, 0]),
   midi.NoteOnEvent(tick=228, channel=0, data=[70, 47]),
   midi.NoteOnEvent(tick=12, channel=0, data=[69, 0]),
   midi.NoteOnEvent(tick=468, channel=0, data=[70, 0]),
   midi.NoteOnEvent(tick=240, channel=0, data=[77, 55]),
   midi.NoteOnEvent(tick=240, channel=0, data=[73, 53]),
   midi.NoteOnEvent(tick=12, channel=0, data=[77, 0]),
   midi.NoteOnEvent(tick=228, channel=0, data=[72, 50]),
   midi.NoteOnEvent(tick=12, channel=0, data=[73, 0]),
   midi.NoteOnEvent(tick=228, channel=0, data=[71, 56]),
   midi.NoteOnEvent(tick=12, channel=0, data=[72, 0]),
   midi.NoteOnEvent(tick=468, channel=0, data=[71, 0]),
   midi.NoteOnEvent(tick=240, channel=0, data=[80, 58]),
   midi.NoteOnEvent(tick=240, channel=0, data=[79, 52]),
   midi.NoteOnEvent(tick=12, channel=0, data=[80, 0]),
   midi.NoteOnEvent(tick=228, channel=0, data=[71, 48]),
   midi.NoteOnEvent(tick=12, channel=0, data=[79, 0]),
   midi.NoteOnEvent(tick=228, channel=0, data=[71, 0]),
   midi.NoteOnEvent(tick=0, channel=0, data=[74, 56]),
   midi.NoteOnEvent(tick=240, channel=0, data=[72, 51]),
   midi.NoteOnEvent(tick=12, channel=0, data=[74, 0]),
   midi.NoteOnEvent(tick=228, channel=0, data=[77, 55]),
   midi.NoteOnEvent(tick=12, channel=0, data=[72, 0]),
   midi.NoteOnEvent(tick=228, channel=0, data=[76, 51]),
   midi.NoteOnEvent(tick=12, channel=0, data=[77, 0]),
   midi.NoteOnEvent(tick=228, channel=0, data=[75, 50]),
   midi.NoteOnEvent(tick=12, channel=0, data=[76, 0]),
   midi.NoteOnEvent(tick=228, channel=0, data=[74, 49]),
   midi.NoteOnEvent(tick=12, channel=0, data=[75, 0]),
   midi.NoteOnEvent(tick=228, channel=0, data=[74, 0]),
   midi.NoteOnEvent(tick=0, channel=0, data=[72, 54]),
   midi.NoteOnEvent(tick=360, channel=0, data=[72, 0]),
   midi.NoteOnEvent(tick=0, channel=0, data=[74, 48]),
   midi.NoteOnEvent(tick=120, channel=0, data=[74, 0]),
   midi.NoteOnEvent(tick=0, channel=0, data=[70, 54]),
   midi.NoteOnEvent(tick=480, channel=0, data=[70, 0]),
   midi.NoteOnEvent(tick=0, channel=0, data=[69, 50]),
   midi.NoteOnEvent(tick=80, channel=0, data=[69, 0]),
   midi.NoteOnEvent(tick=0, channel=0, data=[70, 44]),
   midi.NoteOnEvent(tick=80, channel=0, data=[70, 0]),
   midi.NoteOnEvent(tick=0, channel=0, data=[69, 50]),
   midi.NoteOnEvent(tick=80, channel=0, data=[69, 0]),
   midi.NoteOnEvent(tick=0, channel=0, data=[70, 44]),
   midi.NoteOnEvent(tick=60, channel=0, data=[70, 0]),
   midi.NoteOnEvent(tick=0, channel=0, data=[69, 50]),
   midi.NoteOnEvent(tick=60, channel=0, data=[69, 0]),
   midi.NoteOnEvent(tick=0, channel=0, data=[67, 42]),
   midi.NoteOnEvent(tick=60, channel=0, data=[67, 0]),
   midi.NoteOnEvent(tick=0, channel=0, data=[69, 45]),
   midi.NoteOnEvent(tick=60, channel=0, data=[69, 0]),
   midi.NoteOnEvent(tick=0, channel=0, data=[70, 49]),
   midi.NoteOnEvent(tick=120, channel=0, data=[70, 0]),
   midi.NoteOnEvent(tick=0, channel=0, data=[65, 46]),
   midi.NoteOnEvent(tick=120, channel=0, data=[65, 0]),
   midi.NoteOnEvent(tick=0, channel=0, data=[64, 49]),
   midi.NoteOnEvent(tick=120, channel=0, data=[64, 0]),
   midi.NoteOnEvent(tick=0, channel=0, data=[65, 44]),
   midi.NoteOnEvent(tick=120, channel=0, data=[65, 0]),
   midi.NoteOnEvent(tick=0, channel=0, data=[67, 49]),
   midi.NoteOnEvent(tick=120, channel=0, data=[67, 0]),
   midi.NoteOnEvent(tick=0, channel=0, data=[65, 44]),
   midi.NoteOnEvent(tick=120, channel=0, data=[65, 0]),
   midi.NoteOnEvent(tick=0, channel=0, data=[64, 49]),
   midi.NoteOnEvent(tick=120, channel=0, data=[64, 0]),
   midi.NoteOnEvent(tick=0, channel=0, data=[65, 44]),
   midi.NoteOnEvent(tick=120, channel=0, data=[65, 0]),
   midi.NoteOnEvent(tick=0, channel=0, data=[63, 49]),
   midi.NoteOnEvent(tick=120, channel=0, data=[63, 0]),
   midi.NoteOnEvent(tick=0, channel=0, data=[65, 49]),
   midi.NoteOnEvent(tick=120, channel=0, data=[65, 0]),
   midi.NoteOnEvent(tick=0, channel=0, data=[62, 54]),
   midi.NoteOnEvent(tick=120, channel=0, data=[62, 0]),
   midi.NoteOnEvent(tick=0, channel=0, data=[65, 49]),
   midi.NoteOnEvent(tick=120, channel=0, data=[65, 0]),
   midi.NoteOnEvent(tick=0, channel=0, data=[60, 49]),
   midi.NoteOnEvent(tick=120, channel=0, data=[60, 0]),
   midi.NoteOnEvent(tick=0, channel=0, data=[65, 46]),
   midi.NoteOnEvent(tick=120, channel=0, data=[65, 0]),
   midi.NoteOnEvent(tick=0, channel=0, data=[64, 49]),
   midi.NoteOnEvent(tick=120, channel=0, data=[64, 0]),
   midi.NoteOnEvent(tick=0, channel=0, data=[65, 44]),
   midi.NoteOnEvent(tick=120, channel=0, data=[65, 0]),
   midi.NoteOnEvent(tick=0, channel=0, data=[67, 49]),
   midi.NoteOnEvent(tick=120, channel=0, data=[67, 0]),
   midi.NoteOnEvent(tick=0, channel=0, data=[65, 44]),
   midi.NoteOnEvent(tick=120, channel=0, data=[65, 0]),
   midi.NoteOnEvent(tick=0, channel=0, data=[64, 49]),
   midi.NoteOnEvent(tick=120, channel=0, data=[64, 0]),
   midi.NoteOnEvent(tick=0, channel=0, data=[65, 44]),
   midi.NoteOnEvent(tick=120, channel=0, data=[65, 0]),
   midi.NoteOnEvent(tick=0, channel=0, data=[75, 49]),
   midi.NoteOnEvent(tick=120, channel=0, data=[75, 0]),
   midi.NoteOnEvent(tick=0, channel=0, data=[65, 49]),
   midi.NoteOnEvent(tick=120, channel=0, data=[65, 0]),
   midi.NoteOnEvent(tick=0, channel=0, data=[75, 54]),
   midi.NoteOnEvent(tick=120, channel=0, data=[75, 0]),
   midi.NoteOnEvent(tick=0, channel=0, data=[65, 49]),
   midi.NoteOnEvent(tick=120, channel=0, data=[65, 0]),
   midi.NoteOnEvent(tick=0, channel=0, data=[74, 49]),
   midi.NoteOnEvent(tick=120, channel=0, data=[74, 0]),
   midi.NoteOnEvent(tick=0, channel=0, data=[77, 46]),
   midi.NoteOnEvent(tick=120, channel=0, data=[77, 0]),
   midi.NoteOnEvent(tick=0, channel=0, data=[76, 49]),
   midi.NoteOnEvent(tick=120, channel=0, data=[76, 0]),
   midi.NoteOnEvent(tick=0, channel=0, data=[77, 44]),
   midi.NoteOnEvent(tick=120, channel=0, data=[77, 0]),
   midi.NoteOnEvent(tick=0, channel=0, data=[79, 49]),
   midi.NoteOnEvent(tick=120, channel=0, data=[79, 0]),
   midi.NoteOnEvent(tick=0, channel=0, data=[77, 44]),
   midi.NoteOnEvent(tick=120, channel=0, data=[77, 0]),
   midi.NoteOnEvent(tick=0, channel=0, data=[76, 49]),
   midi.NoteOnEvent(tick=120, channel=0, data=[76, 0]),
   midi.NoteOnEvent(tick=0, channel=0, data=[77, 44]),
   midi.NoteOnEvent(tick=120, channel=0, data=[77, 0]),
   midi.NoteOnEvent(tick=0, channel=0, data=[75, 49]),
   midi.NoteOnEvent(tick=120, channel=0, data=[75, 0]),
   midi.NoteOnEvent(tick=0, channel=0, data=[77, 49]),
   midi.NoteOnEvent(tick=120, channel=0, data=[77, 0]),
   midi.NoteOnEvent(tick=0, channel=0, data=[74, 54]),
   midi.NoteOnEvent(tick=120, channel=0, data=[74, 0]),
   midi.NoteOnEvent(tick=0, channel=0, data=[77, 49]),
   midi.NoteOnEvent(tick=120, channel=0, data=[77, 0]),
   midi.NoteOnEvent(tick=0, channel=0, data=[72, 49]),
   midi.NoteOnEvent(tick=120, channel=0, data=[72, 0]),
   midi.NoteOnEvent(tick=0, channel=0, data=[77, 46]),
   midi.NoteOnEvent(tick=120, channel=0, data=[77, 0]),
   midi.NoteOnEvent(tick=0, channel=0, data=[76, 49]),
   midi.NoteOnEvent(tick=120, channel=0, data=[76, 0]),
   midi.NoteOnEvent(tick=0, channel=0, data=[77, 44]),
   midi.NoteOnEvent(tick=120, channel=0, data=[77, 0]),
   midi.NoteOnEvent(tick=0, channel=0, data=[79, 49]),
   midi.NoteOnEvent(tick=120, channel=0, data=[79, 0]),
   midi.NoteOnEvent(tick=0, channel=0, data=[77, 44]),
   midi.NoteOnEvent(tick=120, channel=0, data=[77, 0]),
   midi.NoteOnEvent(tick=0, channel=0, data=[76, 49]),
   midi.NoteOnEvent(tick=120, channel=0, data=[76, 0]),
   midi.NoteOnEvent(tick=0, channel=0, data=[77, 44]),
   midi.NoteOnEvent(tick=120, channel=0, data=[77, 0]),
   midi.NoteOnEvent(tick=0, channel=0, data=[87, 49]),
   midi.NoteOnEvent(tick=120, channel=0, data=[87, 0]),
   midi.NoteOnEvent(tick=0, channel=0, data=[77, 49]),
   midi.NoteOnEvent(tick=120, channel=0, data=[77, 0]),
   midi.NoteOnEvent(tick=0, channel=0, data=[87, 54]),
   midi.NoteOnEvent(tick=120, channel=0, data=[87, 0]),
   midi.NoteOnEvent(tick=0, channel=0, data=[77, 49]),
   midi.NoteOnEvent(tick=120, channel=0, data=[77, 0]),
   midi.NoteOnEvent(tick=0, channel=0, data=[86, 49]),
   midi.NoteOnEvent(tick=120, channel=0, data=[86, 0]),
   midi.NoteOnEvent(tick=0, channel=0, data=[77, 46]),
   midi.NoteOnEvent(tick=120, channel=0, data=[77, 0]),
   midi.NoteOnEvent(tick=0, channel=0, data=[76, 49]),
   midi.NoteOnEvent(tick=120, channel=0, data=[76, 0]),
   midi.NoteOnEvent(tick=0, channel=0, data=[77, 44]),
   midi.NoteOnEvent(tick=120, channel=0, data=[77, 0]),
   midi.NoteOnEvent(tick=0, channel=0, data=[79, 49]),
   midi.NoteOnEvent(tick=120, channel=0, data=[79, 0]),
   midi.NoteOnEvent(tick=0, channel=0, data=[77, 44]),
   midi.NoteOnEvent(tick=120, channel=0, data=[77, 0]),
   midi.NoteOnEvent(tick=0, channel=0, data=[76, 49]),
   midi.NoteOnEvent(tick=120, channel=0, data=[76, 0]),
   midi.NoteOnEvent(tick=0, channel=0, data=[77, 44]),
   midi.NoteOnEvent(tick=120, channel=0, data=[77, 0]),
   midi.NoteOnEvent(tick=0, channel=0, data=[80, 49]),
   midi.NoteOnEvent(tick=120, channel=0, data=[80, 0]),
   midi.NoteOnEvent(tick=0, channel=0, data=[77, 49]),
   midi.NoteOnEvent(tick=120, channel=0, data=[77, 0]),
   midi.NoteOnEvent(tick=0, channel=0, data=[75, 54]),
   midi.NoteOnEvent(tick=120, channel=0, data=[75, 0]),
   midi.NoteOnEvent(tick=0, channel=0, data=[77, 49]),
   midi.NoteOnEvent(tick=120, channel=0, data=[77, 0]),
   midi.NoteOnEvent(tick=0, channel=0, data=[74, 49]),
   midi.NoteOnEvent(tick=120, channel=0, data=[74, 0]),
   midi.NoteOnEvent(tick=0, channel=0, data=[79, 46]),
   midi.NoteOnEvent(tick=120, channel=0, data=[79, 0]),
   midi.NoteOnEvent(tick=0, channel=0, data=[78, 49]),
   midi.NoteOnEvent(tick=120, channel=0, data=[78, 0]),
   midi.NoteOnEvent(tick=0, channel=0, data=[79, 44]),
   midi.NoteOnEvent(tick=120, channel=0, data=[79, 0]),
   midi.NoteOnEvent(tick=0, channel=0, data=[81, 49]),
   midi.NoteOnEvent(tick=120, channel=0, data=[81, 0]),
   midi.NoteOnEvent(tick=0, channel=0, data=[79, 44]),
   midi.NoteOnEvent(tick=120, channel=0, data=[79, 0]),
   midi.NoteOnEvent(tick=0, channel=0, data=[78, 52]),
   midi.NoteOnEvent(tick=120, channel=0, data=[78, 0]),
   midi.NoteOnEvent(tick=0, channel=0, data=[79, 44]),
   midi.NoteOnEvent(tick=120, channel=0, data=[79, 0]),
   midi.NoteOnEvent(tick=0, channel=0, data=[89, 55]),
   midi.NoteOnEvent(tick=120, channel=0, data=[89, 0]),
   midi.NoteOnEvent(tick=0, channel=0, data=[79, 49]),
   midi.NoteOnEvent(tick=120, channel=0, data=[79, 0]),
   midi.NoteOnEvent(tick=0, channel=0, data=[89, 57]),
   midi.NoteOnEvent(tick=120, channel=0, data=[89, 0]),
   midi.NoteOnEvent(tick=0, channel=0, data=[79, 49]),
   midi.NoteOnEvent(tick=120, channel=0, data=[79, 0]),
   midi.NoteOnEvent(tick=0, channel=0, data=[88, 62]),
   midi.NoteOnEvent(tick=480, channel=0, data=[88, 0]),
   midi.NoteOnEvent(tick=0, channel=0, data=[87, 60]),
   midi.NoteOnEvent(tick=480, channel=0, data=[87, 0]),
   midi.NoteOnEvent(tick=0, channel=0, data=[86, 57]),
   midi.NoteOnEvent(tick=480, channel=0, data=[86, 0]),
   midi.NoteOnEvent(tick=0, channel=0, data=[86, 60]),
   midi.NoteOnEvent(tick=120, channel=0, data=[84, 52]),
   midi.NoteOnEvent(tick=12, channel=0, data=[86, 0]),
   midi.NoteOnEvent(tick=108, channel=0, data=[87, 52]),
   midi.NoteOnEvent(tick=12, channel=0, data=[84, 0]),
   midi.NoteOnEvent(tick=108, channel=0, data=[84, 52]),
   midi.NoteOnEvent(tick=12, channel=0, data=[87, 0]),
   midi.NoteOnEvent(tick=78, channel=0, data=[84, 0]),
   midi.NoteOnEvent(tick=30, channel=0, data=[84, 62]),
   midi.NoteOnEvent(tick=120, channel=0, data=[82, 52]),
   midi.NoteOnEvent(tick=12, channel=0, data=[84, 0]),
   midi.NoteOnEvent(tick=108, channel=0, data=[86, 52]),
   midi.NoteOnEvent(tick=12, channel=0, data=[82, 0]),
   midi.NoteOnEvent(tick=108, channel=0, data=[82, 52]),
   midi.NoteOnEvent(tick=12, channel=0, data=[86, 0]),
   midi.NoteOnEvent(tick=78, channel=0, data=[82, 0]),
   midi.NoteOnEvent(tick=30, channel=0, data=[82, 62]),
   midi.NoteOnEvent(tick=120, channel=0, data=[81, 52]),
   midi.NoteOnEvent(tick=12, channel=0, data=[82, 0]),
   midi.NoteOnEvent(tick=108, channel=0, data=[84, 52]),
   midi.NoteOnEvent(tick=12, channel=0, data=[81, 0]),
   midi.NoteOnEvent(tick=108, channel=0, data=[81, 52]),
   midi.NoteOnEvent(tick=12, channel=0, data=[84, 0]),
   midi.NoteOnEvent(tick=108, channel=0, data=[81, 0]),
   midi.NoteOnEvent(tick=0, channel=0, data=[82, 54]),
   midi.NoteOnEvent(tick=120, channel=0, data=[82, 0]),
   midi.NoteOnEvent(tick=0, channel=0, data=[86, 57]),
   midi.NoteOnEvent(tick=120, channel=0, data=[86, 0]),
   midi.NoteOnEvent(tick=0, channel=0, data=[89, 58]),
   midi.NoteOnEvent(tick=120, channel=0, data=[89, 0]),
   midi.NoteOnEvent(tick=0, channel=0, data=[87, 60]),
   midi.NoteOnEvent(tick=120, channel=0, data=[87, 0]),
   midi.NoteOnEvent(tick=0, channel=0, data=[86, 58]),
   midi.NoteOnEvent(tick=120, channel=0, data=[86, 0]),
   midi.NoteOnEvent(tick=0, channel=0, data=[84, 56]),
   midi.NoteOnEvent(tick=120, channel=0, data=[84, 0]),
   midi.NoteOnEvent(tick=0, channel=0, data=[82, 54]),
   midi.NoteOnEvent(tick=120, channel=0, data=[82, 0]),
   midi.NoteOnEvent(tick=0, channel=0, data=[81, 52]),
   midi.NoteOnEvent(tick=120, channel=0, data=[81, 0]),
   midi.NoteOnEvent(tick=0, channel=0, data=[79, 55]),
   midi.NoteOnEvent(tick=120, channel=0, data=[79, 0]),
   midi.NoteOnEvent(tick=0, channel=0, data=[77, 51]),
   midi.NoteOnEvent(tick=120, channel=0, data=[77, 0]),
   midi.NoteOnEvent(tick=0, channel=0, data=[75, 50]),
   midi.NoteOnEvent(tick=120, channel=0, data=[75, 0]),
   midi.NoteOnEvent(tick=0, channel=0, data=[74, 50]),
   midi.NoteOnEvent(tick=120, channel=0, data=[74, 0]),
   midi.NoteOnEvent(tick=0, channel=0, data=[72, 50]),
   midi.NoteOnEvent(tick=120, channel=0, data=[72, 0]),
   midi.NoteOnEvent(tick=0, channel=0, data=[75, 53]),
   midi.NoteOnEvent(tick=120, channel=0, data=[75, 0]),
   midi.NoteOnEvent(tick=0, channel=0, data=[79, 56]),
   midi.NoteOnEvent(tick=120, channel=0, data=[79, 0]),
   midi.NoteOnEvent(tick=0, channel=0, data=[77, 55]),
   midi.NoteOnEvent(tick=120, channel=0, data=[77, 0]),
   midi.NoteOnEvent(tick=0, channel=0, data=[75, 54]),
   midi.NoteOnEvent(tick=120, channel=0, data=[75, 0]),
   midi.NoteOnEvent(tick=0, channel=0, data=[74, 53]),
   midi.NoteOnEvent(tick=120, channel=0, data=[74, 0]),
   midi.NoteOnEvent(tick=0, channel=0, data=[72, 52]),
   midi.NoteOnEvent(tick=120, channel=0, data=[72, 0]),
   midi.NoteOnEvent(tick=0, channel=0, data=[70, 50]),
   midi.NoteOnEvent(tick=120, channel=0, data=[70, 0]),
   midi.NoteOnEvent(tick=0, channel=0, data=[69, 49]),
   midi.NoteOnEvent(tick=120, channel=0, data=[69, 0]),
   midi.NoteOnEvent(tick=0, channel=0, data=[67, 50]),
   midi.NoteOnEvent(tick=120, channel=0, data=[67, 0]),
   midi.NoteOnEvent(tick=0, channel=0, data=[65, 53]),
   midi.NoteOnEvent(tick=120, channel=0, data=[65, 0]),
   midi.NoteOnEvent(tick=0, channel=0, data=[64, 56]),
   midi.NoteOnEvent(tick=120, channel=0, data=[64, 0]),
   midi.NoteOnEvent(tick=0, channel=0, data=[65, 59]),
   midi.NoteOnEvent(tick=120, channel=0, data=[65, 0]),
   midi.NoteOnEvent(tick=120, channel=0, data=[70, 59]),
   midi.NoteOnEvent(tick=120, channel=0, data=[70, 0]),
   midi.NoteOnEvent(tick=120, channel=0, data=[74, 61]),
   midi.NoteOnEvent(tick=120, channel=0, data=[74, 0]),
   midi.NoteOnEvent(tick=120, channel=0, data=[77, 62]),
   midi.NoteOnEvent(tick=120, channel=0, data=[77, 0]),
   midi.NoteOnEvent(tick=120, channel=0, data=[82, 64]),
   midi.NoteOnEvent(tick=120, channel=0, data=[82, 0]),
   midi.NoteOnEvent(tick=120, channel=0, data=[86, 65]),
   midi.NoteOnEvent(tick=120, channel=0, data=[86, 0]),
   midi.NoteOnEvent(tick=120, channel=0, data=[72, 37]),
   midi.NoteOnEvent(tick=60, channel=0, data=[72, 0]),
   midi.NoteOnEvent(tick=0, channel=0, data=[74, 31]),
   midi.NoteOnEvent(tick=60, channel=0, data=[74, 0]),
   midi.NoteOnEvent(tick=0, channel=0, data=[72, 37]),
   midi.NoteOnEvent(tick=60, channel=0, data=[72, 0]),
   midi.NoteOnEvent(tick=0, channel=0, data=[74, 31]),
   midi.NoteOnEvent(tick=60, channel=0, data=[74, 0]),
   midi.NoteOnEvent(tick=0, channel=0, data=[72, 37]),
   midi.NoteOnEvent(tick=60, channel=0, data=[72, 0]),
   midi.NoteOnEvent(tick=0, channel=0, data=[74, 32]),
   midi.NoteOnEvent(tick=60, channel=0, data=[74, 0]),
   midi.NoteOnEvent(tick=0, channel=0, data=[72, 37]),
   midi.NoteOnEvent(tick=60, channel=0, data=[72, 0]),
   midi.NoteOnEvent(tick=0, channel=0, data=[74, 33]),
   midi.NoteOnEvent(tick=60, channel=0, data=[74, 0]),
   midi.NoteOnEvent(tick=0, channel=0, data=[72, 37]),
   midi.NoteOnEvent(tick=60, channel=0, data=[72, 0]),
   midi.NoteOnEvent(tick=0, channel=0, data=[74, 32]),
   midi.NoteOnEvent(tick=60, channel=0, data=[74, 0]),
   midi.NoteOnEvent(tick=0, channel=0, data=[72, 37]),
   midi.NoteOnEvent(tick=60, channel=0, data=[72, 0]),
   midi.NoteOnEvent(tick=0, channel=0, data=[74, 32]),
   midi.NoteOnEvent(tick=60, channel=0, data=[74, 0]),
   midi.NoteOnEvent(tick=0, channel=0, data=[72, 37]),
   midi.NoteOnEvent(tick=60, channel=0, data=[72, 0]),
   midi.NoteOnEvent(tick=0, channel=0, data=[74, 31]),
   midi.NoteOnEvent(tick=60, channel=0, data=[74, 0]),
   midi.NoteOnEvent(tick=0, channel=0, data=[72, 37]),
   midi.NoteOnEvent(tick=60, channel=0, data=[72, 0]),
   midi.NoteOnEvent(tick=0, channel=0, data=[74, 33]),
   midi.NoteOnEvent(tick=60, channel=0, data=[74, 0]),
   midi.NoteOnEvent(tick=0, channel=0, data=[72, 37]),
   midi.NoteOnEvent(tick=60, channel=0, data=[72, 0]),
   midi.NoteOnEvent(tick=0, channel=0, data=[74, 32]),
   midi.NoteOnEvent(tick=60, channel=0, data=[74, 0]),
   midi.NoteOnEvent(tick=0, channel=0, data=[72, 37]),
   midi.NoteOnEvent(tick=80, channel=0, data=[72, 0]),
   midi.NoteOnEvent(tick=0, channel=0, data=[74, 32]),
   midi.NoteOnEvent(tick=80, channel=0, data=[74, 0]),
   midi.NoteOnEvent(tick=0, channel=0, data=[72, 37]),
   midi.NoteOnEvent(tick=80, channel=0, data=[72, 0]),
   midi.NoteOnEvent(tick=0, channel=0, data=[70, 33]),
   midi.NoteOnEvent(tick=60, channel=0, data=[70, 0]),
   midi.NoteOnEvent(tick=0, channel=0, data=[72, 33]),
   midi.NoteOnEvent(tick=60, channel=0, data=[72, 0]),
   midi.NoteOnEvent(tick=0, channel=0, data=[70, 49]),
   midi.NoteOnEvent(tick=480, channel=0, data=[70, 0]),
   midi.NoteOnEvent(tick=960, channel=0, data=[75, 46]),
   midi.NoteOnEvent(tick=480, channel=0, data=[75, 0]),
   midi.NoteOnEvent(tick=0, channel=0, data=[77, 50]),
   midi.NoteOnEvent(tick=480, channel=0, data=[77, 0]),
   midi.NoteOnEvent(tick=0, channel=0, data=[79, 51]),
   midi.NoteOnEvent(tick=480, channel=0, data=[79, 0]),
   midi.NoteOnEvent(tick=0, channel=0, data=[77, 51]),
   midi.NoteOnEvent(tick=720, channel=0, data=[77, 0]),
   midi.NoteOnEvent(tick=0, channel=0, data=[79, 48]),
   midi.NoteOnEvent(tick=120, channel=0, data=[77, 43]),
   midi.NoteOnEvent(tick=12, channel=0, data=[79, 0]),
   midi.NoteOnEvent(tick=108, channel=0, data=[75, 50]),
   midi.NoteOnEvent(tick=12, channel=0, data=[77, 0]),
   midi.NoteOnEvent(tick=108, channel=0, data=[74, 48]),
   midi.NoteOnEvent(tick=12, channel=0, data=[75, 0]),
   midi.NoteOnEvent(tick=108, channel=0, data=[72, 47]),
   midi.NoteOnEvent(tick=12, channel=0, data=[74, 0]),
   midi.NoteOnEvent(tick=108, channel=0, data=[70, 45]),
   midi.NoteOnEvent(tick=12, channel=0, data=[72, 0]),
   midi.NoteOnEvent(tick=108, channel=0, data=[70, 0]),
   midi.NoteOnEvent(tick=0, channel=0, data=[74, 48]),
   midi.NoteOnEvent(tick=720, channel=0, data=[74, 0]),
   midi.NoteOnEvent(tick=0, channel=0, data=[75, 40]),
   midi.NoteOnEvent(tick=240, channel=0, data=[75, 0]),
   midi.NoteOnEvent(tick=0, channel=0, data=[72, 44]),
   midi.NoteOnEvent(tick=480, channel=0, data=[72, 0]),
   midi.NoteOnEvent(tick=0, channel=0, data=[70, 46]),
   midi.NoteOnEvent(tick=480, channel=0, data=[70, 0]),
   midi.NoteOnEvent(tick=960, channel=0, data=[63, 52]),
   midi.NoteOnEvent(tick=240, channel=0, data=[63, 0]),
   midi.NoteOnEvent(tick=0, channel=0, data=[75, 47]),
   midi.NoteOnEvent(tick=240, channel=0, data=[75, 0]),
   midi.NoteOnEvent(tick=0, channel=0, data=[65, 54]),
   midi.NoteOnEvent(tick=240, channel=0, data=[65, 0]),
   midi.NoteOnEvent(tick=0, channel=0, data=[77, 47]),
   midi.NoteOnEvent(tick=240, channel=0, data=[77, 0]),
   midi.NoteOnEvent(tick=0, channel=0, data=[67, 58]),
   midi.NoteOnEvent(tick=240, channel=0, data=[67, 0]),
   midi.NoteOnEvent(tick=0, channel=0, data=[79, 52]),
   midi.NoteOnEvent(tick=240, channel=0, data=[79, 0]),
   midi.NoteOnEvent(tick=0, channel=0, data=[77, 61]),
   midi.NoteOnEvent(tick=240, channel=0, data=[77, 0]),
   midi.NoteOnEvent(tick=0, channel=0, data=[79, 54]),
   midi.NoteOnEvent(tick=120, channel=0, data=[79, 0]),
   midi.NoteOnEvent(tick=0, channel=0, data=[81, 58]),
   midi.NoteOnEvent(tick=120, channel=0, data=[81, 0]),
   midi.NoteOnEvent(tick=0, channel=0, data=[82, 61]),
   midi.NoteOnEvent(tick=120, channel=0, data=[82, 0]),
   midi.NoteOnEvent(tick=0, channel=0, data=[81, 61]),
   midi.NoteOnEvent(tick=120, channel=0, data=[81, 0]),
   midi.NoteOnEvent(tick=0, channel=0, data=[79, 60]),
   midi.NoteOnEvent(tick=120, channel=0, data=[79, 0]),
   midi.NoteOnEvent(tick=0, channel=0, data=[77, 58]),
   midi.NoteOnEvent(tick=120, channel=0, data=[77, 0]),
   midi.NoteOnEvent(tick=0, channel=0, data=[75, 57]),
   midi.NoteOnEvent(tick=120, channel=0, data=[75, 0]),
   midi.NoteOnEvent(tick=0, channel=0, data=[74, 55]),
   midi.NoteOnEvent(tick=120, channel=0, data=[74, 0]),
   midi.NoteOnEvent(tick=0, channel=0, data=[72, 54]),
   midi.NoteOnEvent(tick=120, channel=0, data=[72, 0]),
   midi.NoteOnEvent(tick=0, channel=0, data=[70, 52]),
   midi.NoteOnEvent(tick=120, channel=0, data=[70, 0]),
   midi.NoteOnEvent(tick=0, channel=0, data=[74, 62]),
   midi.NoteOnEvent(tick=720, channel=0, data=[74, 0]),
   midi.NoteOnEvent(tick=0, channel=0, data=[75, 56]),
   midi.NoteOnEvent(tick=240, channel=0, data=[75, 0]),
   midi.NoteOnEvent(tick=0, channel=0, data=[72, 62]),
   midi.NoteOnEvent(tick=480, channel=0, data=[72, 0]),
   midi.NoteOnEvent(tick=0, channel=0, data=[70, 67]),
   midi.NoteOnEvent(tick=480, channel=0, data=[70, 0]),
   midi.NoteOnEvent(tick=120, channel=0, data=[77, 60]),
   midi.NoteOnEvent(tick=120, channel=0, data=[77, 0]),
   midi.NoteOnEvent(tick=0, channel=0, data=[79, 65]),
   midi.NoteOnEvent(tick=120, channel=0, data=[79, 0]),
   midi.NoteOnEvent(tick=0, channel=0, data=[77, 60]),
   midi.NoteOnEvent(tick=120, channel=0, data=[77, 0]),
   midi.NoteOnEvent(tick=0, channel=0, data=[75, 64]),
   midi.NoteOnEvent(tick=120, channel=0, data=[75, 0]),
   midi.NoteOnEvent(tick=0, channel=0, data=[74, 62]),
   midi.NoteOnEvent(tick=120, channel=0, data=[74, 0]),
   midi.NoteOnEvent(tick=0, channel=0, data=[75, 60]),
   midi.NoteOnEvent(tick=120, channel=0, data=[75, 0]),
   midi.NoteOnEvent(tick=0, channel=0, data=[72, 58]),
   midi.NoteOnEvent(tick=120, channel=0, data=[72, 0]),
   midi.NoteOnEvent(tick=0, channel=0, data=[70, 68]),
   midi.NoteOnEvent(tick=480, channel=0, data=[70, 0]),
   midi.NoteOnEvent(tick=120, channel=0, data=[65, 60]),
   midi.NoteOnEvent(tick=120, channel=0, data=[65, 0]),
   midi.NoteOnEvent(tick=0, channel=0, data=[67, 65]),
   midi.NoteOnEvent(tick=120, channel=0, data=[67, 0]),
   midi.NoteOnEvent(tick=0, channel=0, data=[65, 60]),
   midi.NoteOnEvent(tick=120, channel=0, data=[65, 0]),
   midi.NoteOnEvent(tick=0, channel=0, data=[63, 64]),
   midi.NoteOnEvent(tick=120, channel=0, data=[63, 0]),
   midi.NoteOnEvent(tick=0, channel=0, data=[62, 62]),
   midi.NoteOnEvent(tick=120, channel=0, data=[62, 0]),
   midi.NoteOnEvent(tick=0, channel=0, data=[63, 60]),
   midi.NoteOnEvent(tick=120, channel=0, data=[63, 0]),
   midi.NoteOnEvent(tick=0, channel=0, data=[60, 58]),
   midi.NoteOnEvent(tick=120, channel=0, data=[60, 0]),
   midi.NoteOnEvent(tick=0, channel=0, data=[58, 71]),
   midi.NoteOnEvent(tick=168, channel=0, data=[58, 0]),
   midi.NoteOnEvent(tick=312, channel=0, data=[74, 59]),
   midi.NoteOnEvent(tick=0, channel=0, data=[77, 59]),
   midi.NoteOnEvent(tick=0, channel=0, data=[82, 77]),
   midi.NoteOnEvent(tick=480, channel=0, data=[82, 0]),
   midi.NoteOnEvent(tick=0, channel=0, data=[77, 0]),
   midi.NoteOnEvent(tick=0, channel=0, data=[74, 0]),
   midi.EndOfTrackEvent(tick=0, data=[])]),
 midi.Track(\
[    midi.NoteOnEvent(tick=0, channel=0, data=[58, 40]),
   midi.NoteOnEvent(tick=960, channel=0, data=[58, 0]),
   midi.NoteOnEvent(tick=0, channel=0, data=[53, 36]),
   midi.NoteOnEvent(tick=480, channel=0, data=[53, 0]),
   midi.NoteOnEvent(tick=0, channel=0, data=[50, 40]),
   midi.NoteOnEvent(tick=960, channel=0, data=[50, 0]),
   midi.NoteOnEvent(tick=0, channel=0, data=[53, 38]),
   midi.NoteOnEvent(tick=480, channel=0, data=[53, 0]),
   midi.NoteOnEvent(tick=0, channel=0, data=[58, 41]),
   midi.NoteOnEvent(tick=960, channel=0, data=[58, 0]),
   midi.NoteOnEvent(tick=0, channel=0, data=[62, 43]),
   midi.NoteOnEvent(tick=480, channel=0, data=[62, 0]),
   midi.NoteOnEvent(tick=0, channel=0, data=[65, 45]),
   midi.NoteOnEvent(tick=960, channel=0, data=[65, 0]),
   midi.NoteOnEvent(tick=480, channel=0, data=[63, 36]),
   midi.NoteOnEvent(tick=0, channel=0, data=[53, 30]),
   midi.NoteOnEvent(tick=0, channel=0, data=[60, 30]),
   midi.NoteOnEvent(tick=2880, channel=0, data=[60, 0]),
   midi.NoteOnEvent(tick=0, channel=0, data=[53, 0]),
   midi.NoteOnEvent(tick=0, channel=0, data=[63, 0]),
   midi.NoteOnEvent(tick=0, channel=0, data=[58, 32]),
   midi.NoteOnEvent(tick=0, channel=0, data=[62, 38]),
   midi.NoteOnEvent(tick=480, channel=0, data=[62, 0]),
   midi.NoteOnEvent(tick=0, channel=0, data=[58, 0]),
   midi.NoteOnEvent(tick=2400, channel=0, data=[53, 30]),
   midi.NoteOnEvent(tick=0, channel=0, data=[60, 30]),
   midi.NoteOnEvent(tick=0, channel=0, data=[63, 36]),
   midi.NoteOnEvent(tick=2880, channel=0, data=[63, 0]),
   midi.NoteOnEvent(tick=0, channel=0, data=[60, 0]),
   midi.NoteOnEvent(tick=0, channel=0, data=[53, 0]),
   midi.NoteOnEvent(tick=0, channel=0, data=[58, 34]),
   midi.NoteOnEvent(tick=0, channel=0, data=[62, 40]),
   midi.NoteOnEvent(tick=120, channel=0, data=[62, 0]),
   midi.NoteOnEvent(tick=0, channel=0, data=[58, 0]),
   midi.NoteOnEvent(tick=360, channel=0, data=[62, 38]),
   midi.NoteOnEvent(tick=0, channel=0, data=[58, 32]),
   midi.NoteOnEvent(tick=120, channel=0, data=[58, 0]),
   midi.NoteOnEvent(tick=0, channel=0, data=[62, 0]),
   midi.NoteOnEvent(tick=360, channel=0, data=[58, 32]),
   midi.NoteOnEvent(tick=0, channel=0, data=[65, 38]),
   midi.NoteOnEvent(tick=120, channel=0, data=[65, 0]),
   midi.NoteOnEvent(tick=0, channel=0, data=[58, 0]),
   midi.NoteOnEvent(tick=360, channel=0, data=[58, 34]),
   midi.NoteOnEvent(tick=0, channel=0, data=[62, 40]),
   midi.NoteOnEvent(tick=480, channel=0, data=[62, 0]),
   midi.NoteOnEvent(tick=0, channel=0, data=[58, 0]),
   midi.NoteOnEvent(tick=1440, channel=0, data=[58, 30]),
   midi.NoteOnEvent(tick=0, channel=0, data=[51, 25]),
   midi.NoteOnEvent(tick=0, channel=0, data=[55, 25]),
   midi.NoteOnEvent(tick=480, channel=0, data=[55, 0]),
   midi.NoteOnEvent(tick=0, channel=0, data=[51, 0]),
   midi.NoteOnEvent(tick=0, channel=0, data=[58, 0]),
   midi.NoteOnEvent(tick=960, channel=0, data=[50, 25]),
   midi.NoteOnEvent(tick=0, channel=0, data=[53, 25]),
   midi.NoteOnEvent(tick=0, channel=0, data=[58, 30]),
   midi.NoteOnEvent(tick=480, channel=0, data=[58, 0]),
   midi.NoteOnEvent(tick=0, channel=0, data=[53, 0]),
   midi.NoteOnEvent(tick=0, channel=0, data=[50, 0]),
   midi.NoteOnEvent(tick=480, channel=0, data=[57, 29]),
   midi.NoteOnEvent(tick=0, channel=0, data=[65, 34]),
   midi.NoteOnEvent(tick=1440, channel=0, data=[57, 0]),
   midi.NoteOnEvent(tick=0, channel=0, data=[58, 34]),
   midi.NoteOnEvent(tick=480, channel=0, data=[58, 0]),
   midi.NoteOnEvent(tick=0, channel=0, data=[65, 0]),
   midi.NoteOnEvent(tick=1440, channel=0, data=[51, 25]),
   midi.NoteOnEvent(tick=0, channel=0, data=[55, 25]),
   midi.NoteOnEvent(tick=0, channel=0, data=[58, 30]),
   midi.NoteOnEvent(tick=480, channel=0, data=[58, 0]),
   midi.NoteOnEvent(tick=0, channel=0, data=[55, 0]),
   midi.NoteOnEvent(tick=0, channel=0, data=[51, 0]),
   midi.NoteOnEvent(tick=960, channel=0, data=[50, 25]),
   midi.NoteOnEvent(tick=0, channel=0, data=[53, 25]),
   midi.NoteOnEvent(tick=0, channel=0, data=[58, 30]),
   midi.NoteOnEvent(tick=480, channel=0, data=[58, 0]),
   midi.NoteOnEvent(tick=0, channel=0, data=[53, 0]),
   midi.NoteOnEvent(tick=0, channel=0, data=[50, 0]),
   midi.NoteOnEvent(tick=480, channel=0, data=[53, 29]),
   midi.NoteOnEvent(tick=0, channel=0, data=[57, 34]),
   midi.NoteOnEvent(tick=480, channel=0, data=[57, 0]),
   midi.NoteOnEvent(tick=0, channel=0, data=[60, 31]),
   midi.NoteOnEvent(tick=480, channel=0, data=[60, 0]),
   midi.NoteOnEvent(tick=0, channel=0, data=[63, 29]),
   midi.NoteOnEvent(tick=480, channel=0, data=[63, 0]),
   midi.NoteOnEvent(tick=0, channel=0, data=[53, 0]),
   midi.NoteOnEvent(tick=0, channel=0, data=[62, 34]),
   midi.NoteOnEvent(tick=0, channel=0, data=[58, 28]),
   midi.NoteOnEvent(tick=480, channel=0, data=[58, 0]),
   midi.NoteOnEvent(tick=0, channel=0, data=[62, 0]),
   midi.NoteOnEvent(tick=960, channel=0, data=[55, 73]),
   midi.NoteOnEvent(tick=120, channel=0, data=[55, 0]),
   midi.NoteOnEvent(tick=360, channel=0, data=[43, 66]),
   midi.NoteOnEvent(tick=120, channel=0, data=[43, 0]),
   midi.NoteOnEvent(tick=840, channel=0, data=[50, 73]),
   midi.NoteOnEvent(tick=120, channel=0, data=[50, 0]),
   midi.NoteOnEvent(tick=360, channel=0, data=[38, 66]),
   midi.NoteOnEvent(tick=120, channel=0, data=[38, 0]),
   midi.NoteOnEvent(tick=840, channel=0, data=[51, 20]),
   midi.NoteOnEvent(tick=0, channel=0, data=[55, 33]),
   midi.NoteOnEvent(tick=240, channel=0, data=[55, 0]),
   midi.NoteOnEvent(tick=0, channel=0, data=[58, 23]),
   midi.NoteOnEvent(tick=240, channel=0, data=[58, 0]),
   midi.NoteOnEvent(tick=0, channel=0, data=[55, 27]),
   midi.NoteOnEvent(tick=240, channel=0, data=[55, 0]),
   midi.NoteOnEvent(tick=0, channel=0, data=[58, 22]),
   midi.NoteOnEvent(tick=240, channel=0, data=[58, 0]),
   midi.NoteOnEvent(tick=0, channel=0, data=[55, 26]),
   midi.NoteOnEvent(tick=240, channel=0, data=[55, 0]),
   midi.NoteOnEvent(tick=0, channel=0, data=[58, 22]),
   midi.NoteOnEvent(tick=240, channel=0, data=[58, 0]),
   midi.NoteOnEvent(tick=0, channel=0, data=[51, 0]),
   midi.NoteOnEvent(tick=0, channel=0, data=[50, 20]),
   midi.NoteOnEvent(tick=0, channel=0, data=[56, 36]),
   midi.NoteOnEvent(tick=240, channel=0, data=[56, 0]),
   midi.NoteOnEvent(tick=0, channel=0, data=[58, 23]),
   midi.NoteOnEvent(tick=240, channel=0, data=[58, 0]),
   midi.NoteOnEvent(tick=0, channel=0, data=[56, 27]),
   midi.NoteOnEvent(tick=240, channel=0, data=[56, 0]),
   midi.NoteOnEvent(tick=0, channel=0, data=[58, 23]),
   midi.NoteOnEvent(tick=240, channel=0, data=[58, 0]),
   midi.NoteOnEvent(tick=0, channel=0, data=[56, 27]),
   midi.NoteOnEvent(tick=240, channel=0, data=[56, 0]),
   midi.NoteOnEvent(tick=0, channel=0, data=[58, 24]),
   midi.NoteOnEvent(tick=240, channel=0, data=[58, 0]),
   midi.NoteOnEvent(tick=0, channel=0, data=[50, 0]),
   midi.NoteOnEvent(tick=0, channel=0, data=[51, 20]),
   midi.NoteOnEvent(tick=0, channel=0, data=[55, 33]),
   midi.NoteOnEvent(tick=240, channel=0, data=[55, 0]),
   midi.NoteOnEvent(tick=0, channel=0, data=[58, 23]),
   midi.NoteOnEvent(tick=240, channel=0, data=[58, 0]),
   midi.NoteOnEvent(tick=0, channel=0, data=[55, 27]),
   midi.NoteOnEvent(tick=240, channel=0, data=[55, 0]),
   midi.NoteOnEvent(tick=0, channel=0, data=[58, 23]),
   midi.NoteOnEvent(tick=240, channel=0, data=[58, 0]),
   midi.NoteOnEvent(tick=0, channel=0, data=[55, 27]),
   midi.NoteOnEvent(tick=240, channel=0, data=[55, 0]),
   midi.NoteOnEvent(tick=0, channel=0, data=[58, 25]),
   midi.NoteOnEvent(tick=240, channel=0, data=[58, 0]),
   midi.NoteOnEvent(tick=0, channel=0, data=[51, 0]),
   midi.NoteOnEvent(tick=0, channel=0, data=[50, 20]),
   midi.NoteOnEvent(tick=0, channel=0, data=[56, 33]),
   midi.NoteOnEvent(tick=240, channel=0, data=[56, 0]),
   midi.NoteOnEvent(tick=0, channel=0, data=[58, 27]),
   midi.NoteOnEvent(tick=240, channel=0, data=[58, 0]),
   midi.NoteOnEvent(tick=0, channel=0, data=[56, 27]),
   midi.NoteOnEvent(tick=240, channel=0, data=[56, 0]),
   midi.NoteOnEvent(tick=0, channel=0, data=[58, 24]),
   midi.NoteOnEvent(tick=240, channel=0, data=[58, 0]),
   midi.NoteOnEvent(tick=0, channel=0, data=[56, 27]),
   midi.NoteOnEvent(tick=240, channel=0, data=[56, 0]),
   midi.NoteOnEvent(tick=0, channel=0, data=[58, 23]),
   midi.NoteOnEvent(tick=240, channel=0, data=[58, 0]),
   midi.NoteOnEvent(tick=0, channel=0, data=[50, 0]),
   midi.NoteOnEvent(tick=0, channel=0, data=[51, 21]),
   midi.NoteOnEvent(tick=0, channel=0, data=[55, 35]),
   midi.NoteOnEvent(tick=240, channel=0, data=[55, 0]),
   midi.NoteOnEvent(tick=0, channel=0, data=[58, 24]),
   midi.NoteOnEvent(tick=240, channel=0, data=[58, 0]),
   midi.NoteOnEvent(tick=0, channel=0, data=[55, 28]),
   midi.NoteOnEvent(tick=240, channel=0, data=[55, 0]),
   midi.NoteOnEvent(tick=0, channel=0, data=[58, 23]),
   midi.NoteOnEvent(tick=240, channel=0, data=[58, 0]),
   midi.NoteOnEvent(tick=0, channel=0, data=[55, 27]),
   midi.NoteOnEvent(tick=240, channel=0, data=[55, 0]),
   midi.NoteOnEvent(tick=0, channel=0, data=[58, 23]),
   midi.NoteOnEvent(tick=240, channel=0, data=[58, 0]),
   midi.NoteOnEvent(tick=0, channel=0, data=[51, 0]),
   midi.NoteOnEvent(tick=0, channel=0, data=[50, 21]),
   midi.NoteOnEvent(tick=0, channel=0, data=[53, 38]),
   midi.NoteOnEvent(tick=240, channel=0, data=[53, 0]),
   midi.NoteOnEvent(tick=0, channel=0, data=[56, 24]),
   midi.NoteOnEvent(tick=240, channel=0, data=[56, 0]),
   midi.NoteOnEvent(tick=0, channel=0, data=[53, 32]),
   midi.NoteOnEvent(tick=240, channel=0, data=[53, 0]),
   midi.NoteOnEvent(tick=0, channel=0, data=[56, 28]),
   midi.NoteOnEvent(tick=240, channel=0, data=[56, 0]),
   midi.NoteOnEvent(tick=0, channel=0, data=[53, 32]),
   midi.NoteOnEvent(tick=240, channel=0, data=[53, 0]),
   midi.NoteOnEvent(tick=0, channel=0, data=[56, 27]),
   midi.NoteOnEvent(tick=240, channel=0, data=[56, 0]),
   midi.NoteOnEvent(tick=0, channel=0, data=[50, 0]),
   midi.NoteOnEvent(tick=0, channel=0, data=[51, 23]),
   midi.NoteOnEvent(tick=0, channel=0, data=[55, 37]),
   midi.NoteOnEvent(tick=240, channel=0, data=[55, 0]),
   midi.NoteOnEvent(tick=0, channel=0, data=[60, 32]),
   midi.NoteOnEvent(tick=240, channel=0, data=[60, 0]),
   midi.NoteOnEvent(tick=0, channel=0, data=[55, 34]),
   midi.NoteOnEvent(tick=240, channel=0, data=[55, 0]),
   midi.NoteOnEvent(tick=0, channel=0, data=[60, 29]),
   midi.NoteOnEvent(tick=240, channel=0, data=[60, 0]),
   midi.NoteOnEvent(tick=0, channel=0, data=[55, 30]),
   midi.NoteOnEvent(tick=240, channel=0, data=[55, 0]),
   midi.NoteOnEvent(tick=0, channel=0, data=[60, 28]),
   midi.NoteOnEvent(tick=240, channel=0, data=[60, 0]),
   midi.NoteOnEvent(tick=0, channel=0, data=[51, 0]),
   midi.NoteOnEvent(tick=0, channel=0, data=[51, 23]),
   midi.NoteOnEvent(tick=0, channel=0, data=[53, 37]),
   midi.NoteOnEvent(tick=240, channel=0, data=[53, 0]),
   midi.NoteOnEvent(tick=0, channel=0, data=[60, 30]),
   midi.NoteOnEvent(tick=240, channel=0, data=[60, 0]),
   midi.NoteOnEvent(tick=0, channel=0, data=[53, 30]),
   midi.NoteOnEvent(tick=240, channel=0, data=[53, 0]),
   midi.NoteOnEvent(tick=0, channel=0, data=[60, 27]),
   midi.NoteOnEvent(tick=240, channel=0, data=[53, 30]),
   midi.NoteOnEvent(tick=12, channel=0, data=[60, 0]),
   midi.NoteOnEvent(tick=228, channel=0, data=[53, 0]),
   midi.NoteOnEvent(tick=0, channel=0, data=[60, 26]),
   midi.NoteOnEvent(tick=240, channel=0, data=[60, 0]),
   midi.NoteOnEvent(tick=0, channel=0, data=[51, 0]),
   midi.NoteOnEvent(tick=0, channel=0, data=[50, 27]),
   midi.NoteOnEvent(tick=0, channel=0, data=[53, 44]),
   midi.NoteOnEvent(tick=240, channel=0, data=[53, 0]),
   midi.NoteOnEvent(tick=0, channel=0, data=[58, 30]),
   midi.NoteOnEvent(tick=240, channel=0, data=[58, 0]),
   midi.NoteOnEvent(tick=0, channel=0, data=[53, 36]),
   midi.NoteOnEvent(tick=240, channel=0, data=[53, 0]),
   midi.NoteOnEvent(tick=0, channel=0, data=[58, 30]),
   midi.NoteOnEvent(tick=240, channel=0, data=[58, 0]),
   midi.NoteOnEvent(tick=0, channel=0, data=[53, 36]),
   midi.NoteOnEvent(tick=240, channel=0, data=[53, 0]),
   midi.NoteOnEvent(tick=0, channel=0, data=[58, 33]),
   midi.NoteOnEvent(tick=240, channel=0, data=[58, 0]),
   midi.NoteOnEvent(tick=0, channel=0, data=[50, 0]),
   midi.NoteOnEvent(tick=0, channel=0, data=[48, 27]),
   midi.NoteOnEvent(tick=0, channel=0, data=[55, 44]),
   midi.NoteOnEvent(tick=240, channel=0, data=[55, 0]),
   midi.NoteOnEvent(tick=0, channel=0, data=[58, 36]),
   midi.NoteOnEvent(tick=240, channel=0, data=[58, 0]),
   midi.NoteOnEvent(tick=0, channel=0, data=[55, 36]),
   midi.NoteOnEvent(tick=240, channel=0, data=[55, 0]),
   midi.NoteOnEvent(tick=0, channel=0, data=[58, 31]),
   midi.NoteOnEvent(tick=240, channel=0, data=[55, 36]),
   midi.NoteOnEvent(tick=12, channel=0, data=[58, 0]),
   midi.NoteOnEvent(tick=228, channel=0, data=[55, 0]),
   midi.NoteOnEvent(tick=0, channel=0, data=[58, 30]),
   midi.NoteOnEvent(tick=240, channel=0, data=[58, 0]),
   midi.NoteOnEvent(tick=0, channel=0, data=[48, 0]),
   midi.NoteOnEvent(tick=0, channel=0, data=[50, 27]),
   midi.NoteOnEvent(tick=0, channel=0, data=[53, 44]),
   midi.NoteOnEvent(tick=240, channel=0, data=[53, 0]),
   midi.NoteOnEvent(tick=0, channel=0, data=[57, 28]),
   midi.NoteOnEvent(tick=240, channel=0, data=[57, 0]),
   midi.NoteOnEvent(tick=0, channel=0, data=[53, 36]),
   midi.NoteOnEvent(tick=240, channel=0, data=[53, 0]),
   midi.NoteOnEvent(tick=0, channel=0, data=[57, 28]),
   midi.NoteOnEvent(tick=240, channel=0, data=[57, 0]),
   midi.NoteOnEvent(tick=0, channel=0, data=[53, 35]),
   midi.NoteOnEvent(tick=240, channel=0, data=[53, 0]),
   midi.NoteOnEvent(tick=0, channel=0, data=[57, 27]),
   midi.NoteOnEvent(tick=240, channel=0, data=[57, 0]),
   midi.NoteOnEvent(tick=0, channel=0, data=[50, 0]),
   midi.NoteOnEvent(tick=0, channel=0, data=[55, 37]),
   midi.NoteOnEvent(tick=0, channel=0, data=[62, 37]),
   midi.NoteOnEvent(tick=240, channel=0, data=[62, 0]),
   midi.NoteOnEvent(tick=0, channel=0, data=[65, 36]),
   midi.NoteOnEvent(tick=240, channel=0, data=[65, 0]),
   midi.NoteOnEvent(tick=0, channel=0, data=[62, 36]),
   midi.NoteOnEvent(tick=240, channel=0, data=[62, 0]),
   midi.NoteOnEvent(tick=0, channel=0, data=[65, 30]),
   midi.NoteOnEvent(tick=240, channel=0, data=[62, 36]),
   midi.NoteOnEvent(tick=12, channel=0, data=[65, 0]),
   midi.NoteOnEvent(tick=228, channel=0, data=[62, 0]),
   midi.NoteOnEvent(tick=0, channel=0, data=[65, 30]),
   midi.NoteOnEvent(tick=240, channel=0, data=[65, 0]),
   midi.NoteOnEvent(tick=0, channel=0, data=[55, 0]),
   midi.NoteOnEvent(tick=0, channel=0, data=[60, 44]),
   midi.NoteOnEvent(tick=0, channel=0, data=[64, 44]),
   midi.NoteOnEvent(tick=480, channel=0, data=[64, 0]),
   midi.NoteOnEvent(tick=0, channel=0, data=[60, 0]),
   midi.NoteOnEvent(tick=480, channel=0, data=[70, 50]),
   midi.NoteOnEvent(tick=240, channel=0, data=[70, 0]),
   midi.NoteOnEvent(tick=240, channel=0, data=[69, 55]),
   midi.NoteOnEvent(tick=240, channel=0, data=[69, 0]),
   midi.NoteOnEvent(tick=240, channel=0, data=[64, 59]),
   midi.NoteOnEvent(tick=240, channel=0, data=[64, 0]),
   midi.NoteOnEvent(tick=240, channel=0, data=[65, 57]),
   midi.NoteOnEvent(tick=240, channel=0, data=[65, 0]),
   midi.NoteOnEvent(tick=240, channel=0, data=[60, 62]),
   midi.NoteOnEvent(tick=480, channel=0, data=[60, 0]),
   midi.NoteOnEvent(tick=480, channel=0, data=[70, 50]),
   midi.NoteOnEvent(tick=240, channel=0, data=[70, 0]),
   midi.NoteOnEvent(tick=240, channel=0, data=[69, 58]),
   midi.NoteOnEvent(tick=240, channel=0, data=[69, 0]),
   midi.NoteOnEvent(tick=240, channel=0, data=[64, 62]),
   midi.NoteOnEvent(tick=240, channel=0, data=[64, 0]),
   midi.NoteOnEvent(tick=240, channel=0, data=[65, 56]),
   midi.NoteOnEvent(tick=240, channel=0, data=[65, 0]),
   midi.NoteOnEvent(tick=240, channel=0, data=[60, 61]),
   midi.NoteOnEvent(tick=480, channel=0, data=[60, 0]),
   midi.NoteOnEvent(tick=600, channel=0, data=[60, 47]),
   midi.NoteOnEvent(tick=120, channel=0, data=[60, 0]),
   midi.NoteOnEvent(tick=0, channel=0, data=[55, 54]),
   midi.NoteOnEvent(tick=120, channel=0, data=[55, 0]),
   midi.NoteOnEvent(tick=0, channel=0, data=[52, 47]),
   midi.NoteOnEvent(tick=120, channel=0, data=[52, 0]),
   midi.NoteOnEvent(tick=0, channel=0, data=[48, 69]),
   midi.NoteOnEvent(tick=120, channel=0, data=[48, 0]),
   midi.NoteOnEvent(tick=360, channel=0, data=[36, 59]),
   midi.NoteOnEvent(tick=480, channel=0, data=[36, 0]),
   midi.NoteOnEvent(tick=480, channel=0, data=[53, 34]),
   midi.NoteOnEvent(tick=960, channel=0, data=[48, 30]),
   midi.NoteOnEvent(tick=20, channel=0, data=[53, 0]),
   midi.NoteOnEvent(tick=460, channel=0, data=[48, 0]),
   midi.NoteOnEvent(tick=0, channel=0, data=[45, 34]),
   midi.NoteOnEvent(tick=960, channel=0, data=[48, 32]),
   midi.NoteOnEvent(tick=20, channel=0, data=[45, 0]),
   midi.NoteOnEvent(tick=460, channel=0, data=[48, 0]),
   midi.NoteOnEvent(tick=0, channel=0, data=[53, 34]),
   midi.NoteOnEvent(tick=960, channel=0, data=[57, 36]),
   midi.NoteOnEvent(tick=20, channel=0, data=[53, 0]),
   midi.NoteOnEvent(tick=460, channel=0, data=[57, 0]),
   midi.NoteOnEvent(tick=0, channel=0, data=[60, 38]),
   midi.NoteOnEvent(tick=480, channel=0, data=[60, 0]),
   midi.NoteOnEvent(tick=960, channel=0, data=[58, 34]),
   midi.NoteOnEvent(tick=960, channel=0, data=[55, 30]),
   midi.NoteOnEvent(tick=20, channel=0, data=[58, 0]),
   midi.NoteOnEvent(tick=460, channel=0, data=[55, 0]),
   midi.NoteOnEvent(tick=0, channel=0, data=[52, 34]),
   midi.NoteOnEvent(tick=960, channel=0, data=[55, 32]),
   midi.NoteOnEvent(tick=20, channel=0, data=[52, 0]),
   midi.NoteOnEvent(tick=460, channel=0, data=[55, 0]),
   midi.NoteOnEvent(tick=0, channel=0, data=[58, 34]),
   midi.NoteOnEvent(tick=960, channel=0, data=[64, 36]),
   midi.NoteOnEvent(tick=20, channel=0, data=[58, 0]),
   midi.NoteOnEvent(tick=460, channel=0, data=[64, 0]),
   midi.NoteOnEvent(tick=0, channel=0, data=[67, 38]),
   midi.NoteOnEvent(tick=480, channel=0, data=[67, 0]),
   midi.NoteOnEvent(tick=960, channel=0, data=[69, 35]),
   midi.NoteOnEvent(tick=240, channel=0, data=[69, 0]),
   midi.NoteOnEvent(tick=0, channel=0, data=[72, 28]),
   midi.NoteOnEvent(tick=240, channel=0, data=[72, 0]),
   midi.NoteOnEvent(tick=0, channel=0, data=[69, 35]),
   midi.NoteOnEvent(tick=240, channel=0, data=[69, 0]),
   midi.NoteOnEvent(tick=0, channel=0, data=[72, 25]),
   midi.NoteOnEvent(tick=240, channel=0, data=[72, 0]),
   midi.NoteOnEvent(tick=0, channel=0, data=[69, 32]),
   midi.NoteOnEvent(tick=240, channel=0, data=[69, 0]),
   midi.NoteOnEvent(tick=0, channel=0, data=[72, 24]),
   midi.NoteOnEvent(tick=240, channel=0, data=[72, 0]),
   midi.NoteOnEvent(tick=0, channel=0, data=[70, 35]),
   midi.NoteOnEvent(tick=240, channel=0, data=[70, 0]),
   midi.NoteOnEvent(tick=0, channel=0, data=[72, 31]),
   midi.NoteOnEvent(tick=240, channel=0, data=[72, 0]),
   midi.NoteOnEvent(tick=0, channel=0, data=[70, 35]),
   midi.NoteOnEvent(tick=240, channel=0, data=[70, 0]),
   midi.NoteOnEvent(tick=0, channel=0, data=[72, 26]),
   midi.NoteOnEvent(tick=240, channel=0, data=[72, 0]),
   midi.NoteOnEvent(tick=0, channel=0, data=[70, 33]),
   midi.NoteOnEvent(tick=240, channel=0, data=[70, 0]),
   midi.NoteOnEvent(tick=0, channel=0, data=[72, 29]),
   midi.NoteOnEvent(tick=240, channel=0, data=[72, 0]),
   midi.NoteOnEvent(tick=0, channel=0, data=[69, 35]),
   midi.NoteOnEvent(tick=240, channel=0, data=[69, 0]),
   midi.NoteOnEvent(tick=0, channel=0, data=[72, 30]),
   midi.NoteOnEvent(tick=240, channel=0, data=[72, 0]),
   midi.NoteOnEvent(tick=0, channel=0, data=[69, 32]),
   midi.NoteOnEvent(tick=240, channel=0, data=[69, 0]),
   midi.NoteOnEvent(tick=0, channel=0, data=[72, 24]),
   midi.NoteOnEvent(tick=240, channel=0, data=[72, 0]),
   midi.NoteOnEvent(tick=0, channel=0, data=[69, 32]),
   midi.NoteOnEvent(tick=240, channel=0, data=[69, 0]),
   midi.NoteOnEvent(tick=0, channel=0, data=[72, 25]),
   midi.NoteOnEvent(tick=240, channel=0, data=[72, 0]),
   midi.NoteOnEvent(tick=0, channel=0, data=[70, 35]),
   midi.NoteOnEvent(tick=240, channel=0, data=[70, 0]),
   midi.NoteOnEvent(tick=0, channel=0, data=[72, 31]),
   midi.NoteOnEvent(tick=240, channel=0, data=[72, 0]),
   midi.NoteOnEvent(tick=0, channel=0, data=[70, 35]),
   midi.NoteOnEvent(tick=240, channel=0, data=[70, 0]),
   midi.NoteOnEvent(tick=0, channel=0, data=[72, 26]),
   midi.NoteOnEvent(tick=240, channel=0, data=[72, 0]),
   midi.NoteOnEvent(tick=0, channel=0, data=[70, 33]),
   midi.NoteOnEvent(tick=240, channel=0, data=[70, 0]),
   midi.NoteOnEvent(tick=0, channel=0, data=[72, 29]),
   midi.NoteOnEvent(tick=240, channel=0, data=[72, 0]),
   midi.NoteOnEvent(tick=0, channel=0, data=[69, 35]),
   midi.NoteOnEvent(tick=240, channel=0, data=[69, 0]),
   midi.NoteOnEvent(tick=0, channel=0, data=[72, 30]),
   midi.NoteOnEvent(tick=240, channel=0, data=[72, 0]),
   midi.NoteOnEvent(tick=0, channel=0, data=[69, 32]),
   midi.NoteOnEvent(tick=240, channel=0, data=[69, 0]),
   midi.NoteOnEvent(tick=0, channel=0, data=[72, 28]),
   midi.NoteOnEvent(tick=240, channel=0, data=[72, 0]),
   midi.NoteOnEvent(tick=0, channel=0, data=[69, 38]),
   midi.NoteOnEvent(tick=240, channel=0, data=[69, 0]),
   midi.NoteOnEvent(tick=0, channel=0, data=[72, 31]),
   midi.NoteOnEvent(tick=240, channel=0, data=[72, 0]),
   midi.NoteOnEvent(tick=0, channel=0, data=[62, 40]),
   midi.NoteOnEvent(tick=0, channel=0, data=[69, 40]),
   midi.NoteOnEvent(tick=240, channel=0, data=[69, 0]),
   midi.NoteOnEvent(tick=0, channel=0, data=[72, 34]),
   midi.NoteOnEvent(tick=240, channel=0, data=[72, 0]),
   midi.NoteOnEvent(tick=0, channel=0, data=[69, 38]),
   midi.NoteOnEvent(tick=240, channel=0, data=[69, 0]),
   midi.NoteOnEvent(tick=0, channel=0, data=[72, 32]),
   midi.NoteOnEvent(tick=240, channel=0, data=[72, 0]),
   midi.NoteOnEvent(tick=0, channel=0, data=[69, 39]),
   midi.NoteOnEvent(tick=240, channel=0, data=[69, 0]),
   midi.NoteOnEvent(tick=0, channel=0, data=[72, 32]),
   midi.NoteOnEvent(tick=240, channel=0, data=[72, 0]),
   midi.NoteOnEvent(tick=0, channel=0, data=[62, 0]),
   midi.NoteOnEvent(tick=0, channel=0, data=[67, 39]),
   midi.NoteOnEvent(tick=0, channel=0, data=[70, 39]),
   midi.NoteOnEvent(tick=480, channel=0, data=[70, 0]),
   midi.NoteOnEvent(tick=0, channel=0, data=[67, 0]),
   midi.NoteOnEvent(tick=0, channel=0, data=[72, 35]),
   midi.NoteOnEvent(tick=0, channel=0, data=[64, 35]),
   midi.NoteOnEvent(tick=480, channel=0, data=[64, 0]),
   midi.NoteOnEvent(tick=0, channel=0, data=[65, 35]),
   midi.NoteOnEvent(tick=480, channel=0, data=[65, 0]),
   midi.NoteOnEvent(tick=0, channel=0, data=[72, 0]),
   midi.NoteOnEvent(tick=0, channel=0, data=[58, 43]),
   midi.NoteOnEvent(tick=0, channel=0, data=[70, 43]),
   midi.NoteOnEvent(tick=480, channel=0, data=[70, 0]),
   midi.NoteOnEvent(tick=0, channel=0, data=[58, 0]),
   midi.NoteOnEvent(tick=0, channel=0, data=[60, 40]),
   midi.NoteOnEvent(tick=0, channel=0, data=[69, 40]),
   midi.NoteOnEvent(tick=480, channel=0, data=[69, 0]),
   midi.NoteOnEvent(tick=0, channel=0, data=[67, 40]),
   midi.NoteOnEvent(tick=480, channel=0, data=[67, 0]),
   midi.NoteOnEvent(tick=0, channel=0, data=[60, 0]),
   midi.NoteOnEvent(tick=0, channel=0, data=[65, 40]),
   midi.NoteOnEvent(tick=480, channel=0, data=[65, 0]),
   midi.NoteOnEvent(tick=240, channel=0, data=[57, 49]),
   midi.NoteOnEvent(tick=240, channel=0, data=[57, 0]),
   midi.NoteOnEvent(tick=0, channel=0, data=[55, 55]),
   midi.NoteOnEvent(tick=240, channel=0, data=[55, 0]),
   midi.NoteOnEvent(tick=0, channel=0, data=[53, 48]),
   midi.NoteOnEvent(tick=240, channel=0, data=[53, 0]),
   midi.NoteOnEvent(tick=0, channel=0, data=[52, 48]),
   midi.NoteOnEvent(tick=480, channel=0, data=[52, 0]),
   midi.NoteOnEvent(tick=240, channel=0, data=[62, 45]),
   midi.NoteOnEvent(tick=240, channel=0, data=[62, 0]),
   midi.NoteOnEvent(tick=0, channel=0, data=[60, 50]),
   midi.NoteOnEvent(tick=240, channel=0, data=[60, 0]),
   midi.NoteOnEvent(tick=0, channel=0, data=[52, 45]),
   midi.NoteOnEvent(tick=240, channel=0, data=[52, 0]),
   midi.NoteOnEvent(tick=0, channel=0, data=[53, 40]),
   midi.NoteOnEvent(tick=480, channel=0, data=[53, 0]),
   midi.NoteOnEvent(tick=240, channel=0, data=[57, 50]),
   midi.NoteOnEvent(tick=240, channel=0, data=[57, 0]),
   midi.NoteOnEvent(tick=0, channel=0, data=[55, 55]),
   midi.NoteOnEvent(tick=240, channel=0, data=[55, 0]),
   midi.NoteOnEvent(tick=0, channel=0, data=[53, 47]),
   midi.NoteOnEvent(tick=240, channel=0, data=[53, 0]),
   midi.NoteOnEvent(tick=0, channel=0, data=[52, 47]),
   midi.NoteOnEvent(tick=480, channel=0, data=[52, 0]),
   midi.NoteOnEvent(tick=240, channel=0, data=[62, 45]),
   midi.NoteOnEvent(tick=240, channel=0, data=[62, 0]),
   midi.NoteOnEvent(tick=0, channel=0, data=[60, 50]),
   midi.NoteOnEvent(tick=240, channel=0, data=[60, 0]),
   midi.NoteOnEvent(tick=0, channel=0, data=[52, 45]),
   midi.NoteOnEvent(tick=240, channel=0, data=[52, 0]),
   midi.NoteOnEvent(tick=0, channel=0, data=[53, 40]),
   midi.NoteOnEvent(tick=480, channel=0, data=[53, 0]),
   midi.NoteOnEvent(tick=240, channel=0, data=[60, 47]),
   midi.NoteOnEvent(tick=240, channel=0, data=[60, 0]),
   midi.NoteOnEvent(tick=0, channel=0, data=[57, 52]),
   midi.NoteOnEvent(tick=240, channel=0, data=[57, 0]),
   midi.NoteOnEvent(tick=0, channel=0, data=[55, 47]),
   midi.NoteOnEvent(tick=240, channel=0, data=[55, 0]),
   midi.NoteOnEvent(tick=0, channel=0, data=[54, 44]),
   midi.NoteOnEvent(tick=480, channel=0, data=[54, 0]),
   midi.NoteOnEvent(tick=240, channel=0, data=[63, 45]),
   midi.NoteOnEvent(tick=240, channel=0, data=[63, 0]),
   midi.NoteOnEvent(tick=0, channel=0, data=[62, 50]),
   midi.NoteOnEvent(tick=240, channel=0, data=[62, 0]),
   midi.NoteOnEvent(tick=0, channel=0, data=[54, 45]),
   midi.NoteOnEvent(tick=240, channel=0, data=[54, 0]),
   midi.NoteOnEvent(tick=0, channel=0, data=[55, 42]),
   midi.NoteOnEvent(tick=120, channel=0, data=[55, 0]),
   midi.NoteOnEvent(tick=0, channel=0, data=[62, 33]),
   midi.NoteOnEvent(tick=120, channel=0, data=[62, 0]),
   midi.NoteOnEvent(tick=0, channel=0, data=[59, 36]),
   midi.NoteOnEvent(tick=120, channel=0, data=[59, 0]),
   midi.NoteOnEvent(tick=0, channel=0, data=[62, 33]),
   midi.NoteOnEvent(tick=120, channel=0, data=[62, 0]),
   midi.NoteOnEvent(tick=0, channel=0, data=[52, 38]),
   midi.NoteOnEvent(tick=120, channel=0, data=[52, 0]),
   midi.NoteOnEvent(tick=0, channel=0, data=[61, 33]),
   midi.NoteOnEvent(tick=120, channel=0, data=[61, 0]),
   midi.NoteOnEvent(tick=0, channel=0, data=[55, 36]),
   midi.NoteOnEvent(tick=120, channel=0, data=[55, 0]),
   midi.NoteOnEvent(tick=0, channel=0, data=[61, 33]),
   midi.NoteOnEvent(tick=120, channel=0, data=[61, 0]),
   midi.NoteOnEvent(tick=0, channel=0, data=[53, 39]),
   midi.NoteOnEvent(tick=120, channel=0, data=[53, 0]),
   midi.NoteOnEvent(tick=0, channel=0, data=[60, 33]),
   midi.NoteOnEvent(tick=120, channel=0, data=[60, 0]),
   midi.NoteOnEvent(tick=0, channel=0, data=[57, 37]),
   midi.NoteOnEvent(tick=120, channel=0, data=[57, 0]),
   midi.NoteOnEvent(tick=0, channel=0, data=[60, 37]),
   midi.NoteOnEvent(tick=120, channel=0, data=[60, 0]),
   midi.NoteOnEvent(tick=0, channel=0, data=[46, 31]),
   midi.NoteOnEvent(tick=0, channel=0, data=[58, 37]),
   midi.NoteOnEvent(tick=480, channel=0, data=[58, 0]),
   midi.NoteOnEvent(tick=0, channel=0, data=[46, 0]),
   midi.NoteOnEvent(tick=0, channel=0, data=[48, 31]),
   midi.NoteOnEvent(tick=0, channel=0, data=[57, 37]),
   midi.NoteOnEvent(tick=480, channel=0, data=[57, 0]),
   midi.NoteOnEvent(tick=0, channel=0, data=[48, 0]),
   midi.NoteOnEvent(tick=0, channel=0, data=[46, 31]),
   midi.NoteOnEvent(tick=0, channel=0, data=[55, 37]),
   midi.NoteOnEvent(tick=480, channel=0, data=[55, 0]),
   midi.NoteOnEvent(tick=0, channel=0, data=[46, 0]),
   midi.NoteOnEvent(tick=0, channel=0, data=[45, 34]),
   midi.NoteOnEvent(tick=0, channel=0, data=[53, 40]),
   midi.NoteOnEvent(tick=480, channel=0, data=[53, 0]),
   midi.NoteOnEvent(tick=0, channel=0, data=[45, 0]),
   midi.NoteOnEvent(tick=480, channel=0, data=[60, 37]),
   midi.NoteOnEvent(tick=0, channel=0, data=[57, 31]),
   midi.NoteOnEvent(tick=480, channel=0, data=[57, 0]),
   midi.NoteOnEvent(tick=0, channel=0, data=[60, 0]),
   midi.NoteOnEvent(tick=0, channel=0, data=[58, 37]),
   midi.NoteOnEvent(tick=0, channel=0, data=[62, 44]),
   midi.NoteOnEvent(tick=480, channel=0, data=[62, 0]),
   midi.NoteOnEvent(tick=0, channel=0, data=[58, 0]),
   midi.NoteOnEvent(tick=480, channel=0, data=[50, 31]),
   midi.NoteOnEvent(tick=0, channel=0, data=[53, 31]),
   midi.NoteOnEvent(tick=0, channel=0, data=[55, 37]),
   midi.NoteOnEvent(tick=480, channel=0, data=[55, 0]),
   midi.NoteOnEvent(tick=0, channel=0, data=[53, 0]),
   midi.NoteOnEvent(tick=0, channel=0, data=[50, 0]),
   midi.NoteOnEvent(tick=0, channel=0, data=[48, 45]),
   midi.NoteOnEvent(tick=120, channel=0, data=[48, 0]),
   midi.NoteOnEvent(tick=0, channel=0, data=[57, 37]),
   midi.NoteOnEvent(tick=120, channel=0, data=[57, 0]),
   midi.NoteOnEvent(tick=0, channel=0, data=[53, 40]),
   midi.NoteOnEvent(tick=120, channel=0, data=[53, 0]),
   midi.NoteOnEvent(tick=0, channel=0, data=[57, 37]),
   midi.NoteOnEvent(tick=120, channel=0, data=[57, 0]),
   midi.NoteOnEvent(tick=0, channel=0, data=[48, 45]),
   midi.NoteOnEvent(tick=120, channel=0, data=[48, 0]),
   midi.NoteOnEvent(tick=0, channel=0, data=[57, 37]),
   midi.NoteOnEvent(tick=120, channel=0, data=[57, 0]),
   midi.NoteOnEvent(tick=0, channel=0, data=[53, 40]),
   midi.NoteOnEvent(tick=120, channel=0, data=[53, 0]),
   midi.NoteOnEvent(tick=0, channel=0, data=[57, 37]),
   midi.NoteOnEvent(tick=120, channel=0, data=[57, 0]),
   midi.NoteOnEvent(tick=0, channel=0, data=[48, 48]),
   midi.NoteOnEvent(tick=120, channel=0, data=[48, 0]),
   midi.NoteOnEvent(tick=0, channel=0, data=[57, 37]),
   midi.NoteOnEvent(tick=120, channel=0, data=[57, 0]),
   midi.NoteOnEvent(tick=0, channel=0, data=[53, 41]),
   midi.NoteOnEvent(tick=120, channel=0, data=[53, 0]),
   midi.NoteOnEvent(tick=0, channel=0, data=[57, 37]),
   midi.NoteOnEvent(tick=120, channel=0, data=[57, 0]),
   midi.NoteOnEvent(tick=0, channel=0, data=[48, 45]),
   midi.NoteOnEvent(tick=120, channel=0, data=[48, 0]),
   midi.NoteOnEvent(tick=0, channel=0, data=[58, 37]),
   midi.NoteOnEvent(tick=120, channel=0, data=[58, 0]),
   midi.NoteOnEvent(tick=0, channel=0, data=[52, 40]),
   midi.NoteOnEvent(tick=120, channel=0, data=[52, 0]),
   midi.NoteOnEvent(tick=0, channel=0, data=[58, 37]),
   midi.NoteOnEvent(tick=120, channel=0, data=[58, 0]),
   midi.NoteOnEvent(tick=0, channel=0, data=[48, 45]),
   midi.NoteOnEvent(tick=120, channel=0, data=[48, 0]),
   midi.NoteOnEvent(tick=0, channel=0, data=[58, 37]),
   midi.NoteOnEvent(tick=120, channel=0, data=[58, 0]),
   midi.NoteOnEvent(tick=0, channel=0, data=[52, 40]),
   midi.NoteOnEvent(tick=120, channel=0, data=[52, 0]),
   midi.NoteOnEvent(tick=0, channel=0, data=[58, 37]),
   midi.NoteOnEvent(tick=120, channel=0, data=[58, 0]),
   midi.NoteOnEvent(tick=0, channel=0, data=[48, 48]),
   midi.NoteOnEvent(tick=120, channel=0, data=[48, 0]),
   midi.NoteOnEvent(tick=0, channel=0, data=[58, 37]),
   midi.NoteOnEvent(tick=120, channel=0, data=[58, 0]),
   midi.NoteOnEvent(tick=0, channel=0, data=[52, 41]),
   midi.NoteOnEvent(tick=120, channel=0, data=[52, 0]),
   midi.NoteOnEvent(tick=0, channel=0, data=[58, 37]),
   midi.NoteOnEvent(tick=120, channel=0, data=[58, 0]),
   midi.NoteOnEvent(tick=0, channel=0, data=[53, 41]),
   midi.NoteOnEvent(tick=240, channel=0, data=[57, 28]),
   midi.NoteOnEvent(tick=12, channel=0, data=[53, 0]),
   midi.NoteOnEvent(tick=228, channel=0, data=[60, 35]),
   midi.NoteOnEvent(tick=12, channel=0, data=[57, 0]),
   midi.NoteOnEvent(tick=228, channel=0, data=[65, 34]),
   midi.NoteOnEvent(tick=12, channel=0, data=[60, 0]),
   midi.NoteOnEvent(tick=228, channel=0, data=[64, 32]),
   midi.NoteOnEvent(tick=12, channel=0, data=[65, 0]),
   midi.NoteOnEvent(tick=228, channel=0, data=[63, 30]),
   midi.NoteOnEvent(tick=12, channel=0, data=[64, 0]),
   midi.NoteOnEvent(tick=228, channel=0, data=[62, 28]),
   midi.NoteOnEvent(tick=12, channel=0, data=[63, 0]),
   midi.NoteOnEvent(tick=228, channel=0, data=[62, 0]),
   midi.NoteOnEvent(tick=0, channel=0, data=[65, 21]),
   midi.NoteOnEvent(tick=240, channel=0, data=[65, 0]),
   midi.NoteOnEvent(tick=0, channel=0, data=[60, 31]),
   midi.NoteOnEvent(tick=240, channel=0, data=[60, 0]),
   midi.NoteOnEvent(tick=0, channel=0, data=[65, 24]),
   midi.NoteOnEvent(tick=240, channel=0, data=[65, 0]),
   midi.NoteOnEvent(tick=0, channel=0, data=[58, 31]),
   midi.NoteOnEvent(tick=240, channel=0, data=[58, 0]),
   midi.NoteOnEvent(tick=0, channel=0, data=[65, 25]),
   midi.NoteOnEvent(tick=240, channel=0, data=[65, 0]),
   midi.NoteOnEvent(tick=0, channel=0, data=[57, 31]),
   midi.NoteOnEvent(tick=240, channel=0, data=[57, 0]),
   midi.NoteOnEvent(tick=0, channel=0, data=[65, 28]),
   midi.NoteOnEvent(tick=240, channel=0, data=[65, 0]),
   midi.NoteOnEvent(tick=0, channel=0, data=[64, 31]),
   midi.NoteOnEvent(tick=240, channel=0, data=[64, 0]),
   midi.NoteOnEvent(tick=0, channel=0, data=[65, 28]),
   midi.NoteOnEvent(tick=240, channel=0, data=[65, 0]),
   midi.NoteOnEvent(tick=0, channel=0, data=[58, 31]),
   midi.NoteOnEvent(tick=240, channel=0, data=[58, 0]),
   midi.NoteOnEvent(tick=0, channel=0, data=[67, 27]),
   midi.NoteOnEvent(tick=240, channel=0, data=[67, 0]),
   midi.NoteOnEvent(tick=0, channel=0, data=[60, 31]),
   midi.NoteOnEvent(tick=240, channel=0, data=[60, 0]),
   midi.NoteOnEvent(tick=0, channel=0, data=[69, 27]),
   midi.NoteOnEvent(tick=240, channel=0, data=[69, 0]),
   midi.NoteOnEvent(tick=0, channel=0, data=[65, 31]),
   midi.NoteOnEvent(tick=240, channel=0, data=[65, 0]),
   midi.NoteOnEvent(tick=0, channel=0, data=[69, 29]),
   midi.NoteOnEvent(tick=240, channel=0, data=[69, 0]),
   midi.NoteOnEvent(tick=0, channel=0, data=[60, 31]),
   midi.NoteOnEvent(tick=240, channel=0, data=[60, 0]),
   midi.NoteOnEvent(tick=0, channel=0, data=[70, 27]),
   midi.NoteOnEvent(tick=240, channel=0, data=[70, 0]),
   midi.NoteOnEvent(tick=0, channel=0, data=[69, 31]),
   midi.NoteOnEvent(tick=240, channel=0, data=[69, 0]),
   midi.NoteOnEvent(tick=0, channel=0, data=[65, 24]),
   midi.NoteOnEvent(tick=240, channel=0, data=[65, 0]),
   midi.NoteOnEvent(tick=0, channel=0, data=[64, 30]),
   midi.NoteOnEvent(tick=240, channel=0, data=[64, 0]),
   midi.NoteOnEvent(tick=0, channel=0, data=[63, 26]),
   midi.NoteOnEvent(tick=240, channel=0, data=[63, 0]),
   midi.NoteOnEvent(tick=0, channel=0, data=[62, 29]),
   midi.NoteOnEvent(tick=240, channel=0, data=[62, 0]),
   midi.NoteOnEvent(tick=0, channel=0, data=[61, 31]),
   midi.NoteOnEvent(tick=240, channel=0, data=[61, 0]),
   midi.NoteOnEvent(tick=0, channel=0, data=[62, 28]),
   midi.NoteOnEvent(tick=240, channel=0, data=[62, 0]),
   midi.NoteOnEvent(tick=0, channel=0, data=[65, 27]),
   midi.NoteOnEvent(tick=240, channel=0, data=[65, 0]),
   midi.NoteOnEvent(tick=0, channel=0, data=[60, 38]),
   midi.NoteOnEvent(tick=240, channel=0, data=[60, 0]),
   midi.NoteOnEvent(tick=0, channel=0, data=[64, 32]),
   midi.NoteOnEvent(tick=240, channel=0, data=[64, 0]),
   midi.NoteOnEvent(tick=0, channel=0, data=[59, 40]),
   midi.NoteOnEvent(tick=240, channel=0, data=[59, 0]),
   midi.NoteOnEvent(tick=0, channel=0, data=[68, 34]),
   midi.NoteOnEvent(tick=240, channel=0, data=[68, 0]),
   midi.NoteOnEvent(tick=0, channel=0, data=[60, 41]),
   midi.NoteOnEvent(tick=240, channel=0, data=[60, 0]),
   midi.NoteOnEvent(tick=0, channel=0, data=[69, 35]),
   midi.NoteOnEvent(tick=240, channel=0, data=[69, 0]),
   midi.NoteOnEvent(tick=0, channel=0, data=[65, 38]),
   midi.NoteOnEvent(tick=240, channel=0, data=[65, 0]),
   midi.NoteOnEvent(tick=0, channel=0, data=[69, 33]),
   midi.NoteOnEvent(tick=240, channel=0, data=[69, 0]),
   midi.NoteOnEvent(tick=0, channel=0, data=[60, 40]),
   midi.NoteOnEvent(tick=240, channel=0, data=[60, 0]),
   midi.NoteOnEvent(tick=0, channel=0, data=[69, 35]),
   midi.NoteOnEvent(tick=240, channel=0, data=[69, 0]),
   midi.NoteOnEvent(tick=0, channel=0, data=[60, 41]),
   midi.NoteOnEvent(tick=240, channel=0, data=[60, 0]),
   midi.NoteOnEvent(tick=0, channel=0, data=[72, 33]),
   midi.NoteOnEvent(tick=240, channel=0, data=[72, 0]),
   midi.NoteOnEvent(tick=0, channel=0, data=[69, 43]),
   midi.NoteOnEvent(tick=240, channel=0, data=[69, 0]),
   midi.NoteOnEvent(tick=0, channel=0, data=[72, 33]),
   midi.NoteOnEvent(tick=240, channel=0, data=[72, 0]),
   midi.NoteOnEvent(tick=0, channel=0, data=[60, 45]),
   midi.NoteOnEvent(tick=240, channel=0, data=[60, 0]),
   midi.NoteOnEvent(tick=0, channel=0, data=[70, 38]),
   midi.NoteOnEvent(tick=240, channel=0, data=[70, 0]),
   midi.NoteOnEvent(tick=120, channel=0, data=[53, 54]),
   midi.NoteOnEvent(tick=120, channel=0, data=[53, 0]),
   midi.NoteOnEvent(tick=0, channel=0, data=[57, 56]),
   midi.NoteOnEvent(tick=120, channel=0, data=[57, 0]),
   midi.NoteOnEvent(tick=0, channel=0, data=[60, 59]),
   midi.NoteOnEvent(tick=120, channel=0, data=[60, 0]),
   midi.NoteOnEvent(tick=0, channel=0, data=[65, 61]),
   midi.NoteOnEvent(tick=240, channel=0, data=[65, 0]),
   midi.NoteOnEvent(tick=240, channel=0, data=[60, 54]),
   midi.NoteOnEvent(tick=0, channel=0, data=[64, 54]),
   midi.NoteOnEvent(tick=240, channel=0, data=[64, 0]),
   midi.NoteOnEvent(tick=0, channel=0, data=[60, 0]),
   midi.NoteOnEvent(tick=360, channel=0, data=[41, 54]),
   midi.NoteOnEvent(tick=120, channel=0, data=[41, 0]),
   midi.NoteOnEvent(tick=0, channel=0, data=[45, 56]),
   midi.NoteOnEvent(tick=120, channel=0, data=[45, 0]),
   midi.NoteOnEvent(tick=0, channel=0, data=[48, 59]),
   midi.NoteOnEvent(tick=120, channel=0, data=[48, 0]),
   midi.NoteOnEvent(tick=0, channel=0, data=[53, 61]),
   midi.NoteOnEvent(tick=240, channel=0, data=[53, 0]),
   midi.NoteOnEvent(tick=240, channel=0, data=[48, 54]),
   midi.NoteOnEvent(tick=0, channel=0, data=[52, 54]),
   midi.NoteOnEvent(tick=240, channel=0, data=[52, 0]),
   midi.NoteOnEvent(tick=0, channel=0, data=[48, 0]),
   midi.NoteOnEvent(tick=240, channel=0, data=[53, 59]),
   midi.NoteOnEvent(tick=120, channel=0, data=[53, 0]),
   midi.NoteOnEvent(tick=360, channel=0, data=[41, 59]),
   midi.NoteOnEvent(tick=480, channel=0, data=[41, 0]),
   midi.NoteOnEvent(tick=480, channel=0, data=[58, 40]),
   midi.NoteOnEvent(tick=960, channel=0, data=[58, 0]),
   midi.NoteOnEvent(tick=0, channel=0, data=[53, 36]),
   midi.NoteOnEvent(tick=480, channel=0, data=[53, 0]),
   midi.NoteOnEvent(tick=0, channel=0, data=[50, 40]),
   midi.NoteOnEvent(tick=960, channel=0, data=[50, 0]),
   midi.NoteOnEvent(tick=0, channel=0, data=[53, 38]),
   midi.NoteOnEvent(tick=480, channel=0, data=[53, 0]),
   midi.NoteOnEvent(tick=0, channel=0, data=[58, 41]),
   midi.NoteOnEvent(tick=960, channel=0, data=[58, 0]),
   midi.NoteOnEvent(tick=0, channel=0, data=[62, 43]),
   midi.NoteOnEvent(tick=480, channel=0, data=[62, 0]),
   midi.NoteOnEvent(tick=0, channel=0, data=[65, 45]),
   midi.NoteOnEvent(tick=960, channel=0, data=[65, 0]),
   midi.NoteOnEvent(tick=480, channel=0, data=[63, 36]),
   midi.NoteOnEvent(tick=0, channel=0, data=[53, 30]),
   midi.NoteOnEvent(tick=0, channel=0, data=[60, 30]),
   midi.NoteOnEvent(tick=2880, channel=0, data=[60, 0]),
   midi.NoteOnEvent(tick=0, channel=0, data=[53, 0]),
   midi.NoteOnEvent(tick=0, channel=0, data=[63, 0]),
   midi.NoteOnEvent(tick=0, channel=0, data=[58, 32]),
   midi.NoteOnEvent(tick=0, channel=0, data=[62, 38]),
   midi.NoteOnEvent(tick=480, channel=0, data=[62, 0]),
   midi.NoteOnEvent(tick=0, channel=0, data=[58, 0]),
   midi.NoteOnEvent(tick=2400, channel=0, data=[53, 30]),
   midi.NoteOnEvent(tick=0, channel=0, data=[60, 30]),
   midi.NoteOnEvent(tick=0, channel=0, data=[63, 36]),
   midi.NoteOnEvent(tick=2880, channel=0, data=[63, 0]),
   midi.NoteOnEvent(tick=0, channel=0, data=[60, 0]),
   midi.NoteOnEvent(tick=0, channel=0, data=[53, 0]),
   midi.NoteOnEvent(tick=0, channel=0, data=[58, 34]),
   midi.NoteOnEvent(tick=0, channel=0, data=[62, 40]),
   midi.NoteOnEvent(tick=120, channel=0, data=[62, 0]),
   midi.NoteOnEvent(tick=0, channel=0, data=[58, 0]),
   midi.NoteOnEvent(tick=360, channel=0, data=[62, 38]),
   midi.NoteOnEvent(tick=0, channel=0, data=[58, 32]),
   midi.NoteOnEvent(tick=120, channel=0, data=[58, 0]),
   midi.NoteOnEvent(tick=0, channel=0, data=[62, 0]),
   midi.NoteOnEvent(tick=360, channel=0, data=[58, 32]),
   midi.NoteOnEvent(tick=0, channel=0, data=[65, 38]),
   midi.NoteOnEvent(tick=120, channel=0, data=[65, 0]),
   midi.NoteOnEvent(tick=0, channel=0, data=[58, 0]),
   midi.NoteOnEvent(tick=360, channel=0, data=[58, 34]),
   midi.NoteOnEvent(tick=0, channel=0, data=[62, 40]),
   midi.NoteOnEvent(tick=480, channel=0, data=[62, 0]),
   midi.NoteOnEvent(tick=0, channel=0, data=[58, 0]),
   midi.NoteOnEvent(tick=1440, channel=0, data=[58, 30]),
   midi.NoteOnEvent(tick=0, channel=0, data=[51, 25]),
   midi.NoteOnEvent(tick=0, channel=0, data=[55, 25]),
   midi.NoteOnEvent(tick=480, channel=0, data=[55, 0]),
   midi.NoteOnEvent(tick=0, channel=0, data=[51, 0]),
   midi.NoteOnEvent(tick=0, channel=0, data=[58, 0]),
   midi.NoteOnEvent(tick=960, channel=0, data=[50, 25]),
   midi.NoteOnEvent(tick=0, channel=0, data=[53, 25]),
   midi.NoteOnEvent(tick=0, channel=0, data=[58, 30]),
   midi.NoteOnEvent(tick=480, channel=0, data=[58, 0]),
   midi.NoteOnEvent(tick=0, channel=0, data=[53, 0]),
   midi.NoteOnEvent(tick=0, channel=0, data=[50, 0]),
   midi.NoteOnEvent(tick=480, channel=0, data=[57, 29]),
   midi.NoteOnEvent(tick=0, channel=0, data=[65, 34]),
   midi.NoteOnEvent(tick=1440, channel=0, data=[57, 0]),
   midi.NoteOnEvent(tick=0, channel=0, data=[58, 34]),
   midi.NoteOnEvent(tick=480, channel=0, data=[58, 0]),
   midi.NoteOnEvent(tick=0, channel=0, data=[65, 0]),
   midi.NoteOnEvent(tick=1440, channel=0, data=[51, 25]),
   midi.NoteOnEvent(tick=0, channel=0, data=[55, 25]),
   midi.NoteOnEvent(tick=0, channel=0, data=[58, 30]),
   midi.NoteOnEvent(tick=480, channel=0, data=[58, 0]),
   midi.NoteOnEvent(tick=0, channel=0, data=[55, 0]),
   midi.NoteOnEvent(tick=0, channel=0, data=[51, 0]),
   midi.NoteOnEvent(tick=960, channel=0, data=[50, 25]),
   midi.NoteOnEvent(tick=0, channel=0, data=[53, 25]),
   midi.NoteOnEvent(tick=0, channel=0, data=[58, 30]),
   midi.NoteOnEvent(tick=480, channel=0, data=[58, 0]),
   midi.NoteOnEvent(tick=0, channel=0, data=[53, 0]),
   midi.NoteOnEvent(tick=0, channel=0, data=[50, 0]),
   midi.NoteOnEvent(tick=480, channel=0, data=[53, 29]),
   midi.NoteOnEvent(tick=0, channel=0, data=[57, 34]),
   midi.NoteOnEvent(tick=480, channel=0, data=[57, 0]),
   midi.NoteOnEvent(tick=0, channel=0, data=[60, 31]),
   midi.NoteOnEvent(tick=480, channel=0, data=[60, 0]),
   midi.NoteOnEvent(tick=0, channel=0, data=[63, 29]),
   midi.NoteOnEvent(tick=480, channel=0, data=[63, 0]),
   midi.NoteOnEvent(tick=0, channel=0, data=[53, 0]),
   midi.NoteOnEvent(tick=0, channel=0, data=[62, 34]),
   midi.NoteOnEvent(tick=0, channel=0, data=[58, 28]),
   midi.NoteOnEvent(tick=480, channel=0, data=[58, 0]),
   midi.NoteOnEvent(tick=0, channel=0, data=[62, 0]),
   midi.NoteOnEvent(tick=960, channel=0, data=[55, 73]),
   midi.NoteOnEvent(tick=120, channel=0, data=[55, 0]),
   midi.NoteOnEvent(tick=360, channel=0, data=[43, 66]),
   midi.NoteOnEvent(tick=120, channel=0, data=[43, 0]),
   midi.NoteOnEvent(tick=840, channel=0, data=[50, 73]),
   midi.NoteOnEvent(tick=120, channel=0, data=[50, 0]),
   midi.NoteOnEvent(tick=360, channel=0, data=[38, 66]),
   midi.NoteOnEvent(tick=120, channel=0, data=[38, 0]),
   midi.NoteOnEvent(tick=840, channel=0, data=[51, 20]),
   midi.NoteOnEvent(tick=0, channel=0, data=[55, 33]),
   midi.NoteOnEvent(tick=240, channel=0, data=[55, 0]),
   midi.NoteOnEvent(tick=0, channel=0, data=[58, 23]),
   midi.NoteOnEvent(tick=240, channel=0, data=[58, 0]),
   midi.NoteOnEvent(tick=0, channel=0, data=[55, 27]),
   midi.NoteOnEvent(tick=240, channel=0, data=[55, 0]),
   midi.NoteOnEvent(tick=0, channel=0, data=[58, 22]),
   midi.NoteOnEvent(tick=240, channel=0, data=[58, 0]),
   midi.NoteOnEvent(tick=0, channel=0, data=[55, 26]),
   midi.NoteOnEvent(tick=240, channel=0, data=[55, 0]),
   midi.NoteOnEvent(tick=0, channel=0, data=[58, 22]),
   midi.NoteOnEvent(tick=240, channel=0, data=[58, 0]),
   midi.NoteOnEvent(tick=0, channel=0, data=[51, 0]),
   midi.NoteOnEvent(tick=0, channel=0, data=[50, 20]),
   midi.NoteOnEvent(tick=0, channel=0, data=[56, 36]),
   midi.NoteOnEvent(tick=240, channel=0, data=[56, 0]),
   midi.NoteOnEvent(tick=0, channel=0, data=[58, 23]),
   midi.NoteOnEvent(tick=240, channel=0, data=[58, 0]),
   midi.NoteOnEvent(tick=0, channel=0, data=[56, 27]),
   midi.NoteOnEvent(tick=240, channel=0, data=[56, 0]),
   midi.NoteOnEvent(tick=0, channel=0, data=[58, 23]),
   midi.NoteOnEvent(tick=240, channel=0, data=[58, 0]),
   midi.NoteOnEvent(tick=0, channel=0, data=[56, 27]),
   midi.NoteOnEvent(tick=240, channel=0, data=[56, 0]),
   midi.NoteOnEvent(tick=0, channel=0, data=[58, 24]),
   midi.NoteOnEvent(tick=240, channel=0, data=[58, 0]),
   midi.NoteOnEvent(tick=0, channel=0, data=[50, 0]),
   midi.NoteOnEvent(tick=0, channel=0, data=[51, 20]),
   midi.NoteOnEvent(tick=0, channel=0, data=[55, 33]),
   midi.NoteOnEvent(tick=240, channel=0, data=[55, 0]),
   midi.NoteOnEvent(tick=0, channel=0, data=[58, 23]),
   midi.NoteOnEvent(tick=240, channel=0, data=[58, 0]),
   midi.NoteOnEvent(tick=0, channel=0, data=[55, 27]),
   midi.NoteOnEvent(tick=240, channel=0, data=[55, 0]),
   midi.NoteOnEvent(tick=0, channel=0, data=[58, 23]),
   midi.NoteOnEvent(tick=240, channel=0, data=[58, 0]),
   midi.NoteOnEvent(tick=0, channel=0, data=[55, 27]),
   midi.NoteOnEvent(tick=240, channel=0, data=[55, 0]),
   midi.NoteOnEvent(tick=0, channel=0, data=[58, 25]),
   midi.NoteOnEvent(tick=240, channel=0, data=[58, 0]),
   midi.NoteOnEvent(tick=0, channel=0, data=[51, 0]),
   midi.NoteOnEvent(tick=0, channel=0, data=[50, 20]),
   midi.NoteOnEvent(tick=0, channel=0, data=[56, 33]),
   midi.NoteOnEvent(tick=240, channel=0, data=[56, 0]),
   midi.NoteOnEvent(tick=0, channel=0, data=[58, 27]),
   midi.NoteOnEvent(tick=240, channel=0, data=[58, 0]),
   midi.NoteOnEvent(tick=0, channel=0, data=[56, 27]),
   midi.NoteOnEvent(tick=240, channel=0, data=[56, 0]),
   midi.NoteOnEvent(tick=0, channel=0, data=[58, 24]),
   midi.NoteOnEvent(tick=240, channel=0, data=[58, 0]),
   midi.NoteOnEvent(tick=0, channel=0, data=[56, 27]),
   midi.NoteOnEvent(tick=240, channel=0, data=[56, 0]),
   midi.NoteOnEvent(tick=0, channel=0, data=[58, 23]),
   midi.NoteOnEvent(tick=240, channel=0, data=[58, 0]),
   midi.NoteOnEvent(tick=0, channel=0, data=[50, 0]),
   midi.NoteOnEvent(tick=0, channel=0, data=[51, 21]),
   midi.NoteOnEvent(tick=0, channel=0, data=[55, 35]),
   midi.NoteOnEvent(tick=240, channel=0, data=[55, 0]),
   midi.NoteOnEvent(tick=0, channel=0, data=[58, 24]),
   midi.NoteOnEvent(tick=240, channel=0, data=[58, 0]),
   midi.NoteOnEvent(tick=0, channel=0, data=[55, 28]),
   midi.NoteOnEvent(tick=240, channel=0, data=[55, 0]),
   midi.NoteOnEvent(tick=0, channel=0, data=[58, 23]),
   midi.NoteOnEvent(tick=240, channel=0, data=[58, 0]),
   midi.NoteOnEvent(tick=0, channel=0, data=[55, 27]),
   midi.NoteOnEvent(tick=240, channel=0, data=[55, 0]),
   midi.NoteOnEvent(tick=0, channel=0, data=[58, 23]),
   midi.NoteOnEvent(tick=240, channel=0, data=[58, 0]),
   midi.NoteOnEvent(tick=0, channel=0, data=[51, 0]),
   midi.NoteOnEvent(tick=0, channel=0, data=[50, 21]),
   midi.NoteOnEvent(tick=0, channel=0, data=[53, 38]),
   midi.NoteOnEvent(tick=240, channel=0, data=[53, 0]),
   midi.NoteOnEvent(tick=0, channel=0, data=[56, 24]),
   midi.NoteOnEvent(tick=240, channel=0, data=[56, 0]),
   midi.NoteOnEvent(tick=0, channel=0, data=[53, 32]),
   midi.NoteOnEvent(tick=240, channel=0, data=[53, 0]),
   midi.NoteOnEvent(tick=0, channel=0, data=[56, 28]),
   midi.NoteOnEvent(tick=240, channel=0, data=[56, 0]),
   midi.NoteOnEvent(tick=0, channel=0, data=[53, 32]),
   midi.NoteOnEvent(tick=240, channel=0, data=[53, 0]),
   midi.NoteOnEvent(tick=0, channel=0, data=[56, 27]),
   midi.NoteOnEvent(tick=240, channel=0, data=[56, 0]),
   midi.NoteOnEvent(tick=0, channel=0, data=[50, 0]),
   midi.NoteOnEvent(tick=0, channel=0, data=[51, 23]),
   midi.NoteOnEvent(tick=0, channel=0, data=[55, 37]),
   midi.NoteOnEvent(tick=240, channel=0, data=[55, 0]),
   midi.NoteOnEvent(tick=0, channel=0, data=[60, 32]),
   midi.NoteOnEvent(tick=240, channel=0, data=[60, 0]),
   midi.NoteOnEvent(tick=0, channel=0, data=[55, 34]),
   midi.NoteOnEvent(tick=240, channel=0, data=[55, 0]),
   midi.NoteOnEvent(tick=0, channel=0, data=[60, 29]),
   midi.NoteOnEvent(tick=240, channel=0, data=[60, 0]),
   midi.NoteOnEvent(tick=0, channel=0, data=[55, 30]),
   midi.NoteOnEvent(tick=240, channel=0, data=[55, 0]),
   midi.NoteOnEvent(tick=0, channel=0, data=[60, 28]),
   midi.NoteOnEvent(tick=240, channel=0, data=[60, 0]),
   midi.NoteOnEvent(tick=0, channel=0, data=[51, 0]),
   midi.NoteOnEvent(tick=0, channel=0, data=[51, 23]),
   midi.NoteOnEvent(tick=0, channel=0, data=[53, 37]),
   midi.NoteOnEvent(tick=240, channel=0, data=[53, 0]),
   midi.NoteOnEvent(tick=0, channel=0, data=[60, 30]),
   midi.NoteOnEvent(tick=240, channel=0, data=[60, 0]),
   midi.NoteOnEvent(tick=0, channel=0, data=[53, 30]),
   midi.NoteOnEvent(tick=240, channel=0, data=[53, 0]),
   midi.NoteOnEvent(tick=0, channel=0, data=[60, 27]),
   midi.NoteOnEvent(tick=240, channel=0, data=[53, 30]),
   midi.NoteOnEvent(tick=12, channel=0, data=[60, 0]),
   midi.NoteOnEvent(tick=228, channel=0, data=[53, 0]),
   midi.NoteOnEvent(tick=0, channel=0, data=[60, 26]),
   midi.NoteOnEvent(tick=240, channel=0, data=[60, 0]),
   midi.NoteOnEvent(tick=0, channel=0, data=[51, 0]),
   midi.NoteOnEvent(tick=0, channel=0, data=[50, 27]),
   midi.NoteOnEvent(tick=0, channel=0, data=[53, 44]),
   midi.NoteOnEvent(tick=240, channel=0, data=[53, 0]),
   midi.NoteOnEvent(tick=0, channel=0, data=[58, 30]),
   midi.NoteOnEvent(tick=240, channel=0, data=[58, 0]),
   midi.NoteOnEvent(tick=0, channel=0, data=[53, 36]),
   midi.NoteOnEvent(tick=240, channel=0, data=[53, 0]),
   midi.NoteOnEvent(tick=0, channel=0, data=[58, 30]),
   midi.NoteOnEvent(tick=240, channel=0, data=[58, 0]),
   midi.NoteOnEvent(tick=0, channel=0, data=[53, 36]),
   midi.NoteOnEvent(tick=240, channel=0, data=[53, 0]),
   midi.NoteOnEvent(tick=0, channel=0, data=[58, 33]),
   midi.NoteOnEvent(tick=240, channel=0, data=[58, 0]),
   midi.NoteOnEvent(tick=0, channel=0, data=[50, 0]),
   midi.NoteOnEvent(tick=0, channel=0, data=[48, 27]),
   midi.NoteOnEvent(tick=0, channel=0, data=[55, 44]),
   midi.NoteOnEvent(tick=240, channel=0, data=[55, 0]),
   midi.NoteOnEvent(tick=0, channel=0, data=[58, 36]),
   midi.NoteOnEvent(tick=240, channel=0, data=[58, 0]),
   midi.NoteOnEvent(tick=0, channel=0, data=[55, 36]),
   midi.NoteOnEvent(tick=240, channel=0, data=[55, 0]),
   midi.NoteOnEvent(tick=0, channel=0, data=[58, 31]),
   midi.NoteOnEvent(tick=240, channel=0, data=[55, 36]),
   midi.NoteOnEvent(tick=12, channel=0, data=[58, 0]),
   midi.NoteOnEvent(tick=228, channel=0, data=[55, 0]),
   midi.NoteOnEvent(tick=0, channel=0, data=[58, 30]),
   midi.NoteOnEvent(tick=240, channel=0, data=[58, 0]),
   midi.NoteOnEvent(tick=0, channel=0, data=[48, 0]),
   midi.NoteOnEvent(tick=0, channel=0, data=[50, 27]),
   midi.NoteOnEvent(tick=0, channel=0, data=[53, 44]),
   midi.NoteOnEvent(tick=240, channel=0, data=[53, 0]),
   midi.NoteOnEvent(tick=0, channel=0, data=[57, 28]),
   midi.NoteOnEvent(tick=240, channel=0, data=[57, 0]),
   midi.NoteOnEvent(tick=0, channel=0, data=[53, 36]),
   midi.NoteOnEvent(tick=240, channel=0, data=[53, 0]),
   midi.NoteOnEvent(tick=0, channel=0, data=[57, 28]),
   midi.NoteOnEvent(tick=240, channel=0, data=[57, 0]),
   midi.NoteOnEvent(tick=0, channel=0, data=[53, 35]),
   midi.NoteOnEvent(tick=240, channel=0, data=[53, 0]),
   midi.NoteOnEvent(tick=0, channel=0, data=[57, 27]),
   midi.NoteOnEvent(tick=240, channel=0, data=[57, 0]),
   midi.NoteOnEvent(tick=0, channel=0, data=[50, 0]),
   midi.NoteOnEvent(tick=0, channel=0, data=[55, 37]),
   midi.NoteOnEvent(tick=0, channel=0, data=[62, 37]),
   midi.NoteOnEvent(tick=240, channel=0, data=[62, 0]),
   midi.NoteOnEvent(tick=0, channel=0, data=[65, 36]),
   midi.NoteOnEvent(tick=240, channel=0, data=[65, 0]),
   midi.NoteOnEvent(tick=0, channel=0, data=[62, 36]),
   midi.NoteOnEvent(tick=240, channel=0, data=[62, 0]),
   midi.NoteOnEvent(tick=0, channel=0, data=[65, 30]),
   midi.NoteOnEvent(tick=240, channel=0, data=[62, 36]),
   midi.NoteOnEvent(tick=12, channel=0, data=[65, 0]),
   midi.NoteOnEvent(tick=228, channel=0, data=[62, 0]),
   midi.NoteOnEvent(tick=0, channel=0, data=[65, 30]),
   midi.NoteOnEvent(tick=240, channel=0, data=[65, 0]),
   midi.NoteOnEvent(tick=0, channel=0, data=[55, 0]),
   midi.NoteOnEvent(tick=0, channel=0, data=[60, 44]),
   midi.NoteOnEvent(tick=0, channel=0, data=[64, 44]),
   midi.NoteOnEvent(tick=480, channel=0, data=[64, 0]),
   midi.NoteOnEvent(tick=0, channel=0, data=[60, 0]),
   midi.NoteOnEvent(tick=480, channel=0, data=[70, 50]),
   midi.NoteOnEvent(tick=240, channel=0, data=[70, 0]),
   midi.NoteOnEvent(tick=240, channel=0, data=[69, 55]),
   midi.NoteOnEvent(tick=240, channel=0, data=[69, 0]),
   midi.NoteOnEvent(tick=240, channel=0, data=[64, 59]),
   midi.NoteOnEvent(tick=240, channel=0, data=[64, 0]),
   midi.NoteOnEvent(tick=240, channel=0, data=[65, 57]),
   midi.NoteOnEvent(tick=240, channel=0, data=[65, 0]),
   midi.NoteOnEvent(tick=240, channel=0, data=[60, 62]),
   midi.NoteOnEvent(tick=480, channel=0, data=[60, 0]),
   midi.NoteOnEvent(tick=480, channel=0, data=[70, 50]),
   midi.NoteOnEvent(tick=240, channel=0, data=[70, 0]),
   midi.NoteOnEvent(tick=240, channel=0, data=[69, 58]),
   midi.NoteOnEvent(tick=240, channel=0, data=[69, 0]),
   midi.NoteOnEvent(tick=240, channel=0, data=[64, 62]),
   midi.NoteOnEvent(tick=240, channel=0, data=[64, 0]),
   midi.NoteOnEvent(tick=240, channel=0, data=[65, 56]),
   midi.NoteOnEvent(tick=240, channel=0, data=[65, 0]),
   midi.NoteOnEvent(tick=240, channel=0, data=[60, 61]),
   midi.NoteOnEvent(tick=480, channel=0, data=[60, 0]),
   midi.NoteOnEvent(tick=600, channel=0, data=[60, 47]),
   midi.NoteOnEvent(tick=120, channel=0, data=[60, 0]),
   midi.NoteOnEvent(tick=0, channel=0, data=[55, 54]),
   midi.NoteOnEvent(tick=120, channel=0, data=[55, 0]),
   midi.NoteOnEvent(tick=0, channel=0, data=[52, 47]),
   midi.NoteOnEvent(tick=120, channel=0, data=[52, 0]),
   midi.NoteOnEvent(tick=0, channel=0, data=[48, 69]),
   midi.NoteOnEvent(tick=120, channel=0, data=[48, 0]),
   midi.NoteOnEvent(tick=360, channel=0, data=[36, 59]),
   midi.NoteOnEvent(tick=480, channel=0, data=[36, 0]),
   midi.NoteOnEvent(tick=480, channel=0, data=[53, 34]),
   midi.NoteOnEvent(tick=960, channel=0, data=[48, 30]),
   midi.NoteOnEvent(tick=20, channel=0, data=[53, 0]),
   midi.NoteOnEvent(tick=460, channel=0, data=[48, 0]),
   midi.NoteOnEvent(tick=0, channel=0, data=[45, 34]),
   midi.NoteOnEvent(tick=960, channel=0, data=[48, 32]),
   midi.NoteOnEvent(tick=20, channel=0, data=[45, 0]),
   midi.NoteOnEvent(tick=460, channel=0, data=[48, 0]),
   midi.NoteOnEvent(tick=0, channel=0, data=[53, 34]),
   midi.NoteOnEvent(tick=960, channel=0, data=[57, 36]),
   midi.NoteOnEvent(tick=20, channel=0, data=[53, 0]),
   midi.NoteOnEvent(tick=460, channel=0, data=[57, 0]),
   midi.NoteOnEvent(tick=0, channel=0, data=[60, 38]),
   midi.NoteOnEvent(tick=480, channel=0, data=[60, 0]),
   midi.NoteOnEvent(tick=960, channel=0, data=[58, 34]),
   midi.NoteOnEvent(tick=960, channel=0, data=[55, 30]),
   midi.NoteOnEvent(tick=20, channel=0, data=[58, 0]),
   midi.NoteOnEvent(tick=460, channel=0, data=[55, 0]),
   midi.NoteOnEvent(tick=0, channel=0, data=[52, 34]),
   midi.NoteOnEvent(tick=960, channel=0, data=[55, 32]),
   midi.NoteOnEvent(tick=20, channel=0, data=[52, 0]),
   midi.NoteOnEvent(tick=460, channel=0, data=[55, 0]),
   midi.NoteOnEvent(tick=0, channel=0, data=[58, 34]),
   midi.NoteOnEvent(tick=960, channel=0, data=[64, 36]),
   midi.NoteOnEvent(tick=20, channel=0, data=[58, 0]),
   midi.NoteOnEvent(tick=460, channel=0, data=[64, 0]),
   midi.NoteOnEvent(tick=0, channel=0, data=[67, 38]),
   midi.NoteOnEvent(tick=480, channel=0, data=[67, 0]),
   midi.NoteOnEvent(tick=960, channel=0, data=[69, 35]),
   midi.NoteOnEvent(tick=240, channel=0, data=[69, 0]),
   midi.NoteOnEvent(tick=0, channel=0, data=[72, 28]),
   midi.NoteOnEvent(tick=240, channel=0, data=[72, 0]),
   midi.NoteOnEvent(tick=0, channel=0, data=[69, 35]),
   midi.NoteOnEvent(tick=240, channel=0, data=[69, 0]),
   midi.NoteOnEvent(tick=0, channel=0, data=[72, 25]),
   midi.NoteOnEvent(tick=240, channel=0, data=[72, 0]),
   midi.NoteOnEvent(tick=0, channel=0, data=[69, 32]),
   midi.NoteOnEvent(tick=240, channel=0, data=[69, 0]),
   midi.NoteOnEvent(tick=0, channel=0, data=[72, 24]),
   midi.NoteOnEvent(tick=240, channel=0, data=[72, 0]),
   midi.NoteOnEvent(tick=0, channel=0, data=[70, 35]),
   midi.NoteOnEvent(tick=240, channel=0, data=[70, 0]),
   midi.NoteOnEvent(tick=0, channel=0, data=[72, 31]),
   midi.NoteOnEvent(tick=240, channel=0, data=[72, 0]),
   midi.NoteOnEvent(tick=0, channel=0, data=[70, 35]),
   midi.NoteOnEvent(tick=240, channel=0, data=[70, 0]),
   midi.NoteOnEvent(tick=0, channel=0, data=[72, 26]),
   midi.NoteOnEvent(tick=240, channel=0, data=[72, 0]),
   midi.NoteOnEvent(tick=0, channel=0, data=[70, 33]),
   midi.NoteOnEvent(tick=240, channel=0, data=[70, 0]),
   midi.NoteOnEvent(tick=0, channel=0, data=[72, 29]),
   midi.NoteOnEvent(tick=240, channel=0, data=[72, 0]),
   midi.NoteOnEvent(tick=0, channel=0, data=[69, 35]),
   midi.NoteOnEvent(tick=240, channel=0, data=[69, 0]),
   midi.NoteOnEvent(tick=0, channel=0, data=[72, 30]),
   midi.NoteOnEvent(tick=240, channel=0, data=[72, 0]),
   midi.NoteOnEvent(tick=0, channel=0, data=[69, 32]),
   midi.NoteOnEvent(tick=240, channel=0, data=[69, 0]),
   midi.NoteOnEvent(tick=0, channel=0, data=[72, 24]),
   midi.NoteOnEvent(tick=240, channel=0, data=[72, 0]),
   midi.NoteOnEvent(tick=0, channel=0, data=[69, 32]),
   midi.NoteOnEvent(tick=240, channel=0, data=[69, 0]),
   midi.NoteOnEvent(tick=0, channel=0, data=[72, 25]),
   midi.NoteOnEvent(tick=240, channel=0, data=[72, 0]),
   midi.NoteOnEvent(tick=0, channel=0, data=[70, 35]),
   midi.NoteOnEvent(tick=240, channel=0, data=[70, 0]),
   midi.NoteOnEvent(tick=0, channel=0, data=[72, 31]),
   midi.NoteOnEvent(tick=240, channel=0, data=[72, 0]),
   midi.NoteOnEvent(tick=0, channel=0, data=[70, 35]),
   midi.NoteOnEvent(tick=240, channel=0, data=[70, 0]),
   midi.NoteOnEvent(tick=0, channel=0, data=[72, 26]),
   midi.NoteOnEvent(tick=240, channel=0, data=[72, 0]),
   midi.NoteOnEvent(tick=0, channel=0, data=[70, 33]),
   midi.NoteOnEvent(tick=240, channel=0, data=[70, 0]),
   midi.NoteOnEvent(tick=0, channel=0, data=[72, 29]),
   midi.NoteOnEvent(tick=240, channel=0, data=[72, 0]),
   midi.NoteOnEvent(tick=0, channel=0, data=[69, 35]),
   midi.NoteOnEvent(tick=240, channel=0, data=[69, 0]),
   midi.NoteOnEvent(tick=0, channel=0, data=[72, 30]),
   midi.NoteOnEvent(tick=240, channel=0, data=[72, 0]),
   midi.NoteOnEvent(tick=0, channel=0, data=[69, 32]),
   midi.NoteOnEvent(tick=240, channel=0, data=[69, 0]),
   midi.NoteOnEvent(tick=0, channel=0, data=[72, 28]),
   midi.NoteOnEvent(tick=240, channel=0, data=[72, 0]),
   midi.NoteOnEvent(tick=0, channel=0, data=[69, 38]),
   midi.NoteOnEvent(tick=240, channel=0, data=[69, 0]),
   midi.NoteOnEvent(tick=0, channel=0, data=[72, 31]),
   midi.NoteOnEvent(tick=240, channel=0, data=[72, 0]),
   midi.NoteOnEvent(tick=0, channel=0, data=[62, 40]),
   midi.NoteOnEvent(tick=0, channel=0, data=[69, 40]),
   midi.NoteOnEvent(tick=240, channel=0, data=[69, 0]),
   midi.NoteOnEvent(tick=0, channel=0, data=[72, 34]),
   midi.NoteOnEvent(tick=240, channel=0, data=[72, 0]),
   midi.NoteOnEvent(tick=0, channel=0, data=[69, 38]),
   midi.NoteOnEvent(tick=240, channel=0, data=[69, 0]),
   midi.NoteOnEvent(tick=0, channel=0, data=[72, 32]),
   midi.NoteOnEvent(tick=240, channel=0, data=[72, 0]),
   midi.NoteOnEvent(tick=0, channel=0, data=[69, 39]),
   midi.NoteOnEvent(tick=240, channel=0, data=[69, 0]),
   midi.NoteOnEvent(tick=0, channel=0, data=[72, 32]),
   midi.NoteOnEvent(tick=240, channel=0, data=[72, 0]),
   midi.NoteOnEvent(tick=0, channel=0, data=[62, 0]),
   midi.NoteOnEvent(tick=0, channel=0, data=[67, 39]),
   midi.NoteOnEvent(tick=0, channel=0, data=[70, 39]),
   midi.NoteOnEvent(tick=480, channel=0, data=[70, 0]),
   midi.NoteOnEvent(tick=0, channel=0, data=[67, 0]),
   midi.NoteOnEvent(tick=0, channel=0, data=[72, 35]),
   midi.NoteOnEvent(tick=0, channel=0, data=[64, 35]),
   midi.NoteOnEvent(tick=480, channel=0, data=[64, 0]),
   midi.NoteOnEvent(tick=0, channel=0, data=[65, 35]),
   midi.NoteOnEvent(tick=480, channel=0, data=[65, 0]),
   midi.NoteOnEvent(tick=0, channel=0, data=[72, 0]),
   midi.NoteOnEvent(tick=0, channel=0, data=[58, 43]),
   midi.NoteOnEvent(tick=0, channel=0, data=[70, 43]),
   midi.NoteOnEvent(tick=480, channel=0, data=[70, 0]),
   midi.NoteOnEvent(tick=0, channel=0, data=[58, 0]),
   midi.NoteOnEvent(tick=0, channel=0, data=[60, 40]),
   midi.NoteOnEvent(tick=0, channel=0, data=[69, 40]),
   midi.NoteOnEvent(tick=480, channel=0, data=[69, 0]),
   midi.NoteOnEvent(tick=0, channel=0, data=[67, 40]),
   midi.NoteOnEvent(tick=480, channel=0, data=[67, 0]),
   midi.NoteOnEvent(tick=0, channel=0, data=[60, 0]),
   midi.NoteOnEvent(tick=0, channel=0, data=[65, 40]),
   midi.NoteOnEvent(tick=480, channel=0, data=[65, 0]),
   midi.NoteOnEvent(tick=240, channel=0, data=[57, 49]),
   midi.NoteOnEvent(tick=240, channel=0, data=[57, 0]),
   midi.NoteOnEvent(tick=0, channel=0, data=[55, 55]),
   midi.NoteOnEvent(tick=240, channel=0, data=[55, 0]),
   midi.NoteOnEvent(tick=0, channel=0, data=[53, 48]),
   midi.NoteOnEvent(tick=240, channel=0, data=[53, 0]),
   midi.NoteOnEvent(tick=0, channel=0, data=[52, 48]),
   midi.NoteOnEvent(tick=480, channel=0, data=[52, 0]),
   midi.NoteOnEvent(tick=240, channel=0, data=[62, 45]),
   midi.NoteOnEvent(tick=240, channel=0, data=[62, 0]),
   midi.NoteOnEvent(tick=0, channel=0, data=[60, 50]),
   midi.NoteOnEvent(tick=240, channel=0, data=[60, 0]),
   midi.NoteOnEvent(tick=0, channel=0, data=[52, 45]),
   midi.NoteOnEvent(tick=240, channel=0, data=[52, 0]),
   midi.NoteOnEvent(tick=0, channel=0, data=[53, 40]),
   midi.NoteOnEvent(tick=480, channel=0, data=[53, 0]),
   midi.NoteOnEvent(tick=240, channel=0, data=[57, 50]),
   midi.NoteOnEvent(tick=240, channel=0, data=[57, 0]),
   midi.NoteOnEvent(tick=0, channel=0, data=[55, 55]),
   midi.NoteOnEvent(tick=240, channel=0, data=[55, 0]),
   midi.NoteOnEvent(tick=0, channel=0, data=[53, 47]),
   midi.NoteOnEvent(tick=240, channel=0, data=[53, 0]),
   midi.NoteOnEvent(tick=0, channel=0, data=[52, 47]),
   midi.NoteOnEvent(tick=480, channel=0, data=[52, 0]),
   midi.NoteOnEvent(tick=240, channel=0, data=[62, 45]),
   midi.NoteOnEvent(tick=240, channel=0, data=[62, 0]),
   midi.NoteOnEvent(tick=0, channel=0, data=[60, 50]),
   midi.NoteOnEvent(tick=240, channel=0, data=[60, 0]),
   midi.NoteOnEvent(tick=0, channel=0, data=[52, 45]),
   midi.NoteOnEvent(tick=240, channel=0, data=[52, 0]),
   midi.NoteOnEvent(tick=0, channel=0, data=[53, 40]),
   midi.NoteOnEvent(tick=480, channel=0, data=[53, 0]),
   midi.NoteOnEvent(tick=240, channel=0, data=[60, 47]),
   midi.NoteOnEvent(tick=240, channel=0, data=[60, 0]),
   midi.NoteOnEvent(tick=0, channel=0, data=[57, 52]),
   midi.NoteOnEvent(tick=240, channel=0, data=[57, 0]),
   midi.NoteOnEvent(tick=0, channel=0, data=[55, 47]),
   midi.NoteOnEvent(tick=240, channel=0, data=[55, 0]),
   midi.NoteOnEvent(tick=0, channel=0, data=[54, 44]),
   midi.NoteOnEvent(tick=480, channel=0, data=[54, 0]),
   midi.NoteOnEvent(tick=240, channel=0, data=[63, 45]),
   midi.NoteOnEvent(tick=240, channel=0, data=[63, 0]),
   midi.NoteOnEvent(tick=0, channel=0, data=[62, 50]),
   midi.NoteOnEvent(tick=240, channel=0, data=[62, 0]),
   midi.NoteOnEvent(tick=0, channel=0, data=[54, 45]),
   midi.NoteOnEvent(tick=240, channel=0, data=[54, 0]),
   midi.NoteOnEvent(tick=0, channel=0, data=[55, 42]),
   midi.NoteOnEvent(tick=120, channel=0, data=[55, 0]),
   midi.NoteOnEvent(tick=0, channel=0, data=[62, 33]),
   midi.NoteOnEvent(tick=120, channel=0, data=[62, 0]),
   midi.NoteOnEvent(tick=0, channel=0, data=[59, 36]),
   midi.NoteOnEvent(tick=120, channel=0, data=[59, 0]),
   midi.NoteOnEvent(tick=0, channel=0, data=[62, 33]),
   midi.NoteOnEvent(tick=120, channel=0, data=[62, 0]),
   midi.NoteOnEvent(tick=0, channel=0, data=[52, 38]),
   midi.NoteOnEvent(tick=120, channel=0, data=[52, 0]),
   midi.NoteOnEvent(tick=0, channel=0, data=[61, 33]),
   midi.NoteOnEvent(tick=120, channel=0, data=[61, 0]),
   midi.NoteOnEvent(tick=0, channel=0, data=[55, 36]),
   midi.NoteOnEvent(tick=120, channel=0, data=[55, 0]),
   midi.NoteOnEvent(tick=0, channel=0, data=[61, 33]),
   midi.NoteOnEvent(tick=120, channel=0, data=[61, 0]),
   midi.NoteOnEvent(tick=0, channel=0, data=[53, 39]),
   midi.NoteOnEvent(tick=120, channel=0, data=[53, 0]),
   midi.NoteOnEvent(tick=0, channel=0, data=[60, 33]),
   midi.NoteOnEvent(tick=120, channel=0, data=[60, 0]),
   midi.NoteOnEvent(tick=0, channel=0, data=[57, 37]),
   midi.NoteOnEvent(tick=120, channel=0, data=[57, 0]),
   midi.NoteOnEvent(tick=0, channel=0, data=[60, 37]),
   midi.NoteOnEvent(tick=120, channel=0, data=[60, 0]),
   midi.NoteOnEvent(tick=0, channel=0, data=[46, 31]),
   midi.NoteOnEvent(tick=0, channel=0, data=[58, 37]),
   midi.NoteOnEvent(tick=480, channel=0, data=[58, 0]),
   midi.NoteOnEvent(tick=0, channel=0, data=[46, 0]),
   midi.NoteOnEvent(tick=0, channel=0, data=[48, 31]),
   midi.NoteOnEvent(tick=0, channel=0, data=[57, 37]),
   midi.NoteOnEvent(tick=480, channel=0, data=[57, 0]),
   midi.NoteOnEvent(tick=0, channel=0, data=[48, 0]),
   midi.NoteOnEvent(tick=0, channel=0, data=[46, 31]),
   midi.NoteOnEvent(tick=0, channel=0, data=[55, 37]),
   midi.NoteOnEvent(tick=480, channel=0, data=[55, 0]),
   midi.NoteOnEvent(tick=0, channel=0, data=[46, 0]),
   midi.NoteOnEvent(tick=0, channel=0, data=[45, 34]),
   midi.NoteOnEvent(tick=0, channel=0, data=[53, 40]),
   midi.NoteOnEvent(tick=480, channel=0, data=[53, 0]),
   midi.NoteOnEvent(tick=0, channel=0, data=[45, 0]),
   midi.NoteOnEvent(tick=480, channel=0, data=[60, 37]),
   midi.NoteOnEvent(tick=0, channel=0, data=[57, 31]),
   midi.NoteOnEvent(tick=480, channel=0, data=[57, 0]),
   midi.NoteOnEvent(tick=0, channel=0, data=[60, 0]),
   midi.NoteOnEvent(tick=0, channel=0, data=[58, 37]),
   midi.NoteOnEvent(tick=0, channel=0, data=[62, 44]),
   midi.NoteOnEvent(tick=480, channel=0, data=[62, 0]),
   midi.NoteOnEvent(tick=0, channel=0, data=[58, 0]),
   midi.NoteOnEvent(tick=480, channel=0, data=[50, 31]),
   midi.NoteOnEvent(tick=0, channel=0, data=[53, 31]),
   midi.NoteOnEvent(tick=0, channel=0, data=[55, 37]),
   midi.NoteOnEvent(tick=480, channel=0, data=[55, 0]),
   midi.NoteOnEvent(tick=0, channel=0, data=[53, 0]),
   midi.NoteOnEvent(tick=0, channel=0, data=[50, 0]),
   midi.NoteOnEvent(tick=0, channel=0, data=[48, 45]),
   midi.NoteOnEvent(tick=120, channel=0, data=[48, 0]),
   midi.NoteOnEvent(tick=0, channel=0, data=[57, 37]),
   midi.NoteOnEvent(tick=120, channel=0, data=[57, 0]),
   midi.NoteOnEvent(tick=0, channel=0, data=[53, 40]),
   midi.NoteOnEvent(tick=120, channel=0, data=[53, 0]),
   midi.NoteOnEvent(tick=0, channel=0, data=[57, 37]),
   midi.NoteOnEvent(tick=120, channel=0, data=[57, 0]),
   midi.NoteOnEvent(tick=0, channel=0, data=[48, 45]),
   midi.NoteOnEvent(tick=120, channel=0, data=[48, 0]),
   midi.NoteOnEvent(tick=0, channel=0, data=[57, 37]),
   midi.NoteOnEvent(tick=120, channel=0, data=[57, 0]),
   midi.NoteOnEvent(tick=0, channel=0, data=[53, 40]),
   midi.NoteOnEvent(tick=120, channel=0, data=[53, 0]),
   midi.NoteOnEvent(tick=0, channel=0, data=[57, 37]),
   midi.NoteOnEvent(tick=120, channel=0, data=[57, 0]),
   midi.NoteOnEvent(tick=0, channel=0, data=[48, 48]),
   midi.NoteOnEvent(tick=120, channel=0, data=[48, 0]),
   midi.NoteOnEvent(tick=0, channel=0, data=[57, 37]),
   midi.NoteOnEvent(tick=120, channel=0, data=[57, 0]),
   midi.NoteOnEvent(tick=0, channel=0, data=[53, 41]),
   midi.NoteOnEvent(tick=120, channel=0, data=[53, 0]),
   midi.NoteOnEvent(tick=0, channel=0, data=[57, 37]),
   midi.NoteOnEvent(tick=120, channel=0, data=[57, 0]),
   midi.NoteOnEvent(tick=0, channel=0, data=[48, 45]),
   midi.NoteOnEvent(tick=120, channel=0, data=[48, 0]),
   midi.NoteOnEvent(tick=0, channel=0, data=[58, 37]),
   midi.NoteOnEvent(tick=120, channel=0, data=[58, 0]),
   midi.NoteOnEvent(tick=0, channel=0, data=[52, 40]),
   midi.NoteOnEvent(tick=120, channel=0, data=[52, 0]),
   midi.NoteOnEvent(tick=0, channel=0, data=[58, 37]),
   midi.NoteOnEvent(tick=120, channel=0, data=[58, 0]),
   midi.NoteOnEvent(tick=0, channel=0, data=[48, 45]),
   midi.NoteOnEvent(tick=120, channel=0, data=[48, 0]),
   midi.NoteOnEvent(tick=0, channel=0, data=[58, 37]),
   midi.NoteOnEvent(tick=120, channel=0, data=[58, 0]),
   midi.NoteOnEvent(tick=0, channel=0, data=[52, 40]),
   midi.NoteOnEvent(tick=120, channel=0, data=[52, 0]),
   midi.NoteOnEvent(tick=0, channel=0, data=[58, 37]),
   midi.NoteOnEvent(tick=120, channel=0, data=[58, 0]),
   midi.NoteOnEvent(tick=0, channel=0, data=[48, 48]),
   midi.NoteOnEvent(tick=120, channel=0, data=[48, 0]),
   midi.NoteOnEvent(tick=0, channel=0, data=[58, 37]),
   midi.NoteOnEvent(tick=120, channel=0, data=[58, 0]),
   midi.NoteOnEvent(tick=0, channel=0, data=[52, 41]),
   midi.NoteOnEvent(tick=120, channel=0, data=[52, 0]),
   midi.NoteOnEvent(tick=0, channel=0, data=[58, 37]),
   midi.NoteOnEvent(tick=120, channel=0, data=[58, 0]),
   midi.NoteOnEvent(tick=0, channel=0, data=[53, 41]),
   midi.NoteOnEvent(tick=240, channel=0, data=[57, 28]),
   midi.NoteOnEvent(tick=12, channel=0, data=[53, 0]),
   midi.NoteOnEvent(tick=228, channel=0, data=[60, 35]),
   midi.NoteOnEvent(tick=12, channel=0, data=[57, 0]),
   midi.NoteOnEvent(tick=228, channel=0, data=[65, 34]),
   midi.NoteOnEvent(tick=12, channel=0, data=[60, 0]),
   midi.NoteOnEvent(tick=228, channel=0, data=[64, 32]),
   midi.NoteOnEvent(tick=12, channel=0, data=[65, 0]),
   midi.NoteOnEvent(tick=228, channel=0, data=[63, 30]),
   midi.NoteOnEvent(tick=12, channel=0, data=[64, 0]),
   midi.NoteOnEvent(tick=228, channel=0, data=[62, 28]),
   midi.NoteOnEvent(tick=12, channel=0, data=[63, 0]),
   midi.NoteOnEvent(tick=228, channel=0, data=[62, 0]),
   midi.NoteOnEvent(tick=0, channel=0, data=[65, 21]),
   midi.NoteOnEvent(tick=240, channel=0, data=[65, 0]),
   midi.NoteOnEvent(tick=0, channel=0, data=[60, 31]),
   midi.NoteOnEvent(tick=240, channel=0, data=[60, 0]),
   midi.NoteOnEvent(tick=0, channel=0, data=[65, 24]),
   midi.NoteOnEvent(tick=240, channel=0, data=[65, 0]),
   midi.NoteOnEvent(tick=0, channel=0, data=[58, 31]),
   midi.NoteOnEvent(tick=240, channel=0, data=[58, 0]),
   midi.NoteOnEvent(tick=0, channel=0, data=[65, 25]),
   midi.NoteOnEvent(tick=240, channel=0, data=[65, 0]),
   midi.NoteOnEvent(tick=0, channel=0, data=[57, 31]),
   midi.NoteOnEvent(tick=240, channel=0, data=[57, 0]),
   midi.NoteOnEvent(tick=0, channel=0, data=[65, 28]),
   midi.NoteOnEvent(tick=240, channel=0, data=[65, 0]),
   midi.NoteOnEvent(tick=0, channel=0, data=[64, 31]),
   midi.NoteOnEvent(tick=240, channel=0, data=[64, 0]),
   midi.NoteOnEvent(tick=0, channel=0, data=[65, 28]),
   midi.NoteOnEvent(tick=240, channel=0, data=[65, 0]),
   midi.NoteOnEvent(tick=0, channel=0, data=[58, 31]),
   midi.NoteOnEvent(tick=240, channel=0, data=[58, 0]),
   midi.NoteOnEvent(tick=0, channel=0, data=[67, 27]),
   midi.NoteOnEvent(tick=240, channel=0, data=[67, 0]),
   midi.NoteOnEvent(tick=0, channel=0, data=[60, 31]),
   midi.NoteOnEvent(tick=240, channel=0, data=[60, 0]),
   midi.NoteOnEvent(tick=0, channel=0, data=[69, 27]),
   midi.NoteOnEvent(tick=240, channel=0, data=[69, 0]),
   midi.NoteOnEvent(tick=0, channel=0, data=[65, 31]),
   midi.NoteOnEvent(tick=240, channel=0, data=[65, 0]),
   midi.NoteOnEvent(tick=0, channel=0, data=[69, 29]),
   midi.NoteOnEvent(tick=240, channel=0, data=[69, 0]),
   midi.NoteOnEvent(tick=0, channel=0, data=[60, 31]),
   midi.NoteOnEvent(tick=240, channel=0, data=[60, 0]),
   midi.NoteOnEvent(tick=0, channel=0, data=[70, 27]),
   midi.NoteOnEvent(tick=240, channel=0, data=[70, 0]),
   midi.NoteOnEvent(tick=0, channel=0, data=[69, 31]),
   midi.NoteOnEvent(tick=240, channel=0, data=[69, 0]),
   midi.NoteOnEvent(tick=0, channel=0, data=[65, 24]),
   midi.NoteOnEvent(tick=240, channel=0, data=[65, 0]),
   midi.NoteOnEvent(tick=0, channel=0, data=[64, 30]),
   midi.NoteOnEvent(tick=240, channel=0, data=[64, 0]),
   midi.NoteOnEvent(tick=0, channel=0, data=[63, 26]),
   midi.NoteOnEvent(tick=240, channel=0, data=[63, 0]),
   midi.NoteOnEvent(tick=0, channel=0, data=[62, 29]),
   midi.NoteOnEvent(tick=240, channel=0, data=[62, 0]),
   midi.NoteOnEvent(tick=0, channel=0, data=[61, 31]),
   midi.NoteOnEvent(tick=240, channel=0, data=[61, 0]),
   midi.NoteOnEvent(tick=0, channel=0, data=[62, 28]),
   midi.NoteOnEvent(tick=240, channel=0, data=[62, 0]),
   midi.NoteOnEvent(tick=0, channel=0, data=[65, 27]),
   midi.NoteOnEvent(tick=240, channel=0, data=[65, 0]),
   midi.NoteOnEvent(tick=0, channel=0, data=[60, 38]),
   midi.NoteOnEvent(tick=240, channel=0, data=[60, 0]),
   midi.NoteOnEvent(tick=0, channel=0, data=[64, 32]),
   midi.NoteOnEvent(tick=240, channel=0, data=[64, 0]),
   midi.NoteOnEvent(tick=0, channel=0, data=[59, 40]),
   midi.NoteOnEvent(tick=240, channel=0, data=[59, 0]),
   midi.NoteOnEvent(tick=0, channel=0, data=[68, 34]),
   midi.NoteOnEvent(tick=240, channel=0, data=[68, 0]),
   midi.NoteOnEvent(tick=0, channel=0, data=[60, 41]),
   midi.NoteOnEvent(tick=240, channel=0, data=[60, 0]),
   midi.NoteOnEvent(tick=0, channel=0, data=[69, 35]),
   midi.NoteOnEvent(tick=240, channel=0, data=[69, 0]),
   midi.NoteOnEvent(tick=0, channel=0, data=[65, 38]),
   midi.NoteOnEvent(tick=240, channel=0, data=[65, 0]),
   midi.NoteOnEvent(tick=0, channel=0, data=[69, 33]),
   midi.NoteOnEvent(tick=240, channel=0, data=[69, 0]),
   midi.NoteOnEvent(tick=0, channel=0, data=[60, 40]),
   midi.NoteOnEvent(tick=240, channel=0, data=[60, 0]),
   midi.NoteOnEvent(tick=0, channel=0, data=[69, 35]),
   midi.NoteOnEvent(tick=240, channel=0, data=[69, 0]),
   midi.NoteOnEvent(tick=0, channel=0, data=[60, 41]),
   midi.NoteOnEvent(tick=240, channel=0, data=[60, 0]),
   midi.NoteOnEvent(tick=0, channel=0, data=[72, 33]),
   midi.NoteOnEvent(tick=240, channel=0, data=[72, 0]),
   midi.NoteOnEvent(tick=0, channel=0, data=[69, 43]),
   midi.NoteOnEvent(tick=240, channel=0, data=[69, 0]),
   midi.NoteOnEvent(tick=0, channel=0, data=[72, 33]),
   midi.NoteOnEvent(tick=240, channel=0, data=[72, 0]),
   midi.NoteOnEvent(tick=0, channel=0, data=[60, 45]),
   midi.NoteOnEvent(tick=240, channel=0, data=[60, 0]),
   midi.NoteOnEvent(tick=0, channel=0, data=[70, 38]),
   midi.NoteOnEvent(tick=240, channel=0, data=[70, 0]),
   midi.NoteOnEvent(tick=120, channel=0, data=[53, 54]),
   midi.NoteOnEvent(tick=120, channel=0, data=[53, 0]),
   midi.NoteOnEvent(tick=0, channel=0, data=[57, 56]),
   midi.NoteOnEvent(tick=120, channel=0, data=[57, 0]),
   midi.NoteOnEvent(tick=0, channel=0, data=[60, 59]),
   midi.NoteOnEvent(tick=120, channel=0, data=[60, 0]),
   midi.NoteOnEvent(tick=0, channel=0, data=[65, 61]),
   midi.NoteOnEvent(tick=240, channel=0, data=[65, 0]),
   midi.NoteOnEvent(tick=240, channel=0, data=[60, 54]),
   midi.NoteOnEvent(tick=0, channel=0, data=[64, 54]),
   midi.NoteOnEvent(tick=240, channel=0, data=[64, 0]),
   midi.NoteOnEvent(tick=0, channel=0, data=[60, 0]),
   midi.NoteOnEvent(tick=360, channel=0, data=[41, 54]),
   midi.NoteOnEvent(tick=120, channel=0, data=[41, 0]),
   midi.NoteOnEvent(tick=0, channel=0, data=[45, 56]),
   midi.NoteOnEvent(tick=120, channel=0, data=[45, 0]),
   midi.NoteOnEvent(tick=0, channel=0, data=[48, 59]),
   midi.NoteOnEvent(tick=120, channel=0, data=[48, 0]),
   midi.NoteOnEvent(tick=0, channel=0, data=[53, 61]),
   midi.NoteOnEvent(tick=240, channel=0, data=[53, 0]),
   midi.NoteOnEvent(tick=240, channel=0, data=[48, 54]),
   midi.NoteOnEvent(tick=0, channel=0, data=[52, 54]),
   midi.NoteOnEvent(tick=240, channel=0, data=[52, 0]),
   midi.NoteOnEvent(tick=0, channel=0, data=[48, 0]),
   midi.NoteOnEvent(tick=240, channel=0, data=[53, 59]),
   midi.NoteOnEvent(tick=120, channel=0, data=[53, 0]),
   midi.NoteOnEvent(tick=360, channel=0, data=[41, 59]),
   midi.NoteOnEvent(tick=480, channel=0, data=[41, 0]),
   midi.NoteOnEvent(tick=480, channel=0, data=[51, 59]),
   midi.NoteOnEvent(tick=480, channel=0, data=[51, 0]),
   midi.NoteOnEvent(tick=0, channel=0, data=[39, 59]),
   midi.NoteOnEvent(tick=480, channel=0, data=[39, 0]),
   midi.NoteOnEvent(tick=480, channel=0, data=[49, 20]),
   midi.NoteOnEvent(tick=0, channel=0, data=[53, 33]),
   midi.NoteOnEvent(tick=240, channel=0, data=[53, 0]),
   midi.NoteOnEvent(tick=0, channel=0, data=[56, 23]),
   midi.NoteOnEvent(tick=240, channel=0, data=[56, 0]),
   midi.NoteOnEvent(tick=0, channel=0, data=[53, 27]),
   midi.NoteOnEvent(tick=240, channel=0, data=[53, 0]),
   midi.NoteOnEvent(tick=0, channel=0, data=[56, 22]),
   midi.NoteOnEvent(tick=240, channel=0, data=[56, 0]),
   midi.NoteOnEvent(tick=0, channel=0, data=[53, 26]),
   midi.NoteOnEvent(tick=240, channel=0, data=[53, 0]),
   midi.NoteOnEvent(tick=0, channel=0, data=[56, 22]),
   midi.NoteOnEvent(tick=240, channel=0, data=[56, 0]),
   midi.NoteOnEvent(tick=0, channel=0, data=[49, 0]),
   midi.NoteOnEvent(tick=0, channel=0, data=[48, 20]),
   midi.NoteOnEvent(tick=0, channel=0, data=[54, 36]),
   midi.NoteOnEvent(tick=240, channel=0, data=[54, 0]),
   midi.NoteOnEvent(tick=0, channel=0, data=[56, 23]),
   midi.NoteOnEvent(tick=240, channel=0, data=[56, 0]),
   midi.NoteOnEvent(tick=0, channel=0, data=[54, 27]),
   midi.NoteOnEvent(tick=240, channel=0, data=[54, 0]),
   midi.NoteOnEvent(tick=0, channel=0, data=[56, 23]),
   midi.NoteOnEvent(tick=240, channel=0, data=[56, 0]),
   midi.NoteOnEvent(tick=0, channel=0, data=[54, 27]),
   midi.NoteOnEvent(tick=240, channel=0, data=[54, 0]),
   midi.NoteOnEvent(tick=0, channel=0, data=[56, 24]),
   midi.NoteOnEvent(tick=240, channel=0, data=[56, 0]),
   midi.NoteOnEvent(tick=0, channel=0, data=[48, 0]),
   midi.NoteOnEvent(tick=0, channel=0, data=[49, 20]),
   midi.NoteOnEvent(tick=0, channel=0, data=[53, 33]),
   midi.NoteOnEvent(tick=240, channel=0, data=[53, 0]),
   midi.NoteOnEvent(tick=0, channel=0, data=[56, 23]),
   midi.NoteOnEvent(tick=240, channel=0, data=[56, 0]),
   midi.NoteOnEvent(tick=0, channel=0, data=[53, 27]),
   midi.NoteOnEvent(tick=240, channel=0, data=[53, 0]),
   midi.NoteOnEvent(tick=0, channel=0, data=[56, 23]),
   midi.NoteOnEvent(tick=240, channel=0, data=[56, 0]),
   midi.NoteOnEvent(tick=0, channel=0, data=[53, 27]),
   midi.NoteOnEvent(tick=240, channel=0, data=[53, 0]),
   midi.NoteOnEvent(tick=0, channel=0, data=[56, 25]),
   midi.NoteOnEvent(tick=240, channel=0, data=[56, 0]),
   midi.NoteOnEvent(tick=0, channel=0, data=[49, 0]),
   midi.NoteOnEvent(tick=0, channel=0, data=[48, 20]),
   midi.NoteOnEvent(tick=0, channel=0, data=[54, 31]),
   midi.NoteOnEvent(tick=240, channel=0, data=[54, 0]),
   midi.NoteOnEvent(tick=0, channel=0, data=[56, 27]),
   midi.NoteOnEvent(tick=240, channel=0, data=[56, 0]),
   midi.NoteOnEvent(tick=0, channel=0, data=[54, 27]),
   midi.NoteOnEvent(tick=240, channel=0, data=[54, 0]),
   midi.NoteOnEvent(tick=0, channel=0, data=[56, 24]),
   midi.NoteOnEvent(tick=240, channel=0, data=[56, 0]),
   midi.NoteOnEvent(tick=0, channel=0, data=[54, 27]),
   midi.NoteOnEvent(tick=240, channel=0, data=[54, 0]),
   midi.NoteOnEvent(tick=0, channel=0, data=[56, 23]),
   midi.NoteOnEvent(tick=240, channel=0, data=[56, 0]),
   midi.NoteOnEvent(tick=0, channel=0, data=[48, 0]),
   midi.NoteOnEvent(tick=0, channel=0, data=[49, 21]),
   midi.NoteOnEvent(tick=0, channel=0, data=[53, 35]),
   midi.NoteOnEvent(tick=240, channel=0, data=[53, 0]),
   midi.NoteOnEvent(tick=0, channel=0, data=[56, 24]),
   midi.NoteOnEvent(tick=240, channel=0, data=[56, 0]),
   midi.NoteOnEvent(tick=0, channel=0, data=[53, 28]),
   midi.NoteOnEvent(tick=240, channel=0, data=[53, 0]),
   midi.NoteOnEvent(tick=0, channel=0, data=[56, 23]),
   midi.NoteOnEvent(tick=240, channel=0, data=[56, 0]),
   midi.NoteOnEvent(tick=0, channel=0, data=[53, 27]),
   midi.NoteOnEvent(tick=240, channel=0, data=[53, 0]),
   midi.NoteOnEvent(tick=0, channel=0, data=[56, 23]),
   midi.NoteOnEvent(tick=240, channel=0, data=[56, 0]),
   midi.NoteOnEvent(tick=0, channel=0, data=[49, 0]),
   midi.NoteOnEvent(tick=0, channel=0, data=[48, 21]),
   midi.NoteOnEvent(tick=0, channel=0, data=[51, 38]),
   midi.NoteOnEvent(tick=240, channel=0, data=[51, 0]),
   midi.NoteOnEvent(tick=0, channel=0, data=[54, 24]),
   midi.NoteOnEvent(tick=240, channel=0, data=[54, 0]),
   midi.NoteOnEvent(tick=0, channel=0, data=[51, 32]),
   midi.NoteOnEvent(tick=240, channel=0, data=[51, 0]),
   midi.NoteOnEvent(tick=0, channel=0, data=[54, 28]),
   midi.NoteOnEvent(tick=240, channel=0, data=[54, 0]),
   midi.NoteOnEvent(tick=0, channel=0, data=[51, 32]),
   midi.NoteOnEvent(tick=240, channel=0, data=[51, 0]),
   midi.NoteOnEvent(tick=0, channel=0, data=[54, 27]),
   midi.NoteOnEvent(tick=240, channel=0, data=[54, 0]),
   midi.NoteOnEvent(tick=0, channel=0, data=[48, 0]),
   midi.NoteOnEvent(tick=0, channel=0, data=[49, 23]),
   midi.NoteOnEvent(tick=0, channel=0, data=[53, 37]),
   midi.NoteOnEvent(tick=240, channel=0, data=[53, 0]),
   midi.NoteOnEvent(tick=0, channel=0, data=[58, 32]),
   midi.NoteOnEvent(tick=240, channel=0, data=[58, 0]),
   midi.NoteOnEvent(tick=0, channel=0, data=[53, 34]),
   midi.NoteOnEvent(tick=240, channel=0, data=[53, 0]),
   midi.NoteOnEvent(tick=0, channel=0, data=[58, 29]),
   midi.NoteOnEvent(tick=240, channel=0, data=[58, 0]),
   midi.NoteOnEvent(tick=0, channel=0, data=[53, 30]),
   midi.NoteOnEvent(tick=240, channel=0, data=[53, 0]),
   midi.NoteOnEvent(tick=0, channel=0, data=[58, 28]),
   midi.NoteOnEvent(tick=240, channel=0, data=[58, 0]),
   midi.NoteOnEvent(tick=0, channel=0, data=[49, 0]),
   midi.NoteOnEvent(tick=0, channel=0, data=[52, 23]),
   midi.NoteOnEvent(tick=0, channel=0, data=[58, 37]),
   midi.NoteOnEvent(tick=240, channel=0, data=[58, 0]),
   midi.NoteOnEvent(tick=0, channel=0, data=[61, 30]),
   midi.NoteOnEvent(tick=240, channel=0, data=[61, 0]),
   midi.NoteOnEvent(tick=0, channel=0, data=[58, 30]),
   midi.NoteOnEvent(tick=240, channel=0, data=[58, 0]),
   midi.NoteOnEvent(tick=0, channel=0, data=[61, 27]),
   midi.NoteOnEvent(tick=240, channel=0, data=[58, 30]),
   midi.NoteOnEvent(tick=12, channel=0, data=[61, 0]),
   midi.NoteOnEvent(tick=228, channel=0, data=[58, 0]),
   midi.NoteOnEvent(tick=0, channel=0, data=[61, 26]),
   midi.NoteOnEvent(tick=240, channel=0, data=[61, 0]),
   midi.NoteOnEvent(tick=0, channel=0, data=[52, 0]),
   midi.NoteOnEvent(tick=0, channel=0, data=[53, 25]),
   midi.NoteOnEvent(tick=0, channel=0, data=[56, 40]),
   midi.NoteOnEvent(tick=240, channel=0, data=[56, 0]),
   midi.NoteOnEvent(tick=0, channel=0, data=[60, 28]),
   midi.NoteOnEvent(tick=240, channel=0, data=[60, 0]),
   midi.NoteOnEvent(tick=0, channel=0, data=[56, 33]),
   midi.NoteOnEvent(tick=240, channel=0, data=[56, 0]),
   midi.NoteOnEvent(tick=0, channel=0, data=[60, 28]),
   midi.NoteOnEvent(tick=240, channel=0, data=[60, 0]),
   midi.NoteOnEvent(tick=0, channel=0, data=[56, 36]),
   midi.NoteOnEvent(tick=240, channel=0, data=[56, 0]),
   midi.NoteOnEvent(tick=0, channel=0, data=[60, 32]),
   midi.NoteOnEvent(tick=240, channel=0, data=[60, 0]),
   midi.NoteOnEvent(tick=0, channel=0, data=[53, 0]),
   midi.NoteOnEvent(tick=0, channel=0, data=[55, 36]),
   midi.NoteOnEvent(tick=0, channel=0, data=[62, 36]),
   midi.NoteOnEvent(tick=240, channel=0, data=[62, 0]),
   midi.NoteOnEvent(tick=0, channel=0, data=[65, 29]),
   midi.NoteOnEvent(tick=240, channel=0, data=[65, 0]),
   midi.NoteOnEvent(tick=0, channel=0, data=[62, 34]),
   midi.NoteOnEvent(tick=240, channel=0, data=[62, 0]),
   midi.NoteOnEvent(tick=0, channel=0, data=[65, 28]),
   midi.NoteOnEvent(tick=240, channel=0, data=[62, 35]),
   midi.NoteOnEvent(tick=12, channel=0, data=[65, 0]),
   midi.NoteOnEvent(tick=228, channel=0, data=[62, 0]),
   midi.NoteOnEvent(tick=0, channel=0, data=[65, 28]),
   midi.NoteOnEvent(tick=240, channel=0, data=[65, 0]),
   midi.NoteOnEvent(tick=0, channel=0, data=[55, 0]),
   midi.NoteOnEvent(tick=0, channel=0, data=[56, 42]),
   midi.NoteOnEvent(tick=0, channel=0, data=[60, 42]),
   midi.NoteOnEvent(tick=240, channel=0, data=[60, 0]),
   midi.NoteOnEvent(tick=0, channel=0, data=[63, 26]),
   midi.NoteOnEvent(tick=240, channel=0, data=[63, 0]),
   midi.NoteOnEvent(tick=0, channel=0, data=[60, 38]),
   midi.NoteOnEvent(tick=240, channel=0, data=[60, 0]),
   midi.NoteOnEvent(tick=0, channel=0, data=[63, 31]),
   midi.NoteOnEvent(tick=240, channel=0, data=[63, 0]),
   midi.NoteOnEvent(tick=0, channel=0, data=[60, 38]),
   midi.NoteOnEvent(tick=240, channel=0, data=[60, 0]),
   midi.NoteOnEvent(tick=0, channel=0, data=[63, 35]),
   midi.NoteOnEvent(tick=240, channel=0, data=[63, 0]),
   midi.NoteOnEvent(tick=0, channel=0, data=[56, 0]),
   midi.NoteOnEvent(tick=0, channel=0, data=[57, 41]),
   midi.NoteOnEvent(tick=0, channel=0, data=[60, 41]),
   midi.NoteOnEvent(tick=240, channel=0, data=[60, 0]),
   midi.NoteOnEvent(tick=0, channel=0, data=[62, 33]),
   midi.NoteOnEvent(tick=240, channel=0, data=[62, 0]),
   midi.NoteOnEvent(tick=0, channel=0, data=[60, 37]),
   midi.NoteOnEvent(tick=240, channel=0, data=[60, 0]),
   midi.NoteOnEvent(tick=0, channel=0, data=[62, 28]),
   midi.NoteOnEvent(tick=240, channel=0, data=[60, 35]),
   midi.NoteOnEvent(tick=12, channel=0, data=[62, 0]),
   midi.NoteOnEvent(tick=228, channel=0, data=[60, 0]),
   midi.NoteOnEvent(tick=0, channel=0, data=[62, 28]),
   midi.NoteOnEvent(tick=240, channel=0, data=[62, 0]),
   midi.NoteOnEvent(tick=0, channel=0, data=[57, 0]),
   midi.NoteOnEvent(tick=0, channel=0, data=[58, 22]),
   midi.NoteOnEvent(tick=0, channel=0, data=[62, 36]),
   midi.NoteOnEvent(tick=240, channel=0, data=[62, 0]),
   midi.NoteOnEvent(tick=0, channel=0, data=[67, 29]),
   midi.NoteOnEvent(tick=240, channel=0, data=[67, 0]),
   midi.NoteOnEvent(tick=0, channel=0, data=[62, 34]),
   midi.NoteOnEvent(tick=240, channel=0, data=[62, 0]),
   midi.NoteOnEvent(tick=0, channel=0, data=[67, 28]),
   midi.NoteOnEvent(tick=240, channel=0, data=[67, 0]),
   midi.NoteOnEvent(tick=0, channel=0, data=[62, 34]),
   midi.NoteOnEvent(tick=240, channel=0, data=[62, 0]),
   midi.NoteOnEvent(tick=0, channel=0, data=[67, 27]),
   midi.NoteOnEvent(tick=240, channel=0, data=[67, 0]),
   midi.NoteOnEvent(tick=0, channel=0, data=[58, 0]),
   midi.NoteOnEvent(tick=0, channel=0, data=[63, 29]),
   midi.NoteOnEvent(tick=0, channel=0, data=[67, 36]),
   midi.NoteOnEvent(tick=240, channel=0, data=[67, 0]),
   midi.NoteOnEvent(tick=0, channel=0, data=[69, 28]),
   midi.NoteOnEvent(tick=240, channel=0, data=[69, 0]),
   midi.NoteOnEvent(tick=0, channel=0, data=[67, 34]),
   midi.NoteOnEvent(tick=240, channel=0, data=[67, 0]),
   midi.NoteOnEvent(tick=0, channel=0, data=[69, 27]),
   midi.NoteOnEvent(tick=240, channel=0, data=[67, 34]),
   midi.NoteOnEvent(tick=12, channel=0, data=[69, 0]),
   midi.NoteOnEvent(tick=228, channel=0, data=[67, 0]),
   midi.NoteOnEvent(tick=0, channel=0, data=[69, 25]),
   midi.NoteOnEvent(tick=240, channel=0, data=[69, 0]),
   midi.NoteOnEvent(tick=0, channel=0, data=[63, 0]),
   midi.NoteOnEvent(tick=0, channel=0, data=[62, 44]),
   midi.NoteOnEvent(tick=0, channel=0, data=[66, 44]),
   midi.NoteOnEvent(tick=480, channel=0, data=[66, 0]),
   midi.NoteOnEvent(tick=0, channel=0, data=[62, 0]),
   midi.NoteOnEvent(tick=480, channel=0, data=[72, 47]),
   midi.NoteOnEvent(tick=240, channel=0, data=[72, 0]),
   midi.NoteOnEvent(tick=240, channel=0, data=[70, 51]),
   midi.NoteOnEvent(tick=240, channel=0, data=[70, 0]),
   midi.NoteOnEvent(tick=240, channel=0, data=[66, 58]),
   midi.NoteOnEvent(tick=240, channel=0, data=[66, 0]),
   midi.NoteOnEvent(tick=240, channel=0, data=[67, 54]),
   midi.NoteOnEvent(tick=240, channel=0, data=[67, 0]),
   midi.NoteOnEvent(tick=240, channel=0, data=[62, 53]),
   midi.NoteOnEvent(tick=480, channel=0, data=[62, 0]),
   midi.NoteOnEvent(tick=480, channel=0, data=[72, 48]),
   midi.NoteOnEvent(tick=240, channel=0, data=[72, 0]),
   midi.NoteOnEvent(tick=240, channel=0, data=[70, 57]),
   midi.NoteOnEvent(tick=240, channel=0, data=[70, 0]),
   midi.NoteOnEvent(tick=240, channel=0, data=[66, 59]),
   midi.NoteOnEvent(tick=240, channel=0, data=[66, 0]),
   midi.NoteOnEvent(tick=240, channel=0, data=[67, 54]),
   midi.NoteOnEvent(tick=240, channel=0, data=[67, 0]),
   midi.NoteOnEvent(tick=240, channel=0, data=[62, 58]),
   midi.NoteOnEvent(tick=480, channel=0, data=[62, 0]),
   midi.NoteOnEvent(tick=600, channel=0, data=[62, 47]),
   midi.NoteOnEvent(tick=120, channel=0, data=[62, 0]),
   midi.NoteOnEvent(tick=0, channel=0, data=[57, 54]),
   midi.NoteOnEvent(tick=120, channel=0, data=[57, 0]),
   midi.NoteOnEvent(tick=0, channel=0, data=[54, 47]),
   midi.NoteOnEvent(tick=120, channel=0, data=[54, 0]),
   midi.NoteOnEvent(tick=0, channel=0, data=[50, 69]),
   midi.NoteOnEvent(tick=120, channel=0, data=[50, 0]),
   midi.NoteOnEvent(tick=360, channel=0, data=[38, 59]),
   midi.NoteOnEvent(tick=480, channel=0, data=[38, 0]),
   midi.NoteOnEvent(tick=480, channel=0, data=[55, 34]),
   midi.NoteOnEvent(tick=960, channel=0, data=[50, 30]),
   midi.NoteOnEvent(tick=20, channel=0, data=[55, 0]),
   midi.NoteOnEvent(tick=460, channel=0, data=[50, 0]),
   midi.NoteOnEvent(tick=0, channel=0, data=[47, 34]),
   midi.NoteOnEvent(tick=960, channel=0, data=[50, 32]),
   midi.NoteOnEvent(tick=20, channel=0, data=[47, 0]),
   midi.NoteOnEvent(tick=460, channel=0, data=[50, 0]),
   midi.NoteOnEvent(tick=0, channel=0, data=[55, 34]),
   midi.NoteOnEvent(tick=960, channel=0, data=[59, 36]),
   midi.NoteOnEvent(tick=20, channel=0, data=[55, 0]),
   midi.NoteOnEvent(tick=460, channel=0, data=[59, 0]),
   midi.NoteOnEvent(tick=0, channel=0, data=[62, 38]),
   midi.NoteOnEvent(tick=480, channel=0, data=[62, 0]),
   midi.NoteOnEvent(tick=960, channel=0, data=[55, 34]),
   midi.NoteOnEvent(tick=960, channel=0, data=[50, 30]),
   midi.NoteOnEvent(tick=20, channel=0, data=[55, 0]),
   midi.NoteOnEvent(tick=460, channel=0, data=[50, 0]),
   midi.NoteOnEvent(tick=0, channel=0, data=[47, 34]),
   midi.NoteOnEvent(tick=960, channel=0, data=[50, 32]),
   midi.NoteOnEvent(tick=20, channel=0, data=[47, 0]),
   midi.NoteOnEvent(tick=460, channel=0, data=[50, 0]),
   midi.NoteOnEvent(tick=0, channel=0, data=[55, 34]),
   midi.NoteOnEvent(tick=960, channel=0, data=[59, 36]),
   midi.NoteOnEvent(tick=20, channel=0, data=[55, 0]),
   midi.NoteOnEvent(tick=460, channel=0, data=[59, 0]),
   midi.NoteOnEvent(tick=0, channel=0, data=[62, 38]),
   midi.NoteOnEvent(tick=480, channel=0, data=[62, 0]),
   midi.NoteOnEvent(tick=4080, channel=0, data=[55, 39]),
   midi.NoteOnEvent(tick=60, channel=0, data=[55, 0]),
   midi.NoteOnEvent(tick=180, channel=0, data=[55, 42]),
   midi.NoteOnEvent(tick=60, channel=0, data=[55, 0]),
   midi.NoteOnEvent(tick=180, channel=0, data=[55, 37]),
   midi.NoteOnEvent(tick=60, channel=0, data=[55, 0]),
   midi.NoteOnEvent(tick=180, channel=0, data=[55, 39]),
   midi.NoteOnEvent(tick=60, channel=0, data=[55, 0]),
   midi.NoteOnEvent(tick=180, channel=0, data=[55, 35]),
   midi.NoteOnEvent(tick=60, channel=0, data=[55, 0]),
   midi.NoteOnEvent(tick=180, channel=0, data=[56, 39]),
   midi.NoteOnEvent(tick=240, channel=0, data=[55, 35]),
   midi.NoteOnEvent(tick=12, channel=0, data=[56, 0]),
   midi.NoteOnEvent(tick=228, channel=0, data=[53, 37]),
   midi.NoteOnEvent(tick=12, channel=0, data=[55, 0]),
   midi.NoteOnEvent(tick=228, channel=0, data=[51, 35]),
   midi.NoteOnEvent(tick=12, channel=0, data=[53, 0]),
   midi.NoteOnEvent(tick=228, channel=0, data=[50, 39]),
   midi.NoteOnEvent(tick=12, channel=0, data=[51, 0]),
   midi.NoteOnEvent(tick=228, channel=0, data=[48, 34]),
   midi.NoteOnEvent(tick=12, channel=0, data=[50, 0]),
   midi.NoteOnEvent(tick=228, channel=0, data=[48, 0]),
   midi.NoteOnEvent(tick=0, channel=0, data=[48, 35]),
   midi.NoteOnEvent(tick=240, channel=0, data=[48, 0]),
   midi.NoteOnEvent(tick=0, channel=0, data=[46, 38]),
   midi.NoteOnEvent(tick=240, channel=0, data=[46, 0]),
   midi.NoteOnEvent(tick=0, channel=0, data=[46, 39]),
   midi.NoteOnEvent(tick=480, channel=0, data=[46, 0]),
   midi.NoteOnEvent(tick=2160, channel=0, data=[58, 39]),
   midi.NoteOnEvent(tick=60, channel=0, data=[58, 0]),
   midi.NoteOnEvent(tick=180, channel=0, data=[58, 41]),
   midi.NoteOnEvent(tick=60, channel=0, data=[58, 0]),
   midi.NoteOnEvent(tick=180, channel=0, data=[58, 36]),
   midi.NoteOnEvent(tick=60, channel=0, data=[58, 0]),
   midi.NoteOnEvent(tick=180, channel=0, data=[58, 38]),
   midi.NoteOnEvent(tick=60, channel=0, data=[58, 0]),
   midi.NoteOnEvent(tick=180, channel=0, data=[58, 35]),
   midi.NoteOnEvent(tick=60, channel=0, data=[58, 0]),
   midi.NoteOnEvent(tick=180, channel=0, data=[60, 39]),
   midi.NoteOnEvent(tick=240, channel=0, data=[58, 35]),
   midi.NoteOnEvent(tick=12, channel=0, data=[60, 0]),
   midi.NoteOnEvent(tick=228, channel=0, data=[56, 35]),
   midi.NoteOnEvent(tick=12, channel=0, data=[58, 0]),
   midi.NoteOnEvent(tick=228, channel=0, data=[55, 35]),
   midi.NoteOnEvent(tick=12, channel=0, data=[56, 0]),
   midi.NoteOnEvent(tick=228, channel=0, data=[53, 39]),
   midi.NoteOnEvent(tick=12, channel=0, data=[55, 0]),
   midi.NoteOnEvent(tick=228, channel=0, data=[52, 34]),
   midi.NoteOnEvent(tick=12, channel=0, data=[53, 0]),
   midi.NoteOnEvent(tick=228, channel=0, data=[52, 0]),
   midi.NoteOnEvent(tick=0, channel=0, data=[53, 40]),
   midi.NoteOnEvent(tick=980, channel=0, data=[53, 0]),
   midi.NoteOnEvent(tick=460, channel=0, data=[58, 28]),
   midi.NoteOnEvent(tick=0, channel=0, data=[62, 28]),
   midi.NoteOnEvent(tick=0, channel=0, data=[65, 34]),
   midi.NoteOnEvent(tick=480, channel=0, data=[65, 0]),
   midi.NoteOnEvent(tick=0, channel=0, data=[62, 0]),
   midi.NoteOnEvent(tick=0, channel=0, data=[63, 28]),
   midi.NoteOnEvent(tick=0, channel=0, data=[67, 34]),
   midi.NoteOnEvent(tick=480, channel=0, data=[67, 0]),
   midi.NoteOnEvent(tick=0, channel=0, data=[63, 0]),
   midi.NoteOnEvent(tick=0, channel=0, data=[65, 28]),
   midi.NoteOnEvent(tick=0, channel=0, data=[69, 34]),
   midi.NoteOnEvent(tick=480, channel=0, data=[69, 0]),
   midi.NoteOnEvent(tick=0, channel=0, data=[65, 0]),
   midi.NoteOnEvent(tick=0, channel=0, data=[58, 0]),
   midi.NoteOnEvent(tick=0, channel=0, data=[63, 28]),
   midi.NoteOnEvent(tick=0, channel=0, data=[67, 34]),
   midi.NoteOnEvent(tick=480, channel=0, data=[67, 0]),
   midi.NoteOnEvent(tick=0, channel=0, data=[63, 0]),
   midi.NoteOnEvent(tick=960, channel=0, data=[56, 28]),
   midi.NoteOnEvent(tick=0, channel=0, data=[60, 28]),
   midi.NoteOnEvent(tick=0, channel=0, data=[63, 34]),
   midi.NoteOnEvent(tick=480, channel=0, data=[63, 0]),
   midi.NoteOnEvent(tick=0, channel=0, data=[60, 0]),
   midi.NoteOnEvent(tick=0, channel=0, data=[62, 28]),
   midi.NoteOnEvent(tick=0, channel=0, data=[65, 34]),
   midi.NoteOnEvent(tick=480, channel=0, data=[65, 0]),
   midi.NoteOnEvent(tick=0, channel=0, data=[62, 0]),
   midi.NoteOnEvent(tick=0, channel=0, data=[63, 28]),
   midi.NoteOnEvent(tick=0, channel=0, data=[67, 34]),
   midi.NoteOnEvent(tick=480, channel=0, data=[67, 0]),
   midi.NoteOnEvent(tick=0, channel=0, data=[63, 0]),
   midi.NoteOnEvent(tick=0, channel=0, data=[56, 0]),
   midi.NoteOnEvent(tick=0, channel=0, data=[62, 28]),
   midi.NoteOnEvent(tick=0, channel=0, data=[65, 34]),
   midi.NoteOnEvent(tick=480, channel=0, data=[65, 0]),
   midi.NoteOnEvent(tick=0, channel=0, data=[62, 0]),
   midi.NoteOnEvent(tick=960, channel=0, data=[55, 28]),
   midi.NoteOnEvent(tick=0, channel=0, data=[59, 28]),
   midi.NoteOnEvent(tick=0, channel=0, data=[62, 34]),
   midi.NoteOnEvent(tick=480, channel=0, data=[62, 0]),
   midi.NoteOnEvent(tick=0, channel=0, data=[59, 0]),
   midi.NoteOnEvent(tick=0, channel=0, data=[60, 28]),
   midi.NoteOnEvent(tick=0, channel=0, data=[63, 34]),
   midi.NoteOnEvent(tick=480, channel=0, data=[63, 0]),
   midi.NoteOnEvent(tick=0, channel=0, data=[60, 0]),
   midi.NoteOnEvent(tick=0, channel=0, data=[62, 28]),
   midi.NoteOnEvent(tick=0, channel=0, data=[65, 34]),
   midi.NoteOnEvent(tick=480, channel=0, data=[65, 0]),
   midi.NoteOnEvent(tick=0, channel=0, data=[62, 0]),
   midi.NoteOnEvent(tick=0, channel=0, data=[55, 0]),
   midi.NoteOnEvent(tick=0, channel=0, data=[60, 30]),
   midi.NoteOnEvent(tick=0, channel=0, data=[63, 37]),
   midi.NoteOnEvent(tick=480, channel=0, data=[63, 0]),
   midi.NoteOnEvent(tick=0, channel=0, data=[60, 0]),
   midi.NoteOnEvent(tick=480, channel=0, data=[53, 30]),
   midi.NoteOnEvent(tick=0, channel=0, data=[63, 37]),
   midi.NoteOnEvent(tick=480, channel=0, data=[63, 0]),
   midi.NoteOnEvent(tick=0, channel=0, data=[53, 0]),
   midi.NoteOnEvent(tick=0, channel=0, data=[55, 30]),
   midi.NoteOnEvent(tick=0, channel=0, data=[62, 37]),
   midi.NoteOnEvent(tick=480, channel=0, data=[62, 0]),
   midi.NoteOnEvent(tick=0, channel=0, data=[55, 0]),
   midi.NoteOnEvent(tick=480, channel=0, data=[63, 30]),
   midi.NoteOnEvent(tick=0, channel=0, data=[67, 37]),
   midi.NoteOnEvent(tick=480, channel=0, data=[67, 0]),
   midi.NoteOnEvent(tick=0, channel=0, data=[63, 0]),
   midi.NoteOnEvent(tick=240, channel=0, data=[65, 42]),
   midi.NoteOnEvent(tick=60, channel=0, data=[65, 0]),
   midi.NoteOnEvent(tick=180, channel=0, data=[65, 45]),
   midi.NoteOnEvent(tick=60, channel=0, data=[65, 0]),
   midi.NoteOnEvent(tick=180, channel=0, data=[65, 39]),
   midi.NoteOnEvent(tick=60, channel=0, data=[65, 0]),
   midi.NoteOnEvent(tick=180, channel=0, data=[65, 41]),
   midi.NoteOnEvent(tick=60, channel=0, data=[65, 0]),
   midi.NoteOnEvent(tick=180, channel=0, data=[65, 38]),
   midi.NoteOnEvent(tick=60, channel=0, data=[65, 0]),
   midi.NoteOnEvent(tick=180, channel=0, data=[66, 42]),
   midi.NoteOnEvent(tick=240, channel=0, data=[65, 38]),
   midi.NoteOnEvent(tick=12, channel=0, data=[66, 0]),
   midi.NoteOnEvent(tick=228, channel=0, data=[63, 38]),
   midi.NoteOnEvent(tick=12, channel=0, data=[65, 0]),
   midi.NoteOnEvent(tick=228, channel=0, data=[61, 38]),
   midi.NoteOnEvent(tick=12, channel=0, data=[63, 0]),
   midi.NoteOnEvent(tick=228, channel=0, data=[60, 42]),
   midi.NoteOnEvent(tick=12, channel=0, data=[61, 0]),
   midi.NoteOnEvent(tick=228, channel=0, data=[58, 37]),
   midi.NoteOnEvent(tick=12, channel=0, data=[60, 0]),
   midi.NoteOnEvent(tick=228, channel=0, data=[58, 0]),
   midi.NoteOnEvent(tick=240, channel=0, data=[53, 42]),
   midi.NoteOnEvent(tick=60, channel=0, data=[53, 0]),
   midi.NoteOnEvent(tick=180, channel=0, data=[53, 45]),
   midi.NoteOnEvent(tick=60, channel=0, data=[53, 0]),
   midi.NoteOnEvent(tick=180, channel=0, data=[53, 39]),
   midi.NoteOnEvent(tick=60, channel=0, data=[53, 0]),
   midi.NoteOnEvent(tick=180, channel=0, data=[53, 41]),
   midi.NoteOnEvent(tick=60, channel=0, data=[53, 0]),
   midi.NoteOnEvent(tick=180, channel=0, data=[53, 38]),
   midi.NoteOnEvent(tick=60, channel=0, data=[53, 0]),
   midi.NoteOnEvent(tick=180, channel=0, data=[54, 42]),
   midi.NoteOnEvent(tick=240, channel=0, data=[53, 38]),
   midi.NoteOnEvent(tick=12, channel=0, data=[54, 0]),
   midi.NoteOnEvent(tick=228, channel=0, data=[51, 38]),
   midi.NoteOnEvent(tick=12, channel=0, data=[53, 0]),
   midi.NoteOnEvent(tick=228, channel=0, data=[49, 38]),
   midi.NoteOnEvent(tick=12, channel=0, data=[51, 0]),
   midi.NoteOnEvent(tick=228, channel=0, data=[48, 42]),
   midi.NoteOnEvent(tick=12, channel=0, data=[49, 0]),
   midi.NoteOnEvent(tick=228, channel=0, data=[46, 37]),
   midi.NoteOnEvent(tick=12, channel=0, data=[48, 0]),
   midi.NoteOnEvent(tick=228, channel=0, data=[46, 0]),
   midi.NoteOnEvent(tick=0, channel=0, data=[41, 42]),
   midi.NoteOnEvent(tick=480, channel=0, data=[41, 0]),
   midi.NoteOnEvent(tick=960, channel=0, data=[53, 29]),
   midi.NoteOnEvent(tick=0, channel=0, data=[63, 37]),
   midi.NoteOnEvent(tick=0, channel=0, data=[57, 29]),
   midi.NoteOnEvent(tick=3360, channel=0, data=[57, 0]),
   midi.NoteOnEvent(tick=0, channel=0, data=[63, 0]),
   midi.NoteOnEvent(tick=0, channel=0, data=[53, 0]),
   midi.NoteOnEvent(tick=960, channel=0, data=[58, 33]),
   midi.NoteOnEvent(tick=960, channel=0, data=[58, 0]),
   midi.NoteOnEvent(tick=0, channel=0, data=[53, 31]),
   midi.NoteOnEvent(tick=480, channel=0, data=[53, 0]),
   midi.NoteOnEvent(tick=0, channel=0, data=[50, 37]),
   midi.NoteOnEvent(tick=960, channel=0, data=[50, 0]),
   midi.NoteOnEvent(tick=0, channel=0, data=[53, 38]),
   midi.NoteOnEvent(tick=480, channel=0, data=[53, 0]),
   midi.NoteOnEvent(tick=0, channel=0, data=[58, 41]),
   midi.NoteOnEvent(tick=960, channel=0, data=[58, 0]),
   midi.NoteOnEvent(tick=0, channel=0, data=[62, 43]),
   midi.NoteOnEvent(tick=480, channel=0, data=[62, 0]),
   midi.NoteOnEvent(tick=0, channel=0, data=[65, 43]),
   midi.NoteOnEvent(tick=960, channel=0, data=[65, 0]),
   midi.NoteOnEvent(tick=480, channel=0, data=[63, 36]),
   midi.NoteOnEvent(tick=0, channel=0, data=[53, 30]),
   midi.NoteOnEvent(tick=0, channel=0, data=[60, 30]),
   midi.NoteOnEvent(tick=2880, channel=0, data=[60, 0]),
   midi.NoteOnEvent(tick=0, channel=0, data=[53, 0]),
   midi.NoteOnEvent(tick=0, channel=0, data=[63, 0]),
   midi.NoteOnEvent(tick=0, channel=0, data=[58, 32]),
   midi.NoteOnEvent(tick=0, channel=0, data=[62, 38]),
   midi.NoteOnEvent(tick=480, channel=0, data=[62, 0]),
   midi.NoteOnEvent(tick=0, channel=0, data=[58, 0]),
   midi.NoteOnEvent(tick=2400, channel=0, data=[53, 30]),
   midi.NoteOnEvent(tick=0, channel=0, data=[60, 30]),
   midi.NoteOnEvent(tick=0, channel=0, data=[63, 36]),
   midi.NoteOnEvent(tick=2880, channel=0, data=[63, 0]),
   midi.NoteOnEvent(tick=0, channel=0, data=[60, 0]),
   midi.NoteOnEvent(tick=0, channel=0, data=[53, 0]),
   midi.NoteOnEvent(tick=0, channel=0, data=[58, 34]),
   midi.NoteOnEvent(tick=0, channel=0, data=[62, 40]),
   midi.NoteOnEvent(tick=120, channel=0, data=[62, 0]),
   midi.NoteOnEvent(tick=0, channel=0, data=[58, 0]),
   midi.NoteOnEvent(tick=360, channel=0, data=[62, 38]),
   midi.NoteOnEvent(tick=0, channel=0, data=[58, 32]),
   midi.NoteOnEvent(tick=120, channel=0, data=[58, 0]),
   midi.NoteOnEvent(tick=0, channel=0, data=[62, 0]),
   midi.NoteOnEvent(tick=360, channel=0, data=[58, 32]),
   midi.NoteOnEvent(tick=0, channel=0, data=[65, 38]),
   midi.NoteOnEvent(tick=120, channel=0, data=[65, 0]),
   midi.NoteOnEvent(tick=0, channel=0, data=[58, 0]),
   midi.NoteOnEvent(tick=360, channel=0, data=[58, 34]),
   midi.NoteOnEvent(tick=0, channel=0, data=[62, 40]),
   midi.NoteOnEvent(tick=480, channel=0, data=[62, 0]),
   midi.NoteOnEvent(tick=0, channel=0, data=[58, 0]),
   midi.NoteOnEvent(tick=1440, channel=0, data=[58, 30]),
   midi.NoteOnEvent(tick=0, channel=0, data=[51, 25]),
   midi.NoteOnEvent(tick=0, channel=0, data=[55, 25]),
   midi.NoteOnEvent(tick=480, channel=0, data=[55, 0]),
   midi.NoteOnEvent(tick=0, channel=0, data=[51, 0]),
   midi.NoteOnEvent(tick=0, channel=0, data=[58, 0]),
   midi.NoteOnEvent(tick=960, channel=0, data=[50, 25]),
   midi.NoteOnEvent(tick=0, channel=0, data=[53, 25]),
   midi.NoteOnEvent(tick=0, channel=0, data=[58, 30]),
   midi.NoteOnEvent(tick=480, channel=0, data=[58, 0]),
   midi.NoteOnEvent(tick=0, channel=0, data=[53, 0]),
   midi.NoteOnEvent(tick=0, channel=0, data=[50, 0]),
   midi.NoteOnEvent(tick=480, channel=0, data=[57, 29]),
   midi.NoteOnEvent(tick=0, channel=0, data=[65, 34]),
   midi.NoteOnEvent(tick=1440, channel=0, data=[57, 0]),
   midi.NoteOnEvent(tick=0, channel=0, data=[58, 34]),
   midi.NoteOnEvent(tick=480, channel=0, data=[58, 0]),
   midi.NoteOnEvent(tick=0, channel=0, data=[65, 0]),
   midi.NoteOnEvent(tick=1440, channel=0, data=[51, 25]),
   midi.NoteOnEvent(tick=0, channel=0, data=[55, 25]),
   midi.NoteOnEvent(tick=0, channel=0, data=[58, 30]),
   midi.NoteOnEvent(tick=480, channel=0, data=[58, 0]),
   midi.NoteOnEvent(tick=0, channel=0, data=[55, 0]),
   midi.NoteOnEvent(tick=0, channel=0, data=[51, 0]),
   midi.NoteOnEvent(tick=960, channel=0, data=[50, 25]),
   midi.NoteOnEvent(tick=0, channel=0, data=[53, 25]),
   midi.NoteOnEvent(tick=0, channel=0, data=[58, 30]),
   midi.NoteOnEvent(tick=480, channel=0, data=[58, 0]),
   midi.NoteOnEvent(tick=0, channel=0, data=[53, 0]),
   midi.NoteOnEvent(tick=0, channel=0, data=[50, 0]),
   midi.NoteOnEvent(tick=480, channel=0, data=[53, 29]),
   midi.NoteOnEvent(tick=0, channel=0, data=[57, 34]),
   midi.NoteOnEvent(tick=480, channel=0, data=[57, 0]),
   midi.NoteOnEvent(tick=0, channel=0, data=[60, 31]),
   midi.NoteOnEvent(tick=480, channel=0, data=[60, 0]),
   midi.NoteOnEvent(tick=0, channel=0, data=[63, 29]),
   midi.NoteOnEvent(tick=480, channel=0, data=[63, 0]),
   midi.NoteOnEvent(tick=0, channel=0, data=[53, 0]),
   midi.NoteOnEvent(tick=0, channel=0, data=[62, 34]),
   midi.NoteOnEvent(tick=0, channel=0, data=[58, 28]),
   midi.NoteOnEvent(tick=480, channel=0, data=[58, 0]),
   midi.NoteOnEvent(tick=0, channel=0, data=[62, 0]),
   midi.NoteOnEvent(tick=960, channel=0, data=[55, 73]),
   midi.NoteOnEvent(tick=120, channel=0, data=[55, 0]),
   midi.NoteOnEvent(tick=360, channel=0, data=[43, 66]),
   midi.NoteOnEvent(tick=120, channel=0, data=[43, 0]),
   midi.NoteOnEvent(tick=840, channel=0, data=[50, 73]),
   midi.NoteOnEvent(tick=120, channel=0, data=[50, 0]),
   midi.NoteOnEvent(tick=360, channel=0, data=[38, 66]),
   midi.NoteOnEvent(tick=120, channel=0, data=[38, 0]),
   midi.NoteOnEvent(tick=840, channel=0, data=[51, 20]),
   midi.NoteOnEvent(tick=0, channel=0, data=[55, 33]),
   midi.NoteOnEvent(tick=240, channel=0, data=[55, 0]),
   midi.NoteOnEvent(tick=0, channel=0, data=[58, 23]),
   midi.NoteOnEvent(tick=240, channel=0, data=[58, 0]),
   midi.NoteOnEvent(tick=0, channel=0, data=[55, 27]),
   midi.NoteOnEvent(tick=240, channel=0, data=[55, 0]),
   midi.NoteOnEvent(tick=0, channel=0, data=[58, 22]),
   midi.NoteOnEvent(tick=240, channel=0, data=[58, 0]),
   midi.NoteOnEvent(tick=0, channel=0, data=[55, 26]),
   midi.NoteOnEvent(tick=240, channel=0, data=[55, 0]),
   midi.NoteOnEvent(tick=0, channel=0, data=[58, 22]),
   midi.NoteOnEvent(tick=240, channel=0, data=[58, 0]),
   midi.NoteOnEvent(tick=0, channel=0, data=[51, 0]),
   midi.NoteOnEvent(tick=0, channel=0, data=[50, 20]),
   midi.NoteOnEvent(tick=0, channel=0, data=[56, 36]),
   midi.NoteOnEvent(tick=240, channel=0, data=[56, 0]),
   midi.NoteOnEvent(tick=0, channel=0, data=[58, 23]),
   midi.NoteOnEvent(tick=240, channel=0, data=[58, 0]),
   midi.NoteOnEvent(tick=0, channel=0, data=[56, 27]),
   midi.NoteOnEvent(tick=240, channel=0, data=[56, 0]),
   midi.NoteOnEvent(tick=0, channel=0, data=[58, 23]),
   midi.NoteOnEvent(tick=240, channel=0, data=[58, 0]),
   midi.NoteOnEvent(tick=0, channel=0, data=[56, 27]),
   midi.NoteOnEvent(tick=240, channel=0, data=[56, 0]),
   midi.NoteOnEvent(tick=0, channel=0, data=[58, 24]),
   midi.NoteOnEvent(tick=240, channel=0, data=[58, 0]),
   midi.NoteOnEvent(tick=0, channel=0, data=[50, 0]),
   midi.NoteOnEvent(tick=0, channel=0, data=[51, 20]),
   midi.NoteOnEvent(tick=0, channel=0, data=[55, 33]),
   midi.NoteOnEvent(tick=240, channel=0, data=[55, 0]),
   midi.NoteOnEvent(tick=0, channel=0, data=[58, 23]),
   midi.NoteOnEvent(tick=240, channel=0, data=[58, 0]),
   midi.NoteOnEvent(tick=0, channel=0, data=[55, 27]),
   midi.NoteOnEvent(tick=240, channel=0, data=[55, 0]),
   midi.NoteOnEvent(tick=0, channel=0, data=[58, 23]),
   midi.NoteOnEvent(tick=240, channel=0, data=[58, 0]),
   midi.NoteOnEvent(tick=0, channel=0, data=[55, 27]),
   midi.NoteOnEvent(tick=240, channel=0, data=[55, 0]),
   midi.NoteOnEvent(tick=0, channel=0, data=[58, 25]),
   midi.NoteOnEvent(tick=240, channel=0, data=[58, 0]),
   midi.NoteOnEvent(tick=0, channel=0, data=[51, 0]),
   midi.NoteOnEvent(tick=0, channel=0, data=[50, 20]),
   midi.NoteOnEvent(tick=0, channel=0, data=[56, 33]),
   midi.NoteOnEvent(tick=240, channel=0, data=[56, 0]),
   midi.NoteOnEvent(tick=0, channel=0, data=[58, 27]),
   midi.NoteOnEvent(tick=240, channel=0, data=[58, 0]),
   midi.NoteOnEvent(tick=0, channel=0, data=[56, 27]),
   midi.NoteOnEvent(tick=240, channel=0, data=[56, 0]),
   midi.NoteOnEvent(tick=0, channel=0, data=[58, 24]),
   midi.NoteOnEvent(tick=240, channel=0, data=[58, 0]),
   midi.NoteOnEvent(tick=0, channel=0, data=[56, 27]),
   midi.NoteOnEvent(tick=240, channel=0, data=[56, 0]),
   midi.NoteOnEvent(tick=0, channel=0, data=[58, 23]),
   midi.NoteOnEvent(tick=240, channel=0, data=[58, 0]),
   midi.NoteOnEvent(tick=0, channel=0, data=[50, 0]),
   midi.NoteOnEvent(tick=0, channel=0, data=[51, 21]),
   midi.NoteOnEvent(tick=0, channel=0, data=[55, 35]),
   midi.NoteOnEvent(tick=240, channel=0, data=[55, 0]),
   midi.NoteOnEvent(tick=0, channel=0, data=[58, 24]),
   midi.NoteOnEvent(tick=240, channel=0, data=[58, 0]),
   midi.NoteOnEvent(tick=0, channel=0, data=[55, 28]),
   midi.NoteOnEvent(tick=240, channel=0, data=[55, 0]),
   midi.NoteOnEvent(tick=0, channel=0, data=[58, 23]),
   midi.NoteOnEvent(tick=240, channel=0, data=[58, 0]),
   midi.NoteOnEvent(tick=0, channel=0, data=[55, 27]),
   midi.NoteOnEvent(tick=240, channel=0, data=[55, 0]),
   midi.NoteOnEvent(tick=0, channel=0, data=[58, 23]),
   midi.NoteOnEvent(tick=240, channel=0, data=[58, 0]),
   midi.NoteOnEvent(tick=0, channel=0, data=[51, 0]),
   midi.NoteOnEvent(tick=0, channel=0, data=[50, 21]),
   midi.NoteOnEvent(tick=0, channel=0, data=[53, 38]),
   midi.NoteOnEvent(tick=240, channel=0, data=[53, 0]),
   midi.NoteOnEvent(tick=0, channel=0, data=[56, 24]),
   midi.NoteOnEvent(tick=240, channel=0, data=[56, 0]),
   midi.NoteOnEvent(tick=0, channel=0, data=[53, 32]),
   midi.NoteOnEvent(tick=240, channel=0, data=[53, 0]),
   midi.NoteOnEvent(tick=0, channel=0, data=[56, 28]),
   midi.NoteOnEvent(tick=240, channel=0, data=[56, 0]),
   midi.NoteOnEvent(tick=0, channel=0, data=[53, 32]),
   midi.NoteOnEvent(tick=240, channel=0, data=[53, 0]),
   midi.NoteOnEvent(tick=0, channel=0, data=[56, 27]),
   midi.NoteOnEvent(tick=240, channel=0, data=[56, 0]),
   midi.NoteOnEvent(tick=0, channel=0, data=[50, 0]),
   midi.NoteOnEvent(tick=0, channel=0, data=[51, 23]),
   midi.NoteOnEvent(tick=0, channel=0, data=[55, 37]),
   midi.NoteOnEvent(tick=240, channel=0, data=[55, 0]),
   midi.NoteOnEvent(tick=0, channel=0, data=[60, 32]),
   midi.NoteOnEvent(tick=240, channel=0, data=[60, 0]),
   midi.NoteOnEvent(tick=0, channel=0, data=[55, 34]),
   midi.NoteOnEvent(tick=240, channel=0, data=[55, 0]),
   midi.NoteOnEvent(tick=0, channel=0, data=[60, 29]),
   midi.NoteOnEvent(tick=240, channel=0, data=[60, 0]),
   midi.NoteOnEvent(tick=0, channel=0, data=[55, 30]),
   midi.NoteOnEvent(tick=240, channel=0, data=[55, 0]),
   midi.NoteOnEvent(tick=0, channel=0, data=[60, 28]),
   midi.NoteOnEvent(tick=240, channel=0, data=[60, 0]),
   midi.NoteOnEvent(tick=0, channel=0, data=[51, 0]),
   midi.NoteOnEvent(tick=0, channel=0, data=[54, 23]),
   midi.NoteOnEvent(tick=0, channel=0, data=[60, 37]),
   midi.NoteOnEvent(tick=240, channel=0, data=[60, 0]),
   midi.NoteOnEvent(tick=0, channel=0, data=[63, 30]),
   midi.NoteOnEvent(tick=240, channel=0, data=[63, 0]),
   midi.NoteOnEvent(tick=0, channel=0, data=[60, 30]),
   midi.NoteOnEvent(tick=240, channel=0, data=[60, 0]),
   midi.NoteOnEvent(tick=0, channel=0, data=[63, 27]),
   midi.NoteOnEvent(tick=240, channel=0, data=[60, 30]),
   midi.NoteOnEvent(tick=12, channel=0, data=[63, 0]),
   midi.NoteOnEvent(tick=228, channel=0, data=[60, 0]),
   midi.NoteOnEvent(tick=0, channel=0, data=[63, 26]),
   midi.NoteOnEvent(tick=240, channel=0, data=[63, 0]),
   midi.NoteOnEvent(tick=0, channel=0, data=[54, 0]),
   midi.NoteOnEvent(tick=0, channel=0, data=[55, 27]),
   midi.NoteOnEvent(tick=0, channel=0, data=[58, 44]),
   midi.NoteOnEvent(tick=240, channel=0, data=[58, 0]),
   midi.NoteOnEvent(tick=0, channel=0, data=[62, 30]),
   midi.NoteOnEvent(tick=240, channel=0, data=[62, 0]),
   midi.NoteOnEvent(tick=0, channel=0, data=[58, 36]),
   midi.NoteOnEvent(tick=240, channel=0, data=[58, 0]),
   midi.NoteOnEvent(tick=0, channel=0, data=[62, 30]),
   midi.NoteOnEvent(tick=240, channel=0, data=[62, 0]),
   midi.NoteOnEvent(tick=0, channel=0, data=[58, 36]),
   midi.NoteOnEvent(tick=240, channel=0, data=[58, 0]),
   midi.NoteOnEvent(tick=0, channel=0, data=[62, 33]),
   midi.NoteOnEvent(tick=240, channel=0, data=[62, 0]),
   midi.NoteOnEvent(tick=0, channel=0, data=[55, 0]),
   midi.NoteOnEvent(tick=0, channel=0, data=[60, 27]),
   midi.NoteOnEvent(tick=0, channel=0, data=[67, 44]),
   midi.NoteOnEvent(tick=240, channel=0, data=[67, 0]),
   midi.NoteOnEvent(tick=0, channel=0, data=[70, 36]),
   midi.NoteOnEvent(tick=240, channel=0, data=[70, 0]),
   midi.NoteOnEvent(tick=0, channel=0, data=[67, 36]),
   midi.NoteOnEvent(tick=240, channel=0, data=[67, 0]),
   midi.NoteOnEvent(tick=0, channel=0, data=[70, 31]),
   midi.NoteOnEvent(tick=240, channel=0, data=[67, 36]),
   midi.NoteOnEvent(tick=12, channel=0, data=[70, 0]),
   midi.NoteOnEvent(tick=228, channel=0, data=[67, 0]),
   midi.NoteOnEvent(tick=0, channel=0, data=[70, 30]),
   midi.NoteOnEvent(tick=240, channel=0, data=[70, 0]),
   midi.NoteOnEvent(tick=0, channel=0, data=[60, 0]),
   midi.NoteOnEvent(tick=0, channel=0, data=[65, 44]),
   midi.NoteOnEvent(tick=0, channel=0, data=[69, 44]),
   midi.NoteOnEvent(tick=480, channel=0, data=[69, 0]),
   midi.NoteOnEvent(tick=0, channel=0, data=[65, 0]),
   midi.NoteOnEvent(tick=480, channel=0, data=[75, 46]),
   midi.NoteOnEvent(tick=240, channel=0, data=[75, 0]),
   midi.NoteOnEvent(tick=240, channel=0, data=[74, 52]),
   midi.NoteOnEvent(tick=240, channel=0, data=[74, 0]),
   midi.NoteOnEvent(tick=240, channel=0, data=[69, 56]),
   midi.NoteOnEvent(tick=240, channel=0, data=[69, 0]),
   midi.NoteOnEvent(tick=240, channel=0, data=[70, 53]),
   midi.NoteOnEvent(tick=240, channel=0, data=[70, 0]),
   midi.NoteOnEvent(tick=240, channel=0, data=[65, 59]),
   midi.NoteOnEvent(tick=480, channel=0, data=[65, 0]),
   midi.NoteOnEvent(tick=480, channel=0, data=[75, 51]),
   midi.NoteOnEvent(tick=240, channel=0, data=[75, 0]),
   midi.NoteOnEvent(tick=240, channel=0, data=[74, 57]),
   midi.NoteOnEvent(tick=240, channel=0, data=[74, 0]),
   midi.NoteOnEvent(tick=240, channel=0, data=[69, 59]),
   midi.NoteOnEvent(tick=240, channel=0, data=[69, 0]),
   midi.NoteOnEvent(tick=240, channel=0, data=[70, 54]),
   midi.NoteOnEvent(tick=240, channel=0, data=[70, 0]),
   midi.NoteOnEvent(tick=240, channel=0, data=[65, 62]),
   midi.NoteOnEvent(tick=480, channel=0, data=[65, 0]),
   midi.NoteOnEvent(tick=600, channel=0, data=[65, 47]),
   midi.NoteOnEvent(tick=120, channel=0, data=[65, 0]),
   midi.NoteOnEvent(tick=0, channel=0, data=[60, 54]),
   midi.NoteOnEvent(tick=120, channel=0, data=[60, 0]),
   midi.NoteOnEvent(tick=0, channel=0, data=[57, 47]),
   midi.NoteOnEvent(tick=120, channel=0, data=[57, 0]),
   midi.NoteOnEvent(tick=0, channel=0, data=[53, 69]),
   midi.NoteOnEvent(tick=120, channel=0, data=[53, 0]),
   midi.NoteOnEvent(tick=360, channel=0, data=[41, 59]),
   midi.NoteOnEvent(tick=480, channel=0, data=[41, 0]),
   midi.NoteOnEvent(tick=480, channel=0, data=[58, 34]),
   midi.NoteOnEvent(tick=960, channel=0, data=[53, 30]),
   midi.NoteOnEvent(tick=20, channel=0, data=[58, 0]),
   midi.NoteOnEvent(tick=460, channel=0, data=[53, 0]),
   midi.NoteOnEvent(tick=0, channel=0, data=[50, 34]),
   midi.NoteOnEvent(tick=960, channel=0, data=[53, 32]),
   midi.NoteOnEvent(tick=20, channel=0, data=[50, 0]),
   midi.NoteOnEvent(tick=460, channel=0, data=[53, 0]),
   midi.NoteOnEvent(tick=0, channel=0, data=[58, 34]),
   midi.NoteOnEvent(tick=960, channel=0, data=[62, 36]),
   midi.NoteOnEvent(tick=20, channel=0, data=[58, 0]),
   midi.NoteOnEvent(tick=460, channel=0, data=[62, 0]),
   midi.NoteOnEvent(tick=0, channel=0, data=[65, 38]),
   midi.NoteOnEvent(tick=480, channel=0, data=[65, 0]),
   midi.NoteOnEvent(tick=960, channel=0, data=[51, 34]),
   midi.NoteOnEvent(tick=960, channel=0, data=[48, 30]),
   midi.NoteOnEvent(tick=20, channel=0, data=[51, 0]),
   midi.NoteOnEvent(tick=460, channel=0, data=[48, 0]),
   midi.NoteOnEvent(tick=0, channel=0, data=[45, 34]),
   midi.NoteOnEvent(tick=960, channel=0, data=[48, 32]),
   midi.NoteOnEvent(tick=20, channel=0, data=[45, 0]),
   midi.NoteOnEvent(tick=460, channel=0, data=[48, 0]),
   midi.NoteOnEvent(tick=0, channel=0, data=[51, 34]),
   midi.NoteOnEvent(tick=960, channel=0, data=[57, 36]),
   midi.NoteOnEvent(tick=20, channel=0, data=[51, 0]),
   midi.NoteOnEvent(tick=460, channel=0, data=[57, 0]),
   midi.NoteOnEvent(tick=0, channel=0, data=[60, 38]),
   midi.NoteOnEvent(tick=480, channel=0, data=[60, 0]),
   midi.NoteOnEvent(tick=960, channel=0, data=[62, 35]),
   midi.NoteOnEvent(tick=240, channel=0, data=[62, 0]),
   midi.NoteOnEvent(tick=0, channel=0, data=[65, 28]),
   midi.NoteOnEvent(tick=240, channel=0, data=[65, 0]),
   midi.NoteOnEvent(tick=0, channel=0, data=[62, 35]),
   midi.NoteOnEvent(tick=240, channel=0, data=[62, 0]),
   midi.NoteOnEvent(tick=0, channel=0, data=[65, 25]),
   midi.NoteOnEvent(tick=240, channel=0, data=[65, 0]),
   midi.NoteOnEvent(tick=0, channel=0, data=[62, 32]),
   midi.NoteOnEvent(tick=240, channel=0, data=[62, 0]),
   midi.NoteOnEvent(tick=0, channel=0, data=[65, 24]),
   midi.NoteOnEvent(tick=240, channel=0, data=[65, 0]),
   midi.NoteOnEvent(tick=0, channel=0, data=[63, 35]),
   midi.NoteOnEvent(tick=240, channel=0, data=[63, 0]),
   midi.NoteOnEvent(tick=0, channel=0, data=[65, 31]),
   midi.NoteOnEvent(tick=240, channel=0, data=[65, 0]),
   midi.NoteOnEvent(tick=0, channel=0, data=[63, 35]),
   midi.NoteOnEvent(tick=240, channel=0, data=[63, 0]),
   midi.NoteOnEvent(tick=0, channel=0, data=[65, 26]),
   midi.NoteOnEvent(tick=240, channel=0, data=[65, 0]),
   midi.NoteOnEvent(tick=0, channel=0, data=[63, 33]),
   midi.NoteOnEvent(tick=240, channel=0, data=[63, 0]),
   midi.NoteOnEvent(tick=0, channel=0, data=[65, 29]),
   midi.NoteOnEvent(tick=240, channel=0, data=[65, 0]),
   midi.NoteOnEvent(tick=0, channel=0, data=[62, 35]),
   midi.NoteOnEvent(tick=240, channel=0, data=[62, 0]),
   midi.NoteOnEvent(tick=0, channel=0, data=[65, 30]),
   midi.NoteOnEvent(tick=240, channel=0, data=[65, 0]),
   midi.NoteOnEvent(tick=0, channel=0, data=[62, 32]),
   midi.NoteOnEvent(tick=240, channel=0, data=[62, 0]),
   midi.NoteOnEvent(tick=0, channel=0, data=[65, 24]),
   midi.NoteOnEvent(tick=240, channel=0, data=[65, 0]),
   midi.NoteOnEvent(tick=0, channel=0, data=[62, 32]),
   midi.NoteOnEvent(tick=240, channel=0, data=[62, 0]),
   midi.NoteOnEvent(tick=0, channel=0, data=[65, 25]),
   midi.NoteOnEvent(tick=240, channel=0, data=[65, 0]),
   midi.NoteOnEvent(tick=0, channel=0, data=[63, 35]),
   midi.NoteOnEvent(tick=240, channel=0, data=[63, 0]),
   midi.NoteOnEvent(tick=0, channel=0, data=[65, 31]),
   midi.NoteOnEvent(tick=240, channel=0, data=[65, 0]),
   midi.NoteOnEvent(tick=0, channel=0, data=[63, 35]),
   midi.NoteOnEvent(tick=240, channel=0, data=[63, 0]),
   midi.NoteOnEvent(tick=0, channel=0, data=[65, 26]),
   midi.NoteOnEvent(tick=240, channel=0, data=[65, 0]),
   midi.NoteOnEvent(tick=0, channel=0, data=[63, 33]),
   midi.NoteOnEvent(tick=240, channel=0, data=[63, 0]),
   midi.NoteOnEvent(tick=0, channel=0, data=[65, 29]),
   midi.NoteOnEvent(tick=240, channel=0, data=[65, 0]),
   midi.NoteOnEvent(tick=0, channel=0, data=[61, 35]),
   midi.NoteOnEvent(tick=240, channel=0, data=[61, 0]),
   midi.NoteOnEvent(tick=0, channel=0, data=[65, 30]),
   midi.NoteOnEvent(tick=240, channel=0, data=[65, 0]),
   midi.NoteOnEvent(tick=0, channel=0, data=[61, 32]),
   midi.NoteOnEvent(tick=240, channel=0, data=[61, 0]),
   midi.NoteOnEvent(tick=0, channel=0, data=[65, 28]),
   midi.NoteOnEvent(tick=240, channel=0, data=[65, 0]),
   midi.NoteOnEvent(tick=0, channel=0, data=[61, 38]),
   midi.NoteOnEvent(tick=240, channel=0, data=[61, 0]),
   midi.NoteOnEvent(tick=0, channel=0, data=[65, 31]),
   midi.NoteOnEvent(tick=240, channel=0, data=[65, 0]),
   midi.NoteOnEvent(tick=0, channel=0, data=[55, 40]),
   midi.NoteOnEvent(tick=0, channel=0, data=[62, 40]),
   midi.NoteOnEvent(tick=240, channel=0, data=[62, 0]),
   midi.NoteOnEvent(tick=0, channel=0, data=[65, 34]),
   midi.NoteOnEvent(tick=240, channel=0, data=[65, 0]),
   midi.NoteOnEvent(tick=0, channel=0, data=[62, 38]),
   midi.NoteOnEvent(tick=240, channel=0, data=[62, 0]),
   midi.NoteOnEvent(tick=0, channel=0, data=[65, 32]),
   midi.NoteOnEvent(tick=240, channel=0, data=[65, 0]),
   midi.NoteOnEvent(tick=0, channel=0, data=[62, 39]),
   midi.NoteOnEvent(tick=240, channel=0, data=[62, 0]),
   midi.NoteOnEvent(tick=0, channel=0, data=[65, 32]),
   midi.NoteOnEvent(tick=240, channel=0, data=[65, 0]),
   midi.NoteOnEvent(tick=0, channel=0, data=[55, 0]),
   midi.NoteOnEvent(tick=0, channel=0, data=[60, 39]),
   midi.NoteOnEvent(tick=0, channel=0, data=[63, 39]),
   midi.NoteOnEvent(tick=480, channel=0, data=[63, 0]),
   midi.NoteOnEvent(tick=0, channel=0, data=[60, 0]),
   midi.NoteOnEvent(tick=0, channel=0, data=[65, 35]),
   midi.NoteOnEvent(tick=0, channel=0, data=[57, 35]),
   midi.NoteOnEvent(tick=480, channel=0, data=[57, 0]),
   midi.NoteOnEvent(tick=0, channel=0, data=[58, 35]),
   midi.NoteOnEvent(tick=480, channel=0, data=[58, 0]),
   midi.NoteOnEvent(tick=0, channel=0, data=[65, 0]),
   midi.NoteOnEvent(tick=0, channel=0, data=[51, 43]),
   midi.NoteOnEvent(tick=0, channel=0, data=[63, 43]),
   midi.NoteOnEvent(tick=480, channel=0, data=[63, 0]),
   midi.NoteOnEvent(tick=0, channel=0, data=[51, 0]),
   midi.NoteOnEvent(tick=0, channel=0, data=[53, 40]),
   midi.NoteOnEvent(tick=0, channel=0, data=[62, 40]),
   midi.NoteOnEvent(tick=480, channel=0, data=[62, 0]),
   midi.NoteOnEvent(tick=0, channel=0, data=[60, 40]),
   midi.NoteOnEvent(tick=480, channel=0, data=[60, 0]),
   midi.NoteOnEvent(tick=0, channel=0, data=[53, 0]),
   midi.NoteOnEvent(tick=0, channel=0, data=[58, 40]),
   midi.NoteOnEvent(tick=480, channel=0, data=[58, 0]),
   midi.NoteOnEvent(tick=240, channel=0, data=[50, 45]),
   midi.NoteOnEvent(tick=240, channel=0, data=[50, 0]),
   midi.NoteOnEvent(tick=0, channel=0, data=[48, 50]),
   midi.NoteOnEvent(tick=240, channel=0, data=[48, 0]),
   midi.NoteOnEvent(tick=0, channel=0, data=[46, 45]),
   midi.NoteOnEvent(tick=240, channel=0, data=[46, 0]),
   midi.NoteOnEvent(tick=0, channel=0, data=[45, 40]),
   midi.NoteOnEvent(tick=480, channel=0, data=[45, 0]),
   midi.NoteOnEvent(tick=240, channel=0, data=[55, 45]),
   midi.NoteOnEvent(tick=240, channel=0, data=[55, 0]),
   midi.NoteOnEvent(tick=0, channel=0, data=[53, 50]),
   midi.NoteOnEvent(tick=240, channel=0, data=[53, 0]),
   midi.NoteOnEvent(tick=0, channel=0, data=[45, 45]),
   midi.NoteOnEvent(tick=240, channel=0, data=[45, 0]),
   midi.NoteOnEvent(tick=0, channel=0, data=[46, 40]),
   midi.NoteOnEvent(tick=480, channel=0, data=[46, 0]),
   midi.NoteOnEvent(tick=240, channel=0, data=[62, 48]),
   midi.NoteOnEvent(tick=240, channel=0, data=[62, 0]),
   midi.NoteOnEvent(tick=0, channel=0, data=[60, 52]),
   midi.NoteOnEvent(tick=240, channel=0, data=[60, 0]),
   midi.NoteOnEvent(tick=0, channel=0, data=[58, 48]),
   midi.NoteOnEvent(tick=240, channel=0, data=[58, 0]),
   midi.NoteOnEvent(tick=0, channel=0, data=[57, 48]),
   midi.NoteOnEvent(tick=480, channel=0, data=[57, 0]),
   midi.NoteOnEvent(tick=240, channel=0, data=[67, 49]),
   midi.NoteOnEvent(tick=240, channel=0, data=[67, 0]),
   midi.NoteOnEvent(tick=0, channel=0, data=[65, 50]),
   midi.NoteOnEvent(tick=240, channel=0, data=[65, 0]),
   midi.NoteOnEvent(tick=0, channel=0, data=[57, 46]),
   midi.NoteOnEvent(tick=240, channel=0, data=[57, 0]),
   midi.NoteOnEvent(tick=0, channel=0, data=[58, 50]),
   midi.NoteOnEvent(tick=480, channel=0, data=[58, 0]),
   midi.NoteOnEvent(tick=240, channel=0, data=[65, 50]),
   midi.NoteOnEvent(tick=240, channel=0, data=[65, 0]),
   midi.NoteOnEvent(tick=0, channel=0, data=[62, 54]),
   midi.NoteOnEvent(tick=240, channel=0, data=[62, 0]),
   midi.NoteOnEvent(tick=0, channel=0, data=[60, 51]),
   midi.NoteOnEvent(tick=240, channel=0, data=[60, 0]),
   midi.NoteOnEvent(tick=0, channel=0, data=[59, 54]),
   midi.NoteOnEvent(tick=480, channel=0, data=[59, 0]),
   midi.NoteOnEvent(tick=240, channel=0, data=[68, 45]),
   midi.NoteOnEvent(tick=240, channel=0, data=[68, 0]),
   midi.NoteOnEvent(tick=0, channel=0, data=[67, 50]),
   midi.NoteOnEvent(tick=240, channel=0, data=[67, 0]),
   midi.NoteOnEvent(tick=0, channel=0, data=[59, 45]),
   midi.NoteOnEvent(tick=240, channel=0, data=[59, 0]),
   midi.NoteOnEvent(tick=0, channel=0, data=[60, 42]),
   midi.NoteOnEvent(tick=120, channel=0, data=[60, 0]),
   midi.NoteOnEvent(tick=0, channel=0, data=[67, 33]),
   midi.NoteOnEvent(tick=120, channel=0, data=[67, 0]),
   midi.NoteOnEvent(tick=0, channel=0, data=[64, 36]),
   midi.NoteOnEvent(tick=120, channel=0, data=[64, 0]),
   midi.NoteOnEvent(tick=0, channel=0, data=[67, 33]),
   midi.NoteOnEvent(tick=120, channel=0, data=[67, 0]),
   midi.NoteOnEvent(tick=0, channel=0, data=[57, 38]),
   midi.NoteOnEvent(tick=120, channel=0, data=[57, 0]),
   midi.NoteOnEvent(tick=0, channel=0, data=[66, 33]),
   midi.NoteOnEvent(tick=120, channel=0, data=[66, 0]),
   midi.NoteOnEvent(tick=0, channel=0, data=[60, 36]),
   midi.NoteOnEvent(tick=120, channel=0, data=[60, 0]),
   midi.NoteOnEvent(tick=0, channel=0, data=[66, 33]),
   midi.NoteOnEvent(tick=120, channel=0, data=[66, 0]),
   midi.NoteOnEvent(tick=0, channel=0, data=[58, 39]),
   midi.NoteOnEvent(tick=120, channel=0, data=[58, 0]),
   midi.NoteOnEvent(tick=0, channel=0, data=[65, 33]),
   midi.NoteOnEvent(tick=120, channel=0, data=[65, 0]),
   midi.NoteOnEvent(tick=0, channel=0, data=[62, 37]),
   midi.NoteOnEvent(tick=120, channel=0, data=[62, 0]),
   midi.NoteOnEvent(tick=0, channel=0, data=[65, 37]),
   midi.NoteOnEvent(tick=120, channel=0, data=[65, 0]),
   midi.NoteOnEvent(tick=0, channel=0, data=[51, 31]),
   midi.NoteOnEvent(tick=0, channel=0, data=[63, 37]),
   midi.NoteOnEvent(tick=480, channel=0, data=[63, 0]),
   midi.NoteOnEvent(tick=0, channel=0, data=[51, 0]),
   midi.NoteOnEvent(tick=0, channel=0, data=[53, 31]),
   midi.NoteOnEvent(tick=0, channel=0, data=[62, 37]),
   midi.NoteOnEvent(tick=480, channel=0, data=[62, 0]),
   midi.NoteOnEvent(tick=0, channel=0, data=[53, 0]),
   midi.NoteOnEvent(tick=0, channel=0, data=[51, 31]),
   midi.NoteOnEvent(tick=0, channel=0, data=[60, 37]),
   midi.NoteOnEvent(tick=480, channel=0, data=[60, 0]),
   midi.NoteOnEvent(tick=0, channel=0, data=[51, 0]),
   midi.NoteOnEvent(tick=0, channel=0, data=[50, 34]),
   midi.NoteOnEvent(tick=0, channel=0, data=[58, 40]),
   midi.NoteOnEvent(tick=480, channel=0, data=[58, 0]),
   midi.NoteOnEvent(tick=0, channel=0, data=[50, 0]),
   midi.NoteOnEvent(tick=480, channel=0, data=[65, 37]),
   midi.NoteOnEvent(tick=0, channel=0, data=[62, 31]),
   midi.NoteOnEvent(tick=480, channel=0, data=[62, 0]),
   midi.NoteOnEvent(tick=0, channel=0, data=[65, 0]),
   midi.NoteOnEvent(tick=0, channel=0, data=[63, 37]),
   midi.NoteOnEvent(tick=0, channel=0, data=[67, 44]),
   midi.NoteOnEvent(tick=480, channel=0, data=[67, 0]),
   midi.NoteOnEvent(tick=0, channel=0, data=[63, 0]),
   midi.NoteOnEvent(tick=480, channel=0, data=[55, 31]),
   midi.NoteOnEvent(tick=0, channel=0, data=[58, 31]),
   midi.NoteOnEvent(tick=0, channel=0, data=[60, 37]),
   midi.NoteOnEvent(tick=480, channel=0, data=[60, 0]),
   midi.NoteOnEvent(tick=0, channel=0, data=[58, 0]),
   midi.NoteOnEvent(tick=0, channel=0, data=[55, 0]),
   midi.NoteOnEvent(tick=0, channel=0, data=[53, 45]),
   midi.NoteOnEvent(tick=120, channel=0, data=[53, 0]),
   midi.NoteOnEvent(tick=0, channel=0, data=[62, 37]),
   midi.NoteOnEvent(tick=120, channel=0, data=[62, 0]),
   midi.NoteOnEvent(tick=0, channel=0, data=[58, 40]),
   midi.NoteOnEvent(tick=120, channel=0, data=[58, 0]),
   midi.NoteOnEvent(tick=0, channel=0, data=[62, 37]),
   midi.NoteOnEvent(tick=120, channel=0, data=[62, 0]),
   midi.NoteOnEvent(tick=0, channel=0, data=[53, 45]),
   midi.NoteOnEvent(tick=120, channel=0, data=[53, 0]),
   midi.NoteOnEvent(tick=0, channel=0, data=[62, 37]),
   midi.NoteOnEvent(tick=120, channel=0, data=[62, 0]),
   midi.NoteOnEvent(tick=0, channel=0, data=[58, 40]),
   midi.NoteOnEvent(tick=120, channel=0, data=[58, 0]),
   midi.NoteOnEvent(tick=0, channel=0, data=[62, 37]),
   midi.NoteOnEvent(tick=120, channel=0, data=[62, 0]),
   midi.NoteOnEvent(tick=0, channel=0, data=[53, 48]),
   midi.NoteOnEvent(tick=120, channel=0, data=[53, 0]),
   midi.NoteOnEvent(tick=0, channel=0, data=[62, 37]),
   midi.NoteOnEvent(tick=120, channel=0, data=[62, 0]),
   midi.NoteOnEvent(tick=0, channel=0, data=[58, 41]),
   midi.NoteOnEvent(tick=120, channel=0, data=[58, 0]),
   midi.NoteOnEvent(tick=0, channel=0, data=[62, 37]),
   midi.NoteOnEvent(tick=120, channel=0, data=[62, 0]),
   midi.NoteOnEvent(tick=0, channel=0, data=[53, 45]),
   midi.NoteOnEvent(tick=120, channel=0, data=[53, 0]),
   midi.NoteOnEvent(tick=0, channel=0, data=[63, 37]),
   midi.NoteOnEvent(tick=120, channel=0, data=[63, 0]),
   midi.NoteOnEvent(tick=0, channel=0, data=[57, 40]),
   midi.NoteOnEvent(tick=120, channel=0, data=[57, 0]),
   midi.NoteOnEvent(tick=0, channel=0, data=[63, 37]),
   midi.NoteOnEvent(tick=120, channel=0, data=[63, 0]),
   midi.NoteOnEvent(tick=0, channel=0, data=[53, 45]),
   midi.NoteOnEvent(tick=120, channel=0, data=[53, 0]),
   midi.NoteOnEvent(tick=0, channel=0, data=[63, 37]),
   midi.NoteOnEvent(tick=120, channel=0, data=[63, 0]),
   midi.NoteOnEvent(tick=0, channel=0, data=[57, 40]),
   midi.NoteOnEvent(tick=120, channel=0, data=[57, 0]),
   midi.NoteOnEvent(tick=0, channel=0, data=[63, 37]),
   midi.NoteOnEvent(tick=120, channel=0, data=[63, 0]),
   midi.NoteOnEvent(tick=0, channel=0, data=[53, 48]),
   midi.NoteOnEvent(tick=120, channel=0, data=[53, 0]),
   midi.NoteOnEvent(tick=0, channel=0, data=[63, 37]),
   midi.NoteOnEvent(tick=120, channel=0, data=[63, 0]),
   midi.NoteOnEvent(tick=0, channel=0, data=[57, 41]),
   midi.NoteOnEvent(tick=120, channel=0, data=[57, 0]),
   midi.NoteOnEvent(tick=0, channel=0, data=[63, 37]),
   midi.NoteOnEvent(tick=120, channel=0, data=[63, 0]),
   midi.NoteOnEvent(tick=0, channel=0, data=[58, 41]),
   midi.NoteOnEvent(tick=240, channel=0, data=[62, 28]),
   midi.NoteOnEvent(tick=12, channel=0, data=[58, 0]),
   midi.NoteOnEvent(tick=228, channel=0, data=[65, 35]),
   midi.NoteOnEvent(tick=12, channel=0, data=[62, 0]),
   midi.NoteOnEvent(tick=228, channel=0, data=[70, 34]),
   midi.NoteOnEvent(tick=12, channel=0, data=[65, 0]),
   midi.NoteOnEvent(tick=228, channel=0, data=[69, 32]),
   midi.NoteOnEvent(tick=12, channel=0, data=[70, 0]),
   midi.NoteOnEvent(tick=228, channel=0, data=[68, 30]),
   midi.NoteOnEvent(tick=12, channel=0, data=[69, 0]),
   midi.NoteOnEvent(tick=228, channel=0, data=[67, 28]),
   midi.NoteOnEvent(tick=12, channel=0, data=[68, 0]),
   midi.NoteOnEvent(tick=228, channel=0, data=[67, 0]),
   midi.NoteOnEvent(tick=0, channel=0, data=[70, 21]),
   midi.NoteOnEvent(tick=240, channel=0, data=[70, 0]),
   midi.NoteOnEvent(tick=0, channel=0, data=[65, 31]),
   midi.NoteOnEvent(tick=240, channel=0, data=[65, 0]),
   midi.NoteOnEvent(tick=0, channel=0, data=[70, 24]),
   midi.NoteOnEvent(tick=240, channel=0, data=[70, 0]),
   midi.NoteOnEvent(tick=0, channel=0, data=[63, 31]),
   midi.NoteOnEvent(tick=240, channel=0, data=[63, 0]),
   midi.NoteOnEvent(tick=0, channel=0, data=[70, 25]),
   midi.NoteOnEvent(tick=240, channel=0, data=[70, 0]),
   midi.NoteOnEvent(tick=0, channel=0, data=[62, 31]),
   midi.NoteOnEvent(tick=240, channel=0, data=[62, 0]),
   midi.NoteOnEvent(tick=0, channel=0, data=[70, 28]),
   midi.NoteOnEvent(tick=240, channel=0, data=[70, 0]),
   midi.NoteOnEvent(tick=0, channel=0, data=[69, 31]),
   midi.NoteOnEvent(tick=240, channel=0, data=[69, 0]),
   midi.NoteOnEvent(tick=0, channel=0, data=[70, 28]),
   midi.NoteOnEvent(tick=240, channel=0, data=[70, 0]),
   midi.NoteOnEvent(tick=0, channel=0, data=[55, 31]),
   midi.NoteOnEvent(tick=240, channel=0, data=[55, 0]),
   midi.NoteOnEvent(tick=0, channel=0, data=[63, 27]),
   midi.NoteOnEvent(tick=240, channel=0, data=[63, 0]),
   midi.NoteOnEvent(tick=0, channel=0, data=[53, 31]),
   midi.NoteOnEvent(tick=240, channel=0, data=[53, 0]),
   midi.NoteOnEvent(tick=0, channel=0, data=[62, 27]),
   midi.NoteOnEvent(tick=240, channel=0, data=[62, 0]),
   midi.NoteOnEvent(tick=0, channel=0, data=[58, 31]),
   midi.NoteOnEvent(tick=240, channel=0, data=[58, 0]),
   midi.NoteOnEvent(tick=0, channel=0, data=[62, 29]),
   midi.NoteOnEvent(tick=240, channel=0, data=[62, 0]),
   midi.NoteOnEvent(tick=0, channel=0, data=[53, 31]),
   midi.NoteOnEvent(tick=240, channel=0, data=[53, 0]),
   midi.NoteOnEvent(tick=0, channel=0, data=[63, 27]),
   midi.NoteOnEvent(tick=240, channel=0, data=[63, 0]),
   midi.NoteOnEvent(tick=0, channel=0, data=[62, 31]),
   midi.NoteOnEvent(tick=240, channel=0, data=[62, 0]),
   midi.NoteOnEvent(tick=0, channel=0, data=[58, 24]),
   midi.NoteOnEvent(tick=240, channel=0, data=[58, 0]),
   midi.NoteOnEvent(tick=0, channel=0, data=[57, 30]),
   midi.NoteOnEvent(tick=240, channel=0, data=[57, 0]),
   midi.NoteOnEvent(tick=0, channel=0, data=[56, 26]),
   midi.NoteOnEvent(tick=240, channel=0, data=[56, 0]),
   midi.NoteOnEvent(tick=0, channel=0, data=[55, 29]),
   midi.NoteOnEvent(tick=240, channel=0, data=[55, 0]),
   midi.NoteOnEvent(tick=0, channel=0, data=[54, 31]),
   midi.NoteOnEvent(tick=240, channel=0, data=[54, 0]),
   midi.NoteOnEvent(tick=0, channel=0, data=[55, 28]),
   midi.NoteOnEvent(tick=240, channel=0, data=[55, 0]),
   midi.NoteOnEvent(tick=0, channel=0, data=[58, 27]),
   midi.NoteOnEvent(tick=240, channel=0, data=[58, 0]),
   midi.NoteOnEvent(tick=0, channel=0, data=[53, 38]),
   midi.NoteOnEvent(tick=240, channel=0, data=[53, 0]),
   midi.NoteOnEvent(tick=0, channel=0, data=[57, 32]),
   midi.NoteOnEvent(tick=240, channel=0, data=[57, 0]),
   midi.NoteOnEvent(tick=0, channel=0, data=[52, 40]),
   midi.NoteOnEvent(tick=240, channel=0, data=[52, 0]),
   midi.NoteOnEvent(tick=0, channel=0, data=[61, 34]),
   midi.NoteOnEvent(tick=240, channel=0, data=[61, 0]),
   midi.NoteOnEvent(tick=0, channel=0, data=[53, 41]),
   midi.NoteOnEvent(tick=240, channel=0, data=[53, 0]),
   midi.NoteOnEvent(tick=0, channel=0, data=[62, 35]),
   midi.NoteOnEvent(tick=240, channel=0, data=[62, 0]),
   midi.NoteOnEvent(tick=0, channel=0, data=[58, 38]),
   midi.NoteOnEvent(tick=240, channel=0, data=[58, 0]),
   midi.NoteOnEvent(tick=0, channel=0, data=[62, 33]),
   midi.NoteOnEvent(tick=240, channel=0, data=[62, 0]),
   midi.NoteOnEvent(tick=0, channel=0, data=[53, 40]),
   midi.NoteOnEvent(tick=240, channel=0, data=[53, 0]),
   midi.NoteOnEvent(tick=0, channel=0, data=[62, 35]),
   midi.NoteOnEvent(tick=240, channel=0, data=[62, 0]),
   midi.NoteOnEvent(tick=0, channel=0, data=[53, 41]),
   midi.NoteOnEvent(tick=240, channel=0, data=[53, 0]),
   midi.NoteOnEvent(tick=0, channel=0, data=[65, 33]),
   midi.NoteOnEvent(tick=240, channel=0, data=[65, 0]),
   midi.NoteOnEvent(tick=0, channel=0, data=[62, 43]),
   midi.NoteOnEvent(tick=240, channel=0, data=[62, 0]),
   midi.NoteOnEvent(tick=0, channel=0, data=[65, 33]),
   midi.NoteOnEvent(tick=240, channel=0, data=[65, 0]),
   midi.NoteOnEvent(tick=0, channel=0, data=[53, 45]),
   midi.NoteOnEvent(tick=240, channel=0, data=[53, 0]),
   midi.NoteOnEvent(tick=0, channel=0, data=[63, 38]),
   midi.NoteOnEvent(tick=240, channel=0, data=[63, 0]),
   midi.NoteOnEvent(tick=120, channel=0, data=[58, 54]),
   midi.NoteOnEvent(tick=120, channel=0, data=[58, 0]),
   midi.NoteOnEvent(tick=0, channel=0, data=[62, 56]),
   midi.NoteOnEvent(tick=120, channel=0, data=[62, 0]),
   midi.NoteOnEvent(tick=0, channel=0, data=[65, 59]),
   midi.NoteOnEvent(tick=120, channel=0, data=[65, 0]),
   midi.NoteOnEvent(tick=0, channel=0, data=[70, 61]),
   midi.NoteOnEvent(tick=240, channel=0, data=[70, 0]),
   midi.NoteOnEvent(tick=240, channel=0, data=[53, 54]),
   midi.NoteOnEvent(tick=0, channel=0, data=[57, 54]),
   midi.NoteOnEvent(tick=240, channel=0, data=[57, 0]),
   midi.NoteOnEvent(tick=0, channel=0, data=[53, 0]),
   midi.NoteOnEvent(tick=360, channel=0, data=[46, 54]),
   midi.NoteOnEvent(tick=120, channel=0, data=[46, 0]),
   midi.NoteOnEvent(tick=0, channel=0, data=[50, 56]),
   midi.NoteOnEvent(tick=120, channel=0, data=[50, 0]),
   midi.NoteOnEvent(tick=0, channel=0, data=[53, 59]),
   midi.NoteOnEvent(tick=120, channel=0, data=[53, 0]),
   midi.NoteOnEvent(tick=0, channel=0, data=[58, 61]),
   midi.NoteOnEvent(tick=240, channel=0, data=[58, 0]),
   midi.NoteOnEvent(tick=240, channel=0, data=[41, 54]),
   midi.NoteOnEvent(tick=0, channel=0, data=[45, 54]),
   midi.NoteOnEvent(tick=240, channel=0, data=[45, 0]),
   midi.NoteOnEvent(tick=0, channel=0, data=[41, 0]),
   midi.NoteOnEvent(tick=240, channel=0, data=[46, 59]),
   midi.NoteOnEvent(tick=168, channel=0, data=[46, 0]),
   midi.NoteOnEvent(tick=312, channel=0, data=[34, 59]),
   midi.NoteOnEvent(tick=480, channel=0, data=[34, 0]),
   midi.NoteOnEvent(tick=480, channel=0, data=[51, 59]),
   midi.NoteOnEvent(tick=480, channel=0, data=[51, 0]),
   midi.NoteOnEvent(tick=0, channel=0, data=[39, 59]),
   midi.NoteOnEvent(tick=480, channel=0, data=[39, 0]),
   midi.NoteOnEvent(tick=480, channel=0, data=[49, 20]),
   midi.NoteOnEvent(tick=0, channel=0, data=[53, 33]),
   midi.NoteOnEvent(tick=240, channel=0, data=[53, 0]),
   midi.NoteOnEvent(tick=0, channel=0, data=[56, 23]),
   midi.NoteOnEvent(tick=240, channel=0, data=[56, 0]),
   midi.NoteOnEvent(tick=0, channel=0, data=[53, 27]),
   midi.NoteOnEvent(tick=240, channel=0, data=[53, 0]),
   midi.NoteOnEvent(tick=0, channel=0, data=[56, 22]),
   midi.NoteOnEvent(tick=240, channel=0, data=[56, 0]),
   midi.NoteOnEvent(tick=0, channel=0, data=[53, 26]),
   midi.NoteOnEvent(tick=240, channel=0, data=[53, 0]),
   midi.NoteOnEvent(tick=0, channel=0, data=[56, 22]),
   midi.NoteOnEvent(tick=240, channel=0, data=[56, 0]),
   midi.NoteOnEvent(tick=0, channel=0, data=[49, 0]),
   midi.NoteOnEvent(tick=0, channel=0, data=[48, 20]),
   midi.NoteOnEvent(tick=0, channel=0, data=[54, 36]),
   midi.NoteOnEvent(tick=240, channel=0, data=[54, 0]),
   midi.NoteOnEvent(tick=0, channel=0, data=[56, 23]),
   midi.NoteOnEvent(tick=240, channel=0, data=[56, 0]),
   midi.NoteOnEvent(tick=0, channel=0, data=[54, 27]),
   midi.NoteOnEvent(tick=240, channel=0, data=[54, 0]),
   midi.NoteOnEvent(tick=0, channel=0, data=[56, 23]),
   midi.NoteOnEvent(tick=240, channel=0, data=[56, 0]),
   midi.NoteOnEvent(tick=0, channel=0, data=[54, 27]),
   midi.NoteOnEvent(tick=240, channel=0, data=[54, 0]),
   midi.NoteOnEvent(tick=0, channel=0, data=[56, 24]),
   midi.NoteOnEvent(tick=240, channel=0, data=[56, 0]),
   midi.NoteOnEvent(tick=0, channel=0, data=[48, 0]),
   midi.NoteOnEvent(tick=0, channel=0, data=[49, 20]),
   midi.NoteOnEvent(tick=0, channel=0, data=[53, 33]),
   midi.NoteOnEvent(tick=240, channel=0, data=[53, 0]),
   midi.NoteOnEvent(tick=0, channel=0, data=[56, 23]),
   midi.NoteOnEvent(tick=240, channel=0, data=[56, 0]),
   midi.NoteOnEvent(tick=0, channel=0, data=[53, 27]),
   midi.NoteOnEvent(tick=240, channel=0, data=[53, 0]),
   midi.NoteOnEvent(tick=0, channel=0, data=[56, 23]),
   midi.NoteOnEvent(tick=240, channel=0, data=[56, 0]),
   midi.NoteOnEvent(tick=0, channel=0, data=[53, 27]),
   midi.NoteOnEvent(tick=240, channel=0, data=[53, 0]),
   midi.NoteOnEvent(tick=0, channel=0, data=[56, 25]),
   midi.NoteOnEvent(tick=240, channel=0, data=[56, 0]),
   midi.NoteOnEvent(tick=0, channel=0, data=[49, 0]),
   midi.NoteOnEvent(tick=0, channel=0, data=[48, 20]),
   midi.NoteOnEvent(tick=0, channel=0, data=[54, 31]),
   midi.NoteOnEvent(tick=240, channel=0, data=[54, 0]),
   midi.NoteOnEvent(tick=0, channel=0, data=[56, 27]),
   midi.NoteOnEvent(tick=240, channel=0, data=[56, 0]),
   midi.NoteOnEvent(tick=0, channel=0, data=[54, 27]),
   midi.NoteOnEvent(tick=240, channel=0, data=[54, 0]),
   midi.NoteOnEvent(tick=0, channel=0, data=[56, 24]),
   midi.NoteOnEvent(tick=240, channel=0, data=[56, 0]),
   midi.NoteOnEvent(tick=0, channel=0, data=[54, 27]),
   midi.NoteOnEvent(tick=240, channel=0, data=[54, 0]),
   midi.NoteOnEvent(tick=0, channel=0, data=[56, 23]),
   midi.NoteOnEvent(tick=240, channel=0, data=[56, 0]),
   midi.NoteOnEvent(tick=0, channel=0, data=[48, 0]),
   midi.NoteOnEvent(tick=0, channel=0, data=[49, 21]),
   midi.NoteOnEvent(tick=0, channel=0, data=[53, 35]),
   midi.NoteOnEvent(tick=240, channel=0, data=[53, 0]),
   midi.NoteOnEvent(tick=0, channel=0, data=[56, 24]),
   midi.NoteOnEvent(tick=240, channel=0, data=[56, 0]),
   midi.NoteOnEvent(tick=0, channel=0, data=[53, 28]),
   midi.NoteOnEvent(tick=240, channel=0, data=[53, 0]),
   midi.NoteOnEvent(tick=0, channel=0, data=[56, 23]),
   midi.NoteOnEvent(tick=240, channel=0, data=[56, 0]),
   midi.NoteOnEvent(tick=0, channel=0, data=[53, 27]),
   midi.NoteOnEvent(tick=240, channel=0, data=[53, 0]),
   midi.NoteOnEvent(tick=0, channel=0, data=[56, 23]),
   midi.NoteOnEvent(tick=240, channel=0, data=[56, 0]),
   midi.NoteOnEvent(tick=0, channel=0, data=[49, 0]),
   midi.NoteOnEvent(tick=0, channel=0, data=[48, 21]),
   midi.NoteOnEvent(tick=0, channel=0, data=[51, 38]),
   midi.NoteOnEvent(tick=240, channel=0, data=[51, 0]),
   midi.NoteOnEvent(tick=0, channel=0, data=[54, 24]),
   midi.NoteOnEvent(tick=240, channel=0, data=[54, 0]),
   midi.NoteOnEvent(tick=0, channel=0, data=[51, 32]),
   midi.NoteOnEvent(tick=240, channel=0, data=[51, 0]),
   midi.NoteOnEvent(tick=0, channel=0, data=[54, 28]),
   midi.NoteOnEvent(tick=240, channel=0, data=[54, 0]),
   midi.NoteOnEvent(tick=0, channel=0, data=[51, 32]),
   midi.NoteOnEvent(tick=240, channel=0, data=[51, 0]),
   midi.NoteOnEvent(tick=0, channel=0, data=[54, 27]),
   midi.NoteOnEvent(tick=240, channel=0, data=[54, 0]),
   midi.NoteOnEvent(tick=0, channel=0, data=[48, 0]),
   midi.NoteOnEvent(tick=0, channel=0, data=[49, 23]),
   midi.NoteOnEvent(tick=0, channel=0, data=[53, 37]),
   midi.NoteOnEvent(tick=240, channel=0, data=[53, 0]),
   midi.NoteOnEvent(tick=0, channel=0, data=[58, 32]),
   midi.NoteOnEvent(tick=240, channel=0, data=[58, 0]),
   midi.NoteOnEvent(tick=0, channel=0, data=[53, 34]),
   midi.NoteOnEvent(tick=240, channel=0, data=[53, 0]),
   midi.NoteOnEvent(tick=0, channel=0, data=[58, 29]),
   midi.NoteOnEvent(tick=240, channel=0, data=[58, 0]),
   midi.NoteOnEvent(tick=0, channel=0, data=[53, 30]),
   midi.NoteOnEvent(tick=240, channel=0, data=[53, 0]),
   midi.NoteOnEvent(tick=0, channel=0, data=[58, 28]),
   midi.NoteOnEvent(tick=240, channel=0, data=[58, 0]),
   midi.NoteOnEvent(tick=0, channel=0, data=[49, 0]),
   midi.NoteOnEvent(tick=0, channel=0, data=[52, 23]),
   midi.NoteOnEvent(tick=0, channel=0, data=[58, 37]),
   midi.NoteOnEvent(tick=240, channel=0, data=[58, 0]),
   midi.NoteOnEvent(tick=0, channel=0, data=[61, 30]),
   midi.NoteOnEvent(tick=240, channel=0, data=[61, 0]),
   midi.NoteOnEvent(tick=0, channel=0, data=[58, 30]),
   midi.NoteOnEvent(tick=240, channel=0, data=[58, 0]),
   midi.NoteOnEvent(tick=0, channel=0, data=[61, 27]),
   midi.NoteOnEvent(tick=240, channel=0, data=[58, 30]),
   midi.NoteOnEvent(tick=12, channel=0, data=[61, 0]),
   midi.NoteOnEvent(tick=228, channel=0, data=[58, 0]),
   midi.NoteOnEvent(tick=0, channel=0, data=[61, 26]),
   midi.NoteOnEvent(tick=240, channel=0, data=[61, 0]),
   midi.NoteOnEvent(tick=0, channel=0, data=[52, 0]),
   midi.NoteOnEvent(tick=0, channel=0, data=[53, 25]),
   midi.NoteOnEvent(tick=0, channel=0, data=[56, 40]),
   midi.NoteOnEvent(tick=240, channel=0, data=[56, 0]),
   midi.NoteOnEvent(tick=0, channel=0, data=[60, 28]),
   midi.NoteOnEvent(tick=240, channel=0, data=[60, 0]),
   midi.NoteOnEvent(tick=0, channel=0, data=[56, 33]),
   midi.NoteOnEvent(tick=240, channel=0, data=[56, 0]),
   midi.NoteOnEvent(tick=0, channel=0, data=[60, 28]),
   midi.NoteOnEvent(tick=240, channel=0, data=[60, 0]),
   midi.NoteOnEvent(tick=0, channel=0, data=[56, 36]),
   midi.NoteOnEvent(tick=240, channel=0, data=[56, 0]),
   midi.NoteOnEvent(tick=0, channel=0, data=[60, 32]),
   midi.NoteOnEvent(tick=240, channel=0, data=[60, 0]),
   midi.NoteOnEvent(tick=0, channel=0, data=[53, 0]),
   midi.NoteOnEvent(tick=0, channel=0, data=[55, 36]),
   midi.NoteOnEvent(tick=0, channel=0, data=[62, 36]),
   midi.NoteOnEvent(tick=240, channel=0, data=[62, 0]),
   midi.NoteOnEvent(tick=0, channel=0, data=[65, 29]),
   midi.NoteOnEvent(tick=240, channel=0, data=[65, 0]),
   midi.NoteOnEvent(tick=0, channel=0, data=[62, 34]),
   midi.NoteOnEvent(tick=240, channel=0, data=[62, 0]),
   midi.NoteOnEvent(tick=0, channel=0, data=[65, 28]),
   midi.NoteOnEvent(tick=240, channel=0, data=[62, 35]),
   midi.NoteOnEvent(tick=12, channel=0, data=[65, 0]),
   midi.NoteOnEvent(tick=228, channel=0, data=[62, 0]),
   midi.NoteOnEvent(tick=0, channel=0, data=[65, 28]),
   midi.NoteOnEvent(tick=240, channel=0, data=[65, 0]),
   midi.NoteOnEvent(tick=0, channel=0, data=[55, 0]),
   midi.NoteOnEvent(tick=0, channel=0, data=[56, 42]),
   midi.NoteOnEvent(tick=0, channel=0, data=[60, 42]),
   midi.NoteOnEvent(tick=240, channel=0, data=[60, 0]),
   midi.NoteOnEvent(tick=0, channel=0, data=[63, 26]),
   midi.NoteOnEvent(tick=240, channel=0, data=[63, 0]),
   midi.NoteOnEvent(tick=0, channel=0, data=[60, 38]),
   midi.NoteOnEvent(tick=240, channel=0, data=[60, 0]),
   midi.NoteOnEvent(tick=0, channel=0, data=[63, 31]),
   midi.NoteOnEvent(tick=240, channel=0, data=[63, 0]),
   midi.NoteOnEvent(tick=0, channel=0, data=[60, 38]),
   midi.NoteOnEvent(tick=240, channel=0, data=[60, 0]),
   midi.NoteOnEvent(tick=0, channel=0, data=[63, 35]),
   midi.NoteOnEvent(tick=240, channel=0, data=[63, 0]),
   midi.NoteOnEvent(tick=0, channel=0, data=[56, 0]),
   midi.NoteOnEvent(tick=0, channel=0, data=[57, 41]),
   midi.NoteOnEvent(tick=0, channel=0, data=[60, 41]),
   midi.NoteOnEvent(tick=240, channel=0, data=[60, 0]),
   midi.NoteOnEvent(tick=0, channel=0, data=[62, 33]),
   midi.NoteOnEvent(tick=240, channel=0, data=[62, 0]),
   midi.NoteOnEvent(tick=0, channel=0, data=[60, 37]),
   midi.NoteOnEvent(tick=240, channel=0, data=[60, 0]),
   midi.NoteOnEvent(tick=0, channel=0, data=[62, 28]),
   midi.NoteOnEvent(tick=240, channel=0, data=[60, 35]),
   midi.NoteOnEvent(tick=12, channel=0, data=[62, 0]),
   midi.NoteOnEvent(tick=228, channel=0, data=[60, 0]),
   midi.NoteOnEvent(tick=0, channel=0, data=[62, 28]),
   midi.NoteOnEvent(tick=240, channel=0, data=[62, 0]),
   midi.NoteOnEvent(tick=0, channel=0, data=[57, 0]),
   midi.NoteOnEvent(tick=0, channel=0, data=[58, 22]),
   midi.NoteOnEvent(tick=0, channel=0, data=[62, 36]),
   midi.NoteOnEvent(tick=240, channel=0, data=[62, 0]),
   midi.NoteOnEvent(tick=0, channel=0, data=[67, 29]),
   midi.NoteOnEvent(tick=240, channel=0, data=[67, 0]),
   midi.NoteOnEvent(tick=0, channel=0, data=[62, 34]),
   midi.NoteOnEvent(tick=240, channel=0, data=[62, 0]),
   midi.NoteOnEvent(tick=0, channel=0, data=[67, 28]),
   midi.NoteOnEvent(tick=240, channel=0, data=[67, 0]),
   midi.NoteOnEvent(tick=0, channel=0, data=[62, 34]),
   midi.NoteOnEvent(tick=240, channel=0, data=[62, 0]),
   midi.NoteOnEvent(tick=0, channel=0, data=[67, 27]),
   midi.NoteOnEvent(tick=240, channel=0, data=[67, 0]),
   midi.NoteOnEvent(tick=0, channel=0, data=[58, 0]),
   midi.NoteOnEvent(tick=0, channel=0, data=[63, 29]),
   midi.NoteOnEvent(tick=0, channel=0, data=[67, 36]),
   midi.NoteOnEvent(tick=240, channel=0, data=[67, 0]),
   midi.NoteOnEvent(tick=0, channel=0, data=[69, 28]),
   midi.NoteOnEvent(tick=240, channel=0, data=[69, 0]),
   midi.NoteOnEvent(tick=0, channel=0, data=[67, 34]),
   midi.NoteOnEvent(tick=240, channel=0, data=[67, 0]),
   midi.NoteOnEvent(tick=0, channel=0, data=[69, 27]),
   midi.NoteOnEvent(tick=240, channel=0, data=[67, 34]),
   midi.NoteOnEvent(tick=12, channel=0, data=[69, 0]),
   midi.NoteOnEvent(tick=228, channel=0, data=[67, 0]),
   midi.NoteOnEvent(tick=0, channel=0, data=[69, 25]),
   midi.NoteOnEvent(tick=240, channel=0, data=[69, 0]),
   midi.NoteOnEvent(tick=0, channel=0, data=[63, 0]),
   midi.NoteOnEvent(tick=0, channel=0, data=[62, 44]),
   midi.NoteOnEvent(tick=0, channel=0, data=[66, 44]),
   midi.NoteOnEvent(tick=480, channel=0, data=[66, 0]),
   midi.NoteOnEvent(tick=0, channel=0, data=[62, 0]),
   midi.NoteOnEvent(tick=480, channel=0, data=[72, 47]),
   midi.NoteOnEvent(tick=240, channel=0, data=[72, 0]),
   midi.NoteOnEvent(tick=240, channel=0, data=[70, 51]),
   midi.NoteOnEvent(tick=240, channel=0, data=[70, 0]),
   midi.NoteOnEvent(tick=240, channel=0, data=[66, 58]),
   midi.NoteOnEvent(tick=240, channel=0, data=[66, 0]),
   midi.NoteOnEvent(tick=240, channel=0, data=[67, 54]),
   midi.NoteOnEvent(tick=240, channel=0, data=[67, 0]),
   midi.NoteOnEvent(tick=240, channel=0, data=[62, 53]),
   midi.NoteOnEvent(tick=480, channel=0, data=[62, 0]),
   midi.NoteOnEvent(tick=480, channel=0, data=[72, 48]),
   midi.NoteOnEvent(tick=240, channel=0, data=[72, 0]),
   midi.NoteOnEvent(tick=240, channel=0, data=[70, 57]),
   midi.NoteOnEvent(tick=240, channel=0, data=[70, 0]),
   midi.NoteOnEvent(tick=240, channel=0, data=[66, 59]),
   midi.NoteOnEvent(tick=240, channel=0, data=[66, 0]),
   midi.NoteOnEvent(tick=240, channel=0, data=[67, 54]),
   midi.NoteOnEvent(tick=240, channel=0, data=[67, 0]),
   midi.NoteOnEvent(tick=240, channel=0, data=[62, 58]),
   midi.NoteOnEvent(tick=480, channel=0, data=[62, 0]),
   midi.NoteOnEvent(tick=600, channel=0, data=[62, 47]),
   midi.NoteOnEvent(tick=120, channel=0, data=[62, 0]),
   midi.NoteOnEvent(tick=0, channel=0, data=[57, 54]),
   midi.NoteOnEvent(tick=120, channel=0, data=[57, 0]),
   midi.NoteOnEvent(tick=0, channel=0, data=[54, 47]),
   midi.NoteOnEvent(tick=120, channel=0, data=[54, 0]),
   midi.NoteOnEvent(tick=0, channel=0, data=[50, 69]),
   midi.NoteOnEvent(tick=120, channel=0, data=[50, 0]),
   midi.NoteOnEvent(tick=360, channel=0, data=[38, 59]),
   midi.NoteOnEvent(tick=480, channel=0, data=[38, 0]),
   midi.NoteOnEvent(tick=480, channel=0, data=[55, 34]),
   midi.NoteOnEvent(tick=960, channel=0, data=[50, 30]),
   midi.NoteOnEvent(tick=20, channel=0, data=[55, 0]),
   midi.NoteOnEvent(tick=460, channel=0, data=[50, 0]),
   midi.NoteOnEvent(tick=0, channel=0, data=[47, 34]),
   midi.NoteOnEvent(tick=960, channel=0, data=[50, 32]),
   midi.NoteOnEvent(tick=20, channel=0, data=[47, 0]),
   midi.NoteOnEvent(tick=460, channel=0, data=[50, 0]),
   midi.NoteOnEvent(tick=0, channel=0, data=[55, 34]),
   midi.NoteOnEvent(tick=960, channel=0, data=[59, 36]),
   midi.NoteOnEvent(tick=20, channel=0, data=[55, 0]),
   midi.NoteOnEvent(tick=460, channel=0, data=[59, 0]),
   midi.NoteOnEvent(tick=0, channel=0, data=[62, 38]),
   midi.NoteOnEvent(tick=480, channel=0, data=[62, 0]),
   midi.NoteOnEvent(tick=960, channel=0, data=[55, 34]),
   midi.NoteOnEvent(tick=960, channel=0, data=[50, 30]),
   midi.NoteOnEvent(tick=20, channel=0, data=[55, 0]),
   midi.NoteOnEvent(tick=460, channel=0, data=[50, 0]),
   midi.NoteOnEvent(tick=0, channel=0, data=[47, 34]),
   midi.NoteOnEvent(tick=960, channel=0, data=[50, 32]),
   midi.NoteOnEvent(tick=20, channel=0, data=[47, 0]),
   midi.NoteOnEvent(tick=460, channel=0, data=[50, 0]),
   midi.NoteOnEvent(tick=0, channel=0, data=[55, 34]),
   midi.NoteOnEvent(tick=960, channel=0, data=[59, 36]),
   midi.NoteOnEvent(tick=20, channel=0, data=[55, 0]),
   midi.NoteOnEvent(tick=460, channel=0, data=[59, 0]),
   midi.NoteOnEvent(tick=0, channel=0, data=[62, 38]),
   midi.NoteOnEvent(tick=480, channel=0, data=[62, 0]),
   midi.NoteOnEvent(tick=4080, channel=0, data=[55, 39]),
   midi.NoteOnEvent(tick=60, channel=0, data=[55, 0]),
   midi.NoteOnEvent(tick=180, channel=0, data=[55, 42]),
   midi.NoteOnEvent(tick=60, channel=0, data=[55, 0]),
   midi.NoteOnEvent(tick=180, channel=0, data=[55, 37]),
   midi.NoteOnEvent(tick=60, channel=0, data=[55, 0]),
   midi.NoteOnEvent(tick=180, channel=0, data=[55, 39]),
   midi.NoteOnEvent(tick=60, channel=0, data=[55, 0]),
   midi.NoteOnEvent(tick=180, channel=0, data=[55, 35]),
   midi.NoteOnEvent(tick=60, channel=0, data=[55, 0]),
   midi.NoteOnEvent(tick=180, channel=0, data=[56, 39]),
   midi.NoteOnEvent(tick=240, channel=0, data=[55, 35]),
   midi.NoteOnEvent(tick=12, channel=0, data=[56, 0]),
   midi.NoteOnEvent(tick=228, channel=0, data=[53, 37]),
   midi.NoteOnEvent(tick=12, channel=0, data=[55, 0]),
   midi.NoteOnEvent(tick=228, channel=0, data=[51, 35]),
   midi.NoteOnEvent(tick=12, channel=0, data=[53, 0]),
   midi.NoteOnEvent(tick=228, channel=0, data=[50, 39]),
   midi.NoteOnEvent(tick=12, channel=0, data=[51, 0]),
   midi.NoteOnEvent(tick=228, channel=0, data=[48, 34]),
   midi.NoteOnEvent(tick=12, channel=0, data=[50, 0]),
   midi.NoteOnEvent(tick=228, channel=0, data=[48, 0]),
   midi.NoteOnEvent(tick=0, channel=0, data=[48, 35]),
   midi.NoteOnEvent(tick=240, channel=0, data=[48, 0]),
   midi.NoteOnEvent(tick=0, channel=0, data=[46, 38]),
   midi.NoteOnEvent(tick=240, channel=0, data=[46, 0]),
   midi.NoteOnEvent(tick=0, channel=0, data=[46, 39]),
   midi.NoteOnEvent(tick=480, channel=0, data=[46, 0]),
   midi.NoteOnEvent(tick=2160, channel=0, data=[58, 39]),
   midi.NoteOnEvent(tick=60, channel=0, data=[58, 0]),
   midi.NoteOnEvent(tick=180, channel=0, data=[58, 41]),
   midi.NoteOnEvent(tick=60, channel=0, data=[58, 0]),
   midi.NoteOnEvent(tick=180, channel=0, data=[58, 36]),
   midi.NoteOnEvent(tick=60, channel=0, data=[58, 0]),
   midi.NoteOnEvent(tick=180, channel=0, data=[58, 38]),
   midi.NoteOnEvent(tick=60, channel=0, data=[58, 0]),
   midi.NoteOnEvent(tick=180, channel=0, data=[58, 35]),
   midi.NoteOnEvent(tick=60, channel=0, data=[58, 0]),
   midi.NoteOnEvent(tick=180, channel=0, data=[60, 39]),
   midi.NoteOnEvent(tick=240, channel=0, data=[58, 35]),
   midi.NoteOnEvent(tick=12, channel=0, data=[60, 0]),
   midi.NoteOnEvent(tick=228, channel=0, data=[56, 35]),
   midi.NoteOnEvent(tick=12, channel=0, data=[58, 0]),
   midi.NoteOnEvent(tick=228, channel=0, data=[55, 35]),
   midi.NoteOnEvent(tick=12, channel=0, data=[56, 0]),
   midi.NoteOnEvent(tick=228, channel=0, data=[53, 39]),
   midi.NoteOnEvent(tick=12, channel=0, data=[55, 0]),
   midi.NoteOnEvent(tick=228, channel=0, data=[52, 34]),
   midi.NoteOnEvent(tick=12, channel=0, data=[53, 0]),
   midi.NoteOnEvent(tick=228, channel=0, data=[52, 0]),
   midi.NoteOnEvent(tick=0, channel=0, data=[53, 40]),
   midi.NoteOnEvent(tick=980, channel=0, data=[53, 0]),
   midi.NoteOnEvent(tick=460, channel=0, data=[58, 28]),
   midi.NoteOnEvent(tick=0, channel=0, data=[62, 28]),
   midi.NoteOnEvent(tick=0, channel=0, data=[65, 34]),
   midi.NoteOnEvent(tick=480, channel=0, data=[65, 0]),
   midi.NoteOnEvent(tick=0, channel=0, data=[62, 0]),
   midi.NoteOnEvent(tick=0, channel=0, data=[63, 28]),
   midi.NoteOnEvent(tick=0, channel=0, data=[67, 34]),
   midi.NoteOnEvent(tick=480, channel=0, data=[67, 0]),
   midi.NoteOnEvent(tick=0, channel=0, data=[63, 0]),
   midi.NoteOnEvent(tick=0, channel=0, data=[65, 28]),
   midi.NoteOnEvent(tick=0, channel=0, data=[69, 34]),
   midi.NoteOnEvent(tick=480, channel=0, data=[69, 0]),
   midi.NoteOnEvent(tick=0, channel=0, data=[65, 0]),
   midi.NoteOnEvent(tick=0, channel=0, data=[58, 0]),
   midi.NoteOnEvent(tick=0, channel=0, data=[63, 28]),
   midi.NoteOnEvent(tick=0, channel=0, data=[67, 34]),
   midi.NoteOnEvent(tick=480, channel=0, data=[67, 0]),
   midi.NoteOnEvent(tick=0, channel=0, data=[63, 0]),
   midi.NoteOnEvent(tick=960, channel=0, data=[56, 28]),
   midi.NoteOnEvent(tick=0, channel=0, data=[60, 28]),
   midi.NoteOnEvent(tick=0, channel=0, data=[63, 34]),
   midi.NoteOnEvent(tick=480, channel=0, data=[63, 0]),
   midi.NoteOnEvent(tick=0, channel=0, data=[60, 0]),
   midi.NoteOnEvent(tick=0, channel=0, data=[62, 28]),
   midi.NoteOnEvent(tick=0, channel=0, data=[65, 34]),
   midi.NoteOnEvent(tick=480, channel=0, data=[65, 0]),
   midi.NoteOnEvent(tick=0, channel=0, data=[62, 0]),
   midi.NoteOnEvent(tick=0, channel=0, data=[63, 28]),
   midi.NoteOnEvent(tick=0, channel=0, data=[67, 34]),
   midi.NoteOnEvent(tick=480, channel=0, data=[67, 0]),
   midi.NoteOnEvent(tick=0, channel=0, data=[63, 0]),
   midi.NoteOnEvent(tick=0, channel=0, data=[56, 0]),
   midi.NoteOnEvent(tick=0, channel=0, data=[62, 28]),
   midi.NoteOnEvent(tick=0, channel=0, data=[65, 34]),
   midi.NoteOnEvent(tick=480, channel=0, data=[65, 0]),
   midi.NoteOnEvent(tick=0, channel=0, data=[62, 0]),
   midi.NoteOnEvent(tick=960, channel=0, data=[55, 28]),
   midi.NoteOnEvent(tick=0, channel=0, data=[59, 28]),
   midi.NoteOnEvent(tick=0, channel=0, data=[62, 34]),
   midi.NoteOnEvent(tick=480, channel=0, data=[62, 0]),
   midi.NoteOnEvent(tick=0, channel=0, data=[59, 0]),
   midi.NoteOnEvent(tick=0, channel=0, data=[60, 28]),
   midi.NoteOnEvent(tick=0, channel=0, data=[63, 34]),
   midi.NoteOnEvent(tick=480, channel=0, data=[63, 0]),
   midi.NoteOnEvent(tick=0, channel=0, data=[60, 0]),
   midi.NoteOnEvent(tick=0, channel=0, data=[62, 28]),
   midi.NoteOnEvent(tick=0, channel=0, data=[65, 34]),
   midi.NoteOnEvent(tick=480, channel=0, data=[65, 0]),
   midi.NoteOnEvent(tick=0, channel=0, data=[62, 0]),
   midi.NoteOnEvent(tick=0, channel=0, data=[55, 0]),
   midi.NoteOnEvent(tick=0, channel=0, data=[60, 30]),
   midi.NoteOnEvent(tick=0, channel=0, data=[63, 37]),
   midi.NoteOnEvent(tick=480, channel=0, data=[63, 0]),
   midi.NoteOnEvent(tick=0, channel=0, data=[60, 0]),
   midi.NoteOnEvent(tick=480, channel=0, data=[53, 30]),
   midi.NoteOnEvent(tick=0, channel=0, data=[63, 37]),
   midi.NoteOnEvent(tick=480, channel=0, data=[63, 0]),
   midi.NoteOnEvent(tick=0, channel=0, data=[53, 0]),
   midi.NoteOnEvent(tick=0, channel=0, data=[55, 30]),
   midi.NoteOnEvent(tick=0, channel=0, data=[62, 37]),
   midi.NoteOnEvent(tick=480, channel=0, data=[62, 0]),
   midi.NoteOnEvent(tick=0, channel=0, data=[55, 0]),
   midi.NoteOnEvent(tick=480, channel=0, data=[63, 30]),
   midi.NoteOnEvent(tick=0, channel=0, data=[67, 37]),
   midi.NoteOnEvent(tick=480, channel=0, data=[67, 0]),
   midi.NoteOnEvent(tick=0, channel=0, data=[63, 0]),
   midi.NoteOnEvent(tick=240, channel=0, data=[65, 42]),
   midi.NoteOnEvent(tick=60, channel=0, data=[65, 0]),
   midi.NoteOnEvent(tick=180, channel=0, data=[65, 45]),
   midi.NoteOnEvent(tick=60, channel=0, data=[65, 0]),
   midi.NoteOnEvent(tick=180, channel=0, data=[65, 39]),
   midi.NoteOnEvent(tick=60, channel=0, data=[65, 0]),
   midi.NoteOnEvent(tick=180, channel=0, data=[65, 41]),
   midi.NoteOnEvent(tick=60, channel=0, data=[65, 0]),
   midi.NoteOnEvent(tick=180, channel=0, data=[65, 38]),
   midi.NoteOnEvent(tick=60, channel=0, data=[65, 0]),
   midi.NoteOnEvent(tick=180, channel=0, data=[66, 42]),
   midi.NoteOnEvent(tick=240, channel=0, data=[65, 38]),
   midi.NoteOnEvent(tick=12, channel=0, data=[66, 0]),
   midi.NoteOnEvent(tick=228, channel=0, data=[63, 38]),
   midi.NoteOnEvent(tick=12, channel=0, data=[65, 0]),
   midi.NoteOnEvent(tick=228, channel=0, data=[61, 38]),
   midi.NoteOnEvent(tick=12, channel=0, data=[63, 0]),
   midi.NoteOnEvent(tick=228, channel=0, data=[60, 42]),
   midi.NoteOnEvent(tick=12, channel=0, data=[61, 0]),
   midi.NoteOnEvent(tick=228, channel=0, data=[58, 37]),
   midi.NoteOnEvent(tick=12, channel=0, data=[60, 0]),
   midi.NoteOnEvent(tick=228, channel=0, data=[58, 0]),
   midi.NoteOnEvent(tick=240, channel=0, data=[53, 42]),
   midi.NoteOnEvent(tick=60, channel=0, data=[53, 0]),
   midi.NoteOnEvent(tick=180, channel=0, data=[53, 45]),
   midi.NoteOnEvent(tick=60, channel=0, data=[53, 0]),
   midi.NoteOnEvent(tick=180, channel=0, data=[53, 39]),
   midi.NoteOnEvent(tick=60, channel=0, data=[53, 0]),
   midi.NoteOnEvent(tick=180, channel=0, data=[53, 41]),
   midi.NoteOnEvent(tick=60, channel=0, data=[53, 0]),
   midi.NoteOnEvent(tick=180, channel=0, data=[53, 38]),
   midi.NoteOnEvent(tick=60, channel=0, data=[53, 0]),
   midi.NoteOnEvent(tick=180, channel=0, data=[54, 42]),
   midi.NoteOnEvent(tick=240, channel=0, data=[53, 38]),
   midi.NoteOnEvent(tick=12, channel=0, data=[54, 0]),
   midi.NoteOnEvent(tick=228, channel=0, data=[51, 38]),
   midi.NoteOnEvent(tick=12, channel=0, data=[53, 0]),
   midi.NoteOnEvent(tick=228, channel=0, data=[49, 38]),
   midi.NoteOnEvent(tick=12, channel=0, data=[51, 0]),
   midi.NoteOnEvent(tick=228, channel=0, data=[48, 42]),
   midi.NoteOnEvent(tick=12, channel=0, data=[49, 0]),
   midi.NoteOnEvent(tick=228, channel=0, data=[46, 37]),
   midi.NoteOnEvent(tick=12, channel=0, data=[48, 0]),
   midi.NoteOnEvent(tick=228, channel=0, data=[46, 0]),
   midi.NoteOnEvent(tick=0, channel=0, data=[41, 42]),
   midi.NoteOnEvent(tick=480, channel=0, data=[41, 0]),
   midi.NoteOnEvent(tick=960, channel=0, data=[53, 29]),
   midi.NoteOnEvent(tick=0, channel=0, data=[63, 37]),
   midi.NoteOnEvent(tick=0, channel=0, data=[57, 29]),
   midi.NoteOnEvent(tick=3360, channel=0, data=[57, 0]),
   midi.NoteOnEvent(tick=0, channel=0, data=[63, 0]),
   midi.NoteOnEvent(tick=0, channel=0, data=[53, 0]),
   midi.NoteOnEvent(tick=960, channel=0, data=[58, 33]),
   midi.NoteOnEvent(tick=960, channel=0, data=[58, 0]),
   midi.NoteOnEvent(tick=0, channel=0, data=[53, 31]),
   midi.NoteOnEvent(tick=480, channel=0, data=[53, 0]),
   midi.NoteOnEvent(tick=0, channel=0, data=[50, 37]),
   midi.NoteOnEvent(tick=960, channel=0, data=[50, 0]),
   midi.NoteOnEvent(tick=0, channel=0, data=[53, 38]),
   midi.NoteOnEvent(tick=480, channel=0, data=[53, 0]),
   midi.NoteOnEvent(tick=0, channel=0, data=[58, 41]),
   midi.NoteOnEvent(tick=960, channel=0, data=[58, 0]),
   midi.NoteOnEvent(tick=0, channel=0, data=[62, 43]),
   midi.NoteOnEvent(tick=480, channel=0, data=[62, 0]),
   midi.NoteOnEvent(tick=0, channel=0, data=[65, 43]),
   midi.NoteOnEvent(tick=960, channel=0, data=[65, 0]),
   midi.NoteOnEvent(tick=480, channel=0, data=[63, 36]),
   midi.NoteOnEvent(tick=0, channel=0, data=[53, 30]),
   midi.NoteOnEvent(tick=0, channel=0, data=[60, 30]),
   midi.NoteOnEvent(tick=2880, channel=0, data=[60, 0]),
   midi.NoteOnEvent(tick=0, channel=0, data=[53, 0]),
   midi.NoteOnEvent(tick=0, channel=0, data=[63, 0]),
   midi.NoteOnEvent(tick=0, channel=0, data=[62, 38]),
   midi.NoteOnEvent(tick=0, channel=0, data=[58, 32]),
   midi.NoteOnEvent(tick=480, channel=0, data=[58, 0]),
   midi.NoteOnEvent(tick=0, channel=0, data=[62, 0]),
   midi.NoteOnEvent(tick=2400, channel=0, data=[53, 30]),
   midi.NoteOnEvent(tick=0, channel=0, data=[60, 30]),
   midi.NoteOnEvent(tick=0, channel=0, data=[63, 36]),
   midi.NoteOnEvent(tick=2880, channel=0, data=[63, 0]),
   midi.NoteOnEvent(tick=0, channel=0, data=[60, 0]),
   midi.NoteOnEvent(tick=0, channel=0, data=[53, 0]),
   midi.NoteOnEvent(tick=0, channel=0, data=[58, 34]),
   midi.NoteOnEvent(tick=0, channel=0, data=[62, 40]),
   midi.NoteOnEvent(tick=120, channel=0, data=[62, 0]),
   midi.NoteOnEvent(tick=0, channel=0, data=[58, 0]),
   midi.NoteOnEvent(tick=360, channel=0, data=[62, 38]),
   midi.NoteOnEvent(tick=0, channel=0, data=[58, 32]),
   midi.NoteOnEvent(tick=120, channel=0, data=[58, 0]),
   midi.NoteOnEvent(tick=0, channel=0, data=[62, 0]),
   midi.NoteOnEvent(tick=360, channel=0, data=[65, 38]),
   midi.NoteOnEvent(tick=0, channel=0, data=[58, 32]),
   midi.NoteOnEvent(tick=120, channel=0, data=[58, 0]),
   midi.NoteOnEvent(tick=0, channel=0, data=[65, 0]),
   midi.NoteOnEvent(tick=360, channel=0, data=[62, 40]),
   midi.NoteOnEvent(tick=0, channel=0, data=[58, 34]),
   midi.NoteOnEvent(tick=480, channel=0, data=[58, 0]),
   midi.NoteOnEvent(tick=0, channel=0, data=[62, 0]),
   midi.NoteOnEvent(tick=1440, channel=0, data=[58, 30]),
   midi.NoteOnEvent(tick=0, channel=0, data=[55, 25]),
   midi.NoteOnEvent(tick=0, channel=0, data=[51, 25]),
   midi.NoteOnEvent(tick=480, channel=0, data=[51, 0]),
   midi.NoteOnEvent(tick=0, channel=0, data=[55, 0]),
   midi.NoteOnEvent(tick=0, channel=0, data=[58, 0]),
   midi.NoteOnEvent(tick=960, channel=0, data=[53, 25]),
   midi.NoteOnEvent(tick=0, channel=0, data=[50, 25]),
   midi.NoteOnEvent(tick=0, channel=0, data=[58, 30]),
   midi.NoteOnEvent(tick=480, channel=0, data=[58, 0]),
   midi.NoteOnEvent(tick=0, channel=0, data=[50, 0]),
   midi.NoteOnEvent(tick=0, channel=0, data=[53, 0]),
   midi.NoteOnEvent(tick=480, channel=0, data=[57, 29]),
   midi.NoteOnEvent(tick=0, channel=0, data=[65, 34]),
   midi.NoteOnEvent(tick=1440, channel=0, data=[57, 0]),
   midi.NoteOnEvent(tick=0, channel=0, data=[58, 34]),
   midi.NoteOnEvent(tick=480, channel=0, data=[58, 0]),
   midi.NoteOnEvent(tick=0, channel=0, data=[65, 0]),
   midi.NoteOnEvent(tick=1440, channel=0, data=[51, 25]),
   midi.NoteOnEvent(tick=0, channel=0, data=[58, 30]),
   midi.NoteOnEvent(tick=0, channel=0, data=[55, 25]),
   midi.NoteOnEvent(tick=480, channel=0, data=[55, 0]),
   midi.NoteOnEvent(tick=0, channel=0, data=[58, 0]),
   midi.NoteOnEvent(tick=0, channel=0, data=[51, 0]),
   midi.NoteOnEvent(tick=960, channel=0, data=[53, 25]),
   midi.NoteOnEvent(tick=0, channel=0, data=[50, 25]),
   midi.NoteOnEvent(tick=0, channel=0, data=[58, 30]),
   midi.NoteOnEvent(tick=480, channel=0, data=[58, 0]),
   midi.NoteOnEvent(tick=0, channel=0, data=[50, 0]),
   midi.NoteOnEvent(tick=0, channel=0, data=[53, 0]),
   midi.NoteOnEvent(tick=480, channel=0, data=[57, 34]),
   midi.NoteOnEvent(tick=0, channel=0, data=[53, 29]),
   midi.NoteOnEvent(tick=480, channel=0, data=[57, 0]),
   midi.NoteOnEvent(tick=0, channel=0, data=[60, 31]),
   midi.NoteOnEvent(tick=480, channel=0, data=[60, 0]),
   midi.NoteOnEvent(tick=0, channel=0, data=[63, 29]),
   midi.NoteOnEvent(tick=480, channel=0, data=[63, 0]),
   midi.NoteOnEvent(tick=0, channel=0, data=[53, 0]),
   midi.NoteOnEvent(tick=0, channel=0, data=[62, 34]),
   midi.NoteOnEvent(tick=0, channel=0, data=[58, 28]),
   midi.NoteOnEvent(tick=480, channel=0, data=[58, 0]),
   midi.NoteOnEvent(tick=0, channel=0, data=[62, 0]),
   midi.NoteOnEvent(tick=960, channel=0, data=[55, 73]),
   midi.NoteOnEvent(tick=120, channel=0, data=[55, 0]),
   midi.NoteOnEvent(tick=360, channel=0, data=[43, 66]),
   midi.NoteOnEvent(tick=120, channel=0, data=[43, 0]),
   midi.NoteOnEvent(tick=840, channel=0, data=[50, 73]),
   midi.NoteOnEvent(tick=120, channel=0, data=[50, 0]),
   midi.NoteOnEvent(tick=360, channel=0, data=[38, 66]),
   midi.NoteOnEvent(tick=120, channel=0, data=[38, 0]),
   midi.NoteOnEvent(tick=840, channel=0, data=[51, 20]),
   midi.NoteOnEvent(tick=0, channel=0, data=[55, 33]),
   midi.NoteOnEvent(tick=240, channel=0, data=[55, 0]),
   midi.NoteOnEvent(tick=0, channel=0, data=[58, 23]),
   midi.NoteOnEvent(tick=240, channel=0, data=[58, 0]),
   midi.NoteOnEvent(tick=0, channel=0, data=[55, 27]),
   midi.NoteOnEvent(tick=240, channel=0, data=[55, 0]),
   midi.NoteOnEvent(tick=0, channel=0, data=[58, 22]),
   midi.NoteOnEvent(tick=240, channel=0, data=[58, 0]),
   midi.NoteOnEvent(tick=0, channel=0, data=[55, 26]),
   midi.NoteOnEvent(tick=240, channel=0, data=[55, 0]),
   midi.NoteOnEvent(tick=0, channel=0, data=[58, 22]),
   midi.NoteOnEvent(tick=240, channel=0, data=[58, 0]),
   midi.NoteOnEvent(tick=0, channel=0, data=[51, 0]),
   midi.NoteOnEvent(tick=0, channel=0, data=[56, 36]),
   midi.NoteOnEvent(tick=0, channel=0, data=[50, 20]),
   midi.NoteOnEvent(tick=240, channel=0, data=[56, 0]),
   midi.NoteOnEvent(tick=0, channel=0, data=[58, 23]),
   midi.NoteOnEvent(tick=240, channel=0, data=[58, 0]),
   midi.NoteOnEvent(tick=0, channel=0, data=[56, 27]),
   midi.NoteOnEvent(tick=240, channel=0, data=[56, 0]),
   midi.NoteOnEvent(tick=0, channel=0, data=[58, 23]),
   midi.NoteOnEvent(tick=240, channel=0, data=[58, 0]),
   midi.NoteOnEvent(tick=0, channel=0, data=[56, 27]),
   midi.NoteOnEvent(tick=240, channel=0, data=[56, 0]),
   midi.NoteOnEvent(tick=0, channel=0, data=[58, 24]),
   midi.NoteOnEvent(tick=240, channel=0, data=[58, 0]),
   midi.NoteOnEvent(tick=0, channel=0, data=[50, 0]),
   midi.NoteOnEvent(tick=0, channel=0, data=[51, 20]),
   midi.NoteOnEvent(tick=0, channel=0, data=[55, 33]),
   midi.NoteOnEvent(tick=240, channel=0, data=[55, 0]),
   midi.NoteOnEvent(tick=0, channel=0, data=[58, 23]),
   midi.NoteOnEvent(tick=240, channel=0, data=[58, 0]),
   midi.NoteOnEvent(tick=0, channel=0, data=[55, 27]),
   midi.NoteOnEvent(tick=240, channel=0, data=[55, 0]),
   midi.NoteOnEvent(tick=0, channel=0, data=[58, 23]),
   midi.NoteOnEvent(tick=240, channel=0, data=[58, 0]),
   midi.NoteOnEvent(tick=0, channel=0, data=[55, 27]),
   midi.NoteOnEvent(tick=240, channel=0, data=[55, 0]),
   midi.NoteOnEvent(tick=0, channel=0, data=[58, 25]),
   midi.NoteOnEvent(tick=240, channel=0, data=[58, 0]),
   midi.NoteOnEvent(tick=0, channel=0, data=[51, 0]),
   midi.NoteOnEvent(tick=0, channel=0, data=[50, 20]),
   midi.NoteOnEvent(tick=0, channel=0, data=[56, 33]),
   midi.NoteOnEvent(tick=240, channel=0, data=[56, 0]),
   midi.NoteOnEvent(tick=0, channel=0, data=[58, 27]),
   midi.NoteOnEvent(tick=240, channel=0, data=[58, 0]),
   midi.NoteOnEvent(tick=0, channel=0, data=[56, 27]),
   midi.NoteOnEvent(tick=240, channel=0, data=[56, 0]),
   midi.NoteOnEvent(tick=0, channel=0, data=[58, 24]),
   midi.NoteOnEvent(tick=240, channel=0, data=[58, 0]),
   midi.NoteOnEvent(tick=0, channel=0, data=[56, 27]),
   midi.NoteOnEvent(tick=240, channel=0, data=[56, 0]),
   midi.NoteOnEvent(tick=0, channel=0, data=[58, 23]),
   midi.NoteOnEvent(tick=240, channel=0, data=[58, 0]),
   midi.NoteOnEvent(tick=0, channel=0, data=[50, 0]),
   midi.NoteOnEvent(tick=0, channel=0, data=[51, 21]),
   midi.NoteOnEvent(tick=0, channel=0, data=[55, 35]),
   midi.NoteOnEvent(tick=240, channel=0, data=[55, 0]),
   midi.NoteOnEvent(tick=0, channel=0, data=[58, 24]),
   midi.NoteOnEvent(tick=240, channel=0, data=[58, 0]),
   midi.NoteOnEvent(tick=0, channel=0, data=[55, 28]),
   midi.NoteOnEvent(tick=240, channel=0, data=[55, 0]),
   midi.NoteOnEvent(tick=0, channel=0, data=[58, 23]),
   midi.NoteOnEvent(tick=240, channel=0, data=[58, 0]),
   midi.NoteOnEvent(tick=0, channel=0, data=[55, 27]),
   midi.NoteOnEvent(tick=240, channel=0, data=[55, 0]),
   midi.NoteOnEvent(tick=0, channel=0, data=[58, 23]),
   midi.NoteOnEvent(tick=240, channel=0, data=[58, 0]),
   midi.NoteOnEvent(tick=0, channel=0, data=[51, 0]),
   midi.NoteOnEvent(tick=0, channel=0, data=[53, 38]),
   midi.NoteOnEvent(tick=0, channel=0, data=[50, 21]),
   midi.NoteOnEvent(tick=240, channel=0, data=[53, 0]),
   midi.NoteOnEvent(tick=0, channel=0, data=[56, 24]),
   midi.NoteOnEvent(tick=240, channel=0, data=[56, 0]),
   midi.NoteOnEvent(tick=0, channel=0, data=[53, 32]),
   midi.NoteOnEvent(tick=240, channel=0, data=[53, 0]),
   midi.NoteOnEvent(tick=0, channel=0, data=[56, 28]),
   midi.NoteOnEvent(tick=240, channel=0, data=[56, 0]),
   midi.NoteOnEvent(tick=0, channel=0, data=[53, 32]),
   midi.NoteOnEvent(tick=240, channel=0, data=[53, 0]),
   midi.NoteOnEvent(tick=0, channel=0, data=[56, 27]),
   midi.NoteOnEvent(tick=240, channel=0, data=[56, 0]),
   midi.NoteOnEvent(tick=0, channel=0, data=[50, 0]),
   midi.NoteOnEvent(tick=0, channel=0, data=[51, 23]),
   midi.NoteOnEvent(tick=0, channel=0, data=[55, 37]),
   midi.NoteOnEvent(tick=240, channel=0, data=[55, 0]),
   midi.NoteOnEvent(tick=0, channel=0, data=[60, 32]),
   midi.NoteOnEvent(tick=240, channel=0, data=[60, 0]),
   midi.NoteOnEvent(tick=0, channel=0, data=[55, 34]),
   midi.NoteOnEvent(tick=240, channel=0, data=[55, 0]),
   midi.NoteOnEvent(tick=0, channel=0, data=[60, 29]),
   midi.NoteOnEvent(tick=240, channel=0, data=[60, 0]),
   midi.NoteOnEvent(tick=0, channel=0, data=[55, 30]),
   midi.NoteOnEvent(tick=240, channel=0, data=[55, 0]),
   midi.NoteOnEvent(tick=0, channel=0, data=[60, 28]),
   midi.NoteOnEvent(tick=240, channel=0, data=[60, 0]),
   midi.NoteOnEvent(tick=0, channel=0, data=[51, 0]),
   midi.NoteOnEvent(tick=0, channel=0, data=[54, 23]),
   midi.NoteOnEvent(tick=0, channel=0, data=[60, 37]),
   midi.NoteOnEvent(tick=240, channel=0, data=[60, 0]),
   midi.NoteOnEvent(tick=0, channel=0, data=[63, 30]),
   midi.NoteOnEvent(tick=240, channel=0, data=[63, 0]),
   midi.NoteOnEvent(tick=0, channel=0, data=[60, 30]),
   midi.NoteOnEvent(tick=240, channel=0, data=[60, 0]),
   midi.NoteOnEvent(tick=0, channel=0, data=[63, 27]),
   midi.NoteOnEvent(tick=240, channel=0, data=[60, 30]),
   midi.NoteOnEvent(tick=12, channel=0, data=[63, 0]),
   midi.NoteOnEvent(tick=228, channel=0, data=[60, 0]),
   midi.NoteOnEvent(tick=0, channel=0, data=[63, 26]),
   midi.NoteOnEvent(tick=240, channel=0, data=[63, 0]),
   midi.NoteOnEvent(tick=0, channel=0, data=[54, 0]),
   midi.NoteOnEvent(tick=0, channel=0, data=[58, 44]),
   midi.NoteOnEvent(tick=0, channel=0, data=[55, 27]),
   midi.NoteOnEvent(tick=240, channel=0, data=[58, 0]),
   midi.NoteOnEvent(tick=0, channel=0, data=[62, 30]),
   midi.NoteOnEvent(tick=240, channel=0, data=[62, 0]),
   midi.NoteOnEvent(tick=0, channel=0, data=[58, 36]),
   midi.NoteOnEvent(tick=240, channel=0, data=[58, 0]),
   midi.NoteOnEvent(tick=0, channel=0, data=[62, 30]),
   midi.NoteOnEvent(tick=240, channel=0, data=[62, 0]),
   midi.NoteOnEvent(tick=0, channel=0, data=[58, 36]),
   midi.NoteOnEvent(tick=240, channel=0, data=[58, 0]),
   midi.NoteOnEvent(tick=0, channel=0, data=[62, 33]),
   midi.NoteOnEvent(tick=240, channel=0, data=[62, 0]),
   midi.NoteOnEvent(tick=0, channel=0, data=[55, 0]),
   midi.NoteOnEvent(tick=0, channel=0, data=[67, 44]),
   midi.NoteOnEvent(tick=0, channel=0, data=[60, 27]),
   midi.NoteOnEvent(tick=240, channel=0, data=[67, 0]),
   midi.NoteOnEvent(tick=0, channel=0, data=[70, 36]),
   midi.NoteOnEvent(tick=240, channel=0, data=[70, 0]),
   midi.NoteOnEvent(tick=0, channel=0, data=[67, 36]),
   midi.NoteOnEvent(tick=240, channel=0, data=[67, 0]),
   midi.NoteOnEvent(tick=0, channel=0, data=[70, 31]),
   midi.NoteOnEvent(tick=240, channel=0, data=[67, 36]),
   midi.NoteOnEvent(tick=12, channel=0, data=[70, 0]),
   midi.NoteOnEvent(tick=228, channel=0, data=[67, 0]),
   midi.NoteOnEvent(tick=0, channel=0, data=[70, 30]),
   midi.NoteOnEvent(tick=240, channel=0, data=[70, 0]),
   midi.NoteOnEvent(tick=0, channel=0, data=[60, 0]),
   midi.NoteOnEvent(tick=0, channel=0, data=[65, 44]),
   midi.NoteOnEvent(tick=0, channel=0, data=[69, 44]),
   midi.NoteOnEvent(tick=480, channel=0, data=[69, 0]),
   midi.NoteOnEvent(tick=0, channel=0, data=[65, 0]),
   midi.NoteOnEvent(tick=480, channel=0, data=[75, 46]),
   midi.NoteOnEvent(tick=240, channel=0, data=[75, 0]),
   midi.NoteOnEvent(tick=240, channel=0, data=[74, 52]),
   midi.NoteOnEvent(tick=240, channel=0, data=[74, 0]),
   midi.NoteOnEvent(tick=240, channel=0, data=[69, 56]),
   midi.NoteOnEvent(tick=240, channel=0, data=[69, 0]),
   midi.NoteOnEvent(tick=240, channel=0, data=[70, 53]),
   midi.NoteOnEvent(tick=240, channel=0, data=[70, 0]),
   midi.NoteOnEvent(tick=240, channel=0, data=[65, 59]),
   midi.NoteOnEvent(tick=480, channel=0, data=[65, 0]),
   midi.NoteOnEvent(tick=480, channel=0, data=[75, 51]),
   midi.NoteOnEvent(tick=240, channel=0, data=[75, 0]),
   midi.NoteOnEvent(tick=240, channel=0, data=[74, 57]),
   midi.NoteOnEvent(tick=240, channel=0, data=[74, 0]),
   midi.NoteOnEvent(tick=240, channel=0, data=[69, 59]),
   midi.NoteOnEvent(tick=240, channel=0, data=[69, 0]),
   midi.NoteOnEvent(tick=240, channel=0, data=[70, 54]),
   midi.NoteOnEvent(tick=240, channel=0, data=[70, 0]),
   midi.NoteOnEvent(tick=240, channel=0, data=[65, 62]),
   midi.NoteOnEvent(tick=480, channel=0, data=[65, 0]),
   midi.NoteOnEvent(tick=600, channel=0, data=[65, 47]),
   midi.NoteOnEvent(tick=120, channel=0, data=[65, 0]),
   midi.NoteOnEvent(tick=0, channel=0, data=[60, 54]),
   midi.NoteOnEvent(tick=120, channel=0, data=[60, 0]),
   midi.NoteOnEvent(tick=0, channel=0, data=[57, 47]),
   midi.NoteOnEvent(tick=120, channel=0, data=[57, 0]),
   midi.NoteOnEvent(tick=0, channel=0, data=[53, 69]),
   midi.NoteOnEvent(tick=120, channel=0, data=[53, 0]),
   midi.NoteOnEvent(tick=360, channel=0, data=[41, 59]),
   midi.NoteOnEvent(tick=480, channel=0, data=[41, 0]),
   midi.NoteOnEvent(tick=480, channel=0, data=[58, 34]),
   midi.NoteOnEvent(tick=960, channel=0, data=[53, 30]),
   midi.NoteOnEvent(tick=20, channel=0, data=[58, 0]),
   midi.NoteOnEvent(tick=460, channel=0, data=[53, 0]),
   midi.NoteOnEvent(tick=0, channel=0, data=[50, 34]),
   midi.NoteOnEvent(tick=960, channel=0, data=[53, 32]),
   midi.NoteOnEvent(tick=20, channel=0, data=[50, 0]),
   midi.NoteOnEvent(tick=460, channel=0, data=[53, 0]),
   midi.NoteOnEvent(tick=0, channel=0, data=[58, 34]),
   midi.NoteOnEvent(tick=960, channel=0, data=[62, 36]),
   midi.NoteOnEvent(tick=20, channel=0, data=[58, 0]),
   midi.NoteOnEvent(tick=460, channel=0, data=[62, 0]),
   midi.NoteOnEvent(tick=0, channel=0, data=[65, 38]),
   midi.NoteOnEvent(tick=480, channel=0, data=[65, 0]),
   midi.NoteOnEvent(tick=960, channel=0, data=[51, 34]),
   midi.NoteOnEvent(tick=960, channel=0, data=[48, 30]),
   midi.NoteOnEvent(tick=20, channel=0, data=[51, 0]),
   midi.NoteOnEvent(tick=460, channel=0, data=[48, 0]),
   midi.NoteOnEvent(tick=0, channel=0, data=[45, 34]),
   midi.NoteOnEvent(tick=960, channel=0, data=[48, 32]),
   midi.NoteOnEvent(tick=20, channel=0, data=[45, 0]),
   midi.NoteOnEvent(tick=460, channel=0, data=[48, 0]),
   midi.NoteOnEvent(tick=0, channel=0, data=[51, 34]),
   midi.NoteOnEvent(tick=960, channel=0, data=[57, 36]),
   midi.NoteOnEvent(tick=20, channel=0, data=[51, 0]),
   midi.NoteOnEvent(tick=460, channel=0, data=[57, 0]),
   midi.NoteOnEvent(tick=0, channel=0, data=[60, 38]),
   midi.NoteOnEvent(tick=480, channel=0, data=[60, 0]),
   midi.NoteOnEvent(tick=960, channel=0, data=[62, 35]),
   midi.NoteOnEvent(tick=240, channel=0, data=[62, 0]),
   midi.NoteOnEvent(tick=0, channel=0, data=[65, 28]),
   midi.NoteOnEvent(tick=240, channel=0, data=[65, 0]),
   midi.NoteOnEvent(tick=0, channel=0, data=[62, 35]),
   midi.NoteOnEvent(tick=240, channel=0, data=[62, 0]),
   midi.NoteOnEvent(tick=0, channel=0, data=[65, 25]),
   midi.NoteOnEvent(tick=240, channel=0, data=[65, 0]),
   midi.NoteOnEvent(tick=0, channel=0, data=[62, 32]),
   midi.NoteOnEvent(tick=240, channel=0, data=[62, 0]),
   midi.NoteOnEvent(tick=0, channel=0, data=[65, 24]),
   midi.NoteOnEvent(tick=240, channel=0, data=[65, 0]),
   midi.NoteOnEvent(tick=0, channel=0, data=[63, 35]),
   midi.NoteOnEvent(tick=240, channel=0, data=[63, 0]),
   midi.NoteOnEvent(tick=0, channel=0, data=[65, 31]),
   midi.NoteOnEvent(tick=240, channel=0, data=[65, 0]),
   midi.NoteOnEvent(tick=0, channel=0, data=[63, 35]),
   midi.NoteOnEvent(tick=240, channel=0, data=[63, 0]),
   midi.NoteOnEvent(tick=0, channel=0, data=[65, 26]),
   midi.NoteOnEvent(tick=240, channel=0, data=[65, 0]),
   midi.NoteOnEvent(tick=0, channel=0, data=[63, 33]),
   midi.NoteOnEvent(tick=240, channel=0, data=[63, 0]),
   midi.NoteOnEvent(tick=0, channel=0, data=[65, 29]),
   midi.NoteOnEvent(tick=240, channel=0, data=[65, 0]),
   midi.NoteOnEvent(tick=0, channel=0, data=[62, 35]),
   midi.NoteOnEvent(tick=240, channel=0, data=[62, 0]),
   midi.NoteOnEvent(tick=0, channel=0, data=[65, 30]),
   midi.NoteOnEvent(tick=240, channel=0, data=[65, 0]),
   midi.NoteOnEvent(tick=0, channel=0, data=[62, 32]),
   midi.NoteOnEvent(tick=240, channel=0, data=[62, 0]),
   midi.NoteOnEvent(tick=0, channel=0, data=[65, 24]),
   midi.NoteOnEvent(tick=240, channel=0, data=[65, 0]),
   midi.NoteOnEvent(tick=0, channel=0, data=[62, 32]),
   midi.NoteOnEvent(tick=240, channel=0, data=[62, 0]),
   midi.NoteOnEvent(tick=0, channel=0, data=[65, 25]),
   midi.NoteOnEvent(tick=240, channel=0, data=[65, 0]),
   midi.NoteOnEvent(tick=0, channel=0, data=[63, 35]),
   midi.NoteOnEvent(tick=240, channel=0, data=[63, 0]),
   midi.NoteOnEvent(tick=0, channel=0, data=[65, 31]),
   midi.NoteOnEvent(tick=240, channel=0, data=[65, 0]),
   midi.NoteOnEvent(tick=0, channel=0, data=[63, 35]),
   midi.NoteOnEvent(tick=240, channel=0, data=[63, 0]),
   midi.NoteOnEvent(tick=0, channel=0, data=[65, 26]),
   midi.NoteOnEvent(tick=240, channel=0, data=[65, 0]),
   midi.NoteOnEvent(tick=0, channel=0, data=[63, 33]),
   midi.NoteOnEvent(tick=240, channel=0, data=[63, 0]),
   midi.NoteOnEvent(tick=0, channel=0, data=[65, 29]),
   midi.NoteOnEvent(tick=240, channel=0, data=[65, 0]),
   midi.NoteOnEvent(tick=0, channel=0, data=[61, 35]),
   midi.NoteOnEvent(tick=240, channel=0, data=[61, 0]),
   midi.NoteOnEvent(tick=0, channel=0, data=[65, 30]),
   midi.NoteOnEvent(tick=240, channel=0, data=[65, 0]),
   midi.NoteOnEvent(tick=0, channel=0, data=[61, 32]),
   midi.NoteOnEvent(tick=240, channel=0, data=[61, 0]),
   midi.NoteOnEvent(tick=0, channel=0, data=[65, 28]),
   midi.NoteOnEvent(tick=240, channel=0, data=[65, 0]),
   midi.NoteOnEvent(tick=0, channel=0, data=[61, 38]),
   midi.NoteOnEvent(tick=240, channel=0, data=[61, 0]),
   midi.NoteOnEvent(tick=0, channel=0, data=[65, 31]),
   midi.NoteOnEvent(tick=240, channel=0, data=[65, 0]),
   midi.NoteOnEvent(tick=0, channel=0, data=[55, 40]),
   midi.NoteOnEvent(tick=0, channel=0, data=[62, 40]),
   midi.NoteOnEvent(tick=240, channel=0, data=[62, 0]),
   midi.NoteOnEvent(tick=0, channel=0, data=[65, 34]),
   midi.NoteOnEvent(tick=240, channel=0, data=[65, 0]),
   midi.NoteOnEvent(tick=0, channel=0, data=[62, 38]),
   midi.NoteOnEvent(tick=240, channel=0, data=[62, 0]),
   midi.NoteOnEvent(tick=0, channel=0, data=[65, 32]),
   midi.NoteOnEvent(tick=240, channel=0, data=[65, 0]),
   midi.NoteOnEvent(tick=0, channel=0, data=[62, 39]),
   midi.NoteOnEvent(tick=240, channel=0, data=[62, 0]),
   midi.NoteOnEvent(tick=0, channel=0, data=[65, 32]),
   midi.NoteOnEvent(tick=240, channel=0, data=[65, 0]),
   midi.NoteOnEvent(tick=0, channel=0, data=[55, 0]),
   midi.NoteOnEvent(tick=0, channel=0, data=[63, 39]),
   midi.NoteOnEvent(tick=0, channel=0, data=[60, 39]),
   midi.NoteOnEvent(tick=480, channel=0, data=[60, 0]),
   midi.NoteOnEvent(tick=0, channel=0, data=[63, 0]),
   midi.NoteOnEvent(tick=0, channel=0, data=[65, 35]),
   midi.NoteOnEvent(tick=0, channel=0, data=[57, 35]),
   midi.NoteOnEvent(tick=480, channel=0, data=[57, 0]),
   midi.NoteOnEvent(tick=0, channel=0, data=[58, 35]),
   midi.NoteOnEvent(tick=480, channel=0, data=[58, 0]),
   midi.NoteOnEvent(tick=0, channel=0, data=[65, 0]),
   midi.NoteOnEvent(tick=0, channel=0, data=[51, 43]),
   midi.NoteOnEvent(tick=0, channel=0, data=[63, 43]),
   midi.NoteOnEvent(tick=480, channel=0, data=[63, 0]),
   midi.NoteOnEvent(tick=0, channel=0, data=[51, 0]),
   midi.NoteOnEvent(tick=0, channel=0, data=[62, 40]),
   midi.NoteOnEvent(tick=0, channel=0, data=[53, 40]),
   midi.NoteOnEvent(tick=480, channel=0, data=[62, 0]),
   midi.NoteOnEvent(tick=0, channel=0, data=[60, 40]),
   midi.NoteOnEvent(tick=480, channel=0, data=[60, 0]),
   midi.NoteOnEvent(tick=0, channel=0, data=[53, 0]),
   midi.NoteOnEvent(tick=0, channel=0, data=[58, 40]),
   midi.NoteOnEvent(tick=480, channel=0, data=[58, 0]),
   midi.NoteOnEvent(tick=240, channel=0, data=[50, 45]),
   midi.NoteOnEvent(tick=240, channel=0, data=[50, 0]),
   midi.NoteOnEvent(tick=0, channel=0, data=[48, 50]),
   midi.NoteOnEvent(tick=240, channel=0, data=[48, 0]),
   midi.NoteOnEvent(tick=0, channel=0, data=[46, 45]),
   midi.NoteOnEvent(tick=240, channel=0, data=[46, 0]),
   midi.NoteOnEvent(tick=0, channel=0, data=[45, 40]),
   midi.NoteOnEvent(tick=480, channel=0, data=[45, 0]),
   midi.NoteOnEvent(tick=240, channel=0, data=[55, 45]),
   midi.NoteOnEvent(tick=240, channel=0, data=[55, 0]),
   midi.NoteOnEvent(tick=0, channel=0, data=[53, 50]),
   midi.NoteOnEvent(tick=240, channel=0, data=[53, 0]),
   midi.NoteOnEvent(tick=0, channel=0, data=[45, 45]),
   midi.NoteOnEvent(tick=240, channel=0, data=[45, 0]),
   midi.NoteOnEvent(tick=0, channel=0, data=[46, 40]),
   midi.NoteOnEvent(tick=480, channel=0, data=[46, 0]),
   midi.NoteOnEvent(tick=240, channel=0, data=[62, 48]),
   midi.NoteOnEvent(tick=240, channel=0, data=[62, 0]),
   midi.NoteOnEvent(tick=0, channel=0, data=[60, 52]),
   midi.NoteOnEvent(tick=240, channel=0, data=[60, 0]),
   midi.NoteOnEvent(tick=0, channel=0, data=[58, 48]),
   midi.NoteOnEvent(tick=240, channel=0, data=[58, 0]),
   midi.NoteOnEvent(tick=0, channel=0, data=[57, 48]),
   midi.NoteOnEvent(tick=480, channel=0, data=[57, 0]),
   midi.NoteOnEvent(tick=240, channel=0, data=[67, 49]),
   midi.NoteOnEvent(tick=240, channel=0, data=[67, 0]),
   midi.NoteOnEvent(tick=0, channel=0, data=[65, 50]),
   midi.NoteOnEvent(tick=240, channel=0, data=[65, 0]),
   midi.NoteOnEvent(tick=0, channel=0, data=[57, 46]),
   midi.NoteOnEvent(tick=240, channel=0, data=[57, 0]),
   midi.NoteOnEvent(tick=0, channel=0, data=[58, 50]),
   midi.NoteOnEvent(tick=480, channel=0, data=[58, 0]),
   midi.NoteOnEvent(tick=240, channel=0, data=[65, 50]),
   midi.NoteOnEvent(tick=240, channel=0, data=[65, 0]),
   midi.NoteOnEvent(tick=0, channel=0, data=[62, 54]),
   midi.NoteOnEvent(tick=240, channel=0, data=[62, 0]),
   midi.NoteOnEvent(tick=0, channel=0, data=[60, 51]),
   midi.NoteOnEvent(tick=240, channel=0, data=[60, 0]),
   midi.NoteOnEvent(tick=0, channel=0, data=[59, 54]),
   midi.NoteOnEvent(tick=480, channel=0, data=[59, 0]),
   midi.NoteOnEvent(tick=240, channel=0, data=[68, 45]),
   midi.NoteOnEvent(tick=240, channel=0, data=[68, 0]),
   midi.NoteOnEvent(tick=0, channel=0, data=[67, 50]),
   midi.NoteOnEvent(tick=240, channel=0, data=[67, 0]),
   midi.NoteOnEvent(tick=0, channel=0, data=[59, 45]),
   midi.NoteOnEvent(tick=240, channel=0, data=[59, 0]),
   midi.NoteOnEvent(tick=0, channel=0, data=[60, 42]),
   midi.NoteOnEvent(tick=120, channel=0, data=[60, 0]),
   midi.NoteOnEvent(tick=0, channel=0, data=[67, 33]),
   midi.NoteOnEvent(tick=120, channel=0, data=[67, 0]),
   midi.NoteOnEvent(tick=0, channel=0, data=[64, 36]),
   midi.NoteOnEvent(tick=120, channel=0, data=[64, 0]),
   midi.NoteOnEvent(tick=0, channel=0, data=[67, 33]),
   midi.NoteOnEvent(tick=120, channel=0, data=[67, 0]),
   midi.NoteOnEvent(tick=0, channel=0, data=[57, 38]),
   midi.NoteOnEvent(tick=120, channel=0, data=[57, 0]),
   midi.NoteOnEvent(tick=0, channel=0, data=[66, 33]),
   midi.NoteOnEvent(tick=120, channel=0, data=[66, 0]),
   midi.NoteOnEvent(tick=0, channel=0, data=[60, 36]),
   midi.NoteOnEvent(tick=120, channel=0, data=[60, 0]),
   midi.NoteOnEvent(tick=0, channel=0, data=[66, 33]),
   midi.NoteOnEvent(tick=120, channel=0, data=[66, 0]),
   midi.NoteOnEvent(tick=0, channel=0, data=[58, 39]),
   midi.NoteOnEvent(tick=120, channel=0, data=[58, 0]),
   midi.NoteOnEvent(tick=0, channel=0, data=[65, 33]),
   midi.NoteOnEvent(tick=120, channel=0, data=[65, 0]),
   midi.NoteOnEvent(tick=0, channel=0, data=[62, 37]),
   midi.NoteOnEvent(tick=120, channel=0, data=[62, 0]),
   midi.NoteOnEvent(tick=0, channel=0, data=[65, 37]),
   midi.NoteOnEvent(tick=120, channel=0, data=[65, 0]),
   midi.NoteOnEvent(tick=0, channel=0, data=[51, 31]),
   midi.NoteOnEvent(tick=0, channel=0, data=[63, 37]),
   midi.NoteOnEvent(tick=480, channel=0, data=[63, 0]),
   midi.NoteOnEvent(tick=0, channel=0, data=[51, 0]),
   midi.NoteOnEvent(tick=0, channel=0, data=[53, 31]),
   midi.NoteOnEvent(tick=0, channel=0, data=[62, 37]),
   midi.NoteOnEvent(tick=480, channel=0, data=[62, 0]),
   midi.NoteOnEvent(tick=0, channel=0, data=[53, 0]),
   midi.NoteOnEvent(tick=0, channel=0, data=[51, 31]),
   midi.NoteOnEvent(tick=0, channel=0, data=[60, 37]),
   midi.NoteOnEvent(tick=480, channel=0, data=[60, 0]),
   midi.NoteOnEvent(tick=0, channel=0, data=[51, 0]),
   midi.NoteOnEvent(tick=0, channel=0, data=[50, 34]),
   midi.NoteOnEvent(tick=0, channel=0, data=[58, 40]),
   midi.NoteOnEvent(tick=480, channel=0, data=[58, 0]),
   midi.NoteOnEvent(tick=0, channel=0, data=[50, 0]),
   midi.NoteOnEvent(tick=480, channel=0, data=[65, 37]),
   midi.NoteOnEvent(tick=0, channel=0, data=[62, 31]),
   midi.NoteOnEvent(tick=480, channel=0, data=[62, 0]),
   midi.NoteOnEvent(tick=0, channel=0, data=[65, 0]),
   midi.NoteOnEvent(tick=0, channel=0, data=[63, 37]),
   midi.NoteOnEvent(tick=0, channel=0, data=[67, 44]),
   midi.NoteOnEvent(tick=480, channel=0, data=[67, 0]),
   midi.NoteOnEvent(tick=0, channel=0, data=[63, 0]),
   midi.NoteOnEvent(tick=480, channel=0, data=[55, 31]),
   midi.NoteOnEvent(tick=0, channel=0, data=[58, 31]),
   midi.NoteOnEvent(tick=0, channel=0, data=[60, 37]),
   midi.NoteOnEvent(tick=480, channel=0, data=[60, 0]),
   midi.NoteOnEvent(tick=0, channel=0, data=[58, 0]),
   midi.NoteOnEvent(tick=0, channel=0, data=[55, 0]),
   midi.NoteOnEvent(tick=0, channel=0, data=[53, 45]),
   midi.NoteOnEvent(tick=120, channel=0, data=[53, 0]),
   midi.NoteOnEvent(tick=0, channel=0, data=[62, 37]),
   midi.NoteOnEvent(tick=120, channel=0, data=[62, 0]),
   midi.NoteOnEvent(tick=0, channel=0, data=[58, 40]),
   midi.NoteOnEvent(tick=120, channel=0, data=[58, 0]),
   midi.NoteOnEvent(tick=0, channel=0, data=[62, 37]),
   midi.NoteOnEvent(tick=120, channel=0, data=[62, 0]),
   midi.NoteOnEvent(tick=0, channel=0, data=[53, 45]),
   midi.NoteOnEvent(tick=120, channel=0, data=[53, 0]),
   midi.NoteOnEvent(tick=0, channel=0, data=[62, 37]),
   midi.NoteOnEvent(tick=120, channel=0, data=[62, 0]),
   midi.NoteOnEvent(tick=0, channel=0, data=[58, 40]),
   midi.NoteOnEvent(tick=120, channel=0, data=[58, 0]),
   midi.NoteOnEvent(tick=0, channel=0, data=[62, 37]),
   midi.NoteOnEvent(tick=120, channel=0, data=[62, 0]),
   midi.NoteOnEvent(tick=0, channel=0, data=[53, 48]),
   midi.NoteOnEvent(tick=120, channel=0, data=[53, 0]),
   midi.NoteOnEvent(tick=0, channel=0, data=[62, 37]),
   midi.NoteOnEvent(tick=120, channel=0, data=[62, 0]),
   midi.NoteOnEvent(tick=0, channel=0, data=[58, 41]),
   midi.NoteOnEvent(tick=120, channel=0, data=[58, 0]),
   midi.NoteOnEvent(tick=0, channel=0, data=[62, 37]),
   midi.NoteOnEvent(tick=120, channel=0, data=[62, 0]),
   midi.NoteOnEvent(tick=0, channel=0, data=[53, 45]),
   midi.NoteOnEvent(tick=120, channel=0, data=[53, 0]),
   midi.NoteOnEvent(tick=0, channel=0, data=[63, 37]),
   midi.NoteOnEvent(tick=120, channel=0, data=[63, 0]),
   midi.NoteOnEvent(tick=0, channel=0, data=[57, 40]),
   midi.NoteOnEvent(tick=120, channel=0, data=[57, 0]),
   midi.NoteOnEvent(tick=0, channel=0, data=[63, 37]),
   midi.NoteOnEvent(tick=120, channel=0, data=[63, 0]),
   midi.NoteOnEvent(tick=0, channel=0, data=[53, 45]),
   midi.NoteOnEvent(tick=120, channel=0, data=[53, 0]),
   midi.NoteOnEvent(tick=0, channel=0, data=[63, 37]),
   midi.NoteOnEvent(tick=120, channel=0, data=[63, 0]),
   midi.NoteOnEvent(tick=0, channel=0, data=[57, 40]),
   midi.NoteOnEvent(tick=120, channel=0, data=[57, 0]),
   midi.NoteOnEvent(tick=0, channel=0, data=[63, 37]),
   midi.NoteOnEvent(tick=120, channel=0, data=[63, 0]),
   midi.NoteOnEvent(tick=0, channel=0, data=[53, 48]),
   midi.NoteOnEvent(tick=120, channel=0, data=[53, 0]),
   midi.NoteOnEvent(tick=0, channel=0, data=[63, 37]),
   midi.NoteOnEvent(tick=120, channel=0, data=[63, 0]),
   midi.NoteOnEvent(tick=0, channel=0, data=[57, 41]),
   midi.NoteOnEvent(tick=120, channel=0, data=[57, 0]),
   midi.NoteOnEvent(tick=0, channel=0, data=[63, 37]),
   midi.NoteOnEvent(tick=120, channel=0, data=[63, 0]),
   midi.NoteOnEvent(tick=0, channel=0, data=[58, 41]),
   midi.NoteOnEvent(tick=240, channel=0, data=[62, 28]),
   midi.NoteOnEvent(tick=12, channel=0, data=[58, 0]),
   midi.NoteOnEvent(tick=228, channel=0, data=[65, 35]),
   midi.NoteOnEvent(tick=12, channel=0, data=[62, 0]),
   midi.NoteOnEvent(tick=228, channel=0, data=[70, 34]),
   midi.NoteOnEvent(tick=12, channel=0, data=[65, 0]),
   midi.NoteOnEvent(tick=228, channel=0, data=[69, 32]),
   midi.NoteOnEvent(tick=12, channel=0, data=[70, 0]),
   midi.NoteOnEvent(tick=228, channel=0, data=[68, 30]),
   midi.NoteOnEvent(tick=12, channel=0, data=[69, 0]),
   midi.NoteOnEvent(tick=228, channel=0, data=[67, 28]),
   midi.NoteOnEvent(tick=12, channel=0, data=[68, 0]),
   midi.NoteOnEvent(tick=228, channel=0, data=[67, 0]),
   midi.NoteOnEvent(tick=0, channel=0, data=[70, 21]),
   midi.NoteOnEvent(tick=240, channel=0, data=[70, 0]),
   midi.NoteOnEvent(tick=0, channel=0, data=[65, 31]),
   midi.NoteOnEvent(tick=240, channel=0, data=[65, 0]),
   midi.NoteOnEvent(tick=0, channel=0, data=[70, 24]),
   midi.NoteOnEvent(tick=240, channel=0, data=[70, 0]),
   midi.NoteOnEvent(tick=0, channel=0, data=[63, 31]),
   midi.NoteOnEvent(tick=240, channel=0, data=[63, 0]),
   midi.NoteOnEvent(tick=0, channel=0, data=[70, 25]),
   midi.NoteOnEvent(tick=240, channel=0, data=[70, 0]),
   midi.NoteOnEvent(tick=0, channel=0, data=[62, 31]),
   midi.NoteOnEvent(tick=240, channel=0, data=[62, 0]),
   midi.NoteOnEvent(tick=0, channel=0, data=[70, 28]),
   midi.NoteOnEvent(tick=240, channel=0, data=[70, 0]),
   midi.NoteOnEvent(tick=0, channel=0, data=[69, 31]),
   midi.NoteOnEvent(tick=240, channel=0, data=[69, 0]),
   midi.NoteOnEvent(tick=0, channel=0, data=[70, 28]),
   midi.NoteOnEvent(tick=240, channel=0, data=[70, 0]),
   midi.NoteOnEvent(tick=0, channel=0, data=[55, 31]),
   midi.NoteOnEvent(tick=240, channel=0, data=[55, 0]),
   midi.NoteOnEvent(tick=0, channel=0, data=[63, 27]),
   midi.NoteOnEvent(tick=240, channel=0, data=[63, 0]),
   midi.NoteOnEvent(tick=0, channel=0, data=[53, 31]),
   midi.NoteOnEvent(tick=240, channel=0, data=[53, 0]),
   midi.NoteOnEvent(tick=0, channel=0, data=[62, 27]),
   midi.NoteOnEvent(tick=240, channel=0, data=[62, 0]),
   midi.NoteOnEvent(tick=0, channel=0, data=[58, 31]),
   midi.NoteOnEvent(tick=240, channel=0, data=[58, 0]),
   midi.NoteOnEvent(tick=0, channel=0, data=[62, 29]),
   midi.NoteOnEvent(tick=240, channel=0, data=[62, 0]),
   midi.NoteOnEvent(tick=0, channel=0, data=[53, 31]),
   midi.NoteOnEvent(tick=240, channel=0, data=[53, 0]),
   midi.NoteOnEvent(tick=0, channel=0, data=[63, 27]),
   midi.NoteOnEvent(tick=240, channel=0, data=[63, 0]),
   midi.NoteOnEvent(tick=0, channel=0, data=[62, 31]),
   midi.NoteOnEvent(tick=240, channel=0, data=[62, 0]),
   midi.NoteOnEvent(tick=0, channel=0, data=[58, 24]),
   midi.NoteOnEvent(tick=240, channel=0, data=[58, 0]),
   midi.NoteOnEvent(tick=0, channel=0, data=[57, 30]),
   midi.NoteOnEvent(tick=240, channel=0, data=[57, 0]),
   midi.NoteOnEvent(tick=0, channel=0, data=[56, 26]),
   midi.NoteOnEvent(tick=240, channel=0, data=[56, 0]),
   midi.NoteOnEvent(tick=0, channel=0, data=[55, 29]),
   midi.NoteOnEvent(tick=240, channel=0, data=[55, 0]),
   midi.NoteOnEvent(tick=0, channel=0, data=[54, 31]),
   midi.NoteOnEvent(tick=240, channel=0, data=[54, 0]),
   midi.NoteOnEvent(tick=0, channel=0, data=[55, 28]),
   midi.NoteOnEvent(tick=240, channel=0, data=[55, 0]),
   midi.NoteOnEvent(tick=0, channel=0, data=[58, 27]),
   midi.NoteOnEvent(tick=240, channel=0, data=[58, 0]),
   midi.NoteOnEvent(tick=0, channel=0, data=[53, 38]),
   midi.NoteOnEvent(tick=240, channel=0, data=[53, 0]),
   midi.NoteOnEvent(tick=0, channel=0, data=[57, 32]),
   midi.NoteOnEvent(tick=240, channel=0, data=[57, 0]),
   midi.NoteOnEvent(tick=0, channel=0, data=[52, 40]),
   midi.NoteOnEvent(tick=240, channel=0, data=[52, 0]),
   midi.NoteOnEvent(tick=0, channel=0, data=[61, 34]),
   midi.NoteOnEvent(tick=240, channel=0, data=[61, 0]),
   midi.NoteOnEvent(tick=0, channel=0, data=[53, 41]),
   midi.NoteOnEvent(tick=240, channel=0, data=[53, 0]),
   midi.NoteOnEvent(tick=0, channel=0, data=[62, 35]),
   midi.NoteOnEvent(tick=240, channel=0, data=[62, 0]),
   midi.NoteOnEvent(tick=0, channel=0, data=[58, 38]),
   midi.NoteOnEvent(tick=240, channel=0, data=[58, 0]),
   midi.NoteOnEvent(tick=0, channel=0, data=[62, 33]),
   midi.NoteOnEvent(tick=240, channel=0, data=[62, 0]),
   midi.NoteOnEvent(tick=0, channel=0, data=[53, 40]),
   midi.NoteOnEvent(tick=240, channel=0, data=[53, 0]),
   midi.NoteOnEvent(tick=0, channel=0, data=[62, 35]),
   midi.NoteOnEvent(tick=240, channel=0, data=[62, 0]),
   midi.NoteOnEvent(tick=0, channel=0, data=[53, 41]),
   midi.NoteOnEvent(tick=240, channel=0, data=[53, 0]),
   midi.NoteOnEvent(tick=0, channel=0, data=[65, 33]),
   midi.NoteOnEvent(tick=240, channel=0, data=[65, 0]),
   midi.NoteOnEvent(tick=0, channel=0, data=[62, 43]),
   midi.NoteOnEvent(tick=240, channel=0, data=[62, 0]),
   midi.NoteOnEvent(tick=0, channel=0, data=[65, 33]),
   midi.NoteOnEvent(tick=240, channel=0, data=[65, 0]),
   midi.NoteOnEvent(tick=0, channel=0, data=[53, 45]),
   midi.NoteOnEvent(tick=240, channel=0, data=[53, 0]),
   midi.NoteOnEvent(tick=0, channel=0, data=[63, 38]),
   midi.NoteOnEvent(tick=240, channel=0, data=[63, 0]),
   midi.NoteOnEvent(tick=120, channel=0, data=[58, 54]),
   midi.NoteOnEvent(tick=120, channel=0, data=[58, 0]),
   midi.NoteOnEvent(tick=0, channel=0, data=[62, 56]),
   midi.NoteOnEvent(tick=120, channel=0, data=[62, 0]),
   midi.NoteOnEvent(tick=0, channel=0, data=[65, 59]),
   midi.NoteOnEvent(tick=120, channel=0, data=[65, 0]),
   midi.NoteOnEvent(tick=0, channel=0, data=[70, 61]),
   midi.NoteOnEvent(tick=240, channel=0, data=[70, 0]),
   midi.NoteOnEvent(tick=240, channel=0, data=[53, 54]),
   midi.NoteOnEvent(tick=0, channel=0, data=[57, 54]),
   midi.NoteOnEvent(tick=240, channel=0, data=[57, 0]),
   midi.NoteOnEvent(tick=0, channel=0, data=[53, 0]),
   midi.NoteOnEvent(tick=360, channel=0, data=[46, 54]),
   midi.NoteOnEvent(tick=120, channel=0, data=[46, 0]),
   midi.NoteOnEvent(tick=0, channel=0, data=[50, 56]),
   midi.NoteOnEvent(tick=120, channel=0, data=[50, 0]),
   midi.NoteOnEvent(tick=0, channel=0, data=[53, 59]),
   midi.NoteOnEvent(tick=120, channel=0, data=[53, 0]),
   midi.NoteOnEvent(tick=0, channel=0, data=[58, 61]),
   midi.NoteOnEvent(tick=240, channel=0, data=[58, 0]),
   midi.NoteOnEvent(tick=240, channel=0, data=[45, 54]),
   midi.NoteOnEvent(tick=0, channel=0, data=[41, 54]),
   midi.NoteOnEvent(tick=240, channel=0, data=[41, 0]),
   midi.NoteOnEvent(tick=0, channel=0, data=[45, 0]),
   midi.NoteOnEvent(tick=240, channel=0, data=[46, 59]),
   midi.NoteOnEvent(tick=168, channel=0, data=[46, 0]),
   midi.NoteOnEvent(tick=312, channel=0, data=[34, 59]),
   midi.NoteOnEvent(tick=480, channel=0, data=[34, 0]),
   midi.ControlChangeEvent(tick=0, channel=0, data=[64, 127]),
   midi.ControlChangeEvent(tick=981, channel=0, data=[64, 0]),
   midi.ControlChangeEvent(tick=170, channel=0, data=[64, 127]),
   midi.ControlChangeEvent(tick=304, channel=0, data=[64, 0]),
   midi.ControlChangeEvent(tick=279, channel=0, data=[64, 127]),
   midi.ControlChangeEvent(tick=694, channel=0, data=[64, 0]),
   midi.ControlChangeEvent(tick=158, channel=0, data=[64, 127]),
   midi.ControlChangeEvent(tick=310, channel=0, data=[64, 0]),
   midi.ControlChangeEvent(tick=331, channel=0, data=[64, 127]),
   midi.ControlChangeEvent(tick=639, channel=0, data=[64, 0]),
   midi.ControlChangeEvent(tick=97, channel=0, data=[64, 127]),
   midi.ControlChangeEvent(tick=357, channel=0, data=[64, 0]),
   midi.ControlChangeEvent(tick=170, channel=0, data=[64, 127]),
   midi.ControlChangeEvent(tick=847, channel=0, data=[64, 0]),
   midi.ControlChangeEvent(tick=169, channel=0, data=[64, 127]),
   midi.ControlChangeEvent(tick=254, channel=0, data=[64, 0]),
   midi.ControlChangeEvent(tick=5371, channel=0, data=[64, 127]),
   midi.ControlChangeEvent(tick=403, channel=0, data=[64, 0]),
   midi.ControlChangeEvent(tick=14573, channel=0, data=[64, 127]),
   midi.ControlChangeEvent(tick=1259, channel=0, data=[64, 0]),
   midi.ControlChangeEvent(tick=1434, channel=0, data=[64, 127]),
   midi.ControlChangeEvent(tick=156, channel=0, data=[64, 0]),
   midi.ControlChangeEvent(tick=360, channel=0, data=[64, 127]),
   midi.ControlChangeEvent(tick=204, channel=0, data=[64, 0]),
   midi.ControlChangeEvent(tick=737, channel=0, data=[64, 127]),
   midi.ControlChangeEvent(tick=166, channel=0, data=[64, 0]),
   midi.ControlChangeEvent(tick=343, channel=0, data=[64, 127]),
   midi.ControlChangeEvent(tick=246, channel=0, data=[64, 0]),
   midi.ControlChangeEvent(tick=668, channel=0, data=[64, 127]),
   midi.ControlChangeEvent(tick=974, channel=0, data=[64, 0]),
   midi.ControlChangeEvent(tick=1095, channel=0, data=[64, 127]),
   midi.ControlChangeEvent(tick=816, channel=0, data=[64, 0]),
   midi.ControlChangeEvent(tick=1595, channel=0, data=[64, 127]),
   midi.ControlChangeEvent(tick=1290, channel=0, data=[64, 0]),
   midi.ControlChangeEvent(tick=138, channel=0, data=[64, 127]),
   midi.ControlChangeEvent(tick=826, channel=0, data=[64, 0]),
   midi.ControlChangeEvent(tick=1095, channel=0, data=[64, 127]),
   midi.ControlChangeEvent(tick=822, channel=0, data=[64, 0]),
   midi.ControlChangeEvent(tick=1669, channel=0, data=[64, 127]),
   midi.ControlChangeEvent(tick=1211, channel=0, data=[64, 0]),
   midi.ControlChangeEvent(tick=1669, channel=0, data=[64, 127]),
   midi.ControlChangeEvent(tick=1211, channel=0, data=[64, 0]),
   midi.ControlChangeEvent(tick=1669, channel=0, data=[64, 127]),
   midi.ControlChangeEvent(tick=1200, channel=0, data=[64, 0]),
   midi.ControlChangeEvent(tick=977, channel=0, data=[64, 127]),
   midi.ControlChangeEvent(tick=468, channel=0, data=[64, 0]),
   midi.ControlChangeEvent(tick=80, channel=0, data=[64, 127]),
   midi.ControlChangeEvent(tick=404, channel=0, data=[64, 0]),
   midi.ControlChangeEvent(tick=90, channel=0, data=[64, 127]),
   midi.ControlChangeEvent(tick=390, channel=0, data=[64, 0]),
   midi.ControlChangeEvent(tick=62, channel=0, data=[64, 127]),
   midi.ControlChangeEvent(tick=416, channel=0, data=[64, 0]),
   midi.ControlChangeEvent(tick=965, channel=0, data=[64, 127]),
   midi.ControlChangeEvent(tick=476, channel=0, data=[64, 0]),
   midi.ControlChangeEvent(tick=70, channel=0, data=[64, 127]),
   midi.ControlChangeEvent(tick=412, channel=0, data=[64, 0]),
   midi.ControlChangeEvent(tick=110, channel=0, data=[64, 127]),
   midi.ControlChangeEvent(tick=368, channel=0, data=[64, 0]),
   midi.ControlChangeEvent(tick=85, channel=0, data=[64, 127]),
   midi.ControlChangeEvent(tick=387, channel=0, data=[64, 0]),
   midi.ControlChangeEvent(tick=80, channel=0, data=[64, 127]),
   midi.ControlChangeEvent(tick=1362, channel=0, data=[64, 0]),
   midi.ControlChangeEvent(tick=83, channel=0, data=[64, 127]),
   midi.ControlChangeEvent(tick=62, channel=0, data=[64, 0]),
   midi.ControlChangeEvent(tick=418, channel=0, data=[64, 127]),
   midi.ControlChangeEvent(tick=374, channel=0, data=[64, 0]),
   midi.ControlChangeEvent(tick=661, channel=0, data=[64, 127]),
   midi.ControlChangeEvent(tick=827, channel=0, data=[64, 0]),
   midi.ControlChangeEvent(tick=187, channel=0, data=[64, 127]),
   midi.ControlChangeEvent(tick=280, channel=0, data=[64, 0]),
   midi.ControlChangeEvent(tick=200, channel=0, data=[64, 127]),
   midi.ControlChangeEvent(tick=762, channel=0, data=[64, 0]),
   midi.ControlChangeEvent(tick=224, channel=0, data=[64, 127]),
   midi.ControlChangeEvent(tick=249, channel=0, data=[64, 0]),
   midi.ControlChangeEvent(tick=1431, channel=0, data=[64, 0]),
   midi.ControlChangeEvent(tick=7286, channel=0, data=[64, 127]),
   midi.ControlChangeEvent(tick=662, channel=0, data=[64, 0]),
   midi.ControlChangeEvent(tick=862, channel=0, data=[64, 127]),
   midi.ControlChangeEvent(tick=559, channel=0, data=[64, 0]),
   midi.ControlChangeEvent(tick=852, channel=0, data=[64, 127]),
   midi.ControlChangeEvent(tick=588, channel=0, data=[64, 0]),
   midi.ControlChangeEvent(tick=867, channel=0, data=[64, 127]),
   midi.ControlChangeEvent(tick=578, channel=0, data=[64, 0]),
   midi.ControlChangeEvent(tick=847, channel=0, data=[64, 127]),
   midi.ControlChangeEvent(tick=595, channel=0, data=[64, 0]),
   midi.ControlChangeEvent(tick=888, channel=0, data=[64, 127]),
   midi.ControlChangeEvent(tick=550, channel=0, data=[64, 0]),
   midi.ControlChangeEvent(tick=2196, channel=0, data=[64, 127]),
   midi.ControlChangeEvent(tick=443, channel=0, data=[64, 0]),
   midi.ControlChangeEvent(tick=504, channel=0, data=[64, 127]),
   midi.ControlChangeEvent(tick=483, channel=0, data=[64, 0]),
   midi.ControlChangeEvent(tick=80, channel=0, data=[64, 127]),
   midi.ControlChangeEvent(tick=132, channel=0, data=[64, 0]),
   midi.ControlChangeEvent(tick=543, channel=0, data=[64, 127]),
   midi.ControlChangeEvent(tick=177, channel=0, data=[64, 0]),
   midi.ControlChangeEvent(tick=63, channel=0, data=[64, 127]),
   midi.ControlChangeEvent(tick=172, channel=0, data=[64, 0]),
   midi.ControlChangeEvent(tick=50, channel=0, data=[64, 127]),
   midi.ControlChangeEvent(tick=199, channel=0, data=[64, 0]),
   midi.ControlChangeEvent(tick=104, channel=0, data=[64, 127]),
   midi.ControlChangeEvent(tick=137, channel=0, data=[64, 0]),
   midi.ControlChangeEvent(tick=538, channel=0, data=[64, 127]),
   midi.ControlChangeEvent(tick=177, channel=0, data=[64, 0]),
   midi.ControlChangeEvent(tick=63, channel=0, data=[64, 127]),
   midi.ControlChangeEvent(tick=172, channel=0, data=[64, 0]),
   midi.ControlChangeEvent(tick=50, channel=0, data=[64, 127]),
   midi.ControlChangeEvent(tick=223, channel=0, data=[64, 0]),
   midi.ControlChangeEvent(tick=80, channel=0, data=[64, 127]),
   midi.ControlChangeEvent(tick=132, channel=0, data=[64, 0]),
   midi.ControlChangeEvent(tick=543, channel=0, data=[64, 127]),
   midi.ControlChangeEvent(tick=177, channel=0, data=[64, 0]),
   midi.ControlChangeEvent(tick=63, channel=0, data=[64, 127]),
   midi.ControlChangeEvent(tick=172, channel=0, data=[64, 0]),
   midi.ControlChangeEvent(tick=50, channel=0, data=[64, 127]),
   midi.ControlChangeEvent(tick=199, channel=0, data=[64, 0]),
   midi.ControlChangeEvent(tick=104, channel=0, data=[64, 127]),
   midi.ControlChangeEvent(tick=126, channel=0, data=[64, 0]),
   midi.ControlChangeEvent(tick=549, channel=0, data=[64, 127]),
   midi.ControlChangeEvent(tick=177, channel=0, data=[64, 0]),
   midi.ControlChangeEvent(tick=63, channel=0, data=[64, 127]),
   midi.ControlChangeEvent(tick=172, channel=0, data=[64, 0]),
   midi.ControlChangeEvent(tick=50, channel=0, data=[64, 127]),
   midi.ControlChangeEvent(tick=223, channel=0, data=[64, 0]),
   midi.ControlChangeEvent(tick=80, channel=0, data=[64, 127]),
   midi.ControlChangeEvent(tick=130, channel=0, data=[64, 0]),
   midi.ControlChangeEvent(tick=545, channel=0, data=[64, 127]),
   midi.ControlChangeEvent(tick=177, channel=0, data=[64, 0]),
   midi.ControlChangeEvent(tick=63, channel=0, data=[64, 127]),
   midi.ControlChangeEvent(tick=172, channel=0, data=[64, 0]),
   midi.ControlChangeEvent(tick=50, channel=0, data=[64, 127]),
   midi.ControlChangeEvent(tick=223, channel=0, data=[64, 0]),
   midi.ControlChangeEvent(tick=80, channel=0, data=[64, 127]),
   midi.ControlChangeEvent(tick=126, channel=0, data=[64, 0]),
   midi.ControlChangeEvent(tick=549, channel=0, data=[64, 127]),
   midi.ControlChangeEvent(tick=177, channel=0, data=[64, 0]),
   midi.ControlChangeEvent(tick=63, channel=0, data=[64, 127]),
   midi.ControlChangeEvent(tick=172, channel=0, data=[64, 0]),
   midi.ControlChangeEvent(tick=50, channel=0, data=[64, 127]),
   midi.ControlChangeEvent(tick=189, channel=0, data=[64, 0]),
   midi.ControlChangeEvent(tick=80, channel=0, data=[64, 127]),
   midi.ControlChangeEvent(tick=405, channel=0, data=[64, 0]),
   midi.ControlChangeEvent(tick=68, channel=0, data=[64, 127]),
   midi.ControlChangeEvent(tick=417, channel=0, data=[64, 0]),
   midi.ControlChangeEvent(tick=64, channel=0, data=[64, 127]),
   midi.ControlChangeEvent(tick=454, channel=0, data=[64, 0]),
   midi.ControlChangeEvent(tick=61, channel=0, data=[64, 127]),
   midi.ControlChangeEvent(tick=374, channel=0, data=[64, 0]),
   midi.ControlChangeEvent(tick=83, channel=0, data=[64, 127]),
   midi.ControlChangeEvent(tick=399, channel=0, data=[64, 0]),
   midi.ControlChangeEvent(tick=81, channel=0, data=[64, 127]),
   midi.ControlChangeEvent(tick=388, channel=0, data=[64, 0]),
   midi.ControlChangeEvent(tick=2969, channel=0, data=[64, 127]),
   midi.ControlChangeEvent(tick=1378, channel=0, data=[64, 0]),
   midi.ControlChangeEvent(tick=16, channel=0, data=[64, 127]),
   midi.ControlChangeEvent(tick=1424, channel=0, data=[64, 0]),
   midi.ControlChangeEvent(tick=1484, channel=0, data=[64, 127]),
   midi.ControlChangeEvent(tick=422, channel=0, data=[64, 0]),
   midi.ControlChangeEvent(tick=163, channel=0, data=[64, 127]),
   midi.ControlChangeEvent(tick=317, channel=0, data=[64, 0]),
   midi.ControlChangeEvent(tick=114, channel=0, data=[64, 127]),
   midi.ControlChangeEvent(tick=353, channel=0, data=[64, 0]),
   midi.ControlChangeEvent(tick=1548, channel=0, data=[64, 127]),
   midi.ControlChangeEvent(tick=864, channel=0, data=[64, 0]),
   midi.ControlChangeEvent(tick=115, channel=0, data=[64, 127]),
   midi.ControlChangeEvent(tick=353, channel=0, data=[64, 0]),
   midi.ControlChangeEvent(tick=1511, channel=0, data=[64, 127]),
   midi.ControlChangeEvent(tick=422, channel=0, data=[64, 0]),
   midi.ControlChangeEvent(tick=163, channel=0, data=[64, 127]),
   midi.ControlChangeEvent(tick=317, channel=0, data=[64, 0]),
   midi.ControlChangeEvent(tick=114, channel=0, data=[64, 127]),
   midi.ControlChangeEvent(tick=353, channel=0, data=[64, 0]),
   midi.ControlChangeEvent(tick=1548, channel=0, data=[64, 127]),
   midi.ControlChangeEvent(tick=864, channel=0, data=[64, 0]),
   midi.ControlChangeEvent(tick=115, channel=0, data=[64, 127]),
   midi.ControlChangeEvent(tick=353, channel=0, data=[64, 0]),
   midi.ControlChangeEvent(tick=46, channel=0, data=[64, 127]),
   midi.ControlChangeEvent(tick=445, channel=0, data=[64, 0]),
   midi.ControlChangeEvent(tick=995, channel=0, data=[64, 127]),
   midi.ControlChangeEvent(tick=445, channel=0, data=[64, 0]),
   midi.ControlChangeEvent(tick=1556, channel=0, data=[64, 127]),
   midi.ControlChangeEvent(tick=353, channel=0, data=[64, 0]),
   midi.ControlChangeEvent(tick=480, channel=0, data=[64, 127]),
   midi.ControlChangeEvent(tick=981, channel=0, data=[64, 0]),
   midi.ControlChangeEvent(tick=170, channel=0, data=[64, 127]),
   midi.ControlChangeEvent(tick=304, channel=0, data=[64, 0]),
   midi.ControlChangeEvent(tick=279, channel=0, data=[64, 127]),
   midi.ControlChangeEvent(tick=694, channel=0, data=[64, 0]),
   midi.ControlChangeEvent(tick=158, channel=0, data=[64, 127]),
   midi.ControlChangeEvent(tick=310, channel=0, data=[64, 0]),
   midi.ControlChangeEvent(tick=331, channel=0, data=[64, 127]),
   midi.ControlChangeEvent(tick=639, channel=0, data=[64, 0]),
   midi.ControlChangeEvent(tick=97, channel=0, data=[64, 127]),
   midi.ControlChangeEvent(tick=357, channel=0, data=[64, 0]),
   midi.ControlChangeEvent(tick=170, channel=0, data=[64, 127]),
   midi.ControlChangeEvent(tick=847, channel=0, data=[64, 0]),
   midi.ControlChangeEvent(tick=169, channel=0, data=[64, 127]),
   midi.ControlChangeEvent(tick=254, channel=0, data=[64, 0]),
   midi.ControlChangeEvent(tick=5371, channel=0, data=[64, 127]),
   midi.ControlChangeEvent(tick=403, channel=0, data=[64, 0]),
   midi.ControlChangeEvent(tick=14573, channel=0, data=[64, 127]),
   midi.ControlChangeEvent(tick=1259, channel=0, data=[64, 0]),
   midi.ControlChangeEvent(tick=1434, channel=0, data=[64, 127]),
   midi.ControlChangeEvent(tick=156, channel=0, data=[64, 0]),
   midi.ControlChangeEvent(tick=360, channel=0, data=[64, 127]),
   midi.ControlChangeEvent(tick=204, channel=0, data=[64, 0]),
   midi.ControlChangeEvent(tick=737, channel=0, data=[64, 127]),
   midi.ControlChangeEvent(tick=166, channel=0, data=[64, 0]),
   midi.ControlChangeEvent(tick=343, channel=0, data=[64, 127]),
   midi.ControlChangeEvent(tick=246, channel=0, data=[64, 0]),
   midi.ControlChangeEvent(tick=668, channel=0, data=[64, 127]),
   midi.ControlChangeEvent(tick=974, channel=0, data=[64, 0]),
   midi.ControlChangeEvent(tick=1095, channel=0, data=[64, 127]),
   midi.ControlChangeEvent(tick=816, channel=0, data=[64, 0]),
   midi.ControlChangeEvent(tick=1595, channel=0, data=[64, 127]),
   midi.ControlChangeEvent(tick=1290, channel=0, data=[64, 0]),
   midi.ControlChangeEvent(tick=138, channel=0, data=[64, 127]),
   midi.ControlChangeEvent(tick=826, channel=0, data=[64, 0]),
   midi.ControlChangeEvent(tick=1095, channel=0, data=[64, 127]),
   midi.ControlChangeEvent(tick=822, channel=0, data=[64, 0]),
   midi.ControlChangeEvent(tick=1669, channel=0, data=[64, 127]),
   midi.ControlChangeEvent(tick=1211, channel=0, data=[64, 0]),
   midi.ControlChangeEvent(tick=1669, channel=0, data=[64, 127]),
   midi.ControlChangeEvent(tick=1211, channel=0, data=[64, 0]),
   midi.ControlChangeEvent(tick=1669, channel=0, data=[64, 127]),
   midi.ControlChangeEvent(tick=1200, channel=0, data=[64, 0]),
   midi.ControlChangeEvent(tick=977, channel=0, data=[64, 127]),
   midi.ControlChangeEvent(tick=468, channel=0, data=[64, 0]),
   midi.ControlChangeEvent(tick=80, channel=0, data=[64, 127]),
   midi.ControlChangeEvent(tick=404, channel=0, data=[64, 0]),
   midi.ControlChangeEvent(tick=90, channel=0, data=[64, 127]),
   midi.ControlChangeEvent(tick=390, channel=0, data=[64, 0]),
   midi.ControlChangeEvent(tick=62, channel=0, data=[64, 127]),
   midi.ControlChangeEvent(tick=416, channel=0, data=[64, 0]),
   midi.ControlChangeEvent(tick=965, channel=0, data=[64, 127]),
   midi.ControlChangeEvent(tick=476, channel=0, data=[64, 0]),
   midi.ControlChangeEvent(tick=70, channel=0, data=[64, 127]),
   midi.ControlChangeEvent(tick=412, channel=0, data=[64, 0]),
   midi.ControlChangeEvent(tick=110, channel=0, data=[64, 127]),
   midi.ControlChangeEvent(tick=368, channel=0, data=[64, 0]),
   midi.ControlChangeEvent(tick=85, channel=0, data=[64, 127]),
   midi.ControlChangeEvent(tick=387, channel=0, data=[64, 0]),
   midi.ControlChangeEvent(tick=80, channel=0, data=[64, 127]),
   midi.ControlChangeEvent(tick=1362, channel=0, data=[64, 0]),
   midi.ControlChangeEvent(tick=83, channel=0, data=[64, 127]),
   midi.ControlChangeEvent(tick=53, channel=0, data=[64, 0]),
   midi.ControlChangeEvent(tick=427, channel=0, data=[64, 127]),
   midi.ControlChangeEvent(tick=374, channel=0, data=[64, 0]),
   midi.ControlChangeEvent(tick=661, channel=0, data=[64, 127]),
   midi.ControlChangeEvent(tick=827, channel=0, data=[64, 0]),
   midi.ControlChangeEvent(tick=187, channel=0, data=[64, 127]),
   midi.ControlChangeEvent(tick=280, channel=0, data=[64, 0]),
   midi.ControlChangeEvent(tick=200, channel=0, data=[64, 127]),
   midi.ControlChangeEvent(tick=762, channel=0, data=[64, 0]),
   midi.ControlChangeEvent(tick=224, channel=0, data=[64, 127]),
   midi.ControlChangeEvent(tick=249, channel=0, data=[64, 0]),
   midi.ControlChangeEvent(tick=1431, channel=0, data=[64, 0]),
   midi.ControlChangeEvent(tick=7286, channel=0, data=[64, 127]),
   midi.ControlChangeEvent(tick=662, channel=0, data=[64, 0]),
   midi.ControlChangeEvent(tick=862, channel=0, data=[64, 127]),
   midi.ControlChangeEvent(tick=559, channel=0, data=[64, 0]),
   midi.ControlChangeEvent(tick=852, channel=0, data=[64, 127]),
   midi.ControlChangeEvent(tick=588, channel=0, data=[64, 0]),
   midi.ControlChangeEvent(tick=867, channel=0, data=[64, 127]),
   midi.ControlChangeEvent(tick=578, channel=0, data=[64, 0]),
   midi.ControlChangeEvent(tick=847, channel=0, data=[64, 127]),
   midi.ControlChangeEvent(tick=595, channel=0, data=[64, 0]),
   midi.ControlChangeEvent(tick=888, channel=0, data=[64, 127]),
   midi.ControlChangeEvent(tick=550, channel=0, data=[64, 0]),
   midi.ControlChangeEvent(tick=2196, channel=0, data=[64, 127]),
   midi.ControlChangeEvent(tick=443, channel=0, data=[64, 0]),
   midi.ControlChangeEvent(tick=504, channel=0, data=[64, 127]),
   midi.ControlChangeEvent(tick=483, channel=0, data=[64, 0]),
   midi.ControlChangeEvent(tick=80, channel=0, data=[64, 127]),
   midi.ControlChangeEvent(tick=132, channel=0, data=[64, 0]),
   midi.ControlChangeEvent(tick=543, channel=0, data=[64, 127]),
   midi.ControlChangeEvent(tick=177, channel=0, data=[64, 0]),
   midi.ControlChangeEvent(tick=63, channel=0, data=[64, 127]),
   midi.ControlChangeEvent(tick=172, channel=0, data=[64, 0]),
   midi.ControlChangeEvent(tick=50, channel=0, data=[64, 127]),
   midi.ControlChangeEvent(tick=199, channel=0, data=[64, 0]),
   midi.ControlChangeEvent(tick=104, channel=0, data=[64, 127]),
   midi.ControlChangeEvent(tick=137, channel=0, data=[64, 0]),
   midi.ControlChangeEvent(tick=538, channel=0, data=[64, 127]),
   midi.ControlChangeEvent(tick=177, channel=0, data=[64, 0]),
   midi.ControlChangeEvent(tick=63, channel=0, data=[64, 127]),
   midi.ControlChangeEvent(tick=172, channel=0, data=[64, 0]),
   midi.ControlChangeEvent(tick=50, channel=0, data=[64, 127]),
   midi.ControlChangeEvent(tick=223, channel=0, data=[64, 0]),
   midi.ControlChangeEvent(tick=80, channel=0, data=[64, 127]),
   midi.ControlChangeEvent(tick=132, channel=0, data=[64, 0]),
   midi.ControlChangeEvent(tick=543, channel=0, data=[64, 127]),
   midi.ControlChangeEvent(tick=177, channel=0, data=[64, 0]),
   midi.ControlChangeEvent(tick=63, channel=0, data=[64, 127]),
   midi.ControlChangeEvent(tick=172, channel=0, data=[64, 0]),
   midi.ControlChangeEvent(tick=50, channel=0, data=[64, 127]),
   midi.ControlChangeEvent(tick=199, channel=0, data=[64, 0]),
   midi.ControlChangeEvent(tick=104, channel=0, data=[64, 127]),
   midi.ControlChangeEvent(tick=126, channel=0, data=[64, 0]),
   midi.ControlChangeEvent(tick=549, channel=0, data=[64, 127]),
   midi.ControlChangeEvent(tick=177, channel=0, data=[64, 0]),
   midi.ControlChangeEvent(tick=63, channel=0, data=[64, 127]),
   midi.ControlChangeEvent(tick=172, channel=0, data=[64, 0]),
   midi.ControlChangeEvent(tick=50, channel=0, data=[64, 127]),
   midi.ControlChangeEvent(tick=223, channel=0, data=[64, 0]),
   midi.ControlChangeEvent(tick=80, channel=0, data=[64, 127]),
   midi.ControlChangeEvent(tick=130, channel=0, data=[64, 0]),
   midi.ControlChangeEvent(tick=545, channel=0, data=[64, 127]),
   midi.ControlChangeEvent(tick=177, channel=0, data=[64, 0]),
   midi.ControlChangeEvent(tick=63, channel=0, data=[64, 127]),
   midi.ControlChangeEvent(tick=172, channel=0, data=[64, 0]),
   midi.ControlChangeEvent(tick=50, channel=0, data=[64, 127]),
   midi.ControlChangeEvent(tick=223, channel=0, data=[64, 0]),
   midi.ControlChangeEvent(tick=80, channel=0, data=[64, 127]),
   midi.ControlChangeEvent(tick=126, channel=0, data=[64, 0]),
   midi.ControlChangeEvent(tick=549, channel=0, data=[64, 127]),
   midi.ControlChangeEvent(tick=177, channel=0, data=[64, 0]),
   midi.ControlChangeEvent(tick=63, channel=0, data=[64, 127]),
   midi.ControlChangeEvent(tick=172, channel=0, data=[64, 0]),
   midi.ControlChangeEvent(tick=50, channel=0, data=[64, 127]),
   midi.ControlChangeEvent(tick=189, channel=0, data=[64, 0]),
   midi.ControlChangeEvent(tick=80, channel=0, data=[64, 127]),
   midi.ControlChangeEvent(tick=405, channel=0, data=[64, 0]),
   midi.ControlChangeEvent(tick=68, channel=0, data=[64, 127]),
   midi.ControlChangeEvent(tick=417, channel=0, data=[64, 0]),
   midi.ControlChangeEvent(tick=64, channel=0, data=[64, 127]),
   midi.ControlChangeEvent(tick=454, channel=0, data=[64, 0]),
   midi.ControlChangeEvent(tick=61, channel=0, data=[64, 127]),
   midi.ControlChangeEvent(tick=374, channel=0, data=[64, 0]),
   midi.ControlChangeEvent(tick=83, channel=0, data=[64, 127]),
   midi.ControlChangeEvent(tick=399, channel=0, data=[64, 0]),
   midi.ControlChangeEvent(tick=81, channel=0, data=[64, 127]),
   midi.ControlChangeEvent(tick=388, channel=0, data=[64, 0]),
   midi.ControlChangeEvent(tick=2969, channel=0, data=[64, 127]),
   midi.ControlChangeEvent(tick=1378, channel=0, data=[64, 0]),
   midi.ControlChangeEvent(tick=16, channel=0, data=[64, 127]),
   midi.ControlChangeEvent(tick=1424, channel=0, data=[64, 0]),
   midi.ControlChangeEvent(tick=1484, channel=0, data=[64, 127]),
   midi.ControlChangeEvent(tick=422, channel=0, data=[64, 0]),
   midi.ControlChangeEvent(tick=163, channel=0, data=[64, 127]),
   midi.ControlChangeEvent(tick=317, channel=0, data=[64, 0]),
   midi.ControlChangeEvent(tick=114, channel=0, data=[64, 127]),
   midi.ControlChangeEvent(tick=353, channel=0, data=[64, 0]),
   midi.ControlChangeEvent(tick=1548, channel=0, data=[64, 127]),
   midi.ControlChangeEvent(tick=864, channel=0, data=[64, 0]),
   midi.ControlChangeEvent(tick=115, channel=0, data=[64, 127]),
   midi.ControlChangeEvent(tick=353, channel=0, data=[64, 0]),
   midi.ControlChangeEvent(tick=1511, channel=0, data=[64, 127]),
   midi.ControlChangeEvent(tick=422, channel=0, data=[64, 0]),
   midi.ControlChangeEvent(tick=163, channel=0, data=[64, 127]),
   midi.ControlChangeEvent(tick=317, channel=0, data=[64, 0]),
   midi.ControlChangeEvent(tick=114, channel=0, data=[64, 127]),
   midi.ControlChangeEvent(tick=353, channel=0, data=[64, 0]),
   midi.ControlChangeEvent(tick=1548, channel=0, data=[64, 127]),
   midi.ControlChangeEvent(tick=864, channel=0, data=[64, 0]),
   midi.ControlChangeEvent(tick=115, channel=0, data=[64, 127]),
   midi.ControlChangeEvent(tick=353, channel=0, data=[64, 0]),
   midi.ControlChangeEvent(tick=46, channel=0, data=[64, 127]),
   midi.ControlChangeEvent(tick=445, channel=0, data=[64, 0]),
   midi.ControlChangeEvent(tick=995, channel=0, data=[64, 127]),
   midi.ControlChangeEvent(tick=445, channel=0, data=[64, 0]),
   midi.ControlChangeEvent(tick=1556, channel=0, data=[64, 127]),
   midi.ControlChangeEvent(tick=833, channel=0, data=[64, 0]),
   midi.ControlChangeEvent(tick=294, channel=0, data=[64, 127]),
   midi.ControlChangeEvent(tick=480, channel=0, data=[64, 0]),
   midi.ControlChangeEvent(tick=666, channel=0, data=[64, 127]),
   midi.ControlChangeEvent(tick=974, channel=0, data=[64, 0]),
   midi.ControlChangeEvent(tick=476, channel=0, data=[64, 0]),
   midi.ControlChangeEvent(tick=105, channel=0, data=[64, 127]),
   midi.ControlChangeEvent(tick=376, channel=0, data=[64, 0]),
   midi.ControlChangeEvent(tick=138, channel=0, data=[64, 127]),
   midi.ControlChangeEvent(tick=821, channel=0, data=[64, 0]),
   midi.ControlChangeEvent(tick=1590, channel=0, data=[64, 127]),
   midi.ControlChangeEvent(tick=1290, channel=0, data=[64, 0]),
   midi.ControlChangeEvent(tick=138, channel=0, data=[64, 127]),
   midi.ControlChangeEvent(tick=826, channel=0, data=[64, 0]),
   midi.ControlChangeEvent(tick=581, channel=0, data=[64, 127]),
   midi.ControlChangeEvent(tick=376, channel=0, data=[64, 0]),
   midi.ControlChangeEvent(tick=138, channel=0, data=[64, 127]),
   midi.ControlChangeEvent(tick=822, channel=0, data=[64, 0]),
   midi.ControlChangeEvent(tick=1669, channel=0, data=[64, 127]),
   midi.ControlChangeEvent(tick=1211, channel=0, data=[64, 0]),
   midi.ControlChangeEvent(tick=1669, channel=0, data=[64, 127]),
   midi.ControlChangeEvent(tick=1211, channel=0, data=[64, 0]),
   midi.ControlChangeEvent(tick=1669, channel=0, data=[64, 127]),
   midi.ControlChangeEvent(tick=1211, channel=0, data=[64, 0]),
   midi.ControlChangeEvent(tick=1669, channel=0, data=[64, 127]),
   midi.ControlChangeEvent(tick=1200, channel=0, data=[64, 0]),
   midi.ControlChangeEvent(tick=977, channel=0, data=[64, 127]),
   midi.ControlChangeEvent(tick=468, channel=0, data=[64, 0]),
   midi.ControlChangeEvent(tick=80, channel=0, data=[64, 127]),
   midi.ControlChangeEvent(tick=404, channel=0, data=[64, 0]),
   midi.ControlChangeEvent(tick=90, channel=0, data=[64, 127]),
   midi.ControlChangeEvent(tick=390, channel=0, data=[64, 0]),
   midi.ControlChangeEvent(tick=62, channel=0, data=[64, 127]),
   midi.ControlChangeEvent(tick=416, channel=0, data=[64, 0]),
   midi.ControlChangeEvent(tick=965, channel=0, data=[64, 127]),
   midi.ControlChangeEvent(tick=476, channel=0, data=[64, 0]),
   midi.ControlChangeEvent(tick=70, channel=0, data=[64, 127]),
   midi.ControlChangeEvent(tick=412, channel=0, data=[64, 0]),
   midi.ControlChangeEvent(tick=110, channel=0, data=[64, 127]),
   midi.ControlChangeEvent(tick=368, channel=0, data=[64, 0]),
   midi.ControlChangeEvent(tick=85, channel=0, data=[64, 127]),
   midi.ControlChangeEvent(tick=387, channel=0, data=[64, 0]),
   midi.ControlChangeEvent(tick=80, channel=0, data=[64, 127]),
   midi.ControlChangeEvent(tick=1362, channel=0, data=[64, 0]),
   midi.ControlChangeEvent(tick=83, channel=0, data=[64, 127]),
   midi.ControlChangeEvent(tick=46, channel=0, data=[64, 0]),
   midi.ControlChangeEvent(tick=434, channel=0, data=[64, 127]),
   midi.ControlChangeEvent(tick=374, channel=0, data=[64, 0]),
   midi.ControlChangeEvent(tick=4821, channel=0, data=[64, 0]),
   midi.ControlChangeEvent(tick=20160, channel=0, data=[64, 0]),
   midi.ControlChangeEvent(tick=2880, channel=0, data=[64, 0]),
   midi.ControlChangeEvent(tick=2880, channel=0, data=[64, 0]),
   midi.ControlChangeEvent(tick=1440, channel=0, data=[64, 0]),
   midi.ControlChangeEvent(tick=1440, channel=0, data=[64, 0]),
   midi.ControlChangeEvent(tick=13147, channel=0, data=[64, 127]),
   midi.ControlChangeEvent(tick=794, channel=0, data=[64, 0]),
   midi.ControlChangeEvent(tick=170, channel=0, data=[64, 127]),
   midi.ControlChangeEvent(tick=304, channel=0, data=[64, 0]),
   midi.ControlChangeEvent(tick=279, channel=0, data=[64, 127]),
   midi.ControlChangeEvent(tick=694, channel=0, data=[64, 0]),
   midi.ControlChangeEvent(tick=158, channel=0, data=[64, 127]),
   midi.ControlChangeEvent(tick=310, channel=0, data=[64, 0]),
   midi.ControlChangeEvent(tick=331, channel=0, data=[64, 127]),
   midi.ControlChangeEvent(tick=639, channel=0, data=[64, 0]),
   midi.ControlChangeEvent(tick=97, channel=0, data=[64, 127]),
   midi.ControlChangeEvent(tick=357, channel=0, data=[64, 0]),
   midi.ControlChangeEvent(tick=170, channel=0, data=[64, 127]),
   midi.ControlChangeEvent(tick=807, channel=0, data=[64, 0]),
   midi.ControlChangeEvent(tick=209, channel=0, data=[64, 127]),
   midi.ControlChangeEvent(tick=254, channel=0, data=[64, 0]),
   midi.ControlChangeEvent(tick=5371, channel=0, data=[64, 127]),
   midi.ControlChangeEvent(tick=389, channel=0, data=[64, 0]),
   midi.ControlChangeEvent(tick=14587, channel=0, data=[64, 127]),
   midi.ControlChangeEvent(tick=1259, channel=0, data=[64, 0]),
   midi.ControlChangeEvent(tick=1434, channel=0, data=[64, 127]),
   midi.ControlChangeEvent(tick=177, channel=0, data=[64, 0]),
   midi.ControlChangeEvent(tick=339, channel=0, data=[64, 127]),
   midi.ControlChangeEvent(tick=204, channel=0, data=[64, 0]),
   midi.ControlChangeEvent(tick=737, channel=0, data=[64, 127]),
   midi.ControlChangeEvent(tick=166, channel=0, data=[64, 0]),
   midi.ControlChangeEvent(tick=343, channel=0, data=[64, 127]),
   midi.ControlChangeEvent(tick=246, channel=0, data=[64, 0]),
   midi.ControlChangeEvent(tick=668, channel=0, data=[64, 127]),
   midi.ControlChangeEvent(tick=974, channel=0, data=[64, 0]),
   midi.ControlChangeEvent(tick=581, channel=0, data=[64, 127]),
   midi.ControlChangeEvent(tick=376, channel=0, data=[64, 0]),
   midi.ControlChangeEvent(tick=138, channel=0, data=[64, 127]),
   midi.ControlChangeEvent(tick=822, channel=0, data=[64, 0]),
   midi.ControlChangeEvent(tick=1589, channel=0, data=[64, 127]),
   midi.ControlChangeEvent(tick=1290, channel=0, data=[64, 0]),
   midi.ControlChangeEvent(tick=138, channel=0, data=[64, 127]),
   midi.ControlChangeEvent(tick=826, channel=0, data=[64, 0]),
   midi.ControlChangeEvent(tick=581, channel=0, data=[64, 127]),
   midi.ControlChangeEvent(tick=376, channel=0, data=[64, 0]),
   midi.ControlChangeEvent(tick=138, channel=0, data=[64, 127]),
   midi.ControlChangeEvent(tick=822, channel=0, data=[64, 0]),
   midi.ControlChangeEvent(tick=1669, channel=0, data=[64, 127]),
   midi.ControlChangeEvent(tick=1211, channel=0, data=[64, 0]),
   midi.ControlChangeEvent(tick=1669, channel=0, data=[64, 127]),
   midi.ControlChangeEvent(tick=1200, channel=0, data=[64, 0]),
   midi.ControlChangeEvent(tick=1023, channel=0, data=[64, 127]),
   midi.ControlChangeEvent(tick=422, channel=0, data=[64, 0]),
   midi.ControlChangeEvent(tick=80, channel=0, data=[64, 127]),
   midi.ControlChangeEvent(tick=404, channel=0, data=[64, 0]),
   midi.ControlChangeEvent(tick=90, channel=0, data=[64, 127]),
   midi.ControlChangeEvent(tick=390, channel=0, data=[64, 0]),
   midi.ControlChangeEvent(tick=62, channel=0, data=[64, 127]),
   midi.ControlChangeEvent(tick=416, channel=0, data=[64, 0]),
   midi.ControlChangeEvent(tick=1005, channel=0, data=[64, 127]),
   midi.ControlChangeEvent(tick=436, channel=0, data=[64, 0]),
   midi.ControlChangeEvent(tick=70, channel=0, data=[64, 127]),
   midi.ControlChangeEvent(tick=412, channel=0, data=[64, 0]),
   midi.ControlChangeEvent(tick=110, channel=0, data=[64, 127]),
   midi.ControlChangeEvent(tick=368, channel=0, data=[64, 0]),
   midi.ControlChangeEvent(tick=85, channel=0, data=[64, 127]),
   midi.ControlChangeEvent(tick=387, channel=0, data=[64, 0]),
   midi.ControlChangeEvent(tick=80, channel=0, data=[64, 127]),
   midi.ControlChangeEvent(tick=1362, channel=0, data=[64, 0]),
   midi.ControlChangeEvent(tick=83, channel=0, data=[64, 127]),
   midi.ControlChangeEvent(tick=45, channel=0, data=[64, 0]),
   midi.ControlChangeEvent(tick=435, channel=0, data=[64, 127]),
   midi.ControlChangeEvent(tick=374, channel=0, data=[64, 0]),
   midi.ControlChangeEvent(tick=4821, channel=0, data=[64, 0]),
   midi.ControlChangeEvent(tick=7286, channel=0, data=[64, 127]),
   midi.ControlChangeEvent(tick=649, channel=0, data=[64, 0]),
   midi.ControlChangeEvent(tick=875, channel=0, data=[64, 127]),
   midi.ControlChangeEvent(tick=563, channel=0, data=[64, 0]),
   midi.ControlChangeEvent(tick=848, channel=0, data=[64, 127]),
   midi.ControlChangeEvent(tick=594, channel=0, data=[64, 0]),
   midi.ControlChangeEvent(tick=861, channel=0, data=[64, 127]),
   midi.ControlChangeEvent(tick=576, channel=0, data=[64, 0]),
   midi.ControlChangeEvent(tick=849, channel=0, data=[64, 127]),
   midi.ControlChangeEvent(tick=591, channel=0, data=[64, 0]),
   midi.ControlChangeEvent(tick=369, channel=0, data=[64, 127]),
   midi.ControlChangeEvent(tick=347, channel=0, data=[64, 0]),
   midi.ControlChangeEvent(tick=176, channel=0, data=[64, 127]),
   midi.ControlChangeEvent(tick=551, channel=0, data=[64, 0]),
   midi.ControlChangeEvent(tick=2145, channel=0, data=[64, 0]),
   midi.ControlChangeEvent(tick=50, channel=0, data=[64, 127]),
   midi.ControlChangeEvent(tick=443, channel=0, data=[64, 0]),
   midi.ControlChangeEvent(tick=478, channel=0, data=[64, 127]),
   midi.ControlChangeEvent(tick=509, channel=0, data=[64, 0]),
   midi.ControlChangeEvent(tick=80, channel=0, data=[64, 127]),
   midi.ControlChangeEvent(tick=127, channel=0, data=[64, 0]),
   midi.ControlChangeEvent(tick=548, channel=0, data=[64, 127]),
   midi.ControlChangeEvent(tick=177, channel=0, data=[64, 0]),
   midi.ControlChangeEvent(tick=63, channel=0, data=[64, 127]),
   midi.ControlChangeEvent(tick=172, channel=0, data=[64, 0]),
   midi.ControlChangeEvent(tick=50, channel=0, data=[64, 127]),
   midi.ControlChangeEvent(tick=223, channel=0, data=[64, 0]),
   midi.ControlChangeEvent(tick=80, channel=0, data=[64, 127]),
   midi.ControlChangeEvent(tick=135, channel=0, data=[64, 0]),
   midi.ControlChangeEvent(tick=540, channel=0, data=[64, 127]),
   midi.ControlChangeEvent(tick=177, channel=0, data=[64, 0]),
   midi.ControlChangeEvent(tick=63, channel=0, data=[64, 127]),
   midi.ControlChangeEvent(tick=172, channel=0, data=[64, 0]),
   midi.ControlChangeEvent(tick=50, channel=0, data=[64, 127]),
   midi.ControlChangeEvent(tick=223, channel=0, data=[64, 0]),
   midi.ControlChangeEvent(tick=80, channel=0, data=[64, 127]),
   midi.ControlChangeEvent(tick=132, channel=0, data=[64, 0]),
   midi.ControlChangeEvent(tick=543, channel=0, data=[64, 127]),
   midi.ControlChangeEvent(tick=177, channel=0, data=[64, 0]),
   midi.ControlChangeEvent(tick=63, channel=0, data=[64, 127]),
   midi.ControlChangeEvent(tick=172, channel=0, data=[64, 0]),
   midi.ControlChangeEvent(tick=50, channel=0, data=[64, 127]),
   midi.ControlChangeEvent(tick=223, channel=0, data=[64, 0]),
   midi.ControlChangeEvent(tick=80, channel=0, data=[64, 127]),
   midi.ControlChangeEvent(tick=127, channel=0, data=[64, 0]),
   midi.ControlChangeEvent(tick=548, channel=0, data=[64, 127]),
   midi.ControlChangeEvent(tick=177, channel=0, data=[64, 0]),
   midi.ControlChangeEvent(tick=63, channel=0, data=[64, 127]),
   midi.ControlChangeEvent(tick=172, channel=0, data=[64, 0]),
   midi.ControlChangeEvent(tick=50, channel=0, data=[64, 127]),
   midi.ControlChangeEvent(tick=223, channel=0, data=[64, 0]),
   midi.ControlChangeEvent(tick=80, channel=0, data=[64, 127]),
   midi.ControlChangeEvent(tick=126, channel=0, data=[64, 0]),
   midi.ControlChangeEvent(tick=549, channel=0, data=[64, 127]),
   midi.ControlChangeEvent(tick=177, channel=0, data=[64, 0]),
   midi.ControlChangeEvent(tick=63, channel=0, data=[64, 127]),
   midi.ControlChangeEvent(tick=172, channel=0, data=[64, 0]),
   midi.ControlChangeEvent(tick=50, channel=0, data=[64, 127]),
   midi.ControlChangeEvent(tick=223, channel=0, data=[64, 0]),
   midi.ControlChangeEvent(tick=80, channel=0, data=[64, 127]),
   midi.ControlChangeEvent(tick=132, channel=0, data=[64, 0]),
   midi.ControlChangeEvent(tick=543, channel=0, data=[64, 127]),
   midi.ControlChangeEvent(tick=177, channel=0, data=[64, 0]),
   midi.ControlChangeEvent(tick=63, channel=0, data=[64, 127]),
   midi.ControlChangeEvent(tick=172, channel=0, data=[64, 0]),
   midi.ControlChangeEvent(tick=50, channel=0, data=[64, 127]),
   midi.ControlChangeEvent(tick=189, channel=0, data=[64, 0]),
   midi.ControlChangeEvent(tick=80, channel=0, data=[64, 127]),
   midi.ControlChangeEvent(tick=405, channel=0, data=[64, 0]),
   midi.ControlChangeEvent(tick=68, channel=0, data=[64, 127]),
   midi.ControlChangeEvent(tick=417, channel=0, data=[64, 0]),
   midi.ControlChangeEvent(tick=64, channel=0, data=[64, 127]),
   midi.ControlChangeEvent(tick=454, channel=0, data=[64, 0]),
   midi.ControlChangeEvent(tick=1466, channel=0, data=[64, 127]),
   midi.ControlChangeEvent(tick=301, channel=0, data=[64, 0]),
   midi.ControlChangeEvent(tick=1168, channel=0, data=[64, 127]),
   midi.ControlChangeEvent(tick=260, channel=0, data=[64, 0]),
   midi.ControlChangeEvent(tick=1166, channel=0, data=[64, 127]),
   midi.ControlChangeEvent(tick=1372, channel=0, data=[64, 0]),
   midi.ControlChangeEvent(tick=16, channel=0, data=[64, 127]),
   midi.ControlChangeEvent(tick=1424, channel=0, data=[64, 0]),
   midi.ControlChangeEvent(tick=1484, channel=0, data=[64, 127]),
   midi.ControlChangeEvent(tick=422, channel=0, data=[64, 0]),
   midi.ControlChangeEvent(tick=163, channel=0, data=[64, 127]),
   midi.ControlChangeEvent(tick=317, channel=0, data=[64, 0]),
   midi.ControlChangeEvent(tick=114, channel=0, data=[64, 127]),
   midi.ControlChangeEvent(tick=353, channel=0, data=[64, 0]),
   midi.ControlChangeEvent(tick=106, channel=0, data=[64, 127]),
   midi.ControlChangeEvent(tick=622, channel=0, data=[64, 0]),
   midi.ControlChangeEvent(tick=820, channel=0, data=[64, 127]),
   midi.ControlChangeEvent(tick=864, channel=0, data=[64, 0]),
   midi.ControlChangeEvent(tick=115, channel=0, data=[64, 127]),
   midi.ControlChangeEvent(tick=353, channel=0, data=[64, 0]),
   midi.ControlChangeEvent(tick=1511, channel=0, data=[64, 127]),
   midi.ControlChangeEvent(tick=422, channel=0, data=[64, 0]),
   midi.ControlChangeEvent(tick=163, channel=0, data=[64, 127]),
   midi.ControlChangeEvent(tick=317, channel=0, data=[64, 0]),
   midi.ControlChangeEvent(tick=114, channel=0, data=[64, 127]),
   midi.ControlChangeEvent(tick=353, channel=0, data=[64, 0]),
   midi.ControlChangeEvent(tick=1548, channel=0, data=[64, 127]),
   midi.ControlChangeEvent(tick=864, channel=0, data=[64, 0]),
   midi.ControlChangeEvent(tick=115, channel=0, data=[64, 127]),
   midi.ControlChangeEvent(tick=353, channel=0, data=[64, 0]),
   midi.ControlChangeEvent(tick=46, channel=0, data=[64, 127]),
   midi.ControlChangeEvent(tick=477, channel=0, data=[64, 0]),
   midi.ControlChangeEvent(tick=963, channel=0, data=[64, 127]),
   midi.ControlChangeEvent(tick=455, channel=0, data=[64, 0]),
   midi.ControlChangeEvent(tick=1419, channel=0, data=[64, 127]),
   midi.ControlChangeEvent(tick=294, channel=0, data=[64, 0]),
   midi.ControlChangeEvent(tick=666, channel=0, data=[64, 0]),
   midi.ControlChangeEvent(tick=294, channel=0, data=[64, 127]),
   midi.ControlChangeEvent(tick=480, channel=0, data=[64, 0]),
   midi.ControlChangeEvent(tick=666, channel=0, data=[64, 127]),
   midi.ControlChangeEvent(tick=974, channel=0, data=[64, 0]),
   midi.ControlChangeEvent(tick=476, channel=0, data=[64, 0]),
   midi.ControlChangeEvent(tick=105, channel=0, data=[64, 127]),
   midi.ControlChangeEvent(tick=376, channel=0, data=[64, 0]),
   midi.ControlChangeEvent(tick=138, channel=0, data=[64, 127]),
   midi.ControlChangeEvent(tick=821, channel=0, data=[64, 0]),
   midi.ControlChangeEvent(tick=1590, channel=0, data=[64, 127]),
   midi.ControlChangeEvent(tick=1290, channel=0, data=[64, 0]),
   midi.ControlChangeEvent(tick=138, channel=0, data=[64, 127]),
   midi.ControlChangeEvent(tick=826, channel=0, data=[64, 0]),
   midi.ControlChangeEvent(tick=581, channel=0, data=[64, 127]),
   midi.ControlChangeEvent(tick=376, channel=0, data=[64, 0]),
   midi.ControlChangeEvent(tick=138, channel=0, data=[64, 127]),
   midi.ControlChangeEvent(tick=822, channel=0, data=[64, 0]),
   midi.ControlChangeEvent(tick=1669, channel=0, data=[64, 127]),
   midi.ControlChangeEvent(tick=1211, channel=0, data=[64, 0]),
   midi.ControlChangeEvent(tick=1669, channel=0, data=[64, 127]),
   midi.ControlChangeEvent(tick=1211, channel=0, data=[64, 0]),
   midi.ControlChangeEvent(tick=1669, channel=0, data=[64, 127]),
   midi.ControlChangeEvent(tick=1211, channel=0, data=[64, 0]),
   midi.ControlChangeEvent(tick=1669, channel=0, data=[64, 127]),
   midi.ControlChangeEvent(tick=1200, channel=0, data=[64, 0]),
   midi.ControlChangeEvent(tick=977, channel=0, data=[64, 127]),
   midi.ControlChangeEvent(tick=468, channel=0, data=[64, 0]),
   midi.ControlChangeEvent(tick=80, channel=0, data=[64, 127]),
   midi.ControlChangeEvent(tick=404, channel=0, data=[64, 0]),
   midi.ControlChangeEvent(tick=90, channel=0, data=[64, 127]),
   midi.ControlChangeEvent(tick=390, channel=0, data=[64, 0]),
   midi.ControlChangeEvent(tick=62, channel=0, data=[64, 127]),
   midi.ControlChangeEvent(tick=416, channel=0, data=[64, 0]),
   midi.ControlChangeEvent(tick=965, channel=0, data=[64, 127]),
   midi.ControlChangeEvent(tick=476, channel=0, data=[64, 0]),
   midi.ControlChangeEvent(tick=70, channel=0, data=[64, 127]),
   midi.ControlChangeEvent(tick=412, channel=0, data=[64, 0]),
   midi.ControlChangeEvent(tick=110, channel=0, data=[64, 127]),
   midi.ControlChangeEvent(tick=368, channel=0, data=[64, 0]),
   midi.ControlChangeEvent(tick=85, channel=0, data=[64, 127]),
   midi.ControlChangeEvent(tick=387, channel=0, data=[64, 0]),
   midi.ControlChangeEvent(tick=80, channel=0, data=[64, 127]),
   midi.ControlChangeEvent(tick=1362, channel=0, data=[64, 0]),
   midi.ControlChangeEvent(tick=83, channel=0, data=[64, 127]),
   midi.ControlChangeEvent(tick=46, channel=0, data=[64, 0]),
   midi.ControlChangeEvent(tick=434, channel=0, data=[64, 127]),
   midi.ControlChangeEvent(tick=374, channel=0, data=[64, 0]),
   midi.ControlChangeEvent(tick=4821, channel=0, data=[64, 0]),
   midi.ControlChangeEvent(tick=20160, channel=0, data=[64, 0]),
   midi.ControlChangeEvent(tick=2880, channel=0, data=[64, 0]),
   midi.ControlChangeEvent(tick=2880, channel=0, data=[64, 0]),
   midi.ControlChangeEvent(tick=1440, channel=0, data=[64, 0]),
   midi.ControlChangeEvent(tick=1440, channel=0, data=[64, 0]),
   midi.ControlChangeEvent(tick=13147, channel=0, data=[64, 127]),
   midi.ControlChangeEvent(tick=794, channel=0, data=[64, 0]),
   midi.ControlChangeEvent(tick=170, channel=0, data=[64, 127]),
   midi.ControlChangeEvent(tick=304, channel=0, data=[64, 0]),
   midi.ControlChangeEvent(tick=279, channel=0, data=[64, 127]),
   midi.ControlChangeEvent(tick=694, channel=0, data=[64, 0]),
   midi.ControlChangeEvent(tick=158, channel=0, data=[64, 127]),
   midi.ControlChangeEvent(tick=310, channel=0, data=[64, 0]),
   midi.ControlChangeEvent(tick=331, channel=0, data=[64, 127]),
   midi.ControlChangeEvent(tick=639, channel=0, data=[64, 0]),
   midi.ControlChangeEvent(tick=97, channel=0, data=[64, 127]),
   midi.ControlChangeEvent(tick=357, channel=0, data=[64, 0]),
   midi.ControlChangeEvent(tick=170, channel=0, data=[64, 127]),
   midi.ControlChangeEvent(tick=807, channel=0, data=[64, 0]),
   midi.ControlChangeEvent(tick=209, channel=0, data=[64, 127]),
   midi.ControlChangeEvent(tick=254, channel=0, data=[64, 0]),
   midi.ControlChangeEvent(tick=5371, channel=0, data=[64, 127]),
   midi.ControlChangeEvent(tick=389, channel=0, data=[64, 0]),
   midi.ControlChangeEvent(tick=14587, channel=0, data=[64, 127]),
   midi.ControlChangeEvent(tick=1259, channel=0, data=[64, 0]),
   midi.ControlChangeEvent(tick=1434, channel=0, data=[64, 127]),
   midi.ControlChangeEvent(tick=177, channel=0, data=[64, 0]),
   midi.ControlChangeEvent(tick=339, channel=0, data=[64, 127]),
   midi.ControlChangeEvent(tick=204, channel=0, data=[64, 0]),
   midi.ControlChangeEvent(tick=737, channel=0, data=[64, 127]),
   midi.ControlChangeEvent(tick=166, channel=0, data=[64, 0]),
   midi.ControlChangeEvent(tick=343, channel=0, data=[64, 127]),
   midi.ControlChangeEvent(tick=246, channel=0, data=[64, 0]),
   midi.ControlChangeEvent(tick=668, channel=0, data=[64, 127]),
   midi.ControlChangeEvent(tick=974, channel=0, data=[64, 0]),
   midi.ControlChangeEvent(tick=581, channel=0, data=[64, 127]),
   midi.ControlChangeEvent(tick=376, channel=0, data=[64, 0]),
   midi.ControlChangeEvent(tick=138, channel=0, data=[64, 127]),
   midi.ControlChangeEvent(tick=822, channel=0, data=[64, 0]),
   midi.ControlChangeEvent(tick=1589, channel=0, data=[64, 127]),
   midi.ControlChangeEvent(tick=1290, channel=0, data=[64, 0]),
   midi.ControlChangeEvent(tick=138, channel=0, data=[64, 127]),
   midi.ControlChangeEvent(tick=826, channel=0, data=[64, 0]),
   midi.ControlChangeEvent(tick=581, channel=0, data=[64, 127]),
   midi.ControlChangeEvent(tick=376, channel=0, data=[64, 0]),
   midi.ControlChangeEvent(tick=138, channel=0, data=[64, 127]),
   midi.ControlChangeEvent(tick=822, channel=0, data=[64, 0]),
   midi.ControlChangeEvent(tick=1669, channel=0, data=[64, 127]),
   midi.ControlChangeEvent(tick=1211, channel=0, data=[64, 0]),
   midi.ControlChangeEvent(tick=1669, channel=0, data=[64, 127]),
   midi.ControlChangeEvent(tick=1200, channel=0, data=[64, 0]),
   midi.ControlChangeEvent(tick=1023, channel=0, data=[64, 127]),
   midi.ControlChangeEvent(tick=422, channel=0, data=[64, 0]),
   midi.ControlChangeEvent(tick=80, channel=0, data=[64, 127]),
   midi.ControlChangeEvent(tick=404, channel=0, data=[64, 0]),
   midi.ControlChangeEvent(tick=90, channel=0, data=[64, 127]),
   midi.ControlChangeEvent(tick=390, channel=0, data=[64, 0]),
   midi.ControlChangeEvent(tick=62, channel=0, data=[64, 127]),
   midi.ControlChangeEvent(tick=416, channel=0, data=[64, 0]),
   midi.ControlChangeEvent(tick=1005, channel=0, data=[64, 127]),
   midi.ControlChangeEvent(tick=436, channel=0, data=[64, 0]),
   midi.ControlChangeEvent(tick=70, channel=0, data=[64, 127]),
   midi.ControlChangeEvent(tick=412, channel=0, data=[64, 0]),
   midi.ControlChangeEvent(tick=110, channel=0, data=[64, 127]),
   midi.ControlChangeEvent(tick=368, channel=0, data=[64, 0]),
   midi.ControlChangeEvent(tick=85, channel=0, data=[64, 127]),
   midi.ControlChangeEvent(tick=387, channel=0, data=[64, 0]),
   midi.ControlChangeEvent(tick=80, channel=0, data=[64, 127]),
   midi.ControlChangeEvent(tick=1362, channel=0, data=[64, 0]),
   midi.ControlChangeEvent(tick=83, channel=0, data=[64, 127]),
   midi.ControlChangeEvent(tick=50, channel=0, data=[64, 0]),
   midi.ControlChangeEvent(tick=430, channel=0, data=[64, 127]),
   midi.ControlChangeEvent(tick=374, channel=0, data=[64, 0]),
   midi.ControlChangeEvent(tick=4821, channel=0, data=[64, 0]),
   midi.ControlChangeEvent(tick=7286, channel=0, data=[64, 127]),
   midi.ControlChangeEvent(tick=649, channel=0, data=[64, 0]),
   midi.ControlChangeEvent(tick=875, channel=0, data=[64, 127]),
   midi.ControlChangeEvent(tick=563, channel=0, data=[64, 0]),
   midi.ControlChangeEvent(tick=848, channel=0, data=[64, 127]),
   midi.ControlChangeEvent(tick=594, channel=0, data=[64, 0]),
   midi.ControlChangeEvent(tick=861, channel=0, data=[64, 127]),
   midi.ControlChangeEvent(tick=576, channel=0, data=[64, 0]),
   midi.ControlChangeEvent(tick=849, channel=0, data=[64, 127]),
   midi.ControlChangeEvent(tick=591, channel=0, data=[64, 0]),
   midi.ControlChangeEvent(tick=369, channel=0, data=[64, 127]),
   midi.ControlChangeEvent(tick=347, channel=0, data=[64, 0]),
   midi.ControlChangeEvent(tick=176, channel=0, data=[64, 127]),
   midi.ControlChangeEvent(tick=551, channel=0, data=[64, 0]),
   midi.ControlChangeEvent(tick=2145, channel=0, data=[64, 0]),
   midi.ControlChangeEvent(tick=50, channel=0, data=[64, 127]),
   midi.ControlChangeEvent(tick=443, channel=0, data=[64, 0]),
   midi.ControlChangeEvent(tick=478, channel=0, data=[64, 127]),
   midi.ControlChangeEvent(tick=509, channel=0, data=[64, 0]),
   midi.ControlChangeEvent(tick=80, channel=0, data=[64, 127]),
   midi.ControlChangeEvent(tick=127, channel=0, data=[64, 0]),
   midi.ControlChangeEvent(tick=548, channel=0, data=[64, 127]),
   midi.ControlChangeEvent(tick=177, channel=0, data=[64, 0]),
   midi.ControlChangeEvent(tick=63, channel=0, data=[64, 127]),
   midi.ControlChangeEvent(tick=172, channel=0, data=[64, 0]),
   midi.ControlChangeEvent(tick=50, channel=0, data=[64, 127]),
   midi.ControlChangeEvent(tick=223, channel=0, data=[64, 0]),
   midi.ControlChangeEvent(tick=80, channel=0, data=[64, 127]),
   midi.ControlChangeEvent(tick=135, channel=0, data=[64, 0]),
   midi.ControlChangeEvent(tick=540, channel=0, data=[64, 127]),
   midi.ControlChangeEvent(tick=177, channel=0, data=[64, 0]),
   midi.ControlChangeEvent(tick=63, channel=0, data=[64, 127]),
   midi.ControlChangeEvent(tick=172, channel=0, data=[64, 0]),
   midi.ControlChangeEvent(tick=50, channel=0, data=[64, 127]),
   midi.ControlChangeEvent(tick=223, channel=0, data=[64, 0]),
   midi.ControlChangeEvent(tick=80, channel=0, data=[64, 127]),
   midi.ControlChangeEvent(tick=132, channel=0, data=[64, 0]),
   midi.ControlChangeEvent(tick=543, channel=0, data=[64, 127]),
   midi.ControlChangeEvent(tick=177, channel=0, data=[64, 0]),
   midi.ControlChangeEvent(tick=63, channel=0, data=[64, 127]),
   midi.ControlChangeEvent(tick=172, channel=0, data=[64, 0]),
   midi.ControlChangeEvent(tick=50, channel=0, data=[64, 127]),
   midi.ControlChangeEvent(tick=223, channel=0, data=[64, 0]),
   midi.ControlChangeEvent(tick=80, channel=0, data=[64, 127]),
   midi.ControlChangeEvent(tick=127, channel=0, data=[64, 0]),
   midi.ControlChangeEvent(tick=548, channel=0, data=[64, 127]),
   midi.ControlChangeEvent(tick=177, channel=0, data=[64, 0]),
   midi.ControlChangeEvent(tick=63, channel=0, data=[64, 127]),
   midi.ControlChangeEvent(tick=172, channel=0, data=[64, 0]),
   midi.ControlChangeEvent(tick=50, channel=0, data=[64, 127]),
   midi.ControlChangeEvent(tick=223, channel=0, data=[64, 0]),
   midi.ControlChangeEvent(tick=80, channel=0, data=[64, 127]),
   midi.ControlChangeEvent(tick=126, channel=0, data=[64, 0]),
   midi.ControlChangeEvent(tick=549, channel=0, data=[64, 127]),
   midi.ControlChangeEvent(tick=177, channel=0, data=[64, 0]),
   midi.ControlChangeEvent(tick=63, channel=0, data=[64, 127]),
   midi.ControlChangeEvent(tick=172, channel=0, data=[64, 0]),
   midi.ControlChangeEvent(tick=50, channel=0, data=[64, 127]),
   midi.ControlChangeEvent(tick=223, channel=0, data=[64, 0]),
   midi.ControlChangeEvent(tick=80, channel=0, data=[64, 127]),
   midi.ControlChangeEvent(tick=132, channel=0, data=[64, 0]),
   midi.ControlChangeEvent(tick=543, channel=0, data=[64, 127]),
   midi.ControlChangeEvent(tick=177, channel=0, data=[64, 0]),
   midi.ControlChangeEvent(tick=63, channel=0, data=[64, 127]),
   midi.ControlChangeEvent(tick=172, channel=0, data=[64, 0]),
   midi.ControlChangeEvent(tick=50, channel=0, data=[64, 127]),
   midi.ControlChangeEvent(tick=189, channel=0, data=[64, 0]),
   midi.ControlChangeEvent(tick=80, channel=0, data=[64, 127]),
   midi.ControlChangeEvent(tick=405, channel=0, data=[64, 0]),
   midi.ControlChangeEvent(tick=68, channel=0, data=[64, 127]),
   midi.ControlChangeEvent(tick=417, channel=0, data=[64, 0]),
   midi.ControlChangeEvent(tick=64, channel=0, data=[64, 127]),
   midi.ControlChangeEvent(tick=454, channel=0, data=[64, 0]),
   midi.ControlChangeEvent(tick=1466, channel=0, data=[64, 127]),
   midi.ControlChangeEvent(tick=301, channel=0, data=[64, 0]),
   midi.ControlChangeEvent(tick=1168, channel=0, data=[64, 127]),
   midi.ControlChangeEvent(tick=260, channel=0, data=[64, 0]),
   midi.ControlChangeEvent(tick=1166, channel=0, data=[64, 127]),
   midi.ControlChangeEvent(tick=1372, channel=0, data=[64, 0]),
   midi.ControlChangeEvent(tick=16, channel=0, data=[64, 127]),
   midi.ControlChangeEvent(tick=1424, channel=0, data=[64, 0]),
   midi.ControlChangeEvent(tick=1484, channel=0, data=[64, 127]),
   midi.ControlChangeEvent(tick=422, channel=0, data=[64, 0]),
   midi.ControlChangeEvent(tick=163, channel=0, data=[64, 127]),
   midi.ControlChangeEvent(tick=317, channel=0, data=[64, 0]),
   midi.ControlChangeEvent(tick=114, channel=0, data=[64, 127]),
   midi.ControlChangeEvent(tick=353, channel=0, data=[64, 0]),
   midi.ControlChangeEvent(tick=106, channel=0, data=[64, 127]),
   midi.ControlChangeEvent(tick=622, channel=0, data=[64, 0]),
   midi.ControlChangeEvent(tick=820, channel=0, data=[64, 127]),
   midi.ControlChangeEvent(tick=864, channel=0, data=[64, 0]),
   midi.ControlChangeEvent(tick=115, channel=0, data=[64, 127]),
   midi.ControlChangeEvent(tick=353, channel=0, data=[64, 0]),
   midi.ControlChangeEvent(tick=1511, channel=0, data=[64, 127]),
   midi.ControlChangeEvent(tick=422, channel=0, data=[64, 0]),
   midi.ControlChangeEvent(tick=163, channel=0, data=[64, 127]),
   midi.ControlChangeEvent(tick=317, channel=0, data=[64, 0]),
   midi.ControlChangeEvent(tick=114, channel=0, data=[64, 127]),
   midi.ControlChangeEvent(tick=353, channel=0, data=[64, 0]),
   midi.ControlChangeEvent(tick=1548, channel=0, data=[64, 127]),
   midi.ControlChangeEvent(tick=864, channel=0, data=[64, 0]),
   midi.ControlChangeEvent(tick=115, channel=0, data=[64, 127]),
   midi.ControlChangeEvent(tick=353, channel=0, data=[64, 0]),
   midi.ControlChangeEvent(tick=46, channel=0, data=[64, 127]),
   midi.ControlChangeEvent(tick=477, channel=0, data=[64, 0]),
   midi.ControlChangeEvent(tick=963, channel=0, data=[64, 127]),
   midi.ControlChangeEvent(tick=455, channel=0, data=[64, 0]),
   midi.ControlChangeEvent(tick=1419, channel=0, data=[64, 127]),
   midi.ControlChangeEvent(tick=294, channel=0, data=[64, 0]),
   midi.EndOfTrackEvent(tick=0, data=[])])])
midi.write_midifile("creationMidi.mid", pattern)