import midi
pattern=midi.Pattern(format=1, resolution=480, tracks=\
[midi.Track(\
[   midi.NoteOnEvent(tick=0, channel=0, data=[78, 39]),
   midi.NoteOnEvent(tick=0, channel=0, data=[75, 33]),
   midi.NoteOnEvent(tick=720, channel=0, data=[75, 0]),
   midi.NoteOnEvent(tick=0, channel=0, data=[78, 0]),
   midi.NoteOnEvent(tick=720, channel=0, data=[62, 36]),
   midi.NoteOnEvent(tick=0, channel=0, data=[58, 30]),
   midi.NoteOnEvent(tick=720, channel=0, data=[58, 0]),
   midi.NoteOnEvent(tick=0, channel=0, data=[62, 0]),
   midi.NoteOnEvent(tick=240, channel=0, data=[39, 18]),
   midi.NoteOnEvent(tick=0, channel=0, data=[46, 21]),
   midi.NoteOnEvent(tick=1920, channel=0, data=[46, 0]),
   midi.NoteOnEvent(tick=0, channel=0, data=[39, 0]),
   midi.NoteOnEvent(tick=0, channel=0, data=[58, 37]),
   midi.NoteOnEvent(tick=80, channel=0, data=[58, 0]),
   midi.NoteOnEvent(tick=0, channel=0, data=[59, 42]),
   midi.NoteOnEvent(tick=80, channel=0, data=[59, 0]),
   midi.NoteOnEvent(tick=0, channel=0, data=[57, 43]),
   midi.NoteOnEvent(tick=80, channel=0, data=[57, 0]),
   midi.NoteOnEvent(tick=0, channel=0, data=[58, 48]),
   midi.NoteOnEvent(tick=80, channel=0, data=[58, 0]),
   midi.NoteOnEvent(tick=0, channel=0, data=[63, 49]),
   midi.NoteOnEvent(tick=80, channel=0, data=[63, 0]),
   midi.NoteOnEvent(tick=0, channel=0, data=[61, 47]),
   midi.NoteOnEvent(tick=80, channel=0, data=[61, 0]),
   midi.NoteOnEvent(tick=0, channel=0, data=[62, 54]),
   midi.NoteOnEvent(tick=80, channel=0, data=[62, 0]),
   midi.NoteOnEvent(tick=0, channel=0, data=[63, 57]),
   midi.NoteOnEvent(tick=80, channel=0, data=[63, 0]),
   midi.NoteOnEvent(tick=0, channel=0, data=[66, 51]),
   midi.NoteOnEvent(tick=80, channel=0, data=[66, 0]),
   midi.NoteOnEvent(tick=0, channel=0, data=[67, 63]),
   midi.NoteOnEvent(tick=80, channel=0, data=[67, 0]),
   midi.NoteOnEvent(tick=0, channel=0, data=[70, 64]),
   midi.NoteOnEvent(tick=80, channel=0, data=[70, 0]),
   midi.NoteOnEvent(tick=0, channel=0, data=[68, 59]),
   midi.NoteOnEvent(tick=80, channel=0, data=[68, 0]),
   midi.NoteOnEvent(tick=0, channel=0, data=[71, 69]),
   midi.NoteOnEvent(tick=80, channel=0, data=[71, 0]),
   midi.NoteOnEvent(tick=0, channel=0, data=[74, 71]),
   midi.NoteOnEvent(tick=80, channel=0, data=[74, 0]),
   midi.NoteOnEvent(tick=0, channel=0, data=[75, 75]),
   midi.NoteOnEvent(tick=80, channel=0, data=[75, 0]),
   midi.NoteOnEvent(tick=0, channel=0, data=[78, 75]),
   midi.NoteOnEvent(tick=80, channel=0, data=[78, 0]),
   midi.NoteOnEvent(tick=0, channel=0, data=[75, 80]),
   midi.NoteOnEvent(tick=80, channel=0, data=[75, 0]),
   midi.NoteOnEvent(tick=0, channel=0, data=[74, 74]),
   midi.NoteOnEvent(tick=80, channel=0, data=[74, 0]),
   midi.NoteOnEvent(tick=0, channel=0, data=[77, 92]),
   midi.NoteOnEvent(tick=80, channel=0, data=[77, 0]),
   midi.NoteOnEvent(tick=0, channel=0, data=[74, 81]),
   midi.NoteOnEvent(tick=80, channel=0, data=[74, 0]),
   midi.NoteOnEvent(tick=0, channel=0, data=[73, 75]),
   midi.NoteOnEvent(tick=80, channel=0, data=[73, 0]),
   midi.NoteOnEvent(tick=0, channel=0, data=[76, 87]),
   midi.NoteOnEvent(tick=80, channel=0, data=[76, 0]),
   midi.NoteOnEvent(tick=0, channel=0, data=[73, 75]),
   midi.NoteOnEvent(tick=80, channel=0, data=[73, 0]),
   midi.NoteOnEvent(tick=0, channel=0, data=[72, 69]),
   midi.NoteOnEvent(tick=80, channel=0, data=[72, 0]),
   midi.NoteOnEvent(tick=0, channel=0, data=[75, 81]),
   midi.NoteOnEvent(tick=80, channel=0, data=[75, 0]),
   midi.NoteOnEvent(tick=0, channel=0, data=[72, 75]),
   midi.NoteOnEvent(tick=80, channel=0, data=[72, 0]),
   midi.NoteOnEvent(tick=0, channel=0, data=[71, 71]),
   midi.NoteOnEvent(tick=80, channel=0, data=[71, 0]),
   midi.NoteOnEvent(tick=0, channel=0, data=[70, 78]),
   midi.NoteOnEvent(tick=80, channel=0, data=[70, 0]),
   midi.NoteOnEvent(tick=0, channel=0, data=[71, 75]),
   midi.NoteOnEvent(tick=80, channel=0, data=[71, 0]),
   midi.NoteOnEvent(tick=0, channel=0, data=[69, 70]),
   midi.NoteOnEvent(tick=80, channel=0, data=[69, 0]),
   midi.NoteOnEvent(tick=0, channel=0, data=[75, 78]),
   midi.NoteOnEvent(tick=80, channel=0, data=[75, 0]),
   midi.NoteOnEvent(tick=0, channel=0, data=[70, 71]),
   midi.NoteOnEvent(tick=80, channel=0, data=[70, 0]),
   midi.NoteOnEvent(tick=0, channel=0, data=[65, 64]),
   midi.NoteOnEvent(tick=80, channel=0, data=[65, 0]),
   midi.NoteOnEvent(tick=0, channel=0, data=[66, 75]),
   midi.NoteOnEvent(tick=80, channel=0, data=[66, 0]),
   midi.NoteOnEvent(tick=0, channel=0, data=[63, 71]),
   midi.NoteOnEvent(tick=80, channel=0, data=[63, 0]),
   midi.NoteOnEvent(tick=0, channel=0, data=[65, 66]),
   midi.NoteOnEvent(tick=80, channel=0, data=[65, 0]),
   midi.NoteOnEvent(tick=0, channel=0, data=[62, 77]),
   midi.NoteOnEvent(tick=80, channel=0, data=[62, 0]),
   midi.NoteOnEvent(tick=0, channel=0, data=[61, 74]),
   midi.NoteOnEvent(tick=80, channel=0, data=[61, 0]),
   midi.NoteOnEvent(tick=0, channel=0, data=[64, 70]),
   midi.NoteOnEvent(tick=80, channel=0, data=[64, 0]),
   midi.NoteOnEvent(tick=0, channel=0, data=[61, 63]),
   midi.NoteOnEvent(tick=80, channel=0, data=[61, 0]),
   midi.NoteOnEvent(tick=0, channel=0, data=[60, 58]),
   midi.NoteOnEvent(tick=80, channel=0, data=[60, 0]),
   midi.NoteOnEvent(tick=0, channel=0, data=[63, 56]),
   midi.NoteOnEvent(tick=80, channel=0, data=[63, 0]),
   midi.NoteOnEvent(tick=0, channel=0, data=[60, 60]),
   midi.NoteOnEvent(tick=80, channel=0, data=[60, 0]),
   midi.NoteOnEvent(tick=0, channel=0, data=[59, 52]),
   midi.NoteOnEvent(tick=80, channel=0, data=[59, 0]),
   midi.NoteOnEvent(tick=0, channel=0, data=[62, 50]),
   midi.NoteOnEvent(tick=80, channel=0, data=[62, 0]),
   midi.NoteOnEvent(tick=0, channel=0, data=[59, 50]),
   midi.NoteOnEvent(tick=80, channel=0, data=[59, 0]),
   midi.NoteOnEvent(tick=0, channel=0, data=[58, 49]),
   midi.NoteOnEvent(tick=80, channel=0, data=[58, 0]),
   midi.NoteOnEvent(tick=0, channel=0, data=[61, 48]),
   midi.NoteOnEvent(tick=80, channel=0, data=[61, 0]),
   midi.NoteOnEvent(tick=0, channel=0, data=[57, 56]),
   midi.NoteOnEvent(tick=80, channel=0, data=[57, 0]),
   midi.NoteOnEvent(tick=0, channel=0, data=[60, 46]),
   midi.NoteOnEvent(tick=80, channel=0, data=[60, 0]),
   midi.NoteOnEvent(tick=0, channel=0, data=[56, 44]),
   midi.NoteOnEvent(tick=80, channel=0, data=[56, 0]),
   midi.NoteOnEvent(tick=0, channel=0, data=[59, 43]),
   midi.NoteOnEvent(tick=80, channel=0, data=[59, 0]),
   midi.NoteOnEvent(tick=0, channel=0, data=[55, 40]),
   midi.NoteOnEvent(tick=80, channel=0, data=[55, 0]),
   midi.NoteOnEvent(tick=0, channel=0, data=[58, 36]),
   midi.NoteOnEvent(tick=80, channel=0, data=[58, 0]),
   midi.NoteOnEvent(tick=0, channel=0, data=[54, 41]),
   midi.NoteOnEvent(tick=80, channel=0, data=[54, 0]),
   midi.NoteOnEvent(tick=0, channel=0, data=[53, 35]),
   midi.NoteOnEvent(tick=80, channel=0, data=[53, 0]),
   midi.NoteOnEvent(tick=0, channel=0, data=[56, 35]),
   midi.NoteOnEvent(tick=80, channel=0, data=[56, 0]),
   midi.NoteOnEvent(tick=0, channel=0, data=[54, 41]),
   midi.NoteOnEvent(tick=80, channel=0, data=[54, 0]),
   midi.NoteOnEvent(tick=0, channel=0, data=[52, 36]),
   midi.NoteOnEvent(tick=80, channel=0, data=[52, 0]),
   midi.NoteOnEvent(tick=0, channel=0, data=[56, 36]),
   midi.NoteOnEvent(tick=80, channel=0, data=[56, 0]),
   midi.NoteOnEvent(tick=0, channel=0, data=[54, 40]),
   midi.NoteOnEvent(tick=80, channel=0, data=[54, 0]),
   midi.NoteOnEvent(tick=0, channel=0, data=[51, 35]),
   midi.NoteOnEvent(tick=80, channel=0, data=[51, 0]),
   midi.NoteOnEvent(tick=0, channel=0, data=[56, 34]),
   midi.NoteOnEvent(tick=80, channel=0, data=[56, 0]),
   midi.NoteOnEvent(tick=0, channel=0, data=[54, 39]),
   midi.NoteOnEvent(tick=80, channel=0, data=[54, 0]),
   midi.NoteOnEvent(tick=0, channel=0, data=[53, 34]),
   midi.NoteOnEvent(tick=80, channel=0, data=[53, 0]),
   midi.NoteOnEvent(tick=0, channel=0, data=[46, 32]),
   midi.NoteOnEvent(tick=80, channel=0, data=[46, 0]),
   midi.NoteOnEvent(tick=0, channel=0, data=[58, 37]),
   midi.NoteOnEvent(tick=80, channel=0, data=[58, 0]),
   midi.NoteOnEvent(tick=0, channel=0, data=[54, 37]),
   midi.NoteOnEvent(tick=80, channel=0, data=[54, 0]),
   midi.NoteOnEvent(tick=0, channel=0, data=[56, 33]),
   midi.NoteOnEvent(tick=80, channel=0, data=[56, 0]),
   midi.NoteOnEvent(tick=0, channel=0, data=[57, 37]),
   midi.NoteOnEvent(tick=80, channel=0, data=[57, 0]),
   midi.NoteOnEvent(tick=0, channel=0, data=[59, 34]),
   midi.NoteOnEvent(tick=80, channel=0, data=[59, 0]),
   midi.NoteOnEvent(tick=0, channel=0, data=[58, 34]),
   midi.NoteOnEvent(tick=80, channel=0, data=[58, 0]),
   midi.NoteOnEvent(tick=0, channel=0, data=[65, 31]),
   midi.NoteOnEvent(tick=80, channel=0, data=[65, 0]),
   midi.NoteOnEvent(tick=0, channel=0, data=[59, 34]),
   midi.NoteOnEvent(tick=80, channel=0, data=[59, 0]),
   midi.NoteOnEvent(tick=0, channel=0, data=[57, 35]),
   midi.NoteOnEvent(tick=80, channel=0, data=[57, 0]),
   midi.NoteOnEvent(tick=0, channel=0, data=[58, 40]),
   midi.NoteOnEvent(tick=80, channel=0, data=[58, 0]),
   midi.NoteOnEvent(tick=0, channel=0, data=[63, 42]),
   midi.NoteOnEvent(tick=80, channel=0, data=[63, 0]),
   midi.NoteOnEvent(tick=0, channel=0, data=[61, 40]),
   midi.NoteOnEvent(tick=80, channel=0, data=[61, 0]),
   midi.NoteOnEvent(tick=0, channel=0, data=[62, 48]),
   midi.NoteOnEvent(tick=80, channel=0, data=[62, 0]),
   midi.NoteOnEvent(tick=0, channel=0, data=[63, 50]),
   midi.NoteOnEvent(tick=80, channel=0, data=[63, 0]),
   midi.NoteOnEvent(tick=0, channel=0, data=[66, 47]),
   midi.NoteOnEvent(tick=80, channel=0, data=[66, 0]),
   midi.NoteOnEvent(tick=0, channel=0, data=[67, 57]),
   midi.NoteOnEvent(tick=80, channel=0, data=[67, 0]),
   midi.NoteOnEvent(tick=0, channel=0, data=[70, 59]),
   midi.NoteOnEvent(tick=80, channel=0, data=[70, 0]),
   midi.NoteOnEvent(tick=0, channel=0, data=[68, 56]),
   midi.NoteOnEvent(tick=80, channel=0, data=[68, 0]),
   midi.NoteOnEvent(tick=0, channel=0, data=[71, 65]),
   midi.NoteOnEvent(tick=80, channel=0, data=[71, 0]),
   midi.NoteOnEvent(tick=0, channel=0, data=[74, 70]),
   midi.NoteOnEvent(tick=80, channel=0, data=[74, 0]),
   midi.NoteOnEvent(tick=0, channel=0, data=[75, 74]),
   midi.NoteOnEvent(tick=80, channel=0, data=[75, 0]),
   midi.NoteOnEvent(tick=0, channel=0, data=[78, 77]),
   midi.NoteOnEvent(tick=80, channel=0, data=[78, 0]),
   midi.NoteOnEvent(tick=0, channel=0, data=[75, 80]),
   midi.NoteOnEvent(tick=80, channel=0, data=[75, 0]),
   midi.NoteOnEvent(tick=0, channel=0, data=[74, 75]),
   midi.NoteOnEvent(tick=80, channel=0, data=[74, 0]),
   midi.NoteOnEvent(tick=0, channel=0, data=[77, 92]),
   midi.NoteOnEvent(tick=80, channel=0, data=[77, 0]),
   midi.NoteOnEvent(tick=0, channel=0, data=[74, 81]),
   midi.NoteOnEvent(tick=80, channel=0, data=[74, 0]),
   midi.NoteOnEvent(tick=0, channel=0, data=[73, 75]),
   midi.NoteOnEvent(tick=80, channel=0, data=[73, 0]),
   midi.NoteOnEvent(tick=0, channel=0, data=[76, 87]),
   midi.NoteOnEvent(tick=80, channel=0, data=[76, 0]),
   midi.NoteOnEvent(tick=0, channel=0, data=[73, 75]),
   midi.NoteOnEvent(tick=80, channel=0, data=[73, 0]),
   midi.NoteOnEvent(tick=0, channel=0, data=[72, 69]),
   midi.NoteOnEvent(tick=80, channel=0, data=[72, 0]),
   midi.NoteOnEvent(tick=0, channel=0, data=[75, 81]),
   midi.NoteOnEvent(tick=80, channel=0, data=[75, 0]),
   midi.NoteOnEvent(tick=0, channel=0, data=[72, 75]),
   midi.NoteOnEvent(tick=80, channel=0, data=[72, 0]),
   midi.NoteOnEvent(tick=0, channel=0, data=[71, 71]),
   midi.NoteOnEvent(tick=80, channel=0, data=[71, 0]),
   midi.NoteOnEvent(tick=0, channel=0, data=[70, 89]),
   midi.NoteOnEvent(tick=80, channel=0, data=[70, 0]),
   midi.NoteOnEvent(tick=0, channel=0, data=[71, 75]),
   midi.NoteOnEvent(tick=80, channel=0, data=[71, 0]),
   midi.NoteOnEvent(tick=0, channel=0, data=[69, 70]),
   midi.NoteOnEvent(tick=80, channel=0, data=[69, 0]),
   midi.NoteOnEvent(tick=0, channel=0, data=[75, 88]),
   midi.NoteOnEvent(tick=80, channel=0, data=[75, 0]),
   midi.NoteOnEvent(tick=0, channel=0, data=[70, 74]),
   midi.NoteOnEvent(tick=80, channel=0, data=[70, 0]),
   midi.NoteOnEvent(tick=0, channel=0, data=[65, 64]),
   midi.NoteOnEvent(tick=80, channel=0, data=[65, 0]),
   midi.NoteOnEvent(tick=0, channel=0, data=[66, 81]),
   midi.NoteOnEvent(tick=80, channel=0, data=[66, 0]),
   midi.NoteOnEvent(tick=0, channel=0, data=[63, 72]),
   midi.NoteOnEvent(tick=80, channel=0, data=[63, 0]),
   midi.NoteOnEvent(tick=0, channel=0, data=[65, 66]),
   midi.NoteOnEvent(tick=80, channel=0, data=[65, 0]),
   midi.NoteOnEvent(tick=0, channel=0, data=[62, 77]),
   midi.NoteOnEvent(tick=80, channel=0, data=[62, 0]),
   midi.NoteOnEvent(tick=0, channel=0, data=[61, 75]),
   midi.NoteOnEvent(tick=80, channel=0, data=[61, 0]),
   midi.NoteOnEvent(tick=0, channel=0, data=[64, 71]),
   midi.NoteOnEvent(tick=80, channel=0, data=[64, 0]),
   midi.NoteOnEvent(tick=0, channel=0, data=[61, 65]),
   midi.NoteOnEvent(tick=80, channel=0, data=[61, 0]),
   midi.NoteOnEvent(tick=0, channel=0, data=[60, 60]),
   midi.NoteOnEvent(tick=80, channel=0, data=[60, 0]),
   midi.NoteOnEvent(tick=0, channel=0, data=[63, 59]),
   midi.NoteOnEvent(tick=80, channel=0, data=[63, 0]),
   midi.NoteOnEvent(tick=0, channel=0, data=[60, 71]),
   midi.NoteOnEvent(tick=80, channel=0, data=[60, 0]),
   midi.NoteOnEvent(tick=0, channel=0, data=[59, 57]),
   midi.NoteOnEvent(tick=80, channel=0, data=[59, 0]),
   midi.NoteOnEvent(tick=0, channel=0, data=[62, 55]),
   midi.NoteOnEvent(tick=80, channel=0, data=[62, 0]),
   midi.NoteOnEvent(tick=0, channel=0, data=[59, 64]),
   midi.NoteOnEvent(tick=80, channel=0, data=[59, 0]),
   midi.NoteOnEvent(tick=0, channel=0, data=[58, 55]),
   midi.NoteOnEvent(tick=80, channel=0, data=[58, 0]),
   midi.NoteOnEvent(tick=0, channel=0, data=[61, 55]),
   midi.NoteOnEvent(tick=80, channel=0, data=[61, 0]),
   midi.NoteOnEvent(tick=0, channel=0, data=[58, 66]),
   midi.NoteOnEvent(tick=80, channel=0, data=[58, 0]),
   midi.NoteOnEvent(tick=0, channel=0, data=[57, 49]),
   midi.NoteOnEvent(tick=80, channel=0, data=[57, 0]),
   midi.NoteOnEvent(tick=0, channel=0, data=[61, 49]),
   midi.NoteOnEvent(tick=80, channel=0, data=[61, 0]),
   midi.NoteOnEvent(tick=0, channel=0, data=[57, 63]),
   midi.NoteOnEvent(tick=80, channel=0, data=[57, 0]),
   midi.NoteOnEvent(tick=0, channel=0, data=[56, 52]),
   midi.NoteOnEvent(tick=80, channel=0, data=[56, 0]),
   midi.NoteOnEvent(tick=0, channel=0, data=[57, 51]),
   midi.NoteOnEvent(tick=80, channel=0, data=[57, 0]),
   midi.NoteOnEvent(tick=0, channel=0, data=[58, 51]),
   midi.NoteOnEvent(tick=80, channel=0, data=[58, 0]),
   midi.NoteOnEvent(tick=0, channel=0, data=[59, 46]),
   midi.NoteOnEvent(tick=80, channel=0, data=[59, 0]),
   midi.NoteOnEvent(tick=0, channel=0, data=[57, 43]),
   midi.NoteOnEvent(tick=80, channel=0, data=[57, 0]),
   midi.NoteOnEvent(tick=0, channel=0, data=[58, 49]),
   midi.NoteOnEvent(tick=80, channel=0, data=[58, 0]),
   midi.NoteOnEvent(tick=0, channel=0, data=[59, 42]),
   midi.NoteOnEvent(tick=80, channel=0, data=[59, 0]),
   midi.NoteOnEvent(tick=0, channel=0, data=[56, 40]),
   midi.NoteOnEvent(tick=80, channel=0, data=[56, 0]),
   midi.NoteOnEvent(tick=0, channel=0, data=[58, 47]),
   midi.NoteOnEvent(tick=80, channel=0, data=[58, 0]),
   midi.NoteOnEvent(tick=0, channel=0, data=[59, 40]),
   midi.NoteOnEvent(tick=80, channel=0, data=[59, 0]),
   midi.NoteOnEvent(tick=0, channel=0, data=[49, 40]),
   midi.NoteOnEvent(tick=80, channel=0, data=[49, 0]),
   midi.NoteOnEvent(tick=0, channel=0, data=[54, 43]),
   midi.NoteOnEvent(tick=80, channel=0, data=[54, 0]),
   midi.NoteOnEvent(tick=0, channel=0, data=[58, 37]),
   midi.NoteOnEvent(tick=80, channel=0, data=[58, 0]),
   midi.NoteOnEvent(tick=0, channel=0, data=[61, 36]),
   midi.NoteOnEvent(tick=80, channel=0, data=[61, 0]),
   midi.NoteOnEvent(tick=0, channel=0, data=[63, 41]),
   midi.NoteOnEvent(tick=80, channel=0, data=[63, 0]),
   midi.NoteOnEvent(tick=0, channel=0, data=[65, 35]),
   midi.NoteOnEvent(tick=80, channel=0, data=[65, 0]),
   midi.NoteOnEvent(tick=0, channel=0, data=[66, 33]),
   midi.NoteOnEvent(tick=80, channel=0, data=[66, 0]),
   midi.NoteOnEvent(tick=0, channel=0, data=[68, 39]),
   midi.NoteOnEvent(tick=80, channel=0, data=[68, 0]),
   midi.NoteOnEvent(tick=0, channel=0, data=[70, 37]),
   midi.NoteOnEvent(tick=80, channel=0, data=[70, 0]),
   midi.NoteOnEvent(tick=0, channel=0, data=[71, 33]),
   midi.NoteOnEvent(tick=80, channel=0, data=[71, 0]),
   midi.NoteOnEvent(tick=0, channel=0, data=[73, 36]),
   midi.NoteOnEvent(tick=80, channel=0, data=[73, 0]),
   midi.NoteOnEvent(tick=0, channel=0, data=[75, 32]),
   midi.NoteOnEvent(tick=80, channel=0, data=[75, 0]),
   midi.NoteOnEvent(tick=0, channel=0, data=[77, 32]),
   midi.NoteOnEvent(tick=80, channel=0, data=[77, 0]),
   midi.NoteOnEvent(tick=0, channel=0, data=[78, 35]),
   midi.NoteOnEvent(tick=80, channel=0, data=[78, 0]),
   midi.NoteOnEvent(tick=0, channel=0, data=[80, 32]),
   midi.NoteOnEvent(tick=80, channel=0, data=[80, 0]),
   midi.NoteOnEvent(tick=0, channel=0, data=[81, 32]),
   midi.NoteOnEvent(tick=80, channel=0, data=[81, 0]),
   midi.NoteOnEvent(tick=0, channel=0, data=[82, 38]),
   midi.NoteOnEvent(tick=80, channel=0, data=[82, 0]),
   midi.NoteOnEvent(tick=0, channel=0, data=[77, 32]),
   midi.NoteOnEvent(tick=80, channel=0, data=[77, 0]),
   midi.NoteOnEvent(tick=0, channel=0, data=[73, 30]),
   midi.NoteOnEvent(tick=80, channel=0, data=[73, 0]),
   midi.NoteOnEvent(tick=0, channel=0, data=[77, 30]),
   midi.NoteOnEvent(tick=80, channel=0, data=[77, 0]),
   midi.NoteOnEvent(tick=0, channel=0, data=[78, 31]),
   midi.NoteOnEvent(tick=80, channel=0, data=[78, 0]),
   midi.NoteOnEvent(tick=0, channel=0, data=[80, 31]),
   midi.NoteOnEvent(tick=80, channel=0, data=[80, 0]),
   midi.NoteOnEvent(tick=0, channel=0, data=[82, 35]),
   midi.NoteOnEvent(tick=80, channel=0, data=[82, 0]),
   midi.NoteOnEvent(tick=0, channel=0, data=[77, 32]),
   midi.NoteOnEvent(tick=80, channel=0, data=[77, 0]),
   midi.NoteOnEvent(tick=0, channel=0, data=[70, 32]),
   midi.NoteOnEvent(tick=80, channel=0, data=[70, 0]),
   midi.NoteOnEvent(tick=0, channel=0, data=[77, 31]),
   midi.NoteOnEvent(tick=80, channel=0, data=[77, 0]),
   midi.NoteOnEvent(tick=0, channel=0, data=[78, 33]),
   midi.NoteOnEvent(tick=80, channel=0, data=[78, 0]),
   midi.NoteOnEvent(tick=0, channel=0, data=[80, 34]),
   midi.NoteOnEvent(tick=80, channel=0, data=[80, 0]),
   midi.NoteOnEvent(tick=0, channel=0, data=[82, 37]),
   midi.NoteOnEvent(tick=240, channel=0, data=[82, 0]),
   midi.NoteOnEvent(tick=0, channel=0, data=[50, 64]),
   midi.NoteOnEvent(tick=80, channel=0, data=[50, 0]),
   midi.NoteOnEvent(tick=0, channel=0, data=[56, 67]),
   midi.NoteOnEvent(tick=80, channel=0, data=[56, 0]),
   midi.NoteOnEvent(tick=0, channel=0, data=[58, 68]),
   midi.NoteOnEvent(tick=80, channel=0, data=[58, 0]),
   midi.NoteOnEvent(tick=0, channel=0, data=[62, 72]),
   midi.NoteOnEvent(tick=80, channel=0, data=[62, 0]),
   midi.NoteOnEvent(tick=0, channel=0, data=[68, 73]),
   midi.NoteOnEvent(tick=80, channel=0, data=[68, 0]),
   midi.NoteOnEvent(tick=0, channel=0, data=[70, 75]),
   midi.NoteOnEvent(tick=80, channel=0, data=[70, 0]),
   midi.NoteOnEvent(tick=0, channel=0, data=[75, 84]),
   midi.NoteOnEvent(tick=0, channel=0, data=[63, 84]),
   midi.NoteOnEvent(tick=80, channel=0, data=[63, 0]),
   midi.NoteOnEvent(tick=0, channel=0, data=[75, 0]),
   midi.NoteOnEvent(tick=0, channel=0, data=[68, 71]),
   midi.NoteOnEvent(tick=80, channel=0, data=[68, 0]),
   midi.NoteOnEvent(tick=0, channel=0, data=[67, 70]),
   midi.NoteOnEvent(tick=80, channel=0, data=[67, 0]),
   midi.NoteOnEvent(tick=0, channel=0, data=[66, 71]),
   midi.NoteOnEvent(tick=0, channel=0, data=[68, 71]),
   midi.NoteOnEvent(tick=80, channel=0, data=[68, 0]),
   midi.NoteOnEvent(tick=0, channel=0, data=[66, 0]),
   midi.NoteOnEvent(tick=0, channel=0, data=[65, 60]),
   midi.NoteOnEvent(tick=80, channel=0, data=[65, 0]),
   midi.NoteOnEvent(tick=0, channel=0, data=[64, 60]),
   midi.NoteOnEvent(tick=80, channel=0, data=[64, 0]),
   midi.NoteOnEvent(tick=0, channel=0, data=[63, 65]),
   midi.NoteOnEvent(tick=80, channel=0, data=[63, 0]),
   midi.NoteOnEvent(tick=0, channel=0, data=[58, 57]),
   midi.NoteOnEvent(tick=80, channel=0, data=[58, 0]),
   midi.NoteOnEvent(tick=0, channel=0, data=[56, 57]),
   midi.NoteOnEvent(tick=80, channel=0, data=[56, 0]),
   midi.NoteOnEvent(tick=0, channel=0, data=[55, 65]),
   midi.NoteOnEvent(tick=80, channel=0, data=[55, 0]),
   midi.NoteOnEvent(tick=0, channel=0, data=[54, 58]),
   midi.NoteOnEvent(tick=80, channel=0, data=[54, 0]),
   midi.NoteOnEvent(tick=0, channel=0, data=[53, 58]),
   midi.NoteOnEvent(tick=80, channel=0, data=[53, 0]),
   midi.NoteOnEvent(tick=80, channel=0, data=[59, 67]),
   midi.NoteOnEvent(tick=80, channel=0, data=[59, 0]),
   midi.NoteOnEvent(tick=0, channel=0, data=[64, 68]),
   midi.NoteOnEvent(tick=80, channel=0, data=[64, 0]),
   midi.NoteOnEvent(tick=0, channel=0, data=[65, 72]),
   midi.NoteOnEvent(tick=80, channel=0, data=[65, 0]),
   midi.NoteOnEvent(tick=0, channel=0, data=[71, 73]),
   midi.NoteOnEvent(tick=80, channel=0, data=[71, 0]),
   midi.NoteOnEvent(tick=0, channel=0, data=[73, 75]),
   midi.NoteOnEvent(tick=80, channel=0, data=[73, 0]),
   midi.NoteOnEvent(tick=0, channel=0, data=[78, 86]),
   midi.NoteOnEvent(tick=0, channel=0, data=[66, 86]),
   midi.NoteOnEvent(tick=80, channel=0, data=[66, 0]),
   midi.NoteOnEvent(tick=0, channel=0, data=[78, 0]),
   midi.NoteOnEvent(tick=0, channel=0, data=[73, 71]),
   midi.NoteOnEvent(tick=80, channel=0, data=[73, 0]),
   midi.NoteOnEvent(tick=0, channel=0, data=[71, 70]),
   midi.NoteOnEvent(tick=80, channel=0, data=[71, 0]),
   midi.NoteOnEvent(tick=0, channel=0, data=[69, 71]),
   midi.NoteOnEvent(tick=80, channel=0, data=[69, 0]),
   midi.NoteOnEvent(tick=0, channel=0, data=[68, 60]),
   midi.NoteOnEvent(tick=80, channel=0, data=[68, 0]),
   midi.NoteOnEvent(tick=0, channel=0, data=[67, 60]),
   midi.NoteOnEvent(tick=80, channel=0, data=[67, 0]),
   midi.NoteOnEvent(tick=0, channel=0, data=[66, 65]),
   midi.NoteOnEvent(tick=80, channel=0, data=[66, 0]),
   midi.NoteOnEvent(tick=0, channel=0, data=[65, 57]),
   midi.NoteOnEvent(tick=80, channel=0, data=[65, 0]),
   midi.NoteOnEvent(tick=0, channel=0, data=[64, 57]),
   midi.NoteOnEvent(tick=80, channel=0, data=[64, 0]),
   midi.NoteOnEvent(tick=240, channel=0, data=[99, 72]),
   midi.NoteOnEvent(tick=80, channel=0, data=[99, 0]),
   midi.NoteOnEvent(tick=0, channel=0, data=[87, 49]),
   midi.NoteOnEvent(tick=80, channel=0, data=[87, 0]),
   midi.NoteOnEvent(tick=0, channel=0, data=[99, 40]),
   midi.NoteOnEvent(tick=80, channel=0, data=[99, 0]),
   midi.NoteOnEvent(tick=0, channel=0, data=[97, 63]),
   midi.NoteOnEvent(tick=80, channel=0, data=[97, 0]),
   midi.NoteOnEvent(tick=0, channel=0, data=[85, 40]),
   midi.NoteOnEvent(tick=80, channel=0, data=[85, 0]),
   midi.NoteOnEvent(tick=0, channel=0, data=[97, 47]),
   midi.NoteOnEvent(tick=80, channel=0, data=[97, 0]),
   midi.NoteOnEvent(tick=0, channel=0, data=[99, 64]),
   midi.NoteOnEvent(tick=80, channel=0, data=[99, 0]),
   midi.NoteOnEvent(tick=0, channel=0, data=[87, 48]),
   midi.NoteOnEvent(tick=80, channel=0, data=[87, 0]),
   midi.NoteOnEvent(tick=0, channel=0, data=[99, 48]),
   midi.NoteOnEvent(tick=80, channel=0, data=[99, 0]),
   midi.NoteOnEvent(tick=0, channel=0, data=[87, 64]),
   midi.NoteOnEvent(tick=120, channel=0, data=[87, 0]),
   midi.NoteOnEvent(tick=120, channel=0, data=[97, 59]),
   midi.NoteOnEvent(tick=80, channel=0, data=[97, 0]),
   midi.NoteOnEvent(tick=0, channel=0, data=[85, 45]),
   midi.NoteOnEvent(tick=80, channel=0, data=[85, 0]),
   midi.NoteOnEvent(tick=0, channel=0, data=[97, 45]),
   midi.NoteOnEvent(tick=80, channel=0, data=[97, 0]),
   midi.NoteOnEvent(tick=0, channel=0, data=[99, 69]),
   midi.NoteOnEvent(tick=80, channel=0, data=[99, 0]),
   midi.NoteOnEvent(tick=0, channel=0, data=[87, 46]),
   midi.NoteOnEvent(tick=80, channel=0, data=[87, 0]),
   midi.NoteOnEvent(tick=0, channel=0, data=[99, 40]),
   midi.NoteOnEvent(tick=80, channel=0, data=[99, 0]),
   midi.NoteOnEvent(tick=0, channel=0, data=[87, 57]),
   midi.NoteOnEvent(tick=120, channel=0, data=[87, 0]),
   midi.NoteOnEvent(tick=120, channel=0, data=[97, 68]),
   midi.NoteOnEvent(tick=80, channel=0, data=[97, 0]),
   midi.NoteOnEvent(tick=0, channel=0, data=[85, 45]),
   midi.NoteOnEvent(tick=80, channel=0, data=[85, 0]),
   midi.NoteOnEvent(tick=0, channel=0, data=[97, 45]),
   midi.NoteOnEvent(tick=80, channel=0, data=[97, 0]),
   midi.NoteOnEvent(tick=0, channel=0, data=[99, 71]),
   midi.NoteOnEvent(tick=80, channel=0, data=[99, 0]),
   midi.NoteOnEvent(tick=0, channel=0, data=[87, 46]),
   midi.NoteOnEvent(tick=80, channel=0, data=[87, 0]),
   midi.NoteOnEvent(tick=0, channel=0, data=[99, 46]),
   midi.NoteOnEvent(tick=80, channel=0, data=[99, 0]),
   midi.NoteOnEvent(tick=0, channel=0, data=[87, 57]),
   midi.NoteOnEvent(tick=120, channel=0, data=[87, 0]),
   midi.NoteOnEvent(tick=120, channel=0, data=[63, 62]),
   midi.NoteOnEvent(tick=80, channel=0, data=[63, 0]),
   midi.NoteOnEvent(tick=0, channel=0, data=[61, 65]),
   midi.NoteOnEvent(tick=80, channel=0, data=[61, 0]),
   midi.NoteOnEvent(tick=0, channel=0, data=[59, 67]),
   midi.NoteOnEvent(tick=80, channel=0, data=[59, 0]),
   midi.NoteOnEvent(tick=0, channel=0, data=[58, 66]),
   midi.NoteOnEvent(tick=80, channel=0, data=[58, 0]),
   midi.NoteOnEvent(tick=0, channel=0, data=[59, 56]),
   midi.NoteOnEvent(tick=80, channel=0, data=[59, 0]),
   midi.NoteOnEvent(tick=0, channel=0, data=[57, 57]),
   midi.NoteOnEvent(tick=80, channel=0, data=[57, 0]),
   midi.NoteOnEvent(tick=0, channel=0, data=[58, 64]),
   midi.NoteOnEvent(tick=80, channel=0, data=[58, 0]),
   midi.NoteOnEvent(tick=0, channel=0, data=[63, 59]),
   midi.NoteOnEvent(tick=80, channel=0, data=[63, 0]),
   midi.NoteOnEvent(tick=0, channel=0, data=[61, 60]),
   midi.NoteOnEvent(tick=80, channel=0, data=[61, 0]),
   midi.NoteOnEvent(tick=0, channel=0, data=[62, 68]),
   midi.NoteOnEvent(tick=80, channel=0, data=[62, 0]),
   midi.NoteOnEvent(tick=0, channel=0, data=[63, 60]),
   midi.NoteOnEvent(tick=80, channel=0, data=[63, 0]),
   midi.NoteOnEvent(tick=0, channel=0, data=[66, 60]),
   midi.NoteOnEvent(tick=80, channel=0, data=[66, 0]),
   midi.NoteOnEvent(tick=0, channel=0, data=[67, 69]),
   midi.NoteOnEvent(tick=80, channel=0, data=[67, 0]),
   midi.NoteOnEvent(tick=0, channel=0, data=[70, 61]),
   midi.NoteOnEvent(tick=80, channel=0, data=[70, 0]),
   midi.NoteOnEvent(tick=0, channel=0, data=[68, 62]),
   midi.NoteOnEvent(tick=80, channel=0, data=[68, 0]),
   midi.NoteOnEvent(tick=0, channel=0, data=[71, 72]),
   midi.NoteOnEvent(tick=80, channel=0, data=[71, 0]),
   midi.NoteOnEvent(tick=0, channel=0, data=[74, 63]),
   midi.NoteOnEvent(tick=80, channel=0, data=[74, 0]),
   midi.NoteOnEvent(tick=0, channel=0, data=[75, 64]),
   midi.NoteOnEvent(tick=80, channel=0, data=[75, 0]),
   midi.NoteOnEvent(tick=0, channel=0, data=[78, 79]),
   midi.NoteOnEvent(tick=80, channel=0, data=[78, 0]),
   midi.NoteOnEvent(tick=0, channel=0, data=[75, 65]),
   midi.NoteOnEvent(tick=80, channel=0, data=[75, 0]),
   midi.NoteOnEvent(tick=0, channel=0, data=[74, 66]),
   midi.NoteOnEvent(tick=80, channel=0, data=[74, 0]),
   midi.NoteOnEvent(tick=0, channel=0, data=[77, 86]),
   midi.NoteOnEvent(tick=80, channel=0, data=[77, 0]),
   midi.NoteOnEvent(tick=0, channel=0, data=[74, 67]),
   midi.NoteOnEvent(tick=80, channel=0, data=[74, 0]),
   midi.NoteOnEvent(tick=0, channel=0, data=[73, 67]),
   midi.NoteOnEvent(tick=80, channel=0, data=[73, 0]),
   midi.NoteOnEvent(tick=0, channel=0, data=[76, 78]),
   midi.NoteOnEvent(tick=80, channel=0, data=[76, 0]),
   midi.NoteOnEvent(tick=0, channel=0, data=[73, 67]),
   midi.NoteOnEvent(tick=80, channel=0, data=[73, 0]),
   midi.NoteOnEvent(tick=0, channel=0, data=[72, 67]),
   midi.NoteOnEvent(tick=80, channel=0, data=[72, 0]),
   midi.NoteOnEvent(tick=0, channel=0, data=[75, 79]),
   midi.NoteOnEvent(tick=80, channel=0, data=[75, 0]),
   midi.NoteOnEvent(tick=0, channel=0, data=[72, 67]),
   midi.NoteOnEvent(tick=80, channel=0, data=[72, 0]),
   midi.NoteOnEvent(tick=0, channel=0, data=[71, 67]),
   midi.NoteOnEvent(tick=80, channel=0, data=[71, 0]),
   midi.NoteOnEvent(tick=0, channel=0, data=[70, 78]),
   midi.NoteOnEvent(tick=80, channel=0, data=[70, 0]),
   midi.NoteOnEvent(tick=0, channel=0, data=[71, 67]),
   midi.NoteOnEvent(tick=80, channel=0, data=[71, 0]),
   midi.NoteOnEvent(tick=0, channel=0, data=[69, 67]),
   midi.NoteOnEvent(tick=80, channel=0, data=[69, 0]),
   midi.NoteOnEvent(tick=0, channel=0, data=[75, 77]),
   midi.NoteOnEvent(tick=80, channel=0, data=[75, 0]),
   midi.NoteOnEvent(tick=0, channel=0, data=[70, 67]),
   midi.NoteOnEvent(tick=80, channel=0, data=[70, 0]),
   midi.NoteOnEvent(tick=0, channel=0, data=[65, 67]),
   midi.NoteOnEvent(tick=80, channel=0, data=[65, 0]),
   midi.NoteOnEvent(tick=240, channel=0, data=[77, 64]),
   midi.NoteOnEvent(tick=0, channel=0, data=[67, 54]),
   midi.NoteOnEvent(tick=80, channel=0, data=[67, 0]),
   midi.NoteOnEvent(tick=0, channel=0, data=[73, 45]),
   midi.NoteOnEvent(tick=80, channel=0, data=[73, 0]),
   midi.NoteOnEvent(tick=0, channel=0, data=[72, 45]),
   midi.NoteOnEvent(tick=80, channel=0, data=[72, 0]),
   midi.NoteOnEvent(tick=0, channel=0, data=[71, 53]),
   midi.NoteOnEvent(tick=80, channel=0, data=[71, 0]),
   midi.NoteOnEvent(tick=0, channel=0, data=[72, 47]),
   midi.NoteOnEvent(tick=80, channel=0, data=[72, 0]),
   midi.NoteOnEvent(tick=0, channel=0, data=[73, 47]),
   midi.NoteOnEvent(tick=80, channel=0, data=[73, 0]),
   midi.NoteOnEvent(tick=0, channel=0, data=[69, 53]),
   midi.NoteOnEvent(tick=80, channel=0, data=[69, 0]),
   midi.NoteOnEvent(tick=0, channel=0, data=[70, 47]),
   midi.NoteOnEvent(tick=80, channel=0, data=[70, 0]),
   midi.NoteOnEvent(tick=0, channel=0, data=[73, 47]),
   midi.NoteOnEvent(tick=80, channel=0, data=[73, 0]),
   midi.NoteOnEvent(tick=0, channel=0, data=[67, 53]),
   midi.NoteOnEvent(tick=80, channel=0, data=[67, 0]),
   midi.NoteOnEvent(tick=0, channel=0, data=[68, 47]),
   midi.NoteOnEvent(tick=80, channel=0, data=[68, 0]),
   midi.NoteOnEvent(tick=0, channel=0, data=[71, 47]),
   midi.NoteOnEvent(tick=80, channel=0, data=[71, 0]),
   midi.NoteOnEvent(tick=0, channel=0, data=[77, 0]),
   midi.NoteOnEvent(tick=0, channel=0, data=[80, 73]),
   midi.NoteOnEvent(tick=0, channel=0, data=[83, 77]),
   midi.NoteOnEvent(tick=240, channel=0, data=[83, 0]),
   midi.NoteOnEvent(tick=0, channel=0, data=[80, 0]),
   midi.NoteOnEvent(tick=0, channel=0, data=[75, 67]),
   midi.NoteOnEvent(tick=240, channel=0, data=[75, 0]),
   midi.NoteOnEvent(tick=0, channel=0, data=[65, 58]),
   midi.NoteOnEvent(tick=0, channel=0, data=[74, 69]),
   midi.NoteOnEvent(tick=80, channel=0, data=[65, 0]),
   midi.NoteOnEvent(tick=0, channel=0, data=[71, 51]),
   midi.NoteOnEvent(tick=80, channel=0, data=[71, 0]),
   midi.NoteOnEvent(tick=0, channel=0, data=[70, 50]),
   midi.NoteOnEvent(tick=80, channel=0, data=[70, 0]),
   midi.NoteOnEvent(tick=0, channel=0, data=[69, 50]),
   midi.NoteOnEvent(tick=80, channel=0, data=[69, 0]),
   midi.NoteOnEvent(tick=0, channel=0, data=[70, 46]),
   midi.NoteOnEvent(tick=80, channel=0, data=[70, 0]),
   midi.NoteOnEvent(tick=0, channel=0, data=[71, 45]),
   midi.NoteOnEvent(tick=80, channel=0, data=[71, 0]),
   midi.NoteOnEvent(tick=0, channel=0, data=[67, 47]),
   midi.NoteOnEvent(tick=80, channel=0, data=[67, 0]),
   midi.NoteOnEvent(tick=0, channel=0, data=[68, 42]),
   midi.NoteOnEvent(tick=80, channel=0, data=[68, 0]),
   midi.NoteOnEvent(tick=0, channel=0, data=[71, 41]),
   midi.NoteOnEvent(tick=80, channel=0, data=[71, 0]),
   midi.NoteOnEvent(tick=0, channel=0, data=[64, 45]),
   midi.NoteOnEvent(tick=80, channel=0, data=[64, 0]),
   midi.NoteOnEvent(tick=0, channel=0, data=[65, 39]),
   midi.NoteOnEvent(tick=80, channel=0, data=[65, 0]),
   midi.NoteOnEvent(tick=0, channel=0, data=[68, 38]),
   midi.NoteOnEvent(tick=80, channel=0, data=[74, 0]),
   midi.NoteOnEvent(tick=0, channel=0, data=[75, 65]),
   midi.NoteOnEvent(tick=240, channel=0, data=[68, 0]),
   midi.NoteOnEvent(tick=0, channel=0, data=[69, 40]),
   midi.NoteOnEvent(tick=240, channel=0, data=[69, 0]),
   midi.NoteOnEvent(tick=0, channel=0, data=[75, 0]),
   midi.NoteOnEvent(tick=0, channel=0, data=[70, 45]),
   midi.NoteOnEvent(tick=80, channel=0, data=[70, 0]),
   midi.NoteOnEvent(tick=0, channel=0, data=[67, 41]),
   midi.NoteOnEvent(tick=80, channel=0, data=[67, 0]),
   midi.NoteOnEvent(tick=0, channel=0, data=[68, 41]),
   midi.NoteOnEvent(tick=80, channel=0, data=[68, 0]),
   midi.NoteOnEvent(tick=0, channel=0, data=[69, 45]),
   midi.NoteOnEvent(tick=80, channel=0, data=[69, 0]),
   midi.NoteOnEvent(tick=0, channel=0, data=[70, 42]),
   midi.NoteOnEvent(tick=80, channel=0, data=[70, 0]),
   midi.NoteOnEvent(tick=0, channel=0, data=[71, 42]),
   midi.NoteOnEvent(tick=80, channel=0, data=[71, 0]),
   midi.NoteOnEvent(tick=0, channel=0, data=[75, 55]),
   midi.NoteOnEvent(tick=80, channel=0, data=[73, 45]),
   midi.NoteOnEvent(tick=40, channel=0, data=[75, 0]),
   midi.NoteOnEvent(tick=40, channel=0, data=[73, 0]),
   midi.NoteOnEvent(tick=0, channel=0, data=[74, 45]),
   midi.NoteOnEvent(tick=80, channel=0, data=[74, 0]),
   midi.NoteOnEvent(tick=0, channel=0, data=[75, 45]),
   midi.NoteOnEvent(tick=0, channel=0, data=[77, 63]),
   midi.NoteOnEvent(tick=80, channel=0, data=[75, 0]),
   midi.NoteOnEvent(tick=0, channel=0, data=[69, 45]),
   midi.NoteOnEvent(tick=40, channel=0, data=[77, 0]),
   midi.NoteOnEvent(tick=40, channel=0, data=[69, 0]),
   midi.NoteOnEvent(tick=0, channel=0, data=[70, 45]),
   midi.NoteOnEvent(tick=80, channel=0, data=[70, 0]),
   midi.NoteOnEvent(tick=0, channel=0, data=[71, 45]),
   midi.NoteOnEvent(tick=80, channel=0, data=[71, 0]),
   midi.NoteOnEvent(tick=0, channel=0, data=[72, 42]),
   midi.NoteOnEvent(tick=80, channel=0, data=[72, 0]),
   midi.NoteOnEvent(tick=0, channel=0, data=[73, 42]),
   midi.NoteOnEvent(tick=80, channel=0, data=[73, 0]),
   midi.NoteOnEvent(tick=0, channel=0, data=[79, 55]),
   midi.NoteOnEvent(tick=80, channel=0, data=[73, 41]),
   midi.NoteOnEvent(tick=40, channel=0, data=[79, 0]),
   midi.NoteOnEvent(tick=40, channel=0, data=[73, 0]),
   midi.NoteOnEvent(tick=0, channel=0, data=[74, 41]),
   midi.NoteOnEvent(tick=80, channel=0, data=[74, 0]),
   midi.NoteOnEvent(tick=0, channel=0, data=[75, 45]),
   midi.NoteOnEvent(tick=0, channel=0, data=[80, 64]),
   midi.NoteOnEvent(tick=80, channel=0, data=[75, 0]),
   midi.NoteOnEvent(tick=0, channel=0, data=[71, 45]),
   midi.NoteOnEvent(tick=40, channel=0, data=[80, 0]),
   midi.NoteOnEvent(tick=40, channel=0, data=[71, 0]),
   midi.NoteOnEvent(tick=0, channel=0, data=[73, 45]),
   midi.NoteOnEvent(tick=80, channel=0, data=[73, 0]),
   midi.NoteOnEvent(tick=0, channel=0, data=[75, 45]),
   midi.NoteOnEvent(tick=80, channel=0, data=[75, 0]),
   midi.NoteOnEvent(tick=0, channel=0, data=[76, 42]),
   midi.NoteOnEvent(tick=80, channel=0, data=[76, 0]),
   midi.NoteOnEvent(tick=0, channel=0, data=[77, 42]),
   midi.NoteOnEvent(tick=80, channel=0, data=[77, 0]),
   midi.NoteOnEvent(tick=0, channel=0, data=[78, 45]),
   midi.NoteOnEvent(tick=0, channel=0, data=[81, 55]),
   midi.NoteOnEvent(tick=80, channel=0, data=[78, 0]),
   midi.NoteOnEvent(tick=0, channel=0, data=[77, 42]),
   midi.NoteOnEvent(tick=10, channel=0, data=[81, 0]),
   midi.NoteOnEvent(tick=70, channel=0, data=[77, 0]),
   midi.NoteOnEvent(tick=0, channel=0, data=[78, 42]),
   midi.NoteOnEvent(tick=80, channel=0, data=[82, 61]),
   midi.NoteOnEvent(tick=80, channel=0, data=[78, 0]),
   midi.NoteOnEvent(tick=0, channel=0, data=[77, 42]),
   midi.NoteOnEvent(tick=10, channel=0, data=[82, 0]),
   midi.NoteOnEvent(tick=70, channel=0, data=[77, 0]),
   midi.NoteOnEvent(tick=0, channel=0, data=[78, 41]),
   midi.NoteOnEvent(tick=80, channel=0, data=[78, 0]),
   midi.NoteOnEvent(tick=0, channel=0, data=[79, 45]),
   midi.NoteOnEvent(tick=0, channel=0, data=[84, 58]),
   midi.NoteOnEvent(tick=80, channel=0, data=[79, 0]),
   midi.NoteOnEvent(tick=0, channel=0, data=[80, 42]),
   midi.NoteOnEvent(tick=10, channel=0, data=[84, 0]),
   midi.NoteOnEvent(tick=70, channel=0, data=[80, 0]),
   midi.NoteOnEvent(tick=0, channel=0, data=[81, 42]),
   midi.NoteOnEvent(tick=80, channel=0, data=[81, 0]),
   midi.NoteOnEvent(tick=0, channel=0, data=[82, 45]),
   midi.NoteOnEvent(tick=0, channel=0, data=[86, 60]),
   midi.NoteOnEvent(tick=80, channel=0, data=[82, 0]),
   midi.NoteOnEvent(tick=0, channel=0, data=[80, 40]),
   midi.NoteOnEvent(tick=10, channel=0, data=[86, 0]),
   midi.NoteOnEvent(tick=70, channel=0, data=[80, 0]),
   midi.NoteOnEvent(tick=0, channel=0, data=[78, 40]),
   midi.NoteOnEvent(tick=80, channel=0, data=[87, 66]),
   midi.NoteOnEvent(tick=240, channel=0, data=[87, 0]),
   midi.NoteOnEvent(tick=0, channel=0, data=[78, 0]),
   midi.NoteOnEvent(tick=0, channel=0, data=[83, 49]),
   midi.NoteOnEvent(tick=80, channel=0, data=[83, 0]),
   midi.NoteOnEvent(tick=0, channel=0, data=[79, 43]),
   midi.NoteOnEvent(tick=80, channel=0, data=[79, 0]),
   midi.NoteOnEvent(tick=0, channel=0, data=[74, 43]),
   midi.NoteOnEvent(tick=80, channel=0, data=[74, 0]),
   midi.NoteOnEvent(tick=0, channel=0, data=[82, 49]),
   midi.NoteOnEvent(tick=80, channel=0, data=[82, 0]),
   midi.NoteOnEvent(tick=0, channel=0, data=[78, 42]),
   midi.NoteOnEvent(tick=80, channel=0, data=[78, 0]),
   midi.NoteOnEvent(tick=0, channel=0, data=[73, 42]),
   midi.NoteOnEvent(tick=80, channel=0, data=[73, 0]),
   midi.NoteOnEvent(tick=0, channel=0, data=[81, 49]),
   midi.NoteOnEvent(tick=80, channel=0, data=[81, 0]),
   midi.NoteOnEvent(tick=0, channel=0, data=[77, 43]),
   midi.NoteOnEvent(tick=80, channel=0, data=[77, 0]),
   midi.NoteOnEvent(tick=0, channel=0, data=[72, 43]),
   midi.NoteOnEvent(tick=80, channel=0, data=[72, 0]),
   midi.NoteOnEvent(tick=0, channel=0, data=[80, 49]),
   midi.NoteOnEvent(tick=80, channel=0, data=[80, 0]),
   midi.NoteOnEvent(tick=0, channel=0, data=[76, 42]),
   midi.NoteOnEvent(tick=80, channel=0, data=[76, 0]),
   midi.NoteOnEvent(tick=0, channel=0, data=[71, 42]),
   midi.NoteOnEvent(tick=80, channel=0, data=[71, 0]),
   midi.NoteOnEvent(tick=0, channel=0, data=[79, 49]),
   midi.NoteOnEvent(tick=80, channel=0, data=[79, 0]),
   midi.NoteOnEvent(tick=0, channel=0, data=[71, 43]),
   midi.NoteOnEvent(tick=80, channel=0, data=[71, 0]),
   midi.NoteOnEvent(tick=0, channel=0, data=[69, 43]),
   midi.NoteOnEvent(tick=80, channel=0, data=[69, 0]),
   midi.NoteOnEvent(tick=0, channel=0, data=[78, 49]),
   midi.NoteOnEvent(tick=80, channel=0, data=[78, 0]),
   midi.NoteOnEvent(tick=0, channel=0, data=[73, 42]),
   midi.NoteOnEvent(tick=80, channel=0, data=[73, 0]),
   midi.NoteOnEvent(tick=0, channel=0, data=[66, 42]),
   midi.NoteOnEvent(tick=80, channel=0, data=[66, 0]),
   midi.NoteOnEvent(tick=0, channel=0, data=[71, 49]),
   midi.NoteOnEvent(tick=80, channel=0, data=[71, 0]),
   midi.NoteOnEvent(tick=0, channel=0, data=[67, 44]),
   midi.NoteOnEvent(tick=80, channel=0, data=[67, 0]),
   midi.NoteOnEvent(tick=0, channel=0, data=[62, 44]),
   midi.NoteOnEvent(tick=80, channel=0, data=[62, 0]),
   midi.NoteOnEvent(tick=0, channel=0, data=[70, 49]),
   midi.NoteOnEvent(tick=80, channel=0, data=[70, 0]),
   midi.NoteOnEvent(tick=0, channel=0, data=[66, 42]),
   midi.NoteOnEvent(tick=80, channel=0, data=[66, 0]),
   midi.NoteOnEvent(tick=0, channel=0, data=[61, 42]),
   midi.NoteOnEvent(tick=80, channel=0, data=[61, 0]),
   midi.NoteOnEvent(tick=0, channel=0, data=[69, 49]),
   midi.NoteOnEvent(tick=80, channel=0, data=[69, 0]),
   midi.NoteOnEvent(tick=0, channel=0, data=[65, 40]),
   midi.NoteOnEvent(tick=80, channel=0, data=[65, 0]),
   midi.NoteOnEvent(tick=0, channel=0, data=[60, 40]),
   midi.NoteOnEvent(tick=80, channel=0, data=[60, 0]),
   midi.NoteOnEvent(tick=0, channel=0, data=[68, 50]),
   midi.NoteOnEvent(tick=80, channel=0, data=[68, 0]),
   midi.NoteOnEvent(tick=0, channel=0, data=[64, 44]),
   midi.NoteOnEvent(tick=80, channel=0, data=[64, 0]),
   midi.NoteOnEvent(tick=0, channel=0, data=[59, 44]),
   midi.NoteOnEvent(tick=80, channel=0, data=[59, 0]),
   midi.NoteOnEvent(tick=0, channel=0, data=[67, 50]),
   midi.NoteOnEvent(tick=80, channel=0, data=[67, 0]),
   midi.NoteOnEvent(tick=0, channel=0, data=[59, 43]),
   midi.NoteOnEvent(tick=80, channel=0, data=[59, 0]),
   midi.NoteOnEvent(tick=0, channel=0, data=[57, 43]),
   midi.NoteOnEvent(tick=80, channel=0, data=[57, 0]),
   midi.NoteOnEvent(tick=0, channel=0, data=[66, 50]),
   midi.NoteOnEvent(tick=80, channel=0, data=[66, 0]),
   midi.NoteOnEvent(tick=0, channel=0, data=[58, 42]),
   midi.NoteOnEvent(tick=80, channel=0, data=[58, 0]),
   midi.NoteOnEvent(tick=0, channel=0, data=[51, 44]),
   midi.NoteOnEvent(tick=80, channel=0, data=[51, 0]),
   midi.NoteOnEvent(tick=0, channel=0, data=[63, 73]),
   midi.NoteOnEvent(tick=240, channel=0, data=[63, 0]),
   midi.NoteOnEvent(tick=0, channel=0, data=[67, 50]),
   midi.NoteOnEvent(tick=80, channel=0, data=[67, 0]),
   midi.NoteOnEvent(tick=0, channel=0, data=[59, 43]),
   midi.NoteOnEvent(tick=80, channel=0, data=[59, 0]),
   midi.NoteOnEvent(tick=0, channel=0, data=[57, 43]),
   midi.NoteOnEvent(tick=80, channel=0, data=[57, 0]),
   midi.NoteOnEvent(tick=0, channel=0, data=[66, 50]),
   midi.NoteOnEvent(tick=80, channel=0, data=[66, 0]),
   midi.NoteOnEvent(tick=0, channel=0, data=[58, 46]),
   midi.NoteOnEvent(tick=80, channel=0, data=[58, 0]),
   midi.NoteOnEvent(tick=0, channel=0, data=[51, 46]),
   midi.NoteOnEvent(tick=80, channel=0, data=[51, 0]),
   midi.NoteOnEvent(tick=0, channel=0, data=[63, 71]),
   midi.NoteOnEvent(tick=240, channel=0, data=[63, 0]),
   midi.NoteOnEvent(tick=0, channel=0, data=[67, 50]),
   midi.NoteOnEvent(tick=80, channel=0, data=[67, 0]),
   midi.NoteOnEvent(tick=0, channel=0, data=[59, 46]),
   midi.NoteOnEvent(tick=80, channel=0, data=[59, 0]),
   midi.NoteOnEvent(tick=0, channel=0, data=[57, 46]),
   midi.NoteOnEvent(tick=80, channel=0, data=[57, 0]),
   midi.NoteOnEvent(tick=0, channel=0, data=[66, 50]),
   midi.NoteOnEvent(tick=80, channel=0, data=[66, 0]),
   midi.NoteOnEvent(tick=0, channel=0, data=[58, 46]),
   midi.NoteOnEvent(tick=80, channel=0, data=[58, 0]),
   midi.NoteOnEvent(tick=0, channel=0, data=[51, 47]),
   midi.NoteOnEvent(tick=80, channel=0, data=[51, 0]),
   midi.NoteOnEvent(tick=0, channel=0, data=[63, 100]),
   midi.NoteOnEvent(tick=240, channel=0, data=[59, 86]),
   midi.NoteOnEvent(tick=240, channel=0, data=[59, 0]),
   midi.NoteOnEvent(tick=0, channel=0, data=[56, 97]),
   midi.NoteOnEvent(tick=240, channel=0, data=[56, 0]),
   midi.NoteOnEvent(tick=0, channel=0, data=[63, 0]),
   midi.NoteOnEvent(tick=0, channel=0, data=[53, 80]),
   midi.NoteOnEvent(tick=120, channel=0, data=[53, 0]),
   midi.NoteOnEvent(tick=0, channel=0, data=[51, 86]),
   midi.NoteOnEvent(tick=120, channel=0, data=[51, 0]),
   midi.NoteOnEvent(tick=0, channel=0, data=[50, 90]),
   midi.NoteOnEvent(tick=120, channel=0, data=[50, 0]),
   midi.NoteOnEvent(tick=0, channel=0, data=[48, 93]),
   midi.NoteOnEvent(tick=120, channel=0, data=[48, 0]),
   midi.NoteOnEvent(tick=0, channel=0, data=[46, 98]),
   midi.NoteOnEvent(tick=240, channel=0, data=[46, 0]),
   midi.NoteOnEvent(tick=0, channel=0, data=[38, 63]),
   midi.NoteOnEvent(tick=80, channel=0, data=[38, 0]),
   midi.NoteOnEvent(tick=0, channel=0, data=[44, 64]),
   midi.NoteOnEvent(tick=80, channel=0, data=[44, 0]),
   midi.NoteOnEvent(tick=0, channel=0, data=[46, 65]),
   midi.NoteOnEvent(tick=80, channel=0, data=[46, 0]),
   midi.NoteOnEvent(tick=0, channel=0, data=[50, 67]),
   midi.NoteOnEvent(tick=80, channel=0, data=[50, 0]),
   midi.NoteOnEvent(tick=0, channel=0, data=[56, 68]),
   midi.NoteOnEvent(tick=80, channel=0, data=[56, 0]),
   midi.NoteOnEvent(tick=0, channel=0, data=[58, 73]),
   midi.NoteOnEvent(tick=80, channel=0, data=[58, 0]),
   midi.NoteOnEvent(tick=0, channel=0, data=[63, 80]),
   midi.NoteOnEvent(tick=0, channel=0, data=[51, 80]),
   midi.NoteOnEvent(tick=80, channel=0, data=[51, 0]),
   midi.NoteOnEvent(tick=0, channel=0, data=[63, 0]),
   midi.NoteOnEvent(tick=0, channel=0, data=[56, 76]),
   midi.NoteOnEvent(tick=80, channel=0, data=[56, 0]),
   midi.NoteOnEvent(tick=0, channel=0, data=[55, 69]),
   midi.NoteOnEvent(tick=80, channel=0, data=[55, 0]),
   midi.NoteOnEvent(tick=0, channel=0, data=[54, 65]),
   midi.NoteOnEvent(tick=80, channel=0, data=[54, 0]),
   midi.NoteOnEvent(tick=0, channel=0, data=[53, 63]),
   midi.NoteOnEvent(tick=80, channel=0, data=[53, 0]),
   midi.NoteOnEvent(tick=0, channel=0, data=[52, 65]),
   midi.NoteOnEvent(tick=80, channel=0, data=[52, 0]),
   midi.NoteOnEvent(tick=0, channel=0, data=[51, 64]),
   midi.NoteOnEvent(tick=80, channel=0, data=[51, 0]),
   midi.NoteOnEvent(tick=0, channel=0, data=[46, 62]),
   midi.NoteOnEvent(tick=80, channel=0, data=[46, 0]),
   midi.NoteOnEvent(tick=0, channel=0, data=[44, 61]),
   midi.NoteOnEvent(tick=80, channel=0, data=[44, 0]),
   midi.NoteOnEvent(tick=0, channel=0, data=[43, 61]),
   midi.NoteOnEvent(tick=80, channel=0, data=[43, 0]),
   midi.NoteOnEvent(tick=0, channel=0, data=[42, 58]),
   midi.NoteOnEvent(tick=80, channel=0, data=[42, 0]),
   midi.NoteOnEvent(tick=0, channel=0, data=[41, 59]),
   midi.NoteOnEvent(tick=80, channel=0, data=[41, 0]),
   midi.NoteOnEvent(tick=80, channel=0, data=[47, 64]),
   midi.NoteOnEvent(tick=80, channel=0, data=[47, 0]),
   midi.NoteOnEvent(tick=0, channel=0, data=[49, 65]),
   midi.NoteOnEvent(tick=80, channel=0, data=[49, 0]),
   midi.NoteOnEvent(tick=0, channel=0, data=[53, 67]),
   midi.NoteOnEvent(tick=80, channel=0, data=[53, 0]),
   midi.NoteOnEvent(tick=0, channel=0, data=[59, 68]),
   midi.NoteOnEvent(tick=80, channel=0, data=[59, 0]),
   midi.NoteOnEvent(tick=0, channel=0, data=[61, 73]),
   midi.NoteOnEvent(tick=80, channel=0, data=[61, 0]),
   midi.NoteOnEvent(tick=0, channel=0, data=[66, 80]),
   midi.NoteOnEvent(tick=0, channel=0, data=[54, 80]),
   midi.NoteOnEvent(tick=80, channel=0, data=[54, 0]),
   midi.NoteOnEvent(tick=0, channel=0, data=[66, 0]),
   midi.NoteOnEvent(tick=0, channel=0, data=[61, 77]),
   midi.NoteOnEvent(tick=80, channel=0, data=[61, 0]),
   midi.NoteOnEvent(tick=0, channel=0, data=[59, 74]),
   midi.NoteOnEvent(tick=80, channel=0, data=[59, 0]),
   midi.NoteOnEvent(tick=0, channel=0, data=[57, 73]),
   midi.NoteOnEvent(tick=80, channel=0, data=[57, 0]),
   midi.NoteOnEvent(tick=0, channel=0, data=[56, 72]),
   midi.NoteOnEvent(tick=80, channel=0, data=[56, 0]),
   midi.NoteOnEvent(tick=0, channel=0, data=[55, 72]),
   midi.NoteOnEvent(tick=80, channel=0, data=[55, 0]),
   midi.NoteOnEvent(tick=0, channel=0, data=[54, 71]),
   midi.NoteOnEvent(tick=80, channel=0, data=[54, 0]),
   midi.NoteOnEvent(tick=0, channel=0, data=[53, 70]),
   midi.NoteOnEvent(tick=80, channel=0, data=[53, 0]),
   midi.NoteOnEvent(tick=0, channel=0, data=[52, 70]),
   midi.NoteOnEvent(tick=80, channel=0, data=[52, 0]),
   midi.NoteOnEvent(tick=160, channel=0, data=[54, 61]),
   midi.NoteOnEvent(tick=80, channel=0, data=[54, 0]),
   midi.NoteOnEvent(tick=0, channel=0, data=[55, 61]),
   midi.NoteOnEvent(tick=80, channel=0, data=[55, 0]),
   midi.NoteOnEvent(tick=0, channel=0, data=[61, 61]),
   midi.NoteOnEvent(tick=80, channel=0, data=[61, 0]),
   midi.NoteOnEvent(tick=0, channel=0, data=[63, 64]),
   midi.NoteOnEvent(tick=80, channel=0, data=[63, 0]),
   midi.NoteOnEvent(tick=0, channel=0, data=[67, 67]),
   midi.NoteOnEvent(tick=80, channel=0, data=[67, 0]),
   midi.NoteOnEvent(tick=0, channel=0, data=[73, 70]),
   midi.NoteOnEvent(tick=80, channel=0, data=[73, 0]),
   midi.NoteOnEvent(tick=0, channel=0, data=[75, 75]),
   midi.NoteOnEvent(tick=80, channel=0, data=[75, 0]),
   midi.NoteOnEvent(tick=0, channel=0, data=[80, 80]),
   midi.NoteOnEvent(tick=0, channel=0, data=[68, 80]),
   midi.NoteOnEvent(tick=80, channel=0, data=[68, 0]),
   midi.NoteOnEvent(tick=0, channel=0, data=[80, 0]),
   midi.NoteOnEvent(tick=0, channel=0, data=[73, 77]),
   midi.NoteOnEvent(tick=80, channel=0, data=[73, 0]),
   midi.NoteOnEvent(tick=0, channel=0, data=[72, 71]),
   midi.NoteOnEvent(tick=80, channel=0, data=[72, 0]),
   midi.NoteOnEvent(tick=0, channel=0, data=[71, 73]),
   midi.NoteOnEvent(tick=80, channel=0, data=[71, 0]),
   midi.NoteOnEvent(tick=0, channel=0, data=[70, 72]),
   midi.NoteOnEvent(tick=80, channel=0, data=[70, 0]),
   midi.NoteOnEvent(tick=0, channel=0, data=[69, 72]),
   midi.NoteOnEvent(tick=80, channel=0, data=[69, 0]),
   midi.NoteOnEvent(tick=0, channel=0, data=[68, 71]),
   midi.NoteOnEvent(tick=80, channel=0, data=[68, 0]),
   midi.NoteOnEvent(tick=0, channel=0, data=[67, 70]),
   midi.NoteOnEvent(tick=80, channel=0, data=[67, 0]),
   midi.NoteOnEvent(tick=0, channel=0, data=[66, 70]),
   midi.NoteOnEvent(tick=80, channel=0, data=[66, 0]),
   midi.NoteOnEvent(tick=80, channel=0, data=[69, 68]),
   midi.NoteOnEvent(tick=80, channel=0, data=[69, 0]),
   midi.NoteOnEvent(tick=0, channel=0, data=[75, 70]),
   midi.NoteOnEvent(tick=80, channel=0, data=[75, 0]),
   midi.NoteOnEvent(tick=0, channel=0, data=[77, 72]),
   midi.NoteOnEvent(tick=80, channel=0, data=[77, 0]),
   midi.NoteOnEvent(tick=0, channel=0, data=[81, 73]),
   midi.NoteOnEvent(tick=80, channel=0, data=[81, 0]),
   midi.NoteOnEvent(tick=0, channel=0, data=[87, 78]),
   midi.NoteOnEvent(tick=80, channel=0, data=[87, 0]),
   midi.NoteOnEvent(tick=0, channel=0, data=[93, 81]),
   midi.NoteOnEvent(tick=0, channel=0, data=[81, 81]),
   midi.NoteOnEvent(tick=80, channel=0, data=[81, 0]),
   midi.NoteOnEvent(tick=0, channel=0, data=[93, 0]),
   midi.NoteOnEvent(tick=0, channel=0, data=[89, 84]),
   midi.NoteOnEvent(tick=80, channel=0, data=[89, 0]),
   midi.NoteOnEvent(tick=0, channel=0, data=[87, 86]),
   midi.NoteOnEvent(tick=80, channel=0, data=[87, 0]),
   midi.NoteOnEvent(tick=0, channel=0, data=[94, 85]),
   midi.NoteOnEvent(tick=0, channel=0, data=[82, 85]),
   midi.NoteOnEvent(tick=80, channel=0, data=[82, 0]),
   midi.NoteOnEvent(tick=0, channel=0, data=[94, 0]),
   midi.NoteOnEvent(tick=0, channel=0, data=[89, 78]),
   midi.NoteOnEvent(tick=80, channel=0, data=[89, 0]),
   midi.NoteOnEvent(tick=0, channel=0, data=[87, 81]),
   midi.NoteOnEvent(tick=80, channel=0, data=[87, 0]),
   midi.NoteOnEvent(tick=0, channel=0, data=[73, 81]),
   midi.NoteOnEvent(tick=80, channel=0, data=[73, 0]),
   midi.NoteOnEvent(tick=0, channel=0, data=[84, 81]),
   midi.NoteOnEvent(tick=80, channel=0, data=[84, 0]),
   midi.NoteOnEvent(tick=0, channel=0, data=[87, 81]),
   midi.NoteOnEvent(tick=80, channel=0, data=[87, 0]),
   midi.NoteOnEvent(tick=0, channel=0, data=[94, 80]),
   midi.NoteOnEvent(tick=80, channel=0, data=[94, 0]),
   midi.NoteOnEvent(tick=0, channel=0, data=[96, 80]),
   midi.NoteOnEvent(tick=80, channel=0, data=[96, 0]),
   midi.NoteOnEvent(tick=0, channel=0, data=[99, 79]),
   midi.NoteOnEvent(tick=80, channel=0, data=[99, 0]),
   midi.NoteOnEvent(tick=0, channel=0, data=[106, 89]),
   midi.NoteOnEvent(tick=0, channel=0, data=[94, 89]),
   midi.NoteOnEvent(tick=240, channel=0, data=[94, 0]),
   midi.NoteOnEvent(tick=0, channel=0, data=[106, 0]),
   midi.NoteOnEvent(tick=0, channel=0, data=[106, 72]),
   midi.NoteOnEvent(tick=80, channel=0, data=[106, 0]),
   midi.NoteOnEvent(tick=0, channel=0, data=[94, 49]),
   midi.NoteOnEvent(tick=80, channel=0, data=[94, 0]),
   midi.NoteOnEvent(tick=0, channel=0, data=[106, 40]),
   midi.NoteOnEvent(tick=80, channel=0, data=[106, 0]),
   midi.NoteOnEvent(tick=0, channel=0, data=[104, 63]),
   midi.NoteOnEvent(tick=80, channel=0, data=[104, 0]),
   midi.NoteOnEvent(tick=0, channel=0, data=[92, 40]),
   midi.NoteOnEvent(tick=80, channel=0, data=[92, 0]),
   midi.NoteOnEvent(tick=0, channel=0, data=[104, 50]),
   midi.NoteOnEvent(tick=80, channel=0, data=[104, 0]),
   midi.NoteOnEvent(tick=0, channel=0, data=[106, 60]),
   midi.NoteOnEvent(tick=80, channel=0, data=[106, 0]),
   midi.NoteOnEvent(tick=0, channel=0, data=[94, 48]),
   midi.NoteOnEvent(tick=80, channel=0, data=[94, 0]),
   midi.NoteOnEvent(tick=0, channel=0, data=[106, 48]),
   midi.NoteOnEvent(tick=80, channel=0, data=[106, 0]),
   midi.NoteOnEvent(tick=0, channel=0, data=[94, 64]),
   midi.NoteOnEvent(tick=120, channel=0, data=[94, 0]),
   midi.NoteOnEvent(tick=120, channel=0, data=[104, 59]),
   midi.NoteOnEvent(tick=80, channel=0, data=[104, 0]),
   midi.NoteOnEvent(tick=0, channel=0, data=[92, 45]),
   midi.NoteOnEvent(tick=80, channel=0, data=[92, 0]),
   midi.NoteOnEvent(tick=0, channel=0, data=[104, 45]),
   midi.NoteOnEvent(tick=80, channel=0, data=[104, 0]),
   midi.NoteOnEvent(tick=0, channel=0, data=[106, 69]),
   midi.NoteOnEvent(tick=80, channel=0, data=[106, 0]),
   midi.NoteOnEvent(tick=0, channel=0, data=[94, 46]),
   midi.NoteOnEvent(tick=80, channel=0, data=[94, 0]),
   midi.NoteOnEvent(tick=0, channel=0, data=[106, 40]),
   midi.NoteOnEvent(tick=80, channel=0, data=[106, 0]),
   midi.NoteOnEvent(tick=0, channel=0, data=[94, 57]),
   midi.NoteOnEvent(tick=120, channel=0, data=[94, 0]),
   midi.NoteOnEvent(tick=120, channel=0, data=[104, 68]),
   midi.NoteOnEvent(tick=80, channel=0, data=[104, 0]),
   midi.NoteOnEvent(tick=0, channel=0, data=[92, 45]),
   midi.NoteOnEvent(tick=80, channel=0, data=[92, 0]),
   midi.NoteOnEvent(tick=0, channel=0, data=[104, 45]),
   midi.NoteOnEvent(tick=80, channel=0, data=[104, 0]),
   midi.NoteOnEvent(tick=0, channel=0, data=[106, 71]),
   midi.NoteOnEvent(tick=80, channel=0, data=[106, 0]),
   midi.NoteOnEvent(tick=0, channel=0, data=[94, 46]),
   midi.NoteOnEvent(tick=80, channel=0, data=[94, 0]),
   midi.NoteOnEvent(tick=0, channel=0, data=[106, 46]),
   midi.NoteOnEvent(tick=80, channel=0, data=[106, 0]),
   midi.NoteOnEvent(tick=0, channel=0, data=[94, 57]),
   midi.NoteOnEvent(tick=120, channel=0, data=[94, 0]),
   midi.NoteOnEvent(tick=120, channel=0, data=[61, 54]),
   midi.NoteOnEvent(tick=80, channel=0, data=[61, 0]),
   midi.NoteOnEvent(tick=0, channel=0, data=[60, 57]),
   midi.NoteOnEvent(tick=80, channel=0, data=[60, 0]),
   midi.NoteOnEvent(tick=0, channel=0, data=[59, 58]),
   midi.NoteOnEvent(tick=80, channel=0, data=[59, 0]),
   midi.NoteOnEvent(tick=0, channel=0, data=[58, 56]),
   midi.NoteOnEvent(tick=80, channel=0, data=[58, 0]),
   midi.NoteOnEvent(tick=0, channel=0, data=[59, 47]),
   midi.NoteOnEvent(tick=80, channel=0, data=[59, 0]),
   midi.NoteOnEvent(tick=0, channel=0, data=[57, 48]),
   midi.NoteOnEvent(tick=80, channel=0, data=[57, 0]),
   midi.NoteOnEvent(tick=0, channel=0, data=[58, 55]),
   midi.NoteOnEvent(tick=80, channel=0, data=[58, 0]),
   midi.NoteOnEvent(tick=0, channel=0, data=[63, 50]),
   midi.NoteOnEvent(tick=80, channel=0, data=[63, 0]),
   midi.NoteOnEvent(tick=0, channel=0, data=[61, 52]),
   midi.NoteOnEvent(tick=80, channel=0, data=[61, 0]),
   midi.NoteOnEvent(tick=0, channel=0, data=[62, 59]),
   midi.NoteOnEvent(tick=80, channel=0, data=[62, 0]),
   midi.NoteOnEvent(tick=0, channel=0, data=[63, 49]),
   midi.NoteOnEvent(tick=80, channel=0, data=[63, 0]),
   midi.NoteOnEvent(tick=0, channel=0, data=[66, 50]),
   midi.NoteOnEvent(tick=80, channel=0, data=[66, 0]),
   midi.NoteOnEvent(tick=0, channel=0, data=[67, 60]),
   midi.NoteOnEvent(tick=80, channel=0, data=[67, 0]),
   midi.NoteOnEvent(tick=0, channel=0, data=[70, 51]),
   midi.NoteOnEvent(tick=80, channel=0, data=[70, 0]),
   midi.NoteOnEvent(tick=0, channel=0, data=[68, 52]),
   midi.NoteOnEvent(tick=80, channel=0, data=[68, 0]),
   midi.NoteOnEvent(tick=0, channel=0, data=[71, 64]),
   midi.NoteOnEvent(tick=80, channel=0, data=[71, 0]),
   midi.NoteOnEvent(tick=0, channel=0, data=[74, 53]),
   midi.NoteOnEvent(tick=80, channel=0, data=[74, 0]),
   midi.NoteOnEvent(tick=0, channel=0, data=[75, 53]),
   midi.NoteOnEvent(tick=80, channel=0, data=[75, 0]),
   midi.NoteOnEvent(tick=0, channel=0, data=[78, 63]),
   midi.NoteOnEvent(tick=80, channel=0, data=[78, 0]),
   midi.NoteOnEvent(tick=0, channel=0, data=[75, 55]),
   midi.NoteOnEvent(tick=80, channel=0, data=[75, 0]),
   midi.NoteOnEvent(tick=0, channel=0, data=[74, 55]),
   midi.NoteOnEvent(tick=80, channel=0, data=[74, 0]),
   midi.NoteOnEvent(tick=0, channel=0, data=[77, 66]),
   midi.NoteOnEvent(tick=80, channel=0, data=[77, 0]),
   midi.NoteOnEvent(tick=0, channel=0, data=[74, 53]),
   midi.NoteOnEvent(tick=80, channel=0, data=[74, 0]),
   midi.NoteOnEvent(tick=0, channel=0, data=[73, 53]),
   midi.NoteOnEvent(tick=80, channel=0, data=[73, 0]),
   midi.NoteOnEvent(tick=0, channel=0, data=[76, 65]),
   midi.NoteOnEvent(tick=80, channel=0, data=[76, 0]),
   midi.NoteOnEvent(tick=0, channel=0, data=[73, 53]),
   midi.NoteOnEvent(tick=80, channel=0, data=[73, 0]),
   midi.NoteOnEvent(tick=0, channel=0, data=[72, 53]),
   midi.NoteOnEvent(tick=80, channel=0, data=[72, 0]),
   midi.NoteOnEvent(tick=0, channel=0, data=[75, 66]),
   midi.NoteOnEvent(tick=80, channel=0, data=[75, 0]),
   midi.NoteOnEvent(tick=0, channel=0, data=[70, 57]),
   midi.NoteOnEvent(tick=80, channel=0, data=[70, 0]),
   midi.NoteOnEvent(tick=0, channel=0, data=[71, 57]),
   midi.NoteOnEvent(tick=80, channel=0, data=[71, 0]),
   midi.NoteOnEvent(tick=0, channel=0, data=[74, 67]),
   midi.NoteOnEvent(tick=80, channel=0, data=[74, 0]),
   midi.NoteOnEvent(tick=0, channel=0, data=[75, 58]),
   midi.NoteOnEvent(tick=80, channel=0, data=[75, 0]),
   midi.NoteOnEvent(tick=0, channel=0, data=[78, 59]),
   midi.NoteOnEvent(tick=80, channel=0, data=[78, 0]),
   midi.NoteOnEvent(tick=0, channel=0, data=[79, 73]),
   midi.NoteOnEvent(tick=80, channel=0, data=[79, 0]),
   midi.NoteOnEvent(tick=0, channel=0, data=[82, 60]),
   midi.NoteOnEvent(tick=80, channel=0, data=[82, 0]),
   midi.NoteOnEvent(tick=0, channel=0, data=[80, 61]),
   midi.NoteOnEvent(tick=80, channel=0, data=[80, 0]),
   midi.NoteOnEvent(tick=0, channel=0, data=[83, 70]),
   midi.NoteOnEvent(tick=80, channel=0, data=[83, 0]),
   midi.NoteOnEvent(tick=0, channel=0, data=[80, 63]),
   midi.NoteOnEvent(tick=80, channel=0, data=[80, 0]),
   midi.NoteOnEvent(tick=0, channel=0, data=[79, 63]),
   midi.NoteOnEvent(tick=80, channel=0, data=[79, 0]),
   midi.NoteOnEvent(tick=0, channel=0, data=[82, 79]),
   midi.NoteOnEvent(tick=80, channel=0, data=[82, 0]),
   midi.NoteOnEvent(tick=0, channel=0, data=[79, 70]),
   midi.NoteOnEvent(tick=80, channel=0, data=[79, 0]),
   midi.NoteOnEvent(tick=0, channel=0, data=[78, 66]),
   midi.NoteOnEvent(tick=80, channel=0, data=[78, 0]),
   midi.NoteOnEvent(tick=0, channel=0, data=[81, 78]),
   midi.NoteOnEvent(tick=80, channel=0, data=[81, 0]),
   midi.NoteOnEvent(tick=0, channel=0, data=[78, 67]),
   midi.NoteOnEvent(tick=80, channel=0, data=[78, 0]),
   midi.NoteOnEvent(tick=0, channel=0, data=[77, 67]),
   midi.NoteOnEvent(tick=80, channel=0, data=[77, 0]),
   midi.NoteOnEvent(tick=0, channel=0, data=[80, 78]),
   midi.NoteOnEvent(tick=80, channel=0, data=[80, 0]),
   midi.NoteOnEvent(tick=0, channel=0, data=[75, 69]),
   midi.NoteOnEvent(tick=80, channel=0, data=[75, 0]),
   midi.NoteOnEvent(tick=0, channel=0, data=[76, 69]),
   midi.NoteOnEvent(tick=80, channel=0, data=[76, 0]),
   midi.NoteOnEvent(tick=0, channel=0, data=[79, 70]),
   midi.NoteOnEvent(tick=80, channel=0, data=[79, 0]),
   midi.NoteOnEvent(tick=0, channel=0, data=[80, 63]),
   midi.NoteOnEvent(tick=80, channel=0, data=[80, 0]),
   midi.NoteOnEvent(tick=0, channel=0, data=[83, 63]),
   midi.NoteOnEvent(tick=80, channel=0, data=[83, 0]),
   midi.NoteOnEvent(tick=0, channel=0, data=[84, 71]),
   midi.NoteOnEvent(tick=80, channel=0, data=[84, 0]),
   midi.NoteOnEvent(tick=0, channel=0, data=[87, 63]),
   midi.NoteOnEvent(tick=80, channel=0, data=[87, 0]),
   midi.NoteOnEvent(tick=0, channel=0, data=[85, 64]),
   midi.NoteOnEvent(tick=80, channel=0, data=[85, 0]),
   midi.NoteOnEvent(tick=0, channel=0, data=[88, 73]),
   midi.NoteOnEvent(tick=80, channel=0, data=[88, 0]),
   midi.NoteOnEvent(tick=0, channel=0, data=[85, 66]),
   midi.NoteOnEvent(tick=80, channel=0, data=[85, 0]),
   midi.NoteOnEvent(tick=0, channel=0, data=[84, 66]),
   midi.NoteOnEvent(tick=80, channel=0, data=[84, 0]),
   midi.NoteOnEvent(tick=0, channel=0, data=[87, 74]),
   midi.NoteOnEvent(tick=80, channel=0, data=[87, 0]),
   midi.NoteOnEvent(tick=0, channel=0, data=[84, 68]),
   midi.NoteOnEvent(tick=80, channel=0, data=[84, 0]),
   midi.NoteOnEvent(tick=0, channel=0, data=[83, 68]),
   midi.NoteOnEvent(tick=80, channel=0, data=[83, 0]),
   midi.NoteOnEvent(tick=0, channel=0, data=[86, 76]),
   midi.NoteOnEvent(tick=80, channel=0, data=[86, 0]),
   midi.NoteOnEvent(tick=0, channel=0, data=[82, 70]),
   midi.NoteOnEvent(tick=80, channel=0, data=[82, 0]),
   midi.NoteOnEvent(tick=0, channel=0, data=[86, 70]),
   midi.NoteOnEvent(tick=80, channel=0, data=[86, 0]),
   midi.NoteOnEvent(tick=0, channel=0, data=[78, 73]),
   midi.NoteOnEvent(tick=0, channel=0, data=[90, 87]),
   midi.NoteOnEvent(tick=80, channel=0, data=[90, 0]),
   midi.NoteOnEvent(tick=0, channel=0, data=[78, 0]),
   midi.NoteOnEvent(tick=0, channel=0, data=[87, 70]),
   midi.NoteOnEvent(tick=80, channel=0, data=[87, 0]),
   midi.NoteOnEvent(tick=0, channel=0, data=[86, 72]),
   midi.NoteOnEvent(tick=80, channel=0, data=[86, 0]),
   midi.NoteOnEvent(tick=0, channel=0, data=[77, 78]),
   midi.NoteOnEvent(tick=0, channel=0, data=[89, 92]),
   midi.NoteOnEvent(tick=80, channel=0, data=[89, 0]),
   midi.NoteOnEvent(tick=0, channel=0, data=[77, 0]),
   midi.NoteOnEvent(tick=0, channel=0, data=[86, 72]),
   midi.NoteOnEvent(tick=80, channel=0, data=[86, 0]),
   midi.NoteOnEvent(tick=0, channel=0, data=[85, 72]),
   midi.NoteOnEvent(tick=80, channel=0, data=[85, 0]),
   midi.NoteOnEvent(tick=0, channel=0, data=[76, 80]),
   midi.NoteOnEvent(tick=0, channel=0, data=[88, 95]),
   midi.NoteOnEvent(tick=80, channel=0, data=[88, 0]),
   midi.NoteOnEvent(tick=0, channel=0, data=[76, 0]),
   midi.NoteOnEvent(tick=0, channel=0, data=[85, 73]),
   midi.NoteOnEvent(tick=80, channel=0, data=[85, 0]),
   midi.NoteOnEvent(tick=0, channel=0, data=[84, 74]),
   midi.NoteOnEvent(tick=80, channel=0, data=[84, 0]),
   midi.NoteOnEvent(tick=0, channel=0, data=[75, 82]),
   midi.NoteOnEvent(tick=0, channel=0, data=[87, 97]),
   midi.NoteOnEvent(tick=80, channel=0, data=[87, 0]),
   midi.NoteOnEvent(tick=0, channel=0, data=[75, 0]),
   midi.NoteOnEvent(tick=0, channel=0, data=[83, 75]),
   midi.NoteOnEvent(tick=80, channel=0, data=[83, 0]),
   midi.NoteOnEvent(tick=0, channel=0, data=[82, 76]),
   midi.NoteOnEvent(tick=80, channel=0, data=[82, 0]),
   midi.NoteOnEvent(tick=0, channel=0, data=[76, 95]),
   midi.NoteOnEvent(tick=0, channel=0, data=[88, 104]),
   midi.NoteOnEvent(tick=80, channel=0, data=[85, 68]),
   midi.NoteOnEvent(tick=80, channel=0, data=[85, 0]),
   midi.NoteOnEvent(tick=0, channel=0, data=[84, 69]),
   midi.NoteOnEvent(tick=80, channel=0, data=[84, 0]),
   midi.NoteOnEvent(tick=0, channel=0, data=[83, 71]),
   midi.NoteOnEvent(tick=80, channel=0, data=[83, 0]),
   midi.NoteOnEvent(tick=0, channel=0, data=[82, 70]),
   midi.NoteOnEvent(tick=80, channel=0, data=[82, 0]),
   midi.NoteOnEvent(tick=0, channel=0, data=[81, 72]),
   midi.NoteOnEvent(tick=80, channel=0, data=[81, 0]),
   midi.NoteOnEvent(tick=0, channel=0, data=[80, 72]),
   midi.NoteOnEvent(tick=80, channel=0, data=[80, 0]),
   midi.NoteOnEvent(tick=0, channel=0, data=[79, 72]),
   midi.NoteOnEvent(tick=80, channel=0, data=[79, 0]),
   midi.NoteOnEvent(tick=0, channel=0, data=[78, 69]),
   midi.NoteOnEvent(tick=80, channel=0, data=[78, 0]),
   midi.NoteOnEvent(tick=0, channel=0, data=[88, 0]),
   midi.NoteOnEvent(tick=0, channel=0, data=[76, 0]),
   midi.NoteOnEvent(tick=0, channel=0, data=[77, 90]),
   midi.NoteOnEvent(tick=0, channel=0, data=[89, 104]),
   midi.NoteOnEvent(tick=80, channel=0, data=[83, 81]),
   midi.NoteOnEvent(tick=80, channel=0, data=[83, 0]),
   midi.NoteOnEvent(tick=0, channel=0, data=[88, 81]),
   midi.NoteOnEvent(tick=80, channel=0, data=[88, 0]),
   midi.NoteOnEvent(tick=0, channel=0, data=[89, 94]),
   midi.NoteOnEvent(tick=80, channel=0, data=[89, 0]),
   midi.NoteOnEvent(tick=0, channel=0, data=[95, 87]),
   midi.NoteOnEvent(tick=80, channel=0, data=[95, 0]),
   midi.NoteOnEvent(tick=0, channel=0, data=[100, 91]),
   midi.NoteOnEvent(tick=80, channel=0, data=[100, 0]),
   midi.NoteOnEvent(tick=0, channel=0, data=[101, 96]),
   midi.NoteOnEvent(tick=80, channel=0, data=[101, 0]),
   midi.NoteOnEvent(tick=0, channel=0, data=[95, 89]),
   midi.NoteOnEvent(tick=80, channel=0, data=[95, 0]),
   midi.NoteOnEvent(tick=0, channel=0, data=[89, 81]),
   midi.NoteOnEvent(tick=80, channel=0, data=[89, 0]),
   midi.NoteOnEvent(tick=0, channel=0, data=[89, 0]),
   midi.NoteOnEvent(tick=0, channel=0, data=[77, 0]),
   midi.NoteOnEvent(tick=0, channel=0, data=[74, 95]),
   midi.NoteOnEvent(tick=0, channel=0, data=[86, 104]),
   midi.NoteOnEvent(tick=80, channel=0, data=[83, 68]),
   midi.NoteOnEvent(tick=80, channel=0, data=[83, 0]),
   midi.NoteOnEvent(tick=0, channel=0, data=[82, 68]),
   midi.NoteOnEvent(tick=80, channel=0, data=[82, 0]),
   midi.NoteOnEvent(tick=0, channel=0, data=[81, 68]),
   midi.NoteOnEvent(tick=80, channel=0, data=[81, 0]),
   midi.NoteOnEvent(tick=0, channel=0, data=[80, 70]),
   midi.NoteOnEvent(tick=80, channel=0, data=[80, 0]),
   midi.NoteOnEvent(tick=0, channel=0, data=[79, 70]),
   midi.NoteOnEvent(tick=80, channel=0, data=[79, 0]),
   midi.NoteOnEvent(tick=0, channel=0, data=[78, 70]),
   midi.NoteOnEvent(tick=80, channel=0, data=[78, 0]),
   midi.NoteOnEvent(tick=0, channel=0, data=[77, 70]),
   midi.NoteOnEvent(tick=80, channel=0, data=[77, 0]),
   midi.NoteOnEvent(tick=0, channel=0, data=[76, 76]),
   midi.NoteOnEvent(tick=80, channel=0, data=[76, 0]),
   midi.NoteOnEvent(tick=0, channel=0, data=[86, 0]),
   midi.NoteOnEvent(tick=0, channel=0, data=[74, 0]),
   midi.NoteOnEvent(tick=0, channel=0, data=[75, 90]),
   midi.NoteOnEvent(tick=0, channel=0, data=[87, 104]),
   midi.NoteOnEvent(tick=80, channel=0, data=[78, 81]),
   midi.NoteOnEvent(tick=80, channel=0, data=[78, 0]),
   midi.NoteOnEvent(tick=0, channel=0, data=[83, 81]),
   midi.NoteOnEvent(tick=80, channel=0, data=[83, 0]),
   midi.NoteOnEvent(tick=0, channel=0, data=[84, 93]),
   midi.NoteOnEvent(tick=80, channel=0, data=[84, 0]),
   midi.NoteOnEvent(tick=0, channel=0, data=[90, 85]),
   midi.NoteOnEvent(tick=80, channel=0, data=[90, 0]),
   midi.NoteOnEvent(tick=0, channel=0, data=[95, 101]),
   midi.NoteOnEvent(tick=80, channel=0, data=[95, 0]),
   midi.NoteOnEvent(tick=0, channel=0, data=[96, 103]),
   midi.NoteOnEvent(tick=80, channel=0, data=[96, 0]),
   midi.NoteOnEvent(tick=0, channel=0, data=[90, 89]),
   midi.NoteOnEvent(tick=80, channel=0, data=[90, 0]),
   midi.NoteOnEvent(tick=0, channel=0, data=[84, 81]),
   midi.NoteOnEvent(tick=80, channel=0, data=[84, 0]),
   midi.NoteOnEvent(tick=0, channel=0, data=[87, 0]),
   midi.NoteOnEvent(tick=0, channel=0, data=[75, 0]),
   midi.NoteOnEvent(tick=0, channel=0, data=[82, 70]),
   midi.NoteOnEvent(tick=0, channel=0, data=[70, 70]),
   midi.NoteOnEvent(tick=80, channel=0, data=[70, 0]),
   midi.NoteOnEvent(tick=0, channel=0, data=[78, 65]),
   midi.NoteOnEvent(tick=80, channel=0, data=[78, 0]),
   midi.NoteOnEvent(tick=0, channel=0, data=[70, 64]),
   midi.NoteOnEvent(tick=80, channel=0, data=[70, 0]),
   midi.NoteOnEvent(tick=80, channel=0, data=[69, 60]),
   midi.NoteOnEvent(tick=80, channel=0, data=[69, 0]),
   midi.NoteOnEvent(tick=0, channel=0, data=[70, 58]),
   midi.NoteOnEvent(tick=80, channel=0, data=[70, 0]),
   midi.NoteOnEvent(tick=0, channel=0, data=[82, 0]),
   midi.NoteOnEvent(tick=0, channel=0, data=[71, 64]),
   midi.NoteOnEvent(tick=80, channel=0, data=[76, 58]),
   midi.NoteOnEvent(tick=80, channel=0, data=[76, 0]),
   midi.NoteOnEvent(tick=0, channel=0, data=[83, 58]),
   midi.NoteOnEvent(tick=80, channel=0, data=[83, 0]),
   midi.NoteOnEvent(tick=0, channel=0, data=[71, 0]),
   midi.NoteOnEvent(tick=0, channel=0, data=[79, 62]),
   midi.NoteOnEvent(tick=80, channel=0, data=[76, 56]),
   midi.NoteOnEvent(tick=80, channel=0, data=[76, 0]),
   midi.NoteOnEvent(tick=0, channel=0, data=[67, 55]),
   midi.NoteOnEvent(tick=80, channel=0, data=[67, 0]),
   midi.NoteOnEvent(tick=80, channel=0, data=[66, 51]),
   midi.NoteOnEvent(tick=80, channel=0, data=[66, 0]),
   midi.NoteOnEvent(tick=0, channel=0, data=[67, 50]),
   midi.NoteOnEvent(tick=80, channel=0, data=[67, 0]),
   midi.NoteOnEvent(tick=0, channel=0, data=[79, 0]),
   midi.NoteOnEvent(tick=0, channel=0, data=[68, 55]),
   midi.NoteOnEvent(tick=80, channel=0, data=[75, 50]),
   midi.NoteOnEvent(tick=80, channel=0, data=[75, 0]),
   midi.NoteOnEvent(tick=0, channel=0, data=[80, 49]),
   midi.NoteOnEvent(tick=80, channel=0, data=[80, 0]),
   midi.NoteOnEvent(tick=0, channel=0, data=[68, 0]),
   midi.NoteOnEvent(tick=80, channel=0, data=[66, 41]),
   midi.NoteOnEvent(tick=80, channel=0, data=[66, 0]),
   midi.NoteOnEvent(tick=0, channel=0, data=[68, 41]),
   midi.NoteOnEvent(tick=80, channel=0, data=[68, 0]),
   midi.NoteOnEvent(tick=0, channel=0, data=[69, 45]),
   midi.NoteOnEvent(tick=80, channel=0, data=[69, 0]),
   midi.NoteOnEvent(tick=0, channel=0, data=[70, 42]),
   midi.NoteOnEvent(tick=80, channel=0, data=[70, 0]),
   midi.NoteOnEvent(tick=0, channel=0, data=[71, 42]),
   midi.NoteOnEvent(tick=80, channel=0, data=[71, 0]),
   midi.NoteOnEvent(tick=0, channel=0, data=[75, 55]),
   midi.NoteOnEvent(tick=80, channel=0, data=[73, 45]),
   midi.NoteOnEvent(tick=40, channel=0, data=[75, 0]),
   midi.NoteOnEvent(tick=40, channel=0, data=[73, 0]),
   midi.NoteOnEvent(tick=0, channel=0, data=[74, 45]),
   midi.NoteOnEvent(tick=80, channel=0, data=[74, 0]),
   midi.NoteOnEvent(tick=0, channel=0, data=[75, 45]),
   midi.NoteOnEvent(tick=0, channel=0, data=[77, 63]),
   midi.NoteOnEvent(tick=80, channel=0, data=[75, 0]),
   midi.NoteOnEvent(tick=0, channel=0, data=[69, 45]),
   midi.NoteOnEvent(tick=40, channel=0, data=[77, 0]),
   midi.NoteOnEvent(tick=40, channel=0, data=[69, 0]),
   midi.NoteOnEvent(tick=0, channel=0, data=[70, 45]),
   midi.NoteOnEvent(tick=80, channel=0, data=[70, 0]),
   midi.NoteOnEvent(tick=0, channel=0, data=[71, 45]),
   midi.NoteOnEvent(tick=80, channel=0, data=[71, 0]),
   midi.NoteOnEvent(tick=0, channel=0, data=[72, 42]),
   midi.NoteOnEvent(tick=80, channel=0, data=[72, 0]),
   midi.NoteOnEvent(tick=0, channel=0, data=[73, 42]),
   midi.NoteOnEvent(tick=80, channel=0, data=[73, 0]),
   midi.NoteOnEvent(tick=0, channel=0, data=[79, 55]),
   midi.NoteOnEvent(tick=80, channel=0, data=[73, 41]),
   midi.NoteOnEvent(tick=40, channel=0, data=[79, 0]),
   midi.NoteOnEvent(tick=40, channel=0, data=[73, 0]),
   midi.NoteOnEvent(tick=0, channel=0, data=[74, 41]),
   midi.NoteOnEvent(tick=80, channel=0, data=[74, 0]),
   midi.NoteOnEvent(tick=0, channel=0, data=[75, 45]),
   midi.NoteOnEvent(tick=0, channel=0, data=[80, 64]),
   midi.NoteOnEvent(tick=80, channel=0, data=[75, 0]),
   midi.NoteOnEvent(tick=0, channel=0, data=[71, 45]),
   midi.NoteOnEvent(tick=40, channel=0, data=[80, 0]),
   midi.NoteOnEvent(tick=40, channel=0, data=[71, 0]),
   midi.NoteOnEvent(tick=0, channel=0, data=[73, 45]),
   midi.NoteOnEvent(tick=80, channel=0, data=[73, 0]),
   midi.NoteOnEvent(tick=0, channel=0, data=[75, 45]),
   midi.NoteOnEvent(tick=80, channel=0, data=[75, 0]),
   midi.NoteOnEvent(tick=0, channel=0, data=[76, 42]),
   midi.NoteOnEvent(tick=80, channel=0, data=[76, 0]),
   midi.NoteOnEvent(tick=0, channel=0, data=[77, 42]),
   midi.NoteOnEvent(tick=80, channel=0, data=[77, 0]),
   midi.NoteOnEvent(tick=0, channel=0, data=[78, 45]),
   midi.NoteOnEvent(tick=0, channel=0, data=[81, 55]),
   midi.NoteOnEvent(tick=80, channel=0, data=[78, 0]),
   midi.NoteOnEvent(tick=0, channel=0, data=[77, 42]),
   midi.NoteOnEvent(tick=10, channel=0, data=[81, 0]),
   midi.NoteOnEvent(tick=70, channel=0, data=[77, 0]),
   midi.NoteOnEvent(tick=0, channel=0, data=[78, 42]),
   midi.NoteOnEvent(tick=80, channel=0, data=[82, 61]),
   midi.NoteOnEvent(tick=80, channel=0, data=[78, 0]),
   midi.NoteOnEvent(tick=0, channel=0, data=[77, 42]),
   midi.NoteOnEvent(tick=10, channel=0, data=[82, 0]),
   midi.NoteOnEvent(tick=70, channel=0, data=[77, 0]),
   midi.NoteOnEvent(tick=0, channel=0, data=[78, 41]),
   midi.NoteOnEvent(tick=80, channel=0, data=[78, 0]),
   midi.NoteOnEvent(tick=0, channel=0, data=[79, 45]),
   midi.NoteOnEvent(tick=0, channel=0, data=[84, 58]),
   midi.NoteOnEvent(tick=80, channel=0, data=[79, 0]),
   midi.NoteOnEvent(tick=0, channel=0, data=[80, 42]),
   midi.NoteOnEvent(tick=10, channel=0, data=[84, 0]),
   midi.NoteOnEvent(tick=70, channel=0, data=[80, 0]),
   midi.NoteOnEvent(tick=0, channel=0, data=[81, 42]),
   midi.NoteOnEvent(tick=80, channel=0, data=[81, 0]),
   midi.NoteOnEvent(tick=0, channel=0, data=[82, 45]),
   midi.NoteOnEvent(tick=0, channel=0, data=[86, 60]),
   midi.NoteOnEvent(tick=80, channel=0, data=[82, 0]),
   midi.NoteOnEvent(tick=0, channel=0, data=[80, 40]),
   midi.NoteOnEvent(tick=10, channel=0, data=[86, 0]),
   midi.NoteOnEvent(tick=70, channel=0, data=[80, 0]),
   midi.NoteOnEvent(tick=0, channel=0, data=[78, 40]),
   midi.NoteOnEvent(tick=80, channel=0, data=[87, 66]),
   midi.NoteOnEvent(tick=160, channel=0, data=[82, 44]),
   midi.NoteOnEvent(tick=80, channel=0, data=[82, 0]),
   midi.NoteOnEvent(tick=0, channel=0, data=[87, 0]),
   midi.NoteOnEvent(tick=0, channel=0, data=[78, 0]),
   midi.NoteOnEvent(tick=0, channel=0, data=[87, 53]),
   midi.NoteOnEvent(tick=80, channel=0, data=[87, 0]),
   midi.NoteOnEvent(tick=0, channel=0, data=[90, 44]),
   midi.NoteOnEvent(tick=80, channel=0, data=[90, 0]),
   midi.NoteOnEvent(tick=0, channel=0, data=[94, 44]),
   midi.NoteOnEvent(tick=80, channel=0, data=[94, 0]),
   midi.NoteOnEvent(tick=0, channel=0, data=[99, 53]),
   midi.NoteOnEvent(tick=80, channel=0, data=[99, 0]),
   midi.NoteOnEvent(tick=0, channel=0, data=[91, 44]),
   midi.NoteOnEvent(tick=80, channel=0, data=[91, 0]),
   midi.NoteOnEvent(tick=0, channel=0, data=[90, 44]),
   midi.NoteOnEvent(tick=80, channel=0, data=[90, 0]),
   midi.NoteOnEvent(tick=0, channel=0, data=[98, 52]),
   midi.NoteOnEvent(tick=80, channel=0, data=[98, 0]),
   midi.NoteOnEvent(tick=0, channel=0, data=[90, 45]),
   midi.NoteOnEvent(tick=80, channel=0, data=[90, 0]),
   midi.NoteOnEvent(tick=0, channel=0, data=[89, 45]),
   midi.NoteOnEvent(tick=80, channel=0, data=[89, 0]),
   midi.NoteOnEvent(tick=0, channel=0, data=[97, 54]),
   midi.NoteOnEvent(tick=80, channel=0, data=[97, 0]),
   midi.NoteOnEvent(tick=0, channel=0, data=[89, 45]),
   midi.NoteOnEvent(tick=80, channel=0, data=[89, 0]),
   midi.NoteOnEvent(tick=0, channel=0, data=[88, 46]),
   midi.NoteOnEvent(tick=80, channel=0, data=[88, 0]),
   midi.NoteOnEvent(tick=0, channel=0, data=[96, 53]),
   midi.NoteOnEvent(tick=80, channel=0, data=[96, 0]),
   midi.NoteOnEvent(tick=0, channel=0, data=[88, 46]),
   midi.NoteOnEvent(tick=80, channel=0, data=[88, 0]),
   midi.NoteOnEvent(tick=0, channel=0, data=[87, 46]),
   midi.NoteOnEvent(tick=80, channel=0, data=[87, 0]),
   midi.NoteOnEvent(tick=0, channel=0, data=[78, 54]),
   midi.NoteOnEvent(tick=80, channel=0, data=[78, 0]),
   midi.NoteOnEvent(tick=0, channel=0, data=[81, 47]),
   midi.NoteOnEvent(tick=80, channel=0, data=[81, 0]),
   midi.NoteOnEvent(tick=0, channel=0, data=[82, 47]),
   midi.NoteOnEvent(tick=80, channel=0, data=[82, 0]),
   midi.NoteOnEvent(tick=0, channel=0, data=[86, 57]),
   midi.NoteOnEvent(tick=80, channel=0, data=[86, 0]),
   midi.NoteOnEvent(tick=0, channel=0, data=[87, 47]),
   midi.NoteOnEvent(tick=80, channel=0, data=[87, 0]),
   midi.NoteOnEvent(tick=0, channel=0, data=[90, 47]),
   midi.NoteOnEvent(tick=80, channel=0, data=[90, 0]),
   midi.NoteOnEvent(tick=0, channel=0, data=[94, 58]),
   midi.NoteOnEvent(tick=80, channel=0, data=[94, 0]),
   midi.NoteOnEvent(tick=0, channel=0, data=[86, 48]),
   midi.NoteOnEvent(tick=80, channel=0, data=[86, 0]),
   midi.NoteOnEvent(tick=0, channel=0, data=[85, 48]),
   midi.NoteOnEvent(tick=80, channel=0, data=[85, 0]),
   midi.NoteOnEvent(tick=0, channel=0, data=[93, 59]),
   midi.NoteOnEvent(tick=80, channel=0, data=[93, 0]),
   midi.NoteOnEvent(tick=0, channel=0, data=[85, 49]),
   midi.NoteOnEvent(tick=80, channel=0, data=[85, 0]),
   midi.NoteOnEvent(tick=0, channel=0, data=[84, 49]),
   midi.NoteOnEvent(tick=80, channel=0, data=[84, 0]),
   midi.NoteOnEvent(tick=0, channel=0, data=[92, 61]),
   midi.NoteOnEvent(tick=80, channel=0, data=[92, 0]),
   midi.NoteOnEvent(tick=0, channel=0, data=[84, 49]),
   midi.NoteOnEvent(tick=80, channel=0, data=[84, 0]),
   midi.NoteOnEvent(tick=0, channel=0, data=[83, 50]),
   midi.NoteOnEvent(tick=80, channel=0, data=[83, 0]),
   midi.NoteOnEvent(tick=0, channel=0, data=[91, 60]),
   midi.NoteOnEvent(tick=80, channel=0, data=[91, 0]),
   midi.NoteOnEvent(tick=0, channel=0, data=[83, 50]),
   midi.NoteOnEvent(tick=80, channel=0, data=[83, 0]),
   midi.NoteOnEvent(tick=0, channel=0, data=[82, 50]),
   midi.NoteOnEvent(tick=80, channel=0, data=[82, 0]),
   midi.NoteOnEvent(tick=0, channel=0, data=[72, 61]),
   midi.NoteOnEvent(tick=80, channel=0, data=[72, 0]),
   midi.NoteOnEvent(tick=0, channel=0, data=[75, 54]),
   midi.NoteOnEvent(tick=80, channel=0, data=[75, 0]),
   midi.NoteOnEvent(tick=0, channel=0, data=[78, 56]),
   midi.NoteOnEvent(tick=80, channel=0, data=[78, 0]),
   midi.NoteOnEvent(tick=0, channel=0, data=[80, 62]),
   midi.NoteOnEvent(tick=80, channel=0, data=[80, 0]),
   midi.NoteOnEvent(tick=0, channel=0, data=[81, 51]),
   midi.NoteOnEvent(tick=80, channel=0, data=[81, 0]),
   midi.NoteOnEvent(tick=0, channel=0, data=[84, 51]),
   midi.NoteOnEvent(tick=80, channel=0, data=[84, 0]),
   midi.NoteOnEvent(tick=0, channel=0, data=[87, 62]),
   midi.NoteOnEvent(tick=80, channel=0, data=[87, 0]),
   midi.NoteOnEvent(tick=0, channel=0, data=[79, 52]),
   midi.NoteOnEvent(tick=80, channel=0, data=[79, 0]),
   midi.NoteOnEvent(tick=0, channel=0, data=[78, 52]),
   midi.NoteOnEvent(tick=80, channel=0, data=[78, 0]),
   midi.NoteOnEvent(tick=0, channel=0, data=[86, 61]),
   midi.NoteOnEvent(tick=80, channel=0, data=[86, 0]),
   midi.NoteOnEvent(tick=0, channel=0, data=[78, 52]),
   midi.NoteOnEvent(tick=80, channel=0, data=[78, 0]),
   midi.NoteOnEvent(tick=0, channel=0, data=[77, 53]),
   midi.NoteOnEvent(tick=80, channel=0, data=[77, 0]),
   midi.NoteOnEvent(tick=0, channel=0, data=[85, 62]),
   midi.NoteOnEvent(tick=80, channel=0, data=[85, 0]),
   midi.NoteOnEvent(tick=0, channel=0, data=[77, 53]),
   midi.NoteOnEvent(tick=80, channel=0, data=[77, 0]),
   midi.NoteOnEvent(tick=0, channel=0, data=[76, 53]),
   midi.NoteOnEvent(tick=80, channel=0, data=[76, 0]),
   midi.NoteOnEvent(tick=0, channel=0, data=[84, 62]),
   midi.NoteOnEvent(tick=80, channel=0, data=[84, 0]),
   midi.NoteOnEvent(tick=0, channel=0, data=[76, 54]),
   midi.NoteOnEvent(tick=80, channel=0, data=[76, 0]),
   midi.NoteOnEvent(tick=0, channel=0, data=[75, 54]),
   midi.NoteOnEvent(tick=80, channel=0, data=[75, 0]),
   midi.NoteOnEvent(tick=0, channel=0, data=[66, 78]),
   midi.NoteOnEvent(tick=80, channel=0, data=[66, 0]),
   midi.NoteOnEvent(tick=0, channel=0, data=[69, 54]),
   midi.NoteOnEvent(tick=80, channel=0, data=[69, 0]),
   midi.NoteOnEvent(tick=0, channel=0, data=[70, 54]),
   midi.NoteOnEvent(tick=80, channel=0, data=[70, 0]),
   midi.NoteOnEvent(tick=0, channel=0, data=[74, 64]),
   midi.NoteOnEvent(tick=80, channel=0, data=[74, 0]),
   midi.NoteOnEvent(tick=0, channel=0, data=[75, 52]),
   midi.NoteOnEvent(tick=80, channel=0, data=[75, 0]),
   midi.NoteOnEvent(tick=0, channel=0, data=[78, 51]),
   midi.NoteOnEvent(tick=80, channel=0, data=[78, 0]),
   midi.NoteOnEvent(tick=0, channel=0, data=[82, 62]),
   midi.NoteOnEvent(tick=80, channel=0, data=[82, 0]),
   midi.NoteOnEvent(tick=0, channel=0, data=[74, 51]),
   midi.NoteOnEvent(tick=80, channel=0, data=[74, 0]),
   midi.NoteOnEvent(tick=0, channel=0, data=[73, 50]),
   midi.NoteOnEvent(tick=80, channel=0, data=[73, 0]),
   midi.NoteOnEvent(tick=0, channel=0, data=[81, 61]),
   midi.NoteOnEvent(tick=80, channel=0, data=[81, 0]),
   midi.NoteOnEvent(tick=0, channel=0, data=[73, 48]),
   midi.NoteOnEvent(tick=80, channel=0, data=[73, 0]),
   midi.NoteOnEvent(tick=0, channel=0, data=[72, 48]),
   midi.NoteOnEvent(tick=80, channel=0, data=[72, 0]),
   midi.NoteOnEvent(tick=0, channel=0, data=[80, 58]),
   midi.NoteOnEvent(tick=80, channel=0, data=[80, 0]),
   midi.NoteOnEvent(tick=0, channel=0, data=[72, 47]),
   midi.NoteOnEvent(tick=80, channel=0, data=[72, 0]),
   midi.NoteOnEvent(tick=0, channel=0, data=[71, 46]),
   midi.NoteOnEvent(tick=80, channel=0, data=[71, 0]),
   midi.NoteOnEvent(tick=0, channel=0, data=[79, 55]),
   midi.NoteOnEvent(tick=80, channel=0, data=[79, 0]),
   midi.NoteOnEvent(tick=0, channel=0, data=[71, 45]),
   midi.NoteOnEvent(tick=80, channel=0, data=[71, 0]),
   midi.NoteOnEvent(tick=0, channel=0, data=[70, 44]),
   midi.NoteOnEvent(tick=80, channel=0, data=[70, 0]),
   midi.NoteOnEvent(tick=0, channel=0, data=[78, 55]),
   midi.NoteOnEvent(tick=80, channel=0, data=[78, 0]),
   midi.NoteOnEvent(tick=0, channel=0, data=[70, 51]),
   midi.NoteOnEvent(tick=80, channel=0, data=[70, 0]),
   midi.NoteOnEvent(tick=0, channel=0, data=[75, 51]),
   midi.NoteOnEvent(tick=80, channel=0, data=[75, 0]),
   midi.NoteOnEvent(tick=0, channel=0, data=[83, 49]),
   midi.NoteOnEvent(tick=80, channel=0, data=[83, 0]),
   midi.NoteOnEvent(tick=0, channel=0, data=[79, 43]),
   midi.NoteOnEvent(tick=80, channel=0, data=[79, 0]),
   midi.NoteOnEvent(tick=0, channel=0, data=[74, 43]),
   midi.NoteOnEvent(tick=80, channel=0, data=[74, 0]),
   midi.NoteOnEvent(tick=0, channel=0, data=[82, 49]),
   midi.NoteOnEvent(tick=80, channel=0, data=[82, 0]),
   midi.NoteOnEvent(tick=0, channel=0, data=[78, 42]),
   midi.NoteOnEvent(tick=80, channel=0, data=[78, 0]),
   midi.NoteOnEvent(tick=0, channel=0, data=[73, 42]),
   midi.NoteOnEvent(tick=80, channel=0, data=[73, 0]),
   midi.NoteOnEvent(tick=0, channel=0, data=[81, 49]),
   midi.NoteOnEvent(tick=80, channel=0, data=[81, 0]),
   midi.NoteOnEvent(tick=0, channel=0, data=[77, 43]),
   midi.NoteOnEvent(tick=80, channel=0, data=[77, 0]),
   midi.NoteOnEvent(tick=0, channel=0, data=[72, 43]),
   midi.NoteOnEvent(tick=80, channel=0, data=[72, 0]),
   midi.NoteOnEvent(tick=0, channel=0, data=[80, 49]),
   midi.NoteOnEvent(tick=80, channel=0, data=[80, 0]),
   midi.NoteOnEvent(tick=0, channel=0, data=[76, 42]),
   midi.NoteOnEvent(tick=80, channel=0, data=[76, 0]),
   midi.NoteOnEvent(tick=0, channel=0, data=[71, 42]),
   midi.NoteOnEvent(tick=80, channel=0, data=[71, 0]),
   midi.NoteOnEvent(tick=0, channel=0, data=[79, 49]),
   midi.NoteOnEvent(tick=80, channel=0, data=[79, 0]),
   midi.NoteOnEvent(tick=0, channel=0, data=[71, 43]),
   midi.NoteOnEvent(tick=80, channel=0, data=[71, 0]),
   midi.NoteOnEvent(tick=0, channel=0, data=[69, 43]),
   midi.NoteOnEvent(tick=80, channel=0, data=[69, 0]),
   midi.NoteOnEvent(tick=0, channel=0, data=[78, 49]),
   midi.NoteOnEvent(tick=80, channel=0, data=[78, 0]),
   midi.NoteOnEvent(tick=0, channel=0, data=[73, 42]),
   midi.NoteOnEvent(tick=80, channel=0, data=[73, 0]),
   midi.NoteOnEvent(tick=0, channel=0, data=[66, 42]),
   midi.NoteOnEvent(tick=80, channel=0, data=[66, 0]),
   midi.NoteOnEvent(tick=0, channel=0, data=[71, 49]),
   midi.NoteOnEvent(tick=80, channel=0, data=[71, 0]),
   midi.NoteOnEvent(tick=0, channel=0, data=[67, 44]),
   midi.NoteOnEvent(tick=80, channel=0, data=[67, 0]),
   midi.NoteOnEvent(tick=0, channel=0, data=[62, 44]),
   midi.NoteOnEvent(tick=80, channel=0, data=[62, 0]),
   midi.NoteOnEvent(tick=0, channel=0, data=[70, 49]),
   midi.NoteOnEvent(tick=80, channel=0, data=[70, 0]),
   midi.NoteOnEvent(tick=0, channel=0, data=[66, 42]),
   midi.NoteOnEvent(tick=80, channel=0, data=[66, 0]),
   midi.NoteOnEvent(tick=0, channel=0, data=[61, 42]),
   midi.NoteOnEvent(tick=80, channel=0, data=[61, 0]),
   midi.NoteOnEvent(tick=0, channel=0, data=[69, 49]),
   midi.NoteOnEvent(tick=80, channel=0, data=[69, 0]),
   midi.NoteOnEvent(tick=0, channel=0, data=[65, 40]),
   midi.NoteOnEvent(tick=80, channel=0, data=[65, 0]),
   midi.NoteOnEvent(tick=0, channel=0, data=[60, 40]),
   midi.NoteOnEvent(tick=80, channel=0, data=[60, 0]),
   midi.NoteOnEvent(tick=0, channel=0, data=[68, 50]),
   midi.NoteOnEvent(tick=80, channel=0, data=[68, 0]),
   midi.NoteOnEvent(tick=0, channel=0, data=[64, 44]),
   midi.NoteOnEvent(tick=80, channel=0, data=[64, 0]),
   midi.NoteOnEvent(tick=0, channel=0, data=[59, 44]),
   midi.NoteOnEvent(tick=80, channel=0, data=[59, 0]),
   midi.NoteOnEvent(tick=0, channel=0, data=[67, 50]),
   midi.NoteOnEvent(tick=80, channel=0, data=[67, 0]),
   midi.NoteOnEvent(tick=0, channel=0, data=[59, 43]),
   midi.NoteOnEvent(tick=80, channel=0, data=[59, 0]),
   midi.NoteOnEvent(tick=0, channel=0, data=[57, 43]),
   midi.NoteOnEvent(tick=80, channel=0, data=[57, 0]),
   midi.NoteOnEvent(tick=0, channel=0, data=[66, 50]),
   midi.NoteOnEvent(tick=80, channel=0, data=[66, 0]),
   midi.NoteOnEvent(tick=0, channel=0, data=[58, 42]),
   midi.NoteOnEvent(tick=80, channel=0, data=[58, 0]),
   midi.NoteOnEvent(tick=320, channel=0, data=[66, 42]),
   midi.NoteOnEvent(tick=80, channel=0, data=[66, 0]),
   midi.NoteOnEvent(tick=0, channel=0, data=[65, 38]),
   midi.NoteOnEvent(tick=80, channel=0, data=[65, 0]),
   midi.NoteOnEvent(tick=0, channel=0, data=[70, 38]),
   midi.NoteOnEvent(tick=80, channel=0, data=[70, 0]),
   midi.NoteOnEvent(tick=0, channel=0, data=[58, 42]),
   midi.NoteOnEvent(tick=0, channel=0, data=[66, 42]),
   midi.NoteOnEvent(tick=0, channel=0, data=[63, 42]),
   midi.NoteOnEvent(tick=80, channel=0, data=[63, 0]),
   midi.NoteOnEvent(tick=0, channel=0, data=[66, 0]),
   midi.NoteOnEvent(tick=0, channel=0, data=[58, 0]),
   midi.NoteOnEvent(tick=0, channel=0, data=[68, 37]),
   midi.NoteOnEvent(tick=80, channel=0, data=[68, 0]),
   midi.NoteOnEvent(tick=0, channel=0, data=[69, 38]),
   midi.NoteOnEvent(tick=80, channel=0, data=[69, 0]),
   midi.NoteOnEvent(tick=0, channel=0, data=[70, 42]),
   midi.NoteOnEvent(tick=80, channel=0, data=[70, 0]),
   midi.NoteOnEvent(tick=0, channel=0, data=[74, 39]),
   midi.NoteOnEvent(tick=80, channel=0, data=[74, 0]),
   midi.NoteOnEvent(tick=0, channel=0, data=[75, 39]),
   midi.NoteOnEvent(tick=80, channel=0, data=[75, 0]),
   midi.NoteOnEvent(tick=0, channel=0, data=[78, 42]),
   midi.NoteOnEvent(tick=80, channel=0, data=[78, 0]),
   midi.NoteOnEvent(tick=0, channel=0, data=[77, 40]),
   midi.NoteOnEvent(tick=80, channel=0, data=[77, 0]),
   midi.NoteOnEvent(tick=0, channel=0, data=[82, 40]),
   midi.NoteOnEvent(tick=80, channel=0, data=[82, 0]),
   midi.NoteOnEvent(tick=0, channel=0, data=[70, 42]),
   midi.NoteOnEvent(tick=0, channel=0, data=[75, 42]),
   midi.NoteOnEvent(tick=0, channel=0, data=[78, 42]),
   midi.NoteOnEvent(tick=80, channel=0, data=[78, 0]),
   midi.NoteOnEvent(tick=0, channel=0, data=[75, 0]),
   midi.NoteOnEvent(tick=0, channel=0, data=[70, 0]),
   midi.NoteOnEvent(tick=0, channel=0, data=[80, 38]),
   midi.NoteOnEvent(tick=80, channel=0, data=[80, 0]),
   midi.NoteOnEvent(tick=0, channel=0, data=[81, 38]),
   midi.NoteOnEvent(tick=80, channel=0, data=[81, 0]),
   midi.NoteOnEvent(tick=0, channel=0, data=[82, 42]),
   midi.NoteOnEvent(tick=80, channel=0, data=[82, 0]),
   midi.NoteOnEvent(tick=0, channel=0, data=[86, 38]),
   midi.NoteOnEvent(tick=80, channel=0, data=[86, 0]),
   midi.NoteOnEvent(tick=0, channel=0, data=[87, 38]),
   midi.NoteOnEvent(tick=80, channel=0, data=[87, 0]),
   midi.NoteOnEvent(tick=0, channel=0, data=[90, 42]),
   midi.NoteOnEvent(tick=80, channel=0, data=[90, 0]),
   midi.NoteOnEvent(tick=0, channel=0, data=[89, 40]),
   midi.NoteOnEvent(tick=80, channel=0, data=[89, 0]),
   midi.NoteOnEvent(tick=0, channel=0, data=[94, 40]),
   midi.NoteOnEvent(tick=80, channel=0, data=[94, 0]),
   midi.NoteOnEvent(tick=0, channel=0, data=[90, 42]),
   midi.NoteOnEvent(tick=80, channel=0, data=[90, 0]),
   midi.NoteOnEvent(tick=0, channel=0, data=[91, 44]),
   midi.NoteOnEvent(tick=80, channel=0, data=[91, 0]),
   midi.NoteOnEvent(tick=0, channel=0, data=[92, 47]),
   midi.NoteOnEvent(tick=80, channel=0, data=[92, 0]),
   midi.NoteOnEvent(tick=0, channel=0, data=[93, 48]),
   midi.NoteOnEvent(tick=80, channel=0, data=[93, 0]),
   midi.NoteOnEvent(tick=0, channel=0, data=[94, 50]),
   midi.NoteOnEvent(tick=80, channel=0, data=[94, 0]),
   midi.NoteOnEvent(tick=0, channel=0, data=[95, 53]),
   midi.NoteOnEvent(tick=80, channel=0, data=[95, 0]),
   midi.NoteOnEvent(tick=0, channel=0, data=[96, 54]),
   midi.NoteOnEvent(tick=80, channel=0, data=[96, 0]),
   midi.NoteOnEvent(tick=0, channel=0, data=[97, 55]),
   midi.NoteOnEvent(tick=80, channel=0, data=[97, 0]),
   midi.NoteOnEvent(tick=0, channel=0, data=[98, 56]),
   midi.NoteOnEvent(tick=80, channel=0, data=[98, 0]),
   midi.NoteOnEvent(tick=0, channel=0, data=[99, 65]),
   midi.NoteOnEvent(tick=240, channel=0, data=[99, 0]),
   midi.NoteOnEvent(tick=0, channel=0, data=[90, 57]),
   midi.NoteOnEvent(tick=0, channel=0, data=[87, 57]),
   midi.NoteOnEvent(tick=120, channel=0, data=[87, 0]),
   midi.NoteOnEvent(tick=0, channel=0, data=[90, 0]),
   midi.NoteOnEvent(tick=120, channel=0, data=[78, 53]),
   midi.NoteOnEvent(tick=0, channel=0, data=[75, 53]),
   midi.NoteOnEvent(tick=120, channel=0, data=[75, 0]),
   midi.NoteOnEvent(tick=0, channel=0, data=[78, 0]),
   midi.NoteOnEvent(tick=1560, channel=0, data=[46, 54]),
   midi.NoteOnEvent(tick=80, channel=0, data=[46, 0]),
   midi.NoteOnEvent(tick=0, channel=0, data=[47, 48]),
   midi.NoteOnEvent(tick=80, channel=0, data=[47, 0]),
   midi.NoteOnEvent(tick=0, channel=0, data=[45, 46]),
   midi.NoteOnEvent(tick=80, channel=0, data=[45, 0]),
   midi.NoteOnEvent(tick=0, channel=0, data=[46, 54]),
   midi.NoteOnEvent(tick=240, channel=0, data=[46, 0]),
   midi.NoteOnEvent(tick=240, channel=0, data=[46, 46]),
   midi.NoteOnEvent(tick=80, channel=0, data=[46, 0]),
   midi.NoteOnEvent(tick=0, channel=0, data=[47, 40]),
   midi.NoteOnEvent(tick=80, channel=0, data=[47, 0]),
   midi.NoteOnEvent(tick=0, channel=0, data=[45, 41]),
   midi.NoteOnEvent(tick=80, channel=0, data=[45, 0]),
   midi.NoteOnEvent(tick=0, channel=0, data=[46, 47]),
   midi.NoteOnEvent(tick=240, channel=0, data=[46, 0]),
   midi.NoteOnEvent(tick=720, channel=0, data=[46, 34]),
   midi.NoteOnEvent(tick=80, channel=0, data=[47, 32]),
   midi.NoteOnEvent(tick=16, channel=0, data=[46, 0]),
   midi.NoteOnEvent(tick=64, channel=0, data=[45, 31]),
   midi.NoteOnEvent(tick=16, channel=0, data=[47, 0]),
   midi.NoteOnEvent(tick=64, channel=0, data=[46, 35]),
   midi.NoteOnEvent(tick=16, channel=0, data=[45, 0]),
   midi.NoteOnEvent(tick=64, channel=0, data=[47, 31]),
   midi.NoteOnEvent(tick=16, channel=0, data=[46, 0]),
   midi.NoteOnEvent(tick=64, channel=0, data=[45, 31]),
   midi.NoteOnEvent(tick=16, channel=0, data=[47, 0]),
   midi.NoteOnEvent(tick=64, channel=0, data=[46, 41]),
   midi.NoteOnEvent(tick=16, channel=0, data=[45, 0]),
   midi.NoteOnEvent(tick=224, channel=0, data=[46, 0]),
   midi.NoteOnEvent(tick=960, channel=0, data=[46, 32]),
   midi.NoteOnEvent(tick=1440, channel=0, data=[46, 0]),
   midi.EndOfTrackEvent(tick=0, data=[])]),
 midi.Track(\
[    midi.NoteOnEvent(tick=720, channel=0, data=[72, 34]),
   midi.NoteOnEvent(tick=0, channel=0, data=[69, 28]),
   midi.NoteOnEvent(tick=720, channel=0, data=[69, 0]),
   midi.NoteOnEvent(tick=0, channel=0, data=[72, 0]),
   midi.NoteOnEvent(tick=720, channel=0, data=[54, 28]),
   midi.NoteOnEvent(tick=0, channel=0, data=[51, 23]),
   midi.NoteOnEvent(tick=2160, channel=0, data=[51, 0]),
   midi.NoteOnEvent(tick=0, channel=0, data=[54, 0]),
   midi.NoteOnEvent(tick=1440, channel=0, data=[78, 89]),
   midi.NoteOnEvent(tick=0, channel=0, data=[66, 89]),
   midi.NoteOnEvent(tick=1440, channel=0, data=[66, 0]),
   midi.NoteOnEvent(tick=0, channel=0, data=[78, 0]),
   midi.NoteOnEvent(tick=0, channel=0, data=[54, 85]),
   midi.NoteOnEvent(tick=0, channel=0, data=[66, 93]),
   midi.NoteOnEvent(tick=960, channel=0, data=[66, 0]),
   midi.NoteOnEvent(tick=0, channel=0, data=[54, 0]),
   midi.NoteOnEvent(tick=0, channel=0, data=[34, 71]),
   midi.NoteOnEvent(tick=0, channel=0, data=[46, 78]),
   midi.NoteOnEvent(tick=1920, channel=0, data=[46, 0]),
   midi.NoteOnEvent(tick=0, channel=0, data=[34, 0]),
   midi.NoteOnEvent(tick=1440, channel=0, data=[90, 100]),
   midi.NoteOnEvent(tick=60, channel=0, data=[90, 0]),
   midi.NoteOnEvent(tick=180, channel=0, data=[78, 87]),
   midi.NoteOnEvent(tick=60, channel=0, data=[78, 0]),
   midi.NoteOnEvent(tick=180, channel=0, data=[72, 85]),
   midi.NoteOnEvent(tick=60, channel=0, data=[72, 0]),
   midi.NoteOnEvent(tick=180, channel=0, data=[78, 98]),
   midi.NoteOnEvent(tick=60, channel=0, data=[78, 0]),
   midi.NoteOnEvent(tick=180, channel=0, data=[63, 81]),
   midi.NoteOnEvent(tick=60, channel=0, data=[63, 0]),
   midi.NoteOnEvent(tick=420, channel=0, data=[66, 92]),
   midi.NoteOnEvent(tick=0, channel=0, data=[54, 92]),
   midi.NoteOnEvent(tick=240, channel=0, data=[54, 0]),
   midi.NoteOnEvent(tick=0, channel=0, data=[66, 0]),
   midi.NoteOnEvent(tick=0, channel=0, data=[57, 74]),
   midi.NoteOnEvent(tick=0, channel=0, data=[45, 74]),
   midi.NoteOnEvent(tick=240, channel=0, data=[45, 0]),
   midi.NoteOnEvent(tick=0, channel=0, data=[57, 0]),
   midi.NoteOnEvent(tick=240, channel=0, data=[37, 86]),
   midi.NoteOnEvent(tick=0, channel=0, data=[49, 86]),
   midi.NoteOnEvent(tick=240, channel=0, data=[49, 0]),
   midi.NoteOnEvent(tick=0, channel=0, data=[37, 0]),
   midi.NoteOnEvent(tick=0, channel=0, data=[42, 70]),
   midi.NoteOnEvent(tick=0, channel=0, data=[30, 70]),
   midi.NoteOnEvent(tick=240, channel=0, data=[30, 0]),
   midi.NoteOnEvent(tick=0, channel=0, data=[42, 0]),
   midi.NoteOnEvent(tick=480, channel=0, data=[61, 64]),
   midi.NoteOnEvent(tick=0, channel=0, data=[66, 64]),
   midi.NoteOnEvent(tick=0, channel=0, data=[73, 64]),
   midi.NoteOnEvent(tick=720, channel=0, data=[73, 0]),
   midi.NoteOnEvent(tick=0, channel=0, data=[66, 0]),
   midi.NoteOnEvent(tick=0, channel=0, data=[61, 0]),
   midi.NoteOnEvent(tick=960, channel=0, data=[89, 45]),
   midi.NoteOnEvent(tick=0, channel=0, data=[86, 45]),
   midi.NoteOnEvent(tick=240, channel=0, data=[86, 0]),
   midi.NoteOnEvent(tick=0, channel=0, data=[89, 0]),
   midi.NoteOnEvent(tick=0, channel=0, data=[87, 41]),
   midi.NoteOnEvent(tick=0, channel=0, data=[94, 41]),
   midi.NoteOnEvent(tick=240, channel=0, data=[94, 0]),
   midi.NoteOnEvent(tick=0, channel=0, data=[87, 0]),
   midi.NoteOnEvent(tick=0, channel=0, data=[89, 45]),
   midi.NoteOnEvent(tick=0, channel=0, data=[86, 45]),
   midi.NoteOnEvent(tick=240, channel=0, data=[86, 0]),
   midi.NoteOnEvent(tick=0, channel=0, data=[89, 0]),
   midi.NoteOnEvent(tick=0, channel=0, data=[87, 40]),
   midi.NoteOnEvent(tick=0, channel=0, data=[94, 40]),
   midi.NoteOnEvent(tick=240, channel=0, data=[94, 0]),
   midi.NoteOnEvent(tick=0, channel=0, data=[87, 0]),
   midi.NoteOnEvent(tick=0, channel=0, data=[89, 45]),
   midi.NoteOnEvent(tick=0, channel=0, data=[86, 45]),
   midi.NoteOnEvent(tick=240, channel=0, data=[86, 0]),
   midi.NoteOnEvent(tick=0, channel=0, data=[89, 0]),
   midi.NoteOnEvent(tick=0, channel=0, data=[22, 85]),
   midi.NoteOnEvent(tick=0, channel=0, data=[34, 85]),
   midi.NoteOnEvent(tick=480, channel=0, data=[34, 0]),
   midi.NoteOnEvent(tick=0, channel=0, data=[22, 0]),
   midi.NoteOnEvent(tick=0, channel=0, data=[35, 86]),
   midi.NoteOnEvent(tick=0, channel=0, data=[47, 86]),
   midi.NoteOnEvent(tick=960, channel=0, data=[47, 0]),
   midi.NoteOnEvent(tick=0, channel=0, data=[35, 0]),
   midi.NoteOnEvent(tick=0, channel=0, data=[37, 85]),
   midi.NoteOnEvent(tick=0, channel=0, data=[49, 85]),
   midi.NoteOnEvent(tick=480, channel=0, data=[49, 0]),
   midi.NoteOnEvent(tick=0, channel=0, data=[37, 0]),
   midi.NoteOnEvent(tick=0, channel=0, data=[50, 90]),
   midi.NoteOnEvent(tick=0, channel=0, data=[62, 90]),
   midi.NoteOnEvent(tick=720, channel=0, data=[62, 0]),
   midi.NoteOnEvent(tick=0, channel=0, data=[50, 0]),
   midi.NoteOnEvent(tick=0, channel=0, data=[63, 87]),
   midi.NoteOnEvent(tick=0, channel=0, data=[51, 87]),
   midi.NoteOnEvent(tick=120, channel=0, data=[51, 0]),
   midi.NoteOnEvent(tick=0, channel=0, data=[63, 0]),
   midi.NoteOnEvent(tick=120, channel=0, data=[79, 36]),
   midi.NoteOnEvent(tick=0, channel=0, data=[82, 43]),
   midi.NoteOnEvent(tick=0, channel=0, data=[75, 36]),
   midi.NoteOnEvent(tick=0, channel=0, data=[70, 36]),
   midi.NoteOnEvent(tick=120, channel=0, data=[70, 0]),
   midi.NoteOnEvent(tick=0, channel=0, data=[79, 0]),
   midi.NoteOnEvent(tick=0, channel=0, data=[82, 0]),
   midi.NoteOnEvent(tick=0, channel=0, data=[75, 0]),
   midi.NoteOnEvent(tick=120, channel=0, data=[71, 28]),
   midi.NoteOnEvent(tick=0, channel=0, data=[76, 28]),
   midi.NoteOnEvent(tick=0, channel=0, data=[80, 28]),
   midi.NoteOnEvent(tick=0, channel=0, data=[83, 34]),
   midi.NoteOnEvent(tick=120, channel=0, data=[83, 0]),
   midi.NoteOnEvent(tick=0, channel=0, data=[71, 0]),
   midi.NoteOnEvent(tick=0, channel=0, data=[76, 0]),
   midi.NoteOnEvent(tick=0, channel=0, data=[80, 0]),
   midi.NoteOnEvent(tick=120, channel=0, data=[63, 30]),
   midi.NoteOnEvent(tick=120, channel=0, data=[63, 0]),
   midi.NoteOnEvent(tick=120, channel=0, data=[80, 45]),
   midi.NoteOnEvent(tick=0, channel=0, data=[76, 38]),
   midi.NoteOnEvent(tick=0, channel=0, data=[73, 38]),
   midi.NoteOnEvent(tick=0, channel=0, data=[68, 38]),
   midi.NoteOnEvent(tick=120, channel=0, data=[68, 0]),
   midi.NoteOnEvent(tick=0, channel=0, data=[80, 0]),
   midi.NoteOnEvent(tick=0, channel=0, data=[76, 0]),
   midi.NoteOnEvent(tick=0, channel=0, data=[73, 0]),
   midi.NoteOnEvent(tick=120, channel=0, data=[70, 28]),
   midi.NoteOnEvent(tick=0, channel=0, data=[75, 28]),
   midi.NoteOnEvent(tick=0, channel=0, data=[78, 28]),
   midi.NoteOnEvent(tick=0, channel=0, data=[82, 34]),
   midi.NoteOnEvent(tick=120, channel=0, data=[82, 0]),
   midi.NoteOnEvent(tick=0, channel=0, data=[70, 0]),
   midi.NoteOnEvent(tick=0, channel=0, data=[75, 0]),
   midi.NoteOnEvent(tick=0, channel=0, data=[78, 0]),
   midi.NoteOnEvent(tick=120, channel=0, data=[63, 30]),
   midi.NoteOnEvent(tick=120, channel=0, data=[63, 0]),
   midi.NoteOnEvent(tick=120, channel=0, data=[78, 45]),
   midi.NoteOnEvent(tick=0, channel=0, data=[75, 38]),
   midi.NoteOnEvent(tick=0, channel=0, data=[71, 38]),
   midi.NoteOnEvent(tick=0, channel=0, data=[66, 38]),
   midi.NoteOnEvent(tick=120, channel=0, data=[66, 0]),
   midi.NoteOnEvent(tick=0, channel=0, data=[78, 0]),
   midi.NoteOnEvent(tick=0, channel=0, data=[75, 0]),
   midi.NoteOnEvent(tick=0, channel=0, data=[71, 0]),
   midi.NoteOnEvent(tick=120, channel=0, data=[68, 28]),
   midi.NoteOnEvent(tick=0, channel=0, data=[73, 28]),
   midi.NoteOnEvent(tick=0, channel=0, data=[76, 28]),
   midi.NoteOnEvent(tick=0, channel=0, data=[80, 34]),
   midi.NoteOnEvent(tick=120, channel=0, data=[80, 0]),
   midi.NoteOnEvent(tick=0, channel=0, data=[68, 0]),
   midi.NoteOnEvent(tick=0, channel=0, data=[73, 0]),
   midi.NoteOnEvent(tick=0, channel=0, data=[76, 0]),
   midi.NoteOnEvent(tick=120, channel=0, data=[63, 33]),
   midi.NoteOnEvent(tick=120, channel=0, data=[63, 0]),
   midi.NoteOnEvent(tick=120, channel=0, data=[64, 39]),
   midi.NoteOnEvent(tick=0, channel=0, data=[68, 33]),
   midi.NoteOnEvent(tick=0, channel=0, data=[71, 33]),
   midi.NoteOnEvent(tick=0, channel=0, data=[76, 39]),
   midi.NoteOnEvent(tick=120, channel=0, data=[76, 0]),
   midi.NoteOnEvent(tick=0, channel=0, data=[64, 0]),
   midi.NoteOnEvent(tick=0, channel=0, data=[68, 0]),
   midi.NoteOnEvent(tick=0, channel=0, data=[71, 0]),
   midi.NoteOnEvent(tick=120, channel=0, data=[78, 34]),
   midi.NoteOnEvent(tick=0, channel=0, data=[75, 23]),
   midi.NoteOnEvent(tick=0, channel=0, data=[70, 23]),
   midi.NoteOnEvent(tick=0, channel=0, data=[66, 23]),
   midi.NoteOnEvent(tick=120, channel=0, data=[66, 0]),
   midi.NoteOnEvent(tick=0, channel=0, data=[78, 0]),
   midi.NoteOnEvent(tick=0, channel=0, data=[75, 0]),
   midi.NoteOnEvent(tick=0, channel=0, data=[70, 0]),
   midi.NoteOnEvent(tick=360, channel=0, data=[54, 85]),
   midi.NoteOnEvent(tick=240, channel=0, data=[54, 0]),
   midi.NoteOnEvent(tick=0, channel=0, data=[47, 77]),
   midi.NoteOnEvent(tick=240, channel=0, data=[47, 0]),
   midi.NoteOnEvent(tick=0, channel=0, data=[38, 86]),
   midi.NoteOnEvent(tick=240, channel=0, data=[38, 0]),
   midi.NoteOnEvent(tick=0, channel=0, data=[42, 76]),
   midi.NoteOnEvent(tick=240, channel=0, data=[42, 0]),
   midi.NoteOnEvent(tick=0, channel=0, data=[33, 89]),
   midi.NoteOnEvent(tick=240, channel=0, data=[33, 0]),
   midi.NoteOnEvent(tick=0, channel=0, data=[27, 80]),
   midi.NoteOnEvent(tick=0, channel=0, data=[39, 80]),
   midi.NoteOnEvent(tick=240, channel=0, data=[45, 94]),
   midi.NoteOnEvent(tick=0, channel=0, data=[57, 94]),
   midi.NoteOnEvent(tick=480, channel=0, data=[57, 0]),
   midi.NoteOnEvent(tick=0, channel=0, data=[45, 0]),
   midi.NoteOnEvent(tick=0, channel=0, data=[54, 97]),
   midi.NoteOnEvent(tick=0, channel=0, data=[66, 97]),
   midi.NoteOnEvent(tick=480, channel=0, data=[66, 0]),
   midi.NoteOnEvent(tick=0, channel=0, data=[66, 66]),
   midi.NoteOnEvent(tick=80, channel=0, data=[66, 0]),
   midi.NoteOnEvent(tick=0, channel=0, data=[58, 60]),
   midi.NoteOnEvent(tick=80, channel=0, data=[58, 0]),
   midi.NoteOnEvent(tick=0, channel=0, data=[51, 60]),
   midi.NoteOnEvent(tick=80, channel=0, data=[27, 0]),
   midi.NoteOnEvent(tick=0, channel=0, data=[54, 0]),
   midi.NoteOnEvent(tick=0, channel=0, data=[39, 0]),
   midi.NoteOnEvent(tick=0, channel=0, data=[59, 64]),
   midi.NoteOnEvent(tick=240, channel=0, data=[59, 0]),
   midi.NoteOnEvent(tick=0, channel=0, data=[60, 64]),
   midi.NoteOnEvent(tick=240, channel=0, data=[60, 0]),
   midi.NoteOnEvent(tick=0, channel=0, data=[61, 60]),
   midi.NoteOnEvent(tick=240, channel=0, data=[61, 0]),
   midi.NoteOnEvent(tick=0, channel=0, data=[62, 60]),
   midi.NoteOnEvent(tick=240, channel=0, data=[62, 0]),
   midi.NoteOnEvent(tick=0, channel=0, data=[51, 0]),
   midi.NoteOnEvent(tick=0, channel=0, data=[59, 62]),
   midi.NoteOnEvent(tick=0, channel=0, data=[63, 52]),
   midi.NoteOnEvent(tick=80, channel=0, data=[63, 0]),
   midi.NoteOnEvent(tick=0, channel=0, data=[65, 48]),
   midi.NoteOnEvent(tick=80, channel=0, data=[65, 0]),
   midi.NoteOnEvent(tick=0, channel=0, data=[67, 49]),
   midi.NoteOnEvent(tick=80, channel=0, data=[67, 0]),
   midi.NoteOnEvent(tick=0, channel=0, data=[68, 55]),
   midi.NoteOnEvent(tick=80, channel=0, data=[68, 0]),
   midi.NoteOnEvent(tick=0, channel=0, data=[70, 49]),
   midi.NoteOnEvent(tick=80, channel=0, data=[70, 0]),
   midi.NoteOnEvent(tick=0, channel=0, data=[71, 49]),
   midi.NoteOnEvent(tick=80, channel=0, data=[71, 0]),
   midi.NoteOnEvent(tick=0, channel=0, data=[56, 62]),
   midi.NoteOnEvent(tick=0, channel=0, data=[51, 62]),
   midi.NoteOnEvent(tick=240, channel=0, data=[56, 0]),
   midi.NoteOnEvent(tick=0, channel=0, data=[58, 58]),
   midi.NoteOnEvent(tick=240, channel=0, data=[58, 0]),
   midi.NoteOnEvent(tick=0, channel=0, data=[59, 0]),
   midi.NoteOnEvent(tick=0, channel=0, data=[59, 55]),
   midi.NoteOnEvent(tick=240, channel=0, data=[59, 0]),
   midi.NoteOnEvent(tick=0, channel=0, data=[62, 52]),
   midi.NoteOnEvent(tick=240, channel=0, data=[62, 0]),
   midi.NoteOnEvent(tick=0, channel=0, data=[51, 0]),
   midi.NoteOnEvent(tick=0, channel=0, data=[59, 49]),
   midi.NoteOnEvent(tick=0, channel=0, data=[63, 49]),
   midi.NoteOnEvent(tick=80, channel=0, data=[63, 0]),
   midi.NoteOnEvent(tick=0, channel=0, data=[64, 48]),
   midi.NoteOnEvent(tick=80, channel=0, data=[64, 0]),
   midi.NoteOnEvent(tick=0, channel=0, data=[65, 47]),
   midi.NoteOnEvent(tick=80, channel=0, data=[65, 0]),
   midi.NoteOnEvent(tick=0, channel=0, data=[66, 46]),
   midi.NoteOnEvent(tick=80, channel=0, data=[66, 0]),
   midi.NoteOnEvent(tick=0, channel=0, data=[68, 45]),
   midi.NoteOnEvent(tick=80, channel=0, data=[68, 0]),
   midi.NoteOnEvent(tick=0, channel=0, data=[69, 44]),
   midi.NoteOnEvent(tick=80, channel=0, data=[69, 0]),
   midi.NoteOnEvent(tick=0, channel=0, data=[59, 0]),
   midi.NoteOnEvent(tick=0, channel=0, data=[58, 39]),
   midi.NoteOnEvent(tick=0, channel=0, data=[63, 39]),
   midi.NoteOnEvent(tick=0, channel=0, data=[66, 46]),
   midi.NoteOnEvent(tick=240, channel=0, data=[66, 0]),
   midi.NoteOnEvent(tick=0, channel=0, data=[63, 0]),
   midi.NoteOnEvent(tick=0, channel=0, data=[58, 0]),
   midi.NoteOnEvent(tick=240, channel=0, data=[72, 45]),
   midi.NoteOnEvent(tick=0, channel=0, data=[67, 38]),
   midi.NoteOnEvent(tick=0, channel=0, data=[63, 38]),
   midi.NoteOnEvent(tick=120, channel=0, data=[63, 0]),
   midi.NoteOnEvent(tick=0, channel=0, data=[67, 0]),
   midi.NoteOnEvent(tick=0, channel=0, data=[72, 0]),
   midi.NoteOnEvent(tick=120, channel=0, data=[71, 45]),
   midi.NoteOnEvent(tick=0, channel=0, data=[68, 38]),
   midi.NoteOnEvent(tick=0, channel=0, data=[63, 38]),
   midi.NoteOnEvent(tick=0, channel=0, data=[58, 38]),
   midi.NoteOnEvent(tick=120, channel=0, data=[58, 0]),
   midi.NoteOnEvent(tick=0, channel=0, data=[71, 0]),
   midi.NoteOnEvent(tick=0, channel=0, data=[68, 0]),
   midi.NoteOnEvent(tick=0, channel=0, data=[63, 0]),
   midi.NoteOnEvent(tick=360, channel=0, data=[72, 45]),
   midi.NoteOnEvent(tick=0, channel=0, data=[67, 38]),
   midi.NoteOnEvent(tick=0, channel=0, data=[64, 38]),
   midi.NoteOnEvent(tick=120, channel=0, data=[64, 0]),
   midi.NoteOnEvent(tick=0, channel=0, data=[67, 0]),
   midi.NoteOnEvent(tick=0, channel=0, data=[72, 0]),
   midi.NoteOnEvent(tick=120, channel=0, data=[71, 47]),
   midi.NoteOnEvent(tick=0, channel=0, data=[68, 39]),
   midi.NoteOnEvent(tick=0, channel=0, data=[63, 39]),
   midi.NoteOnEvent(tick=0, channel=0, data=[58, 39]),
   midi.NoteOnEvent(tick=120, channel=0, data=[58, 0]),
   midi.NoteOnEvent(tick=0, channel=0, data=[71, 0]),
   midi.NoteOnEvent(tick=0, channel=0, data=[68, 0]),
   midi.NoteOnEvent(tick=0, channel=0, data=[63, 0]),
   midi.NoteOnEvent(tick=360, channel=0, data=[63, 34]),
   midi.NoteOnEvent(tick=0, channel=0, data=[69, 34]),
   midi.NoteOnEvent(tick=0, channel=0, data=[72, 41]),
   midi.NoteOnEvent(tick=90, channel=0, data=[72, 0]),
   midi.NoteOnEvent(tick=0, channel=0, data=[69, 0]),
   midi.NoteOnEvent(tick=0, channel=0, data=[63, 0]),
   midi.NoteOnEvent(tick=150, channel=0, data=[58, 39]),
   midi.NoteOnEvent(tick=0, channel=0, data=[63, 39]),
   midi.NoteOnEvent(tick=0, channel=0, data=[67, 39]),
   midi.NoteOnEvent(tick=0, channel=0, data=[70, 46]),
   midi.NoteOnEvent(tick=90, channel=0, data=[70, 0]),
   midi.NoteOnEvent(tick=0, channel=0, data=[58, 0]),
   midi.NoteOnEvent(tick=0, channel=0, data=[63, 0]),
   midi.NoteOnEvent(tick=0, channel=0, data=[67, 0]),
   midi.NoteOnEvent(tick=150, channel=0, data=[63, 36]),
   midi.NoteOnEvent(tick=0, channel=0, data=[69, 36]),
   midi.NoteOnEvent(tick=0, channel=0, data=[72, 43]),
   midi.NoteOnEvent(tick=90, channel=0, data=[72, 0]),
   midi.NoteOnEvent(tick=0, channel=0, data=[69, 0]),
   midi.NoteOnEvent(tick=0, channel=0, data=[63, 0]),
   midi.NoteOnEvent(tick=150, channel=0, data=[58, 39]),
   midi.NoteOnEvent(tick=0, channel=0, data=[62, 39]),
   midi.NoteOnEvent(tick=0, channel=0, data=[70, 46]),
   midi.NoteOnEvent(tick=90, channel=0, data=[70, 0]),
   midi.NoteOnEvent(tick=0, channel=0, data=[62, 0]),
   midi.NoteOnEvent(tick=0, channel=0, data=[58, 0]),
   midi.NoteOnEvent(tick=150, channel=0, data=[75, 52]),
   midi.NoteOnEvent(tick=0, channel=0, data=[70, 44]),
   midi.NoteOnEvent(tick=0, channel=0, data=[63, 44]),
   midi.NoteOnEvent(tick=240, channel=0, data=[63, 0]),
   midi.NoteOnEvent(tick=0, channel=0, data=[70, 0]),
   midi.NoteOnEvent(tick=0, channel=0, data=[75, 0]),
   midi.NoteOnEvent(tick=0, channel=0, data=[87, 49]),
   midi.NoteOnEvent(tick=60, channel=0, data=[87, 0]),
   midi.NoteOnEvent(tick=60, channel=0, data=[75, 41]),
   midi.NoteOnEvent(tick=60, channel=0, data=[75, 0]),
   midi.NoteOnEvent(tick=60, channel=0, data=[87, 49]),
   midi.NoteOnEvent(tick=60, channel=0, data=[87, 0]),
   midi.NoteOnEvent(tick=60, channel=0, data=[75, 42]),
   midi.NoteOnEvent(tick=60, channel=0, data=[75, 0]),
   midi.NoteOnEvent(tick=60, channel=0, data=[87, 49]),
   midi.NoteOnEvent(tick=60, channel=0, data=[87, 0]),
   midi.NoteOnEvent(tick=60, channel=0, data=[75, 41]),
   midi.NoteOnEvent(tick=60, channel=0, data=[75, 0]),
   midi.NoteOnEvent(tick=60, channel=0, data=[87, 49]),
   midi.NoteOnEvent(tick=60, channel=0, data=[87, 0]),
   midi.NoteOnEvent(tick=60, channel=0, data=[75, 40]),
   midi.NoteOnEvent(tick=60, channel=0, data=[75, 0]),
   midi.NoteOnEvent(tick=60, channel=0, data=[87, 49]),
   midi.NoteOnEvent(tick=60, channel=0, data=[87, 0]),
   midi.NoteOnEvent(tick=60, channel=0, data=[75, 42]),
   midi.NoteOnEvent(tick=60, channel=0, data=[75, 0]),
   midi.NoteOnEvent(tick=60, channel=0, data=[87, 49]),
   midi.NoteOnEvent(tick=60, channel=0, data=[87, 0]),
   midi.NoteOnEvent(tick=60, channel=0, data=[75, 41]),
   midi.NoteOnEvent(tick=60, channel=0, data=[75, 0]),
   midi.NoteOnEvent(tick=60, channel=0, data=[75, 49]),
   midi.NoteOnEvent(tick=60, channel=0, data=[75, 0]),
   midi.NoteOnEvent(tick=60, channel=0, data=[63, 40]),
   midi.NoteOnEvent(tick=60, channel=0, data=[63, 0]),
   midi.NoteOnEvent(tick=60, channel=0, data=[75, 49]),
   midi.NoteOnEvent(tick=60, channel=0, data=[75, 0]),
   midi.NoteOnEvent(tick=60, channel=0, data=[63, 42]),
   midi.NoteOnEvent(tick=60, channel=0, data=[63, 0]),
   midi.NoteOnEvent(tick=60, channel=0, data=[75, 49]),
   midi.NoteOnEvent(tick=60, channel=0, data=[75, 0]),
   midi.NoteOnEvent(tick=60, channel=0, data=[63, 42]),
   midi.NoteOnEvent(tick=60, channel=0, data=[63, 0]),
   midi.NoteOnEvent(tick=60, channel=0, data=[75, 49]),
   midi.NoteOnEvent(tick=60, channel=0, data=[75, 0]),
   midi.NoteOnEvent(tick=60, channel=0, data=[63, 44]),
   midi.NoteOnEvent(tick=60, channel=0, data=[63, 0]),
   midi.NoteOnEvent(tick=60, channel=0, data=[75, 49]),
   midi.NoteOnEvent(tick=60, channel=0, data=[75, 0]),
   midi.NoteOnEvent(tick=60, channel=0, data=[63, 43]),
   midi.NoteOnEvent(tick=60, channel=0, data=[63, 0]),
   midi.NoteOnEvent(tick=60, channel=0, data=[75, 49]),
   midi.NoteOnEvent(tick=60, channel=0, data=[75, 0]),
   midi.NoteOnEvent(tick=60, channel=0, data=[63, 41]),
   midi.NoteOnEvent(tick=60, channel=0, data=[63, 0]),
   midi.NoteOnEvent(tick=300, channel=0, data=[75, 48]),
   midi.NoteOnEvent(tick=60, channel=0, data=[75, 0]),
   midi.NoteOnEvent(tick=60, channel=0, data=[63, 43]),
   midi.NoteOnEvent(tick=60, channel=0, data=[63, 0]),
   midi.NoteOnEvent(tick=60, channel=0, data=[75, 48]),
   midi.NoteOnEvent(tick=60, channel=0, data=[75, 0]),
   midi.NoteOnEvent(tick=60, channel=0, data=[63, 41]),
   midi.NoteOnEvent(tick=60, channel=0, data=[63, 0]),
   midi.NoteOnEvent(tick=300, channel=0, data=[75, 49]),
   midi.NoteOnEvent(tick=60, channel=0, data=[75, 0]),
   midi.NoteOnEvent(tick=60, channel=0, data=[63, 42]),
   midi.NoteOnEvent(tick=60, channel=0, data=[63, 0]),
   midi.NoteOnEvent(tick=60, channel=0, data=[75, 49]),
   midi.NoteOnEvent(tick=60, channel=0, data=[75, 0]),
   midi.NoteOnEvent(tick=60, channel=0, data=[63, 42]),
   midi.NoteOnEvent(tick=60, channel=0, data=[63, 0]),
   midi.NoteOnEvent(tick=60, channel=0, data=[39, 67]),
   midi.NoteOnEvent(tick=0, channel=0, data=[51, 80]),
   midi.NoteOnEvent(tick=240, channel=0, data=[51, 0]),
   midi.NoteOnEvent(tick=0, channel=0, data=[39, 0]),
   midi.NoteOnEvent(tick=0, channel=0, data=[47, 73]),
   midi.NoteOnEvent(tick=0, channel=0, data=[35, 62]),
   midi.NoteOnEvent(tick=240, channel=0, data=[35, 0]),
   midi.NoteOnEvent(tick=0, channel=0, data=[47, 0]),
   midi.NoteOnEvent(tick=0, channel=0, data=[32, 67]),
   midi.NoteOnEvent(tick=0, channel=0, data=[44, 80]),
   midi.NoteOnEvent(tick=240, channel=0, data=[44, 0]),
   midi.NoteOnEvent(tick=0, channel=0, data=[32, 0]),
   midi.NoteOnEvent(tick=0, channel=0, data=[41, 79]),
   midi.NoteOnEvent(tick=0, channel=0, data=[29, 66]),
   midi.NoteOnEvent(tick=120, channel=0, data=[29, 0]),
   midi.NoteOnEvent(tick=0, channel=0, data=[41, 0]),
   midi.NoteOnEvent(tick=0, channel=0, data=[39, 82]),
   midi.NoteOnEvent(tick=0, channel=0, data=[27, 70]),
   midi.NoteOnEvent(tick=120, channel=0, data=[27, 0]),
   midi.NoteOnEvent(tick=0, channel=0, data=[39, 0]),
   midi.NoteOnEvent(tick=0, channel=0, data=[38, 88]),
   midi.NoteOnEvent(tick=0, channel=0, data=[26, 74]),
   midi.NoteOnEvent(tick=120, channel=0, data=[26, 0]),
   midi.NoteOnEvent(tick=0, channel=0, data=[38, 0]),
   midi.NoteOnEvent(tick=0, channel=0, data=[36, 90]),
   midi.NoteOnEvent(tick=0, channel=0, data=[24, 77]),
   midi.NoteOnEvent(tick=120, channel=0, data=[24, 0]),
   midi.NoteOnEvent(tick=0, channel=0, data=[36, 0]),
   midi.NoteOnEvent(tick=0, channel=0, data=[34, 95]),
   midi.NoteOnEvent(tick=0, channel=0, data=[22, 80]),
   midi.NoteOnEvent(tick=720, channel=0, data=[22, 0]),
   midi.NoteOnEvent(tick=0, channel=0, data=[34, 0]),
   midi.NoteOnEvent(tick=0, channel=0, data=[44, 73]),
   midi.NoteOnEvent(tick=0, channel=0, data=[35, 49]),
   midi.NoteOnEvent(tick=0, channel=0, data=[39, 49]),
   midi.NoteOnEvent(tick=0, channel=0, data=[47, 62]),
   midi.NoteOnEvent(tick=240, channel=0, data=[44, 0]),
   midi.NoteOnEvent(tick=0, channel=0, data=[43, 69]),
   midi.NoteOnEvent(tick=240, channel=0, data=[43, 0]),
   midi.NoteOnEvent(tick=0, channel=0, data=[42, 62]),
   midi.NoteOnEvent(tick=240, channel=0, data=[42, 0]),
   midi.NoteOnEvent(tick=0, channel=0, data=[35, 0]),
   midi.NoteOnEvent(tick=0, channel=0, data=[39, 0]),
   midi.NoteOnEvent(tick=0, channel=0, data=[47, 0]),
   midi.NoteOnEvent(tick=0, channel=0, data=[25, 87]),
   midi.NoteOnEvent(tick=0, channel=0, data=[37, 95]),
   midi.NoteOnEvent(tick=720, channel=0, data=[37, 0]),
   midi.NoteOnEvent(tick=0, channel=0, data=[25, 0]),
   midi.NoteOnEvent(tick=0, channel=0, data=[47, 73]),
   midi.NoteOnEvent(tick=0, channel=0, data=[38, 62]),
   midi.NoteOnEvent(tick=0, channel=0, data=[42, 62]),
   midi.NoteOnEvent(tick=0, channel=0, data=[50, 62]),
   midi.NoteOnEvent(tick=240, channel=0, data=[47, 0]),
   midi.NoteOnEvent(tick=0, channel=0, data=[45, 69]),
   midi.NoteOnEvent(tick=240, channel=0, data=[45, 0]),
   midi.NoteOnEvent(tick=0, channel=0, data=[44, 62]),
   midi.NoteOnEvent(tick=240, channel=0, data=[44, 0]),
   midi.NoteOnEvent(tick=0, channel=0, data=[38, 0]),
   midi.NoteOnEvent(tick=0, channel=0, data=[42, 0]),
   midi.NoteOnEvent(tick=0, channel=0, data=[50, 0]),
   midi.NoteOnEvent(tick=0, channel=0, data=[43, 76]),
   midi.NoteOnEvent(tick=0, channel=0, data=[39, 76]),
   midi.NoteOnEvent(tick=0, channel=0, data=[51, 83]),
   midi.NoteOnEvent(tick=480, channel=0, data=[55, 68]),
   midi.NoteOnEvent(tick=0, channel=0, data=[51, 62]),
   midi.NoteOnEvent(tick=0, channel=0, data=[63, 87]),
   midi.NoteOnEvent(tick=240, channel=0, data=[63, 0]),
   midi.NoteOnEvent(tick=0, channel=0, data=[39, 0]),
   midi.NoteOnEvent(tick=0, channel=0, data=[51, 0]),
   midi.NoteOnEvent(tick=0, channel=0, data=[43, 0]),
   midi.NoteOnEvent(tick=0, channel=0, data=[51, 0]),
   midi.NoteOnEvent(tick=0, channel=0, data=[55, 0]),
   midi.NoteOnEvent(tick=0, channel=0, data=[52, 52]),
   midi.NoteOnEvent(tick=0, channel=0, data=[61, 72]),
   midi.NoteOnEvent(tick=0, channel=0, data=[64, 92]),
   midi.NoteOnEvent(tick=0, channel=0, data=[56, 55]),
   midi.NoteOnEvent(tick=240, channel=0, data=[56, 0]),
   midi.NoteOnEvent(tick=0, channel=0, data=[57, 62]),
   midi.NoteOnEvent(tick=240, channel=0, data=[57, 0]),
   midi.NoteOnEvent(tick=0, channel=0, data=[58, 62]),
   midi.NoteOnEvent(tick=240, channel=0, data=[58, 0]),
   midi.NoteOnEvent(tick=0, channel=0, data=[52, 0]),
   midi.NoteOnEvent(tick=0, channel=0, data=[61, 0]),
   midi.NoteOnEvent(tick=0, channel=0, data=[64, 0]),
   midi.NoteOnEvent(tick=0, channel=0, data=[53, 76]),
   midi.NoteOnEvent(tick=0, channel=0, data=[57, 76]),
   midi.NoteOnEvent(tick=0, channel=0, data=[63, 76]),
   midi.NoteOnEvent(tick=0, channel=0, data=[60, 76]),
   midi.NoteOnEvent(tick=0, channel=0, data=[65, 83]),
   midi.NoteOnEvent(tick=480, channel=0, data=[65, 0]),
   midi.NoteOnEvent(tick=0, channel=0, data=[63, 0]),
   midi.NoteOnEvent(tick=0, channel=0, data=[53, 0]),
   midi.NoteOnEvent(tick=0, channel=0, data=[57, 0]),
   midi.NoteOnEvent(tick=0, channel=0, data=[60, 0]),
   midi.NoteOnEvent(tick=0, channel=0, data=[65, 62]),
   midi.NoteOnEvent(tick=0, channel=0, data=[69, 62]),
   midi.NoteOnEvent(tick=0, channel=0, data=[72, 73]),
   midi.NoteOnEvent(tick=0, channel=0, data=[77, 87]),
   midi.NoteOnEvent(tick=0, channel=0, data=[75, 73]),
   midi.NoteOnEvent(tick=240, channel=0, data=[75, 0]),
   midi.NoteOnEvent(tick=0, channel=0, data=[72, 0]),
   midi.NoteOnEvent(tick=0, channel=0, data=[65, 0]),
   midi.NoteOnEvent(tick=0, channel=0, data=[69, 0]),
   midi.NoteOnEvent(tick=0, channel=0, data=[77, 0]),
   midi.NoteOnEvent(tick=0, channel=0, data=[66, 66]),
   midi.NoteOnEvent(tick=0, channel=0, data=[70, 66]),
   midi.NoteOnEvent(tick=0, channel=0, data=[72, 78]),
   midi.NoteOnEvent(tick=0, channel=0, data=[75, 78]),
   midi.NoteOnEvent(tick=0, channel=0, data=[78, 92]),
   midi.NoteOnEvent(tick=720, channel=0, data=[78, 0]),
   midi.NoteOnEvent(tick=0, channel=0, data=[72, 0]),
   midi.NoteOnEvent(tick=0, channel=0, data=[66, 0]),
   midi.NoteOnEvent(tick=0, channel=0, data=[70, 0]),
   midi.NoteOnEvent(tick=0, channel=0, data=[75, 0]),
   midi.NoteOnEvent(tick=0, channel=0, data=[58, 76]),
   midi.NoteOnEvent(tick=0, channel=0, data=[70, 83]),
   midi.NoteOnEvent(tick=240, channel=0, data=[70, 0]),
   midi.NoteOnEvent(tick=0, channel=0, data=[58, 0]),
   midi.NoteOnEvent(tick=0, channel=0, data=[74, 36]),
   midi.NoteOnEvent(tick=0, channel=0, data=[77, 43]),
   midi.NoteOnEvent(tick=0, channel=0, data=[70, 36]),
   midi.NoteOnEvent(tick=0, channel=0, data=[65, 36]),
   midi.NoteOnEvent(tick=120, channel=0, data=[65, 0]),
   midi.NoteOnEvent(tick=0, channel=0, data=[74, 0]),
   midi.NoteOnEvent(tick=0, channel=0, data=[77, 0]),
   midi.NoteOnEvent(tick=0, channel=0, data=[70, 0]),
   midi.NoteOnEvent(tick=120, channel=0, data=[66, 28]),
   midi.NoteOnEvent(tick=0, channel=0, data=[71, 28]),
   midi.NoteOnEvent(tick=0, channel=0, data=[75, 28]),
   midi.NoteOnEvent(tick=0, channel=0, data=[78, 34]),
   midi.NoteOnEvent(tick=120, channel=0, data=[78, 0]),
   midi.NoteOnEvent(tick=0, channel=0, data=[66, 0]),
   midi.NoteOnEvent(tick=0, channel=0, data=[71, 0]),
   midi.NoteOnEvent(tick=0, channel=0, data=[75, 0]),
   midi.NoteOnEvent(tick=120, channel=0, data=[58, 30]),
   midi.NoteOnEvent(tick=120, channel=0, data=[58, 0]),
   midi.NoteOnEvent(tick=120, channel=0, data=[75, 45]),
   midi.NoteOnEvent(tick=0, channel=0, data=[71, 38]),
   midi.NoteOnEvent(tick=0, channel=0, data=[68, 38]),
   midi.NoteOnEvent(tick=0, channel=0, data=[63, 38]),
   midi.NoteOnEvent(tick=120, channel=0, data=[63, 0]),
   midi.NoteOnEvent(tick=0, channel=0, data=[75, 0]),
   midi.NoteOnEvent(tick=0, channel=0, data=[71, 0]),
   midi.NoteOnEvent(tick=0, channel=0, data=[68, 0]),
   midi.NoteOnEvent(tick=120, channel=0, data=[65, 28]),
   midi.NoteOnEvent(tick=0, channel=0, data=[70, 28]),
   midi.NoteOnEvent(tick=0, channel=0, data=[73, 28]),
   midi.NoteOnEvent(tick=0, channel=0, data=[77, 34]),
   midi.NoteOnEvent(tick=120, channel=0, data=[77, 0]),
   midi.NoteOnEvent(tick=0, channel=0, data=[65, 0]),
   midi.NoteOnEvent(tick=0, channel=0, data=[70, 0]),
   midi.NoteOnEvent(tick=0, channel=0, data=[73, 0]),
   midi.NoteOnEvent(tick=120, channel=0, data=[58, 30]),
   midi.NoteOnEvent(tick=120, channel=0, data=[58, 0]),
   midi.NoteOnEvent(tick=120, channel=0, data=[73, 45]),
   midi.NoteOnEvent(tick=0, channel=0, data=[70, 38]),
   midi.NoteOnEvent(tick=0, channel=0, data=[66, 38]),
   midi.NoteOnEvent(tick=0, channel=0, data=[61, 38]),
   midi.NoteOnEvent(tick=120, channel=0, data=[61, 0]),
   midi.NoteOnEvent(tick=0, channel=0, data=[73, 0]),
   midi.NoteOnEvent(tick=0, channel=0, data=[70, 0]),
   midi.NoteOnEvent(tick=0, channel=0, data=[66, 0]),
   midi.NoteOnEvent(tick=120, channel=0, data=[63, 28]),
   midi.NoteOnEvent(tick=0, channel=0, data=[68, 28]),
   midi.NoteOnEvent(tick=0, channel=0, data=[71, 28]),
   midi.NoteOnEvent(tick=0, channel=0, data=[75, 34]),
   midi.NoteOnEvent(tick=120, channel=0, data=[75, 0]),
   midi.NoteOnEvent(tick=0, channel=0, data=[63, 0]),
   midi.NoteOnEvent(tick=0, channel=0, data=[68, 0]),
   midi.NoteOnEvent(tick=0, channel=0, data=[71, 0]),
   midi.NoteOnEvent(tick=120, channel=0, data=[58, 33]),
   midi.NoteOnEvent(tick=120, channel=0, data=[58, 0]),
   midi.NoteOnEvent(tick=120, channel=0, data=[59, 39]),
   midi.NoteOnEvent(tick=0, channel=0, data=[63, 33]),
   midi.NoteOnEvent(tick=0, channel=0, data=[66, 33]),
   midi.NoteOnEvent(tick=0, channel=0, data=[71, 39]),
   midi.NoteOnEvent(tick=120, channel=0, data=[71, 0]),
   midi.NoteOnEvent(tick=0, channel=0, data=[59, 0]),
   midi.NoteOnEvent(tick=0, channel=0, data=[63, 0]),
   midi.NoteOnEvent(tick=0, channel=0, data=[66, 0]),
   midi.NoteOnEvent(tick=120, channel=0, data=[73, 34]),
   midi.NoteOnEvent(tick=0, channel=0, data=[70, 23]),
   midi.NoteOnEvent(tick=0, channel=0, data=[65, 23]),
   midi.NoteOnEvent(tick=120, channel=0, data=[65, 0]),
   midi.NoteOnEvent(tick=0, channel=0, data=[70, 0]),
   midi.NoteOnEvent(tick=0, channel=0, data=[73, 0]),
   midi.NoteOnEvent(tick=600, channel=0, data=[47, 45]),
   midi.NoteOnEvent(tick=0, channel=0, data=[50, 62]),
   midi.NoteOnEvent(tick=240, channel=0, data=[50, 0]),
   midi.NoteOnEvent(tick=0, channel=0, data=[47, 0]),
   midi.NoteOnEvent(tick=0, channel=0, data=[46, 45]),
   midi.NoteOnEvent(tick=0, channel=0, data=[51, 62]),
   midi.NoteOnEvent(tick=240, channel=0, data=[51, 0]),
   midi.NoteOnEvent(tick=0, channel=0, data=[46, 0]),
   midi.NoteOnEvent(tick=0, channel=0, data=[53, 66]),
   midi.NoteOnEvent(tick=0, channel=0, data=[45, 49]),
   midi.NoteOnEvent(tick=240, channel=0, data=[45, 0]),
   midi.NoteOnEvent(tick=0, channel=0, data=[53, 0]),
   midi.NoteOnEvent(tick=0, channel=0, data=[54, 94]),
   midi.NoteOnEvent(tick=0, channel=0, data=[46, 62]),
   midi.NoteOnEvent(tick=240, channel=0, data=[39, 57]),
   midi.NoteOnEvent(tick=0, channel=0, data=[27, 48]),
   midi.NoteOnEvent(tick=240, channel=0, data=[46, 0]),
   midi.NoteOnEvent(tick=0, channel=0, data=[54, 0]),
   midi.NoteOnEvent(tick=0, channel=0, data=[56, 67]),
   midi.NoteOnEvent(tick=0, channel=0, data=[52, 50]),
   midi.NoteOnEvent(tick=240, channel=0, data=[52, 0]),
   midi.NoteOnEvent(tick=0, channel=0, data=[56, 0]),
   midi.NoteOnEvent(tick=0, channel=0, data=[51, 51]),
   midi.NoteOnEvent(tick=0, channel=0, data=[57, 70]),
   midi.NoteOnEvent(tick=240, channel=0, data=[57, 0]),
   midi.NoteOnEvent(tick=0, channel=0, data=[27, 0]),
   midi.NoteOnEvent(tick=0, channel=0, data=[39, 0]),
   midi.NoteOnEvent(tick=0, channel=0, data=[51, 0]),
   midi.NoteOnEvent(tick=0, channel=0, data=[50, 52]),
   midi.NoteOnEvent(tick=0, channel=0, data=[58, 71]),
   midi.NoteOnEvent(tick=240, channel=0, data=[58, 0]),
   midi.NoteOnEvent(tick=0, channel=0, data=[50, 0]),
   midi.NoteOnEvent(tick=0, channel=0, data=[49, 53]),
   midi.NoteOnEvent(tick=0, channel=0, data=[53, 53]),
   midi.NoteOnEvent(tick=0, channel=0, data=[59, 72]),
   midi.NoteOnEvent(tick=240, channel=0, data=[59, 0]),
   midi.NoteOnEvent(tick=0, channel=0, data=[53, 0]),
   midi.NoteOnEvent(tick=0, channel=0, data=[49, 0]),
   midi.NoteOnEvent(tick=0, channel=0, data=[47, 55]),
   midi.NoteOnEvent(tick=0, channel=0, data=[55, 55]),
   midi.NoteOnEvent(tick=0, channel=0, data=[61, 74]),
   midi.NoteOnEvent(tick=240, channel=0, data=[61, 0]),
   midi.NoteOnEvent(tick=0, channel=0, data=[55, 0]),
   midi.NoteOnEvent(tick=0, channel=0, data=[47, 0]),
   midi.NoteOnEvent(tick=0, channel=0, data=[46, 72]),
   midi.NoteOnEvent(tick=0, channel=0, data=[56, 72]),
   midi.NoteOnEvent(tick=0, channel=0, data=[62, 97]),
   midi.NoteOnEvent(tick=240, channel=0, data=[39, 69]),
   midi.NoteOnEvent(tick=0, channel=0, data=[27, 58]),
   midi.NoteOnEvent(tick=240, channel=0, data=[62, 0]),
   midi.NoteOnEvent(tick=0, channel=0, data=[46, 0]),
   midi.NoteOnEvent(tick=0, channel=0, data=[56, 0]),
   midi.NoteOnEvent(tick=0, channel=0, data=[63, 82]),
   midi.NoteOnEvent(tick=0, channel=0, data=[59, 61]),
   midi.NoteOnEvent(tick=240, channel=0, data=[59, 0]),
   midi.NoteOnEvent(tick=0, channel=0, data=[63, 0]),
   midi.NoteOnEvent(tick=0, channel=0, data=[64, 86]),
   midi.NoteOnEvent(tick=0, channel=0, data=[61, 63]),
   midi.NoteOnEvent(tick=0, channel=0, data=[58, 63]),
   midi.NoteOnEvent(tick=240, channel=0, data=[58, 0]),
   midi.NoteOnEvent(tick=0, channel=0, data=[64, 0]),
   midi.NoteOnEvent(tick=0, channel=0, data=[27, 0]),
   midi.NoteOnEvent(tick=0, channel=0, data=[39, 0]),
   midi.NoteOnEvent(tick=0, channel=0, data=[61, 0]),
   midi.NoteOnEvent(tick=0, channel=0, data=[65, 89]),
   midi.NoteOnEvent(tick=0, channel=0, data=[60, 66]),
   midi.NoteOnEvent(tick=0, channel=0, data=[57, 66]),
   midi.NoteOnEvent(tick=240, channel=0, data=[57, 0]),
   midi.NoteOnEvent(tick=0, channel=0, data=[60, 0]),
   midi.NoteOnEvent(tick=0, channel=0, data=[65, 0]),
   midi.NoteOnEvent(tick=0, channel=0, data=[66, 94]),
   midi.NoteOnEvent(tick=0, channel=0, data=[59, 69]),
   midi.NoteOnEvent(tick=0, channel=0, data=[56, 69]),
   midi.NoteOnEvent(tick=240, channel=0, data=[56, 0]),
   midi.NoteOnEvent(tick=0, channel=0, data=[59, 0]),
   midi.NoteOnEvent(tick=0, channel=0, data=[66, 0]),
   midi.NoteOnEvent(tick=0, channel=0, data=[67, 96]),
   midi.NoteOnEvent(tick=0, channel=0, data=[58, 71]),
   midi.NoteOnEvent(tick=0, channel=0, data=[55, 71]),
   midi.NoteOnEvent(tick=240, channel=0, data=[55, 0]),
   midi.NoteOnEvent(tick=0, channel=0, data=[67, 0]),
   midi.NoteOnEvent(tick=0, channel=0, data=[68, 101]),
   midi.NoteOnEvent(tick=0, channel=0, data=[54, 74]),
   midi.NoteOnEvent(tick=240, channel=0, data=[54, 0]),
   midi.NoteOnEvent(tick=0, channel=0, data=[68, 0]),
   midi.NoteOnEvent(tick=0, channel=0, data=[58, 0]),
   midi.NoteOnEvent(tick=0, channel=0, data=[69, 102]),
   midi.NoteOnEvent(tick=0, channel=0, data=[63, 75]),
   midi.NoteOnEvent(tick=0, channel=0, data=[60, 75]),
   midi.NoteOnEvent(tick=0, channel=0, data=[57, 75]),
   midi.NoteOnEvent(tick=0, channel=0, data=[53, 75]),
   midi.NoteOnEvent(tick=240, channel=0, data=[53, 0]),
   midi.NoteOnEvent(tick=0, channel=0, data=[60, 0]),
   midi.NoteOnEvent(tick=0, channel=0, data=[69, 0]),
   midi.NoteOnEvent(tick=0, channel=0, data=[63, 0]),
   midi.NoteOnEvent(tick=0, channel=0, data=[57, 0]),
   midi.NoteOnEvent(tick=0, channel=0, data=[39, 83]),
   midi.NoteOnEvent(tick=0, channel=0, data=[27, 70]),
   midi.NoteOnEvent(tick=480, channel=0, data=[70, 78]),
   midi.NoteOnEvent(tick=0, channel=0, data=[63, 66]),
   midi.NoteOnEvent(tick=0, channel=0, data=[58, 66]),
   midi.NoteOnEvent(tick=0, channel=0, data=[54, 66]),
   midi.NoteOnEvent(tick=240, channel=0, data=[54, 0]),
   midi.NoteOnEvent(tick=0, channel=0, data=[27, 0]),
   midi.NoteOnEvent(tick=0, channel=0, data=[70, 0]),
   midi.NoteOnEvent(tick=0, channel=0, data=[39, 0]),
   midi.NoteOnEvent(tick=0, channel=0, data=[58, 0]),
   midi.NoteOnEvent(tick=0, channel=0, data=[63, 0]),
   midi.NoteOnEvent(tick=0, channel=0, data=[71, 92]),
   midi.NoteOnEvent(tick=0, channel=0, data=[67, 78]),
   midi.NoteOnEvent(tick=0, channel=0, data=[64, 78]),
   midi.NoteOnEvent(tick=0, channel=0, data=[61, 78]),
   midi.NoteOnEvent(tick=0, channel=0, data=[59, 78]),
   midi.NoteOnEvent(tick=720, channel=0, data=[59, 0]),
   midi.NoteOnEvent(tick=0, channel=0, data=[64, 0]),
   midi.NoteOnEvent(tick=0, channel=0, data=[71, 0]),
   midi.NoteOnEvent(tick=0, channel=0, data=[67, 0]),
   midi.NoteOnEvent(tick=0, channel=0, data=[61, 0]),
   midi.NoteOnEvent(tick=0, channel=0, data=[50, 78]),
   midi.NoteOnEvent(tick=0, channel=0, data=[53, 78]),
   midi.NoteOnEvent(tick=0, channel=0, data=[56, 78]),
   midi.NoteOnEvent(tick=0, channel=0, data=[59, 78]),
   midi.NoteOnEvent(tick=0, channel=0, data=[62, 92]),
   midi.NoteOnEvent(tick=240, channel=0, data=[27, 78]),
   midi.NoteOnEvent(tick=0, channel=0, data=[39, 78]),
   midi.NoteOnEvent(tick=480, channel=0, data=[39, 0]),
   midi.NoteOnEvent(tick=0, channel=0, data=[62, 0]),
   midi.NoteOnEvent(tick=0, channel=0, data=[53, 0]),
   midi.NoteOnEvent(tick=0, channel=0, data=[56, 0]),
   midi.NoteOnEvent(tick=0, channel=0, data=[50, 0]),
   midi.NoteOnEvent(tick=0, channel=0, data=[27, 0]),
   midi.NoteOnEvent(tick=0, channel=0, data=[59, 0]),
   midi.NoteOnEvent(tick=0, channel=0, data=[66, 92]),
   midi.NoteOnEvent(tick=0, channel=0, data=[62, 78]),
   midi.NoteOnEvent(tick=0, channel=0, data=[59, 78]),
   midi.NoteOnEvent(tick=0, channel=0, data=[56, 78]),
   midi.NoteOnEvent(tick=0, channel=0, data=[54, 78]),
   midi.NoteOnEvent(tick=720, channel=0, data=[54, 0]),
   midi.NoteOnEvent(tick=0, channel=0, data=[59, 0]),
   midi.NoteOnEvent(tick=0, channel=0, data=[66, 0]),
   midi.NoteOnEvent(tick=0, channel=0, data=[62, 0]),
   midi.NoteOnEvent(tick=0, channel=0, data=[56, 0]),
   midi.NoteOnEvent(tick=0, channel=0, data=[45, 78]),
   midi.NoteOnEvent(tick=0, channel=0, data=[48, 78]),
   midi.NoteOnEvent(tick=0, channel=0, data=[51, 78]),
   midi.NoteOnEvent(tick=0, channel=0, data=[54, 78]),
   midi.NoteOnEvent(tick=0, channel=0, data=[57, 92]),
   midi.NoteOnEvent(tick=240, channel=0, data=[27, 78]),
   midi.NoteOnEvent(tick=0, channel=0, data=[39, 78]),
   midi.NoteOnEvent(tick=480, channel=0, data=[39, 0]),
   midi.NoteOnEvent(tick=0, channel=0, data=[57, 0]),
   midi.NoteOnEvent(tick=0, channel=0, data=[48, 0]),
   midi.NoteOnEvent(tick=0, channel=0, data=[51, 0]),
   midi.NoteOnEvent(tick=0, channel=0, data=[45, 0]),
   midi.NoteOnEvent(tick=0, channel=0, data=[27, 0]),
   midi.NoteOnEvent(tick=0, channel=0, data=[54, 0]),
   midi.NoteOnEvent(tick=0, channel=0, data=[63, 80]),
   midi.NoteOnEvent(tick=0, channel=0, data=[54, 68]),
   midi.NoteOnEvent(tick=0, channel=0, data=[51, 68]),
   midi.NoteOnEvent(tick=240, channel=0, data=[51, 0]),
   midi.NoteOnEvent(tick=0, channel=0, data=[54, 0]),
   midi.NoteOnEvent(tick=0, channel=0, data=[63, 0]),
   midi.NoteOnEvent(tick=0, channel=0, data=[50, 65]),
   midi.NoteOnEvent(tick=0, channel=0, data=[53, 65]),
   midi.NoteOnEvent(tick=0, channel=0, data=[62, 77]),
   midi.NoteOnEvent(tick=240, channel=0, data=[62, 0]),
   midi.NoteOnEvent(tick=0, channel=0, data=[53, 0]),
   midi.NoteOnEvent(tick=0, channel=0, data=[50, 0]),
   midi.NoteOnEvent(tick=0, channel=0, data=[52, 58]),
   midi.NoteOnEvent(tick=0, channel=0, data=[49, 58]),
   midi.NoteOnEvent(tick=0, channel=0, data=[61, 70]),
   midi.NoteOnEvent(tick=240, channel=0, data=[61, 0]),
   midi.NoteOnEvent(tick=0, channel=0, data=[49, 0]),
   midi.NoteOnEvent(tick=0, channel=0, data=[52, 0]),
   midi.NoteOnEvent(tick=0, channel=0, data=[52, 57]),
   midi.NoteOnEvent(tick=0, channel=0, data=[48, 57]),
   midi.NoteOnEvent(tick=0, channel=0, data=[60, 68]),
   midi.NoteOnEvent(tick=240, channel=0, data=[52, 0]),
   midi.NoteOnEvent(tick=0, channel=0, data=[51, 66]),
   midi.NoteOnEvent(tick=240, channel=0, data=[60, 0]),
   midi.NoteOnEvent(tick=0, channel=0, data=[48, 0]),
   midi.NoteOnEvent(tick=0, channel=0, data=[47, 53]),
   midi.NoteOnEvent(tick=0, channel=0, data=[59, 63]),
   midi.NoteOnEvent(tick=240, channel=0, data=[59, 0]),
   midi.NoteOnEvent(tick=0, channel=0, data=[47, 0]),
   midi.NoteOnEvent(tick=0, channel=0, data=[51, 0]),
   midi.NoteOnEvent(tick=0, channel=0, data=[46, 39]),
   midi.NoteOnEvent(tick=0, channel=0, data=[51, 39]),
   midi.NoteOnEvent(tick=0, channel=0, data=[54, 39]),
   midi.NoteOnEvent(tick=0, channel=0, data=[58, 46]),
   midi.NoteOnEvent(tick=240, channel=0, data=[58, 0]),
   midi.NoteOnEvent(tick=0, channel=0, data=[46, 0]),
   midi.NoteOnEvent(tick=0, channel=0, data=[51, 0]),
   midi.NoteOnEvent(tick=0, channel=0, data=[54, 0]),
   midi.NoteOnEvent(tick=240, channel=0, data=[72, 45]),
   midi.NoteOnEvent(tick=0, channel=0, data=[67, 38]),
   midi.NoteOnEvent(tick=0, channel=0, data=[63, 38]),
   midi.NoteOnEvent(tick=120, channel=0, data=[63, 0]),
   midi.NoteOnEvent(tick=0, channel=0, data=[67, 0]),
   midi.NoteOnEvent(tick=0, channel=0, data=[72, 0]),
   midi.NoteOnEvent(tick=120, channel=0, data=[71, 45]),
   midi.NoteOnEvent(tick=0, channel=0, data=[68, 38]),
   midi.NoteOnEvent(tick=0, channel=0, data=[63, 38]),
   midi.NoteOnEvent(tick=0, channel=0, data=[58, 38]),
   midi.NoteOnEvent(tick=120, channel=0, data=[58, 0]),
   midi.NoteOnEvent(tick=0, channel=0, data=[71, 0]),
   midi.NoteOnEvent(tick=0, channel=0, data=[68, 0]),
   midi.NoteOnEvent(tick=0, channel=0, data=[63, 0]),
   midi.NoteOnEvent(tick=360, channel=0, data=[72, 45]),
   midi.NoteOnEvent(tick=0, channel=0, data=[67, 38]),
   midi.NoteOnEvent(tick=0, channel=0, data=[64, 38]),
   midi.NoteOnEvent(tick=120, channel=0, data=[64, 0]),
   midi.NoteOnEvent(tick=0, channel=0, data=[67, 0]),
   midi.NoteOnEvent(tick=0, channel=0, data=[72, 0]),
   midi.NoteOnEvent(tick=120, channel=0, data=[71, 47]),
   midi.NoteOnEvent(tick=0, channel=0, data=[68, 39]),
   midi.NoteOnEvent(tick=0, channel=0, data=[63, 39]),
   midi.NoteOnEvent(tick=0, channel=0, data=[58, 39]),
   midi.NoteOnEvent(tick=120, channel=0, data=[58, 0]),
   midi.NoteOnEvent(tick=0, channel=0, data=[71, 0]),
   midi.NoteOnEvent(tick=0, channel=0, data=[68, 0]),
   midi.NoteOnEvent(tick=0, channel=0, data=[63, 0]),
   midi.NoteOnEvent(tick=360, channel=0, data=[63, 34]),
   midi.NoteOnEvent(tick=0, channel=0, data=[69, 34]),
   midi.NoteOnEvent(tick=0, channel=0, data=[72, 41]),
   midi.NoteOnEvent(tick=90, channel=0, data=[72, 0]),
   midi.NoteOnEvent(tick=0, channel=0, data=[69, 0]),
   midi.NoteOnEvent(tick=0, channel=0, data=[63, 0]),
   midi.NoteOnEvent(tick=150, channel=0, data=[58, 39]),
   midi.NoteOnEvent(tick=0, channel=0, data=[63, 39]),
   midi.NoteOnEvent(tick=0, channel=0, data=[67, 39]),
   midi.NoteOnEvent(tick=0, channel=0, data=[70, 46]),
   midi.NoteOnEvent(tick=90, channel=0, data=[70, 0]),
   midi.NoteOnEvent(tick=0, channel=0, data=[58, 0]),
   midi.NoteOnEvent(tick=0, channel=0, data=[63, 0]),
   midi.NoteOnEvent(tick=0, channel=0, data=[67, 0]),
   midi.NoteOnEvent(tick=150, channel=0, data=[63, 36]),
   midi.NoteOnEvent(tick=0, channel=0, data=[69, 36]),
   midi.NoteOnEvent(tick=0, channel=0, data=[72, 43]),
   midi.NoteOnEvent(tick=90, channel=0, data=[72, 0]),
   midi.NoteOnEvent(tick=0, channel=0, data=[69, 0]),
   midi.NoteOnEvent(tick=0, channel=0, data=[63, 0]),
   midi.NoteOnEvent(tick=150, channel=0, data=[58, 39]),
   midi.NoteOnEvent(tick=0, channel=0, data=[62, 39]),
   midi.NoteOnEvent(tick=0, channel=0, data=[70, 46]),
   midi.NoteOnEvent(tick=90, channel=0, data=[70, 0]),
   midi.NoteOnEvent(tick=0, channel=0, data=[62, 0]),
   midi.NoteOnEvent(tick=0, channel=0, data=[58, 0]),
   midi.NoteOnEvent(tick=150, channel=0, data=[75, 52]),
   midi.NoteOnEvent(tick=0, channel=0, data=[70, 44]),
   midi.NoteOnEvent(tick=0, channel=0, data=[63, 44]),
   midi.NoteOnEvent(tick=240, channel=0, data=[63, 0]),
   midi.NoteOnEvent(tick=0, channel=0, data=[70, 0]),
   midi.NoteOnEvent(tick=0, channel=0, data=[75, 0]),
   midi.NoteOnEvent(tick=0, channel=0, data=[27, 46]),
   midi.NoteOnEvent(tick=0, channel=0, data=[39, 46]),
   midi.NoteOnEvent(tick=240, channel=0, data=[44, 44]),
   midi.NoteOnEvent(tick=240, channel=0, data=[44, 0]),
   midi.NoteOnEvent(tick=0, channel=0, data=[27, 0]),
   midi.NoteOnEvent(tick=0, channel=0, data=[45, 51]),
   midi.NoteOnEvent(tick=480, channel=0, data=[45, 0]),
   midi.NoteOnEvent(tick=0, channel=0, data=[46, 51]),
   midi.NoteOnEvent(tick=240, channel=0, data=[46, 0]),
   midi.NoteOnEvent(tick=0, channel=0, data=[48, 57]),
   midi.NoteOnEvent(tick=240, channel=0, data=[39, 0]),
   midi.NoteOnEvent(tick=0, channel=0, data=[27, 47]),
   midi.NoteOnEvent(tick=0, channel=0, data=[39, 47]),
   midi.NoteOnEvent(tick=240, channel=0, data=[48, 0]),
   midi.NoteOnEvent(tick=0, channel=0, data=[50, 52]),
   midi.NoteOnEvent(tick=0, channel=0, data=[39, 52]),
   midi.NoteOnEvent(tick=240, channel=0, data=[50, 0]),
   midi.NoteOnEvent(tick=0, channel=0, data=[27, 0]),
   midi.NoteOnEvent(tick=0, channel=0, data=[39, 0]),
   midi.NoteOnEvent(tick=0, channel=0, data=[51, 59]),
   midi.NoteOnEvent(tick=480, channel=0, data=[51, 0]),
   midi.NoteOnEvent(tick=0, channel=0, data=[53, 55]),
   midi.NoteOnEvent(tick=240, channel=0, data=[53, 0]),
   midi.NoteOnEvent(tick=0, channel=0, data=[39, 0]),
   midi.NoteOnEvent(tick=0, channel=0, data=[54, 60]),
   midi.NoteOnEvent(tick=0, channel=0, data=[48, 51]),
   midi.NoteOnEvent(tick=0, channel=0, data=[45, 51]),
   midi.NoteOnEvent(tick=240, channel=0, data=[45, 0]),
   midi.NoteOnEvent(tick=0, channel=0, data=[48, 0]),
   midi.NoteOnEvent(tick=0, channel=0, data=[54, 0]),
   midi.NoteOnEvent(tick=0, channel=0, data=[27, 53]),
   midi.NoteOnEvent(tick=0, channel=0, data=[39, 53]),
   midi.NoteOnEvent(tick=240, channel=0, data=[53, 43]),
   midi.NoteOnEvent(tick=0, channel=0, data=[56, 51]),
   midi.NoteOnEvent(tick=240, channel=0, data=[56, 0]),
   midi.NoteOnEvent(tick=0, channel=0, data=[27, 0]),
   midi.NoteOnEvent(tick=0, channel=0, data=[39, 0]),
   midi.NoteOnEvent(tick=0, channel=0, data=[53, 0]),
   midi.NoteOnEvent(tick=0, channel=0, data=[48, 50]),
   midi.NoteOnEvent(tick=0, channel=0, data=[51, 50]),
   midi.NoteOnEvent(tick=0, channel=0, data=[57, 60]),
   midi.NoteOnEvent(tick=480, channel=0, data=[57, 0]),
   midi.NoteOnEvent(tick=0, channel=0, data=[51, 0]),
   midi.NoteOnEvent(tick=0, channel=0, data=[48, 0]),
   midi.NoteOnEvent(tick=0, channel=0, data=[54, 50]),
   midi.NoteOnEvent(tick=0, channel=0, data=[58, 60]),
   midi.NoteOnEvent(tick=240, channel=0, data=[58, 0]),
   midi.NoteOnEvent(tick=0, channel=0, data=[51, 69]),
   midi.NoteOnEvent(tick=0, channel=0, data=[60, 69]),
   midi.NoteOnEvent(tick=240, channel=0, data=[39, 53]),
   midi.NoteOnEvent(tick=240, channel=0, data=[60, 0]),
   midi.NoteOnEvent(tick=0, channel=0, data=[54, 0]),
   midi.NoteOnEvent(tick=0, channel=0, data=[51, 0]),
   midi.NoteOnEvent(tick=0, channel=0, data=[58, 46]),
   midi.NoteOnEvent(tick=0, channel=0, data=[62, 56]),
   midi.NoteOnEvent(tick=240, channel=0, data=[62, 0]),
   midi.NoteOnEvent(tick=0, channel=0, data=[58, 0]),
   midi.NoteOnEvent(tick=0, channel=0, data=[39, 0]),
   midi.NoteOnEvent(tick=0, channel=0, data=[54, 50]),
   midi.NoteOnEvent(tick=0, channel=0, data=[57, 50]),
   midi.NoteOnEvent(tick=0, channel=0, data=[63, 61]),
   midi.NoteOnEvent(tick=480, channel=0, data=[63, 0]),
   midi.NoteOnEvent(tick=0, channel=0, data=[57, 0]),
   midi.NoteOnEvent(tick=0, channel=0, data=[54, 0]),
   midi.NoteOnEvent(tick=0, channel=0, data=[62, 42]),
   midi.NoteOnEvent(tick=0, channel=0, data=[65, 50]),
   midi.NoteOnEvent(tick=240, channel=0, data=[65, 0]),
   midi.NoteOnEvent(tick=0, channel=0, data=[62, 0]),
   midi.NoteOnEvent(tick=0, channel=0, data=[66, 61]),
   midi.NoteOnEvent(tick=0, channel=0, data=[63, 51]),
   midi.NoteOnEvent(tick=0, channel=0, data=[58, 51]),
   midi.NoteOnEvent(tick=240, channel=0, data=[58, 0]),
   midi.NoteOnEvent(tick=0, channel=0, data=[63, 0]),
   midi.NoteOnEvent(tick=0, channel=0, data=[66, 0]),
   midi.NoteOnEvent(tick=0, channel=0, data=[87, 49]),
   midi.NoteOnEvent(tick=60, channel=0, data=[87, 0]),
   midi.NoteOnEvent(tick=60, channel=0, data=[75, 41]),
   midi.NoteOnEvent(tick=60, channel=0, data=[75, 0]),
   midi.NoteOnEvent(tick=60, channel=0, data=[87, 49]),
   midi.NoteOnEvent(tick=60, channel=0, data=[87, 0]),
   midi.NoteOnEvent(tick=60, channel=0, data=[75, 42]),
   midi.NoteOnEvent(tick=60, channel=0, data=[75, 0]),
   midi.NoteOnEvent(tick=60, channel=0, data=[87, 49]),
   midi.NoteOnEvent(tick=60, channel=0, data=[87, 0]),
   midi.NoteOnEvent(tick=60, channel=0, data=[75, 41]),
   midi.NoteOnEvent(tick=60, channel=0, data=[75, 0]),
   midi.NoteOnEvent(tick=60, channel=0, data=[87, 49]),
   midi.NoteOnEvent(tick=60, channel=0, data=[87, 0]),
   midi.NoteOnEvent(tick=60, channel=0, data=[75, 40]),
   midi.NoteOnEvent(tick=60, channel=0, data=[75, 0]),
   midi.NoteOnEvent(tick=60, channel=0, data=[87, 49]),
   midi.NoteOnEvent(tick=60, channel=0, data=[87, 0]),
   midi.NoteOnEvent(tick=60, channel=0, data=[75, 42]),
   midi.NoteOnEvent(tick=60, channel=0, data=[75, 0]),
   midi.NoteOnEvent(tick=60, channel=0, data=[87, 49]),
   midi.NoteOnEvent(tick=60, channel=0, data=[87, 0]),
   midi.NoteOnEvent(tick=60, channel=0, data=[75, 41]),
   midi.NoteOnEvent(tick=60, channel=0, data=[75, 0]),
   midi.NoteOnEvent(tick=60, channel=0, data=[75, 49]),
   midi.NoteOnEvent(tick=60, channel=0, data=[75, 0]),
   midi.NoteOnEvent(tick=60, channel=0, data=[63, 40]),
   midi.NoteOnEvent(tick=60, channel=0, data=[63, 0]),
   midi.NoteOnEvent(tick=60, channel=0, data=[75, 49]),
   midi.NoteOnEvent(tick=60, channel=0, data=[75, 0]),
   midi.NoteOnEvent(tick=60, channel=0, data=[63, 42]),
   midi.NoteOnEvent(tick=60, channel=0, data=[63, 0]),
   midi.NoteOnEvent(tick=60, channel=0, data=[75, 49]),
   midi.NoteOnEvent(tick=60, channel=0, data=[75, 0]),
   midi.NoteOnEvent(tick=60, channel=0, data=[63, 42]),
   midi.NoteOnEvent(tick=60, channel=0, data=[63, 0]),
   midi.NoteOnEvent(tick=60, channel=0, data=[75, 49]),
   midi.NoteOnEvent(tick=60, channel=0, data=[75, 0]),
   midi.NoteOnEvent(tick=60, channel=0, data=[63, 44]),
   midi.NoteOnEvent(tick=60, channel=0, data=[63, 0]),
   midi.NoteOnEvent(tick=60, channel=0, data=[75, 49]),
   midi.NoteOnEvent(tick=60, channel=0, data=[75, 0]),
   midi.NoteOnEvent(tick=60, channel=0, data=[63, 43]),
   midi.NoteOnEvent(tick=60, channel=0, data=[63, 0]),
   midi.NoteOnEvent(tick=60, channel=0, data=[75, 49]),
   midi.NoteOnEvent(tick=60, channel=0, data=[75, 0]),
   midi.NoteOnEvent(tick=100, channel=0, data=[46, 42]),
   midi.NoteOnEvent(tick=0, channel=0, data=[39, 42]),
   midi.NoteOnEvent(tick=80, channel=0, data=[39, 0]),
   midi.NoteOnEvent(tick=0, channel=0, data=[46, 0]),
   midi.NoteOnEvent(tick=0, channel=0, data=[51, 38]),
   midi.NoteOnEvent(tick=40, channel=0, data=[51, 0]),
   midi.NoteOnEvent(tick=0, channel=0, data=[54, 38]),
   midi.NoteOnEvent(tick=40, channel=0, data=[54, 0]),
   midi.NoteOnEvent(tick=1, channel=0, data=[57, 39]),
   midi.NoteOnEvent(tick=40, channel=0, data=[57, 0]),
   midi.NoteOnEvent(tick=0, channel=0, data=[58, 40]),
   midi.NoteOnEvent(tick=40, channel=0, data=[58, 0]),
   midi.NoteOnEvent(tick=0, channel=0, data=[62, 40]),
   midi.NoteOnEvent(tick=39, channel=0, data=[63, 42]),
   midi.NoteOnEvent(tick=1, channel=0, data=[62, 0]),
   midi.NoteOnEvent(tick=39, channel=0, data=[63, 0]),
   midi.NoteOnEvent(tick=1680, channel=0, data=[87, 42]),
   midi.NoteOnEvent(tick=0, channel=0, data=[82, 42]),
   midi.NoteOnEvent(tick=240, channel=0, data=[82, 0]),
   midi.NoteOnEvent(tick=0, channel=0, data=[87, 0]),
   midi.NoteOnEvent(tick=0, channel=0, data=[91, 42]),
   midi.NoteOnEvent(tick=0, channel=0, data=[88, 42]),
   midi.NoteOnEvent(tick=240, channel=0, data=[88, 0]),
   midi.NoteOnEvent(tick=0, channel=0, data=[91, 0]),
   midi.NoteOnEvent(tick=0, channel=0, data=[89, 45]),
   midi.NoteOnEvent(tick=0, channel=0, data=[92, 45]),
   midi.NoteOnEvent(tick=240, channel=0, data=[92, 0]),
   midi.NoteOnEvent(tick=0, channel=0, data=[89, 0]),
   midi.NoteOnEvent(tick=0, channel=0, data=[87, 48]),
   midi.NoteOnEvent(tick=0, channel=0, data=[90, 48]),
   midi.NoteOnEvent(tick=0, channel=0, data=[94, 48]),
   midi.NoteOnEvent(tick=240, channel=0, data=[94, 0]),
   midi.NoteOnEvent(tick=0, channel=0, data=[90, 0]),
   midi.NoteOnEvent(tick=0, channel=0, data=[87, 0]),
   midi.NoteOnEvent(tick=480, channel=0, data=[72, 44]),
   midi.NoteOnEvent(tick=0, channel=0, data=[69, 44]),
   midi.NoteOnEvent(tick=120, channel=0, data=[69, 0]),
   midi.NoteOnEvent(tick=0, channel=0, data=[72, 0]),
   midi.NoteOnEvent(tick=120, channel=0, data=[60, 40]),
   midi.NoteOnEvent(tick=0, channel=0, data=[57, 40]),
   midi.NoteOnEvent(tick=120, channel=0, data=[57, 0]),
   midi.NoteOnEvent(tick=0, channel=0, data=[60, 0]),
   midi.NoteOnEvent(tick=120, channel=0, data=[50, 34]),
   midi.NoteOnEvent(tick=0, channel=0, data=[46, 34]),
   midi.NoteOnEvent(tick=120, channel=0, data=[46, 0]),
   midi.NoteOnEvent(tick=0, channel=0, data=[50, 0]),
   midi.NoteOnEvent(tick=120, channel=0, data=[42, 34]),
   midi.NoteOnEvent(tick=0, channel=0, data=[39, 34]),
   midi.NoteOnEvent(tick=240, channel=0, data=[27, 34]),
   midi.NoteOnEvent(tick=5280, channel=0, data=[27, 0]),
   midi.NoteOnEvent(tick=240, channel=0, data=[39, 0]),
   midi.NoteOnEvent(tick=0, channel=0, data=[42, 0]),
   midi.ControlChangeEvent(tick=0, channel=0, data=[64, 127]),
   midi.ControlChangeEvent(tick=736, channel=0, data=[64, 0]),
   midi.ControlChangeEvent(tick=164, channel=0, data=[64, 127]),
   midi.ControlChangeEvent(tick=551, channel=0, data=[64, 0]),
   midi.ControlChangeEvent(tick=169, channel=0, data=[64, 127]),
   midi.ControlChangeEvent(tick=559, channel=0, data=[64, 0]),
   midi.ControlChangeEvent(tick=137, channel=0, data=[64, 127]),
   midi.ControlChangeEvent(tick=2004, channel=0, data=[64, 0]),
   midi.ControlChangeEvent(tick=1452, channel=0, data=[64, 0]),
   midi.ControlChangeEvent(tick=54, channel=0, data=[64, 127]),
   midi.ControlChangeEvent(tick=1374, channel=0, data=[64, 0]),
   midi.ControlChangeEvent(tick=40, channel=0, data=[64, 127]),
   midi.ControlChangeEvent(tick=925, channel=0, data=[64, 0]),
   midi.ControlChangeEvent(tick=32, channel=0, data=[64, 127]),
   midi.ControlChangeEvent(tick=927, channel=0, data=[64, 0]),
   midi.ControlChangeEvent(tick=2396, channel=0, data=[64, 0]),
   midi.ControlChangeEvent(tick=4320, channel=0, data=[64, 127]),
   midi.ControlChangeEvent(tick=489, channel=0, data=[64, 0]),
   midi.ControlChangeEvent(tick=28, channel=0, data=[64, 127]),
   midi.ControlChangeEvent(tick=940, channel=0, data=[64, 0]),
   midi.ControlChangeEvent(tick=252, channel=0, data=[64, 127]),
   midi.ControlChangeEvent(tick=464, channel=0, data=[64, 0]),
   midi.ControlChangeEvent(tick=25, channel=0, data=[64, 127]),
   midi.ControlChangeEvent(tick=450, channel=0, data=[64, 0]),
   midi.ControlChangeEvent(tick=30, channel=0, data=[64, 127]),
   midi.ControlChangeEvent(tick=452, channel=0, data=[64, 0]),
   midi.ControlChangeEvent(tick=19, channel=0, data=[64, 127]),
   midi.ControlChangeEvent(tick=464, channel=0, data=[64, 0]),
   midi.ControlChangeEvent(tick=25, channel=0, data=[64, 127]),
   midi.ControlChangeEvent(tick=450, channel=0, data=[64, 0]),
   midi.ControlChangeEvent(tick=30, channel=0, data=[64, 127]),
   midi.ControlChangeEvent(tick=262, channel=0, data=[64, 0]),
   midi.ControlChangeEvent(tick=205, channel=0, data=[64, 127]),
   midi.ControlChangeEvent(tick=234, channel=0, data=[64, 0]),
   midi.ControlChangeEvent(tick=20, channel=0, data=[64, 127]),
   midi.ControlChangeEvent(tick=210, channel=0, data=[64, 0]),
   midi.ControlChangeEvent(tick=27, channel=0, data=[64, 127]),
   midi.ControlChangeEvent(tick=213, channel=0, data=[64, 0]),
   midi.ControlChangeEvent(tick=249, channel=0, data=[64, 127]),
   midi.ControlChangeEvent(tick=226, channel=0, data=[64, 0]),
   midi.ControlChangeEvent(tick=42, channel=0, data=[64, 127]),
   midi.ControlChangeEvent(tick=205, channel=0, data=[64, 0]),
   midi.ControlChangeEvent(tick=272, channel=0, data=[64, 127]),
   midi.ControlChangeEvent(tick=222, channel=0, data=[64, 0]),
   midi.ControlChangeEvent(tick=39, channel=0, data=[64, 127]),
   midi.ControlChangeEvent(tick=193, channel=0, data=[64, 0]),
   midi.ControlChangeEvent(tick=262, channel=0, data=[64, 127]),
   midi.ControlChangeEvent(tick=458, channel=0, data=[64, 0]),
   midi.ControlChangeEvent(tick=58, channel=0, data=[64, 127]),
   midi.ControlChangeEvent(tick=413, channel=0, data=[64, 0]),
   midi.ControlChangeEvent(tick=52, channel=0, data=[64, 127]),
   midi.ControlChangeEvent(tick=426, channel=0, data=[64, 0]),
   midi.ControlChangeEvent(tick=37, channel=0, data=[64, 127]),
   midi.ControlChangeEvent(tick=208, channel=0, data=[64, 0]),
   midi.ControlChangeEvent(tick=52, channel=0, data=[64, 127]),
   midi.ControlChangeEvent(tick=700, channel=0, data=[64, 0]),
   midi.ControlChangeEvent(tick=26, channel=0, data=[64, 127]),
   midi.ControlChangeEvent(tick=657, channel=0, data=[64, 0]),
   midi.ControlChangeEvent(tick=26, channel=0, data=[64, 127]),
   midi.ControlChangeEvent(tick=953, channel=0, data=[64, 0]),
   midi.ControlChangeEvent(tick=47, channel=0, data=[64, 127]),
   midi.ControlChangeEvent(tick=394, channel=0, data=[64, 0]),
   midi.ControlChangeEvent(tick=46, channel=0, data=[64, 127]),
   midi.ControlChangeEvent(tick=943, channel=0, data=[64, 0]),
   midi.ControlChangeEvent(tick=28, channel=0, data=[64, 127]),
   midi.ControlChangeEvent(tick=440, channel=0, data=[64, 0]),
   midi.ControlChangeEvent(tick=34, channel=0, data=[64, 127]),
   midi.ControlChangeEvent(tick=452, channel=0, data=[64, 0]),
   midi.ControlChangeEvent(tick=500, channel=0, data=[64, 127]),
   midi.ControlChangeEvent(tick=226, channel=0, data=[64, 0]),
   midi.ControlChangeEvent(tick=508, channel=0, data=[64, 127]),
   midi.ControlChangeEvent(tick=205, channel=0, data=[64, 0]),
   midi.ControlChangeEvent(tick=187, channel=0, data=[64, 127]),
   midi.ControlChangeEvent(tick=74, channel=0, data=[64, 0]),
   midi.ControlChangeEvent(tick=114, channel=0, data=[64, 127]),
   midi.ControlChangeEvent(tick=103, channel=0, data=[64, 0]),
   midi.ControlChangeEvent(tick=129, channel=0, data=[64, 127]),
   midi.ControlChangeEvent(tick=114, channel=0, data=[64, 0]),
   midi.ControlChangeEvent(tick=137, channel=0, data=[64, 127]),
   midi.ControlChangeEvent(tick=94, channel=0, data=[64, 0]),
   midi.ControlChangeEvent(tick=275, channel=0, data=[64, 127]),
   midi.ControlChangeEvent(tick=1422, channel=0, data=[64, 0]),
   midi.ControlChangeEvent(tick=40, channel=0, data=[64, 127]),
   midi.ControlChangeEvent(tick=1637, channel=0, data=[64, 0]),
   midi.ControlChangeEvent(tick=29, channel=0, data=[64, 127]),
   midi.ControlChangeEvent(tick=685, channel=0, data=[64, 0]),
   midi.ControlChangeEvent(tick=52, channel=0, data=[64, 127]),
   midi.ControlChangeEvent(tick=429, channel=0, data=[64, 0]),
   midi.ControlChangeEvent(tick=1474, channel=0, data=[64, 127]),
   midi.ControlChangeEvent(tick=1163, channel=0, data=[64, 0]),
   midi.ControlChangeEvent(tick=337, channel=0, data=[64, 127]),
   midi.ControlChangeEvent(tick=1108, channel=0, data=[64, 0]),
   midi.ControlChangeEvent(tick=272, channel=0, data=[64, 127]),
   midi.ControlChangeEvent(tick=1172, channel=0, data=[64, 0]),
   midi.ControlChangeEvent(tick=74, channel=0, data=[64, 127]),
   midi.ControlChangeEvent(tick=655, channel=0, data=[64, 0]),
   midi.ControlChangeEvent(tick=71, channel=0, data=[64, 127]),
   midi.ControlChangeEvent(tick=882, channel=0, data=[64, 0]),
   midi.ControlChangeEvent(tick=35, channel=0, data=[64, 127]),
   midi.ControlChangeEvent(tick=199, channel=0, data=[64, 0]),
   midi.ControlChangeEvent(tick=24, channel=0, data=[64, 127]),
   midi.ControlChangeEvent(tick=214, channel=0, data=[64, 0]),
   midi.ControlChangeEvent(tick=27, channel=0, data=[64, 127]),
   midi.ControlChangeEvent(tick=213, channel=0, data=[64, 0]),
   midi.ControlChangeEvent(tick=249, channel=0, data=[64, 127]),
   midi.ControlChangeEvent(tick=226, channel=0, data=[64, 0]),
   midi.ControlChangeEvent(tick=42, channel=0, data=[64, 127]),
   midi.ControlChangeEvent(tick=205, channel=0, data=[64, 0]),
   midi.ControlChangeEvent(tick=272, channel=0, data=[64, 127]),
   midi.ControlChangeEvent(tick=222, channel=0, data=[64, 0]),
   midi.ControlChangeEvent(tick=39, channel=0, data=[64, 127]),
   midi.ControlChangeEvent(tick=193, channel=0, data=[64, 0]),
   midi.ControlChangeEvent(tick=262, channel=0, data=[64, 127]),
   midi.ControlChangeEvent(tick=201, channel=0, data=[64, 0]),
   midi.ControlChangeEvent(tick=32, channel=0, data=[64, 127]),
   midi.ControlChangeEvent(tick=696, channel=0, data=[64, 0]),
   midi.ControlChangeEvent(tick=52, channel=0, data=[64, 127]),
   midi.ControlChangeEvent(tick=426, channel=0, data=[64, 0]),
   midi.ControlChangeEvent(tick=37, channel=0, data=[64, 127]),
   midi.ControlChangeEvent(tick=960, channel=0, data=[64, 0]),
   midi.ControlChangeEvent(tick=26, channel=0, data=[64, 127]),
   midi.ControlChangeEvent(tick=658, channel=0, data=[64, 0]),
   midi.ControlChangeEvent(tick=30, channel=0, data=[64, 127]),
   midi.ControlChangeEvent(tick=458, channel=0, data=[64, 0]),
   midi.ControlChangeEvent(tick=42, channel=0, data=[64, 127]),
   midi.ControlChangeEvent(tick=916, channel=0, data=[64, 0]),
   midi.ControlChangeEvent(tick=50, channel=0, data=[64, 127]),
   midi.ControlChangeEvent(tick=670, channel=0, data=[64, 0]),
   midi.ControlChangeEvent(tick=47, channel=0, data=[64, 127]),
   midi.ControlChangeEvent(tick=672, channel=0, data=[64, 0]),
   midi.ControlChangeEvent(tick=68, channel=0, data=[64, 127]),
   midi.ControlChangeEvent(tick=651, channel=0, data=[64, 0]),
   midi.ControlChangeEvent(tick=38, channel=0, data=[64, 127]),
   midi.ControlChangeEvent(tick=683, channel=0, data=[64, 0]),
   midi.ControlChangeEvent(tick=68, channel=0, data=[64, 127]),
   midi.ControlChangeEvent(tick=651, channel=0, data=[64, 0]),
   midi.ControlChangeEvent(tick=38, channel=0, data=[64, 127]),
   midi.ControlChangeEvent(tick=681, channel=0, data=[64, 0]),
   midi.ControlChangeEvent(tick=30, channel=0, data=[64, 127]),
   midi.ControlChangeEvent(tick=203, channel=0, data=[64, 0]),
   midi.ControlChangeEvent(tick=40, channel=0, data=[64, 127]),
   midi.ControlChangeEvent(tick=203, channel=0, data=[64, 0]),
   midi.ControlChangeEvent(tick=66, channel=0, data=[64, 127]),
   midi.ControlChangeEvent(tick=185, channel=0, data=[64, 0]),
   midi.ControlChangeEvent(tick=52, channel=0, data=[64, 127]),
   midi.ControlChangeEvent(tick=680, channel=0, data=[64, 0]),
   midi.ControlChangeEvent(tick=8, channel=0, data=[64, 127]),
   midi.ControlChangeEvent(tick=452, channel=0, data=[64, 0]),
   midi.ControlChangeEvent(tick=500, channel=0, data=[64, 127]),
   midi.ControlChangeEvent(tick=226, channel=0, data=[64, 0]),
   midi.ControlChangeEvent(tick=508, channel=0, data=[64, 127]),
   midi.ControlChangeEvent(tick=205, channel=0, data=[64, 0]),
   midi.ControlChangeEvent(tick=187, channel=0, data=[64, 127]),
   midi.ControlChangeEvent(tick=74, channel=0, data=[64, 0]),
   midi.ControlChangeEvent(tick=114, channel=0, data=[64, 127]),
   midi.ControlChangeEvent(tick=103, channel=0, data=[64, 0]),
   midi.ControlChangeEvent(tick=129, channel=0, data=[64, 127]),
   midi.ControlChangeEvent(tick=114, channel=0, data=[64, 0]),
   midi.ControlChangeEvent(tick=137, channel=0, data=[64, 127]),
   midi.ControlChangeEvent(tick=94, channel=0, data=[64, 0]),
   midi.ControlChangeEvent(tick=177, channel=0, data=[64, 127]),
   midi.ControlChangeEvent(tick=551, channel=0, data=[64, 0]),
   midi.ControlChangeEvent(tick=32, channel=0, data=[64, 127]),
   midi.ControlChangeEvent(tick=691, channel=0, data=[64, 0]),
   midi.ControlChangeEvent(tick=41, channel=0, data=[64, 127]),
   midi.ControlChangeEvent(tick=685, channel=0, data=[64, 0]),
   midi.ControlChangeEvent(tick=43, channel=0, data=[64, 127]),
   midi.ControlChangeEvent(tick=660, channel=0, data=[64, 0]),
   midi.ControlChangeEvent(tick=40, channel=0, data=[64, 127]),
   midi.ControlChangeEvent(tick=688, channel=0, data=[64, 0]),
   midi.ControlChangeEvent(tick=32, channel=0, data=[64, 127]),
   midi.ControlChangeEvent(tick=691, channel=0, data=[64, 0]),
   midi.ControlChangeEvent(tick=41, channel=0, data=[64, 127]),
   midi.ControlChangeEvent(tick=685, channel=0, data=[64, 0]),
   midi.ControlChangeEvent(tick=43, channel=0, data=[64, 127]),
   midi.ControlChangeEvent(tick=667, channel=0, data=[64, 0]),
   midi.ControlChangeEvent(tick=64, channel=0, data=[64, 127]),
   midi.ControlChangeEvent(tick=177, channel=0, data=[64, 0]),
   midi.ControlChangeEvent(tick=61, channel=0, data=[64, 127]),
   midi.ControlChangeEvent(tick=1388, channel=0, data=[64, 0]),
   midi.ControlChangeEvent(tick=40, channel=0, data=[64, 127]),
   midi.ControlChangeEvent(tick=1359, channel=0, data=[64, 0]),
   midi.ControlChangeEvent(tick=34, channel=0, data=[64, 127]),
   midi.ControlChangeEvent(tick=487, channel=0, data=[64, 0]),
   midi.ControlChangeEvent(tick=38, channel=0, data=[64, 127]),
   midi.ControlChangeEvent(tick=1408, channel=0, data=[64, 0]),
   midi.ControlChangeEvent(tick=25, channel=0, data=[64, 127]),
   midi.ControlChangeEvent(tick=927, channel=0, data=[64, 0]),
   midi.ControlChangeEvent(tick=1945, channel=0, data=[64, 127]),
   midi.ControlChangeEvent(tick=215, channel=0, data=[64, 0]),
   midi.ControlChangeEvent(tick=485, channel=0, data=[64, 127]),
   midi.ControlChangeEvent(tick=237, channel=0, data=[64, 0]),
   midi.ControlChangeEvent(tick=2658, channel=0, data=[64, 127]),
   midi.ControlChangeEvent(tick=2925, channel=0, data=[64, 0]),
   midi.EndOfTrackEvent(tick=0, data=[])])])
midi.write_midifile("creationMidi.mid", pattern)