import midi
pattern=midi.Pattern(format=1, resolution=480, tracks=\
[midi.Track(\
[   midi.ControlChangeEvent(tick=0, channel=0, data=[7, 100]),
   midi.ControlChangeEvent(tick=0, channel=0, data=[10, 64]),
   midi.ControlChangeEvent(tick=0, channel=0, data=[91, 127]),
   midi.NoteOnEvent(tick=1, channel=0, data=[78, 79]),
   midi.NoteOnEvent(tick=0, channel=0, data=[74, 79]),
   midi.NoteOnEvent(tick=0, channel=0, data=[81, 88]),
   midi.NoteOnEvent(tick=239, channel=0, data=[74, 0]),
   midi.NoteOnEvent(tick=0, channel=0, data=[78, 0]),
   midi.NoteOnEvent(tick=0, channel=0, data=[69, 74]),
   midi.NoteOnEvent(tick=240, channel=0, data=[69, 0]),
   midi.NoteOnEvent(tick=0, channel=0, data=[81, 0]),
   midi.NoteOnEvent(tick=0, channel=0, data=[76, 84]),
   midi.NoteOnEvent(tick=0, channel=0, data=[70, 75]),
   midi.NoteOnEvent(tick=0, channel=0, data=[74, 75]),
   midi.NoteOnEvent(tick=240, channel=0, data=[74, 0]),
   midi.NoteOnEvent(tick=0, channel=0, data=[70, 0]),
   midi.NoteOnEvent(tick=0, channel=0, data=[64, 69]),
   midi.NoteOnEvent(tick=240, channel=0, data=[64, 0]),
   midi.NoteOnEvent(tick=0, channel=0, data=[76, 0]),
   midi.NoteOnEvent(tick=0, channel=0, data=[81, 88]),
   midi.NoteOnEvent(tick=0, channel=0, data=[74, 79]),
   midi.NoteOnEvent(tick=0, channel=0, data=[78, 79]),
   midi.NoteOnEvent(tick=240, channel=0, data=[78, 0]),
   midi.NoteOnEvent(tick=0, channel=0, data=[74, 0]),
   midi.NoteOnEvent(tick=0, channel=0, data=[69, 75]),
   midi.NoteOnEvent(tick=240, channel=0, data=[69, 0]),
   midi.NoteOnEvent(tick=0, channel=0, data=[81, 0]),
   midi.NoteOnEvent(tick=0, channel=0, data=[76, 84]),
   midi.NoteOnEvent(tick=0, channel=0, data=[70, 75]),
   midi.NoteOnEvent(tick=0, channel=0, data=[74, 75]),
   midi.NoteOnEvent(tick=240, channel=0, data=[74, 0]),
   midi.NoteOnEvent(tick=0, channel=0, data=[70, 0]),
   midi.NoteOnEvent(tick=0, channel=0, data=[64, 70]),
   midi.NoteOnEvent(tick=240, channel=0, data=[64, 0]),
   midi.NoteOnEvent(tick=0, channel=0, data=[76, 0]),
   midi.NoteOnEvent(tick=0, channel=0, data=[74, 72]),
   midi.NoteOnEvent(tick=60, channel=0, data=[74, 0]),
   midi.NoteOnEvent(tick=60, channel=0, data=[76, 67]),
   midi.NoteOnEvent(tick=60, channel=0, data=[76, 0]),
   midi.NoteOnEvent(tick=60, channel=0, data=[74, 71]),
   midi.NoteOnEvent(tick=60, channel=0, data=[74, 0]),
   midi.NoteOnEvent(tick=60, channel=0, data=[76, 67]),
   midi.NoteOnEvent(tick=60, channel=0, data=[76, 0]),
   midi.NoteOnEvent(tick=60, channel=0, data=[78, 72]),
   midi.NoteOnEvent(tick=120, channel=0, data=[78, 0]),
   midi.NoteOnEvent(tick=120, channel=0, data=[78, 68]),
   midi.NoteOnEvent(tick=120, channel=0, data=[78, 0]),
   midi.NoteOnEvent(tick=120, channel=0, data=[76, 73]),
   midi.NoteOnEvent(tick=0, channel=0, data=[67, 66]),
   midi.NoteOnEvent(tick=0, channel=0, data=[74, 66]),
   midi.NoteOnEvent(tick=240, channel=0, data=[76, 0]),
   midi.NoteOnEvent(tick=0, channel=0, data=[79, 69]),
   midi.NoteOnEvent(tick=240, channel=0, data=[79, 0]),
   midi.NoteOnEvent(tick=0, channel=0, data=[74, 0]),
   midi.NoteOnEvent(tick=0, channel=0, data=[67, 0]),
   midi.NoteOnEvent(tick=0, channel=0, data=[73, 64]),
   midi.NoteOnEvent(tick=0, channel=0, data=[76, 72]),
   midi.NoteOnEvent(tick=240, channel=0, data=[73, 0]),
   midi.NoteOnEvent(tick=0, channel=0, data=[69, 68]),
   midi.NoteOnEvent(tick=240, channel=0, data=[69, 0]),
   midi.NoteOnEvent(tick=0, channel=0, data=[76, 0]),
   midi.NoteOnEvent(tick=0, channel=0, data=[81, 88]),
   midi.NoteOnEvent(tick=0, channel=0, data=[74, 79]),
   midi.NoteOnEvent(tick=0, channel=0, data=[78, 79]),
   midi.NoteOnEvent(tick=240, channel=0, data=[78, 0]),
   midi.NoteOnEvent(tick=0, channel=0, data=[74, 0]),
   midi.NoteOnEvent(tick=0, channel=0, data=[69, 75]),
   midi.NoteOnEvent(tick=240, channel=0, data=[69, 0]),
   midi.NoteOnEvent(tick=0, channel=0, data=[81, 0]),
   midi.NoteOnEvent(tick=0, channel=0, data=[76, 84]),
   midi.NoteOnEvent(tick=0, channel=0, data=[70, 75]),
   midi.NoteOnEvent(tick=0, channel=0, data=[74, 75]),
   midi.NoteOnEvent(tick=240, channel=0, data=[74, 0]),
   midi.NoteOnEvent(tick=0, channel=0, data=[70, 0]),
   midi.NoteOnEvent(tick=0, channel=0, data=[64, 73]),
   midi.NoteOnEvent(tick=240, channel=0, data=[64, 0]),
   midi.NoteOnEvent(tick=0, channel=0, data=[76, 0]),
   midi.NoteOnEvent(tick=0, channel=0, data=[81, 88]),
   midi.NoteOnEvent(tick=0, channel=0, data=[74, 79]),
   midi.NoteOnEvent(tick=0, channel=0, data=[78, 79]),
   midi.NoteOnEvent(tick=240, channel=0, data=[78, 0]),
   midi.NoteOnEvent(tick=0, channel=0, data=[74, 0]),
   midi.NoteOnEvent(tick=0, channel=0, data=[69, 75]),
   midi.NoteOnEvent(tick=240, channel=0, data=[69, 0]),
   midi.NoteOnEvent(tick=0, channel=0, data=[81, 0]),
   midi.NoteOnEvent(tick=0, channel=0, data=[76, 84]),
   midi.NoteOnEvent(tick=0, channel=0, data=[70, 75]),
   midi.NoteOnEvent(tick=0, channel=0, data=[74, 75]),
   midi.NoteOnEvent(tick=240, channel=0, data=[74, 0]),
   midi.NoteOnEvent(tick=0, channel=0, data=[70, 0]),
   midi.NoteOnEvent(tick=0, channel=0, data=[64, 72]),
   midi.NoteOnEvent(tick=240, channel=0, data=[64, 0]),
   midi.NoteOnEvent(tick=0, channel=0, data=[76, 0]),
   midi.NoteOnEvent(tick=0, channel=0, data=[74, 77]),
   midi.NoteOnEvent(tick=60, channel=0, data=[74, 0]),
   midi.NoteOnEvent(tick=60, channel=0, data=[76, 73]),
   midi.NoteOnEvent(tick=60, channel=0, data=[76, 0]),
   midi.NoteOnEvent(tick=60, channel=0, data=[74, 78]),
   midi.NoteOnEvent(tick=60, channel=0, data=[74, 0]),
   midi.NoteOnEvent(tick=60, channel=0, data=[76, 73]),
   midi.NoteOnEvent(tick=60, channel=0, data=[76, 0]),
   midi.NoteOnEvent(tick=60, channel=0, data=[78, 80]),
   midi.NoteOnEvent(tick=120, channel=0, data=[78, 0]),
   midi.NoteOnEvent(tick=120, channel=0, data=[78, 72]),
   midi.NoteOnEvent(tick=120, channel=0, data=[78, 0]),
   midi.NoteOnEvent(tick=120, channel=0, data=[74, 80]),
   midi.NoteOnEvent(tick=0, channel=0, data=[76, 80]),
   midi.NoteOnEvent(tick=60, channel=0, data=[76, 0]),
   midi.NoteOnEvent(tick=0, channel=0, data=[74, 0]),
   midi.NoteOnEvent(tick=60, channel=0, data=[78, 81]),
   midi.NoteOnEvent(tick=60, channel=0, data=[78, 0]),
   midi.NoteOnEvent(tick=60, channel=0, data=[79, 83]),
   midi.NoteOnEvent(tick=60, channel=0, data=[79, 0]),
   midi.NoteOnEvent(tick=60, channel=0, data=[81, 85]),
   midi.NoteOnEvent(tick=60, channel=0, data=[81, 0]),
   midi.NoteOnEvent(tick=60, channel=0, data=[82, 86]),
   midi.NoteOnEvent(tick=240, channel=0, data=[82, 0]),
   midi.NoteOnEvent(tick=360, channel=0, data=[61, 42]),
   midi.NoteOnEvent(tick=0, channel=0, data=[63, 42]),
   midi.NoteOnEvent(tick=120, channel=0, data=[63, 0]),
   midi.NoteOnEvent(tick=0, channel=0, data=[61, 0]),
   midi.NoteOnEvent(tick=120, channel=0, data=[61, 42]),
   midi.NoteOnEvent(tick=0, channel=0, data=[63, 42]),
   midi.NoteOnEvent(tick=120, channel=0, data=[63, 0]),
   midi.NoteOnEvent(tick=0, channel=0, data=[61, 0]),
   midi.NoteOnEvent(tick=0, channel=0, data=[60, 47]),
   midi.NoteOnEvent(tick=240, channel=0, data=[72, 42]),
   midi.NoteOnEvent(tick=0, channel=0, data=[63, 42]),
   midi.NoteOnEvent(tick=240, channel=0, data=[63, 0]),
   midi.NoteOnEvent(tick=0, channel=0, data=[72, 0]),
   midi.NoteOnEvent(tick=0, channel=0, data=[60, 0]),
   midi.NoteOnEvent(tick=120, channel=0, data=[63, 46]),
   midi.NoteOnEvent(tick=0, channel=0, data=[65, 46]),
   midi.NoteOnEvent(tick=120, channel=0, data=[65, 0]),
   midi.NoteOnEvent(tick=0, channel=0, data=[63, 0]),
   midi.NoteOnEvent(tick=120, channel=0, data=[63, 46]),
   midi.NoteOnEvent(tick=0, channel=0, data=[65, 46]),
   midi.NoteOnEvent(tick=120, channel=0, data=[65, 0]),
   midi.NoteOnEvent(tick=0, channel=0, data=[63, 0]),
   midi.NoteOnEvent(tick=0, channel=0, data=[62, 52]),
   midi.NoteOnEvent(tick=240, channel=0, data=[74, 47]),
   midi.NoteOnEvent(tick=0, channel=0, data=[65, 41]),
   midi.NoteOnEvent(tick=240, channel=0, data=[65, 0]),
   midi.NoteOnEvent(tick=0, channel=0, data=[74, 0]),
   midi.NoteOnEvent(tick=0, channel=0, data=[62, 0]),
   midi.NoteOnEvent(tick=0, channel=0, data=[62, 49]),
   midi.NoteOnEvent(tick=240, channel=0, data=[67, 38]),
   midi.NoteOnEvent(tick=0, channel=0, data=[74, 41]),
   midi.NoteOnEvent(tick=0, channel=0, data=[65, 38]),
   midi.NoteOnEvent(tick=240, channel=0, data=[65, 0]),
   midi.NoteOnEvent(tick=0, channel=0, data=[62, 0]),
   midi.NoteOnEvent(tick=0, channel=0, data=[67, 0]),
   midi.NoteOnEvent(tick=0, channel=0, data=[74, 0]),
   midi.NoteOnEvent(tick=0, channel=0, data=[63, 50]),
   midi.NoteOnEvent(tick=240, channel=0, data=[75, 43]),
   midi.NoteOnEvent(tick=0, channel=0, data=[67, 38]),
   midi.NoteOnEvent(tick=240, channel=0, data=[67, 0]),
   midi.NoteOnEvent(tick=0, channel=0, data=[75, 0]),
   midi.NoteOnEvent(tick=0, channel=0, data=[63, 0]),
   midi.NoteOnEvent(tick=0, channel=0, data=[65, 54]),
   midi.NoteOnEvent(tick=240, channel=0, data=[71, 38]),
   midi.NoteOnEvent(tick=0, channel=0, data=[79, 43]),
   midi.NoteOnEvent(tick=240, channel=0, data=[79, 0]),
   midi.NoteOnEvent(tick=0, channel=0, data=[71, 0]),
   midi.NoteOnEvent(tick=0, channel=0, data=[65, 0]),
   midi.NoteOnEvent(tick=0, channel=0, data=[63, 53]),
   midi.NoteOnEvent(tick=240, channel=0, data=[75, 45]),
   midi.NoteOnEvent(tick=0, channel=0, data=[67, 40]),
   midi.NoteOnEvent(tick=240, channel=0, data=[67, 0]),
   midi.NoteOnEvent(tick=0, channel=0, data=[75, 0]),
   midi.NoteOnEvent(tick=0, channel=0, data=[63, 0]),
   midi.NoteOnEvent(tick=120, channel=0, data=[65, 47]),
   midi.NoteOnEvent(tick=0, channel=0, data=[67, 47]),
   midi.NoteOnEvent(tick=120, channel=0, data=[67, 0]),
   midi.NoteOnEvent(tick=0, channel=0, data=[65, 0]),
   midi.NoteOnEvent(tick=120, channel=0, data=[65, 48]),
   midi.NoteOnEvent(tick=0, channel=0, data=[67, 48]),
   midi.NoteOnEvent(tick=120, channel=0, data=[67, 0]),
   midi.NoteOnEvent(tick=0, channel=0, data=[65, 0]),
   midi.NoteOnEvent(tick=0, channel=0, data=[64, 53]),
   midi.NoteOnEvent(tick=240, channel=0, data=[76, 48]),
   midi.NoteOnEvent(tick=0, channel=0, data=[67, 43]),
   midi.NoteOnEvent(tick=240, channel=0, data=[67, 0]),
   midi.NoteOnEvent(tick=0, channel=0, data=[76, 0]),
   midi.NoteOnEvent(tick=0, channel=0, data=[64, 0]),
   midi.NoteOnEvent(tick=120, channel=0, data=[67, 53]),
   midi.NoteOnEvent(tick=0, channel=0, data=[69, 53]),
   midi.NoteOnEvent(tick=120, channel=0, data=[69, 0]),
   midi.NoteOnEvent(tick=0, channel=0, data=[67, 0]),
   midi.NoteOnEvent(tick=120, channel=0, data=[67, 53]),
   midi.NoteOnEvent(tick=0, channel=0, data=[69, 53]),
   midi.NoteOnEvent(tick=120, channel=0, data=[69, 0]),
   midi.NoteOnEvent(tick=0, channel=0, data=[67, 0]),
   midi.NoteOnEvent(tick=0, channel=0, data=[65, 58]),
   midi.NoteOnEvent(tick=240, channel=0, data=[77, 53]),
   midi.NoteOnEvent(tick=0, channel=0, data=[69, 47]),
   midi.NoteOnEvent(tick=240, channel=0, data=[69, 0]),
   midi.NoteOnEvent(tick=0, channel=0, data=[77, 0]),
   midi.NoteOnEvent(tick=0, channel=0, data=[65, 0]),
   midi.NoteOnEvent(tick=0, channel=0, data=[64, 58]),
   midi.NoteOnEvent(tick=240, channel=0, data=[67, 44]),
   midi.NoteOnEvent(tick=0, channel=0, data=[76, 49]),
   midi.NoteOnEvent(tick=0, channel=0, data=[69, 44]),
   midi.NoteOnEvent(tick=240, channel=0, data=[69, 0]),
   midi.NoteOnEvent(tick=0, channel=0, data=[64, 0]),
   midi.NoteOnEvent(tick=0, channel=0, data=[67, 0]),
   midi.NoteOnEvent(tick=0, channel=0, data=[76, 0]),
   midi.NoteOnEvent(tick=0, channel=0, data=[65, 59]),
   midi.NoteOnEvent(tick=240, channel=0, data=[77, 52]),
   midi.NoteOnEvent(tick=0, channel=0, data=[69, 46]),
   midi.NoteOnEvent(tick=240, channel=0, data=[69, 0]),
   midi.NoteOnEvent(tick=0, channel=0, data=[77, 0]),
   midi.NoteOnEvent(tick=0, channel=0, data=[65, 0]),
   midi.NoteOnEvent(tick=0, channel=0, data=[67, 65]),
   midi.NoteOnEvent(tick=240, channel=0, data=[73, 46]),
   midi.NoteOnEvent(tick=0, channel=0, data=[81, 53]),
   midi.NoteOnEvent(tick=240, channel=0, data=[81, 0]),
   midi.NoteOnEvent(tick=0, channel=0, data=[73, 0]),
   midi.NoteOnEvent(tick=0, channel=0, data=[67, 0]),
   midi.NoteOnEvent(tick=0, channel=0, data=[65, 62]),
   midi.NoteOnEvent(tick=240, channel=0, data=[77, 55]),
   midi.NoteOnEvent(tick=0, channel=0, data=[69, 48]),
   midi.NoteOnEvent(tick=240, channel=0, data=[69, 0]),
   midi.NoteOnEvent(tick=0, channel=0, data=[77, 0]),
   midi.NoteOnEvent(tick=0, channel=0, data=[65, 0]),
   midi.NoteOnEvent(tick=0, channel=0, data=[64, 66]),
   midi.NoteOnEvent(tick=240, channel=0, data=[69, 50]),
   midi.NoteOnEvent(tick=0, channel=0, data=[76, 57]),
   midi.NoteOnEvent(tick=0, channel=0, data=[67, 50]),
   midi.NoteOnEvent(tick=240, channel=0, data=[67, 0]),
   midi.NoteOnEvent(tick=0, channel=0, data=[64, 0]),
   midi.NoteOnEvent(tick=0, channel=0, data=[69, 0]),
   midi.NoteOnEvent(tick=0, channel=0, data=[76, 0]),
   midi.NoteOnEvent(tick=0, channel=0, data=[65, 66]),
   midi.NoteOnEvent(tick=240, channel=0, data=[77, 57]),
   midi.NoteOnEvent(tick=0, channel=0, data=[69, 50]),
   midi.NoteOnEvent(tick=240, channel=0, data=[69, 0]),
   midi.NoteOnEvent(tick=0, channel=0, data=[77, 0]),
   midi.NoteOnEvent(tick=0, channel=0, data=[65, 0]),
   midi.NoteOnEvent(tick=0, channel=0, data=[69, 70]),
   midi.NoteOnEvent(tick=240, channel=0, data=[78, 50]),
   midi.NoteOnEvent(tick=0, channel=0, data=[83, 57]),
   midi.NoteOnEvent(tick=240, channel=0, data=[83, 0]),
   midi.NoteOnEvent(tick=0, channel=0, data=[78, 0]),
   midi.NoteOnEvent(tick=0, channel=0, data=[69, 0]),
   midi.NoteOnEvent(tick=0, channel=0, data=[67, 67]),
   midi.NoteOnEvent(tick=240, channel=0, data=[79, 59]),
   midi.NoteOnEvent(tick=0, channel=0, data=[71, 53]),
   midi.NoteOnEvent(tick=240, channel=0, data=[71, 0]),
   midi.NoteOnEvent(tick=0, channel=0, data=[79, 0]),
   midi.NoteOnEvent(tick=0, channel=0, data=[67, 0]),
   midi.NoteOnEvent(tick=0, channel=0, data=[66, 71]),
   midi.NoteOnEvent(tick=240, channel=0, data=[71, 57]),
   midi.NoteOnEvent(tick=0, channel=0, data=[78, 64]),
   midi.NoteOnEvent(tick=0, channel=0, data=[69, 57]),
   midi.NoteOnEvent(tick=240, channel=0, data=[69, 0]),
   midi.NoteOnEvent(tick=0, channel=0, data=[66, 0]),
   midi.NoteOnEvent(tick=0, channel=0, data=[71, 0]),
   midi.NoteOnEvent(tick=0, channel=0, data=[78, 0]),
   midi.NoteOnEvent(tick=0, channel=0, data=[67, 74]),
   midi.NoteOnEvent(tick=240, channel=0, data=[79, 64]),
   midi.NoteOnEvent(tick=0, channel=0, data=[71, 58]),
   midi.NoteOnEvent(tick=240, channel=0, data=[71, 0]),
   midi.NoteOnEvent(tick=0, channel=0, data=[79, 0]),
   midi.NoteOnEvent(tick=0, channel=0, data=[67, 0]),
   midi.NoteOnEvent(tick=0, channel=0, data=[71, 76]),
   midi.NoteOnEvent(tick=240, channel=0, data=[80, 58]),
   midi.NoteOnEvent(tick=0, channel=0, data=[85, 65]),
   midi.NoteOnEvent(tick=240, channel=0, data=[85, 0]),
   midi.NoteOnEvent(tick=0, channel=0, data=[80, 0]),
   midi.NoteOnEvent(tick=0, channel=0, data=[71, 0]),
   midi.NoteOnEvent(tick=0, channel=0, data=[69, 75]),
   midi.NoteOnEvent(tick=240, channel=0, data=[81, 67]),
   midi.NoteOnEvent(tick=0, channel=0, data=[73, 60]),
   midi.NoteOnEvent(tick=240, channel=0, data=[73, 0]),
   midi.NoteOnEvent(tick=0, channel=0, data=[81, 0]),
   midi.NoteOnEvent(tick=0, channel=0, data=[69, 0]),
   midi.NoteOnEvent(tick=0, channel=0, data=[72, 82]),
   midi.NoteOnEvent(tick=240, channel=0, data=[81, 60]),
   midi.NoteOnEvent(tick=0, channel=0, data=[86, 69]),
   midi.NoteOnEvent(tick=240, channel=0, data=[86, 0]),
   midi.NoteOnEvent(tick=0, channel=0, data=[81, 0]),
   midi.NoteOnEvent(tick=0, channel=0, data=[72, 0]),
   midi.NoteOnEvent(tick=0, channel=0, data=[71, 78]),
   midi.NoteOnEvent(tick=240, channel=0, data=[83, 72]),
   midi.NoteOnEvent(tick=0, channel=0, data=[74, 65]),
   midi.NoteOnEvent(tick=240, channel=0, data=[74, 0]),
   midi.NoteOnEvent(tick=0, channel=0, data=[83, 0]),
   midi.NoteOnEvent(tick=0, channel=0, data=[71, 0]),
   midi.NoteOnEvent(tick=0, channel=0, data=[72, 83]),
   midi.NoteOnEvent(tick=240, channel=0, data=[81, 61]),
   midi.NoteOnEvent(tick=0, channel=0, data=[86, 70]),
   midi.NoteOnEvent(tick=240, channel=0, data=[86, 0]),
   midi.NoteOnEvent(tick=0, channel=0, data=[81, 0]),
   midi.NoteOnEvent(tick=0, channel=0, data=[72, 0]),
   midi.NoteOnEvent(tick=0, channel=0, data=[71, 79]),
   midi.NoteOnEvent(tick=240, channel=0, data=[83, 70]),
   midi.NoteOnEvent(tick=0, channel=0, data=[74, 61]),
   midi.NoteOnEvent(tick=240, channel=0, data=[74, 0]),
   midi.NoteOnEvent(tick=0, channel=0, data=[83, 0]),
   midi.NoteOnEvent(tick=0, channel=0, data=[71, 0]),
   midi.NoteOnEvent(tick=0, channel=0, data=[88, 86]),
   midi.NoteOnEvent(tick=60, channel=0, data=[88, 0]),
   midi.NoteOnEvent(tick=60, channel=0, data=[86, 74]),
   midi.NoteOnEvent(tick=60, channel=0, data=[86, 0]),
   midi.NoteOnEvent(tick=60, channel=0, data=[82, 80]),
   midi.NoteOnEvent(tick=60, channel=0, data=[82, 0]),
   midi.NoteOnEvent(tick=60, channel=0, data=[81, 72]),
   midi.NoteOnEvent(tick=60, channel=0, data=[81, 0]),
   midi.NoteOnEvent(tick=60, channel=0, data=[79, 77]),
   midi.NoteOnEvent(tick=120, channel=0, data=[79, 0]),
   midi.NoteOnEvent(tick=360, channel=0, data=[64, 74]),
   midi.NoteOnEvent(tick=60, channel=0, data=[64, 0]),
   midi.NoteOnEvent(tick=60, channel=0, data=[62, 63]),
   midi.NoteOnEvent(tick=60, channel=0, data=[62, 0]),
   midi.NoteOnEvent(tick=60, channel=0, data=[58, 70]),
   midi.NoteOnEvent(tick=60, channel=0, data=[58, 0]),
   midi.NoteOnEvent(tick=60, channel=0, data=[57, 64]),
   midi.NoteOnEvent(tick=60, channel=0, data=[57, 0]),
   midi.NoteOnEvent(tick=60, channel=0, data=[55, 75]),
   midi.NoteOnEvent(tick=120, channel=0, data=[55, 0]),
   midi.NoteOnEvent(tick=840, channel=0, data=[62, 72]),
   midi.NoteOnEvent(tick=0, channel=0, data=[64, 72]),
   midi.NoteOnEvent(tick=720, channel=0, data=[64, 0]),
   midi.NoteOnEvent(tick=0, channel=0, data=[62, 0]),
   midi.NoteOnEvent(tick=0, channel=0, data=[61, 80]),
   midi.NoteOnEvent(tick=0, channel=0, data=[64, 80]),
   midi.NoteOnEvent(tick=0, channel=0, data=[69, 80]),
   midi.NoteOnEvent(tick=180, channel=0, data=[69, 0]),
   midi.NoteOnEvent(tick=0, channel=0, data=[64, 0]),
   midi.NoteOnEvent(tick=0, channel=0, data=[61, 0]),
   midi.NoteOnEvent(tick=60, channel=0, data=[62, 86]),
   midi.NoteOnEvent(tick=0, channel=0, data=[69, 86]),
   midi.NoteOnEvent(tick=0, channel=0, data=[74, 86]),
   midi.NoteOnEvent(tick=240, channel=0, data=[74, 0]),
   midi.NoteOnEvent(tick=0, channel=0, data=[69, 0]),
   midi.NoteOnEvent(tick=0, channel=0, data=[62, 0]),
   midi.NoteOnEvent(tick=240, channel=0, data=[78, 78]),
   midi.NoteOnEvent(tick=60, channel=0, data=[78, 0]),
   midi.NoteOnEvent(tick=60, channel=0, data=[76, 71]),
   midi.NoteOnEvent(tick=60, channel=0, data=[76, 0]),
   midi.NoteOnEvent(tick=60, channel=0, data=[74, 73]),
   midi.NoteOnEvent(tick=60, channel=0, data=[74, 0]),
   midi.NoteOnEvent(tick=60, channel=0, data=[73, 68]),
   midi.NoteOnEvent(tick=60, channel=0, data=[73, 0]),
   midi.NoteOnEvent(tick=60, channel=0, data=[71, 75]),
   midi.NoteOnEvent(tick=240, channel=0, data=[71, 0]),
   midi.NoteOnEvent(tick=0, channel=0, data=[73, 66]),
   midi.NoteOnEvent(tick=240, channel=0, data=[73, 0]),
   midi.NoteOnEvent(tick=0, channel=0, data=[61, 77]),
   midi.NoteOnEvent(tick=240, channel=0, data=[70, 69]),
   midi.NoteOnEvent(tick=0, channel=0, data=[66, 69]),
   midi.NoteOnEvent(tick=240, channel=0, data=[66, 0]),
   midi.NoteOnEvent(tick=0, channel=0, data=[70, 0]),
   midi.NoteOnEvent(tick=0, channel=0, data=[61, 0]),
   midi.NoteOnEvent(tick=0, channel=0, data=[62, 77]),
   midi.NoteOnEvent(tick=240, channel=0, data=[71, 69]),
   midi.NoteOnEvent(tick=0, channel=0, data=[66, 69]),
   midi.NoteOnEvent(tick=240, channel=0, data=[66, 0]),
   midi.NoteOnEvent(tick=0, channel=0, data=[71, 0]),
   midi.NoteOnEvent(tick=0, channel=0, data=[62, 0]),
   midi.NoteOnEvent(tick=0, channel=0, data=[61, 71]),
   midi.NoteOnEvent(tick=120, channel=0, data=[73, 52]),
   midi.NoteOnEvent(tick=120, channel=0, data=[73, 0]),
   midi.NoteOnEvent(tick=0, channel=0, data=[67, 59]),
   midi.NoteOnEvent(tick=120, channel=0, data=[67, 0]),
   midi.NoteOnEvent(tick=0, channel=0, data=[71, 55]),
   midi.NoteOnEvent(tick=120, channel=0, data=[71, 0]),
   midi.NoteOnEvent(tick=0, channel=0, data=[61, 0]),
   midi.NoteOnEvent(tick=0, channel=0, data=[62, 66]),
   midi.NoteOnEvent(tick=120, channel=0, data=[74, 59]),
   midi.NoteOnEvent(tick=120, channel=0, data=[74, 0]),
   midi.NoteOnEvent(tick=0, channel=0, data=[66, 62]),
   midi.NoteOnEvent(tick=120, channel=0, data=[66, 0]),
   midi.NoteOnEvent(tick=0, channel=0, data=[71, 59]),
   midi.NoteOnEvent(tick=120, channel=0, data=[71, 0]),
   midi.NoteOnEvent(tick=0, channel=0, data=[62, 0]),
   midi.NoteOnEvent(tick=0, channel=0, data=[67, 73]),
   midi.NoteOnEvent(tick=120, channel=0, data=[79, 60]),
   midi.NoteOnEvent(tick=120, channel=0, data=[79, 0]),
   midi.NoteOnEvent(tick=0, channel=0, data=[71, 66]),
   midi.NoteOnEvent(tick=120, channel=0, data=[71, 0]),
   midi.NoteOnEvent(tick=0, channel=0, data=[76, 59]),
   midi.NoteOnEvent(tick=120, channel=0, data=[76, 0]),
   midi.NoteOnEvent(tick=0, channel=0, data=[67, 0]),
   midi.NoteOnEvent(tick=0, channel=0, data=[66, 70]),
   midi.NoteOnEvent(tick=120, channel=0, data=[78, 53]),
   midi.NoteOnEvent(tick=120, channel=0, data=[78, 0]),
   midi.NoteOnEvent(tick=0, channel=0, data=[71, 58]),
   midi.NoteOnEvent(tick=120, channel=0, data=[71, 0]),
   midi.NoteOnEvent(tick=0, channel=0, data=[74, 52]),
   midi.NoteOnEvent(tick=120, channel=0, data=[74, 0]),
   midi.NoteOnEvent(tick=0, channel=0, data=[66, 0]),
   midi.NoteOnEvent(tick=0, channel=0, data=[78, 73]),
   midi.NoteOnEvent(tick=60, channel=0, data=[78, 0]),
   midi.NoteOnEvent(tick=60, channel=0, data=[76, 67]),
   midi.NoteOnEvent(tick=60, channel=0, data=[76, 0]),
   midi.NoteOnEvent(tick=60, channel=0, data=[74, 70]),
   midi.NoteOnEvent(tick=60, channel=0, data=[74, 0]),
   midi.NoteOnEvent(tick=60, channel=0, data=[73, 63]),
   midi.NoteOnEvent(tick=60, channel=0, data=[73, 0]),
   midi.NoteOnEvent(tick=60, channel=0, data=[71, 75]),
   midi.NoteOnEvent(tick=240, channel=0, data=[71, 0]),
   midi.NoteOnEvent(tick=0, channel=0, data=[73, 66]),
   midi.NoteOnEvent(tick=240, channel=0, data=[73, 0]),
   midi.NoteOnEvent(tick=0, channel=0, data=[61, 77]),
   midi.NoteOnEvent(tick=240, channel=0, data=[70, 69]),
   midi.NoteOnEvent(tick=0, channel=0, data=[66, 69]),
   midi.NoteOnEvent(tick=240, channel=0, data=[66, 0]),
   midi.NoteOnEvent(tick=0, channel=0, data=[70, 0]),
   midi.NoteOnEvent(tick=0, channel=0, data=[61, 0]),
   midi.NoteOnEvent(tick=0, channel=0, data=[62, 77]),
   midi.NoteOnEvent(tick=240, channel=0, data=[71, 69]),
   midi.NoteOnEvent(tick=0, channel=0, data=[66, 69]),
   midi.NoteOnEvent(tick=240, channel=0, data=[66, 0]),
   midi.NoteOnEvent(tick=0, channel=0, data=[71, 0]),
   midi.NoteOnEvent(tick=0, channel=0, data=[62, 0]),
   midi.NoteOnEvent(tick=0, channel=0, data=[61, 71]),
   midi.NoteOnEvent(tick=120, channel=0, data=[73, 52]),
   midi.NoteOnEvent(tick=120, channel=0, data=[73, 0]),
   midi.NoteOnEvent(tick=0, channel=0, data=[67, 59]),
   midi.NoteOnEvent(tick=120, channel=0, data=[67, 0]),
   midi.NoteOnEvent(tick=0, channel=0, data=[71, 55]),
   midi.NoteOnEvent(tick=120, channel=0, data=[71, 0]),
   midi.NoteOnEvent(tick=0, channel=0, data=[61, 0]),
   midi.NoteOnEvent(tick=0, channel=0, data=[62, 66]),
   midi.NoteOnEvent(tick=120, channel=0, data=[74, 59]),
   midi.NoteOnEvent(tick=120, channel=0, data=[74, 0]),
   midi.NoteOnEvent(tick=0, channel=0, data=[66, 62]),
   midi.NoteOnEvent(tick=120, channel=0, data=[66, 0]),
   midi.NoteOnEvent(tick=0, channel=0, data=[71, 59]),
   midi.NoteOnEvent(tick=120, channel=0, data=[71, 0]),
   midi.NoteOnEvent(tick=0, channel=0, data=[62, 0]),
   midi.NoteOnEvent(tick=0, channel=0, data=[67, 73]),
   midi.NoteOnEvent(tick=120, channel=0, data=[79, 60]),
   midi.NoteOnEvent(tick=120, channel=0, data=[79, 0]),
   midi.NoteOnEvent(tick=0, channel=0, data=[71, 66]),
   midi.NoteOnEvent(tick=120, channel=0, data=[71, 0]),
   midi.NoteOnEvent(tick=0, channel=0, data=[76, 59]),
   midi.NoteOnEvent(tick=120, channel=0, data=[76, 0]),
   midi.NoteOnEvent(tick=0, channel=0, data=[67, 0]),
   midi.NoteOnEvent(tick=0, channel=0, data=[66, 70]),
   midi.NoteOnEvent(tick=120, channel=0, data=[78, 53]),
   midi.NoteOnEvent(tick=120, channel=0, data=[78, 0]),
   midi.NoteOnEvent(tick=0, channel=0, data=[71, 58]),
   midi.NoteOnEvent(tick=120, channel=0, data=[71, 0]),
   midi.NoteOnEvent(tick=0, channel=0, data=[74, 52]),
   midi.NoteOnEvent(tick=120, channel=0, data=[74, 0]),
   midi.NoteOnEvent(tick=0, channel=0, data=[66, 0]),
   midi.NoteOnEvent(tick=240, channel=0, data=[59, 48]),
   midi.NoteOnEvent(tick=0, channel=0, data=[62, 48]),
   midi.NoteOnEvent(tick=480, channel=0, data=[62, 0]),
   midi.NoteOnEvent(tick=0, channel=0, data=[59, 0]),
   midi.NoteOnEvent(tick=0, channel=0, data=[59, 52]),
   midi.NoteOnEvent(tick=0, channel=0, data=[62, 52]),
   midi.NoteOnEvent(tick=480, channel=0, data=[62, 0]),
   midi.NoteOnEvent(tick=0, channel=0, data=[59, 0]),
   midi.NoteOnEvent(tick=0, channel=0, data=[59, 51]),
   midi.NoteOnEvent(tick=0, channel=0, data=[62, 51]),
   midi.NoteOnEvent(tick=480, channel=0, data=[62, 0]),
   midi.NoteOnEvent(tick=0, channel=0, data=[59, 0]),
   midi.NoteOnEvent(tick=0, channel=0, data=[59, 44]),
   midi.NoteOnEvent(tick=0, channel=0, data=[62, 44]),
   midi.NoteOnEvent(tick=60, channel=0, data=[62, 0]),
   midi.NoteOnEvent(tick=0, channel=0, data=[59, 0]),
   midi.NoteOnEvent(tick=180, channel=0, data=[71, 64]),
   midi.NoteOnEvent(tick=60, channel=0, data=[71, 0]),
   midi.NoteOnEvent(tick=60, channel=0, data=[70, 58]),
   midi.NoteOnEvent(tick=60, channel=0, data=[70, 0]),
   midi.NoteOnEvent(tick=60, channel=0, data=[69, 60]),
   midi.NoteOnEvent(tick=60, channel=0, data=[69, 0]),
   midi.NoteOnEvent(tick=60, channel=0, data=[68, 55]),
   midi.NoteOnEvent(tick=60, channel=0, data=[68, 0]),
   midi.NoteOnEvent(tick=60, channel=0, data=[67, 62]),
   midi.NoteOnEvent(tick=60, channel=0, data=[67, 0]),
   midi.NoteOnEvent(tick=180, channel=0, data=[68, 63]),
   midi.NoteOnEvent(tick=240, channel=0, data=[68, 0]),
   midi.NoteOnEvent(tick=0, channel=0, data=[73, 72]),
   midi.NoteOnEvent(tick=240, channel=0, data=[73, 0]),
   midi.NoteOnEvent(tick=0, channel=0, data=[71, 60]),
   midi.NoteOnEvent(tick=240, channel=0, data=[71, 0]),
   midi.NoteOnEvent(tick=0, channel=0, data=[63, 62]),
   midi.NoteOnEvent(tick=240, channel=0, data=[63, 0]),
   midi.NoteOnEvent(tick=0, channel=0, data=[64, 56]),
   midi.NoteOnEvent(tick=60, channel=0, data=[64, 0]),
   midi.NoteOnEvent(tick=420, channel=0, data=[61, 48]),
   midi.NoteOnEvent(tick=0, channel=0, data=[64, 48]),
   midi.NoteOnEvent(tick=480, channel=0, data=[64, 0]),
   midi.NoteOnEvent(tick=0, channel=0, data=[61, 0]),
   midi.NoteOnEvent(tick=0, channel=0, data=[61, 52]),
   midi.NoteOnEvent(tick=0, channel=0, data=[64, 52]),
   midi.NoteOnEvent(tick=480, channel=0, data=[64, 0]),
   midi.NoteOnEvent(tick=0, channel=0, data=[61, 0]),
   midi.NoteOnEvent(tick=0, channel=0, data=[61, 51]),
   midi.NoteOnEvent(tick=0, channel=0, data=[64, 51]),
   midi.NoteOnEvent(tick=480, channel=0, data=[64, 0]),
   midi.NoteOnEvent(tick=0, channel=0, data=[61, 0]),
   midi.NoteOnEvent(tick=0, channel=0, data=[61, 44]),
   midi.NoteOnEvent(tick=0, channel=0, data=[64, 44]),
   midi.NoteOnEvent(tick=120, channel=0, data=[64, 0]),
   midi.NoteOnEvent(tick=0, channel=0, data=[61, 0]),
   midi.NoteOnEvent(tick=120, channel=0, data=[73, 64]),
   midi.NoteOnEvent(tick=60, channel=0, data=[73, 0]),
   midi.NoteOnEvent(tick=60, channel=0, data=[72, 58]),
   midi.NoteOnEvent(tick=60, channel=0, data=[72, 0]),
   midi.NoteOnEvent(tick=60, channel=0, data=[71, 60]),
   midi.NoteOnEvent(tick=60, channel=0, data=[71, 0]),
   midi.NoteOnEvent(tick=60, channel=0, data=[70, 55]),
   midi.NoteOnEvent(tick=60, channel=0, data=[70, 0]),
   midi.NoteOnEvent(tick=60, channel=0, data=[69, 62]),
   midi.NoteOnEvent(tick=60, channel=0, data=[69, 0]),
   midi.NoteOnEvent(tick=180, channel=0, data=[70, 63]),
   midi.NoteOnEvent(tick=240, channel=0, data=[70, 0]),
   midi.NoteOnEvent(tick=0, channel=0, data=[74, 72]),
   midi.NoteOnEvent(tick=240, channel=0, data=[74, 0]),
   midi.NoteOnEvent(tick=0, channel=0, data=[73, 60]),
   midi.NoteOnEvent(tick=240, channel=0, data=[73, 0]),
   midi.NoteOnEvent(tick=0, channel=0, data=[65, 62]),
   midi.NoteOnEvent(tick=240, channel=0, data=[65, 0]),
   midi.NoteOnEvent(tick=0, channel=0, data=[66, 56]),
   midi.NoteOnEvent(tick=60, channel=0, data=[66, 0]),
   midi.NoteOnEvent(tick=180, channel=0, data=[71, 83]),
   midi.NoteOnEvent(tick=60, channel=0, data=[71, 0]),
   midi.NoteOnEvent(tick=60, channel=0, data=[73, 74]),
   midi.NoteOnEvent(tick=60, channel=0, data=[73, 0]),
   midi.NoteOnEvent(tick=60, channel=0, data=[74, 80]),
   midi.NoteOnEvent(tick=60, channel=0, data=[74, 0]),
   midi.NoteOnEvent(tick=60, channel=0, data=[76, 73]),
   midi.NoteOnEvent(tick=60, channel=0, data=[76, 0]),
   midi.NoteOnEvent(tick=60, channel=0, data=[78, 85]),
   midi.NoteOnEvent(tick=60, channel=0, data=[78, 0]),
   midi.NoteOnEvent(tick=180, channel=0, data=[74, 70]),
   midi.NoteOnEvent(tick=0, channel=0, data=[71, 70]),
   midi.NoteOnEvent(tick=0, channel=0, data=[67, 70]),
   midi.NoteOnEvent(tick=0, channel=0, data=[79, 80]),
   midi.NoteOnEvent(tick=180, channel=0, data=[79, 0]),
   midi.NoteOnEvent(tick=0, channel=0, data=[74, 0]),
   midi.NoteOnEvent(tick=0, channel=0, data=[71, 0]),
   midi.NoteOnEvent(tick=0, channel=0, data=[67, 0]),
   midi.NoteOnEvent(tick=60, channel=0, data=[65, 84]),
   midi.NoteOnEvent(tick=240, channel=0, data=[77, 78]),
   midi.NoteOnEvent(tick=240, channel=0, data=[77, 0]),
   midi.NoteOnEvent(tick=0, channel=0, data=[65, 0]),
   midi.NoteOnEvent(tick=0, channel=0, data=[66, 85]),
   midi.NoteOnEvent(tick=240, channel=0, data=[78, 77]),
   midi.NoteOnEvent(tick=240, channel=0, data=[78, 0]),
   midi.NoteOnEvent(tick=0, channel=0, data=[66, 0]),
   midi.NoteOnEvent(tick=0, channel=0, data=[71, 83]),
   midi.NoteOnEvent(tick=60, channel=0, data=[71, 0]),
   midi.NoteOnEvent(tick=60, channel=0, data=[73, 77]),
   midi.NoteOnEvent(tick=60, channel=0, data=[73, 0]),
   midi.NoteOnEvent(tick=60, channel=0, data=[74, 80]),
   midi.NoteOnEvent(tick=60, channel=0, data=[74, 0]),
   midi.NoteOnEvent(tick=60, channel=0, data=[76, 75]),
   midi.NoteOnEvent(tick=60, channel=0, data=[76, 0]),
   midi.NoteOnEvent(tick=60, channel=0, data=[78, 85]),
   midi.NoteOnEvent(tick=60, channel=0, data=[78, 0]),
   midi.NoteOnEvent(tick=180, channel=0, data=[67, 70]),
   midi.NoteOnEvent(tick=0, channel=0, data=[71, 70]),
   midi.NoteOnEvent(tick=0, channel=0, data=[74, 70]),
   midi.NoteOnEvent(tick=0, channel=0, data=[79, 80]),
   midi.NoteOnEvent(tick=180, channel=0, data=[79, 0]),
   midi.NoteOnEvent(tick=0, channel=0, data=[67, 0]),
   midi.NoteOnEvent(tick=0, channel=0, data=[71, 0]),
   midi.NoteOnEvent(tick=0, channel=0, data=[74, 0]),
   midi.NoteOnEvent(tick=60, channel=0, data=[65, 84]),
   midi.NoteOnEvent(tick=240, channel=0, data=[77, 78]),
   midi.NoteOnEvent(tick=240, channel=0, data=[77, 0]),
   midi.NoteOnEvent(tick=0, channel=0, data=[65, 0]),
   midi.NoteOnEvent(tick=0, channel=0, data=[66, 85]),
   midi.NoteOnEvent(tick=240, channel=0, data=[78, 77]),
   midi.NoteOnEvent(tick=240, channel=0, data=[78, 0]),
   midi.NoteOnEvent(tick=0, channel=0, data=[66, 0]),
   midi.NoteOnEvent(tick=0, channel=0, data=[74, 83]),
   midi.NoteOnEvent(tick=60, channel=0, data=[74, 0]),
   midi.NoteOnEvent(tick=60, channel=0, data=[76, 74]),
   midi.NoteOnEvent(tick=60, channel=0, data=[76, 0]),
   midi.NoteOnEvent(tick=60, channel=0, data=[78, 80]),
   midi.NoteOnEvent(tick=60, channel=0, data=[78, 0]),
   midi.NoteOnEvent(tick=60, channel=0, data=[79, 75]),
   midi.NoteOnEvent(tick=60, channel=0, data=[79, 0]),
   midi.NoteOnEvent(tick=60, channel=0, data=[81, 85]),
   midi.NoteOnEvent(tick=60, channel=0, data=[81, 0]),
   midi.NoteOnEvent(tick=180, channel=0, data=[70, 71]),
   midi.NoteOnEvent(tick=0, channel=0, data=[82, 81]),
   midi.NoteOnEvent(tick=0, channel=0, data=[77, 71]),
   midi.NoteOnEvent(tick=0, channel=0, data=[74, 71]),
   midi.NoteOnEvent(tick=180, channel=0, data=[74, 0]),
   midi.NoteOnEvent(tick=0, channel=0, data=[70, 0]),
   midi.NoteOnEvent(tick=0, channel=0, data=[82, 0]),
   midi.NoteOnEvent(tick=0, channel=0, data=[77, 0]),
   midi.NoteOnEvent(tick=60, channel=0, data=[68, 84]),
   midi.NoteOnEvent(tick=240, channel=0, data=[80, 78]),
   midi.NoteOnEvent(tick=240, channel=0, data=[80, 0]),
   midi.NoteOnEvent(tick=0, channel=0, data=[68, 0]),
   midi.NoteOnEvent(tick=0, channel=0, data=[69, 85]),
   midi.NoteOnEvent(tick=240, channel=0, data=[81, 77]),
   midi.NoteOnEvent(tick=240, channel=0, data=[81, 0]),
   midi.NoteOnEvent(tick=0, channel=0, data=[69, 0]),
   midi.NoteOnEvent(tick=0, channel=0, data=[74, 83]),
   midi.NoteOnEvent(tick=60, channel=0, data=[74, 0]),
   midi.NoteOnEvent(tick=60, channel=0, data=[76, 75]),
   midi.NoteOnEvent(tick=60, channel=0, data=[76, 0]),
   midi.NoteOnEvent(tick=60, channel=0, data=[78, 80]),
   midi.NoteOnEvent(tick=60, channel=0, data=[78, 0]),
   midi.NoteOnEvent(tick=60, channel=0, data=[79, 75]),
   midi.NoteOnEvent(tick=60, channel=0, data=[79, 0]),
   midi.NoteOnEvent(tick=60, channel=0, data=[81, 85]),
   midi.NoteOnEvent(tick=60, channel=0, data=[81, 0]),
   midi.NoteOnEvent(tick=180, channel=0, data=[77, 71]),
   midi.NoteOnEvent(tick=0, channel=0, data=[82, 81]),
   midi.NoteOnEvent(tick=0, channel=0, data=[70, 71]),
   midi.NoteOnEvent(tick=0, channel=0, data=[74, 71]),
   midi.NoteOnEvent(tick=180, channel=0, data=[74, 0]),
   midi.NoteOnEvent(tick=0, channel=0, data=[77, 0]),
   midi.NoteOnEvent(tick=0, channel=0, data=[82, 0]),
   midi.NoteOnEvent(tick=0, channel=0, data=[70, 0]),
   midi.NoteOnEvent(tick=60, channel=0, data=[68, 84]),
   midi.NoteOnEvent(tick=240, channel=0, data=[80, 78]),
   midi.NoteOnEvent(tick=240, channel=0, data=[80, 0]),
   midi.NoteOnEvent(tick=0, channel=0, data=[68, 0]),
   midi.NoteOnEvent(tick=0, channel=0, data=[69, 85]),
   midi.NoteOnEvent(tick=240, channel=0, data=[81, 77]),
   midi.NoteOnEvent(tick=240, channel=0, data=[81, 0]),
   midi.NoteOnEvent(tick=0, channel=0, data=[69, 0]),
   midi.NoteOnEvent(tick=0, channel=0, data=[68, 84]),
   midi.NoteOnEvent(tick=240, channel=0, data=[80, 78]),
   midi.NoteOnEvent(tick=240, channel=0, data=[80, 0]),
   midi.NoteOnEvent(tick=0, channel=0, data=[68, 0]),
   midi.NoteOnEvent(tick=0, channel=0, data=[69, 85]),
   midi.NoteOnEvent(tick=240, channel=0, data=[81, 77]),
   midi.NoteOnEvent(tick=240, channel=0, data=[81, 0]),
   midi.NoteOnEvent(tick=0, channel=0, data=[69, 0]),
   midi.NoteOnEvent(tick=0, channel=0, data=[70, 84]),
   midi.NoteOnEvent(tick=240, channel=0, data=[82, 78]),
   midi.NoteOnEvent(tick=240, channel=0, data=[82, 0]),
   midi.NoteOnEvent(tick=0, channel=0, data=[70, 0]),
   midi.NoteOnEvent(tick=0, channel=0, data=[64, 85]),
   midi.NoteOnEvent(tick=240, channel=0, data=[76, 77]),
   midi.NoteOnEvent(tick=240, channel=0, data=[76, 0]),
   midi.NoteOnEvent(tick=0, channel=0, data=[64, 0]),
   midi.NoteOnEvent(tick=0, channel=0, data=[67, 84]),
   midi.NoteOnEvent(tick=240, channel=0, data=[79, 78]),
   midi.NoteOnEvent(tick=240, channel=0, data=[79, 0]),
   midi.NoteOnEvent(tick=0, channel=0, data=[67, 0]),
   midi.NoteOnEvent(tick=0, channel=0, data=[58, 85]),
   midi.NoteOnEvent(tick=240, channel=0, data=[70, 77]),
   midi.NoteOnEvent(tick=240, channel=0, data=[70, 0]),
   midi.NoteOnEvent(tick=0, channel=0, data=[58, 0]),
   midi.NoteOnEvent(tick=0, channel=0, data=[62, 84]),
   midi.NoteOnEvent(tick=240, channel=0, data=[74, 78]),
   midi.NoteOnEvent(tick=240, channel=0, data=[74, 0]),
   midi.NoteOnEvent(tick=0, channel=0, data=[62, 0]),
   midi.NoteOnEvent(tick=0, channel=0, data=[57, 85]),
   midi.NoteOnEvent(tick=240, channel=0, data=[69, 77]),
   midi.NoteOnEvent(tick=240, channel=0, data=[69, 0]),
   midi.NoteOnEvent(tick=0, channel=0, data=[57, 0]),
   midi.NoteOnEvent(tick=480, channel=0, data=[51, 69]),
   midi.NoteOnEvent(tick=120, channel=0, data=[52, 61]),
   midi.NoteOnEvent(tick=20, channel=0, data=[51, 0]),
   midi.NoteOnEvent(tick=100, channel=0, data=[56, 66]),
   midi.NoteOnEvent(tick=20, channel=0, data=[52, 0]),
   midi.NoteOnEvent(tick=100, channel=0, data=[57, 60]),
   midi.NoteOnEvent(tick=20, channel=0, data=[56, 0]),
   midi.NoteOnEvent(tick=100, channel=0, data=[57, 0]),
   midi.NoteOnEvent(tick=480, channel=0, data=[63, 72]),
   midi.NoteOnEvent(tick=120, channel=0, data=[64, 64]),
   midi.NoteOnEvent(tick=20, channel=0, data=[63, 0]),
   midi.NoteOnEvent(tick=100, channel=0, data=[68, 70]),
   midi.NoteOnEvent(tick=20, channel=0, data=[64, 0]),
   midi.NoteOnEvent(tick=100, channel=0, data=[69, 64]),
   midi.NoteOnEvent(tick=20, channel=0, data=[68, 0]),
   midi.NoteOnEvent(tick=100, channel=0, data=[69, 0]),
   midi.NoteOnEvent(tick=480, channel=0, data=[75, 74]),
   midi.NoteOnEvent(tick=120, channel=0, data=[76, 64]),
   midi.NoteOnEvent(tick=20, channel=0, data=[75, 0]),
   midi.NoteOnEvent(tick=100, channel=0, data=[80, 74]),
   midi.NoteOnEvent(tick=20, channel=0, data=[76, 0]),
   midi.NoteOnEvent(tick=100, channel=0, data=[81, 69]),
   midi.NoteOnEvent(tick=20, channel=0, data=[80, 0]),
   midi.NoteOnEvent(tick=100, channel=0, data=[81, 0]),
   midi.NoteOnEvent(tick=480, channel=0, data=[87, 77]),
   midi.NoteOnEvent(tick=120, channel=0, data=[88, 67]),
   midi.NoteOnEvent(tick=20, channel=0, data=[87, 0]),
   midi.NoteOnEvent(tick=100, channel=0, data=[92, 75]),
   midi.NoteOnEvent(tick=20, channel=0, data=[88, 0]),
   midi.NoteOnEvent(tick=100, channel=0, data=[93, 67]),
   midi.NoteOnEvent(tick=20, channel=0, data=[92, 0]),
   midi.NoteOnEvent(tick=100, channel=0, data=[93, 0]),
   midi.ControlChangeEvent(tick=0, channel=0, data=[91, 127]),
   midi.NoteOnEvent(tick=1, channel=0, data=[81, 88]),
   midi.NoteOnEvent(tick=0, channel=0, data=[74, 79]),
   midi.NoteOnEvent(tick=0, channel=0, data=[78, 79]),
   midi.NoteOnEvent(tick=239, channel=0, data=[78, 0]),
   midi.NoteOnEvent(tick=0, channel=0, data=[74, 0]),
   midi.NoteOnEvent(tick=0, channel=0, data=[69, 72]),
   midi.NoteOnEvent(tick=240, channel=0, data=[69, 0]),
   midi.NoteOnEvent(tick=0, channel=0, data=[81, 0]),
   midi.NoteOnEvent(tick=0, channel=0, data=[74, 75]),
   midi.NoteOnEvent(tick=0, channel=0, data=[70, 75]),
   midi.NoteOnEvent(tick=0, channel=0, data=[76, 84]),
   midi.NoteOnEvent(tick=240, channel=0, data=[70, 0]),
   midi.NoteOnEvent(tick=0, channel=0, data=[74, 0]),
   midi.NoteOnEvent(tick=0, channel=0, data=[64, 70]),
   midi.NoteOnEvent(tick=240, channel=0, data=[64, 0]),
   midi.NoteOnEvent(tick=0, channel=0, data=[76, 0]),
   midi.NoteOnEvent(tick=0, channel=0, data=[78, 79]),
   midi.NoteOnEvent(tick=0, channel=0, data=[74, 79]),
   midi.NoteOnEvent(tick=0, channel=0, data=[81, 88]),
   midi.NoteOnEvent(tick=240, channel=0, data=[74, 0]),
   midi.NoteOnEvent(tick=0, channel=0, data=[78, 0]),
   midi.NoteOnEvent(tick=0, channel=0, data=[69, 74]),
   midi.NoteOnEvent(tick=240, channel=0, data=[69, 0]),
   midi.NoteOnEvent(tick=0, channel=0, data=[81, 0]),
   midi.NoteOnEvent(tick=0, channel=0, data=[74, 75]),
   midi.NoteOnEvent(tick=0, channel=0, data=[70, 75]),
   midi.NoteOnEvent(tick=0, channel=0, data=[76, 84]),
   midi.NoteOnEvent(tick=240, channel=0, data=[70, 0]),
   midi.NoteOnEvent(tick=0, channel=0, data=[74, 0]),
   midi.NoteOnEvent(tick=0, channel=0, data=[64, 70]),
   midi.NoteOnEvent(tick=240, channel=0, data=[64, 0]),
   midi.NoteOnEvent(tick=0, channel=0, data=[76, 0]),
   midi.NoteOnEvent(tick=0, channel=0, data=[74, 72]),
   midi.NoteOnEvent(tick=60, channel=0, data=[74, 0]),
   midi.NoteOnEvent(tick=60, channel=0, data=[76, 67]),
   midi.NoteOnEvent(tick=60, channel=0, data=[76, 0]),
   midi.NoteOnEvent(tick=60, channel=0, data=[74, 70]),
   midi.NoteOnEvent(tick=60, channel=0, data=[74, 0]),
   midi.NoteOnEvent(tick=60, channel=0, data=[76, 66]),
   midi.NoteOnEvent(tick=60, channel=0, data=[76, 0]),
   midi.NoteOnEvent(tick=60, channel=0, data=[78, 72]),
   midi.NoteOnEvent(tick=120, channel=0, data=[78, 0]),
   midi.NoteOnEvent(tick=120, channel=0, data=[78, 68]),
   midi.NoteOnEvent(tick=120, channel=0, data=[78, 0]),
   midi.NoteOnEvent(tick=120, channel=0, data=[74, 66]),
   midi.NoteOnEvent(tick=0, channel=0, data=[67, 66]),
   midi.NoteOnEvent(tick=0, channel=0, data=[76, 73]),
   midi.NoteOnEvent(tick=240, channel=0, data=[76, 0]),
   midi.NoteOnEvent(tick=0, channel=0, data=[79, 69]),
   midi.NoteOnEvent(tick=240, channel=0, data=[79, 0]),
   midi.NoteOnEvent(tick=0, channel=0, data=[67, 0]),
   midi.NoteOnEvent(tick=0, channel=0, data=[74, 0]),
   midi.NoteOnEvent(tick=0, channel=0, data=[73, 64]),
   midi.NoteOnEvent(tick=0, channel=0, data=[76, 72]),
   midi.NoteOnEvent(tick=240, channel=0, data=[73, 0]),
   midi.NoteOnEvent(tick=0, channel=0, data=[69, 68]),
   midi.NoteOnEvent(tick=240, channel=0, data=[69, 0]),
   midi.NoteOnEvent(tick=0, channel=0, data=[76, 0]),
   midi.NoteOnEvent(tick=0, channel=0, data=[81, 88]),
   midi.NoteOnEvent(tick=0, channel=0, data=[74, 79]),
   midi.NoteOnEvent(tick=0, channel=0, data=[78, 79]),
   midi.NoteOnEvent(tick=240, channel=0, data=[78, 0]),
   midi.NoteOnEvent(tick=0, channel=0, data=[74, 0]),
   midi.NoteOnEvent(tick=0, channel=0, data=[69, 73]),
   midi.NoteOnEvent(tick=240, channel=0, data=[69, 0]),
   midi.NoteOnEvent(tick=0, channel=0, data=[81, 0]),
   midi.NoteOnEvent(tick=0, channel=0, data=[76, 84]),
   midi.NoteOnEvent(tick=0, channel=0, data=[70, 75]),
   midi.NoteOnEvent(tick=0, channel=0, data=[74, 75]),
   midi.NoteOnEvent(tick=240, channel=0, data=[74, 0]),
   midi.NoteOnEvent(tick=0, channel=0, data=[70, 0]),
   midi.NoteOnEvent(tick=0, channel=0, data=[64, 70]),
   midi.NoteOnEvent(tick=240, channel=0, data=[64, 0]),
   midi.NoteOnEvent(tick=0, channel=0, data=[76, 0]),
   midi.NoteOnEvent(tick=0, channel=0, data=[81, 88]),
   midi.NoteOnEvent(tick=0, channel=0, data=[74, 79]),
   midi.NoteOnEvent(tick=0, channel=0, data=[78, 79]),
   midi.NoteOnEvent(tick=240, channel=0, data=[78, 0]),
   midi.NoteOnEvent(tick=0, channel=0, data=[74, 0]),
   midi.NoteOnEvent(tick=0, channel=0, data=[69, 73]),
   midi.NoteOnEvent(tick=240, channel=0, data=[69, 0]),
   midi.NoteOnEvent(tick=0, channel=0, data=[81, 0]),
   midi.NoteOnEvent(tick=0, channel=0, data=[76, 84]),
   midi.NoteOnEvent(tick=0, channel=0, data=[70, 75]),
   midi.NoteOnEvent(tick=0, channel=0, data=[74, 75]),
   midi.NoteOnEvent(tick=240, channel=0, data=[74, 0]),
   midi.NoteOnEvent(tick=0, channel=0, data=[70, 0]),
   midi.NoteOnEvent(tick=0, channel=0, data=[64, 69]),
   midi.NoteOnEvent(tick=240, channel=0, data=[64, 0]),
   midi.NoteOnEvent(tick=0, channel=0, data=[76, 0]),
   midi.NoteOnEvent(tick=0, channel=0, data=[74, 77]),
   midi.NoteOnEvent(tick=60, channel=0, data=[74, 0]),
   midi.NoteOnEvent(tick=60, channel=0, data=[76, 71]),
   midi.NoteOnEvent(tick=60, channel=0, data=[76, 0]),
   midi.NoteOnEvent(tick=60, channel=0, data=[74, 77]),
   midi.NoteOnEvent(tick=60, channel=0, data=[74, 0]),
   midi.NoteOnEvent(tick=60, channel=0, data=[76, 70]),
   midi.NoteOnEvent(tick=60, channel=0, data=[76, 0]),
   midi.NoteOnEvent(tick=60, channel=0, data=[78, 80]),
   midi.NoteOnEvent(tick=120, channel=0, data=[78, 0]),
   midi.NoteOnEvent(tick=120, channel=0, data=[78, 72]),
   midi.NoteOnEvent(tick=120, channel=0, data=[78, 0]),
   midi.NoteOnEvent(tick=120, channel=0, data=[74, 80]),
   midi.NoteOnEvent(tick=0, channel=0, data=[76, 80]),
   midi.NoteOnEvent(tick=60, channel=0, data=[76, 0]),
   midi.NoteOnEvent(tick=0, channel=0, data=[74, 0]),
   midi.NoteOnEvent(tick=60, channel=0, data=[78, 81]),
   midi.NoteOnEvent(tick=60, channel=0, data=[78, 0]),
   midi.NoteOnEvent(tick=60, channel=0, data=[79, 83]),
   midi.NoteOnEvent(tick=60, channel=0, data=[79, 0]),
   midi.NoteOnEvent(tick=60, channel=0, data=[81, 85]),
   midi.NoteOnEvent(tick=60, channel=0, data=[81, 0]),
   midi.NoteOnEvent(tick=60, channel=0, data=[82, 86]),
   midi.NoteOnEvent(tick=240, channel=0, data=[82, 0]),
   midi.NoteOnEvent(tick=360, channel=0, data=[61, 42]),
   midi.NoteOnEvent(tick=0, channel=0, data=[63, 42]),
   midi.NoteOnEvent(tick=120, channel=0, data=[63, 0]),
   midi.NoteOnEvent(tick=0, channel=0, data=[61, 0]),
   midi.NoteOnEvent(tick=120, channel=0, data=[61, 42]),
   midi.NoteOnEvent(tick=0, channel=0, data=[63, 42]),
   midi.NoteOnEvent(tick=120, channel=0, data=[63, 0]),
   midi.NoteOnEvent(tick=0, channel=0, data=[61, 0]),
   midi.NoteOnEvent(tick=0, channel=0, data=[60, 47]),
   midi.NoteOnEvent(tick=240, channel=0, data=[72, 42]),
   midi.NoteOnEvent(tick=0, channel=0, data=[63, 42]),
   midi.NoteOnEvent(tick=240, channel=0, data=[63, 0]),
   midi.NoteOnEvent(tick=0, channel=0, data=[72, 0]),
   midi.NoteOnEvent(tick=0, channel=0, data=[60, 0]),
   midi.NoteOnEvent(tick=120, channel=0, data=[63, 46]),
   midi.NoteOnEvent(tick=0, channel=0, data=[65, 46]),
   midi.NoteOnEvent(tick=120, channel=0, data=[65, 0]),
   midi.NoteOnEvent(tick=0, channel=0, data=[63, 0]),
   midi.NoteOnEvent(tick=120, channel=0, data=[63, 46]),
   midi.NoteOnEvent(tick=0, channel=0, data=[65, 46]),
   midi.NoteOnEvent(tick=120, channel=0, data=[65, 0]),
   midi.NoteOnEvent(tick=0, channel=0, data=[63, 0]),
   midi.NoteOnEvent(tick=0, channel=0, data=[62, 52]),
   midi.NoteOnEvent(tick=240, channel=0, data=[74, 47]),
   midi.NoteOnEvent(tick=0, channel=0, data=[65, 41]),
   midi.NoteOnEvent(tick=240, channel=0, data=[65, 0]),
   midi.NoteOnEvent(tick=0, channel=0, data=[74, 0]),
   midi.NoteOnEvent(tick=0, channel=0, data=[62, 0]),
   midi.NoteOnEvent(tick=0, channel=0, data=[62, 49]),
   midi.NoteOnEvent(tick=240, channel=0, data=[65, 38]),
   midi.NoteOnEvent(tick=0, channel=0, data=[74, 41]),
   midi.NoteOnEvent(tick=0, channel=0, data=[67, 38]),
   midi.NoteOnEvent(tick=240, channel=0, data=[67, 0]),
   midi.NoteOnEvent(tick=0, channel=0, data=[62, 0]),
   midi.NoteOnEvent(tick=0, channel=0, data=[65, 0]),
   midi.NoteOnEvent(tick=0, channel=0, data=[74, 0]),
   midi.NoteOnEvent(tick=0, channel=0, data=[63, 50]),
   midi.NoteOnEvent(tick=240, channel=0, data=[75, 43]),
   midi.NoteOnEvent(tick=0, channel=0, data=[67, 38]),
   midi.NoteOnEvent(tick=240, channel=0, data=[67, 0]),
   midi.NoteOnEvent(tick=0, channel=0, data=[75, 0]),
   midi.NoteOnEvent(tick=0, channel=0, data=[63, 0]),
   midi.NoteOnEvent(tick=0, channel=0, data=[65, 54]),
   midi.NoteOnEvent(tick=240, channel=0, data=[71, 38]),
   midi.NoteOnEvent(tick=0, channel=0, data=[79, 43]),
   midi.NoteOnEvent(tick=240, channel=0, data=[79, 0]),
   midi.NoteOnEvent(tick=0, channel=0, data=[71, 0]),
   midi.NoteOnEvent(tick=0, channel=0, data=[65, 0]),
   midi.NoteOnEvent(tick=0, channel=0, data=[63, 53]),
   midi.NoteOnEvent(tick=240, channel=0, data=[75, 45]),
   midi.NoteOnEvent(tick=0, channel=0, data=[67, 40]),
   midi.NoteOnEvent(tick=240, channel=0, data=[67, 0]),
   midi.NoteOnEvent(tick=0, channel=0, data=[75, 0]),
   midi.NoteOnEvent(tick=0, channel=0, data=[63, 0]),
   midi.NoteOnEvent(tick=120, channel=0, data=[65, 47]),
   midi.NoteOnEvent(tick=0, channel=0, data=[67, 47]),
   midi.NoteOnEvent(tick=120, channel=0, data=[67, 0]),
   midi.NoteOnEvent(tick=0, channel=0, data=[65, 0]),
   midi.NoteOnEvent(tick=120, channel=0, data=[65, 48]),
   midi.NoteOnEvent(tick=0, channel=0, data=[67, 48]),
   midi.NoteOnEvent(tick=120, channel=0, data=[67, 0]),
   midi.NoteOnEvent(tick=0, channel=0, data=[65, 0]),
   midi.NoteOnEvent(tick=0, channel=0, data=[64, 53]),
   midi.NoteOnEvent(tick=240, channel=0, data=[76, 48]),
   midi.NoteOnEvent(tick=0, channel=0, data=[67, 43]),
   midi.NoteOnEvent(tick=240, channel=0, data=[67, 0]),
   midi.NoteOnEvent(tick=0, channel=0, data=[76, 0]),
   midi.NoteOnEvent(tick=0, channel=0, data=[64, 0]),
   midi.NoteOnEvent(tick=120, channel=0, data=[67, 53]),
   midi.NoteOnEvent(tick=0, channel=0, data=[69, 53]),
   midi.NoteOnEvent(tick=120, channel=0, data=[69, 0]),
   midi.NoteOnEvent(tick=0, channel=0, data=[67, 0]),
   midi.NoteOnEvent(tick=120, channel=0, data=[67, 53]),
   midi.NoteOnEvent(tick=0, channel=0, data=[69, 53]),
   midi.NoteOnEvent(tick=120, channel=0, data=[69, 0]),
   midi.NoteOnEvent(tick=0, channel=0, data=[67, 0]),
   midi.NoteOnEvent(tick=0, channel=0, data=[65, 58]),
   midi.NoteOnEvent(tick=240, channel=0, data=[77, 53]),
   midi.NoteOnEvent(tick=0, channel=0, data=[69, 47]),
   midi.NoteOnEvent(tick=240, channel=0, data=[69, 0]),
   midi.NoteOnEvent(tick=0, channel=0, data=[77, 0]),
   midi.NoteOnEvent(tick=0, channel=0, data=[65, 0]),
   midi.NoteOnEvent(tick=0, channel=0, data=[64, 58]),
   midi.NoteOnEvent(tick=240, channel=0, data=[67, 44]),
   midi.NoteOnEvent(tick=0, channel=0, data=[76, 49]),
   midi.NoteOnEvent(tick=0, channel=0, data=[69, 44]),
   midi.NoteOnEvent(tick=240, channel=0, data=[69, 0]),
   midi.NoteOnEvent(tick=0, channel=0, data=[64, 0]),
   midi.NoteOnEvent(tick=0, channel=0, data=[67, 0]),
   midi.NoteOnEvent(tick=0, channel=0, data=[76, 0]),
   midi.NoteOnEvent(tick=0, channel=0, data=[65, 59]),
   midi.NoteOnEvent(tick=240, channel=0, data=[77, 52]),
   midi.NoteOnEvent(tick=0, channel=0, data=[69, 46]),
   midi.NoteOnEvent(tick=240, channel=0, data=[69, 0]),
   midi.NoteOnEvent(tick=0, channel=0, data=[77, 0]),
   midi.NoteOnEvent(tick=0, channel=0, data=[65, 0]),
   midi.NoteOnEvent(tick=0, channel=0, data=[67, 65]),
   midi.NoteOnEvent(tick=240, channel=0, data=[73, 46]),
   midi.NoteOnEvent(tick=0, channel=0, data=[81, 53]),
   midi.NoteOnEvent(tick=240, channel=0, data=[81, 0]),
   midi.NoteOnEvent(tick=0, channel=0, data=[73, 0]),
   midi.NoteOnEvent(tick=0, channel=0, data=[67, 0]),
   midi.NoteOnEvent(tick=0, channel=0, data=[65, 62]),
   midi.NoteOnEvent(tick=240, channel=0, data=[77, 55]),
   midi.NoteOnEvent(tick=0, channel=0, data=[69, 48]),
   midi.NoteOnEvent(tick=240, channel=0, data=[69, 0]),
   midi.NoteOnEvent(tick=0, channel=0, data=[77, 0]),
   midi.NoteOnEvent(tick=0, channel=0, data=[65, 0]),
   midi.NoteOnEvent(tick=0, channel=0, data=[64, 66]),
   midi.NoteOnEvent(tick=240, channel=0, data=[67, 50]),
   midi.NoteOnEvent(tick=0, channel=0, data=[76, 57]),
   midi.NoteOnEvent(tick=0, channel=0, data=[69, 50]),
   midi.NoteOnEvent(tick=240, channel=0, data=[69, 0]),
   midi.NoteOnEvent(tick=0, channel=0, data=[64, 0]),
   midi.NoteOnEvent(tick=0, channel=0, data=[67, 0]),
   midi.NoteOnEvent(tick=0, channel=0, data=[76, 0]),
   midi.NoteOnEvent(tick=0, channel=0, data=[65, 66]),
   midi.NoteOnEvent(tick=240, channel=0, data=[77, 57]),
   midi.NoteOnEvent(tick=0, channel=0, data=[69, 50]),
   midi.NoteOnEvent(tick=240, channel=0, data=[69, 0]),
   midi.NoteOnEvent(tick=0, channel=0, data=[77, 0]),
   midi.NoteOnEvent(tick=0, channel=0, data=[65, 0]),
   midi.NoteOnEvent(tick=0, channel=0, data=[69, 70]),
   midi.NoteOnEvent(tick=240, channel=0, data=[78, 50]),
   midi.NoteOnEvent(tick=0, channel=0, data=[83, 57]),
   midi.NoteOnEvent(tick=240, channel=0, data=[83, 0]),
   midi.NoteOnEvent(tick=0, channel=0, data=[78, 0]),
   midi.NoteOnEvent(tick=0, channel=0, data=[69, 0]),
   midi.NoteOnEvent(tick=0, channel=0, data=[67, 67]),
   midi.NoteOnEvent(tick=240, channel=0, data=[79, 59]),
   midi.NoteOnEvent(tick=0, channel=0, data=[71, 53]),
   midi.NoteOnEvent(tick=240, channel=0, data=[71, 0]),
   midi.NoteOnEvent(tick=0, channel=0, data=[79, 0]),
   midi.NoteOnEvent(tick=0, channel=0, data=[67, 0]),
   midi.NoteOnEvent(tick=0, channel=0, data=[66, 71]),
   midi.NoteOnEvent(tick=240, channel=0, data=[71, 57]),
   midi.NoteOnEvent(tick=0, channel=0, data=[78, 64]),
   midi.NoteOnEvent(tick=0, channel=0, data=[69, 57]),
   midi.NoteOnEvent(tick=240, channel=0, data=[69, 0]),
   midi.NoteOnEvent(tick=0, channel=0, data=[66, 0]),
   midi.NoteOnEvent(tick=0, channel=0, data=[71, 0]),
   midi.NoteOnEvent(tick=0, channel=0, data=[78, 0]),
   midi.NoteOnEvent(tick=0, channel=0, data=[67, 74]),
   midi.NoteOnEvent(tick=240, channel=0, data=[79, 64]),
   midi.NoteOnEvent(tick=0, channel=0, data=[71, 58]),
   midi.NoteOnEvent(tick=240, channel=0, data=[71, 0]),
   midi.NoteOnEvent(tick=0, channel=0, data=[79, 0]),
   midi.NoteOnEvent(tick=0, channel=0, data=[67, 0]),
   midi.NoteOnEvent(tick=0, channel=0, data=[71, 76]),
   midi.NoteOnEvent(tick=240, channel=0, data=[80, 58]),
   midi.NoteOnEvent(tick=0, channel=0, data=[85, 65]),
   midi.NoteOnEvent(tick=240, channel=0, data=[85, 0]),
   midi.NoteOnEvent(tick=0, channel=0, data=[80, 0]),
   midi.NoteOnEvent(tick=0, channel=0, data=[71, 0]),
   midi.NoteOnEvent(tick=0, channel=0, data=[69, 75]),
   midi.NoteOnEvent(tick=240, channel=0, data=[81, 67]),
   midi.NoteOnEvent(tick=0, channel=0, data=[73, 60]),
   midi.NoteOnEvent(tick=240, channel=0, data=[73, 0]),
   midi.NoteOnEvent(tick=0, channel=0, data=[81, 0]),
   midi.NoteOnEvent(tick=0, channel=0, data=[69, 0]),
   midi.NoteOnEvent(tick=0, channel=0, data=[72, 82]),
   midi.NoteOnEvent(tick=240, channel=0, data=[81, 60]),
   midi.NoteOnEvent(tick=0, channel=0, data=[86, 69]),
   midi.NoteOnEvent(tick=240, channel=0, data=[86, 0]),
   midi.NoteOnEvent(tick=0, channel=0, data=[81, 0]),
   midi.NoteOnEvent(tick=0, channel=0, data=[72, 0]),
   midi.NoteOnEvent(tick=0, channel=0, data=[71, 78]),
   midi.NoteOnEvent(tick=240, channel=0, data=[83, 72]),
   midi.NoteOnEvent(tick=0, channel=0, data=[74, 65]),
   midi.NoteOnEvent(tick=240, channel=0, data=[74, 0]),
   midi.NoteOnEvent(tick=0, channel=0, data=[83, 0]),
   midi.NoteOnEvent(tick=0, channel=0, data=[71, 0]),
   midi.NoteOnEvent(tick=0, channel=0, data=[72, 83]),
   midi.NoteOnEvent(tick=240, channel=0, data=[81, 61]),
   midi.NoteOnEvent(tick=0, channel=0, data=[86, 70]),
   midi.NoteOnEvent(tick=240, channel=0, data=[86, 0]),
   midi.NoteOnEvent(tick=0, channel=0, data=[81, 0]),
   midi.NoteOnEvent(tick=0, channel=0, data=[72, 0]),
   midi.NoteOnEvent(tick=0, channel=0, data=[71, 79]),
   midi.NoteOnEvent(tick=240, channel=0, data=[83, 70]),
   midi.NoteOnEvent(tick=0, channel=0, data=[74, 61]),
   midi.NoteOnEvent(tick=240, channel=0, data=[74, 0]),
   midi.NoteOnEvent(tick=0, channel=0, data=[83, 0]),
   midi.NoteOnEvent(tick=0, channel=0, data=[71, 0]),
   midi.NoteOnEvent(tick=0, channel=0, data=[88, 86]),
   midi.NoteOnEvent(tick=60, channel=0, data=[88, 0]),
   midi.NoteOnEvent(tick=60, channel=0, data=[86, 74]),
   midi.NoteOnEvent(tick=60, channel=0, data=[86, 0]),
   midi.NoteOnEvent(tick=60, channel=0, data=[82, 78]),
   midi.NoteOnEvent(tick=60, channel=0, data=[82, 0]),
   midi.NoteOnEvent(tick=60, channel=0, data=[81, 75]),
   midi.NoteOnEvent(tick=60, channel=0, data=[81, 0]),
   midi.NoteOnEvent(tick=60, channel=0, data=[79, 77]),
   midi.NoteOnEvent(tick=120, channel=0, data=[79, 0]),
   midi.NoteOnEvent(tick=360, channel=0, data=[64, 74]),
   midi.NoteOnEvent(tick=60, channel=0, data=[64, 0]),
   midi.NoteOnEvent(tick=60, channel=0, data=[62, 64]),
   midi.NoteOnEvent(tick=60, channel=0, data=[62, 0]),
   midi.NoteOnEvent(tick=60, channel=0, data=[58, 71]),
   midi.NoteOnEvent(tick=60, channel=0, data=[58, 0]),
   midi.NoteOnEvent(tick=60, channel=0, data=[57, 64]),
   midi.NoteOnEvent(tick=60, channel=0, data=[57, 0]),
   midi.NoteOnEvent(tick=60, channel=0, data=[55, 75]),
   midi.NoteOnEvent(tick=120, channel=0, data=[55, 0]),
   midi.NoteOnEvent(tick=840, channel=0, data=[62, 72]),
   midi.NoteOnEvent(tick=0, channel=0, data=[64, 72]),
   midi.NoteOnEvent(tick=720, channel=0, data=[64, 0]),
   midi.NoteOnEvent(tick=0, channel=0, data=[62, 0]),
   midi.NoteOnEvent(tick=0, channel=0, data=[61, 80]),
   midi.NoteOnEvent(tick=0, channel=0, data=[64, 80]),
   midi.NoteOnEvent(tick=0, channel=0, data=[69, 80]),
   midi.NoteOnEvent(tick=180, channel=0, data=[69, 0]),
   midi.NoteOnEvent(tick=0, channel=0, data=[64, 0]),
   midi.NoteOnEvent(tick=0, channel=0, data=[61, 0]),
   midi.NoteOnEvent(tick=60, channel=0, data=[74, 86]),
   midi.NoteOnEvent(tick=0, channel=0, data=[69, 86]),
   midi.NoteOnEvent(tick=0, channel=0, data=[62, 86]),
   midi.NoteOnEvent(tick=240, channel=0, data=[62, 0]),
   midi.NoteOnEvent(tick=0, channel=0, data=[69, 0]),
   midi.NoteOnEvent(tick=0, channel=0, data=[74, 0]),
   midi.NoteOnEvent(tick=240, channel=0, data=[78, 91]),
   midi.NoteOnEvent(tick=0, channel=0, data=[86, 91]),
   midi.NoteOnEvent(tick=0, channel=0, data=[74, 81]),
   midi.NoteOnEvent(tick=480, channel=0, data=[78, 0]),
   midi.NoteOnEvent(tick=0, channel=0, data=[79, 79]),
   midi.NoteOnEvent(tick=480, channel=0, data=[79, 0]),
   midi.NoteOnEvent(tick=0, channel=0, data=[74, 0]),
   midi.NoteOnEvent(tick=0, channel=0, data=[86, 0]),
   midi.NoteOnEvent(tick=0, channel=0, data=[76, 89]),
   midi.NoteOnEvent(tick=0, channel=0, data=[84, 89]),
   midi.NoteOnEvent(tick=0, channel=0, data=[72, 79]),
   midi.NoteOnEvent(tick=480, channel=0, data=[76, 0]),
   midi.NoteOnEvent(tick=0, channel=0, data=[77, 81]),
   midi.NoteOnEvent(tick=480, channel=0, data=[77, 0]),
   midi.NoteOnEvent(tick=0, channel=0, data=[72, 0]),
   midi.NoteOnEvent(tick=0, channel=0, data=[84, 0]),
   midi.NoteOnEvent(tick=0, channel=0, data=[69, 79]),
   midi.NoteOnEvent(tick=0, channel=0, data=[81, 89]),
   midi.NoteOnEvent(tick=0, channel=0, data=[77, 89]),
   midi.NoteOnEvent(tick=360, channel=0, data=[81, 0]),
   midi.NoteOnEvent(tick=0, channel=0, data=[69, 0]),
   midi.NoteOnEvent(tick=0, channel=0, data=[70, 64]),
   midi.NoteOnEvent(tick=0, channel=0, data=[82, 72]),
   midi.NoteOnEvent(tick=120, channel=0, data=[82, 0]),
   midi.NoteOnEvent(tick=0, channel=0, data=[70, 0]),
   midi.NoteOnEvent(tick=0, channel=0, data=[77, 0]),
   midi.NoteOnEvent(tick=0, channel=0, data=[67, 70]),
   midi.NoteOnEvent(tick=0, channel=0, data=[77, 79]),
   midi.NoteOnEvent(tick=0, channel=0, data=[79, 79]),
   midi.NoteOnEvent(tick=240, channel=0, data=[79, 0]),
   midi.NoteOnEvent(tick=0, channel=0, data=[77, 0]),
   midi.NoteOnEvent(tick=0, channel=0, data=[67, 0]),
   midi.NoteOnEvent(tick=240, channel=0, data=[58, 67]),
   midi.NoteOnEvent(tick=0, channel=0, data=[64, 75]),
   midi.NoteOnEvent(tick=0, channel=0, data=[69, 75]),
   midi.NoteOnEvent(tick=480, channel=0, data=[69, 0]),
   midi.NoteOnEvent(tick=0, channel=0, data=[64, 0]),
   midi.NoteOnEvent(tick=0, channel=0, data=[58, 0]),
   midi.NoteOnEvent(tick=0, channel=0, data=[57, 53]),
   midi.NoteOnEvent(tick=0, channel=0, data=[65, 60]),
   midi.NoteOnEvent(tick=240, channel=0, data=[65, 0]),
   midi.NoteOnEvent(tick=0, channel=0, data=[57, 0]),
   midi.NoteOnEvent(tick=480, channel=0, data=[57, 39]),
   midi.NoteOnEvent(tick=0, channel=0, data=[60, 44]),
   midi.NoteOnEvent(tick=240, channel=0, data=[60, 0]),
   midi.NoteOnEvent(tick=0, channel=0, data=[57, 0]),
   midi.NoteOnEvent(tick=0, channel=0, data=[58, 44]),
   midi.NoteOnEvent(tick=0, channel=0, data=[65, 49]),
   midi.NoteOnEvent(tick=240, channel=0, data=[65, 0]),
   midi.NoteOnEvent(tick=0, channel=0, data=[64, 40]),
   midi.NoteOnEvent(tick=240, channel=0, data=[64, 0]),
   midi.NoteOnEvent(tick=0, channel=0, data=[62, 41]),
   midi.NoteOnEvent(tick=240, channel=0, data=[62, 0]),
   midi.NoteOnEvent(tick=0, channel=0, data=[64, 38]),
   midi.NoteOnEvent(tick=240, channel=0, data=[64, 0]),
   midi.NoteOnEvent(tick=0, channel=0, data=[58, 0]),
   midi.NoteOnEvent(tick=0, channel=0, data=[57, 33]),
   midi.NoteOnEvent(tick=0, channel=0, data=[65, 37]),
   midi.NoteOnEvent(tick=480, channel=0, data=[65, 0]),
   midi.NoteOnEvent(tick=0, channel=0, data=[57, 0]),
   midi.NoteOnEvent(tick=0, channel=0, data=[65, 38]),
   midi.NoteOnEvent(tick=0, channel=0, data=[69, 38]),
   midi.NoteOnEvent(tick=0, channel=0, data=[72, 42]),
   midi.NoteOnEvent(tick=240, channel=0, data=[72, 0]),
   midi.NoteOnEvent(tick=0, channel=0, data=[69, 0]),
   midi.NoteOnEvent(tick=0, channel=0, data=[65, 0]),
   midi.NoteOnEvent(tick=240, channel=0, data=[58, 40]),
   midi.NoteOnEvent(tick=0, channel=0, data=[61, 45]),
   midi.NoteOnEvent(tick=960, channel=0, data=[61, 0]),
   midi.NoteOnEvent(tick=0, channel=0, data=[58, 0]),
   midi.NoteOnEvent(tick=0, channel=0, data=[57, 28]),
   midi.NoteOnEvent(tick=0, channel=0, data=[60, 31]),
   midi.NoteOnEvent(tick=480, channel=0, data=[60, 0]),
   midi.NoteOnEvent(tick=0, channel=0, data=[57, 0]),
   midi.NoteOnEvent(tick=240, channel=0, data=[62, 49]),
   midi.NoteOnEvent(tick=240, channel=0, data=[62, 0]),
   midi.NoteOnEvent(tick=0, channel=0, data=[73, 52]),
   midi.NoteOnEvent(tick=0, channel=0, data=[69, 52]),
   midi.NoteOnEvent(tick=240, channel=0, data=[69, 0]),
   midi.NoteOnEvent(tick=0, channel=0, data=[73, 0]),
   midi.NoteOnEvent(tick=0, channel=0, data=[74, 49]),
   midi.NoteOnEvent(tick=240, channel=0, data=[74, 0]),
   midi.NoteOnEvent(tick=240, channel=0, data=[62, 58]),
   midi.NoteOnEvent(tick=240, channel=0, data=[62, 0]),
   midi.NoteOnEvent(tick=0, channel=0, data=[70, 61]),
   midi.NoteOnEvent(tick=0, channel=0, data=[73, 61]),
   midi.NoteOnEvent(tick=240, channel=0, data=[73, 0]),
   midi.NoteOnEvent(tick=0, channel=0, data=[70, 0]),
   midi.NoteOnEvent(tick=0, channel=0, data=[74, 58]),
   midi.NoteOnEvent(tick=240, channel=0, data=[74, 0]),
   midi.NoteOnEvent(tick=240, channel=0, data=[64, 66]),
   midi.NoteOnEvent(tick=240, channel=0, data=[64, 0]),
   midi.NoteOnEvent(tick=0, channel=0, data=[75, 74]),
   midi.NoteOnEvent(tick=0, channel=0, data=[71, 74]),
   midi.NoteOnEvent(tick=240, channel=0, data=[71, 0]),
   midi.NoteOnEvent(tick=0, channel=0, data=[75, 0]),
   midi.NoteOnEvent(tick=0, channel=0, data=[76, 68]),
   midi.NoteOnEvent(tick=240, channel=0, data=[76, 0]),
   midi.NoteOnEvent(tick=240, channel=0, data=[64, 80]),
   midi.NoteOnEvent(tick=240, channel=0, data=[64, 0]),
   midi.NoteOnEvent(tick=0, channel=0, data=[75, 84]),
   midi.NoteOnEvent(tick=0, channel=0, data=[69, 84]),
   midi.NoteOnEvent(tick=0, channel=0, data=[73, 84]),
   midi.NoteOnEvent(tick=240, channel=0, data=[73, 0]),
   midi.NoteOnEvent(tick=0, channel=0, data=[69, 0]),
   midi.NoteOnEvent(tick=0, channel=0, data=[75, 0]),
   midi.NoteOnEvent(tick=0, channel=0, data=[76, 80]),
   midi.NoteOnEvent(tick=240, channel=0, data=[76, 0]),
   midi.NoteOnEvent(tick=0, channel=0, data=[78, 91]),
   midi.NoteOnEvent(tick=0, channel=0, data=[86, 91]),
   midi.NoteOnEvent(tick=0, channel=0, data=[74, 81]),
   midi.NoteOnEvent(tick=480, channel=0, data=[78, 0]),
   midi.NoteOnEvent(tick=0, channel=0, data=[79, 83]),
   midi.NoteOnEvent(tick=480, channel=0, data=[79, 0]),
   midi.NoteOnEvent(tick=0, channel=0, data=[74, 0]),
   midi.NoteOnEvent(tick=0, channel=0, data=[86, 0]),
   midi.NoteOnEvent(tick=0, channel=0, data=[76, 89]),
   midi.NoteOnEvent(tick=0, channel=0, data=[84, 89]),
   midi.NoteOnEvent(tick=0, channel=0, data=[72, 79]),
   midi.NoteOnEvent(tick=480, channel=0, data=[76, 0]),
   midi.NoteOnEvent(tick=0, channel=0, data=[77, 79]),
   midi.NoteOnEvent(tick=480, channel=0, data=[77, 0]),
   midi.NoteOnEvent(tick=0, channel=0, data=[72, 0]),
   midi.NoteOnEvent(tick=0, channel=0, data=[84, 0]),
   midi.NoteOnEvent(tick=0, channel=0, data=[69, 79]),
   midi.NoteOnEvent(tick=0, channel=0, data=[81, 89]),
   midi.NoteOnEvent(tick=0, channel=0, data=[77, 89]),
   midi.NoteOnEvent(tick=360, channel=0, data=[81, 0]),
   midi.NoteOnEvent(tick=0, channel=0, data=[69, 0]),
   midi.NoteOnEvent(tick=0, channel=0, data=[70, 64]),
   midi.NoteOnEvent(tick=0, channel=0, data=[82, 72]),
   midi.NoteOnEvent(tick=120, channel=0, data=[82, 0]),
   midi.NoteOnEvent(tick=0, channel=0, data=[70, 0]),
   midi.NoteOnEvent(tick=0, channel=0, data=[77, 0]),
   midi.NoteOnEvent(tick=0, channel=0, data=[67, 70]),
   midi.NoteOnEvent(tick=0, channel=0, data=[77, 79]),
   midi.NoteOnEvent(tick=0, channel=0, data=[79, 79]),
   midi.NoteOnEvent(tick=240, channel=0, data=[79, 0]),
   midi.NoteOnEvent(tick=0, channel=0, data=[77, 0]),
   midi.NoteOnEvent(tick=0, channel=0, data=[67, 0]),
   midi.NoteOnEvent(tick=240, channel=0, data=[58, 67]),
   midi.NoteOnEvent(tick=0, channel=0, data=[64, 75]),
   midi.NoteOnEvent(tick=0, channel=0, data=[69, 75]),
   midi.NoteOnEvent(tick=480, channel=0, data=[69, 0]),
   midi.NoteOnEvent(tick=0, channel=0, data=[64, 0]),
   midi.NoteOnEvent(tick=0, channel=0, data=[58, 0]),
   midi.NoteOnEvent(tick=0, channel=0, data=[57, 53]),
   midi.NoteOnEvent(tick=0, channel=0, data=[65, 60]),
   midi.NoteOnEvent(tick=240, channel=0, data=[65, 0]),
   midi.NoteOnEvent(tick=0, channel=0, data=[57, 0]),
   midi.NoteOnEvent(tick=480, channel=0, data=[57, 39]),
   midi.NoteOnEvent(tick=0, channel=0, data=[60, 44]),
   midi.NoteOnEvent(tick=240, channel=0, data=[60, 0]),
   midi.NoteOnEvent(tick=0, channel=0, data=[57, 0]),
   midi.NoteOnEvent(tick=0, channel=0, data=[58, 44]),
   midi.NoteOnEvent(tick=0, channel=0, data=[65, 49]),
   midi.NoteOnEvent(tick=240, channel=0, data=[65, 0]),
   midi.NoteOnEvent(tick=0, channel=0, data=[64, 40]),
   midi.NoteOnEvent(tick=240, channel=0, data=[64, 0]),
   midi.NoteOnEvent(tick=0, channel=0, data=[62, 41]),
   midi.NoteOnEvent(tick=240, channel=0, data=[62, 0]),
   midi.NoteOnEvent(tick=0, channel=0, data=[64, 38]),
   midi.NoteOnEvent(tick=240, channel=0, data=[64, 0]),
   midi.NoteOnEvent(tick=0, channel=0, data=[58, 0]),
   midi.NoteOnEvent(tick=0, channel=0, data=[57, 33]),
   midi.NoteOnEvent(tick=0, channel=0, data=[65, 37]),
   midi.NoteOnEvent(tick=480, channel=0, data=[65, 0]),
   midi.NoteOnEvent(tick=0, channel=0, data=[57, 0]),
   midi.NoteOnEvent(tick=0, channel=0, data=[65, 38]),
   midi.NoteOnEvent(tick=0, channel=0, data=[69, 38]),
   midi.NoteOnEvent(tick=0, channel=0, data=[72, 42]),
   midi.NoteOnEvent(tick=240, channel=0, data=[72, 0]),
   midi.NoteOnEvent(tick=0, channel=0, data=[69, 0]),
   midi.NoteOnEvent(tick=0, channel=0, data=[65, 0]),
   midi.NoteOnEvent(tick=240, channel=0, data=[58, 40]),
   midi.NoteOnEvent(tick=0, channel=0, data=[61, 45]),
   midi.NoteOnEvent(tick=960, channel=0, data=[61, 0]),
   midi.NoteOnEvent(tick=0, channel=0, data=[58, 0]),
   midi.NoteOnEvent(tick=0, channel=0, data=[57, 28]),
   midi.NoteOnEvent(tick=0, channel=0, data=[60, 31]),
   midi.NoteOnEvent(tick=480, channel=0, data=[60, 0]),
   midi.NoteOnEvent(tick=0, channel=0, data=[57, 0]),
   midi.NoteOnEvent(tick=240, channel=0, data=[62, 48]),
   midi.NoteOnEvent(tick=240, channel=0, data=[62, 0]),
   midi.NoteOnEvent(tick=0, channel=0, data=[73, 50]),
   midi.NoteOnEvent(tick=0, channel=0, data=[69, 50]),
   midi.NoteOnEvent(tick=240, channel=0, data=[69, 0]),
   midi.NoteOnEvent(tick=0, channel=0, data=[73, 0]),
   midi.NoteOnEvent(tick=0, channel=0, data=[74, 48]),
   midi.NoteOnEvent(tick=240, channel=0, data=[74, 0]),
   midi.NoteOnEvent(tick=240, channel=0, data=[62, 56]),
   midi.NoteOnEvent(tick=240, channel=0, data=[62, 0]),
   midi.NoteOnEvent(tick=0, channel=0, data=[70, 59]),
   midi.NoteOnEvent(tick=0, channel=0, data=[73, 59]),
   midi.NoteOnEvent(tick=240, channel=0, data=[73, 0]),
   midi.NoteOnEvent(tick=0, channel=0, data=[70, 0]),
   midi.NoteOnEvent(tick=0, channel=0, data=[74, 57]),
   midi.NoteOnEvent(tick=240, channel=0, data=[74, 0]),
   midi.NoteOnEvent(tick=240, channel=0, data=[64, 64]),
   midi.NoteOnEvent(tick=240, channel=0, data=[64, 0]),
   midi.NoteOnEvent(tick=0, channel=0, data=[75, 69]),
   midi.NoteOnEvent(tick=0, channel=0, data=[71, 69]),
   midi.NoteOnEvent(tick=240, channel=0, data=[71, 0]),
   midi.NoteOnEvent(tick=0, channel=0, data=[75, 0]),
   midi.NoteOnEvent(tick=0, channel=0, data=[76, 66]),
   midi.NoteOnEvent(tick=240, channel=0, data=[76, 0]),
   midi.NoteOnEvent(tick=240, channel=0, data=[64, 71]),
   midi.NoteOnEvent(tick=240, channel=0, data=[64, 0]),
   midi.NoteOnEvent(tick=0, channel=0, data=[75, 78]),
   midi.NoteOnEvent(tick=0, channel=0, data=[69, 78]),
   midi.NoteOnEvent(tick=0, channel=0, data=[73, 78]),
   midi.NoteOnEvent(tick=240, channel=0, data=[73, 0]),
   midi.NoteOnEvent(tick=0, channel=0, data=[69, 0]),
   midi.NoteOnEvent(tick=0, channel=0, data=[75, 0]),
   midi.NoteOnEvent(tick=0, channel=0, data=[76, 72]),
   midi.NoteOnEvent(tick=240, channel=0, data=[76, 0]),
   midi.NoteOnEvent(tick=0, channel=0, data=[85, 89]),
   midi.NoteOnEvent(tick=0, channel=0, data=[89, 79]),
   midi.NoteOnEvent(tick=0, channel=0, data=[77, 75]),
   midi.NoteOnEvent(tick=480, channel=0, data=[85, 0]),
   midi.NoteOnEvent(tick=0, channel=0, data=[86, 89]),
   midi.NoteOnEvent(tick=480, channel=0, data=[86, 0]),
   midi.NoteOnEvent(tick=0, channel=0, data=[77, 0]),
   midi.NoteOnEvent(tick=0, channel=0, data=[89, 0]),
   midi.NoteOnEvent(tick=0, channel=0, data=[75, 89]),
   midi.NoteOnEvent(tick=0, channel=0, data=[79, 89]),
   midi.NoteOnEvent(tick=0, channel=0, data=[67, 79]),
   midi.NoteOnEvent(tick=480, channel=0, data=[75, 0]),
   midi.NoteOnEvent(tick=0, channel=0, data=[76, 85]),
   midi.NoteOnEvent(tick=480, channel=0, data=[76, 0]),
   midi.NoteOnEvent(tick=0, channel=0, data=[67, 0]),
   midi.NoteOnEvent(tick=0, channel=0, data=[79, 0]),
   midi.NoteOnEvent(tick=0, channel=0, data=[72, 79]),
   midi.NoteOnEvent(tick=0, channel=0, data=[84, 89]),
   midi.NoteOnEvent(tick=0, channel=0, data=[80, 81]),
   midi.NoteOnEvent(tick=360, channel=0, data=[84, 0]),
   midi.NoteOnEvent(tick=0, channel=0, data=[72, 0]),
   midi.NoteOnEvent(tick=0, channel=0, data=[71, 64]),
   midi.NoteOnEvent(tick=0, channel=0, data=[83, 72]),
   midi.NoteOnEvent(tick=120, channel=0, data=[83, 0]),
   midi.NoteOnEvent(tick=0, channel=0, data=[71, 0]),
   midi.NoteOnEvent(tick=0, channel=0, data=[80, 0]),
   midi.NoteOnEvent(tick=0, channel=0, data=[69, 70]),
   midi.NoteOnEvent(tick=0, channel=0, data=[81, 79]),
   midi.NoteOnEvent(tick=240, channel=0, data=[81, 0]),
   midi.NoteOnEvent(tick=0, channel=0, data=[69, 0]),
   midi.NoteOnEvent(tick=240, channel=0, data=[65, 79]),
   midi.NoteOnEvent(tick=0, channel=0, data=[77, 89]),
   midi.NoteOnEvent(tick=0, channel=0, data=[73, 81]),
   midi.NoteOnEvent(tick=360, channel=0, data=[77, 0]),
   midi.NoteOnEvent(tick=0, channel=0, data=[65, 0]),
   midi.NoteOnEvent(tick=0, channel=0, data=[64, 64]),
   midi.NoteOnEvent(tick=0, channel=0, data=[76, 72]),
   midi.NoteOnEvent(tick=120, channel=0, data=[76, 0]),
   midi.NoteOnEvent(tick=0, channel=0, data=[64, 0]),
   midi.NoteOnEvent(tick=0, channel=0, data=[73, 0]),
   midi.NoteOnEvent(tick=0, channel=0, data=[62, 70]),
   midi.NoteOnEvent(tick=0, channel=0, data=[74, 79]),
   midi.NoteOnEvent(tick=240, channel=0, data=[74, 0]),
   midi.NoteOnEvent(tick=0, channel=0, data=[62, 0]),
   midi.NoteOnEvent(tick=480, channel=0, data=[62, 44]),
   midi.NoteOnEvent(tick=240, channel=0, data=[62, 0]),
   midi.NoteOnEvent(tick=0, channel=0, data=[60, 44]),
   midi.NoteOnEvent(tick=0, channel=0, data=[67, 49]),
   midi.NoteOnEvent(tick=240, channel=0, data=[67, 0]),
   midi.NoteOnEvent(tick=0, channel=0, data=[66, 40]),
   midi.NoteOnEvent(tick=240, channel=0, data=[66, 0]),
   midi.NoteOnEvent(tick=0, channel=0, data=[64, 41]),
   midi.NoteOnEvent(tick=240, channel=0, data=[64, 0]),
   midi.NoteOnEvent(tick=0, channel=0, data=[66, 38]),
   midi.NoteOnEvent(tick=240, channel=0, data=[66, 0]),
   midi.NoteOnEvent(tick=0, channel=0, data=[60, 0]),
   midi.NoteOnEvent(tick=0, channel=0, data=[58, 33]),
   midi.NoteOnEvent(tick=0, channel=0, data=[62, 33]),
   midi.NoteOnEvent(tick=0, channel=0, data=[67, 37]),
   midi.NoteOnEvent(tick=240, channel=0, data=[67, 0]),
   midi.NoteOnEvent(tick=0, channel=0, data=[62, 0]),
   midi.NoteOnEvent(tick=0, channel=0, data=[58, 0]),
   midi.NoteOnEvent(tick=480, channel=0, data=[74, 44]),
   midi.NoteOnEvent(tick=240, channel=0, data=[74, 0]),
   midi.NoteOnEvent(tick=0, channel=0, data=[72, 44]),
   midi.NoteOnEvent(tick=0, channel=0, data=[79, 49]),
   midi.NoteOnEvent(tick=240, channel=0, data=[79, 0]),
   midi.NoteOnEvent(tick=0, channel=0, data=[78, 40]),
   midi.NoteOnEvent(tick=240, channel=0, data=[78, 0]),
   midi.NoteOnEvent(tick=0, channel=0, data=[76, 41]),
   midi.NoteOnEvent(tick=240, channel=0, data=[76, 0]),
   midi.NoteOnEvent(tick=0, channel=0, data=[78, 38]),
   midi.NoteOnEvent(tick=240, channel=0, data=[78, 0]),
   midi.NoteOnEvent(tick=0, channel=0, data=[72, 0]),
   midi.NoteOnEvent(tick=0, channel=0, data=[70, 33]),
   midi.NoteOnEvent(tick=0, channel=0, data=[74, 33]),
   midi.NoteOnEvent(tick=0, channel=0, data=[79, 37]),
   midi.NoteOnEvent(tick=240, channel=0, data=[79, 0]),
   midi.NoteOnEvent(tick=0, channel=0, data=[74, 0]),
   midi.NoteOnEvent(tick=0, channel=0, data=[70, 0]),
   midi.NoteOnEvent(tick=240, channel=0, data=[87, 91]),
   midi.NoteOnEvent(tick=0, channel=0, data=[91, 85]),
   midi.NoteOnEvent(tick=0, channel=0, data=[79, 81]),
   midi.NoteOnEvent(tick=480, channel=0, data=[87, 0]),
   midi.NoteOnEvent(tick=0, channel=0, data=[88, 86]),
   midi.NoteOnEvent(tick=480, channel=0, data=[88, 0]),
   midi.NoteOnEvent(tick=0, channel=0, data=[79, 0]),
   midi.NoteOnEvent(tick=0, channel=0, data=[91, 0]),
   midi.NoteOnEvent(tick=0, channel=0, data=[77, 89]),
   midi.NoteOnEvent(tick=0, channel=0, data=[81, 89]),
   midi.NoteOnEvent(tick=0, channel=0, data=[69, 79]),
   midi.NoteOnEvent(tick=480, channel=0, data=[77, 0]),
   midi.NoteOnEvent(tick=0, channel=0, data=[78, 85]),
   midi.NoteOnEvent(tick=480, channel=0, data=[78, 0]),
   midi.NoteOnEvent(tick=0, channel=0, data=[69, 0]),
   midi.NoteOnEvent(tick=0, channel=0, data=[81, 0]),
   midi.NoteOnEvent(tick=0, channel=0, data=[74, 79]),
   midi.NoteOnEvent(tick=0, channel=0, data=[86, 89]),
   midi.NoteOnEvent(tick=0, channel=0, data=[82, 81]),
   midi.NoteOnEvent(tick=360, channel=0, data=[86, 0]),
   midi.NoteOnEvent(tick=0, channel=0, data=[74, 0]),
   midi.NoteOnEvent(tick=0, channel=0, data=[73, 64]),
   midi.NoteOnEvent(tick=0, channel=0, data=[85, 72]),
   midi.NoteOnEvent(tick=120, channel=0, data=[85, 0]),
   midi.NoteOnEvent(tick=0, channel=0, data=[73, 0]),
   midi.NoteOnEvent(tick=0, channel=0, data=[82, 0]),
   midi.NoteOnEvent(tick=0, channel=0, data=[71, 70]),
   midi.NoteOnEvent(tick=0, channel=0, data=[83, 79]),
   midi.NoteOnEvent(tick=240, channel=0, data=[83, 0]),
   midi.NoteOnEvent(tick=0, channel=0, data=[71, 0]),
   midi.NoteOnEvent(tick=240, channel=0, data=[67, 79]),
   midi.NoteOnEvent(tick=0, channel=0, data=[79, 89]),
   midi.NoteOnEvent(tick=0, channel=0, data=[75, 81]),
   midi.NoteOnEvent(tick=360, channel=0, data=[79, 0]),
   midi.NoteOnEvent(tick=0, channel=0, data=[67, 0]),
   midi.NoteOnEvent(tick=0, channel=0, data=[66, 64]),
   midi.NoteOnEvent(tick=0, channel=0, data=[78, 72]),
   midi.NoteOnEvent(tick=120, channel=0, data=[78, 0]),
   midi.NoteOnEvent(tick=0, channel=0, data=[66, 0]),
   midi.NoteOnEvent(tick=0, channel=0, data=[75, 0]),
   midi.NoteOnEvent(tick=0, channel=0, data=[64, 70]),
   midi.NoteOnEvent(tick=0, channel=0, data=[76, 79]),
   midi.NoteOnEvent(tick=240, channel=0, data=[76, 0]),
   midi.NoteOnEvent(tick=0, channel=0, data=[64, 0]),
   midi.NoteOnEvent(tick=480, channel=0, data=[64, 44]),
   midi.NoteOnEvent(tick=240, channel=0, data=[64, 0]),
   midi.NoteOnEvent(tick=0, channel=0, data=[62, 44]),
   midi.NoteOnEvent(tick=0, channel=0, data=[69, 49]),
   midi.NoteOnEvent(tick=240, channel=0, data=[69, 0]),
   midi.NoteOnEvent(tick=0, channel=0, data=[68, 40]),
   midi.NoteOnEvent(tick=240, channel=0, data=[68, 0]),
   midi.NoteOnEvent(tick=0, channel=0, data=[66, 41]),
   midi.NoteOnEvent(tick=240, channel=0, data=[66, 0]),
   midi.NoteOnEvent(tick=0, channel=0, data=[68, 38]),
   midi.NoteOnEvent(tick=240, channel=0, data=[68, 0]),
   midi.NoteOnEvent(tick=0, channel=0, data=[62, 0]),
   midi.NoteOnEvent(tick=0, channel=0, data=[60, 33]),
   midi.NoteOnEvent(tick=0, channel=0, data=[64, 33]),
   midi.NoteOnEvent(tick=0, channel=0, data=[69, 37]),
   midi.NoteOnEvent(tick=240, channel=0, data=[69, 0]),
   midi.NoteOnEvent(tick=0, channel=0, data=[64, 0]),
   midi.NoteOnEvent(tick=0, channel=0, data=[60, 0]),
   midi.NoteOnEvent(tick=480, channel=0, data=[76, 44]),
   midi.NoteOnEvent(tick=240, channel=0, data=[76, 0]),
   midi.NoteOnEvent(tick=0, channel=0, data=[74, 44]),
   midi.NoteOnEvent(tick=0, channel=0, data=[81, 49]),
   midi.NoteOnEvent(tick=240, channel=0, data=[81, 0]),
   midi.NoteOnEvent(tick=0, channel=0, data=[80, 40]),
   midi.NoteOnEvent(tick=240, channel=0, data=[80, 0]),
   midi.NoteOnEvent(tick=0, channel=0, data=[78, 41]),
   midi.NoteOnEvent(tick=240, channel=0, data=[78, 0]),
   midi.NoteOnEvent(tick=0, channel=0, data=[80, 38]),
   midi.NoteOnEvent(tick=240, channel=0, data=[80, 0]),
   midi.NoteOnEvent(tick=0, channel=0, data=[74, 0]),
   midi.NoteOnEvent(tick=0, channel=0, data=[72, 33]),
   midi.NoteOnEvent(tick=0, channel=0, data=[76, 33]),
   midi.NoteOnEvent(tick=0, channel=0, data=[81, 37]),
   midi.NoteOnEvent(tick=240, channel=0, data=[81, 0]),
   midi.NoteOnEvent(tick=0, channel=0, data=[76, 0]),
   midi.NoteOnEvent(tick=0, channel=0, data=[72, 0]),
   midi.NoteOnEvent(tick=360, channel=0, data=[76, 49]),
   midi.NoteOnEvent(tick=120, channel=0, data=[76, 0]),
   midi.NoteOnEvent(tick=0, channel=0, data=[81, 53]),
   midi.NoteOnEvent(tick=120, channel=0, data=[81, 0]),
   midi.NoteOnEvent(tick=0, channel=0, data=[88, 49]),
   midi.NoteOnEvent(tick=120, channel=0, data=[88, 0]),
   midi.NoteOnEvent(tick=0, channel=0, data=[80, 50]),
   midi.NoteOnEvent(tick=0, channel=0, data=[74, 50]),
   midi.NoteOnEvent(tick=0, channel=0, data=[76, 50]),
   midi.NoteOnEvent(tick=480, channel=0, data=[76, 0]),
   midi.NoteOnEvent(tick=0, channel=0, data=[74, 0]),
   midi.NoteOnEvent(tick=0, channel=0, data=[80, 0]),
   midi.NoteOnEvent(tick=120, channel=0, data=[72, 49]),
   midi.NoteOnEvent(tick=120, channel=0, data=[72, 0]),
   midi.NoteOnEvent(tick=0, channel=0, data=[76, 53]),
   midi.NoteOnEvent(tick=120, channel=0, data=[76, 0]),
   midi.NoteOnEvent(tick=0, channel=0, data=[81, 49]),
   midi.NoteOnEvent(tick=120, channel=0, data=[81, 0]),
   midi.NoteOnEvent(tick=0, channel=0, data=[76, 50]),
   midi.NoteOnEvent(tick=0, channel=0, data=[71, 50]),
   midi.NoteOnEvent(tick=0, channel=0, data=[74, 50]),
   midi.NoteOnEvent(tick=480, channel=0, data=[74, 0]),
   midi.NoteOnEvent(tick=0, channel=0, data=[71, 0]),
   midi.NoteOnEvent(tick=0, channel=0, data=[76, 0]),
   midi.NoteOnEvent(tick=120, channel=0, data=[76, 49]),
   midi.NoteOnEvent(tick=120, channel=0, data=[76, 0]),
   midi.NoteOnEvent(tick=0, channel=0, data=[81, 53]),
   midi.NoteOnEvent(tick=120, channel=0, data=[81, 0]),
   midi.NoteOnEvent(tick=0, channel=0, data=[88, 49]),
   midi.NoteOnEvent(tick=120, channel=0, data=[88, 0]),
   midi.NoteOnEvent(tick=0, channel=0, data=[80, 50]),
   midi.NoteOnEvent(tick=0, channel=0, data=[74, 50]),
   midi.NoteOnEvent(tick=0, channel=0, data=[76, 50]),
   midi.NoteOnEvent(tick=480, channel=0, data=[76, 0]),
   midi.NoteOnEvent(tick=0, channel=0, data=[74, 0]),
   midi.NoteOnEvent(tick=0, channel=0, data=[80, 0]),
   midi.NoteOnEvent(tick=120, channel=0, data=[72, 49]),
   midi.NoteOnEvent(tick=120, channel=0, data=[72, 0]),
   midi.NoteOnEvent(tick=0, channel=0, data=[76, 53]),
   midi.NoteOnEvent(tick=120, channel=0, data=[76, 0]),
   midi.NoteOnEvent(tick=0, channel=0, data=[81, 49]),
   midi.NoteOnEvent(tick=120, channel=0, data=[81, 0]),
   midi.NoteOnEvent(tick=0, channel=0, data=[76, 50]),
   midi.NoteOnEvent(tick=0, channel=0, data=[71, 50]),
   midi.NoteOnEvent(tick=0, channel=0, data=[74, 50]),
   midi.NoteOnEvent(tick=480, channel=0, data=[74, 0]),
   midi.NoteOnEvent(tick=0, channel=0, data=[71, 0]),
   midi.NoteOnEvent(tick=0, channel=0, data=[76, 0]),
   midi.NoteOnEvent(tick=0, channel=0, data=[81, 56]),
   midi.NoteOnEvent(tick=120, channel=0, data=[81, 0]),
   midi.NoteOnEvent(tick=0, channel=0, data=[88, 46]),
   midi.NoteOnEvent(tick=120, channel=0, data=[88, 0]),
   midi.NoteOnEvent(tick=0, channel=0, data=[90, 52]),
   midi.NoteOnEvent(tick=120, channel=0, data=[90, 0]),
   midi.NoteOnEvent(tick=0, channel=0, data=[88, 48]),
   midi.NoteOnEvent(tick=120, channel=0, data=[88, 0]),
   midi.NoteOnEvent(tick=0, channel=0, data=[80, 56]),
   midi.NoteOnEvent(tick=120, channel=0, data=[80, 0]),
   midi.NoteOnEvent(tick=0, channel=0, data=[88, 46]),
   midi.NoteOnEvent(tick=120, channel=0, data=[88, 0]),
   midi.NoteOnEvent(tick=0, channel=0, data=[90, 53]),
   midi.NoteOnEvent(tick=120, channel=0, data=[90, 0]),
   midi.NoteOnEvent(tick=0, channel=0, data=[88, 48]),
   midi.NoteOnEvent(tick=120, channel=0, data=[88, 0]),
   midi.NoteOnEvent(tick=0, channel=0, data=[83, 56]),
   midi.NoteOnEvent(tick=120, channel=0, data=[83, 0]),
   midi.NoteOnEvent(tick=0, channel=0, data=[88, 46]),
   midi.NoteOnEvent(tick=120, channel=0, data=[88, 0]),
   midi.NoteOnEvent(tick=0, channel=0, data=[90, 52]),
   midi.NoteOnEvent(tick=120, channel=0, data=[90, 0]),
   midi.NoteOnEvent(tick=0, channel=0, data=[88, 48]),
   midi.NoteOnEvent(tick=120, channel=0, data=[88, 0]),
   midi.NoteOnEvent(tick=0, channel=0, data=[85, 56]),
   midi.NoteOnEvent(tick=120, channel=0, data=[85, 0]),
   midi.NoteOnEvent(tick=0, channel=0, data=[88, 46]),
   midi.NoteOnEvent(tick=120, channel=0, data=[88, 0]),
   midi.NoteOnEvent(tick=0, channel=0, data=[90, 53]),
   midi.NoteOnEvent(tick=120, channel=0, data=[90, 0]),
   midi.NoteOnEvent(tick=0, channel=0, data=[88, 48]),
   midi.NoteOnEvent(tick=120, channel=0, data=[88, 0]),
   midi.NoteOnEvent(tick=0, channel=0, data=[69, 56]),
   midi.NoteOnEvent(tick=120, channel=0, data=[69, 0]),
   midi.NoteOnEvent(tick=0, channel=0, data=[76, 46]),
   midi.NoteOnEvent(tick=120, channel=0, data=[76, 0]),
   midi.NoteOnEvent(tick=0, channel=0, data=[78, 52]),
   midi.NoteOnEvent(tick=120, channel=0, data=[78, 0]),
   midi.NoteOnEvent(tick=0, channel=0, data=[76, 48]),
   midi.NoteOnEvent(tick=120, channel=0, data=[76, 0]),
   midi.NoteOnEvent(tick=0, channel=0, data=[68, 56]),
   midi.NoteOnEvent(tick=120, channel=0, data=[68, 0]),
   midi.NoteOnEvent(tick=0, channel=0, data=[76, 46]),
   midi.NoteOnEvent(tick=120, channel=0, data=[76, 0]),
   midi.NoteOnEvent(tick=0, channel=0, data=[78, 53]),
   midi.NoteOnEvent(tick=120, channel=0, data=[78, 0]),
   midi.NoteOnEvent(tick=0, channel=0, data=[76, 48]),
   midi.NoteOnEvent(tick=120, channel=0, data=[76, 0]),
   midi.NoteOnEvent(tick=0, channel=0, data=[71, 56]),
   midi.NoteOnEvent(tick=120, channel=0, data=[71, 0]),
   midi.NoteOnEvent(tick=0, channel=0, data=[76, 46]),
   midi.NoteOnEvent(tick=120, channel=0, data=[76, 0]),
   midi.NoteOnEvent(tick=0, channel=0, data=[78, 52]),
   midi.NoteOnEvent(tick=120, channel=0, data=[78, 0]),
   midi.NoteOnEvent(tick=0, channel=0, data=[76, 48]),
   midi.NoteOnEvent(tick=120, channel=0, data=[76, 0]),
   midi.NoteOnEvent(tick=0, channel=0, data=[73, 56]),
   midi.NoteOnEvent(tick=120, channel=0, data=[73, 0]),
   midi.NoteOnEvent(tick=0, channel=0, data=[76, 46]),
   midi.NoteOnEvent(tick=120, channel=0, data=[76, 0]),
   midi.NoteOnEvent(tick=0, channel=0, data=[78, 53]),
   midi.NoteOnEvent(tick=120, channel=0, data=[78, 0]),
   midi.NoteOnEvent(tick=0, channel=0, data=[76, 48]),
   midi.NoteOnEvent(tick=120, channel=0, data=[76, 0]),
   midi.NoteOnEvent(tick=0, channel=0, data=[66, 70]),
   midi.NoteOnEvent(tick=0, channel=0, data=[69, 58]),
   midi.NoteOnEvent(tick=120, channel=0, data=[73, 48]),
   midi.NoteOnEvent(tick=20, channel=0, data=[69, 0]),
   midi.NoteOnEvent(tick=100, channel=0, data=[74, 55]),
   midi.NoteOnEvent(tick=20, channel=0, data=[73, 0]),
   midi.NoteOnEvent(tick=100, channel=0, data=[73, 50]),
   midi.NoteOnEvent(tick=20, channel=0, data=[74, 0]),
   midi.NoteOnEvent(tick=100, channel=0, data=[73, 0]),
   midi.NoteOnEvent(tick=0, channel=0, data=[66, 0]),
   midi.NoteOnEvent(tick=0, channel=0, data=[65, 64]),
   midi.NoteOnEvent(tick=120, channel=0, data=[65, 0]),
   midi.NoteOnEvent(tick=0, channel=0, data=[69, 48]),
   midi.NoteOnEvent(tick=120, channel=0, data=[64, 62]),
   midi.NoteOnEvent(tick=0, channel=0, data=[73, 56]),
   midi.NoteOnEvent(tick=20, channel=0, data=[69, 0]),
   midi.NoteOnEvent(tick=100, channel=0, data=[64, 0]),
   midi.NoteOnEvent(tick=0, channel=0, data=[69, 50]),
   midi.NoteOnEvent(tick=20, channel=0, data=[73, 0]),
   midi.NoteOnEvent(tick=100, channel=0, data=[69, 0]),
   midi.NoteOnEvent(tick=0, channel=0, data=[62, 64]),
   midi.NoteOnEvent(tick=120, channel=0, data=[62, 0]),
   midi.NoteOnEvent(tick=0, channel=0, data=[64, 48]),
   midi.NoteOnEvent(tick=120, channel=0, data=[69, 48]),
   midi.NoteOnEvent(tick=0, channel=0, data=[61, 61]),
   midi.NoteOnEvent(tick=20, channel=0, data=[64, 0]),
   midi.NoteOnEvent(tick=100, channel=0, data=[61, 0]),
   midi.NoteOnEvent(tick=0, channel=0, data=[64, 50]),
   midi.NoteOnEvent(tick=20, channel=0, data=[69, 0]),
   midi.NoteOnEvent(tick=100, channel=0, data=[64, 0]),
   midi.NoteOnEvent(tick=0, channel=0, data=[61, 58]),
   midi.NoteOnEvent(tick=120, channel=0, data=[61, 0]),
   midi.NoteOnEvent(tick=0, channel=0, data=[64, 48]),
   midi.NoteOnEvent(tick=120, channel=0, data=[66, 55]),
   midi.NoteOnEvent(tick=20, channel=0, data=[64, 0]),
   midi.NoteOnEvent(tick=100, channel=0, data=[64, 50]),
   midi.NoteOnEvent(tick=20, channel=0, data=[66, 0]),
   midi.NoteOnEvent(tick=100, channel=0, data=[64, 0]),
   midi.NoteOnEvent(tick=4320, channel=0, data=[51, 69]),
   midi.NoteOnEvent(tick=120, channel=0, data=[52, 61]),
   midi.NoteOnEvent(tick=20, channel=0, data=[51, 0]),
   midi.NoteOnEvent(tick=100, channel=0, data=[56, 66]),
   midi.NoteOnEvent(tick=20, channel=0, data=[52, 0]),
   midi.NoteOnEvent(tick=100, channel=0, data=[57, 59]),
   midi.NoteOnEvent(tick=20, channel=0, data=[56, 0]),
   midi.NoteOnEvent(tick=100, channel=0, data=[57, 0]),
   midi.NoteOnEvent(tick=480, channel=0, data=[63, 72]),
   midi.NoteOnEvent(tick=120, channel=0, data=[64, 63]),
   midi.NoteOnEvent(tick=20, channel=0, data=[63, 0]),
   midi.NoteOnEvent(tick=100, channel=0, data=[68, 69]),
   midi.NoteOnEvent(tick=20, channel=0, data=[64, 0]),
   midi.NoteOnEvent(tick=100, channel=0, data=[69, 64]),
   midi.NoteOnEvent(tick=20, channel=0, data=[68, 0]),
   midi.NoteOnEvent(tick=100, channel=0, data=[69, 0]),
   midi.NoteOnEvent(tick=480, channel=0, data=[75, 75]),
   midi.NoteOnEvent(tick=120, channel=0, data=[76, 64]),
   midi.NoteOnEvent(tick=20, channel=0, data=[75, 0]),
   midi.NoteOnEvent(tick=100, channel=0, data=[80, 72]),
   midi.NoteOnEvent(tick=20, channel=0, data=[76, 0]),
   midi.NoteOnEvent(tick=100, channel=0, data=[81, 64]),
   midi.NoteOnEvent(tick=20, channel=0, data=[80, 0]),
   midi.NoteOnEvent(tick=100, channel=0, data=[81, 0]),
   midi.NoteOnEvent(tick=480, channel=0, data=[87, 79]),
   midi.NoteOnEvent(tick=120, channel=0, data=[88, 71]),
   midi.NoteOnEvent(tick=20, channel=0, data=[87, 0]),
   midi.NoteOnEvent(tick=100, channel=0, data=[92, 77]),
   midi.NoteOnEvent(tick=20, channel=0, data=[88, 0]),
   midi.NoteOnEvent(tick=100, channel=0, data=[93, 72]),
   midi.NoteOnEvent(tick=20, channel=0, data=[92, 0]),
   midi.NoteOnEvent(tick=100, channel=0, data=[93, 0]),
   midi.ControlChangeEvent(tick=0, channel=0, data=[91, 127]),
   midi.NoteOnEvent(tick=1, channel=0, data=[78, 79]),
   midi.NoteOnEvent(tick=0, channel=0, data=[74, 79]),
   midi.NoteOnEvent(tick=0, channel=0, data=[81, 88]),
   midi.NoteOnEvent(tick=239, channel=0, data=[74, 0]),
   midi.NoteOnEvent(tick=0, channel=0, data=[78, 0]),
   midi.NoteOnEvent(tick=0, channel=0, data=[69, 74]),
   midi.NoteOnEvent(tick=240, channel=0, data=[69, 0]),
   midi.NoteOnEvent(tick=0, channel=0, data=[81, 0]),
   midi.NoteOnEvent(tick=0, channel=0, data=[76, 84]),
   midi.NoteOnEvent(tick=0, channel=0, data=[70, 75]),
   midi.NoteOnEvent(tick=0, channel=0, data=[74, 75]),
   midi.NoteOnEvent(tick=240, channel=0, data=[74, 0]),
   midi.NoteOnEvent(tick=0, channel=0, data=[70, 0]),
   midi.NoteOnEvent(tick=0, channel=0, data=[64, 69]),
   midi.NoteOnEvent(tick=240, channel=0, data=[64, 0]),
   midi.NoteOnEvent(tick=0, channel=0, data=[76, 0]),
   midi.NoteOnEvent(tick=0, channel=0, data=[81, 88]),
   midi.NoteOnEvent(tick=0, channel=0, data=[74, 79]),
   midi.NoteOnEvent(tick=0, channel=0, data=[78, 79]),
   midi.NoteOnEvent(tick=240, channel=0, data=[78, 0]),
   midi.NoteOnEvent(tick=0, channel=0, data=[74, 0]),
   midi.NoteOnEvent(tick=0, channel=0, data=[69, 74]),
   midi.NoteOnEvent(tick=240, channel=0, data=[69, 0]),
   midi.NoteOnEvent(tick=0, channel=0, data=[81, 0]),
   midi.NoteOnEvent(tick=0, channel=0, data=[76, 84]),
   midi.NoteOnEvent(tick=0, channel=0, data=[70, 75]),
   midi.NoteOnEvent(tick=0, channel=0, data=[74, 75]),
   midi.NoteOnEvent(tick=240, channel=0, data=[74, 0]),
   midi.NoteOnEvent(tick=0, channel=0, data=[70, 0]),
   midi.NoteOnEvent(tick=0, channel=0, data=[64, 74]),
   midi.NoteOnEvent(tick=240, channel=0, data=[64, 0]),
   midi.NoteOnEvent(tick=0, channel=0, data=[76, 0]),
   midi.NoteOnEvent(tick=0, channel=0, data=[74, 72]),
   midi.NoteOnEvent(tick=60, channel=0, data=[74, 0]),
   midi.NoteOnEvent(tick=60, channel=0, data=[76, 62]),
   midi.NoteOnEvent(tick=60, channel=0, data=[76, 0]),
   midi.NoteOnEvent(tick=60, channel=0, data=[74, 69]),
   midi.NoteOnEvent(tick=60, channel=0, data=[74, 0]),
   midi.NoteOnEvent(tick=60, channel=0, data=[76, 63]),
   midi.NoteOnEvent(tick=60, channel=0, data=[76, 0]),
   midi.NoteOnEvent(tick=60, channel=0, data=[78, 72]),
   midi.NoteOnEvent(tick=120, channel=0, data=[78, 0]),
   midi.NoteOnEvent(tick=120, channel=0, data=[78, 68]),
   midi.NoteOnEvent(tick=120, channel=0, data=[78, 0]),
   midi.NoteOnEvent(tick=120, channel=0, data=[74, 66]),
   midi.NoteOnEvent(tick=0, channel=0, data=[67, 66]),
   midi.NoteOnEvent(tick=0, channel=0, data=[76, 73]),
   midi.NoteOnEvent(tick=240, channel=0, data=[76, 0]),
   midi.NoteOnEvent(tick=0, channel=0, data=[79, 69]),
   midi.NoteOnEvent(tick=240, channel=0, data=[79, 0]),
   midi.NoteOnEvent(tick=0, channel=0, data=[67, 0]),
   midi.NoteOnEvent(tick=0, channel=0, data=[74, 0]),
   midi.NoteOnEvent(tick=0, channel=0, data=[73, 64]),
   midi.NoteOnEvent(tick=0, channel=0, data=[76, 72]),
   midi.NoteOnEvent(tick=240, channel=0, data=[73, 0]),
   midi.NoteOnEvent(tick=0, channel=0, data=[69, 68]),
   midi.NoteOnEvent(tick=240, channel=0, data=[69, 0]),
   midi.NoteOnEvent(tick=0, channel=0, data=[76, 0]),
   midi.NoteOnEvent(tick=0, channel=0, data=[81, 88]),
   midi.NoteOnEvent(tick=0, channel=0, data=[74, 79]),
   midi.NoteOnEvent(tick=0, channel=0, data=[78, 79]),
   midi.NoteOnEvent(tick=240, channel=0, data=[78, 0]),
   midi.NoteOnEvent(tick=0, channel=0, data=[74, 0]),
   midi.NoteOnEvent(tick=0, channel=0, data=[69, 74]),
   midi.NoteOnEvent(tick=240, channel=0, data=[69, 0]),
   midi.NoteOnEvent(tick=0, channel=0, data=[81, 0]),
   midi.NoteOnEvent(tick=0, channel=0, data=[76, 84]),
   midi.NoteOnEvent(tick=0, channel=0, data=[70, 75]),
   midi.NoteOnEvent(tick=0, channel=0, data=[74, 75]),
   midi.NoteOnEvent(tick=240, channel=0, data=[74, 0]),
   midi.NoteOnEvent(tick=0, channel=0, data=[70, 0]),
   midi.NoteOnEvent(tick=0, channel=0, data=[64, 70]),
   midi.NoteOnEvent(tick=240, channel=0, data=[64, 0]),
   midi.NoteOnEvent(tick=0, channel=0, data=[76, 0]),
   midi.NoteOnEvent(tick=0, channel=0, data=[81, 88]),
   midi.NoteOnEvent(tick=0, channel=0, data=[74, 79]),
   midi.NoteOnEvent(tick=0, channel=0, data=[78, 79]),
   midi.NoteOnEvent(tick=240, channel=0, data=[78, 0]),
   midi.NoteOnEvent(tick=0, channel=0, data=[74, 0]),
   midi.NoteOnEvent(tick=0, channel=0, data=[69, 74]),
   midi.NoteOnEvent(tick=240, channel=0, data=[69, 0]),
   midi.NoteOnEvent(tick=0, channel=0, data=[81, 0]),
   midi.NoteOnEvent(tick=0, channel=0, data=[76, 84]),
   midi.NoteOnEvent(tick=0, channel=0, data=[70, 75]),
   midi.NoteOnEvent(tick=0, channel=0, data=[74, 75]),
   midi.NoteOnEvent(tick=240, channel=0, data=[74, 0]),
   midi.NoteOnEvent(tick=0, channel=0, data=[70, 0]),
   midi.NoteOnEvent(tick=0, channel=0, data=[64, 71]),
   midi.NoteOnEvent(tick=240, channel=0, data=[64, 0]),
   midi.NoteOnEvent(tick=0, channel=0, data=[76, 0]),
   midi.NoteOnEvent(tick=0, channel=0, data=[74, 77]),
   midi.NoteOnEvent(tick=60, channel=0, data=[74, 0]),
   midi.NoteOnEvent(tick=60, channel=0, data=[76, 72]),
   midi.NoteOnEvent(tick=60, channel=0, data=[76, 0]),
   midi.NoteOnEvent(tick=60, channel=0, data=[74, 77]),
   midi.NoteOnEvent(tick=60, channel=0, data=[74, 0]),
   midi.NoteOnEvent(tick=60, channel=0, data=[76, 71]),
   midi.NoteOnEvent(tick=60, channel=0, data=[76, 0]),
   midi.NoteOnEvent(tick=60, channel=0, data=[78, 80]),
   midi.NoteOnEvent(tick=120, channel=0, data=[78, 0]),
   midi.NoteOnEvent(tick=120, channel=0, data=[78, 72]),
   midi.NoteOnEvent(tick=120, channel=0, data=[78, 0]),
   midi.NoteOnEvent(tick=120, channel=0, data=[74, 80]),
   midi.NoteOnEvent(tick=0, channel=0, data=[76, 80]),
   midi.NoteOnEvent(tick=60, channel=0, data=[76, 0]),
   midi.NoteOnEvent(tick=0, channel=0, data=[74, 0]),
   midi.NoteOnEvent(tick=60, channel=0, data=[78, 81]),
   midi.NoteOnEvent(tick=60, channel=0, data=[78, 0]),
   midi.NoteOnEvent(tick=60, channel=0, data=[79, 83]),
   midi.NoteOnEvent(tick=60, channel=0, data=[79, 0]),
   midi.NoteOnEvent(tick=60, channel=0, data=[81, 85]),
   midi.NoteOnEvent(tick=60, channel=0, data=[81, 0]),
   midi.NoteOnEvent(tick=60, channel=0, data=[82, 86]),
   midi.NoteOnEvent(tick=240, channel=0, data=[82, 0]),
   midi.NoteOnEvent(tick=360, channel=0, data=[61, 42]),
   midi.NoteOnEvent(tick=0, channel=0, data=[63, 42]),
   midi.NoteOnEvent(tick=120, channel=0, data=[63, 0]),
   midi.NoteOnEvent(tick=0, channel=0, data=[61, 0]),
   midi.NoteOnEvent(tick=120, channel=0, data=[61, 42]),
   midi.NoteOnEvent(tick=0, channel=0, data=[63, 42]),
   midi.NoteOnEvent(tick=120, channel=0, data=[63, 0]),
   midi.NoteOnEvent(tick=0, channel=0, data=[61, 0]),
   midi.NoteOnEvent(tick=0, channel=0, data=[60, 47]),
   midi.NoteOnEvent(tick=240, channel=0, data=[72, 42]),
   midi.NoteOnEvent(tick=0, channel=0, data=[63, 42]),
   midi.NoteOnEvent(tick=240, channel=0, data=[63, 0]),
   midi.NoteOnEvent(tick=0, channel=0, data=[72, 0]),
   midi.NoteOnEvent(tick=0, channel=0, data=[60, 0]),
   midi.NoteOnEvent(tick=120, channel=0, data=[63, 46]),
   midi.NoteOnEvent(tick=0, channel=0, data=[65, 46]),
   midi.NoteOnEvent(tick=120, channel=0, data=[65, 0]),
   midi.NoteOnEvent(tick=0, channel=0, data=[63, 0]),
   midi.NoteOnEvent(tick=120, channel=0, data=[63, 46]),
   midi.NoteOnEvent(tick=0, channel=0, data=[65, 46]),
   midi.NoteOnEvent(tick=120, channel=0, data=[65, 0]),
   midi.NoteOnEvent(tick=0, channel=0, data=[63, 0]),
   midi.NoteOnEvent(tick=0, channel=0, data=[62, 52]),
   midi.NoteOnEvent(tick=240, channel=0, data=[74, 47]),
   midi.NoteOnEvent(tick=0, channel=0, data=[65, 41]),
   midi.NoteOnEvent(tick=240, channel=0, data=[65, 0]),
   midi.NoteOnEvent(tick=0, channel=0, data=[74, 0]),
   midi.NoteOnEvent(tick=0, channel=0, data=[62, 0]),
   midi.NoteOnEvent(tick=0, channel=0, data=[62, 49]),
   midi.NoteOnEvent(tick=240, channel=0, data=[67, 38]),
   midi.NoteOnEvent(tick=0, channel=0, data=[74, 41]),
   midi.NoteOnEvent(tick=0, channel=0, data=[65, 38]),
   midi.NoteOnEvent(tick=240, channel=0, data=[65, 0]),
   midi.NoteOnEvent(tick=0, channel=0, data=[62, 0]),
   midi.NoteOnEvent(tick=0, channel=0, data=[67, 0]),
   midi.NoteOnEvent(tick=0, channel=0, data=[74, 0]),
   midi.NoteOnEvent(tick=0, channel=0, data=[63, 50]),
   midi.NoteOnEvent(tick=240, channel=0, data=[75, 43]),
   midi.NoteOnEvent(tick=0, channel=0, data=[67, 38]),
   midi.NoteOnEvent(tick=240, channel=0, data=[67, 0]),
   midi.NoteOnEvent(tick=0, channel=0, data=[75, 0]),
   midi.NoteOnEvent(tick=0, channel=0, data=[63, 0]),
   midi.NoteOnEvent(tick=0, channel=0, data=[65, 54]),
   midi.NoteOnEvent(tick=240, channel=0, data=[71, 38]),
   midi.NoteOnEvent(tick=0, channel=0, data=[79, 43]),
   midi.NoteOnEvent(tick=240, channel=0, data=[79, 0]),
   midi.NoteOnEvent(tick=0, channel=0, data=[71, 0]),
   midi.NoteOnEvent(tick=0, channel=0, data=[65, 0]),
   midi.NoteOnEvent(tick=0, channel=0, data=[63, 53]),
   midi.NoteOnEvent(tick=240, channel=0, data=[75, 45]),
   midi.NoteOnEvent(tick=0, channel=0, data=[67, 40]),
   midi.NoteOnEvent(tick=240, channel=0, data=[67, 0]),
   midi.NoteOnEvent(tick=0, channel=0, data=[75, 0]),
   midi.NoteOnEvent(tick=0, channel=0, data=[63, 0]),
   midi.NoteOnEvent(tick=120, channel=0, data=[65, 47]),
   midi.NoteOnEvent(tick=0, channel=0, data=[67, 47]),
   midi.NoteOnEvent(tick=120, channel=0, data=[67, 0]),
   midi.NoteOnEvent(tick=0, channel=0, data=[65, 0]),
   midi.NoteOnEvent(tick=120, channel=0, data=[65, 48]),
   midi.NoteOnEvent(tick=0, channel=0, data=[67, 48]),
   midi.NoteOnEvent(tick=120, channel=0, data=[67, 0]),
   midi.NoteOnEvent(tick=0, channel=0, data=[65, 0]),
   midi.NoteOnEvent(tick=0, channel=0, data=[64, 53]),
   midi.NoteOnEvent(tick=240, channel=0, data=[76, 48]),
   midi.NoteOnEvent(tick=0, channel=0, data=[67, 43]),
   midi.NoteOnEvent(tick=240, channel=0, data=[67, 0]),
   midi.NoteOnEvent(tick=0, channel=0, data=[76, 0]),
   midi.NoteOnEvent(tick=0, channel=0, data=[64, 0]),
   midi.NoteOnEvent(tick=120, channel=0, data=[67, 53]),
   midi.NoteOnEvent(tick=0, channel=0, data=[69, 53]),
   midi.NoteOnEvent(tick=120, channel=0, data=[69, 0]),
   midi.NoteOnEvent(tick=0, channel=0, data=[67, 0]),
   midi.NoteOnEvent(tick=120, channel=0, data=[67, 53]),
   midi.NoteOnEvent(tick=0, channel=0, data=[69, 53]),
   midi.NoteOnEvent(tick=120, channel=0, data=[69, 0]),
   midi.NoteOnEvent(tick=0, channel=0, data=[67, 0]),
   midi.NoteOnEvent(tick=0, channel=0, data=[65, 58]),
   midi.NoteOnEvent(tick=240, channel=0, data=[77, 53]),
   midi.NoteOnEvent(tick=0, channel=0, data=[69, 47]),
   midi.NoteOnEvent(tick=240, channel=0, data=[69, 0]),
   midi.NoteOnEvent(tick=0, channel=0, data=[77, 0]),
   midi.NoteOnEvent(tick=0, channel=0, data=[65, 0]),
   midi.NoteOnEvent(tick=0, channel=0, data=[64, 58]),
   midi.NoteOnEvent(tick=240, channel=0, data=[69, 44]),
   midi.NoteOnEvent(tick=0, channel=0, data=[76, 49]),
   midi.NoteOnEvent(tick=0, channel=0, data=[67, 44]),
   midi.NoteOnEvent(tick=240, channel=0, data=[67, 0]),
   midi.NoteOnEvent(tick=0, channel=0, data=[64, 0]),
   midi.NoteOnEvent(tick=0, channel=0, data=[69, 0]),
   midi.NoteOnEvent(tick=0, channel=0, data=[76, 0]),
   midi.NoteOnEvent(tick=0, channel=0, data=[65, 59]),
   midi.NoteOnEvent(tick=240, channel=0, data=[77, 52]),
   midi.NoteOnEvent(tick=0, channel=0, data=[69, 46]),
   midi.NoteOnEvent(tick=240, channel=0, data=[69, 0]),
   midi.NoteOnEvent(tick=0, channel=0, data=[77, 0]),
   midi.NoteOnEvent(tick=0, channel=0, data=[65, 0]),
   midi.NoteOnEvent(tick=0, channel=0, data=[67, 65]),
   midi.NoteOnEvent(tick=240, channel=0, data=[73, 46]),
   midi.NoteOnEvent(tick=0, channel=0, data=[81, 53]),
   midi.NoteOnEvent(tick=240, channel=0, data=[81, 0]),
   midi.NoteOnEvent(tick=0, channel=0, data=[73, 0]),
   midi.NoteOnEvent(tick=0, channel=0, data=[67, 0]),
   midi.NoteOnEvent(tick=0, channel=0, data=[65, 62]),
   midi.NoteOnEvent(tick=240, channel=0, data=[77, 55]),
   midi.NoteOnEvent(tick=0, channel=0, data=[69, 48]),
   midi.NoteOnEvent(tick=240, channel=0, data=[69, 0]),
   midi.NoteOnEvent(tick=0, channel=0, data=[77, 0]),
   midi.NoteOnEvent(tick=0, channel=0, data=[65, 0]),
   midi.NoteOnEvent(tick=0, channel=0, data=[64, 66]),
   midi.NoteOnEvent(tick=240, channel=0, data=[69, 50]),
   midi.NoteOnEvent(tick=0, channel=0, data=[76, 57]),
   midi.NoteOnEvent(tick=0, channel=0, data=[67, 50]),
   midi.NoteOnEvent(tick=240, channel=0, data=[67, 0]),
   midi.NoteOnEvent(tick=0, channel=0, data=[64, 0]),
   midi.NoteOnEvent(tick=0, channel=0, data=[69, 0]),
   midi.NoteOnEvent(tick=0, channel=0, data=[76, 0]),
   midi.NoteOnEvent(tick=0, channel=0, data=[65, 66]),
   midi.NoteOnEvent(tick=240, channel=0, data=[77, 57]),
   midi.NoteOnEvent(tick=0, channel=0, data=[69, 50]),
   midi.NoteOnEvent(tick=240, channel=0, data=[69, 0]),
   midi.NoteOnEvent(tick=0, channel=0, data=[77, 0]),
   midi.NoteOnEvent(tick=0, channel=0, data=[65, 0]),
   midi.NoteOnEvent(tick=0, channel=0, data=[69, 70]),
   midi.NoteOnEvent(tick=240, channel=0, data=[78, 50]),
   midi.NoteOnEvent(tick=0, channel=0, data=[83, 57]),
   midi.NoteOnEvent(tick=240, channel=0, data=[83, 0]),
   midi.NoteOnEvent(tick=0, channel=0, data=[78, 0]),
   midi.NoteOnEvent(tick=0, channel=0, data=[69, 0]),
   midi.NoteOnEvent(tick=0, channel=0, data=[67, 67]),
   midi.NoteOnEvent(tick=240, channel=0, data=[79, 59]),
   midi.NoteOnEvent(tick=0, channel=0, data=[71, 53]),
   midi.NoteOnEvent(tick=240, channel=0, data=[71, 0]),
   midi.NoteOnEvent(tick=0, channel=0, data=[79, 0]),
   midi.NoteOnEvent(tick=0, channel=0, data=[67, 0]),
   midi.NoteOnEvent(tick=0, channel=0, data=[66, 71]),
   midi.NoteOnEvent(tick=240, channel=0, data=[71, 57]),
   midi.NoteOnEvent(tick=0, channel=0, data=[78, 64]),
   midi.NoteOnEvent(tick=0, channel=0, data=[69, 57]),
   midi.NoteOnEvent(tick=240, channel=0, data=[69, 0]),
   midi.NoteOnEvent(tick=0, channel=0, data=[66, 0]),
   midi.NoteOnEvent(tick=0, channel=0, data=[71, 0]),
   midi.NoteOnEvent(tick=0, channel=0, data=[78, 0]),
   midi.NoteOnEvent(tick=0, channel=0, data=[67, 74]),
   midi.NoteOnEvent(tick=240, channel=0, data=[79, 64]),
   midi.NoteOnEvent(tick=0, channel=0, data=[71, 58]),
   midi.NoteOnEvent(tick=240, channel=0, data=[71, 0]),
   midi.NoteOnEvent(tick=0, channel=0, data=[79, 0]),
   midi.NoteOnEvent(tick=0, channel=0, data=[67, 0]),
   midi.NoteOnEvent(tick=0, channel=0, data=[71, 76]),
   midi.NoteOnEvent(tick=240, channel=0, data=[80, 58]),
   midi.NoteOnEvent(tick=0, channel=0, data=[85, 65]),
   midi.NoteOnEvent(tick=240, channel=0, data=[85, 0]),
   midi.NoteOnEvent(tick=0, channel=0, data=[80, 0]),
   midi.NoteOnEvent(tick=0, channel=0, data=[71, 0]),
   midi.NoteOnEvent(tick=0, channel=0, data=[69, 75]),
   midi.NoteOnEvent(tick=240, channel=0, data=[81, 67]),
   midi.NoteOnEvent(tick=0, channel=0, data=[73, 60]),
   midi.NoteOnEvent(tick=240, channel=0, data=[73, 0]),
   midi.NoteOnEvent(tick=0, channel=0, data=[81, 0]),
   midi.NoteOnEvent(tick=0, channel=0, data=[69, 0]),
   midi.NoteOnEvent(tick=0, channel=0, data=[72, 82]),
   midi.NoteOnEvent(tick=240, channel=0, data=[81, 60]),
   midi.NoteOnEvent(tick=0, channel=0, data=[86, 69]),
   midi.NoteOnEvent(tick=240, channel=0, data=[86, 0]),
   midi.NoteOnEvent(tick=0, channel=0, data=[81, 0]),
   midi.NoteOnEvent(tick=0, channel=0, data=[72, 0]),
   midi.NoteOnEvent(tick=0, channel=0, data=[71, 78]),
   midi.NoteOnEvent(tick=240, channel=0, data=[83, 72]),
   midi.NoteOnEvent(tick=0, channel=0, data=[74, 65]),
   midi.NoteOnEvent(tick=240, channel=0, data=[74, 0]),
   midi.NoteOnEvent(tick=0, channel=0, data=[83, 0]),
   midi.NoteOnEvent(tick=0, channel=0, data=[71, 0]),
   midi.NoteOnEvent(tick=0, channel=0, data=[72, 83]),
   midi.NoteOnEvent(tick=240, channel=0, data=[81, 61]),
   midi.NoteOnEvent(tick=0, channel=0, data=[86, 70]),
   midi.NoteOnEvent(tick=240, channel=0, data=[86, 0]),
   midi.NoteOnEvent(tick=0, channel=0, data=[81, 0]),
   midi.NoteOnEvent(tick=0, channel=0, data=[72, 0]),
   midi.NoteOnEvent(tick=0, channel=0, data=[71, 79]),
   midi.NoteOnEvent(tick=240, channel=0, data=[83, 70]),
   midi.NoteOnEvent(tick=0, channel=0, data=[74, 61]),
   midi.NoteOnEvent(tick=240, channel=0, data=[74, 0]),
   midi.NoteOnEvent(tick=0, channel=0, data=[83, 0]),
   midi.NoteOnEvent(tick=0, channel=0, data=[71, 0]),
   midi.NoteOnEvent(tick=0, channel=0, data=[88, 86]),
   midi.NoteOnEvent(tick=60, channel=0, data=[88, 0]),
   midi.NoteOnEvent(tick=60, channel=0, data=[86, 73]),
   midi.NoteOnEvent(tick=60, channel=0, data=[86, 0]),
   midi.NoteOnEvent(tick=60, channel=0, data=[82, 80]),
   midi.NoteOnEvent(tick=60, channel=0, data=[82, 0]),
   midi.NoteOnEvent(tick=60, channel=0, data=[81, 71]),
   midi.NoteOnEvent(tick=60, channel=0, data=[81, 0]),
   midi.NoteOnEvent(tick=60, channel=0, data=[79, 77]),
   midi.NoteOnEvent(tick=120, channel=0, data=[79, 0]),
   midi.NoteOnEvent(tick=360, channel=0, data=[76, 74]),
   midi.NoteOnEvent(tick=60, channel=0, data=[76, 0]),
   midi.NoteOnEvent(tick=60, channel=0, data=[74, 67]),
   midi.NoteOnEvent(tick=60, channel=0, data=[74, 0]),
   midi.NoteOnEvent(tick=60, channel=0, data=[70, 72]),
   midi.NoteOnEvent(tick=60, channel=0, data=[70, 0]),
   midi.NoteOnEvent(tick=60, channel=0, data=[69, 64]),
   midi.NoteOnEvent(tick=60, channel=0, data=[69, 0]),
   midi.NoteOnEvent(tick=60, channel=0, data=[67, 75]),
   midi.NoteOnEvent(tick=120, channel=0, data=[67, 0]),
   midi.NoteOnEvent(tick=360, channel=0, data=[64, 74]),
   midi.NoteOnEvent(tick=60, channel=0, data=[64, 0]),
   midi.NoteOnEvent(tick=60, channel=0, data=[62, 63]),
   midi.NoteOnEvent(tick=60, channel=0, data=[62, 0]),
   midi.NoteOnEvent(tick=60, channel=0, data=[58, 70]),
   midi.NoteOnEvent(tick=60, channel=0, data=[58, 0]),
   midi.NoteOnEvent(tick=60, channel=0, data=[57, 60]),
   midi.NoteOnEvent(tick=60, channel=0, data=[57, 0]),
   midi.NoteOnEvent(tick=60, channel=0, data=[55, 75]),
   midi.NoteOnEvent(tick=120, channel=0, data=[55, 0]),
   midi.NoteOnEvent(tick=360, channel=0, data=[52, 74]),
   midi.NoteOnEvent(tick=60, channel=0, data=[52, 0]),
   midi.NoteOnEvent(tick=60, channel=0, data=[50, 64]),
   midi.NoteOnEvent(tick=60, channel=0, data=[50, 0]),
   midi.NoteOnEvent(tick=60, channel=0, data=[46, 70]),
   midi.NoteOnEvent(tick=60, channel=0, data=[46, 0]),
   midi.NoteOnEvent(tick=60, channel=0, data=[45, 64]),
   midi.NoteOnEvent(tick=60, channel=0, data=[45, 0]),
   midi.NoteOnEvent(tick=60, channel=0, data=[43, 75]),
   midi.NoteOnEvent(tick=120, channel=0, data=[43, 0]),
   midi.NoteOnEvent(tick=2280, channel=0, data=[50, 56]),
   midi.NoteOnEvent(tick=0, channel=0, data=[52, 56]),
   midi.NoteOnEvent(tick=0, channel=0, data=[64, 62]),
   midi.NoteOnEvent(tick=0, channel=0, data=[62, 62]),
   midi.NoteOnEvent(tick=1920, channel=0, data=[62, 0]),
   midi.NoteOnEvent(tick=0, channel=0, data=[50, 0]),
   midi.NoteOnEvent(tick=0, channel=0, data=[52, 0]),
   midi.NoteOnEvent(tick=0, channel=0, data=[64, 0]),
   midi.NoteOnEvent(tick=1920, channel=0, data=[62, 49]),
   midi.NoteOnEvent(tick=0, channel=0, data=[64, 49]),
   midi.NoteOnEvent(tick=0, channel=0, data=[76, 56]),
   midi.NoteOnEvent(tick=0, channel=0, data=[74, 56]),
   midi.NoteOnEvent(tick=1920, channel=0, data=[74, 0]),
   midi.NoteOnEvent(tick=0, channel=0, data=[62, 0]),
   midi.NoteOnEvent(tick=0, channel=0, data=[64, 0]),
   midi.NoteOnEvent(tick=0, channel=0, data=[76, 0]),
   midi.NoteOnEvent(tick=0, channel=0, data=[74, 41]),
   midi.NoteOnEvent(tick=0, channel=0, data=[76, 41]),
   midi.NoteOnEvent(tick=0, channel=0, data=[88, 45]),
   midi.NoteOnEvent(tick=0, channel=0, data=[86, 45]),
   midi.NoteOnEvent(tick=1920, channel=0, data=[86, 0]),
   midi.NoteOnEvent(tick=0, channel=0, data=[74, 0]),
   midi.NoteOnEvent(tick=0, channel=0, data=[76, 0]),
   midi.NoteOnEvent(tick=0, channel=0, data=[88, 0]),
   midi.NoteOnEvent(tick=960, channel=0, data=[79, 97]),
   midi.NoteOnEvent(tick=120, channel=0, data=[79, 0]),
   midi.NoteOnEvent(tick=120, channel=0, data=[79, 88]),
   midi.NoteOnEvent(tick=120, channel=0, data=[79, 0]),
   midi.NoteOnEvent(tick=120, channel=0, data=[79, 96]),
   midi.NoteOnEvent(tick=120, channel=0, data=[81, 83]),
   midi.NoteOnEvent(tick=20, channel=0, data=[79, 0]),
   midi.NoteOnEvent(tick=100, channel=0, data=[82, 88]),
   midi.NoteOnEvent(tick=20, channel=0, data=[81, 0]),
   midi.NoteOnEvent(tick=100, channel=0, data=[79, 79]),
   midi.NoteOnEvent(tick=20, channel=0, data=[82, 0]),
   midi.NoteOnEvent(tick=100, channel=0, data=[79, 0]),
   midi.NoteOnEvent(tick=0, channel=0, data=[80, 101]),
   midi.NoteOnEvent(tick=120, channel=0, data=[80, 0]),
   midi.NoteOnEvent(tick=120, channel=0, data=[81, 93]),
   midi.NoteOnEvent(tick=120, channel=0, data=[81, 0]),
   midi.NoteOnEvent(tick=120, channel=0, data=[74, 99]),
   midi.NoteOnEvent(tick=0, channel=0, data=[78, 99]),
   midi.NoteOnEvent(tick=0, channel=0, data=[86, 111]),
   midi.NoteOnEvent(tick=240, channel=0, data=[86, 0]),
   midi.NoteOnEvent(tick=0, channel=0, data=[78, 0]),
   midi.NoteOnEvent(tick=0, channel=0, data=[74, 0]),
   midi.EndOfTrackEvent(tick=0, data=[])]),
 midi.Track(\
[    midi.ControlChangeEvent(tick=0, channel=0, data=[7, 100]),
   midi.ControlChangeEvent(tick=0, channel=0, data=[10, 64]),
   midi.ControlChangeEvent(tick=0, channel=0, data=[64, 127]),
   midi.ControlChangeEvent(tick=0, channel=0, data=[91, 127]),
   midi.NoteOnEvent(tick=1, channel=0, data=[54, 64]),
   midi.NoteOnEvent(tick=0, channel=0, data=[57, 74]),
   midi.NoteOnEvent(tick=0, channel=0, data=[50, 64]),
   midi.NoteOnEvent(tick=239, channel=0, data=[57, 0]),
   midi.NoteOnEvent(tick=0, channel=0, data=[62, 60]),
   midi.NoteOnEvent(tick=240, channel=0, data=[62, 0]),
   midi.NoteOnEvent(tick=0, channel=0, data=[50, 0]),
   midi.NoteOnEvent(tick=0, channel=0, data=[54, 0]),
   midi.NoteOnEvent(tick=0, channel=0, data=[55, 62]),
   midi.NoteOnEvent(tick=0, channel=0, data=[58, 71]),
   midi.NoteOnEvent(tick=0, channel=0, data=[50, 62]),
   midi.ControlChangeEvent(tick=10, channel=0, data=[64, 0]),
   midi.ControlChangeEvent(tick=81, channel=0, data=[64, 127]),
   midi.NoteOnEvent(tick=149, channel=0, data=[58, 0]),
   midi.NoteOnEvent(tick=0, channel=0, data=[62, 55]),
   midi.NoteOnEvent(tick=240, channel=0, data=[62, 0]),
   midi.NoteOnEvent(tick=0, channel=0, data=[50, 0]),
   midi.NoteOnEvent(tick=0, channel=0, data=[55, 0]),
   midi.NoteOnEvent(tick=0, channel=0, data=[54, 64]),
   midi.NoteOnEvent(tick=0, channel=0, data=[50, 64]),
   midi.NoteOnEvent(tick=0, channel=0, data=[57, 74]),
   midi.ControlChangeEvent(tick=8, channel=0, data=[64, 0]),
   midi.ControlChangeEvent(tick=83, channel=0, data=[64, 127]),
   midi.NoteOnEvent(tick=149, channel=0, data=[57, 0]),
   midi.NoteOnEvent(tick=0, channel=0, data=[62, 61]),
   midi.NoteOnEvent(tick=240, channel=0, data=[62, 0]),
   midi.NoteOnEvent(tick=0, channel=0, data=[50, 0]),
   midi.NoteOnEvent(tick=0, channel=0, data=[54, 0]),
   midi.NoteOnEvent(tick=0, channel=0, data=[58, 71]),
   midi.NoteOnEvent(tick=0, channel=0, data=[50, 62]),
   midi.NoteOnEvent(tick=0, channel=0, data=[55, 62]),
   midi.ControlChangeEvent(tick=10, channel=0, data=[64, 0]),
   midi.ControlChangeEvent(tick=104, channel=0, data=[64, 127]),
   midi.NoteOnEvent(tick=126, channel=0, data=[58, 0]),
   midi.NoteOnEvent(tick=0, channel=0, data=[62, 53]),
   midi.NoteOnEvent(tick=240, channel=0, data=[62, 0]),
   midi.NoteOnEvent(tick=0, channel=0, data=[55, 0]),
   midi.NoteOnEvent(tick=0, channel=0, data=[50, 0]),
   midi.ControlChangeEvent(tick=0, channel=0, data=[64, 0]),
   midi.NoteOnEvent(tick=0, channel=0, data=[62, 63]),
   midi.NoteOnEvent(tick=0, channel=0, data=[69, 70]),
   midi.NoteOnEvent(tick=0, channel=0, data=[66, 70]),
   midi.NoteOnEvent(tick=0, channel=0, data=[60, 63]),
   midi.NoteOnEvent(tick=960, channel=0, data=[60, 0]),
   midi.NoteOnEvent(tick=0, channel=0, data=[62, 0]),
   midi.NoteOnEvent(tick=0, channel=0, data=[69, 0]),
   midi.NoteOnEvent(tick=0, channel=0, data=[66, 0]),
   midi.NoteOnEvent(tick=0, channel=0, data=[58, 70]),
   midi.NoteOnEvent(tick=60, channel=0, data=[58, 0]),
   midi.NoteOnEvent(tick=60, channel=0, data=[57, 66]),
   midi.NoteOnEvent(tick=60, channel=0, data=[57, 0]),
   midi.NoteOnEvent(tick=60, channel=0, data=[55, 70]),
   midi.NoteOnEvent(tick=60, channel=0, data=[55, 0]),
   midi.NoteOnEvent(tick=60, channel=0, data=[54, 67]),
   midi.NoteOnEvent(tick=60, channel=0, data=[54, 0]),
   midi.NoteOnEvent(tick=60, channel=0, data=[52, 72]),
   midi.ControlChangeEvent(tick=11, channel=0, data=[64, 127]),
   midi.NoteOnEvent(tick=229, channel=0, data=[52, 0]),
   midi.NoteOnEvent(tick=0, channel=0, data=[57, 66]),
   midi.ControlChangeEvent(tick=169, channel=0, data=[64, 0]),
   midi.NoteOnEvent(tick=71, channel=0, data=[57, 0]),
   midi.NoteOnEvent(tick=0, channel=0, data=[57, 74]),
   midi.NoteOnEvent(tick=0, channel=0, data=[54, 64]),
   midi.NoteOnEvent(tick=0, channel=0, data=[50, 64]),
   midi.ControlChangeEvent(tick=0, channel=0, data=[64, 127]),
   midi.NoteOnEvent(tick=240, channel=0, data=[57, 0]),
   midi.NoteOnEvent(tick=0, channel=0, data=[62, 62]),
   midi.NoteOnEvent(tick=240, channel=0, data=[62, 0]),
   midi.NoteOnEvent(tick=0, channel=0, data=[50, 0]),
   midi.NoteOnEvent(tick=0, channel=0, data=[54, 0]),
   midi.NoteOnEvent(tick=0, channel=0, data=[55, 62]),
   midi.NoteOnEvent(tick=0, channel=0, data=[50, 62]),
   midi.NoteOnEvent(tick=0, channel=0, data=[58, 71]),
   midi.ControlChangeEvent(tick=15, channel=0, data=[64, 0]),
   midi.ControlChangeEvent(tick=76, channel=0, data=[64, 127]),
   midi.NoteOnEvent(tick=149, channel=0, data=[58, 0]),
   midi.NoteOnEvent(tick=0, channel=0, data=[62, 59]),
   midi.NoteOnEvent(tick=240, channel=0, data=[62, 0]),
   midi.NoteOnEvent(tick=0, channel=0, data=[50, 0]),
   midi.NoteOnEvent(tick=0, channel=0, data=[55, 0]),
   midi.NoteOnEvent(tick=0, channel=0, data=[57, 74]),
   midi.NoteOnEvent(tick=0, channel=0, data=[54, 64]),
   midi.NoteOnEvent(tick=0, channel=0, data=[50, 64]),
   midi.ControlChangeEvent(tick=11, channel=0, data=[64, 0]),
   midi.ControlChangeEvent(tick=114, channel=0, data=[64, 127]),
   midi.NoteOnEvent(tick=115, channel=0, data=[57, 0]),
   midi.NoteOnEvent(tick=0, channel=0, data=[62, 62]),
   midi.NoteOnEvent(tick=240, channel=0, data=[62, 0]),
   midi.NoteOnEvent(tick=0, channel=0, data=[50, 0]),
   midi.NoteOnEvent(tick=0, channel=0, data=[54, 0]),
   midi.NoteOnEvent(tick=0, channel=0, data=[55, 62]),
   midi.NoteOnEvent(tick=0, channel=0, data=[50, 62]),
   midi.NoteOnEvent(tick=0, channel=0, data=[58, 71]),
   midi.ControlChangeEvent(tick=12, channel=0, data=[64, 0]),
   midi.ControlChangeEvent(tick=102, channel=0, data=[64, 127]),
   midi.NoteOnEvent(tick=126, channel=0, data=[58, 0]),
   midi.NoteOnEvent(tick=0, channel=0, data=[62, 55]),
   midi.NoteOnEvent(tick=240, channel=0, data=[62, 0]),
   midi.NoteOnEvent(tick=0, channel=0, data=[50, 0]),
   midi.NoteOnEvent(tick=0, channel=0, data=[55, 0]),
   midi.ControlChangeEvent(tick=0, channel=0, data=[64, 0]),
   midi.NoteOnEvent(tick=0, channel=0, data=[62, 63]),
   midi.NoteOnEvent(tick=0, channel=0, data=[60, 63]),
   midi.NoteOnEvent(tick=0, channel=0, data=[66, 70]),
   midi.NoteOnEvent(tick=0, channel=0, data=[69, 70]),
   midi.NoteOnEvent(tick=960, channel=0, data=[69, 0]),
   midi.NoteOnEvent(tick=0, channel=0, data=[62, 0]),
   midi.NoteOnEvent(tick=0, channel=0, data=[60, 0]),
   midi.NoteOnEvent(tick=0, channel=0, data=[66, 0]),
   midi.NoteOnEvent(tick=0, channel=0, data=[58, 60]),
   midi.NoteOnEvent(tick=0, channel=0, data=[62, 60]),
   midi.NoteOnEvent(tick=60, channel=0, data=[62, 0]),
   midi.NoteOnEvent(tick=0, channel=0, data=[58, 0]),
   midi.NoteOnEvent(tick=180, channel=0, data=[58, 66]),
   midi.NoteOnEvent(tick=60, channel=0, data=[58, 0]),
   midi.NoteOnEvent(tick=60, channel=0, data=[57, 68]),
   midi.NoteOnEvent(tick=60, channel=0, data=[57, 0]),
   midi.NoteOnEvent(tick=60, channel=0, data=[55, 71]),
   midi.NoteOnEvent(tick=240, channel=0, data=[55, 0]),
   midi.NoteOnEvent(tick=240, channel=0, data=[51, 41]),
   midi.NoteOnEvent(tick=0, channel=0, data=[43, 41]),
   midi.ControlChangeEvent(tick=13, channel=0, data=[64, 127]),
   midi.NoteOnEvent(tick=227, channel=0, data=[58, 37]),
   midi.NoteOnEvent(tick=240, channel=0, data=[58, 0]),
   midi.NoteOnEvent(tick=0, channel=0, data=[43, 0]),
   midi.NoteOnEvent(tick=0, channel=0, data=[51, 0]),
   midi.NoteOnEvent(tick=0, channel=0, data=[56, 43]),
   midi.ControlChangeEvent(tick=10, channel=0, data=[64, 0]),
   midi.ControlChangeEvent(tick=78, channel=0, data=[64, 127]),
   midi.NoteOnEvent(tick=152, channel=0, data=[51, 37]),
   midi.NoteOnEvent(tick=0, channel=0, data=[44, 37]),
   midi.ControlChangeEvent(tick=172, channel=0, data=[64, 0]),
   midi.NoteOnEvent(tick=68, channel=0, data=[44, 0]),
   midi.NoteOnEvent(tick=0, channel=0, data=[51, 0]),
   midi.NoteOnEvent(tick=0, channel=0, data=[56, 0]),
   midi.NoteOnEvent(tick=0, channel=0, data=[53, 44]),
   midi.NoteOnEvent(tick=0, channel=0, data=[45, 44]),
   midi.ControlChangeEvent(tick=55, channel=0, data=[64, 127]),
   midi.NoteOnEvent(tick=185, channel=0, data=[60, 40]),
   midi.NoteOnEvent(tick=240, channel=0, data=[60, 0]),
   midi.NoteOnEvent(tick=0, channel=0, data=[45, 0]),
   midi.NoteOnEvent(tick=0, channel=0, data=[53, 0]),
   midi.NoteOnEvent(tick=0, channel=0, data=[58, 48]),
   midi.ControlChangeEvent(tick=12, channel=0, data=[64, 0]),
   midi.ControlChangeEvent(tick=76, channel=0, data=[64, 127]),
   midi.NoteOnEvent(tick=152, channel=0, data=[46, 40]),
   midi.NoteOnEvent(tick=0, channel=0, data=[53, 40]),
   midi.ControlChangeEvent(tick=172, channel=0, data=[64, 0]),
   midi.NoteOnEvent(tick=68, channel=0, data=[53, 0]),
   midi.NoteOnEvent(tick=0, channel=0, data=[46, 0]),
   midi.NoteOnEvent(tick=0, channel=0, data=[58, 0]),
   midi.NoteOnEvent(tick=0, channel=0, data=[47, 45]),
   midi.NoteOnEvent(tick=0, channel=0, data=[55, 45]),
   midi.ControlChangeEvent(tick=88, channel=0, data=[64, 127]),
   midi.NoteOnEvent(tick=152, channel=0, data=[47, 0]),
   midi.NoteOnEvent(tick=0, channel=0, data=[59, 38]),
   midi.NoteOnEvent(tick=240, channel=0, data=[59, 0]),
   midi.NoteOnEvent(tick=0, channel=0, data=[55, 0]),
   midi.NoteOnEvent(tick=0, channel=0, data=[55, 47]),
   midi.NoteOnEvent(tick=0, channel=0, data=[48, 47]),
   midi.ControlChangeEvent(tick=6, channel=0, data=[64, 0]),
   midi.ControlChangeEvent(tick=82, channel=0, data=[64, 127]),
   midi.NoteOnEvent(tick=152, channel=0, data=[48, 0]),
   midi.NoteOnEvent(tick=0, channel=0, data=[60, 39]),
   midi.NoteOnEvent(tick=240, channel=0, data=[60, 0]),
   midi.NoteOnEvent(tick=0, channel=0, data=[55, 0]),
   midi.NoteOnEvent(tick=0, channel=0, data=[55, 49]),
   midi.NoteOnEvent(tick=0, channel=0, data=[50, 49]),
   midi.ControlChangeEvent(tick=8, channel=0, data=[64, 0]),
   midi.ControlChangeEvent(tick=80, channel=0, data=[64, 127]),
   midi.NoteOnEvent(tick=152, channel=0, data=[50, 0]),
   midi.NoteOnEvent(tick=0, channel=0, data=[62, 41]),
   midi.NoteOnEvent(tick=240, channel=0, data=[62, 0]),
   midi.NoteOnEvent(tick=0, channel=0, data=[55, 0]),
   midi.NoteOnEvent(tick=0, channel=0, data=[55, 47]),
   midi.NoteOnEvent(tick=0, channel=0, data=[48, 47]),
   midi.ControlChangeEvent(tick=10, channel=0, data=[64, 0]),
   midi.ControlChangeEvent(tick=78, channel=0, data=[64, 127]),
   midi.NoteOnEvent(tick=152, channel=0, data=[48, 0]),
   midi.NoteOnEvent(tick=0, channel=0, data=[60, 40]),
   midi.ControlChangeEvent(tick=172, channel=0, data=[64, 0]),
   midi.NoteOnEvent(tick=68, channel=0, data=[60, 0]),
   midi.NoteOnEvent(tick=0, channel=0, data=[55, 0]),
   midi.NoteOnEvent(tick=0, channel=0, data=[47, 46]),
   midi.NoteOnEvent(tick=0, channel=0, data=[55, 46]),
   midi.ControlChangeEvent(tick=62, channel=0, data=[64, 127]),
   midi.NoteOnEvent(tick=178, channel=0, data=[62, 42]),
   midi.NoteOnEvent(tick=240, channel=0, data=[62, 0]),
   midi.NoteOnEvent(tick=0, channel=0, data=[55, 0]),
   midi.NoteOnEvent(tick=0, channel=0, data=[47, 0]),
   midi.NoteOnEvent(tick=0, channel=0, data=[60, 51]),
   midi.ControlChangeEvent(tick=26, channel=0, data=[64, 0]),
   midi.ControlChangeEvent(tick=62, channel=0, data=[64, 127]),
   midi.NoteOnEvent(tick=152, channel=0, data=[55, 42]),
   midi.NoteOnEvent(tick=0, channel=0, data=[48, 42]),
   midi.ControlChangeEvent(tick=172, channel=0, data=[64, 0]),
   midi.NoteOnEvent(tick=68, channel=0, data=[48, 0]),
   midi.NoteOnEvent(tick=0, channel=0, data=[55, 0]),
   midi.NoteOnEvent(tick=0, channel=0, data=[60, 0]),
   midi.NoteOnEvent(tick=0, channel=0, data=[49, 52]),
   midi.NoteOnEvent(tick=0, channel=0, data=[57, 52]),
   midi.ControlChangeEvent(tick=55, channel=0, data=[64, 127]),
   midi.NoteOnEvent(tick=185, channel=0, data=[64, 46]),
   midi.NoteOnEvent(tick=240, channel=0, data=[64, 0]),
   midi.NoteOnEvent(tick=0, channel=0, data=[57, 0]),
   midi.NoteOnEvent(tick=0, channel=0, data=[49, 0]),
   midi.NoteOnEvent(tick=0, channel=0, data=[62, 54]),
   midi.ControlChangeEvent(tick=32, channel=0, data=[64, 0]),
   midi.ControlChangeEvent(tick=56, channel=0, data=[64, 127]),
   midi.NoteOnEvent(tick=152, channel=0, data=[50, 47]),
   midi.NoteOnEvent(tick=0, channel=0, data=[57, 47]),
   midi.ControlChangeEvent(tick=172, channel=0, data=[64, 0]),
   midi.NoteOnEvent(tick=68, channel=0, data=[57, 0]),
   midi.NoteOnEvent(tick=0, channel=0, data=[50, 0]),
   midi.NoteOnEvent(tick=0, channel=0, data=[62, 0]),
   midi.NoteOnEvent(tick=0, channel=0, data=[57, 54]),
   midi.NoteOnEvent(tick=0, channel=0, data=[49, 54]),
   midi.ControlChangeEvent(tick=88, channel=0, data=[64, 127]),
   midi.NoteOnEvent(tick=152, channel=0, data=[49, 0]),
   midi.NoteOnEvent(tick=0, channel=0, data=[61, 46]),
   midi.NoteOnEvent(tick=240, channel=0, data=[61, 0]),
   midi.NoteOnEvent(tick=0, channel=0, data=[57, 0]),
   midi.NoteOnEvent(tick=0, channel=0, data=[57, 56]),
   midi.NoteOnEvent(tick=0, channel=0, data=[50, 56]),
   midi.ControlChangeEvent(tick=10, channel=0, data=[64, 0]),
   midi.ControlChangeEvent(tick=78, channel=0, data=[64, 127]),
   midi.NoteOnEvent(tick=152, channel=0, data=[50, 0]),
   midi.NoteOnEvent(tick=0, channel=0, data=[62, 47]),
   midi.NoteOnEvent(tick=240, channel=0, data=[62, 0]),
   midi.NoteOnEvent(tick=0, channel=0, data=[57, 0]),
   midi.NoteOnEvent(tick=0, channel=0, data=[57, 57]),
   midi.NoteOnEvent(tick=0, channel=0, data=[52, 57]),
   midi.ControlChangeEvent(tick=8, channel=0, data=[64, 0]),
   midi.ControlChangeEvent(tick=80, channel=0, data=[64, 127]),
   midi.NoteOnEvent(tick=152, channel=0, data=[52, 0]),
   midi.NoteOnEvent(tick=0, channel=0, data=[64, 49]),
   midi.NoteOnEvent(tick=240, channel=0, data=[64, 0]),
   midi.NoteOnEvent(tick=0, channel=0, data=[57, 0]),
   midi.NoteOnEvent(tick=0, channel=0, data=[50, 56]),
   midi.NoteOnEvent(tick=0, channel=0, data=[57, 56]),
   midi.ControlChangeEvent(tick=10, channel=0, data=[64, 0]),
   midi.ControlChangeEvent(tick=78, channel=0, data=[64, 127]),
   midi.NoteOnEvent(tick=152, channel=0, data=[50, 0]),
   midi.NoteOnEvent(tick=0, channel=0, data=[62, 48]),
   midi.ControlChangeEvent(tick=172, channel=0, data=[64, 0]),
   midi.NoteOnEvent(tick=68, channel=0, data=[62, 0]),
   midi.NoteOnEvent(tick=0, channel=0, data=[57, 0]),
   midi.NoteOnEvent(tick=0, channel=0, data=[49, 58]),
   midi.NoteOnEvent(tick=0, channel=0, data=[57, 58]),
   midi.ControlChangeEvent(tick=88, channel=0, data=[64, 127]),
   midi.NoteOnEvent(tick=152, channel=0, data=[49, 0]),
   midi.NoteOnEvent(tick=0, channel=0, data=[61, 49]),
   midi.NoteOnEvent(tick=240, channel=0, data=[61, 0]),
   midi.NoteOnEvent(tick=0, channel=0, data=[57, 0]),
   midi.NoteOnEvent(tick=0, channel=0, data=[57, 61]),
   midi.NoteOnEvent(tick=0, channel=0, data=[50, 61]),
   midi.ControlChangeEvent(tick=10, channel=0, data=[64, 0]),
   midi.ControlChangeEvent(tick=78, channel=0, data=[64, 127]),
   midi.NoteOnEvent(tick=152, channel=0, data=[50, 0]),
   midi.NoteOnEvent(tick=0, channel=0, data=[62, 52]),
   midi.NoteOnEvent(tick=240, channel=0, data=[62, 0]),
   midi.NoteOnEvent(tick=0, channel=0, data=[57, 0]),
   midi.NoteOnEvent(tick=0, channel=0, data=[59, 63]),
   midi.NoteOnEvent(tick=0, channel=0, data=[51, 63]),
   midi.ControlChangeEvent(tick=9, channel=0, data=[64, 0]),
   midi.ControlChangeEvent(tick=79, channel=0, data=[64, 127]),
   midi.NoteOnEvent(tick=152, channel=0, data=[51, 0]),
   midi.NoteOnEvent(tick=0, channel=0, data=[63, 53]),
   midi.NoteOnEvent(tick=240, channel=0, data=[63, 0]),
   midi.NoteOnEvent(tick=0, channel=0, data=[59, 0]),
   midi.NoteOnEvent(tick=0, channel=0, data=[59, 60]),
   midi.NoteOnEvent(tick=0, channel=0, data=[52, 60]),
   midi.ControlChangeEvent(tick=8, channel=0, data=[64, 0]),
   midi.ControlChangeEvent(tick=80, channel=0, data=[64, 127]),
   midi.NoteOnEvent(tick=152, channel=0, data=[52, 0]),
   midi.NoteOnEvent(tick=0, channel=0, data=[64, 52]),
   midi.ControlChangeEvent(tick=172, channel=0, data=[64, 0]),
   midi.NoteOnEvent(tick=68, channel=0, data=[64, 0]),
   midi.NoteOnEvent(tick=0, channel=0, data=[59, 0]),
   midi.NoteOnEvent(tick=0, channel=0, data=[59, 64]),
   midi.NoteOnEvent(tick=0, channel=0, data=[51, 64]),
   midi.ControlChangeEvent(tick=88, channel=0, data=[64, 127]),
   midi.NoteOnEvent(tick=152, channel=0, data=[51, 0]),
   midi.NoteOnEvent(tick=0, channel=0, data=[63, 54]),
   midi.NoteOnEvent(tick=240, channel=0, data=[63, 0]),
   midi.NoteOnEvent(tick=0, channel=0, data=[59, 0]),
   midi.NoteOnEvent(tick=0, channel=0, data=[59, 66]),
   midi.NoteOnEvent(tick=0, channel=0, data=[52, 66]),
   midi.ControlChangeEvent(tick=3, channel=0, data=[64, 0]),
   midi.ControlChangeEvent(tick=85, channel=0, data=[64, 127]),
   midi.NoteOnEvent(tick=152, channel=0, data=[52, 0]),
   midi.NoteOnEvent(tick=0, channel=0, data=[64, 56]),
   midi.NoteOnEvent(tick=240, channel=0, data=[64, 0]),
   midi.NoteOnEvent(tick=0, channel=0, data=[59, 0]),
   midi.NoteOnEvent(tick=0, channel=0, data=[61, 67]),
   midi.NoteOnEvent(tick=0, channel=0, data=[53, 67]),
   midi.ControlChangeEvent(tick=7, channel=0, data=[64, 0]),
   midi.ControlChangeEvent(tick=81, channel=0, data=[64, 127]),
   midi.NoteOnEvent(tick=152, channel=0, data=[53, 0]),
   midi.NoteOnEvent(tick=0, channel=0, data=[65, 57]),
   midi.NoteOnEvent(tick=240, channel=0, data=[65, 0]),
   midi.NoteOnEvent(tick=0, channel=0, data=[61, 0]),
   midi.NoteOnEvent(tick=0, channel=0, data=[61, 65]),
   midi.NoteOnEvent(tick=0, channel=0, data=[54, 65]),
   midi.ControlChangeEvent(tick=5, channel=0, data=[64, 0]),
   midi.ControlChangeEvent(tick=85, channel=0, data=[64, 127]),
   midi.NoteOnEvent(tick=150, channel=0, data=[54, 0]),
   midi.NoteOnEvent(tick=0, channel=0, data=[66, 56]),
   midi.ControlChangeEvent(tick=172, channel=0, data=[64, 0]),
   midi.NoteOnEvent(tick=68, channel=0, data=[66, 0]),
   midi.NoteOnEvent(tick=0, channel=0, data=[61, 0]),
   midi.NoteOnEvent(tick=0, channel=0, data=[62, 72]),
   midi.NoteOnEvent(tick=0, channel=0, data=[54, 72]),
   midi.ControlChangeEvent(tick=88, channel=0, data=[64, 127]),
   midi.NoteOnEvent(tick=152, channel=0, data=[54, 0]),
   midi.NoteOnEvent(tick=0, channel=0, data=[66, 60]),
   midi.NoteOnEvent(tick=240, channel=0, data=[66, 0]),
   midi.NoteOnEvent(tick=0, channel=0, data=[62, 0]),
   midi.NoteOnEvent(tick=0, channel=0, data=[62, 70]),
   midi.NoteOnEvent(tick=0, channel=0, data=[55, 70]),
   midi.ControlChangeEvent(tick=8, channel=0, data=[64, 0]),
   midi.ControlChangeEvent(tick=80, channel=0, data=[64, 127]),
   midi.NoteOnEvent(tick=152, channel=0, data=[55, 0]),
   midi.NoteOnEvent(tick=0, channel=0, data=[67, 60]),
   midi.ControlChangeEvent(tick=172, channel=0, data=[64, 0]),
   midi.NoteOnEvent(tick=68, channel=0, data=[67, 0]),
   midi.NoteOnEvent(tick=0, channel=0, data=[62, 0]),
   midi.NoteOnEvent(tick=0, channel=0, data=[54, 73]),
   midi.NoteOnEvent(tick=0, channel=0, data=[62, 73]),
   midi.ControlChangeEvent(tick=88, channel=0, data=[64, 127]),
   midi.NoteOnEvent(tick=152, channel=0, data=[54, 0]),
   midi.NoteOnEvent(tick=0, channel=0, data=[66, 61]),
   midi.NoteOnEvent(tick=240, channel=0, data=[66, 0]),
   midi.NoteOnEvent(tick=0, channel=0, data=[62, 0]),
   midi.NoteOnEvent(tick=0, channel=0, data=[55, 71]),
   midi.NoteOnEvent(tick=0, channel=0, data=[62, 71]),
   midi.ControlChangeEvent(tick=13, channel=0, data=[64, 0]),
   midi.ControlChangeEvent(tick=128, channel=0, data=[64, 127]),
   midi.NoteOnEvent(tick=99, channel=0, data=[55, 0]),
   midi.NoteOnEvent(tick=0, channel=0, data=[67, 60]),
   midi.ControlChangeEvent(tick=172, channel=0, data=[64, 0]),
   midi.NoteOnEvent(tick=68, channel=0, data=[67, 0]),
   midi.NoteOnEvent(tick=0, channel=0, data=[62, 0]),
   midi.NoteOnEvent(tick=0, channel=0, data=[70, 69]),
   midi.NoteOnEvent(tick=0, channel=0, data=[74, 77]),
   midi.NoteOnEvent(tick=0, channel=0, data=[67, 69]),
   midi.NoteOnEvent(tick=120, channel=0, data=[67, 0]),
   midi.NoteOnEvent(tick=0, channel=0, data=[74, 0]),
   midi.NoteOnEvent(tick=0, channel=0, data=[70, 0]),
   midi.NoteOnEvent(tick=360, channel=0, data=[76, 79]),
   midi.NoteOnEvent(tick=60, channel=0, data=[76, 0]),
   midi.NoteOnEvent(tick=60, channel=0, data=[74, 71]),
   midi.NoteOnEvent(tick=60, channel=0, data=[74, 0]),
   midi.NoteOnEvent(tick=60, channel=0, data=[70, 74]),
   midi.NoteOnEvent(tick=60, channel=0, data=[70, 0]),
   midi.NoteOnEvent(tick=60, channel=0, data=[69, 68]),
   midi.NoteOnEvent(tick=60, channel=0, data=[69, 0]),
   midi.NoteOnEvent(tick=60, channel=0, data=[67, 82]),
   midi.NoteOnEvent(tick=120, channel=0, data=[67, 0]),
   midi.NoteOnEvent(tick=360, channel=0, data=[52, 71]),
   midi.NoteOnEvent(tick=60, channel=0, data=[52, 0]),
   midi.NoteOnEvent(tick=60, channel=0, data=[50, 62]),
   midi.NoteOnEvent(tick=60, channel=0, data=[50, 0]),
   midi.NoteOnEvent(tick=60, channel=0, data=[46, 66]),
   midi.NoteOnEvent(tick=60, channel=0, data=[46, 0]),
   midi.NoteOnEvent(tick=60, channel=0, data=[45, 58]),
   midi.NoteOnEvent(tick=60, channel=0, data=[45, 0]),
   midi.NoteOnEvent(tick=60, channel=0, data=[43, 75]),
   midi.NoteOnEvent(tick=120, channel=0, data=[43, 0]),
   midi.NoteOnEvent(tick=120, channel=0, data=[43, 69]),
   midi.NoteOnEvent(tick=120, channel=0, data=[43, 0]),
   midi.NoteOnEvent(tick=120, channel=0, data=[44, 74]),
   midi.NoteOnEvent(tick=120, channel=0, data=[44, 0]),
   midi.NoteOnEvent(tick=0, channel=0, data=[45, 62]),
   midi.NoteOnEvent(tick=120, channel=0, data=[45, 0]),
   midi.NoteOnEvent(tick=0, channel=0, data=[46, 68]),
   midi.NoteOnEvent(tick=120, channel=0, data=[46, 0]),
   midi.NoteOnEvent(tick=0, channel=0, data=[44, 60]),
   midi.NoteOnEvent(tick=120, channel=0, data=[44, 0]),
   midi.NoteOnEvent(tick=0, channel=0, data=[45, 73]),
   midi.ControlChangeEvent(tick=227, channel=0, data=[64, 127]),
   midi.NoteOnEvent(tick=13, channel=0, data=[45, 0]),
   midi.NoteOnEvent(tick=0, channel=0, data=[45, 71]),
   midi.NoteOnEvent(tick=0, channel=0, data=[55, 71]),
   midi.ControlChangeEvent(tick=173, channel=0, data=[64, 0]),
   midi.NoteOnEvent(tick=7, channel=0, data=[55, 0]),
   midi.NoteOnEvent(tick=0, channel=0, data=[45, 0]),
   midi.NoteOnEvent(tick=60, channel=0, data=[54, 77]),
   midi.NoteOnEvent(tick=0, channel=0, data=[50, 77]),
   midi.ControlChangeEvent(tick=114, channel=0, data=[64, 127]),
   midi.NoteOnEvent(tick=126, channel=0, data=[50, 0]),
   midi.NoteOnEvent(tick=0, channel=0, data=[54, 0]),
   midi.ControlChangeEvent(tick=63, channel=0, data=[64, 0]),
   midi.NoteOnEvent(tick=657, channel=0, data=[66, 57]),
   midi.NoteOnEvent(tick=0, channel=0, data=[59, 50]),
   midi.NoteOnEvent(tick=0, channel=0, data=[62, 50]),
   midi.ControlChangeEvent(tick=14, channel=0, data=[64, 127]),
   midi.NoteOnEvent(tick=226, channel=0, data=[62, 0]),
   midi.NoteOnEvent(tick=0, channel=0, data=[59, 0]),
   midi.NoteOnEvent(tick=0, channel=0, data=[66, 0]),
   midi.ControlChangeEvent(tick=187, channel=0, data=[64, 0]),
   midi.NoteOnEvent(tick=53, channel=0, data=[54, 70]),
   midi.NoteOnEvent(tick=60, channel=0, data=[54, 0]),
   midi.NoteOnEvent(tick=60, channel=0, data=[52, 60]),
   midi.NoteOnEvent(tick=60, channel=0, data=[52, 0]),
   midi.NoteOnEvent(tick=60, channel=0, data=[50, 62]),
   midi.NoteOnEvent(tick=60, channel=0, data=[50, 0]),
   midi.NoteOnEvent(tick=60, channel=0, data=[49, 58]),
   midi.NoteOnEvent(tick=60, channel=0, data=[49, 0]),
   midi.NoteOnEvent(tick=60, channel=0, data=[47, 69]),
   midi.ControlChangeEvent(tick=42, channel=0, data=[64, 127]),
   midi.NoteOnEvent(tick=78, channel=0, data=[47, 0]),
   midi.ControlChangeEvent(tick=307, channel=0, data=[64, 0]),
   midi.NoteOnEvent(tick=53, channel=0, data=[59, 52]),
   midi.NoteOnEvent(tick=0, channel=0, data=[55, 47]),
   midi.ControlChangeEvent(tick=88, channel=0, data=[64, 127]),
   midi.NoteOnEvent(tick=152, channel=0, data=[55, 0]),
   midi.NoteOnEvent(tick=0, channel=0, data=[47, 44]),
   midi.NoteOnEvent(tick=240, channel=0, data=[47, 0]),
   midi.NoteOnEvent(tick=0, channel=0, data=[59, 0]),
   midi.NoteOnEvent(tick=0, channel=0, data=[59, 55]),
   midi.NoteOnEvent(tick=0, channel=0, data=[54, 48]),
   midi.ControlChangeEvent(tick=7, channel=0, data=[64, 0]),
   midi.ControlChangeEvent(tick=81, channel=0, data=[64, 127]),
   midi.NoteOnEvent(tick=152, channel=0, data=[54, 0]),
   midi.NoteOnEvent(tick=0, channel=0, data=[45, 45]),
   midi.NoteOnEvent(tick=240, channel=0, data=[45, 0]),
   midi.NoteOnEvent(tick=0, channel=0, data=[59, 0]),
   midi.NoteOnEvent(tick=0, channel=0, data=[55, 49]),
   midi.NoteOnEvent(tick=0, channel=0, data=[52, 49]),
   midi.NoteOnEvent(tick=0, channel=0, data=[59, 56]),
   midi.ControlChangeEvent(tick=9, channel=0, data=[64, 0]),
   midi.ControlChangeEvent(tick=79, channel=0, data=[64, 127]),
   midi.NoteOnEvent(tick=152, channel=0, data=[52, 0]),
   midi.NoteOnEvent(tick=0, channel=0, data=[55, 0]),
   midi.NoteOnEvent(tick=0, channel=0, data=[47, 46]),
   midi.NoteOnEvent(tick=240, channel=0, data=[47, 0]),
   midi.NoteOnEvent(tick=0, channel=0, data=[59, 0]),
   midi.NoteOnEvent(tick=0, channel=0, data=[50, 41]),
   midi.NoteOnEvent(tick=0, channel=0, data=[59, 47]),
   midi.NoteOnEvent(tick=0, channel=0, data=[54, 41]),
   midi.ControlChangeEvent(tick=9, channel=0, data=[64, 0]),
   midi.ControlChangeEvent(tick=79, channel=0, data=[64, 127]),
   midi.NoteOnEvent(tick=152, channel=0, data=[54, 0]),
   midi.NoteOnEvent(tick=0, channel=0, data=[50, 0]),
   midi.NoteOnEvent(tick=0, channel=0, data=[47, 36]),
   midi.NoteOnEvent(tick=240, channel=0, data=[47, 0]),
   midi.NoteOnEvent(tick=0, channel=0, data=[59, 0]),
   midi.ControlChangeEvent(tick=0, channel=0, data=[64, 0]),
   midi.NoteOnEvent(tick=480, channel=0, data=[66, 57]),
   midi.NoteOnEvent(tick=0, channel=0, data=[59, 50]),
   midi.NoteOnEvent(tick=0, channel=0, data=[62, 50]),
   midi.ControlChangeEvent(tick=14, channel=0, data=[64, 127]),
   midi.NoteOnEvent(tick=226, channel=0, data=[62, 0]),
   midi.NoteOnEvent(tick=0, channel=0, data=[59, 0]),
   midi.NoteOnEvent(tick=0, channel=0, data=[66, 0]),
   midi.ControlChangeEvent(tick=240, channel=0, data=[64, 0]),
   midi.NoteOnEvent(tick=0, channel=0, data=[54, 64]),
   midi.NoteOnEvent(tick=60, channel=0, data=[54, 0]),
   midi.NoteOnEvent(tick=60, channel=0, data=[52, 58]),
   midi.NoteOnEvent(tick=60, channel=0, data=[52, 0]),
   midi.NoteOnEvent(tick=60, channel=0, data=[50, 62]),
   midi.NoteOnEvent(tick=60, channel=0, data=[50, 0]),
   midi.NoteOnEvent(tick=60, channel=0, data=[49, 58]),
   midi.NoteOnEvent(tick=60, channel=0, data=[49, 0]),
   midi.NoteOnEvent(tick=60, channel=0, data=[47, 63]),
   midi.ControlChangeEvent(tick=42, channel=0, data=[64, 127]),
   midi.NoteOnEvent(tick=78, channel=0, data=[47, 0]),
   midi.ControlChangeEvent(tick=360, channel=0, data=[64, 0]),
   midi.NoteOnEvent(tick=0, channel=0, data=[55, 47]),
   midi.NoteOnEvent(tick=0, channel=0, data=[59, 52]),
   midi.ControlChangeEvent(tick=88, channel=0, data=[64, 127]),
   midi.NoteOnEvent(tick=152, channel=0, data=[55, 0]),
   midi.NoteOnEvent(tick=0, channel=0, data=[47, 44]),
   midi.NoteOnEvent(tick=240, channel=0, data=[47, 0]),
   midi.NoteOnEvent(tick=0, channel=0, data=[59, 0]),
   midi.NoteOnEvent(tick=0, channel=0, data=[54, 48]),
   midi.NoteOnEvent(tick=0, channel=0, data=[59, 55]),
   midi.ControlChangeEvent(tick=10, channel=0, data=[64, 0]),
   midi.ControlChangeEvent(tick=78, channel=0, data=[64, 127]),
   midi.NoteOnEvent(tick=152, channel=0, data=[54, 0]),
   midi.NoteOnEvent(tick=0, channel=0, data=[45, 45]),
   midi.NoteOnEvent(tick=240, channel=0, data=[45, 0]),
   midi.NoteOnEvent(tick=0, channel=0, data=[59, 0]),
   midi.NoteOnEvent(tick=0, channel=0, data=[55, 49]),
   midi.NoteOnEvent(tick=0, channel=0, data=[52, 49]),
   midi.NoteOnEvent(tick=0, channel=0, data=[59, 56]),
   midi.ControlChangeEvent(tick=10, channel=0, data=[64, 0]),
   midi.ControlChangeEvent(tick=78, channel=0, data=[64, 127]),
   midi.NoteOnEvent(tick=152, channel=0, data=[52, 0]),
   midi.NoteOnEvent(tick=0, channel=0, data=[55, 0]),
   midi.NoteOnEvent(tick=0, channel=0, data=[47, 46]),
   midi.NoteOnEvent(tick=240, channel=0, data=[47, 0]),
   midi.NoteOnEvent(tick=0, channel=0, data=[59, 0]),
   midi.NoteOnEvent(tick=0, channel=0, data=[50, 41]),
   midi.NoteOnEvent(tick=0, channel=0, data=[59, 47]),
   midi.NoteOnEvent(tick=0, channel=0, data=[54, 41]),
   midi.ControlChangeEvent(tick=11, channel=0, data=[64, 0]),
   midi.ControlChangeEvent(tick=77, channel=0, data=[64, 127]),
   midi.NoteOnEvent(tick=152, channel=0, data=[54, 0]),
   midi.NoteOnEvent(tick=0, channel=0, data=[50, 0]),
   midi.NoteOnEvent(tick=0, channel=0, data=[47, 36]),
   midi.NoteOnEvent(tick=240, channel=0, data=[47, 0]),
   midi.NoteOnEvent(tick=0, channel=0, data=[59, 0]),
   midi.ControlChangeEvent(tick=0, channel=0, data=[64, 0]),
   midi.NoteOnEvent(tick=0, channel=0, data=[47, 59]),
   midi.NoteOnEvent(tick=60, channel=0, data=[47, 0]),
   midi.NoteOnEvent(tick=60, channel=0, data=[49, 53]),
   midi.NoteOnEvent(tick=60, channel=0, data=[49, 0]),
   midi.NoteOnEvent(tick=60, channel=0, data=[50, 55]),
   midi.NoteOnEvent(tick=60, channel=0, data=[50, 0]),
   midi.NoteOnEvent(tick=60, channel=0, data=[52, 50]),
   midi.NoteOnEvent(tick=60, channel=0, data=[52, 0]),
   midi.NoteOnEvent(tick=60, channel=0, data=[53, 57]),
   midi.NoteOnEvent(tick=60, channel=0, data=[53, 0]),
   midi.NoteOnEvent(tick=180, channel=0, data=[54, 58]),
   midi.ControlChangeEvent(tick=43, channel=0, data=[64, 127]),
   midi.NoteOnEvent(tick=197, channel=0, data=[54, 0]),
   midi.NoteOnEvent(tick=0, channel=0, data=[57, 60]),
   midi.ControlChangeEvent(tick=5, channel=0, data=[64, 0]),
   midi.ControlChangeEvent(tick=59, channel=0, data=[64, 127]),
   midi.NoteOnEvent(tick=176, channel=0, data=[57, 0]),
   midi.NoteOnEvent(tick=0, channel=0, data=[56, 55]),
   midi.NoteOnEvent(tick=240, channel=0, data=[56, 0]),
   midi.NoteOnEvent(tick=0, channel=0, data=[55, 57]),
   midi.ControlChangeEvent(tick=7, channel=0, data=[64, 0]),
   midi.ControlChangeEvent(tick=71, channel=0, data=[64, 127]),
   midi.NoteOnEvent(tick=162, channel=0, data=[55, 0]),
   midi.NoteOnEvent(tick=0, channel=0, data=[54, 51]),
   midi.ControlChangeEvent(tick=7, channel=0, data=[64, 0]),
   midi.NoteOnEvent(tick=53, channel=0, data=[54, 0]),
   midi.NoteOnEvent(tick=180, channel=0, data=[53, 51]),
   midi.NoteOnEvent(tick=240, channel=0, data=[62, 44]),
   midi.NoteOnEvent(tick=0, channel=0, data=[59, 44]),
   midi.NoteOnEvent(tick=240, channel=0, data=[53, 0]),
   midi.NoteOnEvent(tick=0, channel=0, data=[52, 51]),
   midi.NoteOnEvent(tick=240, channel=0, data=[59, 0]),
   midi.NoteOnEvent(tick=0, channel=0, data=[62, 0]),
   midi.NoteOnEvent(tick=0, channel=0, data=[59, 42]),
   midi.NoteOnEvent(tick=0, channel=0, data=[62, 42]),
   midi.ControlChangeEvent(tick=23, channel=0, data=[64, 127]),
   midi.NoteOnEvent(tick=217, channel=0, data=[52, 0]),
   midi.NoteOnEvent(tick=0, channel=0, data=[50, 51]),
   midi.ControlChangeEvent(tick=6, channel=0, data=[64, 0]),
   midi.ControlChangeEvent(tick=36, channel=0, data=[64, 127]),
   midi.NoteOnEvent(tick=198, channel=0, data=[62, 0]),
   midi.NoteOnEvent(tick=0, channel=0, data=[59, 0]),
   midi.NoteOnEvent(tick=0, channel=0, data=[59, 44]),
   midi.NoteOnEvent(tick=0, channel=0, data=[64, 44]),
   midi.NoteOnEvent(tick=0, channel=0, data=[56, 44]),
   midi.NoteOnEvent(tick=240, channel=0, data=[56, 0]),
   midi.NoteOnEvent(tick=0, channel=0, data=[50, 0]),
   midi.NoteOnEvent(tick=0, channel=0, data=[59, 0]),
   midi.NoteOnEvent(tick=0, channel=0, data=[64, 0]),
   midi.NoteOnEvent(tick=0, channel=0, data=[49, 51]),
   midi.ControlChangeEvent(tick=9, channel=0, data=[64, 0]),
   midi.ControlChangeEvent(tick=51, channel=0, data=[64, 127]),
   midi.NoteOnEvent(tick=180, channel=0, data=[57, 44]),
   midi.NoteOnEvent(tick=0, channel=0, data=[52, 44]),
   midi.NoteOnEvent(tick=0, channel=0, data=[61, 44]),
   midi.ControlChangeEvent(tick=42, channel=0, data=[64, 0]),
   midi.NoteOnEvent(tick=18, channel=0, data=[61, 0]),
   midi.NoteOnEvent(tick=0, channel=0, data=[52, 0]),
   midi.NoteOnEvent(tick=0, channel=0, data=[57, 0]),
   midi.NoteOnEvent(tick=180, channel=0, data=[49, 0]),
   midi.NoteOnEvent(tick=0, channel=0, data=[49, 59]),
   midi.NoteOnEvent(tick=60, channel=0, data=[49, 0]),
   midi.NoteOnEvent(tick=60, channel=0, data=[50, 53]),
   midi.NoteOnEvent(tick=60, channel=0, data=[50, 0]),
   midi.NoteOnEvent(tick=60, channel=0, data=[52, 55]),
   midi.NoteOnEvent(tick=60, channel=0, data=[52, 0]),
   midi.NoteOnEvent(tick=60, channel=0, data=[54, 50]),
   midi.NoteOnEvent(tick=60, channel=0, data=[54, 0]),
   midi.NoteOnEvent(tick=60, channel=0, data=[55, 57]),
   midi.NoteOnEvent(tick=60, channel=0, data=[55, 0]),
   midi.NoteOnEvent(tick=180, channel=0, data=[56, 58]),
   midi.ControlChangeEvent(tick=0, channel=0, data=[64, 127]),
   midi.NoteOnEvent(tick=240, channel=0, data=[56, 0]),
   midi.NoteOnEvent(tick=0, channel=0, data=[59, 60]),
   midi.ControlChangeEvent(tick=8, channel=0, data=[64, 0]),
   midi.ControlChangeEvent(tick=56, channel=0, data=[64, 127]),
   midi.NoteOnEvent(tick=176, channel=0, data=[59, 0]),
   midi.NoteOnEvent(tick=0, channel=0, data=[58, 55]),
   midi.NoteOnEvent(tick=240, channel=0, data=[58, 0]),
   midi.NoteOnEvent(tick=0, channel=0, data=[57, 57]),
   midi.ControlChangeEvent(tick=10, channel=0, data=[64, 0]),
   midi.ControlChangeEvent(tick=64, channel=0, data=[64, 127]),
   midi.NoteOnEvent(tick=166, channel=0, data=[57, 0]),
   midi.NoteOnEvent(tick=0, channel=0, data=[56, 51]),
   midi.ControlChangeEvent(tick=5, channel=0, data=[64, 0]),
   midi.NoteOnEvent(tick=115, channel=0, data=[56, 0]),
   midi.NoteOnEvent(tick=120, channel=0, data=[55, 51]),
   midi.NoteOnEvent(tick=240, channel=0, data=[61, 44]),
   midi.NoteOnEvent(tick=0, channel=0, data=[64, 44]),
   midi.NoteOnEvent(tick=240, channel=0, data=[55, 0]),
   midi.NoteOnEvent(tick=0, channel=0, data=[54, 51]),
   midi.NoteOnEvent(tick=240, channel=0, data=[64, 0]),
   midi.NoteOnEvent(tick=0, channel=0, data=[61, 0]),
   midi.NoteOnEvent(tick=0, channel=0, data=[64, 42]),
   midi.NoteOnEvent(tick=0, channel=0, data=[61, 42]),
   midi.ControlChangeEvent(tick=23, channel=0, data=[64, 127]),
   midi.NoteOnEvent(tick=217, channel=0, data=[54, 0]),
   midi.NoteOnEvent(tick=0, channel=0, data=[52, 51]),
   midi.ControlChangeEvent(tick=3, channel=0, data=[64, 0]),
   midi.ControlChangeEvent(tick=39, channel=0, data=[64, 127]),
   midi.NoteOnEvent(tick=198, channel=0, data=[61, 0]),
   midi.NoteOnEvent(tick=0, channel=0, data=[64, 0]),
   midi.NoteOnEvent(tick=0, channel=0, data=[61, 44]),
   midi.NoteOnEvent(tick=0, channel=0, data=[66, 44]),
   midi.NoteOnEvent(tick=0, channel=0, data=[58, 44]),
   midi.NoteOnEvent(tick=240, channel=0, data=[58, 0]),
   midi.NoteOnEvent(tick=0, channel=0, data=[52, 0]),
   midi.NoteOnEvent(tick=0, channel=0, data=[61, 0]),
   midi.NoteOnEvent(tick=0, channel=0, data=[66, 0]),
   midi.NoteOnEvent(tick=0, channel=0, data=[50, 51]),
   midi.ControlChangeEvent(tick=7, channel=0, data=[64, 0]),
   midi.ControlChangeEvent(tick=99, channel=0, data=[64, 127]),
   midi.NoteOnEvent(tick=134, channel=0, data=[59, 44]),
   midi.NoteOnEvent(tick=0, channel=0, data=[54, 44]),
   midi.NoteOnEvent(tick=0, channel=0, data=[62, 44]),
   midi.NoteOnEvent(tick=60, channel=0, data=[62, 0]),
   midi.NoteOnEvent(tick=0, channel=0, data=[54, 0]),
   midi.NoteOnEvent(tick=0, channel=0, data=[59, 0]),
   midi.ControlChangeEvent(tick=7, channel=0, data=[64, 0]),
   midi.NoteOnEvent(tick=173, channel=0, data=[50, 0]),
   midi.NoteOnEvent(tick=0, channel=0, data=[47, 74]),
   midi.NoteOnEvent(tick=60, channel=0, data=[47, 0]),
   midi.NoteOnEvent(tick=60, channel=0, data=[49, 64]),
   midi.NoteOnEvent(tick=60, channel=0, data=[49, 0]),
   midi.NoteOnEvent(tick=60, channel=0, data=[50, 70]),
   midi.NoteOnEvent(tick=60, channel=0, data=[50, 0]),
   midi.NoteOnEvent(tick=60, channel=0, data=[52, 62]),
   midi.NoteOnEvent(tick=60, channel=0, data=[52, 0]),
   midi.NoteOnEvent(tick=60, channel=0, data=[54, 75]),
   midi.NoteOnEvent(tick=60, channel=0, data=[54, 0]),
   midi.NoteOnEvent(tick=180, channel=0, data=[47, 60]),
   midi.NoteOnEvent(tick=0, channel=0, data=[50, 60]),
   midi.NoteOnEvent(tick=0, channel=0, data=[55, 67]),
   midi.NoteOnEvent(tick=0, channel=0, data=[43, 60]),
   midi.ControlChangeEvent(tick=25, channel=0, data=[64, 127]),
   midi.ControlChangeEvent(tick=130, channel=0, data=[64, 0]),
   midi.NoteOnEvent(tick=25, channel=0, data=[43, 0]),
   midi.NoteOnEvent(tick=0, channel=0, data=[47, 0]),
   midi.NoteOnEvent(tick=0, channel=0, data=[50, 0]),
   midi.NoteOnEvent(tick=0, channel=0, data=[55, 0]),
   midi.NoteOnEvent(tick=60, channel=0, data=[41, 71]),
   midi.ControlChangeEvent(tick=80, channel=0, data=[64, 127]),
   midi.NoteOnEvent(tick=160, channel=0, data=[53, 64]),
   midi.NoteOnEvent(tick=240, channel=0, data=[53, 0]),
   midi.NoteOnEvent(tick=0, channel=0, data=[41, 0]),
   midi.NoteOnEvent(tick=0, channel=0, data=[42, 72]),
   midi.ControlChangeEvent(tick=10, channel=0, data=[64, 0]),
   midi.ControlChangeEvent(tick=93, channel=0, data=[64, 127]),
   midi.NoteOnEvent(tick=137, channel=0, data=[54, 63]),
   midi.NoteOnEvent(tick=240, channel=0, data=[54, 0]),
   midi.NoteOnEvent(tick=0, channel=0, data=[42, 0]),
   midi.ControlChangeEvent(tick=0, channel=0, data=[64, 0]),
   midi.NoteOnEvent(tick=0, channel=0, data=[47, 74]),
   midi.NoteOnEvent(tick=60, channel=0, data=[47, 0]),
   midi.NoteOnEvent(tick=60, channel=0, data=[49, 63]),
   midi.NoteOnEvent(tick=60, channel=0, data=[49, 0]),
   midi.NoteOnEvent(tick=60, channel=0, data=[50, 70]),
   midi.NoteOnEvent(tick=60, channel=0, data=[50, 0]),
   midi.NoteOnEvent(tick=60, channel=0, data=[52, 64]),
   midi.NoteOnEvent(tick=60, channel=0, data=[52, 0]),
   midi.NoteOnEvent(tick=60, channel=0, data=[54, 75]),
   midi.NoteOnEvent(tick=60, channel=0, data=[54, 0]),
   midi.NoteOnEvent(tick=180, channel=0, data=[47, 60]),
   midi.NoteOnEvent(tick=0, channel=0, data=[43, 60]),
   midi.NoteOnEvent(tick=0, channel=0, data=[55, 67]),
   midi.NoteOnEvent(tick=0, channel=0, data=[50, 60]),
   midi.ControlChangeEvent(tick=25, channel=0, data=[64, 127]),
   midi.ControlChangeEvent(tick=130, channel=0, data=[64, 0]),
   midi.NoteOnEvent(tick=25, channel=0, data=[50, 0]),
   midi.NoteOnEvent(tick=0, channel=0, data=[47, 0]),
   midi.NoteOnEvent(tick=0, channel=0, data=[43, 0]),
   midi.NoteOnEvent(tick=0, channel=0, data=[55, 0]),
   midi.NoteOnEvent(tick=60, channel=0, data=[41, 71]),
   midi.ControlChangeEvent(tick=80, channel=0, data=[64, 127]),
   midi.NoteOnEvent(tick=160, channel=0, data=[53, 64]),
   midi.NoteOnEvent(tick=240, channel=0, data=[53, 0]),
   midi.NoteOnEvent(tick=0, channel=0, data=[41, 0]),
   midi.NoteOnEvent(tick=0, channel=0, data=[42, 72]),
   midi.ControlChangeEvent(tick=11, channel=0, data=[64, 0]),
   midi.ControlChangeEvent(tick=103, channel=0, data=[64, 127]),
   midi.NoteOnEvent(tick=126, channel=0, data=[54, 63]),
   midi.NoteOnEvent(tick=240, channel=0, data=[54, 0]),
   midi.NoteOnEvent(tick=0, channel=0, data=[42, 0]),
   midi.ControlChangeEvent(tick=0, channel=0, data=[64, 0]),
   midi.NoteOnEvent(tick=0, channel=0, data=[50, 74]),
   midi.NoteOnEvent(tick=60, channel=0, data=[50, 0]),
   midi.NoteOnEvent(tick=60, channel=0, data=[52, 61]),
   midi.NoteOnEvent(tick=60, channel=0, data=[52, 0]),
   midi.NoteOnEvent(tick=60, channel=0, data=[54, 69]),
   midi.NoteOnEvent(tick=60, channel=0, data=[54, 0]),
   midi.NoteOnEvent(tick=60, channel=0, data=[55, 60]),
   midi.NoteOnEvent(tick=60, channel=0, data=[55, 0]),
   midi.NoteOnEvent(tick=60, channel=0, data=[57, 75]),
   midi.NoteOnEvent(tick=60, channel=0, data=[57, 0]),
   midi.NoteOnEvent(tick=180, channel=0, data=[46, 61]),
   midi.NoteOnEvent(tick=0, channel=0, data=[53, 61]),
   midi.NoteOnEvent(tick=0, channel=0, data=[50, 61]),
   midi.NoteOnEvent(tick=0, channel=0, data=[58, 69]),
   midi.ControlChangeEvent(tick=25, channel=0, data=[64, 127]),
   midi.ControlChangeEvent(tick=116, channel=0, data=[64, 0]),
   midi.NoteOnEvent(tick=39, channel=0, data=[58, 0]),
   midi.NoteOnEvent(tick=0, channel=0, data=[46, 0]),
   midi.NoteOnEvent(tick=0, channel=0, data=[53, 0]),
   midi.NoteOnEvent(tick=0, channel=0, data=[50, 0]),
   midi.NoteOnEvent(tick=60, channel=0, data=[44, 71]),
   midi.ControlChangeEvent(tick=80, channel=0, data=[64, 127]),
   midi.NoteOnEvent(tick=160, channel=0, data=[56, 64]),
   midi.NoteOnEvent(tick=240, channel=0, data=[56, 0]),
   midi.NoteOnEvent(tick=0, channel=0, data=[44, 0]),
   midi.NoteOnEvent(tick=0, channel=0, data=[45, 72]),
   midi.ControlChangeEvent(tick=9, channel=0, data=[64, 0]),
   midi.ControlChangeEvent(tick=94, channel=0, data=[64, 127]),
   midi.NoteOnEvent(tick=137, channel=0, data=[57, 63]),
   midi.ControlChangeEvent(tick=183, channel=0, data=[64, 0]),
   midi.NoteOnEvent(tick=57, channel=0, data=[57, 0]),
   midi.NoteOnEvent(tick=0, channel=0, data=[45, 0]),
   midi.NoteOnEvent(tick=0, channel=0, data=[50, 74]),
   midi.NoteOnEvent(tick=60, channel=0, data=[50, 0]),
   midi.NoteOnEvent(tick=60, channel=0, data=[52, 64]),
   midi.NoteOnEvent(tick=60, channel=0, data=[52, 0]),
   midi.NoteOnEvent(tick=60, channel=0, data=[54, 70]),
   midi.NoteOnEvent(tick=60, channel=0, data=[54, 0]),
   midi.NoteOnEvent(tick=60, channel=0, data=[55, 64]),
   midi.NoteOnEvent(tick=60, channel=0, data=[55, 0]),
   midi.NoteOnEvent(tick=60, channel=0, data=[57, 75]),
   midi.NoteOnEvent(tick=60, channel=0, data=[57, 0]),
   midi.NoteOnEvent(tick=180, channel=0, data=[50, 61]),
   midi.NoteOnEvent(tick=0, channel=0, data=[53, 61]),
   midi.NoteOnEvent(tick=0, channel=0, data=[58, 69]),
   midi.NoteOnEvent(tick=0, channel=0, data=[46, 61]),
   midi.ControlChangeEvent(tick=25, channel=0, data=[64, 127]),
   midi.ControlChangeEvent(tick=127, channel=0, data=[64, 0]),
   midi.NoteOnEvent(tick=28, channel=0, data=[46, 0]),
   midi.NoteOnEvent(tick=0, channel=0, data=[50, 0]),
   midi.NoteOnEvent(tick=0, channel=0, data=[53, 0]),
   midi.NoteOnEvent(tick=0, channel=0, data=[58, 0]),
   midi.NoteOnEvent(tick=60, channel=0, data=[44, 71]),
   midi.ControlChangeEvent(tick=80, channel=0, data=[64, 127]),
   midi.NoteOnEvent(tick=160, channel=0, data=[56, 64]),
   midi.NoteOnEvent(tick=240, channel=0, data=[56, 0]),
   midi.NoteOnEvent(tick=0, channel=0, data=[44, 0]),
   midi.NoteOnEvent(tick=0, channel=0, data=[45, 72]),
   midi.ControlChangeEvent(tick=10, channel=0, data=[64, 0]),
   midi.ControlChangeEvent(tick=81, channel=0, data=[64, 127]),
   midi.NoteOnEvent(tick=149, channel=0, data=[57, 63]),
   midi.NoteOnEvent(tick=240, channel=0, data=[57, 0]),
   midi.NoteOnEvent(tick=0, channel=0, data=[45, 0]),
   midi.ControlChangeEvent(tick=0, channel=0, data=[64, 0]),
   midi.NoteOnEvent(tick=0, channel=0, data=[44, 71]),
   midi.ControlChangeEvent(tick=114, channel=0, data=[64, 127]),
   midi.NoteOnEvent(tick=126, channel=0, data=[56, 64]),
   midi.NoteOnEvent(tick=240, channel=0, data=[56, 0]),
   midi.NoteOnEvent(tick=0, channel=0, data=[44, 0]),
   midi.NoteOnEvent(tick=0, channel=0, data=[45, 72]),
   midi.ControlChangeEvent(tick=10, channel=0, data=[64, 0]),
   midi.ControlChangeEvent(tick=116, channel=0, data=[64, 127]),
   midi.NoteOnEvent(tick=114, channel=0, data=[57, 63]),
   midi.NoteOnEvent(tick=240, channel=0, data=[57, 0]),
   midi.NoteOnEvent(tick=0, channel=0, data=[45, 0]),
   midi.ControlChangeEvent(tick=0, channel=0, data=[64, 0]),
   midi.NoteOnEvent(tick=0, channel=0, data=[46, 71]),
   midi.ControlChangeEvent(tick=80, channel=0, data=[64, 127]),
   midi.NoteOnEvent(tick=160, channel=0, data=[58, 64]),
   midi.NoteOnEvent(tick=240, channel=0, data=[58, 0]),
   midi.NoteOnEvent(tick=0, channel=0, data=[46, 0]),
   midi.NoteOnEvent(tick=0, channel=0, data=[40, 72]),
   midi.ControlChangeEvent(tick=11, channel=0, data=[64, 0]),
   midi.ControlChangeEvent(tick=92, channel=0, data=[64, 127]),
   midi.NoteOnEvent(tick=137, channel=0, data=[52, 63]),
   midi.NoteOnEvent(tick=240, channel=0, data=[52, 0]),
   midi.NoteOnEvent(tick=0, channel=0, data=[40, 0]),
   midi.NoteOnEvent(tick=0, channel=0, data=[43, 71]),
   midi.ControlChangeEvent(tick=9, channel=0, data=[64, 0]),
   midi.ControlChangeEvent(tick=117, channel=0, data=[64, 127]),
   midi.NoteOnEvent(tick=114, channel=0, data=[55, 64]),
   midi.NoteOnEvent(tick=240, channel=0, data=[55, 0]),
   midi.NoteOnEvent(tick=0, channel=0, data=[43, 0]),
   midi.NoteOnEvent(tick=0, channel=0, data=[34, 72]),
   midi.ControlChangeEvent(tick=10, channel=0, data=[64, 0]),
   midi.ControlChangeEvent(tick=104, channel=0, data=[64, 127]),
   midi.NoteOnEvent(tick=126, channel=0, data=[46, 63]),
   midi.NoteOnEvent(tick=240, channel=0, data=[46, 0]),
   midi.NoteOnEvent(tick=0, channel=0, data=[34, 0]),
   midi.NoteOnEvent(tick=0, channel=0, data=[38, 71]),
   midi.ControlChangeEvent(tick=7, channel=0, data=[64, 0]),
   midi.ControlChangeEvent(tick=134, channel=0, data=[64, 127]),
   midi.NoteOnEvent(tick=99, channel=0, data=[50, 64]),
   midi.NoteOnEvent(tick=240, channel=0, data=[50, 0]),
   midi.NoteOnEvent(tick=0, channel=0, data=[38, 0]),
   midi.NoteOnEvent(tick=0, channel=0, data=[33, 72]),
   midi.ControlChangeEvent(tick=12, channel=0, data=[64, 0]),
   midi.ControlChangeEvent(tick=101, channel=0, data=[64, 127]),
   midi.NoteOnEvent(tick=127, channel=0, data=[45, 63]),
   midi.NoteOnEvent(tick=240, channel=0, data=[45, 0]),
   midi.NoteOnEvent(tick=0, channel=0, data=[33, 0]),
   midi.ControlChangeEvent(tick=0, channel=0, data=[64, 0]),
   midi.NoteOnEvent(tick=0, channel=0, data=[44, 68]),
   midi.NoteOnEvent(tick=120, channel=0, data=[45, 59]),
   midi.NoteOnEvent(tick=20, channel=0, data=[44, 0]),
   midi.NoteOnEvent(tick=100, channel=0, data=[48, 62]),
   midi.NoteOnEvent(tick=20, channel=0, data=[45, 0]),
   midi.NoteOnEvent(tick=100, channel=0, data=[49, 57]),
   midi.NoteOnEvent(tick=20, channel=0, data=[48, 0]),
   midi.NoteOnEvent(tick=100, channel=0, data=[49, 0]),
   midi.NoteOnEvent(tick=480, channel=0, data=[56, 71]),
   midi.NoteOnEvent(tick=120, channel=0, data=[57, 63]),
   midi.NoteOnEvent(tick=20, channel=0, data=[56, 0]),
   midi.NoteOnEvent(tick=100, channel=0, data=[60, 69]),
   midi.NoteOnEvent(tick=20, channel=0, data=[57, 0]),
   midi.NoteOnEvent(tick=100, channel=0, data=[61, 63]),
   midi.NoteOnEvent(tick=20, channel=0, data=[60, 0]),
   midi.NoteOnEvent(tick=100, channel=0, data=[61, 0]),
   midi.NoteOnEvent(tick=480, channel=0, data=[68, 73]),
   midi.NoteOnEvent(tick=120, channel=0, data=[69, 62]),
   midi.NoteOnEvent(tick=20, channel=0, data=[68, 0]),
   midi.NoteOnEvent(tick=100, channel=0, data=[72, 70]),
   midi.NoteOnEvent(tick=20, channel=0, data=[69, 0]),
   midi.NoteOnEvent(tick=100, channel=0, data=[73, 61]),
   midi.NoteOnEvent(tick=20, channel=0, data=[72, 0]),
   midi.NoteOnEvent(tick=100, channel=0, data=[73, 0]),
   midi.NoteOnEvent(tick=480, channel=0, data=[80, 74]),
   midi.NoteOnEvent(tick=120, channel=0, data=[81, 66]),
   midi.NoteOnEvent(tick=20, channel=0, data=[80, 0]),
   midi.NoteOnEvent(tick=100, channel=0, data=[84, 73]),
   midi.NoteOnEvent(tick=20, channel=0, data=[81, 0]),
   midi.NoteOnEvent(tick=100, channel=0, data=[85, 64]),
   midi.NoteOnEvent(tick=20, channel=0, data=[84, 0]),
   midi.NoteOnEvent(tick=100, channel=0, data=[85, 0]),
   midi.ControlChangeEvent(tick=480, channel=0, data=[91, 127]),
   midi.NoteOnEvent(tick=1, channel=0, data=[54, 64]),
   midi.NoteOnEvent(tick=0, channel=0, data=[57, 74]),
   midi.NoteOnEvent(tick=0, channel=0, data=[50, 64]),
   midi.ControlChangeEvent(tick=90, channel=0, data=[64, 127]),
   midi.NoteOnEvent(tick=149, channel=0, data=[57, 0]),
   midi.NoteOnEvent(tick=0, channel=0, data=[62, 61]),
   midi.NoteOnEvent(tick=240, channel=0, data=[62, 0]),
   midi.NoteOnEvent(tick=0, channel=0, data=[50, 0]),
   midi.NoteOnEvent(tick=0, channel=0, data=[54, 0]),
   midi.NoteOnEvent(tick=0, channel=0, data=[58, 71]),
   midi.NoteOnEvent(tick=0, channel=0, data=[50, 62]),
   midi.NoteOnEvent(tick=0, channel=0, data=[55, 62]),
   midi.ControlChangeEvent(tick=10, channel=0, data=[64, 0]),
   midi.ControlChangeEvent(tick=81, channel=0, data=[64, 127]),
   midi.NoteOnEvent(tick=149, channel=0, data=[58, 0]),
   midi.NoteOnEvent(tick=0, channel=0, data=[62, 56]),
   midi.NoteOnEvent(tick=240, channel=0, data=[62, 0]),
   midi.NoteOnEvent(tick=0, channel=0, data=[55, 0]),
   midi.NoteOnEvent(tick=0, channel=0, data=[50, 0]),
   midi.NoteOnEvent(tick=0, channel=0, data=[57, 74]),
   midi.NoteOnEvent(tick=0, channel=0, data=[50, 64]),
   midi.NoteOnEvent(tick=0, channel=0, data=[54, 64]),
   midi.ControlChangeEvent(tick=11, channel=0, data=[64, 0]),
   midi.ControlChangeEvent(tick=149, channel=0, data=[64, 127]),
   midi.NoteOnEvent(tick=80, channel=0, data=[57, 0]),
   midi.NoteOnEvent(tick=0, channel=0, data=[62, 61]),
   midi.NoteOnEvent(tick=240, channel=0, data=[62, 0]),
   midi.NoteOnEvent(tick=0, channel=0, data=[54, 0]),
   midi.NoteOnEvent(tick=0, channel=0, data=[50, 0]),
   midi.NoteOnEvent(tick=0, channel=0, data=[58, 71]),
   midi.NoteOnEvent(tick=0, channel=0, data=[50, 62]),
   midi.NoteOnEvent(tick=0, channel=0, data=[55, 62]),
   midi.ControlChangeEvent(tick=10, channel=0, data=[64, 0]),
   midi.ControlChangeEvent(tick=104, channel=0, data=[64, 127]),
   midi.NoteOnEvent(tick=126, channel=0, data=[58, 0]),
   midi.NoteOnEvent(tick=0, channel=0, data=[62, 56]),
   midi.NoteOnEvent(tick=240, channel=0, data=[62, 0]),
   midi.NoteOnEvent(tick=0, channel=0, data=[55, 0]),
   midi.NoteOnEvent(tick=0, channel=0, data=[50, 0]),
   midi.ControlChangeEvent(tick=0, channel=0, data=[64, 0]),
   midi.NoteOnEvent(tick=0, channel=0, data=[62, 63]),
   midi.NoteOnEvent(tick=0, channel=0, data=[69, 70]),
   midi.NoteOnEvent(tick=0, channel=0, data=[66, 70]),
   midi.NoteOnEvent(tick=0, channel=0, data=[60, 63]),
   midi.NoteOnEvent(tick=960, channel=0, data=[60, 0]),
   midi.NoteOnEvent(tick=0, channel=0, data=[62, 0]),
   midi.NoteOnEvent(tick=0, channel=0, data=[69, 0]),
   midi.NoteOnEvent(tick=0, channel=0, data=[66, 0]),
   midi.NoteOnEvent(tick=0, channel=0, data=[58, 70]),
   midi.NoteOnEvent(tick=60, channel=0, data=[58, 0]),
   midi.NoteOnEvent(tick=60, channel=0, data=[57, 60]),
   midi.NoteOnEvent(tick=60, channel=0, data=[57, 0]),
   midi.NoteOnEvent(tick=60, channel=0, data=[55, 67]),
   midi.NoteOnEvent(tick=60, channel=0, data=[55, 0]),
   midi.NoteOnEvent(tick=60, channel=0, data=[54, 60]),
   midi.NoteOnEvent(tick=60, channel=0, data=[54, 0]),
   midi.NoteOnEvent(tick=60, channel=0, data=[52, 72]),
   midi.ControlChangeEvent(tick=57, channel=0, data=[64, 127]),
   midi.NoteOnEvent(tick=183, channel=0, data=[52, 0]),
   midi.NoteOnEvent(tick=0, channel=0, data=[57, 66]),
   midi.NoteOnEvent(tick=240, channel=0, data=[57, 0]),
   midi.ControlChangeEvent(tick=0, channel=0, data=[64, 0]),
   midi.NoteOnEvent(tick=0, channel=0, data=[57, 74]),
   midi.NoteOnEvent(tick=0, channel=0, data=[54, 64]),
   midi.NoteOnEvent(tick=0, channel=0, data=[50, 64]),
   midi.ControlChangeEvent(tick=160, channel=0, data=[64, 127]),
   midi.NoteOnEvent(tick=80, channel=0, data=[57, 0]),
   midi.NoteOnEvent(tick=0, channel=0, data=[62, 61]),
   midi.NoteOnEvent(tick=240, channel=0, data=[62, 0]),
   midi.NoteOnEvent(tick=0, channel=0, data=[50, 0]),
   midi.NoteOnEvent(tick=0, channel=0, data=[54, 0]),
   midi.NoteOnEvent(tick=0, channel=0, data=[55, 62]),
   midi.NoteOnEvent(tick=0, channel=0, data=[50, 62]),
   midi.NoteOnEvent(tick=0, channel=0, data=[58, 71]),
   midi.ControlChangeEvent(tick=10, channel=0, data=[64, 0]),
   midi.ControlChangeEvent(tick=81, channel=0, data=[64, 127]),
   midi.NoteOnEvent(tick=149, channel=0, data=[58, 0]),
   midi.NoteOnEvent(tick=0, channel=0, data=[62, 53]),
   midi.NoteOnEvent(tick=240, channel=0, data=[62, 0]),
   midi.NoteOnEvent(tick=0, channel=0, data=[50, 0]),
   midi.NoteOnEvent(tick=0, channel=0, data=[55, 0]),
   midi.NoteOnEvent(tick=0, channel=0, data=[57, 74]),
   midi.NoteOnEvent(tick=0, channel=0, data=[54, 64]),
   midi.NoteOnEvent(tick=0, channel=0, data=[50, 64]),
   midi.ControlChangeEvent(tick=9, channel=0, data=[64, 0]),
   midi.ControlChangeEvent(tick=105, channel=0, data=[64, 127]),
   midi.NoteOnEvent(tick=126, channel=0, data=[57, 0]),
   midi.NoteOnEvent(tick=0, channel=0, data=[62, 60]),
   midi.NoteOnEvent(tick=240, channel=0, data=[62, 0]),
   midi.NoteOnEvent(tick=0, channel=0, data=[50, 0]),
   midi.NoteOnEvent(tick=0, channel=0, data=[54, 0]),
   midi.NoteOnEvent(tick=0, channel=0, data=[55, 62]),
   midi.NoteOnEvent(tick=0, channel=0, data=[50, 62]),
   midi.NoteOnEvent(tick=0, channel=0, data=[58, 71]),
   midi.ControlChangeEvent(tick=10, channel=0, data=[64, 0]),
   midi.ControlChangeEvent(tick=104, channel=0, data=[64, 127]),
   midi.NoteOnEvent(tick=126, channel=0, data=[58, 0]),
   midi.NoteOnEvent(tick=0, channel=0, data=[62, 53]),
   midi.NoteOnEvent(tick=240, channel=0, data=[62, 0]),
   midi.NoteOnEvent(tick=0, channel=0, data=[50, 0]),
   midi.NoteOnEvent(tick=0, channel=0, data=[55, 0]),
   midi.ControlChangeEvent(tick=0, channel=0, data=[64, 0]),
   midi.NoteOnEvent(tick=0, channel=0, data=[62, 63]),
   midi.NoteOnEvent(tick=0, channel=0, data=[60, 63]),
   midi.NoteOnEvent(tick=0, channel=0, data=[66, 70]),
   midi.NoteOnEvent(tick=0, channel=0, data=[69, 70]),
   midi.NoteOnEvent(tick=960, channel=0, data=[69, 0]),
   midi.NoteOnEvent(tick=0, channel=0, data=[62, 0]),
   midi.NoteOnEvent(tick=0, channel=0, data=[60, 0]),
   midi.NoteOnEvent(tick=0, channel=0, data=[66, 0]),
   midi.NoteOnEvent(tick=0, channel=0, data=[58, 60]),
   midi.NoteOnEvent(tick=0, channel=0, data=[62, 60]),
   midi.NoteOnEvent(tick=60, channel=0, data=[62, 0]),
   midi.NoteOnEvent(tick=0, channel=0, data=[58, 0]),
   midi.NoteOnEvent(tick=180, channel=0, data=[58, 66]),
   midi.NoteOnEvent(tick=60, channel=0, data=[58, 0]),
   midi.NoteOnEvent(tick=60, channel=0, data=[57, 68]),
   midi.NoteOnEvent(tick=60, channel=0, data=[57, 0]),
   midi.NoteOnEvent(tick=60, channel=0, data=[55, 71]),
   midi.NoteOnEvent(tick=240, channel=0, data=[55, 0]),
   midi.NoteOnEvent(tick=240, channel=0, data=[43, 41]),
   midi.NoteOnEvent(tick=0, channel=0, data=[51, 41]),
   midi.ControlChangeEvent(tick=13, channel=0, data=[64, 127]),
   midi.NoteOnEvent(tick=227, channel=0, data=[58, 37]),
   midi.NoteOnEvent(tick=240, channel=0, data=[58, 0]),
   midi.NoteOnEvent(tick=0, channel=0, data=[51, 0]),
   midi.NoteOnEvent(tick=0, channel=0, data=[43, 0]),
   midi.NoteOnEvent(tick=0, channel=0, data=[56, 43]),
   midi.ControlChangeEvent(tick=10, channel=0, data=[64, 0]),
   midi.ControlChangeEvent(tick=78, channel=0, data=[64, 127]),
   midi.NoteOnEvent(tick=152, channel=0, data=[51, 37]),
   midi.NoteOnEvent(tick=0, channel=0, data=[44, 37]),
   midi.ControlChangeEvent(tick=172, channel=0, data=[64, 0]),
   midi.NoteOnEvent(tick=68, channel=0, data=[44, 0]),
   midi.NoteOnEvent(tick=0, channel=0, data=[51, 0]),
   midi.NoteOnEvent(tick=0, channel=0, data=[56, 0]),
   midi.NoteOnEvent(tick=0, channel=0, data=[45, 44]),
   midi.NoteOnEvent(tick=0, channel=0, data=[53, 44]),
   midi.ControlChangeEvent(tick=55, channel=0, data=[64, 127]),
   midi.NoteOnEvent(tick=185, channel=0, data=[60, 40]),
   midi.NoteOnEvent(tick=240, channel=0, data=[60, 0]),
   midi.NoteOnEvent(tick=0, channel=0, data=[53, 0]),
   midi.NoteOnEvent(tick=0, channel=0, data=[45, 0]),
   midi.NoteOnEvent(tick=0, channel=0, data=[58, 48]),
   midi.ControlChangeEvent(tick=10, channel=0, data=[64, 0]),
   midi.ControlChangeEvent(tick=78, channel=0, data=[64, 127]),
   midi.NoteOnEvent(tick=152, channel=0, data=[46, 40]),
   midi.NoteOnEvent(tick=0, channel=0, data=[53, 40]),
   midi.ControlChangeEvent(tick=172, channel=0, data=[64, 0]),
   midi.NoteOnEvent(tick=68, channel=0, data=[53, 0]),
   midi.NoteOnEvent(tick=0, channel=0, data=[46, 0]),
   midi.NoteOnEvent(tick=0, channel=0, data=[58, 0]),
   midi.NoteOnEvent(tick=0, channel=0, data=[55, 45]),
   midi.NoteOnEvent(tick=0, channel=0, data=[47, 45]),
   midi.ControlChangeEvent(tick=88, channel=0, data=[64, 127]),
   midi.NoteOnEvent(tick=152, channel=0, data=[59, 38]),
   midi.NoteOnEvent(tick=240, channel=0, data=[59, 0]),
   midi.NoteOnEvent(tick=0, channel=0, data=[47, 0]),
   midi.NoteOnEvent(tick=0, channel=0, data=[55, 0]),
   midi.NoteOnEvent(tick=0, channel=0, data=[55, 47]),
   midi.NoteOnEvent(tick=0, channel=0, data=[48, 47]),
   midi.ControlChangeEvent(tick=6, channel=0, data=[64, 0]),
   midi.ControlChangeEvent(tick=82, channel=0, data=[64, 127]),
   midi.NoteOnEvent(tick=152, channel=0, data=[60, 39]),
   midi.NoteOnEvent(tick=240, channel=0, data=[60, 0]),
   midi.NoteOnEvent(tick=0, channel=0, data=[48, 0]),
   midi.NoteOnEvent(tick=0, channel=0, data=[55, 0]),
   midi.NoteOnEvent(tick=0, channel=0, data=[55, 49]),
   midi.NoteOnEvent(tick=0, channel=0, data=[50, 49]),
   midi.ControlChangeEvent(tick=11, channel=0, data=[64, 0]),
   midi.ControlChangeEvent(tick=77, channel=0, data=[64, 127]),
   midi.NoteOnEvent(tick=152, channel=0, data=[62, 41]),
   midi.NoteOnEvent(tick=240, channel=0, data=[62, 0]),
   midi.NoteOnEvent(tick=0, channel=0, data=[50, 0]),
   midi.NoteOnEvent(tick=0, channel=0, data=[55, 0]),
   midi.NoteOnEvent(tick=0, channel=0, data=[48, 47]),
   midi.NoteOnEvent(tick=0, channel=0, data=[55, 47]),
   midi.ControlChangeEvent(tick=6, channel=0, data=[64, 0]),
   midi.ControlChangeEvent(tick=82, channel=0, data=[64, 127]),
   midi.NoteOnEvent(tick=152, channel=0, data=[60, 40]),
   midi.ControlChangeEvent(tick=172, channel=0, data=[64, 0]),
   midi.NoteOnEvent(tick=68, channel=0, data=[60, 0]),
   midi.NoteOnEvent(tick=0, channel=0, data=[55, 0]),
   midi.NoteOnEvent(tick=0, channel=0, data=[48, 0]),
   midi.NoteOnEvent(tick=0, channel=0, data=[47, 46]),
   midi.NoteOnEvent(tick=0, channel=0, data=[55, 46]),
   midi.ControlChangeEvent(tick=62, channel=0, data=[64, 127]),
   midi.NoteOnEvent(tick=178, channel=0, data=[62, 42]),
   midi.NoteOnEvent(tick=240, channel=0, data=[62, 0]),
   midi.NoteOnEvent(tick=0, channel=0, data=[55, 0]),
   midi.NoteOnEvent(tick=0, channel=0, data=[47, 0]),
   midi.NoteOnEvent(tick=0, channel=0, data=[60, 51]),
   midi.ControlChangeEvent(tick=14, channel=0, data=[64, 0]),
   midi.ControlChangeEvent(tick=74, channel=0, data=[64, 127]),
   midi.NoteOnEvent(tick=152, channel=0, data=[55, 42]),
   midi.NoteOnEvent(tick=0, channel=0, data=[48, 42]),
   midi.ControlChangeEvent(tick=172, channel=0, data=[64, 0]),
   midi.NoteOnEvent(tick=68, channel=0, data=[48, 0]),
   midi.NoteOnEvent(tick=0, channel=0, data=[55, 0]),
   midi.NoteOnEvent(tick=0, channel=0, data=[60, 0]),
   midi.NoteOnEvent(tick=0, channel=0, data=[57, 52]),
   midi.NoteOnEvent(tick=0, channel=0, data=[49, 52]),
   midi.ControlChangeEvent(tick=55, channel=0, data=[64, 127]),
   midi.NoteOnEvent(tick=185, channel=0, data=[64, 46]),
   midi.NoteOnEvent(tick=240, channel=0, data=[64, 0]),
   midi.NoteOnEvent(tick=0, channel=0, data=[49, 0]),
   midi.NoteOnEvent(tick=0, channel=0, data=[57, 0]),
   midi.NoteOnEvent(tick=0, channel=0, data=[62, 54]),
   midi.ControlChangeEvent(tick=11, channel=0, data=[64, 0]),
   midi.ControlChangeEvent(tick=77, channel=0, data=[64, 127]),
   midi.NoteOnEvent(tick=152, channel=0, data=[57, 47]),
   midi.NoteOnEvent(tick=0, channel=0, data=[50, 47]),
   midi.ControlChangeEvent(tick=172, channel=0, data=[64, 0]),
   midi.NoteOnEvent(tick=68, channel=0, data=[50, 0]),
   midi.NoteOnEvent(tick=0, channel=0, data=[57, 0]),
   midi.NoteOnEvent(tick=0, channel=0, data=[62, 0]),
   midi.NoteOnEvent(tick=0, channel=0, data=[57, 54]),
   midi.NoteOnEvent(tick=0, channel=0, data=[49, 54]),
   midi.ControlChangeEvent(tick=88, channel=0, data=[64, 127]),
   midi.NoteOnEvent(tick=152, channel=0, data=[49, 0]),
   midi.NoteOnEvent(tick=0, channel=0, data=[61, 46]),
   midi.NoteOnEvent(tick=240, channel=0, data=[61, 0]),
   midi.NoteOnEvent(tick=0, channel=0, data=[57, 0]),
   midi.NoteOnEvent(tick=0, channel=0, data=[57, 56]),
   midi.NoteOnEvent(tick=0, channel=0, data=[50, 56]),
   midi.ControlChangeEvent(tick=8, channel=0, data=[64, 0]),
   midi.ControlChangeEvent(tick=80, channel=0, data=[64, 127]),
   midi.NoteOnEvent(tick=152, channel=0, data=[50, 0]),
   midi.NoteOnEvent(tick=0, channel=0, data=[62, 47]),
   midi.NoteOnEvent(tick=240, channel=0, data=[62, 0]),
   midi.NoteOnEvent(tick=0, channel=0, data=[57, 0]),
   midi.NoteOnEvent(tick=0, channel=0, data=[57, 57]),
   midi.NoteOnEvent(tick=0, channel=0, data=[52, 57]),
   midi.ControlChangeEvent(tick=10, channel=0, data=[64, 0]),
   midi.ControlChangeEvent(tick=78, channel=0, data=[64, 127]),
   midi.NoteOnEvent(tick=152, channel=0, data=[52, 0]),
   midi.NoteOnEvent(tick=0, channel=0, data=[64, 49]),
   midi.NoteOnEvent(tick=240, channel=0, data=[64, 0]),
   midi.NoteOnEvent(tick=0, channel=0, data=[57, 0]),
   midi.NoteOnEvent(tick=0, channel=0, data=[57, 56]),
   midi.NoteOnEvent(tick=0, channel=0, data=[50, 56]),
   midi.ControlChangeEvent(tick=7, channel=0, data=[64, 0]),
   midi.ControlChangeEvent(tick=81, channel=0, data=[64, 127]),
   midi.NoteOnEvent(tick=152, channel=0, data=[50, 0]),
   midi.NoteOnEvent(tick=0, channel=0, data=[62, 48]),
   midi.NoteOnEvent(tick=240, channel=0, data=[62, 0]),
   midi.NoteOnEvent(tick=0, channel=0, data=[57, 0]),
   midi.ControlChangeEvent(tick=0, channel=0, data=[64, 0]),
   midi.NoteOnEvent(tick=0, channel=0, data=[57, 58]),
   midi.NoteOnEvent(tick=0, channel=0, data=[49, 58]),
   midi.ControlChangeEvent(tick=125, channel=0, data=[64, 127]),
   midi.NoteOnEvent(tick=115, channel=0, data=[49, 0]),
   midi.NoteOnEvent(tick=0, channel=0, data=[61, 49]),
   midi.NoteOnEvent(tick=240, channel=0, data=[61, 0]),
   midi.NoteOnEvent(tick=0, channel=0, data=[57, 0]),
   midi.NoteOnEvent(tick=0, channel=0, data=[57, 61]),
   midi.NoteOnEvent(tick=0, channel=0, data=[50, 61]),
   midi.ControlChangeEvent(tick=8, channel=0, data=[64, 0]),
   midi.ControlChangeEvent(tick=80, channel=0, data=[64, 127]),
   midi.NoteOnEvent(tick=152, channel=0, data=[50, 0]),
   midi.NoteOnEvent(tick=0, channel=0, data=[62, 52]),
   midi.NoteOnEvent(tick=240, channel=0, data=[62, 0]),
   midi.NoteOnEvent(tick=0, channel=0, data=[57, 0]),
   midi.NoteOnEvent(tick=0, channel=0, data=[51, 63]),
   midi.NoteOnEvent(tick=0, channel=0, data=[59, 63]),
   midi.ControlChangeEvent(tick=10, channel=0, data=[64, 0]),
   midi.ControlChangeEvent(tick=78, channel=0, data=[64, 127]),
   midi.NoteOnEvent(tick=152, channel=0, data=[51, 0]),
   midi.NoteOnEvent(tick=0, channel=0, data=[63, 53]),
   midi.NoteOnEvent(tick=240, channel=0, data=[63, 0]),
   midi.NoteOnEvent(tick=0, channel=0, data=[59, 0]),
   midi.NoteOnEvent(tick=0, channel=0, data=[52, 60]),
   midi.NoteOnEvent(tick=0, channel=0, data=[59, 60]),
   midi.ControlChangeEvent(tick=8, channel=0, data=[64, 0]),
   midi.ControlChangeEvent(tick=80, channel=0, data=[64, 127]),
   midi.NoteOnEvent(tick=152, channel=0, data=[52, 0]),
   midi.NoteOnEvent(tick=0, channel=0, data=[64, 52]),
   midi.NoteOnEvent(tick=240, channel=0, data=[64, 0]),
   midi.NoteOnEvent(tick=0, channel=0, data=[59, 0]),
   midi.ControlChangeEvent(tick=0, channel=0, data=[64, 0]),
   midi.NoteOnEvent(tick=0, channel=0, data=[59, 64]),
   midi.NoteOnEvent(tick=0, channel=0, data=[51, 64]),
   midi.ControlChangeEvent(tick=88, channel=0, data=[64, 127]),
   midi.NoteOnEvent(tick=152, channel=0, data=[51, 0]),
   midi.NoteOnEvent(tick=0, channel=0, data=[63, 54]),
   midi.NoteOnEvent(tick=240, channel=0, data=[63, 0]),
   midi.NoteOnEvent(tick=0, channel=0, data=[59, 0]),
   midi.NoteOnEvent(tick=0, channel=0, data=[59, 66]),
   midi.NoteOnEvent(tick=0, channel=0, data=[52, 66]),
   midi.ControlChangeEvent(tick=7, channel=0, data=[64, 0]),
   midi.ControlChangeEvent(tick=81, channel=0, data=[64, 127]),
   midi.NoteOnEvent(tick=152, channel=0, data=[52, 0]),
   midi.NoteOnEvent(tick=0, channel=0, data=[64, 56]),
   midi.NoteOnEvent(tick=240, channel=0, data=[64, 0]),
   midi.NoteOnEvent(tick=0, channel=0, data=[59, 0]),
   midi.NoteOnEvent(tick=0, channel=0, data=[61, 67]),
   midi.NoteOnEvent(tick=0, channel=0, data=[53, 67]),
   midi.ControlChangeEvent(tick=10, channel=0, data=[64, 0]),
   midi.ControlChangeEvent(tick=78, channel=0, data=[64, 127]),
   midi.NoteOnEvent(tick=152, channel=0, data=[53, 0]),
   midi.NoteOnEvent(tick=0, channel=0, data=[65, 57]),
   midi.NoteOnEvent(tick=240, channel=0, data=[65, 0]),
   midi.NoteOnEvent(tick=0, channel=0, data=[61, 0]),
   midi.NoteOnEvent(tick=0, channel=0, data=[54, 65]),
   midi.NoteOnEvent(tick=0, channel=0, data=[61, 65]),
   midi.ControlChangeEvent(tick=6, channel=0, data=[64, 0]),
   midi.ControlChangeEvent(tick=82, channel=0, data=[64, 127]),
   midi.NoteOnEvent(tick=152, channel=0, data=[54, 0]),
   midi.NoteOnEvent(tick=0, channel=0, data=[66, 56]),
   midi.NoteOnEvent(tick=240, channel=0, data=[66, 0]),
   midi.NoteOnEvent(tick=0, channel=0, data=[61, 0]),
   midi.ControlChangeEvent(tick=0, channel=0, data=[64, 0]),
   midi.NoteOnEvent(tick=0, channel=0, data=[54, 72]),
   midi.NoteOnEvent(tick=0, channel=0, data=[62, 72]),
   midi.ControlChangeEvent(tick=155, channel=0, data=[64, 127]),
   midi.NoteOnEvent(tick=85, channel=0, data=[54, 0]),
   midi.NoteOnEvent(tick=0, channel=0, data=[66, 60]),
   midi.NoteOnEvent(tick=240, channel=0, data=[66, 0]),
   midi.NoteOnEvent(tick=0, channel=0, data=[62, 0]),
   midi.NoteOnEvent(tick=0, channel=0, data=[55, 70]),
   midi.NoteOnEvent(tick=0, channel=0, data=[62, 70]),
   midi.ControlChangeEvent(tick=9, channel=0, data=[64, 0]),
   midi.ControlChangeEvent(tick=160, channel=0, data=[64, 127]),
   midi.NoteOnEvent(tick=71, channel=0, data=[55, 0]),
   midi.NoteOnEvent(tick=0, channel=0, data=[67, 60]),
   midi.NoteOnEvent(tick=240, channel=0, data=[67, 0]),
   midi.NoteOnEvent(tick=0, channel=0, data=[62, 0]),
   midi.NoteOnEvent(tick=0, channel=0, data=[54, 73]),
   midi.NoteOnEvent(tick=0, channel=0, data=[62, 73]),
   midi.ControlChangeEvent(tick=10, channel=0, data=[64, 0]),
   midi.ControlChangeEvent(tick=78, channel=0, data=[64, 127]),
   midi.NoteOnEvent(tick=152, channel=0, data=[54, 0]),
   midi.NoteOnEvent(tick=0, channel=0, data=[66, 61]),
   midi.NoteOnEvent(tick=240, channel=0, data=[66, 0]),
   midi.NoteOnEvent(tick=0, channel=0, data=[62, 0]),
   midi.NoteOnEvent(tick=0, channel=0, data=[62, 71]),
   midi.NoteOnEvent(tick=0, channel=0, data=[55, 71]),
   midi.ControlChangeEvent(tick=11, channel=0, data=[64, 0]),
   midi.ControlChangeEvent(tick=88, channel=0, data=[64, 127]),
   midi.NoteOnEvent(tick=141, channel=0, data=[55, 0]),
   midi.NoteOnEvent(tick=0, channel=0, data=[67, 60]),
   midi.NoteOnEvent(tick=240, channel=0, data=[67, 0]),
   midi.NoteOnEvent(tick=0, channel=0, data=[62, 0]),
   midi.ControlChangeEvent(tick=0, channel=0, data=[64, 0]),
   midi.NoteOnEvent(tick=0, channel=0, data=[70, 69]),
   midi.NoteOnEvent(tick=0, channel=0, data=[67, 69]),
   midi.NoteOnEvent(tick=0, channel=0, data=[74, 77]),
   midi.NoteOnEvent(tick=120, channel=0, data=[74, 0]),
   midi.NoteOnEvent(tick=0, channel=0, data=[67, 0]),
   midi.NoteOnEvent(tick=0, channel=0, data=[70, 0]),
   midi.NoteOnEvent(tick=360, channel=0, data=[76, 80]),
   midi.NoteOnEvent(tick=60, channel=0, data=[76, 0]),
   midi.NoteOnEvent(tick=60, channel=0, data=[74, 71]),
   midi.NoteOnEvent(tick=60, channel=0, data=[74, 0]),
   midi.NoteOnEvent(tick=60, channel=0, data=[70, 75]),
   midi.NoteOnEvent(tick=60, channel=0, data=[70, 0]),
   midi.NoteOnEvent(tick=60, channel=0, data=[69, 67]),
   midi.NoteOnEvent(tick=60, channel=0, data=[69, 0]),
   midi.NoteOnEvent(tick=60, channel=0, data=[67, 82]),
   midi.NoteOnEvent(tick=120, channel=0, data=[67, 0]),
   midi.NoteOnEvent(tick=360, channel=0, data=[52, 71]),
   midi.NoteOnEvent(tick=60, channel=0, data=[52, 0]),
   midi.NoteOnEvent(tick=60, channel=0, data=[50, 62]),
   midi.NoteOnEvent(tick=60, channel=0, data=[50, 0]),
   midi.NoteOnEvent(tick=60, channel=0, data=[46, 68]),
   midi.NoteOnEvent(tick=60, channel=0, data=[46, 0]),
   midi.NoteOnEvent(tick=60, channel=0, data=[45, 61]),
   midi.NoteOnEvent(tick=60, channel=0, data=[45, 0]),
   midi.NoteOnEvent(tick=60, channel=0, data=[43, 75]),
   midi.NoteOnEvent(tick=120, channel=0, data=[43, 0]),
   midi.NoteOnEvent(tick=120, channel=0, data=[43, 69]),
   midi.NoteOnEvent(tick=120, channel=0, data=[43, 0]),
   midi.NoteOnEvent(tick=120, channel=0, data=[44, 74]),
   midi.NoteOnEvent(tick=120, channel=0, data=[44, 0]),
   midi.NoteOnEvent(tick=0, channel=0, data=[45, 66]),
   midi.NoteOnEvent(tick=120, channel=0, data=[45, 0]),
   midi.NoteOnEvent(tick=0, channel=0, data=[46, 73]),
   midi.NoteOnEvent(tick=120, channel=0, data=[46, 0]),
   midi.NoteOnEvent(tick=0, channel=0, data=[44, 64]),
   midi.NoteOnEvent(tick=120, channel=0, data=[44, 0]),
   midi.NoteOnEvent(tick=0, channel=0, data=[45, 73]),
   midi.ControlChangeEvent(tick=227, channel=0, data=[64, 127]),
   midi.NoteOnEvent(tick=13, channel=0, data=[45, 0]),
   midi.NoteOnEvent(tick=0, channel=0, data=[55, 71]),
   midi.NoteOnEvent(tick=0, channel=0, data=[45, 71]),
   midi.ControlChangeEvent(tick=173, channel=0, data=[64, 0]),
   midi.NoteOnEvent(tick=7, channel=0, data=[45, 0]),
   midi.NoteOnEvent(tick=0, channel=0, data=[55, 0]),
   midi.NoteOnEvent(tick=60, channel=0, data=[54, 77]),
   midi.NoteOnEvent(tick=0, channel=0, data=[50, 77]),
   midi.ControlChangeEvent(tick=114, channel=0, data=[64, 127]),
   midi.NoteOnEvent(tick=126, channel=0, data=[50, 0]),
   midi.NoteOnEvent(tick=0, channel=0, data=[54, 0]),
   midi.ControlChangeEvent(tick=63, channel=0, data=[64, 0]),
   midi.NoteOnEvent(tick=177, channel=0, data=[54, 73]),
   midi.NoteOnEvent(tick=0, channel=0, data=[46, 64]),
   midi.NoteOnEvent(tick=0, channel=0, data=[58, 73]),
   midi.ControlChangeEvent(tick=80, channel=0, data=[64, 127]),
   midi.NoteOnEvent(tick=400, channel=0, data=[54, 0]),
   midi.NoteOnEvent(tick=0, channel=0, data=[55, 57]),
   midi.NoteOnEvent(tick=480, channel=0, data=[55, 0]),
   midi.NoteOnEvent(tick=0, channel=0, data=[58, 0]),
   midi.NoteOnEvent(tick=0, channel=0, data=[46, 0]),
   midi.NoteOnEvent(tick=0, channel=0, data=[56, 69]),
   midi.NoteOnEvent(tick=0, channel=0, data=[60, 69]),
   midi.NoteOnEvent(tick=0, channel=0, data=[48, 62]),
   midi.ControlChangeEvent(tick=6, channel=0, data=[64, 0]),
   midi.ControlChangeEvent(tick=200, channel=0, data=[64, 127]),
   midi.NoteOnEvent(tick=274, channel=0, data=[56, 0]),
   midi.NoteOnEvent(tick=0, channel=0, data=[57, 59]),
   midi.NoteOnEvent(tick=480, channel=0, data=[57, 0]),
   midi.NoteOnEvent(tick=0, channel=0, data=[48, 0]),
   midi.NoteOnEvent(tick=0, channel=0, data=[60, 0]),
   midi.ControlChangeEvent(tick=0, channel=0, data=[64, 0]),
   midi.NoteOnEvent(tick=0, channel=0, data=[49, 63]),
   midi.NoteOnEvent(tick=0, channel=0, data=[61, 70]),
   midi.NoteOnEvent(tick=0, channel=0, data=[57, 70]),
   midi.ControlChangeEvent(tick=46, channel=0, data=[64, 127]),
   midi.NoteOnEvent(tick=434, channel=0, data=[57, 0]),
   midi.NoteOnEvent(tick=0, channel=0, data=[61, 0]),
   midi.NoteOnEvent(tick=0, channel=0, data=[49, 0]),
   midi.NoteOnEvent(tick=0, channel=0, data=[50, 56]),
   midi.NoteOnEvent(tick=0, channel=0, data=[58, 63]),
   midi.NoteOnEvent(tick=0, channel=0, data=[62, 63]),
   midi.ControlChangeEvent(tick=10, channel=0, data=[64, 0]),
   midi.ControlChangeEvent(tick=47, channel=0, data=[64, 127]),
   midi.NoteOnEvent(tick=183, channel=0, data=[62, 0]),
   midi.NoteOnEvent(tick=0, channel=0, data=[58, 0]),
   midi.NoteOnEvent(tick=0, channel=0, data=[50, 0]),
   midi.ControlChangeEvent(tick=5, channel=0, data=[64, 0]),
   midi.NoteOnEvent(tick=235, channel=0, data=[48, 55]),
   midi.NoteOnEvent(tick=0, channel=0, data=[55, 62]),
   midi.ControlChangeEvent(tick=114, channel=0, data=[64, 127]),
   midi.NoteOnEvent(tick=366, channel=0, data=[55, 0]),
   midi.NoteOnEvent(tick=0, channel=0, data=[48, 0]),
   midi.NoteOnEvent(tick=0, channel=0, data=[41, 44]),
   midi.NoteOnEvent(tick=0, channel=0, data=[48, 50]),
   midi.ControlChangeEvent(tick=10, channel=0, data=[64, 0]),
   midi.NoteOnEvent(tick=230, channel=0, data=[48, 0]),
   midi.NoteOnEvent(tick=0, channel=0, data=[41, 0]),
   midi.NoteOnEvent(tick=240, channel=0, data=[29, 35]),
   midi.NoteOnEvent(tick=0, channel=0, data=[41, 39]),
   midi.ControlChangeEvent(tick=91, channel=0, data=[64, 127]),
   midi.NoteOnEvent(tick=149, channel=0, data=[41, 0]),
   midi.NoteOnEvent(tick=0, channel=0, data=[29, 0]),
   midi.NoteOnEvent(tick=240, channel=0, data=[41, 37]),
   midi.NoteOnEvent(tick=0, channel=0, data=[48, 37]),
   midi.NoteOnEvent(tick=0, channel=0, data=[55, 41]),
   midi.ControlChangeEvent(tick=11, channel=0, data=[64, 0]),
   midi.ControlChangeEvent(tick=172, channel=0, data=[64, 127]),
   midi.NoteOnEvent(tick=777, channel=0, data=[55, 0]),
   midi.NoteOnEvent(tick=0, channel=0, data=[48, 0]),
   midi.NoteOnEvent(tick=0, channel=0, data=[41, 0]),
   midi.NoteOnEvent(tick=0, channel=0, data=[41, 26]),
   midi.NoteOnEvent(tick=0, channel=0, data=[48, 26]),
   midi.NoteOnEvent(tick=0, channel=0, data=[53, 29]),
   midi.ControlChangeEvent(tick=12, channel=0, data=[64, 0]),
   midi.ControlChangeEvent(tick=143, channel=0, data=[64, 127]),
   midi.NoteOnEvent(tick=325, channel=0, data=[53, 0]),
   midi.NoteOnEvent(tick=0, channel=0, data=[48, 0]),
   midi.NoteOnEvent(tick=0, channel=0, data=[41, 0]),
   midi.ControlChangeEvent(tick=0, channel=0, data=[64, 0]),
   midi.ControlChangeEvent(tick=114, channel=0, data=[64, 127]),
   midi.NoteOnEvent(tick=126, channel=0, data=[48, 37]),
   midi.NoteOnEvent(tick=240, channel=0, data=[48, 0]),
   midi.NoteOnEvent(tick=0, channel=0, data=[53, 40]),
   midi.ControlChangeEvent(tick=5, channel=0, data=[64, 0]),
   midi.ControlChangeEvent(tick=166, channel=0, data=[64, 127]),
   midi.NoteOnEvent(tick=69, channel=0, data=[53, 0]),
   midi.NoteOnEvent(tick=0, channel=0, data=[52, 35]),
   midi.NoteOnEvent(tick=240, channel=0, data=[52, 0]),
   midi.NoteOnEvent(tick=0, channel=0, data=[50, 38]),
   midi.NoteOnEvent(tick=240, channel=0, data=[50, 0]),
   midi.NoteOnEvent(tick=0, channel=0, data=[52, 35]),
   midi.NoteOnEvent(tick=240, channel=0, data=[52, 0]),
   midi.NoteOnEvent(tick=0, channel=0, data=[53, 36]),
   midi.ControlChangeEvent(tick=10, channel=0, data=[64, 0]),
   midi.ControlChangeEvent(tick=172, channel=0, data=[64, 127]),
   midi.NoteOnEvent(tick=298, channel=0, data=[53, 0]),
   midi.ControlChangeEvent(tick=0, channel=0, data=[64, 0]),
   midi.NoteOnEvent(tick=0, channel=0, data=[57, 40]),
   midi.ControlChangeEvent(tick=125, channel=0, data=[64, 127]),
   midi.NoteOnEvent(tick=115, channel=0, data=[57, 0]),
   midi.NoteOnEvent(tick=0, channel=0, data=[50, 46]),
   midi.NoteOnEvent(tick=240, channel=0, data=[50, 0]),
   midi.NoteOnEvent(tick=0, channel=0, data=[41, 40]),
   midi.ControlChangeEvent(tick=183, channel=0, data=[64, 0]),
   midi.NoteOnEvent(tick=57, channel=0, data=[41, 0]),
   midi.NoteOnEvent(tick=240, channel=0, data=[58, 47]),
   midi.ControlChangeEvent(tick=32, channel=0, data=[64, 127]),
   midi.NoteOnEvent(tick=208, channel=0, data=[58, 0]),
   midi.NoteOnEvent(tick=0, channel=0, data=[50, 51]),
   midi.NoteOnEvent(tick=240, channel=0, data=[50, 0]),
   midi.NoteOnEvent(tick=0, channel=0, data=[43, 48]),
   midi.ControlChangeEvent(tick=19, channel=0, data=[64, 0]),
   midi.NoteOnEvent(tick=221, channel=0, data=[43, 0]),
   midi.NoteOnEvent(tick=240, channel=0, data=[59, 56]),
   midi.ControlChangeEvent(tick=80, channel=0, data=[64, 127]),
   midi.NoteOnEvent(tick=160, channel=0, data=[59, 0]),
   midi.NoteOnEvent(tick=0, channel=0, data=[52, 59]),
   midi.NoteOnEvent(tick=240, channel=0, data=[52, 0]),
   midi.NoteOnEvent(tick=0, channel=0, data=[44, 55]),
   midi.ControlChangeEvent(tick=15, channel=0, data=[64, 0]),
   midi.NoteOnEvent(tick=225, channel=0, data=[44, 0]),
   midi.NoteOnEvent(tick=240, channel=0, data=[61, 62]),
   midi.ControlChangeEvent(tick=91, channel=0, data=[64, 127]),
   midi.NoteOnEvent(tick=149, channel=0, data=[61, 0]),
   midi.NoteOnEvent(tick=0, channel=0, data=[52, 68]),
   midi.NoteOnEvent(tick=240, channel=0, data=[52, 0]),
   midi.NoteOnEvent(tick=0, channel=0, data=[45, 63]),
   midi.ControlChangeEvent(tick=17, channel=0, data=[64, 0]),
   midi.NoteOnEvent(tick=223, channel=0, data=[45, 0]),
   midi.NoteOnEvent(tick=240, channel=0, data=[54, 73]),
   midi.NoteOnEvent(tick=0, channel=0, data=[46, 64]),
   midi.NoteOnEvent(tick=0, channel=0, data=[58, 73]),
   midi.ControlChangeEvent(tick=240, channel=0, data=[64, 127]),
   midi.NoteOnEvent(tick=240, channel=0, data=[54, 0]),
   midi.NoteOnEvent(tick=0, channel=0, data=[55, 62]),
   midi.NoteOnEvent(tick=480, channel=0, data=[55, 0]),
   midi.NoteOnEvent(tick=0, channel=0, data=[58, 0]),
   midi.NoteOnEvent(tick=0, channel=0, data=[46, 0]),
   midi.NoteOnEvent(tick=0, channel=0, data=[56, 69]),
   midi.NoteOnEvent(tick=0, channel=0, data=[60, 69]),
   midi.NoteOnEvent(tick=0, channel=0, data=[48, 62]),
   midi.ControlChangeEvent(tick=6, channel=0, data=[64, 0]),
   midi.ControlChangeEvent(tick=222, channel=0, data=[64, 127]),
   midi.NoteOnEvent(tick=252, channel=0, data=[56, 0]),
   midi.NoteOnEvent(tick=0, channel=0, data=[57, 60]),
   midi.NoteOnEvent(tick=480, channel=0, data=[57, 0]),
   midi.NoteOnEvent(tick=0, channel=0, data=[48, 0]),
   midi.NoteOnEvent(tick=0, channel=0, data=[60, 0]),
   midi.ControlChangeEvent(tick=0, channel=0, data=[64, 0]),
   midi.NoteOnEvent(tick=0, channel=0, data=[49, 63]),
   midi.NoteOnEvent(tick=0, channel=0, data=[61, 70]),
   midi.NoteOnEvent(tick=0, channel=0, data=[57, 70]),
   midi.ControlChangeEvent(tick=97, channel=0, data=[64, 127]),
   midi.NoteOnEvent(tick=383, channel=0, data=[57, 0]),
   midi.NoteOnEvent(tick=0, channel=0, data=[61, 0]),
   midi.NoteOnEvent(tick=0, channel=0, data=[49, 0]),
   midi.NoteOnEvent(tick=0, channel=0, data=[50, 56]),
   midi.NoteOnEvent(tick=0, channel=0, data=[58, 63]),
   midi.NoteOnEvent(tick=0, channel=0, data=[62, 63]),
   midi.ControlChangeEvent(tick=9, channel=0, data=[64, 0]),
   midi.ControlChangeEvent(tick=48, channel=0, data=[64, 127]),
   midi.NoteOnEvent(tick=183, channel=0, data=[62, 0]),
   midi.NoteOnEvent(tick=0, channel=0, data=[58, 0]),
   midi.NoteOnEvent(tick=0, channel=0, data=[50, 0]),
   midi.ControlChangeEvent(tick=40, channel=0, data=[64, 0]),
   midi.NoteOnEvent(tick=200, channel=0, data=[48, 55]),
   midi.NoteOnEvent(tick=0, channel=0, data=[55, 62]),
   midi.ControlChangeEvent(tick=114, channel=0, data=[64, 127]),
   midi.NoteOnEvent(tick=366, channel=0, data=[55, 0]),
   midi.NoteOnEvent(tick=0, channel=0, data=[48, 0]),
   midi.NoteOnEvent(tick=0, channel=0, data=[41, 44]),
   midi.NoteOnEvent(tick=0, channel=0, data=[48, 50]),
   midi.ControlChangeEvent(tick=13, channel=0, data=[64, 0]),
   midi.NoteOnEvent(tick=227, channel=0, data=[48, 0]),
   midi.NoteOnEvent(tick=0, channel=0, data=[41, 0]),
   midi.NoteOnEvent(tick=240, channel=0, data=[29, 35]),
   midi.NoteOnEvent(tick=0, channel=0, data=[41, 39]),
   midi.ControlChangeEvent(tick=91, channel=0, data=[64, 127]),
   midi.NoteOnEvent(tick=149, channel=0, data=[41, 0]),
   midi.NoteOnEvent(tick=0, channel=0, data=[29, 0]),
   midi.NoteOnEvent(tick=240, channel=0, data=[41, 37]),
   midi.NoteOnEvent(tick=0, channel=0, data=[48, 37]),
   midi.NoteOnEvent(tick=0, channel=0, data=[55, 41]),
   midi.ControlChangeEvent(tick=14, channel=0, data=[64, 0]),
   midi.ControlChangeEvent(tick=169, channel=0, data=[64, 127]),
   midi.NoteOnEvent(tick=777, channel=0, data=[55, 0]),
   midi.NoteOnEvent(tick=0, channel=0, data=[48, 0]),
   midi.NoteOnEvent(tick=0, channel=0, data=[41, 0]),
   midi.NoteOnEvent(tick=0, channel=0, data=[41, 26]),
   midi.NoteOnEvent(tick=0, channel=0, data=[48, 26]),
   midi.NoteOnEvent(tick=0, channel=0, data=[53, 29]),
   midi.ControlChangeEvent(tick=14, channel=0, data=[64, 0]),
   midi.ControlChangeEvent(tick=141, channel=0, data=[64, 127]),
   midi.NoteOnEvent(tick=325, channel=0, data=[53, 0]),
   midi.NoteOnEvent(tick=0, channel=0, data=[48, 0]),
   midi.NoteOnEvent(tick=0, channel=0, data=[41, 0]),
   midi.ControlChangeEvent(tick=0, channel=0, data=[64, 0]),
   midi.ControlChangeEvent(tick=114, channel=0, data=[64, 127]),
   midi.NoteOnEvent(tick=126, channel=0, data=[48, 37]),
   midi.NoteOnEvent(tick=240, channel=0, data=[48, 0]),
   midi.NoteOnEvent(tick=0, channel=0, data=[53, 40]),
   midi.ControlChangeEvent(tick=4, channel=0, data=[64, 0]),
   midi.ControlChangeEvent(tick=167, channel=0, data=[64, 127]),
   midi.NoteOnEvent(tick=69, channel=0, data=[53, 0]),
   midi.NoteOnEvent(tick=0, channel=0, data=[52, 35]),
   midi.NoteOnEvent(tick=240, channel=0, data=[52, 0]),
   midi.NoteOnEvent(tick=0, channel=0, data=[50, 38]),
   midi.NoteOnEvent(tick=240, channel=0, data=[50, 0]),
   midi.NoteOnEvent(tick=0, channel=0, data=[52, 35]),
   midi.NoteOnEvent(tick=240, channel=0, data=[52, 0]),
   midi.NoteOnEvent(tick=0, channel=0, data=[53, 36]),
   midi.ControlChangeEvent(tick=10, channel=0, data=[64, 0]),
   midi.ControlChangeEvent(tick=172, channel=0, data=[64, 127]),
   midi.NoteOnEvent(tick=298, channel=0, data=[53, 0]),
   midi.ControlChangeEvent(tick=0, channel=0, data=[64, 0]),
   midi.NoteOnEvent(tick=0, channel=0, data=[57, 40]),
   midi.ControlChangeEvent(tick=80, channel=0, data=[64, 127]),
   midi.NoteOnEvent(tick=160, channel=0, data=[57, 0]),
   midi.NoteOnEvent(tick=0, channel=0, data=[50, 46]),
   midi.NoteOnEvent(tick=240, channel=0, data=[50, 0]),
   midi.NoteOnEvent(tick=0, channel=0, data=[41, 40]),
   midi.ControlChangeEvent(tick=15, channel=0, data=[64, 0]),
   midi.NoteOnEvent(tick=225, channel=0, data=[41, 0]),
   midi.NoteOnEvent(tick=240, channel=0, data=[58, 47]),
   midi.ControlChangeEvent(tick=32, channel=0, data=[64, 127]),
   midi.NoteOnEvent(tick=208, channel=0, data=[58, 0]),
   midi.NoteOnEvent(tick=0, channel=0, data=[50, 51]),
   midi.NoteOnEvent(tick=240, channel=0, data=[50, 0]),
   midi.NoteOnEvent(tick=0, channel=0, data=[43, 48]),
   midi.ControlChangeEvent(tick=16, channel=0, data=[64, 0]),
   midi.NoteOnEvent(tick=224, channel=0, data=[43, 0]),
   midi.NoteOnEvent(tick=240, channel=0, data=[59, 56]),
   midi.ControlChangeEvent(tick=80, channel=0, data=[64, 127]),
   midi.NoteOnEvent(tick=160, channel=0, data=[59, 0]),
   midi.NoteOnEvent(tick=0, channel=0, data=[52, 59]),
   midi.NoteOnEvent(tick=240, channel=0, data=[52, 0]),
   midi.NoteOnEvent(tick=0, channel=0, data=[44, 55]),
   midi.ControlChangeEvent(tick=15, channel=0, data=[64, 0]),
   midi.NoteOnEvent(tick=225, channel=0, data=[44, 0]),
   midi.NoteOnEvent(tick=240, channel=0, data=[61, 62]),
   midi.ControlChangeEvent(tick=91, channel=0, data=[64, 127]),
   midi.NoteOnEvent(tick=149, channel=0, data=[61, 0]),
   midi.NoteOnEvent(tick=0, channel=0, data=[52, 68]),
   midi.NoteOnEvent(tick=240, channel=0, data=[52, 0]),
   midi.NoteOnEvent(tick=0, channel=0, data=[45, 63]),
   midi.ControlChangeEvent(tick=14, channel=0, data=[64, 0]),
   midi.NoteOnEvent(tick=226, channel=0, data=[45, 0]),
   midi.NoteOnEvent(tick=240, channel=0, data=[53, 64]),
   midi.NoteOnEvent(tick=0, channel=0, data=[45, 64]),
   midi.NoteOnEvent(tick=0, channel=0, data=[57, 73]),
   midi.ControlChangeEvent(tick=80, channel=0, data=[64, 127]),
   midi.NoteOnEvent(tick=400, channel=0, data=[57, 0]),
   midi.NoteOnEvent(tick=0, channel=0, data=[45, 0]),
   midi.NoteOnEvent(tick=0, channel=0, data=[46, 58]),
   midi.NoteOnEvent(tick=0, channel=0, data=[58, 66]),
   midi.NoteOnEvent(tick=480, channel=0, data=[58, 0]),
   midi.NoteOnEvent(tick=0, channel=0, data=[46, 0]),
   midi.NoteOnEvent(tick=0, channel=0, data=[53, 0]),
   midi.NoteOnEvent(tick=0, channel=0, data=[55, 64]),
   midi.NoteOnEvent(tick=0, channel=0, data=[47, 62]),
   midi.NoteOnEvent(tick=0, channel=0, data=[59, 69]),
   midi.ControlChangeEvent(tick=11, channel=0, data=[64, 0]),
   midi.ControlChangeEvent(tick=172, channel=0, data=[64, 127]),
   midi.NoteOnEvent(tick=297, channel=0, data=[59, 0]),
   midi.NoteOnEvent(tick=0, channel=0, data=[47, 0]),
   midi.NoteOnEvent(tick=0, channel=0, data=[48, 57]),
   midi.NoteOnEvent(tick=0, channel=0, data=[60, 64]),
   midi.ControlChangeEvent(tick=16, channel=0, data=[64, 0]),
   midi.NoteOnEvent(tick=464, channel=0, data=[60, 0]),
   midi.NoteOnEvent(tick=0, channel=0, data=[48, 0]),
   midi.NoteOnEvent(tick=0, channel=0, data=[55, 0]),
   midi.NoteOnEvent(tick=0, channel=0, data=[60, 63]),
   midi.NoteOnEvent(tick=0, channel=0, data=[52, 63]),
   midi.NoteOnEvent(tick=0, channel=0, data=[64, 70]),
   midi.ControlChangeEvent(tick=46, channel=0, data=[64, 127]),
   midi.NoteOnEvent(tick=434, channel=0, data=[64, 0]),
   midi.NoteOnEvent(tick=0, channel=0, data=[52, 0]),
   midi.NoteOnEvent(tick=0, channel=0, data=[53, 56]),
   midi.NoteOnEvent(tick=0, channel=0, data=[65, 63]),
   midi.ControlChangeEvent(tick=11, channel=0, data=[64, 0]),
   midi.ControlChangeEvent(tick=46, channel=0, data=[64, 127]),
   midi.NoteOnEvent(tick=183, channel=0, data=[65, 0]),
   midi.NoteOnEvent(tick=0, channel=0, data=[53, 0]),
   midi.ControlChangeEvent(tick=7, channel=0, data=[64, 0]),
   midi.NoteOnEvent(tick=233, channel=0, data=[60, 0]),
   midi.NoteOnEvent(tick=0, channel=0, data=[57, 70]),
   midi.ControlChangeEvent(tick=46, channel=0, data=[64, 127]),
   midi.NoteOnEvent(tick=434, channel=0, data=[57, 0]),
   midi.NoteOnEvent(tick=0, channel=0, data=[58, 63]),
   midi.ControlChangeEvent(tick=12, channel=0, data=[64, 0]),
   midi.ControlChangeEvent(tick=45, channel=0, data=[64, 127]),
   midi.ControlChangeEvent(tick=176, channel=0, data=[64, 0]),
   midi.NoteOnEvent(tick=7, channel=0, data=[58, 0]),
   midi.NoteOnEvent(tick=240, channel=0, data=[58, 39]),
   midi.ControlChangeEvent(tick=91, channel=0, data=[64, 127]),
   midi.NoteOnEvent(tick=389, channel=0, data=[58, 0]),
   midi.NoteOnEvent(tick=0, channel=0, data=[57, 41]),
   midi.ControlChangeEvent(tick=10, channel=0, data=[64, 0]),
   midi.ControlChangeEvent(tick=173, channel=0, data=[64, 127]),
   midi.NoteOnEvent(tick=297, channel=0, data=[50, 41]),
   midi.NoteOnEvent(tick=480, channel=0, data=[57, 0]),
   midi.NoteOnEvent(tick=0, channel=0, data=[43, 26]),
   midi.NoteOnEvent(tick=0, channel=0, data=[55, 29]),
   midi.ControlChangeEvent(tick=10, channel=0, data=[64, 0]),
   midi.ControlChangeEvent(tick=150, channel=0, data=[64, 127]),
   midi.NoteOnEvent(tick=80, channel=0, data=[55, 0]),
   midi.NoteOnEvent(tick=0, channel=0, data=[43, 0]),
   midi.NoteOnEvent(tick=0, channel=0, data=[50, 0]),
   midi.ControlChangeEvent(tick=46, channel=0, data=[64, 0]),
   midi.NoteOnEvent(tick=194, channel=0, data=[70, 39]),
   midi.ControlChangeEvent(tick=91, channel=0, data=[64, 127]),
   midi.NoteOnEvent(tick=389, channel=0, data=[70, 0]),
   midi.NoteOnEvent(tick=0, channel=0, data=[69, 41]),
   midi.ControlChangeEvent(tick=5, channel=0, data=[64, 0]),
   midi.ControlChangeEvent(tick=178, channel=0, data=[64, 127]),
   midi.NoteOnEvent(tick=297, channel=0, data=[62, 41]),
   midi.NoteOnEvent(tick=480, channel=0, data=[69, 0]),
   midi.NoteOnEvent(tick=0, channel=0, data=[55, 26]),
   midi.NoteOnEvent(tick=0, channel=0, data=[67, 29]),
   midi.ControlChangeEvent(tick=10, channel=0, data=[64, 0]),
   midi.ControlChangeEvent(tick=110, channel=0, data=[64, 127]),
   midi.NoteOnEvent(tick=120, channel=0, data=[67, 0]),
   midi.NoteOnEvent(tick=0, channel=0, data=[55, 0]),
   midi.NoteOnEvent(tick=0, channel=0, data=[62, 0]),
   midi.ControlChangeEvent(tick=46, channel=0, data=[64, 0]),
   midi.NoteOnEvent(tick=194, channel=0, data=[55, 64]),
   midi.NoteOnEvent(tick=0, channel=0, data=[47, 64]),
   midi.NoteOnEvent(tick=0, channel=0, data=[59, 73]),
   midi.ControlChangeEvent(tick=205, channel=0, data=[64, 127]),
   midi.NoteOnEvent(tick=275, channel=0, data=[59, 0]),
   midi.NoteOnEvent(tick=0, channel=0, data=[47, 0]),
   midi.NoteOnEvent(tick=0, channel=0, data=[48, 58]),
   midi.NoteOnEvent(tick=0, channel=0, data=[60, 66]),
   midi.NoteOnEvent(tick=480, channel=0, data=[60, 0]),
   midi.NoteOnEvent(tick=0, channel=0, data=[48, 0]),
   midi.NoteOnEvent(tick=0, channel=0, data=[55, 0]),
   midi.ControlChangeEvent(tick=0, channel=0, data=[64, 0]),
   midi.NoteOnEvent(tick=0, channel=0, data=[57, 64]),
   midi.NoteOnEvent(tick=0, channel=0, data=[49, 62]),
   midi.NoteOnEvent(tick=0, channel=0, data=[61, 69]),
   midi.ControlChangeEvent(tick=206, channel=0, data=[64, 127]),
   midi.NoteOnEvent(tick=274, channel=0, data=[61, 0]),
   midi.NoteOnEvent(tick=0, channel=0, data=[49, 0]),
   midi.NoteOnEvent(tick=0, channel=0, data=[50, 57]),
   midi.NoteOnEvent(tick=0, channel=0, data=[62, 64]),
   midi.ControlChangeEvent(tick=15, channel=0, data=[64, 0]),
   midi.NoteOnEvent(tick=465, channel=0, data=[62, 0]),
   midi.NoteOnEvent(tick=0, channel=0, data=[50, 0]),
   midi.NoteOnEvent(tick=0, channel=0, data=[57, 0]),
   midi.NoteOnEvent(tick=0, channel=0, data=[62, 63]),
   midi.NoteOnEvent(tick=0, channel=0, data=[54, 63]),
   midi.NoteOnEvent(tick=0, channel=0, data=[66, 70]),
   midi.ControlChangeEvent(tick=46, channel=0, data=[64, 127]),
   midi.NoteOnEvent(tick=434, channel=0, data=[66, 0]),
   midi.NoteOnEvent(tick=0, channel=0, data=[54, 0]),
   midi.NoteOnEvent(tick=0, channel=0, data=[55, 56]),
   midi.NoteOnEvent(tick=0, channel=0, data=[67, 63]),
   midi.ControlChangeEvent(tick=9, channel=0, data=[64, 0]),
   midi.ControlChangeEvent(tick=97, channel=0, data=[64, 127]),
   midi.ControlChangeEvent(tick=127, channel=0, data=[64, 0]),
   midi.NoteOnEvent(tick=7, channel=0, data=[67, 0]),
   midi.NoteOnEvent(tick=0, channel=0, data=[55, 0]),
   midi.NoteOnEvent(tick=240, channel=0, data=[62, 0]),
   midi.NoteOnEvent(tick=0, channel=0, data=[59, 70]),
   midi.ControlChangeEvent(tick=46, channel=0, data=[64, 127]),
   midi.NoteOnEvent(tick=434, channel=0, data=[59, 0]),
   midi.NoteOnEvent(tick=0, channel=0, data=[60, 63]),
   midi.ControlChangeEvent(tick=12, channel=0, data=[64, 0]),
   midi.ControlChangeEvent(tick=45, channel=0, data=[64, 127]),
   midi.ControlChangeEvent(tick=176, channel=0, data=[64, 0]),
   midi.NoteOnEvent(tick=7, channel=0, data=[60, 0]),
   midi.NoteOnEvent(tick=240, channel=0, data=[60, 39]),
   midi.ControlChangeEvent(tick=91, channel=0, data=[64, 127]),
   midi.NoteOnEvent(tick=389, channel=0, data=[60, 0]),
   midi.NoteOnEvent(tick=0, channel=0, data=[59, 41]),
   midi.ControlChangeEvent(tick=11, channel=0, data=[64, 0]),
   midi.ControlChangeEvent(tick=172, channel=0, data=[64, 127]),
   midi.NoteOnEvent(tick=297, channel=0, data=[52, 41]),
   midi.NoteOnEvent(tick=480, channel=0, data=[59, 0]),
   midi.NoteOnEvent(tick=0, channel=0, data=[45, 26]),
   midi.NoteOnEvent(tick=0, channel=0, data=[57, 29]),
   midi.ControlChangeEvent(tick=12, channel=0, data=[64, 0]),
   midi.ControlChangeEvent(tick=108, channel=0, data=[64, 127]),
   midi.NoteOnEvent(tick=120, channel=0, data=[57, 0]),
   midi.NoteOnEvent(tick=0, channel=0, data=[45, 0]),
   midi.NoteOnEvent(tick=0, channel=0, data=[52, 0]),
   midi.ControlChangeEvent(tick=46, channel=0, data=[64, 0]),
   midi.NoteOnEvent(tick=194, channel=0, data=[72, 39]),
   midi.ControlChangeEvent(tick=91, channel=0, data=[64, 127]),
   midi.NoteOnEvent(tick=389, channel=0, data=[72, 0]),
   midi.NoteOnEvent(tick=0, channel=0, data=[71, 41]),
   midi.ControlChangeEvent(tick=10, channel=0, data=[64, 0]),
   midi.ControlChangeEvent(tick=173, channel=0, data=[64, 127]),
   midi.NoteOnEvent(tick=297, channel=0, data=[64, 41]),
   midi.NoteOnEvent(tick=480, channel=0, data=[71, 0]),
   midi.NoteOnEvent(tick=0, channel=0, data=[57, 26]),
   midi.NoteOnEvent(tick=0, channel=0, data=[69, 29]),
   midi.ControlChangeEvent(tick=11, channel=0, data=[64, 0]),
   midi.ControlChangeEvent(tick=109, channel=0, data=[64, 127]),
   midi.NoteOnEvent(tick=120, channel=0, data=[69, 0]),
   midi.NoteOnEvent(tick=0, channel=0, data=[57, 0]),
   midi.NoteOnEvent(tick=0, channel=0, data=[64, 0]),
   midi.ControlChangeEvent(tick=46, channel=0, data=[64, 0]),
   midi.NoteOnEvent(tick=194, channel=0, data=[72, 39]),
   midi.ControlChangeEvent(tick=113, channel=0, data=[64, 127]),
   midi.NoteOnEvent(tick=367, channel=0, data=[72, 0]),
   midi.NoteOnEvent(tick=0, channel=0, data=[71, 49]),
   midi.ControlChangeEvent(tick=10, channel=0, data=[64, 0]),
   midi.ControlChangeEvent(tick=117, channel=0, data=[64, 127]),
   midi.NoteOnEvent(tick=113, channel=0, data=[57, 35]),
   midi.NoteOnEvent(tick=0, channel=0, data=[64, 35]),
   midi.NoteOnEvent(tick=240, channel=0, data=[64, 0]),
   midi.NoteOnEvent(tick=0, channel=0, data=[57, 0]),
   midi.NoteOnEvent(tick=0, channel=0, data=[71, 0]),
   midi.ControlChangeEvent(tick=0, channel=0, data=[64, 0]),
   midi.NoteOnEvent(tick=0, channel=0, data=[69, 39]),
   midi.ControlChangeEvent(tick=113, channel=0, data=[64, 127]),
   midi.NoteOnEvent(tick=367, channel=0, data=[69, 0]),
   midi.NoteOnEvent(tick=0, channel=0, data=[68, 49]),
   midi.ControlChangeEvent(tick=11, channel=0, data=[64, 0]),
   midi.ControlChangeEvent(tick=116, channel=0, data=[64, 127]),
   midi.NoteOnEvent(tick=113, channel=0, data=[57, 35]),
   midi.NoteOnEvent(tick=0, channel=0, data=[64, 35]),
   midi.NoteOnEvent(tick=240, channel=0, data=[64, 0]),
   midi.NoteOnEvent(tick=0, channel=0, data=[57, 0]),
   midi.NoteOnEvent(tick=0, channel=0, data=[68, 0]),
   midi.ControlChangeEvent(tick=0, channel=0, data=[64, 0]),
   midi.NoteOnEvent(tick=0, channel=0, data=[72, 39]),
   midi.ControlChangeEvent(tick=113, channel=0, data=[64, 127]),
   midi.NoteOnEvent(tick=367, channel=0, data=[72, 0]),
   midi.NoteOnEvent(tick=0, channel=0, data=[71, 49]),
   midi.ControlChangeEvent(tick=10, channel=0, data=[64, 0]),
   midi.ControlChangeEvent(tick=117, channel=0, data=[64, 127]),
   midi.NoteOnEvent(tick=113, channel=0, data=[57, 35]),
   midi.NoteOnEvent(tick=0, channel=0, data=[64, 35]),
   midi.NoteOnEvent(tick=240, channel=0, data=[64, 0]),
   midi.NoteOnEvent(tick=0, channel=0, data=[57, 0]),
   midi.NoteOnEvent(tick=0, channel=0, data=[71, 0]),
   midi.ControlChangeEvent(tick=0, channel=0, data=[64, 0]),
   midi.NoteOnEvent(tick=0, channel=0, data=[69, 39]),
   midi.ControlChangeEvent(tick=113, channel=0, data=[64, 127]),
   midi.NoteOnEvent(tick=367, channel=0, data=[69, 0]),
   midi.NoteOnEvent(tick=0, channel=0, data=[68, 49]),
   midi.ControlChangeEvent(tick=7, channel=0, data=[64, 0]),
   midi.ControlChangeEvent(tick=120, channel=0, data=[64, 127]),
   midi.NoteOnEvent(tick=113, channel=0, data=[57, 35]),
   midi.NoteOnEvent(tick=0, channel=0, data=[64, 35]),
   midi.NoteOnEvent(tick=240, channel=0, data=[64, 0]),
   midi.NoteOnEvent(tick=0, channel=0, data=[57, 0]),
   midi.NoteOnEvent(tick=0, channel=0, data=[68, 0]),
   midi.ControlChangeEvent(tick=0, channel=0, data=[64, 0]),
   midi.NoteOnEvent(tick=0, channel=0, data=[57, 39]),
   midi.ControlChangeEvent(tick=113, channel=0, data=[64, 127]),
   midi.NoteOnEvent(tick=127, channel=0, data=[57, 0]),
   midi.NoteOnEvent(tick=0, channel=0, data=[73, 49]),
   midi.NoteOnEvent(tick=120, channel=0, data=[73, 0]),
   midi.NoteOnEvent(tick=120, channel=0, data=[74, 52]),
   midi.ControlChangeEvent(tick=9, channel=0, data=[64, 0]),
   midi.NoteOnEvent(tick=111, channel=0, data=[74, 0]),
   midi.ControlChangeEvent(tick=7, channel=0, data=[64, 127]),
   midi.NoteOnEvent(tick=113, channel=0, data=[64, 35]),
   midi.NoteOnEvent(tick=120, channel=0, data=[64, 0]),
   midi.NoteOnEvent(tick=120, channel=0, data=[57, 39]),
   midi.ControlChangeEvent(tick=11, channel=0, data=[64, 0]),
   midi.ControlChangeEvent(tick=102, channel=0, data=[64, 127]),
   midi.NoteOnEvent(tick=7, channel=0, data=[57, 0]),
   midi.NoteOnEvent(tick=120, channel=0, data=[68, 49]),
   midi.NoteOnEvent(tick=120, channel=0, data=[68, 0]),
   midi.NoteOnEvent(tick=120, channel=0, data=[69, 52]),
   midi.ControlChangeEvent(tick=10, channel=0, data=[64, 0]),
   midi.NoteOnEvent(tick=110, channel=0, data=[69, 0]),
   midi.ControlChangeEvent(tick=7, channel=0, data=[64, 127]),
   midi.NoteOnEvent(tick=113, channel=0, data=[64, 35]),
   midi.NoteOnEvent(tick=120, channel=0, data=[64, 0]),
   midi.NoteOnEvent(tick=120, channel=0, data=[57, 39]),
   midi.ControlChangeEvent(tick=6, channel=0, data=[64, 0]),
   midi.ControlChangeEvent(tick=107, channel=0, data=[64, 127]),
   midi.NoteOnEvent(tick=7, channel=0, data=[57, 0]),
   midi.NoteOnEvent(tick=120, channel=0, data=[61, 49]),
   midi.NoteOnEvent(tick=120, channel=0, data=[61, 0]),
   midi.NoteOnEvent(tick=120, channel=0, data=[62, 52]),
   midi.ControlChangeEvent(tick=10, channel=0, data=[64, 0]),
   midi.NoteOnEvent(tick=110, channel=0, data=[62, 0]),
   midi.ControlChangeEvent(tick=7, channel=0, data=[64, 127]),
   midi.NoteOnEvent(tick=113, channel=0, data=[52, 35]),
   midi.NoteOnEvent(tick=120, channel=0, data=[52, 0]),
   midi.NoteOnEvent(tick=120, channel=0, data=[45, 39]),
   midi.ControlChangeEvent(tick=9, channel=0, data=[64, 0]),
   midi.ControlChangeEvent(tick=104, channel=0, data=[64, 127]),
   midi.NoteOnEvent(tick=7, channel=0, data=[45, 0]),
   midi.NoteOnEvent(tick=120, channel=0, data=[56, 49]),
   midi.NoteOnEvent(tick=120, channel=0, data=[56, 0]),
   midi.NoteOnEvent(tick=120, channel=0, data=[57, 52]),
   midi.ControlChangeEvent(tick=8, channel=0, data=[64, 0]),
   midi.NoteOnEvent(tick=112, channel=0, data=[57, 0]),
   midi.ControlChangeEvent(tick=7, channel=0, data=[64, 127]),
   midi.NoteOnEvent(tick=113, channel=0, data=[61, 35]),
   midi.NoteOnEvent(tick=120, channel=0, data=[61, 0]),
   midi.ControlChangeEvent(tick=123, channel=0, data=[64, 0]),
   midi.ControlChangeEvent(tick=60, channel=0, data=[64, 127]),
   midi.ControlChangeEvent(tick=427, channel=0, data=[64, 0]),
   midi.NoteOnEvent(tick=950, channel=0, data=[45, 63]),
   midi.NoteOnEvent(tick=120, channel=0, data=[45, 0]),
   midi.NoteOnEvent(tick=120, channel=0, data=[49, 58]),
   midi.NoteOnEvent(tick=120, channel=0, data=[49, 0]),
   midi.NoteOnEvent(tick=120, channel=0, data=[54, 64]),
   midi.NoteOnEvent(tick=0, channel=0, data=[57, 58]),
   midi.ControlChangeEvent(tick=51, channel=0, data=[64, 127]),
   midi.NoteOnEvent(tick=69, channel=0, data=[57, 0]),
   midi.NoteOnEvent(tick=0, channel=0, data=[61, 48]),
   midi.NoteOnEvent(tick=120, channel=0, data=[62, 55]),
   midi.NoteOnEvent(tick=20, channel=0, data=[61, 0]),
   midi.NoteOnEvent(tick=100, channel=0, data=[61, 50]),
   midi.NoteOnEvent(tick=20, channel=0, data=[62, 0]),
   midi.NoteOnEvent(tick=100, channel=0, data=[61, 0]),
   midi.NoteOnEvent(tick=0, channel=0, data=[54, 0]),
   midi.NoteOnEvent(tick=0, channel=0, data=[53, 59]),
   midi.ControlChangeEvent(tick=9, channel=0, data=[64, 0]),
   midi.NoteOnEvent(tick=111, channel=0, data=[53, 0]),
   midi.NoteOnEvent(tick=0, channel=0, data=[57, 48]),
   midi.NoteOnEvent(tick=120, channel=0, data=[52, 57]),
   midi.NoteOnEvent(tick=0, channel=0, data=[61, 56]),
   midi.NoteOnEvent(tick=20, channel=0, data=[57, 0]),
   midi.NoteOnEvent(tick=100, channel=0, data=[52, 0]),
   midi.NoteOnEvent(tick=0, channel=0, data=[57, 50]),
   midi.NoteOnEvent(tick=20, channel=0, data=[61, 0]),
   midi.NoteOnEvent(tick=100, channel=0, data=[57, 0]),
   midi.NoteOnEvent(tick=0, channel=0, data=[50, 59]),
   midi.NoteOnEvent(tick=120, channel=0, data=[50, 0]),
   midi.NoteOnEvent(tick=0, channel=0, data=[52, 48]),
   midi.NoteOnEvent(tick=120, channel=0, data=[57, 48]),
   midi.NoteOnEvent(tick=0, channel=0, data=[49, 56]),
   midi.NoteOnEvent(tick=20, channel=0, data=[52, 0]),
   midi.NoteOnEvent(tick=100, channel=0, data=[49, 0]),
   midi.NoteOnEvent(tick=0, channel=0, data=[52, 50]),
   midi.NoteOnEvent(tick=20, channel=0, data=[57, 0]),
   midi.NoteOnEvent(tick=100, channel=0, data=[52, 0]),
   midi.NoteOnEvent(tick=0, channel=0, data=[47, 59]),
   midi.NoteOnEvent(tick=120, channel=0, data=[47, 0]),
   midi.NoteOnEvent(tick=0, channel=0, data=[49, 48]),
   midi.NoteOnEvent(tick=120, channel=0, data=[45, 56]),
   midi.NoteOnEvent(tick=0, channel=0, data=[52, 55]),
   midi.NoteOnEvent(tick=20, channel=0, data=[49, 0]),
   midi.NoteOnEvent(tick=100, channel=0, data=[45, 0]),
   midi.NoteOnEvent(tick=0, channel=0, data=[49, 50]),
   midi.NoteOnEvent(tick=20, channel=0, data=[52, 0]),
   midi.NoteOnEvent(tick=100, channel=0, data=[49, 0]),
   midi.NoteOnEvent(tick=0, channel=0, data=[44, 59]),
   midi.NoteOnEvent(tick=120, channel=0, data=[44, 0]),
   midi.NoteOnEvent(tick=0, channel=0, data=[49, 48]),
   midi.NoteOnEvent(tick=120, channel=0, data=[52, 48]),
   midi.NoteOnEvent(tick=0, channel=0, data=[45, 56]),
   midi.NoteOnEvent(tick=20, channel=0, data=[49, 0]),
   midi.NoteOnEvent(tick=100, channel=0, data=[45, 0]),
   midi.NoteOnEvent(tick=0, channel=0, data=[49, 51]),
   midi.NoteOnEvent(tick=20, channel=0, data=[52, 0]),
   midi.NoteOnEvent(tick=100, channel=0, data=[49, 0]),
   midi.NoteOnEvent(tick=0, channel=0, data=[47, 61]),
   midi.NoteOnEvent(tick=120, channel=0, data=[47, 0]),
   midi.NoteOnEvent(tick=0, channel=0, data=[49, 49]),
   midi.NoteOnEvent(tick=120, channel=0, data=[45, 58]),
   midi.NoteOnEvent(tick=0, channel=0, data=[52, 57]),
   midi.NoteOnEvent(tick=20, channel=0, data=[49, 0]),
   midi.NoteOnEvent(tick=100, channel=0, data=[45, 0]),
   midi.NoteOnEvent(tick=0, channel=0, data=[49, 52]),
   midi.NoteOnEvent(tick=20, channel=0, data=[52, 0]),
   midi.NoteOnEvent(tick=100, channel=0, data=[49, 0]),
   midi.NoteOnEvent(tick=0, channel=0, data=[44, 63]),
   midi.NoteOnEvent(tick=120, channel=0, data=[44, 0]),
   midi.NoteOnEvent(tick=0, channel=0, data=[49, 51]),
   midi.NoteOnEvent(tick=120, channel=0, data=[52, 51]),
   midi.NoteOnEvent(tick=0, channel=0, data=[45, 60]),
   midi.NoteOnEvent(tick=20, channel=0, data=[49, 0]),
   midi.NoteOnEvent(tick=100, channel=0, data=[45, 0]),
   midi.NoteOnEvent(tick=0, channel=0, data=[49, 55]),
   midi.NoteOnEvent(tick=20, channel=0, data=[52, 0]),
   midi.NoteOnEvent(tick=100, channel=0, data=[49, 0]),
   midi.NoteOnEvent(tick=0, channel=0, data=[47, 66]),
   midi.NoteOnEvent(tick=120, channel=0, data=[47, 0]),
   midi.NoteOnEvent(tick=0, channel=0, data=[49, 53]),
   midi.NoteOnEvent(tick=120, channel=0, data=[45, 62]),
   midi.NoteOnEvent(tick=0, channel=0, data=[52, 61]),
   midi.NoteOnEvent(tick=20, channel=0, data=[49, 0]),
   midi.NoteOnEvent(tick=100, channel=0, data=[45, 0]),
   midi.NoteOnEvent(tick=0, channel=0, data=[49, 57]),
   midi.NoteOnEvent(tick=20, channel=0, data=[52, 0]),
   midi.NoteOnEvent(tick=100, channel=0, data=[49, 0]),
   midi.NoteOnEvent(tick=0, channel=0, data=[44, 68]),
   midi.NoteOnEvent(tick=120, channel=0, data=[45, 57]),
   midi.NoteOnEvent(tick=20, channel=0, data=[44, 0]),
   midi.NoteOnEvent(tick=100, channel=0, data=[48, 63]),
   midi.NoteOnEvent(tick=20, channel=0, data=[45, 0]),
   midi.NoteOnEvent(tick=100, channel=0, data=[49, 57]),
   midi.NoteOnEvent(tick=20, channel=0, data=[48, 0]),
   midi.NoteOnEvent(tick=100, channel=0, data=[49, 0]),
   midi.NoteOnEvent(tick=480, channel=0, data=[56, 71]),
   midi.NoteOnEvent(tick=120, channel=0, data=[57, 61]),
   midi.NoteOnEvent(tick=20, channel=0, data=[56, 0]),
   midi.NoteOnEvent(tick=100, channel=0, data=[60, 66]),
   midi.NoteOnEvent(tick=20, channel=0, data=[57, 0]),
   midi.NoteOnEvent(tick=100, channel=0, data=[61, 59]),
   midi.NoteOnEvent(tick=20, channel=0, data=[60, 0]),
   midi.NoteOnEvent(tick=100, channel=0, data=[61, 0]),
   midi.NoteOnEvent(tick=480, channel=0, data=[68, 74]),
   midi.NoteOnEvent(tick=120, channel=0, data=[69, 63]),
   midi.NoteOnEvent(tick=20, channel=0, data=[68, 0]),
   midi.NoteOnEvent(tick=100, channel=0, data=[72, 71]),
   midi.NoteOnEvent(tick=20, channel=0, data=[69, 0]),
   midi.NoteOnEvent(tick=100, channel=0, data=[73, 63]),
   midi.NoteOnEvent(tick=20, channel=0, data=[72, 0]),
   midi.NoteOnEvent(tick=100, channel=0, data=[73, 0]),
   midi.NoteOnEvent(tick=480, channel=0, data=[80, 78]),
   midi.NoteOnEvent(tick=120, channel=0, data=[81, 67]),
   midi.NoteOnEvent(tick=20, channel=0, data=[80, 0]),
   midi.NoteOnEvent(tick=100, channel=0, data=[84, 74]),
   midi.NoteOnEvent(tick=20, channel=0, data=[81, 0]),
   midi.NoteOnEvent(tick=100, channel=0, data=[85, 67]),
   midi.NoteOnEvent(tick=20, channel=0, data=[84, 0]),
   midi.NoteOnEvent(tick=100, channel=0, data=[85, 0]),
   midi.ControlChangeEvent(tick=480, channel=0, data=[64, 127]),
   midi.ControlChangeEvent(tick=0, channel=0, data=[91, 127]),
   midi.NoteOnEvent(tick=1, channel=0, data=[50, 64]),
   midi.NoteOnEvent(tick=0, channel=0, data=[54, 64]),
   midi.NoteOnEvent(tick=0, channel=0, data=[57, 74]),
   midi.NoteOnEvent(tick=239, channel=0, data=[57, 0]),
   midi.NoteOnEvent(tick=0, channel=0, data=[62, 60]),
   midi.NoteOnEvent(tick=240, channel=0, data=[62, 0]),
   midi.NoteOnEvent(tick=0, channel=0, data=[54, 0]),
   midi.NoteOnEvent(tick=0, channel=0, data=[50, 0]),
   midi.NoteOnEvent(tick=0, channel=0, data=[58, 71]),
   midi.NoteOnEvent(tick=0, channel=0, data=[55, 62]),
   midi.NoteOnEvent(tick=0, channel=0, data=[50, 62]),
   midi.ControlChangeEvent(tick=11, channel=0, data=[64, 0]),
   midi.ControlChangeEvent(tick=80, channel=0, data=[64, 127]),
   midi.NoteOnEvent(tick=149, channel=0, data=[58, 0]),
   midi.NoteOnEvent(tick=0, channel=0, data=[62, 53]),
   midi.NoteOnEvent(tick=240, channel=0, data=[62, 0]),
   midi.NoteOnEvent(tick=0, channel=0, data=[50, 0]),
   midi.NoteOnEvent(tick=0, channel=0, data=[55, 0]),
   midi.NoteOnEvent(tick=0, channel=0, data=[57, 74]),
   midi.NoteOnEvent(tick=0, channel=0, data=[54, 64]),
   midi.NoteOnEvent(tick=0, channel=0, data=[50, 64]),
   midi.ControlChangeEvent(tick=15, channel=0, data=[64, 0]),
   midi.ControlChangeEvent(tick=110, channel=0, data=[64, 127]),
   midi.NoteOnEvent(tick=115, channel=0, data=[57, 0]),
   midi.NoteOnEvent(tick=0, channel=0, data=[62, 59]),
   midi.NoteOnEvent(tick=240, channel=0, data=[62, 0]),
   midi.NoteOnEvent(tick=0, channel=0, data=[50, 0]),
   midi.NoteOnEvent(tick=0, channel=0, data=[54, 0]),
   midi.NoteOnEvent(tick=0, channel=0, data=[58, 71]),
   midi.NoteOnEvent(tick=0, channel=0, data=[55, 62]),
   midi.NoteOnEvent(tick=0, channel=0, data=[50, 62]),
   midi.ControlChangeEvent(tick=10, channel=0, data=[64, 0]),
   midi.ControlChangeEvent(tick=104, channel=0, data=[64, 127]),
   midi.NoteOnEvent(tick=126, channel=0, data=[58, 0]),
   midi.NoteOnEvent(tick=0, channel=0, data=[62, 55]),
   midi.NoteOnEvent(tick=240, channel=0, data=[62, 0]),
   midi.NoteOnEvent(tick=0, channel=0, data=[50, 0]),
   midi.NoteOnEvent(tick=0, channel=0, data=[55, 0]),
   midi.ControlChangeEvent(tick=0, channel=0, data=[64, 0]),
   midi.NoteOnEvent(tick=0, channel=0, data=[60, 63]),
   midi.NoteOnEvent(tick=0, channel=0, data=[62, 63]),
   midi.NoteOnEvent(tick=0, channel=0, data=[69, 70]),
   midi.NoteOnEvent(tick=0, channel=0, data=[66, 70]),
   midi.NoteOnEvent(tick=960, channel=0, data=[66, 0]),
   midi.NoteOnEvent(tick=0, channel=0, data=[60, 0]),
   midi.NoteOnEvent(tick=0, channel=0, data=[62, 0]),
   midi.NoteOnEvent(tick=0, channel=0, data=[69, 0]),
   midi.NoteOnEvent(tick=0, channel=0, data=[58, 70]),
   midi.NoteOnEvent(tick=60, channel=0, data=[58, 0]),
   midi.NoteOnEvent(tick=60, channel=0, data=[57, 61]),
   midi.NoteOnEvent(tick=60, channel=0, data=[57, 0]),
   midi.NoteOnEvent(tick=60, channel=0, data=[55, 67]),
   midi.NoteOnEvent(tick=60, channel=0, data=[55, 0]),
   midi.NoteOnEvent(tick=60, channel=0, data=[54, 61]),
   midi.NoteOnEvent(tick=60, channel=0, data=[54, 0]),
   midi.NoteOnEvent(tick=60, channel=0, data=[52, 72]),
   midi.ControlChangeEvent(tick=11, channel=0, data=[64, 127]),
   midi.NoteOnEvent(tick=229, channel=0, data=[52, 0]),
   midi.NoteOnEvent(tick=0, channel=0, data=[57, 66]),
   midi.ControlChangeEvent(tick=223, channel=0, data=[64, 0]),
   midi.NoteOnEvent(tick=17, channel=0, data=[57, 0]),
   midi.NoteOnEvent(tick=0, channel=0, data=[57, 74]),
   midi.NoteOnEvent(tick=0, channel=0, data=[54, 64]),
   midi.NoteOnEvent(tick=0, channel=0, data=[50, 64]),
   midi.ControlChangeEvent(tick=91, channel=0, data=[64, 127]),
   midi.NoteOnEvent(tick=149, channel=0, data=[57, 0]),
   midi.NoteOnEvent(tick=0, channel=0, data=[62, 60]),
   midi.NoteOnEvent(tick=240, channel=0, data=[62, 0]),
   midi.NoteOnEvent(tick=0, channel=0, data=[50, 0]),
   midi.NoteOnEvent(tick=0, channel=0, data=[54, 0]),
   midi.NoteOnEvent(tick=0, channel=0, data=[58, 71]),
   midi.NoteOnEvent(tick=0, channel=0, data=[55, 62]),
   midi.NoteOnEvent(tick=0, channel=0, data=[50, 62]),
   midi.ControlChangeEvent(tick=19, channel=0, data=[64, 0]),
   midi.ControlChangeEvent(tick=72, channel=0, data=[64, 127]),
   midi.NoteOnEvent(tick=149, channel=0, data=[58, 0]),
   midi.NoteOnEvent(tick=0, channel=0, data=[62, 56]),
   midi.NoteOnEvent(tick=240, channel=0, data=[62, 0]),
   midi.NoteOnEvent(tick=0, channel=0, data=[50, 0]),
   midi.NoteOnEvent(tick=0, channel=0, data=[55, 0]),
   midi.NoteOnEvent(tick=0, channel=0, data=[57, 74]),
   midi.NoteOnEvent(tick=0, channel=0, data=[54, 64]),
   midi.NoteOnEvent(tick=0, channel=0, data=[50, 64]),
   midi.ControlChangeEvent(tick=8, channel=0, data=[64, 0]),
   midi.ControlChangeEvent(tick=95, channel=0, data=[64, 127]),
   midi.NoteOnEvent(tick=137, channel=0, data=[57, 0]),
   midi.NoteOnEvent(tick=0, channel=0, data=[62, 60]),
   midi.NoteOnEvent(tick=240, channel=0, data=[62, 0]),
   midi.NoteOnEvent(tick=0, channel=0, data=[50, 0]),
   midi.NoteOnEvent(tick=0, channel=0, data=[54, 0]),
   midi.NoteOnEvent(tick=0, channel=0, data=[58, 71]),
   midi.NoteOnEvent(tick=0, channel=0, data=[55, 62]),
   midi.NoteOnEvent(tick=0, channel=0, data=[50, 62]),
   midi.ControlChangeEvent(tick=21, channel=0, data=[64, 0]),
   midi.ControlChangeEvent(tick=93, channel=0, data=[64, 127]),
   midi.NoteOnEvent(tick=126, channel=0, data=[58, 0]),
   midi.NoteOnEvent(tick=0, channel=0, data=[62, 55]),
   midi.NoteOnEvent(tick=240, channel=0, data=[62, 0]),
   midi.NoteOnEvent(tick=0, channel=0, data=[50, 0]),
   midi.NoteOnEvent(tick=0, channel=0, data=[55, 0]),
   midi.ControlChangeEvent(tick=0, channel=0, data=[64, 0]),
   midi.NoteOnEvent(tick=0, channel=0, data=[60, 63]),
   midi.NoteOnEvent(tick=0, channel=0, data=[62, 63]),
   midi.NoteOnEvent(tick=0, channel=0, data=[69, 70]),
   midi.NoteOnEvent(tick=0, channel=0, data=[66, 70]),
   midi.NoteOnEvent(tick=960, channel=0, data=[66, 0]),
   midi.NoteOnEvent(tick=0, channel=0, data=[60, 0]),
   midi.NoteOnEvent(tick=0, channel=0, data=[62, 0]),
   midi.NoteOnEvent(tick=0, channel=0, data=[69, 0]),
   midi.NoteOnEvent(tick=0, channel=0, data=[62, 60]),
   midi.NoteOnEvent(tick=0, channel=0, data=[58, 60]),
   midi.NoteOnEvent(tick=60, channel=0, data=[58, 0]),
   midi.NoteOnEvent(tick=0, channel=0, data=[62, 0]),
   midi.NoteOnEvent(tick=180, channel=0, data=[58, 66]),
   midi.NoteOnEvent(tick=60, channel=0, data=[58, 0]),
   midi.NoteOnEvent(tick=60, channel=0, data=[57, 68]),
   midi.NoteOnEvent(tick=60, channel=0, data=[57, 0]),
   midi.NoteOnEvent(tick=60, channel=0, data=[55, 71]),
   midi.NoteOnEvent(tick=240, channel=0, data=[55, 0]),
   midi.NoteOnEvent(tick=240, channel=0, data=[43, 41]),
   midi.NoteOnEvent(tick=0, channel=0, data=[51, 41]),
   midi.ControlChangeEvent(tick=13, channel=0, data=[64, 127]),
   midi.NoteOnEvent(tick=227, channel=0, data=[58, 37]),
   midi.NoteOnEvent(tick=240, channel=0, data=[58, 0]),
   midi.NoteOnEvent(tick=0, channel=0, data=[51, 0]),
   midi.NoteOnEvent(tick=0, channel=0, data=[43, 0]),
   midi.NoteOnEvent(tick=0, channel=0, data=[56, 43]),
   midi.ControlChangeEvent(tick=14, channel=0, data=[64, 0]),
   midi.ControlChangeEvent(tick=74, channel=0, data=[64, 127]),
   midi.NoteOnEvent(tick=152, channel=0, data=[44, 37]),
   midi.NoteOnEvent(tick=0, channel=0, data=[51, 37]),
   midi.ControlChangeEvent(tick=172, channel=0, data=[64, 0]),
   midi.NoteOnEvent(tick=68, channel=0, data=[51, 0]),
   midi.NoteOnEvent(tick=0, channel=0, data=[44, 0]),
   midi.NoteOnEvent(tick=0, channel=0, data=[56, 0]),
   midi.NoteOnEvent(tick=0, channel=0, data=[45, 44]),
   midi.NoteOnEvent(tick=0, channel=0, data=[53, 44]),
   midi.ControlChangeEvent(tick=55, channel=0, data=[64, 127]),
   midi.NoteOnEvent(tick=185, channel=0, data=[60, 40]),
   midi.NoteOnEvent(tick=240, channel=0, data=[60, 0]),
   midi.NoteOnEvent(tick=0, channel=0, data=[53, 0]),
   midi.NoteOnEvent(tick=0, channel=0, data=[45, 0]),
   midi.NoteOnEvent(tick=0, channel=0, data=[58, 48]),
   midi.ControlChangeEvent(tick=14, channel=0, data=[64, 0]),
   midi.ControlChangeEvent(tick=74, channel=0, data=[64, 127]),
   midi.NoteOnEvent(tick=152, channel=0, data=[46, 40]),
   midi.NoteOnEvent(tick=0, channel=0, data=[53, 40]),
   midi.ControlChangeEvent(tick=172, channel=0, data=[64, 0]),
   midi.NoteOnEvent(tick=68, channel=0, data=[53, 0]),
   midi.NoteOnEvent(tick=0, channel=0, data=[46, 0]),
   midi.NoteOnEvent(tick=0, channel=0, data=[58, 0]),
   midi.NoteOnEvent(tick=0, channel=0, data=[47, 45]),
   midi.NoteOnEvent(tick=0, channel=0, data=[55, 45]),
   midi.ControlChangeEvent(tick=88, channel=0, data=[64, 127]),
   midi.NoteOnEvent(tick=152, channel=0, data=[47, 0]),
   midi.NoteOnEvent(tick=0, channel=0, data=[59, 38]),
   midi.NoteOnEvent(tick=240, channel=0, data=[59, 0]),
   midi.NoteOnEvent(tick=0, channel=0, data=[55, 0]),
   midi.NoteOnEvent(tick=0, channel=0, data=[48, 47]),
   midi.NoteOnEvent(tick=0, channel=0, data=[55, 47]),
   midi.ControlChangeEvent(tick=6, channel=0, data=[64, 0]),
   midi.ControlChangeEvent(tick=82, channel=0, data=[64, 127]),
   midi.NoteOnEvent(tick=152, channel=0, data=[48, 0]),
   midi.NoteOnEvent(tick=0, channel=0, data=[60, 39]),
   midi.NoteOnEvent(tick=240, channel=0, data=[60, 0]),
   midi.NoteOnEvent(tick=0, channel=0, data=[55, 0]),
   midi.NoteOnEvent(tick=0, channel=0, data=[50, 49]),
   midi.NoteOnEvent(tick=0, channel=0, data=[55, 49]),
   midi.ControlChangeEvent(tick=9, channel=0, data=[64, 0]),
   midi.ControlChangeEvent(tick=128, channel=0, data=[64, 127]),
   midi.NoteOnEvent(tick=103, channel=0, data=[50, 0]),
   midi.NoteOnEvent(tick=0, channel=0, data=[62, 41]),
   midi.NoteOnEvent(tick=240, channel=0, data=[62, 0]),
   midi.NoteOnEvent(tick=0, channel=0, data=[55, 0]),
   midi.NoteOnEvent(tick=0, channel=0, data=[48, 47]),
   midi.NoteOnEvent(tick=0, channel=0, data=[55, 47]),
   midi.ControlChangeEvent(tick=8, channel=0, data=[64, 0]),
   midi.ControlChangeEvent(tick=129, channel=0, data=[64, 127]),
   midi.NoteOnEvent(tick=103, channel=0, data=[48, 0]),
   midi.NoteOnEvent(tick=0, channel=0, data=[60, 40]),
   midi.ControlChangeEvent(tick=172, channel=0, data=[64, 0]),
   midi.NoteOnEvent(tick=68, channel=0, data=[60, 0]),
   midi.NoteOnEvent(tick=0, channel=0, data=[55, 0]),
   midi.NoteOnEvent(tick=0, channel=0, data=[47, 46]),
   midi.NoteOnEvent(tick=0, channel=0, data=[55, 46]),
   midi.ControlChangeEvent(tick=62, channel=0, data=[64, 127]),
   midi.NoteOnEvent(tick=178, channel=0, data=[62, 42]),
   midi.NoteOnEvent(tick=240, channel=0, data=[62, 0]),
   midi.NoteOnEvent(tick=0, channel=0, data=[55, 0]),
   midi.NoteOnEvent(tick=0, channel=0, data=[47, 0]),
   midi.NoteOnEvent(tick=0, channel=0, data=[60, 51]),
   midi.ControlChangeEvent(tick=10, channel=0, data=[64, 0]),
   midi.ControlChangeEvent(tick=78, channel=0, data=[64, 127]),
   midi.NoteOnEvent(tick=152, channel=0, data=[48, 42]),
   midi.NoteOnEvent(tick=0, channel=0, data=[55, 42]),
   midi.ControlChangeEvent(tick=172, channel=0, data=[64, 0]),
   midi.NoteOnEvent(tick=68, channel=0, data=[55, 0]),
   midi.NoteOnEvent(tick=0, channel=0, data=[48, 0]),
   midi.NoteOnEvent(tick=0, channel=0, data=[60, 0]),
   midi.NoteOnEvent(tick=0, channel=0, data=[49, 52]),
   midi.NoteOnEvent(tick=0, channel=0, data=[57, 52]),
   midi.ControlChangeEvent(tick=55, channel=0, data=[64, 127]),
   midi.NoteOnEvent(tick=185, channel=0, data=[64, 46]),
   midi.NoteOnEvent(tick=240, channel=0, data=[64, 0]),
   midi.NoteOnEvent(tick=0, channel=0, data=[57, 0]),
   midi.NoteOnEvent(tick=0, channel=0, data=[49, 0]),
   midi.NoteOnEvent(tick=0, channel=0, data=[62, 54]),
   midi.ControlChangeEvent(tick=12, channel=0, data=[64, 0]),
   midi.ControlChangeEvent(tick=76, channel=0, data=[64, 127]),
   midi.NoteOnEvent(tick=152, channel=0, data=[50, 47]),
   midi.NoteOnEvent(tick=0, channel=0, data=[57, 47]),
   midi.ControlChangeEvent(tick=172, channel=0, data=[64, 0]),
   midi.NoteOnEvent(tick=68, channel=0, data=[57, 0]),
   midi.NoteOnEvent(tick=0, channel=0, data=[50, 0]),
   midi.NoteOnEvent(tick=0, channel=0, data=[62, 0]),
   midi.NoteOnEvent(tick=0, channel=0, data=[49, 54]),
   midi.NoteOnEvent(tick=0, channel=0, data=[57, 54]),
   midi.ControlChangeEvent(tick=88, channel=0, data=[64, 127]),
   midi.NoteOnEvent(tick=152, channel=0, data=[49, 0]),
   midi.NoteOnEvent(tick=0, channel=0, data=[61, 46]),
   midi.NoteOnEvent(tick=240, channel=0, data=[61, 0]),
   midi.NoteOnEvent(tick=0, channel=0, data=[57, 0]),
   midi.NoteOnEvent(tick=0, channel=0, data=[50, 56]),
   midi.NoteOnEvent(tick=0, channel=0, data=[57, 56]),
   midi.ControlChangeEvent(tick=10, channel=0, data=[64, 0]),
   midi.ControlChangeEvent(tick=78, channel=0, data=[64, 127]),
   midi.NoteOnEvent(tick=152, channel=0, data=[50, 0]),
   midi.NoteOnEvent(tick=0, channel=0, data=[62, 47]),
   midi.NoteOnEvent(tick=240, channel=0, data=[62, 0]),
   midi.NoteOnEvent(tick=0, channel=0, data=[57, 0]),
   midi.NoteOnEvent(tick=0, channel=0, data=[52, 57]),
   midi.NoteOnEvent(tick=0, channel=0, data=[57, 57]),
   midi.ControlChangeEvent(tick=9, channel=0, data=[64, 0]),
   midi.ControlChangeEvent(tick=79, channel=0, data=[64, 127]),
   midi.NoteOnEvent(tick=152, channel=0, data=[52, 0]),
   midi.NoteOnEvent(tick=0, channel=0, data=[64, 49]),
   midi.NoteOnEvent(tick=240, channel=0, data=[64, 0]),
   midi.NoteOnEvent(tick=0, channel=0, data=[57, 0]),
   midi.NoteOnEvent(tick=0, channel=0, data=[50, 56]),
   midi.NoteOnEvent(tick=0, channel=0, data=[57, 56]),
   midi.ControlChangeEvent(tick=5, channel=0, data=[64, 0]),
   midi.ControlChangeEvent(tick=83, channel=0, data=[64, 127]),
   midi.NoteOnEvent(tick=152, channel=0, data=[50, 0]),
   midi.NoteOnEvent(tick=0, channel=0, data=[62, 48]),
   midi.NoteOnEvent(tick=240, channel=0, data=[62, 0]),
   midi.NoteOnEvent(tick=0, channel=0, data=[57, 0]),
   midi.ControlChangeEvent(tick=0, channel=0, data=[64, 0]),
   midi.NoteOnEvent(tick=0, channel=0, data=[49, 58]),
   midi.NoteOnEvent(tick=0, channel=0, data=[57, 58]),
   midi.ControlChangeEvent(tick=88, channel=0, data=[64, 127]),
   midi.NoteOnEvent(tick=152, channel=0, data=[49, 0]),
   midi.NoteOnEvent(tick=0, channel=0, data=[61, 49]),
   midi.NoteOnEvent(tick=240, channel=0, data=[61, 0]),
   midi.NoteOnEvent(tick=0, channel=0, data=[57, 0]),
   midi.NoteOnEvent(tick=0, channel=0, data=[50, 61]),
   midi.NoteOnEvent(tick=0, channel=0, data=[57, 61]),
   midi.ControlChangeEvent(tick=8, channel=0, data=[64, 0]),
   midi.ControlChangeEvent(tick=80, channel=0, data=[64, 127]),
   midi.NoteOnEvent(tick=152, channel=0, data=[50, 0]),
   midi.NoteOnEvent(tick=0, channel=0, data=[62, 52]),
   midi.NoteOnEvent(tick=240, channel=0, data=[62, 0]),
   midi.NoteOnEvent(tick=0, channel=0, data=[57, 0]),
   midi.NoteOnEvent(tick=0, channel=0, data=[51, 63]),
   midi.NoteOnEvent(tick=0, channel=0, data=[59, 63]),
   midi.ControlChangeEvent(tick=10, channel=0, data=[64, 0]),
   midi.ControlChangeEvent(tick=78, channel=0, data=[64, 127]),
   midi.NoteOnEvent(tick=152, channel=0, data=[51, 0]),
   midi.NoteOnEvent(tick=0, channel=0, data=[63, 53]),
   midi.NoteOnEvent(tick=240, channel=0, data=[63, 0]),
   midi.NoteOnEvent(tick=0, channel=0, data=[59, 0]),
   midi.NoteOnEvent(tick=0, channel=0, data=[52, 60]),
   midi.NoteOnEvent(tick=0, channel=0, data=[59, 60]),
   midi.ControlChangeEvent(tick=4, channel=0, data=[64, 0]),
   midi.ControlChangeEvent(tick=84, channel=0, data=[64, 127]),
   midi.NoteOnEvent(tick=152, channel=0, data=[52, 0]),
   midi.NoteOnEvent(tick=0, channel=0, data=[64, 52]),
   midi.NoteOnEvent(tick=240, channel=0, data=[64, 0]),
   midi.NoteOnEvent(tick=0, channel=0, data=[59, 0]),
   midi.ControlChangeEvent(tick=0, channel=0, data=[64, 0]),
   midi.NoteOnEvent(tick=0, channel=0, data=[51, 64]),
   midi.NoteOnEvent(tick=0, channel=0, data=[59, 64]),
   midi.ControlChangeEvent(tick=88, channel=0, data=[64, 127]),
   midi.NoteOnEvent(tick=152, channel=0, data=[51, 0]),
   midi.NoteOnEvent(tick=0, channel=0, data=[63, 54]),
   midi.NoteOnEvent(tick=240, channel=0, data=[63, 0]),
   midi.NoteOnEvent(tick=0, channel=0, data=[59, 0]),
   midi.NoteOnEvent(tick=0, channel=0, data=[52, 66]),
   midi.NoteOnEvent(tick=0, channel=0, data=[59, 66]),
   midi.ControlChangeEvent(tick=7, channel=0, data=[64, 0]),
   midi.ControlChangeEvent(tick=81, channel=0, data=[64, 127]),
   midi.NoteOnEvent(tick=152, channel=0, data=[52, 0]),
   midi.NoteOnEvent(tick=0, channel=0, data=[64, 56]),
   midi.NoteOnEvent(tick=240, channel=0, data=[64, 0]),
   midi.NoteOnEvent(tick=0, channel=0, data=[59, 0]),
   midi.NoteOnEvent(tick=0, channel=0, data=[53, 67]),
   midi.NoteOnEvent(tick=0, channel=0, data=[61, 67]),
   midi.ControlChangeEvent(tick=9, channel=0, data=[64, 0]),
   midi.ControlChangeEvent(tick=79, channel=0, data=[64, 127]),
   midi.NoteOnEvent(tick=152, channel=0, data=[53, 0]),
   midi.NoteOnEvent(tick=0, channel=0, data=[65, 57]),
   midi.NoteOnEvent(tick=240, channel=0, data=[65, 0]),
   midi.NoteOnEvent(tick=0, channel=0, data=[61, 0]),
   midi.NoteOnEvent(tick=0, channel=0, data=[54, 65]),
   midi.NoteOnEvent(tick=0, channel=0, data=[61, 65]),
   midi.ControlChangeEvent(tick=9, channel=0, data=[64, 0]),
   midi.ControlChangeEvent(tick=117, channel=0, data=[64, 127]),
   midi.NoteOnEvent(tick=114, channel=0, data=[54, 0]),
   midi.NoteOnEvent(tick=0, channel=0, data=[66, 56]),
   midi.NoteOnEvent(tick=240, channel=0, data=[66, 0]),
   midi.NoteOnEvent(tick=0, channel=0, data=[61, 0]),
   midi.ControlChangeEvent(tick=0, channel=0, data=[64, 0]),
   midi.NoteOnEvent(tick=0, channel=0, data=[54, 72]),
   midi.NoteOnEvent(tick=0, channel=0, data=[62, 72]),
   midi.ControlChangeEvent(tick=155, channel=0, data=[64, 127]),
   midi.NoteOnEvent(tick=85, channel=0, data=[54, 0]),
   midi.NoteOnEvent(tick=0, channel=0, data=[66, 60]),
   midi.NoteOnEvent(tick=240, channel=0, data=[66, 0]),
   midi.NoteOnEvent(tick=0, channel=0, data=[62, 0]),
   midi.NoteOnEvent(tick=0, channel=0, data=[55, 70]),
   midi.NoteOnEvent(tick=0, channel=0, data=[62, 70]),
   midi.ControlChangeEvent(tick=14, channel=0, data=[64, 0]),
   midi.ControlChangeEvent(tick=74, channel=0, data=[64, 127]),
   midi.NoteOnEvent(tick=152, channel=0, data=[55, 0]),
   midi.NoteOnEvent(tick=0, channel=0, data=[67, 60]),
   midi.NoteOnEvent(tick=240, channel=0, data=[67, 0]),
   midi.NoteOnEvent(tick=0, channel=0, data=[62, 0]),
   midi.NoteOnEvent(tick=0, channel=0, data=[54, 73]),
   midi.NoteOnEvent(tick=0, channel=0, data=[62, 73]),
   midi.ControlChangeEvent(tick=7, channel=0, data=[64, 0]),
   midi.ControlChangeEvent(tick=120, channel=0, data=[64, 127]),
   midi.NoteOnEvent(tick=113, channel=0, data=[54, 0]),
   midi.NoteOnEvent(tick=0, channel=0, data=[66, 61]),
   midi.NoteOnEvent(tick=240, channel=0, data=[66, 0]),
   midi.NoteOnEvent(tick=0, channel=0, data=[62, 0]),
   midi.NoteOnEvent(tick=0, channel=0, data=[55, 71]),
   midi.NoteOnEvent(tick=0, channel=0, data=[62, 71]),
   midi.ControlChangeEvent(tick=12, channel=0, data=[64, 0]),
   midi.ControlChangeEvent(tick=129, channel=0, data=[64, 127]),
   midi.NoteOnEvent(tick=99, channel=0, data=[55, 0]),
   midi.NoteOnEvent(tick=0, channel=0, data=[67, 60]),
   midi.NoteOnEvent(tick=240, channel=0, data=[67, 0]),
   midi.NoteOnEvent(tick=0, channel=0, data=[62, 0]),
   midi.ControlChangeEvent(tick=0, channel=0, data=[64, 0]),
   midi.NoteOnEvent(tick=0, channel=0, data=[67, 69]),
   midi.NoteOnEvent(tick=0, channel=0, data=[70, 69]),
   midi.NoteOnEvent(tick=0, channel=0, data=[74, 77]),
   midi.NoteOnEvent(tick=120, channel=0, data=[74, 0]),
   midi.NoteOnEvent(tick=0, channel=0, data=[70, 0]),
   midi.NoteOnEvent(tick=0, channel=0, data=[67, 0]),
   midi.NoteOnEvent(tick=360, channel=0, data=[76, 80]),
   midi.NoteOnEvent(tick=60, channel=0, data=[76, 0]),
   midi.NoteOnEvent(tick=60, channel=0, data=[74, 71]),
   midi.NoteOnEvent(tick=60, channel=0, data=[74, 0]),
   midi.NoteOnEvent(tick=60, channel=0, data=[70, 74]),
   midi.NoteOnEvent(tick=60, channel=0, data=[70, 0]),
   midi.NoteOnEvent(tick=60, channel=0, data=[69, 71]),
   midi.NoteOnEvent(tick=60, channel=0, data=[69, 0]),
   midi.NoteOnEvent(tick=60, channel=0, data=[67, 82]),
   midi.NoteOnEvent(tick=120, channel=0, data=[67, 0]),
   midi.NoteOnEvent(tick=360, channel=0, data=[64, 71]),
   midi.NoteOnEvent(tick=60, channel=0, data=[64, 0]),
   midi.NoteOnEvent(tick=60, channel=0, data=[62, 60]),
   midi.NoteOnEvent(tick=60, channel=0, data=[62, 0]),
   midi.NoteOnEvent(tick=60, channel=0, data=[58, 67]),
   midi.NoteOnEvent(tick=60, channel=0, data=[58, 0]),
   midi.NoteOnEvent(tick=60, channel=0, data=[57, 61]),
   midi.NoteOnEvent(tick=60, channel=0, data=[57, 0]),
   midi.NoteOnEvent(tick=60, channel=0, data=[55, 74]),
   midi.NoteOnEvent(tick=120, channel=0, data=[55, 0]),
   midi.NoteOnEvent(tick=360, channel=0, data=[52, 71]),
   midi.NoteOnEvent(tick=60, channel=0, data=[52, 0]),
   midi.NoteOnEvent(tick=60, channel=0, data=[50, 62]),
   midi.NoteOnEvent(tick=60, channel=0, data=[50, 0]),
   midi.NoteOnEvent(tick=60, channel=0, data=[46, 67]),
   midi.NoteOnEvent(tick=60, channel=0, data=[46, 0]),
   midi.NoteOnEvent(tick=60, channel=0, data=[45, 61]),
   midi.NoteOnEvent(tick=60, channel=0, data=[45, 0]),
   midi.NoteOnEvent(tick=60, channel=0, data=[43, 71]),
   midi.NoteOnEvent(tick=120, channel=0, data=[43, 0]),
   midi.NoteOnEvent(tick=360, channel=0, data=[40, 69]),
   midi.NoteOnEvent(tick=60, channel=0, data=[40, 0]),
   midi.NoteOnEvent(tick=60, channel=0, data=[38, 59]),
   midi.NoteOnEvent(tick=60, channel=0, data=[38, 0]),
   midi.NoteOnEvent(tick=60, channel=0, data=[34, 64]),
   midi.NoteOnEvent(tick=60, channel=0, data=[34, 0]),
   midi.NoteOnEvent(tick=60, channel=0, data=[33, 55]),
   midi.NoteOnEvent(tick=60, channel=0, data=[33, 0]),
   midi.NoteOnEvent(tick=60, channel=0, data=[31, 63]),
   midi.NoteOnEvent(tick=120, channel=0, data=[31, 0]),
   midi.NoteOnEvent(tick=120, channel=0, data=[31, 62]),
   midi.NoteOnEvent(tick=120, channel=0, data=[31, 0]),
   midi.NoteOnEvent(tick=120, channel=0, data=[31, 63]),
   midi.NoteOnEvent(tick=120, channel=0, data=[31, 0]),
   midi.NoteOnEvent(tick=0, channel=0, data=[33, 56]),
   midi.NoteOnEvent(tick=120, channel=0, data=[33, 0]),
   midi.NoteOnEvent(tick=0, channel=0, data=[34, 59]),
   midi.NoteOnEvent(tick=120, channel=0, data=[34, 0]),
   midi.NoteOnEvent(tick=0, channel=0, data=[31, 53]),
   midi.NoteOnEvent(tick=120, channel=0, data=[31, 0]),
   midi.NoteOnEvent(tick=0, channel=0, data=[33, 61]),
   midi.NoteOnEvent(tick=120, channel=0, data=[33, 0]),
   midi.NoteOnEvent(tick=120, channel=0, data=[33, 59]),
   midi.NoteOnEvent(tick=120, channel=0, data=[33, 0]),
   midi.NoteOnEvent(tick=120, channel=0, data=[34, 63]),
   midi.NoteOnEvent(tick=240, channel=0, data=[34, 0]),
   midi.NoteOnEvent(tick=0, channel=0, data=[31, 58]),
   midi.NoteOnEvent(tick=240, channel=0, data=[31, 0]),
   midi.ControlChangeEvent(tick=0, channel=0, data=[64, 127]),
   midi.NoteOnEvent(tick=480, channel=0, data=[31, 56]),
   midi.NoteOnEvent(tick=0, channel=0, data=[43, 56]),
   midi.NoteOnEvent(tick=480, channel=0, data=[43, 0]),
   midi.NoteOnEvent(tick=0, channel=0, data=[31, 0]),
   midi.NoteOnEvent(tick=0, channel=0, data=[33, 59]),
   midi.NoteOnEvent(tick=0, channel=0, data=[45, 59]),
   midi.ControlChangeEvent(tick=6, channel=0, data=[64, 0]),
   midi.ControlChangeEvent(tick=177, channel=0, data=[64, 127]),
   midi.NoteOnEvent(tick=297, channel=0, data=[45, 0]),
   midi.NoteOnEvent(tick=0, channel=0, data=[33, 0]),
   midi.NoteOnEvent(tick=0, channel=0, data=[34, 55]),
   midi.NoteOnEvent(tick=0, channel=0, data=[46, 55]),
   midi.ControlChangeEvent(tick=20, channel=0, data=[64, 0]),
   midi.ControlChangeEvent(tick=208, channel=0, data=[64, 127]),
   midi.NoteOnEvent(tick=252, channel=0, data=[46, 0]),
   midi.NoteOnEvent(tick=0, channel=0, data=[34, 0]),
   midi.ControlChangeEvent(tick=0, channel=0, data=[64, 0]),
   midi.NoteOnEvent(tick=0, channel=0, data=[43, 49]),
   midi.NoteOnEvent(tick=120, channel=0, data=[43, 0]),
   midi.NoteOnEvent(tick=120, channel=0, data=[43, 44]),
   midi.NoteOnEvent(tick=120, channel=0, data=[43, 0]),
   midi.NoteOnEvent(tick=120, channel=0, data=[43, 49]),
   midi.NoteOnEvent(tick=120, channel=0, data=[43, 0]),
   midi.NoteOnEvent(tick=0, channel=0, data=[45, 42]),
   midi.NoteOnEvent(tick=120, channel=0, data=[45, 0]),
   midi.NoteOnEvent(tick=0, channel=0, data=[46, 49]),
   midi.NoteOnEvent(tick=120, channel=0, data=[46, 0]),
   midi.NoteOnEvent(tick=0, channel=0, data=[43, 41]),
   midi.NoteOnEvent(tick=120, channel=0, data=[43, 0]),
   midi.NoteOnEvent(tick=0, channel=0, data=[45, 49]),
   midi.NoteOnEvent(tick=120, channel=0, data=[45, 0]),
   midi.NoteOnEvent(tick=120, channel=0, data=[45, 42]),
   midi.NoteOnEvent(tick=120, channel=0, data=[45, 0]),
   midi.NoteOnEvent(tick=120, channel=0, data=[46, 49]),
   midi.NoteOnEvent(tick=240, channel=0, data=[46, 0]),
   midi.NoteOnEvent(tick=0, channel=0, data=[43, 45]),
   midi.NoteOnEvent(tick=240, channel=0, data=[43, 0]),
   midi.ControlChangeEvent(tick=160, channel=0, data=[64, 127]),
   midi.NoteOnEvent(tick=320, channel=0, data=[43, 42]),
   midi.NoteOnEvent(tick=0, channel=0, data=[55, 42]),
   midi.NoteOnEvent(tick=480, channel=0, data=[55, 0]),
   midi.NoteOnEvent(tick=0, channel=0, data=[43, 0]),
   midi.NoteOnEvent(tick=0, channel=0, data=[45, 48]),
   midi.NoteOnEvent(tick=0, channel=0, data=[57, 48]),
   midi.ControlChangeEvent(tick=12, channel=0, data=[64, 0]),
   midi.ControlChangeEvent(tick=193, channel=0, data=[64, 127]),
   midi.NoteOnEvent(tick=275, channel=0, data=[57, 0]),
   midi.NoteOnEvent(tick=0, channel=0, data=[45, 0]),
   midi.NoteOnEvent(tick=0, channel=0, data=[46, 44]),
   midi.NoteOnEvent(tick=0, channel=0, data=[58, 44]),
   midi.ControlChangeEvent(tick=14, channel=0, data=[64, 0]),
   midi.ControlChangeEvent(tick=146, channel=0, data=[64, 127]),
   midi.NoteOnEvent(tick=320, channel=0, data=[58, 0]),
   midi.NoteOnEvent(tick=0, channel=0, data=[46, 0]),
   midi.ControlChangeEvent(tick=0, channel=0, data=[64, 0]),
   midi.ControlChangeEvent(tick=320, channel=0, data=[64, 127]),
   midi.NoteOnEvent(tick=160, channel=0, data=[55, 35]),
   midi.NoteOnEvent(tick=0, channel=0, data=[67, 35]),
   midi.NoteOnEvent(tick=480, channel=0, data=[67, 0]),
   midi.NoteOnEvent(tick=0, channel=0, data=[55, 0]),
   midi.NoteOnEvent(tick=0, channel=0, data=[57, 39]),
   midi.NoteOnEvent(tick=0, channel=0, data=[69, 39]),
   midi.ControlChangeEvent(tick=9, channel=0, data=[64, 0]),
   midi.ControlChangeEvent(tick=288, channel=0, data=[64, 127]),
   midi.NoteOnEvent(tick=183, channel=0, data=[69, 0]),
   midi.NoteOnEvent(tick=0, channel=0, data=[57, 0]),
   midi.NoteOnEvent(tick=0, channel=0, data=[58, 36]),
   midi.NoteOnEvent(tick=0, channel=0, data=[70, 36]),
   midi.NoteOnEvent(tick=480, channel=0, data=[70, 0]),
   midi.NoteOnEvent(tick=0, channel=0, data=[58, 0]),
   midi.ControlChangeEvent(tick=0, channel=0, data=[64, 0]),
   midi.NoteOnEvent(tick=960, channel=0, data=[43, 85]),
   midi.NoteOnEvent(tick=120, channel=0, data=[43, 0]),
   midi.NoteOnEvent(tick=120, channel=0, data=[43, 77]),
   midi.NoteOnEvent(tick=120, channel=0, data=[43, 0]),
   midi.NoteOnEvent(tick=120, channel=0, data=[43, 84]),
   midi.NoteOnEvent(tick=120, channel=0, data=[45, 72]),
   midi.NoteOnEvent(tick=20, channel=0, data=[43, 0]),
   midi.NoteOnEvent(tick=100, channel=0, data=[46, 79]),
   midi.NoteOnEvent(tick=20, channel=0, data=[45, 0]),
   midi.NoteOnEvent(tick=100, channel=0, data=[43, 72]),
   midi.NoteOnEvent(tick=20, channel=0, data=[46, 0]),
   midi.NoteOnEvent(tick=100, channel=0, data=[43, 0]),
   midi.NoteOnEvent(tick=0, channel=0, data=[44, 86]),
   midi.NoteOnEvent(tick=120, channel=0, data=[44, 0]),
   midi.NoteOnEvent(tick=120, channel=0, data=[45, 82]),
   midi.NoteOnEvent(tick=120, channel=0, data=[45, 0]),
   midi.NoteOnEvent(tick=120, channel=0, data=[50, 91]),
   midi.NoteOnEvent(tick=0, channel=0, data=[45, 81]),
   midi.NoteOnEvent(tick=0, channel=0, data=[38, 81]),
   midi.NoteOnEvent(tick=240, channel=0, data=[38, 0]),
   midi.NoteOnEvent(tick=0, channel=0, data=[45, 0]),
   midi.NoteOnEvent(tick=0, channel=0, data=[50, 0]),
   midi.EndOfTrackEvent(tick=0, data=[])])])
midi.write_midifile("creationMidi.mid", pattern)