import midi
pattern=midi.Pattern(format=1, resolution=480, tracks=\
[midi.Track(\
[   midi.NoteOnEvent(tick=3840, channel=0, data=[62, 77]),
   midi.NoteOnEvent(tick=720, channel=0, data=[62, 0]),
   midi.NoteOnEvent(tick=240, channel=0, data=[71, 77]),
   midi.NoteOnEvent(tick=0, channel=0, data=[67, 69]),
   midi.NoteOnEvent(tick=720, channel=0, data=[67, 0]),
   midi.NoteOnEvent(tick=0, channel=0, data=[71, 0]),
   midi.NoteOnEvent(tick=120, channel=0, data=[72, 66]),
   midi.NoteOnEvent(tick=0, channel=0, data=[76, 74]),
   midi.NoteOnEvent(tick=120, channel=0, data=[76, 0]),
   midi.NoteOnEvent(tick=0, channel=0, data=[72, 0]),
   midi.NoteOnEvent(tick=0, channel=0, data=[71, 73]),
   midi.NoteOnEvent(tick=0, channel=0, data=[74, 82]),
   midi.NoteOnEvent(tick=1440, channel=0, data=[74, 0]),
   midi.NoteOnEvent(tick=0, channel=0, data=[71, 0]),
   midi.NoteOnEvent(tick=360, channel=0, data=[76, 78]),
   midi.NoteOnEvent(tick=0, channel=0, data=[84, 92]),
   midi.NoteOnEvent(tick=120, channel=0, data=[84, 0]),
   midi.NoteOnEvent(tick=0, channel=0, data=[76, 0]),
   midi.NoteOnEvent(tick=0, channel=0, data=[74, 74]),
   midi.NoteOnEvent(tick=0, channel=0, data=[83, 89]),
   midi.NoteOnEvent(tick=1920, channel=0, data=[83, 0]),
   midi.NoteOnEvent(tick=0, channel=0, data=[74, 0]),
   midi.NoteOnEvent(tick=0, channel=0, data=[79, 74]),
   midi.NoteOnEvent(tick=0, channel=0, data=[71, 62]),
   midi.NoteOnEvent(tick=960, channel=0, data=[71, 0]),
   midi.NoteOnEvent(tick=0, channel=0, data=[79, 0]),
   midi.NoteOnEvent(tick=960, channel=0, data=[67, 53]),
   midi.NoteOnEvent(tick=0, channel=0, data=[69, 53]),
   midi.NoteOnEvent(tick=0, channel=0, data=[73, 61]),
   midi.NoteOnEvent(tick=0, channel=0, data=[78, 77]),
   midi.NoteOnEvent(tick=1800, channel=0, data=[78, 0]),
   midi.NoteOnEvent(tick=0, channel=0, data=[76, 67]),
   midi.NoteOnEvent(tick=60, channel=0, data=[76, 0]),
   midi.NoteOnEvent(tick=0, channel=0, data=[66, 55]),
   midi.NoteOnEvent(tick=30, channel=0, data=[74, 60]),
   midi.NoteOnEvent(tick=30, channel=0, data=[73, 0]),
   midi.NoteOnEvent(tick=0, channel=0, data=[67, 0]),
   midi.NoteOnEvent(tick=0, channel=0, data=[69, 0]),
   midi.NoteOnEvent(tick=0, channel=0, data=[81, 69]),
   midi.NoteOnEvent(tick=480, channel=0, data=[66, 0]),
   midi.NoteOnEvent(tick=0, channel=0, data=[74, 0]),
   midi.NoteOnEvent(tick=480, channel=0, data=[81, 0]),
   midi.NoteOnEvent(tick=960, channel=0, data=[69, 55]),
   midi.NoteOnEvent(tick=0, channel=0, data=[73, 55]),
   midi.NoteOnEvent(tick=0, channel=0, data=[67, 55]),
   midi.NoteOnEvent(tick=0, channel=0, data=[78, 69]),
   midi.NoteOnEvent(tick=1800, channel=0, data=[78, 0]),
   midi.NoteOnEvent(tick=0, channel=0, data=[76, 60]),
   midi.NoteOnEvent(tick=60, channel=0, data=[76, 0]),
   midi.NoteOnEvent(tick=0, channel=0, data=[66, 49]),
   midi.NoteOnEvent(tick=30, channel=0, data=[72, 56]),
   midi.NoteOnEvent(tick=30, channel=0, data=[67, 0]),
   midi.NoteOnEvent(tick=0, channel=0, data=[69, 0]),
   midi.NoteOnEvent(tick=0, channel=0, data=[73, 0]),
   midi.NoteOnEvent(tick=0, channel=0, data=[81, 72]),
   midi.NoteOnEvent(tick=480, channel=0, data=[66, 0]),
   midi.NoteOnEvent(tick=0, channel=0, data=[72, 0]),
   midi.NoteOnEvent(tick=480, channel=0, data=[81, 0]),
   midi.NoteOnEvent(tick=1800, channel=0, data=[81, 55]),
   midi.NoteOnEvent(tick=0, channel=0, data=[84, 66]),
   midi.NoteOnEvent(tick=120, channel=0, data=[84, 0]),
   midi.NoteOnEvent(tick=0, channel=0, data=[81, 0]),
   midi.NoteOnEvent(tick=0, channel=0, data=[76, 70]),
   midi.NoteOnEvent(tick=0, channel=0, data=[72, 58]),
   midi.NoteOnEvent(tick=720, channel=0, data=[72, 0]),
   midi.NoteOnEvent(tick=0, channel=0, data=[76, 0]),
   midi.NoteOnEvent(tick=120, channel=0, data=[72, 55]),
   midi.NoteOnEvent(tick=0, channel=0, data=[74, 66]),
   midi.NoteOnEvent(tick=120, channel=0, data=[74, 0]),
   midi.NoteOnEvent(tick=0, channel=0, data=[72, 0]),
   midi.NoteOnEvent(tick=0, channel=0, data=[62, 77]),
   midi.NoteOnEvent(tick=720, channel=0, data=[62, 0]),
   midi.NoteOnEvent(tick=240, channel=0, data=[71, 77]),
   midi.NoteOnEvent(tick=0, channel=0, data=[67, 69]),
   midi.NoteOnEvent(tick=720, channel=0, data=[67, 0]),
   midi.NoteOnEvent(tick=0, channel=0, data=[71, 0]),
   midi.NoteOnEvent(tick=120, channel=0, data=[72, 66]),
   midi.NoteOnEvent(tick=0, channel=0, data=[76, 74]),
   midi.NoteOnEvent(tick=120, channel=0, data=[76, 0]),
   midi.NoteOnEvent(tick=0, channel=0, data=[72, 0]),
   midi.NoteOnEvent(tick=0, channel=0, data=[71, 73]),
   midi.NoteOnEvent(tick=0, channel=0, data=[74, 82]),
   midi.NoteOnEvent(tick=1440, channel=0, data=[74, 0]),
   midi.NoteOnEvent(tick=0, channel=0, data=[71, 0]),
   midi.NoteOnEvent(tick=360, channel=0, data=[76, 81]),
   midi.NoteOnEvent(tick=0, channel=0, data=[84, 96]),
   midi.NoteOnEvent(tick=120, channel=0, data=[84, 0]),
   midi.NoteOnEvent(tick=0, channel=0, data=[76, 0]),
   midi.NoteOnEvent(tick=0, channel=0, data=[74, 74]),
   midi.NoteOnEvent(tick=0, channel=0, data=[83, 89]),
   midi.NoteOnEvent(tick=1920, channel=0, data=[83, 0]),
   midi.NoteOnEvent(tick=0, channel=0, data=[74, 0]),
   midi.NoteOnEvent(tick=0, channel=0, data=[79, 74]),
   midi.NoteOnEvent(tick=0, channel=0, data=[71, 62]),
   midi.NoteOnEvent(tick=960, channel=0, data=[71, 0]),
   midi.NoteOnEvent(tick=0, channel=0, data=[79, 0]),
   midi.NoteOnEvent(tick=960, channel=0, data=[71, 61]),
   midi.NoteOnEvent(tick=0, channel=0, data=[77, 75]),
   midi.NoteOnEvent(tick=960, channel=0, data=[77, 0]),
   midi.NoteOnEvent(tick=0, channel=0, data=[77, 70]),
   midi.NoteOnEvent(tick=840, channel=0, data=[77, 0]),
   midi.NoteOnEvent(tick=0, channel=0, data=[77, 75]),
   midi.NoteOnEvent(tick=120, channel=0, data=[77, 0]),
   midi.NoteOnEvent(tick=0, channel=0, data=[71, 0]),
   midi.NoteOnEvent(tick=0, channel=0, data=[77, 75]),
   midi.NoteOnEvent(tick=0, channel=0, data=[71, 61]),
   midi.NoteOnEvent(tick=720, channel=0, data=[77, 0]),
   midi.NoteOnEvent(tick=0, channel=0, data=[77, 64]),
   midi.NoteOnEvent(tick=60, channel=0, data=[77, 0]),
   midi.NoteOnEvent(tick=0, channel=0, data=[79, 59]),
   midi.NoteOnEvent(tick=60, channel=0, data=[79, 0]),
   midi.NoteOnEvent(tick=0, channel=0, data=[77, 62]),
   midi.NoteOnEvent(tick=120, channel=0, data=[77, 0]),
   midi.NoteOnEvent(tick=0, channel=0, data=[76, 68]),
   midi.NoteOnEvent(tick=840, channel=0, data=[76, 0]),
   midi.NoteOnEvent(tick=0, channel=0, data=[75, 72]),
   midi.NoteOnEvent(tick=60, channel=0, data=[75, 0]),
   midi.NoteOnEvent(tick=0, channel=0, data=[64, 46]),
   midi.NoteOnEvent(tick=20, channel=0, data=[67, 50]),
   midi.NoteOnEvent(tick=20, channel=0, data=[72, 51]),
   midi.NoteOnEvent(tick=20, channel=0, data=[71, 0]),
   midi.NoteOnEvent(tick=0, channel=0, data=[76, 66]),
   midi.NoteOnEvent(tick=3840, channel=0, data=[76, 0]),
   midi.NoteOnEvent(tick=0, channel=0, data=[72, 0]),
   midi.NoteOnEvent(tick=0, channel=0, data=[67, 0]),
   midi.NoteOnEvent(tick=0, channel=0, data=[64, 0]),
   midi.NoteOnEvent(tick=0, channel=0, data=[64, 58]),
   midi.NoteOnEvent(tick=0, channel=0, data=[67, 60]),
   midi.NoteOnEvent(tick=0, channel=0, data=[72, 75]),
   midi.NoteOnEvent(tick=960, channel=0, data=[72, 0]),
   midi.NoteOnEvent(tick=0, channel=0, data=[72, 75]),
   midi.NoteOnEvent(tick=840, channel=0, data=[72, 0]),
   midi.NoteOnEvent(tick=0, channel=0, data=[72, 81]),
   midi.NoteOnEvent(tick=120, channel=0, data=[72, 0]),
   midi.NoteOnEvent(tick=0, channel=0, data=[67, 0]),
   midi.NoteOnEvent(tick=0, channel=0, data=[64, 0]),
   midi.NoteOnEvent(tick=0, channel=0, data=[64, 53]),
   midi.NoteOnEvent(tick=0, channel=0, data=[67, 60]),
   midi.NoteOnEvent(tick=0, channel=0, data=[72, 78]),
   midi.NoteOnEvent(tick=1680, channel=0, data=[72, 0]),
   midi.NoteOnEvent(tick=120, channel=0, data=[71, 75]),
   midi.NoteOnEvent(tick=120, channel=0, data=[71, 0]),
   midi.NoteOnEvent(tick=0, channel=0, data=[67, 0]),
   midi.NoteOnEvent(tick=0, channel=0, data=[64, 0]),
   midi.NoteOnEvent(tick=0, channel=0, data=[67, 56]),
   midi.NoteOnEvent(tick=0, channel=0, data=[64, 53]),
   midi.NoteOnEvent(tick=0, channel=0, data=[71, 74]),
   midi.NoteOnEvent(tick=1920, channel=0, data=[71, 0]),
   midi.NoteOnEvent(tick=0, channel=0, data=[69, 72]),
   midi.NoteOnEvent(tick=1800, channel=0, data=[69, 0]),
   midi.NoteOnEvent(tick=0, channel=0, data=[71, 70]),
   midi.NoteOnEvent(tick=60, channel=0, data=[71, 0]),
   midi.NoteOnEvent(tick=0, channel=0, data=[57, 46]),
   midi.NoteOnEvent(tick=30, channel=0, data=[62, 49]),
   midi.NoteOnEvent(tick=30, channel=0, data=[64, 0]),
   midi.NoteOnEvent(tick=0, channel=0, data=[67, 0]),
   midi.NoteOnEvent(tick=0, channel=0, data=[67, 68]),
   midi.NoteOnEvent(tick=480, channel=0, data=[57, 0]),
   midi.NoteOnEvent(tick=1440, channel=0, data=[67, 0]),
   midi.NoteOnEvent(tick=0, channel=0, data=[62, 0]),
   midi.NoteOnEvent(tick=0, channel=0, data=[66, 74]),
   midi.NoteOnEvent(tick=0, channel=0, data=[60, 49]),
   midi.NoteOnEvent(tick=0, channel=0, data=[62, 62]),
   midi.NoteOnEvent(tick=1800, channel=0, data=[66, 0]),
   midi.NoteOnEvent(tick=0, channel=0, data=[67, 67]),
   midi.NoteOnEvent(tick=120, channel=0, data=[67, 0]),
   midi.NoteOnEvent(tick=0, channel=0, data=[62, 0]),
   midi.NoteOnEvent(tick=0, channel=0, data=[60, 0]),
   midi.NoteOnEvent(tick=0, channel=0, data=[59, 49]),
   midi.NoteOnEvent(tick=0, channel=0, data=[62, 52]),
   midi.NoteOnEvent(tick=0, channel=0, data=[67, 73]),
   midi.NoteOnEvent(tick=1920, channel=0, data=[67, 0]),
   midi.NoteOnEvent(tick=0, channel=0, data=[62, 0]),
   midi.NoteOnEvent(tick=0, channel=0, data=[59, 0]),
   midi.NoteOnEvent(tick=1920, channel=0, data=[59, 46]),
   midi.NoteOnEvent(tick=108, channel=0, data=[59, 0]),
   midi.NoteOnEvent(tick=12, channel=0, data=[62, 40]),
   midi.NoteOnEvent(tick=108, channel=0, data=[62, 0]),
   midi.NoteOnEvent(tick=12, channel=0, data=[67, 41]),
   midi.NoteOnEvent(tick=108, channel=0, data=[67, 0]),
   midi.NoteOnEvent(tick=12, channel=0, data=[69, 34]),
   midi.NoteOnEvent(tick=108, channel=0, data=[69, 0]),
   midi.NoteOnEvent(tick=12, channel=0, data=[71, 41]),
   midi.NoteOnEvent(tick=108, channel=0, data=[71, 0]),
   midi.NoteOnEvent(tick=12, channel=0, data=[69, 39]),
   midi.NoteOnEvent(tick=108, channel=0, data=[69, 0]),
   midi.NoteOnEvent(tick=12, channel=0, data=[67, 39]),
   midi.NoteOnEvent(tick=108, channel=0, data=[67, 0]),
   midi.NoteOnEvent(tick=12, channel=0, data=[76, 46]),
   midi.NoteOnEvent(tick=108, channel=0, data=[76, 0]),
   midi.NoteOnEvent(tick=12, channel=0, data=[74, 46]),
   midi.NoteOnEvent(tick=108, channel=0, data=[74, 0]),
   midi.NoteOnEvent(tick=12, channel=0, data=[72, 40]),
   midi.NoteOnEvent(tick=108, channel=0, data=[72, 0]),
   midi.NoteOnEvent(tick=12, channel=0, data=[71, 36]),
   midi.NoteOnEvent(tick=108, channel=0, data=[71, 0]),
   midi.NoteOnEvent(tick=12, channel=0, data=[69, 37]),
   midi.NoteOnEvent(tick=108, channel=0, data=[69, 0]),
   midi.NoteOnEvent(tick=12, channel=0, data=[67, 42]),
   midi.NoteOnEvent(tick=108, channel=0, data=[67, 0]),
   midi.NoteOnEvent(tick=12, channel=0, data=[69, 36]),
   midi.NoteOnEvent(tick=108, channel=0, data=[69, 0]),
   midi.NoteOnEvent(tick=12, channel=0, data=[71, 40]),
   midi.NoteOnEvent(tick=108, channel=0, data=[71, 0]),
   midi.NoteOnEvent(tick=12, channel=0, data=[62, 36]),
   midi.NoteOnEvent(tick=108, channel=0, data=[62, 0]),
   midi.NoteOnEvent(tick=12, channel=0, data=[59, 46]),
   midi.NoteOnEvent(tick=108, channel=0, data=[59, 0]),
   midi.NoteOnEvent(tick=12, channel=0, data=[62, 40]),
   midi.NoteOnEvent(tick=108, channel=0, data=[62, 0]),
   midi.NoteOnEvent(tick=12, channel=0, data=[67, 41]),
   midi.NoteOnEvent(tick=108, channel=0, data=[67, 0]),
   midi.NoteOnEvent(tick=12, channel=0, data=[69, 34]),
   midi.NoteOnEvent(tick=108, channel=0, data=[69, 0]),
   midi.NoteOnEvent(tick=12, channel=0, data=[71, 41]),
   midi.NoteOnEvent(tick=108, channel=0, data=[71, 0]),
   midi.NoteOnEvent(tick=12, channel=0, data=[69, 39]),
   midi.NoteOnEvent(tick=108, channel=0, data=[69, 0]),
   midi.NoteOnEvent(tick=12, channel=0, data=[67, 39]),
   midi.NoteOnEvent(tick=108, channel=0, data=[67, 0]),
   midi.NoteOnEvent(tick=12, channel=0, data=[76, 46]),
   midi.NoteOnEvent(tick=108, channel=0, data=[76, 0]),
   midi.NoteOnEvent(tick=12, channel=0, data=[74, 46]),
   midi.NoteOnEvent(tick=108, channel=0, data=[74, 0]),
   midi.NoteOnEvent(tick=12, channel=0, data=[72, 40]),
   midi.NoteOnEvent(tick=108, channel=0, data=[72, 0]),
   midi.NoteOnEvent(tick=12, channel=0, data=[71, 36]),
   midi.NoteOnEvent(tick=108, channel=0, data=[71, 0]),
   midi.NoteOnEvent(tick=12, channel=0, data=[69, 37]),
   midi.NoteOnEvent(tick=108, channel=0, data=[69, 0]),
   midi.NoteOnEvent(tick=12, channel=0, data=[67, 42]),
   midi.NoteOnEvent(tick=108, channel=0, data=[67, 0]),
   midi.NoteOnEvent(tick=12, channel=0, data=[69, 36]),
   midi.NoteOnEvent(tick=108, channel=0, data=[69, 0]),
   midi.NoteOnEvent(tick=12, channel=0, data=[71, 40]),
   midi.NoteOnEvent(tick=108, channel=0, data=[71, 0]),
   midi.NoteOnEvent(tick=12, channel=0, data=[62, 36]),
   midi.NoteOnEvent(tick=108, channel=0, data=[62, 0]),
   midi.NoteOnEvent(tick=12, channel=0, data=[59, 46]),
   midi.NoteOnEvent(tick=108, channel=0, data=[59, 0]),
   midi.NoteOnEvent(tick=12, channel=0, data=[62, 40]),
   midi.NoteOnEvent(tick=108, channel=0, data=[62, 0]),
   midi.NoteOnEvent(tick=12, channel=0, data=[67, 41]),
   midi.NoteOnEvent(tick=108, channel=0, data=[67, 0]),
   midi.NoteOnEvent(tick=12, channel=0, data=[69, 34]),
   midi.NoteOnEvent(tick=108, channel=0, data=[69, 0]),
   midi.NoteOnEvent(tick=12, channel=0, data=[67, 41]),
   midi.NoteOnEvent(tick=108, channel=0, data=[67, 0]),
   midi.NoteOnEvent(tick=12, channel=0, data=[69, 39]),
   midi.NoteOnEvent(tick=108, channel=0, data=[69, 0]),
   midi.NoteOnEvent(tick=12, channel=0, data=[71, 39]),
   midi.NoteOnEvent(tick=108, channel=0, data=[71, 0]),
   midi.NoteOnEvent(tick=12, channel=0, data=[62, 46]),
   midi.NoteOnEvent(tick=108, channel=0, data=[62, 0]),
   midi.NoteOnEvent(tick=12, channel=0, data=[59, 46]),
   midi.NoteOnEvent(tick=108, channel=0, data=[59, 0]),
   midi.NoteOnEvent(tick=12, channel=0, data=[62, 40]),
   midi.NoteOnEvent(tick=108, channel=0, data=[62, 0]),
   midi.NoteOnEvent(tick=12, channel=0, data=[67, 36]),
   midi.NoteOnEvent(tick=108, channel=0, data=[67, 0]),
   midi.NoteOnEvent(tick=12, channel=0, data=[69, 37]),
   midi.NoteOnEvent(tick=108, channel=0, data=[69, 0]),
   midi.NoteOnEvent(tick=12, channel=0, data=[67, 42]),
   midi.NoteOnEvent(tick=108, channel=0, data=[67, 0]),
   midi.NoteOnEvent(tick=12, channel=0, data=[69, 36]),
   midi.NoteOnEvent(tick=108, channel=0, data=[69, 0]),
   midi.NoteOnEvent(tick=12, channel=0, data=[71, 40]),
   midi.NoteOnEvent(tick=108, channel=0, data=[71, 0]),
   midi.NoteOnEvent(tick=12, channel=0, data=[62, 36]),
   midi.NoteOnEvent(tick=108, channel=0, data=[62, 0]),
   midi.NoteOnEvent(tick=12, channel=0, data=[59, 46]),
   midi.NoteOnEvent(tick=108, channel=0, data=[59, 0]),
   midi.NoteOnEvent(tick=12, channel=0, data=[62, 40]),
   midi.NoteOnEvent(tick=108, channel=0, data=[62, 0]),
   midi.NoteOnEvent(tick=12, channel=0, data=[67, 41]),
   midi.NoteOnEvent(tick=108, channel=0, data=[67, 0]),
   midi.NoteOnEvent(tick=12, channel=0, data=[69, 34]),
   midi.NoteOnEvent(tick=108, channel=0, data=[69, 0]),
   midi.NoteOnEvent(tick=12, channel=0, data=[67, 41]),
   midi.NoteOnEvent(tick=108, channel=0, data=[67, 0]),
   midi.NoteOnEvent(tick=12, channel=0, data=[69, 38]),
   midi.NoteOnEvent(tick=108, channel=0, data=[69, 0]),
   midi.NoteOnEvent(tick=12, channel=0, data=[71, 37]),
   midi.NoteOnEvent(tick=108, channel=0, data=[71, 0]),
   midi.NoteOnEvent(tick=12, channel=0, data=[74, 42]),
   midi.NoteOnEvent(tick=108, channel=0, data=[74, 0]),
   midi.NoteOnEvent(tick=12, channel=0, data=[79, 42]),
   midi.NoteOnEvent(tick=120, channel=0, data=[79, 0]),
   midi.NoteOnEvent(tick=0, channel=0, data=[81, 38]),
   midi.NoteOnEvent(tick=120, channel=0, data=[81, 0]),
   midi.NoteOnEvent(tick=0, channel=0, data=[83, 40]),
   midi.NoteOnEvent(tick=120, channel=0, data=[83, 0]),
   midi.NoteOnEvent(tick=0, channel=0, data=[86, 34]),
   midi.NoteOnEvent(tick=120, channel=0, data=[86, 0]),
   midi.NoteOnEvent(tick=0, channel=0, data=[91, 39]),
   midi.NoteOnEvent(tick=120, channel=0, data=[91, 0]),
   midi.NoteOnEvent(tick=0, channel=0, data=[93, 38]),
   midi.NoteOnEvent(tick=120, channel=0, data=[93, 0]),
   midi.NoteOnEvent(tick=0, channel=0, data=[95, 37]),
   midi.NoteOnEvent(tick=120, channel=0, data=[95, 0]),
   midi.NoteOnEvent(tick=0, channel=0, data=[98, 37]),
   midi.NoteOnEvent(tick=120, channel=0, data=[98, 0]),
   midi.NoteOnEvent(tick=0, channel=0, data=[95, 50]),
   midi.NoteOnEvent(tick=480, channel=0, data=[95, 0]),
   midi.NoteOnEvent(tick=390, channel=0, data=[59, 34]),
   midi.NoteOnEvent(tick=30, channel=0, data=[62, 37]),
   midi.NoteOnEvent(tick=30, channel=0, data=[67, 40]),
   midi.NoteOnEvent(tick=30, channel=0, data=[71, 44]),
   midi.NoteOnEvent(tick=960, channel=0, data=[71, 0]),
   midi.NoteOnEvent(tick=0, channel=0, data=[59, 0]),
   midi.NoteOnEvent(tick=0, channel=0, data=[62, 0]),
   midi.NoteOnEvent(tick=0, channel=0, data=[67, 0]),
   midi.NoteOnEvent(tick=90, channel=0, data=[59, 33]),
   midi.NoteOnEvent(tick=30, channel=0, data=[62, 35]),
   midi.NoteOnEvent(tick=30, channel=0, data=[67, 37]),
   midi.NoteOnEvent(tick=30, channel=0, data=[71, 39]),
   midi.NoteOnEvent(tick=1740, channel=0, data=[71, 0]),
   midi.NoteOnEvent(tick=0, channel=0, data=[59, 0]),
   midi.NoteOnEvent(tick=0, channel=0, data=[62, 0]),
   midi.NoteOnEvent(tick=0, channel=0, data=[67, 0]),
   midi.EndOfTrackEvent(tick=0, data=[])]),
 midi.Track(\
[    midi.NoteOnEvent(tick=1, channel=0, data=[43, 52]),
   midi.NoteOnEvent(tick=119, channel=0, data=[43, 0]),
   midi.NoteOnEvent(tick=0, channel=0, data=[50, 45]),
   midi.NoteOnEvent(tick=120, channel=0, data=[50, 0]),
   midi.NoteOnEvent(tick=0, channel=0, data=[55, 48]),
   midi.NoteOnEvent(tick=120, channel=0, data=[55, 0]),
   midi.NoteOnEvent(tick=0, channel=0, data=[57, 40]),
   midi.NoteOnEvent(tick=120, channel=0, data=[57, 0]),
   midi.NoteOnEvent(tick=0, channel=0, data=[59, 48]),
   midi.NoteOnEvent(tick=120, channel=0, data=[57, 44]),
   midi.NoteOnEvent(tick=20, channel=0, data=[59, 0]),
   midi.NoteOnEvent(tick=100, channel=0, data=[55, 44]),
   midi.NoteOnEvent(tick=20, channel=0, data=[57, 0]),
   midi.NoteOnEvent(tick=100, channel=0, data=[64, 52]),
   midi.NoteOnEvent(tick=20, channel=0, data=[55, 0]),
   midi.NoteOnEvent(tick=100, channel=0, data=[62, 52]),
   midi.NoteOnEvent(tick=13, channel=0, data=[64, 0]),
   midi.NoteOnEvent(tick=71, channel=0, data=[60, 45]),
   midi.NoteOnEvent(tick=20, channel=0, data=[62, 0]),
   midi.NoteOnEvent(tick=100, channel=0, data=[59, 41]),
   midi.NoteOnEvent(tick=20, channel=0, data=[60, 0]),
   midi.NoteOnEvent(tick=100, channel=0, data=[57, 42]),
   midi.NoteOnEvent(tick=20, channel=0, data=[59, 0]),
   midi.NoteOnEvent(tick=100, channel=0, data=[55, 49]),
   midi.NoteOnEvent(tick=20, channel=0, data=[57, 0]),
   midi.NoteOnEvent(tick=100, channel=0, data=[57, 41]),
   midi.NoteOnEvent(tick=20, channel=0, data=[55, 0]),
   midi.NoteOnEvent(tick=100, channel=0, data=[59, 45]),
   midi.NoteOnEvent(tick=20, channel=0, data=[57, 0]),
   midi.NoteOnEvent(tick=100, channel=0, data=[50, 41]),
   midi.NoteOnEvent(tick=20, channel=0, data=[59, 0]),
   midi.NoteOnEvent(tick=100, channel=0, data=[43, 52]),
   midi.NoteOnEvent(tick=9, channel=0, data=[50, 0]),
   midi.NoteOnEvent(tick=49, channel=0, data=[43, 0]),
   midi.NoteOnEvent(tick=0, channel=0, data=[50, 45]),
   midi.NoteOnEvent(tick=120, channel=0, data=[50, 0]),
   midi.NoteOnEvent(tick=0, channel=0, data=[55, 48]),
   midi.NoteOnEvent(tick=120, channel=0, data=[55, 0]),
   midi.NoteOnEvent(tick=0, channel=0, data=[57, 40]),
   midi.NoteOnEvent(tick=120, channel=0, data=[57, 0]),
   midi.NoteOnEvent(tick=0, channel=0, data=[59, 48]),
   midi.NoteOnEvent(tick=120, channel=0, data=[57, 44]),
   midi.NoteOnEvent(tick=20, channel=0, data=[59, 0]),
   midi.NoteOnEvent(tick=100, channel=0, data=[55, 44]),
   midi.NoteOnEvent(tick=20, channel=0, data=[57, 0]),
   midi.NoteOnEvent(tick=100, channel=0, data=[64, 52]),
   midi.NoteOnEvent(tick=20, channel=0, data=[55, 0]),
   midi.NoteOnEvent(tick=100, channel=0, data=[62, 52]),
   midi.NoteOnEvent(tick=4, channel=0, data=[64, 0]),
   midi.NoteOnEvent(tick=42, channel=0, data=[60, 45]),
   midi.NoteOnEvent(tick=20, channel=0, data=[62, 0]),
   midi.NoteOnEvent(tick=100, channel=0, data=[59, 41]),
   midi.NoteOnEvent(tick=20, channel=0, data=[60, 0]),
   midi.NoteOnEvent(tick=100, channel=0, data=[57, 42]),
   midi.NoteOnEvent(tick=20, channel=0, data=[59, 0]),
   midi.NoteOnEvent(tick=100, channel=0, data=[55, 49]),
   midi.NoteOnEvent(tick=20, channel=0, data=[57, 0]),
   midi.NoteOnEvent(tick=100, channel=0, data=[57, 41]),
   midi.NoteOnEvent(tick=20, channel=0, data=[55, 0]),
   midi.NoteOnEvent(tick=100, channel=0, data=[59, 45]),
   midi.NoteOnEvent(tick=20, channel=0, data=[57, 0]),
   midi.NoteOnEvent(tick=100, channel=0, data=[50, 41]),
   midi.NoteOnEvent(tick=20, channel=0, data=[59, 0]),
   midi.NoteOnEvent(tick=100, channel=0, data=[43, 52]),
   midi.NoteOnEvent(tick=9, channel=0, data=[50, 0]),
   midi.NoteOnEvent(tick=42, channel=0, data=[43, 0]),
   midi.NoteOnEvent(tick=0, channel=0, data=[50, 45]),
   midi.NoteOnEvent(tick=120, channel=0, data=[50, 0]),
   midi.NoteOnEvent(tick=0, channel=0, data=[55, 48]),
   midi.NoteOnEvent(tick=120, channel=0, data=[55, 0]),
   midi.NoteOnEvent(tick=0, channel=0, data=[57, 40]),
   midi.NoteOnEvent(tick=120, channel=0, data=[57, 0]),
   midi.NoteOnEvent(tick=0, channel=0, data=[59, 48]),
   midi.NoteOnEvent(tick=120, channel=0, data=[59, 0]),
   midi.NoteOnEvent(tick=0, channel=0, data=[57, 44]),
   midi.NoteOnEvent(tick=120, channel=0, data=[57, 0]),
   midi.NoteOnEvent(tick=0, channel=0, data=[55, 44]),
   midi.NoteOnEvent(tick=120, channel=0, data=[55, 0]),
   midi.NoteOnEvent(tick=0, channel=0, data=[64, 52]),
   midi.NoteOnEvent(tick=120, channel=0, data=[64, 0]),
   midi.NoteOnEvent(tick=0, channel=0, data=[62, 52]),
   midi.NoteOnEvent(tick=71, channel=0, data=[62, 0]),
   midi.NoteOnEvent(tick=0, channel=0, data=[60, 45]),
   midi.NoteOnEvent(tick=120, channel=0, data=[60, 0]),
   midi.NoteOnEvent(tick=0, channel=0, data=[59, 41]),
   midi.NoteOnEvent(tick=120, channel=0, data=[59, 0]),
   midi.NoteOnEvent(tick=0, channel=0, data=[57, 42]),
   midi.NoteOnEvent(tick=120, channel=0, data=[57, 0]),
   midi.NoteOnEvent(tick=0, channel=0, data=[55, 49]),
   midi.NoteOnEvent(tick=120, channel=0, data=[55, 0]),
   midi.NoteOnEvent(tick=0, channel=0, data=[57, 41]),
   midi.NoteOnEvent(tick=120, channel=0, data=[57, 0]),
   midi.NoteOnEvent(tick=0, channel=0, data=[59, 45]),
   midi.NoteOnEvent(tick=120, channel=0, data=[59, 0]),
   midi.NoteOnEvent(tick=0, channel=0, data=[50, 41]),
   midi.NoteOnEvent(tick=120, channel=0, data=[50, 0]),
   midi.NoteOnEvent(tick=0, channel=0, data=[43, 52]),
   midi.NoteOnEvent(tick=42, channel=0, data=[43, 0]),
   midi.NoteOnEvent(tick=0, channel=0, data=[50, 46]),
   midi.NoteOnEvent(tick=120, channel=0, data=[50, 0]),
   midi.NoteOnEvent(tick=0, channel=0, data=[55, 50]),
   midi.NoteOnEvent(tick=120, channel=0, data=[55, 0]),
   midi.NoteOnEvent(tick=0, channel=0, data=[57, 44]),
   midi.NoteOnEvent(tick=120, channel=0, data=[57, 0]),
   midi.NoteOnEvent(tick=0, channel=0, data=[59, 55]),
   midi.NoteOnEvent(tick=120, channel=0, data=[59, 0]),
   midi.NoteOnEvent(tick=0, channel=0, data=[57, 53]),
   midi.NoteOnEvent(tick=120, channel=0, data=[57, 0]),
   midi.NoteOnEvent(tick=0, channel=0, data=[55, 55]),
   midi.NoteOnEvent(tick=120, channel=0, data=[55, 0]),
   midi.NoteOnEvent(tick=0, channel=0, data=[64, 68]),
   midi.NoteOnEvent(tick=120, channel=0, data=[64, 0]),
   midi.NoteOnEvent(tick=0, channel=0, data=[62, 70]),
   midi.NoteOnEvent(tick=42, channel=0, data=[62, 0]),
   midi.NoteOnEvent(tick=0, channel=0, data=[60, 61]),
   midi.NoteOnEvent(tick=120, channel=0, data=[60, 0]),
   midi.NoteOnEvent(tick=0, channel=0, data=[59, 55]),
   midi.NoteOnEvent(tick=120, channel=0, data=[59, 0]),
   midi.NoteOnEvent(tick=0, channel=0, data=[57, 56]),
   midi.NoteOnEvent(tick=120, channel=0, data=[57, 0]),
   midi.NoteOnEvent(tick=0, channel=0, data=[55, 66]),
   midi.NoteOnEvent(tick=120, channel=0, data=[55, 0]),
   midi.NoteOnEvent(tick=0, channel=0, data=[57, 55]),
   midi.NoteOnEvent(tick=120, channel=0, data=[57, 0]),
   midi.NoteOnEvent(tick=0, channel=0, data=[59, 60]),
   midi.NoteOnEvent(tick=120, channel=0, data=[59, 0]),
   midi.NoteOnEvent(tick=0, channel=0, data=[50, 55]),
   midi.NoteOnEvent(tick=120, channel=0, data=[50, 0]),
   midi.NoteOnEvent(tick=0, channel=0, data=[43, 68]),
   midi.NoteOnEvent(tick=49, channel=0, data=[43, 0]),
   midi.NoteOnEvent(tick=0, channel=0, data=[50, 58]),
   midi.NoteOnEvent(tick=120, channel=0, data=[50, 0]),
   midi.NoteOnEvent(tick=0, channel=0, data=[55, 60]),
   midi.NoteOnEvent(tick=120, channel=0, data=[55, 0]),
   midi.NoteOnEvent(tick=0, channel=0, data=[57, 49]),
   midi.NoteOnEvent(tick=120, channel=0, data=[57, 0]),
   midi.NoteOnEvent(tick=0, channel=0, data=[59, 58]),
   midi.NoteOnEvent(tick=120, channel=0, data=[59, 0]),
   midi.NoteOnEvent(tick=0, channel=0, data=[57, 52]),
   midi.NoteOnEvent(tick=120, channel=0, data=[57, 0]),
   midi.NoteOnEvent(tick=0, channel=0, data=[55, 52]),
   midi.NoteOnEvent(tick=120, channel=0, data=[55, 0]),
   midi.NoteOnEvent(tick=0, channel=0, data=[64, 60]),
   midi.NoteOnEvent(tick=120, channel=0, data=[64, 0]),
   midi.NoteOnEvent(tick=0, channel=0, data=[62, 60]),
   midi.NoteOnEvent(tick=71, channel=0, data=[62, 0]),
   midi.NoteOnEvent(tick=0, channel=0, data=[60, 50]),
   midi.NoteOnEvent(tick=120, channel=0, data=[60, 0]),
   midi.NoteOnEvent(tick=0, channel=0, data=[59, 45]),
   midi.NoteOnEvent(tick=120, channel=0, data=[59, 0]),
   midi.NoteOnEvent(tick=0, channel=0, data=[57, 45]),
   midi.NoteOnEvent(tick=120, channel=0, data=[57, 0]),
   midi.NoteOnEvent(tick=0, channel=0, data=[55, 52]),
   midi.NoteOnEvent(tick=120, channel=0, data=[55, 0]),
   midi.NoteOnEvent(tick=0, channel=0, data=[57, 42]),
   midi.NoteOnEvent(tick=120, channel=0, data=[57, 0]),
   midi.NoteOnEvent(tick=0, channel=0, data=[59, 46]),
   midi.NoteOnEvent(tick=120, channel=0, data=[59, 0]),
   midi.NoteOnEvent(tick=0, channel=0, data=[50, 41]),
   midi.NoteOnEvent(tick=120, channel=0, data=[50, 0]),
   midi.NoteOnEvent(tick=0, channel=0, data=[43, 46]),
   midi.NoteOnEvent(tick=14, channel=0, data=[43, 0]),
   midi.NoteOnEvent(tick=0, channel=0, data=[50, 40]),
   midi.NoteOnEvent(tick=120, channel=0, data=[50, 0]),
   midi.NoteOnEvent(tick=0, channel=0, data=[55, 42]),
   midi.NoteOnEvent(tick=120, channel=0, data=[55, 0]),
   midi.NoteOnEvent(tick=0, channel=0, data=[57, 38]),
   midi.NoteOnEvent(tick=120, channel=0, data=[57, 0]),
   midi.NoteOnEvent(tick=0, channel=0, data=[59, 46]),
   midi.NoteOnEvent(tick=120, channel=0, data=[59, 0]),
   midi.NoteOnEvent(tick=0, channel=0, data=[57, 42]),
   midi.NoteOnEvent(tick=120, channel=0, data=[57, 0]),
   midi.NoteOnEvent(tick=0, channel=0, data=[55, 44]),
   midi.NoteOnEvent(tick=120, channel=0, data=[55, 0]),
   midi.NoteOnEvent(tick=0, channel=0, data=[64, 53]),
   midi.NoteOnEvent(tick=120, channel=0, data=[64, 0]),
   midi.NoteOnEvent(tick=0, channel=0, data=[62, 55]),
   midi.NoteOnEvent(tick=105, channel=0, data=[60, 48]),
   midi.NoteOnEvent(tick=20, channel=0, data=[62, 0]),
   midi.NoteOnEvent(tick=100, channel=0, data=[59, 41]),
   midi.NoteOnEvent(tick=20, channel=0, data=[60, 0]),
   midi.NoteOnEvent(tick=100, channel=0, data=[57, 42]),
   midi.NoteOnEvent(tick=20, channel=0, data=[59, 0]),
   midi.NoteOnEvent(tick=100, channel=0, data=[55, 48]),
   midi.NoteOnEvent(tick=20, channel=0, data=[57, 0]),
   midi.NoteOnEvent(tick=100, channel=0, data=[57, 39]),
   midi.NoteOnEvent(tick=20, channel=0, data=[55, 0]),
   midi.NoteOnEvent(tick=100, channel=0, data=[59, 41]),
   midi.NoteOnEvent(tick=20, channel=0, data=[57, 0]),
   midi.NoteOnEvent(tick=100, channel=0, data=[50, 37]),
   midi.NoteOnEvent(tick=20, channel=0, data=[59, 0]),
   midi.NoteOnEvent(tick=100, channel=0, data=[45, 46]),
   midi.NoteOnEvent(tick=20, channel=0, data=[50, 0]),
   midi.NoteOnEvent(tick=63, channel=0, data=[45, 0]),
   midi.NoteOnEvent(tick=0, channel=0, data=[52, 40]),
   midi.NoteOnEvent(tick=120, channel=0, data=[52, 0]),
   midi.NoteOnEvent(tick=0, channel=0, data=[57, 42]),
   midi.NoteOnEvent(tick=120, channel=0, data=[57, 0]),
   midi.NoteOnEvent(tick=0, channel=0, data=[59, 34]),
   midi.NoteOnEvent(tick=120, channel=0, data=[59, 0]),
   midi.NoteOnEvent(tick=0, channel=0, data=[61, 42]),
   midi.NoteOnEvent(tick=120, channel=0, data=[61, 0]),
   midi.NoteOnEvent(tick=0, channel=0, data=[59, 39]),
   midi.NoteOnEvent(tick=120, channel=0, data=[59, 0]),
   midi.NoteOnEvent(tick=0, channel=0, data=[57, 39]),
   midi.NoteOnEvent(tick=120, channel=0, data=[57, 0]),
   midi.NoteOnEvent(tick=0, channel=0, data=[66, 46]),
   midi.NoteOnEvent(tick=120, channel=0, data=[66, 0]),
   midi.NoteOnEvent(tick=0, channel=0, data=[64, 46]),
   midi.NoteOnEvent(tick=53, channel=0, data=[64, 0]),
   midi.NoteOnEvent(tick=0, channel=0, data=[62, 40]),
   midi.NoteOnEvent(tick=120, channel=0, data=[62, 0]),
   midi.NoteOnEvent(tick=0, channel=0, data=[61, 36]),
   midi.NoteOnEvent(tick=120, channel=0, data=[61, 0]),
   midi.NoteOnEvent(tick=0, channel=0, data=[59, 37]),
   midi.NoteOnEvent(tick=120, channel=0, data=[59, 0]),
   midi.NoteOnEvent(tick=0, channel=0, data=[57, 44]),
   midi.NoteOnEvent(tick=120, channel=0, data=[57, 0]),
   midi.NoteOnEvent(tick=0, channel=0, data=[59, 36]),
   midi.NoteOnEvent(tick=120, channel=0, data=[59, 0]),
   midi.NoteOnEvent(tick=0, channel=0, data=[61, 40]),
   midi.NoteOnEvent(tick=120, channel=0, data=[61, 0]),
   midi.NoteOnEvent(tick=0, channel=0, data=[52, 36]),
   midi.NoteOnEvent(tick=120, channel=0, data=[52, 0]),
   midi.NoteOnEvent(tick=0, channel=0, data=[38, 46]),
   midi.NoteOnEvent(tick=32, channel=0, data=[38, 0]),
   midi.NoteOnEvent(tick=0, channel=0, data=[45, 40]),
   midi.NoteOnEvent(tick=120, channel=0, data=[45, 0]),
   midi.NoteOnEvent(tick=0, channel=0, data=[50, 42]),
   midi.NoteOnEvent(tick=120, channel=0, data=[50, 0]),
   midi.NoteOnEvent(tick=0, channel=0, data=[52, 34]),
   midi.NoteOnEvent(tick=120, channel=0, data=[52, 0]),
   midi.NoteOnEvent(tick=0, channel=0, data=[54, 42]),
   midi.NoteOnEvent(tick=114, channel=0, data=[52, 39]),
   midi.NoteOnEvent(tick=20, channel=0, data=[54, 0]),
   midi.NoteOnEvent(tick=100, channel=0, data=[50, 39]),
   midi.NoteOnEvent(tick=20, channel=0, data=[52, 0]),
   midi.NoteOnEvent(tick=100, channel=0, data=[59, 46]),
   midi.NoteOnEvent(tick=20, channel=0, data=[50, 0]),
   midi.NoteOnEvent(tick=100, channel=0, data=[57, 46]),
   midi.NoteOnEvent(tick=20, channel=0, data=[59, 0]),
   midi.NoteOnEvent(tick=100, channel=0, data=[55, 40]),
   midi.NoteOnEvent(tick=20, channel=0, data=[57, 0]),
   midi.NoteOnEvent(tick=100, channel=0, data=[54, 36]),
   midi.NoteOnEvent(tick=20, channel=0, data=[55, 0]),
   midi.NoteOnEvent(tick=100, channel=0, data=[52, 37]),
   midi.NoteOnEvent(tick=20, channel=0, data=[54, 0]),
   midi.NoteOnEvent(tick=100, channel=0, data=[50, 44]),
   midi.NoteOnEvent(tick=20, channel=0, data=[52, 0]),
   midi.NoteOnEvent(tick=100, channel=0, data=[52, 36]),
   midi.NoteOnEvent(tick=20, channel=0, data=[50, 0]),
   midi.NoteOnEvent(tick=100, channel=0, data=[54, 40]),
   midi.NoteOnEvent(tick=20, channel=0, data=[52, 0]),
   midi.NoteOnEvent(tick=100, channel=0, data=[47, 36]),
   midi.NoteOnEvent(tick=20, channel=0, data=[54, 0]),
   midi.NoteOnEvent(tick=100, channel=0, data=[45, 46]),
   midi.NoteOnEvent(tick=20, channel=0, data=[47, 0]),
   midi.NoteOnEvent(tick=63, channel=0, data=[45, 0]),
   midi.NoteOnEvent(tick=0, channel=0, data=[52, 40]),
   midi.NoteOnEvent(tick=120, channel=0, data=[52, 0]),
   midi.NoteOnEvent(tick=0, channel=0, data=[57, 42]),
   midi.NoteOnEvent(tick=120, channel=0, data=[57, 0]),
   midi.NoteOnEvent(tick=0, channel=0, data=[59, 34]),
   midi.NoteOnEvent(tick=120, channel=0, data=[59, 0]),
   midi.NoteOnEvent(tick=0, channel=0, data=[61, 44]),
   midi.NoteOnEvent(tick=120, channel=0, data=[61, 0]),
   midi.NoteOnEvent(tick=0, channel=0, data=[59, 40]),
   midi.NoteOnEvent(tick=120, channel=0, data=[59, 0]),
   midi.NoteOnEvent(tick=0, channel=0, data=[57, 41]),
   midi.NoteOnEvent(tick=120, channel=0, data=[57, 0]),
   midi.NoteOnEvent(tick=0, channel=0, data=[66, 49]),
   midi.NoteOnEvent(tick=120, channel=0, data=[66, 0]),
   midi.NoteOnEvent(tick=0, channel=0, data=[64, 50]),
   midi.NoteOnEvent(tick=60, channel=0, data=[64, 0]),
   midi.NoteOnEvent(tick=0, channel=0, data=[62, 44]),
   midi.NoteOnEvent(tick=120, channel=0, data=[62, 0]),
   midi.NoteOnEvent(tick=0, channel=0, data=[61, 40]),
   midi.NoteOnEvent(tick=120, channel=0, data=[61, 0]),
   midi.NoteOnEvent(tick=0, channel=0, data=[59, 41]),
   midi.NoteOnEvent(tick=120, channel=0, data=[59, 0]),
   midi.NoteOnEvent(tick=0, channel=0, data=[57, 50]),
   midi.NoteOnEvent(tick=120, channel=0, data=[57, 0]),
   midi.NoteOnEvent(tick=0, channel=0, data=[59, 41]),
   midi.NoteOnEvent(tick=120, channel=0, data=[59, 0]),
   midi.NoteOnEvent(tick=0, channel=0, data=[61, 46]),
   midi.NoteOnEvent(tick=120, channel=0, data=[61, 0]),
   midi.NoteOnEvent(tick=0, channel=0, data=[52, 42]),
   midi.NoteOnEvent(tick=120, channel=0, data=[52, 0]),
   midi.NoteOnEvent(tick=0, channel=0, data=[38, 41]),
   midi.NoteOnEvent(tick=60, channel=0, data=[38, 0]),
   midi.NoteOnEvent(tick=0, channel=0, data=[45, 38]),
   midi.NoteOnEvent(tick=120, channel=0, data=[45, 0]),
   midi.NoteOnEvent(tick=0, channel=0, data=[50, 38]),
   midi.NoteOnEvent(tick=120, channel=0, data=[50, 0]),
   midi.NoteOnEvent(tick=0, channel=0, data=[52, 37]),
   midi.NoteOnEvent(tick=120, channel=0, data=[52, 0]),
   midi.NoteOnEvent(tick=0, channel=0, data=[54, 45]),
   midi.NoteOnEvent(tick=105, channel=0, data=[52, 41]),
   midi.NoteOnEvent(tick=20, channel=0, data=[54, 0]),
   midi.NoteOnEvent(tick=100, channel=0, data=[50, 41]),
   midi.NoteOnEvent(tick=20, channel=0, data=[52, 0]),
   midi.NoteOnEvent(tick=100, channel=0, data=[59, 41]),
   midi.NoteOnEvent(tick=20, channel=0, data=[50, 0]),
   midi.NoteOnEvent(tick=100, channel=0, data=[57, 46]),
   midi.NoteOnEvent(tick=20, channel=0, data=[59, 0]),
   midi.NoteOnEvent(tick=100, channel=0, data=[55, 41]),
   midi.NoteOnEvent(tick=20, channel=0, data=[57, 0]),
   midi.NoteOnEvent(tick=100, channel=0, data=[54, 37]),
   midi.NoteOnEvent(tick=20, channel=0, data=[55, 0]),
   midi.NoteOnEvent(tick=100, channel=0, data=[52, 39]),
   midi.NoteOnEvent(tick=20, channel=0, data=[54, 0]),
   midi.NoteOnEvent(tick=100, channel=0, data=[50, 45]),
   midi.NoteOnEvent(tick=20, channel=0, data=[52, 0]),
   midi.NoteOnEvent(tick=100, channel=0, data=[52, 36]),
   midi.NoteOnEvent(tick=20, channel=0, data=[50, 0]),
   midi.NoteOnEvent(tick=100, channel=0, data=[54, 40]),
   midi.NoteOnEvent(tick=20, channel=0, data=[52, 0]),
   midi.NoteOnEvent(tick=100, channel=0, data=[45, 36]),
   midi.NoteOnEvent(tick=20, channel=0, data=[54, 0]),
   midi.NoteOnEvent(tick=100, channel=0, data=[38, 46]),
   midi.NoteOnEvent(tick=20, channel=0, data=[45, 0]),
   midi.NoteOnEvent(tick=71, channel=0, data=[38, 0]),
   midi.NoteOnEvent(tick=0, channel=0, data=[45, 40]),
   midi.NoteOnEvent(tick=120, channel=0, data=[45, 0]),
   midi.NoteOnEvent(tick=0, channel=0, data=[50, 42]),
   midi.NoteOnEvent(tick=120, channel=0, data=[50, 0]),
   midi.NoteOnEvent(tick=0, channel=0, data=[52, 34]),
   midi.NoteOnEvent(tick=120, channel=0, data=[52, 0]),
   midi.NoteOnEvent(tick=0, channel=0, data=[54, 42]),
   midi.NoteOnEvent(tick=120, channel=0, data=[54, 0]),
   midi.NoteOnEvent(tick=0, channel=0, data=[52, 39]),
   midi.NoteOnEvent(tick=120, channel=0, data=[52, 0]),
   midi.NoteOnEvent(tick=0, channel=0, data=[50, 39]),
   midi.NoteOnEvent(tick=120, channel=0, data=[50, 0]),
   midi.NoteOnEvent(tick=0, channel=0, data=[59, 46]),
   midi.NoteOnEvent(tick=120, channel=0, data=[59, 0]),
   midi.NoteOnEvent(tick=0, channel=0, data=[57, 46]),
   midi.NoteOnEvent(tick=38, channel=0, data=[57, 0]),
   midi.NoteOnEvent(tick=0, channel=0, data=[55, 40]),
   midi.NoteOnEvent(tick=120, channel=0, data=[55, 0]),
   midi.NoteOnEvent(tick=0, channel=0, data=[54, 36]),
   midi.NoteOnEvent(tick=120, channel=0, data=[54, 0]),
   midi.NoteOnEvent(tick=0, channel=0, data=[52, 37]),
   midi.NoteOnEvent(tick=120, channel=0, data=[52, 0]),
   midi.NoteOnEvent(tick=0, channel=0, data=[50, 44]),
   midi.NoteOnEvent(tick=120, channel=0, data=[50, 0]),
   midi.NoteOnEvent(tick=0, channel=0, data=[52, 36]),
   midi.NoteOnEvent(tick=120, channel=0, data=[52, 0]),
   midi.NoteOnEvent(tick=0, channel=0, data=[54, 40]),
   midi.NoteOnEvent(tick=120, channel=0, data=[54, 0]),
   midi.NoteOnEvent(tick=0, channel=0, data=[45, 36]),
   midi.NoteOnEvent(tick=120, channel=0, data=[45, 0]),
   midi.NoteOnEvent(tick=0, channel=0, data=[43, 52]),
   midi.NoteOnEvent(tick=21, channel=0, data=[43, 0]),
   midi.NoteOnEvent(tick=0, channel=0, data=[50, 45]),
   midi.NoteOnEvent(tick=120, channel=0, data=[50, 0]),
   midi.NoteOnEvent(tick=0, channel=0, data=[55, 48]),
   midi.NoteOnEvent(tick=120, channel=0, data=[55, 0]),
   midi.NoteOnEvent(tick=0, channel=0, data=[57, 40]),
   midi.NoteOnEvent(tick=120, channel=0, data=[57, 0]),
   midi.NoteOnEvent(tick=0, channel=0, data=[59, 48]),
   midi.NoteOnEvent(tick=120, channel=0, data=[59, 0]),
   midi.NoteOnEvent(tick=0, channel=0, data=[57, 44]),
   midi.NoteOnEvent(tick=120, channel=0, data=[57, 0]),
   midi.NoteOnEvent(tick=0, channel=0, data=[55, 44]),
   midi.NoteOnEvent(tick=120, channel=0, data=[55, 0]),
   midi.NoteOnEvent(tick=0, channel=0, data=[64, 52]),
   midi.NoteOnEvent(tick=120, channel=0, data=[64, 0]),
   midi.NoteOnEvent(tick=0, channel=0, data=[62, 52]),
   midi.NoteOnEvent(tick=71, channel=0, data=[62, 0]),
   midi.NoteOnEvent(tick=0, channel=0, data=[60, 45]),
   midi.NoteOnEvent(tick=120, channel=0, data=[60, 0]),
   midi.NoteOnEvent(tick=0, channel=0, data=[59, 41]),
   midi.NoteOnEvent(tick=120, channel=0, data=[59, 0]),
   midi.NoteOnEvent(tick=0, channel=0, data=[57, 42]),
   midi.NoteOnEvent(tick=120, channel=0, data=[57, 0]),
   midi.NoteOnEvent(tick=0, channel=0, data=[55, 49]),
   midi.NoteOnEvent(tick=120, channel=0, data=[55, 0]),
   midi.NoteOnEvent(tick=0, channel=0, data=[57, 41]),
   midi.NoteOnEvent(tick=120, channel=0, data=[57, 0]),
   midi.NoteOnEvent(tick=0, channel=0, data=[59, 45]),
   midi.NoteOnEvent(tick=120, channel=0, data=[59, 0]),
   midi.NoteOnEvent(tick=0, channel=0, data=[50, 41]),
   midi.NoteOnEvent(tick=120, channel=0, data=[50, 0]),
   midi.NoteOnEvent(tick=0, channel=0, data=[43, 52]),
   midi.NoteOnEvent(tick=42, channel=0, data=[43, 0]),
   midi.NoteOnEvent(tick=0, channel=0, data=[50, 46]),
   midi.NoteOnEvent(tick=120, channel=0, data=[50, 0]),
   midi.NoteOnEvent(tick=0, channel=0, data=[55, 50]),
   midi.NoteOnEvent(tick=120, channel=0, data=[55, 0]),
   midi.NoteOnEvent(tick=0, channel=0, data=[57, 44]),
   midi.NoteOnEvent(tick=120, channel=0, data=[57, 0]),
   midi.NoteOnEvent(tick=0, channel=0, data=[59, 55]),
   midi.NoteOnEvent(tick=120, channel=0, data=[59, 0]),
   midi.NoteOnEvent(tick=0, channel=0, data=[57, 53]),
   midi.NoteOnEvent(tick=120, channel=0, data=[57, 0]),
   midi.NoteOnEvent(tick=0, channel=0, data=[55, 55]),
   midi.NoteOnEvent(tick=120, channel=0, data=[55, 0]),
   midi.NoteOnEvent(tick=0, channel=0, data=[64, 68]),
   midi.NoteOnEvent(tick=120, channel=0, data=[64, 0]),
   midi.NoteOnEvent(tick=0, channel=0, data=[62, 70]),
   midi.NoteOnEvent(tick=42, channel=0, data=[62, 0]),
   midi.NoteOnEvent(tick=0, channel=0, data=[60, 61]),
   midi.NoteOnEvent(tick=120, channel=0, data=[60, 0]),
   midi.NoteOnEvent(tick=0, channel=0, data=[59, 55]),
   midi.NoteOnEvent(tick=120, channel=0, data=[59, 0]),
   midi.NoteOnEvent(tick=0, channel=0, data=[57, 56]),
   midi.NoteOnEvent(tick=120, channel=0, data=[57, 0]),
   midi.NoteOnEvent(tick=0, channel=0, data=[55, 66]),
   midi.NoteOnEvent(tick=120, channel=0, data=[55, 0]),
   midi.NoteOnEvent(tick=0, channel=0, data=[57, 55]),
   midi.NoteOnEvent(tick=120, channel=0, data=[57, 0]),
   midi.NoteOnEvent(tick=0, channel=0, data=[59, 60]),
   midi.NoteOnEvent(tick=120, channel=0, data=[59, 0]),
   midi.NoteOnEvent(tick=0, channel=0, data=[50, 55]),
   midi.NoteOnEvent(tick=120, channel=0, data=[50, 0]),
   midi.NoteOnEvent(tick=0, channel=0, data=[43, 68]),
   midi.NoteOnEvent(tick=49, channel=0, data=[43, 0]),
   midi.NoteOnEvent(tick=0, channel=0, data=[50, 58]),
   midi.NoteOnEvent(tick=120, channel=0, data=[50, 0]),
   midi.NoteOnEvent(tick=0, channel=0, data=[55, 60]),
   midi.NoteOnEvent(tick=120, channel=0, data=[55, 0]),
   midi.NoteOnEvent(tick=0, channel=0, data=[57, 49]),
   midi.NoteOnEvent(tick=120, channel=0, data=[57, 0]),
   midi.NoteOnEvent(tick=0, channel=0, data=[59, 58]),
   midi.NoteOnEvent(tick=120, channel=0, data=[59, 0]),
   midi.NoteOnEvent(tick=0, channel=0, data=[57, 52]),
   midi.NoteOnEvent(tick=120, channel=0, data=[57, 0]),
   midi.NoteOnEvent(tick=0, channel=0, data=[55, 52]),
   midi.NoteOnEvent(tick=120, channel=0, data=[55, 0]),
   midi.NoteOnEvent(tick=0, channel=0, data=[64, 60]),
   midi.NoteOnEvent(tick=120, channel=0, data=[64, 0]),
   midi.NoteOnEvent(tick=0, channel=0, data=[62, 60]),
   midi.NoteOnEvent(tick=35, channel=0, data=[62, 0]),
   midi.NoteOnEvent(tick=0, channel=0, data=[60, 50]),
   midi.NoteOnEvent(tick=120, channel=0, data=[60, 0]),
   midi.NoteOnEvent(tick=0, channel=0, data=[59, 45]),
   midi.NoteOnEvent(tick=120, channel=0, data=[59, 0]),
   midi.NoteOnEvent(tick=0, channel=0, data=[57, 45]),
   midi.NoteOnEvent(tick=120, channel=0, data=[57, 0]),
   midi.NoteOnEvent(tick=0, channel=0, data=[55, 52]),
   midi.NoteOnEvent(tick=120, channel=0, data=[55, 0]),
   midi.NoteOnEvent(tick=0, channel=0, data=[57, 42]),
   midi.NoteOnEvent(tick=120, channel=0, data=[57, 0]),
   midi.NoteOnEvent(tick=0, channel=0, data=[59, 46]),
   midi.NoteOnEvent(tick=120, channel=0, data=[59, 0]),
   midi.NoteOnEvent(tick=0, channel=0, data=[50, 41]),
   midi.NoteOnEvent(tick=120, channel=0, data=[50, 0]),
   midi.NoteOnEvent(tick=0, channel=0, data=[43, 46]),
   midi.NoteOnEvent(tick=35, channel=0, data=[43, 0]),
   midi.NoteOnEvent(tick=0, channel=0, data=[50, 40]),
   midi.NoteOnEvent(tick=120, channel=0, data=[50, 0]),
   midi.NoteOnEvent(tick=0, channel=0, data=[55, 42]),
   midi.NoteOnEvent(tick=120, channel=0, data=[55, 0]),
   midi.NoteOnEvent(tick=0, channel=0, data=[57, 38]),
   midi.NoteOnEvent(tick=120, channel=0, data=[57, 0]),
   midi.NoteOnEvent(tick=0, channel=0, data=[59, 46]),
   midi.NoteOnEvent(tick=120, channel=0, data=[59, 0]),
   midi.NoteOnEvent(tick=0, channel=0, data=[57, 42]),
   midi.NoteOnEvent(tick=120, channel=0, data=[57, 0]),
   midi.NoteOnEvent(tick=0, channel=0, data=[55, 44]),
   midi.NoteOnEvent(tick=120, channel=0, data=[55, 0]),
   midi.NoteOnEvent(tick=0, channel=0, data=[64, 53]),
   midi.NoteOnEvent(tick=120, channel=0, data=[64, 0]),
   midi.NoteOnEvent(tick=0, channel=0, data=[62, 55]),
   midi.NoteOnEvent(tick=105, channel=0, data=[60, 48]),
   midi.NoteOnEvent(tick=20, channel=0, data=[62, 0]),
   midi.NoteOnEvent(tick=100, channel=0, data=[59, 41]),
   midi.NoteOnEvent(tick=20, channel=0, data=[60, 0]),
   midi.NoteOnEvent(tick=100, channel=0, data=[57, 42]),
   midi.NoteOnEvent(tick=20, channel=0, data=[59, 0]),
   midi.NoteOnEvent(tick=100, channel=0, data=[55, 48]),
   midi.NoteOnEvent(tick=20, channel=0, data=[57, 0]),
   midi.NoteOnEvent(tick=100, channel=0, data=[57, 39]),
   midi.NoteOnEvent(tick=20, channel=0, data=[55, 0]),
   midi.NoteOnEvent(tick=100, channel=0, data=[59, 41]),
   midi.NoteOnEvent(tick=20, channel=0, data=[57, 0]),
   midi.NoteOnEvent(tick=100, channel=0, data=[50, 37]),
   midi.NoteOnEvent(tick=20, channel=0, data=[59, 0]),
   midi.NoteOnEvent(tick=100, channel=0, data=[43, 41]),
   midi.NoteOnEvent(tick=20, channel=0, data=[50, 0]),
   midi.NoteOnEvent(tick=63, channel=0, data=[43, 0]),
   midi.NoteOnEvent(tick=0, channel=0, data=[50, 36]),
   midi.NoteOnEvent(tick=120, channel=0, data=[50, 0]),
   midi.NoteOnEvent(tick=0, channel=0, data=[55, 38]),
   midi.NoteOnEvent(tick=120, channel=0, data=[55, 0]),
   midi.NoteOnEvent(tick=0, channel=0, data=[57, 30]),
   midi.NoteOnEvent(tick=120, channel=0, data=[57, 0]),
   midi.NoteOnEvent(tick=0, channel=0, data=[59, 38]),
   midi.NoteOnEvent(tick=120, channel=0, data=[59, 0]),
   midi.NoteOnEvent(tick=0, channel=0, data=[57, 34]),
   midi.NoteOnEvent(tick=120, channel=0, data=[57, 0]),
   midi.NoteOnEvent(tick=0, channel=0, data=[55, 34]),
   midi.NoteOnEvent(tick=120, channel=0, data=[55, 0]),
   midi.NoteOnEvent(tick=0, channel=0, data=[64, 42]),
   midi.NoteOnEvent(tick=120, channel=0, data=[64, 0]),
   midi.NoteOnEvent(tick=0, channel=0, data=[62, 42]),
   midi.NoteOnEvent(tick=49, channel=0, data=[62, 0]),
   midi.NoteOnEvent(tick=0, channel=0, data=[60, 37]),
   midi.NoteOnEvent(tick=120, channel=0, data=[60, 0]),
   midi.NoteOnEvent(tick=0, channel=0, data=[59, 31]),
   midi.NoteOnEvent(tick=120, channel=0, data=[59, 0]),
   midi.NoteOnEvent(tick=0, channel=0, data=[57, 34]),
   midi.NoteOnEvent(tick=120, channel=0, data=[57, 0]),
   midi.NoteOnEvent(tick=0, channel=0, data=[55, 41]),
   midi.NoteOnEvent(tick=120, channel=0, data=[55, 0]),
   midi.NoteOnEvent(tick=0, channel=0, data=[57, 34]),
   midi.NoteOnEvent(tick=120, channel=0, data=[57, 0]),
   midi.NoteOnEvent(tick=0, channel=0, data=[59, 38]),
   midi.NoteOnEvent(tick=120, channel=0, data=[59, 0]),
   midi.NoteOnEvent(tick=0, channel=0, data=[50, 34]),
   midi.NoteOnEvent(tick=120, channel=0, data=[50, 0]),
   midi.NoteOnEvent(tick=0, channel=0, data=[43, 44]),
   midi.NoteOnEvent(tick=63, channel=0, data=[43, 0]),
   midi.NoteOnEvent(tick=0, channel=0, data=[50, 39]),
   midi.NoteOnEvent(tick=120, channel=0, data=[50, 0]),
   midi.NoteOnEvent(tick=0, channel=0, data=[55, 41]),
   midi.NoteOnEvent(tick=120, channel=0, data=[55, 0]),
   midi.NoteOnEvent(tick=0, channel=0, data=[57, 31]),
   midi.NoteOnEvent(tick=120, channel=0, data=[57, 0]),
   midi.NoteOnEvent(tick=0, channel=0, data=[59, 41]),
   midi.NoteOnEvent(tick=120, channel=0, data=[59, 0]),
   midi.NoteOnEvent(tick=0, channel=0, data=[57, 38]),
   midi.NoteOnEvent(tick=120, channel=0, data=[57, 0]),
   midi.NoteOnEvent(tick=0, channel=0, data=[55, 38]),
   midi.NoteOnEvent(tick=85, channel=0, data=[55, 0]),
   midi.NoteOnEvent(tick=0, channel=0, data=[64, 42]),
   midi.NoteOnEvent(tick=120, channel=0, data=[64, 0]),
   midi.NoteOnEvent(tick=0, channel=0, data=[62, 45]),
   midi.NoteOnEvent(tick=66, channel=0, data=[62, 0]),
   midi.NoteOnEvent(tick=0, channel=0, data=[60, 40]),
   midi.NoteOnEvent(tick=120, channel=0, data=[60, 0]),
   midi.NoteOnEvent(tick=0, channel=0, data=[59, 37]),
   midi.NoteOnEvent(tick=120, channel=0, data=[59, 0]),
   midi.NoteOnEvent(tick=0, channel=0, data=[57, 38]),
   midi.NoteOnEvent(tick=120, channel=0, data=[57, 0]),
   midi.NoteOnEvent(tick=0, channel=0, data=[55, 44]),
   midi.NoteOnEvent(tick=120, channel=0, data=[55, 0]),
   midi.NoteOnEvent(tick=0, channel=0, data=[57, 38]),
   midi.NoteOnEvent(tick=120, channel=0, data=[57, 0]),
   midi.NoteOnEvent(tick=0, channel=0, data=[59, 41]),
   midi.NoteOnEvent(tick=120, channel=0, data=[59, 0]),
   midi.NoteOnEvent(tick=0, channel=0, data=[43, 38]),
   midi.NoteOnEvent(tick=120, channel=0, data=[43, 0]),
   midi.NoteOnEvent(tick=0, channel=0, data=[36, 44]),
   midi.NoteOnEvent(tick=29, channel=0, data=[36, 0]),
   midi.NoteOnEvent(tick=0, channel=0, data=[43, 39]),
   midi.NoteOnEvent(tick=120, channel=0, data=[48, 46]),
   midi.NoteOnEvent(tick=20, channel=0, data=[43, 0]),
   midi.NoteOnEvent(tick=100, channel=0, data=[50, 41]),
   midi.NoteOnEvent(tick=20, channel=0, data=[48, 0]),
   midi.NoteOnEvent(tick=100, channel=0, data=[52, 49]),
   midi.NoteOnEvent(tick=8, channel=0, data=[50, 0]),
   midi.NoteOnEvent(tick=100, channel=0, data=[50, 45]),
   midi.NoteOnEvent(tick=20, channel=0, data=[52, 0]),
   midi.NoteOnEvent(tick=100, channel=0, data=[48, 45]),
   midi.NoteOnEvent(tick=20, channel=0, data=[50, 0]),
   midi.NoteOnEvent(tick=100, channel=0, data=[57, 53]),
   midi.NoteOnEvent(tick=20, channel=0, data=[48, 0]),
   midi.NoteOnEvent(tick=100, channel=0, data=[55, 53]),
   midi.NoteOnEvent(tick=20, channel=0, data=[57, 0]),
   midi.NoteOnEvent(tick=100, channel=0, data=[53, 45]),
   midi.NoteOnEvent(tick=20, channel=0, data=[55, 0]),
   midi.NoteOnEvent(tick=100, channel=0, data=[52, 40]),
   midi.NoteOnEvent(tick=20, channel=0, data=[53, 0]),
   midi.NoteOnEvent(tick=100, channel=0, data=[50, 41]),
   midi.NoteOnEvent(tick=20, channel=0, data=[52, 0]),
   midi.NoteOnEvent(tick=100, channel=0, data=[48, 49]),
   midi.NoteOnEvent(tick=20, channel=0, data=[50, 0]),
   midi.NoteOnEvent(tick=100, channel=0, data=[50, 40]),
   midi.NoteOnEvent(tick=20, channel=0, data=[48, 0]),
   midi.NoteOnEvent(tick=100, channel=0, data=[52, 44]),
   midi.NoteOnEvent(tick=20, channel=0, data=[50, 0]),
   midi.NoteOnEvent(tick=100, channel=0, data=[43, 40]),
   midi.NoteOnEvent(tick=20, channel=0, data=[52, 0]),
   midi.NoteOnEvent(tick=100, channel=0, data=[36, 50]),
   midi.NoteOnEvent(tick=20, channel=0, data=[43, 0]),
   midi.NoteOnEvent(tick=74, channel=0, data=[43, 44]),
   midi.NoteOnEvent(tick=20, channel=0, data=[36, 0]),
   midi.NoteOnEvent(tick=100, channel=0, data=[48, 45]),
   midi.NoteOnEvent(tick=20, channel=0, data=[43, 0]),
   midi.NoteOnEvent(tick=100, channel=0, data=[50, 37]),
   midi.NoteOnEvent(tick=20, channel=0, data=[48, 0]),
   midi.NoteOnEvent(tick=100, channel=0, data=[52, 45]),
   midi.NoteOnEvent(tick=9, channel=0, data=[50, 0]),
   midi.NoteOnEvent(tick=100, channel=0, data=[50, 41]),
   midi.NoteOnEvent(tick=20, channel=0, data=[52, 0]),
   midi.NoteOnEvent(tick=100, channel=0, data=[48, 40]),
   midi.NoteOnEvent(tick=20, channel=0, data=[50, 0]),
   midi.NoteOnEvent(tick=100, channel=0, data=[57, 49]),
   midi.NoteOnEvent(tick=20, channel=0, data=[48, 0]),
   midi.NoteOnEvent(tick=100, channel=0, data=[55, 48]),
   midi.NoteOnEvent(tick=20, channel=0, data=[57, 0]),
   midi.NoteOnEvent(tick=100, channel=0, data=[53, 41]),
   midi.NoteOnEvent(tick=20, channel=0, data=[55, 0]),
   midi.NoteOnEvent(tick=100, channel=0, data=[52, 37]),
   midi.NoteOnEvent(tick=20, channel=0, data=[53, 0]),
   midi.NoteOnEvent(tick=100, channel=0, data=[50, 37]),
   midi.NoteOnEvent(tick=20, channel=0, data=[52, 0]),
   midi.NoteOnEvent(tick=100, channel=0, data=[48, 44]),
   midi.NoteOnEvent(tick=20, channel=0, data=[50, 0]),
   midi.NoteOnEvent(tick=100, channel=0, data=[50, 36]),
   midi.NoteOnEvent(tick=20, channel=0, data=[48, 0]),
   midi.NoteOnEvent(tick=100, channel=0, data=[52, 40]),
   midi.NoteOnEvent(tick=20, channel=0, data=[50, 0]),
   midi.NoteOnEvent(tick=100, channel=0, data=[43, 36]),
   midi.NoteOnEvent(tick=20, channel=0, data=[52, 0]),
   midi.NoteOnEvent(tick=100, channel=0, data=[36, 46]),
   midi.NoteOnEvent(tick=20, channel=0, data=[43, 0]),
   midi.NoteOnEvent(tick=63, channel=0, data=[36, 0]),
   midi.NoteOnEvent(tick=0, channel=0, data=[43, 40]),
   midi.NoteOnEvent(tick=120, channel=0, data=[43, 0]),
   midi.NoteOnEvent(tick=0, channel=0, data=[48, 42]),
   midi.NoteOnEvent(tick=120, channel=0, data=[48, 0]),
   midi.NoteOnEvent(tick=0, channel=0, data=[50, 34]),
   midi.NoteOnEvent(tick=120, channel=0, data=[50, 0]),
   midi.NoteOnEvent(tick=0, channel=0, data=[52, 42]),
   midi.NoteOnEvent(tick=120, channel=0, data=[52, 0]),
   midi.NoteOnEvent(tick=0, channel=0, data=[50, 39]),
   midi.NoteOnEvent(tick=120, channel=0, data=[50, 0]),
   midi.NoteOnEvent(tick=0, channel=0, data=[48, 39]),
   midi.NoteOnEvent(tick=120, channel=0, data=[48, 0]),
   midi.NoteOnEvent(tick=0, channel=0, data=[57, 48]),
   midi.NoteOnEvent(tick=120, channel=0, data=[57, 0]),
   midi.NoteOnEvent(tick=0, channel=0, data=[55, 48]),
   midi.NoteOnEvent(tick=45, channel=0, data=[55, 0]),
   midi.NoteOnEvent(tick=0, channel=0, data=[53, 41]),
   midi.NoteOnEvent(tick=120, channel=0, data=[53, 0]),
   midi.NoteOnEvent(tick=0, channel=0, data=[52, 37]),
   midi.NoteOnEvent(tick=120, channel=0, data=[52, 0]),
   midi.NoteOnEvent(tick=0, channel=0, data=[50, 39]),
   midi.NoteOnEvent(tick=120, channel=0, data=[50, 0]),
   midi.NoteOnEvent(tick=0, channel=0, data=[48, 46]),
   midi.NoteOnEvent(tick=120, channel=0, data=[48, 0]),
   midi.NoteOnEvent(tick=0, channel=0, data=[50, 39]),
   midi.NoteOnEvent(tick=120, channel=0, data=[50, 0]),
   midi.NoteOnEvent(tick=0, channel=0, data=[52, 42]),
   midi.NoteOnEvent(tick=120, channel=0, data=[52, 0]),
   midi.NoteOnEvent(tick=0, channel=0, data=[43, 39]),
   midi.NoteOnEvent(tick=120, channel=0, data=[43, 0]),
   midi.NoteOnEvent(tick=0, channel=0, data=[36, 50]),
   midi.NoteOnEvent(tick=63, channel=0, data=[36, 0]),
   midi.NoteOnEvent(tick=0, channel=0, data=[43, 44]),
   midi.NoteOnEvent(tick=120, channel=0, data=[43, 0]),
   midi.NoteOnEvent(tick=0, channel=0, data=[48, 48]),
   midi.NoteOnEvent(tick=120, channel=0, data=[48, 0]),
   midi.NoteOnEvent(tick=0, channel=0, data=[50, 40]),
   midi.NoteOnEvent(tick=120, channel=0, data=[50, 0]),
   midi.NoteOnEvent(tick=0, channel=0, data=[52, 50]),
   midi.NoteOnEvent(tick=120, channel=0, data=[52, 0]),
   midi.NoteOnEvent(tick=0, channel=0, data=[50, 48]),
   midi.NoteOnEvent(tick=120, channel=0, data=[50, 0]),
   midi.NoteOnEvent(tick=0, channel=0, data=[48, 49]),
   midi.NoteOnEvent(tick=120, channel=0, data=[48, 0]),
   midi.NoteOnEvent(tick=0, channel=0, data=[57, 63]),
   midi.NoteOnEvent(tick=120, channel=0, data=[57, 0]),
   midi.NoteOnEvent(tick=0, channel=0, data=[55, 63]),
   midi.NoteOnEvent(tick=23, channel=0, data=[55, 0]),
   midi.NoteOnEvent(tick=0, channel=0, data=[53, 52]),
   midi.NoteOnEvent(tick=120, channel=0, data=[53, 0]),
   midi.NoteOnEvent(tick=0, channel=0, data=[52, 46]),
   midi.NoteOnEvent(tick=120, channel=0, data=[52, 0]),
   midi.NoteOnEvent(tick=0, channel=0, data=[50, 46]),
   midi.NoteOnEvent(tick=120, channel=0, data=[50, 0]),
   midi.NoteOnEvent(tick=0, channel=0, data=[48, 55]),
   midi.NoteOnEvent(tick=120, channel=0, data=[48, 0]),
   midi.NoteOnEvent(tick=0, channel=0, data=[50, 44]),
   midi.NoteOnEvent(tick=120, channel=0, data=[50, 0]),
   midi.NoteOnEvent(tick=0, channel=0, data=[52, 48]),
   midi.NoteOnEvent(tick=120, channel=0, data=[52, 0]),
   midi.NoteOnEvent(tick=0, channel=0, data=[43, 42]),
   midi.NoteOnEvent(tick=120, channel=0, data=[43, 0]),
   midi.NoteOnEvent(tick=0, channel=0, data=[36, 56]),
   midi.NoteOnEvent(tick=64, channel=0, data=[36, 0]),
   midi.NoteOnEvent(tick=0, channel=0, data=[43, 48]),
   midi.NoteOnEvent(tick=120, channel=0, data=[43, 0]),
   midi.NoteOnEvent(tick=0, channel=0, data=[48, 50]),
   midi.NoteOnEvent(tick=120, channel=0, data=[48, 0]),
   midi.NoteOnEvent(tick=0, channel=0, data=[50, 41]),
   midi.NoteOnEvent(tick=120, channel=0, data=[50, 0]),
   midi.NoteOnEvent(tick=0, channel=0, data=[52, 49]),
   midi.NoteOnEvent(tick=110, channel=0, data=[50, 45]),
   midi.NoteOnEvent(tick=20, channel=0, data=[52, 0]),
   midi.NoteOnEvent(tick=100, channel=0, data=[48, 45]),
   midi.NoteOnEvent(tick=20, channel=0, data=[50, 0]),
   midi.NoteOnEvent(tick=100, channel=0, data=[57, 53]),
   midi.NoteOnEvent(tick=20, channel=0, data=[48, 0]),
   midi.NoteOnEvent(tick=100, channel=0, data=[55, 53]),
   midi.NoteOnEvent(tick=20, channel=0, data=[57, 0]),
   midi.NoteOnEvent(tick=100, channel=0, data=[54, 45]),
   midi.NoteOnEvent(tick=20, channel=0, data=[55, 0]),
   midi.NoteOnEvent(tick=100, channel=0, data=[52, 40]),
   midi.NoteOnEvent(tick=20, channel=0, data=[54, 0]),
   midi.NoteOnEvent(tick=100, channel=0, data=[50, 41]),
   midi.NoteOnEvent(tick=20, channel=0, data=[52, 0]),
   midi.NoteOnEvent(tick=100, channel=0, data=[48, 49]),
   midi.NoteOnEvent(tick=20, channel=0, data=[50, 0]),
   midi.NoteOnEvent(tick=100, channel=0, data=[50, 40]),
   midi.NoteOnEvent(tick=20, channel=0, data=[48, 0]),
   midi.NoteOnEvent(tick=100, channel=0, data=[52, 44]),
   midi.NoteOnEvent(tick=20, channel=0, data=[50, 0]),
   midi.NoteOnEvent(tick=100, channel=0, data=[43, 40]),
   midi.NoteOnEvent(tick=20, channel=0, data=[52, 0]),
   midi.NoteOnEvent(tick=100, channel=0, data=[36, 50]),
   midi.NoteOnEvent(tick=20, channel=0, data=[43, 0]),
   midi.NoteOnEvent(tick=63, channel=0, data=[36, 0]),
   midi.NoteOnEvent(tick=0, channel=0, data=[43, 44]),
   midi.NoteOnEvent(tick=120, channel=0, data=[43, 0]),
   midi.NoteOnEvent(tick=0, channel=0, data=[48, 45]),
   midi.NoteOnEvent(tick=120, channel=0, data=[48, 0]),
   midi.NoteOnEvent(tick=0, channel=0, data=[50, 37]),
   midi.NoteOnEvent(tick=120, channel=0, data=[50, 0]),
   midi.NoteOnEvent(tick=0, channel=0, data=[52, 45]),
   midi.NoteOnEvent(tick=106, channel=0, data=[50, 41]),
   midi.NoteOnEvent(tick=20, channel=0, data=[52, 0]),
   midi.NoteOnEvent(tick=100, channel=0, data=[48, 40]),
   midi.NoteOnEvent(tick=20, channel=0, data=[50, 0]),
   midi.NoteOnEvent(tick=100, channel=0, data=[57, 49]),
   midi.NoteOnEvent(tick=20, channel=0, data=[48, 0]),
   midi.NoteOnEvent(tick=100, channel=0, data=[55, 48]),
   midi.NoteOnEvent(tick=20, channel=0, data=[57, 0]),
   midi.NoteOnEvent(tick=100, channel=0, data=[54, 41]),
   midi.NoteOnEvent(tick=20, channel=0, data=[55, 0]),
   midi.NoteOnEvent(tick=100, channel=0, data=[52, 37]),
   midi.NoteOnEvent(tick=20, channel=0, data=[54, 0]),
   midi.NoteOnEvent(tick=100, channel=0, data=[50, 37]),
   midi.NoteOnEvent(tick=20, channel=0, data=[52, 0]),
   midi.NoteOnEvent(tick=100, channel=0, data=[48, 44]),
   midi.NoteOnEvent(tick=20, channel=0, data=[50, 0]),
   midi.NoteOnEvent(tick=100, channel=0, data=[50, 36]),
   midi.NoteOnEvent(tick=20, channel=0, data=[48, 0]),
   midi.NoteOnEvent(tick=100, channel=0, data=[52, 40]),
   midi.NoteOnEvent(tick=20, channel=0, data=[50, 0]),
   midi.NoteOnEvent(tick=100, channel=0, data=[43, 36]),
   midi.NoteOnEvent(tick=20, channel=0, data=[52, 0]),
   midi.NoteOnEvent(tick=100, channel=0, data=[38, 50]),
   midi.NoteOnEvent(tick=20, channel=0, data=[43, 0]),
   midi.NoteOnEvent(tick=49, channel=0, data=[38, 0]),
   midi.NoteOnEvent(tick=0, channel=0, data=[45, 44]),
   midi.NoteOnEvent(tick=120, channel=0, data=[45, 0]),
   midi.NoteOnEvent(tick=0, channel=0, data=[48, 45]),
   midi.NoteOnEvent(tick=120, channel=0, data=[48, 0]),
   midi.NoteOnEvent(tick=0, channel=0, data=[50, 37]),
   midi.NoteOnEvent(tick=120, channel=0, data=[50, 0]),
   midi.NoteOnEvent(tick=0, channel=0, data=[52, 45]),
   midi.NoteOnEvent(tick=120, channel=0, data=[52, 0]),
   midi.NoteOnEvent(tick=0, channel=0, data=[50, 41]),
   midi.NoteOnEvent(tick=120, channel=0, data=[50, 0]),
   midi.NoteOnEvent(tick=0, channel=0, data=[48, 40]),
   midi.NoteOnEvent(tick=120, channel=0, data=[48, 0]),
   midi.NoteOnEvent(tick=0, channel=0, data=[59, 49]),
   midi.NoteOnEvent(tick=120, channel=0, data=[59, 0]),
   midi.NoteOnEvent(tick=0, channel=0, data=[57, 48]),
   midi.NoteOnEvent(tick=106, channel=0, data=[55, 41]),
   midi.NoteOnEvent(tick=20, channel=0, data=[57, 0]),
   midi.NoteOnEvent(tick=100, channel=0, data=[52, 37]),
   midi.NoteOnEvent(tick=20, channel=0, data=[55, 0]),
   midi.NoteOnEvent(tick=100, channel=0, data=[50, 37]),
   midi.NoteOnEvent(tick=20, channel=0, data=[52, 0]),
   midi.NoteOnEvent(tick=100, channel=0, data=[48, 44]),
   midi.NoteOnEvent(tick=20, channel=0, data=[50, 0]),
   midi.NoteOnEvent(tick=100, channel=0, data=[50, 36]),
   midi.NoteOnEvent(tick=20, channel=0, data=[48, 0]),
   midi.NoteOnEvent(tick=100, channel=0, data=[52, 40]),
   midi.NoteOnEvent(tick=20, channel=0, data=[50, 0]),
   midi.NoteOnEvent(tick=100, channel=0, data=[45, 36]),
   midi.NoteOnEvent(tick=20, channel=0, data=[52, 0]),
   midi.NoteOnEvent(tick=100, channel=0, data=[38, 50]),
   midi.NoteOnEvent(tick=20, channel=0, data=[45, 0]),
   midi.NoteOnEvent(tick=74, channel=0, data=[38, 0]),
   midi.NoteOnEvent(tick=0, channel=0, data=[45, 44]),
   midi.NoteOnEvent(tick=120, channel=0, data=[45, 0]),
   midi.NoteOnEvent(tick=0, channel=0, data=[50, 45]),
   midi.NoteOnEvent(tick=120, channel=0, data=[50, 0]),
   midi.NoteOnEvent(tick=0, channel=0, data=[52, 37]),
   midi.NoteOnEvent(tick=120, channel=0, data=[52, 0]),
   midi.NoteOnEvent(tick=0, channel=0, data=[54, 45]),
   midi.NoteOnEvent(tick=109, channel=0, data=[52, 41]),
   midi.NoteOnEvent(tick=20, channel=0, data=[54, 0]),
   midi.NoteOnEvent(tick=100, channel=0, data=[50, 40]),
   midi.NoteOnEvent(tick=20, channel=0, data=[52, 0]),
   midi.NoteOnEvent(tick=100, channel=0, data=[59, 49]),
   midi.NoteOnEvent(tick=20, channel=0, data=[50, 0]),
   midi.NoteOnEvent(tick=100, channel=0, data=[57, 48]),
   midi.NoteOnEvent(tick=20, channel=0, data=[59, 0]),
   midi.NoteOnEvent(tick=100, channel=0, data=[55, 41]),
   midi.NoteOnEvent(tick=20, channel=0, data=[57, 0]),
   midi.NoteOnEvent(tick=100, channel=0, data=[54, 37]),
   midi.NoteOnEvent(tick=20, channel=0, data=[55, 0]),
   midi.NoteOnEvent(tick=100, channel=0, data=[52, 37]),
   midi.NoteOnEvent(tick=20, channel=0, data=[54, 0]),
   midi.NoteOnEvent(tick=100, channel=0, data=[50, 44]),
   midi.NoteOnEvent(tick=20, channel=0, data=[52, 0]),
   midi.NoteOnEvent(tick=100, channel=0, data=[52, 36]),
   midi.NoteOnEvent(tick=20, channel=0, data=[50, 0]),
   midi.NoteOnEvent(tick=100, channel=0, data=[54, 40]),
   midi.NoteOnEvent(tick=20, channel=0, data=[52, 0]),
   midi.NoteOnEvent(tick=100, channel=0, data=[45, 36]),
   midi.NoteOnEvent(tick=20, channel=0, data=[54, 0]),
   midi.NoteOnEvent(tick=100, channel=0, data=[43, 50]),
   midi.NoteOnEvent(tick=20, channel=0, data=[45, 0]),
   midi.NoteOnEvent(tick=56, channel=0, data=[43, 0]),
   midi.NoteOnEvent(tick=0, channel=0, data=[50, 44]),
   midi.NoteOnEvent(tick=120, channel=0, data=[50, 0]),
   midi.NoteOnEvent(tick=0, channel=0, data=[55, 45]),
   midi.NoteOnEvent(tick=120, channel=0, data=[55, 0]),
   midi.NoteOnEvent(tick=0, channel=0, data=[57, 37]),
   midi.NoteOnEvent(tick=120, channel=0, data=[57, 0]),
   midi.NoteOnEvent(tick=0, channel=0, data=[59, 45]),
   midi.NoteOnEvent(tick=106, channel=0, data=[57, 41]),
   midi.NoteOnEvent(tick=20, channel=0, data=[59, 0]),
   midi.NoteOnEvent(tick=100, channel=0, data=[55, 40]),
   midi.NoteOnEvent(tick=20, channel=0, data=[57, 0]),
   midi.NoteOnEvent(tick=100, channel=0, data=[64, 49]),
   midi.NoteOnEvent(tick=20, channel=0, data=[55, 0]),
   midi.NoteOnEvent(tick=100, channel=0, data=[62, 48]),
   midi.NoteOnEvent(tick=20, channel=0, data=[64, 0]),
   midi.NoteOnEvent(tick=100, channel=0, data=[60, 41]),
   midi.NoteOnEvent(tick=20, channel=0, data=[62, 0]),
   midi.NoteOnEvent(tick=100, channel=0, data=[59, 37]),
   midi.NoteOnEvent(tick=20, channel=0, data=[60, 0]),
   midi.NoteOnEvent(tick=100, channel=0, data=[57, 37]),
   midi.NoteOnEvent(tick=20, channel=0, data=[59, 0]),
   midi.NoteOnEvent(tick=100, channel=0, data=[55, 44]),
   midi.NoteOnEvent(tick=20, channel=0, data=[57, 0]),
   midi.NoteOnEvent(tick=100, channel=0, data=[57, 36]),
   midi.NoteOnEvent(tick=20, channel=0, data=[55, 0]),
   midi.NoteOnEvent(tick=100, channel=0, data=[59, 40]),
   midi.NoteOnEvent(tick=20, channel=0, data=[57, 0]),
   midi.NoteOnEvent(tick=100, channel=0, data=[50, 36]),
   midi.NoteOnEvent(tick=20, channel=0, data=[59, 0]),
   midi.NoteOnEvent(tick=100, channel=0, data=[43, 50]),
   midi.NoteOnEvent(tick=20, channel=0, data=[50, 0]),
   midi.NoteOnEvent(tick=63, channel=0, data=[43, 0]),
   midi.NoteOnEvent(tick=0, channel=0, data=[50, 44]),
   midi.NoteOnEvent(tick=120, channel=0, data=[50, 0]),
   midi.NoteOnEvent(tick=0, channel=0, data=[55, 45]),
   midi.NoteOnEvent(tick=120, channel=0, data=[55, 0]),
   midi.NoteOnEvent(tick=0, channel=0, data=[57, 37]),
   midi.NoteOnEvent(tick=120, channel=0, data=[57, 0]),
   midi.NoteOnEvent(tick=0, channel=0, data=[59, 45]),
   midi.NoteOnEvent(tick=120, channel=0, data=[59, 0]),
   midi.NoteOnEvent(tick=0, channel=0, data=[57, 41]),
   midi.NoteOnEvent(tick=120, channel=0, data=[57, 0]),
   midi.NoteOnEvent(tick=0, channel=0, data=[55, 40]),
   midi.NoteOnEvent(tick=120, channel=0, data=[55, 0]),
   midi.NoteOnEvent(tick=0, channel=0, data=[64, 49]),
   midi.NoteOnEvent(tick=120, channel=0, data=[64, 0]),
   midi.NoteOnEvent(tick=0, channel=0, data=[62, 48]),
   midi.NoteOnEvent(tick=60, channel=0, data=[62, 0]),
   midi.NoteOnEvent(tick=0, channel=0, data=[60, 41]),
   midi.NoteOnEvent(tick=120, channel=0, data=[60, 0]),
   midi.NoteOnEvent(tick=0, channel=0, data=[59, 37]),
   midi.NoteOnEvent(tick=120, channel=0, data=[59, 0]),
   midi.NoteOnEvent(tick=0, channel=0, data=[57, 37]),
   midi.NoteOnEvent(tick=120, channel=0, data=[57, 0]),
   midi.NoteOnEvent(tick=0, channel=0, data=[55, 44]),
   midi.NoteOnEvent(tick=120, channel=0, data=[55, 0]),
   midi.NoteOnEvent(tick=0, channel=0, data=[57, 36]),
   midi.NoteOnEvent(tick=120, channel=0, data=[57, 0]),
   midi.NoteOnEvent(tick=0, channel=0, data=[59, 40]),
   midi.NoteOnEvent(tick=120, channel=0, data=[59, 0]),
   midi.NoteOnEvent(tick=0, channel=0, data=[50, 36]),
   midi.NoteOnEvent(tick=120, channel=0, data=[50, 0]),
   midi.NoteOnEvent(tick=0, channel=0, data=[43, 40]),
   midi.NoteOnEvent(tick=98, channel=0, data=[43, 0]),
   midi.NoteOnEvent(tick=12, channel=0, data=[50, 34]),
   midi.NoteOnEvent(tick=108, channel=0, data=[50, 0]),
   midi.NoteOnEvent(tick=12, channel=0, data=[55, 37]),
   midi.NoteOnEvent(tick=108, channel=0, data=[55, 0]),
   midi.NoteOnEvent(tick=12, channel=0, data=[57, 30]),
   midi.NoteOnEvent(tick=108, channel=0, data=[57, 0]),
   midi.NoteOnEvent(tick=12, channel=0, data=[59, 37]),
   midi.NoteOnEvent(tick=108, channel=0, data=[59, 0]),
   midi.NoteOnEvent(tick=12, channel=0, data=[57, 33]),
   midi.NoteOnEvent(tick=108, channel=0, data=[57, 0]),
   midi.NoteOnEvent(tick=12, channel=0, data=[55, 33]),
   midi.NoteOnEvent(tick=108, channel=0, data=[55, 0]),
   midi.NoteOnEvent(tick=12, channel=0, data=[64, 40]),
   midi.NoteOnEvent(tick=108, channel=0, data=[64, 0]),
   midi.NoteOnEvent(tick=12, channel=0, data=[62, 40]),
   midi.NoteOnEvent(tick=108, channel=0, data=[62, 0]),
   midi.NoteOnEvent(tick=12, channel=0, data=[60, 34]),
   midi.NoteOnEvent(tick=108, channel=0, data=[60, 0]),
   midi.NoteOnEvent(tick=12, channel=0, data=[59, 31]),
   midi.NoteOnEvent(tick=108, channel=0, data=[59, 0]),
   midi.NoteOnEvent(tick=12, channel=0, data=[57, 33]),
   midi.NoteOnEvent(tick=108, channel=0, data=[57, 0]),
   midi.NoteOnEvent(tick=12, channel=0, data=[55, 38]),
   midi.NoteOnEvent(tick=108, channel=0, data=[55, 0]),
   midi.NoteOnEvent(tick=12, channel=0, data=[57, 31]),
   midi.NoteOnEvent(tick=108, channel=0, data=[57, 0]),
   midi.NoteOnEvent(tick=12, channel=0, data=[59, 34]),
   midi.NoteOnEvent(tick=108, channel=0, data=[59, 0]),
   midi.NoteOnEvent(tick=12, channel=0, data=[50, 31]),
   midi.NoteOnEvent(tick=108, channel=0, data=[50, 0]),
   midi.NoteOnEvent(tick=12, channel=0, data=[43, 40]),
   midi.NoteOnEvent(tick=108, channel=0, data=[43, 0]),
   midi.NoteOnEvent(tick=12, channel=0, data=[50, 34]),
   midi.NoteOnEvent(tick=108, channel=0, data=[50, 0]),
   midi.NoteOnEvent(tick=12, channel=0, data=[55, 37]),
   midi.NoteOnEvent(tick=108, channel=0, data=[55, 0]),
   midi.NoteOnEvent(tick=12, channel=0, data=[57, 30]),
   midi.NoteOnEvent(tick=108, channel=0, data=[57, 0]),
   midi.NoteOnEvent(tick=12, channel=0, data=[59, 37]),
   midi.NoteOnEvent(tick=108, channel=0, data=[59, 0]),
   midi.NoteOnEvent(tick=12, channel=0, data=[57, 33]),
   midi.NoteOnEvent(tick=108, channel=0, data=[57, 0]),
   midi.NoteOnEvent(tick=12, channel=0, data=[55, 33]),
   midi.NoteOnEvent(tick=108, channel=0, data=[55, 0]),
   midi.NoteOnEvent(tick=12, channel=0, data=[64, 40]),
   midi.NoteOnEvent(tick=108, channel=0, data=[64, 0]),
   midi.NoteOnEvent(tick=12, channel=0, data=[62, 40]),
   midi.NoteOnEvent(tick=108, channel=0, data=[62, 0]),
   midi.NoteOnEvent(tick=12, channel=0, data=[60, 34]),
   midi.NoteOnEvent(tick=108, channel=0, data=[60, 0]),
   midi.NoteOnEvent(tick=12, channel=0, data=[59, 31]),
   midi.NoteOnEvent(tick=108, channel=0, data=[59, 0]),
   midi.NoteOnEvent(tick=12, channel=0, data=[57, 33]),
   midi.NoteOnEvent(tick=108, channel=0, data=[57, 0]),
   midi.NoteOnEvent(tick=12, channel=0, data=[55, 38]),
   midi.NoteOnEvent(tick=108, channel=0, data=[55, 0]),
   midi.NoteOnEvent(tick=12, channel=0, data=[57, 31]),
   midi.NoteOnEvent(tick=108, channel=0, data=[57, 0]),
   midi.NoteOnEvent(tick=12, channel=0, data=[59, 34]),
   midi.NoteOnEvent(tick=108, channel=0, data=[59, 0]),
   midi.NoteOnEvent(tick=12, channel=0, data=[50, 31]),
   midi.NoteOnEvent(tick=108, channel=0, data=[50, 0]),
   midi.NoteOnEvent(tick=12, channel=0, data=[43, 40]),
   midi.NoteOnEvent(tick=108, channel=0, data=[43, 0]),
   midi.NoteOnEvent(tick=12, channel=0, data=[50, 34]),
   midi.NoteOnEvent(tick=108, channel=0, data=[50, 0]),
   midi.NoteOnEvent(tick=12, channel=0, data=[55, 37]),
   midi.NoteOnEvent(tick=108, channel=0, data=[55, 0]),
   midi.NoteOnEvent(tick=12, channel=0, data=[57, 30]),
   midi.NoteOnEvent(tick=108, channel=0, data=[57, 0]),
   midi.NoteOnEvent(tick=12, channel=0, data=[55, 37]),
   midi.NoteOnEvent(tick=108, channel=0, data=[55, 0]),
   midi.NoteOnEvent(tick=12, channel=0, data=[57, 33]),
   midi.NoteOnEvent(tick=108, channel=0, data=[57, 0]),
   midi.NoteOnEvent(tick=12, channel=0, data=[59, 33]),
   midi.NoteOnEvent(tick=108, channel=0, data=[59, 0]),
   midi.NoteOnEvent(tick=12, channel=0, data=[50, 40]),
   midi.NoteOnEvent(tick=108, channel=0, data=[50, 0]),
   midi.NoteOnEvent(tick=12, channel=0, data=[43, 40]),
   midi.NoteOnEvent(tick=108, channel=0, data=[43, 0]),
   midi.NoteOnEvent(tick=12, channel=0, data=[50, 34]),
   midi.NoteOnEvent(tick=108, channel=0, data=[50, 0]),
   midi.NoteOnEvent(tick=12, channel=0, data=[55, 31]),
   midi.NoteOnEvent(tick=108, channel=0, data=[55, 0]),
   midi.NoteOnEvent(tick=12, channel=0, data=[57, 33]),
   midi.NoteOnEvent(tick=108, channel=0, data=[57, 0]),
   midi.NoteOnEvent(tick=12, channel=0, data=[55, 38]),
   midi.NoteOnEvent(tick=108, channel=0, data=[55, 0]),
   midi.NoteOnEvent(tick=12, channel=0, data=[57, 31]),
   midi.NoteOnEvent(tick=108, channel=0, data=[57, 0]),
   midi.NoteOnEvent(tick=12, channel=0, data=[59, 34]),
   midi.NoteOnEvent(tick=108, channel=0, data=[59, 0]),
   midi.NoteOnEvent(tick=12, channel=0, data=[50, 31]),
   midi.NoteOnEvent(tick=108, channel=0, data=[50, 0]),
   midi.NoteOnEvent(tick=12, channel=0, data=[43, 40]),
   midi.NoteOnEvent(tick=65, channel=0, data=[43, 0]),
   midi.NoteOnEvent(tick=12, channel=0, data=[50, 34]),
   midi.NoteOnEvent(tick=108, channel=0, data=[50, 0]),
   midi.NoteOnEvent(tick=12, channel=0, data=[55, 37]),
   midi.NoteOnEvent(tick=108, channel=0, data=[55, 0]),
   midi.NoteOnEvent(tick=12, channel=0, data=[57, 30]),
   midi.NoteOnEvent(tick=108, channel=0, data=[57, 0]),
   midi.NoteOnEvent(tick=12, channel=0, data=[55, 37]),
   midi.NoteOnEvent(tick=108, channel=0, data=[55, 0]),
   midi.NoteOnEvent(tick=12, channel=0, data=[57, 33]),
   midi.NoteOnEvent(tick=108, channel=0, data=[57, 0]),
   midi.NoteOnEvent(tick=12, channel=0, data=[59, 31]),
   midi.NoteOnEvent(tick=108, channel=0, data=[59, 0]),
   midi.NoteOnEvent(tick=12, channel=0, data=[62, 38]),
   midi.NoteOnEvent(tick=108, channel=0, data=[62, 0]),
   midi.NoteOnEvent(tick=12, channel=0, data=[67, 37]),
   midi.NoteOnEvent(tick=120, channel=0, data=[67, 0]),
   midi.NoteOnEvent(tick=0, channel=0, data=[69, 31]),
   midi.NoteOnEvent(tick=120, channel=0, data=[69, 0]),
   midi.NoteOnEvent(tick=0, channel=0, data=[71, 38]),
   midi.NoteOnEvent(tick=120, channel=0, data=[71, 0]),
   midi.NoteOnEvent(tick=0, channel=0, data=[74, 31]),
   midi.NoteOnEvent(tick=120, channel=0, data=[74, 0]),
   midi.NoteOnEvent(tick=0, channel=0, data=[79, 34]),
   midi.NoteOnEvent(tick=120, channel=0, data=[79, 0]),
   midi.NoteOnEvent(tick=0, channel=0, data=[81, 33]),
   midi.NoteOnEvent(tick=120, channel=0, data=[81, 0]),
   midi.NoteOnEvent(tick=0, channel=0, data=[83, 31]),
   midi.NoteOnEvent(tick=120, channel=0, data=[83, 0]),
   midi.NoteOnEvent(tick=0, channel=0, data=[86, 30]),
   midi.NoteOnEvent(tick=120, channel=0, data=[86, 0]),
   midi.NoteOnEvent(tick=0, channel=0, data=[83, 40]),
   midi.NoteOnEvent(tick=293, channel=0, data=[83, 0]),
   midi.NoteOnEvent(tick=25, channel=0, data=[43, 31]),
   midi.NoteOnEvent(tick=30, channel=0, data=[50, 33]),
   midi.NoteOnEvent(tick=30, channel=0, data=[55, 36]),
   midi.NoteOnEvent(tick=1080, channel=0, data=[55, 0]),
   midi.NoteOnEvent(tick=0, channel=0, data=[50, 0]),
   midi.NoteOnEvent(tick=0, channel=0, data=[43, 0]),
   midi.NoteOnEvent(tick=0, channel=0, data=[43, 27]),
   midi.NoteOnEvent(tick=30, channel=0, data=[50, 30]),
   midi.NoteOnEvent(tick=30, channel=0, data=[55, 35]),
   midi.NoteOnEvent(tick=1860, channel=0, data=[55, 0]),
   midi.NoteOnEvent(tick=0, channel=0, data=[50, 0]),
   midi.NoteOnEvent(tick=0, channel=0, data=[43, 0]),
   midi.EndOfTrackEvent(tick=0, data=[])])])
midi.write_midifile("creationMidi.mid", pattern)