midi.Pattern(format=1, resolution=480, tracks=\
[midi.Track(\
  [midi.TrackNameEvent(tick=0, text='Debussy: Childrens Corner 2', data=[68, 101, 98, 117, 115, 115, 121, 58, 32, 67, 104, 105, 108, 100, 114, 101, 110, 115, 32, 67, 111, 114, 110, 101, 114, 32, 50]),
   midi.TrackNameEvent(tick=0, text="Jimbo's Lullaby", data=[74, 105, 109, 98, 111, 39, 115, 32, 76, 117, 108, 108, 97, 98, 121]),
   midi.CopyrightMetaEvent(tick=0, text='Copyright © 2011 by Bernd Krueger', data=[67, 111, 112, 121, 114, 105, 103, 104, 116, 32, 169, 32, 50, 48, 49, 49, 32, 98, 121, 32, 66, 101, 114, 110, 100, 32, 75, 114, 117, 101, 103, 101, 114]),
   midi.TextMetaEvent(tick=0, text='Bernd Krueger', data=[66, 101, 114, 110, 100, 32, 75, 114, 117, 101, 103, 101, 114]),
   midi.TextMetaEvent(tick=0, text='Erstellt: 24.4.2011\n', data=[69, 114, 115, 116, 101, 108, 108, 116, 58, 32, 50, 52, 46, 52, 46, 50, 48, 49, 49, 10]),
   midi.TextMetaEvent(tick=0, text='Dauer: 3:09 Minuten\n', data=[68, 97, 117, 101, 114, 58, 32, 51, 58, 48, 57, 32, 77, 105, 110, 117, 116, 101, 110, 10]),
   midi.TimeSignatureEvent(tick=0, data=[2, 1, 48, 8]),
   midi.KeySignatureEvent(tick=0, data=[254, 0]),
   midi.SetTempoEvent(tick=0, data=[9, 226, 58]),
   midi.SetTempoEvent(tick=1440, data=[9, 35, 198]),
   midi.SetTempoEvent(tick=480, data=[9, 120, 124]),
   midi.SetTempoEvent(tick=240, data=[10, 175, 202]),
   midi.SetTempoEvent(tick=240, data=[9, 225, 35]),
   midi.SetTempoEvent(tick=960, data=[9, 145, 212]),
   midi.SetTempoEvent(tick=720, data=[10, 24, 236]),
   midi.SetTempoEvent(tick=240, data=[9, 145, 212]),
   midi.SetTempoEvent(tick=480, data=[9, 184, 218]),
   midi.SetTempoEvent(tick=480, data=[9, 145, 212]),
   midi.SetTempoEvent(tick=3840, data=[9, 47, 131]),
   midi.SetTempoEvent(tick=480, data=[9, 47, 131]),
   midi.SetTempoEvent(tick=240, data=[10, 10, 191]),
   midi.SetTempoEvent(tick=240, data=[9, 145, 212]),
   midi.SetTempoEvent(tick=960, data=[9, 95, 170]),
   midi.SetTempoEvent(tick=240, data=[9, 225, 35]),
   midi.SetTempoEvent(tick=240, data=[9, 184, 218]),
   midi.SetTempoEvent(tick=480, data=[9, 133, 23]),
   midi.SetTempoEvent(tick=480, data=[9, 198, 35]),
   midi.SetTempoEvent(tick=480, data=[10, 24, 236]),
   midi.SetTempoEvent(tick=480, data=[9, 133, 23]),
   midi.SetTempoEvent(tick=480, data=[9, 238, 219]),
   midi.SetTempoEvent(tick=480, data=[10, 224, 139]),
   midi.SetTempoEvent(tick=480, data=[13, 36, 19]),
   midi.SetTempoEvent(tick=480, data=[9, 171, 181]),
   midi.SetTempoEvent(tick=3840, data=[9, 108, 3]),
   midi.SetTempoEvent(tick=480, data=[9, 171, 181]),
   midi.SetTempoEvent(tick=1440, data=[9, 120, 124]),
   midi.SetTempoEvent(tick=480, data=[9, 171, 181]),
   midi.SetTempoEvent(tick=1440, data=[9, 120, 124]),
   midi.SetTempoEvent(tick=480, data=[9, 198, 35]),
   midi.SetTempoEvent(tick=480, data=[9, 184, 218]),
   midi.SetTempoEvent(tick=960, data=[9, 158, 179]),
   midi.SetTempoEvent(tick=480, data=[10, 24, 236]),
   midi.SetTempoEvent(tick=480, data=[9, 225, 35]),
   midi.SetTempoEvent(tick=2880, data=[10, 24, 236]),
   midi.SetTempoEvent(tick=2880, data=[11, 125, 211]),
   midi.SetTempoEvent(tick=960, data=[11, 240, 239]),
   midi.SetTempoEvent(tick=1440, data=[18, 8, 104]),
   midi.SetTempoEvent(tick=480, data=[10, 68, 104]),
   midi.SetTempoEvent(tick=960, data=[9, 117, 251]),
   midi.SetTempoEvent(tick=480, data=[10, 65, 118]),
   midi.SetTempoEvent(tick=1440, data=[9, 143, 69]),
   midi.SetTempoEvent(tick=480, data=[10, 65, 118]),
   midi.SetTempoEvent(tick=480, data=[9, 226, 58]),
   midi.SetTempoEvent(tick=1440, data=[9, 35, 198]),
   midi.SetTempoEvent(tick=480, data=[9, 120, 124]),
   midi.SetTempoEvent(tick=240, data=[11, 15, 164]),
   midi.SetTempoEvent(tick=240, data=[9, 225, 35]),
   midi.SetTempoEvent(tick=960, data=[9, 145, 212]),
   midi.SetTempoEvent(tick=480, data=[9, 56, 252]),
   midi.SetTempoEvent(tick=240, data=[10, 24, 236]),
   midi.SetTempoEvent(tick=240, data=[9, 145, 212]),
   midi.SetTempoEvent(tick=480, data=[9, 184, 218]),
   midi.SetTempoEvent(tick=480, data=[10, 65, 118]),
   midi.SetTempoEvent(tick=480, data=[9, 117, 251]),
   midi.SetTempoEvent(tick=1440, data=[9, 47, 131]),
   midi.SetTempoEvent(tick=480, data=[9, 47, 131]),
   midi.SetTempoEvent(tick=240, data=[10, 156, 195]),
   midi.SetTempoEvent(tick=240, data=[9, 145, 212]),
   midi.SetTempoEvent(tick=960, data=[9, 95, 170]),
   midi.SetTempoEvent(tick=240, data=[9, 145, 212]),
   midi.SetTempoEvent(tick=240, data=[9, 184, 218]),
   midi.SetTempoEvent(tick=480, data=[9, 133, 23]),
   midi.SetTempoEvent(tick=480, data=[9, 198, 35]),
   midi.SetTempoEvent(tick=480, data=[9, 238, 219]),
   midi.SetTempoEvent(tick=480, data=[8, 254, 253]),
   midi.SetTempoEvent(tick=240, data=[9, 130, 143]),
   midi.SetTempoEvent(tick=240, data=[9, 238, 219]),
   midi.SetTempoEvent(tick=480, data=[9, 171, 181]),
   midi.SetTempoEvent(tick=480, data=[11, 19, 17]),
   midi.SetTempoEvent(tick=480, data=[9, 171, 181]),
   midi.SetTempoEvent(tick=960, data=[9, 45, 39]),
   midi.SetTempoEvent(tick=480, data=[9, 169, 24]),
   midi.SetTempoEvent(tick=960, data=[9, 10, 92]),
   midi.SetTempoEvent(tick=480, data=[9, 171, 181]),
   midi.SetTempoEvent(tick=960, data=[9, 171, 181]),
   midi.SetTempoEvent(tick=473, data=[9, 95, 170]),
   midi.SetTempoEvent(tick=7, data=[9, 56, 252]),
   midi.SetTempoEvent(tick=473, data=[9, 171, 181]),
   midi.SetTempoEvent(tick=7, data=[8, 199, 197]),
   midi.SetTempoEvent(tick=480, data=[8, 106, 199]),
   midi.SetTempoEvent(tick=240, data=[10, 110, 85]),
   midi.SetTempoEvent(tick=240, data=[9, 171, 181]),
   midi.SetTempoEvent(tick=480, data=[8, 181, 98]),
   midi.SetTempoEvent(tick=480, data=[9, 171, 181]),
   midi.SetTempoEvent(tick=960, data=[9, 171, 181]),
   midi.SetTempoEvent(tick=473, data=[9, 95, 170]),
   midi.SetTempoEvent(tick=7, data=[9, 36, 181]),
   midi.SetTempoEvent(tick=473, data=[9, 171, 181]),
   midi.SetTempoEvent(tick=7, data=[9, 12, 165]),
   midi.SetTempoEvent(tick=480, data=[9, 184, 218]),
   midi.SetTempoEvent(tick=480, data=[8, 223, 188]),
   midi.SetTempoEvent(tick=480, data=[8, 191, 46]),
   midi.SetTempoEvent(tick=240, data=[9, 68, 240]),
   midi.SetTempoEvent(tick=240, data=[8, 212, 200]),
   midi.SetTempoEvent(tick=960, data=[9, 1, 65]),
   midi.SetTempoEvent(tick=480, data=[8, 180, 137]),
   midi.SetTempoEvent(tick=480, data=[9, 120, 124]),
   midi.SetTempoEvent(tick=480, data=[8, 223, 188]),
   midi.SetTempoEvent(tick=480, data=[8, 223, 188]),
   midi.SetTempoEvent(tick=480, data=[8, 80, 43]),
   midi.SetTempoEvent(tick=480, data=[8, 5, 148]),
   midi.SetTempoEvent(tick=240, data=[8, 80, 43]),
   midi.SetTempoEvent(tick=240, data=[8, 169, 253]),
   midi.SetTempoEvent(tick=240, data=[8, 245, 249]),
   midi.SetTempoEvent(tick=240, data=[9, 1, 65]),
   midi.SetTempoEvent(tick=480, data=[8, 180, 137]),
   midi.SetTempoEvent(tick=480, data=[9, 59, 94]),
   midi.SetTempoEvent(tick=480, data=[8, 223, 188]),
   midi.SetTempoEvent(tick=480, data=[9, 24, 39]),
   midi.SetTempoEvent(tick=480, data=[8, 223, 188]),
   midi.SetTempoEvent(tick=960, data=[9, 47, 131]),
   midi.SetTempoEvent(tick=480, data=[8, 223, 188]),
   midi.SetTempoEvent(tick=1440, data=[9, 83, 113]),
   midi.SetTempoEvent(tick=480, data=[7, 151, 228]),
   midi.SetTempoEvent(tick=1920, data=[7, 151, 228]),
   midi.SetTempoEvent(tick=1903, data=[7, 191, 95]),
   midi.SetTempoEvent(tick=10, data=[7, 168, 38]),
   midi.SetTempoEvent(tick=96, data=[7, 159, 253]),
   midi.SetTempoEvent(tick=96, data=[7, 151, 228]),
   midi.SetTempoEvent(tick=96, data=[7, 143, 221]),
   midi.SetTempoEvent(tick=96, data=[7, 135, 231]),
   midi.SetTempoEvent(tick=96, data=[7, 128, 1]),
   midi.SetTempoEvent(tick=96, data=[7, 120, 44]),
   midi.SetTempoEvent(tick=96, data=[7, 112, 103]),
   midi.SetTempoEvent(tick=96, data=[7, 104, 179]),
   midi.SetTempoEvent(tick=96, data=[7, 97, 14]),
   midi.SetTempoEvent(tick=96, data=[7, 89, 121]),
   midi.SetTempoEvent(tick=96, data=[7, 81, 243]),
   midi.SetTempoEvent(tick=96, data=[7, 74, 125]),
   midi.SetTempoEvent(tick=96, data=[7, 67, 22]),
   midi.SetTempoEvent(tick=96, data=[7, 59, 190]),
   midi.SetTempoEvent(tick=96, data=[7, 52, 117]),
   midi.SetTempoEvent(tick=96, data=[7, 45, 58]),
   midi.SetTempoEvent(tick=96, data=[7, 38, 14]),
   midi.SetTempoEvent(tick=96, data=[7, 30, 240]),
   midi.SetTempoEvent(tick=96, data=[7, 23, 224]),
   midi.SetTempoEvent(tick=96, data=[7, 3, 4]),
   midi.SetTempoEvent(tick=120, data=[7, 9, 234]),
   midi.SetTempoEvent(tick=96, data=[7, 16, 222]),
   midi.SetTempoEvent(tick=96, data=[7, 23, 224]),
   midi.SetTempoEvent(tick=96, data=[7, 30, 240]),
   midi.SetTempoEvent(tick=120, data=[7, 38, 14]),
   midi.SetTempoEvent(tick=96, data=[7, 45, 58]),
   midi.SetTempoEvent(tick=96, data=[7, 52, 117]),
   midi.SetTempoEvent(tick=96, data=[7, 59, 190]),
   midi.SetTempoEvent(tick=96, data=[7, 67, 22]),
   midi.SetTempoEvent(tick=120, data=[7, 74, 125]),
   midi.SetTempoEvent(tick=96, data=[7, 81, 243]),
   midi.SetTempoEvent(tick=96, data=[7, 89, 121]),
   midi.SetTempoEvent(tick=96, data=[7, 97, 14]),
   midi.SetTempoEvent(tick=96, data=[7, 104, 179]),
   midi.SetTempoEvent(tick=120, data=[7, 112, 103]),
   midi.SetTempoEvent(tick=96, data=[7, 120, 44]),
   midi.SetTempoEvent(tick=55, data=[8, 100, 217]),
   midi.SetTempoEvent(tick=233, data=[7, 159, 253]),
   midi.SetTempoEvent(tick=1447, data=[7, 96, 36]),
   midi.SetTempoEvent(tick=449, data=[7, 168, 38]),
   midi.SetTempoEvent(tick=24, data=[7, 159, 253]),
   midi.SetTempoEvent(tick=7, data=[7, 175, 99]),
   midi.SetTempoEvent(tick=17, data=[7, 168, 38]),
   midi.SetTempoEvent(tick=1423, data=[7, 81, 13]),
   midi.SetTempoEvent(tick=240, data=[7, 167, 42]),
   midi.SetTempoEvent(tick=221, data=[7, 153, 129]),
   midi.SetTempoEvent(tick=60, data=[7, 151, 228]),
   midi.SetTempoEvent(tick=144, data=[7, 143, 221]),
   midi.SetTempoEvent(tick=120, data=[7, 135, 231]),
   midi.SetTempoEvent(tick=144, data=[7, 128, 1]),
   midi.SetTempoEvent(tick=120, data=[7, 120, 44]),
   midi.SetTempoEvent(tick=144, data=[7, 112, 103]),
   midi.SetTempoEvent(tick=120, data=[7, 104, 179]),
   midi.SetTempoEvent(tick=144, data=[7, 97, 14]),
   midi.SetTempoEvent(tick=120, data=[7, 89, 121]),
   midi.SetTempoEvent(tick=144, data=[7, 81, 243]),
   midi.SetTempoEvent(tick=120, data=[7, 74, 125]),
   midi.SetTempoEvent(tick=144, data=[7, 67, 22]),
   midi.SetTempoEvent(tick=120, data=[7, 59, 190]),
   midi.SetTempoEvent(tick=144, data=[7, 52, 117]),
   midi.SetTempoEvent(tick=120, data=[7, 45, 58]),
   midi.SetTempoEvent(tick=264, data=[7, 38, 14]),
   midi.SetTempoEvent(tick=240, data=[7, 30, 240]),
   midi.SetTempoEvent(tick=240, data=[7, 23, 224]),
   midi.SetTempoEvent(tick=240, data=[7, 16, 222]),
   midi.SetTempoEvent(tick=240, data=[7, 9, 234]),
   midi.SetTempoEvent(tick=240, data=[7, 3, 4]),
   midi.SetTempoEvent(tick=240, data=[6, 252, 43]),
   midi.SetTempoEvent(tick=240, data=[6, 245, 95]),
   midi.SetTempoEvent(tick=7, data=[7, 125, 126]),
   midi.SetTempoEvent(tick=240, data=[7, 79, 142]),
   midi.SetTempoEvent(tick=720, data=[7, 133, 94]),
   midi.SetTempoEvent(tick=240, data=[7, 87, 15]),
   midi.SetTempoEvent(tick=720, data=[7, 125, 126]),
   midi.SetTempoEvent(tick=240, data=[7, 79, 142]),
   midi.SetTempoEvent(tick=720, data=[7, 133, 94]),
   midi.SetTempoEvent(tick=240, data=[7, 87, 15]),
   midi.SetTempoEvent(tick=720, data=[7, 125, 126]),
   midi.SetTempoEvent(tick=240, data=[7, 47, 63]),
   midi.SetTempoEvent(tick=720, data=[7, 133, 94]),
   midi.SetTempoEvent(tick=240, data=[7, 47, 63]),
   midi.SetTempoEvent(tick=720, data=[7, 125, 126]),
   midi.SetTempoEvent(tick=240, data=[7, 54, 125]),
   midi.SetTempoEvent(tick=720, data=[7, 133, 94]),
   midi.SetTempoEvent(tick=240, data=[7, 87, 15]),
   midi.SetTempoEvent(tick=720, data=[7, 125, 126]),
   midi.SetTempoEvent(tick=240, data=[7, 47, 63]),
   midi.SetTempoEvent(tick=720, data=[7, 54, 125]),
   midi.SetTempoEvent(tick=240, data=[7, 47, 63]),
   midi.SetTempoEvent(tick=720, data=[7, 125, 126]),
   midi.SetTempoEvent(tick=240, data=[7, 54, 125]),
   midi.SetTempoEvent(tick=720, data=[7, 69, 39]),
   midi.SetTempoEvent(tick=240, data=[7, 87, 15]),
   midi.SetTempoEvent(tick=480, data=[8, 161, 160]),
   midi.SetTempoEvent(tick=240, data=[7, 84, 13]),
   midi.SetTempoEvent(tick=480, data=[7, 18, 211]),
   midi.SetTempoEvent(tick=1440, data=[7, 84, 13]),
   midi.SetTempoEvent(tick=480, data=[7, 54, 125]),
   midi.SetTempoEvent(tick=480, data=[6, 254, 20]),
   midi.SetTempoEvent(tick=720, data=[7, 122, 92]),
   midi.SetTempoEvent(tick=240, data=[7, 84, 13]),
   midi.SetTempoEvent(tick=480, data=[7, 54, 125]),
   midi.SetTempoEvent(tick=480, data=[6, 254, 20]),
   midi.SetTempoEvent(tick=720, data=[7, 122, 92]),
   midi.SetTempoEvent(tick=240, data=[7, 84, 13]),
   midi.SetTempoEvent(tick=480, data=[7, 54, 125]),
   midi.SetTempoEvent(tick=480, data=[6, 254, 20]),
   midi.SetTempoEvent(tick=240, data=[7, 201, 126]),
   midi.SetTempoEvent(tick=240, data=[8, 52, 179]),
   midi.SetTempoEvent(tick=240, data=[9, 98, 31]),
   midi.SetTempoEvent(tick=240, data=[7, 229, 178]),
   midi.SetTempoEvent(tick=480, data=[7, 178, 178]),
   midi.SetTempoEvent(tick=480, data=[7, 99, 48]),
   midi.SetTempoEvent(tick=720, data=[7, 170, 114]),
   midi.SetTempoEvent(tick=240, data=[7, 195, 104]),
   midi.SetTempoEvent(tick=480, data=[7, 146, 27]),
   midi.SetTempoEvent(tick=480, data=[8, 43, 84]),
   midi.SetTempoEvent(tick=480, data=[8, 214, 246]),
   midi.SetTempoEvent(tick=480, data=[7, 170, 114]),
   midi.SetTempoEvent(tick=960, data=[7, 130, 54]),
   midi.SetTempoEvent(tick=480, data=[7, 244, 206]),
   midi.SetTempoEvent(tick=480, data=[7, 159, 253]),
   midi.SetTempoEvent(tick=960, data=[7, 114, 147]),
   midi.SetTempoEvent(tick=480, data=[7, 154, 39]),
   midi.SetTempoEvent(tick=240, data=[8, 225, 241]),
   midi.SetTempoEvent(tick=240, data=[7, 229, 178]),
   midi.SetTempoEvent(tick=960, data=[7, 187, 4]),
   midi.SetTempoEvent(tick=480, data=[8, 9, 47]),
   midi.SetTempoEvent(tick=480, data=[8, 100, 217]),
   midi.SetTempoEvent(tick=960, data=[8, 204, 23]),
   midi.SetTempoEvent(tick=480, data=[9, 148, 100]),
   midi.SetTempoEvent(tick=480, data=[9, 90, 69]),
   midi.SetTempoEvent(tick=1440, data=[8, 166, 2]),
   midi.SetTempoEvent(tick=480, data=[8, 246, 50]),
   midi.SetTempoEvent(tick=240, data=[9, 187, 127]),
   midi.SetTempoEvent(tick=240, data=[9, 89, 75]),
   midi.SetTempoEvent(tick=960, data=[9, 14, 5]),
   midi.SetTempoEvent(tick=720, data=[9, 141, 254]),
   midi.SetTempoEvent(tick=240, data=[9, 14, 5]),
   midi.SetTempoEvent(tick=480, data=[9, 51, 14]),
   midi.SetTempoEvent(tick=480, data=[9, 14, 5]),
   midi.SetTempoEvent(tick=1920, data=[8, 177, 38]),
   midi.SetTempoEvent(tick=480, data=[8, 177, 38]),
   midi.SetTempoEvent(tick=240, data=[9, 128, 138]),
   midi.SetTempoEvent(tick=240, data=[9, 14, 5]),
   midi.SetTempoEvent(tick=960, data=[8, 222, 163]),
   midi.SetTempoEvent(tick=240, data=[9, 14, 5]),
   midi.SetTempoEvent(tick=240, data=[9, 85, 224]),
   midi.SetTempoEvent(tick=480, data=[9, 2, 41]),
   midi.SetTempoEvent(tick=480, data=[9, 63, 170]),
   midi.SetTempoEvent(tick=480, data=[9, 102, 17]),
   midi.SetTempoEvent(tick=480, data=[9, 2, 41]),
   midi.SetTempoEvent(tick=480, data=[9, 102, 17]),
   midi.SetTempoEvent(tick=480, data=[9, 38, 148]),
   midi.SetTempoEvent(tick=480, data=[10, 227, 219]),
   midi.SetTempoEvent(tick=480, data=[9, 14, 5]),
   midi.SetTempoEvent(tick=240, data=[10, 24, 236]),
   midi.SetTempoEvent(tick=240, data=[9, 38, 28]),
   midi.SetTempoEvent(tick=480, data=[9, 135, 161]),
   midi.SetTempoEvent(tick=480, data=[9, 73, 192]),
   midi.SetTempoEvent(tick=1920, data=[9, 47, 131]),
   midi.SetTempoEvent(tick=480, data=[9, 145, 212]),
   midi.SetTempoEvent(tick=240, data=[10, 24, 236]),
   midi.SetTempoEvent(tick=240, data=[9, 61, 192]),
   midi.SetTempoEvent(tick=480, data=[9, 135, 161]),
   midi.SetTempoEvent(tick=480, data=[9, 145, 212]),
   midi.SetTempoEvent(tick=480, data=[9, 110, 127]),
   midi.SetTempoEvent(tick=1440, data=[9, 135, 161]),
   midi.EndOfTrackEvent(tick=0, data=[])]),
 midi.Track(\
  [midi.TrackNameEvent(tick=0, text='Piano right', data=[80, 105, 97, 110, 111, 32, 114, 105, 103, 104, 116]),
   midi.ProgramChangeEvent(tick=0, channel=0, data=[0]),
   midi.NoteOnEvent(tick=6240, channel=0, data=[53, 21]),
   midi.NoteOnEvent(tick=0, channel=0, data=[55, 25]),
   midi.NoteOnEvent(tick=120, channel=0, data=[55, 0]),
   midi.NoteOnEvent(tick=0, channel=0, data=[53, 0]),
   midi.NoteOnEvent(tick=120, channel=0, data=[53, 21]),
   midi.NoteOnEvent(tick=0, channel=0, data=[55, 25]),
   midi.NoteOnEvent(tick=120, channel=0, data=[55, 0]),
   midi.NoteOnEvent(tick=0, channel=0, data=[53, 0]),
   midi.NoteOnEvent(tick=2040, channel=0, data=[41, 19]),
   midi.NoteOnEvent(tick=0, channel=0, data=[43, 23]),
   midi.NoteOnEvent(tick=120, channel=0, data=[43, 0]),
   midi.NoteOnEvent(tick=0, channel=0, data=[41, 0]),
   midi.NoteOnEvent(tick=6600, channel=0, data=[79, 40]),
   midi.NoteOnEvent(tick=960, channel=0, data=[65, 17]),
   midi.NoteOnEvent(tick=0, channel=0, data=[67, 21]),
   midi.NoteOnEvent(tick=120, channel=0, data=[67, 0]),
   midi.NoteOnEvent(tick=0, channel=0, data=[65, 0]),
   midi.NoteOnEvent(tick=120, channel=0, data=[65, 17]),
   midi.NoteOnEvent(tick=0, channel=0, data=[67, 21]),
   midi.NoteOnEvent(tick=720, channel=0, data=[79, 0]),
   midi.NoteOnEvent(tick=480, channel=0, data=[67, 0]),
   midi.NoteOnEvent(tick=0, channel=0, data=[65, 0]),
   midi.NoteOnEvent(tick=0, channel=0, data=[65, 17]),
   midi.NoteOnEvent(tick=0, channel=0, data=[67, 21]),
   midi.NoteOnEvent(tick=1440, channel=0, data=[63, 33]),
   midi.NoteOnEvent(tick=480, channel=0, data=[67, 0]),
   midi.NoteOnEvent(tick=0, channel=0, data=[65, 0]),
   midi.NoteOnEvent(tick=0, channel=0, data=[65, 17]),
   midi.NoteOnEvent(tick=0, channel=0, data=[67, 21]),
   midi.NoteOnEvent(tick=1440, channel=0, data=[63, 0]),
   midi.NoteOnEvent(tick=0, channel=0, data=[61, 33]),
   midi.NoteOnEvent(tick=480, channel=0, data=[67, 0]),
   midi.NoteOnEvent(tick=0, channel=0, data=[65, 0]),
   midi.NoteOnEvent(tick=0, channel=0, data=[65, 17]),
   midi.NoteOnEvent(tick=0, channel=0, data=[67, 21]),
   midi.NoteOnEvent(tick=1440, channel=0, data=[61, 0]),
   midi.NoteOnEvent(tick=0, channel=0, data=[63, 33]),
   midi.NoteOnEvent(tick=480, channel=0, data=[67, 0]),
   midi.NoteOnEvent(tick=0, channel=0, data=[65, 0]),
   midi.NoteOnEvent(tick=0, channel=0, data=[65, 17]),
   midi.NoteOnEvent(tick=0, channel=0, data=[67, 21]),
   midi.NoteOnEvent(tick=480, channel=0, data=[63, 0]),
   midi.NoteOnEvent(tick=0, channel=0, data=[63, 33]),
   midi.NoteOnEvent(tick=960, channel=0, data=[63, 0]),
   midi.NoteOnEvent(tick=0, channel=0, data=[61, 35]),
   midi.NoteOnEvent(tick=480, channel=0, data=[67, 0]),
   midi.NoteOnEvent(tick=0, channel=0, data=[65, 0]),
   midi.NoteOnEvent(tick=0, channel=0, data=[65, 17]),
   midi.NoteOnEvent(tick=0, channel=0, data=[67, 21]),
   midi.NoteOnEvent(tick=1440, channel=0, data=[67, 0]),
   midi.NoteOnEvent(tick=0, channel=0, data=[65, 0]),
   midi.NoteOnEvent(tick=0, channel=0, data=[61, 0]),
   midi.NoteOnEvent(tick=480, channel=0, data=[41, 22]),
   midi.NoteOnEvent(tick=0, channel=0, data=[43, 26]),
   midi.NoteOnEvent(tick=120, channel=0, data=[43, 0]),
   midi.NoteOnEvent(tick=0, channel=0, data=[41, 0]),
   midi.NoteOnEvent(tick=120, channel=0, data=[41, 24]),
   midi.NoteOnEvent(tick=0, channel=0, data=[43, 29]),
   midi.NoteOnEvent(tick=120, channel=0, data=[43, 0]),
   midi.NoteOnEvent(tick=0, channel=0, data=[41, 0]),
   midi.NoteOnEvent(tick=2040, channel=0, data=[41, 19]),
   midi.NoteOnEvent(tick=0, channel=0, data=[43, 23]),
   midi.NoteOnEvent(tick=120, channel=0, data=[43, 0]),
   midi.NoteOnEvent(tick=0, channel=0, data=[41, 0]),
   midi.NoteOnEvent(tick=3720, channel=0, data=[41, 19]),
   midi.NoteOnEvent(tick=0, channel=0, data=[43, 23]),
   midi.NoteOnEvent(tick=120, channel=0, data=[43, 0]),
   midi.NoteOnEvent(tick=0, channel=0, data=[41, 0]),
   midi.NoteOnEvent(tick=840, channel=0, data=[67, 26]),
   midi.NoteOnEvent(tick=0, channel=0, data=[65, 26]),
   midi.NoteOnEvent(tick=480, channel=0, data=[65, 0]),
   midi.NoteOnEvent(tick=0, channel=0, data=[67, 0]),
   midi.NoteOnEvent(tick=0, channel=0, data=[60, 17]),
   midi.NoteOnEvent(tick=0, channel=0, data=[62, 21]),
   midi.NoteOnEvent(tick=480, channel=0, data=[62, 0]),
   midi.NoteOnEvent(tick=0, channel=0, data=[60, 0]),
   midi.NoteOnEvent(tick=0, channel=0, data=[65, 24]),
   midi.NoteOnEvent(tick=0, channel=0, data=[67, 24]),
   midi.NoteOnEvent(tick=480, channel=0, data=[67, 0]),
   midi.NoteOnEvent(tick=0, channel=0, data=[65, 0]),
   midi.NoteOnEvent(tick=0, channel=0, data=[60, 17]),
   midi.NoteOnEvent(tick=0, channel=0, data=[62, 21]),
   midi.NoteOnEvent(tick=480, channel=0, data=[62, 0]),
   midi.NoteOnEvent(tick=0, channel=0, data=[60, 0]),
   midi.NoteOnEvent(tick=0, channel=0, data=[67, 25]),
   midi.NoteOnEvent(tick=0, channel=0, data=[65, 21]),
   midi.NoteOnEvent(tick=480, channel=0, data=[65, 0]),
   midi.NoteOnEvent(tick=0, channel=0, data=[67, 0]),
   midi.NoteOnEvent(tick=0, channel=0, data=[60, 17]),
   midi.NoteOnEvent(tick=0, channel=0, data=[62, 21]),
   midi.NoteOnEvent(tick=480, channel=0, data=[62, 0]),
   midi.NoteOnEvent(tick=0, channel=0, data=[60, 0]),
   midi.NoteOnEvent(tick=0, channel=0, data=[65, 19]),
   midi.NoteOnEvent(tick=0, channel=0, data=[67, 23]),
   midi.NoteOnEvent(tick=480, channel=0, data=[67, 0]),
   midi.NoteOnEvent(tick=0, channel=0, data=[65, 0]),
   midi.NoteOnEvent(tick=0, channel=0, data=[60, 17]),
   midi.NoteOnEvent(tick=0, channel=0, data=[62, 21]),
   midi.NoteOnEvent(tick=480, channel=0, data=[62, 0]),
   midi.NoteOnEvent(tick=0, channel=0, data=[60, 0]),
   midi.NoteOnEvent(tick=0, channel=0, data=[65, 30]),
   midi.NoteOnEvent(tick=480, channel=0, data=[65, 0]),
   midi.NoteOnEvent(tick=0, channel=0, data=[62, 36]),
   midi.NoteOnEvent(tick=960, channel=0, data=[62, 0]),
   midi.NoteOnEvent(tick=0, channel=0, data=[65, 34]),
   midi.NoteOnEvent(tick=240, channel=0, data=[65, 0]),
   midi.NoteOnEvent(tick=0, channel=0, data=[67, 34]),
   midi.NoteOnEvent(tick=240, channel=0, data=[67, 0]),
   midi.NoteOnEvent(tick=0, channel=0, data=[60, 36]),
   midi.NoteOnEvent(tick=240, channel=0, data=[60, 0]),
   midi.NoteOnEvent(tick=0, channel=0, data=[62, 30]),
   midi.NoteOnEvent(tick=240, channel=0, data=[62, 0]),
   midi.NoteOnEvent(tick=0, channel=0, data=[65, 36]),
   midi.NoteOnEvent(tick=960, channel=0, data=[65, 0]),
   midi.NoteOnEvent(tick=0, channel=0, data=[62, 30]),
   midi.NoteOnEvent(tick=240, channel=0, data=[62, 0]),
   midi.NoteOnEvent(tick=0, channel=0, data=[60, 27]),
   midi.NoteOnEvent(tick=220, channel=0, data=[60, 0]),
   midi.NoteOnEvent(tick=20, channel=0, data=[60, 34]),
   midi.NoteOnEvent(tick=240, channel=0, data=[60, 0]),
   midi.NoteOnEvent(tick=0, channel=0, data=[62, 28]),
   midi.NoteOnEvent(tick=220, channel=0, data=[62, 0]),
   midi.NoteOnEvent(tick=20, channel=0, data=[62, 31]),
   midi.NoteOnEvent(tick=480, channel=0, data=[62, 0]),
   midi.NoteOnEvent(tick=0, channel=0, data=[60, 31]),
   midi.NoteOnEvent(tick=480, channel=0, data=[60, 0]),
   midi.NoteOnEvent(tick=0, channel=0, data=[65, 35]),
   midi.NoteOnEvent(tick=480, channel=0, data=[65, 0]),
   midi.NoteOnEvent(tick=0, channel=0, data=[62, 29]),
   midi.NoteOnEvent(tick=1440, channel=0, data=[72, 33]),
   midi.NoteOnEvent(tick=240, channel=0, data=[72, 0]),
   midi.NoteOnEvent(tick=0, channel=0, data=[69, 29]),
   midi.NoteOnEvent(tick=240, channel=0, data=[69, 0]),
   midi.NoteOnEvent(tick=0, channel=0, data=[62, 0]),
   midi.NoteOnEvent(tick=0, channel=0, data=[60, 21]),
   midi.NoteOnEvent(tick=0, channel=0, data=[62, 21]),
   midi.NoteOnEvent(tick=0, channel=0, data=[67, 33]),
   midi.NoteOnEvent(tick=240, channel=0, data=[67, 0]),
   midi.NoteOnEvent(tick=0, channel=0, data=[65, 32]),
   midi.NoteOnEvent(tick=240, channel=0, data=[65, 0]),
   midi.NoteOnEvent(tick=0, channel=0, data=[67, 33]),
   midi.NoteOnEvent(tick=960, channel=0, data=[67, 0]),
   midi.NoteOnEvent(tick=0, channel=0, data=[69, 37]),
   midi.NoteOnEvent(tick=240, channel=0, data=[69, 0]),
   midi.NoteOnEvent(tick=0, channel=0, data=[72, 33]),
   midi.NoteOnEvent(tick=240, channel=0, data=[72, 0]),
   midi.NoteOnEvent(tick=0, channel=0, data=[62, 0]),
   midi.NoteOnEvent(tick=0, channel=0, data=[60, 0]),
   midi.NoteOnEvent(tick=0, channel=0, data=[60, 21]),
   midi.NoteOnEvent(tick=0, channel=0, data=[62, 21]),
   midi.NoteOnEvent(tick=0, channel=0, data=[67, 42]),
   midi.NoteOnEvent(tick=480, channel=0, data=[67, 0]),
   midi.NoteOnEvent(tick=0, channel=0, data=[74, 42]),
   midi.NoteOnEvent(tick=480, channel=0, data=[74, 0]),
   midi.NoteOnEvent(tick=0, channel=0, data=[72, 35]),
   midi.NoteOnEvent(tick=480, channel=0, data=[72, 0]),
   midi.NoteOnEvent(tick=0, channel=0, data=[69, 33]),
   midi.NoteOnEvent(tick=480, channel=0, data=[69, 0]),
   midi.NoteOnEvent(tick=0, channel=0, data=[62, 0]),
   midi.NoteOnEvent(tick=0, channel=0, data=[60, 0]),
   midi.NoteOnEvent(tick=0, channel=0, data=[60, 21]),
   midi.NoteOnEvent(tick=0, channel=0, data=[62, 21]),
   midi.NoteOnEvent(tick=0, channel=0, data=[67, 32]),
   midi.NoteOnEvent(tick=240, channel=0, data=[67, 0]),
   midi.NoteOnEvent(tick=0, channel=0, data=[65, 26]),
   midi.NoteOnEvent(tick=240, channel=0, data=[65, 0]),
   midi.NoteOnEvent(tick=0, channel=0, data=[67, 33]),
   midi.NoteOnEvent(tick=480, channel=0, data=[67, 0]),
   midi.NoteOnEvent(tick=0, channel=0, data=[69, 35]),
   midi.NoteOnEvent(tick=480, channel=0, data=[69, 0]),
   midi.NoteOnEvent(tick=0, channel=0, data=[72, 41]),
   midi.NoteOnEvent(tick=480, channel=0, data=[72, 0]),
   midi.NoteOnEvent(tick=0, channel=0, data=[62, 0]),
   midi.NoteOnEvent(tick=0, channel=0, data=[60, 0]),
   midi.NoteOnEvent(tick=0, channel=0, data=[60, 21]),
   midi.NoteOnEvent(tick=0, channel=0, data=[62, 21]),
   midi.NoteOnEvent(tick=0, channel=0, data=[67, 34]),
   midi.NoteOnEvent(tick=1920, channel=0, data=[67, 0]),
   midi.NoteOnEvent(tick=0, channel=0, data=[62, 0]),
   midi.NoteOnEvent(tick=0, channel=0, data=[60, 0]),
   midi.NoteOnEvent(tick=480, channel=0, data=[44, 21]),
   midi.NoteOnEvent(tick=0, channel=0, data=[46, 25]),
   midi.NoteOnEvent(tick=120, channel=0, data=[46, 0]),
   midi.NoteOnEvent(tick=0, channel=0, data=[44, 0]),
   midi.NoteOnEvent(tick=120, channel=0, data=[44, 21]),
   midi.NoteOnEvent(tick=0, channel=0, data=[46, 25]),
   midi.NoteOnEvent(tick=720, channel=0, data=[46, 0]),
   midi.NoteOnEvent(tick=0, channel=0, data=[44, 0]),
   midi.NoteOnEvent(tick=0, channel=0, data=[44, 21]),
   midi.NoteOnEvent(tick=0, channel=0, data=[46, 25]),
   midi.NoteOnEvent(tick=120, channel=0, data=[46, 0]),
   midi.NoteOnEvent(tick=0, channel=0, data=[44, 0]),
   midi.NoteOnEvent(tick=1560, channel=0, data=[46, 31]),
   midi.NoteOnEvent(tick=0, channel=0, data=[44, 26]),
   midi.NoteOnEvent(tick=480, channel=0, data=[44, 0]),
   midi.NoteOnEvent(tick=0, channel=0, data=[46, 0]),
   midi.NoteOnEvent(tick=0, channel=0, data=[58, 37]),
   midi.NoteOnEvent(tick=0, channel=0, data=[56, 31]),
   midi.NoteOnEvent(tick=240, channel=0, data=[56, 0]),
   midi.NoteOnEvent(tick=0, channel=0, data=[58, 0]),
   midi.NoteOnEvent(tick=480, channel=0, data=[44, 21]),
   midi.NoteOnEvent(tick=0, channel=0, data=[46, 25]),
   midi.NoteOnEvent(tick=120, channel=0, data=[46, 0]),
   midi.NoteOnEvent(tick=0, channel=0, data=[44, 0]),
   midi.NoteOnEvent(tick=120, channel=0, data=[44, 21]),
   midi.NoteOnEvent(tick=0, channel=0, data=[46, 25]),
   midi.NoteOnEvent(tick=720, channel=0, data=[46, 0]),
   midi.NoteOnEvent(tick=0, channel=0, data=[44, 0]),
   midi.NoteOnEvent(tick=0, channel=0, data=[44, 21]),
   midi.NoteOnEvent(tick=0, channel=0, data=[46, 25]),
   midi.NoteOnEvent(tick=120, channel=0, data=[46, 0]),
   midi.NoteOnEvent(tick=0, channel=0, data=[44, 0]),
   midi.NoteOnEvent(tick=840, channel=0, data=[48, 31]),
   midi.NoteOnEvent(tick=0, channel=0, data=[46, 26]),
   midi.NoteOnEvent(tick=120, channel=0, data=[46, 0]),
   midi.NoteOnEvent(tick=0, channel=0, data=[48, 0]),
   midi.NoteOnEvent(tick=360, channel=0, data=[58, 31]),
   midi.NoteOnEvent(tick=0, channel=0, data=[60, 37]),
   midi.NoteOnEvent(tick=120, channel=0, data=[60, 0]),
   midi.NoteOnEvent(tick=0, channel=0, data=[58, 0]),
   midi.NoteOnEvent(tick=1320, channel=0, data=[58, 26]),
   midi.NoteOnEvent(tick=0, channel=0, data=[61, 26]),
   midi.NoteOnEvent(tick=0, channel=0, data=[66, 31]),
   midi.NoteOnEvent(tick=120, channel=0, data=[66, 0]),
   midi.NoteOnEvent(tick=0, channel=0, data=[61, 0]),
   midi.NoteOnEvent(tick=0, channel=0, data=[58, 0]),
   midi.NoteOnEvent(tick=120, channel=0, data=[58, 26]),
   midi.NoteOnEvent(tick=0, channel=0, data=[61, 26]),
   midi.NoteOnEvent(tick=0, channel=0, data=[66, 31]),
   midi.NoteOnEvent(tick=120, channel=0, data=[66, 0]),
   midi.NoteOnEvent(tick=0, channel=0, data=[61, 0]),
   midi.NoteOnEvent(tick=0, channel=0, data=[58, 0]),
   midi.NoteOnEvent(tick=120, channel=0, data=[65, 29]),
   midi.NoteOnEvent(tick=0, channel=0, data=[60, 24]),
   midi.NoteOnEvent(tick=0, channel=0, data=[56, 24]),
   midi.NoteOnEvent(tick=480, channel=0, data=[56, 0]),
   midi.NoteOnEvent(tick=0, channel=0, data=[60, 0]),
   midi.NoteOnEvent(tick=0, channel=0, data=[65, 0]),
   midi.NoteOnEvent(tick=0, channel=0, data=[65, 25]),
   midi.NoteOnEvent(tick=0, channel=0, data=[60, 21]),
   midi.NoteOnEvent(tick=0, channel=0, data=[56, 21]),
   midi.NoteOnEvent(tick=480, channel=0, data=[56, 0]),
   midi.NoteOnEvent(tick=0, channel=0, data=[60, 0]),
   midi.NoteOnEvent(tick=0, channel=0, data=[65, 0]),
   midi.NoteOnEvent(tick=480, channel=0, data=[54, 26]),
   midi.NoteOnEvent(tick=0, channel=0, data=[58, 26]),
   midi.NoteOnEvent(tick=0, channel=0, data=[63, 31]),
   midi.NoteOnEvent(tick=120, channel=0, data=[63, 0]),
   midi.NoteOnEvent(tick=0, channel=0, data=[58, 0]),
   midi.NoteOnEvent(tick=0, channel=0, data=[54, 0]),
   midi.NoteOnEvent(tick=120, channel=0, data=[54, 26]),
   midi.NoteOnEvent(tick=0, channel=0, data=[58, 26]),
   midi.NoteOnEvent(tick=0, channel=0, data=[63, 31]),
   midi.NoteOnEvent(tick=120, channel=0, data=[63, 0]),
   midi.NoteOnEvent(tick=0, channel=0, data=[58, 0]),
   midi.NoteOnEvent(tick=0, channel=0, data=[54, 0]),
   midi.NoteOnEvent(tick=120, channel=0, data=[61, 29]),
   midi.NoteOnEvent(tick=0, channel=0, data=[56, 24]),
   midi.NoteOnEvent(tick=0, channel=0, data=[53, 24]),
   midi.NoteOnEvent(tick=480, channel=0, data=[53, 0]),
   midi.NoteOnEvent(tick=0, channel=0, data=[56, 0]),
   midi.NoteOnEvent(tick=0, channel=0, data=[61, 0]),
   midi.NoteOnEvent(tick=0, channel=0, data=[59, 21]),
   midi.NoteOnEvent(tick=0, channel=0, data=[70, 35]),
   midi.NoteOnEvent(tick=0, channel=0, data=[65, 27]),
   midi.NoteOnEvent(tick=0, channel=0, data=[62, 21]),
   midi.NoteOnEvent(tick=480, channel=0, data=[62, 0]),
   midi.NoteOnEvent(tick=0, channel=0, data=[59, 0]),
   midi.NoteOnEvent(tick=0, channel=0, data=[70, 0]),
   midi.NoteOnEvent(tick=0, channel=0, data=[65, 0]),
   midi.NoteOnEvent(tick=480, channel=0, data=[58, 26]),
   midi.NoteOnEvent(tick=0, channel=0, data=[61, 26]),
   midi.NoteOnEvent(tick=0, channel=0, data=[66, 31]),
   midi.NoteOnEvent(tick=120, channel=0, data=[66, 0]),
   midi.NoteOnEvent(tick=0, channel=0, data=[61, 0]),
   midi.NoteOnEvent(tick=0, channel=0, data=[58, 0]),
   midi.NoteOnEvent(tick=120, channel=0, data=[58, 26]),
   midi.NoteOnEvent(tick=0, channel=0, data=[61, 26]),
   midi.NoteOnEvent(tick=0, channel=0, data=[66, 31]),
   midi.NoteOnEvent(tick=120, channel=0, data=[66, 0]),
   midi.NoteOnEvent(tick=0, channel=0, data=[61, 0]),
   midi.NoteOnEvent(tick=0, channel=0, data=[58, 0]),
   midi.NoteOnEvent(tick=120, channel=0, data=[65, 29]),
   midi.NoteOnEvent(tick=0, channel=0, data=[60, 24]),
   midi.NoteOnEvent(tick=0, channel=0, data=[56, 24]),
   midi.NoteOnEvent(tick=120, channel=0, data=[56, 0]),
   midi.NoteOnEvent(tick=0, channel=0, data=[60, 0]),
   midi.NoteOnEvent(tick=0, channel=0, data=[65, 0]),
   midi.NoteOnEvent(tick=120, channel=0, data=[56, 22]),
   midi.NoteOnEvent(tick=0, channel=0, data=[60, 22]),
   midi.NoteOnEvent(tick=0, channel=0, data=[65, 27]),
   midi.NoteOnEvent(tick=120, channel=0, data=[65, 0]),
   midi.NoteOnEvent(tick=0, channel=0, data=[60, 0]),
   midi.NoteOnEvent(tick=0, channel=0, data=[56, 0]),
   midi.NoteOnEvent(tick=120, channel=0, data=[65, 25]),
   midi.NoteOnEvent(tick=0, channel=0, data=[60, 21]),
   midi.NoteOnEvent(tick=0, channel=0, data=[56, 21]),
   midi.NoteOnEvent(tick=120, channel=0, data=[56, 0]),
   midi.NoteOnEvent(tick=0, channel=0, data=[60, 0]),
   midi.NoteOnEvent(tick=0, channel=0, data=[65, 0]),
   midi.NoteOnEvent(tick=120, channel=0, data=[56, 19]),
   midi.NoteOnEvent(tick=0, channel=0, data=[60, 19]),
   midi.NoteOnEvent(tick=0, channel=0, data=[65, 23]),
   midi.NoteOnEvent(tick=120, channel=0, data=[65, 0]),
   midi.NoteOnEvent(tick=0, channel=0, data=[60, 0]),
   midi.NoteOnEvent(tick=0, channel=0, data=[56, 0]),
   midi.NoteOnEvent(tick=600, channel=0, data=[54, 26]),
   midi.NoteOnEvent(tick=0, channel=0, data=[58, 26]),
   midi.NoteOnEvent(tick=0, channel=0, data=[63, 31]),
   midi.NoteOnEvent(tick=120, channel=0, data=[63, 0]),
   midi.NoteOnEvent(tick=0, channel=0, data=[58, 0]),
   midi.NoteOnEvent(tick=0, channel=0, data=[54, 0]),
   midi.NoteOnEvent(tick=120, channel=0, data=[54, 26]),
   midi.NoteOnEvent(tick=0, channel=0, data=[58, 26]),
   midi.NoteOnEvent(tick=0, channel=0, data=[63, 31]),
   midi.NoteOnEvent(tick=120, channel=0, data=[63, 0]),
   midi.NoteOnEvent(tick=0, channel=0, data=[58, 0]),
   midi.NoteOnEvent(tick=0, channel=0, data=[54, 0]),
   midi.NoteOnEvent(tick=120, channel=0, data=[61, 29]),
   midi.NoteOnEvent(tick=0, channel=0, data=[58, 24]),
   midi.NoteOnEvent(tick=0, channel=0, data=[54, 24]),
   midi.NoteOnEvent(tick=480, channel=0, data=[54, 0]),
   midi.NoteOnEvent(tick=0, channel=0, data=[58, 0]),
   midi.NoteOnEvent(tick=0, channel=0, data=[61, 0]),
   midi.NoteOnEvent(tick=0, channel=0, data=[53, 21]),
   midi.NoteOnEvent(tick=0, channel=0, data=[63, 27]),
   midi.NoteOnEvent(tick=0, channel=0, data=[56, 21]),
   midi.NoteOnEvent(tick=480, channel=0, data=[56, 0]),
   midi.NoteOnEvent(tick=0, channel=0, data=[63, 0]),
   midi.NoteOnEvent(tick=0, channel=0, data=[53, 0]),
   midi.NoteOnEvent(tick=0, channel=0, data=[52, 19]),
   midi.NoteOnEvent(tick=0, channel=0, data=[55, 19]),
   midi.NoteOnEvent(tick=0, channel=0, data=[58, 24]),
   midi.NoteOnEvent(tick=2400, channel=0, data=[58, 0]),
   midi.NoteOnEvent(tick=0, channel=0, data=[55, 0]),
   midi.NoteOnEvent(tick=0, channel=0, data=[52, 0]),
   midi.NoteOnEvent(tick=1440, channel=0, data=[51, 20]),
   midi.NoteOnEvent(tick=0, channel=0, data=[55, 24]),
   midi.NoteOnEvent(tick=960, channel=0, data=[51, 0]),
   midi.NoteOnEvent(tick=0, channel=0, data=[49, 20]),
   midi.NoteOnEvent(tick=960, channel=0, data=[49, 0]),
   midi.NoteOnEvent(tick=0, channel=0, data=[55, 0]),
   midi.NoteOnEvent(tick=0, channel=0, data=[51, 20]),
   midi.NoteOnEvent(tick=0, channel=0, data=[55, 24]),
   midi.NoteOnEvent(tick=480, channel=0, data=[51, 0]),
   midi.NoteOnEvent(tick=0, channel=0, data=[51, 20]),
   midi.NoteOnEvent(tick=480, channel=0, data=[51, 0]),
   midi.NoteOnEvent(tick=0, channel=0, data=[49, 20]),
   midi.NoteOnEvent(tick=960, channel=0, data=[49, 0]),
   midi.NoteOnEvent(tick=0, channel=0, data=[55, 0]),
   midi.NoteOnEvent(tick=0, channel=0, data=[67, 24]),
   midi.NoteOnEvent(tick=0, channel=0, data=[63, 24]),
   midi.NoteOnEvent(tick=0, channel=0, data=[55, 24]),
   midi.NoteOnEvent(tick=1920, channel=0, data=[55, 0]),
   midi.NoteOnEvent(tick=0, channel=0, data=[63, 0]),
   midi.NoteOnEvent(tick=0, channel=0, data=[67, 0]),
   midi.NoteOnEvent(tick=0, channel=0, data=[73, 31]),
   midi.NoteOnEvent(tick=0, channel=0, data=[69, 31]),
   midi.NoteOnEvent(tick=0, channel=0, data=[61, 31]),
   midi.NoteOnEvent(tick=1920, channel=0, data=[61, 0]),
   midi.NoteOnEvent(tick=0, channel=0, data=[69, 0]),
   midi.NoteOnEvent(tick=0, channel=0, data=[73, 0]),
   midi.NoteOnEvent(tick=0, channel=0, data=[51, 20]),
   midi.NoteOnEvent(tick=0, channel=0, data=[55, 24]),
   midi.NoteOnEvent(tick=960, channel=0, data=[51, 0]),
   midi.NoteOnEvent(tick=0, channel=0, data=[49, 20]),
   midi.NoteOnEvent(tick=960, channel=0, data=[49, 0]),
   midi.NoteOnEvent(tick=0, channel=0, data=[55, 0]),
   midi.NoteOnEvent(tick=0, channel=0, data=[51, 20]),
   midi.NoteOnEvent(tick=0, channel=0, data=[55, 24]),
   midi.NoteOnEvent(tick=480, channel=0, data=[51, 0]),
   midi.NoteOnEvent(tick=0, channel=0, data=[51, 20]),
   midi.NoteOnEvent(tick=480, channel=0, data=[51, 0]),
   midi.NoteOnEvent(tick=0, channel=0, data=[49, 20]),
   midi.NoteOnEvent(tick=960, channel=0, data=[49, 0]),
   midi.NoteOnEvent(tick=0, channel=0, data=[55, 0]),
   midi.NoteOnEvent(tick=0, channel=0, data=[79, 35]),
   midi.NoteOnEvent(tick=0, channel=0, data=[83, 37]),
   midi.NoteOnEvent(tick=0, channel=0, data=[71, 31]),
   midi.NoteOnEvent(tick=2880, channel=0, data=[71, 0]),
   midi.NoteOnEvent(tick=0, channel=0, data=[83, 0]),
   midi.NoteOnEvent(tick=0, channel=0, data=[79, 0]),
   midi.NoteOnEvent(tick=960, channel=0, data=[55, 38]),
   midi.NoteOnEvent(tick=0, channel=0, data=[59, 45]),
   midi.NoteOnEvent(tick=480, channel=0, data=[59, 0]),
   midi.NoteOnEvent(tick=0, channel=0, data=[55, 0]),
   midi.NoteOnEvent(tick=0, channel=0, data=[59, 41]),
   midi.NoteOnEvent(tick=0, channel=0, data=[55, 34]),
   midi.NoteOnEvent(tick=120, channel=0, data=[55, 0]),
   midi.NoteOnEvent(tick=0, channel=0, data=[59, 0]),
   midi.NoteOnEvent(tick=120, channel=0, data=[59, 41]),
   midi.NoteOnEvent(tick=0, channel=0, data=[55, 34]),
   midi.NoteOnEvent(tick=120, channel=0, data=[55, 0]),
   midi.NoteOnEvent(tick=0, channel=0, data=[59, 0]),
   midi.NoteOnEvent(tick=120, channel=0, data=[58, 43]),
   midi.NoteOnEvent(tick=0, channel=0, data=[54, 36]),
   midi.NoteOnEvent(tick=120, channel=0, data=[54, 0]),
   midi.NoteOnEvent(tick=0, channel=0, data=[58, 0]),
   midi.NoteOnEvent(tick=120, channel=0, data=[58, 37]),
   midi.NoteOnEvent(tick=0, channel=0, data=[54, 31]),
   midi.NoteOnEvent(tick=120, channel=0, data=[54, 0]),
   midi.NoteOnEvent(tick=0, channel=0, data=[58, 0]),
   midi.NoteOnEvent(tick=120, channel=0, data=[58, 37]),
   midi.NoteOnEvent(tick=0, channel=0, data=[54, 31]),
   midi.NoteOnEvent(tick=120, channel=0, data=[54, 0]),
   midi.NoteOnEvent(tick=0, channel=0, data=[58, 0]),
   midi.NoteOnEvent(tick=120, channel=0, data=[58, 37]),
   midi.NoteOnEvent(tick=0, channel=0, data=[54, 31]),
   midi.NoteOnEvent(tick=120, channel=0, data=[54, 0]),
   midi.NoteOnEvent(tick=0, channel=0, data=[58, 0]),
   midi.NoteOnEvent(tick=120, channel=0, data=[53, 38]),
   midi.NoteOnEvent(tick=0, channel=0, data=[57, 45]),
   midi.NoteOnEvent(tick=480, channel=0, data=[57, 0]),
   midi.NoteOnEvent(tick=0, channel=0, data=[53, 0]),
   midi.NoteOnEvent(tick=0, channel=0, data=[57, 41]),
   midi.NoteOnEvent(tick=6, channel=0, data=[53, 34]),
   midi.NoteOnEvent(tick=114, channel=0, data=[57, 0]),
   midi.NoteOnEvent(tick=6, channel=0, data=[53, 0]),
   midi.NoteOnEvent(tick=114, channel=0, data=[57, 41]),
   midi.NoteOnEvent(tick=0, channel=0, data=[53, 34]),
   midi.NoteOnEvent(tick=120, channel=0, data=[53, 0]),
   midi.NoteOnEvent(tick=0, channel=0, data=[57, 0]),
   midi.NoteOnEvent(tick=120, channel=0, data=[56, 43]),
   midi.NoteOnEvent(tick=0, channel=0, data=[52, 36]),
   midi.NoteOnEvent(tick=480, channel=0, data=[52, 0]),
   midi.NoteOnEvent(tick=0, channel=0, data=[56, 0]),
   midi.NoteOnEvent(tick=0, channel=0, data=[60, 37]),
   midi.NoteOnEvent(tick=0, channel=0, data=[56, 31]),
   midi.NoteOnEvent(tick=480, channel=0, data=[56, 0]),
   midi.NoteOnEvent(tick=0, channel=0, data=[60, 0]),
   midi.NoteOnEvent(tick=0, channel=0, data=[55, 39]),
   midi.NoteOnEvent(tick=0, channel=0, data=[59, 46]),
   midi.NoteOnEvent(tick=480, channel=0, data=[59, 0]),
   midi.NoteOnEvent(tick=0, channel=0, data=[55, 0]),
   midi.NoteOnEvent(tick=0, channel=0, data=[64, 45]),
   midi.NoteOnEvent(tick=0, channel=0, data=[57, 38]),
   midi.NoteOnEvent(tick=480, channel=0, data=[57, 0]),
   midi.NoteOnEvent(tick=0, channel=0, data=[64, 0]),
   midi.NoteOnEvent(tick=0, channel=0, data=[59, 44]),
   midi.NoteOnEvent(tick=0, channel=0, data=[67, 52]),
   midi.NoteOnEvent(tick=480, channel=0, data=[67, 0]),
   midi.NoteOnEvent(tick=0, channel=0, data=[59, 0]),
   midi.NoteOnEvent(tick=0, channel=0, data=[57, 38]),
   midi.NoteOnEvent(tick=0, channel=0, data=[64, 45]),
   midi.NoteOnEvent(tick=480, channel=0, data=[64, 0]),
   midi.NoteOnEvent(tick=0, channel=0, data=[57, 0]),
   midi.NoteOnEvent(tick=0, channel=0, data=[55, 42]),
   midi.NoteOnEvent(tick=0, channel=0, data=[59, 50]),
   midi.NoteOnEvent(tick=480, channel=0, data=[59, 0]),
   midi.NoteOnEvent(tick=0, channel=0, data=[55, 0]),
   midi.NoteOnEvent(tick=0, channel=0, data=[57, 43]),
   midi.NoteOnEvent(tick=0, channel=0, data=[52, 36]),
   midi.NoteOnEvent(tick=480, channel=0, data=[52, 0]),
   midi.NoteOnEvent(tick=0, channel=0, data=[57, 0]),
   midi.NoteOnEvent(tick=0, channel=0, data=[59, 47]),
   midi.NoteOnEvent(tick=0, channel=0, data=[55, 39]),
   midi.NoteOnEvent(tick=1440, channel=0, data=[55, 0]),
   midi.NoteOnEvent(tick=0, channel=0, data=[59, 0]),
   midi.NoteOnEvent(tick=0, channel=0, data=[57, 45]),
   midi.NoteOnEvent(tick=0, channel=0, data=[52, 38]),
   midi.NoteOnEvent(tick=480, channel=0, data=[52, 0]),
   midi.NoteOnEvent(tick=0, channel=0, data=[57, 0]),
   midi.NoteOnEvent(tick=0, channel=0, data=[59, 52]),
   midi.NoteOnEvent(tick=0, channel=0, data=[55, 37]),
   midi.NoteOnEvent(tick=480, channel=0, data=[55, 0]),
   midi.NoteOnEvent(tick=0, channel=0, data=[59, 0]),
   midi.NoteOnEvent(tick=0, channel=0, data=[64, 50]),
   midi.NoteOnEvent(tick=0, channel=0, data=[57, 42]),
   midi.NoteOnEvent(tick=480, channel=0, data=[57, 0]),
   midi.NoteOnEvent(tick=0, channel=0, data=[64, 0]),
   midi.NoteOnEvent(tick=0, channel=0, data=[59, 54]),
   midi.NoteOnEvent(tick=0, channel=0, data=[55, 45]),
   midi.NoteOnEvent(tick=960, channel=0, data=[55, 0]),
   midi.NoteOnEvent(tick=0, channel=0, data=[59, 0]),
   midi.NoteOnEvent(tick=0, channel=0, data=[52, 30]),
   midi.NoteOnEvent(tick=0, channel=0, data=[57, 43]),
   midi.NoteOnEvent(tick=480, channel=0, data=[57, 0]),
   midi.NoteOnEvent(tick=0, channel=0, data=[52, 0]),
   midi.NoteOnEvent(tick=0, channel=0, data=[59, 42]),
   midi.NoteOnEvent(tick=0, channel=0, data=[55, 35]),
   midi.NoteOnEvent(tick=480, channel=0, data=[55, 0]),
   midi.NoteOnEvent(tick=0, channel=0, data=[59, 0]),
   midi.NoteOnEvent(tick=0, channel=0, data=[58, 48]),
   midi.NoteOnEvent(tick=0, channel=0, data=[61, 48]),
   midi.NoteOnEvent(tick=470, channel=0, data=[61, 0]),
   midi.NoteOnEvent(tick=1450, channel=0, data=[58, 0]),
   midi.NoteOnEvent(tick=240, channel=0, data=[49, 30]),
   midi.NoteOnEvent(tick=240, channel=0, data=[49, 0]),
   midi.NoteOnEvent(tick=0, channel=0, data=[61, 38]),
   midi.NoteOnEvent(tick=0, channel=0, data=[58, 38]),
   midi.NoteOnEvent(tick=240, channel=0, data=[58, 0]),
   midi.NoteOnEvent(tick=0, channel=0, data=[61, 0]),
   midi.NoteOnEvent(tick=0, channel=0, data=[49, 30]),
   midi.NoteOnEvent(tick=720, channel=0, data=[49, 0]),
   midi.NoteOnEvent(tick=0, channel=0, data=[49, 33]),
   midi.NoteOnEvent(tick=240, channel=0, data=[49, 0]),
   midi.NoteOnEvent(tick=480, channel=0, data=[49, 30]),
   midi.NoteOnEvent(tick=240, channel=0, data=[49, 0]),
   midi.NoteOnEvent(tick=0, channel=0, data=[61, 38]),
   midi.NoteOnEvent(tick=0, channel=0, data=[58, 38]),
   midi.NoteOnEvent(tick=240, channel=0, data=[58, 0]),
   midi.NoteOnEvent(tick=0, channel=0, data=[61, 0]),
   midi.NoteOnEvent(tick=0, channel=0, data=[49, 30]),
   midi.NoteOnEvent(tick=240, channel=0, data=[49, 0]),
   midi.NoteOnEvent(tick=240, channel=0, data=[49, 37]),
   midi.NoteOnEvent(tick=120, channel=0, data=[49, 0]),
   midi.NoteOnEvent(tick=360, channel=0, data=[49, 41]),
   midi.NoteOnEvent(tick=120, channel=0, data=[49, 0]),
   midi.NoteOnEvent(tick=360, channel=0, data=[49, 30]),
   midi.NoteOnEvent(tick=240, channel=0, data=[49, 0]),
   midi.NoteOnEvent(tick=0, channel=0, data=[61, 38]),
   midi.NoteOnEvent(tick=0, channel=0, data=[58, 38]),
   midi.NoteOnEvent(tick=240, channel=0, data=[58, 0]),
   midi.NoteOnEvent(tick=0, channel=0, data=[61, 0]),
   midi.NoteOnEvent(tick=0, channel=0, data=[49, 30]),
   midi.NoteOnEvent(tick=720, channel=0, data=[49, 0]),
   midi.NoteOnEvent(tick=0, channel=0, data=[49, 33]),
   midi.NoteOnEvent(tick=240, channel=0, data=[49, 0]),
   midi.NoteOnEvent(tick=240, channel=0, data=[51, 30]),
   midi.NoteOnEvent(tick=0, channel=0, data=[58, 30]),
   midi.NoteOnEvent(tick=0, channel=0, data=[63, 51]),
   midi.NoteOnEvent(tick=480, channel=0, data=[63, 0]),
   midi.NoteOnEvent(tick=0, channel=0, data=[63, 47]),
   midi.NoteOnEvent(tick=120, channel=0, data=[63, 0]),
   midi.NoteOnEvent(tick=120, channel=0, data=[63, 40]),
   midi.NoteOnEvent(tick=120, channel=0, data=[63, 0]),
   midi.NoteOnEvent(tick=120, channel=0, data=[58, 0]),
   midi.NoteOnEvent(tick=0, channel=0, data=[51, 0]),
   midi.NoteOnEvent(tick=0, channel=0, data=[53, 27]),
   midi.NoteOnEvent(tick=0, channel=0, data=[58, 27]),
   midi.NoteOnEvent(tick=0, channel=0, data=[61, 46]),
   midi.NoteOnEvent(tick=120, channel=0, data=[61, 0]),
   midi.NoteOnEvent(tick=120, channel=0, data=[61, 40]),
   midi.NoteOnEvent(tick=120, channel=0, data=[61, 0]),
   midi.NoteOnEvent(tick=120, channel=0, data=[61, 46]),
   midi.NoteOnEvent(tick=120, channel=0, data=[61, 0]),
   midi.NoteOnEvent(tick=120, channel=0, data=[61, 41]),
   midi.NoteOnEvent(tick=120, channel=0, data=[61, 0]),
   midi.NoteOnEvent(tick=120, channel=0, data=[58, 0]),
   midi.NoteOnEvent(tick=0, channel=0, data=[53, 0]),
   midi.NoteOnEvent(tick=0, channel=0, data=[54, 30]),
   midi.NoteOnEvent(tick=0, channel=0, data=[58, 30]),
   midi.NoteOnEvent(tick=0, channel=0, data=[60, 51]),
   midi.NoteOnEvent(tick=480, channel=0, data=[60, 0]),
   midi.NoteOnEvent(tick=0, channel=0, data=[54, 0]),
   midi.NoteOnEvent(tick=0, channel=0, data=[55, 25]),
   midi.NoteOnEvent(tick=0, channel=0, data=[60, 44]),
   midi.NoteOnEvent(tick=120, channel=0, data=[60, 0]),
   midi.NoteOnEvent(tick=120, channel=0, data=[60, 33]),
   midi.NoteOnEvent(tick=120, channel=0, data=[60, 0]),
   midi.NoteOnEvent(tick=120, channel=0, data=[55, 0]),
   midi.NoteOnEvent(tick=0, channel=0, data=[58, 0]),
   midi.NoteOnEvent(tick=0, channel=0, data=[56, 23]),
   midi.NoteOnEvent(tick=0, channel=0, data=[59, 39]),
   midi.NoteOnEvent(tick=480, channel=0, data=[66, 50]),
   midi.NoteOnEvent(tick=480, channel=0, data=[66, 0]),
   midi.NoteOnEvent(tick=0, channel=0, data=[59, 0]),
   midi.NoteOnEvent(tick=0, channel=0, data=[56, 0]),
   midi.NoteOnEvent(tick=0, channel=0, data=[63, 40]),
   midi.NoteOnEvent(tick=0, channel=0, data=[58, 37]),
   midi.NoteOnEvent(tick=0, channel=0, data=[51, 37]),
   midi.NoteOnEvent(tick=960, channel=0, data=[70, 37]),
   midi.NoteOnEvent(tick=240, channel=0, data=[70, 0]),
   midi.NoteOnEvent(tick=0, channel=0, data=[70, 45]),
   midi.NoteOnEvent(tick=240, channel=0, data=[70, 0]),
   midi.NoteOnEvent(tick=1435, channel=0, data=[58, 0]),
   midi.NoteOnEvent(tick=5, channel=0, data=[58, 40]),
   midi.NoteOnEvent(tick=240, channel=0, data=[58, 0]),
   midi.NoteOnEvent(tick=0, channel=0, data=[58, 33]),
   midi.NoteOnEvent(tick=240, channel=0, data=[58, 0]),
   midi.NoteOnEvent(tick=480, channel=0, data=[51, 0]),
   midi.NoteOnEvent(tick=0, channel=0, data=[63, 0]),
   midi.NoteOnEvent(tick=0, channel=0, data=[63, 33]),
   midi.NoteOnEvent(tick=0, channel=0, data=[58, 33]),
   midi.NoteOnEvent(tick=0, channel=0, data=[51, 33]),
   midi.NoteOnEvent(tick=960, channel=0, data=[70, 31]),
   midi.NoteOnEvent(tick=240, channel=0, data=[70, 0]),
   midi.NoteOnEvent(tick=0, channel=0, data=[70, 37]),
   midi.NoteOnEvent(tick=240, channel=0, data=[70, 0]),
   midi.NoteOnEvent(tick=1435, channel=0, data=[58, 0]),
   midi.NoteOnEvent(tick=5, channel=0, data=[58, 30]),
   midi.NoteOnEvent(tick=240, channel=0, data=[58, 0]),
   midi.NoteOnEvent(tick=0, channel=0, data=[58, 24]),
   midi.NoteOnEvent(tick=240, channel=0, data=[58, 0]),
   midi.NoteOnEvent(tick=480, channel=0, data=[51, 0]),
   midi.NoteOnEvent(tick=0, channel=0, data=[63, 0]),
   midi.NoteOnEvent(tick=0, channel=0, data=[70, 30]),
   midi.NoteOnEvent(tick=0, channel=0, data=[77, 33]),
   midi.NoteOnEvent(tick=480, channel=0, data=[77, 0]),
   midi.NoteOnEvent(tick=0, channel=0, data=[70, 0]),
   midi.NoteOnEvent(tick=0, channel=0, data=[70, 30]),
   midi.NoteOnEvent(tick=0, channel=0, data=[74, 39]),
   midi.NoteOnEvent(tick=120, channel=0, data=[70, 0]),
   midi.NoteOnEvent(tick=120, channel=0, data=[70, 30]),
   midi.NoteOnEvent(tick=120, channel=0, data=[70, 0]),
   midi.NoteOnEvent(tick=120, channel=0, data=[69, 30]),
   midi.NoteOnEvent(tick=120, channel=0, data=[69, 0]),
   midi.NoteOnEvent(tick=120, channel=0, data=[69, 30]),
   midi.NoteOnEvent(tick=120, channel=0, data=[69, 0]),
   midi.NoteOnEvent(tick=120, channel=0, data=[74, 0]),
   midi.NoteOnEvent(tick=0, channel=0, data=[69, 28]),
   midi.NoteOnEvent(tick=0, channel=0, data=[77, 37]),
   midi.NoteOnEvent(tick=120, channel=0, data=[69, 0]),
   midi.NoteOnEvent(tick=120, channel=0, data=[77, 0]),
   midi.NoteOnEvent(tick=0, channel=0, data=[69, 28]),
   midi.NoteOnEvent(tick=0, channel=0, data=[79, 37]),
   midi.NoteOnEvent(tick=120, channel=0, data=[69, 0]),
   midi.NoteOnEvent(tick=120, channel=0, data=[79, 0]),
   midi.NoteOnEvent(tick=0, channel=0, data=[67, 30]),
   midi.NoteOnEvent(tick=0, channel=0, data=[72, 39]),
   midi.NoteOnEvent(tick=240, channel=0, data=[72, 0]),
   midi.NoteOnEvent(tick=0, channel=0, data=[74, 33]),
   midi.NoteOnEvent(tick=240, channel=0, data=[74, 0]),
   midi.NoteOnEvent(tick=0, channel=0, data=[67, 0]),
   midi.NoteOnEvent(tick=0, channel=0, data=[67, 30]),
   midi.NoteOnEvent(tick=0, channel=0, data=[77, 39]),
   midi.NoteOnEvent(tick=120, channel=0, data=[67, 0]),
   midi.NoteOnEvent(tick=120, channel=0, data=[67, 30]),
   midi.NoteOnEvent(tick=120, channel=0, data=[67, 0]),
   midi.NoteOnEvent(tick=120, channel=0, data=[65, 30]),
   midi.NoteOnEvent(tick=480, channel=0, data=[65, 0]),
   midi.NoteOnEvent(tick=0, channel=0, data=[77, 0]),
   midi.NoteOnEvent(tick=0, channel=0, data=[74, 33]),
   midi.NoteOnEvent(tick=240, channel=0, data=[72, 27]),
   midi.NoteOnEvent(tick=220, channel=0, data=[72, 0]),
   midi.NoteOnEvent(tick=20, channel=0, data=[74, 0]),
   midi.NoteOnEvent(tick=0, channel=0, data=[72, 37]),
   midi.NoteOnEvent(tick=0, channel=0, data=[70, 30]),
   midi.NoteOnEvent(tick=240, channel=0, data=[72, 0]),
   midi.NoteOnEvent(tick=0, channel=0, data=[74, 30]),
   midi.NoteOnEvent(tick=220, channel=0, data=[74, 0]),
   midi.NoteOnEvent(tick=20, channel=0, data=[70, 0]),
   midi.NoteOnEvent(tick=0, channel=0, data=[74, 34]),
   midi.NoteOnEvent(tick=0, channel=0, data=[70, 30]),
   midi.NoteOnEvent(tick=120, channel=0, data=[70, 0]),
   midi.NoteOnEvent(tick=120, channel=0, data=[70, 30]),
   midi.NoteOnEvent(tick=120, channel=0, data=[70, 0]),
   midi.NoteOnEvent(tick=120, channel=0, data=[74, 0]),
   midi.NoteOnEvent(tick=0, channel=0, data=[72, 34]),
   midi.NoteOnEvent(tick=0, channel=0, data=[69, 30]),
   midi.NoteOnEvent(tick=120, channel=0, data=[69, 0]),
   midi.NoteOnEvent(tick=120, channel=0, data=[69, 30]),
   midi.NoteOnEvent(tick=120, channel=0, data=[69, 0]),
   midi.NoteOnEvent(tick=120, channel=0, data=[72, 0]),
   midi.NoteOnEvent(tick=0, channel=0, data=[69, 28]),
   midi.NoteOnEvent(tick=0, channel=0, data=[77, 38]),
   midi.NoteOnEvent(tick=120, channel=0, data=[69, 0]),
   midi.NoteOnEvent(tick=120, channel=0, data=[69, 28]),
   midi.NoteOnEvent(tick=120, channel=0, data=[69, 0]),
   midi.NoteOnEvent(tick=120, channel=0, data=[77, 0]),
   midi.NoteOnEvent(tick=0, channel=0, data=[74, 31]),
   midi.NoteOnEvent(tick=0, channel=0, data=[67, 30]),
   midi.NoteOnEvent(tick=480, channel=0, data=[67, 0]),
   midi.NoteOnEvent(tick=0, channel=0, data=[67, 30]),
   midi.NoteOnEvent(tick=120, channel=0, data=[67, 0]),
   midi.NoteOnEvent(tick=120, channel=0, data=[67, 30]),
   midi.NoteOnEvent(tick=120, channel=0, data=[67, 0]),
   midi.NoteOnEvent(tick=120, channel=0, data=[65, 30]),
   midi.NoteOnEvent(tick=480, channel=0, data=[65, 0]),
   midi.NoteOnEvent(tick=0, channel=0, data=[62, 30]),
   midi.NoteOnEvent(tick=0, channel=0, data=[72, 31]),
   midi.NoteOnEvent(tick=240, channel=0, data=[72, 0]),
   midi.NoteOnEvent(tick=0, channel=0, data=[69, 28]),
   midi.NoteOnEvent(tick=240, channel=0, data=[69, 0]),
   midi.NoteOnEvent(tick=0, channel=0, data=[62, 0]),
   midi.NoteOnEvent(tick=0, channel=0, data=[74, 0]),
   midi.NoteOnEvent(tick=0, channel=0, data=[62, 21]),
   midi.NoteOnEvent(tick=0, channel=0, data=[67, 31]),
   midi.NoteOnEvent(tick=0, channel=0, data=[60, 21]),
   midi.NoteOnEvent(tick=240, channel=0, data=[67, 0]),
   midi.NoteOnEvent(tick=0, channel=0, data=[65, 30]),
   midi.NoteOnEvent(tick=240, channel=0, data=[65, 0]),
   midi.NoteOnEvent(tick=0, channel=0, data=[67, 31]),
   midi.NoteOnEvent(tick=960, channel=0, data=[67, 0]),
   midi.NoteOnEvent(tick=0, channel=0, data=[69, 36]),
   midi.NoteOnEvent(tick=240, channel=0, data=[69, 0]),
   midi.NoteOnEvent(tick=0, channel=0, data=[72, 31]),
   midi.NoteOnEvent(tick=240, channel=0, data=[72, 0]),
   midi.NoteOnEvent(tick=0, channel=0, data=[60, 0]),
   midi.NoteOnEvent(tick=0, channel=0, data=[62, 0]),
   midi.NoteOnEvent(tick=0, channel=0, data=[67, 40]),
   midi.NoteOnEvent(tick=0, channel=0, data=[62, 21]),
   midi.NoteOnEvent(tick=0, channel=0, data=[60, 21]),
   midi.NoteOnEvent(tick=480, channel=0, data=[67, 0]),
   midi.NoteOnEvent(tick=0, channel=0, data=[74, 40]),
   midi.NoteOnEvent(tick=480, channel=0, data=[74, 0]),
   midi.NoteOnEvent(tick=0, channel=0, data=[72, 34]),
   midi.NoteOnEvent(tick=480, channel=0, data=[72, 0]),
   midi.NoteOnEvent(tick=0, channel=0, data=[69, 31]),
   midi.NoteOnEvent(tick=480, channel=0, data=[69, 0]),
   midi.NoteOnEvent(tick=0, channel=0, data=[60, 0]),
   midi.NoteOnEvent(tick=0, channel=0, data=[62, 0]),
   midi.NoteOnEvent(tick=0, channel=0, data=[62, 21]),
   midi.NoteOnEvent(tick=0, channel=0, data=[60, 21]),
   midi.NoteOnEvent(tick=0, channel=0, data=[67, 30]),
   midi.NoteOnEvent(tick=240, channel=0, data=[67, 0]),
   midi.NoteOnEvent(tick=0, channel=0, data=[65, 25]),
   midi.NoteOnEvent(tick=240, channel=0, data=[65, 0]),
   midi.NoteOnEvent(tick=0, channel=0, data=[67, 31]),
   midi.NoteOnEvent(tick=480, channel=0, data=[67, 0]),
   midi.NoteOnEvent(tick=0, channel=0, data=[69, 34]),
   midi.NoteOnEvent(tick=480, channel=0, data=[69, 0]),
   midi.NoteOnEvent(tick=0, channel=0, data=[72, 39]),
   midi.NoteOnEvent(tick=480, channel=0, data=[72, 0]),
   midi.NoteOnEvent(tick=0, channel=0, data=[60, 0]),
   midi.NoteOnEvent(tick=0, channel=0, data=[62, 0]),
   midi.NoteOnEvent(tick=0, channel=0, data=[60, 21]),
   midi.NoteOnEvent(tick=0, channel=0, data=[67, 33]),
   midi.NoteOnEvent(tick=0, channel=0, data=[62, 21]),
   midi.NoteOnEvent(tick=3600, channel=0, data=[67, 0]),
   midi.NoteOnEvent(tick=0, channel=0, data=[65, 30]),
   midi.NoteOnEvent(tick=240, channel=0, data=[65, 0]),
   midi.NoteOnEvent(tick=0, channel=0, data=[62, 0]),
   midi.NoteOnEvent(tick=0, channel=0, data=[60, 0]),
   midi.NoteOnEvent(tick=0, channel=0, data=[60, 21]),
   midi.NoteOnEvent(tick=0, channel=0, data=[67, 31]),
   midi.NoteOnEvent(tick=0, channel=0, data=[62, 21]),
   midi.NoteOnEvent(tick=3360, channel=0, data=[62, 0]),
   midi.NoteOnEvent(tick=0, channel=0, data=[67, 0]),
   midi.NoteOnEvent(tick=0, channel=0, data=[60, 0]),
   midi.NoteOnEvent(tick=480, channel=0, data=[48, 21]),
   midi.NoteOnEvent(tick=0, channel=0, data=[50, 28]),
   midi.NoteOnEvent(tick=1920, channel=0, data=[50, 0]),
   midi.NoteOnEvent(tick=0, channel=0, data=[48, 0]),
   midi.NoteOnEvent(tick=0, channel=0, data=[48, 21]),
   midi.NoteOnEvent(tick=0, channel=0, data=[50, 28]),
   midi.NoteOnEvent(tick=1920, channel=0, data=[50, 0]),
   midi.NoteOnEvent(tick=0, channel=0, data=[48, 0]),
   midi.NoteOnEvent(tick=0, channel=0, data=[48, 21]),
   midi.NoteOnEvent(tick=0, channel=0, data=[50, 28]),
   midi.NoteOnEvent(tick=3840, channel=0, data=[50, 0]),
   midi.NoteOnEvent(tick=0, channel=0, data=[48, 0]),
   midi.NoteOnEvent(tick=0, channel=0, data=[53, 21]),
   midi.NoteOnEvent(tick=0, channel=0, data=[55, 28]),
   midi.NoteOnEvent(tick=960, channel=0, data=[75, 37]),
   midi.NoteOnEvent(tick=960, channel=0, data=[75, 0]),
   midi.NoteOnEvent(tick=960, channel=0, data=[73, 36]),
   midi.NoteOnEvent(tick=960, channel=0, data=[73, 0]),
   midi.NoteOnEvent(tick=1920, channel=0, data=[55, 0]),
   midi.NoteOnEvent(tick=0, channel=0, data=[53, 0]),
   midi.EndOfTrackEvent(tick=0, data=[])]),
 midi.Track(\
  [midi.TrackNameEvent(tick=0, text='Piano left', data=[80, 105, 97, 110, 111, 32, 108, 101, 102, 116]),
   midi.ProgramChangeEvent(tick=0, channel=0, data=[0]),
   midi.NoteOnEvent(tick=0, channel=0, data=[41, 34]),
   midi.NoteOnEvent(tick=480, channel=0, data=[41, 0]),
   midi.NoteOnEvent(tick=0, channel=0, data=[38, 40]),
   midi.NoteOnEvent(tick=960, channel=0, data=[38, 0]),
   midi.NoteOnEvent(tick=0, channel=0, data=[41, 38]),
   midi.NoteOnEvent(tick=240, channel=0, data=[41, 0]),
   midi.NoteOnEvent(tick=0, channel=0, data=[43, 38]),
   midi.NoteOnEvent(tick=240, channel=0, data=[43, 0]),
   midi.NoteOnEvent(tick=0, channel=0, data=[36, 40]),
   midi.NoteOnEvent(tick=240, channel=0, data=[36, 0]),
   midi.NoteOnEvent(tick=0, channel=0, data=[38, 34]),
   midi.NoteOnEvent(tick=240, channel=0, data=[38, 0]),
   midi.NoteOnEvent(tick=0, channel=0, data=[41, 40]),
   midi.NoteOnEvent(tick=960, channel=0, data=[41, 0]),
   midi.NoteOnEvent(tick=0, channel=0, data=[38, 34]),
   midi.NoteOnEvent(tick=240, channel=0, data=[38, 0]),
   midi.NoteOnEvent(tick=0, channel=0, data=[36, 31]),
   midi.NoteOnEvent(tick=220, channel=0, data=[36, 0]),
   midi.NoteOnEvent(tick=20, channel=0, data=[36, 38]),
   midi.NoteOnEvent(tick=240, channel=0, data=[36, 0]),
   midi.NoteOnEvent(tick=0, channel=0, data=[38, 32]),
   midi.NoteOnEvent(tick=220, channel=0, data=[38, 0]),
   midi.NoteOnEvent(tick=20, channel=0, data=[38, 35]),
   midi.NoteOnEvent(tick=480, channel=0, data=[38, 0]),
   midi.NoteOnEvent(tick=0, channel=0, data=[36, 35]),
   midi.NoteOnEvent(tick=480, channel=0, data=[36, 0]),
   midi.NoteOnEvent(tick=0, channel=0, data=[41, 39]),
   midi.NoteOnEvent(tick=480, channel=0, data=[41, 0]),
   midi.NoteOnEvent(tick=0, channel=0, data=[38, 33]),
   midi.NoteOnEvent(tick=3360, channel=0, data=[38, 0]),
   midi.NoteOnEvent(tick=0, channel=0, data=[36, 31]),
   midi.NoteOnEvent(tick=240, channel=0, data=[36, 0]),
   midi.NoteOnEvent(tick=0, channel=0, data=[33, 27]),
   midi.NoteOnEvent(tick=240, channel=0, data=[33, 0]),
   midi.NoteOnEvent(tick=0, channel=0, data=[31, 31]),
   midi.NoteOnEvent(tick=240, channel=0, data=[31, 0]),
   midi.NoteOnEvent(tick=0, channel=0, data=[29, 29]),
   midi.NoteOnEvent(tick=240, channel=0, data=[29, 0]),
   midi.NoteOnEvent(tick=0, channel=0, data=[31, 31]),
   midi.NoteOnEvent(tick=960, channel=0, data=[31, 0]),
   midi.NoteOnEvent(tick=0, channel=0, data=[33, 34]),
   midi.NoteOnEvent(tick=240, channel=0, data=[33, 0]),
   midi.NoteOnEvent(tick=0, channel=0, data=[36, 31]),
   midi.NoteOnEvent(tick=240, channel=0, data=[36, 0]),
   midi.NoteOnEvent(tick=0, channel=0, data=[31, 38]),
   midi.NoteOnEvent(tick=480, channel=0, data=[31, 0]),
   midi.NoteOnEvent(tick=0, channel=0, data=[38, 38]),
   midi.NoteOnEvent(tick=480, channel=0, data=[38, 0]),
   midi.NoteOnEvent(tick=0, channel=0, data=[36, 33]),
   midi.NoteOnEvent(tick=480, channel=0, data=[36, 0]),
   midi.NoteOnEvent(tick=0, channel=0, data=[33, 30]),
   midi.NoteOnEvent(tick=480, channel=0, data=[33, 0]),
   midi.NoteOnEvent(tick=0, channel=0, data=[31, 29]),
   midi.NoteOnEvent(tick=240, channel=0, data=[31, 0]),
   midi.NoteOnEvent(tick=0, channel=0, data=[29, 24]),
   midi.NoteOnEvent(tick=240, channel=0, data=[29, 0]),
   midi.NoteOnEvent(tick=0, channel=0, data=[31, 30]),
   midi.NoteOnEvent(tick=480, channel=0, data=[31, 0]),
   midi.NoteOnEvent(tick=0, channel=0, data=[33, 33]),
   midi.NoteOnEvent(tick=480, channel=0, data=[33, 0]),
   midi.NoteOnEvent(tick=0, channel=0, data=[36, 37]),
   midi.NoteOnEvent(tick=480, channel=0, data=[36, 0]),
   midi.NoteOnEvent(tick=0, channel=0, data=[31, 30]),
   midi.NoteOnEvent(tick=960, channel=0, data=[55, 14]),
   midi.NoteOnEvent(tick=0, channel=0, data=[53, 11]),
   midi.NoteOnEvent(tick=120, channel=0, data=[53, 0]),
   midi.NoteOnEvent(tick=0, channel=0, data=[55, 0]),
   midi.NoteOnEvent(tick=120, channel=0, data=[55, 14]),
   midi.NoteOnEvent(tick=0, channel=0, data=[53, 11]),
   midi.NoteOnEvent(tick=1200, channel=0, data=[53, 0]),
   midi.NoteOnEvent(tick=0, channel=0, data=[55, 0]),
   midi.NoteOnEvent(tick=0, channel=0, data=[53, 11]),
   midi.NoteOnEvent(tick=0, channel=0, data=[55, 14]),
   midi.NoteOnEvent(tick=1440, channel=0, data=[31, 0]),
   midi.NoteOnEvent(tick=480, channel=0, data=[55, 0]),
   midi.NoteOnEvent(tick=0, channel=0, data=[53, 0]),
   midi.NoteOnEvent(tick=0, channel=0, data=[53, 11]),
   midi.NoteOnEvent(tick=0, channel=0, data=[55, 14]),
   midi.NoteOnEvent(tick=1920, channel=0, data=[55, 0]),
   midi.NoteOnEvent(tick=0, channel=0, data=[53, 0]),
   midi.NoteOnEvent(tick=0, channel=0, data=[53, 11]),
   midi.NoteOnEvent(tick=0, channel=0, data=[55, 14]),
   midi.NoteOnEvent(tick=1920, channel=0, data=[55, 0]),
   midi.NoteOnEvent(tick=0, channel=0, data=[53, 0]),
   midi.NoteOnEvent(tick=0, channel=0, data=[53, 11]),
   midi.NoteOnEvent(tick=0, channel=0, data=[55, 14]),
   midi.NoteOnEvent(tick=1920, channel=0, data=[55, 0]),
   midi.NoteOnEvent(tick=0, channel=0, data=[53, 0]),
   midi.NoteOnEvent(tick=0, channel=0, data=[53, 11]),
   midi.NoteOnEvent(tick=0, channel=0, data=[55, 14]),
   midi.NoteOnEvent(tick=1440, channel=0, data=[55, 0]),
   midi.NoteOnEvent(tick=0, channel=0, data=[53, 0]),
   midi.NoteOnEvent(tick=0, channel=0, data=[39, 26]),
   midi.NoteOnEvent(tick=1920, channel=0, data=[39, 0]),
   midi.NoteOnEvent(tick=0, channel=0, data=[37, 26]),
   midi.NoteOnEvent(tick=2880, channel=0, data=[37, 0]),
   midi.NoteOnEvent(tick=0, channel=0, data=[34, 26]),
   midi.NoteOnEvent(tick=960, channel=0, data=[34, 0]),
   midi.NoteOnEvent(tick=0, channel=0, data=[30, 19]),
   midi.NoteOnEvent(tick=960, channel=0, data=[30, 0]),
   midi.NoteOnEvent(tick=0, channel=0, data=[29, 13]),
   midi.NoteOnEvent(tick=0, channel=0, data=[31, 15]),
   midi.NoteOnEvent(tick=120, channel=0, data=[31, 0]),
   midi.NoteOnEvent(tick=0, channel=0, data=[29, 0]),
   midi.NoteOnEvent(tick=840, channel=0, data=[53, 13]),
   midi.NoteOnEvent(tick=0, channel=0, data=[55, 16]),
   midi.NoteOnEvent(tick=480, channel=0, data=[55, 0]),
   midi.NoteOnEvent(tick=0, channel=0, data=[53, 0]),
   midi.NoteOnEvent(tick=0, channel=0, data=[50, 17]),
   midi.NoteOnEvent(tick=0, channel=0, data=[48, 14]),
   midi.NoteOnEvent(tick=480, channel=0, data=[48, 0]),
   midi.NoteOnEvent(tick=0, channel=0, data=[50, 0]),
   midi.NoteOnEvent(tick=0, channel=0, data=[41, 16]),
   midi.NoteOnEvent(tick=480, channel=0, data=[41, 0]),
   midi.NoteOnEvent(tick=0, channel=0, data=[34, 16]),
   midi.NoteOnEvent(tick=480, channel=0, data=[34, 0]),
   midi.NoteOnEvent(tick=0, channel=0, data=[53, 13]),
   midi.NoteOnEvent(tick=0, channel=0, data=[55, 16]),
   midi.NoteOnEvent(tick=480, channel=0, data=[55, 0]),
   midi.NoteOnEvent(tick=0, channel=0, data=[53, 0]),
   midi.NoteOnEvent(tick=0, channel=0, data=[50, 16]),
   midi.NoteOnEvent(tick=0, channel=0, data=[48, 13]),
   midi.NoteOnEvent(tick=480, channel=0, data=[48, 0]),
   midi.NoteOnEvent(tick=0, channel=0, data=[50, 0]),
   midi.NoteOnEvent(tick=0, channel=0, data=[41, 16]),
   midi.NoteOnEvent(tick=480, channel=0, data=[41, 0]),
   midi.NoteOnEvent(tick=0, channel=0, data=[34, 16]),
   midi.NoteOnEvent(tick=480, channel=0, data=[34, 0]),
   midi.NoteOnEvent(tick=0, channel=0, data=[53, 13]),
   midi.NoteOnEvent(tick=0, channel=0, data=[55, 16]),
   midi.NoteOnEvent(tick=480, channel=0, data=[55, 0]),
   midi.NoteOnEvent(tick=0, channel=0, data=[53, 0]),
   midi.NoteOnEvent(tick=0, channel=0, data=[50, 16]),
   midi.NoteOnEvent(tick=0, channel=0, data=[48, 13]),
   midi.NoteOnEvent(tick=480, channel=0, data=[48, 0]),
   midi.NoteOnEvent(tick=0, channel=0, data=[50, 0]),
   midi.NoteOnEvent(tick=0, channel=0, data=[41, 16]),
   midi.NoteOnEvent(tick=480, channel=0, data=[41, 0]),
   midi.NoteOnEvent(tick=0, channel=0, data=[34, 16]),
   midi.NoteOnEvent(tick=480, channel=0, data=[34, 0]),
   midi.NoteOnEvent(tick=0, channel=0, data=[53, 13]),
   midi.NoteOnEvent(tick=0, channel=0, data=[55, 16]),
   midi.NoteOnEvent(tick=480, channel=0, data=[55, 0]),
   midi.NoteOnEvent(tick=0, channel=0, data=[53, 0]),
   midi.NoteOnEvent(tick=0, channel=0, data=[50, 16]),
   midi.NoteOnEvent(tick=0, channel=0, data=[48, 13]),
   midi.NoteOnEvent(tick=480, channel=0, data=[48, 0]),
   midi.NoteOnEvent(tick=0, channel=0, data=[50, 0]),
   midi.NoteOnEvent(tick=0, channel=0, data=[41, 16]),
   midi.NoteOnEvent(tick=480, channel=0, data=[41, 0]),
   midi.NoteOnEvent(tick=0, channel=0, data=[34, 16]),
   midi.NoteOnEvent(tick=480, channel=0, data=[34, 0]),
   midi.NoteOnEvent(tick=0, channel=0, data=[53, 13]),
   midi.NoteOnEvent(tick=0, channel=0, data=[55, 16]),
   midi.NoteOnEvent(tick=480, channel=0, data=[55, 0]),
   midi.NoteOnEvent(tick=0, channel=0, data=[53, 0]),
   midi.NoteOnEvent(tick=0, channel=0, data=[50, 16]),
   midi.NoteOnEvent(tick=0, channel=0, data=[48, 13]),
   midi.NoteOnEvent(tick=480, channel=0, data=[48, 0]),
   midi.NoteOnEvent(tick=0, channel=0, data=[50, 0]),
   midi.NoteOnEvent(tick=0, channel=0, data=[41, 16]),
   midi.NoteOnEvent(tick=480, channel=0, data=[41, 0]),
   midi.NoteOnEvent(tick=0, channel=0, data=[34, 16]),
   midi.NoteOnEvent(tick=480, channel=0, data=[34, 0]),
   midi.NoteOnEvent(tick=0, channel=0, data=[53, 13]),
   midi.NoteOnEvent(tick=0, channel=0, data=[55, 16]),
   midi.NoteOnEvent(tick=480, channel=0, data=[55, 0]),
   midi.NoteOnEvent(tick=0, channel=0, data=[53, 0]),
   midi.NoteOnEvent(tick=0, channel=0, data=[50, 16]),
   midi.NoteOnEvent(tick=0, channel=0, data=[48, 13]),
   midi.NoteOnEvent(tick=480, channel=0, data=[48, 0]),
   midi.NoteOnEvent(tick=0, channel=0, data=[50, 0]),
   midi.NoteOnEvent(tick=0, channel=0, data=[41, 16]),
   midi.NoteOnEvent(tick=480, channel=0, data=[41, 0]),
   midi.NoteOnEvent(tick=0, channel=0, data=[34, 16]),
   midi.NoteOnEvent(tick=480, channel=0, data=[34, 0]),
   midi.NoteOnEvent(tick=0, channel=0, data=[55, 16]),
   midi.NoteOnEvent(tick=0, channel=0, data=[53, 13]),
   midi.NoteOnEvent(tick=480, channel=0, data=[53, 0]),
   midi.NoteOnEvent(tick=0, channel=0, data=[55, 0]),
   midi.NoteOnEvent(tick=0, channel=0, data=[50, 16]),
   midi.NoteOnEvent(tick=0, channel=0, data=[48, 13]),
   midi.NoteOnEvent(tick=480, channel=0, data=[48, 0]),
   midi.NoteOnEvent(tick=0, channel=0, data=[50, 0]),
   midi.NoteOnEvent(tick=0, channel=0, data=[41, 16]),
   midi.NoteOnEvent(tick=480, channel=0, data=[41, 0]),
   midi.NoteOnEvent(tick=0, channel=0, data=[34, 16]),
   midi.NoteOnEvent(tick=480, channel=0, data=[34, 0]),
   midi.NoteOnEvent(tick=0, channel=0, data=[55, 16]),
   midi.NoteOnEvent(tick=0, channel=0, data=[53, 13]),
   midi.NoteOnEvent(tick=480, channel=0, data=[53, 0]),
   midi.NoteOnEvent(tick=0, channel=0, data=[55, 0]),
   midi.NoteOnEvent(tick=0, channel=0, data=[50, 16]),
   midi.NoteOnEvent(tick=0, channel=0, data=[48, 13]),
   midi.NoteOnEvent(tick=480, channel=0, data=[48, 0]),
   midi.NoteOnEvent(tick=0, channel=0, data=[50, 0]),
   midi.NoteOnEvent(tick=0, channel=0, data=[41, 16]),
   midi.NoteOnEvent(tick=480, channel=0, data=[41, 0]),
   midi.NoteOnEvent(tick=0, channel=0, data=[34, 16]),
   midi.NoteOnEvent(tick=480, channel=0, data=[34, 0]),
   midi.NoteOnEvent(tick=0, channel=0, data=[53, 13]),
   midi.NoteOnEvent(tick=0, channel=0, data=[55, 16]),
   midi.NoteOnEvent(tick=480, channel=0, data=[55, 0]),
   midi.NoteOnEvent(tick=0, channel=0, data=[53, 0]),
   midi.NoteOnEvent(tick=0, channel=0, data=[48, 13]),
   midi.NoteOnEvent(tick=0, channel=0, data=[50, 16]),
   midi.NoteOnEvent(tick=480, channel=0, data=[50, 0]),
   midi.NoteOnEvent(tick=0, channel=0, data=[48, 0]),
   midi.NoteOnEvent(tick=0, channel=0, data=[41, 16]),
   midi.NoteOnEvent(tick=480, channel=0, data=[41, 0]),
   midi.NoteOnEvent(tick=0, channel=0, data=[34, 16]),
   midi.NoteOnEvent(tick=480, channel=0, data=[34, 0]),
   midi.NoteOnEvent(tick=0, channel=0, data=[53, 13]),
   midi.NoteOnEvent(tick=0, channel=0, data=[55, 16]),
   midi.NoteOnEvent(tick=480, channel=0, data=[55, 0]),
   midi.NoteOnEvent(tick=0, channel=0, data=[53, 0]),
   midi.NoteOnEvent(tick=0, channel=0, data=[48, 13]),
   midi.NoteOnEvent(tick=0, channel=0, data=[50, 16]),
   midi.NoteOnEvent(tick=480, channel=0, data=[50, 0]),
   midi.NoteOnEvent(tick=0, channel=0, data=[48, 0]),
   midi.NoteOnEvent(tick=0, channel=0, data=[41, 16]),
   midi.NoteOnEvent(tick=480, channel=0, data=[41, 0]),
   midi.NoteOnEvent(tick=0, channel=0, data=[34, 16]),
   midi.NoteOnEvent(tick=480, channel=0, data=[34, 0]),
   midi.NoteOnEvent(tick=0, channel=0, data=[32, 33]),
   midi.NoteOnEvent(tick=960, channel=0, data=[43, 31]),
   midi.NoteOnEvent(tick=480, channel=0, data=[43, 0]),
   midi.NoteOnEvent(tick=480, channel=0, data=[32, 0]),
   midi.NoteOnEvent(tick=0, channel=0, data=[32, 33]),
   midi.NoteOnEvent(tick=480, channel=0, data=[41, 25]),
   midi.NoteOnEvent(tick=120, channel=0, data=[41, 0]),
   midi.NoteOnEvent(tick=120, channel=0, data=[41, 25]),
   midi.NoteOnEvent(tick=120, channel=0, data=[41, 0]),
   midi.NoteOnEvent(tick=120, channel=0, data=[39, 31]),
   midi.NoteOnEvent(tick=480, channel=0, data=[39, 0]),
   midi.NoteOnEvent(tick=0, channel=0, data=[48, 36]),
   midi.NoteOnEvent(tick=240, channel=0, data=[48, 0]),
   midi.NoteOnEvent(tick=240, channel=0, data=[32, 0]),
   midi.NoteOnEvent(tick=0, channel=0, data=[32, 33]),
   midi.NoteOnEvent(tick=960, channel=0, data=[43, 31]),
   midi.NoteOnEvent(tick=480, channel=0, data=[43, 0]),
   midi.NoteOnEvent(tick=480, channel=0, data=[41, 31]),
   midi.NoteOnEvent(tick=480, channel=0, data=[41, 0]),
   midi.NoteOnEvent(tick=960, channel=0, data=[32, 0]),
   midi.NoteOnEvent(tick=0, channel=0, data=[32, 29]),
   midi.NoteOnEvent(tick=480, channel=0, data=[32, 0]),
   midi.NoteOnEvent(tick=0, channel=0, data=[44, 37]),
   midi.NoteOnEvent(tick=480, channel=0, data=[44, 0]),
   midi.NoteOnEvent(tick=0, channel=0, data=[46, 34]),
   midi.NoteOnEvent(tick=480, channel=0, data=[46, 0]),
   midi.NoteOnEvent(tick=0, channel=0, data=[44, 30]),
   midi.NoteOnEvent(tick=480, channel=0, data=[44, 0]),
   midi.NoteOnEvent(tick=0, channel=0, data=[32, 31]),
   midi.NoteOnEvent(tick=480, channel=0, data=[32, 0]),
   midi.NoteOnEvent(tick=0, channel=0, data=[44, 37]),
   midi.NoteOnEvent(tick=480, channel=0, data=[44, 0]),
   midi.NoteOnEvent(tick=0, channel=0, data=[46, 34]),
   midi.NoteOnEvent(tick=480, channel=0, data=[46, 0]),
   midi.NoteOnEvent(tick=0, channel=0, data=[44, 30]),
   midi.NoteOnEvent(tick=480, channel=0, data=[44, 0]),
   midi.NoteOnEvent(tick=0, channel=0, data=[32, 31]),
   midi.NoteOnEvent(tick=480, channel=0, data=[32, 0]),
   midi.NoteOnEvent(tick=0, channel=0, data=[44, 37]),
   midi.NoteOnEvent(tick=480, channel=0, data=[44, 0]),
   midi.NoteOnEvent(tick=0, channel=0, data=[46, 34]),
   midi.NoteOnEvent(tick=480, channel=0, data=[46, 0]),
   midi.NoteOnEvent(tick=0, channel=0, data=[44, 30]),
   midi.NoteOnEvent(tick=480, channel=0, data=[44, 0]),
   midi.NoteOnEvent(tick=0, channel=0, data=[32, 31]),
   midi.NoteOnEvent(tick=480, channel=0, data=[32, 0]),
   midi.NoteOnEvent(tick=0, channel=0, data=[44, 37]),
   midi.NoteOnEvent(tick=480, channel=0, data=[44, 0]),
   midi.NoteOnEvent(tick=0, channel=0, data=[46, 34]),
   midi.NoteOnEvent(tick=480, channel=0, data=[46, 0]),
   midi.NoteOnEvent(tick=0, channel=0, data=[44, 30]),
   midi.NoteOnEvent(tick=480, channel=0, data=[44, 0]),
   midi.NoteOnEvent(tick=0, channel=0, data=[32, 31]),
   midi.NoteOnEvent(tick=480, channel=0, data=[32, 0]),
   midi.NoteOnEvent(tick=0, channel=0, data=[44, 37]),
   midi.NoteOnEvent(tick=480, channel=0, data=[44, 0]),
   midi.NoteOnEvent(tick=0, channel=0, data=[46, 34]),
   midi.NoteOnEvent(tick=480, channel=0, data=[46, 0]),
   midi.NoteOnEvent(tick=0, channel=0, data=[44, 30]),
   midi.NoteOnEvent(tick=480, channel=0, data=[44, 0]),
   midi.NoteOnEvent(tick=0, channel=0, data=[32, 31]),
   midi.NoteOnEvent(tick=480, channel=0, data=[32, 0]),
   midi.NoteOnEvent(tick=0, channel=0, data=[44, 37]),
   midi.NoteOnEvent(tick=480, channel=0, data=[44, 0]),
   midi.NoteOnEvent(tick=0, channel=0, data=[46, 34]),
   midi.NoteOnEvent(tick=480, channel=0, data=[46, 0]),
   midi.NoteOnEvent(tick=0, channel=0, data=[44, 30]),
   midi.NoteOnEvent(tick=480, channel=0, data=[44, 0]),
   midi.NoteOnEvent(tick=0, channel=0, data=[34, 31]),
   midi.NoteOnEvent(tick=240, channel=0, data=[34, 0]),
   midi.NoteOnEvent(tick=240, channel=0, data=[33, 31]),
   midi.NoteOnEvent(tick=120, channel=0, data=[33, 0]),
   midi.NoteOnEvent(tick=120, channel=0, data=[45, 24]),
   midi.NoteOnEvent(tick=120, channel=0, data=[45, 0]),
   midi.NoteOnEvent(tick=120, channel=0, data=[35, 32]),
   midi.NoteOnEvent(tick=120, channel=0, data=[35, 0]),
   midi.NoteOnEvent(tick=120, channel=0, data=[47, 25]),
   midi.NoteOnEvent(tick=120, channel=0, data=[47, 0]),
   midi.NoteOnEvent(tick=120, channel=0, data=[33, 31]),
   midi.NoteOnEvent(tick=120, channel=0, data=[33, 0]),
   midi.NoteOnEvent(tick=120, channel=0, data=[45, 25]),
   midi.NoteOnEvent(tick=120, channel=0, data=[45, 0]),
   midi.NoteOnEvent(tick=120, channel=0, data=[35, 29]),
   midi.NoteOnEvent(tick=120, channel=0, data=[35, 0]),
   midi.NoteOnEvent(tick=120, channel=0, data=[47, 25]),
   midi.NoteOnEvent(tick=120, channel=0, data=[47, 0]),
   midi.NoteOnEvent(tick=120, channel=0, data=[33, 31]),
   midi.NoteOnEvent(tick=120, channel=0, data=[33, 0]),
   midi.NoteOnEvent(tick=120, channel=0, data=[45, 24]),
   midi.NoteOnEvent(tick=120, channel=0, data=[45, 0]),
   midi.NoteOnEvent(tick=120, channel=0, data=[35, 32]),
   midi.NoteOnEvent(tick=120, channel=0, data=[35, 0]),
   midi.NoteOnEvent(tick=120, channel=0, data=[47, 25]),
   midi.NoteOnEvent(tick=120, channel=0, data=[47, 0]),
   midi.NoteOnEvent(tick=120, channel=0, data=[33, 31]),
   midi.NoteOnEvent(tick=120, channel=0, data=[33, 0]),
   midi.NoteOnEvent(tick=120, channel=0, data=[45, 25]),
   midi.NoteOnEvent(tick=120, channel=0, data=[45, 0]),
   midi.NoteOnEvent(tick=120, channel=0, data=[35, 29]),
   midi.NoteOnEvent(tick=120, channel=0, data=[35, 0]),
   midi.NoteOnEvent(tick=120, channel=0, data=[47, 25]),
   midi.NoteOnEvent(tick=120, channel=0, data=[47, 0]),
   midi.NoteOnEvent(tick=120, channel=0, data=[33, 31]),
   midi.NoteOnEvent(tick=120, channel=0, data=[33, 0]),
   midi.NoteOnEvent(tick=120, channel=0, data=[45, 24]),
   midi.NoteOnEvent(tick=120, channel=0, data=[45, 0]),
   midi.NoteOnEvent(tick=120, channel=0, data=[35, 33]),
   midi.NoteOnEvent(tick=120, channel=0, data=[35, 0]),
   midi.NoteOnEvent(tick=120, channel=0, data=[47, 27]),
   midi.NoteOnEvent(tick=120, channel=0, data=[47, 0]),
   midi.NoteOnEvent(tick=120, channel=0, data=[37, 34]),
   midi.NoteOnEvent(tick=120, channel=0, data=[37, 0]),
   midi.NoteOnEvent(tick=120, channel=0, data=[49, 28]),
   midi.NoteOnEvent(tick=120, channel=0, data=[49, 0]),
   midi.NoteOnEvent(tick=120, channel=0, data=[39, 34]),
   midi.NoteOnEvent(tick=120, channel=0, data=[39, 0]),
   midi.NoteOnEvent(tick=120, channel=0, data=[51, 30]),
   midi.NoteOnEvent(tick=120, channel=0, data=[51, 0]),
   midi.NoteOnEvent(tick=120, channel=0, data=[41, 40]),
   midi.NoteOnEvent(tick=120, channel=0, data=[41, 0]),
   midi.NoteOnEvent(tick=120, channel=0, data=[53, 30]),
   midi.NoteOnEvent(tick=120, channel=0, data=[53, 0]),
   midi.NoteOnEvent(tick=120, channel=0, data=[39, 39]),
   midi.NoteOnEvent(tick=120, channel=0, data=[39, 0]),
   midi.NoteOnEvent(tick=120, channel=0, data=[51, 29]),
   midi.NoteOnEvent(tick=120, channel=0, data=[51, 0]),
   midi.NoteOnEvent(tick=120, channel=0, data=[37, 35]),
   midi.NoteOnEvent(tick=120, channel=0, data=[37, 0]),
   midi.NoteOnEvent(tick=120, channel=0, data=[49, 28]),
   midi.NoteOnEvent(tick=120, channel=0, data=[49, 0]),
   midi.NoteOnEvent(tick=120, channel=0, data=[35, 31]),
   midi.NoteOnEvent(tick=120, channel=0, data=[35, 0]),
   midi.NoteOnEvent(tick=120, channel=0, data=[47, 26]),
   midi.NoteOnEvent(tick=120, channel=0, data=[47, 0]),
   midi.NoteOnEvent(tick=120, channel=0, data=[33, 31]),
   midi.NoteOnEvent(tick=120, channel=0, data=[33, 0]),
   midi.NoteOnEvent(tick=120, channel=0, data=[45, 24]),
   midi.NoteOnEvent(tick=120, channel=0, data=[45, 0]),
   midi.NoteOnEvent(tick=120, channel=0, data=[35, 32]),
   midi.NoteOnEvent(tick=120, channel=0, data=[35, 0]),
   midi.NoteOnEvent(tick=120, channel=0, data=[47, 25]),
   midi.NoteOnEvent(tick=120, channel=0, data=[47, 0]),
   midi.NoteOnEvent(tick=120, channel=0, data=[33, 31]),
   midi.NoteOnEvent(tick=120, channel=0, data=[33, 0]),
   midi.NoteOnEvent(tick=120, channel=0, data=[45, 25]),
   midi.NoteOnEvent(tick=120, channel=0, data=[45, 0]),
   midi.NoteOnEvent(tick=120, channel=0, data=[35, 29]),
   midi.NoteOnEvent(tick=120, channel=0, data=[35, 0]),
   midi.NoteOnEvent(tick=120, channel=0, data=[47, 25]),
   midi.NoteOnEvent(tick=120, channel=0, data=[47, 0]),
   midi.NoteOnEvent(tick=120, channel=0, data=[33, 31]),
   midi.NoteOnEvent(tick=120, channel=0, data=[33, 0]),
   midi.NoteOnEvent(tick=120, channel=0, data=[45, 24]),
   midi.NoteOnEvent(tick=120, channel=0, data=[45, 0]),
   midi.NoteOnEvent(tick=120, channel=0, data=[35, 32]),
   midi.NoteOnEvent(tick=120, channel=0, data=[35, 0]),
   midi.NoteOnEvent(tick=120, channel=0, data=[47, 25]),
   midi.NoteOnEvent(tick=120, channel=0, data=[47, 0]),
   midi.NoteOnEvent(tick=120, channel=0, data=[33, 31]),
   midi.NoteOnEvent(tick=120, channel=0, data=[33, 0]),
   midi.NoteOnEvent(tick=120, channel=0, data=[45, 25]),
   midi.NoteOnEvent(tick=120, channel=0, data=[45, 0]),
   midi.NoteOnEvent(tick=120, channel=0, data=[35, 29]),
   midi.NoteOnEvent(tick=120, channel=0, data=[35, 0]),
   midi.NoteOnEvent(tick=120, channel=0, data=[47, 25]),
   midi.NoteOnEvent(tick=120, channel=0, data=[47, 0]),
   midi.NoteOnEvent(tick=120, channel=0, data=[33, 31]),
   midi.NoteOnEvent(tick=120, channel=0, data=[33, 0]),
   midi.NoteOnEvent(tick=120, channel=0, data=[45, 24]),
   midi.NoteOnEvent(tick=120, channel=0, data=[45, 0]),
   midi.NoteOnEvent(tick=120, channel=0, data=[35, 34]),
   midi.NoteOnEvent(tick=120, channel=0, data=[35, 0]),
   midi.NoteOnEvent(tick=120, channel=0, data=[47, 27]),
   midi.NoteOnEvent(tick=120, channel=0, data=[47, 0]),
   midi.NoteOnEvent(tick=120, channel=0, data=[37, 34]),
   midi.NoteOnEvent(tick=120, channel=0, data=[37, 0]),
   midi.NoteOnEvent(tick=120, channel=0, data=[49, 28]),
   midi.NoteOnEvent(tick=120, channel=0, data=[49, 0]),
   midi.NoteOnEvent(tick=120, channel=0, data=[39, 38]),
   midi.NoteOnEvent(tick=120, channel=0, data=[39, 0]),
   midi.NoteOnEvent(tick=120, channel=0, data=[51, 35]),
   midi.NoteOnEvent(tick=120, channel=0, data=[51, 0]),
   midi.NoteOnEvent(tick=120, channel=0, data=[41, 40]),
   midi.NoteOnEvent(tick=120, channel=0, data=[41, 0]),
   midi.NoteOnEvent(tick=120, channel=0, data=[53, 33]),
   midi.NoteOnEvent(tick=120, channel=0, data=[53, 0]),
   midi.NoteOnEvent(tick=120, channel=0, data=[43, 42]),
   midi.NoteOnEvent(tick=120, channel=0, data=[43, 0]),
   midi.NoteOnEvent(tick=120, channel=0, data=[55, 34]),
   midi.NoteOnEvent(tick=120, channel=0, data=[55, 0]),
   midi.NoteOnEvent(tick=120, channel=0, data=[45, 48]),
   midi.NoteOnEvent(tick=120, channel=0, data=[45, 0]),
   midi.NoteOnEvent(tick=120, channel=0, data=[57, 39]),
   midi.NoteOnEvent(tick=120, channel=0, data=[57, 0]),
   midi.NoteOnEvent(tick=120, channel=0, data=[47, 50]),
   midi.NoteOnEvent(tick=120, channel=0, data=[47, 0]),
   midi.NoteOnEvent(tick=120, channel=0, data=[59, 42]),
   midi.NoteOnEvent(tick=120, channel=0, data=[59, 0]),
   midi.NoteOnEvent(tick=120, channel=0, data=[49, 35]),
   midi.NoteOnEvent(tick=120, channel=0, data=[49, 0]),
   midi.NoteOnEvent(tick=120, channel=0, data=[61, 39]),
   midi.NoteOnEvent(tick=480, channel=0, data=[61, 0]),
   midi.NoteOnEvent(tick=240, channel=0, data=[49, 35]),
   midi.NoteOnEvent(tick=120, channel=0, data=[49, 0]),
   midi.NoteOnEvent(tick=120, channel=0, data=[61, 41]),
   midi.NoteOnEvent(tick=480, channel=0, data=[61, 0]),
   midi.NoteOnEvent(tick=240, channel=0, data=[49, 35]),
   midi.NoteOnEvent(tick=120, channel=0, data=[49, 0]),
   midi.NoteOnEvent(tick=120, channel=0, data=[61, 39]),
   midi.NoteOnEvent(tick=480, channel=0, data=[61, 0]),
   midi.NoteOnEvent(tick=240, channel=0, data=[49, 35]),
   midi.NoteOnEvent(tick=120, channel=0, data=[49, 0]),
   midi.NoteOnEvent(tick=120, channel=0, data=[61, 41]),
   midi.NoteOnEvent(tick=480, channel=0, data=[61, 0]),
   midi.NoteOnEvent(tick=240, channel=0, data=[49, 35]),
   midi.NoteOnEvent(tick=120, channel=0, data=[49, 0]),
   midi.NoteOnEvent(tick=120, channel=0, data=[61, 39]),
   midi.NoteOnEvent(tick=480, channel=0, data=[61, 0]),
   midi.NoteOnEvent(tick=240, channel=0, data=[61, 35]),
   midi.NoteOnEvent(tick=120, channel=0, data=[61, 0]),
   midi.NoteOnEvent(tick=120, channel=0, data=[49, 41]),
   midi.NoteOnEvent(tick=480, channel=0, data=[49, 0]),
   midi.NoteOnEvent(tick=240, channel=0, data=[49, 29]),
   midi.NoteOnEvent(tick=120, channel=0, data=[49, 0]),
   midi.NoteOnEvent(tick=120, channel=0, data=[61, 42]),
   midi.NoteOnEvent(tick=480, channel=0, data=[61, 0]),
   midi.NoteOnEvent(tick=240, channel=0, data=[61, 30]),
   midi.NoteOnEvent(tick=120, channel=0, data=[61, 0]),
   midi.NoteOnEvent(tick=120, channel=0, data=[49, 38]),
   midi.NoteOnEvent(tick=480, channel=0, data=[49, 0]),
   midi.NoteOnEvent(tick=240, channel=0, data=[49, 35]),
   midi.NoteOnEvent(tick=120, channel=0, data=[49, 0]),
   midi.NoteOnEvent(tick=120, channel=0, data=[61, 39]),
   midi.NoteOnEvent(tick=480, channel=0, data=[61, 0]),
   midi.NoteOnEvent(tick=240, channel=0, data=[49, 35]),
   midi.NoteOnEvent(tick=960, channel=0, data=[49, 0]),
   midi.NoteOnEvent(tick=0, channel=0, data=[49, 29]),
   midi.NoteOnEvent(tick=120, channel=0, data=[49, 0]),
   midi.NoteOnEvent(tick=120, channel=0, data=[61, 39]),
   midi.NoteOnEvent(tick=480, channel=0, data=[61, 0]),
   midi.NoteOnEvent(tick=240, channel=0, data=[49, 30]),
   midi.NoteOnEvent(tick=960, channel=0, data=[49, 0]),
   midi.NoteOnEvent(tick=0, channel=0, data=[42, 30]),
   midi.NoteOnEvent(tick=240, channel=0, data=[49, 30]),
   midi.NoteOnEvent(tick=120, channel=0, data=[49, 0]),
   midi.NoteOnEvent(tick=120, channel=0, data=[61, 37]),
   midi.NoteOnEvent(tick=120, channel=0, data=[61, 0]),
   midi.NoteOnEvent(tick=120, channel=0, data=[49, 30]),
   midi.NoteOnEvent(tick=120, channel=0, data=[49, 0]),
   midi.NoteOnEvent(tick=120, channel=0, data=[49, 30]),
   midi.NoteOnEvent(tick=120, channel=0, data=[49, 0]),
   midi.NoteOnEvent(tick=120, channel=0, data=[49, 30]),
   midi.NoteOnEvent(tick=120, channel=0, data=[49, 0]),
   midi.NoteOnEvent(tick=120, channel=0, data=[61, 34]),
   midi.NoteOnEvent(tick=120, channel=0, data=[61, 0]),
   midi.NoteOnEvent(tick=120, channel=0, data=[49, 30]),
   midi.NoteOnEvent(tick=120, channel=0, data=[49, 0]),
   midi.NoteOnEvent(tick=120, channel=0, data=[42, 0]),
   midi.NoteOnEvent(tick=0, channel=0, data=[42, 38]),
   midi.NoteOnEvent(tick=480, channel=0, data=[42, 0]),
   midi.NoteOnEvent(tick=0, channel=0, data=[42, 35]),
   midi.NoteOnEvent(tick=120, channel=0, data=[42, 0]),
   midi.NoteOnEvent(tick=120, channel=0, data=[42, 30]),
   midi.NoteOnEvent(tick=120, channel=0, data=[42, 0]),
   midi.NoteOnEvent(tick=120, channel=0, data=[41, 34]),
   midi.NoteOnEvent(tick=120, channel=0, data=[41, 0]),
   midi.NoteOnEvent(tick=120, channel=0, data=[41, 30]),
   midi.NoteOnEvent(tick=120, channel=0, data=[41, 0]),
   midi.NoteOnEvent(tick=120, channel=0, data=[41, 34]),
   midi.NoteOnEvent(tick=120, channel=0, data=[41, 0]),
   midi.NoteOnEvent(tick=120, channel=0, data=[41, 31]),
   midi.NoteOnEvent(tick=120, channel=0, data=[41, 0]),
   midi.NoteOnEvent(tick=120, channel=0, data=[40, 38]),
   midi.NoteOnEvent(tick=480, channel=0, data=[40, 0]),
   midi.NoteOnEvent(tick=0, channel=0, data=[40, 32]),
   midi.NoteOnEvent(tick=120, channel=0, data=[40, 0]),
   midi.NoteOnEvent(tick=120, channel=0, data=[40, 24]),
   midi.NoteOnEvent(tick=120, channel=0, data=[40, 0]),
   midi.NoteOnEvent(tick=120, channel=0, data=[39, 29]),
   midi.NoteOnEvent(tick=480, channel=0, data=[39, 0]),
   midi.NoteOnEvent(tick=0, channel=0, data=[46, 37]),
   midi.NoteOnEvent(tick=480, channel=0, data=[46, 0]),
   midi.NoteOnEvent(tick=0, channel=0, data=[42, 38]),
   midi.NoteOnEvent(tick=480, channel=0, data=[42, 0]),
   midi.NoteOnEvent(tick=0, channel=0, data=[42, 35]),
   midi.NoteOnEvent(tick=120, channel=0, data=[42, 0]),
   midi.NoteOnEvent(tick=120, channel=0, data=[42, 30]),
   midi.NoteOnEvent(tick=120, channel=0, data=[42, 0]),
   midi.NoteOnEvent(tick=120, channel=0, data=[41, 34]),
   midi.NoteOnEvent(tick=120, channel=0, data=[41, 0]),
   midi.NoteOnEvent(tick=120, channel=0, data=[41, 30]),
   midi.NoteOnEvent(tick=120, channel=0, data=[41, 0]),
   midi.NoteOnEvent(tick=120, channel=0, data=[41, 34]),
   midi.NoteOnEvent(tick=120, channel=0, data=[41, 0]),
   midi.NoteOnEvent(tick=120, channel=0, data=[41, 31]),
   midi.NoteOnEvent(tick=120, channel=0, data=[41, 0]),
   midi.NoteOnEvent(tick=120, channel=0, data=[46, 30]),
   midi.NoteOnEvent(tick=480, channel=0, data=[46, 0]),
   midi.NoteOnEvent(tick=0, channel=0, data=[39, 28]),
   midi.NoteOnEvent(tick=480, channel=0, data=[39, 0]),
   midi.NoteOnEvent(tick=0, channel=0, data=[46, 30]),
   midi.NoteOnEvent(tick=480, channel=0, data=[46, 0]),
   midi.NoteOnEvent(tick=0, channel=0, data=[39, 25]),
   midi.NoteOnEvent(tick=480, channel=0, data=[39, 0]),
   midi.NoteOnEvent(tick=0, channel=0, data=[46, 30]),
   midi.NoteOnEvent(tick=480, channel=0, data=[46, 0]),
   midi.NoteOnEvent(tick=0, channel=0, data=[39, 25]),
   midi.NoteOnEvent(tick=480, channel=0, data=[39, 0]),
   midi.NoteOnEvent(tick=0, channel=0, data=[46, 30]),
   midi.NoteOnEvent(tick=480, channel=0, data=[46, 0]),
   midi.NoteOnEvent(tick=0, channel=0, data=[39, 26]),
   midi.NoteOnEvent(tick=480, channel=0, data=[39, 0]),
   midi.NoteOnEvent(tick=0, channel=0, data=[46, 30]),
   midi.NoteOnEvent(tick=480, channel=0, data=[46, 0]),
   midi.NoteOnEvent(tick=0, channel=0, data=[39, 25]),
   midi.NoteOnEvent(tick=480, channel=0, data=[39, 0]),
   midi.NoteOnEvent(tick=0, channel=0, data=[46, 30]),
   midi.NoteOnEvent(tick=480, channel=0, data=[46, 0]),
   midi.NoteOnEvent(tick=0, channel=0, data=[39, 26]),
   midi.NoteOnEvent(tick=480, channel=0, data=[39, 0]),
   midi.NoteOnEvent(tick=0, channel=0, data=[37, 30]),
   midi.NoteOnEvent(tick=480, channel=0, data=[37, 0]),
   midi.NoteOnEvent(tick=0, channel=0, data=[39, 25]),
   midi.NoteOnEvent(tick=480, channel=0, data=[39, 0]),
   midi.NoteOnEvent(tick=0, channel=0, data=[34, 30]),
   midi.NoteOnEvent(tick=480, channel=0, data=[34, 0]),
   midi.NoteOnEvent(tick=0, channel=0, data=[39, 26]),
   midi.NoteOnEvent(tick=480, channel=0, data=[39, 0]),
   midi.NoteOnEvent(tick=0, channel=0, data=[46, 27]),
   midi.NoteOnEvent(tick=480, channel=0, data=[46, 0]),
   midi.NoteOnEvent(tick=0, channel=0, data=[39, 22]),
   midi.NoteOnEvent(tick=480, channel=0, data=[39, 0]),
   midi.NoteOnEvent(tick=0, channel=0, data=[46, 25]),
   midi.NoteOnEvent(tick=480, channel=0, data=[46, 0]),
   midi.NoteOnEvent(tick=0, channel=0, data=[39, 21]),
   midi.NoteOnEvent(tick=480, channel=0, data=[39, 0]),
   midi.NoteOnEvent(tick=0, channel=0, data=[37, 24]),
   midi.NoteOnEvent(tick=480, channel=0, data=[37, 0]),
   midi.NoteOnEvent(tick=0, channel=0, data=[39, 19]),
   midi.NoteOnEvent(tick=480, channel=0, data=[39, 0]),
   midi.NoteOnEvent(tick=0, channel=0, data=[35, 22]),
   midi.NoteOnEvent(tick=480, channel=0, data=[35, 0]),
   midi.NoteOnEvent(tick=0, channel=0, data=[39, 18]),
   midi.NoteOnEvent(tick=480, channel=0, data=[39, 0]),
   midi.NoteOnEvent(tick=0, channel=0, data=[34, 17]),
   midi.NoteOnEvent(tick=0, channel=0, data=[41, 21]),
   midi.NoteOnEvent(tick=3360, channel=0, data=[41, 0]),
   midi.NoteOnEvent(tick=0, channel=0, data=[34, 0]),
   midi.NoteOnEvent(tick=0, channel=0, data=[41, 21]),
   midi.NoteOnEvent(tick=480, channel=0, data=[34, 17]),
   midi.NoteOnEvent(tick=3360, channel=0, data=[34, 0]),
   midi.NoteOnEvent(tick=0, channel=0, data=[41, 0]),
   midi.NoteOnEvent(tick=0, channel=0, data=[41, 21]),
   midi.NoteOnEvent(tick=480, channel=0, data=[41, 0]),
   midi.NoteOnEvent(tick=0, channel=0, data=[55, 17]),
   midi.NoteOnEvent(tick=0, channel=0, data=[53, 14]),
   midi.NoteOnEvent(tick=480, channel=0, data=[53, 0]),
   midi.NoteOnEvent(tick=0, channel=0, data=[55, 0]),
   midi.NoteOnEvent(tick=0, channel=0, data=[50, 17]),
   midi.NoteOnEvent(tick=0, channel=0, data=[48, 14]),
   midi.NoteOnEvent(tick=480, channel=0, data=[48, 0]),
   midi.NoteOnEvent(tick=0, channel=0, data=[50, 0]),
   midi.NoteOnEvent(tick=0, channel=0, data=[41, 17]),
   midi.NoteOnEvent(tick=480, channel=0, data=[41, 0]),
   midi.NoteOnEvent(tick=0, channel=0, data=[34, 17]),
   midi.NoteOnEvent(tick=480, channel=0, data=[34, 0]),
   midi.NoteOnEvent(tick=0, channel=0, data=[55, 17]),
   midi.NoteOnEvent(tick=0, channel=0, data=[53, 14]),
   midi.NoteOnEvent(tick=480, channel=0, data=[53, 0]),
   midi.NoteOnEvent(tick=0, channel=0, data=[55, 0]),
   midi.NoteOnEvent(tick=0, channel=0, data=[50, 17]),
   midi.NoteOnEvent(tick=0, channel=0, data=[48, 14]),
   midi.NoteOnEvent(tick=480, channel=0, data=[48, 0]),
   midi.NoteOnEvent(tick=0, channel=0, data=[50, 0]),
   midi.NoteOnEvent(tick=0, channel=0, data=[41, 17]),
   midi.NoteOnEvent(tick=480, channel=0, data=[41, 0]),
   midi.NoteOnEvent(tick=0, channel=0, data=[34, 17]),
   midi.NoteOnEvent(tick=480, channel=0, data=[34, 0]),
   midi.NoteOnEvent(tick=0, channel=0, data=[53, 14]),
   midi.NoteOnEvent(tick=0, channel=0, data=[55, 17]),
   midi.NoteOnEvent(tick=480, channel=0, data=[55, 0]),
   midi.NoteOnEvent(tick=0, channel=0, data=[53, 0]),
   midi.NoteOnEvent(tick=0, channel=0, data=[48, 14]),
   midi.NoteOnEvent(tick=0, channel=0, data=[50, 17]),
   midi.NoteOnEvent(tick=480, channel=0, data=[50, 0]),
   midi.NoteOnEvent(tick=0, channel=0, data=[48, 0]),
   midi.NoteOnEvent(tick=0, channel=0, data=[41, 21]),
   midi.NoteOnEvent(tick=480, channel=0, data=[34, 21]),
   midi.NoteOnEvent(tick=960, channel=0, data=[34, 0]),
   midi.NoteOnEvent(tick=0, channel=0, data=[34, 27]),
   midi.NoteOnEvent(tick=120, channel=0, data=[34, 0]),
   midi.NoteOnEvent(tick=120, channel=0, data=[34, 27]),
   midi.NoteOnEvent(tick=120, channel=0, data=[34, 0]),
   midi.NoteOnEvent(tick=120, channel=0, data=[33, 27]),
   midi.NoteOnEvent(tick=120, channel=0, data=[33, 0]),
   midi.NoteOnEvent(tick=120, channel=0, data=[33, 27]),
   midi.NoteOnEvent(tick=120, channel=0, data=[33, 0]),
   midi.NoteOnEvent(tick=120, channel=0, data=[33, 25]),
   midi.NoteOnEvent(tick=120, channel=0, data=[33, 0]),
   midi.NoteOnEvent(tick=120, channel=0, data=[33, 25]),
   midi.NoteOnEvent(tick=120, channel=0, data=[33, 0]),
   midi.NoteOnEvent(tick=120, channel=0, data=[32, 27]),
   midi.NoteOnEvent(tick=480, channel=0, data=[32, 0]),
   midi.NoteOnEvent(tick=0, channel=0, data=[32, 27]),
   midi.NoteOnEvent(tick=120, channel=0, data=[32, 0]),
   midi.NoteOnEvent(tick=120, channel=0, data=[32, 27]),
   midi.NoteOnEvent(tick=120, channel=0, data=[32, 0]),
   midi.NoteOnEvent(tick=115, channel=0, data=[31, 27]),
   midi.NoteOnEvent(tick=480, channel=0, data=[31, 0]),
   midi.NoteOnEvent(tick=5, channel=0, data=[38, 27]),
   midi.NoteOnEvent(tick=480, channel=0, data=[38, 0]),
   midi.NoteOnEvent(tick=0, channel=0, data=[41, 0]),
   midi.NoteOnEvent(tick=0, channel=0, data=[41, 21]),
   midi.NoteOnEvent(tick=480, channel=0, data=[34, 27]),
   midi.NoteOnEvent(tick=120, channel=0, data=[34, 0]),
   midi.NoteOnEvent(tick=120, channel=0, data=[34, 27]),
   midi.NoteOnEvent(tick=120, channel=0, data=[34, 0]),
   midi.NoteOnEvent(tick=120, channel=0, data=[33, 27]),
   midi.NoteOnEvent(tick=120, channel=0, data=[33, 0]),
   midi.NoteOnEvent(tick=120, channel=0, data=[33, 27]),
   midi.NoteOnEvent(tick=120, channel=0, data=[33, 0]),
   midi.NoteOnEvent(tick=120, channel=0, data=[33, 25]),
   midi.NoteOnEvent(tick=120, channel=0, data=[33, 0]),
   midi.NoteOnEvent(tick=120, channel=0, data=[33, 25]),
   midi.NoteOnEvent(tick=120, channel=0, data=[33, 0]),
   midi.NoteOnEvent(tick=120, channel=0, data=[32, 27]),
   midi.NoteOnEvent(tick=480, channel=0, data=[32, 0]),
   midi.NoteOnEvent(tick=0, channel=0, data=[32, 27]),
   midi.NoteOnEvent(tick=120, channel=0, data=[32, 0]),
   midi.NoteOnEvent(tick=120, channel=0, data=[32, 27]),
   midi.NoteOnEvent(tick=360, channel=0, data=[32, 0]),
   midi.NoteOnEvent(tick=360, channel=0, data=[41, 0]),
   midi.NoteOnEvent(tick=0, channel=0, data=[31, 27]),
   midi.NoteOnEvent(tick=480, channel=0, data=[31, 0]),
   midi.NoteOnEvent(tick=480, channel=0, data=[30, 27]),
   midi.NoteOnEvent(tick=240, channel=0, data=[30, 0]),
   midi.NoteOnEvent(tick=240, channel=0, data=[29, 20]),
   midi.NoteOnEvent(tick=480, channel=0, data=[29, 0]),
   midi.NoteOnEvent(tick=0, channel=0, data=[38, 17]),
   midi.NoteOnEvent(tick=480, channel=0, data=[38, 0]),
   midi.NoteOnEvent(tick=480, channel=0, data=[30, 27]),
   midi.NoteOnEvent(tick=240, channel=0, data=[30, 0]),
   midi.NoteOnEvent(tick=240, channel=0, data=[29, 22]),
   midi.NoteOnEvent(tick=480, channel=0, data=[29, 0]),
   midi.NoteOnEvent(tick=0, channel=0, data=[38, 21]),
   midi.NoteOnEvent(tick=480, channel=0, data=[38, 0]),
   midi.NoteOnEvent(tick=960, channel=0, data=[30, 22]),
   midi.NoteOnEvent(tick=960, channel=0, data=[30, 0]),
   midi.NoteOnEvent(tick=0, channel=0, data=[29, 22]),
   midi.NoteOnEvent(tick=960, channel=0, data=[29, 0]),
   midi.NoteOnEvent(tick=0, channel=0, data=[26, 22]),
   midi.NoteOnEvent(tick=960, channel=0, data=[26, 0]),
   midi.NoteOnEvent(tick=0, channel=0, data=[22, 22]),
   midi.NoteOnEvent(tick=5760, channel=0, data=[22, 0]),
   midi.NoteOnEvent(tick=0, channel=0, data=[22, 22]),
   midi.NoteOnEvent(tick=240, channel=0, data=[22, 0]),
   midi.EndOfTrackEvent(tick=0, data=[])]),
 midi.Track(\
  [midi.TrackNameEvent(tick=0, text='Pedale', data=[80, 101, 100, 97, 108, 101]),
   midi.ProgramChangeEvent(tick=0, channel=0, data=[0]),
   midi.ControlChangeEvent(tick=6291, channel=0, data=[64, 127]),
   midi.ControlChangeEvent(tick=417, channel=0, data=[64, 0]),
   midi.ControlChangeEvent(tick=8791, channel=0, data=[64, 127]),
   midi.ControlChangeEvent(tick=11381, channel=0, data=[64, 0]),
   midi.ControlChangeEvent(tick=512, channel=0, data=[64, 127]),
   midi.ControlChangeEvent(tick=455, channel=0, data=[64, 0]),
   midi.ControlChangeEvent(tick=6713, channel=0, data=[64, 127]),
   midi.ControlChangeEvent(tick=1920, channel=0, data=[64, 0]),
   midi.ControlChangeEvent(tick=228, channel=0, data=[64, 127]),
   midi.ControlChangeEvent(tick=1692, channel=0, data=[64, 0]),
   midi.ControlChangeEvent(tick=127, channel=0, data=[64, 127]),
   midi.ControlChangeEvent(tick=1800, channel=0, data=[64, 0]),
   midi.ControlChangeEvent(tick=134, channel=0, data=[64, 127]),
   midi.ControlChangeEvent(tick=1785, channel=0, data=[64, 0]),
   midi.ControlChangeEvent(tick=150, channel=0, data=[64, 127]),
   midi.ControlChangeEvent(tick=1771, channel=0, data=[64, 0]),
   midi.ControlChangeEvent(tick=149, channel=0, data=[64, 127]),
   midi.ControlChangeEvent(tick=1773, channel=0, data=[64, 0]),
   midi.ControlChangeEvent(tick=104, channel=0, data=[64, 127]),
   midi.ControlChangeEvent(tick=1815, channel=0, data=[64, 0]),
   midi.ControlChangeEvent(tick=295, channel=0, data=[64, 127]),
   midi.ControlChangeEvent(tick=1626, channel=0, data=[64, 0]),
   midi.ControlChangeEvent(tick=147, channel=0, data=[64, 127]),
   midi.ControlChangeEvent(tick=1772, channel=0, data=[64, 0]),
   midi.ControlChangeEvent(tick=295, channel=0, data=[64, 127]),
   midi.ControlChangeEvent(tick=1624, channel=0, data=[64, 0]),
   midi.ControlChangeEvent(tick=773, channel=0, data=[64, 127]),
   midi.ControlChangeEvent(tick=670, channel=0, data=[64, 0]),
   midi.ControlChangeEvent(tick=1430, channel=0, data=[64, 127]),
   midi.ControlChangeEvent(tick=967, channel=0, data=[64, 0]),
   midi.ControlChangeEvent(tick=773, channel=0, data=[64, 127]),
   midi.ControlChangeEvent(tick=670, channel=0, data=[64, 0]),
   midi.ControlChangeEvent(tick=2882, channel=0, data=[64, 127]),
   midi.ControlChangeEvent(tick=480, channel=0, data=[64, 0]),
   midi.ControlChangeEvent(tick=137, channel=0, data=[64, 127]),
   midi.ControlChangeEvent(tick=811, channel=0, data=[64, 0]),
   midi.ControlChangeEvent(tick=492, channel=0, data=[64, 127]),
   midi.ControlChangeEvent(tick=480, channel=0, data=[64, 0]),
   midi.ControlChangeEvent(tick=137, channel=0, data=[64, 127]),
   midi.ControlChangeEvent(tick=343, channel=0, data=[64, 0]),
   midi.ControlChangeEvent(tick=120, channel=0, data=[64, 127]),
   midi.ControlChangeEvent(tick=840, channel=0, data=[64, 127]),
   midi.ControlChangeEvent(tick=480, channel=0, data=[64, 0]),
   midi.ControlChangeEvent(tick=97, channel=0, data=[64, 127]),
   midi.ControlChangeEvent(tick=851, channel=0, data=[64, 0]),
   midi.ControlChangeEvent(tick=492, channel=0, data=[64, 127]),
   midi.ControlChangeEvent(tick=480, channel=0, data=[64, 0]),
   midi.ControlChangeEvent(tick=137, channel=0, data=[64, 127]),
   midi.ControlChangeEvent(tick=343, channel=0, data=[64, 0]),
   midi.ControlChangeEvent(tick=120, channel=0, data=[64, 127]),
   midi.ControlChangeEvent(tick=348, channel=0, data=[64, 0]),
   midi.ControlChangeEvent(tick=19252, channel=0, data=[64, 127]),
   midi.ControlChangeEvent(tick=451, channel=0, data=[64, 0]),
   midi.ControlChangeEvent(tick=537, channel=0, data=[64, 127]),
   midi.ControlChangeEvent(tick=182, channel=0, data=[64, 0]),
   midi.ControlChangeEvent(tick=750, channel=0, data=[64, 127]),
   midi.ControlChangeEvent(tick=451, channel=0, data=[64, 0]),
   midi.ControlChangeEvent(tick=537, channel=0, data=[64, 127]),
   midi.ControlChangeEvent(tick=182, channel=0, data=[64, 0]),
   midi.ControlChangeEvent(tick=750, channel=0, data=[64, 127]),
   midi.ControlChangeEvent(tick=451, channel=0, data=[64, 0]),
   midi.ControlChangeEvent(tick=537, channel=0, data=[64, 127]),
   midi.ControlChangeEvent(tick=400, channel=0, data=[64, 0]),
   midi.ControlChangeEvent(tick=532, channel=0, data=[64, 127]),
   midi.ControlChangeEvent(tick=451, channel=0, data=[64, 0]),
   midi.ControlChangeEvent(tick=537, channel=0, data=[64, 127]),
   midi.ControlChangeEvent(tick=880, channel=0, data=[64, 0]),
   midi.ControlChangeEvent(tick=52, channel=0, data=[64, 127]),
   midi.ControlChangeEvent(tick=451, channel=0, data=[64, 0]),
   midi.ControlChangeEvent(tick=537, channel=0, data=[64, 127]),
   midi.ControlChangeEvent(tick=420, channel=0, data=[64, 0]),
   midi.ControlChangeEvent(tick=66, channel=0, data=[64, 127]),
   midi.ControlChangeEvent(tick=394, channel=0, data=[64, 0]),
   midi.ControlChangeEvent(tick=103, channel=0, data=[64, 127]),
   midi.ControlChangeEvent(tick=400, channel=0, data=[64, 0]),
   midi.ControlChangeEvent(tick=537, channel=0, data=[64, 127]),
   midi.ControlChangeEvent(tick=420, channel=0, data=[64, 0]),
   midi.ControlChangeEvent(tick=123, channel=0, data=[64, 127]),
   midi.ControlChangeEvent(tick=337, channel=0, data=[64, 0]),
   midi.ControlChangeEvent(tick=69, channel=0, data=[64, 127]),
   midi.ControlChangeEvent(tick=1851, channel=0, data=[64, 0]),
   midi.ControlChangeEvent(tick=85, channel=0, data=[64, 127]),
   midi.ControlChangeEvent(tick=892, channel=0, data=[64, 0]),
   midi.ControlChangeEvent(tick=943, channel=0, data=[64, 0]),
   midi.ControlChangeEvent(tick=85, channel=0, data=[64, 127]),
   midi.ControlChangeEvent(tick=892, channel=0, data=[64, 0]),
   midi.ControlChangeEvent(tick=89, channel=0, data=[64, 127]),
   midi.ControlChangeEvent(tick=854, channel=0, data=[64, 0]),
   midi.ControlChangeEvent(tick=85, channel=0, data=[64, 127]),
   midi.ControlChangeEvent(tick=892, channel=0, data=[64, 0]),
   midi.ControlChangeEvent(tick=943, channel=0, data=[64, 127]),
   midi.ControlChangeEvent(tick=1017, channel=0, data=[64, 0]),
   midi.ControlChangeEvent(tick=58, channel=0, data=[64, 127]),
   midi.ControlChangeEvent(tick=845, channel=0, data=[64, 0]),
   midi.ControlChangeEvent(tick=99, channel=0, data=[64, 127]),
   midi.ControlChangeEvent(tick=400, channel=0, data=[64, 0]),
   midi.ControlChangeEvent(tick=80, channel=0, data=[64, 127]),
   midi.ControlChangeEvent(tick=402, channel=0, data=[64, 0]),
   midi.ControlChangeEvent(tick=85, channel=0, data=[64, 127]),
   midi.ControlChangeEvent(tick=854, channel=0, data=[64, 0]),
   midi.ControlChangeEvent(tick=240, channel=0, data=[64, 127]),
   midi.ControlChangeEvent(tick=1680, channel=0, data=[64, 0]),
   midi.ControlChangeEvent(tick=141, channel=0, data=[64, 127]),
   midi.ControlChangeEvent(tick=1779, channel=0, data=[64, 0]),
   midi.ControlChangeEvent(tick=240, channel=0, data=[64, 127]),
   midi.ControlChangeEvent(tick=1680, channel=0, data=[64, 0]),
   midi.ControlChangeEvent(tick=141, channel=0, data=[64, 127]),
   midi.ControlChangeEvent(tick=1779, channel=0, data=[64, 0]),
   midi.ControlChangeEvent(tick=127, channel=0, data=[64, 127]),
   midi.ControlChangeEvent(tick=837, channel=0, data=[64, 0]),
   midi.ControlChangeEvent(tick=81, channel=0, data=[64, 127]),
   midi.ControlChangeEvent(tick=960, channel=0, data=[64, 0]),
   midi.ControlChangeEvent(tick=183, channel=0, data=[64, 127]),
   midi.ControlChangeEvent(tick=1658, channel=0, data=[64, 0]),
   midi.ControlChangeEvent(tick=150, channel=0, data=[64, 127]),
   midi.ControlChangeEvent(tick=813, channel=0, data=[64, 0]),
   midi.ControlChangeEvent(tick=90, channel=0, data=[64, 127]),
   midi.ControlChangeEvent(tick=960, channel=0, data=[64, 0]),
   midi.ControlChangeEvent(tick=57, channel=0, data=[64, 127]),
   midi.ControlChangeEvent(tick=1773, channel=0, data=[64, 0]),
   midi.ControlChangeEvent(tick=104, channel=0, data=[64, 127]),
   midi.ControlChangeEvent(tick=1815, channel=0, data=[64, 0]),
   midi.ControlChangeEvent(tick=295, channel=0, data=[64, 127]),
   midi.ControlChangeEvent(tick=1626, channel=0, data=[64, 0]),
   midi.ControlChangeEvent(tick=147, channel=0, data=[64, 127]),
   midi.ControlChangeEvent(tick=1772, channel=0, data=[64, 0]),
   midi.ControlChangeEvent(tick=3840, channel=0, data=[64, 0]),
   midi.EndOfTrackEvent(tick=0, data=[])]),
 midi.Track(\
  [midi.TrackNameEvent(tick=0, text='Debussy: Childrens Corner 2', data=[68, 101, 98, 117, 115, 115, 121, 58, 32, 67, 104, 105, 108, 100, 114, 101, 110, 115, 32, 67, 111, 114, 110, 101, 114, 32, 50]),
   midi.EndOfTrackEvent(tick=0, data=[])]),
 midi.Track(\
  [midi.TrackNameEvent(tick=0, text='Copyright © 2010 by Bernd Krueger', data=[67, 111, 112, 121, 114, 105, 103, 104, 116, 32, 169, 32, 50, 48, 49, 48, 32, 98, 121, 32, 66, 101, 114, 110, 100, 32, 75, 114, 117, 101, 103, 101, 114]),
   midi.EndOfTrackEvent(tick=0, data=[])]),
 midi.Track(\
  [midi.TrackNameEvent(tick=0, text='http://www.piano-midi.de/', data=[104, 116, 116, 112, 58, 47, 47, 119, 119, 119, 46, 112, 105, 97, 110, 111, 45, 109, 105, 100, 105, 46, 100, 101, 47]),
   midi.EndOfTrackEvent(tick=0, data=[])]),
 midi.Track(\
  [midi.TrackNameEvent(tick=0, text='Edition: 2011-05-24', data=[69, 100, 105, 116, 105, 111, 110, 58, 32, 50, 48, 49, 49, 45, 48, 53, 45, 50, 52]),
   midi.EndOfTrackEvent(tick=0, data=[])]),
 midi.Track(\
  [midi.TrackNameEvent(tick=0, text='Spur 8', data=[83, 112, 117, 114, 32, 56]),
   midi.EndOfTrackEvent(tick=0, data=[])]),
 midi.Track(\
  [midi.TrackNameEvent(tick=0, text='Spur 9', data=[83, 112, 117, 114, 32, 57]),
   midi.EndOfTrackEvent(tick=0, data=[])]),
 midi.Track(\
  [midi.TrackNameEvent(tick=0, text='Spur 10', data=[83, 112, 117, 114, 32, 49, 48]),
   midi.EndOfTrackEvent(tick=0, data=[])]),
 midi.Track(\
  [midi.TrackNameEvent(tick=0, text='Spur 11', data=[83, 112, 117, 114, 32, 49, 49]),
   midi.EndOfTrackEvent(tick=0, data=[])]),
 midi.Track(\
  [midi.TrackNameEvent(tick=0, text='Spur 12', data=[83, 112, 117, 114, 32, 49, 50]),
   midi.EndOfTrackEvent(tick=0, data=[])]),
 midi.Track(\
  [midi.TrackNameEvent(tick=0, text='Spur 13', data=[83, 112, 117, 114, 32, 49, 51]),
   midi.EndOfTrackEvent(tick=0, data=[])]),
 midi.Track(\
  [midi.TrackNameEvent(tick=0, text='Spur 14', data=[83, 112, 117, 114, 32, 49, 52]),
   midi.EndOfTrackEvent(tick=0, data=[])]),
 midi.Track(\
  [midi.TrackNameEvent(tick=0, text='Spur 15', data=[83, 112, 117, 114, 32, 49, 53]),
   midi.EndOfTrackEvent(tick=0, data=[])]),
 midi.Track(\
  [midi.TrackNameEvent(tick=0, text='Spur 16', data=[83, 112, 117, 114, 32, 49, 54]),
   midi.EndOfTrackEvent(tick=0, data=[])])])
