import midi
pattern=midi.Pattern(format=1, resolution=480, tracks=\
[midi.Track(\
[   midi.ControlChangeEvent(tick=0, channel=0, data=[7,100]),
   midi.ControlChangeEvent(tick=0, channel=0, data=[10,64]),
   midi.ControlChangeEvent(tick=0, channel=0, data=[91,127]),
   midi.ControlChangeEvent(tick=0, channel=0, data=[64,0]),
   midi.NoteOnEvent(tick=240, channel=0, data=[81,60]),
   midi.NoteOnEvent(tick=240, channel=0, data=[81,0]),
   midi.NoteOnEvent(tick=0, channel=0, data=[88,66]),
   midi.NoteOnEvent(tick=1560, channel=0, data=[88,0]),
   midi.NoteOnEvent(tick=0, channel=0, data=[86,55]),
   midi.NoteOnEvent(tick=60, channel=0, data=[86,0]),
   midi.NoteOnEvent(tick=0, channel=0, data=[88,47]),
   midi.NoteOnEvent(tick=60, channel=0, data=[88,0]),
   midi.NoteOnEvent(tick=0, channel=0, data=[86,62]),
   midi.NoteOnEvent(tick=240, channel=0, data=[86,0]),
   midi.NoteOnEvent(tick=0, channel=0, data=[84,57]),
   midi.NoteOnEvent(tick=240, channel=0, data=[84,0]),
   midi.NoteOnEvent(tick=0, channel=0, data=[86,57]),
   midi.NoteOnEvent(tick=240, channel=0, data=[86,0]),
   midi.NoteOnEvent(tick=0, channel=0, data=[88,62]),
   midi.NoteOnEvent(tick=240, channel=0, data=[88,0]),
   midi.NoteOnEvent(tick=0, channel=0, data=[89,64]),
   midi.NoteOnEvent(tick=240, channel=0, data=[89,0]),
   midi.NoteOnEvent(tick=0, channel=0, data=[91,67]),
   midi.NoteOnEvent(tick=240, channel=0, data=[91,0]),
   midi.NoteOnEvent(tick=0, channel=0, data=[88,66]),
   midi.NoteOnEvent(tick=240, channel=0, data=[88,0]),
   midi.NoteOnEvent(tick=0, channel=0, data=[89,64]),
   midi.NoteOnEvent(tick=240, channel=0, data=[89,0]),
   midi.NoteOnEvent(tick=0, channel=0, data=[88,61]),
   midi.NoteOnEvent(tick=120, channel=0, data=[88,0]),
   midi.NoteOnEvent(tick=0, channel=0, data=[86,59]),
   midi.NoteOnEvent(tick=60, channel=0, data=[86,0]),
   midi.NoteOnEvent(tick=0, channel=0, data=[88,55]),
   midi.NoteOnEvent(tick=60, channel=0, data=[88,0]),
   midi.NoteOnEvent(tick=0, channel=0, data=[86,67]),
   midi.NoteOnEvent(tick=480, channel=0, data=[86,0]),
   midi.NoteOnEvent(tick=0, channel=0, data=[84,60]),
   midi.NoteOnEvent(tick=480, channel=0, data=[84,0]),
   midi.NoteOnEvent(tick=0, channel=0, data=[82,57]),
   midi.NoteOnEvent(tick=480, channel=0, data=[82,0]),
   midi.NoteOnEvent(tick=240, channel=0, data=[57,50]),
   midi.NoteOnEvent(tick=240, channel=0, data=[57,0]),
   midi.NoteOnEvent(tick=0, channel=0, data=[61,51]),
   midi.NoteOnEvent(tick=240, channel=0, data=[61,0]),
   midi.NoteOnEvent(tick=0, channel=0, data=[64,54]),
   midi.NoteOnEvent(tick=240, channel=0, data=[64,0]),
   midi.NoteOnEvent(tick=0, channel=0, data=[69,57]),
   midi.NoteOnEvent(tick=240, channel=0, data=[69,0]),
   midi.NoteOnEvent(tick=0, channel=0, data=[73,58]),
   midi.NoteOnEvent(tick=240, channel=0, data=[73,0]),
   midi.NoteOnEvent(tick=0, channel=0, data=[76,61]),
   midi.NoteOnEvent(tick=240, channel=0, data=[76,0]),
   midi.NoteOnEvent(tick=0, channel=0, data=[69,50]),
   midi.NoteOnEvent(tick=240, channel=0, data=[69,0]),
   midi.NoteOnEvent(tick=0, channel=0, data=[73,51]),
   midi.NoteOnEvent(tick=240, channel=0, data=[73,0]),
   midi.NoteOnEvent(tick=0, channel=0, data=[76,54]),
   midi.NoteOnEvent(tick=240, channel=0, data=[76,0]),
   midi.NoteOnEvent(tick=0, channel=0, data=[81,57]),
   midi.NoteOnEvent(tick=240, channel=0, data=[81,0]),
   midi.NoteOnEvent(tick=0, channel=0, data=[85,58]),
   midi.NoteOnEvent(tick=240, channel=0, data=[85,0]),
   midi.NoteOnEvent(tick=0, channel=0, data=[88,64]),
   midi.NoteOnEvent(tick=240, channel=0, data=[88,0]),
   midi.NoteOnEvent(tick=0, channel=0, data=[85,60]),
   midi.NoteOnEvent(tick=240, channel=0, data=[85,0]),
   midi.NoteOnEvent(tick=0, channel=0, data=[81,58]),
   midi.NoteOnEvent(tick=240, channel=0, data=[81,0]),
   midi.NoteOnEvent(tick=0, channel=0, data=[76,57]),
   midi.NoteOnEvent(tick=240, channel=0, data=[76,0]),
   midi.NoteOnEvent(tick=0, channel=0, data=[73,55]),
   midi.NoteOnEvent(tick=240, channel=0, data=[73,0]),
   midi.NoteOnEvent(tick=0, channel=0, data=[69,53]),
   midi.NoteOnEvent(tick=240, channel=0, data=[69,0]),
   midi.NoteOnEvent(tick=0, channel=0, data=[76,51]),
   midi.NoteOnEvent(tick=240, channel=0, data=[76,0]),
   midi.NoteOnEvent(tick=0, channel=0, data=[73,48]),
   midi.NoteOnEvent(tick=240, channel=0, data=[73,0]),
   midi.NoteOnEvent(tick=0, channel=0, data=[69,46]),
   midi.NoteOnEvent(tick=240, channel=0, data=[69,0]),
   midi.NoteOnEvent(tick=0, channel=0, data=[64,44]),
   midi.NoteOnEvent(tick=240, channel=0, data=[64,0]),
   midi.NoteOnEvent(tick=0, channel=0, data=[61,44]),
   midi.NoteOnEvent(tick=240, channel=0, data=[61,0]),
   midi.NoteOnEvent(tick=0, channel=0, data=[57,42]),
   midi.NoteOnEvent(tick=240, channel=0, data=[57,0]),
   midi.NoteOnEvent(tick=240, channel=0, data=[81,51]),
   midi.NoteOnEvent(tick=240, channel=0, data=[81,0]),
   midi.NoteOnEvent(tick=0, channel=0, data=[88,56]),
   midi.NoteOnEvent(tick=1560, channel=0, data=[88,0]),
   midi.NoteOnEvent(tick=0, channel=0, data=[86,46]),
   midi.NoteOnEvent(tick=60, channel=0, data=[86,0]),
   midi.NoteOnEvent(tick=0, channel=0, data=[88,41]),
   midi.NoteOnEvent(tick=60, channel=0, data=[88,0]),
   midi.NoteOnEvent(tick=0, channel=0, data=[86,52]),
   midi.NoteOnEvent(tick=240, channel=0, data=[86,0]),
   midi.NoteOnEvent(tick=0, channel=0, data=[84,48]),
   midi.NoteOnEvent(tick=240, channel=0, data=[84,0]),
   midi.NoteOnEvent(tick=0, channel=0, data=[86,48]),
   midi.NoteOnEvent(tick=240, channel=0, data=[86,0]),
   midi.NoteOnEvent(tick=0, channel=0, data=[88,52]),
   midi.NoteOnEvent(tick=240, channel=0, data=[88,0]),
   midi.NoteOnEvent(tick=0, channel=0, data=[89,54]),
   midi.NoteOnEvent(tick=240, channel=0, data=[89,0]),
   midi.NoteOnEvent(tick=0, channel=0, data=[91,56]),
   midi.NoteOnEvent(tick=240, channel=0, data=[91,0]),
   midi.NoteOnEvent(tick=0, channel=0, data=[88,56]),
   midi.NoteOnEvent(tick=240, channel=0, data=[88,0]),
   midi.NoteOnEvent(tick=0, channel=0, data=[89,54]),
   midi.NoteOnEvent(tick=240, channel=0, data=[89,0]),
   midi.NoteOnEvent(tick=0, channel=0, data=[88,51]),
   midi.NoteOnEvent(tick=120, channel=0, data=[88,0]),
   midi.NoteOnEvent(tick=0, channel=0, data=[86,51]),
   midi.NoteOnEvent(tick=60, channel=0, data=[86,0]),
   midi.NoteOnEvent(tick=0, channel=0, data=[88,47]),
   midi.NoteOnEvent(tick=60, channel=0, data=[88,0]),
   midi.NoteOnEvent(tick=0, channel=0, data=[86,56]),
   midi.NoteOnEvent(tick=480, channel=0, data=[86,0]),
   midi.NoteOnEvent(tick=0, channel=0, data=[84,51]),
   midi.NoteOnEvent(tick=480, channel=0, data=[84,0]),
   midi.NoteOnEvent(tick=0, channel=0, data=[82,48]),
   midi.NoteOnEvent(tick=480, channel=0, data=[82,0]),
   midi.NoteOnEvent(tick=0, channel=0, data=[81,44]),
   midi.NoteOnEvent(tick=240, channel=0, data=[81,0]),
   midi.NoteOnEvent(tick=0, channel=0, data=[82,46]),
   midi.NoteOnEvent(tick=240, channel=0, data=[82,0]),
   midi.NoteOnEvent(tick=0, channel=0, data=[84,48]),
   midi.NoteOnEvent(tick=240, channel=0, data=[84,0]),
   midi.NoteOnEvent(tick=0, channel=0, data=[86,50]),
   midi.NoteOnEvent(tick=240, channel=0, data=[86,0]),
   midi.NoteOnEvent(tick=0, channel=0, data=[89,52]),
   midi.NoteOnEvent(tick=360, channel=0, data=[89,0]),
   midi.NoteOnEvent(tick=0, channel=0, data=[86,49]),
   midi.NoteOnEvent(tick=60, channel=0, data=[86,0]),
   midi.NoteOnEvent(tick=0, channel=0, data=[88,42]),
   midi.NoteOnEvent(tick=60, channel=0, data=[88,0]),
   midi.NoteOnEvent(tick=0, channel=0, data=[86,56]),
   midi.NoteOnEvent(tick=480, channel=0, data=[86,0]),
   midi.NoteOnEvent(tick=0, channel=0, data=[84,51]),
   midi.NoteOnEvent(tick=480, channel=0, data=[84,0]),
   midi.NoteOnEvent(tick=0, channel=0, data=[82,48]),
   midi.NoteOnEvent(tick=480, channel=0, data=[82,0]),
   midi.NoteOnEvent(tick=0, channel=0, data=[81,46]),
   midi.NoteOnEvent(tick=240, channel=0, data=[81,0]),
   midi.NoteOnEvent(tick=0, channel=0, data=[82,47]),
   midi.NoteOnEvent(tick=240, channel=0, data=[82,0]),
   midi.NoteOnEvent(tick=0, channel=0, data=[84,49]),
   midi.NoteOnEvent(tick=240, channel=0, data=[84,0]),
   midi.NoteOnEvent(tick=0, channel=0, data=[86,51]),
   midi.NoteOnEvent(tick=240, channel=0, data=[86,0]),
   midi.NoteOnEvent(tick=0, channel=0, data=[88,53]),
   midi.NoteOnEvent(tick=240, channel=0, data=[88,0]),
   midi.NoteOnEvent(tick=0, channel=0, data=[91,57]),
   midi.NoteOnEvent(tick=240, channel=0, data=[91,0]),
   midi.NoteOnEvent(tick=0, channel=0, data=[89,55]),
   midi.NoteOnEvent(tick=120, channel=0, data=[89,0]),
   midi.NoteOnEvent(tick=0, channel=0, data=[86,46]),
   midi.NoteOnEvent(tick=60, channel=0, data=[86,0]),
   midi.NoteOnEvent(tick=0, channel=0, data=[88,40]),
   midi.NoteOnEvent(tick=60, channel=0, data=[88,0]),
   midi.NoteOnEvent(tick=0, channel=0, data=[86,50]),
   midi.NoteOnEvent(tick=240, channel=0, data=[86,0]),
   midi.NoteOnEvent(tick=0, channel=0, data=[84,50]),
   midi.NoteOnEvent(tick=240, channel=0, data=[84,0]),
   midi.NoteOnEvent(tick=0, channel=0, data=[82,45]),
   midi.NoteOnEvent(tick=240, channel=0, data=[82,0]),
   midi.NoteOnEvent(tick=0, channel=0, data=[86,49]),
   midi.NoteOnEvent(tick=240, channel=0, data=[86,0]),
   midi.NoteOnEvent(tick=0, channel=0, data=[85,44]),
   midi.NoteOnEvent(tick=240, channel=0, data=[85,0]),
   midi.NoteOnEvent(tick=160, channel=0, data=[70,51]),
   midi.NoteOnEvent(tick=0, channel=0, data=[61,29]),
   midi.NoteOnEvent(tick=160, channel=0, data=[70,0]),
   midi.NoteOnEvent(tick=0, channel=0, data=[69,46]),
   midi.NoteOnEvent(tick=160, channel=0, data=[69,0]),
   midi.NoteOnEvent(tick=0, channel=0, data=[61,0]),
   midi.NoteOnEvent(tick=160, channel=0, data=[61,29]),
   midi.NoteOnEvent(tick=0, channel=0, data=[70,52]),
   midi.NoteOnEvent(tick=160, channel=0, data=[70,0]),
   midi.NoteOnEvent(tick=0, channel=0, data=[69,45]),
   midi.NoteOnEvent(tick=160, channel=0, data=[69,0]),
   midi.NoteOnEvent(tick=0, channel=0, data=[61,0]),
   midi.NoteOnEvent(tick=160, channel=0, data=[61,29]),
   midi.NoteOnEvent(tick=0, channel=0, data=[70,51]),
   midi.NoteOnEvent(tick=160, channel=0, data=[70,0]),
   midi.NoteOnEvent(tick=0, channel=0, data=[69,45]),
   midi.NoteOnEvent(tick=160, channel=0, data=[69,0]),
   midi.NoteOnEvent(tick=0, channel=0, data=[61,0]),
   midi.NoteOnEvent(tick=160, channel=0, data=[62,27]),
   midi.NoteOnEvent(tick=0, channel=0, data=[69,48]),
   midi.NoteOnEvent(tick=160, channel=0, data=[69,0]),
   midi.NoteOnEvent(tick=0, channel=0, data=[67,41]),
   midi.NoteOnEvent(tick=160, channel=0, data=[67,0]),
   midi.NoteOnEvent(tick=0, channel=0, data=[62,0]),
   midi.NoteOnEvent(tick=160, channel=0, data=[69,48]),
   midi.NoteOnEvent(tick=0, channel=0, data=[62,27]),
   midi.NoteOnEvent(tick=160, channel=0, data=[69,0]),
   midi.NoteOnEvent(tick=0, channel=0, data=[67,40]),
   midi.NoteOnEvent(tick=160, channel=0, data=[67,0]),
   midi.NoteOnEvent(tick=0, channel=0, data=[62,0]),
   midi.NoteOnEvent(tick=160, channel=0, data=[62,27]),
   midi.NoteOnEvent(tick=0, channel=0, data=[69,47]),
   midi.NoteOnEvent(tick=160, channel=0, data=[69,0]),
   midi.NoteOnEvent(tick=0, channel=0, data=[67,40]),
   midi.NoteOnEvent(tick=160, channel=0, data=[67,0]),
   midi.NoteOnEvent(tick=0, channel=0, data=[62,0]),
   midi.NoteOnEvent(tick=160, channel=0, data=[61,29]),
   midi.NoteOnEvent(tick=0, channel=0, data=[70,51]),
   midi.NoteOnEvent(tick=160, channel=0, data=[70,0]),
   midi.NoteOnEvent(tick=0, channel=0, data=[69,46]),
   midi.NoteOnEvent(tick=160, channel=0, data=[69,0]),
   midi.NoteOnEvent(tick=0, channel=0, data=[61,0]),
   midi.NoteOnEvent(tick=160, channel=0, data=[70,52]),
   midi.NoteOnEvent(tick=0, channel=0, data=[61,42]),
   midi.NoteOnEvent(tick=160, channel=0, data=[70,0]),
   midi.NoteOnEvent(tick=0, channel=0, data=[69,45]),
   midi.NoteOnEvent(tick=160, channel=0, data=[69,0]),
   midi.NoteOnEvent(tick=0, channel=0, data=[61,0]),
   midi.NoteOnEvent(tick=160, channel=0, data=[61,42]),
   midi.NoteOnEvent(tick=0, channel=0, data=[70,51]),
   midi.NoteOnEvent(tick=160, channel=0, data=[70,0]),
   midi.NoteOnEvent(tick=0, channel=0, data=[69,45]),
   midi.NoteOnEvent(tick=160, channel=0, data=[69,0]),
   midi.NoteOnEvent(tick=0, channel=0, data=[61,0]),
   midi.NoteOnEvent(tick=160, channel=0, data=[70,48]),
   midi.NoteOnEvent(tick=0, channel=0, data=[62,27]),
   midi.NoteOnEvent(tick=160, channel=0, data=[70,0]),
   midi.NoteOnEvent(tick=0, channel=0, data=[69,41]),
   midi.NoteOnEvent(tick=160, channel=0, data=[69,0]),
   midi.NoteOnEvent(tick=0, channel=0, data=[62,0]),
   midi.NoteOnEvent(tick=160, channel=0, data=[69,48]),
   midi.NoteOnEvent(tick=0, channel=0, data=[62,27]),
   midi.NoteOnEvent(tick=160, channel=0, data=[69,0]),
   midi.NoteOnEvent(tick=0, channel=0, data=[67,40]),
   midi.NoteOnEvent(tick=160, channel=0, data=[67,0]),
   midi.NoteOnEvent(tick=0, channel=0, data=[62,0]),
   midi.NoteOnEvent(tick=160, channel=0, data=[67,47]),
   midi.NoteOnEvent(tick=0, channel=0, data=[62,27]),
   midi.NoteOnEvent(tick=160, channel=0, data=[67,0]),
   midi.NoteOnEvent(tick=0, channel=0, data=[64,40]),
   midi.NoteOnEvent(tick=160, channel=0, data=[64,0]),
   midi.NoteOnEvent(tick=0, channel=0, data=[62,0]),
   midi.NoteOnEvent(tick=160, channel=0, data=[61,30]),
   midi.NoteOnEvent(tick=0, channel=0, data=[70,53]),
   midi.NoteOnEvent(tick=160, channel=0, data=[70,0]),
   midi.NoteOnEvent(tick=0, channel=0, data=[69,48]),
   midi.NoteOnEvent(tick=160, channel=0, data=[69,0]),
   midi.NoteOnEvent(tick=0, channel=0, data=[61,0]),
   midi.NoteOnEvent(tick=160, channel=0, data=[70,55]),
   midi.NoteOnEvent(tick=0, channel=0, data=[61,31]),
   midi.NoteOnEvent(tick=237, channel=0, data=[48,22]),
   midi.NoteOnEvent(tick=234, channel=0, data=[48,22]),
   midi.NoteOnEvent(tick=237, channel=0, data=[48,22]),
   midi.NoteOnEvent(tick=241, channel=0, data=[47,22]),
   midi.NoteOnEvent(tick=243, channel=0, data=[47,22]),
   midi.NoteOnEvent(tick=238, channel=0, data=[48,22]),
   midi.NoteOnEvent(tick=240, channel=0, data=[48,22]),
   midi.NoteOnEvent(tick=242, channel=0, data=[47,22]),
   midi.NoteOnEvent(tick=240, channel=0, data=[48,22]),
   midi.NoteOnEvent(tick=236, channel=0, data=[48,22]),
   midi.NoteOnEvent(tick=236, channel=0, data=[48,22]),
   midi.NoteOnEvent(tick=235, channel=0, data=[48,22]),
   midi.NoteOnEvent(tick=236, channel=0, data=[48,22]),
   midi.NoteOnEvent(tick=234, channel=0, data=[48,22]),
   midi.NoteOnEvent(tick=235, channel=0, data=[48,22]),
   midi.NoteOnEvent(tick=236, channel=0, data=[48,22]),
   midi.NoteOnEvent(tick=238, channel=0, data=[48,22]),
   midi.NoteOnEvent(tick=246, channel=0, data=[47,23]),
   midi.NoteOnEvent(tick=246, channel=0, data=[47,23]),
   midi.NoteOnEvent(tick=246, channel=0, data=[47,23]),
   midi.NoteOnEvent(tick=246, channel=0, data=[47,23]),
   midi.NoteOnEvent(tick=246, channel=0, data=[47,23]),
   midi.NoteOnEvent(tick=246, channel=0, data=[47,23]),
   midi.NoteOnEvent(tick=247, channel=0, data=[47,23]),
   midi.NoteOnEvent(tick=291, channel=0, data=[42,26]),
   midi.NoteOnEvent(tick=347, channel=0, data=[37,28]),
   midi.NoteOnEvent(tick=347, channel=0, data=[37,28]),
   midi.NoteOnEvent(tick=347, channel=0, data=[37,28]),
   midi.NoteOnEvent(tick=347, channel=0, data=[37,28]),
   midi.NoteOnEvent(tick=347, channel=0, data=[37,28]),
   midi.NoteOnEvent(tick=347, channel=0, data=[37,28]),
   midi.NoteOnEvent(tick=347, channel=0, data=[37,28]),
   midi.NoteOnEvent(tick=347, channel=0, data=[37,28]),
   midi.NoteOnEvent(tick=347, channel=0, data=[37,28]),
   midi.NoteOnEvent(tick=347, channel=0, data=[37,28]),
   midi.NoteOnEvent(tick=347, channel=0, data=[37,28]),
   midi.NoteOnEvent(tick=347, channel=0, data=[37,28]),
   midi.NoteOnEvent(tick=347, channel=0, data=[37,28]),
   midi.NoteOnEvent(tick=347, channel=0, data=[37,28]),
   midi.NoteOnEvent(tick=347, channel=0, data=[37,28]),
   midi.NoteOnEvent(tick=347, channel=0, data=[37,28]),
   midi.NoteOnEvent(tick=347, channel=0, data=[37,28]),
   midi.NoteOnEvent(tick=347, channel=0, data=[37,28]),
   midi.NoteOnEvent(tick=347, channel=0, data=[37,28]),
   midi.NoteOnEvent(tick=347, channel=0, data=[37,28]),
   midi.NoteOnEvent(tick=347, channel=0, data=[37,28]),
   midi.NoteOnEvent(tick=347, channel=0, data=[37,28]),
   midi.NoteOnEvent(tick=347, channel=0, data=[37,28]),
   midi.NoteOnEvent(tick=347, channel=0, data=[37,28]),
   midi.NoteOnEvent(tick=347, channel=0, data=[37,28]),
   midi.NoteOnEvent(tick=347, channel=0, data=[37,28]),
   midi.NoteOnEvent(tick=347, channel=0, data=[37,28]),
   midi.NoteOnEvent(tick=347, channel=0, data=[37,28]),
   midi.NoteOnEvent(tick=347, channel=0, data=[37,28]),
   midi.NoteOnEvent(tick=347, channel=0, data=[37,28]),
   midi.NoteOnEvent(tick=347, channel=0, data=[37,28]),
   midi.NoteOnEvent(tick=347, channel=0, data=[37,28]),
   midi.NoteOnEvent(tick=347, channel=0, data=[37,28]),
   midi.NoteOnEvent(tick=347, channel=0, data=[37,28]),
   midi.NoteOnEvent(tick=347, channel=0, data=[37,28]),
   midi.NoteOnEvent(tick=347, channel=0, data=[37,28]),
   midi.NoteOnEvent(tick=347, channel=0, data=[37,28]),
   midi.NoteOnEvent(tick=347, channel=0, data=[37,28]),
   midi.NoteOnEvent(tick=347, channel=0, data=[37,28]),
   midi.NoteOnEvent(tick=347, channel=0, data=[37,28]),
   midi.NoteOnEvent(tick=347, channel=0, data=[37,28]),
   midi.NoteOnEvent(tick=347, channel=0, data=[37,28]),
   midi.NoteOnEvent(tick=347, channel=0, data=[37,28]),
   midi.NoteOnEvent(tick=347, channel=0, data=[37,28]),
   midi.NoteOnEvent(tick=347, channel=0, data=[37,28]),
   midi.NoteOnEvent(tick=347, channel=0, data=[37,28]),
   midi.NoteOnEvent(tick=347, channel=0, data=[37,28]),
   midi.NoteOnEvent(tick=347, channel=0, data=[37,28]),
   midi.NoteOnEvent(tick=347, channel=0, data=[37,28]),
   midi.NoteOnEvent(tick=347, channel=0, data=[37,28]),
   midi.NoteOnEvent(tick=347, channel=0, data=[37,28]),
   midi.NoteOnEvent(tick=347, channel=0, data=[37,28]),
   midi.NoteOnEvent(tick=347, channel=0, data=[37,28]),
   midi.NoteOnEvent(tick=347, channel=0, data=[37,28]),
   midi.NoteOnEvent(tick=347, channel=0, data=[37,28]),
   midi.NoteOnEvent(tick=347, channel=0, data=[37,28]),
   midi.NoteOnEvent(tick=347, channel=0, data=[37,28]),
   midi.NoteOnEvent(tick=347, channel=0, data=[37,28]),
   midi.NoteOnEvent(tick=347, channel=0, data=[37,28]),
   midi.NoteOnEvent(tick=347, channel=0, data=[37,28]),
   midi.NoteOnEvent(tick=347, channel=0, data=[37,28]),
   midi.NoteOnEvent(tick=347, channel=0, data=[37,28]),
   midi.NoteOnEvent(tick=347, channel=0, data=[37,28]),
   midi.NoteOnEvent(tick=347, channel=0, data=[37,28]),
   midi.NoteOnEvent(tick=347, channel=0, data=[37,28]),
   midi.NoteOnEvent(tick=347, channel=0, data=[37,28]),
   midi.NoteOnEvent(tick=347, channel=0, data=[37,28]),
   midi.NoteOnEvent(tick=347, channel=0, data=[37,28]),
   midi.NoteOnEvent(tick=347, channel=0, data=[37,28]),
   midi.NoteOnEvent(tick=347, channel=0, data=[37,28]),
   midi.NoteOnEvent(tick=347, channel=0, data=[37,28]),
   midi.NoteOnEvent(tick=347, channel=0, data=[37,28]),
   midi.NoteOnEvent(tick=347, channel=0, data=[37,28]),
   midi.NoteOnEvent(tick=347, channel=0, data=[37,28]),
   midi.NoteOnEvent(tick=347, channel=0, data=[37,28]),
   midi.EndOfTrackEvent(tick=0, channel=0, data=[0,0])])])

midi.write_midifile("newMusic.mid", pattern)